P2
128 120
144
36 36 35 35 34 34 34 33 34 33 33 32 32 31 31 31
30 30 29 29 28 28 27 27 26 26 25 25 25 24 24 23
23 23 22 22 21 21 21 20 20 20 20 19 18 18 18 17
17 17 17 17 17 19 21 21 22 21 15 9 16 22 19 18
17 17 15 15 14 13 13 12 8 9 10 13 15 16 16 16
16 16 17 17 17 17 18 18 18 18 18 18 19 19 20 20
21 21 21 21 21 21 22 23 22 22 23 23 23 23 24 24
24 24 25 25 26 26 26 25 25 24 24 24 25 26 26 26
35 35 35 34 34 34 34 33 33 33 33 32 32 31 31 31
30 30 29 29 29 28 27 27 26 26 26 25 25 24 24 24
23 23 22 22 22 21 21 20 20 21 20 19 19 19 18 18
17 17 18 17 18 20 22 22 22 21 15 10 15 22 19 17
18 17 16 16 16 15 13 13 10 10 11 14 15 16 16 16
16 17 17 18 17 18 18 18 18 18 19 19 19 20 20 20
21 20 20 21 21 22 22 23 23 23 23 23 24 24 24 23
24 25 25 25 24 24 24 24 26 26 26 26 26 26 25 25
35 34 35 34 34 34 34 33 33 32 32 32 32 31 31 31
30 29 29 29 28 28 28 27 26 26 26 25 24 25 24 24
23 23 22 22 21 21 20 21 20 20 20 19 19 19 19 18
18 18 18 18 19 21 23 22 22 22 15 13 13 21 19 18
18 17 17 16 15 15 14 13 11 11 11 14 16 16 17 17
18 17 18 18 18 18 19 19 19 19 19 20 20 20 20 20
20 21 21 21 22 22 22 23 22 22 23 24 24 24 24 23
22 24 24 25 25 26 26 26 25 25 26 25 25 26 26 25
35 35 35 34 34 34 34 34 34 33 33 32 32 31 31 31
30 30 29 29 28 28 28 28 27 26 26 26 26 25 24 24
24 23 23 23 22 22 21 22 21 20 21 20 19 19 19 19
18 18 18 18 19 21 23 23 24 22 17 14 13 23 19 18
18 18 18 17 17 15 15 15 13 13 14 16 18 18 18 18
18 18 18 18 18 19 19 20 20 20 20 20 20 21 21 20
21 21 22 22 22 22 23 24 24 24 23 23 23 23 23 25
26 25 25 26 26 26 25 25 25 26 26 26 26 26 26 27
35 34 35 34 34 34 34 34 34 33 33 32 32 32 31 31
31 30 30 29 28 29 28 27 27 27 26 26 25 25 25 24
25 24 23 23 22 23 22 22 21 21 21 20 20 19 20 19
19 19 18 19 20 21 23 23 24 23 18 13 10 20 20 18
19 18 18 17 18 16 15 16 14 14 15 18 19 18 19 18
19 19 20 19 19 19 19 19 20 20 20 20 21 21 21 21
21 21 22 23 22 23 23 22 22 21 22 23 24 25 25 25
26 25 25 26 26 26 26 25 26 26 25 26 26 26 26 26
34 34 34 34 34 34 34 34 33 33 33 33 32 31 31 31
31 30 30 29 29 28 28 28 27 27 26 26 26 25 25 24
24 23 24 23 22 22 22 22 21 21 21 20 20 20 20 19
19 19 19 19 19 22 24 24 24 23 17 10 7 20 21 20
20 19 19 17 18 17 17 16 14 14 16 18 19 19 19 18
19 19 20 20 20 20 20 21 21 20 20 21 21 21 21 22
21 22 23 22 22 21 21 22 24 24 24 25 25 25 25 26
26 25 26 26 25 26 26 26 26 27 25 26 26 27 26 26
34 35 34 35 34 34 34 34 33 33 33 33 32 32 32 31
31 30 30 29 29 29 28 28 27 27 27 26 26 25 25 25
24 24 24 24 23 23 22 22 22 21 21 20 20 20 20 20
19 20 20 19 20 22 25 24 24 23 17 13 12 21 22 20
20 20 19 18 19 17 17 16 15 14 17 18 19 19 19 19
19 20 20 20 20 21 20 21 22 21 21 21 21 22 22 21
21 21 21 22 22 23 24 24 24 24 24 25 25 25 26 25
26 26 26 26 26 26 26 26 26 26 26 26 26 27 27 26
43 39 36 34 33 34 34 33 33 33 33 32 32 31 31 31
30 30 30 29 29 28 29 28 28 27 27 27 26 26 26 24
25 24 24 23 23 23 22 22 22 21 21 21 21 20 20 20
19 19 19 19 20 22 24 24 25 24 18 15 15 21 23 21
21 21 19 18 20 17 17 17 15 15 17 19 20 19 20 20
21 21 21 21 20 21 20 21 21 20 21 21 22 21 22 22
22 22 23 23 23 24 24 25 25 24 25 25 26 25 25 26
27 25 26 26 26 26 26 26 26 26 26 27 27 27 27 26
48 47 45 35 34 34 34 33 33 33 32 32 32 32 32 31
31 30 30 29 29 29 28 28 28 28 27 27 26 26 25 25
25 24 25 24 24 23 23 23 22 22 22 21 21 21 20 20
20 20 20 20 21 23 25 25 25 24 18 16 17 21 23 22
21 21 20 19 20 19 18 17 17 16 18 19 20 21 21 21
21 21 21 21 21 21 21 21 21 21 21 21 22 22 22 23
23 23 22 23 24 24 24 25 25 25 26 26 25 25 26 26
27 26 26 26 26 26 27 26 26 27 27 26 26 26 27 27
21 45 45 34 34 34 34 34 33 33 33 32 32 32 31 31
30 30 30 29 29 29 29 28 28 28 28 27 26 26 26 25
25 24 24 24 24 23 23 23 23 23 23 22 22 21 21 21
20 20 20 20 21 23 25 25 25 25 19 17 18 19 23 22
22 22 20 20 21 19 18 18 17 15 19 20 21 21 21 21
22 21 21 21 21 21 21 22 21 21 22 22 22 23 23 23
23 24 24 24 24 24 24 25 25 25 26 26 25 26 26 26
27 27 27 26 27 27 27 27 27 27 26 27 27 27 27 27
3 43 46 34 34 33 33 33 33 33 33 32 32 31 31 31
31 31 30 30 30 29 29 28 28 27 28 27 27 26 26 25
25 25 24 24 24 24 23 23 23 22 22 21 21 21 20 21
20 20 20 21 21 23 26 26 26 26 19 17 20 19 23 22
22 21 21 20 21 19 19 19 18 16 19 20 21 21 21 21
21 21 21 21 22 22 22 22 22 22 22 22 22 23 23 23
24 24 24 24 25 24 25 25 25 25 25 26 26 26 26 26
27 26 26 26 26 27 27 27 27 27 27 27 27 27 26 26
2 43 46 35 34 34 33 33 33 32 32 32 32 32 32 32
31 31 31 30 30 30 29 30 28 28 28 27 27 27 26 26
26 25 25 25 24 24 24 23 23 23 23 22 22 21 21 21
21 21 21 21 22 23 27 27 27 26 19 17 22 18 24 23
23 22 22 21 21 20 20 19 18 16 20 21 22 21 21 22
23 23 23 23 22 22 22 23 23 22 23 23 23 24 23 24
24 24 24 25 25 25 25 25 26 26 26 26 26 27 26 27
27 27 27 27 28 27 28 27 27 27 27 27 26 26 27 27
2 41 44 34 33 34 33 33 33 33 33 32 32 32 31 31
31 30 31 30 29 29 29 28 28 28 27 27 27 26 26 26
25 26 25 25 25 25 24 24 23 23 22 22 22 21 21 21
21 21 21 21 22 23 27 26 26 26 20 17 23 17 24 23
23 22 21 21 22 20 20 20 19 16 19 20 22 22 22 23
23 22 22 22 23 23 22 22 23 22 23 24 24 24 24 24
24 24 24 25 25 25 25 25 25 25 26 26 26 26 27 26
27 28 27 27 27 27 26 26 25 25 26 27 27 26 27 26
2 41 44 34 33 33 32 32 32 32 32 32 32 32 31 32
31 31 30 30 30 29 29 29 28 28 27 27 27 26 26 26
26 26 25 25 25 24 24 24 24 23 23 22 23 22 22 22
21 21 21 21 22 24 27 27 27 26 21 18 24 17 24 24
24 22 22 21 22 21 20 19 19 16 21 21 22 23 23 23
23 22 23 24 23 23 23 22 23 23 23 23 24 24 24 24
25 25 24 24 25 25 25 25 26 26 26 26 26 26 27 26
25 26 26 25 27 27 27 28 27 27 27 26 26 26 26 26
2 42 44 34 33 33 33 33 33 32 32 32 32 32 32 31
31 31 31 30 29 29 29 29 28 28 27 27 27 27 27 26
26 26 26 25 25 25 24 24 24 23 23 23 23 22 22 22
22 21 21 22 22 24 27 27 27 27 21 19 25 17 24 24
23 23 22 22 22 22 21 21 20 16 21 21 23 23 23 23
23 23 23 23 23 23 23 23 23 23 23 24 24 24 24 24
25 24 25 25 25 25 25 26 26 26 26 26 26 26 25 25
26 26 27 27 27 27 27 27 28 29 27 27 27 26 27 26
2 40 43 34 33 33 33 33 33 33 32 32 32 31 32 31
32 31 31 30 30 30 30 29 28 28 28 27 27 27 27 26
26 26 26 25 25 25 25 24 24 24 24 23 23 22 22 22
22 21 22 22 22 24 28 27 27 27 21 18 25 18 24 23
24 23 22 22 22 22 20 20 20 17 21 21 23 23 23 24
23 23 23 24 23 24 23 23 23 24 24 24 24 24 25 25
25 25 26 26 26 26 26 25 25 25 25 26 26 27 27 27
27 27 27 27 27 27 27 27 27 28 27 26 26 26 26 26
2 41 42 34 33 33 33 33 33 33 33 32 32 32 32 31
31 31 31 31 30 29 29 29 29 28 28 28 28 27 27 27
26 26 26 25 25 25 25 24 25 24 24 23 23 23 23 23
22 22 22 22 23 25 28 27 28 27 21 18 25 19 23 23
24 24 23 22 23 23 21 21 21 17 23 21 23 23 24 23
24 24 23 24 24 23 24 24 24 24 25 25 25 25 25 26
25 25 25 25 25 25 25 26 26 27 27 27 28 27 28 28
27 27 28 28 27 27 27 28 27 28 26 26 27 26 27 26
3 41 43 33 33 33 33 33 33 33 32 32 32 32 32 32
32 31 31 31 30 30 29 29 29 29 28 28 28 27 27 27
26 27 26 26 26 25 25 25 25 25 24 23 24 23 23 22
23 23 23 23 24 25 28 27 27 27 22 19 25 21 23 24
24 24 23 23 22 22 22 21 21 18 22 22 24 24 24 24
25 25 24 25 25 24 24 25 25 25 25 25 26 26 26 25
26 25 25 26 26 27 26 26 27 27 28 28 28 28 27 28
28 28 28 28 28 28 28 28 28 28 27 26 27 27 27 27
14 43 43 34 33 33 34 33 34 33 33 33 32 32 32 31
31 31 31 31 30 30 30 29 29 29 29 29 29 28 28 27
27 26 26 26 26 26 26 25 25 25 25 25 24 24 23 23
23 23 23 23 24 25 26 26 26 25 21 18 24 22 21 25
25 24 24 24 22 23 22 22 22 18 23 22 25 25 25 25
25 25 25 25 25 25 25 25 25 25 26 25 26 25 26 26
26 26 26 26 26 27 27 27 28 28 28 28 28 29 29 28
28 28 27 28 28 27 27 27 28 28 27 27 27 27 27 28
25 42 41 34 34 34 34 33 33 33 33 32 32 33 32 32
32 32 32 31 31 31 30 29 30 29 29 28 28 28 28 27
27 26 27 27 27 26 26 26 26 25 26 25 25 24 24 23
23 23 21 17 16 12 9 5 3 4 6 8 12 14 17 23
24 24 24 24 22 23 22 22 22 19 23 23 25 25 25 25
25 26 26 26 25 25 26 25 25 26 26 26 26 26 26 26
27 26 27 27 27 27 28 28 28 28 28 28 29 28 28 29
29 28 29 28 28 28 28 28 28 29 28 28 28 28 27 27
35 37 36 34 34 34 34 34 34 33 33 33 33 33 32 32
32 32 31 31 31 31 31 31 31 30 30 29 29 28 28 28
27 27 27 27 26 26 26 26 26 25 26 26 25 25 25 24
24 21 12 8 6 3 0 2 1 2 4 3 3 3 4 4
9 17 22 24 23 24 23 22 22 19 23 23 25 26 25 26
25 25 26 25 25 26 25 26 26 27 26 27 27 26 27 27
27 27 27 27 28 28 28 28 29 29 28 28 29 29 29 29
29 28 28 28 27 28 28 28 28 29 29 28 28 28 28 28
30 33 35 35 35 34 34 33 34 33 33 33 33 33 32 32
32 32 32 32 32 31 31 30 30 30 30 29 29 29 28 28
28 28 28 27 27 27 27 27 26 26 26 25 25 25 23 21
17 9 8 7 3 1 0 1 1 1 1 1 1 2 3 2
1 0 3 15 22 25 23 23 23 20 24 23 26 26 26 25
26 26 26 26 26 26 27 26 27 27 26 27 27 27 27 27
28 28 28 28 29 29 29 29 29 29 29 29 29 29 29 28
28 28 29 29 29 28 29 29 29 29 29 29 29 29 28 28
17 20 25 29 32 34 34 35 35 34 34 33 33 33 33 33
32 32 32 32 32 31 31 31 30 30 30 30 30 29 29 28
28 28 28 28 27 27 27 27 27 26 26 26 17 7 9 11
6 5 3 0 0 0 0 0 0 0 0 0 0 0 0 0
0 0 0 0 3 16 23 24 23 19 24 23 26 26 26 26
27 27 27 26 27 27 27 27 27 28 27 27 27 27 27 27
28 28 28 28 29 29 29 29 29 29 29 29 29 30 29 29
29 28 29 29 29 29 29 29 29 29 28 27 27 27 27 27
12 12 13 14 15 17 21 26 29 31 34 34 33 33 33 33
32 32 32 32 32 31 31 31 30 30 30 29 30 29 29 29
28 28 28 28 28 28 27 27 27 27 26 17 10 4 8 8
3 2 1 1 1 0 0 3 2 0 2 2 0 2 1 0
0 0 0 0 0 0 8 24 24 20 25 25 27 27 27 26
27 27 27 27 27 27 28 28 28 28 28 27 28 28 28 28
29 28 29 29 29 29 30 29 30 30 30 29 30 29 30 29
30 29 29 30 30 29 29 29 28 28 26 27 28 28 29 26
14 12 12 11 12 12 13 12 14 14 17 22 31 33 33 33
33 32 32 32 32 32 31 31 31 31 30 30 30 30 30 29
29 28 28 28 28 27 28 28 26 25 14 1 1 9 8 6
6 7 6 6 5 4 6 10 12 13 7 1 2 3 2 1
0 0 0 0 0 0 0 11 24 21 25 25 27 27 27 27
28 28 27 28 28 28 28 28 28 29 27 28 28 28 28 28
29 29 29 29 29 29 30 29 30 30 30 30 30 30 30 30
29 29 28 27 27 27 28 29 29 29 29 29 29 28 28 28
32 16 17 14 12 12 13 12 13 6 5 11 28 34 33 33
33 32 33 31 31 32 32 31 31 30 31 31 31 30 30 29
29 29 29 29 29 28 27 27 24 9 1 0 7 16 6 6
9 11 15 21 13 10 10 8 7 4 4 4 1 0 0 0
0 0 0 0 0 0 0 0 16 22 25 25 27 27 27 27
27 28 28 27 27 28 28 28 28 29 28 28 28 29 29 29
29 29 30 30 31 30 30 30 30 30 30 29 29 29 29 29
29 29 29 29 30 29 29 29 28 28 28 28 28 28 28 28
43 24 27 29 26 19 15 12 12 11 10 12 27 34 34 33
33 32 32 31 32 32 32 32 31 31 31 30 30 30 30 30
29 30 29 29 28 30 28 20 9 0 2 2 15 10 8 10
10 22 26 17 16 10 8 8 11 10 11 7 4 3 1 0
1 1 2 3 8 6 4 1 1 18 25 25 27 27 27 27
28 28 28 28 28 28 29 29 29 30 29 28 28 28 28 29
29 29 30 31 30 29 29 29 29 28 29 29 29 29 29 29
29 30 29 29 29 29 29 29 29 28 28 28 28 28 28 28
45 29 34 37 40 33 37 35 30 18 10 12 27 34 34 34
34 33 32 36 36 35 34 32 31 31 31 30 30 30 30 29
29 29 29 28 34 39 22 2 1 3 4 9 17 8 9 12
18 29 22 23 23 22 25 24 22 12 12 15 22 27 27 17
7 1 0 1 1 4 3 0 1 2 24 25 28 28 28 27
28 28 28 29 28 29 29 29 28 30 30 29 30 30 29 29
29 29 30 29 29 29 29 29 29 28 29 29 29 29 29 29
29 30 30 29 29 29 29 28 28 29 28 28 28 28 28 28
44 33 36 39 42 38 44 44 44 32 11 14 27 34 34 34
33 32 35 43 41 40 39 36 34 32 31 31 31 30 30 29
29 29 29 29 36 36 22 3 1 3 4 17 18 8 13 19
24 22 21 22 25 25 27 31 31 25 16 9 7 9 16 29
26 13 1 0 0 0 0 0 0 0 12 26 28 28 28 28
28 28 28 28 29 29 29 29 29 30 30 29 28 29 29 29
29 29 29 29 29 30 29 29 30 29 29 29 29 29 29 29
28 29 29 29 29 29 28 28 29 28 29 28 28 28 28 28
38 36 38 41 42 43 46 46 46 36 11 14 30 35 35 34
33 32 35 44 42 41 38 38 38 40 37 34 33 32 31 29
29 29 29 29 35 29 14 4 1 4 11 23 15 14 22 25
24 28 37 35 31 33 31 35 29 24 19 11 6 3 3 4
11 19 18 1 0 0 0 0 0 0 1 22 28 28 28 28
28 28 29 29 29 29 28 29 29 29 29 28 29 29 29 29
30 30 29 29 30 29 30 29 29 30 29 29 29 30 29 30
29 29 30 29 29 29 29 28 29 28 28 29 28 28 28 29
38 37 39 40 41 44 45 46 46 39 14 15 33 38 36 37
36 34 36 42 41 41 40 40 42 44 40 36 38 39 36 33
32 31 31 29 32 15 0 3 5 9 19 31 21 26 33 38
37 54 66 77 68 65 63 55 46 36 29 22 16 8 4 2
2 3 8 17 2 0 0 0 0 0 0 11 29 29 29 29
29 29 29 29 29 28 29 29 29 30 29 29 30 29 29 29
29 31 29 29 30 29 30 30 30 30 29 29 29 29 29 29
29 29 30 29 29 29 29 29 28 29 28 28 28 28 28 28
37 27 24 31 37 43 44 45 44 37 14 15 32 40 33 34
37 38 39 22 9 20 33 39 41 43 39 16 15 24 30 35
34 36 36 33 31 7 2 6 13 19 28 37 36 43 54 58
66 88 99 100 101 96 100 95 80 70 61 48 34 22 14 6
3 1 0 1 5 0 0 0 0 0 0 1 26 29 29 29
29 28 29 29 29 29 29 28 29 29 29 29 29 29 29 29
30 31 29 30 30 29 30 30 29 29 29 30 29 29 30 29
29 29 31 29 29 28 28 28 28 28 29 29 28 28 28 28
38 17 0 3 7 16 25 29 34 38 15 15 31 39 35 31
33 41 45 19 0 0 10 17 17 23 36 7 0 0 1 7
12 20 27 32 31 3 1 8 23 27 36 47 55 67 77 86
100 109 110 109 97 107 108 106 105 91 85 79 59 38 27 19
10 4 0 0 0 0 0 0 0 0 0 0 12 28 28 29
29 29 30 29 29 29 29 29 29 29 29 29 29 29 29 29
29 31 30 30 30 30 30 30 30 29 30 29 30 29 28 29
29 29 30 29 28 28 29 29 29 29 29 28 29 29 28 29
39 15 0 0 0 0 0 0 6 38 16 15 16 24 31 37
39 43 45 21 0 0 5 9 12 12 33 7 0 0 0 0
0 0 1 11 26 0 0 18 34 36 52 68 84 94 102 110
113 114 114 114 111 112 111 106 105 104 98 88 72 49 35 23
14 6 1 0 0 0 0 0 0 0 0 0 1 25 29 30
30 30 31 29 30 30 29 29 30 30 30 30 30 29 30 30
30 31 31 30 30 30 31 30 30 30 30 30 30 30 30 30
30 30 30 30 29 29 29 29 29 29 29 29 29 29 29 29
40 14 0 0 0 0 0 0 5 37 15 14 2 0 1 6
14 25 34 24 0 0 3 2 5 8 33 11 0 0 0 0
0 0 0 7 22 0 2 48 57 59 72 90 106 113 117 118
115 118 118 117 116 114 112 112 111 107 105 100 85 64 42 35
22 14 7 2 0 0 0 0 0 0 0 0 0 14 31 30
30 30 31 31 30 30 30 30 30 29 30 30 30 30 30 30
30 31 31 31 31 31 32 31 31 31 30 30 30 30 30 30
30 30 30 31 30 29 30 29 29 30 30 30 30 30 29 29
40 14 0 0 6 4 0 0 5 38 16 13 1 0 0 0
0 0 3 18 0 0 0 0 0 6 30 8 0 0 0 0
0 0 0 6 21 0 20 77 85 87 98 108 115 119 120 120
120 123 122 120 115 109 114 116 114 112 108 102 93 73 50 40
30 20 12 4 1 0 0 0 0 0 0 0 0 4 30 30
30 30 31 30 31 30 30 30 30 30 30 30 30 31 31 31
31 32 30 31 31 31 30 31 31 31 30 30 31 31 30 30
31 31 30 30 31 30 30 31 30 30 30 30 30 30 30 30
40 13 1 1 4 13 1 0 5 38 16 13 1 0 0 0
0 0 0 14 0 0 0 0 0 6 33 9 0 0 0 7
6 0 0 5 22 0 50 90 95 98 110 113 116 120 121 121
123 125 121 119 117 115 118 117 116 113 110 102 94 78 59 45
34 25 14 6 1 0 0 0 0 0 0 0 0 0 23 31
30 31 31 30 30 30 30 30 30 30 30 30 31 31 31 31
31 31 30 31 32 31 31 31 31 31 31 31 31 30 30 29
30 29 31 30 31 31 31 31 30 30 30 31 30 31 30 30
39 12 0 1 1 12 0 0 5 38 16 14 1 0 0 0
0 0 0 12 0 0 0 0 0 5 35 10 0 0 0 10
13 9 3 4 25 5 74 98 98 104 113 116 120 121 123 127
128 127 126 120 118 118 119 118 117 115 110 102 92 73 60 52
41 32 19 8 3 0 0 0 0 0 0 0 0 0 14 31
30 30 31 30 30 31 30 30 30 30 30 30 31 31 30 31
31 32 31 31 32 31 32 31 32 31 30 31 31 31 31 31
31 31 31 31 31 31 31 30 29 29 30 30 30 30 30 29
38 10 0 0 0 0 0 0 5 37 16 14 2 0 0 4
6 0 0 11 0 0 0 0 0 4 34 12 0 0 1 10
13 13 10 3 29 18 83 101 103 107 114 117 120 123 125 129
132 128 122 121 122 121 121 120 117 114 109 102 93 82 64 51
42 30 24 10 3 0 0 0 0 0 0 0 0 0 8 30
31 31 31 30 30 30 30 30 30 30 31 31 31 31 32 32
32 32 31 31 31 31 32 31 32 31 31 31 31 30 31 31
30 30 31 30 30 30 30 30 30 29 29 30 30 30 31 30
37 9 0 2 1 0 0 0 6 36 15 14 2 5 5 2
2 0 0 11 0 0 0 0 0 6 34 14 0 0 0 9
12 12 10 3 31 37 88 101 104 106 114 117 122 121 123 129
130 128 125 124 122 123 123 120 119 116 109 101 98 85 66 54
39 26 20 11 2 0 0 0 0 0 0 0 0 0 2 28
30 30 31 30 30 30 30 30 30 30 31 31 31 31 31 30
30 30 31 30 31 30 30 31 31 31 31 31 31 30 30 30
30 30 30 30 30 30 29 29 29 29 29 31 30 30 30 30
39 15 2 1 1 1 0 0 6 36 15 14 3 6 0 0
1 0 0 11 0 0 0 0 0 11 35 20 0 0 0 0
4 10 8 1 28 50 90 102 106 108 114 118 121 123 124 127
127 128 122 123 122 124 124 122 120 117 111 105 97 89 71 53
39 26 14 9 3 0 0 0 0 0 0 0 0 0 0 22
30 30 30 30 29 29 29 29 30 31 30 30 31 31 30 30
30 30 30 30 30 30 31 31 31 30 31 30 30 30 30 30
30 29 30 30 30 30 29 29 28 28 29 30 28 28 28 27
41 48 33 22 29 26 24 19 22 33 14 13 3 1 0 0
0 0 0 21 15 8 6 3 0 3 34 38 26 21 17 10
3 3 4 1 28 60 92 104 106 110 115 119 121 121 123 125
128 127 123 123 124 124 123 119 118 115 113 107 97 86 67 49
35 19 11 4 3 0 0 0 0 0 0 0 0 0 0 16
30 29 29 29 30 29 30 30 30 30 29 30 30 29 30 30
30 29 29 29 30 30 31 31 30 30 30 29 30 29 29 29
29 29 28 27 27 28 28 26 26 26 27 25 22 19 16 13
55 56 34 28 38 43 43 42 41 33 14 13 2 0 0 0
0 0 0 33 46 36 34 32 27 21 41 35 19 22 25 26
26 24 24 25 40 67 96 107 108 111 115 119 121 122 125 126
128 126 126 124 124 124 123 121 117 114 112 108 104 90 77 54
33 17 10 5 2 0 0 0 0 0 0 0 0 0 0 11
29 29 30 30 30 30 30 30 30 31 30 30 30 30 30 30
30 30 30 30 30 30 31 30 30 30 30 29 28 28 27 27
28 27 28 27 25 24 21 18 16 13 11 10 8 8 7 8
56 51 29 30 39 43 43 46 45 34 14 13 3 0 0 0
0 0 0 35 47 38 43 45 49 44 44 29 11 12 13 13
13 14 17 21 32 72 99 109 110 113 117 121 122 125 129 131
131 130 130 128 125 124 125 122 119 114 109 106 106 101 92 69
42 17 9 5 3 1 0 0 0 0 0 0 0 0 0 9
30 29 29 30 30 31 30 30 30 30 30 30 30 29 29 30
30 30 29 30 31 30 30 30 30 30 30 28 29 30 25 23
20 17 15 13 11 10 10 10 11 11 12 13 13 14 14 15
51 39 17 24 36 39 40 44 45 35 14 15 20 20 13 7
2 0 0 34 39 39 45 47 50 46 37 28 14 13 12 11
10 9 9 8 21 74 103 113 111 117 120 122 124 125 132 133
132 132 130 126 125 123 124 122 119 115 107 106 106 104 101 88
56 26 10 2 3 2 0 0 0 0 0 0 0 0 0 8
30 31 30 30 30 30 30 29 28 29 30 29 29 30 30 30
31 31 31 31 31 31 29 27 25 23 20 17 18 29 20 9
11 11 13 13 14 14 15 16 16 17 18 19 20 20 20 20
50 34 1 0 2 3 6 9 21 36 15 16 31 44 44 41
36 30 27 40 32 37 44 45 49 47 40 32 17 13 11 9
9 9 9 9 27 75 104 112 113 121 122 122 124 130 133 132
133 132 129 123 117 117 122 122 119 115 107 104 105 106 104 97
81 41 15 4 0 0 0 1 0 0 0 0 0 0 0 9
30 30 30 30 30 30 30 29 29 29 30 30 31 31 31 31
30 28 26 23 21 18 16 15 14 14 15 14 13 24 19 11
15 17 18 19 20 20 21 21 23 23 23 23 23 24 24 25
51 35 0 0 0 0 0 0 7 34 15 16 32 46 47 45
45 45 47 44 16 16 25 30 36 38 36 35 17 12 10 5
6 6 9 11 35 73 100 108 113 120 123 122 125 127 126 129
125 119 108 99 82 81 93 111 118 112 107 104 106 107 106 103
94 66 32 8 0 0 0 0 1 0 2 7 10 0 0 9
29 29 29 28 27 26 29 30 31 30 29 27 25 23 21 19
18 16 16 16 16 16 18 18 18 19 19 19 19 23 21 15
21 22 24 24 25 25 26 25 26 26 25 25 26 26 26 26
49 32 0 0 0 0 1 2 8 33 16 14 28 43 45 45
46 46 48 42 6 0 0 2 6 13 20 36 16 11 7 0
0 0 6 11 35 62 90 103 109 114 119 119 121 119 113 104
77 47 45 42 48 62 64 58 72 105 107 106 104 108 108 105
99 82 51 23 3 0 0 0 1 6 28 55 67 44 1 8
27 27 26 27 23 16 23 23 21 19 18 17 17 17 17 18
19 19 20 20 22 23 23 24 23 24 25 25 24 25 23 19
24 25 26 26 27 27 28 28 28 28 28 28 28 28 28 27
45 28 0 0 0 0 19 23 23 30 26 21 27 33 35 36
38 39 44 38 3 0 0 0 0 3 19 37 15 10 8 0
0 0 0 2 14 34 69 89 100 106 111 113 110 98 88 71
56 42 31 49 71 77 83 77 65 76 106 109 107 111 110 108
103 93 61 35 18 4 0 1 7 37 63 63 64 86 30 7
25 23 21 20 17 14 17 17 18 18 19 20 22 23 23 24
25 25 25 25 26 27 28 27 27 28 28 27 23 9 7 18
27 28 29 29 29 29 29 29 29 29 28 28 28 28 28 28
42 25 0 0 0 0 17 23 22 23 23 19 22 22 24 29
30 30 40 36 2 0 0 0 0 0 12 37 14 8 2 0
0 5 2 1 1 7 23 55 82 98 101 106 99 79 69 61
65 64 96 112 118 118 111 101 91 80 90 105 109 112 113 110
106 99 81 63 32 22 13 28 53 65 70 107 93 100 74 4
18 18 19 19 19 20 21 22 23 24 25 26 27 27 28 28
28 29 28 29 29 29 29 29 29 29 28 28 22 2 1 13
27 30 31 30 29 29 30 30 29 30 30 29 29 29 28 29
44 23 0 0 0 0 6 12 16 24 21 19 21 22 23 28
29 30 40 36 2 0 0 0 0 0 11 35 3 0 0 0
0 7 7 3 5 34 16 17 52 81 92 94 88 72 67 79
86 93 107 115 119 120 116 114 109 105 103 107 111 114 113 111
106 100 91 77 55 29 25 48 86 61 77 99 93 104 98 14
21 22 23 24 25 26 26 27 27 28 28 29 29 30 30 29
30 31 30 30 31 30 30 30 23 16 11 15 21 5 3 10
27 30 30 30 30 29 29 29 30 29 30 29 29 29 28 28
45 23 0 0 0 0 0 0 2 19 15 17 17 13 19 25
29 34 39 34 2 0 0 0 0 0 14 34 1 0 0 0
0 2 13 9 18 76 77 53 37 57 86 100 98 87 95 96
84 68 61 74 91 92 89 83 83 92 102 109 116 120 117 113
108 101 97 85 69 46 35 58 70 78 114 116 97 101 106 23
26 27 27 27 28 29 29 29 29 30 30 30 30 31 31 31
31 32 32 31 30 31 31 28 5 2 5 13 20 1 0 9
27 29 30 30 29 30 29 29 28 29 29 29 29 29 28 28
45 22 0 0 2 0 0 0 2 25 20 22 13 0 0 0
3 6 11 22 2 0 0 0 0 0 15 33 1 0 0 0
1 8 13 12 21 79 91 79 61 47 71 106 124 120 112 101
81 54 21 10 12 48 44 45 52 75 89 108 123 125 122 115
110 104 98 86 67 59 54 70 70 49 72 121 111 95 115 25
28 28 29 29 29 31 31 31 31 31 31 31 32 32 32 31
32 31 32 32 32 32 32 31 26 25 28 28 22 2 0 9
27 29 31 30 29 29 29 29 30 29 29 29 29 29 28 28
45 21 0 0 0 5 0 0 3 31 26 24 14 0 0 0
0 0 0 13 2 0 0 1 0 0 14 30 0 0 0 0
4 17 18 12 13 42 64 63 63 48 58 113 133 130 120 115
102 63 50 36 32 68 63 81 85 105 111 120 129 129 124 116
110 106 99 89 72 61 62 85 75 84 96 105 120 91 111 18
28 29 29 29 30 31 32 31 32 31 32 32 32 32 32 32
32 33 33 32 32 32 32 31 30 30 29 28 24 5 0 11
27 29 30 30 30 29 30 29 29 29 29 29 29 28 28 28
41 23 0 0 0 7 0 0 2 33 27 23 15 0 0 0
0 0 0 11 2 0 2 11 4 0 14 29 0 0 0 0
1 7 17 4 1 9 6 7 76 55 52 115 130 126 122 123
115 101 73 54 57 80 102 116 117 118 122 123 125 127 125 113
108 104 99 87 73 61 62 91 93 88 116 104 121 93 89 15
30 29 29 29 31 32 32 32 31 31 32 32 32 32 32 31
33 33 33 32 32 32 32 31 31 30 29 28 25 10 0 16
27 30 30 30 30 30 29 29 29 29 29 29 29 28 28 28
35 31 14 5 2 12 9 4 1 33 25 22 14 0 0 4
6 0 0 11 3 0 9 16 8 0 13 27 0 0 0 0
0 0 13 2 0 3 12 21 67 58 74 118 127 121 119 123
120 109 92 88 96 111 119 121 121 123 124 123 121 124 121 115
107 103 99 89 74 65 63 89 89 81 114 109 119 100 60 15
34 29 28 29 30 31 32 32 31 31 32 31 32 31 31 31
32 32 32 32 32 32 31 31 31 31 29 27 24 18 12 21
28 29 30 31 30 29 30 29 29 29 29 29 29 28 28 28
35 33 33 34 27 31 32 29 25 38 26 20 14 0 2 14
13 4 0 11 10 4 15 15 14 3 13 26 0 0 0 0
0 0 13 5 0 0 27 34 60 59 87 117 120 118 117 119
122 117 111 107 109 115 121 124 125 125 125 125 122 123 118 112
105 103 99 91 76 69 63 79 80 83 104 111 112 108 34 17
31 31 29 29 28 31 32 32 32 31 32 31 32 32 32 32
32 32 32 32 31 32 32 31 31 31 30 28 24 22 23 27
30 30 30 31 30 30 30 29 30 29 29 30 29 29 28 28
37 33 16 10 14 22 31 38 43 43 32 19 15 0 3 13
11 4 0 14 37 34 38 35 34 31 35 28 0 0 0 0
0 0 13 6 0 2 45 59 71 71 95 116 115 114 115 117
121 123 121 116 113 115 122 126 129 129 128 125 123 120 116 109
104 103 99 90 78 67 64 70 65 103 115 99 108 105 11 16
31 30 27 29 31 31 32 31 32 31 31 32 32 31 32 32
32 32 33 32 32 32 32 31 31 30 30 28 26 25 26 29
30 30 29 31 30 30 31 31 30 30 30 29 29 29 29 28
37 33 9 0 0 3 5 15 42 42 30 18 16 0 0 3
0 0 0 13 40 39 43 42 43 47 49 36 9 10 7 1
1 2 16 9 2 5 58 76 78 77 101 111 110 107 109 117
121 123 123 120 118 118 125 130 131 132 130 124 122 119 113 108
103 100 98 86 79 70 66 71 94 124 123 107 100 68 0 14
29 29 30 27 28 31 32 32 31 32 32 32 32 32 32 32
32 32 32 32 32 32 32 32 31 30 30 29 27 27 29 31
31 31 30 30 30 30 31 30 30 29 29 28 29 29 29 28
40 34 6 0 2 22 16 19 41 40 26 20 21 13 0 1
0 0 0 12 41 40 42 41 43 49 51 44 31 30 29 25
23 23 26 20 18 22 73 84 82 88 108 113 109 105 104 113
122 124 124 122 121 122 125 128 131 128 127 123 121 119 114 108
101 98 97 88 81 73 67 72 105 117 119 110 86 22 0 15
30 30 29 28 29 31 31 31 31 32 32 31 32 32 32 32
32 32 33 32 32 33 33 32 31 31 30 30 29 29 30 30
30 30 29 30 30 30 30 30 29 29 29 29 29 29 28 28
41 35 5 0 0 16 27 29 41 36 22 21 23 11 0 1
0 0 0 12 36 35 38 38 39 40 39 39 35 35 35 33
33 34 33 32 30 37 79 86 85 104 114 111 108 102 98 103
116 125 124 125 124 126 127 129 128 128 126 124 121 117 113 107
100 99 96 90 83 77 71 72 114 112 116 114 84 6 0 13
27 30 30 30 30 30 33 32 32 32 32 33 33 33 33 32
33 32 33 32 32 32 32 31 31 31 31 30 29 30 31 30
30 30 31 31 31 31 30 29 29 29 29 28 30 29 28 28
43 37 5 0 0 3 10 27 42 33 20 23 22 5 0 0
0 0 0 13 39 34 35 35 36 34 31 33 36 37 38 37
35 35 35 35 35 46 77 88 91 116 120 119 111 103 99 96
98 119 122 123 128 130 130 130 129 129 125 123 120 116 112 105
99 98 95 90 83 80 70 70 109 123 117 109 54 0 0 10
23 27 29 31 29 31 32 32 32 33 32 32 32 32 32 32
32 32 32 32 32 32 32 31 32 31 31 30 30 31 31 31
30 31 31 31 30 31 30 30 30 29 29 28 29 28 28 27
43 37 6 0 0 0 0 22 42 33 21 22 22 21 17 13
11 8 6 16 41 34 34 34 34 34 35 37 38 38 41 45
44 36 34 35 37 49 74 88 96 124 129 124 123 119 115 104
89 110 118 124 129 131 132 133 129 127 126 125 120 116 112 104
99 97 96 92 84 77 70 65 67 103 99 69 19 0 0 9
17 24 27 29 28 30 31 31 32 32 32 32 32 32 31 32
32 32 32 32 33 33 32 32 31 31 31 31 31 32 32 31
31 30 31 30 27 20 25 30 29 28 28 28 29 27 28 27
43 37 4 0 0 0 0 16 42 32 20 21 24 40 42 41
40 42 42 42 45 37 35 36 36 37 40 43 41 40 42 47
46 37 34 31 36 48 74 89 78 112 110 103 96 87 92 109
91 105 116 121 128 131 133 133 131 128 124 122 120 116 110 103
100 97 94 92 84 78 66 61 41 17 38 43 14 0 1 7
7 20 26 31 30 31 32 32 32 32 33 31 31 31 31 31
31 32 33 32 32 32 32 31 31 30 31 31 31 31 31 31
31 30 30 27 17 24 17 29 29 28 28 28 28 27 26 26
41 33 3 0 0 0 0 17 43 34 18 21 25 45 50 49
50 49 50 50 47 36 32 32 32 34 40 45 44 40 41 40
39 37 35 30 31 42 73 91 66 83 101 64 64 52 55 89
85 115 118 117 126 131 132 132 130 128 123 120 116 115 109 105
99 97 96 92 83 75 68 59 49 41 48 40 11 0 4 15
15 23 27 30 30 31 32 32 34 33 33 31 32 30 31 31
31 31 31 31 31 31 30 30 31 30 31 31 31 32 31 31
31 30 30 17 28 25 19 29 28 28 27 27 27 27 26 26
41 33 2 0 0 0 0 15 40 32 15 21 22 35 39 41
42 43 45 47 45 16 12 8 7 9 16 31 44 39 27 15
20 22 21 26 32 32 72 91 91 68 65 86 111 113 115 105
114 125 122 114 120 125 130 131 130 127 124 119 116 109 109 105
100 100 94 89 83 75 66 57 49 50 49 40 9 0 8 13
20 24 29 28 31 33 33 32 33 33 32 31 31 30 30 30
31 31 31 31 31 30 29 29 28 26 27 27 30 31 30 30
31 30 29 18 30 18 26 29 28 27 27 27 27 25 19 18
41 33 2 0 0 0 0 12 36 28 15 21 19 23 25 25
26 26 27 28 31 8 0 0 0 0 0 15 44 34 8 0
1 3 8 23 34 30 70 89 93 84 63 76 97 112 112 119
124 128 126 117 119 124 129 129 128 119 123 118 117 110 107 104
101 96 93 87 80 72 63 56 48 51 53 40 8 0 15 18
22 22 30 29 31 33 32 32 32 32 31 30 29 28 28 28
29 31 31 31 29 17 14 11 10 8 8 18 32 32 31 31
31 31 29 18 28 17 25 21 18 24 26 24 25 9 0 0
40 33 2 0 0 0 0 11 37 30 14 19 19 29 31 30
31 30 29 29 30 10 2 0 0 0 3 21 42 22 0 0
0 0 1 25 35 29 66 93 96 85 70 98 99 111 114 116
122 123 125 121 118 124 128 128 129 122 121 118 115 110 106 102
103 99 92 87 77 70 60 54 49 53 55 41 9 0 13 18
21 24 27 31 29 33 30 23 21 18 16 14 10 8 8 9
19 31 32 32 29 10 4 3 3 4 4 16 32 32 32 31
30 30 29 12 9 2 10 3 1 4 5 2 1 0 0 0
36 28 2 0 0 0 0 12 40 31 12 18 19 30 33 33
34 34 35 35 33 12 3 0 0 0 3 20 40 15 0 0
0 0 0 22 35 27 60 98 100 79 80 106 99 109 118 118
118 122 120 121 121 121 124 127 128 126 121 116 114 109 107 105
103 97 92 83 77 66 58 52 50 55 55 42 9 1 11 20
21 27 29 29 30 32 24 6 3 6 6 6 2 1 1 0
11 30 31 31 29 10 4 4 5 4 4 16 32 33 32 32
31 17 10 1 0 0 2 0 0 0 0 0 0 0 0 0
27 21 13 8 6 6 5 17 36 28 15 19 21 31 33 34
33 34 35 36 35 10 1 0 0 1 4 11 38 10 0 0
0 0 0 22 34 25 48 91 89 66 83 95 97 108 115 118
121 123 118 117 118 119 121 125 126 124 118 114 112 111 106 105
103 100 94 84 75 63 57 51 53 58 57 44 10 2 11 23
23 27 29 31 30 32 23 3 1 5 5 7 2 1 1 1
9 29 31 31 28 8 4 4 5 4 4 14 30 32 32 32
31 5 0 0 0 0 0 0 0 0 0 0 0 0 0 0
30 29 27 26 25 24 25 25 26 25 24 24 25 27 27 28
27 28 29 30 34 13 0 0 0 1 4 7 37 8 0 0
0 0 0 22 34 23 28 84 80 60 74 80 94 100 99 95
93 103 106 103 112 120 121 124 124 121 116 115 113 110 106 105
97 98 91 82 71 60 53 52 56 62 60 48 15 2 12 22
24 27 31 30 31 32 24 3 1 6 5 7 2 1 1 0
7 29 31 31 29 9 4 5 5 4 4 10 31 33 32 32
31 11 1 10 11 13 15 17 18 15 0 0 1 8 0 0
28 27 26 25 25 25 25 24 24 24 23 24 24 23 24 24
24 24 25 24 29 22 3 0 0 2 3 5 35 8 0 0
0 0 0 19 35 24 16 73 72 54 61 65 69 76 78 77
74 67 67 68 91 117 123 128 125 121 116 114 112 110 107 104
97 95 91 81 67 59 56 56 63 68 62 51 22 0 13 21
25 29 32 31 31 32 25 4 1 5 7 8 2 1 2 0
9 30 31 31 31 13 6 7 8 8 9 11 27 30 31 30
30 15 13 30 29 28 28 28 27 9 0 0 0 2 16 17
27 26 25 24 23 24 23 23 22 22 22 22 22 22 23 23
22 23 23 23 26 17 0 0 0 1 3 6 35 7 0 0
0 0 0 14 36 25 5 55 76 56 48 75 84 84 97 100
97 97 103 111 99 109 122 126 124 121 115 112 111 107 105 103
100 95 87 75 63 55 56 62 69 70 64 52 30 0 6 22
29 30 30 32 32 33 26 5 2 4 6 6 2 1 1 0
8 29 31 31 30 17 12 12 11 11 10 13 26 31 32 32
31 15 22 30 29 28 27 27 26 7 0 0 0 0 18 19
14 13 12 12 11 10 10 10 10 10 10 10 10 11 12 12
13 15 18 22 24 10 0 0 0 0 0 4 35 9 0 0
0 0 0 11 37 24 1 35 82 68 64 93 97 92 93 92
96 112 121 122 118 114 119 124 123 121 115 112 109 109 103 100
96 91 83 68 60 55 59 71 74 75 66 55 38 0 12 27
30 32 30 31 30 31 25 5 1 2 3 2 1 1 2 0
6 28 31 32 31 15 6 6 6 6 5 8 26 31 31 31
27 9 29 30 30 28 27 26 24 6 0 0 0 0 13 18
0 0 0 0 0 0 0 0 0 0 0 0 0 0 0 0
0 3 16 21 22 8 0 0 0 0 1 2 34 14 0 0
0 0 0 11 37 27 10 24 78 71 52 65 72 70 65 81
107 121 124 124 123 119 116 118 120 119 114 111 107 104 99 98
92 85 76 63 56 58 68 77 80 79 68 60 46 9 19 30
30 31 32 32 32 32 26 5 2 2 0 0 1 1 2 0
6 28 31 32 30 15 5 6 5 5 5 8 16 10 12 13
9 23 30 30 29 27 26 26 23 3 0 0 0 0 10 18
0 0 0 0 0 0 0 0 0 0 0 0 0 0 0 0
0 3 20 21 21 14 6 5 5 8 15 11 33 31 22 20
23 23 23 29 41 30 34 37 67 70 66 72 73 76 91 99
112 120 124 123 121 120 117 116 117 114 111 108 104 100 99 92
88 78 69 63 59 62 76 83 84 82 72 64 51 15 22 30
31 32 33 34 33 31 25 6 2 1 0 1 3 1 3 1
6 27 31 32 30 17 4 5 6 5 5 4 10 28 27 24
28 30 29 29 28 26 25 22 21 2 0 0 0 0 8 17
0 0 0 0 0 0 0 0 0 0 0 0 0 0 0 0
0 3 20 21 21 28 33 29 29 32 33 32 33 42 48 44
44 45 47 48 47 32 35 40 54 65 76 93 100 103 108 112
118 122 123 121 120 118 116 114 113 109 103 102 100 101 92 87
80 72 67 61 61 70 82 87 89 82 77 66 55 19 21 28
30 31 32 34 33 31 25 8 2 2 2 4 4 1 2 0
5 26 31 32 30 16 4 5 5 5 5 3 18 32 32 30
30 29 29 28 26 7 3 1 1 0 0 0 0 0 6 16
0 0 0 0 0 0 0 0 0 0 0 0 0 0 0 0
0 1 21 21 21 30 36 31 35 37 33 27 27 35 46 45
45 44 46 46 46 34 30 35 42 57 75 97 102 109 114 120
123 122 123 121 118 116 115 113 112 108 100 98 98 97 88 82
78 71 66 63 70 76 86 92 91 85 77 71 60 26 22 29
30 32 33 34 32 30 25 8 2 1 0 0 1 1 3 1
5 26 30 32 30 17 4 5 4 5 5 2 17 32 32 30
30 30 29 28 22 0 0 0 0 0 0 0 0 0 6 16
0 0 0 0 0 0 0 0 0 0 0 0 0 0 0 0
0 1 20 22 21 25 28 26 30 34 34 28 27 28 28 29
29 28 29 29 30 29 27 30 33 46 67 94 101 113 119 123
124 125 124 122 117 114 113 112 109 106 100 96 94 90 84 77
77 72 67 66 71 80 88 95 91 90 80 74 65 38 23 28
31 32 33 35 32 30 25 8 2 1 0 0 2 1 3 1
3 25 30 32 31 17 4 4 5 5 5 2 15 32 32 30
30 30 29 28 23 0 0 0 0 0 0 0 0 0 5 16
0 0 0 0 0 0 0 0 0 0 0 0 0 0 0 0
0 0 19 22 19 19 18 22 23 28 31 28 27 28 22 22
23 25 25 25 28 30 32 34 36 39 60 88 104 112 115 125
130 130 123 119 117 113 110 108 104 102 99 95 91 85 82 79
76 70 67 69 72 84 93 95 95 88 83 77 70 44 15 46
32 32 32 34 32 29 26 10 3 2 2 1 2 1 3 1
3 24 29 31 30 18 4 4 5 5 3 2 11 31 31 30
31 30 29 27 25 7 0 0 0 0 0 0 0 0 4 15
0 0 0 0 0 0 0 0 0 0 0 0 0 0 0 0
0 0 17 22 19 16 5 4 7 9 12 12 18 29 27 30
30 35 38 34 33 36 36 40 43 44 51 81 110 104 101 124
133 125 117 117 113 106 103 97 94 94 95 90 87 83 82 79
74 70 67 73 76 89 95 97 95 90 87 82 72 52 7 61
53 32 33 34 32 29 28 11 2 2 2 2 2 1 2 1
2 23 28 30 29 19 4 4 5 5 3 2 6 29 30 30
30 29 29 27 25 16 1 0 0 0 0 0 0 0 1 9
0 0 0 0 0 0 0 0 0 0 0 0 0 0 0 0
0 0 16 22 18 17 1 0 0 0 0 2 17 30 34 41
37 46 51 28 16 17 19 21 28 43 46 78 111 110 88 115
124 119 115 113 103 98 93 95 93 93 89 88 89 84 81 75
73 69 70 74 80 93 97 101 95 93 89 84 75 57 16 36
67 31 34 34 32 30 27 11 2 1 2 1 1 0 2 1
2 22 28 29 28 22 14 16 13 8 14 14 4 25 30 30
30 29 29 26 19 31 5 0 0 0 0 0 0 0 0 5
0 0 0 0 0 0 0 0 0 0 0 0 0 0 0 0
0 0 13 22 18 18 3 0 0 0 0 0 18 29 31 39
26 27 39 17 0 0 0 0 9 39 41 69 105 113 88 102
114 112 110 105 99 93 94 93 91 89 85 88 87 83 80 71
70 68 72 79 91 94 103 99 99 93 91 85 75 60 26 34
67 30 33 33 32 31 28 13 2 2 1 2 1 0 1 0
1 21 27 28 27 27 26 28 26 24 26 25 13 16 30 29
26 22 22 14 0 2 1 0 0 0 0 0 0 0 0 4
0 0 0 0 0 0 0 0 0 0 0 0 0 0 0 0
0 0 11 22 18 19 5 0 0 0 0 0 16 28 30 37
11 2 22 17 0 0 0 0 4 35 39 52 91 105 93 85
100 99 97 93 86 85 88 90 88 92 85 86 83 77 74 70
69 71 79 87 93 100 100 105 100 98 92 86 78 64 29 69
51 31 33 32 31 31 28 13 1 1 1 1 1 0 1 0
1 19 26 27 29 28 28 29 29 28 28 27 23 5 11 7
2 3 0 0 0 0 1 0 0 0 0 0 0 0 0 3
0 0 0 0 0 0 0 0 0 0 0 0 0 0 0 0
0 0 9 21 17 14 0 0 0 0 0 0 18 27 29 37
11 0 20 19 0 0 0 0 2 31 39 35 66 85 95 77
81 82 78 75 79 80 81 83 84 83 81 80 74 71 71 69
71 79 83 92 99 101 104 106 103 97 91 89 79 61 31 70
37 28 34 31 31 30 28 13 1 1 1 1 1 0 1 0
1 20 29 29 29 28 28 27 27 27 17 8 5 1 0 0
0 0 0 0 0 0 0 0 0 0 0 0 0 0 0 2
0 0 0 0 0 0 0 0 0 0 0 0 0 0 0 0
0 0 6 21 17 11 0 0 0 0 0 0 18 26 29 37
11 0 18 22 0 0 0 0 0 26 39 32 34 45 64 68
61 57 58 64 71 81 80 83 79 77 73 72 69 70 67 71
77 83 89 99 100 106 107 108 104 96 93 88 81 51 47 60
12 26 36 32 32 31 29 15 3 3 2 1 1 1 1 1
7 23 30 30 29 28 28 27 26 26 5 0 0 0 31 20
0 0 0 0 0 0 8 4 0 0 0 0 0 0 0 0
0 0 0 0 0 0 0 0 0 0 0 0 0 0 0 0
0 0 6 21 17 12 0 0 0 0 0 0 17 25 29 36
11 0 16 23 0 0 0 0 0 24 39 31 31 31 28 36
42 50 59 67 72 74 76 74 72 70 68 67 67 68 73 76
83 83 100 99 106 110 110 109 102 96 93 87 78 45 82 60
8 30 31 31 31 30 29 23 18 16 13 12 12 6 2 10
18 27 31 31 29 28 27 26 26 25 3 0 0 19 79 89
12 0 0 0 0 0 3 3 0 0 0 0 0 0 0 0
0 0 0 0 0 0 0 0 0 0 0 0 0 0 0 0
0 0 5 20 17 12 0 0 0 0 0 0 13 26 29 36
13 1 14 24 2 0 0 0 0 21 37 30 30 30 33 38
33 49 59 65 65 67 67 63 60 60 58 61 66 71 80 86
91 98 102 107 109 113 114 108 103 97 94 87 64 67 95 31
9 31 21 27 31 29 28 28 27 24 20 18 17 8 0 13
22 27 31 31 30 28 27 26 19 9 0 0 0 5 18 20
2 0 0 0 0 0 0 0 0 0 0 0 0 0 0 0
0 0 0 0 0 0 0 0 0 0 0 0 0 0 0 0
0 0 4 20 17 13 0 0 0 0 3 0 11 28 29 37
21 5 12 26 5 2 3 1 0 20 38 30 30 30 32 42
15 15 38 40 47 48 46 44 45 46 48 56 69 80 88 95
101 100 111 111 116 116 112 108 105 98 94 81 54 83 79 27
13 28 26 26 27 30 27 27 26 24 21 20 19 11 0 15
24 27 30 31 29 27 26 26 13 0 0 0 0 0 0 0
0 0 0 0 1 1 0 1 0 0 0 0 0 0 0 0
0 0 0 0 0 0 0 0 0 0 0 0 0 0 0 0
0 0 4 19 17 13 2 0 0 0 8 6 10 31 30 38
23 13 11 24 2 8 8 1 0 17 36 30 30 28 29 48
19 13 25 72 71 23 9 15 23 33 49 64 77 91 99 104
106 107 110 118 117 116 114 110 104 101 94 63 75 79 53 14
29 25 34 42 42 46 34 36 35 28 23 23 22 15 0 15
24 27 29 29 28 27 27 26 15 0 0 0 0 0 0 0
0 0 0 0 0 0 0 0 0 0 0 0 0 0 13 24
0 0 0 0 0 0 0 0 0 0 0 0 0 0 0 0
0 0 2 19 17 14 9 11 10 12 19 21 23 36 31 38
19 21 13 25 8 11 11 6 7 18 31 28 29 27 28 41
29 25 14 55 105 76 44 67 81 78 76 85 95 101 107 111
111 116 118 119 118 117 113 108 106 100 84 50 59 96 41 13
30 26 27 43 58 50 49 33 33 23 35 38 27 17 0 16
25 26 28 27 27 26 26 26 18 2 0 0 0 0 0 0
0 0 0 0 0 0 0 0 0 0 0 0 0 0 27 31
0 0 0 0 0 0 0 0 0 0 0 0 0 0 0 0
0 0 2 18 16 15 25 33 35 37 38 40 42 44 35 37
11 17 16 29 23 22 22 21 21 22 24 20 14 42 43 35
40 33 22 26 53 106 72 76 104 117 110 104 104 107 109 114
122 122 120 120 121 118 113 109 105 94 67 45 9 48 33 21
21 18 11 32 51 48 38 43 34 17 25 33 28 17 8 17
24 24 26 26 27 26 26 25 24 8 0 0 0 0 0 0
0 0 0 0 0 0 0 0 0 0 0 0 0 5 29 29
0 0 0 0 0 0 0 0 0 0 0 0 0 0 0 0
0 0 2 19 17 15 30 38 39 40 41 41 43 46 40 36
9 5 12 29 24 24 25 25 25 25 27 29 34 48 43 35
31 43 29 16 26 55 32 68 72 105 122 122 119 118 120 121
121 122 121 121 121 118 112 109 102 69 66 33 3 18 24 26
20 15 6 20 49 57 48 37 48 60 38 32 17 18 30 35
26 26 26 26 26 26 26 25 22 1 0 0 0 0 0 0
0 0 0 0 0 0 0 0 0 0 0 0 0 8 18 17
0 0 0 0 0 0 0 0 0 0 0 0 0 0 0 0
0 0 1 18 17 14 21 25 25 24 24 24 24 23 27 34
9 1 7 30 27 29 29 33 46 46 62 55 49 62 51 33
23 37 47 24 21 13 20 50 74 79 111 124 121 121 123 123
123 124 123 122 122 117 113 107 83 57 63 14 0 12 27 18
17 28 0 4 32 54 28 29 31 66 71 49 37 70 85 80
50 45 32 32 27 26 26 25 21 0 0 0 0 0 0 0
0 0 0 0 0 0 0 0 0 0 0 0 0 1 1 0
0 0 0 0 0 0 0 0 0 0 0 0 0 0 0 0
0 0 1 18 17 13 6 2 4 6 7 8 10 10 18 33
11 0 6 29 28 36 58 43 33 50 43 50 46 64 62 36
29 21 56 37 24 12 1 27 71 73 86 117 128 126 126 125
126 126 125 124 122 118 114 94 62 62 32 2 0 10 31 14
40 52 9 20 35 38 20 15 22 66 67 41 35 71 100 102
96 98 70 41 41 32 28 26 14 0 0 0 0 0 0 0
0 0 0 0 0 0 0 0 0 0 0 0 0 0 0 0
0 0 0 0 0 0 0 0 0 0 0 0 0 0 0 0
0 0 1 17 16 12 6 4 5 6 8 9 10 11 19 34
15 4 10 31 30 39 39 29 28 47 42 41 46 44 33 25
17 17 34 41 44 13 0 22 61 71 75 90 121 131 130 126
125 123 126 125 122 119 111 81 58 39 11 11 0 24 35 41
48 53 19 29 48 62 43 36 24 29 56 41 30 40 74 70
67 69 65 75 89 69 43 35 20 4 0 0 0 0 0 0
0 0 0 0 0 0 0 0 0 0 0 0 0 0 0 0
0 0 0 0 0 0 0 0 0 0 0 0 0 0 0 0
0 0 1 18 17 13 9 9 9 10 10 11 12 12 21 37
28 33 38 27 18 22 35 35 57 43 46 39 33 41 26 18
22 22 26 31 58 29 13 47 32 74 67 77 100 130 133 128
127 129 130 129 126 114 95 76 26 19 23 11 10 48 27 37
40 45 10 11 32 54 54 46 37 30 39 23 9 12 68 86
91 99 99 80 71 70 35 22 34 38 33 12 0 0 0 0
0 0 0 0 0 0 0 0 0 0 0 0 0 0 0 0
0 0 0 0 0 0 0 0 0 0 0 0 0 0 0 0
0 0 4 20 16 12 11 12 12 13 14 14 15 13 21 34
29 41 44 42 32 34 35 45 42 14 18 20 48 70 46 36
59 42 28 22 39 42 9 47 66 55 84 81 84 113 133 131
131 134 134 133 133 128 129 73 16 22 27 11 56 43 37 57
64 75 46 34 42 42 32 18 16 35 65 53 26 25 79 106
105 114 104 90 71 85 63 21 20 43 35 23 18 14 0 0
0 0 0 0 0 0 0 0 0 0 0 0 1 0 0 0
0 0 0 0 1 2 3 3 4 4 5 6 7 8 9 9
10 11 12 15 14 12 11 10 12 13 14 15 15 13 17 26
39 34 56 102 103 98 38 26 45 17 20 31 67 73 36 22
73 83 26 26 23 46 26 4 21 33 74 110 112 122 135 136
136 136 136 136 136 135 92 35 19 22 15 44 38 40 58 57
71 93 48 37 53 64 56 37 39 26 55 52 35 31 58 86
88 88 86 85 81 84 90 36 36 52 57 37 24 28 18 0
0 0 0 0 0 0 0 0 0 0 0 7 7 0 0 0
12 13 13 12 13 13 12 13 13 12 12 13 13 12 12 12
12 12 11 12 12 12 11 11 13 13 14 15 19 31 38 48
49 75 84 94 101 109 45 43 58 36 42 42 53 45 17 24
82 94 73 44 18 26 39 7 9 29 33 91 126 132 136 136
137 136 136 136 135 125 34 14 16 10 23 50 27 37 45 68
72 78 24 14 39 61 61 40 37 32 52 53 36 18 38 103
98 100 109 112 100 79 81 31 16 31 42 40 24 22 19 14
0 0 0 0 0 0 0 0 0 0 0 15 6 0 0 0
15 16 16 14 13 13 12 13 12 12 12 13 13 13 12 13
12 12 12 12 12 12 11 12 13 14 14 21 49 56 71 77
89 82 73 74 80 74 22 42 43 39 40 33 61 68 36 31
107 109 103 76 29 18 47 9 10 25 27 54 104 129 136 136
136 136 136 136 135 91 20 10 16 6 50 46 36 52 70 83
73 76 26 8 21 34 33 19 18 20 53 70 55 31 41 104
105 107 116 114 96 83 83 58 31 33 64 72 40 31 36 28
24 7 0 0 0 0 0 0 0 0 0 20 3 0 0 0
14 15 15 14 13 12 12 12 12 12 13 12 12 12 12 10
11 9 9 9 9 9 11 12 14 15 25 46 37 41 68 80
89 101 96 75 68 79 27 57 38 17 26 42 73 80 42 31
86 88 95 76 41 43 48 28 6 15 25 17 40 85 129 137
137 137 136 135 130 70 18 16 13 30 48 51 80 102 106 109
104 106 48 17 23 36 32 15 16 14 24 47 38 19 17 54
66 72 86 83 73 70 59 55 25 27 52 59 37 27 27 24
33 25 2 0 0 0 0 0 0 0 0 13 0 0 0 0
14 14 14 12 11 10 9 9 7 6 5 4 3 2 2 2
5 5 7 8 9 10 11 13 23 48 48 42 21 64 98 98
103 105 98 97 111 102 35 75 43 39 41 44 62 54 25 14
74 76 84 86 72 69 58 42 7 24 35 15 20 26 63 118
137 136 136 129 75 45 33 38 18 68 52 95 119 120 122 120
120 122 63 42 57 77 66 36 43 41 24 46 42 12 9 42
74 79 78 77 67 83 88 54 8 8 34 36 23 10 12 12
23 17 16 1 0 0 0 0 0 0 0 1 0 0 0 0
2 2 2 1 1 0 0 0 0 0 0 0 0 0 0 0
5 6 7 9 9 10 13 42 61 44 43 36 24 64 88 90
92 87 72 95 109 88 28 53 31 43 35 25 42 44 22 13
72 93 100 104 109 98 80 56 40 61 72 49 35 38 45 61
116 137 136 88 36 31 37 42 34 83 51 102 98 95 107 103
101 107 47 27 40 73 81 55 52 45 44 71 65 37 28 60
112 113 107 99 104 122 118 103 35 14 32 39 32 20 26 25
23 23 23 21 0 0 0 0 0 0 0 0 0 0 0 0
0 0 0 2 8 11 12 12 14 16 16 16 16 5 0 0
3 6 7 8 9 20 47 35 28 37 52 52 29 86 114 110
110 114 95 87 100 81 36 45 17 19 21 21 43 45 27 27
94 126 126 131 131 122 62 64 46 46 73 83 56 48 25 50
94 105 119 60 37 37 41 48 58 98 113 128 128 130 133 131
130 128 74 41 46 76 71 42 42 42 37 60 71 49 41 57
110 119 124 119 121 125 103 98 67 42 59 77 66 51 51 40
6 12 41 56 10 0 0 0 0 0 0 0 0 0 0 0
0 1 2 11 30 30 29 28 27 25 23 25 27 17 0 1
3 5 6 9 22 36 30 25 35 50 74 66 26 71 86 85
104 111 102 112 117 95 41 69 22 18 22 30 70 85 63 42
85 115 112 112 108 105 92 85 56 46 78 60 47 39 57 50
80 57 79 57 35 53 89 65 53 109 133 130 133 135 134 134
133 130 83 54 57 86 92 61 61 62 52 64 73 51 33 51
105 104 112 105 99 112 120 129 103 30 40 69 61 34 30 25
6 3 46 77 41 1 0 0 0 0 0 0 0 0 0 0
1 3 5 10 31 28 29 29 27 26 26 32 36 31 10 7
6 5 9 29 40 49 33 26 26 26 48 52 29 73 78 66
78 85 85 97 104 76 53 79 44 41 50 62 82 82 57 29
66 127 131 131 134 135 135 119 107 63 83 97 67 67 71 61
54 72 76 45 34 70 87 55 52 108 136 135 136 135 134 133
134 132 86 47 53 86 95 62 63 60 54 74 90 72 52 62
120 123 131 131 130 132 133 131 119 54 51 74 75 54 52 52
26 21 57 65 63 34 0 0 0 0 0 0 0 0 0 0
12 17 17 16 29 36 37 35 35 34 33 32 31 27 15 12
12 15 40 37 59 57 34 39 36 37 63 64 43 101 95 85
88 87 88 82 88 66 56 60 45 56 51 45 69 81 65 49
82 137 137 137 137 136 136 136 135 81 71 102 88 65 69 67
49 73 53 31 46 93 88 56 55 115 136 135 136 135 135 135
135 133 93 50 52 93 100 69 59 56 60 69 90 75 44 61
115 125 130 132 133 131 133 131 124 57 43 81 85 62 55 53
31 32 85 75 74 91 38 0 0 0 0 0 0 0 0 0
16 18 17 16 22 28 26 23 22 21 20 20 19 17 9 7
9 37 38 23 47 57 38 30 33 35 60 49 44 103 116 122
118 113 114 123 122 101 70 81 51 48 52 64 94 95 76 51
75 137 138 137 138 138 136 137 137 101 52 97 96 70 63 57
63 53 27 37 73 98 88 55 53 116 137 135 135 135 133 134
133 133 96 55 52 86 98 73 55 58 59 72 92 80 52 57
109 124 128 132 132 130 132 133 129 65 50 70 92 72 59 54
39 24 106 107 59 69 76 23 0 0 0 0 0 0 0 0
19 18 18 17 16 15 15 14 14 15 15 16 16 15 5 3
24 52 65 32 55 54 19 13 16 17 37 37 48 109 112 118
122 115 99 110 117 85 76 83 66 70 66 69 91 91 73 52
69 134 138 137 137 137 137 137 134 115 44 79 102 80 66 51
68 42 32 57 83 95 85 54 50 118 135 135 136 135 134 134
134 132 93 51 53 87 99 76 58 61 60 75 91 78 48 56
101 125 129 131 132 130 132 134 132 70 51 65 84 79 58 51
44 62 102 97 75 69 64 41 1 0 0 0 0 0 0 0
14 12 8 7 5 3 2 1 9 16 16 16 16 15 6 19
57 96 88 17 37 45 21 14 15 19 40 44 57 124 135 135
132 121 118 131 122 82 76 81 64 68 62 63 89 94 75 53
66 134 139 137 137 137 136 136 136 122 51 54 97 90 63 55
53 36 57 67 88 96 86 57 58 122 135 135 135 135 135 133
134 133 93 51 54 84 97 80 63 61 62 70 90 79 55 52
93 123 130 130 131 129 131 133 131 75 48 59 83 77 57 56
48 82 123 109 88 97 69 90 38 0 0 0 0 0 0 0
0 0 0 0 0 0 0 0 6 15 16 16 16 15 23 52
91 96 73 21 59 72 59 47 46 45 56 45 46 116 133 132
129 118 119 136 137 69 80 77 65 66 66 58 88 98 82 50
62 132 137 137 134 136 135 136 136 126 59 50 88 98 65 69
51 42 53 68 98 99 84 55 62 125 135 135 134 134 134 135
134 133 97 45 47 81 90 78 64 59 64 64 88 85 61 45
80 128 131 133 131 131 132 133 132 80 46 61 85 77 55 52
50 93 127 113 86 97 94 114 93 0 0 0 0 0 0 0
0 0 0 1 1 2 4 6 12 14 15 15 16 22 39 63
96 93 90 36 68 72 62 47 50 47 48 45 45 115 131 133
125 112 126 138 137 70 83 74 64 64 63 60 87 98 86 54
66 131 137 137 137 136 137 136 136 129 60 51 75 99 70 75
48 71 56 70 102 101 84 54 60 126 135 134 135 135 134 134
135 134 103 46 50 80 91 75 63 57 63 63 90 91 63 49
71 127 131 132 131 132 131 132 133 81 41 47 80 83 56 62
55 86 128 110 113 109 91 109 115 7 0 0 0 0 0 0
12 12 12 13 14 15 15 16 17 18 20 21 25 38 57 96
92 108 93 30 60 60 50 36 36 39 61 50 52 112 137 137
124 109 130 138 136 71 83 78 66 67 62 61 89 98 89 56
64 126 137 136 136 136 136 135 135 130 63 52 70 94 70 77
43 67 49 66 99 97 80 56 57 126 135 135 135 134 134 134
133 133 108 51 54 80 93 74 62 62 60 65 92 87 66 53
67 129 133 133 132 132 130 133 132 90 40 45 78 83 59 57
53 77 124 108 116 114 112 103 116 17 0 0 0 0 0 0
20 20 21 21 22 22 22 22 24 21 20 20 36 52 86 91
103 101 68 45 66 82 77 67 67 60 76 52 52 105 139 137
123 108 133 138 134 69 81 77 69 63 62 62 90 99 92 54
65 123 138 135 135 132 135 135 135 133 66 55 68 83 64 78
45 63 50 67 95 91 75 53 58 126 135 135 135 134 134 134
134 134 112 50 54 78 91 78 63 65 62 67 87 85 63 48
66 127 132 133 132 132 131 133 132 100 36 52 83 84 62 58
55 71 120 111 114 112 115 102 110 28 0 0 0 0 0 0
24 23 24 19 19 19 18 18 22 22 21 24 73 104 83 101
96 77 52 48 53 78 82 62 63 60 85 54 50 100 139 138
124 109 135 138 136 74 81 79 70 67 68 69 88 100 86 58
63 121 138 136 136 136 136 135 136 134 75 56 68 79 69 90
50 56 65 66 91 90 77 51 56 127 136 134 135 133 134 134
134 134 113 55 55 80 93 80 61 67 60 59 82 87 69 49
62 125 131 132 132 127 128 133 132 109 37 47 81 84 64 52
52 62 118 116 115 117 116 104 102 40 0 0 0 0 0 0
21 21 24 22 23 24 24 25 25 26 26 39 105 119 91 94
79 84 82 51 55 81 84 62 59 67 86 55 46 99 140 138
124 113 137 138 133 71 75 79 68 68 66 65 84 97 79 55
58 118 138 136 135 135 136 136 136 134 75 52 70 79 72 81
42 54 61 67 97 97 79 51 53 123 131 129 128 122 121 120
122 123 105 35 37 64 81 72 51 54 56 55 74 86 76 53
59 123 132 132 131 128 125 132 133 112 45 46 83 87 69 46
49 60 115 117 114 120 120 100 94 51 1 0 0 0 0 0
29 28 28 27 27 27 27 27 27 28 28 70 120 120 46 72
79 115 97 49 48 78 84 60 54 63 89 56 47 97 140 139
122 116 137 138 130 61 73 75 60 64 61 66 86 100 83 57
58 114 137 137 137 137 136 136 135 135 74 50 66 78 57 58
26 43 50 47 76 76 51 23 27 95 114 108 108 103 111 114
122 116 97 32 39 60 79 66 37 35 34 33 50 53 46 25
29 101 117 116 117 119 123 133 130 114 47 47 82 89 73 49
50 58 114 120 114 90 120 96 97 59 9 0 0 0 0 0
32 32 29 30 29 29 27 28 28 27 37 104 122 107 49 90
103 114 69 43 40 75 86 62 49 73 89 43 48 98 139 138
120 123 137 137 127 57 73 77 66 60 60 64 84 95 81 60
60 114 137 132 109 104 101 106 115 116 39 18 34 55 78 79
46 35 46 48 74 82 78 43 51 116 135 128 132 132 130 128
130 125 111 43 49 62 92 79 45 51 54 54 72 77 69 46
45 102 109 118 112 107 97 103 108 95 20 20 50 56 45 32
43 53 109 118 115 49 61 82 100 65 17 0 0 0 0 0
31 31 29 30 29 29 28 28 28 26 52 106 124 111 74 88
80 97 88 44 32 76 89 67 51 80 83 38 47 104 140 137
120 126 137 138 124 28 48 67 70 62 58 61 71 75 55 29
29 85 113 113 123 130 126 123 125 131 67 43 59 78 84 78
50 46 59 54 84 91 78 48 41 103 129 120 123 119 119 116
122 115 107 39 35 47 79 70 40 42 48 44 65 70 64 42
49 101 121 124 120 121 119 127 124 111 39 43 71 80 62 35
28 28 101 115 95 40 38 47 106 69 20 8 0 0 0 0
