P2
128 120
149
38 37 37 37 36 36 36 36 35 34 34 34 34 34 33 33
33 32 31 30 30 29 29 29 28 27 27 26 26 26 25 25
24 24 24 23 23 22 21 21 21 20 20 19 19 19 19 18
18 17 18 18 18 20 22 23 23 21 16 10 18 23 20 20
19 18 18 17 16 15 15 13 10 11 12 14 17 18 17 18
17 18 18 19 19 19 19 20 20 20 20 20 21 21 21 22
22 21 22 23 23 23 24 25 24 24 25 25 25 25 26 25
26 26 28 27 27 27 28 27 27 26 26 26 27 28 28 27
37 37 37 36 36 36 35 36 35 35 35 34 34 33 33 32
32 31 31 30 29 29 29 29 28 27 27 26 26 25 26 24
24 24 23 24 22 22 22 21 21 20 20 20 19 19 19 18
18 18 18 18 19 21 23 23 23 22 16 12 16 23 20 19
19 19 18 18 18 16 15 15 11 11 13 16 17 17 17 18
17 19 19 19 19 20 20 20 20 20 21 21 21 21 21 21
21 21 22 23 23 23 24 25 24 24 25 25 26 26 25 26
26 27 27 26 25 25 26 26 27 27 28 28 28 27 27 27
37 36 36 36 35 36 35 35 35 34 35 34 33 33 33 32
31 31 31 30 30 29 29 28 27 28 27 26 26 26 25 25
25 24 24 22 23 22 21 21 21 20 20 20 20 19 19 18
19 18 19 19 20 22 24 23 23 23 17 12 15 23 20 20
20 19 19 17 17 16 15 15 13 13 13 16 18 18 19 18
19 19 19 20 19 20 20 20 21 20 21 21 21 21 21 22
22 22 22 23 23 23 24 25 24 24 24 25 26 26 26 24
23 25 26 26 27 28 28 27 27 27 27 27 27 27 27 27
36 36 37 35 35 36 36 35 35 35 34 33 33 33 33 32
32 31 30 30 30 29 29 29 28 28 28 27 27 26 26 25
25 24 23 23 23 22 22 21 21 21 20 20 20 19 20 19
19 19 19 19 20 21 23 24 23 23 17 14 14 24 21 19
20 19 19 18 18 17 16 16 14 15 15 17 18 19 19 19
20 19 20 20 20 20 21 20 21 21 21 22 21 22 22 22
22 22 23 23 24 24 24 25 25 25 25 25 24 24 24 26
26 27 26 27 26 27 27 27 27 27 27 28 27 28 28 28
37 36 36 36 36 36 35 35 34 34 34 34 33 33 33 32
32 31 31 31 30 30 29 29 28 28 28 27 26 26 26 25
25 24 24 24 23 23 22 22 21 21 20 20 20 20 19 19
19 19 19 19 20 22 24 24 24 24 19 14 11 22 21 20
20 20 19 19 19 17 17 17 15 14 16 18 19 19 20 19
20 20 20 20 21 21 21 21 21 21 21 21 22 22 22 22
22 23 23 24 24 24 24 24 24 23 24 24 25 26 26 26
27 26 27 27 27 28 27 27 27 27 28 28 28 27 28 27
36 36 36 36 35 35 35 35 35 35 34 34 34 33 33 32
32 31 31 30 30 29 29 29 29 28 28 27 26 26 26 25
25 24 24 24 23 23 23 22 22 22 21 21 21 20 20 19
19 19 19 19 20 22 25 25 25 24 18 12 7 21 22 21
21 20 20 19 20 18 17 17 15 15 17 19 20 20 20 21
21 21 21 20 21 21 21 21 22 22 22 22 22 23 22 23
23 23 24 23 22 22 23 23 25 25 26 26 26 27 27 26
28 27 27 27 27 28 27 27 28 28 28 28 28 28 28 28
36 37 36 36 36 35 35 35 34 34 34 33 33 32 33 33
32 32 31 31 30 30 29 29 29 28 28 27 27 26 26 25
25 25 24 24 24 23 23 23 22 21 21 21 21 20 20 20
20 20 20 20 22 23 26 26 26 24 18 14 13 23 23 22
21 21 20 20 20 19 18 17 16 15 18 19 20 21 20 21
21 21 21 22 22 22 21 22 23 22 22 22 23 23 23 22
22 22 23 24 24 25 26 26 25 25 26 26 26 27 27 26
28 27 27 28 28 28 28 28 28 27 28 27 28 28 28 27
43 40 37 36 35 35 35 35 35 34 34 34 33 32 33 32
32 31 31 31 30 30 30 29 28 29 28 27 27 27 27 26
26 24 25 24 24 23 23 23 23 22 21 22 21 21 20 21
20 19 20 21 21 23 25 26 25 25 19 16 16 23 24 23
22 21 21 20 21 19 19 18 18 16 19 20 21 21 21 21
21 22 21 22 22 22 22 22 23 22 22 22 22 23 23 23
24 24 24 24 25 25 25 25 26 26 26 26 26 27 27 26
28 27 28 28 27 28 28 27 27 28 28 28 28 28 28 28
50 49 47 37 35 35 35 34 35 34 33 34 33 33 33 32
32 32 32 31 31 31 30 29 29 28 28 27 28 26 26 26
25 25 25 25 25 24 24 24 24 23 22 22 21 21 21 20
20 20 20 20 22 23 26 26 26 25 19 17 18 22 24 22
22 22 22 21 21 19 19 19 18 16 20 21 22 22 22 22
22 22 22 22 22 22 23 23 22 22 22 22 23 23 23 24
25 24 25 25 25 25 26 26 27 26 26 27 27 27 27 27
29 27 28 28 28 27 28 28 28 28 28 28 28 28 28 28
21 47 47 36 35 35 35 35 35 34 34 34 34 33 33 32
32 32 32 31 31 30 30 30 29 28 28 28 27 27 27 26
26 26 26 25 24 24 24 24 23 23 22 22 22 22 21 21
21 20 20 21 22 24 26 26 27 26 20 18 20 21 24 23
23 22 22 21 22 20 20 19 19 17 21 22 22 22 22 23
23 23 23 23 23 22 22 22 22 23 23 24 24 24 24 25
25 25 25 26 25 25 26 26 27 26 26 27 27 28 28 28
28 28 29 28 28 28 28 28 28 28 28 27 28 29 28 29
3 44 48 37 35 34 35 35 34 34 34 33 34 33 33 32
32 32 32 31 30 30 30 30 29 29 28 27 28 28 27 26
26 26 25 25 25 25 24 24 23 23 23 22 22 21 21 21
21 21 21 22 23 24 28 27 27 26 20 18 22 20 24 24
23 23 22 21 22 21 20 20 19 17 21 21 23 22 23 22
22 22 22 23 23 23 23 24 23 24 24 24 24 24 25 25
25 25 25 25 26 25 26 26 26 27 27 27 27 27 28 27
29 28 27 28 28 28 29 29 29 28 29 28 28 28 28 27
3 44 47 36 35 35 34 34 34 34 34 34 33 33 33 32
32 31 31 31 31 30 30 30 29 29 29 28 28 28 28 27
27 26 26 25 25 24 24 24 24 23 23 23 22 22 21 21
21 21 21 22 22 24 27 28 27 27 21 18 22 18 25 25
24 24 23 22 22 21 21 20 19 17 21 21 22 23 22 23
23 23 23 24 24 24 24 24 23 23 24 25 24 25 25 25
26 25 25 26 26 26 26 26 26 26 27 27 27 27 28 28
29 29 28 28 29 29 29 29 28 28 28 28 28 28 28 29
2 44 46 35 35 35 34 35 34 34 34 33 32 33 33 33
32 32 32 31 31 30 30 30 30 29 28 28 28 28 27 26
27 26 26 26 26 25 25 24 24 24 23 23 22 22 22 21
21 22 21 22 23 24 28 28 28 27 21 18 24 18 26 25
24 24 23 22 23 22 21 21 20 17 20 21 23 23 24 23
24 24 24 23 24 24 24 24 24 24 24 24 25 25 25 26
26 25 26 26 26 27 27 27 27 27 28 27 27 28 28 28
29 29 28 28 28 29 27 27 27 27 28 28 28 28 28 28
2 42 46 36 35 35 34 35 34 34 34 33 34 33 33 33
32 32 32 30 30 30 30 30 29 29 29 28 29 28 28 27
27 26 27 26 26 25 25 24 24 23 23 23 24 23 23 23
22 22 22 22 24 25 28 29 28 27 22 19 25 19 25 25
24 24 24 23 24 23 21 21 21 17 22 22 24 24 24 24
25 24 24 24 24 24 25 24 25 25 25 25 25 25 25 26
26 26 26 26 26 26 26 26 27 27 27 28 28 28 28 28
28 28 28 27 28 28 28 29 29 28 27 28 28 28 28 28
3 44 45 36 35 34 34 33 34 34 33 33 33 33 33 33
32 32 32 31 31 31 30 30 29 29 29 28 29 28 28 27
27 26 26 26 26 25 25 25 24 24 24 23 23 23 23 22
22 22 22 23 24 25 29 28 28 28 22 19 26 19 25 25
25 24 24 23 24 23 22 22 21 17 23 23 24 24 24 24
25 25 24 24 25 24 24 25 25 25 25 25 26 25 25 26
26 26 26 26 27 27 27 27 28 28 27 27 27 27 27 27
28 27 28 29 29 29 28 28 29 30 28 28 28 28 29 28
3 43 45 35 35 35 34 34 34 34 34 33 33 33 33 33
33 32 32 31 31 30 31 31 30 29 29 28 28 28 28 27
27 27 27 27 26 25 25 25 25 25 25 23 24 24 23 23
23 23 22 23 24 25 28 28 29 28 22 19 26 19 25 25
26 25 24 24 24 23 22 22 21 18 23 22 24 24 24 24
25 25 25 25 24 25 25 25 25 25 26 26 26 26 26 26
27 26 27 27 27 27 28 27 28 27 27 27 28 28 29 29
29 28 28 28 28 29 28 29 29 29 28 28 28 28 28 28
3 43 44 35 34 34 34 34 34 34 34 34 34 33 33 32
32 31 32 31 31 31 30 30 30 29 29 28 29 28 28 28
27 27 26 26 26 25 25 25 25 24 25 24 24 23 23 23
23 23 23 23 25 26 29 28 29 28 22 20 26 21 24 24
25 25 24 24 23 23 22 22 21 18 23 22 24 25 25 25
25 25 25 25 25 25 25 25 25 26 26 26 26 26 27 26
27 27 26 26 26 26 27 27 28 28 29 28 29 29 29 29
29 28 29 29 28 29 29 28 28 29 28 28 28 28 28 28
3 42 44 35 34 34 34 34 34 33 34 34 33 32 33 32
32 31 32 31 31 30 30 30 30 29 29 28 28 28 28 28
28 26 27 26 26 26 26 26 25 24 24 24 24 23 23 23
23 23 23 23 24 25 29 29 29 29 23 19 27 22 23 26
26 25 25 23 22 23 22 23 22 17 23 23 25 25 25 25
26 26 25 26 26 26 26 26 26 25 26 27 26 26 26 26
26 26 26 27 27 27 27 27 29 29 29 28 29 29 29 28
29 29 29 29 29 29 29 28 28 29 28 28 28 28 28 28
15 43 43 35 34 34 34 34 34 33 33 33 32 32 32 32
32 32 32 31 31 31 31 30 30 30 29 29 29 28 28 28
28 27 26 26 26 26 25 26 25 25 25 24 24 24 24 23
23 23 23 23 25 26 29 30 30 28 23 20 27 24 22 26
26 25 25 24 22 24 22 22 22 18 23 22 25 25 25 25
25 26 25 25 26 25 26 26 26 26 26 26 26 26 27 27
26 26 27 27 27 27 28 27 28 28 29 28 29 29 29 29
28 28 29 28 29 29 29 29 29 29 28 28 28 28 27 28
26 43 42 35 35 35 34 34 34 34 34 33 33 33 33 32
32 32 32 32 31 31 31 30 30 30 29 29 29 29 28 29
27 27 27 27 27 26 26 26 26 25 25 25 25 24 24 23
24 23 24 24 25 26 29 29 30 29 23 20 28 27 21 27
26 26 25 25 23 24 23 23 22 19 24 23 26 25 26 26
26 27 26 27 26 26 26 26 26 26 26 27 27 26 27 27
27 27 28 28 28 28 29 28 29 29 29 29 29 29 29 29
29 29 29 28 28 29 29 29 28 29 28 28 29 29 28 28
36 38 37 34 35 35 35 35 35 34 35 34 34 34 33 33
33 32 32 32 32 31 32 31 30 30 30 30 30 29 29 29
29 28 28 28 28 27 27 26 26 25 26 25 25 25 25 25
24 25 25 25 26 27 30 31 30 30 24 20 28 29 22 28
27 27 26 26 24 26 25 24 24 20 25 24 27 27 26 27
27 25 26 26 26 26 26 26 27 28 27 27 28 28 28 28
29 29 28 29 29 30 30 29 30 29 30 29 30 30 30 30
30 30 30 29 29 30 29 29 29 29 30 29 29 29 29 29
32 34 36 36 36 35 35 35 35 35 34 34 34 34 34 33
33 33 32 33 33 32 32 32 32 31 31 30 30 29 29 29
29 29 28 28 28 28 28 27 27 27 26 26 26 25 25 25
24 25 25 25 26 28 31 31 20 11 8 8 14 26 22 28
28 28 27 26 25 26 25 25 24 20 25 24 27 27 27 26
27 26 27 27 27 27 28 28 28 28 28 28 28 28 28 29
29 29 29 29 29 30 30 30 31 31 31 30 31 30 30 29
30 30 30 30 30 30 30 31 31 30 30 30 30 30 29 29
18 21 26 30 33 35 36 36 36 35 35 35 35 35 34 34
34 34 33 33 33 32 32 32 31 31 31 31 31 31 31 30
30 29 29 29 28 27 27 27 28 27 27 26 26 26 26 26
26 26 26 26 28 28 29 8 0 0 4 9 12 17 18 11
9 8 13 15 18 23 25 25 24 21 25 24 27 28 28 28
28 29 28 28 28 28 29 29 29 30 29 29 29 29 30 30
30 31 31 31 31 31 31 31 31 31 31 31 32 32 31 31
31 31 31 31 31 31 31 31 31 31 31 29 29 28 28 29
14 14 14 15 17 19 23 28 31 34 36 35 35 34 34 35
34 34 35 34 33 33 33 33 33 32 32 32 32 32 31 31
30 30 30 30 30 29 29 28 28 28 28 28 27 27 26 26
27 26 26 27 28 28 7 1 3 6 13 23 28 27 22 11
11 7 6 10 14 16 20 26 26 22 27 27 29 29 28 29
28 29 28 29 29 29 29 30 30 30 30 30 30 30 31 30
31 31 32 32 32 31 32 32 32 32 32 32 32 32 32 31
32 31 31 32 31 32 31 30 30 29 29 29 31 31 31 28
15 13 13 13 14 12 14 14 15 16 19 24 33 35 35 35
34 34 34 33 33 33 33 33 32 32 32 31 32 31 31 31
31 31 30 30 29 29 29 28 28 28 28 27 27 27 27 27
27 27 27 27 29 16 0 2 6 12 23 42 56 59 64 56
47 31 22 19 15 18 14 18 26 23 27 26 29 29 29 29
29 29 29 30 29 29 29 29 30 31 30 30 30 30 31 31
31 31 31 32 31 31 32 32 32 32 31 32 31 32 32 32
32 31 30 29 30 29 30 31 31 31 30 30 30 30 30 30
33 18 18 14 13 13 14 13 13 6 5 12 28 35 35 34
35 34 33 34 34 33 33 33 33 32 32 32 32 31 31 31
30 30 29 29 30 29 29 29 28 28 28 27 27 27 27 26
26 27 27 28 18 0 3 7 27 56 74 81 87 90 90 89
86 78 64 37 12 13 17 16 20 24 27 26 29 29 29 28
29 29 30 29 29 29 30 30 30 31 30 31 30 30 30 30
30 30 30 31 32 31 31 32 32 32 32 31 31 31 32 31
30 31 31 31 31 31 31 30 30 30 30 30 30 30 30 29
45 24 28 29 28 20 15 13 13 11 11 13 28 35 35 35
34 34 32 32 33 33 33 33 32 32 32 32 32 32 31 31
31 30 30 29 29 31 31 29 28 28 27 27 28 27 27 27
27 28 27 22 3 2 14 57 85 91 92 95 94 92 92 93
93 90 90 84 66 27 6 12 12 20 27 26 29 28 29 28
29 29 29 29 29 29 30 29 30 31 30 30 30 30 30 31
30 31 32 31 31 31 30 30 30 30 30 30 30 31 31 31
31 31 31 30 30 30 31 30 30 29 29 29 29 29 30 29
47 30 35 39 41 35 38 36 30 19 10 13 27 35 34 34
34 33 33 37 37 35 35 34 33 32 32 32 32 31 31 31
31 30 30 29 34 41 39 34 32 30 28 28 28 27 27 27
27 27 26 9 8 20 70 93 100 99 98 97 96 96 95 93
91 88 88 87 80 68 34 8 13 12 26 27 29 29 29 29
29 28 29 29 30 29 30 30 29 32 31 30 30 30 31 31
31 30 31 30 30 31 31 30 30 30 30 30 30 30 30 30
30 30 30 30 30 30 31 30 30 30 29 29 29 29 29 29
46 35 38 41 43 39 46 46 46 32 11 15 28 35 35 34
34 34 36 44 43 41 39 37 35 34 32 32 32 32 32 31
31 30 30 30 37 42 40 37 37 36 32 28 28 28 27 27
28 27 19 11 19 67 90 96 97 99 101 100 98 101 103 104
102 100 97 94 85 74 61 29 8 6 20 27 29 29 29 29
30 30 30 30 30 31 30 30 31 31 30 29 29 29 31 31
30 31 30 31 30 31 31 31 31 31 31 30 30 30 31 29
29 31 31 30 31 30 30 30 30 29 30 29 28 29 30 29
39 37 40 42 44 45 48 48 48 38 13 15 31 36 36 35
35 34 36 46 44 42 40 40 40 42 38 35 35 33 32 30
30 30 30 30 36 40 39 37 38 38 36 29 28 28 27 28
28 25 14 12 54 85 92 96 104 110 114 113 113 111 112 112
111 110 107 102 97 86 69 58 24 7 11 24 29 30 30 30
30 30 30 30 30 30 30 30 30 29 29 30 30 30 31 31
31 32 31 31 31 31 31 31 31 31 30 30 30 30 31 30
30 30 31 30 30 30 30 29 30 29 29 29 30 30 29 30
38 37 40 40 43 44 46 47 48 40 14 15 33 39 37 37
36 35 36 43 42 42 41 42 44 45 41 37 39 39 37 33
33 32 32 31 33 25 26 29 34 36 36 30 27 27 28 28
30 16 12 38 78 90 96 102 112 117 118 119 119 117 116 115
113 108 94 85 81 84 82 69 56 15 8 20 28 30 30 29
30 30 30 29 30 29 29 29 30 30 30 30 30 30 30 30
31 32 30 30 31 30 31 32 31 31 30 30 30 30 30 29
30 30 31 30 30 30 29 30 29 30 29 30 29 29 29 29
38 28 24 32 37 44 45 46 45 39 15 15 33 41 34 35
38 39 41 23 9 21 34 40 42 44 40 17 15 25 31 35
34 37 37 34 32 17 11 12 11 13 21 31 29 29 28 30
30 14 25 70 86 94 101 101 99 104 105 114 118 119 117 114
113 95 69 48 41 33 39 59 63 45 5 13 28 31 30 30
30 29 30 29 30 29 30 30 30 30 31 30 30 30 31 31
31 33 31 31 31 31 31 31 31 31 30 31 31 30 30 30
31 31 32 31 30 30 29 30 29 30 30 30 29 29 29 29
40 18 0 4 8 17 25 30 35 39 15 15 32 40 35 32
34 42 45 20 0 0 11 18 19 24 36 7 0 0 2 7
12 20 28 33 32 16 3 7 8 1 6 32 29 29 29 34
19 19 52 79 88 79 55 46 48 52 66 93 108 114 111 110
110 92 65 47 46 37 22 16 31 51 28 7 21 29 29 30
30 30 31 31 31 30 30 31 31 31 31 31 31 30 31 30
31 32 31 32 32 31 31 32 31 32 31 31 31 31 31 30
31 30 32 31 30 30 30 30 31 30 31 30 30 30 30 30
39 16 0 0 0 0 0 1 6 39 16 15 16 24 32 38
40 45 47 22 0 0 5 10 11 13 34 7 0 0 0 0
0 0 1 11 33 14 0 1 2 1 6 33 29 29 30 26
17 29 67 75 50 26 26 33 40 47 62 85 105 112 113 112
110 97 91 86 83 77 82 70 37 28 42 15 13 30 31 31
31 31 32 30 31 31 31 31 31 31 31 30 31 31 31 31
32 33 32 32 31 32 32 31 31 31 31 31 31 30 31 30
31 31 31 31 31 31 30 31 31 31 31 30 30 30 30 30
41 14 0 0 0 0 0 0 5 38 16 13 1 0 1 6
14 25 34 23 0 0 2 2 5 8 33 10 0 0 0 0
0 0 0 7 34 9 0 0 1 0 6 34 29 29 33 21
23 45 70 49 39 78 100 100 94 96 104 107 111 113 107 102
102 105 109 110 110 116 114 112 91 47 30 27 10 25 31 31
30 31 32 31 31 31 31 31 31 31 31 31 31 31 31 31
31 32 32 32 32 31 32 31 32 32 31 32 31 31 31 31
31 31 31 31 31 30 30 30 30 30 31 30 31 31 30 30
40 13 0 0 6 4 0 0 4 39 16 13 1 0 0 0
0 0 2 17 0 0 0 0 0 5 30 8 0 0 0 0
0 0 0 6 33 4 0 0 0 0 6 35 30 29 23 21
29 57 59 40 80 116 120 119 117 116 118 115 109 93 92 89
79 96 107 106 97 79 66 79 99 80 33 32 13 18 31 32
31 31 32 31 31 30 31 30 31 31 31 30 31 31 32 32
32 33 32 31 31 31 32 32 32 31 32 31 31 31 32 31
31 32 31 31 32 31 32 31 30 31 30 30 31 31 30 30
40 14 0 0 4 13 1 0 4 39 16 13 1 0 0 0
0 0 0 14 0 0 0 0 0 5 33 9 0 0 0 6
6 0 0 4 33 4 0 0 0 0 5 35 31 26 15 25
37 62 42 66 108 109 83 64 71 89 109 114 97 96 115 114
100 80 90 82 69 39 24 35 51 82 59 33 20 13 30 31
31 31 32 31 31 31 31 31 31 31 31 31 32 32 32 32
32 32 31 32 32 32 32 32 33 32 33 32 32 31 32 31
31 31 31 31 32 32 32 31 31 31 31 31 31 31 32 31
40 12 0 0 1 11 0 0 4 38 15 13 1 0 0 0
0 0 0 12 0 0 0 0 0 4 35 11 0 0 0 9
12 8 3 3 33 3 0 0 0 0 3 35 30 20 15 24
45 60 46 94 103 52 14 18 65 69 80 98 93 111 123 124
103 97 65 57 77 44 31 49 64 50 77 39 27 9 25 32
32 32 31 31 31 32 31 31 32 31 31 32 32 32 33 33
33 33 33 33 33 33 33 33 32 32 32 31 32 31 31 32
31 31 32 32 32 31 32 31 30 30 31 31 32 31 31 30
39 10 0 0 0 0 0 0 5 38 15 13 1 0 0 4
6 0 0 10 0 0 0 0 0 3 35 12 0 0 1 11
13 12 9 3 32 4 0 0 0 0 2 34 31 15 18 25
51 58 65 102 59 44 49 72 79 69 71 78 110 104 112 119
90 104 92 52 56 81 87 72 54 39 79 60 35 10 21 31
32 32 32 31 31 32 32 31 31 32 32 32 32 32 32 33
33 33 33 33 33 33 32 32 33 33 32 33 32 31 32 32
31 31 32 32 31 31 31 31 31 30 31 31 32 31 31 31
38 10 0 2 1 0 0 0 5 37 15 14 1 4 5 2
2 0 0 10 0 0 0 0 0 5 34 15 0 0 0 8
12 12 9 2 31 9 0 0 0 0 1 34 28 15 19 30
55 66 92 90 33 64 100 104 92 84 84 102 87 17 61 113
19 29 85 90 59 74 91 90 76 41 64 78 43 15 14 30
32 32 32 32 32 32 31 32 32 32 33 32 33 32 32 32
32 32 32 32 32 32 32 32 33 33 33 32 32 32 32 31
31 31 32 32 31 32 32 31 31 31 31 33 33 32 32 32
41 15 2 2 2 1 0 0 7 37 15 14 2 7 0 0
1 0 0 12 0 0 0 0 0 14 36 19 0 1 0 0
5 10 8 1 33 33 25 17 11 7 9 35 26 17 16 29
59 75 102 70 51 95 99 92 96 105 97 100 49 24 91 114
59 22 68 108 68 71 84 89 85 67 62 89 57 25 11 26
32 32 32 32 32 32 32 32 32 32 32 32 32 32 33 33
32 32 33 32 32 33 33 33 33 33 33 32 32 32 32 32
32 31 32 32 31 31 32 31 31 31 31 32 30 31 30 29
44 50 35 23 30 28 26 21 23 34 15 13 2 1 0 0
0 0 0 23 15 8 7 3 0 3 37 39 28 23 19 10
4 3 4 1 32 42 39 38 38 40 42 43 22 18 14 32
63 89 104 76 82 89 95 106 114 113 97 106 72 79 116 117
108 66 92 110 76 95 93 85 83 84 71 81 76 36 5 17
31 32 31 32 32 32 31 32 32 32 32 32 32 32 33 32
32 32 32 32 32 33 33 33 33 33 33 32 32 32 32 31
32 31 30 30 28 30 31 28 29 28 29 27 25 21 17 15
57 58 35 30 40 45 45 44 43 34 15 14 2 0 0 0
0 0 0 35 48 38 35 34 28 23 43 37 20 23 26 27
27 25 25 25 42 41 39 39 41 45 48 45 21 18 16 39
70 101 100 83 92 102 111 118 121 113 89 105 97 109 119 121
113 91 83 82 81 111 108 99 91 83 83 69 74 48 8 10
31 32 31 32 32 32 32 32 31 33 32 32 32 32 32 32
32 32 32 33 33 33 33 32 32 32 32 31 31 30 29 29
30 30 30 28 27 25 23 20 17 15 13 11 10 10 9 10
58 53 31 31 41 45 45 48 48 36 14 14 3 0 0 0
0 0 0 37 50 40 45 47 51 46 45 30 12 13 13 13
14 15 17 22 27 23 26 31 35 39 39 38 20 16 18 44
79 106 89 94 102 113 121 124 121 114 98 84 87 96 104 105
99 87 75 75 92 109 112 107 98 89 80 77 60 52 19 4
29 32 32 32 32 32 33 32 32 33 33 32 32 31 32 32
32 32 32 32 33 32 33 32 33 32 32 31 31 32 28 24
22 20 18 14 13 12 12 12 13 13 14 15 15 16 16 16
53 41 18 25 37 40 42 45 47 37 15 15 21 21 14 7
3 0 0 37 41 40 47 49 52 48 39 29 15 14 12 12
11 10 9 8 7 8 10 13 23 30 27 24 14 16 18 52
91 93 91 97 110 119 124 125 120 107 93 82 85 89 89 90
91 89 86 78 85 98 112 108 102 96 86 77 67 50 31 4
26 32 32 32 32 32 32 31 31 31 33 32 32 32 32 33
33 34 34 33 33 33 32 29 27 26 22 19 19 31 23 11
12 13 14 15 16 17 17 18 19 19 20 20 21 21 23 23
53 36 1 0 2 3 6 9 22 36 15 16 32 47 46 42
37 32 28 42 33 39 45 47 51 48 41 34 18 15 12 11
9 9 9 9 9 9 9 10 23 24 23 25 11 14 18 62
89 85 94 102 113 123 127 124 111 96 86 85 96 95 92 94
96 91 89 87 89 93 105 109 105 99 92 78 70 54 40 4
21 31 32 32 32 32 31 30 31 31 33 33 33 33 32 33
32 30 28 25 23 20 18 16 15 16 16 16 15 25 21 13
17 19 21 21 22 22 23 23 25 25 25 25 25 26 26 26
53 36 0 0 0 0 0 0 8 35 16 16 33 48 48 46
46 47 48 45 16 16 25 31 38 39 37 36 18 13 10 5
6 6 9 10 10 10 12 13 26 20 13 26 7 10 20 71
81 91 96 106 117 124 125 116 103 95 88 84 82 87 89 91
88 76 80 87 94 100 101 106 107 102 94 81 70 59 43 12
12 29 29 29 29 28 30 30 32 31 30 28 27 25 22 21
19 18 17 16 17 18 18 19 20 20 21 21 21 25 22 17
22 24 25 26 26 26 27 27 27 27 27 26 27 28 28 28
52 33 0 0 0 0 1 2 9 34 17 15 30 45 46 46
47 48 49 43 6 0 0 2 6 14 22 37 17 11 7 0
0 0 6 11 9 5 11 13 24 36 35 29 3 2 24 73
82 93 94 106 119 125 121 110 113 98 83 90 107 109 111 108
103 90 72 76 88 111 107 101 104 102 96 83 71 60 46 22
4 25 27 29 25 17 25 25 23 21 19 18 18 18 19 19
20 20 21 22 23 24 25 25 26 26 27 26 25 26 24 20
26 27 28 28 29 29 29 29 29 30 30 29 29 30 29 29
48 29 0 0 0 0 19 24 23 30 27 22 27 34 35 37
38 40 45 40 4 0 0 0 0 3 19 38 16 11 8 0
0 0 0 0 0 0 1 2 20 38 31 22 1 0 32 73
84 94 99 112 121 123 114 114 118 89 97 117 117 115 113 113
118 114 99 71 70 112 119 105 101 102 97 83 72 61 46 30
0 19 22 21 19 14 17 18 19 19 21 21 23 24 24 25
26 26 27 27 28 29 29 29 29 30 30 28 24 11 8 18
28 30 30 30 31 30 30 30 30 31 30 30 30 30 30 30
45 26 0 0 0 0 18 24 23 25 24 19 22 22 25 30
31 31 42 38 2 0 0 0 0 0 13 39 14 8 2 0
0 5 2 0 0 0 0 0 18 39 32 18 0 0 38 73
88 95 102 114 120 118 115 120 97 95 112 115 114 109 105 104
107 109 105 91 77 95 117 111 105 102 99 89 73 60 46 34
1 9 19 21 22 21 23 24 25 26 27 27 28 29 29 29
30 30 30 30 31 31 31 31 32 31 30 29 23 3 1 14
29 31 32 31 30 30 31 31 31 31 31 31 31 30 31 31
46 25 0 0 0 0 6 13 18 24 22 20 23 23 23 29
30 31 42 37 2 0 0 0 0 0 11 36 4 1 0 0
0 7 8 1 0 0 0 0 16 39 31 12 0 1 45 74
89 96 105 115 118 116 117 107 91 106 111 111 105 103 102 99
93 98 100 95 88 94 106 110 109 102 96 88 76 58 45 37
2 3 22 26 26 27 28 29 30 29 30 31 30 31 32 32
32 33 32 32 32 32 33 32 24 17 12 16 22 6 4 12
29 31 32 32 31 31 32 31 31 31 31 31 31 31 30 30
46 23 0 0 0 0 0 0 2 20 15 18 17 13 20 25
30 35 41 36 2 0 0 0 0 0 14 35 1 0 0 0
0 2 12 8 2 0 0 0 15 40 33 10 0 0 46 76
88 98 107 114 115 118 114 98 101 108 108 103 105 113 117 113
100 91 90 93 90 91 98 105 108 101 93 85 77 59 43 37
10 2 23 29 29 31 31 31 31 31 31 32 32 33 33 33
32 33 33 33 32 33 33 30 6 2 6 15 21 1 0 10
29 31 32 32 31 31 32 31 30 31 31 31 31 31 30 30
48 23 0 0 2 0 0 0 2 26 20 22 12 0 0 1
3 7 11 24 2 0 0 0 0 0 16 34 1 0 0 0
1 8 14 12 12 0 0 0 15 39 34 16 0 1 50 79
87 98 106 108 114 118 109 100 103 107 106 104 114 119 121 119
114 102 95 89 89 89 93 99 105 100 90 84 77 57 43 37
30 16 21 30 31 32 33 33 33 32 33 33 34 33 33 33
34 33 35 34 33 34 35 33 27 28 30 30 25 2 0 10
28 31 31 32 31 31 32 31 31 31 31 31 31 31 30 30
47 22 0 0 0 6 0 0 2 32 26 25 15 0 0 0
0 0 0 14 2 0 0 0 0 0 15 31 0 0 0 0
5 17 19 13 10 0 0 0 15 40 37 23 3 18 56 79
85 99 105 107 113 117 107 103 103 104 104 112 121 117 115 119
121 108 95 88 86 86 89 96 102 100 88 81 76 58 42 36
35 36 26 31 32 33 34 34 33 33 33 34 34 34 34 33
34 34 34 33 34 34 34 34 33 32 31 30 25 6 0 12
29 32 32 32 32 31 31 31 31 30 31 31 30 31 30 30
43 25 0 0 0 8 0 0 2 35 29 24 15 0 0 0
0 0 0 12 2 0 2 12 4 0 14 29 0 0 0 0
1 7 19 4 0 0 0 0 12 39 38 22 37 38 57 78
83 97 103 97 101 115 107 103 102 102 104 117 124 119 116 123
125 113 97 88 84 83 84 91 98 97 87 80 74 57 42 37
45 49 34 32 33 34 34 34 33 33 34 34 33 33 34 34
35 34 34 34 34 34 34 34 33 33 31 30 27 11 0 17
29 32 32 32 32 32 31 31 31 31 31 31 31 31 30 29
36 31 14 5 2 13 9 4 1 34 26 22 16 0 0 5
5 0 0 11 3 0 10 17 8 0 15 27 0 0 0 0
0 0 13 2 0 0 0 0 8 38 39 29 50 49 58 75
85 98 102 99 108 112 105 102 98 101 109 120 124 120 119 124
127 115 98 88 76 79 82 88 94 90 84 79 71 56 42 35
55 57 43 32 34 34 34 33 34 33 34 34 34 33 34 33
34 35 34 33 34 34 34 33 33 33 31 29 25 20 13 24
30 32 32 32 32 32 31 31 31 31 31 31 31 30 31 30
37 35 35 35 29 33 34 30 26 40 26 21 15 0 2 15
14 3 0 12 10 4 16 16 14 3 14 27 0 0 0 0
0 0 14 5 0 0 0 0 6 37 37 34 69 61 60 75
86 98 103 103 111 110 106 101 94 99 109 121 119 119 122 122
118 108 98 88 75 71 83 87 91 84 82 76 69 56 41 34
66 62 48 32 34 34 34 33 34 33 34 33 34 34 34 33
34 35 34 34 34 34 33 34 32 33 31 29 25 24 24 28
32 32 33 33 32 32 31 31 31 32 31 31 31 30 30 30
38 34 17 10 14 23 32 39 44 45 34 20 15 0 2 13
12 3 0 15 37 34 38 35 34 31 36 29 0 0 0 0
0 0 14 6 0 0 0 0 2 35 35 42 81 82 60 74
89 99 101 103 108 109 105 99 92 96 104 106 106 113 117 115
110 99 91 84 70 66 76 83 87 78 77 74 67 54 41 32
59 64 50 32 33 33 33 33 33 33 34 34 34 34 33 34
34 34 35 33 34 33 33 33 33 32 31 30 27 27 28 32
32 32 32 33 32 32 32 31 32 31 32 31 30 31 31 30
40 34 9 0 0 3 5 15 44 44 30 19 16 0 0 2
0 0 0 13 41 41 45 43 44 49 52 37 9 10 7 1
1 2 17 8 2 2 0 0 2 26 35 50 88 95 58 74
88 98 102 102 104 106 102 91 85 90 94 98 100 105 104 105
101 92 86 81 70 68 74 77 80 75 73 68 64 53 40 32
55 59 50 31 33 33 33 33 33 34 33 33 33 34 33 33
34 34 34 34 34 34 34 34 32 32 31 31 29 29 30 33
33 32 32 32 32 31 33 32 31 31 31 30 30 31 30 30
41 35 6 0 1 22 16 19 42 41 27 20 22 13 0 1
0 0 0 12 41 41 42 42 45 51 53 46 32 31 30 25
23 23 26 20 16 13 12 11 14 25 35 54 89 84 57 71
87 96 101 101 101 99 98 88 87 88 88 90 90 95 96 91
93 89 84 82 74 68 74 71 75 70 70 69 60 50 39 35
67 55 45 32 33 33 34 33 33 33 33 33 33 34 33 33
33 34 34 34 34 34 34 33 32 32 32 31 30 30 31 31
31 31 31 31 31 31 31 32 30 30 30 30 30 30 29 29
43 36 4 0 0 16 27 29 42 36 21 21 21 11 0 0
0 0 0 12 36 35 38 38 39 41 40 39 35 36 36 33
33 35 34 32 29 26 25 23 24 29 38 47 87 84 62 67
85 95 96 99 97 97 93 87 86 88 88 88 92 95 96 92
90 88 85 83 71 70 68 68 70 69 66 64 58 48 35 24
62 63 44 31 32 33 34 33 34 33 33 33 33 34 33 33
33 33 34 34 34 33 33 32 32 32 32 31 30 31 32 32
31 31 32 32 32 31 32 31 30 31 30 29 31 30 29 29
44 37 5 0 0 2 10 27 43 35 20 23 22 5 0 0
0 0 0 12 40 34 35 35 36 34 31 33 36 37 39 38
36 36 35 35 34 38 36 31 28 33 39 38 78 86 71 63
81 91 95 96 94 90 89 83 83 88 87 88 96 97 99 98
94 90 83 81 71 65 64 64 62 63 63 58 54 45 31 7
28 48 43 33 32 32 33 34 34 33 33 33 33 33 33 33
33 33 33 33 33 33 33 32 32 32 32 31 31 33 33 32
32 32 33 32 32 31 31 31 31 30 30 29 30 28 28 28
45 39 6 0 0 0 0 22 43 33 20 21 21 20 16 12
10 7 5 16 42 34 34 33 34 34 36 38 39 38 42 45
44 37 34 35 36 44 43 40 34 37 34 29 85 102 77 57
77 86 89 90 92 87 82 80 80 82 87 90 98 98 102 101
98 89 83 77 71 61 59 56 60 59 60 55 49 40 26 3
21 18 25 31 32 32 31 31 33 33 33 33 33 33 32 32
33 33 32 32 33 33 33 32 32 32 32 32 32 33 33 31
31 31 32 32 28 21 27 30 30 29 30 29 29 28 28 28
45 38 5 0 0 0 0 16 43 34 20 21 24 40 43 42
39 42 43 43 45 37 36 37 37 38 41 44 42 40 43 47
46 37 33 31 35 45 44 40 37 32 32 32 89 88 39 45
69 79 84 85 85 80 79 78 78 81 87 93 96 100 101 100
98 92 83 77 66 58 55 56 58 57 56 54 46 34 18 4
26 24 23 28 31 31 31 32 33 34 34 32 32 32 32 32
32 33 34 33 33 33 33 33 32 33 32 32 32 32 32 32
32 31 31 28 17 24 18 30 30 29 29 29 29 28 28 27
45 36 3 0 0 0 0 17 44 35 18 21 24 46 50 49
49 50 50 51 47 36 33 32 32 34 41 46 45 41 41 41
40 38 35 31 30 38 34 34 37 37 34 27 38 26 10 23
62 75 78 80 78 77 73 75 72 78 83 92 99 99 98 101
96 92 86 73 64 58 55 56 56 58 55 54 42 31 14 7
27 30 24 26 29 31 31 31 32 33 34 32 33 33 33 32
33 33 33 32 33 33 32 32 32 32 32 32 32 32 32 32
32 32 31 19 29 26 20 30 30 29 29 29 29 27 27 27
45 37 3 0 0 0 0 15 42 33 16 22 22 35 40 41
43 44 46 47 45 16 12 8 7 9 16 31 45 41 27 16
20 23 22 27 33 24 8 4 7 15 19 26 28 23 17 7
50 67 74 77 78 78 74 74 70 76 81 90 96 99 96 98
97 89 81 73 67 59 57 56 58 58 57 49 37 30 12 10
28 31 30 29 29 27 31 31 33 34 34 33 32 32 32 33
33 33 34 33 33 32 32 31 30 28 28 30 32 33 32 32
33 32 31 19 31 20 28 31 30 29 28 28 28 25 20 19
45 37 3 0 0 0 0 12 38 30 15 22 19 23 24 25
24 25 26 28 31 8 0 0 0 0 0 16 45 35 8 0
1 3 8 23 35 22 1 0 0 2 12 22 18 18 16 7
31 58 68 75 75 73 73 72 74 76 83 91 93 98 97 95
96 87 82 74 66 59 57 58 58 57 53 44 35 35 14 16
26 30 31 30 31 32 30 32 31 33 33 31 31 30 30 30
32 33 34 33 31 19 15 13 11 9 9 20 33 34 33 33
33 32 31 20 31 18 27 23 19 26 28 26 25 10 0 0
46 39 3 0 0 0 0 12 41 32 14 19 19 29 31 30
30 29 29 29 30 11 2 0 0 0 3 21 42 23 0 0
0 0 2 25 36 25 0 0 0 0 11 21 5 5 7 6
16 50 60 70 72 73 73 73 74 77 83 87 94 97 99 93
89 87 79 75 69 62 61 61 60 57 51 39 39 39 19 18
26 26 29 29 31 33 32 24 22 20 18 16 12 10 9 11
20 33 34 34 31 11 5 5 6 6 6 18 34 34 34 34
33 32 31 13 10 3 11 4 1 4 5 2 1 0 0 0
42 33 3 0 0 0 0 14 43 34 13 20 20 31 34 33
33 33 34 35 33 11 2 0 0 0 3 21 41 15 0 0
0 0 0 23 36 25 1 0 0 0 9 23 5 5 12 7
13 50 53 63 69 71 74 75 76 79 85 89 94 97 95 93
93 87 82 76 72 69 63 62 63 56 49 46 48 45 23 13
23 27 25 23 30 33 27 7 6 8 7 8 3 2 2 2
13 32 34 33 31 11 5 5 6 5 5 17 34 34 34 34
33 19 12 1 0 0 2 0 0 0 0 0 0 0 0 0
34 27 17 13 9 9 8 20 40 31 17 21 23 32 34 34
34 33 34 36 35 10 1 0 0 1 4 11 39 11 0 0
0 0 0 23 35 24 1 0 0 0 6 25 8 2 6 5
15 57 58 59 67 70 76 77 75 80 85 91 97 99 101 92
92 89 87 80 77 71 69 65 62 60 59 58 59 49 28 12
21 20 14 23 27 31 25 6 4 8 7 8 3 2 3 2
10 31 33 34 30 10 6 6 6 5 6 15 33 35 34 35
33 6 0 0 0 0 0 0 0 0 0 0 0 0 0 0
38 38 36 35 34 33 32 32 32 30 28 28 28 29 28 29
28 29 29 30 33 12 0 0 0 2 5 7 38 9 0 0
0 0 0 23 35 22 0 0 0 0 0 23 9 3 5 5
15 66 68 69 70 73 78 81 81 83 86 92 99 98 98 99
95 93 88 81 75 71 70 69 66 66 68 71 68 55 32 7
15 16 15 26 29 31 24 5 4 8 7 8 3 2 2 2
10 31 33 34 31 11 5 5 6 5 5 12 34 35 34 34
33 12 1 12 12 14 17 18 20 16 0 0 1 8 0 1
38 37 36 36 35 34 32 32 30 29 28 27 26 26 25 25
25 24 24 24 29 20 3 0 0 3 3 6 36 7 0 0
0 0 0 21 36 24 3 0 0 0 0 24 10 2 5 4
16 75 82 84 81 83 83 84 85 87 91 96 100 102 102 102
101 97 91 89 84 74 70 70 69 76 77 82 76 61 39 12
18 21 26 32 32 30 25 7 3 7 8 9 3 2 3 1
11 31 33 33 32 14 9 8 10 10 10 13 30 33 33 32
32 16 14 32 30 29 30 29 28 9 0 0 0 3 17 18
37 36 36 35 34 33 32 30 29 28 27 26 26 25 25 24
24 24 24 23 26 16 0 0 0 1 3 6 37 8 0 0
0 0 0 16 37 25 3 0 0 0 0 21 14 1 3 3
18 83 93 99 94 93 88 90 90 90 93 99 104 106 109 109
105 102 96 96 89 81 77 73 80 83 87 87 81 68 44 15
19 24 31 32 32 31 27 7 4 7 8 8 4 3 3 2
9 31 34 34 32 19 14 13 13 13 12 15 28 34 35 34
33 17 24 32 31 30 29 28 27 8 0 0 0 0 19 20
22 21 20 20 19 19 17 15 14 13 13 13 13 13 13 13
13 15 18 22 24 10 0 0 0 0 0 5 36 10 0 0
0 0 0 11 37 24 1 0 0 0 0 19 19 0 1 1
17 86 100 105 102 97 95 95 97 98 99 103 107 107 112 111
111 110 103 96 90 82 80 83 86 89 95 93 87 72 48 25
26 28 30 31 30 32 27 7 3 4 5 4 2 2 2 2
8 30 34 34 33 16 8 7 7 7 7 10 28 34 34 33
29 10 30 31 31 29 28 27 26 7 0 0 0 0 15 19
0 0 0 0 0 0 0 0 0 0 0 0 0 0 0 0
0 3 16 21 22 7 0 0 0 0 1 2 36 14 0 0
0 0 0 11 39 27 10 5 4 6 8 23 23 0 0 0
23 91 105 110 109 105 101 100 99 100 106 110 112 115 115 117
116 111 109 101 95 87 83 85 93 99 99 96 89 76 53 22
26 30 30 31 33 31 29 8 3 2 1 1 2 2 3 2
7 29 33 35 32 17 6 7 7 7 7 9 18 12 14 16
11 25 33 31 31 29 28 27 24 3 0 0 0 0 11 19
0 0 0 0 0 0 0 0 0 0 0 0 0 0 0 0
0 4 21 22 21 12 6 5 5 8 15 11 34 32 22 21
24 24 24 30 43 32 35 35 37 38 42 45 33 14 9 10
28 94 108 112 114 106 106 103 101 103 106 112 115 117 116 120
120 114 107 103 96 86 81 88 96 98 101 101 94 81 56 28
26 30 33 35 33 32 27 8 2 2 0 2 4 2 4 1
6 29 33 35 32 18 6 7 8 6 6 6 12 30 29 27
31 32 32 32 30 28 26 23 21 3 0 0 0 0 10 18
0 0 0 0 0 0 0 0 0 0 0 0 0 0 0 0
0 3 21 23 22 27 31 27 28 31 32 31 33 42 49 45
45 47 49 50 48 34 36 41 42 46 52 52 43 28 22 21
36 93 111 117 118 112 107 103 101 104 107 111 114 121 117 120
120 117 111 105 96 92 84 92 98 103 104 102 94 81 60 29
26 30 32 35 33 32 26 9 3 3 3 6 4 2 3 2
5 28 32 35 33 18 6 6 6 6 6 4 18 35 34 33
32 32 31 30 28 8 4 2 1 0 0 0 0 0 8 18
0 0 0 0 0 0 0 0 0 0 0 0 0 0 0 0
0 1 21 22 21 27 33 30 33 35 31 27 27 35 47 47
46 45 48 48 48 35 30 36 39 43 46 46 40 30 29 27
37 91 109 116 116 114 110 105 102 103 109 114 114 119 121 121
123 119 108 104 98 90 89 99 101 104 106 104 97 85 63 33
24 28 33 35 32 30 26 9 3 2 0 0 3 2 4 2
5 28 32 34 32 19 6 6 6 6 6 3 19 35 33 32
32 32 31 29 23 0 0 0 0 0 0 0 0 0 6 18
0 0 0 0 0 0 0 0 0 0 0 0 0 0 0 0
0 1 22 24 22 24 26 24 28 31 31 26 25 27 28 29
29 30 30 29 32 31 28 31 34 34 30 28 30 30 31 31
40 91 111 117 117 116 112 105 104 105 108 112 114 118 124 120
121 113 104 104 99 98 97 98 103 108 108 106 99 87 69 36
22 30 33 35 33 31 27 10 3 3 0 0 3 2 4 2
5 27 32 34 33 18 5 6 6 6 7 4 17 34 33 32
32 32 31 30 25 0 0 0 0 0 0 0 0 0 6 17
0 0 0 0 0 0 0 0 0 0 0 0 0 0 0 0
0 0 21 23 21 18 16 19 22 26 30 26 26 27 22 24
24 26 26 26 29 31 33 35 37 36 33 30 31 32 31 30
40 89 110 116 118 114 113 112 113 109 110 113 114 119 123 123
121 116 108 105 102 99 100 102 107 109 110 108 103 92 74 40
26 33 34 35 33 31 28 11 3 2 2 2 3 2 4 2
4 26 31 33 32 20 5 5 6 5 5 3 13 33 33 33
33 32 31 30 28 8 0 0 0 0 0 0 0 0 5 17
0 0 0 0 0 0 0 0 0 0 0 0 0 0 0 0
0 0 18 23 20 16 3 3 5 7 10 10 17 29 27 31
30 37 39 34 34 36 37 41 44 44 37 32 31 32 31 31
36 85 108 116 120 119 113 112 113 110 111 115 117 120 123 124
120 120 114 109 104 104 109 108 110 111 113 111 103 93 76 50
38 33 34 35 33 31 28 12 3 3 3 3 3 2 3 2
3 24 30 31 30 20 4 4 5 5 3 2 7 30 33 32
32 31 30 29 27 17 2 0 0 0 0 0 0 0 1 9
0 0 0 0 0 0 0 0 0 0 0 0 0 0 0 0
0 0 16 23 20 16 1 0 0 0 0 1 15 29 34 41
38 46 53 30 16 17 19 22 29 44 40 33 32 32 32 32
41 84 109 117 121 121 118 116 116 112 115 114 116 122 126 128
127 121 115 115 111 108 110 113 115 115 112 108 103 93 81 76
39 33 35 35 34 31 29 12 3 2 2 3 2 2 3 2
3 23 29 30 29 24 15 17 14 10 15 15 5 27 31 32
32 31 31 27 20 33 5 0 0 0 0 0 0 0 0 6
0 0 0 0 0 0 0 0 0 0 0 0 0 0 0 0
0 0 14 24 19 19 2 0 0 0 0 0 17 28 31 39
26 29 40 17 0 0 0 0 9 40 41 33 33 33 33 33
54 96 106 118 122 123 121 118 119 117 117 122 124 123 130 132
130 127 120 115 113 113 114 118 119 117 113 109 103 98 89 78
29 35 35 36 34 33 30 13 3 3 2 3 2 2 2 1
2 22 29 30 30 29 29 29 29 25 28 28 15 18 31 31
29 24 24 16 0 2 1 1 0 0 0 0 0 0 0 5
0 0 0 0 0 0 0 0 0 0 0 0 0 0 0 0
0 0 12 23 19 20 5 0 0 0 0 0 15 27 30 36
10 2 23 18 0 0 0 0 4 36 41 33 33 33 33 33
47 114 103 116 120 124 125 124 121 118 119 123 124 126 132 134
133 127 121 119 121 118 118 120 120 118 115 110 104 94 80 53
27 38 35 35 34 33 31 14 3 3 2 2 3 2 2 2
2 22 29 30 31 30 30 31 30 29 30 30 26 7 12 8
3 5 0 0 0 0 1 1 0 0 0 0 0 0 0 5
0 0 0 0 0 0 0 0 0 0 0 0 0 0 0 0
0 0 10 23 19 14 0 0 0 0 0 0 17 26 29 37
10 1 21 20 0 0 0 0 2 32 40 32 32 33 33 35
38 80 109 110 121 122 124 127 126 126 127 129 128 130 133 133
135 130 126 123 123 120 120 122 120 118 114 111 104 85 67 15
23 44 35 33 33 32 31 15 3 3 2 2 2 2 2 1
3 23 31 32 32 30 30 29 29 30 18 9 7 2 0 0
0 0 0 0 0 0 0 0 0 0 0 0 0 0 0 4
0 0 0 0 0 0 0 0 0 0 0 0 0 0 0 0
0 0 8 22 19 13 0 0 0 0 0 0 18 24 29 37
10 0 19 23 0 0 0 0 0 28 40 32 32 32 33 43
43 40 89 95 112 120 124 125 128 129 129 132 134 135 135 136
133 129 127 123 123 121 122 123 121 117 116 113 95 89 50 7
26 46 34 34 34 32 31 16 5 4 3 2 3 2 2 3
9 26 32 33 32 30 30 29 29 28 6 0 0 0 33 21
0 0 0 0 0 0 10 5 0 0 0 0 0 0 0 0
0 0 0 0 0 0 0 0 0 0 0 0 0 0 0 0
0 0 6 22 19 12 0 0 0 0 0 0 16 24 29 36
10 1 17 23 0 0 0 0 0 26 40 32 32 32 33 48
45 29 38 107 102 111 124 126 130 128 127 132 133 134 136 136
131 129 129 125 123 122 124 125 121 118 117 104 91 92 25 6
36 35 32 33 33 32 31 25 20 18 14 14 14 8 3 10
19 28 32 33 32 30 29 29 28 26 3 0 0 20 83 91
12 0 0 0 0 0 4 3 0 0 0 0 0 0 0 0
0 0 0 0 0 0 0 0 0 0 0 0 0 0 0 0
0 0 5 22 18 13 0 0 0 0 0 0 13 25 28 36
12 1 15 25 3 0 0 0 0 23 40 32 32 32 32 45
55 28 15 69 97 105 110 125 130 130 129 131 131 133 137 134
132 131 129 125 124 125 125 124 122 120 114 94 77 50 15 17
27 33 23 28 32 32 30 29 28 25 21 20 18 10 0 15
23 29 32 32 31 30 28 27 20 11 0 0 0 6 18 21
2 0 0 0 0 0 1 0 0 0 0 0 0 0 0 0
0 0 0 0 0 0 0 0 0 0 0 0 0 0 0 0
0 0 4 20 18 13 0 0 0 0 2 0 10 26 28 36
19 5 11 25 3 2 2 1 0 19 39 31 31 31 31 42
63 34 24 26 66 121 109 102 124 129 129 130 133 136 136 135
133 131 131 126 126 125 126 125 121 116 86 67 95 17 11 35
26 28 22 22 32 35 29 28 28 25 22 21 20 12 0 16
25 28 30 31 30 28 28 27 14 0 0 0 0 0 0 0
0 0 0 1 2 2 1 1 0 0 0 0 0 0 0 0
0 0 0 0 0 0 0 0 0 0 0 0 0 0 0 0
0 0 3 20 18 14 1 0 0 0 6 5 8 28 28 36
21 14 11 24 2 6 8 1 0 16 37 30 30 30 29 40
51 39 36 21 35 73 104 110 95 118 131 132 134 136 137 137
133 132 130 129 126 126 127 125 115 81 33 6 65 9 17 32
25 28 33 43 60 59 38 33 32 27 23 24 23 16 0 16
26 28 30 31 29 28 28 28 15 0 0 0 0 0 0 0
0 0 0 0 0 0 0 0 0 0 0 0 0 0 13 25
0 0 0 0 0 0 0 0 0 0 0 0 0 0 0 0
0 0 3 20 17 14 9 10 9 11 17 20 22 35 31 36
17 21 13 25 7 11 10 7 6 18 31 29 33 35 34 40
32 45 52 26 33 18 91 48 83 86 117 133 135 136 137 136
135 132 130 129 127 127 125 117 92 58 23 1 30 14 28 30
19 28 22 42 77 61 49 37 39 30 38 38 28 18 0 17
26 28 29 29 28 27 28 27 19 3 0 0 0 0 0 0
0 0 0 0 0 0 0 0 0 0 0 0 0 0 28 33
0 0 0 0 0 0 0 0 0 0 0 0 0 0 0 0
0 0 2 19 18 15 25 32 33 34 35 37 40 43 35 35
9 17 16 29 23 23 22 22 22 23 25 25 26 65 55 44
30 28 55 45 27 13 42 20 63 79 89 125 136 132 134 136
137 133 129 124 127 128 118 90 69 40 19 2 15 27 32 20
21 21 12 38 63 56 39 39 38 19 26 34 25 16 8 18
27 27 28 28 28 27 27 27 26 9 0 0 0 0 0 0
0 0 0 0 0 0 0 0 0 0 0 0 0 5 30 31
0 0 0 0 0 0 0 0 0 0 0 0 0 0 0 0
0 0 2 19 18 16 30 37 37 38 39 40 42 44 39 35
7 5 11 28 23 24 25 25 25 26 36 45 47 62 64 54
29 18 39 60 49 17 29 6 47 66 88 92 124 133 134 137
138 135 128 130 129 123 100 71 52 29 6 0 14 40 26 7
14 27 6 13 51 70 50 44 46 65 41 34 19 21 37 37
28 28 28 28 28 27 28 27 23 1 0 0 0 0 0 0
0 0 0 0 0 0 0 0 0 0 0 0 0 8 19 19
0 0 0 0 0 0 0 0 0 0 0 0 0 0 0 0
0 0 2 19 17 14 21 23 22 21 20 21 21 20 25 32
7 2 8 29 26 28 29 32 42 44 63 57 55 63 65 45
48 18 24 53 56 40 28 0 22 58 79 80 95 124 133 135
136 133 132 133 126 108 77 53 31 11 2 2 21 42 20 8
29 52 19 19 25 44 24 19 26 64 72 52 39 77 92 92
64 53 31 29 27 27 27 27 23 0 0 0 0 0 0 0
0 0 0 0 0 0 0 0 0 0 0 0 0 1 1 0
0 0 0 0 0 0 0 0 0 0 0 0 0 0 0 0
0 0 1 18 17 13 5 1 1 1 1 3 5 6 16 32
8 0 6 29 27 35 55 47 34 50 39 42 45 68 57 32
37 20 26 27 43 57 44 10 17 44 82 81 82 96 127 135
136 136 136 132 113 100 59 21 11 21 24 8 51 32 18 33
53 75 43 31 43 48 35 21 20 56 68 43 35 73 106 101
93 92 70 43 37 30 28 27 15 0 0 0 0 0 0 0
0 0 0 0 0 0 0 0 0 0 0 0 0 0 0 0
0 0 0 0 0 0 0 0 0 0 0 0 0 0 0 0
0 0 1 18 17 13 6 1 1 2 3 4 6 6 16 33
13 5 10 30 28 32 40 33 36 59 57 55 44 45 37 15
24 26 38 21 30 49 50 42 56 33 54 84 89 91 114 135
138 139 138 123 107 99 63 17 20 33 12 25 52 14 18 41
54 64 38 21 39 64 59 47 36 23 50 42 33 45 78 77
77 78 74 78 93 68 42 35 15 0 0 0 0 0 0 0
0 0 0 0 0 0 0 0 0 0 0 0 0 0 0 0
0 0 0 0 0 0 0 0 0 0 0 0 0 0 0 0
0 0 1 18 17 13 9 7 6 6 6 6 7 7 19 35
26 32 38 33 20 22 35 41 58 32 32 29 34 58 52 37
59 65 48 25 28 26 51 17 55 70 40 82 103 95 101 129
141 141 139 122 117 76 44 21 22 32 6 50 24 31 34 61
92 104 64 27 32 41 47 36 32 31 48 29 10 13 69 90
97 106 108 92 75 69 33 26 36 37 25 5 0 0 0 0
0 0 0 0 0 0 0 0 0 0 0 0 0 0 0 0
0 0 0 0 0 0 0 0 0 0 0 0 0 0 0 0
0 0 4 20 18 13 10 9 9 10 10 10 11 8 19 33
28 37 44 60 59 59 41 38 43 18 18 22 50 78 63 34
61 103 62 29 34 19 39 28 7 27 28 48 104 117 120 135
140 140 139 140 132 43 22 18 28 25 29 44 18 38 76 96
103 103 72 40 45 66 49 27 29 27 65 61 33 27 77 110
110 117 106 87 72 94 70 28 27 45 37 24 17 7 0 0
0 0 0 0 0 0 0 0 0 0 0 0 2 0 0 0
1 2 2 3 4 4 5 5 6 7 7 7 8 8 10 11
11 12 14 16 15 14 11 9 10 10 11 11 12 10 16 24
32 40 71 114 119 117 56 34 63 36 37 42 60 65 42 16
62 105 95 74 44 15 28 40 5 19 34 35 95 137 139 141
141 141 141 140 109 32 13 18 24 10 51 30 32 49 78 81
78 80 48 18 36 68 71 40 38 32 45 48 35 31 55 91
92 92 90 98 95 83 87 32 34 51 57 36 27 31 12 0
0 0 0 0 0 0 0 0 0 0 0 7 7 0 0 0
22 23 23 21 21 20 19 19 18 17 17 16 15 15 14 14
13 14 13 13 13 13 11 10 10 10 10 12 15 27 38 47
58 86 78 80 88 100 45 38 67 42 44 41 47 65 50 28
80 118 117 94 62 27 28 45 5 18 33 31 40 95 138 141
141 141 140 140 98 38 13 20 20 21 46 53 52 72 77 82
79 75 48 11 16 36 47 38 31 29 57 66 46 23 37 108
107 107 117 116 108 91 88 38 24 38 48 44 24 22 21 10
0 0 0 0 0 0 0 0 0 0 0 17 7 0 0 0
27 28 28 25 23 22 20 19 18 17 17 16 16 14 15 14
14 14 14 14 13 13 12 11 11 11 12 15 42 54 79 87
91 88 91 73 80 80 28 41 46 26 31 32 71 80 60 35
76 110 111 106 61 49 60 55 21 11 23 23 24 44 75 131
142 141 140 124 68 46 27 23 22 56 52 64 93 105 110 114
107 107 74 20 17 34 36 19 19 16 38 67 58 32 41 101
104 108 121 112 90 74 76 62 33 38 69 74 42 36 38 29
20 2 0 0 0 0 0 0 0 0 0 22 3 0 0 0
26 27 26 25 24 22 20 19 19 18 17 16 16 15 14 12
12 11 12 11 10 11 12 12 12 13 21 42 40 35 75 88
104 111 106 92 90 100 41 66 56 34 39 47 65 70 48 20
54 88 83 97 88 78 82 56 33 10 38 25 17 19 37 73
125 141 137 68 51 44 34 47 41 68 53 89 125 124 127 124
124 124 95 45 48 71 66 31 30 31 20 44 41 18 16 50
71 77 83 82 73 78 65 47 20 21 44 55 36 26 27 25
34 21 0 0 0 0 0 0 0 0 0 15 0 0 0 0
26 25 25 23 21 18 17 15 13 11 9 7 5 3 3 3
7 7 9 11 10 11 12 13 22 47 51 46 22 55 93 88
92 95 88 103 117 108 33 64 47 46 46 34 43 44 37 13
47 91 96 104 109 106 89 72 57 45 79 61 42 43 42 54
65 105 113 68 34 21 38 64 56 83 70 99 105 100 109 109
102 108 80 27 37 74 87 65 56 55 39 50 55 19 12 41
84 88 84 86 76 106 113 76 12 9 38 39 25 12 14 15
24 20 11 0 0 0 0 0 0 0 0 2 0 0 0 0
8 7 7 9 9 8 7 5 4 2 1 0 1 0 0 0
6 8 9 10 10 11 14 39 61 43 43 40 29 55 104 112
113 106 88 82 104 86 34 48 26 26 24 22 39 46 36 22
67 135 130 139 139 134 96 56 71 40 63 85 75 55 41 30
79 68 79 63 45 40 66 65 58 86 117 135 134 135 138 137
135 135 103 44 43 69 71 51 40 38 38 73 79 53 38 64
121 124 121 114 121 127 123 111 50 25 43 51 45 34 38 31
24 24 26 13 0 0 0 0 0 0 0 0 0 0 0 0
0 0 2 8 20 22 23 21 22 22 21 20 19 6 0 0
4 7 9 10 11 21 49 38 29 44 65 63 35 69 108 105
113 115 106 108 114 104 38 58 27 18 23 26 58 81 73 48
70 130 122 125 120 115 104 96 73 53 69 70 62 41 51 57
63 69 78 60 35 54 99 83 51 84 140 138 138 138 139 138
138 135 108 59 55 84 94 73 65 66 56 52 63 47 33 46
102 114 126 119 116 120 99 110 81 40 65 83 66 52 53 41
5 12 49 48 3 0 0 0 0 0 0 0 0 0 0 0
7 11 13 20 42 42 41 38 35 32 29 31 32 20 1 1
4 7 8 9 22 35 32 27 30 37 67 68 32 63 86 74
85 106 102 113 120 102 41 90 53 33 43 58 82 88 71 35
48 122 128 130 134 138 139 134 122 89 67 102 86 66 73 74
48 70 79 42 34 75 100 77 51 81 140 138 138 138 137 136
138 137 112 55 52 80 96 74 63 65 57 68 90 74 51 62
120 118 120 118 115 127 136 134 120 41 41 64 56 33 30 28
10 5 51 73 33 0 0 0 0 0 0 0 0 0 0 0
8 13 15 19 42 39 39 37 35 32 31 37 40 34 12 8
7 6 10 31 45 55 43 29 31 30 48 60 36 72 85 71
74 81 75 77 85 76 47 67 54 59 61 51 65 78 73 49
66 138 141 141 141 141 139 140 140 118 52 96 103 80 70 68
50 68 50 32 45 93 102 79 57 85 142 139 140 139 138 138
138 137 119 55 51 84 101 81 63 58 61 68 94 80 48 63
116 127 133 133 133 132 136 135 127 61 53 86 84 60 58 54
28 27 64 66 61 25 0 0 0 0 0 0 0 0 0 0
22 29 29 28 40 47 47 44 42 40 38 36 34 30 16 12
12 14 40 35 52 54 41 40 40 38 61 70 50 104 117 114
111 113 114 115 116 101 63 90 51 43 47 58 91 100 87 54
65 134 141 141 141 140 140 140 140 131 47 87 97 89 67 55
62 66 35 37 70 102 100 74 53 81 141 139 139 139 138 137
138 137 120 59 54 81 99 82 55 60 61 67 93 85 49 61
106 126 134 136 135 134 137 134 131 66 45 79 90 66 57 54
32 31 92 78 77 89 28 0 0 0 0 0 0 0 0 0
24 28 26 26 31 37 35 31 28 26 24 23 21 18 10 7
8 35 45 23 49 65 38 21 24 27 50 46 33 82 108 119
117 113 101 121 130 110 71 95 74 73 69 73 89 98 82 54
61 130 142 141 140 141 141 141 140 135 62 60 101 98 72 53
69 53 32 57 78 99 92 65 55 89 141 139 139 139 138 138
138 137 118 54 55 82 100 86 58 63 63 71 92 87 53 58
100 128 132 134 134 133 136 137 135 71 52 69 93 76 62 55
42 33 107 109 58 71 75 13 0 0 0 0 0 0 0 0
27 28 28 27 26 25 24 21 22 21 20 19 19 16 6 4
25 53 87 29 46 52 26 14 14 17 35 38 55 112 135 136
135 127 118 120 112 89 70 89 73 71 67 69 85 100 83 54
61 128 142 142 141 140 140 140 140 138 72 46 87 104 81 53
64 36 59 70 87 104 95 67 59 96 140 139 139 138 138 138
138 138 119 55 54 81 99 90 64 65 64 68 94 83 56 54
89 125 131 132 134 133 135 137 135 79 53 62 82 79 61 55
47 72 108 94 74 70 64 35 0 0 0 0 0 0 0 0
23 21 18 14 11 8 5 3 14 21 20 19 19 17 7 20
63 101 94 20 34 54 42 28 23 26 48 48 48 107 139 136
135 125 118 138 141 90 71 87 73 67 70 61 83 104 87 53
59 121 142 140 139 140 140 140 140 139 81 52 79 104 87 63
71 40 50 68 89 102 96 62 60 102 140 139 139 138 138 139
138 137 121 52 47 79 92 82 65 62 65 68 84 90 66 52
80 129 133 135 134 132 133 136 135 85 49 59 84 78 58 56
48 91 126 112 91 98 69 99 22 0 0 0 0 0 0 0
2 0 0 0 0 0 0 0 12 21 20 19 19 17 21 51
93 95 87 36 65 80 69 52 55 56 53 52 41 98 135 135
131 117 122 141 142 84 73 82 71 67 68 62 83 104 92 57
65 122 141 140 140 140 140 140 140 138 83 53 66 104 86 74
69 51 76 62 94 108 98 64 57 105 141 138 139 138 138 138
138 138 126 52 49 79 93 78 67 60 64 65 85 95 70 49
66 130 134 137 135 135 135 137 136 85 41 53 84 80 58 56
55 97 131 114 90 96 93 122 75 0 0 0 0 0 0 0
1 2 3 4 6 8 10 12 19 20 20 19 19 23 40 66
96 97 103 45 56 63 57 35 37 38 46 55 49 95 139 139
133 114 127 142 142 86 80 85 73 68 66 62 85 105 96 60
62 116 142 141 140 139 140 139 140 138 90 53 61 98 84 78
59 51 62 52 93 106 97 63 58 105 141 139 139 138 139 138
138 137 129 58 57 75 96 81 64 65 62 64 88 92 73 56
60 129 135 135 133 135 133 137 136 91 45 48 82 80 57 62
56 89 130 111 115 113 96 118 102 0 0 0 0 0 0 0
22 23 23 24 24 24 23 23 24 23 24 24 28 40 62 101
97 111 101 41 62 83 75 57 60 60 67 59 48 86 142 142
136 110 130 142 140 83 76 85 78 65 64 63 84 103 99 59
63 112 143 140 139 137 139 139 139 139 97 57 61 90 78 83
66 54 64 59 93 104 93 57 56 102 141 139 139 138 138 138
138 138 133 60 58 74 95 87 64 69 68 68 86 89 74 51
64 127 135 136 136 134 133 137 136 103 40 49 84 85 61 62
56 78 126 110 118 114 112 106 112 6 0 0 0 0 0 0
29 30 30 29 29 28 28 28 29 26 24 23 39 62 84 94
106 96 68 49 58 81 85 66 66 61 81 69 51 80 142 143
136 112 133 142 140 88 76 82 77 67 68 72 83 105 93 63
60 109 142 140 140 139 140 139 139 139 103 60 63 87 72 88
73 46 70 67 90 102 93 59 56 103 140 139 138 138 138 138
138 138 133 62 58 73 97 91 63 70 67 64 81 88 75 53
58 123 135 136 135 130 131 136 136 113 37 52 82 88 64 57
56 73 123 114 114 114 117 99 112 16 0 0 0 0 0 0
29 30 31 27 26 25 24 24 27 26 25 26 70 113 94 101
95 84 59 53 53 77 91 65 63 62 85 73 47 82 143 142
136 112 137 141 141 87 72 83 79 70 70 70 78 101 88 60
57 105 142 140 140 140 139 139 140 139 104 56 62 89 64 81
62 48 66 67 89 104 87 54 48 92 130 124 126 118 118 118
120 122 121 43 36 55 84 81 56 59 62 63 78 89 79 55
57 118 135 135 134 131 125 135 136 118 43 46 79 88 69 51
56 66 122 118 117 119 118 98 109 25 0 0 0 0 0 0
27 28 32 30 30 31 30 30 31 31 31 41 106 125 87 86
81 92 105 58 53 79 91 70 60 60 92 72 42 85 144 142
133 116 140 141 139 83 68 81 68 66 66 68 79 103 91 63
59 100 142 140 140 140 140 140 140 139 102 51 55 87 62 65
41 31 47 42 61 79 63 31 33 74 125 120 121 118 122 122
129 125 118 44 45 54 82 76 41 37 33 33 49 54 58 37
35 105 130 131 132 131 123 135 136 121 53 50 81 93 77 50
53 62 119 122 116 121 123 94 105 38 0 0 0 0 0 0
35 35 34 35 35 34 34 33 33 33 33 70 120 127 47 72
85 123 102 53 46 73 88 67 55 62 95 60 41 85 143 142
129 123 141 140 137 74 67 80 72 64 61 67 77 100 87 65
61 99 142 138 121 108 104 106 115 120 69 21 26 61 68 84
66 41 53 55 74 91 86 51 46 89 140 132 134 135 135 132
134 130 125 58 50 53 91 91 52 54 56 57 74 78 69 43
39 88 103 109 105 101 100 116 119 108 41 39 71 77 67 49
52 59 117 122 115 76 113 90 109 47 4 0 0 0 0 0
38 39 36 37 37 36 34 34 33 33 38 105 121 120 56 96
102 115 76 49 38 67 92 75 54 67 92 56 43 87 142 142
127 127 141 141 137 53 50 76 77 66 59 66 72 86 66 37
29 67 116 111 125 132 131 130 131 135 98 46 49 85 76 84
64 48 60 59 82 100 87 51 37 71 128 116 120 115 115 111
121 114 112 53 32 36 73 78 48 45 50 50 69 78 72 47
52 92 124 128 125 126 115 121 122 116 36 26 51 70 55 22
29 44 110 121 115 46 49 71 109 57 13 0 0 0 0 0
36 37 34 37 36 36 35 34 33 31 45 100 116 123 78 86
69 92 106 56 33 71 91 80 57 66 90 52 41 96 141 138
124 129 141 141 134 50 56 58 48 40 34 33 48 84 75 47
52 88 137 136 133 133 135 133 134 136 97 45 47 72 59 55
29 27 42 36 54 74 58 17 15 44 101 97 94 93 93 92
101 86 84 34 9 16 42 53 27 20 18 19 36 48 38 17
19 62 107 116 112 114 114 131 128 117 38 43 69 80 62 47
45 38 103 115 97 43 40 42 114 61 20 3 0 0 0 0
