P2
128 120
157
40 40 40 40 39 38 38 38 38 37 37 36 36 36 35 35
35 34 33 33 32 32 31 31 30 30 29 28 28 28 27 27
26 26 25 25 24 24 24 23 22 21 22 21 21 21 20 20
20 20 20 19 21 22 25 25 25 24 18 12 20 25 22 21
21 20 19 18 17 17 17 16 12 12 14 16 18 19 19 19
19 19 20 21 20 21 21 22 22 22 23 22 23 23 23 23
23 24 24 24 24 25 26 27 26 26 26 27 27 27 28 28
28 28 29 29 29 29 29 29 29 27 28 28 29 30 30 30
40 39 39 39 38 38 38 38 37 37 37 37 36 36 35 35
34 34 33 33 32 31 31 30 30 30 29 29 28 28 27 27
26 26 26 25 25 24 24 23 23 22 22 22 22 21 21 20
20 20 20 20 21 23 25 25 25 25 18 13 18 26 23 22
22 21 21 20 21 19 17 17 14 13 15 17 19 20 19 20
20 21 21 21 21 22 22 22 22 22 22 23 23 23 23 23
24 24 25 25 26 25 26 27 27 27 27 27 28 28 27 27
29 29 29 29 28 27 28 28 30 30 30 30 30 30 30 30
40 40 40 39 39 39 38 38 37 37 37 36 35 36 35 35
34 33 33 33 32 32 31 31 30 30 30 29 29 28 28 27
26 26 26 25 25 24 24 24 24 23 22 23 22 21 21 21
21 20 21 21 22 23 25 25 26 25 18 15 17 26 23 22
22 21 21 20 20 18 18 17 15 15 16 18 20 21 21 21
21 21 22 22 22 22 22 23 23 23 23 23 23 23 23 24
24 24 25 25 26 26 26 27 27 27 27 28 28 28 28 27
25 27 28 29 29 30 30 30 29 29 30 31 30 30 30 30
39 39 39 39 39 38 38 38 38 38 37 36 36 35 36 35
35 34 33 33 32 33 32 31 30 30 29 29 29 29 28 27
27 27 26 26 25 25 24 24 24 24 23 22 22 22 21 21
21 21 21 21 22 24 26 27 27 26 19 16 16 26 23 21
21 22 21 20 21 19 19 18 16 17 17 19 21 21 21 21
22 22 22 23 23 22 23 22 24 23 23 24 24 24 24 25
25 25 25 26 25 26 26 27 28 27 26 27 26 26 27 29
29 29 29 30 30 30 30 30 30 30 30 31 30 30 30 30
39 39 39 39 39 39 38 38 38 37 37 36 36 35 35 34
35 34 33 32 32 32 31 31 31 31 30 29 29 28 28 27
27 26 26 25 25 25 25 24 24 23 23 23 23 22 22 21
21 21 21 21 22 24 26 26 26 25 21 16 13 25 23 22
22 21 21 20 22 19 19 19 17 16 18 20 21 22 22 21
22 22 23 22 23 23 22 23 24 23 23 23 24 24 24 24
25 25 26 26 26 26 27 26 26 25 26 26 28 28 28 28
30 29 29 29 29 29 29 29 29 29 30 31 30 30 30 30
39 39 38 38 38 38 37 37 37 37 36 36 36 36 35 35
34 34 33 33 32 32 32 31 30 30 30 29 29 28 28 27
27 27 27 26 25 25 25 24 24 23 23 23 22 22 22 21
22 22 21 22 23 24 26 26 27 26 20 13 9 23 25 23
23 23 22 21 22 20 20 20 18 17 19 21 22 21 22 22
23 22 23 22 23 23 23 23 24 24 24 24 24 25 25 25
25 25 25 25 25 24 24 26 27 28 28 28 28 28 29 28
30 29 29 29 30 29 30 30 29 29 30 30 30 30 30 30
39 39 39 38 38 38 38 38 38 38 36 36 36 36 35 35
35 34 34 33 33 33 32 32 31 30 30 29 29 29 28 28
27 27 26 26 26 25 25 25 24 24 24 24 23 23 22 22
22 22 22 22 23 25 27 28 27 27 20 16 15 26 25 24
24 23 23 22 23 21 20 20 18 17 20 22 23 23 23 23
23 24 23 24 24 24 24 24 24 24 24 25 25 25 25 25
25 25 25 25 27 27 28 27 28 28 28 28 28 29 29 29
31 29 30 30 30 30 30 30 30 30 30 31 30 31 30 30
47 43 40 38 38 37 37 37 38 37 36 36 36 35 35 35
34 34 34 33 33 33 33 32 31 31 30 29 30 29 29 28
28 27 27 27 26 26 25 25 25 24 24 23 23 23 22 22
22 22 22 23 24 26 29 29 28 27 21 18 18 25 26 24
24 24 23 22 23 22 21 21 20 18 21 22 24 23 23 23
24 23 24 24 24 24 24 24 25 25 25 25 25 25 26 26
26 26 26 26 27 27 27 27 28 28 28 29 29 29 29 29
31 30 30 30 30 30 30 30 30 30 30 30 31 30 30 31
54 52 50 39 38 38 38 38 37 37 36 36 36 36 36 35
35 34 34 33 34 34 33 32 32 31 31 31 30 30 29 29
29 28 28 28 27 26 26 26 25 25 25 24 24 23 23 23
23 23 23 23 24 26 29 29 28 28 21 19 20 24 27 26
25 25 24 24 24 23 21 22 20 19 22 24 24 24 24 24
25 25 25 25 25 25 25 25 24 25 24 25 26 26 27 27
28 27 27 28 28 28 28 29 29 29 30 29 30 29 30 30
32 30 30 30 30 30 31 30 31 31 31 31 30 31 31 31
25 50 51 40 38 39 39 38 38 38 37 37 37 36 36 36
35 35 35 34 34 34 33 32 32 32 31 31 31 30 30 29
29 29 29 28 27 27 27 27 26 26 26 25 25 24 24 23
23 24 24 24 25 26 30 30 29 29 22 20 22 23 28 26
25 25 25 24 25 23 23 22 22 20 23 24 25 24 25 25
25 25 25 25 25 25 25 25 25 26 27 26 27 27 27 27
28 28 28 28 28 28 29 29 29 30 29 30 31 30 31 31
32 31 31 31 31 31 31 31 31 31 31 31 31 31 31 32
4 49 51 39 39 38 38 38 38 37 37 37 37 37 37 36
36 35 35 34 34 34 33 33 33 32 32 31 31 30 30 29
29 29 28 28 28 28 27 26 26 26 26 25 25 25 24 24
24 24 24 24 25 27 30 30 30 29 22 21 24 22 27 26
26 25 25 24 25 24 23 23 22 20 24 24 26 26 26 26
25 26 25 26 26 26 26 26 26 26 27 27 27 27 28 28
28 28 28 28 29 29 29 29 29 30 30 30 31 30 31 31
32 31 31 31 31 32 32 32 32 31 31 31 32 31 32 31
3 48 51 39 38 38 38 38 37 38 37 37 37 36 36 36
35 35 34 34 33 34 33 33 33 33 32 31 31 31 30 29
29 29 29 28 28 28 28 27 27 26 26 26 25 25 25 24
24 24 24 25 26 28 31 30 30 29 23 21 25 21 28 27
26 26 26 25 26 24 24 24 22 20 24 25 25 25 25 26
26 26 26 26 26 27 27 27 27 27 27 28 28 27 28 28
29 28 28 29 29 29 29 29 30 30 31 30 31 31 31 31
32 32 31 31 32 32 32 32 31 31 31 31 31 32 32 32
3 47 51 39 38 38 38 37 37 37 38 37 36 37 37 35
36 35 35 35 34 34 34 33 33 33 32 32 31 31 31 31
30 30 29 29 29 28 28 28 27 26 26 26 26 25 26 25
24 25 25 25 26 27 30 31 31 30 23 21 27 21 28 28
27 27 26 25 27 25 25 24 23 20 23 24 26 26 26 27
27 27 27 27 27 27 27 27 27 27 27 28 28 28 28 29
29 29 29 30 30 30 30 30 30 31 30 30 31 31 31 31
32 32 32 31 32 31 31 30 30 30 31 31 32 31 31 32
3 47 50 39 39 39 37 38 38 38 37 37 36 36 36 36
35 35 34 34 34 34 33 33 33 32 32 31 31 31 31 30
30 29 30 29 28 28 28 27 27 27 26 26 26 26 25 25
25 25 25 25 26 27 31 31 31 30 23 21 27 20 28 27
27 27 25 26 26 26 25 24 24 20 25 25 27 27 27 27
27 27 27 27 27 27 27 27 28 28 28 27 28 28 28 28
29 28 29 29 29 30 30 30 30 30 30 31 32 31 32 31
31 31 31 30 31 31 31 32 32 31 31 31 31 31 32 31
4 48 49 39 38 38 37 38 37 37 37 36 37 36 36 36
36 35 35 35 34 34 34 33 33 32 32 32 31 31 30 31
30 30 30 29 29 29 27 28 28 28 27 27 26 26 26 25
26 25 25 25 26 28 31 31 31 30 24 21 28 21 28 28
28 27 26 26 26 25 24 24 23 20 25 25 27 27 27 27
28 28 27 28 27 28 28 28 28 28 28 29 29 29 29 28
30 29 30 30 30 30 30 30 30 31 31 31 31 30 30 30
30 31 32 32 32 32 32 32 32 34 31 32 31 31 32 31
4 46 48 38 37 38 37 38 37 37 37 36 37 36 36 35
35 35 35 35 34 34 34 33 33 32 33 32 32 32 32 31
30 30 29 29 29 28 28 27 27 27 27 26 26 26 26 25
25 25 25 26 26 28 32 31 31 31 25 21 29 22 28 27
28 27 26 26 26 26 24 25 24 20 25 26 27 27 28 27
28 28 28 28 28 28 28 28 28 28 28 29 29 29 29 29
30 29 30 30 30 31 31 30 30 30 30 30 32 31 32 32
32 32 32 32 32 32 32 31 32 33 31 30 31 31 32 31
4 47 48 39 38 38 37 37 37 37 37 37 37 36 36 36
35 35 35 35 34 34 33 33 33 33 33 32 31 32 31 31
31 31 31 30 29 29 29 28 28 28 28 26 27 26 26 25
26 25 26 26 26 29 32 32 32 31 25 22 29 24 27 28
28 27 27 26 26 26 25 25 24 21 26 26 28 28 28 27
28 28 28 28 28 28 27 28 28 28 29 29 30 29 29 30
30 29 30 29 30 30 31 31 31 31 31 32 32 32 32 32
32 32 33 32 33 33 32 33 32 33 32 31 31 31 31 32
5 47 48 39 38 38 38 38 38 38 37 37 36 36 36 36
36 35 35 35 34 34 34 34 33 33 32 32 32 32 32 31
31 31 30 29 29 29 29 28 28 28 28 28 27 27 27 27
26 26 26 26 27 29 33 32 32 31 25 22 29 25 26 29
29 28 27 26 25 26 25 25 24 21 26 26 28 28 29 28
29 29 28 29 29 28 29 29 29 29 29 29 29 30 30 30
30 30 30 30 30 31 31 31 32 32 32 32 33 33 32 32
32 33 33 33 32 32 32 32 32 33 32 31 32 32 32 32
18 48 48 39 38 38 38 38 38 37 37 37 37 37 37 36
36 36 36 35 35 34 34 34 33 33 33 32 32 32 32 32
31 31 31 30 30 30 29 29 29 28 28 28 28 27 27 27
26 26 26 27 28 29 33 33 33 32 25 22 30 27 25 29
28 28 27 27 24 26 26 26 25 21 26 26 28 29 29 29
29 29 29 30 29 30 29 30 30 30 30 30 30 30 30 31
31 30 31 31 31 31 31 31 32 32 32 33 32 33 33 32
32 33 33 33 33 33 33 32 32 34 32 32 32 32 32 32
29 47 46 38 38 38 38 38 38 38 37 38 37 36 37 36
36 36 35 35 35 35 34 34 34 34 34 33 33 33 32 32
32 31 31 31 30 30 29 29 29 28 28 28 28 27 28 27
27 27 27 27 28 30 33 33 33 31 25 20 28 28 23 29
27 27 27 28 25 27 26 25 25 21 27 26 29 29 29 29
29 30 30 30 29 30 30 30 29 30 30 30 30 31 31 31
32 31 32 32 32 32 32 32 33 33 33 33 32 33 33 33
33 32 33 32 33 32 33 33 31 33 32 32 32 33 32 32
40 42 41 39 39 39 39 38 38 38 38 38 37 37 37 37
36 36 36 35 35 35 35 34 34 34 34 33 33 33 33 32
32 32 31 31 31 31 30 29 29 29 29 28 28 27 27 27
27 27 27 27 28 30 34 33 30 26 21 8 16 11 12 14
7 10 19 27 27 27 26 26 26 22 28 27 29 30 30 29
30 29 29 29 29 29 29 30 30 31 31 31 31 31 31 31
32 32 32 32 32 32 32 33 33 33 33 33 33 33 33 33
33 33 33 33 32 33 33 33 32 33 32 32 32 32 33 32
35 37 39 39 39 38 38 38 38 38 37 37 38 37 37 36
36 36 36 35 35 35 34 34 34 34 33 33 33 33 32 32
32 31 31 31 31 30 30 29 29 29 29 28 28 28 28 28
27 28 28 28 29 30 26 12 6 7 9 4 8 6 1 8
4 1 1 9 23 28 26 27 26 23 28 26 29 29 29 29
30 29 29 30 30 30 30 30 31 31 31 30 31 30 31 31
32 32 32 32 32 33 33 33 33 33 33 33 33 33 33 33
32 33 33 33 33 33 33 33 33 33 33 33 33 33 33 32
19 23 28 33 36 38 39 39 39 38 38 38 38 37 37 37
36 36 36 36 36 35 35 35 35 35 34 34 34 33 33 32
32 32 32 31 30 31 30 30 29 29 29 29 28 29 28 28
28 27 29 29 29 16 1 3 3 5 9 17 10 9 4 9
2 1 1 1 1 10 25 27 27 23 28 26 30 30 30 30
31 31 30 30 30 30 32 31 32 32 32 31 32 31 32 31
33 33 33 32 33 33 33 33 33 34 33 34 34 34 34 34
33 33 34 33 33 33 33 33 33 34 33 32 32 31 31 31
15 16 15 16 18 21 24 29 33 36 37 38 37 38 37 36
36 36 36 36 35 36 36 35 34 35 34 34 34 34 33 33
32 32 32 32 32 31 31 30 30 29 29 29 29 29 29 29
28 28 28 28 15 2 5 7 3 6 8 17 23 9 3 5
1 0 1 2 1 0 2 17 27 24 28 27 31 31 30 30
31 31 31 31 31 31 32 32 32 33 32 32 32 32 32 32
32 33 33 33 34 33 34 34 33 34 34 34 34 34 34 34
34 33 33 34 34 34 33 32 32 31 30 31 32 33 33 31
16 15 14 15 16 15 16 16 17 17 20 25 34 37 37 37
36 36 36 36 36 36 35 35 35 35 34 34 34 34 34 33
33 32 32 32 32 31 31 31 30 30 30 30 29 29 29 29
28 28 28 14 3 4 3 3 2 5 11 16 22 8 3 2
1 1 1 0 0 2 0 0 13 26 29 29 31 31 31 31
31 31 31 31 31 32 32 32 33 34 32 32 33 32 32 33
33 33 33 34 33 34 34 34 34 34 34 34 34 34 34 35
34 33 33 31 31 31 32 33 33 33 33 33 33 33 33 32
36 20 20 17 16 15 16 16 16 9 7 14 32 38 38 38
38 37 37 37 36 36 36 36 35 35 35 34 35 34 34 34
33 33 32 32 32 32 32 32 32 31 30 30 30 30 29 30
30 29 20 3 0 0 1 3 2 7 12 14 23 10 6 4
3 1 2 3 4 3 0 2 0 11 30 29 32 32 31 32
32 32 32 32 32 32 33 33 33 34 33 33 33 33 33 34
34 34 34 34 35 35 36 35 35 35 35 34 34 34 34 34
33 34 34 34 35 34 35 34 33 33 33 33 33 33 33 33
48 27 32 33 31 22 18 16 16 14 13 16 32 38 38 38
38 37 36 35 36 36 37 36 36 36 35 35 35 34 34 34
34 33 33 32 32 33 33 32 31 30 31 30 30 30 30 29
29 19 1 0 0 0 1 7 6 9 14 16 23 15 10 10
9 7 10 10 8 6 3 0 0 1 23 29 31 31 32 32
32 32 33 32 33 32 33 33 33 34 33 33 34 34 33 34
34 34 35 34 34 34 34 34 34 33 34 34 33 34 34 34
34 35 33 34 33 33 34 33 33 33 32 32 33 33 33 33
50 34 38 43 45 38 42 40 33 21 12 15 30 38 38 38
38 37 36 41 41 39 38 37 36 35 35 35 35 34 34 34
33 33 33 32 38 44 41 37 35 33 31 30 30 30 30 29
18 3 0 0 0 1 1 4 17 14 20 21 24 21 15 14
14 14 19 25 22 20 13 6 0 0 4 27 32 32 32 31
33 33 33 33 33 33 34 33 34 34 34 34 34 34 34 34
34 34 34 34 34 35 34 33 34 33 34 34 34 34 33 33
34 34 34 33 34 34 34 34 33 34 34 32 33 33 33 32
50 38 41 44 46 42 49 50 49 36 14 17 32 38 37 37
37 36 40 48 46 45 43 40 38 37 35 35 35 35 34 33
33 33 33 33 41 46 43 40 40 39 35 30 30 30 30 20
2 0 2 4 8 11 12 14 18 26 27 27 31 31 21 24
22 24 26 22 20 18 14 8 2 0 0 14 32 32 32 32
32 33 33 32 32 33 33 34 33 34 33 33 33 33 33 34
35 34 33 34 34 34 34 34 33 33 33 33 33 34 34 33
33 34 34 33 33 33 32 33 33 32 33 32 31 32 32 33
43 40 43 45 47 48 51 51 51 40 14 18 33 39 39 38
37 37 40 49 47 46 42 42 42 44 41 38 37 35 34 33
33 33 33 33 40 43 41 40 40 40 38 31 30 30 27 7
2 6 11 18 25 29 27 29 26 29 33 29 36 38 36 40
38 39 35 34 32 28 20 19 10 2 0 0 22 31 32 32
32 33 33 32 33 33 33 32 33 33 33 32 33 33 33 33
34 34 33 34 33 34 34 33 34 33 33 33 33 33 33 33
33 33 34 32 33 33 33 32 33 32 32 32 32 32 31 32
41 39 42 44 45 47 49 50 51 42 15 17 36 42 39 40
38 37 38 45 45 45 44 44 46 47 43 40 42 42 39 36
35 34 34 33 35 27 28 31 36 39 38 32 30 30 13 3
4 11 32 48 51 54 49 46 42 37 33 33 41 46 56 61
54 52 55 71 74 61 47 31 20 10 1 0 2 27 32 32
32 32 32 32 32 32 32 31 32 32 32 33 33 32 32 33
33 34 33 33 33 33 33 33 33 32 32 32 32 33 32 33
33 32 33 32 32 32 32 32 31 31 31 31 31 31 30 31
41 30 26 34 39 46 48 48 47 41 15 16 35 43 36 38
40 41 43 24 10 22 35 42 44 46 42 18 16 26 33 37
36 39 39 36 34 18 11 12 13 15 22 32 30 23 4 4
16 42 72 84 88 88 87 81 68 60 59 55 63 67 81 83
76 82 91 99 97 86 71 61 42 27 13 1 0 7 32 31
31 31 31 31 31 31 32 31 32 32 32 32 32 32 32 32
33 34 32 33 33 32 32 33 33 32 32 33 32 33 32 32
32 32 33 32 32 32 32 31 31 32 32 31 31 30 30 31
42 18 0 5 8 18 28 31 37 41 17 17 34 43 37 35
35 44 48 21 0 0 12 19 20 25 39 8 0 0 2 7
14 22 30 34 34 17 4 7 8 2 7 33 29 11 2 18
37 69 87 95 101 108 112 111 108 101 100 94 94 97 106 108
106 104 105 105 103 94 79 74 64 49 28 13 0 0 24 32
31 32 33 32 32 32 32 31 32 32 32 32 32 32 33 32
32 34 32 33 33 32 32 33 32 33 33 32 33 32 32 32
32 32 32 33 31 31 31 31 31 31 32 31 32 31 31 32
41 17 0 0 0 0 0 1 7 41 18 16 17 25 33 40
42 47 49 23 0 0 6 10 13 14 36 8 0 0 0 0
0 0 1 12 35 16 0 1 3 2 6 34 21 2 8 25
56 82 93 98 103 112 116 119 119 120 120 116 116 120 120 120
117 112 111 109 107 99 90 80 71 60 46 25 7 0 10 31
32 33 33 32 32 32 32 32 32 33 33 33 32 32 32 32
32 34 33 33 33 33 33 32 32 33 33 33 32 32 33 32
32 33 34 33 32 31 31 32 31 32 31 31 32 32 32 32
43 15 0 0 0 0 0 0 5 40 17 15 2 0 1 7
16 27 37 24 0 0 3 3 7 9 35 12 0 0 0 0
0 0 0 7 36 10 0 0 1 0 6 33 10 2 19 36
67 88 94 97 106 114 120 122 124 125 124 125 127 127 126 124
122 117 115 113 111 103 94 81 78 69 56 37 15 0 0 25
32 33 33 33 33 33 32 33 32 32 33 32 33 33 33 33
33 34 34 34 33 33 33 34 34 34 33 33 33 33 33 32
33 33 33 33 32 32 32 32 32 32 32 33 33 33 32 32
43 15 1 0 7 5 0 0 5 42 18 15 2 0 0 0
0 0 3 19 0 0 0 0 0 7 32 9 0 0 0 0
0 0 0 6 34 5 0 0 0 0 7 30 1 1 15 44
75 92 95 99 107 118 122 126 128 127 129 132 132 132 131 131
126 123 121 116 112 103 94 84 84 76 62 46 27 4 0 13
33 34 34 33 33 33 33 32 33 33 33 33 33 33 34 34
33 35 33 34 34 34 34 34 34 34 34 34 33 33 33 34
33 34 33 32 34 33 33 33 32 33 32 32 34 33 33 32
43 15 1 1 5 15 1 0 5 41 17 15 2 0 0 0
0 0 0 16 0 0 0 0 0 6 36 10 0 0 0 7
8 0 0 5 35 5 0 0 0 0 6 15 0 6 27 48
76 94 97 104 110 118 124 130 132 132 133 134 134 133 132 132
129 127 126 121 113 107 98 92 87 78 66 50 33 12 0 5
33 34 33 33 33 33 33 33 33 33 33 33 33 33 33 33
33 35 33 34 34 34 34 34 35 35 34 34 33 33 34 33
33 32 34 33 34 34 34 34 33 33 33 33 33 33 33 32
42 14 1 1 1 13 1 0 5 40 17 16 2 0 0 0
0 0 0 14 0 0 0 0 0 6 39 12 0 0 0 10
14 9 3 4 35 4 0 0 0 0 2 2 0 11 32 52
78 96 101 108 114 118 127 134 136 135 136 136 134 134 135 134
130 126 126 124 117 109 99 96 91 79 68 50 31 19 2 0
31 34 34 33 33 34 34 34 33 33 33 33 34 34 34 35
34 35 35 35 35 35 35 35 35 34 34 34 34 34 33 34
34 34 35 34 34 33 34 33 33 31 33 33 34 33 34 33
42 12 0 0 0 0 0 0 6 41 17 15 2 0 0 5
7 0 0 12 0 0 0 0 0 4 37 14 0 0 1 12
14 14 11 3 35 5 0 0 0 0 0 0 0 9 35 52
78 97 104 109 116 120 128 134 137 137 136 137 136 135 133 134
130 127 129 124 117 111 103 99 94 82 68 49 31 18 5 0
21 34 34 34 33 34 33 33 33 34 34 34 34 34 35 35
35 35 35 34 35 35 35 35 35 34 34 35 34 33 33 34
33 34 34 34 33 34 33 33 33 32 33 34 34 33 34 34
41 11 0 4 1 0 0 0 6 40 17 16 2 5 6 3
3 0 0 13 0 0 0 0 0 8 37 17 0 0 1 10
13 14 11 2 34 10 0 0 0 0 0 0 0 12 37 56
79 96 108 113 117 122 129 134 136 138 137 137 136 137 133 132
129 126 127 124 120 111 103 100 96 85 72 50 33 18 7 0
11 35 35 34 33 34 34 34 33 34 35 34 35 34 34 35
34 34 35 35 35 35 34 35 35 36 35 35 35 34 34 34
34 34 34 34 33 34 34 33 33 33 33 35 35 35 34 34
43 17 2 2 2 1 0 0 7 40 18 16 3 8 1 1
2 0 0 14 0 0 0 0 0 14 38 21 1 1 1 0
6 11 10 2 35 36 27 18 11 8 1 0 0 14 35 59
79 97 108 113 120 123 127 134 137 138 136 135 133 136 131 132
132 128 127 125 119 112 105 102 97 87 74 53 33 14 6 0
3 33 34 34 34 34 34 34 35 34 34 35 35 35 35 35
35 35 35 34 35 35 35 35 35 36 35 34 35 34 34 34
35 34 34 34 34 34 34 34 33 33 34 35 32 32 32 31
47 53 37 25 33 30 28 23 26 37 17 16 5 2 0 0
0 0 0 27 18 10 9 4 0 4 40 42 30 26 21 12
5 5 6 2 35 45 42 41 40 36 1 0 0 13 36 63
87 96 107 114 120 123 129 134 138 138 139 134 135 138 138 136
134 132 131 129 122 112 104 103 98 89 74 58 36 12 4 0
0 27 33 35 34 34 34 34 35 35 34 35 35 35 35 35
35 34 35 35 36 35 36 36 36 35 35 34 35 35 34 34
34 33 32 32 32 33 33 31 32 31 32 30 27 23 20 17
61 62 38 33 44 48 48 47 46 36 17 16 4 0 0 0
0 0 1 39 52 41 38 37 32 25 47 39 22 26 29 30
30 28 28 28 45 44 42 42 43 37 0 0 0 14 36 65
91 98 108 113 120 123 127 135 139 141 139 136 137 139 140 139
138 136 130 129 122 115 108 104 99 94 77 60 40 11 1 0
0 20 34 35 35 34 35 34 34 35 35 35 35 35 35 35
35 35 35 35 35 35 36 36 35 35 35 34 34 32 31 31
33 32 32 31 29 28 25 23 20 17 15 13 12 11 11 12
61 57 33 35 44 48 48 52 51 39 17 16 4 0 0 0
0 0 1 40 53 42 49 51 54 50 49 33 14 15 15 15
16 18 20 24 30 26 29 34 38 25 0 0 0 14 40 71
93 101 109 117 123 124 127 135 141 142 141 140 140 140 141 140
139 138 132 124 121 116 109 105 100 97 81 59 47 19 0 0
0 15 34 35 34 34 34 34 34 35 35 34 34 35 35 35
35 35 34 35 36 35 35 35 35 35 35 33 34 34 30 27
25 22 20 17 15 14 14 14 14 15 15 16 17 18 18 19
57 43 20 28 40 43 46 49 50 40 17 17 24 23 15 8
3 1 1 39 43 43 50 52 56 51 42 32 17 15 14 14
13 11 11 10 9 10 12 14 25 16 0 0 0 10 39 72
87 103 112 120 123 125 128 134 139 141 141 141 141 140 141 140
139 133 122 115 115 113 106 97 84 80 64 43 35 20 1 0
0 8 32 33 35 34 34 33 34 35 35 35 34 35 35 35
35 36 36 36 36 35 34 31 29 27 24 21 22 33 24 13
14 15 17 17 17 18 19 20 20 21 22 23 24 24 24 25
56 38 1 0 3 4 7 11 23 39 18 18 35 50 49 45
40 34 30 45 35 42 49 51 54 52 45 36 20 17 14 12
12 12 11 11 10 11 11 12 25 14 0 0 0 8 42 76
90 105 111 116 119 122 124 130 134 136 135 138 137 139 140 137
129 115 96 72 68 63 63 57 48 43 41 37 19 1 1 0
0 2 29 32 34 34 34 33 33 33 35 35 35 35 35 36
34 33 31 28 25 22 20 18 17 17 18 18 17 28 23 14
19 21 22 23 24 25 26 26 26 27 27 27 28 28 29 29
56 39 1 0 0 0 0 0 10 38 18 18 36 51 51 49
49 50 51 48 18 19 28 34 41 43 41 39 20 15 12 8
8 8 11 12 12 12 14 15 28 14 0 0 0 8 43 73
78 83 81 78 81 83 87 90 102 113 121 125 128 131 130 124
110 66 41 37 38 50 97 93 28 9 2 2 5 1 3 0
0 0 23 30 31 30 34 34 34 34 33 32 30 27 25 23
21 19 19 19 19 20 21 21 22 23 23 24 23 28 25 19
25 27 28 28 29 29 30 30 30 30 30 29 30 30 31 31
55 35 0 0 0 0 2 3 12 37 19 17 32 49 50 50
51 51 52 46 7 0 1 3 8 16 24 40 19 14 8 0
0 0 7 12 10 6 13 15 27 17 0 0 0 3 21 49
66 71 72 117 103 44 35 32 31 37 63 91 116 120 120 112
71 40 28 15 10 47 139 131 24 5 0 0 0 5 9 0
0 0 13 30 28 21 28 27 25 23 22 21 21 20 21 21
23 23 24 25 26 26 27 29 28 28 30 29 27 29 26 23
29 30 31 31 31 32 32 32 33 33 34 33 32 33 32 32
50 31 0 0 0 0 22 27 26 33 29 24 30 37 38 40
42 43 49 43 4 0 0 0 0 5 22 41 18 13 10 0
0 0 1 1 1 0 2 5 23 17 0 0 0 0 9 26
14 8 40 135 115 15 6 1 3 11 28 38 75 114 108 85
39 34 10 0 5 35 75 67 26 5 0 0 1 22 32 0
0 0 7 21 22 17 20 21 22 22 24 24 25 26 27 28
29 29 29 30 31 32 32 32 32 33 33 31 28 13 11 21
32 33 33 33 33 32 33 34 34 34 33 33 34 34 33 33
49 28 0 0 0 0 21 27 26 27 26 22 25 24 27 33
33 34 45 41 3 0 0 0 1 0 16 41 16 10 4 0
0 7 3 0 0 0 0 0 21 19 0 0 0 0 5 6
1 4 26 63 57 24 11 4 3 8 15 14 33 65 67 32
23 26 10 1 8 20 51 36 14 4 0 0 0 25 43 5
0 4 25 21 23 24 25 27 27 29 30 30 32 32 33 33
34 34 34 34 35 34 35 35 35 34 33 33 26 5 2 16
32 35 36 35 35 34 35 34 34 35 35 34 34 34 33 33
49 27 0 0 0 0 8 15 20 27 24 22 25 25 25 31
32 34 44 40 2 0 0 0 0 0 14 39 5 1 0 0
0 9 10 3 0 0 0 0 20 28 0 0 0 9 34 3
0 1 13 19 33 27 16 0 0 3 5 6 24 20 23 18
21 10 5 0 1 7 15 14 7 0 0 0 1 23 49 14
8 30 40 27 29 30 30 32 33 33 33 33 34 34 35 34
35 35 35 35 36 36 36 35 27 21 14 19 25 9 5 14
32 34 35 35 35 35 35 34 34 34 35 34 34 34 33 34
50 25 0 0 0 0 0 0 3 22 18 20 20 15 22 29
33 39 44 39 3 0 0 0 0 0 16 37 1 0 0 0
0 3 15 11 4 0 0 0 19 37 15 13 0 17 48 3
0 0 6 14 15 16 6 0 0 0 0 1 21 21 42 21
18 1 0 0 0 0 1 1 0 0 0 0 2 22 51 26
25 40 52 32 33 34 34 35 35 34 35 35 35 36 37 36
36 36 37 37 36 36 37 33 7 3 7 17 24 2 0 13
32 35 35 35 35 35 35 35 34 34 34 34 34 34 33 33
50 24 0 0 3 1 0 0 3 28 23 24 14 0 0 1
4 8 12 26 3 0 0 0 0 0 18 37 1 0 0 0
2 9 15 14 13 1 0 0 18 41 45 25 0 19 54 4
0 0 1 2 2 3 0 0 0 0 0 1 22 96 128 80
21 0 0 0 0 0 0 0 0 0 0 0 4 26 54 36
34 48 56 33 33 35 36 35 36 35 36 36 37 36 36 37
37 36 38 37 36 37 37 36 29 30 32 33 27 3 0 12
31 34 34 35 34 35 35 34 34 35 34 34 33 34 33 33
51 24 0 0 1 7 0 0 4 35 29 27 17 0 0 0
0 0 0 15 3 0 0 1 0 0 16 33 0 0 0 0
6 19 22 14 11 0 0 2 18 42 57 50 5 27 61 5
1 0 0 0 0 0 0 0 0 0 0 3 34 117 130 110
30 3 0 0 0 0 0 0 0 0 0 0 2 29 56 41
54 62 60 32 34 36 36 37 36 36 36 37 37 37 37 37
38 38 38 37 37 37 38 36 36 35 34 33 28 8 0 14
31 35 35 35 34 34 34 34 34 34 34 34 34 33 32 33
46 27 0 0 0 10 1 0 3 37 30 26 17 0 0 0
0 0 0 14 2 0 3 13 5 0 16 31 0 0 0 0
2 9 20 5 1 0 0 1 15 41 67 67 24 38 73 7
2 0 0 0 0 0 0 0 0 0 0 6 57 119 120 106
51 10 0 0 0 0 0 0 0 0 2 1 4 39 55 43
56 70 64 32 36 36 36 36 36 36 36 36 37 36 36 36
37 38 38 37 38 37 37 37 36 36 34 33 30 13 0 20
32 35 35 36 35 35 34 34 34 34 34 33 34 34 33 33
38 34 15 6 3 14 11 5 2 38 28 26 17 0 0 7
7 0 0 13 3 0 12 19 10 0 16 29 0 0 0 0
0 0 15 2 0 0 0 0 11 39 69 82 47 46 80 15
3 0 0 0 0 0 0 0 0 0 1 15 82 113 115 103
72 19 1 0 0 0 0 0 0 1 11 4 12 50 54 44
52 73 57 34 35 36 36 36 37 36 37 37 36 37 37 37
37 37 37 37 37 36 37 36 35 35 34 32 28 22 15 26
34 35 36 36 35 34 34 34 35 34 34 34 34 33 33 33
40 38 38 38 31 36 37 32 29 43 30 23 17 0 3 17
16 5 0 13 11 5 18 18 16 4 16 29 0 1 0 0
0 0 16 5 0 0 0 0 6 39 65 88 73 57 81 37
1 0 0 0 0 0 0 0 0 0 7 33 99 107 110 99
82 42 10 0 0 0 0 0 0 2 0 6 30 60 52 44
52 73 49 33 36 35 35 34 36 36 37 36 37 37 36 37
37 38 37 37 36 37 36 36 36 35 34 32 28 27 27 31
35 35 36 35 35 35 34 34 35 34 34 34 34 34 33 33
41 37 18 12 17 26 35 42 48 48 36 22 17 0 3 15
12 5 0 16 40 37 41 38 37 33 38 31 0 0 0 0
0 0 16 7 0 0 0 0 3 34 48 92 83 61 79 68
3 0 0 0 0 0 0 0 0 0 15 66 100 106 110 102
85 55 27 7 0 0 0 0 1 2 3 22 54 58 50 43
49 67 46 32 34 35 34 34 36 36 37 37 37 36 36 36
36 37 37 36 36 37 37 36 35 35 34 33 30 29 31 34
35 35 35 36 34 34 35 35 35 34 34 34 34 33 34 33
43 37 11 0 0 5 7 18 47 47 33 21 19 1 0 4
1 0 0 16 44 44 48 46 48 52 55 39 11 12 8 2
1 3 19 10 3 3 2 0 3 27 35 87 90 65 77 86
42 6 0 0 0 0 0 0 0 11 44 80 99 110 116 108
90 61 48 54 21 11 12 12 13 15 28 55 61 58 49 42
51 59 42 32 34 35 34 31 35 36 36 35 36 36 36 36
36 37 37 37 37 37 37 36 35 35 35 33 32 31 33 36
36 35 35 35 35 35 36 36 34 34 34 33 34 33 33 33
43 37 7 0 3 25 19 22 46 44 29 23 24 16 1 2
0 0 0 14 44 44 47 45 48 55 57 49 34 33 32 27
25 25 28 22 18 15 15 13 15 26 27 74 94 65 75 85
87 47 16 6 17 7 2 11 24 63 89 78 103 119 126 117
102 74 54 85 113 89 70 65 62 67 75 76 73 63 48 41
50 62 36 30 31 33 34 35 35 36 36 36 36 37 36 36
36 36 37 36 36 36 36 36 35 35 35 34 33 34 34 34
34 34 34 33 34 34 34 34 33 33 34 33 34 33 33 33
46 39 6 0 1 19 30 31 45 39 24 24 24 13 0 1
0 0 0 13 40 38 41 41 43 44 43 42 38 39 39 37
35 37 36 34 32 29 26 25 25 30 28 56 88 62 72 83
91 91 70 43 33 38 52 73 108 120 89 91 104 118 133 118
96 88 83 74 115 124 119 114 107 101 96 90 82 65 47 41
47 62 42 31 32 30 31 33 35 35 36 36 36 36 36 36
36 36 37 37 37 36 36 35 34 35 35 34 33 34 34 34
34 34 34 35 34 34 34 34 33 33 33 32 33 33 33 32
48 40 7 0 0 3 12 29 46 37 22 26 24 6 0 0
0 0 0 14 43 37 38 38 38 37 33 36 39 40 42 40
39 38 37 37 37 41 39 35 31 28 27 49 86 65 72 84
97 102 101 103 111 117 124 129 129 113 97 102 95 99 111 98
72 66 76 77 96 130 128 116 109 105 98 90 82 65 45 40
50 60 48 31 31 33 33 33 34 35 36 36 35 35 35 35
36 36 35 35 35 35 35 35 34 34 34 34 34 35 35 35
34 35 35 35 34 34 33 34 33 33 33 32 33 31 32 31
49 42 7 0 0 0 0 24 46 36 23 23 24 23 18 14
12 9 6 18 45 38 37 37 37 37 38 41 41 42 45 49
47 40 36 37 39 48 47 44 42 41 30 34 90 71 73 84
98 103 106 111 118 123 130 133 127 107 95 66 37 65 94 81
39 40 75 79 100 129 128 121 112 107 101 91 81 64 45 40
50 61 42 32 33 33 34 32 33 34 35 35 35 35 35 35
36 36 36 35 36 36 36 35 35 35 34 35 35 35 35 35
34 34 34 34 31 24 29 34 33 32 33 32 32 32 31 30
48 42 6 0 0 0 0 19 47 36 22 23 26 43 47 45
43 46 47 46 49 40 39 40 40 41 44 47 45 43 46 51
50 40 36 34 40 49 47 44 43 43 35 49 97 73 73 81
96 102 108 114 118 125 130 132 128 115 92 87 97 96 80 76
84 82 76 98 121 129 126 117 113 107 101 90 77 61 45 40
31 34 28 33 35 35 35 35 34 35 36 35 35 35 34 35
35 36 37 35 35 36 35 35 35 35 34 35 35 35 36 35
34 34 34 30 20 27 20 34 33 32 32 31 31 31 31 31
48 40 4 0 0 0 0 20 47 38 20 24 27 50 55 54
54 54 55 54 52 40 35 36 35 37 44 49 47 44 45 44
43 42 38 34 34 41 38 37 40 42 38 60 95 74 69 78
95 100 104 114 120 126 130 131 129 126 117 101 103 112 105 103
108 84 98 113 120 125 124 117 111 107 102 90 74 57 46 39
19 15 25 31 35 35 36 36 34 36 35 36 35 35 35 35
35 36 35 36 36 35 35 34 35 34 35 35 34 35 35 34
34 34 34 21 31 29 23 34 33 33 32 31 31 30 30 30
48 39 3 0 0 0 0 17 46 36 18 24 25 39 43 44
46 48 49 51 49 18 14 10 8 11 18 33 48 43 30 18
23 25 23 30 35 26 9 5 9 16 21 40 85 77 68 76
89 100 106 114 120 126 131 130 126 122 117 108 102 118 117 118
116 94 95 108 113 119 122 118 112 107 95 87 73 55 47 37
21 27 30 32 34 35 35 36 35 36 36 36 35 35 34 34
35 35 35 36 35 35 33 33 32 30 30 32 35 36 34 34
35 35 33 21 34 22 30 34 32 31 31 31 31 29 23 22
48 39 3 0 0 0 0 14 41 32 17 24 21 26 27 27
28 28 30 31 34 9 0 0 0 0 0 18 47 37 9 0
1 4 10 26 38 25 2 0 0 3 14 30 32 38 67 77
83 99 106 115 120 128 132 128 123 118 112 102 105 109 110 111
113 104 97 101 107 112 117 117 113 107 102 87 70 54 48 36
27 31 32 34 34 36 36 36 35 36 35 34 33 32 32 32
33 35 36 36 33 20 16 14 13 10 11 21 36 36 35 34
35 35 33 22 34 20 29 26 23 29 31 28 28 11 0 0
48 40 3 0 0 0 0 14 43 35 17 22 21 31 33 33
33 32 32 32 33 13 3 0 0 0 4 24 47 26 1 0
0 0 3 28 38 27 1 0 0 1 13 27 7 9 60 78
79 97 107 117 122 126 128 122 116 110 106 102 101 103 101 98
100 98 98 97 104 110 109 110 110 108 100 83 67 56 48 35
32 31 30 34 34 37 34 27 25 22 19 17 14 11 10 12
23 36 35 36 33 12 7 7 7 7 7 19 36 36 36 36
35 35 34 15 11 3 13 4 2 5 6 3 1 0 0 0
44 35 3 0 0 0 0 15 46 36 15 22 22 34 36 36
36 37 37 38 36 13 4 0 0 0 5 24 44 16 0 0
0 0 0 25 38 27 1 0 0 0 10 27 6 8 51 77
79 92 104 114 121 125 122 117 118 110 96 92 99 101 95 90
92 88 75 77 92 110 108 106 109 106 96 78 67 57 48 35
32 32 31 35 36 37 27 11 6 9 9 9 4 4 4 3
14 34 36 36 33 12 6 6 8 7 7 19 36 37 37 37
35 20 13 1 0 0 3 0 0 0 0 0 0 0 0 0
35 27 17 13 10 9 9 21 42 33 19 24 25 35 37 37
37 37 38 39 38 12 2 0 0 2 6 14 42 12 0 0
0 0 0 25 37 26 1 0 0 0 6 28 8 4 37 74
80 87 101 113 120 123 117 115 118 94 76 70 78 79 71 72
74 67 57 52 58 95 113 110 111 106 90 74 67 56 47 35
35 34 31 35 37 37 28 7 4 9 7 9 4 4 4 3
12 34 36 36 32 12 7 7 8 7 7 18 36 37 37 37
36 7 0 0 0 0 0 0 0 0 0 0 0 0 0 0
40 38 38 37 34 34 32 32 34 31 30 30 29 31 31 31
31 31 32 33 37 15 0 0 0 3 6 9 41 10 0 0
0 0 0 25 38 25 1 0 0 0 0 26 10 4 26 71
82 85 95 108 118 121 118 119 100 64 67 86 96 101 99 105
105 97 82 69 68 89 111 114 112 104 85 71 65 54 45 33
33 34 34 37 37 37 28 7 4 9 9 10 5 3 4 3
12 34 36 36 33 12 7 7 8 7 7 14 36 38 37 36
36 14 2 13 14 16 19 21 23 19 1 0 2 10 0 1
38 37 37 35 35 34 32 31 31 30 29 28 28 28 27 27
27 27 27 27 31 23 4 0 0 4 5 7 39 9 0 0
0 0 0 22 39 26 4 0 0 0 0 26 13 3 15 63
80 86 90 102 117 121 121 115 92 80 85 91 94 101 100 101
98 87 77 82 93 104 112 111 111 101 80 69 60 52 41 33
36 35 35 36 36 36 28 7 4 8 9 10 4 3 3 3
12 34 36 36 34 16 10 10 11 12 12 14 32 35 36 35
35 18 16 34 33 32 32 32 31 12 0 0 0 4 20 22
37 36 37 35 33 33 32 30 29 28 28 27 27 27 27 26
26 26 26 26 29 19 1 0 0 1 5 8 39 9 0 0
0 0 0 16 39 27 4 0 0 0 0 24 17 0 6 50
76 85 90 97 114 122 122 116 109 109 104 97 84 76 73 75
74 81 97 106 105 108 109 105 105 96 75 65 58 49 37 35
36 35 36 36 37 36 29 8 4 8 8 9 5 3 4 3
11 34 36 36 35 21 15 14 14 14 14 17 31 36 37 37
36 19 26 35 34 33 32 32 31 9 0 0 0 0 23 22
22 22 21 19 18 17 16 15 14 14 14 13 14 14 14 14
15 17 21 24 27 11 0 0 0 0 0 6 39 11 0 0
0 0 0 13 40 26 1 0 0 0 0 22 23 0 1 31
71 82 89 91 106 119 119 116 115 114 116 114 108 105 103 105
107 110 112 113 109 106 102 99 98 90 68 60 52 44 32 35
35 35 35 36 35 35 29 8 4 5 5 5 4 3 4 2
9 32 36 37 35 18 9 9 9 9 8 11 30 36 36 35
31 12 33 34 34 32 32 31 29 8 0 0 0 0 17 22
0 0 0 0 0 0 0 0 0 0 0 0 0 0 0 0
0 4 18 23 24 8 0 0 0 0 1 3 38 15 0 0
0 0 0 12 41 29 11 6 5 6 8 26 26 0 0 13
63 79 86 85 82 114 113 112 114 116 120 121 120 120 121 121
119 121 119 117 109 103 99 93 91 77 60 55 47 37 33 35
35 36 36 37 37 36 30 8 4 3 1 2 4 4 5 2
8 32 35 37 35 18 8 7 8 8 8 10 20 14 15 17
12 27 35 33 34 32 31 30 28 4 0 0 0 0 12 22
0 0 0 0 0 0 0 0 0 0 0 0 0 0 0 0
0 5 23 24 24 14 7 6 5 9 17 13 36 34 24 23
26 26 26 32 46 34 37 38 38 40 44 48 37 17 16 19
52 71 81 84 88 105 107 105 107 114 119 124 126 126 128 126
122 120 120 115 109 102 96 87 82 65 55 52 40 33 35 35
36 36 36 38 36 36 29 9 4 3 0 2 5 3 4 3
8 31 36 37 35 20 7 8 8 8 7 7 12 32 31 28
32 35 34 33 33 31 29 27 24 4 0 0 0 0 10 21
0 0 0 0 0 0 0 0 0 0 0 0 0 0 0 0
0 3 23 24 24 29 34 30 30 34 35 34 36 45 52 48
48 50 52 53 52 35 39 43 45 49 54 56 47 35 33 34
45 61 74 80 84 96 101 103 107 111 120 127 129 128 134 134
130 120 117 111 105 98 89 80 73 57 51 44 36 34 37 35
36 37 37 38 37 35 28 9 4 3 3 6 6 3 4 3
6 30 35 36 34 20 7 7 7 7 7 4 20 37 36 35
35 34 34 34 31 8 5 2 2 0 0 0 0 0 8 19
0 0 0 0 0 0 0 0 0 0 0 0 0 0 0 0
0 2 23 24 23 30 36 32 35 37 34 29 28 37 50 49
49 47 50 51 50 38 32 38 41 46 49 48 44 33 33 33
42 51 65 76 79 86 96 101 105 110 117 125 126 130 130 127
132 124 115 109 101 93 83 73 63 53 47 39 33 40 37 34
35 36 37 38 36 34 29 11 4 3 0 0 3 3 5 3
6 29 34 36 34 20 7 7 7 7 6 4 20 36 36 35
35 34 33 33 26 0 0 0 0 0 0 0 0 0 7 19
0 0 0 0 0 0 0 0 0 0 0 0 0 0 0 0
0 1 23 24 22 26 28 27 30 34 35 29 27 30 30 32
32 32 32 31 34 32 29 32 35 35 32 29 32 34 35 35
42 51 55 68 74 75 88 97 103 108 113 119 125 133 122 110
124 127 113 105 95 88 71 62 55 49 41 37 36 47 39 34
35 37 37 38 36 33 29 11 4 3 0 0 3 4 5 3
6 29 34 36 35 20 6 6 6 6 7 4 18 36 36 34
34 34 34 33 28 0 0 0 0 0 0 0 0 0 7 19
0 0 0 0 0 0 0 0 0 0 0 0 0 0 0 0
0 0 21 24 22 19 18 22 24 29 32 28 28 30 24 24
25 27 27 28 31 33 35 37 39 38 35 31 31 34 35 35
41 59 49 59 71 72 71 81 94 102 108 111 122 127 115 107
120 123 110 98 92 74 56 52 50 44 39 35 44 53 37 33
35 36 37 38 36 33 30 12 4 4 4 3 3 3 5 2
5 27 33 35 34 21 5 6 7 6 6 3 14 35 35 35
34 34 34 32 30 9 0 0 0 0 0 0 0 0 6 18
0 0 0 0 0 0 0 0 0 0 0 0 0 0 0 0
0 0 19 25 21 17 4 4 6 8 11 12 19 31 29 33
32 39 41 37 36 38 39 42 46 45 39 33 32 34 35 35
38 65 54 51 62 69 69 68 76 90 101 105 117 120 112 109
117 116 105 94 84 60 48 51 45 41 36 38 54 55 38 30
35 36 37 38 36 33 31 12 4 3 3 3 3 2 4 2
3 25 31 34 32 21 5 5 6 6 4 3 8 33 34 34
34 34 33 32 31 20 2 0 0 0 0 0 0 0 1 11
0 0 0 0 0 0 0 0 0 0 0 0 0 0 0 0
0 0 17 24 20 17 1 0 0 0 0 2 17 32 35 43
39 49 55 31 17 19 20 22 30 45 41 34 34 34 34 35
37 68 68 50 53 62 68 68 65 73 89 98 107 108 107 110
112 107 95 84 69 50 45 44 41 37 36 52 62 56 38 37
33 36 37 37 35 33 31 13 4 4 4 3 3 2 3 2
3 24 30 32 31 25 16 18 15 10 16 16 6 29 33 34
34 33 33 31 22 36 6 0 0 0 0 0 0 0 0 7
0 0 0 0 0 0 0 0 0 0 0 0 0 0 0 0
0 0 15 24 20 19 2 0 0 0 0 0 19 30 33 42
29 30 42 18 0 0 0 0 9 40 42 35 34 34 34 35
49 66 80 62 50 55 63 69 64 62 69 85 97 95 102 109
103 93 79 64 53 44 43 42 39 35 48 63 65 60 39 59
32 35 36 37 35 34 31 14 3 3 3 3 3 2 2 1
2 24 30 32 31 30 30 31 30 27 30 29 16 18 33 33
30 26 26 18 0 2 1 1 0 0 0 0 0 0 0 6
0 0 0 0 0 0 0 0 0 0 0 0 0 0 0 0
0 0 12 24 21 21 5 0 0 0 0 0 17 30 31 39
12 2 24 18 0 0 0 0 5 38 42 34 35 34 34 35
68 64 88 78 60 47 52 62 65 63 59 60 67 74 85 88
82 71 57 49 48 44 41 38 35 46 63 67 70 67 63 63
31 35 36 37 36 35 32 15 3 3 3 3 3 2 3 2
2 22 30 32 33 32 32 33 32 32 32 31 28 8 13 8
3 5 0 0 0 0 1 1 0 0 0 0 0 0 0 5
0 0 0 0 0 0 0 0 0 0 0 0 0 0 0 0
0 0 11 23 20 15 0 0 0 0 0 0 19 28 31 39
12 0 22 21 0 0 0 0 2 34 42 34 34 34 34 35
92 81 94 93 80 60 46 50 56 61 63 60 57 61 63 64
58 59 58 53 49 41 37 36 46 63 69 76 81 64 72 47
31 35 35 36 36 34 32 16 3 3 2 3 3 2 2 2
3 24 33 34 33 32 32 30 31 31 20 11 7 1 0 0
0 0 0 0 0 0 0 0 0 0 0 0 0 0 0 4
0 0 0 0 0 0 0 0 0 0 0 0 0 0 0 0
0 0 8 24 20 14 0 0 0 0 0 0 19 27 31 39
12 0 20 24 0 0 0 0 0 29 42 33 33 33 34 35
79 93 91 102 98 80 62 48 46 52 58 63 69 71 72 76
75 70 60 52 42 39 37 49 64 70 80 92 85 63 63 16
26 40 35 36 36 35 33 19 6 5 3 3 3 2 3 3
9 27 34 34 33 32 32 30 29 29 7 0 0 0 33 24
0 0 0 0 0 0 12 7 1 0 0 0 0 0 0 0
0 0 0 0 0 0 0 0 0 0 0 0 0 0 0 0
0 0 7 23 19 13 0 0 0 0 0 0 19 26 31 40
12 1 18 25 0 0 0 0 0 26 42 33 33 33 34 44
51 101 78 103 104 104 90 68 53 45 47 55 63 69 70 70
67 59 49 43 39 42 57 68 74 89 102 99 76 80 57 8
32 37 34 35 35 34 32 27 21 20 16 16 15 8 4 12
21 31 35 36 34 32 31 31 30 28 4 0 0 22 85 94
12 0 0 0 0 0 4 5 0 0 0 0 0 0 0 0
0 0 0 0 0 0 0 0 0 0 0 0 0 0 0 0
0 0 6 23 19 15 0 0 0 0 0 0 14 27 31 39
13 1 16 27 4 0 0 1 0 24 42 33 33 34 35 49
32 70 86 84 108 110 113 101 81 65 53 46 47 53 55 53
51 47 42 42 52 65 73 86 102 111 107 96 76 100 33 8
37 32 33 35 35 34 32 31 30 27 22 21 20 11 0 16
25 31 34 35 34 32 31 30 22 11 0 0 0 7 21 23
3 0 0 0 1 1 2 1 0 0 0 0 0 0 0 0
0 0 0 0 0 0 0 0 0 0 0 0 0 0 0 0
0 0 5 23 20 15 1 0 0 0 3 0 12 29 31 40
23 6 14 28 5 3 4 2 0 22 41 33 33 33 34 52
30 35 107 78 92 112 116 115 112 101 87 73 56 47 44 43
43 47 54 69 85 93 101 113 117 112 107 78 73 68 23 16
30 23 26 33 34 34 32 31 31 27 25 24 23 14 0 18
27 31 34 34 33 31 30 29 16 0 2 1 1 0 0 1
1 2 2 3 3 3 3 3 2 1 0 0 0 0 0 1
0 0 0 0 0 0 0 0 0 0 0 0 0 0 0 0
0 0 4 22 19 16 2 0 0 0 8 7 11 32 33 40
24 15 13 27 2 8 9 1 0 18 39 32 32 32 34 53
34 19 64 110 89 96 118 118 118 118 116 113 109 102 99 96
99 105 106 110 111 115 119 118 116 111 91 81 100 46 13 32
27 34 35 32 39 33 31 31 30 28 26 26 25 17 0 18
28 30 32 33 32 31 30 29 17 0 0 0 0 0 0 0
0 0 0 0 1 0 1 0 0 0 0 0 0 0 15 27
0 0 0 0 0 0 0 0 0 0 0 0 0 0 0 0
0 0 3 22 19 16 10 11 11 13 20 23 25 38 33 40
20 23 14 27 9 13 12 8 7 20 34 31 32 32 36 51
39 31 24 94 117 80 96 122 124 122 122 120 118 120 122 121
120 119 116 117 124 122 119 120 117 98 62 20 71 35 15 33
29 31 48 55 57 44 38 41 34 30 27 26 26 19 1 18
29 29 30 31 30 30 30 29 21 4 0 0 0 0 0 0
0 0 0 0 0 0 0 0 0 0 0 0 0 0 30 34
0 0 0 0 0 0 0 0 0 0 0 0 0 0 0 0
0 0 3 21 20 17 26 34 35 37 39 41 44 47 37 40
12 19 18 32 24 25 24 24 23 24 27 30 33 30 36 40
45 35 27 43 93 112 84 90 119 125 131 128 125 124 125 125
124 122 123 123 124 122 123 121 105 78 39 6 22 27 25 25
26 16 35 61 61 51 38 33 23 42 45 34 27 22 1 17
28 28 30 30 30 29 29 29 27 10 0 0 0 0 0 0
0 0 0 0 0 0 0 0 0 0 0 0 0 6 32 32
0 0 0 0 0 0 0 0 0 0 0 0 0 0 0 0
0 0 2 21 19 17 32 40 41 42 43 43 45 48 42 38
9 5 12 31 25 26 26 26 26 27 28 28 33 57 47 38
40 47 31 18 69 44 68 75 89 121 130 130 128 127 130 126
124 125 126 126 126 125 124 110 78 66 24 3 11 28 31 21
21 10 22 50 53 43 41 41 27 28 36 20 17 25 7 17
29 29 29 29 29 29 28 28 25 1 0 0 0 0 0 0
0 0 0 0 0 0 0 0 0 0 0 0 0 10 21 21
0 0 0 0 0 0 0 0 0 0 0 0 0 0 0 0
0 0 2 21 19 17 23 26 25 24 24 25 24 24 29 36
10 2 9 31 29 31 31 31 31 31 30 35 48 64 54 38
27 49 48 16 36 7 49 73 77 97 127 132 132 132 133 129
131 131 131 130 130 127 119 81 68 42 8 0 7 33 19 11
30 4 5 39 68 44 41 47 77 53 41 31 37 64 50 27
32 30 30 30 29 29 30 29 25 1 0 0 0 0 0 0
0 0 0 0 0 0 0 0 0 0 0 0 0 2 2 0
0 0 0 0 0 0 0 0 0 0 0 0 0 0 0 0
0 0 2 21 19 15 7 2 3 4 5 7 9 9 19 36
11 1 7 32 30 32 33 37 48 46 66 60 57 71 62 36
30 32 64 30 33 1 22 55 86 79 106 133 137 138 138 136
136 133 134 131 131 122 99 63 45 16 6 2 17 40 13 28
55 18 21 33 42 25 18 28 65 68 45 42 95 101 105 94
74 37 33 30 29 29 29 29 16 0 0 0 0 0 0 0
0 0 0 0 0 0 0 0 0 0 0 0 0 0 0 0
0 0 0 0 0 0 0 0 0 0 0 0 0 0 0 0
0 0 2 21 19 16 8 3 3 5 6 7 9 10 20 37
16 6 12 33 30 43 63 46 42 58 48 53 51 71 59 43
23 23 51 45 43 2 5 46 79 75 85 113 136 136 140 142
140 134 129 129 125 102 82 29 17 20 22 2 42 32 35 52
60 36 34 48 61 46 34 26 51 80 46 36 79 90 82 78
80 76 60 48 35 36 31 30 9 0 0 0 0 0 0 0
0 0 0 0 0 0 0 0 0 0 0 0 0 0 0 0
0 0 0 0 0 0 0 0 0 0 0 0 0 0 0 0
0 0 3 23 20 17 13 10 10 10 11 11 12 12 23 40
31 36 43 42 32 44 43 33 39 56 53 53 50 48 31 20
22 25 30 45 63 16 19 38 67 80 82 91 120 137 140 144
143 139 138 136 110 98 76 20 22 29 15 39 52 20 37 50
57 35 16 29 58 62 48 41 28 46 32 24 36 73 86 90
94 83 79 98 69 37 42 38 15 0 0 0 0 0 0 0
0 0 0 0 0 0 0 0 0 0 0 0 0 0 0 0
0 0 0 0 0 0 0 0 0 0 0 0 0 0 0 0
0 0 7 25 21 16 13 12 13 14 15 15 15 13 23 37
33 42 47 34 23 27 39 47 64 45 45 33 43 60 38 37
50 38 30 31 58 26 29 89 56 84 89 88 104 132 142 143
145 143 143 137 128 90 44 24 29 22 27 59 39 41 60 77
96 73 41 45 52 42 28 23 40 59 37 14 25 94 109 111
117 110 86 74 68 24 19 35 46 36 13 2 0 0 0 0
0 0 0 0 0 0 0 0 0 0 0 1 2 0 0 0
2 2 3 3 4 5 6 7 7 8 8 9 10 11 12 13
14 14 16 19 17 17 13 12 13 14 15 16 17 14 19 26
24 27 48 72 64 58 41 50 46 17 22 26 69 81 46 41
96 74 22 30 36 44 8 22 38 62 115 110 117 137 145 147
147 147 146 146 137 44 20 19 28 9 62 29 35 63 70 91
96 65 36 55 71 65 41 42 33 68 60 37 35 91 102 106
104 91 79 79 101 62 35 46 55 36 18 27 14 0 0 0
1 0 0 0 0 0 0 0 0 0 0 10 9 0 0 0
23 23 23 22 21 21 20 19 19 18 18 17 17 17 17 17
17 16 16 16 16 16 14 13 13 13 15 16 16 16 22 29
39 47 86 117 121 112 39 38 56 30 35 46 75 64 25 23
87 96 58 36 22 43 32 3 23 33 79 130 138 146 147 147
147 146 146 145 110 30 14 22 15 36 47 38 44 66 81 83
82 52 13 28 61 68 46 42 34 50 47 29 27 58 102 94
100 111 111 99 80 63 20 24 46 53 38 37 31 15 0 0
0 0 0 0 0 0 0 0 0 0 0 21 8 0 0 0
28 27 27 25 23 21 21 20 19 18 18 18 17 17 17 17
16 16 16 16 16 16 14 14 14 14 15 16 32 49 56 58
74 91 79 86 89 94 32 53 70 44 48 44 58 65 32 42
114 116 102 70 20 35 44 7 14 27 54 106 135 142 147 147
147 147 146 143 86 32 17 23 11 49 57 50 76 84 91 87
86 58 11 18 38 38 23 23 24 59 73 52 34 65 114 111
117 117 116 99 84 95 41 36 61 68 48 27 30 35 25 4
0 0 0 0 0 0 0 0 0 0 0 27 4 0 0 0
27 27 26 24 23 22 21 20 19 19 19 18 17 16 16 15
14 13 13 13 12 13 14 14 15 15 17 34 46 51 85 93
93 100 90 77 81 73 18 48 44 36 35 46 83 81 40 44
117 111 114 73 43 44 55 11 13 20 23 37 79 120 146 147
147 146 143 88 60 41 35 28 47 64 63 113 124 127 127 126
123 91 33 32 48 40 19 21 18 34 63 47 30 35 82 77
92 102 88 77 68 71 36 31 49 65 57 37 38 30 34 44
4 0 0 0 0 0 0 0 0 0 0 19 0 0 0 0
27 25 25 23 21 19 17 16 14 12 10 8 6 5 4 4
8 9 12 12 12 13 14 14 16 26 44 46 24 64 93 103
113 116 105 99 102 88 34 77 50 35 41 55 78 71 35 26
90 86 95 90 69 75 56 31 12 37 25 22 26 40 89 136
147 146 117 56 38 40 49 44 63 61 88 122 115 120 123 123
122 93 45 57 86 81 47 50 48 27 50 37 13 14 65 80
79 86 72 79 87 83 28 11 24 44 34 16 16 16 24 18
15 1 0 0 0 0 0 0 0 0 0 2 0 0 0 0
8 7 7 7 7 7 5 4 3 3 1 1 1 0 0 1
7 9 11 12 12 13 14 28 55 54 43 38 27 76 93 96
92 91 91 114 120 83 37 75 47 50 44 39 50 49 20 20
86 91 105 108 112 102 75 55 46 82 71 52 45 44 46 72
117 135 88 55 34 31 49 62 85 92 111 116 117 127 122 116
124 84 27 33 68 78 58 53 44 47 74 58 25 27 84 116
110 105 97 118 126 119 79 20 22 45 41 29 31 37 34 26
30 23 1 0 0 0 0 0 0 0 0 0 0 0 0 0
0 0 1 7 18 20 22 21 22 22 21 20 20 8 0 0
5 8 10 11 12 13 34 47 41 57 63 58 31 89 117 119
116 110 81 98 103 58 39 48 28 31 25 26 48 47 21 28
115 135 139 143 140 117 57 73 41 55 86 82 55 35 37 79
76 83 80 50 42 77 87 57 78 131 139 140 142 143 142 141
138 101 54 55 88 88 55 54 56 46 73 73 49 45 80 116
124 127 125 130 122 104 99 44 50 78 79 63 55 51 26 16
25 66 29 0 0 0 0 0 0 0 0 0 0 0 0 0
8 11 12 20 42 42 40 38 36 33 30 31 32 21 2 1
6 8 9 10 15 35 42 28 29 46 77 68 31 96 106 110
120 115 111 119 121 61 44 51 21 22 25 31 73 81 58 48
116 129 129 122 118 112 94 90 57 62 86 65 44 63 70 57
76 77 73 36 47 96 86 53 74 141 143 143 143 144 141 141
138 105 59 58 89 97 69 68 68 56 70 72 43 38 75 113
109 117 107 107 121 135 134 60 35 59 67 50 34 34 29 1
9 65 61 5 0 0 0 0 0 0 0 0 0 0 0 0
9 12 14 19 42 39 40 38 35 33 32 38 41 35 14 9
8 7 10 19 36 44 36 39 37 35 54 52 32 85 85 82
109 112 115 124 117 43 74 85 43 38 50 67 93 90 56 33
91 131 137 138 142 143 142 124 108 63 95 101 73 72 74 58
62 77 45 35 70 104 84 55 77 143 142 143 142 142 142 143
141 110 51 52 90 103 74 66 60 57 78 94 70 55 78 127
128 136 135 134 140 139 136 84 54 75 89 75 58 60 46 8
16 85 69 36 3 0 0 0 0 0 0 0 0 0 0 0
23 28 28 26 40 46 47 44 42 41 39 37 35 31 17 14
13 14 23 45 55 56 37 35 37 42 73 57 32 83 79 73
93 84 86 90 90 38 69 68 60 63 55 54 78 84 57 52
107 147 146 146 145 144 144 144 140 68 84 106 92 69 69 56
71 52 31 48 90 104 86 57 75 145 143 143 143 143 142 142
139 115 59 54 91 100 78 59 60 64 74 93 74 50 71 125
129 135 138 138 139 139 136 91 52 67 95 79 59 61 52 16
45 114 100 67 62 6 0 0 0 0 0 0 0 0 0 0
26 29 28 26 30 37 35 31 29 26 25 23 22 19 11 8
8 20 53 28 47 54 19 13 19 36 68 47 65 111 106 103
102 106 109 119 119 54 91 79 50 52 56 72 106 100 70 59
99 147 146 146 146 145 144 145 144 85 63 100 104 73 63 60
71 41 40 67 99 100 78 56 77 144 144 143 144 143 142 141
138 113 59 57 88 101 78 60 63 65 77 92 79 53 65 123
126 133 137 135 138 141 139 101 57 63 95 89 64 60 52 29
59 114 108 65 67 52 1 0 0 0 0 0 0 0 0 0
29 29 29 27 26 24 23 21 21 21 21 21 20 18 7 4
16 43 60 27 45 50 28 13 13 28 45 35 43 109 131 136
126 121 131 134 116 57 98 91 75 76 73 75 104 95 69 57
94 147 147 146 146 146 146 145 141 101 47 87 108 87 59 68
50 42 63 76 100 97 78 60 88 144 143 144 144 143 142 141
140 110 56 56 87 104 85 66 66 63 76 94 78 53 60 113
126 135 135 137 138 142 140 108 57 57 87 87 68 64 54 38
101 127 106 81 72 59 15 0 0 0 0 0 0 0 0 0
25 22 19 16 11 8 6 4 15 21 21 21 21 18 8 12
40 71 101 23 53 82 61 40 25 36 55 48 62 105 122 126
131 127 130 123 105 55 94 93 74 72 68 68 104 99 70 58
91 147 147 146 145 146 145 144 144 111 52 68 109 98 63 80
47 52 67 83 107 98 73 62 96 145 143 143 143 143 144 143
140 112 52 52 83 96 84 67 63 68 72 90 84 59 54 107
128 138 135 137 135 140 142 112 53 57 82 91 72 61 54 45
123 134 117 85 99 79 94 6 0 0 0 0 0 0 0 0
2 1 0 0 0 0 0 0 11 22 21 20 20 18 20 45
77 102 85 35 64 63 47 40 48 61 73 49 79 142 147 142
141 140 145 145 102 51 95 92 70 73 68 63 105 101 73 56
86 147 145 146 143 144 144 144 145 117 59 60 100 101 74 84
45 79 61 90 109 102 72 60 97 145 143 144 143 143 143 143
142 118 53 51 82 93 82 70 61 68 69 95 91 61 48 93
132 139 139 138 136 141 142 121 45 52 82 92 74 65 62 64
126 134 114 109 94 94 129 53 0 0 0 0 0 0 0 0
1 2 3 4 6 9 11 12 19 21 21 20 20 23 40 55
95 95 101 47 69 74 34 23 43 57 85 42 86 148 145 141
141 143 145 145 94 58 93 89 72 70 66 68 101 105 77 61
89 146 145 146 146 145 145 144 143 120 56 60 92 96 78 77
42 79 52 89 108 101 68 59 98 145 144 144 144 144 143 142
139 122 57 58 84 96 79 67 64 65 71 96 94 65 56 87
132 139 138 136 138 140 142 125 48 49 79 91 74 63 60 64
123 129 114 115 110 104 127 95 0 0 0 0 0 0 0 0
22 24 24 24 25 24 24 24 25 25 26 26 30 43 52 84
98 110 98 50 61 59 49 62 55 77 87 35 99 147 140 139
139 146 147 144 86 66 96 91 71 70 66 69 102 106 80 59
88 146 146 145 144 145 144 143 143 126 60 56 87 88 80 80
47 65 55 89 107 99 62 60 97 145 144 143 143 143 143 142
142 127 58 58 84 95 79 69 72 69 73 94 90 62 55 87
133 139 140 138 136 138 142 133 50 49 82 92 76 61 65 60
119 130 122 110 107 107 117 117 11 0 0 0 0 0 0 0
31 32 32 32 32 30 30 29 31 27 25 25 47 51 83 100
100 83 72 60 54 43 51 69 67 93 84 35 115 146 143 142
137 146 145 139 78 67 95 91 71 66 68 70 104 107 83 59
89 147 145 144 144 143 144 144 143 131 66 62 85 81 85 85
46 69 70 88 104 97 61 58 101 146 143 143 144 143 144 142
141 130 59 61 84 98 84 67 73 67 66 89 91 69 56 77
133 139 139 136 132 138 142 139 58 51 74 92 82 58 60 54
117 133 124 113 113 107 105 125 32 0 0 0 0 0 0 0
32 32 34 29 28 26 25 26 29 28 27 30 86 110 93 99
87 85 100 74 50 37 49 62 74 97 82 37 120 146 145 141
139 147 146 145 89 68 95 92 72 73 77 73 100 101 79 59
83 146 145 145 145 144 144 144 144 130 62 61 86 77 75 74
45 67 69 88 108 94 63 52 93 139 133 133 126 125 121 123
122 118 40 39 68 88 79 54 58 60 58 79 91 76 57 71
131 140 138 137 128 132 141 139 72 49 68 93 90 58 55 53
110 133 126 118 107 109 98 120 53 7 0 0 0 0 0 0
29 30 34 32 32 33 33 33 33 33 33 55 118 124 92 85
95 124 103 68 42 30 46 56 85 99 78 40 111 147 140 142
140 146 146 145 93 65 95 92 70 72 67 68 98 101 77 59
79 146 145 145 145 144 145 145 144 130 61 58 92 70 68 54
30 50 49 63 84 68 35 31 71 124 122 122 118 125 126 134
126 113 40 48 63 86 80 42 40 40 41 59 61 50 30 41
114 129 127 130 125 131 140 137 85 53 66 95 88 57 55 51
102 135 126 119 76 102 98 116 71 24 1 0 0 0 0 0
37 37 38 37 38 37 37 36 36 36 36 98 122 130 62 90
121 109 110 88 37 23 54 60 84 101 73 50 103 145 139 140
144 145 143 142 93 60 95 84 65 66 70 69 99 99 76 63
81 147 145 144 138 133 131 134 135 107 29 26 63 62 87 76
46 50 55 69 90 84 58 47 88 145 136 138 138 139 136 139
132 123 53 53 64 96 87 50 55 58 58 77 83 71 52 55
108 116 121 112 103 108 117 119 72 31 36 65 67 34 29 40
91 127 126 115 61 50 93 109 90 22 18 0 0 0 0 0
41 41 39 41 40 39 37 37 36 35 53 126 122 118 82 92
106 112 127 112 46 28 52 55 82 97 67 53 98 141 143 141
145 143 143 144 88 61 95 87 70 64 66 69 97 92 72 50
68 134 124 118 112 117 119 119 126 115 45 49 89 74 82 72
53 59 63 76 101 88 56 39 70 131 117 119 114 113 107 118
108 107 42 30 42 72 66 39 41 47 44 65 70 59 39 49
112 129 129 126 122 123 126 127 80 40 49 87 82 50 48 36
75 127 124 121 73 34 75 102 109 20 35 3 0 0 0 0
39 41 37 40 39 39 38 37 36 29 64 113 126 114 84 71
73 129 127 124 75 37 48 56 85 97 61 56 91 138 146 141
146 143 146 145 70 36 71 79 67 55 51 45 70 67 44 39
59 124 131 141 134 138 137 136 137 119 50 51 79 60 57 38
25 40 39 49 75 57 21 16 41 105 100 96 93 95 93 102
85 80 24 11 20 49 48 21 21 20 19 41 54 35 12 15
77 100 106 102 103 121 131 126 87 42 48 77 70 42 48 49
86 129 125 117 89 48 62 96 117 24 30 23 0 0 0 0
