P2
128 120
143
34 34 34 34 34 33 34 33 32 32 32 31 30 30 30 29
29 29 28 28 27 26 26 26 25 25 24 24 23 23 22 22
21 21 20 20 20 20 19 19 18 18 18 17 17 16 16 16
16 15 15 15 16 18 19 20 20 19 13 8 15 22 18 17
18 17 15 15 15 14 13 13 9 10 12 13 15 16 16 16
16 16 17 18 17 18 18 19 19 19 18 19 18 19 19 19
19 19 19 20 20 21 21 23 22 23 23 23 24 23 24 23
23 24 24 24 24 24 25 24 25 24 24 24 24 25 25 25
35 34 34 33 33 33 32 32 32 32 31 31 31 30 30 30
30 29 28 28 28 27 26 26 25 25 24 23 24 23 23 22
22 22 21 21 20 20 19 19 19 18 17 18 17 17 17 17
16 16 16 16 17 19 20 20 21 20 14 11 14 22 18 18
18 17 17 16 16 14 14 13 10 10 11 14 16 16 16 17
17 17 18 19 19 18 19 19 19 18 19 19 19 19 20 20
20 20 20 20 21 22 22 22 22 22 23 23 23 23 23 23
24 25 25 24 24 23 24 24 24 25 25 25 25 25 25 25
34 33 33 33 33 32 33 32 32 32 31 30 31 30 30 29
29 29 28 28 27 27 26 26 26 26 26 24 24 23 23 22
22 22 21 21 21 20 20 20 19 19 18 18 17 17 16 16
16 16 16 16 17 19 21 21 21 21 15 12 14 22 19 18
18 17 17 16 16 15 14 14 11 12 12 15 17 17 18 17
17 18 18 18 18 18 18 19 19 19 20 20 20 20 20 20
20 20 20 21 21 21 22 23 23 23 23 23 24 24 23 22
21 23 23 24 24 25 25 25 25 25 26 26 26 25 25 26
35 34 34 33 33 33 32 32 32 32 31 31 31 31 30 30
29 29 28 28 27 27 26 26 25 25 24 24 24 23 23 23
22 22 22 21 21 20 20 20 19 19 18 18 18 17 17 16
17 17 16 17 17 20 22 21 22 21 15 12 12 22 19 17
18 19 18 17 17 16 16 15 13 13 14 16 18 18 18 19
19 19 19 19 19 19 19 20 19 19 19 19 20 20 20 21
21 21 22 22 21 22 22 23 23 23 22 22 22 21 22 25
24 24 25 26 25 26 25 25 25 25 26 25 25 25 25 25
33 33 33 33 33 32 33 33 33 32 32 31 31 30 30 29
29 29 28 27 27 27 26 26 25 25 25 25 25 23 23 23
23 22 22 21 21 20 20 20 20 19 19 18 18 18 18 17
17 17 16 17 18 20 22 21 22 22 17 12 10 20 20 18
18 18 18 17 17 16 16 15 14 14 15 17 18 18 18 18
19 19 19 19 20 19 19 19 20 20 20 20 20 20 20 21
21 21 21 21 22 22 22 21 22 21 21 23 24 24 24 25
26 25 25 25 25 25 24 25 25 24 25 26 25 26 26 25
33 34 33 33 33 33 32 32 32 31 31 31 31 30 31 31
30 29 29 28 28 27 27 26 26 25 25 24 24 24 24 23
23 23 22 22 22 21 21 21 20 19 19 19 18 18 17 18
17 18 18 17 19 21 23 23 23 22 16 10 7 20 20 19
20 19 19 18 19 17 17 16 15 14 16 18 19 19 19 19
20 20 20 20 20 20 20 20 21 20 20 20 21 21 21 21
22 22 22 22 21 21 21 22 23 24 24 23 24 24 25 25
26 25 25 25 25 26 26 25 26 26 25 26 26 26 26 25
33 33 33 32 33 32 32 32 32 32 32 31 31 31 30 29
29 28 28 28 27 27 27 26 26 26 26 25 24 24 24 23
22 22 23 21 21 21 20 20 20 19 19 19 19 19 18 17
18 17 17 18 19 21 23 23 23 22 17 13 12 22 21 20
20 20 19 18 19 17 17 16 15 15 17 19 20 20 20 19
19 19 19 20 20 20 20 20 20 21 21 21 22 21 21 21
21 21 21 22 21 23 23 23 23 23 24 24 24 25 25 25
26 25 25 26 25 25 25 25 25 25 26 25 26 25 26 25
41 38 35 33 33 33 33 32 32 32 32 31 31 30 30 30
30 29 29 28 28 28 27 27 26 26 26 25 25 24 24 24
23 23 23 23 22 22 22 21 21 20 20 20 19 19 18 18
18 19 19 19 20 21 23 24 24 23 17 15 14 20 22 21
21 20 20 19 20 18 18 17 17 15 18 19 20 20 20 20
20 21 20 21 21 21 21 21 21 21 21 21 22 21 22 21
22 22 23 23 23 24 24 24 25 25 25 25 25 26 25 25
26 26 26 26 26 26 26 26 26 25 26 26 26 26 26 26
46 46 43 33 33 33 33 32 32 32 32 31 31 30 30 30
29 29 28 28 28 27 27 27 27 27 26 26 25 25 25 24
24 23 23 22 22 21 20 21 21 21 20 21 20 19 19 19
19 19 19 19 20 22 24 24 24 23 17 16 17 20 23 22
21 20 21 19 20 19 18 17 17 15 18 20 21 21 21 21
21 21 22 21 21 21 21 21 20 20 21 21 21 22 22 22
24 23 23 22 23 23 23 24 24 24 25 25 25 25 25 25
26 26 26 26 26 25 26 25 25 26 26 26 25 26 26 26
20 44 44 34 33 33 33 32 32 32 31 31 31 31 30 30
29 29 29 29 29 28 28 27 27 27 26 26 25 25 24 24
24 24 24 23 23 22 22 22 21 21 20 20 20 20 19 19
19 19 19 19 21 22 25 26 26 25 18 17 18 19 23 22
22 21 20 20 21 19 20 19 18 17 19 21 21 21 21 21
21 22 21 22 21 21 21 22 22 22 22 22 23 23 23 22
23 23 23 23 24 24 25 25 25 25 25 25 26 25 26 26
27 26 26 26 26 26 27 27 27 26 26 26 27 27 27 27
3 42 45 34 33 33 33 33 32 32 32 32 32 31 31 31
30 29 29 29 29 28 27 27 27 27 27 26 27 26 26 26
25 24 23 23 23 23 22 22 22 22 21 21 21 21 20 20
20 20 20 20 21 22 25 25 25 24 19 18 20 19 24 23
23 22 22 21 22 21 19 20 18 16 20 21 22 22 22 22
23 22 22 22 23 22 22 22 22 22 22 23 23 23 23 23
24 24 24 24 25 25 25 25 25 26 26 26 26 27 26 27
27 27 27 26 26 27 27 27 27 26 26 26 27 27 27 26
3 42 44 34 33 33 33 33 32 32 32 32 32 31 31 30
30 30 30 30 29 29 28 28 28 27 27 26 26 26 25 25
24 24 24 25 24 23 23 23 23 22 22 21 21 21 21 20
19 20 20 20 21 23 26 26 26 25 19 18 21 18 24 23
22 22 22 21 22 20 20 20 19 17 20 21 22 22 22 21
22 23 23 23 23 23 23 23 23 23 23 24 23 23 24 24
24 23 24 24 25 25 25 25 25 26 26 26 26 26 27 27
27 26 26 26 27 27 27 27 27 27 26 27 27 27 27 27
3 41 43 34 32 33 33 32 32 32 32 31 31 31 31 31
30 29 30 29 29 28 28 28 28 27 27 26 26 26 26 25
26 25 25 24 24 23 23 22 22 22 21 21 21 21 21 21
21 20 20 21 21 24 26 26 26 25 19 17 23 17 25 23
24 23 22 22 23 21 20 20 19 16 20 20 22 22 23 23
24 24 23 23 24 23 23 23 23 23 23 23 23 24 24 24
25 25 25 25 25 25 26 26 26 25 26 26 26 26 26 26
27 27 27 28 27 27 27 26 26 26 27 26 26 26 27 27
2 41 44 33 33 33 32 32 33 32 32 31 31 31 31 30
30 29 29 29 28 29 28 28 28 27 27 26 26 26 25 25
25 25 25 24 24 24 25 23 23 22 22 22 21 21 21 20
21 20 20 21 22 24 26 27 27 26 20 18 24 17 24 24
24 23 22 22 23 21 21 20 20 17 22 22 23 23 23 23
23 23 23 23 23 23 24 23 24 23 23 23 25 24 24 24
25 24 25 25 25 25 25 25 26 26 26 26 26 27 27 26
26 26 26 25 26 26 26 27 27 26 26 27 26 27 26 26
3 41 43 34 33 32 32 31 31 31 31 31 31 31 31 30
30 30 29 29 29 29 28 28 28 27 27 26 26 26 26 25
25 25 25 25 24 24 24 23 23 23 22 21 22 22 22 21
21 21 21 21 22 23 26 26 26 26 20 18 24 18 24 24
24 24 22 22 23 23 21 21 19 17 21 22 23 23 24 23
24 24 24 24 24 24 23 24 23 22 23 23 23 24 24 24
25 25 25 25 26 26 26 26 27 26 26 25 25 25 25 25
25 26 27 27 27 27 27 27 27 28 26 26 26 26 26 25
3 40 41 32 32 32 32 32 32 32 32 31 31 31 30 30
30 29 29 29 28 28 28 28 28 27 27 27 26 26 26 26
25 25 24 24 24 24 24 23 24 23 22 22 21 22 22 21
21 21 21 21 23 24 27 27 27 27 21 18 25 18 23 23
24 23 22 21 22 22 21 21 20 17 22 22 24 23 24 24
24 24 23 23 23 23 23 23 23 24 24 25 25 24 25 25
25 25 25 25 25 25 25 25 25 25 25 26 26 27 27 27
27 27 27 27 27 27 27 27 27 27 26 26 26 26 27 26
2 40 42 33 32 32 31 32 31 31 31 30 31 31 30 30
30 30 30 30 29 29 29 28 27 27 27 26 27 26 26 25
26 26 26 25 25 24 25 24 23 23 22 22 22 21 22 22
21 21 22 22 23 24 28 27 27 27 21 18 24 19 23 23
24 23 23 23 22 22 21 21 20 17 21 22 24 23 24 24
24 24 24 24 24 24 24 24 24 24 24 24 25 24 24 24
26 25 25 25 25 26 26 25 26 26 27 27 27 26 26 26
26 26 27 27 27 27 28 28 28 28 27 26 27 25 26 26
3 39 41 33 32 32 32 32 32 32 32 31 31 31 30 30
30 29 29 28 28 29 28 28 28 27 27 27 27 27 27 26
26 25 25 25 25 24 24 24 24 23 23 23 23 22 22 22
22 22 22 22 22 24 27 27 27 27 22 19 25 20 17 15
13 15 18 18 18 21 20 20 19 18 22 22 24 24 24 24
24 25 24 24 24 24 24 24 24 24 24 25 25 26 26 25
25 25 25 25 25 26 26 26 27 26 26 27 28 27 27 27
27 28 27 27 27 26 27 26 26 27 26 26 26 26 27 26
13 41 42 33 33 32 32 32 32 31 31 31 31 30 30 30
30 30 29 30 29 29 29 28 28 27 27 27 27 26 26 26
25 25 25 25 25 24 24 24 24 24 24 23 23 22 22 22
22 22 22 22 23 25 28 27 27 25 17 12 12 9 10 19
20 17 16 16 17 18 19 13 15 17 22 22 24 24 25 24
25 25 25 25 25 25 26 25 25 25 25 24 25 24 25 25
25 25 26 26 26 26 26 26 28 27 27 28 27 27 27 27
27 27 27 27 27 27 27 27 27 28 27 27 27 26 26 26
24 39 39 33 32 32 32 32 32 32 32 32 32 32 32 31
30 30 30 29 29 29 29 29 28 28 28 28 27 27 27 26
26 26 26 25 25 25 24 24 24 24 24 24 23 23 23 22
22 23 22 23 23 25 28 28 23 10 8 10 16 17 15 15
12 11 13 18 21 20 18 19 18 7 12 21 25 25 25 25
25 26 26 25 25 25 25 24 24 25 25 26 26 26 26 25
26 26 27 27 27 26 26 27 27 27 27 28 28 27 27 28
28 27 27 27 28 27 27 27 27 28 27 26 27 27 27 27
34 35 35 32 32 32 33 32 31 31 31 30 31 30 31 30
30 30 29 30 29 29 29 28 28 27 28 27 27 27 26 26
26 25 26 26 26 25 25 25 25 24 23 23 22 22 22 22
22 21 22 23 23 25 27 18 12 15 19 13 13 18 21 21
24 26 22 24 21 21 22 25 22 21 5 2 10 24 25 25
25 24 24 24 24 24 24 24 25 26 25 26 26 26 26 26
26 26 26 27 27 27 27 27 28 28 27 28 28 27 27 27
26 27 27 27 26 27 27 27 26 27 27 27 27 27 27 26
29 31 33 33 32 33 32 32 32 32 32 32 31 31 31 31
30 30 29 29 29 29 29 28 28 28 28 28 28 27 27 27
27 26 26 26 25 25 25 25 24 24 24 24 23 24 23 23
23 23 23 23 24 23 23 23 18 16 19 24 25 26 25 30
35 34 33 29 20 19 25 26 29 23 19 2 0 4 18 25
25 24 25 25 25 25 26 25 26 27 25 26 26 26 26 26
26 27 27 27 28 27 28 28 28 28 28 27 28 28 28 27
28 28 27 27 28 27 28 27 27 27 27 26 27 27 26 27
15 19 23 27 31 32 33 33 33 33 31 32 31 31 30 31
31 30 30 30 30 30 29 28 28 29 28 27 28 27 27 27
26 26 26 26 26 26 25 25 25 25 25 24 23 24 23 23
23 23 22 23 22 23 21 19 24 26 29 34 39 30 32 34
28 20 11 2 3 3 2 7 22 25 22 16 4 1 0 13
25 26 26 26 25 25 26 26 26 27 26 26 26 26 27 26
27 27 28 28 28 28 28 28 28 29 28 28 28 28 28 28
27 27 28 27 28 27 28 28 28 28 27 26 26 26 25 26
10 10 11 11 13 15 18 23 27 30 32 32 31 31 31 31
31 30 30 30 30 29 29 29 28 28 28 28 28 28 27 27
27 27 27 27 26 25 25 25 24 24 24 24 24 24 23 24
24 23 23 22 26 24 26 28 27 18 21 27 31 32 31 25
15 13 14 14 15 18 16 7 2 11 18 20 13 2 1 2
12 21 26 26 27 26 26 27 26 27 26 26 26 26 26 27
27 27 28 28 28 28 29 28 28 28 28 28 28 28 28 28
28 28 28 28 28 28 27 27 27 26 25 25 26 27 27 25
11 11 10 10 11 10 11 11 12 12 15 19 29 31 31 30
30 30 30 30 30 30 30 29 29 29 29 28 28 28 28 27
27 26 27 26 27 26 26 26 25 25 25 25 24 24 23 23
23 22 21 27 24 22 15 12 12 17 29 32 29 28 29 31
30 21 19 17 18 17 17 20 16 6 13 17 18 14 1 1
7 11 25 26 26 25 26 26 27 27 27 27 28 27 28 27
28 28 27 28 28 28 28 28 29 29 28 28 28 29 29 29
27 27 26 25 26 26 27 27 28 28 27 27 27 27 27 27
31 16 15 12 11 10 11 11 11 5 3 9 26 31 32 31
31 31 30 30 30 30 29 29 29 29 28 28 29 28 28 28
27 28 28 27 27 26 26 26 26 25 25 24 25 24 24 24
23 21 23 18 6 8 11 12 16 25 36 35 27 30 36 36
25 19 20 22 23 19 19 15 14 16 7 9 15 17 4 5
3 8 23 25 26 27 27 27 27 28 27 27 27 27 27 27
27 28 29 29 29 29 29 30 30 29 29 28 28 28 28 27
27 27 28 28 28 28 28 28 28 27 27 26 27 27 27 26
41 22 25 27 25 17 13 11 10 9 9 11 25 32 32 32
31 30 29 28 30 30 30 30 30 29 29 29 28 28 28 28
27 27 27 27 27 27 28 26 26 25 25 25 25 25 24 24
23 12 8 6 16 10 18 17 21 32 28 30 38 43 27 21
35 49 52 55 49 38 25 20 18 16 17 10 13 10 13 13
14 12 8 14 25 26 27 27 27 28 27 28 28 28 28 29
29 29 29 28 28 28 28 28 27 27 27 27 27 27 28 28
28 29 28 27 27 27 27 27 27 26 26 26 27 26 26 26
44 27 32 35 38 31 34 33 27 16 7 9 24 31 32 31
31 31 30 34 34 32 31 30 29 29 29 28 28 28 28 28
27 27 27 27 32 37 35 31 29 26 25 24 24 24 24 23
11 3 7 14 15 21 10 20 23 28 28 31 40 33 42 71
96 100 99 92 89 78 61 55 41 31 24 21 17 13 16 19
17 12 4 8 25 28 27 28 27 29 28 28 27 27 28 28
28 28 28 27 28 28 28 27 28 28 28 28 27 27 27 27
27 27 27 27 27 27 27 27 27 27 27 26 26 26 26 26
42 32 34 37 39 35 42 42 42 30 9 13 26 32 31 31
31 30 32 41 39 38 36 33 31 30 29 30 29 29 29 28
28 28 28 27 34 38 37 34 34 33 29 25 24 25 24 15
1 1 3 15 11 4 21 22 26 21 26 30 30 47 80 102
109 112 110 108 108 104 98 91 81 71 55 45 41 30 23 23
12 3 3 3 23 26 27 27 28 28 27 27 27 27 28 28
28 29 28 29 28 28 28 28 28 27 27 27 27 28 29 28
27 28 28 27 27 27 27 27 26 25 26 26 26 26 26 27
36 34 37 39 40 41 44 44 45 34 10 12 28 33 32 32
31 30 33 42 41 39 36 36 36 37 34 32 31 30 29 27
27 28 28 28 34 37 36 34 34 34 32 26 25 25 23 3
0 0 5 5 14 21 22 20 15 24 26 29 46 82 104 111
112 113 114 113 114 111 107 105 102 99 93 79 78 57 50 43
31 21 1 9 24 27 28 27 27 27 27 27 27 27 27 27
27 28 27 27 28 28 28 28 28 28 28 27 28 27 27 27
27 27 28 27 27 27 27 27 26 26 27 26 26 26 26 26
34 33 36 36 38 40 42 43 44 36 11 13 30 36 34 34
32 32 32 39 37 38 36 37 40 40 37 34 36 36 33 30
29 28 28 27 30 23 24 26 30 32 33 27 25 25 10 0
0 0 3 15 18 11 5 8 28 36 25 34 63 92 106 112
115 114 116 113 112 111 110 107 105 101 100 98 95 85 79 73
58 44 13 12 24 26 27 27 27 27 27 28 28 27 27 28
28 29 28 27 27 27 27 27 27 27 26 27 27 27 27 28
27 27 28 27 27 27 28 26 26 26 26 26 26 26 25 26
35 25 21 29 34 40 42 42 41 35 11 12 29 36 30 32
34 35 37 19 8 18 30 36 39 40 36 14 13 22 27 32
31 34 33 31 29 15 9 9 9 11 18 27 24 22 1 0
0 1 17 14 7 0 6 22 24 25 30 44 79 100 108 112
113 112 113 113 113 113 113 112 109 107 102 102 101 97 92 83
74 55 41 17 23 27 28 28 27 27 28 28 27 27 27 28
27 29 27 28 28 28 28 29 28 27 27 27 27 27 27 27
27 27 28 27 27 26 26 27 26 27 27 27 26 26 26 26
36 15 0 3 5 15 22 26 31 36 13 13 29 37 32 29
30 38 42 17 0 0 7 14 16 21 33 6 0 0 1 6
11 18 26 30 29 14 1 5 6 1 5 29 25 13 0 0
0 7 13 6 0 1 10 15 20 27 46 71 87 100 110 112
113 116 114 113 116 118 117 115 114 112 107 103 102 101 97 89
83 68 56 30 25 27 27 28 27 28 28 27 28 28 28 28
28 29 28 28 28 28 28 28 28 28 28 27 27 28 27 27
28 28 28 28 27 26 26 25 26 26 26 26 26 26 26 26
36 14 0 0 0 0 0 0 5 36 14 12 13 21 28 35
36 41 43 19 0 0 3 7 10 11 31 6 0 0 0 0
0 0 1 10 31 12 0 0 2 0 5 31 25 3 0 0
0 7 1 0 0 1 7 18 25 44 53 64 83 95 106 110
114 115 116 115 117 118 122 122 119 115 111 106 104 103 100 92
87 77 66 42 26 28 28 29 28 28 29 28 29 28 28 28
28 29 29 29 29 29 28 29 29 29 28 29 28 28 28 28
28 28 28 28 27 27 27 27 27 27 28 27 27 27 27 27
38 12 0 0 0 0 0 0 4 35 14 12 1 0 1 5
13 22 32 21 0 0 1 0 4 6 31 9 0 0 0 0
0 0 0 7 32 8 0 0 0 0 5 32 19 0 0 0
2 1 0 0 0 3 15 26 39 45 58 73 83 93 105 111
117 118 117 117 117 119 120 121 122 119 114 109 106 105 101 95
90 80 72 53 30 29 29 30 29 29 29 29 29 29 29 29
29 30 30 30 30 30 30 30 29 29 29 29 29 29 29 29
29 29 29 29 29 28 28 28 28 29 28 28 28 28 28 28
38 12 0 0 5 3 0 0 4 36 14 11 0 0 0 0
0 0 2 15 0 0 0 0 0 5 29 7 0 0 0 0
0 0 0 6 31 4 0 0 0 0 6 33 10 0 0 0
0 0 0 0 0 11 29 38 43 49 61 72 87 95 102 110
116 118 120 120 120 122 121 122 124 122 118 114 109 106 104 99
89 84 73 61 36 29 29 29 29 30 30 29 30 30 30 31
30 31 30 30 30 30 31 30 31 31 31 30 30 30 30 30
29 29 29 29 29 29 29 30 29 29 29 29 30 30 29 30
39 12 0 0 4 12 0 0 4 36 14 12 1 0 0 0
0 0 0 13 0 0 0 0 0 5 32 8 0 0 0 7
6 0 0 5 32 4 0 0 0 0 6 32 3 0 0 0
0 0 0 0 5 23 29 38 47 53 68 82 82 92 103 111
115 119 121 123 124 122 123 123 124 123 118 116 110 107 106 102
93 90 76 69 44 31 30 30 30 30 30 30 30 30 30 31
31 31 31 32 31 31 32 31 31 32 32 31 30 30 30 30
30 29 31 31 31 31 31 31 30 30 30 30 30 29 29 29
38 10 0 0 1 10 0 0 5 36 14 12 1 0 0 0
0 0 0 11 0 0 0 0 0 4 34 9 0 0 0 8
11 7 2 3 31 3 0 0 0 0 4 29 0 0 0 0
0 0 0 1 12 16 29 42 47 65 71 76 85 96 107 113
116 120 121 122 124 122 122 122 123 123 123 120 113 109 105 100
98 91 81 73 52 31 30 31 30 30 30 30 31 31 31 31
32 32 31 31 31 30 31 31 32 31 31 31 30 30 30 30
30 31 31 31 30 30 30 29 29 28 30 30 30 30 29 29
37 9 0 0 0 0 0 0 5 36 13 12 1 0 0 3
5 0 0 10 0 0 0 0 0 3 34 11 0 0 1 11
13 12 9 3 31 4 0 0 0 0 2 21 0 0 0 0
0 0 0 3 10 19 34 41 53 57 67 77 83 95 104 113
118 120 121 122 125 125 126 124 126 126 126 122 116 111 106 99
98 97 86 77 62 35 30 31 31 30 30 31 31 30 31 31
31 32 31 31 31 31 31 31 31 31 31 31 30 30 30 30
30 30 31 30 30 30 30 30 29 28 29 31 30 30 30 29
36 8 0 2 0 0 0 0 5 35 14 12 1 3 4 1
1 0 0 9 0 0 0 0 0 5 33 14 0 0 0 8
12 11 9 2 31 8 0 0 0 0 1 13 0 0 0 0
0 0 0 4 11 18 34 40 48 55 67 79 90 98 109 114
120 121 121 123 124 124 125 125 129 129 126 126 120 115 110 102
99 100 92 83 63 38 29 30 30 31 31 30 31 31 31 31
31 31 31 31 31 31 30 30 31 31 31 31 31 30 31 30
30 30 30 30 29 29 29 29 29 29 29 31 31 30 30 30
38 14 2 1 1 0 0 0 7 35 14 12 1 5 0 0
0 0 0 10 0 0 0 0 0 12 34 17 0 1 0 0
4 9 7 1 32 32 24 16 10 7 8 7 0 0 0 0
0 0 0 4 12 21 29 35 46 54 68 86 97 100 108 116
121 115 116 122 124 124 126 129 130 131 130 128 122 116 112 104
100 100 96 84 62 43 30 31 31 31 31 31 31 31 31 31
31 30 31 30 31 31 32 31 31 32 31 31 31 31 30 31
30 30 30 30 30 30 31 30 29 29 30 31 28 28 28 28
41 48 32 21 28 26 24 20 22 32 14 12 2 1 0 0
0 0 0 22 14 8 6 3 0 3 36 37 27 22 18 10
5 3 4 1 31 40 37 36 36 38 39 10 0 0 0 0
0 0 0 3 10 15 23 27 38 48 65 81 93 104 109 120
120 113 118 123 123 123 124 124 123 127 127 127 121 116 113 104
101 99 95 84 60 45 30 31 31 31 30 30 31 31 31 31
31 31 31 30 32 31 31 31 31 31 30 30 31 31 30 30
30 30 29 29 28 29 29 27 28 27 27 25 23 20 17 14
54 54 32 28 38 42 42 41 40 31 12 12 1 0 0 0
0 0 0 34 45 35 34 32 28 22 41 34 19 22 25 26
26 25 24 24 40 38 37 37 38 43 44 8 0 0 0 0
0 0 0 2 6 10 18 25 38 53 69 84 95 107 116 120
120 120 123 124 124 117 112 108 111 116 119 119 117 113 110 106
98 95 89 76 56 39 23 31 31 31 32 31 31 31 30 30
30 30 30 31 31 30 31 30 31 31 31 29 29 28 28 27
29 27 28 27 25 23 22 19 17 14 11 11 9 8 9 9
55 50 28 29 38 42 42 45 44 33 12 13 2 0 0 0
0 0 0 34 46 37 42 44 48 44 43 29 11 11 12 12
13 14 16 21 25 21 25 29 33 36 36 5 0 0 0 0
0 0 0 1 4 6 14 26 40 55 68 85 103 110 117 119
121 121 124 123 123 103 72 63 58 62 78 90 99 105 104 102
97 91 82 66 44 15 4 27 30 31 31 30 30 31 31 31
32 31 31 31 31 31 31 31 31 30 30 29 30 30 26 23
21 19 16 14 12 12 11 12 11 12 12 13 14 15 15 16
50 37 16 24 35 38 39 43 44 34 13 14 20 19 12 6
2 0 0 34 38 38 44 46 49 45 36 27 13 12 12 11
10 9 8 7 7 8 9 12 22 29 25 3 0 0 0 0
0 0 0 0 1 4 14 24 40 57 72 88 102 114 118 120
118 120 122 120 94 61 48 49 35 28 26 47 59 77 83 89
89 83 73 50 21 3 0 21 30 31 32 31 31 31 31 31
31 31 32 31 31 30 30 28 26 25 21 19 19 30 21 10
11 12 13 13 14 15 16 17 17 18 19 20 20 21 21 21
50 33 1 0 2 3 5 8 20 33 13 14 30 44 43 39
35 30 26 39 31 36 42 44 47 46 39 31 16 13 11 9
9 8 8 8 7 8 8 9 22 22 21 3 0 0 0 0
0 0 0 0 0 6 9 23 41 59 75 98 114 117 119 119
120 122 122 84 57 67 66 82 89 72 52 46 48 52 60 75
80 70 59 33 7 20 20 23 29 30 31 31 31 31 31 31
30 29 27 24 22 18 17 15 14 14 14 14 14 24 19 12
16 18 19 19 21 21 22 22 23 23 23 23 23 24 24 24
50 33 0 0 0 0 0 0 8 33 13 15 31 45 45 43
43 43 45 42 14 15 23 29 36 37 35 34 17 12 10 5
5 5 8 9 10 9 11 12 24 18 12 4 0 0 0 0
0 0 0 0 3 3 7 25 42 56 78 104 116 118 118 118
120 119 95 67 81 95 108 111 107 99 85 72 72 68 67 75
81 68 42 20 36 53 38 28 30 30 29 28 26 24 22 19
18 16 16 15 16 16 17 18 19 19 20 20 20 24 21 16
21 23 23 24 24 24 25 25 25 26 26 25 26 26 26 27
49 32 0 0 0 0 1 2 8 31 14 13 27 42 44 43
45 45 46 41 5 0 0 1 5 12 20 34 15 11 6 0
0 0 5 10 9 5 11 12 24 35 32 7 0 0 0 0
0 0 0 0 1 1 12 30 44 54 83 110 117 120 118 118
120 114 97 95 105 115 115 110 100 82 61 67 84 97 100 103
99 67 31 33 40 43 32 23 21 19 18 17 17 16 17 18
19 20 20 21 22 22 24 24 24 24 25 25 23 24 22 19
24 26 26 26 27 27 27 28 28 28 28 28 27 27 27 27
44 26 0 0 0 0 17 22 21 28 25 21 26 32 33 34
36 38 42 37 3 0 0 0 0 3 18 36 14 10 7 0
0 0 0 0 0 0 1 2 19 37 28 6 0 0 1 8
20 17 3 0 0 8 22 28 35 60 91 111 119 119 119 120
118 108 110 113 110 101 89 72 45 18 18 50 92 109 117 123
114 73 26 30 11 8 14 17 18 19 20 20 22 23 24 24
25 25 25 25 26 27 27 27 28 28 28 27 23 10 8 18
27 29 28 29 28 27 28 28 28 29 28 28 28 29 28 27
42 24 0 0 0 0 16 21 21 22 21 17 20 20 22 28
28 29 39 35 2 0 0 0 0 0 11 36 12 7 2 0
0 5 1 0 0 0 0 0 17 37 29 6 0 3 32 68
90 93 39 5 11 15 16 17 38 60 88 114 120 121 124 123
118 112 110 95 68 50 43 42 12 14 21 48 103 119 124 128
117 87 44 49 7 5 10 21 24 25 25 26 27 27 28 27
29 28 29 29 30 30 29 29 29 29 29 27 22 2 1 13
27 30 30 29 30 29 30 30 30 29 29 29 28 28 28 28
43 21 0 0 0 0 6 12 16 23 21 18 21 21 21 26
27 28 38 34 1 0 0 0 0 0 11 34 3 0 0 0
0 7 6 1 0 0 0 0 16 38 30 5 0 32 70 83
99 84 89 51 18 10 10 16 34 68 98 117 121 124 129 127
120 108 84 76 66 63 52 61 38 35 43 75 107 121 122 122
118 97 50 32 14 13 24 28 28 28 29 29 29 30 30 30
30 30 30 30 31 30 31 30 22 16 11 15 20 6 3 11
27 29 31 30 30 29 29 29 28 29 29 29 29 29 28 28
43 21 0 0 0 0 0 0 1 17 13 15 15 12 18 24
28 33 38 33 2 0 0 0 0 0 13 32 0 0 0 0
0 1 12 8 3 0 0 0 15 38 32 7 0 62 100 112
127 100 79 75 48 30 27 35 55 90 105 116 122 128 130 129
119 108 106 106 109 110 96 81 67 58 62 90 111 118 119 121
119 107 70 37 30 26 29 29 30 30 30 30 30 31 31 31
31 31 31 31 30 31 32 28 5 2 5 14 19 1 0 9
26 29 29 29 29 29 30 30 29 29 29 28 29 28 27 27
43 20 0 0 0 0 0 0 2 24 19 21 11 0 0 0
2 5 9 21 2 0 0 0 0 0 15 32 1 0 0 0
1 6 12 10 9 0 0 0 14 38 33 12 6 91 115 111
128 114 91 73 73 60 37 45 79 93 110 117 123 128 131 131
125 120 117 116 116 112 108 99 87 83 86 102 111 116 119 119
116 108 91 51 40 37 31 31 30 30 30 31 32 31 31 31
31 31 32 31 31 31 31 30 25 24 27 28 22 2 0 9
26 29 29 30 28 29 29 28 28 28 28 28 28 28 27 27
44 20 0 0 0 4 0 0 2 29 23 22 13 0 0 0
0 0 0 12 2 0 0 0 0 0 13 29 0 0 0 0
3 16 18 11 9 0 0 0 13 36 34 18 15 100 120 111
132 120 69 58 88 77 54 73 100 105 112 119 122 125 130 130
128 125 123 119 117 113 109 103 98 95 101 106 111 116 118 113
109 104 96 76 46 42 36 31 31 31 31 31 32 32 31 31
32 32 32 32 32 31 32 31 30 29 28 27 23 5 0 11
26 29 29 30 29 29 29 29 29 28 28 28 28 28 27 27
40 22 0 0 0 6 0 0 1 32 25 21 13 0 0 0
0 0 0 10 2 0 1 9 2 0 12 28 0 0 0 0
1 6 17 4 0 0 0 0 10 37 35 21 11 96 119 113
127 84 81 91 85 92 88 85 96 105 112 117 120 124 127 128
126 125 126 125 122 116 111 105 101 101 104 105 111 118 117 110
107 106 100 93 66 44 40 31 31 31 31 31 31 31 31 31
32 32 32 31 32 32 32 31 31 30 28 27 25 10 0 15
27 29 30 30 29 29 28 28 27 28 27 28 27 27 27 27
33 29 12 4 1 11 8 3 1 31 24 21 13 0 0 3
4 0 0 10 2 0 9 15 7 0 13 25 0 0 0 0
0 0 12 2 0 0 0 0 7 35 35 17 6 70 122 114
117 85 116 97 106 104 94 87 94 102 112 117 118 122 125 125
124 127 126 126 123 121 114 110 107 106 104 106 112 118 113 107
104 107 106 103 88 51 41 32 32 31 32 31 32 31 32 31
31 32 31 32 31 31 31 30 30 30 28 27 24 18 12 21
28 29 30 30 29 29 29 28 28 29 29 28 28 27 27 27
34 31 32 32 26 29 30 27 23 37 24 18 12 0 1 13
12 2 0 10 9 4 14 14 12 2 13 25 0 0 0 0
0 0 12 4 0 0 0 0 4 33 32 11 6 30 122 113
119 99 117 100 107 111 93 89 90 101 110 115 116 119 124 125
126 127 127 126 126 123 117 114 112 107 104 104 108 108 98 98
102 113 118 117 101 62 40 31 31 31 31 31 31 31 31 31
31 32 32 31 31 30 31 30 30 30 29 26 23 21 22 25
29 29 30 30 29 29 28 28 29 28 28 28 28 27 27 27
34 31 14 8 12 21 29 37 42 42 30 17 12 0 1 11
8 2 0 14 35 32 35 34 32 29 33 27 0 0 0 0
0 0 13 5 0 0 0 0 2 32 31 7 6 9 96 114
124 102 106 94 99 106 97 94 94 101 109 114 115 116 121 123
125 127 126 125 122 121 120 117 115 110 106 103 102 103 103 108
114 118 111 107 100 56 42 31 31 31 31 31 31 31 31 31
31 31 32 30 30 31 31 31 30 30 29 27 25 25 26 29
29 30 29 30 28 29 29 28 29 29 29 28 29 28 29 27
37 32 8 0 0 2 4 13 40 40 28 17 14 0 0 1
0 0 0 12 38 38 42 40 41 45 48 34 8 9 6 1
0 2 15 8 1 1 0 0 1 25 30 7 6 3 42 120
115 120 112 107 82 99 100 91 92 98 108 110 112 115 118 122
124 125 127 125 123 123 123 122 117 112 107 97 98 100 114 117
103 86 86 99 86 40 46 33 31 31 31 31 30 31 31 31
31 31 32 32 32 32 32 31 31 30 29 28 27 27 28 30
30 30 30 30 30 30 30 30 29 28 29 27 28 28 28 28
37 32 5 0 1 20 15 18 40 38 24 19 19 11 0 0
0 0 0 11 38 38 40 40 41 48 50 43 29 29 27 23
21 22 24 18 15 13 12 9 13 24 30 12 8 1 7 99
120 112 118 126 99 99 102 94 95 100 106 110 112 115 118 121
122 124 124 123 124 123 125 123 119 115 107 94 98 96 105 64
22 69 70 79 54 50 49 33 31 32 31 31 31 32 31 32
32 31 32 31 32 31 31 31 30 30 30 29 28 28 30 29
29 29 29 29 29 29 29 29 28 28 28 28 29 28 28 27
40 34 4 0 0 15 24 26 39 33 19 18 20 9 0 0
0 0 0 11 34 33 36 36 37 38 37 37 33 34 34 32
32 33 33 31 28 25 23 21 22 27 34 20 16 3 0 48
119 114 124 130 122 114 101 96 96 100 104 111 113 116 117 120
122 124 125 124 124 125 124 123 121 115 106 92 104 97 84 99
111 111 92 55 44 62 49 34 32 32 31 31 31 31 31 31
31 32 32 32 32 32 32 31 30 31 30 28 28 29 30 29
29 29 29 30 29 29 29 29 29 29 28 28 28 28 27 27
41 34 4 0 0 2 9 25 40 32 19 21 20 3 0 0
0 0 0 11 37 32 33 33 33 31 29 31 34 35 37 36
35 34 33 33 32 36 34 31 29 32 38 26 22 9 0 20
88 117 123 125 121 117 100 96 96 100 104 111 114 117 117 120
123 124 123 124 122 120 124 122 120 115 104 96 110 113 111 112
109 97 78 53 46 58 47 33 31 32 32 32 31 31 31 31
32 32 32 31 31 31 31 31 30 30 30 29 30 31 31 31
30 30 30 30 29 29 29 29 28 28 28 27 28 28 27 27
42 36 5 0 0 0 0 21 40 31 19 19 19 18 15 11
9 7 5 15 40 32 32 32 32 33 33 36 36 36 40 43
42 35 33 33 35 42 41 39 37 37 33 21 18 9 0 8
59 119 128 126 125 112 99 97 95 102 105 107 111 113 116 119
121 122 123 123 123 123 123 123 119 113 102 100 112 112 112 107
104 88 85 73 41 55 49 33 32 31 31 32 31 31 30 30
31 31 31 31 31 32 32 31 31 31 30 31 31 31 31 30
30 30 30 30 26 20 26 29 29 28 28 28 28 27 27 26
42 35 4 0 0 0 0 15 40 30 18 19 22 38 41 39
37 40 40 40 42 34 34 34 34 35 39 42 40 39 41 46
44 36 32 29 33 43 41 38 38 38 34 23 17 10 0 3
38 89 118 124 119 86 95 96 97 100 105 109 109 113 115 117
118 122 122 122 122 125 124 122 118 112 101 108 114 110 107 103
103 82 84 91 45 48 48 33 32 32 32 31 31 31 31 31
32 32 32 32 31 31 31 30 30 29 30 30 30 31 31 30
30 30 30 26 16 23 17 29 28 27 28 27 27 26 26 26
42 34 2 0 0 0 0 15 40 31 16 19 22 43 47 46
46 47 48 48 46 34 31 31 30 32 39 44 42 38 39 38
38 36 33 29 29 36 32 32 35 36 34 27 22 18 2 0
20 61 83 87 61 55 92 93 96 100 104 108 111 113 115 114
116 118 121 123 122 125 124 122 117 108 103 108 107 112 112 107
96 86 74 71 47 42 43 33 33 32 32 31 31 31 30 30
30 31 31 31 31 30 30 29 30 30 30 31 30 30 31 30
30 29 29 17 27 24 19 29 28 28 28 27 27 26 25 25
42 33 2 0 0 0 0 14 40 30 14 20 20 33 38 39
40 41 43 44 43 14 10 7 6 9 14 29 43 39 26 16
20 22 20 26 30 22 6 4 6 13 17 27 26 23 9 0
10 48 78 85 55 70 88 91 96 99 102 109 111 112 115 114
115 118 120 123 121 125 122 122 116 106 108 109 113 118 108 97
90 84 71 54 40 40 40 32 32 33 32 31 31 31 30 31
31 31 32 32 31 30 29 29 28 26 26 27 31 31 30 31
31 30 29 18 30 19 26 28 27 27 27 26 27 24 19 18
41 33 2 0 0 0 0 11 35 27 13 19 17 20 22 22
22 23 24 26 29 6 0 0 0 0 0 15 42 31 6 0
0 2 7 22 33 21 1 0 0 2 11 23 18 18 12 0
1 32 78 101 87 77 86 91 96 100 104 109 111 112 112 114
114 117 119 119 123 124 120 121 114 108 107 104 105 93 77 75
79 70 51 44 32 43 40 32 32 32 31 29 29 27 27 28
29 31 31 31 29 16 14 11 10 8 8 18 31 31 31 31
30 30 28 18 28 16 25 21 18 25 27 25 25 8 0 0
41 34 2 0 0 0 0 11 36 29 12 18 17 26 28 28
28 27 27 27 28 9 1 0 0 0 2 20 41 21 0 0
0 0 1 24 34 23 0 0 0 0 9 20 5 5 6 0
1 19 72 104 92 82 84 86 92 98 102 106 111 112 114 115
115 115 117 118 120 123 122 119 114 111 101 68 70 64 73 77
78 63 58 62 41 48 40 24 21 19 16 14 11 8 8 10
18 31 31 31 29 10 4 4 3 4 4 16 31 31 32 31
31 30 30 12 9 2 10 3 0 4 4 2 1 0 0 0
37 29 2 0 0 0 0 12 39 30 11 17 17 27 30 30
30 30 31 32 30 9 2 0 0 0 3 19 38 13 0 0
0 0 0 21 33 23 0 0 0 0 8 21 5 6 8 2
0 11 62 98 95 87 84 86 91 96 103 106 109 114 115 115
116 114 114 117 118 119 124 122 117 110 79 73 80 93 93 93
88 77 68 72 46 47 36 5 3 7 7 8 3 2 1 1
11 30 31 30 28 9 4 4 5 4 5 16 32 33 32 31
30 16 10 0 0 0 2 0 0 0 0 0 0 0 0 0
30 23 14 10 7 6 7 18 35 27 14 19 20 29 31 32
31 32 32 34 33 8 1 0 0 1 2 10 36 10 0 0
0 0 0 22 32 23 0 0 0 0 5 21 6 5 5 3
0 4 53 89 100 92 88 87 89 96 102 104 108 111 114 114
116 115 115 116 118 122 124 123 119 106 90 110 115 110 100 85
73 63 55 50 37 45 32 4 2 6 6 7 2 1 1 0
9 29 31 30 28 8 5 5 5 4 4 14 31 32 31 32
30 5 0 0 0 0 0 0 0 0 0 0 0 0 0 0
33 32 31 29 28 27 26 26 27 26 24 24 24 26 26 25
25 26 26 28 31 11 0 0 0 1 3 6 35 8 0 0
0 0 0 20 31 20 0 0 0 0 0 21 9 4 7 3
0 0 38 81 99 94 92 88 88 94 97 104 107 108 111 112
115 114 117 115 118 119 122 122 118 109 107 114 116 115 108 92
65 51 45 47 42 40 27 4 1 6 6 7 3 1 1 1
8 29 30 31 28 9 4 4 5 4 3 10 31 32 31 31
30 11 1 10 11 13 16 16 19 16 0 0 2 8 0 1
33 32 31 30 28 27 26 25 24 24 23 23 23 22 22 22
22 22 22 22 27 19 2 0 0 1 2 4 33 7 0 0
0 0 0 18 33 22 2 0 0 0 0 21 9 2 4 4
2 5 30 76 100 98 96 92 89 92 97 100 105 107 110 113
114 116 115 115 117 110 97 120 117 114 114 116 115 112 106 92
82 80 74 69 50 36 25 5 2 6 7 7 2 0 1 0
8 29 31 31 29 13 7 7 8 9 9 11 27 29 30 29
30 14 13 29 28 28 28 28 27 10 0 0 0 2 17 18
31 30 30 28 27 26 25 24 23 23 22 22 22 21 21 21
21 21 21 21 23 15 0 0 0 1 2 5 33 7 0 0
0 0 0 13 33 22 2 0 0 0 0 20 13 0 0 2
3 6 24 72 98 101 99 96 91 89 90 98 106 108 110 111
113 115 114 112 115 112 105 117 114 113 113 112 114 113 108 101
99 97 84 71 53 34 25 5 1 5 6 6 2 1 1 1
8 29 31 30 30 17 11 11 10 10 10 12 25 30 32 32
31 15 22 30 29 28 27 27 27 8 0 0 0 0 19 19
17 16 16 14 13 12 12 11 10 10 10 9 10 9 10 10
11 13 16 20 22 8 0 0 0 0 0 3 32 8 0 0
0 0 0 11 35 22 1 0 0 0 0 17 18 0 0 3
4 5 20 71 96 103 102 101 97 92 90 94 99 105 107 109
111 110 113 112 113 115 116 116 113 112 113 114 114 115 111 106
106 105 91 72 49 33 25 6 1 3 3 3 1 0 1 0
6 28 30 31 30 14 6 7 7 6 6 8 26 31 31 31
27 9 28 29 29 28 27 27 26 7 0 0 0 0 15 18
0 0 0 0 0 0 0 0 0 0 0 0 0 0 0 0
0 2 14 19 20 6 0 0 0 0 0 2 32 13 0 0
0 0 0 9 35 25 8 4 4 4 6 21 22 0 0 3
7 3 19 71 94 104 105 105 102 94 89 91 96 102 104 106
109 111 110 110 111 111 113 113 112 112 113 114 115 117 117 113
111 106 95 81 50 33 25 6 1 1 0 0 1 2 3 0
6 27 30 32 30 15 4 4 5 5 4 7 15 10 12 13
8 22 30 30 29 28 27 27 25 3 0 0 0 0 10 18
0 0 0 0 0 0 0 0 0 0 0 0 0 0 0 0
0 2 18 19 18 11 5 4 4 6 13 9 30 28 20 18
21 21 21 27 40 29 32 33 33 35 39 42 32 13 12 11
10 1 21 70 92 106 108 106 100 100 91 88 90 95 102 102
104 106 109 109 107 108 110 112 113 114 114 115 116 118 119 116
111 94 84 90 53 31 25 6 1 1 0 1 3 1 2 0
5 26 30 31 29 15 4 5 5 5 4 4 9 27 25 23
27 30 29 28 28 26 25 23 21 3 0 0 0 0 8 17
0 0 0 0 0 0 0 0 0 0 0 0 0 0 0 0
0 2 19 20 18 24 28 24 25 28 29 29 30 39 46 42
42 43 45 46 45 31 33 38 39 42 48 49 41 29 26 19
8 5 30 71 90 106 109 110 107 103 94 89 89 92 97 96
99 101 103 103 104 103 104 107 110 112 114 115 115 117 118 119
109 81 81 95 57 30 24 7 2 1 1 3 3 1 2 0
5 25 30 32 30 16 5 4 4 4 4 2 16 32 31 30
30 30 29 28 26 7 3 1 1 0 0 0 0 0 6 16
0 0 0 0 0 0 0 0 0 0 0 0 0 0 0 0
0 1 19 20 19 25 31 27 30 31 28 24 23 32 43 43
42 42 43 44 43 32 27 32 36 40 43 43 38 28 26 17
7 4 41 72 89 105 111 113 114 108 102 92 92 90 95 95
96 96 99 102 101 98 99 100 104 107 111 111 113 115 115 113
103 70 89 96 54 29 25 8 2 1 0 0 2 1 3 0
3 25 29 31 29 15 4 4 4 5 4 2 17 32 31 31
30 30 29 27 22 0 0 0 0 0 0 0 0 0 6 16
0 0 0 0 0 0 0 0 0 0 0 0 0 0 0 0
0 0 19 20 19 21 23 22 25 28 29 23 23 25 25 26
27 27 27 27 29 27 25 27 30 30 27 25 27 28 26 16
7 9 49 74 86 104 111 116 116 112 104 97 92 91 92 95
94 96 95 98 97 98 97 97 98 97 102 106 106 106 108 105
92 60 91 88 45 29 26 9 3 1 0 0 1 1 3 1
3 25 29 31 30 17 3 4 4 5 4 2 15 31 30 30
30 30 29 28 24 0 0 0 0 0 0 0 0 0 5 15
0 0 0 0 0 0 0 0 0 0 0 0 0 0 0 0
0 0 17 20 18 15 14 17 19 24 27 23 23 25 20 21
21 22 23 23 26 28 30 32 34 33 30 27 26 27 23 12
5 14 58 76 84 102 112 116 117 113 106 101 95 91 91 93
95 95 95 96 94 97 94 97 96 97 94 93 98 97 95 93
71 58 88 67 32 29 26 9 3 2 1 2 2 2 2 1
3 24 28 30 29 17 3 4 4 4 4 2 12 31 31 30
30 29 28 27 26 7 0 0 0 0 0 0 0 0 5 16
0 0 0 0 0 0 0 0 0 0 0 0 0 0 0 0
0 0 16 21 17 13 2 2 4 6 9 8 15 25 24 28
28 33 36 32 31 34 34 38 40 40 34 28 27 27 22 8
21 37 66 78 85 96 111 117 119 114 110 103 98 93 90 91
95 94 94 97 98 97 99 97 94 89 93 88 82 81 82 74
56 61 63 38 31 30 27 10 2 2 2 1 1 1 2 0
2 22 27 29 28 17 3 4 4 4 2 1 7 29 30 30
29 30 29 28 28 18 2 0 0 0 0 0 0 0 1 8
0 0 0 0 0 0 0 0 0 0 0 0 0 0 0 0
0 0 14 20 17 13 0 0 0 0 0 0 14 27 31 38
35 43 47 26 14 15 16 19 26 40 36 30 29 26 14 8
69 22 69 80 85 97 107 117 120 113 111 104 99 96 92 94
96 94 93 93 95 97 96 93 94 90 88 80 73 65 55 48
43 37 32 34 32 30 28 11 2 2 2 1 1 1 2 0
2 21 27 28 27 21 12 15 12 8 14 13 5 26 30 30
31 30 29 27 19 31 4 0 0 0 0 0 0 0 0 6
0 0 0 0 0 0 0 0 0 0 0 0 0 0 0 0
0 0 13 20 18 17 1 0 0 0 0 0 15 26 28 37
24 26 37 15 0 0 0 0 7 36 37 30 28 24 7 20
76 14 74 83 87 95 107 112 118 118 108 109 103 99 93 93
91 91 92 94 94 92 89 87 90 86 82 75 65 57 50 38
27 27 33 34 32 31 28 12 2 1 2 1 1 1 1 0
2 21 26 28 27 27 26 27 26 24 26 25 13 16 30 29
26 22 22 15 0 2 1 0 0 0 0 0 0 0 0 5
0 0 0 0 0 0 0 0 0 0 0 0 0 0 0 0
0 0 10 20 16 17 3 0 0 0 0 0 14 25 27 34
9 1 21 15 0 0 0 0 4 33 37 29 28 22 3 27
94 15 78 84 88 92 103 112 113 114 114 111 107 103 99 96
92 91 87 87 85 83 83 83 80 76 77 68 64 55 44 35
23 32 32 33 32 30 27 12 1 1 1 1 1 1 1 0
2 20 27 27 29 28 28 29 28 27 27 27 24 6 12 7
2 3 0 0 0 0 1 0 0 0 0 0 0 0 0 4
0 0 0 0 0 0 0 0 0 0 0 0 0 0 0 0
0 0 9 20 17 12 0 0 0 0 0 0 15 24 27 34
9 0 19 17 0 0 0 0 1 30 37 29 27 19 3 29
104 26 76 88 87 96 100 110 112 116 114 111 107 103 103 100
97 91 90 85 81 82 79 76 70 69 65 60 51 38 21 20
17 31 32 32 31 30 28 13 2 2 2 1 1 1 1 0
1 21 29 30 29 28 28 27 27 28 17 9 6 1 0 0
0 0 0 0 0 0 0 0 0 0 0 0 0 0 0 3
0 0 0 0 0 0 0 0 0 0 0 0 0 0 0 0
0 0 7 20 16 11 0 0 0 0 0 0 16 23 27 34
9 0 17 20 0 0 0 0 0 26 36 29 25 17 9 38
81 63 55 90 87 95 101 108 113 112 113 110 108 105 105 102
99 96 90 85 77 73 68 64 59 51 44 35 24 11 13 31
11 31 32 33 32 31 29 15 3 3 2 2 2 1 1 2
8 24 30 31 29 29 28 26 26 26 5 0 0 0 33 19
0 0 0 0 0 0 11 6 1 0 0 0 0 0 0 0
0 0 0 0 0 0 0 0 0 0 0 0 0 0 0 0
0 0 6 19 16 10 0 0 0 0 0 0 15 22 27 33
8 0 15 21 0 0 0 0 0 24 37 27 21 17 14 41
55 83 36 81 90 93 102 107 113 112 112 113 115 109 102 102
99 96 95 85 75 68 58 51 42 30 21 27 40 17 48 39
13 30 30 31 31 29 29 24 18 17 13 13 13 7 3 10
18 27 30 31 30 28 28 27 27 25 3 0 0 21 79 87
9 0 0 0 0 0 4 4 0 0 0 0 0 0 0 0
0 0 0 0 0 0 0 0 0 0 0 0 0 0 0 0
0 0 5 19 16 11 0 0 0 0 0 0 12 24 27 34
10 0 13 23 2 0 0 0 0 21 37 27 23 15 15 43
26 80 77 49 88 95 98 108 112 115 115 115 116 112 109 106
101 100 96 86 75 62 48 38 36 42 59 65 42 47 87 33
14 21 19 28 30 30 28 28 26 23 20 19 18 9 0 14
22 27 31 31 30 28 27 27 19 9 0 0 0 6 17 20
2 0 0 0 0 0 1 0 0 0 0 0 0 0 0 0
0 0 0 0 0 0 0 0 0 0 0 0 0 0 0 0
0 0 4 19 17 12 0 0 0 0 1 0 11 25 27 35
19 4 11 24 3 2 2 1 0 20 36 26 19 19 20 47
19 57 101 54 62 95 99 105 114 118 117 119 116 110 110 108
106 103 92 82 71 61 58 79 97 103 100 89 51 60 66 28
18 29 31 26 25 24 27 28 28 25 21 21 20 12 0 15
24 27 29 29 29 27 26 26 13 0 0 0 0 0 0 0
0 0 0 1 1 2 1 1 0 0 0 0 0 0 0 0
0 0 0 0 0 0 0 0 0 0 0 0 0 0 0 0
0 0 3 19 17 12 1 0 0 0 6 5 8 28 28 35
20 13 10 22 1 6 6 0 0 15 33 23 19 26 37 54
19 26 77 108 56 74 97 103 107 117 122 119 117 115 115 113
111 105 100 94 85 83 98 112 114 110 106 79 62 78 55 17
29 25 38 39 37 39 29 30 32 29 29 23 22 15 0 16
25 27 29 29 29 27 27 26 15 0 0 0 0 0 0 0
0 0 0 0 0 0 0 0 0 0 0 0 0 0 13 24
0 0 0 0 0 0 0 0 0 0 0 0 0 0 0 0
0 0 2 18 16 13 8 9 9 11 17 19 22 34 30 35
17 20 13 23 6 10 10 6 6 18 28 20 28 24 37 44
29 27 37 112 101 51 80 103 108 116 120 124 125 122 118 116
112 107 102 99 100 108 115 116 115 113 101 60 49 63 64 13
28 16 26 42 41 42 41 27 16 23 42 36 23 17 1 17
25 27 28 28 27 26 26 25 18 3 0 0 0 0 0 0
0 0 0 0 0 0 0 0 0 0 0 0 0 0 28 32
0 0 0 0 0 0 0 0 0 0 0 0 0 0 0 0
0 0 2 18 16 14 24 30 31 33 35 36 38 41 33 34
8 16 15 27 21 22 21 20 20 21 21 20 43 49 40 34
45 22 30 66 101 98 55 83 109 115 121 124 123 121 122 123
120 117 113 113 114 115 117 118 117 108 78 55 19 9 59 18
21 8 17 34 32 33 37 44 29 26 29 24 12 17 18 20
24 25 26 27 26 26 26 25 25 9 0 0 0 0 0 0
0 0 0 0 0 0 0 0 0 0 0 0 0 5 29 29
0 0 0 0 0 0 0 0 0 0 0 0 0 0 0 0
0 0 2 18 16 15 29 36 37 37 38 39 41 44 38 34
7 5 10 27 22 23 23 23 24 25 25 31 54 55 43 32
42 34 28 20 100 50 81 51 92 114 122 125 127 124 123 122
119 117 117 117 118 120 121 120 116 90 61 62 9 1 34 24
21 6 0 21 46 46 44 38 70 64 45 30 36 50 59 32
30 29 28 26 26 25 26 25 21 1 0 0 0 0 0 0
0 0 0 0 0 0 0 0 0 0 0 0 0 9 19 18
0 0 0 0 0 0 0 0 0 0 0 0 0 0 0 0
0 0 1 18 17 15 20 23 22 22 21 21 21 20 24 32
7 1 7 28 26 28 29 39 49 48 59 51 58 63 48 26
27 43 33 12 47 9 59 61 57 105 121 125 128 126 123 124
123 122 124 123 123 123 122 119 103 69 56 42 1 1 27 17
31 19 1 9 25 29 17 22 50 66 49 36 66 92 100 87
84 51 34 35 29 27 26 26 22 0 0 0 0 0 0 0
0 0 0 0 0 0 0 0 0 0 0 0 0 1 1 0
0 0 0 0 0 0 0 0 0 0 0 0 0 0 0 0
0 0 1 17 15 11 4 1 1 2 3 5 6 7 16 32
8 0 5 28 27 44 47 35 47 57 51 54 53 69 49 36
22 38 52 18 24 0 32 71 56 72 115 124 126 128 126 127
127 127 127 128 126 121 119 114 81 53 56 14 0 3 30 33
49 37 8 23 36 34 18 18 41 70 54 32 45 97 84 77
80 75 68 57 42 34 31 27 14 0 0 0 0 0 0 0
0 0 0 0 0 0 0 0 0 0 0 0 0 0 0 0
0 0 0 0 0 0 0 0 0 0 0 0 0 0 0 0
0 0 1 17 16 13 6 1 2 2 4 5 7 7 17 31
12 4 9 31 40 49 34 22 48 42 36 40 54 45 22 29
13 24 51 33 27 0 8 54 73 59 88 123 130 129 131 130
125 127 132 132 130 124 120 100 67 54 25 9 0 15 44 44
41 35 9 23 56 63 44 41 21 43 41 25 21 59 65 72
74 79 67 82 88 51 31 38 31 17 3 0 0 0 0 0
0 0 0 0 0 0 0 0 0 0 0 0 0 0 0 0
0 0 0 0 0 0 0 0 0 0 0 0 0 0 0 0
0 0 1 18 16 12 8 6 6 7 7 8 10 9 20 35
26 32 30 21 20 34 32 53 63 52 53 40 41 40 19 20
17 26 30 46 38 3 16 40 71 63 72 103 129 132 131 130
129 133 133 134 132 128 116 104 54 21 32 21 12 52 29 44
46 42 11 16 32 53 42 35 28 41 35 11 9 48 91 101
104 102 99 72 70 52 13 13 32 38 31 12 7 0 0 0
0 0 0 0 0 0 0 0 0 0 0 0 0 0 0 0
0 0 0 0 0 0 0 0 0 0 0 0 0 0 0 0
0 0 4 20 17 13 10 9 10 10 11 12 12 10 19 31
29 42 40 26 27 32 50 51 34 17 22 23 59 64 39 40
55 32 25 34 44 4 28 75 59 70 77 91 123 135 135 132
133 134 134 135 135 135 135 108 35 21 31 12 53 47 51 56
58 63 30 37 49 50 22 22 22 50 63 41 27 49 105 105
109 101 81 63 80 95 41 29 45 47 30 17 24 14 0 0
0 0 0 0 0 0 0 0 0 0 0 1 2 0 0 0
1 1 1 1 3 3 3 4 5 5 5 7 7 8 9 10
10 11 12 14 13 12 9 8 9 10 11 12 13 11 16 31
33 39 76 88 93 55 24 36 30 15 20 36 75 70 30 31
88 62 16 28 43 18 1 26 41 77 114 126 134 136 136 136
136 136 136 136 136 135 125 49 23 17 13 45 40 50 48 49
60 73 28 33 60 66 53 38 35 37 49 39 27 33 76 80
80 79 96 99 82 75 43 17 24 43 46 30 29 25 10 0
0 0 0 0 0 0 0 0 0 0 0 8 7 0 0 0
18 18 18 17 16 16 15 15 15 14 14 13 13 12 12 12
12 12 12 12 12 12 10 9 10 10 11 13 16 23 40 50
54 83 106 113 118 72 31 60 50 36 42 47 56 42 14 32
89 87 51 31 24 43 16 3 20 44 107 126 133 136 136 135
135 135 135 135 135 134 80 16 14 7 28 57 36 37 46 69
71 70 13 11 32 56 51 35 31 39 60 47 23 24 82 106
102 113 110 104 94 83 73 27 27 53 57 36 21 25 26 14
4 0 0 0 0 0 0 0 0 0 0 18 7 0 0 0
22 23 22 19 18 16 16 15 14 13 13 13 13 12 12 12
12 12 12 12 12 11 11 10 10 10 12 33 50 54 60 76
91 74 75 82 81 44 20 60 45 43 38 40 64 64 30 39
115 106 89 59 17 32 35 3 9 23 55 121 130 134 135 136
135 136 135 135 134 131 45 11 12 9 54 48 35 59 72 81
72 76 17 9 24 33 27 17 15 23 60 67 36 31 68 96
92 106 104 87 69 59 74 35 31 50 63 53 33 34 31 30
22 0 0 0 0 0 0 0 0 0 0 22 3 0 0 0
20 20 20 19 18 16 15 15 14 14 13 12 12 11 10 10
9 8 9 8 8 8 10 10 10 13 33 44 41 76 80 81
82 92 72 71 79 39 31 56 25 21 27 54 74 73 35 36
99 93 102 62 32 35 44 7 6 14 31 60 111 134 135 136
135 135 134 134 133 98 36 15 15 39 48 61 103 118 116 115
115 112 44 26 39 45 28 16 19 15 28 45 25 15 24 65
67 69 74 65 69 64 53 13 6 23 38 27 11 11 11 21
19 17 0 0 0 0 0 0 0 0 0 14 0 0 0 0
21 19 19 17 15 14 12 11 9 7 5 4 3 2 2 2
4 4 7 7 7 8 9 10 24 43 43 26 38 86 92 103
108 105 96 97 104 54 44 71 36 39 39 50 66 55 22 17
82 75 85 82 62 60 52 26 5 20 22 22 36 56 100 133
136 134 134 134 93 48 34 42 16 66 52 101 117 113 115 116
116 116 50 43 65 80 66 44 49 40 28 49 28 7 13 68
81 73 82 66 90 107 101 39 5 17 38 29 11 10 12 23
17 14 15 0 0 0 0 0 0 0 0 1 0 0 0 0
4 4 3 3 3 3 2 1 1 0 0 0 0 0 0 0
3 5 6 8 7 9 20 50 54 44 40 20 50 84 80 87
90 82 94 113 109 38 43 50 37 42 29 27 43 43 15 15
79 87 96 96 100 95 67 43 33 65 56 36 26 31 49 71
130 135 134 117 49 24 31 35 40 89 65 99 98 103 111 101
107 108 38 23 43 63 66 43 40 33 52 74 55 30 34 99
116 115 111 112 118 116 108 87 32 31 56 55 48 45 42 18
12 23 50 9 0 0 0 0 0 0 0 0 0 0 0 0
0 0 0 5 14 16 17 16 17 17 16 16 15 4 0 0
2 5 6 7 9 28 46 38 32 43 43 32 53 106 108 110
105 94 74 94 89 40 38 37 15 19 19 24 44 41 19 28
109 125 126 130 131 112 55 60 42 52 77 76 50 39 24 58
100 123 132 83 39 44 50 46 54 104 121 127 128 131 132 131
130 123 63 46 62 85 73 47 54 54 43 62 54 33 32 74
101 112 116 109 109 101 101 103 39 36 68 72 56 42 37 13
1 22 83 38 1 0 0 0 0 0 0 0 0 0 0 0
4 7 9 15 36 36 35 32 30 27 25 27 28 17 1 1
3 5 6 11 33 43 23 29 45 67 65 30 59 101 100 110
114 104 107 114 113 40 52 51 15 19 22 34 73 78 55 41
100 117 114 110 108 105 82 78 49 41 78 60 43 42 59 50
77 66 97 67 36 48 77 60 51 106 133 131 132 133 132 133
132 127 71 51 62 88 83 56 61 58 49 77 71 41 42 86
113 110 113 109 112 128 128 123 74 35 46 56 44 33 36 28
11 27 74 50 29 0 0 0 0 0 0 0 0 0 0 0
4 8 11 15 37 34 34 32 30 28 26 33 36 29 8 6
5 4 14 31 33 29 26 22 24 47 55 31 48 80 70 78
102 95 101 109 104 33 78 71 40 43 53 65 83 78 46 26
77 124 129 129 131 131 130 113 93 59 82 93 65 64 67 60
50 71 78 52 32 57 82 55 50 108 132 133 132 132 131 132
131 129 70 43 55 91 91 56 60 54 52 80 84 55 49 77
120 121 125 124 123 127 128 125 86 44 64 86 69 49 53 40
22 56 77 58 82 34 0 0 0 0 0 0 0 0 0 0
18 24 23 22 35 41 41 39 37 35 33 32 31 27 14 11
10 20 39 52 60 38 32 36 35 55 68 32 58 82 70 67
80 74 72 76 81 38 64 53 47 53 43 46 74 81 56 48
93 137 136 135 134 134 133 133 131 81 68 98 87 63 66 65
50 65 52 30 38 78 87 57 52 111 133 133 133 133 133 133
133 129 81 51 55 95 95 60 53 55 56 72 89 58 47 69
120 123 128 130 128 127 129 126 97 45 52 86 74 53 54 45
15 75 114 63 70 77 29 0 0 0 0 0 0 0 0 0
20 23 23 22 26 32 30 27 24 22 20 18 17 15 7 5
18 46 21 39 47 40 36 36 35 57 62 43 87 113 111 108
111 113 114 117 113 59 86 72 49 52 56 68 98 91 64 52
82 136 135 135 135 135 134 134 135 104 48 94 92 72 61 58
55 57 30 33 67 95 85 56 48 112 135 133 133 133 131 132
130 127 81 53 57 89 93 60 54 57 57 73 86 67 48 62
119 120 124 126 124 126 130 129 105 48 50 82 82 57 53 45
33 85 108 88 60 61 54 1 0 0 0 0 0 0 0 0
24 24 24 23 22 21 19 18 18 17 17 16 16 15 5 11
41 50 25 53 62 28 13 15 16 36 37 30 66 102 113 112
111 97 108 123 116 61 92 81 65 68 65 67 96 88 65 50
77 136 136 136 135 135 135 134 131 117 44 74 100 83 67 51
62 43 30 52 75 92 82 54 51 115 133 133 134 134 133 132
131 128 80 50 53 91 97 67 60 59 55 70 84 67 47 55
112 121 126 124 127 126 131 130 116 52 47 69 80 61 57 47
52 113 113 86 90 71 63 50 0 0 0 0 0 0 0 0
19 17 14 12 8 6 4 3 12 17 17 16 16 14 9 37
68 92 21 34 45 24 12 11 15 32 36 51 95 132 132 130
125 117 121 115 104 55 87 82 64 64 62 61 96 92 67 53
74 136 136 135 134 136 135 134 134 123 54 49 94 95 69 52
58 34 53 64 85 96 85 57 57 119 133 133 133 133 133 132
132 129 82 47 53 86 94 72 61 57 64 66 83 73 52 50
107 122 127 126 127 124 127 131 121 49 46 68 81 66 54 48
64 119 123 87 95 96 95 111 8 0 0 0 0 0 0 0
1 0 0 0 0 0 0 0 9 18 16 16 17 19 36 73
100 81 20 39 59 52 37 33 34 50 50 42 87 132 131 131
125 117 127 137 116 50 88 80 62 66 61 56 94 95 74 48
68 135 136 135 133 134 134 134 134 127 63 49 81 97 77 59
61 41 43 62 91 97 84 53 60 121 133 132 132 132 132 133
132 130 87 46 48 82 88 74 64 56 60 67 86 79 51 40
95 124 129 130 129 127 130 131 124 41 41 64 79 66 56 53
63 119 122 105 107 86 98 122 34 0 0 0 0 0 0 0
1 1 2 3 4 6 8 9 15 17 17 16 18 36 53 93
86 89 35 64 75 66 49 49 53 46 51 38 80 132 130 129
118 114 133 136 113 53 85 77 62 63 60 60 91 96 77 53
69 133 134 135 134 134 134 134 135 130 64 51 70 100 74 70
55 54 62 61 94 101 81 55 55 123 133 133 134 134 133 133
133 132 89 46 50 80 87 69 61 56 60 64 88 84 56 47
86 125 129 127 126 127 129 130 127 54 42 60 82 64 53 54
54 113 116 110 114 112 102 112 50 0 0 0 0 0 0 0
19 19 21 21 20 20 20 19 20 21 21 22 32 42 74 90
100 100 39 48 56 50 26 28 31 39 54 45 76 130 128 130
113 116 135 137 115 59 87 81 63 63 59 61 91 97 81 52
66 130 136 136 135 135 134 133 134 130 69 51 64 96 76 70
46 50 44 59 93 100 82 58 55 123 134 133 133 133 132 132
131 131 98 52 52 82 90 67 62 64 61 65 89 79 54 50
79 126 130 131 129 128 127 131 128 59 38 58 81 73 54 57
53 105 114 113 111 113 110 98 67 0 0 0 0 0 0 0
26 26 26 26 26 26 25 25 26 23 21 30 41 71 97 95
107 86 38 58 81 77 61 65 62 61 59 46 73 136 135 130
111 118 136 135 111 57 85 80 64 60 59 62 91 98 84 52
67 129 135 133 133 131 133 133 133 132 74 54 63 86 71 79
55 57 58 62 92 95 77 48 51 122 133 133 133 132 132 132
132 132 101 50 55 82 88 72 63 64 62 63 86 82 57 48
74 125 129 129 127 125 128 130 128 72 36 56 79 79 52 55
48 99 118 113 115 113 117 86 80 0 0 0 0 0 0 0
26 27 28 24 23 22 21 21 24 23 22 51 78 79 93 100
82 57 46 52 75 86 62 60 59 71 69 51 67 134 136 131
109 120 136 136 118 60 86 82 65 65 69 67 89 98 82 55
63 126 136 135 135 134 134 133 134 134 80 56 64 85 64 83
56 46 63 62 90 95 80 51 54 123 134 132 132 131 131 132
131 130 104 52 51 81 92 78 62 64 59 60 80 83 60 50
69 125 129 128 128 123 125 131 129 86 39 54 82 76 52 49
48 91 118 112 113 119 117 78 86 5 0 0 0 0 0 0
24 25 28 26 27 27 27 27 27 28 30 84 114 95 95 84
80 65 53 51 72 88 64 56 57 75 73 48 61 132 137 134
110 124 136 136 117 56 83 83 64 68 65 63 85 96 77 53
58 125 135 134 134 134 133 133 133 133 79 52 67 87 53 75
45 50 60 65 87 93 73 43 41 111 121 117 117 108 107 107
109 109 89 23 24 51 65 59 36 38 37 34 51 65 61 43
51 120 132 129 130 123 124 131 127 90 41 54 87 83 57 49
43 84 120 119 107 106 118 76 92 12 0 0 0 0 0 0
32 32 31 32 31 31 30 30 29 30 51 112 122 69 73 76
97 106 55 46 72 88 66 56 54 84 74 42 60 131 137 134
110 127 136 136 111 51 83 75 58 63 61 63 86 98 78 54
57 125 135 135 135 135 134 133 134 133 71 47 59 74 53 62
29 29 38 36 61 69 55 29 35 100 123 117 117 118 124 124
128 121 101 41 51 73 92 73 45 46 48 51 68 66 50 30
35 90 93 98 96 94 111 113 108 76 25 41 71 65 41 47
48 78 119 117 87 49 96 75 99 21 2 0 0 0 0 0
35 35 33 34 33 34 30 31 30 32 86 117 119 40 75 88
120 90 48 41 65 83 68 53 55 91 65 39 56 131 138 134
112 131 135 135 107 49 81 78 63 58 59 61 85 92 78 57
60 122 136 127 104 101 99 99 108 112 38 20 40 67 72 79
52 38 54 53 77 86 77 43 46 107 133 125 129 130 129 129
130 124 107 45 49 62 93 75 46 49 52 49 73 77 65 42
50 106 124 124 120 118 107 116 120 90 27 34 67 71 41 22
22 64 118 111 61 40 44 73 103 25 9 0 0 0 0 0
33 34 31 34 32 33 31 31 30 43 109 118 113 57 91 89
106 77 50 35 62 85 72 53 60 89 64 37 58 130 137 132
114 131 136 136 99 26 66 76 66 59 58 62 77 76 55 27
27 90 106 114 123 129 126 124 126 130 64 44 57 82 75 74
50 44 58 53 85 94 73 41 32 91 121 107 112 104 105 97
109 96 88 25 19 33 57 47 26 29 31 30 49 52 39 23
29 87 115 117 113 115 118 124 121 90 29 44 78 75 45 44
42 61 108 99 68 40 29 64 99 30 18 0 0 0 0 0
