P2
128 120
151
39 38 38 38 38 38 37 36 37 36 36 35 35 35 34 34
33 32 32 32 31 30 30 30 29 29 28 28 28 27 26 26
26 25 24 24 24 23 22 22 22 21 21 20 19 20 19 19
19 19 18 18 19 21 23 23 24 23 17 11 19 24 21 20
20 19 19 17 17 17 16 15 12 12 13 16 18 19 19 19
18 19 19 20 21 21 21 21 21 21 21 22 22 23 22 23
23 23 24 24 24 24 25 26 25 26 25 26 26 27 27 27
27 27 28 28 28 29 29 29 28 27 27 28 28 29 29 29
38 38 37 38 37 37 37 36 36 36 35 34 34 34 34 33
33 32 32 31 30 30 30 29 29 29 28 27 27 26 26 25
25 24 25 24 24 23 22 22 21 21 21 20 20 20 19 19
18 19 18 18 19 21 23 24 24 23 17 13 17 25 22 21
20 20 19 19 20 18 16 16 13 13 14 16 18 19 18 19
19 20 20 21 21 20 21 21 21 21 22 22 22 23 23 24
23 23 24 24 24 24 24 26 25 26 26 26 26 27 26 26
27 27 28 27 27 26 26 27 28 28 29 29 29 29 29 28
38 38 38 37 37 37 37 37 36 36 35 35 35 34 34 33
33 32 32 31 31 31 29 29 29 28 28 28 27 27 26 25
26 25 25 24 24 23 22 22 21 21 21 21 21 20 20 19
20 19 19 19 20 21 24 24 24 23 18 15 16 25 22 21
20 20 19 19 19 17 16 17 14 15 15 18 20 19 20 20
21 21 20 22 21 21 22 22 22 22 22 22 23 23 23 23
23 23 24 24 24 25 25 26 26 26 27 27 27 28 27 26
25 27 27 27 28 28 29 29 28 28 29 29 28 28 28 29
38 37 37 37 37 36 36 36 36 35 35 34 34 34 34 33
33 32 32 32 31 30 30 30 29 28 28 28 27 27 26 25
25 25 24 24 24 23 23 23 22 21 21 20 21 20 20 19
19 19 19 19 20 22 24 24 25 24 18 15 14 24 21 20
21 21 20 19 19 18 18 17 15 16 16 18 20 20 20 21
21 21 21 21 21 22 22 22 22 22 22 22 22 22 23 23
24 24 24 25 24 25 25 25 26 25 25 25 25 24 25 28
28 27 28 28 28 28 28 28 28 28 28 29 29 29 29 29
38 37 37 37 36 37 37 36 36 35 35 35 34 34 34 33
32 32 32 32 31 30 30 30 29 29 28 28 28 27 27 26
25 25 25 24 24 23 23 23 22 21 21 21 20 20 20 19
20 19 19 20 21 23 25 25 25 25 19 15 12 23 22 20
21 21 20 19 20 18 18 18 15 15 17 19 21 20 21 21
21 22 22 22 21 21 22 22 22 22 22 22 23 23 23 23
24 25 24 25 25 25 25 25 24 25 25 25 26 27 27 27
28 28 27 27 28 28 28 28 28 29 28 29 28 29 29 29
37 37 37 37 36 36 36 36 36 35 35 34 34 33 34 33
33 32 31 31 31 31 30 30 30 28 28 28 27 27 26 26
26 25 25 25 24 24 24 23 23 22 22 21 21 20 20 20
19 19 20 20 21 22 25 25 26 25 19 12 8 22 23 22
22 21 21 20 21 18 18 18 17 16 18 20 20 21 21 21
21 21 22 22 22 22 22 23 22 23 23 23 23 23 24 24
24 24 24 24 23 23 23 24 25 26 26 27 27 27 27 28
29 28 28 28 28 28 28 28 28 28 28 29 29 29 29 29
37 36 37 36 36 36 36 35 35 35 35 34 34 33 33 33
33 32 31 31 31 30 30 29 29 29 28 27 27 27 26 26
25 25 25 25 24 23 23 22 22 22 21 21 21 21 20 20
20 20 20 20 21 23 25 25 25 24 18 15 14 23 24 22
22 22 21 20 21 19 19 18 18 16 19 21 22 21 22 22
22 22 22 22 23 22 22 22 23 23 23 23 23 23 24 23
23 23 23 24 25 25 26 26 26 26 27 27 27 27 28 28
29 28 28 28 28 28 29 29 28 27 28 28 28 28 28 28
45 42 38 36 36 36 36 35 35 35 35 34 34 33 34 33
33 32 32 32 32 31 30 30 29 29 28 28 27 27 27 26
26 26 26 25 25 24 24 24 23 22 22 22 21 21 21 21
20 20 20 21 21 23 26 26 26 26 19 17 16 23 24 23
23 22 21 21 22 19 19 19 18 17 19 21 22 22 22 23
22 22 23 23 23 23 22 23 23 23 23 23 24 24 24 24
24 25 25 25 26 26 26 27 27 27 27 27 27 27 28 28
28 28 28 29 29 28 29 29 28 28 29 29 28 29 29 29
51 50 48 37 36 36 36 35 35 35 35 34 34 34 33 33
33 32 32 32 31 31 30 30 29 29 29 28 29 27 27 26
27 26 25 25 25 24 24 24 23 23 22 22 22 22 21 21
21 20 20 20 22 24 26 26 27 25 20 17 18 22 25 23
23 23 22 21 22 20 19 19 19 17 20 21 23 23 23 22
23 23 23 23 23 23 23 23 22 23 22 23 24 24 24 26
26 25 25 26 26 27 26 26 27 27 28 28 27 28 27 28
29 28 29 29 28 28 29 28 28 29 28 28 28 29 28 29
22 48 48 37 36 36 35 36 35 35 35 34 34 34 33 33
33 33 32 32 31 31 30 30 29 28 28 28 28 27 27 27
26 27 26 25 26 25 24 24 24 23 23 22 22 22 21 21
20 21 21 21 22 24 27 27 27 27 20 17 20 21 25 23
23 23 22 22 22 20 20 20 19 17 21 22 23 23 23 23
23 23 23 23 23 23 22 23 23 23 24 24 25 25 25 25
26 25 26 26 26 26 26 27 27 27 27 27 28 28 28 29
30 29 29 29 29 29 29 29 29 28 28 29 28 29 30 29
3 46 48 37 36 36 36 35 36 35 34 34 34 34 34 33
32 33 32 32 31 31 31 30 30 30 29 29 28 28 27 27
27 26 26 26 25 25 24 24 24 24 24 23 22 22 22 22
22 21 21 22 22 25 28 27 28 26 20 19 22 20 26 24
24 23 23 22 23 22 20 21 20 18 21 22 23 24 23 23
23 23 23 23 24 24 24 24 24 24 24 25 25 25 26 26
26 26 26 26 27 27 27 27 27 28 27 27 29 28 29 29
29 29 29 28 29 29 29 29 29 29 29 29 29 29 29 28
3 45 48 37 36 36 36 36 35 35 35 34 34 34 34 34
33 32 32 32 31 31 30 30 30 30 29 28 29 29 28 27
27 27 26 26 26 25 25 25 24 23 24 23 23 23 22 22
22 21 22 22 23 24 27 28 27 27 21 18 23 19 25 25
24 24 23 22 23 22 21 21 20 18 21 22 24 23 23 23
24 24 24 24 25 24 24 24 24 25 25 25 25 25 26 26
27 26 26 26 27 27 27 27 27 28 28 28 28 29 29 29
30 29 28 29 29 30 30 29 29 29 28 28 29 29 29 29
2 44 48 37 36 36 35 35 35 35 35 35 34 33 34 33
33 32 32 32 32 31 31 30 30 30 30 29 29 28 28 27
27 27 27 26 26 25 25 25 25 24 24 24 24 23 23 22
22 22 22 22 23 25 28 28 28 28 21 19 25 19 26 25
24 24 24 23 24 23 22 22 20 17 21 21 24 24 24 25
25 25 25 25 25 25 25 25 25 25 25 25 26 26 26 26
27 26 26 27 27 27 27 28 28 28 28 28 29 29 29 29
29 29 29 29 29 29 29 28 28 28 29 29 29 29 29 29
2 43 47 37 36 36 36 34 35 35 35 34 34 34 33 33
32 33 32 32 31 30 30 30 30 30 29 29 29 29 28 28
27 27 27 27 26 26 25 24 25 24 24 24 23 23 23 23
22 22 23 23 24 26 28 29 28 28 22 19 25 19 26 25
25 25 23 22 25 22 22 21 21 18 23 23 25 25 24 25
25 25 25 25 25 25 25 25 26 25 25 25 26 26 26 26
27 27 27 27 27 27 28 27 28 28 28 28 29 29 29 29
28 28 28 28 28 28 29 30 30 29 28 29 29 29 29 29
3 45 47 37 36 36 35 35 35 34 34 34 34 34 33 33
33 33 33 32 32 32 31 31 31 30 30 29 29 29 28 28
27 27 27 27 26 26 25 26 25 25 24 25 24 24 23 23
23 23 23 23 24 26 29 30 29 28 22 20 26 20 26 26
26 26 24 23 25 23 22 22 21 18 23 23 25 25 25 25
25 26 25 25 25 25 26 26 26 26 26 26 26 27 26 26
27 27 28 27 28 27 28 28 28 29 29 28 28 27 28 28
28 28 29 29 30 29 29 30 30 31 29 29 29 29 29 29
3 44 46 36 35 35 35 35 35 35 34 34 34 34 33 33
33 33 32 32 31 31 31 31 30 30 30 29 29 29 29 28
28 27 27 27 26 26 26 25 25 25 25 24 24 24 23 23
24 23 23 23 24 26 30 29 30 29 23 19 27 20 26 26
26 25 25 24 24 24 23 22 22 19 23 23 25 25 26 26
25 25 25 26 25 25 26 25 26 26 26 26 27 26 27 27
28 27 28 28 28 28 28 29 28 27 28 28 29 29 30 29
30 30 30 29 30 29 29 29 30 31 29 29 29 28 28 28
3 44 45 36 36 35 36 35 35 35 34 34 34 34 34 33
33 33 32 32 32 31 32 31 31 30 30 29 29 29 28 28
28 28 27 27 27 26 27 27 26 26 26 25 25 25 25 24
23 23 24 24 24 26 30 30 30 29 23 21 27 21 25 26
26 26 26 24 24 24 23 23 22 19 24 24 26 26 26 25
26 26 26 26 25 26 25 26 26 26 27 27 27 28 27 27
28 27 27 27 27 28 28 28 29 29 30 30 30 30 30 30
29 30 30 30 30 30 30 31 30 31 29 28 29 29 29 29
4 43 45 36 36 35 35 35 35 35 34 34 34 35 34 34
34 33 33 32 32 32 31 31 31 31 30 30 29 30 29 29
28 28 28 27 27 27 26 26 26 25 25 25 25 25 24 24
24 24 24 24 26 27 31 31 30 30 24 21 28 23 24 27
27 26 25 25 23 24 23 23 23 19 25 24 26 26 27 27
27 27 26 27 27 26 26 27 27 27 27 27 27 27 27 28
27 27 28 28 28 29 29 29 30 30 29 30 30 30 30 30
30 30 31 31 30 30 30 31 30 31 29 29 29 29 29 29
15 45 45 36 36 35 35 35 35 34 35 34 34 34 34 34
34 33 33 33 33 32 32 31 31 31 30 30 30 29 29 29
28 28 28 28 28 27 27 27 26 26 26 25 25 25 25 24
24 24 24 25 25 27 31 30 31 30 25 21 28 25 23 27
26 26 26 25 23 24 23 23 22 19 24 24 26 27 26 26
27 27 27 27 27 27 27 27 27 27 27 27 27 27 27 28
28 28 29 29 29 29 29 29 30 30 30 29 30 30 30 30
30 29 30 30 30 30 30 30 30 31 29 29 30 29 29 30
27 43 43 36 35 35 35 35 35 35 35 34 34 34 33 34
33 33 33 32 31 32 32 31 31 30 31 30 30 29 30 29
28 28 28 28 28 27 27 27 26 26 25 25 25 25 24 24
24 24 24 25 26 27 30 31 31 30 24 20 28 26 22 25
21 18 19 23 23 25 23 23 23 20 23 24 27 26 27 27
27 27 26 27 27 26 27 26 26 27 27 27 27 28 28 28
28 28 29 29 29 29 29 29 30 30 30 30 30 30 30 30
30 30 30 29 30 30 29 29 29 30 29 29 29 29 29 29
37 38 38 35 35 36 35 36 35 35 34 34 34 34 33 34
33 33 33 32 32 31 31 31 30 30 30 30 29 30 29 29
28 29 29 28 28 27 27 27 26 26 26 26 25 25 25 25
24 24 25 24 25 27 31 31 31 30 25 19 19 16 12 12
12 13 15 17 15 16 16 18 18 19 24 24 27 27 27 28
27 26 26 26 26 26 26 27 27 28 27 28 28 27 27 28
28 28 29 29 30 29 29 30 30 30 30 30 30 29 30 30
30 30 30 29 29 30 30 29 29 30 30 29 29 29 29 29
31 34 36 36 36 36 35 35 35 35 35 34 34 34 33 33
33 33 33 33 32 32 32 31 31 31 31 30 30 29 29 29
28 28 28 28 27 28 27 26 27 26 26 26 25 26 25 25
25 25 25 25 26 28 31 32 31 29 18 12 15 14 13 12
12 13 10 13 13 14 15 12 8 14 23 23 27 27 27 27
27 26 27 27 27 27 28 28 28 28 28 28 28 28 28 28
29 29 29 29 30 30 30 30 30 30 30 30 31 30 30 30
30 30 29 30 30 30 30 30 30 30 30 29 30 31 29 29
17 20 26 30 33 35 36 35 36 35 35 34 34 34 34 33
34 33 33 32 32 32 32 32 31 31 30 30 31 30 30 29
29 29 29 29 29 28 28 27 27 27 26 26 26 25 26 25
25 25 25 25 26 28 31 31 27 22 16 15 13 15 23 26
24 28 27 27 28 26 16 11 14 2 2 15 26 28 27 27
27 28 28 28 27 28 28 29 29 29 28 28 29 28 29 29
29 30 30 30 30 30 31 31 30 31 30 30 30 31 30 30
30 29 31 30 31 30 30 30 31 30 30 29 29 28 27 27
13 13 13 14 16 18 22 27 30 34 35 35 34 34 34 34
34 33 33 33 32 32 32 32 32 32 31 31 31 31 30 30
30 29 29 29 28 28 28 27 28 27 27 27 26 27 26 25
25 25 25 26 27 28 30 31 23 14 19 23 25 29 33 33
35 27 21 18 19 17 26 27 21 11 1 2 8 22 28 28
28 28 28 28 28 28 29 29 29 30 29 29 29 29 30 30
30 30 30 31 31 31 31 32 31 32 32 31 31 31 32 31
31 31 31 31 31 31 30 30 29 29 28 28 30 30 30 28
14 13 13 13 14 13 13 14 15 15 18 23 32 35 35 35
34 34 34 34 33 33 33 33 32 32 32 32 32 31 31 31
31 30 31 30 29 29 29 28 29 28 27 27 27 27 27 27
26 26 26 27 27 27 24 14 17 23 24 17 21 37 34 27
19 14 4 8 12 19 24 22 28 20 7 1 0 1 17 28
29 29 29 29 29 30 30 30 30 31 30 30 30 30 31 30
30 30 31 31 31 31 32 32 33 32 32 32 32 32 33 32
32 31 30 29 29 30 30 30 31 31 31 31 30 30 31 29
34 18 18 14 13 13 13 13 15 7 6 12 30 35 35 35
35 34 34 34 34 34 34 34 33 33 32 32 32 32 31 31
31 30 30 30 29 29 29 29 29 28 28 28 28 28 28 27
28 27 27 27 24 17 8 12 7 10 10 23 40 29 20 14
12 11 10 8 10 4 1 20 24 24 16 5 2 0 1 15
29 30 30 30 30 30 31 31 31 32 31 31 31 31 31 31
31 32 32 32 32 32 33 33 32 33 32 32 32 32 32 32
31 32 31 32 32 32 32 32 31 31 31 31 31 31 31 31
46 26 30 31 29 21 16 14 14 12 12 14 29 36 36 36
35 35 34 33 34 35 34 34 34 34 33 33 33 33 32 32
32 32 32 31 30 31 32 30 29 29 29 29 28 28 27 27
28 27 27 17 9 2 4 6 11 12 15 30 31 30 28 29
25 23 23 24 23 24 19 7 19 20 20 15 4 2 1 4
17 26 30 31 30 30 31 31 31 33 31 31 31 32 32 32
32 32 33 33 32 32 33 32 32 32 32 32 32 32 32 32
31 33 32 32 32 32 32 31 32 31 32 31 31 31 31 31
48 31 36 40 43 36 40 37 31 20 11 14 29 36 36 36
35 35 34 39 38 37 35 35 34 33 33 33 33 33 32 32
32 31 31 30 36 42 40 35 33 31 29 29 29 29 28 28
27 27 21 2 1 6 5 7 8 11 17 27 33 28 26 25
23 25 28 26 26 21 24 18 12 22 22 20 12 4 4 2
6 17 30 31 31 30 31 32 32 33 32 32 31 32 32 32
32 32 33 33 32 33 32 31 32 33 32 32 33 32 32 32
32 33 32 31 32 32 32 31 32 32 32 31 31 31 31 31
48 36 39 43 44 40 48 48 47 35 13 16 30 36 36 35
35 35 38 46 44 43 41 37 36 35 33 33 33 33 33 32
32 32 32 32 39 44 42 38 38 38 33 29 29 28 28 28
27 25 4 1 3 5 6 7 9 14 20 32 26 20 29 47
56 56 53 45 32 25 21 18 19 15 18 16 20 8 8 7
5 8 27 31 30 32 31 31 32 33 32 31 31 31 32 32
32 32 31 32 32 32 33 32 33 32 32 32 32 32 32 32
31 32 33 32 32 32 32 32 31 32 32 31 30 30 31 31
41 38 41 44 45 46 48 49 49 38 13 16 32 38 37 36
36 35 38 46 46 44 41 40 41 42 39 36 36 34 33 31
31 31 31 31 38 41 41 38 39 39 36 29 28 29 29 28
28 8 0 1 2 4 7 7 13 17 28 28 33 56 89 103
103 98 91 83 67 52 37 29 24 23 18 16 21 16 19 17
17 12 9 18 30 32 32 31 32 31 31 31 31 32 32 32
32 33 31 32 33 32 33 32 32 32 32 32 32 32 32 32
32 32 33 31 32 32 32 32 31 31 31 31 31 31 31 31
39 39 42 42 43 46 48 48 49 40 15 17 34 40 39 38
37 36 37 44 43 43 42 43 45 46 42 39 40 40 37 35
34 33 33 32 35 27 27 30 35 37 37 31 29 28 28 28
15 0 0 0 8 7 7 9 20 25 29 34 63 95 107 111
113 112 112 110 102 90 78 65 46 37 31 26 21 27 31 24
12 12 3 9 27 31 31 31 31 31 31 32 32 32 32 32
32 34 32 32 32 32 33 32 32 32 32 31 31 32 31 31
31 32 32 32 31 31 31 31 30 31 31 30 30 30 30 30
40 29 26 33 39 46 47 47 46 40 16 16 35 42 35 37
39 40 42 24 10 21 35 41 44 45 41 18 16 26 32 37
36 39 38 35 34 18 11 12 13 14 22 32 30 29 29 24
1 0 0 12 8 0 1 18 33 28 32 61 95 110 115 115
117 117 118 117 115 112 108 100 90 72 67 50 40 38 31 21
15 5 5 3 24 32 31 31 31 31 32 31 31 31 32 32
32 33 32 32 33 32 32 33 32 32 32 32 32 32 32 31
32 32 33 31 32 31 31 31 31 31 31 30 30 30 30 30
40 17 0 4 8 18 27 31 37 40 16 16 33 42 37 34
35 43 47 20 0 0 11 19 19 24 37 7 0 0 2 7
14 22 29 34 34 17 4 9 8 2 7 32 29 29 29 9
0 0 8 5 0 1 13 19 23 30 48 79 102 110 116 117
117 118 116 117 117 114 113 111 108 104 99 86 71 68 60 45
45 15 4 6 23 32 32 31 32 32 32 31 32 32 32 32
31 33 32 32 33 32 32 32 32 32 33 33 32 32 31 32
32 31 32 32 32 31 31 30 31 30 31 30 31 31 30 31
40 16 0 0 0 0 0 1 7 39 17 15 17 25 33 39
41 45 48 23 0 0 5 9 12 14 35 8 0 0 0 0
0 0 1 12 34 15 0 1 2 1 6 33 30 29 22 0
0 1 4 0 0 5 11 18 27 42 70 93 106 113 116 116
117 117 116 118 119 118 117 114 112 111 108 102 97 92 87 69
61 41 4 5 23 31 32 32 32 32 32 32 31 32 32 32
32 34 33 32 32 32 31 32 32 32 32 32 31 31 32 32
32 33 33 32 31 31 31 31 31 32 31 31 32 31 31 31
42 14 0 0 0 0 0 0 5 38 16 14 2 0 1 6
15 25 35 23 0 0 2 2 5 9 34 11 0 0 0 0
0 0 0 8 34 10 0 0 1 0 6 35 30 30 11 0
0 0 0 0 0 3 11 25 44 60 71 91 104 111 114 118
117 117 120 122 121 122 121 119 114 111 111 110 106 100 95 82
69 60 19 5 25 31 32 32 32 32 32 32 32 32 33 33
32 33 33 33 33 32 33 33 33 32 32 32 32 32 32 32
32 32 32 32 32 31 31 31 31 31 31 31 31 31 31 31
41 14 1 0 6 5 0 0 4 40 17 14 1 0 0 0
0 0 3 18 0 0 0 0 0 6 31 8 0 0 0 0
0 0 0 6 34 5 0 0 0 0 7 36 30 29 2 0
0 0 0 0 2 10 27 40 48 62 81 92 104 111 117 118
118 119 122 124 127 128 125 122 117 115 113 112 110 103 99 92
79 68 41 5 25 31 33 32 32 32 32 32 32 32 33 33
32 34 33 33 33 33 33 33 33 33 33 32 33 33 33 33
32 33 32 31 32 32 32 32 32 32 32 32 33 33 32 32
41 14 1 0 4 14 1 0 4 39 16 14 1 0 0 0
0 0 0 15 0 0 0 0 0 5 34 10 0 0 0 7
7 0 0 4 34 5 0 0 0 0 5 36 31 22 0 0
0 0 0 0 8 25 32 39 52 70 79 90 101 109 117 120
121 121 122 124 127 130 131 126 121 117 115 115 111 105 102 96
87 75 52 14 26 30 32 32 32 32 32 32 33 32 32 33
33 33 33 33 34 33 33 33 34 33 34 33 33 32 32 32
33 32 33 32 33 32 33 33 32 32 31 32 32 32 32 32
40 13 0 0 0 12 1 0 4 39 16 14 2 0 0 0
0 0 0 13 0 0 0 0 0 5 36 12 0 0 0 9
13 8 3 3 34 4 0 0 0 0 3 35 31 13 0 0
0 0 0 3 16 21 34 45 53 71 86 90 101 110 118 121
124 124 124 128 128 131 133 129 124 119 116 115 111 107 101 97
89 83 58 28 25 32 33 32 32 32 32 32 32 32 33 33
33 33 33 33 33 33 34 33 34 34 33 33 33 32 32 32
32 32 33 33 32 32 32 32 31 30 31 32 32 32 32 32
39 10 0 0 0 0 0 0 5 38 15 14 2 0 0 4
6 0 0 11 0 0 0 0 0 4 35 13 0 0 1 11
14 13 10 3 33 5 0 0 0 0 2 35 31 5 0 0
0 0 0 5 13 27 39 47 67 71 79 94 103 112 116 120
125 128 128 127 129 131 132 129 125 122 118 116 114 109 101 99
90 84 65 39 25 32 33 32 32 32 32 33 33 33 34 34
34 33 33 33 34 33 34 33 34 33 33 33 33 32 33 33
32 32 33 32 32 32 32 32 31 31 32 32 32 32 33 33
40 9 0 3 1 0 0 0 6 38 15 14 2 4 5 2
2 0 0 11 0 0 0 0 0 6 35 15 0 0 0 9
13 12 10 3 34 9 0 0 0 0 1 35 29 1 0 0
0 0 0 5 15 32 41 52 56 71 83 93 105 113 119 122
125 126 129 126 128 129 131 130 127 122 118 115 113 110 103 101
91 87 69 46 26 32 32 32 32 33 33 33 33 33 33 33
33 33 34 34 33 33 34 34 34 34 34 34 33 33 33 32
33 32 33 32 32 33 32 31 32 32 32 33 33 33 33 33
41 15 2 2 1 1 0 0 7 38 16 14 3 7 0 1
1 0 0 13 0 0 0 0 0 13 37 20 0 1 0 0
5 10 8 1 34 35 26 17 11 7 9 35 27 0 0 0
0 0 1 6 16 28 37 45 58 74 83 93 105 115 120 123
124 127 131 130 130 132 132 132 130 124 118 115 112 108 106 101
94 87 74 51 28 32 33 32 33 34 33 33 33 33 34 33
33 33 34 33 33 33 34 34 33 34 33 33 33 32 33 33
32 32 32 33 33 32 32 32 31 32 33 33 31 31 31 30
44 52 35 23 31 29 27 21 24 35 15 15 4 1 0 0
0 0 0 24 17 9 7 4 0 4 38 40 29 23 19 11
5 4 4 1 33 43 41 40 39 41 43 44 23 0 0 0
0 0 1 9 15 22 29 41 60 77 92 97 111 118 122 122
124 127 130 131 130 134 134 134 132 127 122 119 112 108 110 105
97 91 79 54 29 31 33 32 33 33 33 33 34 33 33 33
33 33 33 33 34 34 34 34 34 34 34 33 33 33 32 33
33 32 31 31 30 31 31 30 30 30 30 28 25 22 19 16
58 59 36 31 41 46 46 44 43 34 14 14 2 0 0 0
0 0 0 36 49 38 35 34 29 23 44 37 20 25 28 28
28 27 26 26 43 42 40 40 41 46 48 46 22 0 0 0
0 0 1 6 10 17 20 35 53 76 90 96 106 119 118 112
122 127 129 132 136 136 135 135 135 131 126 121 115 109 110 108
102 95 80 58 34 30 33 33 32 33 33 33 33 33 33 33
34 33 33 34 34 34 34 33 33 33 33 32 31 30 30 29
31 30 31 30 28 27 24 21 18 17 14 12 11 10 10 11
59 54 31 33 42 46 46 49 49 37 15 15 4 0 0 0
0 0 0 38 51 41 46 48 52 47 47 32 13 13 13 14
15 16 19 23 28 24 27 32 36 40 41 41 20 0 0 0
0 0 1 4 5 9 17 37 57 78 93 105 114 120 116 116
125 127 128 131 133 133 136 136 136 133 128 124 117 111 111 111
104 95 77 60 39 29 34 33 33 33 34 33 33 33 33 33
34 34 33 34 34 34 33 33 34 34 33 31 32 33 29 26
24 21 19 16 14 13 13 13 13 13 14 15 16 16 17 18
54 41 19 26 38 41 43 47 48 38 15 16 22 21 14 7
2 0 0 36 42 40 47 50 53 49 39 30 16 14 13 12
11 10 10 9 9 9 11 13 23 31 27 27 16 0 0 0
0 0 0 0 1 4 21 50 65 70 93 108 115 118 119 123
125 126 120 119 117 121 127 130 132 130 125 124 119 114 110 110
103 91 72 60 42 31 33 32 31 33 33 33 33 33 33 34
34 34 34 35 34 33 32 29 28 26 23 20 20 32 23 12
13 14 15 15 16 17 18 19 19 20 21 21 22 23 23 23
53 36 1 0 2 3 6 9 22 38 16 17 33 48 46 42
38 31 28 42 34 39 46 48 51 50 43 35 18 15 13 11
10 9 9 10 9 8 10 10 23 24 24 29 13 0 0 0
0 0 0 0 0 2 29 41 39 57 64 66 62 57 49 43
53 30 18 15 21 30 39 57 78 101 116 116 118 113 109 106
98 79 57 50 36 31 33 31 32 32 33 34 34 34 34 34
33 31 29 26 24 21 19 17 17 16 17 17 16 26 22 14
18 20 21 21 22 24 24 24 25 25 25 25 26 27 27 27
54 37 0 0 0 0 0 0 8 36 16 17 34 48 49 47
47 48 49 46 16 17 26 32 39 40 38 37 18 13 11 6
7 7 10 11 11 11 12 13 26 20 14 32 10 0 0 0
0 0 0 0 0 0 0 0 0 0 0 0 0 0 0 0
39 19 5 1 1 0 0 0 0 1 20 71 107 112 109 98
77 36 16 10 6 4 6 7 9 15 32 31 29 27 24 22
20 19 18 18 18 19 20 20 20 21 23 22 22 27 24 18
24 26 27 27 28 28 29 29 28 29 28 28 29 30 30 29
53 34 0 0 0 0 1 2 10 36 18 16 30 46 48 47
48 49 50 44 6 0 0 2 7 15 22 38 18 12 8 0
0 0 6 11 9 5 12 13 25 37 36 37 9 0 0 0
0 0 0 0 2 3 4 15 23 36 37 32 28 22 18 12
5 5 3 1 0 0 0 0 0 0 0 1 47 103 101 83
30 1 0 0 0 0 0 0 0 0 19 20 19 19 20 20
21 22 22 23 25 25 26 26 27 27 28 28 26 28 25 22
28 29 29 30 30 30 31 31 31 31 31 32 31 31 30 30
48 30 0 0 0 0 20 26 24 31 26 23 28 35 37 38
39 41 46 40 4 0 0 0 0 4 20 39 17 12 9 0
0 0 0 1 0 0 1 3 21 39 32 27 6 0 0 6
7 0 0 1 6 9 23 40 75 103 107 105 99 94 84 51
21 10 9 0 0 0 0 0 0 0 0 0 2 69 86 39
1 0 0 0 0 0 0 0 0 1 22 23 24 25 25 26
27 27 28 28 29 30 30 31 30 31 31 30 26 12 10 20
30 32 32 31 32 31 31 32 31 32 32 31 31 32 31 31
46 27 0 0 0 0 19 24 24 25 24 19 23 22 25 30
31 32 43 39 3 0 0 0 0 0 13 40 15 9 3 0
0 5 2 0 0 0 0 0 19 40 32 23 7 6 72 100
82 16 6 6 5 11 22 54 90 110 115 115 114 115 100 75
37 11 5 0 0 0 0 0 0 0 0 0 0 16 31 4
0 0 0 0 0 0 0 0 0 9 29 29 29 30 31 31
31 32 31 32 32 33 32 32 33 32 32 31 25 4 2 14
30 32 33 33 33 31 32 32 32 33 32 32 32 32 31 32
46 25 0 0 0 0 7 14 17 24 22 20 23 23 24 29
30 32 42 37 2 0 0 0 0 0 12 36 4 1 0 0
0 8 8 1 0 0 0 0 17 40 33 16 7 54 85 75
88 66 20 7 4 8 30 58 93 114 118 120 119 116 101 84
43 7 2 0 0 0 0 0 0 0 0 0 8 5 5 0
0 0 0 0 0 0 0 0 0 14 32 32 32 32 33 33
33 34 33 33 33 33 34 33 25 18 13 17 23 7 4 12
30 33 34 32 33 33 32 32 32 32 32 32 32 32 31 31
48 25 0 0 0 0 0 0 2 20 16 18 18 13 20 26
31 37 42 37 2 0 0 0 0 0 15 36 1 0 0 0
0 2 13 9 3 0 0 0 17 42 34 14 11 92 102 111
112 73 58 21 9 13 33 71 102 118 120 124 124 119 102 76
30 1 0 0 0 0 0 0 0 0 0 0 15 21 37 1
0 0 0 0 0 0 0 0 0 19 33 33 34 34 34 35
35 34 35 34 34 34 35 31 6 3 6 15 22 1 0 11
29 32 33 33 32 32 33 32 32 32 32 32 32 32 31 31
49 23 0 0 2 1 0 0 3 27 21 23 13 0 0 1
3 7 11 24 2 0 0 0 0 0 17 35 1 0 0 0
2 8 14 12 11 0 0 0 16 41 36 20 24 106 109 117
128 80 61 46 29 28 53 90 108 119 125 129 131 123 91 60
22 0 0 0 0 0 0 0 0 0 0 0 21 94 99 18
0 0 0 0 0 0 0 0 0 24 34 34 35 35 34 35
35 35 35 35 35 35 35 34 28 28 31 31 26 2 0 10
30 32 32 34 32 32 33 32 32 32 32 32 32 32 31 31
48 23 0 0 0 6 0 0 3 32 27 25 15 0 0 0
0 0 0 14 3 0 0 1 0 0 15 32 0 0 0 0
4 18 20 13 11 0 0 1 16 42 39 26 33 115 112 121
134 106 64 73 44 43 80 98 112 120 127 133 134 128 100 85
28 3 1 0 0 0 0 0 0 0 0 7 40 119 104 46
0 0 0 0 0 0 0 0 2 27 34 35 35 35 34 35
35 35 36 35 35 35 35 35 34 33 33 31 27 7 0 13
30 32 32 34 33 32 33 32 33 32 32 33 32 32 31 30
44 26 0 0 0 8 0 0 2 36 29 24 16 0 0 0
0 0 0 13 3 0 2 12 4 0 14 31 0 0 0 0
1 8 19 5 1 0 0 0 12 41 40 28 31 117 109 129
119 63 60 78 64 74 98 106 115 120 125 132 134 131 112 94
34 3 1 0 0 0 0 0 0 1 4 20 76 121 108 70
2 0 0 0 0 0 0 0 5 33 35 35 35 35 35 35
36 35 36 35 36 35 35 34 34 33 32 31 28 13 0 18
30 33 33 34 33 33 33 33 33 32 32 32 32 32 32 31
37 33 15 6 2 13 10 4 1 36 28 24 16 0 0 6
6 0 0 12 3 0 10 18 9 0 15 29 0 0 0 0
0 0 14 2 0 0 0 0 9 39 39 21 23 104 113 130
97 88 97 86 87 83 96 108 114 120 124 130 132 127 120 101
52 2 1 0 0 1 0 0 2 21 19 36 108 113 106 89
18 0 0 0 0 0 0 0 14 35 35 35 35 35 36 35
35 36 35 35 35 35 34 34 34 34 32 30 27 21 14 25
31 33 34 34 32 33 33 32 32 33 33 32 32 32 32 31
38 36 36 37 30 34 35 30 27 41 28 21 15 0 2 15
14 4 0 13 10 4 16 16 14 3 15 27 0 1 0 0
0 0 15 5 0 0 0 0 6 37 37 15 21 77 114 128
102 109 107 109 89 84 94 106 115 117 122 126 126 124 126 107
83 3 2 0 1 0 2 0 18 27 22 79 111 106 104 96
57 2 0 0 0 0 0 0 25 35 35 35 35 35 35 35
35 35 35 35 35 35 35 34 35 34 33 31 27 25 25 29
34 33 33 33 32 32 32 32 33 32 32 32 33 32 31 32
39 35 17 11 15 24 33 40 46 46 34 21 16 0 3 15
12 4 0 15 38 35 39 37 36 32 37 30 0 0 0 0
0 0 15 6 0 0 0 0 2 36 36 13 15 39 118 126
113 110 98 104 90 87 93 107 113 117 120 125 125 128 128 122
102 44 0 3 1 2 4 3 30 18 54 113 109 107 106 102
86 24 0 0 0 0 0 4 32 34 34 35 35 35 35 35
35 36 36 35 35 34 35 34 34 33 33 31 29 28 29 33
34 33 33 34 33 33 34 33 33 33 33 33 32 32 32 31
40 36 10 0 0 3 6 16 45 45 32 20 18 0 0 2
1 0 0 14 42 42 46 45 45 50 53 39 10 11 7 2
0 2 17 9 2 2 0 0 1 28 35 12 11 12 107 118
125 109 98 94 92 89 95 105 113 114 117 122 124 128 129 127
119 99 44 6 1 3 1 4 15 54 106 107 104 109 112 111
100 58 1 0 0 0 0 19 35 35 34 35 35 35 34 35
35 35 35 35 35 35 35 35 33 33 33 32 30 30 32 34
34 33 33 33 33 33 34 33 32 32 32 32 32 32 32 32
42 36 7 0 2 23 17 20 44 42 28 21 23 14 0 2
0 0 0 13 42 42 44 43 46 53 55 47 33 32 30 26
24 24 27 21 17 14 14 11 14 27 35 15 10 5 70 124
116 124 121 75 92 88 92 104 110 112 115 119 124 126 130 129
126 120 111 86 54 40 40 56 87 108 99 102 105 116 126 125
113 78 22 4 1 5 22 34 34 35 34 35 34 35 35 35
35 35 35 35 35 35 35 34 33 33 32 32 32 31 32 33
32 32 32 32 32 33 33 32 31 32 32 32 32 32 31 31
44 37 5 0 0 17 28 30 43 37 22 22 23 11 0 0
0 0 0 12 38 37 39 39 41 43 42 40 37 37 37 35
34 35 35 33 30 26 26 23 24 31 39 26 19 9 26 120
118 131 134 108 93 90 96 102 108 111 115 119 122 124 128 126
126 124 124 125 121 117 113 110 107 102 106 117 120 117 111 111
108 68 43 46 33 30 34 34 34 34 34 34 34 34 34 34
34 34 34 34 35 34 34 33 33 33 33 32 32 32 33 33
32 32 32 32 33 33 32 31 31 31 31 31 31 31 31 31
46 38 5 0 0 3 11 28 45 36 21 24 23 5 0 0
0 0 0 13 41 35 36 36 37 35 32 34 37 38 40 39
37 37 37 36 35 39 38 34 32 35 44 35 26 16 4 87
124 132 131 117 95 91 97 101 108 113 116 118 121 125 126 126
127 126 127 128 125 123 117 110 104 100 113 109 75 67 76 100
89 41 49 58 44 35 35 34 35 34 34 34 34 33 33 33
34 34 34 34 34 33 34 33 33 33 33 32 33 33 34 34
33 34 33 33 33 32 32 32 32 32 31 30 31 30 29 30
46 40 6 0 0 0 0 22 45 35 21 22 22 21 17 13
10 8 5 17 43 36 36 36 36 36 37 39 40 40 43 46
46 37 35 36 37 45 45 42 40 40 37 27 19 17 4 65
128 129 127 122 94 91 96 101 107 113 116 117 120 126 126 126
126 128 130 127 128 124 118 108 108 100 95 78 69 102 98 81
54 44 66 62 46 36 34 34 35 34 34 34 34 34 33 34
34 34 34 34 34 34 34 34 34 34 33 33 33 34 34 33
33 33 33 33 29 23 28 32 32 31 32 31 32 30 30 29
46 40 6 0 0 0 0 17 45 35 21 22 25 41 44 43
41 43 44 44 47 39 38 38 37 39 42 45 44 41 44 50
48 39 34 32 37 46 45 42 41 41 38 29 17 16 6 24
113 128 130 113 88 90 96 102 107 111 113 117 121 124 126 125
125 122 131 130 128 125 117 108 115 117 105 110 118 111 94 65
38 55 71 61 48 37 34 34 35 35 34 34 34 33 33 33
34 35 34 34 35 34 34 33 33 32 32 34 33 34 34 33
33 32 33 29 18 25 19 32 31 30 31 30 30 30 29 29
45 38 4 0 0 0 0 18 45 36 19 22 25 47 52 51
51 51 52 52 49 37 33 34 33 35 42 47 45 42 43 42
41 39 36 31 31 39 35 35 38 40 38 33 24 21 16 1
37 97 102 62 83 90 95 102 107 109 113 115 118 121 124 125
125 129 129 130 129 123 116 112 119 120 117 115 113 109 95 87
50 56 71 65 48 36 35 34 35 35 34 33 33 33 33 33
33 34 33 33 34 34 33 33 33 32 33 34 33 33 33 32
33 33 31 20 29 28 21 32 30 30 30 29 30 29 28 28
46 38 3 0 0 0 0 16 44 34 16 22 22 36 41 42
44 45 47 48 47 17 12 9 7 9 16 32 46 41 28 17
21 23 22 27 33 25 8 4 7 14 19 29 28 25 23 5
3 52 58 45 82 88 95 101 108 111 113 114 115 118 124 125
124 130 131 130 128 124 115 117 121 116 112 106 106 94 92 102
64 50 76 78 51 36 34 34 34 35 35 34 33 32 32 33
33 33 34 33 33 32 32 31 30 28 28 30 33 33 32 33
33 33 32 19 32 21 28 32 31 30 29 29 30 27 20 20
46 38 3 0 0 0 0 12 39 31 15 22 20 23 25 25
26 27 27 29 32 8 0 0 0 0 0 15 45 35 9 0
1 3 8 23 35 24 1 0 0 2 11 25 20 17 19 10
0 37 84 68 80 88 94 101 109 111 113 115 113 118 122 126
126 132 133 131 127 121 116 119 116 116 111 107 103 95 84 82
75 47 61 71 50 35 35 34 34 34 33 32 31 30 30 31
32 34 34 34 31 19 15 13 11 10 9 19 33 34 34 33
33 33 32 20 31 19 27 24 20 27 29 27 27 11 0 0
46 39 3 0 0 0 0 13 41 33 15 20 20 29 31 31
30 29 29 29 30 11 2 0 0 0 4 22 44 24 0 0
0 0 2 26 37 25 0 0 0 0 10 22 5 4 7 4
0 23 85 71 78 86 95 100 107 110 111 113 114 117 120 124
126 130 129 132 127 119 119 122 120 119 113 103 96 94 84 70
58 44 48 57 47 35 33 26 23 20 18 16 13 10 9 11
21 34 34 34 31 11 5 5 6 5 5 18 34 34 35 34
33 33 32 14 11 3 11 4 1 4 5 3 1 0 0 0
43 34 3 0 0 0 0 14 44 35 14 20 20 31 33 34
34 34 35 35 33 11 2 0 0 0 3 21 42 16 0 0
0 0 0 23 37 26 1 0 0 0 8 24 6 5 10 5
2 11 77 75 78 83 91 100 106 111 113 115 115 116 118 122
125 131 130 130 125 119 120 122 118 103 85 81 84 83 68 59
54 33 46 49 45 35 27 7 4 8 8 8 4 3 3 2
13 32 34 34 32 11 5 6 6 5 6 18 35 35 35 35
33 20 11 1 0 0 2 0 0 0 0 0 0 0 0 0
34 27 17 12 9 8 8 21 40 32 18 22 24 33 35 35
35 35 36 37 36 10 1 0 0 1 4 12 40 11 0 0
0 0 0 23 36 24 1 0 0 0 5 25 7 4 8 4
0 4 68 79 82 85 91 100 106 110 114 116 115 116 116 120
122 126 133 131 125 124 121 100 81 67 76 81 83 71 60 65
52 27 48 51 42 36 26 5 3 8 6 8 4 2 3 2
10 32 34 33 31 10 6 6 7 5 6 16 35 35 35 35
34 6 0 0 0 0 0 0 0 0 0 0 0 0 0 0
38 38 36 35 33 33 32 32 33 31 29 29 29 30 30 30
29 30 30 31 35 14 0 0 0 2 5 8 39 9 0 0
0 0 0 23 36 23 0 0 0 0 0 24 9 5 7 3
0 2 59 80 84 85 91 97 103 108 111 116 115 117 116 118
120 125 132 132 128 124 104 84 85 96 97 96 91 84 77 83
72 40 49 55 39 35 27 6 3 8 7 8 4 2 3 2
11 32 34 34 31 11 6 6 7 6 5 12 34 36 35 34
34 13 1 12 13 16 18 19 22 18 0 0 2 10 0 1
38 37 37 36 35 34 33 31 30 29 28 27 27 27 27 26
26 25 25 25 30 21 3 0 0 3 4 6 37 8 0 0
0 0 0 21 37 24 3 0 0 0 0 25 11 3 6 3
2 7 51 81 86 87 89 96 102 106 109 112 115 116 118 118
120 124 131 133 131 119 107 115 121 115 105 88 71 62 60 62
50 39 50 51 38 35 28 6 3 8 8 9 4 3 3 1
11 32 34 34 33 14 9 9 10 11 11 13 31 33 34 33
33 16 15 33 31 31 31 31 30 11 0 0 0 3 20 21
37 36 36 35 34 33 32 30 29 28 27 27 26 26 25 25
25 25 25 24 27 17 0 0 0 1 3 7 37 8 0 0
0 0 0 15 38 26 3 0 0 0 0 22 15 0 1 0
1 7 42 82 88 90 89 93 99 107 109 112 115 117 118 118
119 118 123 131 129 121 118 123 121 117 109 95 75 67 64 65
66 53 50 47 37 35 28 7 3 6 8 8 4 2 3 3
10 32 34 35 34 20 14 14 13 13 13 15 29 35 36 35
35 18 25 33 33 32 31 31 30 9 0 0 0 0 22 22
22 21 21 20 19 18 16 15 14 14 13 13 13 14 14 14
14 16 20 23 25 10 0 0 0 0 0 5 37 10 0 0
0 0 0 12 39 25 1 0 0 0 0 21 21 0 0 0
2 7 36 83 90 94 91 90 95 103 108 111 113 115 116 114
117 106 102 126 124 122 122 122 120 116 110 100 97 97 91 86
80 61 48 41 35 34 28 7 3 4 5 5 3 2 4 2
8 31 34 35 33 17 8 8 8 7 7 10 29 35 35 34
30 12 32 33 33 32 30 30 29 8 0 0 0 0 18 21
0 0 0 0 0 0 0 0 0 0 0 0 0 0 0 0
0 3 17 22 23 7 0 0 0 0 1 2 36 15 0 0
0 0 0 10 39 28 11 5 5 5 8 23 24 0 0 0
1 8 29 83 93 98 93 90 93 99 106 109 110 113 112 114
114 115 117 122 120 119 118 117 118 117 114 111 112 109 98 86
79 61 45 37 36 35 29 7 3 3 0 1 3 3 4 2
8 31 34 35 33 18 7 7 7 7 7 9 19 13 14 16
11 25 34 33 33 32 31 30 28 4 0 0 0 0 12 21
0 0 0 0 0 0 0 0 0 0 0 0 0 0 0 0
0 4 21 22 22 13 6 5 5 8 15 11 34 32 22 22
24 24 24 31 44 32 35 37 37 38 43 47 35 16 13 13
13 12 27 83 95 98 98 91 88 92 100 105 106 111 111 111
112 113 116 116 117 117 117 118 117 120 120 117 118 114 105 87
70 56 40 35 36 35 28 8 3 3 0 2 5 2 4 2
7 30 34 36 33 19 6 7 8 6 7 7 12 31 29 27
31 34 33 32 32 30 29 27 25 4 0 0 0 0 11 20
0 0 0 0 0 0 0 0 0 0 0 0 0 0 0 0
0 3 22 23 22 27 32 27 28 31 32 31 33 43 50 46
46 48 50 51 50 34 37 42 44 47 53 54 46 32 32 28
28 16 27 82 97 103 101 95 87 90 95 101 103 106 109 112
109 109 113 115 116 117 118 118 120 122 124 121 118 109 106 94
66 50 36 37 36 34 28 9 4 4 3 6 6 3 5 3
7 29 33 35 33 19 6 7 7 7 7 4 19 36 35 34
34 34 33 32 30 9 5 2 2 0 0 0 0 0 8 19
0 0 0 0 0 0 0 0 0 0 0 0 0 0 0 0
0 2 22 24 22 28 33 30 33 35 31 26 26 35 48 48
47 46 48 49 49 36 31 37 40 44 47 47 42 32 31 30
28 13 28 80 98 104 107 99 90 90 91 97 98 101 105 105
106 105 106 111 116 117 119 119 121 122 123 122 115 95 101 99
65 44 34 37 36 33 28 10 4 2 0 0 3 3 5 2
6 28 33 35 33 19 6 7 7 6 6 3 20 35 35 34
34 34 32 32 25 0 0 0 0 0 0 0 0 0 7 19
0 0 0 0 0 0 0 0 0 0 0 0 0 0 0 0
0 1 23 24 22 24 26 25 28 32 32 27 25 28 28 30
31 30 31 30 33 31 28 31 34 34 32 29 31 32 33 32
27 11 32 78 98 108 112 106 97 91 89 94 97 98 100 106
104 100 101 103 107 111 115 118 120 121 119 120 110 82 108 101
64 40 36 38 35 33 29 11 4 3 0 1 3 3 5 3
6 28 33 35 33 19 6 6 6 6 6 3 17 35 35 34
34 34 33 32 28 1 0 0 0 0 0 0 0 0 6 18
0 0 0 0 0 0 0 0 0 0 0 0 0 0 0 0
0 0 21 24 21 18 16 19 21 26 29 25 26 28 22 23
24 26 26 26 29 32 33 36 37 36 33 30 31 32 32 30
23 10 35 76 97 107 112 107 99 93 90 91 94 96 100 100
100 101 100 100 99 101 109 110 114 116 112 114 102 82 112 99
60 37 35 36 34 33 29 11 3 3 2 3 3 3 4 2
4 27 31 34 33 20 6 5 6 5 5 3 14 35 34 34
34 34 33 32 29 8 0 0 0 0 0 0 0 0 6 18
0 0 0 0 0 0 0 0 0 0 0 0 0 0 0 0
0 0 19 24 21 16 3 3 5 8 10 10 17 28 28 31
31 37 40 35 35 37 38 42 45 44 38 32 31 32 33 30
25 10 42 78 93 108 114 111 105 99 90 89 91 96 96 98
99 100 100 100 98 98 96 103 106 108 108 105 90 84 108 88
51 35 36 37 34 32 30 12 4 3 3 3 3 3 4 2
3 25 30 32 31 20 5 5 6 5 4 3 8 33 34 34
34 33 32 32 31 20 2 0 0 0 0 0 0 0 1 10
0 0 0 0 0 0 0 0 0 0 0 0 0 0 0 0
0 0 16 23 20 16 1 0 0 0 0 2 15 29 34 41
38 47 52 29 16 18 19 22 29 43 40 33 32 32 32 28
32 37 58 78 91 106 114 110 106 98 92 88 89 94 95 97
100 101 101 101 98 93 96 93 95 99 100 92 81 90 94 68
40 35 36 36 34 33 30 13 3 3 3 3 3 2 3 2
3 23 29 30 30 24 15 17 15 10 16 16 6 28 33 34
34 32 33 29 22 36 6 0 0 0 0 0 0 0 0 6
0 0 0 0 0 0 0 0 0 0 0 0 0 0 0 0
0 0 14 23 19 19 2 0 0 0 0 0 16 28 31 39
27 28 40 17 0 0 0 0 9 39 41 33 32 33 31 34
73 24 57 80 91 103 111 114 107 104 97 90 89 91 92 94
95 100 101 99 97 94 94 86 83 80 81 74 74 76 66 41
31 35 36 36 35 33 30 13 3 3 3 2 3 1 3 1
2 23 29 31 29 29 29 29 29 26 28 28 15 19 33 33
30 25 26 17 1 2 1 1 0 0 0 0 0 0 0 6
0 0 0 0 0 0 0 0 0 0 0 0 0 0 0 0
0 0 12 23 20 20 4 0 0 0 0 0 15 27 29 37
12 2 24 17 0 0 0 0 5 37 41 33 33 33 32 45
74 11 61 83 88 102 109 111 112 109 103 94 90 87 89 90
94 96 94 91 96 91 89 83 75 69 63 60 52 45 34 22
31 34 36 36 35 34 31 15 3 2 3 3 3 2 2 2
2 22 29 31 32 31 32 32 31 31 31 31 27 7 13 9
3 5 0 0 0 0 1 1 0 0 0 0 0 0 0 5
0 0 0 0 0 0 0 0 0 0 0 0 0 0 0 0
0 0 10 23 19 14 1 0 0 0 0 0 17 26 29 38
12 0 21 20 0 0 0 0 2 33 41 33 33 33 31 48
92 6 64 81 92 98 107 113 113 113 107 102 96 90 87 85
86 86 86 89 88 85 87 78 75 70 65 56 45 33 26 23
31 33 34 35 34 34 32 16 4 3 3 3 2 3 2 2
3 24 33 32 32 31 31 30 30 30 19 10 7 1 0 0
0 0 0 0 0 0 0 0 0 0 0 0 0 0 0 4
0 0 0 0 0 0 0 0 0 0 0 0 0 0 0 0
0 0 9 23 20 13 0 0 0 0 0 0 17 25 30 38
12 0 19 23 0 0 0 0 0 29 41 33 33 33 32 44
104 13 63 83 92 98 107 110 114 110 109 105 102 97 91 87
84 82 85 84 80 79 78 74 71 63 57 49 33 20 26 11
29 34 34 35 35 34 32 18 5 5 4 4 4 3 3 4
10 27 34 34 33 32 32 30 30 29 6 0 0 0 35 21
0 0 0 0 0 0 13 7 2 0 0 0 0 0 0 0
0 0 0 0 0 0 0 0 0 0 0 0 0 0 0 0
0 0 8 23 20 14 0 0 0 0 0 0 16 25 29 38
12 1 17 24 0 0 0 0 0 27 41 33 33 33 35 40
87 61 45 87 91 100 107 111 112 117 117 110 103 101 95 92
83 78 75 73 71 68 63 60 53 41 34 32 20 36 28 10
35 33 34 35 35 34 32 27 21 19 16 15 15 9 4 12
21 30 35 35 33 32 32 31 30 28 4 0 0 22 84 92
11 0 0 0 0 0 5 5 0 0 0 0 0 0 0 0
0 0 0 0 0 0 0 0 0 0 0 0 0 0 0 0
0 0 6 23 20 15 0 0 0 0 0 0 13 25 29 37
13 1 15 26 3 0 0 1 1 24 41 33 33 32 39 42
50 89 44 71 94 97 107 111 116 117 121 118 109 106 100 96
90 80 71 64 61 54 49 40 28 25 40 41 45 82 20 12
34 31 33 35 35 33 32 31 30 27 23 22 21 11 0 16
26 31 34 34 34 32 31 30 22 12 1 0 0 6 20 23
3 0 0 0 1 1 3 2 1 1 0 0 0 0 0 0
0 0 0 0 0 0 0 0 0 0 0 0 0 0 0 0
0 0 5 22 19 15 1 0 0 0 2 0 11 27 29 38
22 6 14 27 6 3 3 1 0 22 41 32 32 32 39 44
22 85 95 46 86 98 105 115 115 120 121 116 116 112 107 103
93 84 71 58 46 38 34 35 49 67 65 39 61 54 15 16
29 18 27 32 34 33 31 31 30 27 24 22 22 15 1 18
27 30 33 33 33 31 30 29 15 0 1 0 0 0 0 0
1 1 2 2 3 3 4 3 2 1 0 0 0 0 0 1
0 0 0 0 0 0 0 0 0 0 0 0 0 0 0 0
0 0 4 21 19 15 3 0 0 0 7 7 9 30 30 38
24 14 13 25 3 8 9 2 0 18 38 32 32 32 36 52
16 43 93 95 56 90 101 109 120 123 121 119 119 117 113 110
106 97 86 83 84 94 100 110 108 101 73 72 93 32 13 31
28 34 33 30 35 31 31 30 30 29 26 25 25 17 0 18
28 30 32 33 32 30 29 29 16 0 1 0 0 0 0 0
0 0 0 0 0 0 1 0 0 0 0 0 0 0 15 27
0 0 0 0 0 0 0 0 0 0 0 0 0 0 0 0
0 0 3 21 18 15 9 11 10 11 17 20 22 36 31 38
19 22 14 26 7 12 12 7 7 19 33 31 31 31 39 55
26 26 58 122 92 58 95 108 116 123 128 127 122 120 117 115
109 107 106 105 110 115 117 116 112 92 48 13 73 22 17 30
27 32 42 51 44 37 34 39 31 33 26 26 25 18 0 17
27 28 30 30 29 29 29 28 21 3 0 0 0 0 0 0
0 0 0 0 0 0 0 0 0 0 0 0 0 0 30 33
0 0 0 0 0 0 0 0 0 0 0 0 0 0 0 0
0 0 2 20 18 17 25 33 33 35 36 38 40 44 35 37
11 16 16 29 21 22 22 21 21 22 24 28 31 25 38 41
41 22 33 80 107 93 60 97 115 122 126 126 125 127 125 121
117 116 117 117 118 119 118 116 96 74 32 2 26 19 25 21
20 14 39 56 44 42 31 22 21 46 39 23 25 21 1 17
26 26 28 28 28 27 27 27 26 10 0 0 0 0 0 0
0 0 0 0 0 0 0 0 0 0 0 0 0 5 31 31
0 0 0 0 0 0 0 0 0 0 0 0 0 0 0 0
0 0 2 19 17 16 30 37 38 39 39 40 42 44 39 36
9 4 11 29 23 24 24 24 25 25 27 26 39 49 41 33
48 31 29 27 100 42 79 58 104 123 127 128 127 127 125 123
121 121 120 120 122 120 120 104 70 61 17 1 13 25 27 19
13 6 23 43 43 42 40 36 28 29 27 13 20 29 9 16
28 28 28 27 28 27 27 27 23 1 0 0 0 0 0 0
0 0 0 0 0 0 0 0 0 0 0 0 0 9 20 19
0 0 0 0 0 0 0 0 0 0 0 0 0 0 0 0
0 0 1 19 18 14 21 23 22 22 21 21 21 20 25 33
9 1 7 29 26 28 29 29 29 29 26 30 52 59 46 31
36 43 28 17 35 20 63 61 69 116 127 131 130 130 129 127
126 127 124 124 124 123 113 73 64 33 4 0 11 31 13 15
22 0 7 39 53 34 32 57 75 51 33 39 66 76 43 36
29 29 28 28 27 27 27 27 23 0 0 0 0 0 0 0
0 0 0 0 0 0 0 0 0 0 0 0 0 1 1 0
0 0 0 0 0 0 0 0 0 0 0 0 0 0 0 0
0 0 1 18 17 13 5 1 1 1 1 3 4 5 15 33
10 0 6 29 27 29 30 36 43 46 60 55 58 68 52 30
24 48 47 20 19 4 40 80 56 84 122 129 132 133 133 132
132 131 130 127 124 114 90 57 38 11 9 0 21 34 12 35
46 8 24 34 36 17 16 40 64 53 37 60 97 106 100 98
66 36 35 29 27 27 27 26 15 0 0 0 0 0 0 0
0 0 0 0 0 0 0 0 0 0 0 0 0 0 0 0
0 0 0 0 0 0 0 0 0 0 0 0 0 0 0 0
0 0 1 19 18 14 6 1 1 2 3 4 6 6 15 33
15 4 9 30 28 41 52 39 48 59 51 54 55 72 51 40
18 31 55 37 20 0 17 65 65 64 99 129 134 137 134 129
131 135 135 129 113 92 73 22 17 21 17 4 46 28 41 44
47 18 31 50 62 38 35 26 60 66 38 42 87 73 71 71
68 69 69 49 37 33 30 28 8 0 0 0 0 0 0 0
0 0 0 0 0 0 0 0 0 0 0 0 0 0 0 0
0 0 0 0 0 0 0 0 0 0 0 0 0 0 0 0
0 0 1 19 18 13 9 7 6 6 6 7 8 7 19 36
27 32 38 39 34 51 40 24 47 47 43 45 53 46 21 22
14 25 34 54 35 3 24 42 82 65 77 111 134 135 136 129
130 134 136 125 104 95 66 17 22 23 13 51 42 20 38 43
53 22 15 31 56 52 47 30 33 37 19 15 50 76 90 96
98 83 77 82 44 31 38 36 21 3 0 0 0 0 0 0
0 0 0 0 0 0 0 0 0 0 0 0 0 0 0 0
0 0 0 0 0 0 0 0 0 0 0 0 0 0 0 0
0 0 5 22 18 14 11 9 10 10 11 11 11 9 19 33
29 37 41 24 21 33 35 55 63 48 49 34 45 47 27 30
29 32 24 41 43 10 58 69 64 78 80 94 127 135 137 137
139 139 141 137 135 80 36 21 28 16 35 53 34 46 58 70
93 51 39 48 47 30 19 19 47 53 25 13 52 103 106 111
111 92 69 76 59 19 19 38 38 26 14 6 0 0 0 0
0 0 0 0 0 0 0 0 0 0 0 1 2 0 0 0
1 2 2 3 4 4 5 5 6 7 7 8 8 10 10 12
12 12 14 17 16 14 11 9 9 11 12 12 13 10 15 23
20 29 48 51 46 42 45 48 36 17 21 26 70 74 41 47
92 45 20 28 47 17 7 39 45 93 119 125 138 143 142 142
143 143 142 142 127 34 15 18 21 14 60 20 42 56 67 80
86 40 33 59 66 57 41 40 41 62 48 32 46 94 94 97
86 87 85 80 89 37 36 52 52 31 22 29 15 0 0 0
0 0 0 0 0 0 0 0 0 0 0 8 9 0 0 0
23 23 22 21 21 20 19 18 18 17 16 16 15 15 15 15
15 15 14 14 14 14 12 10 11 10 11 12 13 13 18 26
34 46 100 117 115 76 27 41 42 22 29 47 77 62 22 27
89 75 33 28 30 41 12 9 27 51 109 134 141 144 143 143
143 143 142 141 99 24 13 21 7 43 35 41 44 67 79 75
77 28 12 33 58 59 41 35 37 52 39 21 22 87 98 96
107 113 103 85 79 37 19 31 45 41 26 24 21 14 0 0
0 0 0 0 0 0 0 0 0 0 0 20 8 0 0 0
27 27 27 25 23 21 20 19 18 17 16 16 16 16 16 15
15 14 14 14 15 14 12 12 12 12 12 13 26 37 40 50
73 82 81 91 97 73 29 63 55 44 46 45 53 52 24 50
113 110 83 45 16 46 25 5 17 30 77 126 138 142 143 143
143 143 142 136 75 26 17 20 18 48 56 52 81 84 92 83
91 38 10 23 35 30 19 18 27 66 66 38 39 85 109 105
117 115 98 79 75 65 32 33 64 70 38 32 38 34 29 4
0 0 0 0 0 0 0 0 0 0 0 24 4 0 0 0
27 27 26 25 23 22 21 20 19 18 17 16 16 15 14 13
13 12 12 12 10 11 12 13 12 13 14 34 47 72 86 92
88 94 75 82 80 44 20 52 40 39 33 51 79 75 33 53
119 113 109 54 34 43 37 6 11 22 25 53 106 136 144 143
143 143 137 74 54 37 36 24 58 56 72 120 123 122 122 121
121 69 34 43 51 33 17 20 18 39 56 30 23 43 71 73
85 84 73 73 63 52 24 23 45 55 34 26 23 19 33 25
4 0 0 0 0 0 0 0 0 0 0 16 0 0 0 0
26 26 24 23 21 19 17 16 13 11 9 7 5 4 3 4
7 7 9 10 10 11 12 12 13 19 37 39 24 74 82 101
109 110 97 89 98 56 38 72 36 30 39 60 80 67 31 35
92 83 92 78 54 68 51 13 15 34 20 26 27 53 107 142
143 142 107 50 31 38 48 37 74 52 100 114 106 114 117 114
114 62 44 66 85 74 47 53 43 30 52 26 11 23 75 81
76 83 67 93 104 75 14 8 35 38 23 12 14 17 33 17
13 0 0 0 0 0 0 0 0 0 0 1 0 0 0 0
8 7 6 8 9 8 7 5 4 2 1 1 1 0 0 0
6 8 9 11 11 12 12 19 41 48 43 27 39 93 90 93
94 91 101 114 115 50 48 71 42 47 41 44 47 45 14 27
88 84 97 98 99 89 60 43 49 78 61 44 41 41 47 91
129 139 78 49 32 35 49 58 93 90 118 118 122 130 123 123
127 64 30 41 67 67 46 42 35 52 72 52 28 40 110 119
112 105 109 125 120 111 57 26 41 50 48 39 45 40 20 19
28 34 0 0 0 0 0 0 0 0 0 0 0 0 0 0
0 1 1 8 20 22 23 22 23 22 21 21 20 7 0 0
4 7 8 9 11 12 26 54 45 54 50 43 37 98 111 117
108 92 80 107 95 37 44 40 30 31 23 30 47 42 17 32
121 126 133 137 135 96 55 65 41 62 85 75 49 30 42 85
79 101 74 44 43 84 82 52 87 134 135 136 140 140 139 138
133 81 53 62 92 83 54 61 59 46 68 59 38 36 89 109
122 121 120 123 99 106 84 35 58 81 67 48 46 33 13 11
29 83 12 0 0 0 0 0 0 0 0 0 0 0 0 0
8 11 13 20 43 44 41 39 36 33 30 31 32 21 1 1
5 7 8 10 12 33 43 30 40 69 71 47 50 114 112 114
117 109 106 112 107 38 47 37 18 21 23 34 67 67 47 52
127 126 127 121 117 107 80 82 49 66 75 61 44 66 65 57
74 78 65 33 52 95 75 50 85 141 140 140 139 139 138 138
133 83 52 63 89 90 61 65 62 52 80 70 43 49 102 115
113 113 105 117 133 133 119 48 40 62 59 39 40 46 16 2
27 84 40 2 0 0 0 0 0 0 0 0 0 0 0 0
9 13 15 19 43 40 41 39 36 33 31 38 41 35 12 8
7 5 9 14 29 36 28 29 27 40 57 40 46 89 82 93
118 111 118 122 99 28 85 69 29 34 48 69 92 84 48 35
105 123 129 131 136 136 134 113 90 63 98 94 67 71 70 52
64 68 38 35 75 102 76 55 91 142 140 139 139 139 139 140
136 87 48 58 96 99 62 60 57 57 87 86 54 54 94 124
127 131 131 130 135 133 126 60 51 83 84 60 57 54 33 15
58 95 59 45 4 0 0 0 0 0 0 0 0 0 0 0
23 29 29 28 41 48 49 46 43 41 38 37 35 30 16 13
12 12 21 40 51 46 38 39 34 54 70 41 47 82 73 78
93 85 92 94 67 38 74 66 57 61 54 60 75 73 47 51
125 143 143 142 142 141 141 141 130 55 89 101 84 66 65 55
67 45 31 53 95 100 75 53 89 143 140 140 140 139 139 138
134 91 57 58 95 96 62 56 59 59 80 92 55 53 84 123
128 134 135 133 136 133 128 60 47 75 92 73 60 55 39 18
83 123 86 63 60 4 0 0 0 0 0 0 0 0 0 0
25 29 28 26 32 39 36 32 30 27 25 23 21 19 10 7
6 16 48 36 51 41 17 19 30 55 68 40 78 97 88 89
91 96 103 116 94 48 91 63 44 48 54 77 104 91 57 58
117 144 143 142 142 141 142 141 139 66 71 95 97 69 60 60
63 34 43 70 99 95 67 53 92 142 140 140 140 140 139 137
134 91 57 59 93 99 65 61 62 62 79 90 64 52 75 124
125 130 133 131 136 138 133 72 53 69 89 81 59 54 45 43
101 107 88 59 65 35 0 0 0 0 0 0 0 0 0 0
28 28 28 27 27 26 25 23 22 22 21 20 20 17 7 4
15 48 34 32 52 34 12 10 15 38 46 41 77 114 128 130
123 125 133 130 93 58 98 84 71 70 72 78 103 86 58 58
110 144 143 142 142 142 142 140 137 84 47 91 103 80 54 66
43 46 64 79 100 92 69 57 100 141 140 140 141 140 138 138
136 88 54 56 92 101 73 65 63 60 76 88 68 50 66 121
125 131 131 132 133 138 134 79 52 63 86 78 61 58 47 58
125 128 93 89 71 62 16 0 0 0 0 0 0 0 0 0
24 22 19 16 13 9 7 5 16 23 21 20 20 18 8 10
35 64 58 26 60 64 37 19 16 41 42 35 63 104 126 123
118 119 121 115 77 65 95 87 69 67 67 73 105 88 58 58
109 144 143 142 142 142 141 141 140 92 47 75 107 92 60 75
43 49 65 87 103 96 64 61 107 141 140 140 140 140 140 140
135 91 49 53 87 93 75 65 61 66 71 86 78 54 55 119
129 136 131 132 131 138 136 83 49 64 88 84 59 56 53 80
132 127 99 93 88 106 91 0 0 0 0 0 0 0 0 0
2 1 0 0 0 0 0 0 12 23 21 21 20 18 17 37
73 101 63 30 75 72 45 40 42 68 58 46 102 134 137 137
137 140 143 139 67 66 94 86 67 70 62 69 108 94 58 56
103 144 142 142 140 141 141 141 142 101 57 63 102 95 69 78
42 76 60 94 107 98 63 57 110 142 140 141 141 140 140 139
137 97 51 55 87 90 76 66 60 65 73 92 84 54 49 110
129 136 133 134 133 139 138 88 44 50 84 88 61 63 56 87
131 123 108 111 94 107 131 22 0 0 0 0 0 0 0 0
1 2 3 5 7 9 10 13 20 22 21 21 21 23 43 62
94 91 73 33 73 53 20 34 52 72 67 40 114 144 141 138
139 141 143 137 56 71 90 84 66 66 62 73 103 98 62 60
105 144 142 143 143 142 142 141 140 104 52 61 96 91 77 68
43 68 51 92 104 91 62 57 113 142 141 140 141 141 141 139
136 103 56 57 89 94 70 67 64 64 76 93 83 58 54 106
132 136 135 132 132 138 138 99 45 49 82 89 67 62 57 80
127 122 111 107 107 102 130 54 0 0 0 0 0 0 0 0
21 22 24 25 25 25 25 25 25 26 25 26 28 39 46 76
93 110 80 40 77 52 49 37 41 83 66 35 124 143 135 137
139 144 144 133 57 80 92 85 67 66 62 75 103 100 63 60
103 144 143 143 143 142 140 139 140 111 55 56 86 83 82 72
48 61 57 88 102 90 58 56 114 142 141 140 140 140 140 139
138 108 54 57 87 93 73 68 69 66 74 92 81 53 53 102
133 136 136 133 131 137 137 112 40 54 84 87 70 57 56 72
129 126 116 110 106 104 119 83 2 0 0 0 0 0 0 0
30 30 31 31 30 31 30 29 30 27 25 25 43 44 79 96
102 94 65 48 55 39 58 70 69 93 65 38 135 141 139 138
138 144 140 124 52 78 93 87 66 63 65 75 106 101 66 59
104 144 142 141 140 140 141 140 140 116 60 61 84 76 87 77
43 68 66 86 99 88 59 57 116 142 140 140 141 140 140 139
137 110 58 56 88 96 79 67 69 63 66 89 85 58 55 92
133 136 134 131 126 136 138 124 44 49 81 88 76 51 55 67
127 127 117 109 112 107 101 103 12 0 0 0 0 0 0 0
30 31 32 28 27 26 25 25 28 28 26 33 77 82 88 99
82 67 86 55 47 36 59 60 78 94 66 47 139 140 142 137
138 143 141 136 58 80 91 86 70 70 73 76 102 94 66 57
100 144 142 143 142 141 142 141 141 117 58 61 87 68 72 64
45 65 66 88 103 85 54 48 105 132 126 125 117 117 111 115
115 95 30 33 63 75 68 46 51 52 51 74 83 64 52 83
131 137 136 134 123 131 139 130 58 49 80 91 84 53 51 59
127 128 121 112 89 109 94 115 28 6 0 0 0 0 0 0
27 29 32 30 31 32 32 32 32 32 32 64 111 114 94 83
93 116 99 53 38 34 54 55 90 95 61 48 135 142 138 135
140 144 143 136 64 78 91 86 69 66 66 71 101 94 65 57
96 145 142 142 142 141 141 141 142 115 56 57 91 63 68 48
28 45 45 63 81 64 32 34 87 125 122 122 121 128 130 134
125 102 44 52 75 92 72 44 43 45 49 66 63 40 28 52
106 116 112 114 112 132 136 130 63 48 72 76 66 40 50 57
118 126 122 111 46 98 90 122 36 27 0 0 0 0 0 0
35 35 36 36 35 36 35 34 34 34 37 108 120 109 65 87
122 108 92 55 30 30 52 59 92 93 62 53 127 139 138 137
143 142 139 136 66 74 91 77 64 63 67 73 101 92 64 61
98 145 142 142 137 133 131 134 133 87 25 28 67 64 84 69
40 53 56 76 91 84 50 47 101 141 131 135 136 136 135 137
128 110 48 52 71 98 76 51 53 56 54 74 80 62 48 65
115 125 125 118 104 104 111 108 39 20 42 75 71 35 26 36
109 124 118 99 41 50 85 121 50 27 13 0 0 0 0 0
40 40 38 39 38 38 36 36 35 34 68 121 128 89 83 104
109 108 115 76 31 32 58 57 86 94 59 59 119 135 140 138
142 140 139 136 62 73 89 80 67 60 66 72 99 88 64 52
87 136 123 113 110 110 112 115 125 96 42 50 89 71 76 64
48 60 61 82 100 84 46 34 79 125 110 114 107 108 99 111
98 91 27 21 39 65 50 31 36 37 36 56 57 44 31 50
117 129 127 124 118 127 124 123 62 46 59 85 74 45 48 44
103 123 124 106 68 33 78 119 69 19 37 1 0 0 0 0
37 39 36 39 38 37 37 36 34 32 101 117 130 88 88 70
103 130 117 109 43 30 51 56 86 92 55 57 109 135 141 139
142 140 142 137 49 57 81 82 65 55 52 50 72 59 33 32
67 121 126 137 134 135 133 133 135 100 46 46 74 57 54 28
23 36 34 50 72 55 17 15 53 104 96 95 92 96 90 98
79 75 14 10 25 48 40 20 19 19 17 44 51 30 10 21
78 87 92 88 89 111 111 112 62 41 47 57 46 26 43 48
107 125 120 89 79 32 73 112 81 18 34 17 0 0 0 0
