P2
128 120
145
35 35 35 34 34 34 33 33 33 33 33 32 32 31 31 31
30 29 29 28 28 27 27 27 26 26 25 25 24 24 24 23
23 22 22 21 21 20 19 19 19 19 19 18 18 18 18 17
17 16 16 17 17 18 21 21 21 20 14 10 16 22 18 17
18 17 16 15 14 14 12 12 8 8 10 12 15 15 16 16
16 16 16 17 17 17 18 18 18 17 17 18 18 19 20 19
20 20 20 21 21 21 21 22 22 22 22 22 23 24 24 24
24 25 25 25 25 25 25 25 24 24 24 24 24 25 26 26
34 34 34 34 34 34 33 33 33 32 32 32 31 31 31 30
30 29 29 29 28 27 27 27 26 26 25 24 24 24 23 23
23 22 21 22 21 21 20 20 20 19 19 18 18 18 17 17
17 17 17 17 18 19 22 21 22 21 15 10 15 22 18 17
17 17 16 16 16 15 13 13 10 10 11 14 15 16 16 16
16 16 16 17 17 18 18 18 18 18 19 19 19 19 19 20
20 20 20 21 21 21 22 23 23 23 23 24 24 25 24 23
24 25 25 25 24 23 24 24 24 26 26 26 26 26 26 26
35 35 34 34 34 34 34 33 33 33 32 32 32 31 31 31
31 30 29 29 28 28 28 27 26 26 26 26 25 25 24 24
24 23 23 22 21 21 20 21 20 19 20 19 19 19 19 18
18 18 17 18 19 20 22 22 22 21 15 12 13 22 19 18
18 18 18 17 16 15 14 14 12 12 11 14 16 17 17 17
18 18 18 19 18 18 19 19 19 19 19 19 19 20 20 20
20 21 21 22 21 22 22 23 22 22 23 24 24 24 24 23
22 24 25 24 25 26 26 26 25 25 26 25 25 25 26 26
35 34 35 34 34 34 34 33 34 33 33 32 31 31 31 30
30 29 29 29 29 28 28 27 27 26 26 26 25 25 24 23
23 23 23 22 22 21 21 21 21 20 21 20 19 18 18 18
18 17 17 18 19 20 23 23 23 22 16 13 14 23 20 18
18 18 18 17 17 16 15 15 13 14 14 16 18 18 19 18
18 18 18 18 19 19 19 19 20 20 20 21 20 20 20 21
21 21 21 22 22 22 22 24 24 24 24 24 23 23 24 25
25 25 25 25 25 26 26 25 26 26 26 26 27 27 27 27
35 35 35 35 35 34 34 33 33 33 33 32 32 32 32 32
31 30 30 29 29 29 28 27 27 26 26 25 26 25 25 24
24 24 24 24 23 22 22 21 21 21 20 20 20 20 19 19
19 19 18 19 20 21 24 23 23 23 18 13 11 21 20 20
20 19 19 18 18 17 17 16 14 13 15 17 19 18 19 19
19 20 20 20 20 20 20 20 20 20 20 20 20 21 21 21
22 22 22 23 23 23 23 23 22 22 22 23 24 25 25 25
27 25 26 26 26 26 27 26 26 26 26 27 26 26 27 26
34 35 34 34 34 34 33 34 34 33 33 32 32 32 31 31
30 30 29 29 29 29 28 28 28 28 27 26 26 25 25 24
24 24 23 23 22 22 22 22 22 21 21 20 20 20 20 20
19 18 18 18 20 22 23 24 24 23 18 11 7 21 21 20
20 19 19 18 18 16 16 16 15 14 16 18 19 19 20 19
20 19 20 19 20 20 21 20 21 20 21 21 21 21 22 22
22 22 22 21 21 21 22 22 23 25 24 25 25 25 25 25
27 25 26 26 25 26 27 26 26 26 26 27 27 27 27 26
36 35 35 35 35 34 34 33 33 33 33 32 32 32 32 31
31 31 31 30 30 29 28 28 28 27 27 26 26 25 25 25
25 24 24 24 23 22 23 22 22 21 21 20 20 20 20 20
20 20 20 20 21 23 25 26 25 23 17 13 12 22 22 20
21 20 20 20 20 18 18 17 16 15 17 19 20 20 19 19
20 20 21 20 21 21 21 22 22 21 22 22 21 22 22 22
22 21 22 22 23 24 25 25 25 24 25 25 25 26 26 25
27 27 26 27 27 26 27 27 27 27 27 26 27 27 27 27
43 39 36 35 34 35 34 34 34 34 33 34 32 32 31 31
31 30 30 29 29 29 29 29 28 28 27 27 27 26 26 25
24 24 24 23 23 23 23 22 22 22 22 21 21 21 20 20
19 19 20 20 21 22 25 25 25 24 18 16 16 22 24 22
22 20 20 20 20 17 17 17 16 15 18 20 21 21 20 21
21 21 21 21 21 21 22 21 22 22 22 22 22 22 22 23
23 23 23 23 24 24 25 24 25 25 25 26 26 26 27 26
27 26 27 27 27 26 27 27 26 27 27 27 27 27 28 27
48 47 45 35 34 34 34 33 33 33 32 32 32 32 32 32
31 30 30 30 31 30 29 28 27 27 26 26 26 25 25 25
25 25 25 24 24 23 23 23 23 22 21 20 21 21 20 20
20 20 20 20 22 23 26 26 25 24 18 17 17 20 23 22
21 21 20 20 21 19 18 18 17 16 19 20 21 21 20 20
20 21 22 22 21 21 22 21 21 21 21 21 22 22 22 23
24 23 24 24 24 25 24 25 25 25 26 26 26 25 26 26
28 27 27 27 27 27 28 27 27 27 27 26 27 26 26 27
21 45 45 35 34 34 34 34 34 33 33 33 32 32 32 32
31 30 30 30 29 29 29 28 28 28 28 27 27 27 27 25
25 25 24 24 24 23 23 22 22 22 22 22 22 21 21 21
21 20 20 21 21 23 26 25 25 25 19 17 19 20 24 23
23 22 20 20 21 19 18 18 18 16 20 20 21 21 21 22
22 22 22 21 22 22 21 22 22 22 22 23 24 24 24 25
25 24 24 24 25 24 25 25 25 26 25 26 26 26 27 27
28 27 27 28 27 27 27 27 27 27 26 26 27 27 28 28
3 43 46 35 35 34 34 34 33 33 33 32 32 32 31 31
31 31 30 30 29 30 29 29 28 28 28 27 27 26 26 26
25 25 25 25 25 24 24 23 23 22 22 22 21 21 20 21
20 21 20 21 22 24 27 26 26 26 20 17 20 18 23 23
22 22 21 21 22 20 20 20 18 16 20 21 22 21 22 22
21 21 21 21 22 22 22 23 23 23 23 23 23 24 23 23
24 24 24 24 25 25 25 25 25 26 25 26 27 27 27 27
28 27 27 27 27 27 27 27 27 27 27 27 28 28 28 26
2 43 46 35 34 34 34 34 33 33 33 32 33 32 32 32
31 31 30 30 30 29 29 29 28 28 28 28 28 27 26 26
26 26 26 26 25 24 24 23 23 23 22 22 22 22 22 21
21 21 21 21 21 23 26 26 26 25 20 18 22 18 24 24
23 23 22 21 22 21 19 20 18 16 20 21 22 22 22 23
23 24 23 23 23 23 23 23 22 23 23 23 24 24 24 24
25 25 25 25 26 26 26 26 25 26 27 26 26 27 27 27
28 28 28 27 28 29 28 28 27 27 27 27 27 27 27 27
2 42 45 35 34 34 33 33 34 33 33 32 32 32 32 31
31 31 30 30 30 30 29 29 29 28 28 27 28 27 26 26
26 26 25 25 25 24 24 24 24 24 23 23 22 22 22 20
21 22 21 22 23 24 27 27 27 27 21 18 23 17 24 23
22 22 22 22 23 21 20 20 20 17 20 21 22 23 23 23
23 23 23 23 23 23 24 24 24 24 24 25 25 24 24 24
24 24 25 25 25 26 26 26 26 26 26 26 27 27 27 27
28 27 27 28 28 27 26 27 26 26 27 28 28 27 27 27
2 42 45 35 34 33 33 33 33 33 33 32 32 32 32 31
31 31 31 31 30 30 30 29 29 29 28 28 28 28 27 27
26 26 26 26 25 24 24 24 23 23 23 23 23 23 22 23
22 22 22 22 23 25 27 27 27 26 21 18 24 18 25 25
24 24 23 22 23 22 20 20 20 17 21 21 22 22 24 23
24 24 24 24 25 24 24 24 24 24 24 24 24 24 24 25
25 25 26 25 26 26 26 26 27 27 27 27 27 27 27 26
27 27 27 26 27 27 28 28 28 27 27 26 27 27 27 27
3 43 44 34 34 34 34 34 34 33 33 33 32 32 32 32
31 31 31 30 31 30 30 30 29 29 29 28 29 28 27 27
27 26 26 26 26 25 25 25 25 24 24 24 23 23 22 22
22 22 22 22 23 24 28 28 28 27 22 19 25 19 25 24
24 23 22 23 24 22 21 22 20 17 23 22 24 23 24 23
24 23 24 23 24 23 24 24 24 25 25 25 26 25 25 25
26 25 25 26 26 26 26 26 27 27 27 27 27 26 26 27
27 27 28 28 28 28 28 27 27 29 27 27 28 27 28 27
3 43 44 35 34 34 34 33 33 33 33 32 32 32 32 33
33 32 32 31 31 30 30 29 29 29 28 28 28 28 28 26
26 27 26 26 26 26 25 25 25 25 24 23 24 23 23 22
22 22 22 23 23 25 28 28 28 28 22 18 25 19 24 24
25 25 24 23 24 23 22 21 21 17 23 22 24 24 24 25
25 25 24 25 25 25 25 24 25 24 25 25 25 24 25 25
26 26 27 27 27 27 28 27 27 27 27 27 28 27 28 28
28 28 28 28 28 28 29 28 28 29 27 27 28 28 28 27
3 42 43 34 34 34 34 33 33 34 33 33 33 33 32 32
32 32 31 31 31 30 30 30 30 29 30 29 29 28 28 27
27 27 26 26 26 25 25 25 25 24 24 24 24 24 23 23
23 22 23 23 23 26 29 28 28 28 23 20 26 21 23 24
25 24 24 23 23 24 21 22 22 18 24 23 25 25 25 25
25 25 25 25 25 24 24 25 25 25 26 26 26 26 26 26
27 25 26 25 25 26 26 27 27 27 28 29 29 29 28 29
28 29 29 28 29 28 28 28 27 29 28 27 27 28 28 28
3 42 43 35 35 33 34 33 33 33 33 32 32 32 32 32
32 32 32 32 31 30 31 31 30 29 29 28 29 28 28 28
28 27 27 27 27 26 26 25 25 25 24 24 24 24 23 23
23 23 23 24 25 25 29 29 28 27 23 19 23 20 22 25
25 24 25 23 22 23 22 22 21 18 22 23 25 25 25 25
25 25 26 25 25 25 26 26 25 26 25 26 26 26 26 26
26 25 27 27 27 27 28 28 29 28 28 28 28 28 28 28
28 28 28 28 28 28 28 29 29 30 28 28 28 28 28 27
15 43 43 34 34 34 34 34 34 34 33 33 33 33 32 32
32 32 31 31 31 31 30 30 29 30 29 30 29 29 28 28
28 27 27 27 26 26 27 26 26 26 26 25 25 24 24 23
24 24 24 24 24 26 27 27 17 9 8 7 6 4 4 9
14 21 23 23 22 23 23 22 22 18 24 23 25 25 26 26
26 26 25 26 26 26 26 26 26 26 26 26 26 27 27 27
27 27 28 28 27 27 28 28 28 28 28 29 29 28 29 29
29 29 28 29 29 28 29 29 29 29 28 28 28 28 28 28
26 43 42 35 35 35 34 34 34 34 34 33 33 33 33 33
32 33 33 32 32 31 31 31 30 29 30 29 29 29 28 28
28 28 28 28 28 27 27 26 26 27 26 25 25 25 25 25
25 24 22 20 23 23 22 15 6 7 5 4 2 3 4 4
3 4 6 11 15 23 23 23 23 19 24 23 26 26 26 27
26 27 27 27 27 27 27 26 26 27 27 26 27 27 26 27
27 27 27 28 28 29 28 29 30 29 29 29 29 29 29 30
29 29 29 29 29 29 30 29 29 30 29 29 29 28 28 28
36 37 36 34 35 34 34 34 34 34 34 34 34 33 33 33
33 32 32 32 32 31 31 31 30 30 30 30 30 30 29 29
29 28 27 27 27 26 26 26 26 26 26 26 25 25 26 25
25 21 10 2 7 13 10 4 3 0 0 1 2 3 3 2
2 2 2 2 2 3 14 24 23 20 25 24 27 27 27 27
27 26 26 26 26 26 26 26 27 27 27 27 28 28 28 28
28 28 28 28 29 28 28 29 29 29 29 29 30 29 29 29
30 30 30 29 30 29 29 29 29 29 29 28 28 28 29 28
31 33 35 35 35 35 35 34 34 33 33 33 33 33 33 33
32 32 33 31 32 32 31 31 30 30 29 29 30 28 29 28
28 28 27 27 28 27 27 27 26 26 26 25 25 25 25 23
17 4 2 3 12 12 4 0 0 0 0 0 1 0 1 1
2 2 1 0 1 0 0 9 22 20 25 23 26 26 26 26
26 26 26 26 27 26 27 27 27 28 27 28 28 27 27 28
28 28 28 28 29 29 30 29 29 30 29 29 29 29 29 29
29 29 29 28 29 29 29 30 29 30 30 29 30 30 28 29
17 20 25 29 32 34 34 34 34 34 34 34 34 33 33 33
33 32 31 31 31 31 30 30 30 30 30 29 30 29 29 29
29 29 29 28 28 27 27 26 26 26 26 25 25 24 22 6
2 2 2 13 13 4 1 5 2 1 1 1 1 4 2 3
2 0 0 0 1 0 0 0 2 12 24 23 26 26 26 26
27 27 27 27 27 27 27 27 27 28 27 27 28 27 28 28
29 29 30 29 30 29 30 29 30 29 29 29 29 30 29 29
29 30 29 29 29 29 29 29 29 29 28 28 27 27 27 27
12 12 12 14 15 17 21 25 29 32 33 34 33 33 33 32
32 32 32 32 32 31 31 31 30 30 30 29 29 29 28 28
28 28 28 28 28 27 27 27 27 26 26 26 22 14 6 0
1 4 8 18 5 5 6 6 10 14 13 8 8 6 7 11
6 1 0 0 0 0 0 0 0 0 10 25 27 27 26 26
27 26 26 26 26 27 27 28 28 28 27 27 27 27 27 28
28 28 29 29 29 28 29 29 29 29 29 29 30 30 30 29
29 28 29 29 29 30 28 28 28 27 26 26 28 28 28 26
13 12 11 10 12 11 12 12 13 13 17 21 30 33 33 32
32 32 32 32 31 30 30 30 30 30 30 30 30 29 29 29
28 28 28 28 27 27 26 26 26 26 26 23 11 1 0 0
6 5 16 15 5 7 8 8 26 20 14 10 7 6 6 3
1 2 0 1 1 0 0 0 0 0 0 12 26 26 26 27
27 27 26 27 27 27 27 27 28 28 27 27 28 27 28 28
28 28 29 29 29 29 29 29 29 29 29 29 29 29 29 29
29 29 28 26 27 27 27 28 28 28 27 27 27 27 27 27
31 15 15 12 11 10 11 11 12 5 3 9 26 32 32 31
32 31 30 30 31 31 30 31 30 30 30 29 29 28 28 28
28 27 27 27 27 27 27 26 26 26 25 16 11 0 2 1
5 8 21 11 7 9 12 21 24 19 21 20 23 18 13 6
3 4 1 0 0 0 0 0 0 0 0 0 20 26 25 25
26 26 26 26 26 26 26 27 27 28 28 27 28 28 28 28
27 28 28 28 28 28 28 29 28 29 29 28 28 28 28 27
27 28 27 27 28 28 27 27 27 27 27 27 27 27 27 26
42 23 26 28 26 18 13 11 10 9 9 11 25 33 32 32
32 32 30 29 30 31 30 30 30 30 29 29 29 29 29 28
28 28 28 27 27 28 28 26 26 25 23 9 1 1 3 4
7 18 25 10 13 16 22 22 19 18 19 23 21 22 25 16
5 4 7 13 11 3 0 0 0 0 0 0 2 24 26 26
27 27 27 27 27 27 27 27 27 28 27 27 27 27 27 28
28 27 28 28 29 28 28 28 28 27 28 27 28 28 28 28
27 28 28 28 28 27 28 27 28 27 26 26 26 26 27 26
44 28 32 36 39 33 37 34 28 17 9 11 25 32 32 32
32 31 32 34 34 33 33 31 31 30 30 30 29 29 29 28
28 27 28 27 32 38 36 32 30 28 19 0 1 1 7 10
15 27 27 19 23 29 31 28 33 40 36 27 29 28 24 20
14 7 4 1 8 15 13 1 0 0 0 0 0 9 27 27
27 27 27 27 27 27 27 27 27 29 29 28 28 28 28 28
29 28 28 28 28 29 28 28 28 28 28 28 28 28 28 28
28 29 28 28 28 28 27 27 27 28 28 27 27 26 27 27
44 33 36 39 41 37 43 44 43 31 10 13 27 33 33 33
32 32 34 43 41 40 38 35 34 32 30 30 30 30 29 29
28 29 29 28 35 40 38 36 35 34 11 0 2 4 17 21
26 37 36 36 41 47 49 50 67 73 78 63 56 47 37 25
17 13 6 1 1 2 11 15 0 0 0 0 0 0 19 27
28 28 28 28 28 28 29 29 29 29 29 28 28 28 28 28
29 29 28 29 29 29 30 29 29 28 29 28 28 28 29 27
27 28 29 28 28 28 28 28 28 28 29 28 27 27 28 27
37 35 37 40 41 42 45 46 46 35 11 14 29 35 34 33
32 32 35 43 42 40 37 37 37 39 36 33 33 31 30 29
29 29 28 28 34 38 37 35 36 30 1 0 2 16 28 31
36 45 52 63 64 70 78 89 100 100 98 97 90 85 72 52
39 26 16 5 0 0 0 4 11 0 0 0 0 0 8 28
28 28 28 28 28 28 27 27 28 27 28 28 28 29 29 29
29 30 29 29 29 28 29 28 28 28 28 27 28 28 28 28
28 28 29 28 28 28 28 28 27 27 27 28 28 27 27 27
36 35 38 39 41 43 45 45 46 38 13 14 31 37 36 35
35 33 35 41 40 40 39 40 41 42 38 36 37 37 34 32
30 30 30 29 31 25 25 29 32 17 0 0 11 43 46 46
53 65 82 89 91 98 103 109 110 109 104 93 102 102 96 85
71 55 37 23 10 1 0 0 1 4 0 0 0 0 0 21
27 28 28 28 28 28 28 28 28 28 29 28 29 28 28 28
29 30 28 29 29 29 29 29 30 29 28 28 28 28 28 28
28 28 29 28 28 28 28 29 27 28 28 27 27 27 27 27
37 27 23 30 36 42 43 43 43 37 14 14 32 39 33 35
37 38 39 21 9 19 32 37 40 42 38 16 15 24 30 34
33 36 35 32 30 16 10 10 11 4 0 0 45 77 76 77
82 90 104 110 113 113 111 110 113 111 110 107 108 103 100 96
88 78 58 37 23 13 3 0 0 0 0 0 0 0 0 8
28 28 28 28 27 28 28 28 28 28 28 28 28 29 29 29
29 30 29 30 29 28 29 29 28 28 28 28 29 28 29 28
29 29 30 30 29 28 28 28 28 27 28 27 27 28 27 27
37 16 0 3 7 16 24 29 33 38 14 14 31 39 34 31
32 40 44 19 0 0 10 18 18 23 35 6 0 0 1 6
12 19 27 31 32 15 2 7 7 1 0 11 77 93 97 99
103 111 115 118 118 117 116 117 117 116 114 111 106 106 105 101
96 89 73 48 30 16 6 0 0 0 0 0 0 0 0 0
21 28 29 29 29 29 29 28 29 29 29 29 29 29 29 29
28 30 29 29 29 29 29 29 29 30 29 29 29 28 28 28
29 28 30 29 27 28 28 28 29 28 28 28 29 28 28 28
38 15 0 0 0 0 0 0 6 37 15 14 15 23 31 37
38 43 45 21 0 0 3 8 11 11 32 7 0 0 0 0
0 0 0 11 32 13 0 1 1 0 0 41 89 102 103 106
113 116 118 120 120 118 119 121 120 115 114 106 104 111 108 105
102 97 85 63 40 27 13 5 1 0 0 0 0 0 0 0
9 29 29 28 29 29 28 28 29 29 29 29 29 29 29 29
30 31 30 29 30 29 29 29 29 29 29 29 28 28 29 29
29 29 30 29 29 28 28 28 28 28 27 28 28 28 28 28
38 13 0 0 0 0 0 0 5 37 15 13 1 0 1 5
13 23 33 22 0 0 2 2 5 8 32 10 0 0 0 0
0 0 0 7 32 9 0 0 0 0 3 69 98 107 107 110
115 119 122 121 122 124 125 124 123 117 114 111 112 113 111 107
103 97 88 70 46 33 22 10 2 0 0 0 0 0 0 0
1 27 29 28 29 29 29 29 29 29 30 30 30 29 30 29
29 30 30 30 29 29 30 29 29 30 29 29 29 29 30 29
29 29 29 29 28 28 29 28 28 29 29 28 29 29 29 28
38 13 0 0 5 4 0 0 4 37 15 13 1 0 0 0
0 0 2 17 0 0 0 0 0 5 29 8 0 0 0 0
0 0 0 5 32 4 0 0 0 0 19 81 101 109 110 112
117 120 122 125 125 128 129 127 123 119 116 113 114 113 111 109
105 99 88 74 53 39 25 14 6 0 0 0 0 0 0 0
0 19 30 29 29 30 29 29 30 29 29 29 29 29 30 30
30 31 30 31 30 30 31 30 30 30 29 29 30 29 29 30
29 30 29 29 30 30 30 29 29 29 28 29 29 29 29 29
38 12 0 0 4 12 1 0 4 38 14 13 1 0 0 0
0 0 0 14 0 0 0 0 0 5 32 9 0 0 0 6
5 0 0 4 32 4 0 0 0 0 44 86 105 110 112 112
118 120 123 124 125 127 129 127 123 119 119 117 117 115 111 109
105 97 86 69 55 47 32 22 7 1 0 0 0 0 0 0
0 11 31 29 30 29 29 29 30 30 30 30 30 30 30 30
30 30 29 30 30 30 30 30 31 31 30 30 31 30 30 29
29 28 29 29 30 30 30 29 29 30 29 30 29 29 29 29
39 12 0 0 0 11 0 0 4 37 15 13 1 0 0 0
0 0 0 12 0 0 0 0 0 4 34 10 0 0 0 9
12 7 3 3 32 3 0 0 0 4 63 89 106 111 114 114
118 121 125 126 128 129 127 127 125 123 119 118 119 115 112 109
104 96 86 75 57 47 38 25 12 1 0 0 0 0 0 0
0 4 30 30 30 30 30 30 30 30 30 29 30 30 30 30
30 31 31 31 31 31 31 31 31 31 29 30 29 30 29 30
30 30 31 30 30 30 30 30 29 27 29 30 29 29 29 29
37 9 0 0 0 0 0 0 5 37 14 13 2 0 0 3
5 0 0 10 0 0 0 0 0 3 34 12 0 0 0 10
12 12 9 2 31 4 0 0 0 15 72 93 108 114 115 117
119 121 124 125 125 127 129 128 125 122 121 122 120 116 115 111
106 96 89 79 59 48 35 21 14 3 0 0 0 0 0 0
0 1 28 30 30 30 29 29 30 30 30 30 31 31 31 31
31 31 30 30 30 30 31 31 31 31 30 31 30 29 30 30
30 30 30 30 29 30 29 29 28 28 29 30 30 30 30 30
36 9 0 2 1 0 0 0 5 36 14 13 1 3 5 1
2 0 0 10 0 0 0 0 0 5 32 15 0 0 0 8
11 11 9 2 31 9 0 0 0 23 77 96 109 115 115 117
119 122 125 124 128 128 131 129 125 123 123 122 120 115 114 111
107 100 90 80 63 47 34 17 10 2 0 0 0 0 0 0
0 0 25 31 30 30 30 30 30 30 31 31 31 30 30 30
30 29 31 31 30 30 31 31 31 32 31 31 31 30 30 29
30 30 30 29 29 30 30 29 30 30 29 31 30 30 30 30
39 15 2 2 1 0 0 0 6 36 15 14 3 7 0 0
1 0 0 11 0 0 0 0 0 13 35 19 0 0 0 0
4 10 8 1 32 32 24 16 9 31 81 100 113 118 117 120
122 124 126 128 130 133 133 130 129 129 126 123 122 118 114 110
108 102 93 77 58 43 28 15 6 2 0 0 0 0 0 0
0 0 19 31 30 30 30 30 31 30 30 31 31 31 31 31
31 31 31 31 31 31 31 31 31 31 31 30 31 31 31 30
30 30 30 29 30 30 30 29 29 29 30 30 28 29 29 28
42 49 33 22 30 27 25 20 23 33 14 13 3 0 0 0
0 0 0 23 15 8 7 3 0 4 36 37 27 22 17 9
4 3 4 1 32 42 39 38 27 40 81 102 116 119 120 124
124 126 129 131 133 135 134 133 132 128 124 120 122 119 115 108
106 102 97 82 64 42 22 11 5 0 0 0 0 0 0 0
0 0 17 31 31 30 31 31 31 31 31 31 31 31 31 31
31 30 31 31 31 31 32 32 32 31 31 30 30 30 30 30
30 30 29 29 28 29 29 27 28 28 28 26 23 20 16 14
54 56 34 30 39 43 43 42 41 33 14 13 2 0 0 0
0 0 0 35 47 37 34 32 28 22 43 36 20 23 26 27
27 25 24 24 40 39 38 38 30 53 83 102 116 119 122 126
127 129 131 134 134 133 133 133 131 124 122 121 122 120 115 111
104 100 100 95 78 51 24 8 4 1 0 0 0 0 0 0
0 0 15 31 31 31 31 31 30 31 31 31 31 30 31 31
31 31 31 31 32 31 32 31 31 31 31 30 29 28 28 28
29 28 29 28 26 25 22 19 17 14 12 10 9 9 9 10
56 51 30 31 40 44 44 47 46 34 14 13 3 0 0 0
0 0 0 37 48 40 44 46 49 45 45 30 12 12 13 13
14 14 17 22 27 23 26 30 31 68 84 102 111 116 122 126
128 129 132 133 132 133 130 127 120 114 107 103 115 118 114 108
100 100 101 99 91 65 30 10 2 0 0 0 0 0 0 0
0 0 14 31 31 31 31 31 31 31 32 31 31 31 31 31
31 31 30 30 32 31 31 31 31 31 31 30 30 31 27 23
21 18 16 14 12 11 12 12 11 12 13 13 14 15 16 16
52 39 18 24 36 39 41 44 45 36 15 15 21 20 14 7
2 0 1 35 39 39 46 47 50 46 37 29 15 13 12 12
11 9 9 8 8 9 11 13 26 67 82 100 108 112 118 123
126 128 128 123 118 112 87 67 67 67 59 71 78 102 113 107
100 99 101 102 95 81 42 13 2 0 0 0 0 0 0 0
0 0 12 31 31 31 30 29 29 31 31 30 31 31 32 32
32 32 33 33 33 32 30 28 26 24 21 18 18 30 21 10
11 13 14 14 14 15 16 17 18 18 19 19 20 21 22 22
51 34 1 0 2 3 5 9 21 36 15 16 32 46 45 41
36 31 27 41 32 38 43 46 49 48 41 33 17 14 12 10
9 9 9 9 9 9 10 11 22 38 61 88 99 105 112 116
119 120 114 103 90 73 54 38 36 33 48 57 62 55 71 103
101 99 102 101 99 92 67 25 4 0 0 0 0 0 0 0
0 0 12 31 31 31 31 30 31 31 32 32 32 32 32 32
31 29 27 24 21 19 17 15 14 15 16 15 15 25 20 12
17 19 20 20 21 22 22 22 23 23 24 24 25 25 25 25
51 36 0 0 0 0 0 0 8 35 15 16 32 47 47 45
45 46 47 45 16 16 25 30 37 39 36 36 18 13 11 6
7 6 9 10 10 10 12 13 10 8 17 34 67 90 103 108
110 113 101 83 72 64 56 52 69 96 99 95 87 74 61 82
105 101 100 103 102 94 77 42 12 0 0 0 0 0 0 0
0 0 13 29 28 27 30 31 31 30 30 28 27 24 22 20
19 17 16 16 16 17 18 18 19 20 20 20 19 24 21 16
21 24 25 25 26 26 27 26 27 26 26 26 26 27 27 27
50 32 0 0 0 0 1 2 9 34 16 14 29 44 45 44
46 46 47 41 6 0 0 2 7 14 21 36 17 11 6 0
0 0 5 10 8 5 11 12 5 32 25 14 25 58 84 99
99 103 91 75 73 81 87 100 115 121 122 119 109 96 79 67
94 102 104 104 103 96 86 53 23 3 0 0 0 0 2 11
14 1 10 27 24 16 24 24 22 20 19 18 17 18 18 18
20 20 20 21 21 21 23 24 25 25 26 26 24 26 24 20
26 26 26 26 27 27 28 28 27 28 28 29 28 28 28 28
46 29 0 0 0 0 19 23 22 29 26 22 27 33 34 36
37 39 44 39 3 0 0 0 0 3 18 37 15 10 8 0
0 0 0 1 0 0 1 3 16 79 94 72 48 42 62 89
106 111 97 91 98 95 88 84 90 104 107 112 111 109 104 99
97 102 107 107 105 99 92 65 34 15 2 0 0 3 24 45
57 41 8 20 18 14 17 17 18 19 20 20 21 22 23 23
25 25 25 26 27 27 28 28 29 28 29 27 24 10 8 18
27 29 29 29 29 28 29 29 29 29 29 28 28 29 28 28
43 25 0 0 0 0 17 23 22 24 23 19 22 22 24 29
30 30 40 37 2 0 0 0 0 0 13 38 14 8 2 0
0 4 1 0 0 0 0 0 19 81 96 89 75 65 55 77
107 126 123 112 103 87 64 36 22 46 64 71 73 80 92 101
105 107 111 108 106 100 93 77 59 26 14 9 23 44 61 67
67 85 27 19 20 20 22 23 23 24 25 27 28 28 28 29
29 29 28 28 29 29 29 29 29 29 29 28 22 2 1 13
28 30 31 31 30 29 30 30 29 30 30 30 29 29 29 29
44 24 0 0 0 0 5 12 16 23 21 19 21 22 22 27
29 31 40 37 2 0 0 0 0 0 11 35 4 0 0 0
0 7 8 2 0 0 0 0 17 45 32 29 62 64 49 68
115 133 129 117 109 91 65 42 27 18 56 56 45 42 63 82
104 113 118 113 108 102 94 84 69 42 21 27 65 60 66 96
85 101 60 23 26 26 26 28 29 29 30 29 30 30 30 30
31 31 31 30 31 31 31 31 23 17 12 15 20 5 3 10
27 30 31 30 30 30 30 30 30 30 30 30 30 30 29 28
44 22 0 0 0 0 0 0 1 18 15 17 17 13 19 25
29 34 40 34 2 0 0 0 0 0 14 35 1 0 0 0
0 2 12 8 2 0 0 0 14 24 3 11 91 94 50 72
119 129 122 115 117 109 86 68 51 48 88 82 80 70 82 96
107 123 124 117 110 102 95 89 72 54 32 35 59 67 82 90
84 105 78 25 29 29 29 29 29 30 30 30 31 31 32 32
32 32 32 32 31 32 32 29 5 2 5 13 20 1 0 9
27 30 31 31 29 30 29 29 29 29 29 29 29 29 27 28
46 21 0 0 2 0 0 0 2 25 19 21 12 0 0 1
3 7 11 23 2 0 0 0 0 0 15 32 0 0 0 0
1 8 13 12 11 0 0 0 15 32 15 32 69 76 71 87
123 126 117 113 119 115 111 87 73 74 92 107 114 111 111 112
117 125 127 119 110 103 98 88 73 54 47 51 59 53 107 116
87 105 82 26 28 31 32 31 31 31 32 32 32 32 31 32
32 32 33 32 32 32 33 31 26 26 28 29 24 2 0 9
27 29 30 30 29 30 30 30 30 30 30 29 29 29 28 28
46 21 0 0 0 4 0 0 2 30 25 23 14 0 0 0
0 0 0 13 2 0 0 0 0 0 14 30 0 0 0 0
4 17 18 12 9 0 0 0 14 54 40 53 74 80 75 98
119 118 114 114 117 119 112 104 102 107 116 120 122 119 117 120
120 121 123 119 107 101 96 88 73 57 49 64 66 65 76 121
94 105 87 26 32 32 32 32 32 32 32 32 32 32 32 32
33 33 33 32 33 32 32 31 31 30 29 28 24 5 0 11
27 30 31 31 30 30 30 29 30 29 29 29 28 29 28 28
41 24 0 0 0 7 0 0 2 33 27 22 14 0 0 0
0 0 0 12 2 0 2 11 3 0 13 28 0 0 0 0
1 7 17 4 1 0 0 0 12 63 64 76 87 89 74 102
114 111 109 111 114 119 120 118 113 115 119 122 124 123 123 121
121 117 118 114 107 99 95 88 72 56 50 70 81 86 93 114
101 100 73 25 31 31 31 32 31 32 32 32 32 32 32 32
32 32 32 31 32 32 32 31 31 30 29 28 26 11 0 15
27 29 30 30 30 30 29 29 29 29 29 30 29 29 28 28
35 30 14 5 2 12 8 4 1 33 25 22 15 0 0 5
5 0 0 11 2 0 9 16 7 0 13 27 0 0 0 0
0 0 13 2 0 0 0 0 9 68 81 91 95 90 81 105
109 106 103 105 113 119 122 122 119 118 118 123 125 126 125 123
122 118 117 110 105 98 94 87 74 59 53 71 82 89 107 111
103 98 45 27 32 32 31 32 31 32 32 32 32 31 32 31
32 33 32 32 33 32 32 32 31 30 29 28 24 18 12 22
29 30 31 31 30 29 30 29 29 29 30 29 28 28 28 27
35 32 33 32 27 31 32 28 24 39 26 20 13 0 2 15
12 3 0 12 10 4 16 16 14 3 14 25 0 0 0 0
0 0 13 4 0 0 0 0 9 78 93 96 100 86 98 109
109 104 99 98 112 121 124 123 122 121 121 125 129 129 128 125
119 116 112 106 100 97 93 87 74 61 53 66 76 81 107 111
101 93 23 29 31 31 30 30 31 32 32 32 33 32 32 32
31 32 32 32 31 32 31 31 31 31 29 28 25 23 23 27
30 30 31 31 29 30 30 29 30 30 29 29 29 29 28 28
36 33 16 9 14 22 31 37 42 43 32 18 15 0 2 13
10 3 0 14 36 33 37 34 33 30 34 28 0 0 0 0
0 0 13 5 0 0 0 0 10 81 94 102 100 90 113 114
109 103 96 91 102 119 128 126 123 122 123 125 125 128 126 123
117 114 112 106 100 94 92 85 74 62 52 58 64 102 97 108
100 77 22 32 34 32 30 29 30 31 32 32 32 32 32 31
32 32 33 32 32 32 32 32 31 30 29 28 25 25 26 30
30 30 30 31 30 30 30 30 30 30 30 29 29 29 29 28
37 33 9 0 0 3 5 15 42 43 30 19 16 0 0 2
0 0 0 13 39 39 43 42 43 47 50 36 9 9 6 1
1 2 16 8 1 1 0 0 15 78 97 104 93 104 122 124
119 106 96 90 90 107 129 127 126 125 125 125 125 126 123 121
118 116 111 105 97 91 90 83 72 64 56 61 81 122 104 93
110 40 24 30 31 31 29 31 30 31 32 32 32 32 32 32
32 32 32 32 32 32 32 31 30 30 29 29 27 27 29 31
31 31 30 30 30 30 31 30 30 28 29 29 29 29 29 29
40 34 6 0 2 21 15 19 41 39 26 19 21 12 0 1
0 0 0 12 40 40 42 41 43 49 51 44 30 30 29 24
23 23 25 20 16 13 13 11 24 74 97 100 84 103 128 120
117 116 114 106 91 92 124 125 125 128 129 126 125 123 123 120
118 114 109 104 96 91 92 82 75 66 57 64 98 119 113 95
78 12 27 29 31 28 27 28 31 31 32 31 31 32 31 31
31 32 32 32 32 32 33 32 31 31 30 30 29 29 30 29
30 29 29 29 30 30 30 30 29 29 29 29 29 29 28 27
41 34 4 0 0 15 26 28 41 35 21 21 22 11 0 0
0 0 0 11 36 35 38 38 39 40 39 39 35 35 35 33
32 33 32 31 28 25 24 22 30 74 95 98 75 79 109 105
95 87 88 106 100 83 119 124 130 129 130 129 128 124 122 120
118 112 107 103 94 91 89 82 76 70 60 69 106 110 110 100
39 7 30 30 31 30 29 28 31 32 32 32 32 33 33 32
32 32 32 32 32 32 32 31 30 30 31 29 29 30 30 31
30 30 31 31 31 30 30 28 29 29 29 28 29 28 28 28
43 36 5 0 0 2 10 26 41 33 18 22 20 4 0 0
0 0 0 13 39 34 35 35 35 33 30 32 35 36 38 36
35 35 34 34 34 36 36 32 36 73 93 97 81 56 86 92
53 59 23 76 96 85 122 122 128 131 131 131 129 126 122 120
117 111 108 100 95 90 89 85 76 70 61 70 120 113 111 97
22 6 25 29 30 30 30 29 31 32 32 32 32 31 31 31
31 31 32 30 31 32 32 31 31 31 31 30 30 31 31 31
30 30 30 31 30 30 30 30 30 29 29 28 29 29 29 28
44 38 6 0 0 0 0 20 42 32 20 20 21 20 16 13
10 8 6 16 40 33 34 33 33 34 35 37 38 39 41 45
44 37 34 35 36 43 42 40 41 74 97 98 95 75 62 73
101 115 111 103 90 109 127 122 124 130 132 131 129 126 123 119
117 113 107 100 94 90 88 85 76 69 58 59 96 114 104 58
1 7 20 26 28 29 31 30 29 31 32 32 32 32 32 32
32 33 33 32 32 33 32 32 32 31 31 31 31 32 32 31
31 31 31 31 27 21 26 30 29 28 29 28 29 28 28 27
44 37 4 0 0 0 0 17 42 32 19 20 24 39 42 40
39 41 42 42 45 37 35 36 36 38 40 43 41 39 42 47
45 37 33 30 36 45 43 42 43 73 99 104 97 85 67 83
95 107 109 112 119 126 130 124 122 124 128 129 128 125 121 117
113 111 105 100 94 90 90 85 76 67 56 48 21 50 37 2
0 10 17 22 27 29 32 32 31 32 33 32 31 32 31 31
31 32 33 32 32 32 32 32 32 32 31 32 32 32 32 31
31 30 30 27 17 24 18 30 30 29 29 29 29 28 27 27
43 34 3 0 0 0 0 17 42 33 18 21 25 46 50 49
50 50 50 50 47 35 32 32 32 34 40 45 44 41 41 41
40 38 35 31 31 38 35 34 38 70 101 111 104 90 75 104
104 112 114 114 120 126 130 127 123 125 126 127 126 124 121 118
113 106 105 100 94 95 88 84 75 64 55 46 21 27 15 0
2 11 8 17 25 30 32 31 32 33 33 32 32 32 32 31
32 32 32 32 32 32 32 31 31 31 31 33 32 32 31 32
32 31 31 19 29 27 21 30 29 29 29 28 29 27 27 27
42 33 2 0 0 0 0 15 41 32 15 21 21 34 39 40
41 43 45 47 45 17 12 9 7 10 16 31 45 40 27 16
20 22 22 27 32 24 8 5 9 64 100 109 99 80 88 110
105 108 117 116 117 122 123 126 124 127 129 128 126 117 118 115
113 107 101 98 95 91 87 80 73 63 53 45 44 41 10 0
7 14 15 20 27 30 31 31 32 33 33 32 31 31 31 31
31 31 32 32 31 31 30 29 29 27 27 29 31 32 31 31
31 31 30 18 30 18 27 30 29 29 29 28 29 26 21 19
42 34 2 0 0 0 0 11 36 28 14 20 19 23 25 25
25 25 27 28 31 7 0 0 0 0 0 16 43 34 8 0
1 4 8 23 35 23 1 0 0 51 96 102 86 73 90 103
103 113 119 119 118 122 121 123 124 124 125 126 125 123 118 113
112 106 100 98 99 93 85 79 69 60 50 43 46 41 7 0
12 18 19 25 29 31 31 32 33 32 32 30 29 29 28 29
30 32 32 32 30 18 14 12 10 8 8 18 31 32 32 32
32 32 30 19 30 17 26 22 20 25 27 26 25 9 0 0
40 33 2 0 0 0 0 11 38 31 13 19 18 27 29 29
29 28 28 28 29 11 2 0 0 0 3 21 42 23 0 0
0 0 2 25 35 25 1 0 0 34 92 95 82 63 80 85
98 104 105 107 112 120 120 121 121 122 122 125 125 123 117 112
109 104 102 100 98 92 83 77 66 57 48 43 49 41 4 1
15 20 20 27 30 29 30 24 22 19 17 15 11 9 9 10
19 31 31 31 29 10 4 4 4 5 4 16 32 32 33 32
32 31 29 12 9 2 10 3 1 4 5 2 1 0 0 0
37 29 2 0 0 0 0 11 40 31 12 18 18 29 32 32
32 32 34 34 32 10 2 0 0 0 3 20 40 14 0 0
0 0 0 23 34 25 1 0 0 18 84 89 77 48 71 72
79 89 91 84 81 88 100 106 116 122 121 124 123 120 114 110
108 106 101 101 97 93 84 73 63 53 46 43 49 39 3 2
19 18 20 28 31 30 24 7 4 6 7 7 2 1 1 0
11 30 31 31 29 10 5 4 5 4 4 15 32 32 32 32
31 17 10 1 0 0 2 0 0 0 0 0 0 0 0 0
28 21 13 9 6 6 6 17 36 29 15 21 21 31 33 33
33 33 34 35 34 9 1 0 0 1 4 11 37 10 0 0
0 0 0 22 33 23 0 0 0 7 77 94 76 39 62 75
76 79 83 84 78 69 63 72 104 121 124 128 124 119 113 111
110 105 102 98 92 91 83 71 62 50 46 47 51 38 3 5
16 20 22 28 29 30 22 4 1 6 5 6 2 2 1 0
9 29 32 31 27 8 5 4 5 4 5 15 32 32 33 33
31 5 0 0 0 0 0 0 0 0 0 0 0 0 0 0
31 30 29 28 27 26 25 25 26 25 23 24 25 26 26 27
27 27 28 29 32 12 0 0 0 1 3 6 36 8 0 0
0 0 0 21 34 21 0 0 0 0 63 96 87 56 80 103
103 98 103 99 95 98 102 107 101 115 124 126 123 117 110 107
107 104 102 97 90 89 82 65 57 49 47 50 51 38 4 6
19 23 26 28 29 31 23 5 2 6 6 7 2 0 1 0
8 29 31 31 29 9 4 4 4 4 4 10 31 32 31 30
30 10 1 10 10 13 16 17 19 15 0 0 2 8 0 1
30 28 27 26 27 26 25 24 24 23 23 23 24 24 23 23
23 23 23 23 27 20 3 0 0 2 3 5 35 8 0 0
0 0 0 18 34 23 3 0 0 0 44 96 85 57 64 83
88 87 84 86 99 113 119 120 116 115 122 125 122 117 110 108
106 102 100 98 92 86 74 61 53 49 49 53 52 42 4 6
21 23 24 30 29 31 24 4 1 5 6 7 2 1 1 0
8 29 31 31 30 12 6 6 8 8 8 11 27 30 31 30
30 15 12 30 29 28 28 28 27 10 0 0 0 3 18 19
29 28 26 26 26 25 24 23 22 22 22 21 22 22 22 21
22 22 22 22 26 16 0 0 0 0 2 5 34 7 0 0
0 0 0 14 35 24 3 0 0 0 26 88 82 70 68 65
65 67 74 95 113 121 123 122 122 118 117 120 120 114 109 105
105 102 98 94 89 82 69 56 50 51 54 58 54 43 5 8
20 21 27 31 31 32 24 5 2 5 6 6 2 0 1 0
7 28 31 31 30 17 12 11 11 11 11 14 26 31 32 32
31 14 22 30 29 28 27 28 27 8 0 0 0 0 20 20
16 14 13 12 12 11 11 10 10 10 10 10 11 11 11 12
12 14 17 21 22 9 0 0 0 0 0 4 34 9 0 0
0 0 0 10 36 23 1 0 0 0 9 74 80 83 93 97
100 101 103 108 116 122 123 122 119 118 116 117 118 114 107 106
102 98 94 91 84 76 61 54 51 55 62 63 57 45 9 4
18 28 31 30 30 29 25 5 1 2 2 2 1 0 1 0
6 29 31 32 30 15 6 6 6 6 5 8 26 31 32 31
27 9 29 31 30 28 27 27 26 7 0 0 0 0 15 19
0 0 0 0 0 0 0 0 0 0 0 0 0 0 0 0
0 3 15 20 22 7 0 0 0 0 1 2 33 13 0 0
0 0 0 10 37 25 9 5 5 6 9 55 70 84 101 105
109 112 115 120 123 124 123 121 119 117 115 114 112 106 103 100
96 97 90 85 77 66 57 52 56 65 68 69 60 48 13 11
27 31 32 31 31 31 25 6 2 2 0 0 1 0 2 0
5 27 31 32 29 14 5 6 6 5 6 7 17 11 12 14
9 23 31 30 29 28 28 27 25 3 0 0 0 0 12 19
0 0 0 0 0 0 0 0 0 0 0 0 0 0 0 0
0 3 20 21 21 12 5 4 4 7 14 10 32 30 21 19
22 22 22 29 41 31 33 34 34 36 41 50 63 80 102 104
113 117 121 125 124 124 123 120 117 115 113 111 109 102 97 97
98 92 84 79 70 63 56 54 61 71 73 73 61 50 27 24
32 32 32 33 33 32 25 6 2 1 0 1 3 1 3 0
5 27 31 33 31 18 5 5 5 5 5 4 9 27 26 24
28 30 30 30 29 28 26 24 22 3 0 0 0 0 9 18
0 0 0 0 0 0 0 0 0 0 0 0 0 0 0 0
0 2 20 21 20 25 30 26 27 31 31 30 32 41 47 43
43 45 46 48 47 32 34 39 41 45 51 52 56 75 99 104
116 119 124 125 126 125 123 118 114 112 111 111 108 100 94 94
93 85 78 73 66 62 57 60 69 78 79 76 65 52 32 25
30 32 31 33 32 31 25 7 1 1 1 4 3 1 3 0
4 26 30 32 30 16 5 5 5 5 5 3 17 33 33 31
31 30 29 28 27 7 3 1 1 0 0 0 0 0 8 18
0 0 0 0 0 0 0 0 0 0 0 0 0 0 0 0
0 1 21 22 20 26 32 29 31 32 29 25 25 33 45 45
44 43 46 46 46 34 29 35 37 41 45 45 48 67 91 109
113 112 125 130 131 125 119 116 113 109 109 107 102 97 93 92
86 81 74 73 68 60 59 68 75 82 83 76 67 56 37 25
31 32 33 34 33 30 25 8 2 1 0 0 1 1 3 0
4 26 30 32 31 17 5 5 5 4 4 2 17 32 32 31
30 30 29 29 23 0 0 0 0 0 0 0 0 0 6 16
0 0 0 0 0 0 0 0 0 0 0 0 0 0 0 0
0 0 19 21 20 22 25 24 27 30 31 26 24 26 26 27
27 27 28 27 29 28 25 29 31 33 30 27 31 57 88 114
113 96 118 134 128 118 115 115 109 106 102 98 96 97 91 87
81 77 74 72 66 61 63 70 80 88 84 82 70 59 41 25
31 31 32 34 31 29 26 8 2 1 0 0 2 1 3 1
3 25 29 31 30 16 3 4 4 4 4 2 15 32 32 31
30 30 30 28 24 0 0 0 0 0 0 0 0 0 5 16
0 0 0 0 0 0 0 0 0 0 0 0 0 0 0 0
0 0 19 21 19 17 15 19 20 24 28 25 23 25 20 21
22 24 24 25 27 30 31 33 34 34 31 28 28 44 82 110
116 93 108 124 120 114 112 106 99 94 91 90 89 90 85 83
79 77 75 69 64 62 65 74 86 89 89 82 72 63 44 21
32 31 32 33 31 29 26 9 2 1 1 1 1 1 3 1
2 23 29 31 30 18 4 3 4 3 3 1 11 31 31 29
30 29 29 28 27 7 0 0 0 0 0 0 0 0 4 15
0 0 0 0 0 0 0 0 0 0 0 0 0 0 0 0
0 0 16 21 18 14 3 3 4 7 10 10 16 28 26 29
28 35 37 32 32 34 35 38 42 42 36 31 30 37 75 104
113 96 98 113 111 109 104 100 91 89 90 90 91 84 84 84
80 77 71 70 61 65 70 80 90 90 90 84 77 68 49 7
66 40 32 33 31 29 27 10 1 2 1 2 1 1 2 1
2 22 28 29 28 18 2 3 3 3 1 1 6 29 30 31
30 29 29 28 27 17 1 0 0 0 0 0 0 0 1 8
0 0 0 0 0 0 0 0 0 0 0 0 0 0 0 0
0 0 15 21 18 14 0 0 0 0 0 0 13 27 31 38
35 44 49 27 14 16 17 20 27 40 37 31 30 31 55 89
101 99 87 99 99 98 95 87 83 86 89 86 86 82 84 82
78 75 69 64 63 66 75 88 92 95 90 87 81 69 52 7
53 59 31 33 31 29 27 10 2 1 1 1 0 0 0 0
1 20 26 27 27 21 13 15 13 8 13 13 4 25 30 30
29 29 29 26 20 32 5 0 0 0 0 0 0 0 0 5
0 0 0 0 0 0 0 0 0 0 0 0 0 0 0 0
0 0 12 21 17 17 2 0 0 0 0 0 15 27 29 37
24 26 37 15 0 0 0 0 7 37 38 30 31 31 36 64
82 96 84 82 83 79 77 79 80 80 83 85 88 81 82 79
74 70 66 66 66 75 85 88 97 95 95 89 85 72 55 15
39 65 31 33 32 30 27 11 1 1 1 1 0 0 1 0
1 20 26 28 27 26 26 26 25 23 26 25 13 15 30 29
27 23 23 15 0 1 1 1 0 0 0 0 0 0 0 4
0 0 0 0 0 0 0 0 0 0 0 0 0 0 0 0
0 0 10 21 17 18 4 0 0 0 0 0 14 25 27 34
9 1 21 15 0 0 0 0 4 34 37 30 30 31 30 31
40 59 67 63 60 61 66 73 81 82 84 79 79 78 76 70
68 69 65 67 73 84 86 95 96 101 96 95 85 72 55 19
56 52 30 32 31 30 27 12 1 1 1 0 1 0 0 0
0 19 26 27 28 27 28 28 28 27 27 27 24 5 11 7
1 2 0 0 0 0 0 0 0 0 0 0 0 0 0 4
0 0 0 0 0 0 0 0 0 0 0 0 0 0 0 0
0 0 7 20 16 12 0 0 0 0 0 0 14 25 27 34
10 0 18 18 0 0 0 0 1 29 37 30 30 31 30 31
28 34 44 49 56 62 69 73 77 78 77 75 73 71 69 69
69 67 69 76 79 87 95 96 101 101 101 94 87 77 58 20
74 47 28 32 31 29 28 13 0 0 1 0 0 0 0 0
0 20 29 29 29 28 27 27 27 27 16 8 6 1 0 0
0 0 0 0 0 0 0 0 0 0 0 0 0 0 0 2
0 0 0 0 0 0 0 0 0 0 0 0 0 0 0 0
0 0 6 20 17 11 0 0 0 0 0 0 15 23 26 34
9 0 16 21 0 0 0 0 0 26 38 30 30 30 30 30
33 41 48 50 62 68 70 69 73 71 67 69 67 66 68 65
68 70 75 77 87 95 96 104 104 105 100 93 89 80 53 29
60 17 24 34 31 30 28 15 3 2 1 1 1 0 0 1
6 22 28 29 28 28 27 27 26 26 5 0 0 0 30 21
0 0 0 0 0 0 10 5 0 0 0 0 0 0 0 0
0 0 0 0 0 0 0 0 0 0 0 0 0 0 0 0
0 0 5 20 16 11 0 0 0 0 0 0 14 22 26 35
9 0 14 21 0 0 0 0 0 22 38 30 30 30 30 32
39 24 53 39 40 52 57 60 58 57 57 59 59 61 67 69
75 77 83 83 98 97 105 106 109 105 99 94 88 78 42 69
77 10 28 32 31 30 28 24 18 16 12 12 11 6 1 9
18 26 31 31 30 28 27 26 25 24 3 0 0 17 78 89
13 0 0 0 0 0 3 4 0 0 0 0 0 0 0 0
0 0 0 0 0 0 0 0 0 0 0 0 0 0 0 0
0 0 5 20 17 12 0 0 0 0 0 0 12 24 26 34
10 0 13 23 2 0 0 0 0 22 38 30 29 29 29 32
42 17 31 72 33 46 38 35 38 41 45 50 52 60 69 75
83 87 92 98 104 108 108 114 111 106 101 96 91 73 53 90
49 9 31 23 29 30 28 27 26 23 20 19 17 9 0 13
22 27 31 30 29 28 26 26 19 9 0 0 0 5 17 20
2 0 0 0 0 0 0 0 0 0 0 0 0 0 0 0
0 0 0 0 0 0 0 0 0 0 0 0 0 0 0 0
0 0 4 20 16 12 0 0 0 0 2 0 10 26 28 36
19 4 12 25 4 2 3 1 0 20 37 30 29 29 30 33
49 19 14 72 71 44 61 56 37 29 33 43 54 67 78 89
94 100 101 105 110 112 117 114 112 107 103 98 90 56 74 93
47 11 28 21 26 27 28 28 27 24 21 20 19 12 0 15
24 28 30 30 30 28 27 26 14 0 0 0 0 0 0 0
0 0 1 1 1 2 2 1 0 0 0 0 0 0 0 0
0 0 0 0 0 0 0 0 0 0 0 0 0 0 0 0
0 0 3 19 17 13 1 0 0 0 7 6 9 29 29 36
20 13 11 24 2 8 7 1 0 18 36 30 30 30 26 32
52 28 22 26 91 103 65 97 110 104 90 78 78 86 94 100
105 109 109 108 114 117 117 116 113 107 105 100 79 62 76 65
26 25 26 38 40 35 38 29 33 29 24 23 23 15 0 16
25 27 29 29 28 27 27 26 14 0 0 0 0 0 0 0
0 0 0 0 0 0 0 0 0 0 0 0 0 0 14 25
0 0 0 0 0 0 0 0 0 0 0 0 0 0 0 0
0 0 3 21 18 15 9 10 9 11 18 20 22 35 31 37
18 22 14 25 8 12 11 7 6 19 31 29 30 29 28 36
41 38 31 17 47 102 85 77 104 122 119 112 107 106 108 109
110 112 119 120 120 119 119 117 113 109 106 99 59 67 95 71
14 31 25 33 46 52 44 46 31 37 25 39 30 18 0 16
26 28 29 29 29 28 28 27 20 3 0 0 0 0 0 0
0 0 0 0 0 0 0 0 0 0 0 0 0 0 29 32
0 0 0 0 0 0 0 0 0 0 0 0 0 0 0 0
0 0 2 19 17 15 25 32 34 35 37 39 41 44 36 36
11 18 17 29 23 23 23 22 22 23 25 27 22 34 58 43
35 41 40 25 27 47 108 69 79 102 125 125 122 118 117 116
120 122 123 121 120 121 122 118 113 111 106 85 57 32 23 72
16 25 16 16 39 51 41 42 45 26 16 30 39 25 11 19
26 27 27 28 27 27 27 27 25 9 0 0 0 0 0 0
0 0 0 0 0 0 0 0 0 0 0 0 0 6 31 31
0 0 0 0 0 0 0 0 0 0 0 0 0 0 0 0
0 0 2 20 18 16 31 37 38 39 41 41 42 45 40 36
7 5 12 30 25 25 26 25 25 28 33 38 42 49 56 49
35 28 48 35 17 24 53 31 69 71 102 124 125 123 121 121
123 123 123 124 123 123 122 118 114 112 94 62 59 14 2 45
22 23 14 9 26 42 48 45 39 51 49 32 30 16 16 30
31 27 27 27 27 27 28 26 23 1 0 0 0 0 0 0
0 0 0 0 0 0 0 0 0 0 0 0 0 9 19 19
0 0 0 0 0 0 0 0 0 0 0 0 0 0 0 0
0 0 1 19 16 14 21 23 23 23 23 23 23 22 26 33
7 1 8 30 27 28 29 33 42 56 52 62 54 54 63 55
30 25 36 54 28 22 14 18 50 75 79 111 128 127 126 125
125 124 125 125 123 123 121 117 114 107 75 61 48 2 1 30
23 20 23 0 6 35 52 34 33 43 76 68 43 38 61 79
60 34 33 30 27 26 27 26 21 0 0 0 0 0 0 0
0 0 0 0 0 0 0 0 0 0 0 0 0 2 2 0
0 0 0 0 0 0 0 0 0 0 0 0 0 0 0 0
0 0 1 18 17 13 5 1 2 3 4 6 7 7 16 32
9 0 6 29 27 32 52 58 29 35 47 37 46 50 65 50
44 22 21 56 42 28 13 1 27 70 76 85 115 132 129 129
127 127 126 125 125 123 120 119 113 87 55 57 24 0 1 29
19 40 47 7 15 30 36 18 16 34 65 60 37 38 90 97
104 99 85 44 35 34 27 26 15 0 0 0 0 0 0 0
0 0 0 0 0 0 0 0 0 0 0 0 0 0 0 0
0 0 0 0 0 0 0 0 0 0 0 0 0 0 0 0
0 0 1 17 16 13 6 2 3 4 5 7 9 8 19 34
14 5 10 30 30 28 36 33 29 44 52 48 47 46 41 21
25 17 22 31 41 48 15 1 22 60 74 77 89 120 134 134
130 125 126 128 128 124 123 122 106 70 63 36 10 0 8 38
41 51 56 17 25 48 58 35 32 20 48 68 41 36 65 78
72 70 72 73 71 60 41 34 18 1 0 0 0 0 0 0
0 0 0 0 0 0 0 0 0 0 0 0 0 0 0 0
0 0 0 0 0 0 0 0 0 0 0 0 0 0 0 0
0 0 1 19 17 13 10 7 8 8 9 9 10 10 20 35
26 33 38 40 22 20 25 36 47 53 35 41 31 42 45 25
27 28 32 25 30 59 29 16 52 34 73 70 81 98 130 135
132 130 131 132 130 129 126 114 97 58 30 23 17 2 34 37
39 39 39 5 11 40 64 51 44 32 28 37 19 10 24 70
82 83 90 81 68 90 73 32 35 35 24 9 0 0 0 0
0 0 0 0 0 0 0 0 0 0 0 0 0 0 0 0
0 0 0 0 0 0 0 0 0 0 0 0 0 0 0 0
0 0 5 21 17 12 10 9 10 11 12 13 13 11 20 33
29 39 40 46 53 46 48 36 38 37 13 18 24 66 71 40
43 85 51 25 25 36 42 7 41 63 54 83 86 84 111 133
135 135 136 136 136 136 134 132 120 34 17 30 18 29 56 33
55 63 66 33 29 39 38 37 26 23 44 57 37 17 26 93
104 106 110 108 90 70 72 34 13 23 38 37 21 9 0 0
0 0 0 0 0 0 0 0 0 0 0 0 2 0 0 0
0 0 1 1 1 2 3 3 4 5 6 6 7 7 8 9
10 10 12 15 14 12 11 10 11 12 13 14 14 12 17 26
39 48 43 90 116 114 98 30 39 47 23 27 42 74 63 25
20 82 81 28 29 23 47 30 3 20 34 70 113 115 123 136
137 137 137 137 137 137 136 132 68 27 21 20 24 53 40 58
58 66 85 47 36 51 64 45 32 31 32 64 55 33 31 81
95 100 102 89 72 69 97 73 33 38 56 43 20 21 22 2
0 0 0 0 0 0 0 0 0 0 0 8 7 0 0 0
14 15 15 15 14 14 13 13 13 13 13 13 13 13 13 13
13 13 13 12 13 13 11 10 10 11 12 13 16 33 45 49
52 71 89 79 91 96 96 27 56 55 39 44 43 48 45 20
37 100 102 81 52 17 26 41 7 9 28 32 88 127 132 137
138 138 138 138 137 137 136 93 25 15 15 10 56 32 41 43
57 69 76 26 21 51 65 61 38 38 30 48 43 23 19 47
98 86 91 102 105 103 74 70 19 17 36 47 39 32 30 18
2 0 0 0 0 0 0 0 0 0 0 18 7 0 0 0
18 18 18 17 15 15 14 13 13 13 13 14 13 13 13 13
13 13 12 13 12 12 12 11 12 12 13 17 40 50 67 82
89 85 83 73 77 78 65 16 46 35 39 35 41 72 73 34
40 117 115 111 72 31 21 48 8 11 26 30 57 106 131 137
138 138 138 137 137 136 131 47 11 14 5 43 54 38 44 62
81 74 77 25 9 22 38 41 29 24 28 59 68 51 33 57
109 105 111 113 113 100 86 97 42 30 49 61 50 25 23 27
17 6 0 0 0 0 0 0 0 0 0 23 3 0 0 0
18 17 17 17 16 15 14 13 13 13 13 13 13 13 12 12
12 10 10 10 10 10 11 11 12 13 25 43 44 24 62 76
92 100 110 97 79 82 78 31 73 35 23 33 51 79 75 36
32 88 83 93 73 44 52 51 30 6 16 25 18 43 90 131
139 138 138 138 138 137 112 36 12 15 22 51 49 63 94 99
102 97 103 39 12 22 35 30 16 16 14 37 59 43 25 29
84 79 90 103 96 76 68 70 51 33 41 65 67 39 36 37
33 27 6 0 0 0 0 0 0 0 0 16 0 0 0 0
17 16 15 14 13 12 11 10 8 7 6 5 4 3 2 2
5 5 8 9 9 10 11 12 25 51 53 47 32 29 87 94
94 99 101 96 105 116 84 36 75 38 46 42 47 57 48 18
18 83 78 90 89 77 78 58 41 10 28 34 16 21 28 64
120 138 138 137 137 115 58 34 34 17 61 52 85 120 120 120
120 120 119 62 41 54 67 50 26 34 29 22 48 34 10 11
56 71 73 77 72 71 73 65 33 8 12 39 39 20 15 14
19 22 25 2 0 0 0 0 0 0 0 1 0 0 0 0
4 3 2 2 2 1 0 0 0 0 0 0 0 0 0 0
4 6 9 10 10 11 14 34 57 42 40 37 35 28 86 98
101 97 91 74 100 104 64 33 46 26 38 27 25 45 43 17
16 87 103 110 114 119 99 80 57 42 67 76 54 38 39 46
63 117 138 137 121 47 34 37 43 27 81 49 101 101 97 107
107 105 109 49 35 55 80 81 53 53 50 41 66 52 16 15
63 98 92 90 82 89 112 116 77 11 9 39 38 22 11 15
22 20 17 15 1 0 0 0 0 0 0 0 0 0 0 0
0 0 0 2 10 13 14 13 15 16 16 16 16 6 0 0
3 6 7 8 9 17 46 43 23 34 60 62 55 31 105 111
111 110 112 95 100 108 70 37 44 15 20 22 25 49 53 32
36 108 127 129 132 132 124 63 68 44 46 76 82 57 47 26
49 96 124 131 85 41 34 36 38 56 97 103 125 124 126 131
125 126 126 63 33 40 66 63 38 37 34 42 77 74 48 45
78 119 118 120 118 120 123 114 104 49 35 52 61 55 45 48
30 12 21 43 17 0 0 0 0 0 0 0 0 0 0 0
1 2 3 12 32 32 32 30 28 25 23 25 27 17 0 0
3 5 6 8 21 32 33 25 28 29 50 67 46 29 79 78
82 106 107 105 116 120 74 55 74 21 19 27 43 83 86 59
42 92 111 111 107 108 105 98 87 56 49 80 60 45 42 58
51 82 65 88 64 37 49 77 64 53 105 133 130 133 134 134
134 133 129 77 52 57 91 89 58 62 62 50 55 58 36 26
49 96 104 115 108 105 112 103 114 69 32 60 81 64 45 44
28 1 8 73 54 4 0 0 0 0 0 0 0 0 0 0
1 4 6 11 32 30 30 29 27 26 25 32 36 31 10 6
6 5 8 29 42 54 54 28 30 30 38 58 51 28 78 73
64 82 77 80 88 96 56 62 67 45 51 57 66 78 74 45
28 79 135 136 135 136 135 135 122 111 64 82 98 68 68 71
62 54 72 75 56 32 57 83 57 49 102 134 135 135 134 134
133 133 131 81 49 54 85 92 59 62 60 50 74 87 65 53
69 121 120 125 121 120 130 132 130 104 44 45 61 50 34 36
35 12 10 69 58 35 0 0 0 0 0 0 0 0 0 0
14 18 18 16 30 37 38 36 34 33 32 31 30 26 13 11
10 12 35 38 40 49 45 36 41 36 45 72 52 60 111 100
93 95 94 95 93 98 62 66 61 41 50 42 44 81 90 66
52 88 137 137 137 137 136 135 136 135 83 70 100 89 65 67
67 50 70 61 34 37 79 88 56 53 111 135 135 134 134 134
134 134 132 85 46 50 89 98 66 59 54 58 70 89 68 43
64 119 122 128 129 129 128 132 131 112 52 53 89 80 53 56
49 23 37 81 59 72 43 0 0 0 0 0 0 0 0 0
17 19 17 16 22 28 26 24 21 20 19 18 17 15 8 5
7 28 53 26 40 60 50 21 18 23 31 53 35 44 101 115
118 114 108 112 125 124 89 78 77 56 59 59 69 97 95 71
52 79 138 138 137 137 137 136 137 135 102 49 95 95 71 62
61 58 56 29 32 61 96 87 53 50 111 135 134 134 135 133
133 133 131 94 53 51 89 94 67 53 56 57 71 89 74 47
60 114 122 130 132 131 130 132 131 120 52 44 81 86 60 57
51 23 44 112 79 66 81 40 0 0 0 0 0 0 0 0
20 19 18 17 17 16 16 15 15 14 14 15 14 13 4 1
17 44 91 45 36 49 37 13 12 14 20 38 42 65 123 120
124 127 117 104 110 108 72 82 78 63 71 66 68 94 90 70
50 73 136 137 137 136 137 136 136 134 115 44 77 101 80 67
51 67 45 29 50 80 94 82 52 48 114 135 136 134 134 134
133 133 130 93 53 53 87 95 69 57 59 58 75 86 77 46
56 110 123 126 129 129 129 132 133 127 55 50 74 88 70 57
47 35 59 110 102 60 63 61 12 0 0 0 0 0 0 0
16 13 10 8 6 4 2 1 9 15 15 15 15 14 6 16
50 92 103 51 19 49 48 28 24 22 28 53 45 63 129 134
134 131 120 121 136 131 69 80 78 63 66 63 63 94 95 73
54 71 137 138 138 137 137 136 136 136 122 50 52 97 92 66
53 54 33 52 66 83 95 85 55 55 119 134 135 136 135 135
133 134 133 91 51 52 85 99 77 61 61 58 69 90 73 50
50 100 121 129 128 130 129 132 134 129 62 49 63 79 72 58
51 43 95 115 88 89 75 55 50 0 0 0 0 0 0 0
0 0 0 0 0 0 0 0 6 16 15 15 16 14 18 44
78 95 89 63 37 78 77 52 50 54 48 58 42 51 126 132
132 126 115 124 137 134 58 83 75 62 68 64 58 94 96 80
50 67 134 138 137 135 136 136 137 136 127 60 50 87 99 71
66 55 38 50 65 94 97 87 54 61 121 135 135 134 135 135
134 134 133 93 45 49 79 92 78 61 58 63 69 86 81 57
50 93 125 129 131 131 129 129 132 131 67 47 64 82 75 55
51 49 108 127 102 89 100 83 113 27 0 0 0 0 0 0
0 0 0 1 2 3 5 6 12 15 13 14 15 19 37 53
92 90 110 71 33 65 61 40 33 36 32 53 45 52 125 130
134 123 112 132 139 135 64 85 73 62 64 62 61 90 97 82
55 68 133 137 137 137 138 137 137 136 130 61 51 75 100 71
73 51 65 56 69 101 101 85 54 59 123 135 135 134 134 133
135 134 133 98 46 48 79 89 77 64 56 62 64 90 89 59
44 80 127 131 132 132 131 131 134 132 63 40 60 83 72 54
55 55 107 128 106 106 92 89 118 63 0 0 0 0 0 0
14 14 14 14 14 15 16 16 18 19 20 20 24 39 51 92
95 105 109 62 37 75 79 57 60 55 54 67 47 57 125 136
135 120 110 135 138 132 63 81 78 65 66 63 63 92 100 86
54 65 129 137 136 135 136 135 135 135 130 62 52 70 98 72
74 45 64 51 65 97 97 78 56 56 125 135 135 136 135 134
134 134 133 100 51 53 83 90 72 62 59 59 64 91 86 61
51 74 127 131 131 130 131 131 133 132 71 44 51 83 75 54
57 51 100 124 107 116 113 104 109 80 0 0 0 0 0 0
23 22 22 22 22 23 23 22 25 22 20 19 30 65 84 84
102 101 76 55 49 66 84 73 63 65 61 78 52 55 119 139
135 118 112 137 138 132 63 81 76 67 62 62 64 92 101 87
53 66 130 137 135 136 134 136 136 135 133 67 55 69 85 65
77 46 61 49 65 96 95 76 54 58 126 136 135 135 134 134
134 134 134 106 50 53 83 90 70 63 65 62 65 90 84 58
50 74 127 132 133 132 132 130 134 132 79 37 54 85 80 57
59 51 93 120 110 114 111 111 99 93 0 0 0 0 0 0
25 24 25 20 19 19 18 19 23 22 21 23 55 110 105 94
97 86 69 55 49 59 82 77 58 63 67 82 52 53 113 140
137 119 112 137 138 133 68 81 79 66 69 70 70 89 100 83
58 64 126 137 137 136 135 136 136 136 134 74 57 70 84 66
89 52 54 64 66 89 89 75 50 55 125 135 135 134 134 135
134 134 135 109 52 57 82 90 75 63 67 64 62 86 85 65
50 69 127 131 131 130 127 131 133 131 90 36 51 82 82 58
55 48 85 120 117 114 113 116 89 102 4 0 0 0 0 0
23 23 26 24 24 25 25 26 26 26 26 31 94 124 103 72
83 80 106 80 49 60 84 79 59 58 77 84 47 50 112 139
138 118 117 138 138 130 63 76 77 64 68 63 63 85 98 80
55 58 125 137 137 137 137 136 137 136 135 74 53 72 81 65
82 42 53 60 67 94 95 80 53 56 124 136 134 134 131 130
128 128 130 109 43 44 78 93 81 60 63 60 61 81 86 67
52 65 125 131 130 130 125 126 134 132 98 41 48 83 84 59
48 50 78 120 113 114 119 117 83 103 10 0 0 0 0 0
31 30 29 29 29 28 28 28 28 28 29 56 112 133 75 49
81 107 116 72 44 54 79 76 55 52 76 83 48 47 110 140
139 119 121 138 137 124 53 73 73 59 62 63 66 87 100 81
57 58 122 138 137 137 136 136 136 135 134 71 49 67 78 55
60 27 43 50 49 77 79 52 21 25 93 110 103 104 95 102
107 114 108 88 22 28 50 66 59 29 28 29 28 46 58 57
38 44 117 130 129 131 126 126 133 131 102 44 50 86 90 67
49 45 71 121 120 112 107 121 78 105 17 0 0 0 0 0
34 33 32 32 31 31 28 29 29 29 31 95 113 130 67 81
93 113 91 63 40 44 81 82 57 51 83 83 39 51 110 139
138 117 125 137 137 121 47 76 78 65 61 60 64 85 94 79
58 58 120 137 126 104 103 100 102 111 114 37 18 35 56 78
77 46 34 43 46 74 81 78 42 50 118 136 130 132 132 131
128 130 126 109 45 51 69 92 79 47 52 53 56 70 72 59
36 37 95 97 102 97 95 108 113 110 86 26 37 70 71 53
47 50 69 118 119 105 49 101 73 111 29 2 0 0 0 0
33 34 31 32 31 31 30 29 29 27 30 89 98 129 86 88
73 74 103 86 39 40 86 86 60 52 87 78 36 48 116 139
137 119 126 137 138 113 24 47 60 65 59 55 53 67 69 49
26 28 88 110 118 127 132 128 125 127 132 66 45 60 79 86
76 50 47 58 54 85 92 80 50 43 109 132 124 125 125 124
123 127 122 110 45 43 58 86 74 46 50 55 48 70 76 65
43 50 105 124 124 121 122 113 119 124 101 30 33 63 72 48
22 23 53 115 115 86 37 43 61 115 35 9 0 0 0 0
