P2
128 120
143
35 35 34 33 33 33 33 32 32 31 31 31 31 30 30 29
29 29 28 28 27 26 26 26 25 25 24 24 24 23 23 22
22 21 21 20 20 20 19 19 18 18 18 17 17 16 16 15
15 15 15 15 16 17 19 20 20 19 14 9 16 21 18 17
17 16 16 15 14 14 14 13 9 10 11 14 15 16 17 16
16 16 17 18 18 18 18 18 18 18 19 18 18 19 20 19
20 20 20 21 21 21 21 22 22 21 22 22 23 23 24 23
24 24 25 25 25 25 25 25 24 23 24 24 24 25 26 25
34 34 33 33 33 33 33 32 32 31 32 31 31 31 30 30
29 28 28 28 27 26 26 25 25 25 24 24 24 23 23 22
22 22 22 21 21 20 20 19 19 18 17 17 17 17 17 16
17 16 15 16 17 18 20 20 20 20 14 10 14 21 18 18
18 17 16 16 17 15 14 13 11 11 12 14 16 16 17 17
18 18 18 18 18 18 19 19 18 19 19 18 19 19 20 20
20 20 21 21 21 21 22 22 22 23 23 23 23 24 24 23
24 24 25 25 24 23 23 24 24 25 25 25 25 25 25 25
33 34 33 33 33 33 33 32 32 32 32 32 31 30 30 30
29 29 28 28 27 27 26 26 25 25 25 24 24 23 23 23
22 22 21 21 21 20 19 19 19 19 17 18 18 17 17 17
16 16 16 16 17 19 21 20 21 20 14 11 13 22 19 18
18 18 16 16 16 15 15 14 12 12 13 15 17 18 18 18
18 18 18 19 19 18 19 19 19 19 19 20 20 20 20 20
20 21 20 21 21 22 21 23 22 23 23 23 24 24 24 23
22 23 23 24 25 26 26 25 24 24 25 25 25 25 25 26
34 33 33 33 33 32 32 32 32 32 32 31 30 30 30 30
29 28 28 28 28 27 26 26 25 25 25 24 24 23 23 23
23 21 21 21 20 20 20 19 19 19 18 17 18 17 17 16
17 16 17 17 18 20 22 22 22 21 16 13 12 22 18 17
18 18 18 17 17 16 16 14 13 13 14 16 17 18 18 18
18 18 19 19 19 19 20 19 20 20 20 19 20 20 20 21
21 21 21 21 21 22 22 23 23 23 23 22 21 22 22 24
25 24 25 25 25 26 25 25 25 25 25 26 25 26 26 26
34 33 33 33 33 32 33 32 32 32 31 31 30 30 30 30
29 28 28 28 28 27 26 26 26 25 26 25 24 24 23 22
22 22 22 21 20 20 20 20 19 19 19 18 18 17 17 17
17 17 16 17 18 19 22 21 22 22 16 12 9 20 19 19
19 19 18 18 18 16 16 15 14 13 15 17 18 18 19 19
19 19 19 19 19 19 19 19 19 20 20 20 20 21 21 21
21 21 22 21 22 22 21 21 21 21 22 22 24 24 24 24
26 25 25 25 25 25 25 25 24 25 25 26 25 25 25 26
33 33 34 33 33 33 33 32 32 31 32 31 31 30 30 30
29 28 28 28 27 27 27 26 26 25 25 25 25 24 24 24
23 22 22 22 21 21 21 21 20 19 19 19 19 18 17 18
18 17 17 18 18 20 22 22 22 22 16 9 6 19 20 19
19 19 19 18 19 17 17 17 15 15 17 18 19 19 19 20
20 20 20 20 20 20 20 20 21 20 20 21 21 20 21 21
21 22 22 21 21 21 21 22 23 24 24 24 24 25 25 25
26 25 25 25 25 26 26 25 26 26 25 26 25 26 26 25
33 34 34 33 33 32 32 32 32 32 31 31 31 30 30 30
29 28 28 28 27 27 27 26 26 25 25 25 24 24 24 23
23 22 22 22 21 21 21 20 20 20 19 19 19 18 18 18
17 18 18 18 18 20 23 23 23 22 16 12 11 21 21 20
20 19 19 18 19 17 17 16 15 15 17 18 20 20 20 19
20 20 20 20 20 20 20 20 21 20 21 20 21 21 21 21
21 21 21 21 23 23 23 23 23 24 24 24 24 25 25 25
26 25 25 26 26 25 25 25 25 25 25 25 25 26 26 25
41 38 34 33 33 33 32 32 32 32 31 30 30 29 29 29
29 28 29 28 28 27 27 26 26 26 26 25 25 24 23 23
23 23 22 22 22 21 21 20 20 20 19 19 18 18 18 18
18 18 18 17 19 21 23 24 23 23 17 15 14 20 22 20
20 20 19 19 20 18 17 17 16 15 18 19 20 20 19 20
20 20 20 20 21 21 21 21 22 21 21 21 22 21 21 21
21 22 22 23 23 23 23 24 24 24 24 25 25 25 25 25
26 25 26 26 26 26 26 26 25 25 26 26 26 26 26 26
47 46 44 33 32 33 33 32 32 32 32 31 30 30 30 29
29 28 29 28 28 28 27 27 27 26 26 25 25 25 25 24
24 24 23 22 23 22 21 21 21 21 20 19 20 20 19 19
19 18 18 19 20 21 24 23 24 22 17 15 16 20 23 21
21 21 20 20 21 19 18 18 17 15 18 19 20 21 21 20
21 21 21 22 22 21 21 21 21 20 21 21 22 22 22 23
23 23 23 23 23 24 24 24 24 24 25 25 25 25 26 26
27 26 26 25 26 26 26 25 26 26 26 25 26 26 26 26
20 44 45 34 33 32 32 33 32 32 31 31 31 31 30 30
30 29 29 29 28 28 27 28 27 26 26 26 25 24 24 24
24 23 23 23 22 22 22 22 22 21 21 21 20 20 19 19
19 18 18 19 20 21 24 24 25 24 19 16 18 19 23 22
22 21 20 20 21 19 19 19 17 16 19 20 21 21 21 22
22 22 22 21 21 21 21 22 22 22 21 22 22 22 23 23
23 23 23 23 24 24 25 25 25 25 25 25 26 25 26 26
26 26 26 26 26 25 26 26 27 26 26 26 26 26 27 26
2 42 45 34 32 32 32 31 32 32 32 31 31 31 31 31
30 30 29 29 28 28 28 27 27 27 26 26 26 25 25 25
24 24 23 23 23 22 22 22 22 21 21 20 20 20 20 19
19 19 19 20 21 22 25 25 25 25 18 17 20 18 23 22
22 21 22 21 21 19 19 19 18 16 20 21 22 21 22 22
22 22 22 22 22 22 22 22 22 22 22 23 23 24 24 23
25 24 24 24 24 24 25 25 24 25 25 26 26 26 26 26
27 27 26 26 26 26 28 27 27 26 27 26 27 26 27 25
2 41 44 34 33 33 33 32 32 32 31 31 31 30 31 30
30 30 29 29 29 29 28 28 27 27 27 26 26 25 26 25
25 24 25 24 23 23 23 22 22 22 21 21 21 21 20 20
20 19 20 20 22 23 26 26 26 26 19 17 21 17 24 23
23 22 22 21 22 21 20 20 19 17 20 21 22 22 21 22
22 23 23 23 23 22 23 23 23 23 23 24 24 24 24 24
24 24 24 25 25 25 25 25 25 26 25 26 26 26 26 26
27 27 26 26 26 27 27 27 27 27 26 27 27 26 27 27
2 42 44 33 33 33 32 32 32 32 32 31 31 31 31 31
30 30 30 29 29 28 28 28 27 27 27 26 27 26 25 25
25 25 25 25 24 24 23 23 22 22 22 21 21 21 21 20
20 20 20 21 22 23 26 26 26 25 20 17 22 17 24 24
23 23 23 22 23 21 21 20 20 16 20 20 23 23 23 23
24 24 23 23 24 24 24 23 23 23 23 24 24 24 24 24
25 25 25 25 25 26 26 26 26 26 26 26 26 26 27 27
28 28 27 27 28 28 26 26 26 26 26 27 27 26 26 27
2 41 43 34 33 33 33 33 33 32 32 31 32 32 31 31
31 30 29 29 29 28 29 28 28 27 27 27 26 27 26 25
25 25 24 25 24 24 24 24 22 23 22 22 22 22 21 21
21 21 21 21 22 24 27 27 27 26 20 19 24 17 25 24
23 23 22 22 23 21 21 20 20 17 22 22 24 23 24 24
24 24 24 23 24 24 24 24 24 24 24 24 24 24 24 24
25 25 25 25 25 25 25 25 26 27 27 27 28 27 27 27
26 26 26 26 26 26 27 28 28 27 27 27 27 26 27 27
2 41 43 33 33 33 32 32 32 31 32 31 31 31 31 31
31 30 30 29 29 29 28 28 27 27 27 26 26 26 26 26
26 25 25 25 25 24 24 23 23 23 22 22 22 22 21 21
21 21 22 22 22 24 27 27 27 26 20 18 24 18 24 24
24 24 23 22 24 23 21 21 20 17 22 22 24 23 24 23
24 24 24 24 24 24 24 23 24 24 24 24 24 25 25 25
25 25 25 25 26 26 26 26 26 27 26 26 26 26 26 26
26 26 27 27 27 27 27 27 28 28 26 26 26 26 26 26
3 40 42 34 33 32 32 33 32 32 32 31 31 30 30 31
30 30 29 28 29 28 28 28 28 28 27 27 27 26 27 26
25 25 25 25 24 23 24 24 23 23 22 22 22 22 22 21
21 21 21 22 22 24 27 27 27 27 21 18 25 19 24 24
24 24 23 22 22 22 21 21 20 18 23 23 23 23 24 24
24 24 24 24 24 24 24 23 24 25 24 24 25 25 25 25
26 25 26 26 26 26 25 26 26 25 26 26 27 27 28 28
27 27 27 27 27 27 27 27 27 28 26 26 26 27 27 27
2 40 42 33 32 32 33 33 32 32 32 31 31 31 30 30
30 29 29 29 29 28 28 28 28 27 27 27 27 27 27 26
26 25 25 25 25 24 24 23 24 23 23 23 22 22 22 22
21 22 22 22 23 24 27 27 27 27 21 18 24 19 23 24
24 24 23 23 23 23 22 21 21 18 22 22 23 24 24 24
24 25 24 24 25 24 24 25 24 25 25 24 25 25 25 25
26 25 25 25 25 25 26 26 27 27 27 27 28 27 27 27
27 27 28 27 27 27 27 27 27 28 26 25 26 26 26 26
3 40 41 33 32 33 32 32 32 32 32 31 31 30 30 30
30 30 30 29 29 29 28 28 28 28 27 27 27 27 26 25
25 25 25 25 24 24 24 24 24 24 24 23 23 22 23 22
22 21 22 22 23 24 27 27 27 27 22 19 25 21 22 24
25 24 24 22 21 22 21 21 21 17 22 22 24 24 24 25
25 25 25 25 25 24 24 25 25 24 25 25 25 25 26 25
25 25 26 26 26 26 26 26 27 27 27 27 28 28 27 28
27 27 27 28 27 27 27 27 27 28 27 27 26 26 27 27
13 41 42 33 32 32 32 32 32 32 31 31 31 30 30 30
29 30 30 29 29 29 28 28 28 28 27 27 27 26 26 26
25 25 25 25 25 24 24 23 24 23 23 22 23 22 22 22
21 22 22 22 23 24 28 28 28 27 22 19 25 23 19 19
15 14 14 12 11 9 12 16 20 17 22 21 24 24 24 25
24 25 25 25 24 25 25 25 25 25 25 25 25 25 25 25
26 25 26 26 26 26 26 26 27 27 28 27 27 27 27 27
27 27 27 27 27 27 27 26 27 28 27 26 26 26 26 26
24 40 39 32 32 32 32 32 32 31 31 31 31 31 31 30
30 30 30 29 29 28 29 28 28 28 27 27 27 27 26 26
25 25 25 25 25 24 24 24 24 24 23 23 23 23 22 22
22 22 22 23 23 24 27 28 28 27 22 18 23 16 7 7
7 8 8 7 12 13 10 13 12 10 13 18 23 24 24 25
25 25 25 25 25 25 25 24 25 24 25 25 25 25 25 25
26 25 27 27 27 26 26 27 28 27 28 27 27 27 27 27
27 27 27 26 27 27 27 26 26 27 27 26 26 27 26 27
34 35 34 32 33 32 32 32 32 32 32 31 31 31 30 30
30 30 30 29 30 29 29 29 28 28 27 27 27 26 26 26
26 25 25 25 25 24 25 24 24 24 24 23 23 23 23 22
22 22 22 23 23 25 28 28 28 28 21 18 16 19 17 18
19 20 20 16 15 17 14 11 11 15 16 14 10 13 22 24
25 24 24 25 25 25 24 25 26 26 26 25 26 25 25 26
26 26 26 26 27 27 27 27 27 28 27 28 27 28 27 27
27 27 27 27 26 27 27 27 26 27 27 27 27 27 27 27
29 31 33 33 33 32 32 32 32 32 31 31 31 31 30 31
30 30 30 29 29 29 29 29 28 28 28 27 27 26 26 26
26 26 25 25 25 25 25 25 24 24 23 24 23 23 23 22
22 22 22 23 23 25 28 28 28 23 24 25 24 20 20 18
16 14 18 18 18 19 16 13 12 10 15 23 25 16 10 22
25 25 25 25 25 26 25 25 25 26 25 25 26 25 26 26
27 27 27 27 27 27 28 28 28 28 27 28 28 27 27 27
27 27 27 27 27 27 28 27 27 28 28 27 27 28 27 26
15 19 23 27 30 32 33 32 32 32 32 32 31 31 31 30
31 30 29 30 29 29 29 28 29 28 28 28 28 27 27 27
26 26 26 26 26 26 25 25 25 24 24 24 23 24 23 22
23 23 23 23 24 24 28 24 20 27 28 26 24 24 22 23
28 24 25 20 19 25 24 23 18 22 19 17 19 20 16 1
13 25 26 25 25 26 26 26 27 27 26 27 27 26 27 27
27 27 27 27 28 28 28 28 28 28 28 29 28 28 28 27
27 27 28 28 28 28 27 27 28 28 27 26 26 26 26 26
11 12 10 12 13 15 19 24 27 30 32 32 31 31 31 30
31 31 30 30 30 30 29 28 28 28 28 28 28 27 28 27
27 27 27 27 26 26 26 25 25 25 25 25 25 24 23 23
24 23 24 23 24 24 24 26 30 32 32 33 30 30 26 26
32 36 26 26 30 27 27 27 29 29 26 22 23 27 23 14
1 5 21 27 27 26 26 27 27 27 26 26 27 27 27 27
28 28 28 29 28 29 29 29 29 29 28 28 28 28 28 28
28 28 28 28 28 28 27 27 27 26 26 26 26 26 27 25
11 11 10 10 11 10 11 12 12 13 16 20 29 31 31 31
30 30 30 30 30 30 30 30 28 29 28 28 28 27 27 27
27 27 26 27 26 26 26 26 25 25 25 25 24 24 24 24
23 24 24 24 25 23 26 31 23 15 10 11 17 19 20 26
31 30 32 31 31 26 25 17 14 5 6 15 27 29 28 22
8 0 2 20 26 27 27 27 27 28 27 27 27 27 27 28
28 27 28 28 28 28 28 29 29 28 29 29 29 29 29 28
28 28 27 26 26 26 26 28 28 28 27 28 27 27 27 26
30 15 15 12 10 10 11 10 11 4 3 9 26 32 32 31
31 31 31 30 30 30 30 29 29 29 28 28 28 28 28 27
28 27 27 27 26 26 26 26 26 25 24 24 25 24 24 24
24 24 24 24 22 16 16 12 10 17 18 17 15 16 25 31
35 30 27 29 23 24 19 13 14 10 7 3 1 12 25 20
17 5 1 1 17 28 27 28 28 29 27 28 28 27 28 28
28 28 29 29 29 29 29 29 29 29 28 27 28 28 28 28
27 28 28 28 28 28 28 28 27 27 27 26 26 27 27 27
41 22 26 26 25 17 13 10 11 9 8 11 25 32 31 31
31 30 29 28 30 30 30 29 30 29 30 29 29 28 28 28
28 27 27 27 28 28 28 26 25 25 25 25 25 25 24 24
24 24 24 21 9 7 10 17 20 12 18 24 24 26 35 41
36 28 28 30 32 32 29 20 17 17 21 27 17 2 7 16
20 13 1 0 1 20 27 27 28 29 28 28 28 28 28 28
28 28 29 29 29 29 28 28 28 28 28 28 29 29 28 28
28 29 28 27 27 27 28 27 27 27 26 26 26 27 27 27
43 28 32 36 38 32 35 33 27 16 8 9 24 32 32 31
31 31 29 34 34 32 31 30 29 28 29 28 28 28 28 27
27 27 27 26 31 37 35 31 29 27 25 25 25 24 24 24
24 24 23 7 3 1 4 9 22 24 16 13 28 33 37 34
33 33 32 35 32 29 20 19 19 18 17 18 18 15 4 9
16 18 9 0 0 6 19 26 28 28 27 27 28 27 27 27
27 28 28 28 28 28 28 27 28 28 28 27 27 28 28 28
28 28 28 27 28 28 27 27 27 27 26 26 26 26 26 26
42 31 34 38 39 35 42 42 42 30 9 12 25 32 31 31
31 31 32 41 39 38 37 33 32 31 28 29 29 29 29 28
28 27 27 27 33 39 37 34 34 34 30 25 25 25 25 24
24 24 10 0 0 1 6 16 8 8 21 30 28 35 35 30
34 37 39 30 32 46 54 50 48 37 25 15 14 13 14 5
9 15 13 1 0 3 11 25 29 29 28 27 27 27 28 28
29 28 27 29 28 29 29 27 28 28 28 28 28 29 28 28
28 28 29 28 28 28 27 27 27 27 28 27 26 26 27 27
36 34 37 39 40 41 44 44 45 34 10 13 27 33 32 32
31 31 33 42 41 39 36 36 36 37 35 33 31 30 29 28
27 28 27 28 34 37 36 34 34 35 33 26 25 25 25 24
24 18 0 0 0 1 5 7 21 31 28 28 27 17 27 27
29 34 42 62 89 105 105 97 85 74 57 33 23 17 13 14
6 10 12 7 4 2 6 23 27 27 27 27 28 28 28 28
28 29 28 28 28 29 28 28 28 28 28 28 28 28 28 28
28 28 29 28 28 27 27 27 27 27 27 27 27 27 27 27
35 35 37 37 40 42 44 44 44 37 11 13 30 36 34 34
33 32 33 39 38 38 38 39 40 41 37 35 37 36 33 31
29 29 28 27 30 23 25 27 31 34 34 28 26 26 25 25
24 6 0 0 0 1 12 26 26 20 15 7 13 26 29 29
30 46 75 99 111 113 114 113 109 105 91 69 57 38 26 19
15 10 10 14 12 11 11 8 16 25 27 27 27 28 27 28
28 30 28 28 29 29 29 28 29 28 28 28 28 29 28 28
28 28 28 27 27 28 27 27 26 27 27 26 26 27 26 27
36 26 22 29 34 41 42 43 41 36 12 13 30 37 31 33
35 36 38 21 8 19 30 36 39 41 36 15 13 22 28 33
32 35 34 31 30 15 10 10 10 12 20 28 26 26 26 25
17 0 0 0 0 5 21 20 8 3 2 11 25 36 36 28
38 71 98 110 115 116 117 116 114 113 108 102 90 76 57 36
29 20 13 15 17 15 10 5 14 26 28 28 28 28 28 28
28 29 28 29 29 29 29 29 28 28 28 29 28 28 28 28
28 28 29 29 28 28 27 27 27 27 27 27 26 27 26 27
35 15 0 2 6 15 22 27 31 36 13 13 28 37 33 29
30 38 42 18 0 0 8 15 16 21 33 6 0 0 1 6
10 18 25 30 30 14 2 5 6 1 5 29 26 26 26 25
6 0 0 0 1 10 8 4 1 2 10 21 22 26 28 32
54 87 103 110 115 117 117 119 116 115 112 108 106 99 92 73
57 45 30 21 17 7 2 2 10 28 28 28 28 28 29 28
28 30 29 29 29 28 28 28 28 29 28 28 28 27 26 27
27 28 28 28 27 27 27 27 27 26 27 27 27 26 27 27
35 14 0 0 0 0 0 0 5 35 13 12 13 21 28 34
36 41 43 20 0 0 3 7 9 10 31 6 0 0 0 0
0 0 0 10 31 12 0 0 1 1 4 30 27 26 25 19
0 0 0 0 3 2 2 0 2 3 6 12 21 26 41 59
79 95 106 115 116 116 116 118 115 114 113 112 107 105 101 97
84 77 52 44 33 25 7 4 16 27 29 28 28 28 28 28
28 29 29 28 29 28 28 28 28 29 28 28 28 27 28 27
28 28 29 28 27 26 27 27 27 27 27 27 27 27 27 27
37 12 0 0 0 0 0 0 3 34 13 10 1 0 0 5
12 21 31 20 0 0 0 0 3 5 29 9 0 0 0 0
0 0 0 6 31 8 0 0 0 0 4 31 27 26 26 10
0 0 0 0 1 1 0 0 0 2 11 22 26 43 50 57
75 91 105 112 115 115 118 115 116 117 116 114 112 109 104 101
98 92 80 70 62 45 26 6 22 26 28 28 28 28 29 28
28 29 29 29 29 30 29 29 29 29 29 28 28 28 28 27
28 28 28 28 27 27 28 27 27 27 27 27 27 27 27 26
37 12 0 0 4 3 0 0 3 35 14 11 1 0 0 0
0 0 1 15 0 0 0 0 0 3 27 6 0 0 0 0
0 0 0 4 30 4 0 0 0 0 5 33 27 27 25 2
0 0 0 0 0 0 0 0 1 10 24 33 42 42 53 68
77 90 102 111 116 117 116 117 117 119 120 117 116 112 108 100
99 98 94 83 76 57 44 19 24 27 28 29 29 29 28 29
29 30 29 29 29 29 29 29 29 29 29 29 29 29 29 28
29 29 28 27 29 28 28 28 28 28 27 27 28 28 28 27
37 11 0 0 2 10 0 0 3 35 13 11 1 0 0 0
0 0 0 12 0 0 0 0 0 4 29 8 0 0 0 4
5 0 0 3 30 4 0 0 0 0 4 32 27 27 19 0
0 0 0 0 0 0 0 0 6 20 29 33 40 47 56 65
81 92 101 109 115 119 119 118 117 118 119 122 119 115 111 105
101 100 98 87 80 68 52 32 25 28 28 29 29 29 29 29
29 30 29 30 30 30 30 30 30 30 29 29 29 28 29 29
28 28 30 29 30 29 29 29 29 29 28 28 29 28 29 28
36 10 0 0 0 9 0 0 4 35 13 12 1 0 0 0
0 0 0 10 0 0 0 0 0 4 33 9 0 0 0 8
11 7 2 3 31 3 0 0 0 0 3 33 28 27 12 0
0 0 0 0 0 0 0 4 15 23 29 41 45 52 69 82
83 88 101 112 116 120 122 121 119 118 119 120 122 119 113 108
102 101 99 88 82 74 60 41 27 29 29 31 30 30 30 31
30 30 30 30 31 31 31 31 30 30 30 30 30 29 29 29
30 30 30 29 29 29 29 29 28 27 28 29 29 29 29 28
37 9 0 0 0 0 0 0 4 35 13 12 1 0 0 3
5 0 0 9 0 0 0 0 0 2 32 11 0 0 1 9
12 12 9 2 31 4 0 0 0 0 2 32 29 28 7 0
0 0 0 0 0 0 1 6 11 24 35 41 51 65 69 72
85 98 106 113 117 120 123 123 123 121 121 118 122 121 116 110
105 103 101 89 83 77 66 47 30 30 30 30 30 30 31 32
31 32 31 31 31 31 32 32 32 31 31 31 30 30 30 30
30 30 30 30 30 30 30 30 29 28 30 30 30 29 30 30
36 8 0 2 0 0 0 0 6 36 14 13 1 4 4 1
2 0 0 9 0 0 0 0 0 5 33 13 0 0 0 7
12 12 8 2 31 8 0 0 0 0 1 33 29 27 2 0
0 0 0 0 0 0 1 8 13 23 38 45 55 60 66 79
85 97 107 114 119 120 124 124 125 121 121 121 122 123 117 113
107 104 102 93 81 78 66 52 33 31 32 31 31 32 31 31
31 31 32 31 31 31 31 31 32 32 32 31 31 31 31 31
31 31 31 30 30 30 30 30 30 29 30 31 31 31 30 29
39 14 2 1 2 1 0 0 6 35 14 12 2 6 0 0
0 0 0 11 0 0 0 0 0 12 35 17 0 0 0 0
4 10 8 1 32 32 24 16 11 7 9 33 30 26 0 0
0 0 0 0 0 0 2 7 16 27 35 42 48 58 72 83
92 100 109 116 121 123 123 122 124 122 121 121 122 123 120 114
108 103 103 94 82 83 68 57 36 32 31 32 32 31 32 32
32 31 32 31 31 32 32 32 32 32 32 30 31 31 31 31
30 31 30 30 31 30 31 31 30 30 31 31 29 29 29 28
42 47 32 22 29 26 24 19 22 33 14 13 2 1 0 0
0 0 0 22 14 7 6 3 0 3 35 38 27 22 18 9
4 4 4 1 32 40 38 37 36 39 41 41 30 22 0 0
0 0 0 0 0 0 3 7 12 21 27 37 44 57 74 94
101 104 114 118 123 123 123 123 124 124 124 123 126 124 123 117
111 103 101 98 85 83 70 60 39 31 31 31 32 31 32 32
31 31 31 31 32 31 31 32 32 32 31 31 31 31 30 31
31 30 29 29 27 29 29 27 28 27 28 26 23 20 18 15
54 55 34 29 39 43 43 41 40 31 13 12 2 0 0 0
0 0 0 33 45 36 33 32 27 21 41 35 19 22 25 26
25 25 24 25 40 39 38 38 39 43 46 43 31 19 0 0
0 0 0 0 0 0 1 5 11 15 24 33 43 58 72 89
96 103 110 120 122 116 118 123 123 124 124 124 127 126 124 122
113 105 103 96 89 87 75 63 44 32 32 31 31 31 31 30
31 31 31 31 31 31 31 31 31 31 32 30 30 29 28 28
29 29 29 28 26 25 23 20 17 15 12 10 9 9 9 9
55 50 28 30 39 43 43 46 45 33 13 13 3 0 0 0
0 0 0 35 46 37 43 44 48 43 44 29 11 12 12 13
14 14 17 21 26 22 25 29 33 37 38 37 30 17 0 0
0 0 0 0 0 0 1 4 6 15 23 38 51 64 81 91
103 111 118 122 120 113 119 123 123 123 124 125 127 128 128 125
116 107 105 98 89 93 81 68 49 32 31 31 31 31 31 31
32 31 31 31 31 31 31 31 31 31 31 29 30 31 27 24
22 19 17 15 13 12 12 11 11 12 13 13 14 15 15 16
51 38 17 23 35 38 39 43 44 34 13 14 19 19 12 6
2 0 0 34 38 38 44 46 49 45 36 28 14 12 11 11
10 9 9 8 7 8 10 12 22 29 26 25 28 16 0 0
0 0 0 0 0 0 0 2 5 13 22 35 51 66 81 96
110 115 120 122 122 123 124 124 123 121 122 120 121 124 124 124
116 107 105 97 89 94 86 73 48 31 31 31 31 31 31 31
32 32 32 32 31 31 30 28 26 24 21 19 18 30 22 10
12 12 13 14 15 15 16 17 18 18 19 19 20 21 21 21
50 33 1 0 2 2 5 8 20 34 14 15 30 43 43 39
34 29 26 38 30 36 42 44 47 45 39 31 16 13 11 10
9 8 9 8 8 9 9 9 22 23 22 28 28 13 0 0
0 0 0 0 0 0 0 1 9 10 21 39 54 71 86 99
112 119 122 122 122 123 125 124 123 112 102 100 108 114 116 115
113 108 103 96 89 94 87 71 46 30 31 30 31 31 32 31
30 29 27 24 22 19 17 15 15 15 14 15 14 24 20 12
16 18 19 20 21 21 22 22 23 23 23 24 24 24 25 25
50 34 0 0 0 0 0 0 8 33 14 15 31 45 45 43
44 44 46 43 15 15 24 30 36 37 35 33 16 12 9 5
6 6 9 10 10 10 11 12 25 19 13 31 31 12 0 0
0 0 0 1 0 0 1 7 4 10 24 41 59 72 97 114
120 122 123 121 120 123 124 123 112 76 55 53 52 58 74 84
97 95 96 92 85 90 82 63 41 29 29 28 27 24 22 20
19 17 17 16 17 18 18 18 18 20 20 20 20 24 21 16
21 24 24 25 25 25 25 26 26 26 26 25 26 26 26 26
49 31 0 0 0 0 1 2 8 32 15 14 28 43 44 43
45 45 46 40 5 0 0 1 5 12 20 35 16 11 6 0
0 0 5 10 8 5 10 12 24 35 33 35 35 14 0 0
7 20 31 31 16 6 2 0 3 12 32 45 55 76 104 117
121 121 122 121 122 124 119 81 54 53 49 48 31 27 30 50
59 60 77 84 88 84 71 51 32 17 19 18 18 17 18 19
20 20 21 22 22 23 24 25 24 25 26 25 24 25 23 19
25 26 27 28 28 28 28 28 28 28 28 28 27 28 27 27
44 26 0 0 0 0 17 22 21 28 24 20 25 32 33 34
36 38 43 37 3 0 0 0 0 3 18 36 14 10 7 0
0 0 0 1 0 0 1 2 19 36 28 25 24 9 0 7
54 58 80 96 78 13 5 7 14 26 34 40 57 90 111 119
122 120 119 121 121 114 76 64 72 79 82 94 88 66 49 49
43 44 62 76 79 75 53 32 8 2 20 21 22 23 24 25
25 25 25 26 27 27 28 27 27 28 28 27 23 10 8 18
27 29 29 29 29 28 29 29 29 28 28 28 28 28 28 28
42 23 0 0 0 0 16 22 21 23 22 18 21 20 23 28
29 29 39 35 2 0 0 0 0 0 12 36 12 7 2 0
0 4 1 0 0 0 0 0 17 38 29 21 25 10 0 36
79 102 117 98 86 69 17 11 16 16 20 41 66 95 115 122
122 121 121 120 117 101 87 95 109 110 111 108 99 87 74 73
69 62 68 70 65 59 35 9 0 1 24 26 27 27 28 28
29 29 28 29 29 29 29 29 29 29 29 28 22 2 1 13
27 29 30 30 30 29 29 29 29 29 29 29 29 28 28 28
43 22 0 0 0 0 5 11 16 22 20 18 21 21 21 26
28 28 38 35 2 0 0 0 0 0 10 33 3 0 0 0
0 6 7 1 0 0 0 0 16 38 30 14 27 11 1 63
104 110 128 113 77 89 60 30 14 13 21 40 68 99 120 124
124 124 121 118 109 107 112 112 116 114 110 100 87 65 63 79
91 90 84 77 59 38 14 17 32 16 29 29 29 30 30 31
30 31 30 30 30 31 31 30 22 16 11 15 20 5 3 11
28 30 30 30 30 30 29 29 29 29 30 29 28 29 28 27
43 21 0 0 0 0 0 0 1 17 13 16 15 11 17 24
28 33 38 34 2 0 0 0 0 0 13 33 0 0 0 0
0 1 12 8 2 0 0 0 14 38 31 11 18 10 7 88
119 111 130 123 101 80 68 48 34 32 40 62 90 111 122 125
127 128 124 117 111 110 106 97 91 89 84 76 49 33 53 86
101 106 105 89 50 23 30 47 45 28 30 30 31 31 31 31
31 31 32 31 30 31 31 28 5 2 5 14 20 1 0 9
27 29 30 30 29 29 29 29 29 29 29 29 29 28 27 28
44 20 0 0 0 0 0 0 2 24 19 20 11 0 0 1
2 6 9 21 2 0 0 0 0 0 15 32 0 0 0 0
1 7 13 10 10 0 0 0 14 38 33 18 19 11 10 97
120 111 132 118 72 54 82 79 52 37 62 83 102 112 122 127
131 130 125 115 102 82 68 56 52 50 36 15 11 17 63 106
116 121 122 102 43 26 33 36 32 30 30 31 32 32 31 32
32 32 33 32 32 32 32 31 26 25 27 28 23 2 0 9
27 29 30 30 29 29 29 29 28 29 28 29 28 29 28 28
44 20 0 0 0 4 0 0 2 30 24 22 12 0 0 0
0 0 0 12 2 0 0 0 0 0 13 29 0 0 0 0
3 16 17 11 9 0 0 0 14 38 35 22 19 8 8 85
120 115 122 79 88 94 88 84 70 63 93 103 110 118 124 128
132 132 127 116 106 103 101 90 60 44 37 18 23 36 74 114
123 125 123 106 54 31 2 3 20 32 32 32 32 32 31 32
32 32 33 32 32 32 32 31 31 30 29 28 24 6 0 11
27 29 30 30 29 29 30 29 29 28 29 29 28 29 27 27
39 23 0 0 0 6 0 0 1 32 26 22 14 0 0 0
0 0 0 11 2 0 2 10 2 0 12 28 0 0 0 0
1 6 17 4 0 0 0 0 10 37 37 24 15 7 5 56
122 116 112 87 119 97 100 102 98 91 97 108 113 120 125 126
130 131 129 123 119 115 112 110 102 82 59 46 41 60 92 113
121 120 119 107 66 29 7 7 12 27 32 32 32 32 32 32
32 32 32 32 32 32 32 31 31 30 29 27 25 11 0 15
27 30 30 30 30 29 29 28 28 28 28 28 28 28 27 28
33 29 13 5 2 11 7 3 1 31 24 20 13 0 0 3
4 0 0 9 2 0 8 15 7 0 12 26 0 0 0 0
0 0 11 2 0 0 0 0 7 36 36 17 10 4 5 25
120 116 115 101 122 97 116 113 99 93 97 104 114 119 124 125
130 131 130 127 125 121 116 112 108 99 88 76 74 86 106 113
117 119 121 112 79 32 16 14 29 32 32 32 32 31 32 31
32 32 31 31 31 31 31 31 31 30 29 27 23 18 12 21
28 30 30 30 29 28 29 28 29 29 29 28 28 28 27 28
34 32 32 32 26 30 31 27 23 37 24 18 13 0 1 13
12 2 0 10 9 3 13 14 11 2 12 25 0 0 0 0
0 0 12 4 0 0 0 0 4 35 35 10 9 5 3 8
98 116 124 98 106 93 108 114 100 94 95 104 112 119 121 124
129 130 127 126 127 125 121 116 110 104 96 91 93 101 108 114
118 120 119 112 94 50 31 28 31 30 32 31 32 31 32 31
31 32 32 32 32 32 31 31 30 30 30 27 24 22 22 26
30 30 30 31 29 29 29 29 29 29 28 28 28 27 28 28
35 31 15 9 13 21 30 37 42 42 31 17 13 0 2 11
9 2 0 13 35 32 36 34 32 29 33 27 0 0 0 0
0 0 13 5 0 0 0 0 2 32 33 8 6 4 4 3
60 121 116 119 113 96 95 109 101 99 97 105 113 118 120 124
128 129 128 129 129 128 123 119 112 106 101 99 102 103 108 116
121 118 113 108 100 72 38 36 32 31 31 31 31 31 31 32
31 31 32 31 31 31 32 31 30 30 29 28 25 25 27 29
30 30 30 29 29 29 29 30 29 29 29 29 29 29 29 28
36 32 8 0 0 2 4 13 41 41 28 17 15 0 0 1
0 0 0 12 38 38 42 41 41 46 48 35 8 8 6 1
0 2 16 8 1 1 0 0 1 24 32 8 2 5 3 2
28 117 118 115 126 112 82 107 104 96 99 103 112 118 120 121
125 128 129 130 129 127 126 124 117 113 108 106 104 103 109 118
120 115 111 109 103 92 52 39 33 31 31 31 31 32 31 32
32 32 32 32 32 32 32 31 30 30 29 28 27 26 28 30
31 31 30 30 30 30 30 30 29 29 29 28 28 29 28 27
38 32 5 0 1 20 14 17 40 38 24 18 19 11 0 0
0 0 0 11 38 38 40 40 42 48 50 43 29 29 27 23
21 22 24 19 15 12 12 9 12 24 34 13 9 8 4 0
14 89 116 120 129 127 115 107 105 96 96 103 112 115 118 119
123 126 128 130 128 127 126 123 120 117 116 111 106 104 109 115
114 111 109 109 107 99 75 41 35 32 32 31 32 32 31 32
32 31 32 31 31 32 32 31 30 30 30 29 28 28 29 29
29 29 28 29 29 29 29 29 28 28 28 28 29 28 28 27
40 34 4 0 0 14 25 26 39 34 19 19 21 10 0 0
0 0 0 10 35 34 36 36 37 39 38 37 33 34 34 32
31 32 33 31 28 25 24 21 22 28 38 27 20 14 7 0
9 59 111 122 125 124 124 111 103 97 100 104 109 114 117 119
122 126 127 128 130 127 124 124 124 122 118 111 106 101 103 109
101 102 105 113 114 109 92 51 35 31 31 32 32 32 32 32
32 32 32 32 32 32 32 30 30 30 30 29 28 29 30 30
30 29 30 30 30 31 30 29 29 29 28 28 29 28 28 27
41 34 4 0 0 2 8 24 40 33 19 21 20 4 0 0
0 0 0 10 37 32 33 33 33 32 29 31 34 35 37 35
34 34 33 33 32 35 34 31 29 33 41 39 34 26 13 0
5 43 104 128 126 123 124 108 102 96 101 105 109 115 118 120
122 124 125 128 128 126 124 125 125 123 119 113 106 95 99 105
110 113 115 122 123 120 102 59 36 31 32 32 31 31 30 31
31 31 31 31 31 30 31 31 30 30 30 29 30 31 31 31
30 30 31 30 30 29 29 29 29 28 28 28 28 28 28 27
42 36 6 0 0 0 0 19 41 30 18 19 19 19 15 11
9 7 5 14 39 32 32 32 32 33 33 36 36 36 40 44
43 35 33 34 35 42 42 38 37 36 34 28 23 22 17 0
2 32 78 116 126 125 114 100 101 98 100 105 109 116 119 121
120 123 126 129 128 125 126 125 126 124 120 115 104 87 96 106
121 119 114 106 104 106 97 50 37 32 32 32 32 32 31 31
31 32 31 31 31 31 32 31 30 30 30 31 30 31 31 30
30 30 30 30 27 20 25 29 29 28 29 28 28 27 28 27
42 36 4 0 0 0 0 15 41 32 18 19 22 37 40 39
37 39 40 40 43 35 34 34 34 36 39 43 40 38 41 46
44 36 32 29 34 43 41 39 38 38 35 28 21 21 16 2
1 21 60 84 100 99 66 96 99 99 101 106 110 114 115 119
121 124 127 127 128 126 125 128 126 124 120 113 100 86 98 95
94 50 43 63 65 97 67 47 37 32 33 31 30 31 31 31
31 32 32 32 32 31 31 31 31 30 30 31 31 31 31 31
30 29 29 26 16 23 17 29 28 27 28 28 29 27 27 27
42 34 2 0 0 0 0 16 41 33 16 20 23 43 48 47
47 47 47 47 45 34 31 31 30 32 38 44 42 39 39 39
38 36 33 29 29 35 33 32 35 37 35 30 26 22 19 7
0 12 53 80 86 59 60 95 96 98 101 105 110 111 114 117
120 122 123 125 127 127 123 124 125 123 118 110 94 93 109 100
95 111 114 111 91 61 53 55 38 33 32 32 31 31 31 31
31 31 31 31 31 31 31 30 30 30 30 31 30 31 31 30
30 30 29 17 27 25 19 29 28 28 28 27 28 26 27 26
42 34 2 0 0 0 0 14 40 31 14 20 20 33 37 38
39 41 43 44 43 14 10 8 7 9 14 29 43 38 26 15
18 21 20 25 30 22 6 4 6 14 17 27 28 20 20 14
0 6 41 80 98 92 80 91 94 98 101 104 110 113 115 118
119 120 122 125 125 125 126 125 123 122 116 107 92 103 112 113
112 111 103 86 61 39 59 52 37 33 32 32 30 30 30 30
31 31 31 31 31 29 29 29 28 26 26 28 30 30 30 30
30 30 29 17 29 19 26 29 28 28 28 27 28 25 20 18
42 34 2 0 0 0 0 11 36 27 13 19 17 21 22 22
23 23 24 25 29 6 0 0 0 0 0 14 41 32 7 0
0 3 7 21 33 21 1 0 0 1 10 24 17 14 15 14
0 2 42 81 103 95 83 90 95 98 101 104 111 114 114 117
116 117 119 124 126 127 126 127 124 120 115 103 98 112 111 108
105 103 92 78 73 42 54 49 35 32 31 30 30 28 27 28
29 31 31 32 29 17 14 12 10 8 8 18 31 31 31 30
30 30 29 18 29 16 25 21 18 24 27 26 25 10 0 0
43 35 3 0 0 0 0 11 37 30 13 18 17 26 28 28
28 27 27 26 28 9 1 0 0 0 2 20 40 21 0 0
0 0 1 23 34 23 0 0 0 0 9 22 4 5 7 6
0 0 39 76 100 97 88 88 91 96 101 104 110 114 116 116
117 117 121 122 126 124 127 127 124 119 111 101 105 108 110 109
104 104 88 76 89 47 46 46 26 19 16 14 11 9 8 10
19 31 32 32 29 10 4 5 5 4 4 16 31 32 32 31
31 30 29 12 9 2 10 3 0 3 5 2 1 0 0 0
38 30 2 0 0 0 0 13 40 31 11 18 18 28 30 30
31 30 31 31 30 8 1 0 0 0 2 18 38 13 0 0
0 0 0 21 33 23 0 0 0 0 7 23 4 4 11 7
2 0 26 73 96 98 91 89 89 95 100 105 109 114 114 114
117 117 119 122 123 125 125 123 121 118 107 105 108 110 116 115
108 94 84 74 71 53 41 41 11 6 7 7 2 2 1 1
11 29 31 31 28 9 4 4 5 4 5 16 32 32 32 32
31 17 10 1 0 0 2 0 0 0 0 0 0 0 0 0
30 23 14 11 7 7 6 17 37 28 14 20 20 30 32 32
31 31 32 33 32 9 0 0 0 1 2 10 36 9 0 0
0 0 0 21 32 22 0 0 0 0 4 23 6 1 7 6
3 4 21 70 91 99 93 90 90 93 98 105 109 111 116 117
117 117 117 118 120 122 125 123 120 114 107 107 104 109 112 96
89 88 85 71 55 39 39 36 5 6 6 6 2 2 1 1
9 29 32 31 28 8 5 5 4 4 4 13 30 32 32 32
31 5 0 0 0 0 0 0 0 0 0 0 0 0 0 0
35 34 32 31 30 29 28 28 29 27 25 26 26 27 26 26
26 27 27 28 31 11 0 0 0 1 3 7 35 8 0 0
0 0 0 20 33 21 0 0 0 0 0 21 7 2 6 6
4 9 19 68 90 99 95 92 91 92 98 103 106 111 113 116
117 117 116 117 119 120 120 125 121 114 111 102 75 82 67 66
67 71 62 48 41 33 42 30 2 7 6 8 3 2 2 1
9 29 31 31 29 9 5 4 5 4 4 10 31 33 32 31
31 11 1 11 11 14 16 18 20 16 0 0 2 10 0 1
34 33 33 32 31 30 29 28 27 26 26 24 24 24 24 23
23 23 23 22 26 19 2 0 0 1 2 4 34 6 0 0
0 0 0 19 33 22 3 0 0 0 0 22 10 1 5 8
7 8 14 69 89 100 95 94 92 91 96 99 106 109 111 115
115 118 114 117 117 119 123 124 121 117 108 74 71 71 83 90
90 86 68 58 57 40 47 24 2 6 7 7 2 1 2 1
9 29 31 32 30 13 7 7 8 9 9 11 27 30 30 30
31 14 13 30 29 29 29 29 28 10 0 0 0 3 19 20
32 32 31 30 30 29 28 27 26 25 25 24 24 23 22 22
22 23 22 22 24 14 0 0 0 0 1 5 33 7 0 0
0 0 0 13 34 22 2 0 0 0 0 20 14 0 3 9
9 4 12 71 90 101 99 98 93 91 94 99 103 108 109 112
114 115 116 117 116 120 123 124 122 117 101 90 112 114 106 94
87 81 71 62 64 43 46 16 2 6 7 7 3 1 2 1
8 29 31 31 30 17 12 11 11 11 11 13 26 31 32 33
31 15 23 30 30 29 28 28 28 8 0 0 0 0 22 22
19 18 17 16 15 15 14 12 12 11 11 11 11 11 11 11
12 14 17 20 22 9 0 0 0 0 0 4 33 8 0 0
0 0 0 10 35 22 1 0 0 0 0 17 18 0 4 7
9 2 15 72 91 102 101 99 97 93 92 94 103 108 109 111
113 115 116 116 117 119 113 115 121 115 107 109 115 116 113 103
81 57 48 45 41 37 42 10 2 3 3 4 2 2 2 1
7 28 31 32 30 15 6 6 6 5 5 8 26 31 32 31
27 10 29 31 30 29 28 28 27 7 0 0 0 0 17 22
0 0 0 0 0 0 0 0 0 0 0 0 0 0 0 0
0 2 14 19 19 6 0 0 0 0 0 2 32 13 0 0
0 0 0 9 35 24 8 4 3 5 6 22 22 0 5 7
10 2 22 74 91 103 104 103 100 93 91 93 99 104 109 111
112 114 114 113 115 115 101 104 117 113 112 113 115 113 109 99
83 67 58 49 45 38 33 6 2 2 1 0 2 2 3 1
6 27 31 32 30 15 5 5 7 6 5 8 16 11 12 14
10 23 31 30 30 29 28 27 26 4 0 0 0 0 12 21
0 0 0 0 0 0 0 0 0 0 0 0 0 0 0 0
0 3 19 19 19 11 5 3 3 6 12 9 30 28 19 18
21 21 22 27 39 29 31 33 33 34 39 43 32 14 13 8
12 1 36 76 93 103 106 105 97 97 90 90 93 100 106 106
109 112 110 114 113 115 115 116 116 113 112 111 111 111 108 101
90 89 82 67 56 36 27 7 2 1 0 1 3 1 3 0
6 27 30 32 30 16 5 5 6 6 5 4 10 28 26 24
28 31 30 30 30 27 26 24 23 3 0 0 0 0 10 20
0 0 0 0 0 0 0 0 0 0 0 0 0 0 0 0
0 1 18 19 19 24 27 24 25 28 28 28 30 38 46 42
41 43 45 46 45 30 33 37 40 43 48 49 41 28 21 9
10 1 50 78 91 103 107 107 104 100 92 87 89 94 101 103
104 108 109 110 111 111 113 114 110 111 111 111 112 112 111 106
100 102 92 72 54 35 25 8 2 2 2 5 4 1 3 1
5 25 30 32 29 17 4 4 5 4 5 2 17 32 32 30
31 30 30 29 27 7 4 2 1 0 0 0 0 0 8 18
0 0 0 0 0 0 0 0 0 0 0 0 0 0 0 0
0 1 19 19 19 24 29 26 28 29 26 21 22 31 43 43
42 41 44 44 44 32 27 33 36 40 43 43 38 25 18 9
6 3 62 80 91 102 109 110 108 104 96 89 89 92 97 97
101 103 106 108 108 107 110 111 110 110 112 113 113 115 115 110
106 106 96 80 49 32 25 8 2 1 0 0 1 1 3 0
3 25 29 31 29 17 3 4 4 4 4 1 17 31 31 30
30 30 29 28 23 0 0 0 0 0 0 0 0 0 7 19
0 0 0 0 0 0 0 0 0 0 0 0 0 0 0 0
0 0 18 19 17 20 22 21 24 27 27 21 21 24 24 26
26 26 26 26 28 27 24 27 30 30 28 26 27 27 15 8
3 7 69 83 91 101 109 112 112 109 101 93 91 89 94 95
96 98 102 103 104 103 105 108 111 113 114 114 115 116 118 116
111 102 89 87 53 31 26 9 2 1 0 0 1 1 2 1
3 24 29 31 29 16 3 4 4 3 4 2 14 31 30 30
30 30 29 29 25 0 0 0 0 0 0 0 0 0 5 17
0 0 0 0 0 0 0 0 0 0 0 0 0 0 0 0
0 0 17 20 17 14 13 16 18 21 24 21 20 23 18 18
20 22 23 23 25 28 29 32 33 33 30 26 27 28 14 4
6 31 76 85 92 101 110 112 114 109 101 96 91 89 91 95
94 95 96 101 100 97 99 101 105 109 113 115 115 116 116 118
111 93 73 92 57 29 25 10 2 2 1 1 1 1 2 1
2 22 28 30 28 17 3 3 4 3 3 1 11 30 31 30
30 30 29 28 26 8 0 0 0 0 0 0 0 0 5 17
0 0 0 0 0 0 0 0 0 0 0 0 0 0 0 0
0 0 15 20 17 13 1 2 3 5 7 7 12 24 23 26
26 32 35 31 30 33 34 36 40 40 34 29 28 27 8 19
52 40 80 86 92 99 107 114 116 111 105 100 93 90 90 91
93 96 96 97 96 98 97 97 98 100 108 110 113 114 115 114
107 79 75 97 59 29 27 10 2 1 2 1 1 1 2 1
2 21 28 29 28 18 3 3 3 3 1 1 6 29 29 31
30 29 29 29 28 18 2 0 0 0 0 0 0 0 1 9
0 0 0 0 0 0 0 0 0 0 0 0 0 0 0 0
0 0 14 20 17 14 1 0 0 0 0 0 11 24 29 36
33 41 47 26 13 15 16 19 26 39 36 29 28 24 7 61
35 36 85 89 91 101 106 114 117 110 106 98 95 92 88 90
94 92 92 95 94 97 93 97 97 98 96 103 106 106 109 107
97 64 85 94 50 28 27 10 2 1 2 2 1 0 1 0
1 20 26 27 27 21 13 15 13 8 13 13 4 25 30 30
30 30 29 27 19 32 5 0 0 0 0 0 0 0 0 5
0 0 0 0 0 0 0 0 0 0 0 0 0 0 0 0
0 0 12 20 16 16 2 0 0 0 0 0 13 24 27 35
24 25 36 15 0 0 0 0 7 36 37 30 29 23 10 78
29 38 89 91 95 98 108 111 115 113 105 103 97 93 88 92
94 93 93 96 97 96 98 96 94 92 94 91 94 97 96 97
77 56 92 79 37 30 28 12 2 2 1 1 1 0 1 0
1 20 26 27 27 27 26 27 25 23 26 25 13 16 30 30
27 23 24 15 0 2 1 0 0 0 0 0 0 0 0 5
0 0 0 0 0 0 0 0 0 0 0 0 0 0 0 0
0 0 10 20 16 17 4 0 0 0 0 0 12 23 25 33
10 1 21 15 0 0 0 0 4 33 38 30 28 20 12 88
36 48 91 92 95 99 105 112 111 112 109 106 102 97 90 90
90 90 92 91 95 97 96 95 93 91 93 84 80 82 85 79
57 65 76 47 32 30 28 13 2 1 2 1 1 1 1 1
1 19 27 27 28 28 28 28 28 28 27 28 24 6 11 8
2 3 0 0 0 0 1 0 0 0 0 0 0 0 0 4
0 0 0 0 0 0 0 0 0 0 0 0 0 0 0 0
0 0 8 20 17 12 0 0 0 0 0 0 13 21 25 33
10 0 19 17 0 0 0 0 1 29 37 30 28 15 18 82
61 45 94 94 93 102 103 109 111 114 110 109 104 100 97 92
90 88 86 90 91 90 88 88 93 86 86 76 70 62 56 51
46 49 38 32 31 31 29 15 2 2 2 1 1 1 1 1
2 21 29 29 30 28 28 27 27 27 16 8 5 1 0 0
0 0 0 0 0 0 0 0 0 0 0 0 0 0 0 2
0 0 0 0 0 0 0 0 0 0 0 0 0 0 0 0
0 0 7 20 16 11 0 0 0 0 0 0 14 21 25 33
9 0 17 20 0 0 0 0 0 26 37 29 29 15 35 54
96 35 89 96 93 99 105 110 112 112 111 106 105 101 100 98
92 88 86 83 83 83 85 85 83 82 79 72 64 56 48 37
27 26 32 33 32 31 29 15 4 3 3 2 3 2 2 3
8 24 30 30 30 28 28 27 26 26 5 0 0 0 32 19
0 0 0 0 0 0 12 6 1 0 0 0 0 0 0 0
0 0 0 0 0 0 0 0 0 0 0 0 0 0 0 0
0 0 6 19 16 11 0 0 0 0 0 0 14 20 25 33
9 0 14 21 0 0 0 0 0 24 37 29 26 14 43 35
86 54 62 97 95 100 106 109 112 109 112 112 107 104 99 99
93 90 83 82 80 80 79 76 74 73 71 67 61 53 43 28
22 28 31 32 31 30 29 25 19 17 14 12 12 6 2 10
18 27 31 31 30 28 28 27 27 25 3 0 0 19 78 87
10 0 0 0 0 0 4 4 0 0 0 0 0 0 0 0
0 0 0 0 0 0 0 0 0 0 0 0 0 0 0 0
0 0 4 19 16 12 0 0 0 0 0 0 11 21 25 33
11 0 13 22 1 0 0 0 0 21 37 28 26 13 45 28
51 96 49 78 95 100 103 111 112 114 113 114 116 106 101 101
94 92 84 76 73 71 68 65 63 57 54 50 41 34 33 11
22 13 24 29 31 30 29 28 27 24 20 19 18 10 0 14
22 28 31 31 30 28 27 26 19 9 0 0 0 5 18 20
2 0 0 0 0 0 0 0 0 0 0 0 0 0 0 0
0 0 0 0 0 0 0 0 0 0 0 0 0 0 0 0
0 0 4 19 16 12 0 0 0 0 1 0 9 23 25 34
18 2 10 23 4 1 2 1 0 20 36 28 26 20 48 29
24 99 78 47 89 100 103 108 116 114 116 116 112 110 108 102
97 94 86 78 68 61 56 50 44 36 25 13 14 47 55 12
21 29 27 22 24 25 29 28 28 25 21 20 20 12 0 15
24 27 29 30 29 28 27 26 14 0 1 0 0 0 0 0
0 0 0 0 1 1 1 1 0 0 0 0 0 0 0 0
0 0 0 0 0 0 0 0 0 0 0 0 0 0 0 0
0 0 3 19 16 13 1 0 0 0 5 4 7 26 26 34
21 12 11 22 1 6 7 1 0 16 34 28 27 35 51 36
17 51 107 85 56 94 101 104 111 119 120 117 115 113 110 107
104 94 84 71 59 48 37 31 29 27 27 18 63 66 39 18
25 34 37 35 27 28 25 24 19 28 25 23 23 15 0 16
25 27 29 30 29 27 27 26 15 0 1 0 0 0 0 0
0 0 0 0 0 0 0 0 0 0 0 0 0 0 14 26
0 0 0 0 0 0 0 0 0 0 0 0 0 0 0 0
0 0 2 19 17 14 8 9 9 10 16 18 19 32 28 34
16 18 11 23 6 10 10 6 5 17 30 32 27 38 41 38
30 19 85 117 70 62 97 106 111 117 121 121 118 115 112 111
107 101 94 81 71 80 99 107 106 101 77 43 52 91 26 20
22 23 40 36 24 32 20 10 6 25 30 20 22 17 0 16
25 26 28 28 28 26 27 26 19 2 0 0 0 0 0 0
0 0 0 0 0 0 0 0 0 0 0 0 0 0 29 32
0 0 0 0 0 0 0 0 0 0 0 0 0 0 0 0
0 0 2 18 16 14 23 29 31 32 33 34 37 40 32 34
10 15 15 27 21 20 20 20 20 22 23 38 59 44 34 41
37 23 42 93 107 75 62 101 112 117 121 122 122 120 119 113
108 101 97 96 106 116 117 116 114 99 66 38 4 55 25 23
13 13 29 30 25 36 37 29 24 24 27 12 16 27 12 17
25 26 27 27 26 26 26 26 25 8 0 0 0 0 0 0
0 0 0 0 0 0 0 0 0 0 0 0 0 6 30 31
0 0 0 0 0 0 0 0 0 0 0 0 0 0 0 0
0 0 2 18 17 15 29 35 35 36 37 37 39 41 36 33
7 4 10 27 21 22 23 24 25 25 31 49 63 49 37 30
45 28 19 60 82 63 63 67 107 118 122 122 120 120 121 120
118 114 114 115 118 120 119 119 109 76 64 32 1 22 24 23
11 0 11 37 45 43 35 57 70 47 33 35 48 67 43 30
30 30 27 26 26 26 25 25 22 1 0 0 0 0 0 0
0 0 0 0 0 0 0 0 0 0 0 0 0 10 19 18
0 0 0 0 0 0 0 0 0 0 0 0 0 0 0 0
0 0 1 18 16 14 20 22 21 20 20 19 20 19 23 30
8 1 7 28 25 27 35 47 47 61 54 54 72 56 32 25
40 43 16 36 18 39 68 51 80 115 122 125 124 122 122 120
118 119 120 121 123 123 121 117 89 55 59 10 0 15 25 20
26 1 6 19 29 17 18 39 62 56 37 50 93 100 96 95
69 38 40 35 28 27 27 26 22 0 0 0 0 0 0 0
0 0 0 0 0 0 0 0 0 0 0 0 0 1 1 0
0 0 0 0 0 0 0 0 0 0 0 0 0 0 0 0
0 0 1 17 16 13 5 1 1 1 1 2 4 5 14 30
9 0 4 28 35 48 35 43 60 50 54 47 68 64 36 31
23 56 30 28 3 16 51 74 57 95 120 124 125 124 126 126
125 126 127 126 124 123 119 103 61 59 25 3 0 16 30 39
45 8 15 33 40 21 20 27 65 63 34 35 92 84 77 76
73 72 66 55 39 34 31 27 15 0 0 0 0 0 0 0
0 0 0 0 0 0 0 0 0 0 0 0 0 0 0 0
0 0 0 0 0 0 0 0 0 0 0 0 0 0 0 0
0 0 1 17 16 12 5 1 1 1 2 3 5 6 15 31
13 4 10 34 51 37 23 46 47 38 40 51 52 34 23 17
17 43 42 37 5 0 30 80 57 66 107 125 126 128 129 127
128 130 131 129 123 119 109 82 54 35 15 3 0 35 42 37
40 9 13 42 63 47 43 26 33 45 26 23 47 67 73 75
85 73 71 91 60 27 33 37 33 15 1 0 0 0 0 0
0 0 0 0 0 0 0 0 0 0 0 0 0 0 0 0
0 0 0 0 0 0 0 0 0 0 0 0 0 0 0 0
0 0 1 18 16 12 8 6 6 6 5 6 7 7 18 34
25 27 22 20 33 33 53 69 52 52 43 35 41 30 17 21
20 29 36 54 9 3 32 60 67 64 81 117 128 131 130 126
129 133 134 130 129 125 110 73 21 25 31 12 34 41 38 43
47 15 16 27 42 46 34 28 34 42 18 9 31 89 104 105
106 103 80 70 66 24 15 28 35 32 19 17 4 0 0 0
0 0 0 0 0 0 0 0 0 0 0 0 0 0 0 0
0 0 0 0 0 0 0 0 0 0 0 0 0 0 0 0
0 0 4 20 16 12 10 8 8 9 10 10 10 8 17 31
34 40 26 27 32 45 50 43 16 20 20 42 67 50 38 58
41 30 25 52 15 5 71 56 75 69 80 103 129 133 133 130
134 135 135 136 136 135 118 54 18 27 17 35 62 45 54 59
63 37 33 48 51 33 22 26 39 62 49 29 35 98 102 106
103 83 66 72 97 57 33 42 57 43 22 23 26 4 0 0
0 0 0 0 0 0 0 0 0 0 0 1 2 0 0 0
0 1 1 2 2 3 4 5 5 5 6 7 7 8 8 10
11 10 12 15 14 13 10 8 9 9 10 11 12 10 19 34
35 67 89 96 70 25 35 39 15 19 28 63 79 49 28 67
85 29 25 33 39 5 12 37 64 98 125 131 137 137 136 137
136 136 136 135 135 131 64 24 20 10 32 54 43 48 47 50
69 36 29 53 64 58 38 36 31 49 42 27 29 63 84 81
82 97 101 93 71 56 14 14 34 42 31 25 21 16 5 0
0 0 0 0 0 0 0 0 0 0 0 8 8 0 0 0
19 19 20 18 18 17 17 16 16 15 14 14 13 13 12 12
12 12 12 12 13 13 11 9 9 10 10 13 18 31 49 49
73 101 111 113 85 31 50 59 37 44 43 56 54 25 19 71
95 70 40 22 40 28 2 12 31 89 121 131 136 136 137 136
136 136 136 136 135 106 23 12 11 17 60 42 34 42 63 70
73 28 10 23 46 53 37 31 31 62 59 33 25 63 109 102
114 112 109 93 80 92 36 31 53 65 53 29 30 34 22 15
0 0 0 0 0 0 0 0 0 0 0 19 8 0 0 0
24 24 24 21 19 18 18 16 16 15 14 14 14 13 12 13
13 12 12 12 12 12 10 10 10 11 22 46 52 55 68 90
78 76 84 80 54 15 57 52 42 43 35 56 70 42 29 92
113 104 73 30 20 44 10 6 19 37 106 129 134 136 136 137
136 136 137 135 134 75 15 14 7 47 55 34 57 74 87 79
85 39 9 19 34 29 16 17 17 46 67 46 31 48 93 87
97 104 90 70 62 66 39 28 41 57 54 30 30 27 31 27
12 0 0 0 0 0 0 0 0 0 0 24 3 0 0 0
23 23 22 21 20 19 18 17 17 15 15 14 14 13 12 12
11 10 10 10 9 10 11 11 11 23 46 44 75 83 86 82
96 79 72 79 56 27 57 39 19 26 40 73 80 51 32 80
98 102 90 39 35 47 22 4 9 27 49 96 131 136 137 136
137 136 136 135 114 51 20 19 31 55 55 102 118 119 117 118
115 69 33 39 56 39 18 27 25 22 45 32 14 14 59 68
69 75 68 67 70 66 26 8 15 39 34 15 12 13 19 16
20 6 0 0 0 0 0 0 0 0 0 16 0 0 0 0
23 22 21 19 18 15 14 12 11 9 7 5 4 3 2 2
5 5 8 9 9 10 10 15 37 46 35 26 80 88 103 109
110 99 104 109 68 34 78 44 40 41 46 64 64 38 15 60
83 79 90 75 58 60 42 7 13 27 20 33 48 80 124 137
137 135 135 111 50 38 41 22 57 49 90 115 110 113 115 113
113 67 40 54 80 80 52 52 49 33 53 40 11 10 60 90
86 85 75 91 114 113 74 12 9 36 36 21 15 22 26 18
20 28 4 0 0 0 0 0 0 0 0 2 0 0 0 0
6 5 5 5 5 4 4 2 2 1 0 0 0 0 0 0
3 6 7 9 9 11 35 57 47 44 24 40 85 82 88 88
82 88 111 110 51 34 60 35 46 34 24 40 42 31 12 53
88 94 98 101 102 79 53 36 51 67 46 30 29 40 59 109
137 136 132 70 27 28 37 38 91 68 101 104 106 116 110 109
117 65 25 32 61 66 43 39 34 41 77 67 42 38 81 116
116 118 114 117 119 107 98 46 36 57 66 59 50 47 25 6
18 61 31 0 0 0 0 0 0 0 0 0 0 0 0 0
0 0 0 4 15 17 18 17 18 18 17 16 16 5 0 0
2 5 6 7 14 40 49 33 39 38 36 36 102 108 113 109
102 79 92 96 52 35 44 16 19 20 19 38 42 30 20 71
130 124 131 132 126 74 53 54 42 64 82 64 46 25 38 86
118 126 111 46 37 52 48 47 88 120 128 128 132 132 132 131
128 84 49 51 85 87 56 58 60 46 52 58 34 26 48 94
102 113 104 100 106 104 118 70 28 53 73 54 33 31 19 0
7 77 55 21 0 0 0 0 0 0 0 0 0 0 0 0
4 7 9 15 37 37 35 33 31 27 25 27 27 18 0 0
2 4 6 20 47 32 24 38 63 64 43 44 101 98 107 115
107 104 116 117 59 38 60 20 17 20 24 57 75 66 43 68
123 114 115 111 109 94 75 66 39 66 60 56 37 57 53 64
76 74 88 44 41 66 68 45 82 133 131 131 133 133 131 131
129 91 51 51 80 90 63 61 59 50 67 84 62 48 65 117
116 120 118 118 127 128 125 102 47 48 63 58 41 46 43 15
20 73 54 58 13 0 0 0 0 0 0 0 0 0 0 0
5 8 11 15 37 34 34 32 30 28 26 32 36 30 9 6
4 5 23 30 30 25 24 26 49 59 36 38 81 72 73 96
90 95 103 106 45 57 81 46 38 47 57 78 81 63 29 47
119 126 127 130 131 131 123 102 72 68 94 77 63 68 67 48
69 74 65 32 45 77 67 47 83 133 132 133 132 132 131 131
131 97 44 46 83 96 70 58 52 54 65 87 68 42 60 115
120 125 126 126 125 129 126 112 47 46 83 73 49 52 46 22
46 89 58 85 74 17 0 0 0 0 0 0 0 0 0 0
18 24 24 22 34 41 43 40 38 35 34 32 31 26 13 10
11 33 42 54 47 26 30 31 44 62 40 45 85 73 68 81
79 76 76 86 45 57 56 49 53 49 43 64 76 68 46 66
134 135 135 134 134 133 134 134 109 52 91 94 73 64 67 59
56 59 33 31 61 91 70 52 83 134 132 132 132 132 132 132
129 103 52 49 85 92 73 53 54 55 65 86 75 45 57 108
120 124 129 127 126 129 127 118 52 43 76 88 61 57 49 26
50 115 81 54 71 64 4 0 0 0 0 0 0 0 0 0
21 24 23 22 27 33 30 28 24 22 21 19 18 15 7 8
38 31 41 46 41 36 39 35 52 68 41 76 116 114 112 115
114 116 122 120 76 75 79 52 47 49 61 89 93 80 49 62
131 136 135 135 135 134 134 134 129 48 84 90 84 63 62 49
64 40 27 47 89 91 66 48 82 135 133 132 133 131 132 131
129 102 53 52 80 95 75 53 57 58 68 85 77 46 53 101
121 124 125 127 125 129 130 126 59 46 67 81 70 55 47 37
81 100 90 64 63 60 21 0 0 0 0 0 0 0 0 0
23 24 25 23 22 21 20 18 18 17 16 16 16 14 6 29
49 21 43 60 41 17 17 21 36 42 30 56 102 112 113 113
101 102 117 118 69 82 83 70 68 63 68 87 91 76 50 59
128 136 135 134 135 134 134 133 130 63 54 96 94 68 60 53
54 28 41 68 92 87 61 50 88 133 132 132 133 133 132 132
131 101 50 51 79 96 83 59 59 57 64 88 74 50 48 92
119 124 125 125 125 127 130 125 63 46 58 77 71 55 50 47
103 122 89 95 87 67 97 9 0 0 0 0 0 0 0 0
20 17 15 11 9 6 4 2 12 18 17 16 16 15 23 46
94 34 38 47 30 11 12 14 26 34 48 82 133 132 131 127
118 122 123 113 61 81 83 69 65 61 63 85 94 78 51 57
124 136 136 135 135 135 134 133 131 74 42 77 99 83 55 63
37 44 62 76 96 88 62 54 94 134 133 132 133 133 132 132
130 104 46 48 75 89 79 59 58 61 64 82 81 58 48 79
123 126 129 127 125 126 131 129 71 44 60 80 71 52 49 51
106 124 95 90 92 96 120 46 0 0 0 0 0 0 0 0
1 0 0 0 0 0 0 0 9 18 17 17 17 26 52 94
98 34 26 48 43 28 24 25 36 53 44 73 133 132 131 127
117 124 136 129 49 83 80 68 64 64 57 83 97 82 49 57
120 136 135 134 133 135 134 133 134 84 50 66 99 91 53 67
40 44 57 86 100 93 57 54 97 134 133 132 133 132 132 133
132 110 50 46 77 87 75 63 55 61 59 83 88 62 44 64
123 127 129 127 128 129 131 130 73 39 47 79 76 53 59 53
100 123 103 113 101 97 116 73 0 0 0 0 0 0 0 0
0 1 2 3 4 6 8 10 15 18 16 17 25 44 82 93
84 43 50 76 69 47 49 53 45 54 39 64 131 129 130 120
112 131 136 127 49 83 77 68 63 62 59 83 99 85 52 60
120 136 134 135 135 135 134 134 133 88 49 58 95 90 67 70
36 72 52 90 103 90 59 52 101 134 133 133 134 133 133 132
131 115 49 51 77 91 75 61 58 59 61 84 87 65 52 61
123 129 130 127 127 127 131 130 83 38 45 79 79 55 56 51
89 120 106 114 113 107 104 87 0 0 0 0 0 0 0 0
19 19 20 20 21 20 20 19 20 20 21 25 37 54 92 87
104 54 41 64 58 33 31 35 32 56 45 65 131 130 133 116
113 135 136 126 56 86 80 69 64 61 59 84 99 90 54 59
115 137 135 135 135 135 134 133 133 93 50 55 90 88 70 60
39 50 48 87 99 88 58 54 98 134 133 133 133 133 132 132
131 122 54 53 75 92 78 58 63 63 62 83 84 67 47 61
122 129 131 131 128 128 131 130 97 34 50 81 82 59 57 51
79 116 109 112 112 116 91 98 3 0 0 0 0 0 0 0
26 26 27 27 26 26 25 25 26 23 23 38 51 93 92 104
103 46 45 77 75 52 59 59 55 64 44 62 133 136 134 115
114 137 136 123 55 84 81 71 62 59 61 84 100 91 54 60
114 136 134 133 131 134 134 133 134 99 54 55 84 78 82 69
43 64 59 81 95 83 50 50 101 135 133 133 133 132 132 132
132 124 53 57 73 90 81 60 65 61 61 78 84 70 49 55
118 129 129 130 125 126 131 130 106 35 45 77 84 62 51 49
70 117 114 115 115 118 86 99 9 0 0 0 0 0 0 0
26 27 28 24 22 22 21 20 24 23 30 60 80 83 100 97
69 47 50 72 86 66 61 62 64 75 50 57 128 137 135 115
117 136 136 128 59 83 81 71 66 66 69 83 101 86 57 57
108 137 135 135 134 134 134 133 134 103 57 58 83 74 82 73
38 61 61 83 96 84 56 53 98 135 133 133 133 132 132 133
131 125 55 49 70 94 84 61 63 60 59 74 84 76 52 52
112 128 129 128 126 122 130 130 115 43 45 77 85 70 45 48
65 117 113 111 121 118 80 100 19 0 0 0 0 0 0 0
24 25 28 27 26 27 27 27 27 28 52 108 98 93 95 83
60 52 49 64 88 71 57 59 72 78 47 53 124 137 136 115
120 136 136 128 58 79 82 71 67 64 64 78 96 81 56 54
105 137 135 134 134 134 135 135 134 104 52 57 88 65 66 59
40 61 62 82 99 79 43 37 82 119 113 113 102 104 101 108
105 101 26 22 39 66 59 32 31 31 29 44 53 55 34 30
95 121 122 121 122 119 130 129 116 48 46 79 88 76 48 47
62 115 119 109 85 121 78 107 30 5 0 0 0 0 0 0
32 32 32 31 31 31 30 29 29 32 90 121 97 76 80 80
103 65 50 67 87 75 57 56 81 79 42 53 123 137 135 114
126 136 136 126 55 77 79 62 62 60 64 80 98 83 57 55
103 137 135 135 135 135 134 134 135 100 47 47 81 51 63 46
24 37 36 55 73 63 35 36 77 126 124 124 124 128 128 129
125 122 53 53 59 89 88 52 53 53 56 70 74 66 42 38
82 100 108 104 100 94 104 105 96 21 21 49 57 50 30 42
57 111 116 101 38 67 73 111 36 12 0 0 0 0 0 0
35 35 33 34 32 33 30 31 30 50 110 129 64 53 79 112
108 60 44 61 80 73 53 50 83 76 40 50 123 136 135 115
130 136 135 123 52 76 79 68 60 58 62 79 94 80 60 57
102 137 131 111 103 98 99 108 117 66 18 28 67 61 77 65
37 52 56 71 91 83 49 43 84 135 127 129 130 131 131 132
126 121 57 48 48 87 88 52 50 54 50 67 75 72 45 47
85 118 123 119 120 115 123 123 113 40 39 65 80 64 33 27
34 106 110 74 37 35 56 113 41 17 2 0 0 0 0 0
33 34 31 34 33 32 31 30 31 86 111 126 58 83 93 114
80 54 38 53 83 79 54 52 86 76 35 53 122 137 134 117
131 136 136 120 31 61 75 72 61 57 61 70 76 55 29 25
70 110 110 123 129 128 125 126 131 95 44 46 83 65 72 62
44 55 56 74 95 78 44 30 63 119 105 107 101 98 93 104
92 91 35 14 20 44 51 26 22 23 23 37 46 37 16 14
48 99 106 103 104 107 127 119 110 36 39 67 80 63 42 45
48 97 106 80 50 33 43 109 40 19 11 0 0 0 0 0
