P2
128 120
156
40 39 40 39 39 38 38 37 37 37 36 36 36 36 36 35
34 34 33 33 32 31 31 31 30 29 29 29 28 28 27 27
26 26 25 25 24 24 23 23 23 22 21 22 21 21 20 20
20 20 20 20 20 22 24 24 25 24 17 12 20 26 22 21
21 20 20 18 17 17 17 16 12 13 14 16 18 18 19 19
19 19 20 21 21 21 21 21 22 22 23 22 23 22 23 24
24 23 24 24 25 25 25 27 26 27 26 26 27 28 27 28
28 28 29 29 29 29 30 29 29 28 28 28 29 30 30 29
40 39 39 38 38 38 39 37 37 37 37 36 36 36 35 34
34 33 33 32 32 32 31 31 29 30 29 28 28 28 27 26
27 26 25 25 25 24 24 24 23 23 22 22 22 21 21 21
20 20 20 20 21 23 25 25 25 24 18 14 18 26 22 22
21 21 21 20 20 18 17 17 13 13 15 18 19 19 19 20
21 21 21 21 22 22 22 22 22 22 22 22 23 23 23 24
24 24 24 25 25 26 26 26 26 27 27 27 28 28 28 27
28 29 30 28 28 28 28 29 29 30 31 31 30 30 30 30
39 39 39 38 39 38 38 38 38 37 36 36 36 36 35 35
35 34 33 33 32 32 32 31 30 30 29 29 28 28 27 27
26 26 26 26 25 24 24 24 24 23 23 22 22 21 21 20
20 21 20 20 22 23 26 26 26 25 18 16 18 26 23 22
22 22 21 20 19 19 17 17 14 15 15 18 20 20 21 21
21 21 22 22 22 22 22 22 23 23 23 23 24 24 24 24
24 24 25 25 26 26 26 27 27 27 27 28 28 28 28 26
26 27 28 28 29 30 30 30 29 29 30 30 29 30 30 30
39 39 40 39 39 38 38 37 37 37 36 36 36 36 36 35
34 34 34 33 33 33 32 31 31 30 30 29 28 28 27 27
27 26 26 26 26 25 24 24 23 23 23 23 23 21 21 21
21 20 21 21 22 24 27 27 27 26 20 17 16 26 23 21
22 21 21 20 20 18 19 17 16 17 17 20 21 21 21 21
22 21 22 23 22 22 23 23 23 23 23 23 24 24 25 25
25 25 26 25 27 26 26 28 27 27 27 27 26 26 27 29
29 28 29 29 30 30 30 30 29 30 31 31 30 31 30 30
39 39 40 39 38 38 38 37 37 37 37 36 36 36 35 35
35 34 33 33 32 32 31 31 30 30 30 29 29 28 28 28
28 27 26 26 26 25 25 24 24 24 23 22 23 22 22 21
21 21 21 22 22 25 26 27 27 26 21 16 13 25 24 22
22 22 22 21 22 20 20 19 17 16 18 20 21 21 22 22
22 22 22 23 23 23 23 23 24 24 23 24 24 24 24 24
25 25 25 26 26 26 26 26 26 25 26 27 28 29 29 29
30 29 29 29 29 30 29 29 29 29 30 30 30 30 30 30
39 38 39 38 38 38 38 38 38 37 37 36 36 35 36 35
35 34 34 33 33 32 31 31 30 30 30 29 29 28 28 28
28 27 27 27 26 25 25 25 25 24 24 23 23 23 22 22
22 21 21 22 23 24 27 27 27 26 20 13 9 23 25 23
23 23 22 21 22 20 20 19 18 17 20 21 23 22 22 23
23 23 23 23 23 23 23 24 25 23 24 24 24 25 25 25
26 26 25 25 25 24 25 26 27 28 28 28 28 28 29 30
30 29 30 29 29 30 30 29 30 30 30 30 30 30 30 30
39 38 38 38 39 38 38 37 37 37 36 36 36 35 35 35
35 34 34 33 33 32 32 31 31 30 30 29 29 28 28 28
28 27 27 26 26 26 25 24 24 24 24 23 23 23 22 22
22 22 22 23 24 25 28 27 27 26 20 16 15 26 25 24
24 23 22 22 23 21 20 20 18 18 20 22 23 23 23 23
23 23 24 23 24 24 24 24 25 24 24 25 25 25 25 25
25 24 24 25 26 27 28 27 27 28 28 28 28 29 29 30
30 29 30 30 29 30 30 30 30 29 30 30 30 30 30 30
46 43 39 38 38 38 37 37 37 37 36 36 36 35 35 35
35 33 33 33 33 33 32 32 31 31 30 30 30 29 29 28
27 27 27 27 26 26 26 25 24 24 24 23 23 23 22 22
22 22 22 23 23 25 28 28 28 27 21 18 18 25 26 24
24 24 23 22 23 21 21 20 19 18 21 22 23 23 23 23
24 24 24 24 24 24 25 25 25 24 25 25 25 26 25 26
26 26 26 26 27 27 27 28 28 28 29 28 29 29 29 29
30 30 30 30 31 30 30 30 30 30 30 31 30 31 31 31
53 51 49 39 38 38 37 37 37 36 36 36 36 36 35 34
34 34 34 33 33 32 32 31 31 30 31 30 30 29 29 29
29 28 28 27 27 26 26 25 25 25 24 23 23 23 22 23
23 23 23 23 24 26 28 28 28 26 21 19 19 23 26 25
24 24 24 23 24 21 21 21 20 18 22 23 23 24 23 23
24 24 24 24 24 24 24 24 24 24 24 24 25 26 25 26
27 27 26 27 27 27 28 28 28 28 29 29 29 29 30 30
31 30 30 30 30 30 31 30 29 30 30 30 29 30 30 30
24 50 50 39 38 38 38 37 37 37 36 36 36 35 36 35
34 34 33 33 33 33 33 32 31 31 31 30 30 29 29 28
29 28 28 27 27 26 26 26 25 25 25 24 24 23 23 23
24 23 23 23 25 26 29 29 29 27 21 19 21 22 26 25
25 24 24 23 24 22 22 22 21 19 22 23 24 24 24 25
24 25 25 25 24 24 24 24 25 25 26 25 27 26 26 27
27 27 27 27 27 27 28 28 28 28 29 29 30 29 30 30
31 30 31 30 30 30 31 30 31 30 29 30 30 30 31 31
3 47 50 39 38 37 37 37 37 37 37 36 36 35 35 35
34 34 34 33 33 33 32 32 32 31 31 31 30 29 29 29
29 29 28 27 27 27 26 26 26 25 25 24 24 24 24 24
23 23 23 24 24 27 30 29 29 29 22 19 23 21 26 25
25 25 24 23 24 22 22 22 21 18 22 24 24 24 24 24
25 24 25 25 26 25 25 25 26 25 26 26 26 26 27 27
28 26 27 27 28 28 28 28 28 29 29 29 30 29 30 30
31 30 30 30 30 30 30 31 31 30 30 30 30 31 31 30
3 47 50 39 37 38 37 37 37 36 36 36 35 35 35 34
34 35 34 34 33 33 33 32 32 31 31 30 30 30 30 29
28 29 28 28 27 27 26 26 26 26 26 25 25 24 24 24
24 24 24 24 25 26 30 30 29 29 22 20 24 20 28 26
26 26 25 24 25 24 23 23 21 19 22 23 25 24 24 25
25 25 25 26 26 26 26 26 26 26 26 26 27 27 27 28
28 27 28 28 28 29 29 29 29 29 29 29 29 30 30 30
31 30 30 30 31 30 31 31 30 31 30 30 31 31 31 31
3 46 49 38 37 37 37 37 37 36 36 36 35 35 35 35
35 34 34 34 33 33 33 32 32 32 32 31 31 30 30 29
29 29 29 28 28 27 27 27 27 26 26 26 25 25 25 24
24 24 24 24 25 27 30 30 29 29 23 20 26 20 27 27
26 26 25 25 26 25 23 23 23 19 22 23 25 25 26 26
26 27 26 26 26 27 26 26 26 26 27 27 27 27 27 27
28 28 28 28 29 29 29 29 30 30 30 30 30 30 31 30
31 31 31 31 31 31 30 29 30 29 30 30 31 31 31 31
3 46 49 38 38 38 38 37 37 37 37 36 36 36 36 36
36 35 34 34 33 34 33 32 32 32 32 31 31 31 31 30
30 29 29 28 29 27 28 27 27 27 26 26 26 25 25 25
25 24 25 25 26 27 31 30 30 30 24 21 27 21 28 27
27 27 26 25 26 25 24 23 23 19 24 25 26 27 26 27
27 26 27 27 27 27 27 27 27 27 27 27 28 28 28 28
29 29 29 29 29 29 29 29 30 29 30 31 31 31 31 30
30 31 30 29 30 31 32 31 32 31 30 31 30 30 31 31
4 47 49 38 38 37 37 37 38 37 37 36 36 35 35 35
35 35 35 34 34 34 33 33 33 32 32 32 31 31 31 30
30 29 29 29 28 28 28 27 27 27 26 26 26 25 26 25
25 25 25 25 27 28 31 31 31 31 24 21 28 21 28 28
27 27 26 25 26 25 24 24 23 19 25 25 26 26 27 27
27 27 27 27 28 27 28 27 28 28 28 27 27 28 28 28
29 29 30 29 30 30 30 30 30 30 30 30 30 29 29 30
30 30 31 31 31 32 31 31 32 33 31 31 31 31 31 31
4 46 48 38 38 38 38 38 36 37 37 37 37 36 36 36
36 36 35 34 34 34 34 33 33 33 32 32 32 31 31 31
30 30 29 29 29 29 29 28 28 27 27 27 26 26 26 25
25 25 25 25 27 28 32 31 31 32 25 22 29 23 28 27
28 27 27 26 26 26 24 24 24 20 26 25 27 27 27 27
28 28 28 28 28 27 28 27 28 28 29 29 29 29 29 29
30 29 30 30 31 30 30 30 30 30 30 31 31 32 32 32
32 32 32 32 32 33 32 32 32 34 31 31 32 32 32 31
4 47 48 39 38 38 38 38 37 37 37 37 37 37 36 36
36 35 35 34 35 34 33 33 32 33 32 32 32 32 31 31
31 30 30 30 29 29 29 28 28 27 27 27 27 27 26 26
26 25 25 26 27 29 32 32 32 32 25 22 29 23 27 27
28 28 27 26 26 27 25 25 24 21 26 26 27 28 28 29
28 29 28 28 28 28 27 28 28 28 29 29 29 30 29 30
30 29 30 29 29 29 30 30 31 31 32 32 32 32 32 32
32 32 32 32 31 32 32 31 32 33 31 31 31 31 31 31
4 46 47 38 38 37 38 37 37 37 37 36 36 36 36 36
35 35 35 35 34 34 34 32 33 32 32 32 32 32 32 31
31 30 30 30 29 29 29 28 28 28 27 26 26 26 26 26
26 25 26 26 27 29 32 32 32 31 25 22 29 24 26 28
28 27 27 26 25 26 25 25 24 20 26 25 28 28 29 28
29 29 28 29 29 28 28 29 29 29 29 29 29 30 30 30
29 29 29 29 30 30 30 30 32 32 32 32 32 32 32 32
32 32 32 32 32 32 32 32 32 33 31 32 31 31 31 31
17 47 47 37 38 37 37 37 37 37 37 36 36 36 35 36
35 35 35 34 34 34 34 34 33 33 32 32 32 31 31 31
31 30 30 29 29 29 28 28 28 27 27 27 27 27 27 26
27 26 26 26 28 29 32 32 32 31 26 22 29 27 25 29
28 28 27 26 25 26 25 25 25 21 26 25 28 28 28 28
28 29 28 28 29 29 29 29 29 29 29 29 29 29 30 30
30 30 30 31 31 30 31 31 32 32 31 31 31 32 32 32
32 32 32 32 32 32 32 31 32 32 31 31 31 31 31 31
28 46 45 37 38 37 37 37 36 37 36 36 36 36 36 35
35 35 35 34 34 34 33 33 33 32 33 32 33 32 31 31
30 30 30 30 30 29 29 28 28 28 28 28 27 27 27 26
26 26 26 26 28 29 32 33 32 30 25 17 26 27 22 28
25 24 26 26 24 26 25 25 25 21 26 25 28 28 28 28
29 29 29 29 29 29 28 28 29 29 29 29 30 30 30 29
30 30 30 30 31 30 31 30 32 32 31 32 32 32 32 33
32 32 32 31 32 31 32 31 31 32 31 31 31 31 30 31
39 40 40 38 38 37 37 37 37 37 37 36 36 36 36 35
35 35 34 35 34 34 33 34 33 33 33 32 32 32 31 31
31 31 30 29 30 29 29 28 28 28 28 27 27 27 27 27
27 26 27 27 28 29 33 31 21 17 16 4 14 10 8 15
7 3 16 24 26 27 26 26 25 22 26 25 29 28 29 28
29 28 28 28 28 28 28 29 29 30 29 29 30 29 30 31
31 30 31 30 32 31 32 32 33 33 32 32 32 32 32 32
32 32 32 32 31 32 32 32 31 32 31 31 31 31 31 31
33 36 38 37 38 37 37 37 37 37 37 36 36 36 36 36
35 35 35 34 34 34 34 33 33 33 33 32 32 32 32 31
31 30 30 30 30 29 29 29 28 28 28 28 27 27 27 26
26 26 26 27 28 28 19 4 3 4 8 12 8 6 3 5
5 1 0 6 21 27 25 25 25 22 27 26 28 28 28 28
28 28 28 28 28 29 29 29 29 30 30 30 30 30 30 30
31 31 31 31 32 32 31 31 32 32 32 32 32 32 33 32
32 32 32 32 32 31 32 31 32 32 32 32 31 32 31 32
18 23 27 31 35 37 38 38 37 37 37 36 36 35 35 35
35 35 35 34 34 34 34 34 33 33 33 32 32 32 31 31
31 31 30 30 30 30 29 29 29 29 28 28 28 27 27 26
26 27 27 27 26 12 2 5 3 3 4 11 21 9 2 6
1 0 0 2 0 8 23 26 25 21 26 24 29 28 28 28
29 29 29 29 30 29 30 30 30 31 30 30 30 30 30 30
31 31 32 32 32 32 32 32 33 33 32 32 33 33 32 32
32 32 32 32 32 32 32 32 32 32 31 30 30 30 29 29
14 14 14 15 17 19 23 28 32 34 37 37 36 36 36 36
35 35 34 35 34 34 34 33 33 33 33 33 32 33 33 32
31 31 30 31 30 30 30 29 29 29 28 28 28 28 28 27
27 27 27 26 11 5 3 3 2 2 8 12 21 12 2 3
1 0 0 0 0 0 1 15 25 22 27 26 29 29 29 29
30 29 29 30 30 30 30 31 30 31 30 30 31 31 31 31
32 32 32 32 32 32 32 32 33 33 32 32 32 33 33 33
32 32 32 33 32 32 31 31 30 30 29 29 30 31 31 29
15 14 13 14 15 13 15 15 16 16 19 24 33 37 36 36
35 35 35 35 35 35 34 34 34 33 33 33 33 33 32 31
31 31 31 31 30 30 30 30 30 29 29 28 28 28 28 28
28 27 26 14 0 0 0 1 1 3 6 11 20 11 3 3
0 0 0 1 0 3 1 0 12 24 28 27 30 30 30 30
30 30 30 30 30 30 30 31 31 32 30 30 31 30 31 32
31 32 32 32 33 33 33 32 33 33 33 33 33 33 33 33
33 32 31 30 30 30 31 32 32 32 32 31 31 31 31 31
35 18 19 15 13 13 14 14 15 7 6 13 30 36 36 36
36 35 35 35 34 34 34 34 34 34 34 34 33 33 32 32
32 31 32 31 31 30 30 30 29 29 28 28 29 28 28 28
28 25 10 0 0 0 0 6 6 5 10 14 18 14 5 6
4 3 3 5 3 1 1 1 0 10 28 28 30 29 30 29
30 30 31 30 30 30 31 31 32 33 31 31 31 32 32 32
32 32 33 33 33 33 33 33 33 34 33 32 33 33 32 32
32 33 32 32 32 33 33 31 32 31 31 31 31 31 31 31
47 26 31 32 30 22 16 14 14 12 12 14 30 37 37 36
36 36 34 34 35 35 35 35 34 35 34 34 33 33 33 32
32 31 32 31 31 32 32 30 30 30 30 29 29 29 29 28
24 12 0 0 0 0 0 0 11 12 14 19 19 22 12 12
11 10 12 16 15 13 7 2 0 1 21 28 30 30 30 30
31 31 31 31 31 31 31 32 31 33 32 31 32 31 32 32
33 33 33 33 33 33 33 33 32 32 32 32 32 33 33 32
32 33 32 32 32 32 32 32 32 32 31 31 31 31 31 31
49 32 36 41 44 37 40 38 32 20 12 14 29 36 36 36
36 36 36 40 39 38 36 35 35 34 34 34 33 34 33 32
32 32 32 31 37 43 40 35 33 31 30 29 29 29 29 26
11 1 1 1 4 9 9 12 12 26 22 25 25 29 18 20
18 20 20 24 21 20 12 7 2 0 4 26 31 31 31 31
31 31 31 31 32 31 31 32 32 33 32 32 32 32 32 32
33 32 33 33 33 33 33 31 32 32 32 33 32 33 32 31
32 33 33 32 33 32 32 32 32 32 32 31 31 31 31 31
49 37 40 43 45 40 48 48 48 34 13 15 30 37 37 36
36 36 38 47 45 44 41 39 37 35 34 34 34 33 33 32
32 32 32 32 39 45 42 39 39 39 34 30 29 28 29 15
2 4 9 13 19 24 26 25 24 29 32 30 32 35 32 30
31 33 29 23 20 18 18 15 4 1 0 15 31 31 31 31
32 31 31 31 31 32 32 32 32 33 32 31 31 31 32 32
32 33 32 33 33 33 33 32 32 32 32 32 32 32 32 32
32 33 33 32 32 33 32 32 32 32 32 32 31 30 31 31
41 39 42 45 46 46 50 49 50 40 14 17 33 38 38 38
37 36 38 48 46 45 41 41 42 43 40 37 37 35 33 32
32 32 33 32 38 42 41 39 39 39 37 31 29 30 23 5
4 6 19 39 47 50 48 46 42 38 32 32 38 42 48 56
50 47 42 53 52 43 30 20 14 4 0 2 26 31 31 31
31 32 32 31 32 32 32 31 31 31 32 31 32 32 33 33
33 34 32 32 33 33 33 32 33 32 32 32 32 32 33 32
32 32 34 33 33 32 32 32 32 31 31 32 31 31 32 31
40 39 42 43 45 47 49 49 50 42 16 17 36 41 40 39
38 37 38 44 44 44 43 44 45 47 42 39 41 42 38 35
34 34 33 32 35 27 28 31 35 37 38 32 29 28 9 2
10 29 61 80 84 86 86 82 69 62 58 53 58 63 73 78
70 70 78 88 88 78 62 41 23 16 4 0 6 30 32 32
32 31 31 31 31 31 32 31 32 32 32 32 32 32 32 32
32 34 32 32 33 33 33 32 33 32 32 32 32 32 31 32
32 32 33 32 32 32 32 32 31 31 31 30 30 30 30 31
40 30 26 34 40 46 48 48 48 41 16 17 35 43 37 38
40 41 43 24 10 22 36 42 44 46 42 19 16 25 32 37
36 40 39 35 34 18 11 12 13 14 23 32 30 20 2 13
27 58 82 93 98 106 110 111 109 102 99 95 91 93 101 104
102 99 101 102 100 90 72 67 51 33 17 4 0 13 32 31
31 31 31 31 32 32 31 32 31 32 31 32 32 32 33 32
33 34 32 33 33 32 33 32 32 32 32 32 32 32 32 32
32 32 34 32 32 32 32 31 31 31 32 31 31 31 30 31
41 18 0 4 8 19 27 31 37 42 17 17 34 43 38 34
36 44 48 21 0 0 12 19 20 25 39 8 0 0 2 8
14 22 30 35 34 18 4 8 8 2 7 33 27 6 6 17
44 76 90 98 103 110 114 118 119 119 120 117 115 118 117 119
116 110 109 107 104 96 85 75 65 52 32 15 1 1 28 32
32 31 32 32 32 32 32 32 32 32 33 32 32 32 32 32
32 34 33 33 33 32 32 32 33 32 32 33 32 32 32 32
32 32 33 32 32 31 31 31 32 31 31 31 31 31 31 31
41 17 0 0 0 0 0 1 7 40 17 15 17 25 33 40
41 47 49 24 0 0 5 10 13 14 36 9 0 0 0 0
0 0 1 12 35 15 0 1 3 1 6 34 17 0 14 31
58 83 92 96 103 112 117 120 123 125 123 124 125 125 124 123
120 116 113 111 108 102 92 80 72 60 47 26 7 0 16 31
32 32 33 32 31 32 32 32 32 33 32 32 32 32 32 32
32 34 33 32 33 33 32 32 32 32 32 32 32 32 32 32
32 32 32 32 32 31 31 32 31 31 31 31 32 31 31 32
42 14 0 0 0 0 0 0 6 39 17 14 1 0 1 7
15 26 35 24 0 0 3 2 7 9 35 12 0 0 0 0
0 0 0 8 36 11 0 0 1 0 6 33 5 1 11 36
69 88 94 97 106 115 121 124 126 127 128 131 131 131 130 129
125 121 119 114 110 102 92 80 80 69 55 38 16 1 3 29
32 33 33 32 32 32 32 32 32 32 32 32 33 32 33 32
32 34 34 33 33 33 33 33 33 33 32 33 32 32 32 32
33 32 32 32 32 31 31 31 31 32 32 31 32 32 32 31
42 15 0 0 6 5 0 0 4 41 18 14 2 0 0 0
0 0 2 19 0 0 0 0 0 7 32 9 0 0 0 0
0 0 0 6 34 5 0 0 0 0 6 26 0 3 23 43
70 91 96 103 109 115 123 128 130 132 132 133 133 132 132 131
129 125 124 120 112 106 95 88 86 74 62 45 25 5 0 20
32 33 33 33 32 32 33 31 32 32 32 32 33 33 33 33
33 33 32 33 34 33 34 33 33 33 33 33 33 33 33 32
33 33 32 32 33 32 33 32 32 32 32 32 33 33 33 32
41 15 0 0 4 14 1 0 4 41 17 15 1 0 0 0
0 0 0 16 0 0 0 0 0 5 35 11 0 0 0 7
7 0 0 4 34 5 0 0 0 0 4 11 0 8 27 47
69 92 100 105 111 116 124 132 134 134 134 135 132 133 132 131
127 124 124 122 115 106 96 92 87 75 63 47 31 12 0 11
32 32 33 32 32 32 32 32 32 32 32 32 32 32 32 32
32 33 32 33 33 33 34 33 33 33 33 33 32 32 32 32
32 31 32 32 33 33 33 32 32 33 32 32 33 32 32 31
41 13 0 1 0 12 0 0 5 40 16 15 2 0 0 0
0 0 0 13 0 0 0 0 0 5 37 12 0 0 0 10
13 8 3 3 34 4 0 0 0 0 0 0 0 7 31 48
71 93 102 107 114 120 126 133 136 136 136 135 135 134 132 132
129 125 126 123 115 108 99 95 90 77 65 47 28 18 2 3
32 32 32 31 32 33 32 32 32 32 32 33 33 33 33 34
33 34 34 34 33 34 34 34 34 33 33 33 33 32 32 32
32 32 33 33 32 32 32 32 31 30 31 33 33 32 33 32
41 12 0 0 0 0 0 0 6 40 17 15 2 0 0 4
7 0 0 11 0 0 0 0 0 4 36 14 0 0 2 11
15 13 11 3 34 5 0 0 0 0 0 0 0 10 35 53
74 92 105 112 117 121 127 132 136 137 136 135 135 136 132 130
128 124 124 121 118 109 101 97 93 79 67 47 30 16 6 0
28 34 34 33 33 32 33 33 33 33 33 33 34 34 34 34
35 35 34 34 34 34 35 34 34 34 33 34 34 33 33 34
33 33 34 33 33 33 33 33 32 32 32 33 33 33 33 33
40 10 0 3 1 0 0 0 6 40 17 15 2 5 6 3
3 0 0 12 0 0 0 0 0 7 37 16 0 0 0 10
13 13 10 2 34 10 0 0 0 0 0 0 1 13 33 58
78 94 107 113 119 121 127 133 135 136 136 135 132 136 132 131
130 126 126 123 117 111 102 99 93 82 70 48 31 16 6 0
18 34 33 33 33 33 33 33 33 34 34 34 34 34 34 34
34 33 34 34 34 34 34 34 34 35 35 34 33 34 34 34
33 33 33 33 33 33 33 33 33 33 33 34 34 34 34 33
43 17 3 3 2 1 0 0 8 39 17 16 4 8 0 1
3 0 0 14 0 0 0 0 0 14 39 21 1 2 1 0
5 11 10 2 36 36 27 18 12 7 0 0 0 13 35 60
86 96 106 113 119 122 128 134 138 139 139 134 135 137 139 136
133 131 129 126 120 111 102 100 95 84 70 52 31 13 7 0
9 34 34 34 34 34 34 34 34 34 34 34 35 34 34 35
35 35 35 35 35 35 35 35 35 35 34 34 35 34 34 34
34 34 34 33 34 34 34 34 32 33 33 34 32 32 32 31
47 53 37 25 33 31 28 23 26 37 18 16 5 2 0 0
0 0 0 26 19 10 9 5 0 5 40 42 31 26 21 12
6 6 6 2 35 46 42 41 41 37 2 0 1 13 36 65
93 100 107 114 119 123 126 136 140 141 140 138 138 139 140 138
137 135 129 126 121 113 107 102 97 89 72 57 33 11 5 1
3 33 34 35 35 35 35 34 35 35 35 35 35 35 36 36
35 35 36 35 36 36 36 36 35 36 36 35 35 35 34 34
35 34 33 33 32 33 34 31 32 32 33 30 27 24 20 17
61 62 39 33 44 49 48 47 46 36 17 16 4 0 0 0
0 0 1 39 52 41 39 38 32 26 48 39 24 27 30 31
30 29 29 29 45 44 42 42 44 34 0 0 0 14 41 71
94 101 110 117 123 124 128 136 141 142 141 140 140 140 140 140
138 136 129 123 120 114 107 104 97 92 74 56 41 12 2 0
0 29 35 35 35 35 35 36 35 35 36 35 36 36 35 35
35 35 35 36 36 36 36 35 36 35 35 35 33 33 33 32
34 33 33 32 30 29 26 23 20 17 15 13 13 12 12 12
62 57 33 35 44 49 49 53 52 39 17 17 5 0 0 0
0 0 1 41 54 44 49 51 55 50 49 33 15 16 16 16
17 17 20 25 30 26 29 34 39 25 0 0 0 11 40 73
87 103 113 120 123 124 128 134 138 140 141 141 140 140 141 139
138 131 119 112 112 111 104 96 87 89 72 52 44 18 0 0
0 26 34 35 34 35 35 34 35 36 36 35 35 35 35 35
36 35 34 35 35 35 35 35 35 35 35 34 34 35 30 27
25 23 20 17 16 14 15 14 15 15 16 17 18 19 19 19
57 43 21 28 39 43 45 49 51 40 17 18 24 23 16 8
3 1 1 39 44 43 50 53 56 51 42 33 17 16 15 14
13 12 11 10 10 10 12 15 26 19 0 0 0 9 43 77
90 104 106 108 111 117 123 127 131 130 131 135 136 137 138 134
126 109 87 59 58 56 61 57 48 43 37 29 11 2 0 0
0 18 34 34 35 35 35 34 33 35 35 34 34 35 35 36
36 36 37 36 36 36 34 32 29 27 24 22 22 34 25 13
14 15 16 17 18 19 19 20 21 21 22 23 24 25 25 25
56 38 2 0 3 4 7 11 24 39 18 19 35 50 49 45
40 34 31 44 36 42 48 50 54 52 45 36 20 17 15 13
12 12 11 11 11 11 12 13 26 16 0 0 0 10 24 49
65 68 72 70 62 53 50 55 63 76 104 119 126 131 129 122
104 55 36 34 39 45 49 35 18 9 6 10 11 1 2 0
0 12 32 33 35 35 34 34 34 34 36 36 35 36 36 35
35 33 31 28 25 22 20 19 18 18 18 18 17 29 23 15
19 22 23 23 24 25 26 26 27 27 27 27 28 29 30 29
56 39 1 0 0 0 0 0 10 39 19 18 36 51 51 50
50 50 52 49 19 20 28 34 41 43 40 39 21 16 13 8
8 8 12 12 13 12 15 16 28 14 0 0 0 1 13 52
42 30 45 100 74 19 11 6 12 31 45 69 109 120 115 107
62 37 25 14 10 55 127 77 10 2 0 0 1 0 1 0
0 4 30 33 31 30 34 34 35 34 33 32 30 28 25 23
22 20 20 19 19 20 21 21 23 23 24 24 24 28 25 19
25 27 28 28 29 30 30 30 30 30 30 29 30 31 31 31
55 36 0 0 0 0 2 3 11 37 19 17 32 48 49 49
51 51 52 46 7 0 1 3 8 17 24 40 19 14 8 0
0 0 7 12 10 7 13 15 28 16 0 0 0 0 6 17
7 15 75 150 122 19 9 3 2 13 80 39 57 107 105 70
36 37 3 1 8 67 146 95 20 3 0 0 2 16 8 0
0 0 25 30 28 20 28 27 25 23 22 21 20 20 21 21
23 23 24 24 26 26 27 28 28 29 30 29 28 29 26 23
29 30 30 30 31 32 32 32 32 33 32 33 33 32 32 32
50 33 0 0 0 0 21 27 26 32 29 24 30 37 39 40
41 43 49 43 5 0 0 0 0 5 21 41 18 12 11 0
0 0 0 1 1 0 2 5 23 20 0 0 0 2 19 9
4 11 36 93 68 26 15 8 3 9 16 21 33 44 44 23
32 27 5 3 7 32 86 50 15 1 0 0 2 28 25 0
0 0 16 24 21 17 20 20 21 22 24 24 26 26 26 28
29 29 30 30 30 32 32 33 32 32 33 31 27 12 11 21
32 32 33 33 33 33 33 33 34 34 33 34 33 33 33 32
48 29 0 0 0 0 20 27 25 27 26 21 25 24 27 32
33 34 44 41 3 0 0 0 2 0 15 41 16 11 3 0
0 7 3 0 0 0 0 1 20 26 0 0 0 14 45 7
1 4 25 44 44 31 14 3 3 6 5 6 32 20 20 22
22 12 5 0 4 10 23 17 7 0 0 0 1 28 36 1
0 10 24 23 24 24 25 27 27 28 30 30 31 31 32 32
33 33 33 33 34 34 35 35 34 34 33 32 26 5 2 16
32 34 35 34 34 33 34 34 34 34 34 34 33 33 33 33
49 26 0 0 0 0 7 15 19 26 24 22 24 25 26 31
33 34 45 40 2 0 0 0 0 0 13 38 5 1 0 0
0 9 9 3 0 0 0 0 19 35 19 7 0 24 52 6
1 2 10 13 15 13 4 0 0 0 0 2 27 50 73 31
19 1 0 0 0 0 1 0 0 0 0 0 2 29 43 7
14 33 40 27 30 30 29 31 32 33 33 33 34 34 35 34
35 35 35 35 36 36 36 35 27 20 14 18 24 8 5 13
32 34 35 35 35 35 34 33 34 34 34 33 34 33 33 33
50 26 0 0 0 0 0 0 3 22 17 20 20 15 22 28
33 39 44 39 2 0 0 0 0 0 16 37 1 0 0 0
0 3 15 10 4 0 0 0 19 43 53 16 0 28 58 6
1 0 1 1 1 1 0 0 0 0 0 6 35 116 127 77
21 0 0 0 0 0 0 0 0 0 0 0 6 34 47 18
36 43 49 31 32 33 33 34 34 34 34 35 35 35 36 36
36 36 37 36 35 36 37 33 8 3 7 17 23 2 0 12
31 34 35 35 34 34 34 34 33 34 34 34 34 33 32 32
50 24 0 0 3 1 0 0 4 28 23 24 15 0 0 1
5 8 12 26 3 0 0 0 0 0 18 36 1 0 0 0
2 10 16 14 14 1 0 0 18 45 58 43 2 39 64 6
2 0 0 0 0 0 0 0 0 0 0 11 57 123 125 100
28 2 0 0 0 0 0 0 0 0 0 0 7 40 50 30
46 49 54 32 33 35 35 35 35 35 36 36 36 37 37 36
37 36 37 37 37 36 36 35 29 29 32 32 27 3 0 11
31 33 35 35 34 34 34 34 34 34 34 34 33 33 32 33
50 24 0 0 1 7 0 0 4 34 28 27 17 0 0 0
0 0 0 15 3 0 0 1 0 0 17 33 0 0 0 0
5 20 20 14 11 0 0 2 17 47 74 64 17 50 76 8
4 0 0 0 0 0 0 0 0 0 0 15 83 120 117 99
44 10 0 0 0 0 0 0 0 0 1 0 7 47 49 42
66 62 55 31 34 36 36 36 35 36 36 36 37 37 36 37
37 38 38 37 37 36 37 36 36 35 33 32 28 7 0 15
31 35 35 35 34 34 34 33 34 33 33 33 33 33 32 32
45 26 0 0 0 9 1 0 3 37 31 26 17 0 0 0
0 0 0 14 2 0 3 13 4 0 16 31 0 0 0 0
2 8 20 5 1 0 0 2 14 45 87 80 36 59 83 18
3 0 0 0 0 0 0 0 0 0 6 34 102 112 111 95
66 17 0 0 0 0 0 0 2 4 9 3 16 56 49 41
68 68 58 32 35 36 36 36 36 36 36 36 36 36 36 36
37 37 37 36 36 36 37 35 35 35 34 32 29 13 0 19
32 34 35 35 34 34 34 33 33 33 34 33 33 33 32 32
38 34 15 6 3 14 11 5 2 37 28 24 17 0 0 7
7 0 0 12 3 0 12 19 10 0 16 29 0 0 0 0
0 0 15 2 0 0 0 0 10 42 90 90 66 63 84 47
1 0 0 0 0 0 0 0 0 0 17 65 104 107 108 97
78 35 9 0 0 0 0 0 0 2 5 8 37 58 48 42
65 71 53 33 35 35 36 37 36 36 36 37 36 36 36 36
37 37 36 36 36 36 36 35 35 35 33 31 28 22 15 26
33 34 35 35 34 34 34 33 34 34 33 33 33 33 33 32
39 37 37 37 30 35 36 32 28 43 28 22 16 0 3 17
15 5 0 13 11 5 18 18 16 3 17 28 0 1 0 0
0 0 16 5 0 0 0 0 8 38 81 95 72 65 81 81
18 0 0 0 0 0 0 0 0 7 37 89 103 109 111 100
80 49 24 5 0 0 0 0 1 1 4 25 56 55 47 42
63 68 44 34 34 35 35 36 36 36 36 36 37 36 36 36
36 37 37 36 36 36 36 35 35 35 34 32 28 26 27 30
34 34 35 35 34 34 33 33 34 33 33 33 33 33 33 32
41 36 18 12 16 25 35 42 47 48 35 21 17 0 4 15
13 4 0 16 40 37 41 38 37 34 38 31 0 0 0 0
0 0 15 6 0 0 0 0 4 33 63 98 78 65 79 88
71 20 4 0 0 0 0 0 11 36 80 87 106 118 120 108
88 56 52 53 19 9 8 7 11 13 27 55 58 53 46 39
59 65 41 35 36 35 34 35 36 35 36 36 36 36 36 36
36 36 37 36 35 36 36 35 35 35 34 33 29 29 30 34
35 34 34 35 34 34 34 34 34 34 34 34 33 33 33 32
42 37 10 0 0 4 7 17 47 46 33 21 18 1 0 4
1 1 0 15 44 43 48 46 47 51 54 39 10 11 8 2
1 3 18 9 3 3 1 0 3 24 45 98 85 65 75 86
92 79 42 22 16 16 18 39 76 106 87 94 111 129 131 116
98 73 60 98 112 86 71 66 61 64 72 71 65 53 43 38
60 59 34 33 33 34 33 34 35 36 36 36 36 35 36 36
35 35 35 36 35 35 36 35 35 34 34 33 31 31 32 34
35 34 34 34 33 34 34 34 34 33 33 33 33 33 33 33
44 38 7 0 3 25 18 21 45 43 28 22 23 15 1 3
0 0 0 14 44 44 46 45 47 54 56 48 34 33 31 27
25 26 28 22 19 15 15 13 14 24 32 84 86 63 75 89
98 98 95 92 93 100 114 124 126 102 100 103 102 114 121 101
88 91 87 77 119 126 122 114 105 99 90 82 72 54 42 38
64 56 29 30 34 33 31 33 34 35 35 34 35 35 35 35
36 36 36 36 35 36 36 35 35 34 33 32 32 32 33 33
33 32 32 33 33 34 33 33 32 33 33 32 32 33 32 32
46 39 6 0 1 18 30 31 45 39 24 23 24 12 0 1
0 0 0 13 39 38 41 41 43 44 42 42 38 39 38 36
35 36 37 34 31 28 27 24 22 23 27 75 86 65 76 89
100 103 106 113 121 128 133 131 119 99 101 79 66 96 104 81
40 48 78 77 107 132 129 117 110 103 93 81 71 52 42 37
61 57 34 30 30 32 34 34 35 35 35 35 35 35 35 35
35 35 36 36 36 36 36 35 34 34 34 33 32 34 34 34
33 33 33 33 34 34 33 33 33 33 33 32 33 32 31 31
47 40 6 0 0 3 11 28 45 37 22 26 23 5 0 0
0 0 0 14 43 37 38 39 38 36 33 35 39 40 41 39
39 38 38 37 36 40 39 35 33 34 32 63 97 66 76 86
98 103 108 116 124 130 135 128 119 99 82 73 62 81 85 66
53 72 82 83 116 131 128 120 111 105 95 80 68 50 41 38
62 59 36 31 34 31 33 34 35 35 35 35 35 35 34 35
35 36 35 35 35 35 35 35 34 35 34 33 33 35 35 34
34 34 34 35 34 34 34 33 34 33 33 32 33 31 31 31
48 41 7 0 0 0 0 23 46 36 23 23 24 23 18 14
12 9 6 18 44 37 37 37 37 37 38 41 42 41 45 48
47 39 37 38 39 47 46 43 42 40 30 76 100 66 76 83
96 101 109 116 125 131 132 125 123 118 99 98 106 99 88 91
90 79 91 112 124 127 124 116 111 105 95 78 64 49 42 38
61 54 36 32 33 33 32 33 34 35 35 35 35 35 34 35
35 35 36 35 35 36 36 35 35 34 34 34 34 35 35 34
34 34 34 34 30 23 28 34 32 32 33 32 32 31 31 30
48 41 6 0 0 0 0 17 45 36 22 23 26 42 46 44
42 45 46 46 49 40 39 39 39 40 44 47 45 43 46 51
50 40 36 33 38 48 46 44 43 42 37 86 98 67 73 80
92 97 104 116 124 128 130 124 124 120 115 103 109 114 108 110
102 87 103 114 121 126 123 116 110 104 95 77 60 48 43 35
33 32 30 33 34 34 34 33 35 35 35 34 35 35 34 34
35 36 36 35 36 35 35 35 35 34 33 34 34 34 34 34
34 33 34 30 20 27 20 33 32 31 32 31 31 30 29 29
47 39 3 0 0 0 0 19 47 37 20 23 27 49 54 53
53 53 53 54 51 38 35 35 35 37 43 49 48 44 44 43
43 41 38 33 32 40 37 37 40 41 39 66 96 70 73 77
89 98 109 116 124 131 128 123 122 115 110 103 110 116 119 116
111 95 100 108 113 122 120 117 111 103 86 74 60 49 44 32
16 23 30 35 35 35 35 34 35 36 35 35 35 34 34 34
35 35 35 35 35 35 34 33 34 33 34 35 35 35 35 34
35 34 33 20 30 29 22 32 32 31 30 30 31 29 29 29
48 38 3 0 0 0 0 17 44 35 17 23 24 37 43 44
45 47 49 51 49 18 13 9 8 11 18 33 47 42 29 18
23 25 24 29 34 26 9 5 9 16 21 35 50 49 73 77
85 97 109 118 122 129 126 121 115 110 107 107 109 108 109 112
112 104 98 102 107 115 116 115 110 103 92 73 58 49 42 27
13 25 29 33 35 36 36 33 36 36 35 35 35 34 34 35
35 34 35 35 35 34 33 32 31 30 30 32 34 35 34 34
35 34 33 21 33 22 30 33 31 31 31 30 31 27 22 21
48 39 3 0 0 0 0 13 40 32 16 24 21 24 26 26
27 27 28 30 33 9 0 0 0 0 0 17 47 37 9 0
1 4 9 24 37 25 1 0 0 3 13 29 22 28 70 79
81 96 108 117 123 124 122 121 113 106 98 96 100 102 99 99
96 94 95 97 103 112 110 111 108 103 89 70 59 51 42 28
27 32 30 33 34 36 36 34 36 36 34 34 32 31 30 32
33 35 35 35 33 20 16 14 12 10 10 21 35 35 35 35
35 34 33 20 32 20 29 25 21 28 30 28 27 11 0 0
47 40 4 0 0 0 0 13 42 35 16 21 21 30 33 33
32 32 31 31 32 12 3 0 0 0 4 23 46 25 1 0
0 0 2 26 38 27 1 0 0 0 12 27 9 11 64 78
80 92 104 112 122 122 118 119 110 89 80 85 95 92 89 86
89 78 70 72 86 108 110 110 109 100 83 68 60 52 41 30
29 30 32 33 35 36 34 27 24 21 19 17 13 11 10 12
22 35 35 36 33 12 6 6 5 6 6 19 36 36 36 35
34 34 33 14 11 3 12 4 2 5 6 2 1 0 0 0
43 34 3 0 0 0 0 14 44 36 14 21 21 32 35 35
36 36 36 37 35 13 3 0 0 0 4 22 44 16 0 0
0 0 0 25 37 27 1 0 0 0 9 26 8 7 55 78
81 89 101 113 120 120 122 116 84 63 65 69 75 75 73 81
76 64 59 45 56 100 114 113 111 99 78 70 61 52 41 32
32 29 32 34 36 36 29 9 5 8 8 10 4 3 3 2
13 34 35 35 32 12 6 6 7 6 6 18 36 36 36 36
34 21 13 1 0 0 2 0 0 0 0 0 0 0 0 0
34 26 17 13 9 8 8 20 41 33 19 23 24 34 36 36
36 36 37 38 38 11 2 0 0 2 5 13 42 12 0 0
0 0 0 24 36 26 1 0 0 0 6 27 8 4 43 76
83 86 95 108 120 122 123 107 73 65 85 96 107 108 107 109
106 89 75 63 81 109 116 116 112 95 75 68 60 47 38 32
33 32 34 35 36 36 28 6 3 9 8 9 4 3 3 2
11 32 35 35 32 11 6 6 7 6 6 16 35 36 36 37
35 7 0 0 0 0 0 0 0 0 0 0 0 0 0 0
39 38 37 35 34 32 31 32 33 31 29 28 28 30 30 30
31 31 31 32 36 14 0 0 0 3 6 9 40 11 0 0
0 0 0 24 36 24 1 0 0 0 1 26 10 5 30 72
83 88 92 107 119 124 123 114 103 87 84 88 94 98 100 99
92 79 76 85 100 114 115 115 109 92 73 67 57 47 36 33
33 32 35 36 36 35 27 6 3 9 8 10 4 3 3 2
11 33 35 35 33 12 7 7 8 7 6 13 35 37 36 35
35 13 2 13 13 15 18 20 22 18 0 0 2 10 0 1
38 37 36 35 34 33 32 31 30 29 28 28 27 27 27 26
26 26 26 26 31 23 4 0 0 3 5 7 38 8 0 0
0 0 0 22 38 25 3 0 0 0 0 26 12 3 16 63
79 88 91 102 118 124 123 120 114 111 107 102 92 84 86 83
87 96 104 103 107 112 109 108 105 88 71 64 53 44 32 33
35 34 35 36 36 35 27 6 3 8 10 10 4 3 4 2
12 33 35 35 33 15 10 9 10 10 12 14 32 34 34 34
34 17 15 34 32 31 32 31 30 11 0 0 0 3 19 20
37 36 35 34 33 31 30 30 29 28 26 26 27 26 26 26
26 25 26 25 29 19 1 0 0 1 4 7 38 8 0 0
0 0 0 16 39 26 3 0 0 0 0 24 16 0 5 50
77 86 91 88 105 121 119 120 118 117 118 117 114 111 110 111
111 114 114 111 108 106 104 103 101 83 68 58 49 38 33 34
36 35 36 36 36 35 29 8 4 7 8 8 4 3 3 3
10 32 35 36 35 20 15 14 14 14 13 16 30 35 37 36
35 18 26 33 33 32 31 31 30 9 0 0 0 0 21 21
22 20 20 19 17 17 15 15 13 13 13 13 13 14 14 15
15 17 20 23 26 11 0 0 0 0 0 5 38 10 0 0
0 0 0 12 39 26 1 0 0 0 0 22 22 0 2 29
69 82 88 88 100 116 115 113 115 119 123 126 123 124 122 120
118 121 117 112 106 102 99 98 93 72 61 52 42 31 35 34
34 34 35 35 34 35 28 8 3 5 5 4 3 3 4 2
9 32 36 36 34 17 8 9 8 8 7 10 30 35 36 35
31 12 33 34 33 32 31 29 29 7 0 0 0 0 17 21
0 0 0 0 0 0 0 0 0 0 0 0 0 0 0 0
0 4 18 23 24 9 0 0 0 0 2 3 38 16 0 0
0 0 0 12 41 29 11 6 6 6 8 25 26 0 0 11
59 76 84 89 101 111 111 110 113 118 125 129 128 129 128 125
120 120 116 111 104 98 95 93 84 62 57 46 36 32 35 35
35 35 35 36 36 36 30 8 4 4 1 1 4 3 5 2
8 32 36 37 35 19 8 8 8 8 8 11 19 13 15 17
11 26 35 33 33 32 31 29 27 4 0 0 0 0 12 20
0 0 0 0 0 0 0 0 0 0 0 0 0 0 0 0
0 5 22 24 23 13 7 5 5 9 17 13 35 34 24 23
26 26 26 32 45 34 37 38 37 40 44 48 37 17 16 18
47 65 78 86 94 104 108 108 109 117 125 130 126 130 135 132
123 116 113 108 102 93 88 87 75 56 51 38 32 36 36 35
36 36 36 37 36 35 29 8 4 3 0 2 5 3 5 3
8 31 35 36 34 20 7 7 8 7 7 7 13 32 30 28
32 35 34 33 33 30 28 26 24 3 0 0 0 0 11 20
0 0 0 0 0 0 0 0 0 0 0 0 0 0 0 0
0 4 23 24 24 29 33 29 30 34 34 34 35 45 52 48
48 49 52 52 50 35 38 43 44 48 54 56 47 34 33 34
46 53 68 80 85 98 105 106 107 113 122 126 126 134 131 133
130 117 112 103 96 89 83 76 65 51 42 34 35 39 34 34
35 35 36 38 36 35 28 9 4 4 3 6 5 2 5 2
7 30 35 36 34 20 7 7 7 7 7 4 20 36 36 35
35 35 33 33 31 9 5 2 1 0 0 0 0 0 8 19
0 0 0 0 0 0 0 0 0 0 0 0 0 0 0 0
0 2 23 24 22 29 34 32 34 36 33 28 29 37 50 49
48 48 50 50 50 37 31 38 41 45 48 48 44 33 33 33
47 49 57 70 78 85 98 102 104 109 115 123 129 133 115 119
131 122 108 97 92 80 72 64 57 45 36 33 43 41 34 34
35 36 37 37 36 34 28 10 4 3 0 0 4 4 5 2
6 29 34 35 34 19 6 7 6 6 6 3 21 36 36 34
34 33 33 32 25 0 0 0 0 0 0 0 0 0 7 20
0 0 0 0 0 0 0 0 0 0 0 0 0 0 0 0
0 1 23 24 22 25 28 27 30 34 34 28 28 29 30 31
31 31 32 31 34 32 29 33 35 35 32 29 32 33 34 35
47 59 48 60 73 75 83 92 97 104 109 119 129 125 109 114
126 120 103 93 84 65 57 54 47 38 33 38 50 42 33 34
35 36 37 37 35 33 29 11 4 3 0 0 4 3 5 3
6 29 34 35 34 19 6 6 6 7 6 3 18 35 35 34
34 34 33 32 28 1 0 0 0 0 0 0 0 0 7 19
0 0 0 0 0 0 0 0 0 0 0 0 0 0 0 0
0 0 21 24 21 19 17 21 23 28 32 28 27 29 23 24
25 26 27 27 30 32 33 36 38 37 34 30 31 33 34 34
44 68 51 49 61 69 74 75 84 95 104 113 122 117 109 112
119 113 98 89 72 52 52 48 40 35 35 49 54 41 29 33
34 36 36 38 34 33 29 11 4 3 2 2 3 3 4 2
5 27 32 34 33 20 5 5 6 6 5 3 13 34 35 34
34 33 33 31 29 8 0 0 0 0 0 0 0 0 5 18
0 0 0 0 0 0 0 0 0 0 0 0 0 0 0 0
0 0 19 23 21 16 4 4 6 8 11 11 18 30 29 32
31 38 40 36 34 37 38 42 45 45 38 32 31 34 34 34
40 74 65 48 51 60 67 69 68 81 92 104 111 107 107 111
111 103 89 75 58 46 44 40 37 33 43 57 57 44 33 32
34 35 36 37 35 33 30 13 3 4 3 4 3 3 4 2
3 25 31 33 32 20 5 5 5 5 4 3 7 32 33 33
34 32 32 31 30 18 2 0 0 0 0 0 0 0 1 10
0 0 0 0 0 0 0 0 0 0 0 0 0 0 0 0
0 0 16 23 20 17 1 0 0 0 0 1 16 30 35 42
39 48 54 30 16 18 19 22 29 43 41 33 33 33 34 35
49 74 78 59 47 51 60 66 63 65 74 90 97 97 106 107
98 87 71 57 48 41 41 37 33 40 55 63 60 45 40 40
33 35 35 36 35 32 30 13 3 3 2 3 2 2 3 1
2 23 30 31 31 25 15 18 15 10 15 15 6 28 33 33
33 32 32 29 21 34 6 0 0 0 0 0 0 0 0 6
0 0 0 0 0 0 0 0 0 0 0 0 0 0 0 0
0 0 14 23 19 19 2 0 0 0 0 0 18 30 32 41
28 29 41 17 0 0 0 0 9 40 42 34 33 33 34 47
47 75 86 73 56 44 50 59 61 62 58 61 68 80 87 87
78 61 50 48 44 40 36 33 39 54 63 66 62 48 76 31
32 35 36 36 35 33 31 14 3 2 2 3 2 2 2 1
2 22 29 31 30 30 29 30 29 26 29 28 15 18 33 33
30 24 25 17 0 2 1 1 0 0 0 0 0 0 0 5
0 0 0 0 0 0 0 0 0 0 0 0 0 0 0 0
0 0 13 24 20 21 5 0 0 0 0 0 16 29 31 38
12 2 24 18 0 0 0 0 5 38 42 34 34 34 34 59
76 76 95 89 74 56 44 48 54 59 61 57 59 62 64 60
58 58 56 50 42 36 34 38 53 65 68 73 67 55 67 27
35 35 36 36 35 34 32 15 3 2 3 3 2 2 2 1
2 22 30 31 32 31 32 32 32 31 31 31 27 7 13 9
3 4 0 0 0 0 1 1 0 0 0 0 0 0 0 5
0 0 0 0 0 0 0 0 0 0 0 0 0 0 0 0
0 0 10 24 20 15 1 0 0 0 0 0 18 28 31 38
11 0 21 21 0 0 0 0 2 33 42 34 34 34 34 55
96 66 97 101 92 72 58 45 45 51 59 64 71 71 72 75
72 64 54 45 38 36 39 54 64 71 79 85 60 69 30 19
38 33 35 35 35 34 32 16 3 3 3 3 3 3 3 2
3 24 33 34 33 32 32 31 31 30 20 11 6 2 0 0
0 0 0 0 0 0 0 0 0 0 0 0 0 0 0 4
0 0 0 0 0 0 0 0 0 0 0 0 0 0 0 0
0 0 9 24 20 14 0 0 0 0 0 0 19 27 32 40
11 1 20 24 0 0 0 0 0 29 42 34 34 34 36 41
97 62 95 106 103 99 80 61 48 45 48 58 64 69 68 68
62 54 45 40 39 45 58 65 75 89 97 82 69 78 18 18
41 33 34 36 35 34 32 18 5 5 4 3 3 3 3 3
11 27 34 34 34 32 32 31 30 29 6 0 0 0 34 22
0 0 0 0 0 0 12 6 1 0 0 0 0 0 0 0
0 0 0 0 0 0 0 0 0 0 0 0 0 0 0 0
0 0 7 24 20 14 0 0 0 0 0 0 18 27 31 39
12 1 18 25 0 0 0 0 0 27 42 34 34 34 40 37
60 87 68 105 109 109 111 90 72 57 48 47 50 54 54 51
49 44 43 44 54 64 75 87 100 108 100 70 92 66 9 29
33 32 34 35 36 34 33 28 22 20 16 15 15 10 4 13
22 30 35 35 34 32 31 31 30 29 4 0 0 21 86 94
13 0 0 0 0 0 5 5 0 0 0 0 0 0 0 0
0 0 0 0 0 0 0 0 0 0 0 0 0 0 0 0
0 0 6 24 20 15 0 0 0 0 0 0 15 28 31 39
13 2 16 27 4 0 0 1 0 25 42 33 33 33 42 40
28 100 79 77 110 113 117 112 107 91 76 59 50 45 46 45
45 47 56 73 83 92 103 113 112 108 84 78 71 38 13 26
31 28 33 35 35 34 32 32 30 27 24 22 21 12 0 16
26 32 35 35 34 32 31 30 22 11 1 0 0 6 21 23
3 0 0 0 1 1 2 1 1 0 0 0 0 0 0 0
0 0 0 0 0 0 0 0 0 0 0 0 0 0 0 0
0 0 5 23 20 15 1 0 0 0 4 0 12 30 32 40
23 7 14 28 6 4 4 2 0 23 41 33 33 33 39 46
17 54 111 94 82 115 118 118 117 115 111 106 97 88 86 85
94 100 105 111 111 113 118 116 113 97 64 78 80 15 28 28
30 28 31 35 36 34 32 32 30 28 25 24 23 15 0 19
28 32 34 34 33 32 31 30 16 0 1 0 0 1 0 1
2 2 3 3 4 4 4 4 3 1 0 0 0 0 0 1
0 0 0 0 0 0 0 0 0 0 0 0 0 0 0 0
0 0 4 22 21 16 3 0 0 0 9 8 11 33 33 40
25 16 13 27 4 10 9 2 0 19 40 33 33 34 41 49
30 24 86 115 85 85 116 123 121 120 120 119 116 118 118 117
119 118 113 119 123 121 120 118 101 68 27 10 69 12 30 30
29 42 48 58 48 35 33 32 31 29 26 26 26 18 1 19
29 31 33 33 32 31 31 30 18 0 1 1 0 0 0 0
0 0 1 1 1 1 1 0 0 0 0 0 0 0 15 28
0 0 0 0 0 0 0 0 0 0 0 0 0 0 0 0
0 0 4 22 20 17 11 12 11 13 20 23 25 39 35 40
20 24 16 28 9 14 13 9 8 21 34 32 33 29 40 43
39 28 37 94 96 83 80 114 126 128 127 123 121 122 124 123
122 122 123 125 124 122 121 108 73 56 15 0 38 17 29 26
21 32 53 64 51 47 36 33 32 47 33 28 27 20 1 19
28 29 31 32 31 30 30 30 21 3 0 0 0 0 0 0
0 0 0 0 0 0 0 0 0 0 0 0 0 0 31 35
0 0 0 0 0 0 0 0 0 0 0 0 0 0 0 0
0 0 3 22 20 18 28 35 36 38 40 41 44 47 39 40
12 20 19 32 25 25 25 24 24 25 27 30 38 44 44 37
47 32 18 64 19 67 73 79 112 127 130 130 128 127 131 126
125 128 127 126 125 124 112 75 64 38 4 0 29 29 23 22
11 17 44 54 43 42 46 28 26 37 39 22 26 25 3 20
29 29 31 30 30 29 30 29 28 11 0 0 0 0 0 0
0 0 0 0 0 0 0 0 0 0 0 0 0 6 33 33
0 0 0 0 0 0 0 0 0 0 0 0 0 0 0 0
0 0 3 22 20 19 33 40 41 42 43 44 46 49 43 39
9 7 14 32 26 27 28 27 27 27 27 28 52 56 47 32
42 49 20 33 2 43 73 73 88 118 130 131 130 132 131 129
130 132 130 131 128 120 86 69 44 12 1 0 33 25 10 28
9 3 25 62 47 40 37 70 63 43 31 33 53 62 31 30
31 30 30 30 30 29 30 30 25 1 0 0 0 0 0 0
0 0 0 0 0 0 0 0 0 0 0 0 0 10 22 21
0 0 0 0 0 0 0 0 0 0 0 0 0 0 0 0
0 0 2 21 19 17 24 26 25 25 26 25 25 24 29 36
9 3 10 32 29 31 32 32 35 40 57 55 59 65 48 31
27 59 35 33 0 13 55 79 76 94 125 136 137 138 138 135
135 133 134 131 122 104 60 37 19 10 9 6 44 17 26 52
29 18 36 40 32 19 22 54 70 54 39 69 98 106 96 96
60 35 33 30 30 30 30 30 25 1 0 0 0 0 0 0
0 0 0 0 0 0 0 0 0 0 0 0 0 2 2 0
0 0 0 0 0 0 0 0 0 0 0 0 0 0 0 0
0 0 2 21 20 16 7 2 3 4 5 7 8 9 20 36
11 1 8 32 30 37 46 46 53 59 57 56 59 72 45 37
18 41 46 43 3 5 43 79 75 82 103 133 137 140 141 141
138 132 128 123 104 95 40 15 27 23 4 49 35 35 47 50
37 24 43 63 58 38 33 34 68 62 40 50 89 75 73 76
75 72 76 59 40 33 31 29 17 0 0 0 0 0 0 0
0 0 0 0 0 0 0 0 0 0 0 0 0 0 0 0
0 0 0 0 0 0 0 0 0 0 0 0 0 0 0 0
0 0 2 21 20 16 8 4 4 5 6 8 10 10 20 36
15 7 12 33 36 57 49 25 47 48 44 48 54 43 19 21
17 29 38 57 14 27 53 56 77 82 89 115 134 138 144 144
141 140 136 114 106 71 37 19 27 19 41 58 22 33 50 59
58 22 26 46 58 48 40 29 43 34 17 16 62 86 92 98
99 85 74 77 43 28 38 41 33 9 0 0 0 0 0 0
0 0 0 0 0 0 0 0 0 0 0 0 0 0 0 0
0 0 0 0 0 0 0 0 0 0 0 0 0 0 0 0
0 0 2 21 20 16 12 9 10 9 10 11 12 11 23 39
30 36 38 25 22 36 36 52 59 50 48 34 50 49 32 40
35 35 25 52 23 15 72 62 85 103 91 100 129 140 143 145
144 145 144 143 103 36 23 24 22 33 56 35 44 58 79 103
85 40 46 63 49 23 25 28 63 58 29 24 71 107 108 117
109 91 74 93 78 31 28 48 43 27 19 14 0 0 0 0
0 0 0 0 0 0 0 0 0 0 0 0 0 0 0 0
0 0 0 0 0 0 0 0 0 0 0 0 0 0 0 0
0 1 5 24 20 15 12 11 12 13 13 14 14 12 22 36
32 44 51 51 45 41 49 53 33 19 22 39 78 66 38 59
89 35 24 32 49 11 10 27 49 110 129 134 145 146 146 146
145 145 144 143 63 16 17 23 10 61 26 33 55 67 82 79
60 24 39 72 73 46 40 33 50 55 42 32 47 89 87 87
89 95 93 82 83 31 28 43 56 44 30 34 23 1 0 0
0 0 0 0 0 0 0 0 0 0 0 1 3 0 0 0
1 2 3 3 4 4 5 6 7 8 8 9 10 11 12 13
14 14 16 19 18 16 13 12 12 13 15 15 16 14 19 29
34 50 104 119 115 69 28 52 38 29 37 59 67 45 18 58
97 75 43 24 38 39 7 16 29 64 128 136 144 146 145 145
146 145 145 128 51 14 21 12 39 43 47 50 72 80 85 76
61 13 16 38 56 42 34 29 54 64 47 25 39 107 107 109
118 116 109 95 100 57 33 43 60 53 29 24 29 22 3 0
0 0 0 0 0 0 0 0 0 0 0 9 8 0 0 0
23 23 23 22 21 20 20 19 19 18 18 18 17 16 16 17
16 15 16 16 16 16 13 12 13 13 15 20 37 49 46 55
77 81 83 91 99 63 33 72 48 47 44 49 67 51 32 87
118 109 82 34 27 51 13 12 21 37 59 114 141 147 146 146
146 146 136 78 48 23 25 17 56 57 69 97 108 112 110 110
91 23 17 34 39 23 21 18 35 66 61 34 36 81 86 93
112 108 85 72 74 64 34 34 61 72 43 38 38 33 42 14
0 0 0 0 0 0 0 0 0 0 0 20 8 0 0 0
28 29 28 25 23 22 21 20 19 18 18 17 17 17 16 16
16 16 16 15 16 15 14 14 14 14 21 43 42 75 88 94
96 98 79 81 83 35 32 53 33 36 34 70 82 61 36 80
101 103 90 45 51 59 26 11 20 26 28 39 61 115 146 146
145 142 77 48 44 45 38 48 67 74 123 124 127 126 127 126
109 47 49 74 73 41 38 42 24 44 45 19 14 45 75 78
79 77 73 79 75 49 12 12 38 41 26 17 17 18 28 21
10 0 0 0 0 0 0 0 0 0 0 26 4 0 0 0
27 27 26 25 24 22 21 20 20 19 19 18 18 16 16 15
15 14 14 14 13 14 15 15 22 37 47 35 41 91 94 106
113 110 102 102 104 45 59 67 36 39 49 66 68 46 20 66
88 90 96 83 80 61 42 22 50 41 23 28 39 64 88 141
145 124 64 32 28 47 52 68 76 86 110 103 111 114 109 113
92 28 35 68 83 69 57 50 43 62 64 33 23 56 109 105
97 88 95 121 122 98 28 17 37 43 35 27 35 34 33 24
24 11 0 0 0 0 0 0 0 0 0 19 0 0 0 0
27 26 24 23 20 19 17 15 14 12 10 8 6 5 4 5
9 8 12 13 12 13 21 51 55 46 42 30 57 93 95 98
91 84 107 120 105 32 62 52 48 46 32 42 45 36 16 65
106 112 119 124 111 80 64 51 74 88 77 53 47 29 77 91
103 98 55 43 55 66 61 79 115 132 136 139 142 142 139 137
113 52 51 78 83 59 47 53 46 62 77 60 46 57 109 120
126 122 124 129 111 105 62 48 68 82 70 56 54 40 16 22
32 70 4 0 0 0 0 0 0 0 0 2 0 0 0 0
9 8 7 8 8 7 6 4 4 3 1 1 1 0 0 1
7 9 11 12 14 28 47 38 47 68 63 42 75 119 118 117
119 97 90 105 80 36 50 28 26 25 24 43 53 42 33 89
137 136 140 139 131 77 79 46 39 81 75 51 41 59 60 84
68 82 48 38 82 93 54 71 137 142 140 143 144 142 141 138
118 63 58 83 95 76 66 68 61 62 77 60 38 53 113 108
115 111 104 118 124 134 94 36 49 72 59 36 35 40 17 4
22 84 31 0 0 0 0 0 0 0 0 0 0 0 0 0
0 1 2 8 19 21 22 20 22 23 21 21 20 7 0 0
6 9 9 12 28 41 30 28 28 60 73 36 75 96 100 117
121 112 122 123 86 38 69 32 20 26 37 75 92 77 48 76
121 117 118 117 118 115 102 80 67 94 88 62 70 77 60 60
84 64 35 51 97 85 54 69 140 142 143 142 142 141 142 141
123 54 51 83 100 83 65 61 60 70 95 81 53 63 117 125
133 134 133 137 140 137 116 58 62 88 85 61 62 57 29 8
41 92 55 19 0 0 0 0 0 0 0 0 0 0 0 0
8 11 13 20 42 42 40 38 36 32 30 31 33 21 1 2
6 9 14 37 50 44 39 37 38 54 56 32 78 85 77 96
103 105 111 111 56 53 89 60 46 57 66 77 78 59 34 70
143 145 146 145 144 144 140 133 75 80 105 87 69 73 62 63
60 32 38 77 104 88 56 71 141 143 142 143 142 141 142 139
128 64 56 82 100 85 59 60 62 69 95 86 48 61 107 124
134 136 137 135 140 136 125 57 49 89 92 66 63 56 39 19
74 119 84 73 41 0 0 0 0 0 0 0 0 0 0 0
8 12 14 18 42 39 39 37 35 32 31 38 41 34 13 9
8 14 43 46 53 33 21 29 37 67 64 41 90 84 75 89
84 81 86 98 52 61 68 55 51 49 47 86 99 83 57 79
145 145 144 145 144 141 143 144 101 59 102 100 73 65 55 74
49 33 59 94 103 85 55 66 142 143 143 143 142 141 141 138
126 62 58 80 100 87 59 63 65 71 94 89 55 58 99 126
129 134 134 132 138 140 133 61 56 79 92 80 60 53 45 37
87 112 96 55 71 31 0 0 0 0 0 0 0 0 0 0
22 29 28 26 39 46 46 43 41 40 38 36 35 30 16 13
20 47 29 40 50 24 11 12 21 55 47 55 110 117 118 116
117 121 126 129 70 75 90 70 65 66 74 95 98 80 54 73
142 145 144 144 144 144 144 140 118 46 85 107 85 66 58 57
33 50 68 92 98 81 56 74 141 141 142 142 142 141 139 140
126 58 56 76 100 93 64 65 63 67 92 87 58 52 87 123
130 132 135 132 137 140 135 69 54 70 88 80 62 57 49 46
120 128 96 81 66 54 9 0 0 0 0 0 0 0 0 0
24 28 26 25 30 36 34 30 28 26 25 23 21 19 10 15
38 75 39 35 68 56 27 12 21 44 36 35 94 126 129 121
112 119 121 111 59 85 91 80 74 67 70 93 97 79 55 71
142 145 145 144 144 144 143 141 124 54 60 105 99 64 72 52
47 67 77 102 97 78 59 83 142 141 141 141 142 142 141 140
129 57 49 75 92 86 66 64 65 67 85 93 69 52 75 127
133 136 134 132 133 139 136 75 51 72 90 80 61 56 54 65
132 132 102 90 94 90 83 1 0 0 0 0 0 0 0 0
29 29 28 26 25 23 22 21 21 20 20 20 19 17 15 43
83 100 41 55 72 59 41 38 41 65 51 64 126 127 131 137
136 141 142 131 56 86 90 79 68 67 64 92 100 83 54 69
141 145 144 142 144 143 143 143 129 62 55 95 103 71 78 50
67 57 82 105 102 76 59 86 143 140 141 141 142 143 142 142
134 60 51 76 94 83 68 62 64 66 87 97 75 52 63 126
135 138 136 135 135 141 140 73 45 66 90 87 60 66 58 84
133 128 108 110 92 104 132 27 0 0 0 0 0 0 0 0
24 21 18 14 11 8 5 3 14 21 21 21 20 25 44 75
95 89 53 60 68 30 26 50 56 80 47 69 142 146 140 140
141 141 143 127 48 89 87 77 70 67 63 92 101 87 57 73
140 144 144 143 144 144 143 143 133 64 57 84 103 78 81 43
80 54 82 107 104 71 59 84 144 142 142 142 143 142 142 140
136 64 59 73 98 87 64 68 66 67 89 95 79 59 63 128
137 140 136 135 134 140 139 84 47 55 89 91 65 63 58 80
128 125 112 112 110 103 130 67 0 0 0 0 0 0 0 0
2 0 0 0 0 0 0 0 11 22 20 20 24 39 53 88
98 105 57 62 64 46 45 35 62 86 38 77 146 142 137 139
143 145 146 122 56 92 89 78 69 65 65 93 103 91 57 72
139 145 144 144 145 144 143 142 135 64 57 81 94 73 81 44
64 46 83 105 98 67 62 83 144 143 143 142 142 142 142 142
139 67 59 74 97 88 66 71 68 68 88 93 78 53 62 126
137 139 138 136 133 140 139 96 41 59 88 90 68 62 58 71
129 128 119 110 109 106 120 99 3 0 0 0 0 0 0 0
1 2 3 5 7 8 10 13 18 21 21 23 42 56 93 100
99 80 53 52 46 49 69 67 85 83 34 93 147 141 141 139
144 145 141 111 59 92 95 79 67 64 66 95 103 93 58 74
140 145 144 144 142 143 142 143 139 69 61 78 85 78 92 49
66 69 84 102 97 64 57 86 145 143 143 143 143 143 143 142
139 69 59 71 102 96 66 72 68 65 85 91 80 56 61 124
136 137 138 133 130 140 140 108 43 54 84 91 74 57 59 66
129 130 121 112 113 110 102 116 17 0 0 0 0 0 0 0
22 23 24 24 24 24 24 23 24 25 26 43 81 88 97 93
75 77 69 50 39 50 66 68 96 81 37 105 145 143 142 138
144 144 143 109 59 91 92 77 70 72 73 94 104 89 60 71
138 145 145 145 144 144 143 144 140 73 60 79 85 74 82 44
64 68 83 108 99 69 56 81 142 136 136 130 127 121 123 121
123 49 31 46 77 76 48 45 50 51 69 83 80 59 54 116
138 139 140 135 126 138 140 120 51 54 87 92 79 57 53 62
125 133 123 115 96 111 94 121 38 2 0 0 0 0 0 0
31 30 32 31 31 30 30 29 31 28 28 78 117 106 91 84
115 109 68 42 34 48 57 83 99 78 37 108 147 141 142 139
146 146 145 108 59 92 97 78 73 70 69 90 100 83 59 67
138 145 145 144 144 143 144 144 140 73 57 87 81 63 60 31
58 58 65 92 80 39 28 55 119 120 120 118 124 125 134 130
126 59 54 60 95 93 56 52 49 50 63 66 60 32 29 87
109 113 113 114 118 137 136 121 55 52 87 82 66 48 55 58
117 129 127 118 55 100 91 122 53 21 0 0 0 0 0 0
31 31 33 29 27 27 25 26 29 29 44 116 128 76 80 113
117 100 78 36 26 52 59 87 99 74 49 103 146 139 142 144
145 143 143 105 55 91 91 69 68 66 70 93 102 83 61 66
139 145 145 145 145 143 143 144 135 52 35 61 55 85 79 47
40 49 60 86 85 65 47 76 144 138 138 139 139 136 139 135
130 69 53 55 93 98 58 54 60 55 71 80 77 51 53 101
126 133 126 124 107 110 115 101 29 24 53 74 66 35 28 37
104 128 122 108 53 43 89 118 73 26 12 0 0 0 0 0
28 30 34 32 32 32 33 33 33 34 87 121 129 77 96 110
103 120 106 40 28 56 57 83 97 67 55 100 142 142 140 144
143 141 142 98 53 88 91 72 64 64 68 91 96 84 61 67
137 141 131 109 109 108 111 115 118 43 39 82 79 87 78 54
56 63 70 97 91 66 44 61 131 123 121 117 112 108 115 108
106 52 23 27 56 65 36 31 34 35 53 63 53 33 35 83
125 130 126 127 122 132 127 117 49 52 71 87 72 49 52 47
99 127 125 117 80 37 74 109 93 19 34 1 0 0 0 0
37 37 37 37 37 37 36 35 34 37 116 120 122 86 73 75
128 125 125 62 35 51 56 86 96 62 57 95 139 145 142 145
143 144 144 89 39 84 92 78 64 59 57 73 70 50 31 37
107 117 132 135 139 136 136 135 133 56 52 77 72 55 50 31
45 50 48 80 70 29 15 29 99 103 98 94 92 97 100 87
84 41 11 15 39 54 29 22 20 19 38 56 42 14 13 46
85 89 88 89 95 111 107 110 42 44 55 63 48 29 43 48
106 130 126 99 85 43 67 100 104 20 34 18 0 0 0 0
42 42 39 40 39 39 37 37 36 64 89 101 109 74 62 60
101 123 129 88 40 46 58 90 92 54 54 88 140 146 143 145
143 145 145 74 41 68 64 42 36 39 44 78 93 72 51 61
130 138 140 135 133 125 129 131 121 38 25 43 43 57 43 20
20 26 33 59 54 29 16 25 95 97 103 95 92 94 97 92
89 42 10 16 40 49 30 21 20 19 40 60 48 16 12 40
91 90 89 87 89 86 85 76 19 13 35 48 39 13 17 22
76 108 110 59 83 50 70 93 111 32 26 39 1 0 0 0
39 40 37 40 38 39 37 37 52 116 109 118 88 43 43 58
69 106 133 109 45 46 60 93 86 51 54 91 135 123 120 128
118 121 116 62 53 89 88 67 60 61 66 83 93 71 42 50
124 122 120 108 102 89 98 93 87 17 13 35 38 55 42 21
20 25 30 55 58 32 19 31 109 108 116 118 119 124 120 120
118 77 42 48 75 76 59 47 45 41 52 76 69 35 25 47
90 102 91 94 89 89 88 74 18 11 35 45 30 12 18 21
89 113 78 52 58 56 72 86 108 36 15 24 13 0 0 0
