P2
128 120
156
52 51 50 49 48 48 47 46 45 44 43 42 41 40 40 39
39 38 37 36 35 34 34 33 32 31 30 29 29 27 27 26
26 26 25 10 0 0 0 0 0 0 0 0 0 0 0 7
13 8 3 0 0 0 0 0 0 0 0 0 0 0 3 0
0 0 0 0 0 0 0 0 0 0 0 0 0 0 0 1
1 4 9 16 21 24 24 25 25 26 26 27 27 28 29 29
30 30 31 32 33 34 35 35 36 37 38 39 40 40 40 40
41 41 42 43 45 46 46 47 48 47 48 49 49 49 49 50
52 50 50 49 48 48 47 45 45 44 43 42 42 41 41 39
39 38 37 36 35 34 34 33 32 31 31 30 30 28 28 27
26 26 26 21 8 0 0 0 0 0 0 2 7 8 2 16
22 19 16 11 5 0 0 0 0 0 0 0 0 0 4 0
0 0 0 0 0 0 0 0 0 0 0 0 0 3 8 14
19 24 24 25 25 25 26 27 27 27 28 29 30 30 31 32
33 34 34 35 35 37 37 38 39 39 40 40 40 40 42 44
45 45 46 47 47 48 48 49 49 49 49 50 49 50 51 51
51 51 50 49 48 47 47 46 45 44 43 42 41 41 40 39
38 37 37 36 36 34 34 33 32 32 31 30 30 28 28 28
27 26 26 25 19 12 6 1 0 3 10 15 17 14 5 18
23 20 18 17 16 12 6 1 0 0 0 0 0 0 0 0
0 0 0 0 0 0 0 0 0 1 3 9 16 21 24 24
25 26 25 26 27 28 28 28 30 30 31 32 32 33 34 34
35 36 36 38 39 39 40 40 40 41 41 43 44 45 46 45
47 47 48 48 49 48 49 49 49 50 49 51 51 50 51 51
52 52 51 50 48 47 47 47 46 45 44 43 42 41 41 40
39 38 37 37 35 35 34 33 33 32 32 31 30 29 29 28
28 27 27 25 21 17 15 14 11 14 18 21 23 18 7 20
24 22 21 19 18 17 15 12 5 0 0 0 0 0 0 0
0 0 0 0 0 0 2 7 13 17 21 23 23 24 25 26
27 27 28 29 29 31 31 31 31 32 33 34 34 35 37 37
38 39 39 40 40 40 41 42 44 44 45 46 47 47 47 48
48 48 50 50 50 50 50 50 50 49 50 50 51 51 52 51
52 50 50 49 49 48 47 47 45 45 45 43 43 42 41 40
39 38 38 37 36 36 35 34 33 32 33 31 30 29 29 28
28 26 26 25 23 20 17 15 16 21 23 24 24 20 11 18
27 26 23 22 20 19 18 15 12 9 7 0 0 0 1 3
0 0 0 3 9 15 20 23 24 24 24 25 26 27 28 28
28 29 30 30 31 31 32 33 34 35 36 37 37 38 38 38
39 39 40 41 42 43 43 44 46 45 46 47 47 48 48 49
49 50 50 50 50 50 50 50 49 50 51 51 51 51 51 50
52 52 50 50 49 48 47 47 46 45 44 43 43 42 42 41
41 40 39 38 37 36 36 35 34 33 33 32 32 31 30 29
28 28 28 27 24 21 20 18 17 21 24 25 25 23 16 22
32 30 27 26 24 21 20 18 15 13 10 9 10 16 17 18
6 8 16 21 24 24 24 25 26 26 27 28 29 29 30 30
31 32 32 33 34 34 35 35 36 37 37 37 38 38 39 41
42 42 43 44 45 46 46 46 47 47 48 47 49 49 49 49
50 50 50 50 51 50 50 50 50 51 51 51 52 52 52 51
53 52 51 50 50 49 49 48 47 46 45 44 43 43 42 41
40 40 38 38 38 37 36 36 35 34 34 33 32 31 30 30
30 29 28 27 26 24 22 20 19 23 26 27 29 26 20 25
34 31 28 26 26 24 23 20 17 16 14 13 19 22 20 20
18 22 24 25 26 27 28 28 28 29 29 30 31 32 32 32
32 34 33 35 35 36 37 37 38 39 39 40 40 42 43 43
44 44 45 45 46 47 47 48 49 49 48 49 50 49 49 50
50 50 50 50 51 50 50 51 51 51 52 52 52 52 52 52
54 53 52 51 51 50 49 48 47 47 46 45 45 43 43 42
42 40 39 39 38 37 37 36 36 35 34 34 33 33 32 31
31 31 29 29 28 26 24 22 22 26 30 31 32 29 21 25
36 32 30 28 27 26 25 23 20 19 18 15 18 22 22 21
24 26 27 28 29 30 30 31 31 31 31 32 32 33 34 35
35 36 37 37 37 38 38 38 39 40 40 42 43 44 44 44
46 46 47 48 48 49 49 50 50 51 50 50 51 51 51 51
51 51 51 51 52 51 52 52 51 51 52 53 53 53 54 53
54 53 53 52 51 50 50 49 49 48 47 46 45 44 43 43
42 41 40 40 39 39 39 37 37 36 36 35 34 33 32 32
31 31 30 30 29 27 26 25 25 29 33 34 35 30 20 24
37 34 30 29 27 27 26 24 22 24 22 16 17 23 22 23
26 28 28 29 30 31 32 32 32 33 34 33 34 35 36 37
37 36 37 37 38 38 39 40 41 43 42 43 44 45 45 45
46 46 47 48 48 49 49 50 50 51 50 51 51 52 51 52
51 51 52 52 51 51 52 52 52 52 53 54 53 51 50 51
54 53 52 52 51 50 49 48 48 47 46 46 45 44 44 43
43 42 41 40 40 39 38 38 37 36 36 35 34 34 33 33
32 32 31 30 30 29 27 26 26 31 34 35 36 32 22 23
38 34 32 31 30 28 28 25 24 25 24 19 16 25 21 25
27 30 30 31 32 32 33 33 33 34 34 34 35 36 36 37
37 38 38 39 40 40 40 42 42 44 42 43 44 45 46 46
47 47 48 48 48 50 50 50 50 51 50 50 50 50 51 50
51 51 52 52 52 53 53 52 51 51 51 51 52 52 52 53
54 52 52 52 51 50 49 49 48 48 46 45 45 44 44 43
42 42 40 40 39 39 38 38 37 37 36 36 35 34 34 33
32 32 31 31 30 30 29 28 28 33 35 37 37 32 23 22
38 34 32 31 30 29 28 26 25 26 25 21 17 25 24 26
29 31 31 32 33 34 34 34 35 35 35 35 36 36 36 37
38 38 38 39 40 40 41 42 43 45 44 45 45 46 46 47
47 47 48 48 49 48 49 49 50 52 50 50 51 51 51 52
51 51 51 51 51 50 50 51 52 52 51 52 52 52 52 52
53 53 53 52 51 50 49 48 48 47 47 46 45 45 44 44
43 43 41 40 40 39 39 38 37 37 36 35 35 34 34 34
33 33 32 32 31 30 30 30 31 33 37 37 37 33 24 22
39 35 33 32 32 31 29 27 27 26 26 23 18 24 25 29
30 32 33 34 34 35 35 35 35 36 36 36 37 38 38 38
39 39 40 41 41 41 42 42 43 45 43 44 46 46 47 47
47 47 48 49 49 50 50 50 50 52 50 51 51 51 51 50
49 50 51 53 53 52 53 53 52 52 52 53 53 52 51 52
53 52 52 51 51 50 49 48 48 48 47 46 46 45 44 44
43 42 41 41 40 39 39 38 38 37 37 36 35 35 35 34
34 33 33 32 31 31 31 31 32 35 38 38 39 34 26 22
38 36 33 33 32 31 30 28 29 28 28 25 20 26 27 30
33 33 34 34 34 34 36 36 36 36 37 37 38 38 39 39
40 40 41 40 41 42 42 43 43 46 45 45 46 46 47 48
48 48 48 48 50 49 49 50 50 51 49 49 49 50 50 52
52 52 52 52 52 52 52 52 52 52 52 52 52 52 51 52
53 52 51 51 51 50 49 48 48 47 47 46 45 45 45 44
44 43 42 41 40 40 39 38 39 37 37 36 36 35 35 33
34 33 33 32 32 31 31 31 32 35 38 38 39 34 26 22
38 37 34 34 33 32 32 31 30 28 27 25 20 26 28 31
32 33 33 34 35 36 37 37 37 37 38 37 38 38 39 39
39 40 40 40 41 42 43 43 44 46 45 46 46 47 47 48
47 47 49 49 49 49 49 48 48 48 49 50 51 51 50 51
51 51 51 52 52 51 52 53 52 52 52 51 52 52 50 51
53 52 52 52 50 50 50 48 48 47 47 46 46 45 45 44
43 42 42 40 40 40 39 38 38 37 38 37 36 36 35 35
34 33 33 33 32 32 31 32 32 37 39 39 39 35 28 23
37 37 34 34 33 33 31 30 30 28 28 27 24 27 29 32
34 34 35 35 35 36 37 37 37 38 37 38 38 39 39 40
40 40 40 40 41 42 42 43 44 45 45 46 47 48 48 47
47 45 47 47 47 48 50 50 50 49 50 51 51 51 50 51
51 52 51 52 52 52 52 51 52 52 51 51 51 52 52 51
53 53 52 51 51 50 49 49 49 48 47 46 46 45 45 44
43 43 42 42 41 40 39 39 38 38 37 37 36 36 35 35
34 34 33 33 33 32 32 33 33 37 40 40 40 36 29 24
35 37 34 34 33 33 32 31 31 29 29 28 25 29 31 33
34 36 35 36 37 37 38 38 38 38 39 39 40 40 39 40
41 40 41 41 42 43 43 44 45 46 46 46 46 46 46 45
47 47 48 49 50 50 50 50 50 51 51 51 51 50 51 51
51 51 51 52 52 52 52 51 52 52 52 51 51 52 52 51
53 52 52 51 50 50 49 49 49 48 47 47 46 45 45 44
43 43 42 41 41 41 40 39 39 38 37 38 37 36 36 35
34 34 33 32 33 31 31 33 33 38 40 40 41 36 30 23
33 38 33 33 34 33 32 32 31 30 29 29 26 30 33 35
36 35 36 35 37 38 37 37 38 38 39 39 39 40 41 41
41 41 42 42 43 43 43 44 44 45 44 44 44 45 47 48
47 50 48 49 49 50 50 50 49 49 50 51 51 51 51 51
51 51 51 51 52 52 52 52 52 52 51 52 52 51 51 51
53 52 52 52 50 50 50 49 48 47 47 46 46 45 45 44
44 43 43 42 42 42 41 40 39 39 38 37 36 36 36 36
34 34 34 33 33 33 32 33 34 38 41 40 41 36 31 18
26 38 36 35 35 34 33 33 32 31 31 30 26 32 33 35
36 36 37 37 38 37 38 39 38 39 40 39 39 40 41 41
41 42 42 42 43 43 42 42 42 44 46 47 47 47 48 49
48 49 49 50 50 49 51 50 50 50 51 51 51 51 50 50
50 50 51 51 51 51 51 52 52 52 52 51 52 51 51 51
53 52 52 52 50 49 49 49 48 48 48 47 46 45 45 45
44 43 43 42 41 41 40 40 39 39 38 38 38 36 36 36
35 34 34 34 33 33 33 34 34 38 42 42 41 38 29 22
31 40 36 36 36 34 33 34 32 32 32 31 28 33 35 36
37 37 38 38 38 38 39 39 38 39 40 40 41 41 41 41
42 43 42 41 42 43 43 45 46 45 46 46 47 48 48 49
49 50 50 50 50 50 51 51 50 50 50 50 50 50 51 51
51 51 51 51 51 51 51 51 51 51 52 51 51 51 52 51
53 52 52 51 51 50 51 49 49 49 48 47 47 46 45 45
44 43 43 42 42 42 41 40 39 39 39 38 38 37 36 36
35 34 35 34 34 34 34 34 36 39 42 43 42 38 29 29
30 40 37 37 36 36 34 35 33 33 32 31 28 34 35 37
37 37 38 38 39 38 40 39 40 40 41 41 41 41 41 41
42 42 43 43 43 45 45 45 46 46 47 48 48 48 48 49
49 50 50 50 50 50 51 50 51 50 50 51 51 50 51 52
51 51 51 51 51 51 52 52 52 52 52 53 52 51 50 49
53 52 52 51 51 50 50 49 49 49 48 48 47 46 46 46
45 44 44 43 42 42 42 41 40 39 39 38 38 38 37 36
36 36 35 35 35 34 34 34 36 39 42 42 42 39 30 31
30 40 38 38 36 36 35 35 35 33 33 32 29 35 35 38
38 38 39 39 39 39 40 39 40 40 40 40 41 41 42 43
43 44 44 44 44 45 45 45 46 47 47 47 48 48 49 49
49 51 50 50 50 51 51 51 50 51 51 51 51 51 50 51
51 51 52 52 53 53 53 53 52 50 51 50 50 52 52 53
52 52 52 51 51 50 50 50 49 49 48 47 47 46 46 45
44 44 43 43 42 42 42 41 40 40 39 39 38 37 37 37
36 35 35 35 35 35 34 35 36 40 42 43 42 38 30 32
29 39 37 37 36 36 35 35 35 33 34 33 30 35 36 38
38 38 39 39 39 39 39 39 39 40 41 41 42 42 42 43
43 43 44 43 44 44 45 45 47 47 47 48 48 49 49 50
49 50 51 50 50 50 50 51 51 50 50 50 51 51 51 51
52 52 52 52 52 51 51 51 51 52 52 52 52 52 51 51
53 52 52 51 51 50 50 49 49 48 48 48 48 47 46 45
45 45 44 43 43 43 42 41 40 40 39 39 39 38 38 37
37 36 36 36 35 35 34 35 36 39 43 43 43 40 31 33
30 39 39 37 36 36 34 34 35 32 33 33 30 35 36 38
39 38 39 39 40 39 41 41 40 41 41 41 42 43 43 43
44 44 45 45 44 45 46 46 46 46 47 48 49 49 49 50
50 51 51 50 51 51 51 51 51 51 50 51 51 51 51 51
51 50 50 51 51 52 52 51 51 51 52 51 51 51 51 50
52 52 52 52 51 51 50 50 50 49 49 48 47 47 46 46
45 45 44 44 43 43 42 42 42 40 40 40 39 39 38 38
38 37 36 36 35 35 35 35 37 40 43 44 43 40 31 33
30 38 35 32 30 26 21 25 29 29 29 31 29 35 34 38
38 38 39 40 40 41 41 42 42 41 42 42 43 43 43 44
44 44 45 45 45 45 46 47 48 47 48 48 49 49 50 50
50 51 51 50 51 51 51 51 52 51 51 50 51 52 52 52
52 52 52 51 51 51 51 51 52 51 52 51 51 52 51 50
52 52 52 51 51 51 50 49 49 49 48 48 47 47 47 46
46 45 44 44 43 43 42 41 41 40 40 40 40 39 38 38
38 37 37 36 36 36 35 36 36 40 44 43 42 40 29 27
28 27 24 18 19 16 18 23 26 23 24 23 22 28 32 37
38 40 40 41 41 41 42 42 42 41 42 42 42 43 44 44
44 44 45 45 46 46 46 47 47 47 48 48 48 49 50 50
50 51 52 51 51 51 51 49 50 50 49 51 51 51 51 51
51 51 51 51 50 51 50 51 51 51 51 51 51 50 50 50
52 52 52 51 51 50 50 50 50 49 49 48 48 47 47 46
45 45 44 44 43 43 42 42 42 42 41 40 40 40 39 38
38 37 37 36 35 36 36 36 38 41 44 43 41 33 21 21
20 17 12 17 16 13 17 17 19 16 17 17 20 23 19 25
36 40 41 41 41 41 41 42 42 42 42 43 43 43 44 44
44 45 45 45 45 45 47 47 47 48 49 49 49 50 51 50
49 49 50 49 48 49 50 52 52 52 51 51 51 51 52 52
51 51 51 51 51 50 50 50 51 52 51 51 51 50 51 51
52 52 52 51 51 51 50 50 50 48 49 48 47 47 47 46
46 45 45 44 44 43 43 42 42 41 40 40 40 39 39 38
38 37 37 37 36 36 36 36 37 40 44 39 31 23 14 14
13 10 10 13 10 12 12 12 12 9 11 12 13 14 18 27
32 38 40 41 41 42 42 42 42 42 42 42 42 43 43 44
45 45 46 45 46 46 47 47 47 48 49 48 48 48 48 48
48 49 50 51 51 51 51 51 52 52 53 51 51 50 51 51
51 51 51 51 51 51 51 51 51 51 51 51 52 51 50 51
52 51 51 51 51 51 50 50 49 49 49 48 48 48 47 46
46 45 45 44 44 43 43 43 43 42 41 41 40 40 39 39
38 38 37 36 36 36 36 36 37 40 41 30 22 19 9 10
8 9 8 14 10 8 9 6 7 6 10 11 9 8 12 19
27 32 35 39 42 42 42 42 42 41 42 42 44 44 44 44
45 45 47 46 47 47 47 46 47 47 48 48 48 49 51 50
51 50 50 51 51 51 51 51 52 52 53 51 50 51 51 50
51 51 51 51 51 51 51 50 50 51 51 50 52 52 50 51
53 52 52 51 51 51 50 50 49 48 48 48 47 48 47 46
46 45 45 45 45 44 43 43 42 42 42 40 40 40 40 39
38 38 38 37 37 37 37 36 37 32 23 15 19 17 6 9
13 9 6 10 7 8 3 1 4 3 1 1 0 4 7 8
14 20 29 36 42 42 43 43 42 43 44 43 44 44 45 45
45 46 46 46 46 45 46 47 48 49 49 50 50 50 51 51
51 51 51 51 52 52 52 51 52 52 53 50 51 51 50 50
50 50 51 51 51 51 51 50 51 51 52 51 51 51 52 51
53 52 52 52 51 50 51 50 50 50 49 48 48 47 47 47
46 46 45 45 44 44 44 44 43 43 42 41 41 41 40 40
39 39 38 37 37 37 37 36 30 18 16 17 20 20 9 7
10 6 5 2 3 0 3 0 2 2 0 3 3 4 7 16
15 14 20 21 31 42 43 43 42 43 44 44 45 45 45 45
45 46 46 46 47 47 48 48 48 48 50 50 50 50 51 51
51 51 51 51 51 51 52 51 52 52 52 51 51 51 51 52
51 51 51 51 51 51 51 51 50 51 51 51 51 50 51 51
52 52 52 51 51 52 51 50 50 49 49 48 48 48 48 47
47 46 46 45 44 45 44 43 43 42 42 41 41 40 40 39
40 39 39 38 38 38 37 34 21 17 15 15 11 18 10 7
6 5 7 1 1 1 2 3 7 6 3 2 4 4 2 3
3 6 11 18 23 33 42 43 44 44 44 44 44 44 45 45
46 46 47 46 47 48 48 48 49 49 50 50 50 50 51 51
51 51 51 51 52 52 52 52 52 52 53 51 51 52 51 51
51 51 51 52 52 51 52 52 52 52 52 52 52 52 50 49
53 52 51 51 51 50 50 50 49 50 49 49 48 48 48 47
47 46 46 45 45 44 43 43 44 43 42 41 41 41 41 40
40 39 39 38 38 37 37 27 22 13 13 13 10 11 10 4
3 4 3 1 0 1 0 2 4 9 9 2 0 0 0 0
2 7 7 8 14 26 39 42 43 43 43 45 45 45 46 46
46 46 47 46 47 48 48 48 49 49 51 50 51 51 51 51
51 51 51 51 51 52 51 51 51 50 52 51 51 52 52 51
52 52 51 51 52 52 52 51 51 50 50 49 46 47 47 47
53 52 52 51 51 51 51 50 50 49 50 49 49 48 48 47
47 47 46 45 45 44 44 44 44 43 43 43 41 40 40 40
40 39 40 39 39 38 36 25 20 9 9 9 4 11 5 3
0 0 1 0 0 0 0 0 0 0 0 3 2 0 1 0
1 4 7 10 10 10 28 41 43 44 45 46 44 45 46 45
46 46 47 48 48 48 48 49 50 50 51 50 51 51 51 51
51 51 51 52 51 51 51 51 51 51 53 51 51 52 52 52
51 52 52 51 50 50 50 49 50 50 51 51 51 51 50 49
53 52 52 51 52 51 50 50 50 50 50 49 48 48 48 48
47 47 46 45 45 44 45 44 44 43 43 43 43 42 41 41
41 40 40 40 39 38 34 22 13 9 8 6 2 8 2 2
0 0 0 0 0 0 0 1 2 1 0 2 3 3 0 4
6 4 5 5 11 12 14 35 42 44 45 47 45 45 47 46
47 47 48 48 48 48 49 49 50 49 51 50 50 51 51 51
52 51 51 52 51 52 51 52 52 53 53 52 52 52 52 51
50 50 51 50 51 51 52 52 51 50 50 50 50 50 49 49
52 52 52 51 52 52 51 50 51 50 50 49 49 48 48 48
47 47 46 46 45 45 45 44 44 43 43 43 43 42 41 41
40 40 40 39 39 38 33 22 6 9 10 2 2 3 2 0
0 0 0 0 0 0 0 0 0 1 0 4 5 5 1 4
6 4 3 1 4 5 8 17 39 44 46 47 46 46 46 46
46 46 47 48 48 49 49 50 50 50 51 51 51 51 52 51
51 51 51 51 52 52 52 52 53 52 50 48 49 50 50 50
51 52 53 53 49 50 51 49 50 51 50 50 50 50 49 48
53 52 52 52 51 51 50 50 50 50 49 49 49 48 49 48
47 47 47 46 46 45 45 45 44 44 44 43 43 42 42 42
41 40 40 40 39 37 31 17 9 11 6 1 1 0 0 0
0 0 0 0 0 0 0 0 0 0 0 0 0 0 0 0
0 0 2 3 3 7 9 8 26 41 45 47 45 46 47 46
47 47 48 48 49 50 49 50 50 50 51 51 52 51 52 53
52 52 52 52 51 50 50 50 50 51 51 50 52 51 51 51
50 51 52 53 50 51 50 49 51 50 49 50 49 49 49 47
33 48 52 52 52 52 51 51 51 51 50 49 49 49 48 48
47 47 47 46 46 46 46 45 45 44 44 43 43 42 42 42
41 41 41 40 39 37 32 17 7 7 4 4 0 0 0 0
0 2 5 2 2 3 2 1 2 0 0 0 0 1 0 2
3 5 5 4 3 4 5 2 7 27 43 47 47 47 47 47
48 48 47 48 49 49 50 51 50 51 52 51 51 51 51 51
51 50 50 49 50 51 52 52 52 51 51 51 51 51 51 51
51 51 51 52 49 50 50 50 51 50 50 50 49 49 49 48
26 47 53 52 52 52 51 51 50 50 50 50 49 49 49 48
48 48 47 47 46 46 45 45 44 44 44 43 43 43 43 42
41 41 41 40 40 36 27 11 9 5 3 0 1 0 0 1
11 17 23 17 13 11 7 7 0 0 0 0 1 2 3 2
2 7 6 2 5 7 2 3 1 9 32 48 47 47 47 48
48 49 49 49 49 50 50 51 50 50 50 50 50 50 51 52
51 51 53 52 51 51 52 52 51 51 51 50 50 51 50 51
51 51 51 52 50 50 50 49 52 50 50 49 49 49 49 49
25 46 52 52 52 52 50 49 50 51 50 50 49 49 48 48
48 48 47 46 47 46 46 45 48 53 51 46 44 43 42 42
41 41 40 40 40 34 25 15 8 4 2 0 0 0 8 25
35 39 43 42 38 29 21 9 0 0 1 4 7 6 4 5
6 3 2 3 7 5 1 4 3 3 15 43 48 47 48 47
48 48 49 48 50 49 49 50 48 49 49 50 50 50 50 50
49 50 51 51 51 51 51 51 51 51 51 51 51 50 50 51
50 50 50 51 49 50 50 50 50 49 49 48 48 49 49 48
26 46 52 52 52 51 50 57 61 58 56 53 51 50 47 48
48 48 48 47 46 46 46 45 53 63 60 55 52 50 45 42
41 42 41 40 39 34 21 13 6 5 2 1 0 12 39 52
63 67 67 63 56 46 28 10 2 0 0 1 1 2 8 5
1 6 2 5 7 10 3 0 2 0 8 30 46 46 47 47
48 48 49 49 49 50 50 50 49 49 50 50 50 49 50 51
50 50 52 52 51 51 51 51 51 51 51 50 50 49 50 50
50 50 50 51 49 49 50 50 50 51 51 50 50 49 49 48
29 48 53 53 52 51 51 61 66 64 62 57 56 55 54 50
49 48 47 46 46 46 46 45 53 61 58 54 56 56 52 42
42 42 41 40 34 33 28 14 9 3 0 2 17 44 56 70
77 79 79 77 76 69 48 11 1 0 0 0 1 8 9 8
5 7 2 7 3 2 3 0 0 0 2 21 41 46 46 47
48 48 49 49 47 49 49 49 49 49 49 49 49 50 50 50
50 49 51 51 50 51 51 50 50 50 51 51 50 50 50 51
51 50 50 50 49 50 50 49 49 50 50 48 49 49 49 48
30 53 55 55 54 52 52 60 67 64 59 59 60 63 63 55
57 55 52 48 47 47 46 46 51 49 50 51 54 55 53 44
42 42 42 41 35 31 34 23 11 5 3 22 55 67 75 81
85 87 89 88 85 71 42 12 0 1 0 0 0 1 4 2
4 5 7 2 5 0 0 0 0 0 0 15 39 47 47 47
46 47 48 49 48 48 48 49 50 50 49 49 49 49 50 49
49 50 50 51 50 51 51 50 50 50 50 50 50 50 50 50
50 50 49 50 50 51 50 50 50 50 50 49 49 48 48 47
29 55 58 54 55 55 55 58 42 48 57 61 65 66 64 48
43 53 54 55 53 53 52 48 48 30 24 25 29 35 44 45
43 42 42 41 35 32 28 27 19 12 26 55 73 81 81 88
97 98 101 96 86 67 36 15 1 2 2 2 0 1 2 1
0 3 0 3 3 0 0 0 0 0 0 2 34 47 47 47
48 47 48 49 47 48 48 48 49 49 49 48 50 49 50 50
50 50 50 51 51 50 51 49 49 49 50 50 50 49 49 49
50 50 51 51 50 50 50 50 50 49 50 49 49 48 47 46
28 53 59 48 49 56 62 62 7 1 19 38 43 47 57 31
1 5 14 26 35 44 52 52 49 28 12 17 16 6 16 47
43 43 43 42 40 32 33 30 17 31 55 76 84 84 92 99
105 104 104 102 100 82 47 19 9 12 12 7 5 4 4 2
0 1 2 3 3 4 0 0 0 0 0 0 26 45 46 46
47 47 47 49 48 48 49 49 49 49 49 50 50 50 50 49
49 50 50 51 50 50 50 49 49 49 49 49 49 49 50 49
51 51 50 51 51 51 50 50 49 48 48 47 47 48 48 49
28 44 55 57 56 57 66 65 8 0 8 20 23 22 43 29
0 0 0 0 3 4 9 25 49 26 5 7 10 4 14 48
43 42 43 42 41 37 32 27 30 54 72 88 89 93 101 106
106 108 106 104 103 92 55 24 13 8 7 9 3 2 5 3
1 3 6 7 8 5 0 0 0 0 0 0 14 43 47 47
46 47 48 49 48 48 48 48 49 49 49 49 50 49 49 49
50 50 51 51 51 49 49 50 50 49 50 49 50 50 49 51
50 51 51 48 47 47 48 48 48 49 48 49 50 49 48 48
24 6 8 19 33 47 58 62 11 0 5 12 14 17 40 34
3 0 0 0 1 0 0 10 50 20 0 0 4 2 14 49
43 42 42 42 41 32 25 26 48 68 85 87 91 97 105 108
108 109 107 106 108 101 72 35 28 11 10 6 5 2 1 0
2 0 2 2 2 0 0 0 0 0 0 0 4 36 46 47
47 47 48 49 49 49 49 49 49 49 50 49 49 49 49 49
49 49 51 50 50 49 49 49 49 49 51 50 51 51 51 51
50 50 51 50 50 49 50 48 48 49 49 49 50 48 48 48
23 2 0 0 0 1 6 28 12 0 1 3 1 10 35 31
0 0 0 1 1 0 0 9 49 10 0 0 1 2 16 51
43 43 43 42 40 35 32 39 63 82 86 87 90 102 109 109
109 109 108 107 109 104 92 52 36 16 12 6 3 2 1 2
1 0 3 2 1 3 3 0 0 0 0 0 0 20 42 46
48 48 49 50 48 49 49 49 49 50 50 50 50 49 50 50
50 50 51 49 50 50 50 50 50 50 50 50 52 51 52 51
51 50 50 49 50 50 49 49 48 48 49 49 51 50 49 49
23 2 0 0 0 0 0 14 12 0 0 0 0 3 36 31
0 0 0 9 13 2 0 6 49 9 0 0 0 1 14 51
43 43 43 43 42 39 39 57 73 81 88 96 100 105 108 109
109 110 109 111 113 108 100 78 44 28 17 14 5 1 2 0
0 2 1 3 4 6 9 0 0 0 0 0 0 10 31 44
46 47 48 48 47 49 49 49 50 50 50 50 50 50 50 50
49 49 49 50 50 51 51 51 52 50 50 50 51 51 51 50
50 50 49 49 49 50 50 51 50 50 50 50 51 50 50 50
24 2 0 0 0 0 0 12 10 0 0 0 0 2 40 36
0 0 1 14 22 15 7 5 48 7 0 0 0 0 11 52
44 44 43 43 42 42 44 69 74 85 93 102 106 109 111 114
115 112 111 114 112 110 102 91 68 40 30 17 5 3 1 0
0 2 4 4 9 11 1 2 0 0 0 0 0 5 24 41
47 48 48 50 49 49 50 50 50 50 50 49 50 49 49 49
50 50 50 52 51 51 51 51 50 48 49 51 51 51 51 51
51 51 51 51 52 51 51 51 51 52 51 50 50 48 46 46
24 2 0 0 16 5 0 11 10 3 1 0 0 3 38 37
0 0 3 18 24 22 19 7 47 9 0 0 0 0 8 53
44 43 44 43 42 42 53 70 77 90 100 106 108 110 113 116
114 115 114 114 114 111 105 91 78 58 36 21 11 2 0 1
2 2 5 4 3 1 0 0 0 0 0 0 0 2 19 35
45 49 49 49 49 49 50 49 50 50 50 49 50 50 49 50
50 50 50 51 50 50 51 51 51 50 50 52 52 52 51 52
51 52 52 51 51 51 51 52 52 50 47 47 46 46 44 42
24 3 14 11 12 3 0 10 12 3 0 0 0 9 38 41
0 1 4 16 22 22 19 6 47 15 1 0 0 0 6 53
44 44 44 43 41 43 60 72 81 96 103 108 111 112 117 117
115 116 115 115 114 109 105 95 82 58 52 26 16 14 3 2
5 10 9 0 0 0 0 0 0 0 0 0 0 0 10 27
43 47 48 49 50 49 49 49 50 50 50 51 50 51 51 50
51 50 50 51 50 51 51 51 50 50 49 51 52 52 51 51
52 51 49 48 47 48 50 48 46 41 37 32 29 25 23 21
24 9 15 2 8 6 0 12 13 0 0 0 0 14 43 46
3 4 7 2 10 19 18 4 48 52 41 30 22 16 22 54
44 44 44 43 43 46 67 72 88 99 105 109 111 114 119 118
118 119 118 115 113 108 105 105 93 73 61 48 32 32 35 14
4 0 1 0 0 8 5 0 0 0 0 0 0 0 9 20
40 46 48 48 49 49 50 50 50 50 50 52 50 51 51 51
50 50 51 51 50 50 51 50 50 49 51 51 50 49 49 48
49 46 42 38 34 30 27 24 21 21 21 21 23 23 25 26
24 10 4 0 0 2 1 15 39 22 16 15 5 3 38 66
48 41 35 25 13 10 12 4 47 60 57 56 56 61 63 60
44 44 45 43 44 51 69 76 92 101 104 110 114 117 121 120
123 122 121 120 118 116 115 112 108 94 74 62 63 39 32 28
5 0 2 1 4 8 7 10 5 0 0 0 0 0 5 22
35 44 48 48 49 49 50 49 50 50 49 51 50 50 50 49
50 51 50 49 48 48 51 49 49 46 47 45 41 37 33 29
26 23 22 22 22 22 23 24 26 27 27 28 29 30 29 30
24 3 0 0 0 0 0 19 70 64 55 55 52 43 55 65
33 34 39 42 43 42 43 45 62 56 56 57 60 66 68 63
45 44 45 42 45 57 70 79 94 101 106 109 115 118 121 125
126 126 126 125 122 122 123 124 115 94 77 65 77 52 17 15
18 7 12 9 32 39 19 11 8 10 2 0 0 0 1 19
32 42 49 48 48 48 49 49 49 49 50 50 49 48 48 48
47 49 48 47 45 42 39 35 32 29 26 25 24 24 24 24
26 28 28 29 27 22 32 32 33 34 35 35 36 36 23 35
25 6 0 0 0 0 0 18 73 60 64 68 72 69 64 55
25 24 24 24 23 23 25 29 33 30 35 42 49 52 51 51
44 44 44 42 44 62 71 80 91 98 104 110 116 119 123 128
134 133 130 127 128 131 131 126 118 97 68 61 73 50 34 2
16 10 18 66 115 105 105 53 6 3 6 0 0 0 0 11
35 43 47 49 48 48 50 49 49 50 51 50 48 47 50 43
36 34 31 29 27 25 25 25 26 26 27 29 30 31 32 33
34 35 36 37 36 16 36 39 39 40 35 36 41 28 35 42
28 42 40 28 17 9 4 22 63 53 65 69 73 72 59 47
26 24 23 22 20 18 17 16 15 16 18 19 37 44 40 40
43 45 44 42 46 65 71 82 88 99 105 110 115 119 122 129
136 137 135 131 132 134 132 136 125 87 39 25 27 28 16 12
9 4 37 121 120 130 109 106 30 1 0 0 0 0 0 6
30 44 46 49 49 48 47 45 41 38 35 32 29 29 47 36
21 25 27 28 29 30 31 32 34 35 36 36 38 39 39 41
40 33 33 41 42 26 31 43 43 43 28 40 39 30 44 45
30 56 69 67 63 60 55 57 55 47 60 65 70 71 62 52
31 25 22 19 17 17 17 17 17 18 18 19 39 26 30 43
43 44 43 42 46 65 72 84 88 99 106 110 116 119 123 126
135 139 137 132 125 100 70 46 42 60 59 60 44 16 3 7
11 14 95 108 135 150 143 113 89 1 0 0 0 0 0 4
26 40 38 38 35 32 29 27 27 26 27 29 29 28 38 31
24 31 35 36 37 38 40 40 41 42 42 41 42 43 43 43
44 44 38 35 46 40 20 45 45 43 26 41 27 39 41 46
29 56 69 68 67 68 68 70 43 13 21 31 40 47 47 53
32 23 20 10 9 9 16 20 19 18 22 25 41 38 36 52
50 47 25 25 44 63 74 84 91 103 107 111 116 119 123 124
118 96 69 45 36 65 80 76 72 52 44 35 31 34 31 18
44 63 110 80 126 147 130 120 115 21 0 0 0 0 0 1
15 26 27 27 28 29 30 31 34 33 34 36 37 37 43 37
30 39 41 42 43 43 44 45 45 45 45 45 45 46 46 45
47 46 47 39 36 44 19 38 46 41 26 31 37 42 42 47
29 50 62 63 64 67 68 69 35 1 0 0 3 16 26 52
32 21 17 1 0 1 9 14 12 7 15 18 38 55 48 48
49 52 44 38 43 59 77 89 98 104 105 108 101 77 63 57
49 50 69 73 71 70 90 119 126 104 62 38 23 29 46 46
56 90 109 108 124 147 135 113 110 53 0 2 0 0 0 0
13 25 32 33 36 36 38 39 41 42 42 43 43 40 37 33
33 43 44 44 46 46 47 47 48 48 47 47 47 45 47 45
46 47 47 48 38 36 34 23 45 38 29 25 46 42 44 46
36 41 46 48 51 51 56 63 28 0 0 0 2 2 17 55
29 19 16 2 0 5 3 1 1 0 2 6 34 56 41 36
35 38 43 46 44 63 78 92 102 101 88 47 8 38 65 64
60 57 58 81 112 134 142 143 135 107 74 54 21 24 73 87
91 104 111 119 127 144 140 111 104 72 0 1 0 0 0 1
11 27 33 40 41 43 43 43 44 44 45 45 44 39 16 12
30 45 48 48 48 48 47 48 48 48 47 48 48 48 47 47
46 47 47 47 48 37 33 14 23 19 23 35 45 41 45 44
32 34 32 37 47 44 52 63 26 0 0 0 3 1 6 56
23 13 3 0 1 15 11 5 1 0 0 1 32 57 40 29
44 41 38 43 45 68 81 95 95 68 13 0 0 21 21 21
51 78 108 131 138 146 146 145 138 117 73 46 16 17 62 88
87 110 84 70 123 139 144 118 101 82 11 3 0 0 0 0
9 28 39 39 45 46 47 46 46 47 45 42 41 38 15 9
24 45 48 50 49 49 49 49 49 49 49 49 49 49 48 47
46 46 46 47 48 46 35 14 0 2 30 42 43 41 44 41
32 33 37 41 47 47 55 61 25 0 0 0 0 0 8 56
9 0 0 0 3 10 19 12 4 0 0 0 32 58 40 22
37 33 35 42 46 71 82 88 59 6 0 0 0 12 42 59
85 107 117 126 136 145 145 145 142 124 93 36 11 6 43 63
79 111 104 68 131 111 118 132 107 86 30 10 1 0 0 0
5 26 43 41 45 47 46 47 47 29 12 8 19 35 12 7
22 45 48 49 49 49 49 48 48 49 49 49 49 48 47 47
47 46 46 47 47 46 46 30 0 8 40 42 36 37 42 43
32 15 8 15 23 31 41 48 25 0 0 0 0 0 11 56
8 0 0 0 2 10 23 20 17 1 1 1 30 58 43 22
28 27 33 42 46 71 80 66 8 1 1 0 0 29 33 49
99 111 116 126 136 144 148 147 145 136 101 41 14 6 15 34
73 104 118 115 133 127 103 131 113 87 33 8 2 0 0 0
2 27 43 45 46 47 48 48 48 31 24 31 38 38 7 2
21 44 47 49 49 48 49 50 49 49 49 48 48 48 47 47
47 45 45 45 46 45 47 41 2 12 45 41 33 33 42 45
37 12 0 0 0 0 0 9 22 0 0 0 0 0 11 54
6 0 0 0 7 24 26 22 20 1 0 3 30 58 46 33
30 24 32 41 41 62 76 36 0 5 2 0 0 9 30 24
58 108 119 135 147 147 148 148 145 138 116 69 16 7 16 52
81 104 111 123 149 136 105 125 118 86 41 9 0 1 0 0
0 25 47 45 45 48 47 48 49 47 46 46 45 40 12 3
22 45 49 49 49 49 49 49 48 48 48 48 48 48 48 47
47 47 46 44 46 47 47 43 6 9 44 44 33 33 44 46
36 14 0 0 2 0 0 6 20 0 0 13 9 1 9 52
4 0 0 0 5 22 31 14 8 1 1 4 27 58 48 34
18 7 23 40 36 29 66 29 0 5 1 0 0 0 38 37
28 77 115 134 146 148 148 147 146 143 133 95 64 41 50 81
91 100 109 95 133 141 104 125 125 80 44 11 0 0 0 0
0 9 40 43 47 48 49 48 48 48 47 46 44 41 19 1
28 45 48 48 49 49 48 48 48 48 48 49 48 48 48 47
47 48 46 44 45 46 47 44 7 8 44 45 35 33 45 46
36 14 0 1 11 4 0 4 21 0 6 28 20 4 10 51
3 0 0 1 3 2 23 4 0 0 2 1 23 58 49 27
13 9 18 37 27 3 28 31 0 7 0 0 0 0 25 60
53 70 118 130 143 142 144 147 147 147 135 98 67 56 55 63
78 89 111 121 123 119 103 136 133 77 45 12 0 0 0 0
0 2 1 13 28 34 41 47 48 48 48 47 45 41 29 16
36 47 49 50 49 49 49 48 48 48 48 48 48 48 47 47
47 48 47 45 45 47 48 46 9 6 42 46 33 31 44 45
33 13 0 10 28 14 4 4 24 1 15 27 23 8 9 49
3 6 0 0 1 0 23 8 0 0 0 0 17 58 43 16
11 0 17 15 0 2 2 10 2 4 0 0 0 0 5 49
60 67 116 129 138 137 141 148 147 145 124 88 65 48 47 64
95 90 105 128 128 113 121 137 130 69 42 15 0 0 0 0
0 0 0 0 0 1 6 23 42 47 48 47 44 40 36 36
41 48 49 49 49 48 49 48 48 49 48 49 50 49 48 48
48 48 47 45 45 41 44 43 11 5 31 34 25 29 42 46
32 14 0 17 30 15 6 3 48 43 47 47 44 40 37 52
2 0 0 0 0 0 23 10 1 2 0 0 11 56 39 12
11 2 24 2 0 7 0 0 12 0 0 0 0 0 0 24
59 62 113 131 136 136 142 147 146 143 118 69 44 36 39 71
111 104 93 97 132 142 131 129 110 56 37 17 5 0 0 0
0 0 0 0 0 0 0 7 28 46 47 47 45 41 40 42
47 48 49 49 50 49 49 49 49 49 49 49 48 48 48 48
48 48 46 44 44 40 32 35 13 3 36 45 38 33 42 46
31 16 0 8 11 7 2 3 53 57 63 63 62 66 71 60
14 11 10 1 1 6 27 14 6 7 2 0 8 49 37 11
3 5 16 7 3 3 0 8 19 10 0 0 0 0 0 4
43 64 122 134 140 141 141 144 145 140 117 81 38 35 37 50
90 112 115 123 141 123 118 126 84 53 33 14 3 0 0 1
1 0 0 0 0 0 0 4 24 43 47 47 46 44 43 45
49 49 49 49 51 49 49 50 50 49 48 49 48 49 49 49
48 48 47 45 44 45 46 45 18 3 34 44 37 31 39 42
33 29 16 4 6 3 1 2 50 58 61 61 61 70 74 69
45 43 41 35 31 33 37 28 24 20 18 15 21 43 41 19
16 17 9 13 2 2 2 70 70 16 14 0 1 0 0 0
34 69 124 139 143 142 142 143 143 135 108 73 40 35 54 49
97 117 130 129 129 121 126 106 74 46 20 10 12 0 0 0
2 0 0 0 0 0 0 0 16 38 47 47 46 45 46 47
48 48 48 47 49 49 49 49 48 48 48 49 49 48 47 48
47 46 46 45 44 44 45 45 22 3 31 44 38 30 40 43
35 35 12 2 5 2 0 3 48 50 55 55 56 60 59 58
50 50 51 49 48 49 48 45 41 37 36 33 35 47 52 38
35 28 23 25 3 1 16 109 114 31 22 22 2 0 0 0
29 76 127 139 145 143 143 138 139 131 98 62 37 31 47 44
87 110 124 121 121 134 117 88 72 58 42 34 26 1 5 4
15 5 0 0 0 0 0 0 11 31 45 47 46 45 46 47
47 47 47 48 49 48 48 48 48 47 48 47 48 48 48 47
46 46 47 45 44 44 45 45 24 2 30 46 39 29 39 44
38 30 4 0 3 1 0 2 51 50 51 51 51 50 45 47
51 52 54 53 51 50 50 49 49 52 50 45 44 50 61 57
57 55 52 45 20 1 44 133 141 90 12 43 39 8 0 2
29 88 129 137 139 139 136 134 136 122 97 56 41 30 33 38
65 86 120 129 131 129 101 90 72 67 61 51 36 5 1 8
16 6 0 0 0 0 0 0 4 30 43 46 46 45 48 48
48 48 48 48 49 48 48 48 48 47 47 47 47 47 46 47
46 45 46 44 43 44 46 44 26 3 25 44 39 29 37 42
34 36 33 28 22 18 13 12 54 52 50 50 50 51 52 54
55 53 57 62 61 51 48 49 52 63 60 56 55 54 48 41
40 41 42 42 35 5 81 140 149 132 63 15 50 31 1 15
58 116 131 132 130 135 131 134 132 115 101 67 41 30 36 39
62 86 73 120 122 104 101 91 69 67 66 56 44 10 2 5
14 0 0 0 0 0 0 0 1 25 42 46 47 46 47 48
48 47 47 47 47 47 47 46 47 46 46 46 46 46 46 45
46 45 45 44 42 43 44 43 28 2 22 43 38 29 36 42
34 44 63 65 60 60 65 63 67 57 52 53 52 53 57 61
60 55 59 65 64 51 46 42 50 63 60 56 56 55 49 40
34 32 32 35 42 38 114 143 150 146 131 67 22 18 20 56
106 122 124 129 123 123 126 129 119 99 78 56 40 37 41 43
38 75 51 65 102 106 103 92 66 61 64 55 50 17 15 12
9 0 0 6 0 0 0 0 0 14 42 43 46 46 46 47
46 46 46 46 47 47 46 45 46 45 44 45 45 45 44 44
44 44 44 42 40 41 44 43 31 2 18 43 38 28 33 40
34 45 72 73 71 72 72 72 72 56 47 44 44 45 54 62
63 55 55 54 53 52 48 42 42 50 44 43 49 51 50 47
41 39 40 41 44 68 130 145 147 147 142 121 112 95 91 102
114 120 118 118 114 119 122 122 101 81 55 53 50 44 42 40
30 48 71 93 115 111 104 92 62 61 66 63 49 22 19 13
0 0 1 7 0 0 0 0 0 12 37 43 46 46 46 46
46 46 45 46 46 46 45 45 45 45 44 44 45 45 44 44
44 43 44 42 41 41 44 43 32 2 15 42 39 27 32 41
35 36 51 53 55 57 60 62 65 39 11 10 6 9 14 32
62 54 37 17 23 26 25 36 44 30 7 3 7 18 26 46
44 43 47 51 54 89 131 140 143 140 137 130 120 111 105 109
116 121 113 111 115 116 114 105 88 75 48 38 49 32 41 30
26 27 51 90 110 113 107 95 62 56 72 66 51 29 22 1
0 0 1 5 0 0 0 0 0 11 32 36 41 45 46 46
45 46 45 46 45 45 46 46 45 44 45 44 46 45 44 44
43 43 44 43 41 41 44 44 35 3 14 42 40 29 32 40
35 33 41 41 41 40 40 40 43 29 3 0 0 0 0 16
60 47 11 0 1 4 12 35 47 29 0 0 0 7 22 37
20 24 28 32 43 103 132 140 138 133 129 127 115 109 109 112
111 115 108 108 112 109 103 98 83 67 45 26 41 34 38 31
21 20 31 68 88 98 103 95 64 57 69 62 51 32 15 2
0 0 0 3 0 0 0 0 0 6 13 15 25 45 47 46
46 47 46 45 45 45 45 45 45 44 44 44 45 45 45 45
45 45 44 44 42 42 44 44 37 3 13 43 42 29 31 41
33 37 50 51 51 50 48 48 49 31 9 1 0 0 5 29
59 34 1 0 0 0 2 37 48 31 0 0 0 3 19 32
1 6 8 3 32 117 142 144 143 142 140 137 123 103 106 107
100 110 109 104 105 114 105 86 64 55 49 28 30 35 35 23
20 12 17 34 54 82 98 90 60 55 76 70 61 32 4 0
0 0 0 0 0 0 0 0 0 4 11 11 22 46 47 47
46 45 45 46 45 45 44 44 45 44 44 43 44 45 43 45
44 43 45 44 42 42 44 44 38 4 12 41 39 27 30 40
34 38 52 54 53 53 53 54 54 33 9 3 0 0 4 20
56 23 0 0 0 0 0 34 47 30 0 0 0 2 17 35
2 13 18 4 38 122 143 140 139 143 147 149 131 105 103 100
93 109 112 105 104 97 95 78 55 37 42 25 27 41 39 18
11 7 12 22 20 44 96 87 62 53 81 80 68 41 3 0
0 0 0 0 0 0 0 0 0 7 9 11 21 45 47 47
48 47 47 46 45 45 45 45 45 45 45 45 44 45 45 45
44 44 44 43 42 41 42 41 37 6 10 37 38 28 30 41
40 41 48 51 52 53 53 54 58 34 1 0 0 4 12 11
53 19 0 0 0 0 0 36 45 28 0 0 0 0 11 36
2 5 8 1 26 107 122 71 53 71 84 114 114 112 101 99
91 95 103 97 92 73 81 71 43 36 34 26 25 36 27 16
6 2 8 14 24 57 93 88 66 56 83 82 71 47 7 0
0 1 2 0 0 0 0 0 0 6 9 11 19 43 48 47
48 46 46 46 45 44 45 45 44 44 43 43 42 45 45 45
44 44 44 44 41 40 40 42 39 7 8 39 41 30 29 38
50 49 48 48 48 48 48 41 55 44 8 0 0 3 10 5
52 17 0 0 0 0 0 36 46 27 0 0 0 0 3 39
4 10 12 4 6 67 95 89 107 114 119 118 113 118 112 103
88 75 82 85 74 54 52 55 34 19 23 28 25 24 22 15
4 0 1 5 19 59 94 90 69 59 86 84 78 56 16 0
0 1 1 5 0 0 0 0 0 2 11 11 15 42 47 46
45 45 44 44 43 42 44 45 45 44 44 44 45 44 44 43
43 44 43 43 40 40 42 42 40 9 5 36 40 31 29 38
49 49 49 49 48 48 47 41 52 49 14 0 0 5 12 7
49 15 0 0 0 0 0 29 48 31 4 0 0 0 3 41
6 2 4 1 4 47 50 49 57 64 74 86 102 108 106 105
102 87 69 67 61 47 37 40 30 18 19 31 26 16 11 7
0 0 4 0 0 39 101 94 69 65 88 89 83 63 28 0
2 6 5 8 1 0 0 0 0 4 17 19 20 37 44 45
45 45 45 45 38 31 31 33 40 44 43 43 44 44 42 42
43 43 42 41 39 39 41 41 39 10 3 33 40 31 27 37
48 47 47 47 47 47 47 44 51 45 1 0 0 0 2 6
51 17 0 0 0 0 0 24 49 29 1 0 0 0 1 41
11 0 2 0 3 45 47 39 43 17 18 35 65 75 64 57
90 102 82 64 51 42 38 30 26 16 18 15 12 12 3 1
0 0 3 3 22 60 104 97 77 67 88 97 93 72 44 0
0 1 1 6 5 0 0 0 0 4 15 16 18 35 45 46
45 46 45 42 5 0 0 0 21 45 44 43 43 43 43 43
43 42 42 43 40 39 41 41 40 13 3 32 41 32 27 37
15 16 17 17 22 38 46 45 49 41 0 0 0 0 0 2
48 20 0 0 0 0 0 21 50 30 2 0 0 0 1 40
16 0 0 0 6 42 44 38 31 1 7 12 24 27 20 15
36 85 101 72 51 24 27 27 32 20 11 7 5 5 2 0
0 1 1 13 56 97 115 102 80 68 88 103 101 87 60 6
0 1 1 3 5 4 6 1 0 1 10 12 14 37 45 45
45 45 44 41 5 0 0 0 17 44 43 43 43 44 43 42
43 42 42 41 39 38 41 41 41 15 2 31 42 33 27 37
0 0 0 0 5 42 47 44 44 39 3 2 1 2 16 6
43 33 11 11 14 12 12 29 53 38 35 33 32 36 40 55
26 6 6 5 10 41 41 37 20 0 2 6 11 10 8 7
10 26 80 70 56 32 21 26 38 22 12 7 3 1 0 0
0 4 14 35 88 115 118 104 82 69 84 105 107 97 72 22
0 0 0 0 0 0 1 0 0 0 9 11 12 37 46 45
45 44 44 40 4 0 0 0 7 43 44 43 44 43 42 43
42 42 42 42 40 39 41 41 41 18 1 29 41 34 27 36
0 0 0 0 4 45 49 45 42 53 47 41 38 41 47 42
46 53 60 56 56 58 58 62 59 40 50 54 57 62 69 69
50 39 38 37 38 43 40 36 27 0 18 13 13 20 21 15
9 7 41 74 41 30 19 14 24 25 12 7 3 0 0 0
0 2 15 55 103 121 118 104 84 71 81 105 111 101 83 47
1 0 7 7 1 0 2 1 0 2 10 11 13 36 46 45
44 45 43 38 3 0 0 0 5 43 44 44 44 43 43 42
43 43 42 42 39 38 41 40 41 19 0 26 42 35 26 36
0 0 0 0 2 43 51 45 40 58 60 52 53 56 51 43
40 50 67 64 63 62 66 67 63 40 44 51 56 63 68 67
53 41 41 41 41 41 40 37 32 9 21 30 21 29 48 52
56 32 22 61 51 29 20 22 15 12 11 5 7 1 0 0
0 2 16 53 104 129 125 104 86 74 75 103 116 107 93 68
16 0 10 17 14 1 0 5 8 10 11 11 13 36 46 45
30 18 24 18 1 0 3 0 4 43 44 44 44 44 43 43
43 42 43 42 41 39 41 42 41 22 0 24 41 35 26 35
0 0 0 0 1 40 51 45 40 58 53 47 50 54 52 43
36 38 46 48 49 48 48 47 50 39 36 42 46 46 42 40
42 41 42 42 41 40 40 39 38 34 21 2 26 71 84 100
104 67 23 28 38 35 23 12 16 6 3 5 0 0 0 0
0 0 10 46 110 129 127 107 84 74 74 99 119 115 103 82
43 0 13 20 29 14 0 0 9 10 11 11 13 37 46 42
4 0 1 0 0 0 3 0 3 43 45 44 44 44 43 44
44 42 43 43 41 39 40 41 41 25 0 21 42 36 26 34
0 0 0 0 0 37 52 44 39 56 37 41 40 44 50 44
38 35 31 33 33 34 34 34 38 40 42 44 46 45 40 37
40 42 42 42 42 42 42 40 41 43 40 27 51 73 91 103
93 61 19 6 18 22 10 7 7 11 4 1 0 0 0 0
0 2 22 58 108 136 128 108 85 74 75 92 117 118 110 94
65 13 8 42 28 32 1 0 5 11 11 12 13 36 46 42
6 0 0 0 0 0 0 0 2 42 44 44 44 43 43 43
43 42 43 43 41 39 41 42 42 27 0 19 42 37 26 33
0 0 0 0 0 33 52 44 42 56 21 13 16 20 24 23
26 37 37 41 42 49 51 45 47 50 51 56 58 56 45 41
41 42 42 42 42 41 41 41 42 43 41 32 39 38 46 57
60 55 17 5 4 7 2 4 6 7 3 2 0 0 0 0
2 6 29 81 107 129 126 108 85 77 77 81 114 123 119 104
80 31 18 38 18 23 18 0 6 10 11 10 11 34 46 45
21 0 0 0 0 0 0 0 2 41 45 45 44 44 44 43
44 43 44 43 42 40 42 42 42 29 0 16 41 36 26 33
0 0 0 0 0 29 53 44 47 60 13 0 0 0 1 7
22 40 46 58 53 65 68 36 28 30 31 36 47 60 47 43
41 42 42 43 43 42 42 42 41 43 43 37 16 3 3 16
42 42 13 5 2 5 2 0 1 1 1 0 0 0 0 1
9 17 41 83 113 130 127 108 83 82 81 75 107 124 121 110
91 38 23 21 20 16 22 19 18 19 14 18 19 35 46 45
36 10 0 0 0 0 0 0 2 15 44 45 44 44 44 44
44 43 44 43 42 40 42 46 45 32 0 14 41 37 28 32
0 0 0 0 0 24 52 43 48 64 18 0 0 0 0 0
25 40 43 57 38 43 54 14 0 0 0 1 23 58 49 43
43 42 43 42 42 41 41 41 41 40 43 40 8 1 0 5
38 29 9 2 0 0 0 0 0 3 0 0 0 0 0 9
31 36 57 87 119 131 129 109 87 86 88 76 95 123 123 115
96 28 22 26 22 17 17 23 42 42 35 42 42 44 45 32
52 11 0 0 0 0 0 0 0 2 42 46 46 45 45 45
44 44 44 44 43 41 41 43 43 32 0 10 36 32 26 32
0 0 0 0 0 20 52 44 46 61 23 0 0 0 0 0
22 40 40 55 17 5 34 15 0 0 0 0 16 56 49 43
43 42 43 42 42 41 41 41 41 42 44 35 6 0 0 2
24 14 2 1 0 0 0 0 0 0 0 0 0 0 2 29
51 50 68 100 121 133 129 109 87 90 98 83 89 119 124 118
70 25 42 26 25 24 22 20 45 47 46 47 46 45 30 3
2 13 11 0 0 0 0 0 0 1 41 44 45 44 44 44
44 44 43 44 44 41 40 43 43 34 1 8 33 31 26 30
0 0 0 0 0 17 50 43 40 29 4 0 0 0 0 0
26 39 40 54 16 3 31 18 0 0 0 0 10 53 50 43
43 43 43 42 42 42 41 41 41 42 42 29 1 0 0 0
6 5 2 1 0 0 0 0 0 0 0 0 0 0 10 53
68 66 89 103 122 132 127 105 86 95 105 96 81 106 122 93
45 31 44 29 27 28 24 19 38 39 36 34 35 23 2 0
0 8 7 0 0 0 0 0 0 0 39 45 45 45 45 44
44 44 45 45 44 42 41 43 43 35 1 5 30 29 26 30
0 0 0 0 0 14 49 43 38 22 0 0 0 0 0 0
27 37 40 54 16 2 29 21 0 0 0 0 5 50 49 42
43 42 42 42 41 41 41 41 41 42 41 26 0 0 0 0
2 2 2 1 1 0 0 0 0 0 0 0 0 3 34 64
74 88 99 100 118 128 121 104 89 99 113 107 89 88 101 58
44 24 35 28 26 28 22 17 17 4 2 1 1 0 18 20
8 10 1 0 0 0 0 0 0 0 31 43 46 46 45 45
45 45 45 46 45 43 41 43 41 35 2 3 28 28 26 30
0 0 0 0 0 11 49 43 38 24 0 0 0 0 1 0
24 38 40 55 16 3 26 24 0 0 0 0 4 49 50 42
42 42 42 42 41 41 41 40 41 41 43 30 0 1 0 2
5 4 2 0 0 0 0 0 0 0 0 0 0 8 44 66
85 105 99 96 115 128 125 107 89 101 118 119 107 78 53 52
29 26 34 24 23 24 19 16 35 23 9 24 17 0 30 37
34 31 9 0 0 0 0 0 0 0 0 14 18 18 41 47
47 47 47 48 47 44 43 44 40 35 3 2 28 29 28 31
0 0 0 0 0 10 49 43 39 25 0 0 0 0 5 0
20 40 40 55 21 4 24 27 5 0 2 3 4 46 49 41
42 41 41 41 41 41 41 40 39 41 42 39 6 0 3 2
3 1 0 0 0 0 0 0 0 0 0 0 0 14 42 62
90 106 101 91 110 129 128 107 88 104 126 128 115 82 23 39
22 35 31 24 21 22 18 16 34 20 17 20 22 11 15 19
23 16 11 10 10 10 10 10 11 10 10 9 8 8 42 50
49 50 50 51 51 49 47 47 43 38 5 2 33 36 35 39
0 0 0 0 0 8 48 43 38 27 1 8 0 0 15 7
16 43 40 56 33 11 20 28 7 8 8 2 3 43 49 41
42 41 42 42 42 41 40 39 40 41 41 42 20 0 1 1
2 0 0 0 0 0 0 0 0 0 0 0 0 5 29 55
94 113 108 91 110 129 130 107 88 105 126 130 121 82 15 24
51 52 9 15 22 21 17 16 48 23 16 16 20 22 25 30
33 31 29 26 24 22 20 19 17 15 13 12 12 17 55 67
66 66 67 69 68 65 61 58 54 49 9 1 32 19 14 14
0 0 0 0 0 6 47 44 39 31 5 11 3 3 18 22
17 46 41 55 32 24 20 25 5 15 12 1 1 38 47 40
41 41 41 40 41 41 41 39 39 39 38 41 35 9 0 0
0 0 0 0 0 0 0 0 0 0 0 0 11 14 20 49
94 111 106 89 107 127 125 105 91 107 127 132 125 65 34 68
32 11 0 0 7 24 19 17 48 15 15 12 16 26 30 26
28 26 27 22 14 8 7 10 42 48 52 56 61 65 69 70
70 70 70 71 70 67 61 56 55 51 12 0 33 2 0 0
0 0 0 0 0 5 46 43 37 39 37 42 42 42 47 49
49 56 43 55 24 32 21 33 21 25 22 20 20 35 40 40
40 40 40 40 40 40 39 39 39 38 37 41 41 30 8 0
0 0 0 0 0 0 0 0 0 0 0 6 19 34 36 60
98 107 101 85 103 125 125 107 93 110 128 131 101 49 28 15
10 0 0 0 0 12 56 13 33 11 12 10 16 22 25 26
29 26 28 27 28 16 6 24 67 68 66 66 65 65 66 66
67 67 67 64 66 62 56 53 53 51 14 0 27 0 0 0
0 0 0 0 0 4 45 44 37 40 60 63 64 64 64 65
66 64 48 55 14 20 23 40 34 35 34 33 32 32 35 40
40 39 40 39 40 40 39 39 39 39 37 41 40 36 35 19
4 0 0 0 0 0 0 0 0 0 0 5 28 48 67 81
100 105 97 79 99 125 124 109 97 105 113 103 71 44 19 14
5 0 0 0 0 0 47 20 18 9 10 12 15 20 24 27
27 27 27 23 27 26 30 51 42 52 54 58 49 55 58 58
61 55 54 43 51 48 39 44 51 51 16 0 17 0 0 0
0 0 0 0 0 4 44 43 36 35 58 62 61 61 60 60
60 58 49 53 13 7 16 39 34 37 37 37 37 37 37 39
40 40 40 40 40 40 39 40 39 38 37 40 37 37 38 29
20 7 0 0 0 1 1 1 3 8 4 3 34 80 110 112
110 110 102 77 92 124 124 109 93 61 73 84 41 22 13 28
2 0 0 0 0 0 28 31 11 9 9 13 15 19 24 23
25 25 27 22 23 22 24 24 43 39 31 35 38 42 42 41
55 41 40 36 33 37 35 44 51 51 18 0 11 0 0 0
0 0 0 0 0 3 43 43 35 29 31 30 29 29 27 27
27 25 30 51 14 3 12 40 38 40 40 39 40 39 39 39
39 39 39 39 39 39 39 39 39 39 38 40 37 31 19 16
23 13 9 10 7 12 14 13 15 18 18 8 52 96 119 125
121 116 106 79 88 122 128 111 63 41 63 69 22 13 26 54
22 0 0 0 0 13 33 29 21 17 15 13 17 23 23 22
25 23 23 22 20 18 18 20 22 43 39 41 23 31 41 40
51 49 47 46 47 46 42 43 48 50 21 0 6 0 0 0
0 0 0 0 0 3 41 42 35 30 25 22 22 21 22 22
22 20 28 51 17 2 10 40 37 40 40 39 39 39 39 39
39 40 39 39 39 39 39 39 38 36 36 36 25 16 15 17
18 22 26 6 0 18 16 17 19 20 22 16 55 91 114 125
129 124 106 81 83 121 130 102 39 37 68 32 63 37 24 31
24 39 5 0 1 48 28 27 16 22 26 30 34 43 38 40
66 52 26 23 22 18 28 30 23 67 42 48 21 21 20 33
48 49 49 48 46 45 45 44 46 48 22 0 1 0 0 0
0 0 0 0 0 2 40 42 35 33 30 29 27 26 26 25
24 22 30 53 32 30 38 44 35 39 40 39 39 39 39 39
38 39 38 39 39 38 38 37 38 36 34 22 16 13 15 12
24 21 0 0 0 6 24 29 25 22 20 29 50 85 103 125
135 132 112 86 78 117 128 79 34 35 74 58 32 63 54 9
12 13 10 3 6 40 11 18 14 20 35 44 53 49 53 61
58 57 66 55 54 43 48 46 46 115 73 127 42 18 20 18
24 37 47 48 47 47 43 44 45 45 23 0 0 0 0 0
0 0 0 1 1 7 44 43 35 34 33 31 31 30 30 29
28 23 32 53 45 56 58 46 34 38 38 38 39 38 39 39
38 38 38 38 38 38 38 36 35 30 28 33 12 12 13 13
22 2 0 0 0 9 9 16 34 43 59 47 81 85 94 114
133 134 123 94 79 112 110 52 36 26 18 30 16 8 8 17
22 17 15 5 4 26 7 15 8 8 15 21 39 52 64 81
66 66 60 45 52 39 47 67 61 140 98 122 48 30 29 19
22 29 26 33 34 36 33 31 34 32 22 0 0 0 0 0
21 23 26 27 29 31 38 37 35 34 33 31 31 31 31 30
30 23 26 36 31 35 38 36 36 38 39 38 39 38 38 38
38 38 37 37 37 34 25 20 20 37 21 18 15 18 14 12
20 2 0 12 38 21 10 1 19 22 45 90 92 54 63 97
128 134 133 107 81 99 89 53 33 16 14 9 8 4 18 27
22 17 17 17 17 29 10 21 9 8 20 21 23 22 25 23
22 22 24 50 54 47 32 17 26 88 51 67 23 36 39 39
39 43 41 24 30 31 26 27 30 35 28 0 0 0 0 0
31 33 33 33 34 34 34 35 34 34 35 32 31 30 30 30
29 25 28 31 32 30 34 35 37 38 39 39 38 38 38 38
37 37 38 36 33 23 36 23 20 19 17 12 10 16 20 9
20 0 3 48 42 17 9 13 29 15 8 9 16 28 80 59
98 129 131 113 81 80 81 44 15 21 11 9 7 19 27 26
21 20 18 21 48 30 19 45 14 13 22 23 22 22 21 22
20 23 22 23 21 19 16 17 25 73 32 34 18 20 38 43
43 54 48 41 22 33 34 39 41 45 34 0 0 0 0 0
31 32 33 33 34 33 34 35 34 34 34 33 33 32 32 31
30 26 29 31 35 32 35 35 36 38 38 38 37 38 37 38
37 36 32 26 22 33 51 21 20 19 17 7 12 17 43 35
14 5 66 83 33 5 8 5 3 4 3 2 4 7 8 59
70 89 119 103 81 66 56 19 21 9 12 11 18 30 28 26
23 21 19 22 70 49 21 51 23 14 21 24 23 23 26 25
22 25 25 23 21 16 16 18 38 88 37 29 17 18 19 20
18 25 57 59 47 33 32 44 46 50 40 0 0 0 0 0
29 29 30 30 29 30 29 30 31 33 34 34 34 32 32 32
30 28 29 32 35 34 35 36 37 37 37 37 37 37 36 36
30 23 22 22 29 45 46 20 22 18 22 9 12 24 29 22
11 26 67 42 18 10 15 19 18 20 16 13 8 8 8 1
35 71 65 65 71 44 14 26 11 10 15 22 33 31 28 25
24 22 23 25 80 56 35 45 36 21 24 24 24 26 29 26
24 27 28 26 24 18 20 21 45 85 44 30 19 19 18 22
16 18 25 32 53 42 20 32 43 49 44 1 0 0 0 0
6 5 5 16 24 26 26 32 32 34 34 33 33 33 33 32
31 29 30 33 36 35 35 36 37 37 38 37 38 37 36 25
20 20 22 22 38 54 31 20 26 45 32 14 12 32 20 24
6 14 42 43 16 12 13 20 20 21 23 26 25 16 16 16
4 35 73 26 34 17 29 15 9 20 21 32 34 28 28 27
24 22 23 28 100 50 75 21 24 23 22 26 26 26 29 29
26 29 28 22 26 22 20 24 54 75 43 25 21 21 22 19
13 19 22 21 23 33 17 19 44 51 48 2 0 0 0 0
9 0 1 14 25 30 29 32 33 33 33 33 32 32 32 31
31 30 30 32 35 36 35 35 36 37 37 37 37 36 24 12
25 21 22 24 57 103 57 27 46 52 56 54 51 26 13 21
6 21 47 50 17 14 16 23 23 23 25 27 26 24 13 20
9 8 24 33 18 29 20 11 24 20 32 32 31 29 30 27
23 24 25 35 93 43 70 20 24 24 25 25 28 25 31 30
25 29 29 27 23 21 20 23 53 68 56 22 22 25 22 20
14 23 22 23 21 14 14 13 35 51 47 2 0 0 0 0
38 7 5 14 22 28 29 31 32 32 32 32 32 32 32 32
31 31 31 33 36 36 36 34 35 36 36 36 35 28 20 16
46 48 51 56 115 110 41 38 59 71 51 26 27 27 22 41
13 30 55 51 19 19 19 25 28 26 26 27 26 25 22 14
14 3 19 16 29 34 12 19 22 27 37 30 29 29 31 25
24 26 26 39 96 43 63 22 24 25 24 24 26 24 28 28
25 30 27 26 26 21 20 25 63 76 58 20 18 24 21 20
16 22 25 27 23 12 12 13 20 51 47 3 0 0 0 0
53 26 16 19 20 25 28 29 31 32 33 33 33 33 34 33
33 34 34 34 35 35 36 35 35 35 36 35 27 23 29 38
57 47 37 72 98 50 37 29 23 23 27 35 27 26 24 21
15 43 53 58 19 20 19 24 29 29 28 28 26 29 26 16
8 12 14 23 44 40 28 22 22 28 29 30 31 30 30 27
25 24 23 43 84 45 50 20 21 23 26 26 29 25 27 28
26 30 26 28 27 24 22 24 71 60 60 19 20 23 21 18
20 25 26 33 17 7 10 13 9 43 49 4 0 0 0 0
56 38 23 23 20 24 28 30 32 37 35 35 37 36 37 36
37 37 37 36 35 35 36 35 34 34 35 33 26 52 54 41
19 24 22 54 53 27 22 21 23 19 7 19 30 27 26 22
18 51 58 61 20 21 20 27 27 28 28 26 29 29 27 14
6 20 11 17 42 38 21 22 14 24 29 29 29 29 26 24
23 21 22 48 69 53 47 20 22 23 25 25 24 25 27 28
30 28 23 28 23 23 20 24 81 56 68 18 21 21 23 20
23 28 29 30 15 7 11 14 7 21 48 3 0 0 0 0
36 28 23 23 22 22 22 20 20 39 38 36 39 39 38 38
38 37 37 36 34 35 35 35 35 35 34 30 56 60 49 19
16 20 21 56 45 22 22 24 24 12 9 26 30 26 25 22
18 57 59 61 20 20 20 24 27 27 27 29 27 30 22 12
10 16 5 6 38 32 18 21 19 29 30 30 29 27 25 22
23 21 21 48 59 55 31 19 17 20 21 23 23 26 25 24
27 25 22 24 23 21 22 23 79 52 58 12 19 18 27 20
27 28 31 27 13 6 9 10 6 8 36 4 0 0 0 0
28 20 12 13 14 15 15 15 16 37 39 34 35 36 37 37
37 37 37 35 34 34 35 35 34 34 31 24 45 42 19 16
22 22 24 58 39 24 24 24 22 6 18 28 28 26 25 21
19 64 58 62 20 21 19 22 25 24 26 27 26 25 17 11
15 12 15 1 11 22 17 16 19 26 28 27 25 24 24 20
22 18 20 64 51 55 26 19 18 20 22 24 23 25 24 25
25 26 24 23 24 21 21 23 78 41 51 12 22 18 26 22
30 29 34 48 30 3 11 8 15 25 20 4 0 0 0 0
29 20 11 12 13 14 15 14 15 35 39 32 30 31 32 32
33 33 33 33 32 33 34 34 34 34 24 17 20 24 19 17
23 23 28 65 32 24 25 22 14 10 27 28 29 25 22 22
21 74 51 66 19 19 19 21 25 24 28 28 26 25 15 12
18 13 55 16 30 19 17 13 20 23 23 25 25 22 21 20
17 16 20 64 36 62 22 18 18 19 19 22 21 21 22 24
26 23 21 23 22 22 21 24 74 39 42 13 23 21 22 21
27 28 31 29 22 2 13 29 40 27 16 3 0 0 0 0
29 21 11 11 12 13 12 12 12 30 38 31 28 28 28 28
28 28 28 28 28 30 33 34 34 32 12 17 18 26 18 19
23 24 34 63 30 26 24 19 11 19 28 27 27 25 23 19
23 79 46 59 16 18 20 21 25 24 25 25 23 21 11 10
17 17 63 34 49 20 17 14 22 25 23 24 23 23 21 20
19 18 19 76 34 58 20 20 24 25 31 27 19 21 21 22
20 22 22 22 19 21 22 29 72 34 30 14 19 18 20 23
24 32 41 74 5 12 42 23 14 28 27 7 0 0 0 0
29 22 12 15 17 21 24 22 14 24 39 32 28 28 28 28
27 27 27 26 26 28 32 34 34 27 8 15 20 28 21 21
25 23 49 54 27 26 22 14 13 24 28 27 26 22 23 22
25 88 44 64 15 19 20 21 21 20 24 22 24 19 9 25
57 41 118 74 59 22 45 19 22 25 33 40 32 35 28 25
31 32 41 125 78 143 66 53 71 64 63 57 51 45 26 23
19 22 23 20 18 21 21 36 63 40 21 14 16 15 19 23
24 31 19 53 19 33 19 30 40 32 13 9 0 0 0 0
