P2
128 120
157
52 51 50 49 48 47 46 45 44 43 43 42 41 40 40 39
38 37 37 35 35 34 34 33 32 32 30 30 29 29 28 26
26 26 25 10 0 0 0 0 0 0 0 0 0 0 0 7
13 9 3 0 0 0 0 0 0 0 0 0 0 0 6 0
0 0 0 0 1 1 1 1 0 0 0 0 0 0 0 1
2 5 10 16 22 25 25 25 26 26 27 28 28 29 29 30
31 31 32 33 34 35 36 36 36 37 38 39 39 40 41 40
40 42 43 44 45 46 47 48 48 48 49 49 49 49 49 50
51 51 50 48 48 48 46 46 45 44 43 42 42 41 40 39
38 37 36 35 35 34 33 33 32 32 32 30 30 29 28 28
27 27 26 22 8 0 0 0 0 0 0 3 8 8 2 17
21 19 16 11 5 1 0 0 0 0 0 0 0 1 7 0
0 0 1 0 1 0 0 0 0 0 0 0 1 5 9 15
20 24 25 25 26 26 27 27 28 29 29 30 31 31 32 33
34 34 34 36 36 38 38 38 39 40 41 41 41 42 43 44
45 46 46 47 48 48 48 49 49 49 49 49 49 51 51 51
51 51 50 49 49 48 48 46 46 44 43 43 42 41 40 39
39 38 38 37 36 35 34 34 33 32 32 30 30 29 28 29
27 27 26 25 19 14 8 1 0 4 11 15 18 15 6 19
24 21 19 19 17 13 7 1 0 0 0 0 0 0 0 0
0 0 0 0 0 0 0 0 1 2 5 11 17 23 25 26
25 26 26 27 28 28 29 30 30 31 31 32 33 33 35 35
36 37 37 38 39 40 41 41 41 42 43 44 45 45 46 46
47 47 48 48 49 49 50 51 50 51 50 51 51 51 52 51
51 50 49 49 49 48 47 46 45 44 44 44 42 41 41 40
39 39 38 36 36 35 35 34 34 33 32 31 31 30 29 28
28 27 26 25 22 17 15 14 11 13 19 21 23 19 7 20
25 22 22 20 19 18 16 13 6 0 0 0 0 0 0 0
0 0 0 0 0 1 4 8 15 19 23 24 25 26 27 28
28 29 29 29 30 31 31 32 33 33 34 34 36 36 37 37
39 39 39 40 40 41 41 43 44 43 45 45 47 48 48 49
49 48 49 50 50 50 50 50 50 50 50 51 51 51 52 52
52 50 50 49 49 48 47 46 46 45 43 43 42 42 41 40
39 38 37 37 36 36 35 34 34 33 33 32 31 30 29 29
28 27 27 26 23 20 17 16 17 21 23 24 24 20 10 19
27 26 24 21 20 20 19 16 14 11 8 1 0 1 3 4
1 0 1 4 11 17 21 25 25 24 26 27 27 27 29 29
29 30 30 31 32 33 34 34 35 36 37 37 37 38 39 39
40 39 40 41 43 43 44 45 47 46 46 47 47 48 48 49
49 49 49 50 51 50 50 50 50 51 51 52 51 51 52 51
52 51 50 49 49 48 47 46 46 45 44 44 43 41 41 41
40 39 38 36 37 36 35 35 35 33 33 32 32 31 30 30
29 29 28 27 24 22 20 18 18 22 24 25 25 23 15 22
32 29 26 26 24 21 19 18 15 14 12 11 12 17 19 19
7 9 18 22 25 25 25 26 27 27 28 29 30 30 31 31
32 33 33 33 34 34 35 36 36 37 38 38 38 39 40 41
42 43 44 45 45 46 46 46 47 48 47 48 49 50 49 49
50 50 50 50 50 50 50 50 50 50 51 50 51 51 52 52
52 51 51 50 49 48 48 47 47 45 45 43 44 42 41 41
40 40 39 38 37 36 36 35 35 34 33 33 32 31 30 30
29 28 28 27 26 24 22 20 19 23 26 27 29 26 19 25
34 30 27 26 26 25 23 20 18 16 15 14 20 23 21 21
19 23 25 26 27 28 28 29 29 30 30 31 31 32 32 33
33 34 34 35 36 36 37 38 38 38 38 39 40 41 42 43
43 44 45 45 46 47 47 47 49 49 49 49 49 49 50 50
49 49 50 49 50 51 50 51 51 50 51 51 51 51 51 51
53 51 51 50 49 48 47 47 47 46 45 45 44 43 43 41
41 40 39 39 37 37 37 36 35 35 34 34 32 32 31 30
30 30 29 28 27 26 23 21 21 25 28 30 32 29 20 24
36 32 29 28 27 26 24 24 20 19 17 16 19 23 23 22
24 26 27 28 29 30 30 30 30 31 32 33 33 33 34 35
35 37 36 37 37 37 37 37 38 40 40 41 42 43 44 44
45 46 46 47 48 48 48 48 49 50 49 49 49 50 50 50
50 50 50 50 51 51 50 51 50 50 51 52 51 51 52 52
52 51 51 50 50 49 48 47 47 46 45 44 44 43 42 42
40 40 39 39 39 38 37 36 36 35 34 34 33 32 31 31
31 30 30 29 27 26 25 24 24 28 31 33 33 29 19 22
35 32 30 29 28 27 26 24 22 24 22 17 17 24 22 24
25 28 29 30 31 31 32 33 32 33 34 34 35 34 35 36
36 36 37 36 37 38 39 39 41 42 42 43 43 44 44 45
46 46 46 47 48 48 49 48 49 50 49 49 49 49 49 50
49 50 50 50 51 50 51 51 51 51 52 52 52 50 49 50
53 52 51 51 49 48 48 47 47 46 45 45 44 43 43 42
41 40 40 38 38 38 37 36 36 36 35 34 34 33 32 32
32 31 30 29 28 28 26 25 24 29 33 34 35 31 21 22
37 34 31 31 30 28 27 24 23 24 24 19 17 25 23 26
27 30 31 31 32 34 33 33 34 34 35 35 36 35 36 36
37 37 38 38 40 39 40 40 42 43 43 43 44 44 45 46
46 47 47 48 48 49 49 49 50 51 49 49 49 50 50 49
50 50 51 51 51 51 51 51 50 49 49 49 51 52 52 52
52 52 51 51 51 49 49 48 48 48 47 45 45 44 43 42
42 41 40 39 39 38 38 37 37 36 35 34 34 33 33 33
32 32 31 31 30 30 29 27 27 32 36 36 36 31 22 22
38 34 32 31 31 29 29 26 25 26 25 22 17 25 24 27
30 30 32 33 33 34 35 35 35 35 36 36 36 37 37 38
38 39 39 40 40 40 42 42 43 45 44 44 45 46 46 46
47 47 47 48 48 48 48 49 49 51 49 50 50 50 51 51
50 51 51 50 50 49 50 51 51 51 51 51 52 52 51 51
53 52 51 51 50 50 49 48 47 47 46 45 44 44 44 43
43 42 41 40 40 39 38 38 38 36 36 35 34 34 34 33
32 32 32 31 30 30 30 30 29 33 36 36 37 33 24 21
39 36 33 33 32 31 29 27 28 27 26 24 20 25 27 30
32 32 33 34 35 35 35 35 36 36 36 37 38 38 38 39
39 40 41 41 41 42 43 42 43 45 44 45 46 46 47 47
47 47 48 48 49 49 50 49 49 51 49 50 51 51 51 49
49 49 51 51 52 52 52 52 52 52 51 52 52 52 52 52
52 51 51 51 50 50 49 48 48 47 46 45 45 44 44 43
42 41 41 41 39 39 39 38 37 37 37 36 36 35 34 33
33 33 32 32 31 30 30 31 32 34 38 37 37 33 26 22
38 36 33 33 32 32 30 29 29 28 28 25 21 26 28 31
33 33 34 34 34 35 36 36 37 38 38 38 39 38 39 39
40 40 40 41 41 42 43 43 44 46 45 45 47 47 47 48
47 48 48 49 49 49 49 50 50 51 49 48 48 50 50 51
51 52 51 52 51 52 51 51 52 51 52 52 52 52 51 52
53 52 51 51 51 50 49 48 48 47 47 46 45 44 44 44
44 42 41 41 40 39 39 38 38 37 37 36 36 35 35 34
34 33 33 32 32 31 31 31 32 36 38 38 39 34 27 23
38 37 34 34 33 32 32 32 30 28 28 26 22 27 30 33
33 33 33 35 36 37 37 37 38 38 39 39 40 40 39 40
40 41 42 42 42 43 43 43 44 46 45 46 46 47 47 48
47 48 48 50 50 50 48 48 48 48 49 51 51 51 50 51
51 51 50 52 52 51 51 52 51 51 52 51 51 52 51 51
52 52 51 51 50 49 49 49 48 47 47 46 45 45 44 43
43 42 41 40 40 39 38 39 38 37 37 36 36 36 35 34
33 33 33 32 32 32 31 31 33 36 39 40 39 35 27 23
36 37 34 34 33 32 31 30 30 28 28 27 24 27 29 33
34 34 34 35 36 36 37 37 38 38 39 39 40 40 40 41
41 41 42 41 42 42 43 43 44 46 45 46 47 47 48 47
46 45 47 46 46 47 49 49 50 49 50 50 50 51 51 50
51 51 51 52 52 51 51 51 51 51 50 51 52 51 51 51
53 51 51 51 50 49 48 48 47 47 46 45 45 45 44 43
43 43 42 41 40 40 39 39 38 37 37 36 35 35 35 34
34 33 33 32 32 32 32 32 33 37 39 39 39 35 28 23
35 37 34 33 34 33 32 31 30 29 28 27 25 29 31 34
34 34 34 35 36 37 37 38 38 38 39 39 40 40 40 40
41 41 41 41 43 43 44 44 45 46 45 46 46 46 45 44
47 47 48 49 49 49 50 49 49 49 50 50 50 49 50 50
50 50 50 51 51 51 52 51 52 51 51 51 51 51 51 50
52 51 50 50 49 49 48 47 47 47 46 45 45 44 43 42
42 41 40 40 40 39 38 38 38 37 36 36 36 35 35 34
34 33 33 32 32 31 31 31 33 36 39 39 39 35 28 22
32 36 32 32 33 32 31 32 31 28 26 25 20 25 27 28
27 31 33 31 35 36 37 37 37 38 39 39 39 40 40 40
40 41 41 41 42 43 43 43 44 44 43 44 43 44 46 47
47 49 47 47 48 48 48 48 48 48 48 50 50 49 49 49
50 49 50 50 50 50 50 50 50 50 50 50 50 49 49 49
51 51 50 50 49 49 48 47 47 46 45 45 45 43 44 43
42 42 41 40 40 39 39 38 38 37 36 35 35 34 35 34
34 33 33 32 32 32 32 32 33 37 40 40 40 35 30 16
26 36 34 34 34 32 32 33 29 19 20 20 17 14 17 19
15 25 30 28 29 36 37 38 38 39 40 39 40 40 40 41
41 41 42 42 42 42 42 41 42 42 44 46 45 46 47 47
47 49 48 48 49 48 49 49 49 50 49 49 49 49 49 49
49 49 50 50 50 50 50 50 50 50 50 49 50 49 49 49
51 50 51 50 49 48 48 48 47 46 46 45 45 44 44 43
42 42 41 40 40 40 39 38 38 38 37 37 36 36 35 35
34 34 33 33 33 32 32 32 34 38 41 40 40 36 28 21
30 38 35 34 34 33 33 32 29 16 9 6 11 7 7 9
16 14 11 14 18 27 36 38 38 38 39 40 40 41 41 41
42 42 41 41 41 42 43 44 44 45 45 46 47 47 47 48
48 50 49 49 49 48 49 48 49 48 49 49 49 50 50 50
50 50 50 50 50 50 50 50 50 49 50 50 50 50 50 50
51 50 50 49 49 48 48 48 48 47 46 46 45 45 44 44
43 42 42 42 41 40 40 39 38 37 37 37 36 36 35 35
35 34 34 34 33 33 32 33 34 38 41 40 40 36 28 27
29 39 36 36 35 34 33 29 26 13 8 4 5 8 5 7
11 9 6 9 12 22 33 38 39 40 40 41 40 40 41 41
41 41 42 42 43 44 44 45 45 46 46 47 47 47 47 48
48 49 49 49 49 49 49 49 50 49 49 49 50 49 50 50
49 49 50 50 50 50 51 50 51 51 51 51 51 50 49 48
52 51 50 49 49 49 49 48 48 47 47 46 45 45 44 44
44 43 42 41 41 40 40 39 39 38 37 38 38 37 36 36
35 35 34 34 34 33 33 33 34 38 41 41 40 37 29 29
29 39 36 35 33 31 30 21 17 7 7 3 4 8 8 9
6 5 4 6 12 21 31 35 37 39 39 40 39 40 41 42
42 43 44 43 44 44 44 45 45 46 46 46 48 48 48 49
49 50 50 49 50 50 50 50 50 50 50 50 50 50 50 50
50 50 51 51 51 51 51 51 50 49 49 49 49 50 50 51
51 51 50 50 49 49 49 49 48 47 46 46 45 45 45 44
44 43 42 42 41 41 40 40 39 39 38 38 38 37 36 36
36 36 35 34 34 34 34 34 35 39 42 42 41 38 29 31
28 39 35 32 21 11 19 14 13 5 4 3 6 8 8 7
4 10 2 2 12 22 18 25 29 38 40 40 41 41 41 42
43 42 44 43 43 44 45 45 46 47 47 47 48 48 48 49
49 49 49 50 49 49 49 50 50 50 50 49 50 50 50 51
51 50 50 51 51 50 50 50 50 51 51 51 51 50 49 50
52 51 50 49 50 49 49 48 48 48 47 46 46 46 45 45
44 43 43 42 41 41 41 40 40 40 39 38 38 37 37 36
36 36 35 34 34 34 34 34 35 39 42 41 42 38 31 33
30 38 30 13 7 4 7 4 8 8 2 5 8 7 8 11
4 10 3 6 13 7 8 11 22 33 36 40 41 42 43 43
43 44 44 45 45 45 46 45 47 46 47 47 48 48 49 50
50 50 51 50 50 50 50 50 50 50 50 50 51 50 51 51
50 50 50 50 51 51 52 52 50 50 51 50 50 50 51 50
51 50 50 50 50 49 48 48 48 48 47 47 46 46 45 44
44 43 43 43 42 41 41 41 40 40 39 39 39 38 38 37
36 36 36 35 35 34 35 35 36 39 42 43 42 38 30 33
29 31 24 7 4 1 2 4 6 5 3 2 3 3 1 7
1 5 2 5 9 3 6 6 9 11 29 37 40 42 42 42
43 44 44 44 44 45 46 46 47 47 48 48 48 48 49 50
50 50 50 50 50 51 51 50 51 50 50 50 50 50 50 51
50 51 50 50 49 50 50 51 51 50 50 51 50 51 51 50
52 51 51 50 50 49 49 48 48 48 47 47 47 46 45 45
45 44 44 43 42 41 41 41 40 39 39 39 39 38 38 38
37 36 37 36 35 35 34 35 36 39 43 43 43 40 31 34
31 31 25 5 5 1 2 1 4 3 4 1 0 2 0 1
2 5 3 3 10 6 7 8 11 13 22 31 38 42 43 44
44 44 45 45 46 46 46 46 46 47 47 48 48 48 49 49
50 50 51 51 50 51 50 49 50 50 49 50 51 50 50 51
50 50 50 50 50 50 49 50 50 50 50 50 51 49 49 49
51 50 51 50 50 50 50 49 49 48 48 47 47 46 45 45
44 44 43 43 43 42 42 41 41 40 40 40 39 39 38 37
37 37 36 36 35 35 35 35 37 40 43 44 43 40 32 34
33 32 18 2 4 4 2 1 2 0 0 0 2 1 1 0
0 0 1 0 8 7 6 8 10 14 16 23 31 37 43 44
44 44 45 45 46 46 46 46 47 48 48 49 49 50 50 49
49 48 49 48 48 49 50 51 51 51 50 51 50 50 51 51
50 50 50 51 50 49 50 49 51 50 50 50 49 50 50 49
52 51 50 50 50 50 49 49 48 47 48 47 47 46 46 45
46 45 44 44 43 43 42 42 42 41 41 40 40 40 39 38
37 37 36 36 36 36 35 36 37 40 44 43 43 40 32 35
35 25 13 2 3 4 3 1 4 2 0 0 0 1 0 0
2 2 0 1 1 3 4 3 7 7 10 12 24 28 34 42
45 45 46 46 46 47 48 47 47 48 49 48 47 48 48 48
49 49 50 51 51 51 51 51 51 52 52 50 51 50 51 50
50 51 51 51 51 50 50 50 50 51 52 50 51 51 50 50
51 51 50 50 50 50 50 50 49 48 48 47 46 47 46 45
45 45 44 43 43 43 43 42 42 41 41 41 40 39 40 38
38 38 37 37 37 36 36 36 38 41 45 43 44 41 31 31
28 15 3 0 1 1 2 0 2 1 0 0 0 1 0 0
0 0 2 5 0 0 0 4 5 10 13 13 8 15 16 32
42 45 46 45 47 46 47 47 47 47 49 48 49 49 50 50
51 50 51 51 51 51 51 51 51 52 52 51 50 51 51 51
50 50 51 51 51 50 50 49 50 51 51 50 51 52 51 50
51 51 50 51 50 50 50 49 48 48 48 48 47 47 47 46
46 45 45 44 44 44 43 43 42 42 41 40 40 40 40 39
38 38 38 37 36 36 36 37 37 41 45 44 44 42 32 31
27 3 3 2 1 3 1 3 2 0 0 0 0 0 0 0
0 0 1 0 0 2 0 4 6 6 11 13 13 20 25 17
36 43 46 45 46 46 46 47 48 48 49 49 49 50 51 51
51 51 51 52 52 52 51 51 52 52 52 50 51 50 50 50
50 50 51 50 50 51 51 50 50 50 51 50 50 50 50 51
51 51 51 50 50 50 50 50 49 49 49 48 48 47 47 46
46 45 45 44 44 43 43 42 43 42 42 41 40 40 40 39
39 38 37 37 37 36 37 37 39 41 45 46 45 42 31 27
17 5 2 4 1 1 0 0 0 1 0 0 3 6 7 5
5 8 7 5 3 3 1 0 0 0 9 8 10 18 21 21
25 42 44 45 46 47 47 48 48 49 50 50 51 50 51 51
51 51 51 51 51 51 51 51 51 52 52 50 51 51 51 52
50 50 51 52 51 51 50 51 51 51 51 50 50 51 51 51
51 51 51 51 50 49 49 48 48 49 48 48 47 47 47 46
46 46 45 45 44 44 44 43 43 42 41 41 41 40 40 40
39 39 38 38 38 37 37 38 39 41 45 45 45 41 29 23
18 6 3 0 0 0 0 0 1 4 12 14 21 28 25 22
22 21 20 22 19 11 5 1 0 0 0 2 6 17 29 20
17 37 45 45 47 47 47 48 48 48 50 50 50 50 51 50
51 51 51 51 51 51 51 51 51 51 52 50 50 51 50 50
50 50 50 51 51 50 51 51 51 51 52 51 51 51 49 48
52 52 51 50 50 51 50 50 49 49 49 48 48 47 47 46
46 45 45 44 44 44 44 43 43 42 42 42 41 41 41 40
39 38 39 38 39 37 38 38 39 42 46 46 43 36 24 17
12 8 2 0 0 0 0 3 11 13 20 28 35 46 50 47
42 44 43 47 45 34 20 9 0 0 0 2 7 6 18 28
17 28 46 47 47 47 48 48 49 49 51 50 51 51 51 52
52 51 51 51 51 51 51 51 51 51 53 51 51 51 51 51
51 50 50 51 51 51 52 51 51 50 49 48 45 46 46 47
51 51 52 51 50 49 50 49 49 48 48 48 47 47 47 46
46 46 45 45 44 43 43 43 42 42 42 41 41 41 40 40
39 39 38 38 38 38 37 38 39 42 46 46 41 35 13 20
10 7 2 0 0 0 9 17 23 25 35 46 48 50 62 68
63 60 61 63 61 60 49 34 12 0 0 0 3 11 10 15
19 27 46 47 48 48 47 49 49 49 51 49 50 50 50 51
51 51 51 51 51 50 51 51 51 51 52 51 51 51 51 51
51 51 51 50 50 50 49 49 49 49 50 50 50 49 49 48
52 51 51 51 50 49 50 50 49 49 48 48 48 48 47 47
46 46 45 45 44 44 44 43 43 43 43 42 42 42 41 40
39 39 38 38 38 37 38 38 40 42 47 46 41 23 20 14
15 7 0 0 0 10 28 41 45 47 55 68 81 82 83 82
82 82 82 85 75 73 66 50 36 15 0 0 0 3 13 10
13 30 45 47 48 47 48 49 49 50 50 50 50 51 51 51
51 50 51 51 50 50 51 51 51 51 52 51 51 52 51 50
51 50 50 49 50 50 52 51 50 49 49 49 49 49 49 48
51 51 51 50 50 50 49 49 49 49 49 48 48 47 47 46
46 46 45 44 45 45 44 44 44 43 42 42 42 42 41 40
40 40 39 39 38 38 38 39 40 42 47 45 37 20 13 13
10 3 0 0 14 35 45 56 67 72 86 95 101 104 106 98
96 98 100 97 94 90 85 68 49 39 12 0 0 2 9 8
13 34 44 47 47 48 49 49 49 50 51 50 50 51 51 50
50 51 50 51 52 51 51 52 51 51 49 46 47 49 49 49
50 51 51 52 49 49 50 49 49 49 49 49 49 49 48 47
52 51 51 51 51 50 50 49 50 49 49 49 48 48 48 47
46 46 45 46 45 44 44 44 44 43 43 43 43 42 42 41
41 41 40 40 39 38 38 39 40 42 48 47 40 8 10 11
8 4 0 10 38 55 65 77 81 92 107 111 113 115 118 113
106 105 103 101 95 96 96 86 66 47 37 4 0 2 7 4
9 33 43 49 48 49 48 49 49 50 50 49 50 50 51 51
52 51 51 51 51 50 49 49 49 50 50 50 51 51 50 50
49 51 50 51 49 49 49 49 50 49 48 49 48 49 48 47
33 47 51 51 51 51 50 50 49 50 49 49 49 47 47 47
47 46 46 46 45 45 45 44 44 43 43 42 43 41 41 41
41 40 40 40 40 40 40 39 41 43 48 47 31 7 5 8
5 0 6 36 56 74 79 90 95 108 116 115 115 118 121 116
110 106 104 102 98 93 95 92 79 58 50 21 0 1 12 4
3 18 43 47 48 49 49 50 50 50 51 50 51 50 51 50
50 49 49 48 48 50 51 51 51 51 50 50 50 50 51 50
51 50 50 51 49 50 48 50 50 50 49 49 49 48 48 46
24 46 51 51 51 51 50 49 49 49 50 49 48 49 48 48
47 48 46 46 45 45 45 45 44 44 44 43 43 42 43 42
41 40 41 40 40 39 39 39 40 43 48 46 23 6 4 4
7 4 28 51 71 84 90 95 102 110 117 118 117 118 121 118
115 110 106 104 101 98 93 92 84 66 57 46 7 0 10 14
0 7 42 48 49 49 50 50 49 49 49 49 50 49 50 50
50 51 52 51 51 51 51 51 50 50 50 49 49 50 50 50
51 50 50 51 50 49 49 49 51 49 49 49 49 48 48 48
24 45 52 51 51 50 49 48 49 50 49 49 49 48 47 46
47 47 46 46 45 45 46 45 47 52 50 46 44 42 41 41
41 41 41 41 40 40 40 40 41 43 48 45 18 6 4 4
3 14 45 61 80 91 93 96 105 111 115 117 118 120 122 120
119 115 109 105 105 104 98 93 86 73 62 57 24 1 7 12
6 3 36 47 49 48 48 49 48 49 48 49 50 49 50 49
50 50 51 50 50 50 50 50 50 51 50 49 50 49 50 49
49 49 49 51 49 49 49 50 50 49 49 47 48 48 48 47
26 45 52 52 51 50 50 55 61 58 56 52 50 48 47 48
48 47 47 46 46 46 45 44 52 63 60 54 53 50 45 42
42 42 42 41 41 40 40 40 41 43 48 44 9 9 1 2
10 37 55 69 83 91 98 98 106 114 116 117 120 123 124 121
121 119 115 113 109 106 103 95 91 84 67 63 46 7 9 7
5 0 26 44 48 48 48 49 48 47 49 49 49 49 49 50
50 50 51 52 51 51 51 51 50 50 51 50 49 49 50 50
49 50 50 51 49 49 49 49 49 49 49 48 48 48 48 47
27 47 52 52 51 50 50 59 66 63 61 57 55 54 53 49
48 47 47 46 45 46 46 45 53 60 57 54 55 55 51 43
41 41 41 41 40 40 40 40 41 42 48 34 21 5 3 5
19 52 58 73 85 91 100 102 111 117 119 122 125 127 128 127
125 122 122 119 116 110 106 99 95 88 71 68 56 20 7 6
7 1 12 44 46 47 48 48 49 49 49 49 48 49 49 49
49 48 50 50 49 50 50 49 49 49 50 50 50 49 50 50
50 49 49 49 49 49 50 49 48 50 49 48 49 48 48 47
28 51 54 53 52 51 50 59 65 63 59 57 60 62 63 55
57 55 52 47 47 46 46 45 50 50 50 50 55 56 53 44
42 42 42 42 41 40 40 40 41 41 46 33 24 2 3 6
36 58 63 78 89 93 100 109 113 122 124 127 129 132 132 129
127 128 129 125 123 115 109 103 96 90 75 71 62 36 6 0
1 1 20 45 48 48 48 48 48 49 48 49 48 49 49 49
50 50 50 51 50 49 51 50 49 49 49 49 49 49 49 49
50 49 49 49 50 49 49 50 49 50 49 49 49 48 47 47
29 53 57 53 55 54 54 57 40 47 57 60 64 65 63 47
42 51 54 54 53 53 52 48 48 31 25 26 30 36 45 45
42 42 41 41 41 40 41 40 42 41 42 28 13 2 2 8
45 60 67 81 91 96 105 113 115 125 129 131 134 137 137 134
133 137 137 135 128 120 113 105 98 92 81 73 64 43 9 0
0 0 14 39 46 47 47 48 48 48 48 48 49 49 48 49
49 49 49 51 50 49 50 49 49 48 49 49 49 49 49 49
50 49 49 50 49 49 49 49 49 48 49 48 48 47 47 46
28 52 58 47 47 54 60 60 7 1 19 38 43 47 57 31
1 6 14 27 34 43 52 51 48 28 13 17 17 6 16 46
43 43 43 42 41 40 41 41 42 41 40 31 10 2 0 14
53 66 69 82 93 99 108 116 125 129 136 136 138 139 139 135
136 141 140 139 131 124 116 108 103 95 86 78 65 47 17 0
0 3 14 40 47 48 48 48 48 47 48 49 49 48 48 48
48 48 49 51 50 49 49 49 49 49 49 49 49 49 49 49
50 50 50 50 50 50 49 49 48 48 47 46 45 46 47 47
27 43 54 57 56 56 65 64 9 0 7 19 22 22 42 30
0 0 0 0 3 3 10 24 49 27 5 8 10 5 13 48
43 42 42 42 41 41 40 41 42 42 35 32 6 0 1 23
59 67 71 81 93 102 110 119 126 130 136 138 138 141 141 139
140 140 137 137 132 125 121 111 104 98 89 83 70 48 22 1
0 6 35 48 48 48 47 48 48 49 48 49 49 48 49 49
48 49 49 50 49 48 49 49 49 49 50 50 50 49 49 50
51 50 51 48 46 47 47 47 47 47 48 48 49 48 48 48
23 5 8 18 32 46 56 61 11 0 4 12 14 17 39 34
2 0 0 0 0 0 0 9 49 21 0 0 5 3 13 49
43 42 42 42 41 41 41 41 42 41 30 25 1 0 0 30
62 70 76 82 92 103 112 119 126 130 130 132 133 138 140 139
141 136 137 135 132 126 123 115 108 101 90 87 74 52 24 1
0 3 28 47 48 48 48 48 48 48 49 48 48 48 49 49
49 49 49 49 49 49 49 48 49 49 49 49 49 50 50 49
49 49 50 49 49 49 49 48 47 48 48 48 50 47 48 47
22 2 0 0 0 1 6 27 13 0 1 3 1 8 33 31
0 0 0 0 1 0 0 8 48 11 0 0 1 3 15 51
44 43 43 42 41 41 41 41 43 42 30 16 0 0 0 34
61 70 79 85 93 103 111 118 127 134 136 138 140 143 144 140
140 139 139 140 136 133 124 117 111 105 95 88 78 57 27 2
0 3 25 41 47 48 47 48 48 48 49 49 49 49 49 49
50 50 50 49 50 50 50 50 50 50 50 49 50 51 51 50
50 49 49 48 48 48 48 48 47 47 48 47 50 48 49 49
22 2 0 0 0 0 0 13 12 0 0 0 0 3 36 32
0 0 0 10 14 2 0 6 47 9 0 0 0 1 14 51
43 43 43 42 42 42 42 42 43 44 35 5 0 0 1 33
59 71 83 90 96 104 112 120 127 136 138 138 141 142 144 143
141 145 144 142 142 138 129 121 113 107 97 90 81 61 29 3
0 1 24 47 47 48 48 48 49 49 49 49 49 49 49 49
49 49 48 49 50 51 51 50 50 50 50 50 50 51 50 49
49 49 49 49 49 49 50 49 49 49 49 49 50 48 48 49
23 2 0 0 0 0 0 11 11 0 0 0 0 2 39 35
0 0 1 14 22 15 7 4 47 7 0 0 0 0 10 50
43 43 42 42 42 41 41 42 43 44 42 3 0 0 1 34
58 70 83 91 99 106 116 125 134 139 142 143 144 145 146 145
149 149 149 146 141 132 118 108 97 93 96 90 82 65 32 6
0 5 30 40 47 48 49 49 49 49 49 48 49 48 48 49
48 49 50 51 49 50 49 49 49 47 49 50 50 50 50 49
50 49 49 50 51 50 50 50 50 51 49 48 49 47 46 45
22 2 0 0 14 4 0 10 9 2 0 0 0 2 36 37
0 0 3 17 23 21 19 6 47 9 0 0 0 0 8 52
43 43 43 42 42 42 42 42 44 44 41 4 0 0 0 31
59 70 82 94 102 109 116 127 135 143 145 147 149 150 148 150
151 150 149 139 121 91 67 47 35 40 66 72 74 60 24 6
0 6 10 17 43 48 48 48 50 49 49 49 50 49 48 49
49 49 49 50 49 49 50 49 49 49 49 50 51 50 50 50
51 50 51 51 50 49 49 49 50 48 47 46 46 45 43 40
23 3 12 9 10 3 0 9 11 2 0 0 0 8 37 40
0 1 2 15 21 21 19 6 46 15 2 0 0 0 7 52
44 43 43 42 42 42 42 43 44 44 39 10 0 0 0 26
59 70 82 92 90 90 95 105 116 132 141 146 151 152 152 151
151 144 120 64 28 23 31 36 47 60 64 61 56 87 42 7
0 13 31 32 33 49 48 49 49 49 50 50 50 50 49 49
49 50 50 50 50 49 51 50 50 50 50 51 51 51 51 51
51 50 48 46 46 47 48 47 44 40 35 31 27 24 21 20
23 8 14 1 7 5 0 11 13 0 0 0 0 14 42 44
3 4 6 2 9 18 17 4 47 50 40 30 21 16 21 53
44 44 43 43 43 43 43 43 45 45 45 22 5 0 0 22
60 70 78 68 42 44 38 36 40 60 82 113 136 148 150 148
145 112 37 21 20 13 7 9 18 44 116 125 41 15 15 4
3 15 24 34 41 47 50 50 50 50 50 51 49 50 50 50
50 50 50 50 50 50 50 50 50 49 50 51 49 49 49 47
49 45 41 38 34 30 27 24 21 21 20 21 22 23 24 25
22 8 3 0 0 2 0 15 37 20 15 14 4 3 37 65
46 40 34 23 12 10 11 4 46 59 56 55 55 60 62 59
44 44 43 43 43 42 42 43 44 45 49 36 17 1 0 14
55 57 56 44 58 61 47 38 30 26 24 37 90 128 140 139
130 72 32 16 5 0 4 5 16 59 146 145 46 22 26 3
3 15 20 32 43 46 50 49 50 50 50 50 50 50 50 49
49 50 50 48 48 47 50 48 48 46 47 44 41 36 32 28
25 24 22 21 22 22 23 24 25 26 27 28 28 29 29 30
23 3 0 0 0 0 0 18 69 62 53 53 51 41 54 63
31 33 37 41 41 41 43 44 60 55 55 56 58 64 67 61
44 44 43 44 43 43 43 43 45 45 50 47 43 16 0 8
53 67 59 57 123 121 26 10 2 2 5 16 40 91 127 129
110 42 22 2 0 0 2 12 23 47 92 83 32 17 37 12
1 11 36 41 47 48 50 50 50 50 50 50 49 49 48 48
47 49 48 47 45 42 39 36 33 30 27 25 24 24 24 25
26 28 28 29 27 22 31 32 33 34 35 34 36 35 23 35
25 5 0 0 0 0 0 19 71 59 62 67 71 68 63 53
24 22 23 22 23 23 25 28 33 29 35 41 48 51 50 51
44 44 43 43 43 43 43 43 44 45 51 49 46 28 2 9
29 12 9 44 131 122 18 6 1 0 0 0 5 43 81 85
50 29 15 0 0 0 1 16 23 36 31 25 23 19 35 19
2 29 59 51 48 49 50 50 49 50 50 50 48 47 50 43
37 34 32 29 27 26 27 27 28 27 29 29 30 32 32 33
34 35 36 37 36 15 36 39 39 39 34 35 40 28 36 43
28 41 39 27 17 9 4 22 62 53 64 68 72 70 58 46
26 24 22 21 19 18 17 17 16 16 18 19 37 43 39 39
42 44 44 43 43 43 43 43 45 45 50 50 39 18 6 1
8 1 10 28 55 50 18 13 4 0 0 0 1 23 28 34
33 38 4 0 0 0 0 3 8 10 9 9 15 14 26 28
4 35 72 58 50 49 48 46 42 39 36 33 30 30 47 36
21 25 28 28 29 30 32 33 35 35 37 37 39 39 40 41
41 33 34 41 42 26 31 43 43 43 28 39 39 30 44 44
29 55 68 66 61 58 53 56 53 46 60 64 68 69 61 52
30 25 22 19 17 17 17 17 17 18 18 19 38 26 30 43
44 44 43 42 43 42 43 44 45 44 49 50 25 7 5 0
7 1 6 17 27 27 10 5 1 0 0 0 0 19 21 40
37 42 3 0 0 0 0 0 0 2 5 4 12 12 21 39
13 42 78 60 35 33 30 28 28 27 28 29 30 29 39 32
26 32 35 37 38 39 40 41 42 42 42 42 42 43 43 43
45 44 38 36 46 41 21 46 46 43 27 41 28 39 41 46
28 55 69 67 66 66 67 69 42 13 20 29 38 46 45 51
31 22 18 9 9 9 16 20 20 18 22 24 41 37 36 51
49 47 24 25 43 43 42 43 43 42 48 48 38 17 11 0
8 0 4 8 14 11 3 0 0 0 0 0 0 17 71 121
108 40 13 0 0 0 0 0 0 0 1 1 8 9 21 47
14 22 52 55 28 30 31 32 34 34 35 36 37 36 43 38
31 39 41 42 43 43 44 45 45 45 44 45 45 45 46 45
46 46 46 38 36 44 19 38 46 41 26 31 36 42 43 46
28 48 61 62 63 65 67 68 34 0 0 0 3 14 25 51
30 20 16 1 0 0 8 14 11 6 14 16 38 53 47 46
48 50 43 38 43 42 42 43 31 27 44 47 40 32 29 0
9 0 2 3 0 0 0 0 0 0 0 0 0 23 91 122
114 59 26 0 0 0 0 0 0 0 0 1 5 5 30 50
4 16 48 62 36 37 38 40 40 41 42 42 42 40 37 33
34 42 44 45 46 46 47 47 48 48 48 47 46 45 46 45
46 47 47 47 38 36 34 23 44 38 29 24 45 40 43 45
35 41 45 47 50 49 55 62 28 0 0 0 2 2 16 53
28 18 15 2 0 5 2 0 1 0 2 5 34 54 39 34
34 38 42 44 42 42 42 43 25 25 42 46 41 36 27 4
14 1 1 0 0 0 0 0 0 0 0 0 1 26 106 124
116 89 32 6 0 0 0 0 0 4 10 9 11 10 36 59
7 29 81 67 41 43 43 44 45 44 44 44 44 39 16 12
29 45 48 48 47 47 47 48 48 48 48 48 48 47 47 47
46 47 47 47 47 37 32 14 23 19 22 36 45 40 44 43
31 32 32 36 45 43 50 61 26 0 0 0 2 0 6 54
22 12 2 0 0 14 10 4 2 0 0 0 30 55 40 28
43 40 38 42 43 42 42 42 37 32 44 45 46 39 31 3
20 1 1 1 0 0 0 0 0 0 0 0 7 39 106 126
114 106 57 27 0 0 0 0 0 6 9 5 3 16 53 60
19 47 97 79 45 45 46 46 46 46 44 42 40 38 15 10
23 44 48 49 49 48 48 49 48 48 48 48 48 48 47 46
46 45 45 46 48 45 35 14 0 2 29 41 43 39 44 40
30 32 36 39 46 46 54 60 25 0 0 0 0 0 7 54
8 0 0 0 1 8 18 11 2 0 0 0 31 57 39 22
36 32 35 41 43 42 43 43 41 36 46 46 44 45 37 1
26 3 0 0 0 0 0 0 0 0 0 0 14 62 105 132
117 104 103 39 24 0 0 0 0 0 0 0 3 37 73 60
19 31 89 77 46 47 46 46 47 28 12 8 19 33 12 8
22 44 47 49 49 47 48 47 47 48 48 48 48 48 47 46
46 45 46 46 46 44 45 29 0 7 39 41 36 36 41 41
30 14 8 14 22 30 38 45 23 0 0 0 0 0 9 54
9 0 0 0 2 8 22 18 15 1 0 0 29 56 41 21
27 26 32 41 42 43 42 43 42 37 44 47 45 44 34 4
39 17 0 0 0 0 0 0 0 0 0 3 25 78 110 134
116 100 111 89 37 28 1 0 0 0 3 13 36 82 75 55
18 22 77 77 47 47 47 48 47 30 23 30 37 37 6 1
20 43 46 48 47 47 48 48 48 47 47 47 48 47 46 46
46 45 44 44 44 44 46 40 3 10 43 39 31 32 39 43
35 11 0 0 0 0 0 7 20 0 0 0 0 0 10 52
5 0 0 0 5 23 25 21 19 1 0 2 29 57 45 32
29 23 30 39 42 42 43 42 42 35 41 44 40 29 37 5
39 41 13 0 0 0 0 0 0 0 0 13 54 80 114 133
116 99 102 113 105 66 42 25 26 33 52 75 97 86 70 51
15 22 72 74 47 47 47 47 47 47 46 45 45 38 12 3
21 43 47 48 48 47 47 47 47 47 46 46 47 47 46 46
46 46 45 44 44 45 45 41 5 7 43 42 31 31 43 44
34 13 0 0 1 0 0 4 19 0 0 10 8 0 7 50
3 0 0 0 4 20 29 12 7 0 1 4 26 56 47 33
17 7 21 38 42 43 42 42 41 31 25 21 12 19 47 8
32 60 31 6 0 0 0 0 0 6 20 47 86 84 124 136
127 108 93 102 134 139 137 133 133 133 132 119 105 83 65 43
12 22 85 70 47 47 48 48 47 47 47 44 44 40 19 0
25 43 47 47 47 47 47 46 46 47 47 46 46 46 45 45
46 46 45 42 43 45 45 42 7 6 42 44 33 31 43 44
34 13 0 1 9 2 0 3 19 0 4 25 18 3 8 49
3 0 0 0 1 1 21 3 0 0 1 1 20 56 47 26
13 7 17 36 43 42 43 42 41 33 35 25 31 38 58 11
21 58 69 49 25 17 13 14 23 54 85 102 85 92 133 145
139 114 98 93 118 146 149 149 148 146 138 124 103 79 59 39
6 30 86 72 46 47 47 47 46 46 46 44 42 39 28 14
34 44 47 47 47 47 47 46 46 46 46 46 46 46 46 46
46 46 45 43 43 45 44 43 8 5 40 43 30 29 42 44
31 12 0 8 25 12 3 3 23 1 13 25 21 8 8 47
2 3 0 0 0 0 21 7 0 0 0 0 15 55 42 15
9 0 16 35 42 42 43 43 40 35 43 38 34 30 52 8
14 55 67 79 84 73 77 98 124 131 112 100 82 97 139 150
144 116 101 104 101 133 150 150 151 149 139 118 97 68 52 32
5 29 75 59 45 47 47 46 46 46 46 45 42 38 34 33
39 45 46 47 47 46 46 46 46 46 46 46 46 46 46 46
46 45 45 43 42 39 42 40 10 2 29 32 23 27 40 43
29 13 0 13 27 13 5 2 44 40 44 44 42 36 33 50
3 0 0 0 0 0 20 9 0 1 0 0 9 54 39 11
9 1 24 34 41 42 43 42 38 39 46 47 42 42 46 13
7 43 60 72 94 114 129 135 143 131 105 92 86 78 114 135
127 90 64 100 101 117 144 149 149 145 129 108 90 66 54 23
4 29 74 53 47 46 46 46 46 46 45 45 44 39 38 40
45 47 47 47 47 47 47 46 46 46 46 46 45 46 46 45
45 46 44 42 41 37 30 34 12 1 32 43 35 30 39 43
28 15 0 5 8 5 2 2 49 54 59 59 59 63 67 58
13 9 8 1 0 3 24 12 4 5 1 0 6 47 35 8
1 5 14 32 41 42 42 42 37 40 46 49 48 41 44 17
2 31 58 67 90 113 127 134 144 124 96 91 78 36 48 101
99 53 57 70 105 125 143 145 145 131 113 105 87 62 45 20
7 32 71 49 47 47 47 47 47 46 45 45 44 42 41 43
47 47 47 47 48 48 47 47 47 47 46 46 45 46 47 46
45 45 45 43 42 43 43 43 17 1 30 41 35 29 36 39
31 27 14 3 5 2 0 2 48 56 58 58 59 67 71 66
42 41 39 32 29 29 34 26 21 18 17 13 19 41 39 17
14 17 8 25 41 43 43 42 36 42 47 48 48 40 38 18
4 18 56 62 83 107 116 128 138 122 95 96 74 55 65 56
63 95 99 93 111 136 144 142 138 124 105 102 83 60 48 19
7 32 56 46 47 46 48 47 47 46 45 45 45 43 43 46
46 46 46 46 47 47 47 47 46 46 46 47 46 46 45 45
45 44 45 43 43 43 43 43 20 1 28 41 36 27 37 41
32 32 10 1 3 0 0 1 45 48 52 53 53 57 56 56
48 48 48 46 45 47 45 42 39 35 33 30 33 44 50 36
33 27 22 25 40 43 43 41 35 43 47 48 47 41 38 20
4 13 47 57 68 93 112 125 136 131 111 103 89 70 71 84
92 81 63 61 93 122 130 134 127 112 98 84 75 58 38 13
9 14 40 46 47 47 47 47 47 45 46 46 45 43 45 45
45 45 45 46 47 47 47 46 45 46 46 46 45 46 46 45
45 44 44 43 42 42 43 43 24 1 27 43 37 28 36 42
35 29 4 0 1 0 0 1 48 48 48 49 49 48 43 44
49 50 52 50 48 48 48 47 47 50 48 44 42 48 58 55
54 53 50 43 41 42 42 41 35 42 47 48 47 42 44 24
2 5 32 44 63 83 99 115 127 134 127 110 65 39 30 50
78 34 29 21 44 73 95 87 101 111 94 66 64 48 33 12
10 13 39 46 46 46 45 46 46 45 46 46 45 45 46 47
47 46 47 48 47 46 46 47 46 46 46 45 45 45 45 45
44 45 44 43 42 42 44 43 25 2 24 43 37 28 35 41
32 34 31 27 20 16 13 11 52 51 48 48 48 49 49 51
53 52 55 60 59 49 46 48 51 60 59 55 53 52 46 40
39 39 40 40 41 43 42 41 36 42 47 48 46 42 42 30
3 5 22 39 62 71 87 101 123 122 105 67 22 18 22 30
51 17 22 17 19 24 35 38 39 81 106 71 53 33 19 8
5 15 36 45 45 45 47 47 46 46 46 47 46 46 48 47
47 47 46 47 47 46 47 46 46 45 45 45 46 45 45 45
45 44 44 43 41 42 43 42 27 2 22 42 38 28 35 41
32 43 62 64 59 60 64 61 66 56 51 51 51 52 56 60
59 53 57 64 62 50 44 41 49 61 58 54 54 53 49 39
32 31 30 34 40 42 42 41 35 42 47 48 46 42 44 27
5 3 16 32 45 68 73 90 106 73 49 22 12 8 16 29
56 25 15 12 11 15 16 13 14 41 96 68 40 26 15 8
5 7 31 46 46 46 46 46 46 46 45 45 47 46 47 47
46 46 46 46 46 46 46 45 46 44 44 45 45 44 44 44
44 44 44 42 40 41 43 42 29 3 19 42 37 27 33 40
33 43 70 71 70 70 70 70 70 55 46 43 43 45 53 61
62 54 55 54 52 51 47 41 41 49 43 42 48 50 49 46
40 38 39 40 42 42 42 39 35 44 47 49 46 42 43 31
6 2 10 22 32 53 67 75 67 24 18 7 7 11 40 70
99 86 55 26 8 18 11 5 4 10 62 60 32 19 12 6
4 8 37 45 45 45 45 45 45 45 45 45 47 46 47 46
46 46 46 45 45 45 45 45 45 44 44 44 45 45 44 44
44 44 44 42 41 41 43 43 33 2 15 42 39 27 32 41
34 35 49 52 54 55 59 61 64 38 10 10 6 8 14 31
60 54 36 16 22 26 25 34 43 29 7 2 7 17 24 45
43 41 46 49 52 50 43 38 37 44 47 48 45 41 44 35
12 0 5 13 23 39 61 58 29 12 10 12 25 52 76 91
100 91 71 53 40 50 35 10 3 3 51 42 27 12 9 2
0 4 37 44 45 45 44 43 43 42 40 38 41 45 46 46
46 46 46 45 45 45 45 45 44 44 44 44 45 44 43 43
43 43 43 42 40 41 43 43 35 3 14 42 40 30 33 40
33 32 40 40 40 39 38 38 42 28 2 0 0 0 0 15
58 46 11 0 0 4 11 34 45 27 1 0 0 7 21 36
19 23 27 30 37 52 44 37 38 44 47 48 46 41 43 33
17 0 1 9 17 27 51 57 10 5 12 26 46 59 66 72
75 80 93 100 87 84 98 69 35 47 61 36 21 7 5 1
0 4 32 44 44 44 34 20 19 17 16 14 25 44 47 47
46 46 46 45 45 45 45 44 44 44 44 43 45 44 44 43
44 43 43 43 40 41 42 42 36 3 13 42 41 29 30 40
32 35 48 50 49 48 47 46 46 30 8 1 0 0 4 27
57 33 0 0 0 0 2 35 46 30 0 0 0 2 18 31
1 5 7 1 8 50 46 37 40 44 46 47 46 41 42 34
22 1 5 6 11 15 33 47 8 13 60 85 79 87 101 112
114 117 122 98 94 102 97 80 45 62 61 30 15 5 1 1
1 5 30 44 43 45 32 11 10 10 11 11 22 45 46 46
45 45 45 45 44 44 44 44 44 44 44 43 44 44 43 44
43 42 43 43 40 41 43 43 38 4 12 40 38 25 28 39
32 36 51 51 51 51 52 52 53 32 8 2 0 0 3 18
54 23 0 0 0 0 0 32 45 30 0 0 0 2 15 33
1 11 16 3 5 48 46 36 41 44 46 48 47 42 41 34
25 2 3 7 10 11 27 48 54 30 75 99 98 90 94 107
108 106 106 98 97 96 99 72 33 24 35 19 12 6 3 0
0 3 24 43 43 43 30 11 11 11 11 11 21 45 47 47
47 45 45 45 44 44 44 43 43 44 44 43 43 43 44 44
44 43 43 42 41 39 40 40 36 6 9 36 37 27 29 41
39 39 46 49 50 50 51 51 55 32 1 0 0 3 10 9
51 18 0 0 0 0 0 33 44 28 0 0 0 0 9 35
2 4 6 1 4 47 47 36 41 44 46 48 46 43 39 32
25 4 0 1 2 9 18 49 60 32 64 90 93 93 95 88
64 51 49 65 71 89 90 53 22 12 13 10 7 2 0 0
0 4 22 42 43 43 28 11 11 11 11 11 18 43 46 46
46 46 45 45 44 44 44 43 44 42 42 41 41 43 43 43
43 43 42 42 40 39 40 41 39 7 7 37 39 29 27 37
47 47 47 46 47 46 46 39 53 42 7 0 0 2 8 5
49 15 0 0 0 0 0 34 45 25 0 0 0 0 3 38
3 9 11 3 4 46 46 36 42 44 47 48 48 46 39 33
30 8 0 2 1 6 12 27 35 25 45 87 89 63 52 30
12 9 7 19 50 78 68 31 17 7 6 2 0 0 1 0
1 6 23 43 43 44 31 11 10 12 11 12 16 43 47 45
45 45 45 43 43 42 43 43 43 43 43 44 44 43 43 43
43 43 42 42 40 39 41 40 39 8 5 34 39 29 27 38
48 47 47 47 48 47 46 40 52 48 13 0 0 5 12 6
48 15 0 0 0 0 0 29 46 30 4 0 0 0 3 40
6 2 4 0 3 46 46 37 44 45 47 48 47 46 40 30
33 19 0 1 1 4 7 10 12 11 29 62 77 49 28 11
2 2 1 6 25 52 48 21 10 2 8 1 0 1 1 0
4 6 24 43 44 44 35 18 18 18 19 20 21 38 44 45
45 45 45 44 38 32 31 33 39 44 44 43 44 43 43 42
42 43 43 42 39 38 40 41 39 10 4 34 39 30 27 37
45 46 46 46 46 46 46 42 51 43 1 0 0 0 2 6
50 16 0 0 0 0 0 25 47 28 0 0 0 0 1 42
10 0 2 0 3 44 44 37 43 45 48 49 48 46 42 31
34 32 5 1 0 0 2 5 6 8 16 37 48 28 16 1
1 0 2 1 6 15 17 10 5 4 5 1 1 1 0 3
7 7 23 43 44 44 37 19 19 18 17 17 19 37 45 46
46 46 45 42 5 0 0 0 22 45 43 43 43 43 43 42
43 42 42 43 40 38 41 42 41 13 3 33 40 32 27 37
14 15 17 17 23 38 45 44 48 38 0 0 0 0 0 2
47 19 0 0 0 0 0 22 50 29 2 0 0 1 2 41
16 0 0 0 7 43 43 38 43 45 47 48 45 42 40 29
33 41 13 0 0 0 0 3 2 4 9 21 26 16 8 4
5 6 4 6 7 9 13 6 5 1 3 0 0 1 0 0
11 8 20 41 44 43 36 13 13 14 13 13 16 38 46 46
45 45 45 41 4 0 0 0 19 45 43 44 43 43 43 43
43 42 42 42 39 39 41 41 40 15 2 33 41 33 28 39
0 0 0 0 6 43 46 43 44 38 3 2 2 3 15 6
44 32 11 10 14 12 13 29 52 37 35 33 33 36 41 55
25 7 5 5 10 41 41 36 43 44 46 47 42 45 43 32
32 44 22 0 0 0 0 1 2 3 5 13 20 11 7 8
12 12 12 14 10 11 12 1 3 4 0 0 0 0 0 0
5 14 21 41 43 43 36 13 12 12 13 12 14 38 46 45
45 44 44 39 3 0 0 0 9 44 44 43 44 43 44 43
43 43 44 43 40 39 41 41 41 17 1 30 41 33 26 36
0 0 0 0 4 44 48 44 41 52 46 40 37 41 46 42
45 53 59 55 55 58 58 60 58 40 50 54 56 61 67 67
49 39 37 37 37 43 39 35 41 44 45 43 44 44 43 32
31 44 34 4 0 0 0 1 1 3 3 5 5 9 10 13
9 11 10 17 12 7 9 4 4 2 0 2 0 0 6 2
0 6 13 35 44 43 37 14 12 12 12 12 14 36 46 45
44 44 43 38 3 1 0 0 5 43 45 44 45 44 44 43
43 42 42 42 40 39 41 41 42 20 1 27 41 34 26 36
0 0 0 0 2 41 49 43 39 57 58 51 52 54 50 42
40 49 67 63 62 62 66 66 62 39 44 50 55 61 67 66
51 40 40 40 40 39 39 36 38 41 41 43 45 44 43 34
31 44 44 22 1 0 0 0 0 0 2 1 2 8 7 12
11 7 11 7 2 4 5 10 4 0 0 0 0 1 24 12
0 0 12 28 44 44 37 14 11 11 11 12 13 37 45 45
31 18 23 18 1 0 3 0 4 43 44 43 43 43 43 43
43 43 42 42 41 39 41 42 41 22 1 24 41 34 26 35
0 0 0 0 1 39 50 44 39 57 52 45 48 52 51 41
34 37 46 48 48 47 48 47 48 39 35 41 45 45 41 40
42 41 41 41 40 40 40 38 37 38 41 46 46 44 42 31
31 42 46 39 4 0 0 1 0 1 4 6 2 5 8 3
2 2 3 6 5 3 3 2 3 0 0 0 1 25 49 21
0 1 9 27 41 45 38 13 11 12 12 12 14 37 46 42
4 0 1 0 0 0 3 0 3 43 44 44 44 43 43 43
43 42 42 42 40 38 39 41 41 24 1 21 41 35 26 34
0 0 0 0 0 37 51 43 38 54 36 39 39 43 49 43
37 34 30 32 32 33 33 33 37 39 41 44 45 44 39 36
39 41 42 41 41 41 40 39 40 42 45 47 46 43 40 29
34 40 43 24 1 0 0 0 0 0 1 2 3 2 3 0
0 0 2 1 0 0 0 0 1 0 2 0 13 61 66 30
0 2 5 12 35 45 38 14 10 11 12 12 13 35 46 42
6 0 0 0 0 0 1 0 2 42 44 44 44 44 43 43
43 42 43 43 41 39 40 41 41 26 0 18 41 36 26 33
0 0 0 0 0 32 50 42 41 54 19 13 16 19 23 23
25 36 35 40 40 48 49 44 45 48 49 54 57 54 44 40
39 40 41 41 40 40 39 39 40 42 45 48 46 39 36 34
37 32 29 10 0 0 0 0 2 0 0 0 0 0 1 0
0 0 0 0 2 0 0 0 0 0 0 1 49 81 72 41
0 0 5 13 26 41 39 14 9 11 12 10 11 35 46 45
20 0 0 0 0 0 0 0 2 41 44 44 43 43 43 43
43 42 43 43 41 38 42 41 42 28 0 15 39 36 25 32
0 0 0 0 0 27 51 42 45 57 13 0 0 0 1 7
21 39 45 57 51 63 67 35 27 29 30 34 45 58 46 41
40 41 41 41 41 40 40 39 39 41 45 47 43 34 32 34
36 29 31 31 4 0 17 2 0 0 0 0 0 0 0 0
0 0 0 1 1 0 0 0 0 0 8 29 77 86 75 49
0 1 11 18 15 23 40 21 18 20 14 17 19 35 44 45
36 10 0 0 0 0 0 0 2 14 42 44 43 43 43 43
42 43 43 42 41 39 41 44 44 32 0 13 40 36 26 32
0 0 0 0 0 23 50 41 47 62 17 0 0 0 0 0
22 39 41 55 37 41 52 14 0 0 0 1 22 57 47 42
41 40 41 41 41 40 39 39 39 40 44 46 39 27 6 17
37 29 33 39 9 0 29 31 4 0 0 0 0 0 0 0
0 0 0 0 0 0 0 0 0 13 51 85 90 88 77 44
0 15 23 22 16 18 34 41 40 41 34 41 42 43 45 32
51 11 0 0 0 0 0 0 0 2 42 45 45 43 43 44
43 42 42 43 42 39 40 42 41 32 0 10 36 31 25 31
0 0 0 0 0 19 50 41 45 60 22 0 0 0 0 0
21 38 39 53 16 3 33 15 0 0 0 0 15 54 47 41
41 41 42 40 40 40 40 40 40 41 44 44 37 27 7 17
37 34 35 12 4 0 26 48 37 2 1 0 0 0 0 0
0 0 0 0 0 0 0 2 20 52 93 102 95 90 78 24
3 34 26 26 26 23 28 45 46 46 45 45 45 44 30 2
2 13 11 0 0 0 0 0 0 1 40 44 44 43 43 43
42 43 43 43 42 40 39 42 42 34 1 7 32 30 25 30
0 0 0 0 0 16 49 42 38 29 4 0 0 0 0 0
24 37 39 53 16 2 30 17 0 0 0 0 10 51 48 41
41 41 40 40 40 39 39 39 40 41 43 42 37 34 27 30
36 20 9 9 7 0 25 62 73 57 28 15 2 0 1 0
0 0 0 0 0 0 5 33 73 99 107 104 99 91 66 3
15 42 28 26 28 26 23 42 41 39 37 35 35 23 1 0
0 8 6 0 0 0 0 0 0 0 38 44 44 44 44 43
43 43 44 44 43 41 39 41 42 34 1 5 28 28 25 29
0 0 0 0 0 12 48 41 37 21 0 0 0 0 0 0
25 36 39 53 16 1 27 21 0 0 0 0 5 48 47 40
41 41 41 41 40 39 39 39 39 39 41 41 36 27 26 31
33 16 11 11 10 4 14 62 74 84 86 80 50 19 17 8
3 3 8 8 14 34 56 85 109 109 112 107 100 92 39 4
19 29 26 24 28 25 20 29 22 16 5 1 1 0 18 20
8 10 1 0 0 0 0 0 0 0 30 42 44 44 43 43
43 44 44 44 44 41 40 42 40 34 2 3 27 27 25 28
0 0 0 0 0 10 48 42 37 23 0 0 0 0 1 0
22 37 38 53 15 2 24 23 0 0 0 0 3 47 48 40
41 40 40 40 40 39 39 38 39 39 41 42 38 28 22 25
26 19 22 16 13 8 4 51 73 83 93 99 95 78 64 63
55 46 49 60 65 95 101 108 116 118 116 113 106 90 18 12
16 32 24 22 22 20 16 20 20 16 18 17 10 3 29 36
33 31 9 0 0 0 0 0 0 0 0 13 18 16 39 45
46 45 45 46 45 43 40 42 38 33 3 2 27 28 26 30
0 0 0 0 0 9 47 42 37 24 0 0 0 0 3 0
19 38 38 54 20 4 22 26 4 0 1 1 3 44 48 39
40 40 39 39 39 40 39 38 38 40 42 43 40 33 31 30
18 24 27 23 23 16 5 29 74 84 97 104 105 107 108 106
100 99 108 113 115 123 131 127 125 126 124 119 110 77 17 13
20 33 23 22 21 20 17 35 15 17 18 18 18 21 22 19
22 15 10 9 10 9 10 10 10 10 9 8 7 7 41 48
48 49 48 50 50 47 45 45 41 36 4 2 32 35 34 37
0 0 0 0 0 7 47 42 37 25 0 7 0 0 14 6
15 41 39 54 32 11 19 27 7 8 8 2 3 41 48 40
40 40 40 40 39 39 39 39 38 39 40 42 40 34 36 32
18 28 25 25 26 26 20 16 66 88 104 115 121 122 127 128
119 120 127 129 130 135 137 136 133 134 130 122 108 54 23 12
25 37 20 23 21 19 17 32 13 14 14 17 23 24 26 24
23 25 26 26 22 20 19 17 16 14 12 11 11 15 53 65
65 65 65 67 66 63 59 57 53 47 9 0 31 19 13 13
0 0 0 0 0 6 46 43 37 30 4 10 2 2 17 19
16 45 40 54 31 23 18 24 4 14 11 0 1 37 45 38
40 40 39 39 39 39 39 38 38 38 37 40 40 35 36 26
22 28 28 25 25 21 24 20 39 89 106 120 128 129 130 128
122 122 125 132 133 138 139 139 137 136 131 119 93 32 27 43
69 14 0 3 19 22 17 22 14 11 13 15 19 26 26 25
26 24 27 23 21 19 12 9 40 46 50 54 59 62 67 68
68 68 69 68 67 65 60 55 53 49 11 0 32 2 0 0
0 0 0 0 0 5 45 43 37 37 36 40 41 41 46 47
47 54 42 53 23 31 20 32 20 23 21 18 19 34 38 39
39 39 39 39 39 40 39 38 38 38 36 40 37 29 29 21
26 28 26 31 29 24 22 19 20 72 104 118 130 134 132 129
128 128 129 135 137 139 138 140 141 136 129 117 60 35 40 39
7 0 0 0 0 34 24 15 11 11 13 15 15 23 26 28
28 26 23 26 21 38 42 28 50 59 64 65 63 64 65 65
66 65 65 62 65 60 54 52 51 50 13 0 25 0 0 0
0 0 0 0 0 4 44 43 36 38 59 61 62 62 63 63
64 63 46 53 13 19 21 37 32 33 32 31 30 30 33 38
39 39 38 38 39 38 38 38 37 37 33 22 26 29 25 19
28 37 24 8 7 31 21 20 22 37 96 115 128 135 137 135
132 130 132 133 137 139 137 140 139 134 122 93 43 33 22 10
0 0 0 0 0 11 55 10 9 10 13 14 13 24 27 26
25 25 20 24 21 25 22 48 33 24 35 49 49 54 56 56
60 53 53 41 49 48 39 43 50 49 15 0 17 0 0 0
0 0 0 0 0 3 42 42 34 33 57 60 60 60 59 58
57 56 47 52 13 5 14 37 33 36 36 35 35 35 37 38
39 39 39 38 38 38 38 38 37 28 15 15 21 23 19 25
28 4 0 0 0 26 25 18 22 21 70 108 122 133 136 135
133 131 133 135 137 139 139 141 134 106 75 50 36 36 14 10
0 0 0 0 0 0 50 16 10 9 13 13 11 20 23 25
24 23 22 20 20 21 21 21 51 35 43 20 32 39 40 39
53 40 38 34 33 37 33 42 49 49 19 0 10 0 0 0
0 0 0 0 0 2 41 42 34 28 29 29 28 27 27 26
25 23 29 50 14 3 12 39 36 39 39 39 39 39 38 38
38 38 38 38 38 38 38 36 23 15 18 18 16 22 17 26
3 0 0 0 0 3 31 37 37 27 39 101 118 131 137 137
135 131 131 133 130 137 139 137 109 70 53 45 27 17 35 14
0 0 0 0 0 0 36 25 27 19 15 14 13 19 22 25
23 22 21 18 17 16 17 18 51 36 44 19 20 21 32 39
50 47 45 44 46 45 41 41 47 49 20 0 5 0 0 0
0 0 0 0 0 2 40 41 34 29 24 21 20 21 20 21
21 20 27 50 16 1 9 38 35 38 39 38 39 38 38 38
38 38 38 39 41 42 44 25 19 13 16 14 18 16 15 20
1 0 0 0 0 0 8 19 34 34 29 55 105 126 134 136
135 133 133 130 132 135 136 118 86 65 56 53 35 19 45 29
28 23 0 0 11 24 31 22 24 23 29 24 24 22 25 44
35 23 23 21 16 24 27 21 68 54 68 22 17 17 19 24
40 48 48 47 45 45 44 43 45 47 22 0 0 0 0 0
0 0 0 0 0 3 41 41 34 32 29 27 26 25 24 24
23 21 29 52 31 30 37 43 34 38 39 38 38 38 37 37
38 37 38 41 49 45 37 48 17 14 16 16 20 14 18 17
0 0 0 0 0 1 5 6 18 54 54 47 63 110 131 135
135 134 126 124 129 131 129 101 82 69 74 28 63 54 18 3
9 12 0 0 28 23 13 20 23 30 32 30 47 65 84 86
79 66 49 51 43 53 54 46 116 78 127 50 18 20 18 21
27 29 45 46 46 46 42 43 44 44 21 0 0 0 0 0
0 0 0 1 1 7 43 41 33 33 31 30 30 29 28 28
27 22 30 52 43 55 57 46 33 37 38 37 37 37 37 37
37 36 31 27 32 49 45 21 20 19 18 16 17 9 20 9
0 0 0 16 15 0 5 6 39 24 25 102 76 72 119 135
137 135 128 128 133 132 115 95 83 55 59 45 14 18 5 12
16 15 12 3 16 12 12 16 9 9 18 50 66 55 54 59
71 56 46 54 36 39 57 56 128 100 120 60 34 37 28 32
44 27 22 32 34 36 33 31 33 30 22 0 0 0 0 0
23 24 25 27 28 31 38 36 34 33 32 30 30 29 29 29
28 22 25 34 30 34 38 35 34 37 37 37 37 38 38 37
34 24 33 30 24 26 23 21 15 14 20 20 18 15 25 8
1 2 17 22 27 0 12 33 36 26 32 28 73 66 94 119
133 135 132 133 135 117 101 95 70 19 14 12 8 2 16 25
19 16 17 14 23 14 18 16 9 9 17 21 23 36 55 38
28 41 60 68 61 48 29 23 89 65 83 20 32 42 39 48
41 52 31 22 30 30 24 26 28 32 27 0 0 0 0 0
35 34 35 35 35 34 34 35 34 33 32 31 30 29 29 29
28 25 27 30 31 29 33 33 35 37 37 37 37 37 33 29
23 30 51 33 24 21 23 22 13 16 18 18 54 56 22 16
51 32 72 23 23 14 30 21 22 32 8 6 13 10 50 98
108 126 139 139 128 109 100 87 33 18 11 9 4 15 27 24
21 21 21 22 55 17 26 39 12 13 20 21 21 21 22 21
23 23 22 22 19 16 15 17 76 43 41 15 20 26 38 27
52 67 53 39 30 35 34 37 40 44 33 0 0 0 0 0
35 35 34 35 35 34 34 35 33 33 33 33 31 31 30 29
28 26 27 30 33 31 34 35 35 37 37 36 32 25 23 20
25 48 60 24 24 20 17 25 13 15 16 21 42 41 21 45
74 72 70 11 10 17 18 12 11 9 7 11 9 2 7 41
93 107 126 130 109 101 95 46 15 16 10 9 14 28 28 25
23 22 23 25 86 26 25 45 20 15 22 23 21 24 22 20
23 23 22 21 18 15 15 18 79 40 36 13 17 17 19 18
13 32 58 48 40 22 43 42 44 48 38 0 0 0 0 0
34 33 31 31 30 30 29 29 29 32 33 32 31 31 30 30
29 27 28 31 34 33 33 34 35 36 36 25 20 19 19 22
26 53 59 20 25 21 22 24 16 13 16 29 38 31 13 10
47 40 34 13 11 21 20 20 23 20 19 11 17 14 2 4
40 94 98 101 92 86 45 19 14 12 10 16 32 31 30 26
24 23 23 28 93 38 32 41 34 21 23 23 22 25 25 23
26 28 24 21 20 17 17 23 83 42 46 12 17 16 20 18
14 23 22 42 39 16 31 40 42 48 42 1 0 0 0 0
8 6 6 16 24 25 24 31 31 31 32 32 32 32 31 31
30 27 29 31 34 34 34 34 35 36 25 15 18 21 23 22
31 56 74 19 24 45 71 60 48 50 49 19 13 47 16 22
63 45 35 17 11 22 23 22 23 25 29 25 15 20 16 8
12 52 79 42 76 43 16 21 7 12 16 34 36 30 29 28
25 22 26 33 97 51 66 23 24 23 22 23 24 26 27 27
26 27 25 25 21 18 19 24 87 44 46 15 20 21 20 14
15 20 20 18 20 14 16 39 43 49 46 2 0 0 0 0
13 0 0 13 24 29 28 31 31 31 32 31 31 31 31 30
30 28 29 31 34 35 34 34 34 29 18 14 28 28 24 31
58 96 108 53 40 52 52 41 58 52 43 23 16 19 14 41
67 50 39 18 14 23 27 27 27 28 29 29 25 14 25 16
14 13 64 26 25 17 25 9 12 20 31 33 32 30 33 29
23 24 25 41 100 45 69 19 24 23 25 26 24 24 28 27
26 29 23 21 22 19 21 25 84 42 49 14 21 22 18 15
18 22 25 22 13 10 12 29 43 49 46 2 0 0 0 0
46 8 4 12 21 27 28 29 30 31 31 31 31 31 31 31
30 30 30 32 34 35 35 33 28 21 23 18 36 41 57 45
91 101 114 44 40 58 68 80 60 66 39 25 25 21 18 53
67 55 40 21 19 24 30 30 31 31 31 31 30 23 18 21
19 12 16 29 17 27 13 13 24 29 36 32 32 31 32 27
23 25 26 41 97 42 59 22 24 24 23 23 23 22 26 27
26 30 26 24 18 20 20 26 86 45 56 12 21 21 21 13
19 23 26 23 11 9 14 15 44 49 46 3 0 0 0 0
62 31 20 21 20 25 27 28 30 31 32 31 32 31 31 32
32 32 32 33 34 34 35 31 23 22 40 55 44 60 42 43
102 85 42 30 28 23 22 27 24 22 24 28 27 23 21 59
73 61 42 23 20 24 30 36 34 32 35 31 29 27 20 19
15 5 20 14 34 20 15 21 21 34 34 32 32 31 30 26
25 25 25 44 86 49 59 22 22 23 26 24 27 22 26 27
27 29 27 24 22 21 23 28 88 49 47 14 21 21 18 13
22 24 31 20 8 7 14 5 34 52 47 4 0 0 0 0
66 45 28 26 23 25 28 30 33 39 36 35 36 36 36 36
35 36 36 35 34 34 34 28 28 65 60 53 33 18 21 22
66 53 30 22 22 25 23 24 12 18 29 29 27 25 22 60
83 62 44 25 21 24 30 32 34 32 33 30 33 30 28 18
11 15 15 28 47 29 26 24 21 31 29 32 31 31 28 27
25 22 23 49 80 50 48 19 20 23 24 24 25 23 24 26
29 27 27 27 25 22 23 30 95 46 47 16 22 19 20 18
26 26 31 16 8 7 11 5 15 53 47 3 0 0 0 0
43 34 28 27 26 25 24 21 22 41 38 36 38 37 37 37
36 36 36 35 34 33 32 35 52 62 66 32 14 16 20 21
65 50 26 23 25 26 23 19 11 22 30 29 26 24 23 61
85 65 46 24 23 24 30 33 33 34 32 33 33 31 28 14
8 21 10 14 54 25 21 24 14 27 31 30 30 30 27 24
24 22 20 47 69 49 46 20 19 21 23 24 24 23 25 26
30 26 25 25 21 22 21 27 87 41 45 14 22 18 21 20
28 29 30 18 5 7 11 6 16 43 47 3 0 0 0 0
37 26 17 17 16 16 16 16 17 38 40 34 34 35 36 36
37 36 36 34 33 33 29 19 36 52 25 17 18 22 22 24
69 51 25 24 26 25 23 14 14 24 30 28 27 26 24 57
88 62 50 24 23 23 27 32 32 32 34 31 32 30 27 13
13 16 3 7 46 24 18 21 21 29 29 28 29 25 25 22
23 20 21 45 63 45 35 18 18 18 21 22 23 23 25 24
27 25 25 24 21 20 20 29 92 42 44 11 21 17 19 23
28 33 34 46 3 7 11 30 35 24 41 5 0 0 0 0
37 26 16 16 17 17 17 16 17 36 39 31 29 30 30 31
31 31 32 32 32 30 24 12 19 25 24 18 18 23 23 27
79 44 25 27 27 26 21 12 19 27 31 27 24 24 23 60
87 61 54 25 23 22 26 30 29 32 33 31 30 28 23 14
14 12 8 0 14 20 16 16 20 26 28 28 25 24 24 21
21 18 19 54 57 50 34 18 18 19 19 21 21 22 23 23
25 25 24 23 21 19 21 29 66 41 33 13 23 17 17 25
25 29 29 25 3 19 35 20 15 23 29 4 0 0 0 0
38 28 16 15 16 15 15 14 14 32 40 32 28 28 28 28
28 28 28 27 28 27 14 10 20 20 25 18 19 24 25 31
76 49 23 26 25 23 21 16 26 28 29 28 26 21 23 55
78 60 49 21 23 22 27 30 28 32 32 29 29 29 20 14
17 13 50 14 28 20 16 13 20 24 25 25 25 24 22 20
17 16 20 60 54 54 34 18 16 19 19 21 18 20 19 22
24 24 23 23 22 22 20 29 70 41 22 15 21 16 15 26
27 34 66 36 7 44 17 19 44 23 14 2 0 0 0 0
37 28 16 17 20 23 26 24 16 25 41 31 27 27 27 27
27 26 26 26 25 24 11 9 19 22 28 21 21 26 23 34
71 50 24 25 24 23 17 20 25 26 28 25 26 24 23 59
77 67 49 21 22 24 26 29 28 27 31 26 26 26 17 11
16 15 66 35 45 20 18 14 22 25 23 25 25 24 22 22
20 18 18 62 52 58 39 30 28 40 46 48 27 21 21 22
18 23 23 20 17 19 22 31 61 37 20 13 17 14 16 24
29 26 35 43 15 17 37 34 8 7 8 1 0 0 0 0
