P2
128 120
158
51 50 49 48 47 47 46 44 44 43 42 41 40 40 39 38
38 37 36 35 34 33 33 32 31 31 30 29 28 28 27 27
26 25 25 10 0 0 0 0 0 0 0 0 0 0 0 8
13 8 3 0 0 0 0 0 0 0 0 0 0 1 6 0
0 0 0 0 0 0 0 1 0 0 0 0 0 0 0 1
2 5 10 16 22 24 25 25 26 25 26 26 28 28 29 29
30 30 31 32 33 34 34 35 36 37 38 38 39 40 40 40
40 41 42 43 45 45 45 46 47 46 47 49 49 49 49 49
50 50 49 48 47 47 46 45 44 43 42 42 41 40 39 38
37 36 36 35 34 34 34 33 32 31 30 30 29 28 26 26
26 25 25 21 7 1 0 0 0 0 0 3 8 8 2 16
21 18 16 11 4 1 0 0 0 0 0 0 0 0 5 0
0 0 0 0 0 0 0 0 0 0 0 0 1 5 10 15
19 24 24 24 24 25 26 26 28 28 29 29 30 30 31 32
32 33 34 34 36 37 37 38 39 40 40 40 40 41 41 43
44 45 46 46 46 47 47 47 48 48 48 50 49 50 50 50
51 50 49 49 47 47 46 45 44 43 42 42 41 40 40 39
38 38 36 35 35 34 33 33 32 31 31 30 29 28 28 27
27 27 26 24 19 13 7 1 0 3 11 14 17 15 5 18
23 20 19 17 17 12 7 1 0 0 0 0 0 0 0 0
0 0 0 0 0 0 0 0 1 1 4 9 16 22 24 25
25 26 26 27 27 28 28 29 29 30 30 32 32 33 34 35
35 36 37 38 39 39 40 40 40 40 41 42 44 44 45 45
46 47 48 48 49 49 48 49 49 50 49 50 51 50 50 50
51 50 49 49 48 47 46 45 45 44 43 42 41 40 40 39
38 37 36 36 35 35 34 33 33 32 31 31 30 29 28 28
27 26 26 24 21 17 15 14 11 14 19 21 22 18 7 19
24 21 20 19 18 17 15 12 6 0 0 0 0 0 0 0
0 0 0 0 0 1 4 8 14 19 22 24 25 25 26 26
27 28 28 29 28 30 30 31 31 33 33 33 35 36 36 37
38 39 39 39 39 40 41 42 44 43 45 45 46 47 47 47
47 47 48 48 49 49 50 50 49 49 50 50 50 52 51 51
51 50 50 48 48 47 46 46 45 44 43 42 42 41 40 39
39 38 37 36 36 34 34 33 32 32 32 31 30 30 29 28
28 27 27 26 23 20 17 15 17 20 22 23 23 19 10 18
26 25 23 21 19 19 18 16 13 10 8 1 0 0 2 4
0 0 1 4 11 16 21 24 25 24 25 25 26 27 28 28
28 30 30 31 31 32 32 33 33 35 35 36 36 38 38 38
38 39 39 41 43 43 43 44 45 45 45 46 47 47 48 48
49 49 49 49 50 49 50 50 49 50 50 50 50 51 50 50
50 50 49 48 48 46 46 45 45 44 43 43 42 41 41 40
40 38 38 37 36 35 35 34 33 33 33 31 31 30 29 28
27 27 26 26 24 21 19 16 17 21 23 24 25 22 15 21
31 28 25 25 23 21 19 18 15 14 11 11 11 17 18 18
7 9 17 21 24 24 24 26 26 26 27 28 29 30 30 30
30 32 31 32 32 33 34 35 35 36 36 37 37 37 39 40
41 41 42 43 44 44 44 45 46 46 46 47 48 48 48 48
48 49 49 49 49 49 49 49 49 50 50 50 50 50 50 50
50 50 49 48 48 47 47 46 45 44 43 42 42 40 40 40
39 38 37 37 36 35 34 34 33 33 32 31 30 30 30 29
28 28 27 26 25 23 21 19 18 21 24 25 27 25 19 24
33 30 26 25 24 24 22 20 17 16 14 13 19 22 20 20
18 22 24 25 26 27 27 28 28 29 29 29 30 30 31 31
32 33 33 34 34 35 36 36 37 37 37 38 39 40 41 41
42 42 43 44 44 45 46 46 47 48 47 47 48 47 48 48
48 49 48 49 49 49 49 49 49 49 50 49 50 50 50 50
51 50 49 49 48 47 46 46 45 44 44 43 42 41 41 41
40 38 38 37 36 36 35 34 34 33 33 32 31 31 30 30
29 28 28 27 26 24 22 21 21 24 28 29 31 27 18 23
34 30 27 26 25 24 23 22 19 18 17 14 18 22 22 20
23 25 27 27 28 29 30 29 30 30 31 31 32 33 33 34
34 34 34 36 35 36 35 36 37 38 39 39 41 42 42 43
44 44 45 45 46 46 47 47 47 49 47 48 48 48 48 48
48 49 49 49 49 49 49 49 48 49 49 50 50 50 51 51
51 50 50 49 49 47 47 46 46 45 44 43 43 42 41 40
39 39 38 37 37 36 36 34 34 33 33 32 32 31 30 29
30 29 28 27 27 25 23 22 22 27 30 31 32 28 18 21
35 31 28 27 26 26 25 23 20 22 20 16 17 23 20 22
25 27 28 28 29 30 31 31 31 32 32 33 33 33 33 34
34 34 35 35 36 37 37 38 39 41 40 41 42 43 43 43
44 44 45 45 46 46 47 47 47 48 47 47 48 49 48 48
48 48 48 49 49 48 49 49 50 49 50 50 50 49 47 47
51 50 50 49 48 47 47 46 46 45 44 44 43 42 41 41
40 40 39 38 37 37 36 36 35 34 34 33 32 32 31 31
30 29 29 28 27 26 25 24 24 28 31 33 34 30 20 21
36 32 30 29 28 26 26 23 22 23 23 18 16 24 21 25
27 29 29 30 30 31 32 31 32 33 33 33 33 34 35 34
36 36 36 37 37 38 38 40 41 42 41 42 43 43 44 45
45 45 45 46 47 47 47 47 47 49 47 48 48 48 49 48
48 49 50 50 50 50 50 49 48 48 48 48 49 50 50 50
51 51 51 50 49 48 48 47 46 45 45 43 43 42 41 41
40 39 38 38 38 37 37 36 36 35 35 34 33 32 31 31
31 30 29 29 28 28 27 26 26 30 33 34 34 31 22 20
36 33 30 30 29 27 27 25 25 25 24 21 16 24 24 27
29 30 31 31 32 33 34 34 34 35 34 34 34 34 35 36
37 37 38 38 39 39 40 40 42 44 42 43 43 44 44 45
45 45 46 46 47 47 48 47 48 49 48 49 49 49 50 50
49 49 49 49 48 48 48 50 50 50 50 50 50 51 50 50
51 51 50 49 49 48 47 46 46 45 45 44 44 42 43 42
41 40 39 38 38 37 37 37 36 35 35 34 34 32 32 32
31 31 30 30 30 29 29 28 29 32 35 36 36 31 23 20
37 33 32 31 30 29 28 26 25 26 25 23 19 25 26 29
30 31 32 33 33 34 34 34 33 34 35 35 36 36 37 38
37 38 39 39 39 40 41 41 41 44 42 43 43 45 45 46
46 46 47 47 47 48 48 48 48 50 48 49 48 49 49 48
48 48 49 50 51 50 51 51 50 50 50 51 50 50 50 50
52 51 50 50 50 49 47 46 47 46 45 44 44 43 43 42
42 40 40 39 39 39 38 38 37 36 35 35 34 33 32 32
32 32 31 30 31 30 29 30 30 34 37 37 37 32 25 21
36 35 32 32 31 30 30 28 28 28 27 24 20 25 27 30
32 32 33 32 33 34 33 35 36 36 37 36 38 38 37 38
39 39 40 40 40 41 41 42 43 44 44 44 45 45 46 46
46 46 46 47 48 48 48 49 49 50 48 48 47 48 49 50
51 51 49 51 51 50 51 51 51 51 51 51 51 51 50 50
52 51 50 50 49 48 48 47 47 46 45 45 44 44 43 43
43 41 41 40 39 39 38 37 36 36 35 36 35 34 34 34
33 33 32 31 31 30 30 30 31 34 37 37 37 33 25 21
37 36 33 33 32 32 31 31 30 28 28 26 21 25 26 27
31 31 32 33 35 35 35 36 37 36 38 37 38 38 38 39
40 40 40 41 41 42 42 42 43 45 44 44 45 46 47 47
47 47 48 49 49 48 47 47 47 47 48 49 50 50 49 50
49 50 50 50 51 51 51 51 51 51 50 50 51 51 50 50
52 51 51 50 49 48 48 47 47 46 45 45 44 43 43 43
42 41 41 40 40 39 38 38 37 36 36 36 35 34 34 34
33 32 32 31 31 31 31 31 32 36 38 38 38 34 27 21
35 36 33 33 32 32 31 30 30 28 28 27 21 21 24 28
26 29 28 31 33 35 35 35 37 37 38 38 38 39 40 39
39 40 40 40 41 42 42 42 43 45 45 45 46 46 47 47
46 44 47 46 47 47 48 49 49 49 49 49 49 49 49 50
50 50 50 51 51 50 51 50 51 50 50 51 51 51 50 50
52 51 51 50 50 49 48 48 47 47 46 46 45 44 44 43
43 41 41 40 39 39 39 38 37 36 36 36 35 35 35 34
34 33 33 32 32 32 31 32 33 37 39 40 39 35 28 23
35 37 33 32 33 33 32 30 30 29 27 25 21 13 17 24
25 25 21 19 24 31 29 33 37 38 39 38 39 40 39 40
40 40 41 41 42 42 43 43 44 45 45 45 46 46 45 45
47 47 48 49 49 49 49 49 49 49 50 50 50 49 50 51
51 51 50 51 52 52 52 51 51 51 51 51 50 50 51 50
51 50 50 50 49 48 48 48 47 46 47 46 45 44 44 43
42 42 42 40 40 40 39 38 38 37 36 37 36 35 34 34
34 33 33 32 32 31 31 32 33 37 39 40 39 36 29 23
32 36 33 33 33 33 32 30 30 28 24 18 12 9 11 15
17 17 13 13 14 21 16 20 30 37 38 39 39 39 39 41
41 41 41 41 42 43 43 44 44 44 43 43 43 44 46 47
47 49 48 47 48 48 49 48 48 48 48 50 50 49 50 50
50 49 50 50 50 51 51 51 51 51 51 50 50 50 49 50
51 51 51 50 49 48 48 48 47 46 46 46 45 44 44 43
43 42 41 41 40 39 39 38 39 38 37 37 36 36 35 35
34 34 33 33 32 32 32 31 33 36 40 40 40 35 30 17
26 37 35 35 34 33 32 29 24 25 22 17 11 10 7 10
13 12 11 7 9 11 7 13 16 34 39 39 39 39 40 40
41 41 42 42 43 42 41 42 42 43 45 46 46 47 47 48
48 50 48 49 49 48 49 49 49 49 49 49 49 49 50 49
49 49 51 50 50 50 51 51 51 50 50 49 50 49 49 49
51 50 50 49 49 48 49 48 47 47 47 46 45 45 44 42
42 42 41 40 40 39 39 39 38 38 37 36 37 36 36 35
34 34 33 33 32 32 32 32 34 38 40 40 40 36 28 21
30 39 35 35 33 30 27 15 11 13 16 16 9 7 7 5
7 10 6 6 8 6 8 7 12 30 38 38 40 40 40 41
41 41 40 40 40 41 42 44 45 45 45 46 47 47 47 48
48 50 49 49 49 49 50 49 49 49 49 49 49 49 50 50
50 49 50 50 50 50 51 50 50 50 50 50 50 49 50 50
51 50 50 50 49 49 49 48 47 47 46 46 45 44 44 43
43 42 41 41 40 40 39 38 38 38 37 37 37 36 36 35
35 34 34 33 33 33 33 33 34 38 41 41 40 36 28 28
29 39 36 35 31 22 11 9 5 5 8 13 9 7 6 3
4 8 9 8 6 6 5 5 15 18 24 36 39 39 40 40
41 41 42 42 43 44 44 44 45 45 46 47 47 47 47 47
48 49 49 49 49 49 49 49 50 49 49 49 49 50 50 50
50 50 50 50 50 50 51 51 50 50 50 51 51 49 48 48
51 50 50 48 49 48 48 47 47 47 47 46 45 44 44 43
43 42 42 41 41 40 40 39 39 38 38 37 37 36 35 35
35 34 33 33 33 33 32 33 35 38 40 41 40 37 28 30
29 39 36 35 32 20 6 2 1 5 7 9 6 6 6 3
0 3 9 8 7 7 7 6 11 12 16 31 36 37 41 42
43 42 43 43 43 43 44 45 45 46 46 46 47 48 48 48
48 49 49 49 49 48 49 49 48 49 49 50 49 50 49 50
50 50 50 50 51 51 50 51 50 49 49 49 49 50 50 50
51 50 51 49 49 49 48 47 47 47 45 46 44 45 44 43
43 43 42 41 41 40 40 39 39 38 38 37 37 37 36 36
35 34 34 34 33 33 33 33 35 37 41 41 40 37 29 31
28 38 35 33 29 16 8 5 3 4 2 2 1 3 2 7
7 2 6 6 9 3 7 6 11 5 5 6 14 25 37 40
42 43 44 43 44 43 44 45 46 47 46 47 47 48 48 48
48 49 49 49 49 49 49 49 50 49 49 48 49 49 49 50
50 49 49 50 50 50 49 49 50 50 50 50 50 50 50 50
51 50 50 49 49 49 48 48 48 47 47 46 46 45 44 43
43 43 42 41 41 41 40 40 39 39 38 38 38 37 37 36
35 35 35 34 33 33 34 33 35 38 42 42 42 39 31 32
28 37 35 30 13 5 6 1 3 6 2 2 0 1 2 9
7 2 1 1 5 2 3 6 10 4 7 6 10 17 24 38
43 43 44 43 43 44 44 44 45 45 46 47 47 48 49 49
49 50 50 50 49 49 50 50 49 50 49 49 50 49 50 49
49 49 49 49 50 50 50 49 50 49 50 50 50 50 50 50
51 51 50 50 50 50 48 48 48 47 47 47 46 44 45 44
43 43 43 42 42 41 41 40 40 39 38 38 38 37 37 36
36 35 36 35 34 35 35 35 35 39 42 42 42 38 30 33
29 37 32 19 4 3 6 3 0 2 2 1 0 0 1 4
1 4 1 0 1 0 3 12 7 6 7 9 14 20 26 28
40 43 44 44 45 45 45 46 47 46 47 47 48 47 48 48
49 49 50 49 49 50 50 50 50 49 50 50 49 49 50 50
50 50 50 50 49 49 49 50 51 50 50 50 50 50 50 49
51 50 49 49 49 49 48 48 48 47 47 46 46 45 45 45
44 44 43 42 41 41 41 41 40 39 39 38 38 38 37 37
37 35 35 35 34 34 34 34 35 39 43 43 42 39 31 33
31 32 28 15 3 3 6 5 1 0 1 1 0 0 0 0
0 2 4 0 0 0 1 4 2 5 5 5 6 8 13 17
37 43 45 44 44 45 45 45 46 47 47 47 48 48 48 49
49 50 50 50 50 50 49 49 48 49 48 49 49 49 50 51
50 49 50 50 49 49 49 49 50 49 49 50 50 49 49 49
51 51 50 50 49 48 49 49 48 47 47 46 45 45 45 44
44 43 43 43 42 42 42 41 41 40 39 39 38 38 38 37
37 36 36 35 35 35 35 35 36 39 43 43 42 39 30 34
33 32 20 11 6 2 5 2 1 1 0 0 0 1 2 0
0 0 3 0 2 1 0 2 0 2 1 2 11 13 14 13
24 43 44 44 45 46 45 46 46 46 47 48 48 49 49 49
48 47 49 48 48 49 49 50 51 51 49 50 50 49 50 49
49 49 49 50 50 49 50 49 50 51 50 50 49 49 50 49
51 50 50 50 49 49 49 48 48 47 47 46 46 45 46 45
44 44 43 42 42 42 41 40 40 40 39 39 39 38 39 37
37 37 37 36 36 35 35 35 37 40 44 43 42 39 30 34
33 31 20 6 2 2 3 2 1 1 1 0 0 0 2 3
0 0 0 0 0 0 0 0 0 1 2 3 11 16 18 18
18 38 44 45 45 45 46 46 46 46 48 48 47 47 47 48
49 49 49 50 50 50 50 50 50 51 51 49 50 49 49 50
50 50 50 50 50 50 50 50 50 50 50 50 50 49 49 49
50 50 50 50 49 50 49 48 48 48 47 47 47 46 45 45
44 44 43 43 42 42 42 41 41 40 39 39 39 39 38 37
37 37 36 36 36 36 35 36 37 39 44 42 43 40 30 32
32 23 9 9 9 3 1 0 0 1 0 0 0 0 1 2
0 0 0 0 0 0 0 1 1 1 0 1 7 7 13 13
8 22 41 44 46 46 47 46 46 46 47 48 47 49 50 50
50 50 49 50 50 49 50 50 51 51 51 50 50 50 50 50
50 50 50 50 50 49 49 48 49 50 50 49 50 50 49 50
51 50 49 50 49 48 48 48 48 47 47 46 46 46 46 45
44 44 43 43 43 42 42 42 41 41 41 40 40 39 39 39
38 37 37 37 36 36 36 36 37 40 44 43 43 41 27 26
19 9 10 6 3 2 0 1 0 1 3 3 2 0 0 1
0 0 1 1 0 1 0 0 0 0 0 1 0 2 7 10
9 14 24 40 44 44 45 46 47 47 48 48 49 49 50 50
50 50 50 50 50 50 50 50 51 51 51 49 49 49 49 49
50 51 50 50 50 50 50 49 49 50 50 50 49 49 49 49
51 50 50 50 49 49 49 48 48 48 47 47 46 45 45 45
44 44 44 43 42 42 43 42 42 41 40 40 40 40 39 39
38 37 37 36 36 36 36 36 37 40 45 44 44 39 23 12
18 12 5 3 0 0 0 0 2 2 1 1 1 2 1 3
3 3 1 3 3 7 6 3 0 0 0 0 0 0 5 11
10 24 20 19 40 44 46 47 47 48 49 49 49 49 50 50
50 50 50 50 50 50 50 50 51 51 51 49 50 50 50 50
49 49 50 50 50 49 49 49 49 49 50 50 50 50 50 50
51 50 50 49 49 49 49 49 48 48 48 47 47 46 46 45
44 45 44 43 43 43 42 42 41 41 41 41 40 39 39 39
38 38 37 37 36 37 36 37 37 40 44 44 44 41 22 20
30 11 7 1 0 0 0 0 3 7 4 1 2 4 10 12
12 10 11 16 15 15 15 11 6 2 0 0 0 0 7 8
13 19 27 23 28 44 47 47 47 47 50 49 49 49 50 49
49 50 50 49 50 50 50 50 50 50 51 49 50 49 50 50
50 49 50 50 50 49 50 49 50 50 50 50 50 50 48 46
51 51 50 50 49 49 49 49 48 47 48 47 46 46 46 45
45 45 44 44 43 43 42 42 42 42 42 41 40 40 39 39
38 38 37 37 36 37 37 37 38 41 45 45 45 42 19 18
14 10 4 0 0 0 1 8 15 19 18 19 24 21 23 30
28 25 25 34 35 26 28 28 21 11 2 0 0 0 1 1
5 6 20 22 23 42 46 47 47 48 50 49 50 50 49 49
50 50 50 49 50 50 50 50 49 50 51 50 49 50 50 50
50 50 50 49 49 49 50 50 50 49 49 48 45 45 45 46
50 50 50 49 49 49 48 48 47 47 47 46 46 46 45 45
45 45 44 44 43 43 42 42 41 41 41 41 40 39 39 39
38 38 38 37 37 36 37 37 38 41 45 45 44 40 12 0
1 10 5 0 0 0 8 16 21 22 25 20 26 34 50 52
44 36 35 43 40 43 43 44 37 26 16 2 0 0 1 1
0 1 3 15 24 38 46 46 48 48 49 49 49 49 49 49
50 50 49 50 50 49 50 51 50 49 51 50 49 51 50 50
50 50 50 49 49 49 48 48 48 48 49 50 48 49 47 48
50 50 50 49 49 49 49 48 47 47 48 47 46 46 45 46
45 44 44 44 43 43 42 41 42 42 41 41 41 40 40 39
38 38 38 38 37 37 37 37 39 40 45 45 45 35 11 0
7 2 1 1 1 17 27 24 24 23 26 25 35 47 62 63
68 61 55 53 49 53 58 64 53 43 35 18 2 0 0 2
2 0 8 7 16 39 46 47 48 48 49 48 49 50 49 50
49 49 50 49 49 49 49 50 50 50 51 50 49 50 49 48
48 48 48 47 48 49 50 49 49 48 48 49 48 48 47 47
50 50 50 49 49 49 48 48 48 47 47 47 46 46 45 46
45 45 44 44 43 43 43 42 42 41 40 41 40 40 39 39
39 38 38 38 38 38 38 38 39 41 46 45 45 36 8 1
1 7 2 1 16 35 47 50 43 48 45 45 57 69 73 78
86 80 70 62 66 70 69 68 68 57 50 43 14 0 0 0
9 9 4 9 22 40 46 48 48 48 49 49 49 49 49 49
49 49 49 49 49 50 51 51 50 50 49 46 46 47 48 48
48 49 50 51 47 47 48 48 48 48 47 47 47 47 46 45
50 49 50 49 49 48 48 48 48 48 48 48 47 47 46 46
45 45 44 44 44 44 43 43 43 42 41 41 41 41 40 40
39 39 39 38 37 38 37 38 39 41 46 46 45 25 4 5
2 6 7 12 41 51 62 60 63 62 59 59 66 71 73 79
94 88 80 83 78 78 75 81 76 69 58 53 35 4 0 0
3 8 2 1 29 41 46 48 48 48 50 49 49 49 50 50
50 50 50 50 49 48 47 47 48 48 48 49 49 49 48 48
47 49 49 50 47 48 47 47 48 47 47 47 46 47 47 45
31 46 50 49 49 49 48 48 48 47 48 47 46 46 46 46
45 45 45 45 44 43 43 43 42 42 42 42 41 40 40 40
39 39 39 39 38 38 38 37 39 41 45 45 40 11 8 1
4 3 8 36 51 64 74 81 81 87 81 78 84 86 91 86
92 93 94 96 93 87 83 79 80 78 61 55 50 14 0 0
4 4 0 0 19 40 48 48 48 48 49 49 48 48 49 49
49 48 48 47 48 48 49 49 49 49 49 48 48 48 49 48
48 48 48 49 47 48 47 48 49 47 47 47 47 47 46 45
22 44 50 49 50 49 49 48 48 48 48 48 47 46 46 46
45 45 44 44 44 43 43 43 42 42 42 42 42 41 40 40
40 39 39 39 38 38 38 38 39 41 45 45 37 22 4 0
2 5 23 47 60 76 86 89 93 95 100 106 104 105 110 110
99 98 94 99 97 95 90 93 85 83 75 63 62 38 1 0
7 5 0 0 9 43 47 47 47 47 48 48 48 48 48 49
49 49 50 49 49 49 49 49 49 48 48 48 48 48 49 48
48 49 48 49 48 48 47 47 48 47 47 46 47 46 46 46
23 44 51 49 50 49 48 48 48 48 48 48 47 46 46 46
46 45 45 44 44 44 44 43 45 51 48 44 43 42 41 41
40 39 39 39 39 39 38 39 39 42 46 44 23 10 0 3
4 12 43 57 69 86 96 96 104 105 108 113 115 117 118 119
114 109 107 103 103 101 98 97 98 85 83 70 63 48 8 0
8 4 0 1 2 35 47 47 47 47 47 47 48 47 47 48
47 48 49 49 48 49 49 49 49 49 49 48 48 48 48 49
48 48 47 49 47 47 47 48 48 47 47 46 46 46 46 45
24 44 50 50 50 49 49 55 60 56 55 52 49 48 46 47
47 46 45 45 44 44 44 44 52 62 58 53 52 49 44 41
41 40 41 40 39 38 39 38 40 42 45 42 35 13 0 1
7 30 59 63 77 90 99 100 107 108 114 119 118 120 124 125
124 118 114 112 103 102 102 101 100 93 85 76 68 60 22 0
7 14 0 0 1 38 47 48 48 47 48 49 48 48 49 48
49 48 50 50 49 50 49 49 49 49 49 48 48 48 49 49
48 49 49 49 47 48 47 48 47 48 48 47 47 46 46 46
27 47 52 50 50 50 50 59 64 62 60 55 54 53 53 48
47 46 46 45 45 45 45 44 53 59 57 54 55 54 50 42
41 41 41 40 39 39 40 39 41 42 43 38 32 5 0 0
11 46 63 66 81 93 100 104 108 112 119 123 122 122 126 127
126 122 118 115 113 101 103 102 102 97 84 78 70 69 38 5
7 8 5 0 0 34 46 48 48 48 48 48 48 49 49 49
48 48 50 50 49 49 49 49 49 49 49 49 49 49 49 49
49 48 48 49 48 48 49 49 48 49 49 47 48 48 47 47
29 51 54 53 52 51 50 60 66 64 59 58 60 63 62 55
56 55 51 46 46 46 46 45 50 49 51 51 55 55 53 44
42 42 42 41 41 41 40 41 42 42 43 35 26 3 0 1
20 57 65 71 86 95 101 101 111 114 119 123 125 125 127 128
127 122 119 118 116 109 100 102 103 99 87 85 71 70 50 13
10 7 7 0 0 21 47 49 49 49 49 49 49 49 50 49
49 50 50 51 50 50 50 50 50 49 50 49 50 49 49 50
51 50 49 50 50 50 49 49 48 49 49 49 49 48 48 47
29 54 58 54 55 55 55 57 41 48 57 60 64 65 62 47
43 52 54 55 53 54 52 48 48 30 25 26 31 36 44 45
42 42 42 42 42 41 41 42 42 43 39 27 17 0 0 1
32 62 65 76 87 95 103 102 112 116 121 123 125 126 127 127
126 124 121 119 118 113 107 103 103 100 90 87 73 72 60 22
11 2 3 0 6 30 48 48 49 49 49 48 50 49 49 49
49 49 50 51 51 50 50 49 49 49 50 50 49 50 49 50
50 50 50 50 50 49 50 49 50 49 49 49 49 49 47 46
29 53 58 48 48 55 61 60 6 2 20 39 44 48 57 31
1 6 14 27 34 45 52 51 48 28 14 18 17 6 18 46
43 43 42 42 41 40 41 41 42 44 39 28 4 0 0 2
40 67 68 79 91 97 101 107 114 118 123 124 125 128 129 130
129 127 124 123 120 115 113 106 102 101 90 86 73 72 63 31
10 4 2 0 8 38 46 49 48 48 48 49 49 49 49 49
49 50 49 51 50 49 49 48 49 49 50 49 49 49 49 49
51 50 50 50 50 50 50 49 48 47 47 46 46 47 48 48
28 43 54 56 55 57 65 63 8 0 7 19 23 22 42 29
0 0 0 0 4 4 10 25 49 26 6 7 10 4 14 48
43 43 43 42 41 41 42 41 43 44 46 20 0 0 0 7
49 70 70 79 91 96 101 107 115 123 127 126 128 134 135 132
129 128 126 125 123 121 117 112 103 102 96 90 75 74 65 40
11 1 2 2 5 38 46 48 48 48 49 49 50 48 49 49
50 49 50 50 50 49 49 49 49 49 50 50 50 49 50 49
50 50 49 48 46 47 47 48 48 48 49 49 50 49 48 48
24 6 8 19 33 47 57 61 10 0 5 13 15 17 40 34
3 0 0 0 1 0 0 10 49 20 0 0 6 3 16 49
43 43 43 43 42 42 41 42 43 44 48 21 0 0 0 12
54 72 71 79 92 97 103 109 119 127 133 134 136 137 137 137
135 135 132 133 135 131 120 115 106 102 98 89 76 74 65 45
10 0 0 1 9 31 47 47 48 48 49 49 49 49 49 49
49 49 50 50 50 49 49 50 49 49 50 49 50 50 50 50
50 49 50 50 50 49 49 49 48 48 48 48 50 47 48 47
23 1 0 0 0 2 6 28 12 0 1 3 1 10 34 30
0 0 0 0 1 0 0 9 48 10 0 0 1 3 16 50
43 43 43 42 42 42 42 42 43 43 48 18 0 0 0 15
56 73 74 79 91 97 105 115 121 130 138 137 139 139 140 139
136 135 135 140 143 135 124 117 109 103 98 90 77 75 65 45
14 0 0 0 20 35 46 47 48 48 49 49 49 49 49 50
50 49 50 49 49 49 49 49 49 49 49 49 51 50 50 50
50 49 49 48 49 48 48 48 47 47 48 48 50 48 48 49
22 1 0 0 0 0 0 14 11 0 0 0 0 3 37 30
0 0 0 9 13 2 0 7 48 9 0 0 0 2 15 51
43 43 43 43 42 42 42 42 43 43 47 18 6 0 0 16
56 73 78 81 89 99 106 116 120 129 138 138 139 140 142 140
138 137 140 146 145 139 128 120 111 103 97 89 79 73 58 43
15 0 0 0 18 39 47 48 48 48 49 49 49 49 49 49
49 49 48 49 50 50 50 50 50 49 50 49 50 50 50 49
49 49 49 49 49 49 49 50 49 49 49 49 50 49 48 49
22 1 0 0 0 0 0 12 10 0 0 0 0 2 39 33
0 0 1 13 22 15 7 5 47 7 0 0 0 0 11 51
43 43 43 42 42 42 41 42 43 44 48 34 18 2 0 16
56 71 80 83 89 100 106 115 122 126 132 138 139 142 142 142
138 141 143 142 140 135 130 121 112 105 99 91 84 74 58 39
10 0 0 0 15 38 48 48 48 49 50 49 49 49 49 48
49 48 49 50 50 49 49 49 48 47 48 50 50 50 50 49
49 49 49 50 50 49 49 49 49 50 49 49 48 47 45 44
22 2 0 0 14 4 0 10 9 2 0 0 0 2 36 37
0 0 3 17 23 21 18 6 46 9 0 0 0 0 8 52
43 43 43 43 42 42 41 42 43 43 49 36 35 17 0 12
56 70 83 88 91 100 108 116 121 122 131 136 140 144 144 142
140 142 143 142 140 134 130 119 112 107 100 94 85 74 60 38
9 0 0 0 11 27 44 47 49 49 49 48 49 49 48 49
49 49 49 50 49 49 50 50 49 48 49 50 51 50 50 50
50 51 50 50 50 49 49 49 50 48 45 45 45 44 42 39
22 2 12 9 10 3 0 9 12 2 0 0 0 8 36 40
0 1 2 14 21 20 19 6 45 16 1 0 0 0 5 51
43 43 42 42 42 41 41 43 44 44 49 45 30 21 0 9
56 71 82 89 92 99 108 116 124 131 128 136 139 143 144 142
141 142 142 143 141 135 130 123 111 106 103 92 86 77 63 41
10 0 1 2 13 13 34 48 48 49 49 49 48 49 49 49
49 49 49 49 49 48 49 48 48 49 48 50 51 50 50 50
50 50 47 46 45 46 47 46 43 39 35 31 27 23 21 20
22 7 13 1 7 5 0 10 12 0 0 0 0 13 40 44
3 3 6 2 9 18 17 3 46 50 39 30 21 16 21 52
43 43 43 42 42 42 42 42 44 44 49 43 21 20 3 6
57 69 81 90 97 102 111 119 129 136 139 136 139 144 148 145
144 145 143 143 140 133 131 123 114 107 102 91 87 78 65 41
8 0 0 3 11 29 29 48 48 48 48 50 48 49 49 48
48 48 49 49 49 49 49 49 48 48 49 49 48 47 47 46
47 44 40 36 32 29 25 22 20 20 19 20 21 22 23 23
23 7 3 0 0 2 0 14 37 21 15 13 4 2 35 64
45 39 34 22 12 9 11 4 45 59 56 54 55 60 62 59
43 43 42 42 42 41 42 42 44 44 49 35 25 19 4 4
58 69 83 93 100 106 113 123 133 140 143 143 146 147 148 146
146 145 146 147 143 142 134 124 117 111 103 93 85 79 65 44
5 0 0 12 23 28 34 46 47 48 48 49 49 48 48 48
48 49 48 47 47 46 49 46 47 44 45 43 40 35 31 27
25 22 21 20 21 20 21 22 23 25 26 26 27 28 28 29
22 3 0 0 0 0 0 18 67 61 52 52 49 40 53 62
30 32 37 40 41 41 42 43 59 54 54 55 57 63 66 60
43 43 43 42 42 42 42 42 44 44 49 35 23 11 8 3
58 70 80 91 97 109 118 129 137 143 146 146 147 148 149 148
148 148 149 147 145 145 138 128 122 113 105 93 84 80 67 47
4 0 1 14 27 28 42 45 48 48 48 48 46 47 46 45
45 46 46 46 43 40 38 34 31 28 26 24 23 22 22 23
24 25 26 27 25 20 29 31 31 33 33 33 34 33 21 34
23 4 0 0 0 0 0 17 70 57 61 65 70 67 62 53
23 22 22 22 22 22 24 27 31 29 34 41 47 50 50 49
43 43 43 43 42 42 42 42 44 44 49 44 25 29 27 3
58 68 74 72 68 89 108 125 134 145 147 149 150 151 151 149
150 150 150 147 148 147 140 131 122 111 102 93 82 75 68 50
5 0 4 23 32 38 47 47 48 47 48 47 45 46 48 41
36 33 29 27 25 24 24 24 25 26 26 27 29 30 30 31
32 33 34 35 34 15 34 37 37 37 34 34 39 26 34 41
26 40 38 28 17 9 4 19 60 51 62 66 70 69 57 45
25 23 22 20 19 18 17 16 15 15 17 18 35 42 38 38
41 43 43 42 42 42 42 42 43 43 48 47 33 21 38 4
58 62 26 13 27 41 56 80 107 130 139 144 149 150 148 148
148 148 145 144 139 131 117 99 75 63 65 90 82 74 70 56
8 0 21 57 48 46 45 43 41 37 35 31 28 28 45 36
20 24 26 28 28 29 31 32 33 34 34 36 36 37 38 38
38 31 31 39 40 26 29 41 42 42 27 37 38 28 42 43
28 54 67 64 60 56 52 54 53 45 58 63 67 68 60 50
29 24 21 18 17 16 16 16 16 17 18 19 37 26 29 42
42 43 42 42 42 42 42 43 44 44 47 46 39 34 31 9
61 44 14 9 11 14 15 19 35 71 103 126 140 145 145 144
143 135 129 111 86 61 44 39 28 29 22 28 61 73 70 60
11 2 24 52 62 31 28 27 26 26 26 28 29 28 38 32
25 31 34 36 37 38 39 40 40 41 40 41 41 42 42 42
43 43 37 34 44 39 20 44 44 41 25 40 27 38 39 45
27 54 67 67 64 66 66 68 42 12 19 29 37 45 44 51
31 22 18 9 8 8 16 19 19 17 22 23 40 37 35 50
49 46 25 25 43 43 42 43 43 40 37 35 26 22 17 16
61 43 37 41 47 45 33 19 10 12 35 77 112 131 137 132
128 110 72 29 16 14 15 20 30 37 28 27 27 67 74 63
11 4 34 60 70 29 30 30 33 33 33 36 36 35 42 37
30 38 40 41 42 43 43 44 44 44 44 43 44 44 45 44
45 45 45 37 35 42 19 38 45 41 26 30 35 41 41 45
27 47 60 60 62 64 66 67 32 0 0 0 3 15 25 51
29 20 15 1 0 0 7 13 11 6 15 17 37 53 46 47
48 50 42 37 42 41 41 42 30 25 29 20 13 24 15 21
66 49 48 56 55 47 42 31 19 17 17 36 81 113 125 124
113 81 32 11 9 10 22 36 62 72 75 64 53 57 73 66
13 9 45 80 68 36 37 38 40 40 41 42 41 39 36 33
33 42 43 43 44 45 45 46 46 47 46 46 45 44 46 44
45 46 46 46 37 35 33 22 43 36 27 24 44 39 42 44
34 40 44 46 49 49 53 61 27 0 0 0 1 1 15 53
28 18 14 1 0 5 2 0 1 0 2 5 33 54 39 35
34 37 42 44 42 42 41 41 24 23 37 30 40 28 14 21
73 62 54 47 30 26 38 26 12 15 29 41 60 99 120 123
112 74 42 34 23 18 13 25 27 44 68 67 59 58 72 68
13 10 46 79 67 42 42 42 44 44 43 44 44 39 16 12
29 44 47 47 46 45 45 46 47 46 47 47 46 46 45 45
44 45 45 46 46 35 32 13 22 18 21 35 44 40 43 41
30 32 30 35 44 42 49 61 25 0 0 0 2 0 5 53
22 12 1 0 0 13 10 3 1 0 0 1 31 55 40 28
43 39 37 41 42 42 42 42 36 31 42 42 33 35 10 21
74 77 67 49 34 65 99 47 19 52 49 40 55 91 123 134
116 74 54 57 75 61 27 59 88 32 40 69 74 78 74 72
19 4 26 77 72 45 45 45 45 45 43 41 40 37 15 9
23 43 46 48 47 47 47 48 47 47 47 48 47 46 46 44
45 45 45 46 46 44 34 13 0 1 29 40 41 38 42 39
29 31 34 38 45 45 53 59 24 0 0 0 0 0 7 53
8 0 0 0 1 9 17 10 2 0 0 0 30 55 38 21
35 32 34 40 42 42 42 42 40 35 44 47 47 41 14 22
72 85 91 70 59 80 102 50 42 86 107 66 65 84 129 145
115 78 74 81 122 61 26 57 114 74 64 73 92 97 85 71
19 13 12 64 76 45 45 46 45 27 12 7 18 33 12 7
20 42 46 47 47 47 47 46 46 47 46 46 47 46 46 45
44 43 44 44 44 43 43 28 0 7 38 39 34 35 40 41
29 14 7 13 21 29 37 45 23 0 0 0 0 0 8 54
8 0 0 0 1 8 21 18 14 1 0 0 28 56 41 21
27 25 31 40 42 42 42 42 41 36 43 47 46 52 18 25
68 85 102 84 70 77 88 89 83 105 93 84 78 84 133 145
113 89 95 93 105 93 67 83 91 78 90 103 115 105 88 69
19 8 19 79 72 46 46 47 46 30 22 29 36 36 6 1
19 42 45 47 47 45 47 46 46 46 46 45 46 46 44 44
45 43 43 43 43 43 44 39 2 8 41 38 31 31 38 42
34 11 0 0 0 0 0 8 20 0 0 0 0 0 9 51
5 0 0 0 5 22 25 21 19 1 0 3 29 56 44 32
29 22 30 39 42 42 42 42 41 35 43 47 46 45 25 26
65 81 103 94 78 80 97 95 93 90 95 97 77 92 135 142
113 91 102 96 98 101 97 115 110 94 102 115 119 106 82 66
26 39 57 87 66 46 46 46 47 46 45 44 43 38 11 3
21 42 46 47 47 46 46 46 46 46 45 45 46 46 45 45
45 44 43 42 43 43 44 40 5 8 42 42 31 30 42 43
33 13 0 0 1 0 0 4 19 0 0 10 7 0 8 50
3 0 0 0 4 20 29 12 7 0 1 3 25 56 47 33
18 7 21 38 42 42 42 42 41 34 43 48 46 44 17 24
64 79 102 108 97 85 82 87 86 89 102 96 82 101 137 135
110 98 103 102 92 98 106 107 101 104 116 120 115 103 77 66
29 32 49 90 62 47 47 47 47 46 45 44 43 39 18 0
25 43 47 47 47 47 47 46 46 46 46 46 46 46 45 44
44 45 44 42 42 44 45 42 6 6 41 43 33 31 42 43
33 12 0 1 10 2 0 4 18 0 4 25 17 3 8 48
3 0 0 0 2 1 22 3 0 0 1 0 20 55 45 26
12 7 17 36 41 42 42 42 41 34 45 48 45 38 16 21
63 77 101 114 114 112 112 110 105 105 112 99 88 106 134 129
108 106 112 119 114 108 109 109 119 127 129 121 113 98 76 64
29 20 51 88 57 46 46 46 46 45 46 45 43 39 27 13
33 44 47 47 47 46 46 45 45 45 46 46 45 46 46 45
45 46 44 42 43 45 45 43 8 5 40 43 31 29 42 44
30 12 0 8 25 11 2 3 22 0 13 24 19 8 8 46
2 4 0 0 0 0 21 7 0 0 0 0 15 54 42 15
9 0 16 36 42 42 43 43 40 35 45 46 41 30 10 16
58 76 101 115 122 124 118 114 115 119 116 96 90 111 135 128
110 113 115 126 125 123 124 127 137 137 129 117 110 94 72 61
20 21 65 88 52 47 46 46 46 46 46 45 43 37 34 33
39 46 46 47 47 46 47 45 45 46 45 45 46 45 45 45
45 45 44 42 42 38 42 40 10 3 29 32 23 26 39 42
29 12 0 13 27 13 5 3 45 39 45 45 41 37 34 50
3 0 0 0 0 0 20 9 0 1 0 0 9 53 38 11
10 1 25 35 41 43 43 42 38 39 46 48 43 31 15 11
54 73 98 112 125 132 132 128 130 129 110 95 91 115 139 122
110 116 115 124 138 137 134 135 140 128 121 106 105 94 70 56
17 21 67 85 47 46 46 45 46 45 45 45 43 39 38 39
44 46 46 46 47 46 46 46 46 46 46 45 46 45 45 45
45 45 44 41 41 37 29 32 11 2 32 43 35 31 40 43
29 15 0 6 9 5 2 2 49 54 59 59 58 63 67 57
13 9 9 1 0 3 24 12 4 5 1 0 7 46 36 9
2 5 15 33 42 43 42 42 37 41 46 48 44 27 16 6
44 69 93 112 127 134 140 140 139 129 105 92 92 121 143 123
108 115 116 125 141 147 147 147 145 138 120 105 104 89 67 46
12 25 74 67 46 46 46 46 46 45 45 44 43 41 41 42
47 47 47 47 47 47 47 47 47 47 46 46 44 46 46 45
45 44 44 43 41 43 43 43 16 1 30 40 34 28 35 38
30 26 13 3 4 1 0 2 48 56 59 58 58 67 71 66
43 40 39 32 29 29 34 27 22 18 17 14 20 40 40 18
15 16 7 25 41 43 43 42 35 41 47 48 47 24 12 4
35 62 84 108 126 141 144 144 145 130 104 91 95 129 143 119
105 110 118 129 144 148 149 149 148 140 128 116 100 79 61 35
6 24 77 60 46 45 47 46 47 45 45 45 45 43 43 45
45 46 45 44 45 46 46 46 45 45 45 46 46 46 45 45
45 44 44 43 42 42 43 42 20 1 28 41 35 27 36 41
32 31 10 1 3 0 0 2 44 48 51 52 52 57 56 55
48 48 48 46 45 46 45 42 39 35 32 31 32 44 49 36
33 27 22 25 40 42 41 41 35 43 47 48 46 29 13 4
27 62 75 103 123 137 144 147 146 124 105 87 101 135 141 118
104 101 111 135 148 150 150 150 149 144 129 115 93 71 56 25
5 24 70 50 46 46 46 46 45 44 44 45 44 43 44 45
44 44 45 46 46 46 46 45 45 45 45 45 44 45 45 44
44 43 44 42 41 41 42 42 23 1 26 43 36 27 36 41
34 28 4 0 2 0 0 1 48 48 49 48 49 48 43 43
48 50 51 50 49 47 48 47 46 51 47 43 42 48 59 56
55 54 50 43 41 42 42 41 35 42 47 48 46 36 13 4
21 60 69 97 120 136 142 148 143 111 97 86 113 140 144 123
108 97 100 128 147 150 151 150 149 143 126 109 86 64 44 19
5 39 48 46 45 44 45 45 46 45 45 45 44 44 46 47
46 45 46 46 47 46 46 46 46 45 45 45 45 45 45 44
44 44 44 42 41 42 43 42 24 1 23 43 36 27 35 40
31 34 31 26 21 17 12 12 52 51 48 48 48 48 49 52
53 52 55 60 59 49 46 48 51 61 59 54 53 53 47 40
39 39 41 40 41 43 41 41 36 42 48 49 46 37 13 2
15 51 64 93 115 127 138 144 124 101 94 93 123 148 149 130
109 104 97 114 144 149 150 150 148 135 121 101 72 55 36 11
11 20 36 46 45 45 45 46 46 46 46 46 46 45 46 47
46 46 46 46 46 45 46 46 46 45 45 45 45 45 45 45
44 44 44 42 40 42 43 41 26 2 21 41 38 27 35 41
32 42 60 63 58 59 63 61 65 55 51 51 51 52 56 59
58 53 56 64 63 49 44 40 49 62 59 55 55 53 48 40
33 32 31 34 40 42 42 40 34 43 46 48 47 40 18 4
11 39 56 76 104 116 131 129 107 95 96 90 123 148 150 133
107 103 104 104 132 145 146 145 140 125 112 88 64 56 27 10
8 19 37 47 46 46 46 45 45 45 44 44 46 45 46 46
46 46 45 45 45 45 45 45 45 44 44 44 44 43 43 43
43 43 43 42 40 40 43 43 30 2 18 41 36 27 33 39
33 43 70 71 70 70 70 70 69 54 45 43 43 44 52 60
62 54 55 53 52 51 46 42 41 49 43 43 48 50 49 46
40 38 39 40 42 43 42 39 36 44 47 49 45 41 18 3
7 23 47 71 90 112 122 113 97 99 99 68 100 130 130 111
77 83 100 111 123 142 143 137 126 110 100 73 59 42 21 8
10 17 40 45 45 44 45 44 44 44 44 45 46 45 46 45
45 46 45 45 45 46 45 44 45 45 44 44 44 44 43 43
43 42 43 41 40 40 43 42 32 2 16 42 39 28 32 40
35 36 49 52 53 56 58 60 63 39 10 10 7 8 13 31
61 53 37 16 22 25 25 34 44 30 7 3 7 17 25 45
43 42 46 49 52 50 44 38 37 44 47 48 46 41 22 2
5 21 46 63 74 98 108 102 97 104 101 76 66 95 100 80
76 67 108 120 129 140 137 126 107 96 93 69 55 39 16 8
9 14 38 44 45 45 43 42 42 41 40 38 41 44 45 45
45 46 45 45 45 45 45 45 44 43 44 44 44 43 42 43
42 42 43 42 40 41 43 43 34 3 13 41 40 29 32 40
33 32 40 40 39 38 38 38 42 27 2 0 0 0 0 15
58 46 11 0 1 4 12 34 46 28 1 0 0 6 20 36
19 23 28 30 36 52 45 37 38 44 47 48 47 40 24 2
4 14 31 53 66 80 99 101 102 102 97 76 66 64 58 76
87 90 104 123 141 140 131 115 96 82 79 58 44 29 14 5
7 15 35 43 45 44 34 20 19 17 16 15 25 44 46 46
45 45 45 44 45 44 44 44 44 43 43 43 44 44 43 43
44 43 43 43 41 41 43 43 36 4 13 41 41 29 31 39
32 35 48 49 49 48 46 45 46 29 9 1 0 0 4 28
57 33 0 0 0 0 1 35 46 30 0 0 0 3 18 31
1 5 7 1 8 50 46 36 40 44 46 47 45 36 24 0
3 6 21 43 58 68 100 95 89 85 68 34 36 55 88 59
45 47 81 114 124 124 124 110 88 64 62 47 35 20 12 7
2 2 30 44 44 44 31 11 11 11 12 11 22 45 46 46
46 45 46 45 45 44 44 44 44 44 43 43 43 44 42 43
43 42 43 43 41 41 44 43 37 5 12 40 38 26 28 39
32 36 50 52 51 51 51 52 52 32 8 2 0 0 3 18
53 22 0 0 0 0 0 33 46 29 0 0 0 1 15 33
1 11 16 3 5 48 46 36 41 44 47 47 47 40 23 0
1 3 16 28 51 65 79 56 55 49 25 20 22 32 48 24
24 22 37 63 82 72 75 99 98 64 46 33 18 14 8 4
4 2 25 42 43 43 30 11 11 11 12 11 21 44 47 46
47 46 45 45 44 43 43 44 43 43 43 43 43 44 44 44
43 43 43 41 40 39 40 39 36 5 10 36 37 27 29 40
38 40 47 49 49 51 52 52 55 32 1 0 0 3 11 10
51 19 0 0 0 0 0 34 44 27 0 0 0 0 11 36
2 4 7 1 4 47 46 36 41 44 46 48 46 41 26 2
4 3 9 17 46 55 35 21 25 15 10 7 12 23 30 16
22 17 20 21 30 29 27 62 104 67 37 29 14 12 4 5
1 1 23 42 43 44 28 11 12 11 11 11 19 43 47 46
47 46 45 45 44 44 43 43 43 43 42 41 41 43 44 43
43 43 43 43 40 40 40 41 38 6 7 37 39 28 28 37
47 47 46 46 46 46 46 39 52 42 7 0 0 2 8 4
49 16 0 0 0 0 0 34 44 25 0 0 0 0 3 37
3 8 10 2 3 45 46 36 42 44 47 47 47 45 31 2
0 3 6 10 30 36 9 6 13 9 4 5 16 33 55 23
13 6 10 17 14 11 10 23 75 60 28 17 12 5 2 1
2 2 23 42 43 43 31 11 11 11 11 11 15 42 46 45
44 43 43 42 41 41 42 42 42 42 42 42 43 42 42 42
42 42 41 41 38 39 40 40 38 8 4 34 38 29 27 36
47 47 47 46 46 45 45 39 50 46 13 0 0 3 11 5
46 14 0 0 0 0 0 27 45 30 4 0 0 0 2 39
6 2 3 0 2 44 45 36 42 43 46 47 46 45 36 5
1 2 4 8 21 22 2 0 6 15 14 29 53 87 107 82
34 13 6 14 6 2 2 3 44 38 20 9 9 3 0 0
0 3 21 42 42 42 34 17 17 17 18 19 20 36 42 43
43 43 43 43 37 30 30 32 38 42 41 41 42 41 41 40
41 41 41 40 38 37 39 39 38 10 3 33 38 30 26 35
45 45 45 45 45 45 45 41 49 43 1 0 0 0 1 4
47 15 0 0 0 0 0 23 46 27 0 0 0 0 1 40
10 0 1 0 2 42 43 36 41 44 46 47 46 44 36 9
1 0 3 5 14 37 20 8 52 68 65 76 78 71 75 72
73 61 61 69 39 9 4 9 39 27 15 5 3 5 0 2
0 5 19 41 42 42 35 17 17 16 16 16 17 34 43 44
44 45 43 40 4 0 0 0 20 43 41 41 42 41 41 41
41 40 40 40 38 37 38 38 38 12 1 31 38 30 26 36
14 15 15 16 21 36 44 42 46 38 0 0 0 0 0 2
45 19 0 0 0 0 0 20 48 28 1 0 0 0 1 39
16 0 0 0 4 41 42 36 41 44 46 47 44 40 37 16
0 0 1 0 7 31 27 29 63 79 81 86 113 120 115 118
117 95 91 90 74 40 23 46 37 21 12 5 2 2 1 0
4 4 18 39 42 42 35 13 12 12 12 11 13 35 43 43
43 42 42 39 4 0 0 0 16 42 42 41 41 41 41 41
41 40 40 39 37 37 39 39 39 14 1 29 39 31 26 36
0 0 0 0 4 41 45 43 42 38 3 2 1 2 14 5
41 31 10 10 13 11 11 27 51 36 34 31 31 35 38 53
25 6 5 4 8 39 40 35 41 43 46 45 40 43 41 19
0 0 0 0 1 12 15 22 47 74 64 73 85 91 90 88
87 77 74 77 72 37 18 23 25 15 7 2 4 2 0 0
12 6 18 40 42 42 35 13 10 11 11 11 12 36 44 44
43 42 42 38 3 0 0 0 7 42 43 42 42 41 41 41
41 41 42 42 39 38 40 40 40 17 1 28 40 33 25 35
0 0 0 0 4 43 47 42 40 51 45 39 36 40 45 40
45 52 58 54 55 57 57 60 58 38 49 53 55 61 66 67
48 38 36 36 36 42 39 34 40 42 44 42 43 44 41 23
0 0 0 0 1 3 4 10 31 59 51 34 35 23 14 10
27 43 58 72 48 21 9 11 8 6 4 0 1 2 0 0
9 10 17 39 42 42 36 13 11 11 11 10 12 35 45 43
43 43 43 38 3 1 0 0 5 42 44 43 43 42 42 41
42 41 41 41 39 38 40 40 40 20 1 27 40 34 25 34
0 0 0 0 2 41 49 43 39 57 58 50 51 54 49 42
39 48 66 63 61 61 65 65 62 39 43 50 54 61 66 65
52 39 39 39 40 40 39 35 37 41 41 42 44 43 41 30
7 0 0 0 0 2 3 6 17 41 44 28 19 8 7 3
11 33 55 61 33 15 2 6 3 0 0 0 0 0 0 0
13 24 17 40 42 43 37 13 11 11 11 11 13 36 45 45
30 17 24 18 1 0 2 0 4 42 43 42 42 42 43 43
43 42 42 42 40 38 40 41 40 22 1 23 40 34 26 34
0 0 0 0 1 39 49 43 39 56 52 45 49 51 51 42
35 37 46 48 47 46 47 46 47 37 34 41 44 45 40 39
41 40 40 41 39 39 40 38 38 38 41 45 45 43 41 27
18 0 0 0 1 1 5 7 14 27 27 16 6 1 0 0
2 14 39 40 16 8 2 5 4 0 2 0 2 0 0 1
8 28 24 39 42 44 37 12 11 10 11 11 13 36 45 41
4 0 1 0 0 0 3 0 3 42 44 43 43 43 42 42
43 41 41 42 41 38 40 41 41 24 1 22 41 35 25 33
0 0 0 0 0 36 49 42 38 54 36 39 39 43 49 43
36 35 29 32 32 33 33 33 37 39 40 43 45 43 39 37
39 41 41 41 41 40 39 39 40 41 44 47 45 42 38 27
28 2 0 0 0 3 5 3 6 8 11 8 2 0 2 0
0 2 10 13 6 2 1 1 2 0 0 0 0 0 0 0
4 14 31 40 42 43 38 13 10 11 12 12 12 35 45 42
6 0 0 0 0 0 0 0 2 41 43 43 43 43 42 43
43 41 42 42 40 39 40 41 41 26 0 19 42 35 25 33
0 0 0 0 0 32 50 42 40 53 18 12 16 19 23 21
25 36 35 40 40 48 49 44 45 48 49 54 56 53 43 39
39 41 40 40 40 40 39 39 40 42 44 47 45 38 35 33
30 4 0 0 1 1 0 1 7 10 6 4 4 4 5 4
2 2 8 4 3 1 1 2 0 0 0 0 0 0 0 0
4 12 24 38 41 43 38 14 9 11 11 10 11 35 46 45
20 0 0 0 0 0 0 0 2 40 44 43 43 43 43 42
42 42 42 42 41 38 41 40 41 27 0 17 39 35 25 32
0 0 0 0 0 28 50 42 45 57 12 0 0 0 1 7
21 37 44 56 50 62 65 34 26 28 30 35 46 57 46 41
40 41 41 41 40 40 40 39 39 41 43 47 42 33 31 33
29 21 0 0 0 1 0 0 1 0 3 6 6 8 7 9
13 6 7 6 0 4 3 1 0 0 0 0 0 13 1 2
9 15 14 21 42 44 40 20 18 18 13 17 19 36 44 44
35 9 0 0 0 0 0 0 1 14 42 44 43 43 43 42
43 42 43 42 41 39 41 43 43 31 0 13 39 35 27 32
0 0 0 0 0 22 50 41 46 62 17 0 0 0 0 0
23 38 41 55 37 41 52 13 0 0 0 1 22 56 47 41
40 40 41 40 40 40 39 40 39 40 43 46 39 27 6 16
37 30 2 0 0 0 0 1 2 3 5 4 11 8 9 11
10 6 5 7 2 2 1 0 0 0 0 1 9 17 0 9
17 21 18 17 37 45 42 40 41 41 35 41 41 44 44 31
50 10 0 0 0 0 0 0 0 2 41 44 44 44 44 44
44 43 43 43 41 39 40 42 41 32 0 9 35 31 25 30
0 0 0 0 0 19 49 42 44 59 22 0 0 0 0 0
21 38 38 52 16 4 32 14 0 0 0 0 16 54 48 41
41 41 40 40 40 39 39 38 39 40 43 43 36 26 7 20
40 18 3 0 0 0 0 1 0 2 3 1 0 1 3 2
1 2 5 7 5 0 0 0 0 1 1 15 46 8 4 22
25 26 25 23 32 44 44 45 45 46 45 45 45 44 30 3
2 13 11 0 0 0 0 0 0 1 39 43 43 43 43 43
42 42 43 43 43 40 39 41 41 34 1 7 32 29 25 29
0 0 0 0 0 16 49 41 38 28 4 0 0 0 0 0
24 37 39 52 15 2 30 17 0 0 0 0 9 51 48 41
41 40 40 40 39 39 39 39 39 40 42 41 36 33 27 24
13 8 2 0 0 0 0 0 0 0 1 1 0 0 0 1
2 1 1 0 0 1 0 0 0 0 6 55 40 0 11 33
27 28 29 23 26 38 38 42 41 38 36 35 34 22 1 0
0 8 6 0 0 0 0 0 0 0 39 44 44 44 43 43
43 43 43 43 43 40 39 41 41 33 1 5 29 28 24 28
0 0 0 0 0 13 48 41 37 21 0 0 0 0 0 0
25 36 38 52 15 1 27 20 0 0 0 0 5 48 47 40
40 40 40 40 39 39 39 39 39 40 41 40 35 27 24 12
7 11 5 0 0 0 0 0 0 0 0 0 0 0 0 0
2 1 0 0 1 0 0 1 0 0 34 73 12 1 15 29
26 27 29 20 30 31 17 20 23 15 5 1 0 0 18 20
8 10 1 0 0 0 0 0 0 0 30 42 44 44 44 43
44 44 44 45 44 42 40 41 40 33 2 3 28 27 24 28
0 0 0 0 0 10 48 42 36 22 0 0 0 0 1 0
22 36 39 53 15 2 25 22 0 0 0 0 4 46 48 40
40 40 40 40 39 39 39 38 39 39 41 42 38 27 19 15
8 10 7 1 0 4 0 0 0 0 0 0 0 0 0 1
1 1 0 0 0 0 0 0 2 17 68 58 0 2 23 26
24 24 25 19 29 23 20 14 17 17 21 24 16 6 30 36
33 31 9 0 0 0 0 0 0 0 0 13 18 17 40 45
45 46 46 46 47 43 41 41 39 33 3 2 27 28 27 29
0 0 0 0 0 9 48 42 36 23 0 0 0 0 4 0
19 38 39 53 20 4 23 26 4 0 1 2 3 44 48 40
40 40 40 40 39 39 39 38 38 39 41 42 40 32 19 20
13 12 8 2 0 16 14 11 1 0 0 0 0 0 0 0
0 0 0 0 0 0 0 5 41 76 87 30 0 10 32 25
24 25 22 19 27 47 16 16 19 20 23 25 23 24 25 22
23 16 11 10 10 10 10 10 10 11 10 8 8 8 40 48
48 48 49 50 49 47 45 46 42 37 5 2 33 36 34 38
0 0 0 0 0 8 47 42 37 26 0 7 0 0 14 6
16 41 40 54 32 11 20 26 6 8 8 1 3 42 47 40
41 40 40 40 40 39 39 38 38 39 39 42 40 29 19 27
24 20 15 1 0 4 50 44 29 4 0 0 0 0 0 0
0 0 0 0 0 1 13 40 82 102 71 5 2 17 38 24
25 22 21 18 25 46 16 15 15 20 28 29 28 26 25 24
25 27 27 26 23 22 20 18 17 15 13 11 12 16 55 66
65 65 66 67 66 63 60 57 53 48 8 1 32 19 14 13
0 0 0 0 0 7 46 43 37 30 4 11 3 3 19 20
18 46 41 54 32 24 20 23 4 14 11 0 1 37 45 39
40 40 39 40 40 39 39 39 39 38 37 41 40 24 26 28
26 25 28 12 2 0 38 72 75 53 31 9 2 0 0 0
0 0 1 1 1 18 54 88 107 98 26 0 17 72 33 0
8 22 23 17 28 41 15 13 14 17 24 28 28 28 26 28
28 27 24 25 39 22 9 12 41 47 50 54 59 64 68 69
69 69 68 70 69 66 61 56 53 50 10 1 34 2 0 0
0 0 0 0 0 5 45 43 38 38 36 41 42 42 47 48
48 54 43 54 23 31 20 31 20 24 22 20 19 35 39 39
40 39 39 39 39 39 38 38 38 37 35 31 27 21 29 29
29 24 27 18 14 2 7 67 81 85 82 64 45 26 10 16
11 5 16 30 49 76 100 109 112 71 14 35 64 17 4 0
0 5 24 19 24 37 14 15 14 16 21 25 28 31 31 29
23 26 24 28 48 44 34 26 45 59 64 65 64 64 66 65
66 66 65 63 65 60 55 53 51 50 13 0 26 0 0 0
0 0 0 0 0 4 44 43 36 39 59 61 62 62 63 63
64 63 46 53 14 19 21 38 33 33 33 31 31 31 34 38
40 39 39 39 38 39 38 38 35 26 24 23 25 21 29 28
31 30 28 22 18 14 7 34 82 95 102 97 97 87 77 69
57 60 60 75 94 108 119 121 108 50 30 24 19 8 0 0
0 0 17 54 17 36 11 14 15 17 20 26 30 30 29 28
21 24 23 24 23 27 40 42 33 29 40 56 49 54 56 56
60 53 53 42 49 47 38 44 51 50 16 0 17 0 0 0
0 0 0 0 0 4 44 42 36 34 58 61 60 60 59 58
58 57 48 51 12 6 15 38 34 36 36 36 37 37 37 38
40 39 39 39 38 39 37 28 18 19 28 29 22 26 35 34
13 1 23 25 20 18 20 9 72 99 114 122 126 119 110 113
108 105 118 122 120 125 120 99 68 43 38 18 16 7 0 0
0 0 0 52 21 26 11 12 16 15 16 25 25 26 26 25
22 21 20 21 21 24 42 52 37 32 20 24 34 41 41 41
53 40 40 35 33 37 34 43 49 49 17 0 11 0 0 0
0 0 0 0 0 3 43 42 36 29 29 29 29 28 27 27
26 24 30 50 13 4 14 40 36 39 39 39 39 39 38 38
38 39 38 38 39 35 24 16 17 19 22 23 24 36 12 1
0 0 11 31 19 18 21 15 42 99 115 130 136 132 127 124
126 126 135 136 130 119 87 65 51 35 29 13 26 0 0 0
0 0 0 44 31 66 22 16 16 18 21 25 21 27 25 24
24 19 16 16 17 20 45 47 38 30 21 19 18 25 34 39
50 47 45 45 46 46 41 42 48 49 20 0 6 0 0 0
0 0 0 0 0 3 41 42 35 29 24 22 21 21 21 21
22 20 27 50 17 2 11 39 36 39 40 39 39 39 39 38
39 39 41 47 34 25 16 17 18 16 18 22 26 15 1 0
0 0 0 23 35 36 29 21 20 90 112 126 136 134 136 134
132 131 134 139 129 100 73 57 46 27 16 25 62 13 0 0
0 0 3 38 34 68 23 25 31 22 23 24 24 26 26 25
26 23 16 22 33 33 60 86 84 78 18 19 21 20 24 32
40 48 48 47 46 45 44 43 45 47 21 0 1 0 0 0
0 0 0 0 0 3 41 42 34 33 29 27 26 25 24 23
23 21 29 52 31 30 37 43 35 38 38 38 38 38 38 38
40 52 53 34 48 25 13 14 15 17 20 17 24 11 0 0
0 0 0 0 18 35 34 27 20 55 104 120 133 138 139 138
131 132 131 132 113 90 71 57 61 48 44 21 30 13 16 0
0 1 19 40 37 85 30 31 42 37 64 57 48 77 99 62
40 42 39 46 49 46 90 94 84 84 34 26 20 19 23 25
23 31 45 46 46 47 42 43 44 44 22 0 0 0 0 0
0 0 1 1 2 7 44 42 34 33 31 30 30 30 29 28
27 22 30 51 43 54 57 45 34 37 37 37 37 38 38 37
32 34 46 62 32 25 21 19 16 18 19 16 24 8 0 0
0 0 0 1 7 14 40 45 51 31 65 111 129 137 139 135
127 131 133 124 104 88 70 83 32 43 63 71 30 3 10 1
0 1 17 28 23 24 9 11 23 46 50 47 73 57 51 59
57 72 49 29 45 66 105 135 112 88 55 37 42 40 39 53
45 20 27 35 33 35 33 30 33 30 22 0 0 0 0 0
23 25 27 28 29 31 38 36 33 33 31 29 29 29 29 29
28 22 24 34 30 34 37 34 34 36 36 37 36 36 26 31
32 24 26 26 21 18 16 20 16 15 16 18 20 3 0 0
0 8 4 0 6 7 33 33 86 59 38 76 120 136 139 134
130 132 131 114 101 86 68 61 71 28 12 11 3 15 19 15
2 0 14 28 16 19 6 14 21 23 53 74 75 73 76 74
66 61 58 56 31 23 62 83 64 27 21 43 52 42 56 50
49 50 23 27 29 29 23 25 28 32 27 0 0 0 0 0
34 35 35 35 34 33 33 33 33 31 31 30 29 28 28 28
27 24 26 29 30 28 32 32 34 36 36 36 33 27 24 39
45 24 22 21 18 14 15 18 17 14 14 20 15 0 0 0
10 29 11 2 18 31 40 24 48 94 96 54 91 133 137 137
135 133 119 104 98 84 45 14 14 12 9 1 19 25 21 17
12 3 19 31 20 16 10 18 21 20 20 23 37 30 21 22
24 37 27 16 12 16 51 70 33 15 18 16 18 17 17 42
69 57 55 35 21 33 32 36 39 42 32 0 0 0 0 0
35 35 35 35 34 33 33 33 32 31 31 31 30 29 28 27
26 24 26 29 32 30 32 33 33 34 31 27 21 20 43 57
34 21 20 18 18 10 15 16 17 17 37 24 29 21 20 17
38 28 34 7 26 24 29 38 11 8 20 60 75 94 129 138
138 128 107 102 98 73 21 16 12 10 4 13 28 25 21 20
20 15 22 26 41 15 12 21 22 22 19 20 21 20 22 23
24 23 19 14 12 15 51 71 28 14 16 16 17 18 14 17
22 41 57 40 17 24 45 41 43 47 37 0 0 0 0 0
33 33 32 31 30 29 28 28 29 31 31 30 30 30 29 29
28 26 27 30 32 32 31 33 32 23 20 18 20 23 49 55
25 25 21 17 21 12 14 16 14 23 66 21 19 38 45 116
62 17 13 17 22 8 5 5 5 8 1 7 58 81 95 122
133 116 100 101 96 34 21 15 10 8 10 28 28 25 23 22
22 22 42 19 43 23 17 20 22 24 20 21 22 20 18 24
23 20 19 14 14 18 59 78 37 16 17 17 18 20 14 19
23 20 24 33 14 13 36 39 41 46 41 0 0 0 0 0
7 5 6 15 23 24 24 31 30 31 31 31 31 31 30 30
29 27 28 29 33 33 33 32 21 16 20 20 22 24 56 59
18 23 22 26 21 14 13 16 15 36 54 25 28 60 60 67
19 12 14 17 15 15 14 9 7 9 10 1 4 43 81 97
109 101 96 95 51 18 12 12 11 11 29 31 30 26 24 25
22 24 83 32 42 38 20 24 25 23 21 22 25 24 23 28
26 23 22 16 16 20 63 76 44 16 19 21 21 19 12 20
21 20 20 16 13 14 20 38 42 48 44 1 0 0 0 0
13 0 0 12 23 28 27 29 30 30 31 30 30 30 30 30
29 27 28 30 33 34 33 24 13 15 20 22 21 32 71 119
33 30 64 79 63 45 50 49 46 39 47 35 3 35 43 53
17 13 15 23 22 23 23 22 21 12 14 17 3 8 39 80
53 68 92 46 20 21 7 10 12 29 36 31 28 27 25 23
26 28 100 51 67 27 24 22 23 24 25 23 26 26 23 26
25 23 24 18 16 22 66 79 47 17 19 23 21 20 15 24
22 26 24 14 11 15 10 34 42 48 45 2 0 0 0 0
46 9 4 13 21 27 28 29 30 30 31 31 30 30 30 30
29 28 29 30 33 34 26 18 16 30 45 42 48 87 122 95
46 40 52 52 38 52 56 53 33 18 22 20 11 47 47 59
20 17 13 23 23 24 23 27 30 26 13 20 22 7 12 54
51 21 54 19 26 10 9 16 28 34 33 29 32 29 25 24
24 29 98 46 78 25 25 22 23 25 27 21 24 27 25 27
25 23 23 20 16 20 55 72 47 20 18 25 23 21 17 23
24 28 22 11 8 15 7 22 43 48 45 2 0 0 0 0
62 31 19 21 20 25 27 28 29 30 31 31 31 30 31 31
31 31 32 32 33 27 22 23 27 38 39 41 38 97 105 94
51 44 46 63 78 57 64 64 29 25 21 16 16 64 51 63
21 18 16 25 27 27 28 29 29 28 22 13 25 17 13 11
39 29 15 24 15 9 22 25 34 33 32 31 32 28 23 26
26 30 101 48 79 23 24 24 23 23 25 21 22 26 24 28
26 26 22 18 18 23 68 87 47 19 19 25 22 20 22 26
25 33 19 8 9 13 7 10 41 51 46 3 0 0 0 0
66 45 27 26 22 25 28 30 31 38 35 34 35 35 35 36
35 35 34 34 32 25 23 50 52 38 59 47 35 73 62 34
22 21 24 21 27 39 38 23 23 27 22 19 18 73 52 67
23 22 19 26 30 28 30 31 30 31 30 22 17 23 14 7
18 19 24 22 11 18 24 34 35 30 31 31 32 27 25 26
27 31 102 48 79 24 23 22 24 26 27 24 22 25 25 29
27 28 27 23 20 25 68 79 46 21 19 23 23 23 26 28
27 32 16 9 10 12 7 8 24 53 46 3 0 0 0 0
43 34 28 27 25 24 22 21 20 39 37 34 36 37 36 36
36 36 35 34 32 32 72 54 59 30 17 20 21 56 52 25
22 23 25 23 26 24 17 20 24 28 25 20 21 79 55 74
25 21 19 26 30 35 32 32 33 30 29 25 20 16 10 7
22 17 42 19 22 26 20 32 31 31 31 31 29 29 25 24
22 31 90 38 59 21 22 22 22 24 26 25 22 23 26 29
24 29 26 24 19 24 68 78 45 20 20 21 28 21 26 29
30 30 17 6 9 11 12 39 30 46 45 3 0 0 0 0
37 27 17 17 16 17 16 16 17 37 40 33 34 34 35 35
35 35 35 33 32 47 65 69 25 13 17 21 20 64 49 23
23 25 26 23 24 23 16 21 28 29 26 22 21 74 65 74
28 24 20 25 30 32 32 32 32 30 32 28 26 13 11 19
12 27 48 26 23 23 17 27 26 29 30 29 27 25 24 24
23 37 82 42 76 19 22 23 22 25 27 23 24 24 29 29
22 28 24 23 21 23 65 74 45 17 18 20 27 23 29 29
35 35 55 4 11 12 44 34 12 22 41 4 0 0 0 0
38 27 16 17 17 17 17 16 17 36 39 31 29 29 30 31
32 32 32 30 16 39 49 25 19 16 22 21 25 64 47 25
25 25 25 23 25 21 17 24 28 29 25 23 22 75 69 73
28 23 22 26 30 33 32 33 31 34 33 32 26 9 9 19
7 16 62 24 22 23 17 30 32 30 30 27 26 24 23 23
24 38 87 38 59 17 20 19 21 21 25 25 25 22 26 27
22 26 23 21 23 25 66 70 36 15 20 18 25 22 29 26
32 26 34 6 20 30 26 25 41 22 31 3 0 0 0 0
38 28 16 16 15 15 14 13 13 31 40 32 28 28 28 28
28 28 28 20 14 19 26 24 20 16 24 24 26 66 41 25
26 26 26 24 29 26 19 25 29 29 26 24 21 73 76 69
34 24 22 24 28 31 31 31 34 30 32 28 22 12 16 12
1 13 44 20 17 19 21 26 27 26 26 26 25 22 23 20
21 42 85 38 49 18 20 21 21 22 24 25 25 21 22 27
25 24 24 21 20 25 59 62 42 14 23 18 25 19 29 29
35 70 27 10 46 16 26 52 18 6 16 2 0 0 0 0
37 29 16 18 21 23 25 23 16 26 40 31 27 27 27 27
27 27 26 16 12 19 23 25 21 17 24 25 26 68 37 25
25 22 25 28 28 24 21 25 30 27 25 25 23 68 74 74
37 26 23 22 28 31 29 31 32 31 30 26 18 14 14 11
9 0 15 20 16 14 19 25 27 28 27 24 25 22 21 18
21 45 57 33 50 19 20 20 20 21 24 23 22 20 22 25
23 25 23 22 21 22 58 55 34 11 21 16 22 22 27 30
30 44 38 24 24 34 40 16 10 9 8 0 0 0 0 0
