P2
128 120
158
53 52 51 50 49 48 47 46 45 44 44 43 42 40 40 39
38 38 36 36 35 35 34 33 33 32 31 31 29 28 27 26
26 26 25 10 0 0 0 0 0 0 0 0 0 0 0 7
12 9 3 0 0 0 0 0 0 0 0 0 0 0 4 0
0 0 0 0 0 0 0 0 0 0 0 0 0 0 0 1
1 4 9 16 22 25 25 25 26 27 27 28 29 29 29 30
31 31 33 32 34 35 36 36 36 37 39 39 40 41 42 41
42 42 44 45 45 46 47 48 48 48 49 50 50 51 50 50
53 52 51 49 49 48 47 46 45 45 44 42 42 41 41 39
38 37 37 36 35 34 34 33 33 32 31 31 30 29 28 28
27 27 27 22 8 1 0 0 0 0 0 2 8 8 2 16
21 18 16 11 5 1 0 0 0 0 0 0 0 0 5 0
0 0 0 0 0 0 0 0 0 0 0 0 0 4 9 15
20 25 25 25 25 26 26 27 28 28 29 30 30 31 32 33
34 34 35 36 37 38 39 39 40 41 41 41 42 42 43 45
45 47 47 48 48 48 49 49 49 49 50 50 50 51 52 52
52 51 51 50 49 48 48 46 46 45 43 43 43 41 41 40
39 38 37 36 35 35 35 34 33 33 31 31 30 29 28 27
27 26 26 25 19 13 6 1 0 3 10 15 18 15 5 19
23 20 18 17 16 12 6 1 0 0 0 0 0 0 0 0
0 0 0 0 0 0 0 0 0 1 3 9 16 22 24 25
25 25 26 27 28 28 29 29 30 32 32 32 34 34 34 35
36 36 37 38 39 39 40 40 41 41 43 44 45 46 47 46
48 48 49 49 50 49 50 51 50 51 50 52 52 52 52 52
53 51 51 50 49 48 47 47 46 45 44 43 42 42 41 40
40 39 38 37 36 36 35 34 33 33 32 32 31 30 29 29
28 27 26 25 22 17 14 13 10 13 18 21 22 18 6 19
24 21 20 19 18 16 15 12 5 0 0 0 0 0 0 0
0 0 0 0 0 1 3 7 14 18 22 22 24 25 26 26
27 28 29 29 30 31 31 32 33 33 33 34 35 36 36 38
39 39 40 40 41 41 42 43 45 44 46 46 47 48 48 48
49 49 49 50 50 52 51 51 51 50 52 51 52 52 53 53
52 51 51 50 49 48 48 47 46 45 44 43 42 42 41 40
40 39 38 37 36 36 35 35 34 33 33 31 30 30 29 29
27 27 27 26 23 20 17 15 17 21 22 24 24 20 9 18
26 25 23 21 19 18 17 15 12 9 7 0 0 0 2 3
0 0 1 3 10 16 21 23 24 24 25 25 26 27 28 28
29 29 30 31 32 32 33 33 34 35 36 37 38 38 39 39
39 40 41 42 43 44 44 45 47 46 46 47 48 49 49 49
50 50 50 50 50 50 51 51 50 51 51 51 51 53 53 52
52 52 51 50 50 48 48 46 46 45 44 44 43 42 42 41
40 40 38 38 37 36 36 35 34 33 32 32 31 30 30 29
29 28 27 26 25 22 19 17 17 21 23 24 26 22 15 22
31 28 25 25 23 20 18 17 14 13 10 10 10 15 17 18
6 8 16 21 24 24 24 25 26 27 27 28 29 29 30 30
31 32 33 34 33 34 35 36 36 37 37 38 38 39 39 40
42 43 44 44 45 45 46 47 48 48 48 48 48 49 49 49
49 50 51 50 50 51 50 51 51 51 51 51 51 51 51 51
52 51 51 50 49 49 48 47 47 46 45 44 43 42 42 42
40 40 38 38 37 37 36 35 35 34 33 32 32 30 30 30
28 28 27 27 25 23 21 19 18 22 24 26 28 26 19 24
33 29 27 25 24 24 21 19 16 15 14 13 18 22 20 19
17 21 24 24 25 26 27 27 28 29 29 30 30 31 32 32
32 34 34 34 35 36 36 36 37 37 38 39 39 41 42 42
44 44 45 45 46 47 47 47 48 48 48 48 49 49 49 49
49 50 50 50 51 50 50 50 50 50 51 51 51 51 51 51
52 52 51 50 49 48 48 47 47 45 44 44 44 42 42 41
41 40 39 38 37 37 36 35 35 34 33 33 32 31 31 30
30 28 28 27 26 24 22 21 20 24 27 29 30 27 18 22
34 31 28 27 26 24 23 22 19 18 16 14 17 20 21 19
23 24 26 27 28 29 29 29 30 30 31 31 32 32 33 33
34 35 35 36 36 36 36 37 38 39 39 41 42 43 43 43
45 45 45 46 47 48 47 48 48 50 49 48 48 49 49 49
49 49 50 50 50 50 50 50 50 50 51 51 52 52 52 52
52 51 51 50 49 48 48 48 46 46 45 44 43 42 42 41
41 40 39 38 38 37 37 36 35 34 34 33 33 32 31 31
30 29 29 28 27 26 24 23 22 27 31 32 32 28 18 21
35 31 28 28 26 25 24 22 20 22 20 16 15 22 21 22
24 26 27 28 29 30 30 30 31 31 33 32 33 33 34 35
35 35 35 35 36 37 37 38 40 42 40 42 43 43 44 44
45 46 46 46 47 47 48 48 47 49 49 49 49 50 50 50
50 50 50 50 50 50 51 50 51 51 51 51 51 50 49 49
52 52 51 50 50 49 48 47 47 46 45 44 44 43 43 42
41 40 39 39 38 37 37 36 35 34 34 33 32 32 32 31
31 30 30 29 28 27 26 24 24 29 32 33 34 30 20 20
35 32 30 29 28 26 26 24 21 23 22 17 15 23 20 23
26 28 29 30 30 32 32 33 33 33 33 34 34 34 35 35
36 36 36 37 38 39 39 40 41 43 42 43 43 44 45 45
46 46 47 47 47 48 48 49 49 50 48 49 49 49 50 49
49 50 50 51 51 51 51 50 49 49 49 49 50 50 52 51
52 51 51 50 49 49 48 47 47 46 46 45 44 44 43 42
41 40 39 39 38 37 36 36 36 35 35 34 33 32 32 31
31 31 30 29 29 28 27 26 26 30 34 34 35 31 21 21
37 33 30 29 29 27 26 25 23 24 24 20 15 23 23 26
28 29 29 31 32 33 33 33 34 34 34 34 35 35 36 36
37 37 38 39 40 40 40 41 43 44 43 43 44 45 45 46
46 47 46 47 47 48 48 48 49 50 48 49 50 50 50 50
50 50 51 50 49 49 49 50 51 51 51 51 51 51 51 51
52 52 52 51 50 49 48 48 47 46 45 45 44 43 43 42
42 41 40 39 38 38 38 37 37 36 35 35 34 33 32 33
32 31 31 30 30 29 28 28 28 32 35 36 36 32 23 19
37 34 32 30 30 29 28 26 26 26 24 21 17 24 25 28
30 31 31 33 33 34 35 34 35 34 35 35 36 36 37 37
37 38 39 40 40 41 42 42 42 44 44 45 45 45 46 46
46 47 47 48 48 49 49 48 49 50 49 50 50 50 49 49
49 49 50 51 51 51 51 52 51 52 51 52 52 51 51 51
53 52 51 51 50 50 48 48 48 47 46 45 45 44 44 42
42 41 41 40 38 38 38 37 38 36 36 35 34 34 33 33
33 32 32 30 30 29 29 29 31 34 37 37 37 32 25 20
37 35 33 31 30 29 28 27 26 26 26 23 19 25 27 30
32 33 32 33 33 33 35 35 36 36 37 37 37 38 38 38
39 39 40 40 40 41 42 41 43 44 44 45 45 45 47 47
47 47 48 48 49 48 49 49 50 51 49 48 48 48 50 50
51 51 51 51 51 51 51 51 51 51 51 51 51 51 51 51
53 52 51 51 51 50 49 48 47 47 46 46 45 44 43 43
42 42 40 40 39 39 39 38 37 36 36 35 35 34 34 33
33 32 31 31 31 30 30 31 32 35 38 38 38 34 26 21
36 36 32 32 32 31 30 31 29 27 26 25 20 26 28 31
32 32 33 33 35 35 36 36 36 37 38 38 38 39 39 39
39 40 40 41 41 42 43 43 44 46 45 45 46 46 47 47
47 47 48 48 49 49 48 47 48 48 49 51 52 51 51 50
50 51 50 51 52 51 52 51 52 52 52 51 51 52 51 51
53 52 51 51 51 49 49 48 48 47 47 46 45 45 44 44
43 42 41 41 40 39 39 38 38 37 37 36 36 35 35 34
33 32 33 32 32 31 31 31 32 35 38 38 38 35 27 22
36 36 33 33 32 31 31 30 28 27 28 26 23 27 29 32
34 34 35 35 35 35 36 36 36 37 38 38 39 39 40 40
41 41 42 42 42 43 43 43 44 45 45 46 47 47 47 48
47 44 47 47 47 48 49 50 50 49 50 50 50 50 50 50
51 52 50 52 52 52 52 52 51 52 51 51 51 52 52 51
53 52 52 51 50 49 49 48 47 48 47 45 45 44 44 44
43 42 42 41 40 40 39 39 38 38 37 36 36 35 34 34
34 33 33 32 31 31 31 31 33 36 39 39 39 35 28 23
34 36 33 32 33 32 31 30 30 29 29 28 25 29 31 34
34 35 35 35 36 37 37 37 38 38 39 39 39 39 39 40
40 41 41 41 43 43 43 43 45 46 46 46 46 47 45 46
47 48 48 50 50 49 50 50 50 50 50 50 51 50 51 50
51 51 50 51 52 52 52 52 52 52 53 52 52 52 52 52
53 53 52 51 50 49 49 48 48 48 47 46 46 45 45 44
44 43 42 41 41 40 40 39 38 37 37 37 37 36 35 35
35 34 34 32 32 32 32 32 33 38 40 40 40 36 29 22
32 36 32 32 33 32 31 32 30 30 30 28 26 30 33 35
35 36 36 37 37 37 37 37 38 39 39 39 39 40 40 41
41 42 42 42 43 43 44 44 44 45 44 43 44 45 47 48
48 50 49 49 50 50 50 50 50 50 50 51 51 51 51 51
51 51 52 52 52 52 52 52 52 52 52 52 52 51 51 51
53 52 52 52 51 50 49 49 49 48 47 47 46 45 45 45
44 43 43 42 41 41 40 40 40 38 38 36 37 36 35 35
35 34 34 34 33 33 33 33 34 38 41 41 41 36 31 17
26 37 34 34 34 33 33 33 32 31 31 30 26 32 33 36
36 36 36 36 37 38 38 38 39 39 41 41 41 40 41 41
42 42 43 43 43 43 43 42 43 43 45 47 48 48 48 49
49 51 50 49 50 50 51 50 50 51 51 51 51 51 51 51
51 51 51 52 52 51 52 52 52 51 52 51 52 51 51 51
53 52 52 51 51 50 49 49 49 48 48 47 47 46 46 45
44 44 43 43 42 41 41 40 39 39 38 38 38 37 36 36
35 35 34 34 33 33 33 33 34 38 41 41 41 37 27 22
31 39 35 35 35 34 34 34 33 31 32 31 28 33 34 36
36 37 37 37 38 39 38 39 39 39 40 40 41 41 41 42
43 43 43 43 42 42 45 46 46 46 46 47 48 48 48 49
49 51 50 50 51 50 51 51 51 50 50 50 50 51 52 51
51 51 52 52 52 52 52 52 52 52 51 52 52 51 51 52
52 52 51 50 51 50 50 49 49 48 48 47 46 46 45 45
44 43 43 42 41 41 41 40 40 39 39 38 38 37 37 36
35 35 34 34 33 33 33 34 35 39 41 41 40 37 28 28
29 39 36 36 36 34 34 34 33 32 32 32 28 34 35 37
37 37 38 38 38 39 39 39 39 40 40 41 41 41 41 41
42 42 43 43 44 45 45 45 46 46 48 47 49 49 48 49
50 51 51 50 51 50 51 51 50 50 50 50 51 51 52 52
52 51 51 51 52 51 52 52 52 52 52 53 52 51 50 50
53 52 51 51 50 50 49 49 48 48 48 47 47 46 46 45
44 43 43 42 42 41 41 40 39 39 39 39 38 37 37 36
36 36 35 35 34 34 34 34 35 38 41 41 40 37 29 30
29 39 37 36 36 35 34 34 33 32 32 32 28 34 36 37
38 38 38 38 39 39 40 40 39 40 40 40 40 41 41 42
43 43 44 44 44 45 45 45 46 47 46 47 48 48 49 50
50 50 51 50 51 51 51 51 50 51 51 51 51 51 51 52
52 51 52 52 52 53 52 52 52 51 50 50 50 51 52 52
52 51 51 51 51 50 50 50 49 49 48 47 47 46 45 45
44 44 44 43 42 41 42 41 40 39 39 38 38 38 37 36
36 36 35 34 35 34 33 34 35 39 43 42 42 38 30 32
29 39 37 37 36 35 34 35 34 33 34 33 29 35 36 38
38 38 39 39 39 39 39 39 39 39 40 41 42 42 43 43
43 44 45 44 44 45 45 46 46 47 48 48 48 49 49 50
49 50 50 49 50 50 51 51 51 51 51 50 52 51 51 52
52 53 51 52 52 51 51 51 51 52 51 52 52 52 51 51
53 52 52 51 50 51 50 49 48 48 48 47 47 46 46 46
45 44 44 43 43 42 42 41 40 40 39 39 38 38 38 37
36 36 36 35 35 34 34 34 35 39 43 42 42 39 31 33
29 39 38 37 37 36 35 36 35 33 33 33 29 35 36 39
39 38 39 39 39 39 40 40 40 40 41 41 42 41 42 43
43 44 45 45 46 46 47 47 47 47 47 48 49 49 49 50
50 51 51 50 51 51 51 51 51 51 51 50 51 50 52 51
51 51 50 52 52 52 53 52 51 52 52 52 51 51 51 51
53 52 51 51 51 50 50 50 49 49 48 48 47 46 45 45
45 44 44 43 42 42 41 41 41 40 40 40 39 38 38 37
37 37 35 35 35 35 34 34 36 40 44 43 42 39 30 33
30 37 37 37 36 36 36 35 35 33 34 34 30 36 35 38
38 38 39 40 40 40 41 41 41 41 42 41 42 42 43 43
43 44 45 44 45 45 46 46 47 47 47 48 49 49 50 50
50 51 51 50 51 51 51 52 52 51 50 50 51 51 51 51
51 52 51 51 50 50 51 52 51 51 51 51 51 52 52 50
53 52 52 52 51 50 50 49 49 48 48 48 47 47 46 46
45 45 44 44 43 42 42 41 41 40 40 39 40 38 38 38
37 36 36 36 35 35 35 35 37 40 44 43 43 40 31 34
31 38 38 38 37 37 36 36 37 34 34 34 29 36 36 39
39 40 41 41 41 40 41 42 42 41 42 42 42 42 43 43
44 44 45 45 45 46 47 47 47 47 48 48 48 49 49 49
50 51 51 51 51 52 51 50 50 50 50 52 52 51 51 51
51 51 50 51 50 51 51 51 51 51 51 52 52 50 50 51
52 52 52 51 51 50 50 50 50 49 49 48 47 47 47 46
46 44 45 44 43 43 42 42 41 41 40 40 40 39 39 38
37 37 37 36 36 36 35 36 37 40 44 44 43 41 31 34
33 37 39 38 38 37 36 37 38 35 36 35 31 37 38 40
40 40 40 41 41 40 41 41 41 41 43 43 43 43 44 45
45 45 47 46 46 46 46 47 47 48 49 49 49 50 50 50
49 49 49 50 49 50 50 51 52 52 50 51 51 52 52 52
51 51 51 52 52 51 52 51 52 51 52 52 51 51 51 51
52 52 52 52 51 50 50 49 49 48 49 48 47 47 47 47
46 45 45 44 44 44 43 43 43 41 41 41 40 39 39 38
38 37 37 37 36 36 36 36 38 40 44 44 44 41 32 36
35 36 39 39 39 37 37 37 38 36 36 35 31 37 37 40
40 41 41 42 42 42 42 42 42 42 42 43 43 43 44 44
45 45 46 46 46 47 48 48 48 48 49 49 49 49 48 49
49 50 51 51 52 51 51 52 52 52 52 51 51 51 51 51
51 51 51 51 51 51 51 51 52 52 52 52 53 52 52 51
53 52 52 51 50 51 50 50 50 49 49 48 48 47 47 47
46 46 45 45 44 43 43 42 42 42 42 41 40 40 39 39
39 38 37 37 37 36 36 36 38 40 45 44 44 41 32 35
36 35 39 39 39 38 37 37 38 36 36 36 32 38 37 41
41 41 42 41 42 42 42 42 42 42 42 43 44 44 44 45
45 46 47 47 47 47 47 47 48 48 49 49 49 50 51 51
52 51 51 52 51 52 52 52 52 52 53 51 51 51 51 51
52 51 52 52 51 52 51 50 51 52 52 51 52 52 51 51
53 52 52 52 51 51 51 50 50 49 49 48 48 48 47 47
46 46 46 46 44 44 44 43 43 42 42 41 41 40 40 39
38 38 38 37 37 37 37 37 38 41 46 45 45 42 32 35
40 34 40 39 39 39 38 37 38 36 37 36 32 38 38 41
41 42 42 42 42 43 43 43 43 43 44 44 44 45 45 45
46 46 46 46 46 46 46 47 48 49 50 50 50 51 51 51
51 51 52 52 52 52 52 52 53 52 54 51 52 52 51 51
51 51 52 51 51 51 52 51 51 51 52 51 51 52 51 51
53 53 51 51 51 50 51 50 50 49 49 49 48 48 48 47
47 46 46 45 44 44 44 43 43 42 42 41 41 41 41 40
40 38 39 38 38 37 37 37 38 42 46 45 45 42 32 36
42 33 41 40 40 38 39 37 37 36 37 37 33 38 38 42
41 42 42 43 43 43 43 43 43 44 44 44 45 45 45 45
46 47 46 46 48 47 48 48 48 49 51 50 51 51 51 51
52 52 52 52 52 52 52 52 52 52 53 50 52 52 51 52
52 52 51 52 52 52 52 52 51 52 52 52 51 52 51 51
52 52 52 52 51 51 51 50 50 50 49 49 48 48 47 47
48 46 46 45 44 44 44 44 43 42 42 42 41 41 40 40
40 39 39 38 38 38 38 38 39 41 46 46 46 42 33 36
43 33 41 41 39 39 39 37 38 37 38 37 33 38 37 41
43 43 43 43 44 44 44 44 44 44 45 45 44 44 45 46
46 46 47 47 48 48 49 49 49 50 51 51 51 51 52 52
51 52 51 51 52 52 52 52 52 52 53 51 51 52 51 52
52 51 52 52 52 51 52 52 52 52 52 53 53 52 50 50
53 53 52 52 51 51 51 50 50 50 49 50 49 48 48 47
47 47 46 45 44 44 44 43 43 42 43 42 42 42 41 40
40 40 39 38 38 38 38 39 39 42 46 46 45 43 33 37
45 33 42 41 41 40 39 38 38 37 38 37 33 38 38 42
43 43 44 44 44 43 44 43 44 44 44 45 45 45 46 46
46 46 47 47 48 48 49 49 50 50 51 51 51 52 52 52
52 52 52 52 52 52 52 52 51 51 53 51 51 53 52 51
52 52 52 52 52 52 53 51 52 50 50 50 47 46 47 48
53 53 52 52 52 52 51 51 50 50 50 49 49 49 48 47
47 46 46 45 45 45 44 44 44 43 43 42 42 41 41 41
40 39 39 39 38 38 38 39 40 42 48 47 46 44 33 37
46 34 41 41 41 40 40 39 39 38 38 38 35 39 38 43
43 43 43 43 43 43 44 44 44 45 45 46 45 46 46 46
47 47 47 48 48 49 50 50 50 50 52 51 51 51 52 52
51 52 51 52 51 51 51 52 52 51 54 52 53 53 53 52
52 52 53 51 51 50 50 50 50 50 52 52 52 52 50 51
53 52 53 52 52 51 51 50 50 50 50 49 49 49 49 48
47 47 46 46 46 45 44 44 43 43 43 43 42 42 41 41
40 40 40 39 38 39 39 39 40 42 47 47 47 45 34 37
47 35 40 42 42 41 40 39 38 38 39 38 34 39 38 42
43 42 43 43 44 44 45 44 45 44 45 46 45 46 47 46
47 47 48 49 50 49 50 50 50 50 51 50 51 51 52 52
51 51 51 52 52 51 52 52 52 53 53 52 52 52 52 51
51 50 51 50 51 52 53 53 52 52 50 51 51 50 50 49
52 52 52 52 51 51 51 50 50 49 50 49 49 47 48 47
47 47 46 46 45 45 44 44 44 44 43 42 42 42 41 41
40 40 39 39 39 39 39 39 40 43 47 47 47 45 33 36
48 36 38 41 41 40 39 39 40 38 38 39 34 38 37 41
41 42 43 44 44 44 45 45 45 45 45 47 46 46 46 46
47 47 48 48 48 49 49 49 49 50 51 51 51 51 52 51
51 51 51 51 51 51 53 52 53 52 51 48 49 50 50 50
51 52 52 52 49 50 50 49 50 50 49 49 50 50 49 48
52 52 52 51 51 51 50 50 50 50 49 49 48 48 48 47
47 46 46 46 45 44 44 44 44 43 42 42 42 41 41 41
40 40 39 39 39 39 38 39 40 42 47 47 47 44 34 36
48 38 38 42 41 40 40 39 38 37 38 38 35 37 38 41
40 42 42 42 44 44 44 44 44 44 45 46 45 46 46 46
47 47 47 48 49 49 49 49 49 50 50 50 50 50 51 51
51 51 51 51 51 50 50 49 50 50 50 50 51 50 50 50
49 51 51 52 49 50 49 49 49 50 48 49 48 49 48 47
33 48 51 51 50 51 51 50 49 49 49 48 48 48 47 47
47 46 46 46 45 45 44 44 44 42 43 42 42 41 40 40
40 39 39 39 39 39 39 38 40 42 48 46 46 44 33 34
47 40 35 41 41 40 40 39 39 38 38 38 35 44 41 38
42 39 42 41 42 43 44 44 44 45 44 46 45 46 46 46
46 47 47 47 48 48 49 49 49 49 50 50 49 49 50 50
50 49 49 48 48 50 51 51 50 50 50 49 50 50 50 50
50 50 50 51 49 49 49 49 51 49 48 49 48 48 48 46
24 45 51 50 50 50 49 49 48 49 48 48 48 47 47 46
47 46 46 45 45 45 44 44 43 43 42 42 41 41 41 40
39 40 39 39 39 38 38 38 39 41 46 45 45 43 33 35
47 42 33 42 41 40 39 39 39 37 37 40 91 120 112 53
39 34 38 43 42 39 44 44 45 44 45 46 46 46 45 45
46 47 47 48 48 48 48 48 49 48 49 48 48 48 49 49
49 49 51 50 50 50 50 50 49 49 49 49 48 49 49 49
49 49 49 50 49 49 48 48 50 49 49 48 48 47 47 46
24 44 51 51 51 50 49 48 48 49 49 48 48 47 47 46
46 45 45 45 44 44 44 43 45 51 49 45 43 42 41 40
40 40 40 38 39 38 39 38 39 41 47 45 45 44 32 35
47 43 30 41 41 41 39 35 36 45 55 81 124 145 135 95
33 7 6 14 30 41 42 44 44 45 45 47 45 46 46 46
46 47 47 47 48 47 47 47 46 47 47 48 48 49 49 48
48 49 50 49 49 49 49 49 49 49 49 48 48 49 49 49
49 49 48 50 48 48 48 48 49 47 48 47 47 47 47 46
24 45 51 50 50 49 49 55 60 57 55 51 49 48 46 47
47 46 46 45 45 45 45 44 52 61 58 52 51 48 44 41
41 40 40 40 39 39 39 39 40 42 47 46 45 44 33 35
47 45 31 42 42 41 31 21 19 23 52 101 90 108 113 80
71 43 49 49 41 22 37 46 46 45 46 46 46 46 46 46
46 46 47 47 48 48 48 48 47 47 48 48 48 48 49 48
49 48 50 50 49 50 49 49 49 49 50 49 48 48 49 49
49 49 49 50 48 48 48 48 49 49 49 48 48 47 47 47
27 46 52 51 50 49 50 59 65 62 61 56 54 54 53 49
48 47 46 45 44 45 45 44 52 60 56 53 55 54 50 41
40 40 40 39 39 39 39 39 40 42 47 47 46 45 33 34
45 47 30 41 41 31 10 13 24 35 52 110 37 88 100 35
123 90 78 68 71 73 40 34 45 45 46 46 45 44 45 46
46 47 48 47 46 48 47 48 48 48 48 48 48 48 49 49
48 48 50 50 49 50 49 49 48 48 49 49 49 49 49 50
50 49 49 49 49 49 49 49 48 49 49 48 48 48 47 47
28 51 54 53 52 51 49 58 65 63 58 57 59 62 62 54
56 53 50 46 45 46 45 44 49 48 49 49 53 54 52 43
41 41 40 40 40 39 39 39 40 41 47 46 46 40 30 26
31 47 30 39 31 22 48 56 57 81 90 117 35 120 114 16
121 88 39 27 25 46 83 55 40 44 45 45 45 46 46 46
46 47 47 48 47 47 47 48 48 49 48 48 48 48 48 48
48 49 49 50 49 49 49 49 49 48 49 48 49 48 48 48
49 49 49 48 49 49 49 49 49 48 49 49 49 47 47 47
29 53 57 53 54 55 54 57 41 47 56 60 64 65 62 47
41 51 54 54 52 52 51 47 47 29 24 25 29 35 43 44
42 41 41 40 39 39 39 39 41 42 47 47 46 36 27 27
34 48 30 31 36 61 43 27 31 57 88 122 38 115 118 35
41 60 20 37 55 43 50 96 46 44 45 45 46 46 47 45
47 47 47 48 46 48 48 48 48 48 48 48 49 48 48 49
49 49 49 50 50 50 49 49 49 49 50 50 49 49 49 49
51 50 50 50 49 48 49 49 48 48 48 48 48 47 47 45
28 52 58 48 48 55 61 61 6 2 19 37 43 47 56 30
1 5 14 26 33 43 51 51 48 27 12 16 15 5 16 45
41 41 42 40 40 40 40 40 41 43 48 48 47 44 33 34
46 49 32 29 84 47 24 31 33 27 65 45 9 15 43 11
10 12 21 55 83 96 66 89 89 38 46 46 46 46 46 46
47 47 46 48 47 49 48 48 49 48 49 49 48 48 48 48
48 48 49 51 50 49 49 48 49 49 49 49 49 49 49 49
51 50 50 50 50 50 50 49 48 48 47 46 46 47 48 49
27 43 54 56 55 57 65 64 8 0 7 19 22 22 42 30
0 0 0 0 2 3 9 23 49 25 4 7 8 4 13 47
42 42 41 41 40 40 40 41 42 43 49 48 48 46 36 37
49 49 32 72 88 39 80 72 52 40 20 8 41 69 79 85
82 39 14 33 71 87 91 70 103 55 44 46 46 46 47 46
46 47 47 49 48 48 47 48 48 48 48 48 49 48 48 49
48 49 50 50 50 49 49 49 49 48 49 50 50 49 49 50
51 51 50 48 46 47 48 47 48 48 48 49 49 49 48 48
23 5 8 18 33 47 58 60 10 0 3 11 14 15 39 34
2 0 0 0 0 0 0 10 49 19 0 0 4 2 13 48
42 42 42 41 41 40 41 41 42 43 49 49 47 45 35 36
48 49 38 98 67 71 100 73 60 46 12 52 106 110 109 108
104 97 67 23 29 81 99 91 79 72 39 42 43 45 46 46
46 46 46 48 48 48 48 48 48 48 49 49 49 49 49 49
49 49 50 50 50 49 49 49 49 49 50 50 50 50 50 49
49 49 49 49 49 49 49 48 48 48 49 49 50 48 48 47
22 2 0 0 0 1 6 27 12 0 1 3 1 9 34 30
0 0 0 0 0 0 0 8 48 9 0 0 0 2 15 50
42 42 42 41 41 40 41 41 42 43 49 49 48 47 36 37
48 45 62 104 61 84 81 81 56 11 47 105 100 97 98 97
97 93 95 67 21 19 71 90 79 64 44 40 42 43 45 47
47 47 47 49 48 48 48 47 49 49 49 49 48 49 49 50
50 50 50 49 49 50 50 50 50 50 50 49 51 51 51 50
50 50 49 49 50 49 49 49 47 48 48 48 50 49 49 49
22 1 0 0 0 0 0 14 12 0 0 0 0 3 36 30
0 0 0 9 13 1 0 5 47 8 0 0 0 0 13 51
42 42 42 42 42 41 41 41 43 44 49 49 49 47 37 36
48 48 77 89 70 86 93 83 22 41 89 75 59 86 70 55
60 35 28 67 74 17 9 61 82 74 45 34 40 44 43 45
46 47 48 48 47 48 48 48 50 49 49 49 49 49 49 49
49 50 48 49 50 51 51 51 51 50 50 51 51 51 51 50
49 50 49 50 50 50 50 50 50 50 50 51 51 50 50 50
23 2 0 0 0 0 0 11 10 0 0 0 0 2 39 35
0 0 0 13 22 14 6 4 47 7 0 0 0 0 10 51
43 42 42 42 42 41 41 41 43 43 49 49 48 47 36 36
48 54 82 74 78 89 84 23 19 76 59 28 14 1 1 1
0 0 8 29 77 53 7 30 65 63 47 27 25 37 41 45
46 48 48 49 49 49 49 49 49 50 50 49 49 49 49 49
49 49 50 51 50 51 51 50 49 48 48 50 51 50 50 50
51 50 51 50 51 51 51 51 51 52 50 50 50 48 47 45
23 2 0 0 14 4 0 10 9 2 0 0 0 2 37 36
0 0 2 17 22 21 17 5 46 8 0 0 0 0 8 52
43 43 43 42 42 42 42 42 43 44 49 50 49 47 35 35
47 60 73 66 69 68 42 9 54 64 43 15 0 0 1 6
3 5 15 29 29 38 17 31 74 53 42 30 12 25 36 42
44 49 48 49 48 49 49 49 50 50 50 49 50 50 50 50
50 50 50 50 50 50 50 50 50 49 49 51 51 51 51 52
51 51 52 51 51 50 50 50 51 49 47 46 47 45 44 40
23 2 13 10 11 3 0 10 11 2 0 0 0 8 37 39
0 1 2 14 20 20 18 5 46 14 1 0 0 0 6 52
43 43 43 42 42 42 42 43 44 44 49 49 50 47 35 34
48 67 63 60 58 50 22 14 40 67 59 23 2 3 10 15
14 12 7 9 19 21 18 31 59 49 36 33 14 12 26 40
44 47 47 47 48 49 48 48 49 49 49 51 50 50 50 50
50 50 50 50 50 50 51 50 50 50 49 51 52 52 52 51
52 51 49 47 47 48 49 47 45 40 36 31 27 24 22 20
23 8 14 1 7 5 0 10 13 0 0 0 0 13 42 45
3 2 5 1 9 18 16 3 46 50 39 29 21 16 21 53
43 43 42 42 42 42 42 42 44 45 50 50 50 46 33 25
51 67 52 51 56 63 28 21 31 52 42 14 7 3 6 12
10 9 4 3 5 3 7 14 32 32 26 22 14 6 18 34
43 48 48 48 48 48 49 49 50 49 50 51 49 50 51 50
50 50 50 50 50 49 50 49 49 48 50 51 50 49 49 48
49 46 42 39 34 30 27 24 21 21 21 20 22 23 24 24
24 8 4 0 0 2 0 14 37 21 14 13 4 2 36 65
46 39 34 23 12 9 11 3 45 59 56 55 55 60 62 59
43 43 43 42 42 42 42 42 44 44 50 50 49 41 26 17
56 60 43 37 43 60 35 5 11 18 15 22 12 5 9 12
14 7 2 5 5 0 0 3 10 18 13 11 11 5 9 26
40 48 48 48 48 49 49 49 50 50 50 51 49 50 49 49
49 49 49 48 47 47 50 48 48 45 46 45 41 37 32 28
25 24 22 21 22 22 23 25 25 26 27 28 29 30 29 30
23 3 0 0 0 0 0 18 69 62 54 54 50 41 54 63
29 32 36 40 40 40 42 44 60 54 54 55 58 65 67 61
43 43 42 42 42 41 42 43 44 44 50 49 47 31 21 16
54 54 32 25 24 29 12 4 5 5 9 18 9 6 6 8
6 8 2 6 4 0 1 0 3 8 8 6 7 4 4 18
37 48 48 48 48 48 49 49 49 49 50 50 49 49 48 47
47 48 47 46 44 42 39 35 31 29 26 24 23 24 23 25
26 27 27 29 27 21 31 31 32 33 35 35 36 35 23 35
25 5 0 0 0 0 0 19 72 58 62 66 71 68 62 53
23 22 22 22 22 22 24 27 32 29 34 40 47 49 50 50
43 43 43 43 42 42 42 43 44 45 50 49 42 25 11 10
51 41 25 15 14 15 6 1 1 0 2 2 3 6 4 4
1 2 1 4 1 0 1 0 0 6 4 3 6 2 1 9
33 48 49 48 48 48 50 49 49 49 50 49 47 47 50 42
36 33 30 28 26 25 25 26 27 27 27 29 30 31 32 32
34 34 35 36 36 15 36 38 39 40 35 35 40 28 36 43
28 40 39 27 17 9 4 21 62 52 64 67 72 71 59 46
26 23 22 20 18 17 16 16 15 15 17 19 36 43 39 38
42 43 43 42 42 42 42 43 44 44 49 46 33 18 2 7
41 26 17 9 5 6 1 0 3 2 0 1 2 5 2 2
0 2 0 0 0 0 0 0 1 1 1 1 3 1 0 4
24 46 49 50 50 49 48 45 42 38 36 32 30 29 46 37
21 25 27 28 29 29 31 32 34 35 36 37 38 39 40 41
41 34 34 41 43 27 30 43 43 43 29 40 39 30 45 45
30 55 68 66 62 59 53 56 54 46 59 64 69 69 61 51
29 25 21 18 17 17 16 16 17 17 17 19 38 25 29 42
42 44 42 43 43 42 42 43 44 44 48 39 29 10 0 5
24 14 10 9 11 6 0 0 1 1 0 0 2 4 6 1
1 2 0 0 0 0 0 0 0 0 0 1 3 0 0 1
20 38 41 38 35 32 29 28 27 26 27 29 29 28 38 32
25 32 35 37 37 39 40 41 41 42 42 41 42 44 44 43
44 43 38 35 46 40 20 46 46 43 27 42 29 40 42 46
29 55 69 68 66 67 67 69 41 12 20 30 39 46 45 52
31 22 18 9 8 8 16 19 19 17 21 24 40 38 36 51
49 47 25 25 43 43 42 43 43 42 47 35 21 2 0 3
8 7 6 3 6 6 1 0 0 0 0 0 1 3 3 2
2 2 0 0 0 0 0 0 0 1 0 1 0 0 2 1
16 24 28 27 28 29 30 32 32 34 34 36 37 36 43 38
31 39 42 42 43 44 45 45 44 45 45 45 45 45 46 45
47 47 47 39 36 44 20 39 46 42 27 32 37 42 43 47
29 49 62 63 64 67 67 69 33 0 0 0 3 15 25 51
30 20 15 1 0 0 8 13 10 5 13 16 38 54 47 47
48 51 42 38 43 43 43 43 31 27 44 31 9 0 0 1
3 7 8 3 2 1 0 0 0 0 0 0 0 3 0 2
3 4 2 0 0 0 0 0 0 0 0 1 2 0 0 0
12 32 34 35 36 37 39 40 40 41 42 43 43 40 38 33
34 43 44 44 46 47 47 47 48 49 48 48 47 46 47 46
47 48 48 47 38 37 34 25 45 38 29 26 46 42 44 45
36 41 45 47 50 50 55 62 27 0 0 0 2 2 17 55
28 19 15 1 0 4 1 0 0 0 1 5 34 55 39 35
34 37 42 45 42 42 43 42 24 24 42 30 2 0 0 0
1 11 10 3 2 0 0 0 0 0 0 1 0 4 0 2
3 3 2 0 0 1 0 1 0 0 0 0 0 0 1 2
25 36 42 42 41 42 43 43 44 44 45 45 44 40 16 12
30 45 48 48 47 47 47 48 48 48 48 48 47 47 47 47
46 48 48 48 48 37 33 15 23 20 23 36 45 40 44 43
31 32 31 35 45 43 50 62 25 0 0 0 2 0 5 54
21 11 2 0 0 13 10 3 1 0 0 0 31 55 39 28
44 40 37 42 42 43 42 43 36 32 43 28 0 0 0 0
0 5 12 4 0 0 0 0 0 0 1 0 0 4 2 3
3 0 1 1 2 1 0 0 0 0 0 0 0 0 2 0
16 36 44 44 43 45 46 46 46 46 45 42 41 38 15 9
24 45 48 49 49 49 49 49 48 48 49 49 48 48 47 46
46 46 46 46 48 46 36 13 0 2 31 42 43 40 44 41
31 32 37 40 47 46 55 60 25 0 0 0 0 0 7 54
7 0 0 0 0 8 18 10 2 0 0 0 31 56 39 21
37 33 35 41 43 42 42 42 41 35 45 33 0 0 0 0
0 4 10 3 0 0 0 0 0 0 0 0 0 0 4 1
4 6 1 3 1 0 0 0 0 0 0 0 0 0 2 9
24 38 46 47 47 46 46 47 47 28 12 8 19 34 12 7
22 44 48 49 49 48 49 49 48 48 49 49 48 48 47 47
46 46 47 47 48 46 45 29 0 8 40 42 36 37 42 42
30 14 8 14 22 30 39 47 24 0 0 0 0 0 10 55
7 0 0 0 1 8 22 18 14 0 0 0 29 57 41 21
27 26 32 41 43 42 43 42 42 36 44 42 5 0 0 0
0 1 3 0 0 0 0 0 0 0 0 0 0 0 0 4
5 4 1 1 0 0 0 0 0 0 0 0 2 0 3 20
38 29 46 48 48 48 48 48 48 30 23 31 38 38 6 2
20 44 47 48 48 48 48 48 48 48 48 48 48 48 47 47
47 46 45 45 46 45 47 40 2 10 44 40 32 33 42 44
36 11 0 0 0 0 0 8 20 0 0 0 0 0 10 52
5 0 0 0 5 23 25 21 19 1 0 2 30 57 45 32
29 22 30 39 43 42 42 42 41 35 43 43 10 0 0 0
0 0 1 0 0 0 0 0 0 0 0 0 0 0 0 7
6 4 3 0 0 1 0 0 0 0 0 0 0 0 5 32
70 21 40 47 49 48 48 48 49 48 46 46 45 39 11 3
21 44 48 48 49 49 48 48 48 48 48 48 47 48 47 46
47 47 46 45 45 46 47 42 5 9 44 43 33 32 44 46
35 13 0 0 1 0 0 5 20 0 0 11 7 0 8 50
3 0 0 0 4 21 29 13 7 0 0 3 26 57 47 33
17 6 21 38 43 42 43 42 42 34 44 44 15 0 0 0
0 0 1 1 1 0 0 0 0 0 0 1 2 3 2 5
8 9 6 0 1 0 0 0 0 0 0 0 0 3 8 43
94 42 46 47 48 48 48 48 48 48 47 46 44 41 19 0
26 44 48 49 48 48 48 48 47 48 47 48 48 48 47 46
47 47 46 43 44 46 46 43 7 7 43 45 34 33 45 46
35 13 0 1 10 2 0 3 19 0 4 26 17 3 8 50
3 0 0 0 1 1 21 3 0 0 0 0 20 56 47 26
12 7 18 37 42 43 43 43 41 34 45 46 28 0 2 4
2 0 0 1 0 0 0 0 0 0 0 0 5 9 11 9
13 11 14 8 4 0 0 0 0 0 0 0 0 0 15 68
90 53 45 46 48 48 48 48 47 48 47 45 43 40 28 14
34 46 48 49 49 48 48 47 47 48 47 47 48 47 47 47
47 47 46 43 44 46 47 45 9 6 42 45 32 30 43 45
33 12 0 9 26 12 3 3 23 1 14 26 21 8 8 47
2 4 0 0 0 0 22 6 0 0 0 0 15 56 43 15
9 0 16 35 43 43 43 43 40 37 46 48 37 6 47 25
7 0 0 0 0 0 0 0 0 0 0 0 4 8 17 12
17 13 26 18 6 1 0 0 0 0 0 0 0 0 26 88
92 55 45 47 47 48 48 47 48 48 47 46 44 40 36 34
41 47 48 49 48 48 48 47 47 48 48 48 48 47 47 48
48 47 47 45 44 40 43 41 11 4 30 34 24 28 42 44
31 13 0 15 28 14 5 3 46 41 46 46 43 37 35 51
2 0 0 0 0 0 21 8 0 1 0 0 9 54 38 11
9 1 25 35 42 43 44 43 39 40 47 48 42 25 45 56
17 0 0 0 0 0 0 0 0 0 0 0 2 5 11 12
24 27 26 26 19 12 1 1 0 0 0 0 0 0 6 31
69 62 46 48 49 48 48 48 48 47 47 46 45 40 40 41
46 48 49 49 49 49 49 48 48 48 48 48 48 47 48 47
47 47 46 43 43 39 32 35 13 3 35 45 38 33 42 44
30 16 0 6 9 5 2 2 51 56 62 61 60 65 69 59
13 9 9 1 0 3 24 12 4 5 1 0 7 48 36 9
2 4 14 33 42 43 43 43 37 41 47 49 47 44 60 67
37 0 0 0 0 0 0 0 0 0 0 0 2 5 18 28
47 57 25 13 15 8 2 0 0 0 0 0 0 0 1 7
37 61 48 47 48 48 48 47 48 47 46 46 45 43 43 45
49 49 49 49 50 48 48 49 49 48 48 47 47 48 48 47
47 47 46 44 44 44 45 45 18 2 33 43 36 31 38 40
32 28 14 3 5 2 0 2 50 57 60 59 60 69 73 67
43 43 40 33 30 30 35 26 22 17 16 13 19 42 39 17
14 16 7 26 42 44 44 43 36 42 47 48 47 57 88 81
79 4 0 0 0 0 0 0 1 0 0 2 7 10 18 41
90 87 53 22 11 8 2 3 3 0 0 0 0 0 0 8
27 42 48 47 48 47 48 48 48 47 46 46 45 45 45 47
47 48 47 47 48 49 48 48 47 47 48 48 47 47 47 46
46 46 45 45 44 44 45 46 20 2 31 42 37 29 39 43
33 32 11 1 4 0 0 2 47 49 54 54 55 59 58 57
50 49 50 47 46 47 46 42 39 35 33 31 34 45 51 37
34 27 22 26 41 44 43 41 36 44 49 49 47 50 90 96
78 7 0 0 0 0 0 0 0 1 3 8 18 38 58 77
106 101 99 67 38 22 14 11 2 0 0 0 0 0 0 15
42 45 47 47 48 47 48 48 48 46 47 47 46 45 46 47
47 47 47 48 48 48 48 47 46 47 47 46 47 47 47 47
47 46 46 45 45 44 45 45 24 2 28 45 39 29 38 43
37 29 4 0 1 0 0 2 51 49 50 51 51 50 45 45
50 51 53 52 51 50 49 48 48 52 49 44 44 49 60 57
56 54 51 44 42 44 44 41 36 43 48 49 46 41 74 71
21 2 0 0 0 0 0 0 1 11 25 40 65 79 94 104
100 107 110 90 72 48 42 24 12 3 0 0 4 0 0 21
39 45 46 46 47 46 47 48 47 47 47 47 46 46 48 49
48 47 48 49 48 48 48 48 47 47 47 47 47 47 46 46
46 45 46 44 43 44 45 44 26 3 26 44 39 29 37 42
33 35 33 27 22 18 14 12 54 52 50 50 50 50 51 54
54 53 57 61 60 50 48 48 51 62 60 56 55 55 48 42
40 41 42 41 42 43 43 42 37 42 48 50 46 45 54 22
3 0 1 16 0 0 0 0 2 12 27 50 76 82 92 111
106 117 112 98 88 68 56 43 29 14 10 3 24 1 0 26
40 46 47 47 46 47 48 48 48 47 48 47 48 47 49 49
48 48 48 48 48 48 48 47 47 47 47 47 47 46 46 47
46 46 46 45 43 43 45 44 28 3 23 43 39 29 36 43
34 46 64 66 61 63 66 64 68 58 54 54 53 54 58 62
61 55 59 66 64 51 46 43 51 64 61 57 56 55 51 41
34 33 32 35 42 44 44 42 36 45 49 51 47 41 50 16
0 0 1 31 16 8 6 10 11 17 32 59 67 87 92 109
119 120 112 109 95 68 63 52 56 50 47 38 46 6 2 27
39 46 45 47 47 47 47 48 48 48 47 47 49 47 48 48
47 47 47 47 47 47 47 46 47 46 46 46 47 47 47 46
46 46 45 43 43 43 45 45 31 3 21 44 39 29 35 43
36 46 73 74 73 73 73 73 73 57 47 45 45 46 54 63
64 56 57 55 54 52 48 42 43 50 44 44 51 52 51 48
42 40 40 41 43 44 43 40 37 45 49 50 48 41 26 5
0 0 0 27 41 31 36 31 30 32 42 47 73 95 106 110
126 124 121 110 103 78 67 60 58 70 70 64 52 12 6 29
41 45 46 47 46 46 46 46 45 46 46 46 48 47 48 47
48 48 47 47 47 47 47 47 47 46 46 46 46 46 45 46
46 45 45 44 43 42 45 45 34 4 17 44 40 29 34 43
36 38 51 54 56 58 62 63 66 40 12 10 6 8 14 32
62 55 38 17 23 27 26 37 45 30 8 3 8 18 26 47
45 43 47 51 53 52 45 40 39 46 49 50 48 42 38 17
4 0 0 14 47 41 51 49 47 46 50 56 72 94 106 113
134 131 122 113 105 88 70 63 81 88 88 77 60 14 9 29
42 44 45 45 46 46 45 44 44 43 41 40 43 47 48 47
48 47 47 47 47 47 48 47 46 46 45 46 47 47 45 46
45 45 46 45 43 42 45 45 36 4 16 44 43 31 34 42
36 35 42 43 42 41 40 40 44 29 3 0 0 0 0 16
61 48 12 0 1 5 13 36 47 29 1 0 0 8 22 38
21 26 29 32 39 54 47 39 40 46 49 50 49 43 41 25
18 0 0 6 54 58 70 63 55 55 49 57 72 107 109 127
135 137 126 116 113 101 81 78 89 92 95 85 65 17 18 30
40 41 44 46 46 46 35 22 20 18 16 15 26 46 48 47
47 47 48 48 47 47 47 47 46 46 46 45 46 47 46 46
46 45 46 45 44 43 45 45 38 5 15 44 43 31 32 41
34 38 51 52 52 51 49 49 49 31 9 2 0 0 5 30
60 35 1 0 0 0 2 38 49 31 0 0 0 3 19 32
1 6 8 2 10 53 48 38 42 46 49 50 49 41 40 33
18 0 0 5 53 69 81 76 70 63 49 54 79 101 119 132
136 140 132 126 118 105 85 90 91 98 103 94 74 25 9 11
12 14 33 46 46 46 32 11 11 11 13 12 23 47 49 48
47 46 47 47 46 46 46 46 46 45 45 45 46 46 45 46
46 45 46 45 43 43 45 45 40 6 14 43 41 28 31 41
35 39 53 54 54 53 54 54 55 33 9 3 0 0 3 20
57 25 0 0 0 0 0 35 48 31 0 0 0 2 17 34
2 12 17 3 6 50 48 38 42 46 48 49 45 40 39 30
17 8 0 6 54 76 86 86 80 68 56 61 83 99 115 133
141 144 138 134 124 111 91 95 99 101 105 98 79 31 4 7
6 7 27 44 45 45 32 12 12 12 12 12 22 46 48 47
48 48 48 47 46 46 46 46 45 45 45 44 44 45 45 45
45 45 45 44 43 41 43 42 38 6 12 38 39 29 31 42
40 41 48 50 51 53 53 54 57 34 1 0 0 4 12 11
53 19 0 0 0 0 0 36 46 29 0 0 0 0 11 36
2 5 7 1 5 49 49 38 43 45 47 47 47 44 37 27
12 20 5 4 53 82 88 89 84 81 75 70 87 108 128 142
148 145 141 137 127 114 101 104 107 106 109 103 84 40 5 6
6 5 23 43 44 44 28 11 11 11 11 11 19 45 48 47
48 47 47 46 46 45 45 44 45 44 43 43 42 44 45 45
45 44 44 44 41 41 41 42 40 7 8 39 41 30 29 38
48 48 47 48 48 49 48 41 54 44 8 0 0 3 9 5
51 17 0 0 0 0 0 35 45 27 0 0 0 0 3 39
4 9 12 3 3 47 48 37 43 45 47 47 46 44 36 22
11 27 20 10 52 83 97 97 92 87 78 78 92 108 125 142
150 149 143 138 129 119 107 108 112 111 110 106 87 49 6 6
5 5 23 43 44 45 31 11 11 11 12 11 15 43 47 46
45 45 45 44 43 42 44 44 44 44 44 44 44 43 43 43
43 43 43 43 40 40 42 42 40 9 5 35 40 30 27 37
46 47 47 47 48 46 47 41 52 49 14 0 0 4 11 6
48 15 0 0 0 0 0 29 47 32 4 0 0 0 2 41
7 1 4 1 3 45 46 37 43 45 47 45 44 42 31 5
20 28 25 23 47 85 98 101 99 95 91 89 100 110 125 139
149 150 144 141 133 119 111 113 114 113 111 108 92 56 6 6
5 5 22 42 43 43 34 17 17 17 18 20 20 37 44 44
44 44 44 44 38 31 30 31 39 44 43 43 43 43 42 42
43 42 43 42 39 39 40 40 39 10 2 33 39 31 26 36
44 44 45 46 46 46 46 42 50 45 1 0 0 0 2 5
49 17 0 0 0 0 0 24 48 29 1 0 0 0 1 41
11 0 1 0 3 43 45 37 43 41 40 44 43 36 12 7
27 31 31 30 46 83 101 103 105 102 97 96 104 111 125 137
149 148 145 144 138 123 115 116 115 116 115 110 95 62 7 5
5 4 20 41 43 43 36 17 17 16 16 16 18 35 45 45
45 45 44 42 5 0 0 0 20 44 42 42 42 42 42 42
42 41 42 41 39 38 40 40 39 12 2 31 39 31 25 36
13 14 15 16 21 37 45 44 48 40 0 0 0 0 0 2
46 19 0 0 0 0 0 20 49 29 1 0 0 0 2 40
17 0 0 0 5 41 43 37 41 33 25 23 19 9 17 21
30 29 35 32 45 82 101 105 107 105 102 100 106 113 128 140
149 150 147 147 141 124 117 121 117 117 118 113 99 71 14 5
6 4 18 40 42 43 35 12 11 12 12 11 14 36 45 45
44 44 44 41 5 0 0 0 17 43 43 43 43 43 42 42
43 42 41 41 38 37 40 40 39 15 1 29 40 32 26 36
0 0 0 0 5 41 47 43 44 39 4 2 1 3 15 5
43 33 11 10 14 12 12 28 53 38 35 32 32 36 40 54
25 6 5 5 9 40 41 36 41 37 29 25 22 27 32 27
30 29 38 34 45 78 101 106 109 107 104 102 103 111 128 141
147 150 150 148 143 130 122 126 122 121 119 115 101 75 19 7
20 16 18 40 42 42 35 12 10 11 11 11 12 36 45 44
44 44 43 39 3 0 0 0 8 43 43 43 43 43 42 42
42 42 42 42 40 39 41 41 40 17 0 29 40 32 25 34
0 0 0 0 3 42 48 44 41 53 46 40 37 41 46 42
46 53 60 56 57 58 59 61 59 40 50 55 57 62 68 69
50 39 37 37 36 42 39 35 41 41 38 33 33 39 37 29
26 31 38 37 40 76 100 107 111 108 106 107 103 110 128 143
149 151 150 149 145 133 124 126 126 124 122 116 101 78 25 7
25 23 23 39 42 43 36 13 10 11 10 10 12 35 45 44
43 44 43 38 3 1 0 0 4 43 44 43 44 43 43 42
43 42 42 42 40 38 41 40 41 19 0 26 41 34 25 34
0 0 0 0 1 40 49 43 39 57 59 51 52 54 50 43
40 48 67 64 62 63 67 67 63 40 44 52 55 62 67 67
53 40 40 40 40 40 40 37 38 41 41 41 42 40 36 28
24 40 46 42 38 71 90 92 114 110 111 116 109 111 135 145
149 151 151 150 147 138 127 131 132 128 125 117 104 79 35 12
23 20 24 38 42 43 37 13 10 11 11 11 12 35 45 45
30 17 23 18 1 0 2 0 3 43 44 43 43 42 42 43
43 42 41 42 40 38 40 41 40 22 0 23 41 34 25 33
0 0 0 0 1 38 50 43 39 58 53 46 49 53 52 42
35 37 47 49 48 47 48 47 49 39 36 42 46 46 42 41
42 41 42 42 41 40 40 39 38 39 41 46 45 43 39 26
29 42 45 28 25 65 86 95 113 113 114 120 110 112 138 145
148 150 151 149 146 139 131 132 133 133 128 121 109 83 23 24
28 23 20 34 42 44 37 12 9 10 10 11 12 36 46 42
4 0 1 0 0 0 2 0 3 42 45 44 43 43 43 43
43 43 41 42 40 38 40 41 41 25 0 20 41 35 25 32
0 0 0 0 0 35 50 43 39 55 37 40 40 44 50 44
37 35 30 32 33 34 33 34 38 40 42 44 46 45 39 36
40 41 42 43 42 41 41 40 41 42 46 48 46 43 38 28
33 39 34 9 5 62 91 105 113 113 116 120 113 110 133 143
148 149 150 149 147 141 133 134 137 136 130 124 113 67 15 39
30 27 28 24 38 44 38 13 10 10 11 11 12 35 46 42
6 0 0 0 0 0 0 0 2 41 45 44 44 43 42 43
43 41 43 43 41 39 41 42 41 26 0 18 42 36 25 31
0 0 0 0 0 29 49 42 41 55 20 13 16 19 23 23
27 37 36 41 41 49 50 45 46 49 50 55 58 56 45 40
40 41 42 41 41 40 41 40 41 43 46 47 46 39 35 34
37 36 44 30 0 51 86 102 113 116 116 122 117 111 129 145
149 150 150 150 146 142 136 139 140 137 132 124 115 41 23 34
24 24 26 21 29 44 39 14 8 10 10 9 11 34 46 45
21 0 0 0 0 0 0 0 2 40 44 43 43 43 43 42
43 42 42 43 41 39 42 42 42 29 0 14 40 35 25 30
0 0 0 0 0 26 50 42 45 59 14 0 0 0 1 6
21 39 45 58 52 64 68 36 27 29 31 35 47 59 47 42
41 42 43 42 42 41 41 41 40 42 44 48 43 34 32 33
38 37 22 25 6 37 80 100 111 118 118 124 121 111 125 141
148 150 150 149 146 140 141 142 143 140 134 123 88 30 43 29
28 25 22 18 21 44 40 21 17 19 13 17 19 35 45 45
37 10 0 0 0 0 0 0 1 14 42 43 43 43 43 43
43 43 43 43 41 38 40 45 44 32 0 13 40 36 26 30
0 0 0 0 0 21 48 41 46 63 18 0 0 0 0 0
23 40 42 57 39 42 54 14 0 0 0 1 23 58 49 43
42 42 42 42 42 41 40 40 40 41 44 47 40 27 6 16
30 31 23 27 27 21 74 96 110 118 121 124 124 116 125 140
148 150 151 150 148 144 144 143 143 140 135 101 70 60 41 8
4 19 25 17 18 43 43 40 41 41 34 40 41 44 44 31
51 11 0 0 0 0 0 0 0 1 40 45 45 44 45 45
44 43 43 44 43 40 40 42 41 32 0 9 35 30 24 29
0 0 0 0 0 18 48 41 44 61 23 0 0 0 0 0
21 39 39 53 16 4 33 15 0 0 0 0 15 55 49 43
43 42 42 42 42 41 40 41 41 42 45 45 38 27 8 15
24 29 28 27 33 24 60 95 108 119 125 127 126 120 121 139
147 150 150 149 147 146 145 144 146 141 113 53 31 15 15 2
0 1 17 33 17 40 45 45 45 46 45 45 45 45 30 3
2 12 11 0 0 0 0 0 0 0 40 44 44 44 44 43
43 43 43 43 43 40 39 42 42 34 1 6 32 30 25 28
0 0 0 0 0 14 47 40 37 29 5 0 0 0 0 0
24 38 39 54 17 2 30 18 0 0 0 0 9 52 49 42
42 42 42 42 40 40 40 39 40 41 43 42 37 33 26 22
28 30 27 28 32 32 35 87 106 119 126 130 126 126 125 137
148 150 150 149 149 148 146 139 125 102 65 34 15 12 4 0
0 0 1 63 21 35 41 42 41 39 37 34 34 23 2 0
0 8 7 0 0 0 0 0 0 0 38 44 44 44 43 43
44 43 44 44 44 41 40 42 42 35 1 4 29 27 25 27
0 0 0 0 0 11 46 40 36 22 0 0 0 0 0 0
25 37 38 54 16 1 27 21 0 0 0 0 5 49 49 41
42 42 41 41 40 39 40 40 40 41 42 42 36 28 26 23
30 30 34 32 34 30 29 58 103 117 129 134 132 132 126 133
147 150 149 149 149 149 144 106 80 69 48 26 10 20 12 0
0 0 0 27 39 36 30 23 14 3 1 1 1 0 18 20
8 11 1 0 0 0 0 0 0 0 30 42 45 45 44 44
45 43 44 45 44 41 40 41 40 34 2 3 27 27 25 27
0 0 0 0 0 9 45 40 36 23 0 0 0 0 1 0
22 37 39 54 16 2 24 23 0 0 0 0 3 47 49 41
41 41 41 41 41 40 40 39 39 40 42 43 39 28 20 29
38 36 9 3 26 39 31 31 80 112 127 135 136 134 129 134
144 146 147 147 149 149 127 87 73 62 28 14 9 22 15 0
0 0 0 10 44 29 30 17 17 16 9 21 17 0 29 35
32 30 9 0 0 0 0 0 0 0 0 12 17 16 39 46
45 46 46 47 46 43 41 42 39 33 3 1 27 27 26 28
0 0 0 0 0 7 45 41 36 25 0 0 0 0 4 0
18 39 39 54 21 4 22 28 5 0 2 2 3 44 49 40
40 40 40 40 40 40 39 39 39 39 41 43 41 33 26 36
4 0 0 0 1 21 33 45 51 100 121 133 138 137 133 134
142 141 148 150 149 142 104 85 73 50 17 11 26 67 24 0
0 0 0 4 46 26 26 13 12 15 20 18 16 12 15 17
22 15 10 9 9 9 9 9 9 9 8 7 6 7 40 49
49 49 49 51 50 48 45 45 42 38 6 1 31 35 34 36
0 0 0 0 0 5 43 39 35 26 0 6 0 0 13 6
14 42 39 55 32 11 19 28 7 7 7 1 2 41 48 40
40 40 40 40 39 39 39 38 38 39 39 42 40 33 29 8
2 2 0 0 1 6 10 24 39 56 77 118 137 139 137 134
141 141 149 150 150 133 96 86 71 55 69 22 24 29 10 0
0 0 0 0 33 20 22 12 14 14 10 17 22 23 24 24
30 28 28 25 23 20 19 18 15 13 11 10 10 14 53 66
65 66 66 67 67 64 61 57 54 49 9 0 30 18 13 12
0 0 0 0 0 5 43 40 35 29 4 9 2 2 17 20
16 46 40 54 32 23 19 25 4 14 11 1 1 37 46 39
40 41 40 40 40 39 39 39 39 38 37 41 41 33 25 9
8 1 0 0 45 19 15 13 45 58 75 73 120 140 139 132
138 144 148 151 147 116 94 87 96 33 75 64 20 52 29 1
2 0 0 1 23 23 19 11 14 14 6 13 26 24 28 25
24 27 25 39 21 7 6 9 41 47 51 54 59 64 68 69
69 69 69 70 69 66 60 56 54 50 11 0 32 2 0 0
0 0 0 0 0 4 42 41 35 37 36 41 41 42 46 48
48 56 42 55 23 31 21 32 21 24 22 18 19 35 39 40
40 41 41 40 40 39 39 39 38 38 36 40 40 29 23 7
2 0 0 0 23 14 19 20 9 15 92 83 83 130 143 135
138 145 148 149 133 99 94 66 32 96 33 22 26 38 44 28
13 0 0 6 26 52 73 27 21 14 7 14 24 24 23 22
19 23 24 31 36 28 10 24 68 67 66 66 65 65 66 66
66 66 66 64 66 61 55 52 51 51 14 0 26 0 0 0
0 0 0 0 0 3 41 40 35 39 60 63 64 64 64 64
66 64 48 54 14 20 22 39 33 34 33 32 32 31 35 39
40 40 40 39 39 39 39 39 39 38 37 36 29 27 16 1
0 0 0 0 3 6 6 5 8 26 50 96 97 98 136 137
138 143 145 146 118 96 85 28 18 44 46 51 72 62 24 24
17 3 1 26 57 38 58 22 27 24 13 18 19 25 23 22
20 17 19 20 24 30 39 32 46 62 57 58 50 55 57 58
61 56 54 43 51 49 40 45 51 51 16 0 17 0 0 0
0 0 0 0 0 3 40 40 34 34 58 62 61 61 60 60
60 58 49 53 13 6 16 39 35 37 37 37 37 37 38 39
40 40 40 40 40 40 39 40 39 34 21 17 27 28 8 0
0 0 0 0 5 4 10 43 13 23 22 25 32 92 103 120
136 140 143 127 100 94 53 19 28 10 13 14 14 25 22 22
14 1 3 25 58 51 22 7 16 26 22 21 22 39 35 22
20 17 14 19 28 54 66 35 29 33 44 44 43 42 42 42
55 41 41 36 34 38 35 45 51 51 19 0 12 0 0 0
0 0 0 0 0 3 41 41 35 30 31 31 29 28 29 28
27 25 32 52 14 4 14 41 38 42 41 41 40 41 40 40
41 40 40 40 40 40 39 38 27 17 13 18 27 26 10 2
0 0 12 3 4 7 26 32 43 27 14 21 16 46 99 96
122 140 133 104 94 75 18 30 18 11 14 15 19 25 27 22
18 9 1 11 26 58 19 6 18 24 40 42 61 80 61 32
25 20 23 52 50 86 103 70 42 22 22 33 48 51 47 41
53 49 48 47 48 48 44 44 49 51 20 0 6 0 0 0
0 0 0 0 0 3 40 41 34 31 25 23 23 22 23 22
23 21 30 53 17 2 12 40 37 41 41 40 41 40 40 41
40 41 40 40 40 40 35 24 15 22 18 19 28 22 19 8
0 4 39 25 7 45 65 30 36 16 20 15 5 10 46 94
95 125 111 99 79 30 26 20 11 15 17 20 25 29 26 24
20 19 14 22 28 71 28 10 20 25 32 53 58 50 71 55
63 65 42 31 55 104 106 91 74 24 25 23 29 45 54 49
52 50 50 49 48 47 46 44 47 49 22 0 0 0 0 0
0 0 0 0 0 3 40 40 34 33 32 28 28 27 26 25
25 23 31 54 32 31 39 45 37 41 41 40 40 40 40 40
40 39 40 39 41 33 40 25 16 16 13 22 31 22 21 6
28 40 39 46 27 49 58 50 16 9 17 21 5 3 6 54
86 74 88 87 31 24 33 10 13 17 24 26 31 30 27 25
23 21 23 59 31 70 25 17 21 23 24 18 45 37 22 32
50 53 51 48 28 43 55 45 34 28 40 42 39 36 33 47
51 48 49 49 49 50 45 46 47 46 23 0 0 0 0 0
0 0 0 1 1 7 43 41 33 34 33 31 31 31 31 29
29 24 33 54 46 57 59 48 35 39 39 39 39 39 40 39
39 39 37 34 39 55 20 19 15 18 16 31 59 22 20 23
80 51 17 18 32 49 23 19 20 17 13 19 23 9 9 14
74 35 48 39 20 46 14 10 21 24 30 35 30 28 27 24
24 25 27 90 53 72 26 24 25 24 25 18 17 21 22 24
28 40 33 17 15 30 48 53 29 21 35 54 50 51 36 32
34 41 39 33 35 36 34 31 35 33 24 0 0 0 0 0
19 22 24 26 28 30 37 36 34 34 33 31 31 31 31 31
30 24 26 36 32 36 39 36 36 39 39 39 39 39 38 39
36 33 32 25 26 25 21 9 10 18 53 81 53 35 43 57
83 26 11 17 20 20 21 22 22 24 23 15 23 26 16 13
20 51 28 20 37 21 12 22 22 29 34 33 30 32 30 26
24 25 35 106 50 78 24 25 23 22 28 26 16 21 21 27
24 22 20 18 16 34 60 47 23 20 19 20 22 27 60 54
36 35 34 30 32 32 26 28 30 35 29 0 0 0 0 0
29 30 31 32 32 33 33 34 34 34 34 32 31 31 31 30
30 26 28 32 33 30 35 35 36 38 38 38 38 38 38 34
26 35 50 23 22 20 18 3 14 23 56 61 68 40 48 40
47 16 15 15 25 24 24 24 28 30 28 24 19 25 22 15
10 21 22 29 36 13 19 25 28 37 33 34 33 33 29 24
27 27 41 96 46 74 22 24 25 26 24 26 19 18 23 29
26 21 19 20 20 35 69 38 20 26 21 21 24 18 21 30
50 44 33 41 44 41 34 39 41 46 34 0 0 0 0 0
29 31 31 32 32 32 33 34 33 33 34 33 33 32 32 30
30 27 29 32 35 33 34 36 36 38 38 38 37 33 26 23
41 46 51 20 20 25 19 9 15 30 47 65 49 19 47 47
64 19 19 18 27 29 27 29 32 32 32 31 28 21 25 11
7 24 21 43 23 20 24 21 34 35 33 33 33 32 29 27
27 27 45 100 50 72 24 25 26 27 27 29 23 17 25 28
26 24 21 20 21 44 79 33 19 25 24 23 21 14 21 25
23 36 33 28 49 49 47 44 46 50 39 0 0 0 0 0
29 29 28 29 29 28 28 29 30 33 33 33 33 32 32 31
30 28 29 32 35 34 34 36 36 37 38 34 25 24 22 25
49 47 45 18 34 72 53 34 34 28 26 22 20 17 58 50
62 20 24 21 28 33 36 34 34 35 33 34 31 28 18 12
18 14 27 49 32 25 24 22 32 29 34 32 32 31 29 27
24 24 48 84 46 56 22 22 25 27 27 28 26 18 22 29
29 25 21 21 22 36 78 33 20 23 27 26 22 14 22 23
23 22 17 15 36 46 44 41 43 49 44 1 0 0 0 0
7 5 5 16 24 26 26 32 33 33 33 33 33 33 33 32
31 29 30 32 35 35 35 35 36 36 31 21 22 22 23 25
74 86 105 16 46 58 41 42 56 30 27 24 21 17 69 55
72 26 25 22 26 31 35 35 34 36 33 36 34 31 15 11
23 10 12 60 25 23 25 19 32 35 33 33 32 27 26 26
25 24 53 75 59 59 21 23 25 26 27 28 27 22 19 28
29 28 22 22 24 44 90 31 21 22 23 26 24 16 23 24
27 25 14 12 19 31 34 41 44 51 47 2 0 0 0 0
11 0 1 13 25 29 29 31 32 32 33 33 33 32 32 32
31 30 30 32 34 36 36 35 35 31 17 19 35 31 38 58
118 95 88 32 34 39 63 36 32 28 28 25 22 21 70 64
70 29 27 24 27 32 35 35 35 34 36 36 34 27 14 15
16 2 5 39 24 18 21 26 31 30 30 30 28 28 25 26
23 24 52 70 54 44 22 20 22 24 23 27 28 24 17 25
28 28 26 22 23 50 91 30 25 21 22 26 24 19 25 25
31 24 11 9 16 20 32 39 44 50 47 2 0 0 0 0
41 7 4 13 23 28 30 30 31 31 32 32 32 32 32 31
31 30 30 32 35 35 35 34 30 20 18 30 47 43 40 68
95 91 93 33 24 21 17 8 30 30 30 27 24 22 68 72
74 34 26 25 25 30 34 33 34 35 32 34 31 25 17 17
13 25 0 13 22 19 15 22 27 28 29 29 28 27 24 25
21 24 63 60 59 38 22 21 23 24 24 24 25 23 19 19
25 26 22 22 22 46 87 27 21 18 24 28 24 27 28 26
32 21 10 10 16 13 37 44 46 51 47 3 0 0 0 0
57 28 18 20 21 26 28 29 31 32 33 33 33 33 33 33
33 33 33 33 34 35 35 30 25 27 46 37 43 49 31 53
56 74 29 25 23 21 10 11 31 31 30 26 24 23 66 80
70 41 26 25 23 29 33 31 33 36 33 34 32 20 16 20
16 63 29 34 21 22 14 24 29 27 31 30 28 25 23 20
20 24 73 48 60 34 23 21 21 22 23 21 23 24 19 15
24 24 22 22 24 53 93 28 22 18 24 27 23 29 31 29
33 22 10 9 14 9 18 46 49 53 48 3 0 0 0 0
62 42 26 25 22 25 29 31 33 39 37 36 36 36 37 36
37 37 36 35 35 35 34 25 44 58 57 31 18 21 22 58
45 70 24 25 21 19 5 17 32 31 29 26 26 24 63 82
65 50 26 25 25 28 31 29 33 32 30 29 29 17 17 25
22 62 40 42 23 25 16 29 29 28 28 26 26 25 24 22
23 21 69 42 59 27 21 19 21 21 23 23 35 43 27 12
20 23 22 21 23 46 74 28 20 21 19 27 25 31 32 33
34 61 15 7 13 9 18 36 52 55 48 3 0 0 0 0
40 32 26 26 25 24 22 21 21 41 39 37 38 38 38 38
38 37 36 35 34 34 31 54 59 55 29 14 21 22 25 53
47 52 26 25 21 13 8 25 30 31 27 26 23 25 62 88
58 46 22 24 24 26 30 30 29 31 28 28 27 14 34 60
63 136 98 72 34 57 34 42 46 60 66 54 58 45 35 45
43 43 123 86 139 74 49 50 54 63 75 68 91 97 86 23
13 21 19 20 22 45 75 30 20 21 16 26 24 30 28 32
37 26 14 8 13 27 41 24 47 56 46 3 0 0 0 0
34 24 15 15 16 16 16 16 16 38 40 34 34 35 36 36
36 36 36 35 34 31 21 50 53 24 22 14 22 24 24 55
49 26 25 20 18 9 14 30 29 29 27 25 23 24 57 86
59 55 21 23 25 26 27 25 26 28 28 28 25 14 37 28
68 110 78 77 30 42 50 83 98 87 69 61 66 49 40 45
46 41 114 62 108 50 38 36 37 34 37 37 46 53 53 38
9 17 17 20 21 37 59 31 16 17 13 25 25 30 26 35
50 68 7 10 36 27 17 27 31 50 43 5 0 0 0 0
35 25 15 15 16 16 16 16 17 37 41 33 30 30 32 32
33 32 33 33 32 18 17 22 25 25 24 16 24 25 24 61
63 26 26 18 18 12 21 28 28 29 24 23 25 26 47 82
51 55 18 22 23 23 26 22 26 28 30 30 28 28 67 54
102 138 118 103 71 49 53 69 65 69 72 65 69 52 47 45
54 70 145 92 148 65 61 64 62 83 84 83 91 81 72 70
19 13 21 22 22 36 51 32 13 18 9 25 26 26 27 33
19 47 23 37 24 16 45 30 13 36 40 4 0 0 0 0
36 27 15 15 14 15 14 14 14 32 41 32 28 28 28 28
28 29 29 28 26 12 19 17 25 25 26 16 28 23 25 71
53 26 22 17 18 15 25 30 28 27 25 24 22 23 48 77
47 55 18 19 20 22 25 24 24 40 64 80 63 47 32 23
78 70 72 61 28 20 19 33 47 53 50 45 46 38 32 33
29 43 88 40 68 22 22 24 31 33 31 26 23 24 25 26
29 28 36 34 23 42 52 39 14 19 8 26 29 25 28 27
17 20 28 14 23 43 24 10 10 21 37 2 0 0 0 0
36 28 16 17 20 23 26 24 16 25 41 33 28 28 29 28
28 28 27 27 24 8 18 20 30 28 28 15 26 21 27 94
40 24 21 19 17 16 24 27 24 25 25 25 23 24 49 81
41 51 19 20 21 22 39 60 80 92 87 54 47 45 23 19
71 64 55 30 21 19 19 26 26 25 26 27 29 26 22 20
21 37 78 34 64 20 21 20 24 25 26 25 27 27 26 29
26 24 40 44 52 83 63 50 14 50 11 26 27 23 30 24
17 18 10 40 30 14 13 11 10 10 29 0 0 0 0 0
