P2
128 120
157
49 48 47 47 45 45 44 44 42 42 41 40 39 38 38 37
36 35 34 33 32 31 32 31 30 29 29 28 27 26 25 25
25 24 23 9 0 0 0 0 0 0 0 0 0 0 0 7
12 8 3 0 0 0 0 0 0 0 0 0 0 0 3 0
0 0 0 0 0 0 0 0 0 0 0 0 0 0 0 0
1 3 8 15 20 23 23 23 24 24 25 25 26 26 26 28
28 29 29 30 30 31 32 33 33 35 35 36 37 38 39 38
38 40 41 42 43 44 44 45 45 45 45 46 47 47 47 47
49 48 47 46 46 44 44 43 43 41 41 40 39 38 37 37
36 35 34 33 33 32 31 31 30 30 29 28 27 27 26 25
24 25 24 20 6 0 0 0 0 0 0 2 7 7 1 15
20 17 14 10 4 0 0 0 0 0 0 0 0 0 3 0
0 0 0 0 0 0 0 0 0 0 0 0 0 2 7 11
17 22 22 22 23 23 24 25 26 26 27 27 28 28 29 30
31 31 31 33 34 35 35 36 37 38 38 38 38 38 39 41
41 42 44 44 44 45 46 46 46 46 46 48 47 48 48 48
49 49 48 47 46 45 44 44 42 42 41 40 39 38 38 36
36 36 34 34 33 32 32 32 30 30 29 28 28 27 26 26
25 24 24 23 18 12 6 1 0 3 10 14 17 14 5 18
22 18 17 16 15 10 5 0 0 0 0 0 0 0 0 0
0 0 0 0 0 0 0 0 0 0 3 7 14 20 22 22
23 24 24 25 26 26 26 27 27 29 29 29 30 31 32 32
33 34 35 36 37 37 38 38 38 39 39 41 42 43 44 43
45 45 45 46 46 46 47 47 47 48 47 47 48 48 48 48
49 48 48 47 45 45 44 44 43 42 41 40 39 39 38 37
37 36 35 34 34 33 32 32 31 30 29 29 28 27 26 26
26 24 24 24 20 16 14 13 10 13 18 20 22 17 6 17
22 20 18 17 17 16 13 10 3 0 0 0 0 0 0 0
0 0 0 0 0 0 2 6 12 16 20 22 23 23 23 25
25 26 26 26 27 27 28 29 30 31 31 31 33 33 34 35
36 36 37 37 37 38 39 40 41 41 42 43 44 44 45 45
45 46 47 46 47 48 48 47 47 47 49 48 48 48 49 49
49 48 48 47 46 45 44 43 43 42 41 40 40 39 39 38
37 36 35 35 33 33 32 32 31 31 30 29 29 28 27 27
26 26 25 24 21 18 16 14 15 19 22 22 22 19 9 17
26 25 22 20 18 17 16 14 11 7 5 0 0 0 1 2
0 0 0 2 8 14 19 21 22 22 23 23 24 25 26 26
27 28 28 29 30 30 31 31 32 32 32 33 33 35 36 36
37 37 38 39 40 41 41 42 43 42 43 43 45 45 45 46
46 46 46 47 48 48 48 48 47 48 48 48 47 48 48 48
48 48 48 47 46 45 44 43 44 42 42 41 40 39 38 38
37 36 35 34 34 34 33 32 32 31 30 30 29 28 27 27
26 26 25 25 23 21 18 16 15 21 22 23 24 22 13 19
29 26 23 22 21 19 17 16 13 12 9 8 9 14 16 16
4 6 14 18 21 21 22 23 23 24 26 26 27 27 27 28
28 29 30 30 31 31 32 33 33 34 35 35 36 36 37 38
39 40 41 41 41 42 43 43 44 45 44 45 45 45 45 46
46 47 47 46 46 47 47 47 47 48 48 48 48 48 48 48
50 49 48 47 47 46 45 44 43 42 42 41 41 39 39 39
38 37 36 35 34 34 34 33 31 31 30 30 30 29 28 28
27 26 26 26 24 22 20 18 17 21 23 24 26 24 18 23
32 28 26 24 22 22 20 17 15 13 12 11 16 19 18 18
16 20 22 22 24 25 25 26 26 26 27 27 28 29 29 30
30 31 31 32 32 33 34 34 35 35 35 36 37 38 39 40
40 41 42 42 43 44 44 44 45 46 45 46 46 45 46 46
47 47 46 46 48 47 47 47 47 47 48 48 48 48 48 48
48 48 47 47 46 46 45 45 44 43 42 41 41 40 39 39
38 37 36 35 35 35 34 33 33 32 32 31 31 30 28 28
28 27 27 26 25 23 21 20 21 24 26 28 30 26 18 22
33 29 26 25 24 23 22 20 17 17 15 12 15 19 19 17
21 23 24 25 26 27 28 27 28 28 29 30 30 31 31 31
32 33 33 33 34 34 33 34 35 37 37 38 39 40 41 41
41 42 43 43 44 44 44 44 45 47 46 46 46 46 47 47
47 47 47 47 48 47 47 48 47 47 47 49 48 49 49 48
50 49 48 48 47 47 45 45 44 44 43 43 41 40 40 40
39 38 37 36 37 36 35 34 33 33 33 31 31 30 30 30
29 27 28 27 26 25 23 22 22 27 30 31 32 28 19 21
34 31 28 27 27 25 24 22 20 21 19 15 15 21 18 21
22 26 27 28 29 29 30 30 30 30 31 31 31 32 33 33
33 33 34 34 35 36 37 37 38 40 39 40 40 42 42 43
43 43 44 45 46 46 46 46 46 47 47 47 46 47 47 48
47 47 48 48 48 48 49 49 49 49 49 49 49 47 47 47
50 50 49 48 48 47 47 46 45 45 44 42 42 41 41 40
39 38 38 37 37 36 36 35 34 34 33 33 33 32 31 31
30 29 29 28 27 26 25 24 24 28 32 33 34 30 21 21
35 32 30 28 28 26 25 23 21 23 22 18 15 23 21 23
26 27 29 29 30 31 31 31 32 32 33 32 33 33 33 35
34 35 36 36 37 38 38 39 40 41 41 42 42 43 43 44
44 44 45 45 46 46 47 46 47 48 47 48 48 48 49 48
49 49 49 49 49 49 49 48 48 47 47 48 49 49 50 50
51 51 50 49 49 48 47 47 45 45 44 43 43 42 41 41
40 40 39 38 37 37 36 36 36 34 34 33 33 31 32 31
31 30 30 29 29 28 27 27 27 31 34 34 35 30 22 22
37 33 31 30 29 28 26 24 23 24 23 20 15 23 23 25
28 29 30 31 32 32 33 33 34 33 33 34 34 34 35 36
36 36 37 38 39 39 39 40 41 43 42 42 43 43 44 44
44 44 45 46 46 46 47 48 48 49 47 49 48 49 49 48
48 49 49 49 48 48 48 49 49 50 49 50 50 50 49 49
50 50 50 49 48 48 47 46 46 45 44 44 43 42 42 41
40 39 39 38 38 37 36 36 36 35 34 34 33 33 32 32
31 30 30 30 29 29 29 28 29 33 35 36 36 31 23 21
36 34 31 30 29 29 27 25 25 25 24 22 17 24 25 28
30 31 32 32 32 33 33 33 33 33 34 35 36 36 36 37
37 38 38 39 39 39 40 40 41 43 42 43 44 44 44 44
44 45 46 45 46 47 47 47 47 49 48 49 48 49 48 48
47 47 48 49 49 50 50 50 50 49 49 50 50 49 50 50
51 50 50 49 48 47 46 46 45 45 44 43 43 42 42 41
41 40 40 39 38 38 37 37 36 35 35 34 34 33 32 32
32 32 31 31 30 30 30 29 30 33 36 37 37 32 24 21
37 35 32 31 31 30 29 27 27 26 26 24 19 24 26 29
31 31 32 32 33 34 34 34 34 35 36 35 36 36 37 37
38 38 39 39 39 40 40 41 42 44 43 43 44 44 44 45
45 45 46 47 48 47 48 48 48 49 47 47 46 46 48 49
48 50 48 49 49 49 50 50 50 49 50 50 50 50 49 49
50 50 50 49 48 48 47 46 46 45 44 44 43 42 42 42
40 40 39 39 38 37 37 36 36 35 35 35 34 33 33 33
32 31 31 31 30 29 30 29 31 34 37 37 37 34 26 21
36 35 31 31 31 30 29 29 29 27 26 25 20 26 27 31
32 31 32 33 34 34 35 34 35 35 36 36 37 37 37 38
38 38 39 39 40 40 41 41 42 44 42 43 44 44 45 45
46 46 47 47 47 47 46 46 45 46 47 48 49 49 49 49
48 49 48 50 50 49 49 49 49 49 49 49 49 50 49 49
50 49 49 49 49 48 47 46 45 45 45 44 43 43 42 42
41 41 40 39 39 38 38 37 36 35 35 34 34 33 33 32
32 32 31 31 31 30 30 31 31 35 37 38 38 34 26 21
35 35 32 32 32 30 30 29 29 27 27 26 23 26 28 31
32 33 34 33 35 35 35 36 36 36 37 37 37 38 37 38
38 39 39 39 40 40 41 42 42 44 43 44 44 44 45 46
44 43 46 45 45 46 47 49 49 48 48 48 48 48 48 48
48 49 49 50 50 49 50 49 50 50 50 49 49 49 49 49
50 49 50 49 47 47 47 46 46 45 45 44 44 43 43 42
42 41 41 40 38 38 38 37 37 36 36 35 35 35 34 33
33 32 32 31 31 31 30 30 32 35 38 38 38 34 27 23
34 36 32 32 32 32 31 29 29 28 28 27 26 28 30 33
33 33 34 35 35 36 36 35 36 36 36 37 37 37 39 39
39 39 39 40 41 41 41 42 42 43 44 44 44 44 44 43
46 45 46 47 48 47 48 48 47 48 48 49 49 48 49 48
49 49 49 50 50 50 50 49 49 49 49 49 48 49 49 49
50 49 49 48 48 48 47 46 46 45 45 44 44 43 43 42
42 40 40 40 39 38 38 37 36 36 35 35 34 34 34 33
33 32 32 32 32 32 31 31 33 36 38 38 39 35 28 21
31 35 32 31 33 32 31 31 31 29 29 28 25 29 31 33
34 34 34 35 35 36 36 37 37 37 37 37 37 38 38 38
38 39 40 40 41 41 42 42 42 44 42 42 42 43 45 46
45 48 46 46 47 47 48 48 47 47 47 48 48 48 49 48
49 48 49 49 49 49 50 50 49 49 49 49 49 49 48 48
50 50 49 48 48 47 47 46 46 45 45 44 44 43 43 43
42 41 40 39 39 38 38 38 37 37 36 36 36 35 34 34
34 33 33 32 31 31 31 31 32 36 39 39 39 36 30 17
26 36 34 34 34 32 32 31 30 29 29 28 25 30 32 34
35 34 35 35 36 36 37 37 37 37 38 38 38 38 39 39
40 40 40 41 41 41 41 39 40 41 43 44 45 46 46 46
46 48 47 47 47 47 48 48 47 48 48 48 48 48 49 48
48 49 49 50 49 49 49 49 49 49 49 49 48 48 49 48
50 49 49 49 47 47 47 47 46 46 45 44 44 44 42 42
42 41 41 40 39 39 39 38 38 36 36 36 35 35 34 34
34 33 33 32 32 32 31 32 33 37 40 40 40 36 27 21
29 38 35 34 34 33 32 33 32 30 31 29 26 32 32 34
35 35 35 35 36 37 37 37 37 38 38 39 39 39 39 39
40 39 39 39 40 40 42 42 44 44 45 45 46 46 46 46
47 48 47 47 47 47 48 47 48 47 48 48 48 49 49 49
49 49 49 49 48 49 50 49 49 49 49 50 49 49 48 49
50 50 49 48 48 47 47 46 46 46 45 44 44 44 44 43
42 41 41 40 40 39 39 38 37 37 37 36 36 35 35 35
34 33 33 32 32 32 32 32 33 37 40 40 39 36 28 28
29 39 35 35 35 33 33 33 32 30 31 30 27 32 33 35
36 36 37 37 36 37 38 38 37 37 38 39 39 38 39 39
39 40 41 41 42 43 43 43 44 44 44 45 45 46 46 47
47 48 47 47 48 48 48 47 48 47 47 48 48 48 49 49
48 48 49 49 49 49 49 49 49 49 49 49 49 49 48 47
50 49 49 48 47 48 47 47 46 46 45 45 44 43 43 42
41 41 40 40 39 39 39 38 37 37 37 36 36 35 35 34
34 33 33 33 33 32 33 33 34 37 40 40 39 37 29 28
29 37 35 35 34 33 33 32 32 30 30 31 27 34 34 36
36 36 36 37 37 38 38 38 37 38 38 38 38 38 39 39
40 41 41 41 41 42 42 43 43 44 45 45 46 46 47 46
47 47 47 47 47 47 47 48 47 48 49 49 48 48 49 49
49 48 49 48 49 49 49 49 49 48 48 47 48 49 48 50
51 50 49 49 48 48 47 47 46 46 46 45 45 44 43 43
43 42 41 40 40 40 39 39 38 38 37 36 37 36 35 35
34 34 33 33 33 33 32 33 34 38 40 41 40 37 28 29
25 27 30 32 29 29 30 30 29 29 30 29 27 33 35 36
37 37 37 38 38 38 38 38 37 38 39 39 39 40 40 41
42 41 43 42 43 43 44 43 44 44 45 45 45 46 46 46
47 47 48 48 48 48 48 49 48 49 48 48 48 48 49 49
49 49 49 49 49 49 48 48 48 49 49 50 49 49 49 49
49 49 49 49 49 48 48 47 47 46 45 45 45 44 44 43
42 41 42 41 40 40 40 39 39 38 37 37 37 36 35 35
35 34 34 33 33 33 33 33 34 36 38 41 35 25 20 17
14 15 23 26 18 18 17 20 23 23 21 25 28 33 35 36
37 37 37 37 37 37 38 38 38 38 39 39 40 40 41 41
41 42 42 42 42 43 43 44 44 44 45 46 46 47 47 47
47 47 48 47 48 48 48 48 48 48 49 48 49 48 49 49
47 48 47 48 49 49 49 49 48 48 49 49 49 49 49 48
49 49 49 49 48 48 47 46 46 45 45 45 44 43 44 43
42 42 42 41 41 41 40 39 39 38 38 37 36 36 35 35
35 35 35 34 34 33 32 33 34 32 30 31 21 15 11 12
11 11 13 13 10 13 15 18 13 8 13 21 25 31 33 36
37 36 37 38 39 38 39 39 39 39 39 39 39 40 41 40
41 42 43 43 43 44 44 44 45 44 45 45 45 46 47 47
47 48 49 48 48 49 49 49 49 48 48 48 48 48 48 49
48 48 48 48 48 48 49 49 49 49 49 49 49 49 49 48
50 50 48 48 49 48 47 47 46 46 46 46 45 44 44 43
43 42 42 41 41 40 40 39 39 38 38 38 38 37 37 36
36 36 34 34 34 33 33 31 27 21 23 18 13 8 10 13
8 11 11 5 8 7 7 6 6 7 13 13 13 21 27 35
38 38 39 39 39 39 39 39 40 40 40 40 41 41 42 42
42 43 43 43 43 43 44 44 44 45 46 46 46 46 48 48
48 49 49 49 49 48 48 47 47 48 47 48 49 49 48 49
49 48 49 49 48 48 48 48 48 48 48 48 49 48 48 48
50 50 50 49 49 48 48 48 47 46 46 45 45 45 45 43
44 43 43 42 41 41 41 40 39 39 38 38 37 37 37 36
36 35 35 35 35 35 32 24 22 15 12 13 10 6 9 13
8 12 11 9 14 14 11 8 7 11 10 12 12 17 15 23
34 38 39 39 40 40 40 40 40 40 41 41 41 41 41 42
42 42 43 43 44 45 44 44 44 45 46 46 46 47 47 47
47 46 47 47 47 47 48 49 49 49 48 49 49 48 49 48
48 48 49 49 49 49 49 49 49 49 49 49 48 48 48 48
50 49 49 49 48 48 47 47 47 46 47 46 45 45 44 44
44 43 43 42 41 41 41 40 40 40 39 39 39 38 37 37
36 36 36 34 35 33 23 18 20 15 9 8 6 4 9 9
6 8 7 7 4 4 9 12 10 8 10 11 9 10 14 19
25 33 39 39 40 40 40 40 40 40 40 40 41 41 42 43
43 43 44 44 44 44 45 45 45 46 47 47 46 46 46 46
46 47 48 48 49 49 48 49 48 50 49 49 49 48 49 48
48 49 49 49 48 49 49 48 48 48 49 49 49 48 48 48
50 49 48 48 48 48 47 47 47 46 46 45 45 44 45 44
43 43 43 42 41 41 41 40 40 40 39 38 38 38 37 37
36 36 36 35 29 19 14 14 19 10 5 6 4 2 3 4
4 1 2 1 4 2 1 4 11 5 3 3 4 10 9 12
14 28 38 39 40 40 40 40 40 39 40 41 41 41 42 42
43 43 43 43 44 44 45 44 45 45 45 46 46 47 48 47
48 48 48 48 48 48 49 49 49 49 49 48 47 48 48 48
48 48 49 49 48 48 47 47 48 49 49 47 48 48 47 48
49 49 48 48 48 48 48 48 47 46 46 46 45 45 44 44
44 43 42 42 41 41 41 40 40 40 39 39 39 38 38 37
37 36 35 31 18 13 8 14 13 9 5 6 4 2 4 2
1 0 0 0 2 3 0 2 5 7 4 3 10 12 12 12
14 13 31 40 41 40 40 40 40 41 41 40 41 42 43 43
43 44 44 43 44 43 43 44 45 46 47 47 47 48 48 48
48 48 49 49 49 49 49 48 49 49 50 48 48 48 49 48
48 48 49 48 48 48 48 47 48 47 48 48 48 48 48 48
50 48 49 49 48 47 48 48 47 47 46 46 45 45 44 44
44 44 43 42 42 41 41 41 40 40 39 39 39 39 38 37
37 36 34 22 17 12 9 13 11 11 5 3 4 3 2 0
0 0 0 0 0 0 0 0 1 1 2 1 2 1 3 4
5 9 12 32 40 40 41 40 41 42 42 42 42 42 43 42
43 43 43 43 45 44 45 45 45 46 48 47 48 48 48 47
48 48 48 48 48 48 49 49 49 49 50 48 48 48 48 49
48 48 48 48 48 48 49 48 48 48 48 48 48 48 48 48
49 49 48 48 48 47 47 47 47 46 46 46 45 45 45 44
44 44 43 43 42 42 42 41 40 40 40 39 39 39 39 38
37 36 32 20 17 10 9 7 10 11 6 0 1 3 1 0
0 0 1 0 0 0 0 0 0 0 0 0 1 1 3 4
7 4 9 17 37 40 41 41 41 41 41 42 42 42 42 43
44 44 44 43 45 45 46 45 47 46 48 47 48 48 48 48
49 48 48 48 49 49 49 49 48 49 50 48 48 49 48 49
49 49 48 49 49 48 49 48 49 48 49 49 49 49 47 46
49 49 49 48 48 48 47 47 46 47 46 46 45 44 44 44
43 43 43 42 42 42 42 41 41 40 40 39 39 39 39 38
38 36 29 18 14 9 8 6 8 11 7 0 0 0 0 0
0 0 0 0 0 0 0 0 0 0 1 3 1 3 8 2
2 7 7 7 23 40 40 41 40 40 40 42 42 42 42 42
43 43 45 44 45 45 45 46 46 46 49 48 49 49 48 48
49 48 48 48 48 49 48 49 48 48 50 49 49 48 48 48
48 48 48 48 48 48 49 48 48 48 47 47 43 44 44 44
50 49 49 48 48 48 48 48 47 47 47 46 45 46 45 45
44 44 43 43 42 42 41 41 41 40 40 40 39 39 39 39
38 36 28 17 10 7 10 5 2 5 2 1 0 0 0 0
0 0 0 0 0 0 0 1 5 4 4 5 3 3 3 3
4 6 5 4 3 26 40 41 40 41 42 44 42 43 43 44
44 45 44 45 45 46 46 46 47 47 48 47 47 48 48 48
48 48 49 49 49 49 49 49 49 48 50 49 49 49 49 49
49 48 49 48 47 47 47 46 47 46 48 48 48 47 47 47
49 49 49 49 49 48 48 47 47 47 47 46 46 45 45 45
44 44 43 43 43 43 42 42 41 41 41 40 40 39 38 38
37 36 27 13 6 7 7 3 3 1 1 0 0 0 0 0
1 1 2 1 0 0 0 0 2 1 2 3 2 3 5 1
3 5 6 2 4 5 32 40 42 42 42 44 43 43 44 43
44 44 46 46 46 46 46 46 47 47 48 47 48 48 49 48
48 48 48 48 48 48 49 49 49 49 51 49 49 50 49 48
48 48 48 47 48 48 49 49 48 48 48 47 48 47 46 45
50 50 49 48 48 48 48 47 47 47 46 46 46 46 46 45
45 45 44 43 43 42 43 42 42 41 41 40 39 39 39 39
38 35 30 12 12 7 2 2 1 0 0 0 0 3 12 19
22 23 17 9 3 0 0 0 0 4 8 6 7 6 5 3
7 1 3 1 3 2 11 38 42 43 43 44 43 43 44 44
45 45 46 46 46 46 47 47 47 47 48 48 48 48 49 48
49 48 49 49 50 50 50 50 50 48 48 44 46 47 47 47
48 49 49 50 48 47 47 47 48 48 47 47 46 47 46 45
50 49 50 50 49 48 48 48 48 47 47 47 47 46 46 45
45 45 44 43 43 43 43 43 42 42 41 41 41 41 40 39
38 35 29 13 8 2 1 1 1 0 0 2 16 33 40 47
45 44 40 21 4 1 1 0 1 0 1 1 0 2 5 2
4 3 0 3 0 0 0 26 42 44 43 44 44 44 44 45
45 45 45 46 47 47 46 47 47 48 49 49 48 49 49 50
49 50 49 49 48 47 47 47 48 48 48 48 49 49 48 48
47 48 49 50 47 47 47 47 48 47 47 47 46 47 47 45
32 47 50 49 49 49 48 48 48 47 47 46 47 46 46 45
45 46 45 45 44 43 43 42 42 42 41 40 41 40 40 39
39 34 29 9 6 5 0 0 0 0 7 31 51 61 63 62
64 62 49 25 5 0 5 5 2 1 0 2 2 3 3 3
4 4 1 0 0 0 0 8 39 43 44 46 44 45 45 45
45 46 46 46 46 46 47 47 48 47 49 48 48 48 49 49
49 48 48 47 48 49 50 49 49 48 49 48 48 48 48 48
48 48 48 50 48 48 47 48 49 47 47 47 46 46 45 45
23 44 49 49 49 49 48 48 48 49 48 47 47 46 46 46
46 44 45 44 44 44 43 43 42 42 42 42 41 40 40 39
38 33 20 9 7 5 1 1 0 10 39 55 66 68 69 77
75 68 50 27 10 3 7 8 11 6 7 5 1 2 1 3
2 4 2 0 0 0 0 1 29 43 44 45 45 45 45 45
45 46 46 46 46 47 48 47 48 48 48 48 48 47 48 48
48 48 49 49 49 49 49 49 48 48 48 48 48 49 49 48
49 49 48 49 48 48 47 47 49 47 47 46 47 46 46 46
24 43 50 49 49 48 47 46 47 48 48 47 47 47 46 46
46 45 45 45 44 43 44 42 45 50 48 44 42 41 40 37
39 30 19 10 6 2 0 0 14 47 61 66 72 81 88 92
88 86 64 38 15 8 6 6 7 7 4 4 3 2 5 6
6 5 4 0 0 0 0 0 15 43 45 45 45 45 45 46
45 46 46 46 47 46 47 47 46 46 47 47 48 48 48 47
48 49 49 49 49 49 48 48 48 49 48 47 47 47 48 48
47 48 48 49 47 47 47 48 48 47 48 46 46 46 46 45
24 43 50 49 49 49 48 54 59 55 54 51 49 47 45 46
45 45 45 44 44 43 44 43 52 61 57 52 50 48 43 37
33 32 22 10 8 3 0 17 52 65 69 76 86 93 97 95
93 90 82 52 27 21 9 8 5 5 0 1 1 5 1 2
2 1 0 0 0 0 0 0 4 39 45 46 45 45 44 45
45 46 46 46 46 47 46 47 47 47 47 47 48 47 48 48
47 48 49 49 48 48 48 48 48 48 49 48 47 47 48 48
48 49 48 48 47 47 46 47 46 47 47 46 47 47 46 46
27 46 51 51 50 49 49 57 63 61 59 54 53 53 52 48
46 46 45 44 43 44 43 43 51 57 55 52 53 53 49 39
30 31 31 16 9 6 19 52 69 71 80 90 97 99 99 98
98 98 91 75 40 33 17 10 11 4 2 2 3 1 1 2
5 1 3 6 2 0 0 0 1 25 44 44 44 43 43 44
45 46 46 47 45 46 46 47 47 47 47 47 47 47 47 47
47 47 48 49 48 48 48 48 48 47 48 48 47 48 48 48
48 47 47 48 48 47 48 47 47 48 48 46 47 46 46 46
28 50 53 51 51 49 49 58 65 62 58 56 58 61 61 53
54 52 49 45 44 45 44 44 48 47 49 50 53 53 51 42
33 29 29 22 15 20 50 71 75 79 90 99 101 102 101 101
100 102 99 92 71 41 29 17 17 5 4 3 1 1 4 1
0 2 10 6 0 0 0 0 0 11 41 44 45 45 46 45
45 46 47 48 46 46 47 46 47 47 47 47 47 47 48 47
47 47 48 49 48 47 48 49 48 47 48 48 48 47 47 47
48 48 48 48 48 48 47 47 47 47 47 47 48 46 46 46
27 51 56 51 53 53 53 55 40 46 54 59 62 63 61 45
41 50 53 54 52 51 49 46 47 29 23 24 28 34 42 42
38 32 35 28 18 39 69 76 79 88 98 101 102 103 103 102
104 104 103 97 83 68 39 31 17 8 1 0 0 2 0 2
1 4 2 1 0 0 0 0 0 5 33 43 44 44 45 44
45 46 46 47 45 47 47 47 47 47 47 47 48 47 47 47
47 47 48 48 48 48 48 47 48 48 48 48 46 47 47 48
48 48 48 48 48 48 48 48 47 47 47 47 47 45 45 44
28 52 56 46 46 53 59 59 6 1 18 37 41 46 54 29
1 5 13 25 33 42 50 50 47 27 12 16 16 5 16 44
38 35 29 24 27 57 73 77 86 96 100 105 108 108 105 104
107 108 105 101 86 73 57 39 25 11 2 0 0 0 1 2
4 0 0 0 0 0 0 0 0 0 19 41 43 45 44 45
45 45 46 47 45 47 46 47 47 47 47 48 47 47 47 47
47 48 48 49 49 47 47 47 47 47 47 47 47 47 48 47
49 49 48 49 48 47 48 46 46 46 45 45 44 46 47 47
26 42 53 55 54 55 63 62 8 0 7 18 22 21 41 29
0 0 0 0 3 3 9 23 47 25 4 6 8 4 13 46
40 34 28 27 48 62 73 84 97 101 105 109 109 106 107 107
105 105 103 100 90 78 56 48 33 20 15 9 6 1 6 6
2 0 0 3 2 0 0 0 0 0 9 27 41 43 45 44
45 45 45 47 47 46 46 47 46 47 47 47 47 46 46 47
46 47 47 48 48 47 47 47 47 47 48 47 48 47 48 48
48 48 48 46 45 46 45 46 46 46 47 47 47 47 46 46
23 5 8 18 31 45 55 59 10 0 4 12 14 16 39 33
2 0 0 0 1 0 0 9 47 19 0 0 5 2 13 47
40 33 29 34 63 65 78 93 100 106 107 110 109 108 108 109
108 107 103 96 100 95 74 64 51 32 21 18 25 10 2 0
0 0 0 4 3 0 0 0 0 0 2 17 36 43 45 45
45 46 45 47 46 47 46 46 46 46 47 47 47 47 47 47
47 47 48 48 47 47 47 47 46 46 48 47 47 48 48 47
47 47 48 47 48 48 47 46 46 46 46 46 47 45 46 46
21 1 0 0 0 1 6 26 12 0 1 2 1 8 32 29
0 0 0 0 1 0 0 8 46 9 0 0 0 2 14 48
41 39 35 48 64 69 83 98 103 106 108 112 111 111 111 113
112 109 109 107 106 98 97 80 54 41 42 29 17 20 5 0
2 4 27 36 12 9 5 0 0 0 0 9 30 39 44 45
45 45 45 46 45 47 46 46 47 47 47 47 47 47 47 47
47 47 48 46 47 47 47 48 47 48 48 47 49 48 48 48
48 47 47 46 47 46 47 46 45 46 46 46 48 46 46 46
22 1 0 0 0 0 0 12 11 0 0 0 0 3 35 29
0 0 0 9 12 1 0 5 46 8 0 0 0 1 13 50
41 40 40 58 68 81 90 99 105 108 111 113 111 115 116 117
117 116 115 113 111 108 90 79 68 56 48 26 17 11 3 1
12 84 108 105 104 39 3 9 2 0 0 5 20 37 40 45
45 45 46 46 45 46 46 46 47 47 48 47 47 47 47 48
47 47 47 48 48 49 49 48 48 47 48 47 48 48 49 48
47 48 47 47 47 48 48 48 47 47 47 47 48 47 47 47
22 1 0 0 0 0 0 12 10 0 0 0 0 2 38 33
0 0 0 13 21 14 6 4 46 7 0 0 0 0 9 49
41 40 43 64 71 88 97 102 106 109 112 113 114 120 119 119
121 119 118 120 115 108 97 76 57 48 58 36 35 22 14 4
67 129 131 138 118 110 28 1 6 3 0 2 19 32 38 44
45 45 45 46 46 46 46 46 47 47 47 47 46 47 46 46
47 47 47 48 47 47 47 47 46 45 46 48 49 48 48 48
49 48 47 47 49 48 48 47 48 49 47 46 47 44 43 42
21 2 0 0 13 4 0 9 9 2 0 0 0 2 35 36
0 0 2 16 21 20 17 4 44 9 0 0 0 0 6 50
39 41 47 66 75 89 96 101 105 109 113 113 116 120 123 124
124 123 123 121 118 115 105 85 54 36 25 41 41 46 31 21
110 119 146 138 135 116 95 4 0 0 0 0 12 30 36 44
44 45 46 46 45 45 46 45 46 47 47 46 47 47 46 46
47 47 47 47 46 47 47 47 47 46 46 48 48 48 48 48
49 48 48 49 48 47 47 48 48 46 44 43 43 42 40 37
21 2 12 9 10 3 0 8 11 2 0 0 0 8 34 39
0 1 1 13 20 20 18 5 44 15 1 0 0 0 5 50
40 42 53 68 79 89 94 101 105 109 114 114 116 121 125 128
129 127 125 125 119 118 107 82 61 49 47 42 37 39 45 61
117 99 141 138 122 114 115 32 0 0 0 0 4 28 38 42
44 44 45 45 46 45 46 46 46 47 47 48 47 48 48 47
47 47 47 47 46 46 48 47 47 48 47 48 49 49 49 49
49 48 46 44 44 44 45 44 42 37 33 29 26 22 20 18
22 7 13 1 7 5 0 9 12 0 0 0 0 13 40 44
3 3 6 1 8 17 16 3 45 49 38 28 21 15 21 51
41 43 60 71 83 87 94 104 108 112 115 116 117 121 124 127
129 129 131 132 129 122 111 82 49 35 25 40 49 46 53 94
114 99 129 142 128 108 104 68 0 0 0 0 1 18 37 44
43 46 46 46 46 46 46 47 47 47 47 48 46 48 48 47
48 48 48 48 48 48 49 48 47 46 47 48 47 46 46 45
46 43 39 36 32 28 24 21 19 18 18 19 20 21 21 22
22 8 3 0 0 2 0 14 36 20 14 13 4 2 35 62
44 38 33 22 11 9 11 4 46 58 54 53 54 58 60 57
41 44 64 71 83 87 95 106 108 112 114 117 118 124 126 129
128 127 132 134 132 124 117 92 60 41 21 35 69 83 86 112
116 111 122 137 135 109 94 90 1 0 0 0 0 14 34 42
44 45 46 45 45 46 47 47 47 47 48 48 47 48 48 46
46 46 46 45 45 44 47 45 45 43 44 42 39 35 30 26
23 21 21 19 20 19 21 22 23 24 25 26 27 28 27 28
22 2 0 0 0 0 0 17 66 60 51 52 49 40 52 62
30 32 37 39 40 39 41 42 57 53 52 54 56 62 65 59
41 45 66 72 82 88 100 106 106 94 85 95 95 103 122 130
134 134 134 139 136 131 122 100 59 43 21 16 49 86 83 118
109 97 125 145 144 124 92 101 0 3 0 0 0 11 31 41
44 44 46 46 46 47 47 46 47 47 46 48 46 46 45 45
44 46 45 44 42 40 37 33 30 26 25 23 22 21 21 22
23 25 26 27 25 19 29 30 31 32 33 32 33 33 21 33
24 5 0 0 0 0 0 19 70 57 61 65 70 66 61 52
22 22 22 22 22 21 23 27 32 28 33 39 47 49 48 48
41 45 67 74 83 93 105 98 65 33 33 51 68 83 104 116
130 137 135 140 138 133 125 108 77 33 8 7 26 57 76 119
107 59 112 113 118 132 103 98 7 0 0 0 1 4 28 38
44 44 46 46 46 46 48 47 46 47 47 47 45 45 47 40
34 32 30 27 24 24 24 24 25 25 26 27 29 30 30 31
32 33 33 34 33 13 33 35 37 37 33 34 38 27 34 41
27 40 38 27 16 9 4 20 60 50 62 66 70 69 57 46
26 23 22 21 19 17 16 14 14 15 16 17 35 41 37 37
40 45 65 75 87 95 97 56 17 32 53 77 106 114 110 114
120 127 134 140 139 136 130 120 94 37 9 7 13 39 51 102
113 112 134 127 106 117 113 101 24 4 0 0 0 0 13 30
42 44 47 47 47 46 46 43 40 36 34 30 28 27 44 34
19 23 25 27 28 29 30 31 32 33 34 35 36 37 37 37
38 31 31 39 40 25 29 41 41 41 27 38 36 27 42 42
28 53 65 64 60 56 52 54 53 44 58 62 66 67 60 50
29 24 21 18 16 16 16 16 16 17 17 18 37 25 28 41
41 42 60 76 90 94 61 10 21 74 92 106 107 111 121 122
127 140 139 139 141 140 132 124 104 65 18 5 6 28 65 77
111 122 130 140 114 104 121 106 37 12 3 0 0 0 13 29
37 38 39 37 33 30 26 26 25 24 25 27 28 27 36 30
23 30 33 34 36 37 37 38 39 39 40 39 40 41 41 42
41 42 35 33 43 38 18 43 43 41 24 39 26 38 39 44
27 54 66 66 63 64 65 67 41 12 19 28 38 45 44 50
31 22 18 9 9 8 15 18 18 17 20 22 39 36 34 50
48 46 60 79 93 76 11 9 58 73 75 76 82 100 115 123
131 142 141 143 144 141 137 129 116 92 68 36 37 62 77 83
113 103 138 145 114 104 130 110 47 16 2 1 0 0 6 17
25 23 26 26 26 27 29 30 31 32 32 34 35 34 40 36
29 36 39 40 40 41 42 43 42 42 42 43 42 43 43 42
44 44 44 36 34 41 17 36 44 39 25 28 34 40 40 44
27 47 59 60 61 64 65 67 33 0 0 0 3 14 25 50
29 20 15 1 0 0 7 13 10 6 14 16 36 52 46 46
47 50 65 82 86 32 4 25 47 23 26 56 85 91 89 107
122 132 136 139 140 140 139 135 129 101 77 51 49 51 67 79
103 100 114 134 113 121 140 111 52 18 4 1 0 0 0 16
28 29 32 32 33 34 36 36 38 39 39 40 40 39 35 31
32 41 42 43 44 45 45 45 45 45 45 45 44 44 44 43
44 45 45 45 36 34 31 21 42 35 27 22 43 38 41 44
34 39 44 46 49 49 53 61 27 0 0 0 2 1 15 53
29 18 15 2 0 5 2 0 1 0 1 4 32 53 39 34
33 38 67 84 74 21 21 45 22 9 86 139 134 103 109 113
118 125 130 133 135 141 142 138 131 93 71 47 43 42 80 94
98 115 118 114 114 135 134 104 56 24 2 0 0 0 3 22
35 36 38 38 39 40 41 41 42 42 43 43 42 37 15 11
28 42 45 46 46 44 44 45 46 45 46 46 45 45 44 45
43 45 45 45 46 35 31 13 21 17 21 34 43 38 42 40
29 31 30 34 44 42 49 60 25 0 0 0 2 1 5 53
22 12 2 0 0 13 10 3 1 0 0 1 30 54 39 28
43 39 66 82 75 41 50 73 32 20 93 125 112 119 119 121
118 124 132 131 133 141 142 139 131 93 56 38 35 36 85 110
95 92 101 133 138 125 125 89 61 26 1 0 0 0 6 32
41 39 43 42 43 43 43 44 44 43 43 40 38 36 15 9
22 43 45 47 47 46 46 46 46 45 46 46 46 45 45 44
44 43 44 44 45 43 34 12 0 1 28 39 41 37 42 38
30 32 35 39 46 45 53 59 25 0 0 0 0 0 7 53
7 0 0 0 1 9 19 11 3 0 0 0 31 55 38 21
36 33 55 76 79 77 96 96 55 29 61 89 124 123 124 121
116 124 132 134 136 140 142 138 130 103 58 36 38 33 60 93
98 84 125 134 111 114 117 77 53 23 1 0 0 0 6 33
40 42 44 44 45 44 44 45 45 26 11 7 18 32 11 6
20 42 45 47 45 46 46 46 45 46 46 46 46 46 45 44
44 42 43 44 44 43 43 28 0 7 38 40 34 35 40 41
30 14 8 14 21 30 38 46 23 0 0 0 0 0 10 54
8 0 0 0 2 8 21 17 14 1 0 0 29 56 41 21
27 26 22 47 70 107 127 114 68 49 49 97 117 124 124 118
124 130 136 136 139 140 140 137 125 92 58 31 43 44 50 98
117 124 130 121 120 122 92 68 49 22 2 0 0 0 0 10
39 40 44 45 46 45 45 46 45 28 21 28 36 36 6 1
19 42 45 46 46 46 46 46 46 45 46 46 45 46 45 44
45 43 42 43 43 42 44 38 2 9 41 37 30 30 39 42
35 11 0 0 0 0 0 8 21 0 0 0 0 0 10 51
6 0 0 0 6 23 25 21 19 1 0 2 29 55 43 31
29 22 2 5 36 110 143 126 86 66 63 88 110 120 115 119
123 132 141 142 144 138 134 133 120 86 55 35 30 43 46 93
113 115 114 119 135 110 84 70 49 18 3 0 0 0 0 0
2 11 23 26 30 34 42 46 46 46 44 44 43 37 10 2
20 41 45 46 46 46 46 46 46 45 46 46 45 46 45 44
44 44 43 42 42 43 44 40 4 7 41 41 31 31 42 42
34 13 0 0 1 0 0 4 19 0 0 11 7 0 8 50
4 0 0 0 4 20 29 13 7 0 0 4 25 56 46 33
17 7 3 4 12 97 145 133 97 72 59 76 100 108 108 110
123 134 142 143 140 138 134 129 119 84 53 40 30 33 40 70
89 119 121 132 131 96 86 70 37 13 3 0 0 0 0 0
0 0 0 0 1 8 27 44 46 45 45 44 42 39 19 0
25 42 46 47 47 46 46 46 45 46 45 45 45 45 44 44
44 44 43 41 43 44 45 42 7 6 41 43 32 31 42 43
34 13 0 1 10 3 0 4 19 0 5 26 17 3 9 47
3 0 0 1 2 1 22 3 0 0 1 1 21 55 46 26
12 9 13 16 15 100 146 141 116 94 69 75 92 96 104 112
130 138 134 140 139 133 137 130 117 91 61 40 34 38 45 68
88 91 128 132 107 99 88 75 51 28 18 1 0 0 0 0
0 0 0 0 0 3 18 37 44 45 45 43 42 38 28 14
33 44 46 47 46 46 46 46 46 45 45 46 46 45 45 45
44 45 44 41 42 44 44 42 7 5 40 43 31 29 41 44
31 13 0 9 26 12 3 3 22 1 13 25 21 8 8 47
3 5 0 0 1 0 22 7 0 0 0 0 15 54 42 15
10 0 18 21 16 120 148 142 126 116 96 81 88 101 114 123
135 136 134 134 128 134 128 120 98 78 61 40 39 42 48 48
86 60 84 101 104 100 89 78 67 47 30 1 0 3 1 0
0 0 0 0 0 0 11 30 43 45 45 44 41 37 34 33
39 45 47 47 47 46 47 45 46 46 46 45 45 45 44 44
45 44 44 43 42 38 42 40 11 3 29 32 23 26 39 42
29 13 0 15 28 14 5 3 45 40 45 45 42 37 35 49
2 0 0 0 0 0 21 9 0 1 0 0 10 54 37 11
10 2 26 33 54 134 146 143 134 127 116 104 98 106 119 129
136 134 130 125 125 131 119 100 79 59 55 47 50 45 46 36
62 75 81 105 109 104 90 78 72 61 38 3 6 2 3 0
0 0 0 0 0 0 4 26 37 45 45 44 43 39 38 39
44 47 46 46 46 46 46 45 46 45 46 46 46 46 46 46
46 45 44 42 41 37 30 34 11 2 33 43 36 31 40 42
29 16 0 6 9 6 2 2 49 53 59 59 58 63 67 58
13 10 9 1 0 4 24 13 4 5 1 0 6 46 36 10
3 6 17 35 83 137 144 144 140 136 125 111 105 111 123 133
130 121 119 120 123 116 112 88 82 49 44 52 34 43 34 35
36 66 92 104 111 107 94 77 69 56 42 6 4 16 18 4
0 0 0 0 0 0 1 17 34 44 45 44 44 42 40 43
47 47 46 46 48 46 47 47 47 46 45 45 44 45 45 44
44 44 45 43 41 43 43 43 17 2 30 41 34 29 35 38
31 27 14 3 5 3 1 2 48 55 59 58 59 67 71 65
42 41 39 32 29 29 34 26 22 18 18 14 20 41 39 18
16 18 10 32 108 140 145 146 144 139 128 114 111 117 125 133
126 119 119 123 113 110 106 86 71 43 30 45 35 44 29 24
25 41 80 101 107 105 94 75 71 60 47 13 2 23 27 10
0 0 1 0 0 0 0 7 35 41 44 44 44 42 43 45
46 46 46 45 46 46 46 46 45 45 45 46 45 46 46 45
44 43 44 43 42 42 42 43 20 1 28 40 34 28 37 41
33 32 12 2 5 2 0 2 45 49 53 53 54 57 57 57
48 49 49 46 45 47 45 42 39 34 33 30 33 44 50 36
34 28 24 50 130 141 143 146 146 139 126 114 112 120 122 123
124 113 114 118 117 105 93 71 59 50 30 40 34 40 29 24
18 27 59 87 99 104 94 76 68 68 51 17 8 12 25 5
0 8 3 0 0 0 0 3 24 42 43 45 44 43 44 45
45 45 45 46 47 46 46 46 45 46 46 45 46 46 45 45
44 44 44 43 42 42 43 43 24 2 26 43 37 27 36 41
35 29 4 0 3 0 0 2 49 48 49 49 50 49 44 45
49 50 52 51 49 48 48 47 47 50 48 43 42 49 58 55
55 53 51 83 126 133 137 136 134 134 119 110 111 118 111 116
129 118 115 110 108 106 83 60 43 46 25 27 41 49 29 19
12 18 32 54 84 99 92 78 73 66 54 20 15 16 16 3
2 9 4 0 0 0 0 2 17 38 44 44 44 44 46 47
46 46 47 47 47 46 46 46 45 45 45 45 45 45 45 44
44 44 44 42 41 42 43 42 25 2 23 43 37 28 36 40
32 34 32 27 21 18 13 12 52 50 48 48 48 48 49 51
53 52 56 60 59 50 47 47 50 60 58 54 53 52 47 40
40 41 45 97 127 135 132 126 126 127 120 105 108 110 103 115
125 110 107 107 88 88 76 50 39 36 28 27 43 40 26 17
14 13 23 29 53 91 87 76 72 71 54 29 21 9 0 1
1 4 2 0 0 0 0 0 16 36 44 45 45 45 46 46
45 45 46 46 46 46 46 46 45 45 45 45 45 45 44 44
44 43 44 42 40 41 43 42 27 2 21 42 37 28 34 41
33 42 61 63 58 60 63 61 65 55 51 51 51 52 55 59
58 53 56 63 62 49 44 41 49 61 58 54 54 53 49 40
34 32 45 113 136 139 138 141 141 144 132 103 103 107 103 104
106 108 101 87 66 64 62 33 28 27 28 27 32 28 20 8
4 8 21 13 56 93 83 78 71 77 61 38 22 19 0 0
0 6 1 0 0 0 0 0 12 33 42 44 45 45 45 46
46 45 45 45 46 45 45 44 45 44 43 44 44 44 43 43
43 43 43 41 40 40 42 42 29 2 19 41 37 26 32 39
33 44 70 70 70 70 69 70 70 55 45 43 43 44 51 59
61 53 54 53 52 51 46 40 40 47 42 42 48 49 48 45
39 38 60 122 148 148 147 146 147 148 139 108 103 107 101 88
80 90 79 73 48 42 46 30 18 22 35 30 21 17 17 5
0 0 4 20 61 91 86 77 69 80 71 48 24 14 0 0
0 0 0 0 0 0 0 0 6 29 41 43 45 44 45 44
44 44 44 43 44 44 44 44 44 43 43 44 44 43 42 43
42 42 42 41 39 39 42 41 32 2 14 40 38 27 31 39
33 35 49 50 52 54 57 59 62 38 11 10 6 8 13 30
60 52 36 16 21 25 24 34 42 29 7 2 7 16 24 45
42 41 64 120 138 99 54 53 59 113 118 115 112 114 116 102
92 80 75 65 56 38 33 25 16 18 18 16 15 7 8 1
3 4 1 5 40 90 85 78 74 85 77 56 25 1 0 0
0 0 0 0 0 0 0 0 9 24 36 36 39 43 45 44
44 44 44 44 43 43 44 43 43 42 42 42 43 42 41 42
42 41 42 41 39 40 41 42 33 2 12 40 39 28 30 38
33 31 39 40 39 38 37 37 41 28 3 0 0 0 0 14
57 45 11 0 1 4 11 33 44 27 0 0 0 6 19 35
19 24 39 100 119 74 79 122 118 123 106 106 100 89 103 115
109 84 68 40 39 33 31 33 20 11 13 9 9 7 0 0
1 9 7 0 37 92 85 78 80 92 80 63 22 0 0 0
0 0 0 0 0 0 0 0 5 9 14 13 23 43 45 44
44 44 43 43 43 43 43 43 43 42 42 42 43 42 42 42
42 41 42 41 39 39 41 42 35 3 11 40 40 27 28 37
31 35 48 48 48 46 45 44 46 29 8 1 0 0 5 27
57 33 0 0 0 0 1 35 45 29 0 0 0 3 17 31
1 6 9 36 77 93 106 101 87 62 74 77 63 36 44 77
118 105 73 65 27 26 28 30 20 15 13 8 2 5 0 0
2 3 6 33 70 98 89 81 89 97 87 69 33 0 0 0
0 1 1 0 2 0 0 0 1 3 10 10 20 44 45 45
44 45 44 44 43 43 43 43 43 42 42 41 41 42 42 42
42 41 42 42 39 40 42 41 37 3 11 38 37 25 26 37
31 36 50 51 50 51 51 52 52 31 8 2 0 0 3 18
53 21 0 0 0 0 0 33 44 28 0 0 0 1 15 32
1 12 17 4 7 49 47 42 23 20 30 31 22 12 12 21
63 102 68 51 34 17 18 37 28 14 13 4 2 0 0 2
4 6 15 57 93 105 97 87 91 102 98 80 47 1 0 0
0 1 3 5 4 4 1 0 0 4 10 10 20 43 46 45
45 44 44 43 43 43 43 43 43 42 43 42 43 43 43 43
42 42 42 41 39 38 40 39 35 4 10 35 36 27 28 39
38 39 46 47 48 49 50 50 55 31 1 0 0 3 11 10
51 18 0 0 0 0 0 33 43 27 0 0 0 0 10 35
2 5 7 1 5 47 46 20 5 5 8 17 8 10 10 7
18 81 88 49 33 27 17 18 21 19 10 8 2 0 0 0
6 15 29 77 97 108 101 91 91 105 104 92 63 8 0 0
0 0 3 5 9 6 1 1 0 2 11 9 18 42 46 45
45 45 44 44 43 42 42 42 41 41 40 40 40 42 42 42
42 42 42 42 40 39 38 39 38 6 6 36 38 27 26 35
47 45 45 45 46 46 45 39 52 42 7 0 0 2 7 4
48 15 0 0 0 0 0 33 43 25 0 0 0 0 3 37
4 9 10 3 4 46 43 4 0 5 8 25 39 24 25 20
18 66 76 57 38 21 24 17 5 6 7 7 6 1 0 0
5 12 34 92 104 107 102 92 92 106 109 98 76 21 0 0
0 3 3 3 6 3 7 1 0 0 9 9 14 41 45 44
42 42 42 42 40 40 41 42 42 42 41 41 43 41 41 41
41 41 41 39 37 37 39 38 37 6 3 33 38 28 26 35
46 46 46 46 45 46 44 39 50 46 13 0 0 4 11 6
47 14 0 0 0 0 0 27 44 29 3 0 0 0 3 39
6 1 3 1 3 44 32 0 7 24 32 43 50 60 94 87
38 32 52 45 37 19 10 14 9 4 5 1 0 3 1 0
4 13 43 86 107 109 103 96 91 105 112 105 87 40 1 0
0 0 1 1 1 3 2 6 0 0 6 19 18 35 41 42
42 43 42 41 35 30 29 30 36 41 40 40 41 41 40 40
40 40 40 39 37 37 39 38 37 9 2 31 37 28 25 35
44 44 44 44 44 44 45 41 49 42 1 0 0 0 2 5
47 15 0 0 0 0 0 22 46 28 1 0 0 0 1 39
10 0 1 0 2 41 33 0 21 62 56 62 90 99 119 82
48 13 17 24 16 6 7 5 7 7 3 4 1 1 0 0
1 15 42 93 111 109 105 98 92 104 113 110 93 56 4 5
1 0 0 1 0 0 1 0 0 0 6 16 17 33 43 43
43 42 42 38 4 0 0 0 19 42 40 40 41 40 40 40
40 40 40 39 36 35 38 38 37 11 1 29 37 30 25 35
14 14 15 16 21 36 43 42 45 37 0 0 0 0 0 1
44 19 0 0 0 0 0 18 47 27 2 0 0 0 1 38
16 0 0 0 5 39 37 5 7 31 38 71 94 114 108 80
49 15 8 7 11 10 3 4 2 6 0 2 0 0 0 0
1 24 48 104 114 111 104 97 92 102 112 113 97 71 15 4
17 4 0 0 0 10 23 3 1 3 10 10 12 34 42 42
42 42 42 39 4 0 0 0 15 41 41 40 40 41 40 40
40 39 39 39 37 36 38 39 38 14 0 28 38 30 24 34
0 0 0 0 5 40 45 42 42 37 3 2 1 2 14 5
41 30 11 9 13 11 11 27 50 36 34 32 31 35 38 52
24 6 5 5 8 39 37 16 1 2 43 74 94 99 80 67
42 14 8 5 3 5 3 5 5 0 1 1 0 0 0 1
9 46 81 111 119 113 105 95 92 101 114 116 106 83 38 1
20 19 2 0 0 11 29 10 8 10 10 10 11 34 43 43
42 42 42 37 2 0 0 0 7 41 41 41 41 40 40 40
40 40 40 40 37 36 38 39 38 16 0 27 39 31 24 34
0 0 0 0 4 42 47 42 39 50 44 38 35 39 43 39
44 51 57 53 54 55 56 58 56 37 47 51 53 59 65 66
48 37 36 35 36 41 37 32 8 0 45 56 43 35 40 52
38 12 9 1 0 1 1 0 1 0 1 2 0 0 0 14
33 75 106 112 121 114 106 97 91 101 112 115 110 93 61 5
20 25 18 0 0 4 31 12 9 10 9 9 11 33 42 42
41 41 41 36 3 0 0 0 4 41 42 41 42 41 41 40
41 40 40 40 38 37 39 39 40 19 0 24 39 32 24 32
0 0 0 0 2 40 47 42 38 55 57 49 50 52 48 41
38 47 64 61 60 60 63 64 60 38 42 49 53 59 65 64
49 38 39 38 39 38 38 34 25 3 24 26 0 1 15 40
28 6 5 1 0 0 1 0 0 0 0 1 0 0 9 34
51 92 112 124 126 118 105 99 92 95 107 117 115 103 77 16
28 36 35 2 2 2 28 12 8 9 9 9 11 34 43 43
28 16 22 16 0 0 2 0 3 41 42 41 41 41 41 41
41 40 40 40 39 36 38 39 39 20 0 22 39 32 24 32
0 0 0 0 0 38 48 42 38 55 50 44 47 50 50 41
33 36 45 46 46 45 45 44 46 37 33 39 43 43 40 39
40 40 40 40 40 39 39 37 34 19 5 8 0 0 2 25
15 4 2 3 1 0 0 0 0 0 0 0 3 8 33 56
76 103 119 132 131 120 107 102 96 92 105 117 118 109 87 28
40 34 26 14 0 4 31 12 10 10 10 10 12 34 43 40
4 0 1 0 0 0 2 0 3 40 42 42 41 41 40 41
41 40 40 41 39 37 39 40 39 23 0 19 40 34 23 31
0 0 0 0 0 34 49 41 36 53 35 38 39 42 48 42
35 33 28 30 31 32 32 31 36 38 40 42 44 42 38 35
38 40 41 40 40 39 40 37 34 21 4 3 0 0 0 7
7 2 0 2 0 0 0 0 0 0 0 0 0 13 59 79
99 116 127 138 134 124 112 104 100 90 101 116 117 111 93 33
36 25 19 27 5 10 34 12 9 9 10 10 11 34 44 41
6 0 0 0 0 0 0 0 2 39 42 41 42 41 40 41
41 40 41 41 39 37 38 40 39 25 0 16 40 34 24 31
0 0 0 0 0 31 49 42 40 53 18 13 15 18 22 21
25 35 35 39 39 47 47 43 44 47 48 53 55 53 42 39
38 40 41 41 41 40 40 38 35 28 5 0 0 0 0 2
3 4 0 0 0 0 1 0 0 0 0 0 4 35 79 86
107 126 136 140 136 125 110 106 104 95 100 118 118 112 92 20
21 21 19 16 21 30 36 13 9 10 11 10 9 32 44 42
20 0 0 0 0 0 0 0 2 39 43 42 42 42 41 42
41 41 41 41 39 37 40 40 40 27 0 14 38 33 23 29
0 0 0 0 0 26 49 41 44 57 13 0 0 0 0 6
21 38 44 56 50 61 65 34 26 28 29 34 45 57 45 41
40 40 41 40 40 39 38 38 37 30 3 0 0 0 2 6
2 6 0 2 0 0 0 0 0 0 0 2 20 59 88 97
121 133 141 143 137 124 109 108 108 100 96 113 118 113 75 14
34 23 21 14 16 37 39 19 17 17 12 16 18 34 43 43
35 10 0 0 0 0 0 0 1 13 40 42 41 42 42 41
41 42 41 41 40 38 40 43 42 30 0 12 38 33 26 30
0 0 0 0 0 23 49 40 46 61 17 0 0 0 0 0
21 37 40 54 37 40 52 13 0 0 0 0 22 56 47 41
41 40 40 40 40 40 39 39 37 28 4 0 0 1 1 5
6 4 0 0 0 0 0 0 0 0 0 3 37 74 96 109
126 136 140 141 135 123 112 110 112 106 98 106 114 104 43 25
40 26 25 20 19 33 42 39 40 39 33 39 40 42 42 30
49 10 0 0 0 0 0 0 0 1 39 44 44 42 42 43
42 41 41 41 40 38 38 40 39 30 0 8 34 30 23 29
0 0 0 0 0 18 48 40 43 58 23 0 0 0 0 0
19 37 37 52 17 3 31 14 0 0 0 0 14 53 47 41
40 40 41 40 39 39 38 39 38 32 4 0 0 2 1 7
2 2 0 0 0 0 0 0 0 0 0 2 37 74 103 121
129 135 140 141 137 125 114 109 114 111 102 99 109 73 33 30
45 28 27 25 22 28 42 43 44 44 43 43 43 42 30 3
1 12 10 0 0 0 0 0 0 0 37 42 42 42 41 41
41 41 42 41 41 38 38 40 40 32 1 5 30 28 23 27
0 0 0 0 0 16 48 41 38 28 4 0 0 0 0 0
23 36 38 52 16 2 29 17 0 0 0 0 9 50 47 40
40 40 40 40 39 39 39 39 39 34 5 1 0 1 0 2
0 1 0 0 0 0 0 0 0 0 0 2 34 74 108 125
132 136 139 143 140 127 113 109 115 118 111 101 88 43 35 28
44 28 27 28 23 23 35 35 40 37 35 33 33 21 1 0
0 7 6 0 0 0 0 0 0 0 37 43 43 43 42 41
41 42 42 42 41 39 38 40 40 33 1 4 28 26 24 27
0 0 0 0 0 12 46 41 36 21 0 0 0 0 0 0
25 36 38 53 17 2 26 21 0 0 0 0 4 48 47 40
40 40 40 39 39 39 38 39 39 37 11 1 0 0 0 1
0 0 0 0 0 0 0 0 0 0 0 0 20 67 106 124
133 137 140 145 142 130 113 108 118 122 117 103 56 32 28 23
37 27 27 29 20 27 32 17 19 21 12 2 0 0 17 19
8 10 1 0 0 0 0 0 0 0 29 40 43 42 43 42
43 43 43 43 43 40 39 40 39 33 2 2 26 26 24 28
0 0 0 0 0 10 47 41 36 23 0 0 0 0 1 0
21 36 38 53 16 3 24 22 0 0 0 0 4 45 47 39
39 40 40 39 39 39 39 38 39 39 29 3 0 0 0 0
0 0 0 0 0 0 0 0 0 1 0 1 17 65 112 126
132 138 142 144 144 129 111 108 118 128 120 101 35 29 18 33
29 24 25 23 18 25 30 19 15 16 16 18 16 10 30 34
32 30 8 0 0 0 0 0 0 0 0 13 17 16 39 44
44 44 44 45 44 41 39 40 38 32 3 2 26 27 25 28
0 0 0 0 0 8 46 41 36 23 0 0 0 0 4 0
18 39 38 53 21 4 22 26 4 0 1 2 3 43 47 39
39 39 40 40 39 39 38 38 39 39 37 25 4 0 0 0
0 0 0 0 0 0 0 0 3 14 19 13 23 67 107 122
131 135 140 144 142 128 111 108 119 126 125 100 28 23 24 37
27 24 24 23 18 21 61 16 16 16 18 17 20 23 25 25
24 15 9 9 9 9 10 10 10 10 9 8 6 6 39 46
47 47 48 49 48 46 45 45 40 36 5 1 30 34 33 36
0 0 0 0 0 7 46 41 37 25 0 7 0 0 13 6
15 41 39 54 32 11 20 27 7 8 7 1 3 41 47 39
40 39 39 38 38 39 39 38 38 39 39 39 26 7 0 0
0 0 0 0 0 0 0 3 15 32 43 46 55 85 105 119
127 132 137 140 140 127 112 108 121 129 129 82 29 20 26 43
25 25 23 22 18 22 55 14 15 14 17 23 26 24 25 24
24 26 27 25 22 20 19 17 16 14 12 11 11 15 52 63
63 64 64 65 64 62 58 55 51 46 8 0 30 18 13 12
0 0 0 0 0 5 44 42 36 29 4 9 2 2 17 20
16 45 40 53 31 23 19 23 3 13 10 0 1 36 45 39
40 39 39 39 39 39 39 37 38 37 36 39 32 22 6 0
0 0 0 0 0 0 0 6 21 44 80 89 90 100 105 114
121 126 133 139 140 129 113 109 124 135 117 55 32 29 76 27
0 7 21 22 16 23 44 12 13 12 16 20 28 27 27 24
26 26 26 21 23 22 10 10 40 45 48 53 57 61 65 66
66 67 67 67 66 64 59 54 52 48 10 0 31 2 0 0
0 0 0 0 0 5 43 41 36 37 35 39 40 40 45 46
46 53 41 53 23 30 20 31 20 24 22 18 19 33 38 38
39 39 39 38 38 38 38 38 38 36 29 23 18 21 9 0
0 0 2 2 2 3 4 29 54 83 105 106 109 104 106 109
115 120 128 138 139 128 113 113 131 133 89 55 55 67 14 1
0 0 4 22 17 20 38 11 11 13 15 19 25 26 29 29
28 25 27 25 23 63 32 31 50 59 63 62 62 62 64 63
64 64 63 61 63 58 53 50 49 48 13 0 24 0 0 0
0 0 0 0 0 4 43 41 35 38 58 60 61 61 62 62
63 62 45 52 13 18 21 37 31 32 31 31 30 30 34 38
39 39 39 38 39 38 38 38 33 19 14 22 24 22 15 15
15 13 16 16 15 13 9 65 88 105 115 119 120 114 109 108
113 114 125 139 139 125 118 115 127 117 76 47 23 16 3 0
0 0 0 18 52 16 38 9 12 13 15 17 24 27 27 27
26 21 24 24 25 26 44 44 31 27 36 49 47 53 55 54
58 52 51 41 49 46 38 43 49 48 15 0 16 0 0 0
0 0 0 0 0 3 41 41 35 33 56 59 59 58 58 57
56 55 46 50 13 5 14 37 33 36 36 35 35 35 37 37
38 38 38 38 37 37 37 28 13 10 16 23 23 19 21 23
19 19 19 19 15 16 14 46 93 107 118 126 128 123 118 113
111 112 120 137 137 126 116 102 94 87 64 40 15 15 0 0
0 0 0 0 50 20 22 9 10 14 13 13 25 27 26 25
28 22 23 22 22 23 23 35 65 38 37 21 32 39 39 39
51 39 38 33 31 35 32 41 47 47 17 0 10 0 0 0
0 0 0 0 0 3 40 40 34 27 28 27 26 27 26 25
25 23 29 49 14 3 12 38 36 38 38 38 38 38 37 38
38 39 38 38 38 35 24 13 13 13 16 17 20 19 25 21
26 20 21 23 19 19 22 18 84 104 117 126 131 128 126 120
112 110 117 135 139 127 93 57 64 76 35 25 23 35 1 0
0 0 0 0 39 25 47 13 10 14 15 17 24 21 26 25
22 23 22 20 20 20 24 33 58 39 39 20 19 23 32 37
48 46 44 42 44 44 40 41 46 47 19 0 4 0 0 0
0 0 0 0 0 2 39 40 33 28 23 21 20 20 20 20
21 19 26 48 16 1 9 37 35 38 38 38 39 37 37 38
38 38 42 40 36 26 18 11 13 12 12 18 21 20 29 31
7 0 22 20 19 20 22 21 46 100 115 125 131 132 132 124
115 107 116 134 138 118 61 46 60 53 23 16 37 45 16 4
0 0 0 4 37 29 66 31 29 24 14 17 22 23 26 24
24 23 22 20 16 17 20 31 54 40 35 18 19 18 21 26
40 46 47 46 43 43 42 41 43 45 20 0 0 0 0 0
0 0 0 0 0 2 39 40 33 32 28 26 25 23 23 22
22 20 29 51 30 29 36 42 33 37 37 37 37 37 37 37
37 38 40 45 35 56 29 11 11 12 14 19 14 28 19 1
0 0 10 27 22 24 25 24 26 89 110 122 129 133 133 124
116 104 110 130 138 96 46 46 58 48 64 59 42 22 6 18
0 0 1 31 43 32 64 33 26 29 36 50 44 41 61 70
38 25 22 19 29 48 42 49 106 85 92 25 18 20 19 23
26 28 43 45 45 45 41 41 43 42 21 0 0 0 0 0
0 0 0 1 1 6 42 41 32 32 30 28 28 29 28 27
26 22 29 51 42 53 56 45 33 36 37 36 37 36 37 36
31 27 29 38 60 25 27 18 14 11 16 17 15 25 1 0
0 0 0 13 28 34 29 25 27 58 103 118 128 133 133 124
119 107 104 128 135 76 46 47 85 44 35 36 39 10 8 11
2 0 1 23 26 20 17 11 17 35 43 45 52 79 77 66
72 71 80 67 45 43 43 69 110 72 93 38 35 25 21 32
36 22 23 32 32 35 31 29 32 30 21 0 0 0 0 0
22 24 27 27 28 30 36 35 32 31 30 28 29 28 28 28
28 22 25 34 30 33 37 34 34 36 38 37 36 36 35 23
32 34 24 26 27 25 22 11 19 13 13 11 14 14 0 0
0 4 15 0 7 22 38 41 63 72 76 112 125 133 134 127
123 111 99 123 110 62 49 39 38 45 15 10 4 13 21 19
14 1 0 22 26 15 13 9 12 18 37 66 70 70 68 85
74 51 48 45 49 62 68 86 145 106 98 60 36 39 40 41
48 58 25 23 30 29 23 25 27 32 26 0 0 0 0 0
33 34 34 34 33 32 32 32 33 31 31 30 29 28 28 28
27 24 26 29 31 28 31 33 34 35 36 36 33 30 24 28
45 42 22 22 23 25 18 12 17 17 15 8 13 13 0 0
13 28 21 1 5 15 36 30 89 65 61 75 115 131 133 134
131 115 96 112 93 62 46 20 15 11 11 6 7 26 25 19
17 12 2 23 20 22 12 10 15 19 20 22 26 43 39 26
29 47 64 54 39 21 19 39 78 59 37 21 35 53 44 47
60 53 58 36 31 32 32 36 38 41 32 0 0 0 0 0
33 33 33 34 33 33 33 33 32 31 32 31 30 30 28 28
27 25 27 29 32 30 33 33 34 35 33 27 25 20 23 46
58 31 22 19 18 23 11 13 16 15 31 23 18 8 0 1
46 20 33 5 18 29 20 22 33 65 67 64 83 102 129 137
135 118 94 99 88 60 31 21 13 12 9 7 26 28 23 21
21 22 16 32 18 41 11 12 21 22 21 21 21 23 24 23
25 23 24 20 17 16 17 39 68 33 21 18 18 18 19 18
25 57 61 50 38 20 39 41 43 47 37 0 0 0 0 0
32 31 30 29 28 27 27 28 29 31 31 32 31 31 30 29
29 26 27 30 33 32 32 33 34 29 21 19 18 21 24 52
59 25 25 21 19 23 14 13 15 15 35 43 33 8 31 56
87 15 6 5 12 7 4 3 3 7 6 2 46 84 89 119
133 118 90 90 89 48 14 15 13 10 7 24 29 28 24 22
22 22 25 64 12 46 25 16 21 22 23 20 22 22 23 22
25 23 22 20 15 16 18 45 79 32 20 17 17 18 21 15
16 25 28 55 42 18 25 39 40 47 42 1 0 0 0 0
7 5 5 15 23 24 24 31 31 31 31 31 31 30 31 29
28 26 27 29 34 33 33 33 30 18 18 20 22 22 29 56
65 19 22 34 53 29 19 15 15 24 53 42 25 14 44 37
45 15 10 17 14 12 13 12 7 5 9 6 1 21 75 87
105 107 87 84 64 20 21 8 13 12 24 34 31 29 26 22
23 23 33 96 18 45 31 19 24 22 23 23 25 26 25 26
29 26 24 21 19 18 21 48 76 44 25 18 18 16 20 14
19 23 21 21 27 14 14 36 42 48 44 1 0 0 0 0
11 0 0 12 24 28 28 30 31 31 31 31 31 31 30 30
30 28 28 30 33 34 33 31 19 13 18 20 22 23 50 93
130 47 32 60 65 63 78 72 59 33 12 22 18 3 51 36
41 16 12 19 23 21 22 22 25 22 13 17 11 3 16 66
62 56 84 63 17 25 11 10 11 23 36 33 28 29 28 24
22 25 40 95 39 69 20 24 24 22 23 23 26 28 27 27
28 26 25 24 19 18 23 55 73 44 26 21 22 23 19 13
21 22 24 21 15 12 13 25 42 48 44 2 0 0 0 0
41 7 4 12 21 27 28 29 30 30 31 31 31 30 30 30
29 28 29 30 33 34 33 23 22 17 40 49 52 50 91 102
102 39 40 74 65 42 52 47 38 27 11 18 18 13 65 43
52 18 14 19 26 25 25 26 27 27 26 13 23 16 6 20
74 28 43 24 22 16 7 14 24 32 33 31 29 33 29 24
25 26 48 101 48 81 20 26 23 24 27 26 25 27 29 28
29 25 23 24 20 19 24 55 72 49 29 21 26 22 20 15
24 25 28 25 14 10 13 12 40 48 45 2 0 0 0 0
56 28 17 20 19 24 26 27 28 30 31 30 31 31 31 31
31 31 32 32 33 32 24 22 23 44 47 43 39 44 115 105
86 51 34 25 38 66 75 72 47 26 18 27 28 18 81 41
50 17 16 19 27 26 26 29 29 28 29 22 16 24 14 11
16 38 21 18 24 9 20 21 34 34 32 31 31 29 27 24
25 26 49 98 44 64 23 23 25 25 24 24 22 25 28 27
32 27 27 23 20 19 24 59 74 55 32 17 24 21 21 15
23 26 30 21 10 7 14 6 29 51 45 3 0 0 0 0
60 42 25 24 21 24 27 29 31 37 35 34 35 35 35 34
35 35 34 33 33 30 22 42 68 49 35 47 39 26 72 55
37 21 23 25 21 23 22 19 22 28 28 19 19 25 86 45
59 21 21 20 28 31 29 29 31 30 27 26 21 20 18 7
8 22 15 35 10 16 24 22 37 31 31 30 32 28 26 28
25 24 52 84 48 60 21 22 23 25 24 27 22 26 28 27
31 28 26 26 23 21 27 63 73 56 30 18 25 21 19 20
27 26 34 20 9 7 12 5 12 49 45 3 0 0 0 0
39 31 25 25 24 23 21 20 20 39 36 34 36 36 36 36
36 36 36 34 33 32 57 60 48 54 19 17 21 22 58 55
26 22 24 25 20 24 16 16 25 30 29 24 19 28 91 45
61 20 20 20 25 31 34 30 32 30 30 29 26 18 12 7
19 16 34 40 23 23 27 24 30 28 31 30 30 28 26 26
22 23 58 79 54 50 21 20 23 24 26 28 25 23 26 28
31 27 28 28 25 21 25 68 69 64 33 19 24 19 21 23
29 28 32 14 7 7 11 6 11 35 45 3 0 0 0 0
31 22 14 14 15 15 15 14 16 36 39 33 33 34 35 35
34 35 34 33 33 23 51 77 47 17 16 18 21 23 59 53
23 22 24 23 21 23 12 20 28 29 28 27 21 27 96 50
68 21 23 20 28 30 32 30 30 30 33 31 29 20 8 15
16 13 24 47 23 19 19 17 28 28 28 28 28 25 24 27
22 22 58 64 58 50 19 21 24 26 25 25 24 25 28 31
29 26 29 26 25 21 23 63 67 67 26 17 22 20 20 25
28 31 32 27 4 9 8 26 44 26 37 4 0 0 0 0
32 22 13 14 14 14 14 14 15 34 38 30 28 29 29 30
30 30 32 32 19 15 34 26 23 19 16 22 23 25 61 42
26 25 23 22 22 23 14 21 30 29 27 22 21 27 96 49
70 21 22 21 26 29 31 30 31 31 33 34 28 18 7 14
10 2 35 47 21 20 16 27 29 30 29 28 26 23 21 22
22 21 55 58 52 35 19 18 21 22 22 24 25 25 22 28
28 26 27 23 22 22 25 71 76 68 22 14 22 17 20 27
27 33 32 47 1 8 22 40 18 15 25 4 0 0 0 0
32 23 12 12 12 12 12 11 12 30 38 30 26 27 27 27
27 27 27 26 12 16 18 24 24 21 16 23 24 27 63 36
24 25 19 24 24 22 17 23 29 27 27 26 23 28 100 49
71 21 23 21 24 28 29 29 29 29 29 30 26 16 11 16
6 2 15 29 18 16 13 24 26 26 26 25 24 24 20 23
19 21 76 56 57 30 19 19 21 22 24 24 25 24 24 25
25 26 26 24 22 21 24 56 58 50 17 15 23 16 19 26
27 31 37 20 3 36 26 17 44 37 14 1 0 0 0 0
32 24 13 15 18 21 24 21 14 24 39 30 26 27 26 26
26 26 25 24 9 17 18 27 25 23 14 24 25 27 66 36
26 23 20 24 29 20 22 25 29 27 26 24 22 27 102 47
77 22 25 22 24 26 28 27 32 31 31 28 24 13 14 11
24 11 5 22 17 17 11 22 25 26 27 26 24 22 21 18
18 22 68 42 56 30 21 19 20 21 24 22 22 22 21 24
26 25 26 22 23 21 23 58 59 49 15 19 21 15 16 27
29 35 64 34 20 34 14 41 29 9 6 1 0 0 0 0
