P2
128 120
157
53 52 51 50 49 49 47 46 46 45 43 43 42 41 41 39
39 38 37 37 35 35 34 34 33 32 31 30 29 28 28 28
27 26 26 10 0 0 0 0 0 0 0 0 0 0 0 7
12 9 3 0 0 0 0 0 0 0 0 0 0 0 4 0
0 0 0 0 0 0 1 1 0 0 0 0 0 0 0 1
2 6 10 17 23 26 26 26 27 27 28 28 29 28 30 30
31 32 33 33 35 36 37 37 37 38 40 40 41 42 42 42
42 43 44 45 46 48 46 48 49 48 49 50 51 50 50 51
52 52 51 50 48 49 48 47 46 45 45 44 43 42 40 40
40 38 37 37 36 35 34 34 33 32 32 32 30 29 28 28
27 27 26 22 8 0 0 0 0 0 0 3 7 8 2 17
22 19 16 11 4 1 0 0 0 0 0 0 0 0 5 0
0 0 0 0 0 0 0 0 0 0 0 0 1 5 10 15
21 25 26 26 26 27 28 28 29 29 30 31 31 32 33 33
34 35 35 36 37 38 38 39 40 41 41 42 42 43 44 46
46 47 48 48 48 49 49 50 50 50 50 51 51 52 53 52
52 52 51 50 49 48 47 46 46 45 44 43 42 42 41 40
39 39 38 37 37 36 35 35 34 33 32 31 30 30 29 28
28 27 26 25 20 13 7 1 0 4 11 15 18 15 5 19
23 20 19 18 16 12 6 1 0 0 0 0 0 0 0 0
0 0 0 0 0 0 0 0 1 1 4 10 17 23 25 26
26 27 27 28 29 30 30 31 32 32 32 33 34 34 35 36
37 38 38 40 40 41 42 42 41 42 44 44 45 46 47 47
48 49 50 50 50 50 50 51 51 52 51 52 53 52 52 52
53 52 52 51 50 49 48 47 47 46 45 44 43 42 42 41
40 39 37 37 37 36 36 34 34 33 33 32 31 30 29 29
28 27 27 26 23 18 15 14 11 14 19 22 24 18 7 19
25 21 20 20 18 17 15 12 5 0 0 0 0 0 0 0
0 0 0 0 0 1 3 8 14 19 23 25 25 26 27 28
29 29 30 30 31 32 33 33 34 34 34 35 37 37 38 39
40 41 41 41 41 42 43 44 45 45 46 46 48 49 49 49
49 50 51 51 51 51 51 51 51 51 52 52 53 53 53 53
53 52 51 51 50 49 48 47 47 46 45 45 43 43 43 42
40 39 39 38 37 37 36 35 34 33 33 32 32 30 29 29
29 28 27 26 24 21 17 15 18 21 24 24 24 20 10 19
27 26 24 22 20 19 18 16 13 9 7 1 0 0 2 4
0 0 1 3 11 17 21 24 25 25 26 27 29 29 30 30
30 32 32 33 33 34 34 35 36 37 37 38 38 39 40 40
41 41 42 42 44 45 45 46 48 47 47 48 49 49 49 50
50 51 51 51 51 51 52 52 51 52 52 53 52 52 53 52
53 52 52 51 50 50 48 47 46 46 46 45 44 44 43 42
41 40 39 38 37 37 36 35 35 34 34 33 32 31 30 30
29 29 27 27 25 22 19 18 18 22 24 25 25 23 15 22
31 29 26 25 24 21 19 18 14 14 11 10 11 16 18 18
6 9 17 22 24 25 25 26 27 28 28 29 30 31 31 32
33 35 34 35 36 36 37 37 38 38 39 39 39 40 41 42
43 44 44 45 46 46 47 47 48 48 48 49 50 50 50 50
51 51 52 51 52 52 51 52 52 52 52 52 53 53 52 53
53 53 52 51 50 49 49 48 47 47 46 45 44 43 43 42
42 41 40 39 38 38 37 36 36 34 34 33 32 32 31 31
30 29 28 28 26 24 22 21 19 22 25 27 28 25 19 25
34 30 28 26 26 24 23 20 17 16 15 14 19 22 20 20
18 23 24 25 27 28 28 29 30 30 31 32 32 33 33 33
34 35 36 36 37 38 38 39 39 39 40 40 42 42 44 44
45 45 46 46 47 48 48 48 49 50 49 49 50 49 50 50
50 51 51 50 51 51 52 51 52 52 52 52 52 53 53 52
54 53 52 51 51 50 50 49 48 47 46 45 45 43 43 42
42 41 40 39 38 38 38 37 36 35 35 34 33 33 32 32
31 30 30 29 28 25 23 22 21 25 28 29 32 28 19 24
35 32 29 27 26 25 24 23 20 19 17 14 18 22 22 20
24 26 27 28 30 30 30 30 31 31 33 33 33 34 35 35
36 37 37 38 38 38 38 39 40 40 42 42 43 44 45 46
46 47 46 48 48 48 49 49 49 50 50 50 50 51 50 51
51 51 51 51 52 51 51 52 51 51 52 52 52 53 53 53
53 52 52 51 51 50 49 49 48 47 47 45 45 44 43 43
41 41 40 39 39 38 37 36 36 35 35 34 33 33 32 32
31 30 30 29 28 27 25 24 23 28 31 33 34 30 19 23
36 32 30 29 27 27 25 23 21 23 21 16 16 23 20 22
25 27 28 29 31 31 32 32 33 33 34 35 35 35 36 36
36 37 37 37 38 39 40 40 43 43 43 43 45 45 46 46
46 47 47 48 49 49 49 49 50 51 50 50 50 51 51 51
51 51 52 51 52 51 52 52 52 52 52 52 53 51 50 51
53 53 53 52 51 50 49 49 48 47 46 46 46 44 44 43
42 41 41 40 39 39 38 37 36 36 35 34 34 33 33 32
32 31 30 30 29 28 26 25 25 30 33 35 35 31 21 22
36 34 31 30 29 27 26 24 23 25 23 18 15 24 22 25
27 29 30 31 31 33 33 33 34 34 35 35 36 35 37 36
37 38 39 40 41 42 41 42 44 45 44 44 44 45 46 46
47 48 48 48 48 49 49 50 50 51 49 50 51 51 51 50
51 51 52 51 52 53 53 52 50 50 51 51 51 52 52 52
53 53 52 51 50 50 49 49 48 48 46 45 45 44 43 43
42 41 40 39 39 38 38 37 37 36 36 35 34 34 32 32
32 31 30 30 30 29 28 27 27 31 34 36 36 31 23 21
37 33 31 31 30 28 27 25 25 25 24 20 16 24 24 27
29 30 31 32 32 33 34 34 35 35 35 35 36 36 37 38
39 39 40 40 41 41 42 42 44 45 44 45 45 46 47 47
47 48 48 48 49 49 49 49 50 51 50 51 51 51 51 51
51 51 51 51 50 50 50 51 52 52 52 52 52 53 52 51
54 53 52 52 51 50 49 49 48 47 47 46 45 44 44 43
43 42 41 40 39 39 38 37 36 36 36 35 34 34 33 33
32 32 32 31 30 29 29 29 29 33 36 36 37 32 23 20
37 35 33 31 31 29 28 26 26 26 25 23 17 24 26 28
31 31 32 33 34 35 35 35 35 35 36 36 38 37 38 38
39 40 40 41 42 43 43 43 44 46 45 45 46 45 46 47
47 47 48 48 49 50 50 50 50 53 50 51 51 51 51 50
49 49 51 52 52 52 52 53 52 52 52 53 52 52 52 52
53 52 52 51 50 50 49 48 48 47 47 46 45 45 44 43
43 42 41 40 40 39 38 37 37 37 37 35 35 34 33 33
33 32 32 31 31 30 30 30 31 34 37 38 38 34 25 21
37 36 32 32 31 31 29 27 27 27 26 24 19 25 27 30
32 33 33 33 33 34 35 36 36 37 37 37 38 39 39 40
40 40 41 41 42 42 43 43 44 46 46 46 46 47 48 47
48 48 48 49 49 49 49 50 50 51 49 49 49 49 50 51
52 52 51 52 52 52 52 52 52 51 52 52 52 52 52 52
53 52 52 51 50 50 48 48 48 47 46 46 44 44 44 44
43 42 41 40 40 39 39 38 37 36 36 35 35 35 34 33
33 32 32 32 31 31 30 30 31 34 37 37 38 34 25 20
37 36 32 33 32 31 30 31 29 27 27 26 20 25 27 31
32 33 33 34 34 36 37 36 37 37 38 38 38 39 39 40
40 41 42 42 42 43 44 44 45 46 45 45 46 46 48 47
48 47 49 49 49 49 48 47 48 48 49 51 51 50 50 51
51 51 50 51 51 51 52 52 52 52 52 51 52 52 51 51
52 52 52 51 51 50 49 48 48 48 47 46 45 45 44 44
43 42 41 40 40 40 39 38 38 37 37 37 36 35 35 34
34 33 33 32 32 31 31 31 32 36 38 39 39 34 27 21
35 36 33 32 32 31 31 30 30 28 28 27 23 27 29 32
33 34 35 35 36 37 37 37 37 38 39 38 39 40 40 40
41 41 42 42 43 43 44 44 45 46 46 46 47 47 48 48
47 45 48 48 48 48 50 50 51 50 50 51 50 51 51 50
50 52 52 52 52 52 52 51 52 52 52 52 52 52 52 52
53 53 52 51 51 50 50 48 48 47 46 46 45 45 44 44
43 43 43 41 40 40 40 39 38 37 36 36 36 35 35 34
34 33 33 33 32 32 31 32 33 37 39 39 40 35 28 23
35 37 33 32 33 32 32 30 30 29 29 27 26 29 31 33
34 35 34 36 37 37 38 38 38 39 40 39 39 40 40 41
41 42 42 42 43 44 44 45 45 46 46 46 46 47 46 46
48 48 48 49 50 50 51 50 50 50 51 51 51 50 51 51
51 51 51 51 52 51 52 52 53 52 52 52 51 52 51 51
53 52 52 51 51 49 49 49 48 48 47 47 46 45 45 44
43 43 42 42 41 40 40 39 39 38 38 37 37 36 36 35
35 35 34 33 33 32 31 31 33 37 40 40 40 36 29 22
32 37 33 32 34 33 32 32 32 30 30 29 26 30 32 35
35 36 36 36 37 37 38 38 38 39 40 40 40 41 41 42
42 43 43 44 44 44 45 44 45 46 45 44 45 46 48 49
49 51 49 49 50 50 51 50 50 50 50 52 52 51 52 51
52 52 52 53 52 52 52 52 53 52 52 52 52 52 51 51
53 53 52 52 51 50 49 49 49 48 47 47 46 46 45 44
44 43 43 42 41 41 40 40 39 38 38 38 37 36 36 35
35 34 34 33 33 32 33 33 35 38 41 41 40 36 30 17
26 37 35 35 35 34 33 33 32 31 31 30 26 32 34 36
36 36 37 38 37 39 39 39 39 40 41 41 41 41 42 41
42 43 43 44 44 44 43 43 43 45 47 48 48 48 48 49
49 51 50 50 50 50 51 51 51 51 51 51 52 51 51 51
51 51 52 52 52 52 52 52 53 52 53 51 52 51 51 51
53 52 51 51 50 51 50 50 49 48 48 47 46 47 46 45
44 43 43 41 41 41 40 40 39 39 38 38 38 37 37 36
36 35 35 35 34 33 33 33 35 38 41 42 41 38 28 22
31 39 36 36 36 34 34 34 34 32 33 31 29 33 35 36
38 37 37 38 38 39 39 39 39 40 41 41 41 42 43 43
44 43 43 42 43 43 45 46 46 46 47 48 48 49 49 50
50 52 51 51 51 51 51 51 51 51 51 51 52 52 53 52
52 52 52 52 52 52 53 53 52 52 52 51 52 51 52 52
53 52 52 51 51 51 51 50 49 49 48 48 46 46 46 45
44 44 43 43 42 42 41 41 40 39 39 38 38 37 37 36
36 35 35 34 34 33 34 34 35 39 42 42 42 38 30 29
30 40 37 36 36 35 35 35 33 32 32 32 29 34 35 38
37 38 38 39 38 39 40 40 41 41 41 42 42 41 42 42
41 42 44 44 44 45 46 47 48 48 48 49 49 49 50 50
50 51 51 51 51 51 51 51 52 51 51 51 52 51 52 52
52 52 52 52 52 53 53 52 53 53 53 53 53 52 51 51
53 53 52 51 51 50 50 50 49 49 49 48 47 47 46 46
45 45 44 43 43 42 41 41 40 39 39 38 39 38 37 37
37 36 35 35 34 34 34 34 35 39 42 42 41 38 30 31
30 40 38 37 36 36 36 35 35 34 33 33 29 35 37 38
39 39 38 39 40 40 40 40 39 40 38 38 40 38 34 35
41 43 43 45 45 46 46 47 47 48 48 49 49 49 50 50
51 52 52 51 51 51 52 52 51 52 52 52 52 52 52 52
53 52 53 53 54 54 53 53 53 51 51 51 51 52 52 53
53 52 52 52 51 51 50 49 50 49 48 48 47 47 46 45
45 44 44 43 42 43 42 41 41 40 40 39 39 38 38 37
37 36 35 35 35 34 34 35 36 39 43 43 42 39 30 32
30 40 38 37 37 36 36 36 36 34 34 33 30 36 37 39
39 38 38 36 33 32 35 37 35 35 36 32 30 31 26 22
28 33 35 42 44 45 45 47 48 48 49 48 49 49 50 50
51 51 51 51 51 52 52 52 52 52 52 51 52 52 52 52
52 52 52 53 52 52 52 51 52 53 53 53 53 53 52 52
54 53 53 52 52 51 51 50 49 49 48 48 48 48 47 46
45 45 44 44 43 43 43 42 41 41 40 40 39 39 39 38
38 37 36 36 36 35 35 35 37 40 43 43 43 40 32 34
30 40 39 38 37 37 36 36 37 35 34 35 31 36 37 40
39 39 39 37 35 31 26 21 17 18 23 22 23 27 22 20
13 22 32 36 45 44 47 47 48 47 48 49 49 50 50 51
51 52 52 52 53 52 52 52 53 52 52 52 53 52 53 52
51 52 51 53 52 53 53 52 52 52 52 52 52 52 52 52
53 53 52 52 52 51 50 50 50 49 48 48 48 47 47 46
46 45 44 44 43 44 42 42 42 41 40 40 40 39 38 37
36 36 36 36 35 35 35 35 37 40 44 44 44 40 31 34
30 39 39 38 38 37 37 37 37 35 35 34 31 35 35 39
38 39 39 38 31 18 14 15 12 9 13 16 16 18 22 10
12 14 25 23 35 42 44 47 48 48 49 50 50 50 50 51
51 51 52 51 52 52 53 53 53 51 52 51 52 53 52 53
53 53 52 51 51 52 52 52 53 53 52 52 53 52 52 52
53 53 53 52 52 52 50 50 49 49 49 48 48 48 47 46
46 46 45 45 44 43 43 43 42 41 40 40 40 40 39 39
38 37 37 37 36 36 35 36 37 40 44 44 44 41 32 35
33 39 40 39 39 38 37 38 38 36 35 35 30 37 36 39
39 39 37 27 18 20 19 13 6 4 5 11 11 10 13 7
10 11 13 19 16 30 32 40 46 48 49 49 49 50 51 51
51 52 53 52 52 52 52 51 52 51 51 52 52 52 52 52
51 52 52 52 52 52 52 51 52 52 52 52 52 51 52 51
54 53 52 52 51 51 51 50 50 50 49 48 48 47 47 47
46 46 45 44 44 43 43 43 42 42 41 41 40 40 39 38
38 37 37 37 37 36 36 37 38 41 45 45 44 41 31 35
34 38 40 39 39 38 38 38 38 36 36 36 32 38 38 39
36 31 29 19 13 12 13 15 12 2 4 5 7 5 6 4
5 7 6 12 8 17 15 23 34 45 49 50 50 51 52 51
50 50 51 51 50 51 51 53 53 53 51 52 53 52 52 53
52 52 52 53 52 51 52 51 52 53 52 52 52 52 52 52
54 53 53 52 52 51 51 50 50 50 49 49 48 48 48 48
47 46 46 45 44 44 44 43 43 42 41 41 41 40 40 39
39 38 38 38 37 37 37 37 38 41 45 45 44 42 33 36
36 38 41 40 40 39 38 38 39 36 37 36 32 38 38 34
22 19 16 10 8 7 11 12 12 7 1 2 3 2 6 2
3 1 3 6 6 12 11 14 23 29 47 50 50 50 49 50
51 51 52 52 53 53 53 53 53 54 54 53 52 52 53 52
52 53 53 52 52 52 52 53 53 53 53 53 53 52 53 52
53 52 53 52 51 51 51 50 50 50 50 50 49 48 47 47
47 47 46 45 45 45 44 44 43 42 42 41 41 41 40 39
39 38 38 37 37 37 37 37 39 42 45 44 46 43 32 36
38 36 40 40 40 39 38 38 39 37 37 37 33 39 36 33
24 13 6 1 6 8 5 6 10 7 0 2 2 1 2 6
2 1 3 3 4 7 7 7 19 16 37 49 50 51 52 52
52 52 52 52 52 52 53 53 53 53 53 52 52 53 53 52
52 53 53 53 53 53 52 51 52 53 53 52 53 53 52 52
54 53 52 52 52 51 51 51 50 50 49 49 48 48 48 48
47 46 46 46 45 45 44 44 43 42 42 41 41 41 41 40
40 39 38 38 37 38 37 38 39 42 46 45 46 43 33 37
40 35 41 41 41 40 39 38 39 37 37 37 32 38 36 26
16 9 8 6 3 3 4 2 6 4 0 0 4 3 1 4
1 1 3 6 8 8 6 17 16 19 23 47 51 52 52 52
52 52 53 53 54 53 53 53 53 53 54 53 52 51 52 52
52 52 52 52 53 52 52 52 52 52 53 52 52 52 52 53
53 53 52 52 52 52 52 51 50 50 50 49 49 49 48 48
47 47 46 45 45 44 43 44 44 43 43 42 42 42 41 40
40 40 39 38 38 38 38 39 40 43 47 47 47 44 34 37
42 34 41 41 40 40 39 37 38 37 37 36 33 37 28 17
13 8 3 6 5 1 2 0 1 1 1 0 1 0 1 1
0 1 7 3 5 8 7 14 19 19 21 40 50 52 52 53
52 53 53 53 53 53 52 52 53 53 54 52 53 53 53 53
52 53 53 53 53 52 52 52 52 53 52 53 53 52 52 52
54 53 53 52 52 51 52 51 51 51 50 50 49 49 48 48
48 47 46 46 45 45 45 44 43 43 43 42 42 41 41 40
40 39 39 39 39 38 37 38 39 42 47 47 46 43 33 37
44 34 43 41 41 40 40 38 38 37 37 37 32 29 11 6
5 8 7 3 2 5 8 2 0 0 0 0 0 0 1 1
0 0 3 4 5 6 8 9 18 16 25 32 45 52 52 52
52 53 52 52 52 53 53 53 53 53 55 52 53 53 52 53
53 52 53 53 53 53 53 53 53 53 53 53 53 53 51 50
53 53 53 52 52 51 51 51 50 51 51 50 49 49 49 48
48 47 46 46 45 45 45 44 44 44 43 42 42 42 42 41
40 40 40 39 39 39 38 39 39 43 47 47 47 44 34 37
46 34 42 42 42 41 40 38 39 38 38 37 31 14 8 7
4 4 4 1 1 0 0 0 0 0 0 0 0 0 0 0
0 0 0 2 1 1 6 6 11 20 26 28 41 52 52 53
53 53 53 52 52 53 53 53 52 53 54 52 52 53 53 53
53 53 52 53 53 53 54 52 53 51 52 50 48 48 48 49
54 53 52 52 52 52 52 51 51 50 50 49 48 48 48 47
47 47 47 46 46 45 45 45 45 44 43 42 42 42 41 41
40 40 40 39 39 39 38 40 40 43 48 48 47 44 34 37
47 34 42 43 42 41 40 39 40 37 36 36 17 5 4 2
4 9 7 3 5 0 0 0 0 0 0 0 0 0 0 0
0 0 0 0 0 0 0 4 8 19 24 32 37 50 52 53
52 52 52 53 53 52 53 53 53 52 54 53 53 53 53 52
53 52 54 53 51 52 51 51 52 51 53 54 52 53 52 52
54 53 53 53 52 52 51 51 50 51 50 50 50 49 48 48
47 47 46 46 45 45 45 45 45 44 43 43 43 42 42 42
42 41 40 40 39 40 40 40 41 43 49 48 48 46 35 38
48 35 41 43 42 41 40 40 39 38 37 28 6 2 3 4
5 7 4 10 10 1 3 0 2 2 4 3 3 3 1 1
0 0 0 0 0 0 0 1 2 14 21 29 35 42 50 52
53 53 53 53 53 54 53 54 53 54 55 54 54 54 53 52
52 52 52 51 52 53 54 53 53 52 51 52 52 52 51 50
54 53 53 53 53 52 52 51 51 51 50 50 49 49 49 49
48 48 47 46 46 46 45 45 45 44 44 43 43 42 42 42
42 41 40 40 40 40 40 40 42 44 49 49 48 46 34 38
49 37 40 43 43 42 42 41 41 36 32 9 2 0 0 0
0 3 4 8 2 2 1 7 14 23 22 19 19 14 10 4
2 0 0 0 0 0 0 0 1 15 25 32 37 43 51 52
53 52 53 53 53 54 54 54 54 54 52 50 50 52 51 51
53 54 54 55 52 51 52 52 52 52 51 51 52 52 51 50
54 53 53 52 52 52 52 51 51 51 50 50 50 50 49 49
49 48 48 47 46 46 46 45 45 45 44 43 44 43 43 42
42 42 41 41 40 40 40 40 41 43 49 49 49 46 35 37
49 41 40 44 43 42 42 40 40 37 15 0 0 0 0 1
1 5 7 9 12 4 6 15 24 29 41 41 42 41 38 30
22 13 4 0 0 0 0 0 6 18 24 27 37 40 51 53
53 53 53 53 53 52 51 51 52 52 52 53 53 53 53 52
52 54 54 55 52 52 52 52 52 52 51 52 51 52 51 49
35 50 54 53 53 52 52 52 51 51 51 50 50 49 49 48
48 48 48 48 47 47 47 46 46 45 45 44 44 43 43 43
42 42 41 41 41 41 40 42 42 44 49 49 48 45 35 37
49 42 38 44 43 42 42 41 40 25 5 0 0 0 1 6
6 7 10 9 8 8 12 22 32 51 65 64 63 50 45 37
33 33 24 10 1 0 0 0 2 11 16 29 40 42 51 53
53 52 52 51 51 52 54 53 54 54 54 53 53 52 53 53
52 53 52 54 52 52 51 53 54 53 51 52 51 51 51 49
27 49 54 53 53 52 53 52 51 52 52 51 51 50 50 50
49 49 48 47 47 46 46 46 45 45 45 45 44 44 44 43
43 42 43 42 41 41 41 41 42 45 49 49 48 46 35 38
51 45 36 44 44 43 42 41 37 13 1 0 0 0 1 0
0 3 8 13 8 6 16 33 56 65 71 77 81 76 68 58
47 38 29 27 19 6 0 0 0 5 19 32 43 42 49 52
52 53 54 53 53 53 53 53 53 53 52 53 52 53 53 53
53 54 53 53 52 52 52 51 54 52 51 51 51 51 50 50
26 47 54 53 53 53 52 51 51 53 52 51 51 51 50 49
49 48 48 47 47 47 47 46 48 54 52 47 46 44 43 42
42 42 42 42 42 41 41 42 43 45 50 49 48 47 35 38
50 45 34 44 44 43 43 40 33 4 0 0 2 4 5 2
3 10 14 11 7 13 28 53 77 82 86 87 93 93 91 77
74 67 54 37 31 28 9 0 3 13 24 29 38 42 45 48
51 52 53 53 52 52 52 52 52 53 52 52 53 53 53 53
52 53 52 53 52 51 52 52 52 51 52 51 50 50 50 50
26 46 53 52 52 52 51 57 62 58 57 54 52 50 48 49
49 48 48 47 47 46 46 46 54 64 61 55 53 51 46 43
43 42 42 41 40 40 40 40 42 43 48 48 48 47 35 37
50 48 33 44 44 43 43 40 20 0 0 0 0 2 2 2
3 9 6 3 4 15 35 62 80 91 92 96 96 96 96 91
87 80 77 66 57 48 32 11 4 11 13 22 35 41 49 48
47 51 52 53 52 52 52 52 52 52 52 52 51 51 51 51
51 52 51 53 51 51 51 51 51 52 51 50 50 49 49 49
28 48 54 53 52 52 51 60 66 64 62 58 56 55 54 50
49 48 47 46 46 46 45 46 54 61 59 55 57 56 52 43
42 42 42 41 41 41 40 40 41 43 48 49 48 45 34 35
47 47 31 42 43 43 41 35 4 0 0 0 0 4 7 6
6 10 10 5 9 27 44 68 85 91 97 98 100 100 101 100
99 95 96 85 75 63 53 35 11 10 8 21 35 44 49 48
47 49 51 52 51 51 50 51 50 50 51 51 50 51 51 52
52 51 50 51 51 50 51 50 50 51 50 49 50 49 49 49
28 52 56 55 53 51 51 60 67 64 60 58 60 62 63 55
57 55 51 47 46 46 45 45 50 49 51 51 54 56 53 43
42 42 42 41 41 41 40 40 41 42 48 49 47 42 32 27
31 48 31 41 43 42 39 23 0 0 0 0 0 0 5 6
6 14 12 6 18 34 57 81 92 100 103 104 108 106 105 104
104 103 103 98 90 80 69 55 33 12 11 19 35 41 46 44
43 47 51 51 50 50 51 51 51 50 50 49 50 49 50 50
51 50 50 50 50 50 50 50 48 49 49 49 49 48 48 48
28 54 58 54 55 55 54 58 41 48 57 61 65 66 63 47
42 51 54 55 53 53 51 48 48 30 24 25 29 35 43 44
42 42 41 41 40 40 40 40 42 43 48 48 47 38 27 28
34 48 31 39 43 42 39 18 0 0 0 0 0 2 8 10
10 10 6 16 29 46 73 88 95 104 104 107 108 107 109 108
108 105 106 104 101 101 92 80 60 26 11 21 42 45 48 49
46 42 50 51 50 50 50 50 50 49 50 50 50 50 50 50
51 51 51 51 50 49 50 49 49 49 49 49 49 48 47 46
29 53 59 48 49 55 61 61 7 1 19 38 43 48 57 31
1 5 13 26 35 44 52 52 49 28 12 17 16 5 16 46
42 42 42 41 41 40 40 40 42 43 49 49 48 45 35 35
47 50 34 37 44 42 39 20 0 0 0 0 0 0 1 8
5 8 16 29 46 70 83 91 97 105 107 109 109 110 112 111
110 108 107 105 106 105 103 95 81 46 21 37 43 44 47 49
49 43 50 52 52 51 50 49 50 50 50 50 50 50 49 50
52 51 52 51 50 51 50 50 49 49 48 47 47 48 49 49
27 44 55 57 56 57 65 65 9 0 7 19 22 22 42 30
0 0 0 0 2 3 9 24 49 26 5 6 9 4 13 48
43 42 42 42 41 41 41 41 43 44 50 49 49 47 36 36
49 50 36 35 43 41 39 11 0 0 0 0 0 3 2 1
5 12 26 42 54 73 87 96 98 106 109 110 112 112 113 112
112 111 109 105 107 105 108 99 91 67 41 33 40 43 48 49
49 44 51 51 51 50 49 50 50 50 50 50 51 50 50 51
51 51 50 49 47 48 49 48 49 49 50 49 50 49 49 49
24 6 9 19 33 48 59 62 11 0 5 12 15 17 40 34
2 0 0 0 0 0 0 9 50 20 0 0 5 2 14 49
43 43 43 43 42 42 42 43 44 45 50 50 49 47 37 38
49 51 39 33 44 43 35 2 0 0 0 0 0 1 0 0
10 30 35 53 69 90 92 99 106 112 113 116 117 118 117 116
114 115 114 108 105 103 109 103 95 80 55 37 45 42 48 50
50 45 51 51 51 50 50 51 51 51 51 51 51 52 52 51
51 50 50 51 51 51 50 49 49 50 50 49 51 49 49 49
22 2 0 0 0 1 6 27 13 0 1 4 1 9 34 32
0 0 0 0 1 0 0 8 49 10 0 0 0 2 15 51
43 43 43 43 42 42 43 43 44 45 50 51 50 48 37 37
49 50 41 31 43 41 27 0 0 0 0 0 0 0 0 4
8 17 35 57 75 86 94 102 111 114 114 117 119 120 120 119
118 117 116 113 106 104 104 104 96 85 66 47 42 49 49 51
49 46 51 50 51 51 50 50 51 51 51 51 52 52 52 52
51 51 51 50 51 50 50 50 49 49 50 50 51 50 50 50
23 1 0 0 0 0 0 14 12 0 0 0 0 3 37 31
0 0 0 9 14 2 0 6 49 9 0 0 0 1 14 52
44 43 43 43 43 42 43 43 44 45 51 51 49 48 38 38
49 49 43 30 38 34 5 0 0 0 0 0 0 4 7 4
4 15 36 62 78 87 98 110 115 117 117 117 118 123 122 124
122 119 121 119 113 108 105 103 99 88 73 57 49 48 50 49
46 48 50 51 51 53 53 52 51 51 51 51 51 52 51 51
50 50 51 50 50 51 51 51 50 51 52 51 52 51 50 51
23 2 0 0 0 0 0 12 11 0 0 0 0 3 40 35
0 0 0 14 22 14 7 5 48 7 0 0 0 0 11 53
44 44 44 43 43 42 43 43 44 45 50 50 50 49 37 37
49 50 43 28 27 24 1 0 0 0 0 0 0 5 5 6
13 23 40 63 75 87 101 110 116 118 121 118 121 123 124 127
126 124 126 125 120 112 107 102 99 91 78 65 49 49 49 46
47 50 51 52 52 51 51 51 50 49 50 52 52 51 52 52
51 52 52 51 52 52 52 52 52 52 52 50 51 48 47 46
23 2 0 0 15 5 0 11 10 2 1 0 0 3 37 38
0 0 3 17 23 22 18 6 47 9 0 0 0 0 8 52
44 44 43 43 43 43 43 44 45 45 51 51 51 49 37 37
49 50 45 30 23 6 0 0 0 0 0 0 0 1 3 6
20 32 51 65 71 82 102 115 122 122 124 121 123 126 128 129
129 128 130 133 129 120 110 105 102 96 83 73 55 49 49 50
51 50 50 51 51 51 51 51 51 49 50 53 52 52 53 52
52 53 52 52 52 50 51 51 52 51 48 48 47 46 45 42
23 3 13 11 11 3 0 10 11 2 0 0 0 9 38 41
0 1 2 14 21 20 18 5 46 15 1 0 0 0 6 53
44 43 44 44 43 43 43 44 45 45 51 51 51 48 37 38
49 50 43 30 23 8 0 0 0 0 0 0 1 9 13 14
30 42 49 60 62 89 105 115 125 128 127 123 124 127 130 130
131 132 134 134 132 124 113 107 104 97 89 79 61 51 52 51
50 51 51 51 51 51 51 51 50 50 50 52 53 52 53 52
53 52 50 48 48 48 50 48 47 42 37 32 29 25 23 21
24 8 14 2 7 5 0 11 12 0 0 0 0 14 42 46
3 3 6 1 10 18 18 3 47 51 41 30 22 16 22 54
44 44 44 44 43 43 44 44 46 46 51 52 51 47 37 39
48 49 44 30 19 8 0 0 0 1 0 0 7 18 14 29
40 47 52 52 78 95 108 116 125 130 131 127 129 130 131 132
133 135 135 135 133 126 116 109 104 100 93 83 68 52 52 51
51 51 51 51 51 51 51 51 50 50 51 52 50 49 49 48
49 46 42 39 35 30 27 24 22 21 22 22 23 24 25 25
24 8 4 0 0 2 1 15 38 21 15 14 4 2 37 66
47 40 34 23 12 10 11 4 47 60 57 56 57 61 64 61
44 44 44 43 43 43 44 43 45 45 51 52 50 46 40 39
49 46 43 26 11 6 0 0 0 2 2 0 3 3 23 37
43 42 42 64 85 102 110 117 127 134 135 133 131 132 132 133
135 134 131 130 128 123 116 111 105 102 93 86 70 52 51 51
50 51 50 50 49 48 51 49 49 47 48 46 42 38 33 29
26 24 23 22 22 23 24 25 26 27 28 29 29 31 30 31
24 3 0 0 0 0 0 18 70 63 54 55 51 42 54 64
31 33 38 41 42 41 42 44 61 55 55 56 58 65 67 62
44 44 43 43 43 43 43 44 45 46 51 52 51 43 40 40
47 43 37 12 16 3 0 28 80 93 29 2 5 0 4 8
21 36 41 63 90 103 112 120 131 133 135 136 134 133 131 134
134 135 132 128 124 122 114 109 107 104 95 88 69 52 48 47
47 49 48 47 45 42 39 36 32 29 27 26 24 24 24 25
27 28 28 29 28 22 32 32 33 35 35 35 36 36 24 36
24 5 0 0 0 0 0 18 72 60 63 67 71 69 63 55
24 22 23 23 23 22 24 28 33 29 34 41 48 51 50 51
44 44 43 44 43 43 43 44 45 46 50 51 50 41 38 39
46 38 23 18 12 0 16 84 71 92 65 5 0 1 0 1
0 0 7 28 66 101 113 122 129 130 135 134 136 135 134 135
135 137 137 133 125 122 117 110 104 104 96 86 69 51 50 43
37 34 31 29 27 25 26 26 27 28 28 29 31 31 33 33
34 35 36 37 37 16 37 39 39 40 36 36 41 28 36 43
28 41 40 28 17 9 4 21 62 53 64 68 72 72 59 46
26 24 22 20 19 17 16 16 15 15 18 19 36 43 39 39
43 44 43 44 44 43 43 44 45 46 50 51 49 36 34 40
42 23 17 20 7 0 72 106 97 96 73 65 18 18 8 4
18 11 3 0 0 6 32 72 113 135 137 133 134 132 131 131
128 131 135 139 134 125 119 115 109 108 98 85 70 43 47 38
21 25 28 29 29 31 32 33 35 36 36 37 38 40 40 41
41 34 34 42 43 28 31 43 44 44 29 40 40 30 45 45
30 57 68 67 63 59 54 57 54 46 60 64 69 70 62 52
30 24 21 18 17 17 16 16 16 17 18 19 38 26 29 43
43 44 43 43 43 43 43 44 45 45 50 50 46 33 31 37
21 17 22 19 12 9 119 119 103 108 87 103 74 38 26 27
25 20 34 49 49 23 2 0 1 23 65 107 128 116 110 99
96 109 120 133 139 132 123 116 111 108 100 85 72 41 38 33
26 33 36 37 38 40 41 42 41 42 43 42 43 44 44 44
44 44 39 36 46 41 21 46 47 44 27 42 29 40 42 47
29 56 70 68 67 67 68 70 42 12 21 30 39 47 46 52
32 23 19 9 8 9 16 20 19 18 22 24 42 38 36 52
50 48 25 26 44 43 43 44 45 43 49 50 46 28 19 12
8 24 19 27 13 34 125 109 110 131 84 91 88 72 41 31
20 27 59 94 101 98 88 59 22 1 0 0 10 28 49 35
50 63 80 108 128 128 125 120 113 110 103 91 76 44 44 39
32 40 42 44 44 44 45 46 45 45 45 46 46 47 46 46
48 48 48 40 37 44 21 40 47 43 27 32 37 43 44 48
29 49 63 63 64 67 68 69 35 1 0 0 3 15 25 52
31 20 15 1 0 0 8 14 11 6 14 16 38 55 49 48
50 52 44 39 44 44 44 44 33 28 46 48 47 31 8 9
24 20 19 18 6 50 126 101 127 146 123 87 94 77 45 24
15 35 68 103 120 126 123 107 99 74 35 8 0 25 26 4
5 16 23 40 70 113 122 123 117 112 107 96 80 47 38 34
35 44 45 45 47 48 48 48 49 49 48 48 48 47 48 47
48 48 48 48 39 38 36 24 46 39 30 26 47 43 44 46
36 41 45 48 51 50 56 63 28 0 0 0 2 2 17 55
28 19 15 2 0 4 1 0 1 0 2 5 34 55 41 36
36 38 43 46 43 43 43 44 26 25 44 48 48 35 15 21
29 28 18 20 4 51 114 104 144 145 136 90 86 71 42 19
22 38 67 108 124 136 141 130 99 74 65 57 46 16 3 0
0 0 0 3 6 43 101 120 116 110 110 98 83 47 18 13
31 46 49 50 49 48 48 49 49 49 48 49 49 49 48 47
47 48 48 48 49 38 34 15 24 20 23 37 46 41 45 44
32 33 33 37 46 44 52 63 25 0 0 0 3 1 6 55
23 12 2 0 0 14 10 4 1 0 0 1 32 57 40 29
44 41 39 43 44 44 44 43 37 33 45 49 49 38 13 32
40 34 26 23 4 46 106 130 134 116 74 72 83 55 36 15
12 39 73 114 126 142 149 146 117 77 66 65 62 28 2 2
0 0 0 0 0 1 35 101 115 110 108 94 76 40 16 10
25 45 49 50 49 49 49 50 49 49 51 51 50 49 48 48
47 47 47 48 49 46 36 14 1 3 32 42 44 41 45 41
32 33 37 41 47 47 55 61 26 0 0 0 0 0 8 56
8 0 0 0 1 9 19 11 3 0 0 0 32 58 41 22
38 34 36 42 44 44 44 44 42 37 46 49 50 48 24 26
40 43 31 29 5 34 105 129 110 117 120 126 78 41 25 9
15 48 82 115 128 142 149 147 137 102 70 60 49 24 5 1
0 0 0 0 0 0 2 58 107 103 96 61 29 7 12 8
23 45 49 50 50 50 49 49 49 50 49 50 50 49 48 48
48 46 48 48 48 46 46 31 0 7 41 43 37 38 42 44
31 15 8 15 22 31 40 47 25 0 0 0 0 0 9 56
9 0 0 0 2 9 23 19 16 1 0 0 30 57 42 21
28 27 33 42 44 43 44 45 44 38 45 50 50 50 32 25
44 43 39 32 12 41 113 122 118 140 137 103 79 44 18 3
19 50 97 118 132 140 149 149 146 117 70 61 44 14 5 0
0 0 0 0 0 0 0 23 99 84 44 5 0 2 3 1
25 44 48 50 49 48 49 49 49 49 49 49 49 49 48 48
48 47 45 45 46 45 47 42 3 11 44 41 34 34 42 46
37 12 0 0 0 0 0 8 21 0 0 0 0 0 10 54
6 0 0 0 6 24 26 22 20 1 0 3 30 59 46 34
30 23 31 40 44 44 44 44 43 37 45 50 50 51 38 26
39 43 46 37 15 43 118 119 131 144 131 99 102 64 18 11
25 63 103 124 135 140 145 145 145 109 75 74 41 7 4 0
0 0 0 0 0 0 0 6 84 45 2 0 0 0 0 0
0 23 49 50 49 49 49 49 49 50 49 49 49 49 48 48
48 48 47 45 47 47 47 43 6 10 45 44 34 33 45 46
35 14 0 0 1 0 0 5 20 0 0 12 8 1 8 52
4 0 0 0 4 21 30 13 8 0 0 4 27 58 48 34
18 7 21 39 44 44 44 45 43 36 45 49 50 49 42 32
36 45 46 35 24 36 123 130 121 143 111 95 103 78 36 19
27 62 111 119 136 140 142 142 140 101 78 81 27 4 3 0
0 0 0 0 0 0 0 1 18 6 0 0 0 0 0 0
0 23 49 50 49 49 49 49 49 49 48 49 49 48 48 48
48 48 47 44 45 47 47 44 8 7 44 47 36 33 45 47
35 14 0 1 11 2 0 4 20 0 5 26 19 3 9 51
3 0 0 0 2 2 22 4 0 0 1 0 21 58 48 28
13 8 18 38 44 44 44 44 42 35 46 50 49 49 44 38
36 48 46 38 32 28 124 134 131 123 106 105 92 70 35 24
31 56 98 117 137 140 139 141 138 98 81 78 9 2 0 0
0 0 0 0 0 0 10 5 2 0 0 0 0 0 0 0
1 39 50 50 50 49 49 48 48 48 49 48 48 49 49 48
48 48 47 45 46 48 48 46 10 6 42 46 33 31 44 46
33 13 0 9 27 13 3 3 24 1 14 26 22 8 8 48
2 5 0 0 0 0 23 8 0 0 0 0 15 56 44 15
10 0 16 37 44 45 45 44 42 38 48 50 50 49 44 37
40 49 45 36 15 7 100 136 140 123 119 69 75 66 30 16
25 55 79 110 131 137 137 140 137 101 85 72 3 2 0 0
0 0 0 0 0 7 24 63 56 0 0 0 0 0 0 0
10 50 49 50 50 49 49 48 49 49 49 49 49 49 48 48
49 48 47 46 45 41 44 43 12 5 31 34 26 29 42 46
32 14 0 15 29 15 6 3 46 42 47 47 44 38 35 52
2 0 0 0 0 0 21 9 0 1 0 0 10 55 39 12
10 2 26 36 43 44 44 44 40 41 48 50 50 48 39 37
38 44 44 15 0 2 48 124 121 128 139 104 75 51 21 20
27 48 77 107 127 133 138 141 139 107 90 68 1 1 0 0
0 0 0 3 14 19 49 128 105 10 0 0 0 0 0 0
24 50 49 50 50 49 50 49 49 49 49 49 49 48 49 48
48 48 47 44 44 40 32 36 13 3 35 45 37 33 42 46
30 16 0 6 9 6 2 2 51 57 62 62 61 66 70 59
13 10 9 1 0 4 25 13 4 5 1 0 7 48 37 9
2 5 15 34 43 44 45 44 38 42 48 50 50 44 38 38
29 36 23 0 0 0 8 91 129 141 136 104 86 44 21 28
38 49 54 94 125 136 134 139 139 114 93 77 3 0 0 0
0 1 19 20 19 28 108 131 112 22 0 0 0 0 0 1
40 50 49 49 50 49 48 49 49 49 49 48 47 48 49 48
47 47 47 46 44 45 46 45 17 3 33 43 37 31 38 41
32 28 15 3 6 3 0 2 50 57 60 60 60 69 74 68
44 42 41 34 30 31 35 27 22 18 18 14 20 42 41 18
15 17 8 25 43 44 44 43 36 43 48 50 49 42 43 35
33 38 4 0 0 0 0 28 125 142 132 105 84 47 22 23
33 40 52 81 118 128 127 136 140 130 94 85 21 0 0 0
0 17 30 33 29 83 140 131 119 40 0 0 0 0 0 8
47 48 48 47 49 49 49 48 48 47 48 49 48 48 48 48
47 46 46 45 45 45 46 45 22 2 31 43 37 30 39 43
33 33 11 1 4 1 0 2 47 49 54 54 55 60 59 58
49 50 49 47 47 48 46 43 40 35 33 32 34 46 52 37
34 28 23 26 41 44 44 42 37 45 49 50 48 42 43 35
38 26 0 0 0 0 0 0 73 137 138 117 91 48 17 14
27 29 52 70 104 123 125 132 137 138 117 87 61 5 0 0
2 34 35 27 69 140 141 133 126 61 0 0 0 0 0 29
48 47 47 47 49 49 48 47 47 48 47 47 48 48 47 47
47 46 46 45 44 45 45 45 25 3 28 46 39 29 38 44
37 29 4 0 3 0 0 2 50 50 50 51 51 50 45 46
50 52 53 52 50 49 49 48 48 52 49 45 43 50 60 57
57 55 51 44 42 44 43 42 37 43 48 50 48 44 44 35
39 15 0 0 0 0 0 0 10 93 126 104 58 42 12 11
22 28 44 62 95 122 125 126 133 133 134 125 91 58 15 2
9 23 22 74 138 145 138 133 134 89 0 0 0 0 7 45
48 47 48 49 49 48 48 49 48 48 48 47 47 47 47 47
47 46 46 44 43 44 45 44 27 3 25 45 39 28 37 43
33 35 33 28 22 18 13 11 53 53 50 50 50 51 51 53
55 53 57 61 61 51 48 49 52 62 60 55 55 54 48 42
40 41 41 41 42 43 42 42 38 43 49 50 48 44 44 35
36 7 0 0 0 0 0 0 0 29 77 53 27 30 16 11
14 22 32 48 87 115 120 129 135 125 131 137 140 127 104 82
70 85 122 141 144 138 130 130 132 114 9 0 0 1 32 49
48 47 48 48 48 47 48 47 48 47 47 46 47 46 46 46
46 46 46 45 43 44 45 44 29 3 22 44 39 30 37 43
34 44 64 66 61 62 65 63 68 57 52 52 52 53 57 61
60 55 58 66 64 51 47 43 51 64 60 57 57 55 50 41
34 32 32 34 42 43 44 42 36 44 49 50 47 44 45 36
33 4 0 0 0 0 0 0 0 19 71 70 15 7 12 10
15 19 28 45 73 108 118 128 126 123 128 137 143 147 142 139
140 143 144 137 122 120 120 125 128 119 36 0 0 11 47 48
48 47 47 47 47 47 47 47 47 47 46 46 46 46 45 45
45 44 45 44 42 42 45 45 32 3 20 44 39 29 35 42
35 46 73 73 73 73 73 73 72 57 47 45 45 46 53 62
63 56 56 55 54 53 48 42 43 50 45 44 50 52 51 48
41 39 40 41 43 45 44 40 37 45 49 50 48 44 44 37
34 3 0 0 0 0 0 0 0 14 67 58 1 2 8 14
20 19 30 42 64 101 105 114 122 117 127 135 142 146 144 143
140 134 132 119 118 118 120 130 135 124 70 0 9 42 48 47
47 47 46 47 47 48 47 46 46 46 46 46 46 46 46 46
46 45 45 44 42 43 45 45 34 3 18 43 40 29 34 43
36 38 52 53 55 58 61 63 66 40 11 11 6 8 15 33
63 55 38 17 23 27 26 37 45 30 7 3 7 18 25 46
44 43 47 51 54 52 45 40 38 46 49 50 48 43 45 39
35 4 0 0 0 0 0 0 0 11 62 59 2 1 5 20
25 18 29 37 63 81 82 96 108 103 111 122 132 136 140 142
135 129 122 124 137 133 129 143 146 139 99 39 42 46 47 47
47 48 47 46 46 47 47 47 47 46 46 46 47 46 45 46
45 44 45 45 43 43 46 45 36 5 16 44 42 31 34 42
35 34 42 42 41 40 41 40 44 29 2 0 0 0 0 16
61 48 12 0 1 4 13 35 47 29 1 0 0 7 22 38
21 25 29 31 39 54 46 39 40 46 49 50 48 43 46 38
35 7 0 0 0 0 0 0 0 11 57 59 2 2 12 17
22 18 23 40 64 65 83 84 101 115 117 126 120 132 139 139
130 131 119 130 135 127 113 117 133 132 99 19 26 46 48 48
48 48 48 47 47 47 47 46 47 45 46 45 47 47 46 46
46 46 46 47 44 44 46 45 39 5 15 44 43 31 32 42
34 37 51 52 51 50 49 47 49 31 9 1 0 0 5 29
60 35 1 0 0 0 2 37 49 32 0 0 0 3 19 33
1 5 8 2 9 52 48 39 41 46 48 50 48 43 45 36
34 8 0 0 0 0 0 0 0 10 54 53 5 8 11 12
15 19 18 30 55 55 63 73 94 97 116 112 111 121 131 131
128 138 120 105 76 56 64 64 104 113 61 12 25 48 49 49
49 47 48 47 47 47 46 46 47 46 46 45 46 47 46 46
45 45 46 46 44 44 45 45 40 6 15 43 41 29 31 42
34 39 54 54 54 54 55 55 56 34 9 3 0 0 4 20
57 24 0 0 0 0 0 35 47 31 0 0 0 2 18 36
2 14 18 4 6 51 49 38 43 47 49 51 49 44 43 37
36 12 0 0 3 3 0 0 0 11 48 58 10 5 4 8
19 26 24 23 42 38 42 64 69 78 107 101 105 114 132 135
136 139 134 123 126 118 93 79 75 67 19 12 24 48 50 50
50 49 49 48 47 47 47 47 47 47 47 46 46 46 47 47
47 46 47 45 44 43 44 43 39 7 13 40 40 30 32 43
39 40 48 51 52 53 53 55 58 34 1 0 0 4 12 12
54 19 0 0 0 0 0 37 46 28 0 0 0 0 11 37
2 5 8 1 6 51 49 39 44 47 50 51 49 46 41 35
36 17 0 1 9 2 0 0 0 15 45 57 15 3 3 8
14 14 19 23 33 27 35 48 56 74 89 97 95 119 138 128
129 124 112 90 91 89 79 52 90 59 13 13 22 46 50 49
50 48 47 47 47 46 46 46 46 46 45 44 44 46 47 47
46 46 46 45 43 43 43 44 41 8 10 41 42 31 31 40
45 45 46 46 47 48 47 41 55 45 8 0 0 3 9 6
53 16 0 0 0 0 0 36 46 27 0 0 0 0 4 40
4 10 11 3 4 49 48 37 44 46 49 50 49 47 40 34
36 20 0 0 7 0 0 0 0 16 44 51 16 0 0 5
10 10 20 24 38 38 34 33 50 59 77 96 92 115 98 83
90 81 58 31 24 26 50 32 68 38 11 13 18 45 49 48
47 47 46 45 45 44 45 45 46 46 45 46 46 46 46 45
45 45 44 44 43 42 44 43 42 10 7 37 42 32 29 40
43 44 45 45 47 46 46 41 53 49 14 0 0 5 12 7
50 15 0 0 0 0 0 30 48 32 4 0 0 0 3 42
6 2 3 1 3 47 48 38 44 46 49 49 49 48 41 32
35 21 0 0 1 0 0 0 0 18 49 52 19 0 0 5
10 10 13 23 34 36 25 25 38 48 74 108 105 80 41 32
39 22 14 9 8 7 20 19 27 15 14 21 22 40 46 46
47 47 47 46 40 32 32 34 40 45 44 44 45 45 44 43
44 44 44 43 41 41 42 42 41 11 5 35 41 32 29 39
41 42 43 44 45 46 46 42 51 45 1 0 0 0 2 5
50 16 0 0 0 0 0 24 48 29 1 0 0 0 1 42
11 0 2 0 3 43 45 37 43 45 48 49 48 47 42 30
34 27 0 0 0 0 0 0 0 18 52 62 27 0 0 3
4 8 11 20 23 21 16 24 29 52 68 108 80 34 22 17
15 10 7 12 15 11 11 6 5 6 12 17 19 36 46 47
47 46 46 43 6 0 0 0 22 46 44 44 44 44 43 43
44 44 44 43 41 39 42 42 41 13 3 32 41 32 28 38
11 12 14 15 20 36 44 43 49 40 0 0 0 0 0 2
48 20 0 0 0 0 0 21 50 29 2 0 0 0 2 40
17 0 0 0 5 42 43 38 43 45 48 49 46 42 40 29
33 36 3 0 6 2 0 0 0 22 53 65 39 5 1 2
2 6 5 10 16 18 15 22 28 52 62 94 45 18 14 16
24 23 38 50 58 56 35 1 0 6 10 12 15 38 46 46
46 45 45 42 5 0 0 0 18 45 44 45 44 44 44 43
44 44 43 42 40 39 41 42 41 16 2 31 42 33 28 38
0 0 0 0 4 39 45 43 44 39 3 2 1 2 15 5
42 33 11 10 14 12 12 28 53 37 35 33 32 36 39 54
26 6 5 4 9 40 41 36 42 44 47 46 42 44 43 31
31 40 14 1 4 1 0 0 0 24 53 63 54 12 0 0
1 4 8 6 11 10 15 22 23 29 61 86 55 22 64 80
69 64 56 46 57 71 36 1 0 5 7 11 13 37 46 45
44 44 44 41 4 0 0 0 7 44 45 44 43 43 43 44
43 43 43 43 40 39 41 42 42 19 1 29 42 34 27 36
0 0 0 0 3 40 46 43 41 53 47 40 37 41 46 42
45 53 59 56 56 58 59 61 60 40 50 55 57 62 68 69
50 39 37 36 37 43 39 35 41 43 45 43 44 45 42 33
29 41 19 0 0 0 0 0 0 30 56 60 71 22 1 0
0 0 5 5 7 3 9 11 16 23 51 62 32 53 96 120
116 101 102 79 60 36 3 0 0 1 9 12 13 35 46 45
44 45 44 40 4 1 0 0 4 43 45 44 45 44 44 44
43 43 43 43 40 39 41 41 41 20 1 27 42 35 26 36
0 0 0 0 1 39 47 43 39 57 59 51 53 55 50 42
40 49 67 65 63 62 66 66 63 40 44 51 55 62 67 67
52 40 40 40 40 40 39 36 38 42 42 44 46 45 43 34
30 43 30 0 0 0 0 0 0 38 55 58 69 32 1 0
0 0 0 0 1 3 4 5 13 30 29 26 24 47 86 105
108 103 98 82 74 47 10 0 0 3 8 11 13 36 46 45
31 18 24 18 1 0 2 0 4 44 45 44 44 44 44 43
44 42 42 43 41 39 41 42 42 23 1 24 42 35 26 35
0 0 0 0 0 36 48 43 39 58 53 46 50 53 52 43
35 38 47 48 48 47 48 47 49 39 35 41 44 46 41 40
42 41 42 42 40 39 40 39 38 39 41 46 46 45 43 31
31 41 42 8 0 0 0 0 5 48 57 58 67 53 6 0
0 0 0 0 0 0 2 7 12 14 14 8 14 34 76 73
58 59 43 29 33 28 8 1 0 7 11 12 13 37 47 42
4 0 1 0 0 0 3 0 3 43 45 45 45 44 44 44
45 43 43 43 42 40 41 42 41 25 1 22 42 36 26 34
0 0 0 0 0 34 48 41 38 55 37 40 40 44 50 44
38 35 31 33 33 34 34 34 38 40 41 45 46 44 40 36
40 41 42 41 42 41 41 40 40 43 45 48 46 44 40 29
34 39 44 26 2 0 2 4 8 50 58 57 69 69 34 5
1 0 0 0 0 1 1 3 9 10 2 3 11 25 60 49
21 14 4 10 15 12 0 1 1 8 11 13 13 36 47 44
6 0 0 0 0 0 1 0 2 43 45 44 44 44 43 43
44 42 44 44 42 40 42 42 42 28 0 19 43 38 27 34
0 0 0 0 0 29 48 41 41 56 20 14 16 19 24 23
26 37 36 41 41 49 50 45 46 49 50 56 58 56 45 41
41 42 42 42 42 42 41 40 41 43 46 48 46 40 37 35
37 33 28 29 32 6 0 8 13 54 58 55 69 72 56 22
1 0 2 0 0 0 0 0 0 1 1 1 10 25 48 33
6 1 0 1 9 2 0 0 1 7 11 11 11 35 47 46
22 0 0 0 0 0 0 0 2 42 45 45 44 45 44 44
44 45 44 43 42 40 42 42 43 29 0 17 41 37 26 33
0 0 0 0 0 25 48 41 46 59 13 0 0 0 1 6
22 39 46 59 52 65 68 35 26 29 31 35 47 59 47 42
41 42 42 42 42 41 41 40 40 43 45 48 44 35 32 34
37 30 24 28 44 6 0 13 10 55 59 55 71 81 67 37
4 0 0 1 0 0 0 0 0 0 5 4 9 20 24 13
6 0 0 0 1 2 0 0 2 12 13 19 20 37 47 46
37 10 0 0 0 0 0 0 2 15 44 45 45 45 44 44
44 44 44 44 42 40 42 46 45 33 0 14 41 37 28 33
0 0 0 0 0 20 48 40 46 64 18 0 0 0 0 0
23 40 42 57 39 42 53 14 0 0 0 1 22 58 49 42
42 41 42 41 41 41 40 40 39 41 44 47 41 27 7 17
38 30 26 22 36 26 0 2 8 58 60 53 70 86 82 56
10 1 0 0 0 0 0 0 0 0 1 1 5 9 13 15
3 0 0 1 0 1 3 0 13 28 34 42 43 45 46 33
53 12 0 0 0 0 0 0 0 2 42 46 46 46 45 46
45 44 44 45 44 41 41 42 42 33 0 10 36 33 26 31
0 0 0 0 0 17 48 40 44 61 24 0 0 0 0 0
21 39 39 54 16 3 33 15 0 0 0 0 15 55 49 42
42 42 42 41 41 41 41 40 41 42 45 45 38 27 8 16
37 29 29 22 42 37 2 0 13 61 58 54 68 85 89 69
21 9 0 1 0 1 0 0 0 3 0 2 3 7 8 6
5 0 1 1 5 5 1 1 21 41 46 47 47 45 32 3
2 13 12 0 0 0 0 0 0 1 41 45 45 45 45 44
44 44 44 44 44 41 41 43 43 35 1 8 34 32 26 30
0 0 0 0 0 14 47 40 38 29 4 0 0 0 0 0
24 39 39 54 16 2 30 19 0 0 0 0 9 52 49 42
42 42 42 41 41 40 40 40 40 41 44 43 37 34 27 30
37 29 31 40 27 15 4 0 13 59 55 45 67 86 94 85
48 20 7 0 0 0 0 1 0 0 0 0 5 5 6 9
11 6 6 0 5 1 0 1 21 39 38 35 35 24 2 0
0 8 8 0 0 0 0 0 0 0 39 46 46 46 45 45
44 45 45 45 45 42 40 43 43 35 2 5 30 29 26 30
0 0 0 0 0 11 46 41 37 22 0 0 0 0 0 0
26 37 40 54 16 1 28 21 0 0 0 0 5 50 49 41
42 42 41 41 41 40 40 40 40 41 42 43 36 28 26 31
36 29 30 22 18 21 17 0 11 60 56 53 66 89 95 89
75 51 24 2 0 0 0 0 0 0 0 0 0 1 4 0
5 2 0 1 0 0 0 4 8 4 2 1 1 0 20 20
9 10 1 0 0 0 0 0 0 0 31 43 46 46 45 45
45 45 45 46 46 43 41 43 42 35 2 4 29 28 26 30
0 0 0 0 0 9 45 40 37 23 0 0 0 0 1 0
23 37 39 54 16 3 25 23 0 0 0 0 3 47 49 41
41 42 41 40 41 40 40 39 39 40 43 44 39 28 22 25
28 24 26 27 23 24 28 5 4 56 57 56 64 88 99 97
88 74 52 15 0 0 0 0 0 0 0 0 0 0 0 0
2 0 0 0 0 0 0 9 20 10 4 22 18 1 30 37
34 32 9 0 0 0 0 0 0 0 0 14 19 18 40 46
47 47 47 48 47 45 42 43 40 34 3 2 28 30 27 31
0 0 0 0 0 8 45 41 36 26 0 0 0 0 4 0
19 39 39 54 21 4 22 26 4 0 1 2 3 45 49 41
41 41 41 41 41 40 40 39 39 40 42 44 41 33 31 31
30 29 21 27 26 24 33 18 0 42 57 59 62 92 106 101
87 83 75 55 14 3 0 0 0 0 0 0 0 0 0 0
0 0 0 0 0 2 5 13 18 16 15 21 22 10 15 19
23 17 11 10 10 10 11 10 11 11 10 10 8 9 42 50
50 50 50 52 52 49 47 46 43 38 5 2 33 37 35 39
0 0 0 0 0 6 44 40 36 26 0 7 0 0 14 7
16 41 40 55 32 11 20 27 7 8 7 1 2 42 48 40
41 41 41 40 40 40 39 39 39 40 40 43 41 35 36 35
35 28 23 28 26 26 26 21 7 18 55 62 59 88 115 113
92 84 78 72 53 19 0 0 0 0 0 0 0 0 0 0
0 0 1 0 1 3 6 14 16 15 11 15 14 13 16 21
28 31 29 26 24 22 20 18 17 16 13 13 12 16 55 67
67 67 67 68 68 65 61 58 55 49 9 1 33 20 15 13
0 0 0 0 0 5 43 40 36 31 4 10 2 3 18 21
17 46 41 55 32 24 19 25 4 14 11 0 1 38 46 40
41 41 41 40 40 40 39 39 39 39 38 42 41 36 38 37
37 23 27 27 25 25 28 24 16 5 50 69 60 80 114 126
113 92 81 74 56 32 10 4 1 0 0 0 0 0 0 0
0 0 0 2 6 7 15 18 15 13 12 15 16 14 10 17
19 22 25 23 13 8 6 9 42 48 52 56 61 65 69 70
70 71 71 71 70 67 62 56 55 51 11 0 34 2 0 0
0 0 0 0 0 4 42 40 35 37 35 41 42 42 46 48
49 56 43 55 23 31 21 32 19 24 22 19 19 34 39 39
40 40 40 40 39 40 39 39 39 37 36 40 40 36 40 39
37 22 28 28 25 27 23 23 19 9 43 73 63 70 107 126
130 114 94 81 54 34 26 26 19 7 1 0 0 0 0 0
0 0 6 21 15 17 17 17 13 13 8 11 11 16 20 26
23 25 25 26 20 10 7 24 68 68 66 66 65 65 67 66
67 67 67 64 66 62 56 53 53 51 14 0 27 0 0 0
0 0 0 0 0 3 41 40 34 40 60 63 64 64 64 63
65 64 46 53 13 18 21 38 33 34 33 32 31 31 34 38
39 39 39 38 38 39 39 39 38 38 36 39 39 35 40 40
32 23 29 28 30 25 25 23 19 18 33 78 67 65 99 125
132 129 121 102 73 45 42 45 51 45 21 6 2 0 0 0
0 2 22 21 9 8 15 30 14 10 10 12 7 11 21 25
25 26 23 25 23 25 52 35 47 53 57 58 50 55 58 57
62 55 53 42 50 49 39 44 51 50 17 0 17 0 0 0
0 0 0 0 0 2 39 40 34 34 58 62 61 60 60 60
58 57 49 52 13 5 14 39 34 37 37 36 36 36 37 39
39 39 39 38 39 39 38 38 38 37 36 38 38 36 36 29
23 30 32 19 3 5 32 22 20 22 21 76 73 62 91 121
133 131 123 113 101 81 76 81 85 76 60 45 37 32 8 0
7 31 61 3 0 0 0 34 40 8 10 11 8 7 22 26
26 23 20 22 22 25 21 43 38 27 29 35 42 41 41 40
54 40 39 35 33 37 35 44 50 50 18 0 11 0 0 0
0 0 0 0 0 2 38 39 33 28 29 30 28 27 27 26
26 23 29 50 13 2 12 39 37 40 39 40 39 39 38 38
38 38 38 38 38 38 38 37 37 37 36 38 35 25 23 27
30 19 8 3 0 0 24 28 24 22 23 58 84 64 81 114
132 131 123 118 115 112 114 120 123 118 103 99 114 88 33 18
39 33 1 0 0 0 0 13 45 5 11 10 7 8 19 24
24 25 18 19 18 19 20 21 44 35 46 21 27 40 47 39
51 48 46 45 46 46 42 42 47 49 20 0 5 0 0 0
0 0 0 0 0 2 37 39 33 28 24 21 21 21 21 21
22 20 27 51 18 1 9 39 36 39 39 39 39 39 39 38
38 38 38 39 38 37 38 37 37 35 35 32 18 15 20 23
23 7 6 0 0 0 1 24 37 35 25 42 85 73 75 106
128 133 125 118 118 124 128 134 136 134 123 120 114 74 33 27
14 6 3 0 0 0 0 13 45 16 14 12 11 9 10 24
23 21 21 16 14 15 17 18 52 27 45 18 19 17 29 41
49 48 49 48 46 46 44 43 45 47 23 0 1 0 0 0
0 0 0 0 0 2 38 39 33 33 30 28 27 25 25 24
23 21 29 53 31 30 37 45 35 39 40 38 38 38 39 39
38 38 37 37 38 37 37 38 39 35 28 18 18 17 16 22
21 7 2 0 0 0 0 5 17 33 37 42 49 72 75 102
126 134 124 117 122 129 132 138 141 135 115 94 77 64 27 24
9 17 11 0 0 0 2 17 35 18 27 19 13 11 16 26
25 23 23 19 13 28 35 29 95 71 108 24 16 19 19 22
33 46 48 48 47 48 43 44 45 45 22 0 0 0 0 0
0 0 0 0 1 6 42 41 34 33 32 31 30 30 29 29
28 23 31 54 45 56 58 47 34 39 39 38 38 38 38 38
38 38 38 37 38 38 43 49 38 30 20 13 16 15 18 21
18 8 1 0 0 0 0 4 5 30 45 78 51 42 71 97
121 131 121 119 125 133 135 141 141 120 82 68 71 29 18 3
12 20 20 4 0 1 22 18 23 24 33 29 45 48 51 87
89 57 41 44 37 41 42 53 114 63 103 34 25 21 17 21
26 25 34 33 35 37 34 32 35 32 23 0 0 0 0 0
20 23 25 26 28 30 37 36 34 34 33 32 31 31 31 31
29 23 26 36 32 36 39 36 36 39 39 39 38 38 39 38
38 38 38 37 38 35 32 34 31 38 21 17 16 17 20 25
13 6 0 0 1 5 0 4 9 37 23 46 101 82 52 87
120 132 123 119 124 135 142 143 130 90 72 73 43 36 15 4
8 4 4 4 15 17 22 17 6 7 15 41 48 48 56 46
60 59 51 55 34 41 63 70 136 102 101 43 35 38 40 34
46 40 22 28 33 32 27 28 30 35 29 0 0 0 0 0
31 31 33 33 34 33 33 34 34 34 35 33 32 31 31 31
30 26 29 31 33 31 35 35 37 39 39 39 38 39 38 38
38 38 38 34 32 27 20 22 29 18 18 20 19 17 19 24
10 1 0 0 15 22 2 14 46 39 33 26 26 40 68 56
101 134 126 120 126 142 144 138 108 68 29 68 28 2 5 11
9 9 14 18 39 20 22 16 6 8 16 20 39 59 78 52
43 54 65 64 53 31 16 31 81 35 32 20 33 48 40 51
52 46 41 22 34 41 36 41 42 46 35 0 0 0 0 0
31 32 33 33 34 34 34 34 33 34 35 34 34 33 32 31
30 27 29 32 35 33 35 36 37 38 39 39 39 38 39 38
38 37 32 25 37 38 19 17 17 16 16 23 25 19 22 21
21 11 19 65 34 52 22 24 27 34 31 7 6 8 19 73
66 125 124 121 132 140 138 112 78 27 23 13 5 4 14 16
20 20 22 23 64 19 20 23 6 17 22 20 21 24 24 22
23 24 23 22 18 15 15 31 69 31 20 18 17 19 18 17
39 66 57 48 32 33 48 45 47 51 40 0 0 0 0 0
30 30 29 30 30 29 29 30 31 34 35 35 34 34 33 32
31 28 29 33 36 35 35 36 36 37 38 38 37 38 37 35
31 24 22 30 57 26 21 18 15 11 13 23 24 18 27 29
32 42 53 96 27 13 21 31 20 12 8 8 11 4 3 15
72 94 121 121 132 135 122 90 37 25 16 8 3 15 22 24
23 22 23 26 87 22 26 33 10 21 23 24 21 22 22 18
22 22 24 21 16 13 15 44 82 37 21 18 19 19 22 15
18 24 37 54 42 19 33 43 44 51 45 1 0 0 0 0
6 5 5 16 24 26 26 32 32 33 34 33 33 33 33 33
32 29 30 33 36 36 35 36 36 37 38 37 37 37 31 21
20 20 23 38 51 20 25 20 15 11 14 25 21 25 51 39
39 80 75 67 11 10 18 17 19 20 17 10 11 19 6 3
18 79 103 118 129 115 96 49 25 17 10 5 17 28 29 25
23 24 23 32 92 29 37 34 18 25 24 23 23 26 24 21
26 28 25 22 18 17 19 46 83 38 21 20 20 20 20 14
20 21 20 25 32 17 16 40 46 52 48 2 0 0 0 0
11 0 1 14 25 30 30 32 33 33 33 33 33 32 32 32
31 30 30 32 36 37 36 35 35 37 37 37 37 32 16 20
20 22 21 49 52 17 29 44 38 11 16 25 18 36 73 43
10 38 35 41 12 11 20 22 22 22 22 24 14 15 22 8
10 30 96 99 108 94 59 24 16 12 6 20 35 29 28 28
24 21 26 42 101 38 54 27 23 23 23 25 25 29 27 23
25 27 25 24 19 16 20 53 80 40 20 19 23 23 20 15
21 21 23 20 15 15 13 29 45 51 48 2 0 0 0 0
41 8 5 13 23 29 31 31 32 33 33 33 32 32 32 32
32 31 32 32 35 36 36 35 35 36 36 36 34 17 13 28
21 22 26 74 78 43 42 55 47 45 79 84 50 37 24 16
17 58 41 46 15 11 20 25 25 24 26 26 25 12 18 22
13 11 52 76 45 45 21 16 7 9 21 34 32 28 32 28
23 22 24 54 86 50 57 20 22 22 25 26 23 26 27 25
27 27 24 23 20 18 21 48 77 43 20 20 24 22 18 17
22 24 27 21 12 13 12 14 44 51 48 3 0 0 0 0
56 28 17 20 20 26 29 30 32 33 34 33 34 33 33 33
34 34 34 34 35 35 36 34 35 35 36 35 24 16 20 46
52 50 71 119 62 41 50 65 70 40 51 56 38 23 19 15
16 68 40 47 16 14 21 26 27 28 28 27 27 24 14 20
18 17 11 46 26 13 18 7 16 23 35 32 31 30 30 26
22 24 25 58 88 48 41 23 22 24 25 26 23 23 26 25
26 27 26 24 18 18 22 58 82 42 18 19 24 20 18 20
24 27 31 16 7 12 13 8 33 54 49 3 0 0 0 0
60 41 25 25 21 25 28 31 33 39 36 36 37 37 37 37
37 37 37 36 35 35 36 35 35 34 34 24 23 30 45 57
41 37 72 55 22 26 22 22 34 58 75 52 23 25 22 16
17 76 45 54 20 20 22 28 32 30 32 30 27 27 23 15
21 14 11 21 16 20 9 15 22 34 35 29 29 30 28 24
26 24 24 61 71 58 36 22 20 22 25 27 26 22 26 25
27 26 27 27 23 19 23 60 73 45 18 20 22 23 18 23
26 28 28 13 6 11 13 6 14 53 49 4 0 0 0 0
40 32 26 25 24 24 23 21 21 40 39 37 39 38 38 38
38 38 37 35 35 35 35 35 35 35 32 26 53 50 39 18
22 21 50 30 21 23 23 24 25 24 24 20 21 24 24 16
20 83 48 52 20 19 21 26 31 31 32 31 30 31 27 23
13 14 19 14 36 25 25 23 23 30 27 29 28 28 26 24
26 21 22 67 60 59 26 20 22 22 25 25 23 23 26 25
28 23 27 24 23 19 25 68 68 47 16 22 20 28 21 26
25 32 23 12 6 11 10 7 8 35 48 4 0 0 0 0
33 23 15 16 16 16 16 16 18 39 40 35 36 36 37 38
37 37 37 36 34 34 34 35 35 34 27 54 59 45 18 17
19 21 46 27 22 25 25 23 24 24 23 20 23 25 25 20
19 84 55 59 21 20 22 29 30 31 31 31 32 31 28 20
8 18 11 7 49 27 21 23 15 25 28 29 28 27 23 22
24 21 21 66 46 71 21 19 19 20 20 23 24 24 23 26
29 22 26 24 20 21 23 64 61 46 11 21 20 25 22 28
29 33 46 18 4 13 8 17 32 26 41 5 0 0 0 0
34 24 15 14 16 15 16 16 17 37 41 33 30 32 32 33
33 33 34 34 33 34 35 35 35 32 27 48 44 16 18 21
21 24 47 26 26 27 26 24 27 25 25 22 26 27 24 20
20 82 54 62 20 20 21 25 29 29 31 32 29 31 25 16
13 17 3 3 41 23 19 21 21 26 27 27 26 25 24 21
23 21 22 76 42 52 18 20 19 20 21 24 23 24 22 25
25 21 23 23 20 19 22 58 56 34 12 23 20 23 23 27
28 30 24 22 5 14 29 42 31 16 23 4 0 0 0 0
34 25 14 14 14 13 13 13 13 31 40 32 29 29 29 30
28 29 29 29 29 30 34 34 34 28 16 19 25 17 17 24
24 28 46 23 24 24 26 25 28 29 28 21 25 26 25 22
19 80 55 65 22 22 20 25 28 26 30 30 29 28 22 14
15 11 17 0 12 19 15 14 20 24 26 25 24 23 23 20
21 19 25 78 32 53 18 19 19 19 20 22 21 20 20 23
25 23 22 22 22 20 23 55 51 37 13 22 19 20 24 24
33 43 56 3 16 44 25 15 30 38 18 2 0 0 0 0
35 26 15 17 19 22 26 23 15 26 41 33 28 29 28 28
28 28 27 27 27 28 33 35 33 15 16 17 25 17 19 23
25 30 41 25 24 25 26 30 30 31 30 23 26 25 23 24
21 80 51 69 21 21 21 25 27 27 30 30 28 27 17 14
18 12 54 19 30 18 17 11 21 24 24 26 25 24 21 20
17 18 26 73 31 62 17 17 18 18 21 22 22 22 22 21
22 23 23 20 21 20 23 62 39 27 11 20 18 19 23 25
31 24 70 15 41 21 31 40 34 16 9 3 0 0 0 0
