P2
128 120
156
51 50 49 48 47 47 46 45 44 43 42 41 41 40 39 38
37 36 35 35 34 33 33 33 32 31 30 29 29 27 27 27
26 25 25 10 0 0 0 0 0 0 0 0 0 0 0 7
12 8 3 0 0 0 0 0 0 0 0 0 0 0 4 0
0 0 0 0 0 0 0 0 0 0 0 0 0 0 0 1
1 3 9 15 20 24 24 24 25 25 26 26 27 28 29 29
30 29 31 31 32 33 34 35 35 36 37 38 39 40 40 40
41 41 42 42 44 45 45 46 47 46 47 48 48 49 49 48
50 49 49 47 47 46 46 45 44 42 42 41 40 40 39 38
37 37 36 35 34 33 33 32 31 31 30 29 29 28 28 27
26 26 26 21 8 1 0 0 0 0 0 2 8 8 2 16
21 18 16 11 4 0 0 0 0 0 0 0 0 0 4 0
0 0 0 0 0 0 0 0 0 0 0 0 0 3 8 13
18 23 24 24 25 25 26 26 27 27 28 29 29 30 31 32
32 33 34 34 36 37 37 38 38 39 39 40 39 40 41 43
43 44 46 46 46 47 47 48 48 49 48 49 49 49 50 50
50 50 49 48 48 47 47 45 45 43 42 42 41 40 39 39
38 36 36 35 34 34 34 33 33 32 31 31 30 29 28 28
27 26 25 24 19 13 7 1 0 4 11 16 19 16 4 18
23 20 18 17 16 12 5 0 0 0 0 0 0 0 0 0
0 0 0 0 0 0 0 0 0 1 3 9 15 21 23 24
24 25 25 26 27 28 28 29 30 30 31 32 32 33 34 34
35 36 36 37 38 39 39 40 40 41 41 43 43 45 45 45
47 47 47 47 48 48 48 49 49 50 49 50 50 50 51 51
51 50 50 49 48 47 46 45 44 44 43 42 41 41 40 39
39 37 37 36 35 35 34 33 32 32 31 31 30 29 28 28
28 27 26 25 22 17 15 14 11 14 19 21 23 18 7 19
24 21 20 19 18 17 14 11 4 0 0 0 0 0 0 0
0 0 0 0 0 0 2 7 13 17 21 23 24 24 25 26
26 27 28 28 29 30 30 31 32 32 33 33 35 35 35 36
38 39 39 39 40 40 41 42 43 43 44 44 46 47 46 47
47 48 49 48 49 49 50 50 50 49 50 50 51 50 50 50
51 50 49 48 48 47 46 45 45 44 43 42 42 41 40 40
39 38 38 36 36 35 34 33 33 33 32 31 31 30 29 29
28 27 26 26 23 20 16 16 17 21 23 24 24 20 10 19
26 26 23 20 19 18 17 15 12 10 7 0 0 0 1 3
0 0 0 3 9 15 20 22 23 23 24 25 26 27 28 28
28 29 29 30 31 31 32 33 34 34 34 35 36 37 38 37
38 39 40 41 42 43 43 44 45 44 45 46 47 48 48 48
48 48 49 49 49 49 49 49 48 50 50 50 50 50 51 50
51 51 50 48 48 47 46 46 45 44 43 43 42 41 41 41
40 39 38 37 36 36 36 34 33 33 33 32 31 30 29 29
28 28 27 26 25 23 20 18 17 22 24 24 25 22 14 21
31 28 26 25 23 20 19 17 13 13 10 10 10 15 17 17
6 7 16 21 23 24 24 24 25 26 26 27 27 28 29 30
29 32 32 32 32 33 34 34 35 36 37 37 37 37 38 40
41 42 42 43 44 45 45 45 46 46 47 47 47 48 48 48
49 48 48 48 49 49 49 49 50 50 50 50 51 50 50 50
51 50 50 49 48 48 47 46 46 45 44 43 43 41 41 40
39 38 38 37 37 36 36 34 34 33 33 32 31 31 30 30
29 28 28 27 26 24 22 20 19 23 25 27 29 26 20 24
33 29 26 25 24 23 21 18 16 15 14 13 18 22 20 19
17 22 23 24 25 26 26 27 27 28 28 29 30 31 31 32
32 33 33 34 35 35 35 36 36 37 37 38 39 40 41 42
43 44 44 44 45 46 46 46 47 48 47 48 48 48 49 48
48 49 48 49 49 49 49 49 49 49 50 50 50 50 51 51
51 50 50 50 48 48 47 46 46 45 44 43 43 42 41 41
40 40 39 38 37 37 36 35 35 34 33 32 31 31 30 30
29 29 29 28 27 25 24 22 22 25 28 30 31 28 19 24
34 31 28 27 26 24 24 22 19 18 16 14 17 21 21 19
22 24 26 27 27 29 28 29 29 30 31 31 31 31 33 33
33 35 35 35 35 35 36 36 38 39 39 40 41 42 42 43
44 44 45 45 46 46 47 47 48 49 48 48 48 48 49 49
48 49 49 49 50 50 50 50 49 50 50 51 51 50 51 51
51 51 50 50 49 48 47 47 46 45 44 44 44 42 42 41
40 39 39 38 37 37 36 35 35 34 34 33 33 32 31 31
30 30 29 29 28 26 25 23 24 28 31 32 34 29 19 22
36 32 29 28 26 26 24 23 21 23 21 16 16 22 20 22
24 26 27 28 29 29 30 30 31 31 32 32 33 33 34 34
35 35 36 36 36 36 37 38 40 41 40 41 42 43 44 44
44 45 45 46 47 47 47 47 47 48 47 48 49 49 49 49
49 49 49 49 50 50 50 50 49 49 50 51 50 49 48 49
52 51 51 50 49 48 47 47 46 45 44 44 43 42 42 41
40 40 39 39 38 38 37 36 35 35 34 33 33 32 32 31
31 31 30 30 28 27 26 25 25 29 33 34 34 30 21 22
36 32 30 30 28 26 25 24 22 24 23 18 15 23 21 24
26 27 28 30 31 32 31 32 33 33 33 33 33 33 34 34
35 35 36 37 38 39 39 40 41 43 42 42 43 43 44 44
45 45 46 46 47 47 48 48 48 49 48 48 48 48 48 48
49 50 50 50 50 50 50 49 49 49 49 49 50 50 51 51
51 51 50 50 49 48 47 47 46 46 45 44 44 43 42 41
41 40 39 38 37 38 36 36 36 35 35 34 34 33 32 32
32 32 31 30 29 28 28 27 26 31 35 35 36 32 22 22
37 33 31 29 29 28 27 25 23 24 24 20 15 23 24 26
28 30 30 31 31 32 32 33 33 34 34 34 34 35 35 36
37 37 37 38 39 39 40 40 41 43 42 43 43 44 44 45
45 46 46 46 48 47 47 47 48 49 47 48 49 49 50 50
49 50 50 50 49 48 49 50 50 50 50 50 50 51 50 50
51 51 51 50 48 49 48 47 47 46 45 45 43 43 42 41
41 40 40 38 39 38 38 37 36 36 35 34 34 33 32 32
32 32 31 30 30 29 29 29 30 33 36 37 36 32 23 21
37 34 32 31 30 29 28 26 26 25 24 22 17 23 24 27
30 30 31 32 33 33 34 34 34 34 35 35 36 36 36 36
36 38 38 39 40 40 41 41 42 44 43 44 44 45 45 45
45 45 46 46 47 48 48 48 48 50 49 49 49 49 49 49
48 48 49 50 51 51 51 51 51 50 50 51 50 50 50 50
52 50 50 50 49 48 47 46 46 46 45 45 45 43 43 42
41 41 40 39 38 38 37 37 36 36 36 35 34 34 33 33
32 32 31 30 30 30 29 30 30 34 36 37 37 33 25 21
38 36 33 32 31 30 29 27 26 25 25 23 19 24 26 30
31 32 33 32 32 33 34 34 34 34 36 36 36 37 38 38
38 39 39 39 39 41 41 41 41 44 43 43 44 45 45 46
46 46 47 47 48 47 48 48 48 50 47 47 47 47 49 50
50 50 49 50 50 51 50 50 51 50 50 50 50 50 49 50
52 51 51 50 49 49 48 47 47 46 46 45 44 43 42 42
42 41 40 40 39 38 38 37 37 37 36 36 35 34 34 34
32 32 32 32 31 31 31 31 32 35 38 38 38 33 26 21
37 35 32 32 32 30 29 30 29 27 26 25 20 26 28 31
32 32 33 34 34 35 35 36 36 36 37 36 37 38 38 38
38 39 40 39 40 41 42 42 43 45 44 44 45 45 46 46
46 46 47 47 48 48 47 47 47 47 49 49 50 50 49 49
49 50 49 50 50 49 50 50 50 50 50 50 50 51 50 50
52 51 51 49 49 49 48 47 47 46 46 45 44 44 43 43
41 41 40 40 39 39 38 38 37 36 36 35 35 34 35 33
33 33 32 32 31 31 31 31 32 35 38 38 39 35 28 22
36 36 33 32 32 31 30 29 28 27 27 26 23 27 28 32
33 34 34 34 35 35 36 35 36 36 37 37 38 38 38 39
39 39 40 40 41 41 42 42 43 44 43 44 45 45 46 47
45 43 46 46 46 48 48 49 49 49 49 49 49 50 49 49
50 50 50 50 51 51 50 50 50 50 50 50 50 50 51 50
51 50 50 50 49 48 49 48 47 46 45 45 44 44 43 43
42 41 41 40 39 39 39 39 38 37 36 36 36 34 34 34
33 32 33 33 32 32 32 32 33 37 39 39 39 36 28 23
35 36 33 31 32 31 31 30 29 28 29 27 26 29 31 33
34 34 35 36 36 35 36 36 37 37 37 38 38 38 39 40
40 40 40 40 41 42 42 43 43 45 45 45 45 45 44 44
47 46 47 47 48 48 48 48 49 49 49 49 50 50 50 49
50 50 50 50 50 50 51 50 51 50 51 50 50 51 51 50
52 51 50 49 49 48 48 47 46 46 46 45 45 44 44 43
43 42 41 40 40 40 39 38 37 37 37 36 36 35 35 35
35 34 33 33 32 31 31 32 33 37 40 40 40 36 29 22
32 37 33 32 33 32 31 31 30 29 29 28 25 29 32 35
35 35 35 36 36 36 36 37 37 37 38 38 38 39 39 39
40 40 41 41 42 43 43 43 44 43 42 42 42 44 45 47
47 48 48 48 48 48 50 48 48 48 48 49 49 49 49 49
50 50 49 50 50 51 51 51 51 50 51 51 50 50 50 50
51 50 51 50 49 49 48 47 47 47 46 45 44 43 44 43
42 41 41 40 40 40 39 39 39 38 37 36 37 36 35 35
34 34 33 33 33 32 32 33 34 37 40 40 40 36 30 17
26 36 34 34 33 33 32 32 31 30 30 30 27 32 33 35
36 35 36 36 36 37 37 37 37 38 39 39 39 39 40 39
40 40 41 41 42 42 41 40 41 42 44 45 46 46 47 47
48 49 48 48 48 48 49 49 49 49 49 49 49 50 50 49
49 49 49 50 50 50 50 51 50 49 50 50 50 49 49 49
52 51 51 50 49 48 48 47 47 47 46 45 45 45 44 44
43 43 42 41 40 40 40 39 38 37 37 37 37 36 36 35
34 34 34 34 33 33 32 33 35 38 41 41 41 37 28 22
31 38 36 35 35 33 33 33 32 31 31 29 27 32 34 35
36 36 37 37 37 37 38 39 38 38 39 39 39 40 40 41
40 41 41 41 41 41 42 43 45 45 45 45 46 46 46 47
47 49 49 49 49 49 49 49 49 49 49 49 49 49 50 50
49 49 50 50 50 51 51 51 50 50 51 50 50 50 50 49
51 50 49 49 49 48 49 48 47 47 48 46 46 45 44 44
44 43 42 41 41 40 40 39 38 38 38 38 38 36 36 36
35 34 34 33 34 33 32 33 34 38 41 41 41 37 28 29
29 38 36 36 35 34 33 34 32 32 32 32 28 34 34 36
36 36 37 37 37 37 38 38 38 38 40 39 40 40 40 41
41 41 42 42 42 43 43 43 44 45 45 46 47 47 47 48
48 49 49 49 49 49 49 48 49 49 49 49 50 49 50 50
50 50 50 50 50 50 50 50 51 50 50 51 51 50 48 48
51 50 50 49 49 48 48 48 47 47 46 45 45 45 44 44
43 43 42 41 41 41 40 40 39 38 37 37 37 37 36 35
35 34 35 34 33 33 32 33 34 38 40 39 39 33 26 27
26 34 34 34 33 33 33 33 33 31 32 31 28 34 35 37
37 37 38 38 38 38 38 38 38 38 38 38 39 39 40 41
41 41 42 42 43 43 44 44 45 45 46 46 47 47 47 48
48 49 49 48 49 48 49 49 49 49 49 49 49 49 49 49
50 49 51 50 51 51 51 51 51 49 49 50 49 50 50 51
51 51 50 50 49 49 49 48 48 47 47 46 46 45 44 44
44 42 42 41 41 40 40 39 39 39 38 38 38 38 37 36
36 35 34 34 34 34 33 33 35 36 37 35 28 22 22 26
25 28 25 25 28 31 29 30 33 33 32 32 29 35 35 38
38 38 38 38 38 38 39 37 37 38 39 39 41 41 42 42
42 42 43 43 43 43 44 44 45 45 46 46 46 47 48 48
48 49 49 49 49 49 50 50 49 50 50 49 50 50 50 50
50 50 50 50 50 49 49 49 49 50 50 49 50 51 50 50
51 51 50 50 50 49 49 48 47 48 47 46 45 45 45 44
44 43 42 42 42 41 41 40 40 39 38 38 37 37 36 36
35 35 35 35 34 34 32 33 32 28 24 20 18 16 20 20
18 23 18 22 22 15 17 29 33 32 32 33 29 34 35 37
38 38 38 38 38 38 39 39 39 40 40 40 41 41 41 41
42 42 43 43 43 44 45 45 46 45 45 47 47 47 47 48
48 49 48 49 49 49 49 50 50 50 49 50 50 50 50 49
49 50 48 50 51 51 51 50 49 50 50 50 50 50 50 49
51 50 50 50 49 49 48 48 48 48 47 47 47 45 45 44
44 44 43 42 41 41 41 41 40 39 39 39 39 38 37 37
36 35 35 34 33 29 25 26 21 16 16 20 15 17 15 17
14 14 13 15 14 15 17 24 28 27 31 32 29 34 35 38
38 38 38 38 39 39 40 40 40 40 40 40 40 42 42 43
43 44 44 43 44 44 45 45 46 46 46 46 47 47 47 48
49 49 49 49 49 49 50 50 50 49 50 49 49 49 49 51
49 50 50 50 49 49 49 49 51 50 50 50 50 50 50 49
51 51 51 50 49 49 49 48 48 47 47 47 46 46 45 44
44 44 43 43 43 42 42 41 41 39 39 38 38 38 38 37
37 36 35 35 31 23 20 18 15 10 13 14 13 12 10 10
7 11 13 14 9 8 11 16 23 26 28 30 28 35 35 38
39 40 39 40 40 40 41 41 41 40 40 40 41 42 42 42
42 43 44 44 44 45 45 46 46 46 47 47 47 48 48 48
48 49 50 50 50 50 50 49 48 49 49 50 50 49 50 50
50 49 49 49 49 49 49 49 50 50 50 50 51 49 49 49
51 51 51 50 50 49 49 48 48 48 48 46 46 46 46 45
45 44 43 43 42 41 41 41 41 40 39 39 39 39 38 39
37 36 34 30 22 16 16 14 10 9 14 14 10 10 6 3
5 7 3 3 3 4 5 9 12 13 19 22 26 35 36 39
40 40 40 41 41 40 41 40 41 41 41 42 42 42 43 43
44 44 45 45 45 45 45 45 45 46 47 47 47 48 49 49
49 48 49 49 48 49 50 51 51 51 49 49 50 50 50 50
49 50 50 50 50 49 50 49 50 50 50 49 49 49 50 49
52 51 51 51 50 50 50 49 49 49 48 48 47 46 46 46
46 45 45 44 44 43 43 43 42 41 40 40 40 38 38 38
38 37 32 24 19 12 10 10 11 7 13 10 7 7 2 0
2 1 0 2 4 3 9 14 10 13 16 15 21 32 36 40
40 40 41 41 41 42 42 41 42 41 42 43 43 43 44 44
45 45 46 46 46 46 46 47 47 48 48 48 48 48 47 48
48 48 50 50 51 50 51 51 51 52 52 51 51 51 51 50
50 50 51 51 50 51 51 50 51 51 51 51 52 51 51 50
52 51 51 50 50 50 49 49 49 48 48 48 47 47 47 46
46 46 44 44 44 43 43 43 42 42 41 40 40 40 39 38
38 34 22 17 17 9 6 11 7 7 8 4 4 3 1 0
5 5 3 3 2 3 1 2 3 5 7 10 17 23 31 38
40 41 41 42 42 41 42 41 42 41 42 43 43 44 44 44
45 46 46 45 46 46 47 46 47 47 47 48 48 49 50 49
50 50 51 50 51 51 51 51 51 51 51 50 50 50 50 50
51 50 51 52 51 51 50 49 50 51 51 50 50 51 50 50
52 51 51 50 50 49 50 50 49 48 48 47 47 47 46 46
46 45 44 44 44 43 43 42 42 41 41 40 40 40 39 37
31 18 13 16 19 13 6 10 5 6 5 2 3 2 4 4
4 4 3 0 1 0 0 0 0 6 4 8 9 14 23 35
38 40 41 42 42 42 42 42 42 42 42 43 43 44 44 44
45 44 45 44 45 45 45 46 47 48 49 49 49 50 50 50
50 50 50 51 51 51 50 51 51 51 52 50 50 50 50 50
50 51 50 50 50 50 51 50 50 51 51 50 51 51 50 50
52 51 51 51 50 50 50 50 49 49 49 49 47 48 47 47
46 46 45 44 43 43 43 42 42 40 41 41 41 40 39 34
18 15 14 15 14 15 8 6 7 4 3 0 0 0 2 2
3 3 5 1 0 0 0 0 0 1 5 8 11 9 12 23
33 39 41 43 43 42 43 42 42 43 43 44 44 44 45 45
46 45 45 46 46 46 46 47 47 48 50 49 50 50 50 50
51 51 51 51 52 52 52 51 52 51 52 50 51 50 50 51
50 50 50 51 51 51 51 51 50 51 51 50 51 50 50 50
51 50 51 50 50 50 50 49 49 49 49 48 48 47 46 46
46 45 45 44 44 43 43 43 42 41 41 41 40 40 37 24
19 13 11 10 9 12 7 2 5 2 3 0 0 0 0 0
0 0 0 3 3 0 1 4 6 4 4 0 5 9 7 11
21 35 40 41 43 41 43 43 44 43 43 44 44 44 44 45
45 45 45 45 46 47 47 48 47 48 50 49 50 50 50 50
50 50 50 50 50 51 50 50 50 50 52 50 50 51 50 51
51 51 50 50 51 50 50 51 50 51 51 51 51 50 48 48
52 51 50 51 50 50 50 49 49 48 48 48 48 47 47 46
46 46 45 45 44 43 43 43 42 41 41 41 41 40 36 23
18 11 10 10 5 9 6 1 0 0 0 0 0 0 0 1
3 1 0 3 4 4 2 2 5 3 1 0 2 2 7 7
16 24 34 41 43 43 42 42 42 42 42 44 44 44 45 45
45 45 46 46 47 47 48 48 48 49 50 49 50 51 50 50
51 51 51 51 50 50 51 51 50 50 51 49 50 50 50 50
50 50 51 50 50 50 52 51 51 50 50 48 45 46 45 47
51 50 51 50 50 49 50 49 49 48 48 48 47 47 46 46
45 45 45 44 44 43 44 43 42 42 42 41 41 40 34 24
15 8 7 6 5 4 3 2 0 0 0 0 0 0 0 0
0 0 0 2 2 1 0 1 1 0 1 2 2 1 6 7
5 12 21 33 40 42 42 42 43 43 43 45 44 44 45 44
45 45 46 46 47 47 47 49 48 49 50 49 49 50 50 50
50 50 50 50 49 49 50 50 50 50 51 50 50 51 51 50
50 51 50 49 49 48 48 48 48 48 49 50 50 50 49 49
52 51 51 51 50 50 49 48 49 48 48 48 47 47 47 47
45 45 45 45 44 44 43 42 43 41 41 41 41 40 31 22
11 9 6 5 3 3 1 0 0 0 0 0 0 0 0 0
0 0 0 0 0 0 0 1 1 3 6 2 3 5 4 1
2 3 13 18 38 43 44 43 43 44 44 45 44 44 45 44
45 45 47 47 47 47 48 48 48 49 50 49 49 50 50 50
50 50 50 50 50 51 51 51 51 51 52 51 51 51 50 49
49 49 49 49 50 50 51 50 50 50 48 49 49 48 48 47
51 51 50 50 50 50 49 49 49 48 48 47 47 47 46 46
46 46 45 45 45 44 44 43 42 43 42 42 41 39 31 19
6 8 7 1 3 0 0 0 0 0 0 0 0 0 2 1
1 0 0 0 0 1 3 2 1 4 8 3 4 5 5 5
6 4 7 16 23 41 43 43 44 44 44 45 45 45 46 45
46 46 47 48 48 48 48 49 49 49 50 49 49 49 51 50
50 50 50 50 50 50 50 51 51 50 49 46 47 48 49 48
49 51 51 51 48 48 49 48 48 49 48 48 48 49 48 47
51 50 50 50 50 49 49 49 49 49 49 48 47 47 47 46
46 46 45 45 45 44 44 43 43 43 41 41 41 38 31 18
8 8 4 2 1 0 0 0 0 1 6 8 6 6 5 6
0 0 0 0 3 6 3 4 6 5 2 1 2 5 6 2
0 4 2 7 17 33 43 43 43 44 44 45 44 44 45 45
45 46 46 47 48 48 49 49 50 49 50 49 49 49 50 50
50 50 50 50 50 49 48 48 49 49 49 49 50 49 49 49
48 49 50 51 48 50 49 48 49 49 48 49 48 48 48 46
33 47 51 50 50 50 49 50 49 49 48 48 48 47 47 46
46 45 45 45 44 44 44 44 43 42 42 42 41 40 34 17
7 6 5 2 0 0 0 0 5 17 29 28 26 24 18 15
2 0 0 2 5 3 3 5 2 5 4 1 4 4 7 1
0 0 0 0 10 26 42 44 44 44 45 46 45 45 46 46
46 46 47 47 48 48 48 49 49 48 50 49 49 49 50 50
49 49 49 48 48 50 50 50 50 50 49 49 49 49 50 50
50 49 49 50 48 49 48 49 50 48 48 49 48 48 47 46
25 45 51 51 51 51 50 50 48 49 48 48 48 48 47 46
47 47 46 46 45 45 44 44 43 43 42 41 42 38 33 14
7 4 1 1 1 0 1 14 31 43 47 52 48 46 31 15
5 0 0 0 0 2 4 5 2 3 2 4 9 6 1 2
0 0 0 0 3 21 40 44 45 45 45 46 46 46 46 46
46 47 47 48 48 49 49 48 49 49 49 49 48 49 49 49
49 49 51 50 50 49 50 51 50 49 50 49 48 49 49 49
49 50 49 50 49 48 49 48 50 49 48 49 48 48 48 47
24 44 51 51 50 50 49 48 49 50 50 48 48 48 48 47
47 47 46 45 45 44 45 44 46 52 49 44 43 37 30 17
9 4 2 1 0 0 17 41 57 67 72 74 67 64 54 23
5 0 0 0 0 2 7 10 7 5 6 2 2 5 0 0
0 0 0 0 0 8 36 44 45 45 45 47 46 46 47 46
47 48 48 48 48 47 47 47 47 47 48 48 49 48 49 49
49 49 51 50 49 49 49 49 49 49 49 49 49 49 50 50
49 49 49 50 49 49 48 49 49 48 48 48 47 47 48 47
25 44 51 51 51 50 49 54 60 57 55 52 49 48 46 47
47 47 46 45 45 45 45 44 51 62 59 52 50 45 28 17
10 6 1 1 1 15 44 58 72 79 83 84 86 80 65 26
3 1 0 0 0 0 0 0 1 0 2 1 5 4 2 0
0 0 0 0 0 2 27 42 45 45 45 46 46 46 46 46
46 47 47 47 48 47 47 49 48 48 48 48 49 48 49 49
49 49 50 50 50 50 50 50 50 49 50 49 49 48 49 49
49 49 48 50 48 49 48 49 48 49 49 48 48 48 47 47
27 47 51 50 50 50 50 58 64 62 60 56 55 53 52 49
48 47 46 45 44 45 44 44 52 59 57 53 53 50 35 19
11 5 0 1 13 45 61 74 82 86 92 95 87 79 53 26
7 1 2 4 3 2 3 5 2 0 1 2 1 3 10 1
0 0 0 0 0 0 11 38 44 45 46 45 45 44 45 46
46 47 48 48 46 47 48 47 48 48 48 48 47 49 49 49
49 49 50 51 49 50 50 49 49 49 49 49 49 49 49 50
49 49 49 49 49 49 49 48 48 49 49 47 47 47 47 46
28 51 54 53 52 51 50 59 66 63 58 58 59 61 61 53
55 54 50 47 45 45 45 44 49 49 49 47 50 48 42 29
15 7 3 14 50 69 78 81 89 99 103 103 98 93 63 30
12 9 13 9 8 5 3 4 4 2 3 4 8 7 10 1
0 0 0 0 0 0 2 24 42 44 45 45 45 46 46 46
45 46 47 48 47 47 48 48 48 48 48 49 49 48 49 48
48 48 49 49 49 48 49 49 50 48 49 49 49 49 49 49
50 49 48 49 49 49 48 48 48 48 48 48 48 47 46 47
28 53 57 52 54 54 54 56 41 47 56 60 64 65 63 47
42 52 54 54 53 52 51 47 47 30 24 23 27 30 36 35
23 17 16 44 70 82 83 90 97 105 106 105 100 98 76 41
18 12 8 9 7 4 4 3 3 2 0 0 2 0 1 2
1 0 0 0 0 0 0 11 30 42 44 44 45 46 47 46
47 47 48 48 47 48 48 48 48 48 47 47 48 48 48 49
48 49 49 50 50 49 49 48 49 48 49 49 49 48 49 49
49 49 49 50 49 49 48 49 48 48 48 48 47 47 46 45
28 53 57 47 48 55 61 60 6 2 19 38 43 47 56 30
1 5 13 26 34 44 51 51 48 28 12 16 15 8 15 38
30 16 41 67 85 87 90 99 104 106 108 105 105 101 91 56
28 24 12 13 8 4 2 0 0 2 0 1 4 1 4 8
5 0 0 0 0 0 0 3 19 36 42 45 45 45 45 45
45 46 46 47 47 48 47 47 48 48 49 49 49 48 49 48
48 48 49 50 50 48 48 48 48 49 49 49 49 49 49 49
50 49 49 49 49 49 48 48 47 47 46 46 46 46 48 48
27 43 54 56 55 56 64 63 8 0 7 19 23 22 42 29
0 0 0 0 3 3 9 23 48 25 5 7 10 7 13 39
26 30 59 78 89 89 96 103 107 109 108 106 106 106 98 82
44 36 19 12 13 6 1 0 2 0 1 0 0 1 4 11
2 1 0 0 0 0 0 0 12 28 40 44 46 46 46 46
46 46 46 48 48 47 47 47 48 48 48 48 49 48 48 48
48 49 49 50 50 48 48 48 49 48 49 49 49 49 49 50
49 50 50 48 47 47 47 47 48 48 48 48 48 48 47 47
23 5 8 18 32 47 57 60 11 0 5 12 15 17 40 33
2 0 0 0 1 0 0 9 49 20 0 0 6 3 11 27
23 46 71 84 89 94 101 106 108 110 109 107 107 110 106 96
69 44 28 17 18 7 3 0 0 0 0 2 1 4 7 4
0 0 0 0 0 0 0 0 4 20 34 41 46 45 46 46
46 46 46 47 47 48 48 47 48 48 48 48 49 48 48 48
49 49 49 49 48 48 48 48 48 49 49 49 50 50 50 50
49 49 49 49 49 49 48 47 47 48 48 48 49 47 48 47
23 2 0 0 0 1 6 26 13 0 1 4 1 10 34 31
0 0 0 0 1 0 0 8 48 10 0 0 2 4 11 32
34 59 78 85 91 97 103 106 108 109 110 107 111 112 108 101
89 69 45 38 23 11 3 0 0 1 0 1 3 1 0 0
2 0 0 0 0 0 0 0 0 11 26 41 45 46 46 47
47 47 47 48 47 48 48 48 48 48 48 48 48 49 49 49
49 49 50 49 49 49 49 50 49 49 49 49 50 50 51 50
49 49 49 48 49 49 49 48 47 47 48 48 50 48 49 48
23 1 0 0 0 0 0 14 12 0 0 0 0 3 35 31
0 0 0 9 13 2 0 6 48 9 0 0 0 3 12 40
45 65 77 85 96 101 105 108 113 113 111 109 114 114 110 106
90 82 65 46 27 17 4 2 0 0 5 10 4 0 0 3
2 0 1 2 0 0 0 0 0 10 22 33 45 46 46 46
46 47 47 47 46 47 48 47 48 48 49 49 49 49 49 49
49 49 48 49 49 50 50 50 49 49 49 50 50 50 50 49
48 48 48 48 48 48 48 49 48 48 49 49 50 48 48 48
23 2 0 0 0 0 0 12 11 0 0 0 0 2 39 35
0 0 1 14 21 15 7 4 46 7 0 0 0 1 12 47
59 67 79 91 100 103 107 112 116 113 111 113 113 114 111 107
99 91 64 56 41 24 17 11 11 4 2 1 0 0 2 5
6 8 4 1 1 0 0 0 0 7 20 31 41 45 46 46
46 47 47 48 48 48 48 48 48 49 49 47 48 49 48 48
48 48 49 50 49 49 49 49 49 48 48 50 49 49 50 49
49 49 50 49 50 50 50 50 49 51 49 48 49 46 45 44
22 2 0 0 14 4 0 10 10 2 0 0 0 3 36 36
0 0 3 17 22 21 18 5 45 9 0 0 0 2 13 51
64 67 83 96 102 105 108 114 116 111 114 114 114 112 111 105
107 96 82 63 57 34 23 22 31 18 3 0 1 3 17 33
24 7 5 11 5 1 0 0 0 3 15 33 42 45 46 47
47 48 48 48 47 47 47 48 48 49 49 49 49 49 48 48
49 49 49 50 49 48 49 48 49 48 48 50 50 50 50 49
51 51 50 50 50 49 49 50 50 48 45 45 45 44 42 40
22 3 13 10 10 3 0 9 12 2 0 0 0 8 36 41
0 1 2 14 21 20 17 5 44 14 1 0 0 0 8 54
68 69 87 98 103 108 110 116 116 114 116 119 117 115 114 111
110 107 97 75 54 42 43 30 17 20 10 1 4 40 104 106
107 74 12 4 8 3 0 0 0 0 9 28 42 43 45 45
45 46 46 46 47 47 47 47 48 48 48 49 48 49 48 48
48 48 49 48 48 48 49 48 48 48 47 49 50 50 50 49
50 49 46 46 45 46 48 46 44 39 34 30 26 23 20 19
23 8 14 1 7 5 0 11 13 0 0 0 0 14 42 45
3 3 6 1 9 17 17 3 45 50 39 29 21 16 21 55
65 72 91 99 104 109 111 118 116 118 121 123 125 121 121 118
118 113 98 86 64 53 48 27 27 17 10 6 21 116 115 127
115 105 72 7 3 2 0 0 0 0 5 26 42 44 45 47
46 46 46 46 47 47 47 47 48 47 48 49 48 49 49 49
49 49 49 49 48 49 49 48 48 47 48 49 48 47 48 46
47 44 39 36 32 28 25 21 19 19 19 19 21 22 22 23
22 8 3 0 0 2 1 14 38 21 15 13 4 2 36 64
46 40 34 23 12 10 11 3 44 58 55 54 54 56 62 62
67 79 88 100 104 109 112 117 117 123 124 129 130 124 127 128
124 120 107 83 64 54 68 44 29 29 24 12 72 121 132 149
143 124 111 30 0 0 0 0 0 0 2 20 40 44 44 45
46 46 46 46 47 47 48 48 48 48 48 49 48 48 48 48
47 48 47 47 46 45 48 46 47 44 45 43 39 35 31 27
24 22 21 20 20 21 22 23 23 25 26 26 27 28 27 28
23 3 0 0 0 0 0 18 68 62 53 53 50 41 54 63
30 32 36 40 41 40 42 43 60 54 54 55 57 63 66 63
70 84 93 99 103 108 113 117 118 128 132 132 133 130 131 133
132 130 117 101 65 36 29 37 41 45 47 39 98 90 117 148
136 127 108 86 0 0 0 0 0 0 0 16 34 43 45 45
46 46 47 46 47 47 48 47 48 47 48 49 46 47 47 46
45 47 46 45 43 40 38 33 30 26 25 23 22 22 22 23
25 26 26 27 26 20 30 30 31 32 33 33 34 34 21 34
25 6 0 0 0 0 0 18 72 58 63 66 71 68 63 54
24 23 23 23 23 22 25 28 32 29 34 40 45 50 52 64
71 83 90 97 104 109 114 117 120 129 139 141 138 134 133 134
132 131 120 95 71 50 45 45 46 33 52 77 99 95 111 143
142 121 104 112 9 0 4 0 0 0 0 8 28 36 45 45
46 46 47 47 47 48 48 49 48 49 49 49 46 46 49 41
36 33 30 27 26 24 25 25 25 26 27 28 29 31 31 32
33 34 35 35 35 15 35 38 38 38 34 35 40 27 35 42
29 42 40 29 18 10 5 22 62 53 65 68 72 71 59 47
27 24 22 21 19 18 17 16 16 16 18 19 36 44 45 65
72 82 88 99 104 108 114 117 119 130 140 144 143 137 137 137
136 135 125 101 74 56 35 35 47 53 62 89 111 114 123 134
145 126 101 118 25 1 0 0 0 0 2 4 24 37 40 45
48 48 49 49 49 48 47 44 41 37 35 32 29 29 46 36
21 25 27 28 29 30 32 33 34 35 35 37 38 39 39 40
41 33 34 41 41 26 30 43 43 43 29 39 38 29 44 44
30 56 68 67 63 59 54 57 55 47 60 65 69 70 62 52
30 26 22 19 18 18 18 17 17 17 18 20 38 26 35 65
72 82 88 99 106 111 116 117 121 127 136 140 142 139 140 141
142 138 128 101 65 41 23 32 60 87 82 106 116 97 125 144
147 136 101 118 49 13 3 0 0 0 0 3 22 37 42 43
45 44 41 37 34 31 29 28 27 26 27 29 29 28 38 31
24 31 35 36 37 38 39 40 40 42 42 41 42 43 43 43
44 43 37 35 45 40 21 45 45 43 26 41 28 39 41 45
29 56 69 67 66 67 66 69 42 13 21 31 40 47 46 52
33 23 19 10 9 10 17 20 20 18 22 25 41 37 39 64
72 82 89 102 106 111 115 119 121 128 132 138 137 138 140 144
144 139 132 110 78 52 28 19 50 85 81 106 117 57 77 112
115 135 115 118 66 34 14 5 0 1 0 0 11 26 31 30
29 28 28 28 28 29 30 31 33 33 34 36 36 36 43 37
30 38 41 42 42 43 44 44 44 44 44 44 44 44 45 44
46 46 46 39 36 43 19 38 46 41 26 30 36 42 43 46
29 50 62 63 64 66 68 69 34 1 0 0 4 15 25 52
31 21 16 1 0 1 9 14 12 7 15 17 39 52 48 62
74 84 96 103 105 104 107 117 123 128 133 135 138 139 140 145
145 144 136 116 77 49 22 8 36 75 68 110 118 108 104 136
111 112 129 118 76 41 15 5 3 0 0 0 6 21 28 27
31 32 33 34 34 36 37 38 40 41 41 42 41 40 36 32
34 43 43 44 45 46 46 46 47 47 47 47 46 45 46 45
46 47 47 46 37 36 33 24 44 36 29 25 46 41 43 45
36 42 46 48 51 50 55 63 29 0 0 0 3 3 17 55
30 20 16 2 0 5 2 1 1 0 2 6 34 56 40 56
76 87 98 98 81 51 43 59 67 80 112 127 133 140 139 144
146 143 139 126 97 51 15 5 9 41 52 97 106 128 123 136
130 103 131 121 84 55 22 1 2 0 0 0 0 16 34 34
37 39 40 41 41 42 43 43 44 43 44 44 43 39 16 12
29 44 47 48 48 47 47 47 47 47 47 47 47 47 46 46
45 47 47 47 47 37 32 13 22 19 22 35 45 40 43 42
31 33 33 36 46 44 51 63 26 0 0 0 3 1 6 55
23 13 2 0 0 14 11 4 1 0 0 1 32 56 41 56
77 90 91 70 23 23 29 49 75 98 104 111 119 130 135 144
144 144 143 138 116 60 17 12 4 21 59 88 115 106 123 146
129 106 132 125 83 58 31 3 0 0 0 0 0 2 12 20
31 33 37 40 42 45 45 45 46 45 44 41 40 38 16 10
23 44 47 48 47 47 47 48 48 48 48 48 48 48 47 46
46 46 45 46 47 44 35 13 1 2 30 41 42 39 44 40
31 33 37 40 46 46 54 60 26 0 0 0 0 0 8 56
9 0 0 1 2 9 19 11 3 0 0 1 31 57 41 55
79 89 68 17 7 39 66 84 101 102 107 110 113 124 136 141
145 146 144 138 119 92 45 14 16 56 85 95 107 109 101 122
117 105 137 133 82 64 34 5 0 0 0 0 0 0 0 0
0 2 5 14 34 45 46 47 47 28 12 8 18 34 12 8
22 44 47 48 48 48 48 47 46 47 47 48 47 46 46 46
45 44 46 46 46 44 44 30 0 7 39 41 36 36 41 41
30 14 8 15 22 31 40 47 24 0 0 0 0 0 10 55
8 0 0 0 3 8 22 19 16 1 1 1 31 58 43 56
78 77 18 1 22 49 54 63 74 88 106 116 118 126 139 144
145 143 142 140 131 112 88 61 55 53 73 81 96 112 125 115
110 114 140 132 81 63 36 10 0 0 0 0 0 0 0 0
0 0 0 2 17 41 46 47 47 30 23 30 37 37 6 2
20 43 46 48 47 46 47 47 46 47 47 47 48 48 46 46
46 44 43 43 44 43 45 40 2 9 42 39 32 32 39 44
35 11 0 0 0 0 0 9 21 0 0 0 0 0 11 53
6 0 0 0 6 24 26 21 19 1 0 3 29 57 45 54
76 55 5 10 26 12 13 38 67 81 80 90 112 123 138 143
141 140 143 141 142 117 91 61 59 53 71 95 90 97 111 113
126 125 128 124 81 61 33 16 5 0 0 1 2 0 0 0
0 0 0 0 16 36 45 47 48 46 45 45 44 38 11 2
20 42 47 48 48 47 48 47 47 47 47 47 46 47 46 45
46 46 44 44 44 45 45 41 5 7 43 42 32 31 43 44
35 13 0 0 2 0 0 5 20 0 0 12 9 1 8 51
4 0 0 0 4 21 30 13 7 0 1 4 27 57 48 41
70 52 19 29 33 7 38 119 132 109 104 105 113 123 133 135
135 139 144 142 139 110 81 61 50 43 71 114 115 81 72 132
139 123 123 106 73 56 32 17 3 0 0 1 1 0 0 0
0 0 0 0 7 26 46 48 47 46 46 44 43 40 19 0
25 43 47 47 48 47 46 47 47 47 46 47 47 46 46 46
47 46 45 42 43 44 45 42 7 6 41 44 33 32 44 45
35 14 0 1 11 3 0 3 20 0 4 26 19 3 8 50
3 0 0 1 2 2 22 4 0 0 1 0 20 56 47 16
40 63 59 73 59 32 37 99 100 120 115 118 114 119 131 132
131 138 142 142 139 107 67 40 35 32 64 102 106 113 120 135
119 117 124 92 78 54 23 10 10 4 0 0 3 7 0 0
0 0 0 0 3 24 39 47 47 47 46 45 43 39 28 13
32 44 47 47 48 47 47 47 46 46 46 46 46 45 45 45
45 46 45 43 43 45 45 43 9 4 40 44 32 29 42 44
32 13 0 9 27 13 3 3 24 1 14 25 21 8 8 47
3 5 0 0 1 0 22 8 0 0 0 0 16 56 44 11
6 46 100 115 86 54 40 71 108 118 120 118 112 122 131 133
135 137 140 138 135 110 77 38 35 47 43 94 119 124 125 119
121 133 107 89 81 55 34 27 32 6 1 8 15 22 0 0
0 0 0 0 0 17 36 46 46 46 46 45 42 38 35 34
40 47 47 48 47 47 47 46 47 46 47 46 46 46 46 45
46 46 45 43 42 38 42 40 10 2 29 33 23 26 40 44
30 14 0 15 29 15 6 3 46 41 46 46 43 38 35 51
3 0 0 0 0 0 21 10 0 1 0 0 10 54 39 12
8 15 106 134 104 80 57 78 102 114 115 114 118 124 133 135
137 139 140 139 132 105 73 43 32 48 44 83 109 116 120 112
133 124 99 92 82 77 62 52 44 16 1 13 17 22 0 0
0 0 0 0 0 10 40 45 46 46 45 45 43 39 38 40
45 47 47 47 48 47 48 47 47 47 47 47 46 46 47 46
46 45 44 42 41 38 31 34 12 2 33 43 36 31 39 42
30 16 0 6 9 6 2 2 49 56 60 61 60 65 69 59
14 10 9 1 0 4 25 13 4 6 1 0 6 47 37 10
3 6 94 137 110 87 70 64 85 101 107 112 117 125 138 141
141 141 135 135 127 103 66 42 28 43 40 62 100 105 124 123
132 108 102 92 83 76 74 62 48 35 1 13 13 16 0 7
3 0 0 0 0 4 33 43 46 45 45 44 44 42 42 43
47 47 47 47 47 47 47 47 47 47 46 46 45 46 47 46
46 45 45 44 42 43 44 44 17 1 31 41 35 29 37 39
32 28 15 3 6 3 0 2 49 57 59 59 59 68 72 66
44 41 40 33 30 31 35 27 22 19 18 14 20 42 41 19
17 23 103 146 135 99 80 60 72 90 97 103 117 126 137 140
139 137 134 135 122 101 66 43 29 30 32 53 80 65 104 121
111 104 101 95 84 78 73 60 55 43 9 8 16 3 0 8
4 0 0 0 0 3 30 43 47 46 46 45 45 43 44 45
46 46 46 45 46 46 47 46 46 45 46 46 46 46 46 46
44 43 44 43 42 42 44 44 20 1 29 41 36 28 37 41
33 33 11 2 4 1 0 2 46 49 54 54 55 59 58 57
48 49 49 47 46 47 45 43 40 35 33 32 34 45 51 38
36 40 120 150 145 126 107 81 72 84 98 102 119 133 135 137
139 131 134 134 118 111 74 49 33 34 40 44 70 72 46 93
103 107 104 97 84 75 73 67 61 45 18 7 0 0 1 6
5 0 0 0 0 4 29 44 45 44 45 46 45 43 45 46
46 46 47 47 47 47 47 47 46 46 46 45 46 46 46 46
45 44 45 43 42 42 43 43 23 1 27 43 37 27 37 41
36 30 4 0 4 1 0 2 50 49 50 50 50 49 44 45
49 51 52 51 49 48 48 48 47 51 48 44 42 49 59 57
57 68 134 151 146 135 125 103 85 92 106 115 127 133 136 129
131 128 132 124 107 96 69 51 36 43 44 37 39 76 77 109
114 106 103 96 82 71 73 74 66 50 26 12 0 0 0 4
2 0 0 0 0 3 28 42 45 45 45 45 45 45 46 47
46 45 46 46 46 46 47 45 46 46 45 45 45 45 45 45
45 44 44 43 41 42 43 43 25 1 23 43 37 27 35 40
32 35 33 28 22 17 13 12 52 51 49 49 49 50 51 52
54 53 56 61 60 50 47 48 51 61 59 55 54 53 48 42
41 77 140 151 147 140 131 108 94 100 112 122 133 131 133 123
127 126 131 114 95 67 54 60 49 51 40 41 30 42 72 99
113 111 109 102 87 70 73 73 64 50 32 2 0 0 0 0
0 0 0 0 0 2 29 44 45 45 45 45 46 45 46 47
46 46 46 46 46 45 46 45 45 45 45 44 45 45 45 44
44 44 45 43 41 42 43 42 27 2 20 42 38 28 34 40
33 43 62 64 59 60 65 63 66 56 52 52 51 53 56 60
59 53 57 64 63 50 45 42 49 62 59 56 56 54 50 41
36 92 143 151 147 140 130 106 98 104 113 123 130 124 122 118
121 122 110 103 82 70 42 51 42 38 38 28 25 28 46 86
101 100 104 103 89 78 75 81 78 63 38 0 2 10 5 3
0 0 0 0 0 6 35 43 45 45 46 45 46 46 46 46
45 45 45 45 45 45 44 45 45 45 44 44 45 44 44 44
44 43 44 41 40 41 43 42 29 2 18 42 37 27 32 40
35 45 72 72 71 71 72 71 71 55 47 44 44 46 53 61
62 55 56 54 53 51 46 41 42 48 43 43 49 51 50 48
50 117 148 150 147 137 121 102 98 104 113 120 127 119 116 116
118 110 105 99 79 62 37 30 42 37 36 28 20 20 27 53
67 84 96 101 85 73 73 85 86 75 52 6 0 5 5 5
0 0 0 0 0 7 34 42 44 44 44 44 46 45 46 46
46 46 45 45 45 46 45 44 45 44 44 43 44 44 43 43
44 43 44 42 41 41 44 43 32 2 15 42 39 27 32 39
35 37 50 53 55 57 60 62 65 39 12 11 6 9 14 32
61 54 37 18 23 27 26 36 44 29 8 3 8 18 26 47
65 128 144 143 143 140 122 94 93 101 108 110 116 113 106 106
116 107 98 88 64 63 43 25 33 35 36 24 19 14 13 26
36 47 83 95 85 77 69 86 91 80 61 18 1 5 2 2
1 0 0 0 0 8 40 39 42 42 39 39 41 44 45 44
45 45 45 45 44 45 45 45 44 44 44 44 45 45 44 44
43 43 44 42 41 40 43 43 34 3 14 42 41 29 32 39
35 33 41 41 41 40 39 39 42 29 3 0 0 0 0 16
59 48 12 0 1 4 12 34 46 29 1 0 0 8 22 38
67 125 136 140 132 128 125 102 82 90 97 92 104 110 103 102
107 101 98 81 53 48 44 28 25 37 39 18 11 7 8 23
21 23 79 94 88 79 72 91 95 87 70 37 0 4 1 6
5 8 1 0 0 11 32 19 18 16 15 14 25 44 46 46
45 46 45 45 45 45 44 44 43 43 44 44 44 44 44 44
44 43 43 44 42 41 43 44 37 3 13 42 41 29 30 39
33 36 50 50 50 48 48 47 48 30 9 1 0 0 5 28
58 33 0 0 0 0 2 38 47 31 0 0 0 4 20 35
79 127 138 139 134 137 143 130 85 79 79 71 87 99 92 94
90 81 85 71 48 38 36 29 21 35 31 18 10 1 2 7
16 40 76 94 89 80 75 97 102 91 78 51 6 0 1 1
0 3 6 0 0 16 29 10 10 10 11 11 22 45 47 46
46 45 45 46 44 44 44 44 45 44 44 43 44 44 43 44
44 43 44 43 41 41 43 43 38 4 11 41 38 26 28 39
34 38 52 53 53 53 52 53 54 33 9 2 0 0 4 20
55 24 0 0 0 0 0 34 46 30 0 0 0 3 17 41
95 135 148 146 147 148 144 127 89 96 77 65 61 68 78 78
72 54 60 60 35 31 31 30 26 26 22 18 5 0 0 0
4 15 67 97 92 79 79 99 105 100 88 62 21 0 2 5
3 3 0 0 0 10 26 11 10 11 10 11 21 45 46 47
47 46 46 45 44 45 44 44 44 44 44 43 43 44 44 44
44 43 44 42 41 40 41 41 37 5 10 36 37 28 29 40
39 41 47 49 50 51 52 53 57 33 1 0 0 4 12 11
52 18 0 0 0 0 0 35 45 29 0 0 0 1 12 44
96 136 136 115 88 69 85 108 107 106 96 84 65 50 53 55
50 41 47 42 30 19 22 31 31 19 10 12 3 2 4 4
0 7 61 98 95 87 83 98 109 107 100 80 42 0 0 0
2 5 0 0 0 2 23 10 10 11 11 11 18 43 47 46
46 46 45 45 44 44 44 43 43 43 42 42 41 43 44 44
44 43 43 43 41 39 40 40 38 6 7 38 39 29 27 37
49 48 47 47 47 48 47 41 53 44 9 0 0 4 9 5
51 17 0 0 0 0 0 35 45 27 0 0 0 0 4 42
75 117 107 45 84 107 112 102 103 98 82 62 80 82 56 53
44 40 33 35 28 19 23 19 20 15 6 1 1 0 1 5
13 45 80 103 100 91 87 94 110 113 108 94 65 8 0 0
0 0 0 0 0 16 30 11 11 11 11 11 15 41 46 46
44 44 44 43 42 42 43 43 43 43 43 43 43 43 43 43
42 43 42 42 40 39 41 41 39 9 4 35 39 29 26 36
48 48 48 47 47 46 46 40 51 49 14 0 0 5 12 6
48 15 0 0 0 0 0 28 46 32 4 0 0 0 3 41
28 77 95 94 96 76 55 51 72 71 47 21 31 68 79 51
33 27 28 26 27 21 13 10 4 6 5 0 0 0 3 3
26 63 100 110 104 94 86 92 107 116 113 105 79 35 0 0
0 0 0 0 20 39 33 16 16 17 18 19 20 36 43 44
44 44 44 44 37 30 30 31 38 42 42 42 42 42 41 41
42 42 41 40 38 37 39 39 38 9 2 32 38 30 26 35
46 46 46 46 47 46 47 43 50 44 1 0 0 0 2 6
49 16 0 0 0 0 0 23 48 28 1 0 0 0 1 41
12 7 19 15 11 24 16 19 31 28 16 6 6 17 61 55
46 23 23 26 30 21 12 10 4 1 0 0 0 1 8 21
39 91 114 113 105 98 91 92 103 115 117 110 90 65 7 0
0 0 0 6 37 42 35 18 17 16 16 16 17 34 43 44
45 43 43 41 5 0 0 0 20 43 42 42 42 42 41 41
41 41 41 41 38 37 40 40 39 13 1 30 39 31 26 35
14 15 16 16 22 37 44 43 47 40 0 0 0 0 1 2
46 20 0 0 0 0 0 20 49 29 2 0 0 1 2 41
18 0 0 0 3 6 7 8 13 18 12 8 11 7 20 52
37 29 18 15 34 26 13 10 5 1 0 0 0 1 7 18
46 97 116 115 107 100 96 92 98 111 119 119 103 83 35 0
0 8 12 31 40 42 35 12 12 11 12 11 14 36 44 44
44 44 44 41 5 0 0 0 17 43 42 42 42 42 42 42
42 41 41 41 38 38 39 40 39 14 1 29 40 32 26 35
0 0 0 0 5 42 46 43 44 38 3 2 1 3 15 6
42 32 10 10 15 12 12 28 52 37 34 33 32 35 40 54
26 7 5 6 4 0 1 6 11 23 23 24 39 23 17 54
36 24 16 15 15 22 20 7 7 5 1 0 0 0 3 16
45 90 118 119 111 100 95 93 94 108 117 120 113 95 66 7
3 18 27 30 42 42 35 12 11 11 11 11 12 36 44 43
43 43 42 38 3 0 0 0 8 43 43 42 43 42 41 42
42 41 41 42 39 37 40 40 40 17 0 27 40 32 25 33
0 0 0 0 4 43 47 43 40 52 45 40 37 40 45 42
45 53 59 55 55 57 58 60 58 39 49 53 56 61 68 68
49 38 38 36 23 0 11 24 21 29 43 77 95 69 28 42
39 29 17 18 15 9 4 5 3 1 1 2 0 1 5 15
39 87 121 122 114 102 94 94 93 98 110 117 117 108 86 37
0 36 34 35 39 42 36 12 10 11 10 10 12 35 45 44
43 43 42 38 3 1 0 0 4 42 44 43 43 43 43 41
42 41 41 41 38 38 39 40 40 19 0 25 40 33 25 33
0 0 0 0 2 42 49 44 39 57 58 50 51 53 50 42
39 47 66 63 61 61 65 65 63 39 43 51 55 62 66 66
52 40 40 40 34 5 10 32 19 43 84 102 107 64 22 15
25 26 16 8 11 11 5 1 0 2 0 0 0 0 5 23
45 89 118 129 116 105 94 93 96 92 106 117 121 115 100 68
7 41 23 23 31 41 36 13 11 10 11 11 12 35 44 43
30 17 22 17 1 0 2 0 4 42 43 42 43 43 42 42
42 41 41 41 39 37 40 40 40 21 0 22 40 33 25 32
0 0 0 0 1 39 49 43 39 57 52 46 48 52 52 42
35 37 46 48 48 46 47 46 47 39 35 41 45 45 42 40
41 41 41 42 39 27 15 2 15 64 87 107 91 67 28 4
5 9 4 4 5 6 8 1 1 0 0 0 0 1 6 37
69 104 120 126 118 106 96 96 96 92 96 115 120 119 109 87
19 37 19 19 29 40 37 13 9 10 10 10 12 35 45 42
5 0 0 0 0 0 3 0 2 41 43 43 42 42 42 42
43 41 42 42 40 38 39 41 40 24 0 19 41 35 24 31
0 0 0 0 0 36 51 43 38 54 36 39 39 43 49 43
36 35 30 32 32 34 34 33 38 40 41 44 45 44 39 36
39 41 41 41 42 40 39 27 40 57 79 81 65 57 23 6
4 4 2 1 2 1 4 0 1 0 0 0 0 15 27 56
68 113 124 129 121 109 95 100 99 94 92 110 120 120 115 92
18 21 22 19 14 22 36 13 10 10 11 11 12 35 45 41
6 0 0 0 0 0 0 0 2 42 44 43 43 43 41 42
41 40 41 41 39 38 40 41 40 25 0 17 41 35 26 31
0 0 0 0 0 31 50 42 41 54 19 13 16 19 23 23
26 37 36 40 40 48 49 44 45 47 49 54 56 54 45 40
40 41 42 42 41 41 38 33 31 34 23 23 36 48 20 5
2 3 1 1 0 0 0 0 0 0 0 1 8 24 44 59
81 115 121 131 125 110 102 100 104 100 93 106 117 120 116 71
25 33 25 22 17 20 29 14 8 10 10 9 10 33 45 44
20 0 0 0 0 0 0 0 2 39 43 42 42 42 42 42
42 41 42 42 40 38 41 40 40 27 0 14 38 34 24 30
0 0 0 0 0 27 50 42 45 58 13 0 0 0 1 5
21 39 44 57 51 62 67 35 27 28 30 34 45 58 46 42
40 41 41 41 41 41 39 35 23 11 0 1 18 35 16 4
2 0 0 0 0 1 0 0 0 0 1 8 28 46 57 72
105 121 125 135 129 114 99 100 108 108 99 97 108 117 100 47
34 44 26 26 24 23 25 21 17 18 13 18 19 35 44 44
35 10 0 0 0 0 0 0 2 13 41 43 43 42 43 42
43 42 42 41 40 38 40 44 43 31 0 13 40 35 26 30
0 0 0 0 0 22 51 41 46 62 18 0 0 0 0 0
23 39 41 55 38 40 52 14 0 0 0 1 22 57 48 42
42 42 42 41 41 41 39 38 27 3 0 0 8 25 9 1
1 0 0 0 0 0 1 0 0 0 2 6 31 41 69 93
113 121 128 138 132 115 99 100 111 113 107 97 97 106 68 45
28 45 28 26 28 24 22 38 40 40 33 39 40 42 43 31
50 11 0 0 0 0 0 0 0 1 40 43 43 43 43 43
43 42 42 43 42 39 39 41 41 32 0 8 34 30 23 27
0 0 0 0 0 19 50 42 45 60 22 0 0 0 0 0
20 38 39 53 16 4 32 15 0 0 0 0 15 53 48 41
41 41 41 41 41 39 38 38 23 3 0 0 1 9 5 1
1 0 0 0 0 0 0 0 0 0 0 6 28 44 83 101
112 123 131 139 134 115 100 101 112 118 114 108 94 77 45 43
22 38 26 26 28 21 20 40 37 43 44 45 44 44 30 2
1 12 11 0 0 0 0 0 0 0 38 43 43 43 43 42
41 42 42 42 41 38 38 40 41 33 1 6 31 29 24 28
0 0 0 0 0 15 49 41 38 28 5 0 0 0 0 0
24 37 38 52 16 2 29 18 0 0 0 0 9 51 48 42
41 41 41 41 40 39 39 36 18 0 0 0 0 2 2 1
1 0 0 0 0 0 0 0 0 0 0 12 28 54 92 118
121 123 128 135 132 114 104 102 113 120 121 114 100 48 30 28
20 35 26 23 24 20 16 39 22 21 31 35 34 22 1 0
0 7 7 0 0 0 0 0 0 0 38 44 43 44 43 42
42 42 43 43 43 40 39 41 41 34 1 4 28 27 24 27
0 0 0 0 0 13 48 42 37 21 0 0 0 0 0 0
25 37 38 53 16 2 28 21 0 0 0 0 5 48 48 41
41 41 41 40 40 40 39 37 14 0 0 0 1 5 5 1
0 0 0 0 0 0 0 0 0 0 0 7 28 68 105 119
122 121 126 132 132 118 106 101 113 123 126 118 102 36 23 22
30 33 24 24 24 19 18 44 28 16 17 17 17 8 18 19
8 10 1 0 0 0 0 0 0 0 29 41 43 44 43 43
43 43 43 44 44 41 39 40 39 33 2 3 27 27 24 27
0 0 0 0 0 10 47 41 37 23 0 0 0 0 1 0
22 36 38 53 16 2 24 22 0 0 0 0 4 46 48 40
41 41 41 40 40 39 39 38 19 0 0 0 4 7 2 1
1 0 0 0 0 0 0 0 0 0 0 1 18 69 107 118
118 117 122 127 133 123 109 100 111 123 130 120 100 30 19 19
34 29 25 23 22 20 17 40 31 17 18 18 15 17 23 29
34 31 9 0 0 0 0 0 0 0 0 13 17 16 38 45
45 44 45 46 45 42 41 41 39 33 3 1 26 28 26 28
0 0 0 0 0 9 48 42 37 24 0 0 0 0 3 0
19 38 38 53 20 4 22 27 5 0 2 3 4 45 48 40
41 40 40 40 40 40 40 39 33 3 1 5 3 5 2 0
0 0 0 0 0 0 0 0 0 0 0 0 8 62 102 109
114 115 120 129 134 128 112 100 112 124 128 122 86 26 21 22
55 9 10 19 24 19 18 39 28 15 15 17 20 19 23 23
23 21 12 10 10 9 10 10 10 9 8 7 6 7 40 48
48 49 49 50 49 47 45 45 41 36 5 1 31 35 33 36
0 0 0 0 0 8 47 42 37 25 0 8 0 0 14 6
15 41 40 55 32 11 20 27 7 8 8 1 4 42 48 40
41 40 41 41 40 40 40 39 36 14 0 0 1 2 0 0
0 0 0 0 0 0 0 0 0 5 8 3 4 40 88 105
112 113 119 130 136 129 113 102 111 125 130 119 62 34 42 63
30 0 0 1 14 30 18 31 21 13 13 14 17 23 27 24
26 23 28 24 22 21 20 18 16 15 12 11 11 15 54 65
65 65 66 66 67 64 60 57 53 48 8 1 31 18 13 13
0 0 0 0 0 6 46 43 37 30 4 10 3 3 18 21
17 46 40 55 32 24 20 25 5 14 11 1 1 37 46 39
41 40 40 40 40 40 40 39 38 29 5 0 0 0 0 0
0 0 0 0 0 0 0 0 1 15 29 33 24 36 72 97
108 110 115 126 132 127 113 103 109 127 131 97 56 46 58 20
2 0 0 0 0 52 32 20 17 15 15 14 12 19 28 28
29 27 26 28 22 41 39 14 40 46 50 54 59 64 68 69
69 68 69 70 68 66 60 55 53 50 11 0 32 2 0 0
0 0 0 0 0 5 45 43 37 38 36 40 41 41 46 48
48 55 42 55 23 32 21 33 21 24 22 20 20 35 39 39
41 40 41 40 40 40 40 39 39 37 30 7 0 0 0 0
0 0 0 0 0 0 0 0 2 17 35 55 63 73 82 92
102 104 109 122 131 128 116 106 111 123 112 76 54 32 15 16
0 0 0 0 0 4 60 15 13 12 16 15 10 16 27 28
26 24 21 25 25 30 30 56 32 47 61 65 64 64 65 65
66 65 65 63 65 61 55 52 52 50 14 0 26 0 0 0
0 0 0 0 0 4 44 42 37 39 59 62 63 63 64 63
64 63 47 54 14 19 22 39 33 33 33 32 31 32 35 40
40 40 40 40 40 40 39 39 39 38 37 31 10 1 1 0
0 0 0 0 0 1 3 1 1 19 41 68 95 108 99 94
97 99 104 117 128 126 117 108 97 84 75 70 48 26 19 12
0 0 0 0 0 0 47 13 10 10 15 14 10 16 26 27
27 25 20 21 22 25 24 26 50 31 36 46 49 54 57 56
61 54 52 42 50 48 39 44 51 50 16 0 17 0 0 0
0 0 0 0 0 4 43 42 36 34 57 61 60 60 59 58
58 57 48 52 13 6 15 38 35 37 36 36 36 36 37 39
39 39 39 39 39 39 39 38 38 38 31 15 7 10 14 0
0 0 0 3 5 9 8 6 2 32 63 100 118 124 116 105
100 96 97 111 128 127 117 104 58 54 66 61 26 16 45 36
2 0 0 0 0 4 46 25 42 35 20 15 11 11 21 26
24 23 22 19 18 19 22 22 54 33 43 22 34 41 41 41
53 40 39 35 32 37 34 43 49 49 18 0 11 0 0 0
0 0 0 0 0 3 42 42 35 29 30 29 29 28 27 27
26 24 30 52 15 4 13 39 37 40 40 40 40 40 39 39
39 40 40 39 39 39 38 38 39 30 13 7 7 18 21 13
14 9 11 19 17 16 16 17 8 48 85 110 122 130 127 119
111 101 94 107 127 129 120 84 39 50 63 40 31 22 27 28
7 4 0 0 0 31 39 25 19 21 25 19 14 13 21 27
23 22 21 20 15 17 20 24 63 37 45 20 20 23 34 40
50 48 47 45 46 47 42 42 48 49 20 0 5 0 0 0
0 0 0 0 0 3 41 41 34 29 23 21 21 21 21 20
22 19 27 51 16 2 11 39 36 40 39 39 40 39 39 38
39 39 39 39 39 39 39 37 27 12 9 11 10 15 17 20
20 23 19 18 23 20 21 23 22 32 84 107 120 129 131 127
119 106 95 103 124 130 117 61 37 45 57 42 65 71 59 19
12 10 0 0 9 62 39 18 19 27 36 27 16 17 24 27
24 25 24 18 16 48 56 57 137 80 131 30 20 20 22 27
42 48 48 46 45 44 43 42 44 46 21 0 0 0 0 0
0 0 0 0 0 3 42 42 34 33 30 28 27 26 25 24
24 21 30 51 31 30 37 43 35 39 39 39 39 39 39 38
39 39 39 38 38 39 35 30 17 13 9 12 10 13 20 26
25 6 0 16 18 18 18 22 24 21 70 100 114 124 131 131
124 110 93 99 123 132 113 52 36 42 82 55 29 17 17 3
11 12 2 0 1 33 18 17 10 5 11 27 45 58 68 93
83 62 57 65 49 40 42 55 117 79 114 45 31 35 26 26
30 30 45 47 46 47 43 43 44 43 21 0 0 0 0 0
0 0 0 1 2 7 44 42 34 34 32 30 30 30 30 28
27 23 31 52 44 55 57 46 35 38 39 38 38 37 38 37
37 37 38 37 40 39 34 25 40 15 7 10 10 15 28 10
0 0 0 7 25 19 22 23 23 26 55 98 108 118 127 130
125 115 99 90 117 130 89 46 34 31 34 30 15 12 4 14
22 20 13 0 0 24 16 39 14 4 13 23 39 53 59 52
58 53 50 48 34 51 60 67 123 74 79 26 39 44 40 42
42 39 25 33 33 36 32 30 34 31 22 0 0 0 0 0
24 25 27 28 29 31 38 36 34 33 31 30 30 30 30 30
29 23 25 35 31 35 38 36 35 37 38 38 38 38 38 37
38 38 37 33 25 25 38 45 15 16 12 10 13 16 20 0
0 0 0 13 31 25 32 28 27 37 102 113 102 112 122 128
127 121 109 88 109 126 72 45 34 18 14 12 14 6 8 27
24 20 18 13 3 32 20 60 37 6 16 22 24 55 88 76
74 75 70 72 53 25 15 28 88 36 36 17 20 31 44 46
56 49 39 23 32 31 25 26 29 33 28 0 0 0 0 0
35 35 35 35 35 35 35 35 34 33 32 31 30 28 29 29
28 25 27 30 32 30 33 34 36 38 38 38 38 38 37 36
37 36 28 28 28 23 24 23 17 11 6 14 11 16 16 0
0 4 59 25 25 4 18 38 45 75 49 58 59 98 119 126
131 128 118 91 93 105 63 46 27 22 13 14 12 8 26 28
23 21 20 22 14 34 18 53 59 6 17 23 21 17 24 23
23 22 23 23 18 15 14 27 91 32 29 17 18 18 20 19
24 55 55 41 33 29 33 37 40 43 32 0 0 0 0 0
36 36 35 35 35 34 35 34 33 32 33 32 32 31 30 29
28 26 28 30 33 31 34 34 35 36 37 37 37 37 37 37
36 31 23 38 41 22 21 20 15 4 2 14 25 17 13 0
0 27 72 22 18 2 27 24 8 34 84 99 66 57 75 116
131 132 125 100 81 91 66 37 16 15 14 15 7 24 29 28
24 22 21 23 36 51 20 61 33 10 20 23 21 16 19 21
24 24 25 23 18 15 15 35 98 41 35 16 18 18 21 17
15 23 33 55 42 19 36 44 44 48 37 0 0 0 0 0
34 33 31 30 30 29 29 29 30 32 33 33 33 32 31 30
29 27 28 31 34 33 34 35 36 37 37 37 36 36 35 30
26 22 38 48 40 20 21 18 13 1 5 17 44 27 7 0
27 62 89 10 3 2 1 4 4 2 2 4 6 48 76 63
79 121 125 104 74 81 50 20 17 8 13 13 23 33 31 29
26 22 22 23 43 85 38 55 19 22 24 24 23 21 20 22
24 25 24 21 19 17 17 33 95 46 38 19 20 20 19 15
18 22 22 23 33 16 19 39 42 48 43 1 0 0 0 0
8 6 6 16 23 26 25 32 31 32 32 32 31 31 32 31
30 28 29 31 36 35 34 35 35 36 37 36 35 31 24 25
22 25 51 52 37 22 22 20 15 1 7 23 29 22 7 8
87 42 45 9 8 17 15 10 14 12 11 8 8 10 5 38
73 62 85 92 80 55 16 25 9 10 14 22 35 33 28 28
27 23 21 26 54 96 50 52 20 23 23 26 28 23 19 24
27 28 26 25 21 17 18 35 91 45 37 17 21 22 20 13
20 23 21 22 17 12 15 29 44 49 46 2 0 0 0 0
13 0 1 13 25 29 28 31 32 32 32 32 32 31 31 31
30 28 29 31 35 35 35 34 35 37 36 36 27 21 21 21
22 26 56 63 40 18 26 46 33 4 9 29 17 20 8 9
48 36 47 13 10 16 21 21 21 24 27 24 19 14 18 6
14 69 66 39 49 18 24 14 9 16 24 32 32 30 29 32
28 23 23 25 66 75 52 46 19 22 24 26 26 23 21 23
28 27 24 24 24 18 20 29 84 47 36 18 26 22 20 15
23 24 27 25 14 9 14 12 40 49 46 2 0 0 0 0
46 9 5 14 23 29 30 30 31 32 31 31 31 31 31 31
31 30 31 32 35 35 35 34 35 35 36 27 16 16 22 23
24 55 121 108 92 32 43 66 51 30 35 26 15 19 3 14
53 41 62 16 13 18 24 24 23 26 28 27 28 20 17 22
8 11 31 38 22 23 20 12 22 22 34 34 31 31 31 29
26 26 25 25 65 78 62 44 23 23 24 26 28 27 20 20
27 30 27 24 21 20 20 32 97 49 36 18 25 20 22 16
23 26 30 24 12 7 15 10 25 50 46 3 0 0 0 0
61 30 18 20 21 25 28 29 31 32 32 33 33 33 33 32
33 33 32 33 34 34 35 34 34 35 30 19 18 24 48 42
43 73 111 98 69 38 52 70 45 20 40 28 26 34 11 15
70 45 59 16 18 17 26 29 28 28 30 28 26 25 20 19
17 6 8 20 18 37 13 20 27 21 35 31 31 30 31 27
26 28 25 24 72 74 62 36 22 21 23 26 27 27 24 19
27 28 25 25 23 20 20 30 91 44 35 19 24 20 22 21
27 25 34 22 9 7 14 8 10 44 47 3 0 0 0 0
65 45 27 26 23 25 29 31 32 38 36 35 36 35 36 36
36 36 36 35 34 35 35 35 34 29 24 24 29 37 50 40
40 82 114 88 54 43 24 23 37 24 27 27 25 25 17 16
76 48 70 20 20 20 25 30 33 29 31 30 29 29 25 17
11 8 19 15 32 48 24 22 25 21 29 27 30 27 29 26
25 26 21 22 66 52 60 30 20 22 23 26 27 24 24 20
25 28 27 27 26 23 22 32 100 43 37 18 24 23 25 25
30 29 33 17 10 6 12 9 9 24 47 3 0 0 0 0
43 34 27 26 25 24 23 22 22 40 39 36 38 38 38 37
37 37 36 35 34 34 35 35 32 25 27 52 55 34 36 38
23 45 53 61 22 22 23 22 9 7 29 27 27 23 20 20
77 52 64 20 21 18 25 28 30 30 30 30 33 33 31 23
8 14 17 11 20 61 23 22 19 20 30 31 31 29 28 24
23 26 22 21 69 47 78 26 21 19 22 22 25 26 27 22
24 27 26 27 23 24 21 27 87 36 30 15 22 25 22 26
30 32 33 33 5 7 12 10 33 30 37 3 0 0 0 0
37 26 17 17 17 18 17 18 18 39 40 35 35 35 36 36
37 37 37 35 34 34 35 34 29 43 70 52 65 30 18 21
22 38 48 56 21 24 24 21 3 13 32 29 27 25 22 20
74 62 73 24 22 20 25 28 30 30 30 32 32 34 29 22
9 17 11 1 27 48 20 19 17 29 28 28 29 27 25 24
21 23 22 23 79 44 58 21 21 19 20 22 25 24 25 22
20 24 25 25 21 23 23 29 99 36 28 18 21 26 23 29
28 34 32 54 5 8 13 41 41 17 15 4 0 0 0 0
37 26 16 16 17 17 17 17 18 37 41 33 30 31 32 32
33 33 33 33 32 33 34 34 30 49 72 60 25 14 22 21
23 37 53 48 23 22 19 17 1 19 32 30 28 25 22 22
73 66 70 29 22 20 22 26 29 28 29 29 29 31 27 19
14 16 12 5 3 20 19 17 13 24 27 27 27 25 24 24
22 22 20 23 78 37 60 21 21 20 19 20 23 23 23 20
19 23 26 24 23 21 24 25 72 31 26 20 21 24 20 29
28 33 49 26 4 17 33 29 22 43 24 4 0 0 0 0
37 27 15 15 15 16 15 14 14 32 40 32 28 28 28 28
28 28 29 29 28 31 32 25 14 35 32 24 24 14 21 23
24 41 52 36 28 25 20 10 5 26 30 28 27 25 23 21
66 71 70 33 24 20 20 24 27 27 32 33 31 30 29 14
14 13 26 43 19 25 17 18 13 22 26 26 26 25 24 21
19 16 19 25 68 29 63 19 18 20 19 21 24 21 24 22
20 17 23 25 22 22 21 25 76 31 22 18 18 21 20 27
28 34 59 38 8 50 15 26 51 26 8 4 0 0 0 0
37 28 16 17 20 23 25 23 16 26 41 32 27 28 28 27
27 27 27 26 26 27 26 14 14 19 25 24 25 15 22 25
25 48 52 33 25 21 14 5 13 30 28 29 26 23 22 21
66 76 62 38 19 20 20 24 26 27 27 28 26 25 25 13
15 15 37 53 50 28 18 18 15 26 25 24 25 23 24 21
21 19 21 28 84 34 57 18 22 26 31 38 42 38 50 44
25 16 23 23 20 20 21 24 68 26 21 15 13 18 22 23
29 26 22 41 20 19 41 43 17 10 9 5 0 0 0 0
