P2
128 120
158
53 52 51 50 49 49 47 47 46 44 44 43 43 41 41 40
39 38 37 36 35 35 34 34 32 32 32 31 30 28 27 27
27 27 25 10 0 0 0 0 0 0 0 0 0 0 0 7
13 8 3 0 0 0 0 0 0 0 0 0 0 0 4 0
0 0 0 0 0 0 0 0 0 0 0 0 0 0 0 1
2 4 9 16 22 25 25 25 25 26 28 28 29 29 29 31
31 31 32 33 34 35 36 36 37 38 39 40 41 42 42 42
42 43 44 45 46 47 46 49 49 48 50 51 50 51 51 51
53 53 51 51 50 49 48 47 46 45 44 43 43 42 41 41
40 39 38 38 36 35 35 34 33 32 31 31 30 29 28 28
27 27 26 22 8 1 0 0 0 0 0 2 8 8 2 17
22 19 16 11 4 0 0 0 0 0 0 0 0 0 5 0
0 0 0 0 0 0 0 0 0 0 0 0 0 3 9 14
20 24 24 25 25 26 27 28 29 29 30 30 31 32 32 34
34 35 36 36 37 38 40 40 41 41 42 42 41 42 43 44
46 46 47 48 49 49 50 50 51 52 50 52 51 52 53 52
53 52 51 50 49 49 49 48 47 46 45 45 44 42 41 41
40 39 38 37 37 36 35 34 34 33 32 31 31 30 30 29
28 28 27 25 20 13 7 1 0 4 11 15 18 15 5 19
24 20 18 17 16 13 6 1 0 0 0 0 0 0 0 0
0 0 0 0 0 0 0 0 0 1 3 10 17 23 25 26
26 27 27 28 28 29 29 30 31 31 32 32 34 35 35 36
37 38 39 40 40 41 42 41 42 42 43 45 46 47 47 48
49 49 50 49 51 51 51 52 51 52 51 52 53 53 53 53
54 53 52 52 50 50 49 48 47 46 45 44 44 43 42 41
40 39 39 38 38 37 36 35 34 33 33 32 31 29 30 29
28 28 27 27 23 18 16 14 11 14 19 22 23 18 7 19
25 22 21 19 18 18 16 13 5 0 0 0 0 0 0 0
0 0 0 0 0 1 3 9 14 19 23 25 25 25 26 27
28 29 30 30 31 31 32 33 34 34 35 35 36 37 38 38
40 40 41 41 42 42 43 44 45 46 46 47 48 48 49 50
49 50 51 51 52 53 52 52 52 52 53 53 53 53 53 53
53 53 52 51 50 49 49 48 48 47 46 45 45 43 43 42
41 40 39 38 37 37 36 35 34 34 33 33 32 31 30 30
29 28 28 26 24 20 17 16 17 21 24 24 25 21 10 19
28 27 24 22 20 19 18 15 13 10 7 0 0 0 1 4
0 0 1 3 10 16 21 24 25 25 25 26 27 28 29 29
30 31 32 32 33 33 34 35 36 36 37 37 38 40 40 40
41 41 42 43 44 45 45 46 48 47 47 48 49 50 51 51
51 52 52 52 52 52 52 51 51 52 52 52 52 53 53 52
53 52 52 52 51 50 49 48 47 46 46 45 44 43 43 42
41 40 40 38 37 38 37 36 35 35 34 33 32 31 31 30
30 28 28 27 25 23 20 18 18 22 24 24 26 23 15 22
31 29 27 25 24 21 20 19 15 13 10 10 11 15 18 18
6 8 17 22 24 25 26 26 27 28 28 29 30 30 30 31
32 32 33 34 34 35 36 36 38 38 39 39 39 40 41 42
43 44 45 46 46 46 47 47 48 49 49 50 50 51 50 50
51 51 51 51 51 52 52 52 52 53 52 53 53 53 53 53
53 53 52 51 51 50 49 48 48 47 46 45 44 44 43 42
41 40 39 39 38 37 36 36 35 35 34 34 34 32 31 31
30 29 28 27 26 24 22 20 19 23 25 27 29 26 20 26
34 30 27 26 25 24 22 19 16 15 14 14 19 22 20 20
19 23 25 25 27 27 28 28 28 29 30 31 31 32 33 33
33 35 34 35 36 37 37 37 38 39 39 40 41 43 43 44
45 45 46 46 48 47 48 48 49 49 49 49 50 50 51 51
51 51 51 51 51 51 51 51 51 51 52 52 52 52 52 53
53 53 51 51 51 51 49 49 48 47 46 45 45 44 43 43
41 41 39 40 38 38 38 37 36 35 34 33 33 32 31 30
30 29 28 28 27 26 24 22 22 26 29 31 31 28 19 24
35 31 28 27 26 25 24 22 19 19 17 14 18 21 21 20
23 25 27 28 29 29 30 30 31 31 32 32 32 33 34 35
35 36 36 37 37 37 37 38 40 40 41 42 42 44 44 45
45 46 46 46 48 49 49 49 50 51 50 50 51 51 51 51
50 51 51 51 51 52 52 52 51 52 52 53 53 53 54 54
54 53 53 52 51 50 49 49 48 47 46 46 45 44 44 43
42 41 40 40 39 38 38 37 36 35 35 35 34 33 33 32
31 30 30 29 28 26 24 23 23 28 31 32 34 29 20 22
36 33 30 28 27 26 25 23 21 23 21 16 16 22 21 23
25 28 29 29 30 31 31 32 32 32 33 33 34 34 35 36
36 36 37 37 38 39 40 40 42 42 42 43 44 45 45 46
46 47 47 48 49 49 49 50 49 51 50 50 50 51 51 51
51 51 51 52 52 51 52 52 52 52 53 53 52 51 50 51
54 54 52 52 51 50 49 49 48 48 47 45 45 44 44 43
42 41 41 40 40 38 38 38 37 36 35 35 34 33 32 32
32 31 30 30 29 28 26 25 25 30 34 35 35 31 20 22
37 33 30 29 28 27 26 24 22 24 24 19 16 24 22 25
28 29 29 30 31 33 33 33 34 34 34 34 35 35 36 36
37 37 38 38 39 41 40 41 42 44 43 44 45 45 46 46
47 48 48 48 49 49 49 50 51 51 50 51 51 51 52 50
51 51 52 51 52 52 53 52 51 51 51 51 53 53 53 53
54 54 53 52 51 51 50 49 48 48 47 46 45 44 44 44
43 42 41 40 39 39 38 38 37 37 36 35 35 34 34 33
33 32 31 31 30 29 28 27 27 31 35 36 36 32 23 22
38 34 31 31 30 28 27 25 25 25 24 20 16 24 24 27
29 31 32 32 33 34 34 34 35 36 35 35 36 36 37 38
39 39 40 41 41 41 42 42 43 45 43 44 45 45 46 47
47 48 48 49 49 50 50 50 51 52 50 50 52 51 52 52
51 52 52 52 51 50 51 52 53 53 52 53 52 53 52 52
53 53 53 52 51 50 50 49 48 48 47 46 46 45 45 43
43 42 41 41 40 40 39 38 38 37 36 35 35 35 34 33
33 32 32 31 31 30 30 30 30 34 37 37 38 33 23 20
37 35 32 31 30 29 28 27 27 26 26 23 18 25 26 29
31 32 32 33 34 34 35 35 35 35 37 37 37 38 38 39
40 40 40 41 42 42 43 43 44 45 45 45 46 47 47 47
47 48 48 49 50 50 50 50 50 52 51 52 52 52 52 51
51 50 52 53 53 52 53 53 53 53 52 53 54 53 53 53
55 53 53 52 51 50 49 49 48 48 47 46 46 45 45 44
44 42 42 41 40 40 39 39 38 37 36 36 36 35 34 34
34 32 33 32 31 31 30 30 32 34 37 38 38 34 25 21
38 36 33 32 32 31 30 28 28 27 27 24 20 26 27 31
32 33 33 34 34 34 36 36 36 38 38 38 38 38 39 39
40 40 41 41 42 43 43 43 44 46 45 46 46 47 48 48
48 49 49 49 50 50 50 51 51 51 50 49 49 50 50 51
52 52 52 52 53 53 53 54 54 52 53 53 54 53 53 53
54 53 53 52 52 51 50 49 49 48 48 47 46 45 45 44
43 43 42 41 40 40 39 38 38 38 37 37 36 36 35 35
35 34 32 33 32 31 31 31 32 35 39 38 39 34 26 21
37 35 33 33 32 31 30 31 30 28 28 26 21 27 29 32
33 33 34 35 35 36 36 37 37 37 39 38 39 40 40 40
40 40 41 41 42 43 43 44 44 46 46 46 47 47 48 48
49 49 49 50 51 50 49 49 48 49 50 52 53 52 52 52
52 52 52 53 53 52 53 52 52 52 53 52 52 53 53 53
55 54 53 53 52 51 50 49 49 48 48 47 46 46 45 45
45 43 43 42 41 40 40 39 38 38 38 37 36 36 35 35
34 34 33 33 33 32 32 32 33 37 39 39 40 35 28 22
37 37 34 33 33 32 32 30 30 29 28 26 24 27 29 33
35 35 35 36 37 38 38 38 39 38 39 40 40 39 40 41
41 42 42 42 43 43 44 44 45 47 46 47 48 48 49 49
47 46 49 48 49 49 51 52 52 51 52 52 52 52 51 52
52 53 52 53 54 52 53 53 53 53 52 52 53 53 52 52
53 53 52 52 52 50 50 50 49 49 48 48 47 46 46 45
44 43 43 42 41 40 40 40 39 38 38 38 37 36 36 35
35 34 34 33 33 32 32 32 33 37 40 40 40 36 29 24
36 37 34 33 34 33 32 31 31 30 30 28 26 30 32 35
35 36 36 36 37 37 38 38 39 38 40 39 40 40 41 41
41 42 42 42 43 43 44 45 46 47 47 47 48 48 47 46
49 49 49 50 50 50 51 50 51 50 51 52 52 51 52 53
53 53 52 54 53 53 53 53 53 53 53 53 53 53 52 52
54 53 53 52 51 51 50 49 49 49 48 47 46 46 45 45
44 44 44 42 42 41 41 40 40 39 39 38 37 37 36 36
35 34 34 34 34 33 32 32 34 37 41 40 41 36 30 22
33 37 34 33 34 34 33 33 32 30 30 30 26 30 33 35
36 37 37 37 38 38 38 39 39 39 40 40 40 40 41 41
41 42 43 43 44 45 45 46 46 47 45 45 45 46 47 49
49 51 50 50 50 51 52 51 51 51 51 52 52 52 52 52
52 52 52 52 53 53 53 53 53 53 53 54 53 53 52 52
54 53 53 52 52 51 51 50 50 49 48 48 48 46 45 46
44 43 43 42 42 41 41 40 40 40 39 39 38 38 37 36
36 35 34 34 33 33 33 33 35 38 41 41 41 37 31 17
27 38 35 35 35 33 34 33 32 31 31 30 27 33 35 37
37 37 38 38 38 38 38 39 39 40 41 41 40 41 42 42
42 43 43 44 43 44 43 43 43 44 46 47 48 49 49 50
50 51 51 51 51 50 51 51 51 51 52 51 52 52 52 52
52 52 52 52 53 52 53 52 52 53 53 52 52 52 52 52
53 53 53 52 52 51 50 50 50 49 48 48 47 47 46 46
45 44 43 43 42 42 41 41 40 39 39 39 38 37 36 36
35 35 35 34 34 33 33 34 35 39 42 42 42 38 28 21
31 39 36 35 35 34 34 34 33 31 31 31 27 33 35 37
37 37 38 38 38 38 40 40 40 40 40 41 41 42 42 42
42 42 42 42 42 43 45 46 47 47 46 48 48 49 49 49
50 51 51 51 51 51 52 52 52 51 51 52 52 52 53 52
51 52 52 52 52 52 52 53 53 52 53 53 52 52 52 52
53 53 52 52 52 50 51 50 49 49 48 48 47 46 46 46
45 44 44 43 42 42 41 41 40 39 40 39 39 38 38 37
36 35 35 34 34 34 34 34 35 39 42 43 41 38 29 29
30 41 37 36 36 35 34 35 33 33 32 32 29 34 35 37
38 37 38 39 38 39 39 40 39 40 41 40 41 42 42 43
43 43 44 45 45 46 46 46 47 48 48 47 48 50 49 50
50 51 51 51 51 51 52 51 52 51 51 51 52 52 52 52
52 52 53 53 53 52 53 53 53 53 53 53 53 52 51 51
53 53 52 51 51 51 51 50 50 49 48 48 47 47 46 46
45 45 44 43 43 42 42 42 41 40 39 39 38 38 37 36
37 36 35 35 34 35 35 35 36 40 43 42 41 38 30 30
29 39 37 37 36 36 35 35 35 33 33 33 29 35 36 38
38 38 39 39 39 40 40 40 40 40 40 40 41 41 42 42
43 43 45 44 45 46 46 46 47 47 48 48 49 49 50 50
51 51 51 51 51 52 52 52 52 52 51 52 52 52 51 52
52 52 52 52 53 53 53 53 53 52 52 52 52 53 53 53
54 53 52 52 52 51 50 50 50 50 49 48 48 47 47 47
45 45 44 44 43 42 42 41 41 41 40 39 39 39 38 38
37 36 36 36 35 35 35 35 36 40 43 43 43 39 31 33
30 39 38 37 36 36 36 36 35 33 33 33 30 36 37 39
39 39 39 39 40 40 40 39 39 40 41 41 42 42 43 44
45 45 46 45 45 45 46 46 47 48 47 49 49 50 50 50
51 51 52 52 52 51 51 52 52 51 51 51 52 52 53 53
53 53 52 53 52 51 51 52 52 53 53 53 52 53 52 52
54 54 53 52 52 52 51 51 50 50 49 49 48 48 47 46
46 45 45 45 44 44 43 42 41 40 39 39 39 38 38 38
37 37 36 36 36 35 36 36 37 40 44 43 43 39 31 33
30 39 39 38 38 36 36 36 36 34 35 34 31 36 37 39
39 39 39 39 40 40 41 41 41 42 42 42 43 43 43 44
44 45 46 45 46 46 47 47 48 48 48 49 50 50 50 51
51 52 52 51 52 52 53 53 52 53 52 52 53 52 53 51
52 52 52 52 53 53 54 53 53 52 53 53 53 53 52 52
54 53 52 52 52 51 51 50 50 49 49 49 48 47 47 47
47 45 45 44 44 43 42 42 42 41 40 40 40 39 38 38
37 37 37 36 36 35 35 35 37 40 44 44 43 40 31 34
31 39 40 39 38 37 37 36 37 35 35 34 30 35 35 39
39 39 40 40 40 41 42 42 42 41 42 42 43 44 44 44
44 45 46 45 46 47 47 48 48 48 49 49 50 50 51 51
51 52 53 52 52 52 53 53 52 51 52 51 51 52 52 52
53 53 53 52 52 52 53 52 52 53 52 53 52 52 52 51
53 53 53 52 51 51 51 50 50 50 49 49 48 47 47 47
46 45 45 44 44 43 43 42 42 41 40 41 40 39 39 38
38 37 37 36 36 36 36 36 37 40 44 44 43 40 31 34
31 38 39 38 38 37 37 37 37 35 35 35 31 36 36 40
40 40 40 41 41 41 42 42 41 42 43 43 44 43 44 44
45 45 46 46 46 46 47 48 48 49 50 50 50 50 50 51
51 51 52 52 52 52 51 51 50 51 51 52 52 52 52 52
52 52 52 52 51 51 51 51 52 52 51 52 52 52 51 51
54 54 53 52 51 52 51 50 50 50 49 49 48 48 48 47
47 46 45 44 44 43 43 42 42 42 41 41 40 40 39 39
38 38 37 37 37 36 36 36 38 40 45 44 44 41 31 36
34 38 40 39 39 38 37 37 38 35 35 35 31 37 37 40
41 41 41 42 42 41 42 42 42 42 43 43 43 43 44 45
45 46 47 46 46 47 47 47 48 49 50 50 50 50 51 51
51 50 51 51 50 51 51 53 53 53 52 52 52 52 52 52
52 52 52 52 52 51 52 51 52 52 52 52 52 51 52 51
53 53 52 52 52 52 51 52 51 51 50 49 48 48 48 47
46 45 45 44 44 44 43 43 42 42 41 41 40 40 39 39
38 38 37 37 37 36 37 37 38 42 45 45 44 42 32 36
35 37 40 40 39 38 37 37 39 36 36 35 32 38 37 40
40 41 42 42 42 42 42 42 42 42 43 43 44 44 45 45
46 45 47 46 47 47 48 48 49 49 50 50 50 49 49 49
50 50 51 52 52 52 52 51 52 53 54 52 52 52 53 53
52 52 52 53 51 51 52 52 52 52 53 52 53 53 52 52
54 53 53 52 52 51 51 51 50 50 50 49 49 48 48 48
46 46 46 45 45 44 44 43 43 42 42 41 41 40 40 39
39 39 38 37 37 36 37 36 37 42 45 45 46 42 32 36
38 36 39 40 39 38 38 37 38 36 36 35 32 37 37 41
41 41 42 42 43 43 43 42 42 42 42 43 44 44 45 45
46 46 47 47 48 48 48 48 48 48 49 49 50 50 51 51
52 51 51 52 52 52 52 52 53 53 53 51 51 52 52 52
52 52 52 53 52 52 51 51 52 53 53 51 52 53 52 51
53 52 53 52 52 51 52 51 51 50 50 49 48 48 47 47
47 45 45 45 44 45 44 43 43 43 42 42 41 41 40 40
39 38 38 38 37 37 37 37 38 42 46 45 45 42 32 36
39 34 39 39 39 38 38 37 38 36 37 36 33 38 38 41
42 42 42 42 43 42 43 43 42 43 44 43 44 45 45 45
46 46 47 46 47 46 46 47 48 49 50 51 51 51 51 52
52 52 52 52 52 52 52 52 52 52 54 52 52 52 52 52
52 52 52 51 51 51 51 51 51 52 53 52 52 52 52 52
53 54 53 53 52 52 51 51 50 50 49 49 49 48 48 47
47 46 47 46 45 45 44 44 43 43 43 42 42 41 40 40
39 39 39 39 38 38 38 38 39 42 47 46 46 43 33 37
42 34 42 41 40 39 39 37 37 36 36 37 33 38 38 42
42 43 43 43 44 44 44 43 43 44 44 45 45 45 45 46
46 46 46 47 48 48 49 48 49 50 51 50 50 51 52 52
52 52 53 53 53 53 53 52 53 53 54 52 52 52 52 52
52 52 52 52 52 53 52 53 52 53 53 52 52 52 52 52
54 53 53 52 52 53 52 52 51 51 50 49 49 49 48 48
47 47 46 46 45 45 45 45 44 44 43 42 42 41 41 40
40 39 39 38 39 38 37 38 39 42 47 47 47 43 33 37
44 33 42 41 40 40 39 37 38 37 38 37 34 38 38 42
42 43 43 44 44 44 44 44 45 45 45 45 45 45 46 46
47 47 47 47 49 49 49 49 50 50 51 51 51 52 52 51
52 52 52 52 52 52 52 52 52 53 54 52 52 53 53 53
53 53 53 53 53 52 52 53 53 52 52 52 53 53 51 50
54 53 53 52 52 52 52 51 50 50 50 50 49 49 49 48
48 48 47 47 46 45 45 45 44 43 43 43 42 41 41 41
40 40 40 39 39 39 39 39 40 43 47 47 46 44 33 37
45 33 42 41 41 41 39 38 39 38 38 38 34 39 39 43
43 43 44 44 44 44 44 43 44 44 44 46 46 46 46 46
47 47 48 48 49 50 50 50 51 50 52 51 52 52 51 52
53 52 53 53 52 53 52 53 52 52 54 52 52 51 52 52
52 52 52 53 52 53 54 53 53 52 52 51 48 47 48 49
54 53 53 53 52 52 52 51 50 50 50 50 49 49 49 48
48 47 47 46 46 45 45 45 45 44 43 43 42 42 42 42
42 41 40 40 39 39 39 39 40 43 48 48 47 45 33 37
47 34 41 42 41 41 41 39 40 38 39 38 35 39 39 43
44 44 44 44 43 44 44 43 44 45 46 47 46 46 48 47
48 48 49 48 49 49 49 50 50 51 53 51 51 51 52 53
53 53 53 53 53 52 52 52 52 52 54 53 53 53 53 53
53 53 53 52 52 52 51 50 51 51 52 52 52 52 51 51
54 54 53 52 52 52 52 51 51 50 51 50 50 48 49 49
48 48 47 46 46 45 45 45 44 43 43 43 43 42 42 41
42 41 40 40 40 40 39 40 42 43 48 48 47 45 33 37
47 35 41 42 42 41 40 39 38 38 39 38 34 38 37 42
43 43 43 44 44 45 45 45 45 45 45 48 46 47 47 47
47 47 48 49 49 49 50 50 51 51 52 51 52 52 52 52
52 52 52 52 52 53 53 53 53 53 55 53 53 53 53 52
51 51 52 51 51 52 53 54 53 52 52 52 51 51 50 50
53 53 53 52 52 51 51 51 51 51 51 50 50 49 50 49
48 47 47 47 46 45 45 44 44 44 44 44 43 43 42 42
41 41 41 40 40 39 39 40 41 43 48 48 48 45 34 37
49 37 40 43 43 42 41 40 41 38 39 39 35 39 38 43
44 43 44 44 45 44 46 45 45 46 46 48 47 46 48 47
48 49 49 49 50 49 50 50 50 51 52 52 51 52 52 53
53 52 52 52 53 53 53 53 53 52 52 48 50 50 51 51
52 53 54 54 51 51 51 50 51 51 50 50 51 51 50 49
53 53 53 53 52 52 51 51 52 51 51 50 50 50 49 48
48 48 47 47 47 46 45 46 44 44 44 43 43 42 42 42
42 41 40 40 40 40 40 40 41 43 48 48 47 45 34 36
49 39 38 43 42 42 41 40 40 39 40 39 36 40 40 44
44 44 44 45 44 45 45 46 46 46 46 47 46 46 47 47
47 47 48 49 50 50 49 50 51 51 52 52 52 52 52 53
52 53 52 52 52 51 50 50 51 52 52 51 52 52 51 51
50 52 53 54 50 51 51 51 52 52 50 51 50 51 49 48
34 49 53 52 52 52 51 51 51 50 51 50 50 49 49 49
48 48 47 46 46 45 46 45 44 45 44 43 43 43 43 42
42 41 40 40 40 40 39 40 40 43 49 47 47 45 34 37
49 42 36 43 43 42 41 40 40 39 39 39 37 39 40 44
44 44 42 42 42 41 42 45 46 46 46 48 47 47 47 47
48 48 48 49 49 50 50 51 51 51 52 51 51 51 52 52
52 51 51 50 50 51 53 52 52 53 52 52 52 51 52 52
52 52 52 52 50 51 50 51 52 51 50 50 50 49 49 48
25 47 53 53 52 52 51 51 51 51 50 50 49 49 49 48
48 47 47 47 46 45 45 45 44 44 44 44 43 43 43 42
41 41 40 40 40 40 39 40 40 43 48 47 46 45 34 36
48 43 34 43 42 42 41 40 41 38 39 39 36 39 39 43
43 41 42 43 41 43 43 43 42 46 47 48 47 47 47 47
47 48 48 49 50 49 50 51 51 51 51 51 50 49 51 50
51 51 52 51 51 52 51 52 51 51 51 51 51 52 51 51
52 51 51 52 50 51 50 50 52 50 50 50 50 49 49 48
25 46 53 52 52 52 51 49 50 51 51 51 50 49 49 48
48 48 48 47 47 46 46 45 47 53 50 47 45 43 43 43
42 42 41 41 40 40 39 40 40 43 48 47 47 46 34 37
49 45 33 43 43 42 41 40 40 38 39 39 37 39 40 44
41 39 42 35 42 38 38 43 44 41 46 48 47 47 48 48
48 48 50 49 50 49 49 50 49 49 50 50 50 50 51 50
50 51 52 51 51 51 51 51 51 51 51 51 51 51 52 51
51 51 51 52 50 50 50 50 51 50 50 49 49 49 49 49
26 46 53 52 52 52 51 58 62 59 57 53 51 49 47 48
48 47 47 46 46 46 45 45 54 64 60 54 53 50 45 42
41 42 41 40 40 40 40 40 42 43 48 47 47 45 34 35
48 45 31 42 42 42 41 40 41 38 39 37 35 35 45 54
78 84 62 51 51 44 37 39 45 44 43 48 47 46 47 47
47 47 48 48 48 49 48 51 49 49 50 50 50 49 50 50
50 50 51 51 51 51 51 50 51 51 51 51 50 50 51 50
51 51 50 51 49 50 50 50 50 51 50 50 50 49 49 49
29 48 54 53 52 52 51 60 67 64 62 58 56 55 55 50
49 48 47 46 45 46 46 45 53 61 58 54 56 56 51 42
42 41 41 41 40 40 40 40 41 43 48 48 47 46 34 35
47 47 30 41 43 42 41 40 41 38 33 25 31 40 53 99
139 141 115 74 33 34 42 38 26 25 28 34 41 46 46 47
47 48 48 50 47 49 48 49 49 49 49 49 49 49 49 50
49 49 51 51 50 51 51 51 51 50 51 50 50 50 50 51
51 50 50 50 50 49 50 50 50 51 50 49 50 49 49 48
29 52 55 55 54 52 52 60 67 65 60 60 61 63 63 56
57 55 51 48 47 47 46 46 51 49 51 52 55 55 53 44
42 41 41 41 41 40 40 40 41 43 48 48 47 42 32 27
31 47 30 41 43 41 32 22 14 7 6 7 11 16 34 116
126 148 101 72 3 4 0 0 2 42 81 75 35 18 30 42
47 48 48 50 49 49 48 49 49 49 49 50 50 50 50 50
50 50 50 52 50 50 51 51 50 50 50 51 51 51 50 51
51 50 50 50 51 51 50 50 49 50 50 50 50 49 49 48
30 55 59 54 56 56 55 58 41 48 58 62 66 66 64 48
43 53 56 57 54 54 52 48 48 30 23 25 29 35 44 45
43 43 42 42 41 40 41 40 42 43 48 48 47 38 27 28
35 49 32 38 30 18 18 1 0 0 0 0 0 0 46 95
38 139 31 114 12 0 0 0 0 0 0 1 1 0 6 28
49 48 49 50 48 49 50 50 50 49 49 49 50 50 50 50
51 50 51 52 52 52 51 50 51 50 51 51 50 49 50 50
51 50 51 52 51 51 51 51 51 50 51 50 50 49 49 47
29 54 59 49 49 57 62 62 7 2 20 39 44 49 57 31
1 5 14 27 34 44 53 53 49 28 12 17 16 6 16 47
43 42 42 41 40 41 41 41 42 44 49 49 48 45 34 34
47 49 33 23 5 6 0 0 0 0 0 0 0 0 78 57
63 134 10 88 71 0 0 0 0 0 0 0 0 0 4 19
49 48 49 50 48 49 49 49 49 49 50 50 50 51 51 50
50 51 51 52 51 50 50 50 51 51 50 50 51 51 51 51
52 52 52 51 51 51 50 50 50 48 49 48 47 49 49 50
29 45 56 58 57 58 66 65 8 0 8 19 24 23 43 30
0 0 0 0 2 3 9 24 49 26 4 6 8 4 14 48
43 43 43 43 42 42 41 42 43 44 50 50 49 47 36 37
49 50 36 18 2 6 0 0 0 0 0 0 0 2 114 43
105 139 53 56 125 8 0 0 0 0 0 9 79 88 37 13
49 48 49 50 49 49 49 50 49 50 50 50 51 49 50 50
50 50 51 52 52 50 50 50 51 50 50 50 51 51 51 51
52 52 52 50 48 49 50 49 50 50 50 51 50 50 49 49
23 5 8 18 33 48 58 62 10 0 5 13 15 18 40 34
2 0 0 0 0 0 0 9 50 20 0 0 5 2 14 50
43 43 42 42 41 41 41 41 43 44 49 50 49 47 37 38
49 51 39 15 1 0 0 0 0 0 0 0 0 13 109 27
59 87 28 10 66 23 1 3 0 0 0 0 35 49 26 7
49 48 48 51 49 49 50 49 49 49 50 50 50 50 51 51
51 50 51 51 51 50 50 50 50 50 51 51 51 52 52 52
51 51 52 51 51 50 50 50 49 50 49 50 52 49 49 49
23 2 0 0 0 1 6 28 13 0 1 3 1 9 35 31
0 0 0 0 0 0 0 8 49 10 0 0 0 2 15 51
44 43 42 43 42 42 42 42 43 45 49 49 49 47 37 37
49 50 41 14 2 0 13 117 14 0 0 4 1 9 13 11
21 39 25 21 9 26 11 4 7 8 10 18 6 3 25 10
46 48 49 50 48 50 49 50 51 50 50 50 50 50 51 51
51 50 52 50 51 51 51 51 51 51 51 51 52 52 52 52
52 51 51 50 51 50 51 51 49 50 50 50 52 51 50 50
23 1 0 0 0 0 0 15 12 0 0 0 0 3 37 31
0 0 0 9 13 1 0 6 48 9 0 0 0 1 14 53
44 43 43 42 42 41 42 43 43 44 50 50 50 48 37 38
49 49 43 14 19 5 28 70 9 7 6 4 15 11 17 76
102 104 106 95 42 15 38 52 37 25 14 8 55 41 40 10
40 47 48 48 49 49 50 49 50 50 51 51 50 51 51 51
51 51 50 51 52 52 52 52 52 51 52 51 52 52 52 51
51 51 50 50 50 51 50 51 50 51 50 51 52 51 50 51
23 2 0 0 0 0 0 12 11 0 0 0 0 2 40 35
0 0 1 13 22 15 6 4 47 6 0 0 0 0 10 52
43 43 43 42 43 43 42 42 44 45 50 50 50 48 37 37
48 50 44 14 30 37 42 28 4 17 34 53 28 17 82 106
110 112 111 105 101 68 22 40 87 91 83 59 70 57 27 12
35 45 46 48 49 49 50 49 50 50 51 50 49 50 50 50
50 50 50 51 51 51 51 51 50 49 50 51 52 51 51 51
51 51 51 51 52 52 52 51 52 53 51 51 50 48 47 46
23 2 0 0 14 4 0 10 9 2 0 0 0 2 37 37
0 0 2 16 22 21 18 5 47 9 0 0 0 0 7 52
44 42 42 42 42 42 42 42 44 44 50 50 50 48 36 36
48 51 45 14 29 39 64 53 51 73 83 48 17 74 107 96
96 99 99 100 101 102 71 15 34 88 88 80 66 56 27 6
25 47 46 48 47 48 49 49 50 50 50 50 50 50 49 50
50 50 50 50 50 50 51 50 50 49 49 51 52 51 51 51
52 52 52 52 51 50 51 51 52 50 47 46 46 46 44 42
23 3 13 10 11 3 0 9 11 2 0 0 0 8 37 40
0 0 1 13 21 20 19 5 46 15 1 0 0 0 6 52
43 43 43 43 43 43 42 43 44 44 50 50 49 47 35 36
47 49 45 14 27 47 65 60 81 84 66 14 59 93 66 63
93 74 70 81 54 46 77 62 9 27 75 80 75 55 40 9
12 37 41 46 48 48 49 49 50 50 50 51 50 50 50 49
50 50 50 50 50 50 51 50 50 50 50 51 52 52 51 51
51 51 49 47 47 48 49 48 46 41 36 32 28 25 23 20
25 8 14 1 7 5 0 11 12 0 0 0 0 14 42 46
3 3 5 1 8 18 17 3 46 51 40 30 21 16 21 53
44 44 43 43 43 42 43 43 44 45 50 51 50 46 37 38
49 50 45 13 29 52 56 68 68 64 17 28 80 48 27 11
1 3 3 1 1 14 63 90 30 6 51 62 69 55 44 13
4 23 36 43 48 48 49 49 50 50 49 51 50 51 51 50
51 51 51 51 51 51 51 51 50 49 51 51 50 49 49 48
49 46 42 39 34 30 27 24 21 20 21 21 22 23 24 24
23 8 3 0 0 2 0 15 38 21 15 13 4 2 37 65
46 40 34 23 12 10 10 4 46 60 57 55 55 60 62 59
43 43 42 43 43 42 42 43 45 45 51 51 49 44 38 38
48 49 39 8 36 55 57 57 50 32 10 51 66 39 8 0
0 1 2 1 3 19 32 60 46 13 47 63 50 46 42 19
1 8 28 41 46 47 49 49 50 50 50 51 50 50 50 49
49 50 49 48 48 47 50 47 48 46 47 45 41 36 32 29
25 23 22 21 21 22 23 24 25 27 28 28 29 30 29 31
23 2 0 0 0 0 0 17 69 63 53 54 51 42 54 64
30 33 38 40 41 41 42 44 60 55 55 55 58 64 67 62
44 43 42 42 42 42 42 42 44 44 50 50 50 42 39 40
48 46 31 5 41 53 44 46 54 25 15 40 70 51 14 2
5 11 16 14 13 15 20 33 38 22 46 66 46 39 42 32
0 4 17 36 46 49 48 48 49 49 49 49 48 48 48 47
47 49 48 47 45 42 39 35 31 28 25 24 23 23 22 24
25 27 28 29 27 22 31 32 33 34 34 35 36 35 22 35
24 5 0 0 0 0 0 17 72 59 62 67 71 68 63 54
23 21 22 21 21 21 23 27 32 29 34 41 47 50 50 50
43 43 43 43 42 42 42 43 44 44 50 50 48 39 37 41
47 37 24 2 44 47 33 42 59 31 12 24 42 33 11 6
3 8 13 14 9 1 6 14 15 12 21 43 35 27 27 30
2 0 7 28 45 48 48 49 49 50 49 49 47 47 50 42
36 33 30 27 25 24 25 25 26 27 27 28 30 31 32 32
34 34 35 36 36 15 35 38 39 39 35 36 41 28 35 42
28 41 40 28 17 9 4 19 62 53 64 68 72 72 58 47
26 23 22 20 18 17 15 14 13 14 16 17 35 43 39 38
42 43 43 43 43 42 42 42 44 43 49 49 48 36 33 41
42 28 11 2 44 35 23 24 35 20 5 9 14 17 19 7
2 8 8 13 6 0 8 6 1 5 9 21 23 15 12 24
10 0 2 18 42 49 46 45 41 37 35 31 28 28 46 36
20 24 27 28 29 30 32 32 33 35 35 36 38 39 39 39
40 33 33 41 42 27 30 43 43 43 28 38 38 29 44 44
28 55 68 66 62 59 54 56 54 46 60 65 69 69 61 51
29 23 20 17 16 16 15 15 15 16 17 18 37 25 28 42
43 43 41 41 42 42 42 43 43 43 48 49 47 34 32 38
32 22 1 3 37 22 12 15 15 8 5 1 6 9 16 7
2 5 8 5 2 5 6 1 0 1 1 7 12 10 7 13
11 0 1 9 28 32 28 27 26 26 27 28 28 28 37 31
24 31 34 35 37 38 39 40 40 41 41 41 42 43 43 43
44 44 38 35 45 40 20 45 45 43 26 41 28 39 41 46
28 55 68 68 66 67 67 69 42 11 19 28 38 46 45 52
31 21 18 8 7 7 15 18 18 16 20 22 40 37 35 51
49 47 25 24 42 42 41 42 43 41 47 48 46 35 32 32
24 12 0 6 25 12 5 5 7 1 0 0 0 1 2 3
6 5 4 3 2 1 4 0 0 0 0 2 6 5 3 5
7 0 0 6 24 28 30 31 33 32 34 36 37 36 42 38
30 38 41 42 42 43 44 45 44 45 44 44 44 45 45 45
46 46 46 39 36 44 20 37 47 42 26 31 35 42 42 47
28 48 62 63 64 67 68 69 34 0 0 0 2 14 24 51
30 19 15 1 0 0 7 13 10 5 14 16 38 54 47 47
48 51 43 37 42 42 42 42 31 26 44 48 47 34 23 28
17 0 0 2 8 7 6 6 1 0 0 1 0 0 0 7
0 2 2 0 1 0 0 0 0 1 0 0 3 1 4 2
1 0 0 9 32 35 38 39 40 41 42 44 42 40 37 33
33 43 44 44 45 46 47 47 48 48 47 47 47 46 47 46
46 48 47 47 38 37 34 24 45 38 28 24 46 42 44 46
36 42 47 48 51 51 56 64 29 0 0 0 1 1 16 56
28 19 15 2 0 4 2 0 0 0 1 4 34 55 40 35
34 38 43 46 43 43 43 43 25 24 44 47 48 38 22 30
9 0 0 0 4 3 2 8 2 0 0 2 0 0 0 3
3 6 1 2 2 0 2 0 0 0 0 0 1 0 2 2
0 0 0 6 38 43 44 44 45 45 45 46 45 40 16 12
30 46 49 49 49 48 48 49 49 50 49 49 49 49 48 48
47 49 48 49 49 38 34 14 24 20 23 37 46 41 45 44
32 33 33 37 47 45 52 64 26 0 0 0 3 1 6 56
22 12 2 0 0 14 11 4 1 0 0 1 32 57 41 29
44 41 38 42 44 43 44 44 38 34 46 49 50 45 21 25
1 0 0 0 6 8 1 6 1 0 0 0 0 0 1 3
7 5 2 3 0 0 0 1 0 0 0 2 0 1 2 2
1 1 0 3 37 47 48 47 48 48 47 44 42 39 17 10
25 46 49 51 50 50 50 50 50 49 51 51 50 50 50 49
48 48 48 49 50 47 37 14 1 3 32 43 45 42 46 43
33 34 38 43 48 48 57 63 24 0 0 0 0 0 9 57
8 0 0 0 2 10 20 12 3 0 0 0 33 58 39 23
38 34 36 42 45 45 45 44 43 37 48 50 51 48 23 19
1 0 0 0 5 6 2 1 0 0 0 0 0 0 1 3
0 0 4 5 1 2 0 0 0 0 0 1 1 0 1 1
0 1 0 7 41 49 49 50 49 29 13 9 21 35 13 8
24 46 50 51 51 50 50 50 50 50 50 50 50 49 49 49
48 47 48 48 49 47 47 31 0 10 43 44 38 39 43 44
32 15 8 16 23 32 41 48 24 0 0 0 0 0 11 57
7 0 0 0 2 9 24 19 16 1 1 1 32 59 42 23
29 27 33 42 44 44 44 44 43 39 46 50 51 51 30 20
4 0 0 0 4 7 0 0 0 0 0 1 1 1 1 2
0 0 3 4 4 1 1 1 0 0 0 1 1 1 1 0
0 1 2 7 43 48 49 50 48 31 24 32 39 39 7 3
23 46 50 50 50 49 50 50 50 50 50 49 50 50 49 49
49 47 47 46 47 47 48 41 3 13 46 42 34 34 44 47
37 12 0 0 0 0 0 9 22 0 0 0 0 0 12 54
5 0 0 0 6 25 27 22 20 1 0 3 31 59 46 33
30 24 32 41 45 45 44 45 44 37 46 50 50 50 37 24
10 0 0 0 1 4 1 0 0 0 0 0 1 2 0 1
0 0 4 1 2 0 3 2 1 2 0 0 0 0 0 0
0 2 4 6 39 49 51 50 50 49 48 48 47 40 12 4
23 46 50 50 51 50 50 49 51 50 49 50 50 50 49 48
48 48 47 46 47 48 49 44 7 11 46 45 35 34 45 47
36 13 0 0 2 0 0 5 20 0 0 13 9 1 9 52
3 0 0 0 5 21 31 14 8 0 1 4 27 59 48 35
18 7 23 39 44 44 44 44 43 35 45 50 50 50 42 32
16 0 0 0 0 0 0 0 0 0 0 0 1 0 0 0
2 0 0 2 1 0 1 0 0 0 0 0 0 0 4 0
0 5 29 43 33 47 49 50 49 48 48 47 46 43 20 1
28 46 50 50 50 50 50 50 49 49 49 49 49 49 48 48
49 49 48 46 46 48 49 45 8 8 45 47 36 34 47 47
37 13 0 1 11 3 0 4 20 0 5 27 19 3 10 51
3 0 0 1 2 2 22 3 0 0 1 0 22 58 48 27
12 8 19 39 45 44 45 45 42 35 47 49 49 48 43 36
24 1 0 0 0 0 0 0 0 0 0 0 0 0 0 0
0 1 3 4 2 1 0 0 0 0 0 0 0 0 1 0
0 9 50 60 24 37 49 50 49 49 49 48 45 41 30 16
36 47 50 50 50 50 49 49 49 49 50 48 48 49 49 48
48 49 48 45 46 48 47 46 9 7 44 47 34 32 45 47
33 13 0 10 28 13 3 3 24 1 14 27 22 8 9 48
2 5 0 0 0 0 23 6 0 0 0 0 17 57 44 16
10 0 18 37 44 44 45 44 41 38 48 50 49 49 43 36
28 18 14 1 0 0 0 0 0 0 0 0 0 0 0 0
0 2 5 3 0 0 0 0 0 0 0 0 0 0 0 0
1 17 60 90 38 42 46 48 48 48 48 48 45 40 37 36
43 49 50 51 50 49 50 49 49 50 49 49 48 49 48 49
49 49 48 46 46 41 45 43 11 4 32 35 26 30 43 46
31 14 0 16 30 16 6 4 48 43 47 47 44 38 36 52
2 0 0 0 0 0 21 9 0 1 0 0 10 56 39 11
10 1 26 36 43 45 45 45 40 41 48 50 50 48 39 36
31 39 31 8 0 0 0 0 0 0 0 0 0 0 0 1
0 3 4 6 3 0 0 0 0 0 0 0 0 0 0 0
2 18 78 102 59 45 47 49 49 48 48 48 46 41 41 42
47 50 49 49 49 48 50 49 49 50 49 50 49 49 50 49
49 48 47 44 44 40 32 36 13 3 35 46 38 34 43 46
31 17 0 6 9 5 2 2 51 57 62 63 61 66 71 61
14 10 10 1 0 3 24 12 4 6 1 0 6 48 38 9
3 4 15 34 43 44 44 44 38 42 48 50 50 44 38 38
29 52 56 23 0 0 0 0 0 0 0 0 0 0 2 5
8 5 11 6 7 2 2 0 0 0 0 0 0 0 0 1
3 42 85 93 62 46 47 48 49 48 47 47 46 44 44 46
49 49 49 49 50 49 49 50 49 49 48 48 47 49 48 48
48 48 47 46 44 46 46 46 19 3 33 44 38 32 39 41
32 29 15 4 6 3 0 2 51 58 60 60 61 69 73 68
44 42 40 34 30 30 36 28 23 19 17 14 20 42 41 17
15 17 7 25 42 44 44 43 37 43 48 50 49 41 42 36
34 81 67 41 0 0 0 0 0 0 0 0 0 0 1 4
11 5 9 8 14 10 2 0 0 0 0 0 0 0 0 0
4 64 96 82 58 47 49 49 50 48 48 48 47 46 46 47
48 48 48 47 48 49 49 48 49 48 48 49 49 49 48 48
47 46 46 45 44 45 45 46 22 2 31 44 38 30 39 44
34 34 11 2 5 1 0 2 48 50 55 55 55 60 59 58
50 50 50 48 48 48 47 44 40 36 34 32 35 47 52 37
34 28 23 27 42 45 45 43 37 45 49 50 49 42 44 36
40 85 82 76 5 0 0 0 0 0 0 0 0 0 0 1
7 9 17 21 16 17 11 5 0 0 0 0 0 0 0 0
1 17 60 72 56 48 49 49 48 47 47 48 47 46 46 48
48 48 48 49 50 49 49 48 48 48 48 48 48 48 48 48
47 47 47 45 45 45 46 46 25 3 30 46 39 30 39 44
38 30 5 0 3 1 0 2 53 50 52 52 52 50 46 46
51 52 54 53 51 50 50 49 49 53 50 45 44 50 61 57
57 55 52 45 43 44 45 42 37 45 49 51 48 44 45 36
40 68 93 67 4 0 0 0 0 0 1 0 0 0 3 5
11 20 45 46 18 7 10 5 1 0 0 0 0 0 0 0
0 0 16 53 57 47 47 48 48 48 48 47 46 47 49 49
49 48 49 50 49 49 49 49 49 49 48 48 49 49 48 48
48 47 47 45 44 45 46 45 27 4 27 46 40 30 39 44
34 36 34 29 22 18 14 12 55 53 50 50 51 51 52 54
56 55 59 63 62 52 48 49 53 63 61 56 55 55 49 42
41 42 43 42 43 44 44 42 37 44 50 51 48 44 45 36
40 64 52 13 1 0 0 0 0 0 0 0 0 3 7 16
26 48 91 87 56 22 9 4 2 0 0 0 0 0 0 1
0 0 12 36 47 46 49 49 49 48 49 48 49 48 49 49
49 49 49 50 50 49 50 50 49 48 48 48 48 47 48 48
47 47 47 46 44 45 47 46 29 4 24 45 40 30 38 44
35 46 64 66 61 63 67 65 69 58 53 54 53 54 58 62
61 55 59 67 65 52 47 43 51 64 62 57 58 56 51 41
34 33 32 36 43 44 44 43 36 45 50 50 48 44 45 36
40 50 18 1 0 0 1 0 0 0 0 2 13 28 44 57
73 87 98 93 97 75 44 25 17 11 1 0 0 0 0 4
0 0 20 39 47 47 48 48 48 47 48 47 49 48 48 49
48 48 48 48 48 48 48 47 48 47 47 47 48 47 47 46
47 46 46 44 43 43 46 44 31 3 22 45 40 29 36 43
36 47 74 75 74 74 74 74 74 57 48 46 46 47 55 64
65 57 58 56 55 53 49 42 42 50 44 44 51 52 52 49
42 41 41 42 45 45 44 41 37 46 50 51 48 44 45 37
39 34 10 5 0 0 13 1 0 0 0 7 12 42 65 74
87 104 92 108 103 87 69 55 47 29 8 3 0 0 7 10
0 0 23 41 47 45 47 46 47 47 46 47 48 49 48 48
48 50 48 48 48 49 48 48 47 47 46 46 47 47 46 46
46 46 46 45 44 43 47 46 35 3 18 45 41 30 35 43
37 38 52 55 57 59 61 64 67 40 13 11 6 9 15 34
64 56 38 18 24 27 27 37 46 31 8 3 7 19 26 47
45 44 48 51 54 53 45 40 39 47 49 51 48 44 46 40
41 45 34 10 2 0 23 26 15 11 13 20 31 52 59 75
86 102 109 113 104 100 85 63 60 50 37 23 21 11 31 17
0 0 27 39 47 45 46 44 44 43 42 40 43 48 49 49
48 49 48 47 47 47 47 47 47 46 47 46 48 47 46 47
46 45 47 45 44 43 46 45 36 4 17 44 43 32 35 42
35 34 43 43 42 41 41 41 44 29 3 0 0 0 0 17
61 48 11 0 1 4 13 36 48 29 1 0 0 7 22 38
21 26 29 32 40 55 47 39 40 46 48 50 48 42 45 38
40 48 37 28 9 0 23 36 36 39 35 35 42 40 64 84
93 103 114 120 111 108 90 63 56 56 54 55 58 52 54 22
0 4 27 40 46 46 35 22 20 18 17 15 27 47 49 49
47 47 48 47 47 47 46 47 46 46 46 46 47 47 46 46
46 46 46 46 44 44 45 46 39 5 15 45 43 31 32 42
35 38 51 52 52 51 49 48 49 31 10 2 0 0 5 30
60 34 0 0 0 0 2 39 49 32 0 0 0 3 20 33
1 6 8 2 10 53 48 39 42 46 49 50 48 42 44 37
38 46 43 38 6 0 22 45 52 52 43 46 47 50 64 85
97 104 125 120 116 105 93 74 66 60 75 84 84 75 60 22
0 2 20 44 45 46 32 11 11 11 12 12 24 48 49 49
49 48 48 47 47 47 46 46 46 46 46 45 46 47 46 46
46 45 47 46 44 43 45 45 40 5 14 43 41 28 31 42
34 39 54 55 55 55 55 56 56 33 9 3 0 0 3 20
57 24 0 0 0 0 0 35 47 31 0 0 0 2 17 34
1 13 17 3 6 51 48 38 43 46 49 50 49 43 43 35
36 46 47 35 7 4 23 55 66 64 58 54 43 49 66 95
98 122 126 121 117 112 103 89 72 77 86 94 92 82 64 20
0 2 22 44 45 45 32 12 12 12 12 12 22 47 48 48
49 47 47 47 46 46 46 46 46 46 47 46 45 46 46 46
46 45 46 44 43 42 43 42 39 6 12 38 39 30 31 43
40 41 49 51 52 53 54 54 58 34 1 0 0 3 12 11
54 20 0 0 0 0 0 36 46 29 0 0 0 0 10 37
2 5 7 1 4 49 49 38 43 46 49 50 49 46 40 35
36 47 42 30 10 11 25 61 74 78 73 64 46 50 71 93
111 123 130 130 125 120 107 91 79 88 89 101 101 89 68 20
0 3 22 44 45 45 29 11 11 11 10 11 19 45 49 49
49 48 47 47 46 46 45 45 45 44 44 43 43 45 46 46
46 45 45 45 42 41 41 43 41 8 8 40 41 31 29 40
47 47 46 47 48 49 48 42 55 45 9 0 0 2 8 5
52 17 0 0 0 0 0 35 47 28 0 0 0 0 3 39
4 9 11 3 4 48 49 37 44 46 49 50 48 46 39 33
34 45 39 18 23 18 30 63 77 80 77 72 60 56 75 89
110 125 136 137 131 124 113 97 84 92 97 104 106 93 72 21
0 5 23 44 44 45 32 12 11 12 12 11 15 43 47 46
46 45 45 44 44 43 45 45 45 45 45 45 46 45 44 44
44 44 44 43 40 40 42 42 41 9 5 37 41 31 28 39
45 45 46 47 47 47 48 42 53 50 14 0 0 4 12 7
50 16 0 0 0 0 0 29 48 32 4 0 0 0 3 41
7 2 3 1 3 46 47 37 44 46 48 50 49 47 39 30
33 40 22 14 32 22 33 66 84 89 85 85 76 69 81 102
121 136 141 140 138 131 116 101 95 101 105 107 111 98 78 24
1 5 23 43 44 44 35 18 17 18 18 20 20 37 45 45
46 46 46 45 40 32 31 33 40 45 43 43 44 43 43 43
43 43 43 43 40 39 42 41 40 11 3 34 41 32 27 38
41 42 43 45 46 46 47 44 52 46 1 0 0 0 2 6
50 17 0 0 0 0 0 24 49 30 1 0 0 0 1 42
11 0 1 0 3 44 46 39 44 46 49 51 45 39 37 28
29 23 7 32 35 27 29 65 88 96 94 93 83 77 89 103
121 138 146 144 140 131 120 107 102 110 110 113 112 100 80 27
4 5 21 43 44 44 37 18 18 17 16 17 18 36 45 46
46 46 45 41 5 0 0 0 21 46 44 44 44 44 43 43
42 42 43 42 40 39 41 42 41 13 3 32 41 32 27 38
11 12 13 15 20 35 44 44 48 41 0 0 0 0 1 2
48 21 0 0 0 0 0 20 50 30 2 0 0 0 1 41
17 0 0 0 5 42 44 38 44 46 49 49 41 26 19 11
8 15 31 44 36 30 31 63 89 99 102 100 92 88 97 106
120 137 147 146 140 133 121 110 106 114 114 116 110 105 80 29
3 4 18 41 44 44 36 13 11 12 12 12 14 37 46 46
45 46 46 43 5 0 0 0 16 45 44 43 43 44 43 44
42 43 43 42 40 39 42 42 41 16 2 30 42 34 27 38
0 0 0 0 4 40 46 44 46 40 4 2 1 2 15 6
44 33 11 10 14 12 13 29 54 38 36 33 33 36 41 55
25 6 5 5 9 42 42 37 44 45 48 47 39 31 24 17
18 32 42 45 35 32 32 62 91 101 105 104 99 94 100 108
120 133 143 145 141 137 125 113 111 115 117 119 116 105 80 30
4 4 18 40 44 43 36 12 11 12 12 11 13 38 46 46
45 44 45 40 3 0 0 0 9 44 44 44 44 44 43 43
43 42 43 43 40 39 42 41 42 17 1 30 43 34 27 36
0 0 0 0 3 41 47 43 42 54 48 41 39 43 48 44
48 55 61 57 57 60 60 62 61 40 50 55 58 63 70 70
51 41 39 38 39 45 40 36 42 45 46 43 44 43 36 26
26 41 43 44 33 33 35 58 90 101 107 108 103 97 101 109
123 135 147 147 144 141 128 114 115 116 118 120 118 107 81 32
6 5 17 40 43 44 37 13 11 11 11 11 13 36 46 46
45 45 45 40 3 1 0 0 5 44 45 45 45 44 45 43
43 43 44 43 42 40 43 41 43 20 1 27 42 35 26 36
0 0 0 0 1 39 47 44 40 59 61 53 53 56 52 44
40 50 69 65 64 64 67 68 65 41 45 53 57 63 69 69
54 42 41 41 41 42 41 38 39 43 42 44 46 45 43 32
30 40 41 37 40 40 36 57 90 102 109 111 105 100 98 108
124 134 145 149 147 143 131 118 121 121 122 122 118 108 83 32
5 11 20 41 43 43 37 13 11 11 11 11 13 37 46 45
30 18 24 18 1 0 2 0 4 44 44 44 45 45 44 44
44 43 43 43 41 39 41 42 42 22 0 24 43 35 26 35
0 0 0 0 0 35 47 43 39 58 54 47 51 55 53 44
36 39 48 50 49 48 49 48 50 40 36 42 46 47 44 42
43 42 43 43 42 41 42 40 38 39 42 47 46 45 43 33
32 40 42 43 46 42 40 54 86 100 112 114 110 107 99 109
127 140 148 149 149 147 136 121 122 125 126 124 120 108 84 36
0 16 28 39 43 45 39 13 10 11 11 11 13 36 47 43
5 0 1 0 0 0 3 0 3 42 45 45 44 44 44 44
44 44 44 43 42 40 41 43 42 26 0 21 42 37 26 33
0 0 0 0 0 32 47 42 39 57 38 41 41 45 52 44
38 36 32 33 33 35 35 34 39 42 43 46 47 46 41 38
40 43 42 43 42 42 41 41 42 43 46 49 47 44 40 30
34 39 43 43 49 44 40 49 72 77 114 117 117 115 103 112
132 140 147 149 149 148 138 123 127 132 129 128 120 106 85 46
0 28 20 30 43 45 39 13 11 10 12 12 13 37 47 43
6 0 0 0 0 0 0 0 2 43 46 45 44 44 43 44
44 43 43 43 41 40 41 42 42 27 0 18 43 38 27 34
0 0 0 0 0 28 47 41 42 57 20 13 17 20 24 24
27 38 38 42 42 50 51 46 47 50 51 56 59 57 46 42
41 43 43 43 43 42 42 42 42 44 46 49 47 41 38 35
39 34 29 33 61 24 2 35 80 98 112 117 119 119 105 112
132 139 145 150 149 148 139 126 129 135 134 129 122 109 85 46
6 25 21 18 38 46 40 15 9 11 12 11 11 35 47 46
22 0 0 0 0 0 0 0 2 42 46 45 45 45 45 44
44 44 44 44 42 40 43 43 43 30 0 16 41 37 26 32
0 0 0 0 0 23 46 40 46 60 14 0 0 0 1 7
22 40 47 59 53 66 69 36 28 30 32 37 47 60 48 43
42 43 43 42 43 42 42 42 42 43 46 49 45 36 34 35
39 31 25 28 48 43 1 27 75 97 112 117 120 122 109 110
129 139 143 148 147 147 141 129 131 137 136 130 124 112 84 19
31 29 26 20 20 40 42 22 19 20 14 18 20 36 47 46
37 11 0 0 0 0 0 0 2 14 44 45 45 44 45 44
45 45 44 44 42 40 42 45 45 33 0 14 41 37 29 32
0 0 0 0 0 19 45 38 46 65 18 0 0 0 0 0
24 40 43 57 39 43 55 15 0 0 0 1 23 60 50 44
44 43 43 43 43 42 42 42 41 42 46 49 41 28 7 17
39 30 27 24 30 23 10 15 70 94 110 117 122 126 114 111
131 142 146 149 150 148 143 134 137 140 137 131 124 119 57 19
39 28 26 28 24 29 45 41 43 42 36 41 42 44 45 32
52 12 0 0 0 0 0 0 0 2 42 46 46 45 46 45
45 44 44 44 44 41 41 43 43 34 1 10 37 33 26 30
0 0 0 0 0 15 44 39 44 63 24 0 0 0 0 0
22 40 40 54 16 4 35 15 0 0 0 0 16 56 50 44
44 43 44 43 42 42 41 41 42 43 46 46 39 28 8 17
38 30 29 30 22 25 26 8 64 90 107 117 126 129 120 113
130 140 148 149 150 148 141 139 141 143 140 131 122 99 32 34
29 23 23 24 18 22 45 45 46 47 46 46 46 46 31 3
2 13 11 0 0 0 0 0 0 1 40 45 45 45 45 44
44 44 44 44 44 41 40 43 42 35 1 7 34 31 26 30
0 0 0 0 0 13 43 38 37 30 5 0 0 0 0 0
25 40 41 55 17 3 32 19 0 0 0 0 10 53 50 44
44 43 43 43 42 42 41 41 42 43 45 43 38 35 28 32
38 29 25 29 27 28 31 21 54 86 102 117 128 132 126 117
131 142 147 150 150 149 144 144 143 143 140 131 109 64 65 41
19 25 22 21 17 20 44 44 42 40 38 35 35 23 2 0
0 8 7 0 0 0 0 0 0 0 40 46 46 46 45 45
45 45 45 46 46 43 41 43 43 36 2 5 30 30 26 29
0 0 0 0 0 9 41 37 35 22 0 0 0 0 0 0
27 38 41 55 16 2 29 21 0 0 0 0 5 51 51 43
43 43 43 43 41 41 41 41 41 42 43 43 38 29 27 32
37 29 27 28 27 27 31 29 38 83 99 116 130 134 129 122
129 142 148 150 150 148 147 145 144 147 141 115 63 51 20 15
0 4 24 22 16 17 15 23 16 3 2 1 1 0 18 20
8 11 1 0 0 0 0 0 0 0 31 43 45 46 45 45
46 46 46 46 46 43 42 43 42 35 2 3 29 28 26 29
0 0 0 0 0 8 41 36 35 23 0 0 0 0 1 0
23 38 40 55 16 3 26 23 0 0 0 0 4 49 50 42
43 43 42 42 42 41 41 40 40 41 43 44 38 28 21 25
27 25 29 30 35 32 31 30 26 65 95 113 130 136 135 131
130 144 148 149 149 149 149 147 143 140 119 60 25 13 10 5
0 0 2 43 18 16 22 92 94 8 0 22 18 0 29 36
33 31 9 0 0 0 0 0 0 0 0 14 19 18 40 47
47 47 47 48 47 44 43 43 40 34 3 2 28 29 27 30
0 0 0 0 0 6 40 37 35 26 0 0 0 0 5 0
19 41 40 55 21 4 23 28 4 0 1 2 4 46 50 42
42 42 42 42 42 42 41 40 40 41 42 44 42 35 32 31
30 30 40 32 8 5 38 32 27 34 84 107 128 138 139 133
131 143 149 148 149 150 150 136 106 86 64 41 15 14 16 0
0 0 0 26 45 15 36 42 91 33 4 19 27 12 16 19
24 17 12 11 10 10 11 10 10 10 9 8 7 8 41 51
50 50 51 52 52 50 47 47 43 39 6 1 32 36 35 38
0 0 0 0 0 5 39 38 35 26 1 8 0 0 14 7
16 43 41 56 33 12 21 28 7 9 8 1 2 43 50 42
41 41 42 41 41 42 41 40 40 40 41 44 41 35 36 36
36 36 2 0 0 0 8 28 40 39 58 97 121 137 140 137
135 141 141 148 149 149 145 110 82 67 36 19 10 21 14 1
0 0 0 1 58 12 35 30 18 16 21 23 30 34 35 35
34 31 29 26 23 22 20 19 17 16 14 12 12 17 56 68
67 68 68 69 68 66 61 59 55 49 9 1 33 20 14 14
0 0 0 0 0 3 37 36 34 31 4 11 3 3 18 22
18 47 42 56 32 25 19 25 4 14 12 1 1 38 48 41
42 41 41 41 41 40 40 39 40 39 38 42 42 36 39 38
34 7 0 5 1 0 7 7 16 35 40 46 92 132 139 140
139 142 141 149 151 149 122 95 82 60 19 10 10 45 33 0
0 0 0 0 45 13 39 20 16 12 15 18 24 24 29 30
32 26 18 14 11 8 6 9 42 48 52 56 61 66 70 71
71 71 72 72 71 68 63 58 55 52 12 0 33 2 0 0
0 0 0 0 0 3 37 37 35 38 37 42 42 42 47 49
49 56 43 56 23 32 22 34 22 26 24 21 21 36 41 41
41 41 41 41 41 40 40 39 40 38 37 41 42 37 40 39
25 7 23 17 0 0 47 15 15 29 59 64 45 105 139 143
139 141 140 150 151 141 107 92 81 55 57 28 19 41 24 0
0 0 0 0 40 15 37 13 14 12 15 12 24 27 28 25
26 27 21 8 0 0 0 24 70 69 67 68 67 67 68 67
69 68 68 64 66 62 56 54 53 52 14 0 27 0 0 0
0 0 0 0 0 2 36 37 33 39 61 64 65 65 66 66
67 65 49 55 14 19 23 39 34 34 34 32 32 32 36 40
41 41 41 40 40 40 39 40 39 38 38 41 40 36 41 39
23 17 14 6 0 0 18 12 20 12 9 73 72 64 125 144
141 141 146 149 150 126 100 92 96 36 71 68 11 41 23 2
1 1 0 0 22 17 31 10 13 14 12 11 20 26 27 26
25 20 26 25 36 35 12 38 63 64 59 59 50 56 59 58
62 56 55 43 51 49 40 45 52 51 17 0 17 0 0 0
0 0 0 0 0 2 35 37 33 34 59 63 62 62 61 60
60 59 49 53 13 6 15 39 36 38 38 38 37 37 38 40
40 40 40 40 39 40 39 39 39 39 38 40 38 37 40 35
15 9 5 2 0 0 5 5 5 5 18 43 91 95 91 137
143 143 143 146 133 107 98 62 25 92 39 21 26 46 50 44
22 1 0 2 20 23 88 22 15 15 16 17 22 21 25 24
25 20 19 20 22 25 42 33 34 45 49 45 44 42 43 41
56 41 40 36 34 38 34 44 51 52 19 0 12 0 0 0
0 0 0 0 0 1 34 37 32 28 31 31 30 29 28 27
27 25 31 53 15 4 13 40 38 41 41 41 40 41 40 40
41 41 40 39 39 40 39 39 39 38 37 40 37 36 32 29
12 5 4 0 0 0 5 3 19 28 9 22 23 32 87 101
130 143 142 141 118 103 88 22 20 35 39 49 67 52 21 21
19 6 2 10 36 20 69 21 26 32 23 24 23 19 25 23
23 20 17 15 18 21 29 51 30 36 28 44 51 51 48 39
52 49 48 47 48 48 44 44 50 52 22 0 6 0 0 0
0 0 0 0 0 1 34 36 32 29 25 23 22 22 22 23
23 21 29 52 17 2 11 41 37 42 42 41 41 41 41 40
40 40 39 39 40 40 39 39 39 37 37 36 26 20 25 25
14 6 4 1 19 1 3 8 31 28 34 18 15 17 53 97
105 136 139 121 103 96 35 19 27 8 12 13 16 27 21 21
15 6 0 8 28 30 19 11 23 37 37 41 35 31 67 60
24 23 19 15 35 43 68 104 68 46 21 22 36 52 55 49
51 50 50 49 47 46 45 44 47 49 23 0 1 0 0 0
0 0 0 0 0 1 34 37 32 33 31 29 28 27 26 25
26 23 32 55 33 32 39 45 36 40 41 40 40 40 40 39
40 40 40 39 40 39 39 39 38 36 29 21 21 19 26 22
20 12 1 10 43 17 18 50 35 32 15 15 17 5 14 67
99 114 124 106 99 51 14 31 12 11 12 16 19 23 25 20
17 15 7 13 21 52 15 12 20 21 39 58 48 59 52 60
53 47 44 38 36 41 87 98 98 86 20 21 22 24 36 49
51 49 49 49 49 49 46 46 47 47 24 0 0 0 0 0
0 0 0 0 1 5 38 38 32 34 33 32 32 32 32 31
30 24 34 55 46 58 60 49 36 40 40 40 40 39 39 39
39 39 39 39 39 39 37 37 33 36 19 18 17 23 31 25
20 21 42 23 38 33 45 43 41 20 8 16 17 2 3 16
85 78 83 94 47 17 37 13 8 14 19 20 26 28 24 23
21 21 21 43 17 53 20 15 20 21 23 28 53 68 49 40
47 46 50 35 49 52 83 88 88 48 31 38 35 31 34 30
35 41 40 34 36 38 35 32 36 33 23 0 0 0 0 0
16 17 19 21 24 26 33 33 32 34 34 32 32 32 32 32
31 25 27 37 33 37 40 37 37 39 40 40 39 39 39 39
39 39 39 39 35 29 24 38 24 19 18 21 23 58 67 38
50 49 77 16 13 21 25 18 20 19 16 11 20 16 3 7
38 61 35 56 19 37 22 10 18 22 26 30 30 27 26 23
23 23 27 85 18 66 22 20 22 22 23 21 23 24 21 24
23 50 57 43 19 16 51 54 42 20 23 39 49 46 48 44
33 29 35 32 33 33 28 29 32 37 30 0 0 0 0 0
24 24 25 27 28 28 30 31 33 34 35 33 33 32 32 31
30 26 29 32 34 31 35 36 38 39 40 40 40 40 40 39
39 39 37 27 41 25 22 21 18 14 21 19 30 67 56 51
64 34 33 13 13 23 22 22 22 25 25 21 15 24 18 13
12 52 30 19 32 33 12 18 22 26 33 34 29 28 28 25
23 27 39 100 45 62 21 24 26 24 23 21 25 22 20 26
25 24 21 18 15 16 65 57 39 15 18 18 25 25 37 65
53 41 29 39 45 42 36 40 42 46 35 0 0 0 0 0
24 25 26 27 28 29 30 32 32 33 35 34 34 32 32 31
30 28 29 33 36 33 36 36 37 38 38 39 39 38 38 38
36 30 23 33 52 21 21 18 17 13 18 19 50 71 31 21
50 38 28 17 14 25 26 26 28 30 29 29 21 19 26 12
11 23 22 28 41 12 18 23 22 33 34 32 30 33 29 24
24 26 55 91 51 64 23 24 23 24 26 24 28 26 23 25
28 23 20 15 16 19 77 64 45 16 20 19 22 23 16 24
47 55 48 32 44 51 49 45 47 51 41 0 0 0 0 0
23 23 23 23 24 26 26 28 29 33 35 35 35 34 33 32
31 29 29 33 36 34 36 36 37 38 39 38 38 38 36 28
25 22 27 45 40 22 24 37 25 19 22 26 25 23 18 26
68 45 29 19 17 27 29 29 31 32 32 32 29 23 22 9
10 24 19 45 27 18 22 21 35 37 32 32 33 32 28 26
25 26 63 85 56 49 24 23 25 25 26 24 27 27 25 27
28 24 24 19 17 21 85 55 39 18 21 22 21 20 16 23
26 26 46 32 23 45 46 42 43 50 45 1 0 0 0 0
5 3 4 15 22 25 25 32 32 33 34 34 34 33 33 32
31 29 30 32 36 35 36 36 37 38 38 38 37 34 21 20
20 21 30 71 38 20 45 56 59 72 63 37 25 22 16 35
73 51 31 24 22 27 32 36 32 35 34 32 31 29 16 11
20 11 40 50 30 25 26 21 33 31 34 32 33 30 28 27
23 23 70 68 67 38 25 22 26 28 29 25 26 28 25 28
29 25 22 20 18 23 85 51 44 19 26 24 22 18 16 22
21 22 20 16 16 24 35 41 46 52 48 2 0 0 0 0
8 0 1 13 24 28 28 31 33 33 34 34 34 33 33 33
32 30 30 33 36 37 36 35 36 37 38 37 35 18 18 20
22 25 62 97 51 37 56 71 63 42 50 26 28 23 18 48
73 57 29 24 21 26 31 32 32 32 32 34 33 28 14 14
21 14 19 61 24 22 23 19 30 31 32 32 32 28 26 27
22 24 79 53 68 28 23 23 24 27 28 27 25 28 26 29
28 27 22 22 20 26 91 50 42 16 23 23 24 15 21 24
25 27 18 10 16 15 32 40 45 52 49 2 0 0 0 0
34 6 4 13 21 27 29 30 32 32 33 33 32 32 32 33
32 31 32 33 36 37 36 36 36 37 37 36 21 12 38 41
48 48 105 92 47 31 24 25 31 29 27 30 29 26 19 48
83 63 31 24 22 28 31 33 33 33 34 34 33 22 13 17
12 1 12 48 23 21 18 29 32 32 33 31 29 27 23 26
25 25 82 45 79 22 22 22 25 25 27 25 26 27 27 29
24 29 26 23 21 26 88 48 39 20 25 24 25 17 23 25
28 29 16 8 15 14 30 45 47 52 49 3 0 0 0 0
51 25 15 17 19 25 28 29 31 32 33 34 34 34 34 35
34 34 35 35 37 36 37 35 35 36 34 25 22 26 49 51
36 52 80 32 22 23 26 24 17 14 28 29 28 24 21 52
80 64 33 24 24 25 29 31 31 32 31 31 29 18 16 18
16 13 1 22 20 19 14 27 29 30 29 27 28 26 23 24
23 29 85 35 54 21 23 22 22 24 25 26 25 24 29 28
24 28 24 22 23 29 101 42 39 19 23 24 29 21 27 28
30 29 14 8 14 14 15 46 51 55 49 4 0 0 0 0
55 37 22 22 20 25 28 31 32 39 37 36 37 37 38 38
37 37 37 37 36 36 37 36 35 36 27 27 52 43 23 21
21 40 50 25 24 25 26 22 13 18 31 28 28 26 22 51
74 70 32 25 23 23 28 30 30 35 32 32 28 16 17 19
25 54 24 27 18 21 15 24 27 27 29 28 26 24 22 19
22 37 71 34 58 20 21 21 21 23 23 22 22 21 25 26
24 25 23 21 21 28 94 37 31 16 23 26 27 24 29 27
33 24 11 9 14 11 7 30 53 57 49 4 0 0 0 0
36 29 23 23 23 23 22 21 21 40 38 37 39 40 40 39
39 38 38 37 36 36 36 36 35 33 34 59 49 34 19 20
23 50 46 25 24 26 26 18 16 23 30 28 25 24 23 56
73 70 30 22 23 24 28 29 30 29 27 26 23 15 26 19
34 52 54 29 21 22 20 29 28 27 28 28 27 25 23 20
23 43 77 40 55 19 18 21 20 23 22 22 23 20 22 25
24 25 24 21 23 31 86 33 27 20 21 28 24 28 32 31
34 54 22 6 14 11 9 16 50 57 48 4 0 0 0 0
30 20 13 14 14 15 15 16 17 39 41 36 36 37 38 38
38 38 38 36 35 35 36 36 35 32 36 59 33 13 21 23
23 55 42 25 27 26 25 14 19 29 28 27 26 23 23 65
62 74 26 23 25 24 26 27 25 29 28 25 18 11 49 55
83 115 104 41 36 60 23 34 37 47 44 34 37 31 29 29
29 64 93 81 86 38 34 54 61 68 58 67 59 31 17 22
22 23 21 22 22 31 74 31 23 23 21 29 24 28 29 29
34 31 22 7 13 20 42 35 34 51 44 4 0 0 0 0
30 21 13 14 15 15 16 16 17 37 41 34 31 32 33 34
34 35 35 34 33 34 35 35 34 20 20 25 22 15 22 24
26 61 39 25 27 25 19 18 24 27 29 24 23 24 24 65
58 68 21 21 23 23 25 22 26 27 27 27 19 23 49 31
98 87 110 46 33 45 82 108 109 97 75 75 71 56 53 56
55 95 107 95 95 50 37 47 38 40 36 48 57 59 25 19
23 22 18 21 22 33 70 26 18 19 16 26 22 28 25 34
47 56 8 10 43 30 21 19 16 38 42 4 0 0 0 0
31 23 13 13 13 13 14 14 14 32 41 33 30 30 30 30
29 29 30 30 30 31 35 36 29 13 20 23 22 17 25 23
25 62 34 26 25 21 17 19 27 27 26 24 23 21 23 68
46 68 21 19 19 21 23 23 25 26 30 44 34 36 62 53
132 110 133 87 51 53 43 58 55 56 53 58 48 40 35 39
43 106 104 113 99 51 47 52 71 83 84 97 96 77 50 21
22 21 21 22 21 35 57 31 16 18 13 24 23 27 25 32
21 53 19 33 26 20 38 44 25 23 36 2 0 0 0 0
32 23 14 17 20 23 26 24 15 26 42 34 30 29 29 30
29 29 28 29 28 29 34 35 20 10 20 24 25 19 26 23
29 69 26 28 27 18 16 22 26 23 23 24 23 21 25 81
42 64 17 20 20 21 25 36 57 88 94 68 56 44 21 26
89 45 88 42 24 25 62 86 88 72 57 59 50 46 46 38
45 94 72 91 59 36 43 43 43 39 28 26 27 28 38 45
51 46 33 29 22 45 48 34 14 21 13 26 25 24 26 27
17 21 23 16 28 44 22 10 9 10 28 0 0 0 0 0
