P2
128 120
157
49 49 48 47 46 45 44 43 43 41 41 40 40 38 38 37
36 36 35 34 33 32 32 31 31 29 30 28 28 26 26 25
25 25 24 9 0 0 0 0 0 0 0 0 0 0 0 8
13 8 3 0 0 0 0 0 0 0 0 0 0 0 4 0
0 0 0 0 0 0 0 0 0 0 0 0 0 0 0 0
2 4 8 15 20 23 24 24 24 25 25 26 26 27 27 28
29 30 30 31 32 32 33 34 34 35 36 37 38 38 38 38
39 40 41 42 43 44 44 45 46 45 46 47 47 47 47 47
49 49 47 47 46 45 44 43 42 41 40 40 39 39 38 36
36 35 34 34 33 33 32 32 31 30 29 28 28 26 26 25
25 25 24 20 6 0 0 0 0 0 0 2 7 7 1 15
20 18 14 10 4 0 0 0 0 0 0 0 0 0 4 0
0 0 0 0 0 0 0 0 0 0 0 0 0 3 8 12
18 22 22 23 23 24 25 25 27 26 27 27 29 29 29 31
31 32 32 33 34 35 36 36 37 38 38 38 39 39 40 42
42 42 43 44 44 45 46 46 46 46 46 48 47 48 49 49
50 49 48 47 46 45 45 44 43 42 41 41 40 40 38 38
37 37 35 34 33 33 33 32 31 30 29 29 28 28 26 26
26 26 25 23 19 12 6 1 0 3 10 14 17 14 5 18
22 20 17 17 16 12 6 1 0 0 0 0 0 0 0 0
0 0 0 0 0 0 0 0 0 1 3 8 15 20 22 23
24 24 24 25 26 27 27 27 29 29 29 30 30 31 32 33
34 35 36 36 38 38 38 39 39 39 40 41 42 43 44 44
45 46 46 46 47 47 47 48 48 48 47 48 49 48 48 49
49 48 48 46 46 45 44 44 43 43 42 41 40 39 39 38
37 36 36 35 34 33 33 32 32 31 30 30 29 28 27 27
26 25 24 24 21 17 14 13 10 13 17 20 22 17 7 18
23 21 19 18 18 17 15 11 5 0 0 0 0 0 0 0
0 0 0 0 0 0 2 6 12 17 20 22 23 24 25 25
25 27 27 28 28 28 29 30 31 31 32 33 34 34 35 35
37 37 37 37 38 38 40 40 42 41 43 43 44 45 45 46
46 46 47 47 47 48 48 48 48 47 49 48 49 49 49 49
50 49 48 47 47 46 45 44 43 43 42 41 40 39 39 39
38 37 36 35 35 34 33 33 31 31 31 30 29 28 27 27
27 26 26 25 22 19 16 14 16 20 22 23 23 19 9 18
26 25 23 21 19 18 17 14 12 9 6 0 0 0 1 3
0 0 1 3 10 15 20 22 22 23 23 24 25 25 26 27
27 28 29 29 30 31 31 32 33 33 34 35 35 36 37 36
37 38 38 40 41 41 42 43 44 43 44 44 45 45 46 47
47 47 47 48 48 49 48 48 47 48 49 49 48 49 49 48
50 49 48 47 47 46 45 45 44 43 42 41 41 40 40 39
38 37 36 36 35 34 33 33 32 32 31 30 30 29 28 28
27 27 26 25 23 21 18 17 16 21 22 23 24 22 14 20
30 27 25 24 23 20 18 17 14 13 10 9 10 15 17 17
5 7 15 19 23 23 23 24 25 25 26 27 27 28 28 29
29 30 30 30 31 32 33 33 34 35 36 36 36 37 38 38
40 41 42 42 42 43 43 43 45 45 45 46 46 46 47 47
46 47 47 47 48 48 47 48 47 48 48 48 49 49 49 49
49 49 48 48 47 46 46 45 44 43 42 42 41 40 40 39
39 37 37 36 35 34 34 34 33 32 31 30 29 29 29 28
28 27 27 25 25 23 21 19 18 21 24 25 27 24 19 24
32 29 26 25 24 23 22 19 16 14 13 12 17 20 18 18
17 21 22 23 24 25 26 26 27 27 27 29 29 29 29 30
31 32 32 33 33 34 35 35 35 36 36 37 37 38 40 40
41 41 42 43 43 44 44 45 46 47 46 46 46 46 47 47
47 48 47 47 48 48 47 48 48 48 48 48 48 49 48 49
49 49 48 48 47 46 45 45 44 43 42 43 42 41 40 39
38 38 37 36 35 35 34 34 33 32 32 31 31 30 29 29
28 27 27 26 25 23 22 21 20 24 27 29 31 27 19 23
34 30 27 26 25 24 23 21 18 18 15 13 17 20 20 18
21 24 25 26 26 28 28 27 28 29 30 30 31 30 32 32
32 34 34 34 34 34 34 35 36 37 38 39 40 41 42 41
43 43 43 44 45 44 45 46 46 47 46 46 47 47 48 48
47 47 48 47 48 47 48 48 47 48 48 49 49 49 50 50
50 49 48 48 47 46 45 44 44 43 42 42 41 40 39 39
38 38 37 36 36 35 35 34 33 33 32 31 31 30 29 29
29 28 28 27 26 25 23 22 22 26 29 30 31 27 18 21
34 31 28 27 26 24 23 22 20 22 20 14 15 21 19 21
23 25 25 27 28 29 29 30 30 30 31 30 31 31 32 32
33 33 33 34 35 35 36 37 38 40 39 39 41 41 41 42
42 42 43 44 45 45 46 46 45 47 46 46 45 47 47 47
46 47 47 48 48 47 48 48 48 48 49 49 48 47 46 46
50 49 48 48 47 46 46 45 45 44 43 42 42 41 40 39
39 38 37 36 36 35 35 34 34 33 33 32 31 31 30 30
29 28 28 27 27 26 25 23 23 28 31 33 34 29 20 20
34 31 29 28 27 25 24 22 21 22 21 17 14 22 20 23
25 27 28 29 29 31 30 30 31 32 31 32 33 33 33 34
34 34 35 35 37 37 37 38 39 41 40 40 41 42 42 43
43 44 44 44 44 45 46 45 46 47 45 46 47 46 47 46
47 47 48 47 48 48 49 47 46 46 47 47 48 49 49 49
49 49 49 48 47 46 46 46 45 44 43 43 42 41 40 40
39 38 38 37 36 36 35 35 34 33 33 32 32 31 30 30
30 30 28 28 28 27 27 26 25 30 33 33 33 29 21 20
35 32 29 29 28 27 26 23 23 24 22 19 14 22 22 24
27 28 29 30 30 31 31 31 33 33 32 33 33 33 35 34
35 36 37 36 38 38 38 39 40 42 40 41 41 42 42 42
43 43 44 45 45 46 46 46 47 48 46 47 48 47 48 48
47 48 47 48 47 46 48 48 48 48 48 48 48 49 48 47
50 49 49 48 47 46 46 45 45 44 43 43 42 41 41 40
39 39 38 37 37 36 36 35 35 34 34 33 32 32 31 30
30 29 29 29 29 28 27 27 27 31 34 35 34 31 23 19
36 33 31 30 29 27 26 25 25 24 24 21 16 23 24 27
29 30 30 31 31 32 33 32 32 33 34 34 34 35 35 35
36 37 37 37 38 39 39 39 40 41 40 41 42 42 44 43
44 44 45 45 46 46 46 46 46 48 46 47 47 47 47 47
46 46 48 48 49 49 49 49 48 48 48 49 49 49 49 49
49 49 49 48 48 46 46 45 45 44 43 42 41 41 41 40
40 38 38 37 38 36 36 36 35 34 33 34 32 32 31 31
30 30 29 29 29 28 29 28 29 32 35 35 36 31 23 19
35 33 31 30 29 29 28 27 26 25 25 22 18 24 25 28
29 30 31 31 31 32 33 34 34 34 35 35 35 35 36 36
36 37 37 37 38 39 40 40 40 42 41 42 42 44 44 44
44 44 45 45 46 46 46 46 47 48 45 45 45 45 46 47
48 48 47 48 48 48 48 48 49 48 48 48 49 49 48 49
50 49 49 48 47 47 45 45 45 44 44 43 42 42 41 41
40 39 39 38 37 37 36 36 35 34 34 34 33 33 32 32
32 31 30 30 30 29 28 29 30 33 36 36 36 32 25 20
35 34 31 30 30 29 28 29 28 26 25 24 19 24 26 30
30 31 31 32 33 34 34 34 35 35 35 35 36 36 36 37
37 37 38 38 39 39 39 40 40 42 41 42 43 43 44 44
45 45 45 46 46 46 45 45 45 45 46 48 48 47 47 48
47 48 48 48 48 48 49 48 48 48 48 47 48 48 48 47
50 49 49 48 47 47 46 46 45 44 44 43 42 42 41 41
40 39 38 38 37 37 36 36 35 35 34 34 33 32 32 32
31 30 31 30 30 29 29 29 31 34 36 36 37 33 25 21
34 34 32 31 31 30 29 28 29 26 26 25 21 25 26 30
31 31 32 33 34 34 35 35 35 35 36 36 36 37 37 37
38 38 38 38 39 40 40 40 41 43 42 42 43 44 44 44
43 42 44 44 44 45 46 47 47 46 47 47 47 47 47 48
48 48 48 48 48 48 48 48 49 49 48 48 48 48 48 48
49 49 48 47 47 47 46 45 45 44 44 44 43 42 42 41
41 40 40 39 38 38 37 36 36 35 35 35 34 34 33 33
32 32 31 30 30 29 29 30 31 35 37 37 38 33 27 22
33 35 31 31 31 30 30 28 29 28 27 26 24 27 29 32
33 33 34 34 34 35 35 35 35 36 37 36 36 37 37 38
38 38 39 39 39 40 41 41 41 43 43 42 44 43 43 43
44 44 45 46 46 46 47 47 46 47 47 48 48 47 48 47
48 48 48 49 49 49 49 48 49 48 49 48 48 48 48 48
49 48 48 48 47 47 46 45 45 45 44 43 42 41 42 41
40 40 39 39 38 37 38 37 36 36 36 35 34 34 33 33
32 32 32 30 30 30 30 30 32 35 37 37 37 34 27 20
30 36 30 30 31 30 30 30 30 28 28 27 24 28 30 32
33 33 34 34 34 36 35 36 36 36 37 37 37 38 38 38
38 38 38 39 40 40 41 41 42 42 41 42 41 42 44 45
45 47 46 45 46 46 46 47 46 46 46 47 48 47 47 47
48 48 48 48 48 48 49 49 48 48 48 49 48 48 47 47
49 49 48 48 47 47 46 45 45 45 44 44 43 42 42 41
40 40 40 39 38 38 37 36 36 35 35 34 35 33 34 34
33 32 32 32 31 31 31 31 32 35 38 38 39 34 28 16
25 34 33 32 31 31 30 31 30 28 28 27 24 30 31 33
34 34 35 35 35 36 36 36 36 37 38 37 37 38 38 39
39 39 40 40 41 40 39 39 39 40 41 43 44 44 45 45
45 47 46 46 46 46 47 48 47 47 47 47 47 48 47 47
47 47 48 48 48 48 49 48 48 48 48 47 47 47 47 47
49 48 48 48 47 46 46 46 46 45 44 44 43 42 42 42
41 40 39 39 39 39 38 38 37 36 36 36 35 35 34 33
32 32 32 31 31 31 30 31 32 36 39 39 39 35 26 20
29 37 31 29 33 31 29 27 28 28 29 28 26 30 32 33
33 34 35 35 36 36 36 37 37 37 38 39 39 39 39 39
39 39 39 39 39 40 41 42 43 43 43 44 45 45 45 46
46 47 47 46 46 47 47 47 47 47 47 48 48 48 48 48
48 48 49 48 48 48 48 48 48 48 49 48 48 48 48 47
48 49 48 48 47 47 46 46 45 45 45 44 43 43 43 42
42 41 41 40 39 39 38 37 37 37 36 35 36 35 35 34
33 33 32 32 32 32 32 31 33 36 39 39 39 35 27 26
25 32 26 24 28 21 17 18 18 19 20 25 25 31 31 34
35 35 36 36 36 36 37 37 37 37 38 38 38 38 38 39
39 40 41 41 41 42 42 43 43 44 44 44 44 45 45 46
45 47 47 47 47 47 48 47 48 47 47 48 48 47 48 48
48 48 48 48 49 48 49 48 49 49 49 49 49 48 47 46
49 48 48 48 47 47 47 46 46 45 44 44 43 43 43 41
41 41 40 40 39 39 38 38 38 37 37 37 36 35 35 34
34 33 32 32 32 32 32 32 33 37 39 39 38 36 27 24
20 23 15 19 15 12 10 8 11 10 12 19 22 23 26 33
35 35 36 36 37 37 38 38 37 37 37 37 38 37 39 39
40 41 41 41 41 41 43 42 43 44 45 44 44 46 46 46
46 47 48 47 48 47 48 48 47 47 48 47 47 47 48 48
48 48 48 48 49 49 48 49 49 47 47 47 47 48 48 50
50 49 49 48 48 47 47 46 46 45 45 44 44 44 43 43
42 41 41 40 40 39 39 38 38 37 36 36 36 36 35 35
34 34 33 33 33 32 32 33 34 37 40 39 38 30 22 15
19 21 14 10 11 9 8 13 14 8 9 12 15 11 14 18
25 30 35 36 37 37 36 37 37 37 38 38 39 39 40 41
41 41 43 42 42 43 43 43 44 45 44 44 45 45 46 47
47 47 47 47 47 47 48 48 48 48 48 47 48 48 48 48
49 48 48 49 49 48 47 47 48 49 48 49 49 48 48 48
49 49 48 48 47 47 47 46 46 46 45 45 45 44 44 43
42 41 42 40 40 40 39 39 38 38 37 37 37 36 35 35
34 33 33 33 33 32 33 33 34 38 41 37 24 18 12 13
15 16 7 8 8 6 5 13 8 5 12 11 7 11 14 17
20 22 26 29 32 37 38 38 38 38 39 39 40 40 40 40
41 42 43 42 42 42 43 43 44 44 45 45 46 46 47 47
47 48 48 48 47 48 48 48 48 48 48 47 48 47 49 48
48 48 47 48 49 49 49 49 49 48 49 49 49 49 49 48
49 50 49 49 48 48 47 46 46 45 45 45 44 44 44 43
43 42 42 41 41 40 40 39 39 38 37 37 37 36 36 35
35 35 34 34 33 33 33 33 34 37 40 26 21 13 9 10
13 13 6 4 5 3 6 11 11 10 11 9 12 11 8 10
9 9 10 20 33 37 39 39 39 39 39 39 40 40 41 41
42 42 42 42 43 44 44 44 45 45 45 45 46 46 47 47
48 48 48 48 48 48 49 49 48 48 48 47 48 48 48 49
48 48 48 48 48 47 48 49 49 48 48 49 48 48 48 47
50 49 50 48 48 47 47 47 47 46 46 46 45 44 44 43
43 42 42 42 41 41 40 39 39 39 38 37 37 37 36 36
36 35 35 34 33 33 34 34 35 38 36 22 19 13 8 10
10 12 4 7 4 2 5 7 6 6 7 6 5 9 14 10
6 8 12 17 20 32 38 39 39 40 40 40 40 41 42 41
42 42 43 42 43 43 44 44 45 45 46 46 46 47 48 48
48 48 49 49 48 49 48 47 47 48 47 48 49 48 48 48
49 48 49 49 48 48 48 48 48 48 48 49 49 48 48 47
49 49 49 49 48 48 48 47 46 47 46 45 45 44 44 43
43 42 42 42 41 40 40 40 39 39 38 37 37 37 37 36
36 35 34 35 35 34 34 34 34 37 30 22 14 10 7 7
11 10 5 5 4 3 6 1 1 1 1 4 6 5 4 10
7 11 12 11 11 18 28 36 39 39 40 40 40 40 42 42
42 43 43 43 44 44 44 44 45 45 46 46 46 47 47 47
47 46 46 47 46 47 48 48 49 49 48 48 48 47 48 48
48 47 47 48 48 48 48 48 48 48 48 48 48 47 48 48
49 49 48 48 48 48 48 47 47 46 46 46 45 45 44 44
44 43 43 42 42 41 41 40 40 39 39 38 38 37 37 36
36 36 36 34 34 34 34 34 36 36 26 16 11 9 9 7
11 10 8 1 3 4 4 0 0 0 0 0 3 8 4 6
10 7 9 14 18 19 16 28 37 39 40 41 41 41 42 43
43 43 44 43 44 44 45 45 45 46 46 46 46 46 45 46
47 47 48 49 48 48 48 48 48 50 49 48 49 48 49 49
48 49 49 49 48 48 48 48 48 48 48 48 49 48 48 48
49 49 49 49 48 48 47 47 47 46 45 45 45 45 44 44
44 43 43 42 42 41 41 41 40 39 40 38 39 37 37 37
36 36 36 35 35 35 34 34 35 34 24 10 10 8 8 5
6 7 3 1 1 2 0 0 0 0 0 0 0 0 1 4
4 5 4 5 5 10 17 19 31 38 40 40 42 42 42 42
43 43 44 43 44 45 45 45 45 45 46 46 47 48 49 48
48 48 48 48 48 48 49 48 49 49 50 48 48 48 49 48
48 48 48 48 48 48 48 47 48 49 49 48 49 49 48 49
50 49 49 49 48 47 47 47 47 47 46 46 46 45 45 44
44 43 43 42 41 41 40 40 40 39 39 38 39 39 38 37
37 36 36 35 35 35 34 35 34 33 24 11 11 6 2 4
2 2 0 0 0 0 1 0 0 0 0 0 0 0 0 0
2 5 7 7 9 9 12 13 24 38 40 40 41 42 42 43
43 44 44 43 44 43 43 44 45 46 46 47 47 48 48 48
48 48 48 49 48 49 48 48 49 48 49 48 48 47 48 48
48 48 48 48 48 48 48 47 47 48 49 48 48 48 49 48
49 49 49 48 48 48 47 47 47 46 46 46 45 45 44 44
43 42 42 42 41 41 41 41 40 39 39 39 39 38 37 37
36 36 35 35 35 35 35 36 33 32 18 9 5 1 1 1
0 0 0 0 0 0 0 0 0 0 0 0 0 0 0 0
0 0 0 2 6 9 11 13 13 32 41 41 42 42 42 42
43 42 42 44 44 43 45 45 45 46 48 47 47 47 48 47
48 48 48 48 48 48 49 48 49 49 50 48 48 48 48 48
48 47 47 48 48 48 48 48 47 48 48 48 48 48 48 48
49 49 48 48 48 47 47 47 47 46 46 45 45 45 44 44
43 43 43 42 42 41 41 40 40 40 40 39 38 38 38 37
37 37 36 36 35 35 32 33 31 22 11 7 6 1 0 0
0 0 0 0 1 1 3 1 0 0 0 0 0 0 0 0
0 0 1 1 1 1 3 5 10 20 39 42 41 42 42 43
43 43 44 43 44 45 45 45 45 46 48 47 47 48 48 48
48 48 48 48 49 48 48 48 48 48 49 47 48 48 47 48
48 48 49 49 48 48 48 48 48 49 48 48 48 48 46 45
49 49 48 48 48 47 48 47 46 46 46 45 45 44 44 43
43 43 43 42 42 41 41 41 41 40 40 39 39 39 38 38
37 37 36 36 35 35 32 30 27 15 9 7 4 2 1 0
0 2 12 21 26 25 25 21 16 7 0 0 0 0 0 4
5 3 2 0 1 3 2 4 4 8 29 42 42 42 42 43
43 43 44 43 44 45 45 45 46 47 48 47 48 48 48 48
48 48 47 48 48 48 48 48 48 48 50 47 48 48 48 47
47 47 48 48 47 47 49 48 48 47 47 46 43 43 43 44
50 49 49 48 48 48 48 47 47 46 46 46 45 45 45 44
44 44 43 43 42 41 41 40 40 40 39 39 39 39 38 38
38 37 37 36 36 36 32 25 24 15 10 5 2 0 0 1
17 33 44 51 54 52 49 45 37 26 12 1 0 0 0 0
1 6 6 2 3 5 3 1 5 6 17 40 41 42 43 43
43 44 44 44 44 45 46 46 46 46 47 47 47 47 47 47
48 48 48 48 48 48 48 48 48 47 49 48 48 48 49 48
48 48 48 48 47 47 46 46 46 46 47 47 47 47 45 46
49 48 48 48 47 47 47 46 46 47 46 46 45 45 45 44
44 43 43 43 42 42 41 41 40 40 41 40 39 39 38 37
38 37 37 36 36 36 34 27 26 19 11 6 1 1 14 39
48 55 57 59 60 61 63 58 52 39 11 1 0 0 0 1
4 4 4 1 1 2 3 4 4 4 7 34 41 42 43 43
43 44 44 45 45 45 45 46 46 46 47 47 47 47 48 48
47 48 47 48 47 47 48 48 48 48 49 47 48 49 48 47
47 46 47 46 47 48 49 48 47 47 47 47 46 47 46 45
50 49 49 49 48 47 47 47 47 46 46 46 45 45 45 45
45 44 43 43 43 42 42 42 41 41 41 40 39 40 39 39
39 38 38 37 37 37 35 32 28 19 10 9 12 31 53 59
61 66 69 73 76 78 76 69 57 30 14 1 0 2 0 0
1 6 8 5 6 3 3 4 4 3 1 17 41 42 43 43
43 44 45 45 46 46 46 46 47 47 48 47 47 48 48 48
48 48 48 48 48 48 49 49 50 49 47 44 45 46 46 46
48 48 49 50 46 46 48 46 47 47 46 46 46 46 46 44
49 49 49 49 48 48 47 47 48 48 47 47 46 46 45 45
45 44 44 43 43 42 42 42 41 41 41 41 40 40 40 39
39 38 37 37 37 37 35 35 34 29 18 22 49 62 68 66
73 80 84 85 87 86 83 81 68 41 14 5 3 8 7 2
0 0 0 2 6 4 6 2 4 2 1 3 32 44 43 43
43 44 45 45 46 46 46 47 47 47 48 48 48 49 49 49
49 49 48 48 48 47 46 46 47 47 48 47 48 48 48 47
47 48 48 49 46 47 47 46 47 47 46 46 46 46 46 45
32 46 50 49 49 49 48 48 47 47 47 47 47 46 46 45
45 45 44 44 43 43 43 42 41 41 41 41 40 40 39 39
39 39 38 38 38 37 36 33 28 21 27 52 71 71 73 78
87 93 93 93 94 91 90 89 79 45 19 11 5 4 8 6
6 5 2 2 3 3 3 4 0 4 1 2 15 41 44 45
45 45 46 46 46 47 47 48 47 47 48 48 48 48 48 48
48 47 47 46 46 48 48 48 49 48 48 48 48 48 48 47
48 48 48 48 47 48 47 47 48 47 46 46 45 45 45 44
23 44 49 49 49 48 48 47 47 48 48 47 47 47 46 46
45 45 44 44 44 44 43 43 42 42 42 41 41 40 40 39
39 39 38 38 38 37 33 30 28 26 51 66 77 76 83 92
96 97 96 97 96 96 95 97 88 64 29 23 11 8 8 7
6 3 2 2 3 4 4 2 0 1 0 1 3 35 45 45
44 45 46 46 46 47 47 47 47 47 47 47 47 47 48 47
48 48 49 48 48 48 48 48 48 47 48 47 47 47 47 47
48 48 48 48 47 47 47 46 48 46 47 47 46 46 45 45
24 44 50 49 49 49 48 47 48 48 48 48 47 46 46 46
45 45 45 45 44 44 43 43 45 51 48 44 42 41 40 40
40 39 39 39 38 39 35 30 29 49 67 74 81 85 93 98
100 101 103 103 101 100 103 101 94 78 43 32 14 8 6 2
0 1 1 4 7 2 1 4 1 0 0 0 0 22 45 45
45 45 46 46 47 46 47 46 46 46 47 47 47 47 48 47
47 48 48 49 49 48 47 48 48 49 48 47 47 47 48 48
47 48 47 48 47 47 47 48 48 47 47 46 46 46 46 45
24 43 49 49 49 48 48 54 59 56 54 50 48 47 45 46
46 45 45 44 44 43 44 43 51 61 57 52 50 49 43 40
39 39 39 39 38 38 37 35 41 65 70 82 92 98 102 103
106 107 106 105 104 104 106 101 99 87 61 35 20 13 12 4
2 1 3 3 3 4 3 6 0 0 0 0 0 13 41 44
45 45 46 45 46 46 46 46 46 46 47 47 47 47 48 47
47 47 48 49 48 48 48 48 49 48 48 47 47 47 48 48
48 48 48 49 47 47 47 47 46 47 47 46 46 46 46 45
26 46 50 50 50 49 49 58 63 61 59 54 52 52 51 47
47 46 45 44 44 44 44 43 51 58 55 51 53 53 49 40
40 40 39 39 39 38 37 38 57 67 79 92 100 102 106 107
108 109 105 106 108 105 106 102 100 86 73 49 30 19 12 3
3 4 2 1 3 5 1 0 0 0 0 0 0 6 38 44
45 45 46 46 44 46 46 47 47 46 47 47 46 47 46 47
47 47 48 48 48 49 48 48 48 48 48 48 48 47 48 48
48 47 47 48 47 47 48 47 47 48 47 46 47 46 46 45
27 49 52 51 50 49 48 57 64 62 57 56 58 60 60 53
55 53 49 46 45 45 44 44 48 47 48 49 52 53 51 42
40 40 39 39 39 37 38 45 65 73 92 99 103 106 108 108
111 109 110 110 109 106 104 101 96 86 76 57 40 23 12 2
1 0 1 2 4 2 0 2 1 0 0 0 0 3 35 46
45 46 46 48 46 47 46 46 47 47 47 47 47 47 48 47
47 47 48 49 48 47 48 48 48 46 47 47 47 47 47 47
48 47 46 47 48 48 48 47 46 47 47 47 47 46 46 45
28 51 56 52 53 53 53 56 39 46 55 58 62 63 60 45
41 50 53 53 52 52 50 46 46 29 23 24 28 34 42 43
40 40 39 39 39 38 39 58 69 85 95 101 104 106 109 110
112 110 114 112 112 109 104 101 93 93 76 56 41 29 12 4
0 0 1 1 3 0 2 8 7 3 0 0 0 0 31 45
44 45 45 46 45 46 46 46 47 47 47 47 47 47 47 46
47 47 48 49 48 48 48 47 48 47 48 48 47 47 47 47
48 47 47 47 47 47 48 48 47 47 47 47 47 46 45 44
28 51 56 46 46 53 59 59 7 1 19 37 42 46 55 30
1 5 13 25 33 42 50 50 47 27 12 16 16 6 16 44
41 41 40 40 39 39 45 68 75 91 96 102 106 109 111 112
113 115 117 116 117 114 109 106 103 97 90 67 50 38 21 13
6 1 1 1 4 3 4 0 0 0 0 0 0 0 25 45
45 45 45 47 45 47 47 46 47 46 46 47 47 47 48 47
47 47 48 49 49 48 47 46 47 48 47 47 46 47 48 48
49 48 48 48 47 48 47 47 46 45 45 44 44 45 46 46
26 42 52 55 54 55 63 62 8 0 7 19 23 22 41 28
0 0 0 0 4 3 9 23 48 25 5 6 8 4 13 45
41 41 40 40 38 40 59 73 84 92 95 104 107 109 112 114
114 118 119 119 118 117 114 114 110 107 99 88 66 39 27 17
16 13 4 5 4 2 0 0 0 0 0 0 0 0 17 45
45 45 45 47 46 47 47 47 46 47 47 47 48 47 47 47
47 47 48 48 48 47 47 47 47 47 48 47 48 48 48 48
48 48 48 46 45 46 46 46 46 47 47 47 47 47 46 46
22 5 8 17 31 45 55 59 10 0 5 12 15 16 39 34
3 0 0 0 1 0 0 9 48 19 0 0 5 2 13 47
41 41 41 40 39 44 69 75 88 91 97 105 110 112 115 115
116 120 122 123 123 120 119 118 117 111 102 80 73 54 42 33
18 16 8 0 1 1 0 1 3 0 0 0 0 0 13 43
45 46 45 47 46 47 47 46 46 47 48 48 48 47 47 48
47 48 48 48 48 47 47 48 47 47 48 47 48 48 48 48
48 48 49 48 48 48 47 47 47 46 46 47 48 46 46 46
21 1 0 0 0 1 7 27 12 0 1 3 1 9 34 29
0 0 0 1 1 0 0 8 47 10 0 0 0 3 15 49
41 41 41 41 40 50 73 79 88 92 103 109 111 113 115 115
118 119 122 125 125 123 123 122 120 119 106 91 64 56 53 36
18 10 7 0 1 6 17 15 2 1 0 0 0 0 9 38
45 46 46 47 45 46 46 47 47 47 48 48 48 48 48 49
48 48 49 48 48 48 48 48 48 48 48 47 49 49 49 49
48 48 47 47 47 47 46 47 45 46 46 47 49 47 48 47
22 1 0 0 0 0 0 14 11 0 0 0 0 4 36 30
0 0 0 9 13 2 0 6 46 9 0 0 0 1 14 50
42 41 42 41 40 55 75 82 91 100 109 108 106 100 109 116
117 120 122 124 127 128 127 127 121 119 110 93 63 39 34 39
34 21 10 0 20 98 102 100 63 6 0 0 0 0 5 28
44 45 46 47 46 47 47 47 48 47 47 48 48 47 48 48
47 47 47 49 49 50 49 49 49 48 48 48 49 48 50 48
48 48 48 48 47 48 48 48 47 47 46 48 48 47 47 47
22 1 0 0 0 0 0 11 10 0 0 0 0 3 39 34
0 0 1 13 21 15 6 4 46 7 0 0 0 0 10 49
42 41 41 41 40 56 76 86 96 105 102 74 45 33 48 73
96 115 123 124 126 127 131 133 128 122 112 85 64 53 38 39
40 43 25 15 98 123 127 123 110 63 5 0 0 0 1 19
39 45 46 47 46 46 48 47 47 48 48 47 47 48 47 47
47 48 47 48 48 48 48 47 47 46 47 48 48 47 49 48
48 48 48 48 49 48 48 49 48 49 48 47 48 46 44 44
23 2 0 0 14 5 0 10 9 2 0 0 0 3 36 37
0 0 3 17 22 21 18 6 45 9 0 0 0 0 7 50
42 42 42 41 41 57 79 90 99 91 49 18 25 40 50 68
69 85 115 127 129 129 135 136 132 125 112 81 53 42 36 36
35 38 45 78 117 121 148 141 131 107 14 6 0 0 0 11
35 44 47 47 46 47 47 47 48 48 47 47 48 48 47 47
48 47 48 49 47 48 49 48 48 47 47 48 49 49 49 49
49 50 49 49 49 48 48 48 49 48 45 45 44 43 42 39
21 2 13 9 11 3 0 10 11 3 0 0 0 9 37 38
0 1 2 15 20 20 18 6 45 15 1 0 0 0 6 50
42 42 42 42 42 65 84 95 87 26 5 27 72 93 100 109
113 107 107 119 130 132 137 138 136 128 113 80 50 34 22 46
48 46 71 104 98 120 145 128 132 118 45 4 2 0 0 9
32 42 45 45 46 46 47 46 47 47 47 48 48 48 48 48
48 48 48 48 48 48 49 47 47 48 47 49 49 49 49 49
50 49 46 45 44 45 46 45 42 38 34 30 26 23 21 19
23 8 14 1 8 5 0 11 12 0 0 0 0 14 41 43
3 4 6 1 9 17 17 3 45 48 38 28 21 15 21 51
42 42 42 42 44 74 89 89 29 4 23 71 86 95 108 112
111 119 118 119 122 130 138 138 136 128 116 82 45 38 21 36
75 79 99 110 106 123 140 132 114 113 79 0 1 0 0 8
27 38 45 46 46 47 48 47 47 48 48 48 47 48 48 47
47 48 48 48 48 48 48 48 48 47 49 49 48 46 47 46
46 43 39 36 32 28 25 22 20 19 19 19 21 21 22 23
22 8 4 0 0 2 1 14 36 20 15 13 4 2 37 63
45 39 34 22 12 10 11 4 46 58 55 54 54 58 61 57
42 42 42 42 48 81 90 69 15 24 54 58 50 61 79 92
113 122 124 126 129 129 134 136 135 130 119 87 49 17 9 28
73 83 109 116 110 117 133 133 109 102 92 1 0 0 0 7
28 38 44 46 46 47 48 48 48 48 48 49 47 48 48 47
47 48 46 46 45 45 48 45 46 44 45 42 39 35 31 27
24 22 21 20 21 20 22 23 24 25 26 27 28 29 28 29
23 3 0 0 0 0 0 17 67 60 52 52 49 39 52 62
30 32 37 40 40 41 42 43 58 53 53 54 57 62 65 60
43 42 42 42 50 82 87 69 39 54 56 18 19 59 77 91
90 100 123 132 137 134 137 139 136 132 122 100 43 11 6 19
47 65 113 107 63 121 147 142 114 93 94 2 0 0 0 3
25 35 44 46 46 47 48 48 48 47 47 48 46 46 45 45
45 46 46 45 43 41 37 34 31 27 25 23 23 22 21 22
24 25 26 27 26 20 29 30 31 33 33 33 34 34 21 34
24 5 0 0 0 0 0 18 70 56 60 65 70 67 61 52
23 22 23 21 22 22 23 26 31 28 34 40 46 50 48 49
42 42 42 42 37 61 81 89 86 88 55 19 63 131 143 104
100 101 112 125 132 134 136 136 136 132 126 104 58 12 7 11
33 52 104 110 75 119 120 134 124 90 90 0 0 0 0 1
23 38 44 45 46 47 47 48 47 47 48 47 45 45 48 41
36 32 30 27 24 24 24 25 25 26 27 27 29 30 30 32
33 33 33 35 34 14 34 36 37 37 34 34 38 27 34 41
27 40 39 27 16 9 4 21 60 51 62 66 70 68 57 45
26 24 23 21 19 18 17 16 14 15 16 18 35 41 37 38
41 42 42 42 12 22 63 106 124 114 75 38 54 99 101 114
115 118 118 122 129 130 128 134 136 135 129 117 83 40 9 12
35 67 84 117 116 129 120 113 129 103 67 0 0 0 0 0
18 37 45 45 48 47 45 43 40 36 34 30 27 27 44 34
20 23 26 27 28 29 30 31 33 34 35 36 37 37 38 38
39 32 32 39 40 25 29 41 42 41 27 38 36 28 42 42
28 53 65 64 60 56 51 54 52 45 58 63 67 68 60 51
30 25 21 18 17 17 16 16 16 17 18 19 37 26 29 42
42 42 41 41 11 3 31 112 144 133 92 54 44 92 119 123
123 121 116 121 130 128 125 132 137 137 137 122 94 65 47 43
67 77 94 111 123 142 129 104 123 107 52 0 3 0 0 0
15 32 39 34 33 30 28 26 25 25 26 27 28 27 36 31
24 30 33 35 35 37 37 38 38 39 39 39 40 41 41 41
42 42 36 34 43 39 19 43 43 41 24 39 26 38 39 44
27 53 67 65 63 65 65 66 40 12 18 28 37 44 43 50
30 21 18 9 8 8 16 19 19 17 21 23 39 36 34 49
48 45 24 25 21 29 34 115 147 130 88 60 66 96 113 120
116 117 120 124 128 130 130 132 137 137 137 114 81 59 45 43
57 65 85 100 117 148 128 102 125 112 48 5 0 0 1 0
9 21 25 25 25 26 28 30 31 31 32 33 34 34 40 36
28 36 38 39 40 40 42 42 42 42 42 42 42 43 43 42
43 43 43 35 33 41 18 35 43 39 24 28 34 39 41 44
26 46 59 60 60 63 64 66 32 0 0 0 3 14 24 49
29 19 15 1 0 0 6 13 10 5 13 16 36 52 45 45
47 49 42 37 34 31 43 126 145 128 91 67 64 82 99 111
113 115 119 127 134 133 133 133 135 135 134 105 66 48 39 35
61 90 89 103 109 134 124 108 133 118 47 13 1 0 0 0
6 23 29 31 32 34 35 36 38 38 38 40 39 37 34 31
31 39 41 41 42 43 44 44 44 44 44 44 44 42 43 43
43 44 44 44 36 34 31 20 41 35 26 22 42 38 40 43
33 38 43 45 48 47 52 59 27 0 0 0 1 2 14 51
26 17 14 2 0 4 1 0 0 0 1 4 31 51 37 33
32 36 40 43 35 10 76 140 146 132 110 84 68 80 97 101
105 111 120 128 137 138 137 133 132 132 125 102 64 32 27 27
74 103 101 114 126 116 111 132 137 109 48 15 2 0 0 0
5 19 31 36 37 39 40 40 41 41 41 41 41 36 13 10
25 41 43 44 44 43 43 44 44 44 44 44 44 44 43 43
42 43 43 43 43 33 29 12 19 16 19 32 41 37 40 39
28 30 29 33 42 40 47 58 25 0 0 0 2 1 4 51
21 10 2 0 0 12 9 3 0 0 0 0 28 53 38 26
41 38 36 40 41 42 121 140 142 134 121 110 90 88 98 110
113 120 129 133 131 135 135 131 126 126 116 86 57 32 37 34
58 89 93 85 109 134 135 130 128 90 51 18 1 0 0 0
5 22 31 36 41 42 42 42 43 43 41 38 37 34 13 7
19 41 44 46 44 44 44 45 44 44 45 45 44 44 43 43
42 42 42 43 44 42 32 12 0 0 25 38 39 36 40 36
28 30 33 37 43 43 51 57 24 0 0 0 0 0 5 51
8 0 0 0 0 7 17 9 2 0 0 0 28 53 37 19
34 31 33 39 42 86 131 139 142 137 130 119 105 99 107 115
122 130 130 133 128 131 130 125 125 121 112 81 49 26 32 38
55 102 120 121 135 121 109 113 116 71 52 18 0 0 0 0
4 22 35 37 42 43 43 43 44 26 10 6 15 31 10 5
18 41 44 45 45 44 44 44 44 44 44 44 44 44 43 43
42 41 41 42 42 41 41 27 0 5 36 38 32 33 38 39
28 13 7 13 21 28 37 44 22 0 0 0 0 0 9 52
8 0 0 0 1 7 20 17 13 1 0 0 28 54 40 21
26 25 30 40 59 123 135 142 143 141 133 118 108 109 113 122
128 135 133 132 128 123 119 127 125 117 107 72 45 28 32 39
53 100 113 123 121 114 120 116 88 70 52 18 0 0 0 0
2 25 40 40 42 44 44 44 44 27 20 27 34 34 5 0
18 41 43 45 46 44 45 45 44 45 44 44 44 44 43 44
43 42 41 41 41 41 42 37 2 8 39 36 29 29 37 40
33 10 0 0 0 0 0 7 19 0 0 0 0 0 10 51
5 0 0 0 5 23 24 20 18 1 0 1 28 55 42 30
27 21 29 39 95 130 136 138 143 142 129 117 112 113 118 124
134 140 129 123 117 123 121 123 113 104 95 69 46 28 29 29
50 81 101 116 113 129 127 91 75 67 47 17 0 0 0 0
7 27 42 41 43 44 45 45 45 44 43 42 41 36 9 1
19 40 44 45 44 45 44 44 44 44 44 44 44 44 43 43
43 43 41 41 41 42 42 39 4 7 40 39 30 29 40 42
33 12 0 0 0 0 0 4 19 0 0 10 7 0 7 48
3 0 0 0 4 19 28 11 6 0 0 3 24 55 45 32
16 6 21 50 110 119 125 128 131 130 123 112 111 112 119 123
131 136 124 121 119 120 119 109 101 82 66 54 43 31 32 39
47 84 83 121 131 134 101 84 75 56 41 15 0 0 0 0
9 36 43 42 44 44 45 45 45 43 43 42 41 37 17 0
23 41 44 45 45 45 44 44 44 44 43 44 43 43 43 43
43 43 43 40 41 43 43 40 6 4 40 41 31 29 41 42
32 12 0 1 9 2 0 3 18 0 4 25 17 3 7 47
3 0 0 0 1 1 20 3 0 0 1 0 19 54 44 25
12 7 18 73 122 129 129 121 120 119 122 109 102 108 114 115
116 124 118 112 111 118 106 104 97 78 60 42 47 37 41 45
42 67 60 106 125 106 96 87 77 55 36 16 1 0 0 0
10 36 40 44 44 45 44 44 44 44 44 43 41 37 26 13
32 42 45 45 45 45 45 44 44 44 44 44 44 43 44 44
43 44 43 41 41 42 43 41 7 4 38 42 30 27 40 42
30 12 0 9 25 11 2 3 22 1 12 23 20 7 7 45
2 4 0 0 0 0 20 6 0 0 0 0 14 53 41 15
10 0 20 96 133 141 142 139 141 142 145 129 94 95 103 99
99 120 117 113 107 119 109 95 85 65 51 27 43 30 41 36
34 53 50 53 97 103 100 88 77 51 19 11 2 0 0 0
0 21 40 43 44 45 44 44 44 43 44 43 41 36 33 31
38 44 45 45 45 45 45 44 44 45 45 44 44 44 43 43
43 43 43 41 41 37 41 38 9 1 27 31 21 25 38 41
28 13 0 13 27 13 5 3 44 40 44 44 42 36 33 48
2 0 0 0 0 0 20 8 0 1 0 0 9 52 36 10
9 1 33 105 141 136 125 113 121 135 142 131 110 95 89 84
85 102 105 101 105 99 101 93 71 54 47 28 37 28 40 30
27 35 62 87 107 110 100 90 77 66 40 19 16 0 0 0
0 2 18 38 43 43 43 44 44 44 44 44 42 38 37 38
43 45 45 45 46 45 45 45 45 45 45 45 45 44 44 44
44 43 43 40 40 36 29 32 11 1 32 41 34 30 38 42
27 14 0 5 8 4 1 2 47 53 58 58 57 62 66 57
13 9 8 1 0 3 23 12 3 4 1 0 6 45 34 8
1 5 20 92 125 88 38 56 49 84 121 121 129 120 100 82
70 72 90 92 90 79 85 77 64 45 40 26 32 30 37 25
20 23 46 90 107 110 107 95 77 71 60 43 22 0 0 0
0 0 0 1 11 23 33 41 45 44 43 43 42 40 39 41
45 45 45 45 46 45 46 46 45 45 44 44 44 44 44 44
43 43 43 42 40 42 42 42 15 1 30 40 33 27 35 38
30 27 13 2 4 1 0 2 47 55 57 57 58 66 70 64
41 39 38 31 28 28 33 25 20 17 17 13 19 40 38 17
14 17 9 50 98 101 88 121 116 116 109 112 124 125 118 102
87 65 63 74 72 54 53 66 48 40 40 24 24 32 39 24
19 17 33 83 107 108 103 93 74 69 67 53 28 0 1 0
0 0 0 0 0 0 4 23 41 44 44 43 43 42 42 44
45 45 45 44 45 45 45 45 44 44 45 45 44 45 44 44
44 42 43 42 41 40 41 41 19 0 28 40 34 27 36 40
31 31 11 1 4 0 0 2 44 47 51 52 52 56 55 55
46 47 48 45 44 45 44 41 37 33 32 29 32 44 49 35
32 27 22 25 46 60 74 87 73 47 50 81 95 104 92 64
83 92 73 63 58 47 44 52 37 27 29 25 26 36 35 22
15 12 23 59 91 104 102 90 70 69 64 54 36 8 5 0
0 0 0 0 0 0 0 12 34 42 44 45 43 42 43 44
44 44 44 45 46 45 45 45 44 45 44 44 44 44 44 44
43 43 43 41 40 40 42 42 22 1 26 42 36 27 35 40
34 27 4 0 2 0 0 2 48 47 48 48 49 47 42 44
47 48 50 49 47 47 46 46 45 49 47 42 41 47 57 54
54 52 49 43 41 43 43 47 21 13 20 36 47 46 32 22
34 76 85 63 49 45 36 39 29 19 25 33 24 28 28 17
12 7 15 32 68 95 101 88 67 64 67 60 41 9 19 6
0 0 0 0 0 0 0 2 31 42 44 44 43 43 46 45
45 45 46 46 46 45 45 45 45 44 44 44 44 44 44 44
44 43 43 43 40 42 43 42 24 1 23 41 36 26 35 40
32 33 31 26 21 17 12 11 51 50 47 46 47 47 48 51
52 51 55 60 58 49 45 47 49 59 57 53 51 51 45 39
38 39 40 39 41 42 38 16 5 5 8 17 28 17 12 9
9 36 96 71 40 29 31 33 27 20 22 30 27 16 17 12
2 1 14 18 30 78 97 85 72 69 70 63 43 7 22 18
0 0 0 0 0 0 0 0 24 42 45 44 45 45 45 46
45 44 45 45 46 45 45 45 45 44 44 44 45 44 44 43
43 43 43 42 40 41 42 41 26 2 21 41 37 27 34 40
32 43 60 62 57 59 62 61 64 55 50 50 50 51 55 59
57 52 56 62 61 48 43 40 47 61 58 54 54 53 48 39
32 31 31 33 40 41 21 6 10 11 15 25 49 58 31 18
13 16 65 64 53 25 27 33 36 18 16 12 13 7 8 6
0 1 3 14 26 86 95 84 67 65 70 59 40 14 19 24
0 0 0 0 0 0 0 0 7 32 43 43 45 45 45 46
45 44 45 45 45 44 45 44 45 44 43 43 44 44 43 43
44 42 43 41 40 40 43 42 28 1 19 41 36 26 32 39
33 44 69 71 69 69 69 69 68 54 44 43 43 44 51 59
60 53 54 52 51 50 45 40 41 47 42 42 47 49 47 45
39 37 38 39 42 40 8 4 39 59 50 52 60 53 32 36
29 12 61 62 39 24 19 38 34 19 14 8 5 7 1 0
0 1 0 8 39 88 100 85 72 61 77 64 48 21 22 21
0 0 3 4 0 0 0 0 2 25 42 44 45 44 45 45
45 45 44 44 44 45 44 44 44 43 44 43 44 43 43 43
42 42 42 41 40 40 42 42 31 2 16 41 38 27 32 40
34 35 48 51 52 55 57 60 63 38 11 10 6 8 14 31
60 53 36 16 22 25 25 34 42 28 7 3 7 17 25 45
43 41 45 48 51 47 12 11 58 58 52 73 105 79 70 89
66 39 80 69 37 28 23 24 33 24 15 10 6 3 0 0
0 4 6 1 16 89 98 91 72 65 80 73 58 21 18 7
0 2 6 5 0 0 0 0 0 14 35 36 40 44 45 45
45 45 45 44 44 45 44 44 43 43 43 43 44 43 43 43
42 42 43 42 40 39 42 42 34 3 14 41 39 29 31 39
33 32 40 40 39 38 38 38 41 27 2 0 0 0 0 15
57 45 10 0 1 4 11 33 44 26 0 0 0 6 21 35
18 23 27 29 37 50 21 4 32 34 87 98 84 89 104 116
69 43 70 58 44 25 27 21 20 21 11 6 3 0 0 0
1 1 1 8 34 98 103 94 75 70 86 78 60 30 21 1
0 1 1 2 0 0 0 0 0 3 13 14 25 44 45 45
45 45 44 44 44 44 44 44 43 43 43 43 44 44 43 42
43 42 43 42 40 40 42 42 36 4 14 42 40 28 30 39
32 35 49 49 48 47 46 45 46 28 8 1 0 0 5 28
56 32 0 0 0 0 2 36 45 29 0 0 0 3 19 31
1 6 8 1 9 50 37 7 5 8 42 64 92 104 131 100
64 25 34 39 36 20 17 15 7 9 12 9 1 0 0 0
3 5 11 48 83 112 111 95 77 81 93 80 67 34 4 0
0 0 1 2 0 0 0 0 0 0 8 11 21 44 45 46
45 45 45 44 44 44 44 43 44 43 43 42 42 43 43 43
43 42 43 42 41 40 42 42 37 4 11 39 37 26 28 39
32 36 49 51 51 50 51 52 52 31 9 2 0 0 4 19
54 21 0 0 0 0 0 34 44 28 0 0 0 2 16 32
1 12 16 3 6 48 43 25 2 5 36 78 99 121 121 91
58 31 13 18 16 9 7 12 10 7 5 6 3 0 0 0
4 18 27 66 102 121 116 103 84 83 96 91 75 44 2 0
0 0 0 0 0 0 0 0 0 0 7 10 21 44 46 46
45 44 45 44 43 43 43 43 42 43 43 43 43 44 43 43
43 43 43 41 40 39 40 39 35 5 10 36 36 27 29 40
38 39 46 48 49 50 51 50 55 31 1 0 0 4 11 10
51 17 0 0 0 0 0 35 43 27 0 0 0 0 11 35
2 5 7 1 5 45 44 30 12 10 61 78 102 110 101 79
41 28 13 11 12 5 4 3 6 5 3 1 0 1 1 1
3 15 47 100 113 124 118 106 88 83 100 101 87 58 9 0
0 0 4 3 0 0 0 0 0 0 4 10 17 42 45 45
46 44 44 44 44 43 43 42 42 42 41 41 40 42 42 42
42 42 42 42 39 39 40 40 38 6 7 37 38 28 27 36
46 46 45 45 46 46 45 39 52 42 7 0 0 3 8 5
48 15 0 0 0 0 0 34 44 25 0 0 0 0 3 37
3 8 10 2 4 45 45 33 26 19 60 65 63 64 69 61
28 17 11 4 4 3 4 4 5 3 3 1 0 0 0 1
5 15 55 99 119 123 120 109 92 84 103 108 97 73 22 0
0 0 8 5 6 0 0 0 0 0 4 10 15 41 45 44
43 43 42 42 40 40 42 42 42 42 42 42 42 41 42 41
41 41 40 40 38 37 39 39 37 7 4 33 37 29 26 37
47 46 46 45 45 45 45 39 50 46 13 0 0 4 11 6
47 14 0 0 0 0 0 28 45 29 3 0 0 0 2 39
6 2 3 1 3 44 44 33 33 15 42 18 6 20 47 43
23 14 9 0 0 1 2 6 2 0 0 0 0 0 0 0
5 20 54 105 122 127 120 111 97 84 102 112 105 86 40 0
0 0 2 2 2 0 0 0 0 0 4 15 18 35 42 42
43 43 43 42 36 30 30 31 38 42 41 41 42 41 41 40
40 40 40 40 38 37 38 39 37 9 3 32 37 29 25 35
44 44 44 44 44 44 44 40 49 42 1 0 0 0 1 5
47 15 0 0 0 0 0 23 46 27 1 0 0 0 1 39
10 0 1 0 3 41 43 33 28 7 10 1 0 2 26 27
15 11 6 0 0 0 0 0 0 0 3 0 0 0 0 0
8 41 61 114 122 130 120 112 100 86 100 115 111 92 62 5
3 13 4 1 3 1 0 0 0 0 0 6 17 34 43 44
43 43 42 39 4 0 0 0 19 42 40 41 41 40 41 41
40 40 40 39 37 36 38 39 37 11 1 30 38 29 25 35
14 14 15 16 20 35 43 41 45 37 0 0 0 0 0 2
45 19 0 0 0 0 0 20 48 28 2 0 0 0 1 38
16 0 0 0 5 40 41 31 31 8 5 0 0 0 9 14
9 5 6 3 0 0 0 0 1 0 1 0 0 0 1 15
33 61 88 119 130 130 122 111 100 88 97 115 116 100 77 24
2 20 18 5 0 0 0 1 0 1 0 1 12 33 43 43
41 42 42 39 5 0 0 0 16 42 41 41 41 40 40 40
40 39 39 39 37 36 38 39 38 15 1 28 39 31 25 35
0 0 0 0 5 40 45 42 42 36 3 2 1 2 14 5
41 30 10 9 13 11 11 27 50 35 33 31 31 34 38 52
23 6 5 5 8 38 37 32 28 3 2 0 0 0 7 8
7 1 4 1 0 0 0 0 0 0 0 0 6 5 22 44
58 89 118 127 133 129 123 110 98 88 97 116 118 108 89 50
3 21 28 22 0 0 0 0 0 1 0 0 8 34 43 42
42 42 41 37 2 0 0 0 8 41 41 40 41 40 41 40
40 40 40 39 37 37 38 39 39 15 0 28 38 31 24 34
0 0 0 0 4 42 46 42 39 50 44 38 35 39 44 40
44 51 57 53 54 55 56 58 56 37 47 51 53 59 64 65
47 37 36 35 36 41 37 32 22 1 0 0 0 1 2 5
7 0 1 0 0 0 0 0 0 0 0 6 17 27 42 58
66 100 127 130 137 131 125 113 98 90 96 112 120 114 100 71
9 27 30 35 3 0 0 0 0 0 0 0 7 33 43 43
41 41 41 36 2 0 0 0 4 41 42 41 42 41 41 40
40 40 40 39 37 37 38 38 39 18 0 25 39 32 24 33
0 0 0 0 1 39 47 41 37 54 56 49 49 52 48 41
37 46 64 62 59 59 63 63 60 38 42 49 53 59 64 64
50 38 38 38 38 39 37 33 19 0 0 0 0 2 6 3
6 2 2 0 0 0 0 0 0 0 0 3 11 30 61 74
82 112 127 134 137 135 126 110 102 89 89 109 121 122 111 86
15 37 22 24 19 0 0 0 0 0 0 0 5 33 43 43
29 16 22 16 1 0 2 0 3 40 41 41 41 40 41 40
40 40 39 40 38 36 38 39 38 21 0 21 38 32 23 32
0 0 0 0 0 37 47 41 37 55 50 43 46 49 49 40
33 35 45 46 46 45 45 45 46 37 33 39 43 43 39 38
40 38 40 39 39 38 38 36 16 0 1 2 3 2 5 4
5 0 2 0 0 0 0 0 0 0 1 0 14 37 65 92
114 128 130 137 139 135 130 117 107 93 86 105 122 123 114 84
13 38 18 18 27 12 0 0 0 0 0 0 5 33 43 39
4 0 1 0 0 0 2 0 3 40 41 41 41 40 40 40
40 39 39 39 37 36 38 39 38 23 0 19 39 34 23 31
0 0 0 0 0 34 49 41 37 52 35 38 38 42 48 41
34 33 28 31 30 31 32 32 36 38 39 42 44 42 38 35
38 40 40 40 40 39 39 38 20 4 0 2 0 3 6 0
2 0 0 0 1 0 0 0 0 0 0 4 32 47 74 102
120 129 136 141 142 138 129 117 108 99 86 101 121 123 116 61
15 26 22 18 13 20 0 0 0 0 0 0 10 34 44 40
6 0 0 0 0 0 0 0 2 39 42 42 41 41 40 41
41 40 40 40 39 37 38 39 38 24 0 17 39 34 24 31
0 0 0 0 0 30 49 41 39 52 18 13 15 18 22 22
25 35 34 39 39 47 47 42 44 46 47 52 55 52 42 38
37 40 40 39 39 39 39 38 30 7 0 0 0 0 1 0
0 0 0 0 0 0 0 0 0 0 2 18 38 59 99 117
122 137 140 144 141 139 129 118 111 105 92 97 121 123 100 41
33 27 24 21 17 16 1 0 2 0 0 4 10 32 43 43
19 0 0 0 0 0 0 0 2 39 42 42 42 41 41 41
41 40 41 40 39 36 39 40 39 26 0 15 38 34 23 30
0 0 0 0 0 26 48 40 44 56 12 0 0 0 1 6
20 37 43 55 49 61 65 34 26 27 29 34 44 56 45 40
39 40 39 39 40 39 39 38 37 17 0 0 0 0 0 0
0 0 0 0 1 0 0 0 0 0 0 15 41 77 112 128
135 139 139 143 140 136 128 118 114 109 100 91 112 112 63 39
41 29 27 27 23 19 4 0 0 0 1 14 18 33 43 42
34 9 0 0 0 0 0 0 1 12 41 42 41 41 40 41
41 41 41 40 39 37 39 42 41 30 0 12 38 33 25 30
0 0 0 0 0 22 49 40 45 60 16 0 0 0 0 0
22 37 40 53 35 40 51 13 0 0 0 1 22 55 46 40
40 39 40 40 40 39 39 39 36 32 14 0 0 0 0 0
0 0 0 0 0 0 0 0 0 0 0 14 47 94 124 137
140 139 140 141 142 137 133 120 114 113 108 95 97 70 48 34
42 30 27 29 26 21 9 0 0 9 27 38 40 42 42 30
49 9 0 0 0 0 0 0 0 2 40 43 43 42 42 42
41 41 40 41 40 37 38 39 40 30 0 9 34 30 23 29
0 0 0 0 0 19 48 40 43 58 21 0 0 0 0 0
20 37 38 51 15 4 32 13 0 0 0 0 15 52 47 40
41 41 40 40 40 39 39 39 39 39 30 7 0 0 0 0
0 0 0 0 0 0 0 0 0 0 1 19 62 108 126 139
139 139 141 142 143 141 131 120 115 115 114 107 77 39 46 23
34 28 26 29 23 18 18 19 22 36 41 43 43 42 28 3
1 12 10 0 0 0 0 0 0 1 38 42 42 42 41 41
41 40 41 41 41 38 37 39 39 32 0 6 30 28 23 28
0 0 0 0 0 15 48 40 37 27 4 0 0 0 0 0
22 36 37 51 16 2 28 17 0 0 0 0 8 49 47 40
40 39 39 39 39 39 39 38 39 40 40 33 11 2 0 0
0 0 0 0 0 0 0 0 0 0 1 30 75 107 123 132
134 136 138 141 143 141 131 119 114 119 121 116 64 25 29 28
33 25 25 24 20 16 25 44 16 14 21 29 35 22 1 0
0 7 6 0 0 0 0 0 0 0 36 42 42 42 42 41
41 41 42 42 41 38 37 40 40 33 1 4 27 26 24 27
0 0 0 0 0 12 46 41 36 20 0 0 0 0 0 0
24 35 38 52 16 1 26 21 0 0 0 0 4 47 47 40
40 40 40 40 39 39 39 38 38 39 40 40 32 17 2 0
0 0 0 0 0 0 0 0 0 1 9 40 77 105 122 131
135 136 142 143 145 144 131 118 113 120 128 116 52 22 26 39
29 24 23 24 20 18 18 38 20 16 12 16 21 22 20 17
8 10 1 0 0 0 0 0 0 0 28 40 42 42 42 41
42 42 42 43 43 40 39 40 40 32 2 3 26 26 24 27
0 0 0 0 0 10 46 40 36 23 0 0 0 0 1 0
21 35 37 51 15 2 23 22 0 0 0 0 3 45 47 39
39 40 39 39 39 39 39 38 38 39 41 41 37 26 17 14
6 0 0 0 2 5 0 0 5 24 44 57 72 92 116 128
133 133 137 141 144 140 130 117 115 121 126 100 42 24 33 46
17 24 24 22 19 16 16 55 25 14 14 23 28 26 24 25
27 32 20 1 0 0 0 0 0 0 0 12 17 16 38 44
44 43 44 45 44 41 39 40 37 32 3 1 25 27 25 29
0 0 0 0 0 9 47 41 36 23 0 0 0 0 4 0
18 38 38 53 20 5 22 26 4 0 1 1 3 44 47 39
40 40 40 39 40 39 39 39 39 39 40 43 40 32 30 28
12 7 4 13 14 11 2 11 38 65 77 86 80 76 102 121
130 133 135 138 141 140 129 119 115 124 117 72 53 60 69 19
0 2 18 25 19 19 18 48 18 15 11 20 25 31 28 30
25 26 23 26 19 12 10 10 10 10 10 8 7 8 40 48
47 47 48 49 48 46 44 44 40 35 5 2 31 34 33 37
0 0 0 0 0 7 45 42 36 25 0 7 0 0 13 6
15 39 38 53 31 10 19 26 7 7 7 1 2 41 46 39
40 40 39 39 39 39 39 38 38 38 39 42 40 33 35 28
17 17 15 23 15 17 10 19 60 80 94 110 102 87 92 111
122 126 130 135 141 140 130 117 115 120 90 62 49 33 11 1
0 0 0 21 28 16 20 47 12 12 11 20 26 27 25 28
27 29 28 29 28 22 34 42 20 18 14 11 11 15 52 64
64 64 64 65 65 62 58 55 51 46 8 1 30 18 13 12
0 0 0 0 0 6 44 41 36 29 3 10 2 2 17 20
17 44 40 53 31 24 19 23 4 14 11 0 1 37 45 38
39 39 39 39 39 39 38 38 38 38 36 40 40 34 37 27
20 19 17 21 18 19 16 8 56 85 100 113 111 100 93 105
117 122 125 132 140 139 128 114 107 99 75 37 19 15 10 0
0 0 0 5 63 15 19 43 8 10 13 19 25 25 26 29
28 26 25 21 27 24 30 33 57 29 27 33 48 61 65 67
67 66 67 68 66 64 59 55 52 49 10 0 32 2 0 0
0 0 0 0 0 5 43 41 36 37 35 40 40 40 45 46
46 53 41 51 22 30 20 31 20 24 22 19 19 34 39 39
39 39 38 39 39 38 38 38 38 36 36 40 39 34 27 23
22 20 18 21 18 16 17 12 28 81 104 113 117 112 102 104
110 117 119 128 140 137 113 82 60 72 57 33 11 22 17 0
0 0 0 0 39 33 17 29 8 9 14 16 22 24 27 27
26 27 25 22 22 23 24 23 23 57 37 42 25 40 59 63
65 65 64 61 63 58 53 50 50 47 12 0 25 0 0 0
0 0 0 0 0 4 43 41 35 38 57 60 61 61 61 61
62 61 46 52 13 18 21 37 31 32 31 30 30 30 33 38
38 38 38 38 38 38 38 37 37 37 35 37 26 14 16 23
23 26 18 21 23 19 19 22 8 66 100 117 125 123 112 105
107 110 114 123 137 133 83 43 44 65 29 18 13 40 2 0
0 0 0 0 18 35 19 34 9 8 13 20 26 26 23 22
27 23 21 23 21 18 20 22 22 63 36 49 23 22 21 39
52 53 51 40 48 46 38 43 49 48 14 0 16 0 0 0
0 0 0 0 0 3 41 41 35 32 55 59 58 57 57 56
56 55 46 50 12 5 14 36 33 36 35 35 35 35 36 37
38 38 38 37 37 37 37 37 36 36 31 16 10 13 24 29
28 4 0 23 19 19 20 23 19 26 90 112 125 132 125 116
110 107 110 118 132 113 59 38 48 50 23 16 14 64 26 0
0 0 0 1 24 44 25 73 31 26 30 23 23 25 23 25
26 24 25 22 21 16 16 18 20 52 31 50 21 21 19 15
24 31 38 33 31 35 32 41 47 47 17 0 9 0 0 0
0 0 0 0 0 3 40 40 33 27 27 27 26 26 25 25
24 23 28 48 13 3 11 37 36 39 38 37 37 37 37 38
37 37 37 37 37 37 37 37 36 26 14 10 9 15 31 14
0 0 0 8 28 27 27 25 22 9 70 104 122 134 134 127
115 107 104 115 125 93 53 40 59 38 71 60 30 19 11 3
1 4 5 5 31 35 25 52 26 32 37 40 53 56 51 62
89 57 38 23 19 22 50 51 38 110 84 129 47 16 21 20
21 24 27 34 43 44 39 40 45 46 19 0 4 0 0 0
0 0 0 0 0 2 39 39 32 28 22 20 20 19 20 19
19 18 26 48 16 1 9 37 33 37 37 37 37 37 37 37
37 36 36 37 36 36 36 35 23 16 9 13 11 16 21 1
0 0 0 0 8 25 32 28 26 19 32 92 115 130 137 135
122 110 100 107 114 86 54 46 88 58 39 43 66 55 9 14
9 0 1 2 26 20 14 12 10 21 44 59 56 44 64 60
57 60 63 79 77 53 38 43 46 117 64 109 43 37 29 19
20 30 22 23 29 42 41 40 42 44 20 0 0 0 0 0
0 0 0 0 0 2 39 40 32 31 28 26 25 24 23 22
22 20 28 50 29 28 35 42 33 36 37 37 36 36 36 36
36 36 36 36 37 41 37 24 39 15 9 10 10 19 17 0
0 0 0 0 0 2 20 53 57 62 36 51 103 123 135 137
127 116 105 98 102 84 57 37 24 55 17 13 7 7 18 22
17 6 0 0 27 18 14 9 11 19 20 25 47 66 83 82
81 84 69 50 48 46 57 66 70 146 105 129 60 42 40 53
38 43 59 35 19 29 38 41 42 42 21 0 0 0 0 0
0 0 0 1 1 6 41 40 32 31 30 28 28 28 28 27
26 21 29 50 43 52 55 44 32 36 36 36 36 36 36 36
36 36 36 33 29 25 32 33 19 16 14 10 12 18 16 0
0 0 1 13 6 0 4 9 28 94 84 43 60 113 130 135
132 122 107 92 96 86 55 18 16 9 11 10 5 19 26 23
16 15 9 3 26 27 21 10 15 19 20 23 23 24 25 26
23 23 30 58 49 41 21 15 26 82 42 52 19 27 53 53
48 61 49 55 50 22 32 28 32 29 20 0 0 0 0 0
21 23 25 26 27 29 36 34 32 31 30 28 28 28 28 28
27 21 24 33 29 32 36 34 34 36 36 35 36 36 36 35
35 35 28 30 25 16 14 16 14 7 12 16 14 16 11 0
0 9 42 20 11 1 9 13 26 36 57 58 72 72 111 131
135 127 104 90 92 83 32 17 16 12 10 8 16 26 27 21
20 19 22 20 44 20 48 11 18 23 22 22 22 22 21 23
24 25 23 25 20 18 15 16 26 72 33 31 16 18 17 19
19 24 58 68 49 59 25 16 25 31 26 0 0 0 0 0
32 32 34 33 34 32 32 32 31 31 30 29 29 28 28 27
27 24 26 28 30 28 32 32 34 35 36 35 35 35 35 36
33 29 22 44 30 14 13 14 6 5 13 16 31 25 9 0
0 41 46 20 12 12 27 14 14 13 5 3 22 79 71 101
128 115 98 90 92 58 13 22 8 11 10 16 28 28 26 24
22 19 24 43 45 11 57 20 17 21 23 22 23 24 25 25
23 26 24 22 23 16 14 17 39 88 34 27 16 17 19 19
17 14 21 26 58 56 35 15 21 42 30 0 0 0 0 0
33 33 33 33 34 33 32 33 32 31 32 31 31 30 29 28
27 24 27 29 32 30 32 32 33 35 36 35 35 35 32 28
22 20 37 60 22 17 14 10 2 7 15 16 41 33 11 25
70 100 37 7 11 8 7 6 4 2 5 8 2 10 59 74
87 95 92 85 58 18 25 11 10 12 21 28 32 29 27 24
23 21 24 60 85 17 57 24 22 26 23 23 24 27 29 26
26 30 28 24 22 18 18 20 43 86 39 31 15 16 17 21
19 16 22 23 21 34 24 16 10 38 38 0 0 0 0 0
31 30 30 29 28 28 27 28 28 30 31 31 30 30 29 29
28 26 27 30 33 32 32 33 33 34 35 35 34 26 21 19
21 27 46 56 17 22 19 13 3 9 15 28 51 23 11 39
55 49 17 10 15 19 20 21 19 14 9 7 11 1 6 46
63 37 78 68 16 25 17 6 15 21 30 37 31 28 28 28
22 22 25 76 79 53 50 22 23 24 24 25 25 27 28 29
28 29 28 26 25 19 18 22 52 82 43 27 19 21 22 21
14 17 22 20 21 18 13 17 10 23 41 1 0 0 0 0
7 5 4 15 22 24 24 31 30 31 31 31 30 30 30 29
29 26 27 29 32 32 32 32 33 34 34 34 23 18 20 20
21 35 50 58 14 27 60 52 11 13 16 15 18 23 4 35
43 47 15 11 14 21 22 22 22 26 25 16 14 19 4 10
58 41 32 21 21 25 8 15 20 28 33 31 28 30 29 27
24 24 25 84 68 70 44 23 23 24 26 28 26 26 29 30
28 30 26 23 25 20 18 22 52 80 46 30 19 24 23 21
16 21 25 25 27 18 10 16 9 11 38 1 0 0 0 0
11 0 0 12 23 27 27 28 30 30 30 30 29 29 29 29
28 27 27 30 33 33 32 31 33 34 33 24 11 17 19 22
24 79 95 108 29 37 53 40 45 70 58 12 19 40 7 45
49 57 17 14 16 24 24 24 26 26 27 26 12 18 16 6
10 33 24 18 34 11 14 26 24 34 31 32 30 31 29 24
27 26 25 89 65 68 39 26 23 24 24 24 24 24 27 28
27 32 29 27 23 21 18 23 60 76 53 33 17 25 23 23
14 21 23 28 26 16 6 14 11 7 25 2 0 0 0 0
41 7 3 12 21 26 27 28 29 30 30 30 30 29 29 29
28 28 28 29 32 33 33 32 32 33 27 18 13 46 39 44
46 114 98 76 30 47 67 70 32 31 28 22 17 19 13 63
53 52 17 17 17 25 26 25 28 28 29 27 22 14 18 4
5 21 14 38 22 14 21 20 32 35 29 30 30 31 26 25
27 25 25 90 54 77 30 23 22 24 27 28 27 24 27 27
27 31 28 26 26 21 19 24 57 78 57 24 18 24 21 23
18 24 25 30 30 12 6 13 10 4 11 2 0 0 0 0
56 28 17 19 19 24 25 27 28 29 29 30 30 30 31 30
30 30 31 31 32 33 33 32 31 26 21 22 31 49 38 36
58 121 81 52 35 21 20 31 35 51 26 26 22 18 17 70
50 62 20 20 19 25 31 32 28 31 29 28 26 19 9 7
15 16 31 47 29 26 23 20 29 28 29 31 30 31 27 23
25 21 24 87 45 73 24 22 22 23 26 27 26 26 26 26
29 31 27 28 28 24 21 24 67 78 60 24 18 24 21 25
24 26 27 31 21 12 8 11 9 7 7 2 0 0 0 0
58 40 24 23 20 23 26 28 30 36 34 33 34 34 34 33
34 33 33 32 32 32 32 32 31 22 34 51 42 33 47 26
37 64 51 20 21 22 22 21 7 14 26 28 24 21 20 75
53 61 20 21 18 24 27 30 28 29 28 31 29 21 8 11
18 13 21 56 25 20 23 13 25 29 29 29 29 28 25 23
24 22 28 78 34 76 21 22 23 22 25 26 24 26 27 27
31 28 25 29 23 25 21 23 70 70 57 20 19 23 25 25
25 29 28 33 22 9 5 13 7 20 34 15 0 0 0 0
37 29 24 23 23 22 20 20 19 37 35 33 35 36 35 35
34 34 34 33 32 32 32 33 30 49 57 47 36 17 18 20
37 53 44 19 23 24 21 15 7 21 28 27 24 20 21 78
58 66 21 21 19 25 27 30 29 27 29 31 28 17 7 13
14 4 33 57 24 19 21 22 30 31 31 30 28 26 22 22
22 22 33 82 37 63 16 21 19 21 21 23 26 26 25 24
28 25 24 25 23 22 22 24 79 65 63 15 17 20 26 21
26 30 32 33 57 13 7 11 22 45 22 9 1 0 0 0
32 21 13 14 14 14 13 14 15 35 37 33 32 33 34 34
34 33 34 33 31 31 32 32 28 57 65 32 13 18 19 21
39 53 32 21 23 21 21 9 11 27 29 28 23 21 21 80
58 67 22 20 19 23 26 27 28 29 27 29 25 14 12 16
11 3 4 29 18 15 16 19 25 26 26 26 26 25 21 22
19 20 39 76 35 54 18 19 21 21 22 24 25 25 24 24
25 27 27 25 23 21 22 24 64 48 50 12 21 18 26 22
28 27 29 29 26 18 6 28 31 18 33 31 9 0 0 0
30 21 13 13 13 13 13 13 14 32 37 30 27 28 29 29
30 30 30 31 31 31 31 20 17 32 23 20 12 19 21 23
44 48 25 25 24 23 18 10 17 28 29 26 25 22 21 75
57 72 22 22 18 22 26 26 27 29 28 27 22 11 13 13
17 33 2 21 19 16 11 21 25 26 26 26 23 22 20 17
15 20 45 66 33 50 19 19 20 19 21 22 22 22 22 23
26 25 23 25 22 23 20 23 65 49 47 11 23 18 25 17
28 26 34 50 56 1 37 34 13 44 40 12 7 0 0 0
30 22 11 11 12 11 11 10 11 28 37 30 27 27 27 26
26 26 26 26 26 27 28 11 17 19 23 22 13 20 23 24
51 41 23 24 19 20 16 11 22 26 27 24 24 20 22 85
54 73 21 21 20 22 25 24 28 27 26 25 18 11 15 15
24 57 40 34 17 19 11 21 25 21 24 25 25 23 21 20
17 20 57 72 49 49 17 16 19 19 20 23 20 22 22 23
18 24 25 25 21 21 22 23 70 36 37 10 19 16 23 18
26 25 34 33 68 13 33 14 44 27 9 7 5 2 0 0
29 22 12 14 17 19 23 20 13 22 37 30 25 25 26 26
25 25 25 24 24 25 23 7 19 20 25 24 14 21 21 22
56 39 25 21 20 23 16 18 27 27 27 26 23 19 22 82
49 66 18 20 20 21 25 25 25 27 24 22 14 10 14 12
29 51 41 34 17 17 13 24 26 25 24 21 22 21 21 18
17 18 61 78 77 92 42 39 62 63 63 56 46 46 28 23
17 21 23 21 17 20 21 24 66 33 34 11 18 13 19 21
23 26 26 13 35 11 20 38 28 9 9 9 6 4 0 0
