P2
128 120
158
53 53 51 50 50 48 47 47 46 45 44 42 42 41 41 39
39 38 37 37 35 35 34 34 33 32 32 30 30 28 28 27
27 27 25 10 0 0 0 0 0 0 0 0 0 0 0 7
13 8 3 0 0 0 0 0 0 0 0 0 0 0 4 0
0 0 0 0 0 0 0 0 0 0 0 0 0 0 0 1
2 5 9 16 22 25 25 25 26 27 27 28 28 29 30 30
31 31 33 33 34 35 36 37 37 38 39 39 41 42 42 42
42 43 44 45 46 47 47 48 50 48 49 50 49 50 50 50
52 51 51 49 50 49 47 47 46 45 44 44 42 42 40 39
38 38 37 36 35 35 34 34 33 32 31 31 30 29 28 28
27 26 26 22 8 1 0 0 0 0 0 2 7 8 2 17
21 18 16 11 4 0 0 0 0 0 0 0 0 0 4 0
0 0 0 0 0 0 0 0 0 0 0 0 1 4 9 14
20 24 25 25 25 26 26 27 28 29 29 30 31 32 32 33
34 34 35 36 36 38 38 39 40 41 41 42 42 42 43 45
46 46 48 48 48 49 49 49 49 50 50 51 51 51 52 52
52 52 51 50 49 48 47 46 46 45 44 43 42 42 41 40
40 38 38 37 36 35 35 34 33 32 31 31 30 29 28 28
28 26 27 25 19 13 6 1 0 3 10 15 18 15 5 19
23 20 18 18 16 12 6 1 0 0 0 0 0 0 0 0
0 0 0 0 0 0 0 0 0 1 3 9 16 22 24 24
25 26 26 27 28 29 29 30 31 31 32 32 33 34 34 35
36 37 38 39 40 40 41 41 41 42 44 44 45 46 47 47
48 48 50 50 50 50 50 51 51 51 51 52 52 52 52 53
53 53 51 50 50 49 48 47 47 46 45 44 43 42 42 41
40 39 37 37 36 36 35 35 34 34 33 32 32 30 29 29
28 27 26 25 22 17 15 14 11 14 19 21 23 18 6 19
25 22 20 19 18 17 15 11 5 0 0 0 0 0 0 0
0 0 0 0 0 1 3 7 14 18 22 24 25 26 27 27
27 28 29 29 30 31 31 32 33 33 34 35 36 37 38 38
39 40 41 41 41 41 43 43 45 44 47 47 48 48 49 49
50 50 51 50 51 52 51 51 51 51 52 52 53 53 52 53
53 52 52 51 50 49 48 47 47 46 44 44 43 43 42 41
41 40 39 38 37 37 36 35 34 34 33 32 31 31 30 29
28 28 27 26 24 20 17 16 18 21 23 25 24 21 10 19
28 26 23 22 20 19 17 15 12 9 7 0 0 0 1 4
0 0 0 4 11 16 22 24 25 25 25 26 27 28 28 29
29 31 31 32 33 33 34 34 35 36 37 38 38 39 40 40
40 40 42 42 44 45 45 46 48 47 48 49 49 49 50 50
50 50 51 51 51 52 51 51 51 52 53 53 52 52 52 52
53 53 52 51 50 50 48 48 47 47 45 45 45 43 43 42
41 40 39 38 37 37 36 36 35 34 33 33 32 32 31 29
29 29 27 27 25 22 19 17 18 22 24 25 26 23 15 22
32 29 26 25 23 21 19 18 14 13 11 10 11 16 19 18
6 8 17 21 24 24 25 25 27 27 28 28 29 30 31 32
32 34 34 34 35 35 36 36 37 38 38 39 39 39 40 42
43 43 44 45 46 46 47 47 49 49 49 49 50 50 50 50
50 51 51 51 51 51 51 51 51 52 51 53 53 53 53 53
53 52 52 50 50 49 49 48 47 46 45 45 44 43 43 42
41 40 39 38 38 38 37 36 36 35 34 33 31 31 31 30
29 29 29 28 27 24 22 20 19 22 26 26 28 25 19 24
33 30 27 25 25 24 22 20 17 15 14 13 19 22 20 20
18 23 25 25 26 28 27 28 29 29 29 31 31 31 32 32
32 34 35 35 36 37 37 38 38 38 39 39 41 42 43 43
44 44 46 45 47 47 48 48 49 50 49 49 50 49 50 50
50 51 51 50 51 52 52 52 52 51 52 52 53 52 53 52
54 52 52 51 50 50 48 48 48 47 46 45 45 43 43 42
41 41 40 39 38 38 37 36 35 35 34 34 33 32 32 31
30 30 29 28 26 25 23 21 21 25 28 30 31 28 19 24
34 31 28 27 26 25 24 22 19 19 17 14 18 21 22 21
24 25 27 28 28 29 30 30 30 31 32 32 33 34 34 34
35 36 36 37 37 37 37 37 39 40 41 41 43 44 44 45
46 46 47 48 49 48 49 49 49 51 49 49 50 51 51 51
50 51 51 51 51 52 51 52 51 51 52 52 52 53 53 54
53 53 52 52 50 50 49 49 49 47 47 45 45 44 43 43
42 41 40 39 39 38 37 37 36 35 35 34 34 32 32 31
31 30 30 29 28 26 25 23 23 28 32 33 33 29 19 22
36 32 29 29 27 26 25 23 21 23 21 16 16 23 21 22
24 27 28 29 30 30 31 31 32 32 34 34 34 34 35 36
35 36 36 37 38 38 39 40 41 43 43 43 44 44 45 46
46 46 47 48 48 48 49 50 49 50 49 50 51 51 50 51
51 51 51 51 51 51 52 52 52 52 53 53 52 50 50 50
54 52 52 51 51 49 49 48 48 47 46 46 45 44 44 43
42 41 40 39 39 38 37 37 36 35 35 35 33 33 32 32
32 31 30 29 29 27 26 24 25 30 33 34 34 30 21 22
37 33 31 30 28 27 26 24 22 24 23 18 16 24 21 24
27 29 30 30 31 32 33 33 33 34 34 34 35 35 36 37
37 38 38 38 40 40 41 41 42 44 43 44 45 45 46 46
47 47 47 48 48 49 49 49 49 51 49 50 50 50 50 50
50 51 52 52 52 52 52 51 50 51 50 50 52 52 52 52
53 52 52 51 51 50 50 49 48 47 47 45 45 45 44 43
42 41 40 40 39 39 38 37 37 36 35 34 34 34 33 32
32 31 31 30 29 29 28 27 26 31 35 36 36 31 22 21
36 33 31 30 29 28 27 24 24 26 24 20 16 24 24 27
28 30 31 31 32 33 34 34 35 35 35 35 35 35 37 37
38 38 39 39 40 40 41 42 43 45 44 44 45 46 46 46
46 47 47 48 48 49 49 49 50 51 50 51 51 51 51 51
51 51 51 51 51 50 51 52 51 53 52 51 52 53 52 52
54 53 52 52 51 49 49 48 48 48 47 45 45 44 44 44
43 41 40 40 39 38 37 38 37 36 36 35 35 34 33 33
33 32 32 31 31 29 29 29 29 33 36 36 37 33 24 21
38 34 32 31 30 29 28 26 26 26 25 22 17 24 26 29
31 32 32 34 34 34 35 34 35 34 36 36 37 37 37 38
39 39 40 40 41 41 42 42 43 45 43 45 46 46 46 47
47 48 48 48 49 50 50 50 50 52 50 50 50 51 50 50
50 50 51 52 53 52 53 52 52 52 52 53 53 53 52 52
53 52 52 51 51 50 49 49 48 48 47 46 45 44 44 43
42 41 41 40 39 39 38 38 37 36 36 36 35 34 34 33
32 32 32 31 31 30 30 30 31 34 37 37 37 33 25 21
37 36 32 32 31 30 29 27 28 26 26 24 19 25 27 30
32 32 33 33 33 34 35 35 36 36 37 37 38 38 39 38
40 40 40 40 41 42 42 43 43 46 45 45 46 46 47 47
47 48 48 49 49 48 50 50 50 51 49 49 49 49 50 51
52 52 51 51 52 51 52 52 52 52 53 52 52 52 52 52
53 53 52 51 50 49 49 48 48 47 47 46 46 45 44 43
43 43 42 41 39 39 39 38 37 36 36 36 35 34 34 33
33 32 31 31 31 30 30 30 31 35 37 38 38 34 26 21
37 36 32 32 32 31 30 30 29 27 26 24 20 26 28 31
32 32 33 33 35 35 36 36 37 36 37 37 37 38 39 39
40 40 41 41 42 42 43 43 44 45 44 45 46 47 47 47
47 47 48 49 49 49 47 48 47 48 49 50 51 50 51 50
50 51 51 51 52 51 51 52 52 51 53 51 51 51 51 51
53 53 52 51 51 50 49 48 48 48 47 46 45 44 44 43
43 42 41 41 40 39 39 39 38 38 37 37 36 35 35 34
34 33 32 32 32 31 31 31 32 36 38 38 39 35 27 21
36 36 33 33 32 32 31 30 30 28 28 27 23 27 29 33
34 34 34 35 36 36 37 37 37 37 38 38 39 39 40 40
41 41 41 41 42 42 43 44 45 46 45 46 47 47 48 48
46 45 48 47 47 47 49 51 50 50 50 51 51 51 51 51
51 52 50 52 52 51 52 51 51 52 51 52 52 52 52 52
53 53 52 52 51 50 49 48 48 47 46 46 45 45 44 44
43 43 42 41 40 40 39 39 38 38 37 36 36 35 34 34
34 33 33 33 32 32 31 32 33 37 39 39 39 35 28 23
35 36 33 32 32 33 31 30 30 28 28 27 25 29 31 33
35 35 36 36 37 37 37 37 38 38 39 38 39 39 40 40
40 41 42 42 42 44 44 44 44 46 46 46 46 46 45 45
48 48 48 49 50 50 50 50 50 50 50 51 51 50 51 51
51 51 51 52 52 52 53 53 53 52 52 51 52 52 52 51
53 53 52 51 51 50 50 49 49 48 47 47 46 45 45 44
44 43 42 41 40 40 40 39 39 38 38 37 37 36 35 34
34 33 33 33 32 32 32 33 34 37 40 40 40 36 29 22
32 37 33 32 33 32 32 32 32 30 30 29 25 30 33 35
35 35 35 36 36 37 37 37 37 38 39 40 40 40 41 42
41 42 42 42 43 43 44 44 45 45 45 44 44 45 47 49
48 50 49 49 49 50 49 50 50 50 50 51 52 50 52 51
51 51 52 52 52 52 52 52 52 52 52 53 52 52 52 51
53 53 52 51 51 50 50 49 48 48 47 47 46 45 45 44
44 43 43 42 41 41 41 39 39 38 38 37 36 36 36 35
35 34 34 34 33 32 33 33 34 37 41 40 40 36 30 17
26 37 35 34 34 33 33 33 31 30 31 30 26 32 33 36
35 36 37 37 37 38 38 38 38 39 40 39 40 40 41 41
41 42 42 43 43 43 42 42 42 44 45 47 47 47 48 49
49 50 49 50 50 50 51 50 50 51 51 50 51 51 51 51
50 50 51 52 52 52 52 53 52 52 52 52 52 50 51 51
53 52 52 51 51 50 49 49 49 48 47 47 46 46 45 44
44 43 43 41 41 41 40 40 39 39 38 38 38 37 36 36
35 35 34 33 33 33 33 33 34 38 41 41 41 37 28 21
31 39 35 35 34 34 33 33 32 31 32 31 28 33 34 37
37 37 37 37 37 38 38 39 39 39 40 40 41 42 42 43
42 42 42 42 41 43 44 45 45 46 46 47 48 48 48 50
50 50 50 50 51 50 50 51 51 50 51 51 51 51 52 51
51 52 51 52 52 52 52 52 51 51 52 51 51 52 52 52
53 53 52 51 51 51 50 49 49 48 48 47 47 46 46 45
44 44 43 43 42 41 41 40 39 39 38 38 37 37 36 37
35 35 35 35 34 34 34 34 35 39 42 41 41 37 29 28
29 39 36 36 36 35 34 34 33 32 32 31 28 34 34 36
37 38 38 38 38 38 40 40 40 40 41 41 41 41 42 42
42 42 43 43 44 44 45 46 46 47 47 47 48 49 48 49
49 51 51 50 51 51 50 51 51 51 51 51 52 51 51 52
51 51 52 52 52 52 53 53 53 53 53 53 52 51 50 49
53 52 51 51 51 51 50 50 49 48 48 48 47 47 46 46
45 44 43 42 42 41 40 41 41 39 39 38 38 38 38 36
36 35 34 34 34 34 33 34 35 39 42 42 41 38 29 30
29 40 37 37 36 35 34 35 34 33 32 32 28 35 36 38
38 38 38 38 39 39 40 40 39 40 40 41 41 41 42 43
44 44 45 44 44 46 46 46 47 47 48 48 49 49 49 50
50 51 51 50 51 51 51 52 50 51 51 51 52 51 52 52
52 52 52 52 53 53 53 53 53 51 51 51 51 52 52 53
53 53 52 52 51 51 50 50 50 49 48 48 47 47 46 46
45 44 44 43 42 42 42 41 40 40 40 39 38 38 37 37
37 36 36 35 35 34 35 35 36 39 42 42 42 38 30 31
29 39 37 37 36 36 35 35 35 33 34 33 29 35 36 38
38 39 39 39 39 40 40 39 39 40 41 41 42 42 43 43
44 43 45 45 45 45 46 46 48 48 49 48 49 49 50 50
50 51 51 51 51 51 51 52 51 51 51 51 51 52 52 52
52 52 51 52 52 52 52 51 52 53 52 52 53 53 51 52
53 53 52 52 52 51 50 50 50 48 49 48 48 47 46 46
45 44 44 43 43 43 42 41 41 41 40 40 39 39 39 37
37 36 36 35 34 35 34 34 36 40 43 43 43 40 32 33
30 39 38 38 37 36 35 36 35 33 34 34 29 35 37 39
39 39 39 39 39 40 40 41 40 41 42 42 43 43 44 44
44 44 46 45 46 46 46 46 47 47 47 48 49 50 50 51
51 51 51 51 51 51 52 52 52 52 52 52 52 51 52 52
51 51 51 52 52 52 53 52 51 51 52 52 52 52 52 52
53 53 53 52 52 51 51 51 50 49 50 49 48 47 47 46
46 45 44 44 43 43 43 42 42 41 40 40 40 39 39 38
38 37 36 36 36 35 35 36 37 40 44 44 44 40 31 33
31 38 39 38 38 37 36 36 37 35 35 34 30 35 34 38
38 39 40 40 41 41 42 42 41 42 43 42 43 43 44 44
44 45 46 45 46 47 47 48 48 48 49 49 49 49 50 50
50 51 52 51 51 52 52 52 52 52 52 52 52 52 52 52
52 52 52 52 51 51 52 53 53 53 52 53 53 52 52 51
53 53 52 52 51 51 51 50 49 49 49 48 48 48 47 46
46 46 45 44 44 43 42 42 42 42 40 40 40 40 39 38
38 37 37 36 35 35 35 35 37 40 44 44 43 41 31 35
32 38 39 39 38 37 36 37 37 35 35 34 30 36 36 40
40 41 41 41 42 41 42 42 42 41 42 42 42 43 44 44
45 45 46 46 46 47 47 48 49 48 48 49 49 50 51 50
51 52 52 52 52 52 52 51 51 51 51 51 52 51 51 52
51 52 52 52 51 51 52 51 52 51 52 52 52 52 51 51
53 52 53 52 52 51 51 51 50 50 49 48 48 47 47 46
46 45 45 44 44 43 43 43 42 41 42 41 40 40 39 38
38 37 37 37 37 36 36 36 37 41 44 44 44 41 31 35
32 37 39 39 38 37 36 37 38 35 36 35 31 37 38 40
40 41 40 41 42 42 42 42 42 42 42 43 43 43 44 44
45 45 46 45 47 47 47 47 48 48 50 49 50 50 50 51
51 49 50 50 49 50 51 52 53 53 51 52 53 51 52 52
51 51 51 52 52 51 52 51 52 52 52 51 52 51 52 52
54 53 52 52 52 51 50 50 50 50 49 49 49 48 48 48
46 46 46 45 44 44 43 43 42 42 41 41 40 40 39 39
39 38 37 37 37 37 37 37 38 41 45 45 44 41 32 36
36 37 40 39 38 37 37 38 39 35 36 35 32 38 38 41
41 41 42 42 42 42 42 42 43 43 42 43 44 44 45 45
45 46 47 47 47 47 48 48 48 49 49 49 49 49 49 49
50 51 51 52 52 53 53 52 53 53 53 51 52 51 52 52
51 52 52 52 52 51 52 52 52 52 53 52 53 53 52 51
54 52 53 52 51 51 51 50 50 50 50 48 48 48 48 47
46 46 45 44 44 44 43 43 43 42 42 41 40 40 40 39
38 38 37 37 37 36 36 37 38 42 45 44 45 42 32 36
37 35 39 39 39 38 38 37 38 36 36 36 32 38 37 40
40 41 41 42 42 42 42 42 42 42 43 44 45 45 45 45
46 46 48 46 48 48 48 48 48 48 49 49 50 50 51 51
52 51 51 51 52 52 52 52 53 53 53 52 52 52 52 51
52 52 52 52 52 52 51 51 51 53 53 51 52 52 52 52
53 52 52 52 51 51 51 51 50 50 49 49 48 48 48 47
47 47 46 46 45 45 44 44 43 42 42 41 41 41 40 40
40 39 39 38 38 37 37 38 39 41 46 44 45 43 32 35
39 34 40 40 40 39 39 37 38 36 37 37 32 38 38 41
42 42 42 42 42 43 43 43 42 43 44 44 44 44 45 46
47 47 47 46 47 46 47 48 49 50 50 50 51 51 52 52
52 52 53 53 53 52 53 53 53 52 53 52 51 51 51 52
52 52 52 52 52 52 52 52 52 53 52 52 52 52 52 52
53 52 53 52 51 51 51 51 51 50 49 49 49 48 48 47
46 46 46 45 44 44 44 44 43 43 43 42 42 41 41 40
40 39 39 38 38 38 38 38 39 42 46 46 46 42 33 36
42 33 41 41 40 39 39 38 37 36 37 37 33 38 37 41
42 42 42 43 43 43 44 43 43 44 45 44 45 46 46 46
46 46 46 47 47 47 48 48 49 50 52 51 51 51 52 52
53 52 52 53 53 52 52 53 52 53 54 52 52 53 53 52
52 52 52 51 51 52 52 51 51 52 52 52 52 52 51 53
53 53 53 52 52 52 51 50 50 50 49 49 49 48 49 48
48 47 46 45 45 45 44 44 43 42 42 41 41 41 41 40
40 40 39 39 38 38 38 38 39 42 46 46 46 43 33 37
43 33 42 41 40 39 39 37 38 36 37 37 33 37 37 41
42 42 43 43 44 44 44 44 45 45 45 45 45 45 45 46
46 47 47 47 48 48 49 49 49 49 51 51 51 51 52 52
52 52 52 52 52 53 53 52 52 52 53 52 51 52 52 52
52 52 52 53 53 52 52 53 52 53 52 52 52 52 50 49
53 52 52 52 51 52 51 51 50 51 50 49 49 49 48 48
47 47 46 46 45 45 44 44 44 44 43 42 42 41 41 41
40 40 39 38 38 38 38 38 39 43 47 47 46 44 33 37
45 34 42 41 41 40 40 39 39 37 38 38 34 38 37 42
43 43 43 43 43 43 43 43 43 43 44 45 46 46 47 47
46 47 48 47 48 49 49 49 50 50 52 51 52 52 52 52
52 52 52 51 51 52 52 52 51 52 53 52 52 52 52 52
52 53 52 53 53 52 52 51 51 51 50 50 47 47 48 49
53 52 53 53 51 51 51 51 51 50 50 49 49 48 48 47
47 47 46 46 45 44 44 44 44 43 43 42 41 41 41 41
40 40 39 39 39 39 38 38 40 43 47 47 46 44 33 36
47 34 41 41 41 40 40 39 39 37 38 37 34 38 38 42
42 43 43 43 41 41 43 43 44 44 45 46 45 45 46 46
47 47 48 48 49 49 50 50 50 50 52 51 51 51 52 52
52 52 51 52 52 51 52 52 53 51 53 52 52 53 53 51
52 52 53 51 51 51 51 50 51 51 52 52 52 51 50 50
53 52 53 52 52 51 51 50 50 50 50 49 49 48 48 48
47 47 46 45 45 45 44 44 44 44 43 43 42 42 42 41
41 40 40 39 39 39 39 39 40 42 48 48 48 45 34 37
47 34 40 42 41 40 39 38 38 37 38 37 35 39 37 42
43 42 42 42 43 42 42 42 43 45 45 47 45 46 47 46
47 47 48 48 48 49 49 50 50 50 51 51 51 51 52 52
51 51 52 52 52 52 52 52 53 52 54 52 52 52 52 51
51 51 51 50 51 51 52 52 52 51 51 51 51 50 50 50
53 53 53 52 52 52 52 51 51 50 50 50 49 49 48 48
48 47 47 46 45 45 45 44 44 44 43 43 43 42 41 41
41 41 40 40 39 39 40 40 41 43 48 47 47 45 33 37
48 36 39 42 42 41 41 39 40 38 38 38 33 38 38 42
42 41 41 42 42 42 44 43 41 42 46 47 46 46 46 46
47 47 48 49 49 49 50 51 51 51 51 52 51 52 52 52
52 52 52 52 52 52 53 53 53 53 51 48 49 50 51 51
51 53 53 53 50 51 51 51 50 51 50 50 50 51 50 48
53 52 52 52 52 52 51 51 51 50 50 50 49 49 49 48
48 47 47 47 46 46 45 45 45 44 43 43 44 43 42 42
41 41 40 40 40 39 39 39 41 43 48 48 48 45 35 37
49 40 39 43 43 41 40 40 39 38 38 38 36 39 40 43
41 36 36 29 37 36 35 40 43 44 43 46 46 47 48 47
48 48 49 50 50 50 50 50 51 51 52 51 51 52 52 53
53 53 52 53 52 51 50 50 50 51 52 52 52 52 52 51
51 52 53 54 51 51 50 50 51 51 51 50 50 50 50 48
35 50 53 53 52 52 52 52 51 50 50 50 50 48 49 48
48 48 48 47 47 45 46 45 45 45 44 44 43 43 42 42
41 41 41 40 41 40 40 40 41 43 49 48 47 45 34 36
48 42 37 43 43 42 42 40 40 39 39 40 37 38 38 40
39 27 27 20 28 30 37 35 39 44 44 44 47 47 47 47
48 48 49 49 50 50 51 51 52 51 53 51 52 52 52 52
52 51 51 51 50 52 52 52 52 52 52 51 52 51 52 52
52 51 52 52 51 51 51 51 53 51 51 51 50 50 50 49
26 47 53 53 52 52 51 51 51 50 51 50 50 49 49 49
48 48 47 47 47 46 46 46 44 44 44 44 44 43 43 43
43 42 41 41 40 40 40 40 42 43 49 48 47 46 35 37
50 43 35 43 42 42 41 40 41 39 40 38 34 33 31 36
31 22 16 16 20 24 34 33 34 42 45 46 47 48 48 48
49 49 49 50 50 50 51 50 51 51 51 50 50 50 52 52
52 52 53 53 53 52 52 53 53 52 51 51 51 52 51 51
52 52 51 53 51 51 51 51 52 51 50 50 51 50 51 50
26 46 53 53 53 52 51 50 51 52 52 51 50 49 49 48
48 48 47 47 47 46 46 45 48 53 50 46 45 43 43 42
42 42 42 41 41 41 41 40 42 44 49 48 47 46 35 37
50 45 33 44 43 42 42 41 41 38 39 35 29 25 22 25
30 33 30 32 33 27 30 30 30 31 44 47 45 48 48 48
48 49 50 49 51 50 50 50 50 50 50 50 51 51 51 51
51 51 52 52 52 52 52 52 52 52 52 52 52 52 52 52
52 52 52 52 51 51 51 52 52 51 51 50 50 50 49 49
26 47 53 53 53 52 51 58 62 59 57 54 52 50 49 49
50 49 48 47 47 47 47 46 54 64 60 55 54 51 46 43
42 41 42 41 41 40 41 40 42 44 49 48 48 47 35 37
50 47 32 43 44 43 43 41 41 38 34 25 24 42 60 73
77 77 76 80 83 85 75 49 25 27 39 47 45 46 48 48
48 49 50 50 50 50 50 51 50 49 51 50 50 51 51 51
52 51 53 53 52 52 52 51 52 52 52 51 51 50 52 51
51 52 51 53 51 52 51 51 51 52 51 51 50 49 50 49
29 49 53 53 53 52 52 61 67 64 62 58 56 55 55 51
50 48 48 47 46 47 46 46 54 61 59 56 56 57 52 43
42 42 42 42 41 41 41 41 42 43 48 48 47 46 34 35
47 47 30 43 43 43 42 41 40 33 24 37 72 81 78 80
83 85 90 89 86 82 78 66 46 25 31 37 42 45 46 47
48 49 49 50 47 49 49 50 50 51 51 51 50 51 51 51
51 50 52 52 51 52 52 51 51 51 51 52 51 51 51 52
52 50 51 51 51 51 51 50 50 51 51 50 51 50 50 50
30 53 56 55 54 52 51 61 67 65 61 59 61 63 64 56
58 55 52 48 46 46 46 45 51 49 51 52 55 56 54 45
43 43 43 42 42 41 41 41 42 43 48 49 47 42 32 27
32 48 31 41 43 43 42 41 39 26 42 78 81 81 93 107
109 110 110 76 39 37 18 10 7 4 4 3 9 19 29 42
48 48 48 50 48 49 49 49 49 50 50 50 50 50 50 50
50 50 52 53 51 51 52 51 51 50 51 51 51 50 51 51
52 51 51 51 52 52 51 50 50 50 50 50 50 49 49 49
30 55 59 55 56 57 56 59 42 48 58 61 65 66 64 47
43 52 55 56 53 53 52 48 48 30 24 25 30 35 44 46
42 42 42 41 41 40 41 40 42 43 48 48 46 37 27 27
35 48 31 39 43 42 41 39 28 23 33 32 30 27 41 100
109 95 77 13 9 0 0 0 0 0 0 0 0 3 9 24
48 47 49 49 48 49 49 49 50 49 49 49 50 49 50 50
50 50 51 51 51 50 51 51 50 50 51 51 50 50 51 51
51 51 51 51 51 51 50 50 50 50 50 50 50 49 48 47
29 53 58 48 48 55 61 62 7 2 19 39 43 48 57 31
1 6 14 26 34 43 52 52 48 28 12 17 16 5 16 46
42 42 42 41 40 40 40 40 42 42 49 49 47 45 34 34
46 49 34 37 41 30 19 12 9 2 0 0 0 0 33 113
127 83 10 1 0 0 0 0 0 0 0 0 0 2 4 12
46 45 46 49 48 49 49 49 49 49 49 50 49 49 50 49
49 49 49 51 51 49 50 49 49 50 50 50 49 50 50 50
52 50 52 51 51 51 50 49 49 48 48 47 46 48 48 49
27 44 54 57 56 57 65 65 9 0 6 18 22 21 41 29
0 0 0 0 2 3 9 23 48 26 5 6 9 4 13 47
42 41 42 40 40 40 40 40 41 43 48 48 48 46 35 35
48 49 35 22 20 15 0 0 0 0 0 0 0 3 95 144
149 131 57 0 0 0 0 0 0 0 0 0 1 59 49 3
36 41 43 47 47 48 48 48 48 49 49 49 50 49 48 49
49 49 50 50 50 49 48 49 50 49 50 50 50 50 50 50
50 50 50 48 47 47 47 48 48 48 49 49 50 49 48 48
23 5 8 18 32 46 57 61 11 0 4 11 14 16 39 34
2 0 0 0 0 0 0 9 49 19 0 0 4 2 13 48
42 42 41 41 41 41 41 40 42 43 49 49 48 45 36 36
48 50 37 9 9 2 0 0 0 0 0 0 0 19 109 123
150 84 112 12 0 0 0 0 0 0 0 0 0 0 3 2
16 35 44 45 48 47 48 48 48 48 49 49 49 48 49 50
49 49 50 49 50 49 49 50 50 50 50 50 50 50 51 50
50 50 50 50 50 50 49 49 49 49 49 48 50 48 48 47
22 1 0 0 0 1 6 27 12 0 1 3 0 8 34 29
0 0 0 0 0 0 0 8 48 9 0 0 0 2 15 50
42 42 41 41 41 41 41 41 42 43 49 49 48 47 36 36
48 49 39 3 0 0 0 24 50 0 0 0 0 29 94 34
140 25 99 73 0 0 0 3 77 42 0 0 0 0 1 1
10 22 39 45 46 48 47 48 49 49 49 49 50 49 50 49
49 50 50 49 50 50 50 50 50 51 50 50 52 51 52 51
51 50 50 49 50 49 49 49 48 48 48 49 51 49 50 50
22 1 0 0 0 0 0 13 11 0 0 0 0 3 36 29
0 0 0 8 13 1 0 6 48 8 0 0 0 0 13 52
43 42 42 42 42 42 41 42 43 44 48 49 48 46 36 36
48 48 41 4 0 0 0 81 31 0 0 0 4 80 77 44
133 34 49 133 29 1 0 70 130 18 0 0 0 0 7 8
12 17 25 39 46 48 48 48 49 50 50 49 50 50 49 50
50 50 49 51 50 51 51 51 51 50 50 50 51 51 51 50
50 49 50 49 49 50 50 51 50 50 50 50 51 50 50 50
24 2 0 0 0 0 0 12 10 0 0 0 0 2 40 34
0 0 0 13 22 14 6 4 48 7 0 0 0 0 10 51
43 43 42 42 41 41 41 42 44 44 49 50 49 47 36 36
47 49 43 6 0 0 11 111 3 0 0 1 83 109 80 76
135 99 38 137 93 19 10 56 31 8 8 11 5 9 37 14
3 23 17 32 42 48 49 48 49 49 49 49 50 50 50 49
49 50 50 51 50 51 50 50 50 48 49 51 51 50 51 50
51 51 50 51 51 51 51 51 51 52 51 50 50 47 47 46
22 2 0 0 15 5 0 10 9 2 0 0 0 2 36 36
0 0 2 17 22 20 17 5 46 8 0 0 0 0 8 52
43 43 43 42 42 42 42 43 43 43 49 49 49 47 35 35
47 50 44 6 1 0 40 85 0 0 0 29 39 95 86 73
105 52 25 70 93 89 57 36 27 23 18 21 59 80 55 28
0 7 15 25 39 47 48 47 49 50 50 49 49 50 49 50
50 50 50 50 50 50 51 50 51 49 50 51 52 51 51 51
52 52 52 52 51 50 50 51 51 50 47 46 46 45 44 41
22 2 13 9 10 2 0 9 11 2 0 0 0 8 38 40
0 1 2 14 21 20 17 5 46 14 1 0 0 0 6 52
43 43 43 42 42 42 42 42 44 44 50 49 50 47 35 36
48 50 45 8 2 2 59 67 8 9 8 6 32 44 18 14
48 12 11 9 31 91 109 104 100 96 91 77 60 69 64 41
4 0 6 16 37 46 49 48 48 49 50 51 50 51 50 51
50 50 51 50 51 50 51 50 50 50 50 51 52 52 52 52
52 51 49 47 48 47 50 48 46 41 36 32 28 25 22 20
23 8 14 1 7 5 0 10 12 0 0 0 0 13 42 46
3 3 5 1 9 18 17 3 46 51 39 29 21 15 21 53
43 43 43 43 42 42 42 43 44 45 50 50 50 46 36 37
48 49 44 9 21 21 20 14 11 20 42 61 28 5 27 51
66 79 84 37 13 26 76 109 117 117 110 97 82 58 62 53
10 0 3 8 27 46 49 49 50 50 49 51 49 51 51 50
50 50 50 50 51 50 51 50 49 49 50 51 49 49 49 48
49 45 41 39 34 30 27 23 21 21 21 21 22 24 24 24
23 8 4 0 0 2 0 14 38 21 15 14 4 2 37 65
46 39 34 22 12 10 10 4 46 60 56 55 56 60 63 60
43 43 43 43 43 42 42 43 45 45 50 51 50 44 39 39
48 49 37 7 28 57 64 37 60 79 86 62 11 34 99 114
116 114 111 102 75 32 18 64 112 114 105 97 96 78 57 58
15 0 0 4 18 41 49 49 49 49 49 50 49 50 50 49
49 50 50 49 48 47 50 47 48 46 46 44 40 36 32 28
25 23 22 22 22 22 23 24 24 26 26 27 28 30 29 31
23 3 0 0 0 0 0 18 69 62 54 55 51 41 54 64
30 32 37 40 41 41 42 44 60 55 54 55 58 65 67 62
43 43 43 43 43 42 42 43 45 45 50 51 49 42 39 39
48 47 32 7 33 65 59 67 90 94 72 15 30 97 109 108
108 106 107 105 112 102 40 11 47 99 101 101 87 76 66 55
23 0 1 1 9 36 49 49 49 49 49 50 48 47 47 47
46 47 47 46 44 41 39 35 32 29 26 24 23 23 23 24
25 26 27 28 27 21 31 31 32 34 34 35 36 35 23 35
24 5 0 0 0 0 0 18 72 59 63 67 72 69 63 54
23 22 22 21 22 22 23 27 32 29 34 40 48 51 50 50
43 43 43 43 43 42 42 43 44 44 50 50 49 40 38 41
48 38 24 3 41 63 60 85 90 90 32 27 86 101 87 98
99 103 102 86 87 107 98 32 9 56 85 91 84 65 60 60
33 0 0 0 5 38 49 49 48 49 49 49 47 47 49 42
37 33 31 28 26 24 24 25 26 26 27 29 30 31 32 33
34 34 35 36 36 15 35 38 39 40 35 36 40 28 35 42
28 41 40 28 16 9 4 21 62 52 64 68 72 71 58 46
25 23 22 20 18 17 16 16 15 15 16 18 35 43 39 38
42 43 43 43 43 43 43 43 44 44 50 50 48 36 34 42
42 31 19 0 46 58 68 77 82 43 13 75 93 80 110 110
86 89 101 106 89 81 95 71 18 25 86 68 68 63 57 60
43 0 0 0 2 36 46 45 42 38 36 32 29 29 46 36
20 24 27 28 29 30 32 32 34 35 36 37 38 39 39 40
40 33 33 40 41 26 30 43 43 43 29 40 39 29 44 44
29 55 68 67 62 58 53 55 54 46 60 64 69 70 62 52
30 24 21 17 16 16 16 15 15 16 17 19 38 26 29 42
42 43 42 42 43 43 42 42 44 44 49 50 47 35 33 42
37 30 14 0 46 56 62 59 47 12 47 91 83 91 52 26
13 12 12 28 59 98 96 79 37 33 89 66 63 56 54 53
49 2 0 0 0 20 28 27 26 26 27 28 29 28 37 32
25 31 34 36 37 39 40 40 41 41 42 41 42 43 44 44
44 44 38 35 45 41 20 45 46 43 26 41 28 39 41 47
29 56 69 69 66 67 67 70 43 12 19 29 39 46 45 51
31 22 18 9 8 8 15 19 18 17 21 24 40 37 35 51
49 47 24 25 43 43 42 44 44 42 48 49 47 36 33 39
29 21 2 0 49 52 50 51 30 18 62 72 52 18 2 0
1 1 0 3 30 82 84 65 47 68 91 74 47 48 43 44
48 7 0 0 0 15 30 31 33 33 34 36 37 36 42 38
30 38 41 42 43 43 45 45 45 45 45 45 45 46 46 45
46 47 47 39 36 43 20 39 46 42 27 31 36 42 43 47
29 49 62 63 64 67 68 69 34 0 0 0 3 15 25 52
31 20 15 1 0 0 7 13 11 6 14 16 37 54 48 48
49 51 43 38 44 43 43 43 31 27 44 47 47 35 24 38
28 8 0 1 49 44 45 51 37 27 50 70 40 12 0 0
3 4 5 6 20 37 67 60 35 57 86 61 41 33 27 37
43 11 0 0 0 22 38 39 41 41 42 43 43 40 37 33
34 43 45 44 46 47 48 48 48 48 48 48 47 46 47 46
46 48 48 48 39 37 34 24 45 38 29 25 46 42 44 45
36 41 45 48 51 50 55 63 28 0 0 0 1 1 16 55
28 18 15 1 0 4 2 0 0 0 1 4 33 55 40 35
34 38 43 45 43 43 43 43 25 24 43 47 48 38 21 39
31 1 0 3 45 32 32 53 52 29 43 71 47 8 4 6
15 15 15 19 12 13 27 27 23 23 43 49 32 23 17 23
24 11 0 0 0 27 43 44 44 44 45 45 44 39 16 12
29 45 48 48 48 48 48 47 48 49 49 49 48 48 47 47
47 48 48 48 48 37 33 14 24 19 23 36 46 41 45 44
31 33 32 36 46 43 51 63 25 0 0 0 3 1 6 55
22 12 2 0 0 13 10 3 1 0 0 0 32 56 40 29
44 40 38 42 43 43 43 44 37 32 44 48 48 42 19 35
24 0 0 4 32 28 20 37 39 12 22 36 29 8 4 10
10 16 15 10 5 10 7 5 11 8 15 28 21 15 17 17
13 5 1 0 0 26 45 46 47 46 45 42 41 38 16 9
24 45 48 50 50 49 49 50 49 48 49 49 49 49 48 46
47 47 47 48 49 46 36 14 0 2 31 42 44 40 44 41
32 32 37 41 47 47 55 61 25 0 0 0 0 0 8 56
8 0 0 0 1 8 18 10 2 0 0 0 32 57 39 21
36 32 35 41 44 43 43 43 42 36 46 48 49 47 23 29
26 1 0 5 21 18 14 26 20 5 7 15 13 13 7 4
10 10 10 6 2 9 4 1 2 2 9 16 17 10 9 9
5 1 1 1 0 23 46 48 47 28 13 7 20 34 12 7
23 45 48 49 49 49 48 49 48 49 49 49 49 49 48 48
47 46 47 47 48 46 46 30 0 9 42 42 37 37 42 43
31 15 8 14 23 31 40 47 23 0 0 0 0 0 10 56
8 0 0 0 2 7 22 18 14 0 0 0 30 58 41 21
28 27 32 42 44 43 43 43 42 37 45 49 49 49 29 24
35 1 1 4 11 11 4 11 5 2 1 4 10 13 7 5
5 8 7 4 6 6 0 0 2 1 3 9 7 5 10 3
0 0 1 8 9 13 40 50 48 30 24 31 38 38 7 2
21 45 48 49 49 48 48 49 49 49 49 48 49 49 48 48
48 46 46 46 46 45 47 41 3 11 44 40 33 33 41 45
37 11 0 0 0 0 0 9 21 0 0 0 0 0 11 53
5 0 0 0 6 24 26 22 19 1 0 3 31 58 45 33
30 23 31 40 44 44 43 43 42 36 45 49 49 50 37 25
35 4 1 1 6 7 4 4 2 0 0 1 3 6 5 3
5 3 4 3 1 5 1 0 1 1 1 5 2 3 12 5
2 1 7 31 53 18 25 46 49 48 47 47 46 40 11 3
23 45 48 49 50 49 49 49 48 49 49 49 49 49 48 47
48 47 46 45 46 47 47 42 5 10 45 44 33 34 45 46
36 13 0 0 2 0 0 5 20 0 0 12 8 0 8 51
3 0 0 0 4 21 31 12 6 0 0 3 27 58 47 33
17 6 22 39 43 43 43 43 43 35 44 49 48 49 40 31
32 16 0 0 2 3 5 5 0 0 0 0 0 3 3 2
3 2 3 1 1 0 0 1 1 0 1 0 0 1 4 1
1 2 13 52 70 51 39 46 49 48 47 45 44 41 19 0
26 45 48 49 49 48 48 49 48 48 48 49 49 48 47 47
47 47 46 44 46 47 47 44 8 8 44 46 35 33 45 46
35 13 0 1 10 2 0 4 19 0 5 27 19 3 9 50
2 0 0 0 1 1 22 3 0 0 1 0 21 57 48 26
11 7 18 37 43 43 43 44 41 34 45 48 49 49 43 37
33 23 1 0 2 2 1 0 0 0 0 0 0 1 3 0
3 3 4 2 0 0 0 0 0 1 0 3 0 1 2 0
4 3 17 61 90 73 44 45 46 48 48 46 44 41 29 15
35 46 49 49 50 48 48 48 48 48 48 48 48 47 48 47
47 48 47 45 45 47 46 45 9 6 42 46 33 31 44 46
32 12 0 9 27 13 3 3 23 1 14 25 21 7 9 48
2 4 0 0 0 0 22 6 0 0 0 0 16 57 42 15
9 0 17 36 43 43 44 44 41 36 47 48 48 47 43 35
37 29 2 0 2 1 0 0 0 0 0 0 0 1 3 5
1 1 4 1 1 1 2 0 0 0 0 1 0 1 0 0
0 3 24 84 93 88 45 46 47 48 48 47 44 39 36 35
41 48 48 49 50 48 49 48 48 49 48 49 48 48 47 47
47 47 47 45 44 41 44 42 11 4 31 34 25 29 43 46
31 14 0 15 29 14 5 3 47 41 46 47 44 38 35 51
2 0 0 0 0 0 21 9 0 0 0 0 9 55 39 11
9 1 25 36 43 43 44 43 39 40 47 50 49 48 38 36
36 25 2 0 0 2 0 0 0 0 0 0 0 0 0 0
0 2 2 1 1 0 0 0 0 0 0 0 0 0 0 0
0 2 35 88 99 85 45 47 47 48 47 46 45 41 40 42
47 49 49 49 50 48 49 49 49 48 49 49 49 48 49 48
48 47 47 44 43 39 32 35 13 2 36 45 37 33 42 45
30 16 0 6 9 6 2 2 51 56 62 62 61 66 70 59
13 9 8 1 0 3 25 12 4 5 1 0 6 48 36 9
2 5 15 34 42 44 44 43 37 42 48 49 49 43 37 38
27 25 7 0 0 0 0 0 0 0 0 0 0 0 2 0
0 2 1 1 2 1 0 0 0 0 0 0 2 0 0 0
0 6 31 87 103 78 48 47 48 48 47 47 46 43 42 45
49 49 48 49 50 49 49 49 49 49 49 48 47 49 49 48
48 47 47 45 44 45 46 46 18 3 33 43 37 31 39 41
33 28 14 3 5 2 0 2 49 58 61 60 60 70 74 69
45 42 41 34 30 30 35 26 22 18 17 14 19 41 41 17
14 17 8 25 42 44 44 43 36 43 48 49 49 42 43 35
33 42 32 2 0 0 0 0 0 0 0 1 0 0 0 0
0 1 1 2 0 0 1 1 0 0 0 0 0 0 0 0
0 9 42 81 88 79 48 48 49 47 46 47 46 45 46 48
48 48 48 47 48 49 49 49 48 47 48 49 48 48 48 47
47 46 46 46 45 46 46 46 22 3 30 43 38 30 39 44
34 33 12 2 5 1 0 2 47 49 54 55 55 59 58 58
50 50 50 48 47 48 47 43 40 36 34 32 34 46 51 36
33 27 22 26 42 44 44 42 36 44 48 49 48 42 43 35
39 47 54 17 0 0 0 0 0 0 0 0 0 0 0 0
0 0 1 1 0 0 0 0 0 0 0 0 0 0 0 0
1 8 70 99 82 73 48 48 48 46 48 48 47 45 47 47
48 47 48 49 49 49 49 48 48 48 48 47 48 48 47 47
46 46 47 45 44 44 46 46 25 2 29 46 40 30 39 44
38 30 4 0 3 0 0 2 52 50 51 52 52 50 45 46
51 52 54 52 51 50 49 48 48 52 49 45 44 50 60 57
57 55 51 44 43 44 43 42 37 44 49 50 47 43 44 36
40 49 57 27 0 0 0 0 0 0 0 0 0 0 0 0
0 0 2 1 0 0 0 0 0 0 0 0 0 0 0 0
0 0 35 82 77 71 47 47 48 47 48 47 47 47 48 49
49 48 49 49 49 49 48 49 48 48 47 47 48 48 47 48
47 46 47 45 44 45 46 45 26 3 26 44 39 29 37 43
33 35 33 28 21 18 13 12 55 53 50 50 50 51 51 54
55 54 58 62 61 51 48 49 52 62 61 56 54 54 47 42
40 41 42 41 42 44 43 43 38 44 49 50 48 44 45 36
40 48 59 48 0 0 0 0 0 0 0 0 0 0 0 0
0 0 1 2 0 0 0 0 0 0 0 0 0 0 0 0
1 0 0 10 44 55 49 48 48 47 48 48 48 48 49 49
48 48 48 48 48 48 48 48 48 47 48 47 47 47 47 47
47 47 47 45 43 45 46 45 28 3 24 44 40 30 38 43
35 45 64 66 61 62 65 64 67 58 53 54 53 55 58 62
61 55 59 66 65 51 46 42 51 64 60 56 57 55 51 41
34 33 32 35 41 44 42 41 35 43 48 50 47 43 45 36
40 49 67 81 11 0 0 0 0 0 0 0 0 0 0 1
0 0 1 3 3 0 0 0 0 0 0 0 0 0 0 0
7 0 0 9 29 46 48 47 48 48 47 47 49 48 48 49
48 48 48 48 48 48 48 47 48 47 46 47 47 46 46 46
46 46 47 44 43 43 47 45 32 3 21 44 39 29 35 43
36 47 73 74 73 73 73 73 73 57 48 45 45 46 54 63
63 55 56 55 54 52 48 43 43 50 44 45 51 52 51 48
41 39 40 41 43 44 43 40 37 45 49 50 47 45 45 36
39 49 71 80 18 0 0 0 0 0 0 0 0 0 1 7
1 4 4 7 9 4 2 0 0 0 0 0 0 0 0 0
9 0 0 10 28 45 46 46 46 46 46 46 49 48 49 48
48 48 48 47 47 47 47 47 47 47 47 46 47 47 46 46
47 45 45 43 42 42 45 44 33 4 18 45 41 29 35 43
36 38 52 55 56 59 61 64 66 39 12 11 7 9 15 34
63 55 37 18 23 27 26 37 44 29 7 3 8 17 25 47
44 43 47 51 53 53 45 40 39 46 49 50 47 43 45 39
41 50 57 36 10 0 0 0 0 0 0 0 0 0 0 5
3 2 8 12 16 17 10 5 0 0 0 0 0 0 0 1
21 0 5 18 31 47 45 44 44 43 42 40 43 47 48 47
47 47 47 47 47 47 48 48 47 47 47 47 48 47 46 46
45 45 46 45 43 43 45 45 36 4 16 44 42 32 35 42
35 34 43 42 42 41 41 40 45 30 3 0 0 0 0 16
61 48 11 0 1 5 12 36 47 29 1 0 0 7 22 37
19 24 28 32 39 54 47 39 40 46 49 50 49 43 45 39
40 48 37 20 36 10 0 0 0 0 0 0 0 0 0 1
4 10 24 28 15 10 12 4 0 1 1 0 0 0 0 13
35 6 12 29 36 46 36 22 20 18 17 16 27 47 49 48
48 48 47 47 47 47 47 47 46 45 46 46 47 47 47 45
46 46 46 45 43 44 45 46 39 5 15 45 44 31 34 42
34 37 52 52 52 51 49 48 49 31 9 1 0 0 5 30
60 35 1 0 0 0 2 37 48 32 0 0 0 3 19 32
1 5 8 2 9 52 48 38 41 46 48 49 48 42 44 37
39 49 47 44 43 25 1 0 0 0 0 0 0 0 1 6
11 29 74 64 35 21 13 12 8 11 4 0 0 5 11 41
40 0 17 31 44 47 33 12 12 11 13 12 23 48 49 49
49 48 48 48 48 47 47 46 47 46 46 46 46 46 45 46
46 45 46 46 44 44 46 45 41 6 14 43 42 28 31 42
35 39 54 55 54 54 55 55 56 33 9 3 0 0 3 21
57 24 0 0 0 0 0 36 47 30 0 0 0 2 17 34
1 13 18 3 6 51 49 38 43 47 49 50 49 44 44 36
38 47 46 43 39 27 2 3 0 0 0 0 8 18 26 38
55 72 96 89 97 81 60 50 45 40 30 25 31 36 51 62
40 1 17 40 45 45 30 11 12 12 12 12 23 47 49 49
49 48 48 48 47 46 46 47 46 46 46 45 46 46 46 46
46 46 45 44 43 42 43 43 39 7 12 39 40 30 32 43
40 42 49 51 53 54 54 55 58 34 1 0 0 4 12 12
54 19 0 0 0 0 0 36 46 29 0 0 0 0 11 37
2 5 7 1 5 50 49 38 44 47 49 50 49 45 41 36
35 47 46 45 40 21 16 19 12 7 2 2 12 35 52 61
80 93 91 109 100 95 85 71 64 55 57 59 63 74 80 71
46 2 20 43 45 45 30 12 12 11 12 12 20 45 49 48
49 48 47 47 47 46 46 46 45 45 44 44 44 46 46 46
46 45 45 45 42 42 43 44 41 8 9 40 42 31 29 39
45 46 46 47 47 47 48 42 56 45 8 0 0 3 10 6
52 17 0 0 0 0 0 36 47 27 0 0 0 0 3 39
4 9 11 3 4 49 48 38 44 46 49 50 49 48 41 35
36 47 46 44 33 10 25 24 34 34 26 18 23 44 50 65
81 99 110 116 109 111 99 75 64 59 68 86 95 98 95 79
50 5 21 43 45 46 32 12 12 12 13 12 16 45 48 47
47 46 46 45 44 43 45 45 45 45 45 45 46 45 45 45
44 45 45 44 41 42 44 43 41 10 7 37 41 32 29 39
44 45 46 46 48 48 47 41 53 49 14 0 0 5 12 7
50 15 0 0 0 0 0 30 48 32 4 0 0 0 3 42
6 2 4 1 3 47 47 38 44 46 50 50 49 48 41 31
35 43 41 39 14 19 31 32 50 48 38 38 37 40 57 77
89 107 120 127 121 118 111 88 82 60 86 98 103 108 103 87
57 11 23 43 44 44 35 18 18 18 20 20 21 39 45 46
45 46 47 45 39 33 32 34 41 45 44 44 45 44 43 43
43 44 44 43 41 40 42 42 41 11 4 35 41 33 28 38
41 42 43 44 45 46 46 43 52 45 1 0 0 0 2 6
51 17 0 0 0 0 0 24 49 29 1 0 0 0 1 42
12 0 2 0 3 44 46 39 45 47 49 50 49 47 41 27
30 41 35 15 14 35 34 33 56 59 52 49 43 46 57 82
99 108 132 128 129 119 115 99 87 81 95 101 108 111 106 93
67 18 15 42 44 44 37 19 17 17 17 17 19 36 46 47
47 46 46 43 6 0 0 0 21 45 44 43 44 43 44 44
44 43 43 43 41 39 41 42 41 14 3 33 41 32 28 38
11 12 14 16 21 36 45 44 49 40 0 0 0 0 1 2
48 20 0 0 0 0 0 22 51 30 2 0 0 1 2 41
17 0 0 0 5 42 44 38 44 46 49 50 47 43 37 19
14 16 15 22 35 40 36 33 60 66 64 60 45 44 63 93
103 125 132 134 127 125 120 110 94 94 97 106 110 113 107 96
73 26 16 39 44 44 36 13 13 13 12 12 14 37 46 46
45 45 44 41 5 0 0 0 18 45 44 44 43 44 44 43
43 43 43 42 40 39 42 42 41 16 2 31 42 33 27 38
0 0 0 0 4 39 45 43 44 39 4 2 1 3 16 6
44 33 11 11 15 12 12 28 54 38 35 34 33 37 40 55
26 6 5 5 9 41 42 37 43 45 48 47 42 45 41 23
19 25 28 34 40 40 32 35 63 67 67 65 53 55 67 91
114 125 137 139 138 134 126 116 100 97 101 110 113 113 109 97
77 35 16 39 43 44 36 13 11 12 12 11 13 37 46 46
45 45 45 40 3 0 0 0 8 44 45 44 44 44 43 43
43 44 43 43 41 40 42 42 42 18 2 30 42 34 27 37
0 0 0 0 3 40 46 43 41 54 47 41 37 41 46 42
46 54 61 56 57 59 60 62 60 40 51 55 58 62 69 69
50 40 38 38 38 43 40 36 42 44 46 43 44 45 41 31
24 34 41 43 37 37 30 39 67 77 75 76 68 62 75 91
110 126 140 144 142 137 127 118 109 103 108 113 116 111 110 98
80 40 15 36 42 43 37 13 11 11 11 11 13 36 46 45
44 44 44 39 3 1 0 0 5 43 45 44 44 44 44 43
43 43 42 42 40 39 41 41 42 20 1 27 42 35 27 35
0 0 0 0 1 38 47 43 39 58 60 52 53 55 51 43
40 49 68 65 63 63 67 67 64 41 44 52 56 62 68 68
54 41 41 40 41 41 40 37 38 42 42 44 46 45 43 35
31 42 45 44 43 33 36 42 67 79 83 80 74 72 82 102
116 132 144 148 145 137 130 122 115 107 111 116 119 116 111 99
83 39 10 28 40 44 37 13 10 11 10 10 12 36 45 45
31 17 23 18 1 0 2 0 3 43 44 43 44 44 43 43
44 43 43 44 41 39 42 42 41 23 0 23 41 35 26 35
0 0 0 0 0 36 47 42 39 58 54 47 50 53 53 43
36 38 47 49 50 48 49 48 50 40 35 42 46 46 42 41
43 41 41 41 41 40 41 40 39 39 42 47 46 45 43 32
31 42 48 44 41 37 38 45 70 81 92 87 80 81 89 101
114 127 145 149 142 135 131 123 116 110 114 120 122 119 112 100
85 39 15 28 37 44 38 13 10 10 10 11 13 37 46 42
4 0 0 0 0 0 3 0 3 43 44 44 44 44 44 44
44 43 43 43 41 39 41 42 42 25 1 21 42 36 26 34
0 0 0 0 0 31 47 41 38 55 37 41 41 44 52 44
38 36 31 33 34 35 35 35 39 40 42 45 47 45 40 37
40 43 43 43 42 42 41 40 41 43 46 49 47 44 41 30
35 40 45 43 48 44 43 46 73 83 96 94 83 88 95 103
112 124 142 150 140 136 135 124 117 114 118 122 123 121 113 100
83 30 22 19 32 45 39 14 11 11 11 12 13 36 46 43
6 0 0 0 0 0 0 0 2 42 45 45 43 44 43 44
43 43 43 43 42 40 41 42 42 28 0 18 42 38 27 34
0 0 0 0 0 27 46 41 41 56 20 13 16 19 24 23
26 38 37 42 41 50 51 46 47 50 51 56 58 56 45 41
41 42 43 42 42 42 41 41 41 44 46 48 47 40 37 35
37 33 28 31 63 48 17 34 75 84 103 100 87 90 97 105
114 120 129 142 136 140 139 126 116 120 124 126 125 123 115 100
75 13 21 20 18 36 40 15 9 10 11 10 11 34 47 45
22 0 0 0 0 0 0 0 2 41 45 45 45 44 44 43
43 43 44 43 41 40 42 42 42 29 0 16 40 36 26 32
0 0 0 0 0 23 46 40 45 60 14 0 0 0 1 6
21 40 46 59 53 65 69 36 27 29 31 35 46 59 48 43
42 42 43 43 42 42 42 41 41 42 45 49 45 36 33 35
38 30 25 28 57 21 0 32 73 87 106 104 91 87 96 103
117 124 133 141 141 141 141 128 118 124 131 132 129 123 114 98
40 27 24 22 16 20 35 21 18 18 14 18 19 35 46 46
37 9 0 0 0 0 0 0 2 14 43 45 44 44 44 44
43 44 44 43 42 40 42 45 45 33 0 13 41 36 28 32
0 0 0 0 0 18 45 39 46 65 18 0 0 0 0 0
24 40 42 57 39 43 54 14 0 0 0 1 22 58 50 43
43 42 42 42 41 41 41 41 41 42 45 49 40 28 7 17
39 30 26 23 44 45 3 27 59 79 107 107 102 94 94 102
117 128 135 145 147 147 144 131 120 129 137 135 131 124 116 74
27 37 28 27 25 21 27 41 41 41 35 41 43 44 45 32
52 11 0 0 0 0 0 0 0 1 42 46 46 45 44 44
45 44 44 44 43 41 41 43 43 33 0 10 36 32 25 31
0 0 0 0 0 15 44 39 43 61 24 0 0 0 0 0
22 40 40 55 17 4 34 15 0 0 0 0 15 56 49 43
43 42 42 42 42 41 40 40 41 42 45 45 38 28 8 16
38 29 29 21 42 42 10 22 69 93 106 109 109 105 95 103
119 131 141 148 149 148 146 133 123 133 140 138 132 125 109 43
28 35 25 27 27 20 24 46 46 47 46 46 46 44 30 3
2 13 11 0 0 0 0 0 0 1 41 45 45 45 45 44
43 44 44 44 44 41 40 43 44 35 1 7 33 30 25 30
0 0 0 0 0 12 42 38 37 29 5 0 0 0 0 0
24 38 40 54 16 2 31 18 0 0 0 0 10 53 50 42
43 42 43 42 41 41 41 41 42 42 43 43 38 34 28 31
37 29 31 32 24 20 19 14 67 94 103 109 114 112 97 106
123 131 141 147 149 148 144 134 125 133 141 139 133 124 86 31
33 25 22 23 23 17 21 43 41 39 37 35 35 22 1 0
0 8 7 0 0 0 0 0 0 0 39 45 45 45 45 44
44 45 45 45 44 42 41 42 43 35 1 5 30 28 25 29
0 0 0 0 0 10 42 38 35 21 0 0 0 0 0 0
27 37 40 55 17 2 28 22 0 0 0 0 5 51 50 43
43 43 42 42 42 41 41 40 40 41 43 42 37 29 27 31
36 29 30 27 23 24 32 14 62 91 102 109 116 117 100 104
121 129 137 147 148 148 145 134 129 139 143 140 133 108 54 35
37 27 23 22 20 17 17 30 22 4 2 1 1 0 19 20
8 10 1 0 0 0 0 0 0 0 31 43 46 46 45 44
45 45 46 46 45 43 41 43 42 34 2 4 29 28 26 30
0 0 0 0 0 7 42 38 35 24 0 0 0 0 1 0
23 38 39 55 16 2 25 23 0 0 0 0 4 48 51 42
42 42 42 41 41 41 40 39 40 41 43 44 40 29 22 25
28 24 24 27 27 25 33 25 46 86 100 109 119 122 108 102
119 130 137 145 146 147 143 134 134 143 146 141 122 64 64 65
15 9 22 22 18 18 16 37 26 17 11 23 17 0 29 36
34 31 9 0 0 0 0 0 0 0 0 13 18 19 41 47
47 47 47 48 47 44 42 42 40 34 3 2 28 29 28 30
0 0 0 0 0 7 41 38 35 25 0 0 0 0 4 0
19 39 40 55 22 4 23 28 4 0 2 2 3 46 49 41
42 41 41 41 41 41 41 40 39 40 42 44 41 34 32 31
30 29 24 27 26 25 32 27 31 77 95 109 121 125 115 102
118 129 139 143 146 146 139 136 141 146 146 132 77 65 29 14
4 0 3 21 21 16 16 23 45 16 15 21 22 13 16 19
23 16 11 9 9 10 11 10 11 11 9 9 9 9 41 49
48 50 50 52 51 49 47 46 43 38 5 2 33 37 36 39
0 0 0 0 0 5 39 38 35 26 0 7 0 0 14 7
15 43 40 56 34 11 20 28 8 8 8 1 3 43 49 42
42 42 42 41 41 41 40 39 40 40 41 44 42 35 36 36
36 31 26 28 28 27 28 27 25 52 93 109 122 129 124 108
116 125 137 141 144 144 138 138 143 138 129 92 40 16 13 10
0 0 0 1 61 17 15 26 40 14 13 19 28 27 23 25
27 29 28 26 24 21 20 19 17 15 13 12 13 16 55 67
67 67 68 68 68 65 61 58 55 49 9 1 32 19 14 14
0 0 0 0 0 4 38 38 34 31 4 10 2 2 18 21
18 47 42 56 33 24 19 26 4 15 11 1 1 38 47 41
41 42 41 41 40 40 40 40 40 40 38 43 42 36 39 38
38 29 29 30 32 27 31 27 23 28 82 107 122 131 128 114
117 126 133 139 141 143 139 141 123 103 91 62 29 12 21 13
0 0 0 0 31 36 13 32 27 14 10 16 23 27 27 29
23 23 24 28 22 11 7 10 43 48 52 56 61 65 70 71
71 71 70 71 70 68 62 58 55 51 11 0 34 3 0 0
0 0 0 0 0 3 37 37 34 38 37 42 43 43 47 49
49 57 43 56 24 32 21 33 20 24 22 20 20 36 40 40
41 41 41 40 41 40 40 39 39 38 37 41 41 37 40 40
39 31 33 26 7 0 28 32 23 23 49 104 120 133 137 125
120 129 136 139 141 141 140 129 98 86 72 31 18 9 28 23
0 0 0 0 7 54 12 39 23 13 13 14 20 22 25 27
26 29 25 27 25 23 45 26 62 67 67 66 66 66 67 67
68 68 68 65 67 63 57 54 53 51 14 0 27 0 0 0
0 0 0 0 0 2 37 37 33 39 61 63 64 64 65 64
66 65 48 54 14 19 22 39 34 34 33 33 32 32 35 40
40 40 40 40 40 39 40 39 40 39 37 40 39 36 41 41
38 32 7 7 4 0 2 29 38 40 32 85 115 131 140 133
121 129 138 137 141 142 136 108 94 85 48 20 11 23 54 14
0 0 0 0 1 47 12 27 13 11 14 15 20 21 24 25
25 25 20 23 24 27 27 49 39 30 44 55 50 55 58 58
62 56 55 43 50 49 40 45 52 51 17 0 18 0 0 0
0 0 0 0 0 2 36 38 33 33 58 63 62 62 62 60
60 59 49 53 13 6 16 38 35 37 37 37 37 37 38 40
40 40 41 40 40 40 39 40 39 38 37 40 38 37 40 37
33 10 6 4 0 0 6 29 16 31 36 42 80 125 139 139
128 127 135 136 135 140 122 100 97 76 58 56 27 10 41 19
0 0 2 3 0 38 15 77 33 14 13 16 21 22 19 24
25 25 21 21 19 22 23 24 44 39 42 26 34 41 43 42
55 41 40 36 34 38 35 45 50 51 19 0 11 0 0 0
0 0 0 0 0 1 35 36 32 28 30 30 29 28 27 27
27 24 30 51 15 3 12 40 38 40 40 39 40 39 39 39
39 39 39 39 39 39 39 39 38 38 38 40 36 34 23 29
28 8 3 0 0 0 0 16 9 17 59 61 47 85 132 142
136 129 127 128 137 135 111 101 99 92 27 67 64 23 55 56
9 15 3 0 4 21 17 79 27 26 32 20 24 23 19 22
23 22 21 18 16 16 17 19 49 35 45 22 22 21 36 39
51 49 47 46 47 47 42 43 49 50 21 0 5 0 0 0
0 0 0 0 0 1 33 36 31 29 24 22 22 21 21 21
22 20 27 51 18 1 9 39 36 40 40 40 40 40 39 39
39 39 39 39 39 39 39 38 38 36 35 36 26 14 17 23
25 7 2 0 0 0 0 5 4 6 9 33 98 56 102 143
143 138 132 132 138 125 107 105 79 51 95 43 25 56 40 20
17 14 7 5 7 25 16 77 20 34 46 31 39 35 25 49
77 28 24 21 15 33 42 33 99 69 91 24 19 18 17 26
39 49 49 48 47 46 44 43 46 48 23 0 0 0 0 0
0 0 0 0 0 1 34 36 31 32 30 28 27 26 25 24
24 21 29 52 31 30 37 44 35 39 39 39 38 39 39 39
38 38 38 38 38 38 38 37 37 36 33 21 15 17 17 20
20 5 0 0 0 0 0 3 4 16 10 25 59 106 86 121
145 140 134 133 134 108 104 99 29 16 36 26 33 31 46 25
21 12 1 0 2 24 18 22 7 18 20 42 53 46 71 55
55 65 62 66 44 38 41 46 112 66 114 37 17 20 19 21
28 30 45 48 47 47 43 43 45 44 23 0 0 0 0 0
0 0 0 0 1 4 38 38 32 33 32 31 31 30 30 29
28 23 31 53 45 56 58 47 35 39 39 38 38 38 39 38
38 38 38 37 38 38 39 42 34 34 26 14 12 14 16 23
18 6 0 0 1 11 0 4 5 34 19 23 19 19 43 99
117 141 140 136 119 105 106 64 16 26 8 8 12 13 18 24
21 17 9 0 7 30 41 22 9 18 21 22 46 71 68 56
69 64 47 52 36 46 63 63 140 106 123 46 34 36 30 33
35 21 25 33 35 36 33 31 34 32 22 0 0 0 0 0
15 16 18 20 22 26 33 32 31 33 32 30 30 30 30 30
29 23 25 36 31 36 39 36 36 38 39 38 38 38 38 38
38 37 37 37 37 35 29 24 42 27 30 18 19 17 19 23
17 9 2 0 9 41 7 7 47 31 36 17 11 17 13 59
105 122 141 125 103 106 89 18 26 16 11 11 14 17 26 26
21 18 16 14 18 29 51 22 13 21 21 22 21 24 36 28
20 23 47 65 52 32 14 28 92 38 38 19 39 41 41 46
48 54 26 24 33 31 26 28 30 34 29 0 0 0 0 0
24 25 26 27 28 28 30 31 31 33 33 32 31 31 30 30
30 26 28 31 33 30 35 36 37 39 38 38 39 39 38 38
38 38 38 37 31 31 22 17 20 16 16 14 19 20 25 24
35 18 34 44 44 45 31 36 34 41 24 10 15 3 3 10
66 109 118 109 102 91 34 22 20 6 13 16 20 27 28 26
23 21 20 23 53 28 55 35 17 21 22 23 20 20 21 19
21 23 24 23 20 16 15 29 83 31 25 18 19 38 40 38
61 57 58 44 28 34 35 40 42 46 35 0 0 0 0 0
25 25 26 27 29 29 30 32 33 33 35 34 33 32 32 31
29 27 29 32 35 32 35 36 37 39 39 38 39 38 38 38
38 38 34 29 23 51 24 17 18 16 14 19 20 20 58 27
33 39 58 88 32 11 22 44 35 21 13 8 14 18 4 2
13 77 68 76 97 33 21 35 12 10 21 26 30 32 30 27
25 24 23 25 80 42 64 24 22 24 24 24 22 23 24 22
23 27 24 21 17 15 17 42 87 35 23 19 18 20 21 18
21 44 63 49 48 21 34 45 46 51 40 0 0 0 0 0
24 24 24 25 26 26 26 28 30 33 34 34 34 34 33 32
31 29 31 33 36 35 35 37 37 38 39 38 37 38 37 37
33 29 23 23 41 55 20 20 16 13 12 17 18 30 70 53
36 60 57 58 13 11 20 19 18 20 18 15 10 19 20 9
10 27 67 31 46 20 48 15 12 24 23 31 37 31 30 30
28 25 25 30 103 58 82 27 26 24 23 26 25 26 28 23
25 29 27 24 20 19 21 47 85 40 22 22 19 20 23 17
21 26 25 48 45 20 16 41 44 51 45 1 0 0 0 0
5 4 4 15 22 26 26 32 33 34 34 35 34 34 34 34
32 30 31 33 36 36 36 36 37 39 39 39 38 38 36 27
22 20 23 29 48 45 21 24 19 12 14 16 17 34 42 21
15 37 37 44 14 9 21 23 22 23 25 27 21 14 23 24
14 11 34 37 20 34 25 12 22 20 30 34 33 32 35 31
27 27 28 36 101 47 79 23 25 25 26 27 27 26 28 27
27 29 25 26 22 19 22 55 83 40 22 22 24 24 22 16
23 23 23 23 22 17 16 30 47 53 48 2 0 0 0 0
8 0 1 13 24 29 29 32 33 34 34 34 34 32 33 33
32 31 31 34 37 37 37 36 37 38 38 38 37 36 26 17
20 23 22 35 67 53 18 34 59 45 38 55 51 23 23 18
17 58 43 50 18 13 23 27 26 26 28 29 28 21 15 24
14 9 18 20 28 41 15 20 26 29 38 33 33 33 34 31
26 28 28 38 105 50 71 24 26 26 27 26 26 24 29 27
27 31 29 25 23 21 23 52 79 46 24 24 27 23 22 18
25 23 26 24 15 14 15 17 45 53 49 2 0 0 0 0
35 7 5 13 21 28 30 31 32 33 34 34 34 33 33 33
32 31 32 33 36 36 36 35 36 37 37 37 37 29 14 19
23 22 28 74 100 72 42 45 55 39 42 44 36 26 25 18
19 80 44 48 19 17 23 31 32 32 31 32 30 29 24 17
12 9 24 20 43 32 21 24 22 32 35 33 34 33 33 29
27 27 26 44 98 49 62 23 24 25 28 27 28 23 27 27
27 29 28 27 22 21 25 67 83 44 21 21 24 25 22 22
24 28 29 24 13 12 16 10 34 52 48 3 0 0 0 0
50 25 16 18 20 25 28 29 32 33 34 34 34 34 34 34
34 34 35 35 35 37 36 35 35 36 36 36 31 19 15 35
45 54 46 108 114 65 39 46 56 76 58 63 31 28 24 19
25 86 48 57 21 20 24 30 35 33 34 34 31 32 29 16
9 18 12 28 45 43 26 23 20 30 30 32 32 32 31 28
26 24 25 51 80 54 52 21 24 25 26 26 26 23 24 27
29 27 31 28 25 21 25 70 70 43 22 24 23 27 20 24
27 26 35 18 9 11 15 8 16 53 49 3 0 0 0 0
55 37 22 22 21 24 28 31 33 39 37 36 38 38 38 38
38 37 37 37 35 35 36 35 35 35 36 31 22 23 29 54
56 39 47 102 55 23 28 22 22 25 14 16 26 30 26 22
24 94 50 57 23 21 24 30 32 34 33 33 33 33 29 15
9 21 10 15 48 40 22 24 17 29 34 32 32 30 28 25
25 24 24 51 73 58 46 21 19 23 24 24 26 25 25 27
30 24 30 25 25 21 25 70 73 47 22 24 22 31 24 28
30 29 32 17 9 12 13 7 9 40 50 4 0 0 0 0
36 28 24 24 23 23 21 20 21 39 38 37 39 39 39 39
38 37 38 36 35 35 36 36 36 35 34 26 26 58 48 30
24 23 27 63 37 21 23 23 24 22 11 21 29 29 26 21
24 95 54 59 22 21 22 29 32 33 33 34 33 34 24 14
14 16 5 5 32 29 17 21 23 30 29 29 28 27 27 24
25 21 22 59 65 55 32 20 19 21 22 25 25 25 22 25
30 22 26 24 21 22 23 71 70 40 14 21 23 28 23 29
29 32 32 16 6 11 11 7 16 22 47 4 0 0 0 0
30 21 13 15 15 16 16 17 17 38 41 35 36 37 38 37
38 37 37 36 35 35 35 36 35 35 31 31 65 50 46 22
17 21 30 57 33 22 24 26 23 15 12 25 31 30 26 23
23 96 55 63 22 21 21 27 31 29 31 31 29 30 20 15
17 13 28 2 9 22 18 16 20 26 27 28 28 26 25 23
23 20 23 68 47 53 30 20 19 20 21 23 22 23 20 22
26 24 25 25 21 22 24 72 58 33 16 22 24 28 27 32
29 35 38 45 5 12 12 33 44 25 31 5 0 0 0 0
31 21 13 14 15 15 15 16 17 37 41 33 31 32 32 32
33 34 34 34 34 34 35 36 36 34 33 30 65 52 17 18
20 22 34 57 30 26 28 27 24 14 18 28 30 27 26 24
24 88 55 70 23 23 21 25 29 28 33 33 31 29 18 14
21 14 59 24 40 19 19 13 23 27 26 28 28 27 24 21
19 19 22 71 41 69 28 20 19 21 22 24 21 23 21 20
25 24 24 24 23 22 23 67 50 37 17 23 27 25 25 31
29 32 31 27 6 19 29 32 16 20 16 4 0 0 0 0
31 22 12 13 14 14 13 13 13 31 40 32 29 29 30 30
30 29 30 30 29 31 34 36 35 32 19 19 27 23 16 18
24 25 41 59 25 26 26 24 21 12 23 27 29 27 26 21
25 91 54 70 18 21 22 26 29 30 29 29 25 25 16 14
20 18 64 35 50 21 18 15 25 26 26 27 24 25 24 22
21 20 21 73 42 80 27 24 26 31 46 50 47 50 31 19
19 23 23 22 22 22 24 67 43 30 17 18 23 23 25 27
32 39 78 18 13 48 14 26 50 31 16 4 0 0 0 0
31 24 13 17 19 22 25 23 16 27 41 33 29 28 29 29
28 28 28 27 27 29 33 35 34 26 11 19 19 24 16 20
24 25 46 54 26 26 26 26 18 19 27 28 30 27 25 21
26 89 47 68 17 21 23 25 27 25 27 28 28 23 13 26
64 51 131 89 82 30 54 33 40 46 59 65 54 61 47 39
50 52 59 142 91 147 81 58 69 66 66 60 65 80 88 42
15 22 22 19 21 22 25 73 33 30 14 14 19 23 26 25
32 21 46 42 26 18 39 36 16 9 7 7 0 0 0 0
