P2
128 120
157
50 49 48 48 47 45 44 43 43 42 41 40 39 39 38 37
36 35 34 33 33 32 31 31 30 30 29 28 28 27 26 26
25 25 23 9 0 0 0 0 0 0 0 0 0 0 0 8
13 9 3 0 0 0 0 0 0 0 0 0 0 1 5 0
0 0 0 0 0 0 0 0 0 0 0 0 0 0 0 1
1 4 10 16 21 23 23 24 24 25 26 26 26 27 27 28
29 29 30 31 32 32 34 34 34 35 37 37 38 39 39 39
39 40 41 42 43 44 43 45 45 44 46 46 47 47 47 48
49 48 48 47 46 46 45 44 43 42 41 40 40 38 38 37
36 35 35 34 33 33 32 32 31 30 30 28 28 27 26 26
25 25 24 20 7 1 0 0 0 0 0 2 8 8 2 16
21 18 15 10 5 0 0 0 0 0 0 0 0 0 5 0
0 0 0 0 0 0 0 0 0 0 0 0 0 4 8 13
19 23 23 24 23 24 25 26 27 27 28 29 29 29 30 30
32 32 32 33 34 35 36 37 38 38 39 39 39 40 41 42
43 44 44 44 45 46 46 47 47 47 47 48 48 48 49 48
50 48 48 46 46 45 44 44 43 42 41 41 40 39 38 38
37 36 35 34 34 33 33 32 31 31 30 29 29 28 27 27
26 25 24 24 18 12 6 1 0 3 9 14 17 15 5 18
23 20 18 17 17 12 7 1 0 0 0 0 0 0 0 0
0 0 0 0 0 0 0 0 0 1 3 8 15 21 23 24
24 25 25 26 27 28 28 28 29 29 30 30 31 32 33 33
34 35 35 36 38 38 39 39 39 39 41 42 42 43 43 44
45 45 46 46 47 47 47 49 48 48 48 48 49 48 50 49
50 48 48 48 46 45 45 44 43 43 42 41 40 39 38 38
37 36 35 34 34 33 33 32 31 31 31 29 29 28 27 27
26 26 25 24 21 16 13 13 10 14 18 20 22 17 6 18
23 20 20 19 18 17 15 12 5 0 0 0 0 0 0 0
0 0 0 0 0 1 3 8 13 17 21 22 24 24 25 25
26 27 27 27 28 29 29 30 31 31 32 33 34 35 35 36
36 36 37 38 39 38 39 40 42 41 43 43 45 45 45 45
46 46 47 47 47 47 48 48 48 48 49 49 49 49 49 49
50 49 48 48 47 46 45 44 43 42 43 41 40 40 39 39
38 37 36 35 34 34 34 32 31 31 30 30 29 28 28 27
27 26 26 25 23 19 16 15 16 20 22 23 22 19 9 18
26 25 22 21 20 18 17 15 12 10 7 0 0 0 1 3
0 0 1 4 10 16 20 23 23 23 24 25 26 26 27 28
28 29 29 30 30 31 32 32 33 34 34 34 35 37 37 37
37 38 39 40 41 42 43 43 45 44 44 45 45 46 46 46
47 47 48 47 49 48 48 48 48 48 49 49 48 49 49 49
50 49 48 48 46 46 45 44 44 43 42 42 41 40 40 39
38 37 36 35 35 34 34 33 32 32 32 30 29 29 28 27
26 26 25 25 23 21 18 16 17 21 22 23 24 22 14 21
29 27 25 24 23 20 18 17 14 13 10 10 11 16 17 18
6 8 16 20 22 23 23 24 25 26 27 27 27 28 28 29
30 31 30 31 32 33 34 33 35 35 35 36 36 36 37 39
40 40 41 41 42 43 43 43 45 45 45 45 46 46 47 47
47 48 48 48 48 49 48 47 47 48 48 48 49 49 49 49
49 48 48 47 46 46 45 44 44 43 42 41 40 40 39 39
39 37 36 36 35 35 34 33 33 32 31 30 29 29 28 28
28 27 26 26 24 22 20 18 18 21 23 25 27 24 18 23
32 29 26 25 24 24 22 19 16 15 14 13 18 21 19 19
17 21 23 23 25 26 26 27 27 27 28 28 29 30 30 31
31 32 33 33 34 34 35 35 35 36 36 37 38 39 39 40
41 42 43 43 44 44 46 45 46 46 45 46 47 46 46 46
47 47 47 47 48 48 49 48 48 48 49 49 49 49 49 49
50 49 48 47 47 46 45 45 44 43 43 42 41 40 39 39
38 37 37 36 35 35 34 34 33 32 32 31 31 30 30 29
28 27 27 26 25 23 21 20 20 24 27 28 30 26 18 23
33 29 26 26 24 23 23 22 18 18 16 13 18 20 21 19
23 24 25 26 27 27 28 28 28 29 30 30 31 31 32 32
32 34 33 34 34 34 34 35 36 37 38 39 39 40 41 42
43 43 44 44 44 45 45 45 46 47 46 46 47 47 47 48
48 47 48 48 48 48 47 48 47 47 48 49 48 49 49 49
50 49 48 48 47 46 45 44 44 44 42 41 41 40 40 39
38 38 37 37 36 35 35 34 33 32 32 31 31 30 29 29
28 28 28 27 26 25 23 22 22 26 29 30 31 27 18 21
34 30 28 27 25 24 24 22 20 22 20 15 15 22 19 21
23 26 26 27 28 29 30 30 30 31 32 31 32 32 32 33
34 33 34 34 34 35 36 37 38 39 39 39 40 41 42 42
43 43 43 44 45 45 45 46 45 47 46 46 46 47 47 47
47 47 47 47 47 47 48 48 48 48 49 49 48 46 46 46
49 48 48 47 46 45 45 44 44 44 43 43 42 41 40 39
38 38 37 37 36 35 35 34 33 33 33 33 32 31 30 30
29 29 28 27 27 25 24 23 23 27 31 31 32 28 20 21
35 31 28 28 27 25 24 22 21 23 22 17 14 23 20 23
26 27 29 29 29 30 31 30 30 31 31 32 32 32 33 34
34 34 35 36 37 37 37 38 39 40 39 41 42 42 42 42
43 43 44 45 45 45 45 45 45 47 45 46 46 46 47 47
47 47 48 48 49 48 48 48 46 46 46 46 48 48 48 48
49 48 48 47 47 46 45 44 44 43 43 42 42 40 40 39
39 38 37 37 36 36 35 35 34 33 33 32 32 31 30 29
29 29 29 28 27 27 26 25 25 29 32 33 33 28 20 19
35 31 29 29 28 27 26 24 23 24 23 19 15 23 22 25
27 28 29 30 31 32 32 32 33 33 33 32 33 33 34 35
35 35 36 37 37 37 38 39 40 42 41 42 42 42 43 43
44 44 44 45 45 45 45 47 47 48 46 46 47 47 48 47
47 47 47 47 47 47 46 48 49 48 49 48 48 49 48 48
50 49 49 48 47 46 45 45 44 44 43 43 42 41 40 39
39 38 37 37 36 35 35 35 34 33 33 33 32 31 31 31
30 29 29 29 28 28 27 27 27 31 33 34 34 31 22 19
35 33 30 29 29 27 27 24 24 24 24 22 17 23 25 27
30 30 30 31 31 32 32 32 32 33 34 33 34 34 35 35
36 37 38 37 38 38 39 39 40 41 41 42 43 43 43 43
44 44 44 45 45 46 46 46 46 48 46 48 47 48 48 46
46 46 47 48 49 48 48 48 48 48 48 48 48 49 48 49
49 48 48 47 47 47 46 45 44 44 44 43 42 41 40 40
40 39 38 38 37 36 36 36 35 34 33 33 32 32 31 30
30 30 30 29 28 28 28 28 29 32 35 34 35 31 23 19
35 33 31 30 30 29 28 26 26 25 24 23 18 23 25 28
30 30 31 31 32 32 33 34 34 34 35 35 34 36 36 36
36 37 38 37 38 39 40 40 41 43 41 42 42 43 43 43
44 44 44 45 46 46 46 46 47 48 46 46 45 46 47 47
48 47 48 48 48 48 48 48 48 48 48 48 48 49 48 48
49 49 48 48 47 46 45 45 44 44 44 42 43 42 41 40
40 39 39 38 37 37 37 35 35 34 35 34 33 33 32 32
31 31 29 29 29 29 28 28 29 33 35 35 37 32 24 20
35 35 32 31 30 29 28 28 26 25 24 24 20 24 26 27
29 31 31 32 32 33 33 34 34 34 35 35 36 36 37 37
37 38 39 39 39 40 41 40 41 43 42 42 43 43 45 44
44 44 46 45 47 46 45 44 44 44 46 47 48 48 48 48
47 48 48 48 48 47 49 48 49 48 47 48 48 49 48 48
49 49 49 48 48 47 46 45 44 44 43 43 42 41 41 41
40 39 39 38 37 37 37 36 36 35 34 34 34 33 33 31
31 30 30 30 29 29 29 29 30 33 36 36 36 33 25 20
34 34 31 30 31 29 28 26 23 22 19 22 19 18 21 28
29 29 32 33 33 34 34 35 35 35 36 36 36 36 37 37
37 38 38 39 39 40 41 40 41 43 43 44 44 44 45 45
44 42 45 44 44 45 46 47 47 46 47 47 47 48 47 47
47 48 47 48 48 48 48 48 48 48 48 48 48 49 48 48
50 49 49 48 47 46 46 45 45 44 44 43 42 42 42 41
41 40 39 39 37 37 37 36 36 36 35 34 34 33 33 32
32 31 31 30 30 30 30 30 31 34 37 37 37 34 26 22
33 34 32 30 31 30 21 16 19 19 13 14 13 14 16 24
27 26 28 33 34 35 35 35 36 35 36 35 37 37 37 38
39 39 39 39 40 40 41 42 42 43 43 43 43 43 43 43
45 45 45 46 47 47 47 47 47 47 47 48 47 47 48 47
47 48 48 48 49 49 49 48 48 48 48 49 48 49 49 48
49 48 48 48 47 47 46 46 46 45 44 43 43 43 41 41
40 40 39 39 39 38 38 37 36 36 35 35 34 34 33 32
32 31 31 31 31 30 30 30 32 35 38 38 37 35 27 20
30 34 30 31 30 29 20 12 6 8 9 6 6 9 14 11
11 14 20 27 34 35 36 36 36 36 37 37 37 38 38 38
39 39 39 39 41 41 42 42 42 43 42 42 42 42 44 46
45 47 46 46 46 46 47 47 47 47 47 48 48 48 48 48
48 48 48 48 48 49 49 49 49 49 49 48 48 48 48 48
50 49 49 48 47 46 46 45 45 45 44 44 43 43 43 42
42 41 41 40 39 38 38 37 37 36 35 35 35 34 34 33
34 33 32 31 31 31 31 31 32 36 38 38 39 34 29 16
25 36 34 33 28 25 17 9 6 4 7 7 5 10 11 9
5 9 16 23 32 35 36 36 36 37 38 37 38 38 39 39
40 40 40 41 41 41 41 40 41 42 43 44 45 45 46 46
46 48 47 48 47 47 48 47 47 48 48 48 48 48 48 48
48 48 49 49 49 49 50 49 49 49 49 48 48 48 48 48
49 49 49 48 48 47 47 47 46 45 45 44 44 43 43 42
41 41 40 40 39 38 38 38 37 37 36 36 35 35 35 34
33 32 33 32 32 32 32 32 33 37 39 40 39 35 27 21
29 33 28 29 24 18 10 8 5 3 6 9 7 8 6 8
6 6 13 23 31 34 35 37 38 38 38 39 39 39 39 40
40 40 40 39 40 41 42 44 45 44 45 45 47 46 47 47
47 49 48 48 48 48 48 47 49 48 48 48 49 49 49 48
48 48 48 48 49 49 49 49 49 48 49 49 49 49 49 49
50 49 49 48 48 47 47 47 47 46 45 45 45 44 44 43
43 42 41 40 40 39 39 38 38 37 37 36 37 36 35 35
35 34 34 33 32 32 32 32 33 37 39 40 39 36 28 27
26 23 12 16 16 14 10 5 5 6 8 9 8 7 6 7
3 3 16 21 22 28 32 37 38 39 39 39 39 39 40 40
41 41 42 42 42 43 43 44 44 44 45 45 46 46 47 47
47 49 48 48 48 49 49 48 49 49 49 49 48 48 49 49
49 48 49 49 49 50 50 49 50 49 49 50 49 49 47 47
49 49 48 48 48 48 47 47 46 46 46 46 44 44 43 43
42 42 41 40 39 39 38 38 37 38 37 36 36 36 35 35
34 34 33 33 32 32 32 33 33 38 40 40 39 36 28 23
9 7 4 6 5 9 10 5 5 8 6 5 12 9 6 8
6 9 15 8 9 11 26 35 36 38 38 38 39 39 40 41
41 41 43 42 42 43 43 44 44 45 46 45 46 47 47 47
47 49 48 47 48 48 48 48 48 48 49 48 49 49 49 49
50 50 50 50 50 50 49 50 50 48 48 48 48 49 50 50
50 50 49 49 49 48 47 46 46 46 46 45 45 44 44 43
43 42 42 41 40 40 40 39 38 38 37 37 37 36 36 35
35 34 34 34 33 32 33 32 34 37 40 40 40 36 26 21
8 5 3 3 4 7 5 5 3 4 3 0 6 5 3 7
4 10 11 2 8 7 13 18 30 35 38 38 40 39 41 41
42 42 43 43 43 43 44 44 45 45 46 46 46 47 47 48
48 49 48 48 48 48 49 48 48 48 48 47 49 48 49 49
49 49 48 50 49 49 49 49 49 50 50 50 50 49 49 49
50 49 49 48 48 47 47 46 47 46 46 45 44 44 43 43
42 42 41 40 40 40 39 39 39 38 38 37 38 37 36 36
35 34 34 34 33 32 33 33 34 38 41 41 40 37 24 20
6 4 1 3 2 3 2 5 2 3 2 1 1 4 1 4
2 5 9 6 10 8 10 10 22 28 35 39 40 40 41 41
42 42 43 42 43 44 44 44 45 45 45 46 47 47 47 48
48 49 48 48 48 48 49 49 49 48 48 49 49 49 50 49
48 48 48 48 49 49 49 48 48 48 49 48 48 48 49 48
49 49 49 49 48 48 47 47 46 45 45 45 44 44 43 43
43 42 42 41 41 40 39 39 39 38 38 37 37 37 36 35
35 34 34 34 34 33 33 33 34 38 41 41 41 37 26 16
2 3 4 3 1 3 1 0 0 2 0 3 0 0 0 2
0 4 7 8 4 8 12 16 22 27 32 38 40 41 41 41
41 43 43 42 43 44 44 44 45 45 46 46 46 47 47 47
47 48 49 47 48 49 49 49 49 48 48 48 47 48 48 48
49 49 49 48 48 48 49 49 49 49 48 49 48 49 48 48
50 49 48 48 48 47 47 46 46 46 45 45 45 44 43 44
43 42 42 41 40 40 39 39 39 38 38 38 37 37 36 35
35 34 34 34 33 33 33 33 34 38 41 41 41 38 23 11
3 2 5 1 1 3 1 1 0 0 1 0 0 3 4 4
5 4 2 5 3 5 10 11 11 18 27 27 35 39 42 42
42 42 43 43 43 44 44 44 45 45 46 46 46 46 47 48
48 48 49 49 48 48 48 47 47 47 47 48 49 48 48 49
48 48 48 48 48 48 47 48 49 48 48 49 48 48 47 48
49 49 48 48 48 48 47 46 47 45 45 45 45 44 43 43
43 42 41 42 41 41 40 40 39 38 38 37 37 37 36 36
35 35 35 34 34 34 34 34 35 38 42 42 36 28 16 3
1 1 1 1 1 1 1 1 0 0 0 1 0 0 0 0
2 3 0 2 0 5 5 7 8 11 15 22 19 33 39 42
42 42 43 43 44 44 44 45 45 46 47 47 46 46 47 47
47 46 46 47 46 47 48 49 49 49 47 48 48 47 47 48
47 47 48 49 49 48 48 48 48 49 49 48 48 48 48 47
50 49 48 49 48 47 47 46 46 46 46 45 45 44 44 43
43 43 42 41 41 40 40 40 39 39 39 38 38 37 36 36
36 35 35 35 34 34 34 34 35 39 42 42 37 27 3 3
2 1 2 2 3 2 1 0 0 0 0 0 0 0 0 0
2 0 1 2 0 2 4 6 13 12 9 12 21 16 35 40
43 43 44 44 44 45 45 45 44 45 46 46 45 46 46 46
47 47 47 48 49 49 48 48 49 49 50 48 48 47 48 48
48 48 48 48 48 48 48 48 47 48 49 48 49 48 48 48
49 48 49 48 48 48 47 46 47 46 46 45 45 44 44 44
44 43 43 42 42 42 41 41 40 39 39 38 38 37 37 36
37 36 36 35 35 35 34 35 36 39 42 40 31 15 4 1
4 1 0 0 0 0 1 0 0 0 1 3 1 2 3 4
4 2 3 4 2 1 1 1 9 12 11 20 19 19 22 38
41 43 43 44 44 45 45 45 45 45 46 46 46 47 48 48
48 48 48 48 48 48 49 48 49 49 50 48 48 48 48 48
48 48 48 49 48 49 48 47 47 49 49 47 48 48 47 48
49 49 49 48 47 47 48 47 47 46 45 45 45 45 45 44
44 43 42 42 42 41 41 40 40 39 39 39 38 38 38 37
37 36 36 35 35 35 34 35 36 39 41 36 25 16 4 5
0 0 0 0 0 0 2 5 10 11 18 22 14 16 16 14
12 9 3 1 6 0 0 0 2 2 9 17 24 18 20 34
43 44 45 44 44 43 43 45 46 46 47 47 48 48 48 48
48 48 49 49 49 49 48 48 49 48 49 48 48 48 48 49
48 49 49 48 48 48 48 48 48 48 49 48 48 48 48 48
49 49 48 48 48 47 47 47 47 46 46 45 45 45 44 44
43 43 43 42 42 41 41 41 40 40 40 39 38 38 38 37
37 36 36 36 35 35 35 35 36 37 36 31 17 15 5 0
0 0 0 0 1 6 10 15 23 29 38 41 40 38 35 33
36 40 30 12 2 5 0 0 0 3 6 10 24 26 15 25
42 43 43 43 44 44 45 45 46 47 48 48 48 48 48 48
49 49 48 48 49 48 49 49 48 49 50 48 48 48 48 49
48 48 48 48 48 48 48 48 48 48 48 48 48 47 47 48
49 48 48 48 48 47 47 47 46 46 45 46 45 45 44 44
44 43 42 42 41 41 41 41 40 39 39 39 39 38 38 38
37 37 36 36 36 35 35 35 35 33 32 17 23 7 6 0
0 0 0 5 11 18 20 27 38 42 43 53 63 57 56 50
54 56 52 46 27 13 4 0 0 0 5 10 10 25 21 19
42 43 43 43 44 45 45 45 46 46 47 47 48 48 48 48
48 48 49 49 48 49 49 49 48 48 49 47 48 48 48 48
48 48 48 48 49 48 49 48 48 48 48 47 48 48 46 46
49 48 48 48 48 47 48 47 47 46 46 46 45 45 44 44
44 43 43 42 42 42 41 41 41 41 40 39 39 39 38 38
38 37 36 36 36 36 36 36 35 33 21 28 16 11 4 0
0 0 3 19 33 39 40 47 57 68 73 72 76 76 77 76
71 71 66 64 54 37 19 0 0 0 0 7 11 9 19 20
40 42 43 43 44 45 46 46 47 47 48 48 48 48 48 48
48 48 48 48 47 48 48 48 48 49 50 48 48 48 49 48
48 48 48 48 48 47 49 48 48 47 47 46 43 43 43 44
49 48 48 48 47 47 47 46 46 46 46 45 45 45 45 44
44 44 43 42 42 42 41 41 41 40 39 40 39 39 39 38
38 37 37 36 35 35 35 36 34 28 22 18 15 9 3 0
0 4 27 40 52 60 64 75 84 95 99 102 95 91 91 94
93 89 81 78 69 50 35 17 0 0 0 3 10 12 11 24
38 44 44 44 45 45 46 46 47 46 47 47 47 47 47 48
48 48 48 48 48 48 48 49 48 48 49 48 48 48 48 48
48 48 49 48 47 47 47 46 46 46 47 48 47 47 46 46
49 48 48 48 48 48 47 47 46 46 46 45 45 45 44 43
43 43 43 43 42 42 42 41 41 41 41 40 40 39 39 39
38 37 37 37 36 36 36 36 36 21 13 14 10 7 2 0
3 28 48 58 70 77 86 99 108 109 111 114 111 104 100 100
99 97 91 90 88 72 50 37 14 0 0 1 7 9 9 29
36 44 44 44 45 45 46 46 47 47 48 47 47 48 48 48
48 47 48 47 48 49 48 48 48 49 49 48 49 49 48 47
47 47 47 46 46 47 48 48 47 46 46 47 47 46 46 46
49 49 49 48 48 47 47 47 47 46 46 45 45 45 45 44
44 44 44 43 42 42 42 41 41 41 41 40 40 39 39 39
38 38 37 37 37 37 36 37 37 16 8 6 10 4 0 1
25 50 68 75 87 87 102 112 112 110 114 117 115 109 105 102
101 98 96 90 92 84 65 46 38 4 0 0 7 3 3 23
36 43 45 45 46 45 46 46 46 46 47 47 47 47 48 47
48 48 48 48 48 49 49 49 49 48 47 44 45 46 46 46
47 48 48 49 46 46 47 46 46 46 45 46 46 46 45 44
48 48 48 48 48 48 47 47 47 47 46 47 46 46 45 44
44 44 44 43 43 43 42 42 42 41 41 41 40 39 39 38
38 38 38 37 36 37 37 36 35 9 3 6 5 4 0 18
46 64 80 85 93 97 108 115 115 114 115 119 116 111 107 103
102 100 96 93 89 87 76 57 49 23 0 0 13 7 1 11
34 43 45 45 45 45 46 46 47 47 48 48 47 47 48 48
48 48 48 48 47 47 46 46 46 47 47 47 48 48 48 47
46 47 48 48 46 46 45 45 47 46 45 46 45 46 46 44
30 45 49 48 47 47 47 46 46 46 46 46 45 45 45 45
45 44 44 44 43 42 43 42 41 42 40 40 40 39 39 39
39 38 38 37 37 37 36 36 29 8 4 5 2 3 9 42
59 76 88 86 95 101 108 113 115 115 116 118 117 115 113 109
105 102 102 99 94 87 81 67 55 45 6 0 6 12 3 2
31 43 45 45 45 46 46 46 47 46 48 47 47 47 48 48
47 46 47 45 46 47 48 47 48 47 47 47 47 47 47 46
47 47 47 47 46 46 46 47 48 46 46 46 46 45 45 44
22 43 49 48 48 48 47 47 47 47 47 47 46 45 45 44
44 44 43 43 42 43 42 42 41 41 41 41 40 40 40 39
38 38 38 38 37 37 36 37 26 5 5 4 0 6 31 52
66 80 89 93 95 103 111 113 114 116 119 121 119 117 116 112
108 106 104 101 96 90 85 74 60 55 22 0 5 11 8 1
27 42 45 45 46 45 46 46 47 46 47 47 46 46 47 48
47 48 49 48 48 48 48 48 47 47 47 47 47 47 47 46
47 47 47 47 46 46 46 46 47 46 46 46 46 45 45 45
22 42 49 48 48 47 47 45 46 47 47 46 46 46 45 45
45 44 44 44 43 43 43 42 43 49 47 43 41 40 39 39
39 38 38 38 38 38 37 37 16 13 1 1 3 15 49 57
72 83 91 97 97 108 114 115 117 120 124 124 122 121 120 117
117 115 106 103 101 95 90 82 64 59 40 4 7 5 7 0
19 41 44 45 46 45 45 45 45 45 45 46 46 46 47 47
46 47 48 47 47 47 48 47 47 47 47 46 46 46 47 46
46 46 46 47 46 46 46 47 47 45 45 45 44 44 45 43
23 42 49 48 48 47 47 53 58 55 53 50 48 46 45 45
44 45 44 43 43 43 42 42 50 60 56 51 50 48 42 39
39 38 38 38 38 37 37 33 18 16 1 5 6 33 56 62
76 86 92 100 102 112 120 120 124 126 128 128 126 124 122 123
124 120 113 107 103 96 91 84 67 62 51 13 2 5 5 3
6 38 44 44 44 45 45 46 46 45 46 46 46 46 46 47
46 46 48 47 47 47 47 47 46 47 47 47 46 46 47 47
46 47 47 47 46 46 46 46 45 46 46 45 45 44 45 44
25 44 50 49 48 48 47 56 62 59 57 53 52 51 50 47
46 45 44 43 43 43 43 42 50 57 55 51 52 52 48 40
39 39 39 39 38 37 36 27 23 8 2 1 10 44 57 67
80 87 93 102 108 115 124 125 125 129 132 132 130 128 127 129
129 127 119 113 108 101 92 87 71 64 55 27 1 1 0 1
8 36 44 45 43 45 45 46 45 46 46 46 45 46 46 47
46 45 47 48 47 47 46 46 46 46 46 46 45 46 46 46
46 45 45 46 46 46 46 46 45 46 46 44 45 45 45 44
26 48 51 50 49 48 47 56 63 60 56 55 57 59 59 52
53 51 48 44 43 43 43 42 47 46 48 48 51 52 50 42
40 39 39 38 38 37 34 29 19 3 5 0 15 51 63 69
83 92 96 105 113 117 128 132 133 134 136 135 132 130 135 138
137 131 121 116 110 102 96 88 76 66 57 36 5 0 0 1
7 31 44 46 44 44 45 45 45 46 45 45 45 46 46 46
46 46 47 48 47 46 47 46 46 45 46 45 46 45 45 46
47 46 45 46 46 46 45 45 45 45 45 45 45 44 44 44
26 50 54 50 51 52 51 54 38 44 53 57 60 61 59 44
40 49 52 52 50 50 49 45 45 28 22 24 27 33 41 42
39 39 39 39 38 37 33 29 16 1 0 1 24 57 65 70
82 92 100 107 115 123 130 135 137 137 137 136 134 133 137 138
136 130 123 121 113 106 99 91 82 69 55 39 10 0 0 0
4 28 44 46 45 45 45 45 46 46 46 45 46 45 45 45
45 45 46 47 47 46 46 46 46 45 47 47 46 46 45 46
46 46 46 46 46 47 46 46 46 45 46 46 45 44 43 43
26 49 55 44 44 52 57 58 6 1 17 35 41 45 53 29
0 4 12 24 31 41 49 49 46 27 12 16 15 5 15 43
40 39 39 38 38 37 30 24 14 0 0 0 32 60 67 73
82 94 103 111 119 124 124 131 134 137 137 137 135 136 139 136
134 131 124 122 117 107 102 94 83 73 59 42 15 0 0 1
24 40 44 46 44 45 45 45 46 45 46 46 45 46 47 45
46 46 46 47 47 45 45 45 46 45 46 46 46 46 46 46
47 47 47 47 46 46 46 45 44 44 43 43 43 44 44 45
25 40 51 53 53 53 61 60 8 0 5 17 20 20 39 27
0 0 0 0 2 3 8 23 46 24 4 6 8 4 12 45
40 39 39 39 39 38 27 24 7 0 0 1 38 62 70 78
83 94 103 111 118 125 131 128 132 133 139 140 139 137 136 134
134 129 129 127 120 111 105 98 85 77 64 44 16 0 0 0
24 36 43 46 45 45 46 45 45 46 46 46 47 46 46 46
46 46 47 47 46 45 46 46 47 46 46 46 47 46 46 46
47 46 46 45 43 44 44 44 45 45 45 46 47 45 45 45
22 5 7 17 30 44 55 58 10 0 4 11 13 15 38 32
2 0 0 0 0 0 0 9 47 19 0 0 5 2 13 48
41 41 40 40 39 39 29 20 1 0 0 4 41 62 70 83
89 95 104 112 118 125 133 135 136 139 140 142 140 138 140 139
140 137 137 131 121 115 109 101 88 79 68 51 24 0 0 0
23 35 43 46 46 46 45 46 46 45 46 46 47 46 47 47
47 47 48 48 47 46 47 46 47 46 47 47 48 48 48 48
47 46 47 48 47 47 46 46 46 46 46 45 47 45 46 46
21 1 0 0 0 1 6 26 12 0 1 3 1 9 32 28
0 0 0 0 0 0 0 8 46 9 0 0 0 2 15 48
41 41 41 40 40 40 36 12 0 0 0 5 42 61 71 84
92 97 105 115 121 130 137 139 140 140 140 145 143 144 145 145
142 142 140 133 124 117 109 102 90 80 73 56 27 1 0 0
13 39 39 47 45 46 46 46 47 47 47 47 47 47 47 47
47 47 48 46 47 47 47 48 47 48 48 47 49 48 49 48
48 47 47 46 47 47 47 47 45 46 47 46 48 47 46 47
21 1 0 0 0 0 0 13 10 0 0 0 0 3 36 29
0 0 0 9 13 1 0 6 47 8 0 0 0 1 15 50
42 42 42 40 41 40 40 13 0 0 0 6 45 62 72 83
95 102 109 118 128 136 140 144 146 146 147 147 147 149 150 149
147 142 134 118 106 91 85 88 91 78 75 62 36 3 0 0
15 25 40 47 46 47 47 47 47 47 48 48 48 48 48 48
48 48 48 48 49 49 49 49 49 48 48 48 48 48 49 48
48 48 48 47 48 48 48 48 48 48 47 48 49 48 47 48
22 1 0 0 0 0 0 12 9 0 0 0 0 2 39 31
0 0 1 14 22 14 6 6 46 6 0 0 0 0 11 50
42 42 42 41 41 40 40 14 0 0 0 6 44 63 71 81
96 100 106 113 124 131 141 146 149 152 153 151 151 152 150 147
141 119 90 59 49 36 31 29 60 77 74 66 39 5 0 2
5 12 33 47 47 47 47 47 47 49 49 48 48 48 48 48
48 48 48 49 49 48 48 48 48 46 47 49 49 48 49 49
49 48 48 48 49 48 49 49 49 50 48 47 48 46 45 44
22 2 0 0 14 4 0 10 9 2 1 0 0 3 36 35
0 0 4 17 22 21 18 6 45 8 0 0 0 0 9 51
43 42 42 41 41 41 40 18 1 0 0 3 44 62 73 81
88 73 75 76 86 98 121 134 144 151 151 152 151 151 146 122
77 31 22 19 22 28 36 26 17 46 74 70 47 8 0 4
13 19 22 45 47 47 47 47 48 48 47 48 49 48 47 47
49 48 48 49 48 49 49 49 48 47 47 49 49 49 49 49
50 50 50 49 50 48 48 49 49 48 45 45 45 43 41 39
21 3 12 9 11 3 0 10 10 2 0 0 0 8 36 38
0 1 2 13 20 21 18 6 45 15 2 0 0 0 6 51
43 43 42 41 41 41 40 27 9 0 0 1 41 63 70 73
43 28 26 24 23 26 38 61 97 125 143 149 148 145 127 76
27 15 20 35 71 88 89 80 42 25 57 74 55 8 0 1
13 23 31 40 47 47 48 47 48 48 48 49 48 49 49 48
48 47 48 48 48 48 48 47 48 48 48 49 50 50 50 50
50 49 47 45 45 45 46 45 43 39 35 30 27 23 21 19
22 7 13 1 6 5 0 10 12 0 0 0 0 13 40 44
3 3 6 1 8 17 17 4 45 49 39 29 21 16 21 51
42 42 42 41 41 40 41 33 19 1 0 0 36 63 68 35
9 17 24 26 26 20 17 26 39 86 123 137 140 135 112 72
35 45 68 100 114 114 108 100 91 66 55 74 61 12 0 11
30 32 37 42 45 47 48 48 48 48 48 49 47 48 49 48
48 48 48 48 48 49 48 48 47 47 47 48 47 46 46 45
46 43 39 36 32 28 25 22 20 20 20 20 21 22 22 23
22 7 3 0 0 2 0 14 36 20 15 12 4 2 35 61
43 38 32 21 11 9 11 4 45 58 55 53 54 58 61 57
42 42 41 41 41 40 40 37 16 9 0 1 30 63 59 14
25 56 84 96 100 86 58 43 41 70 101 128 134 136 116 82
73 75 78 95 102 99 105 101 89 70 56 73 68 14 0 16
44 40 41 44 44 46 47 47 47 48 47 48 48 48 48 47
47 48 47 46 45 45 48 45 45 44 45 43 39 35 31 27
24 22 21 21 20 20 21 22 23 24 25 26 26 27 28 28
22 2 0 0 0 0 0 17 66 59 50 51 48 39 52 61
29 31 36 39 40 39 40 42 57 52 51 53 56 62 64 59
42 42 41 41 40 40 40 32 18 16 0 0 21 63 54 37
67 84 97 110 115 108 94 83 71 68 93 120 137 140 113 75
74 72 82 74 79 72 73 77 92 86 74 67 71 18 0 14
47 52 44 45 46 47 48 47 47 46 47 47 45 45 44 44
44 46 45 44 43 40 37 33 30 27 24 23 22 22 21 23
24 25 26 26 26 19 29 29 30 31 32 32 33 33 20 33
22 4 0 0 0 0 0 17 69 55 59 64 68 65 60 51
21 21 21 21 21 21 22 26 31 28 33 39 46 48 48 48
41 41 41 40 40 40 40 28 17 4 1 0 16 63 54 50
70 84 92 85 93 96 91 74 70 70 74 109 140 140 105 76
74 72 41 24 21 30 40 51 77 94 94 74 71 26 4 22
67 65 45 45 44 46 47 47 47 47 47 46 45 44 47 40
34 32 28 26 24 22 23 23 24 24 26 27 28 29 30 31
32 33 33 34 33 13 33 35 36 36 33 33 38 26 32 40
26 39 37 26 16 8 3 19 58 49 60 64 68 68 56 44
24 23 21 20 18 17 16 15 14 14 16 17 33 41 37 37
40 41 41 41 41 40 40 33 26 24 17 0 15 65 53 58
66 71 58 67 71 61 68 75 76 67 69 96 133 132 100 78
78 58 89 41 41 67 58 45 74 94 103 87 74 33 2 36
61 73 45 47 46 46 45 43 40 36 34 30 27 27 44 35
19 23 25 27 27 28 29 30 31 33 33 34 36 36 36 37
37 30 30 38 39 25 28 40 40 40 27 36 37 27 42 42
27 52 64 63 58 55 50 53 51 43 56 61 66 66 58 49
28 23 20 16 15 15 16 15 16 16 17 18 36 25 28 40
41 42 40 40 40 40 40 37 26 33 35 4 18 67 65 68
64 50 41 32 25 15 27 66 58 77 74 92 126 126 102 82
78 80 86 93 93 105 101 89 92 106 108 94 77 41 7 24
45 64 38 36 32 30 27 25 25 24 25 27 27 27 36 30
23 30 33 34 35 36 37 38 38 39 39 39 39 41 41 41
42 41 35 32 42 37 18 42 42 40 23 38 26 37 39 43
27 52 65 65 63 63 64 66 39 11 19 28 37 44 43 49
30 21 17 8 8 8 15 18 18 16 20 22 38 35 34 48
47 44 23 25 41 41 41 39 37 25 30 3 18 72 74 82
70 49 31 60 71 70 81 89 77 77 75 96 125 119 102 87
98 96 96 106 112 117 109 99 110 116 109 94 73 45 3 10
45 62 26 25 27 27 29 29 31 32 32 33 34 34 40 35
28 36 39 39 41 41 42 42 42 42 42 42 42 43 43 42
44 43 43 36 33 41 18 36 43 39 24 28 33 39 40 43
26 46 58 59 60 62 64 65 32 0 0 0 3 14 23 48
29 19 15 1 0 0 7 13 10 6 14 16 36 52 45 45
46 49 40 36 41 40 40 40 28 23 33 5 20 71 81 95
82 70 80 92 105 97 98 93 92 79 77 99 125 120 102 97
95 108 100 99 103 103 109 118 123 117 109 93 71 52 4 11
69 81 33 33 34 35 36 37 38 38 40 41 39 38 35 31
32 40 42 42 43 44 44 44 44 44 45 44 44 43 43 43
43 45 45 44 35 34 31 21 42 35 26 22 43 38 40 42
33 38 42 45 48 47 52 59 27 0 0 0 1 1 15 52
27 17 14 2 0 4 2 0 0 0 1 4 31 52 37 33
32 36 40 43 41 41 41 38 23 21 32 7 19 69 79 102
104 86 77 90 100 100 90 92 94 83 85 101 128 117 104 104
103 111 119 124 125 125 128 130 126 113 104 91 70 56 20 44
99 92 40 39 38 40 40 42 42 42 42 42 42 37 14 11
27 42 45 45 45 44 44 45 45 45 45 45 44 44 43 43
42 44 44 44 44 34 30 13 21 17 21 33 42 38 40 40
29 30 29 34 43 40 48 59 24 0 0 0 2 0 5 51
20 11 2 0 0 13 9 3 0 0 0 1 30 53 38 27
42 38 36 40 40 40 40 40 32 28 39 9 15 66 75 99
111 111 107 100 100 103 107 111 99 90 89 104 135 123 103 107
106 112 123 129 132 131 137 134 124 110 98 93 70 54 20 32
80 92 42 42 42 42 43 43 43 43 42 39 38 35 14 8
22 42 45 46 46 45 45 46 45 45 45 46 45 44 44 43
43 43 43 43 45 42 32 11 0 1 27 38 39 36 41 37
28 30 34 37 44 44 52 58 24 0 0 0 0 0 6 52
8 0 0 0 1 8 18 10 2 0 0 0 29 53 37 20
34 31 33 39 41 40 41 41 37 30 40 9 13 64 72 94
110 115 124 128 126 123 123 119 104 91 90 107 140 124 104 106
113 112 124 132 135 137 140 137 130 118 107 94 74 50 14 31
70 87 44 44 44 44 44 45 44 26 11 7 17 32 11 6
20 41 45 45 45 45 45 44 45 45 45 46 45 44 44 43
42 42 43 43 43 42 41 27 0 7 37 38 33 33 39 39
28 13 7 12 20 28 37 44 23 0 0 0 0 0 9 53
8 0 0 0 1 7 20 18 14 1 0 0 28 55 40 20
27 25 30 38 40 40 40 40 38 34 52 17 13 60 73 92
107 118 128 131 131 126 128 125 104 90 90 109 139 123 104 100
115 125 133 138 142 144 145 143 138 126 113 91 70 48 16 26
62 85 47 45 45 45 45 45 44 28 21 28 35 35 6 1
18 41 44 45 45 44 45 45 44 44 44 44 44 44 43 43
43 41 41 41 42 42 43 38 2 8 40 37 29 29 38 41
33 10 0 0 0 0 0 7 20 0 0 0 0 0 9 50
5 0 0 0 5 22 25 20 19 1 0 2 28 55 43 31
28 21 29 37 41 41 38 36 33 24 59 23 10 55 72 92
105 118 129 134 136 138 138 127 103 93 90 113 138 129 111 98
97 117 139 145 147 148 149 149 146 132 115 90 66 41 10 24
85 86 47 45 45 45 45 45 45 44 43 43 42 36 10 2
19 41 44 45 45 45 45 45 44 44 44 45 44 45 44 43
43 43 41 41 41 42 42 39 4 7 40 40 30 30 40 42
33 12 0 0 1 0 0 4 18 0 0 10 7 0 7 48
3 0 0 0 4 19 28 12 6 0 0 3 24 54 45 32
17 6 20 36 41 39 30 17 11 8 57 28 7 45 70 89
104 119 134 141 143 144 142 127 105 82 91 121 139 139 124 104
98 97 112 138 149 150 151 151 149 136 114 87 59 35 9 33
91 89 46 46 45 45 45 45 45 44 44 42 41 38 18 0
23 41 44 45 46 45 44 44 44 44 44 44 44 44 43 43
43 43 42 40 41 43 43 40 6 5 39 41 31 29 41 42
32 12 0 1 9 1 0 3 18 0 4 23 17 2 8 47
3 0 0 0 1 1 20 3 0 0 1 0 19 54 44 25
11 7 16 35 41 40 35 25 23 26 52 32 3 39 65 81
100 121 138 144 147 148 144 115 87 83 97 130 149 148 131 108
102 105 95 107 133 142 147 147 142 127 111 80 51 33 5 34
82 71 45 46 45 45 45 45 44 44 44 43 40 37 26 12
31 42 44 45 45 44 44 44 44 44 44 44 44 43 44 44
43 43 42 40 41 43 43 41 7 4 39 42 29 28 40 42
29 11 0 7 24 10 2 2 21 1 11 23 19 7 7 44
2 3 0 0 0 0 20 6 0 0 0 0 14 52 41 14
8 0 15 33 40 40 39 34 29 22 40 38 2 27 56 71
96 120 139 146 149 148 129 85 80 93 90 122 143 140 123 94
91 100 94 93 110 128 133 134 129 115 101 70 54 29 5 31
81 62 44 45 45 45 45 45 45 44 44 43 41 35 32 32
38 43 45 46 45 44 45 43 44 44 43 44 44 43 43 43
43 43 42 41 40 37 40 39 9 2 27 30 22 25 38 41
28 12 0 13 26 13 4 2 43 38 43 43 40 35 32 47
2 0 0 0 0 0 19 8 0 1 0 0 9 52 36 10
9 1 24 33 40 41 40 40 33 34 53 48 6 16 52 66
93 116 132 137 143 139 103 72 82 84 62 80 121 121 100 57
57 77 104 105 102 112 119 118 112 102 90 60 50 25 6 33
83 56 44 45 46 45 44 45 44 44 43 43 41 37 37 39
43 45 44 45 45 44 45 45 44 45 45 45 45 44 44 44
44 43 42 40 40 35 28 31 10 0 31 41 34 29 38 41
28 14 0 5 8 4 1 2 47 52 57 57 57 61 65 56
13 9 8 1 0 3 23 12 3 4 0 0 6 44 34 8
2 5 14 32 40 41 41 41 35 39 42 38 6 7 48 61
85 109 119 126 132 124 79 76 83 60 45 49 61 89 75 96
90 88 98 112 118 107 105 102 95 87 80 61 51 26 14 33
74 46 45 45 46 46 45 45 45 44 43 43 42 41 40 40
45 45 45 45 46 46 46 46 45 45 44 43 43 44 44 44
43 43 43 41 40 41 42 42 15 1 29 39 33 27 35 37
29 25 12 2 4 1 0 2 47 54 57 56 57 65 69 64
41 39 37 31 28 28 33 24 21 17 16 13 19 40 38 16
13 16 6 23 39 41 40 40 34 40 44 37 11 5 40 56
73 98 110 116 122 113 74 89 88 75 65 62 53 54 71 58
46 46 73 103 118 121 103 90 81 72 71 56 47 27 10 17
45 45 45 45 44 45 45 45 45 43 43 43 43 42 42 44
44 44 44 43 44 44 44 44 44 43 44 44 44 44 44 44
44 43 42 41 40 40 41 41 18 1 27 40 34 26 35 39
31 30 9 1 2 0 0 1 43 46 50 51 51 55 55 54
46 46 47 44 44 45 44 41 37 33 31 28 31 43 48 34
32 26 21 24 39 41 41 39 33 41 45 38 5 2 27 40
57 79 94 105 110 108 97 95 79 45 39 29 46 81 58 24
27 21 40 65 87 102 116 101 89 67 66 51 41 19 9 13
41 45 45 45 45 45 45 46 44 43 44 44 43 42 43 44
44 43 44 44 45 45 45 44 44 44 43 43 44 44 44 43
42 42 43 41 40 41 42 42 21 1 26 41 36 26 35 40
34 26 3 0 1 0 0 1 47 46 47 48 48 47 41 42
47 48 50 49 47 46 46 45 45 49 46 42 42 47 57 54
53 51 48 41 39 41 40 39 34 41 45 42 10 2 19 37
61 67 74 88 101 112 110 79 45 22 21 23 27 67 38 21
23 19 21 29 39 52 66 90 107 75 54 40 27 16 11 11
38 44 44 44 44 43 43 43 44 44 44 44 43 43 46 46
44 44 46 46 45 45 44 44 45 43 44 44 44 44 43 44
43 43 43 41 39 41 42 41 24 1 23 41 36 26 34 39
31 32 31 26 20 16 12 11 50 49 46 46 47 47 48 50
51 51 54 59 57 47 45 45 49 58 57 52 51 50 45 39
38 39 39 38 40 41 41 40 35 41 46 40 11 3 13 31
46 61 64 79 104 105 75 44 22 14 13 20 32 72 57 25
17 11 14 22 18 18 24 48 108 78 43 34 20 14 6 11
36 43 44 44 44 44 45 46 45 45 45 44 44 44 45 45
44 44 45 45 44 44 45 44 44 44 44 43 44 43 43 43
43 43 43 41 40 41 42 41 26 1 20 41 36 27 33 40
32 41 60 61 57 57 61 60 63 54 50 50 49 51 54 58
57 52 54 61 61 48 43 40 47 60 57 53 53 52 48 39
32 30 30 32 39 41 40 39 33 41 46 44 19 5 9 24
34 55 62 75 99 63 31 14 10 7 20 49 79 108 109 93
59 25 12 23 20 12 12 20 80 82 39 32 18 11 6 9
29 43 44 45 45 44 44 44 44 44 44 44 45 45 45 45
45 44 44 44 44 44 44 43 44 43 43 43 43 43 43 43
42 43 43 41 39 40 43 41 28 1 18 40 36 26 32 39
32 42 68 69 68 68 68 69 68 53 44 41 41 43 50 58
60 52 53 52 51 49 45 40 40 47 41 41 47 48 47 45
39 37 38 38 40 41 40 38 34 42 45 44 20 1 4 17
29 40 58 73 75 27 14 7 12 31 56 85 98 99 95 85
74 51 35 31 19 9 7 5 45 64 32 17 10 5 3 9
33 42 43 44 43 44 44 44 43 44 44 43 45 44 45 44
44 44 43 44 44 44 44 43 43 43 43 42 43 42 41 42
42 41 42 40 39 39 41 41 31 2 15 41 38 27 32 39
33 34 48 50 52 54 56 58 62 37 10 9 5 7 12 31
59 52 35 15 21 25 24 34 42 28 7 2 7 17 24 44
42 40 44 47 50 48 41 37 36 43 46 46 29 3 5 7
22 27 48 71 47 11 2 11 17 41 63 77 97 111 115 119
125 108 86 79 73 47 16 5 31 47 24 13 10 3 2 6
34 42 43 43 43 43 42 41 41 39 38 37 39 43 45 44
44 45 44 43 43 44 44 43 43 42 42 42 44 43 42 42
41 41 43 41 39 39 41 41 32 2 13 40 38 28 31 38
32 31 39 39 38 38 38 37 41 27 2 0 0 0 0 15
57 45 11 0 1 3 11 34 44 27 0 0 0 6 19 35
18 22 26 29 36 51 43 36 37 43 45 44 33 3 1 5
15 18 34 57 28 6 17 41 41 56 69 90 112 120 130 111
92 93 94 90 109 93 43 39 46 43 26 12 8 1 0 4
24 37 40 43 43 43 33 19 18 16 15 14 24 43 45 45
44 43 44 43 44 43 42 43 43 42 43 42 43 43 42 42
42 41 42 41 39 39 41 42 35 3 13 41 40 28 29 39
31 34 47 48 48 46 45 44 45 28 8 1 0 0 4 28
56 32 0 0 0 0 1 35 45 29 0 0 0 3 17 31
1 5 7 1 8 48 44 35 39 43 46 46 37 10 6 9
15 13 27 40 24 10 39 96 82 78 83 89 96 90 96 103
108 105 95 108 106 90 51 71 68 34 21 9 3 1 1 5
10 13 31 43 43 43 31 10 10 10 11 10 21 44 45 46
45 44 44 44 44 43 43 43 43 42 43 41 42 42 42 42
42 42 43 42 40 41 42 42 37 4 12 39 38 26 27 38
31 35 49 50 50 49 50 51 51 31 7 2 0 0 3 18
52 21 0 0 0 0 0 33 44 28 0 0 0 2 15 32
1 12 15 2 5 48 44 35 40 43 45 46 42 13 4 4
11 14 19 31 52 39 46 97 98 87 90 104 109 116 118 120
121 105 110 111 104 85 43 29 43 25 15 8 5 1 0 3
5 5 24 41 42 42 29 10 10 11 11 11 21 43 45 45
45 44 44 43 43 43 43 42 42 42 42 42 42 42 42 42
42 42 42 40 39 38 39 39 34 4 10 35 36 26 28 39
38 39 45 47 48 49 49 50 53 31 1 0 0 3 11 10
50 18 0 0 0 0 0 34 42 26 0 0 0 0 10 34
2 4 6 0 4 46 45 35 40 43 45 46 42 22 0 1
4 8 11 23 64 59 46 90 98 100 98 107 114 116 116 111
113 110 110 103 107 73 38 20 16 13 8 2 4 1 0 4
4 5 21 41 42 42 27 10 10 11 9 10 17 42 45 45
45 44 44 43 44 43 43 42 42 41 41 40 39 42 42 42
42 41 41 41 38 38 38 40 37 6 6 35 38 27 26 36
46 45 44 45 45 45 45 39 52 42 8 0 0 2 8 4
48 15 0 0 0 0 0 33 43 25 0 0 0 0 3 36
3 8 10 2 4 45 45 35 41 42 46 46 44 31 1 2
3 6 8 17 42 34 37 71 107 96 104 106 105 102 98 93
97 94 87 94 87 52 27 13 7 5 1 0 0 0 2 6
5 4 22 41 42 42 29 10 10 10 11 11 15 40 44 43
43 42 41 41 41 40 41 41 42 42 41 41 42 41 41 41
41 41 40 40 38 37 39 39 37 7 4 34 37 28 26 35
46 45 45 45 45 45 44 37 48 45 12 0 0 4 10 5
46 14 0 0 0 0 0 26 44 29 3 0 0 0 2 39
6 1 3 0 2 43 43 34 41 42 45 46 44 39 11 0
0 1 5 10 17 13 19 54 99 95 75 79 70 56 37 27
28 43 61 82 64 33 17 4 6 0 0 1 0 0 3 5
5 4 21 40 41 41 33 16 16 16 17 18 18 35 41 43
42 42 43 42 35 29 28 30 36 40 39 40 40 40 39 39
40 40 39 39 37 37 38 39 36 8 2 31 37 29 25 34
43 43 44 43 43 43 44 39 47 41 1 0 0 0 1 4
46 15 0 0 0 0 0 23 46 26 0 0 0 0 1 39
10 0 0 0 2 41 42 35 40 42 45 46 44 40 21 2
1 0 3 5 9 7 13 41 82 88 61 43 26 13 8 5
7 18 41 61 43 20 13 4 3 4 0 0 0 1 4 4
4 4 19 39 41 41 33 16 16 15 15 15 17 33 42 43
43 42 42 38 4 0 0 0 19 42 40 40 40 40 40 39
39 39 40 39 36 35 38 38 36 11 1 29 37 29 25 35
13 14 15 16 19 34 42 40 44 37 0 0 0 0 0 1
43 18 0 0 0 0 0 18 46 27 1 0 0 0 1 37
15 0 0 0 4 39 40 34 40 41 44 45 42 38 29 3
0 0 0 1 4 3 6 22 50 68 41 29 12 2 1 0
1 2 11 17 20 11 7 2 3 1 0 0 0 2 7 4
5 3 17 38 41 41 34 11 11 10 10 10 12 33 42 42
42 42 41 39 4 0 0 0 16 41 40 40 39 40 39 39
40 39 39 38 36 36 38 38 38 14 0 27 37 30 24 34
0 0 0 0 4 39 44 41 41 36 3 1 1 2 13 5
40 29 10 9 12 11 11 27 49 35 33 31 30 33 37 51
23 5 4 4 7 37 38 33 39 41 44 44 39 42 38 9
0 0 0 0 2 2 6 13 36 29 19 14 3 0 1 2
2 1 4 9 15 5 2 1 1 0 0 0 0 1 8 10
5 2 16 38 40 40 33 10 9 11 11 10 11 34 43 42
41 41 40 36 2 0 0 0 7 40 41 40 40 40 40 40
39 39 39 39 37 36 39 38 38 15 0 27 39 31 24 34
0 0 0 0 3 40 45 41 37 49 43 37 34 38 43 38
42 49 56 52 52 54 55 57 54 36 46 50 53 58 64 65
47 36 35 33 35 40 37 32 38 40 42 40 41 42 38 17
0 0 0 0 0 0 2 6 14 21 18 5 3 3 9 6
4 8 6 9 9 2 5 0 0 0 0 0 0 0 5 11
7 2 15 38 40 40 34 11 10 10 9 9 12 34 43 42
41 41 41 36 3 0 0 0 4 40 41 41 41 40 40 39
40 40 39 40 37 36 38 38 39 17 0 24 39 32 23 33
0 0 0 0 1 38 46 41 37 54 56 47 49 51 47 39
36 45 62 60 58 58 62 63 59 37 41 48 51 58 63 62
48 37 37 37 37 37 36 33 35 39 39 40 42 41 40 29
5 0 0 0 1 0 0 3 11 17 11 7 4 9 14 10
11 17 7 6 11 2 4 0 0 0 0 0 1 0 3 20
15 2 14 37 39 40 34 12 9 9 9 9 11 34 43 42
27 16 21 16 0 0 1 0 3 40 41 40 41 41 40 40
40 39 38 39 37 36 37 38 38 19 0 21 38 32 23 32
0 0 0 0 0 37 47 41 36 54 50 42 46 49 49 39
32 34 44 45 45 44 44 44 45 36 32 39 41 42 39 37
38 38 39 39 38 37 38 36 35 36 39 43 43 41 38 26
12 0 0 0 0 1 0 3 1 2 9 9 8 14 10 11
10 11 4 4 9 3 1 0 0 0 0 2 12 0 3 12
29 5 13 38 41 42 35 11 9 9 9 10 10 33 43 39
4 0 0 0 0 0 2 0 3 39 41 41 41 40 40 40
40 39 40 40 38 37 38 39 39 23 0 19 39 33 23 31
0 0 0 0 0 34 47 41 36 51 34 37 38 41 47 41
34 33 28 30 30 31 31 31 36 37 38 42 43 41 37 34
36 38 39 39 38 38 37 37 38 40 43 45 43 41 37 22
1 2 0 1 2 0 0 3 8 2 7 9 5 10 5 7
8 4 3 5 5 2 1 0 0 0 2 29 24 0 3 2
15 22 13 38 41 42 36 12 9 10 10 10 12 33 44 41
6 0 0 0 0 0 0 0 2 39 41 42 41 41 41 40
40 40 40 41 39 38 38 39 39 25 0 17 39 34 24 31
0 0 0 0 0 30 48 40 39 51 17 11 14 18 21 21
24 35 34 39 39 47 47 42 43 46 47 52 54 52 42 38
38 39 39 40 39 39 38 38 38 40 43 45 43 36 33 14
1 4 2 0 0 0 0 3 3 3 3 4 2 0 1 3
3 2 2 1 0 2 0 0 2 1 15 47 31 0 0 4
12 21 21 38 41 42 37 13 8 10 11 9 10 33 44 43
19 0 0 0 0 0 0 0 2 40 42 42 41 42 41 41
40 40 40 41 39 37 40 39 40 26 0 15 38 34 24 30
0 0 0 0 0 26 48 40 43 56 12 0 0 0 0 5
20 37 43 54 49 61 64 33 25 27 29 33 45 56 44 40
39 39 39 40 39 38 38 38 38 40 43 46 41 33 27 9
0 2 1 5 1 0 0 0 0 1 0 3 0 0 0 0
0 1 0 0 0 0 0 0 0 2 34 63 30 0 1 6
14 13 19 38 41 43 38 19 16 18 13 17 18 34 43 44
35 9 0 0 0 0 0 0 1 13 40 42 41 41 41 41
41 41 41 41 39 37 39 43 41 29 0 14 38 34 25 30
0 0 0 0 0 23 49 40 45 60 15 0 0 0 0 0
23 36 40 53 36 39 50 12 0 0 0 1 22 55 45 40
39 39 39 39 39 38 38 39 38 39 42 44 37 26 27 36
6 0 7 32 1 0 0 0 0 0 0 0 0 0 0 0
0 0 1 0 0 0 0 1 6 32 70 69 25 0 6 12
16 16 16 37 41 43 41 39 40 39 34 39 40 42 42 30
48 9 0 0 0 0 0 0 0 2 40 43 43 43 42 43
42 41 41 42 41 38 38 40 39 30 0 9 34 29 24 29
0 0 0 0 0 18 48 40 43 57 21 0 0 0 0 0
20 37 37 51 14 3 31 13 0 0 0 0 15 53 46 40
40 39 39 39 39 38 37 37 38 39 42 42 36 28 35 39
14 0 4 45 31 2 0 0 0 0 0 0 0 0 0 0
0 0 0 0 0 0 0 7 43 73 81 72 14 0 14 16
21 21 21 31 38 42 43 43 43 44 43 44 43 42 28 3
2 13 10 0 0 0 0 0 0 1 38 41 41 42 41 42
41 40 41 42 42 39 38 40 40 32 1 7 30 28 23 28
0 0 0 0 0 15 47 40 37 26 4 0 0 0 0 0
23 35 37 51 14 2 29 16 0 0 0 0 9 49 46 39
40 39 39 39 38 38 38 37 38 39 40 39 35 34 45 21
7 0 0 41 55 40 3 1 0 0 0 0 0 0 0 0
0 0 0 0 0 0 22 46 81 96 87 65 2 2 26 23
24 27 25 23 19 24 33 39 40 37 35 33 33 21 1 0
0 7 6 0 0 0 0 0 0 0 37 42 43 44 42 41
42 42 42 42 41 38 38 40 39 32 1 5 27 26 24 28
0 0 0 0 0 12 47 40 36 20 0 0 0 0 0 0
25 34 37 51 15 1 26 20 0 0 0 0 5 47 47 40
40 39 40 39 39 37 38 37 38 39 41 39 34 26 12 10
6 0 0 43 70 75 50 22 19 3 0 0 0 0 0 0
0 0 0 0 3 26 65 87 101 96 87 43 0 8 32 25
26 28 24 20 19 15 17 17 20 20 11 3 1 0 17 19
7 10 1 0 0 0 0 0 0 0 28 40 42 43 42 42
43 43 43 43 43 40 39 40 39 32 2 3 26 26 23 27
0 0 0 0 0 10 47 40 36 23 0 0 0 0 0 0
21 34 36 51 14 2 24 21 0 0 0 0 4 45 46 38
39 39 38 38 38 37 37 37 37 38 39 41 37 16 9 9
10 2 0 35 69 80 87 80 74 48 15 5 1 0 0 0
0 0 6 23 46 82 98 107 104 96 86 17 3 13 27 26
24 25 23 19 20 16 14 17 17 18 22 23 16 11 30 34
30 29 8 0 0 0 0 0 0 0 0 13 17 16 38 44
44 44 44 44 44 41 39 39 37 31 3 2 26 27 25 28
0 0 0 0 0 8 45 40 35 23 0 0 0 0 3 0
18 37 37 52 19 3 21 25 3 0 1 1 3 42 46 38
39 39 38 38 38 37 37 36 36 37 39 41 37 18 20 11
11 6 1 16 68 78 86 94 99 92 69 44 34 26 19 15
18 36 47 61 89 107 106 108 104 97 78 4 6 14 32 23
22 23 20 18 20 15 15 18 18 20 21 25 23 21 22 23
21 15 10 10 9 9 9 9 9 8 8 7 6 6 38 46
46 46 47 48 48 46 44 43 40 35 4 1 30 34 32 36
0 0 0 0 0 7 44 41 35 24 0 6 0 0 12 5
14 39 38 52 30 9 18 26 6 7 7 1 2 40 45 38
38 38 37 37 37 37 37 37 37 37 38 40 30 19 25 21
19 14 2 1 54 77 84 92 97 98 96 92 81 79 83 83
87 99 95 100 111 117 114 111 109 99 66 1 9 18 32 24
21 21 20 19 22 15 11 12 14 21 26 28 24 26 23 28
22 22 27 30 23 20 18 16 15 14 12 11 11 14 52 63
62 61 63 64 63 60 57 54 50 45 8 1 29 18 13 12
0 0 0 0 0 5 44 40 35 28 3 9 2 2 16 19
16 44 39 53 30 22 17 23 3 13 10 0 1 35 44 38
39 38 38 38 38 38 37 37 37 36 34 29 16 23 27 26
25 26 10 4 26 77 85 95 102 106 109 112 107 102 109 118
124 124 117 118 123 126 123 117 112 100 37 8 10 19 43 12
19 22 20 17 18 13 11 15 12 14 23 27 26 28 25 22
26 21 44 40 32 25 20 15 38 44 48 52 57 61 65 65
66 66 66 66 66 63 58 54 51 47 10 0 30 2 0 0
0 0 0 0 0 4 43 42 35 36 34 38 39 39 44 46
46 53 40 52 22 29 19 30 19 23 21 18 18 32 36 37
37 37 37 37 37 37 37 36 31 25 23 21 16 27 26 24
24 31 20 16 9 66 89 101 115 121 121 123 122 110 110 124
132 128 122 123 127 129 128 123 114 83 22 18 24 66 26 0
0 10 24 17 15 12 13 12 13 11 22 27 27 26 24 19
25 23 25 21 45 40 26 30 35 59 62 62 61 61 62 62
64 63 62 60 62 58 52 49 49 48 13 0 25 0 0 0
0 0 0 0 0 3 42 40 34 37 56 59 60 60 61 60
62 61 45 51 13 18 20 36 31 31 31 30 29 30 33 37
38 37 38 37 37 36 29 23 20 19 24 18 20 28 29 26
23 25 21 22 17 35 91 103 117 127 129 126 120 112 107 114
123 122 123 126 130 133 131 123 109 53 27 34 59 16 0 0
0 0 15 44 12 11 13 14 13 10 22 26 25 26 26 20
21 21 22 21 23 46 40 46 22 24 36 50 46 51 54 54
58 51 50 40 47 46 37 42 48 48 15 0 16 0 0 0
0 0 0 0 0 3 41 41 35 33 55 59 58 57 57 56
56 54 46 50 11 5 14 36 33 35 35 35 35 34 35 37
37 37 37 37 34 21 14 21 25 27 25 16 24 29 27 27
29 28 22 20 18 17 69 99 113 126 133 132 126 118 112 112
119 120 124 126 132 136 130 117 87 38 36 27 17 3 0 0
0 0 1 54 18 10 10 14 14 11 19 22 27 23 23 23
20 16 18 19 21 46 38 41 26 18 16 20 32 38 39 39
51 38 37 33 31 34 32 41 46 47 17 0 10 0 0 0
0 0 0 0 0 3 41 41 33 27 28 28 27 26 26 25
25 23 28 48 13 3 11 37 35 38 37 37 37 38 36 37
37 37 39 35 22 13 15 19 23 21 20 16 24 31 33 23
10 22 24 21 20 23 31 91 107 121 132 136 132 124 116 115
118 122 127 130 135 134 116 78 45 40 42 22 12 0 0 0
0 0 0 30 46 28 21 19 16 14 16 20 26 23 22 21
20 17 15 17 20 46 45 46 33 18 19 19 19 27 35 37
48 46 43 43 45 44 39 40 45 47 19 0 5 0 0 0
0 0 0 0 0 2 39 41 34 28 23 22 21 20 21 20
21 19 26 48 16 1 9 37 34 38 38 38 37 37 37 39
56 50 31 24 17 18 16 16 18 21 17 18 33 22 8 0
0 14 30 19 18 23 23 60 101 114 128 136 133 127 120 118
120 123 128 132 136 122 74 42 39 39 28 16 32 1 0 0
0 0 0 18 42 21 24 28 29 27 25 22 35 53 28 25
21 16 35 50 49 78 121 114 111 26 17 18 18 22 22 26
43 47 47 45 43 43 41 41 43 45 21 0 0 0 0 0
0 0 0 0 0 2 40 40 32 31 28 26 25 24 23 23
22 20 28 50 30 29 36 42 33 37 37 37 36 38 53 69
38 47 37 26 14 15 13 16 20 20 17 24 19 0 0 0
0 1 28 27 25 26 27 35 91 109 124 133 135 129 123 119
119 120 127 134 132 97 55 38 44 29 20 33 38 17 28 1
0 0 10 18 43 28 34 41 26 40 70 84 93 101 84 71
72 64 46 37 39 70 98 77 69 39 39 33 33 44 44 27
22 36 43 45 44 45 40 42 43 42 21 0 0 0 0 0
0 0 1 1 1 7 42 41 33 32 31 29 29 29 28 27
26 22 30 50 42 53 55 45 33 37 37 37 39 36 31 37
55 48 63 27 19 16 15 18 18 15 17 25 5 0 0 0
0 0 4 30 38 36 29 34 62 100 116 129 134 132 128 125
121 123 127 132 116 78 51 41 59 46 60 36 1 7 7 1
0 0 19 8 22 8 9 12 34 62 44 49 43 61 60 44
47 43 40 60 70 88 138 117 78 38 43 36 37 51 39 54
32 25 34 31 32 34 31 29 33 30 21 0 0 0 0 0
24 26 27 28 29 30 37 36 33 32 31 29 29 28 28 28
28 22 24 34 30 34 37 34 34 37 38 33 29 28 26 29
50 36 28 29 24 19 14 17 17 16 18 23 2 0 0 0
0 0 2 11 21 33 34 51 37 59 106 125 133 132 130 119
120 125 128 130 102 73 51 70 53 30 36 21 4 12 8 7
2 2 32 12 17 8 10 14 19 30 56 84 80 62 59 66
76 63 44 21 17 39 82 41 25 21 26 48 37 36 73 64
56 48 23 23 30 29 24 26 28 33 27 0 0 0 0 0
37 36 35 35 34 34 33 34 33 32 32 31 29 29 28 29
27 24 26 29 30 29 32 33 35 37 33 27 25 43 31 27
26 25 27 24 16 20 20 14 16 12 18 17 0 0 0 1
24 3 3 8 14 34 50 66 70 30 67 118 133 135 131 122
125 129 130 118 95 71 52 44 56 17 7 3 12 15 15 16
16 8 35 10 19 11 10 18 21 21 22 24 23 24 24 20
24 21 18 15 16 30 70 32 18 17 16 18 18 17 17 42
63 48 37 19 40 39 33 37 39 44 32 0 0 0 0 0
37 37 36 35 35 34 34 34 33 32 32 31 31 30 29 28
27 25 27 30 32 31 33 34 32 28 24 24 41 61 26 23
22 23 27 22 18 19 19 18 16 14 23 12 0 0 0 11
26 9 4 26 40 32 26 49 96 70 43 82 133 136 134 131
129 133 123 104 90 73 37 17 14 9 2 9 21 24 21 20
23 22 39 14 42 13 13 23 23 21 19 21 23 23 25 24
25 21 16 14 15 32 82 33 22 16 18 18 22 16 19 25
23 48 32 16 32 47 45 42 43 47 37 0 0 0 0 0
36 34 33 31 30 29 28 28 29 31 32 32 32 30 30 30
28 26 27 30 33 32 30 24 23 20 23 32 50 65 22 25
22 19 26 19 16 19 18 16 24 49 23 19 35 11 13 25
37 24 7 32 27 32 42 17 26 67 67 70 99 131 139 137
136 131 117 102 91 59 23 16 10 6 6 20 28 25 23 22
25 37 63 11 39 28 15 22 23 23 20 23 25 22 25 24
24 21 17 17 19 33 82 41 29 15 18 17 19 13 19 22
21 20 18 15 18 42 43 38 40 47 41 0 0 0 0 0
8 6 6 16 24 25 24 31 31 31 32 31 31 31 31 30
28 27 28 30 33 29 18 19 19 20 23 35 54 62 19 24
22 20 24 23 16 17 16 17 39 47 21 23 57 45 129 48
12 12 13 19 7 5 6 6 10 4 7 51 87 95 119 132
133 120 105 99 84 29 18 14 12 3 22 29 30 26 23 22
23 39 92 15 37 43 18 26 24 23 20 24 26 25 28 28
26 24 20 18 19 35 87 40 29 18 21 22 18 13 21 23
24 20 12 12 10 23 32 38 42 48 43 1 0 0 0 0
15 0 0 11 23 27 26 29 30 30 30 29 30 30 30 29
28 28 28 30 30 18 12 20 18 22 21 38 54 64 16 21
28 39 28 23 16 15 16 24 51 50 19 21 60 41 69 20
12 14 17 15 14 12 8 6 8 12 3 3 27 75 88 109
123 107 97 92 46 20 12 11 7 17 30 29 28 27 24 23
27 41 97 35 56 22 24 23 21 24 23 22 25 26 27 27
24 24 22 18 21 30 94 36 38 16 23 21 18 14 22 24
25 21 11 9 13 11 29 37 41 47 44 2 0 0 0 0
47 8 3 12 21 26 27 28 29 29 29 29 28 28 28 28
27 27 28 28 22 16 13 21 19 21 26 59 89 129 45 39
64 81 69 68 78 67 59 37 33 43 21 1 37 43 56 18
13 13 22 22 20 22 20 23 15 11 18 6 6 20 66 84
79 88 94 54 18 14 9 8 14 32 33 29 31 28 23 21
23 44 94 42 73 19 25 22 23 25 23 20 25 27 28 26
23 22 19 19 18 27 87 38 42 13 22 19 19 15 22 24
29 19 9 8 12 4 27 40 41 46 44 2 0 0 0 0
62 30 18 19 19 23 25 26 27 28 29 30 29 30 30 29
30 30 30 24 20 20 13 51 47 60 52 97 103 102 38 37
58 56 41 51 51 41 37 24 15 26 19 5 47 48 66 23
16 11 22 23 22 23 27 28 26 17 14 23 12 8 15 72
46 40 60 21 21 5 8 12 29 31 31 29 30 27 22 23
26 44 89 40 70 21 22 23 21 20 22 18 21 25 29 28
27 25 18 19 20 27 96 42 39 12 22 18 17 18 24 23
31 18 8 7 10 5 11 41 44 48 44 3 0 0 0 0
65 44 26 24 20 23 26 27 30 35 33 32 33 33 33 33
33 32 27 20 20 29 55 48 41 35 46 111 109 88 49 47
37 42 70 74 79 74 41 17 22 20 15 16 64 55 60 26
17 14 21 26 26 25 27 29 27 26 15 17 23 13 10 15
49 24 16 18 11 6 17 31 32 30 29 31 30 25 23 24
24 39 93 45 70 20 21 21 22 24 26 21 20 22 28 28
25 25 22 19 20 27 95 39 42 14 22 17 21 22 28 27
31 13 6 7 10 10 29 34 46 50 44 3 0 0 0 0
43 34 27 25 24 23 21 19 19 37 36 33 35 35 35 34
34 31 26 22 55 72 48 37 47 37 27 68 56 41 20 20
23 22 22 28 35 20 17 23 25 21 18 16 68 58 62 32
21 18 23 29 30 29 31 31 29 27 25 17 20 18 15 4
18 21 18 14 9 18 20 34 31 30 30 29 27 25 24 23
21 41 98 44 64 18 20 22 22 24 25 22 20 20 29 27
26 27 25 21 21 27 99 40 41 13 21 18 20 23 27 29
31 31 5 7 11 36 25 13 47 52 43 3 0 0 0 0
37 26 16 15 15 15 15 14 15 36 38 32 32 33 33 33
33 33 29 69 57 47 58 18 16 19 20 52 53 34 20 22
22 25 21 24 24 18 19 23 26 23 20 19 71 68 69 39
21 19 20 26 33 33 30 33 31 27 26 23 17 17 12 5
19 16 38 15 20 25 20 29 27 30 28 27 26 25 23 21
21 41 86 47 74 17 20 22 21 24 25 21 22 22 30 24
26 25 21 24 21 27 90 42 40 7 21 18 20 27 28 33
30 50 6 9 24 28 21 27 33 46 39 3 0 0 0 0
38 27 16 16 16 15 15 15 15 34 38 29 27 28 28 29
29 35 23 53 80 50 16 13 16 19 20 59 49 32 22 23
24 24 21 25 24 17 20 26 28 25 22 19 62 76 62 44
23 20 20 28 30 33 31 31 30 31 30 27 24 13 10 15
13 17 36 19 20 21 13 26 28 29 28 28 24 22 21 20
21 38 86 44 66 17 19 19 20 20 23 23 22 18 26 25
24 23 20 21 22 27 86 38 29 11 21 16 18 27 25 30
37 23 4 31 18 23 43 11 14 38 37 3 0 0 0 0
38 27 15 14 13 13 13 12 12 29 38 29 26 27 26 26
22 18 14 41 28 22 20 14 21 20 23 59 57 31 26 24
22 24 22 26 24 18 23 26 27 23 22 21 59 86 57 47
22 20 21 28 30 32 32 31 32 33 32 31 25 9 5 18
5 8 48 22 19 21 18 27 27 27 28 25 25 22 22 20
21 39 83 39 52 17 20 19 20 22 24 23 23 19 20 25
25 22 20 19 22 23 75 36 29 10 22 16 15 26 27 34
61 43 16 39 17 40 14 8 6 30 33 2 0 0 0 0
38 29 16 17 20 22 24 21 13 23 38 30 26 26 26 26
22 12 15 19 25 24 24 14 22 22 24 62 52 27 28 26
23 24 24 30 28 20 22 28 28 25 24 22 54 98 54 54
22 20 20 26 30 30 32 32 33 29 33 26 25 12 12 13
1 4 32 18 16 17 17 24 25 26 24 25 24 21 21 17
19 43 78 38 52 18 20 20 19 21 22 21 21 18 19 24
24 23 20 21 19 23 72 35 24 10 19 14 16 23 28 28
22 40 11 14 41 18 8 9 7 18 31 0 0 0 0 0
