P2
128 120
141
0 0 4 0 0 10 38 32 27 27 28 27 27 26 26 27
26 26 25 25 25 24 24 24 24 24 23 23 23 23 23 22
21 21 21 20 20 20 20 19 19 20 18 18 18 18 18 17
17 16 16 16 15 16 16 19 20 20 20 16 13 18 15 16
19 18 18 17 17 18 16 15 15 13 15 14 17 18 18 18
18 18 17 18 18 18 19 19 19 19 20 20 20 20 21 21
21 21 21 22 22 22 22 22 23 23 23 24 24 24 25 24
25 25 25 25 25 25 25 25 25 25 25 25 25 25 24 25
0 0 0 0 0 10 37 32 27 27 27 26 26 26 26 26
26 26 25 25 25 25 24 24 24 23 23 23 23 22 22 21
21 21 20 20 20 20 20 19 19 19 19 18 18 17 17 17
17 16 16 16 16 17 17 19 21 20 20 16 13 18 17 14
18 18 19 17 17 17 16 16 15 14 15 15 17 17 18 18
18 18 18 18 19 19 19 19 19 20 19 20 20 20 21 21
21 21 22 22 21 22 23 23 23 23 24 24 24 24 25 25
25 24 25 25 24 24 24 25 25 25 26 25 26 25 26 25
5 0 0 0 3 16 38 31 27 27 27 27 26 26 26 26
26 26 25 24 25 24 24 24 24 23 23 24 23 23 22 22
21 21 21 20 20 20 20 19 19 19 19 18 18 18 18 18
17 17 16 16 16 16 17 19 21 21 21 16 13 19 19 14
19 20 18 17 17 17 16 16 16 14 14 15 18 18 18 18
19 18 18 19 19 19 18 19 19 20 20 21 20 21 21 21
21 22 21 22 22 22 22 23 23 23 23 23 23 23 23 23
23 23 24 25 25 25 25 25 24 25 24 25 25 25 25 25
25 24 20 15 12 23 36 29 26 26 26 26 26 25 26 26
26 26 25 25 25 25 25 24 24 24 23 22 22 22 22 22
21 21 21 20 21 20 20 19 19 19 18 18 18 18 17 17
17 16 17 17 17 17 17 20 21 21 20 16 13 18 20 14
19 19 19 18 18 17 16 17 16 14 15 15 18 18 18 18
18 18 18 19 19 19 19 19 20 20 20 20 20 21 21 21
21 22 22 22 22 22 23 23 23 23 23 23 23 24 24 24
25 24 24 24 25 25 26 24 24 25 25 25 25 25 25 25
19 20 23 26 28 29 31 28 27 27 27 27 27 26 26 25
26 25 25 24 24 24 24 23 23 23 23 23 23 23 22 22
21 21 21 21 20 20 20 19 19 19 19 18 18 19 18 18
17 17 17 17 16 17 18 19 21 21 20 17 13 21 21 14
20 20 20 19 17 16 16 16 16 15 15 16 18 18 19 19
20 19 19 20 20 20 20 20 20 20 20 21 21 21 21 21
21 21 21 21 22 22 23 23 24 24 24 24 24 25 25 25
25 25 24 25 25 25 26 24 24 24 24 25 24 25 26 25
9 12 15 19 21 24 26 27 27 27 26 26 26 26 26 25
25 25 25 25 25 24 24 24 24 23 23 23 22 22 22 21
21 21 21 21 21 20 20 20 19 19 19 19 18 18 18 18
18 17 16 16 17 17 18 20 21 21 20 16 13 20 22 12
19 19 19 18 18 16 17 17 17 15 15 16 19 19 19 19
19 19 19 19 20 20 20 20 21 20 20 21 21 21 21 21
21 22 22 22 23 22 23 24 24 24 24 24 24 24 25 25
25 24 25 25 25 24 26 24 24 25 24 25 25 25 25 25
7 6 6 6 9 12 16 21 24 26 27 27 26 27 26 25
25 24 24 25 24 24 24 23 24 23 23 23 22 23 22 22
22 20 21 21 21 20 20 19 19 19 19 19 18 18 19 18
18 18 17 17 17 17 18 21 22 21 21 16 14 21 23 12
19 20 19 18 18 17 17 16 16 14 15 16 19 19 19 19
20 19 19 19 19 20 20 19 20 20 21 21 21 21 21 22
22 22 23 22 22 23 24 23 23 24 24 24 24 23 25 24
25 25 25 25 25 24 25 24 24 24 24 24 25 25 25 25
6 7 7 6 6 8 7 7 10 11 14 19 22 25 26 26
25 25 25 25 25 24 25 24 24 24 23 23 22 22 22 22
22 22 21 21 21 21 21 20 20 20 19 19 19 19 18 17
18 18 17 17 17 17 18 21 23 22 21 17 14 21 24 13
19 20 20 19 18 17 18 17 18 15 16 17 19 19 19 19
19 19 19 20 20 20 20 20 22 21 21 21 22 21 22 22
22 23 23 23 24 23 24 24 24 24 24 24 24 25 25 24
25 24 25 24 25 24 26 24 24 24 25 25 25 25 25 25
21 19 16 13 10 8 7 6 8 7 8 8 8 9 13 18
25 25 25 24 24 24 24 24 23 24 23 23 23 23 23 22
22 21 22 21 21 21 20 20 21 19 20 19 20 19 19 18
19 18 18 18 18 18 19 21 22 22 22 17 14 22 24 13
19 21 20 20 19 18 18 17 17 15 16 16 19 19 20 20
20 21 21 21 20 21 21 21 22 21 21 22 21 22 22 22
23 23 23 23 24 24 24 25 24 24 25 25 25 25 24 24
25 25 25 25 25 25 26 24 24 25 25 25 25 25 25 25
30 38 38 34 31 19 10 10 8 6 6 7 8 1 1 10
24 25 25 25 25 24 24 24 24 24 23 23 23 22 22 22
22 22 21 21 21 21 21 21 20 20 20 19 19 19 19 19
18 18 17 18 18 19 18 21 23 22 22 17 14 22 24 14
17 21 21 20 20 18 18 19 18 16 17 18 20 20 20 20
20 20 20 20 21 21 21 21 23 21 22 22 22 22 22 23
23 23 24 24 24 24 24 25 25 24 25 24 25 25 25 24
25 25 24 25 25 25 26 24 25 25 26 25 25 25 25 25
35 36 39 39 37 24 20 24 26 19 13 10 7 6 6 10
25 25 26 25 24 24 24 24 24 24 24 23 23 23 23 23
23 22 22 22 22 21 21 21 21 20 20 20 19 19 19 19
18 18 18 18 19 18 19 22 22 22 22 17 15 22 24 16
16 21 21 21 20 19 19 18 18 16 18 18 20 20 21 20
21 21 21 21 21 22 22 21 22 21 21 22 22 22 23 23
24 24 24 24 25 24 25 25 25 24 25 25 25 25 24 25
25 26 25 25 25 25 26 24 25 26 26 26 26 25 26 24
24 30 35 38 38 27 27 30 33 26 33 32 27 11 4 10
24 25 25 25 24 25 30 28 26 25 24 23 23 23 22 22
22 22 23 22 22 21 25 30 27 23 22 20 19 19 19 18
19 18 19 18 19 19 19 22 23 22 22 17 15 23 24 17
15 21 21 21 20 20 20 19 19 17 18 18 21 20 21 21
20 21 21 21 21 22 21 21 23 22 22 22 23 23 23 23
23 24 24 24 24 24 25 24 24 25 25 26 25 25 25 25
25 25 25 26 25 25 26 23 24 24 24 24 24 24 25 24
0 3 7 13 27 29 29 31 33 33 37 37 37 18 6 13
26 26 26 26 24 26 35 33 32 29 28 26 25 24 24 23
23 23 23 22 23 22 28 34 31 28 28 26 21 20 20 20
20 20 20 19 19 20 20 23 23 23 22 17 15 23 26 19
15 22 22 21 20 20 19 19 19 17 18 18 21 21 21 21
22 22 23 23 22 22 22 22 24 22 23 23 23 23 24 23
24 24 25 25 25 26 25 25 25 25 25 25 26 25 25 25
24 24 24 24 25 25 25 24 25 25 25 25 25 25 26 25
0 0 1 0 15 30 31 32 34 35 38 38 38 20 6 15
29 27 27 26 25 27 36 34 32 31 31 32 33 27 27 25
24 22 22 22 22 22 28 32 30 28 29 29 25 20 20 20
20 20 19 19 19 20 21 23 24 24 23 17 16 24 26 20
15 23 22 21 21 20 20 19 19 18 19 19 21 21 21 22
22 22 22 22 22 22 23 23 24 23 24 24 23 24 24 24
24 25 25 24 25 24 25 24 25 24 25 24 25 25 25 25
25 25 26 26 26 26 25 25 25 25 25 25 25 25 26 26
0 1 10 1 18 28 25 28 31 35 36 37 37 22 7 17
31 28 28 28 28 29 28 27 31 32 34 35 35 29 28 31
30 27 26 25 23 23 24 18 21 24 27 29 26 21 21 21
21 20 20 20 21 21 21 23 25 24 23 17 14 18 26 21
15 22 23 22 22 22 20 20 20 18 20 19 22 22 22 22
23 23 23 23 23 23 24 24 24 24 23 23 24 24 24 24
24 24 24 25 25 24 25 25 25 25 25 25 24 25 25 26
25 26 26 26 26 25 25 26 25 25 26 25 25 25 25 26
0 1 8 3 20 21 1 6 12 23 29 31 34 21 8 17
31 27 24 27 31 34 11 0 7 21 27 30 32 18 3 9
16 24 26 29 29 26 23 9 5 7 8 12 22 22 21 21
21 20 20 20 20 21 21 23 25 25 21 11 12 10 25 22
15 22 22 22 21 22 20 20 20 18 20 19 22 22 22 22
23 23 23 23 23 23 22 23 23 23 23 23 24 25 25 25
24 24 25 25 25 24 24 25 25 25 25 25 25 25 26 26
25 26 25 26 25 26 25 25 25 25 25 26 25 25 26 26
0 0 0 0 20 18 0 0 0 0 1 2 18 22 8 13
25 29 30 29 34 37 12 0 0 4 8 8 20 16 0 0
0 0 3 9 15 23 23 6 0 2 2 0 16 22 22 21
21 21 21 21 21 21 21 24 25 24 22 15 15 20 26 23
16 21 23 23 22 23 21 21 21 19 20 20 23 22 22 24
23 22 23 23 23 23 24 23 23 24 24 24 24 24 25 26
24 24 25 25 25 25 26 25 24 25 25 25 25 24 25 26
25 26 25 25 26 26 26 25 25 25 26 25 25 25 25 26
0 0 0 0 22 16 0 0 0 0 0 0 14 21 8 3
0 3 11 20 29 33 11 0 0 1 3 6 18 16 0 0
0 0 0 0 0 9 23 4 0 0 0 0 17 23 22 21
22 21 21 21 21 21 22 25 25 25 24 19 17 25 28 24
16 20 23 21 22 22 21 21 21 19 21 19 22 22 23 23
22 23 23 23 23 23 24 23 24 24 25 24 24 25 25 26
25 25 25 25 25 25 25 25 25 25 25 25 26 25 26 26
26 25 26 26 25 26 26 25 25 25 26 26 26 26 25 26
4 12 0 0 23 14 0 0 4 1 0 0 15 21 8 2
0 0 0 0 0 7 10 0 0 0 0 0 14 15 0 0
0 0 0 0 0 9 22 1 0 0 0 0 19 23 23 21
22 21 21 21 22 22 23 25 26 25 24 18 18 25 27 23
17 20 23 22 22 23 21 22 22 19 20 19 23 23 23 24
23 24 24 24 24 24 24 24 24 24 23 24 25 24 24 26
25 25 25 25 25 26 25 25 25 25 25 25 25 25 26 26
26 25 26 26 26 25 26 26 26 26 25 26 25 25 24 25
0 5 0 0 25 12 0 0 3 6 0 0 16 19 9 2
0 0 0 0 0 1 7 0 0 0 0 0 16 14 0 0
0 0 0 0 0 8 19 0 0 0 0 0 22 24 22 22
21 21 21 21 22 22 22 25 26 26 24 19 18 26 27 24
19 19 24 23 22 22 21 21 21 19 21 20 23 24 24 24
24 24 24 24 24 24 24 24 24 24 24 25 25 24 24 26
25 25 26 25 25 26 25 25 25 25 25 25 25 25 26 27
26 26 26 26 25 25 26 25 25 25 25 26 26 25 25 26
2 0 0 0 25 11 0 0 0 4 0 0 18 17 8 2
0 0 0 0 0 1 5 0 0 0 0 0 20 15 0 0
0 4 5 1 0 9 19 0 0 0 0 0 21 24 22 22
22 22 22 22 22 23 23 26 26 26 25 19 20 26 26 25
20 17 24 24 23 23 22 22 22 20 21 21 24 23 24 23
24 24 24 25 25 24 24 24 25 25 25 24 25 25 25 26
26 25 25 26 26 26 26 25 26 25 25 25 25 25 26 26
25 25 25 25 26 26 26 26 26 25 26 26 26 26 26 26
0 0 0 0 26 8 0 0 0 0 0 0 20 16 8 2
0 0 1 2 0 1 4 0 0 0 0 0 19 15 0 0
0 5 8 6 1 8 18 0 0 0 0 0 21 24 22 23
22 22 22 22 22 23 23 26 27 26 25 19 19 26 28 25
22 18 25 26 23 23 22 21 22 19 21 20 24 25 24 25
25 25 24 25 24 24 24 24 24 24 25 25 25 26 26 27
26 26 26 25 26 26 26 25 25 25 25 25 25 25 26 26
26 25 26 26 26 25 25 26 26 25 25 26 26 26 26 26
16 10 5 3 27 7 0 0 0 0 0 0 21 14 8 1
1 1 0 0 0 1 4 0 0 0 0 0 20 16 0 0
0 5 7 7 3 8 19 0 0 0 0 0 20 24 22 23
22 22 22 22 23 23 23 27 27 26 25 18 19 26 28 25
23 17 24 24 22 24 23 22 22 20 21 21 24 24 24 24
24 24 24 24 24 25 24 25 24 25 25 25 25 26 26 27
26 26 26 25 26 26 26 27 26 26 26 26 25 25 26 25
26 25 26 26 25 26 26 26 26 26 27 26 26 26 26 24
33 35 35 32 31 23 9 6 7 4 2 0 24 13 9 2
1 0 0 0 0 1 4 0 0 0 0 4 23 19 0 0
0 0 4 7 2 8 26 11 4 1 0 0 21 25 23 23
23 23 23 23 22 24 24 27 27 27 26 18 20 27 28 27
24 20 25 26 23 23 22 22 22 20 21 21 25 25 25 25
25 25 24 25 25 25 25 25 25 25 25 26 26 26 26 27
26 26 26 27 26 27 27 26 26 26 26 26 27 26 26 25
26 26 27 27 26 26 27 26 27 27 27 26 26 27 27 26
11 11 13 28 41 45 26 24 29 31 28 24 28 12 9 2
0 0 0 0 0 4 22 12 6 5 0 0 23 32 20 14
10 3 0 2 0 7 33 32 29 26 23 22 29 24 22 22
22 22 22 23 23 24 24 27 28 27 24 18 22 26 28 28
30 28 31 35 39 39 32 26 23 20 22 21 24 25 25 23
24 25 24 24 25 25 25 25 26 26 26 26 26 26 27 26
27 26 27 26 27 27 27 26 26 26 26 25 26 25 26 27
27 27 27 26 27 26 27 27 27 27 26 26 26 25 25 25
3 1 0 25 47 41 22 27 34 37 37 37 32 11 9 1
0 0 0 0 0 6 39 36 30 31 27 21 33 30 15 19
22 22 20 17 15 20 35 32 31 31 35 38 37 25 24 23
23 23 22 23 23 24 24 27 27 27 23 21 23 26 29 31
34 30 28 29 32 37 40 37 28 22 23 21 25 24 25 25
26 25 25 25 25 25 25 25 25 25 25 25 26 25 25 26
26 26 26 27 27 27 27 26 27 26 26 27 25 26 26 26
26 26 27 26 26 25 26 27 27 26 27 26 26 25 26 26
0 0 0 28 43 31 19 28 35 36 37 39 34 11 10 7
2 0 0 0 0 7 40 33 36 38 40 36 34 23 7 8
9 9 10 12 17 23 23 22 26 29 33 35 35 25 24 24
22 23 23 23 24 25 25 28 28 28 23 22 22 24 25 26
31 24 27 31 38 35 35 34 33 27 21 20 25 25 25 24
25 25 25 26 25 26 26 26 26 26 26 26 27 26 27 26
26 26 26 27 27 27 27 27 27 27 27 26 26 26 27 26
26 26 26 26 26 25 26 27 27 27 27 27 27 27 26 27
0 0 0 28 41 20 0 3 7 10 15 21 32 11 11 24
32 27 19 11 6 11 31 28 37 38 41 38 29 21 10 9
8 7 6 5 5 4 4 6 9 16 24 22 22 23 24 24
24 24 24 23 24 25 25 28 27 24 19 18 17 18 22 25
29 31 29 34 39 35 35 31 31 27 21 18 23 26 25 25
26 26 26 26 26 26 26 27 27 26 26 26 26 27 27 26
26 27 27 27 27 27 27 27 27 27 27 27 27 26 26 27
27 27 27 26 27 26 26 27 27 27 27 27 26 27 26 27
0 0 0 27 43 19 0 0 0 0 0 1 27 11 11 26
38 39 38 36 36 36 27 22 32 36 38 37 31 23 11 9
7 5 5 5 5 5 5 6 6 15 21 19 22 23 23 24
24 24 24 23 24 25 25 26 20 15 12 13 18 21 28 34
36 41 36 34 34 32 34 35 34 31 28 23 20 25 26 26
25 26 27 26 27 27 27 26 28 27 27 27 27 27 26 26
26 27 27 27 27 28 28 28 28 27 27 25 27 27 27 26
27 27 26 27 27 27 25 27 27 27 28 28 27 27 27 27
0 0 0 23 41 16 0 0 0 0 0 1 26 12 10 26
38 39 38 40 39 39 16 1 4 9 15 21 23 26 12 9
4 1 1 3 6 7 6 8 9 19 17 9 25 26 26 20
20 24 24 24 25 25 24 21 16 15 19 26 32 34 37 41
48 53 51 35 23 22 22 31 29 27 21 23 25 22 26 26
26 26 26 27 26 26 25 25 27 26 26 26 26 26 26 26
27 27 27 27 27 27 27 28 27 27 26 25 25 27 27 27
27 27 27 27 27 27 26 26 27 27 26 26 26 27 27 26
0 0 0 20 37 12 0 0 0 5 18 17 23 19 16 22
29 30 32 34 37 38 11 0 0 0 0 4 14 27 10 6
1 0 0 0 4 5 2 5 8 18 30 29 30 30 30 15
12 24 24 24 25 23 20 20 19 24 28 29 33 51 76 85
86 84 81 71 48 23 14 20 26 31 33 26 19 19 22 26
25 25 25 26 26 26 25 26 28 26 27 27 27 27 26 26
26 27 27 27 27 27 27 28 27 27 25 26 28 28 28 27
27 27 26 26 27 26 27 27 27 26 27 27 27 26 27 27
0 0 0 21 35 9 0 0 0 4 17 18 19 19 15 18
18 22 25 24 28 34 8 0 0 0 0 0 13 27 8 6
2 0 0 0 0 0 0 0 0 13 31 24 21 20 25 27
26 25 25 25 24 11 12 20 28 38 30 45 77 91 93 94
95 92 88 84 81 70 44 16 8 14 23 34 21 20 22 23
26 26 26 23 20 21 26 26 27 26 27 26 27 27 27 27
27 28 28 28 28 28 28 28 27 27 25 26 27 27 27 27
27 27 27 27 27 27 27 27 28 27 27 27 27 27 27 27
0 0 0 24 34 8 0 0 0 0 5 9 17 15 14 16
17 18 23 23 29 33 7 0 0 0 0 0 11 23 3 0
0 0 1 3 0 0 0 0 0 12 32 23 16 22 21 21
24 24 24 24 19 6 11 27 38 30 57 86 95 94 93 95
96 95 91 84 82 82 78 61 23 1 4 17 29 13 19 23
24 25 26 23 12 14 26 26 28 27 27 27 27 27 26 27
27 26 27 27 27 27 27 28 28 28 27 27 28 28 28 27
28 27 27 27 27 27 27 27 27 27 27 28 28 27 27 27
0 0 0 27 35 7 0 0 0 0 0 0 13 9 13 10
8 13 20 24 30 32 6 0 0 0 0 0 14 20 0 0
0 0 0 5 4 0 0 0 0 11 31 22 10 23 20 20
23 24 24 24 12 6 16 29 22 58 81 89 91 93 94 96
99 100 101 97 90 82 79 79 65 27 0 6 19 22 11 21
25 25 25 26 22 23 25 25 26 25 26 27 27 27 27 26
27 27 27 27 28 27 27 28 27 28 27 26 27 26 27 26
27 26 27 27 26 27 25 26 26 26 26 26 25 26 25 26
0 0 0 30 34 5 0 0 0 0 0 0 18 14 16 5
0 0 0 2 5 13 5 0 0 0 0 0 16 18 0 0
0 0 0 5 8 4 0 0 0 11 32 23 8 13 12 17
22 23 23 19 6 9 22 16 53 77 83 86 93 100 104 105
109 109 109 107 101 91 84 76 72 59 27 2 18 23 18 20
24 26 25 26 26 25 26 25 26 26 26 27 27 27 27 26
26 26 27 27 27 26 27 28 27 26 26 26 27 27 26 26
26 26 26 26 26 26 26 26 26 26 26 26 26 25 26 26
14 8 6 31 33 5 0 0 1 0 0 0 24 19 17 5
0 0 0 0 0 4 4 0 0 0 0 0 17 14 0 0
0 0 8 11 10 8 0 0 0 12 32 25 16 15 13 17
22 24 25 21 13 21 17 41 70 75 78 87 98 104 107 117
120 117 113 92 82 91 101 77 61 64 73 84 66 34 24 18
27 30 26 27 27 27 26 26 26 25 26 27 26 27 26 27
26 27 27 27 27 27 27 27 27 27 24 24 27 27 28 27
26 26 26 26 26 26 26 26 26 26 25 25 25 25 25 26
24 22 20 24 25 10 0 0 3 2 0 0 26 20 17 5
0 0 0 0 0 4 4 0 1 7 1 0 18 11 0 0
0 0 5 12 7 1 0 0 0 12 33 26 18 7 1 13
22 24 24 21 18 52 89 94 68 77 91 81 76 82 94 120
123 119 109 73 97 94 60 60 68 43 26 38 65 98 39 15
27 33 26 25 26 26 26 25 26 26 27 27 27 28 27 27
27 27 27 28 27 27 27 27 27 27 24 22 27 27 28 27
27 26 27 27 27 26 26 26 26 26 26 26 26 26 26 26
0 5 2 17 24 23 24 15 15 16 11 7 28 16 15 4
0 1 7 0 0 4 3 0 7 10 3 0 19 10 0 0
0 0 0 6 3 0 0 0 0 9 32 27 14 4 1 10
22 24 23 19 89 110 62 38 67 61 39 40 55 74 72 79
64 59 60 65 81 74 53 31 30 48 47 30 37 48 51 6
21 38 27 26 27 27 27 27 27 27 27 27 27 27 27 28
28 27 27 28 28 28 28 28 28 28 24 22 28 28 28 28
27 27 27 27 27 27 27 26 26 26 26 26 26 25 25 26
0 8 3 19 24 19 13 14 22 29 31 32 33 19 14 4
0 5 13 1 0 6 15 8 15 13 10 2 21 8 0 0
0 0 0 7 4 0 0 0 0 8 33 22 6 1 0 10
21 24 15 44 106 72 33 50 37 34 50 69 78 94 80 59
82 75 57 68 93 101 98 87 80 52 33 45 34 35 42 14
14 31 28 26 26 26 26 26 26 27 27 27 27 27 28 28
27 27 28 28 27 27 28 28 28 27 26 25 28 27 28 27
26 26 27 26 26 26 26 26 26 25 25 26 26 25 25 26
4 1 4 23 25 14 0 0 1 4 14 34 33 20 14 4
0 1 3 0 0 7 32 31 34 32 31 29 34 9 0 0
0 0 0 7 5 0 0 0 0 6 33 19 3 2 0 15
20 23 6 52 62 34 28 50 79 100 104 106 98 96 75 49
71 78 65 57 98 101 110 114 114 107 80 42 30 25 40 21
9 27 28 27 26 26 26 26 26 26 26 27 27 27 27 28
27 28 27 28 27 28 28 27 28 28 27 27 28 27 27 26
27 26 27 26 27 27 26 26 26 26 26 26 26 25 25 25
15 3 1 25 26 11 0 0 13 10 14 33 30 17 15 10
1 0 0 0 0 7 33 33 35 34 37 41 41 20 9 10
3 1 1 10 6 0 0 0 0 3 30 15 1 0 0 12
20 22 10 49 39 22 49 97 110 114 114 107 81 81 49 52
87 96 79 45 76 78 100 109 112 111 106 93 37 28 39 20
12 23 28 26 26 26 26 26 27 26 26 26 26 27 28 28
27 27 28 28 27 27 27 27 27 28 27 27 28 27 28 27
27 26 26 26 26 26 26 26 26 25 25 26 25 25 26 26
6 0 1 28 29 11 0 0 9 21 23 33 24 15 17 16
2 0 0 0 0 7 30 31 32 32 36 40 41 31 27 26
23 21 21 21 17 13 9 8 6 9 27 18 6 5 4 4
19 21 13 46 22 37 94 99 104 104 95 81 72 74 27 71
116 122 100 49 43 59 66 78 89 102 100 103 53 37 42 30
13 24 29 27 27 26 27 26 27 27 27 27 27 27 28 27
27 27 28 28 28 28 28 28 28 28 28 28 28 27 27 28
27 27 27 26 26 27 26 26 26 26 26 26 26 25 25 25
7 0 2 30 30 11 0 0 0 6 24 35 22 16 19 11
0 0 0 0 0 9 30 27 30 30 30 26 26 29 29 30
28 27 28 27 26 23 21 18 16 18 29 26 20 17 12 9
17 16 24 46 40 73 102 85 67 45 35 41 63 42 45 83
118 125 104 75 38 52 35 31 45 53 78 98 77 50 47 36
20 26 32 27 27 26 27 26 26 27 27 27 27 27 28 28
28 28 28 28 28 28 28 28 27 28 28 28 28 27 28 28
26 27 27 26 27 27 26 26 26 26 26 26 26 26 25 26
0 0 3 32 32 11 0 0 0 0 21 35 21 16 17 17
12 9 6 3 1 12 33 27 27 27 26 26 27 30 31 32
33 32 29 29 28 29 33 30 26 25 31 35 33 32 30 27
22 17 35 49 48 90 90 56 23 25 36 65 46 55 77 79
92 115 82 94 61 29 50 63 59 41 45 77 64 55 50 41
16 27 36 27 27 27 27 27 28 27 27 27 27 27 27 27
28 27 28 28 28 28 28 28 29 28 27 27 27 27 28 28
27 27 27 27 27 27 27 27 27 26 27 27 26 26 26 26
0 0 2 32 31 8 0 0 0 0 19 36 21 17 17 30
37 36 33 34 33 34 36 29 29 29 29 31 34 35 32 35
38 39 29 26 27 32 38 36 33 31 30 26 23 24 25 26
23 20 43 51 64 61 65 40 57 67 57 42 46 74 99 30
47 101 31 58 96 48 36 33 46 51 38 44 80 87 49 51
18 22 40 32 26 27 27 27 28 27 27 28 28 28 28 29
29 29 29 29 28 29 28 28 28 28 28 27 28 28 28 28
28 28 28 27 27 27 27 27 27 26 26 26 26 26 25 25
0 0 3 33 31 6 0 0 0 0 21 37 20 16 18 32
44 44 44 43 44 44 39 30 28 29 28 33 37 37 33 34
39 38 29 25 23 30 38 36 34 33 32 27 20 17 16 16
19 18 52 51 86 75 25 48 63 66 52 53 68 98 82 9
53 99 48 17 102 80 58 57 81 95 71 35 73 88 60 54
25 15 35 39 26 27 27 27 27 28 27 27 27 28 28 28
28 28 28 28 28 28 28 28 28 28 27 27 26 26 26 28
27 27 27 26 26 27 27 27 27 27 27 27 26 26 26 25
0 0 2 32 31 5 0 0 0 0 20 35 18 17 18 24
31 32 34 37 38 41 36 10 11 8 10 15 25 38 33 29
23 25 26 23 22 25 23 19 21 27 28 29 27 24 22 22
17 22 58 58 86 73 58 98 98 79 71 78 85 107 71 28
89 103 81 22 92 98 83 79 82 93 99 90 82 90 72 54
34 19 28 39 25 26 27 27 27 27 27 26 27 27 27 27
27 27 28 28 28 28 28 28 27 28 27 27 27 27 28 28
28 28 27 27 26 27 26 26 27 26 26 26 26 26 26 25
0 0 3 33 32 5 0 0 0 0 18 33 17 16 17 20
22 21 21 21 21 22 23 1 0 0 0 0 5 34 30 11
1 2 5 8 20 26 10 0 0 2 8 19 27 24 26 23
18 27 58 67 90 82 91 90 91 101 104 102 82 101 99 81
104 109 102 82 109 93 90 102 104 99 95 97 91 84 80 59
39 17 29 33 29 25 28 28 28 27 27 27 27 27 28 27
27 27 28 29 28 28 28 28 28 28 28 28 27 28 28 28
27 27 27 27 26 27 26 27 26 26 26 25 26 26 26 25
15 16 21 33 30 5 0 0 0 0 22 37 18 15 17 25
29 29 28 27 26 25 22 4 0 0 0 0 11 34 23 1
0 0 0 3 23 27 9 0 0 0 5 18 15 11 16 20
20 31 59 78 86 86 91 96 103 109 114 116 93 87 95 94
94 108 94 82 86 81 102 117 112 109 102 97 94 86 81 69
43 17 30 29 25 25 27 28 27 27 27 27 27 27 28 28
28 28 28 28 28 28 27 28 28 27 28 27 27 28 27 27
27 27 27 27 27 28 27 27 26 27 26 26 27 26 26 26
34 34 34 28 20 8 5 2 1 0 24 36 15 14 17 26
31 31 31 31 31 32 24 2 0 0 0 0 12 33 13 0
0 0 0 1 25 27 9 0 0 0 3 16 7 0 6 21
18 34 62 77 80 91 95 100 110 116 118 118 101 80 72 76
88 97 84 73 62 78 107 118 118 112 108 98 93 88 78 70
49 19 34 32 24 23 26 28 27 27 27 27 27 27 27 27
27 27 27 27 27 27 28 28 28 28 28 28 27 27 27 27
27 26 27 27 25 26 26 27 26 27 27 26 26 26 26 26
33 32 32 30 27 29 29 25 24 21 29 30 20 19 20 20
22 24 26 27 30 32 25 1 0 0 0 3 5 31 9 0
0 0 0 1 25 25 8 0 0 0 2 17 7 2 12 26
17 36 65 75 83 90 93 103 114 117 119 110 82 69 84 101
105 105 110 98 76 62 85 114 119 115 110 101 92 88 80 69
52 15 30 33 27 22 24 26 26 25 25 25 25 26 27 27
27 25 24 24 24 23 24 26 27 28 28 27 28 27 27 26
27 27 27 26 27 26 26 27 26 26 25 25 26 25 26 25
27 28 28 28 28 28 28 28 28 28 28 28 28 27 27 25
23 22 23 23 23 31 31 5 0 0 0 2 3 29 7 0
0 0 0 1 26 25 7 0 0 0 0 16 8 1 11 25
16 34 67 75 85 88 95 109 115 119 111 86 66 87 106 104
100 100 102 107 106 82 67 91 114 117 113 105 97 88 84 71
55 13 27 30 32 21 19 13 12 10 10 10 13 21 27 27
26 18 7 7 6 6 7 16 28 28 27 27 28 27 27 27
27 27 27 26 26 26 27 27 26 26 26 26 26 26 25 25
27 27 27 27 27 27 27 27 27 27 27 27 27 27 28 28
27 28 28 28 28 31 32 8 0 0 1 3 2 29 6 0
0 0 0 1 26 24 7 0 0 0 0 15 10 2 13 25
17 33 68 76 85 89 99 110 115 117 95 72 89 101 89 93
99 101 99 95 95 104 85 72 99 114 111 106 99 90 83 73
57 12 24 20 31 23 19 7 5 1 1 0 0 15 27 26
27 17 3 3 3 4 4 15 28 27 28 27 27 26 26 27
26 26 27 26 26 27 27 28 27 25 26 25 26 26 27 25
21 21 22 22 23 23 24 25 25 25 25 25 25 26 26 27
27 27 27 28 28 30 30 1 0 0 0 0 3 30 5 0
0 0 0 0 25 25 9 0 0 0 0 16 12 1 12 25
17 37 68 75 85 91 103 112 115 108 77 84 98 84 102 112
114 117 111 110 103 87 100 86 79 105 108 106 100 94 83 76
61 18 17 17 26 27 27 12 5 1 2 1 1 13 26 26
26 15 3 3 4 4 3 15 28 28 28 28 28 28 27 27
26 26 26 26 26 25 25 27 26 27 26 26 27 27 27 27
0 0 0 1 1 1 1 2 2 3 4 5 6 6 7 8
10 11 14 21 26 29 26 0 0 0 0 0 2 30 6 0
0 0 0 0 25 24 6 0 0 0 0 14 16 3 13 22
13 41 66 75 85 94 106 110 109 90 77 95 85 103 112 107
97 93 100 107 111 104 86 99 87 87 102 100 98 94 83 75
66 21 8 14 20 29 31 23 7 2 2 1 0 13 26 27
27 14 3 4 5 3 4 14 29 28 29 29 27 28 27 27
27 27 27 27 28 27 26 27 26 27 26 26 26 27 27 26
0 0 0 0 0 0 0 0 0 0 0 0 0 0 0 0
0 0 1 20 26 28 26 3 1 0 1 6 4 29 12 2
1 3 1 2 25 26 13 5 5 4 5 18 19 6 9 15
8 43 65 75 82 94 104 105 99 85 100 85 98 104 111 104
95 87 98 109 108 111 100 82 104 89 97 97 93 89 81 75
66 31 8 9 16 26 25 28 11 5 3 4 2 14 27 27
27 16 4 4 4 3 4 12 28 28 28 28 27 28 27 27
26 26 26 26 26 25 26 26 27 27 26 26 26 26 27 26
0 0 0 0 0 0 0 0 0 0 0 0 0 0 0 0
0 0 1 23 27 28 33 31 26 23 25 28 24 29 34 32
30 30 29 29 36 29 27 30 30 31 32 35 25 10 6 11
6 42 64 69 76 91 99 96 91 99 95 89 100 109 113 106
97 92 98 112 115 113 104 93 82 104 94 94 88 83 79 74
65 32 4 4 14 22 22 32 15 6 4 4 1 14 26 27
27 19 10 9 9 10 9 13 25 27 27 26 26 26 26 25
25 27 27 27 26 27 28 26 27 27 27 27 26 26 26 26
0 0 0 0 0 0 0 0 0 0 0 0 0 0 0 0
0 0 0 23 27 27 36 39 34 35 36 32 28 26 37 43
40 40 41 43 43 32 26 33 35 38 42 42 31 10 5 10
7 43 63 65 74 85 93 92 95 92 83 99 105 107 99 90
80 74 76 86 103 113 112 104 90 90 100 90 85 79 74 73
63 32 7 0 9 18 23 27 20 9 6 3 1 14 26 28
27 17 6 6 6 5 7 12 26 28 28 28 27 27 27 27
27 26 27 26 26 26 26 26 25 25 25 26 26 25 26 27
0 0 0 0 0 0 0 0 0 0 0 0 0 0 0 0
0 0 0 23 29 27 35 33 29 32 35 34 27 22 27 33
33 33 34 35 36 32 22 27 30 34 35 32 25 7 4 5
6 39 64 62 70 81 86 92 93 88 95 102 102 97 94 97
92 91 92 90 89 99 107 108 104 96 102 96 85 76 71 71
63 39 9 0 6 16 22 27 22 11 8 4 1 14 26 28
27 17 4 4 5 5 5 12 27 28 28 28 27 28 27 27
27 26 27 27 26 27 27 26 26 26 26 26 26 25 25 25
0 0 0 0 0 0 0 0 0 0 0 0 0 0 0 0
0 0 0 22 28 26 32 22 24 25 29 32 27 24 21 18
18 18 19 19 21 24 22 25 27 27 24 19 13 6 2 1
3 34 62 60 65 76 82 92 83 86 95 96 93 93 94 99
97 94 96 99 92 94 98 100 101 99 97 97 88 77 69 70
64 51 27 11 12 14 19 19 20 11 6 4 2 16 26 28
27 17 4 5 4 4 4 12 28 28 28 28 27 27 27 28
27 27 27 27 26 26 26 26 26 25 25 25 25 26 26 26
0 0 0 0 0 0 0 0 0 0 0 0 0 0 0 0
0 0 0 20 28 25 31 9 5 7 10 13 14 20 23 22
22 25 28 26 25 28 30 32 33 32 26 19 14 8 3 0
1 29 61 60 64 74 82 88 79 83 87 89 89 92 97 103
96 95 101 104 100 99 93 88 86 88 89 94 91 79 67 68
64 60 74 67 55 45 18 21 25 17 11 7 4 15 26 28
27 16 4 4 4 4 4 12 28 29 28 28 27 27 27 27
27 27 27 27 27 26 27 26 26 26 26 25 26 26 25 26
0 0 0 0 0 0 0 0 0 0 0 0 0 0 0 0
0 0 0 18 28 24 31 6 0 0 0 0 4 21 25 31
32 35 41 32 21 23 25 29 34 37 29 23 15 11 7 1
4 33 59 62 63 76 83 85 77 70 77 81 84 85 93 105
92 89 96 96 93 88 79 71 75 76 79 92 93 82 68 66
64 65 84 87 81 66 34 16 26 20 16 12 8 17 26 28
27 16 4 4 4 4 4 12 28 28 27 27 27 27 27 27
27 27 27 26 27 26 27 26 26 25 25 25 26 25 25 26
0 0 0 0 0 0 0 0 0 0 0 0 0 0 0 0
0 0 0 17 28 24 33 8 0 0 0 0 1 25 24 31
30 25 35 22 1 2 3 4 15 35 30 25 17 11 8 27
45 55 57 62 63 77 84 81 76 64 66 63 68 76 89 86
80 88 90 88 86 75 59 64 75 72 80 89 90 83 69 68
62 73 82 96 93 71 50 11 20 19 16 14 8 16 25 27
27 15 3 4 4 4 5 14 28 28 28 27 27 27 27 27
27 27 26 26 26 26 26 25 26 26 25 25 25 25 24 25
0 0 0 0 0 0 0 0 0 0 0 0 0 0 0 0
0 0 0 15 28 24 28 8 0 0 0 0 1 25 22 30
20 1 12 19 0 0 0 0 7 33 30 26 19 15 40 59
74 65 54 60 63 76 82 80 78 63 61 60 65 82 77 72
72 79 79 82 81 66 47 57 64 62 83 89 91 85 72 69
63 85 81 80 80 61 60 11 16 16 11 11 4 15 25 27
27 16 4 4 5 5 4 13 28 28 27 27 27 27 27 27
26 27 27 26 26 26 25 25 25 26 25 25 25 26 25 25
0 0 0 0 0 0 0 0 0 0 0 0 0 0 0 0
0 0 0 14 28 24 14 0 0 0 0 0 2 27 22 31
20 0 11 19 0 0 0 0 5 32 31 25 20 19 53 69
76 67 54 61 65 76 84 82 79 57 50 55 55 69 79 78
69 69 69 71 62 46 45 55 57 63 83 86 88 85 73 68
64 95 78 92 89 63 56 15 13 16 9 11 6 16 26 27
27 17 5 5 4 4 4 14 28 28 28 28 27 27 27 26
26 26 26 27 26 26 26 26 25 25 25 25 25 25 25 26
0 0 0 0 0 0 0 0 0 0 0 0 0 0 0 0
0 0 0 13 27 23 11 0 0 0 0 0 3 28 22 31
19 0 10 21 0 0 0 0 3 29 30 27 22 26 68 74
78 69 56 61 65 77 84 84 81 69 45 45 44 48 58 60
57 54 49 56 48 37 41 49 45 66 81 89 89 86 76 67
67 99 93 87 87 75 59 18 12 18 11 13 8 18 26 29
27 24 19 20 13 14 15 19 27 28 27 28 27 27 28 26
27 27 27 27 26 26 26 26 25 25 25 25 25 26 25 26
0 0 0 0 0 0 0 0 0 0 0 0 0 0 0 0
0 0 0 14 28 24 10 0 0 0 0 0 2 28 22 32
18 0 10 20 0 0 0 0 2 29 30 26 24 37 55 72
80 75 66 61 67 76 85 85 84 72 54 37 37 38 39 41
38 35 39 42 41 42 44 43 49 74 85 88 86 84 76 66
73 95 84 75 72 67 61 15 13 18 13 10 12 18 25 27
27 27 27 28 26 27 27 26 28 28 28 28 27 27 27 26
26 26 26 26 26 26 25 25 26 25 25 26 25 25 25 25
0 0 0 0 0 0 0 0 0 0 0 0 0 0 0 0
0 0 0 13 28 24 10 0 0 0 1 1 1 28 24 33
20 2 10 21 3 0 0 0 2 29 31 26 25 47 52 89
87 74 77 59 68 77 86 86 85 82 72 45 39 44 54 55
59 55 53 54 59 64 61 60 72 84 87 88 87 86 73 64
58 86 85 78 71 62 48 8 19 21 15 13 12 18 28 28
29 28 29 29 29 29 28 28 28 28 28 28 28 28 27 28
27 27 27 27 27 27 27 26 26 26 25 25 25 25 25 26
0 0 0 0 0 0 0 0 0 0 0 0 0 0 0 0
0 0 0 14 28 24 10 3 3 0 4 11 3 28 25 34
24 9 9 21 4 4 4 1 3 28 30 25 27 48 62 90
84 83 84 60 72 79 88 86 85 84 80 75 75 75 82 89
90 91 84 86 86 81 77 77 82 85 89 89 87 82 72 61
29 38 54 32 28 34 16 10 20 30 20 14 17 20 27 27
28 28 27 28 27 27 28 28 27 28 28 28 27 27 27 27
27 27 27 26 26 25 26 26 26 25 25 25 26 26 25 25
0 0 0 0 0 0 0 0 0 0 0 0 0 0 0 0
0 0 0 13 27 23 15 11 13 8 13 20 15 31 29 36
21 17 11 19 2 8 6 0 2 26 29 25 27 46 69 73
70 80 89 63 73 80 86 88 89 85 81 82 83 91 93 96
97 97 98 96 92 87 81 75 77 84 88 90 88 82 72 63
69 40 3 1 9 11 15 16 22 34 29 18 20 24 28 28
28 29 28 28 28 27 28 28 27 27 28 27 27 27 27 27
27 27 27 27 27 26 26 26 25 26 26 25 25 26 26 25
0 0 0 0 0 0 0 0 0 0 0 0 0 0 0 0
0 0 0 13 28 24 29 37 40 39 40 40 40 43 33 34
16 18 14 22 13 14 12 9 10 23 26 25 25 33 64 65
70 77 70 49 71 83 89 92 90 87 86 87 84 91 95 98
101 97 100 100 96 90 88 87 85 85 88 90 90 81 71 66
82 54 3 2 10 15 18 19 20 34 33 22 23 25 27 27
28 28 28 28 27 27 28 28 28 27 28 27 27 27 27 27
27 26 26 26 26 26 26 26 25 25 25 26 26 26 27 26
0 0 0 0 0 0 0 0 0 0 0 0 0 0 0 0
0 0 0 13 28 23 33 45 46 46 46 46 46 47 39 35
11 9 14 25 20 21 20 19 19 19 23 24 25 23 48 54
37 24 16 34 68 84 90 92 93 94 90 92 91 92 94 101
103 104 103 102 99 93 92 93 94 89 91 88 87 81 70 72
81 44 1 2 10 16 17 15 19 33 36 27 23 26 27 28
28 28 27 28 26 27 28 28 27 27 28 27 26 27 27 27
28 27 27 27 27 26 26 26 25 25 26 25 26 26 26 26
0 0 0 0 0 0 0 0 0 0 0 0 0 0 0 0
0 0 0 14 28 23 26 32 32 32 32 32 33 32 30 32
9 2 9 26 22 23 23 23 23 23 24 24 24 22 16 14
12 4 24 71 71 86 96 94 95 99 99 95 94 94 98 103
105 105 104 100 101 97 95 95 99 96 89 85 86 83 67 81
81 37 1 1 11 15 16 14 18 28 36 29 24 26 27 28
28 28 28 28 26 26 28 28 27 28 27 27 27 27 27 28
27 27 26 26 26 25 25 26 25 25 25 25 27 30 32 31
0 0 0 0 0 0 0 0 0 0 0 0 0 0 0 0
0 0 0 14 28 23 19 15 15 14 15 16 15 15 18 32
11 2 8 27 25 25 25 26 25 25 25 25 25 21 15 17
12 6 30 77 80 76 92 95 96 101 102 100 99 96 102 108
108 107 107 106 103 101 98 99 99 96 88 83 85 76 69 84
81 32 3 1 13 15 14 14 16 27 33 32 23 26 27 27
28 28 28 28 26 26 28 28 27 27 27 26 26 27 26 27
27 27 27 26 26 26 26 26 29 31 30 28 29 38 39 39
0 0 0 0 0 0 0 0 0 0 0 0 0 0 0 0
0 0 0 15 27 22 20 18 17 17 17 16 17 15 18 32
12 3 9 26 24 25 25 25 25 26 25 25 24 21 16 14
8 6 19 72 84 70 78 91 96 100 102 103 102 101 106 110
108 109 107 107 105 102 102 102 102 99 92 83 75 67 77 84
78 29 7 3 11 11 13 12 18 27 30 33 25 26 26 27
27 27 27 27 26 24 26 28 27 27 26 26 27 26 27 27
26 26 26 25 25 25 26 25 37 46 45 45 45 45 44 43
0 0 0 0 0 0 0 0 0 0 0 0 0 0 0 0
0 0 0 17 27 22 21 21 21 20 19 18 18 16 21 34
25 28 31 30 24 25 26 25 26 25 24 23 23 19 15 11
5 6 13 62 84 77 71 83 94 99 104 104 104 105 108 111
111 113 110 110 109 104 103 101 100 97 90 82 77 78 80 83
75 25 6 6 11 13 14 11 19 30 29 31 16 22 26 27
27 27 27 27 25 23 27 28 27 26 26 26 26 26 26 26
26 26 26 26 26 26 25 25 39 48 47 46 46 46 46 47
2 2 2 3 4 4 4 5 7 7 8 9 9 9 9 10
11 11 12 23 26 22 22 21 22 22 22 21 20 17 20 30
28 34 35 29 23 25 25 24 25 25 24 24 24 18 13 6
3 3 8 56 83 81 79 78 90 98 102 104 105 108 109 112
113 113 113 113 111 108 106 102 101 99 94 86 85 83 81 82
72 19 5 6 10 13 14 13 23 32 28 32 11 11 25 25
25 26 26 26 25 21 27 28 27 26 26 26 26 26 26 27
26 26 26 26 25 25 25 25 42 47 47 47 47 47 47 46
13 13 14 17 18 19 19 19 20 21 21 22 22 22 22 22
22 22 22 22 22 22 22 22 22 21 21 21 20 17 18 22
20 20 23 23 23 25 25 25 25 25 24 24 22 18 14 4
2 2 6 51 82 85 85 83 88 94 100 103 105 109 113 115
116 116 116 117 114 109 106 102 101 101 96 92 89 86 82 82
70 13 6 5 13 14 15 14 29 34 25 30 8 0 8 10
7 9 16 26 25 20 26 27 27 27 26 26 27 27 26 26
27 27 27 26 26 26 25 26 43 47 47 46 47 46 46 45
12 11 12 16 18 19 19 20 20 21 21 21 22 22 22 22
22 22 22 21 22 22 22 23 22 21 21 21 20 18 19 21
20 19 22 22 23 24 24 25 25 25 25 25 22 21 16 4
4 3 3 47 84 89 86 88 91 94 99 104 106 111 114 113
113 116 120 119 116 110 104 101 104 105 101 97 95 89 84 82
69 12 4 7 14 12 17 20 32 34 25 28 6 0 0 0
0 0 1 20 20 10 21 28 27 28 27 27 27 27 27 27
27 27 27 27 26 25 26 26 44 46 46 47 46 46 46 46
12 11 14 16 17 18 19 19 19 21 21 21 21 21 21 20
20 20 20 20 20 20 22 23 22 22 21 21 20 19 20 21
22 21 22 23 23 25 24 24 25 25 25 26 31 29 21 12
12 5 4 46 87 91 87 88 93 95 99 101 106 110 117 119
120 120 123 123 118 112 106 103 106 106 103 102 97 90 86 82
67 11 3 10 13 16 23 23 34 36 25 26 3 0 0 0
0 0 0 15 15 8 19 27 27 26 26 26 26 26 26 26
25 25 25 25 24 24 24 25 45 46 46 46 46 46 45 46
4 4 6 6 7 10 11 11 12 12 12 10 8 6 5 5
9 16 17 19 19 21 22 23 23 22 22 22 21 19 20 22
22 21 22 22 23 24 24 23 24 24 28 32 36 32 23 22
17 11 6 42 89 96 88 87 95 98 100 102 104 110 117 121
127 126 125 122 119 114 107 106 109 106 104 103 100 92 87 84
64 10 3 11 15 20 27 28 35 38 30 23 2 0 0 0
0 0 7 15 13 13 23 25 25 26 26 26 25 25 26 25
25 24 24 24 23 23 22 26 46 46 45 45 46 45 45 45
0 0 0 0 0 3 10 12 13 14 15 12 11 9 1 0
5 18 20 21 22 22 22 22 23 22 22 22 21 21 21 22
22 22 23 22 23 24 24 24 24 26 29 36 34 25 21 19
20 19 12 38 90 101 92 88 94 98 99 100 103 111 119 123
127 128 128 125 122 115 107 107 109 107 105 103 100 92 89 85
65 12 2 9 15 23 29 31 34 34 28 24 5 3 1 0
0 0 1 2 3 12 25 26 26 26 25 26 26 26 26 25
24 24 23 23 23 23 21 27 46 46 46 45 45 45 45 45
0 0 0 0 0 15 33 33 34 34 34 32 33 32 14 3
9 18 20 20 21 22 22 22 22 23 22 22 22 21 21 22
22 22 22 22 22 23 23 24 26 27 31 33 29 19 20 16
17 21 17 33 86 100 96 89 94 99 98 99 103 111 122 127
125 128 128 125 122 116 107 106 107 108 105 103 100 93 91 84
62 8 2 7 12 25 29 31 31 28 27 21 12 9 1 0
0 0 0 0 0 7 20 22 25 25 25 26 25 25 25 25
25 24 24 24 23 22 20 31 45 46 46 45 46 45 46 45
0 0 0 3 5 18 36 35 36 35 33 33 40 43 28 11
13 15 18 20 21 22 22 22 23 23 23 22 23 23 22 22
22 23 23 22 22 24 24 24 25 27 31 27 21 16 18 12
15 18 13 26 84 100 96 91 88 99 99 97 102 112 124 127
128 129 128 126 119 114 108 106 106 105 104 103 103 96 92 83
61 7 5 6 12 32 31 32 28 25 30 11 10 6 1 0
0 0 0 0 0 6 17 18 25 25 25 25 25 25 25 24
24 23 23 22 22 22 20 33 46 46 45 45 45 45 45 45
0 0 9 16 16 19 37 41 42 41 42 41 44 44 35 18
16 14 16 18 20 21 24 23 24 24 25 24 24 24 23 22
23 22 22 22 22 23 23 24 25 29 30 25 15 18 16 11
12 10 9 18 82 98 97 95 96 99 100 97 101 111 123 129
129 128 127 124 119 111 107 103 104 107 105 103 103 100 92 85
60 4 8 6 9 29 33 31 27 28 28 5 6 0 0 0
0 0 0 0 0 3 15 17 23 25 24 25 25 24 25 24
24 23 20 17 17 17 16 35 45 45 45 45 45 45 44 44
5 8 13 17 17 18 27 31 30 30 29 28 28 27 23 16
15 15 15 14 15 15 25 23 23 24 24 24 24 24 23 22
22 22 22 22 22 22 23 23 24 29 25 21 13 16 13 10
10 9 6 14 81 97 97 100 99 98 101 96 99 107 119 126
128 129 127 123 118 111 106 104 106 106 105 103 105 102 93 82
59 4 10 5 9 19 33 30 30 30 14 2 0 0 0 0
0 0 0 0 0 1 14 16 22 24 24 23 24 23 24 23
22 17 2 0 0 0 1 22 33 33 35 36 37 38 38 38
11 12 13 14 15 16 17 17 18 20 22 23 23 23 19 9
9 8 9 9 9 10 24 23 22 23 23 24 24 24 23 23
22 22 23 22 22 21 23 23 24 30 23 18 13 15 10 6
8 7 1 14 78 94 99 104 101 99 100 99 102 107 116 125
129 128 124 120 117 110 106 104 105 106 103 104 108 106 95 82
59 6 10 5 9 17 30 31 39 21 1 2 0 0 0 0
0 0 0 0 0 1 13 14 20 23 23 24 24 24 24 23
22 10 0 0 0 0 0 0 0 1 1 2 2 3 4 5
10 7 3 3 3 3 2 1 1 12 22 21 22 23 17 9
8 9 9 9 9 11 24 23 21 21 21 21 22 22 22 21
21 22 23 22 22 22 23 23 25 26 23 16 12 13 7 4
3 5 0 15 80 94 101 106 105 101 99 99 104 110 115 122
125 124 124 122 118 114 108 106 105 105 104 106 108 106 96 81
57 13 12 7 10 16 30 34 32 6 1 0 0 0 0 0
0 0 0 0 6 10 14 15 20 23 23 24 23 23 23 22
20 7 0 0 0 0 0 0 0 0 0 0 0 0 0 0
9 2 0 0 0 0 0 0 1 12 22 23 22 23 18 8
7 7 7 7 6 8 22 24 20 21 20 20 21 20 20 20
21 22 23 23 22 22 22 22 24 25 24 17 14 13 6 5
3 4 2 18 79 94 102 110 107 102 100 100 105 111 116 120
121 121 122 123 119 113 106 104 105 106 107 110 109 104 96 80
54 14 12 10 9 15 31 34 24 9 10 4 3 0 0 6
5 0 0 1 13 14 15 19 22 23 22 22 22 21 22 22
20 24 26 23 15 13 11 8 7 5 4 2 2 1 0 0
9 6 3 5 6 8 11 13 15 19 21 22 22 23 19 12
12 14 15 17 16 9 20 23 21 20 20 20 20 20 19 19
19 21 22 22 22 22 22 22 24 24 25 19 15 10 8 4
5 4 4 22 80 96 104 112 110 106 101 100 103 111 117 119
120 122 123 124 119 113 108 105 105 106 109 112 110 103 95 80
51 6 8 12 16 18 31 44 28 22 20 13 5 2 0 7
11 0 0 1 13 13 17 22 22 23 23 23 23 22 22 21
20 41 46 45 44 44 44 43 42 41 40 38 38 36 33 31
11 12 14 15 17 19 20 22 24 25 26 27 27 27 26 24
25 26 25 25 24 23 25 23 19 19 20 20 20 19 19 20
19 22 21 21 22 22 23 21 22 23 29 24 13 11 11 8
5 5 18 58 81 95 103 111 112 108 103 102 103 110 117 122
122 125 125 125 120 113 107 106 104 106 111 113 110 103 94 80
49 6 12 14 18 27 30 44 33 29 27 19 14 4 9 9
16 4 0 2 12 12 15 20 21 22 22 22 22 21 22 20
22 43 47 47 46 46 46 46 46 46 46 45 45 45 45 43
18 17 18 21 21 19 20 21 21 25 24 23 23 25 27 25
24 25 26 29 30 31 31 25 21 20 19 19 19 19 22 25
25 24 21 21 22 21 20 21 19 22 32 28 16 14 14 8
14 40 99 83 82 96 104 111 114 110 106 103 103 111 118 120
124 124 124 122 118 112 107 106 105 109 112 113 108 102 93 81
47 7 16 19 12 16 29 36 35 30 29 22 20 10 6 17
9 5 0 0 6 3 3 3 6 11 19 21 21 21 21 19
23 44 46 46 46 46 47 47 46 46 46 46 46 45 44 44
14 15 15 19 20 20 22 23 24 26 28 29 29 30 32 29
26 22 24 28 31 33 35 34 31 28 22 20 18 20 34 39
40 32 22 21 20 15 7 9 8 16 28 30 17 17 32 77
112 120 115 44 84 96 103 110 114 112 108 101 103 111 116 120
123 124 125 122 117 112 107 106 105 110 112 110 106 101 90 81
49 11 24 32 22 14 16 27 36 39 38 29 22 23 15 16
4 1 1 0 0 1 3 4 3 1 2 10 19 21 20 18
26 45 46 47 46 46 46 46 45 46 45 45 44 44 44 44
20 21 21 21 22 23 25 26 27 27 30 30 31 32 32 33
33 28 27 28 30 32 35 36 35 34 30 23 16 16 33 41
42 34 21 20 17 10 1 2 6 17 22 35 51 80 121 131
130 124 95 38 86 97 105 112 114 116 113 103 103 109 114 120
122 125 123 120 115 110 104 103 108 114 115 113 105 99 91 82
62 30 28 38 26 14 9 20 30 42 46 38 27 25 22 14
13 4 0 0 5 10 9 8 7 7 1 0 6 18 19 17
27 45 45 45 45 46 46 45 45 45 46 45 45 44 44 43
22 20 23 22 23 24 25 24 27 27 29 30 31 31 32 33
31 30 29 28 27 25 22 20 19 17 15 15 15 15 19 20
20 18 17 19 18 16 12 9 8 20 29 94 131 127 132 131
130 130 76 55 87 96 105 112 117 118 116 106 102 107 114 121
123 123 123 118 112 105 103 105 113 116 115 111 104 97 90 84
57 61 36 52 49 28 16 16 27 42 47 44 29 25 24 19
15 14 4 7 9 7 8 10 10 10 4 0 0 7 18 15
31 45 46 46 46 45 45 45 45 45 45 44 43 44 43 42
10 10 12 11 11 13 14 15 15 16 16 16 15 14 13 11
10 8 7 6 6 3 1 3 8 10 10 10 9 8 7 6
4 4 15 20 21 20 20 27 43 72 121 133 131 130 131 131
130 130 79 69 90 97 107 113 117 119 118 110 104 106 110 117
122 122 119 114 109 104 105 108 116 120 117 111 103 96 92 83
40 50 67 55 62 42 24 16 23 33 46 49 40 35 35 31
28 20 15 10 10 8 10 14 14 15 13 4 0 0 10 15
34 46 45 45 45 45 45 45 45 45 45 45 44 44 43 42
0 0 0 0 0 0 0 0 0 0 0 0 0 0 0 0
0 0 0 0 0 0 0 0 0 0 0 0 0 0 0 0
4 10 19 21 29 59 99 127 132 132 131 131 131 131 132 132
132 131 92 78 92 99 108 113 117 120 121 114 107 108 110 112
116 118 114 112 110 107 106 113 118 122 117 111 103 96 91 81
48 15 91 87 84 70 48 27 26 25 35 45 46 38 36 35
37 25 18 13 15 19 12 9 12 13 14 12 3 0 1 11
37 46 46 46 46 46 46 45 46 45 45 44 44 43 43 42
0 0 0 0 0 0 0 0 0 0 0 0 0 0 0 0
0 0 0 0 0 0 0 0 0 0 0 0 0 0 0 1
14 20 31 72 120 132 133 133 133 133 132 131 131 132 132 132
132 131 104 83 94 101 110 113 118 121 123 118 111 109 111 111
113 114 113 113 111 108 111 116 122 122 116 110 104 98 93 81
60 13 73 120 118 96 72 55 55 41 33 42 56 49 41 36
42 46 24 14 15 25 15 8 10 9 13 16 10 0 0 7
40 46 46 46 46 45 46 45 45 45 45 45 44 44 43 43
0 0 0 0 0 0 0 0 0 0 0 0 0 0 0 0
0 0 0 0 0 0 0 0 0 0 0 0 0 0 4 22
58 87 121 132 132 132 132 133 132 133 132 132 132 132 132 132
131 131 117 83 97 105 109 114 117 120 124 122 113 111 112 113
115 116 116 115 111 108 111 120 123 121 115 109 105 100 94 82
70 29 60 131 128 126 123 117 96 92 72 41 55 56 51 49
51 53 23 13 16 31 22 15 12 14 15 17 15 7 0 5
41 46 46 46 45 46 46 45 45 45 45 44 44 43 43 43
0 0 0 0 0 0 0 0 0 0 0 0 0 0 0 0
0 0 0 0 0 0 0 0 0 0 3 15 42 75 108 127
132 133 133 133 133 133 133 133 132 133 133 133 133 133 133 132
131 131 126 82 101 108 112 114 118 120 124 124 117 115 113 115
115 117 115 114 112 110 118 124 124 121 115 111 108 104 97 85
76 42 46 130 129 128 126 109 88 82 79 65 66 64 58 54
55 42 17 16 16 21 13 12 11 13 13 15 16 12 0 7
44 46 46 46 46 46 46 46 46 45 45 45 45 44 44 43
0 0 0 0 0 0 0 0 0 0 0 0 0 0 0 0
0 0 0 0 0 1 3 5 22 52 94 121 130 133 133 133
134 133 133 133 133 133 133 133 133 132 132 133 132 133 133 132
132 132 131 86 105 111 114 116 117 117 122 124 120 116 115 114
115 116 117 115 112 113 122 125 123 118 113 111 107 104 99 88
83 50 39 129 129 129 128 125 112 108 101 91 92 94 93 74
50 32 18 11 15 5 4 2 3 4 3 2 3 2 0 10
44 45 46 46 45 46 46 46 45 45 45 44 44 43 43 42
0 0 0 0 0 0 0 0 0 0 0 0 0 0 0 0
0 0 0 0 2 24 65 101 125 131 133 133 133 133 133 133
133 133 133 133 132 132 133 133 133 132 133 132 132 133 132 132
132 131 131 97 100 115 116 117 118 120 122 124 124 119 116 114
115 116 115 113 112 117 125 125 120 115 113 113 110 108 102 94
91 46 45 130 128 127 127 127 124 123 125 116 118 118 112 110
110 90 56 17 7 1 2 1 2 3 2 2 2 1 0 14
44 45 45 45 45 44 44 44 45 44 44 44 43 43 42 41
0 0 0 0 0 0 0 0 0 0 0 0 0 0 0 0
0 0 1 14 73 123 132 132 133 133 133 132 133 133 133 133
133 133 133 133 133 133 133 133 133 132 132 132 132 132 132 132
132 132 131 120 76 121 118 117 120 120 122 124 124 121 117 115
114 114 114 113 114 121 126 124 117 113 114 114 113 111 107 100
96 35 58 130 127 127 127 126 126 125 125 125 124 124 124 124
124 123 120 110 80 36 6 2 3 3 2 2 1 0 0 20
44 44 44 44 44 44 44 44 43 43 43 43 42 41 40 40
0 0 0 0 0 0 0 0 0 0 0 0 0 0 0 0
0 1 38 110 131 133 132 133 133 133 133 134 133 133 132 133
133 132 133 132 132 132 132 132 132 132 132 131 132 132 132 132
131 132 131 130 69 109 121 118 119 121 122 123 125 123 117 114
112 114 114 114 116 123 127 124 116 116 118 119 116 114 110 104
93 20 71 129 127 126 126 126 126 124 124 124 125 125 124 124
124 124 124 123 122 120 102 60 21 4 2 2 1 1 0 27
44 43 44 43 43 44 43 43 42 42 42 42 41 41 40 40
0 0 0 0 0 0 0 0 0 0 0 0 0 0 0 0
1 49 123 133 134 134 133 133 132 133 133 132 132 133 133 132
132 132 132 132 132 132 132 132 132 132 132 132 132 132 132 132
132 131 131 131 98 58 122 120 119 119 121 125 125 122 118 115
113 113 114 116 120 125 127 123 117 118 118 119 116 113 112 108
74 14 97 129 127 126 127 126 126 125 125 124 124 125 124 124
123 124 123 124 124 123 123 121 112 82 35 4 1 1 1 31
44 43 43 43 43 43 43 43 43 42 43 42 41 40 40 39
0 0 0 0 0 0 0 0 0 0 0 0 0 0 0 3
57 124 133 133 133 133 133 133 133 133 132 133 133 133 133 133
133 132 132 132 132 132 132 132 132 132 131 131 132 132 132 132
131 131 131 130 127 38 90 124 121 120 121 125 128 124 119 115
113 114 115 116 121 125 125 121 119 118 120 119 115 116 115 108
40 23 120 128 127 126 126 126 126 126 126 125 125 124 124 124
124 124 124 123 123 123 123 122 122 121 114 90 35 2 2 36
44 45 44 44 43 43 43 43 43 42 42 42 41 41 40 39
0 0 0 0 0 0 0 0 0 0 0 0 0 0 3 69
130 133 133 133 133 133 133 133 132 132 132 132 132 132 132 133
133 132 132 132 132 132 132 132 132 132 131 131 131 131 131 131
131 131 131 131 130 82 29 110 124 119 118 125 128 125 120 115
114 113 115 116 123 126 124 119 118 120 121 118 116 117 117 85
15 53 129 127 127 126 126 125 125 125 125 124 124 124 124 124
123 124 124 123 123 123 123 122 122 122 122 121 112 60 10 38
45 44 44 44 43 43 44 43 43 43 42 41 41 40 40 39
0 0 0 0 0 0 0 0 0 0 0 0 0 2 73 134
134 132 133 132 132 132 132 133 133 132 133 133 132 133 133 133
132 132 132 132 131 131 132 132 131 132 132 132 131 131 131 131
132 131 131 131 130 121 25 43 115 121 117 124 129 126 121 120
117 114 116 116 124 127 125 118 118 123 124 120 120 120 108 32
15 92 129 127 126 126 125 125 125 125 125 124 125 124 125 124
124 124 124 124 123 123 123 122 122 122 121 121 122 118 79 45
45 45 45 44 44 43 43 43 43 42 43 42 41 40 40 39
0 0 0 0 0 0 0 0 0 0 0 0 0 46 132 134
133 133 133 133 133 132 132 133 133 133 133 132 132 132 132 132
132 132 133 132 132 131 132 132 132 132 132 131 131 131 131 131
131 130 131 131 131 130 76 14 45 112 117 121 128 127 124 123
120 119 120 122 125 127 126 120 124 125 126 124 123 114 49 13
31 122 128 127 126 126 126 126 125 125 125 124 124 124 124 124
124 124 123 123 123 123 123 123 122 122 122 122 122 121 121 100
56 45 44 44 44 44 43 43 43 44 43 42 41 41 41 40
0 0 0 0 0 0 0 0 0 0 0 0 13 115 135 133
133 132 133 132 133 133 133 133 133 133 133 133 133 133 133 132
133 132 131 131 131 132 132 131 131 131 131 131 132 132 132 131
130 131 131 131 130 129 122 29 14 36 97 120 129 128 125 127
126 124 124 124 125 126 126 123 126 126 125 125 118 53 13 16
76 130 127 127 127 127 126 125 126 125 125 125 125 125 124 125
124 124 124 124 123 123 123 123 122 122 122 123 122 122 122 122
112 64 45 44 44 44 43 43 43 43 42 42 41 40 40 40
0 0 0 0 0 0 0 0 0 0 0 0 72 136 134 133
133 133 134 133 133 133 133 133 133 132 132 133 133 132 132 132
133 132 132 132 132 132 132 132 131 132 131 132 131 130 131 131
131 131 131 131 131 131 130 87 14 15 24 77 126 129 126 127
128 127 127 124 127 128 126 125 127 126 126 112 44 13 15 34
122 128 128 127 127 126 127 126 126 126 126 125 125 125 125 125
125 124 124 123 123 124 124 123 123 123 123 123 122 122 122 122
120 110 60 44 44 44 44 44 43 43 43 42 41 41 40 40
0 0 0 0 0 0 0 0 0 0 0 14 123 135 134 134
133 132 133 133 133 133 132 133 133 132 133 133 132 133 132 132
132 133 132 132 132 132 131 131 131 131 131 132 132 131 131 132
131 131 130 131 130 130 130 127 50 15 14 16 48 112 128 129
128 128 128 124 128 127 126 126 127 126 97 32 14 14 18 92
130 129 129 128 127 127 127 126 126 127 126 126 126 127 126 125
125 125 125 124 124 124 124 123 123 124 123 123 123 123 123 123
122 120 102 52 45 44 44 43 43 43 42 42 41 40 39 40
0 0 0 0 0 0 0 0 0 0 0 51 136 134 133 133
133 132 133 132 133 133 133 133 132 133 132 132 132 132 131 133
132 132 132 132 132 132 132 131 131 132 132 131 131 131 131 131
131 131 130 131 131 130 130 129 115 24 15 14 15 22 64 112
129 128 127 125 128 128 128 127 114 58 17 13 14 16 58 128
128 127 127 128 127 127 127 127 127 127 127 127 127 127 126 125
125 125 125 125 124 124 125 124 124 124 124 124 123 123 123 123
123 122 119 84 45 44 44 44 43 43 42 42 41 40 40 40
0 0 0 0 0 0 0 0 0 0 1 90 136 134 134 133
133 132 132 133 132 133 132 132 132 132 132 133 132 132 132 132
132 132 133 131 131 131 131 131 131 131 131 131 131 131 131 131
131 130 130 130 130 130 130 129 129 92 16 14 14 14 15 19
45 76 96 112 120 113 93 59 21 13 14 15 16 35 121 129
128 128 128 128 127 127 127 126 126 127 127 127 127 127 127 126
127 127 126 126 126 126 125 125 125 125 124 124 124 124 124 124
124 123 123 119 71 44 44 44 43 43 42 41 40 40 39 39
0 0 0 0 0 0 0 0 0 0 9 119 135 133 133 133
132 133 133 133 133 132 133 132 132 133 132 132 132 132 132 132
132 132 132 132 132 132 131 131 131 131 132 131 131 130 130 131
130 130 130 130 130 130 130 130 130 129 75 16 15 14 14 14
14 14 14 17 19 17 14 14 14 14 15 16 35 114 129 129
128 128 128 128 128 127 127 127 127 127 127 127 127 127 127 127
128 127 127 127 126 127 126 126 126 126 126 125 125 125 125 125
124 124 123 123 115 55 44 44 43 42 42 41 41 40 40 39
0 0 0 0 0 0 0 0 0 0 28 132 134 134 133 133
132 133 133 133 132 132 132 132 132 132 131 132 132 132 132 132
132 132 132 132 132 131 131 131 131 131 131 131 131 131 131 131
131 131 131 130 130 129 129 129 130 129 128 79 17 14 14 14
14 13 14 14 13 13 13 13 12 13 15 41 118 129 128 128
128 128 128 128 128 127 127 127 126 126 127 127 126 127 128 127
127 127 127 127 126 126 126 125 125 125 125 125 124 124 124 124
124 124 124 123 123 98 45 43 43 43 42 40 40 39 39 38
0 0 0 0 0 0 0 0 0 0 53 135 134 133 133 133
132 133 133 132 133 132 133 132 133 132 132 132 132 132 132 132
132 132 131 132 131 131 131 131 131 131 132 132 131 131 131 130
130 130 129 130 130 130 130 130 130 129 130 129 99 29 14 13
13 13 14 13 12 11 13 12 13 18 68 126 128 128 127 127
127 128 128 128 127 126 127 127 127 127 127 127 127 127 127 127
127 127 126 126 125 125 125 125 125 125 125 125 124 124 124 124
124 123 123 123 123 120 69 43 43 42 41 41 40 39 39 38
13 10 11 11 11 11 10 8 5 5 79 135 134 132 134 133
133 132 132 132 132 132 132 132 131 132 131 132 132 132 132 132
132 131 131 132 131 131 131 130 131 131 130 131 130 131 130 130
130 131 130 130 130 130 129 129 129 128 128 128 128 123 78 32
15 14 14 13 12 12 12 14 44 105 129 127 127 128 127 127
127 127 128 128 127 126 126 126 125 125 125 126 126 126 126 126
125 125 125 125 125 124 124 125 123 123 123 123 123 122 122 123
123 122 122 122 122 122 104 47 42 41 41 40 39 38 37 37
17 16 18 17 19 20 22 23 24 28 106 134 133 132 133 133
132 132 132 132 132 132 132 131 131 132 131 131 131 131 131 131
131 131 131 131 130 131 131 131 131 131 131 131 130 131 129 130
131 130 129 129 129 129 129 129 128 128 128 128 128 128 127 127
106 78 58 49 48 59 80 111 127 127 127 126 126 126 126 126
126 125 126 125 126 125 125 125 124 125 124 124 124 124 123 123
123 123 123 123 123 122 123 122 122 122 122 122 122 121 121 121
122 120 120 121 121 120 118 69 42 41 40 39 38 38 37 36
18 17 17 17 19 22 22 21 20 30 116 133 132 131 132 132
133 132 132 132 132 132 132 132 131 131 132 132 131 132 132 131
132 131 131 131 131 131 130 131 130 130 130 130 130 130 130 130
131 130 129 128 129 129 129 128 128 128 127 128 128 128 127 127
127 127 127 127 126 126 126 125 125 124 125 124 124 124 124 123
123 123 124 124 124 123 123 123 122 122 122 122 122 122 122 122
122 122 122 122 122 122 121 121 122 121 121 121 120 120 120 120
120 120 119 120 120 120 119 95 46 41 39 38 38 38 37 36
