P2
128 120
149
0 0 4 0 0 10 39 32 27 28 27 27 28 27 27 27
27 26 26 26 25 25 25 25 25 25 24 24 24 24 23 22
22 21 21 21 21 21 21 20 20 20 19 19 19 18 18 17
17 17 16 16 16 17 17 19 21 21 21 17 14 19 16 17
20 20 19 18 18 20 17 17 17 15 16 16 18 19 19 20
20 20 19 19 19 19 19 19 19 20 20 21 21 21 21 23
22 22 22 23 23 22 23 23 23 23 24 25 25 25 26 25
25 25 26 26 26 25 26 25 25 26 26 26 25 26 25 26
0 0 0 0 0 11 38 32 28 28 28 28 27 27 27 27
27 27 27 26 26 26 25 26 25 24 24 24 24 22 23 22
23 22 22 22 22 21 21 20 20 20 19 19 19 19 18 18
18 17 17 17 17 17 18 20 21 21 21 17 14 20 17 16
20 20 20 19 19 19 18 17 17 15 16 17 19 19 19 20
20 20 20 20 20 21 20 20 21 20 21 21 21 22 22 22
22 22 23 23 23 24 24 24 24 24 25 25 25 25 26 26
26 26 26 26 26 25 25 25 26 26 26 27 26 26 26 26
5 1 0 0 2 16 39 32 28 28 28 28 27 27 27 27
26 26 26 26 25 25 25 25 25 24 24 24 24 23 23 23
23 22 22 21 21 20 21 20 20 20 20 20 19 19 19 18
18 18 17 17 17 17 18 20 21 22 22 18 15 20 20 16
21 20 20 19 19 19 17 17 18 15 16 17 19 20 20 20
21 21 20 20 20 20 20 20 21 21 21 22 22 22 22 23
23 22 23 23 23 23 24 24 25 24 25 25 25 23 23 25
25 25 25 25 25 26 26 25 26 26 26 26 27 26 27 26
26 25 21 16 14 24 38 31 28 28 27 27 27 27 27 26
27 26 26 26 26 26 26 25 25 25 24 24 23 23 23 23
22 22 22 22 22 21 21 21 21 20 20 19 19 18 18 18
18 17 17 18 17 18 19 21 23 22 21 18 14 21 21 15
21 20 20 19 19 18 18 18 18 16 17 17 19 20 20 20
21 20 21 21 21 20 21 21 21 22 22 21 22 22 23 22
22 22 23 24 23 24 24 24 24 24 24 24 24 26 25 25
26 26 25 26 26 26 28 26 26 25 26 27 26 27 26 26
19 21 24 27 29 31 32 29 28 28 27 27 28 27 27 27
27 27 26 25 26 25 25 24 24 24 24 24 24 24 23 23
23 22 22 21 21 21 21 20 20 20 20 20 20 19 19 18
18 18 18 17 17 18 18 20 23 23 22 17 15 21 23 15
21 21 20 20 20 18 18 18 17 15 17 17 20 19 20 21
21 21 21 21 20 21 21 21 21 22 21 22 23 23 23 23
22 23 23 23 24 24 24 25 25 25 25 25 25 25 26 26
25 26 26 26 26 26 27 25 25 25 25 26 25 26 26 26
10 13 17 20 23 26 28 29 28 28 27 27 27 27 27 27
26 26 26 26 25 25 26 25 25 25 24 24 24 23 23 22
23 22 22 22 22 22 21 22 21 20 20 20 20 19 19 18
18 18 18 18 18 18 20 22 23 23 22 18 15 22 23 14
21 21 21 20 20 19 18 18 19 17 17 17 20 21 20 21
21 21 21 21 22 21 21 22 22 22 22 22 22 22 23 23
23 23 23 24 24 25 25 26 26 26 27 26 26 26 25 26
26 25 26 26 26 26 27 26 26 26 26 26 26 26 26 26
7 7 7 8 10 13 17 22 26 28 29 28 28 28 28 27
27 27 26 26 26 25 25 25 25 25 25 24 24 24 24 24
23 23 22 22 22 21 21 21 21 21 21 20 20 20 19 19
19 19 18 18 18 19 19 22 23 23 23 18 16 22 25 14
21 22 21 21 20 19 19 18 18 16 18 18 21 21 21 21
22 22 22 21 21 22 22 21 22 22 23 22 22 22 24 23
24 25 25 24 24 24 26 25 26 25 25 26 26 26 26 25
26 26 27 26 27 27 27 26 25 26 25 25 26 27 26 26
7 7 8 7 7 9 8 9 10 11 15 20 23 26 27 27
27 26 27 26 26 26 26 26 25 25 25 25 24 24 24 23
23 22 23 23 22 22 22 21 21 21 21 20 20 19 20 18
19 19 18 18 19 19 20 23 24 23 24 18 16 23 25 14
21 21 21 21 20 19 20 19 19 17 18 18 21 21 21 21
21 21 21 21 21 22 21 22 23 22 23 23 23 23 23 24
23 24 24 24 24 25 26 26 26 26 27 26 26 26 26 25
26 26 26 26 26 26 27 26 26 26 26 27 27 26 27 27
22 20 17 13 11 9 8 8 9 8 9 9 10 10 14 19
26 26 26 26 26 26 26 25 25 25 25 25 25 25 25 24
24 24 23 22 22 22 22 22 21 21 21 21 20 21 20 20
20 20 20 19 20 20 21 23 24 24 23 19 16 24 26 15
21 23 22 22 21 20 19 19 19 17 18 18 21 22 21 22
22 22 23 23 23 22 23 23 23 22 23 23 24 23 24 25
25 25 25 25 26 26 26 26 26 26 26 26 26 26 26 26
27 26 26 27 27 27 27 26 26 26 26 26 27 26 27 27
32 40 40 36 33 21 12 12 9 8 8 8 8 2 3 11
26 27 27 27 26 26 26 26 26 25 25 25 24 24 24 24
24 23 23 23 23 23 22 22 22 22 22 21 21 21 21 20
20 19 19 20 20 20 21 23 24 25 24 19 16 24 26 15
19 22 22 21 21 20 20 20 20 19 20 20 22 22 22 23
23 23 23 23 22 23 24 24 24 23 24 24 24 24 25 25
25 25 25 25 26 26 26 26 26 26 27 27 27 27 26 27
26 26 26 26 26 26 27 27 27 27 27 27 27 27 27 27
37 37 41 40 39 26 21 26 27 20 15 11 9 7 7 12
26 27 26 27 26 25 25 25 25 25 25 24 24 24 23 24
24 24 23 23 23 22 22 23 22 22 22 21 21 21 21 21
20 20 20 19 20 20 21 23 24 24 23 19 16 24 27 17
18 23 23 22 21 20 20 19 20 18 19 19 22 22 22 23
23 23 24 24 23 24 23 24 24 23 24 23 24 24 24 25
25 25 25 26 26 26 26 26 26 26 26 26 25 26 26 26
26 27 27 27 27 27 28 27 27 27 27 27 27 27 27 25
25 31 38 40 40 28 28 32 34 28 34 33 29 12 6 12
26 27 27 26 26 26 32 30 29 27 26 25 24 25 24 24
24 23 23 23 23 22 26 31 28 25 23 22 21 21 21 20
20 20 20 20 20 21 21 24 25 24 24 19 17 24 27 19
17 23 23 22 21 21 21 21 21 19 20 20 23 23 23 22
23 23 23 23 23 23 24 24 25 24 25 25 25 25 25 25
25 25 26 26 26 26 26 27 26 27 27 27 27 27 27 27
27 27 27 27 27 28 27 25 26 26 25 25 26 26 27 26
0 3 8 14 28 31 31 33 35 34 38 39 39 19 7 14
27 28 27 27 26 28 36 34 34 31 29 27 26 25 25 24
24 24 23 24 24 23 30 35 32 29 29 27 23 21 21 21
21 20 20 19 20 21 21 24 24 24 24 18 17 24 27 19
16 24 23 23 22 21 20 20 21 18 19 20 22 22 24 23
24 23 24 24 24 24 24 24 25 24 25 25 24 25 25 25
26 26 26 27 27 27 27 27 26 27 26 26 27 27 26 26
25 26 25 25 25 26 26 25 26 26 27 25 26 27 27 27
0 0 1 0 17 31 32 34 36 36 38 39 40 21 8 16
29 28 28 27 27 28 38 36 34 31 32 32 34 28 28 27
25 23 23 23 24 23 30 33 32 30 31 30 27 21 21 21
20 20 20 20 20 21 22 25 25 25 24 19 17 24 26 21
16 23 23 22 22 22 20 21 21 19 21 20 23 23 23 23
23 24 24 23 24 24 24 24 25 25 25 26 25 25 25 26
26 25 26 26 26 26 26 26 26 25 26 26 26 26 26 26
26 26 27 27 27 26 26 26 27 26 27 26 27 27 27 27
0 1 11 2 19 29 26 30 33 36 37 37 38 22 8 18
33 30 30 29 29 30 29 29 32 33 35 36 36 29 29 32
30 27 26 26 24 24 25 20 22 25 29 30 27 22 21 22
22 21 21 21 21 22 22 24 25 25 24 18 16 20 27 22
15 24 24 23 22 23 22 20 21 19 20 20 23 23 23 24
25 25 25 25 25 25 25 24 25 25 25 25 25 25 25 25
25 26 25 26 25 25 26 26 26 26 26 26 26 26 27 26
26 26 27 27 27 27 27 26 26 26 26 27 26 27 27 27
0 0 9 3 21 21 0 6 12 23 30 32 34 21 8 17
32 27 24 27 32 35 11 0 8 21 28 30 33 18 3 9
16 25 25 29 30 27 24 9 6 7 9 13 24 22 22 21
21 21 21 20 21 21 22 24 26 26 22 11 12 11 25 22
15 23 23 23 22 22 22 22 21 19 21 21 23 24 24 24
24 25 24 25 24 24 24 24 25 24 24 25 25 25 26 26
25 26 26 26 26 25 25 25 26 25 25 26 26 26 26 26
26 26 26 26 26 26 26 25 26 26 26 26 26 26 26 26
0 0 0 0 21 18 0 0 0 0 2 3 18 22 9 13
25 29 32 29 35 37 11 0 0 5 8 8 20 16 0 0
0 0 4 9 17 25 24 7 1 3 3 0 16 23 22 22
21 21 21 21 22 22 23 25 26 26 24 16 16 20 27 23
17 23 24 23 23 23 22 22 21 19 21 20 24 24 24 24
24 24 24 25 24 24 24 25 25 25 25 25 25 25 25 27
25 26 26 26 27 27 26 26 25 26 26 26 26 25 26 26
26 26 27 26 27 26 27 26 26 26 26 26 25 26 25 26
0 1 0 0 23 16 0 0 0 0 0 0 14 21 9 3
0 3 10 20 29 35 12 0 0 1 3 6 18 16 0 0
0 0 0 0 0 9 24 4 0 0 1 0 19 24 22 22
22 21 21 21 21 22 22 26 26 26 26 19 18 26 28 25
17 22 24 21 22 23 22 22 22 20 21 20 23 23 24 24
24 25 24 25 24 24 24 24 25 25 25 26 26 25 26 27
26 26 26 26 27 26 26 26 26 26 25 26 26 26 27 27
27 26 27 26 26 26 27 26 26 26 26 26 27 26 26 26
4 12 0 0 24 15 0 0 4 1 0 0 16 21 8 2
0 0 0 0 1 7 10 0 0 0 0 0 15 16 0 0
0 0 0 0 0 9 23 1 0 0 0 0 20 24 23 22
22 23 22 22 22 23 24 26 27 26 26 19 19 26 28 24
18 20 24 24 23 23 22 22 21 20 22 21 24 24 25 24
25 26 25 25 25 25 25 26 25 25 25 26 26 25 26 27
25 26 26 26 27 26 26 26 26 26 26 26 26 25 27 27
26 26 27 27 27 27 27 26 26 27 27 26 27 25 25 26
0 6 0 0 25 14 0 0 2 7 0 0 17 20 9 2
0 0 0 0 0 1 7 0 0 0 0 0 16 14 0 0
0 1 0 0 0 9 21 0 0 0 0 0 22 25 23 23
23 22 23 22 22 23 23 26 27 26 25 19 20 27 28 25
20 19 25 25 24 24 23 23 22 20 22 22 25 25 25 25
26 26 25 25 26 25 25 25 26 26 26 26 26 26 26 28
27 26 26 26 26 26 26 26 26 26 26 26 26 26 26 27
27 27 27 26 27 26 27 26 26 26 26 26 27 26 26 27
2 0 0 0 25 11 0 0 0 4 0 0 18 17 8 2
0 0 0 0 0 1 5 0 0 0 0 0 20 16 0 0
0 4 6 0 0 9 20 0 0 0 0 0 21 24 23 22
23 22 22 22 23 24 24 26 27 26 26 19 19 26 23 20
19 18 20 21 21 24 26 25 25 20 22 21 25 24 25 25
25 26 25 25 26 25 24 25 26 25 26 25 26 26 26 27
27 27 26 27 27 27 27 27 27 26 26 26 26 26 26 27
27 26 26 25 26 27 26 26 26 27 26 27 27 26 27 27
0 0 0 0 26 8 0 0 0 0 0 0 20 16 8 2
0 0 1 2 0 1 4 0 0 0 0 0 19 16 0 0
0 6 8 6 2 8 19 0 0 0 0 0 21 25 24 23
24 23 23 22 22 23 23 27 27 27 25 19 20 21 22 17
16 13 13 17 18 19 22 22 24 22 22 21 25 25 25 25
26 26 26 25 25 24 25 25 26 27 26 26 26 27 27 28
27 27 27 27 27 27 27 27 27 27 26 27 27 26 27 27
27 26 26 27 27 26 26 27 27 26 26 27 28 27 27 26
16 10 5 3 28 7 0 0 0 0 0 0 21 15 9 1
2 2 0 0 0 1 4 0 0 0 0 0 20 17 0 0
0 6 8 7 3 8 20 0 0 0 0 0 20 25 23 23
23 23 23 23 23 24 24 27 27 26 21 18 19 22 19 17
17 19 21 21 18 20 19 19 21 21 23 21 25 25 25 25
25 25 25 25 26 25 25 26 26 26 26 26 26 26 26 27
26 27 27 27 27 27 27 27 27 27 27 27 26 26 27 26
26 26 27 26 26 27 27 27 27 27 27 26 26 26 26 25
34 36 35 32 31 24 9 6 7 4 1 0 25 14 10 2
1 0 0 0 0 1 5 0 0 0 0 4 24 18 0 0
0 0 4 6 2 7 26 11 4 1 0 0 21 26 24 23
23 23 22 22 22 24 24 27 26 20 12 12 19 21 20 18
18 23 25 28 30 31 30 27 23 21 22 23 26 25 25 25
26 26 25 25 25 26 25 25 25 26 26 27 26 27 27 27
27 26 27 28 27 27 27 27 27 27 27 26 27 27 26 26
27 27 27 27 27 27 26 26 28 27 27 27 27 27 27 26
11 11 14 29 42 46 27 25 30 31 28 25 28 12 8 1
0 0 0 0 0 3 23 12 6 5 1 0 23 33 20 15
10 3 0 2 0 8 33 33 29 27 23 22 30 25 23 23
23 23 24 23 24 24 25 27 23 12 8 14 18 17 19 21
25 23 31 34 40 43 50 49 42 34 24 24 23 23 23 24
25 24 24 25 26 25 26 26 27 26 27 26 27 27 27 28
27 27 27 27 27 28 28 27 27 27 27 27 26 26 27 27
27 27 27 27 28 26 27 27 28 27 28 27 27 26 27 26
3 1 0 26 48 43 23 28 35 38 38 38 34 11 9 1
0 0 0 0 0 5 39 36 30 30 28 21 33 31 16 20
22 23 21 18 15 21 36 33 32 32 36 39 37 26 24 24
23 23 23 23 24 25 25 25 16 10 10 16 17 19 24 25
26 28 35 42 42 42 42 42 50 50 37 25 21 18 17 18
18 15 19 26 26 26 26 26 26 27 26 26 27 27 27 26
27 27 27 28 27 28 28 27 27 27 26 27 26 26 27 28
27 27 27 27 27 25 27 27 27 27 27 27 26 26 27 27
0 0 0 28 44 31 19 28 35 36 38 40 34 10 9 6
2 0 0 0 0 7 40 32 36 38 41 37 35 23 7 8
9 9 10 12 16 23 24 22 26 29 33 36 36 26 24 24
24 23 23 23 24 25 25 21 15 11 15 19 21 25 28 27
26 32 36 41 39 39 36 42 45 46 46 49 40 22 16 16
10 7 12 20 25 26 26 27 26 27 27 27 27 27 27 27
27 26 27 27 28 27 28 28 28 28 28 27 26 27 27 27
26 26 27 26 27 26 26 27 27 27 27 27 27 27 27 27
0 0 0 27 41 21 0 3 7 10 14 21 33 11 11 24
33 28 19 11 6 11 31 28 37 39 42 39 30 21 10 9
8 7 6 5 4 3 4 6 9 16 24 22 21 23 24 24
24 24 24 24 24 25 24 19 15 13 24 23 23 30 29 30
27 29 36 31 23 20 30 43 42 35 41 52 51 34 22 19
13 13 9 2 16 26 26 27 27 27 27 27 27 27 27 27
28 27 28 28 28 28 28 28 27 28 28 27 27 27 28 27
27 27 28 27 27 27 27 27 27 27 27 27 27 27 27 27
0 0 0 26 43 20 0 0 0 0 0 1 26 11 11 26
38 39 38 37 36 36 27 22 32 36 39 37 32 23 11 9
7 5 5 5 5 5 5 5 5 14 20 18 22 23 24 24
24 24 24 23 24 24 21 22 17 18 25 21 24 27 25 30
26 27 34 23 17 18 30 30 29 39 45 47 45 48 31 23
18 15 11 4 2 22 26 27 28 27 27 27 27 27 27 26
27 27 27 28 28 28 28 28 28 28 27 25 27 27 26 27
27 27 27 27 26 27 26 27 27 28 27 27 27 26 27 27
0 0 0 23 41 16 0 0 0 0 0 1 26 12 10 25
38 39 39 39 38 38 16 0 4 9 15 20 22 26 12 8
4 1 1 3 6 6 6 7 8 18 16 8 25 26 25 19
20 24 24 24 25 24 22 20 16 17 20 20 24 27 25 35
29 27 34 28 22 22 28 22 25 30 37 38 39 42 49 32
20 17 16 11 5 8 26 26 27 26 26 27 27 27 27 27
27 27 27 28 27 28 27 28 27 27 26 26 26 27 28 27
27 27 27 28 28 27 27 27 27 27 26 26 26 27 26 26
0 0 0 20 36 12 0 0 0 4 17 16 23 19 15 22
29 30 32 34 37 38 12 0 0 0 0 3 13 25 9 6
1 0 0 0 4 5 1 4 8 17 30 29 30 30 30 15
12 24 24 24 24 24 22 21 20 16 18 21 23 26 29 31
31 29 43 43 35 34 32 28 24 20 23 35 45 42 42 41
28 22 16 10 6 4 23 26 27 27 27 27 27 27 27 26
27 27 27 27 28 28 27 28 28 28 26 26 28 28 27 28
27 27 26 27 26 26 27 27 27 27 27 27 27 27 27 27
0 0 0 20 35 10 0 0 0 4 17 18 18 18 15 17
18 21 25 24 28 34 9 0 0 0 0 0 13 27 9 6
1 0 0 0 0 0 0 0 0 12 31 24 21 20 25 27
26 25 25 25 24 15 14 21 20 19 23 29 33 30 30 32
40 43 48 52 51 49 46 43 39 32 23 27 27 29 27 17
17 15 17 15 12 5 15 30 28 27 28 27 27 28 28 28
28 27 28 28 28 29 29 29 28 28 25 26 28 28 28 28
28 28 27 28 28 28 28 28 28 27 27 27 27 27 26 27
0 0 0 25 35 8 0 0 0 0 5 9 17 15 14 16
16 18 24 23 29 34 7 0 0 0 0 0 10 25 3 0
0 0 1 3 0 0 0 0 0 12 32 24 17 22 21 21
24 24 24 25 24 15 15 20 19 19 27 28 36 38 41 47
59 62 63 64 65 68 63 60 64 60 47 33 30 40 47 43
35 27 20 18 16 12 10 26 28 27 28 27 27 28 28 28
28 28 28 28 28 28 28 29 28 28 28 28 28 28 29 28
28 28 28 27 28 27 28 27 28 28 28 28 28 27 28 27
0 0 0 28 35 7 0 0 0 0 0 0 13 10 13 10
8 15 21 25 31 32 6 0 0 0 0 0 15 20 0 0
0 0 0 6 4 0 0 0 0 12 33 23 11 23 21 20
24 25 25 25 23 17 19 21 19 22 29 34 49 54 69 84
91 94 95 96 96 91 85 85 96 96 86 64 44 33 35 39
38 29 20 14 13 14 12 23 28 27 28 28 28 28 28 28
28 28 29 29 29 29 29 30 29 29 28 28 28 28 28 28
28 28 28 28 28 28 27 27 27 28 27 27 26 27 27 27
0 0 0 32 35 6 0 0 1 0 0 0 19 15 17 5
0 0 0 2 6 14 6 0 0 0 0 0 18 18 0 0
0 0 0 6 9 5 0 0 0 13 34 24 10 15 13 18
24 25 25 24 19 18 22 26 22 28 34 45 63 85 100 107
109 111 112 112 111 109 110 111 114 111 109 105 92 65 36 25
32 26 16 9 3 8 10 22 28 29 29 29 29 29 28 28
28 29 28 29 28 28 29 29 29 29 28 29 29 28 28 28
28 28 28 28 28 28 28 28 28 28 27 27 28 27 28 28
15 9 7 33 34 5 0 0 2 0 0 1 26 20 19 5
0 0 0 0 0 5 5 0 0 0 0 0 18 15 0 0
0 0 10 12 12 9 0 0 0 14 34 26 17 17 14 18
24 26 26 25 19 16 25 19 25 41 61 73 87 98 105 111
113 115 118 121 124 124 123 120 116 114 113 110 107 101 84 47
36 44 20 13 5 7 11 19 27 28 28 28 28 29 29 29
29 28 29 29 29 28 29 30 30 30 26 26 29 29 30 29
28 28 28 28 29 29 28 28 28 27 27 27 28 27 27 27
26 23 22 26 26 10 0 0 4 3 0 1 28 21 19 5
0 0 0 0 0 5 4 0 2 8 1 0 20 11 0 0
0 0 7 13 8 2 0 0 0 14 35 28 19 8 3 15
24 26 26 24 13 21 28 25 40 64 76 81 94 104 109 114
116 116 118 121 124 125 124 122 119 116 114 113 107 106 99 84
62 55 30 14 9 6 15 20 27 29 29 30 30 30 30 30
29 29 30 29 29 29 30 30 30 29 26 25 30 30 31 29
28 29 29 29 28 28 28 28 28 28 28 28 29 28 28 28
1 7 3 20 26 25 26 17 17 19 12 8 30 18 18 5
0 1 9 1 0 5 4 0 9 12 4 0 22 10 0 0
0 0 0 9 4 0 0 0 0 12 35 28 16 6 3 13
24 27 27 21 13 34 32 42 59 72 80 88 100 106 111 116
118 119 120 124 126 127 126 124 121 118 116 116 109 107 101 96
84 60 36 19 11 8 12 24 31 30 30 29 29 30 30 30
30 30 30 31 31 31 30 30 31 31 27 25 30 30 30 30
29 29 29 29 29 29 29 29 29 28 28 28 28 27 28 28
0 10 4 22 26 21 14 16 24 31 34 35 35 21 15 4
0 7 14 3 0 7 16 9 17 15 12 2 24 8 0 0
0 0 0 8 5 0 0 0 0 11 36 24 8 2 0 13
24 26 25 13 16 39 37 59 67 77 87 92 102 109 114 118
120 120 122 124 126 127 126 126 123 119 119 117 113 108 105 98
93 63 43 30 12 9 10 24 30 29 29 29 30 30 30 31
30 30 30 30 30 30 30 30 30 30 28 27 30 30 30 30
29 29 29 28 28 28 28 28 28 27 27 28 28 28 27 29
4 2 6 26 28 16 0 0 1 5 15 36 35 21 15 5
0 2 5 1 0 8 34 33 36 34 33 32 36 9 0 0
0 0 0 8 6 0 0 0 0 7 35 20 5 3 0 18
23 27 22 14 16 41 50 65 69 80 91 94 105 110 115 119
121 123 124 125 126 127 127 125 123 123 121 118 116 111 106 102
95 77 53 44 29 11 9 22 27 28 29 29 30 30 29 29
30 30 30 30 30 30 30 30 30 30 30 29 30 29 29 29
29 28 29 28 29 29 29 29 29 28 28 27 27 27 27 27
16 4 1 26 28 12 0 0 14 12 15 35 32 19 17 11
2 0 0 0 0 8 35 36 37 36 39 43 43 22 11 12
4 2 2 12 8 0 1 0 0 5 32 17 3 0 1 14
23 26 21 13 19 46 57 67 69 83 98 104 106 112 117 120
122 123 123 125 127 127 125 124 123 122 121 119 117 113 109 105
97 85 65 50 51 20 9 18 24 25 27 29 29 30 30 30
29 29 29 30 30 29 29 30 30 30 30 30 31 30 29 29
29 29 29 29 29 28 28 27 28 28 28 28 28 28 27 28
7 0 1 30 30 11 0 0 11 22 24 34 25 16 17 16
2 0 0 0 0 8 32 33 34 34 38 43 43 32 28 28
25 23 22 23 18 14 11 9 7 11 28 20 7 6 5 6
21 26 22 13 20 41 60 69 71 87 99 104 105 110 116 120
122 122 121 126 127 127 127 124 123 122 120 118 115 113 109 107
97 88 78 57 58 38 18 15 21 20 26 26 29 29 29 29
29 29 29 29 30 30 30 30 30 30 30 29 29 29 30 29
28 28 28 28 28 28 28 28 28 27 27 28 27 27 26 27
8 0 2 32 32 11 0 0 1 7 25 36 23 17 20 12
0 0 0 0 0 9 31 28 30 31 31 28 28 30 32 31
30 29 30 29 27 25 22 20 18 20 30 28 21 18 13 10
19 26 21 9 25 43 57 67 75 88 101 105 107 110 116 118
121 121 121 126 127 127 127 125 123 119 119 117 116 113 111 109
99 89 84 74 53 40 30 15 20 17 24 25 28 29 30 30
29 29 30 30 30 30 30 29 29 29 29 29 29 30 29 30
29 29 28 28 28 28 28 28 28 27 27 27 27 27 27 28
0 1 3 33 33 12 0 0 0 0 21 36 22 16 18 19
13 9 6 3 1 12 34 28 28 28 28 28 28 31 31 33
34 33 31 30 29 31 34 31 28 26 32 36 35 34 32 28
24 25 14 10 35 48 58 70 77 92 103 106 108 109 114 115
119 122 123 124 126 126 127 124 122 119 115 114 115 113 112 108
100 92 85 79 68 47 34 21 18 15 24 25 28 29 29 29
29 29 29 30 30 30 29 30 30 30 29 29 29 29 29 29
29 29 29 28 29 29 29 28 28 28 28 28 28 27 27 27
0 0 2 32 32 8 0 0 0 0 20 38 21 17 18 30
38 37 33 35 33 34 37 30 30 30 31 32 35 37 33 35
39 40 30 27 29 32 38 37 34 33 32 27 24 26 27 27
25 19 6 16 40 44 61 71 81 94 103 106 109 109 112 116
121 122 124 127 127 126 125 122 123 120 117 114 114 112 114 108
101 94 87 76 72 53 35 24 15 18 20 25 25 29 29 29
29 30 30 30 29 29 29 29 29 29 28 29 29 29 29 29
29 29 29 29 29 28 28 28 28 28 27 27 27 26 27 26
0 0 2 33 32 6 0 0 0 0 22 38 21 16 18 33
45 44 44 45 45 45 41 30 28 30 30 33 39 39 33 35
39 38 30 27 24 32 40 37 35 35 33 28 21 19 18 18
21 8 6 23 38 41 61 76 85 96 103 105 110 112 112 117
121 124 126 126 127 126 127 127 124 123 119 114 114 111 113 109
101 94 87 75 69 55 38 28 15 16 19 25 24 28 29 29
29 29 29 30 29 29 29 29 29 28 28 27 27 27 27 28
28 28 28 28 28 28 28 28 28 28 28 27 27 27 27 27
0 0 2 33 32 5 0 0 0 0 20 36 18 17 18 24
31 33 35 37 40 41 36 11 11 8 10 15 27 39 35 30
24 26 26 24 23 26 25 19 22 28 29 30 27 24 24 24
18 6 10 26 28 35 64 79 86 97 103 106 110 113 114 118
124 126 127 127 127 126 127 126 126 124 121 117 114 112 113 110
102 94 86 74 66 54 36 29 18 10 16 22 24 27 30 30
28 28 29 29 30 29 29 29 29 29 28 28 28 28 29 29
29 28 28 28 27 28 27 28 28 27 27 26 26 27 27 26
0 0 3 33 33 5 0 0 0 0 19 34 17 16 16 20
23 22 22 22 23 24 24 2 0 0 0 0 5 35 31 11
1 3 6 8 21 27 11 0 0 3 9 20 29 27 27 30
21 7 10 26 19 41 69 80 86 97 102 107 109 114 116 117
125 127 128 127 127 128 127 127 127 125 124 118 115 115 115 110
104 92 83 73 64 46 33 21 16 11 11 20 22 26 29 29
29 29 29 29 29 29 29 30 29 30 30 29 29 29 29 29
28 28 29 28 28 28 28 28 27 27 27 26 27 27 27 26
15 17 22 34 31 5 0 0 0 0 22 38 18 16 17 25
30 29 28 27 26 26 23 3 0 0 0 0 11 35 24 1
0 0 0 4 24 28 9 0 0 0 8 18 15 12 15 18
15 5 10 21 16 51 72 80 88 98 102 107 110 117 120 117
125 128 127 127 127 127 126 127 127 126 126 122 118 116 116 112
105 93 82 75 60 36 30 15 14 12 11 18 25 22 29 29
28 29 29 29 29 29 29 29 29 29 29 28 28 28 28 28
29 28 28 28 27 28 27 28 27 27 27 26 26 26 26 27
34 35 34 28 20 9 5 2 1 0 24 37 16 15 17 27
31 31 31 31 32 32 24 3 0 0 0 0 12 34 14 0
0 0 0 1 26 28 10 0 0 0 4 18 10 4 6 5
5 5 11 15 11 39 48 47 51 55 56 54 55 67 83 102
121 128 128 127 127 128 127 127 127 125 124 122 119 112 106 100
97 87 80 76 65 33 24 16 9 10 11 17 25 25 28 28
29 28 29 28 28 29 29 29 29 29 29 29 29 28 29 28
29 28 28 28 27 27 27 28 27 28 27 28 27 27 27 26
33 33 33 31 28 30 30 26 25 21 29 31 20 20 21 20
22 24 26 28 30 33 25 1 0 0 0 3 5 32 10 0
0 0 0 1 26 26 9 0 0 0 5 22 12 9 14 7
4 4 11 7 16 63 48 32 30 32 25 17 16 15 17 19
41 89 122 126 126 127 124 109 97 87 61 43 32 29 35 42
52 59 55 48 35 19 19 15 7 10 11 16 23 25 27 29
29 27 26 26 26 25 26 27 28 29 29 29 29 28 28 29
29 28 28 27 28 28 28 28 27 27 28 27 27 26 27 26
28 28 29 29 29 29 29 29 29 29 29 29 28 28 28 25
24 23 23 23 24 32 31 5 0 0 0 3 3 30 7 0
0 0 0 2 27 25 7 0 0 0 1 20 13 8 11 9
4 3 10 4 9 23 5 9 26 38 34 9 3 1 0 4
7 20 58 102 127 126 102 64 33 19 16 9 8 10 14 17
23 28 26 45 86 37 9 13 6 9 12 15 17 23 28 29
29 22 10 9 8 7 7 18 29 29 30 29 30 30 28 28
29 28 28 27 28 27 28 29 28 28 28 27 28 27 27 27
28 28 28 28 28 28 28 28 28 28 28 28 29 28 29 29
29 29 28 28 29 32 33 8 0 0 1 4 3 30 6 0
0 0 0 1 28 25 8 0 0 0 0 17 15 10 11 12
9 6 7 3 8 13 3 19 62 129 99 23 6 4 0 0
0 5 24 58 122 125 71 29 20 9 2 0 2 9 12 19
24 28 21 12 14 28 6 10 5 5 9 13 13 18 28 28
29 21 6 6 5 5 5 17 30 30 30 29 29 29 28 29
28 28 28 28 28 28 28 29 28 27 27 27 27 28 28 27
21 21 22 23 23 23 24 25 25 25 25 25 26 26 27 26
27 27 28 28 28 31 30 1 0 0 0 0 4 30 5 0
0 0 0 0 26 25 9 0 0 0 0 16 20 13 8 10
8 7 7 1 12 8 4 17 56 136 105 30 12 4 0 0
0 0 14 33 54 65 30 31 30 0 0 1 3 10 15 37
102 109 32 8 9 16 10 4 5 5 7 13 14 19 28 29
29 19 6 4 5 4 5 17 29 29 30 29 29 29 29 28
28 27 28 27 27 27 27 28 27 27 27 27 28 28 28 27
0 0 1 1 1 1 1 2 3 3 3 4 5 6 7 8
10 11 14 22 26 29 27 0 0 0 0 0 2 30 7 0
0 0 0 0 25 25 7 0 0 0 0 15 23 13 17 15
15 10 8 5 15 7 3 11 24 61 41 17 10 2 0 0
0 0 14 32 28 32 27 47 13 0 0 0 1 11 27 60
134 133 49 9 7 21 2 2 6 3 6 10 13 18 27 30
30 18 8 5 6 5 5 15 30 30 30 30 29 29 28 28
29 28 28 28 28 28 28 28 28 28 28 27 27 27 27 28
0 0 0 0 0 0 0 0 0 0 0 0 0 0 0 0
0 0 1 21 27 28 26 3 1 0 1 7 4 30 12 2
1 3 1 2 25 27 14 5 4 4 5 18 21 7 17 23
19 13 8 4 15 4 3 9 14 15 13 7 2 0 0 0
0 0 12 27 31 31 29 36 2 0 0 0 0 6 22 46
66 68 27 16 10 28 9 0 7 10 6 7 12 21 27 31
28 17 6 5 5 5 5 14 30 30 29 29 29 29 29 28
29 28 28 27 27 27 27 27 28 28 28 28 28 27 28 27
0 0 0 0 0 0 0 0 0 0 0 0 0 0 0 0
0 0 1 24 28 27 33 32 27 23 26 28 25 30 35 33
30 31 29 29 37 29 28 31 31 32 34 38 27 13 13 17
17 14 9 4 11 3 3 6 5 5 3 1 0 0 0 0
0 0 20 47 104 102 52 33 1 0 0 0 0 0 8 14
20 18 16 15 11 34 22 0 5 11 12 11 12 20 27 29
22 19 12 11 11 11 11 14 28 28 28 28 28 28 28 27
28 28 29 29 28 28 29 28 28 27 28 28 27 28 27 27
0 0 0 0 0 0 0 0 0 0 0 0 0 0 0 0
0 0 0 23 27 27 35 39 34 35 37 33 29 26 38 44
41 40 42 43 44 32 27 34 36 39 44 45 36 25 26 24
24 17 14 5 11 4 3 6 2 0 1 0 0 0 0 0
0 0 22 74 108 106 87 32 2 0 0 0 0 0 3 6
10 8 11 11 11 39 21 1 4 9 11 12 16 19 23 25
24 18 9 8 7 7 8 13 26 29 29 30 29 28 28 28
28 28 28 28 27 27 27 27 27 27 26 27 27 27 27 28
0 0 0 0 0 0 0 0 0 0 0 0 0 0 0 0
0 0 0 23 28 27 34 33 30 32 35 33 27 23 27 33
34 34 34 36 36 32 22 27 31 34 37 37 33 26 26 26
27 33 61 31 12 7 3 4 1 0 0 0 0 0 0 0
0 3 26 86 108 105 101 36 9 0 0 0 0 0 0 2
3 4 11 10 10 38 23 6 14 17 16 20 24 25 26 30
24 17 9 6 6 6 6 13 29 30 29 29 29 29 28 29
28 27 28 28 28 28 28 28 27 27 27 27 28 27 27 27
0 0 0 0 0 0 0 0 0 0 0 0 0 0 0 0
0 0 0 22 29 26 32 22 24 26 30 33 27 24 21 18
19 19 19 19 21 24 23 26 27 27 24 22 25 26 27 27
27 52 65 67 25 14 1 3 0 0 0 0 0 0 0 0
0 12 37 91 108 107 101 41 21 0 0 0 0 0 0 1
2 3 8 8 12 41 19 25 37 35 28 22 18 13 15 22
25 18 8 6 6 5 5 13 29 30 30 29 29 29 29 29
29 28 29 28 27 28 27 27 27 27 27 27 27 27 27 27
0 0 0 0 0 0 0 0 0 0 0 0 0 0 0 0
0 0 0 21 29 26 31 9 4 7 10 14 14 21 24 22
23 25 27 26 26 28 29 32 34 32 28 24 25 26 27 27
29 56 48 79 58 26 2 2 2 4 6 6 0 0 0 0
2 16 63 88 104 111 99 60 25 4 0 0 0 0 0 4
2 3 9 5 16 50 24 59 64 55 39 29 7 15 15 23
26 18 10 7 6 6 5 13 30 30 29 29 29 28 28 29
29 28 28 29 29 28 28 29 28 28 27 26 27 26 26 27
0 0 0 0 0 0 0 0 0 0 0 0 0 0 0 0
0 0 0 19 29 25 31 6 0 0 0 1 5 22 26 32
33 35 41 31 21 24 26 30 35 38 31 26 26 27 27 27
34 50 64 93 66 45 10 0 2 2 3 1 0 0 0 0
15 34 75 82 104 111 92 76 23 22 0 0 0 0 1 11
7 9 13 11 27 66 52 87 107 80 53 40 1 8 15 24
29 23 15 9 5 6 5 14 29 29 29 29 29 28 29 29
28 29 28 28 28 27 28 27 27 27 27 26 27 27 27 27
0 0 0 0 0 0 0 0 0 0 0 0 0 0 0 0
0 0 0 18 28 25 33 9 0 0 0 0 1 25 24 32
30 25 35 23 1 1 2 3 14 37 32 26 26 26 27 27
38 47 75 87 70 61 37 9 2 0 0 0 0 0 0 14
22 72 73 74 108 114 93 76 51 19 12 0 0 0 0 12
16 12 11 16 52 70 77 94 104 95 58 49 1 7 13 23
29 24 16 11 7 6 6 16 30 30 29 28 29 28 28 28
28 28 28 27 28 27 27 27 28 27 27 27 26 27 26 27
0 0 0 0 0 0 0 0 0 0 0 0 0 0 0 0
0 0 0 16 28 24 28 7 0 0 0 0 1 26 23 31
20 1 13 18 0 0 0 0 8 34 32 27 27 28 27 27
37 48 82 85 59 60 69 52 26 13 10 6 7 10 23 38
65 78 69 76 112 116 94 75 81 20 25 11 0 0 0 9
6 3 10 39 78 68 71 81 107 107 64 47 0 6 9 20
26 21 12 9 8 6 5 16 29 30 29 29 29 28 29 28
28 28 29 28 28 28 27 27 27 27 27 26 26 27 26 27
0 0 0 0 0 0 0 0 0 0 0 0 0 0 0 0
0 0 0 15 28 24 14 0 0 0 0 0 2 28 22 32
19 0 11 20 0 0 0 0 5 32 32 26 27 26 26 25
29 57 85 77 68 61 70 77 76 55 34 29 38 61 85 93
84 72 81 87 118 117 92 76 80 69 45 42 22 16 13 16
18 29 57 84 78 67 83 71 93 101 80 43 3 5 9 20
26 19 11 10 9 6 4 14 29 29 30 29 28 29 28 28
28 28 28 28 28 28 27 27 26 27 27 26 27 26 26 27
0 0 0 0 0 0 0 0 0 0 0 0 0 0 0 0
0 0 0 13 28 24 11 0 0 0 0 0 3 28 22 32
19 0 9 21 0 0 0 0 3 30 31 26 26 27 26 24
24 60 83 78 80 62 71 78 81 87 96 107 117 122 123 108
81 92 96 98 126 121 93 91 88 91 102 102 89 65 50 45
64 88 90 84 74 66 91 86 90 89 91 36 9 7 10 21
26 25 21 21 16 15 16 20 28 29 29 28 28 28 28 28
28 28 28 28 28 27 27 27 26 27 26 26 27 26 26 27
0 0 0 0 0 0 0 0 0 0 0 0 0 0 0 0
0 0 0 13 29 24 9 0 0 0 0 0 2 28 22 33
18 0 10 21 0 0 0 0 2 30 32 26 27 27 25 25
23 51 78 69 81 67 72 83 90 95 106 118 124 129 123 98
82 89 73 101 125 122 93 89 101 94 108 126 127 124 119 108
100 94 88 82 72 69 94 94 82 82 86 25 15 14 13 23
27 28 29 29 28 28 28 27 29 29 29 29 28 28 28 28
28 27 27 27 27 27 27 27 27 27 27 27 27 26 26 27
0 0 0 0 0 0 0 0 0 0 0 0 0 0 0 0
0 0 0 13 28 24 10 0 0 0 2 2 2 28 24 34
21 3 10 21 3 0 0 0 3 30 31 26 27 26 26 23
23 42 76 62 78 67 69 81 87 95 109 119 126 128 123 97
84 63 17 84 114 109 62 15 69 98 104 123 129 127 124 114
104 96 89 81 72 71 96 93 68 81 68 18 16 20 17 27
28 29 30 31 31 30 30 30 29 30 29 30 29 29 29 29
29 28 29 29 28 28 28 27 27 27 26 26 26 26 26 27
0 0 0 0 0 0 0 0 0 0 0 0 0 0 0 0
0 0 0 12 28 24 11 2 3 0 4 11 4 28 25 34
25 10 9 22 5 4 4 1 3 29 30 26 27 26 24 23
21 26 75 75 69 62 67 78 85 97 110 120 126 126 123 103
85 68 56 60 91 83 59 62 77 95 109 125 128 127 124 114
104 95 88 80 73 76 78 82 78 81 43 16 15 23 23 29
29 28 29 29 28 28 29 30 28 29 29 29 28 28 28 28
29 28 28 27 27 27 27 27 26 27 27 26 27 27 26 26
0 0 0 0 0 0 0 0 0 0 0 0 0 0 0 0
0 0 0 12 28 24 16 10 12 9 13 19 16 31 29 36
22 18 11 19 2 8 7 0 1 26 29 26 27 26 24 23
22 16 55 79 91 78 65 75 83 98 111 120 125 124 121 116
99 84 81 81 74 78 86 85 85 108 124 124 126 125 122 116
104 93 86 80 73 81 101 95 83 66 21 20 19 26 28 32
33 31 30 29 28 28 29 29 28 29 29 28 28 28 28 28
29 28 28 28 28 27 27 27 26 26 26 27 27 26 27 27
0 0 0 0 0 0 0 0 0 0 0 0 0 0 0 0
0 0 0 12 28 24 28 38 40 39 40 40 40 44 33 35
15 19 14 23 13 15 13 9 10 24 26 26 26 26 25 21
21 15 27 71 82 81 66 73 83 98 110 118 121 119 118 117
109 100 103 106 99 105 101 97 102 114 124 124 124 120 118 112
102 91 85 79 73 90 96 89 78 33 18 24 22 29 31 32
30 31 29 29 28 28 29 29 28 29 29 29 28 28 28 29
28 27 27 27 27 27 26 27 26 26 26 26 26 27 27 27
0 0 0 0 0 0 0 0 0 0 0 0 0 0 0 0
0 0 0 12 27 23 32 45 46 46 46 46 47 48 40 35
11 9 13 25 21 20 20 19 19 20 22 26 27 26 26 21
20 16 15 40 73 84 67 74 80 94 107 111 116 114 109 112
104 94 98 105 109 110 106 94 92 106 116 119 120 115 110 108
99 90 83 78 71 92 93 80 49 18 20 24 26 30 34 33
30 32 28 28 27 27 28 28 28 29 29 28 27 27 27 27
29 28 27 28 27 26 27 26 26 26 26 26 26 27 27 27
0 0 0 0 0 0 0 0 0 0 0 0 0 0 0 0
0 0 0 13 27 23 25 32 31 32 32 32 33 32 30 33
10 2 9 26 22 23 23 22 23 23 25 26 25 25 23 20
19 17 14 11 45 73 68 75 79 92 104 106 100 102 99 96
89 93 96 102 108 106 101 92 88 93 106 108 113 112 105 102
94 91 82 78 66 69 78 46 15 19 22 24 31 33 38 32
30 30 29 28 26 26 29 29 29 29 28 28 28 28 28 28
28 28 27 27 27 26 27 27 26 26 26 26 27 31 32 32
0 0 0 0 0 0 0 0 0 0 0 0 0 0 0 0
0 0 0 13 27 23 19 15 14 14 15 15 15 15 17 31
10 1 8 27 25 26 26 25 25 25 25 25 25 26 22 20
20 19 15 10 12 26 67 75 77 89 101 97 98 91 85 84
82 95 100 96 107 107 98 97 88 87 97 96 94 103 104 96
93 96 83 77 55 5 17 12 18 24 26 27 33 35 37 30
32 30 30 29 28 26 28 29 28 28 27 28 27 27 27 28
28 27 28 27 27 26 27 27 29 32 30 29 29 39 40 39
0 0 0 0 0 0 0 0 0 0 0 0 0 0 0 0
0 0 0 14 26 22 20 17 16 15 16 16 16 15 18 32
12 2 9 27 24 26 26 25 25 26 26 25 25 25 22 19
20 17 13 10 11 18 65 76 77 87 101 101 91 61 71 79
82 94 99 105 113 112 105 95 91 84 83 71 66 96 104 93
91 98 82 76 42 0 10 10 22 29 27 32 37 37 37 31
32 28 28 28 26 25 28 28 28 28 27 28 27 28 27 28
27 27 27 26 26 26 26 26 37 47 46 46 45 45 45 44
0 0 0 0 0 0 0 0 0 0 0 0 0 0 0 0
0 0 0 17 27 22 21 21 20 19 19 18 18 16 21 34
25 27 31 31 24 25 26 26 25 25 25 25 26 25 22 20
21 17 14 10 11 14 60 75 78 85 96 103 96 72 66 62
69 73 80 83 87 84 81 79 74 69 65 69 78 105 100 94
91 98 86 76 30 2 7 11 23 27 30 34 37 39 40 33
30 29 28 28 26 24 28 30 28 27 28 27 27 27 27 27
27 27 28 27 27 26 26 26 40 49 48 47 48 48 47 47
2 1 2 3 3 4 4 5 6 7 7 8 8 8 8 9
10 10 11 22 25 22 22 21 21 21 22 21 20 16 20 31
28 34 35 29 23 25 25 25 25 25 25 25 25 24 21 19
20 17 13 9 8 11 54 75 79 84 94 102 110 114 96 80
85 89 97 98 100 100 104 101 92 87 89 100 113 111 106 92
92 95 85 72 17 5 7 14 23 27 32 32 35 37 34 32
26 27 27 27 25 22 27 28 28 27 27 27 28 28 27 27
27 26 27 26 26 26 25 26 42 48 48 47 47 47 48 47
12 12 13 15 17 18 18 19 20 20 20 20 21 22 22 22
22 22 22 22 22 21 21 22 21 21 21 21 21 17 19 22
20 20 23 23 24 25 25 25 25 25 25 24 24 22 21 20
20 16 12 10 10 11 43 74 80 83 89 97 107 116 111 93
89 97 102 100 100 104 108 110 105 100 98 108 113 107 105 90
92 93 82 66 6 7 9 18 23 31 29 31 34 34 34 18
9 10 18 27 26 21 27 28 28 27 27 28 28 28 28 28
28 28 27 27 28 27 26 27 45 48 48 48 47 48 47 47
12 10 11 15 17 18 19 19 20 20 20 21 21 22 21 21
22 21 21 21 21 22 22 23 22 22 21 21 20 18 20 22
21 19 22 22 23 25 25 24 25 25 25 24 24 23 21 19
17 12 9 10 10 9 31 72 80 85 87 95 102 115 114 107
100 97 97 95 98 95 100 99 105 103 105 110 107 105 100 88
95 92 78 54 0 9 10 19 21 26 30 29 31 36 26 17
1 0 2 21 21 10 22 28 29 28 28 28 28 28 30 28
28 28 28 27 27 27 27 27 45 48 48 47 47 48 48 48
11 11 13 15 17 18 18 19 19 20 21 20 21 21 21 21
21 20 20 20 20 20 22 23 23 23 22 21 21 19 20 22
23 21 23 23 24 25 25 25 25 24 24 24 25 22 21 18
13 11 13 10 11 10 17 70 80 85 86 92 98 111 115 111
109 108 100 93 91 89 97 100 106 108 109 107 106 106 95 89
97 90 77 47 0 10 10 16 22 25 30 34 34 27 22 19
10 0 0 16 16 9 20 28 28 28 27 27 27 27 27 27
27 26 26 26 26 25 25 26 47 48 48 47 48 48 47 47
4 4 5 6 7 9 11 12 12 12 11 10 7 5 5 5
9 16 16 18 19 21 23 23 23 23 24 23 22 20 21 22
22 22 22 22 23 24 24 25 25 25 25 24 24 25 22 17
16 14 13 10 10 9 12 60 79 86 87 90 93 104 112 114
114 111 104 93 90 89 101 104 109 110 111 106 110 101 92 93
95 88 72 41 0 9 12 16 21 28 34 42 32 21 21 19
20 4 8 17 15 15 24 27 27 27 27 27 27 27 27 27
27 26 25 25 25 24 23 27 48 48 47 47 47 47 48 47
0 0 0 0 0 3 9 11 12 13 15 12 10 9 1 0
6 18 20 21 22 23 23 22 23 23 23 22 22 21 22 23
23 22 23 23 24 25 25 24 24 24 25 26 26 24 20 19
19 16 11 9 10 10 15 34 78 84 89 89 90 100 107 115
119 117 110 100 92 90 106 114 116 115 110 105 103 92 91 94
92 83 69 40 1 13 13 16 24 29 38 42 33 26 22 18
17 10 2 3 3 14 26 27 27 27 27 27 27 26 26 26
25 25 25 25 25 25 22 30 49 48 48 47 48 47 47 46
0 0 0 0 0 15 32 34 33 34 33 32 33 32 13 2
8 17 20 21 21 22 23 23 23 23 23 22 23 22 23 23
24 23 23 22 23 23 24 23 24 24 25 26 26 23 21 19
16 14 10 10 12 14 15 15 66 84 87 87 79 93 109 110
119 118 110 106 100 102 103 116 120 117 109 102 90 87 91 93
90 79 74 33 0 10 12 17 29 29 33 31 27 21 17 16
17 19 0 0 0 8 22 23 27 27 27 27 27 27 28 26
26 25 26 25 24 24 22 32 48 48 47 47 47 47 47 47
0 0 0 2 4 18 36 35 37 36 35 33 40 43 28 11
13 16 18 20 22 22 23 23 23 23 23 23 23 23 23 23
23 23 23 23 24 24 24 24 24 24 25 23 23 20 19 18
17 17 16 16 15 17 15 18 60 81 83 86 78 84 96 107
115 117 115 115 108 111 112 109 115 116 106 92 75 88 91 89
85 76 79 26 1 8 14 21 34 29 28 31 33 21 13 12
17 30 4 0 0 7 19 20 26 27 27 27 27 26 27 26
26 25 25 25 24 23 22 36 48 48 48 47 47 47 47 47
0 0 9 15 16 19 37 41 43 42 42 42 44 44 35 18
17 15 16 19 21 21 25 24 24 25 25 25 25 25 24 23
23 23 23 22 23 23 23 23 24 25 24 22 23 21 19 19
22 19 18 16 13 13 15 17 59 85 83 84 70 74 90 101
111 115 118 116 119 116 110 106 111 106 93 84 72 85 88 85
80 84 81 22 0 7 17 24 32 32 25 30 37 36 14 10
17 41 7 0 0 4 17 19 25 26 26 26 27 25 26 26
25 25 21 19 19 18 18 38 47 47 46 47 47 47 46 46
5 7 14 16 17 18 28 31 30 30 29 28 27 27 23 17
16 16 15 14 14 15 26 23 24 24 25 25 25 24 24 22
22 23 23 23 22 23 23 23 24 27 22 23 23 21 19 21
23 17 17 16 13 15 19 19 58 88 82 83 73 64 75 90
103 113 114 115 113 113 116 108 106 100 79 74 63 83 85 79
82 89 79 18 0 3 20 23 29 30 25 24 33 49 46 14
19 41 10 0 0 1 16 18 24 26 26 25 26 25 26 25
24 18 3 0 0 1 1 25 35 36 37 38 39 40 41 41
12 12 13 14 15 15 16 17 18 20 22 22 23 23 18 9
9 10 9 9 9 10 25 24 23 24 24 24 24 25 24 23
23 23 23 22 22 22 22 22 26 25 26 27 23 23 21 25
19 15 18 17 12 17 18 18 57 88 88 84 76 52 62 77
96 103 108 104 105 105 108 106 103 85 65 55 63 84 82 83
93 92 79 15 0 0 14 26 26 29 33 24 27 30 38 40
32 41 15 0 0 2 15 16 21 25 25 25 25 25 26 25
23 11 0 0 0 0 0 0 1 1 1 2 3 3 5 6
10 6 3 2 3 2 2 1 1 12 22 22 22 23 18 8
8 8 9 9 8 11 24 24 21 21 21 22 22 22 22 22
21 22 23 23 23 23 23 23 26 24 26 29 22 24 24 24
15 14 16 16 16 15 15 15 57 88 91 89 86 57 52 64
85 96 101 93 95 99 100 100 90 67 54 46 64 81 86 94
95 91 76 13 0 2 6 24 26 33 34 30 30 29 15 19
29 46 34 3 7 11 16 16 22 25 25 25 25 24 25 24
22 8 0 0 0 0 0 0 0 0 0 0 0 0 0 0
9 2 0 0 0 0 0 0 1 12 22 22 23 23 18 8
8 7 7 7 7 8 22 23 20 21 20 20 21 21 21 20
21 22 23 22 22 22 22 23 24 23 26 27 24 29 28 21
14 15 16 17 13 11 11 13 57 88 92 89 93 74 47 47
71 84 92 85 86 89 92 87 73 51 44 48 78 89 96 98
96 90 76 13 3 7 9 14 30 33 36 33 28 33 39 40
28 32 43 27 17 17 17 21 24 25 24 24 23 23 23 24
22 25 27 25 17 15 12 10 8 6 4 3 2 2 1 0
9 6 3 4 6 8 10 12 16 19 22 22 23 22 19 11
13 14 16 17 15 9 21 24 21 21 20 20 20 19 19 20
20 21 21 22 22 22 22 23 21 21 27 22 29 33 27 19
15 15 15 16 12 10 10 15 60 89 93 91 93 82 51 48
50 65 69 69 74 73 77 69 56 42 52 76 90 95 98 98
97 89 72 15 12 10 9 8 33 36 40 33 30 28 35 41
36 29 28 33 29 17 19 24 25 24 25 25 25 24 24 23
22 43 48 47 47 46 46 44 44 43 42 41 39 38 36 33
11 12 13 15 17 18 20 22 23 26 26 26 27 28 27 24
26 26 26 25 25 23 24 22 20 20 20 20 20 20 20 20
20 22 22 22 22 22 21 21 20 19 24 22 34 35 28 19
16 13 13 16 13 12 11 13 62 89 93 96 95 92 85 77
71 63 53 55 53 51 54 51 53 66 87 95 98 99 98 99
95 89 70 23 12 17 16 13 25 37 42 36 34 32 29 28
27 29 40 40 35 34 20 22 22 23 23 23 24 23 23 22
23 45 49 48 48 49 48 49 48 48 48 47 47 47 47 47
18 18 19 22 21 20 21 21 22 26 24 23 24 25 27 25
25 25 27 29 30 32 32 26 22 21 20 20 20 20 23 25
25 24 22 22 22 21 20 18 16 14 22 18 30 35 29 20
16 13 17 25 18 15 14 36 72 89 96 97 95 96 95 94
96 95 80 55 47 54 72 90 97 98 99 99 98 96 100 97
93 87 67 24 17 23 17 21 22 41 40 37 38 37 33 38
59 62 55 53 37 37 37 9 7 13 20 23 23 24 23 21
26 47 48 48 48 48 48 48 48 48 48 48 47 48 48 48
15 15 16 20 21 20 22 23 25 27 28 29 30 31 32 30
27 24 25 28 31 33 36 35 31 29 23 20 20 20 34 40
41 33 22 21 21 16 6 3 4 5 20 17 25 30 33 26
24 28 31 27 25 24 62 50 71 89 94 97 96 96 95 97
99 101 99 96 95 101 103 103 102 100 98 98 98 97 98 95
92 86 65 23 21 23 22 27 28 35 40 33 40 40 36 38
54 74 57 37 24 24 44 21 3 1 3 12 21 22 22 20
28 48 48 48 48 49 49 48 49 48 48 48 48 47 47 47
21 21 22 22 23 24 25 26 27 28 30 31 31 32 33 34
34 29 27 29 30 33 37 37 36 35 31 23 17 17 35 43
43 34 20 20 16 9 0 0 0 1 12 20 21 25 29 27
21 21 15 21 47 96 56 25 78 90 96 99 98 98 96 99
103 109 114 118 125 123 121 115 107 101 99 97 98 98 98 95
90 83 65 44 25 29 33 33 28 28 35 37 35 35 38 40
50 69 38 27 27 25 31 19 12 9 2 0 9 20 22 19
31 48 48 48 48 48 48 48 48 48 48 48 48 47 47 47
22 21 24 23 24 24 25 25 27 28 29 30 31 32 32 33
33 32 30 29 28 25 23 21 20 18 15 15 15 14 19 21
20 19 17 19 17 14 9 6 4 2 6 25 20 21 26 26
23 28 64 107 118 111 19 53 81 89 97 101 102 101 101 101
105 113 120 127 129 127 121 115 109 105 102 101 100 100 97 95
90 83 57 32 44 38 43 38 28 29 33 37 39 36 30 38
44 40 37 26 21 21 21 14 13 12 5 0 0 9 19 18
33 48 48 48 48 48 48 48 48 48 48 47 47 47 47 46
11 11 13 12 12 14 15 16 16 17 18 16 16 15 14 12
10 8 7 6 6 3 1 3 9 10 11 11 10 8 7 6
4 4 15 20 20 20 18 16 12 9 6 17 27 22 26 30
55 105 132 131 126 89 29 67 85 94 102 107 109 107 104 106
108 110 116 123 127 124 117 113 109 107 107 106 108 108 105 100
94 84 58 12 78 71 60 53 43 39 34 44 41 46 37 33
32 30 10 12 11 14 16 16 17 17 16 6 0 1 12 17
38 49 48 48 48 48 48 48 48 47 48 48 48 47 47 47
0 0 0 0 0 0 0 0 0 0 0 0 0 0 0 0
0 0 0 0 0 0 0 0 0 0 0 0 0 0 0 0
4 10 18 20 21 21 21 18 13 12 3 10 25 29 72 117
125 132 134 133 130 73 54 74 88 95 106 111 115 112 107 108
110 112 116 118 122 120 117 114 112 108 107 109 113 114 110 105
97 85 64 14 50 102 85 79 68 50 44 48 46 45 39 25
17 19 13 7 7 11 13 12 15 16 17 15 5 0 2 15
41 50 49 48 48 48 49 49 49 48 47 47 47 47 47 47
0 0 0 0 0 0 0 0 0 0 0 0 0 0 0 0
0 0 0 0 0 0 0 0 0 0 0 0 0 0 0 1
13 19 19 20 20 20 20 17 13 13 4 14 31 102 136 132
133 135 135 134 133 68 71 82 91 100 109 114 118 117 112 109
111 113 115 115 116 116 117 115 112 109 111 114 117 117 113 107
98 86 67 27 24 102 101 94 87 78 72 51 54 54 41 30
26 22 11 2 5 9 11 11 12 12 15 18 12 1 0 10
43 49 49 49 49 49 49 48 48 48 48 48 48 48 47 47
0 0 0 0 0 0 0 0 0 0 0 0 0 0 0 0
0 0 0 0 0 0 0 0 0 0 0 0 0 0 0 1
15 20 21 20 20 21 20 17 16 43 70 97 127 135 134 134
135 135 135 134 134 80 83 88 93 102 109 115 118 118 114 111
111 114 116 116 118 118 119 117 114 112 113 117 119 117 112 105
97 87 72 42 14 107 109 102 92 97 94 91 81 48 16 20
16 16 11 3 7 11 13 16 15 16 17 20 17 8 0 7
44 48 49 48 48 49 49 49 48 47 47 47 47 47 46 46
0 0 0 0 0 0 0 0 0 0 0 0 0 0 0 0
0 0 0 0 0 0 0 0 0 0 0 0 2 2 5 9
17 20 21 21 21 21 29 73 112 135 136 135 136 135 135 134
134 134 134 134 133 91 92 94 96 105 112 116 119 121 116 113
114 114 116 119 120 120 120 118 116 114 118 120 120 118 113 106
97 87 75 56 12 99 111 107 112 121 108 110 113 102 35 20
9 6 3 0 3 8 8 12 12 14 14 15 16 13 0 8
45 48 47 47 47 47 47 47 47 47 47 47 47 47 47 47
0 0 0 0 0 0 0 0 0 0 0 0 0 0 0 0
0 0 0 0 0 0 1 1 5 10 12 15 17 19 19 20
20 20 21 21 26 64 116 135 135 134 134 134 134 135 135 134
134 135 134 134 133 104 97 98 99 106 112 115 119 121 119 113
113 115 118 120 121 120 120 119 118 116 116 121 121 116 111 104
96 87 79 69 17 89 118 127 129 126 125 122 126 123 115 88
44 9 0 0 0 3 3 3 4 4 4 3 4 3 0 11
45 46 47 47 46 47 47 47 47 46 46 45 46 45 46 45
0 0 0 0 0 0 0 0 0 0 0 0 0 0 0 0
0 0 0 0 0 5 10 7 16 20 20 21 21 20 20 20
19 34 62 91 118 132 134 134 134 134 135 134 134 134 134 134
134 134 134 134 133 117 97 102 104 108 112 115 118 121 119 115
113 114 118 120 121 122 121 119 115 115 119 122 120 116 110 103
96 89 82 78 18 89 130 129 128 129 129 127 128 127 126 125
123 109 73 36 9 0 3 1 3 3 3 1 2 2 0 15
46 46 46 46 45 46 45 45 45 45 45 44 45 44 44 44
0 0 0 0 0 0 0 0 0 0 0 0 0 0 0 0
0 0 0 0 0 8 12 10 15 17 17 18 18 20 31 60
97 126 133 134 134 134 134 133 134 133 133 133 133 133 133 133
133 133 132 132 132 126 95 105 108 110 112 115 117 119 119 116
112 112 115 119 120 120 119 116 114 115 119 120 118 113 108 102
97 91 87 80 17 96 131 130 129 128 128 127 126 126 127 126
125 125 123 120 108 72 28 4 3 4 2 2 2 0 0 21
45 44 44 44 44 44 45 44 44 44 44 43 43 43 43 43
0 0 0 0 0 0 0 0 0 0 0 0 0 0 0 0
0 0 0 0 0 11 14 12 17 18 17 26 54 98 125 132
135 133 134 133 133 133 133 133 133 133 133 133 133 133 134 133
132 132 133 132 132 131 95 111 110 112 112 115 116 118 120 118
114 113 113 116 117 115 115 115 116 119 120 118 116 112 107 103
99 96 93 74 15 105 130 128 128 127 128 127 127 127 127 127
127 126 126 125 125 123 117 93 46 10 2 2 1 0 0 28
45 44 44 44 44 44 44 43 43 43 43 42 43 43 42 42
0 0 0 0 0 0 0 0 0 0 0 0 0 0 0 0
0 0 0 0 1 16 16 15 23 47 84 119 132 134 134 134
134 134 134 134 134 134 134 134 133 133 133 133 133 134 133 133
133 133 133 133 132 132 99 113 116 116 115 114 115 117 119 117
115 112 112 112 114 114 114 113 114 118 119 117 114 111 108 104
101 101 97 61 21 121 130 129 128 127 128 127 127 127 126 126
125 125 125 125 125 124 125 124 123 107 63 20 3 2 1 32
45 44 44 44 44 44 44 44 44 43 42 42 43 42 42 41
0 0 0 0 0 0 0 0 0 0 0 0 0 0 0 0
0 0 12 3 3 17 20 58 112 132 134 134 134 134 134 135
134 134 133 133 133 133 134 133 134 133 133 133 133 133 134 133
133 132 133 133 132 132 113 94 122 119 117 115 114 117 119 118
117 114 113 112 113 113 112 112 113 118 119 115 113 112 110 107
106 106 101 41 37 128 129 128 128 127 127 127 127 127 127 126
126 126 125 125 125 125 124 124 123 123 122 112 78 33 7 36
46 45 45 45 45 45 44 44 44 43 43 43 43 42 42 42
0 0 0 0 0 0 0 0 0 0 0 0 0 0 0 0
0 0 20 8 6 39 101 132 135 134 134 134 134 134 134 134
134 134 134 134 134 134 134 133 134 134 134 133 133 133 133 133
132 132 132 133 133 133 129 70 125 124 120 117 115 117 118 119
117 114 112 111 112 113 113 114 116 119 118 114 113 112 111 110
112 111 92 19 67 131 129 128 129 127 127 127 127 127 126 126
126 126 125 125 125 125 124 123 124 123 124 123 121 116 95 61
46 45 45 45 45 45 45 45 44 44 44 43 43 43 43 42
0 0 0 0 0 0 0 0 0 0 0 0 0 0 0 0
0 0 15 9 37 116 134 135 134 134 135 135 134 135 134 135
134 134 134 133 134 133 133 133 133 134 134 134 133 133 133 134
133 132 132 132 132 132 132 84 90 129 125 120 117 117 120 121
119 116 114 112 112 114 114 114 118 121 119 114 113 114 114 114
117 115 64 16 102 130 129 128 128 127 127 127 127 127 127 126
126 126 125 125 125 125 124 123 123 123 123 122 123 122 123 119
89 51 46 45 45 45 45 44 44 44 43 43 43 43 42 43
0 0 0 0 0 0 0 0 0 0 0 0 0 0 0 0
0 0 7 54 119 133 134 135 135 135 134 134 134 134 134 135
135 134 134 134 134 133 134 134 134 134 134 133 133 133 133 133
133 133 132 132 133 132 132 118 44 122 130 125 120 117 121 122
120 116 115 113 114 115 116 117 121 124 120 116 116 116 118 118
120 101 23 36 127 129 128 128 128 127 127 127 126 127 126 126
126 125 125 125 125 124 124 124 124 124 123 123 123 123 123 123
122 106 62 45 45 45 44 44 44 45 44 44 44 43 43 42
0 0 0 0 0 0 0 0 0 0 0 0 0 0 0 0
0 1 64 133 130 134 134 134 134 134 134 134 134 135 134 134
135 135 134 134 134 134 134 133 133 134 134 133 134 134 134 133
133 133 133 132 133 132 133 132 61 64 131 130 126 120 123 127
122 120 117 116 116 117 118 120 122 124 121 119 121 122 123 123
117 48 15 73 132 129 129 128 127 127 127 127 127 126 126 126
126 126 125 125 125 125 124 124 124 123 124 124 123 123 123 123
123 123 117 79 48 46 45 45 45 44 44 44 43 43 42 42
0 0 0 0 0 0 0 0 0 0 0 0 0 0 0 0
0 46 134 135 134 135 135 135 135 135 134 134 135 134 134 134
135 134 134 134 134 133 133 134 133 134 134 134 134 133 133 132
133 133 133 132 132 134 132 132 109 22 87 131 131 126 125 130
128 123 119 118 119 119 121 123 126 126 124 125 126 127 126 120
61 15 26 118 130 128 128 128 127 128 127 127 127 126 126 126
126 126 125 124 124 124 124 124 124 124 124 123 123 124 123 123
123 123 122 113 72 45 45 44 45 44 45 44 44 43 43 42
0 0 0 0 0 0 0 0 0 0 0 0 0 0 0 0
12 117 136 135 134 135 134 134 134 135 135 135 135 135 135 135
134 135 135 135 134 134 134 134 133 133 133 133 133 134 134 134
133 133 133 133 132 133 132 132 132 52 21 87 131 131 129 131
131 130 128 125 123 124 124 128 128 128 126 127 128 127 122 66
15 16 69 131 129 128 129 128 129 128 128 127 127 127 127 126
126 126 125 125 125 125 125 124 124 124 124 123 124 124 123 124
124 124 124 123 106 59 45 45 45 45 44 44 43 43 42 41
0 0 0 0 0 0 0 0 0 0 0 0 0 0 0 0
69 137 136 135 135 135 135 135 135 135 135 134 135 135 135 135
135 134 135 134 134 135 134 134 134 134 134 134 134 134 134 133
133 132 132 133 132 132 133 132 132 105 18 21 81 131 131 131
130 130 130 130 129 128 129 130 130 129 129 129 129 119 55 14
15 30 121 130 129 128 128 127 128 128 127 127 128 128 127 127
127 126 126 126 125 125 125 125 125 125 125 124 124 124 124 124
124 123 123 122 118 85 47 45 45 44 44 43 43 42 42 41
0 0 0 0 0 0 0 0 0 0 0 0 0 0 0 18
124 136 135 135 134 135 134 134 134 135 135 135 135 135 135 135
134 135 135 134 134 134 133 133 134 133 134 133 133 134 134 133
133 133 133 133 133 133 132 132 132 131 60 14 18 55 114 131
131 131 131 130 130 130 130 130 130 129 129 128 105 38 14 15
17 88 133 131 130 130 129 128 129 129 129 128 128 127 127 127
127 126 127 127 126 126 126 125 125 125 125 124 125 124 124 124
124 124 123 123 123 107 61 46 45 44 44 43 43 42 42 41
0 0 0 0 0 0 0 0 0 0 0 0 0 0 0 69
138 135 135 135 134 134 135 134 135 135 134 135 134 135 134 134
134 134 133 134 134 134 134 134 134 134 134 133 133 133 133 134
133 132 133 132 132 132 132 132 132 132 120 28 16 15 23 68
118 131 131 131 131 130 130 130 130 129 118 66 19 14 14 16
49 130 131 130 130 129 128 128 129 129 129 128 128 128 128 128
128 128 127 127 126 127 126 126 126 125 126 125 125 125 125 125
125 124 124 124 124 117 85 47 45 45 43 44 43 42 42 40
0 0 0 0 0 0 0 0 0 0 0 0 0 0 5 111
137 136 135 135 134 134 135 134 134 134 134 135 134 135 135 135
135 135 135 134 134 134 134 133 133 133 134 133 134 134 133 133
133 133 133 133 132 132 132 132 132 132 131 94 16 15 15 15
23 53 85 104 116 122 124 115 96 62 24 14 15 15 16 26
114 131 131 131 130 129 129 130 129 129 130 129 129 129 129 129
129 128 128 128 128 128 128 128 128 127 127 126 126 126 126 125
125 125 125 125 125 122 106 63 45 44 43 43 42 41 41 40
0 0 0 0 0 0 0 0 0 0 0 0 0 0 24 132
136 135 135 135 135 135 135 134 135 135 135 135 134 134 134 134
134 134 133 134 134 134 134 133 134 134 134 134 135 134 133 133
132 133 132 132 132 132 133 132 132 132 132 131 66 14 15 15
15 15 15 16 17 20 20 17 15 14 14 14 14 15 24 103
132 131 131 131 130 130 130 129 130 130 130 131 131 130 131 130
130 130 130 129 129 129 129 129 129 129 129 128 128 127 127 127
128 127 126 126 125 125 116 102 50 44 43 43 42 42 41 40
12 10 11 11 12 11 10 7 4 2 0 0 0 0 52 138
136 135 135 135 134 135 134 134 134 134 134 134 134 135 135 134
135 134 134 134 134 133 133 134 134 134 133 133 133 133 133 133
133 133 133 133 133 133 132 132 132 131 131 131 128 51 15 14
14 14 14 14 14 14 13 12 13 12 12 12 14 23 97 132
131 131 132 131 131 130 131 131 129 129 129 130 130 129 129 129
129 130 130 129 129 129 129 129 129 128 127 128 128 127 127 127
127 126 126 126 126 125 121 120 94 47 43 43 42 41 40 40
18 17 18 18 18 19 21 22 22 23 20 15 9 4 79 138
135 135 135 134 135 134 135 134 134 135 135 134 134 134 134 134
134 133 134 133 133 134 134 134 133 134 134 133 133 133 133 133
133 132 132 132 132 132 132 132 131 131 131 131 131 126 60 14
13 13 12 12 13 13 12 12 11 11 11 13 30 107 132 131
131 131 131 130 131 130 130 130 130 130 130 130 130 129 129 130
130 130 129 128 128 127 128 128 127 127 127 126 127 126 126 126
126 125 125 125 124 124 122 122 118 80 43 42 41 41 40 40
19 17 17 17 20 22 21 20 18 21 22 25 26 27 101 137
135 133 134 135 134 134 135 134 134 134 134 133 134 134 134 134
134 134 134 133 134 134 134 133 132 133 132 132 133 133 133 133
132 132 132 132 132 132 132 132 131 131 131 131 130 131 129 86
23 12 13 13 13 13 12 12 11 12 13 52 120 131 130 129
129 129 130 130 130 130 130 130 129 129 129 128 129 128 128 129
128 127 128 128 128 128 127 127 127 126 126 126 125 125 125 125
125 124 124 124 124 123 123 121 122 113 62 41 41 40 40 39
