P2
128 120
131
0 0 2 0 0 8 33 27 23 23 22 23 22 22 22 22
22 22 22 21 21 21 21 21 20 20 20 20 19 18 18 18
18 18 17 17 17 17 17 16 16 16 16 15 15 15 15 14
13 14 13 14 13 14 14 16 17 16 17 13 10 15 12 13
15 15 14 14 13 15 12 13 12 10 12 11 14 14 14 14
14 14 14 15 15 15 15 16 16 16 16 17 17 17 17 17
17 17 18 18 18 19 19 19 19 19 19 20 20 20 21 20
20 21 21 21 21 21 21 21 21 21 21 21 21 21 21 20
0 0 0 0 0 9 32 26 22 22 22 22 22 22 22 22
22 21 21 21 20 21 21 21 20 20 19 19 19 19 18 18
18 18 18 18 17 17 17 16 16 16 16 15 15 15 15 15
14 14 13 13 14 14 14 16 18 16 17 13 10 15 13 12
14 15 15 14 13 14 12 12 12 10 11 11 14 14 14 15
15 15 15 15 15 15 15 15 15 15 16 16 16 16 17 18
17 18 18 18 18 18 19 19 19 19 19 20 20 20 21 21
21 21 21 21 21 21 20 20 21 21 21 21 21 21 21 21
3 0 0 0 1 13 33 26 23 23 22 22 22 22 22 22
21 21 21 21 21 21 21 21 20 20 19 19 19 19 19 18
18 17 18 17 17 17 17 17 17 16 16 16 16 15 15 14
14 14 14 14 14 13 14 16 18 18 18 14 11 16 15 11
15 15 15 14 14 14 13 13 13 11 12 12 14 14 14 14
15 15 15 15 15 15 15 15 16 16 16 17 17 17 17 17
17 18 18 18 18 18 19 19 19 20 19 20 20 19 19 19
20 19 20 20 21 21 21 20 21 21 21 21 22 21 21 21
21 19 16 12 10 19 32 25 23 23 22 22 22 22 22 22
22 21 21 21 21 20 21 20 20 20 19 20 19 19 18 19
19 18 18 18 17 17 17 17 16 15 16 16 15 15 15 15
15 14 15 14 14 14 14 16 17 18 17 13 10 16 16 11
16 16 16 15 14 13 13 12 12 10 11 11 13 14 15 15
16 16 16 16 16 15 15 15 16 17 16 17 17 17 17 18
18 19 19 19 19 19 19 19 19 18 18 19 19 20 20 20
21 20 21 21 20 21 22 20 21 21 21 21 20 21 21 21
14 17 19 22 24 25 26 23 23 22 22 22 22 22 22 22
21 21 21 21 21 21 20 21 20 20 19 19 19 19 19 18
18 18 18 17 17 17 18 17 16 16 16 16 16 15 15 15
15 14 14 14 14 14 15 17 19 18 17 13 11 17 18 11
16 15 15 15 15 13 13 13 13 11 12 12 14 15 15 15
16 16 15 16 15 16 16 16 17 16 17 17 17 18 18 17
17 18 18 17 18 19 19 19 20 20 20 21 21 20 20 20
21 20 21 20 21 21 22 20 20 21 21 20 21 21 21 21
7 9 12 15 18 20 22 22 23 23 23 22 22 22 22 22
21 21 21 21 20 21 20 20 20 19 20 19 19 19 18 18
18 18 18 18 17 17 17 16 17 17 16 15 16 16 16 16
16 15 15 15 15 15 15 18 18 18 18 13 11 17 19 10
17 16 16 15 15 13 13 14 13 11 12 12 15 15 15 15
16 16 16 17 16 16 16 17 17 16 16 17 16 17 18 18
17 18 18 19 19 19 20 20 20 20 21 20 20 20 20 21
21 21 20 21 21 21 22 21 20 20 20 20 21 21 21 21
3 3 3 4 6 9 14 18 20 22 23 23 23 22 22 22
21 21 20 21 21 20 21 21 20 20 20 19 19 19 18 18
18 17 17 17 17 17 18 17 17 17 17 17 17 15 15 15
15 15 15 14 14 15 15 18 19 18 19 15 11 17 20 9
16 16 16 15 14 13 14 14 13 11 13 13 15 15 16 16
16 15 16 15 15 15 16 16 17 17 17 17 17 18 18 18
18 18 19 19 19 19 19 20 20 21 21 21 21 21 21 21
21 20 20 21 20 21 22 20 21 21 21 21 21 21 21 21
4 4 4 4 3 5 4 4 6 8 11 16 18 22 22 22
22 21 21 21 21 21 21 20 20 19 20 19 19 20 19 19
19 18 19 18 18 18 17 17 16 17 16 16 16 16 16 15
16 15 16 15 16 16 16 18 19 19 19 14 11 18 20 10
16 17 16 16 16 14 15 14 14 12 13 12 15 15 15 15
16 16 16 16 16 17 16 17 18 17 18 17 17 17 18 19
18 19 19 20 20 20 21 21 21 20 20 20 20 20 20 20
20 21 21 21 21 21 22 21 21 21 21 21 21 21 21 21
17 14 12 9 7 5 4 3 5 4 5 5 5 6 9 14
21 20 21 21 21 21 20 20 20 20 19 20 20 19 19 19
18 18 18 18 18 18 18 18 17 17 17 17 16 17 16 16
16 15 15 15 15 16 16 18 19 19 19 15 12 18 21 10
15 17 16 15 15 15 14 15 14 11 13 12 15 15 16 16
16 17 16 16 16 16 17 17 18 17 17 18 17 18 19 19
19 18 19 19 20 20 20 21 20 21 21 21 21 21 21 21
20 20 21 20 20 20 21 21 21 21 21 21 21 21 21 21
26 34 33 30 26 15 7 8 4 3 4 5 5 0 0 8
21 22 22 21 21 21 21 20 20 20 20 20 19 19 19 19
19 19 18 18 18 18 18 17 17 17 17 16 16 16 16 16
16 16 16 15 16 16 17 18 19 19 19 14 11 18 20 11
14 18 17 16 16 14 15 15 15 12 14 13 16 16 16 16
17 16 17 17 17 17 18 18 18 17 18 18 17 18 18 19
19 20 20 20 20 21 21 21 21 21 21 21 21 20 20 20
20 20 21 21 21 20 22 21 21 21 21 20 21 21 21 21
30 29 33 33 32 20 16 20 22 15 10 7 5 2 3 7
20 21 21 21 21 20 19 20 21 21 20 20 19 20 19 19
18 19 18 18 18 18 17 18 18 17 17 17 17 17 17 16
16 16 15 15 15 16 16 19 20 19 19 14 11 19 21 13
13 17 17 17 16 15 14 14 14 12 14 14 16 16 16 17
17 17 17 17 17 18 18 17 19 18 18 18 19 18 19 19
19 19 20 20 20 20 20 20 20 20 21 21 21 21 21 21
21 21 21 21 21 21 22 21 21 21 21 21 21 21 21 21
20 26 31 33 33 23 22 25 28 22 27 27 23 9 3 7
20 22 21 21 21 21 25 24 23 22 20 20 19 19 19 19
19 19 19 18 18 18 21 25 23 20 18 17 17 17 17 16
16 17 16 16 16 16 17 19 19 19 18 14 11 18 21 14
12 18 18 17 16 16 15 15 15 13 14 14 17 17 17 16
17 17 17 17 17 18 18 18 19 18 18 19 18 19 19 19
20 20 20 20 21 21 21 21 21 21 20 21 21 21 20 20
20 21 22 21 21 21 21 20 20 20 20 19 20 20 21 20
0 2 5 10 22 25 25 27 29 29 32 33 32 14 3 10
22 22 21 21 21 22 30 29 28 26 24 22 21 20 20 19
20 19 19 18 19 18 25 29 27 25 25 22 19 17 17 17
16 17 16 16 16 17 17 20 20 19 19 14 12 20 22 15
12 18 18 17 16 15 15 15 15 13 15 14 16 17 17 17
18 17 18 18 18 18 18 19 20 19 19 19 19 19 20 20
20 20 20 21 20 20 21 21 20 20 21 21 21 21 21 20
20 20 20 20 20 19 20 19 20 21 21 20 20 21 22 21
0 0 0 0 12 25 26 27 29 30 32 32 33 16 4 11
24 23 23 22 21 23 30 30 28 26 25 26 28 23 22 21
20 18 18 18 18 18 24 27 26 25 25 25 21 16 17 17
17 16 17 17 17 17 17 20 20 20 19 14 12 19 21 16
11 18 17 17 17 17 16 15 16 14 15 14 17 17 16 17
18 18 18 18 19 19 19 19 20 19 19 19 19 19 19 20
20 20 20 20 21 20 20 21 20 20 21 21 21 20 21 20
20 21 21 21 21 21 21 21 21 21 21 21 21 21 21 21
0 0 6 0 14 23 20 24 27 30 31 31 32 17 4 13
26 24 24 23 23 24 23 23 27 27 29 30 30 23 24 26
25 22 21 20 19 18 20 15 17 20 24 24 22 17 17 17
17 17 17 16 16 17 17 19 21 20 19 14 11 15 21 17
10 18 18 17 17 17 15 15 15 14 15 15 17 17 18 18
18 18 18 18 18 18 18 18 20 19 19 19 19 19 20 20
20 20 20 20 19 19 20 19 20 20 20 20 20 21 21 20
20 20 21 21 20 20 21 20 20 20 21 21 21 20 21 21
0 0 5 1 16 16 0 4 8 17 23 25 28 16 4 13
27 22 20 22 27 29 8 0 5 17 22 25 27 14 2 7
12 19 21 24 25 22 19 7 3 4 6 9 19 18 18 17
17 17 17 17 17 17 17 20 21 20 16 8 9 7 20 17
10 18 18 18 17 18 16 16 16 15 16 15 17 17 17 17
18 18 18 18 19 19 19 19 19 18 18 19 19 20 20 20
19 20 20 20 21 20 21 20 21 20 21 20 19 20 21 20
20 20 20 20 20 20 20 20 21 21 21 20 20 21 21 21
0 0 0 0 17 15 0 0 0 0 0 1 15 18 5 10
20 24 25 23 28 31 9 0 0 2 5 5 16 13 0 0
0 0 2 7 13 19 19 4 0 1 1 0 13 19 18 18
17 17 17 17 17 17 18 20 22 21 19 11 12 16 22 18
12 17 19 18 17 18 16 16 16 14 16 16 18 18 19 19
19 19 19 18 18 19 18 18 19 20 19 19 20 20 20 21
21 21 20 20 20 20 20 20 20 20 20 20 20 20 21 21
21 22 21 21 21 20 21 20 20 21 21 21 20 20 20 21
0 0 0 0 18 12 0 0 0 0 0 0 11 16 5 1
0 2 8 16 24 29 9 0 0 0 1 1 13 12 0 0
0 0 0 0 0 7 20 2 0 0 0 0 14 19 18 18
18 18 18 18 18 18 19 21 22 21 21 15 13 20 23 19
12 17 18 17 18 18 17 17 17 14 17 15 17 18 18 18
18 19 19 19 19 19 19 19 19 20 20 20 20 20 20 21
20 20 20 20 20 20 21 20 20 21 21 20 20 21 20 21
20 21 21 21 20 21 21 21 21 21 21 21 21 21 20 21
2 8 0 0 18 11 0 0 2 0 0 0 12 17 5 1
0 0 0 0 0 5 7 0 0 0 0 0 12 12 0 0
0 0 0 0 0 7 18 0 0 0 0 0 16 20 19 19
18 18 18 18 18 18 19 22 22 22 20 15 14 21 23 20
13 15 19 18 18 17 16 16 17 15 16 16 18 19 19 19
19 20 19 19 20 19 20 19 20 19 20 20 20 20 20 21
20 21 21 20 20 21 20 20 21 20 20 20 21 20 21 21
21 21 21 22 21 21 21 21 20 21 21 21 21 20 20 21
0 4 0 0 20 10 0 0 1 3 0 0 14 16 5 1
0 0 0 0 0 0 5 0 0 0 0 0 12 11 0 0
0 0 0 0 0 7 16 0 0 0 0 0 18 20 19 18
18 18 18 18 18 19 20 22 23 22 21 16 15 22 23 20
15 14 20 19 18 18 17 18 17 15 16 16 19 19 19 19
19 20 20 19 20 20 20 20 20 20 20 20 21 20 20 21
21 20 21 21 21 22 21 21 21 21 21 21 20 20 21 22
22 20 21 21 21 21 22 21 21 21 21 21 21 21 21 21
0 0 0 0 20 8 0 0 0 2 0 0 15 14 4 1
0 0 0 0 0 0 3 0 0 0 0 0 16 13 0 0
0 2 2 0 0 6 15 0 0 0 0 0 17 20 20 19
19 19 19 19 19 19 19 22 22 22 21 16 16 22 23 20
16 13 20 19 19 18 19 18 17 15 16 16 19 19 20 20
20 20 20 20 19 19 20 19 20 20 20 20 20 21 21 21
21 21 21 21 21 21 21 21 21 21 20 21 20 21 21 21
21 21 21 21 21 21 21 20 21 21 21 21 21 21 21 22
0 0 0 0 21 6 0 0 0 0 0 0 16 12 5 1
0 0 0 1 0 0 3 0 0 0 0 0 14 13 0 0
0 2 4 4 0 6 15 0 0 0 0 0 16 20 21 19
19 18 18 19 19 20 20 23 24 23 23 16 16 22 22 21
17 13 19 19 19 19 18 18 17 15 17 16 19 20 19 19
19 20 20 20 20 19 20 20 21 21 21 21 20 21 21 21
21 21 21 20 21 21 21 21 21 21 21 21 21 21 21 21
21 20 20 21 21 21 21 20 21 21 21 22 22 22 21 20
13 8 3 2 23 5 0 0 0 0 0 0 17 11 6 1
1 0 0 0 0 0 2 0 0 0 0 0 16 13 0 0
0 3 5 4 1 6 16 0 0 0 0 0 16 21 22 20
20 20 21 24 27 28 29 32 28 27 24 20 23 23 23 20
19 14 19 21 19 20 20 20 18 16 17 16 20 20 20 19
20 20 20 20 21 20 20 21 21 20 21 21 21 21 21 22
21 21 21 22 22 22 22 21 21 21 21 21 21 21 22 22
21 21 21 21 21 22 22 21 22 21 21 21 21 21 21 20
28 30 30 27 27 19 7 4 5 3 1 0 20 10 6 1
0 0 0 0 0 1 3 0 0 0 0 2 19 14 0 0
0 0 2 3 1 6 22 9 3 0 0 0 18 21 21 20
22 25 32 38 46 48 52 45 39 41 39 37 30 24 20 18
18 17 19 22 19 20 18 19 19 16 17 17 20 20 20 20
20 20 20 19 20 20 20 20 20 21 20 21 21 21 21 22
21 21 21 21 21 21 21 21 21 22 22 22 22 21 21 21
21 21 22 22 21 21 21 21 22 22 22 22 21 21 22 21
7 8 10 23 35 39 22 20 25 26 23 21 23 9 5 1
0 0 0 0 0 2 18 9 5 3 0 0 19 28 17 11
8 2 0 0 0 6 28 28 24 22 20 18 25 21 21 20
24 33 38 42 42 46 48 49 48 47 45 40 36 28 24 25
23 22 24 24 24 23 21 18 19 16 17 17 20 20 20 20
20 21 21 20 20 20 21 21 21 21 20 21 22 22 22 22
21 22 22 22 22 22 22 21 21 22 21 21 20 21 21 22
22 22 22 21 22 21 21 21 22 21 22 21 21 21 21 21
1 0 0 21 41 36 18 23 30 32 32 31 28 8 5 0
0 0 0 0 0 4 34 31 26 25 24 17 28 26 11 15
18 18 16 14 12 18 30 28 27 27 30 33 32 22 22 27
35 41 47 43 42 43 46 43 38 36 31 29 28 21 20 20
17 19 23 25 27 25 28 24 21 16 18 18 20 20 20 20
21 21 21 20 20 20 21 21 22 21 21 21 22 22 21 21
21 21 21 21 22 22 22 22 22 22 21 22 21 21 22 22
21 22 21 21 21 19 21 22 22 22 22 21 22 21 21 21
0 0 0 23 38 26 14 23 30 31 32 34 29 8 7 5
1 0 0 0 0 5 35 27 31 33 35 31 29 20 5 5
5 7 8 9 13 18 19 17 22 24 29 30 30 19 22 32
49 60 61 59 55 49 42 40 44 43 48 55 48 44 47 44
37 34 33 35 36 35 33 31 29 25 22 20 21 20 20 20
21 21 22 22 21 21 22 22 22 21 22 21 22 22 22 21
22 21 22 22 23 23 23 23 23 22 22 21 21 21 22 22
21 22 22 22 21 21 22 22 22 22 22 22 22 22 22 22
0 0 0 23 35 16 0 2 5 7 12 17 27 7 7 19
28 23 15 9 4 9 27 24 32 34 36 33 25 17 7 6
5 5 3 3 2 1 2 4 7 14 21 18 17 22 33 52
70 73 55 41 32 28 28 33 39 46 48 49 53 59 59 58
55 51 39 34 32 30 30 31 32 28 21 22 24 21 21 21
21 21 21 22 22 21 22 22 22 22 22 22 22 22 22 21
21 22 22 22 22 22 23 23 22 22 22 22 22 23 22 22
22 22 22 21 21 22 22 21 22 23 22 21 22 22 22 22
0 0 0 21 36 16 0 0 0 0 0 0 23 9 8 22
34 33 32 31 31 30 23 17 26 31 34 32 27 19 9 6
5 3 3 3 3 2 3 3 3 11 17 12 9 15 28 44
65 48 34 19 11 7 9 13 17 28 41 41 42 36 41 46
48 47 41 35 33 32 32 35 38 35 30 23 21 25 22 21
22 22 22 22 23 22 22 22 23 21 22 21 21 22 21 22
22 22 23 23 23 22 23 23 23 23 22 20 22 21 21 21
22 22 22 22 22 22 21 22 21 22 22 22 22 21 22 21
0 0 0 18 35 13 0 0 0 0 0 0 21 9 7 20
33 33 33 34 34 33 13 0 2 7 12 16 19 22 9 5
2 0 0 1 3 4 4 5 6 15 16 5 6 10 21 37
37 27 8 5 4 4 3 6 15 17 32 40 30 36 39 28
26 31 34 31 34 33 32 27 27 33 40 33 26 24 24 21
22 22 21 21 22 21 21 20 22 22 22 22 22 22 22 22
22 22 22 22 22 22 21 23 22 23 21 21 21 21 22 22
23 22 22 22 22 22 22 22 22 22 21 21 22 22 22 22
0 0 0 17 31 10 0 0 0 3 14 13 19 16 13 18
25 27 28 30 32 32 9 0 0 0 0 2 11 22 7 3
0 0 0 0 2 3 1 3 7 16 18 3 3 12 16 24
22 26 41 46 43 39 29 9 7 17 22 38 41 29 32 37
32 28 26 29 31 35 33 29 26 23 21 34 40 28 24 23
20 21 22 22 22 22 21 21 22 22 22 22 22 22 22 21
22 22 22 23 23 23 23 23 23 23 20 21 23 23 22 22
22 22 22 23 23 22 22 22 23 22 22 22 22 22 22 22
0 0 0 17 29 8 0 0 0 3 14 14 14 15 11 14
14 18 22 20 25 30 7 0 0 0 0 0 11 23 5 3
0 0 0 0 0 0 0 0 0 11 15 7 7 13 15 26
32 34 30 28 36 43 46 38 17 12 23 38 39 43 27 27
30 30 31 32 31 29 26 26 24 21 26 30 39 48 26 21
21 20 21 19 16 17 21 22 23 23 23 22 23 23 23 23
23 22 23 23 23 23 24 23 22 22 21 21 23 23 23 23
23 23 22 23 22 22 22 22 23 22 23 23 23 22 22 22
0 0 0 21 30 6 0 0 0 0 4 6 14 13 11 13
13 15 20 19 25 29 6 0 0 0 0 0 9 20 1 0
0 0 0 1 0 0 0 0 0 10 13 9 9 6 8 6
4 1 0 1 5 20 33 38 37 25 21 37 35 32 36 31
22 27 28 26 26 33 36 35 25 26 25 26 40 44 44 26
19 19 21 19 10 12 22 23 24 23 23 22 22 23 22 22
23 23 23 23 23 23 23 24 23 23 23 22 23 23 23 22
23 23 23 22 23 23 23 23 23 23 23 23 23 22 22 22
0 0 0 23 30 5 0 0 0 0 0 0 10 7 10 7
6 11 17 21 27 27 5 0 0 0 0 0 12 16 0 0
0 0 0 3 2 0 0 0 0 11 19 14 10 6 4 1
0 2 2 4 10 12 14 26 34 41 25 31 37 28 30 28
26 27 30 34 39 35 34 29 26 27 29 33 36 47 50 44
27 18 21 22 19 20 23 22 23 23 23 23 23 23 24 23
23 23 23 23 24 23 24 24 24 23 23 23 23 23 23 24
23 24 23 23 23 22 21 21 23 22 22 22 22 22 23 22
0 0 0 27 30 4 0 0 0 0 0 0 16 12 14 4
0 0 0 1 4 11 4 0 0 0 0 0 14 15 0 0
0 0 0 4 6 3 0 0 0 11 24 21 17 12 11 10
8 9 13 17 19 19 22 20 25 45 34 27 32 34 23 27
22 22 24 27 27 27 27 29 26 24 25 26 35 40 45 49
38 24 20 22 23 23 23 23 24 23 24 24 24 24 24 23
23 24 24 23 24 23 24 24 24 23 23 23 23 23 22 22
23 23 23 23 22 23 24 22 23 23 23 23 23 22 22 22
12 6 5 27 28 3 0 0 0 0 0 0 20 17 15 4
0 0 0 0 0 3 3 0 0 0 0 0 15 12 0 0
0 0 6 8 8 5 0 0 0 12 26 23 28 25 24 25
23 24 30 31 25 32 33 27 24 38 49 30 33 29 31 27
29 24 29 29 27 27 28 28 25 24 23 25 22 29 41 45
42 33 22 22 23 23 23 22 22 22 23 23 24 24 23 23
23 23 23 23 24 23 23 24 24 23 21 21 23 24 24 23
23 22 23 23 23 22 22 22 21 21 22 22 22 22 22 22
20 19 17 21 21 8 0 0 1 1 0 0 22 16 14 3
0 0 0 0 0 3 2 0 0 4 0 0 16 9 0 0
0 0 4 10 5 1 0 0 0 11 24 16 38 50 51 45
41 29 29 37 48 45 41 38 33 31 62 37 31 32 36 27
26 32 30 27 28 29 25 24 21 25 24 24 28 24 29 38
44 36 27 22 23 23 23 23 22 23 23 24 24 23 24 23
23 23 23 24 24 24 24 24 24 23 20 19 24 24 24 23
23 22 22 22 22 22 23 23 23 22 22 22 22 22 22 22
0 2 1 14 20 19 20 12 12 13 9 6 24 14 13 3
0 0 5 0 0 3 3 0 5 9 2 0 17 8 0 0
0 0 0 5 2 0 0 0 0 9 25 26 61 76 78 77
69 54 42 44 46 49 42 38 41 34 63 50 35 34 33 34
27 26 26 30 37 33 28 30 31 26 25 25 25 28 25 31
42 41 36 23 22 23 24 23 23 23 23 23 23 23 24 24
23 24 24 24 24 24 24 24 24 24 20 18 24 24 24 23
23 23 23 22 23 22 23 23 22 22 22 21 22 21 22 22
0 6 1 17 21 16 10 12 19 25 27 28 28 16 11 3
0 4 10 1 0 5 13 7 12 11 8 1 18 6 0 0
0 0 0 5 3 0 0 0 0 7 28 53 79 84 86 89
91 83 66 58 58 67 66 48 40 42 52 67 42 39 36 33
38 30 30 29 28 38 35 34 32 32 28 25 31 29 31 27
37 41 39 28 22 23 23 23 23 23 23 23 23 23 24 24
23 23 23 23 24 23 23 24 24 24 22 20 24 22 23 23
22 22 22 22 22 22 22 23 22 22 22 22 21 21 21 22
3 0 2 19 22 11 0 0 0 4 12 29 29 17 12 3
0 0 2 0 0 5 28 27 30 28 28 26 30 7 0 0
0 0 0 6 4 0 0 0 0 5 37 73 84 90 90 94
94 95 93 75 67 74 84 77 61 49 53 72 49 43 39 40
41 38 37 38 37 33 35 40 35 29 33 31 31 31 32 32
29 47 51 38 27 24 23 23 23 23 23 23 23 23 24 25
24 24 24 24 24 24 23 24 24 23 23 22 23 23 23 23
23 23 22 22 23 22 22 22 22 21 21 21 22 21 22 22
12 1 0 21 23 9 0 0 10 9 11 29 26 14 12 8
1 0 0 0 0 6 29 29 31 30 32 36 36 17 7 7
2 0 0 9 5 0 0 0 0 3 47 80 85 93 97 98
98 98 98 94 76 87 97 96 82 67 58 66 59 41 47 40
35 41 44 40 44 46 40 35 39 35 31 33 35 31 31 29
35 37 55 51 36 23 23 23 23 23 23 23 24 23 24 23
23 23 23 23 23 23 24 23 23 24 24 24 24 23 23 23
22 23 23 22 22 22 23 22 22 21 22 21 21 22 22 22
5 0 0 24 25 8 0 0 7 17 19 28 21 13 14 13
1 0 0 0 0 6 26 27 28 28 33 36 36 27 23 23
20 18 17 18 14 10 7 6 5 11 63 83 87 97 101 103
103 104 102 102 97 89 101 108 103 92 74 61 67 46 41 44
41 36 39 42 43 42 40 41 37 37 32 34 36 41 34 33
38 37 47 48 35 27 22 22 23 23 23 23 23 23 24 24
23 24 24 24 24 24 24 24 24 23 24 23 23 23 23 24
22 22 23 22 23 22 22 22 22 22 22 21 21 21 21 22
6 0 1 27 27 8 0 0 0 4 20 30 19 13 16 8
0 0 0 0 0 8 26 24 26 26 26 23 22 25 26 26
25 23 25 24 22 20 19 16 15 25 73 85 92 98 104 107
108 107 106 107 106 98 88 103 112 107 84 61 59 58 45 43
45 49 50 48 44 43 41 43 41 40 34 38 37 41 48 38
41 41 36 41 32 32 24 23 23 23 23 23 24 23 24 24
23 23 24 23 24 24 24 24 23 24 24 24 24 23 24 24
23 23 22 22 23 23 22 22 22 22 22 22 22 21 21 21
0 0 2 28 27 9 0 0 0 0 18 32 18 13 15 15
10 7 4 3 1 9 29 23 23 23 24 23 24 27 27 28
29 28 26 25 25 26 29 27 24 37 75 86 94 102 106 108
108 110 114 115 115 114 108 94 99 104 89 69 54 56 57 48
46 44 49 47 49 49 46 48 45 40 41 32 36 37 43 48
41 43 39 35 31 27 29 23 24 24 23 23 23 24 24 24
24 24 24 25 25 24 24 24 23 24 23 23 23 23 23 24
22 23 23 23 23 23 23 23 23 22 22 21 22 22 22 21
0 0 2 28 27 7 0 0 0 0 16 33 17 14 15 25
32 32 29 30 29 30 33 25 25 25 26 28 30 31 27 30
33 34 25 23 24 29 34 33 30 48 78 90 97 102 105 104
106 111 114 115 115 115 117 115 111 103 87 73 56 52 51 54
52 52 53 52 48 47 52 46 49 43 45 44 30 37 39 41
38 36 35 29 27 30 30 24 24 24 24 24 24 24 24 24
23 24 24 24 24 24 24 24 24 24 24 24 24 24 24 24
23 23 23 23 23 23 22 22 22 23 22 21 22 21 21 21
0 0 2 28 26 5 0 0 0 0 18 33 18 14 15 29
40 39 39 39 39 38 34 26 24 25 24 28 33 34 29 30
34 34 26 22 20 27 34 33 31 56 81 92 99 104 104 105
107 111 115 116 115 117 117 117 116 109 88 69 56 41 51 46
50 57 54 52 53 45 48 52 51 51 43 44 42 30 31 33
36 26 28 20 25 30 31 24 24 23 24 23 24 23 23 23
24 24 24 24 24 23 24 23 23 23 23 22 22 22 22 23
23 23 23 22 23 22 23 23 23 22 22 22 22 22 21 21
0 0 2 29 27 4 0 0 0 0 17 31 15 14 15 20
26 28 30 32 35 37 31 8 9 6 8 12 22 33 29 25
19 21 22 20 20 22 21 17 23 65 85 94 102 104 103 105
108 112 115 116 117 118 118 117 115 109 87 68 64 48 33 49
52 50 60 64 60 52 47 55 53 56 53 45 46 40 28 28
32 24 22 17 19 33 39 27 25 24 24 23 23 24 24 24
23 23 24 24 23 24 24 24 24 24 24 24 23 23 24 24
24 23 23 23 22 22 22 22 22 22 22 22 21 22 22 22
0 0 2 29 28 3 0 0 0 0 16 30 14 14 15 18
20 19 19 19 19 19 20 1 0 0 0 0 4 30 27 9
0 1 4 6 18 23 8 0 12 70 89 97 103 104 104 107
109 114 117 118 119 119 118 117 111 101 88 68 61 52 38 34
42 56 64 70 60 56 55 51 58 60 56 49 45 44 37 25
26 21 22 18 16 36 47 30 29 24 24 24 24 23 24 24
23 24 24 24 24 24 24 24 24 24 24 23 23 23 24 23
23 23 24 23 23 23 23 24 23 23 22 22 22 22 22 21
12 14 17 29 26 3 0 0 0 0 20 33 14 13 14 21
25 25 24 24 23 22 19 2 0 0 0 0 8 31 19 0
0 0 0 2 20 24 8 0 27 75 91 98 104 106 104 106
109 113 117 118 118 118 118 117 105 95 89 70 59 54 42 33
37 40 44 43 45 44 55 56 54 54 53 56 51 42 44 36
30 20 22 20 19 50 60 39 26 24 23 24 23 23 24 23
24 24 24 24 23 24 24 24 24 24 24 23 23 23 23 23
23 23 23 23 22 23 22 23 22 22 22 22 22 22 22 22
29 30 30 24 16 7 4 1 0 0 21 32 14 12 15 23
27 27 27 27 28 28 21 1 0 0 0 0 10 29 11 0
0 0 0 1 22 24 8 0 47 79 94 100 107 107 105 105
109 115 118 119 119 118 118 117 107 89 84 72 57 51 44 36
34 41 50 48 58 46 46 49 61 58 57 55 58 47 43 46
36 25 25 26 27 55 64 42 26 25 23 23 23 23 24 22
23 23 24 24 24 24 24 24 24 24 23 23 23 22 23 23
23 23 23 23 23 23 22 23 23 22 22 22 21 22 21 21
28 28 28 27 24 26 25 23 21 18 25 26 16 16 18 17
19 20 23 23 25 29 22 0 0 0 0 1 3 28 7 0
0 0 0 1 22 22 6 1 63 83 96 104 111 108 105 107
111 117 119 119 119 118 118 118 116 100 81 74 63 50 45 38
33 35 47 49 54 56 45 43 51 64 67 60 55 60 50 43
46 30 27 40 38 55 62 43 30 25 21 22 22 23 24 24
23 21 20 20 20 19 19 21 24 23 23 24 24 23 23 23
23 23 23 23 23 22 22 23 22 22 22 22 22 20 21 21
23 23 24 24 24 24 24 25 24 24 24 24 24 24 24 22
21 20 20 19 20 28 27 3 0 0 0 0 1 25 5 0
0 0 0 1 23 21 6 6 67 83 96 103 106 102 100 103
111 116 119 119 119 119 118 119 119 117 97 70 63 50 42 38
32 31 41 51 50 55 53 46 44 57 75 71 55 59 60 47
46 40 29 49 42 40 52 45 31 16 7 7 10 17 23 22
23 15 4 4 3 3 4 12 23 24 23 22 23 23 23 22
23 22 22 22 22 22 23 23 22 22 22 21 22 21 21 21
23 24 24 23 23 24 23 24 24 24 24 24 24 24 25 25
24 24 25 25 24 27 29 7 0 0 0 1 2 25 4 0
0 0 0 1 23 21 6 10 69 81 91 92 90 87 82 97
107 114 117 117 118 118 118 118 118 118 116 85 56 48 39 33
33 27 34 47 52 48 57 50 46 49 70 85 65 53 66 57
46 47 37 49 43 28 43 48 30 15 2 0 0 11 23 23
23 14 1 1 1 1 1 11 24 24 23 23 23 23 23 23
22 23 23 22 22 22 23 23 22 21 22 22 22 22 22 22
17 17 18 18 19 20 21 21 21 21 21 22 22 23 23 23
23 24 24 24 24 26 26 1 0 0 0 0 2 25 4 0
0 0 0 0 22 22 7 9 63 60 64 56 48 49 53 63
77 89 109 115 116 118 119 119 119 118 118 110 65 45 39 29
27 30 28 37 47 53 50 56 49 51 57 88 79 55 61 55
55 47 46 40 42 32 39 51 33 20 5 0 0 10 22 22
22 11 1 0 1 1 1 12 24 25 24 24 23 24 23 23
22 22 22 22 22 22 22 23 22 23 22 22 22 21 22 21
0 0 0 0 0 1 1 1 2 2 3 3 4 5 6 7
8 9 12 18 23 25 22 0 0 0 0 0 2 26 5 0
0 0 0 0 22 22 5 10 52 35 31 16 14 23 33 45
54 64 83 105 118 119 119 118 119 119 119 118 99 49 39 31
23 23 25 30 40 50 51 50 55 47 54 79 79 64 62 61
52 51 50 39 37 29 41 51 39 25 10 1 0 10 23 24
24 12 2 1 2 1 1 11 24 24 25 24 24 24 23 23
24 23 23 23 23 22 22 22 22 22 23 22 22 22 23 23
0 0 0 0 0 0 0 0 0 0 0 0 0 0 0 0
0 0 1 19 24 25 23 2 1 0 1 5 2 26 10 1
1 2 0 1 23 22 12 11 33 39 31 31 26 38 58 83
92 94 96 107 110 117 120 120 120 119 119 119 112 69 37 27
22 25 24 19 26 42 53 49 54 53 51 63 77 68 59 62
48 50 50 44 35 38 42 55 47 33 19 1 0 12 23 23
24 12 2 2 2 2 1 9 25 24 24 24 23 24 23 23
23 22 22 22 22 22 21 22 23 23 23 22 23 22 22 22
0 0 0 0 0 0 0 0 0 0 0 0 0 0 0 0
0 0 0 20 24 24 30 28 24 21 23 25 22 26 30 29
27 28 26 27 30 27 21 28 42 47 45 42 47 46 58 81
96 102 107 106 107 114 119 119 119 119 119 119 112 83 45 26
21 19 27 24 18 19 34 45 45 52 48 53 73 76 67 62
55 46 52 51 32 44 46 51 48 39 28 5 0 12 23 24
24 16 7 7 7 7 7 10 22 23 22 22 23 23 22 22
22 23 23 23 23 23 23 23 22 22 22 22 23 23 23 23
0 0 0 0 0 0 0 0 0 0 0 0 0 0 0 0
0 0 0 20 25 24 32 36 30 31 32 29 24 22 33 39
36 36 37 39 37 23 23 30 51 61 47 37 46 20 11 32
62 84 99 98 94 95 101 104 103 100 105 106 89 65 43 26
14 16 16 20 21 17 18 22 30 36 44 53 63 77 75 65
62 50 48 54 40 48 51 46 49 43 36 11 0 12 23 24
24 14 4 4 4 5 5 10 23 25 25 25 25 24 23 23
23 22 23 23 22 22 23 22 22 23 23 22 23 23 22 23
0 0 0 0 0 0 0 0 0 0 0 0 0 0 0 0
0 0 0 20 25 24 31 30 26 28 32 30 24 20 24 29
30 30 31 31 31 24 25 13 43 82 49 24 24 32 31 31
35 38 48 61 74 69 73 75 77 88 100 109 98 75 64 47
27 17 21 27 23 16 25 25 20 23 39 49 59 72 74 73
60 57 50 55 50 52 56 40 46 45 41 22 2 12 24 25
24 14 3 3 3 3 3 9 24 24 25 24 24 24 23 24
24 24 23 24 23 23 23 23 23 23 23 22 22 22 22 22
0 0 0 0 0 0 0 0 0 0 0 0 0 0 0 0
0 0 0 20 26 24 29 20 22 22 27 29 24 21 19 15
16 17 17 16 20 19 23 9 58 90 63 41 36 50 39 48
56 37 52 63 61 77 101 113 118 119 119 119 90 83 63 49
40 20 29 45 36 33 54 36 27 35 32 44 53 63 76 69
59 54 46 56 64 54 50 40 38 42 41 32 9 16 24 25
24 14 2 2 3 3 2 9 24 25 24 24 25 24 24 24
23 23 23 23 23 23 23 23 23 22 23 22 22 22 22 22
0 0 0 0 0 0 0 0 0 0 0 0 0 0 0 0
0 0 0 18 25 23 27 7 4 6 9 12 12 18 21 19
19 22 24 22 25 17 23 34 93 102 75 50 49 54 27 32
46 58 79 94 100 108 118 119 118 118 119 119 93 77 73 45
38 35 38 40 48 76 76 21 46 63 42 29 46 56 68 72
60 51 50 53 72 53 52 42 33 35 43 44 15 16 24 25
24 14 2 3 3 2 2 9 24 24 24 23 23 23 23 24
23 23 23 23 23 23 23 23 22 22 22 21 21 21 21 22
0 0 0 0 0 0 0 0 0 0 0 0 0 0 0 0
0 0 0 16 25 21 28 5 0 0 0 0 3 18 22 27
29 30 36 28 33 28 27 61 80 85 75 45 41 46 41 51
74 92 105 109 110 111 117 118 118 117 118 118 111 81 68 59
34 61 87 91 89 91 82 54 78 76 54 31 23 45 57 63
58 48 49 49 67 50 48 40 31 33 39 51 31 14 22 24
23 13 1 1 1 1 1 10 23 24 23 24 23 22 22 23
22 22 22 22 22 22 22 21 22 21 21 22 21 21 21 22
0 0 0 0 0 0 0 0 0 0 0 0 0 0 0 0
0 0 0 14 24 21 28 7 0 0 0 0 1 21 20 27
26 22 30 20 23 30 38 79 93 65 91 57 37 70 48 56
80 102 109 114 113 113 118 118 117 117 117 117 118 117 113 102
84 97 115 114 111 99 86 58 90 82 70 49 22 30 43 53
57 42 47 43 57 47 41 39 37 30 35 46 43 21 22 23
23 12 1 1 1 1 1 10 23 23 22 22 22 22 22 22
22 22 22 22 22 21 21 22 21 20 20 20 20 20 20 20
0 0 0 0 0 0 0 0 0 0 0 0 0 0 0 0
0 0 0 12 24 21 24 7 0 0 0 0 0 21 18 25
17 1 10 16 11 27 61 94 91 68 99 84 34 87 68 63
82 103 111 115 115 117 117 118 117 117 118 118 118 117 116 114
111 116 117 117 115 107 98 42 90 83 79 74 21 15 33 40
50 49 38 39 47 46 39 34 39 33 35 39 45 28 21 22
22 11 0 0 1 1 0 10 22 22 22 22 22 22 22 22
21 21 21 21 21 20 20 20 19 20 21 20 20 20 20 21
0 0 0 0 0 0 0 0 0 0 0 0 0 0 0 0
0 0 0 12 24 20 12 0 0 0 0 0 1 23 19 27
17 0 7 17 4 41 86 95 91 88 104 89 34 89 82 73
90 107 112 116 117 118 118 118 118 117 117 117 117 117 117 117
114 116 118 117 117 109 92 67 82 78 87 77 18 10 22 33
43 50 41 37 37 36 38 37 31 32 33 43 40 37 22 23
23 12 1 2 1 1 0 8 23 23 22 21 22 21 21 22
21 22 22 21 22 21 21 21 20 20 20 20 20 20 20 20
0 0 0 0 0 0 0 0 0 0 0 0 0 0 0 0
0 0 0 11 24 20 9 0 0 0 0 0 2 24 18 27
16 0 8 18 3 75 98 94 96 93 111 89 40 94 87 83
99 108 112 117 118 118 118 118 119 118 118 118 117 118 117 118
117 117 117 117 117 102 57 97 82 81 95 70 10 8 21 31
37 38 42 37 30 39 38 43 30 33 33 44 37 38 29 23
23 18 15 15 9 9 12 15 23 23 23 23 22 22 22 22
22 22 22 21 21 21 20 21 21 21 20 21 20 20 21 20
0 0 0 0 0 0 0 0 0 0 0 0 0 0 0 0
0 0 0 11 24 20 8 0 0 0 0 0 1 23 19 29
15 0 8 19 22 103 109 96 93 90 107 92 47 100 91 89
106 109 114 116 118 120 119 119 118 118 118 116 116 118 118 118
117 118 118 118 117 104 69 88 91 87 97 51 4 6 19 28
33 39 42 37 29 34 36 41 33 28 36 42 38 36 35 23
23 23 23 23 21 23 23 22 23 23 23 22 22 22 22 22
22 21 21 22 21 21 21 21 21 21 20 20 20 20 20 20
0 0 0 0 0 0 0 0 0 0 0 0 0 0 0 0
0 0 0 11 24 20 8 0 0 0 1 1 1 24 20 29
17 1 7 19 62 112 115 94 87 92 99 87 59 101 93 94
109 110 113 116 117 118 118 119 118 119 119 118 118 117 118 118
117 117 118 118 109 101 79 88 93 97 95 22 6 6 12 26
31 36 34 35 29 33 41 38 31 33 34 45 42 37 35 27
25 24 24 24 23 23 24 23 23 23 24 23 23 23 22 22
22 22 22 22 22 22 22 21 21 21 20 21 21 21 20 21
0 0 0 0 0 0 0 0 0 0 0 0 0 0 0 0
0 0 0 10 24 21 9 2 2 0 3 9 2 24 22 30
21 8 8 27 90 118 117 102 87 93 90 67 84 94 92 100
107 109 112 116 117 117 118 119 119 119 119 118 118 119 119 118
116 118 118 114 83 103 108 100 104 102 64 10 3 3 12 30
30 32 35 29 34 34 46 40 34 35 33 49 41 40 41 29
24 23 23 23 23 22 23 24 23 23 23 22 22 22 22 23
22 22 22 22 22 21 21 21 21 20 21 20 21 21 21 21
0 0 0 0 0 0 0 0 0 0 0 0 0 0 0 0
0 0 0 10 24 21 13 9 10 6 11 16 12 27 24 31
18 14 9 31 100 118 118 115 101 103 116 109 96 86 93 103
105 108 110 113 115 115 116 118 119 119 119 119 118 119 119 117
117 118 117 116 108 116 115 106 102 84 30 10 6 1 6 25
33 35 32 25 31 33 41 42 36 31 37 45 54 42 41 34
23 23 24 23 22 22 23 23 23 22 23 22 22 22 22 22
22 22 21 21 22 21 21 21 20 21 20 20 21 21 22 20
0 0 0 0 0 0 0 0 0 0 0 0 0 0 0 0
0 0 0 11 24 20 24 32 34 34 35 35 35 38 29 31
13 16 12 25 85 108 103 86 81 101 115 109 98 92 98 102
106 108 112 114 115 115 116 117 118 119 118 119 119 119 119 118
117 118 117 108 109 109 108 104 86 62 35 14 5 1 5 25
34 32 31 28 31 36 35 42 40 30 49 50 63 42 39 33
25 23 23 23 23 22 23 24 23 23 23 22 22 22 22 23
22 22 22 21 21 21 21 22 21 20 20 21 21 21 21 21
0 0 0 0 0 0 0 0 0 0 0 0 0 0 0 0
0 0 0 11 24 20 28 40 41 41 41 41 41 42 35 30
8 7 10 22 41 85 76 85 89 76 83 89 92 96 98 104
107 109 111 113 114 113 115 117 119 119 119 119 119 119 119 118
117 118 118 102 100 102 103 89 76 68 38 17 4 0 7 22
35 33 26 28 28 36 33 40 36 30 50 62 59 43 38 35
28 24 24 23 22 22 23 23 22 22 23 22 22 23 22 22
23 22 22 22 21 20 21 21 20 20 20 20 21 21 21 22
0 0 0 0 0 0 0 0 0 0 0 0 0 0 0 0
0 0 0 11 24 20 22 28 27 28 28 27 28 28 27 29
8 2 8 24 21 30 53 66 86 92 88 90 101 99 98 105
109 111 114 114 115 114 114 117 118 119 120 120 119 119 118 117
116 116 114 91 92 96 89 88 81 70 42 23 9 0 8 24
26 32 23 29 30 37 36 35 37 34 52 58 55 40 36 31
33 25 23 23 21 22 24 24 23 24 22 22 23 22 22 22
22 22 22 21 21 22 21 22 21 21 20 20 21 25 26 26
0 0 0 0 0 0 0 0 0 0 0 0 0 0 0 0
0 0 0 11 24 19 15 12 12 12 12 12 13 12 14 27
8 0 6 23 22 23 23 24 53 84 94 102 105 100 101 107
111 113 115 115 112 113 111 114 117 119 120 119 120 119 120 118
116 116 110 71 83 88 91 90 91 87 58 32 14 4 11 23
23 29 20 29 30 37 44 29 33 35 50 58 56 37 36 29
33 26 24 23 23 22 22 23 22 22 22 22 22 22 22 22
23 22 22 21 22 21 21 21 23 26 24 23 24 32 34 33
0 0 0 0 0 0 0 0 0 0 0 0 0 0 0 0
0 0 0 12 24 19 17 15 14 13 13 12 13 12 15 28
10 2 7 24 22 23 23 24 41 68 84 95 102 100 101 109
113 115 117 116 112 111 110 112 118 119 120 120 119 119 118 118
115 113 110 91 112 114 104 109 108 95 63 34 15 10 17 24
19 26 23 29 32 40 45 34 31 32 43 51 54 32 35 30
29 27 23 23 22 20 23 23 23 22 22 22 22 22 22 22
21 21 22 21 20 20 21 21 31 40 39 39 38 39 38 37
0 0 0 0 0 0 0 0 0 0 0 0 0 0 0 0
0 0 0 14 24 19 19 18 17 17 16 16 15 13 17 29
22 23 27 26 21 22 23 26 41 60 78 87 96 96 101 109
115 118 118 116 112 110 109 109 113 117 119 120 119 120 118 117
115 112 110 110 117 118 118 117 108 96 63 33 15 11 18 24
19 23 25 31 34 48 50 37 27 31 39 51 45 33 28 29
28 28 23 23 21 20 22 24 23 22 21 22 21 22 22 22
22 22 22 22 21 21 21 20 33 41 41 40 40 40 41 40
2 1 2 2 3 3 4 4 5 5 5 6 6 7 7 8
8 9 10 19 23 19 19 19 19 19 19 18 17 14 17 27
25 30 31 25 21 22 23 25 45 60 74 86 87 86 93 107
117 119 120 119 116 114 111 108 112 116 120 120 119 119 117 117
113 109 109 109 117 118 119 117 109 97 62 28 15 14 19 25
19 25 25 33 36 46 61 37 29 31 36 46 42 29 30 29
28 27 23 22 20 18 23 24 23 22 22 22 22 22 22 22
22 22 21 21 21 21 21 21 36 41 41 41 40 40 41 40
13 13 14 16 17 17 17 17 18 18 18 19 19 19 19 19
19 18 18 18 19 18 18 19 18 18 18 18 17 14 16 19
17 17 20 20 20 22 22 23 39 65 72 77 81 76 80 104
116 119 120 119 117 115 112 109 113 116 119 119 118 118 118 112
110 108 106 108 118 119 118 118 112 99 64 27 20 16 24 26
23 22 30 34 33 42 68 40 27 30 36 46 41 33 32 27
24 19 13 22 20 16 21 23 23 22 21 22 22 22 22 22
23 22 22 22 22 21 21 22 37 41 40 40 41 41 40 40
14 12 13 17 17 18 18 18 18 18 19 19 19 18 19 19
19 18 18 18 19 18 19 19 19 19 18 17 17 15 17 18
18 16 19 19 20 21 22 22 26 52 64 66 70 64 54 91
113 118 120 120 119 117 114 112 114 116 118 118 118 116 116 110
102 103 104 110 119 118 118 118 115 102 59 26 22 19 27 26
21 21 32 35 34 42 62 42 30 29 36 44 38 39 32 22
20 11 1 17 16 7 17 24 24 23 23 23 23 23 23 22
22 22 22 22 21 21 22 22 38 41 41 40 40 40 40 40
15 12 14 16 17 17 18 18 18 19 19 19 19 19 19 18
18 17 17 17 17 17 19 20 20 19 18 18 18 16 18 19
19 18 19 20 21 21 22 21 23 44 69 83 84 83 77 81
104 117 121 120 119 118 115 113 114 115 115 117 115 115 112 110
108 105 105 113 119 119 119 118 114 101 61 29 26 27 27 26
20 19 32 39 44 43 59 46 30 28 33 45 41 46 40 23
20 8 4 11 12 5 15 22 22 22 22 22 21 22 22 21
22 21 21 21 21 20 19 21 40 41 40 40 40 40 40 40
5 6 7 7 8 9 10 11 11 10 10 8 6 4 4 3
7 13 13 16 17 19 20 20 20 20 19 18 18 17 17 19
19 18 19 19 20 21 21 21 26 59 85 96 100 104 101 89
103 115 119 120 119 117 117 116 115 113 112 114 113 111 109 106
105 102 103 111 119 119 119 118 114 98 62 29 28 27 32 23
24 19 33 41 53 44 56 61 33 28 31 38 45 44 45 35
24 9 11 14 10 10 19 22 23 23 22 22 22 22 22 21
21 20 20 20 20 19 18 21 40 40 40 40 40 39 40 40
0 0 0 0 0 3 9 11 12 12 14 12 10 8 1 0
4 15 17 18 19 19 19 19 20 19 19 19 18 18 18 20
21 19 20 19 21 21 21 21 23 48 73 93 100 104 102 100
105 113 117 118 117 119 117 117 116 114 115 112 111 108 105 101
102 104 104 113 120 119 118 118 114 97 62 34 34 30 33 20
30 25 31 40 56 48 56 66 36 31 30 38 44 46 50 40
28 8 6 4 2 10 21 22 22 22 22 21 21 21 22 21
21 20 20 20 20 19 18 23 41 40 40 40 40 40 39 39
0 0 0 1 0 15 31 31 32 31 31 29 30 29 11 1
6 15 17 18 19 19 19 19 20 19 20 19 19 18 19 19
20 20 19 19 20 20 21 21 23 34 55 77 92 99 101 104
103 110 115 117 117 116 117 115 117 116 114 110 109 107 103 102
103 103 103 116 120 119 119 118 114 97 60 42 38 37 23 21
39 29 33 47 61 61 58 64 40 30 29 32 44 48 50 52
24 11 1 0 0 6 16 19 21 22 22 21 22 21 22 21
20 20 20 19 19 18 17 26 41 41 40 40 40 40 40 40
0 0 1 4 4 16 34 33 34 33 32 30 36 39 25 9
11 13 15 16 18 19 19 19 19 20 19 19 20 20 19 20
20 20 20 20 20 20 21 20 21 25 51 65 78 94 101 103
103 109 115 117 116 115 114 116 116 116 112 109 108 107 105 104
104 102 105 119 120 120 120 117 109 92 59 49 41 36 23 20
43 34 34 58 68 74 56 65 39 30 34 36 41 49 51 55
38 12 3 0 0 4 13 14 20 21 21 22 21 20 20 20
20 20 19 19 19 18 16 29 41 40 40 40 39 40 39 39
0 0 10 16 17 19 35 38 39 38 38 37 39 39 30 14
14 12 13 15 18 19 21 21 21 21 21 21 20 21 19 18
19 19 19 19 19 20 20 21 21 22 41 60 73 92 101 104
104 105 115 116 117 115 115 115 114 113 112 111 107 104 103 102
99 100 111 119 119 119 118 115 107 89 59 52 44 36 26 18
42 40 40 54 82 72 52 54 37 37 34 41 33 46 54 50
48 11 8 0 0 2 11 13 19 21 21 21 21 20 20 20
19 18 15 13 13 13 12 30 40 40 39 40 39 39 39 39
6 8 14 17 17 18 26 28 27 26 26 26 25 24 20 14
13 13 12 12 12 12 21 19 20 21 21 20 21 21 20 20
19 20 20 19 20 20 20 20 20 23 48 67 84 94 102 102
100 99 114 117 116 115 111 113 113 111 109 105 105 103 102 100
103 107 113 119 119 119 119 117 111 91 61 56 44 40 32 26
38 43 48 48 90 70 56 43 41 44 32 46 30 45 49 32
37 23 3 0 0 0 11 13 18 20 20 20 20 19 20 19
19 14 1 0 0 0 0 19 28 29 30 31 32 32 33 34
12 13 14 14 16 16 16 17 17 18 20 20 20 20 16 7
6 7 6 6 7 8 21 20 19 20 20 20 20 20 20 19
19 18 19 19 19 19 19 19 20 31 59 75 94 102 101 96
92 91 113 117 115 114 109 109 110 108 106 103 100 101 102 104
108 111 117 118 119 120 120 116 109 93 62 57 46 46 38 30
34 36 48 47 83 72 54 39 47 40 33 45 36 46 40 26
25 27 3 0 0 0 10 11 16 19 19 19 19 19 20 19
18 7 0 0 0 0 0 0 0 0 0 1 1 2 2 3
12 8 3 3 2 2 2 1 1 10 20 20 20 20 15 7
6 6 6 7 7 8 20 20 17 17 18 18 18 19 19 18
19 19 20 19 19 19 19 19 20 37 66 77 95 98 97 88
93 83 103 112 111 109 109 105 102 101 100 100 100 103 106 107
111 111 116 119 119 120 120 118 109 91 61 53 50 52 45 37
33 27 47 56 66 65 50 46 59 34 30 36 37 45 41 21
16 26 2 0 6 9 11 11 16 19 19 19 19 19 19 19
16 5 0 0 0 0 0 0 0 0 0 0 0 0 0 0
10 2 0 0 0 0 0 0 1 11 20 20 20 20 15 6
5 5 5 5 5 6 19 20 18 17 16 17 17 17 17 16
17 18 19 19 18 18 19 19 19 38 68 82 90 93 84 88
96 73 94 103 105 103 102 101 97 98 101 100 104 107 110 112
114 115 117 118 119 119 120 116 106 87 60 51 58 55 49 39
32 31 42 59 52 62 45 57 63 34 24 27 34 39 33 16
17 28 1 0 11 12 12 15 18 19 18 18 18 17 18 18
16 19 21 18 12 10 8 7 5 4 2 2 1 0 0 0
10 7 4 5 7 8 10 12 15 16 19 19 20 21 17 9
10 11 13 14 12 7 16 20 17 17 16 16 16 16 16 16
17 18 19 19 19 18 19 18 18 35 67 77 84 79 68 69
73 67 79 96 98 96 92 92 92 96 100 101 105 108 110 112
114 117 119 120 120 119 119 115 103 80 58 52 56 50 51 43
37 36 37 54 50 51 46 81 64 35 20 23 33 38 25 19
21 26 2 1 10 13 13 18 19 19 19 19 19 18 18 17
16 35 40 40 39 39 38 37 36 36 35 33 32 30 29 26
11 12 13 16 17 18 20 20 22 23 23 23 24 24 23 21
21 22 21 21 20 20 20 19 17 17 17 16 17 16 16 16
17 18 19 18 18 18 18 18 17 24 53 71 74 62 49 54
55 46 56 84 87 87 89 93 93 97 98 103 106 108 111 114
117 119 119 120 120 119 118 111 97 76 56 52 58 55 56 46
41 38 34 49 46 42 48 88 68 33 21 26 38 34 15 17
24 25 1 1 10 10 12 16 17 18 18 18 18 18 18 17
18 38 41 40 41 40 40 41 40 41 40 40 40 40 40 39
16 16 17 20 19 18 18 18 19 22 20 19 20 22 24 21
21 21 22 25 26 27 27 22 17 16 16 16 16 16 20 21
22 21 19 18 19 18 17 15 12 12 35 56 59 53 38 41
40 40 62 76 81 83 86 87 90 94 97 103 106 109 113 117
119 119 120 119 119 120 117 107 96 71 53 52 58 57 49 43
50 40 33 43 46 37 54 91 77 32 28 37 34 26 14 22
24 19 0 0 5 3 1 2 4 9 15 18 17 17 17 15
19 39 40 40 40 40 41 40 41 40 40 40 40 39 39 39
12 13 14 18 19 19 20 21 23 25 25 26 27 27 28 26
23 19 21 24 27 28 31 30 27 25 20 17 16 17 29 35
35 29 19 18 16 13 4 2 1 3 11 33 49 46 39 35
51 82 78 65 55 52 65 74 83 91 99 103 108 113 118 120
120 120 121 119 119 120 116 107 91 63 53 53 60 55 50 50
54 40 34 46 47 37 57 83 76 36 36 37 27 23 13 20
29 8 2 0 0 0 2 2 1 0 1 7 15 17 17 15
22 40 41 41 41 41 40 40 40 40 40 40 40 40 39 39
18 19 20 20 22 22 24 24 25 26 26 27 28 28 29 30
30 25 23 25 27 29 31 31 30 29 26 19 14 13 30 37
38 30 17 17 14 7 0 0 0 0 0 2 43 76 72 82
102 106 82 50 15 6 27 39 62 84 93 103 111 116 120 121
121 120 118 117 120 119 115 107 82 63 53 58 58 51 53 60
54 43 40 47 48 41 68 71 72 38 40 33 31 26 28 23
26 0 1 0 4 7 7 6 5 4 0 0 5 14 16 14
24 40 40 40 40 41 40 41 40 41 40 40 40 39 39 38
18 18 21 21 22 23 24 24 26 27 27 27 28 28 28 28
28 27 25 24 23 21 19 17 16 14 13 12 12 13 16 17
17 15 14 15 14 12 7 5 5 14 34 77 107 108 112 111
113 109 92 57 11 11 28 41 71 89 90 102 111 116 120 121
121 120 120 119 119 119 115 102 76 58 51 60 55 54 58 69
54 42 46 51 50 57 69 59 57 43 42 37 40 41 34 42
4 0 0 6 7 5 5 6 7 7 2 0 0 5 14 13
27 40 40 40 40 40 40 40 40 40 39 39 39 38 38 38
7 8 10 10 10 12 13 13 14 13 14 14 13 13 11 10
9 6 6 5 4 2 0 1 6 7 7 7 6 6 5 4
3 2 13 17 17 18 27 55 88 101 107 110 111 114 118 119
119 118 115 87 15 18 37 63 86 92 90 95 106 113 118 118
118 118 119 118 119 118 115 97 72 53 57 58 54 54 64 66
47 45 50 53 65 73 58 48 44 42 47 50 56 51 44 5
0 0 0 2 4 5 8 11 11 12 10 3 0 0 7 11
30 41 40 40 39 40 40 40 40 39 39 39 39 39 38 38
0 0 0 0 0 0 0 0 0 0 0 0 0 0 0 0
0 0 0 0 0 0 0 0 0 0 0 0 0 0 0 0
3 8 16 19 33 74 103 113 116 117 118 120 123 122 122 122
122 122 121 119 42 39 61 80 89 92 93 92 100 111 116 116
117 119 119 117 119 118 111 91 68 52 61 58 48 54 66 59
49 50 51 71 80 69 51 39 37 38 41 40 26 19 8 0
0 3 0 1 2 5 7 6 8 9 11 9 2 0 0 9
33 41 41 41 41 40 40 40 39 40 39 39 39 38 38 37
0 0 0 0 0 0 0 0 0 0 0 0 0 0 0 0
0 0 0 0 0 0 0 0 0 0 0 0 0 0 0 0
11 23 41 77 110 119 121 122 123 122 122 122 122 122 122 122
122 122 122 122 73 63 78 89 94 94 94 93 91 103 111 114
116 118 117 116 118 118 108 90 70 59 67 55 45 53 58 52
53 55 68 94 78 52 46 37 34 40 47 42 8 8 3 0
3 5 1 0 0 4 6 6 7 6 9 12 7 0 0 5
34 39 41 40 40 39 40 40 40 40 39 40 39 38 38 37
0 0 0 0 0 0 0 0 0 0 0 0 0 0 0 0
0 0 0 0 0 0 0 0 0 0 0 0 0 0 11 46
84 110 120 123 122 123 123 122 122 122 122 122 122 122 122 122
122 122 122 122 87 75 85 92 99 101 98 94 92 93 104 111
114 117 117 117 117 117 103 86 69 66 64 46 46 52 59 51
57 67 97 93 71 56 45 43 43 55 71 90 48 4 0 2
3 4 2 0 3 6 8 10 9 10 11 14 11 5 0 4
36 40 41 40 40 40 40 40 40 39 39 39 38 37 38 38
0 0 0 0 0 0 0 0 0 0 0 0 0 0 0 0
0 0 0 0 0 0 0 0 0 0 1 14 45 80 111 121
123 123 122 122 122 122 122 123 122 123 122 122 123 122 122 121
122 121 121 121 99 80 90 96 100 106 106 99 95 91 92 104
111 116 117 118 118 116 100 83 66 70 60 46 45 55 57 50
69 97 89 88 80 63 61 58 67 97 106 110 97 73 34 12
0 0 0 0 0 4 4 7 8 9 9 10 11 8 0 5
37 39 39 40 39 40 40 40 39 39 39 39 39 38 38 37
0 0 0 0 0 0 0 0 0 0 0 0 0 0 0 0
0 0 0 0 0 0 2 8 32 60 88 113 120 123 123 123
123 123 123 122 122 122 122 122 122 122 122 122 122 122 122 122
122 122 123 122 112 80 96 99 102 106 111 109 103 96 91 98
108 112 115 118 118 114 96 77 65 70 56 51 47 59 58 57
91 92 78 79 93 88 88 86 97 111 114 112 110 108 103 91
55 16 0 0 0 0 0 0 0 0 0 0 1 0 0 8
38 39 40 40 39 39 40 39 39 38 39 38 38 37 37 37
0 0 0 0 0 0 0 0 0 0 0 0 0 0 0 0
0 0 0 0 0 24 76 109 120 122 123 123 123 123 123 123
122 122 122 122 122 122 122 122 122 122 122 123 122 122 122 122
122 122 121 121 119 78 104 105 105 107 111 112 110 105 95 94
102 108 111 116 117 112 93 71 62 63 49 45 47 57 56 68
92 83 69 88 109 100 111 117 118 116 112 116 112 105 103 103
99 94 72 53 36 14 1 0 0 0 0 0 0 0 0 12
38 38 38 38 39 38 39 39 38 38 38 38 37 37 37 37
0 0 0 0 0 0 0 0 0 0 0 0 0 0 0 0
0 0 0 10 67 115 122 123 123 123 123 122 123 122 123 123
122 123 123 123 122 122 122 122 122 122 121 122 122 121 121 122
122 121 121 121 121 80 103 109 109 107 110 111 110 106 103 96
99 103 108 115 117 109 91 64 56 54 47 39 47 43 48 67
89 85 72 70 117 116 119 119 118 111 105 101 97 101 107 109
106 108 114 116 110 105 80 33 3 1 0 0 0 0 0 17
39 38 38 38 38 38 38 38 37 37 37 37 36 36 36 35
0 0 0 0 0 0 0 0 0 0 0 0 0 0 0 0
0 0 15 94 122 123 123 123 123 123 123 123 123 122 123 123
123 122 122 122 122 122 122 122 122 122 122 122 122 122 122 122
121 122 121 121 121 102 71 113 112 111 110 112 112 107 101 96
95 100 106 114 116 109 95 62 49 57 48 33 45 46 55 80
96 69 53 78 120 118 118 116 111 111 110 109 112 117 118 116
116 117 118 118 117 115 116 113 92 41 4 0 0 0 0 23
39 38 38 38 37 37 38 37 37 37 37 37 36 36 36 35
0 0 0 0 0 0 0 0 0 0 0 0 0 0 0 0
0 20 97 123 123 123 123 123 122 122 122 122 123 122 122 122
123 122 122 122 122 122 122 122 122 122 121 121 121 122 122 121
122 122 121 122 121 120 48 100 115 114 112 112 112 111 104 95
90 91 100 114 117 110 100 63 53 70 56 42 46 55 72 92
91 44 28 100 120 119 118 117 119 118 118 118 118 118 118 118
118 118 117 118 118 117 118 117 117 113 91 41 5 0 0 27
38 38 38 38 37 38 38 37 37 37 36 36 36 35 35 34
0 0 0 0 0 0 0 0 0 0 0 0 0 0 0 0
30 109 123 123 123 123 123 123 123 123 122 123 123 123 123 123
123 122 122 122 122 122 122 122 122 122 122 122 122 122 122 122
122 121 121 121 121 121 78 43 109 116 116 115 114 113 110 102
88 84 94 111 117 111 99 66 66 78 73 61 65 78 92 98
64 26 36 119 120 119 119 119 119 119 119 119 119 118 118 117
118 118 118 117 117 117 117 116 117 117 116 111 90 30 1 31
39 38 38 38 38 38 38 38 37 37 37 36 36 36 36 36
0 0 0 0 0 0 0 0 0 0 0 0 0 0 0 36
116 124 123 122 123 123 122 122 123 122 122 123 122 122 123 122
123 122 123 122 122 122 122 122 122 122 121 121 122 121 121 121
121 121 121 121 121 121 112 23 59 113 116 118 117 114 110 106
91 79 89 111 117 111 95 75 86 93 90 78 83 97 103 86
26 27 74 121 120 119 119 119 119 118 118 117 118 118 117 117
117 117 117 118 117 117 117 117 116 116 116 116 116 109 58 35
38 39 38 38 38 38 38 38 37 37 37 37 36 36 35 35
0 0 0 0 0 0 0 0 0 0 0 0 0 0 26 115
124 123 122 122 122 122 123 123 122 122 123 122 122 123 122 122
123 123 122 122 122 122 122 122 122 122 122 122 121 121 121 121
121 121 121 121 120 120 121 64 14 61 113 119 120 118 116 110
94 80 84 111 117 110 92 87 102 106 101 92 95 102 97 42
14 34 110 119 118 119 119 118 118 119 118 118 118 118 118 118
118 118 118 117 117 117 117 116 116 116 116 115 116 116 115 87
44 39 39 38 38 38 38 38 37 37 37 37 36 36 36 36
0 0 0 0 0 0 0 0 0 0 0 0 0 7 100 124
123 123 123 123 123 122 122 123 123 123 122 122 122 122 122 123
123 122 122 122 121 122 122 122 122 122 121 121 122 121 121 121
121 121 121 121 121 121 121 111 21 13 51 111 120 119 119 116
97 85 85 109 118 110 95 94 109 114 109 99 101 93 46 11
12 70 121 119 119 119 119 119 118 118 118 118 118 118 118 118
117 117 117 117 118 117 116 117 117 116 116 116 116 115 115 116
103 54 39 38 38 38 38 38 38 37 37 37 36 36 36 35
0 0 0 0 0 0 0 0 0 0 0 0 0 61 125 124
123 122 122 123 122 122 123 122 122 123 122 122 122 122 123 122
122 122 121 122 122 121 122 121 121 121 121 122 122 121 121 121
121 121 120 121 121 120 120 120 74 10 11 33 96 121 120 120
107 92 85 104 115 106 96 97 112 116 115 107 94 40 8 10
25 111 120 119 119 119 118 118 118 118 118 118 118 118 119 118
118 117 118 117 117 117 116 117 116 116 116 116 116 116 116 116
115 108 57 37 38 38 37 38 37 37 37 36 36 36 36 35
0 0 0 0 0 0 0 0 0 0 0 0 14 113 123 123
123 122 123 123 122 122 122 123 123 122 122 122 122 122 122 122
122 122 122 122 122 122 122 121 121 122 121 121 121 121 121 120
121 121 121 121 120 121 120 120 117 38 11 11 17 66 116 120
115 99 86 102 114 105 97 102 116 118 118 96 29 8 10 12
81 120 119 118 119 119 119 118 119 119 118 118 118 118 118 118
118 118 117 117 117 117 118 117 117 117 117 116 116 116 116 116
116 114 104 51 37 38 38 38 37 37 37 37 36 36 36 35
0 0 0 0 0 0 0 0 0 0 0 0 59 126 123 123
123 122 122 123 122 122 122 122 122 122 122 122 122 122 122 123
122 122 122 122 122 122 121 121 121 121 121 121 121 121 121 121
121 121 120 121 120 120 120 120 120 102 18 11 11 12 31 83
116 105 87 100 114 107 98 109 118 110 62 16 9 10 11 51
120 119 120 119 118 118 118 118 118 119 119 119 119 118 119 118
119 118 117 117 118 117 117 116 116 117 117 117 117 116 116 116
117 116 114 92 41 38 37 38 37 37 37 36 36 36 36 35
0 0 0 0 0 0 0 0 0 0 0 3 98 124 123 123
123 122 123 123 123 123 122 122 122 123 122 122 122 122 122 122
122 122 122 121 122 122 122 122 121 121 121 121 121 121 121 121
121 121 120 121 121 121 121 120 121 120 80 12 11 11 11 12
23 45 59 88 110 103 95 88 62 21 9 10 11 11 30 112
120 119 118 119 119 119 119 119 119 119 118 118 118 118 118 118
118 118 118 118 118 118 118 118 118 118 118 117 117 117 117 117
117 116 116 112 69 37 38 38 38 37 37 37 37 36 35 35
0 0 0 0 0 0 0 0 0 0 0 18 119 124 123 124
123 122 122 123 122 122 122 122 122 122 123 123 122 122 122 122
122 122 122 122 122 121 121 121 121 122 121 121 121 122 121 120
121 121 121 121 121 121 120 119 120 120 119 64 12 12 12 11
11 10 10 13 17 17 13 11 10 10 10 10 12 26 102 120
119 119 119 119 119 119 118 118 118 119 119 119 119 118 119 119
119 119 119 118 118 118 118 118 118 118 118 118 118 117 117 117
118 117 117 117 110 55 38 39 37 37 36 36 36 36 35 36
0 0 0 0 0 0 0 0 0 0 0 45 125 123 123 123
123 122 122 123 122 123 123 123 122 122 122 122 122 122 122 122
122 122 122 122 122 122 121 122 121 122 122 121 121 122 121 121
121 120 121 120 121 120 120 120 121 120 120 119 70 13 11 10
10 10 10 10 10 9 10 9 10 9 10 12 33 107 120 119
119 119 119 119 119 118 118 118 119 119 119 118 118 118 119 118
119 119 118 118 118 118 118 118 119 118 118 118 117 117 117 117
117 117 116 116 116 101 42 38 37 37 37 37 36 36 35 35
0 0 0 0 0 0 0 0 0 0 0 76 126 123 123 123
123 122 122 122 122 122 122 122 122 122 122 122 122 122 122 122
122 122 122 122 121 121 121 121 122 121 121 121 121 121 121 120
121 121 120 120 121 120 120 120 120 120 120 120 120 88 22 11
11 11 10 11 10 10 9 8 9 9 13 59 116 119 119 119
118 119 119 119 119 118 118 117 118 117 118 118 118 118 119 119
119 118 118 118 118 118 118 118 117 116 117 117 117 117 117 116
117 117 116 116 116 116 79 37 37 37 36 36 36 35 35 35
0 0 0 0 0 0 0 0 0 0 4 100 124 123 123 123
122 123 123 122 123 123 122 122 123 122 122 122 122 122 122 122
122 122 121 122 122 122 122 121 122 121 122 121 121 121 121 120
120 121 120 120 121 120 121 121 120 120 120 120 119 120 112 66
23 11 10 10 9 9 9 10 11 39 97 120 119 119 118 118
118 119 119 119 118 118 118 118 118 118 118 119 119 118 118 118
118 118 118 118 117 117 117 117 117 117 117 117 117 116 117 116
116 116 116 115 115 116 111 50 37 37 37 36 36 35 36 35
9 7 7 8 8 8 7 5 4 2 17 116 124 123 123 123
123 122 122 122 122 121 122 122 121 122 122 122 122 122 122 122
122 122 122 122 121 121 121 121 121 121 121 121 122 121 121 120
121 121 121 121 120 121 120 120 120 120 120 120 119 120 120 119
117 92 64 46 37 37 48 68 99 119 119 118 118 118 118 118
118 119 119 118 119 117 117 117 117 117 116 117 117 117 117 117
117 117 117 117 116 116 116 116 116 116 116 115 115 115 115 115
115 115 114 114 115 115 114 86 38 36 36 35 35 35 35 34
14 13 14 13 14 15 17 18 19 20 46 122 123 122 122 123
122 122 122 122 122 122 122 122 122 122 122 121 121 121 122 121
121 121 121 121 121 122 121 121 121 121 121 121 121 121 120 120
120 120 120 120 120 120 120 120 120 120 120 120 119 120 119 119
119 119 119 119 119 119 119 118 118 119 119 118 118 118 118 117
117 117 117 117 118 116 116 116 116 116 116 116 116 116 116 116
116 116 116 115 115 115 115 115 115 115 115 114 114 115 114 113
114 114 113 114 113 113 114 107 49 36 35 35 35 35 34 34
14 12 12 14 15 17 17 17 16 18 59 123 122 122 122 122
122 122 122 122 122 122 122 122 122 122 122 121 121 122 122 121
121 121 121 121 121 121 121 121 120 120 120 120 121 121 120 121
121 121 120 119 120 120 120 119 119 119 119 119 119 120 119 119
119 119 119 119 118 118 118 118 118 117 118 118 117 117 117 117
117 117 117 117 117 116 116 116 116 116 116 116 116 115 116 116
116 116 115 115 116 115 115 115 115 114 114 114 114 114 114 114
114 114 114 113 114 114 114 113 71 35 35 34 34 34 34 33
