P2
128 120
134
0 0 1 0 0 9 34 28 23 23 23 23 23 23 23 23
23 22 22 22 22 21 21 20 20 19 20 19 20 19 19 19
19 18 17 17 18 17 17 16 16 15 15 15 14 14 14 13
13 13 13 13 13 13 14 15 17 16 16 12 10 15 12 13
16 16 15 15 15 15 13 14 13 11 13 13 15 15 15 16
15 16 16 16 17 17 17 16 17 17 17 17 18 18 18 18
19 18 19 19 19 20 20 20 21 20 20 21 21 20 21 21
21 21 21 22 22 22 22 22 22 22 22 21 21 22 21 21
0 0 0 0 0 9 32 27 23 23 23 23 23 23 22 22
22 22 21 21 21 21 21 20 20 20 20 19 20 19 19 18
18 18 17 17 16 16 16 16 16 15 15 16 15 15 14 14
14 13 13 13 12 13 13 16 17 16 17 13 10 15 14 13
16 16 15 14 14 14 13 13 13 12 13 13 15 15 16 16
16 17 16 17 17 16 17 17 17 17 16 17 18 18 19 18
19 19 19 19 19 19 19 20 20 20 21 21 21 21 22 22
22 22 22 21 21 21 21 21 21 22 22 22 22 22 22 22
3 0 0 0 1 13 33 26 23 23 22 23 22 22 22 22
22 21 22 21 21 21 20 21 20 20 20 19 19 19 18 19
19 18 18 17 17 17 17 16 16 16 16 15 15 15 14 14
13 13 13 13 13 13 14 16 18 17 17 13 10 16 15 11
16 16 15 15 15 15 14 14 13 12 12 13 15 15 16 16
16 17 17 17 17 17 17 17 17 18 17 18 18 19 18 19
19 19 19 20 20 20 20 20 21 21 21 21 20 19 19 20
20 20 21 21 22 22 22 22 22 22 22 21 22 22 22 21
22 20 17 12 10 20 32 26 23 23 23 23 23 23 23 23
22 22 21 21 21 21 21 20 20 20 20 20 19 20 19 19
19 17 17 17 17 17 17 17 16 17 16 15 16 16 15 15
14 14 13 14 13 13 14 16 18 18 17 14 10 16 17 12
17 16 16 16 15 14 14 14 14 12 13 13 16 17 17 17
17 17 17 18 18 17 17 18 18 18 18 18 19 19 19 20
20 20 20 20 20 20 21 20 19 20 19 20 21 21 21 21
22 22 23 22 22 22 23 21 21 21 22 22 22 22 22 22
16 18 21 23 25 26 27 24 24 24 23 23 23 22 22 22
22 22 22 21 21 21 21 21 20 20 20 20 19 19 19 18
19 18 18 18 17 18 17 17 17 16 16 16 15 15 15 15
14 14 13 14 14 14 15 17 18 18 17 13 11 17 18 11
17 17 16 16 15 14 15 15 14 13 13 14 16 16 17 17
18 18 18 18 18 18 18 18 18 19 19 19 19 19 18 18
19 19 18 19 19 20 21 20 22 22 22 21 22 22 22 22
21 21 22 22 22 22 23 21 22 22 23 22 22 22 22 22
7 10 12 15 18 21 23 24 24 24 23 24 23 23 23 23
23 22 22 21 21 21 21 21 21 20 20 20 20 20 19 19
18 18 18 18 17 18 17 17 16 16 16 16 16 16 16 15
15 14 14 14 14 14 15 17 18 18 18 13 11 18 20 11
17 17 17 16 16 14 15 15 14 12 14 14 17 17 18 18
18 18 18 18 18 18 18 18 18 18 18 19 19 19 19 19
20 21 20 21 20 20 21 21 21 22 22 21 21 22 22 22
23 22 22 22 23 22 23 21 21 22 21 22 22 22 22 22
4 4 5 5 7 10 14 18 21 24 24 23 24 23 23 22
22 22 22 22 22 21 21 21 21 21 21 20 20 19 19 19
19 18 18 18 18 18 18 17 17 17 16 16 16 15 15 15
15 14 14 14 14 15 15 17 19 19 18 14 11 18 19 9
16 17 17 16 16 15 15 15 15 13 14 14 17 17 17 17
18 17 18 18 18 18 18 18 19 19 19 19 20 19 19 19
19 20 20 20 21 21 22 21 21 22 22 22 22 22 22 21
22 22 22 23 22 22 23 22 22 22 22 22 22 23 23 22
4 4 5 4 3 5 5 5 7 8 11 17 20 22 23 23
22 22 22 21 21 21 21 21 21 21 21 20 20 20 20 19
19 18 18 18 18 17 18 17 17 17 17 16 16 16 16 15
15 15 15 14 14 14 15 18 19 19 19 14 12 19 21 10
17 18 18 17 16 15 15 15 15 13 14 15 17 17 18 17
18 17 18 18 19 18 19 19 20 19 20 20 20 20 21 21
20 21 21 21 21 21 22 22 22 21 21 21 22 22 23 22
22 23 23 23 23 23 23 22 21 22 22 22 22 22 22 22
18 16 13 10 8 6 5 4 6 4 5 4 6 6 10 15
21 22 22 22 21 21 21 21 21 21 20 20 20 20 19 19
19 19 18 18 18 18 18 18 17 17 17 16 16 16 15 14
15 15 14 15 15 15 16 18 19 19 19 14 12 19 21 11
15 18 18 17 17 16 16 16 16 13 15 15 18 18 17 18
18 18 18 19 19 19 19 19 20 19 19 20 20 20 20 20
20 20 21 21 21 22 22 22 22 22 22 22 22 22 22 22
22 22 22 22 22 21 23 22 22 22 22 22 23 22 22 22
27 34 33 30 27 15 8 7 5 4 5 5 5 0 0 8
21 22 22 21 22 21 21 20 21 21 20 20 20 20 20 19
19 19 19 18 18 18 17 18 17 17 17 17 17 16 16 16
16 15 15 15 15 15 16 18 19 19 19 14 12 19 21 12
15 19 17 17 17 15 16 16 16 14 15 15 18 18 19 19
19 20 19 19 19 20 19 20 20 19 20 19 19 20 20 21
21 21 21 21 21 21 22 22 22 22 21 22 22 22 22 22
22 21 22 22 23 22 23 22 22 22 22 22 22 21 22 22
31 31 34 34 33 21 18 21 23 16 11 7 5 2 2 7
20 21 22 21 21 20 21 21 21 21 21 20 20 19 19 19
18 18 18 18 18 18 18 18 18 17 17 17 17 16 16 15
15 15 15 14 15 16 16 18 19 18 19 14 12 19 21 12
13 18 17 17 17 16 16 16 16 14 15 16 18 19 19 19
19 19 18 19 19 19 20 20 21 20 20 20 20 20 20 21
20 21 21 21 21 21 22 22 22 22 22 22 22 22 22 22
21 22 22 22 22 22 23 22 21 22 23 23 23 22 22 21
21 26 32 34 34 23 23 26 28 23 29 28 24 9 3 7
21 22 22 21 22 21 25 24 23 21 21 20 20 20 19 19
19 19 19 19 18 18 21 25 23 19 18 17 17 16 16 16
16 16 16 15 16 15 16 19 19 18 18 14 12 19 21 14
13 18 18 18 17 17 16 16 16 14 15 15 18 18 18 18
19 19 20 20 20 19 20 20 20 19 20 20 20 20 21 21
21 21 22 22 22 22 22 22 21 22 22 22 22 21 22 22
22 22 23 23 23 23 23 21 21 21 21 20 21 21 22 21
0 2 6 11 23 25 25 27 30 29 32 33 33 14 3 9
21 22 22 21 21 23 31 29 28 26 24 22 20 20 19 19
19 19 18 18 18 18 25 29 27 24 24 22 18 16 17 15
16 16 15 15 16 16 16 19 20 19 19 14 12 20 22 15
12 19 18 17 17 16 16 16 17 15 15 16 18 18 18 18
18 19 20 19 18 19 20 19 21 20 20 21 21 20 21 21
21 21 22 21 21 21 22 22 22 22 22 22 22 22 22 21
21 20 20 20 21 21 20 20 21 21 22 21 22 22 22 22
0 0 0 0 12 26 27 28 30 31 33 33 34 17 4 12
25 23 23 22 22 23 31 31 28 26 26 27 28 23 23 22
20 19 19 19 19 19 24 27 26 24 25 25 21 16 17 17
17 16 16 16 16 16 17 20 20 20 19 14 11 19 22 17
12 19 19 18 18 18 17 17 17 14 16 16 18 19 19 20
20 20 20 20 20 20 21 20 21 21 21 21 20 20 21 21
22 22 22 22 22 22 22 22 22 21 22 22 21 21 22 22
21 22 23 23 22 22 22 23 22 22 22 22 22 22 22 22
0 0 7 0 15 24 21 25 28 31 32 32 32 18 4 13
26 24 24 24 24 24 24 23 27 27 29 31 30 24 23 25
25 22 21 20 19 18 21 15 17 20 24 25 23 17 17 16
16 16 16 15 15 17 17 19 20 20 19 13 11 15 21 18
11 18 18 18 17 17 17 17 17 15 17 16 19 19 20 20
19 19 20 19 20 20 20 20 21 21 20 21 21 21 21 21
21 22 21 21 21 20 21 21 21 21 21 22 22 22 22 22
22 21 22 22 22 21 21 21 21 22 22 21 21 22 22 22
0 0 6 1 16 17 0 3 9 17 25 26 29 17 5 12
27 23 20 23 27 30 9 0 4 16 22 25 28 15 2 7
13 19 21 25 25 22 19 5 2 2 4 8 19 18 17 17
17 17 17 17 16 17 18 20 21 20 17 7 9 7 21 18
12 19 20 19 18 19 17 17 17 16 17 16 18 19 19 20
20 21 20 21 20 21 20 21 21 20 20 21 21 21 21 22
21 21 22 22 21 22 22 21 22 21 21 21 21 21 22 22
21 22 22 22 22 22 22 21 22 22 22 22 22 21 22 22
0 0 0 0 17 15 0 0 0 0 0 1 15 18 5 9
20 24 26 24 30 32 9 0 0 2 5 5 16 13 0 0
0 0 2 7 13 19 19 4 0 1 1 0 13 19 17 17
18 17 17 17 16 17 17 20 21 21 19 12 13 17 23 19
12 17 19 18 18 20 18 17 18 16 18 17 20 21 20 21
20 20 21 21 20 20 20 20 21 22 21 22 21 21 22 23
22 22 22 22 22 22 22 22 22 22 22 23 22 21 22 22
22 22 22 22 22 22 23 22 22 22 22 22 22 22 22 23
0 0 0 0 19 13 0 0 0 0 0 0 11 17 5 2
0 2 8 16 25 30 10 0 0 0 1 1 14 13 0 0
0 0 0 0 0 7 20 2 0 0 0 0 14 19 18 18
18 18 17 17 18 18 19 22 22 21 21 14 13 21 23 20
13 17 20 18 19 20 18 19 18 17 17 17 19 20 20 20
20 21 21 21 22 22 21 21 21 21 21 21 21 22 22 23
21 22 22 22 22 22 23 22 22 22 22 22 22 22 22 23
22 22 23 23 22 23 23 22 22 22 22 23 22 22 21 22
2 9 0 0 20 11 0 0 2 0 0 0 13 17 5 1
0 0 0 0 0 6 8 0 0 0 0 0 12 12 0 0
0 0 0 0 0 7 18 0 0 0 0 0 16 20 19 19
19 17 18 18 18 18 19 22 23 22 22 15 15 23 25 21
15 17 20 20 19 19 18 18 19 17 18 18 21 21 21 21
22 22 21 21 24 21 21 21 22 22 21 22 22 22 22 23
22 23 22 22 22 22 22 21 22 22 22 22 23 22 22 23
23 23 23 23 22 22 23 22 22 22 22 23 23 22 22 23
0 4 0 0 22 11 0 0 1 4 0 0 14 16 5 0
0 0 0 0 0 0 5 0 0 0 0 0 13 11 0 0
0 0 0 0 0 7 16 0 0 0 0 0 18 20 19 19
18 19 18 18 19 19 20 22 23 22 21 15 16 23 24 21
16 15 21 21 20 19 19 19 19 17 18 18 21 20 21 21
21 22 22 23 22 22 22 22 22 22 22 22 22 22 22 23
22 22 23 22 22 22 23 23 23 22 22 22 23 22 22 23
22 22 23 22 23 22 23 23 23 22 22 22 23 23 22 23
0 0 0 0 22 8 0 0 0 2 0 0 16 14 6 1
0 0 0 0 0 0 3 0 0 0 0 0 17 12 0 0
0 2 2 0 0 7 15 0 0 0 0 0 18 20 19 19
19 19 19 18 18 19 19 22 23 23 22 16 17 23 24 22
18 15 21 21 20 20 19 19 19 17 19 19 21 21 22 21
22 24 23 22 22 22 21 22 22 23 22 22 23 23 23 24
24 24 23 23 23 23 23 22 23 22 23 23 22 23 23 24
23 23 23 22 22 23 23 23 23 23 22 23 24 23 23 23
0 0 0 0 23 6 0 0 0 0 0 0 17 13 5 1
0 0 0 1 0 0 2 0 0 0 0 0 16 13 0 0
0 3 5 4 1 7 16 0 0 0 0 0 17 21 19 20
20 19 19 19 20 21 20 23 24 23 22 16 16 23 24 22
19 14 21 23 20 21 22 23 22 19 21 17 17 17 18 19
19 20 20 22 22 22 22 22 23 23 22 23 23 23 23 24
23 23 23 23 23 24 24 23 24 23 23 23 23 23 24 23
23 22 22 23 23 23 23 23 23 23 23 24 24 23 23 23
13 8 3 2 23 5 0 0 0 0 0 0 18 12 6 1
0 0 0 0 0 0 2 0 0 0 0 0 18 14 0 0
0 3 5 5 1 6 16 0 0 0 0 0 17 22 20 19
20 20 19 18 19 20 20 23 24 24 23 15 17 23 25 22
21 18 24 23 23 24 26 26 25 22 18 14 15 13 12 11
11 11 13 18 22 21 21 22 22 23 23 23 23 24 24 24
23 24 24 23 24 23 23 23 23 23 23 23 23 23 24 23
23 23 23 24 24 23 24 23 23 24 23 23 22 23 23 22
30 32 32 29 28 20 7 5 6 3 1 0 20 10 7 1
0 0 0 0 0 1 3 0 0 0 0 2 20 16 0 0
0 0 2 4 1 6 23 9 3 0 0 0 17 22 20 19
20 20 19 19 20 21 21 24 24 24 22 15 17 23 25 25
24 24 26 25 26 25 27 26 20 17 15 14 15 18 16 12
10 6 6 10 18 23 23 22 23 24 23 24 23 24 23 23
23 23 24 24 24 24 24 24 25 24 24 24 24 24 23 22
23 24 24 24 23 24 24 23 25 25 24 24 23 24 24 23
8 9 11 24 36 41 23 21 26 27 25 22 25 9 6 1
0 0 0 0 0 2 19 10 5 3 0 0 20 30 18 13
8 3 0 0 0 5 28 28 25 22 20 19 27 21 20 20
20 20 20 19 20 21 21 24 24 24 22 16 18 25 28 27
26 27 29 26 27 29 27 24 23 23 26 25 20 20 25 18
10 11 9 12 13 19 23 23 23 23 23 24 24 24 24 25
24 24 24 24 24 24 24 24 24 23 23 23 23 23 24 24
24 24 24 24 24 23 23 23 24 23 24 23 24 23 23 23
2 1 0 22 43 38 19 23 31 33 33 32 28 8 6 0
0 0 0 0 0 3 35 32 26 26 24 17 28 26 11 15
19 19 17 14 12 17 31 28 28 28 31 34 33 22 20 20
20 20 20 20 20 21 21 24 25 24 20 18 20 26 26 26
30 28 28 27 26 19 19 15 14 17 25 27 26 26 24 27
23 17 12 13 13 14 16 20 22 24 24 23 23 24 23 23
23 23 23 23 24 24 24 24 24 24 23 24 22 23 24 23
23 23 23 23 22 22 23 24 24 24 24 24 24 23 23 24
0 0 0 23 39 27 15 24 31 32 34 35 31 8 7 5
1 0 0 0 0 4 36 28 31 34 36 33 31 20 5 6
6 6 7 9 13 18 20 17 22 25 29 31 31 23 21 20
21 20 21 20 20 21 21 25 24 24 20 20 22 25 29 33
32 34 29 24 20 15 16 16 12 12 15 18 27 29 30 30
31 25 18 20 19 15 11 11 16 21 24 24 24 24 24 24
24 24 24 24 25 24 25 25 24 24 24 24 23 23 24 24
24 24 24 24 24 23 24 24 24 24 24 23 24 24 24 23
0 0 0 24 37 17 0 2 6 8 12 17 28 7 7 20
28 24 16 9 5 9 28 25 32 35 37 33 25 17 7 6
5 4 3 3 2 1 2 4 6 13 21 18 19 20 20 21
20 20 20 20 21 22 22 24 25 24 19 19 22 26 33 31
31 24 25 20 18 17 13 14 16 12 7 7 11 27 31 29
28 25 22 33 37 23 15 10 13 14 20 24 24 24 24 23
24 24 24 24 25 25 25 24 24 25 25 24 24 24 24 24
24 23 24 23 24 23 24 24 24 24 24 24 23 24 24 24
0 0 0 22 37 17 0 0 0 0 0 0 23 8 8 22
34 34 33 32 31 31 23 18 27 31 34 33 27 20 8 6
4 3 2 2 2 1 1 3 3 11 17 15 19 19 21 21
21 21 21 20 21 22 21 24 25 23 17 18 24 32 30 23
22 22 22 22 22 17 10 8 12 15 10 2 6 17 22 28
30 18 13 22 31 36 27 13 12 15 18 16 19 24 24 25
25 25 24 25 25 25 25 24 24 24 23 22 23 24 24 24
24 24 24 24 24 24 22 24 23 24 24 23 24 23 24 24
0 0 0 20 37 14 0 0 0 0 0 0 22 8 6 21
33 34 34 34 35 35 13 0 3 7 13 17 19 22 8 4
1 0 0 0 3 4 4 5 6 15 14 7 22 22 21 15
16 20 20 20 20 22 21 24 24 23 15 20 27 25 21 21
20 25 27 28 28 20 15 11 9 8 9 5 0 8 29 19
31 22 10 9 15 26 32 29 23 14 13 8 12 22 25 24
23 24 24 24 23 24 24 25 24 25 24 23 24 24 24 24
23 23 23 24 23 24 24 24 24 24 23 24 24 24 23 24
0 0 0 17 32 10 0 0 0 3 14 14 20 17 13 19
26 27 29 30 33 33 9 0 0 0 0 2 11 23 7 4
0 0 0 0 2 2 0 3 5 14 26 25 27 27 26 14
10 22 22 21 21 20 19 24 24 22 18 22 23 18 22 23
25 30 26 22 18 16 16 21 13 9 9 5 1 2 21 26
19 29 17 8 14 18 24 33 31 25 21 15 10 15 23 24
24 25 25 24 25 25 24 25 25 25 23 23 25 24 25 25
24 25 24 25 25 24 24 24 25 24 24 24 24 23 23 24
0 0 0 17 31 8 0 0 0 3 14 14 14 15 11 13
15 18 22 21 25 30 7 0 0 0 0 0 10 23 5 3
0 0 0 0 0 0 0 0 0 11 28 21 18 18 21 23
23 21 21 21 21 8 12 23 26 24 21 20 17 20 22 27
27 24 20 10 7 15 16 20 21 15 18 15 10 9 13 38
19 18 21 13 9 7 15 24 27 29 34 18 10 14 18 25
25 24 25 25 25 25 25 26 25 25 23 23 25 25 26 25
24 24 24 25 24 24 25 25 25 25 25 25 26 25 24 25
0 0 0 21 31 7 0 0 0 0 4 7 14 13 12 13
13 15 20 20 25 30 6 0 0 0 0 0 9 21 2 0
0 0 0 1 0 0 0 0 0 9 28 21 14 20 18 19
21 22 22 22 21 10 14 22 25 23 22 14 16 21 29 31
32 29 19 18 21 19 17 18 21 27 24 23 27 30 25 26
41 21 19 20 18 11 12 15 16 30 36 19 17 8 13 23
25 25 25 26 26 25 26 26 26 26 25 24 26 26 26 26
25 26 25 25 25 25 25 25 25 25 25 25 25 24 25 25
0 0 0 25 32 5 0 0 0 0 0 0 11 7 10 7
7 12 18 22 28 28 5 0 0 0 0 0 13 16 0 0
0 0 0 4 2 0 0 0 0 11 30 20 9 21 19 17
21 22 22 22 23 19 19 24 26 24 17 15 21 24 30 30
36 35 34 34 28 24 22 27 31 28 39 37 35 35 32 34
35 36 22 26 24 21 21 18 17 22 22 30 31 10 12 21
24 26 26 26 26 26 26 27 26 26 26 26 26 26 26 26
26 26 26 26 25 25 24 24 25 25 25 25 24 25 25 25
0 0 0 29 32 4 0 0 0 0 0 0 17 13 15 4
0 0 0 1 4 12 4 0 0 0 0 0 15 16 0 0
0 0 0 5 7 3 0 0 0 11 30 20 7 13 12 16
21 22 22 23 23 21 19 26 26 19 16 16 17 27 27 34
37 34 32 27 26 24 29 29 31 38 44 56 51 51 47 44
49 49 39 36 32 32 39 40 34 22 18 26 33 13 9 17
23 26 27 27 27 26 27 27 27 26 26 26 26 25 25 25
26 26 26 25 26 26 26 26 26 25 25 25 25 25 25 25
13 7 5 29 30 3 0 0 1 0 0 1 22 17 15 4
0 0 0 0 0 4 3 0 0 0 0 0 16 12 0 0
0 0 7 9 9 7 0 0 0 12 31 23 15 14 12 16
21 23 23 22 23 22 20 30 23 15 12 17 23 30 32 37
34 30 33 36 29 29 33 31 38 52 63 72 70 66 67 68
69 69 69 64 67 68 67 66 60 45 25 18 24 14 10 20
24 26 26 26 26 26 26 26 26 26 24 24 27 27 28 27
25 26 25 26 26 26 25 25 25 25 25 25 25 25 25 25
22 20 18 22 23 8 0 0 2 1 0 0 24 17 15 4
0 0 0 0 0 3 3 0 1 5 0 0 16 10 0 0
0 0 5 11 6 0 0 0 0 11 31 24 16 7 1 12
21 23 23 23 23 22 26 31 18 12 15 16 28 34 38 34
32 39 38 35 42 37 31 35 53 75 87 89 90 92 98 98
98 99 101 103 101 99 95 86 81 76 58 24 14 18 14 21
25 26 26 27 27 26 27 27 27 26 23 21 26 26 26 26
26 25 25 25 26 25 26 25 25 24 25 25 24 24 24 24
0 4 1 15 21 21 21 13 13 15 10 7 26 14 13 3
0 0 5 0 0 3 2 0 5 9 2 0 17 7 0 0
0 0 0 5 2 0 0 0 0 9 31 25 13 3 1 10
20 23 23 23 24 27 32 24 16 15 13 20 34 41 38 36
42 43 42 42 34 31 30 41 57 78 99 105 106 107 110 107
106 105 105 104 104 101 98 92 88 84 78 53 16 11 16 19
26 26 26 26 26 26 26 26 26 27 23 21 26 26 26 26
26 25 25 24 25 25 25 25 25 24 24 24 24 23 24 24
0 7 1 18 22 17 11 12 19 25 28 28 29 17 12 3
0 4 11 0 0 5 13 7 12 11 8 0 18 6 0 0
0 0 0 6 4 0 0 0 0 7 30 19 4 1 0 8
19 22 23 23 29 28 29 22 20 17 21 29 40 38 42 41
46 43 44 37 32 29 36 43 53 79 99 108 110 108 108 110
108 106 105 106 105 104 101 96 92 88 84 73 31 1 17 20
24 26 26 26 26 26 26 26 26 26 24 23 25 24 25 25
24 25 24 24 24 25 24 24 25 24 24 24 23 23 23 24
2 0 2 20 22 11 0 0 0 3 12 32 30 17 11 3
0 0 2 0 0 5 28 27 31 29 29 27 31 7 0 0
0 0 0 6 4 0 0 0 0 5 30 16 2 1 0 14
19 22 23 25 29 31 29 27 24 24 30 35 39 48 48 47
44 46 41 38 36 35 39 43 58 77 97 105 108 107 110 112
111 109 106 106 106 104 101 97 97 93 87 78 55 7 17 23
24 26 25 26 25 25 25 25 25 25 25 25 26 26 26 26
25 25 25 25 25 25 24 24 24 24 23 24 23 23 23 23
13 2 0 22 24 9 0 0 9 7 10 29 26 14 12 8
0 0 0 0 0 6 29 30 31 30 33 37 36 16 6 7
2 0 0 8 5 0 0 0 0 2 27 13 0 0 0 9
18 22 25 25 32 30 27 32 27 30 28 36 47 45 46 49
43 45 41 39 41 40 38 46 58 74 92 95 104 107 107 109
112 112 109 106 105 102 105 102 100 96 89 81 67 25 21 23
24 25 25 25 25 25 25 25 25 25 25 25 25 24 24 24
23 23 23 24 23 23 23 23 23 23 22 23 23 22 23 23
5 0 0 23 25 8 0 0 7 17 19 29 21 11 13 12
1 0 0 0 0 5 26 26 28 28 32 36 36 27 23 22
20 17 17 17 13 9 6 5 3 7 23 16 4 3 3 3
15 23 25 23 30 26 29 29 25 29 35 40 43 43 52 50
50 51 46 45 42 40 43 51 59 79 82 98 103 107 108 111
114 116 112 109 107 108 107 105 102 98 92 83 72 41 21 25
25 24 25 24 25 24 25 24 24 25 25 24 24 24 24 25
24 24 24 23 23 24 23 23 23 22 22 22 22 22 22 23
6 0 1 27 27 8 0 0 0 3 19 30 18 12 14 7
0 0 0 0 0 7 26 24 25 25 25 22 22 24 25 26
24 23 25 24 22 20 18 15 14 15 25 23 16 14 9 7
15 24 23 27 29 27 31 24 34 37 38 38 40 50 54 53
57 58 52 50 45 44 47 53 66 77 85 91 99 103 106 109
113 115 115 111 111 110 108 107 106 101 95 88 74 55 23 24
25 25 25 25 25 25 25 25 25 25 26 25 24 24 24 24
24 24 23 23 24 24 24 24 24 23 23 23 23 23 22 22
0 0 2 28 27 8 0 0 0 0 16 31 17 13 13 14
9 6 4 1 0 9 29 22 23 23 23 23 23 26 27 28
29 28 25 24 24 24 29 26 23 22 27 31 30 29 27 24
21 23 23 28 26 30 29 31 34 40 36 30 39 50 54 54
50 47 42 42 46 49 49 56 68 69 81 86 96 100 108 111
112 113 115 114 114 113 110 110 106 102 98 90 77 65 29 25
26 25 25 25 25 25 25 25 25 24 24 24 24 24 25 25
25 25 24 24 25 24 24 24 23 23 23 23 23 23 23 23
0 0 1 27 27 7 0 0 0 0 15 32 17 12 13 25
32 32 29 30 29 29 33 25 25 25 25 26 28 30 27 30
33 34 25 22 24 28 34 32 30 28 27 22 20 20 22 22
21 22 23 28 28 35 32 39 35 36 28 33 44 60 54 41
39 41 43 46 50 50 58 60 68 72 77 78 87 97 109 108
108 113 114 117 118 118 115 113 109 104 97 92 82 70 40 25
25 25 26 26 26 25 25 26 26 25 24 25 25 24 24 24
24 24 24 24 24 24 24 23 24 24 23 23 23 22 22 22
0 0 2 28 27 5 0 0 0 0 17 33 18 13 14 28
39 38 38 38 38 38 34 25 23 24 25 28 33 34 29 30
34 33 26 22 19 25 34 32 29 30 29 25 17 15 15 15
20 24 25 27 26 36 39 34 38 27 31 34 38 30 33 38
39 42 44 50 50 54 60 68 64 68 68 70 87 97 103 110
113 116 117 118 119 118 117 116 113 106 98 91 86 73 55 25
26 26 25 26 25 25 25 25 24 23 24 23 23 23 23 24
25 24 24 24 24 23 24 24 23 24 23 23 23 23 23 23
0 0 2 29 27 4 0 0 0 0 16 30 14 12 14 20
26 27 30 32 34 36 31 7 7 5 6 11 21 32 28 24
19 21 22 19 19 21 20 16 17 23 25 26 23 20 19 19
22 24 27 24 31 41 39 36 31 32 30 26 26 36 40 42
41 42 45 46 50 56 64 69 65 64 64 67 85 99 113 117
116 118 118 119 118 117 116 116 116 112 105 94 89 75 67 27
24 25 25 25 25 25 25 25 25 25 25 24 24 25 24 25
24 24 23 23 24 23 24 24 24 24 23 23 23 23 23 22
0 0 2 29 28 3 0 0 0 0 15 30 14 13 14 17
19 18 18 17 18 19 20 0 0 0 0 0 3 31 27 9
0 2 4 5 17 23 7 0 0 2 6 17 25 22 24 27
28 28 26 23 35 45 38 36 33 31 34 39 41 42 39 39
39 37 40 47 51 59 62 67 68 64 64 72 93 112 117 118
119 120 119 119 119 117 116 117 117 116 113 104 93 80 74 39
25 26 26 26 26 25 25 26 25 26 26 25 25 25 25 25
25 25 25 25 25 24 24 24 24 24 24 23 23 23 24 23
12 13 17 29 26 3 0 0 0 0 19 33 14 11 13 21
25 25 24 23 22 22 19 1 0 0 0 0 8 30 19 0
0 0 0 2 20 24 7 0 0 0 3 15 11 8 12 15
21 27 25 24 38 41 35 38 40 44 48 45 43 38 35 28
28 33 43 48 51 54 64 65 66 62 67 91 116 119 119 119
119 119 119 119 118 115 112 112 113 109 111 114 102 87 74 51
25 25 25 25 24 25 25 26 25 25 25 24 24 25 24 24
24 24 24 24 24 24 23 25 24 24 24 24 24 24 23 23
30 31 29 24 16 6 3 1 0 0 21 33 12 11 14 23
27 27 27 27 27 27 20 1 0 0 0 0 9 29 11 0
0 0 0 1 22 23 7 0 0 0 2 14 6 0 4 1
5 23 25 24 41 34 30 25 20 13 23 34 37 43 35 28
27 34 40 42 46 55 63 63 60 65 83 113 120 119 120 120
119 119 119 119 116 112 109 99 80 91 103 109 109 92 78 63
25 25 25 25 25 26 25 26 25 25 25 25 25 24 24 24
25 24 24 25 25 24 24 24 24 23 24 23 23 23 23 23
28 28 28 27 24 26 25 23 21 18 25 26 15 16 17 16
18 20 22 23 25 29 22 0 0 0 0 1 3 26 6 0
0 0 0 0 22 22 6 0 0 0 1 15 6 1 6 3
3 26 21 29 32 26 22 14 7 6 14 21 34 37 35 30
28 30 34 37 41 57 57 55 59 76 95 116 106 95 87 77
71 66 62 60 57 43 34 26 14 0 13 49 99 99 85 74
26 24 23 22 22 21 22 24 25 26 26 26 26 25 25 24
25 24 25 24 24 24 24 25 24 24 24 24 24 23 23 23
24 24 25 25 25 24 24 24 24 24 25 24 24 24 24 23
20 20 20 19 20 27 26 3 0 0 0 0 1 25 6 0
0 0 0 1 23 21 5 0 0 0 0 13 7 0 1 2
13 31 22 31 27 23 19 13 9 13 18 20 25 31 30 30
30 28 31 31 36 44 41 37 42 56 65 67 77 85 90 89
80 68 66 71 57 39 47 40 11 0 0 0 3 51 91 80
29 17 6 6 5 5 5 15 26 26 25 25 26 25 25 25
25 25 25 24 25 24 25 25 24 23 24 23 23 24 23 23
24 24 24 23 24 24 25 24 24 24 24 24 24 24 24 24
24 24 25 24 24 27 29 6 0 0 0 1 1 25 5 0
0 0 0 1 24 21 6 0 0 0 0 12 9 1 5 6
27 36 27 35 27 19 21 14 10 12 17 18 21 28 26 24
21 22 24 27 27 33 33 35 37 51 56 55 53 49 44 35
27 24 21 17 12 6 2 1 1 0 0 0 0 0 55 77
31 15 3 2 2 2 3 13 26 26 26 25 26 26 25 25
25 25 25 24 24 25 24 25 25 24 24 23 24 24 24 23
18 18 18 19 20 20 19 20 21 20 21 21 22 22 23 23
23 24 24 24 23 26 26 0 0 0 0 0 2 25 4 0
0 0 0 0 22 21 7 0 0 0 0 12 10 0 0 17
39 36 36 34 23 25 19 9 14 15 8 6 11 20 25 23
21 22 26 29 29 35 38 52 75 93 112 117 118 117 114 110
105 99 92 85 61 25 19 14 17 0 0 0 0 0 11 62
19 7 2 3 3 3 3 14 26 26 26 26 25 25 25 24
24 24 25 24 24 24 24 25 24 25 24 24 24 24 24 23
0 0 0 0 1 1 1 1 1 2 2 3 3 4 5 6
8 8 10 17 22 25 23 0 0 0 0 0 1 26 5 0
0 0 0 0 21 22 5 0 0 0 0 12 13 0 6 32
41 37 39 29 25 28 16 12 17 15 6 0 4 10 16 16
23 28 35 33 32 37 49 72 95 106 117 120 120 120 119 120
120 117 111 105 97 55 51 34 16 0 0 0 0 1 1 29
1 0 0 2 3 2 2 12 25 26 26 26 26 26 25 25
24 25 25 24 24 24 23 24 24 24 24 24 24 24 24 24
0 0 0 0 0 0 0 0 0 0 0 0 0 0 0 0
0 0 0 17 23 24 22 2 0 0 0 3 2 26 10 1
1 1 0 1 22 23 11 5 4 3 3 15 16 1 24 36
36 39 38 28 36 29 20 11 17 15 6 0 0 4 3 8
15 25 28 21 26 41 60 88 101 105 115 121 120 120 120 120
119 117 115 112 96 57 44 26 18 0 0 0 0 0 0 0
0 1 2 2 4 3 3 10 26 26 25 25 25 25 25 24
24 24 24 24 24 23 23 24 25 24 24 24 24 23 24 23
0 0 0 0 0 0 0 0 0 0 0 0 0 0 0 0
0 0 0 20 23 24 30 28 23 20 22 25 21 26 30 29
25 27 25 26 32 25 24 28 28 29 30 33 30 25 30 35
34 42 33 31 37 34 15 8 10 12 9 11 10 8 6 6
17 23 18 19 30 44 72 81 89 95 115 121 121 120 120 121
120 119 116 106 64 33 19 14 11 0 0 0 0 0 8 0
0 0 3 4 8 8 8 11 23 25 25 24 24 25 24 24
24 25 25 25 24 24 25 24 24 24 25 24 24 24 24 24
0 0 0 0 0 0 0 0 0 0 0 0 0 0 0 0
0 0 0 19 24 23 31 34 29 30 31 29 25 22 33 39
36 36 38 39 38 29 24 29 32 35 38 37 36 30 33 33
35 43 32 34 41 33 10 6 5 8 21 32 61 88 70 21
13 18 30 33 25 46 68 69 81 101 118 121 120 120 120 120
120 118 110 90 39 13 11 17 7 0 0 0 0 0 7 1
0 0 4 3 6 6 6 11 24 26 26 26 26 25 24 24
24 24 25 25 24 23 24 24 24 24 24 24 24 23 23 24
0 0 0 0 0 0 0 0 0 0 0 0 0 0 0 0
0 0 0 19 24 23 31 30 26 28 31 30 23 19 24 29
29 29 30 31 31 28 19 24 28 32 34 37 33 30 36 33
35 42 33 38 43 35 15 4 11 22 33 66 105 105 107 96
62 66 48 33 23 52 53 56 94 108 119 121 121 121 121 120
120 119 114 100 54 34 14 11 3 0 0 0 0 2 13 56
9 0 2 3 4 4 4 10 25 26 26 26 25 25 25 25
25 24 25 24 24 24 24 24 23 23 23 23 23 23 23 24
0 0 0 0 0 0 0 0 0 0 0 0 0 0 0 0
0 0 0 19 25 22 28 19 21 21 26 28 23 20 18 15
15 16 16 17 19 21 20 23 27 26 30 24 29 35 32 30
35 40 37 39 38 31 21 7 14 24 51 99 109 90 56 95
105 103 77 34 28 43 53 90 107 113 119 120 120 120 120 120
120 119 119 112 64 46 30 10 0 0 0 0 0 13 22 86
46 0 3 4 5 4 3 11 26 26 26 25 25 25 25 25
24 25 24 24 24 24 24 25 24 24 24 23 23 23 23 23
0 0 0 0 0 0 0 0 0 0 0 0 0 0 0 0
0 0 0 17 25 22 28 6 3 5 8 11 11 18 20 19
19 21 24 22 22 25 26 28 32 33 28 25 37 36 30 31
38 42 39 36 33 28 20 8 18 30 70 105 110 115 79 93
110 110 92 49 58 68 101 112 117 116 116 120 121 121 120 120
120 119 119 112 68 45 31 8 0 0 0 0 4 18 42 107
92 11 3 4 4 4 3 11 25 26 25 25 25 25 25 25
25 25 25 24 25 24 24 24 23 23 23 23 23 23 23 24
0 0 0 0 0 0 0 0 0 0 0 0 0 0 0 0
0 0 0 16 24 22 27 5 0 0 0 0 2 17 22 28
30 31 37 28 18 21 22 26 31 34 29 29 38 32 29 33
39 43 36 35 29 24 15 10 15 35 87 96 118 112 112 103
108 111 109 102 102 104 109 117 119 118 119 120 119 120 120 120
120 119 116 113 79 46 35 12 0 0 0 1 28 12 71 114
109 59 2 4 4 3 4 12 26 26 25 25 25 25 24 25
24 24 24 24 25 24 25 24 24 23 24 23 23 23 23 23
0 0 0 0 0 0 0 0 0 0 0 0 0 0 0 0
0 0 0 14 24 21 29 7 0 0 0 0 1 22 21 28
26 22 30 19 0 1 1 4 13 31 31 32 32 30 31 31
44 40 36 31 27 24 13 11 18 40 97 93 121 116 116 71
107 113 114 109 108 107 113 114 116 116 119 120 120 121 121 120
120 119 120 117 96 50 37 20 0 0 0 21 35 17 99 119
109 93 24 3 3 4 3 12 25 25 25 25 25 25 25 25
25 25 25 24 24 23 23 23 23 23 23 22 22 23 23 23
0 0 0 0 0 0 0 0 0 0 0 0 0 0 0 0
0 0 0 12 24 21 24 6 0 0 0 0 0 22 19 27
17 0 10 16 0 0 0 0 7 31 32 36 31 30 28 35
47 37 36 30 25 21 15 16 18 41 95 101 118 107 93 51
110 116 115 111 110 111 114 114 113 114 118 120 120 120 120 120
120 119 119 118 110 63 38 28 7 0 7 39 17 55 114 119
115 104 70 5 4 4 3 12 26 26 25 25 26 25 25 25
24 24 25 24 24 24 24 24 24 23 23 23 23 23 23 22
0 0 0 0 0 0 0 0 0 0 0 0 0 0 0 0
0 0 0 12 24 20 11 0 0 0 0 0 1 24 19 28
17 0 8 17 0 0 0 0 5 30 39 37 31 28 31 41
45 38 35 31 24 20 18 13 18 44 92 106 109 100 107 93
99 119 121 115 111 111 113 114 114 114 117 118 120 120 120 120
120 119 120 119 115 96 46 31 24 4 13 19 30 94 112 115
114 108 95 31 3 4 3 12 25 25 25 25 25 25 25 25
25 25 25 25 25 24 23 23 23 23 23 22 23 23 23 23
0 0 0 0 0 0 0 0 0 0 0 0 0 0 0 0
0 0 0 11 24 21 9 0 0 0 0 0 2 24 18 28
16 0 8 18 0 0 0 0 7 31 45 35 28 29 33 44
39 40 32 28 26 20 17 15 21 52 85 116 104 101 115 113
66 116 121 118 115 112 114 117 117 115 116 117 118 120 120 119
119 118 118 116 112 108 92 56 39 35 40 69 94 91 105 110
111 110 101 65 11 12 14 17 25 26 26 25 25 25 25 24
25 24 24 25 24 24 24 24 23 23 24 23 23 23 22 23
0 0 0 0 0 0 0 0 0 0 0 0 0 0 0 0
0 0 0 10 24 20 8 0 0 0 0 0 1 24 20 29
16 0 7 18 0 0 0 0 5 31 42 34 30 30 34 48
41 44 35 30 28 22 17 15 21 51 81 112 108 102 120 96
81 116 122 120 116 114 115 118 118 118 117 117 118 118 118 120
120 119 117 116 113 110 106 99 92 90 100 109 97 95 102 105
108 111 107 87 28 25 26 24 26 25 25 25 25 25 25 25
24 24 25 24 24 23 24 23 23 23 22 23 23 23 23 23
0 0 0 0 0 0 0 0 0 0 0 0 0 0 0 0
0 0 0 11 24 20 8 0 0 0 0 0 1 24 20 29
17 0 7 18 3 0 2 2 4 33 39 31 32 31 40 48
41 44 36 30 30 26 22 20 20 42 74 99 116 99 112 97
100 110 119 121 117 114 114 119 120 119 119 119 119 117 118 120
120 119 117 116 115 112 107 104 101 100 99 106 104 108 115 110
111 117 115 101 37 26 27 26 26 26 26 26 26 26 26 25
25 24 24 24 24 24 24 23 24 24 24 23 23 23 23 23
0 0 0 0 0 0 0 0 0 0 0 0 0 0 0 0
0 0 0 10 24 19 8 0 1 0 2 8 1 24 22 30
21 7 6 18 2 3 5 0 6 32 33 32 40 35 44 46
42 45 37 33 34 28 22 15 14 26 59 85 110 116 111 110
105 90 100 122 118 113 114 119 119 119 119 120 119 118 118 120
120 119 119 119 117 113 110 107 102 99 98 106 109 117 91 35
49 90 107 88 34 24 25 25 25 25 25 25 24 25 25 25
25 25 24 24 24 23 23 23 23 22 22 22 22 23 23 23
0 0 0 0 0 0 0 0 0 0 0 0 0 0 0 0
0 0 0 10 24 20 13 9 10 7 10 15 12 27 25 31
18 14 8 16 1 6 6 0 5 32 32 34 35 39 46 49
43 46 42 41 43 37 31 20 14 21 36 77 89 109 113 119
120 111 115 120 116 113 114 117 119 121 121 120 119 118 118 119
118 118 119 119 117 114 112 108 107 101 97 105 105 96 57 85
75 51 82 53 25 24 26 26 25 26 26 25 24 24 25 25
25 24 24 24 23 23 23 24 22 22 23 23 23 23 24 23
0 0 0 0 0 0 0 0 0 0 0 0 0 0 0 0
0 0 0 10 23 20 23 33 34 34 34 35 36 39 30 32
13 16 12 20 11 13 10 8 12 29 29 34 38 44 52 51
46 47 49 48 51 42 38 15 15 15 22 69 89 91 108 116
120 119 119 118 115 112 113 117 118 120 121 120 120 119 119 118
118 118 119 119 119 118 117 114 110 101 97 101 105 90 96 101
95 75 44 27 26 25 26 26 25 25 25 24 24 24 24 24
25 24 24 23 23 23 23 23 22 22 22 22 23 23 23 23
0 0 0 0 0 0 0 0 0 0 0 0 0 0 0 0
0 0 0 10 23 20 28 40 41 40 41 41 41 42 35 30
8 6 10 23 17 19 17 17 20 26 29 35 45 51 57 48
50 44 53 47 51 45 38 9 14 13 12 59 86 89 89 102
112 112 112 115 112 108 109 116 117 121 121 120 121 119 119 116
118 115 117 118 118 119 119 116 111 102 100 101 104 102 96 86
47 27 26 26 24 24 25 26 25 25 25 25 24 25 24 25
25 25 24 24 23 23 23 23 22 22 23 23 23 24 23 24
0 0 0 0 0 0 0 0 0 0 0 0 0 0 0 0
0 0 0 10 24 19 22 27 27 27 28 28 28 27 26 29
8 1 7 22 19 21 20 20 21 25 29 39 46 55 54 47
51 43 48 45 51 41 35 9 13 22 15 58 83 86 86 85
95 100 103 105 109 105 108 113 118 120 120 121 121 119 119 118
118 117 118 118 119 120 119 116 108 100 101 102 102 97 83 67
40 26 26 26 24 24 26 26 25 25 24 24 24 24 24 24
25 25 24 24 24 23 23 24 23 22 22 22 23 27 28 28
0 0 0 0 0 0 0 0 0 0 0 0 0 0 0 0
0 0 0 11 23 19 15 12 11 11 11 12 12 12 14 27
7 0 6 23 21 22 23 23 23 25 36 44 52 54 45 53
47 45 49 45 53 34 31 11 5 19 23 74 94 95 94 92
90 92 80 82 102 102 108 112 117 120 121 121 121 121 120 120
118 115 116 118 119 120 118 114 98 97 96 98 96 89 76 60
42 26 26 25 24 23 25 25 25 25 24 24 24 24 24 25
25 24 24 23 23 23 23 23 25 28 27 25 27 34 35 35
0 0 0 0 0 0 0 0 0 0 0 0 0 0 0 0
0 0 0 12 23 19 16 15 13 12 12 12 13 12 15 29
10 1 8 24 21 23 23 24 23 26 41 49 53 55 45 58
48 52 47 43 51 32 29 7 4 17 37 72 99 109 117 113
114 117 103 96 97 101 108 111 115 119 119 120 120 121 120 120
118 116 116 119 120 120 117 104 93 84 87 88 89 79 71 54
41 27 26 26 25 23 25 26 25 25 24 24 24 24 24 24
23 24 24 23 23 22 24 23 33 43 42 41 40 40 41 39
0 0 0 0 0 0 0 0 0 0 0 0 0 0 0 0
0 0 0 13 23 19 18 17 16 17 16 15 15 13 18 30
22 23 26 26 21 23 23 23 23 26 42 51 57 48 51 54
47 56 48 41 49 32 32 7 3 8 40 73 101 108 121 122
122 121 113 101 92 94 102 109 112 116 119 120 120 121 121 119
118 115 116 119 119 117 113 106 67 64 74 78 81 72 67 51
37 26 25 25 22 21 24 25 25 24 24 24 24 25 25 24
24 24 24 23 22 23 23 22 35 43 43 43 43 43 43 42
0 0 0 1 2 2 2 3 3 4 4 5 5 5 6 7
8 8 9 20 23 19 18 18 18 18 18 17 17 13 17 28
24 31 32 26 21 22 22 23 22 26 45 50 61 49 54 53
53 61 50 46 49 31 28 10 2 7 40 73 102 108 119 122
122 120 115 101 88 90 95 105 111 114 117 118 118 118 118 117
116 115 117 120 120 118 117 101 62 70 69 70 72 61 47 39
25 25 25 25 23 20 25 26 25 24 24 24 24 24 24 23
24 24 24 24 24 23 24 23 38 44 43 43 43 43 43 42
5 6 8 9 11 12 13 13 14 15 16 16 17 17 17 18
18 18 18 17 18 18 19 18 18 17 18 17 17 14 15 19
17 17 20 20 20 21 22 22 24 29 45 53 57 47 56 52
54 67 46 51 50 35 24 12 3 10 42 68 100 109 118 123
122 121 117 101 82 86 92 101 103 110 115 116 116 116 117 116
116 117 116 120 119 118 116 100 83 101 105 103 95 79 63 28
7 9 15 24 23 18 24 25 25 25 24 25 24 25 25 25
25 25 24 24 23 23 23 23 40 43 43 43 43 43 43 42
7 5 6 10 12 12 13 14 15 16 16 17 17 18 18 18
18 18 18 18 19 19 19 19 19 18 17 17 17 15 17 18
18 16 19 20 21 22 24 24 27 27 44 56 53 50 54 48
57 63 50 55 52 34 21 15 5 11 45 66 98 110 119 122
122 123 119 104 83 82 90 96 101 107 111 113 113 112 113 115
115 118 120 119 118 117 115 102 100 103 104 103 98 90 68 32
0 0 1 18 19 9 19 26 25 25 25 25 25 25 25 25
24 25 25 24 24 24 24 24 41 43 43 43 42 42 42 42
6 6 7 9 11 12 13 13 15 16 16 17 17 17 17 17
16 16 16 16 16 16 19 20 19 19 19 18 18 16 18 19
19 18 19 20 21 21 23 23 24 26 46 63 55 53 58 47
61 57 55 59 57 38 22 14 2 16 51 70 94 109 117 122
122 122 120 108 84 78 88 94 99 104 105 108 111 111 112 114
115 118 119 116 117 116 113 102 104 106 105 101 94 83 59 37
0 0 0 14 14 7 17 25 25 25 24 24 24 24 24 24
24 23 23 23 22 22 21 23 41 42 43 42 43 42 42 42
2 2 2 3 3 5 6 6 7 7 7 6 5 4 3 3
7 13 13 16 17 18 20 19 19 19 19 18 18 16 17 19
19 19 20 20 21 21 25 25 25 27 48 61 56 57 56 48
65 57 62 65 56 32 18 10 3 15 53 72 91 109 118 122
122 122 122 110 86 76 83 91 97 99 104 107 109 109 112 113
115 117 116 116 117 117 112 104 108 109 106 101 93 75 55 24
0 0 6 14 12 12 21 24 24 24 24 24 24 24 24 23
22 22 22 22 22 22 21 24 43 43 42 42 42 42 42 42
0 0 0 0 0 0 4 7 8 9 11 9 8 6 1 0
3 14 16 16 18 19 19 19 19 19 19 19 18 18 18 20
20 19 19 19 20 23 25 23 25 29 42 58 58 60 54 55
62 57 60 65 55 22 18 7 4 16 53 70 90 109 119 123
122 122 121 115 94 82 79 88 95 100 104 108 110 110 111 111
115 116 113 117 119 118 114 106 102 103 103 95 80 62 50 18
0 0 1 2 2 11 22 23 24 23 23 24 23 22 23 23
22 22 21 21 20 20 19 25 42 42 42 42 41 42 41 42
0 0 0 0 0 11 26 27 28 27 27 26 27 26 10 0
5 14 16 17 18 18 18 19 19 18 19 18 18 17 18 19
19 20 20 19 21 22 22 22 23 30 38 49 59 57 49 59
54 53 54 60 44 18 19 4 7 22 53 71 91 110 118 122
122 122 122 120 101 88 80 86 92 95 99 105 108 107 109 113
113 115 117 118 118 119 115 107 102 103 105 92 74 54 35 3
0 0 0 0 0 6 18 20 23 24 23 23 23 23 23 22
21 21 21 21 20 20 18 28 43 42 42 42 42 41 41 41
0 0 0 0 1 12 31 30 32 31 29 28 35 38 24 8
10 12 14 15 17 18 18 19 19 19 19 20 20 19 20 19
20 20 20 20 20 21 21 22 23 31 34 41 58 57 52 59
46 48 50 43 32 22 16 4 10 28 53 70 90 108 118 123
123 123 122 121 112 96 83 77 84 92 97 98 103 106 110 113
113 117 118 117 118 120 110 94 98 104 104 96 81 58 28 0
0 0 0 0 0 5 15 16 21 22 23 23 22 22 22 22
22 21 22 20 20 19 17 30 41 41 41 41 41 41 41 41
0 0 5 11 12 14 32 34 36 35 35 35 37 37 29 13
13 11 12 15 17 17 21 20 20 20 20 20 20 20 20 19
18 19 20 19 19 21 21 21 25 36 30 38 59 54 55 55
41 44 41 33 27 21 8 7 14 34 56 72 88 109 118 122
121 121 122 122 119 107 96 87 83 84 89 90 94 98 103 109
111 111 113 117 116 117 104 98 102 102 100 101 92 70 46 11
0 0 0 0 0 2 13 15 21 22 22 22 22 21 22 22
21 20 17 15 15 15 14 32 42 41 41 41 41 40 40 40
3 4 10 11 12 13 22 25 25 24 24 23 23 23 19 12
11 11 11 11 10 10 20 18 19 21 21 21 21 21 20 19
19 19 20 19 18 19 20 21 24 37 32 35 55 55 56 51
39 43 32 30 25 15 8 10 16 39 61 72 87 106 119 122
122 122 122 122 120 112 105 100 98 94 89 87 82 85 90 97
102 104 108 109 113 110 97 92 100 95 96 100 96 79 59 22
0 0 0 0 0 0 12 14 19 22 21 21 22 21 21 22
20 15 2 0 0 0 0 19 30 30 31 32 34 34 35 36
8 8 10 10 11 12 12 12 14 15 17 17 17 18 14 6
5 5 5 5 5 7 20 20 18 19 19 19 20 20 19 18
18 19 19 19 19 19 19 23 28 37 35 36 53 53 57 43
39 39 27 29 21 15 9 12 19 46 66 74 87 106 118 123
122 122 121 121 120 114 110 106 104 104 102 98 95 86 79 77
84 94 98 103 103 100 86 87 87 77 85 94 93 75 59 31
1 0 0 0 0 1 12 12 18 21 21 21 21 21 21 20
18 8 0 0 0 0 0 0 0 0 1 1 2 2 3 3
7 3 1 1 1 1 0 1 0 8 17 18 19 19 14 5
5 5 5 6 5 7 19 18 17 17 17 17 18 18 18 18
18 18 19 19 19 19 19 22 28 38 38 37 51 51 58 39
43 38 28 28 21 13 11 16 21 48 69 77 88 105 118 123
122 122 121 121 120 117 113 110 108 110 108 105 103 101 95 86
78 76 82 90 93 80 67 69 67 65 71 80 80 67 57 32
1 0 0 0 5 9 12 12 17 20 20 20 20 20 20 21
18 6 0 0 0 0 0 0 0 0 0 0 0 0 0 0
6 1 0 0 0 0 0 0 0 8 17 18 18 18 13 4
4 3 4 4 4 5 18 19 17 16 17 16 16 16 16 16
16 17 18 19 19 19 19 20 24 35 42 36 50 52 59 38
48 37 32 31 23 14 16 19 26 52 70 77 86 103 116 122
122 122 121 119 121 119 117 116 115 113 112 110 107 103 100 95
93 85 78 74 77 69 52 43 53 60 60 71 65 59 52 27
4 0 0 0 11 13 14 17 20 21 20 20 20 19 19 20
17 20 23 20 12 11 9 7 6 4 3 2 2 1 0 0
6 3 1 2 3 4 6 9 11 14 17 17 19 19 16 8
9 10 11 13 11 5 16 19 16 16 16 16 16 16 15 15
16 18 19 18 19 19 19 20 25 32 39 38 50 55 55 42
58 43 39 34 28 16 19 24 30 51 69 76 84 102 116 122
122 120 118 121 122 120 120 118 116 114 111 110 107 105 101 96
90 86 81 77 72 67 53 33 35 39 54 57 52 48 43 17
10 0 0 1 11 11 15 20 20 20 19 20 20 19 19 19
18 37 43 42 42 41 40 39 38 38 37 35 33 31 30 28
7 8 10 11 13 14 17 18 19 21 21 22 22 22 22 19
21 22 21 21 19 19 21 19 16 16 16 16 16 15 15 15
16 17 18 19 18 18 18 18 24 27 28 42 50 56 54 46
70 53 41 38 33 23 28 29 35 49 69 75 83 101 115 121
120 119 108 119 121 120 120 120 120 117 117 113 109 105 97 91
82 76 71 66 63 63 57 35 29 32 34 39 40 36 22 11
15 3 0 1 10 10 13 18 18 20 20 20 19 19 19 18
19 40 43 42 42 42 41 42 42 42 42 42 42 41 41 41
14 14 15 17 16 15 16 16 17 21 18 19 19 21 24 22
21 22 23 25 26 27 26 20 17 16 16 16 16 16 19 21
22 20 18 18 19 18 18 16 18 27 24 38 50 57 58 55
79 60 43 42 36 38 32 31 36 51 70 70 82 101 115 120
120 120 120 121 122 121 120 121 120 121 119 114 108 102 94 84
66 42 28 21 18 17 22 20 16 13 20 20 21 9 2 11
7 5 0 0 5 2 2 3 4 9 16 19 19 19 19 18
21 41 43 43 43 42 43 43 42 42 42 41 41 41 41 41
10 11 12 16 17 16 19 20 21 23 24 24 25 26 27 25
21 18 20 23 26 28 31 30 27 24 19 17 16 17 28 35
34 28 18 17 16 13 4 2 5 23 24 29 50 60 60 62
76 56 39 39 35 48 38 38 36 55 67 65 77 101 114 120
121 120 120 121 120 120 120 121 121 120 117 113 107 98 83 69
37 17 11 12 14 18 18 19 18 1 2 6 0 0 0 4
0 0 1 0 0 0 2 3 2 0 2 9 17 19 19 17
23 42 42 43 43 42 42 42 42 42 42 42 41 42 41 42
17 17 18 18 19 19 21 21 22 24 25 25 26 27 28 29
29 24 23 24 26 27 31 32 30 29 26 20 13 13 30 37
38 30 17 17 13 6 0 0 1 20 25 31 47 60 61 67
70 51 35 35 36 43 46 39 42 53 63 63 71 98 111 119
122 120 120 120 122 120 120 120 121 120 118 112 103 89 84 68
37 21 20 30 36 15 12 19 10 2 2 0 0 0 0 0
0 0 0 0 5 9 9 7 6 6 1 0 6 16 18 15
25 42 43 42 43 43 43 43 42 42 42 42 42 41 41 41
18 17 20 19 20 20 21 22 23 25 25 25 27 27 27 28
27 26 25 23 23 21 19 17 17 15 13 12 12 11 15 17
16 14 14 14 14 11 6 4 2 20 38 36 52 61 65 67
58 51 35 33 36 39 40 41 48 59 66 65 68 96 111 118
121 120 120 121 120 119 115 117 120 119 116 111 99 88 85 71
54 27 31 49 85 64 11 9 5 18 8 0 0 2 4 0
0 0 0 7 8 6 6 8 9 9 3 0 0 7 16 15
29 42 42 42 42 42 42 41 42 42 42 41 42 42 42 41
8 8 10 9 9 10 11 11 12 12 13 13 12 12 11 10
8 6 5 3 3 1 0 0 5 7 6 6 6 5 5 3
3 2 12 17 16 16 14 13 12 16 29 37 58 70 67 70
57 51 43 38 40 36 44 48 49 60 68 67 63 89 112 119
121 119 121 119 117 118 117 116 115 118 114 107 94 88 84 79
70 28 50 70 95 99 82 29 26 35 15 2 1 10 8 0
0 0 0 4 6 7 9 12 13 14 12 3 0 0 9 13
32 43 43 42 42 43 43 42 42 42 42 42 41 41 41 40
0 0 0 0 0 0 0 0 0 0 0 0 0 0 0 0
0 0 0 0 0 0 0 0 0 0 0 0 0 0 0 0
2 6 13 16 16 16 16 14 11 10 5 44 81 74 71 73
65 57 52 44 40 39 46 52 51 63 70 71 60 86 111 120
120 119 121 121 119 118 117 116 115 115 112 101 89 87 86 83
76 27 40 95 99 105 109 103 59 36 26 8 2 11 7 0
0 4 0 1 3 6 9 8 10 11 12 11 3 0 1 10
35 43 43 42 43 42 42 42 42 41 41 41 41 41 40 40
0 0 0 0 0 0 0 0 0 0 0 0 0 0 0 0
0 0 0 0 0 0 0 0 0 0 0 0 0 0 0 0
9 14 15 16 16 16 16 14 14 27 53 105 97 76 75 73
73 66 62 53 46 45 49 52 63 72 72 71 55 81 110 119
121 120 121 120 119 120 119 117 115 113 107 91 87 86 91 87
77 26 12 93 108 117 122 121 111 85 48 7 2 7 3 0
3 6 2 0 1 5 7 8 8 8 10 14 9 0 0 6
36 42 43 42 42 42 42 42 41 41 41 41 41 40 40 40
0 0 0 0 0 0 0 0 0 0 0 0 0 0 0 0
0 0 0 0 0 0 0 0 0 0 0 0 0 0 0 0
10 14 16 15 15 16 34 68 101 110 116 116 111 89 84 70
74 71 67 70 53 49 54 61 66 70 68 66 52 81 110 119
121 120 119 120 120 118 117 115 111 106 92 89 91 94 99 95
78 35 2 73 119 121 121 120 120 113 109 90 28 2 0 3
3 5 2 0 3 7 8 11 10 11 12 15 13 6 0 4
37 41 42 41 41 41 41 41 41 40 40 40 40 39 40 40
0 0 0 0 0 0 0 0 0 0 0 0 0 0 0 0
0 0 0 0 0 0 0 0 0 0 0 0 0 1 2 4
12 16 17 17 33 84 114 119 117 114 114 122 122 105 95 87
72 71 66 68 71 62 65 68 63 64 61 59 48 79 108 117
119 120 120 121 120 120 118 112 106 96 89 93 97 105 108 97
79 47 2 59 123 121 121 121 121 119 118 120 102 49 10 7
0 0 0 0 1 4 5 8 9 10 10 11 12 9 0 5
38 40 41 40 41 41 41 41 40 40 40 40 40 39 40 39
0 0 0 0 0 0 0 0 0 0 0 0 0 0 0 0
0 0 0 0 0 0 0 0 3 6 8 11 13 14 16 16
16 23 39 70 107 115 120 123 123 123 123 124 124 121 118 115
97 69 69 67 62 68 69 62 62 65 53 52 50 79 105 117
121 120 120 120 120 119 115 109 101 92 92 99 110 115 111 98
80 55 8 46 123 121 121 120 120 119 120 120 119 117 106 74
32 4 0 0 0 0 0 0 0 1 0 1 2 1 0 8
39 40 41 41 40 40 40 40 40 40 39 39 39 39 39 39
0 0 0 0 0 0 0 0 0 0 0 0 0 0 0 0
0 0 0 0 0 2 6 4 12 15 15 16 16 17 29 59
93 110 116 118 122 120 120 122 124 123 123 123 123 123 117 116
114 98 66 64 62 61 68 71 70 56 49 50 52 80 103 115
120 120 120 119 118 116 110 105 98 92 98 110 118 116 110 97
81 59 14 37 122 121 121 121 121 120 118 120 120 119 119 118
112 96 65 33 5 0 0 0 1 1 0 0 0 0 0 11
39 40 40 40 39 40 40 40 40 39 39 39 38 38 38 38
0 0 0 0 0 0 0 0 0 0 0 0 0 0 0 0
0 0 0 0 0 5 8 7 12 14 15 20 50 91 118 124
124 123 124 123 123 121 118 121 123 123 123 123 123 123 123 122
119 121 106 88 79 74 82 70 54 48 51 54 55 80 104 115
120 120 119 118 117 111 108 102 95 95 110 118 119 114 107 96
85 64 19 36 122 121 121 120 120 120 120 120 120 119 119 119
119 119 117 114 99 61 19 1 1 1 0 0 0 0 0 17
40 40 40 39 39 39 40 39 39 38 39 38 38 38 38 37
0 0 0 0 0 0 0 0 0 0 0 0 0 0 0 0
0 0 0 0 0 9 11 11 17 33 70 107 124 124 124 124
124 124 124 124 124 123 120 122 124 123 123 123 123 122 123 123
119 122 121 121 118 64 104 79 52 49 55 62 69 83 105 114
119 119 116 114 111 108 105 100 93 103 117 119 116 110 104 97
88 71 21 45 123 121 121 120 120 120 120 119 120 120 120 119
120 119 120 119 119 118 114 81 32 5 1 0 0 0 0 24
39 39 39 39 39 39 39 39 38 38 38 38 37 38 37 37
0 0 0 0 0 0 0 0 0 0 0 0 0 0 0 0
0 0 0 0 1 14 19 52 96 121 125 125 125 124 125 124
125 125 125 125 124 124 123 122 123 123 124 124 124 124 124 124
123 123 123 123 122 61 99 103 75 59 69 86 90 90 106 117
119 119 114 112 108 103 98 92 98 111 119 120 114 108 105 101
93 78 20 54 123 121 121 121 121 120 120 119 120 121 120 120
120 120 120 120 120 119 119 118 117 96 47 7 1 1 0 28
41 40 40 40 40 39 39 39 38 38 38 38 38 38 38 37
0 0 0 0 0 0 0 0 0 0 0 0 0 0 0 0
0 1 14 3 4 41 100 125 126 125 125 125 124 125 125 125
125 125 124 124 124 124 125 124 124 124 124 124 124 124 124 124
124 124 124 124 123 95 65 113 105 94 102 105 100 94 106 118
120 117 110 104 103 97 93 95 110 119 121 118 112 109 108 104
96 76 16 76 124 122 122 122 121 121 121 121 120 120 120 119
120 120 120 120 119 119 119 119 119 119 116 98 52 9 2 33
41 41 41 40 39 40 40 40 40 39 39 39 39 38 38 37
0 0 0 0 0 0 0 0 0 0 0 0 0 0 0 0
0 2 24 14 61 120 126 125 126 125 125 125 126 126 126 126
125 126 126 125 125 125 125 124 125 125 125 124 124 124 124 124
125 124 124 124 124 120 48 103 113 110 111 114 107 96 105 118
122 116 105 100 99 97 97 107 118 121 121 115 110 111 111 106
103 62 15 100 123 122 122 121 121 121 121 121 121 121 121 120
120 121 121 120 120 120 119 119 119 118 118 117 114 100 52 39
42 42 42 41 41 41 41 40 41 40 39 39 39 38 39 38
0 0 0 0 0 0 0 0 0 0 0 0 0 0 0 0
0 0 27 76 122 125 126 126 126 125 125 125 125 125 125 125
125 125 125 125 125 124 125 125 125 124 124 124 124 124 124 124
124 124 124 124 124 123 70 56 115 117 116 117 110 97 105 117
121 113 97 98 99 100 107 116 122 121 120 115 114 115 112 108
101 33 27 118 122 122 122 121 121 121 121 121 121 120 121 120
120 120 120 119 119 119 120 118 119 119 118 118 118 118 117 92
50 42 41 41 40 40 40 40 40 40 40 40 39 39 39 39
0 0 0 0 0 0 0 0 0 0 0 0 0 0 0 0
0 9 83 120 125 125 125 125 125 126 125 126 125 125 126 126
126 125 125 125 125 124 124 125 125 124 125 125 124 124 124 124
124 124 124 124 123 124 110 22 83 121 121 117 110 97 103 117
120 110 92 97 102 107 117 121 121 120 119 117 118 117 114 112
75 15 58 124 122 121 121 121 121 121 120 120 120 120 121 120
121 120 119 120 120 120 119 118 118 118 118 118 118 117 118 118
108 64 42 41 41 41 40 40 40 40 40 39 39 39 39 38
0 0 0 0 0 0 0 0 0 0 0 0 0 0 0 0
8 90 127 123 126 126 126 126 125 125 125 125 125 125 125 124
125 124 124 124 124 124 125 125 124 124 124 124 124 124 124 124
123 123 123 124 124 123 123 58 24 106 123 119 110 96 100 116
120 105 88 99 109 117 121 122 122 121 120 120 120 119 117 100
30 15 96 123 121 121 121 121 121 120 121 120 120 120 120 120
120 119 119 119 119 119 119 119 118 118 119 118 118 118 118 118
117 113 74 41 40 40 40 40 40 40 40 39 39 39 39 38
0 0 0 0 0 0 0 0 0 0 0 0 0 0 0 1
67 127 126 124 125 125 125 125 125 125 124 125 125 125 125 125
126 125 125 125 124 124 124 124 124 125 123 124 124 124 124 124
124 124 124 124 124 124 123 104 15 36 111 121 112 97 98 116
119 101 91 106 119 121 122 121 122 120 121 121 121 120 109 47
13 38 121 122 121 121 121 121 121 121 121 120 120 120 120 120
120 120 120 119 119 119 119 119 119 119 118 117 118 117 118 118
117 117 109 65 41 41 41 40 40 40 39 39 39 39 38 37
0 0 0 0 0 0 0 0 0 0 0 0 0 0 0 22
119 125 125 125 125 125 125 125 125 125 125 126 126 125 125 124
125 125 125 125 125 124 124 125 124 125 124 124 124 124 124 124
124 123 123 123 123 123 123 122 54 12 36 104 113 100 95 116
118 100 97 114 122 122 122 121 121 122 121 121 121 114 56 12
15 86 123 121 121 121 121 121 121 120 121 121 120 121 121 120
121 119 119 119 119 119 119 118 119 119 119 118 118 118 118 119
118 118 117 100 49 40 40 39 39 39 39 39 39 39 39 38
0 0 0 0 0 0 0 0 0 0 0 0 0 0 1 78
128 126 126 125 125 125 125 125 124 125 124 124 125 125 125 126
125 125 125 125 125 124 124 124 124 124 124 123 124 124 124 123
124 124 123 124 124 123 123 122 109 19 12 26 82 102 91 113
118 99 102 121 123 122 122 122 121 121 121 121 114 54 12 13
38 120 122 122 121 121 121 121 121 121 121 120 121 120 120 120
120 120 120 119 119 119 119 119 119 119 119 118 118 118 118 118
118 117 118 112 79 41 41 40 40 39 39 39 38 38 37 37
0 0 0 0 0 0 0 0 0 0 0 0 0 0 23 120
126 125 124 125 125 125 125 125 125 126 125 126 125 124 124 124
124 125 124 124 124 124 124 124 124 124 124 124 124 124 124 123
123 124 123 123 123 123 123 123 123 73 11 11 14 43 79 108
116 98 109 122 121 122 122 122 122 121 121 107 43 12 13 16
93 122 122 121 121 120 120 120 120 121 121 121 121 120 121 121
121 120 120 119 120 119 119 119 119 119 119 119 119 118 119 118
118 118 117 116 100 53 40 40 39 39 39 39 39 38 38 37
0 0 0 0 0 0 0 0 0 0 0 0 0 0 71 128
126 126 125 125 124 124 124 125 124 125 124 125 124 125 125 125
125 125 125 124 124 124 124 124 124 124 124 123 124 123 124 124
123 123 123 123 123 123 123 123 123 119 38 11 10 11 20 66
108 98 115 123 122 122 121 121 121 118 81 24 11 12 14 53
122 122 121 121 121 121 120 121 121 121 121 120 120 121 121 120
121 120 120 120 120 120 120 120 119 119 119 119 119 119 118 119
118 118 118 118 110 84 42 41 40 40 39 39 38 37 37 36
0 0 0 0 0 0 0 0 0 0 0 0 0 6 107 127
126 125 125 124 125 124 125 125 125 125 125 125 125 125 125 124
125 124 124 124 124 124 124 124 124 124 124 124 124 124 124 123
123 123 123 122 123 122 122 122 122 123 102 17 11 11 11 11
24 52 92 117 121 121 121 116 88 40 13 13 13 13 26 112
122 121 121 121 121 120 121 120 121 121 121 121 121 121 121 121
121 121 121 120 120 120 120 119 120 119 120 120 119 119 119 119
119 119 119 118 116 104 64 39 39 39 39 38 38 38 37 37
0 0 0 0 0 0 0 0 0 0 0 0 0 23 123 127
126 126 126 124 125 125 124 124 125 125 124 124 124 125 125 125
125 125 125 125 124 124 124 124 124 124 124 124 123 124 124 123
123 123 122 123 123 123 123 123 123 122 123 82 11 11 10 11
11 11 13 18 31 39 33 20 13 12 12 12 12 20 95 122
122 122 122 122 122 121 121 121 121 121 121 121 121 121 121 121
121 121 121 121 121 121 121 120 121 121 121 120 120 119 120 119
119 119 119 119 118 113 107 53 40 39 39 38 38 37 36 36
8 6 8 7 8 8 7 5 3 2 0 0 0 45 128 126
125 125 125 124 124 125 125 124 125 125 125 125 125 125 124 124
124 124 124 124 124 124 124 124 124 124 124 124 124 124 124 123
123 123 123 123 123 123 122 122 122 122 122 122 66 12 11 11
10 9 11 10 10 10 9 10 10 10 10 12 18 90 123 122
121 122 122 122 121 121 121 120 120 121 120 121 121 121 121 121
121 121 121 121 120 121 120 120 120 120 120 120 120 120 120 120
120 119 119 119 118 116 116 101 46 38 38 38 38 37 36 36
14 13 14 13 15 16 17 18 18 19 17 13 8 69 128 126
125 125 125 124 125 124 125 124 124 124 124 124 124 124 124 124
124 124 124 124 124 124 124 124 123 123 124 123 123 123 123 123
123 123 123 123 123 123 123 123 122 123 122 122 121 76 12 9
9 9 10 9 11 9 9 9 9 9 10 24 96 122 122 121
121 121 122 121 122 121 121 121 121 121 120 121 121 121 120 120
120 120 120 120 121 120 120 120 120 120 119 119 119 120 119 118
118 118 118 119 118 117 117 115 87 39 38 37 37 36 36 34
14 12 12 12 15 17 17 16 15 17 20 21 24 88 127 125
122 124 124 124 124 124 124 124 124 124 125 124 124 124 124 124
124 124 124 124 123 123 124 124 124 124 124 123 123 123 123 123
123 122 122 122 122 122 122 122 122 122 122 123 122 122 94 27
9 10 9 9 9 8 9 8 9 11 42 111 122 121 121 121
120 121 121 121 121 121 121 120 121 121 120 120 121 121 121 121
121 120 120 120 120 120 120 120 119 119 119 119 118 119 119 118
118 118 118 118 118 117 116 116 111 64 37 37 37 37 36 35
