P2
128 120
141
0 0 4 0 0 10 39 32 27 27 27 26 26 26 26 26
26 25 25 25 24 24 24 23 24 24 23 23 22 22 23 22
21 21 21 20 21 20 20 20 18 18 18 18 18 17 17 17
17 16 16 15 16 16 16 18 19 20 19 16 12 17 15 16
18 18 18 17 17 18 15 15 15 13 14 14 16 17 17 17
17 18 17 17 18 18 18 18 19 19 19 19 20 20 20 21
21 21 21 22 22 22 22 22 22 22 23 23 23 24 25 24
24 24 25 25 25 25 25 26 25 25 25 25 24 25 25 25
0 0 0 0 0 11 37 32 27 27 27 27 26 26 26 26
26 25 25 25 25 24 25 24 24 23 23 23 23 23 22 22
22 21 20 20 20 20 19 19 19 19 19 18 18 18 18 17
16 16 17 16 16 16 17 19 20 20 20 16 12 18 16 15
19 19 19 17 17 17 16 16 15 14 15 15 17 17 17 18
18 19 18 18 18 18 18 19 19 19 20 20 20 20 20 21
21 21 22 22 22 22 22 23 23 23 24 24 25 24 25 25
25 25 25 25 24 23 24 24 25 25 26 25 26 26 26 26
4 1 0 0 3 16 38 31 27 27 27 27 27 26 26 26
26 26 26 25 25 25 24 24 24 24 23 23 22 22 22 22
22 21 21 20 21 20 20 20 20 19 19 19 18 18 18 18
17 17 17 17 17 17 17 20 21 20 20 16 13 19 18 14
19 19 19 18 17 17 16 16 16 14 15 15 17 18 18 18
18 19 19 19 19 19 19 18 19 19 20 20 21 20 21 21
21 22 22 23 23 22 23 23 24 23 24 24 24 23 24 23
24 23 24 24 25 25 25 26 25 26 25 26 26 25 25 25
25 24 20 15 12 23 36 30 27 27 26 27 27 26 26 26
26 26 26 25 25 25 25 24 24 24 24 24 24 23 22 21
21 21 21 21 20 20 20 20 19 19 19 19 19 18 18 18
17 17 17 17 17 17 17 20 21 21 21 17 14 20 20 14
20 19 19 19 18 16 16 17 16 14 15 15 18 18 18 19
19 19 20 19 20 19 19 19 19 20 20 21 22 22 22 22
22 22 22 23 22 23 24 23 23 23 23 23 24 24 25 25
25 25 25 25 25 25 26 25 25 25 25 26 26 26 26 26
19 21 25 27 29 30 31 28 27 27 27 26 27 26 26 26
26 25 25 25 25 24 25 24 24 24 23 23 23 22 22 22
22 21 21 21 21 21 21 20 20 20 19 19 18 18 18 18
18 16 17 17 17 18 17 20 21 21 21 16 14 20 21 14
20 19 19 19 18 17 17 17 17 15 15 15 18 18 19 18
19 20 20 20 19 20 20 20 21 21 21 21 21 22 21 21
21 21 22 22 23 23 24 24 24 25 25 25 24 24 24 25
25 25 24 25 25 25 26 25 25 25 25 25 25 25 26 25
10 13 16 19 22 24 27 28 28 27 27 27 26 26 26 26
26 25 25 25 25 25 25 24 24 24 24 23 23 22 22 22
22 22 21 21 21 21 20 20 20 20 19 19 20 19 18 18
18 18 18 17 17 18 18 21 22 21 21 17 14 21 22 13
20 20 19 19 18 17 17 17 17 15 16 16 19 20 20 20
20 20 20 20 20 19 20 20 21 20 20 20 21 21 22 22
22 22 23 23 23 23 24 25 25 25 25 25 25 25 25 25
26 25 25 25 25 25 26 25 24 25 25 25 26 26 26 26
7 6 7 8 9 13 17 21 25 27 28 27 27 26 26 26
26 26 25 25 25 25 25 24 24 23 24 23 23 22 22 22
22 22 22 21 21 21 21 20 20 20 20 20 19 19 19 18
18 18 18 17 18 18 19 21 23 22 21 17 14 21 24 12
20 20 20 19 19 17 18 17 17 15 16 16 19 20 19 20
20 19 20 20 20 20 20 20 21 21 21 21 22 21 21 21
22 23 22 23 23 23 24 25 25 24 25 25 25 25 25 25
25 25 26 25 25 25 26 25 26 25 25 25 25 25 25 25
6 6 7 7 6 8 7 8 10 11 15 19 23 25 27 26
26 25 25 25 25 25 25 24 25 24 24 23 23 24 22 22
22 22 21 21 21 21 20 20 20 20 20 19 19 19 19 19
18 18 18 18 18 18 19 21 22 22 22 17 15 21 24 13
20 20 20 19 18 16 18 18 17 15 17 16 19 19 19 19
20 19 19 19 20 20 20 21 22 21 21 22 22 22 22 23
22 24 23 23 23 24 24 25 25 25 25 25 25 25 25 25
25 25 25 25 25 25 26 24 25 25 25 26 25 25 25 26
21 19 16 13 10 9 8 7 8 7 8 8 9 9 13 18
25 26 25 25 25 25 24 25 24 24 24 24 23 23 23 23
23 22 23 22 22 22 22 21 21 20 20 20 19 19 19 19
18 18 18 18 18 18 19 22 23 22 22 18 15 22 24 13
19 21 21 20 20 19 18 18 18 15 17 16 19 19 20 20
20 21 21 21 20 21 21 21 22 21 22 22 22 22 23 23
23 23 23 24 24 24 25 25 25 25 26 25 25 25 25 24
24 25 25 25 25 25 26 25 25 25 25 25 26 25 26 26
31 38 38 35 31 19 11 11 8 7 7 8 8 1 2 11
25 25 25 25 25 25 24 24 24 24 24 23 23 23 23 22
23 22 22 21 21 21 22 21 21 21 20 20 20 20 19 19
19 18 18 18 18 19 19 22 23 22 22 17 15 22 24 14
18 21 21 20 20 18 19 18 19 16 17 18 20 20 20 21
21 20 21 21 21 21 21 22 22 21 22 22 22 23 22 23
23 23 24 24 24 25 25 26 24 25 25 25 25 25 25 25
25 25 25 25 25 25 26 25 25 24 26 25 25 25 25 25
36 35 39 39 37 24 20 25 27 19 13 10 7 5 5 10
24 26 25 25 24 24 24 24 24 24 24 23 23 23 23 22
22 22 22 22 22 21 21 21 21 20 20 20 19 19 19 19
19 18 18 18 18 19 20 22 23 22 22 17 14 22 24 15
16 21 21 20 20 19 19 18 18 16 18 18 20 21 20 20
20 20 21 21 21 21 22 22 23 21 22 22 22 22 23 23
23 23 24 24 24 24 25 25 25 25 25 25 25 25 25 25
25 25 25 26 26 26 26 25 25 26 25 25 25 25 25 24
25 30 36 39 38 27 26 30 32 26 33 31 27 12 5 11
24 25 25 25 25 24 29 28 27 25 25 24 24 24 23 22
23 22 22 21 22 21 25 29 26 23 21 21 20 20 19 19
20 19 19 19 19 19 20 22 22 22 22 17 15 23 24 17
16 21 21 20 20 19 19 18 19 16 18 18 20 20 20 20
21 20 21 21 21 21 22 22 23 21 22 22 23 23 23 23
23 24 24 24 24 24 25 24 25 25 25 26 25 25 25 25
25 25 26 26 26 26 26 24 24 24 24 23 24 25 25 25
0 3 8 13 27 29 30 31 34 33 37 37 36 17 6 13
26 26 25 25 25 26 35 33 32 30 28 26 24 23 23 23
22 22 22 22 22 21 29 33 31 28 28 26 21 20 20 19
19 19 19 19 19 19 20 22 23 23 22 17 15 23 25 18
15 21 21 21 19 19 19 19 19 17 18 18 20 21 20 20
21 20 21 21 21 22 22 22 23 22 22 23 23 23 23 23
23 24 24 24 25 25 25 24 25 25 25 25 25 25 24 24
24 23 23 23 24 24 24 23 24 25 25 24 24 25 26 26
0 0 0 0 15 30 30 32 34 36 37 38 38 21 6 15
28 27 26 26 25 26 35 34 31 29 30 31 32 27 27 25
23 22 22 22 21 22 28 31 30 28 29 28 25 20 21 20
20 19 20 20 19 19 20 22 23 23 22 17 15 23 26 19
14 22 22 21 20 20 19 19 19 17 18 18 21 21 21 21
21 21 22 22 21 22 22 22 23 23 22 23 23 23 24 23
24 24 24 25 25 24 25 25 25 25 24 25 25 24 24 24
25 25 26 26 26 25 25 25 25 24 25 24 25 25 26 25
0 0 10 1 18 28 25 29 31 35 37 36 36 21 7 16
31 28 28 28 28 28 28 27 31 31 34 34 34 27 27 30
29 26 24 24 23 22 25 18 21 24 27 29 26 20 20 20
20 19 20 19 20 20 20 23 24 24 23 16 14 18 25 20
14 21 22 21 20 20 19 19 19 17 19 19 21 21 22 21
22 22 22 22 23 23 23 23 24 23 23 23 23 24 24 23
23 24 24 24 24 24 24 24 24 25 25 24 25 24 26 26
25 25 25 26 25 24 25 25 25 25 25 25 25 25 25 25
0 0 8 2 19 20 0 5 11 21 28 30 33 21 7 16
31 27 24 27 31 33 11 0 7 20 26 29 33 18 3 9
15 23 24 28 29 25 22 8 4 6 7 11 21 21 20 20
20 20 20 20 20 20 20 23 24 24 19 10 12 9 24 21
14 22 22 21 21 21 19 20 19 18 19 19 21 21 22 22
22 22 22 22 22 22 22 22 23 22 22 22 23 23 24 24
24 24 24 24 24 23 24 25 24 24 24 24 23 24 24 25
25 25 25 25 25 25 25 25 25 25 24 25 25 25 25 25
0 0 0 0 20 18 0 0 0 0 1 2 18 22 8 12
24 28 30 28 33 36 11 0 0 4 7 8 19 15 0 0
0 0 3 9 16 23 23 6 0 2 2 0 15 22 20 20
20 19 20 20 20 20 21 24 25 24 22 14 15 20 25 22
14 20 22 22 21 22 21 21 20 18 20 19 22 22 22 22
22 22 22 22 22 23 22 23 22 24 24 24 24 24 24 25
25 24 25 25 24 25 25 24 24 24 25 25 25 25 26 25
25 25 25 25 25 25 25 25 25 25 26 25 25 25 25 25
0 1 0 0 22 16 0 0 0 0 0 0 13 21 8 3
0 3 10 19 29 33 11 0 0 0 2 4 17 16 0 0
0 0 0 0 0 8 23 4 0 0 0 0 16 22 21 21
21 21 20 20 20 21 21 24 25 24 23 17 16 24 26 22
16 20 23 21 21 22 20 20 20 18 19 19 21 21 22 22
22 23 23 23 23 24 23 23 23 24 23 24 24 24 24 26
23 25 25 24 24 25 25 25 25 24 24 25 25 25 25 25
25 25 26 25 25 25 26 26 24 25 26 26 25 25 25 25
3 11 0 0 23 14 0 0 3 1 0 0 15 20 7 2
0 0 0 0 1 7 10 0 0 0 0 0 15 15 0 0
0 0 0 0 0 8 21 0 0 0 0 0 19 23 21 21
21 20 21 21 21 22 22 25 25 25 24 18 17 24 26 23
17 19 22 22 22 21 20 21 20 19 19 19 22 23 23 23
23 23 24 23 24 23 23 23 24 24 23 24 24 24 24 25
25 25 25 25 25 25 24 24 25 25 25 25 25 25 25 26
25 25 26 25 24 25 25 25 25 25 25 26 26 24 25 26
0 5 0 0 24 13 0 0 2 6 0 0 16 19 8 2
0 0 0 0 0 1 7 0 0 0 0 0 15 13 0 0
0 0 0 0 0 8 19 0 0 0 0 0 21 23 22 22
21 21 21 21 21 21 22 25 25 25 24 18 18 26 27 24
18 18 24 23 22 22 20 21 20 19 20 19 23 22 23 23
23 24 23 24 23 24 24 23 24 23 24 24 25 24 24 26
25 25 26 25 25 25 25 25 25 25 25 24 24 24 25 26
25 25 25 25 26 25 26 26 25 25 25 26 25 25 25 25
1 0 0 0 25 11 0 0 0 3 0 0 18 17 7 2
0 0 0 0 0 0 5 0 0 0 0 0 19 15 0 0
0 3 4 0 0 8 18 0 0 0 0 0 21 23 22 22
22 21 21 21 21 22 23 26 26 25 25 18 19 26 26 24
19 17 23 23 22 22 21 21 21 19 21 20 24 24 24 23
23 24 23 24 24 23 23 24 24 25 24 25 24 24 25 26
25 25 25 25 25 25 26 26 26 25 24 25 25 25 25 26
26 25 25 25 25 25 26 25 25 25 25 25 27 26 26 26
0 0 0 0 25 8 0 0 0 0 0 0 19 16 8 1
0 0 1 2 0 0 3 0 0 0 0 0 18 16 0 0
0 5 7 6 2 8 18 0 0 0 0 0 20 24 22 22
22 22 22 21 22 22 22 26 26 26 25 18 19 25 27 24
21 16 24 24 22 23 22 22 21 19 21 20 24 24 24 24
24 24 24 24 24 23 24 24 24 25 24 25 25 25 26 26
25 25 26 25 25 25 26 25 25 26 25 25 26 25 25 26
26 25 25 26 26 26 25 25 25 25 25 26 26 26 26 25
16 10 4 2 26 7 0 0 0 0 0 0 20 14 8 2
1 1 0 0 0 0 3 0 0 0 0 0 19 16 0 0
0 4 6 5 2 7 19 0 0 0 0 0 19 24 22 22
22 21 21 21 21 22 22 26 26 26 25 17 18 25 27 24
21 15 22 22 22 22 21 21 21 19 20 19 23 24 24 23
24 24 23 23 24 23 24 24 24 24 25 24 25 24 25 25
24 25 25 25 25 25 25 25 25 25 25 25 25 25 26 24
25 24 25 25 25 25 26 25 26 25 26 25 25 25 25 24
33 35 34 31 31 23 8 6 7 4 1 0 22 13 9 1
1 0 0 0 0 1 4 0 0 0 0 3 22 18 0 0
0 0 3 6 1 6 25 11 4 0 0 0 19 24 22 22
22 22 22 22 22 23 23 26 26 26 24 17 19 26 27 25
22 16 22 24 22 22 22 22 21 19 20 20 23 23 23 23
24 24 23 24 25 24 24 24 24 24 25 24 25 25 25 25
25 25 25 26 26 26 26 25 25 26 25 25 25 25 25 25
26 26 26 26 25 26 26 25 27 26 27 26 25 26 25 25
10 11 13 27 40 45 26 24 28 30 27 24 27 11 7 1
0 0 0 0 0 3 21 11 6 4 0 0 22 32 20 14
9 3 0 1 0 7 31 31 27 25 22 21 29 24 22 22
22 22 21 22 22 23 24 26 27 26 23 17 20 26 27 25
23 16 21 23 22 22 22 21 21 19 21 20 24 24 24 23
23 24 24 23 23 23 24 25 24 24 25 25 25 26 26 26
25 25 26 26 25 25 25 25 25 25 25 24 25 25 25 26
26 26 26 26 26 25 25 25 26 26 25 25 25 25 25 24
3 1 0 24 46 41 22 25 33 36 36 36 32 10 8 1
0 0 0 0 0 4 38 35 29 29 27 19 31 30 14 17
21 21 19 16 14 19 34 31 30 30 34 37 36 24 22 23
22 22 22 22 22 23 24 26 26 25 22 19 20 26 27 25
23 18 19 24 22 22 21 22 22 20 22 20 24 24 23 24
24 24 24 24 24 24 24 24 25 25 25 24 25 25 24 25
25 25 25 25 26 26 26 25 25 25 25 25 24 24 25 25
25 25 25 25 25 24 25 26 26 26 25 25 25 25 25 25
0 0 0 26 42 29 17 27 34 35 37 38 33 9 8 5
2 0 0 0 0 6 39 31 35 37 40 36 33 22 6 7
7 8 9 10 15 21 22 20 25 28 32 34 34 24 22 22
22 22 22 22 22 23 23 26 27 26 21 20 22 27 27 25
23 18 18 23 22 23 22 21 21 19 21 21 24 23 23 23
24 24 25 24 23 24 24 24 24 25 25 25 25 26 25 25
25 25 25 26 26 26 26 26 26 26 26 25 25 25 25 25
25 25 25 25 25 24 25 25 26 26 25 25 26 26 25 26
0 0 0 25 40 20 0 2 6 9 14 19 31 10 10 23
31 27 18 10 6 10 30 27 35 37 39 37 28 20 8 8
7 6 5 4 3 2 2 5 8 15 23 20 20 21 23 22
22 22 22 22 23 24 23 27 27 26 20 20 23 26 27 25
25 21 19 24 22 23 21 22 22 19 21 20 23 24 24 24
24 24 24 25 25 25 25 25 25 25 25 25 25 25 25 24
25 25 25 26 26 26 26 26 25 26 25 25 26 25 25 25
25 25 25 25 25 24 24 25 25 26 26 25 25 25 25 25
0 0 0 24 41 19 0 0 0 0 0 0 26 11 10 25
37 37 37 35 34 34 26 21 31 34 38 36 30 22 11 8
6 4 4 3 4 3 3 4 4 13 19 18 21 22 23 23
23 22 22 22 23 24 24 27 27 25 18 18 25 26 27 26
26 22 17 23 23 23 23 22 22 20 23 21 25 25 25 25
25 25 25 25 25 25 24 25 26 25 25 25 25 25 25 25
25 26 27 26 26 26 26 26 26 26 25 23 25 26 26 26
25 26 26 25 25 25 25 25 25 26 25 25 25 25 26 26
0 0 0 22 40 16 0 0 0 0 0 1 25 11 9 24
37 38 38 38 38 38 15 0 3 8 14 19 21 25 11 7
3 0 1 2 6 6 6 7 7 17 15 8 24 25 24 18
19 23 23 23 24 24 24 27 27 24 17 18 25 26 27 26
25 23 20 24 23 24 22 23 23 20 23 22 25 25 25 25
25 25 24 25 25 25 24 25 26 25 25 25 25 26 26 26
25 25 27 26 26 26 26 26 26 26 25 24 25 26 26 26
26 25 26 26 26 26 26 26 27 26 25 26 25 26 26 26
0 0 0 19 35 12 0 0 0 4 17 16 23 20 15 22
29 30 31 33 37 37 12 0 0 0 0 4 13 26 9 6
1 0 0 0 4 4 1 4 7 17 29 28 29 30 30 15
11 24 23 23 24 22 21 26 27 24 18 18 25 28 29 28
26 26 25 31 35 31 25 24 23 21 23 22 25 25 26 25
25 25 25 25 25 25 25 25 26 26 25 26 26 26 26 26
26 26 27 26 27 26 26 27 27 27 24 24 27 27 27 27
26 27 27 26 26 26 26 26 26 26 26 26 26 26 26 26
0 0 0 20 34 9 0 0 0 4 17 18 18 18 15 17
18 21 25 24 29 34 8 0 0 0 0 0 13 27 9 6
1 0 0 0 0 0 0 0 0 13 30 23 20 20 24 27
26 24 24 24 24 10 15 26 27 26 16 15 26 29 29 33
33 27 28 31 35 38 38 30 25 21 23 20 21 25 26 25
25 25 26 23 20 21 25 26 28 27 28 27 27 28 28 27
27 27 28 28 28 28 28 29 27 28 25 26 27 28 27 27
27 28 27 27 27 27 27 27 27 27 28 28 28 27 27 27
0 0 0 26 35 8 0 0 0 0 6 10 18 17 15 17
17 18 24 23 30 34 7 0 0 0 0 0 12 24 3 0
0 0 1 3 0 0 0 0 0 12 32 24 17 23 22 22
24 25 24 25 24 11 17 26 27 28 17 15 26 25 25 28
24 23 26 36 37 38 34 33 31 23 22 17 11 25 27 26
26 26 26 23 12 15 27 27 29 27 28 27 28 28 28 28
28 28 28 28 28 28 29 29 28 28 28 27 28 28 29 28
28 28 28 28 28 28 28 28 28 28 28 28 28 27 28 28
0 0 0 29 36 6 0 0 0 0 0 0 14 10 13 10
9 15 22 26 32 32 6 0 0 0 0 0 16 19 0 0
0 0 0 6 4 0 0 0 0 13 33 23 11 23 21 20
24 25 25 26 25 21 21 27 28 29 20 13 21 21 21 23
28 27 31 39 36 34 32 32 31 27 21 20 15 24 27 27
27 27 26 26 24 25 27 27 28 28 28 28 28 29 28 28
28 28 28 29 29 29 29 29 29 29 28 28 29 28 29 28
29 29 29 28 28 28 27 27 28 28 27 27 27 27 27 27
0 0 0 32 35 5 0 0 0 0 0 1 20 16 18 5
0 0 0 3 6 15 5 0 0 0 0 0 18 18 0 0
0 0 1 7 9 5 0 0 0 13 33 24 9 15 14 19
24 25 25 25 25 23 22 28 28 25 17 16 26 30 35 41
45 42 36 35 32 32 34 32 29 29 26 22 22 25 26 26
26 27 27 27 27 27 27 27 28 28 28 28 28 29 29 29
28 28 29 29 29 29 30 30 29 28 28 28 28 28 28 28
28 28 28 28 28 28 29 28 28 28 27 28 27 27 27 28
15 8 7 33 34 5 0 0 2 0 0 1 26 20 18 6
0 0 0 0 0 5 5 0 0 0 0 0 19 14 0 0
0 0 10 12 11 9 0 0 0 14 34 25 16 17 14 18
24 25 25 25 26 24 21 25 17 17 23 26 37 55 69 76
75 72 62 40 24 23 32 31 30 24 22 25 26 28 26 27
27 27 27 27 28 28 28 27 27 27 28 28 28 28 28 28
28 28 28 28 28 28 29 29 29 29 26 26 29 30 30 28
27 27 28 28 28 28 28 27 27 28 27 27 27 27 27 27
25 23 21 26 26 10 0 0 3 3 0 1 28 20 18 5
0 0 0 0 0 5 3 0 1 7 1 0 19 12 0 0
0 0 6 13 8 1 0 0 0 13 34 28 18 8 2 15
23 25 25 25 25 24 19 22 22 28 33 54 70 75 79 82
83 79 72 67 58 34 33 36 33 32 28 22 24 25 28 28
27 27 28 27 28 27 27 27 27 28 28 28 28 29 29 29
28 28 28 29 29 29 29 29 29 28 25 24 28 28 29 28
28 27 28 28 27 28 28 27 27 27 27 26 27 27 27 27
0 5 2 18 25 24 24 16 16 17 12 7 29 17 16 4
0 1 8 0 0 5 4 0 7 11 4 0 20 9 0 0
0 0 0 7 3 0 0 0 0 11 34 27 15 4 2 11
22 25 25 25 26 32 51 68 76 79 81 72 84 89 99 101
101 84 84 97 86 89 86 87 91 98 78 26 23 27 26 26
27 26 27 27 27 27 27 27 27 28 27 27 27 27 27 28
28 28 28 28 28 28 28 28 29 29 25 23 28 28 28 28
27 27 27 27 27 27 28 27 27 27 27 26 26 26 26 27
0 9 3 20 25 19 13 15 23 29 32 33 34 21 15 4
0 6 13 3 0 6 15 8 15 14 10 1 21 8 0 0
0 0 0 7 5 0 0 0 0 8 33 22 6 1 0 10
21 25 26 50 80 84 84 75 70 72 71 58 61 75 74 70
78 61 81 84 73 58 40 45 59 77 83 71 10 20 28 26
26 27 27 27 27 27 27 27 27 27 27 27 27 28 28 29
28 28 28 28 28 29 28 28 28 28 25 25 28 27 28 28
27 27 27 26 27 27 27 27 26 26 26 26 26 26 25 26
4 2 5 24 26 15 0 0 1 5 14 34 34 20 14 4
0 2 3 0 0 8 33 31 35 33 32 30 35 8 0 0
0 0 0 8 5 0 0 0 0 6 33 18 3 2 0 16
21 20 40 84 74 56 44 35 39 34 36 51 53 49 91 77
39 58 54 55 37 32 42 35 15 32 51 54 27 8 26 29
26 26 27 27 27 27 27 27 27 27 27 27 27 28 28 29
28 28 28 28 28 28 29 28 29 28 28 28 28 28 28 28
27 27 28 27 27 27 27 27 27 27 26 26 26 26 26 26
15 4 1 25 27 11 0 0 13 11 14 34 31 18 16 11
1 0 0 0 0 8 34 34 36 35 37 42 42 21 10 11
3 1 1 11 7 0 0 0 0 4 30 16 2 0 0 12
18 11 63 47 29 16 20 32 31 38 49 55 50 94 122 107
52 51 68 71 60 58 48 35 35 36 30 36 32 7 23 25
27 27 28 27 27 27 28 28 28 27 27 27 28 28 28 28
28 28 28 28 28 28 28 28 28 29 28 28 29 28 28 28
27 28 27 27 28 27 27 27 27 26 26 26 25 26 26 27
7 0 1 28 29 11 0 0 9 21 24 33 25 16 17 16
2 0 0 0 0 8 31 31 33 33 37 41 41 31 27 27
23 21 21 21 16 12 9 8 6 10 27 19 7 5 4 4
14 19 49 18 13 18 43 69 90 78 66 53 34 99 123 105
81 32 60 71 87 106 103 84 53 37 23 33 15 7 13 20
28 27 27 27 27 26 26 27 27 27 27 27 27 27 28 27
28 28 28 28 28 28 29 29 28 29 28 28 28 28 28 28
27 27 27 26 27 27 27 26 27 26 26 26 26 26 26 27
8 0 2 31 31 11 0 0 1 7 24 35 23 17 19 11
0 0 0 0 0 9 31 28 30 30 30 26 27 28 29 30
29 28 28 28 27 24 21 18 16 18 28 27 19 17 12 9
12 16 38 33 38 57 84 101 83 68 50 27 67 59 113 61
88 62 28 56 64 91 106 102 98 57 40 21 17 5 10 18
27 27 27 27 28 27 27 27 28 27 28 28 27 27 28 28
28 28 28 28 29 28 29 28 28 28 28 28 28 27 28 27
27 27 27 27 27 27 27 27 27 26 26 26 26 26 25 26
0 0 2 32 32 11 0 0 0 0 21 35 21 17 17 17
12 9 5 3 1 11 33 26 28 27 27 26 27 30 30 32
34 32 29 29 28 29 32 30 26 25 31 35 34 33 30 27
18 18 29 40 59 86 89 67 53 42 37 84 75 30 102 57
40 103 64 36 38 61 65 77 69 42 33 50 20 13 15 15
27 26 27 26 27 27 27 27 27 27 27 27 28 28 28 28
28 28 28 28 28 28 28 28 28 28 28 28 27 28 28 27
27 27 27 27 27 27 27 27 26 26 26 27 26 26 26 26
0 0 2 32 32 9 0 0 0 0 19 36 21 17 18 30
36 36 33 34 33 34 37 29 29 28 29 31 34 35 32 34
37 39 29 26 28 31 37 35 33 32 31 26 23 24 25 27
20 22 25 25 47 58 56 35 22 20 38 111 58 33 105 82
24 81 93 27 21 20 33 52 85 97 74 47 43 18 20 12
26 28 27 27 28 27 27 28 27 27 28 27 28 28 28 28
28 28 28 29 29 28 28 28 28 28 28 28 28 28 28 28
27 28 28 27 27 27 27 27 27 27 27 26 26 26 25 25
0 0 2 33 31 6 0 0 0 0 21 38 21 16 17 32
44 43 44 44 44 44 40 30 28 28 29 32 37 38 32 34
38 37 30 25 22 30 38 36 34 33 32 28 20 17 16 17
16 24 26 45 85 89 61 16 11 15 47 114 36 63 108 99
43 58 109 39 27 17 21 43 72 98 95 54 54 31 18 17
24 27 27 27 27 27 28 28 27 28 28 27 27 28 28 28
28 28 28 28 28 28 28 28 27 27 26 26 27 26 26 27
28 27 27 27 27 27 27 27 27 26 27 26 26 27 26 26
0 0 3 33 31 5 0 0 0 0 20 35 19 16 18 24
31 32 34 37 39 41 36 9 10 8 9 14 25 38 34 29
23 25 26 23 22 25 24 19 21 26 28 29 27 23 22 23
18 25 37 68 83 53 22 32 43 58 80 105 69 79 101 91
73 84 101 73 57 40 37 36 34 76 99 71 50 39 19 22
24 26 26 26 27 27 27 27 27 27 27 26 27 27 27 27
27 27 28 28 29 28 28 28 28 28 27 27 27 27 28 27
28 27 27 27 27 27 26 26 26 26 26 26 26 25 26 25
0 0 3 33 32 5 0 0 0 0 19 33 17 17 17 19
22 22 21 22 22 23 23 1 0 0 0 0 5 34 30 11
1 3 5 7 20 26 10 0 0 3 9 19 27 24 26 29
24 29 44 78 67 33 68 79 88 88 73 70 73 88 101 93
80 67 71 76 92 92 82 78 54 51 94 88 56 45 15 23
24 27 27 27 27 28 27 27 28 27 28 28 27 27 28 28
27 28 28 28 28 28 28 28 28 28 28 28 27 28 28 28
27 27 27 27 27 26 26 27 27 26 26 26 26 26 27 25
14 16 21 34 30 4 0 0 0 0 23 37 18 15 16 25
29 29 28 27 26 25 22 4 0 0 0 0 10 34 22 1
0 0 0 3 23 26 9 0 0 0 5 17 13 10 14 18
16 29 58 84 70 74 88 99 96 79 62 81 90 100 101 102
92 78 62 72 93 103 102 92 81 76 85 92 67 49 18 21
28 30 27 27 28 28 28 28 28 26 27 27 27 28 27 28
27 28 28 28 28 28 27 28 28 27 28 27 27 27 27 27
27 27 27 27 27 27 26 27 26 26 26 26 26 26 26 25
33 34 33 27 19 8 4 2 1 0 24 36 15 14 17 26
30 30 30 30 31 31 24 3 0 0 0 0 11 33 13 0
0 0 0 1 24 26 9 0 0 0 3 16 6 0 3 1
6 33 67 77 74 88 104 105 84 64 75 101 100 98 96 100
102 101 82 70 86 99 107 107 95 78 77 82 77 57 24 13
29 35 27 27 27 27 27 27 27 27 27 27 27 27 27 27
27 27 27 27 26 27 27 28 27 27 27 27 27 26 27 26
27 26 27 27 26 26 26 27 26 26 26 26 26 25 25 25
32 31 32 31 27 29 28 26 24 20 29 30 18 18 20 19
22 23 25 27 29 33 25 1 0 0 0 2 4 30 9 0
0 0 0 1 25 25 7 0 0 0 1 15 7 1 8 5
12 42 69 71 83 105 111 99 72 81 90 87 96 102 106 102
96 89 92 86 83 98 104 110 109 89 75 72 75 63 33 13
24 45 31 26 26 26 26 26 26 25 25 24 25 26 26 26
27 25 24 24 24 23 23 25 27 27 27 26 27 27 26 26
27 26 26 26 26 26 26 27 25 25 25 25 25 24 24 25
27 28 27 27 27 28 28 28 28 29 29 28 28 27 27 25
24 22 23 22 23 30 30 5 0 0 0 2 2 29 7 0
0 0 0 1 26 24 6 0 0 0 0 15 8 0 2 8
13 52 70 73 98 111 107 88 75 85 83 99 98 95 92 94
102 97 86 84 85 89 104 104 112 103 80 73 71 67 40 13
20 39 41 25 17 14 13 12 11 9 9 9 12 21 27 27
27 18 7 6 6 6 5 16 27 27 28 27 27 27 27 27
27 26 26 25 26 25 26 27 26 26 26 24 25 25 25 25
27 27 27 27 27 27 27 27 27 27 27 27 27 27 28 28
28 28 28 28 27 31 33 9 0 0 0 3 2 28 6 0
0 0 0 1 26 24 8 0 0 0 0 14 10 1 6 14
15 60 68 85 108 108 99 87 77 75 93 104 100 99 95 100
106 103 99 81 84 90 101 108 106 111 90 73 74 66 47 14
20 28 42 24 9 1 3 4 4 0 0 0 0 13 26 27
26 17 3 3 3 3 2 14 28 27 28 27 27 27 26 26
26 26 26 25 26 26 26 27 26 26 26 25 26 26 26 25
20 20 21 22 22 22 23 24 24 24 25 25 25 25 26 26
27 27 27 27 27 29 30 1 0 0 0 0 3 29 6 0
0 0 0 0 25 24 8 0 0 0 0 15 12 0 5 16
22 64 71 94 109 103 102 84 70 80 99 99 91 82 81 88
103 110 102 85 74 87 100 112 103 111 98 77 73 66 52 14
23 27 33 26 9 0 3 2 3 0 0 0 0 12 26 26
26 14 2 3 3 2 3 14 28 28 27 27 27 27 27 27
26 26 26 25 26 26 26 26 26 26 26 25 26 26 26 26
0 0 0 1 1 1 1 2 2 3 3 4 5 6 7 8
9 10 14 21 26 29 26 0 0 0 0 0 2 29 6 0
0 0 0 0 24 24 6 0 0 0 0 14 15 0 8 17
28 65 76 98 106 100 94 63 71 87 85 81 80 75 73 78
77 88 101 97 82 67 92 108 101 106 105 82 73 68 55 13
25 27 28 24 12 1 4 4 4 0 0 0 0 13 26 27
27 13 3 3 4 3 3 14 28 29 28 28 28 28 27 26
26 26 26 26 26 26 26 26 26 26 26 26 26 27 27 26
0 0 0 0 0 0 0 0 0 0 0 0 0 0 0 0
0 0 1 20 26 28 26 3 1 0 0 5 3 29 12 1
1 2 1 1 25 26 13 5 4 3 4 18 18 0 11 18
36 65 80 98 98 96 93 83 80 74 80 92 93 89 96 95
92 76 80 92 95 94 100 109 100 97 107 88 72 69 57 12
29 27 30 21 15 1 2 4 4 1 0 0 0 14 26 27
26 15 4 4 4 3 4 12 28 28 27 27 27 27 27 26
27 26 26 26 26 25 25 26 26 26 26 26 26 26 26 25
0 0 0 0 0 0 0 0 0 0 0 0 0 0 0 0
0 0 1 23 28 27 33 31 26 23 25 28 24 29 34 32
29 30 29 29 35 29 27 30 30 30 34 37 26 9 16 18
41 64 82 95 90 89 81 76 66 71 84 104 98 91 98 97
95 85 74 70 84 96 99 105 101 88 108 92 74 69 60 14
24 26 31 24 20 5 2 4 3 1 0 1 0 13 26 27
26 18 9 9 9 9 9 12 25 27 27 26 26 26 26 26
25 26 27 27 27 26 27 27 26 27 26 26 26 26 26 25
0 0 0 0 0 0 0 0 0 0 0 0 0 0 0 0
0 0 0 23 28 27 35 38 33 34 36 33 29 26 37 44
41 40 41 43 43 32 26 33 34 38 43 44 35 24 21 14
42 65 81 89 88 84 69 62 60 71 88 92 89 98 99 95
92 87 67 53 61 73 93 101 99 84 104 95 74 69 62 17
17 23 29 28 23 11 1 1 1 0 1 1 0 13 27 28
27 17 6 6 6 6 6 12 26 28 28 27 27 27 26 27
26 26 27 27 26 26 26 26 25 25 26 26 26 26 26 26
0 0 0 0 0 0 0 0 0 0 0 0 0 0 0 0
0 0 0 23 28 26 34 33 29 32 35 33 26 22 26 32
33 33 34 35 35 31 22 27 31 34 35 34 30 22 18 8
44 65 80 86 86 80 59 52 56 80 84 82 82 84 91 97
96 85 62 50 55 67 73 97 97 88 99 93 74 69 62 22
11 15 26 33 26 21 3 0 0 1 1 1 0 14 27 27
26 17 4 4 5 4 4 12 27 28 28 28 28 27 27 27
26 26 27 27 26 26 26 26 26 26 26 25 26 26 26 26
0 0 0 0 0 0 0 0 0 0 0 0 0 0 0 0
0 0 0 22 28 26 32 22 25 26 29 32 27 24 21 18
19 19 20 19 21 24 23 25 26 26 23 21 23 21 14 7
44 66 77 84 83 76 55 53 58 73 87 95 86 91 82 79
85 59 53 55 63 59 68 91 99 95 95 89 75 68 62 20
7 10 21 32 30 31 8 3 5 3 1 1 0 16 27 28
27 17 4 4 5 4 4 12 28 28 28 28 27 27 27 27
27 27 27 27 26 26 26 26 26 26 26 26 25 25 25 25
0 0 0 0 0 0 0 0 0 0 0 0 0 0 0 0
0 0 0 21 29 26 31 9 5 7 10 14 14 21 23 22
22 25 27 25 25 28 29 31 33 31 27 23 22 16 10 10
40 66 75 83 80 73 50 47 53 49 68 76 72 76 59 68
76 52 47 54 62 50 69 86 96 98 95 87 75 69 62 24
9 6 17 26 27 31 17 2 3 4 2 2 0 15 27 28
27 17 4 5 4 4 4 12 28 28 28 27 28 27 27 27
27 27 27 26 26 26 27 26 25 26 26 26 26 26 26 26
0 0 0 0 0 0 0 0 0 0 0 0 0 0 0 0
0 0 0 18 28 25 31 7 0 0 0 0 5 22 26 32
34 34 41 32 21 23 25 29 34 37 30 25 23 11 4 11
35 66 74 80 77 72 59 43 44 45 47 47 42 44 39 56
55 49 48 61 56 51 73 84 93 100 98 88 77 68 62 34
7 1 12 22 26 26 25 4 4 3 2 2 0 15 27 28
27 16 4 4 4 4 4 13 28 28 28 27 28 27 26 27
27 27 27 26 27 26 26 26 26 25 26 26 25 25 25 26
0 0 0 0 0 0 0 0 0 0 0 0 0 0 0 0
0 0 0 18 29 25 33 9 0 0 0 0 2 25 24 31
30 25 34 23 1 1 2 4 14 36 31 24 19 4 2 2
35 63 74 79 78 76 59 39 30 35 42 51 54 55 54 53
57 69 67 52 51 64 82 85 92 98 99 89 78 68 61 46
13 1 8 17 22 25 25 10 6 2 2 2 2 16 27 28
27 16 4 4 4 4 5 14 28 29 28 28 28 27 27 27
27 27 27 26 27 26 27 26 26 26 25 25 25 25 25 25
0 0 0 0 0 0 0 0 0 0 0 0 0 0 0 0
0 0 0 16 28 25 27 8 0 0 0 0 1 26 23 31
21 2 13 19 0 0 0 0 9 33 31 22 12 5 0 0
34 62 73 78 77 80 78 67 61 68 76 85 91 94 87 86
80 82 85 83 78 91 94 91 91 96 99 90 77 67 61 62
54 31 20 18 21 19 20 10 6 4 3 4 1 16 27 28
27 16 4 4 4 5 4 14 28 28 27 27 28 27 27 27
26 26 27 27 26 26 26 26 26 26 26 24 25 25 25 26
0 0 0 0 0 0 0 0 0 0 0 0 0 0 0 0
0 0 0 15 28 24 15 0 0 0 0 0 2 28 22 31
20 0 11 20 0 0 0 0 5 31 29 20 15 5 1 0
32 61 72 80 83 89 93 92 84 88 93 98 100 103 101 99
100 101 92 93 91 94 96 93 93 96 96 90 76 67 63 74
86 83 67 42 21 23 22 16 9 6 4 2 1 16 27 28
27 16 4 4 4 4 3 13 27 28 27 27 27 27 27 27
26 26 27 27 26 26 26 26 25 26 25 25 25 25 25 26
0 0 0 0 0 0 0 0 0 0 0 0 0 0 0 0
0 0 0 14 28 24 11 0 0 0 0 0 4 28 22 32
20 0 11 21 0 0 0 0 3 30 30 22 18 6 5 25
53 62 75 85 88 94 96 91 88 90 98 100 103 104 106 107
105 103 98 93 90 93 97 98 97 97 97 88 74 64 68 86
81 95 87 70 35 18 26 24 18 14 8 6 3 16 26 29
27 23 19 19 14 14 15 19 27 27 27 27 26 27 27 26
27 26 27 26 27 26 25 26 25 25 25 25 26 25 25 26
0 0 0 0 0 0 0 0 0 0 0 0 0 0 0 0
0 0 0 13 28 24 10 0 0 0 0 0 2 28 23 33
19 0 10 21 0 0 0 0 2 29 30 25 21 13 49 70
62 62 77 87 93 96 94 89 89 88 95 100 108 109 105 108
108 106 101 96 91 92 96 99 99 98 94 86 70 63 77 96
81 89 93 74 48 14 18 20 12 8 3 2 3 17 26 27
27 28 28 28 26 26 27 27 28 27 28 28 27 28 27 26
26 27 26 26 26 26 26 26 25 25 26 26 25 25 25 25
0 0 0 0 0 0 0 0 0 0 0 0 0 0 0 0
0 0 0 14 28 24 10 0 0 0 2 1 1 28 23 33
21 2 9 21 3 0 0 0 2 28 30 25 20 34 57 71
63 64 80 88 99 98 95 93 90 87 97 103 108 109 110 111
111 105 102 101 98 97 96 101 101 99 94 82 67 61 86 92
83 82 80 61 59 11 16 23 11 8 5 2 3 16 27 28
28 29 28 29 28 28 28 29 28 28 28 28 27 28 27 27
27 26 27 26 26 26 26 26 26 26 25 25 25 25 25 25
0 0 0 0 0 0 0 0 0 0 0 0 0 0 0 0
0 0 0 13 28 24 11 3 3 0 5 11 3 28 26 34
24 9 9 21 4 4 4 1 2 28 29 25 23 50 71 75
75 62 80 91 98 101 101 96 92 92 97 103 112 112 114 113
110 108 104 103 103 102 98 102 102 99 93 80 65 62 89 89
84 83 79 63 55 13 14 23 14 10 8 4 6 19 27 27
27 28 28 27 27 26 27 28 26 27 27 27 26 27 27 27
26 26 27 26 26 25 25 25 25 25 25 25 25 25 25 25
0 0 0 0 0 0 0 0 0 0 0 0 0 0 0 0
0 0 0 12 29 24 16 12 13 9 13 19 15 31 28 35
22 18 10 19 3 8 6 0 1 25 28 26 26 60 69 79
82 65 79 95 100 101 103 101 93 94 99 106 113 115 117 114
111 111 107 104 103 105 103 105 101 100 93 79 61 65 55 74
85 80 72 64 55 9 16 19 17 16 10 9 15 22 27 27
27 28 28 27 27 26 27 28 27 27 28 27 26 27 26 27
27 26 26 26 26 25 26 26 25 25 25 25 25 25 26 25
0 0 0 0 0 0 0 0 0 0 0 0 0 0 0 0
0 0 0 13 28 24 28 37 39 39 39 40 40 43 33 35
16 18 14 22 12 14 13 9 10 23 26 26 31 55 67 70
84 72 76 99 104 103 104 104 96 97 100 109 118 117 118 117
116 114 110 106 106 108 105 103 101 100 94 76 57 71 44 30
27 29 58 63 39 4 19 22 20 17 8 11 18 24 27 27
28 28 27 27 27 26 27 27 27 27 27 27 26 27 26 27
27 27 26 25 25 25 25 25 25 25 25 25 25 26 26 25
0 0 0 0 0 0 0 0 0 0 0 0 0 0 0 0
0 0 0 12 27 23 32 45 45 45 45 45 46 47 39 34
11 9 13 25 20 20 20 18 18 19 23 25 37 57 67 72
75 50 66 95 105 104 103 103 100 100 102 111 118 117 118 116
118 114 114 111 108 107 106 100 98 100 94 70 61 76 73 48
1 0 5 21 10 8 19 29 25 19 9 12 19 24 26 26
27 27 27 27 26 25 27 27 27 27 27 26 26 26 25 26
26 26 26 26 25 25 26 26 25 25 25 25 25 26 26 26
0 0 0 0 0 0 0 0 0 0 0 0 0 0 0 0
0 0 0 13 27 22 26 32 32 32 32 32 32 32 30 33
9 2 9 25 22 22 22 22 22 23 24 25 35 58 58 44
31 30 56 82 98 101 102 101 102 101 106 115 120 121 121 117
118 118 112 114 111 111 108 104 99 97 86 64 72 80 74 53
4 1 7 10 7 15 18 31 34 21 12 14 21 25 26 27
27 27 27 26 26 25 27 27 27 27 26 26 26 26 26 27
26 26 26 25 25 25 25 26 24 24 25 24 26 30 31 30
0 0 0 0 0 0 0 0 0 0 0 0 0 0 0 0
0 0 0 14 27 23 19 15 14 14 14 15 15 14 16 30
11 2 8 26 24 26 26 25 25 24 24 24 27 46 34 10
0 30 75 66 84 99 101 103 103 102 109 115 120 121 123 122
123 123 118 114 111 111 109 103 97 90 74 69 81 85 74 49
3 2 5 14 15 22 24 36 41 26 12 15 21 25 27 27
28 27 27 27 26 25 27 28 27 26 26 26 26 26 26 26
27 26 27 26 25 25 25 25 28 31 29 28 28 37 39 38
0 0 0 0 0 0 0 0 0 0 0 0 0 0 0 0
0 0 0 14 27 23 20 18 17 16 16 16 16 15 18 32
13 3 9 27 25 26 26 25 25 25 24 24 24 23 15 7
2 43 73 67 67 89 99 103 102 103 111 117 124 126 126 126
126 125 120 117 113 110 108 104 98 90 83 80 85 87 79 42
0 3 5 16 20 21 25 32 43 32 10 15 21 25 26 27
27 27 27 26 26 24 27 28 27 27 26 27 27 26 26 27
26 25 25 25 25 25 25 25 36 46 45 45 44 44 43 43
0 0 0 0 0 0 0 0 0 0 0 0 0 0 0 0
0 0 0 17 29 23 22 21 21 20 19 19 17 16 21 34
25 26 30 30 24 25 25 25 25 25 24 23 23 21 17 13
9 42 74 73 74 82 94 99 100 103 109 120 123 125 126 126
127 126 122 118 113 111 111 108 101 95 89 88 88 87 79 37
0 1 7 14 18 17 21 27 37 32 12 11 7 21 26 27
27 27 27 26 24 24 27 28 27 26 26 26 26 26 26 26
26 26 26 26 26 25 25 25 39 47 47 47 46 46 46 46
2 1 2 3 4 4 5 6 6 7 8 8 9 9 10 10
11 11 13 24 27 22 22 22 23 22 22 22 21 17 21 31
29 34 36 29 23 25 25 25 25 25 25 24 24 20 19 18
9 35 77 79 80 84 94 97 100 103 110 120 123 125 126 128
128 127 122 115 112 111 111 109 106 100 95 91 89 86 78 35
3 0 9 12 16 15 17 23 29 32 11 10 5 11 26 27
25 27 27 27 25 21 27 28 27 27 26 26 26 26 26 26
26 26 26 26 26 26 25 25 41 47 47 47 47 46 47 46
11 11 12 15 17 18 19 19 20 20 21 21 22 22 22 22
23 22 23 23 23 22 23 22 22 21 21 21 21 18 19 23
20 21 23 24 24 25 25 25 25 25 25 24 22 20 22 20
9 32 77 81 84 89 95 95 97 102 110 122 126 129 129 129
128 128 124 119 111 112 116 115 109 102 96 94 89 86 76 35
6 2 8 12 14 14 15 18 25 28 11 2 0 0 9 10
8 9 17 26 25 20 27 28 27 27 26 27 27 26 27 26
27 27 27 26 26 25 25 26 44 47 47 47 47 47 46 46
11 9 11 15 17 18 19 20 20 21 21 22 22 23 23 23
22 23 22 22 22 22 23 23 23 22 22 21 21 19 21 22
22 20 22 23 24 25 25 25 25 25 25 25 23 22 25 17
11 38 79 85 84 90 95 96 97 101 107 120 128 129 129 128
128 128 126 120 113 114 115 115 112 107 98 94 90 87 75 33
3 8 11 14 15 13 12 18 24 26 16 1 0 0 0 0
0 0 1 21 20 11 21 28 28 28 27 27 28 28 28 28
27 28 27 27 26 26 27 27 45 47 47 47 46 47 46 46
11 10 12 15 17 17 19 19 20 21 21 22 22 22 22 21
21 20 20 21 21 21 23 24 24 23 22 22 21 20 20 23
23 21 23 24 24 25 25 25 26 25 24 25 23 23 23 13
7 47 87 90 82 89 95 97 95 98 108 121 128 129 129 129
129 129 127 119 113 115 117 114 113 107 100 94 90 86 76 30
4 6 8 11 11 11 12 19 21 24 21 3 0 0 0 0
0 0 0 14 14 8 19 27 27 26 26 27 27 27 26 27
26 26 25 25 25 24 24 26 47 47 47 47 47 46 46 45
3 4 4 6 7 9 11 11 12 12 12 10 8 6 6 5
10 17 17 20 21 22 23 23 24 23 23 23 22 20 21 23
23 22 22 23 24 25 25 24 24 23 25 26 26 25 20 10
7 57 93 97 84 89 93 94 93 96 107 122 130 129 130 129
129 129 127 118 112 112 114 114 113 105 101 95 91 88 76 30
4 7 8 11 9 9 12 21 23 25 22 6 0 0 0 0
0 0 7 16 14 15 23 26 27 26 26 26 26 26 26 26
25 25 24 24 24 24 23 26 46 47 47 46 46 46 45 45
0 0 0 0 0 4 10 12 13 14 15 14 12 10 2 0
6 19 20 21 22 23 23 23 23 24 23 23 22 21 21 23
24 23 23 23 23 25 25 24 24 24 25 28 28 24 16 8
9 61 97 102 87 89 92 94 89 94 107 122 130 130 130 130
129 129 126 118 112 110 111 115 113 105 100 95 93 91 75 33
4 7 6 9 8 10 13 20 22 25 20 10 2 3 1 0
0 0 1 2 3 13 25 26 26 26 26 26 26 26 26 25
25 24 24 25 24 23 21 28 46 46 46 46 46 45 44 45
0 0 0 0 0 15 32 33 34 34 33 33 34 33 14 3
9 19 20 21 22 22 23 22 23 23 23 23 22 22 22 23
24 24 23 23 24 24 24 24 24 25 25 29 26 25 13 9
11 65 97 104 91 88 89 94 89 93 106 120 130 130 130 129
129 129 126 118 112 107 110 109 110 104 101 96 95 93 77 37
4 4 8 12 11 9 14 19 19 22 19 12 10 10 1 0
0 0 0 0 0 8 21 23 26 27 27 26 26 26 26 25
25 24 24 24 23 23 21 31 47 46 46 46 46 46 45 44
0 0 0 2 4 17 36 35 37 36 35 33 41 43 29 12
14 16 19 20 22 22 23 23 23 24 24 24 23 24 23 23
24 23 23 23 23 24 24 24 24 24 24 31 29 20 21 16
16 65 96 103 93 93 93 95 88 93 104 117 127 130 130 130
129 129 126 117 110 106 107 110 111 105 104 100 97 92 76 38
4 3 12 13 12 10 12 15 18 21 20 12 9 7 1 0
0 0 0 0 0 5 17 18 24 26 26 26 25 25 25 24
24 24 24 23 23 22 20 34 46 46 46 45 46 45 44 43
0 0 8 15 15 19 37 40 42 41 42 41 44 44 35 18
17 15 17 19 21 23 25 24 24 25 25 24 25 25 24 23
23 23 24 22 23 24 24 24 25 24 27 28 25 13 24 20
16 63 98 103 96 96 95 94 90 94 104 115 123 129 131 129
129 129 124 116 111 108 109 110 110 105 105 105 97 92 77 40
2 2 11 14 15 12 11 14 17 18 19 10 4 0 0 0
0 0 0 0 0 3 16 17 24 25 26 25 25 24 25 25
24 23 20 18 18 18 17 36 47 46 46 46 45 45 44 43
6 7 13 16 17 18 28 31 31 30 29 29 29 28 24 17
17 16 15 14 15 16 26 23 24 25 26 25 25 25 24 23
23 23 23 23 22 23 24 24 24 25 27 24 20 9 19 22
17 63 97 100 99 102 95 93 92 98 108 117 123 127 130 130
130 129 127 120 113 109 108 109 107 104 109 110 100 91 78 43
2 2 9 10 20 11 11 13 14 14 18 5 0 0 0 0
0 0 0 0 0 1 14 16 23 25 25 25 25 25 25 24
23 18 3 0 0 0 1 22 33 34 35 36 37 38 38 39
12 12 13 13 15 16 17 17 19 21 22 23 23 24 19 11
10 10 10 9 9 11 25 24 23 24 24 24 24 24 24 23
23 23 23 23 23 23 23 24 25 24 23 22 16 8 15 21
21 66 96 102 103 107 97 94 93 98 108 118 124 126 130 130
130 130 127 121 113 110 109 108 105 106 111 113 103 91 79 46
1 3 5 14 29 14 14 12 10 16 8 0 0 0 0 0
0 0 0 0 0 1 14 16 20 24 24 25 24 24 24 24
22 10 0 0 0 0 0 0 0 1 1 2 3 3 4 5
10 6 3 2 3 2 1 1 2 12 23 23 24 24 18 9
9 9 9 9 9 11 25 24 22 21 22 22 23 22 23 22
22 23 24 23 23 23 24 24 24 24 22 18 13 8 13 20
18 67 95 102 107 111 100 94 95 99 107 118 124 129 130 130
130 130 127 119 111 109 109 109 107 108 112 111 105 93 78 49
2 4 5 22 29 21 17 16 15 12 3 0 0 0 0 0
0 0 0 0 6 11 14 15 21 24 24 24 24 23 23 23
21 8 0 0 0 0 0 0 0 0 0 0 0 0 0 0
9 2 0 0 0 0 0 0 1 13 23 22 23 23 18 8
8 8 8 9 8 9 23 24 22 21 21 21 21 20 21 20
21 23 23 23 22 23 23 23 24 24 20 17 11 8 10 17
16 69 94 104 112 115 104 95 96 100 105 117 125 130 130 130
130 130 128 118 112 109 109 109 109 112 115 111 105 94 78 49
10 7 8 20 28 26 24 24 12 6 8 1 0 0 0 6
5 0 0 1 13 15 17 20 23 24 23 23 22 22 22 22
20 24 25 22 15 13 11 8 8 6 4 3 2 1 0 0
9 6 3 5 6 8 11 13 16 20 21 22 23 24 20 12
13 14 16 18 16 10 21 24 21 21 20 20 20 20 20 20
20 22 23 23 22 22 23 23 23 23 19 14 12 9 8 12
13 72 96 106 113 116 108 98 98 103 106 117 126 131 130 131
131 130 127 118 112 111 108 108 110 117 117 111 105 94 78 50
17 9 14 24 28 29 30 22 9 12 10 5 3 0 0 7
12 0 0 1 13 14 18 23 24 24 23 24 24 23 23 22
21 42 47 46 45 45 44 43 42 42 41 39 37 35 33 30
11 12 13 14 16 19 20 23 24 26 26 27 27 28 27 25
26 27 27 26 25 24 26 24 21 21 20 20 21 20 20 20
21 22 22 23 23 22 23 22 22 21 16 15 11 9 6 10
11 73 97 107 116 118 112 101 100 101 104 116 126 130 131 131
130 130 128 118 111 111 108 110 113 118 117 112 105 96 81 50
13 12 6 12 30 34 32 24 12 13 12 8 5 1 1 7
17 4 0 1 12 13 16 21 22 22 23 23 23 23 23 21
22 44 47 47 48 47 47 47 47 47 47 46 46 45 44 44
19 18 19 21 20 19 20 20 21 26 23 23 24 26 27 26
25 26 27 30 31 33 33 27 22 21 21 21 21 20 24 26
26 25 23 23 23 22 21 19 19 18 17 14 12 11 6 7
48 78 97 106 114 117 115 106 101 102 105 115 126 131 131 130
131 130 126 117 112 111 108 110 118 121 118 113 105 96 84 49
17 22 15 15 26 36 37 31 27 19 17 14 4 1 0 13
8 7 0 1 7 4 3 4 6 12 19 22 22 22 22 20
24 46 47 47 47 47 48 47 47 47 47 46 46 45 44 44
15 15 17 20 21 21 22 23 25 27 28 29 30 31 32 30
27 25 25 29 32 34 37 36 32 30 24 21 20 21 35 41
41 34 23 23 22 18 12 13 14 16 20 17 16 17 51 89
110 80 98 108 115 118 117 114 103 102 104 114 123 131 131 131
131 129 122 114 109 109 109 115 122 122 116 110 103 96 84 54
25 42 29 21 23 34 43 36 32 29 22 17 8 2 0 7
0 1 2 0 0 1 4 5 3 1 3 12 21 22 22 20
27 47 48 48 48 48 48 48 47 47 47 47 45 45 44 44
21 21 22 22 23 23 25 26 27 28 29 30 31 32 34 34
34 29 28 29 31 34 37 37 36 35 32 24 18 18 37 43
43 35 22 22 17 13 6 7 16 24 23 28 60 116 132 126
109 82 98 108 117 121 122 121 107 103 104 111 120 130 130 130
130 124 117 110 108 107 110 119 124 122 116 109 102 97 87 70
47 56 54 30 20 24 39 41 30 27 21 20 16 6 5 1
0 1 1 1 7 12 11 9 8 8 1 0 8 19 21 19
30 47 47 47 47 47 47 47 47 47 47 46 46 44 44 44
22 21 24 23 23 24 25 25 27 28 29 30 31 33 33 33
33 32 31 29 28 27 24 22 21 19 17 16 16 16 20 22
21 20 20 20 20 18 15 18 21 30 84 122 131 133 132 129
101 83 97 110 118 123 125 124 111 105 106 111 115 123 128 128
125 121 117 110 109 108 112 122 126 123 115 108 102 96 87 68
82 54 66 51 29 17 20 37 39 38 30 22 15 12 14 1
0 0 1 9 14 16 15 13 11 11 4 0 0 8 19 17
32 47 47 47 47 47 46 46 47 47 45 45 44 44 43 43
11 12 14 12 13 13 15 15 16 16 17 17 16 15 14 12
11 9 8 7 6 3 1 3 9 11 11 11 10 9 8 6
5 5 17 21 21 21 22 24 42 111 133 129 132 133 132 131
96 85 98 111 118 124 128 126 117 107 107 113 116 118 121 122
120 120 117 112 109 109 114 125 126 123 115 109 102 96 85 48
72 89 82 77 53 31 24 28 39 46 36 19 16 20 16 2
0 0 1 10 22 16 16 16 15 16 14 5 0 0 11 15
35 47 47 46 46 46 46 46 46 46 46 44 44 43 43 42
0 0 0 0 0 0 0 0 0 0 0 0 0 0 0 0
0 0 0 0 0 0 0 0 0 0 0 0 0 0 0 0
5 11 20 22 33 71 95 111 130 132 132 131 132 132 132 132
104 88 101 112 118 125 129 129 122 110 110 114 117 120 123 124
124 121 117 113 111 111 119 127 127 123 115 110 102 96 84 54
34 113 111 105 80 51 38 42 43 49 40 23 22 20 17 1
1 7 4 34 27 15 16 9 12 13 14 13 3 0 1 12
38 47 47 46 46 46 46 45 45 45 44 44 43 42 42 41
0 0 0 0 0 0 0 0 0 0 0 0 0 0 0 0
0 0 0 0 0 0 0 0 0 0 0 0 0 0 0 1
13 21 48 99 126 132 132 132 132 132 132 131 132 132 132 132
112 89 104 113 120 124 127 129 126 115 110 114 117 119 122 123
122 119 116 109 109 112 123 127 127 121 116 110 104 98 86 64
19 118 126 125 125 109 83 80 63 42 39 39 30 24 19 13
14 19 34 59 20 10 11 8 9 8 11 14 10 0 0 6
39 45 46 45 45 45 45 45 44 44 43 42 42 42 41 41
0 0 0 0 0 0 0 0 0 0 0 0 0 0 0 0
0 0 0 0 0 0 0 0 0 0 0 0 0 0 1 11
44 96 128 132 132 132 132 132 132 132 131 131 132 131 131 131
118 87 105 114 118 123 128 128 129 122 112 116 116 120 121 123
121 119 117 111 111 117 126 127 126 120 118 113 106 100 91 69
18 109 127 127 125 111 89 81 74 56 53 49 43 35 29 31
32 39 57 44 13 9 10 12 11 12 13 16 15 6 0 4
39 44 45 44 44 45 45 45 44 44 44 43 42 42 41 40
0 0 0 0 0 0 0 0 0 0 0 0 0 0 0 0
0 0 0 0 0 0 0 0 0 0 2 10 32 62 94 118
129 132 132 132 131 131 132 132 131 132 131 131 132 131 131 131
127 85 108 115 120 124 127 126 129 125 116 117 119 119 120 123
123 120 117 112 114 123 127 127 125 121 119 114 110 103 94 71
16 107 129 127 126 123 115 103 88 78 76 72 54 46 47 47
49 52 53 30 3 7 5 8 10 11 11 12 14 11 0 5
41 44 44 45 44 44 45 45 44 44 43 42 42 42 42 41
0 0 0 0 0 0 0 0 0 0 0 0 0 0 0 0
0 0 0 0 0 1 2 3 19 55 91 118 129 132 132 132
132 132 132 132 131 132 132 132 132 132 131 131 132 132 131 131
130 89 110 117 120 124 127 128 129 127 120 118 120 118 121 122
122 120 116 114 119 125 127 125 122 123 120 116 113 105 99 67
18 115 128 127 127 126 126 124 120 115 118 117 106 95 83 62
47 47 41 12 0 2 0 1 1 2 1 1 2 1 0 9
43 44 44 45 44 44 44 44 44 43 43 42 42 41 40 40
0 0 0 0 0 0 0 0 0 0 0 0 0 0 0 0
0 0 0 0 1 24 61 92 120 131 133 132 132 132 132 132
132 132 132 131 131 131 132 132 131 131 132 132 131 132 132 131
131 103 100 119 121 125 128 128 128 128 124 122 121 121 122 121
122 121 116 117 122 127 127 121 122 123 122 120 117 110 102 62
22 122 127 127 126 125 125 124 124 124 124 123 123 122 119 111
91 64 21 7 2 0 1 0 1 1 0 0 0 0 0 13
44 44 44 43 44 43 44 43 43 42 42 41 40 40 40 40
0 0 0 0 0 0 0 0 0 0 0 0 0 0 0 0
0 0 1 31 90 124 130 132 132 132 132 132 132 132 132 132
132 132 132 132 131 131 132 131 132 131 130 130 131 131 131 131
130 125 77 123 123 127 129 129 128 128 127 124 121 120 119 122
123 121 116 119 125 127 126 123 125 125 125 123 119 113 103 46
35 125 126 126 126 125 125 124 125 124 124 124 123 123 123 123
121 116 95 46 9 0 0 1 1 2 1 0 0 0 0 19
44 43 43 42 43 43 43 43 42 42 41 41 40 39 39 38
0 0 0 0 0 0 0 0 0 0 0 0 0 0 0 0
0 12 76 125 132 133 132 132 132 132 132 133 133 132 132 133
132 131 132 132 131 131 131 132 132 131 131 131 131 131 132 131
131 130 81 104 125 125 127 128 128 128 128 125 122 121 121 121
122 121 120 123 127 127 125 124 126 125 125 124 118 114 102 25
57 128 126 126 126 125 124 124 124 124 124 124 124 123 124 123
124 123 122 121 106 60 17 2 0 2 1 1 0 0 0 26
43 43 43 43 42 42 43 42 42 41 41 39 39 39 38 38
0 0 0 0 0 0 0 0 0 0 0 0 0 0 0 0
24 106 132 133 133 133 133 132 132 133 132 132 132 132 132 132
132 132 132 133 132 132 132 132 132 131 131 131 131 132 132 131
131 131 114 54 123 127 129 129 129 128 128 127 124 122 120 121
121 120 122 125 126 126 125 126 126 126 126 123 118 114 79 13
90 128 127 127 126 125 125 125 124 124 124 124 124 124 124 123
123 123 123 123 122 121 114 78 31 5 2 1 1 0 0 31
43 44 43 43 43 43 43 43 42 41 41 40 40 39 38 38
0 0 0 0 0 0 0 0 0 0 0 0 0 0 0 27
110 133 133 133 132 132 133 133 133 133 132 132 132 132 133 133
133 132 132 132 131 131 132 131 131 131 131 131 132 132 132 132
131 131 130 57 79 128 128 129 130 128 128 127 125 121 120 120
121 120 124 127 127 126 126 126 125 125 125 121 119 111 35 23
118 128 126 126 126 125 125 125 124 124 124 124 124 123 123 123
123 123 123 122 122 122 122 121 115 89 41 6 1 0 2 35
44 44 44 43 43 44 43 43 42 42 40 40 40 39 38 38
0 0 0 0 0 0 0 0 0 0 0 0 0 0 36 116
132 133 133 133 133 133 133 132 132 133 132 132 132 132 132 132
132 132 132 131 132 132 131 131 132 132 131 131 131 131 131 131
131 131 131 107 25 99 127 129 128 128 129 129 126 123 120 118
119 120 126 127 126 125 126 126 126 126 125 121 118 71 13 53
128 126 127 126 126 125 125 125 125 124 124 124 124 124 124 123
123 123 123 123 123 122 122 122 122 121 116 84 22 1 5 38
44 44 43 43 43 43 43 43 43 42 41 40 40 40 39 38
0 0 0 0 0 0 0 0 0 0 0 0 0 44 127 133
133 133 133 133 132 132 133 132 132 132 132 133 132 133 133 133
132 132 132 132 131 131 131 131 131 132 131 131 131 131 131 131
131 131 130 128 47 30 105 128 129 129 129 128 128 125 122 119
121 122 127 127 127 127 126 126 125 125 125 122 95 20 16 94
129 127 127 126 125 125 125 125 125 124 125 125 125 124 124 124
124 123 123 123 123 122 122 122 122 122 121 120 102 37 11 41
45 44 44 44 43 43 43 43 42 42 41 40 40 39 39 38
0 0 0 0 0 0 0 0 0 0 0 0 30 128 134 133
132 133 133 133 133 132 132 133 133 132 132 132 132 133 133 132
132 132 132 132 132 132 132 132 132 132 131 131 132 131 131 131
131 131 131 130 102 16 33 104 130 129 129 129 128 126 124 122
122 125 127 127 127 127 126 127 126 126 126 104 27 14 38 125
127 127 127 126 126 126 125 125 125 124 125 124 124 125 124 124
124 124 123 123 123 122 123 123 122 123 122 122 121 110 57 43
44 44 44 43 43 43 43 43 43 42 41 41 40 40 40 38
0 0 0 0 0 0 0 0 0 0 0 8 108 136 134 134
134 133 133 133 133 132 133 133 132 133 132 132 132 133 132 132
133 132 132 132 132 131 132 131 132 131 131 131 131 131 132 131
131 131 131 131 129 53 15 28 95 130 129 129 128 129 127 127
126 128 128 127 127 126 127 127 127 126 103 29 13 17 89 130
128 128 128 127 127 126 125 125 125 125 125 125 125 125 125 125
124 124 124 124 123 123 123 123 123 123 123 122 122 122 119 82
47 45 44 45 44 44 43 43 43 42 41 41 40 39 39 38
0 0 0 0 0 0 0 0 0 0 0 59 135 133 133 133
133 133 133 133 133 133 133 132 133 133 132 132 132 132 133 133
132 132 132 132 132 131 131 131 131 131 131 131 131 131 131 131
130 130 131 130 130 114 22 16 20 67 123 130 129 129 128 128
128 127 127 127 127 127 127 126 126 94 24 14 16 43 127 128
127 127 127 127 126 126 126 126 125 125 126 125 125 125 125 124
124 125 124 124 124 123 123 123 123 123 123 123 122 122 121 117
83 45 44 44 43 43 43 43 42 42 42 40 40 40 39 38
0 0 0 0 0 0 0 0 0 0 11 119 135 134 134 133
133 132 132 133 133 133 132 132 132 132 132 132 132 132 133 132
132 133 132 132 132 132 131 131 131 131 131 131 131 131 131 132
131 130 130 131 130 130 82 15 15 16 32 91 128 129 128 129
129 127 128 128 128 128 127 120 67 18 14 15 21 105 130 128
127 128 128 128 127 126 127 127 127 126 126 127 126 126 126 125
125 125 124 124 125 124 124 124 123 124 124 123 123 123 122 122
116 72 45 44 44 44 43 43 42 41 41 41 40 40 39 38
0 0 0 0 0 0 0 0 0 0 52 135 134 134 133 133
133 133 133 133 133 133 133 132 132 133 132 132 132 132 132 132
132 132 132 132 132 132 132 131 131 132 131 131 131 131 131 130
131 131 130 131 130 130 128 47 14 15 15 17 40 89 124 129
128 127 128 129 128 124 86 32 15 15 15 18 76 131 130 127
128 128 127 128 128 126 126 127 127 127 126 126 127 126 127 126
125 125 126 125 125 125 124 124 124 124 124 124 124 124 123 123
122 110 57 44 44 44 44 43 43 42 41 41 40 40 38 37
0 0 0 0 0 0 0 0 0 1 92 136 134 134 133 133
133 133 133 133 132 133 132 132 132 132 132 133 132 132 132 132
132 133 132 131 132 132 131 131 132 132 131 130 131 131 131 131
131 131 131 131 130 130 130 116 29 15 15 15 16 16 24 50
73 87 95 85 64 31 16 14 15 16 17 51 127 130 129 128
129 129 129 128 128 127 127 126 127 128 128 128 128 127 127 127
127 127 127 126 126 125 125 125 125 125 125 124 125 124 124 124
124 123 107 50 45 44 44 44 43 42 41 40 40 39 38 37
0 0 0 0 0 0 0 0 0 10 120 134 134 133 133 133
133 133 133 133 132 132 133 132 132 133 133 133 132 132 132 132
132 132 132 132 131 132 131 132 130 131 132 131 131 131 131 131
131 130 131 130 130 130 130 130 105 23 17 15 15 15 14 15
14 15 14 14 14 13 14 14 15 17 53 125 130 128 128 128
128 128 128 128 128 127 126 126 127 127 127 127 127 128 127 127
128 127 127 126 127 127 126 126 126 125 126 125 125 125 125 124
124 124 123 93 45 44 44 43 43 41 40 40 40 39 38 37
0 0 0 0 0 0 0 0 0 31 133 134 133 134 133 133
133 133 133 133 132 133 132 132 132 132 132 132 133 133 132 132
133 132 132 132 132 131 132 132 132 130 131 131 131 131 131 130
131 131 131 130 131 130 130 129 129 107 30 15 14 14 14 14
15 15 14 14 14 14 13 14 17 62 126 128 129 128 128 128
128 128 128 128 128 127 127 126 127 127 127 127 127 127 127 127
127 127 127 126 126 126 126 125 125 125 125 125 124 125 124 124
124 123 124 121 69 44 44 42 42 41 41 40 39 38 38 37
0 0 0 0 0 0 0 0 0 58 136 134 133 134 133 134
133 133 133 133 133 133 133 132 133 132 132 132 132 132 133 133
132 132 132 132 131 131 132 131 132 132 132 132 131 131 131 131
130 130 130 130 130 130 130 130 130 129 119 51 15 15 14 14
14 14 13 12 13 13 14 26 90 130 130 129 128 128 128 128
127 127 128 128 127 127 127 126 126 127 127 127 128 128 128 127
127 127 127 126 126 125 126 125 125 125 125 125 124 124 124 123
123 123 123 123 108 49 43 42 42 41 40 39 39 38 37 36
12 11 12 12 12 12 11 9 8 85 136 134 134 133 133 133
133 133 133 132 132 132 133 132 132 132 132 132 132 132 132 132
132 131 131 132 131 131 131 132 132 131 131 131 131 130 130 131
131 131 131 131 131 131 130 129 129 128 129 128 98 48 17 14
14 15 14 14 14 23 65 120 130 129 129 128 128 128 127 127
127 128 129 128 128 126 127 126 126 126 126 126 126 125 126 125
125 125 125 125 124 124 125 124 124 124 124 123 123 123 123 123
123 122 123 122 121 78 44 42 41 40 39 39 38 37 36 35
18 17 18 18 18 20 22 24 29 107 134 133 133 133 133 133
132 133 132 132 132 132 133 132 131 132 132 132 132 132 132 132
132 132 131 131 131 131 131 132 132 131 131 131 130 131 131 131
130 130 129 130 130 129 129 129 129 129 129 129 129 128 119 94
74 65 64 77 99 124 129 127 127 126 127 126 126 126 126 126
125 126 126 125 125 125 125 124 123 123 124 125 124 124 123 123
123 123 123 122 122 122 122 122 123 122 122 121 122 122 122 121
121 121 121 121 121 107 53 42 40 40 39 38 38 37 36 35
18 17 17 18 20 23 23 22 30 119 133 133 131 132 132 132
133 133 132 132 131 132 132 132 132 132 132 131 132 132 132 131
131 132 132 132 131 131 131 131 131 131 130 130 131 130 130 130
131 130 130 129 130 129 129 128 129 128 128 128 128 128 127 127
127 127 127 127 126 126 126 125 125 125 125 125 124 124 124 123
123 123 124 124 124 123 123 123 122 123 122 122 123 123 123 123
122 122 122 122 122 122 122 122 122 121 121 121 120 120 120 120
120 120 120 120 120 117 71 42 40 39 39 38 37 36 35 34
