P2
128 120
143
0 0 4 0 0 11 39 32 28 28 27 27 27 27 27 26
26 26 26 25 25 25 25 25 25 24 24 23 23 23 22 22
22 21 21 21 21 20 20 20 19 18 19 18 18 18 18 17
17 16 16 16 15 15 16 19 21 21 20 16 13 18 16 17
19 18 18 17 17 18 16 15 15 13 15 15 17 18 18 18
18 18 18 18 18 19 19 18 20 19 19 20 20 21 21 22
21 22 22 22 22 22 23 23 23 24 24 24 24 25 25 24
25 25 25 25 25 25 25 25 25 25 25 25 25 26 25 26
0 0 0 0 0 11 38 32 27 27 27 27 27 27 27 26
26 26 25 25 25 25 25 25 24 23 23 23 22 23 22 22
22 22 21 21 21 20 20 20 19 19 19 18 18 17 18 17
17 17 16 16 16 17 17 19 20 20 20 16 13 18 17 15
19 19 19 18 18 18 16 16 16 14 15 15 18 17 18 19
18 19 19 19 19 20 19 19 19 19 20 20 20 20 22 22
21 21 22 22 22 22 23 23 24 24 24 24 24 24 25 25
25 25 26 25 26 25 25 25 25 25 26 26 26 26 25 26
4 0 0 0 3 17 39 32 27 28 27 28 28 27 27 27
26 26 26 26 25 25 25 24 25 24 24 24 23 23 23 22
22 21 21 20 21 20 21 20 20 19 19 19 19 19 18 18
17 17 16 16 17 16 18 20 21 21 21 17 14 20 19 15
19 19 19 18 18 18 16 16 16 14 15 16 18 18 19 19
19 19 19 20 20 19 19 19 20 20 21 21 21 21 22 22
22 22 22 23 23 23 24 24 24 24 25 24 24 23 24 25
25 25 25 25 25 26 25 25 25 26 26 27 26 26 26 26
26 24 20 15 13 24 37 30 27 27 27 27 27 26 27 27
27 26 26 26 26 26 25 24 24 24 24 23 23 23 23 22
22 22 21 21 21 21 20 20 20 19 19 18 18 19 18 17
17 17 17 17 17 17 18 20 21 21 21 17 13 20 20 14
21 20 19 19 18 17 17 17 16 15 15 15 18 18 19 19
19 20 20 19 19 20 20 20 20 21 21 21 21 21 22 22
22 22 23 23 23 23 24 24 23 23 23 23 24 25 25 25
25 25 25 26 26 26 27 25 25 25 25 26 26 26 26 25
19 21 23 26 29 30 31 28 28 27 27 27 27 26 26 26
26 26 25 26 25 25 24 25 24 24 24 24 24 23 22 22
22 21 21 21 21 20 20 20 20 20 19 19 19 19 18 18
18 17 17 16 16 17 18 20 22 22 21 17 14 20 22 14
21 20 19 18 18 16 17 17 17 15 15 16 19 20 19 19
20 20 19 20 20 19 20 20 20 20 21 21 21 22 22 22
21 22 22 22 23 23 23 24 24 25 25 25 25 25 25 25
25 25 25 26 25 25 27 25 25 25 26 26 26 26 26 26
11 13 16 20 23 25 27 28 28 28 27 27 27 27 27 27
27 26 26 25 26 25 25 25 25 24 24 24 23 23 23 23
22 22 22 21 22 21 21 21 20 20 20 19 19 19 18 18
18 18 18 17 17 18 19 21 22 22 21 17 14 21 22 13
20 20 20 19 19 18 18 18 18 15 16 16 19 19 20 20
20 20 20 21 20 21 21 21 21 21 21 21 21 21 22 22
22 23 23 24 23 24 25 25 25 25 25 25 25 25 25 26
26 25 26 26 26 26 27 26 25 26 26 25 26 26 26 26
7 6 7 7 9 14 17 22 25 27 28 28 28 28 27 27
26 26 26 25 25 25 25 25 24 24 24 24 23 23 23 22
22 22 21 21 21 21 21 20 20 20 20 20 20 19 19 19
18 18 17 17 18 18 18 21 22 22 22 17 14 21 23 13
20 21 20 19 19 18 18 18 17 15 16 17 19 20 20 20
20 20 20 20 20 20 20 20 21 21 21 22 22 22 22 22
23 24 24 23 24 24 25 25 25 25 25 25 26 25 25 25
26 25 26 26 26 25 26 25 25 25 25 26 25 26 26 26
7 8 7 7 7 8 7 8 10 11 14 20 23 25 27 27
26 26 25 25 25 25 25 24 24 24 24 23 23 23 23 22
22 22 22 21 21 21 21 20 20 20 20 19 19 19 18 18
19 18 19 18 18 18 19 21 23 22 22 17 14 21 24 12
19 21 20 19 19 17 19 18 17 15 16 16 19 20 19 19
20 20 20 20 21 21 21 21 22 21 22 22 22 22 22 23
22 23 24 24 24 24 25 25 25 25 25 25 25 26 25 25
24 25 25 26 25 25 27 25 25 26 25 26 26 26 25 26
21 18 16 13 10 8 7 7 8 7 7 8 9 9 13 18
26 25 25 25 25 25 25 25 24 24 24 23 24 24 23 23
22 22 21 21 22 21 21 21 20 20 20 20 19 19 19 19
18 18 18 18 18 18 19 21 23 22 22 18 15 22 24 13
19 21 20 20 19 19 18 18 18 15 17 16 19 20 20 20
20 20 21 21 20 21 21 21 22 21 21 22 23 22 23 23
24 24 24 25 24 25 25 25 25 25 25 25 25 25 26 25
25 25 26 25 25 25 26 25 25 26 26 25 26 25 26 26
31 39 39 35 32 19 11 11 8 7 6 7 8 1 2 11
25 26 26 26 25 25 25 24 24 24 24 23 23 23 23 23
23 22 22 22 22 21 21 21 20 20 20 20 19 19 19 18
19 18 18 18 17 19 19 21 23 23 22 17 15 22 24 14
18 21 21 20 20 18 19 19 19 17 18 18 21 20 21 21
21 21 21 21 21 21 22 22 23 21 22 22 22 22 22 23
24 24 24 24 25 25 25 25 25 25 26 25 26 25 25 25
25 25 25 25 25 25 26 25 25 26 26 26 25 26 26 25
36 36 39 39 38 25 21 26 27 19 14 10 8 5 6 11
25 26 25 26 26 24 23 24 24 25 24 23 24 23 23 22
22 23 22 21 21 21 22 21 21 21 21 20 20 20 20 19
19 19 18 18 18 18 19 22 22 22 22 17 15 22 25 16
17 22 21 21 20 19 19 19 18 16 18 18 20 20 21 21
21 21 21 21 22 22 22 22 23 22 22 23 23 23 24 24
24 24 25 25 25 24 25 25 25 25 25 25 25 26 25 26
25 26 26 26 26 26 27 25 26 26 26 26 26 26 26 25
25 31 37 39 39 28 27 30 33 27 33 32 28 11 5 10
25 26 26 25 26 25 30 29 27 26 25 24 23 23 23 22
22 23 22 22 22 21 25 29 26 23 21 21 20 19 19 19
19 19 19 19 19 19 21 23 23 22 23 17 15 22 24 17
16 22 22 21 20 20 19 19 19 17 18 19 21 21 21 21
21 21 22 21 22 22 22 22 23 23 23 22 23 23 23 23
24 23 24 25 25 25 25 26 25 26 25 26 26 25 25 26
25 25 26 26 25 26 26 24 25 25 25 24 25 25 26 25
0 3 7 13 27 30 30 32 35 34 38 38 38 18 7 13
26 26 26 26 25 27 36 34 33 30 28 27 25 24 24 24
23 23 22 23 23 22 29 34 32 29 28 27 22 20 20 20
20 20 19 20 19 20 20 23 24 23 24 18 15 24 26 19
16 23 22 21 21 20 19 19 20 17 19 19 21 21 22 22
22 22 22 22 22 23 23 23 24 23 24 24 24 24 24 25
25 25 26 26 26 26 26 26 25 25 26 26 26 26 26 26
25 25 24 24 25 26 25 25 25 25 26 25 26 26 27 26
0 0 1 0 17 31 31 33 35 35 38 38 39 21 7 16
29 28 28 27 26 28 37 36 33 31 31 32 33 28 27 26
24 23 23 24 23 23 30 32 31 30 31 30 25 21 20 20
20 20 20 20 20 21 21 24 24 24 24 18 16 24 27 21
15 23 23 22 21 22 21 21 20 18 20 20 23 22 22 22
22 23 23 24 24 24 24 24 25 25 24 24 24 25 25 25
25 25 26 26 26 26 26 26 26 25 26 26 26 25 25 25
25 26 27 26 26 26 26 26 26 26 26 26 27 27 27 27
0 1 11 2 20 29 27 31 34 37 39 39 39 22 9 18
33 30 30 29 29 29 28 28 32 33 35 37 37 29 29 32
31 27 26 26 25 23 26 20 22 26 30 30 28 22 22 22
22 21 21 21 21 21 22 24 25 25 24 18 16 20 27 23
16 24 24 23 23 22 21 21 21 19 21 20 23 23 23 24
24 24 24 24 25 25 24 25 26 25 25 25 25 25 25 26
26 26 26 26 26 25 26 26 26 26 26 26 26 27 27 27
27 27 27 27 27 27 27 27 26 27 27 27 27 27 27 27
0 1 10 4 22 21 1 6 12 24 30 32 35 21 9 18
33 28 26 29 33 36 11 0 9 22 27 30 33 18 3 10
17 25 26 30 30 28 25 10 6 7 9 13 24 22 22 22
21 21 21 22 22 22 23 25 26 26 21 12 13 11 26 23
15 23 24 23 23 24 21 23 22 20 21 21 24 24 24 24
25 24 25 25 25 25 24 25 26 25 25 25 26 26 26 26
26 26 26 27 26 26 26 26 27 27 27 27 27 27 27 27
27 27 27 27 27 28 27 27 27 27 27 27 27 27 27 27
0 0 0 0 22 19 0 0 0 0 2 3 20 23 10 15
26 30 32 29 35 38 11 0 0 6 9 9 22 16 0 0
0 1 4 10 17 24 24 7 1 3 3 0 18 24 22 22
23 22 22 22 22 22 23 26 26 26 24 16 16 22 28 24
17 23 25 24 23 24 22 22 22 20 22 21 24 25 24 25
25 25 24 24 24 25 25 25 25 25 25 26 26 26 26 27
26 26 26 27 27 27 27 27 26 27 26 27 27 25 27 28
28 27 27 27 28 28 28 27 27 27 27 27 27 27 27 28
0 1 0 0 24 16 0 0 0 0 0 0 16 21 9 3
0 4 11 21 30 35 12 0 0 1 4 5 19 16 0 0
0 0 0 0 0 10 25 4 0 0 1 0 19 24 23 22
22 22 22 21 22 23 23 27 27 26 25 19 18 26 28 24
17 22 24 22 23 24 22 22 22 21 23 21 24 24 24 24
23 24 24 25 25 25 25 25 25 26 26 25 26 26 26 27
26 27 26 26 27 26 26 27 27 27 27 26 26 26 27 27
27 27 27 27 27 26 27 27 26 27 27 28 27 27 27 28
4 13 0 0 24 15 0 0 4 1 0 0 17 21 9 2
0 0 0 0 1 7 10 0 0 0 0 0 16 16 0 0
0 0 0 0 0 9 23 1 0 0 0 0 21 24 23 23
23 23 23 22 22 23 24 26 27 26 25 19 19 27 28 25
19 21 24 24 24 23 22 23 22 20 22 21 24 24 25 25
25 25 25 26 25 25 25 25 25 25 25 25 26 25 26 28
26 27 27 27 26 27 26 26 27 26 26 26 27 27 28 28
27 27 27 28 27 27 27 27 27 27 27 27 27 26 25 27
0 6 0 0 26 13 0 0 4 7 0 0 18 20 9 2
0 0 0 0 0 1 7 0 0 0 0 0 17 14 0 0
0 1 0 0 0 9 20 0 0 0 0 0 23 24 23 23
23 23 22 22 22 23 24 27 27 27 25 20 19 27 29 25
19 19 24 24 23 24 22 22 23 21 22 22 25 25 25 25
25 25 25 26 25 25 25 25 26 26 26 26 26 26 26 27
27 27 26 26 26 27 26 27 27 27 27 26 27 26 27 28
27 27 27 27 26 26 27 27 27 27 27 28 28 27 26 28
2 0 0 0 26 11 0 0 1 4 0 0 19 18 9 2
0 0 0 0 0 1 5 0 0 0 0 0 21 16 0 0
0 5 5 1 0 9 19 0 0 0 0 0 22 25 23 23
23 23 22 23 23 23 24 27 27 27 26 19 20 27 28 26
21 19 25 25 24 24 22 23 22 20 22 21 25 25 25 25
25 26 26 26 26 25 25 25 25 26 26 25 26 26 26 27
27 26 27 27 27 27 27 27 27 26 26 26 26 26 27 27
27 27 27 26 27 26 27 26 26 27 27 27 27 27 27 27
0 0 0 0 27 8 0 0 0 0 0 0 20 16 8 2
0 0 1 2 0 1 4 0 0 0 0 0 20 16 0 0
0 6 8 6 2 8 19 0 0 0 0 0 22 25 24 23
22 22 22 23 23 23 24 27 28 28 27 19 20 27 27 26
22 17 25 25 23 24 23 23 23 21 23 22 25 25 26 25
26 25 25 25 25 25 25 25 26 26 26 27 27 27 26 27
27 27 27 26 26 27 27 27 27 27 27 27 27 27 28 27
27 26 26 26 27 26 27 26 27 27 27 27 27 28 27 27
17 11 5 3 28 7 0 0 0 0 0 0 21 15 9 2
1 2 0 0 0 1 4 0 0 0 0 0 21 16 0 0
0 6 8 8 3 8 19 0 0 0 0 0 20 25 23 23
23 23 23 23 24 24 24 27 27 28 26 19 20 26 29 26
23 17 24 25 23 24 23 23 22 20 22 21 25 25 26 26
25 26 25 25 26 26 26 25 26 26 26 26 26 26 26 28
26 27 27 27 27 27 27 27 27 27 28 27 26 26 27 26
27 26 27 27 27 26 27 27 28 27 27 27 26 27 26 25
34 36 36 32 32 24 9 6 7 5 2 0 25 14 10 2
2 0 0 0 0 1 5 0 0 0 0 4 24 18 0 0
0 0 4 7 2 8 27 11 5 1 0 0 20 25 23 23
23 23 22 22 23 24 24 28 28 28 26 18 21 28 29 26
24 17 23 25 23 24 23 23 23 20 23 22 26 26 25 25
26 25 25 25 25 25 25 26 26 26 26 27 27 27 27 27
27 27 27 27 27 27 27 27 27 27 27 27 28 27 27 27
27 28 27 28 27 28 27 26 28 28 28 28 27 28 28 27
11 12 14 28 42 46 27 25 29 31 28 25 28 12 9 2
0 0 0 0 0 3 22 12 6 5 1 0 23 33 20 15
10 3 0 1 0 8 33 32 29 26 23 22 30 25 24 23
23 24 23 23 24 25 24 28 28 27 25 19 21 27 28 26
24 18 23 26 24 24 24 24 23 21 23 22 25 25 25 25
26 26 26 26 26 26 26 26 26 26 26 26 26 27 26 28
27 27 27 28 28 28 27 27 27 27 26 26 26 26 27 28
28 27 27 27 28 27 27 27 28 28 27 27 27 26 26 25
3 1 0 25 48 42 23 27 35 38 38 38 33 11 9 1
0 0 0 0 0 6 40 37 31 30 28 20 33 30 15 19
22 22 21 17 15 20 35 33 32 32 36 39 38 25 23 23
23 23 23 23 24 24 25 28 28 28 24 22 23 28 29 27
25 20 22 25 23 24 23 23 23 21 23 22 25 25 25 25
26 26 25 25 25 26 26 26 26 26 26 26 27 27 26 26
27 27 27 27 28 27 28 27 28 27 27 27 26 27 28 28
27 27 28 27 26 25 27 27 27 27 27 27 27 27 27 27
0 0 0 29 44 31 20 28 35 37 38 39 34 10 9 6
2 0 0 0 0 7 40 32 36 38 40 37 35 24 8 8
9 9 10 12 17 22 23 21 26 29 33 35 35 25 23 24
24 24 24 24 24 25 25 28 28 28 23 21 23 28 29 27
25 21 22 27 27 31 30 27 24 21 23 22 25 26 25 25
26 26 27 26 26 26 26 27 26 27 27 26 26 26 27 26
27 26 28 28 28 28 28 29 28 27 27 27 26 27 27 27
27 27 27 27 27 26 27 28 28 28 27 28 27 27 27 27
0 0 0 28 42 21 0 3 7 10 15 21 33 11 10 24
33 28 19 11 6 11 32 29 36 39 42 39 30 21 10 8
8 7 5 5 4 4 4 5 9 16 25 22 22 24 24 24
24 24 24 23 24 25 25 28 28 27 22 22 25 28 29 27
27 26 30 32 32 33 34 39 40 32 27 23 26 26 26 26
26 26 27 26 26 26 27 27 27 27 27 27 27 27 28 26
27 27 28 28 28 28 27 28 27 28 27 28 28 28 27 28
27 27 27 27 27 27 27 27 27 28 27 27 27 27 28 28
0 0 0 26 43 20 0 0 0 0 0 1 26 11 11 26
39 39 38 37 36 36 27 22 32 35 38 37 31 24 11 9
6 5 5 5 5 4 4 5 5 14 20 18 21 22 24 24
24 24 24 24 25 25 25 28 29 26 19 19 25 28 28 26
26 28 34 26 28 31 37 36 39 37 32 25 25 26 26 26
26 25 27 27 27 27 27 27 27 27 27 27 27 27 27 27
27 27 27 28 28 28 28 28 28 28 27 25 27 27 27 27
26 27 27 27 27 26 26 28 27 27 27 27 27 27 27 27
0 0 0 23 42 17 0 0 0 0 0 1 26 12 10 26
38 39 38 39 39 39 16 1 4 8 16 20 23 26 11 8
4 1 1 3 6 6 6 8 8 18 16 9 26 26 25 19
20 24 24 24 25 25 25 28 28 25 18 19 26 27 24 23
22 22 25 26 26 33 37 35 33 33 32 31 23 23 26 26
27 26 26 27 27 26 25 26 27 27 26 27 27 27 27 27
26 27 28 27 27 27 27 27 27 27 26 26 26 27 28 28
28 27 27 27 27 27 27 27 27 26 26 27 27 27 27 28
0 0 0 21 37 13 0 0 0 4 17 17 23 19 15 22
29 30 32 34 37 38 11 0 0 0 0 4 14 26 9 6
1 0 0 0 4 5 1 5 7 18 30 28 30 31 30 15
12 24 24 24 25 23 22 27 28 25 18 18 19 17 18 19
22 26 30 33 30 35 38 34 34 31 34 33 27 21 24 26
26 26 26 26 26 26 26 26 28 27 26 27 26 27 27 26
26 27 27 27 28 28 28 28 28 28 25 26 28 28 27 27
27 27 27 27 27 27 27 28 27 27 27 27 27 27 27 27
0 0 0 21 35 9 0 0 0 5 18 18 18 19 15 17
18 21 25 24 29 34 9 0 0 0 0 0 13 28 8 6
1 0 0 0 0 0 0 0 0 13 31 24 21 21 25 27
26 25 24 24 24 11 14 26 27 25 15 13 13 18 25 33
35 40 46 49 44 38 27 27 28 32 29 27 26 26 24 25
26 26 27 23 20 22 27 27 28 27 27 27 28 28 28 28
28 27 28 28 28 28 28 28 28 27 25 26 28 28 28 28
28 28 28 28 28 28 28 28 28 28 28 28 28 27 28 27
0 0 0 25 36 8 0 0 0 0 5 9 17 16 14 16
16 18 24 23 29 34 7 0 0 0 0 0 11 24 3 0
0 0 1 3 0 0 0 0 0 12 32 24 16 22 21 22
24 25 25 25 24 12 17 26 26 22 16 17 24 30 34 50
72 81 82 80 76 58 32 18 20 26 29 31 27 21 24 24
26 26 26 23 13 15 27 28 29 28 28 27 27 27 27 28
28 28 28 28 29 28 29 29 29 28 28 28 29 28 28 28
28 28 28 28 28 28 28 28 28 28 28 28 29 28 27 28
0 0 0 29 36 7 0 0 0 0 0 0 13 10 14 10
9 14 21 25 31 31 6 0 0 0 0 0 15 20 0 0
0 0 0 5 4 0 0 0 0 12 33 24 12 24 21 21
24 25 25 25 24 20 21 26 21 19 21 30 31 46 79 87
88 90 90 87 82 81 76 52 22 10 15 24 31 29 23 22
23 27 28 26 24 25 27 27 28 28 28 29 29 28 29 28
29 28 29 29 29 28 29 30 29 29 28 28 28 28 29 28
29 29 29 28 29 27 27 27 27 28 27 27 27 27 28 28
0 0 0 33 35 6 0 0 0 0 0 1 20 16 17 4
0 0 0 2 6 14 6 0 0 0 0 0 17 18 0 0
0 0 0 7 9 6 0 0 0 13 33 24 9 14 13 19
24 25 24 25 25 24 21 21 11 15 33 33 62 87 89 88
89 92 95 94 89 84 81 81 69 33 6 5 14 28 23 20
25 25 26 27 28 27 27 28 29 28 29 29 28 29 29 28
28 28 29 29 29 28 29 30 29 30 28 28 29 28 27 28
28 29 28 28 28 28 29 29 27 28 28 28 28 28 27 28
16 9 7 33 34 5 0 0 1 0 0 1 25 20 18 5
0 0 0 0 0 4 4 0 0 0 0 0 18 15 0 0
0 0 9 12 11 8 0 0 0 13 33 26 16 16 14 18
23 24 25 25 26 24 19 11 9 23 29 63 79 84 92 98
99 103 103 103 100 95 84 78 77 71 40 3 2 12 26 14
21 26 27 28 29 28 28 27 28 27 28 28 28 28 28 28
28 28 29 28 28 28 28 29 29 28 26 26 29 29 30 29
28 28 28 28 28 28 27 27 27 27 26 27 27 27 27 27
25 23 21 25 26 10 0 0 3 2 0 1 27 20 18 5
0 0 0 0 0 5 4 0 1 7 1 0 19 11 0 0
0 0 5 13 7 2 0 0 0 13 34 27 18 8 2 14
22 25 25 25 24 21 15 12 16 15 17 22 31 45 56 92
114 117 112 106 83 63 53 50 36 32 30 16 0 7 17 21
16 24 29 27 27 27 27 27 27 28 28 29 29 29 29 29
28 28 28 30 29 29 29 28 29 29 25 24 29 29 29 29
28 28 28 28 28 28 28 28 28 27 27 27 27 27 27 27
0 5 2 18 25 24 24 16 16 17 12 7 29 17 17 5
0 1 8 0 0 4 3 0 7 11 3 0 20 9 0 0
0 0 0 7 3 0 0 0 0 11 34 27 15 4 2 11
23 25 24 15 13 8 5 4 0 0 0 0 0 0 3 12
79 98 95 85 24 11 14 5 1 2 1 1 1 2 7 14
17 26 30 30 28 28 28 28 28 28 29 28 28 29 29 29
29 29 29 30 30 30 30 30 29 29 25 24 29 29 29 29
29 28 29 28 28 28 28 28 28 28 28 27 27 26 27 27
0 9 3 21 26 21 13 15 23 30 33 33 33 21 15 4
0 6 14 3 0 6 16 9 16 15 11 1 22 8 0 0
0 0 0 8 5 0 0 0 0 9 34 23 6 2 0 10
22 25 16 8 12 3 0 0 0 0 0 0 0 0 0 1
7 14 7 5 1 0 0 0 0 0 0 0 0 0 4 5
6 14 29 31 28 28 28 28 28 29 29 29 29 30 29 29
29 29 28 29 30 30 29 30 30 30 27 26 30 29 30 29
28 28 28 27 28 28 28 28 29 27 28 28 27 27 27 28
4 1 5 25 26 15 0 0 1 5 15 35 34 21 15 4
0 1 4 0 0 8 33 31 35 32 32 30 35 8 0 0
0 0 0 8 5 0 0 0 0 6 34 18 4 2 0 16
22 25 14 2 0 0 0 29 17 0 0 0 0 0 0 3
53 82 56 11 0 0 0 0 0 0 0 0 0 0 0 0
1 5 26 31 28 28 28 28 28 28 28 28 28 29 29 30
29 29 29 30 30 30 30 29 30 30 29 29 30 29 28 29
28 29 29 28 28 29 28 28 29 27 27 27 26 26 26 27
15 4 1 27 27 12 0 0 14 11 15 34 31 18 16 10
2 0 0 0 0 8 35 35 36 35 38 42 41 20 9 10
3 1 2 11 7 0 0 0 0 4 31 16 2 0 0 13
21 25 14 0 0 0 21 79 6 0 0 0 0 0 0 22
116 125 99 37 0 0 0 0 0 0 0 0 0 0 20 80
17 2 17 28 28 27 29 29 29 28 29 29 29 29 29 29
29 29 29 29 28 29 29 28 29 29 29 29 30 29 29 29
28 28 29 28 28 28 28 27 28 27 27 27 27 27 27 28
7 0 1 30 30 11 0 0 10 21 24 34 25 16 17 17
2 0 0 0 0 8 31 31 34 34 37 41 42 32 28 27
24 22 22 22 17 13 10 8 6 10 28 19 6 5 5 4
19 26 15 0 0 0 62 28 0 0 0 0 8 69 48 56
121 127 111 67 3 0 0 0 0 1 0 0 0 0 0 6
7 1 16 27 29 28 28 28 28 28 29 28 28 29 29 29
29 29 30 29 30 29 30 30 30 30 29 29 29 29 29 29
28 28 28 28 28 29 28 28 28 27 27 27 27 27 26 28
7 0 2 32 32 11 0 0 1 7 25 35 22 17 18 11
0 0 0 0 0 10 31 28 30 30 30 27 27 29 29 30
28 27 28 28 27 24 21 19 17 19 30 27 20 17 12 9
17 25 14 0 0 15 78 1 0 0 0 18 107 84 32 83
92 120 82 100 21 0 0 0 18 96 43 0 0 0 0 0
4 2 15 26 28 27 27 28 28 28 28 29 29 29 29 30
28 29 29 29 29 29 29 29 28 29 29 30 29 29 29 29
29 28 27 28 29 28 27 27 27 27 28 27 27 26 27 28
0 1 3 33 33 11 0 0 0 0 21 36 22 17 18 18
13 9 6 3 1 12 34 27 27 28 28 27 27 31 31 33
34 33 30 30 28 29 33 30 26 26 32 36 35 34 31 28
24 26 14 1 0 44 43 0 0 0 9 106 72 11 89 52
49 111 33 78 84 2 1 15 109 77 4 0 0 0 0 0
11 9 16 27 29 28 28 28 28 28 29 28 28 28 28 28
29 29 29 30 30 30 29 29 30 30 29 29 28 28 28 29
29 29 28 29 28 28 28 28 28 27 28 27 27 27 27 27
0 0 3 34 32 8 0 0 0 0 20 38 22 17 18 30
37 37 33 34 34 34 37 30 30 29 31 32 34 35 32 34
38 39 30 27 28 32 39 36 34 33 32 27 24 25 25 27
25 26 14 1 3 86 28 0 0 0 8 47 6 39 111 23
49 114 54 31 113 36 5 52 71 1 0 0 0 0 1 1
27 10 17 28 29 28 28 28 29 29 29 29 29 29 29 30
29 30 30 30 30 29 29 29 30 30 29 29 29 29 30 30
29 29 29 28 28 28 28 28 28 28 28 27 27 27 27 27
0 0 3 34 32 6 0 0 0 0 22 39 22 17 19 34
45 45 44 44 45 44 40 30 28 29 29 34 38 39 34 35
39 38 31 27 24 31 39 36 34 35 33 28 21 18 17 17
22 26 12 14 13 24 13 14 10 10 8 3 11 81 111 22
84 116 86 23 104 83 7 3 9 9 7 6 8 4 0 15
36 15 17 30 31 28 29 29 29 29 29 28 28 29 29 30
29 29 30 30 29 30 30 30 29 29 28 28 28 28 28 28
29 28 29 28 28 28 29 28 28 28 28 28 27 27 27 27
0 0 3 34 32 5 0 0 0 0 21 36 19 16 18 24
31 33 35 37 40 41 36 10 11 8 10 15 25 38 34 29
23 26 27 24 23 26 24 19 21 27 30 30 27 24 23 23
25 26 9 19 39 62 44 4 7 8 15 39 68 91 118 74
105 118 106 71 112 97 63 35 15 12 9 3 11 43 58 58
34 19 9 32 36 28 28 28 28 28 28 28 28 29 29 29
28 28 29 29 29 29 29 29 28 29 28 29 28 28 29 30
29 28 28 28 28 28 27 28 28 27 27 27 27 27 27 27
0 0 3 35 33 5 0 0 0 0 19 34 17 17 17 20
23 23 22 22 22 23 23 1 0 0 0 0 5 35 32 12
1 2 6 8 21 27 11 0 0 2 8 20 28 26 26 29
31 32 8 22 51 72 63 56 57 64 83 92 87 80 94 93
100 116 100 89 101 82 84 93 88 68 53 46 52 72 79 66
44 23 3 28 45 33 28 29 29 28 28 28 29 28 28 29
28 29 29 29 30 30 30 30 30 30 30 28 28 29 29 29
29 28 28 28 28 28 28 28 28 28 27 27 27 27 27 26
15 17 21 34 30 4 0 0 0 0 24 39 19 16 17 25
29 29 28 28 26 27 22 3 0 0 0 0 11 35 22 1
0 0 0 3 23 27 8 0 0 0 6 18 14 10 15 17
21 25 5 27 58 75 65 63 78 98 107 105 91 76 82 96
106 110 101 92 72 74 91 105 109 101 85 73 73 71 80 72
58 23 3 22 39 37 27 28 28 27 28 29 28 29 29 28
28 29 29 29 28 29 28 29 28 29 29 28 28 28 28 29
28 28 29 28 27 28 27 28 27 27 27 27 27 27 26 26
35 35 35 28 20 9 5 2 1 0 25 37 16 14 17 26
32 32 31 31 31 32 24 3 0 0 0 0 11 33 14 0
0 0 0 1 25 28 9 0 0 0 3 17 7 0 3 0
2 16 5 35 65 69 67 85 106 113 109 96 76 79 92 94
106 109 100 94 85 74 88 104 111 114 109 93 73 76 72 76
65 27 2 21 30 39 27 28 29 28 28 28 27 28 28 28
28 28 28 27 28 28 29 29 29 29 29 28 29 28 27 27
28 27 27 27 27 27 28 28 27 28 27 27 26 27 26 26
32 32 32 30 28 31 29 26 25 21 30 30 20 19 21 20
22 24 26 27 29 33 25 1 0 0 0 2 5 31 9 0
0 0 0 1 26 25 7 0 0 0 2 17 7 2 9 4
2 16 3 43 68 66 83 107 118 118 103 79 72 92 108 112
113 114 117 108 97 81 81 100 110 116 118 111 88 74 75 73
67 35 1 16 29 33 28 25 26 26 26 26 27 27 28 28
28 26 25 24 25 23 24 26 28 28 28 28 28 28 28 28
28 27 27 27 27 27 27 27 26 26 27 26 26 25 26 26
28 28 29 29 29 29 29 29 29 28 28 28 28 28 27 26
24 23 24 22 24 31 31 4 0 0 0 2 2 29 7 0
0 0 0 1 27 25 7 0 0 0 0 16 8 0 2 1
5 15 5 54 66 72 101 117 121 113 92 82 92 99 97 101
102 102 101 101 104 95 89 97 109 115 118 120 106 82 73 74
68 45 2 14 30 27 24 17 13 10 10 10 13 22 28 28
28 19 7 7 7 6 7 17 29 29 29 28 28 28 27 27
27 27 28 26 27 27 27 28 26 27 27 26 26 26 26 26
28 28 28 28 27 28 27 27 27 27 28 27 28 28 28 28
28 28 28 28 27 31 32 8 0 0 0 3 2 28 6 0
0 0 0 1 27 24 8 0 0 0 0 15 11 1 4 3
10 14 9 60 67 86 111 119 117 106 87 90 90 88 101 102
109 107 109 104 95 89 94 89 98 115 114 120 117 96 74 74
68 52 4 14 31 31 16 15 5 1 0 0 1 14 28 27
27 18 3 3 3 3 3 15 28 28 29 28 28 28 28 28
27 27 27 27 26 27 27 27 27 26 26 26 27 26 27 26
21 22 22 22 22 23 23 24 25 25 25 25 26 26 26 26
28 27 27 28 28 31 30 1 0 0 0 0 3 29 5 0
0 0 0 0 25 25 8 0 0 0 0 16 13 0 0 1
16 16 20 63 72 97 115 117 112 97 86 83 83 100 104 106
101 95 104 109 103 96 82 91 92 108 120 114 121 107 79 74
69 55 12 6 36 33 19 17 10 1 1 1 0 13 27 27
27 15 3 3 4 3 5 16 29 29 29 29 28 28 27 27
27 27 27 26 27 27 26 28 27 27 27 27 27 27 27 26
0 0 0 0 1 1 2 2 2 3 4 4 5 6 7 8
10 11 14 21 26 29 27 0 0 0 0 0 2 30 6 0
0 0 0 0 24 25 5 0 0 0 0 14 16 0 0 3
23 15 27 65 79 102 116 115 111 93 76 75 92 107 106 106
104 102 109 113 109 103 87 78 91 101 121 113 117 114 89 75
73 56 14 4 34 37 26 21 15 1 0 1 1 14 27 27
28 15 3 4 4 4 4 14 28 29 29 29 28 28 28 27
28 28 27 27 27 27 27 27 27 27 27 26 27 27 27 27
0 0 0 0 0 0 0 0 0 0 0 0 0 0 0 0
0 0 1 21 27 28 26 3 1 0 1 5 3 29 13 2
1 3 1 1 25 27 14 6 5 5 5 18 17 0 0 9
21 16 34 66 83 103 112 114 110 75 65 80 96 104 100 93
91 92 100 111 115 106 91 79 70 91 116 114 108 118 97 75
74 61 15 5 22 37 31 25 24 3 2 2 1 15 27 27
28 16 4 4 5 4 4 13 29 29 29 28 28 28 27 27
27 26 27 26 27 26 26 27 28 28 27 27 27 27 27 27
0 0 0 0 0 0 0 0 0 0 0 0 0 0 0 0
0 0 1 23 27 27 33 31 27 24 26 29 26 30 35 34
30 31 30 30 37 29 28 31 31 33 33 36 25 11 12 12
18 13 34 66 88 102 105 112 109 83 77 86 92 92 86 83
86 85 84 88 102 105 97 89 82 90 117 111 101 118 104 77
72 64 16 5 15 27 30 27 32 8 2 2 2 15 28 28
28 19 11 10 10 10 10 13 26 27 27 27 27 28 27 27
27 28 28 28 27 27 28 28 27 27 27 28 27 27 27 28
0 0 0 0 0 0 0 0 0 0 0 0 0 0 0 0
0 0 0 23 28 28 36 39 34 35 37 33 28 25 36 44
41 40 42 44 44 33 27 34 36 38 37 38 31 24 22 14
13 10 33 66 90 100 96 111 103 93 86 82 80 81 90 91
90 90 93 87 84 93 96 95 99 103 115 111 96 116 108 78
70 64 21 4 12 20 27 27 31 15 5 5 3 15 27 28
28 17 7 7 7 7 7 12 26 29 29 29 29 28 28 28
27 27 28 27 27 27 27 27 27 27 27 27 27 27 27 28
0 0 0 0 0 0 0 0 0 0 0 0 0 0 0 0
0 0 0 23 28 27 35 33 29 32 35 34 27 23 27 33
34 34 34 35 36 32 22 27 31 33 35 33 29 24 21 11
10 9 32 67 91 96 93 106 97 87 76 69 79 94 107 97
95 103 100 98 86 81 81 91 102 107 114 106 93 110 110 81
70 64 21 3 4 19 22 26 25 21 8 6 3 15 28 29
27 18 5 5 6 6 5 12 28 29 29 29 29 28 28 28
28 27 28 28 27 27 27 27 27 26 26 27 27 26 26 27
0 0 0 0 0 0 0 0 0 0 0 0 0 0 0 0
0 0 0 23 29 27 33 22 25 25 30 33 27 24 22 18
19 20 19 19 22 25 24 26 29 28 26 21 21 22 16 8
5 7 28 68 88 92 90 98 86 71 62 69 80 97 106 96
97 102 102 98 88 75 65 71 85 102 109 102 92 108 109 82
70 64 26 8 1 19 23 27 26 29 9 6 4 17 28 29
28 17 5 5 5 5 5 13 29 30 29 29 29 29 28 29
28 28 28 28 27 27 27 28 27 27 27 27 27 27 26 27
0 0 0 0 0 0 0 0 0 0 0 0 0 0 0 0
0 0 0 21 29 26 32 9 5 8 11 14 15 22 24 23
23 26 28 26 25 29 30 32 34 33 27 22 22 23 16 6
4 2 26 68 84 90 87 89 73 58 55 62 78 89 83 95
97 98 97 96 90 68 53 63 74 82 99 100 98 106 104 83
72 66 42 13 1 9 24 28 26 30 16 10 4 16 28 29
28 18 6 6 5 5 5 13 29 30 29 29 29 28 29 28
29 29 28 28 29 28 28 27 27 27 27 26 26 27 27 26
0 0 0 0 0 0 0 0 0 0 0 0 0 0 0 0
0 0 0 20 29 25 32 6 0 0 0 0 5 22 26 32
33 35 42 33 22 24 26 30 35 38 31 26 25 24 18 8
3 1 23 68 81 89 85 82 66 53 56 67 87 88 90 80
86 90 95 95 78 59 54 57 68 76 95 102 104 106 100 84
71 65 61 44 22 12 15 26 30 27 19 15 13 18 28 29
28 16 4 5 5 5 5 14 29 30 29 29 29 28 29 29
28 28 28 28 28 28 28 28 27 27 27 26 27 27 27 28
0 0 0 0 0 0 0 0 0 0 0 0 0 0 0 0
0 0 0 18 29 25 33 9 0 0 0 0 2 25 25 32
31 26 36 23 1 1 3 4 15 37 32 27 26 27 23 9
6 8 34 66 78 85 80 78 61 49 54 55 73 87 88 84
87 75 78 82 58 51 57 64 51 75 91 102 107 107 101 85
71 65 74 90 80 60 37 11 19 24 22 17 18 20 28 30
29 17 5 5 5 6 6 15 30 30 29 28 28 28 28 29
28 28 28 28 28 27 27 27 27 27 27 26 27 26 26 26
0 0 0 0 0 0 0 0 0 0 0 0 0 0 0 0
0 0 0 16 29 25 28 8 0 0 0 0 1 26 23 31
21 2 13 19 0 0 0 0 8 35 32 28 27 26 23 14
43 67 63 62 74 81 81 76 64 46 48 47 51 62 63 63
61 50 68 67 49 48 54 59 60 78 89 99 107 107 99 84
70 66 79 93 96 86 68 24 14 20 23 19 20 23 27 30
28 16 4 5 5 5 5 16 30 29 29 29 29 28 29 28
28 28 28 28 27 27 27 27 27 27 27 26 26 27 26 27
0 0 0 0 0 0 0 0 0 0 0 0 0 0 0 0
0 0 0 15 29 24 15 0 0 0 0 0 2 28 23 32
21 0 12 20 0 0 0 0 5 33 32 27 27 26 24 29
55 73 72 61 71 78 80 79 70 49 37 40 41 43 43 43
39 42 55 53 52 53 58 53 56 80 88 97 105 105 98 83
70 72 87 87 98 96 69 44 13 19 22 9 17 23 28 29
28 18 5 6 6 6 4 15 29 29 29 29 29 29 28 28
28 28 28 29 28 28 28 27 27 27 27 26 27 27 27 26
0 0 0 0 0 0 0 0 0 0 0 0 0 0 0 0
0 0 0 14 28 24 11 0 0 0 0 0 3 29 23 32
20 0 10 21 0 0 0 0 3 31 31 27 27 27 26 46
69 81 70 60 70 79 80 80 79 66 42 41 45 58 61 67
65 61 56 59 68 72 59 59 81 93 92 94 101 103 96 81
69 81 94 83 86 81 60 56 8 21 23 11 15 22 28 29
29 25 20 21 14 15 16 20 29 29 29 29 29 29 29 28
28 28 28 28 28 27 27 27 27 27 27 27 27 27 26 28
0 0 0 0 0 0 0 0 0 0 0 0 0 0 0 0
0 0 0 13 28 24 10 0 0 0 0 0 2 28 23 33
19 0 11 22 0 0 0 0 2 30 31 26 27 26 26 56
65 79 72 60 72 82 83 85 85 86 79 75 79 87 95 97
99 94 92 91 89 87 89 88 93 94 93 94 99 99 94 77
67 91 100 91 96 91 59 58 9 21 21 9 16 23 28 28
29 29 30 30 28 28 29 28 30 30 29 29 29 28 28 28
27 28 28 28 28 27 27 27 27 27 27 26 27 27 26 26
0 0 0 0 0 0 0 0 0 0 0 0 0 0 0 0
0 0 0 13 28 24 10 0 0 0 2 2 2 29 24 34
21 2 10 21 3 0 0 0 3 30 31 26 26 26 30 54
67 90 72 61 72 83 88 88 94 91 86 85 91 96 98 101
103 103 101 100 97 91 88 91 94 96 97 98 98 97 88 73
68 95 92 83 82 85 74 58 5 19 27 13 15 25 30 29
30 30 31 30 30 30 30 30 29 30 29 29 29 30 29 28
29 29 28 28 28 28 28 27 27 27 26 26 27 27 26 27
0 0 0 0 0 0 0 0 0 0 0 0 0 0 0 0
0 0 0 13 28 25 11 2 3 0 4 11 3 29 26 35
25 10 9 22 5 5 5 1 3 28 31 26 27 27 35 50
85 91 82 65 74 83 92 93 93 86 86 86 90 94 100 106
104 106 107 104 103 98 91 87 91 96 98 98 98 93 85 70
71 82 89 87 87 72 72 47 7 17 32 17 16 26 32 29
29 29 29 29 29 28 29 29 29 29 29 29 28 28 28 28
28 28 28 28 27 27 27 27 27 27 27 26 27 27 27 26
0 0 0 0 0 0 0 0 0 0 0 0 0 0 0 0
0 0 0 13 28 24 16 12 13 9 14 21 16 32 29 36
22 17 11 19 3 8 7 0 2 27 29 26 27 27 35 61
78 74 79 73 71 85 94 97 96 92 93 89 89 97 103 108
106 107 110 108 102 101 99 94 94 95 100 100 99 92 81 65
64 31 67 65 56 63 62 25 10 19 33 25 23 29 31 29
29 30 30 29 29 28 29 30 29 29 29 29 28 28 28 29
29 28 27 27 27 27 26 27 26 26 27 26 27 27 27 27
0 0 0 0 0 0 0 0 0 0 0 0 0 0 0 0
0 0 0 13 28 25 29 38 40 40 40 41 40 44 34 36
17 19 15 24 14 15 13 9 10 24 26 26 26 27 29 63
66 69 81 75 66 86 95 97 98 100 94 92 92 96 103 109
109 111 109 109 105 103 102 102 100 96 100 98 98 90 77 63
75 47 20 0 2 18 17 13 18 22 36 36 24 28 29 28
29 29 29 29 29 28 29 30 29 29 29 28 28 28 28 28
28 27 27 28 28 27 27 27 26 26 26 26 27 27 27 26
0 0 0 0 0 0 0 0 0 0 0 0 0 0 0 0
0 0 0 14 28 24 33 46 46 47 46 47 47 49 40 36
12 9 14 26 21 21 20 19 19 20 24 26 26 27 27 49
60 55 45 25 55 89 99 100 100 103 100 94 95 99 107 111
113 113 111 109 108 104 102 103 104 101 101 98 99 91 74 70
84 78 31 0 3 12 13 16 22 21 38 42 28 30 29 29
29 29 29 29 27 28 29 29 29 29 29 29 28 29 28 29
29 28 28 28 27 27 27 27 26 26 26 26 27 28 28 28
0 0 0 0 0 0 0 0 0 0 0 0 0 0 0 0
0 0 0 15 29 24 27 33 32 33 33 33 33 33 32 34
10 3 11 27 24 25 24 23 23 24 25 26 26 25 25 27
28 17 7 11 60 81 101 103 103 103 102 98 98 100 110 115
114 115 113 114 112 108 105 106 108 102 96 97 98 89 70 82
85 77 24 1 2 12 16 19 22 23 41 41 31 30 29 28
29 29 30 29 27 27 29 30 29 30 29 28 28 28 28 28
29 28 28 28 28 27 27 28 27 26 26 27 28 32 33 32
0 0 0 0 0 0 0 0 0 0 0 0 0 0 0 0
0 0 0 14 28 23 20 16 15 16 16 16 17 16 18 32
11 2 9 27 25 27 27 26 26 26 26 25 27 26 24 23
20 20 11 24 75 73 86 98 101 101 101 101 103 105 113 116
115 115 115 115 112 110 108 109 107 104 98 94 94 80 72 89
91 75 20 0 4 9 17 15 17 23 37 40 31 30 29 29
29 29 29 29 28 27 29 29 28 28 28 28 28 28 28 28
29 28 28 27 28 27 27 27 29 32 31 29 30 39 41 40
0 0 0 0 0 0 0 0 0 0 0 0 0 0 0 0
0 0 0 16 27 23 21 18 17 17 17 17 17 15 19 33
14 4 10 28 26 27 27 27 27 27 26 26 26 27 25 21
23 23 13 22 75 79 70 88 99 100 103 103 103 109 114 117
118 117 116 118 114 113 110 109 109 105 99 91 79 71 84 91
91 72 13 1 3 12 17 12 17 17 29 37 30 29 28 28
29 29 29 29 28 26 29 30 29 29 28 28 28 28 29 28
28 27 28 27 27 27 27 27 38 48 47 47 47 46 46 45
0 0 0 0 0 0 0 0 0 0 0 0 0 0 0 0
0 0 0 19 29 23 23 23 22 21 21 20 19 17 23 36
27 28 32 32 25 26 26 26 27 27 27 27 27 26 25 23
25 21 12 16 71 83 74 74 94 99 102 102 105 111 114 119
120 121 120 123 120 115 111 109 108 105 98 89 85 85 90 91
89 69 12 2 2 11 13 11 14 15 28 33 26 26 28 29
29 29 29 28 26 25 28 30 29 28 28 28 28 28 28 29
28 28 28 28 27 27 27 27 41 49 49 49 49 49 49 49
2 1 2 3 4 4 5 6 6 7 8 8 9 10 9 10
12 12 13 24 28 23 22 23 23 22 22 22 21 17 21 32
30 35 37 30 25 26 26 26 26 26 26 25 25 24 24 23
21 15 7 16 70 84 81 78 88 95 99 101 105 112 117 122
122 122 123 125 120 117 112 109 109 107 101 93 92 90 92 92
87 64 8 10 7 14 15 14 12 17 25 28 26 19 27 26
27 28 28 28 26 23 29 30 29 28 28 28 28 28 28 28
28 28 27 28 27 27 27 27 43 49 49 49 49 49 48 48
10 10 12 14 16 16 18 19 20 20 21 22 22 23 22 23
23 23 23 23 23 22 24 23 23 23 22 22 22 18 20 23
21 21 24 24 24 25 26 26 25 26 26 25 26 25 27 22
18 8 6 12 70 86 84 84 89 94 97 101 105 113 117 119
120 124 127 126 124 117 111 109 108 107 103 99 97 97 96 95
88 61 4 7 6 12 12 12 12 20 26 28 25 7 10 11
9 10 19 28 26 22 28 29 28 28 27 28 28 29 28 28
29 28 28 28 28 27 26 28 46 49 48 48 48 48 48 48
10 8 11 15 17 17 19 19 20 20 21 21 22 22 22 23
23 23 23 22 23 22 23 24 23 23 22 21 21 20 21 22
22 20 23 23 25 26 26 26 26 25 26 26 26 26 24 21
11 3 5 11 73 89 87 86 93 96 94 99 105 114 121 125
124 127 129 128 123 117 110 109 110 111 107 103 101 99 96 96
87 52 4 6 5 11 11 11 13 21 26 27 21 7 0 0
0 0 1 21 21 11 22 29 29 30 29 29 29 29 29 28
28 29 28 28 27 27 27 27 47 48 48 48 48 48 47 48
9 8 10 13 15 16 17 18 19 21 21 21 22 22 22 21
21 21 21 20 20 20 23 24 23 23 23 22 22 20 21 23
23 21 23 24 24 25 25 25 25 25 25 24 28 29 28 22
11 6 6 13 80 94 90 84 93 96 95 99 105 113 122 127
130 130 130 130 126 121 113 109 111 111 108 107 103 99 97 94
87 48 3 7 5 12 9 9 14 23 23 24 19 13 0 0
0 0 0 16 15 9 20 27 27 27 27 27 27 27 27 27
27 27 26 26 25 25 25 26 47 47 47 47 47 47 47 47
2 3 4 4 6 8 9 11 10 10 10 9 7 6 5 5
9 15 16 18 20 21 23 23 23 23 23 22 21 19 21 22
23 22 22 23 23 24 24 24 24 24 24 25 29 34 29 24
16 12 7 13 80 101 95 84 92 96 95 96 102 113 123 129
129 129 129 128 127 122 114 112 113 110 109 107 105 100 96 94
84 46 1 4 7 12 9 12 17 20 23 20 14 13 0 0
0 0 7 16 14 13 24 27 26 27 26 26 26 26 27 26
25 25 24 24 24 24 22 27 47 47 46 46 47 47 46 46
0 0 0 0 0 2 7 10 11 12 14 12 11 9 1 0
5 18 20 21 22 22 22 22 23 22 22 22 21 21 21 23
24 23 23 23 23 24 24 24 25 24 26 26 34 34 23 21
22 17 11 14 80 104 101 87 90 95 95 95 103 114 127 131
130 131 130 129 128 124 114 112 111 110 109 107 106 101 99 96
84 45 1 2 9 13 9 12 17 18 19 17 16 13 1 0
0 0 1 2 3 13 25 26 26 27 26 26 26 26 26 25
25 25 24 24 23 23 21 28 47 47 47 47 46 46 46 46
0 0 0 0 0 14 31 32 33 32 33 32 32 32 13 2
8 17 20 21 21 22 22 23 23 23 22 22 22 21 21 23
23 23 23 22 23 23 24 24 24 26 25 30 35 32 16 19
23 19 12 18 80 104 106 90 90 95 95 95 103 115 129 130
130 130 129 129 128 123 115 110 109 111 109 108 106 101 99 96
83 43 3 0 11 11 13 12 14 16 16 14 18 15 1 0
0 0 0 0 0 7 21 22 26 26 27 26 26 26 26 26
25 24 24 24 23 22 21 31 47 46 46 46 46 46 47 46
0 0 0 1 2 15 34 34 36 35 34 33 40 43 29 12
14 16 18 20 21 22 23 23 23 23 23 23 24 23 23 23
23 24 23 22 23 23 24 24 26 26 28 31 33 24 13 21
24 20 17 20 76 103 106 94 88 93 95 94 102 114 129 131
130 131 130 130 127 121 115 109 108 106 107 107 108 104 102 96
82 43 3 1 8 12 17 13 15 16 14 13 20 11 1 0
0 0 0 0 0 6 18 18 25 26 26 26 26 25 26 25
25 24 24 24 24 23 21 34 48 46 47 46 46 46 46 45
0 0 7 13 14 17 36 39 41 40 41 40 43 43 34 18
17 14 16 19 21 22 25 24 25 25 25 25 24 24 24 23
22 22 23 22 22 22 24 24 24 25 29 30 27 19 12 19
22 19 20 17 75 103 105 99 95 95 95 91 99 111 124 131
130 131 130 129 125 118 114 107 106 109 109 109 110 107 101 97
81 40 1 2 5 24 16 14 15 15 13 15 15 1 0 0
0 0 0 0 0 2 16 17 24 26 26 26 26 26 26 25
25 23 20 18 18 18 17 35 46 47 46 46 46 46 46 45
5 7 12 14 16 16 26 29 29 29 28 28 28 28 24 17
16 15 16 15 14 14 26 23 24 24 24 24 24 24 24 24
23 23 24 23 23 23 23 24 24 26 27 26 24 17 13 17
18 18 20 11 75 103 105 103 99 94 93 92 100 109 120 129
132 131 131 129 124 117 113 108 108 107 108 109 111 111 102 96
81 36 0 1 14 29 21 20 19 16 14 12 2 0 0 0
0 0 0 0 0 1 15 16 23 25 25 24 25 25 25 25
23 18 3 0 0 1 1 22 34 35 36 37 38 38 39 40
11 11 12 13 12 14 15 16 17 19 21 22 23 23 18 8
8 9 9 9 9 11 25 24 23 24 24 25 25 24 24 23
22 23 23 23 23 22 23 23 26 27 27 25 23 16 13 12
14 16 15 9 75 100 105 107 106 95 93 96 103 111 118 126
131 131 130 128 125 118 114 109 107 107 107 109 114 114 105 95
80 33 0 1 20 28 27 21 19 19 15 1 0 0 0 0
0 0 0 0 0 1 14 16 20 24 25 25 25 25 25 24
22 11 0 0 0 0 0 0 0 1 1 2 3 3 4 5
9 6 2 2 2 2 1 1 1 11 21 22 23 23 18 9
9 9 9 9 9 11 24 23 21 22 22 22 22 22 23 22
22 23 23 23 23 23 23 23 24 26 25 29 21 13 12 11
12 16 12 8 76 100 107 111 109 98 95 97 104 112 119 123
127 131 131 130 126 122 115 111 108 107 107 111 115 114 106 95
79 35 0 3 15 33 31 27 31 21 4 1 0 0 0 0
0 0 0 0 6 11 15 15 20 24 24 24 24 24 25 24
21 8 0 0 0 0 0 0 0 0 0 0 0 0 0 0
9 2 0 0 0 0 0 0 1 11 21 22 22 23 17 7
7 7 8 7 7 9 23 24 21 21 21 21 21 20 21 20
20 22 23 23 23 23 23 23 26 26 32 30 20 14 13 10
10 11 6 11 77 99 108 113 113 102 95 98 104 113 121 125
126 129 129 129 127 121 113 109 108 109 111 115 116 112 106 94
77 31 1 4 13 34 39 38 33 12 11 3 1 0 0 7
6 0 0 1 14 16 17 20 23 24 24 24 24 22 23 23
21 24 27 23 16 13 11 9 8 6 4 3 2 1 1 0
9 6 3 4 5 6 9 11 14 18 21 22 23 23 20 12
13 14 16 18 15 9 20 24 21 20 21 20 20 20 20 19
20 22 23 23 23 23 23 22 25 32 35 30 23 16 11 9
10 9 3 15 78 99 110 116 117 107 97 99 103 112 120 126
127 130 130 130 127 121 114 110 108 108 112 117 118 112 105 95
77 28 4 13 19 33 43 41 26 20 17 9 6 0 0 7
12 0 0 1 13 14 18 24 24 24 24 24 24 23 24 23
22 42 48 48 47 46 46 45 44 43 41 40 39 36 34 32
11 11 12 14 15 17 19 20 22 25 26 26 26 28 27 24
25 26 26 25 24 23 25 23 21 20 21 20 21 20 20 19
20 21 23 22 22 22 23 25 30 34 40 33 21 15 11 12
10 6 3 17 80 100 108 116 119 111 101 102 104 112 121 127
130 131 130 130 128 120 114 111 108 108 115 121 118 112 105 95
75 28 12 26 34 36 48 43 32 25 20 15 7 5 4 8
18 4 0 1 13 13 17 21 22 23 24 23 23 23 23 21
22 45 48 48 48 47 48 48 47 47 48 47 47 47 46 46
18 18 18 21 20 18 19 19 21 25 22 22 24 25 27 25
24 26 27 30 30 32 32 26 21 21 20 20 20 20 24 26
26 25 22 22 23 23 26 28 30 38 36 30 26 24 18 11
8 4 6 32 81 100 109 117 120 114 105 102 103 111 120 126
131 131 131 130 126 121 113 112 108 111 117 121 118 111 105 96
78 28 8 28 27 32 42 42 35 26 24 23 10 3 4 16
9 6 0 1 7 3 3 4 6 13 20 22 23 22 22 21
24 46 48 48 48 48 49 48 48 48 47 48 47 46 46 45
14 15 16 19 20 19 21 22 24 26 27 28 29 31 32 29
26 23 24 29 32 34 36 35 32 29 24 21 20 21 34 40
40 33 22 23 22 22 23 28 35 38 41 32 25 19 14 11
10 10 57 82 81 100 109 116 121 117 110 102 104 112 121 128
131 131 131 130 127 120 113 111 108 112 120 121 116 111 103 96
79 31 16 26 18 25 38 41 43 33 24 22 22 7 5 9
1 0 2 0 0 2 4 5 3 1 3 12 20 22 22 20
27 47 48 48 48 48 48 48 48 47 48 47 47 46 46 45
21 21 21 22 22 23 23 24 25 27 28 29 31 31 32 34
34 29 27 29 31 33 36 36 35 34 32 23 17 17 34 43
44 35 21 21 19 22 22 31 39 37 27 24 20 17 14 12
25 70 119 43 83 101 109 117 120 121 117 104 104 110 118 126
130 131 131 129 125 116 111 108 110 118 123 122 115 109 102 96
79 41 26 36 20 12 25 41 47 41 34 28 26 20 3 4
0 0 2 1 8 12 11 10 9 8 1 0 8 19 22 18
30 48 48 48 48 47 48 47 48 48 48 47 47 46 45 45
22 21 23 22 23 24 24 24 26 27 29 30 31 32 32 33
32 32 30 28 28 26 23 21 21 19 17 16 16 15 19 21
21 19 18 20 23 22 25 40 43 33 29 26 20 17 30 83
123 126 108 33 87 101 109 119 123 124 121 109 105 110 117 126
130 130 130 127 120 113 109 109 114 122 124 121 115 109 102 96
83 78 46 48 47 27 16 31 52 56 45 30 27 27 18 7
4 2 3 11 12 10 14 19 16 13 4 0 0 9 20 18
34 48 48 48 47 47 48 47 47 47 47 47 47 46 45 44
11 11 13 13 13 13 14 14 15 16 16 16 15 14 13 11
11 8 7 6 5 3 1 3 9 10 10 10 9 8 7 5
4 4 16 21 25 24 29 39 35 31 31 27 31 61 116 134
133 130 92 49 89 100 109 119 124 125 124 114 107 110 114 121
127 130 127 122 117 112 111 111 118 125 125 121 114 108 102 95
84 52 92 70 64 50 31 20 40 55 54 37 29 30 28 21
12 10 11 9 13 31 36 28 22 20 16 5 0 0 11 16
37 48 48 47 47 47 48 47 47 48 47 47 46 46 44 44
0 0 0 0 0 0 0 0 0 0 0 0 0 0 0 0
0 0 0 0 0 0 0 0 0 0 0 0 0 0 0 0
4 10 19 21 24 24 32 42 31 27 29 59 123 133 135 134
133 132 90 64 92 100 110 119 124 126 127 118 109 111 115 116
120 123 120 118 116 115 113 114 121 128 126 121 114 109 102 95
83 29 89 103 97 85 58 35 31 39 48 48 41 34 31 23
18 15 23 27 49 66 24 21 20 14 15 14 4 0 2 14
40 49 49 48 48 47 47 47 47 47 47 46 46 45 45 44
0 0 0 0 0 0 0 0 0 0 0 0 0 0 0 0
0 0 0 0 0 0 0 0 0 0 0 0 0 0 0 0
12 18 19 20 22 25 29 46 30 27 79 133 134 133 134 134
133 133 98 75 95 102 112 119 125 127 129 122 113 113 116 117
120 121 120 120 118 115 115 117 125 129 126 120 116 110 104 96
83 38 66 128 130 128 126 100 73 50 43 47 53 48 40 35
35 40 39 56 80 42 16 14 20 11 14 17 12 0 0 8
42 47 48 47 47 47 47 47 47 47 46 46 46 45 45 44
0 0 0 0 0 0 0 0 0 0 0 0 0 0 0 0
0 0 0 0 0 0 0 0 0 0 0 0 0 0 0 1
14 20 20 21 22 24 28 61 85 113 134 134 135 134 134 134
134 133 112 78 98 103 113 119 124 126 129 127 117 114 117 119
121 122 122 121 118 114 114 120 127 129 125 120 116 112 106 98
85 49 59 132 131 130 129 122 106 107 62 49 42 57 61 46
43 45 49 65 53 26 20 16 15 15 15 18 16 8 0 5
43 47 48 48 47 48 48 47 47 46 46 46 45 45 44 44
0 0 0 0 0 0 0 0 0 0 0 0 0 0 0 0
0 0 0 0 0 0 0 0 0 0 0 1 2 3 5 9
16 21 21 22 30 67 111 135 134 135 134 134 134 133 134 134
133 133 125 82 101 107 113 118 124 126 128 130 122 116 117 118
120 122 121 120 119 116 118 126 129 128 123 121 118 115 109 101
87 47 58 132 130 129 125 109 97 92 81 68 72 67 66 56
52 46 48 48 33 15 14 13 13 14 14 15 16 13 0 7
44 47 47 47 46 47 48 47 46 47 46 46 46 45 45 44
0 0 0 0 0 0 0 0 0 0 0 0 0 0 0 0
0 0 0 0 0 0 1 1 5 9 12 15 18 19 21 21
21 22 26 61 117 135 134 134 134 134 134 134 134 134 135 134
134 134 133 85 104 110 115 118 122 125 126 130 125 120 120 118
119 121 122 122 119 116 122 129 129 127 122 122 120 115 111 103
90 37 64 133 130 129 128 123 110 110 102 95 98 106 110 96
73 60 48 34 18 8 7 4 3 4 3 3 4 3 0 10
45 46 47 47 46 46 47 47 46 45 46 45 45 43 44 43
0 0 0 0 0 0 0 0 0 0 0 0 0 0 0 0
0 0 0 0 0 6 11 9 17 20 21 21 21 20 21 22
37 65 106 131 134 134 135 134 134 134 134 134 134 134 134 133
134 134 134 93 106 113 118 122 123 125 126 129 130 123 120 118
119 122 121 120 118 120 127 130 128 123 122 124 121 119 114 106
91 27 76 132 130 129 129 128 122 126 125 118 120 120 119 120
122 119 100 61 17 7 5 3 4 4 3 2 3 2 0 15
46 46 45 45 46 46 46 46 46 45 45 44 44 43 43 42
0 0 0 0 0 0 0 0 0 0 0 0 0 0 0 0
0 0 0 0 0 9 13 11 17 18 19 20 23 39 71 106
127 132 134 134 134 134 134 134 134 133 134 134 134 133 134 134
134 134 133 110 94 117 121 123 125 126 127 128 130 127 123 121
120 121 121 120 118 123 129 130 126 120 124 125 124 121 117 110
89 20 94 132 130 129 128 128 127 123 126 127 126 126 126 126
126 126 125 122 113 70 24 3 3 4 3 2 2 1 0 22
46 46 46 46 45 45 45 45 45 44 44 43 43 42 42 41
0 0 0 0 0 0 0 0 0 0 0 0 0 0 0 0
0 0 0 0 1 14 16 15 19 21 41 80 110 127 132 134
134 134 134 134 134 134 134 134 134 134 134 134 134 133 134 134
133 133 133 128 73 121 123 125 127 129 129 129 131 129 124 121
119 120 122 120 121 126 130 130 127 124 127 129 126 124 119 112
77 17 112 130 129 129 127 127 127 126 126 126 127 127 126 125
126 125 125 125 124 124 118 91 46 12 4 3 2 1 1 28
46 44 45 44 45 44 45 44 45 44 44 43 43 42 42 42
0 0 0 0 0 0 0 0 0 0 0 0 0 0 0 0
0 0 0 0 3 18 18 25 61 101 127 134 134 134 134 134
134 135 134 135 134 134 134 134 133 133 133 134 134 134 134 134
134 134 133 133 76 105 128 125 127 127 128 130 131 130 126 121
121 120 121 121 124 127 130 129 127 126 128 127 126 121 118 113
51 31 126 129 129 128 128 127 127 126 127 126 126 127 125 125
125 124 124 124 124 123 124 123 121 103 60 21 4 3 1 32
46 45 45 45 45 44 45 44 44 44 43 43 42 41 41 40
0 0 0 0 0 0 0 0 0 0 0 0 0 0 0 0
0 1 16 4 5 41 86 120 132 134 134 134 134 134 135 134
134 134 134 134 133 133 134 134 134 134 134 134 133 133 134 134
133 133 133 132 112 56 127 129 129 128 128 130 131 130 128 123
121 120 121 122 125 127 129 129 127 127 127 127 126 121 119 101
21 62 130 128 129 128 127 127 127 126 127 126 126 126 125 124
125 124 124 123 124 123 123 123 123 123 122 112 74 23 3 37
46 46 45 44 45 44 44 44 44 43 43 43 42 41 41 40
0 0 0 0 0 0 0 0 0 0 0 0 0 0 0 0
0 1 24 24 75 126 134 134 134 133 134 134 135 135 135 134
134 134 134 133 133 134 133 133 134 133 133 132 133 133 133 133
133 133 133 133 131 54 91 131 130 128 125 129 131 131 129 124
121 121 123 122 127 129 128 127 126 126 127 127 125 121 117 59
16 96 130 129 128 127 127 127 126 126 126 125 125 125 125 124
124 124 124 124 124 124 123 123 123 122 122 122 122 111 62 41
46 46 46 45 45 45 45 45 44 44 44 43 42 41 41 40
0 0 0 0 0 0 0 0 0 0 0 0 0 0 0 0
0 1 39 108 132 134 135 134 134 134 135 134 134 134 134 134
134 133 134 134 133 133 133 133 134 133 133 133 133 132 133 133
133 133 132 132 132 100 31 116 131 129 124 128 131 130 130 128
123 121 122 122 127 129 128 128 126 127 128 127 126 123 89 19
30 122 129 128 127 127 127 127 126 126 126 125 126 125 125 125
125 125 124 124 123 124 123 123 123 123 122 122 122 122 120 92
53 46 46 45 45 45 44 45 44 44 43 43 42 42 41 41
0 0 0 0 0 0 0 0 0 0 0 0 0 0 0 0
0 24 106 134 134 134 134 134 134 134 134 134 134 134 134 135
135 134 135 134 134 133 133 133 133 133 133 133 133 133 133 133
133 133 133 133 132 131 43 46 125 131 125 125 130 130 130 129
127 124 125 126 127 129 129 128 128 128 128 127 127 106 31 16
68 131 128 128 128 128 127 127 126 126 126 125 126 126 125 125
125 124 124 124 124 124 124 123 123 123 122 123 123 122 122 121
101 54 46 46 45 45 45 45 45 44 43 43 42 42 41 40
0 0 0 0 0 0 0 0 0 0 0 0 0 0 0 0
38 117 128 134 135 134 134 134 134 134 134 134 134 134 134 134
135 134 134 133 133 133 134 134 134 133 133 133 134 133 134 133
132 132 132 133 132 131 94 17 55 126 127 124 131 131 130 130
129 128 128 127 127 129 128 128 129 129 128 128 115 39 14 24
114 129 128 128 128 127 127 127 127 126 126 126 126 126 125 125
125 125 124 124 124 124 124 123 123 123 123 123 123 123 123 123
120 89 49 46 46 45 45 45 45 44 44 43 43 42 42 41
0 0 0 0 0 0 0 0 0 0 0 0 0 0 0 34
127 133 132 134 135 135 134 134 134 134 133 134 134 134 134 134
134 134 134 134 133 133 133 133 133 133 133 133 133 132 132 133
133 133 133 133 132 133 129 43 16 50 117 125 130 130 130 130
130 130 130 127 127 129 129 128 128 127 128 114 40 14 17 63
131 130 130 129 129 128 127 127 127 127 127 126 126 125 125 125
125 125 125 124 124 124 124 124 124 123 124 123 123 123 123 122
122 114 72 45 46 45 45 44 45 45 44 43 43 42 41 40
0 0 0 0 0 0 0 0 0 0 0 0 0 0 14 116
135 133 133 134 134 134 134 134 134 134 133 134 134 134 133 134
133 134 133 134 134 133 133 133 133 133 132 133 133 133 133 133
132 132 132 132 131 132 131 103 17 16 37 98 130 131 130 130
130 130 129 125 128 129 129 128 128 128 102 32 14 15 27 117
130 129 129 129 128 127 128 127 127 127 127 127 127 127 127 126
126 125 125 125 124 124 124 124 124 124 124 123 123 123 123 123
123 121 98 52 45 45 44 44 44 44 43 43 42 41 41 41
0 0 0 0 0 0 0 0 0 0 0 0 0 0 74 137
135 134 135 134 134 134 135 134 134 134 134 134 134 134 134 135
134 134 134 133 133 134 133 133 133 133 133 133 132 133 133 132
132 132 132 133 132 132 132 131 62 15 16 19 58 117 131 130
130 130 129 126 130 130 130 130 122 71 20 14 15 18 79 132
130 130 129 129 128 128 128 128 128 128 127 127 128 127 127 127
125 125 126 126 125 125 125 125 125 125 125 124 124 124 123 123
123 123 112 72 45 45 45 45 44 44 43 43 42 41 40 40
0 0 0 0 0 0 0 0 0 0 0 0 0 22 127 136
135 134 134 134 134 135 134 134 134 135 134 134 134 134 134 134
134 134 134 134 134 133 133 133 133 133 133 132 133 133 133 133
132 132 132 132 132 132 132 130 123 33 16 15 16 25 65 105
128 130 129 126 130 130 120 83 33 15 15 17 17 43 128 130
130 130 130 129 129 129 128 127 128 128 128 128 129 128 127 128
127 127 127 127 126 126 126 126 125 126 125 124 125 124 124 124
124 124 118 96 53 45 45 44 44 44 43 42 42 41 40 39
0 0 0 0 0 0 0 0 0 0 0 0 0 80 137 136
135 134 134 135 134 134 134 134 135 134 134 134 134 134 134 134
134 134 133 134 133 133 133 133 133 133 133 133 133 132 132 132
132 132 132 132 132 132 132 131 131 104 19 15 16 16 16 17
26 41 49 54 54 39 21 15 15 15 15 16 33 116 131 131
130 130 131 130 130 130 129 128 129 129 129 129 129 129 129 128
129 129 128 129 129 128 128 127 127 127 127 126 126 127 126 125
125 125 123 110 80 46 46 45 45 44 43 43 42 41 40 39
0 0 0 0 0 0 0 0 0 0 0 0 13 124 137 135
135 134 134 134 134 133 134 134 134 134 134 134 135 134 134 134
134 134 133 134 133 133 133 133 133 132 133 133 133 133 133 132
133 133 132 132 132 131 132 131 131 131 85 16 16 16 16 16
15 16 15 15 14 14 15 14 14 14 16 28 111 131 130 130
130 130 131 131 130 129 128 128 128 129 129 129 130 130 129 130
130 129 129 128 128 128 128 127 127 126 127 127 126 126 126 125
125 125 124 117 115 67 45 45 44 43 43 42 41 40 40 39
0 0 0 0 0 0 0 0 0 0 0 0 43 136 135 135
135 135 135 135 135 135 135 135 134 134 133 134 134 134 134 134
134 134 134 133 133 133 133 133 134 133 133 133 133 133 132 133
132 132 132 132 132 132 132 132 132 131 131 75 18 16 15 15
15 15 15 15 14 14 13 14 14 16 37 114 131 130 129 130
130 130 131 131 130 129 129 129 129 128 128 129 130 130 129 129
129 128 128 128 128 128 128 128 127 127 127 127 126 125 125 124
125 124 124 120 122 112 58 44 44 43 42 42 41 40 40 38
13 10 11 11 12 11 10 8 5 3 1 0 76 138 136 135
135 134 135 134 134 134 134 134 133 134 134 134 135 134 134 134
134 133 134 133 133 133 133 133 133 133 133 133 133 133 133 132
133 133 132 132 132 132 131 131 131 130 131 130 96 26 15 15
15 14 15 15 14 13 13 14 16 54 123 131 130 131 130 130
130 131 131 131 130 128 129 129 129 128 128 128 129 128 129 129
128 128 128 127 127 127 127 127 126 127 126 126 126 125 125 125
125 125 124 122 122 122 100 49 43 42 42 41 40 39 38 38
18 17 18 17 19 20 22 22 23 24 22 20 105 137 135 135
135 134 135 135 135 134 135 134 133 134 134 133 133 133 134 133
133 133 134 133 133 133 133 133 133 133 133 133 133 133 132 132
133 133 132 132 132 132 132 132 131 131 130 130 130 120 66 23
14 14 14 14 14 13 15 39 92 131 131 130 131 130 130 130
129 130 130 130 130 128 129 129 129 128 128 128 129 128 127 127
127 127 127 126 126 125 125 125 125 125 124 124 125 124 124 123
123 123 123 123 122 122 118 78 44 43 42 41 40 39 38 37
18 17 16 17 20 22 21 21 20 22 25 32 119 135 134 134
134 134 134 134 133 133 134 134 134 134 134 133 133 134 133 133
133 133 133 133 132 132 132 133 132 132 132 132 132 132 132 132
132 132 131 131 131 131 131 130 131 130 131 130 130 130 130 125
100 76 63 60 67 85 112 128 129 128 129 128 127 126 127 126
126 126 126 126 126 126 126 126 125 125 124 124 124 124 124 124
124 124 124 124 123 123 123 123 123 122 122 122 122 122 121 122
122 121 121 121 121 120 118 105 56 41 40 39 39 39 37 36
