P2
128 120
127
0 0 0 0 0 0 0 0 0 0 0 0 0 0 0 0
0 0 0 0 0 0 0 0 0 0 0 0 0 0 0 0
0 0 0 0 0 0 0 0 0 0 0 0 0 0 0 0
0 0 0 0 0 0 0 0 0 0 0 0 0 0 0 0
0 0 0 0 0 0 0 0 0 0 0 0 0 0 0 0
0 0 0 0 0 0 0 0 0 0 0 0 0 0 0 0
0 0 0 0 0 0 0 0 0 0 0 0 0 0 0 0
0 0 0 0 0 0 0 0 0 0 0 0 0 0 0 0
0 0 0 0 0 0 0 0 0 0 0 0 0 0 0 0
0 0 0 0 0 0 0 0 0 0 0 0 0 0 0 0
0 0 0 0 0 0 0 0 0 0 0 0 0 0 0 0
0 0 0 0 0 0 0 0 0 0 0 0 0 0 0 0
0 0 0 0 0 0 0 0 0 0 0 0 0 0 0 0
0 0 0 0 0 0 0 0 0 0 0 0 0 0 0 0
0 0 0 0 0 0 0 0 0 0 0 0 0 0 0 0
0 0 0 0 0 0 0 0 0 0 0 0 0 0 0 0
0 0 0 0 0 0 0 0 0 0 0 0 0 0 0 0
0 0 0 0 0 0 0 0 0 0 0 0 0 0 0 0
0 0 0 0 0 0 0 0 0 0 0 0 0 0 0 0
0 0 0 0 0 0 0 0 0 0 0 0 0 0 0 0
0 0 0 0 0 0 0 0 0 0 0 0 0 0 0 0
0 0 0 0 0 0 0 0 0 0 0 0 0 0 0 0
0 0 0 0 0 0 0 0 0 0 0 0 0 0 0 0
0 0 0 0 0 0 0 0 0 0 0 0 0 0 0 0
0 0 0 0 0 2 8 7 5 5 5 5 5 5 5 5
5 5 5 5 5 5 5 5 4 4 4 4 4 4 4 4
4 4 4 4 4 4 4 4 3 3 3 3 3 3 3 3
3 3 3 3 3 3 3 3 4 3 3 3 2 3 2 3
3 3 3 3 3 4 3 3 3 2 3 2 3 3 3 7
7 7 7 7 8 7 7 8 8 7 8 8 8 8 8 8
8 8 8 8 9 9 9 9 9 9 9 9 10 9 10 10
10 10 10 10 10 10 10 10 11 10 10 10 10 10 10 10
0 0 0 0 0 4 16 13 11 11 11 11 10 10 10 10
10 10 10 10 10 9 10 9 9 9 9 9 9 9 8 8
8 8 8 8 8 8 7 7 7 7 7 6 7 6 7 6
6 5 5 5 5 5 6 7 7 7 8 5 4 6 5 6
7 7 6 6 7 6 5 6 6 5 5 6 6 6 7 7
7 7 7 7 7 7 7 7 7 7 7 8 8 8 8 8
8 8 8 8 8 8 9 9 9 9 9 9 10 9 10 9
9 10 10 10 10 10 10 10 9 9 10 10 10 10 9 10
0 0 0 0 0 3 15 13 10 11 10 10 10 10 10 10
10 10 10 10 10 9 9 9 9 9 8 8 8 8 8 8
8 8 8 7 7 8 8 7 7 7 7 6 6 6 6 6
6 6 6 6 5 5 6 6 7 7 8 5 4 6 5 5
6 7 7 6 6 6 6 6 6 5 6 5 7 6 7 7
7 7 7 7 7 8 7 7 8 7 8 7 8 7 7 8
8 8 8 9 8 9 9 9 9 9 9 9 9 9 10 10
9 10 10 10 10 10 10 9 10 10 10 10 9 10 10 10
0 0 0 0 0 4 15 12 10 10 11 11 11 10 10 10
10 10 10 10 10 10 9 9 9 9 9 9 9 9 9 8
8 8 7 7 7 7 7 7 7 7 7 7 7 6 7 6
6 6 5 6 5 6 6 7 8 8 8 6 5 7 7 5
7 7 7 7 7 6 6 6 6 5 5 6 7 7 7 7
8 8 7 8 8 7 8 7 7 7 8 8 8 8 8 9
9 9 9 9 8 9 9 9 9 9 9 9 9 9 10 10
9 9 9 9 9 9 10 10 10 10 10 10 10 10 10 10
8 5 3 1 1 8 15 12 11 11 10 10 10 10 10 10
10 10 10 10 10 10 9 9 9 9 9 9 9 9 8 8
8 8 8 8 8 8 8 7 7 7 7 7 7 7 6 6
6 6 6 6 6 6 6 8 8 8 8 6 4 7 7 5
7 7 7 7 7 6 6 7 6 5 6 6 7 7 7 7
7 8 7 8 7 7 8 8 8 8 8 8 8 8 9 8
9 8 9 9 9 9 9 9 9 9 9 9 9 9 9 9
10 9 10 10 10 10 10 10 10 10 10 10 10 10 10 10
7 9 11 10 11 11 14 12 10 11 10 11 11 10 10 10
10 10 10 10 9 9 9 9 9 9 9 9 9 9 9 8
8 8 8 8 7 7 8 7 7 7 7 7 7 7 7 6
6 6 6 6 6 6 6 7 8 8 8 6 5 7 8 5
8 7 7 7 7 6 6 6 6 5 6 6 7 7 8 8
8 8 8 8 8 8 8 8 8 8 8 8 8 9 8 8
9 9 9 9 9 9 9 9 9 9 9 10 10 10 10 9
10 10 10 10 10 10 10 10 10 10 10 10 10 10 10 10
4 6 8 9 10 10 11 11 11 11 10 11 10 10 10 10
10 10 10 10 10 9 9 9 9 9 9 9 8 9 8 8
8 8 8 8 8 8 8 8 8 7 7 7 7 7 7 6
6 6 6 6 6 6 6 8 8 8 8 6 4 8 8 4
8 7 7 7 7 6 7 7 6 5 6 6 7 7 7 8
8 8 8 8 8 8 8 9 9 9 8 8 8 8 8 8
8 8 8 9 9 9 10 9 9 10 10 10 10 10 10 10
10 10 10 10 10 10 10 10 10 10 10 10 10 10 10 10
1 1 2 3 4 7 9 10 11 10 11 11 11 11 10 10
10 10 10 9 10 10 10 9 9 10 9 9 9 9 9 8
8 8 8 8 8 8 8 8 7 7 7 8 7 7 7 7
7 7 6 6 6 6 7 8 8 8 8 6 5 8 9 4
7 8 7 7 7 6 6 6 6 5 6 6 7 8 8 8
8 8 8 8 8 8 8 8 9 8 8 8 8 9 9 8
9 9 9 9 9 9 9 9 9 10 10 10 10 10 10 10
10 10 10 10 10 10 11 10 9 10 10 10 10 10 10 10
1 1 1 1 1 2 2 3 5 7 8 10 10 10 10 10
10 9 10 10 10 10 10 9 9 9 9 9 9 9 8 8
8 8 8 8 8 8 8 8 7 7 7 7 7 6 6 6
6 6 6 6 6 6 7 8 9 9 8 6 5 8 9 4
7 8 7 7 7 7 7 7 7 6 6 6 8 8 7 7
8 7 8 8 8 8 8 8 9 8 9 9 9 9 9 9
9 9 9 9 9 9 9 10 10 10 10 10 10 10 10 10
10 10 9 10 10 10 10 9 10 10 10 10 10 10 10 10
3 3 2 2 1 1 1 1 2 1 2 3 4 6 8 9
10 10 10 10 10 9 9 9 9 9 9 9 9 9 9 8
8 9 8 8 8 8 8 7 8 8 8 8 7 7 7 7
7 7 7 7 7 7 7 8 8 8 8 6 5 8 9 4
7 8 8 8 8 7 7 7 7 5 6 6 8 8 8 8
8 8 8 8 8 8 8 8 9 8 8 9 9 9 9 9
9 9 10 10 10 10 10 10 10 10 10 10 10 10 10 10
10 10 10 10 10 10 10 10 10 10 10 10 10 10 10 10
12 15 13 11 9 5 2 2 2 1 2 2 2 0 0 3
10 10 10 10 10 10 10 10 10 9 9 9 9 9 9 9
9 8 8 8 8 8 8 8 8 8 8 8 8 7 7 7
7 7 7 7 7 7 7 8 9 9 9 6 5 9 10 5
7 8 8 8 7 7 7 7 7 6 7 7 8 8 8 8
8 9 9 8 8 9 9 9 10 9 9 9 9 9 9 9
9 9 9 9 9 10 10 10 10 10 10 10 11 10 10 10
10 10 11 10 10 10 11 10 10 10 10 10 10 10 10 10
14 15 16 15 15 9 6 7 6 3 1 1 2 0 0 3
10 10 10 10 10 10 9 9 9 9 9 9 9 9 9 9
9 9 9 8 8 8 8 8 8 8 7 7 7 7 7 7
8 7 7 7 7 7 7 9 8 8 8 6 5 9 10 6
6 8 7 8 8 7 7 7 7 6 7 7 8 8 8 8
8 8 9 9 9 9 9 9 9 9 9 9 9 9 9 9
10 10 10 10 10 10 10 10 10 10 10 10 10 10 10 10
10 10 10 10 10 11 11 10 10 10 10 10 10 10 10 10
13 13 16 17 16 10 9 12 13 11 11 10 6 1 1 2
9 10 10 10 10 9 10 10 10 10 10 9 9 9 9 9
9 9 9 9 8 8 9 10 9 9 8 8 7 7 7 7
7 7 7 7 7 7 7 9 9 9 9 6 6 9 10 6
6 9 8 8 8 7 7 7 7 6 7 8 8 8 8 8
9 8 8 8 8 8 9 9 9 9 9 9 9 9 9 9
10 9 9 9 10 10 10 10 10 10 10 10 10 10 10 10
10 10 10 10 10 10 10 10 10 10 10 10 10 10 10 9
2 5 8 12 15 11 11 12 13 12 15 15 15 6 1 4
9 10 10 10 10 10 14 13 12 11 10 10 9 9 9 9
9 9 9 9 9 9 11 14 12 11 10 9 8 7 7 7
8 7 7 7 7 7 7 9 9 9 8 6 5 9 10 7
5 9 8 8 8 8 8 8 8 7 7 7 8 8 9 8
8 9 9 9 9 9 9 9 9 9 9 9 9 9 9 9
9 10 10 10 10 10 10 10 10 10 10 10 10 10 10 10
10 10 10 10 10 10 9 8 9 9 10 9 10 11 11 11
0 0 0 0 6 12 12 14 14 14 15 16 16 7 1 4
11 10 10 10 9 11 15 14 13 12 12 11 12 10 9 9
9 9 8 8 8 9 11 13 12 11 12 12 9 7 8 8
7 7 7 7 7 7 8 9 9 9 9 6 5 9 10 7
5 8 8 8 8 8 7 7 7 7 7 7 8 8 9 8
9 9 9 9 9 9 9 9 10 9 9 10 9 9 10 9
9 9 9 10 10 9 10 10 9 10 10 10 10 10 10 10
10 10 10 10 10 10 10 10 10 10 10 9 9 10 10 10
0 0 1 0 6 11 12 12 13 14 15 15 15 8 1 6
12 11 11 11 10 10 14 14 13 12 13 14 14 11 12 12
11 9 8 9 9 8 10 10 11 11 11 11 10 7 8 8
8 8 8 7 7 7 7 9 9 9 9 6 5 8 10 8
5 9 9 8 8 8 8 7 8 7 7 7 8 8 8 8
9 9 9 9 9 9 10 9 10 10 9 9 9 9 10 10
10 10 9 10 9 9 9 9 10 10 9 10 9 10 10 10
10 10 10 10 10 10 10 10 10 10 10 10 9 9 10 10
0 0 2 0 7 8 2 6 9 13 14 14 14 7 1 5
12 10 10 11 12 13 5 2 7 12 13 14 14 8 4 7
10 11 10 11 10 9 8 3 2 3 5 8 10 8 8 7
7 7 7 7 7 7 7 9 9 9 8 4 4 3 10 8
5 8 9 8 8 8 7 8 8 7 8 8 8 8 9 9
8 9 9 9 9 9 9 9 9 9 9 9 9 10 10 10
9 9 9 10 10 9 10 9 10 10 10 10 10 10 10 10
10 9 9 10 10 10 9 10 9 10 10 9 10 9 10 10
0 0 0 0 7 7 0 0 0 0 3 4 9 8 1 5
12 12 10 9 13 14 4 0 0 1 3 4 9 6 0 0
0 2 3 7 10 10 9 1 0 0 0 0 6 9 8 8
8 8 7 7 7 7 8 9 9 9 8 3 4 5 10 9
5 8 9 9 8 9 8 8 8 7 7 7 8 9 9 9
10 9 9 9 9 9 9 9 9 9 9 9 10 9 9 10
9 10 10 9 10 10 10 10 10 10 10 10 10 9 10 10
10 10 10 10 10 10 10 10 10 10 10 10 10 10 10 10
0 0 0 0 8 6 0 0 0 0 0 0 4 8 2 1
2 4 8 12 14 15 5 0 0 0 0 1 6 6 0 0
0 0 0 0 0 4 9 1 0 0 0 0 6 8 8 8
8 8 8 8 8 8 8 10 10 10 10 7 6 9 10 9
5 8 9 8 8 9 8 8 8 8 8 8 9 9 9 10
10 9 9 9 9 10 9 10 10 9 10 10 10 10 10 10
10 10 10 10 10 10 10 10 9 10 10 10 10 10 10 10
10 10 10 10 10 10 10 10 10 10 10 10 10 10 10 10
0 1 0 0 9 5 0 0 0 0 0 0 5 8 2 0
0 0 0 0 3 6 4 0 0 0 0 0 5 6 0 0
0 0 0 0 0 3 9 0 0 0 0 0 7 9 8 8
8 8 8 8 8 8 9 10 10 10 10 7 6 10 11 9
6 8 10 8 9 9 8 8 8 7 8 7 8 9 10 9
9 10 9 10 10 10 10 10 10 10 10 10 10 10 10 11
10 10 10 10 10 11 10 10 10 10 10 10 10 10 10 11
10 10 10 10 10 10 10 10 11 11 10 10 10 10 10 10
0 4 0 0 9 5 0 0 1 0 0 0 6 7 2 0
0 0 0 0 0 0 2 0 0 0 0 0 5 5 0 0
0 0 0 0 0 3 8 0 0 0 0 0 8 9 9 8
8 8 8 8 8 9 9 10 10 10 10 7 7 11 12 10
7 7 10 10 10 9 10 9 7 6 7 7 8 7 8 9
10 10 10 10 10 10 10 10 10 10 10 10 10 10 10 11
10 11 10 10 10 10 10 10 10 10 11 10 10 10 10 11
11 10 10 10 10 10 10 10 10 10 10 11 10 10 10 10
0 0 0 0 11 4 0 0 0 2 0 0 7 7 2 0
0 0 0 0 0 0 2 0 0 0 0 0 8 5 0 0
0 1 0 0 0 3 7 0 0 0 0 0 9 10 9 9
9 9 9 9 9 9 9 10 11 11 11 8 8 12 11 10
9 8 11 12 13 10 7 6 5 5 6 5 4 4 4 6
9 10 10 10 10 10 10 11 10 11 11 10 11 10 11 11
11 11 11 11 11 11 11 11 11 11 11 10 11 11 11 11
11 10 11 11 11 11 11 11 11 11 11 11 10 11 11 11
0 0 0 0 10 3 0 0 0 0 0 0 8 6 2 0
0 0 0 0 0 0 1 0 0 0 0 0 8 6 0 0
0 1 2 1 0 3 7 0 0 0 0 0 9 11 9 10
9 9 9 9 9 9 10 11 12 11 11 8 9 12 13 13
12 11 13 12 9 7 8 6 7 8 8 6 7 4 3 5
6 10 11 10 11 10 10 10 11 11 11 11 11 11 11 11
11 11 11 11 11 11 11 11 11 11 11 11 11 11 11 11
11 11 11 11 11 11 11 10 11 11 11 11 11 11 11 11
1 0 0 0 10 2 0 0 0 0 0 0 8 5 2 0
0 0 0 0 0 0 1 0 0 0 0 0 8 6 0 0
0 2 2 2 0 3 7 0 0 0 0 0 8 10 9 9
9 9 9 9 9 10 10 11 11 11 11 8 10 11 14 14
13 14 11 10 8 9 11 10 9 8 10 9 6 6 4 5
5 7 8 10 10 11 11 11 11 11 11 11 11 11 11 11
11 11 11 11 11 11 11 11 11 11 11 11 11 11 11 11
11 10 10 11 11 11 11 11 11 11 11 11 11 11 11 10
15 14 11 8 12 4 0 0 0 0 0 0 9 5 3 0
0 0 0 0 0 0 1 0 0 0 0 0 9 6 0 0
0 0 1 1 0 3 8 0 0 0 0 0 8 10 9 9
9 9 9 9 9 9 9 11 11 11 11 8 10 13 15 14
13 9 9 7 6 7 9 12 11 11 11 13 11 8 7 7
4 5 5 6 7 9 10 11 10 11 11 10 11 11 11 12
11 11 11 11 11 11 11 11 11 11 11 11 11 11 11 10
11 11 11 11 11 11 11 11 11 11 11 11 11 11 11 11
7 9 11 14 15 18 10 8 9 9 6 4 11 4 2 0
0 0 0 0 0 0 4 0 0 0 0 1 10 11 3 1
0 0 0 1 0 3 13 12 9 6 4 4 10 10 9 9
9 9 9 9 9 10 10 12 12 11 11 9 12 14 14 12
11 8 8 7 6 6 8 6 10 13 13 15 13 11 10 12
11 8 5 4 6 8 8 11 11 11 11 11 11 11 11 11
11 11 11 11 11 11 11 11 11 11 11 11 11 10 11 12
11 11 11 12 11 11 11 11 11 11 11 11 11 11 11 10
1 0 0 10 20 18 9 11 14 16 15 15 13 4 3 0
0 0 0 0 0 1 15 13 9 8 6 3 10 14 9 9
10 8 4 3 2 4 14 14 13 13 14 16 15 10 10 10
9 10 9 9 9 10 10 11 11 11 10 12 14 13 12 12
10 9 8 7 6 5 3 3 3 11 13 15 13 9 9 14
19 15 9 5 6 6 6 9 9 11 11 11 11 11 11 11
11 11 11 11 11 11 11 11 11 11 11 11 11 11 12 12
11 11 11 11 11 10 11 11 11 11 11 11 11 10 11 11
0 0 0 11 19 15 9 12 15 15 16 16 14 3 3 0
0 0 0 0 0 2 17 14 15 16 17 15 16 11 2 2
3 5 6 7 10 12 13 11 12 13 15 16 15 11 9 9
9 9 9 9 10 10 10 12 11 11 12 12 9 9 10 11
11 10 6 4 5 6 6 0 1 8 8 13 13 7 4 8
12 14 15 9 10 7 8 5 6 7 12 11 11 11 11 11
11 11 11 11 11 11 12 11 11 11 11 11 10 11 11 11
10 11 11 11 10 11 11 11 11 11 11 11 11 11 11 11
0 0 0 11 17 9 1 4 7 9 12 14 14 3 3 7
8 5 2 0 0 2 15 12 15 16 17 15 12 8 3 2
2 2 2 1 1 1 2 3 6 8 10 10 11 10 10 10
10 10 9 9 9 10 10 11 11 11 10 9 8 9 10 14
14 12 8 6 3 4 3 1 0 3 14 6 12 11 4 4
5 10 14 16 15 12 9 8 5 6 8 12 11 11 11 11
11 11 11 11 11 11 12 12 11 11 11 11 11 11 11 11
11 11 11 11 11 10 11 11 11 11 11 11 11 11 11 11
0 0 0 11 18 8 0 0 0 0 0 0 11 3 3 10
16 16 15 13 11 11 12 11 15 16 17 16 13 9 4 3
2 1 1 1 0 0 1 1 1 5 10 8 8 9 9 9
10 9 10 10 10 10 10 11 12 10 7 8 8 12 13 12
9 8 8 8 6 5 4 3 1 0 9 12 8 12 11 3
3 6 7 13 13 12 16 13 4 5 7 7 11 11 11 11
11 11 11 11 11 11 12 12 11 12 11 10 11 11 11 11
11 11 11 11 11 11 10 11 11 11 11 11 11 11 11 11
0 0 0 9 18 7 0 0 0 0 0 0 11 4 3 11
17 17 16 16 16 16 7 2 5 8 11 12 11 10 4 2
1 0 0 0 1 1 1 2 2 6 5 3 10 10 10 9
9 10 10 9 10 10 10 11 10 6 7 8 12 13 10 7
5 8 7 8 9 6 6 7 7 7 9 16 12 8 10 10
6 3 6 7 8 11 19 13 8 5 2 6 10 11 11 11
11 11 11 12 11 11 11 11 11 11 11 10 11 11 11 11
11 11 11 11 11 11 11 11 11 11 10 11 11 11 11 11
0 0 0 8 16 5 0 0 0 0 3 3 10 5 4 8
14 14 15 16 17 16 5 0 0 0 0 2 5 10 3 1
0 0 0 0 1 2 1 2 3 7 11 10 12 12 11 4
4 9 10 10 10 10 10 10 6 5 6 11 14 14 10 8
10 8 6 7 9 13 13 12 13 13 12 13 18 14 9 11
11 8 7 8 8 9 9 13 15 9 2 4 9 11 11 11
10 11 11 11 11 11 11 12 11 11 11 11 11 11 11 11
11 11 11 11 11 11 11 11 11 11 11 11 11 10 10 11
0 0 0 8 14 3 0 0 0 1 7 7 7 8 6 8
9 10 11 11 13 14 3 0 0 0 0 0 5 11 3 2
0 0 0 0 0 0 0 0 0 5 13 10 10 10 12 11
9 10 10 10 10 7 7 9 4 5 9 14 14 18 16 17
14 12 9 11 12 13 19 19 18 19 17 17 20 22 17 15
13 13 14 17 16 12 8 11 14 15 3 5 5 10 11 11
11 12 12 12 12 11 12 11 12 11 10 10 12 12 12 11
11 11 11 11 11 11 11 12 11 11 11 11 11 11 11 11
0 0 0 9 14 3 0 0 0 0 4 6 7 6 5 5
5 7 9 9 12 14 3 0 0 0 0 0 4 10 1 0
0 0 0 0 0 0 0 0 0 4 13 9 7 8 8 9
10 10 10 10 9 4 8 7 5 6 11 12 16 16 16 13
13 9 10 12 15 17 23 28 27 26 26 27 29 29 29 27
28 30 31 33 29 25 15 10 9 13 5 3 6 10 11 11
11 11 11 11 11 12 12 12 12 12 12 11 12 12 12 11
12 11 11 11 11 11 11 11 12 11 12 12 11 11 11 11
0 0 0 11 15 2 0 0 0 0 0 0 4 3 5 5
6 8 10 10 13 14 2 0 0 0 0 0 5 8 0 0
0 0 0 1 0 0 0 0 0 4 14 9 5 10 9 8
10 10 10 10 10 9 8 4 5 8 12 16 15 13 15 17
15 16 16 14 19 28 34 37 37 35 39 42 43 45 47 48
48 48 47 43 41 39 33 21 7 8 9 3 6 10 12 11
12 12 12 12 12 12 12 12 11 12 12 11 11 11 11 11
12 11 12 12 12 12 11 11 12 11 11 11 11 11 10 11
0 0 0 12 14 2 0 0 0 0 0 0 6 4 5 1
0 0 2 4 6 9 2 0 0 0 0 0 6 8 0 0
0 0 0 1 2 0 0 0 0 5 14 10 3 7 6 7
10 10 10 10 11 12 6 4 5 11 16 16 15 18 18 18
19 15 13 17 25 38 44 45 46 50 52 51 52 51 51 52
51 50 48 45 44 43 41 35 17 7 4 5 8 11 12 12
12 11 12 12 12 12 12 12 12 12 12 11 12 12 12 11
11 11 11 11 11 11 11 11 11 11 11 11 11 11 12 11
1 0 0 13 14 1 0 0 0 0 0 0 9 7 7 2
0 0 0 0 0 1 1 0 0 0 0 0 7 6 0 0
0 0 1 3 3 3 0 0 0 5 14 10 4 6 5 7
10 10 10 12 14 9 5 3 8 14 17 17 20 19 20 18
14 12 14 19 26 37 49 51 52 52 53 53 53 52 52 53
53 51 49 47 47 45 43 41 32 11 1 3 8 10 11 12
12 12 12 11 11 11 12 12 12 11 11 11 11 12 12 11
12 11 11 11 12 11 11 11 11 11 10 10 11 11 11 11
12 9 8 11 12 2 0 0 0 0 0 0 11 7 6 1
0 0 0 0 0 2 1 0 0 1 0 0 7 4 0 0
0 0 3 4 3 1 0 0 0 5 14 11 7 4 2 6
10 10 11 15 11 6 5 6 13 16 18 20 19 21 21 17
15 14 19 20 26 39 48 52 53 53 54 55 54 53 52 52
52 51 51 48 48 47 44 43 37 22 2 4 9 10 11 12
11 11 12 12 11 12 12 12 12 12 10 9 12 12 12 12
11 11 11 11 11 11 11 11 11 11 11 11 11 11 11 11
2 2 3 7 10 7 5 2 2 2 1 0 11 7 6 1
0 0 0 0 0 1 1 0 1 3 0 0 8 4 0 0
0 0 0 2 1 0 0 0 0 4 14 11 6 1 0 5
9 11 13 14 10 7 7 11 14 19 21 22 21 21 19 18
17 20 18 21 28 37 46 49 51 53 54 53 54 54 52 52
52 51 52 51 50 49 47 44 41 31 6 5 10 11 12 12
11 12 12 12 12 12 12 12 12 12 10 9 12 12 12 12
11 11 11 11 11 11 11 11 11 11 11 11 11 10 10 11
0 2 0 7 10 9 10 9 10 13 12 10 13 6 5 1
0 1 4 0 0 2 2 0 3 3 2 0 8 3 0 0
0 0 0 2 1 0 0 0 0 3 14 10 3 0 0 4
9 11 14 14 12 10 10 12 15 19 18 22 22 21 21 18
20 19 18 23 29 39 42 49 52 52 54 54 54 55 54 54
53 54 52 52 51 50 48 44 42 35 17 8 11 11 12 11
11 12 11 12 12 12 12 12 12 12 10 10 12 11 11 12
11 11 11 11 11 11 11 11 11 10 10 11 10 10 11 11
0 1 1 9 10 5 0 0 2 5 9 14 14 8 5 1
0 0 2 0 0 2 12 11 12 11 10 7 12 3 0 0
0 0 0 2 2 0 0 0 0 2 14 7 1 0 0 5
10 11 15 12 13 12 11 14 17 16 20 25 24 26 23 23
21 20 22 25 32 35 43 45 50 51 53 54 55 56 56 55
54 53 52 52 51 51 49 46 42 37 26 9 10 12 12 12
11 12 12 12 12 12 12 12 12 12 11 11 11 12 11 11
11 11 11 11 11 11 11 11 11 11 11 11 10 10 10 10
6 0 0 10 11 4 0 0 2 1 3 14 13 7 5 2
0 0 0 0 0 2 14 14 15 15 15 17 17 5 0 0
0 0 0 3 2 0 0 0 0 1 14 7 0 0 0 7
10 12 13 12 11 12 15 14 13 18 24 26 25 26 24 21
21 22 23 26 31 33 38 44 48 51 54 54 54 56 56 56
55 54 52 52 51 50 49 46 43 38 31 14 11 12 12 12
12 12 12 12 12 12 12 12 11 11 11 12 12 12 12 11
11 11 11 11 11 11 11 11 11 11 10 11 11 11 11 11
2 0 0 11 11 4 0 0 5 7 8 13 11 6 6 5
0 0 0 0 0 3 13 14 14 14 16 18 18 12 9 9
6 5 4 7 4 2 1 0 0 1 11 6 0 0 1 3
9 13 13 11 12 16 15 12 12 19 26 26 19 18 21 21
23 24 26 27 31 33 38 42 46 52 54 53 55 56 57 57
57 56 54 53 51 51 48 47 44 41 35 19 11 11 12 11
12 11 12 11 12 12 12 12 12 12 11 11 11 12 12 12
11 11 11 11 11 11 11 11 11 10 11 11 10 11 11 11
3 0 0 12 12 3 0 0 1 5 10 14 9 5 6 4
0 0 0 0 0 3 12 11 12 13 13 13 14 12 12 12
11 10 11 11 9 8 7 6 5 7 12 9 5 5 3 2
9 14 12 13 16 15 11 11 16 22 20 18 18 19 21 22
23 25 28 30 30 34 34 39 46 49 53 54 56 56 57 58
57 57 55 54 52 51 48 47 46 41 37 25 11 11 12 12
12 12 12 12 12 12 12 12 11 12 12 11 11 12 12 12
11 11 11 11 11 11 11 11 11 11 11 10 11 10 10 11
0 0 0 13 13 4 0 0 0 0 8 14 8 6 7 4
0 0 0 0 0 3 13 10 11 11 11 10 10 12 12 13
13 12 12 12 11 11 12 10 9 9 12 14 13 12 10 8
10 12 12 17 16 13 11 13 13 12 14 18 19 18 19 21
21 27 29 30 32 29 31 39 44 52 56 57 57 57 57 58
57 57 57 56 54 52 49 48 47 42 37 31 12 12 12 12
11 12 11 12 12 12 12 12 12 11 12 12 12 12 11 11
11 11 11 11 11 11 11 11 11 11 10 11 10 10 10 10
0 0 1 13 13 3 0 0 0 0 7 15 8 6 6 11
13 11 9 8 7 9 15 11 12 11 12 12 13 14 13 14
16 15 12 11 12 13 16 15 13 13 13 12 12 13 13 13
13 11 14 18 14 12 11 11 14 15 20 18 18 17 19 20
24 27 27 32 33 30 34 43 51 56 57 57 58 57 57 57
57 57 56 56 55 53 52 50 48 44 38 35 17 12 12 12
12 12 12 12 12 12 11 12 11 11 11 11 11 11 11 12
11 12 12 11 11 11 11 11 11 11 11 11 10 10 11 10
0 0 0 13 13 2 0 0 0 0 8 15 8 6 7 13
18 18 18 18 18 18 16 13 12 12 12 14 15 16 13 14
16 17 12 10 10 13 16 15 14 13 13 11 7 7 7 9
12 10 18 16 14 14 18 22 21 19 19 18 16 15 17 20
23 25 28 33 31 32 37 50 57 58 57 58 58 58 57 57
57 55 55 54 55 55 56 53 50 46 38 38 23 12 12 12
12 12 11 12 12 12 12 12 12 12 12 11 11 11 11 11
11 11 11 11 11 11 11 11 11 11 11 10 10 11 11 11
0 0 0 13 12 2 0 0 0 0 8 16 8 6 7 12
16 17 17 18 18 18 16 7 7 6 7 10 14 16 14 13
13 14 13 11 9 10 13 12 13 14 14 13 10 9 9 10
12 11 14 14 14 14 16 16 18 14 16 16 14 16 17 20
22 24 27 31 29 33 49 57 58 58 58 58 58 57 58 57
56 53 51 50 52 52 55 54 51 48 39 39 29 12 12 12
11 11 12 12 12 12 12 11 11 11 11 11 11 11 11 11
11 11 11 11 11 11 11 11 11 11 11 11 10 10 11 10
0 0 1 13 13 1 0 0 0 0 7 14 6 6 6 7
8 8 9 9 11 12 12 0 0 0 0 0 3 15 13 7
2 3 4 4 8 10 5 1 1 3 6 10 12 11 11 12
11 11 11 9 7 5 6 13 13 14 15 14 13 15 17 17
22 23 25 26 30 42 56 58 58 58 58 58 57 57 56 55
52 46 37 38 39 43 47 51 51 49 42 39 34 13 12 11
11 12 12 13 12 12 12 12 12 12 12 11 12 12 12 12
12 11 11 11 11 11 11 11 11 11 11 11 11 11 11 10
1 1 3 14 13 1 0 0 0 0 8 15 7 6 6 9
11 11 10 10 9 9 8 0 0 0 0 0 2 15 11 1
0 0 0 1 9 11 3 0 0 0 1 7 8 8 10 13
11 12 9 7 4 5 5 5 14 14 12 13 14 15 16 19
19 22 23 26 37 49 57 58 58 57 57 57 58 57 56 50
40 29 23 20 16 17 24 35 39 45 42 39 34 16 12 12
12 12 12 12 12 12 12 12 11 12 12 11 11 12 12 12
12 12 12 11 11 11 11 11 11 12 11 11 11 11 11 11
13 13 14 12 8 0 0 0 0 0 9 16 6 5 6 10
12 12 12 12 13 12 9 0 0 0 0 0 5 14 6 0
0 0 0 0 10 11 3 0 0 0 1 7 3 0 4 12
12 12 10 7 7 6 9 13 9 13 11 11 12 13 14 18
19 19 20 29 42 54 58 58 58 58 58 58 57 56 49 43
31 29 28 21 15 12 8 10 15 29 37 38 33 16 12 12
12 12 12 12 12 12 12 12 12 12 12 12 11 12 12 12
11 11 11 11 11 11 11 11 11 12 11 11 11 11 11 11
14 14 14 12 10 10 9 6 5 4 11 13 6 6 7 9
11 12 12 12 13 13 10 0 0 0 0 0 2 13 4 0
0 0 0 0 11 11 3 0 0 0 0 7 3 1 8 15
15 11 9 9 6 2 5 7 11 12 12 10 12 14 16 15
15 17 23 32 43 54 58 58 58 58 58 58 56 54 49 47
51 52 48 45 38 31 17 20 23 20 25 36 27 9 11 12
12 12 12 12 12 11 11 12 12 12 11 12 12 12 11 12
11 12 11 11 11 11 11 11 11 11 11 11 11 11 10 10
12 11 12 12 11 12 12 12 12 12 12 12 10 10 10 8
7 7 8 9 10 13 12 0 0 0 0 0 1 12 2 0
0 0 0 0 11 10 2 0 0 0 0 7 3 1 10 17
14 9 11 8 2 5 7 3 3 9 12 9 10 13 14 10
13 18 25 34 43 53 58 58 58 58 58 58 57 55 55 55
54 54 50 44 36 24 28 24 23 24 21 33 15 5 11 12
12 8 5 5 5 4 4 7 12 12 11 12 12 12 11 11
11 11 11 11 11 11 11 11 11 11 11 11 11 10 10 10
11 12 11 11 11 11 11 11 11 11 11 11 11 12 11 11
12 11 11 11 11 13 13 2 0 0 0 0 0 12 2 0
0 0 0 0 11 10 2 0 0 0 0 6 4 4 17 17
11 11 14 6 4 8 10 4 0 4 7 10 13 12 11 9
10 18 24 38 44 53 57 57 57 57 57 53 42 36 36 38
36 27 20 15 23 8 20 28 36 35 27 22 10 2 11 12
12 7 1 0 0 1 1 6 12 12 12 11 12 12 11 11
11 11 11 11 11 11 11 12 11 11 11 10 11 11 11 11
11 10 11 11 11 11 11 11 11 11 11 11 11 11 11 11
11 11 11 11 12 13 13 1 0 0 0 0 1 12 1 0
0 0 0 0 11 10 4 0 0 0 0 6 5 12 21 16
9 13 13 7 2 5 6 4 2 2 5 6 11 10 9 5
8 14 16 20 23 26 30 24 21 18 17 15 13 12 14 18
27 30 22 9 8 20 8 24 41 52 30 23 19 6 9 11
13 15 2 1 1 1 1 7 12 13 12 12 12 12 12 12
11 11 11 11 11 11 11 12 11 11 11 11 11 11 12 11
1 2 2 2 3 3 3 3 3 4 4 4 5 6 6 7
8 8 9 10 11 12 11 0 0 0 0 0 1 13 2 0
0 0 0 0 10 10 2 0 0 0 0 6 11 16 18 14
12 15 16 5 2 2 3 5 21 32 20 9 12 12 12 9
9 16 29 32 37 47 57 58 57 57 57 55 54 50 44 29
17 13 24 19 14 26 15 29 45 58 30 23 5 2 11 11
12 14 8 0 1 1 1 6 12 12 12 11 12 12 12 11
11 11 11 11 11 11 11 11 11 11 11 10 11 11 11 11
0 0 0 0 0 0 0 0 0 0 0 0 0 0 0 0
0 0 0 8 10 11 10 0 0 0 0 0 0 12 2 0
0 0 0 0 10 11 3 1 0 0 1 10 16 16 16 13
13 18 16 5 1 0 5 25 49 47 49 43 27 25 20 13
10 20 28 29 43 48 57 58 58 58 58 58 58 58 56 53
48 44 35 24 16 22 19 38 46 54 34 36 19 2 10 11
12 12 10 0 0 0 0 4 12 12 11 12 11 12 11 11
11 11 11 10 11 11 10 11 11 11 11 11 11 10 11 11
0 0 0 0 0 0 0 0 0 0 0 0 0 0 0 0
0 0 0 9 11 11 12 8 5 4 5 8 5 12 11 8
7 8 6 7 13 11 10 9 10 10 12 15 14 16 17 15
17 20 15 10 1 2 15 47 52 47 32 44 49 42 24 11
9 21 20 32 45 53 57 57 58 58 58 58 57 58 57 57
55 53 47 39 25 22 23 36 51 54 30 29 34 16 11 11
11 12 11 1 2 2 2 4 11 11 11 11 10 11 11 10
10 10 11 11 10 11 11 11 11 11 11 11 11 11 10 11
0 0 0 0 0 0 0 0 0 0 0 0 0 0 0 0
0 0 0 9 11 11 15 16 14 14 15 14 13 11 16 18
16 17 17 17 18 13 11 15 15 16 18 17 18 17 17 18
19 17 13 10 0 3 27 50 51 57 42 45 55 56 43 17
18 23 37 50 54 54 56 58 58 57 58 58 57 57 57 56
54 50 43 36 27 20 28 37 51 44 21 29 45 31 5 1
3 16 21 4 2 3 3 5 10 11 12 12 11 11 11 11
11 10 11 11 11 10 11 11 10 10 10 11 10 10 11 10
0 0 0 0 0 0 0 0 0 0 0 0 0 0 0 0
0 0 0 9 11 10 14 15 12 13 15 13 10 9 13 17
17 16 17 18 18 14 10 13 15 16 17 16 17 17 17 18
17 15 13 7 0 9 38 45 55 56 55 52 55 53 52 43
44 46 50 54 56 55 57 57 58 58 58 58 57 57 57 57
56 51 46 43 36 19 38 48 51 31 21 31 51 47 15 5
8 23 26 2 1 1 1 4 11 11 12 11 11 11 11 11
11 11 11 11 11 10 11 11 10 10 10 10 10 10 10 10
0 0 0 0 0 0 0 0 0 0 0 0 0 0 0 0
0 0 0 9 11 10 13 10 11 11 13 14 11 9 9 8
8 8 8 9 11 10 8 11 13 13 14 17 16 17 19 18
16 13 11 7 2 10 44 42 58 56 57 41 53 53 55 53
49 49 53 54 54 56 57 58 57 58 58 58 58 58 57 57
56 53 48 46 44 21 45 49 52 47 24 36 54 53 34 5
10 25 27 1 1 0 0 4 11 11 12 11 12 11 11 11
11 11 11 11 11 11 10 10 11 11 10 10 10 10 10 10
0 0 0 0 0 0 0 0 0 0 0 0 0 0 0 0
0 0 0 8 11 10 13 4 4 6 7 9 8 9 9 7
8 8 9 9 9 10 11 12 14 13 15 16 15 17 18 17
15 13 8 7 4 12 43 46 58 55 51 30 54 54 54 54
51 52 53 53 53 55 56 57 57 57 57 58 57 56 56 56
56 54 49 48 49 27 42 49 54 47 27 40 55 53 47 14
12 19 18 0 1 1 1 4 12 12 11 11 11 11 11 11
11 11 11 11 11 11 11 11 11 11 10 10 11 10 10 10
0 0 0 0 0 0 0 0 0 0 0 0 0 0 0 0
0 0 0 7 11 10 12 2 0 0 0 0 2 7 10 12
12 13 15 13 11 12 12 14 16 16 16 15 15 15 17 16
14 12 7 7 3 9 38 47 56 49 54 49 51 53 58 55
52 52 53 54 53 54 56 56 56 56 57 57 57 56 56 56
54 53 50 46 49 38 34 51 56 40 32 48 56 54 51 35
12 16 12 1 1 1 1 4 11 12 12 11 12 11 11 11
11 11 11 11 11 11 11 11 10 10 10 10 10 10 10 11
0 0 0 0 0 0 0 0 0 0 0 0 0 0 0 0
0 0 0 7 11 10 13 2 0 0 0 0 0 10 10 13
14 14 18 11 2 3 4 6 11 16 16 16 14 16 18 15
14 11 8 6 3 8 28 52 54 49 55 57 42 47 59 56
53 52 53 55 54 54 56 55 55 54 56 57 57 57 56 56
54 53 52 47 46 47 28 47 50 36 34 48 55 53 51 44
15 14 6 1 1 1 1 6 12 12 12 12 11 11 11 11
11 11 11 11 11 10 11 11 10 10 10 10 10 10 10 10
0 0 0 0 0 0 0 0 0 0 0 0 0 0 0 0
0 0 0 6 12 10 13 4 0 0 0 0 0 10 9 12
9 2 7 8 0 0 0 0 7 19 17 14 14 17 18 14
13 10 8 7 5 8 25 47 56 47 56 57 34 50 59 57
53 52 52 55 55 56 55 55 54 54 54 57 58 57 57 57
56 54 53 51 45 45 42 31 38 36 34 48 54 54 52 50
28 15 2 1 1 1 1 5 11 12 11 11 11 11 11 11
11 11 11 11 11 11 11 11 10 10 10 10 10 10 10 10
0 0 0 0 0 0 0 0 0 0 0 0 0 0 0 0
0 0 0 6 12 10 7 0 0 0 0 0 0 11 9 13
8 0 4 8 0 0 0 0 10 19 16 13 15 19 18 15
13 12 9 8 5 6 25 41 54 51 52 52 39 49 56 59
55 51 51 54 55 56 57 56 55 54 55 56 56 57 57 57
56 54 54 51 49 42 39 46 52 47 50 56 56 56 55 55
36 11 1 1 1 1 1 5 12 12 11 11 11 11 11 11
11 11 11 11 10 10 11 11 10 11 11 11 11 10 11 10
0 0 0 0 0 0 0 0 0 0 0 0 0 0 0 0
0 0 0 5 11 10 4 0 0 0 0 0 1 12 9 13
8 0 3 9 0 0 0 2 10 16 15 14 16 19 18 16
15 14 10 9 5 4 15 34 46 55 55 54 54 39 44 59
55 51 51 54 55 56 56 56 56 55 56 56 56 56 58 57
56 55 53 51 48 43 45 48 51 55 55 51 48 53 53 53
34 8 5 5 3 2 3 6 11 12 12 12 11 11 12 11
11 11 12 11 11 11 10 11 10 10 10 11 10 10 10 10
0 0 0 0 0 0 0 0 0 0 0 0 0 0 0 0
0 0 0 5 12 9 4 0 0 0 0 0 1 11 9 13
7 0 4 8 0 0 0 1 13 14 16 16 19 19 21 17
15 18 15 11 7 3 10 24 39 48 53 55 58 56 54 58
55 51 51 52 55 57 58 57 56 57 57 57 56 56 57 56
56 56 54 51 44 40 48 47 43 40 39 35 31 18 38 43
22 11 11 12 10 10 11 11 12 12 12 12 12 12 12 11
11 11 11 11 11 11 11 11 11 11 11 11 11 11 10 10
0 0 0 0 0 0 0 0 0 0 0 0 0 0 0 0
0 0 0 5 11 10 4 0 0 0 0 0 1 12 9 14
7 0 4 8 0 0 0 2 12 14 18 17 21 19 22 21
20 22 19 10 7 4 5 14 36 42 48 54 56 57 58 58
55 50 51 52 54 56 57 57 57 57 56 57 55 55 56 55
56 56 52 44 39 45 50 49 48 46 49 47 47 42 33 21
13 13 13 13 12 12 12 12 12 12 12 12 12 12 12 12
11 11 12 11 11 11 11 11 11 11 11 10 11 10 10 10
0 0 0 0 0 0 0 0 0 0 0 0 0 0 0 0
0 0 0 5 12 9 3 0 0 0 1 2 0 12 10 14
10 2 4 8 1 0 0 3 10 15 17 21 22 21 23 24
21 23 21 13 5 4 2 7 31 42 42 45 53 54 54 57
54 49 48 52 54 56 57 58 57 56 57 57 57 56 54 53
56 50 49 41 43 49 51 50 48 45 45 39 25 13 13 12
12 12 12 12 12 12 12 13 12 12 12 11 11 11 11 12
11 11 11 11 11 11 11 11 11 11 11 10 11 11 11 11
0 0 0 0 0 0 0 0 0 0 0 0 0 0 0 0
0 0 0 5 11 9 4 1 1 0 2 6 3 12 11 15
9 6 4 8 0 2 2 3 9 15 18 26 22 21 23 24
21 23 21 11 4 5 3 2 26 41 41 41 43 47 50 52
53 48 48 51 54 55 56 58 58 57 57 57 56 54 52 57
52 53 42 43 44 48 49 48 43 39 35 28 21 10 12 12
12 12 12 12 12 12 12 12 12 12 12 12 12 12 12 12
12 11 11 11 11 11 11 10 10 10 10 10 11 10 10 11
0 0 0 0 0 0 0 0 0 0 0 0 0 0 0 0
0 0 0 5 12 10 9 12 13 12 12 14 13 17 13 15
7 8 5 8 2 4 3 4 9 17 22 24 21 22 24 22
19 22 19 9 5 5 5 3 29 46 44 45 44 43 44 31
49 46 48 50 53 55 55 56 57 58 57 57 55 54 55 56
54 47 35 38 41 45 47 42 38 37 33 26 22 12 11 12
12 12 12 12 12 12 12 12 12 12 12 12 12 11 11 12
11 11 11 11 11 11 10 11 10 10 11 10 10 11 11 11
0 0 0 0 0 0 0 0 0 0 0 0 0 0 0 0
0 0 0 5 12 9 13 19 19 20 19 20 20 20 16 15
5 5 5 10 8 8 8 9 10 18 25 23 22 23 24 22
18 21 17 6 1 5 4 6 28 50 52 55 55 58 56 44
47 44 47 49 51 53 54 56 56 57 57 55 54 54 57 56
57 44 26 29 35 40 43 41 38 38 30 25 20 12 12 12
12 12 12 12 11 11 12 12 12 12 12 12 11 11 11 12
12 11 11 11 11 11 11 11 10 10 10 10 11 10 11 11
0 0 0 0 0 0 0 0 0 0 0 0 0 0 0 0
0 0 0 5 11 9 12 18 17 17 18 18 18 18 16 14
4 0 4 11 9 9 9 10 12 21 26 22 24 22 26 18
17 16 15 5 0 1 8 10 28 48 54 59 59 59 58 51
46 42 44 48 51 52 53 55 56 56 55 54 54 55 57 58
57 39 36 39 36 37 38 37 34 33 30 26 17 11 12 12
12 12 12 12 11 11 11 12 12 12 12 11 11 11 11 11
11 11 11 11 11 11 11 11 10 10 10 11 11 11 11 12
0 0 0 0 0 0 0 0 0 0 0 0 0 0 0 0
0 0 0 5 11 9 8 7 6 7 7 7 7 7 8 13
4 0 3 11 10 10 11 11 14 22 26 22 25 23 29 20
17 17 15 4 0 0 3 8 28 45 53 58 59 59 58 53
45 40 41 46 49 51 52 53 54 54 54 54 54 55 57 58
58 42 47 53 55 55 53 49 43 38 28 18 10 11 11 11
12 12 12 12 11 11 11 12 12 12 11 11 11 11 11 11
12 11 11 11 11 10 10 11 11 11 10 10 11 16 17 16
0 0 0 0 0 0 0 0 0 0 0 0 0 0 0 0
0 0 0 5 11 9 7 6 5 5 6 5 6 5 6 13
3 0 2 11 10 11 11 13 14 25 24 23 26 24 30 19
17 15 14 3 0 0 2 8 27 43 53 58 59 59 59 55
44 38 40 44 46 49 52 53 53 53 53 53 54 55 55 56
57 43 49 54 55 55 55 55 50 44 35 25 10 11 12 12
12 11 12 11 10 10 11 12 11 11 11 11 11 11 11 11
11 11 11 11 10 10 11 11 15 18 18 17 16 17 17 16
0 0 0 0 0 0 0 0 0 0 0 0 0 0 0 0
0 0 0 6 11 9 8 8 7 7 7 7 7 6 8 14
8 6 8 12 10 10 11 12 14 25 22 23 25 25 30 19
21 18 14 2 0 0 1 9 25 40 53 57 59 59 59 56
46 38 39 42 45 47 50 51 52 52 52 53 54 55 54 55
56 46 50 55 55 54 53 52 48 43 36 30 10 10 11 11
12 12 12 12 11 10 12 12 11 11 11 11 11 11 11 11
11 11 11 11 11 11 10 11 17 21 20 20 21 20 20 20
0 0 0 0 0 0 0 0 0 0 0 0 0 0 0 1
0 1 1 8 11 9 9 8 9 8 9 8 8 6 9 14
13 15 16 13 9 11 12 11 15 27 23 24 23 26 26 19
24 18 12 3 0 0 1 11 26 40 53 57 59 59 59 57
47 36 38 41 44 46 49 51 51 51 53 53 54 54 54 54
55 51 51 54 55 55 54 49 46 40 32 26 8 6 11 11
11 11 11 11 10 9 11 12 11 11 11 11 11 11 11 11
11 11 11 11 10 10 10 10 18 21 20 20 20 20 20 20
3 2 3 4 4 5 5 6 6 6 6 7 7 8 8 8
8 8 8 9 9 9 9 9 8 8 8 8 8 7 7 10
9 10 11 10 10 11 11 12 16 29 24 25 22 28 23 23
27 21 13 4 0 0 0 13 28 39 51 56 59 59 59 58
50 38 36 40 44 46 49 52 52 52 53 53 55 54 54 55
55 54 51 53 54 55 52 48 43 36 30 21 2 1 7 8
7 7 10 11 10 9 12 12 11 11 11 11 11 11 11 11
11 11 11 11 11 10 11 11 19 20 20 20 20 20 20 20
3 3 3 5 6 6 7 7 8 8 8 8 8 9 9 9
9 9 9 8 9 9 9 9 9 8 8 8 8 7 8 8
8 8 10 9 10 11 12 11 18 27 25 26 25 28 24 24
29 19 9 1 0 0 0 13 28 38 51 56 59 59 59 58
53 41 37 39 42 47 49 52 54 53 53 54 55 56 57 56
57 55 50 50 54 55 54 49 42 33 28 14 0 0 0 0
0 0 2 10 10 6 10 12 12 12 12 12 12 12 12 12
12 12 11 11 12 11 11 11 19 21 20 20 20 20 20 20
4 2 4 5 6 6 6 7 7 8 8 8 8 9 9 9
9 9 9 9 9 8 9 10 9 9 9 8 8 8 8 9
9 8 9 9 10 10 12 12 17 25 26 24 27 27 26 28
30 15 8 1 0 0 0 14 28 37 50 56 59 59 59 59
57 46 40 40 44 46 48 50 53 53 54 56 55 57 58 58
58 57 48 50 54 55 53 48 41 30 25 7 0 0 0 0
0 0 0 6 6 2 7 12 12 12 11 11 11 11 11 11
11 11 11 10 11 10 10 11 20 21 20 20 20 20 20 20
2 3 3 4 4 5 5 5 6 6 6 6 6 5 4 4
5 6 6 7 7 8 9 9 10 9 9 9 9 8 9 9
10 9 9 9 10 10 11 12 17 25 27 25 29 24 24 27
24 11 7 1 0 0 1 18 28 35 50 56 60 59 60 59
59 52 43 38 40 45 49 48 50 53 54 56 57 57 58 58
58 56 48 51 52 51 53 51 44 33 25 9 0 0 0 0
0 0 1 7 6 5 10 11 11 11 11 11 11 11 11 11
11 11 11 11 10 10 10 11 20 20 20 20 20 20 20 20
0 0 0 0 0 0 2 2 3 3 3 1 1 0 0 0
2 7 8 8 9 9 9 9 9 9 9 9 9 8 8 9
10 9 10 10 10 11 12 12 14 22 25 27 26 22 23 25
14 11 3 0 0 0 2 23 28 34 49 56 59 59 60 59
60 57 49 42 41 43 47 49 48 49 51 54 55 55 56 57
58 55 48 49 49 47 51 52 48 40 31 20 6 0 0 0
0 0 2 3 3 6 11 12 11 11 11 11 11 11 11 10
10 10 10 10 10 10 9 12 21 20 20 20 20 20 20 20
0 0 0 0 0 4 10 10 11 11 12 11 11 10 3 0
2 7 8 9 9 9 9 9 9 9 9 9 8 9 9 9
10 9 9 9 10 10 11 11 14 23 25 29 22 20 22 18
11 7 1 0 0 0 5 25 30 33 47 56 59 60 59 60
59 58 53 47 45 46 46 47 46 46 48 49 51 54 55 55
56 51 46 48 44 40 47 50 48 41 33 27 10 4 0 0
0 0 0 0 0 3 9 10 11 11 11 11 11 11 11 11
11 10 10 10 10 9 8 13 21 20 20 20 20 19 20 20
0 0 0 0 0 7 16 15 16 15 14 14 16 17 9 2
4 6 8 8 9 9 9 9 9 9 9 9 9 9 9 9
9 9 10 9 10 10 11 11 15 22 25 29 19 19 20 12
9 6 1 0 0 0 7 26 31 33 45 55 59 59 59 59
59 59 56 51 50 50 50 49 48 47 45 45 46 49 50 52
53 47 40 39 37 35 42 46 45 39 31 28 16 4 0 0
0 0 0 0 0 2 7 8 10 11 11 11 11 10 10 10
10 10 10 10 9 9 8 14 20 20 20 20 19 20 20 20
0 0 1 4 4 7 15 15 17 16 16 16 18 20 14 6
5 4 5 7 7 9 10 9 10 10 10 10 10 10 9 9
9 9 9 9 9 10 10 12 16 22 27 25 19 20 18 11
8 4 1 0 0 0 11 28 32 33 45 54 59 60 59 59
59 59 57 54 52 51 52 51 51 50 49 46 43 42 44 48
49 44 34 27 29 36 31 41 38 36 30 26 13 0 0 0
0 0 0 0 0 1 6 7 10 11 11 10 11 10 10 10
10 9 9 9 9 9 7 15 20 20 19 19 19 20 19 19
0 0 4 6 6 6 14 16 15 15 14 14 14 14 11 7
7 6 7 7 7 7 10 9 9 9 10 9 9 9 9 9
9 9 9 9 9 10 12 13 15 21 27 23 20 22 16 12
7 4 1 2 3 3 14 29 34 34 43 53 58 59 59 59
59 59 58 55 53 53 54 53 52 51 50 48 45 44 41 41
42 40 30 23 25 27 30 36 32 31 27 25 9 0 0 0
0 0 0 0 0 0 5 6 9 10 10 10 10 10 10 9
9 8 3 1 1 1 2 12 18 18 19 18 19 19 19 18
4 4 5 6 6 7 8 8 8 8 8 8 9 9 7 3
3 3 2 2 3 3 9 9 9 9 9 9 10 9 9 9
9 8 9 9 8 9 10 11 14 21 27 19 24 24 16 13
7 5 0 2 1 4 16 29 35 34 41 52 57 59 59 59
59 59 58 57 56 55 55 54 54 52 50 48 46 45 43 39
39 36 31 19 15 18 23 29 28 24 22 19 5 0 0 0
0 0 0 0 0 0 5 6 8 9 10 10 10 9 10 10
9 4 0 0 0 0 0 1 3 3 4 4 5 5 6 6
3 2 2 2 2 2 2 1 2 5 8 8 8 9 7 2
2 2 2 2 2 3 10 9 8 8 8 8 9 8 8 9
8 8 9 9 8 9 9 10 14 19 25 20 29 26 20 11
7 7 2 6 7 12 19 29 35 34 40 51 58 59 59 58
57 58 59 58 58 57 56 56 54 52 51 49 47 42 40 37
35 32 30 26 15 14 15 17 22 20 16 9 0 0 0 0
0 0 0 0 0 2 5 5 8 9 9 9 9 9 9 9
8 2 0 0 0 0 0 0 0 0 0 0 0 0 0 0
3 0 0 0 0 0 0 0 0 3 8 8 9 9 7 2
2 2 2 2 2 2 9 9 8 8 8 8 8 8 8 8
8 8 9 9 9 9 9 9 13 17 29 23 33 31 26 11
10 10 6 6 10 17 18 30 36 35 39 50 57 59 59 58
55 59 59 58 58 58 57 58 57 54 52 48 44 41 37 34
30 27 23 21 17 13 12 10 9 9 7 0 0 0 0 1
0 0 0 0 4 5 5 6 8 9 9 9 9 8 9 9
8 4 4 3 0 0 0 0 0 0 0 0 0 0 0 0
3 0 0 0 0 1 1 2 3 7 8 8 8 8 6 2
2 2 3 3 2 2 8 9 7 7 7 7 7 7 7 7
7 8 8 9 9 9 9 9 13 17 27 27 33 32 23 10
11 12 14 10 12 13 17 31 36 34 39 50 57 59 59 59
59 58 58 58 58 59 59 58 58 55 52 48 43 36 25 14
2 0 2 12 9 6 14 8 2 2 1 0 0 0 0 2
3 0 0 0 4 4 7 9 9 9 9 9 9 8 9 8
8 16 18 17 17 16 15 14 13 12 11 10 9 7 6 6
2 3 3 4 5 6 7 7 8 9 10 10 11 11 10 8
9 9 9 10 8 6 8 9 7 7 7 8 7 8 8 7
7 8 8 8 8 8 8 9 9 15 26 29 33 31 22 14
13 13 16 17 14 13 19 29 36 33 38 50 56 59 59 59
59 59 58 58 58 58 59 58 57 54 51 45 36 26 12 7
0 0 0 7 7 4 13 8 0 2 1 0 0 0 0 2
6 0 0 0 4 4 6 8 8 9 9 9 9 9 8 8
8 18 20 20 20 20 20 20 20 20 20 19 19 19 19 19
6 7 7 8 8 8 9 9 9 11 10 9 9 10 10 9
10 10 10 11 11 11 12 9 8 7 7 7 7 7 8 8
8 9 9 8 8 9 8 8 8 15 27 30 30 31 22 13
15 16 15 17 15 15 22 27 36 31 37 49 55 58 59 59
59 58 59 58 58 58 58 58 57 54 48 41 37 28 19 8
0 0 0 1 3 1 11 10 1 0 2 4 0 0 0 4
4 3 0 0 3 2 2 3 4 7 9 9 8 9 8 8
9 19 20 20 20 20 20 20 20 20 20 20 20 20 19 19
5 5 5 7 7 7 7 8 9 11 10 11 11 12 12 11
9 9 10 12 13 14 14 13 10 10 8 7 8 8 12 14
14 12 8 8 8 7 5 3 3 14 30 33 32 28 24 17
13 12 15 13 14 16 25 30 35 30 37 48 55 59 59 59
59 59 58 57 56 57 58 58 56 53 46 39 35 36 30 26
29 15 1 0 0 0 6 12 6 0 0 1 0 0 0 4
0 0 0 0 0 0 0 0 0 0 2 6 8 8 8 8
11 20 20 20 20 20 20 20 20 20 20 20 19 19 19 19
7 8 8 8 10 9 10 11 11 11 12 12 13 13 13 13
13 10 10 10 12 13 15 15 14 14 12 9 7 7 16 19
20 16 8 8 7 4 0 0 0 6 28 36 35 30 24 23
19 14 17 15 11 18 27 33 35 29 37 46 56 59 59 59
59 58 57 58 57 56 56 57 55 51 42 38 37 38 35 29
42 46 37 12 0 0 2 9 6 0 0 0 0 0 0 0
0 0 0 0 0 2 3 3 2 1 0 0 5 8 8 7
11 19 20 20 20 20 20 20 20 20 20 20 20 19 19 19
8 8 9 9 9 10 10 10 12 12 13 13 13 13 13 14
14 13 13 13 13 13 13 12 11 10 9 7 5 5 9 11
11 9 7 7 6 4 1 0 0 3 30 40 40 35 25 25
24 16 15 15 14 23 30 35 34 28 36 46 55 58 59 59
59 58 58 56 56 56 55 55 53 46 39 37 38 39 34 19
32 46 48 48 27 2 0 3 0 4 3 0 0 0 0 0
0 0 0 1 4 3 2 2 2 2 0 0 0 4 7 6
12 19 19 20 20 20 20 19 20 20 20 20 20 20 19 19
6 6 8 7 8 9 9 9 10 10 10 10 10 10 9 9
8 7 6 5 4 3 2 2 5 5 5 5 5 5 5 4
3 3 6 7 8 8 10 20 27 41 52 45 42 39 32 24
26 21 18 20 23 30 34 33 30 27 36 46 54 59 59 59
59 58 57 57 56 56 55 53 49 40 39 39 41 39 35 17
6 44 48 50 51 39 5 0 9 14 5 0 0 3 3 0
0 0 0 2 2 3 4 5 5 6 4 0 0 0 5 6
14 20 20 20 20 19 20 19 20 20 20 19 20 19 19 19
0 0 0 0 0 0 0 0 0 0 1 0 0 0 0 0
0 0 0 0 0 0 0 0 0 0 0 0 0 0 0 0
0 1 6 10 22 38 51 51 51 54 56 53 47 44 38 31
27 26 23 27 31 31 33 28 26 27 37 46 54 57 59 59
59 58 57 57 56 55 52 49 41 40 40 42 42 40 35 20
0 26 51 54 58 58 46 14 14 17 11 3 1 4 3 0
0 0 0 0 1 2 4 4 5 5 5 4 0 0 1 5
16 20 20 20 20 20 20 20 20 20 19 19 19 19 19 19
0 0 0 0 0 0 0 0 0 0 0 0 0 0 0 0
0 0 0 0 0 0 0 0 0 0 0 0 0 0 0 0
4 7 19 42 54 57 58 59 58 57 59 58 54 51 43 37
32 26 30 32 31 32 32 28 26 29 39 46 53 57 58 58
58 58 57 57 56 53 50 44 41 42 43 46 47 42 36 24
2 10 55 58 59 58 58 50 36 19 11 3 0 4 1 0
0 2 0 0 0 2 3 3 4 3 5 6 2 0 0 3
17 20 20 20 19 19 20 20 19 20 20 19 19 19 19 19
0 0 0 0 0 0 0 0 0 0 0 0 0 0 0 0
0 0 0 0 0 0 0 0 0 0 0 0 0 0 2 14
30 45 57 58 57 57 60 60 60 60 60 59 59 56 49 40
35 32 28 31 32 31 27 27 27 32 38 46 53 56 58 59
59 58 58 57 55 52 48 43 43 45 48 52 50 43 36 27
9 5 53 59 58 59 58 57 54 55 32 2 1 1 0 0
2 2 1 0 1 3 3 4 3 4 5 6 5 1 0 1
18 19 20 20 19 20 20 19 20 19 19 19 19 19 19 18
0 0 0 0 0 0 0 0 0 0 0 0 0 0 0 0
0 0 0 0 0 0 0 0 0 0 0 6 23 41 56 60
61 60 60 60 59 58 60 60 60 60 60 60 60 59 56 50
40 37 38 33 30 26 24 26 29 38 40 45 52 56 59 58
58 58 57 55 52 50 47 45 45 48 53 54 50 44 37 28
14 3 45 59 59 58 58 58 57 58 55 41 20 2 0 2
0 0 0 0 1 3 3 5 5 6 6 7 7 4 0 2
18 20 20 19 19 20 20 19 19 19 19 19 19 19 18 19
0 0 0 0 0 0 0 0 0 0 0 0 0 0 0 0
0 0 0 0 0 0 0 0 8 24 44 57 60 60 60 60
60 60 60 60 60 60 60 60 60 60 60 59 60 59 59 57
59 60 59 38 30 27 26 26 35 45 45 45 51 56 58 59
58 57 56 53 52 49 47 46 49 53 55 53 50 44 38 30
17 4 41 59 58 58 58 58 57 58 58 58 56 51 33 17
1 0 0 0 0 0 0 1 1 1 1 1 1 1 0 3
18 19 19 20 20 19 20 20 19 19 19 19 19 19 18 18
0 0 0 0 0 0 0 0 0 0 0 0 0 0 0 0
0 0 0 0 0 10 32 50 58 60 60 60 60 60 60 60
60 60 60 60 60 60 60 60 60 60 60 60 60 60 60 60
60 60 59 50 28 35 33 36 44 50 47 46 51 55 58 58
57 55 53 51 49 47 46 48 52 55 54 52 49 45 40 32
19 5 40 59 59 58 58 58 57 58 58 58 57 57 56 52
49 34 19 2 0 0 0 0 0 0 0 0 0 0 0 5
19 19 19 19 19 19 19 19 19 19 19 19 18 18 18 18
0 0 0 0 0 0 0 0 0 0 0 0 0 0 0 0
0 0 0 6 36 58 60 60 60 60 60 60 60 60 60 60
60 60 60 60 60 60 60 59 60 60 60 60 60 60 60 60
60 60 59 58 25 47 49 49 50 53 50 46 51 56 58 58
56 54 52 49 48 46 47 49 53 55 54 51 50 46 41 36
19 4 43 59 58 58 59 58 58 57 58 58 58 58 57 57
58 58 56 51 32 9 0 0 0 0 0 0 0 0 0 7
19 19 19 19 19 19 19 19 19 19 18 18 18 18 17 17
0 0 0 0 0 0 0 0 0 0 0 0 0 0 0 0
0 0 20 54 60 60 60 60 60 60 61 60 60 60 60 60
60 60 60 60 60 60 60 60 60 60 59 60 60 59 60 60
59 59 59 59 38 32 56 54 54 54 52 46 50 56 58 58
55 51 49 47 47 46 49 52 55 56 53 52 51 48 43 39
17 5 47 59 58 58 58 58 58 57 57 58 58 58 58 58
58 58 58 57 57 56 40 16 1 0 0 0 0 0 0 10
19 19 19 18 18 18 18 18 18 18 18 17 18 17 17 17
0 0 0 0 0 0 0 0 0 0 0 0 0 0 0 0
0 24 59 61 61 61 60 60 60 60 60 60 60 60 60 60
60 60 60 60 60 60 60 60 60 60 60 60 60 60 60 60
60 60 60 60 55 14 49 57 56 56 53 47 49 56 58 58
53 48 48 48 48 49 52 55 57 54 53 53 52 49 46 41
12 8 55 59 59 58 58 58 58 58 58 58 58 58 58 58
58 58 57 58 58 57 57 57 45 18 1 0 0 0 0 12
19 19 19 19 19 19 19 18 18 19 18 17 17 17 17 17
0 0 0 0 0 0 0 0 0 0 0 0 0 0 0 1
26 58 61 61 60 60 60 60 61 61 60 61 60 60 60 60
60 60 60 60 60 60 60 60 60 60 60 60 60 60 60 60
59 60 59 60 59 31 17 53 58 58 56 49 49 56 58 58
50 45 47 48 49 51 55 57 57 54 53 55 54 50 50 37
7 18 59 59 59 58 58 58 58 58 58 58 58 58 58 58
57 58 58 57 57 57 57 57 57 55 44 18 0 0 0 14
19 19 18 19 18 18 19 18 18 18 18 18 18 18 17 17
0 0 0 0 0 0 0 0 0 0 0 0 0 0 1 33
60 60 60 60 61 60 60 60 60 60 60 60 60 60 60 60
60 60 60 60 60 60 60 60 60 60 59 59 60 60 60 59
59 59 59 60 59 53 8 24 58 58 56 51 48 55 58 57
47 42 49 51 53 54 58 58 58 55 55 55 54 51 50 22
4 35 59 58 59 58 59 58 58 58 58 58 58 58 58 57
57 57 57 57 58 57 57 57 57 57 57 55 39 7 1 16
19 19 19 18 19 18 18 19 18 18 18 18 18 17 17 17
0 0 0 0 0 0 0 0 0 0 0 0 0 1 35 61
61 60 60 60 60 60 61 60 60 60 60 60 60 61 60 61
60 60 60 60 60 60 60 60 60 60 60 60 60 60 60 59
59 60 60 59 59 60 29 5 28 57 55 51 47 55 59 57
45 43 51 55 56 58 59 58 58 57 57 57 55 54 38 7
9 52 59 59 58 58 58 58 58 58 58 58 58 58 58 58
58 58 58 58 57 57 57 57 57 57 57 57 57 50 18 17
19 19 19 19 19 18 19 19 18 18 18 18 18 18 18 17
0 0 0 0 0 0 0 0 0 0 0 0 0 28 61 61
60 60 60 60 60 60 60 61 60 60 60 60 60 60 60 60
60 60 60 60 60 60 60 60 60 60 60 60 60 60 60 60
60 60 59 59 59 60 54 9 5 22 51 50 45 54 58 56
44 44 55 58 58 59 58 59 58 58 58 58 56 45 13 5
23 59 58 59 59 59 59 58 58 58 58 58 58 58 58 57
58 57 58 57 58 57 57 57 57 57 57 57 57 57 56 38
20 19 19 19 19 19 19 19 19 19 18 18 18 18 17 17
0 0 0 0 0 0 0 0 0 0 0 0 11 58 61 60
60 60 60 60 60 60 60 60 60 60 60 60 60 60 60 60
60 60 60 60 60 59 59 60 60 60 60 60 60 60 60 60
59 60 59 59 60 59 59 39 4 5 12 37 43 52 58 56
44 47 57 58 59 58 58 58 58 58 58 58 48 15 5 7
47 59 58 59 58 58 58 58 58 58 58 58 58 58 58 58
58 58 58 58 58 57 57 57 57 57 57 57 57 57 56 55
45 21 19 19 19 19 18 19 19 18 18 18 18 18 17 17
0 0 0 0 0 0 0 0 0 0 0 1 43 61 60 61
60 60 60 60 60 60 60 60 60 60 60 61 60 60 60 60
60 60 60 60 60 60 60 60 60 60 60 60 60 60 59 59
59 59 60 60 59 60 59 58 22 5 5 6 18 45 57 55
45 50 59 58 59 58 59 58 59 58 58 46 13 5 6 25
59 59 59 59 58 58 58 58 58 58 59 58 58 58 58 58
58 58 58 58 58 58 58 58 58 57 58 57 57 57 57 57
55 44 20 19 19 19 19 18 19 18 19 18 18 18 17 17
0 0 0 0 0 0 0 0 0 0 0 15 60 61 61 60
60 60 60 60 60 60 60 60 60 60 60 60 60 60 60 60
60 60 60 60 60 60 60 60 60 60 60 60 60 60 60 60
60 59 59 59 59 59 59 59 54 10 5 5 5 10 38 53
46 54 59 59 58 59 58 58 58 57 37 9 5 5 12 54
59 58 59 58 58 58 58 58 58 58 58 58 58 58 58 58
58 58 58 58 58 58 58 58 57 57 57 57 57 57 57 57
57 54 37 19 19 19 18 18 18 18 18 18 18 17 17 17
0 0 0 0 0 0 0 0 0 0 0 38 61 61 61 61
60 61 61 61 61 61 60 60 60 60 60 60 60 60 60 60
60 60 60 60 60 60 60 59 60 60 60 59 60 59 60 60
60 59 59 59 59 59 60 59 59 45 6 5 5 5 5 13
29 52 59 59 59 59 59 58 45 18 5 5 5 7 41 60
59 58 59 59 58 58 59 59 58 58 58 58 58 58 58 58
58 57 58 58 58 58 58 57 58 58 58 58 57 57 57 57
57 57 52 28 19 19 19 19 18 18 18 18 18 18 17 17
0 0 0 0 0 0 0 0 0 0 4 54 61 61 61 61
60 60 60 60 60 61 60 60 60 60 60 60 60 60 60 60
60 60 60 60 60 59 59 60 60 60 59 59 59 59 60 59
59 60 59 60 59 59 59 59 59 59 37 5 5 5 5 5
5 7 20 34 37 36 32 17 6 5 6 6 6 28 59 59
59 58 59 58 58 59 58 58 58 58 58 58 58 59 59 58
58 58 58 58 58 58 58 58 58 58 58 58 58 57 57 58
57 57 58 52 24 19 19 19 19 18 18 18 17 17 17 17
0 0 0 0 0 0 0 0 0 0 14 60 61 60 61 60
60 60 60 60 60 60 60 60 60 61 60 60 60 60 60 60
60 60 60 60 60 60 60 60 60 60 60 59 60 59 59 59
59 59 59 59 59 60 59 59 59 59 59 38 6 5 5 5
5 5 5 5 5 5 5 5 6 6 6 7 29 58 59 59
59 59 59 58 59 58 58 58 58 58 58 58 59 58 59 58
58 58 58 58 58 58 58 58 58 58 58 58 58 57 58 57
58 57 57 57 47 19 19 19 18 18 18 18 18 17 17 17
0 0 0 0 0 0 0 0 0 0 27 62 61 61 61 61
60 60 60 60 60 60 60 60 60 60 60 60 60 60 60 60
60 60 60 60 60 60 60 60 60 60 60 60 60 60 60 60
59 60 59 59 59 59 59 59 59 59 59 59 45 10 5 4
5 5 5 5 6 5 5 6 5 5 8 35 59 58 58 58
59 58 58 59 58 58 58 58 58 58 58 58 58 58 58 58
58 58 58 58 58 58 58 58 58 58 58 58 57 58 58 57
58 57 57 57 57 36 19 19 18 18 18 18 17 17 16 16
