P2
128 120
132
0 0 2 0 0 8 34 28 23 23 23 23 23 23 23 23
23 22 22 22 21 21 21 20 21 20 20 20 19 18 18 18
18 18 17 17 17 17 17 16 15 15 15 15 14 14 14 14
14 14 13 12 13 13 13 16 17 16 16 13 9 15 12 13
16 15 15 14 15 15 13 13 13 12 12 13 15 15 16 16
16 16 16 16 16 17 17 17 17 17 17 17 18 17 18 18
18 18 19 19 20 20 20 20 20 20 20 21 21 20 21 21
21 21 22 22 23 22 22 21 22 21 22 22 21 22 21 21
0 0 0 0 0 9 33 28 23 24 24 23 22 23 22 22
22 21 22 21 21 21 21 20 20 20 20 20 19 19 19 19
18 18 17 17 17 16 17 16 16 15 16 16 15 15 14 14
13 13 13 12 12 12 13 16 17 17 17 13 10 15 14 12
16 15 15 15 14 15 13 14 13 11 13 13 16 15 16 16
16 16 17 16 16 16 17 17 17 17 17 18 18 18 18 19
19 18 19 19 19 19 19 20 20 20 20 21 21 21 22 21
22 22 22 22 21 20 20 21 21 21 22 22 22 22 22 22
3 0 0 0 1 13 34 26 23 23 22 22 22 23 22 22
22 22 22 22 21 21 21 20 20 20 19 19 19 19 18 18
18 17 18 17 17 17 17 17 16 16 15 15 16 15 14 14
14 14 13 13 13 13 14 17 17 17 17 13 10 15 14 12
15 16 15 15 15 15 14 14 14 12 12 13 16 16 16 16
16 17 17 17 17 18 17 17 17 18 18 18 18 17 18 19
19 19 19 19 20 20 20 21 20 21 21 20 21 20 20 20
20 20 20 21 22 22 22 22 22 21 22 22 22 22 21 22
21 19 16 12 9 19 32 25 23 23 23 23 23 23 22 22
22 21 22 21 21 21 21 21 21 20 20 20 20 19 19 18
18 18 18 17 17 17 16 16 16 16 16 15 15 15 15 14
14 13 13 13 13 14 14 16 18 18 17 14 11 17 17 11
17 16 16 16 15 14 14 14 14 12 13 13 16 16 17 17
17 18 17 17 17 17 17 18 18 18 18 18 18 19 19 20
19 20 19 19 20 20 20 20 19 19 20 20 21 21 21 21
22 22 22 22 22 22 23 21 21 21 21 21 22 22 22 22
15 17 20 23 24 26 27 24 23 22 22 22 22 22 22 22
22 22 21 21 21 21 21 20 20 20 19 19 19 19 18 18
18 18 18 18 17 17 17 17 16 16 15 15 15 15 15 14
14 14 14 14 14 13 14 17 18 17 17 13 10 17 17 10
16 16 16 16 15 14 14 14 14 12 13 13 16 16 17 16
17 17 17 18 18 17 18 18 18 18 18 18 19 18 19 18
18 18 19 19 19 20 21 20 21 21 22 21 21 21 21 21
22 21 21 21 22 22 23 21 21 22 22 21 22 22 22 22
7 9 13 16 19 21 23 23 24 24 23 23 23 23 22 22
22 21 21 21 21 20 20 20 20 20 20 19 20 19 19 18
19 18 18 18 17 18 17 17 17 17 17 16 16 16 15 15
15 14 14 13 14 14 14 16 18 18 18 14 11 18 19 10
18 17 17 16 15 14 15 15 14 13 13 14 17 17 17 18
18 18 18 18 18 18 18 18 18 18 18 19 19 19 19 19
20 20 20 20 20 20 21 21 21 21 22 22 22 21 22 22
22 21 22 22 22 22 22 21 21 21 21 22 22 22 22 22
4 4 4 5 6 10 14 18 21 23 23 23 23 22 23 23
22 22 22 22 21 21 21 21 21 20 19 20 19 19 19 18
18 18 18 18 18 18 17 17 17 17 16 16 16 16 16 15
15 14 14 15 14 15 16 18 19 18 18 14 11 17 20 10
17 17 17 17 16 15 15 15 15 13 14 14 17 18 18 18
18 18 18 17 18 18 18 18 19 19 19 19 19 19 19 19
19 20 20 20 21 21 22 22 22 22 21 21 22 22 22 22
22 22 22 22 22 22 23 22 22 22 23 22 22 22 22 21
3 3 4 4 3 5 4 5 7 9 12 16 20 22 23 22
22 22 22 21 21 21 21 20 20 20 20 20 20 19 19 19
19 18 18 18 17 17 17 17 17 17 17 16 16 16 16 15
15 14 15 14 14 14 15 18 18 19 19 14 11 19 20 10
17 17 17 16 16 14 15 14 14 13 14 14 17 17 17 17
17 17 18 18 18 18 18 19 20 19 19 19 19 19 20 20
20 20 21 20 21 20 21 21 21 21 21 21 22 21 22 22
22 22 22 22 21 22 23 21 22 22 21 22 22 22 22 22
17 15 13 10 7 6 4 4 5 4 4 4 6 6 10 14
21 22 22 22 22 21 21 21 20 20 20 20 19 19 19 19
19 19 18 18 18 18 18 18 17 17 16 16 16 16 16 16
15 15 15 14 15 15 16 18 19 19 19 14 12 18 20 10
16 18 17 17 17 16 16 16 16 13 14 14 17 17 17 17
18 18 18 19 18 19 19 19 20 19 20 19 19 19 20 20
21 20 20 21 21 22 21 21 21 22 22 21 21 21 22 22
22 21 22 21 21 21 23 21 22 22 22 21 22 22 22 22
27 34 34 29 27 15 7 7 5 4 4 5 5 0 0 8
21 22 22 21 21 21 20 20 21 21 20 20 20 19 19 19
20 19 18 18 18 18 17 17 17 17 17 16 17 16 16 16
16 15 15 15 15 15 15 18 19 19 19 14 12 19 21 12
16 19 18 17 17 15 16 15 16 14 15 15 18 18 18 18
19 19 19 19 19 19 19 19 20 18 19 19 19 20 20 20
21 21 21 21 21 21 21 22 22 22 22 22 22 22 22 22
21 22 22 22 23 22 23 21 21 22 23 22 22 22 23 22
31 31 35 34 33 21 17 21 22 16 10 7 4 2 3 8
21 22 22 22 22 21 20 20 21 21 21 19 19 20 19 19
19 19 18 18 19 18 18 18 17 18 18 17 17 16 16 16
16 16 16 15 15 16 16 19 20 19 18 14 12 19 21 13
14 19 18 17 17 16 17 16 17 15 16 16 19 18 18 19
19 19 19 19 19 19 20 20 20 19 20 20 20 20 20 21
21 21 21 21 22 21 22 22 22 23 22 22 22 22 22 23
22 22 22 22 22 22 23 22 22 23 23 22 23 22 22 22
21 27 32 34 34 23 23 26 28 23 29 28 24 9 3 7
21 22 22 22 22 21 26 24 23 22 21 20 20 20 20 20
19 19 19 19 19 18 21 25 23 20 18 17 17 16 17 16
16 16 16 16 15 16 17 20 19 19 19 14 13 19 22 14
13 19 18 17 17 17 16 16 16 15 16 16 18 19 19 19
19 20 20 20 19 20 20 20 21 19 20 20 20 20 20 21
21 21 22 22 22 22 22 22 22 22 22 22 22 22 22 22
23 22 23 23 23 23 23 21 21 21 21 21 21 21 22 21
0 2 6 11 24 25 26 27 29 30 33 33 32 14 4 10
22 22 22 22 22 24 32 29 28 26 24 22 21 20 20 19
19 19 19 19 19 19 25 30 28 25 25 23 18 16 17 17
16 16 16 16 16 17 17 19 20 20 19 14 13 20 22 16
12 19 19 18 18 17 18 17 17 15 17 16 19 19 19 19
20 20 19 20 20 20 20 20 21 21 21 21 21 21 22 21
21 22 22 23 22 22 23 23 22 22 22 23 23 23 22 21
21 21 21 20 21 22 22 21 22 22 22 21 22 23 24 23
0 0 0 0 13 26 26 28 30 31 33 34 34 17 4 12
25 24 24 23 22 23 32 30 29 26 26 27 29 24 24 22
21 20 19 19 19 19 25 27 26 25 26 25 21 17 18 17
17 17 16 17 16 17 17 20 20 20 20 14 13 21 23 17
12 19 20 18 19 18 17 17 16 15 16 17 19 20 20 21
20 21 21 20 20 21 21 20 21 21 20 21 21 21 22 21
22 22 22 23 23 22 22 22 22 22 22 22 22 22 22 22
22 22 23 23 23 22 23 22 22 22 22 22 22 22 22 22
0 0 7 0 16 24 22 26 28 31 32 32 33 18 5 13
27 25 25 25 25 25 25 24 28 29 30 31 31 24 24 27
25 23 22 21 20 19 22 16 18 21 24 25 24 18 18 18
17 17 17 17 17 18 18 20 21 21 20 15 12 16 22 18
12 20 19 19 18 19 17 18 18 16 18 17 20 20 20 20
20 21 21 21 21 21 22 21 22 22 22 22 22 22 22 21
21 22 21 22 22 21 22 21 22 22 23 23 23 23 23 23
22 22 23 23 23 22 22 22 22 22 22 22 23 22 23 23
0 0 6 1 18 16 0 4 10 19 25 27 30 17 6 15
28 24 21 23 27 30 8 0 5 18 24 26 29 15 2 8
14 21 21 25 25 22 20 6 3 4 6 10 20 19 19 18
18 17 17 17 17 18 18 20 21 21 17 8 9 7 22 19
13 19 20 20 19 20 18 18 18 16 18 17 20 20 21 20
21 22 21 22 21 21 21 21 21 21 20 20 21 21 22 22
22 23 22 23 23 22 23 22 22 22 22 22 22 22 22 23
22 23 23 23 23 23 23 22 22 22 22 22 22 22 22 22
0 0 0 0 17 15 0 0 0 0 1 2 15 18 6 9
20 25 26 24 30 32 9 0 0 2 5 5 17 13 0 0
0 0 2 7 14 20 20 4 0 1 1 0 14 19 18 17
17 17 17 17 17 18 19 21 22 21 19 12 13 18 23 20
12 19 21 19 19 20 18 18 18 16 19 18 20 20 21 21
20 21 21 20 20 21 21 20 21 22 22 22 22 22 22 23
22 22 23 22 22 22 22 22 22 22 22 22 23 22 22 23
22 23 23 23 23 22 23 22 22 22 23 23 22 22 22 23
0 0 0 0 18 13 0 0 0 0 0 0 11 17 6 2
0 2 9 16 25 29 10 0 0 0 1 2 14 13 0 0
0 0 0 0 0 7 20 2 0 0 0 0 15 19 18 18
18 18 18 18 18 18 19 21 21 21 20 14 14 21 23 20
14 17 19 18 19 20 18 19 18 17 18 17 19 20 21 20
21 22 21 21 22 21 21 21 21 21 21 21 22 21 22 23
21 22 23 23 23 23 22 23 22 22 22 22 22 22 22 23
23 22 23 22 22 22 22 22 22 22 22 22 22 22 22 22
2 8 0 0 19 11 0 0 2 0 0 0 12 17 4 1
0 0 0 0 0 5 7 0 0 0 0 0 11 12 0 0
0 0 0 0 0 7 18 0 0 0 0 0 15 19 19 18
18 18 17 17 17 18 19 21 22 22 21 15 15 22 23 20
15 16 20 19 19 19 18 18 18 16 17 17 20 20 21 21
21 21 21 21 21 22 21 21 21 21 21 22 22 22 22 23
22 22 22 21 21 22 22 22 22 21 22 22 22 22 23 23
22 22 23 22 22 21 22 22 22 22 22 22 22 21 21 22
0 4 0 0 19 10 0 0 1 3 0 0 13 16 4 1
0 0 0 0 0 0 4 0 0 0 0 0 11 11 0 0
0 0 0 0 0 6 15 0 0 0 0 0 17 19 18 18
17 17 18 17 18 18 18 21 21 21 20 14 14 21 23 21
16 15 20 20 19 19 18 18 18 15 17 16 19 20 21 20
20 21 21 21 21 22 21 20 21 21 21 21 21 21 20 22
21 21 22 22 22 21 21 21 21 21 21 21 21 21 21 22
21 21 21 21 21 21 22 21 21 21 20 21 21 21 20 22
0 0 0 0 20 8 0 0 0 2 0 0 14 13 4 0
0 0 0 0 0 0 3 0 0 0 0 0 15 12 0 0
0 1 2 0 0 6 14 0 0 0 0 0 17 19 18 17
17 17 17 17 17 18 19 22 22 21 21 15 15 22 23 21
16 14 19 21 20 21 20 20 16 13 14 14 15 14 18 17
20 21 20 20 20 20 20 20 21 21 21 21 20 21 21 22
22 21 21 21 21 21 21 21 21 21 20 21 21 21 21 22
21 21 21 21 21 21 21 21 21 21 21 21 22 22 22 21
0 0 0 0 20 6 0 0 0 0 0 0 16 12 5 0
0 0 0 1 0 0 2 0 0 0 0 0 14 13 0 0
0 2 4 3 0 6 15 0 0 0 0 0 16 20 18 18
18 18 18 18 18 18 19 22 22 21 21 15 16 22 23 22
18 16 23 25 25 26 23 18 14 13 12 10 10 10 6 7
13 19 20 20 21 21 21 21 21 21 21 21 21 22 22 22
22 22 22 22 22 22 22 22 22 22 22 21 21 21 21 22
22 21 22 21 22 21 22 22 21 22 21 21 22 21 22 21
12 8 3 2 22 5 0 0 0 0 0 0 17 11 5 0
0 0 0 0 0 0 2 0 0 0 0 0 15 13 0 0
0 1 3 3 0 5 15 0 0 0 0 0 16 20 19 18
18 18 18 18 18 19 19 22 22 23 21 15 18 27 26 24
24 23 24 24 25 21 19 17 17 15 17 21 14 8 7 6
10 14 20 20 21 21 21 21 21 21 22 22 22 22 22 23
21 22 22 22 23 23 22 22 22 22 22 22 22 22 22 22
22 22 22 21 21 21 21 21 22 22 22 21 21 22 21 20
29 31 30 27 26 19 7 4 5 3 1 0 19 10 6 0
0 0 0 0 0 0 3 0 0 0 0 2 18 14 0 0
0 0 1 3 0 5 22 8 3 0 0 0 16 21 18 19
19 19 19 18 19 20 19 22 23 22 21 17 20 27 31 27
24 26 30 29 27 26 23 27 27 25 23 23 26 16 11 9
10 13 15 18 20 22 23 21 22 22 22 22 23 23 23 23
22 22 23 23 23 23 23 23 23 23 22 22 22 22 22 21
22 22 23 23 22 22 22 22 23 23 23 22 22 22 22 22
7 8 10 22 35 40 23 20 25 26 24 20 24 9 5 0
0 0 0 0 0 2 18 9 4 3 0 0 18 28 16 11
7 2 0 0 0 5 28 27 24 22 19 17 25 20 19 18
19 18 18 18 19 20 20 22 23 23 23 21 24 28 28 27
29 30 23 18 16 13 17 19 25 28 29 30 29 29 23 14
14 16 16 12 12 18 20 23 22 22 22 22 23 23 24 23
22 22 23 23 23 24 23 22 22 23 22 22 22 22 23 24
23 23 23 23 22 22 22 22 23 22 22 22 22 21 22 22
1 1 0 20 41 36 19 22 29 32 32 32 28 7 5 0
0 0 0 0 0 3 33 31 26 25 23 17 27 26 11 14
18 18 17 14 12 16 30 28 27 27 30 33 32 21 20 19
19 19 19 19 20 21 20 24 24 25 22 22 27 27 30 30
24 20 14 16 16 14 12 13 10 17 27 30 34 30 28 21
26 30 19 15 12 13 14 21 23 23 23 23 22 23 22 22
22 22 23 23 23 23 24 23 23 23 22 23 22 22 23 23
23 22 23 22 22 21 22 23 23 23 23 22 22 22 22 22
0 0 0 22 38 26 15 24 30 31 33 34 30 7 6 4
1 0 0 0 0 4 34 27 31 33 35 32 30 20 4 5
5 6 6 8 13 18 19 16 21 25 29 30 31 22 20 20
19 19 20 19 19 21 21 23 25 24 24 29 30 33 31 26
22 19 17 14 12 17 12 8 5 6 14 26 29 29 22 18
25 31 34 29 12 14 16 18 17 20 24 23 23 23 23 23
24 23 23 23 24 23 23 23 23 23 23 23 22 22 23 23
22 23 23 22 22 22 22 23 22 23 23 23 23 22 23 23
0 0 0 23 36 17 0 1 5 7 12 17 27 8 7 20
28 23 15 9 4 9 27 24 31 34 36 33 24 16 6 5
5 4 3 3 1 1 1 3 6 12 20 17 18 20 20 20
20 20 20 19 20 21 21 25 24 23 28 30 28 25 22 24
21 19 15 11 9 13 12 14 5 0 5 22 21 27 27 12
11 16 26 37 24 19 12 14 10 15 23 23 23 23 23 23
23 23 23 24 24 24 24 24 24 24 24 23 23 23 23 23
23 23 23 22 22 22 23 23 23 23 24 23 23 23 23 23
0 0 0 21 36 16 0 0 0 0 0 0 23 8 8 22
34 33 32 31 30 30 22 17 27 31 33 32 27 20 8 6
4 2 1 1 1 1 2 2 2 11 17 15 18 19 20 20
20 20 20 20 20 21 21 25 25 28 32 28 22 25 23 26
23 20 19 17 13 10 7 6 7 1 0 8 32 15 29 24
8 11 14 22 33 33 26 18 13 10 16 22 23 23 23 23
24 23 23 24 24 24 24 24 24 24 23 21 23 24 23 23
24 23 23 23 23 23 21 23 23 23 23 23 23 23 23 22
0 0 0 18 36 14 0 0 0 0 0 0 22 8 7 21
33 34 33 34 34 34 13 0 2 6 12 16 18 21 8 5
1 0 0 1 3 4 4 5 6 14 13 6 21 22 21 15
16 20 20 19 21 21 22 23 26 27 25 21 22 23 24 28
29 22 16 14 16 18 10 9 8 5 1 2 21 28 11 21
15 6 6 13 22 24 26 33 15 10 13 19 23 23 24 23
23 23 24 23 23 24 24 24 24 24 23 22 22 23 23 23
23 23 22 23 23 23 23 23 23 24 23 23 23 23 22 23
0 0 0 16 31 10 0 0 0 3 13 13 19 16 12 18
25 26 28 29 32 32 9 0 0 0 0 1 11 22 6 4
0 0 0 0 2 2 0 2 5 14 25 24 26 26 27 12
10 21 20 20 21 19 19 24 26 24 19 22 22 25 29 23
14 9 13 13 17 17 19 15 15 14 15 13 15 32 23 14
15 13 10 6 10 14 26 32 19 16 8 16 21 23 23 23
24 24 24 24 24 24 24 24 24 24 22 22 24 24 24 24
24 24 23 23 23 23 23 23 23 22 22 23 23 22 22 23
0 0 0 18 30 7 0 0 0 2 13 14 14 15 11 13
14 17 21 19 24 29 6 0 0 0 0 0 10 22 5 2
0 0 0 0 0 0 0 0 0 10 27 20 17 17 21 23
22 21 20 21 20 10 14 26 23 20 22 25 28 26 28 22
11 12 14 16 15 17 21 29 28 25 27 28 24 27 33 23
16 20 17 15 14 12 19 22 29 29 9 14 22 23 25 24
24 24 24 24 24 24 25 25 25 24 22 22 24 25 24 23
24 24 23 24 23 23 23 24 24 24 24 24 25 24 23 24
0 0 0 21 30 6 0 0 0 0 4 7 14 13 12 13
13 14 19 19 24 29 5 0 0 0 0 0 9 20 1 0
0 0 0 1 0 0 0 0 0 9 28 20 13 19 18 18
21 21 21 21 22 12 19 25 17 17 23 29 29 32 32 26
24 24 22 19 21 26 28 28 38 38 36 37 36 34 38 37
29 26 26 27 34 29 20 15 24 27 11 9 19 22 24 24
24 24 24 25 25 25 25 26 24 25 25 24 25 24 24 24
25 25 25 24 24 24 24 24 24 24 24 23 24 24 24 24
0 0 0 25 31 5 0 0 0 0 0 0 9 6 10 7
6 11 17 21 27 28 5 0 0 0 0 0 12 15 0 0
0 0 0 3 2 0 0 0 0 11 29 19 9 19 18 17
21 22 21 21 22 22 28 20 19 24 26 30 29 34 36 35
33 28 23 20 26 27 28 38 48 56 52 54 50 53 56 53
54 50 53 59 59 56 46 25 16 19 12 11 20 24 25 25
25 25 25 25 24 25 25 26 26 25 25 24 25 24 25 25
25 24 25 24 24 23 23 23 24 24 24 23 23 23 24 23
0 0 0 27 31 4 0 0 0 0 0 0 16 12 14 4
0 0 0 1 4 11 4 0 0 0 0 0 15 16 0 0
0 0 0 4 6 3 0 0 0 10 29 21 7 11 11 16
21 22 21 21 24 25 25 17 20 18 25 28 31 35 37 32
27 30 26 24 28 30 38 52 66 74 74 70 76 80 84 90
92 95 94 93 87 78 74 62 33 12 16 16 23 24 25 25
25 26 26 26 26 25 26 26 26 25 24 25 25 24 24 24
25 25 24 24 24 24 24 24 24 24 24 24 24 24 24 23
12 6 5 28 29 3 0 0 0 0 0 0 21 16 14 4
0 0 0 0 0 3 3 0 0 0 0 0 15 12 0 0
0 0 6 9 8 6 0 0 0 11 30 22 13 13 11 15
20 21 21 24 28 29 16 16 19 26 27 32 31 31 31 29
35 29 33 32 30 34 51 75 86 88 92 99 103 101 100 101
101 102 100 98 93 87 83 78 63 23 8 16 19 25 26 24
25 24 25 24 25 25 25 25 25 25 23 22 25 26 26 25
24 23 24 24 24 24 23 23 23 23 23 24 24 23 23 23
21 19 17 21 22 7 0 0 1 1 0 0 23 16 14 4
0 0 0 0 0 3 2 0 0 4 0 0 15 10 0 0
0 0 4 10 5 0 0 0 0 10 30 24 15 6 1 12
20 21 23 28 37 21 17 15 18 23 33 35 32 35 33 38
36 42 39 29 27 36 52 77 98 103 105 104 106 107 106 103
103 103 102 100 96 91 88 81 75 48 8 19 21 24 26 26
25 25 25 25 26 25 25 25 26 25 22 21 25 25 25 24
24 24 24 24 24 24 24 24 23 23 23 23 23 22 23 24
0 2 1 14 21 20 20 13 13 14 9 5 24 13 12 3
0 0 5 0 0 3 2 0 4 8 2 0 16 8 0 0
0 0 0 5 2 0 0 0 0 8 30 23 12 3 0 10
19 22 28 35 28 20 18 20 21 29 42 37 36 32 43 41
41 36 26 24 30 38 48 73 94 106 106 106 108 110 109 106
102 103 102 100 98 94 92 86 79 66 26 19 22 24 25 26
25 24 25 25 25 25 26 26 26 25 22 20 25 25 25 25
24 24 24 23 24 25 24 23 23 23 23 23 23 22 23 23
0 6 1 16 21 16 10 11 18 25 28 28 29 17 12 3
0 3 10 0 0 4 13 7 12 11 8 1 18 7 0 0
0 0 0 5 4 0 0 0 0 7 30 20 5 1 0 8
20 28 29 34 25 23 26 25 29 38 44 38 41 43 47 44
41 32 30 27 33 38 49 69 89 100 102 105 106 109 109 108
105 102 101 99 102 98 95 92 83 75 48 22 24 25 26 25
25 26 25 26 26 26 25 26 26 25 23 22 25 24 25 25
24 25 24 24 24 24 24 24 23 23 23 23 22 22 23 23
2 0 3 21 22 11 0 0 0 3 13 30 30 17 10 3
0 0 2 0 0 6 28 28 30 28 27 26 31 7 0 0
0 0 0 6 4 0 0 0 0 5 30 16 2 1 0 14
20 28 32 31 27 30 32 32 38 39 41 48 49 51 50 49
35 35 31 32 31 37 49 67 86 90 103 106 106 108 109 110
108 107 105 105 102 101 98 94 87 78 61 26 25 25 26 26
25 25 25 25 25 25 25 25 25 26 25 25 25 26 25 25
25 24 25 24 24 24 24 23 24 23 23 23 24 23 23 23
12 2 0 22 24 9 0 0 10 8 11 29 26 15 13 8
1 0 0 0 0 6 29 29 31 30 32 37 37 17 7 8
2 1 1 9 5 0 0 0 0 3 28 14 1 0 0 14
24 30 36 31 30 37 34 37 33 40 52 53 53 52 48 43
40 38 37 35 34 42 52 73 81 96 97 102 105 106 110 113
114 110 107 104 101 99 98 96 90 79 67 38 25 26 26 26
25 25 25 26 25 25 25 25 25 25 25 25 25 25 25 25
24 24 25 24 25 24 25 24 24 23 23 23 22 22 23 23
5 0 0 25 25 8 0 0 7 18 20 28 21 12 13 12
1 0 0 0 0 6 27 28 29 29 33 36 37 27 23 22
20 18 18 18 13 10 7 6 4 8 24 15 5 3 4 10
20 31 35 28 35 35 36 36 38 46 52 48 53 55 56 56
45 41 36 37 39 43 57 69 79 85 96 101 104 108 110 113
114 113 110 106 102 100 98 96 91 83 72 52 25 25 25 25
25 25 25 25 25 25 25 25 25 25 25 25 26 25 25 25
25 24 24 23 23 24 23 24 23 22 23 23 23 22 22 23
6 0 1 27 27 9 0 0 0 4 20 30 18 13 15 8
0 0 0 0 0 7 26 24 25 26 26 22 23 25 25 26
25 24 25 24 23 21 18 15 14 16 25 23 17 15 13 14
20 35 30 31 37 33 36 38 47 50 49 54 58 53 57 58
50 41 39 40 43 48 59 66 74 78 88 95 106 109 109 112
115 115 114 109 104 102 99 97 91 85 76 63 29 25 25 26
25 25 26 25 26 25 26 26 26 26 25 24 25 24 25 25
24 24 24 23 24 24 24 24 23 23 23 23 23 22 22 23
0 0 2 28 28 8 0 0 0 0 18 31 17 13 14 13
9 6 4 1 1 9 29 23 23 23 24 23 23 26 27 28
29 28 25 25 25 25 29 26 23 22 27 32 31 30 28 25
26 34 28 37 37 31 40 45 51 47 43 51 55 57 56 50
41 39 40 45 46 52 61 68 71 72 82 95 104 106 108 112
114 116 115 110 108 105 101 97 91 88 80 67 40 25 25 26
25 25 25 25 26 26 25 24 25 25 25 25 25 25 25 25
24 25 24 24 24 24 23 23 24 23 23 23 23 23 23 23
0 0 1 28 27 6 0 0 0 0 16 32 17 13 14 25
33 32 29 30 29 29 32 25 25 25 25 26 29 30 28 30
34 34 26 23 24 28 34 32 29 28 27 22 20 21 23 25
32 31 32 42 38 44 38 50 45 35 45 52 56 46 38 42
43 40 44 45 51 57 63 62 61 60 78 90 104 115 115 115
117 116 115 113 110 108 105 101 95 91 85 71 56 25 25 25
25 26 26 26 26 26 25 25 26 25 25 25 25 24 25 25
25 25 25 24 25 25 24 24 24 24 23 23 23 22 22 22
0 0 2 28 27 4 0 0 0 0 17 33 17 12 15 28
39 39 38 38 39 39 35 26 24 24 25 29 33 34 29 30
33 32 26 22 19 26 33 32 30 30 28 24 18 15 16 20
33 27 34 46 40 42 44 46 34 44 50 49 37 35 40 44
42 43 45 46 56 61 61 58 60 62 79 102 116 118 117 116
116 115 115 111 109 108 106 104 101 97 91 75 64 32 25 25
25 25 25 26 25 25 25 25 24 24 24 23 23 23 24 25
24 24 24 24 23 24 24 23 23 23 23 23 23 23 23 23
0 0 2 29 28 4 0 0 0 0 16 30 14 13 14 20
26 27 30 32 34 36 30 7 8 5 7 11 21 33 29 24
19 22 23 20 20 22 20 16 18 23 25 26 23 20 21 25
31 24 36 44 45 40 48 38 44 42 37 37 45 44 41 42
45 43 45 49 59 59 63 60 57 69 91 115 118 118 119 118
118 116 115 113 108 106 105 106 107 102 95 82 66 42 24 25
24 25 25 25 25 26 25 25 25 25 24 24 24 24 24 24
24 24 24 23 24 23 23 24 24 24 23 23 22 23 23 23
0 0 2 29 28 4 0 0 0 0 15 29 14 13 14 16
18 18 17 17 18 19 19 1 0 0 0 0 3 31 27 9
0 2 3 5 18 22 8 0 0 2 6 17 25 22 26 30
26 21 40 45 42 43 45 41 41 42 43 46 46 41 37 35
39 44 48 52 57 58 61 60 60 85 115 119 119 119 119 119
118 117 113 110 105 99 96 89 94 100 97 86 70 54 25 25
25 26 26 26 25 24 25 26 25 26 25 25 25 25 25 25
25 25 24 24 24 24 23 24 23 24 23 23 23 23 23 23
12 14 17 30 26 3 0 0 0 0 19 33 14 11 13 21
25 25 24 23 22 22 18 1 0 0 0 0 8 30 18 0
0 0 0 2 21 24 7 0 0 0 3 15 12 11 18 26
20 23 39 44 43 46 45 45 42 42 44 37 40 36 30 28
38 44 44 49 57 62 56 57 77 103 119 119 119 119 119 119
116 101 87 81 74 50 29 9 1 20 51 82 71 59 25 25
25 25 26 26 25 25 26 26 25 25 25 25 24 24 25 24
24 24 24 24 24 24 24 24 24 25 23 23 23 23 23 22
29 30 29 23 15 6 3 1 0 0 21 32 13 11 14 22
26 26 26 26 26 27 19 1 0 0 0 0 9 29 11 0
0 0 0 0 21 23 6 0 0 0 2 15 6 3 15 26
19 26 38 48 44 42 33 18 10 13 24 39 39 37 32 32
37 39 39 43 56 54 52 64 89 112 112 94 80 70 65 63
53 61 79 87 77 82 50 10 0 0 0 9 58 62 28 26
25 25 25 25 25 24 25 26 25 25 25 25 25 24 24 25
24 24 25 24 24 24 23 23 23 24 23 23 23 23 23 24
28 28 28 27 24 25 25 22 21 18 25 25 15 15 16 16
17 20 22 23 25 29 21 0 0 0 0 0 2 27 7 0
0 0 0 1 23 22 6 0 0 0 1 15 6 4 16 26
20 27 43 42 32 27 19 7 6 17 20 26 33 30 32 32
33 31 34 43 49 43 43 46 58 63 70 88 103 105 91 79
73 60 52 39 23 5 0 0 0 0 0 0 13 56 21 25
24 23 22 22 22 21 22 23 25 26 25 25 25 25 24 24
25 24 24 24 24 24 24 24 23 23 23 23 23 23 22 22
24 24 24 24 24 24 24 24 24 25 24 24 24 24 23 22
20 19 19 19 19 27 26 3 0 0 0 0 1 25 5 0
0 0 0 1 22 21 4 0 0 0 0 14 7 4 21 28
21 26 42 30 25 23 14 12 13 16 19 22 27 27 26 24
24 25 31 34 37 38 35 44 58 55 54 50 50 50 52 55
56 53 50 52 23 5 2 15 0 0 0 1 1 30 8 6
20 17 6 6 6 5 5 14 25 25 25 25 25 25 24 25
25 25 24 23 24 24 24 24 23 23 23 23 23 23 23 23
23 24 24 23 24 24 24 23 24 23 23 22 23 23 23 24
23 23 24 24 24 27 28 5 0 0 0 1 1 25 4 0
0 0 0 0 23 21 6 0 0 0 0 12 8 6 35 30
20 29 38 30 27 23 14 12 12 13 13 16 20 23 23 19
20 21 22 27 34 35 51 71 94 113 118 119 119 119 117 114
105 108 109 103 53 29 15 15 0 0 0 1 2 3 0 1
10 15 1 1 2 2 2 13 26 25 26 24 24 25 24 25
24 23 24 23 23 23 23 24 23 23 24 23 23 23 23 22
17 17 17 18 18 19 19 20 20 20 21 21 21 22 22 23
23 23 23 23 23 25 25 0 0 0 0 0 2 25 4 0
0 0 0 0 20 21 6 0 0 0 0 12 12 16 38 34
22 35 39 28 28 23 13 15 16 8 3 5 12 17 14 20
25 28 30 32 35 50 76 95 109 118 119 118 119 119 119 118
117 114 108 100 44 23 10 15 0 0 0 0 1 1 0 3
7 14 2 2 3 1 2 12 25 25 25 25 24 25 24 24
23 23 24 23 23 23 22 23 23 23 23 22 23 23 23 23
0 0 0 0 0 1 1 1 2 1 2 2 3 4 5 6
7 8 10 17 22 25 22 0 0 0 0 0 1 25 4 0
0 0 0 0 21 21 5 0 0 0 0 12 18 35 42 36
28 41 32 26 32 16 15 19 18 9 0 2 2 6 9 14
22 26 22 25 42 61 91 100 106 117 120 119 119 119 118 118
117 111 100 77 32 13 4 17 0 0 0 0 3 12 0 2
10 13 2 2 2 1 2 12 25 26 26 25 25 25 24 24
24 24 23 24 24 23 24 24 24 24 23 23 24 24 24 23
0 0 0 0 0 0 0 0 0 0 0 0 0 0 0 0
0 0 0 17 22 24 22 2 0 0 0 3 2 25 10 1
1 2 0 1 21 22 10 4 3 3 3 15 31 42 38 34
39 44 30 29 32 21 17 18 12 7 2 0 0 3 6 17
25 18 19 32 44 70 82 91 97 116 119 119 120 120 119 119
117 108 96 54 21 15 5 14 0 0 0 0 3 14 3 2
15 15 3 3 4 3 3 11 26 26 25 25 25 25 24 24
24 24 24 24 24 23 23 23 24 24 23 23 24 23 24 23
0 0 0 0 0 0 0 0 0 0 0 0 0 0 0 0
0 0 0 20 24 24 30 28 23 20 22 24 22 26 30 28
26 27 26 27 33 25 24 27 26 28 31 34 37 35 33 33
45 40 29 35 32 22 14 12 12 11 16 22 33 29 10 14
16 22 31 29 45 71 71 82 102 118 120 120 120 120 119 120
117 110 97 67 27 14 5 11 0 0 0 0 7 38 41 0
14 17 8 8 8 8 8 11 24 25 25 25 25 25 24 24
24 24 25 24 24 24 24 24 24 24 24 24 24 24 24 24
0 0 0 0 0 0 0 0 0 0 0 0 0 0 0 0
0 0 0 20 24 23 31 34 29 30 31 28 24 22 33 39
36 36 37 39 39 29 25 31 32 35 39 40 36 35 32 37
48 36 30 36 35 22 11 8 12 24 38 77 106 104 74 35
42 42 33 24 49 59 55 92 107 117 120 120 119 119 119 119
118 117 113 86 41 21 7 3 0 0 0 1 13 51 78 18
13 17 5 6 5 6 6 11 23 25 26 25 24 24 24 24
24 24 24 24 24 23 24 24 23 23 23 23 23 23 22 23
0 0 0 0 0 0 0 0 0 0 0 0 0 0 0 0
0 0 0 19 24 23 30 29 25 28 30 29 22 19 23 28
28 28 29 32 32 28 19 25 27 33 39 34 37 34 32 39
45 34 31 35 36 20 10 10 24 34 69 108 98 68 93 92
94 74 39 24 45 49 81 107 114 119 120 119 120 119 120 119
118 117 116 97 45 27 12 0 0 0 0 12 14 72 104 70
16 15 4 4 4 4 3 10 25 26 26 25 26 25 24 25
25 23 24 24 23 23 23 23 23 23 23 23 23 23 22 23
0 0 0 0 0 0 0 0 0 0 0 0 0 0 0 0
0 0 0 18 24 22 27 18 20 21 25 28 23 21 18 15
15 15 16 16 18 21 22 23 27 34 31 31 34 30 29 35
44 37 35 37 32 24 11 10 25 48 94 109 115 76 71 105
107 94 44 47 61 91 111 118 118 116 120 120 119 119 119 119
119 117 114 104 51 31 18 1 0 0 1 30 16 88 112 105
51 15 4 4 4 3 3 10 25 25 25 24 24 24 24 25
25 24 24 24 24 24 24 24 23 23 23 22 22 22 22 23
0 0 0 0 0 0 0 0 0 0 0 0 0 0 0 0
0 0 0 17 25 22 27 6 4 5 8 11 11 17 20 18
19 21 23 21 21 26 27 29 35 32 30 34 30 28 29 35
44 38 36 32 25 22 13 15 29 61 103 105 115 101 99 106
106 109 96 99 103 111 117 119 119 119 120 119 119 120 119 119
118 117 115 112 65 34 22 6 0 0 20 33 33 99 114 110
93 28 3 3 3 3 3 10 25 26 25 25 25 25 25 25
24 24 23 24 24 23 23 23 23 23 23 23 22 22 22 23
0 0 0 0 0 0 0 0 0 0 0 0 0 0 0 0
0 0 0 15 25 21 27 5 0 0 0 0 2 18 22 28
29 31 37 29 19 20 26 30 35 35 37 32 26 29 30 37
42 38 34 28 24 21 14 15 29 73 105 107 112 112 107 102
109 115 113 112 109 115 115 117 117 119 119 119 119 119 119 119
119 118 118 114 90 38 27 16 1 4 38 19 64 107 117 110
104 75 7 4 3 3 3 11 25 25 25 24 24 24 24 24
23 24 24 24 24 24 24 24 23 22 23 23 22 22 22 22
0 0 0 0 0 0 0 0 0 0 0 0 0 0 0 0
0 0 0 13 24 20 28 7 0 0 0 0 1 21 20 27
26 21 29 21 0 0 5 13 22 36 40 32 28 30 32 41
42 35 33 26 23 14 17 15 27 81 101 113 114 109 50 100
114 116 112 114 114 116 115 115 115 117 119 120 119 119 119 119
119 118 118 115 107 61 30 26 12 10 25 35 95 110 116 112
105 96 37 2 3 3 4 12 24 25 25 24 24 24 24 24
24 24 23 23 23 22 22 22 22 22 22 21 22 22 22 22
0 0 0 0 0 0 0 0 0 0 0 0 0 0 0 0
0 0 0 13 24 21 24 6 0 0 0 0 0 22 19 27
18 1 10 16 0 0 1 7 16 36 35 29 27 29 34 40
40 36 32 27 24 16 16 16 30 78 98 116 101 104 67 102
115 120 117 116 113 115 116 115 115 117 118 119 119 119 119 119
118 118 118 114 110 98 60 37 37 42 68 100 86 100 111 109
107 104 79 5 4 4 3 12 25 25 24 24 24 24 24 24
24 24 24 23 23 23 23 23 22 23 22 21 22 22 22 21
0 0 0 0 0 0 0 0 0 0 0 0 0 0 0 0
0 0 0 11 24 20 11 0 0 0 0 0 1 23 19 27
17 0 7 16 0 0 1 6 16 40 34 29 28 30 39 44
39 36 31 28 23 16 16 19 36 73 101 116 96 104 108 88
98 121 120 117 114 115 117 117 115 115 117 118 118 118 119 118
118 118 115 112 107 103 97 89 89 102 109 103 92 103 108 110
112 115 104 20 3 3 2 11 25 25 25 24 24 24 24 24
24 24 23 24 24 23 23 23 22 22 22 22 22 22 22 22
0 0 0 0 0 0 0 0 0 0 0 0 0 0 0 0
0 0 0 10 23 20 9 0 0 0 0 0 1 23 17 27
17 0 7 18 0 0 1 5 30 37 34 27 29 31 38 47
38 37 29 29 24 21 18 25 43 69 101 116 96 107 115 70
99 121 120 118 115 114 117 119 118 117 117 117 117 115 117 118
118 116 113 111 106 103 98 99 103 102 101 107 111 114 113 111
111 111 97 33 11 11 13 16 24 25 24 24 24 24 24 23
24 23 24 23 23 23 23 23 23 22 22 21 22 22 21 22
0 0 0 0 0 0 0 0 0 0 0 0 0 0 0 0
0 0 0 10 23 19 8 0 0 0 0 0 1 23 18 28
14 0 7 18 2 0 4 16 35 36 32 29 31 35 42 44
36 38 27 30 23 20 19 23 44 71 91 115 101 107 107 87
108 119 120 119 117 116 116 119 118 119 119 119 117 116 117 117
118 116 113 111 107 101 100 100 103 98 100 103 109 103 76 53
44 81 71 27 24 24 24 24 24 24 25 25 25 24 24 24
23 23 24 23 23 22 23 22 22 22 22 22 22 22 22 22
0 0 0 0 0 0 0 0 0 0 0 0 0 0 0 0
0 0 0 10 24 20 8 0 0 0 0 0 0 23 20 29
18 0 9 20 4 2 11 17 39 34 32 31 28 39 44 45
40 40 31 34 29 25 16 20 39 60 81 105 112 101 101 103
106 98 119 120 117 114 117 119 119 120 119 119 118 117 117 118
116 115 114 112 107 104 104 103 103 97 99 95 88 79 96 99
84 65 33 27 26 26 26 26 26 26 26 26 25 24 24 25
24 24 24 24 24 24 24 24 23 23 23 22 23 23 22 22
0 0 0 0 0 0 0 0 0 0 0 0 0 0 0 0
0 0 0 10 23 19 8 1 1 0 2 8 1 24 21 30
21 9 7 19 5 7 10 24 36 33 35 32 33 41 47 42
41 42 31 32 30 25 23 19 27 42 74 87 109 114 116 119
108 93 119 119 116 114 116 118 119 119 119 119 118 118 118 117
115 114 114 111 109 107 106 108 103 97 100 98 90 99 97 80
45 27 26 26 25 25 25 25 24 24 24 25 24 25 25 25
24 24 24 23 23 22 23 23 22 22 22 22 22 22 23 22
0 0 0 0 0 0 0 0 0 0 0 0 0 0 0 0
0 0 0 9 24 20 13 8 10 6 9 15 11 26 24 31
19 14 8 18 4 8 13 32 31 33 40 29 38 42 48 44
42 45 35 31 35 35 29 20 18 28 60 81 87 106 111 117
119 118 118 118 115 115 117 118 119 119 120 119 119 119 118 117
114 114 115 114 114 114 113 112 105 99 100 102 101 97 85 35
25 26 26 25 25 24 26 26 25 25 25 25 24 24 24 24
24 24 23 23 23 22 23 23 22 23 22 22 22 22 23 22
0 0 0 0 0 0 0 0 0 0 0 0 0 0 0 0
0 0 0 9 24 19 23 32 34 34 34 35 34 38 29 31
14 15 11 20 12 12 17 34 29 35 38 34 39 51 53 45
45 46 41 39 42 41 36 17 15 22 45 78 84 88 103 112
113 110 113 115 113 109 114 117 118 120 119 120 120 118 117 117
115 112 114 116 117 117 116 114 106 100 99 100 93 79 59 33
26 26 26 26 24 24 25 25 24 24 25 24 23 24 24 24
24 23 23 23 23 23 22 23 22 22 22 22 22 22 23 22
0 0 0 0 0 0 0 0 0 0 0 0 0 0 0 0
0 0 0 10 24 19 28 40 40 40 40 40 40 41 34 30
9 6 11 23 17 19 22 36 30 34 39 36 46 52 57 46
49 45 50 44 50 45 44 15 14 19 43 73 82 83 84 96
105 103 105 110 110 108 112 116 119 119 120 120 120 119 118 118
116 114 115 117 119 118 118 115 107 99 94 89 78 71 53 34
25 26 25 25 24 24 25 25 24 25 25 24 23 24 24 23
24 24 23 23 22 22 22 23 22 22 22 22 22 23 22 22
0 0 0 0 0 0 0 0 0 0 0 0 0 0 0 0
0 0 0 10 23 18 21 26 27 27 27 27 28 27 27 28
9 1 6 23 20 21 22 32 28 36 39 39 49 52 56 47
52 42 53 47 52 50 43 8 13 23 58 87 91 88 85 84
89 91 85 99 105 106 112 114 119 119 119 120 120 120 120 120
117 114 117 119 119 119 118 115 106 94 87 89 80 73 54 36
26 25 26 25 24 23 25 24 24 24 23 23 23 24 23 24
24 24 23 23 23 22 23 23 22 21 22 21 22 26 27 27
0 0 0 0 0 0 0 0 0 0 0 0 0 0 0 0
0 0 0 11 23 19 15 11 11 11 11 12 12 11 14 27
9 0 6 24 22 25 23 27 31 41 42 40 50 58 50 49
50 39 53 43 56 46 41 11 3 22 72 101 103 111 107 99
104 106 84 99 100 105 111 113 118 120 119 120 119 120 119 119
117 115 118 119 119 119 119 114 101 80 75 83 89 73 62 34
24 25 25 25 23 22 24 25 24 24 24 24 23 23 23 24
24 23 23 23 23 22 22 23 25 27 26 25 25 34 35 34
0 0 0 0 0 0 0 0 0 0 0 0 0 0 0 0
0 0 0 10 22 18 16 13 12 12 13 12 13 11 14 27
11 2 7 24 20 22 23 25 34 44 40 42 50 59 44 56
47 39 55 42 51 44 37 9 2 18 68 100 109 115 122 121
121 118 109 100 96 101 108 111 114 117 119 120 119 120 119 119
117 116 118 120 119 119 118 111 85 62 67 74 69 66 50 26
25 25 25 24 23 22 25 25 24 24 23 23 23 23 23 23
23 23 23 22 22 22 22 22 32 41 41 40 40 39 39 39
0 0 0 0 0 0 0 0 0 0 0 0 0 0 0 0
0 0 0 13 24 18 18 18 17 16 15 15 14 12 17 29
22 23 27 27 20 22 22 25 39 46 34 45 56 52 45 59
47 45 59 38 49 41 34 9 2 14 66 97 111 115 121 121
120 118 111 98 91 94 100 109 112 116 117 119 118 119 119 117
117 116 118 119 119 118 117 108 68 60 72 77 74 63 41 25
24 25 24 24 22 20 24 25 24 23 23 23 23 23 23 24
23 23 23 23 22 22 22 22 35 43 43 42 42 41 41 42
1 0 1 1 1 2 3 3 4 4 4 5 5 6 7 7
7 7 8 18 22 17 17 17 17 17 18 17 17 14 17 27
24 30 32 25 20 22 22 23 41 43 41 45 58 44 51 56
48 52 57 38 51 39 33 5 3 14 60 95 111 115 120 121
121 120 113 96 87 93 96 103 106 112 115 117 117 116 118 116
117 117 118 119 119 118 117 102 79 102 105 101 97 88 61 27
22 24 24 24 22 18 23 24 24 23 23 23 23 23 22 23
23 23 23 23 22 22 22 22 37 42 42 41 41 41 41 41
7 7 9 10 12 12 13 14 15 15 15 16 17 17 17 17
18 17 17 18 18 17 18 18 17 17 17 17 16 14 14 18
17 18 19 19 20 25 22 23 44 39 47 46 58 45 54 54
48 57 55 42 51 38 33 8 5 19 53 92 112 116 120 121
120 120 114 97 84 88 95 99 102 109 112 113 115 113 115 116
116 118 119 119 118 118 115 101 93 104 105 102 95 78 50 13
6 8 14 22 21 17 23 24 24 23 23 23 23 23 23 23
23 23 23 22 22 22 21 22 38 42 42 41 42 41 41 41
7 6 7 11 12 13 14 14 15 16 16 16 18 17 18 17
18 18 17 17 17 17 17 18 18 17 17 16 17 15 16 18
18 16 19 19 20 24 22 24 40 42 48 50 56 47 57 55
45 62 60 46 54 42 29 6 10 24 52 91 113 117 121 121
121 121 117 102 81 84 92 97 100 104 106 110 112 112 113 115
117 119 119 119 118 117 113 101 102 104 102 92 81 58 37 1
0 0 1 17 17 8 18 24 24 24 23 23 24 24 24 24
24 23 24 23 23 23 23 23 40 42 41 41 41 40 41 41
7 6 8 10 11 13 14 14 14 15 15 17 16 16 16 16
16 15 15 16 15 16 18 19 19 18 18 17 17 15 15 17
18 17 18 19 20 24 22 23 39 48 51 56 50 50 57 50
42 67 55 51 59 44 26 8 14 26 56 88 107 115 120 120
120 120 119 107 81 79 89 94 98 101 106 108 110 110 113 115
116 119 118 118 118 116 109 100 104 104 99 87 67 50 21 0
0 0 0 12 12 6 16 23 23 23 23 22 22 22 22 22
22 21 21 21 20 20 20 21 40 41 41 41 41 41 40 41
1 2 2 3 4 5 6 6 7 7 7 6 4 3 3 3
6 12 13 14 15 17 18 18 18 18 18 17 16 16 17 18
19 18 18 19 23 23 21 23 39 53 54 59 52 49 57 47
48 68 56 59 62 46 26 5 11 24 56 85 106 115 120 121
121 120 120 114 91 78 83 91 98 101 105 109 109 110 111 112
117 117 115 119 119 117 112 103 102 103 98 83 63 44 9 0
0 0 5 13 12 11 20 22 23 22 22 22 22 22 22 22
21 21 20 20 20 20 19 22 41 41 40 40 40 40 40 40
0 0 0 0 0 1 5 7 8 10 11 8 7 6 0 0
2 13 15 16 18 18 18 18 18 18 18 18 17 16 17 18
18 18 19 19 23 22 21 24 36 52 51 58 53 54 57 47
57 64 57 61 67 44 17 4 12 24 54 84 105 116 121 121
120 120 121 117 102 84 81 89 95 96 101 106 108 108 109 113
113 116 118 118 118 118 113 107 104 103 100 89 71 45 7 0
0 0 0 2 2 10 21 22 23 22 22 22 22 22 22 22
21 21 20 19 19 19 18 24 41 41 41 41 41 40 40 40
0 0 0 0 0 10 27 28 28 28 28 27 27 27 11 0
4 13 15 16 17 17 17 17 18 18 19 18 18 17 17 18
19 19 19 19 22 22 23 26 35 41 41 49 52 58 58 47
58 62 59 64 64 38 10 8 16 27 53 82 106 116 121 121
121 121 121 119 113 96 81 79 89 95 97 98 103 104 108 110
110 115 116 116 118 118 111 97 97 102 100 94 85 58 25 0
0 0 0 0 0 6 17 19 22 22 22 22 22 22 22 21
21 20 20 20 20 19 17 26 41 41 41 40 40 40 40 40
0 0 0 0 1 13 31 30 31 31 29 28 35 37 24 7
8 11 14 15 17 18 18 18 19 19 19 19 19 18 19 18
18 19 20 21 21 23 24 32 36 35 35 48 54 62 55 50
55 58 55 58 55 26 10 11 22 31 52 80 106 117 121 121
121 122 121 120 116 105 96 91 87 89 93 91 94 97 101 105
107 109 110 113 114 116 103 92 102 104 99 96 91 69 43 6
0 0 0 0 0 4 14 15 21 22 22 22 23 22 21 21
21 21 20 20 20 19 16 29 42 41 40 41 41 41 41 41
0 0 6 12 13 16 32 35 37 36 35 36 38 39 30 14
13 11 12 15 17 18 21 20 20 20 21 20 21 20 20 19
19 20 21 21 22 24 24 37 32 28 30 38 55 63 54 51
54 51 50 48 43 20 12 15 27 36 54 80 107 118 122 122
121 122 122 121 119 110 102 102 100 96 94 90 86 85 86 91
96 99 102 106 109 107 96 89 99 96 95 95 91 71 46 3
0 0 0 0 0 2 14 15 21 22 22 22 22 21 22 22
21 20 18 16 15 15 14 31 42 41 41 41 41 40 41 40
4 5 11 13 14 15 24 27 25 26 25 25 24 24 20 13
13 12 12 11 11 11 22 19 20 21 21 21 21 21 21 20
19 20 21 20 21 23 28 38 31 22 25 31 52 60 54 54
52 46 45 42 34 15 13 18 30 41 57 81 104 117 122 122
122 122 122 122 120 113 109 108 107 107 104 103 98 92 86 79
79 84 89 96 97 91 79 82 85 76 82 88 84 67 47 9
0 0 0 0 0 0 12 14 20 21 22 22 23 22 22 22
21 16 2 0 0 0 0 20 30 31 33 33 34 35 36 36
9 10 11 12 13 13 14 14 15 17 18 19 19 20 15 6
7 6 7 7 6 9 22 20 19 19 20 20 21 21 20 20
20 19 21 20 22 22 29 37 30 19 20 26 48 54 51 56
51 42 42 36 32 17 17 22 33 43 60 80 104 116 123 123
123 122 121 122 120 117 113 109 112 112 108 107 105 102 97 92
90 81 80 81 82 68 60 63 60 62 64 72 69 57 41 2
0 0 0 0 0 1 13 13 19 22 21 21 22 21 22 21
20 8 0 0 0 0 0 0 0 1 1 1 2 2 3 4
8 4 2 2 1 1 1 1 1 10 19 19 20 20 15 6
5 6 5 6 6 7 20 20 18 18 18 18 18 19 19 18
18 19 20 20 21 24 30 37 27 18 23 22 44 51 55 56
47 41 41 30 29 16 18 25 35 47 63 81 103 115 123 123
122 121 121 121 121 119 117 117 116 114 113 109 106 103 101 97
95 91 85 80 71 59 42 37 45 48 57 59 57 47 26 0
0 0 0 0 5 9 12 12 17 21 20 21 21 21 21 21
18 6 0 0 0 0 0 0 0 0 0 0 0 0 0 0
7 1 0 0 0 0 0 0 0 9 18 19 19 19 15 5
5 5 4 4 4 6 18 20 18 16 17 17 17 16 17 17
17 19 20 21 21 24 31 40 29 21 25 21 42 50 52 57
44 45 43 31 30 17 17 29 38 48 63 76 99 113 121 122
122 121 121 121 122 121 121 120 118 115 113 111 109 106 101 97
92 87 82 77 71 62 50 26 29 35 41 39 39 29 8 5
5 0 0 1 12 13 14 17 20 21 20 21 20 19 19 20
17 21 23 20 14 11 9 7 6 5 3 2 1 1 0 0
7 4 2 3 5 6 8 10 13 16 18 19 19 20 16 8
9 11 12 13 12 6 17 20 16 17 17 16 16 15 16 16
16 18 18 19 19 23 29 40 30 25 31 22 39 53 49 61
43 48 49 33 33 22 21 31 39 48 61 74 97 113 121 122
121 117 119 121 121 121 121 121 119 119 117 114 111 105 98 89
81 75 67 56 45 36 39 26 21 23 20 24 21 7 0 6
11 0 0 1 10 11 15 20 20 20 21 21 20 21 20 19
19 38 42 41 41 40 40 39 38 37 36 35 33 32 30 28
9 9 12 13 15 16 17 19 20 22 22 22 23 24 23 21
21 22 22 21 21 20 21 19 17 16 16 16 16 16 16 16
17 18 19 19 20 23 29 31 32 29 33 21 35 52 50 61
44 56 60 42 33 32 27 32 41 51 58 70 94 111 120 121
120 114 116 122 122 121 121 121 121 120 119 115 108 102 92 77
45 24 13 15 13 7 28 19 4 7 10 10 1 0 1 6
15 3 0 1 11 11 14 18 19 20 20 20 20 19 19 18
19 39 43 43 43 42 43 42 43 43 42 41 42 42 41 41
14 14 15 18 18 16 16 17 18 22 20 20 20 22 23 21
20 21 22 24 25 27 27 21 17 17 16 16 16 16 20 22
22 21 18 18 18 20 27 26 30 32 37 27 33 53 52 67
49 65 68 53 35 36 40 34 43 52 60 66 91 110 120 121
120 121 120 121 121 120 121 121 121 120 117 112 106 93 74 33
9 9 6 3 5 1 21 26 8 0 5 9 0 0 0 12
7 5 0 0 5 2 1 3 4 9 16 19 19 20 19 18
22 42 43 42 42 42 42 42 42 42 42 41 42 41 42 41
11 12 13 16 18 17 19 19 21 23 23 24 25 26 27 25
21 19 20 24 27 28 31 30 26 24 19 16 15 16 29 34
35 28 18 18 18 15 23 23 22 31 39 35 33 53 51 71
51 71 74 62 37 36 48 41 47 51 58 67 80 108 119 122
120 119 120 121 122 121 121 121 120 120 116 108 98 82 69 37
20 25 14 1 0 0 11 26 17 0 0 1 0 0 0 5
0 0 1 0 0 0 3 3 2 0 2 9 17 19 19 16
23 42 42 42 42 43 43 43 42 42 41 42 42 41 41 40
16 17 18 18 19 20 21 22 24 24 26 26 27 28 28 30
29 24 22 24 26 28 31 31 30 29 26 20 13 13 29 36
37 29 17 17 14 9 17 19 19 25 41 41 36 54 55 69
59 72 71 58 41 36 46 48 49 50 52 68 74 100 117 122
119 118 119 122 121 119 118 119 120 117 113 104 88 80 72 53
38 49 69 47 5 0 2 16 7 1 1 0 0 0 0 0
0 0 0 0 5 8 8 7 6 5 0 0 6 16 18 16
26 43 42 42 42 42 42 42 42 42 42 41 41 41 41 40
18 16 20 19 20 21 22 22 24 25 26 26 27 28 27 28
27 26 25 25 23 21 19 17 16 14 12 11 11 11 15 16
16 15 14 15 14 11 18 24 22 23 41 49 41 52 58 67
64 68 63 56 42 36 46 49 53 52 51 66 71 92 114 120
121 119 120 120 120 118 117 117 117 115 109 97 85 78 76 62
59 78 91 99 78 20 0 2 3 17 8 0 0 2 3 0
0 0 0 7 8 6 7 8 8 9 3 0 0 6 16 14
28 42 42 42 42 42 42 42 42 42 41 41 42 41 41 40
7 7 10 9 9 10 12 12 13 14 14 13 13 12 11 9
8 6 5 3 3 1 0 1 5 7 7 7 6 5 5 4
2 2 12 16 16 15 19 27 40 26 38 52 50 53 63 61
68 63 52 52 42 34 41 53 55 55 52 65 66 92 115 120
119 120 120 119 119 118 117 113 112 112 105 89 82 78 78 63
32 97 100 103 103 93 38 5 26 35 15 2 1 10 9 0
0 0 0 4 6 7 9 12 13 13 13 4 0 0 9 13
32 43 42 42 42 42 41 41 41 41 41 41 41 41 40 40
0 0 0 0 0 0 0 0 0 0 0 0 0 0 0 0
0 0 0 0 0 0 0 0 0 0 0 0 0 0 0 0
2 6 14 17 17 17 18 25 39 25 49 62 59 63 72 62
68 63 53 52 49 41 44 51 59 57 60 69 65 84 114 120
119 121 121 120 119 117 116 115 113 108 95 85 82 83 79 64
8 76 106 108 110 113 106 73 47 37 26 8 3 10 7 0
0 4 0 1 3 7 9 8 10 12 13 11 2 0 1 10
35 43 43 42 42 42 42 42 41 42 41 41 41 40 40 40
0 0 0 0 0 0 0 0 0 0 0 0 0 0 0 0
0 0 0 0 0 0 0 0 0 0 0 0 0 0 0 0
9 14 15 16 15 16 17 18 32 73 104 63 71 82 79 71
64 68 59 52 55 44 47 53 57 58 66 68 63 83 112 121
120 120 119 118 119 118 116 112 108 97 85 86 88 88 82 67
10 33 106 111 118 121 121 113 106 89 51 5 2 8 2 0
3 7 2 0 1 5 8 7 8 8 10 13 9 0 0 7
37 43 43 42 43 42 41 41 41 41 41 40 41 40 40 40
0 0 0 0 0 0 0 0 0 0 0 0 0 0 0 0
0 0 0 0 0 0 0 0 0 0 0 0 0 0 0 0
10 15 16 16 16 30 66 96 106 112 113 103 102 109 93 79
66 70 67 60 55 52 47 54 55 63 62 64 61 81 105 120
119 119 120 120 119 118 113 108 98 87 89 91 95 93 83 70
24 9 101 120 120 121 121 119 116 119 115 65 23 4 0 3
4 5 2 0 4 7 8 11 10 11 12 15 13 5 0 4
37 41 42 41 41 41 42 41 41 41 41 40 40 40 39 39
0 0 0 0 0 0 0 0 0 0 0 0 0 0 0 0
0 0 0 0 0 0 0 0 0 0 0 0 0 1 3 6
12 16 18 32 81 109 113 112 112 113 119 121 123 121 108 84
80 68 74 68 66 62 56 55 60 65 59 58 56 83 104 117
119 120 120 120 119 116 111 101 92 89 93 97 102 99 86 73
38 6 91 122 121 120 120 120 119 119 119 116 109 87 51 24
3 0 0 0 1 5 5 8 9 10 11 11 12 9 0 5
39 41 41 41 41 41 41 41 40 40 40 40 40 40 40 39
0 0 0 0 0 0 0 0 0 0 0 0 0 0 0 0
0 0 0 0 0 0 0 0 3 6 10 11 13 14 15 17
16 29 67 107 116 120 120 121 123 122 122 121 123 122 119 104
102 91 70 72 61 68 67 59 59 58 60 50 55 82 106 117
120 120 120 120 117 111 105 97 91 93 100 109 110 100 88 75
48 9 78 122 121 121 121 120 118 119 120 120 119 118 114 106
85 60 34 7 0 0 0 1 2 2 1 1 1 1 0 8
40 40 40 40 40 40 41 41 40 39 40 39 39 39 39 38
0 0 0 0 0 0 0 0 0 0 0 0 0 0 0 0
0 0 0 0 0 2 6 4 12 15 16 17 16 17 30 61
93 113 121 122 121 119 121 123 123 122 122 121 123 123 123 120
122 119 97 73 68 53 54 63 62 64 56 44 50 79 108 119
121 119 118 117 112 107 101 95 93 101 109 112 107 99 90 79
56 13 66 123 121 120 120 120 118 117 119 119 119 119 119 117
118 116 114 105 73 32 4 0 1 1 0 0 0 0 0 12
40 40 40 40 40 40 40 39 39 39 39 38 38 38 38 38
0 0 0 0 0 0 0 0 0 0 0 0 0 0 0 0
0 0 0 0 0 6 9 8 13 14 14 21 48 85 116 123
124 123 123 124 123 120 121 123 123 122 123 122 122 122 123 122
120 120 113 94 66 69 60 63 67 58 51 46 46 76 110 118
120 117 113 112 107 102 98 93 99 110 113 110 105 100 93 84
65 13 64 122 121 120 120 120 120 117 119 119 118 119 119 119
119 119 119 118 118 117 97 56 17 2 0 0 0 0 0 18
39 39 39 39 39 39 39 39 39 38 39 38 39 38 37 37
0 0 0 0 0 0 0 0 0 0 0 0 0 0 0 0
0 0 0 0 0 9 11 10 15 27 65 108 122 124 124 124
124 124 124 124 123 122 122 122 123 123 123 122 122 122 123 122
121 122 120 112 56 79 99 94 72 57 56 48 52 80 112 118
119 115 109 107 101 97 94 97 104 110 112 108 105 103 97 89
71 13 68 122 120 120 119 119 120 117 116 119 120 119 119 119
120 119 119 119 119 118 118 117 109 72 22 1 0 0 0 24
39 39 39 39 39 39 39 38 38 38 38 37 37 37 37 36
0 0 0 0 0 0 0 0 0 0 0 0 0 0 0 0
0 0 0 0 1 12 17 42 85 117 123 123 123 123 123 123
123 123 123 123 123 123 123 123 123 123 122 123 122 122 122 120
121 122 122 122 91 40 110 110 101 82 67 59 67 89 112 118
119 111 102 98 96 94 96 103 109 115 112 108 108 106 99 94
68 13 79 122 121 120 119 120 120 119 120 119 119 119 119 119
118 118 118 118 118 118 118 117 117 116 107 73 22 0 0 28
39 39 39 38 38 38 38 38 38 37 37 37 37 36 36 36
0 0 0 0 0 0 0 0 0 0 0 0 0 0 0 0
0 1 14 4 5 51 101 121 124 124 123 123 123 124 124 124
124 123 123 123 123 123 123 123 123 123 122 122 123 122 123 122
122 122 123 123 120 36 82 116 111 107 99 88 82 93 113 120
118 109 95 95 96 97 101 109 114 116 110 109 110 108 104 102
58 12 94 121 121 120 119 120 120 119 120 119 119 118 118 118
119 119 118 118 118 118 117 117 117 117 116 116 107 59 8 31
40 40 39 39 39 39 39 38 39 37 37 37 37 37 36 35
0 0 0 0 0 0 0 0 0 0 0 0 0 0 0 0
0 1 23 25 83 121 124 123 124 123 123 124 123 123 124 123
123 123 123 123 123 123 123 123 123 123 123 122 122 123 122 122
122 122 122 122 122 79 30 108 117 115 113 106 93 94 111 120
118 105 87 93 98 101 107 115 118 116 111 112 113 111 108 102
36 19 113 120 120 119 120 119 119 119 119 119 119 118 118 118
118 118 118 118 117 117 117 117 117 116 117 116 116 115 93 47
40 40 39 39 39 38 38 38 38 38 38 38 37 37 36 36
0 0 0 0 0 0 0 0 0 0 0 0 0 0 0 0
0 1 42 105 123 123 124 124 124 123 124 123 124 124 123 123
124 124 124 123 123 123 123 123 122 123 123 123 123 122 122 123
123 122 122 122 122 116 23 50 114 119 114 109 98 94 110 119
118 100 84 95 105 109 115 120 120 117 114 116 115 114 113 83
18 44 122 120 120 120 120 119 119 119 118 119 119 118 119 118
119 119 118 118 118 118 118 117 117 117 116 116 116 115 116 109
65 40 40 39 39 39 38 39 39 38 38 38 37 37 37 36
0 0 0 0 0 0 0 0 0 0 0 0 0 0 0 0
0 29 105 124 123 123 123 123 123 123 123 123 123 124 124 124
123 123 123 123 123 123 123 123 123 123 123 122 123 122 122 122
122 122 122 122 122 121 71 11 66 120 117 109 99 92 110 119
116 95 85 98 112 118 120 120 119 118 118 119 118 118 108 44
11 77 121 120 120 120 119 119 118 119 119 119 119 119 118 118
118 118 117 118 117 117 117 117 117 116 116 117 116 117 116 116
109 67 40 40 39 39 39 38 38 38 38 37 37 37 36 36
0 0 0 0 0 0 0 0 0 0 0 0 0 0 0 0
44 114 122 124 124 124 124 123 123 124 123 123 123 123 123 123
124 123 123 123 123 123 123 123 123 123 122 122 123 122 123 122
122 122 122 122 123 122 114 22 15 72 117 109 99 89 107 118
115 92 89 104 119 120 120 120 120 119 119 119 119 116 74 16
21 109 121 120 121 120 120 120 120 119 119 119 119 119 119 119
118 118 118 118 118 118 118 117 117 117 117 117 117 116 116 116
115 102 54 39 40 39 39 39 39 39 38 38 38 37 36 36
0 0 0 0 0 0 0 0 0 0 0 0 0 0 0 41
121 124 123 123 123 124 124 123 123 124 124 124 124 124 124 124
124 123 123 123 123 123 123 123 123 123 122 123 123 122 122 122
122 122 122 122 122 122 121 76 9 14 63 107 102 87 105 117
112 92 96 111 120 120 120 120 120 119 120 119 119 89 23 12
57 122 121 120 120 119 120 119 120 119 119 119 119 119 119 119
118 119 118 118 118 117 117 117 117 117 117 117 117 117 117 116
116 113 87 42 39 39 39 38 39 38 38 38 37 37 37 36
0 0 0 0 0 0 0 0 0 0 0 0 0 0 19 114
125 123 124 124 124 124 123 124 123 123 123 124 124 123 123 124
123 123 123 123 124 123 123 123 123 123 122 122 123 122 123 123
123 122 122 122 122 122 121 118 34 10 11 40 92 86 99 117
113 95 102 118 121 121 121 120 120 120 120 119 94 28 11 18
101 121 120 120 119 119 120 120 119 119 119 120 119 120 119 119
119 119 118 118 118 118 118 117 118 117 117 116 117 117 116 117
116 116 103 62 39 39 40 40 38 39 38 38 37 37 37 36
0 0 0 0 0 0 0 0 0 0 0 0 0 1 78 126
124 123 123 123 123 123 124 123 123 124 123 124 124 123 123 124
123 123 123 123 123 123 122 123 123 123 123 122 122 123 122 122
122 122 122 122 122 121 122 121 97 13 11 10 21 57 92 113
111 96 108 120 121 120 120 120 120 120 119 94 27 11 13 55
122 120 120 120 119 119 119 119 119 119 119 119 119 119 119 119
118 118 119 118 118 118 118 118 118 118 118 118 118 117 117 117
117 116 112 86 42 39 39 38 38 38 38 37 37 37 36 36
0 0 0 0 0 0 0 0 0 0 0 0 0 23 120 125
124 124 124 124 124 124 124 124 124 123 124 124 123 123 123 124
124 123 123 123 123 123 123 123 123 123 123 123 123 123 122 122
123 122 122 122 122 122 122 122 121 67 9 10 9 12 43 100
111 97 114 122 121 121 121 121 121 118 79 22 11 12 22 107
121 120 121 120 120 120 119 119 120 120 120 120 120 119 119 119
119 119 119 119 119 118 118 118 118 118 118 118 118 118 117 117
117 117 115 100 67 39 40 40 39 38 38 38 37 37 36 35
0 0 0 0 0 0 0 0 0 0 0 0 1 75 127 125
124 124 123 124 123 123 123 124 123 124 124 124 123 124 124 124
124 123 123 123 123 123 122 123 123 123 123 123 123 122 122 123
123 122 122 122 122 122 121 122 121 118 38 10 10 11 11 20
57 85 116 121 121 120 120 120 104 49 14 13 13 14 73 122
121 120 121 121 120 120 119 119 119 119 119 119 120 120 119 119
120 120 119 120 118 119 119 118 119 119 118 118 118 118 118 118
117 117 117 108 99 51 39 39 39 38 37 37 37 37 36 35
0 0 0 0 0 0 0 0 0 0 0 0 12 115 126 125
124 123 124 124 124 123 124 123 124 123 123 123 124 124 124 123
124 123 123 123 124 123 123 123 123 122 123 122 123 123 123 122
122 122 122 122 122 122 122 121 121 122 108 24 10 10 11 10
10 14 35 65 81 84 73 46 18 13 13 13 14 48 119 121
121 120 121 121 120 120 120 119 120 120 120 120 120 120 120 120
120 119 120 120 119 120 119 119 119 118 119 119 119 119 118 117
118 118 117 112 113 93 44 39 39 39 38 38 37 37 36 35
0 0 0 0 0 0 0 0 0 0 0 0 39 126 125 125
124 124 124 123 124 123 123 124 124 124 123 124 124 124 124 124
124 123 123 123 123 123 123 122 123 123 123 123 123 123 122 122
123 122 122 122 122 121 122 122 121 121 122 99 20 11 10 10
10 10 10 11 11 10 11 11 11 11 12 13 42 117 121 121
121 121 121 121 120 119 120 119 119 119 120 120 120 120 120 120
120 120 120 120 120 120 119 119 119 119 119 119 119 118 118 118
119 118 118 115 116 116 83 39 39 38 38 37 37 36 36 35
8 6 8 8 8 8 8 6 4 1 0 0 68 127 125 124
124 123 124 123 124 124 123 123 123 123 123 123 123 123 124 124
123 123 123 123 124 123 123 123 123 123 123 123 123 123 122 122
122 122 122 122 122 122 122 121 122 121 121 122 103 28 10 9
9 9 9 11 11 10 10 11 11 10 12 48 116 121 120 120
120 121 121 120 121 120 120 120 120 120 120 120 120 120 120 120
119 120 120 120 119 119 119 119 119 119 119 119 119 118 118 118
118 118 118 116 116 117 111 68 37 38 37 37 36 36 35 35
13 12 13 12 14 15 17 17 18 19 18 17 95 126 124 125
124 123 123 123 124 123 123 123 123 123 123 123 123 123 124 123
123 123 123 123 122 122 122 122 122 122 123 123 123 123 122 122
122 123 122 122 122 122 122 121 121 121 121 121 121 114 51 10
8 9 9 10 10 9 8 8 9 15 68 120 121 120 121 120
120 121 121 120 120 120 120 120 119 119 119 119 120 120 119 119
120 120 120 119 120 119 118 118 119 118 118 118 118 117 117 117
118 117 117 117 116 116 116 99 43 36 37 36 35 34 35 34
13 12 13 13 15 18 17 16 15 17 20 27 110 124 124 124
123 123 123 123 123 123 123 124 123 123 123 123 123 123 123 122
123 122 123 123 122 123 123 123 122 122 122 122 122 122 122 122
122 121 121 121 121 122 122 121 121 121 121 121 121 121 120 97
46 13 10 10 11 9 10 12 43 98 122 121 120 120 119 119
119 120 120 120 120 120 120 119 120 119 119 119 119 119 119 119
118 119 118 118 118 118 118 118 118 117 118 118 117 117 116 117
117 117 116 116 116 115 115 110 67 37 36 36 36 35 34 34
