P2
128 120
138
28 27 27 26 26 26 26 25 24 24 24 24 23 23 22 22
21 21 20 20 20 20 19 19 19 19 18 18 17 18 16 15
16 15 15 15 14 14 14 13 13 12 11 9 9 8 8 12
12 13 14 10 7 14 17 15 15 14 13 12 11 10 8 6
5 4 4 8 10 8 8 5 8 10 11 11 12 12 13 12
13 13 15 14 14 16 16 16 16 16 17 17 18 18 18 19
18 18 19 20 20 21 22 22 22 23 23 23 24 25 25 25
25 25 25 27 25 26 25 25 25 25 26 26 26 27 27 27
28 28 27 27 26 26 26 25 24 24 24 24 23 23 22 22
22 21 21 21 20 20 19 19 18 18 18 18 17 16 16 16
16 15 15 15 15 14 14 14 13 12 11 10 9 9 10 13
14 15 16 11 5 13 17 16 14 13 13 12 12 11 9 8
8 7 5 7 10 10 8 9 10 11 12 12 13 13 13 13
14 14 15 15 15 16 16 16 18 17 18 18 18 18 18 19
19 20 21 21 21 22 22 22 23 23 24 24 24 24 24 25
25 25 24 26 25 26 25 26 26 26 26 26 26 26 26 26
27 27 27 26 26 26 25 25 25 25 24 24 23 23 23 21
21 21 21 20 20 19 19 19 19 19 18 17 17 17 16 16
15 16 15 15 15 15 14 13 14 13 12 11 10 10 10 14
15 16 16 11 5 12 18 16 14 14 13 12 12 11 9 9
10 8 4 5 8 9 8 9 11 12 13 13 14 15 14 15
15 15 15 16 16 16 16 17 18 17 18 18 18 19 19 20
20 20 22 21 21 22 22 22 22 23 24 23 24 24 25 25
25 25 26 26 24 25 26 25 25 26 25 26 26 26 26 26
28 28 27 26 26 25 25 25 24 24 23 23 23 22 22 22
22 21 21 21 21 20 20 19 18 18 18 18 17 17 17 16
16 16 16 15 15 15 15 14 14 13 13 12 10 11 11 14
15 16 17 12 5 12 19 16 16 15 14 13 13 12 10 10
10 9 7 4 10 8 9 11 12 13 14 13 14 15 15 15
16 16 16 16 17 17 17 17 18 18 18 18 19 19 19 20
20 21 22 21 22 22 23 23 23 23 23 23 24 24 24 24
24 25 24 26 25 24 25 25 26 26 26 25 26 25 25 25
26 25 26 25 25 25 24 24 24 24 23 23 22 22 22 21
21 21 21 20 20 19 19 18 19 18 18 18 18 17 16 16
16 15 15 15 15 14 14 14 13 13 13 12 12 11 12 15
16 17 16 11 5 10 18 17 15 14 14 14 13 13 10 11
10 10 7 3 10 8 9 11 13 13 14 13 14 15 15 16
16 16 16 15 16 16 17 17 17 17 19 19 20 20 20 20
20 21 22 21 22 21 22 22 22 22 22 23 23 24 24 24
24 24 24 25 24 25 24 24 25 24 24 24 24 25 26 26
27 27 26 26 25 25 25 24 24 23 23 23 23 22 22 21
21 21 21 20 20 20 19 19 18 17 17 17 16 16 16 16
16 16 16 15 15 15 14 14 14 14 13 12 12 12 13 17
17 17 17 12 6 10 18 16 15 15 15 14 13 12 12 11
11 10 9 5 10 9 11 13 14 14 15 15 15 15 16 16
16 16 16 17 17 17 17 18 18 18 18 19 19 20 20 21
21 21 22 22 22 22 22 23 23 23 23 23 23 24 24 24
24 24 24 25 24 25 24 23 24 24 25 25 25 25 25 25
26 26 26 25 25 25 25 25 24 24 24 23 24 23 22 22
21 21 20 20 20 19 19 19 19 18 18 18 17 17 17 17
16 16 16 16 15 15 15 14 14 14 14 13 14 14 15 18
18 18 18 13 7 9 19 17 16 15 15 14 14 13 13 13
12 11 10 6 11 10 13 14 14 15 15 16 16 16 17 16
17 17 18 17 18 18 19 18 19 19 19 20 20 20 21 21
22 22 23 22 22 22 23 23 23 23 23 23 24 24 25 25
25 25 24 24 24 24 25 25 25 25 25 25 25 25 26 26
26 26 26 26 26 25 24 24 24 24 24 24 24 23 22 22
22 22 21 20 20 20 19 19 19 19 18 17 18 17 17 17
17 17 17 16 16 15 16 15 14 14 14 14 14 15 15 18
18 19 18 14 9 9 19 19 16 16 16 16 15 14 13 13
13 12 11 7 12 11 14 14 15 15 16 16 16 17 17 17
17 18 18 18 19 19 19 19 20 20 20 20 20 21 21 21
22 22 23 22 23 23 23 23 23 23 23 23 24 25 24 23
23 24 25 25 25 26 25 25 25 25 26 26 26 26 26 26
26 26 26 25 25 25 25 25 25 24 24 24 23 23 23 22
22 22 21 21 20 21 19 19 19 19 18 19 19 18 18 17
17 17 17 16 16 16 15 14 15 15 14 14 14 15 16 19
19 19 19 14 10 9 19 18 17 16 17 16 16 15 16 14
13 13 12 8 12 11 14 15 16 16 17 16 17 17 18 17
18 18 19 19 19 19 19 20 20 20 20 20 21 21 21 22
22 22 23 22 23 23 23 24 24 24 23 21 23 24 24 25
26 25 25 25 25 26 25 25 25 25 25 26 25 26 25 26
26 26 27 26 26 25 25 25 25 24 24 24 23 23 23 23
22 22 21 21 21 21 20 20 20 19 19 18 19 18 18 18
18 17 17 16 17 17 16 16 16 15 15 15 15 15 16 19
20 20 20 14 11 9 18 19 17 17 17 17 16 15 15 14
14 14 13 11 14 13 15 17 17 17 17 18 17 18 18 18
19 18 19 19 20 20 20 20 20 20 21 21 21 22 21 22
23 22 23 23 23 23 23 23 23 23 25 24 25 25 25 25
25 25 25 25 25 25 25 25 25 25 26 25 26 26 26 26
27 27 27 26 26 26 25 25 25 24 24 24 24 24 23 23
23 22 21 21 21 20 21 20 21 19 20 19 20 18 18 18
18 18 17 17 17 17 16 16 16 16 16 16 16 16 17 20
20 21 20 15 11 9 18 19 17 16 17 17 16 16 16 15
15 15 14 12 14 15 17 17 17 17 18 18 18 19 19 19
20 19 20 20 20 20 20 21 21 21 21 21 21 22 23 22
22 23 23 22 22 22 23 23 25 25 25 26 25 25 26 25
25 26 26 25 26 26 25 26 25 25 26 25 26 26 27 26
27 26 26 26 26 26 25 25 25 25 24 24 24 23 23 23
23 22 22 22 22 21 21 21 21 21 20 20 19 18 18 19
18 17 18 18 17 17 17 17 17 16 16 16 16 17 18 21
21 21 21 16 13 6 14 19 18 18 18 18 17 17 18 16
16 16 15 12 15 15 17 18 18 18 18 18 19 19 19 19
19 20 20 21 21 20 21 21 22 21 22 22 23 22 22 21
21 21 21 23 24 24 24 25 25 26 25 27 25 25 25 25
26 26 26 26 26 26 26 26 26 26 26 26 26 26 26 27
28 27 27 26 26 25 25 25 25 24 24 24 23 23 24 23
23 23 23 23 22 22 22 21 21 21 20 20 20 19 19 19
19 19 19 18 18 18 18 17 17 17 17 17 17 17 18 21
21 21 22 16 11 4 15 20 18 18 19 18 18 18 18 17
17 17 16 13 17 17 19 19 19 18 19 19 19 20 20 20
20 20 22 21 21 21 22 21 22 23 22 22 22 22 22 22
23 24 24 24 25 25 25 25 26 26 25 27 26 26 26 26
27 26 26 26 25 26 27 27 27 27 26 26 26 27 27 27
27 27 27 26 26 26 26 26 25 25 25 24 24 24 24 24
24 23 23 22 22 22 22 21 21 21 21 20 20 20 20 20
19 19 19 19 18 18 18 18 18 17 17 17 17 17 19 22
22 22 22 16 13 10 16 22 20 20 20 19 19 19 19 17
17 17 16 13 17 17 19 19 20 19 19 20 21 21 20 21
20 21 21 21 21 22 22 22 22 22 22 22 23 23 24 23
24 25 24 25 25 25 25 25 26 26 26 27 27 26 26 26
26 26 27 26 26 26 26 26 26 27 27 27 26 27 27 27
28 27 27 27 26 26 26 26 25 26 25 24 24 24 25 24
25 24 24 23 23 22 22 21 21 21 21 20 20 20 20 20
19 19 19 20 19 19 18 18 19 18 18 18 18 19 19 22
23 23 23 18 12 14 16 22 20 20 20 20 19 19 20 18
18 18 17 14 18 18 20 20 20 20 20 20 20 21 21 21
21 22 22 22 22 22 22 22 22 22 23 23 23 23 24 24
25 25 25 25 25 26 26 26 26 26 26 27 26 26 26 27
26 27 27 26 27 27 27 27 27 27 27 27 27 28 26 27
27 26 26 26 26 26 26 26 26 26 25 25 25 25 24 24
24 24 24 23 23 23 22 21 22 22 21 21 21 20 20 20
20 19 19 19 18 19 19 19 18 18 18 18 18 18 19 22
23 23 22 18 14 15 16 22 22 21 21 20 20 19 21 19
18 17 17 14 18 18 20 20 20 20 21 21 21 21 21 21
21 21 21 21 22 21 22 22 23 23 24 24 24 24 24 24
24 25 25 25 25 26 26 26 26 26 26 27 27 26 27 27
27 27 27 27 27 26 26 27 26 27 28 27 28 27 27 27
28 27 27 26 26 26 26 26 25 25 25 25 25 25 25 25
24 24 24 23 23 23 23 22 22 21 22 21 20 21 21 20
20 20 20 20 20 19 19 19 19 18 18 17 18 19 20 23
23 24 23 18 14 17 16 22 22 21 21 21 20 20 21 19
19 19 18 15 19 18 21 21 21 21 21 21 21 21 22 21
21 21 22 23 22 23 23 23 23 23 24 24 25 25 24 25
25 25 26 26 26 26 26 26 27 27 27 27 26 26 26 26
27 27 27 27 27 27 27 27 27 28 27 27 27 26 26 27
27 26 27 27 26 26 26 26 26 26 26 25 25 25 25 25
25 24 24 24 24 23 23 22 22 22 22 22 22 21 21 21
21 20 20 20 20 19 20 19 20 19 19 18 19 19 21 23
23 24 24 19 15 18 15 22 22 22 21 21 21 20 22 20
19 19 19 16 20 19 21 21 22 22 22 22 22 22 22 22
22 22 22 23 23 23 23 23 24 24 25 25 25 25 26 26
26 26 26 26 26 26 26 26 27 27 27 28 27 27 28 28
27 27 28 27 27 27 26 27 27 27 27 27 27 27 27 27
27 27 27 27 26 26 26 26 26 26 26 25 25 25 25 25
24 25 24 24 24 24 23 23 22 22 22 22 22 21 21 21
21 20 21 20 20 21 20 19 19 19 20 20 19 20 21 24
25 24 24 20 15 20 16 22 22 22 21 21 21 20 21 20
19 20 19 16 20 19 21 21 21 21 22 23 23 23 23 23
23 23 23 23 23 23 24 24 24 24 25 25 25 25 25 25
26 26 26 26 26 26 26 26 27 27 27 27 27 27 27 27
27 27 27 26 26 27 26 27 27 27 27 27 27 27 27 26
27 26 26 27 26 26 26 26 27 26 26 25 26 25 25 25
25 24 24 24 24 24 23 23 23 23 23 23 22 22 22 21
21 21 20 20 20 20 19 19 19 19 19 19 20 20 21 25
25 25 25 20 16 20 16 22 23 22 22 21 21 21 22 20
20 20 19 16 19 18 21 21 22 22 23 23 23 23 23 23
24 23 23 24 24 24 24 25 25 25 25 25 25 26 26 26
26 26 26 25 27 26 27 27 27 27 27 28 27 26 27 26
27 27 27 27 28 27 27 27 26 26 27 27 27 27 27 27
27 27 27 27 27 26 27 26 26 26 26 26 25 25 26 25
25 25 25 24 24 24 24 23 23 23 23 22 23 23 22 22
21 22 21 21 21 20 20 20 20 20 19 19 20 20 21 24
25 25 25 21 16 21 18 22 23 23 23 22 22 21 23 22
21 20 20 17 21 20 22 22 23 23 23 24 22 23 23 24
24 24 24 24 24 24 24 25 26 25 26 26 26 26 26 26
26 26 26 27 27 27 28 27 27 27 26 26 26 27 27 28
27 28 28 28 29 27 27 27 27 27 27 27 27 27 28 28
27 27 27 27 27 27 27 26 27 27 26 26 26 25 26 25
25 24 24 24 24 24 25 24 24 24 24 23 23 23 22 23
22 22 21 21 21 20 20 20 20 20 20 20 21 21 22 25
26 26 25 21 16 21 18 21 23 24 23 22 22 22 23 21
21 21 20 18 21 20 23 23 23 23 23 24 23 24 23 23
23 24 24 24 24 25 25 25 26 25 26 26 26 26 27 26
27 26 27 27 28 26 27 26 26 27 28 28 28 28 27 28
28 28 28 27 29 27 27 27 27 27 28 27 28 28 28 28
28 27 27 27 27 27 27 26 26 26 26 26 26 26 26 25
25 25 25 25 25 24 24 24 24 24 23 23 23 23 23 22
22 22 22 21 21 21 21 20 20 21 21 20 20 21 22 24
24 24 24 22 20 23 19 21 23 24 23 23 22 21 22 22
21 21 20 18 21 20 23 23 23 23 24 24 24 24 24 25
24 24 24 25 25 25 25 26 26 26 26 26 26 26 27 27
26 27 27 27 27 28 28 28 28 28 28 28 28 28 28 28
27 27 28 28 28 28 27 28 27 27 28 28 27 27 27 27
28 27 27 27 27 27 27 27 27 26 26 27 26 26 26 26
25 26 26 25 26 25 25 25 24 24 24 24 24 23 23 23
22 22 22 21 21 21 22 21 22 21 21 21 21 20 18 17
16 19 20 20 18 13 10 14 19 24 24 24 23 22 23 23
22 21 21 19 21 21 24 23 23 24 24 25 25 25 25 25
24 24 25 25 25 26 26 26 26 26 27 26 26 27 26 26
27 27 28 28 28 28 28 29 29 29 29 28 28 28 29 28
28 27 27 27 29 28 27 28 28 28 28 27 27 28 28 27
27 27 28 27 28 27 27 26 26 26 26 26 26 26 26 26
26 26 26 26 26 25 25 25 24 24 24 23 23 23 23 22
23 22 22 22 22 22 22 22 21 21 21 19 15 8 10 12
16 22 19 16 18 17 19 17 15 22 23 24 24 23 23 22
22 21 21 19 21 21 24 24 24 24 24 25 24 24 25 25
25 25 25 25 26 26 26 26 27 26 26 26 26 26 27 26
27 28 28 29 28 29 29 29 29 28 28 28 28 28 27 27
28 28 28 28 29 28 28 28 28 27 28 27 27 28 28 27
28 27 28 27 27 27 27 27 27 27 27 27 26 27 27 26
26 26 26 26 25 25 25 25 25 25 24 24 24 23 24 24
23 23 22 22 23 22 22 22 22 21 20 18 17 16 22 23
24 27 24 22 21 15 14 9 12 16 21 24 24 24 21 23
23 22 22 20 21 21 24 24 25 25 25 25 25 25 26 26
26 26 26 26 26 26 26 26 26 27 27 27 27 27 28 28
28 28 28 30 29 29 29 29 29 29 29 29 29 28 28 29
28 28 28 28 29 29 28 27 28 27 28 28 28 28 28 27
28 28 27 27 27 27 27 28 27 27 27 27 27 27 27 27
26 26 26 26 26 25 25 25 25 25 24 24 24 24 24 23
23 23 23 23 23 22 22 22 22 22 15 8 11 16 18 17
13 16 13 16 20 19 14 9 4 2 6 17 21 23 22 23
22 22 22 19 21 22 24 25 25 25 25 26 26 26 26 25
26 25 26 26 26 26 27 27 27 27 28 27 27 28 28 28
28 28 29 30 29 29 29 29 29 29 29 29 28 29 28 28
28 29 28 28 29 29 29 28 28 28 28 28 28 28 28 28
28 27 27 28 27 27 27 27 27 27 27 26 27 27 27 26
26 26 26 26 26 26 25 25 25 25 24 24 24 24 24 24
23 24 23 23 23 23 22 22 21 15 2 4 10 13 15 23
22 23 20 20 23 21 15 11 7 6 1 2 11 16 22 24
23 23 22 21 22 22 24 26 25 26 26 26 26 25 25 25
25 25 25 26 26 27 27 27 27 27 28 28 28 28 28 28
28 29 29 29 30 29 29 29 29 29 29 29 28 28 29 28
28 28 28 28 28 29 29 28 28 28 28 28 28 28 27 27
28 28 28 28 27 27 28 27 27 27 27 27 27 27 27 27
27 26 27 26 26 26 26 26 25 25 25 25 25 25 24 24
24 24 23 23 23 23 23 23 16 3 2 11 11 18 21 28
28 31 36 42 54 61 64 57 47 43 31 11 1 3 10 24
23 23 22 21 22 22 24 25 26 25 25 25 25 25 25 26
26 26 26 27 27 27 27 28 27 28 28 28 28 28 29 28
29 29 29 30 29 29 29 29 29 28 29 28 29 28 29 29
29 28 28 29 29 29 28 28 29 28 28 27 27 27 27 27
28 27 27 27 27 27 27 27 27 28 27 27 27 27 27 27
27 26 26 25 26 26 26 25 25 25 25 25 25 25 24 24
24 24 23 23 23 22 22 21 4 0 6 13 12 17 20 26
40 55 70 79 85 87 86 84 81 78 76 55 25 1 3 10
23 24 24 21 21 22 24 24 25 25 25 25 26 25 26 25
26 26 26 28 27 27 28 27 27 28 27 28 28 28 28 29
29 29 29 29 29 29 29 29 29 29 29 28 28 28 28 29
29 28 29 28 28 27 26 26 26 27 26 27 27 27 29 27
28 27 28 28 27 28 28 27 27 28 27 27 27 27 27 26
27 26 26 26 26 26 26 26 26 26 26 25 25 25 25 24
23 24 24 23 23 23 23 11 0 3 3 5 13 26 55 76
92 95 95 95 96 96 98 96 93 90 88 79 57 30 2 0
11 20 23 21 21 23 25 25 25 25 25 26 26 26 26 26
26 27 27 28 27 27 27 28 28 28 28 29 29 29 29 29
29 28 29 29 29 29 30 29 30 30 30 29 29 29 29 28
28 27 27 27 27 27 27 28 28 27 28 26 27 28 28 27
23 25 27 27 28 28 28 27 27 27 27 27 27 27 27 27
27 27 26 27 27 27 26 26 26 26 25 25 25 25 25 25
24 24 24 24 23 23 15 0 0 4 8 22 42 78 96 98
100 102 102 103 102 103 102 100 99 96 93 87 68 53 33 3
0 8 20 23 21 24 25 26 26 25 26 26 26 26 26 26
27 27 27 28 27 27 28 28 28 28 28 28 28 28 29 29
29 29 29 29 29 29 29 29 29 29 28 28 28 27 26 27
27 27 28 28 28 28 28 28 28 28 28 28 27 27 28 27
7 15 28 28 28 28 28 28 28 28 27 27 27 27 27 27
26 26 27 27 27 26 26 26 26 26 26 26 25 25 24 25
24 24 24 24 24 17 1 0 2 4 17 52 91 103 104 102
103 105 108 106 106 105 103 101 101 101 100 94 78 62 52 32
2 0 14 21 22 24 25 26 26 25 26 26 26 26 27 26
27 28 27 29 28 28 28 28 28 28 28 28 29 29 29 29
29 29 29 29 29 29 29 29 29 29 29 28 29 28 29 29
28 28 28 28 28 27 27 27 27 27 27 27 28 27 28 28
5 14 27 28 28 28 28 28 27 27 28 28 28 28 28 28
28 27 27 27 27 27 27 26 26 26 26 26 25 25 25 25
25 24 25 25 22 6 0 0 0 8 54 96 105 107 106 104
105 106 108 107 107 107 106 104 105 106 106 102 88 71 60 49
27 0 2 11 19 25 26 26 26 26 26 26 26 27 27 27
27 28 28 29 29 28 28 29 28 28 28 28 29 29 29 29
29 29 29 29 28 28 28 29 29 29 28 28 29 28 28 28
28 28 28 28 28 27 28 27 27 27 27 28 27 27 28 27
8 12 27 28 28 28 28 27 27 27 28 29 28 28 28 28
28 28 27 28 27 27 26 26 26 27 26 25 28 30 29 27
25 25 25 25 14 0 0 0 6 58 93 102 108 109 108 106
105 107 107 107 105 105 105 104 106 107 107 103 96 83 67 56
48 19 0 6 8 20 25 26 26 26 27 27 27 27 27 27
28 27 28 28 29 28 28 28 29 28 29 29 29 29 29 29
29 29 28 29 29 29 29 29 29 28 28 28 29 28 28 28
28 27 28 28 29 28 27 27 27 27 28 28 27 28 28 28
8 14 27 29 28 28 28 28 28 35 35 33 32 30 29 28
27 28 28 27 28 27 26 26 27 27 26 26 36 38 35 32
31 29 27 24 6 0 0 2 51 85 96 104 107 108 108 107
108 109 110 108 107 104 103 104 105 106 105 104 98 90 77 65
53 42 10 0 6 11 25 26 26 26 26 27 27 27 28 28
28 28 28 29 29 28 28 27 28 28 28 28 29 29 29 29
29 29 29 29 29 29 29 28 29 29 28 28 28 29 28 28
28 28 28 29 28 28 27 27 28 28 28 27 27 27 27 27
9 15 28 28 28 28 28 28 30 38 37 37 36 34 33 32
31 29 28 28 27 27 27 26 27 26 27 27 36 37 35 33
34 34 32 23 1 0 0 35 74 88 96 101 106 108 109 108
110 111 113 109 107 106 106 106 106 105 104 104 100 94 87 76
63 49 32 3 7 6 16 26 26 27 27 28 28 28 28 28
27 28 27 28 28 27 27 27 28 28 29 29 29 28 29 29
29 29 30 29 29 28 28 28 28 29 28 28 29 29 28 28
28 29 28 28 28 28 28 28 28 28 28 28 27 27 27 28
9 17 30 30 30 29 29 28 30 39 38 37 35 35 35 36
38 33 33 32 31 29 27 26 27 27 27 27 33 33 34 33
34 34 33 19 0 0 25 61 78 89 95 100 104 108 111 111
112 113 114 110 108 107 107 109 109 108 106 106 102 98 92 85
72 54 43 17 5 8 10 21 27 27 27 28 28 28 28 28
28 28 28 28 28 28 28 28 28 28 29 30 30 29 29 29
29 29 29 29 29 29 29 29 29 28 28 28 29 29 28 29
29 29 28 28 28 28 28 28 27 27 27 27 28 27 27 27
9 18 33 32 30 31 31 31 31 33 28 33 35 36 38 39
40 34 29 32 34 33 32 30 30 30 28 28 27 18 19 21
26 30 30 14 0 11 52 68 81 87 95 100 105 111 113 115
116 115 114 112 109 109 108 109 110 110 108 109 103 101 95 90
77 60 45 32 4 12 11 16 27 27 28 28 28 27 27 27
28 28 28 28 28 28 28 28 29 29 30 30 30 29 29 29
30 29 29 29 28 28 29 28 29 29 29 28 29 30 29 28
28 29 28 28 28 29 28 27 27 27 27 27 27 27 28 28
9 19 33 32 27 27 32 35 37 21 1 5 18 28 32 33
36 31 6 6 12 18 26 28 30 34 32 30 26 11 7 9
8 7 11 5 1 33 58 71 82 87 96 103 109 114 116 118
117 118 117 115 114 107 95 98 86 80 67 52 39 32 28 25
23 20 18 21 9 5 18 9 20 28 27 27 28 28 28 28
28 28 28 28 28 28 29 29 28 29 29 30 31 29 30 29
29 29 30 30 29 29 30 29 29 28 29 29 29 30 29 29
28 28 28 28 27 28 28 27 28 27 27 28 28 28 28 28
9 17 31 32 30 29 30 37 40 21 0 0 3 10 13 14
21 30 2 0 0 0 1 5 9 16 22 29 26 9 2 4
5 1 2 1 12 43 57 72 78 77 78 78 79 88 102 114
119 119 119 118 116 109 78 52 21 13 31 33 6 4 6 14
21 22 18 1 0 4 18 10 12 27 28 29 29 28 29 29
29 29 29 29 29 29 29 30 29 30 30 30 31 30 31 31
30 29 30 30 30 30 30 30 29 29 29 29 29 30 29 29
29 29 29 29 29 29 29 29 28 28 28 28 28 29 29 27
10 8 8 13 21 29 34 38 40 22 0 0 1 5 8 8
15 29 2 0 0 0 0 0 0 0 0 22 27 6 0 0
2 1 3 7 19 29 25 19 18 17 15 14 14 24 18 33
77 119 119 119 119 113 43 12 16 101 89 9 0 0 0 0
0 0 13 29 1 5 17 15 7 27 29 29 30 29 29 29
29 29 30 30 30 30 31 30 30 30 31 31 31 31 31 31
30 30 30 31 30 30 31 30 30 30 30 30 30 30 30 29
29 29 29 29 29 29 29 29 29 30 29 29 29 29 29 28
10 4 0 0 0 2 7 14 22 20 0 0 0 1 1 3
12 29 4 0 0 0 0 0 0 0 0 21 25 2 0 0
0 1 3 4 5 18 27 29 3 2 0 0 16 102 31 0
17 59 118 119 113 54 15 0 17 60 4 0 0 0 0 0
0 0 1 20 1 3 14 14 7 23 28 28 30 30 29 30
29 29 30 30 30 30 31 30 31 31 31 31 32 31 31 31
31 32 31 31 31 31 31 30 30 30 30 30 31 30 30 30
30 30 30 30 30 29 29 30 29 30 30 29 30 29 29 28
10 4 0 0 0 0 0 0 0 14 0 0 0 0 0 0
11 28 1 0 0 0 0 0 0 0 0 20 22 0 0 0
0 4 3 1 30 25 65 53 0 0 0 0 0 3 0 0
1 16 26 30 18 14 3 0 0 0 0 0 0 0 0 0
0 0 0 5 4 2 5 12 7 21 30 30 31 30 30 30
30 30 30 30 31 31 31 31 31 31 31 31 32 31 32 31
31 32 32 31 32 32 32 32 32 31 31 31 30 31 30 31
30 31 31 31 30 30 30 31 30 30 30 30 29 29 30 29
10 4 0 0 0 0 0 0 0 12 0 0 0 0 0 0
14 30 2 0 0 0 4 7 0 0 0 18 22 0 0 0
0 3 3 6 20 2 75 28 0 0 0 0 0 0 0 30
43 7 11 28 25 13 1 4 0 0 0 7 17 0 0 0
0 0 0 2 9 2 5 9 6 20 30 30 31 30 30 30
31 30 30 31 30 30 30 30 31 31 31 31 32 31 31 31
32 32 31 32 31 31 32 31 30 30 30 30 30 31 31 31
31 30 30 30 30 30 30 30 30 30 30 30 29 29 30 30
11 4 0 0 0 0 0 0 0 9 0 0 0 0 0 0
13 32 3 0 0 0 7 11 7 4 0 16 22 0 0 0
0 5 5 6 6 0 24 3 0 0 19 2 0 0 30 30
0 9 29 51 42 17 18 24 0 0 4 19 2 0 0 0
0 0 0 1 12 0 7 5 6 10 29 30 30 30 29 30
30 30 30 30 30 30 30 30 31 32 32 32 32 32 31 32
32 32 32 32 31 31 31 31 31 30 31 30 30 31 30 30
30 29 29 29 28 29 30 31 30 30 30 31 31 31 31 30
10 4 0 0 0 5 2 0 0 8 0 0 0 0 0 0
11 33 3 0 0 0 8 11 10 9 2 15 23 0 0 0
0 4 4 3 0 0 0 0 0 4 27 0 0 0 0 0
0 17 49 84 77 22 10 2 0 0 0 0 0 0 0 0
0 0 0 1 10 1 5 3 1 2 23 30 31 30 30 30
30 30 30 30 31 31 31 31 30 31 32 31 32 31 31 32
32 32 33 32 32 32 31 30 30 30 30 30 30 30 30 30
31 31 30 30 30 29 31 31 31 31 30 30 30 29 28 27
10 4 0 4 0 1 0 0 0 8 0 0 0 0 0 0
12 34 4 0 0 0 6 10 9 9 2 14 25 2 0 0
0 5 1 1 0 0 0 0 0 1 1 0 0 0 0 0
0 23 59 83 83 49 9 0 0 0 0 0 0 0 0 0
0 0 0 4 8 0 3 4 0 2 13 31 31 30 30 30
30 30 30 30 31 31 31 30 31 31 31 31 31 31 31 31
31 32 32 31 33 32 32 31 31 31 31 31 30 31 30 30
30 30 30 29 29 29 30 30 29 29 28 30 30 27 25 25
10 4 1 2 0 0 0 0 0 9 0 0 0 0 0 3
17 36 7 0 0 0 0 3 7 8 1 12 33 25 18 11
7 3 0 0 0 0 0 0 0 0 0 0 0 0 0 0
5 33 68 76 77 69 22 2 0 0 0 0 1 3 4 5
6 0 1 7 21 0 0 6 0 1 15 31 30 30 30 30
30 30 31 31 31 31 31 31 31 31 31 32 32 31 32 32
32 32 32 32 32 32 31 31 31 31 30 30 30 30 30 30
30 29 29 28 28 30 30 28 27 26 23 21 20 17 14 12
10 5 0 0 0 0 0 0 0 18 13 7 4 4 0 0
12 40 29 21 17 14 7 2 2 5 0 11 36 38 35 33
29 4 0 1 0 0 0 0 0 0 0 0 0 0 0 0
19 44 60 81 79 63 47 14 1 0 0 2 8 12 23 26
16 8 4 11 37 6 0 6 0 0 18 31 30 30 30 30
30 30 30 31 31 31 31 31 31 31 32 32 31 31 31 31
31 32 32 31 32 31 31 31 30 29 29 30 29 28 28 26
28 28 26 25 24 22 20 17 15 12 11 11 10 11 12 13
9 4 0 0 0 0 0 0 0 29 40 32 29 29 24 17
21 43 26 20 23 25 24 23 21 19 18 25 38 36 35 36
35 9 0 0 0 0 0 0 0 5 8 5 6 0 0 1
33 55 85 104 104 89 61 31 11 1 0 1 5 19 67 98
46 15 8 21 57 18 0 0 0 1 18 30 29 30 30 30
31 30 30 30 32 31 30 30 31 31 31 31 31 32 31 32
32 32 31 31 32 31 30 29 28 27 27 28 27 26 25 22
20 18 16 14 13 12 12 11 13 13 14 14 15 16 16 17
10 5 0 0 0 0 0 0 0 31 43 34 39 41 44 42
39 41 19 10 11 12 13 14 15 18 21 26 26 24 28 31
34 11 0 0 0 0 0 0 4 32 58 27 6 2 0 16
44 79 103 116 117 107 78 53 28 9 0 1 6 30 111 129
66 13 13 43 69 29 0 0 0 3 16 30 30 30 30 30
31 30 30 30 32 30 30 30 31 30 31 32 31 31 31 31
31 30 31 30 31 30 28 28 30 25 22 19 17 16 14 13
13 13 14 15 15 15 17 17 18 19 19 20 18 15 20 21
10 14 15 10 6 2 0 0 0 31 37 34 40 43 46 46
38 31 18 11 12 11 10 9 9 8 8 8 8 10 13 15
25 15 0 0 2 0 0 1 12 68 129 65 4 0 8 33
68 93 104 119 118 103 96 86 61 30 16 9 16 46 92 93
33 26 31 64 65 42 1 0 0 2 13 30 31 30 30 30
31 30 29 29 32 31 31 31 30 31 31 30 31 31 31 31
30 28 27 25 23 21 18 20 30 20 12 14 15 16 16 17
18 18 19 20 21 21 22 23 23 24 23 23 23 21 16 22
11 19 35 38 35 30 24 19 18 33 29 32 39 41 44 45
40 33 21 12 12 10 9 8 8 8 7 7 7 7 7 8
22 19 0 0 8 4 0 1 12 70 123 53 12 14 27 64
92 93 93 110 110 95 98 108 94 76 71 49 36 32 39 47
54 60 78 72 66 49 4 0 0 1 12 29 30 29 30 30
30 29 29 29 30 30 31 30 31 31 31 29 27 26 24 21
19 18 16 16 16 17 16 16 25 19 15 18 20 20 21 22
22 22 23 23 24 24 24 25 25 25 25 24 26 26 23 16
11 20 37 41 41 39 40 40 40 39 17 18 26 31 36 39
37 34 24 13 11 9 6 6 6 7 8 8 8 9 10 12
24 16 2 0 34 29 7 7 10 28 44 32 28 45 65 89
96 61 63 96 99 43 21 74 105 84 104 117 113 108 104 106
107 104 96 85 71 55 12 0 0 1 11 26 29 28 28 27
27 28 29 29 30 29 28 26 25 22 21 20 18 17 16 17
19 19 20 20 21 22 22 21 27 21 18 22 24 24 25 25
25 26 26 26 26 26 26 26 26 25 27 25 25 27 27 23
10 18 36 40 40 40 41 41 42 37 6 0 1 4 8 15
18 27 26 13 10 6 0 0 0 3 9 10 7 8 11 13
25 30 12 0 44 52 43 39 48 52 60 76 100 93 73 95
51 1 26 74 84 57 26 54 88 83 97 120 119 119 119 118
117 114 105 93 76 60 24 0 0 1 11 27 26 27 26 19
23 26 25 23 22 20 19 19 18 18 19 20 20 21 22 23
23 24 25 24 26 26 25 23 26 22 20 25 26 26 26 27
27 27 27 28 28 28 27 28 27 26 26 26 25 27 28 28
16 19 29 32 33 34 35 38 41 34 3 0 0 0 0 2
9 27 27 11 10 5 0 0 0 0 2 2 1 0 4 6
22 35 20 3 47 58 77 94 103 106 110 114 119 93 67 88
94 68 87 87 94 100 108 99 84 74 106 119 117 118 118 118
118 117 110 99 81 62 35 0 0 16 16 24 23 23 21 15
16 18 18 18 20 20 21 21 22 23 24 24 25 25 25 26
27 28 28 28 28 29 27 22 11 9 19 26 27 28 28 28
27 28 28 29 28 28 28 28 28 28 26 26 26 26 27 28
16 18 19 20 23 27 26 28 37 32 2 0 0 0 0 0
1 27 27 10 7 3 0 0 1 0 0 0 0 0 0 1
20 33 18 6 50 66 91 104 107 111 118 119 119 100 66 71
86 93 103 108 110 109 104 95 87 91 103 113 116 115 119 118
119 117 112 101 86 65 44 3 5 24 44 20 19 19 19 18
19 21 22 23 24 24 25 26 26 26 27 29 28 28 29 29
29 29 29 29 29 28 28 19 2 0 14 26 29 30 29 29
28 29 29 28 29 29 29 28 28 28 27 26 26 25 26 28
14 17 16 16 19 26 24 27 37 31 2 0 0 0 0 0
0 25 23 4 1 0 0 0 4 5 1 0 0 0 0 0
19 32 8 10 52 73 95 105 112 118 120 119 118 103 83 69
78 89 103 108 107 104 104 98 90 87 92 105 115 111 114 118
118 118 114 100 89 67 49 22 48 57 55 27 22 23 23 24
24 25 27 27 27 28 28 28 29 29 30 30 30 30 30 30
30 30 29 24 20 15 23 17 6 1 13 26 29 29 30 29
29 28 28 28 28 29 29 28 28 28 27 27 26 24 24 27
12 15 14 18 22 26 27 32 37 31 2 0 0 0 0 0
0 27 18 0 0 0 0 0 1 8 8 1 0 0 0 0
19 36 18 11 53 75 96 108 117 120 120 119 114 96 79 69
80 92 101 100 98 99 100 99 94 89 85 88 103 112 110 116
118 118 114 103 89 69 52 37 75 75 72 42 25 26 27 27
28 28 29 29 29 29 29 30 30 30 30 31 31 31 31 31
31 32 22 2 1 2 18 16 0 0 11 27 29 29 30 29
29 29 29 29 29 29 28 28 28 27 27 27 26 24 22 24
15 13 1 1 4 7 12 17 21 25 2 0 0 0 0 0
0 28 19 0 0 0 0 0 1 9 12 7 2 0 0 0
18 38 45 29 51 73 93 109 119 120 118 115 107 82 69 75
90 99 103 100 102 105 103 103 101 98 94 87 95 104 109 114
118 117 112 103 89 70 52 45 76 73 79 53 27 28 28 28
29 29 30 29 30 31 31 31 31 31 32 31 32 32 31 31
31 31 25 17 20 24 26 20 1 0 10 27 29 29 30 29
29 29 29 28 29 28 27 28 27 27 26 27 27 26 24 21
19 14 0 0 0 0 0 0 0 12 1 0 0 0 0 0
0 28 16 0 0 0 0 1 11 13 13 11 5 0 0 0
18 42 49 44 48 70 91 108 117 116 112 106 90 71 75 85
92 93 91 91 97 103 102 102 98 93 89 92 96 99 104 113
118 116 109 102 91 70 51 50 78 69 75 60 29 29 27 29
30 30 31 30 31 31 31 31 32 31 32 32 32 32 31 31
31 32 31 30 30 29 27 21 2 0 11 26 28 29 30 29
29 28 28 28 28 27 27 27 27 26 26 26 26 25 25 22
18 14 0 0 0 0 0 0 0 10 1 0 0 2 0 0
0 26 14 0 0 0 0 1 12 16 13 4 2 0 0 0
16 46 63 56 47 66 90 106 115 114 106 92 77 75 76 78
84 91 89 78 78 84 85 86 86 88 83 78 96 102 107 109
117 117 108 104 90 70 51 47 78 89 70 64 30 28 29 30
30 31 31 31 31 32 31 31 31 31 31 32 32 32 31 31
31 31 31 30 30 28 28 24 6 0 15 26 29 29 29 28
28 27 27 27 26 27 27 26 26 26 25 25 25 26 25 22
19 15 0 0 0 1 0 0 0 9 2 0 1 13 8 0
0 27 13 0 0 0 0 0 1 9 8 0 0 0 0 0
13 52 69 64 47 63 91 104 113 112 96 88 84 78 66 70
75 72 78 97 96 103 101 102 87 86 62 60 79 102 108 112
117 117 108 104 91 72 54 68 76 94 75 67 31 30 31 31
32 31 32 31 31 32 31 31 31 31 31 31 32 31 32 32
31 31 31 30 30 29 28 24 14 7 21 27 29 29 30 29
29 28 27 27 27 27 26 26 26 25 24 24 25 25 25 22
16 13 0 0 0 10 3 0 0 9 2 0 6 13 10 2
0 26 12 0 0 0 0 0 0 7 8 0 0 0 0 0
10 51 64 62 47 63 91 106 116 111 96 91 83 62 50 59
84 102 113 120 118 119 114 108 85 111 90 45 51 93 109 115
118 116 106 102 90 71 58 76 70 82 78 65 30 29 31 31
31 31 31 31 31 31 31 32 31 31 31 31 32 31 31 31
31 30 30 30 30 29 27 24 22 20 24 28 29 29 29 27
28 27 26 26 26 25 25 26 25 25 24 24 24 23 23 22
15 13 0 0 5 15 5 0 0 11 18 12 19 21 18 14
6 29 11 0 0 0 0 0 0 6 11 0 0 0 0 0
6 47 60 68 54 60 88 108 116 108 97 93 82 46 27 81
113 84 85 92 95 101 90 64 65 85 100 81 51 94 113 115
119 115 105 104 89 71 62 73 73 77 76 58 30 30 31 31
31 31 31 31 31 31 31 31 31 31 31 31 31 31 31 31
32 31 31 31 30 29 28 25 24 24 27 29 29 28 29 28
28 27 26 26 26 26 26 25 25 24 24 23 23 23 22 21
14 13 0 0 1 5 2 0 0 14 35 33 37 36 35 36
37 40 14 0 0 0 0 0 0 7 12 0 0 0 0 0
4 41 57 75 56 60 87 107 119 116 106 106 96 68 48 75
75 78 94 98 97 94 99 99 90 83 77 75 85 105 116 117
118 115 105 100 86 73 62 78 73 69 77 55 31 31 31 31
31 31 31 31 31 31 31 31 31 31 31 31 31 31 32 31
31 32 31 31 31 29 28 27 26 27 30 30 28 28 29 28
28 27 27 26 26 25 24 24 24 24 24 23 23 23 22 21
15 15 3 0 0 0 0 0 0 13 36 36 39 38 38 42
46 45 27 14 16 11 5 4 5 12 16 4 4 2 2 0
5 32 55 69 53 58 82 108 119 120 116 113 103 86 73 74
76 85 100 110 107 107 111 108 99 95 96 92 93 105 115 118
118 114 101 100 88 73 59 69 72 83 82 44 31 31 31 32
32 32 31 32 32 31 31 31 32 31 32 31 32 32 32 31
32 33 32 31 30 30 29 29 28 29 30 29 30 28 28 28
28 28 27 26 25 25 25 24 24 23 23 22 21 21 21 20
17 17 14 2 0 0 0 0 0 14 35 35 37 37 38 43
46 46 36 30 30 29 27 26 26 26 24 20 18 16 15 15
18 32 54 61 52 58 77 103 119 120 120 115 105 94 84 87
94 104 110 113 110 111 113 116 118 113 106 99 98 107 111 116
118 110 99 97 89 73 68 97 92 87 69 32 32 32 32 32
32 32 32 32 31 32 32 32 32 32 32 32 32 33 33 32
32 32 31 31 31 30 29 28 29 29 29 28 28 28 28 28
28 27 27 26 26 24 25 24 24 24 23 23 22 21 21 21
18 19 11 0 0 0 0 0 0 14 34 32 34 34 35 36
34 33 33 32 33 33 32 31 32 32 31 30 28 27 25 25
25 34 56 60 51 57 73 94 113 117 115 114 105 97 88 91
99 110 115 115 107 111 111 115 118 116 107 102 101 105 107 112
118 111 101 98 89 72 67 99 92 84 47 31 32 32 32 32
33 33 33 33 33 33 33 32 33 33 33 33 33 33 33 33
32 33 32 32 32 31 30 30 31 31 30 30 30 29 30 29
28 28 27 26 26 25 25 24 23 22 22 21 21 21 21 21
20 19 9 1 0 0 0 0 0 15 37 31 33 33 33 32
31 30 33 33 35 36 36 35 35 34 34 32 36 38 36 33
33 36 57 68 60 57 70 89 106 113 110 106 104 100 91 95
101 110 119 118 113 115 118 120 120 116 110 106 103 100 100 111
112 105 102 98 88 71 74 89 86 61 34 32 33 33 32 33
33 33 32 32 32 33 33 32 32 33 33 34 34 33 33 32
33 33 32 33 32 32 31 31 32 31 31 30 30 30 30 29
28 27 27 26 25 24 23 23 22 21 21 21 20 20 20 20
19 19 25 23 22 17 16 14 12 23 39 33 33 33 33 33
34 36 38 36 36 38 42 41 35 32 32 33 39 43 41 39
38 38 48 69 66 55 69 83 96 108 107 99 101 103 97 99
106 114 121 120 116 113 114 119 118 116 111 107 102 96 98 103
102 101 100 97 83 66 70 86 71 37 32 32 32 32 32 32
32 32 33 33 33 33 33 32 32 32 32 32 32 32 33 32
33 32 32 32 32 33 33 31 32 31 31 30 30 30 29 28
27 26 26 25 24 23 22 22 21 20 20 20 20 20 20 19
19 19 34 41 42 39 40 43 43 42 42 36 34 34 35 35
37 40 42 37 37 39 43 41 36 33 29 30 40 43 40 38
39 38 38 57 68 54 66 81 90 99 101 92 95 96 100 102
105 114 115 109 106 105 107 109 112 110 112 109 99 91 92 98
97 95 95 94 79 64 29 45 38 31 32 31 31 31 32 32
32 33 33 34 33 33 32 32 33 33 32 33 33 33 33 32
33 32 31 32 31 31 32 31 31 31 31 30 29 29 28 28
28 26 25 24 23 22 21 21 21 20 19 20 19 20 19 18
20 20 37 47 46 45 45 46 46 47 43 31 29 28 27 28
33 38 43 38 38 36 35 36 36 34 30 27 34 33 30 31
35 36 35 37 58 54 63 75 87 94 94 87 86 85 96 102
105 107 106 105 106 110 109 109 108 106 105 100 91 87 86 91
90 93 94 88 75 59 16 30 32 31 31 32 32 32 32 32
33 33 34 34 34 33 32 33 32 32 32 32 32 31 32 32
31 31 31 31 32 32 32 31 31 30 30 30 30 28 28 27
26 25 24 23 22 21 21 20 20 19 19 19 19 18 19 18
20 18 27 33 34 35 37 39 40 41 39 13 7 6 4 5
8 17 37 39 34 20 14 18 20 20 23 30 30 13 5 4
8 15 18 29 37 47 59 72 82 84 86 83 76 80 85 92
99 101 104 110 111 115 113 111 109 104 98 95 88 79 74 81
90 87 90 82 69 51 16 30 33 33 32 33 32 32 33 33
33 33 33 33 33 32 32 32 32 32 32 32 32 32 32 31
30 30 29 27 26 26 28 30 31 30 30 30 29 28 27 26
26 25 24 22 20 21 20 20 20 19 19 18 17 18 19 18
21 18 22 26 26 25 26 26 26 26 28 7 0 0 0 0
0 2 30 39 27 4 0 0 2 7 15 31 30 9 0 0
0 3 11 26 22 30 57 68 77 78 78 74 71 73 75 84
90 98 105 110 117 119 119 119 113 103 92 90 79 72 67 73
80 85 82 75 63 43 23 31 32 32 32 32 32 32 32 33
33 33 33 33 32 31 30 29 28 28 29 30 32 32 32 27
16 14 13 11 8 10 21 31 32 30 29 29 29 28 26 25
24 24 23 21 20 20 20 20 20 19 18 18 18 17 18 17
19 17 26 31 31 31 30 29 29 29 29 10 2 0 0 0
0 9 32 36 13 0 0 0 0 0 15 33 30 9 0 0
0 1 10 23 8 8 50 63 72 74 72 66 65 62 67 76
84 97 106 113 120 120 120 120 114 106 99 90 78 67 67 73
78 76 73 64 56 36 29 29 32 31 31 32 32 32 32 32
32 27 23 21 19 17 13 11 10 11 14 25 32 31 32 26
8 5 5 5 5 5 19 30 30 30 30 28 28 28 27 25
24 23 22 21 20 19 18 18 18 17 17 17 17 16 17 17
19 18 28 33 33 33 33 33 33 34 31 10 2 0 0 0
0 9 30 34 7 0 0 0 0 0 12 33 30 9 0 0
0 0 9 24 7 3 39 56 63 64 68 64 59 56 62 70
85 98 107 112 117 116 116 116 108 109 99 88 72 63 66 70
76 73 67 59 51 26 31 30 32 32 31 31 32 32 32 32
28 11 6 7 8 8 5 3 3 2 3 21 31 32 31 25
8 6 5 6 5 6 18 31 31 31 30 29 28 27 25 24
23 23 22 20 20 20 19 18 18 18 18 17 17 17 17 16
20 19 28 33 34 34 33 33 34 36 34 9 1 0 0 0
3 2 25 31 4 0 0 0 0 0 11 33 30 9 0 0
0 0 6 23 9 1 22 48 54 58 62 63 57 52 54 60
76 88 98 100 104 102 105 103 101 98 89 77 62 61 63 69
68 67 61 55 47 27 31 30 32 32 32 32 32 32 32 32
27 8 2 6 7 6 4 2 2 2 3 19 31 32 31 24
7 6 6 5 5 5 17 30 30 30 30 29 28 27 25 25
24 23 21 20 19 18 17 16 17 17 17 16 16 16 17 16
26 26 28 29 30 30 23 13 18 30 37 12 0 0 0 0
5 1 22 30 3 0 0 0 0 0 11 32 28 8 0 0
0 0 1 22 11 1 9 40 50 51 56 58 59 52 50 53
63 77 86 91 91 87 88 86 85 78 73 61 57 56 63 67
66 60 53 46 53 33 31 31 32 32 32 32 32 32 32 32
27 9 2 6 7 7 4 2 3 3 3 18 31 31 31 24
8 5 6 6 5 5 14 30 31 30 29 28 27 26 24 23
22 21 20 19 19 18 18 18 18 17 17 17 17 17 15 16
25 25 27 27 28 28 17 0 2 20 40 21 3 0 0 1
4 1 18 30 2 0 0 0 0 0 10 33 28 11 0 0
0 0 0 21 13 1 5 20 43 47 50 55 56 56 51 51
52 63 74 74 69 66 65 69 66 62 58 57 59 56 59 61
57 50 45 45 60 37 31 30 32 31 31 32 32 33 33 32
27 9 3 5 8 8 5 2 3 2 3 19 31 31 31 27
10 7 6 7 7 7 12 27 29 29 28 27 27 26 25 24
22 22 21 20 19 19 18 18 17 16 16 16 16 16 16 16
23 24 25 26 27 27 20 0 0 16 39 18 1 0 0 0
3 1 19 29 1 0 0 0 0 0 6 32 28 13 0 0
0 0 0 20 17 0 0 1 20 42 42 47 52 53 51 49
48 49 53 60 65 66 66 63 65 62 62 58 56 57 56 50
42 40 38 55 63 38 30 31 32 31 31 32 32 32 32 32
27 10 3 5 8 7 5 2 3 3 3 18 31 31 31 28
15 12 12 12 11 12 17 24 26 27 29 28 27 26 25 24
22 21 20 20 19 18 18 17 17 17 16 17 17 16 16 16
14 16 17 20 24 26 21 1 0 12 37 11 0 0 0 0
0 0 17 30 2 0 0 0 0 0 4 32 28 10 0 0
0 0 0 18 21 0 0 0 0 7 30 37 43 44 48 50
49 47 49 55 60 64 64 66 64 63 63 60 57 52 49 45
42 44 55 64 67 39 28 29 31 31 31 32 32 32 32 31
28 10 2 5 6 5 4 2 3 3 3 16 31 32 31 28
12 8 9 5 1 0 2 4 3 6 27 28 27 26 25 24
22 20 20 19 19 18 18 17 17 16 16 16 16 16 16 16
0 0 0 9 22 25 21 1 0 10 32 8 0 0 0 0
0 0 16 33 4 0 0 0 0 0 3 32 29 13 1 0
0 1 1 18 24 0 0 0 0 4 34 45 39 42 45 46
47 51 51 53 57 62 65 67 66 65 61 56 54 50 50 51
50 55 63 68 68 40 29 30 31 31 31 31 31 32 31 32
28 11 3 3 3 1 2 2 3 3 2 16 30 31 32 28
11 6 7 3 0 1 4 20 10 1 25 27 26 26 24 23
22 20 20 19 19 17 17 17 17 16 17 17 16 16 16 16
0 0 0 9 25 25 23 3 0 7 30 13 2 1 1 3
12 8 18 35 16 10 9 11 10 10 14 34 31 25 24 24
24 26 29 36 30 7 5 4 4 8 35 57 50 45 47 46
49 50 53 54 59 63 62 64 64 59 59 57 55 55 55 54
57 63 67 71 70 43 28 29 31 31 31 31 32 32 32 32
28 11 3 3 0 0 3 3 3 3 2 14 30 31 32 28
12 5 6 4 0 0 1 5 1 0 24 27 26 25 25 23
22 20 20 19 19 18 18 18 17 16 16 16 16 16 16 16
0 0 0 7 25 24 23 4 0 3 30 30 28 24 24 30
36 34 34 36 40 39 36 37 38 38 39 43 33 29 35 37
39 42 46 47 41 27 26 25 25 26 36 60 59 48 47 48
49 49 52 55 60 62 61 61 61 61 60 59 59 59 56 55
64 68 72 76 73 55 44 29 30 30 30 31 31 32 32 31
28 11 4 3 2 2 6 2 3 3 1 14 30 31 31 28
12 5 6 3 0 0 0 0 0 0 23 27 24 23 24 23
21 20 19 19 18 18 18 18 17 16 16 16 16 15 15 14
0 0 0 5 24 24 22 5 0 1 28 36 36 31 33 40
44 39 35 32 41 44 42 41 41 43 44 44 36 26 31 35
38 42 46 46 42 30 28 29 28 29 33 60 64 55 47 47
51 52 51 56 60 64 66 65 65 66 67 67 65 65 64 66
73 74 79 83 78 57 49 60 38 30 30 30 32 33 33 31
27 12 4 3 1 1 3 2 3 3 1 13 29 30 31 28
12 5 5 2 0 0 0 0 0 0 19 13 6 5 17 22
20 19 19 18 17 17 17 16 17 16 16 16 15 14 14 15
0 0 0 4 25 24 23 6 0 0 27 36 32 29 33 38
43 40 34 29 31 35 35 34 34 34 35 34 32 25 26 30
32 33 33 31 32 29 29 29 29 29 32 59 67 62 55 47
47 53 54 60 65 68 71 72 76 76 77 75 74 73 72 79
82 86 87 90 85 60 25 46 90 49 30 31 32 33 33 30
26 12 3 2 0 0 2 3 4 3 2 12 29 31 32 29
12 4 4 0 13 18 1 0 0 0 7 15 20 12 5 22
20 19 19 19 18 17 17 17 16 15 15 16 15 15 15 15
0 0 0 3 24 23 22 7 0 0 26 31 24 26 27 32
41 40 36 31 25 22 22 23 23 23 23 24 27 26 27 30
30 30 27 25 26 28 28 29 29 29 32 59 67 67 61 54
49 52 60 69 73 76 80 86 88 86 89 85 81 79 81 84
82 89 99 97 87 67 38 22 73 101 33 30 31 32 32 30
27 13 3 3 1 1 3 3 3 4 1 12 29 31 32 29
12 5 5 3 26 40 10 0 0 6 22 26 25 22 4 19
20 19 19 19 18 18 17 16 16 15 15 15 15 14 15 14
0 0 0 1 22 22 21 10 0 5 27 28 11 13 15 19
26 28 26 31 26 23 24 25 29 30 28 28 31 31 33 35
36 35 30 27 27 28 29 29 29 29 34 60 69 72 65 58
53 55 67 78 86 92 95 98 99 99 100 97 93 89 82 86
91 99 103 100 89 73 59 27 62 105 66 30 31 32 32 29
27 14 4 2 3 3 3 3 3 4 2 11 29 30 32 29
14 4 4 1 9 16 8 0 0 11 27 26 25 23 8 16
21 19 18 18 18 17 17 16 16 16 15 15 15 15 14 14
0 0 0 1 20 22 20 17 18 24 33 27 1 0 0 1
3 7 12 29 29 31 34 33 40 43 32 26 27 28 29 33
37 40 33 29 28 28 29 28 29 29 50 64 73 82 78 67
54 59 73 91 104 108 111 109 109 110 108 104 98 91 83 90
98 104 106 104 93 75 67 30 73 97 101 32 32 32 32 30
27 16 4 3 3 3 3 3 3 4 1 10 28 30 31 29
16 6 7 1 1 1 0 0 0 10 27 25 24 23 9 15
20 19 19 18 18 17 17 16 16 15 15 15 15 15 15 15
0 0 0 0 19 22 20 24 35 38 40 28 1 0 0 0
0 0 9 32 29 34 38 32 41 44 22 3 4 4 5 7
22 38 34 29 29 28 29 29 29 31 67 58 79 93 95 78
59 60 76 95 111 119 120 119 120 118 114 106 100 95 90 95
101 108 110 108 96 77 67 36 77 94 116 66 44 35 33 30
27 16 4 3 3 3 3 2 3 4 2 10 29 30 32 30
25 17 9 3 0 0 0 0 0 7 26 26 25 23 9 17
19 19 17 17 17 17 17 16 16 16 16 16 15 15 15 15
0 0 0 0 16 21 19 23 37 39 42 32 2 0 0 0
0 0 5 33 28 32 33 12 13 24 17 0 0 0 0 0
13 38 35 30 29 29 29 30 29 38 82 49 80 95 102 86
68 63 78 93 108 119 121 121 121 118 111 106 99 95 94 94
105 112 113 108 98 73 39 38 85 96 119 101 89 83 78 68
44 19 5 4 4 4 3 3 3 4 2 9 28 29 32 30
30 13 12 20 3 0 0 0 0 7 27 26 25 21 7 20
20 19 19 18 18 17 17 16 16 15 16 15 15 15 15 14
0 0 0 0 15 21 19 22 31 32 31 24 1 0 0 0
0 0 4 34 28 32 33 4 1 16 17 0 0 0 0 0
10 35 35 29 29 29 30 29 30 55 106 39 81 96 104 96
73 65 73 88 104 117 122 122 120 116 107 102 100 100 98 99
107 113 114 110 100 73 13 30 89 97 120 109 99 99 101 114
114 92 67 48 36 22 10 4 4 5 3 9 28 30 32 31
31 16 20 34 9 0 0 0 0 5 24 24 22 11 11 19
12 10 16 18 17 16 16 15 16 15 15 14 15 14 15 14
0 0 0 0 13 21 18 17 14 13 14 6 0 0 0 0
0 0 6 35 28 33 33 5 0 14 19 0 0 0 0 0
6 34 35 30 29 29 30 33 51 86 111 33 82 97 105 102
81 67 75 80 89 109 120 121 116 108 105 105 102 103 102 101
108 116 117 112 101 79 20 13 86 102 121 112 100 103 104 115
119 119 117 116 117 115 106 85 62 41 24 17 25 24 23 20
17 7 3 7 2 0 0 0 0 0 3 2 1 0 6 11
8 21 14 17 17 16 17 16 16 16 15 15 15 15 15 15
0 0 0 0 11 21 18 17 12 11 13 5 0 0 0 0
0 0 6 35 29 33 33 5 0 13 21 0 0 0 0 0
4 33 36 33 38 45 57 74 78 96 111 28 84 99 106 106
90 71 73 82 86 96 111 117 114 110 110 106 105 105 104 104
112 119 118 113 103 82 33 8 60 105 121 114 100 106 106 114
120 119 120 119 120 119 118 117 113 110 108 102 86 60 31 6
0 0 0 0 0 0 0 0 0 0 0 0 0 0 4 8
65 87 35 17 17 16 16 15 16 15 15 15 14 15 15 15
0 0 0 0 10 20 17 17 13 13 15 5 0 0 0 0
0 0 3 33 28 34 33 5 1 11 20 1 0 0 0 2
23 67 96 105 109 110 95 87 72 100 113 23 83 100 107 108
98 77 75 80 86 91 101 110 108 110 112 109 104 103 105 108
115 119 118 114 103 84 45 16 63 109 121 115 104 108 110 115
120 120 120 119 119 118 117 117 116 117 116 113 112 111 107 95
64 26 6 6 8 8 9 10 11 11 9 3 0 0 10 12
61 63 38 4 5 8 16 16 16 17 16 15 15 15 15 15
0 0 0 0 8 20 18 17 16 16 17 6 0 0 0 0
2 0 2 33 29 35 34 10 3 11 22 6 2 13 50 96
119 123 123 116 114 116 95 89 70 103 120 38 75 100 107 109
105 88 80 83 84 89 95 105 109 112 112 107 107 108 110 112
117 120 118 114 103 86 52 25 86 116 121 116 107 110 113 117
121 120 120 120 120 119 119 119 119 119 118 118 119 118 118 117
113 103 72 26 14 14 14 15 14 13 10 3 0 0 0 0
0 0 0 2 0 7 19 19 20 19 19 18 18 18 18 17
0 0 0 0 7 20 18 17 17 17 18 6 0 1 0 0
7 7 1 32 31 36 35 20 9 11 25 38 85 114 123 123
123 123 122 117 115 116 96 92 77 106 121 43 60 99 108 110
110 99 90 86 90 94 97 103 109 113 113 111 112 111 112 115
119 119 117 113 102 90 52 33 98 120 120 116 106 109 114 118
120 119 120 119 120 120 120 119 120 119 119 119 120 119 119 119
119 118 115 97 42 15 16 15 16 14 12 5 0 0 0 0
0 0 0 3 0 7 16 14 13 12 11 10 9 7 6 5
0 0 0 0 6 20 17 17 18 18 19 10 0 3 0 0
9 16 8 30 33 36 34 20 27 57 97 116 120 122 122 123
123 122 122 118 119 113 93 90 89 107 123 57 40 93 105 111
111 104 100 96 95 102 105 109 113 117 119 119 115 113 115 117
120 119 117 111 102 92 45 43 110 120 120 116 109 110 114 117
120 120 120 120 120 119 119 119 118 119 119 119 119 120 119 120
119 119 119 117 107 56 19 17 16 15 12 5 0 0 0 0
0 0 0 1 16 20 20 20 21 22 22 23 24 25 25 27
0 0 0 0 6 20 18 17 18 18 20 20 16 20 20 20
27 31 30 40 37 37 43 66 107 121 122 122 122 123 122 123
123 122 123 121 122 111 96 85 88 107 123 103 36 81 103 109
113 109 107 103 98 103 110 115 119 121 120 118 113 112 116 118
120 119 116 112 104 85 39 60 117 119 120 117 113 113 113 117
120 120 119 119 119 120 120 119 119 119 119 119 119 119 119 119
119 119 118 118 118 108 65 20 17 16 14 7 0 0 0 0
0 0 0 4 33 34 34 33 33 33 33 32 32 32 32 32
0 0 0 0 5 20 17 16 19 19 19 29 36 38 39 41
44 47 48 51 52 77 109 120 122 123 123 123 123 123 123 123
123 123 123 121 121 111 97 82 91 106 123 121 70 58 100 109
112 111 108 105 105 106 111 116 118 118 119 117 111 113 117 118
120 120 117 111 105 73 42 99 116 119 120 116 113 113 112 117
120 120 120 120 120 119 119 119 119 119 119 119 119 119 119 118
119 119 118 119 118 118 104 60 18 16 15 7 0 0 0 0
0 0 0 6 34 34 34 33 33 33 32 32 32 32 33 33
0 0 0 0 5 19 17 16 18 20 19 28 40 41 41 42
45 48 58 87 111 118 122 123 124 123 123 123 123 122 122 123
122 122 123 122 121 111 99 86 81 104 121 122 104 44 90 107
111 112 110 105 105 109 114 115 119 117 117 113 108 114 117 119
120 119 114 110 102 55 60 113 118 120 119 115 113 109 111 118
120 119 119 120 120 119 119 119 120 119 119 119 119 119 119 118
119 119 119 118 118 118 116 105 52 17 16 7 0 0 0 0
0 0 0 7 34 33 33 33 33 33 33 32 32 32 32 32
0 0 0 0 4 19 17 15 17 19 19 19 28 28 28 28
35 73 110 120 123 123 123 123 124 123 123 123 123 123 123 123
123 123 123 123 121 110 101 93 78 100 121 122 118 56 71 102
112 114 110 108 106 107 111 114 116 117 115 110 111 115 118 120
120 117 110 113 88 47 82 116 120 120 118 113 107 109 113 119
120 120 120 120 120 120 119 119 119 119 119 118 119 119 119 119
120 119 119 119 119 119 118 118 97 47 16 7 0 0 2 5
0 0 0 9 34 33 32 33 32 32 32 32 32 32 32 32
0 0 0 0 4 19 16 15 18 19 19 15 13 13 14 27
84 120 123 122 123 124 123 123 123 124 123 123 123 123 123 122
122 122 122 122 120 109 103 98 82 97 118 123 121 86 56 96
107 112 112 111 109 108 110 112 113 113 112 112 114 119 120 120
120 112 113 106 67 55 99 116 109 107 118 114 112 114 115 120
120 120 120 120 120 119 119 120 120 119 119 118 119 119 119 119
119 118 119 118 119 118 118 118 115 102 57 8 0 0 23 31
4 0 0 11 33 32 32 32 32 32 32 32 32 32 32 32
0 0 0 0 3 18 16 14 17 19 19 17 15 16 36 96
121 121 122 123 123 123 123 123 123 123 122 123 123 123 123 123
123 122 122 122 121 110 104 101 90 93 114 122 122 112 60 81
109 110 112 113 112 111 111 113 113 113 113 116 118 119 121 120
118 116 113 83 58 78 107 118 75 60 118 115 114 113 117 120
120 121 120 120 120 119 120 120 119 118 119 119 119 119 119 118
119 119 119 119 119 119 118 118 118 115 103 48 0 0 10 12
0 0 0 14 34 33 33 33 32 32 32 32 32 32 32 32
0 0 0 0 4 19 17 15 17 19 19 19 19 43 107 121
116 121 123 123 123 123 123 123 123 123 123 123 123 123 123 122
122 122 122 122 121 112 107 105 97 91 109 122 122 119 82 67
105 115 116 112 113 113 114 116 117 118 119 120 120 120 120 120
118 117 106 66 58 101 115 119 85 56 119 115 112 114 119 119
119 120 120 119 119 119 119 119 119 119 119 119 119 119 118 118
119 119 119 118 119 118 117 118 118 118 113 87 12 0 0 0
0 0 0 15 33 33 32 32 32 31 32 32 32 32 31 31
0 0 0 0 6 20 17 15 17 19 19 22 58 109 123 119
115 121 123 123 123 123 123 123 123 122 123 123 122 123 123 122
123 123 123 123 122 114 107 105 103 90 103 119 109 120 95 63
87 113 118 117 115 114 115 116 120 120 119 119 120 120 120 120
119 116 92 62 81 120 118 119 89 69 118 111 112 118 119 120
120 119 119 119 119 119 119 119 119 119 119 119 119 119 119 119
119 119 119 119 119 119 118 118 118 118 113 105 41 0 0 0
0 0 0 18 33 32 32 33 32 32 32 32 32 31 31 32
5 6 6 7 12 17 16 16 18 20 22 65 115 123 119 121
117 121 123 123 122 122 122 122 123 123 123 122 123 123 123 122
123 122 123 123 122 116 108 105 106 95 101 102 32 110 115 74
72 100 118 120 118 116 118 117 120 120 120 120 120 120 121 120
119 111 78 71 111 119 119 120 88 96 113 111 118 119 119 119
119 120 120 119 119 119 119 119 118 119 119 119 119 119 119 119
119 119 119 118 119 118 118 118 118 118 116 113 88 5 0 0
0 0 0 20 33 32 31 32 32 31 31 31 31 31 31 31
9 9 11 11 13 14 15 16 18 19 36 107 122 120 120 122
118 122 123 123 123 123 123 122 122 122 122 122 122 123 123 122
122 122 122 122 122 118 110 106 107 104 94 115 54 103 122 100
68 81 112 121 121 119 118 119 119 120 119 120 120 120 120 120
117 88 73 105 117 118 120 119 87 111 111 115 118 119 119 119
119 119 119 119 120 119 119 119 119 119 119 119 119 119 119 119
119 119 119 118 118 118 118 118 118 118 118 114 109 41 0 0
0 0 0 17 33 32 32 32 32 31 31 31 31 31 31 31
9 10 11 12 13 14 16 16 18 20 64 117 114 119 123 122
119 123 123 122 123 123 123 123 123 123 123 123 123 123 123 123
122 122 122 122 122 119 113 109 107 106 90 111 86 97 122 115
71 72 102 121 121 121 120 120 120 118 120 120 120 121 120 120
105 73 104 119 118 119 120 113 107 112 114 118 119 119 119 120
119 119 119 119 119 119 119 119 119 119 119 119 118 119 119 119
119 119 119 118 118 118 117 118 119 118 118 115 114 88 7 0
0 0 0 9 30 32 31 31 32 31 31 31 31 31 31 31
9 10 11 11 11 14 14 15 17 31 99 114 114 122 123 123
122 122 123 123 123 123 123 122 122 123 123 123 123 123 122 122
122 122 123 122 122 120 116 113 110 108 99 81 99 89 123 121
100 72 88 119 121 121 121 120 121 120 120 120 121 120 120 116
84 98 120 121 119 120 117 106 115 114 118 119 119 119 119 119
119 119 119 119 119 119 119 119 119 119 119 119 119 119 119 119
118 119 118 118 118 118 118 118 117 118 118 117 114 107 45 0
0 0 0 14 20 31 31 31 31 31 31 30 31 30 30 31
2 1 2 3 7 10 11 13 20 66 107 107 118 123 123 123
123 123 123 122 123 122 123 123 122 123 123 123 123 123 123 123
122 122 122 122 122 120 115 114 112 109 107 81 94 93 118 122
119 89 80 108 122 121 122 120 121 121 121 121 120 120 119 97
87 119 121 120 120 110 96 115 116 117 118 119 120 120 120 119
120 120 119 119 119 119 119 119 119 119 119 119 120 119 119 119
119 118 119 118 118 118 118 118 118 118 118 119 115 114 87 12
0 0 1 26 14 27 31 31 31 31 31 31 30 31 31 31
0 0 0 1 6 12 14 14 29 101 102 108 122 123 123 123
123 123 123 123 123 123 123 123 123 123 123 123 122 123 123 123
122 122 122 122 123 122 120 118 115 110 110 101 83 101 105 121
121 115 93 96 120 122 121 121 121 121 121 120 121 120 111 89
113 120 104 100 92 47 100 119 117 117 118 120 120 120 120 119
119 120 120 120 119 120 119 119 119 120 119 120 119 119 119 119
119 119 119 119 118 119 119 118 118 119 119 118 116 117 101 54
0 0 2 30 24 16 31 31 31 31 31 31 31 30 31 30
0 0 0 2 5 10 15 16 58 114 97 114 122 123 123 123
123 123 123 123 122 123 123 123 123 123 123 123 123 123 123 123
123 122 122 122 122 122 122 122 120 115 111 108 94 96 104 111
122 120 119 105 113 121 121 121 121 121 121 121 121 118 104 107
106 81 75 110 79 69 120 118 119 119 120 120 120 120 120 119
120 120 120 120 120 119 119 118 119 119 120 119 119 119 119 119
119 119 119 117 118 119 118 118 118 118 119 119 117 117 110 86
13 0 3 31 31 16 24 31 31 31 31 30 31 31 31 31
0 0 0 3 5 10 15 20 88 113 97 117 123 121 122 123
123 123 123 123 121 123 123 123 123 123 123 123 123 123 123 122
123 123 122 122 122 123 123 122 122 119 112 108 105 95 103 103
104 99 64 98 115 119 121 121 121 121 121 121 121 119 120 118
112 116 117 120 97 101 120 117 120 120 120 119 120 119 119 120
119 119 120 120 120 119 119 118 119 119 119 119 119 119 119 119
119 118 117 114 118 119 119 118 118 119 119 118 117 115 117 96
51 0 5 30 31 22 7 17 31 31 31 30 30 30 30 29
3 4 4 3 7 11 16 38 108 112 100 121 122 121 124 124
124 124 123 123 121 123 123 123 123 123 123 123 123 123 123 123
123 123 122 122 122 122 122 122 122 121 117 113 111 103 102 108
105 53 70 103 115 119 121 121 122 121 121 122 121 121 120 119
119 120 120 120 118 117 119 119 120 120 121 120 120 120 120 120
120 120 120 120 120 118 119 118 119 118 119 119 120 119 120 119
119 119 111 112 120 119 119 118 118 119 119 119 118 116 118 105
83 11 4 24 21 3 5 3 29 30 30 29 30 30 30 30
8 8 8 8 11 14 18 67 115 109 101 120 122 123 124 124
123 123 123 123 121 122 123 123 123 122 123 122 123 123 122 123
123 122 123 122 122 122 123 122 123 123 122 119 115 114 110 108
114 74 76 100 112 122 122 121 122 122 122 121 121 121 120 120
121 121 120 120 119 118 120 120 121 120 120 120 120 119 120 119
119 120 120 120 120 119 120 119 118 119 118 119 119 119 119 119
119 119 93 115 119 119 119 118 118 119 118 119 118 115 118 114
91 46 0 5 12 16 26 3 28 30 30 29 30 29 29 29
8 8 9 10 10 10 31 85 118 106 103 120 125 123 124 124
123 124 123 123 122 121 123 123 122 123 123 123 123 123 123 123
123 122 123 122 121 122 122 122 122 122 123 122 122 122 121 113
117 105 93 86 105 120 122 121 122 122 121 121 121 121 119 121
121 120 121 121 119 118 120 120 120 120 121 120 120 120 120 120
119 120 120 120 120 119 119 119 119 119 119 119 120 119 120 120
119 118 79 119 119 119 119 119 117 119 118 118 118 115 118 117
98 78 6 1 4 11 19 1 22 29 30 29 29 28 28 28
2 2 2 4 4 7 60 93 119 103 103 121 123 123 123 123
123 123 122 122 122 121 123 123 123 123 122 122 122 123 123 122
122 122 123 123 122 122 122 122 122 122 122 122 122 121 122 119
116 116 114 97 91 108 121 121 122 122 121 121 120 120 120 120
120 120 121 120 120 118 120 120 120 120 120 120 120 120 119 119
119 119 119 119 119 119 119 119 118 119 119 119 119 119 119 119
119 116 90 120 119 119 118 119 116 118 118 118 117 115 118 118
106 89 33 0 0 0 0 0 4 20 29 28 29 28 28 28
