P2
128 120
124
25 25 24 23 23 23 22 22 22 21 21 21 20 20 20 20
19 18 18 18 17 17 16 17 16 16 16 15 16 15 15 14
13 14 13 12 12 12 11 11 11 11 9 8 6 6 6 9
9 11 11 7 4 10 14 12 11 9 9 9 8 7 5 3
2 2 1 4 6 5 5 3 5 7 8 8 9 10 10 10
10 11 11 11 11 12 13 13 13 14 14 14 14 14 15 16
16 16 16 16 17 18 18 18 19 19 20 20 21 21 21 21
21 21 22 23 21 22 23 23 22 23 22 22 23 24 23 23
25 25 24 24 24 23 23 22 22 22 21 21 20 20 20 19
19 18 18 19 18 17 18 17 16 16 16 16 15 15 14 14
14 13 13 13 13 12 12 12 11 11 10 9 7 7 7 10
11 12 13 8 3 10 15 13 11 11 10 9 8 7 7 5
4 2 1 4 7 7 5 6 8 9 10 9 10 10 11 11
12 11 12 12 13 14 14 14 14 14 15 15 15 15 15 15
16 17 18 18 19 18 19 20 21 21 20 21 21 22 21 22
22 22 22 23 22 23 23 23 24 23 23 23 23 24 23 23
25 24 24 24 23 23 23 22 22 22 21 22 21 20 20 20
19 19 19 18 18 18 17 17 17 17 16 16 16 16 15 15
15 14 14 13 13 13 12 12 12 11 11 9 9 8 9 12
13 14 15 9 3 10 15 13 12 12 10 10 10 9 7 7
8 5 2 2 7 6 6 7 9 9 10 10 11 12 12 12
13 13 14 13 14 14 14 14 15 15 15 15 16 16 17 17
18 18 20 19 19 19 20 20 21 20 21 21 21 21 21 22
22 23 23 24 22 23 23 23 23 23 23 23 23 24 24 24
25 25 25 24 23 24 23 22 22 22 21 21 21 20 20 20
20 20 19 19 18 18 18 17 16 17 16 16 16 16 15 14
15 14 14 14 13 13 13 13 12 12 11 10 9 9 10 14
14 15 14 10 3 10 16 14 13 13 12 11 10 9 7 8
8 6 3 1 7 6 7 8 10 10 11 11 12 13 13 13
13 13 14 14 14 14 15 15 15 16 16 16 17 18 17 18
18 19 20 19 19 20 20 21 21 21 21 21 22 21 21 22
22 22 22 23 23 23 23 23 24 24 24 24 23 24 24 24
25 25 24 24 24 23 23 23 22 22 22 21 21 21 21 20
20 20 19 19 18 18 18 17 17 16 17 16 16 16 16 16
15 15 14 14 14 14 13 13 12 12 12 11 10 10 11 14
15 15 15 10 4 9 17 14 14 13 13 12 11 10 8 8
9 9 5 2 8 6 9 10 11 11 12 12 13 14 14 14
15 14 14 14 14 15 15 15 16 16 17 17 17 18 18 18
19 19 21 20 20 20 21 21 21 21 21 21 21 22 22 22
22 22 23 24 23 23 24 24 24 23 23 23 22 23 24 24
24 24 24 23 23 23 23 22 23 22 21 21 21 20 20 20
19 19 19 18 18 19 18 17 17 17 17 17 16 16 16 16
15 15 15 14 14 14 14 13 13 12 12 12 12 12 12 15
15 16 15 10 5 9 17 15 13 13 13 12 11 10 9 9
10 8 6 3 8 8 9 11 12 12 13 13 14 14 14 13
13 14 15 15 15 15 16 16 17 17 17 17 18 18 18 19
19 19 20 20 20 20 21 21 21 21 21 22 22 22 22 22
22 22 23 23 22 23 22 22 22 22 23 23 24 23 24 24
24 24 24 24 23 23 22 22 22 22 22 21 21 21 21 21
20 19 19 19 18 18 17 17 17 17 17 17 16 16 16 16
16 15 15 15 14 14 14 13 12 12 13 12 12 12 13 16
16 16 16 12 6 8 16 15 14 13 13 12 12 11 10 10
10 9 8 4 8 8 10 12 12 12 13 13 13 13 14 14
15 15 16 15 15 16 16 16 17 17 17 18 17 18 18 19
20 20 21 20 20 20 20 21 21 21 21 21 21 22 22 22
23 23 23 22 21 23 23 24 23 23 23 23 23 23 23 23
24 24 24 23 24 23 23 22 23 23 22 21 21 21 20 20
20 20 19 19 19 19 19 18 18 18 17 17 16 16 16 16
16 15 15 15 14 14 14 14 14 13 12 12 12 13 13 16
17 17 17 12 7 7 17 16 14 14 14 13 12 12 12 10
10 10 8 4 10 10 12 12 13 13 13 14 14 15 16 15
15 15 16 16 16 17 17 17 18 18 18 18 18 19 20 19
20 20 21 20 21 21 21 22 21 22 21 21 22 22 22 22
22 22 22 23 23 23 23 23 23 23 23 23 24 24 24 24
25 24 24 23 23 23 24 23 22 23 22 22 21 21 20 20
20 20 19 19 19 19 18 18 17 18 18 17 18 17 17 17
16 17 16 15 15 14 14 13 14 13 13 13 13 14 14 17
17 18 18 12 8 7 16 16 14 14 14 13 13 13 13 11
11 11 10 7 10 9 12 13 14 14 14 15 14 15 16 16
16 16 17 16 17 17 18 18 18 18 19 18 18 19 19 20
20 20 21 21 21 21 21 21 22 21 21 20 21 22 22 22
24 24 23 23 23 23 24 23 23 23 23 23 23 23 23 24
25 24 24 24 24 24 24 23 23 23 22 22 22 21 21 20
20 20 20 20 19 19 19 18 18 18 18 18 17 16 17 16
16 15 16 15 15 15 15 14 14 14 13 14 14 15 15 18
18 18 18 13 9 7 16 16 15 14 15 14 13 12 12 12
12 11 10 9 11 11 14 15 15 15 15 16 16 16 16 17
16 16 16 17 17 18 18 18 18 18 19 19 19 19 20 20
20 20 21 21 21 21 21 21 21 21 22 23 23 23 23 23
23 23 23 23 23 23 24 24 23 23 24 23 24 24 24 24
25 24 24 24 24 23 23 23 23 23 22 22 22 22 22 21
21 21 20 20 20 19 19 18 18 19 18 18 18 17 17 17
17 16 16 16 15 16 15 14 14 14 14 14 15 15 15 19
19 19 19 14 10 7 17 17 15 13 15 15 14 13 14 13
13 12 12 10 12 12 15 15 15 15 15 16 16 16 17 17
17 17 18 18 18 19 18 19 19 19 19 19 20 20 20 20
21 20 21 21 20 20 20 22 23 23 22 23 22 23 23 23
23 23 23 23 24 24 24 23 24 23 23 23 24 24 24 24
25 25 24 24 24 24 24 23 23 23 22 22 22 21 21 21
21 21 20 20 20 20 20 20 19 19 19 18 18 17 17 17
16 16 16 16 15 16 15 15 15 15 15 15 14 15 16 18
19 19 18 14 11 4 12 17 15 15 15 15 15 15 15 13
14 13 12 9 13 13 15 15 15 16 16 16 17 17 17 17
18 18 18 18 18 18 18 19 19 19 20 20 20 20 20 20
20 19 19 21 21 22 22 22 23 23 23 24 23 23 23 23
24 24 24 24 23 23 24 24 24 24 24 24 24 24 24 25
25 25 25 25 24 24 23 22 22 23 23 22 22 22 22 21
21 21 21 21 20 20 20 19 19 18 19 18 18 18 17 17
17 17 17 17 16 16 16 16 15 15 15 14 15 15 16 19
19 19 18 14 9 2 12 18 17 16 16 15 15 15 15 13
14 14 13 10 14 14 16 16 16 16 16 17 17 17 17 17
18 18 19 19 19 19 20 19 19 20 20 19 20 19 19 20
21 21 22 22 23 23 22 23 23 23 23 24 23 23 24 23
23 23 24 23 24 23 24 23 23 24 24 24 24 24 24 24
25 24 24 24 24 24 23 23 23 23 23 22 23 22 22 22
21 21 21 21 20 20 19 19 20 19 19 19 18 18 18 18
17 17 17 17 17 17 16 16 16 16 15 15 16 16 17 20
20 20 19 15 10 9 14 19 17 17 17 16 16 16 16 14
14 14 14 12 15 14 17 16 17 17 17 17 18 18 18 18
18 19 19 19 19 19 19 19 20 19 20 20 20 21 21 22
22 22 22 22 22 23 23 23 23 23 23 25 25 24 24 24
24 24 24 24 24 24 24 24 24 25 24 24 24 24 24 25
26 25 25 24 24 24 24 23 24 23 23 23 23 23 22 22
22 22 22 22 21 21 20 20 20 20 19 19 19 18 18 18
18 17 17 17 17 17 16 17 17 16 16 15 16 16 17 20
21 20 20 16 12 12 14 20 18 18 18 17 17 16 17 15
15 15 15 11 16 15 16 17 18 17 18 18 18 19 19 19
19 19 20 20 20 19 20 20 20 20 20 21 21 21 21 21
22 22 22 22 23 23 24 23 23 24 24 25 24 24 24 24
24 24 24 24 25 25 25 25 25 25 25 25 25 25 24 25
24 25 24 24 24 24 24 23 23 24 23 23 23 23 23 23
23 22 22 21 21 20 21 20 20 20 19 19 19 19 18 19
18 18 18 17 17 16 17 17 17 16 16 16 17 17 18 20
21 20 20 15 12 13 13 20 19 18 18 18 17 16 18 16
15 15 15 11 16 15 17 18 18 18 19 18 19 19 19 19
19 19 19 19 19 19 20 20 21 21 22 22 22 22 22 23
23 23 23 23 23 23 23 24 23 24 23 25 24 24 24 24
25 25 25 25 25 25 24 25 24 25 25 25 25 24 24 25
26 25 25 25 25 25 25 24 24 24 23 23 23 24 23 23
22 22 22 22 21 21 21 21 20 20 20 20 20 19 18 19
18 18 18 18 18 18 17 17 17 17 17 16 17 17 18 21
21 21 21 17 13 15 14 20 20 19 19 18 18 17 18 16
16 16 15 13 16 16 18 18 19 19 19 19 19 19 19 19
19 19 20 20 20 20 21 21 21 22 22 22 22 22 22 23
23 23 23 23 24 24 24 24 24 24 25 25 25 24 24 25
24 25 25 25 25 25 25 25 25 26 24 24 25 24 25 25
25 25 25 25 25 24 25 24 24 24 24 24 24 24 24 23
23 23 22 22 22 21 21 21 21 20 20 20 20 19 20 19
19 19 18 19 18 18 18 17 18 17 17 17 17 17 18 22
22 21 22 17 13 16 13 20 19 19 19 19 18 17 18 17
17 16 16 13 17 16 19 19 19 19 19 19 20 20 20 20
20 20 20 20 20 21 21 21 22 22 22 23 23 23 23 23
23 24 23 24 24 24 24 24 24 24 24 25 25 25 25 25
25 26 25 25 25 25 25 24 25 25 25 25 25 25 25 25
26 25 25 25 25 24 25 24 24 24 24 24 24 23 23 23
23 23 22 22 22 22 21 21 21 21 20 20 20 20 19 19
19 18 18 18 18 18 18 18 17 17 17 18 17 18 18 22
22 22 22 17 13 17 13 20 20 19 19 19 18 18 18 17
16 16 17 13 17 17 19 19 19 18 19 20 20 20 20 20
20 20 21 20 21 21 22 22 22 22 22 23 22 23 23 23
23 23 23 23 23 25 24 25 25 24 24 25 25 25 25 25
25 25 24 24 24 24 25 25 25 25 25 25 24 25 24 24
25 24 25 24 25 24 24 24 24 24 25 24 24 23 23 23
23 22 22 22 22 22 22 22 21 21 21 21 20 20 20 20
19 19 19 19 18 18 18 18 17 17 18 17 18 18 20 22
23 22 22 18 14 18 14 19 20 20 20 19 18 18 19 18
18 18 17 14 17 15 19 19 20 20 19 21 20 20 20 21
21 21 21 21 21 22 22 23 22 23 23 23 23 23 24 24
24 24 24 24 24 24 24 24 24 25 25 26 25 25 24 24
24 24 25 25 25 24 25 25 24 24 25 25 25 25 25 25
25 25 25 25 24 24 25 25 24 24 23 24 24 22 22 23
23 22 21 22 22 22 21 21 21 21 21 20 21 20 19 19
19 19 19 19 18 18 18 18 17 18 17 17 18 18 19 22
23 22 22 18 13 18 14 19 20 20 20 19 19 18 20 17
17 17 17 14 18 17 20 20 20 20 20 20 20 20 20 20
21 21 21 21 21 21 22 23 23 22 23 23 23 23 23 23
23 23 23 24 24 24 24 25 25 25 24 23 24 24 24 24
24 25 24 24 27 24 24 24 24 24 24 24 25 25 25 25
25 25 25 24 25 25 24 24 24 24 24 24 24 23 23 22
22 22 22 22 22 22 22 21 20 21 21 21 21 20 20 20
20 19 19 18 19 18 18 18 18 18 18 18 18 19 19 22
23 22 22 18 13 18 15 18 20 20 20 19 19 19 20 18
18 17 17 15 18 18 20 20 20 20 20 21 21 21 21 21
21 22 21 21 21 22 22 22 22 22 23 24 24 23 23 23
24 24 24 24 24 24 24 24 24 25 25 25 25 25 25 25
25 25 25 25 26 25 24 24 24 25 24 25 24 25 25 25
25 25 24 25 24 24 24 24 23 24 23 23 23 23 23 23
23 22 22 22 23 22 22 21 21 21 21 20 20 20 19 19
20 19 19 19 19 18 19 18 19 18 18 18 18 19 19 22
23 22 23 18 13 18 17 18 20 20 20 20 19 19 20 18
17 17 17 15 17 17 19 19 20 20 20 21 21 21 21 21
21 21 21 21 22 22 22 23 23 23 23 23 23 23 23 23
23 23 23 24 24 24 25 25 25 25 25 25 25 25 24 24
25 24 25 25 25 24 24 24 24 25 25 25 25 25 25 24
25 25 25 25 24 25 25 24 25 24 23 24 23 23 23 24
23 23 23 23 22 22 22 22 22 21 21 21 21 21 21 20
20 20 20 20 19 19 19 19 19 18 19 18 19 19 20 22
23 23 23 19 13 18 18 17 20 20 21 20 20 19 20 20
19 18 18 16 18 18 20 20 20 20 20 21 21 21 22 22
22 22 22 21 22 23 23 23 23 23 24 23 23 23 23 23
24 24 24 25 25 25 26 25 25 25 25 25 25 25 25 25
25 25 25 25 25 25 24 25 25 24 25 25 25 25 25 24
25 25 25 25 24 25 24 24 24 24 24 23 23 24 23 23
23 23 23 23 22 22 22 22 22 22 21 21 21 21 21 20
20 20 20 20 20 20 20 20 20 18 19 18 18 18 14 14
15 14 13 13 13 19 19 16 21 21 21 21 20 19 19 18
18 18 18 16 18 18 20 21 21 21 21 22 22 21 22 21
22 22 22 22 22 23 23 23 23 23 23 23 23 24 24 24
24 24 25 26 25 26 26 26 26 25 25 25 25 25 25 25
25 25 25 25 25 25 25 25 25 24 25 24 25 25 25 25
25 25 25 25 25 25 24 24 24 24 24 24 25 24 24 24
24 23 23 23 23 22 22 22 22 22 21 22 22 22 21 21
20 21 21 20 20 19 20 20 18 17 17 15 12 8 1 0
0 0 0 0 2 8 13 15 20 20 21 21 20 19 19 20
19 19 19 16 18 18 21 21 21 21 22 22 22 22 23 23
23 23 23 23 23 23 23 23 24 24 24 23 24 24 25 25
25 25 25 26 26 26 26 26 26 25 25 25 26 25 25 25
25 26 26 26 26 26 25 25 25 25 24 24 24 24 25 25
25 24 25 24 24 24 24 24 24 24 24 25 24 24 24 24
24 23 23 23 23 23 22 22 22 22 22 21 21 21 21 21
21 21 20 15 14 17 20 22 23 24 18 15 15 4 0 0
0 0 0 0 0 0 0 4 12 17 19 20 20 19 18 19
19 19 19 16 18 18 21 22 22 22 22 23 22 23 23 22
22 22 21 22 23 22 23 23 24 24 24 24 23 25 25 25
25 24 25 26 26 25 26 26 26 26 26 26 26 25 25 25
26 26 26 25 25 26 25 25 25 25 25 25 25 25 25 25
25 25 25 25 25 25 24 25 25 24 24 24 24 24 24 24
24 24 24 23 23 23 23 22 23 23 22 22 22 22 22 22
22 20 7 9 16 13 16 15 18 18 18 20 21 11 0 0
0 0 0 0 0 0 0 0 0 2 9 14 17 19 19 19
19 20 19 18 19 19 21 22 22 22 22 22 21 22 22 22
22 22 23 23 23 23 24 24 24 24 25 25 25 24 25 26
26 26 26 27 26 26 26 26 26 26 26 26 26 25 26 26
26 26 26 25 25 26 25 26 26 26 26 26 25 25 25 24
25 25 25 25 25 26 25 25 25 25 25 25 25 25 24 24
25 24 24 23 23 23 23 23 23 23 23 23 23 22 22 22
16 5 3 3 0 0 2 9 17 19 23 20 20 20 5 0
0 0 0 0 0 0 0 0 0 0 0 1 8 13 18 21
19 20 20 18 19 20 22 23 23 22 23 22 22 23 23 22
23 23 23 24 24 24 25 24 24 25 26 25 25 26 26 27
27 26 26 27 27 26 27 26 27 26 26 26 26 27 26 26
26 26 26 26 26 27 26 26 26 25 25 24 25 25 25 25
26 26 26 26 26 26 25 25 25 25 25 25 25 25 25 25
24 25 24 24 24 24 24 24 24 23 23 23 24 23 22 10
1 0 0 1 6 13 17 9 6 15 26 24 23 23 21 9
3 1 0 0 0 0 0 0 0 0 0 0 0 3 7 15
20 21 20 19 20 20 22 22 23 22 23 23 24 24 24 23
24 24 24 25 25 25 25 26 25 25 25 26 26 26 26 26
27 26 27 27 27 26 27 27 27 27 27 26 26 27 26 27
27 27 27 27 26 25 24 24 24 25 25 24 26 26 27 25
26 25 26 25 26 25 25 25 26 26 26 26 26 25 25 25
25 25 24 24 24 24 24 24 24 24 24 24 23 22 13 0
2 5 10 15 20 22 22 22 30 30 32 32 31 30 29 22
11 3 0 0 0 0 0 0 0 0 0 0 0 0 0 2
13 19 20 18 19 21 22 23 23 23 24 24 24 24 24 24
24 24 24 25 25 25 25 25 25 25 26 26 26 27 27 27
26 27 27 27 27 27 27 27 27 27 27 27 27 27 27 26
26 25 25 25 25 25 25 25 25 26 26 24 25 25 27 25
22 24 26 26 26 26 26 26 26 25 26 25 25 25 25 25
25 25 25 25 25 24 25 24 24 24 24 24 23 19 6 9
20 23 23 16 15 22 38 54 69 79 76 70 64 64 56 45
32 16 4 0 0 0 0 0 0 0 0 0 0 0 0 0
2 4 12 18 20 21 22 23 23 23 24 23 24 24 24 24
25 25 26 26 25 25 26 26 26 26 26 26 26 26 27 26
26 26 27 27 27 27 28 27 28 27 28 27 26 25 25 25
25 25 26 26 26 25 26 26 25 26 26 25 25 26 26 25
6 14 26 26 26 26 26 26 26 26 25 25 26 26 26 25
25 25 25 24 24 24 24 25 25 25 24 24 24 9 8 23
28 23 15 15 30 57 75 81 87 89 88 85 82 81 75 68
56 28 5 0 0 0 0 0 0 0 0 0 0 0 0 0
0 0 2 7 20 21 23 24 24 23 24 24 24 25 25 25
25 25 25 26 26 25 25 26 26 26 26 26 27 27 27 27
27 27 28 28 28 27 27 27 27 27 26 26 27 27 26 27
27 26 27 26 25 26 26 25 26 25 26 26 26 26 25 25
5 13 25 26 26 26 26 26 26 25 25 26 26 26 26 26
26 26 26 26 26 25 25 24 24 24 24 23 10 3 18 28
24 11 17 39 68 84 89 90 92 93 93 91 90 84 78 81
70 45 10 0 0 0 0 0 0 0 0 0 0 0 0 0
0 0 0 0 13 21 21 23 24 24 25 24 25 25 25 24
25 25 25 26 26 26 26 26 26 26 27 26 27 27 27 27
27 27 27 27 27 27 26 27 27 27 27 26 27 27 26 26
26 26 26 26 26 26 26 26 26 26 26 26 25 25 26 25
7 11 25 26 26 26 26 26 25 26 26 27 26 26 26 25
26 26 26 25 25 25 24 25 25 25 23 8 0 5 21 19
15 28 51 71 86 92 94 95 96 97 99 97 95 88 83 87
77 48 12 0 0 0 0 1 0 0 0 0 0 0 0 0
0 0 0 0 1 13 19 22 24 24 24 24 25 25 25 25
26 26 26 26 26 25 26 26 26 27 27 27 27 27 27 27
27 26 27 27 26 26 26 26 26 26 26 26 27 27 26 26
26 26 26 26 26 26 26 25 25 26 26 25 25 25 25 25
8 13 26 27 27 27 27 26 27 33 33 31 31 29 28 27
26 26 27 26 26 25 25 25 25 24 10 0 0 11 14 19
43 63 78 89 95 95 96 97 99 100 101 100 98 95 91 94
88 54 14 1 0 1 2 1 4 0 0 0 0 0 1 0
0 0 0 0 0 5 16 21 23 24 25 25 25 25 25 26
26 26 27 27 27 26 26 26 26 26 26 27 27 27 27 27
27 27 27 27 27 27 27 27 27 27 27 26 26 27 26 27
26 25 27 26 26 27 26 26 25 26 26 26 26 25 25 25
8 14 27 27 27 27 27 26 28 36 36 35 34 32 31 30
30 27 26 26 26 25 25 25 25 22 2 0 8 6 12 46
67 77 88 92 95 98 102 102 103 103 102 102 104 103 99 96
93 51 20 2 0 2 5 1 1 1 0 0 0 0 2 1
0 0 0 0 0 0 3 15 21 23 25 26 26 26 26 26
26 26 27 26 26 25 25 26 26 27 27 27 27 26 27 27
28 28 28 27 27 26 26 26 27 27 26 26 27 27 27 27
27 27 27 27 26 26 26 26 25 25 26 25 25 25 25 26
8 16 29 29 28 28 27 27 29 37 37 35 33 33 33 34
36 31 31 31 29 27 26 25 26 17 0 0 1 7 38 67
75 86 93 97 102 103 104 106 105 103 104 105 107 103 99 99
88 56 20 3 3 2 6 2 0 3 0 0 0 0 2 6
0 0 1 0 0 0 0 6 17 22 24 26 26 26 26 26
25 26 25 25 26 26 27 27 27 27 27 27 28 27 28 27
27 28 27 27 28 27 27 27 27 27 27 27 27 27 27 27
27 26 27 25 25 26 27 26 26 26 26 26 26 25 25 26
8 17 32 31 29 29 29 29 30 31 27 31 33 34 36 37
38 32 28 30 32 31 30 29 28 19 0 0 0 29 62 74
82 91 98 104 103 104 105 106 106 103 103 106 108 107 104 97
85 54 16 7 8 3 8 7 3 3 7 0 2 1 4 6
1 0 2 0 0 0 0 0 7 18 22 26 25 25 26 25
26 26 26 26 26 26 27 26 26 27 27 28 28 27 27 27
27 27 28 28 27 27 26 27 26 26 26 26 27 28 27 27
27 26 26 26 26 27 26 25 26 26 25 26 26 26 26 26
8 17 31 30 25 27 31 33 35 19 0 5 17 26 29 32
34 29 5 5 11 17 24 26 28 17 0 0 14 53 74 78
84 93 102 105 106 107 106 104 103 104 105 106 107 108 105 97
80 41 12 6 9 8 13 11 6 3 15 4 3 8 8 6
3 0 4 8 0 0 0 0 3 12 20 24 26 25 25 26
26 26 26 26 26 26 26 27 27 27 27 28 28 27 28 27
28 27 27 27 27 27 26 27 27 27 27 27 27 28 28 27
27 26 26 26 26 26 26 26 26 26 26 27 27 26 26 25
9 16 29 32 29 27 28 34 38 19 0 0 2 9 11 12
19 27 1 0 0 0 1 4 8 3 0 2 40 68 81 80
86 98 105 106 106 107 106 103 105 105 107 106 106 106 104 101
74 32 11 9 6 8 17 15 11 1 13 12 7 9 11 15
8 3 4 17 6 0 0 0 0 4 16 21 26 26 26 26
26 26 26 27 26 26 26 26 27 27 27 27 28 27 27 27
27 27 27 27 27 27 27 27 26 27 27 27 27 27 27 26
26 26 26 26 26 26 26 26 26 26 26 26 26 26 26 24
9 7 7 13 20 27 31 35 38 21 0 0 0 3 6 8
13 27 2 0 0 0 0 0 0 0 0 22 55 77 81 80
91 100 105 108 106 108 108 106 106 107 108 106 106 103 101 93
64 26 12 12 10 6 12 20 15 3 8 11 12 14 11 15
13 7 8 20 19 4 1 0 0 1 11 19 25 27 26 26
26 26 26 26 27 27 27 27 27 27 28 28 28 28 27 27
27 27 27 28 27 27 28 27 26 27 27 26 27 27 27 26
26 26 26 26 26 26 26 27 27 26 27 27 26 26 26 26
9 4 0 0 0 1 6 13 21 20 0 0 0 0 0 2
11 27 3 0 0 0 0 0 0 0 2 44 66 80 82 86
96 102 104 106 107 107 108 108 108 110 110 108 105 100 98 87
64 27 18 14 13 12 8 10 20 15 11 14 7 13 14 15
18 17 10 18 14 9 7 0 0 0 5 18 24 26 27 27
27 27 27 27 27 27 27 27 27 28 28 28 28 27 28 28
28 28 28 28 28 28 28 28 28 28 27 27 28 27 27 27
27 27 27 27 27 27 26 27 28 27 27 26 27 27 27 26
9 4 0 0 0 0 0 0 0 13 0 0 0 0 0 0
9 26 1 0 0 0 0 0 0 0 16 55 72 82 83 92
98 102 105 107 108 108 109 111 111 110 108 106 103 100 102 86
60 27 20 18 15 12 12 11 9 12 15 14 10 13 16 15
12 16 13 16 5 7 21 1 0 1 1 15 24 26 27 26
27 27 27 27 27 27 27 27 28 28 28 28 29 27 28 28
28 28 28 28 28 28 28 28 28 28 28 28 27 28 27 28
27 28 28 27 27 27 28 28 28 28 27 27 27 26 27 26
10 4 0 0 0 0 0 0 0 10 0 0 0 0 0 0
12 28 2 0 0 0 3 6 0 0 33 62 75 80 87 94
99 102 104 107 109 108 110 112 112 109 108 108 105 102 104 87
55 31 25 20 18 14 12 12 16 11 12 10 9 10 17 17
11 15 7 8 11 5 19 9 1 2 0 7 24 27 27 27
27 27 28 27 28 28 28 28 27 28 28 28 28 28 28 29
29 29 29 29 29 29 29 28 28 27 27 27 27 27 27 28
28 27 27 27 27 27 28 28 27 28 28 27 27 27 27 27
10 4 0 0 0 0 0 0 0 9 0 0 0 0 0 0
11 31 3 0 0 0 6 10 8 7 49 67 76 80 91 95
99 102 105 107 108 110 111 115 115 112 108 107 108 102 103 89
50 41 26 23 20 16 12 9 12 12 11 11 6 10 17 22
13 8 6 6 13 12 12 15 3 4 0 4 24 27 27 27
28 28 28 28 28 28 28 28 28 29 29 29 30 29 29 29
29 29 29 29 29 28 29 29 28 28 28 28 28 28 28 28
28 27 27 27 26 27 28 28 28 28 28 28 28 29 28 28
9 4 0 0 0 4 2 0 0 7 0 0 0 0 0 0
11 32 3 0 0 0 7 10 10 17 57 71 74 85 93 98
101 103 107 107 109 113 116 116 116 115 110 108 107 100 100 80
51 41 27 24 22 15 14 9 8 10 6 6 4 8 18 16
15 12 9 9 12 14 11 8 7 6 0 2 23 28 27 27
27 27 28 27 27 28 28 28 29 28 29 29 30 28 28 29
29 29 30 30 30 29 30 28 28 28 28 28 28 28 28 27
28 28 28 27 28 27 28 29 29 29 28 28 28 27 26 26
9 4 0 4 1 1 0 0 0 8 0 0 0 0 0 0
11 33 3 0 0 0 6 10 10 25 63 72 77 90 96 100
103 103 105 107 111 115 116 116 116 116 114 108 109 98 96 80
50 36 32 27 19 13 11 5 6 6 4 2 1 3 15 10
10 14 18 15 18 16 12 7 11 9 1 1 21 27 28 28
27 27 28 28 28 28 28 29 28 29 29 29 29 29 29 29
29 29 29 29 30 29 29 29 29 28 29 29 28 29 29 29
29 28 28 28 28 27 28 27 27 27 27 28 28 25 24 23
10 4 1 1 0 0 0 0 0 9 0 0 0 0 0 2
16 34 7 0 0 0 0 2 8 32 68 70 80 93 98 102
104 104 106 108 111 114 116 116 115 115 115 111 109 102 94 83
49 32 37 28 13 13 5 5 3 8 3 3 3 2 6 14
10 6 15 12 14 16 12 12 22 14 5 1 19 28 28 27
28 28 28 28 29 29 29 29 28 29 29 29 29 29 28 29
29 29 29 29 30 29 29 29 29 29 29 29 29 28 28 28
28 28 27 26 26 28 28 27 25 24 22 20 18 15 12 11
10 4 0 0 0 0 0 0 0 18 13 7 4 3 0 0
11 38 27 20 16 13 7 3 3 40 71 71 85 95 98 101
97 82 60 42 43 63 79 93 105 114 116 115 115 110 94 91
55 28 36 29 11 8 5 7 3 8 6 5 6 8 5 9
10 9 9 11 9 23 18 15 22 16 6 4 20 27 28 28
28 28 28 28 29 28 28 28 29 28 29 29 28 29 29 29
29 29 29 29 30 29 29 29 28 27 27 28 27 26 26 25
26 27 24 24 22 21 18 16 14 11 10 9 9 10 11 11
9 4 0 0 0 0 0 0 0 28 39 31 27 27 23 16
20 41 24 19 21 23 24 22 21 50 66 71 87 90 83 46
12 0 0 6 35 23 16 18 13 16 27 42 56 68 73 77
65 27 31 31 17 3 2 4 8 2 6 7 11 24 13 3
8 13 7 9 6 20 21 14 20 14 12 4 18 28 28 28
28 28 28 28 30 29 29 29 29 28 29 29 28 29 29 29
29 30 29 29 29 29 27 27 26 26 26 26 25 24 23 21
19 16 14 13 12 11 11 11 12 12 13 13 14 15 16 16
9 4 0 0 0 0 0 0 0 30 41 32 37 38 41 41
37 38 17 8 10 11 12 13 17 53 66 69 72 45 5 0
0 0 0 3 15 13 10 11 12 15 16 17 19 17 15 11
8 6 6 10 8 3 0 3 13 3 2 8 19 23 19 4
6 10 8 7 3 15 19 12 10 7 10 7 20 27 28 29
28 28 28 28 29 28 28 28 28 28 29 29 29 28 29 29
28 28 28 28 28 27 26 26 28 23 19 17 15 14 13 11
12 12 13 13 14 14 15 15 16 17 17 18 17 13 18 20
9 12 13 9 5 1 0 0 0 28 34 31 38 40 43 42
35 29 16 10 10 9 9 8 11 52 65 55 28 0 0 0
0 0 0 3 2 7 19 31 37 41 41 38 35 29 23 19
15 12 9 10 8 4 2 0 2 1 1 17 25 20 19 9
11 4 10 6 2 6 12 11 1 2 8 9 20 25 26 27
27 27 26 26 28 27 27 27 28 28 28 28 28 28 28 27
27 25 24 22 21 18 16 18 27 18 10 11 13 13 13 14
15 15 16 17 18 18 19 20 20 20 21 21 21 18 13 20
9 17 33 35 33 28 22 17 15 31 27 30 37 38 41 42
37 31 19 10 10 9 7 6 9 50 64 44 1 0 0 0
0 0 0 15 16 36 61 73 100 107 110 111 111 110 108 101
92 79 38 16 6 3 1 0 1 0 0 9 19 16 20 18
17 11 7 10 1 1 9 9 0 0 2 10 19 25 26 26
26 26 25 26 27 27 27 27 27 27 26 26 24 23 20 18
16 15 14 14 14 14 14 13 22 16 12 15 17 18 18 19
19 20 20 20 21 21 21 21 22 22 22 21 22 22 20 13
10 18 34 38 38 36 37 37 37 37 14 15 23 28 33 37
34 31 22 11 10 7 4 3 6 36 63 32 0 0 0 0
0 0 0 10 34 65 102 92 91 96 106 112 114 114 115 114
108 104 74 34 13 11 9 7 2 0 1 0 27 79 84 58
18 17 16 5 3 1 11 10 3 2 3 14 17 24 24 24
24 25 26 25 26 25 25 23 21 19 18 16 15 14 14 14
15 16 17 17 19 19 19 18 24 19 16 19 21 22 22 22
22 22 23 23 23 23 23 23 23 23 23 22 22 24 24 20
9 16 33 38 38 37 38 38 39 35 5 0 1 3 6 12
15 25 24 10 7 3 0 0 0 8 51 13 0 0 0 0
0 0 0 9 34 61 105 113 109 106 108 111 115 115 115 115
112 109 76 40 14 8 7 4 0 0 0 10 78 89 90 101
68 10 16 12 8 5 17 9 2 4 0 5 16 23 23 16
20 24 22 20 19 16 16 16 15 15 16 17 17 18 19 19
20 21 22 22 22 23 23 21 23 19 17 22 24 23 23 24
25 25 25 25 25 25 25 25 24 23 23 24 22 25 25 25
14 18 27 30 31 32 34 36 38 32 3 0 0 0 0 1
7 25 25 10 8 2 0 0 0 0 10 2 0 0 0 0
0 0 0 8 27 39 79 110 114 111 113 115 115 116 115 114
114 109 77 35 12 12 9 5 0 2 4 28 65 93 102 84
100 40 5 17 16 8 11 11 4 6 1 0 14 20 19 12
14 16 16 16 17 18 18 19 21 21 22 22 22 23 23 24
24 25 25 25 25 26 25 19 10 7 17 24 25 25 25 26
25 25 25 26 26 26 26 25 26 25 23 24 24 24 25 25
14 16 17 19 22 25 25 27 35 30 2 0 0 0 0 0
1 25 25 8 6 0 0 0 0 0 0 5 0 0 0 0
0 0 0 4 20 23 51 94 110 115 115 116 116 116 115 113
112 96 63 29 9 26 17 9 7 14 39 68 68 110 116 111
87 84 2 13 22 1 10 12 7 7 1 0 11 17 17 16
17 19 20 20 22 22 24 23 24 24 25 25 26 26 26 26
27 27 27 26 26 26 25 17 0 0 12 24 27 27 26 26
26 27 26 26 27 26 27 26 26 26 25 24 24 22 24 25
13 15 15 16 19 24 23 26 35 30 1 0 0 0 0 0
0 23 22 3 0 0 0 0 0 0 0 1 0 0 0 0
0 0 0 1 24 50 70 95 104 113 117 116 116 116 115 113
109 86 52 20 10 20 25 35 57 84 94 96 85 103 114 114
97 89 19 5 15 2 7 12 13 7 2 0 14 20 21 21
22 23 24 24 26 26 26 26 27 27 28 28 28 28 28 28
27 28 27 22 18 13 21 15 4 1 11 25 27 27 27 27
27 27 27 26 26 27 27 26 26 26 25 26 24 23 23 25
11 14 13 17 21 26 26 30 36 29 1 0 0 0 0 0
0 25 17 0 0 0 0 0 0 0 16 20 0 0 0 0
0 0 0 0 22 54 74 103 106 109 113 115 115 116 115 115
110 75 41 18 17 26 31 50 94 105 106 109 106 98 106 112
108 88 39 0 6 3 10 10 10 2 1 0 18 24 24 25
25 26 27 26 27 27 27 28 28 28 28 28 29 28 28 28
29 29 19 1 0 2 16 14 0 0 10 25 27 28 28 27
27 27 27 26 27 27 26 26 26 26 26 26 25 22 21 22
14 12 0 1 4 7 12 16 20 24 2 0 0 0 0 0
0 27 18 0 0 0 2 0 0 4 71 55 0 0 0 0
0 0 0 0 16 49 78 103 105 108 112 113 116 116 115 115
112 76 39 29 41 35 47 65 100 105 110 104 101 104 107 111
113 94 52 0 5 7 11 6 7 1 2 0 21 26 25 26
27 27 28 27 28 28 29 29 29 29 29 29 29 29 29 29
29 29 24 15 18 22 24 17 0 0 9 24 27 27 28 27
27 27 27 26 26 26 26 26 26 26 25 25 26 25 23 21
18 14 0 0 0 0 0 0 0 12 1 0 0 0 0 0
0 26 15 0 0 0 2 0 0 38 100 85 2 6 0 0
0 0 0 0 13 47 84 102 107 110 111 113 115 116 116 114
113 89 69 48 61 49 62 74 96 106 110 91 45 92 111 112
108 99 60 0 0 5 10 0 1 0 1 5 24 26 26 27
28 28 28 28 29 29 29 29 29 28 29 29 30 29 29 29
29 30 29 28 28 27 26 20 1 0 9 24 26 26 28 27
27 26 26 26 26 26 26 25 25 25 24 25 25 25 24 21
18 14 0 0 0 0 0 0 0 9 1 0 0 2 1 0
0 25 13 0 0 0 3 0 8 84 106 103 18 9 7 0
0 0 0 0 19 55 92 104 111 115 114 115 116 116 116 115
116 111 102 80 74 56 76 83 94 115 111 104 61 76 91 113
103 100 53 0 0 4 4 0 0 0 0 10 27 26 27 28
28 29 28 28 29 29 29 29 30 29 29 30 30 29 29 29
29 28 28 27 27 26 26 22 5 0 14 25 27 27 27 27
26 26 26 26 26 25 25 25 25 25 25 25 25 25 24 21
18 14 0 0 0 1 0 0 0 8 1 0 1 12 7 0
0 26 13 0 0 0 3 1 52 98 103 105 56 4 21 10
0 0 0 0 33 77 101 106 113 116 117 116 117 116 116 116
117 116 113 105 82 60 84 104 108 114 105 92 106 82 78 111
103 104 37 5 0 1 0 1 0 0 0 12 27 27 28 29
29 29 30 29 29 29 29 29 29 29 29 29 30 29 29 29
29 29 29 28 28 27 26 23 13 6 18 25 27 27 27 27
27 26 26 26 25 25 25 25 25 25 25 24 25 24 24 22
15 13 0 0 1 9 3 0 0 8 2 0 6 12 9 2
0 25 11 0 0 0 0 29 85 96 101 106 95 14 15 17
0 0 0 16 64 94 102 109 115 116 117 117 116 116 116 116
116 115 113 106 94 80 99 113 116 115 97 78 111 94 76 109
106 96 12 10 0 2 5 2 0 0 0 15 27 28 28 29
29 29 29 29 29 29 29 29 29 29 29 29 30 29 29 29
29 29 28 28 28 27 25 22 20 19 23 26 27 27 27 26
26 26 25 25 25 25 25 25 24 24 24 23 24 24 23 22
14 13 0 0 5 15 5 1 0 11 17 11 19 19 17 13
6 29 12 0 0 0 16 77 93 98 102 102 104 73 10 8
2 1 21 66 93 102 110 115 116 116 116 117 117 116 116 115
116 115 112 103 96 94 107 115 116 115 100 95 105 84 82 112
113 66 4 4 0 0 6 0 1 0 1 24 27 28 28 29
29 29 29 29 29 30 29 30 29 29 29 29 30 30 29 30
29 29 29 29 29 28 25 23 22 23 26 26 26 26 27 26
26 26 25 26 24 25 25 24 24 24 24 23 23 22 22 20
14 13 0 0 2 6 1 0 0 14 33 32 36 35 34 35
36 39 13 0 0 0 56 99 104 102 96 93 90 92 71 40
35 54 84 96 103 110 115 116 116 116 117 117 117 117 116 116
115 114 107 99 97 93 108 116 116 105 97 112 108 81 103 114
100 41 1 0 0 1 7 0 1 7 4 28 29 29 28 29
30 29 29 29 28 29 29 29 29 29 29 29 29 29 29 29
30 29 29 28 28 27 26 25 24 25 28 28 27 27 28 26
26 26 25 24 24 24 24 22 23 23 23 22 22 21 22 20
15 15 3 0 0 0 0 0 0 13 34 33 37 37 37 40
44 44 26 14 16 21 77 109 116 106 103 103 101 91 95 76
73 84 97 104 110 115 116 117 116 117 117 116 117 117 116 116
115 113 106 98 94 93 109 116 115 90 99 107 100 101 112 108
71 30 1 0 0 5 8 5 0 10 9 29 29 29 29 29
29 29 29 29 29 29 29 29 29 29 29 29 30 29 30 30
29 29 29 29 28 27 27 26 26 27 27 27 27 26 26 26
25 25 25 24 24 23 23 23 22 22 22 21 20 19 20 18
15 16 13 2 0 0 0 0 0 12 33 33 35 35 35 41
44 43 34 28 29 36 84 102 102 102 106 113 114 102 101 82
74 87 100 107 114 117 117 117 117 117 117 116 117 116 117 116
112 110 103 96 92 96 109 116 114 93 94 102 114 113 111 98
38 11 2 0 0 2 4 3 2 4 19 29 28 29 28 28
29 28 29 29 29 29 29 29 29 29 29 30 30 31 30 30
30 30 28 28 28 28 27 25 26 26 26 26 26 26 26 26
25 25 24 23 23 22 22 22 22 21 21 21 20 20 20 20
17 17 10 0 0 0 0 0 0 13 32 29 32 31 32 33
31 31 30 30 32 34 68 94 83 48 49 72 101 100 97 90
69 82 97 108 116 117 117 117 117 117 117 116 116 117 117 115
112 107 101 94 93 97 110 116 115 113 109 116 115 115 110 80
26 10 7 0 2 4 0 2 7 7 24 28 28 28 28 28
29 29 30 30 29 29 30 29 29 29 30 30 30 29 29 30
29 29 29 29 28 28 28 27 27 27 27 26 27 26 26 25
24 24 24 23 22 22 22 21 21 21 21 20 20 20 19 19
18 18 8 0 0 0 0 0 0 13 34 29 30 30 30 30
28 28 31 32 33 35 42 71 84 88 82 61 73 83 93 98
70 73 93 104 112 117 117 118 117 118 117 117 117 117 116 113
110 106 100 97 97 98 107 115 116 115 115 116 116 115 93 76
43 33 14 3 1 3 0 4 10 13 28 30 29 29 29 29
29 30 30 29 30 30 29 29 29 29 29 29 30 30 29 29
29 29 29 28 29 29 28 27 28 28 28 27 27 26 26 26
25 24 24 23 22 21 21 21 21 20 20 19 20 20 20 19
17 17 22 22 20 16 14 13 10 21 36 30 31 31 31 31
32 33 35 33 34 36 40 40 44 68 80 80 89 96 102 103
85 66 85 104 113 117 117 118 117 117 117 117 117 117 115 113
110 105 101 97 97 101 105 112 116 115 114 115 115 105 82 77
29 23 9 6 1 1 0 7 9 18 28 28 28 28 28 28
29 29 29 29 30 30 30 29 29 29 29 29 29 29 29 29
29 29 28 29 29 29 29 28 28 28 27 26 26 26 25 25
24 23 23 23 22 21 20 20 19 19 18 18 18 18 18 18
18 18 33 38 40 36 37 40 40 40 40 34 32 33 32 33
35 37 39 35 35 37 41 39 36 49 72 85 91 97 97 104
99 72 75 99 111 115 116 117 118 117 117 117 117 117 116 113
109 103 101 98 98 99 101 108 115 116 115 116 110 88 84 76
31 8 8 9 5 0 3 10 10 24 28 28 28 28 29 29
29 30 30 30 30 30 29 29 29 30 29 30 30 30 30 29
29 29 29 28 28 28 29 28 28 28 27 26 25 25 25 25
24 23 22 21 20 20 18 19 18 18 17 18 18 17 18 17
19 18 34 44 44 43 44 44 44 43 41 29 27 26 26 27
31 36 41 37 36 35 34 35 37 49 66 85 89 96 97 101
98 88 71 92 107 112 117 117 118 118 118 117 117 117 117 112
106 105 99 100 98 101 100 105 102 109 111 103 89 84 86 78
55 21 9 6 6 1 10 6 10 28 29 29 29 29 29 29
30 30 31 30 30 30 30 30 30 29 29 29 29 29 29 29
29 29 29 29 28 29 29 28 28 27 27 27 26 25 25 24
23 22 22 20 20 19 18 18 19 18 18 18 17 17 17 17
19 17 25 31 32 33 34 36 38 39 37 12 7 5 3 5
8 15 34 37 34 20 13 17 31 50 67 86 96 103 103 105
98 91 84 87 105 110 114 115 117 117 118 118 117 115 114 111
106 106 101 99 96 97 96 99 95 68 77 87 86 85 90 86
59 27 13 10 6 3 7 4 15 30 29 29 29 29 29 30
30 30 29 30 30 30 29 29 29 28 29 29 29 29 30 29
28 27 26 25 23 23 25 28 27 27 27 26 26 25 25 23
22 22 21 20 18 18 18 18 18 17 17 17 17 16 17 17
19 16 20 24 24 23 24 24 24 26 27 7 0 0 0 0
0 1 28 37 25 4 0 1 26 57 71 87 96 103 106 107
100 92 94 83 108 113 113 114 117 118 117 116 117 115 112 110
108 104 100 99 96 94 93 95 100 103 104 105 98 95 102 94
62 19 17 8 7 4 4 2 19 29 29 29 29 29 30 30
30 29 29 30 29 28 27 26 25 25 27 27 29 28 28 24
13 11 10 8 7 7 17 28 28 28 27 26 26 25 23 22
21 20 20 19 18 18 18 17 18 17 17 17 17 15 16 16
18 16 24 29 29 29 29 28 27 28 27 9 2 0 0 0
0 8 30 35 13 0 0 0 19 49 59 69 75 77 81 93
91 91 98 84 107 113 114 115 115 117 117 117 117 115 112 111
110 105 101 99 95 91 90 90 98 104 106 104 102 100 107 98
67 24 16 6 8 1 8 8 26 29 28 29 29 29 30 29
28 24 21 19 16 14 12 9 7 8 11 23 29 29 29 23
6 3 3 3 4 4 16 28 27 27 27 25 25 24 23 21
21 21 19 19 18 18 17 17 17 16 16 16 15 15 16 16
18 16 26 30 32 32 32 32 33 32 30 9 2 0 0 0
0 8 29 32 6 0 0 0 7 41 64 83 89 84 75 63
58 62 91 89 106 115 113 115 113 117 116 116 116 116 113 109
108 105 100 99 92 89 88 87 95 103 106 105 106 106 107 96
73 29 11 1 2 2 7 20 30 29 29 29 29 29 29 30
25 9 4 5 5 5 3 1 1 0 2 19 29 29 29 23
6 3 4 4 3 4 16 28 28 27 27 25 25 24 22 21
20 20 19 18 17 18 17 16 17 16 16 16 16 15 15 15
19 18 27 32 32 32 31 31 33 34 32 8 0 0 0 0
3 2 23 29 4 0 0 0 16 62 80 100 108 111 108 107
106 88 70 86 104 113 115 115 116 116 117 116 115 113 112 110
108 105 101 98 92 88 83 80 89 100 106 110 112 109 103 94
75 39 3 0 0 1 10 27 29 29 28 28 29 29 29 29
24 6 1 4 5 5 2 0 1 0 0 16 28 28 29 22
5 4 4 3 2 3 14 27 27 27 26 25 24 23 22 21
20 19 19 18 17 17 15 15 15 15 15 15 14 14 15 15
25 25 27 29 29 29 23 12 17 28 35 11 0 0 0 0
4 0 20 29 3 0 0 0 27 56 71 98 112 117 118 118
117 107 80 85 105 108 110 111 114 114 115 114 116 112 112 109
107 106 103 98 90 85 74 75 86 98 107 113 114 109 102 92
76 51 9 1 1 1 18 28 29 29 28 29 29 29 29 28
24 6 0 3 5 5 3 0 0 0 1 15 28 28 28 22
5 3 3 3 3 2 11 27 28 27 25 25 23 22 21 19
18 18 18 17 16 16 16 15 15 15 15 15 15 14 14 14
25 26 26 26 27 27 17 0 1 18 37 20 3 0 0 0
3 0 17 28 1 0 0 0 17 44 52 75 101 108 116 117
117 109 94 88 99 107 108 109 113 115 113 111 111 111 111 110
108 105 103 97 90 81 69 72 90 101 107 114 115 109 101 91
77 60 26 2 0 7 27 27 29 28 28 28 28 29 29 29
25 7 1 3 6 6 3 0 1 0 1 16 28 28 28 24
7 4 5 5 5 5 9 24 25 25 24 24 23 22 21 20
18 18 18 18 17 16 16 15 15 14 14 14 14 14 14 13
23 25 26 26 26 26 19 0 0 15 37 17 1 0 0 0
2 1 17 27 1 0 0 0 2 37 42 66 84 103 111 114
114 106 93 87 100 106 110 111 111 113 111 108 111 109 112 109
107 103 100 93 87 75 64 78 96 103 110 115 114 108 99 90
73 59 24 5 4 17 28 28 29 28 28 29 29 29 29 28
24 7 0 3 5 5 3 0 1 0 1 15 28 27 28 25
12 10 9 8 8 8 13 21 22 23 25 24 23 22 21 20
18 18 17 16 16 15 15 14 14 14 14 14 14 13 14 13
15 17 18 19 23 25 20 0 0 11 34 10 0 0 0 0
0 0 16 28 2 0 0 0 0 20 60 88 89 92 101 110
106 101 94 90 97 103 107 111 109 111 111 108 110 109 109 107
103 101 96 90 83 66 62 86 97 105 113 115 114 108 98 87
73 62 35 14 6 17 27 27 29 28 28 28 29 28 29 28
24 8 1 2 3 3 1 1 1 1 0 13 27 28 29 25
10 5 6 4 0 0 1 2 2 4 23 24 23 22 21 19
18 17 17 16 16 15 16 14 14 14 14 14 14 13 13 13
0 0 0 10 23 25 21 1 0 9 31 8 0 0 0 0
0 0 14 31 3 0 0 0 0 9 68 96 102 96 94 99
100 98 94 92 93 96 101 108 105 107 107 108 105 106 102 99
99 95 92 86 75 58 72 94 104 109 111 113 112 105 98 87
73 63 46 26 17 19 27 26 28 28 28 28 28 28 28 28
25 9 1 1 1 0 0 0 0 0 0 12 27 28 29 25
8 4 3 1 0 0 2 16 8 0 22 24 22 21 20 19
18 17 17 16 16 15 14 14 14 14 14 14 13 13 13 13
0 0 0 10 26 25 22 3 0 6 29 11 1 1 1 2
11 7 17 34 15 9 8 11 10 19 67 92 101 102 93 89
94 95 95 97 97 94 100 103 104 103 103 104 104 103 96 95
95 89 85 74 61 67 88 99 106 107 112 113 114 107 97 87
74 65 53 38 33 45 48 29 28 28 27 28 28 29 29 28
25 10 1 1 0 0 1 1 1 1 0 12 27 28 28 25
10 3 4 2 0 0 0 4 1 0 20 23 23 21 20 19
18 18 17 17 15 15 16 15 15 15 14 14 14 14 13 13
0 0 0 8 26 25 23 4 0 2 28 29 27 22 22 27
34 32 32 34 37 37 35 35 37 39 61 84 92 93 93 89
93 94 97 97 97 98 98 94 99 99 97 100 94 92 90 89
83 79 69 59 63 82 92 103 107 109 114 115 113 106 98 84
72 66 58 50 51 26 44 81 48 27 28 28 28 29 30 28
24 9 1 1 0 1 4 1 1 1 0 11 27 28 29 26
10 3 3 1 0 0 0 0 0 0 18 23 21 19 20 19
18 17 17 16 16 15 14 15 15 14 13 13 13 13 13 12
0 0 0 6 26 24 23 5 0 1 26 34 34 29 32 38
41 37 33 30 39 43 40 40 40 42 59 75 86 88 88 91
95 95 90 86 87 94 93 96 92 93 93 93 91 88 87 79
71 65 60 65 77 89 96 101 110 112 114 116 113 107 99 83
74 68 63 60 61 45 26 74 100 55 26 28 29 30 30 29
24 10 1 1 0 0 1 1 2 1 0 11 26 29 29 26
10 3 3 0 0 0 0 0 0 0 16 11 4 3 14 19
17 17 16 16 17 15 15 15 15 14 14 13 13 13 12 13
0 0 0 4 26 24 23 6 0 0 25 34 30 27 31 37
42 38 32 28 30 33 33 33 32 35 49 69 80 89 91 94
93 90 86 83 88 85 86 91 87 90 85 84 81 75 70 65
63 64 64 77 86 92 97 103 108 111 114 116 115 107 95 84
74 70 65 65 58 64 43 60 82 100 33 28 29 30 30 27
24 10 2 1 0 0 1 1 1 1 0 11 27 28 29 26
11 3 3 0 11 16 0 0 0 0 5 12 17 10 3 18
18 16 17 17 16 15 15 14 14 14 14 13 13 13 13 12
0 0 0 3 25 24 22 8 0 0 23 30 23 24 25 29
39 38 34 29 23 21 21 22 22 24 40 59 71 82 89 92
83 83 88 82 85 84 84 82 82 84 78 74 67 58 56 59
63 72 81 86 89 93 99 108 113 115 113 116 115 104 95 87
75 71 66 66 58 82 63 74 87 102 65 27 29 30 30 27
24 12 2 2 1 0 1 1 2 2 0 10 27 28 29 25
10 3 2 2 23 37 9 0 0 4 20 22 21 19 3 16
18 17 17 17 16 15 15 14 14 13 13 14 13 12 13 12
0 0 0 2 23 24 22 10 0 5 25 27 11 12 14 18
25 27 26 30 25 23 24 24 28 30 38 47 57 70 80 80
74 75 79 79 80 82 81 80 79 73 64 56 51 53 58 68
76 80 84 87 93 95 102 107 111 113 115 116 114 107 100 85
74 71 68 69 65 79 74 80 97 99 97 30 30 30 31 27
25 13 3 2 2 2 2 1 2 3 0 9 27 28 30 27
12 2 2 1 7 14 8 0 0 9 24 22 22 20 6 13
18 18 17 17 16 15 15 14 14 14 14 14 13 13 13 13
0 0 0 1 22 24 21 18 17 23 32 24 1 0 0 0
3 7 11 28 28 31 34 31 39 42 35 40 46 53 64 71
67 70 71 71 78 76 73 73 70 63 58 57 62 69 76 81
83 86 86 90 96 104 107 109 112 116 114 115 116 109 100 84
75 74 69 70 70 65 78 91 95 99 111 44 29 30 30 27
26 13 3 2 2 2 2 2 2 3 1 9 26 28 30 27
13 4 5 0 0 0 0 0 0 9 24 23 21 20 7 12
17 17 16 16 16 16 15 15 14 14 14 14 14 14 13 12
0 0 0 0 20 23 21 24 34 36 39 27 1 0 0 0
0 0 8 31 28 32 36 30 39 42 23 28 42 45 51 59
60 64 70 72 71 72 72 66 64 63 65 69 76 83 87 88
94 97 95 96 102 106 110 114 114 115 116 117 116 108 99 85
76 74 72 73 74 75 61 93 94 100 116 81 45 34 32 29
26 15 3 1 2 2 2 2 2 3 1 8 27 28 29 27
22 15 8 2 0 0 0 0 0 5 22 22 21 20 7 14
17 16 16 15 16 15 14 14 14 13 14 14 14 13 13 13
0 0 0 0 18 23 20 24 36 38 40 31 1 0 0 0
0 0 4 32 27 31 33 12 12 24 16 2 29 47 48 51
55 59 60 63 65 64 64 63 61 64 71 75 81 92 95 100
103 105 106 108 111 109 108 112 114 117 118 117 116 111 100 83
77 75 74 76 78 86 60 59 98 101 117 102 93 87 85 83
66 32 8 3 3 3 3 2 2 3 2 8 26 27 28 28
27 10 10 17 2 0 0 0 0 5 23 23 21 18 5 16
17 17 17 16 16 15 15 14 14 14 14 13 13 13 13 13
0 0 0 0 16 22 20 22 29 29 30 23 1 0 0 0
0 0 4 32 26 31 31 4 0 15 16 0 0 11 27 35
42 46 49 49 49 47 49 51 52 55 62 70 82 90 98 105
106 110 110 112 111 110 111 113 116 117 117 117 116 112 99 83
77 78 75 77 81 90 64 41 94 105 116 104 98 98 98 105
113 104 87 65 45 39 29 13 4 3 2 7 26 27 29 29
28 13 17 32 8 0 0 0 0 3 20 19 17 8 7 15
9 9 14 15 15 14 13 13 14 13 13 12 12 12 12 12
0 0 0 0 14 22 19 18 13 12 14 6 0 0 0 0
0 0 5 32 26 31 32 5 0 13 18 0 0 0 0 0
6 32 35 31 30 31 32 32 28 23 40 57 74 87 96 103
109 112 115 113 109 109 113 115 118 117 118 117 117 112 99 83
81 79 74 78 83 88 62 52 92 107 117 106 102 101 100 105
114 114 111 111 113 114 112 103 80 50 27 20 26 22 20 18
14 5 2 6 1 0 0 0 0 0 2 2 1 0 4 8
7 20 11 15 15 14 14 14 14 14 13 13 13 13 13 13
0 0 0 0 12 22 18 17 11 11 13 5 0 0 0 0
0 0 5 32 26 31 31 5 0 12 19 0 0 0 0 0
4 30 34 30 32 34 31 26 18 3 2 41 59 79 96 107
111 116 116 113 111 112 115 117 117 117 117 118 117 111 96 84
86 83 76 80 86 81 56 63 97 110 116 110 107 106 105 106
115 116 116 115 115 115 114 111 108 106 104 101 91 67 39 13
0 0 0 0 0 0 0 0 0 0 0 0 0 0 2 7
61 84 32 14 14 14 14 14 14 13 13 12 12 13 12 13
0 0 0 0 11 22 18 17 13 12 14 5 0 0 0 0
0 0 4 31 26 32 31 4 0 10 19 1 0 0 0 1
16 50 68 75 73 61 40 30 49 20 4 35 57 75 93 105
112 114 114 114 113 116 116 117 117 117 118 117 115 107 96 86
88 85 77 83 88 72 51 66 94 114 116 110 108 109 108 109
115 115 116 115 115 113 112 111 112 114 112 110 108 107 104 96
72 32 6 5 5 6 7 8 9 9 7 2 0 0 7 11
58 59 34 3 3 6 14 14 14 14 13 13 13 12 13 13
0 0 0 0 9 22 18 18 15 14 16 5 0 0 0 0
1 0 1 30 27 32 32 9 1 10 19 4 1 7 32 62
81 85 85 86 82 75 64 58 87 49 8 47 51 70 92 104
111 113 110 113 116 117 117 117 117 117 117 117 116 110 98 89
92 87 79 83 87 62 50 67 106 115 115 111 110 110 113 114
116 116 116 116 116 115 116 115 115 114 114 113 115 114 114 112
108 100 75 28 11 12 12 12 12 11 9 2 0 0 0 0
0 0 0 1 0 5 17 17 17 17 16 15 15 15 15 15
0 0 0 0 9 22 18 17 16 16 17 6 0 1 0 0
5 6 1 29 29 33 33 18 8 9 21 19 48 68 76 79
85 86 87 87 85 82 83 78 102 90 8 48 54 56 83 100
109 112 114 115 116 117 118 118 118 117 117 117 117 110 97 90
96 89 82 84 82 52 50 76 113 116 115 112 109 111 114 115
115 115 116 115 115 116 115 115 115 115 115 115 115 115 115 115
115 113 110 94 45 14 14 13 13 12 10 3 0 0 0 0
0 0 0 1 0 5 13 12 11 9 9 7 7 5 5 4
0 0 0 0 7 21 18 17 17 17 18 8 0 2 0 0
8 15 7 28 31 34 32 18 19 31 62 77 77 78 78 84
90 88 87 89 88 85 83 81 105 110 26 38 63 57 62 88
105 113 113 114 116 116 116 117 117 117 117 117 116 109 96 92
99 94 85 83 73 45 50 90 114 116 115 112 111 112 113 115
116 116 116 115 116 115 115 115 115 115 115 115 115 115 115 115
115 115 115 113 103 56 18 15 14 12 10 4 0 0 0 0
0 0 0 0 14 18 17 18 18 19 20 21 22 23 23 23
0 0 0 0 7 22 19 18 18 18 18 19 15 18 18 19
25 30 28 37 34 34 36 44 80 98 102 103 101 100 99 97
104 103 103 97 91 89 82 74 108 118 79 24 68 68 59 67
94 106 112 113 115 117 117 118 118 117 117 116 116 107 92 95
102 96 86 83 61 43 65 105 115 117 115 112 112 114 112 114
116 116 115 115 116 115 115 115 115 115 115 115 115 115 115 115
115 114 115 115 114 103 66 20 15 13 12 5 0 0 0 0
0 0 0 3 30 31 30 31 30 30 30 30 30 30 30 30
0 0 0 0 6 21 18 17 18 18 18 27 34 35 37 38
41 44 45 47 44 60 92 108 111 113 114 118 118 117 117 116
116 117 117 103 92 91 84 70 105 119 109 41 56 77 73 63
68 88 102 110 115 116 117 117 117 117 117 116 116 105 92 100
105 98 88 79 49 43 84 112 115 115 114 109 112 111 109 114
116 116 116 116 115 115 115 115 115 115 115 115 115 115 114 114
115 114 115 114 114 114 99 64 18 14 13 5 0 0 0 0
0 0 0 5 31 31 31 30 30 30 30 29 29 30 29 30
0 0 0 0 5 20 18 16 17 18 17 27 37 38 38 39
42 44 50 74 101 111 116 117 119 119 119 119 119 118 117 118
118 118 115 101 97 93 86 71 100 118 114 78 38 80 83 74
68 71 91 107 114 114 116 116 116 116 116 117 116 105 93 104
106 102 88 68 43 52 105 113 116 115 113 109 105 107 110 115
115 115 115 115 115 115 115 115 115 115 115 115 115 115 115 115
114 114 114 114 114 114 112 102 55 15 14 5 0 0 0 0
0 0 0 6 31 30 30 30 29 29 29 30 30 30 30 30
0 0 0 0 5 19 17 16 17 18 18 18 26 25 26 26
29 58 98 114 117 118 119 119 118 119 119 119 118 118 118 118
119 118 116 103 98 94 89 77 94 118 116 104 37 74 94 91
79 72 82 96 104 109 111 115 116 116 116 117 115 103 94 103
109 104 90 56 45 72 107 113 92 115 112 110 108 113 112 115
116 115 115 115 115 115 115 115 115 114 115 114 115 114 115 114
114 114 114 115 114 114 113 113 95 50 15 5 0 0 2 3
0 0 0 8 31 31 30 30 30 29 30 29 30 29 29 29
0 0 0 0 4 19 17 16 17 18 18 14 12 12 13 18
63 113 118 118 119 119 119 118 119 120 119 118 118 118 118 118
118 119 115 104 98 95 92 83 93 119 117 115 65 55 97 103
95 83 82 89 99 104 106 110 116 116 117 117 114 102 94 107
107 108 86 44 52 96 110 105 31 107 114 113 115 113 114 116
116 116 115 116 115 115 115 115 115 114 115 114 115 115 114 114
114 114 114 114 115 114 114 115 111 99 58 7 0 0 21 29
3 0 0 10 30 30 30 30 30 30 29 29 29 29 30 30
0 0 0 0 4 19 16 15 17 18 18 15 14 13 23 77
114 116 116 118 119 118 119 119 119 119 118 118 118 119 118 119
118 118 116 106 100 95 93 89 90 118 117 114 99 48 82 105
105 94 88 92 99 102 105 107 111 114 116 117 114 101 100 105
108 111 74 46 70 110 113 109 34 103 113 112 113 113 115 116
116 116 116 116 116 115 116 116 115 115 115 114 115 114 114 114
115 114 115 114 115 115 114 114 114 112 101 52 0 0 9 10
0 0 0 12 31 30 30 31 30 30 30 29 29 29 29 29
0 0 0 0 4 19 17 15 16 18 19 18 18 29 90 117
110 114 118 119 119 119 119 118 119 118 119 119 119 119 118 119
118 118 117 107 101 99 96 94 91 115 118 116 110 70 64 99
107 104 94 91 93 96 102 105 107 109 115 117 115 104 103 104
113 106 66 57 105 115 115 110 42 111 112 112 113 115 115 116
116 115 116 115 116 115 115 115 115 115 115 115 115 115 115 115
115 115 115 115 115 114 114 114 114 113 110 87 19 0 0 0
0 0 0 14 31 30 30 30 29 29 29 29 29 30 29 28
0 0 0 0 6 21 17 15 17 18 19 20 41 94 118 115
107 115 119 119 119 118 119 119 119 118 118 119 118 118 117 117
119 119 117 109 104 100 96 95 93 108 81 108 114 89 62 90
107 107 102 97 96 98 101 104 106 106 110 117 115 108 103 107
115 94 66 92 114 116 116 97 74 111 109 111 114 115 115 115
116 115 116 115 115 115 115 115 115 115 115 115 115 114 115 114
115 114 115 115 115 114 114 114 114 114 109 103 50 0 0 0
0 0 0 16 30 30 30 29 29 29 29 29 29 28 28 29
4 5 6 8 12 16 16 16 17 19 20 44 103 119 116 116
108 116 119 119 118 118 118 118 118 119 118 118 118 118 118 116
119 118 117 107 103 102 98 96 98 111 56 88 118 108 72 74
106 114 111 107 101 103 104 104 103 102 110 117 116 109 103 110
109 77 93 112 114 116 116 84 101 108 112 114 115 115 115 116
115 116 116 115 115 115 115 115 115 115 114 114 115 115 115 115
115 115 114 114 115 114 113 114 114 114 113 109 92 10 0 0
0 0 0 18 30 30 30 29 29 29 29 28 29 28 28 28
8 10 10 11 13 13 15 16 16 18 25 91 118 117 114 117
110 117 119 119 119 118 118 118 118 118 118 118 118 119 118 116
118 118 116 106 102 103 99 97 97 113 87 93 118 116 95 61
86 115 115 114 110 107 109 108 102 96 107 116 116 109 102 105
85 94 115 114 115 115 112 98 110 112 113 114 115 116 115 115
115 115 115 115 115 115 115 115 115 114 115 115 114 115 114 114
114 114 114 114 113 113 113 114 114 113 114 110 107 51 0 0
0 0 0 14 30 29 29 28 29 28 29 28 28 28 28 28
9 9 11 11 12 13 15 16 16 18 47 106 111 112 118 118
112 118 119 118 119 119 118 118 118 118 118 119 118 119 118 117
118 118 117 107 102 104 103 100 99 103 106 85 119 117 114 87
69 107 117 117 115 112 111 107 102 93 104 116 116 109 102 85
87 115 116 114 115 114 95 111 113 114 115 115 115 115 115 115
115 115 115 114 114 115 115 115 115 114 115 115 115 115 114 114
114 114 114 114 114 114 113 113 114 113 113 111 109 91 12 0
0 0 0 7 27 29 29 28 28 28 28 27 27 28 28 28
9 9 10 11 12 13 13 15 17 22 83 111 108 116 118 118
115 117 118 118 119 119 118 118 118 118 118 118 118 118 118 117
117 118 118 112 99 103 105 102 100 98 91 85 117 117 117 111
82 87 116 117 116 115 114 113 108 95 101 115 116 107 84 73
111 115 116 116 105 86 104 113 115 115 114 115 115 115 115 115
115 114 115 115 115 114 114 114 115 114 114 114 114 114 114 114
114 114 113 114 113 113 113 113 113 114 114 113 110 104 55 0
0 0 0 12 16 29 28 28 28 28 27 27 27 27 27 27
2 1 1 3 6 9 10 11 17 49 98 102 112 118 118 118
118 117 118 117 118 118 118 117 118 118 117 118 117 118 118 118
117 117 117 117 105 100 104 105 101 98 97 70 102 118 117 116
108 82 105 117 116 116 116 115 113 97 98 115 115 98 65 105
110 91 80 98 45 76 114 114 114 114 114 114 115 115 115 115
115 115 114 115 114 114 114 114 114 114 113 114 114 114 114 114
113 114 114 113 113 113 113 113 113 114 114 113 110 111 89 18
0 0 0 23 12 23 28 27 27 28 27 26 27 27 27 27
0 0 0 0 4 10 12 12 20 89 95 100 116 117 118 118
118 118 118 118 119 119 118 118 118 118 118 118 118 117 118 117
116 116 117 117 116 109 105 106 103 101 100 90 79 109 117 116
116 108 98 115 117 117 116 116 115 103 95 114 113 79 88 89
70 71 98 94 52 110 115 115 116 115 116 115 115 115 115 114
114 114 115 114 114 114 114 113 114 114 114 115 114 114 114 114
114 114 113 113 113 113 113 113 113 114 114 114 111 112 98 60
0 0 1 25 21 13 27 27 27 28 27 27 27 27 27 27
0 0 0 0 3 8 12 13 37 109 92 106 117 118 118 118
118 118 118 118 117 118 118 118 118 118 118 118 118 118 118 118
117 116 117 117 117 117 111 105 105 104 101 99 86 94 111 115
88 74 105 107 115 116 116 116 116 110 95 112 113 113 114 111
112 114 115 107 93 115 114 115 115 115 115 114 114 114 114 115
115 115 115 115 114 114 113 113 114 114 114 114 114 114 114 114
114 114 114 112 113 114 114 113 114 113 114 113 111 112 106 87
22 0 2 27 27 13 20 27 27 27 27 26 27 27 26 26
0 0 0 2 4 8 13 15 62 108 92 111 118 115 117 118
118 118 119 118 116 118 119 118 118 117 118 118 118 118 118 118
117 117 116 117 117 118 117 109 106 105 103 103 98 91 98 97
45 69 100 111 113 116 116 117 117 116 116 116 116 114 115 115
116 116 116 115 111 115 115 115 115 115 116 115 116 114 114 115
114 115 115 115 114 114 114 114 114 113 114 114 114 115 114 114
115 114 114 111 114 114 114 114 114 114 114 114 113 111 112 94
61 0 3 27 27 18 5 14 27 27 28 27 27 27 27 27
2 3 2 3 6 10 14 21 88 106 95 116 116 117 119 119
119 119 119 119 117 118 119 118 118 118 118 118 118 119 119 119
118 118 117 117 118 118 118 116 110 107 107 107 108 100 99 109
71 79 95 110 117 117 117 117 118 117 117 117 116 116 116 116
116 116 116 116 111 116 115 116 116 115 116 116 115 115 115 116
115 115 115 115 115 115 114 114 114 114 115 115 115 115 115 115
115 115 110 109 115 114 114 114 114 114 114 114 113 111 113 102
84 19 3 21 18 2 4 2 26 27 27 27 27 27 27 26
7 7 6 6 10 12 15 42 104 103 98 115 118 119 119 119
119 119 119 119 116 119 120 119 118 119 119 118 118 118 118 118
119 118 118 116 117 117 118 118 118 115 113 116 118 116 106 107
103 83 87 96 116 118 118 118 118 117 117 117 116 116 117 117
117 116 116 116 114 116 116 116 116 116 116 116 116 116 116 116
115 116 117 116 116 115 115 115 115 115 115 116 116 115 116 115
115 115 94 111 115 115 114 115 114 115 115 115 115 112 114 110
89 54 0 4 10 15 24 2 25 28 28 28 28 27 27 27
8 8 9 9 9 10 16 69 108 101 100 116 121 120 120 120
119 120 119 119 118 118 119 119 119 119 119 119 119 119 120 119
120 119 120 119 117 118 119 119 118 118 119 118 118 119 116 111
113 99 99 83 102 117 118 119 118 118 117 117 117 117 117 117
117 117 117 117 115 116 117 116 116 117 117 117 116 116 116 116
116 116 117 116 117 116 116 115 115 115 115 116 116 116 115 116
116 114 78 115 116 115 115 115 114 115 115 115 115 112 115 114
97 81 12 1 3 10 18 1 20 27 28 27 27 26 27 27
1 1 2 3 4 6 35 83 110 98 99 118 120 119 119 119
120 120 118 119 118 118 119 120 119 119 119 118 119 119 119 118
119 118 119 118 118 118 118 119 118 118 118 118 118 118 118 115
113 110 114 102 83 97 116 118 118 117 117 117 117 117 117 117
117 117 117 117 116 117 117 117 117 116 117 117 117 116 115 116
115 115 116 116 116 115 116 116 116 116 115 116 116 116 116 116
116 112 83 116 115 115 115 115 114 115 115 115 114 111 114 115
104 88 41 0 0 0 0 0 4 19 27 27 27 27 27 26
