P2
128 120
131
27 27 27 27 26 26 26 25 25 24 24 23 23 23 22 22
21 21 20 20 20 20 19 19 18 18 18 18 18 17 16 15
15 15 14 13 14 14 13 12 12 11 10 8 8 7 7 10
11 12 13 9 6 13 17 15 14 13 12 11 11 9 7 5
4 4 3 6 9 8 8 6 8 10 11 11 12 12 13 13
13 13 14 14 14 15 15 16 16 17 18 17 18 18 18 19
18 19 19 19 20 21 21 22 22 22 23 23 24 24 24 25
25 25 25 26 25 25 25 26 26 26 26 26 26 27 26 27
28 28 27 26 26 27 26 25 25 24 24 23 23 23 22 22
22 21 21 21 19 19 20 19 18 18 18 17 18 17 16 16
16 15 15 14 15 14 13 13 12 11 11 9 9 8 9 12
13 15 15 11 5 12 17 15 14 12 12 11 11 10 9 6
7 6 4 6 9 9 7 9 10 11 12 12 13 13 13 14
14 15 15 15 15 16 17 16 17 17 18 18 18 18 18 18
19 21 22 21 21 22 22 23 23 23 23 24 24 24 24 25
25 26 26 26 25 25 25 25 26 25 26 26 26 26 26 26
28 27 27 27 27 26 26 26 25 25 24 24 24 23 23 22
22 21 20 21 20 20 19 19 19 18 18 17 18 17 17 16
16 15 14 15 15 14 13 13 13 12 11 11 10 9 10 13
15 16 16 10 4 12 18 16 15 13 13 12 12 11 9 8
10 7 4 5 9 9 8 10 12 12 13 13 14 14 15 14
15 15 15 16 16 16 17 17 18 18 18 18 18 19 20 20
20 21 22 21 22 22 22 23 24 23 24 24 24 25 26 25
26 25 26 26 25 25 25 25 25 26 26 26 27 27 27 27
28 28 27 27 27 26 26 26 25 24 24 24 24 23 23 22
22 22 22 21 21 20 20 19 18 19 18 18 18 17 17 17
16 17 15 15 15 14 14 14 14 13 12 11 11 10 11 15
16 17 18 12 6 12 19 17 16 14 14 12 12 12 10 10
11 10 7 5 11 8 10 11 13 13 13 14 15 16 15 16
16 16 17 17 18 18 17 18 19 19 19 19 20 20 21 21
21 22 23 22 23 23 24 24 24 24 24 24 24 25 25 25
25 26 25 26 26 26 27 27 27 27 27 26 27 26 26 26
27 27 27 27 26 26 26 25 25 25 25 24 24 23 23 23
22 22 21 21 20 20 20 20 20 19 19 19 18 17 17 17
16 16 15 15 15 14 15 15 14 14 13 13 12 11 12 15
16 17 17 12 6 11 19 16 16 16 15 14 14 13 10 11
12 10 7 4 11 9 11 12 13 14 15 15 16 16 17 16
17 17 17 17 17 18 18 19 19 19 20 21 20 21 21 21
22 22 23 22 23 23 23 24 24 24 24 24 25 25 25 25
26 25 25 27 25 26 26 26 26 27 26 26 26 26 28 28
28 28 28 27 27 26 25 26 25 25 24 24 23 23 23 22
23 22 22 22 21 21 20 20 19 19 19 18 18 18 17 17
17 17 16 16 16 16 15 15 15 14 14 13 13 13 14 17
18 18 18 13 6 10 19 18 16 16 15 15 14 13 11 12
12 12 10 6 11 10 13 14 15 15 16 16 16 17 17 17
17 17 18 19 19 19 19 19 20 20 20 21 20 21 21 21
22 22 24 24 24 24 24 24 25 24 25 25 25 25 25 26
25 26 26 27 26 27 26 26 25 26 26 27 28 27 27 27
28 28 27 27 27 27 26 26 26 25 25 24 24 24 23 23
23 22 22 22 21 21 20 20 20 20 19 19 19 18 18 18
17 17 17 17 16 16 16 15 15 15 15 13 14 15 16 18
18 19 19 13 7 10 20 18 16 17 16 16 15 14 13 13
13 12 11 7 11 11 13 15 15 16 17 17 17 17 18 17
18 19 19 19 19 20 20 20 20 20 21 21 21 22 22 22
23 22 24 24 23 23 25 25 25 24 25 25 25 26 26 26
27 26 26 25 25 26 26 26 27 27 27 26 27 27 27 27
28 27 27 27 27 27 26 25 25 25 24 24 24 24 24 24
23 23 24 22 22 22 21 20 20 20 19 19 19 18 18 18
18 18 17 17 17 16 16 16 16 15 15 14 15 15 15 19
19 19 20 14 10 10 20 19 17 17 17 16 16 15 15 14
13 13 12 7 13 12 15 16 17 16 16 17 17 18 18 19
19 19 20 19 20 20 20 21 21 21 21 22 21 21 22 22
24 24 25 24 24 24 25 25 25 25 24 25 26 25 25 25
25 26 26 26 27 27 27 27 27 27 27 27 28 27 27 27
27 28 28 27 26 26 26 26 26 26 25 25 25 24 24 23
23 23 23 22 21 21 21 20 20 20 20 20 19 18 19 19
18 18 18 17 17 16 17 16 15 15 15 15 15 16 17 19
19 20 19 15 11 10 20 19 18 18 17 17 16 16 16 14
13 13 13 9 13 12 15 16 17 17 18 18 18 19 19 19
19 20 21 20 20 21 21 21 21 21 22 21 23 22 23 24
24 24 25 24 24 25 24 25 25 25 24 23 25 25 25 26
27 27 27 26 27 27 28 26 26 27 27 27 27 27 27 28
29 28 28 27 27 27 26 26 26 26 26 25 24 25 24 24
24 23 23 22 22 22 21 21 21 21 20 19 20 19 19 19
19 18 18 18 18 17 17 17 17 16 15 15 16 16 17 20
20 20 20 16 12 10 20 20 18 17 18 17 17 16 16 15
14 14 14 12 15 15 17 18 18 18 19 19 20 19 20 19
20 20 21 20 21 21 21 22 22 22 22 22 22 23 23 23
24 24 25 25 25 25 25 24 24 25 26 26 26 26 26 26
27 27 27 27 27 27 28 28 27 28 27 27 28 27 27 27
28 28 27 27 27 26 27 26 26 26 26 26 25 25 25 24
24 23 23 23 22 22 21 21 21 20 20 20 20 20 19 19
19 18 18 18 18 17 17 17 16 16 16 16 17 17 18 21
21 21 21 16 12 10 19 20 17 17 18 18 17 16 17 15
15 15 14 12 15 15 18 18 19 19 19 19 19 20 21 21
20 21 21 21 21 22 21 21 22 22 23 23 23 23 24 24
24 24 25 24 24 23 24 25 26 26 26 27 26 26 27 27
27 27 27 27 27 27 28 27 27 27 27 27 27 28 28 27
28 28 28 27 27 27 26 26 26 26 26 26 25 25 25 24
24 24 23 24 23 22 22 21 22 21 21 21 20 19 20 19
19 19 18 18 19 18 18 17 17 17 16 17 16 17 18 21
21 23 22 17 13 7 16 20 19 18 18 17 17 17 18 16
16 16 15 13 16 16 19 19 19 19 19 20 20 20 20 20
21 21 21 22 21 22 22 23 23 23 23 24 24 24 24 23
22 22 23 24 24 26 26 26 26 27 27 28 26 26 27 27
27 27 27 27 28 27 27 27 28 27 28 27 27 27 28 28
28 28 28 27 27 27 26 26 26 25 26 25 25 24 25 24
24 23 23 23 22 22 22 22 22 22 21 22 21 20 20 19
20 19 19 18 18 18 17 17 17 16 16 17 17 18 19 21
23 22 22 17 11 4 15 21 20 19 19 18 18 18 19 17
17 17 16 13 18 17 19 20 19 19 20 20 20 21 21 21
21 21 21 21 22 22 23 22 23 23 23 23 23 22 23 24
24 25 25 25 25 26 26 25 26 26 27 28 27 27 27 27
27 27 27 27 26 27 28 27 27 27 27 27 27 28 27 28
28 28 28 28 27 27 26 26 27 26 25 25 25 25 24 24
24 24 24 23 23 22 22 22 21 21 21 21 21 20 20 19
20 19 19 19 19 18 18 18 17 17 17 17 18 18 18 22
22 22 22 17 13 11 17 22 20 20 20 19 19 19 18 17
17 17 17 14 18 17 20 20 20 20 21 21 20 20 21 21
21 22 23 22 22 22 23 23 23 23 23 23 23 24 24 24
24 25 25 25 25 26 26 26 26 26 27 28 27 27 28 27
27 27 27 27 27 28 27 27 27 27 28 28 27 28 27 27
28 28 28 27 27 27 27 26 26 26 25 25 25 25 25 25
24 24 24 23 23 23 22 22 22 21 22 22 21 21 21 19
20 19 19 19 19 19 18 18 18 18 17 18 18 19 19 23
24 23 23 18 13 14 16 23 21 20 20 20 19 19 19 18
18 18 18 14 18 18 21 21 21 21 21 21 21 21 22 22
23 22 23 23 23 23 22 23 23 23 24 25 24 24 25 25
25 26 26 26 26 27 27 27 27 27 27 29 27 27 28 27
27 28 27 27 28 28 27 28 27 28 28 28 28 28 28 29
28 28 28 27 27 27 27 26 26 26 26 26 25 25 25 25
25 25 25 24 23 23 23 23 22 22 22 21 22 21 20 20
20 19 19 19 19 19 19 18 18 18 18 18 18 19 20 22
23 23 22 18 14 16 16 23 22 21 21 20 20 20 20 18
18 18 18 15 19 18 21 20 21 21 21 21 22 22 22 22
22 22 22 22 23 23 24 25 24 24 25 25 25 25 25 25
25 25 26 26 26 26 27 27 28 27 27 28 27 27 28 27
27 28 27 27 27 27 28 28 28 28 29 28 29 27 28 28
28 28 28 27 27 27 26 26 27 26 26 26 25 26 25 25
25 24 25 24 24 24 23 23 23 22 22 22 22 21 21 21
21 20 20 20 19 19 19 19 19 18 18 19 19 19 20 23
24 24 24 19 15 17 15 23 22 22 21 21 20 20 21 19
19 19 19 16 20 19 21 21 22 21 21 21 22 22 22 22
22 22 23 24 23 24 24 25 24 25 25 25 25 25 25 26
26 27 26 26 27 27 27 27 27 27 27 28 28 27 28 27
27 27 28 28 28 28 28 28 28 28 28 27 28 27 28 28
28 27 28 28 27 27 27 27 26 26 26 26 26 26 26 25
25 25 24 24 24 24 23 23 23 22 22 22 22 22 21 21
20 20 20 20 20 20 20 19 19 18 19 19 19 19 20 23
24 23 24 19 15 18 15 22 23 22 22 22 21 20 21 20
19 19 19 16 20 19 21 21 22 22 22 22 22 22 22 23
23 23 24 24 23 23 24 24 24 25 25 25 25 25 26 26
26 26 26 26 27 27 27 27 27 28 28 29 28 27 27 27
28 28 28 28 28 28 28 28 27 28 28 28 28 28 27 27
28 28 28 27 27 27 27 27 27 26 27 26 26 26 26 25
25 26 25 24 24 24 24 23 22 22 22 22 22 21 21 21
21 21 21 21 20 19 20 20 19 19 19 19 19 20 20 24
25 25 24 19 15 19 16 22 22 22 22 22 21 21 21 20
20 20 19 17 20 19 21 21 22 22 22 24 23 23 24 23
24 23 24 24 24 24 25 24 25 25 26 25 26 26 26 26
27 27 27 27 27 27 27 27 28 27 28 28 28 27 27 28
28 28 28 28 27 27 28 28 28 28 28 27 28 28 28 28
28 27 27 27 27 27 27 27 27 26 26 26 26 26 26 25
25 25 25 24 25 24 24 24 23 23 23 22 22 21 22 22
21 21 20 20 20 20 20 19 19 19 19 19 19 20 21 25
25 25 25 20 15 20 16 23 23 23 22 22 21 21 22 20
20 20 19 16 19 17 22 22 23 23 23 24 23 23 24 23
24 24 24 24 24 24 25 25 25 25 26 26 26 26 26 26
27 26 26 27 27 27 27 27 27 28 28 28 28 28 27 27
28 28 28 29 28 27 28 28 28 28 27 28 27 27 28 28
28 27 27 27 27 26 27 26 26 26 27 26 26 26 26 25
25 25 25 25 25 24 24 24 23 23 23 23 23 22 23 22
22 21 21 21 20 20 20 19 19 19 19 20 19 20 21 25
26 25 26 21 16 21 18 22 23 23 23 22 22 21 23 21
21 20 20 17 21 21 23 23 22 23 23 24 23 23 23 24
24 24 25 24 25 25 25 25 25 26 26 26 26 26 27 27
27 26 27 28 27 28 28 28 27 27 26 26 26 27 27 28
28 28 29 28 30 27 28 28 28 28 28 27 28 28 28 28
28 28 27 27 27 27 27 27 27 27 27 27 26 26 25 26
25 25 25 24 25 24 24 24 24 23 23 23 23 23 23 22
22 22 21 21 21 20 21 20 20 20 20 20 20 20 22 25
26 26 25 21 16 22 19 22 24 24 23 22 22 22 23 22
20 21 20 18 21 21 23 24 24 24 24 25 24 24 24 24
25 24 25 24 25 25 25 26 26 26 26 27 27 27 27 28
27 27 28 27 28 27 27 27 27 27 28 29 28 28 29 29
28 28 28 28 29 27 27 28 27 28 28 28 27 28 28 29
28 28 27 28 27 27 27 27 27 26 26 26 26 26 26 26
26 26 25 25 25 24 24 24 23 24 23 23 23 23 23 23
22 22 22 21 21 21 21 21 20 20 20 20 21 22 22 26
26 26 26 22 17 22 20 21 23 23 23 23 22 21 22 22
21 21 20 18 22 21 23 24 24 24 24 24 24 24 25 24
25 24 25 25 26 26 26 26 26 26 27 27 27 26 27 27
27 27 27 28 28 28 28 29 29 28 28 28 28 28 28 28
29 28 29 29 29 29 28 28 28 28 28 28 27 28 28 28
28 28 27 28 27 27 28 27 27 27 27 27 27 26 26 26
25 26 25 25 25 24 25 24 24 24 24 24 23 23 23 23
22 22 21 21 22 21 21 21 20 20 20 21 21 22 22 25
27 26 26 22 17 22 21 21 24 24 24 24 23 22 23 22
22 21 21 19 21 21 24 24 24 24 24 25 25 25 25 25
24 25 25 25 26 26 26 26 27 27 27 27 27 27 26 27
28 27 28 28 28 28 28 29 29 29 29 29 29 29 29 28
28 28 29 29 29 28 28 28 28 28 28 28 28 28 28 28
28 28 28 28 28 28 27 27 27 27 27 27 27 27 26 26
26 26 26 26 25 26 25 25 25 24 24 24 24 23 23 23
24 23 22 22 22 22 21 21 21 21 21 21 21 22 23 26
27 27 27 23 17 22 23 20 25 24 24 24 24 23 22 23
22 22 22 19 22 22 24 25 25 25 24 25 25 25 25 25
25 26 26 27 27 27 27 27 27 27 27 27 27 28 27 28
28 28 29 29 30 29 30 29 30 29 29 29 29 29 29 28
28 28 29 29 30 28 28 28 29 29 29 28 29 28 29 29
29 28 28 28 28 28 28 27 28 27 27 27 27 27 27 26
26 26 26 25 25 26 26 26 26 25 25 24 25 23 23 23
23 23 22 22 22 22 22 22 22 21 22 22 23 22 24 27
28 27 27 23 18 22 24 19 25 25 25 24 24 24 22 23
23 22 22 20 22 21 24 25 25 25 25 25 26 26 26 26
26 26 27 27 27 27 27 26 27 27 27 28 28 28 28 28
28 29 29 30 29 30 30 30 30 30 29 30 30 29 29 29
29 29 29 28 29 29 28 28 29 29 29 29 29 28 29 29
29 29 28 28 28 28 28 27 28 27 28 27 27 27 27 27
27 26 27 26 26 26 25 25 25 24 24 24 24 24 24 24
24 24 23 23 24 23 23 22 22 22 22 22 22 23 23 26
27 26 26 24 24 23 22 23 23 23 23 25 24 24 22 23
23 23 23 20 22 22 25 26 25 25 26 27 26 26 26 26
27 27 26 27 27 27 28 27 28 28 27 28 27 28 28 29
28 29 30 31 30 29 30 30 30 30 30 30 30 29 29 29
29 29 29 28 29 30 29 29 29 29 29 29 28 28 28 28
28 28 28 28 28 28 28 28 28 27 27 27 27 28 28 27
27 27 27 27 26 26 26 26 26 25 26 25 25 24 25 24
24 23 24 23 23 22 22 23 23 22 22 23 23 23 24 26
23 22 18 14 11 13 15 16 17 13 10 11 20 24 24 24
23 23 23 20 22 22 25 26 26 26 26 27 26 27 27 26
26 26 27 27 27 27 28 28 28 28 28 29 28 29 29 29
30 29 30 30 30 29 30 29 30 29 30 30 29 30 30 30
30 29 29 29 30 30 29 29 30 30 29 29 29 29 28 28
29 29 29 29 28 29 28 28 28 28 28 28 28 28 28 27
28 27 27 27 27 26 27 26 26 26 25 26 25 25 25 25
25 24 25 24 24 24 23 24 23 22 22 22 23 23 21 14
16 16 20 23 23 23 13 5 1 0 0 0 4 19 23 24
23 23 24 22 23 24 26 27 26 26 26 26 26 26 27 27
27 28 27 29 28 28 28 28 28 28 28 29 29 30 30 30
30 31 30 31 30 30 31 30 31 31 30 30 30 30 30 29
30 29 30 30 31 31 30 30 30 29 28 28 29 29 29 28
29 28 29 28 28 28 28 28 28 29 28 28 28 28 28 28
28 27 27 27 27 26 27 26 27 26 26 26 25 25 26 25
25 25 24 24 24 23 23 23 23 23 23 23 23 20 11 16
14 21 20 19 19 17 21 21 15 7 1 0 0 11 21 24
24 24 24 22 23 23 25 26 26 26 26 26 27 28 28 27
27 28 28 29 28 28 28 29 28 28 29 30 29 30 30 30
31 31 30 31 31 30 30 30 30 30 30 30 30 30 30 30
30 30 31 31 30 29 27 28 28 28 28 28 30 29 30 29
29 29 28 29 28 28 28 28 29 28 29 28 28 28 28 28
28 27 27 27 27 27 27 26 26 26 26 26 26 25 25 25
25 24 25 25 24 24 24 24 23 23 23 23 19 7 13 12
13 19 21 36 54 60 61 63 60 55 44 26 8 2 16 25
24 24 24 22 23 24 26 27 27 27 27 27 27 27 27 27
28 28 28 29 29 28 28 29 29 29 29 29 30 30 30 30
30 31 29 30 31 30 30 30 31 31 30 30 29 30 30 30
29 29 29 29 29 29 29 29 29 29 29 27 29 29 29 28
23 26 28 28 28 28 28 28 28 28 28 28 28 28 28 28
28 28 27 27 27 27 26 26 26 26 26 26 26 26 26 25
25 25 24 24 24 24 24 23 23 23 23 20 5 6 7 18
34 53 69 78 80 81 83 82 82 80 78 74 69 41 10 16
24 24 24 23 23 25 26 27 27 27 27 27 27 27 28 27
27 28 28 29 29 28 29 28 29 29 29 29 30 30 30 31
30 30 30 31 31 30 31 30 31 30 30 29 30 29 28 29
29 29 30 29 30 29 29 29 29 29 28 28 28 28 29 28
8 16 29 29 29 29 29 29 28 28 28 28 28 28 28 28
28 28 28 27 27 27 27 26 27 26 27 26 26 26 26 25
25 25 25 24 24 25 24 24 24 23 22 5 4 14 27 45
73 86 87 87 89 93 93 94 92 89 86 86 85 84 60 16
16 25 24 23 23 25 26 27 27 27 27 28 28 27 28 28
28 28 28 29 29 29 29 29 30 30 30 30 30 30 31 30
30 30 30 30 30 30 30 30 30 30 30 29 30 29 29 29
30 30 29 29 29 29 29 28 28 29 29 29 28 28 29 29
6 14 28 29 29 29 29 29 28 28 28 29 29 28 29 28
28 28 28 28 27 27 27 27 27 27 27 27 26 26 26 26
26 25 25 24 25 24 24 24 24 23 11 4 8 18 57 86
93 93 91 89 91 94 94 93 93 93 90 91 94 94 83 53
13 16 24 23 23 25 27 27 27 26 27 27 27 28 27 28
28 28 28 29 29 29 29 29 29 29 29 30 30 30 31 30
30 30 30 30 30 30 29 29 29 29 30 29 31 30 29 29
29 30 29 30 29 29 28 28 29 28 28 28 29 28 29 28
8 13 28 29 29 29 29 28 28 28 28 29 29 28 28 28
28 28 28 28 28 28 28 27 27 27 27 27 30 31 29 27
26 26 25 25 25 25 24 25 24 20 2 1 5 52 85 94
96 95 94 95 96 98 98 95 93 90 91 94 96 95 92 75
46 9 15 24 23 25 26 27 27 27 28 27 28 27 28 28
28 28 28 29 29 29 30 29 29 30 30 30 30 30 30 29
30 29 29 30 29 30 30 29 30 29 30 30 30 30 29 29
29 29 29 29 29 29 28 28 28 29 29 28 28 28 29 29
9 14 28 29 28 29 29 28 29 36 36 35 33 31 30 29
28 28 28 28 28 28 27 28 27 28 27 28 36 39 37 33
31 30 27 25 25 25 25 25 23 7 0 1 43 80 89 93
97 98 99 99 102 103 99 97 95 92 94 95 95 94 92 84
68 40 5 15 23 26 26 28 27 27 28 28 28 28 29 29
29 29 29 30 30 29 30 29 29 30 30 30 30 30 30 30
31 30 30 30 30 30 30 30 30 30 29 29 29 30 30 29
30 29 30 30 29 29 29 29 29 29 29 29 28 28 29 29
9 16 29 30 30 29 29 29 31 40 39 38 36 34 33 33
32 30 30 29 29 29 28 28 28 27 28 29 38 38 36 34
35 35 32 27 25 26 25 24 16 0 0 22 71 84 89 93
98 103 105 106 106 104 102 100 99 97 97 98 99 96 94 89
79 61 31 2 16 26 26 28 28 28 28 28 29 29 29 29
28 29 30 29 30 29 29 29 29 29 30 30 31 30 31 31
30 30 30 30 30 29 30 30 30 30 30 30 30 31 30 30
30 29 29 29 29 29 29 29 29 29 29 29 29 28 28 29
9 19 32 31 31 30 30 29 31 40 39 39 36 36 37 38
39 35 34 33 32 30 28 27 28 28 27 28 35 34 34 33
35 35 34 29 26 26 25 24 5 0 7 55 75 82 88 95
101 106 109 111 114 113 111 109 104 84 79 67 61 59 52 44
41 37 34 14 4 19 26 28 28 28 29 29 29 28 29 29
29 29 29 29 29 30 30 29 30 30 30 31 31 30 30 30
30 31 31 31 31 31 31 30 30 30 30 29 30 30 30 29
30 30 30 30 30 30 29 29 29 29 29 30 29 28 28 29
10 19 35 33 31 33 32 32 33 34 30 34 35 37 39 40
40 35 31 33 36 35 33 32 31 30 29 28 28 17 19 21
26 30 32 30 26 26 26 21 0 0 24 35 30 25 18 15
17 25 38 65 107 120 117 115 111 81 28 15 9 7 6 8
9 10 11 6 4 7 18 26 29 29 29 29 29 29 29 29
29 29 29 29 30 30 30 30 30 30 31 31 32 31 31 31
31 31 31 31 30 31 31 31 30 31 30 30 30 31 30 30
30 30 29 30 29 30 30 29 29 29 29 29 29 29 29 30
10 20 34 32 28 29 33 36 38 21 1 6 19 29 33 35
39 32 7 7 13 20 27 29 31 35 33 31 27 12 7 9
9 8 12 29 27 26 26 14 6 6 11 15 12 2 0 0
0 0 0 6 24 100 119 115 97 23 4 0 0 0 0 0
0 0 4 72 36 7 0 12 30 29 30 29 30 30 30 30
30 30 30 30 30 31 31 31 31 31 31 32 33 32 32 32
31 31 32 31 32 31 31 31 31 30 31 30 30 32 31 31
31 30 30 30 30 31 29 30 30 30 30 30 31 30 29 29
10 18 32 34 32 31 31 38 42 22 0 0 3 11 13 14
22 30 2 0 0 0 2 5 10 16 22 30 27 10 2 5
6 1 2 27 27 27 19 4 8 5 10 99 47 0 0 0
0 0 0 0 1 12 18 11 9 1 0 0 0 0 0 0
0 0 0 17 28 2 0 4 24 30 30 30 31 31 31 30
31 30 30 31 31 31 31 31 32 31 31 31 33 32 32 32
32 31 32 32 32 32 31 31 31 31 31 31 31 32 31 31
31 30 31 31 30 31 30 30 30 30 30 30 30 30 30 28
11 9 8 14 22 30 34 39 42 23 0 0 1 5 9 9
16 31 3 0 0 0 0 0 0 0 1 22 28 6 0 0
2 1 2 29 29 27 17 2 7 0 48 105 4 0 0 0
0 16 60 7 1 7 13 13 5 0 0 0 0 10 5 0
0 0 0 0 0 0 0 0 8 29 30 30 31 30 30 31
31 31 31 31 32 32 32 32 32 32 32 32 34 33 32 33
32 32 32 32 32 32 31 32 31 31 31 30 31 32 31 31
31 31 31 30 31 31 31 32 32 31 31 31 30 30 30 30
10 5 0 0 0 2 7 14 23 21 0 0 0 1 1 3
14 31 4 0 0 0 0 0 0 0 0 22 26 2 0 0
0 0 2 30 28 26 15 1 0 0 93 46 0 0 0 0
19 77 34 0 1 13 58 57 13 1 0 0 15 60 22 0
0 0 0 0 0 0 1 1 3 18 31 30 31 31 31 31
31 31 31 31 31 32 32 31 32 32 32 33 33 32 33 33
32 32 33 33 32 32 32 32 32 32 32 32 32 32 31 32
31 32 32 31 31 31 30 30 31 32 31 31 31 31 31 30
11 5 0 0 0 0 0 0 1 15 0 0 0 0 0 0
11 29 2 0 0 0 0 0 0 0 0 20 23 0 0 0
0 0 2 32 28 26 10 0 0 5 68 4 0 0 0 12
50 12 0 0 4 26 68 69 46 4 0 5 56 24 0 0
0 0 0 0 0 0 1 0 6 4 28 31 31 31 31 31
31 31 31 31 32 32 32 32 32 33 32 33 33 32 32 32
32 33 33 32 32 32 33 32 32 32 32 32 31 32 30 32
32 32 32 31 31 31 31 31 31 32 31 31 30 30 30 30
11 4 0 0 0 0 0 0 0 12 0 0 0 0 0 0
14 31 2 0 0 0 4 7 1 0 0 19 22 0 0 0
0 0 2 30 29 21 5 0 0 11 32 0 0 0 0 13
6 0 0 0 8 60 98 105 93 26 0 17 25 0 0 0
0 0 0 0 0 0 1 0 7 3 20 31 32 30 31 31
31 31 31 31 32 31 31 32 32 32 32 32 33 32 33 33
32 32 32 33 32 32 32 32 32 31 31 32 32 32 32 32
32 31 32 31 30 30 31 32 31 31 31 31 31 31 31 31
11 5 0 0 0 0 0 0 0 9 0 0 0 0 0 0
12 33 3 0 0 0 7 11 8 3 0 16 22 0 0 0
0 0 0 29 28 10 4 0 0 20 24 0 0 0 0 0
0 0 0 1 36 99 114 118 109 77 6 0 0 0 0 0
0 0 0 0 0 0 0 0 4 8 10 31 31 30 30 30
30 30 31 31 31 32 31 32 32 32 32 32 33 32 32 32
32 32 32 32 32 32 32 32 31 31 32 31 32 31 31 30
30 31 30 30 29 29 31 31 31 31 31 31 31 31 31 31
10 4 0 0 0 4 2 0 0 8 0 0 0 0 0 0
11 34 3 0 0 0 8 11 10 10 2 15 23 0 0 0
0 0 0 27 25 4 1 0 0 18 12 0 0 0 0 0
1 49 44 13 86 101 113 121 106 96 57 2 0 4 43 2
0 0 0 0 0 0 2 1 2 8 3 29 30 30 30 30
30 30 31 31 31 31 31 31 31 32 32 31 32 31 32 32
32 32 32 32 32 31 31 31 31 31 31 30 31 31 31 30
30 30 30 30 30 29 31 31 31 31 30 31 31 30 29 28
10 4 0 3 0 0 0 0 0 7 0 0 0 0 0 0
11 34 4 0 0 0 4 9 9 9 1 13 25 2 0 0
0 0 0 26 21 1 0 0 0 0 0 0 9 51 0 0
35 43 5 68 107 97 106 115 96 92 109 50 3 67 32 0
0 0 0 0 0 0 6 0 0 9 4 25 30 29 29 29
29 30 29 30 30 31 30 30 30 31 31 30 30 31 31 30
31 31 31 31 33 32 31 31 32 31 30 31 30 30 30 29
30 29 29 30 30 30 30 30 29 29 28 30 29 27 25 24
10 4 1 1 0 0 0 0 0 9 0 0 0 0 0 2
16 36 7 0 0 0 0 2 6 8 1 11 33 24 17 10
7 4 5 26 14 0 0 0 0 0 0 0 36 23 0 0
0 4 37 108 70 16 64 108 47 14 89 103 26 12 6 5
4 1 0 0 0 8 36 1 0 7 9 24 30 30 30 30
30 30 30 31 31 30 30 30 31 31 31 30 30 31 31 31
32 32 32 32 32 31 31 31 31 30 30 31 31 30 30 30
29 29 29 29 27 29 30 28 27 26 23 22 20 17 14 12
10 5 0 0 0 0 0 0 0 18 13 7 4 3 0 0
12 42 29 21 18 14 7 3 1 4 0 11 36 38 35 34
33 34 35 38 10 0 0 0 9 0 0 0 1 4 6 9
16 33 82 104 22 9 80 109 68 5 50 107 79 66 47 26
17 16 14 10 18 52 54 5 0 4 8 23 30 30 31 31
30 31 31 31 32 31 32 31 31 31 31 31 31 31 32 32
32 32 32 32 32 32 31 31 31 30 29 30 28 29 28 27
28 28 26 26 25 23 21 18 16 13 12 11 11 12 12 13
9 4 0 0 0 0 0 0 0 29 41 33 29 28 25 17
22 44 27 20 23 25 25 23 21 19 17 25 38 36 36 36
37 41 44 40 7 0 0 0 38 45 15 8 14 19 31 56
79 75 85 110 62 66 104 113 98 74 83 102 78 105 115 105
91 77 62 61 63 57 55 15 0 0 2 12 30 30 31 30
31 31 30 30 31 31 31 30 30 30 31 31 31 31 31 32
32 32 31 32 31 31 30 29 28 28 28 28 27 27 25 23
21 18 17 15 13 12 13 12 13 13 14 15 16 16 17 18
10 5 0 0 0 0 0 0 0 31 43 34 39 41 44 43
40 42 20 10 11 12 13 14 15 17 21 26 26 24 28 30
35 38 39 36 6 0 0 1 47 52 46 51 65 85 94 100
108 85 73 105 87 93 100 107 100 89 83 80 77 109 119 117
114 109 101 90 81 70 57 29 0 0 0 6 29 31 30 30
30 29 30 30 32 31 31 31 31 32 31 31 31 31 31 31
31 31 31 31 31 30 29 29 30 25 21 20 17 15 14 13
13 14 15 15 16 16 17 17 19 19 20 20 19 14 19 21
11 13 15 10 6 2 0 0 0 31 37 34 41 43 47 46
38 32 18 10 11 10 10 9 8 8 7 7 7 9 12 15
25 28 25 24 7 0 0 6 51 57 68 79 93 102 105 110
114 96 70 69 78 87 99 98 96 89 81 72 79 97 114 120
117 117 113 105 93 81 63 39 0 0 0 3 24 30 30 31
30 30 29 29 31 30 30 30 31 31 32 31 32 31 31 31
30 29 27 24 23 21 18 19 31 20 11 14 15 16 16 18
18 19 19 20 21 21 22 22 23 23 23 24 23 21 16 22
11 20 36 39 36 31 26 20 18 34 29 33 39 42 44 46
41 34 21 13 12 10 9 8 7 8 7 7 7 7 7 8
22 24 23 25 8 0 0 17 52 65 83 94 104 106 113 117
110 87 75 71 86 98 101 99 101 100 96 85 74 78 97 117
121 119 117 111 103 88 71 50 5 0 0 2 27 30 29 30
30 29 29 29 31 31 31 31 31 31 31 30 29 26 24 21
19 18 16 16 17 17 17 17 26 20 15 19 20 22 22 23
23 24 24 24 24 25 24 24 25 26 26 24 26 26 24 17
11 19 38 42 41 40 40 40 41 40 17 18 26 31 36 40
38 35 25 13 11 8 6 6 5 6 8 9 9 9 10 12
25 16 10 26 10 0 0 26 56 73 92 102 110 114 117 115
94 77 73 85 104 106 103 102 106 105 105 104 95 84 81 99
119 120 118 115 105 94 75 56 15 0 0 1 26 28 28 27
28 29 29 30 29 29 29 27 24 23 21 20 18 18 17 18
18 20 20 20 21 22 22 20 26 21 19 23 24 25 25 25
26 26 27 27 27 26 26 26 26 26 27 26 26 27 28 24
10 19 37 41 42 41 42 42 44 38 6 0 1 3 8 14
18 28 26 12 10 6 0 0 0 3 10 9 7 7 11 13
25 30 28 32 15 0 0 36 60 79 95 105 114 118 117 98
78 79 91 102 102 103 101 96 100 104 104 104 102 100 92 82
104 120 120 117 108 96 80 61 28 0 0 0 21 27 26 19
23 27 25 24 22 20 20 19 19 19 19 20 21 21 22 23
23 24 25 25 26 27 26 25 27 23 22 26 27 27 28 28
29 28 28 28 29 29 28 28 28 26 28 28 27 28 29 29
16 20 30 34 34 35 37 39 41 35 3 0 0 0 0 1
9 27 28 11 9 5 0 0 0 0 2 3 0 1 4 6
22 35 31 27 19 0 1 41 61 81 97 106 117 119 108 84
81 96 101 98 97 86 88 85 81 86 90 90 99 102 106 95
94 116 120 119 112 98 83 63 39 0 0 1 15 23 22 16
17 19 19 19 21 21 22 22 23 24 25 25 26 26 27 27
28 28 28 29 29 30 28 23 13 10 20 28 29 29 29 29
29 29 30 30 30 29 29 29 29 28 27 27 27 27 28 29
16 18 19 22 24 28 27 29 37 32 2 0 0 0 0 0
1 27 28 10 8 4 0 0 1 0 0 0 0 0 0 0
19 36 28 21 19 2 2 43 62 81 95 106 115 116 99 86
98 102 95 86 76 90 104 106 107 106 98 81 79 93 106 112
100 108 119 118 111 99 84 65 46 3 0 2 12 19 20 19
20 22 23 24 25 25 27 27 27 28 29 29 29 29 30 29
30 30 30 30 30 30 28 20 3 1 15 28 30 31 30 30
29 29 29 30 30 30 29 29 30 29 29 28 27 26 27 29
15 17 16 17 20 26 25 27 37 32 2 0 0 0 0 0
0 26 24 4 1 0 0 0 5 5 1 0 0 0 0 0
19 37 30 17 24 10 4 45 62 81 93 106 112 112 99 95
104 96 79 71 92 116 121 114 116 115 119 112 89 73 92 116
112 108 116 115 110 100 86 66 49 9 0 3 17 23 24 25
25 26 28 28 28 29 29 29 30 29 31 30 31 30 31 31
31 32 31 25 21 16 24 18 6 2 13 27 30 30 31 31
30 29 29 30 29 31 30 30 30 29 28 28 27 25 26 28
13 16 15 19 23 28 29 33 38 31 2 0 0 0 0 0
0 28 19 0 0 0 0 0 1 8 7 1 0 0 0 0
19 37 30 12 20 9 6 46 63 78 93 105 110 107 100 105
108 81 70 95 113 121 119 111 111 112 119 120 112 97 85 109
113 110 113 112 107 98 85 66 50 11 0 5 24 28 28 28
29 29 30 29 30 30 30 31 31 32 32 32 32 32 32 32
33 32 22 3 1 3 19 16 1 0 12 28 31 31 31 30
30 31 31 30 30 29 29 30 30 29 29 29 29 26 24 26
16 13 1 1 4 8 12 18 22 26 2 0 0 0 0 0
0 30 20 0 0 0 0 0 2 10 12 8 3 0 0 0
19 38 32 14 15 3 4 45 62 78 91 101 107 107 102 110
107 92 92 106 116 121 121 114 112 117 120 120 115 108 97 104
111 113 112 105 104 95 85 67 50 27 20 33 28 29 29 30
31 31 31 31 32 32 32 32 32 32 32 32 33 33 33 32
33 33 27 18 22 25 28 21 1 0 12 28 30 30 31 30
30 31 30 30 30 31 30 30 30 29 28 28 29 28 25 23
20 15 0 0 0 0 0 0 0 13 2 0 0 0 0 0
0 30 17 0 0 0 0 1 12 13 14 11 6 0 0 0
18 38 33 21 20 15 11 44 61 75 88 96 102 107 106 108
103 98 99 110 118 121 120 110 103 106 118 120 117 111 104 103
107 113 112 103 98 94 84 67 49 44 53 48 41 29 30 31
32 32 32 31 32 32 33 32 32 32 33 33 34 34 33 33
33 33 32 31 31 30 29 22 2 0 12 27 30 30 31 30
30 30 30 30 30 29 29 29 29 28 28 28 28 28 28 24
20 16 0 0 0 0 0 0 0 10 2 0 0 3 1 0
0 28 14 0 0 0 0 1 12 17 14 4 2 0 0 0
17 37 35 25 22 47 36 42 60 72 83 91 99 104 109 104
98 101 104 110 117 114 101 92 95 97 102 109 112 109 106 102
101 107 107 101 96 91 85 68 50 59 74 72 56 30 31 32
32 33 33 33 32 33 33 33 33 33 33 33 34 33 33 33
33 33 33 32 32 30 29 25 7 0 17 28 30 31 31 31
31 30 30 29 30 29 29 29 28 28 28 28 28 27 27 24
19 15 0 0 0 1 0 0 0 10 1 0 2 13 7 0
0 28 13 0 0 0 0 0 1 10 9 0 0 0 0 0
14 37 35 23 35 51 45 42 57 73 81 88 96 101 102 97
98 100 103 104 102 94 96 98 102 100 99 97 100 105 103 99
96 98 106 101 93 91 82 69 53 73 75 84 68 32 32 33
32 33 33 33 33 32 33 33 33 33 33 34 34 33 33 33
33 32 32 32 31 30 29 25 15 7 22 29 31 31 32 31
30 30 30 29 29 29 28 28 28 28 27 27 27 27 27 25
16 14 0 0 1 11 4 0 0 10 2 0 7 14 10 3
0 28 12 0 0 0 0 0 0 8 9 0 0 0 0 0
10 37 35 15 47 68 62 49 56 69 79 85 92 98 92 88
93 95 97 95 90 95 103 108 110 109 105 98 90 92 95 93
91 95 102 101 94 89 82 69 55 75 78 76 74 37 32 33
33 33 33 33 33 34 33 33 33 33 33 33 33 33 33 33
33 32 32 32 32 30 29 26 23 23 27 31 31 31 31 30
30 30 29 29 29 28 29 28 28 27 27 27 27 27 26 24
17 15 0 0 6 17 7 2 0 13 19 14 21 21 19 15
7 31 11 0 0 0 0 0 0 7 12 0 0 0 0 0
7 36 33 13 57 72 66 53 55 69 77 84 89 96 87 86
83 85 84 85 88 102 111 116 117 119 111 105 90 85 84 86
83 86 94 97 97 90 83 70 60 70 95 78 72 43 32 33
33 33 33 33 33 34 33 33 33 33 33 33 34 34 33 33
34 33 33 32 32 31 30 27 26 27 30 31 31 31 31 30
30 30 30 29 29 29 28 28 27 27 26 26 26 26 25 24
15 14 0 0 2 6 1 0 0 15 36 34 38 38 37 37
39 42 15 0 0 0 0 0 0 9 14 0 0 0 0 0
4 33 32 14 62 64 65 57 54 68 78 82 87 91 83 77
76 79 78 82 94 107 116 121 120 121 117 111 98 88 81 80
77 83 89 89 95 90 82 69 60 68 90 87 68 46 32 33
33 33 33 33 33 34 33 34 34 33 32 33 33 33 33 33
33 33 33 33 32 31 30 29 28 29 32 32 31 30 31 30
30 29 29 29 28 27 27 26 27 26 26 26 25 25 26 24
17 16 4 1 0 0 0 0 0 14 37 37 40 40 40 43
48 47 28 15 17 11 6 5 6 13 17 5 5 3 2 1
5 27 31 15 59 60 81 57 54 65 77 85 89 87 83 74
71 69 77 87 100 111 113 114 113 114 113 112 104 93 84 73
70 74 83 87 89 89 78 66 62 69 76 81 69 46 33 33
33 33 33 34 33 33 33 33 33 33 33 34 34 33 34 33
34 34 33 33 32 32 31 30 30 31 31 32 31 30 31 31
30 30 29 28 27 27 27 26 26 25 26 25 24 23 23 23
17 18 15 3 0 0 0 0 0 13 36 35 37 38 39 45
48 48 38 31 32 30 28 26 27 27 24 21 18 16 15 15
18 29 34 22 54 63 76 60 55 65 76 84 82 83 77 70
67 70 72 86 98 107 110 107 104 105 108 105 101 94 82 71
66 66 80 85 87 85 76 66 62 66 70 71 66 42 33 33
34 33 34 33 33 33 34 33 33 33 33 33 33 34 33 34
34 34 33 32 33 32 31 30 30 30 30 30 30 30 30 29
30 29 28 27 27 27 26 26 26 26 25 25 25 23 24 23
19 19 11 0 0 0 0 0 0 14 34 32 34 35 35 36
34 34 33 33 34 34 32 31 33 32 32 31 29 27 26 24
25 31 39 32 47 60 61 53 53 62 73 79 79 77 72 69
65 68 71 77 91 98 99 97 94 92 97 95 90 86 74 67
68 69 73 76 82 78 74 63 73 92 80 83 67 36 33 34
34 34 33 33 33 33 33 33 33 33 33 33 34 34 34 34
33 33 33 32 32 33 31 31 31 31 31 30 31 31 31 30
29 29 28 28 27 26 26 25 25 24 24 23 23 23 23 22
20 20 9 0 0 0 0 0 0 14 37 31 32 33 33 33
31 31 33 34 35 37 36 35 34 33 33 32 35 38 35 33
33 35 41 39 46 59 55 60 52 62 71 75 74 74 68 66
62 61 68 73 84 93 92 87 85 88 89 83 82 78 65 67
67 71 73 80 76 74 69 62 76 95 84 82 55 33 33 33
33 33 34 33 33 32 33 32 32 32 33 32 34 32 33 33
33 33 33 33 32 33 31 32 33 32 31 31 31 31 30 29
29 28 28 27 26 26 24 24 23 23 22 22 21 22 22 21
18 18 24 23 21 17 16 13 12 23 40 33 33 33 33 33
34 35 37 35 36 38 42 42 36 32 32 33 40 43 42 38
39 39 35 30 42 64 68 74 52 59 68 70 67 72 70 67
65 62 64 65 71 79 82 85 85 83 82 82 74 66 64 63
62 70 71 71 69 70 66 57 85 86 79 67 36 32 32 33
33 33 33 33 33 33 33 33 32 33 32 33 33 33 33 34
34 33 33 33 32 33 32 32 32 32 31 30 31 30 30 29
29 28 28 27 25 25 24 23 23 21 21 20 20 21 21 21
20 19 35 41 42 39 41 43 42 43 43 37 35 35 35 35
38 40 42 37 37 39 43 41 36 33 29 30 40 43 41 39
39 38 36 31 32 62 69 72 54 54 60 62 64 64 65 69
66 62 59 61 62 66 74 80 84 79 77 76 75 69 68 63
67 67 66 70 67 61 56 50 66 80 63 40 32 32 33 33
32 32 33 33 33 33 33 32 33 33 33 33 34 33 33 33
32 33 32 33 32 32 33 32 33 32 31 31 30 30 29 29
28 26 26 26 24 23 23 22 21 20 20 20 20 20 20 19
20 20 37 46 46 46 46 47 47 47 44 32 30 28 28 29
33 39 44 39 38 36 35 36 37 34 30 28 34 33 31 31
35 36 35 34 30 39 58 71 59 48 54 57 58 63 63 64
68 63 60 60 59 62 73 75 79 78 77 72 73 68 66 63
62 67 69 67 63 59 53 34 4 37 36 32 33 33 33 33
34 33 34 34 34 34 32 33 32 32 32 33 33 32 32 33
32 32 32 32 32 33 32 32 31 31 30 31 30 29 29 28
28 26 26 24 23 22 22 21 21 20 20 19 19 19 20 20
20 18 27 34 35 36 37 39 41 42 40 12 7 5 4 5
9 16 37 39 35 20 13 18 20 20 23 30 30 14 5 4
8 14 18 29 32 30 34 49 49 44 51 54 53 55 59 59
57 55 57 57 62 64 67 70 74 78 78 77 72 68 62 60
62 62 61 61 60 56 52 18 11 34 33 32 33 33 33 33
33 33 33 33 34 33 32 33 33 32 32 33 33 33 33 32
30 30 29 28 26 26 29 32 32 31 31 31 30 29 28 28
27 25 25 23 21 21 21 21 21 19 20 19 19 19 20 19
21 17 22 26 27 26 26 26 26 27 29 7 0 0 0 0
0 1 30 39 27 4 0 0 2 7 16 32 31 9 0 0
0 3 11 25 21 20 23 25 27 34 47 49 49 45 46 46
43 47 51 54 64 64 68 71 75 78 78 74 71 64 61 52
49 51 52 54 51 51 46 10 16 33 33 33 33 33 33 33
34 33 34 34 33 32 30 30 29 29 30 31 33 33 32 28
17 15 13 11 9 10 22 33 33 32 31 30 30 29 28 27
26 25 24 23 22 21 21 21 20 19 19 19 19 18 20 19
20 17 27 32 32 32 31 30 30 30 30 10 1 0 0 0
0 9 32 38 14 0 0 0 0 1 15 34 31 9 0 0
0 1 10 23 8 1 5 5 4 11 42 45 47 41 38 38
39 42 46 53 62 67 71 75 76 73 78 71 70 63 57 51
49 45 44 45 48 47 41 7 18 33 33 33 33 33 34 33
33 27 24 22 19 17 14 12 10 11 15 27 33 33 33 26
8 6 6 6 6 6 20 32 32 32 31 30 30 29 28 27
25 24 24 23 21 21 20 19 20 19 18 18 18 19 19 19
20 18 28 34 34 34 34 34 34 34 32 10 2 0 0 0
0 9 31 35 7 0 0 0 0 0 11 34 31 9 0 0
0 0 9 23 8 1 10 8 0 3 17 36 38 33 34 41
46 47 48 55 62 67 76 78 75 74 73 74 70 68 63 61
59 54 47 45 44 39 45 7 19 33 32 33 33 33 33 33
29 12 7 8 9 8 6 3 3 2 4 22 33 32 33 25
9 6 6 7 6 6 20 32 33 32 31 29 29 28 27 26
25 24 22 22 22 21 19 19 19 19 19 19 19 18 18 18
20 20 29 33 35 34 34 34 35 37 35 9 0 0 0 0
2 2 25 32 4 0 0 0 0 0 12 33 29 9 0 0
0 0 5 24 9 1 7 6 0 4 14 35 37 27 35 45
52 55 53 55 61 70 76 79 81 80 78 79 76 73 71 71
69 62 52 42 39 48 51 9 25 33 32 33 33 33 33 33
27 8 3 6 7 7 4 3 3 2 4 19 31 32 32 25
8 6 6 6 5 6 18 31 32 31 31 30 28 28 27 26
24 23 22 21 20 19 19 17 19 19 19 18 18 18 18 18
24 25 28 29 30 31 24 14 19 31 37 12 0 0 0 0
5 1 23 32 3 0 0 0 0 0 11 33 28 8 0 0
0 0 1 22 11 1 5 3 0 4 25 40 49 43 43 49
55 60 60 62 66 76 83 87 89 85 85 85 81 79 76 76
73 65 58 53 53 56 56 24 31 33 33 33 33 33 33 32
27 9 3 6 8 8 5 2 3 3 2 18 32 32 33 25
8 6 7 7 6 6 15 32 33 31 30 29 28 27 25 23
23 22 21 20 21 19 19 19 19 18 18 18 17 17 17 17
23 24 25 26 27 27 17 0 2 20 41 22 4 0 0 0
4 0 19 30 1 0 0 0 0 0 10 34 28 11 0 0
0 0 0 21 13 1 5 4 0 3 31 42 55 51 51 50
51 56 63 67 72 79 89 94 97 95 96 93 89 87 84 75
73 67 65 64 61 58 60 28 32 32 33 32 33 33 33 33
28 9 3 6 8 7 5 2 3 2 3 19 32 33 33 27
10 8 8 8 8 8 13 28 30 29 28 28 28 27 26 24
23 23 22 21 20 19 19 18 18 17 17 17 17 17 17 17
22 22 23 24 25 26 18 0 0 16 40 19 1 0 0 0
4 1 19 30 2 0 0 0 0 0 6 33 29 13 0 0
0 0 0 20 18 0 0 0 0 2 30 42 56 56 54 53
50 52 62 70 79 89 98 99 100 105 103 100 97 90 85 76
71 73 75 72 68 66 63 31 32 32 32 33 33 33 33 33
28 10 3 5 8 8 5 2 3 2 3 18 32 32 32 29
16 14 13 13 12 12 17 25 27 27 30 29 28 27 25 24
23 22 22 21 20 19 19 18 18 18 17 17 17 17 17 16
12 14 15 18 21 25 20 1 0 12 37 12 0 0 0 0
0 0 18 31 2 0 0 0 0 0 4 33 29 10 0 0
0 0 0 17 22 0 0 0 0 3 29 42 61 65 61 58
56 52 56 73 84 96 103 105 110 114 109 106 102 95 91 81
74 80 79 77 71 71 66 36 32 32 32 32 32 32 32 32
28 10 3 4 6 5 4 2 3 2 3 17 31 33 33 30
13 9 9 6 1 0 2 4 3 6 27 29 28 27 26 25
24 22 21 21 19 18 18 18 18 17 17 17 17 16 16 16
0 0 0 7 20 24 22 1 0 10 34 9 0 0 0 0
0 0 16 34 4 0 0 0 0 0 4 33 31 14 1 1
0 1 2 19 26 0 0 0 0 4 29 43 69 78 69 61
61 55 55 72 89 103 110 115 118 120 116 113 107 97 90 81
84 89 83 79 76 78 70 40 32 32 33 33 32 33 32 32
29 12 3 3 3 2 3 3 4 3 3 16 31 33 33 29
12 7 7 3 0 1 5 20 11 1 27 29 28 27 25 25
23 22 21 20 20 19 19 18 18 18 18 17 17 17 17 17
0 0 0 8 23 23 22 2 0 7 32 14 2 2 1 3
13 9 18 36 17 10 10 12 11 10 15 36 33 27 26 25
25 27 30 37 32 8 5 4 5 8 29 43 75 90 81 68
67 60 55 71 91 104 115 120 121 120 118 115 109 103 93 84
89 89 85 80 80 85 73 39 31 32 32 32 33 34 33 33
29 12 4 3 0 0 4 3 4 4 3 16 31 33 33 30
13 6 7 4 0 0 1 6 2 1 25 29 28 26 26 24
23 22 21 20 19 19 19 19 18 18 17 17 17 17 17 17
0 0 0 7 23 23 22 4 0 3 31 32 29 24 25 30
38 36 36 38 41 40 38 39 40 40 41 44 35 30 36 38
40 43 48 49 42 28 27 26 26 27 32 40 77 93 87 75
73 63 55 74 93 110 121 123 123 122 120 118 112 104 99 86
89 88 88 84 86 87 74 42 31 32 32 32 33 34 34 32
28 12 4 3 2 4 8 3 4 4 2 15 31 33 33 29
13 6 7 4 0 0 0 0 0 0 24 28 26 24 25 24
22 22 21 20 19 19 19 18 18 17 17 17 17 17 17 16
0 0 0 5 22 22 21 5 0 1 29 38 38 33 35 42
45 40 36 33 43 46 44 43 43 46 46 46 37 27 33 37
39 44 48 48 43 31 29 30 29 30 31 40 79 96 92 79
71 65 60 71 96 110 121 123 124 123 123 121 114 106 101 88
90 91 88 89 93 93 81 49 31 31 32 32 33 34 34 32
28 13 5 3 2 1 4 3 4 4 2 14 31 32 33 30
13 6 6 2 0 0 0 0 0 0 21 15 8 7 19 24
22 21 21 20 20 18 18 17 18 17 18 17 17 16 16 16
0 0 0 3 23 22 21 6 0 0 28 36 33 30 34 40
45 42 35 31 33 37 36 36 35 36 36 36 33 26 27 30
33 35 34 32 32 29 30 31 30 30 30 42 81 96 99 92
79 61 63 76 95 106 117 123 124 123 122 119 111 106 101 90
90 92 94 97 99 95 84 66 57 30 31 32 33 34 34 32
27 13 4 3 0 0 2 3 5 5 2 14 30 32 33 30
13 5 5 0 14 19 1 0 0 0 8 16 21 13 5 22
22 20 19 19 18 18 18 18 18 17 17 17 17 16 16 16
0 0 0 2 21 21 20 6 0 0 25 32 25 27 27 33
43 42 37 32 26 23 24 24 24 24 24 25 28 28 29 30
32 31 28 26 27 29 30 30 31 31 30 41 81 96 102 101
90 69 63 77 94 102 114 123 123 123 122 116 111 104 101 94
92 95 98 101 103 98 87 69 97 31 31 32 33 33 33 31
28 15 5 3 2 2 4 3 4 4 1 12 29 32 33 30
13 5 5 4 27 42 11 0 0 6 24 26 26 24 5 19
21 20 19 19 19 18 18 17 17 16 16 16 16 16 16 15
0 0 0 1 20 21 19 9 0 5 27 29 11 13 16 21
28 29 28 33 28 25 26 26 31 31 30 29 32 32 34 37
38 36 32 29 28 30 31 31 31 31 31 47 79 96 104 108
94 75 68 75 90 95 105 119 124 123 118 112 108 104 104 98
92 95 101 106 107 101 91 76 116 47 30 32 33 33 34 31
28 15 4 3 4 4 3 3 3 5 1 11 30 31 33 30
14 5 6 2 10 17 9 0 0 12 28 27 26 25 8 16
21 20 20 20 19 18 18 17 18 17 17 16 17 16 16 15
0 0 0 0 18 19 17 15 18 25 34 27 1 0 0 1
3 8 13 31 30 33 36 34 42 44 34 27 28 29 30 35
38 41 35 30 29 29 30 30 30 31 34 67 76 97 106 110
102 80 71 80 91 92 96 109 122 121 114 112 111 107 105 101
95 96 104 109 109 104 94 72 120 84 34 32 33 34 34 31
29 16 4 4 3 3 3 3 3 4 1 10 29 32 33 31
17 7 8 2 1 1 0 0 0 11 28 27 24 23 9 15
21 20 20 19 19 18 17 17 17 16 16 16 16 16 15 15
0 0 0 0 16 19 17 23 35 38 40 28 1 0 0 0
0 0 10 34 30 35 40 34 42 46 22 4 4 5 6 8
23 40 35 30 30 29 30 30 31 30 46 88 76 99 108 114
108 86 72 81 91 96 99 102 115 114 115 115 112 107 107 104
97 97 107 113 112 107 92 73 123 106 80 68 54 41 34 31
29 17 5 3 4 3 3 3 3 4 2 11 30 32 34 31
26 18 11 3 0 0 0 0 0 8 28 27 25 24 9 18
20 19 19 18 18 18 18 18 17 17 17 17 17 16 16 16
0 0 0 0 14 18 16 22 37 40 42 34 2 0 0 0
0 0 5 35 29 33 35 12 13 25 17 0 0 0 0 0
14 39 36 30 30 30 30 30 30 30 64 109 76 98 110 115
113 92 76 83 89 95 100 102 109 114 116 117 114 108 107 105
98 101 114 117 116 109 81 88 123 109 93 92 91 99 92 62
36 18 5 4 4 4 3 3 4 4 2 10 29 30 32 31
31 14 12 20 3 0 0 0 0 7 28 27 25 22 8 21
21 20 19 19 19 18 17 17 17 17 16 16 16 15 15 15
0 0 0 0 13 19 16 20 31 32 31 24 1 0 0 0
0 0 4 36 29 33 34 5 1 17 17 0 0 0 0 0
10 37 36 30 30 30 30 30 30 32 82 112 75 101 111 117
115 99 78 88 93 95 102 106 112 116 119 118 112 108 104 104
100 105 117 119 118 109 66 110 121 109 101 97 103 109 112 118
107 78 48 21 8 4 4 4 4 5 3 9 28 31 32 32
32 16 21 35 9 0 0 0 0 5 25 24 22 11 11 20
13 11 17 19 18 17 16 16 17 16 16 15 15 15 15 15
0 0 0 0 11 18 15 15 13 13 15 7 0 0 0 0
0 0 5 36 30 34 34 6 0 14 20 0 0 0 0 0
6 35 37 30 30 30 31 34 49 68 95 115 66 104 113 117
116 107 88 90 94 99 107 112 115 119 122 120 115 110 108 108
105 110 119 121 119 105 60 121 120 113 111 99 104 118 115 117
119 117 114 110 98 75 49 26 10 6 3 8 24 24 23 20
18 7 3 7 2 0 0 0 0 0 3 2 2 0 7 12
9 22 15 18 18 17 16 16 16 16 15 15 15 15 15 15
0 0 0 0 9 18 15 14 11 11 13 5 0 0 0 0
0 0 6 35 29 34 35 5 0 14 22 0 0 0 0 0
4 33 37 34 39 46 62 78 81 79 99 121 57 102 114 119
117 111 95 97 101 102 112 117 120 122 123 122 120 115 110 109
110 113 120 122 120 91 74 123 119 117 116 106 108 121 121 119
120 118 120 120 119 119 115 110 99 81 64 46 25 6 0 0
0 0 0 0 0 0 0 0 0 0 0 0 0 0 4 7
66 89 36 17 17 16 16 16 16 15 15 15 15 15 15 15
0 0 0 0 8 17 14 13 12 12 14 5 0 0 0 0
0 0 3 34 29 35 34 6 1 12 21 1 0 0 0 2
21 67 96 108 111 114 108 92 76 73 102 122 62 89 112 119
120 113 100 102 103 104 113 120 122 122 123 122 121 114 110 110
111 116 121 122 119 72 102 123 117 119 117 111 110 121 120 120
121 120 121 120 120 120 119 118 115 115 112 109 105 94 69 37
11 6 6 6 7 8 10 10 11 11 9 4 0 0 10 12
62 63 40 4 5 8 17 16 16 16 15 16 15 16 16 16
0 0 0 0 7 17 15 14 16 15 16 6 0 0 0 0
2 0 2 33 30 35 36 11 3 11 23 7 3 15 51 94
119 123 124 120 116 122 112 96 69 75 102 123 89 66 110 118
119 116 105 105 105 106 113 119 122 122 123 123 122 113 109 112
113 118 122 121 106 71 116 122 118 120 118 115 112 122 122 121
121 121 121 121 121 121 121 120 120 120 119 118 118 117 115 109
94 57 19 14 14 14 15 15 14 14 11 4 0 0 0 0
0 0 0 2 0 7 19 19 20 20 19 18 19 18 19 18
0 0 0 0 6 17 14 13 16 16 17 6 0 1 0 0
7 8 2 32 32 37 36 20 10 11 29 46 91 117 125 125
125 124 124 121 117 124 113 98 73 84 101 122 115 51 99 119
120 118 111 105 106 109 114 120 122 123 121 122 118 111 112 113
114 121 122 120 83 91 120 120 120 120 117 114 116 122 122 121
121 121 121 121 122 121 121 120 121 120 120 120 120 120 119 119
117 111 90 38 15 16 16 16 16 14 11 4 0 0 0 0
0 0 0 2 0 7 17 14 13 12 11 10 9 7 7 5
0 0 0 0 5 17 14 13 16 17 19 9 0 2 0 0
9 17 9 31 34 37 36 23 39 75 109 120 121 123 122 124
124 122 124 122 122 124 109 95 86 93 103 119 124 81 74 115
120 119 113 106 107 109 114 118 119 122 121 119 114 110 116 116
117 121 121 106 71 111 122 119 121 121 119 115 120 122 122 121
121 122 122 121 121 120 121 121 121 121 121 120 121 120 121 121
121 120 118 106 53 18 18 17 16 15 12 6 0 0 0 0
0 0 0 1 17 20 20 21 21 23 23 24 25 26 27 27
0 0 0 0 5 17 13 13 16 18 19 19 16 20 20 21
28 33 31 41 38 40 60 89 116 124 124 124 124 124 124 125
125 124 125 124 124 124 113 92 87 97 104 114 124 113 61 101
118 121 116 108 108 110 114 117 118 120 119 117 114 116 117 117
118 122 119 78 83 120 122 120 122 121 118 115 121 122 122 122
122 122 121 121 122 121 121 121 121 121 121 120 121 120 121 120
121 120 120 121 112 66 22 19 18 16 14 6 0 0 0 0
0 0 0 4 34 35 35 34 34 34 34 34 33 33 33 34
0 0 0 0 4 16 14 13 17 19 19 30 37 39 40 41
44 48 50 56 71 99 118 123 124 125 125 125 125 125 125 125
125 125 124 124 124 124 115 93 87 99 105 111 125 122 78 79
113 119 118 112 109 113 115 117 119 119 118 117 117 118 119 119
120 122 97 63 107 122 122 120 121 120 117 113 122 122 122 122
122 121 121 121 121 121 121 121 120 121 120 121 121 121 120 120
121 121 120 120 120 110 66 21 18 17 16 7 0 0 0 0
0 0 0 6 35 35 35 34 34 33 33 33 33 33 34 33
0 0 0 0 3 14 12 12 16 19 19 27 40 41 42 43
46 53 77 106 119 122 124 124 125 125 125 124 125 124 124 125
124 124 124 124 124 124 116 99 84 94 104 108 124 123 108 67
98 116 117 114 112 114 116 119 119 120 118 119 120 119 120 120
121 112 66 78 117 76 119 120 122 120 118 110 121 122 121 121
121 121 121 121 121 121 121 121 121 121 121 121 120 120 120 120
120 120 120 120 119 118 107 64 20 17 16 7 0 0 0 0
0 0 0 8 35 35 35 34 34 33 33 33 33 33 34 33
0 0 0 0 2 14 12 12 16 19 18 20 28 28 28 29
49 98 120 124 125 125 124 125 125 124 125 125 125 124 124 125
124 124 124 124 123 123 118 104 90 90 103 106 120 123 119 78
81 114 118 116 114 116 116 120 121 122 122 122 122 121 121 120
118 88 61 91 107 24 105 121 121 120 117 108 122 122 122 121
122 121 122 121 121 120 120 121 121 121 121 121 121 121 121 121
121 120 120 120 120 119 119 108 55 18 17 7 0 0 2 5
0 0 0 9 35 34 34 34 33 33 33 32 33 33 33 33
0 0 0 0 3 15 13 11 15 19 18 14 12 12 16 50
108 124 123 123 125 125 125 124 125 125 125 125 125 124 124 124
124 124 124 124 124 123 120 108 99 88 103 106 116 125 123 101
75 98 121 121 114 114 116 119 120 121 122 122 122 121 119 120
106 70 59 102 97 32 107 122 121 120 117 116 122 121 121 121
122 121 121 121 121 121 121 121 121 120 121 120 121 121 120 121
120 120 120 120 120 119 120 119 100 58 20 7 0 0 24 32
4 0 0 11 34 34 33 32 33 33 33 33 33 33 33 33
0 0 0 0 2 14 12 12 15 19 19 17 15 18 64 114
121 122 123 125 124 124 125 125 125 125 125 125 124 124 125 125
124 124 124 124 123 123 121 110 104 87 103 105 112 81 75 121
82 80 110 123 120 116 118 117 119 121 122 121 121 121 121 121
92 65 81 119 87 38 107 122 121 121 117 120 122 121 121 121
121 122 121 122 122 121 121 121 121 121 121 120 121 120 120 120
120 120 120 120 120 120 119 119 118 107 68 8 0 0 11 13
0 0 0 14 35 34 34 33 33 33 33 33 33 33 33 33
0 0 0 0 3 15 13 11 15 19 19 19 25 71 121 122
115 123 124 125 125 125 124 124 124 124 124 124 124 124 124 124
124 123 124 123 123 123 122 112 106 88 98 105 115 81 39 122
99 75 88 120 122 119 117 118 119 121 121 121 121 121 122 116
81 72 111 122 64 54 118 121 121 120 116 120 121 121 121 121
121 121 121 121 121 121 121 121 121 120 121 120 121 121 120 120
120 120 120 120 120 119 119 119 120 118 105 47 0 0 0 0
0 0 0 15 34 33 33 33 33 32 33 33 33 32 32 32
0 0 0 0 5 17 13 11 15 19 19 32 90 121 122 121
115 122 125 124 125 124 124 124 124 124 124 124 124 124 124 124
124 124 124 124 123 123 122 112 108 100 84 106 112 101 37 110
116 83 77 109 123 122 121 119 119 117 120 121 121 122 122 105
75 95 120 118 40 75 122 121 120 117 118 121 121 121 122 121
121 121 121 121 121 121 121 121 120 120 120 120 120 120 120 120
120 120 120 120 120 120 119 119 120 119 108 79 3 0 0 0
0 0 0 17 33 33 33 32 32 33 32 32 32 32 32 32
4 4 5 5 10 13 12 12 16 18 28 92 122 124 120 123
117 124 125 124 124 124 124 124 124 124 124 124 124 124 124 124
124 123 124 124 124 123 122 115 109 108 79 101 106 118 58 100
123 98 78 96 123 123 122 121 121 119 118 120 121 121 119 92
86 112 122 92 31 98 122 121 119 114 121 121 121 121 121 121
121 121 121 121 121 121 120 121 120 120 120 120 120 120 120 120
120 120 119 120 120 120 119 120 120 119 115 107 35 0 0 0
0 0 0 20 33 33 33 32 32 32 32 32 32 32 32 32
8 9 9 9 10 10 12 12 15 19 46 114 123 120 123 124
119 124 125 124 124 124 124 124 124 124 124 124 124 124 124 123
124 124 124 124 124 123 123 116 109 110 92 83 106 110 89 70
124 116 83 87 116 123 122 122 122 122 122 122 121 122 109 91
110 120 120 54 43 116 121 121 116 118 121 121 122 121 121 121
122 121 121 121 121 121 121 120 120 120 120 121 120 120 120 121
120 120 120 120 120 120 119 120 120 120 118 114 85 3 0 0
0 0 0 18 34 33 33 33 33 32 32 32 32 31 31 31
9 8 9 9 10 11 12 13 16 24 86 121 114 123 125 124
121 125 125 125 125 125 124 124 124 124 124 124 124 124 124 124
124 124 124 124 124 124 124 122 116 111 106 78 103 106 102 63
98 123 101 81 105 123 123 123 123 123 122 122 122 120 104 115
122 121 113 40 70 122 121 121 119 121 122 122 122 122 122 122
121 121 122 121 121 121 121 121 121 121 121 120 121 121 120 120
121 121 120 120 119 120 119 120 120 120 120 115 110 37 0 0
0 0 0 9 32 34 33 33 34 33 33 32 32 32 32 31
9 9 8 8 10 10 11 13 17 49 110 114 119 125 125 125
124 125 125 125 125 125 125 124 125 124 124 125 125 125 125 125
124 125 125 125 125 124 124 124 123 118 112 93 96 106 107 96
62 116 121 99 98 120 123 123 123 122 123 122 122 114 119 106
117 122 107 40 96 123 122 121 122 122 122 122 122 122 122 122
122 122 122 121 121 121 121 121 121 121 121 121 121 121 122 121
121 121 120 121 120 120 120 120 120 120 120 117 116 85 5 0
0 0 0 16 21 34 33 33 33 33 32 32 32 32 33 32
2 1 1 2 4 8 10 13 24 92 109 109 122 126 125 125
125 125 126 125 125 125 126 125 125 125 125 125 125 125 124 125
124 124 125 124 124 125 125 125 124 124 122 110 94 103 108 108
79 71 123 114 106 119 124 123 123 123 123 123 120 116 100 102
121 122 106 52 113 123 122 122 122 122 123 122 123 123 122 122
122 122 121 122 121 121 121 122 121 121 121 121 122 122 122 121
121 121 121 121 120 120 120 120 121 121 121 119 117 109 47 6
0 0 1 28 15 29 33 33 33 33 33 33 32 32 32 32
0 0 0 0 2 10 13 14 48 115 104 114 125 127 127 127
127 126 126 126 126 126 126 125 125 126 126 126 125 126 127 126
125 125 125 125 125 125 125 125 125 124 125 121 103 103 109 111
103 54 81 82 83 118 124 123 124 124 123 118 121 121 123 123
123 123 115 93 122 123 123 123 123 123 123 122 123 122 122 122
122 122 122 122 122 121 121 121 121 122 122 122 122 121 122 122
122 122 121 121 121 121 121 121 121 121 121 120 118 117 94 52
0 0 2 32 26 18 33 34 33 33 32 33 32 32 32 32
0 0 0 0 2 9 14 17 81 118 100 119 125 126 125 126
125 125 125 126 124 126 125 125 125 126 126 125 125 125 125 125
125 125 124 125 125 124 124 125 124 124 125 124 120 104 108 112
113 97 54 105 119 120 123 123 119 109 112 119 121 123 123 123
122 123 119 111 122 122 123 123 123 122 122 122 122 122 121 122
122 122 122 122 122 121 121 121 121 121 121 121 121 121 121 121
122 121 120 119 120 121 120 120 121 121 121 120 117 119 103 55
0 0 4 33 33 17 26 33 33 32 32 33 32 32 32 32
0 0 0 0 3 9 14 25 105 115 102 122 124 122 125 125
126 126 125 125 124 125 126 125 125 125 125 125 126 125 126 126
126 125 124 124 124 124 124 124 124 124 124 124 124 119 111 113
116 118 64 85 114 115 122 122 109 92 114 122 122 123 123 123
123 123 122 121 122 123 122 122 122 122 122 121 122 121 121 121
122 121 121 122 121 121 121 120 121 121 121 121 121 121 121 121
121 121 120 116 121 121 121 120 120 120 121 120 118 119 112 86
10 0 5 32 33 23 7 18 32 32 31 31 32 31 31 31
2 3 2 2 5 10 16 54 117 113 104 124 123 124 125 125
125 125 125 125 124 125 125 125 125 125 124 125 124 125 125 125
124 124 124 124 123 124 124 124 124 124 125 124 124 124 123 117
117 120 102 82 103 111 123 123 116 121 123 123 123 123 123 123
123 123 122 121 119 122 122 122 122 122 122 122 122 122 121 121
121 122 121 122 121 120 121 120 121 121 121 122 122 122 121 121
121 121 115 114 120 121 121 120 120 121 121 121 119 118 120 98
46 0 4 25 22 4 5 3 31 32 32 32 31 32 31 31
6 6 5 7 9 12 23 82 121 109 105 121 125 125 125 125
126 125 126 125 123 124 125 125 124 124 125 124 125 125 125 124
125 124 124 124 123 124 124 124 125 124 124 124 124 124 124 124
119 122 121 108 91 102 118 122 89 115 123 123 122 123 123 123
123 123 123 123 121 122 122 122 122 122 122 121 121 122 122 121
121 121 122 122 122 121 121 121 121 121 121 121 121 120 121 121
120 120 100 116 121 121 121 121 119 121 120 120 119 117 120 108
81 7 0 5 12 17 27 3 29 32 31 31 31 31 30 30
7 7 7 7 8 8 46 94 122 106 106 122 126 125 126 126
125 125 125 125 124 124 125 125 124 125 125 125 124 124 124 124
124 124 124 124 124 124 124 124 124 124 124 124 124 124 124 124
121 121 121 123 104 97 105 118 80 102 123 123 123 123 123 123
123 122 122 122 121 122 122 122 122 122 122 122 122 121 122 122
122 122 122 121 122 121 121 121 121 121 120 121 122 121 121 121
121 120 84 120 121 120 120 121 119 121 120 120 120 117 120 115
94 38 0 1 4 11 20 2 23 31 31 30 31 30 30 30
0 1 1 1 3 10 76 101 121 105 105 123 125 125 125 125
125 125 123 125 124 124 125 125 124 124 124 124 125 124 125 124
125 124 124 124 124 124 124 124 123 123 123 124 123 124 124 124
123 120 119 123 123 103 94 107 112 93 123 123 123 123 123 122
123 122 123 122 121 119 122 122 121 121 122 122 122 121 121 121
121 121 121 122 121 121 121 121 121 121 121 121 121 121 121 121
121 119 86 121 121 121 121 120 119 120 120 119 119 115 120 119
100 75 4 0 0 0 0 0 5 21 30 30 30 29 29 29
