P2
128 120
125
25 25 25 24 24 24 24 23 23 23 23 22 22 21 21 20
20 19 18 18 18 18 17 17 17 17 16 16 16 15 15 15
14 13 13 12 13 12 12 11 11 10 9 8 6 6 7 9
11 11 12 9 5 12 16 14 12 12 11 12 10 9 7 5
4 4 3 6 9 7 8 6 8 10 10 11 12 12 12 12
13 13 13 13 13 14 14 14 15 15 16 16 17 18 17 17
17 18 18 18 19 19 20 20 20 21 21 22 22 22 23 23
23 24 24 25 24 24 24 24 24 24 24 24 25 25 24 25
25 25 25 24 24 23 23 23 22 22 22 21 21 20 20 20
19 19 19 19 18 18 17 17 16 16 16 16 15 14 14 14
14 14 14 13 13 12 12 11 11 10 9 8 7 6 8 11
12 13 14 9 4 12 16 14 13 13 12 11 9 9 8 6
5 4 3 6 9 8 7 8 9 11 11 11 12 12 12 13
12 13 13 14 14 15 15 15 16 16 16 16 17 17 16 17
17 18 20 19 19 19 20 21 21 22 21 22 22 22 23 23
23 23 23 24 23 24 24 24 24 24 24 24 24 24 24 24
25 24 25 24 24 23 23 23 23 23 22 21 22 21 21 20
19 19 19 18 18 18 18 17 17 17 17 16 16 15 15 15
14 14 13 13 13 12 12 12 11 11 10 9 8 8 9 13
14 14 15 9 2 10 16 14 13 13 12 12 11 10 9 8
9 7 4 5 9 8 8 9 10 11 12 12 13 13 13 14
14 14 14 15 14 15 15 15 16 16 16 17 16 18 18 19
19 20 20 19 20 20 21 21 21 21 22 22 22 22 23 23
24 24 24 24 23 23 24 24 24 24 23 24 24 25 25 25
25 25 25 25 24 24 23 23 23 22 22 21 21 21 21 20
20 19 19 19 18 18 18 17 17 16 16 16 16 15 15 15
14 14 14 14 14 13 12 13 12 11 11 9 9 9 9 13
14 15 15 10 4 10 18 15 14 14 12 12 12 10 9 9
10 9 5 4 9 8 10 11 12 13 13 13 14 14 14 14
14 14 15 15 15 16 16 17 17 17 17 18 18 19 19 19
19 19 21 20 21 21 21 21 22 22 22 22 23 22 23 23
23 22 23 24 23 23 24 24 24 24 25 24 24 24 24 24
25 24 24 24 23 23 23 23 22 22 22 22 22 21 21 21
20 19 19 19 19 18 18 17 17 17 17 17 17 16 15 15
15 14 14 14 13 13 13 12 12 12 11 11 10 10 11 14
16 16 15 11 5 9 17 14 14 14 13 12 12 11 10 10
11 10 7 4 10 8 10 11 13 13 13 13 14 14 15 15
16 16 16 15 16 16 16 17 17 17 18 18 19 19 19 19
20 20 21 20 21 21 22 21 22 22 22 22 22 23 23 23
24 23 23 24 23 24 24 24 24 23 24 23 23 24 25 25
25 24 25 24 24 24 23 23 23 22 22 21 21 20 21 21
20 20 19 19 19 18 18 18 17 17 17 16 16 15 15 15
15 14 14 14 14 13 13 13 13 12 12 12 12 12 12 16
15 16 16 11 5 9 17 16 15 14 14 14 13 12 10 11
11 10 8 4 10 10 11 13 14 13 14 14 15 15 15 15
15 15 16 16 17 17 17 18 18 18 18 18 19 19 19 19
20 20 22 20 21 21 21 22 22 22 23 22 22 22 23 23
23 23 23 24 23 24 24 23 23 23 24 25 25 24 25 24
25 24 24 24 24 23 23 23 23 22 22 21 22 22 21 20
20 21 19 19 19 18 18 18 17 17 17 17 17 16 16 15
15 15 14 14 14 13 13 12 12 12 13 12 13 13 13 16
17 17 16 12 6 8 17 16 15 15 15 14 14 12 12 12
12 11 10 6 11 10 12 14 14 14 15 14 14 15 15 16
17 17 17 17 17 18 18 18 18 18 19 19 19 19 20 20
20 21 22 21 21 21 22 23 23 23 22 22 23 23 24 23
24 23 23 23 22 23 24 24 24 24 25 24 25 24 25 25
25 25 25 24 24 24 24 23 23 22 22 22 21 21 21 20
20 19 19 19 19 18 19 18 18 17 17 17 16 16 16 15
15 14 15 15 14 14 14 14 13 13 13 12 13 13 13 16
17 17 17 12 7 8 18 17 15 15 15 14 14 14 13 12
12 11 10 6 11 11 14 15 15 15 14 15 16 16 16 16
17 17 17 17 18 17 18 18 18 18 19 19 19 19 20 20
20 21 21 21 21 22 22 22 23 23 22 23 23 24 23 22
22 22 23 23 24 24 23 24 24 24 24 25 25 24 24 25
25 25 25 24 24 24 23 22 22 22 22 22 22 21 21 21
21 21 21 19 19 19 18 18 18 17 17 17 17 17 17 16
15 16 15 15 14 15 14 14 14 13 13 13 13 14 14 17
18 18 18 13 9 7 18 17 16 16 15 15 15 14 15 13
12 13 11 8 12 11 14 15 15 15 16 16 16 17 17 17
18 18 19 18 19 18 18 18 18 19 19 20 20 20 20 21
22 21 23 23 22 22 23 22 23 23 22 20 22 22 23 24
24 24 24 24 24 24 25 24 24 24 24 24 24 24 25 25
24 25 25 24 24 24 23 23 22 22 22 22 22 21 21 20
21 20 20 20 19 19 19 18 18 18 18 17 17 16 17 16
16 16 15 15 15 15 15 14 14 13 13 13 13 14 15 18
18 18 18 13 10 8 18 18 16 16 16 16 15 14 14 13
13 12 12 9 13 12 15 16 16 16 17 17 17 17 17 18
18 18 19 18 18 19 18 19 19 20 19 20 20 21 21 21
21 21 23 22 22 22 22 22 22 22 23 23 23 23 23 23
24 23 24 23 24 24 25 24 24 24 25 25 24 24 25 25
25 25 24 24 24 23 23 22 22 23 22 22 22 22 21 21
21 21 20 20 19 19 18 18 18 18 18 17 17 17 17 17
17 17 16 16 16 15 14 14 14 14 13 13 14 15 15 19
19 20 19 14 10 9 18 18 16 15 17 15 15 15 15 14
14 13 13 11 14 14 16 17 16 17 17 17 18 17 18 18
18 19 19 19 19 19 19 19 20 20 20 20 20 20 22 22
21 22 22 22 21 21 22 22 23 23 23 24 23 23 24 24
25 24 24 25 25 25 25 24 24 24 24 24 24 25 24 24
25 25 25 25 24 24 24 24 23 23 23 22 22 22 22 21
21 21 20 20 20 19 19 19 18 18 18 18 18 17 17 17
17 16 16 16 15 16 15 15 14 15 15 14 15 15 16 18
19 20 19 15 12 5 14 18 16 16 17 17 17 16 16 15
14 14 13 11 15 15 17 17 18 18 18 18 18 18 19 18
19 19 19 19 19 20 20 20 20 21 20 21 21 22 22 21
21 21 21 22 23 23 23 23 23 24 24 25 24 25 25 24
24 25 25 25 24 25 24 24 25 25 25 25 25 25 25 25
26 25 25 24 24 24 23 23 23 23 23 22 23 22 22 22
22 21 21 20 20 19 19 18 19 18 19 18 18 18 17 18
17 17 17 16 16 16 15 15 14 14 15 14 15 16 17 19
20 20 20 15 10 3 13 19 18 17 18 17 17 16 16 14
14 15 14 13 16 16 18 18 18 18 18 18 19 19 20 19
19 20 20 20 20 21 20 20 21 21 21 21 21 21 21 21
22 22 23 23 23 23 23 23 24 24 24 25 25 24 24 24
25 24 25 25 25 25 25 25 25 25 24 24 25 25 24 24
25 25 25 25 25 24 24 24 24 23 23 23 22 23 22 22
21 20 21 21 21 20 20 20 19 19 19 19 18 18 18 17
17 17 17 16 16 16 16 16 16 15 15 15 16 16 17 20
20 20 21 16 11 9 15 20 19 19 18 18 17 17 17 16
16 16 15 13 16 16 19 18 18 18 19 19 19 19 19 20
20 20 20 20 20 21 21 21 21 21 21 21 21 22 22 22
23 23 23 23 23 24 24 24 24 25 25 25 25 25 25 25
25 25 25 25 25 25 25 25 25 25 25 25 25 25 25 25
25 25 25 24 24 24 24 24 24 23 24 23 22 22 22 22
22 22 21 21 20 20 20 20 19 19 19 19 19 18 18 18
18 18 17 17 17 16 16 16 15 15 15 15 16 16 17 21
21 22 21 16 12 13 14 21 19 18 19 17 17 17 18 16
16 16 16 14 18 17 19 19 19 19 19 19 19 19 19 19
20 20 21 21 21 20 21 21 22 22 22 22 22 22 23 23
23 23 24 24 24 24 25 24 24 25 25 25 25 24 25 24
25 25 25 25 25 25 25 25 25 25 25 25 25 25 25 25
25 24 24 24 25 24 24 24 24 24 23 22 22 22 22 22
21 21 21 21 20 20 20 21 19 20 19 20 18 18 19 18
18 17 17 17 17 17 16 16 16 16 16 16 17 17 18 20
20 20 20 16 12 13 14 20 19 19 19 19 18 17 18 17
17 17 16 13 17 17 19 19 20 19 19 20 20 20 21 20
20 20 20 21 20 20 21 22 21 22 23 22 23 23 22 23
22 23 23 23 24 24 24 24 25 25 25 25 25 25 25 25
25 25 24 25 24 24 24 25 25 25 26 25 26 25 25 25
25 25 25 25 24 24 24 24 24 23 23 23 23 23 22 22
22 22 22 21 21 21 21 20 20 20 19 19 19 19 19 19
18 18 18 17 17 17 17 17 16 16 17 16 16 17 18 21
21 21 21 17 13 16 14 20 20 20 19 19 18 18 18 17
17 17 17 14 18 18 20 19 19 20 20 20 20 20 20 21
20 20 21 21 22 22 22 22 22 23 23 23 22 22 24 24
23 24 24 24 25 24 25 25 25 26 25 25 26 25 25 25
25 25 26 25 26 25 26 26 26 26 25 25 25 25 24 25
25 25 25 24 24 24 24 24 24 24 24 23 24 23 22 22
22 22 22 21 21 21 21 20 20 20 20 19 19 19 19 18
18 18 18 17 17 17 18 17 17 17 17 17 16 18 19 22
22 22 22 17 13 16 13 20 20 21 20 20 19 19 19 18
18 17 18 14 18 17 20 20 20 20 20 20 20 20 21 21
21 21 21 22 22 22 22 22 23 23 24 23 23 23 24 24
24 24 24 24 24 25 25 25 25 25 25 26 26 25 25 25
25 25 26 25 25 25 25 25 25 25 26 25 26 26 25 25
25 25 25 25 25 24 24 23 24 24 23 23 23 22 23 23
22 22 22 22 21 21 21 21 20 20 20 20 20 19 19 19
18 18 19 18 18 18 17 17 17 16 16 16 16 17 18 22
22 22 22 17 13 17 13 21 21 20 20 20 19 18 19 18
18 18 18 15 18 17 20 20 20 20 20 21 21 21 21 21
21 22 22 21 22 22 23 23 23 23 23 23 23 24 24 24
24 25 25 25 25 25 25 25 26 25 25 26 25 25 25 25
25 25 25 25 25 25 25 25 25 25 26 25 25 26 25 25
25 24 24 24 24 24 24 24 24 23 24 24 23 23 23 23
22 22 22 21 21 21 21 21 20 20 20 20 20 19 20 20
19 19 18 18 18 18 17 17 17 17 17 17 17 17 18 21
22 22 22 18 13 18 14 20 21 20 20 20 20 19 20 19
18 18 18 15 18 16 20 20 20 22 21 22 21 21 22 21
21 21 22 22 23 22 22 22 23 23 23 23 24 24 24 24
25 25 24 25 25 25 25 25 25 25 25 25 26 25 24 25
24 25 26 25 25 24 25 25 24 25 25 25 25 25 25 25
25 25 25 25 24 24 24 24 24 23 23 23 23 23 23 23
22 23 22 22 22 22 21 21 21 20 20 20 19 19 19 20
19 19 19 19 18 18 18 17 18 17 17 17 17 17 19 22
22 23 22 19 14 18 15 20 22 21 20 20 19 19 21 19
18 18 18 16 19 19 21 21 21 21 21 22 21 21 22 21
22 22 22 22 23 22 22 23 24 23 23 24 24 23 25 24
24 24 24 25 25 25 25 25 25 24 24 24 23 24 25 25
25 26 25 26 27 25 25 25 25 25 25 25 25 25 24 24
23 25 24 23 24 23 24 23 23 24 23 23 23 23 23 22
22 22 22 22 21 21 21 21 21 21 21 20 20 20 20 20
19 18 18 18 18 17 17 18 17 17 17 17 17 18 19 22
23 23 23 19 13 18 16 19 21 21 21 20 20 20 21 19
18 18 18 16 19 19 21 21 21 21 22 22 22 22 22 22
22 22 22 22 22 22 23 23 24 23 24 24 24 24 25 25
25 24 25 25 25 24 24 24 24 25 25 25 26 25 26 26
26 26 26 26 27 26 25 25 25 25 25 25 25 25 25 25
24 24 24 24 23 24 24 23 23 23 23 23 23 23 22 23
23 23 22 22 22 22 22 21 21 21 21 20 20 20 20 19
20 20 19 19 19 19 19 18 17 17 17 17 17 18 19 22
23 22 23 19 14 19 17 18 21 21 21 20 19 19 20 19
19 19 18 16 20 19 21 21 21 22 21 22 22 22 22 21
22 22 22 23 23 23 24 23 24 24 24 25 24 25 25 24
24 24 25 25 25 25 25 26 26 25 25 25 26 25 26 26
26 25 25 26 26 25 25 25 25 25 25 25 25 25 25 25
24 24 24 24 24 24 23 24 24 24 24 24 23 23 23 23
22 22 22 22 22 21 21 21 21 22 21 21 21 21 20 20
20 19 20 19 19 18 18 18 18 17 18 18 19 19 20 23
23 23 23 20 14 18 19 18 21 21 21 21 21 20 21 19
19 19 19 17 19 19 22 22 22 22 22 23 23 22 23 22
22 23 22 22 23 23 23 24 24 24 24 25 24 25 24 24
25 25 25 26 25 26 26 26 26 26 26 26 26 26 26 26
26 26 26 26 27 26 25 25 24 24 25 24 25 25 25 25
24 25 25 25 24 25 25 25 24 24 23 24 23 23 23 23
23 23 23 23 22 22 22 22 21 22 21 21 21 21 20 20
20 21 20 20 19 20 20 19 18 18 18 18 19 19 20 23
25 24 24 20 15 19 20 17 22 22 22 22 21 20 20 20
20 19 19 17 20 20 22 22 23 22 23 23 23 23 23 22
23 23 23 24 24 25 24 25 25 25 25 24 24 25 25 25
25 25 26 27 26 27 27 27 27 27 27 27 27 27 26 27
26 26 26 26 27 26 25 25 26 26 26 26 25 26 25 25
25 25 25 25 25 25 24 25 25 25 25 24 25 24 24 23
24 24 23 23 23 23 23 23 22 22 22 22 22 22 21 21
21 21 20 20 20 19 20 19 19 20 19 19 20 21 22 24
25 25 25 21 16 20 23 21 22 23 22 24 23 23 21 22
21 20 20 18 20 20 22 23 24 23 24 24 24 24 24 24
25 25 25 25 25 25 25 25 25 25 26 26 25 26 26 26
26 27 27 27 27 27 27 27 27 27 27 28 27 27 27 27
27 27 27 26 27 27 26 26 26 26 26 26 26 26 27 26
26 26 26 26 25 25 26 25 25 25 25 24 25 24 25 25
25 25 24 25 24 24 24 23 24 23 23 23 23 22 22 21
21 21 21 21 21 21 21 21 20 20 20 20 20 21 22 25
26 26 25 22 18 22 21 16 16 17 16 15 15 12 10 14
19 21 22 19 21 21 24 24 25 25 24 25 25 24 25 25
25 25 24 26 26 26 26 26 27 26 27 27 26 27 27 27
27 27 28 29 29 28 28 28 29 29 29 28 28 28 28 28
28 27 27 26 27 28 27 27 27 27 27 28 27 28 27 27
26 26 26 26 26 25 26 26 26 25 25 25 26 26 25 26
25 26 25 25 24 24 25 24 24 24 24 24 24 23 23 23
23 23 21 22 22 21 21 21 21 20 21 21 21 22 23 26
26 26 26 20 16 14 20 23 20 14 10 2 0 0 0 1
8 19 23 20 22 22 24 25 25 25 25 25 25 25 25 25
25 25 26 26 26 26 27 27 27 26 27 27 28 28 28 28
28 29 29 29 29 28 29 29 29 28 28 28 28 28 28 28
28 28 29 28 27 28 27 28 27 27 28 27 27 27 26 26
27 26 26 26 26 26 26 25 26 26 25 26 25 25 25 26
25 25 25 25 25 24 24 25 25 24 24 24 23 23 23 23
23 23 22 23 23 22 21 22 21 21 21 21 22 21 22 26
26 27 18 14 12 20 12 5 0 0 1 0 0 0 0 0
1 12 21 21 22 22 24 26 26 25 25 25 25 25 26 25
26 26 26 27 26 26 27 27 27 27 27 27 28 28 28 28
29 28 28 29 29 29 30 29 29 29 29 29 28 28 28 28
28 28 28 28 28 29 28 28 28 28 27 27 26 27 27 26
27 26 26 26 26 26 26 26 26 26 26 26 26 26 26 26
26 25 25 25 25 24 24 24 24 24 25 24 24 23 23 23
23 23 22 23 22 21 22 22 21 21 21 21 22 22 23 27
27 17 7 7 12 12 14 28 44 58 66 65 58 44 30 19
6 5 18 20 22 22 24 25 25 25 26 25 26 26 27 26
27 27 26 28 27 27 27 27 26 27 27 28 28 28 29 28
29 29 29 30 29 29 29 29 29 29 28 28 28 28 29 28
28 28 28 29 28 27 26 26 27 26 26 26 27 27 28 27
27 27 26 26 26 26 26 26 26 26 26 26 25 25 25 25
26 25 25 25 25 25 25 24 24 25 24 24 24 24 23 23
23 22 23 22 22 22 22 22 22 21 22 21 22 22 23 25
17 3 8 21 40 61 75 84 92 96 95 93 90 85 78 72
66 46 23 20 21 22 25 25 25 25 26 25 25 26 26 26
26 26 26 27 27 27 27 26 27 27 28 28 28 28 27 28
29 29 28 28 29 28 29 28 29 28 29 28 28 28 28 28
27 26 26 27 27 26 27 27 27 27 27 25 27 26 27 26
22 23 26 25 26 26 26 25 26 26 26 26 26 25 26 25
26 25 25 25 25 24 25 24 24 24 24 24 24 24 24 23
24 23 23 23 22 21 22 21 21 21 21 21 22 22 22 18
3 14 31 65 88 93 93 93 94 95 93 90 87 86 88 89
86 83 70 35 22 24 25 26 25 25 25 26 26 25 25 26
26 26 27 27 27 26 27 27 27 27 28 28 28 27 28 28
29 29 29 29 29 29 28 28 28 28 28 28 27 26 25 26
26 27 28 28 27 27 27 27 27 27 26 26 26 26 27 26
5 13 26 26 26 26 26 26 26 26 26 26 26 25 25 26
26 26 25 25 25 24 25 25 25 24 24 24 24 24 24 23
24 23 23 23 23 23 22 22 22 22 22 22 21 22 20 4
4 19 64 84 91 86 90 95 94 93 91 83 71 62 71 63
76 81 75 62 33 23 25 26 26 26 26 26 26 26 26 26
26 26 27 27 27 27 27 27 28 27 28 28 28 29 29 28
28 29 28 29 29 28 28 28 28 28 28 27 28 28 28 28
28 28 28 27 27 27 27 26 27 26 27 27 27 27 27 26
4 12 25 26 26 26 26 26 26 26 26 26 26 26 26 26
26 25 26 25 25 25 25 24 24 24 24 24 25 24 25 24
23 23 23 23 23 22 22 22 21 22 22 22 23 23 14 1
8 50 66 66 61 35 30 54 70 74 71 70 61 37 53 47
44 40 64 63 35 30 33 28 26 25 26 26 26 26 26 26
27 27 27 27 28 27 27 28 28 27 27 28 28 28 29 28
28 29 28 28 28 28 27 28 28 28 27 28 28 28 27 28
28 28 28 28 28 27 27 26 26 26 27 26 26 26 26 26
6 11 25 26 26 26 26 26 25 25 26 27 27 26 26 25
25 25 25 26 25 25 25 25 25 25 25 25 27 29 27 25
24 23 23 22 22 23 22 22 23 22 22 23 23 24 27 38
34 46 53 34 44 53 31 60 96 103 105 101 89 53 59 29
19 15 14 41 49 25 27 39 63 37 26 26 26 26 26 26
26 26 27 27 27 27 28 28 28 27 28 29 28 29 29 28
28 28 27 27 28 27 28 28 28 28 28 28 28 28 28 28
27 27 27 27 27 27 27 27 27 27 26 26 26 26 26 27
7 12 25 26 26 26 26 26 27 33 33 31 30 28 27 26
25 25 25 26 25 25 25 25 25 25 24 25 34 36 34 30
29 27 25 23 23 23 23 22 22 23 22 26 53 60 57 25
23 38 10 18 35 53 66 53 75 72 70 67 55 79 74 71
66 53 38 21 22 43 27 41 72 84 33 25 26 26 27 26
27 27 27 28 29 28 28 28 28 28 28 28 28 28 28 28
28 28 28 28 28 28 28 28 28 28 28 27 28 28 27 28
28 27 27 27 26 28 27 26 26 26 26 27 26 26 26 26
7 14 26 27 27 27 26 26 28 36 36 35 33 31 30 30
28 27 27 26 26 26 25 25 25 25 25 26 35 36 33 31
31 32 29 25 23 23 23 23 23 23 24 76 61 30 14 12
30 17 46 68 82 84 82 70 66 56 57 60 73 96 104 107
107 105 97 87 50 26 69 73 84 64 34 30 26 27 27 27
27 27 27 27 27 26 26 27 27 27 28 28 28 27 27 28
28 28 28 28 28 27 27 28 28 28 28 27 28 28 28 28
27 27 26 27 26 26 26 26 26 26 26 27 26 26 26 27
8 16 29 28 28 27 27 27 28 36 36 35 33 32 33 34
36 32 31 30 29 27 25 25 25 25 25 26 32 32 32 31
32 32 31 26 23 24 24 24 23 25 32 53 33 30 63 52
37 71 99 104 103 94 85 58 83 97 99 88 84 98 104 109
110 108 100 95 96 72 31 30 25 27 31 30 26 26 27 27
27 27 27 27 27 28 27 27 27 27 28 28 29 28 28 28
28 29 28 29 28 28 28 28 28 28 27 27 28 28 27 27
28 28 27 27 27 27 27 27 26 26 26 27 26 26 26 26
7 17 31 30 28 29 29 29 29 30 26 31 32 34 35 37
37 32 27 30 33 31 30 29 28 28 26 26 26 16 17 20
24 27 30 27 24 24 24 24 24 71 53 31 36 48 68 78
80 84 82 90 100 89 84 69 98 113 111 99 62 66 95 106
108 105 92 46 65 90 70 26 18 26 27 28 27 27 27 27
27 27 27 27 27 27 27 28 27 28 28 28 29 28 28 28
29 28 29 28 27 28 28 27 27 27 28 27 28 29 28 27
28 27 27 27 27 27 27 26 27 27 27 26 27 27 27 27
8 17 31 30 25 26 29 32 34 18 1 5 17 25 29 32
35 29 5 5 11 17 24 26 29 32 30 27 24 10 6 7
7 6 10 26 24 24 24 24 24 42 59 35 52 60 70 96
65 41 36 64 92 102 81 93 101 114 114 100 92 47 77 94
108 103 57 47 40 56 82 56 16 17 28 42 27 27 27 27
27 27 28 27 28 28 28 27 28 28 28 28 29 28 29 29
29 29 29 29 29 29 28 28 28 28 28 27 28 28 27 27
27 27 27 27 27 27 27 27 27 27 27 27 27 27 27 26
8 16 29 31 29 27 28 35 38 19 0 0 2 8 11 12
19 27 1 0 0 0 1 4 8 15 20 27 24 7 0 3
4 1 1 25 25 24 24 24 25 40 70 35 38 66 81 74
45 46 48 67 75 87 98 99 76 112 110 68 107 96 71 89
94 54 28 31 56 48 59 77 36 11 18 60 26 27 28 28
27 27 27 27 28 28 28 28 28 28 28 28 30 29 29 29
29 29 29 29 28 28 28 28 28 28 28 28 28 28 28 28
28 27 28 27 27 27 27 27 27 26 27 27 27 27 26 25
9 7 6 12 19 26 31 35 37 20 0 0 0 4 6 7
14 28 2 0 0 0 0 0 0 0 0 19 25 5 0 0
1 0 1 26 26 25 24 24 25 45 68 13 15 57 92 43
43 48 59 78 70 82 103 34 10 99 101 7 46 109 100 95
51 64 85 94 85 61 46 81 60 23 15 57 11 25 28 28
28 28 27 28 28 28 28 28 29 28 28 29 30 29 29 29
29 28 29 29 29 29 29 28 28 28 28 27 28 29 28 28
28 27 27 27 28 28 28 29 28 28 28 27 26 26 27 26
8 3 0 0 0 1 6 12 20 19 0 0 0 0 0 1
10 27 3 0 0 0 0 0 0 0 0 18 23 2 0 0
0 0 1 26 25 25 25 25 24 42 82 9 35 83 70 44
79 90 72 69 91 103 74 18 38 107 109 31 12 74 107 68
92 72 86 89 93 86 63 80 76 33 19 47 9 11 27 29
28 27 27 27 28 27 28 28 29 29 29 28 30 29 29 30
29 29 29 29 29 28 28 28 28 28 28 28 28 29 28 28
28 28 28 28 27 27 27 27 27 27 27 27 27 27 27 26
7 3 0 0 0 0 0 0 0 12 0 0 0 0 0 0
8 25 1 0 0 0 0 0 0 0 0 17 20 0 0 0
0 0 2 28 26 24 25 24 25 33 81 39 48 86 69 66
86 93 80 78 65 108 86 44 84 104 103 77 43 76 107 74
76 76 62 60 62 73 77 61 55 41 22 28 13 1 21 28
27 28 27 28 28 28 28 28 28 28 29 29 29 28 29 29
29 29 29 29 29 29 29 29 28 28 28 28 28 28 27 29
28 28 28 27 27 27 27 28 28 28 27 27 27 27 26 25
8 3 0 0 0 0 0 0 0 9 0 0 0 0 0 0
10 28 2 0 0 0 3 5 0 0 0 16 21 0 0 0
0 0 1 27 26 24 25 25 25 29 48 65 94 88 77 81
93 63 69 70 66 95 88 70 81 90 91 80 72 86 95 76
111 110 99 84 73 67 62 57 86 65 24 8 11 2 10 28
28 28 28 28 28 28 28 28 28 28 29 29 29 29 30 29
30 29 29 30 29 29 29 29 28 28 28 28 28 29 28 29
29 29 28 28 27 27 28 27 28 28 27 27 28 27 27 27
8 3 0 0 0 0 0 0 0 7 0 0 0 0 0 0
10 29 2 0 0 0 4 9 6 2 0 14 20 0 0 0
0 0 0 26 27 25 25 25 25 23 12 4 57 72 56 69
84 93 98 100 71 60 63 81 90 89 92 90 84 72 64 81
106 113 111 108 103 93 84 70 65 72 34 6 9 4 2 25
28 28 28 28 28 28 28 29 29 29 29 29 30 28 28 29
29 29 29 29 29 28 29 29 29 29 29 29 29 29 28 28
28 28 28 27 26 27 28 28 28 28 28 28 28 28 28 28
7 3 0 0 0 3 1 0 0 6 0 0 0 0 0 0
8 31 3 0 0 0 6 9 9 8 1 13 21 0 0 0
0 0 0 25 27 25 25 25 24 13 7 7 62 64 76 91
96 103 107 91 62 63 90 100 99 98 101 102 100 99 82 69
84 107 113 112 111 106 94 79 65 63 45 5 8 5 0 21
28 28 28 28 29 28 28 29 29 29 30 29 29 28 28 29
29 29 29 29 29 29 29 28 28 28 28 28 29 28 29 28
28 28 28 27 28 27 28 28 28 28 28 28 28 27 27 25
7 3 0 2 0 0 0 0 0 6 0 0 0 0 0 0
9 32 4 0 0 0 4 9 8 8 1 11 24 1 0 0
0 0 0 23 28 26 26 25 22 3 6 12 54 71 89 99
104 109 95 66 69 89 100 102 102 96 99 104 107 105 102 87
76 83 110 114 114 111 105 93 78 59 51 9 8 3 2 13
28 28 28 28 28 29 29 29 29 29 29 28 29 29 28 28
29 28 29 30 31 30 30 29 30 29 29 29 28 28 28 28
28 28 27 27 28 27 28 28 27 27 26 28 28 25 23 22
8 3 1 1 0 0 0 0 0 7 0 0 0 0 0 1
15 33 7 0 0 0 0 2 6 7 0 10 31 23 15 10
6 4 4 25 28 25 25 25 19 1 5 23 61 84 98 105
109 98 69 74 90 98 98 88 87 83 82 85 87 92 104 102
95 79 86 112 115 113 109 98 87 67 50 13 9 3 7 12
29 29 29 29 29 29 29 29 29 29 29 29 29 29 30 29
30 31 30 30 31 30 29 30 30 28 29 29 29 29 28 28
28 28 27 26 26 28 28 26 25 24 22 21 18 15 13 11
8 3 0 0 0 0 0 0 0 17 11 6 3 3 0 0
10 38 27 20 16 12 6 2 1 3 0 9 33 35 32 31
30 32 33 36 29 26 26 26 15 0 4 41 72 90 103 109
103 78 77 94 97 91 75 100 112 114 114 111 103 81 84 102
103 99 85 100 113 114 112 103 93 76 56 20 5 4 8 11
28 28 28 29 28 29 29 29 30 29 30 29 29 29 29 30
29 30 30 30 31 30 29 29 29 28 28 28 27 27 26 25
26 26 24 24 22 21 19 16 14 12 10 10 9 10 10 11
8 3 0 0 0 0 0 0 0 25 37 30 27 26 23 16
19 41 25 19 21 23 23 21 19 18 16 23 36 34 34 33
35 39 41 40 29 25 26 25 9 0 10 56 76 92 105 109
95 81 94 98 86 75 105 116 115 110 112 113 115 112 93 82
98 112 102 97 111 114 113 107 94 80 61 31 4 3 5 11
27 29 29 29 30 29 29 29 29 29 29 29 29 30 30 30
30 30 30 31 30 29 28 27 27 26 26 26 26 25 24 21
19 17 15 13 13 12 12 12 12 12 13 13 15 15 15 16
8 4 0 0 0 0 0 0 0 28 40 32 36 38 41 40
37 38 17 8 10 11 12 12 14 16 20 24 25 23 26 29
32 35 37 37 29 26 26 24 9 0 17 60 78 93 102 105
94 92 103 91 67 97 114 116 115 110 112 113 115 115 111 91
79 106 111 105 108 113 112 107 97 85 66 42 4 5 1 6
21 29 28 28 30 29 29 29 30 29 30 30 30 29 30 29
30 29 29 29 29 28 27 28 29 23 20 18 17 15 13 13
13 13 13 14 14 15 16 17 18 18 18 19 17 14 19 20
9 12 13 9 4 1 0 0 0 27 34 31 38 40 43 43
36 30 17 9 10 10 8 8 7 7 6 6 7 8 11 14
23 27 25 24 26 26 26 25 12 0 26 62 76 95 103 100
96 105 105 80 84 107 115 116 115 107 104 111 115 115 113 106
91 94 109 107 111 111 110 106 98 86 69 50 9 3 0 4
18 29 28 28 30 29 29 29 29 29 30 30 30 30 30 29
29 28 26 24 23 20 17 19 29 20 12 13 14 15 16 16
17 18 18 19 20 20 21 21 21 22 22 22 22 19 15 20
9 17 33 35 33 28 23 18 15 31 27 30 37 38 42 43
38 31 19 10 10 9 8 6 6 6 6 5 6 6 6 7
20 22 22 24 24 26 26 25 15 0 33 63 78 93 100 103
100 105 95 86 95 108 114 110 94 85 86 91 104 112 113 107
100 97 104 109 111 107 106 105 96 87 68 53 19 1 0 1
9 28 28 28 29 29 29 29 30 29 29 28 28 25 23 20
18 17 16 15 16 16 16 16 24 18 14 18 20 20 20 21
22 22 22 22 23 23 22 23 24 24 24 22 24 24 22 16
9 17 34 38 38 36 37 37 38 37 16 16 24 29 34 37
35 32 22 11 10 7 4 4 4 6 7 6 8 7 8 10
22 14 9 25 27 26 25 21 13 0 35 63 79 90 96 101
104 99 91 93 98 101 97 87 89 98 97 93 90 91 103 106
104 99 99 110 112 108 103 102 94 87 69 53 28 0 0 0
8 28 28 29 29 28 27 25 24 22 20 18 17 16 17 17
18 18 19 19 20 21 20 20 25 21 18 21 23 23 24 25
25 25 25 25 25 25 25 25 25 25 25 23 24 25 26 22
8 16 34 38 38 38 38 39 40 35 5 0 1 3 6 13
16 25 24 10 8 4 0 0 0 2 8 9 7 6 10 12
23 28 26 30 32 31 27 9 7 0 41 64 78 87 93 98
101 93 91 92 91 84 81 94 105 108 109 107 101 89 85 95
99 97 94 99 107 106 101 98 93 87 69 53 35 0 0 0
5 25 24 22 21 20 18 18 18 18 19 20 20 21 21 22
23 23 24 24 24 25 24 23 26 22 20 25 26 26 26 26
27 26 27 26 27 26 27 26 26 25 25 26 24 26 27 27
14 17 27 30 30 32 33 35 38 32 2 0 0 0 0 1
8 25 25 9 8 4 0 0 0 0 1 2 0 0 3 4
21 33 28 26 27 27 30 26 20 3 44 65 77 84 90 95
89 82 83 81 75 72 89 103 110 113 115 112 104 97 81 80
84 90 90 95 106 106 99 98 91 87 69 53 39 0 0 0
2 16 18 18 20 19 21 21 22 23 23 24 24 24 25 25
26 27 27 27 27 28 27 22 12 9 19 26 27 27 27 28
27 27 27 27 28 27 27 27 26 27 25 25 25 25 27 27
15 16 17 19 22 26 25 27 35 30 1 0 0 0 0 0
0 25 25 8 6 2 0 0 0 0 0 0 0 0 0 0
18 33 26 20 19 21 23 26 26 6 45 66 78 84 89 93
82 77 70 66 68 78 98 107 111 115 116 115 112 105 92 81
77 80 80 87 100 104 98 96 93 86 69 52 39 0 0 0
1 18 22 23 24 25 25 26 26 26 28 28 28 27 28 28
28 28 29 29 29 28 27 19 3 1 15 27 29 29 29 29
27 28 27 27 28 27 28 27 28 27 27 25 25 24 26 27
13 15 15 15 18 23 22 25 34 29 1 0 0 0 0 0
0 23 22 3 1 0 0 0 3 4 0 0 0 0 0 0
17 34 28 15 22 26 23 23 25 10 46 65 75 82 84 87
73 65 59 61 68 83 99 112 113 112 112 114 113 109 96 87
77 73 74 81 92 98 100 98 92 86 71 51 36 0 0 0
1 17 27 27 28 28 28 29 29 29 29 29 29 29 29 29
30 30 29 24 20 15 23 18 6 2 12 27 29 29 29 28
28 28 29 28 28 28 28 28 28 28 27 27 25 24 24 26
11 13 13 17 20 24 25 29 35 28 1 0 0 0 0 0
0 25 17 0 0 0 0 0 1 7 6 0 0 0 0 0
17 35 28 10 18 20 18 23 25 11 48 65 74 79 82 79
68 57 55 60 67 86 102 107 107 103 103 105 108 108 101 88
80 70 66 72 84 89 100 97 95 85 70 51 32 4 0 0
4 22 29 28 28 29 29 29 30 30 30 30 31 31 31 30
31 31 21 2 1 3 18 16 1 0 11 26 28 29 30 28
28 28 29 28 28 28 29 28 28 27 27 27 27 25 23 24
14 11 0 1 3 6 11 15 20 23 1 0 0 0 0 0
0 27 18 0 0 0 0 0 1 8 11 6 2 0 0 0
16 35 30 13 14 16 14 21 25 16 46 61 71 77 76 71
62 57 56 62 67 84 95 96 97 94 92 95 99 95 95 87
76 68 67 66 81 88 93 94 92 85 70 49 38 40 32 12
7 26 30 30 30 31 31 31 31 30 31 31 31 31 31 30
31 32 26 17 21 24 26 20 1 0 11 26 28 29 29 29
29 29 28 28 28 28 28 28 28 27 27 27 27 26 23 21
17 13 0 0 0 0 0 0 0 12 1 0 0 0 0 0
0 27 14 0 0 0 0 1 10 11 12 10 4 0 0 0
16 35 30 20 18 15 14 20 25 37 48 59 68 73 70 67
59 56 57 59 66 77 90 95 92 88 88 94 88 88 89 80
73 70 70 69 77 84 89 92 91 83 70 48 41 64 54 46
28 28 30 30 30 30 31 30 30 30 31 31 31 32 32 31
31 31 31 29 29 29 27 21 2 0 12 26 29 28 29 28
29 28 28 28 28 27 28 27 27 27 26 26 26 26 26 23
17 13 0 0 0 0 0 0 0 9 1 0 0 2 0 0
0 26 13 0 0 0 0 1 11 14 11 3 1 0 0 0
15 35 32 22 15 5 4 17 33 46 45 56 64 68 65 60
60 58 57 58 63 66 78 81 89 87 86 82 87 84 79 73
73 70 72 76 75 79 83 88 87 80 69 48 56 76 73 65
53 27 31 30 31 30 31 31 32 30 31 31 32 32 31 31
31 31 30 30 30 29 28 24 7 0 15 26 29 29 30 29
28 28 28 27 28 27 27 27 27 27 26 25 25 25 25 22
16 12 0 0 0 0 0 0 0 8 1 0 1 11 6 0
0 25 12 0 0 0 0 0 0 8 7 0 0 0 0 0
12 33 32 20 11 3 2 15 48 60 47 53 62 64 61 67
63 61 60 58 60 65 66 76 81 89 84 80 82 85 80 77
76 65 68 73 76 84 81 83 85 79 68 48 62 77 76 83
67 30 31 30 31 31 31 30 31 31 31 31 32 31 31 31
31 31 30 30 30 29 26 24 14 7 20 27 29 29 30 29
29 28 28 28 28 27 27 27 26 25 25 25 25 25 25 22
14 11 0 0 0 8 2 0 0 8 1 0 4 11 8 1
0 24 10 0 0 0 0 0 0 6 7 0 0 0 0 0
8 33 32 13 7 0 0 15 57 67 46 52 59 60 58 61
61 66 62 59 62 63 61 74 82 84 84 86 81 79 79 78
75 69 74 76 78 78 76 79 78 77 67 49 72 71 84 75
73 41 30 30 30 31 31 30 31 31 31 31 32 31 30 30
30 30 30 30 30 28 26 24 21 20 25 29 29 29 29 28
28 28 27 27 27 27 26 26 26 26 25 25 24 24 24 22
13 11 0 0 4 14 4 0 0 11 17 11 18 18 16 12
6 27 10 0 0 0 0 0 0 5 10 0 0 0 0 0
5 33 30 7 6 0 1 24 59 60 46 51 57 57 58 61
61 67 67 61 61 60 64 71 76 79 81 81 79 76 77 73
74 70 71 75 74 76 76 76 77 74 64 51 66 52 86 79
70 47 30 31 31 31 30 30 30 30 31 31 31 32 31 31
30 31 31 30 30 29 27 25 24 25 27 29 29 29 30 28
29 28 28 27 27 27 27 26 25 25 24 24 23 23 22 21
12 10 0 0 1 4 0 0 0 12 32 30 34 34 33 34
34 38 12 0 0 0 0 0 0 6 11 0 0 0 0 0
3 29 28 6 3 0 2 30 58 61 57 47 52 52 55 62
60 60 60 58 59 60 67 71 75 78 82 84 82 84 75 71
69 71 70 73 78 76 74 72 69 67 59 54 68 61 77 79
64 51 30 30 31 31 31 31 31 30 31 30 30 31 30 30
30 30 30 30 29 29 28 26 26 27 30 30 29 29 30 28
28 29 27 27 27 26 26 24 25 25 24 23 23 22 23 21
13 13 2 0 0 0 0 0 0 11 33 33 36 35 35 40
43 43 25 13 14 10 4 4 4 11 15 3 3 2 1 0
3 23 28 6 1 1 2 24 53 63 58 44 50 53 52 54
58 54 51 52 55 59 68 70 77 80 84 88 84 83 79 72
67 67 71 72 73 73 71 73 65 64 56 64 80 77 68 66
63 52 30 31 31 31 30 30 30 30 30 30 31 31 31 31
31 32 31 30 30 29 28 27 28 28 29 29 29 29 29 29
28 28 27 27 27 26 26 25 25 24 23 22 21 20 21 20
14 16 13 2 0 0 0 0 0 11 32 31 34 34 34 40
43 43 34 27 28 27 25 23 24 24 22 18 16 14 13 12
16 25 30 14 12 11 7 20 49 57 63 43 49 51 50 49
48 48 44 49 54 58 70 73 81 87 85 85 86 81 78 75
69 58 58 63 68 70 73 69 68 63 53 80 86 90 76 76
63 47 31 31 31 31 31 31 32 31 32 31 31 31 31 31
31 31 31 30 30 30 29 28 29 29 29 29 29 28 28 28
28 27 27 27 26 26 25 25 25 24 23 23 22 21 21 21
16 17 9 0 0 0 0 0 0 11 31 29 31 31 32 33
31 30 30 30 31 31 29 28 29 30 29 27 25 25 23 22
22 28 36 28 26 23 19 26 50 58 70 46 47 50 50 43
44 43 47 50 52 61 70 78 87 89 86 87 90 85 84 77
70 64 59 55 60 65 65 69 68 60 48 72 93 85 80 81
68 39 32 32 31 31 32 31 31 30 31 31 31 31 31 31
32 32 31 30 31 31 29 29 30 30 30 29 30 30 30 29
29 29 28 28 27 26 26 25 25 24 23 22 21 21 21 20
17 17 7 0 0 0 0 0 0 12 33 29 29 30 30 29
28 27 30 31 32 34 33 33 32 31 30 29 32 34 32 30
29 32 37 36 36 36 35 36 54 61 65 52 44 50 52 45
38 39 48 51 53 63 71 79 90 92 92 90 88 90 88 82
75 69 66 60 53 57 60 65 66 58 39 31 82 83 74 69
43 31 32 31 31 32 31 31 30 31 31 31 32 31 31 31
31 31 31 31 31 30 30 30 31 31 30 29 30 30 30 29
29 28 27 27 26 26 25 25 24 24 23 21 21 20 19 18
16 16 22 20 19 15 13 12 9 20 36 30 29 30 31 31
32 32 34 33 33 36 39 38 33 29 30 31 37 40 38 36
36 35 32 28 25 25 26 26 42 57 64 59 40 50 52 47
38 43 49 55 58 62 70 81 88 92 94 95 94 93 90 86
81 76 73 66 59 58 63 67 63 49 40 9 12 34 34 33
31 32 32 32 32 31 31 32 31 31 31 31 32 32 31 32
32 32 32 32 31 31 31 31 31 31 30 29 30 29 29 29
29 28 28 28 27 26 26 25 23 22 22 21 21 19 19 18
17 17 32 38 40 36 37 40 40 40 39 33 32 32 32 32
35 37 39 35 35 37 40 38 34 31 27 28 37 41 38 36
36 36 33 29 24 22 22 22 26 36 38 27 10 35 38 37
41 44 50 57 59 64 71 85 94 98 100 99 96 98 93 90
86 85 81 72 66 61 64 63 52 42 48 17 0 0 7 29
32 32 32 32 32 32 31 31 32 31 31 32 33 32 32 32
31 31 31 31 30 30 32 31 31 31 30 30 30 30 29 29
28 28 27 27 25 25 24 23 23 22 21 20 20 18 18 17
17 18 34 43 43 42 43 44 43 43 41 30 27 26 26 27
31 37 41 36 35 34 33 33 33 31 28 25 31 31 28 29
33 34 33 32 28 26 25 26 27 28 29 27 8 9 31 27
40 48 50 57 61 66 74 84 94 100 102 100 101 100 96 93
86 87 83 80 69 63 53 48 42 46 50 30 0 0 13 32
33 33 33 33 32 32 31 31 31 31 31 32 32 31 31 31
31 31 31 32 30 31 31 30 30 30 30 30 30 29 29 29
29 28 27 26 26 24 24 23 22 20 20 19 18 18 18 17
18 16 24 31 32 33 34 36 38 39 37 11 7 5 3 4
8 15 34 37 32 19 11 16 18 18 21 28 28 13 5 3
7 13 16 27 29 27 28 31 32 33 33 29 17 3 35 34
39 50 51 57 63 70 76 87 98 104 106 105 107 103 102 95
95 88 84 80 73 66 56 50 52 53 49 19 0 0 19 32
32 33 32 32 32 32 32 32 31 31 31 32 31 32 32 30
29 29 28 27 25 25 28 31 31 31 30 31 30 30 29 28
28 28 26 25 25 23 23 22 22 20 19 18 17 17 18 18
18 16 20 24 24 23 24 23 24 24 26 6 0 0 0 0
0 1 28 36 25 3 0 0 2 5 14 29 28 8 0 0
0 2 10 23 20 18 21 24 26 29 35 31 24 1 31 43
46 51 51 52 62 70 78 91 101 105 107 109 108 107 102 100
96 88 84 82 76 75 70 62 61 57 47 8 0 4 29 32
32 32 32 32 31 31 29 29 28 28 28 30 31 31 32 27
16 14 12 10 9 10 20 30 31 31 30 29 30 29 29 28
27 26 26 25 24 23 22 22 21 20 18 17 18 17 18 17
17 15 24 28 28 28 28 27 27 27 27 8 1 0 0 0
0 7 29 34 13 0 0 0 0 0 14 31 28 9 0 0
0 0 9 21 6 1 5 4 3 10 34 32 23 2 33 46
51 53 51 50 59 71 80 94 104 108 112 115 111 107 107 100
95 89 84 79 81 78 75 72 66 62 48 3 0 18 32 31
31 26 23 21 19 17 14 12 11 12 14 25 31 31 31 25
7 5 5 5 5 6 19 31 32 31 31 30 29 29 28 28
27 26 25 24 23 22 21 20 20 19 19 18 17 17 17 17
17 15 25 30 31 31 31 31 31 32 30 8 0 0 0 0
0 7 28 32 6 0 0 0 0 0 10 31 28 9 0 0
0 0 8 21 7 0 9 6 0 5 32 32 24 4 32 51
54 55 54 49 52 69 80 95 105 112 115 116 114 113 108 102
100 92 84 79 87 86 81 76 67 68 56 5 0 24 32 32
28 11 6 8 8 8 6 3 3 3 4 20 30 30 31 25
8 5 6 6 5 7 19 32 32 31 30 30 29 29 28 27
26 26 25 24 23 23 21 20 20 19 18 17 17 16 16 16
18 17 26 31 31 31 31 31 32 33 31 7 0 0 0 0
2 1 23 29 3 0 0 0 0 0 10 31 27 8 0 0
0 0 4 21 7 0 6 5 0 4 32 33 26 16 31 53
57 57 60 51 50 66 85 100 109 115 116 117 116 115 113 104
97 90 84 86 89 86 85 80 75 74 64 10 0 27 32 32
26 9 3 6 7 7 5 3 3 3 3 19 30 31 31 23
7 6 6 5 6 6 17 30 31 30 30 29 29 29 28 27
26 25 25 23 23 20 20 18 19 18 18 17 17 16 16 16
21 21 24 25 26 27 21 11 16 27 34 10 0 0 0 0
4 1 20 29 2 0 0 0 0 0 10 30 26 8 0 0
0 0 0 21 10 0 4 3 0 3 31 33 26 23 33 57
62 59 59 56 50 66 88 101 111 117 117 117 116 116 113 109
99 92 87 92 97 92 90 82 80 80 70 17 6 30 32 31
27 9 3 6 8 7 5 3 3 2 3 17 30 30 30 24
8 6 6 6 6 6 15 31 31 30 29 29 28 28 27 26
25 25 24 23 22 21 20 19 19 18 17 17 16 16 16 16
19 20 21 21 23 23 14 0 1 18 37 19 2 0 0 0
3 0 17 28 1 0 0 0 0 0 8 32 26 11 0 0
0 0 0 20 12 1 4 4 0 3 31 33 25 26 38 63
69 61 62 58 51 63 87 104 116 118 117 117 118 117 116 110
103 94 91 93 96 91 88 86 85 83 74 27 14 31 32 32
27 10 4 6 8 8 6 3 3 3 3 18 31 31 31 26
10 8 7 9 9 8 12 27 29 29 28 29 28 28 27 26
25 25 24 24 22 20 20 19 19 18 16 16 16 16 16 15
19 19 20 21 22 22 16 0 0 14 37 17 1 0 0 0
2 1 18 28 1 0 0 0 0 0 5 31 27 12 0 0
0 0 0 19 16 0 0 0 0 2 29 32 25 28 41 69
76 67 68 61 53 65 90 108 117 118 118 117 117 117 116 112
107 99 91 96 97 94 91 90 93 89 76 32 15 31 32 31
28 10 3 6 9 7 6 3 3 3 3 18 30 30 30 27
15 13 13 12 12 12 17 25 27 27 30 29 29 28 27 26
25 24 23 24 22 20 19 19 19 17 17 16 16 16 15 15
10 11 12 14 18 21 17 0 0 12 34 10 0 0 0 0
0 0 17 28 1 0 0 0 0 0 4 31 27 9 0 0
0 0 0 17 20 0 0 0 0 3 28 32 26 29 42 74
82 72 68 63 58 65 90 104 116 118 118 118 118 117 117 115
109 101 92 98 97 96 94 93 96 90 76 35 25 32 32 31
27 11 4 5 6 6 5 3 3 3 4 17 30 32 32 28
13 9 9 6 1 1 3 5 3 7 28 29 29 29 29 28
26 25 24 23 22 20 19 18 18 18 17 16 16 15 15 16
0 0 0 4 16 20 17 0 0 8 31 8 0 0 0 0
0 0 15 32 3 0 0 0 0 0 3 30 28 12 1 0
0 1 2 18 24 0 0 0 0 4 27 31 26 29 42 76
84 79 70 62 58 69 92 102 113 118 118 118 118 118 117 115
110 102 93 98 98 97 96 97 100 96 83 47 29 32 32 32
28 11 4 4 4 3 4 3 4 4 3 16 30 32 31 28
12 7 7 4 0 1 6 20 11 1 26 29 29 29 27 27
26 24 23 22 21 20 20 18 18 17 17 16 15 15 15 14
0 0 0 5 19 19 17 1 0 6 29 12 2 1 1 2
11 7 17 33 15 8 8 10 10 9 14 33 30 25 24 24
23 25 28 34 30 7 4 4 4 7 26 29 25 29 45 79
86 88 81 68 58 70 92 100 110 117 119 118 118 118 117 114
109 103 97 99 100 99 100 102 103 101 85 69 47 32 32 32
28 12 4 4 1 0 4 4 5 4 3 16 30 32 32 28
13 7 7 4 0 0 1 6 2 1 25 29 29 28 27 27
26 25 24 22 21 20 19 18 17 17 16 16 16 15 15 15
0 0 0 4 19 19 18 2 0 2 27 28 26 22 22 28
35 32 33 35 38 38 34 35 37 37 38 40 31 28 34 36
37 41 45 46 39 26 25 24 24 24 29 27 25 28 44 79
88 94 91 75 65 68 89 94 101 115 119 118 118 116 115 112
110 106 100 99 101 102 104 107 107 101 87 91 84 32 33 32
28 13 5 4 4 4 8 4 5 5 3 14 30 31 32 28
13 6 7 5 0 0 0 0 0 1 25 29 27 26 27 26
25 24 23 22 21 20 19 18 17 17 16 16 16 15 15 15
0 0 0 3 18 18 17 4 0 0 27 34 34 30 32 38
41 37 33 30 39 43 41 40 40 43 43 43 35 25 31 34
37 41 45 45 41 29 27 27 27 28 28 28 27 27 43 78
89 98 97 81 69 72 90 93 96 105 118 119 117 117 117 115
111 108 103 100 101 104 108 111 109 104 92 107 110 55 33 32
28 14 5 5 3 1 5 3 5 5 3 13 30 31 32 29
13 6 7 2 0 0 0 0 0 0 21 16 9 8 21 27
25 24 22 21 21 19 18 17 17 16 16 16 16 15 15 15
0 0 0 2 19 19 17 4 0 0 24 34 30 27 31 37
42 38 32 28 31 34 34 33 33 34 33 34 31 24 25 29
31 33 32 31 31 28 28 28 28 29 28 28 28 28 43 77
91 100 101 88 71 74 90 97 100 100 113 117 117 118 118 114
112 110 106 102 102 107 111 113 112 108 92 115 115 94 46 43
34 17 7 6 2 0 5 6 6 6 4 15 30 31 32 29
13 6 7 1 14 19 1 0 0 0 9 18 24 15 7 26
25 23 22 21 20 19 19 18 17 17 17 16 15 15 15 15
0 0 0 1 18 18 16 5 0 0 22 29 23 24 25 30
40 39 35 30 23 21 22 22 23 23 23 24 27 26 27 29
29 29 26 24 25 27 28 28 29 28 29 29 28 32 62 77
95 103 104 93 75 76 88 96 101 101 110 118 118 119 118 116
113 112 109 103 103 109 114 115 114 106 94 118 116 107 92 92
101 100 73 42 14 4 6 6 6 7 3 13 30 31 33 30
14 7 7 6 27 40 11 0 0 6 25 28 28 26 7 22
24 23 22 21 20 19 18 17 16 15 15 16 15 15 15 15
0 0 0 1 17 17 15 6 0 4 24 26 9 12 14 18
25 26 26 30 26 23 24 24 28 29 28 27 29 30 32 34
35 34 30 27 27 28 29 28 29 29 29 28 29 58 80 77
95 104 105 97 79 81 91 95 103 106 112 118 119 118 118 116
111 110 108 103 106 114 116 116 115 91 110 117 114 111 84 74
101 115 117 116 108 80 42 12 7 7 4 13 30 31 32 30
15 6 6 5 12 18 9 0 0 13 30 28 27 27 10 18
24 22 21 20 19 18 18 16 17 16 16 16 15 15 15 15
0 0 0 0 14 16 14 13 15 22 30 24 1 0 0 1
2 6 11 28 28 30 33 31 39 42 32 25 26 27 28 32
36 38 32 28 27 27 28 29 28 28 28 28 31 90 90 81
97 105 107 101 83 81 92 97 106 111 114 118 118 118 117 116
114 110 111 106 109 116 117 117 112 84 118 116 114 116 101 69
97 114 113 116 116 116 115 104 70 36 9 12 29 31 32 30
18 8 9 3 2 1 1 0 0 11 29 28 27 27 11 17
24 22 21 20 19 18 17 16 15 15 15 14 15 15 14 14
0 0 0 0 13 15 13 19 31 33 36 26 0 0 0 0
0 0 8 31 28 32 37 31 38 42 21 2 3 4 5 7
20 37 33 28 28 27 28 28 28 28 28 28 44 107 81 80
100 106 105 105 92 87 94 99 108 115 118 118 118 118 118 117
115 113 111 109 112 116 117 117 96 95 118 115 116 116 115 94
97 116 115 115 116 116 115 115 116 113 101 76 59 43 36 31
26 19 12 5 0 0 0 0 0 8 27 28 27 26 11 18
22 21 20 19 18 18 17 16 16 15 15 15 15 14 14 13
0 0 0 0 10 14 12 17 31 35 37 29 1 0 0 0
0 0 3 31 26 29 32 11 11 21 15 0 0 0 0 0
11 36 33 27 27 27 27 27 27 27 32 43 74 112 77 72
101 108 107 107 99 94 99 101 110 117 118 117 117 118 118 117
116 113 113 114 114 116 117 114 84 112 116 114 116 116 115 108
106 116 116 115 115 114 115 115 115 115 114 114 113 109 100 85
70 44 23 22 4 0 0 0 0 6 27 27 27 23 9 21
23 21 21 19 19 18 17 15 14 14 14 13 13 13 13 13
0 0 0 0 8 14 12 15 26 27 27 21 1 0 0 0
0 0 3 31 25 29 30 4 0 13 16 0 0 0 0 0
8 33 33 28 27 28 29 38 48 59 73 76 90 115 86 55
102 107 109 108 102 99 102 100 108 116 118 118 118 117 117 117
115 113 115 114 116 116 117 102 95 116 116 116 115 116 115 111
110 115 115 115 115 115 115 115 115 115 115 115 115 115 115 114
112 110 105 88 50 12 0 0 0 6 25 25 23 13 12 21
14 12 18 19 17 16 15 14 14 13 13 13 13 12 13 12
0 0 0 0 7 14 12 11 9 8 10 5 0 0 0 0
0 0 4 32 26 30 30 4 0 11 17 0 0 0 0 0
5 32 34 29 40 65 93 99 90 83 85 76 94 116 103 42
97 108 110 110 105 101 102 104 108 116 118 117 117 117 117 117
114 114 116 116 117 117 114 86 111 116 115 116 116 116 116 111
105 116 116 116 116 116 115 115 115 115 114 115 115 115 115 115
115 115 115 115 113 105 74 30 2 0 4 3 2 0 8 13
7 21 16 19 18 16 15 15 14 14 13 13 13 13 13 13
0 0 0 0 6 14 11 10 7 7 9 3 0 0 0 0
0 0 4 32 26 31 31 4 0 11 19 0 0 0 0 0
4 43 72 94 110 116 112 104 98 90 91 84 98 117 117 50
81 109 111 111 108 102 102 105 111 116 117 117 117 117 117 116
115 115 116 116 117 116 94 98 117 116 116 116 116 117 116 112
105 116 116 116 116 116 116 115 116 115 115 115 115 115 115 115
115 116 115 114 114 114 113 110 84 32 2 0 0 0 5 8
61 84 35 17 17 16 15 14 15 14 13 13 13 13 13 13
0 0 0 0 5 13 11 10 8 8 11 3 0 0 0 0
0 0 2 30 26 31 31 4 0 10 19 1 0 0 13 43
82 109 118 118 115 117 113 113 99 92 92 93 100 114 119 79
56 107 114 112 111 104 101 104 109 114 116 117 117 116 116 114
115 117 117 116 116 103 84 113 117 115 115 116 115 116 116 112
104 116 116 116 116 116 115 115 116 115 115 115 115 115 115 115
114 114 115 114 114 114 115 115 114 107 79 25 0 0 12 11
59 60 39 5 5 8 16 15 15 15 14 13 13 13 13 13
0 0 0 0 4 14 11 10 10 11 12 4 0 0 0 0
0 0 1 30 27 33 32 10 2 10 21 11 36 78 109 117
118 118 119 118 118 119 118 115 101 95 88 95 102 114 119 103
42 95 112 113 112 106 102 104 108 114 117 117 117 117 117 116
117 117 116 116 108 82 105 117 117 116 116 116 116 117 116 107
103 116 116 115 116 116 116 116 115 115 115 115 116 115 115 115
115 115 115 115 114 115 114 114 115 115 112 95 27 0 0 0
0 0 0 2 0 7 19 17 18 19 18 16 17 17 17 16
0 0 0 0 4 13 11 10 11 12 13 4 0 0 0 0
4 5 1 29 29 33 33 18 8 18 59 97 115 118 120 119
119 120 119 120 119 119 119 114 102 96 78 94 103 113 119 115
54 73 110 114 113 108 103 106 109 113 116 117 117 117 116 117
117 117 117 112 83 89 112 95 117 116 116 116 115 117 116 101
106 116 116 116 116 117 116 115 116 115 115 115 115 115 115 115
115 115 115 115 115 115 115 115 114 114 114 113 96 24 0 0
0 0 0 2 1 6 16 14 13 11 10 9 8 6 5 5
0 0 0 0 3 13 11 11 12 13 14 6 0 1 0 0
7 14 6 28 31 34 34 29 73 108 119 119 120 119 119 119
119 119 119 119 119 119 119 115 103 97 78 89 103 109 119 117
77 55 101 111 113 110 106 107 110 114 117 118 117 117 117 117
118 117 114 88 72 101 92 22 104 117 116 117 117 117 117 96
114 117 117 116 116 116 115 116 115 115 115 116 116 115 115 115
115 115 115 115 115 115 115 115 115 115 115 115 113 93 24 0
0 0 0 1 17 20 20 19 20 21 22 22 23 24 24 25
0 0 0 0 3 12 10 10 11 13 13 16 13 17 17 18
24 29 28 37 36 49 89 110 116 116 116 116 118 119 119 119
120 119 120 120 120 120 119 113 102 100 85 90 102 107 119 118
98 49 80 113 112 109 108 108 111 114 117 117 117 117 117 117
117 117 98 68 72 110 68 26 109 117 116 116 117 117 115 94
117 117 117 116 116 116 116 116 116 116 116 115 115 115 116 115
115 116 116 116 115 115 115 115 115 115 115 115 115 112 100 44
1 0 0 5 34 34 33 33 32 32 32 31 31 31 31 31
0 0 0 0 2 12 10 9 12 14 14 24 31 33 35 36
39 43 45 52 86 111 112 114 116 119 120 119 119 119 119 120
119 119 119 119 119 119 119 111 103 101 92 98 103 107 81 65
115 60 66 102 115 113 108 106 110 115 117 118 118 117 118 117
117 112 74 68 93 117 50 32 107 117 116 117 117 116 109 107
117 116 116 116 116 116 116 116 115 115 116 115 115 115 116 115
116 116 115 115 115 115 115 114 115 115 115 114 115 115 114 108
65 3 0 6 34 34 32 32 32 32 31 31 31 31 31 31
0 0 0 0 2 12 10 8 12 14 13 23 36 36 37 38
41 45 57 103 110 112 116 118 120 120 120 119 120 119 119 120
119 119 119 120 119 119 118 109 103 102 96 100 104 111 86 37
117 81 62 81 113 116 113 108 111 114 116 117 117 117 117 117
116 97 68 83 115 110 28 49 116 117 117 117 116 116 102 116
117 116 116 116 116 116 116 116 116 116 116 116 115 115 115 115
115 115 116 116 115 116 115 115 115 115 115 115 115 115 115 114
102 56 0 8 34 34 33 32 32 32 32 32 31 30 31 31
0 0 0 0 1 11 9 8 11 14 14 15 24 24 24 25
27 44 100 110 116 118 118 119 120 119 120 120 119 120 119 119
119 119 119 119 119 118 117 112 105 104 99 97 104 111 96 35
111 97 64 72 98 116 116 112 110 115 116 117 117 117 117 117
114 82 72 105 118 92 32 73 118 117 116 117 117 109 111 117
117 116 116 116 116 116 115 115 116 115 116 115 116 116 116 116
116 115 115 115 115 115 114 114 115 115 115 115 115 115 115 114
110 90 5 10 34 33 32 32 32 31 31 31 31 31 31 31
0 0 0 0 1 11 9 8 11 14 13 10 9 9 10 12
32 95 104 117 120 119 119 119 119 120 120 120 120 119 120 119
120 119 119 119 119 119 118 111 105 103 103 95 105 105 111 48
108 114 73 73 84 114 117 116 113 114 116 117 117 116 116 116
100 74 88 114 117 62 34 95 117 117 116 116 116 113 116 116
117 116 116 117 116 116 116 116 116 115 116 115 115 116 116 115
115 115 115 115 115 115 115 115 115 115 115 115 115 115 115 115
113 109 41 12 34 33 33 32 32 31 31 30 31 31 31 30
0 0 0 0 1 10 8 8 11 13 14 13 11 11 11 27
90 96 113 120 119 119 120 119 120 120 119 120 120 120 120 120
120 119 119 119 119 119 118 112 106 105 105 96 104 104 109 69
91 119 91 74 79 103 117 117 117 117 117 117 117 117 117 111
87 83 110 116 111 45 43 114 117 116 116 117 117 117 116 116
116 117 117 116 116 116 117 116 116 115 116 116 116 116 116 115
116 116 116 116 116 115 115 115 115 115 115 115 115 115 115 115
115 113 89 19 34 33 33 31 31 31 31 31 31 31 31 31
0 0 0 0 1 12 10 8 11 14 14 14 14 14 25 91
107 98 117 120 120 119 119 119 120 120 120 120 120 120 120 120
119 119 120 119 119 119 119 114 109 106 107 100 96 105 104 92
62 117 111 76 79 92 116 117 117 117 117 117 117 117 115 100
89 108 117 117 104 40 68 118 117 117 117 116 116 116 116 116
115 116 116 116 116 116 117 116 117 116 116 115 116 116 116 115
115 115 115 115 115 115 115 115 116 115 116 115 115 115 115 115
114 114 106 56 33 33 32 32 32 32 31 31 31 31 31 31
0 0 0 0 3 12 10 8 10 13 15 16 15 17 68 108
116 102 114 120 119 119 120 119 119 119 120 120 119 120 120 120
120 119 119 119 118 118 118 117 113 109 108 104 87 104 105 103
72 91 118 88 78 83 110 118 117 117 117 117 117 117 112 95
110 116 117 116 95 38 88 117 116 116 116 116 117 117 117 116
116 116 116 116 116 116 116 116 116 115 115 115 116 116 116 115
116 115 116 116 115 115 115 115 115 115 115 114 115 115 115 115
115 115 112 90 35 33 32 31 31 31 31 31 31 30 31 30
2 3 4 4 7 10 9 9 11 13 14 15 15 34 93 115
119 113 108 120 120 120 120 120 120 120 120 120 119 120 120 119
119 119 119 119 119 118 119 119 119 115 111 107 90 93 106 105
96 63 115 109 84 81 98 118 118 117 117 118 118 115 103 110
99 107 117 116 86 41 106 117 116 116 116 116 116 116 116 116
116 117 116 116 117 116 116 117 116 116 116 116 116 116 116 115
115 115 115 115 116 115 115 115 115 115 115 115 115 115 115 115
114 114 114 103 51 32 32 32 32 32 31 31 31 30 31 30
6 6 7 6 6 6 7 8 10 13 14 16 18 68 107 117
119 119 109 119 120 119 120 119 119 120 119 119 119 119 120 119
120 119 118 119 119 119 119 119 118 118 115 110 103 83 105 106
104 71 82 110 96 95 88 113 117 118 118 117 116 107 114 115
115 117 117 117 99 75 115 116 116 116 116 116 117 116 117 117
116 116 117 116 116 116 116 116 116 115 115 115 116 115 116 116
116 116 116 116 115 115 115 116 115 114 115 114 115 115 115 114
115 114 115 109 79 32 32 32 32 31 31 31 31 30 30 29
7 7 7 7 7 7 8 8 11 13 15 16 29 94 114 117
120 120 114 118 120 120 120 120 120 120 120 120 120 120 120 119
120 119 119 119 119 119 119 119 119 119 118 114 110 94 99 107
106 92 54 98 76 106 97 103 118 118 118 116 105 108 118 117
117 117 117 117 109 103 117 117 117 116 117 117 117 117 117 117
116 116 117 116 116 116 116 116 117 116 116 116 116 116 116 116
116 116 116 116 115 116 116 116 116 116 116 115 115 115 115 115
115 115 114 113 98 41 32 32 32 32 32 31 31 30 31 30
7 7 6 6 5 6 6 8 11 13 15 16 52 113 117 119
120 120 116 117 120 120 119 119 119 119 119 119 119 119 119 120
119 120 120 119 119 119 119 118 119 118 118 118 114 108 99 107
107 113 70 93 114 109 104 95 107 112 116 109 103 115 117 117
117 118 117 117 115 113 116 116 117 117 117 117 117 117 117 117
117 117 117 116 117 116 116 116 116 115 116 116 116 116 116 116
116 116 115 116 115 116 115 115 115 116 115 114 114 114 115 115
115 115 115 115 107 67 32 33 32 32 30 30 31 30 30 30
1 0 0 0 0 3 5 8 13 13 14 19 78 117 120 116
120 120 117 115 120 120 120 120 119 120 119 119 119 119 119 120
119 119 119 119 119 120 119 119 119 119 119 118 118 116 109 105
108 112 83 76 111 108 108 92 100 84 94 107 112 117 117 117
117 117 117 117 117 116 116 117 117 117 117 116 117 117 117 116
117 117 116 116 116 116 116 117 116 116 116 115 117 116 116 116
116 115 116 115 115 115 115 116 115 115 115 115 115 115 115 115
115 115 115 115 111 90 36 32 32 31 32 31 31 30 31 30
0 0 0 0 0 3 6 8 11 13 15 28 97 120 119 118
121 120 117 113 120 119 119 119 120 119 120 119 119 119 120 120
120 120 120 119 119 119 119 119 119 119 119 118 118 119 118 112
108 114 105 70 103 106 111 106 104 86 98 113 117 117 117 117
118 117 117 117 117 116 115 117 117 116 117 117 117 117 116 116
116 117 117 116 116 116 116 115 116 116 116 116 116 116 116 116
116 116 116 115 115 116 115 115 115 115 115 115 115 114 115 115
115 115 115 115 115 101 56 32 32 31 31 30 30 30 29 30
0 0 0 0 0 2 6 9 10 12 15 52 109 117 120 119
119 119 117 110 120 120 119 119 119 119 119 119 119 119 119 119
120 119 119 119 119 119 119 118 118 119 119 119 119 118 119 117
110 117 117 100 92 97 106 118 118 113 117 118 118 117 117 117
117 117 117 117 117 116 116 117 117 117 117 117 117 116 116 116
116 116 116 116 116 115 115 115 115 116 116 116 116 116 116 116
116 116 115 115 115 115 114 114 115 115 115 115 115 115 115 115
115 115 114 115 114 106 82 32 31 31 30 30 30 30 29 30
0 0 0 0 0 1 7 10 11 13 19 79 117 114 121 120
120 120 119 106 120 119 119 119 119 119 119 119 120 120 120 119
120 119 119 119 119 119 119 119 119 118 118 118 119 119 119 118
113 113 116 118 100 97 101 109 116 88 112 117 117 117 117 117
117 117 117 117 117 117 116 117 117 117 117 116 117 116 116 116
116 116 117 116 116 116 115 115 115 115 115 116 115 116 116 116
116 116 116 115 115 115 114 114 115 115 115 115 115 114 115 115
115 115 115 114 115 111 97 44 31 31 30 29 30 29 29 29
0 0 0 0 0 3 9 12 14 16 36 94 119 114 120 120
119 119 119 105 119 120 120 119 120 120 119 119 119 120 120 119
119 119 119 119 118 118 118 118 118 118 119 119 119 119 118 118
116 112 110 116 117 109 93 96 104 99 92 118 118 117 117 117
117 117 117 117 116 116 115 116 117 117 117 116 116 116 115 116
116 115 116 116 115 115 115 115 115 115 116 116 116 116 116 116
115 115 115 115 115 115 102 114 115 116 115 115 115 114 115 115
115 114 114 114 114 113 99 71 29 30 30 29 29 29 29 29
2 3 2 2 5 7 9 11 15 17 57 99 120 113 120 120
120 119 119 107 118 119 119 119 119 119 119 119 120 119 119 119
119 119 119 119 118 119 118 118 119 118 118 118 118 118 119 119
117 115 111 113 118 118 114 104 105 104 98 106 117 117 117 117
117 117 117 117 117 117 117 117 116 116 116 116 116 116 115 115
115 116 116 116 116 115 116 116 115 115 115 116 116 115 116 115
116 115 115 115 115 112 86 116 115 115 115 115 115 114 114 115
115 115 114 114 115 114 104 92 42 29 30 29 29 29 28 28
3 3 3 3 4 3 3 4 14 21 78 103 120 114 120 120
119 120 119 108 119 120 120 119 119 120 119 119 119 119 119 119
119 119 119 119 118 118 119 119 118 119 119 119 118 118 118 118
118 118 115 117 117 117 117 117 109 109 107 111 118 117 117 117
117 117 117 117 117 117 116 116 116 116 117 116 116 116 116 116
116 117 117 116 116 116 116 116 116 115 115 116 116 115 115 115
115 115 115 115 115 103 86 116 116 115 115 115 115 114 115 115
115 114 114 114 114 114 109 93 68 29 29 29 28 28 28 28
0 0 0 0 0 0 0 1 14 39 88 103 120 112 119 120
119 120 119 109 118 120 119 119 119 119 119 119 118 118 119 118
118 119 119 119 119 118 119 118 118 118 118 117 118 118 118 119
118 118 118 117 117 117 117 117 115 94 110 116 117 117 117 117
118 117 118 117 117 117 117 116 117 116 117 117 116 116 116 115
115 116 116 116 116 116 116 116 116 115 115 115 115 115 115 115
115 115 115 115 115 97 101 115 115 115 114 114 114 114 114 114
114 114 114 114 114 114 113 94 88 31 28 29 28 27 27 27
