P2
128 120
130
27 27 26 26 26 25 25 24 23 23 22 22 22 22 21 21
20 20 20 19 19 19 18 18 17 17 16 16 16 15 15 14
15 14 14 13 14 12 13 12 11 10 9 8 7 7 7 10
11 12 13 9 6 13 17 14 13 12 12 10 10 8 7 5
4 4 3 6 9 7 8 6 8 9 10 10 10 11 11 12
12 12 13 13 14 15 15 15 15 16 16 16 17 16 17 17
18 17 18 18 19 20 21 21 21 21 21 22 23 23 23 23
23 24 24 26 24 24 25 24 25 25 25 25 25 25 25 25
27 27 26 25 25 25 25 24 24 24 23 23 22 22 22 21
20 20 20 19 19 19 18 17 18 17 17 17 16 16 15 15
15 14 14 13 13 13 13 13 12 11 11 9 9 8 9 11
13 14 14 10 4 12 17 15 13 13 12 11 11 10 9 7
6 6 4 6 9 8 7 8 10 10 11 11 12 13 13 13
14 14 15 14 15 15 15 16 16 16 17 17 17 17 17 18
18 19 20 20 20 20 21 22 21 22 23 23 23 24 24 24
24 25 24 25 24 24 24 25 25 24 25 25 25 25 25 26
26 26 26 25 25 25 25 24 23 23 23 23 22 22 21 21
21 21 21 21 20 19 19 18 19 17 17 17 17 16 16 16
15 15 15 14 14 14 13 13 12 11 11 10 9 9 10 13
14 15 15 11 4 12 18 16 14 14 13 13 11 10 10 9
10 8 4 5 8 8 8 9 11 12 12 12 13 13 14 14
14 14 15 15 16 16 17 17 17 17 17 17 18 18 19 19
20 20 21 20 21 21 22 22 22 22 22 23 23 24 23 24
24 24 24 25 24 25 25 24 25 25 25 25 25 26 26 26
27 26 25 25 25 25 24 24 24 24 23 22 22 22 21 21
21 21 20 20 19 19 19 18 18 18 18 18 17 16 17 16
15 15 14 14 14 14 13 13 13 13 12 12 10 10 11 14
15 16 17 12 4 11 18 16 15 14 14 13 13 12 10 9
11 9 6 4 10 7 9 10 12 12 13 13 14 15 16 15
15 16 16 16 16 16 16 16 17 17 17 18 19 20 20 20
21 21 22 22 21 22 22 22 23 23 23 23 23 24 24 24
24 24 25 26 25 25 25 25 25 26 26 25 26 26 26 25
27 26 27 26 26 25 25 24 25 24 24 23 23 22 22 22
22 21 21 20 20 20 19 18 19 18 18 17 17 17 17 17
16 15 15 15 15 15 14 14 14 13 13 12 11 12 11 15
16 17 17 12 5 11 19 16 15 15 15 14 14 12 10 11
11 10 7 4 10 8 10 13 14 14 14 14 15 15 15 16
16 16 16 16 17 16 18 18 18 19 19 19 20 20 20 20
21 21 22 22 22 23 23 23 24 23 23 24 23 24 24 24
25 25 25 26 24 25 25 25 26 25 25 25 25 25 26 27
27 27 26 25 25 25 25 24 25 24 23 23 23 23 23 22
22 22 21 20 20 20 20 19 18 18 18 18 18 17 17 17
16 16 15 15 15 14 15 14 14 13 13 13 13 13 14 17
18 18 17 12 6 11 19 17 16 15 16 14 14 13 12 12
12 11 9 5 11 10 12 13 14 14 16 15 16 16 17 17
17 17 17 18 18 18 18 18 18 19 19 20 20 21 21 21
21 22 23 23 22 22 23 23 24 23 24 24 24 24 24 24
25 25 25 26 25 25 25 24 25 25 25 25 26 25 26 25
27 27 26 26 26 26 25 25 24 24 24 23 24 23 22 22
22 22 21 21 21 21 20 19 19 19 18 18 18 18 17 17
17 16 16 16 15 16 15 15 14 14 14 13 14 14 15 17
18 18 19 14 8 10 19 18 17 16 16 15 14 13 13 13
12 12 11 7 11 11 13 15 15 15 16 16 16 16 16 17
17 18 18 18 18 18 19 19 20 20 20 21 21 21 21 21
22 22 23 23 24 23 24 24 24 24 24 24 25 24 25 24
25 25 25 24 24 25 26 26 26 26 26 26 26 26 26 26
27 26 26 25 26 25 25 25 25 24 24 24 24 23 23 23
22 22 21 21 21 20 20 19 19 19 18 18 19 18 18 18
17 16 16 16 16 15 15 15 14 14 14 14 14 15 15 18
19 19 19 14 9 10 19 19 17 16 16 15 15 14 14 13
13 13 11 7 12 12 14 15 16 16 16 16 17 17 18 18
18 18 18 18 18 19 19 19 20 20 21 21 21 21 21 22
22 23 24 23 24 23 23 24 24 23 23 24 25 24 24 24
25 25 25 25 25 26 26 26 26 26 26 25 27 26 27 26
27 26 26 26 26 25 26 25 25 24 24 24 23 23 23 22
22 22 21 21 21 20 20 20 20 19 19 19 18 18 18 18
17 17 17 17 16 16 16 15 14 15 15 15 14 15 16 19
19 19 19 14 10 9 18 18 17 17 17 16 16 15 16 13
13 13 12 8 13 12 15 16 17 16 17 17 18 18 18 18
18 18 20 19 20 19 20 20 21 20 21 21 22 22 22 22
22 23 24 23 23 23 24 24 24 24 24 22 24 24 25 25
26 26 25 25 25 25 26 26 25 25 26 26 26 26 26 26
27 26 27 26 26 25 25 25 24 24 25 25 24 24 24 23
22 22 22 21 21 21 20 21 20 20 19 19 19 19 18 18
18 18 17 17 17 16 16 15 15 15 15 15 15 16 17 20
21 20 20 16 12 9 18 19 17 17 17 16 16 15 14 15
14 14 13 11 14 13 16 17 17 17 18 18 19 19 19 19
19 20 20 20 20 21 20 20 21 21 21 22 22 22 23 22
23 24 24 24 24 24 23 24 24 23 25 25 25 25 26 26
26 26 25 26 26 26 27 26 26 26 26 26 26 26 26 27
27 26 26 27 26 26 25 25 25 24 25 24 24 24 23 23
23 21 22 21 21 21 21 20 20 20 20 19 19 18 18 18
18 18 17 17 17 17 16 16 16 15 16 15 15 16 17 20
20 20 20 15 11 9 19 19 17 16 17 17 16 16 16 15
15 14 14 12 14 14 17 17 17 17 18 18 18 18 19 19
19 19 20 20 20 21 21 21 21 22 21 22 22 22 22 23
23 23 23 22 23 22 23 24 25 25 25 26 26 26 26 25
26 26 25 25 25 26 26 26 26 26 26 26 27 27 27 27
27 27 26 26 26 26 26 25 25 25 25 25 24 23 24 23
23 23 23 22 22 21 22 21 21 20 20 20 20 19 19 19
18 18 18 18 17 17 17 16 16 16 16 15 16 16 18 20
21 21 21 16 13 6 14 19 17 17 18 17 17 17 17 16
16 15 16 12 15 15 18 18 18 18 19 19 19 19 20 20
20 20 21 20 21 21 21 22 22 21 21 22 23 23 23 23
22 22 23 23 24 24 25 25 25 26 26 26 26 25 26 25
26 26 26 26 26 25 26 26 27 26 26 27 27 27 27 27
27 27 27 27 27 26 26 25 26 25 25 24 24 24 23 23
23 23 23 23 22 21 23 22 21 21 21 20 20 20 19 19
19 19 18 18 17 18 18 17 17 17 17 17 17 17 18 21
21 21 21 16 11 4 15 21 19 19 19 18 18 17 18 16
16 16 16 13 17 17 19 19 19 19 20 20 20 20 20 20
21 21 21 22 21 22 22 22 23 23 23 23 23 23 22 23
23 24 25 24 25 25 25 25 26 26 26 28 26 26 27 26
27 26 26 26 26 26 27 26 26 27 27 26 27 27 27 27
27 27 27 26 26 26 26 25 26 25 25 25 25 24 24 24
24 23 23 23 22 22 22 21 21 21 20 20 20 20 20 19
19 19 19 18 18 18 18 17 17 17 17 16 17 17 18 22
22 22 22 17 13 11 16 21 20 19 19 19 18 18 18 17
17 17 16 13 18 17 20 19 20 20 20 20 20 21 22 21
21 22 22 22 22 23 22 22 23 23 22 22 22 23 23 23
24 25 25 25 25 26 26 26 26 26 26 27 26 26 27 26
26 27 27 27 27 27 27 27 27 27 28 27 27 27 27 27
27 27 27 26 26 26 26 26 26 25 25 25 25 25 25 24
24 23 23 23 23 23 22 22 22 21 21 21 21 20 20 20
20 19 19 19 18 19 18 18 18 17 17 17 17 18 19 21
22 22 22 17 13 14 16 21 20 21 20 19 19 19 19 17
17 17 17 14 18 17 20 20 20 20 20 20 21 21 22 21
21 21 23 21 22 22 23 22 23 23 24 24 24 24 25 24
25 24 25 25 25 26 26 26 26 26 27 27 27 26 26 26
27 27 27 26 27 27 26 26 27 27 27 27 27 27 27 28
28 27 28 26 26 26 26 25 25 25 24 24 25 25 25 24
25 24 24 24 23 23 22 22 22 21 21 21 21 21 21 20
21 20 19 20 19 19 19 18 18 17 17 17 17 18 19 22
22 23 22 18 14 15 15 22 20 21 20 20 20 19 20 18
18 18 17 15 19 18 20 20 21 20 21 21 21 21 21 21
21 22 22 21 22 23 23 23 23 24 24 24 24 24 25 25
25 25 26 26 25 26 26 27 26 27 27 27 27 26 26 27
27 27 27 28 27 27 27 28 27 28 28 27 28 27 27 27
27 27 27 26 26 26 26 26 26 26 25 25 25 24 25 24
24 24 23 23 23 23 22 22 21 22 22 21 21 20 21 20
20 20 19 19 19 19 19 18 18 18 18 18 18 18 19 22
23 22 22 18 14 17 15 22 21 21 20 20 20 19 20 18
18 18 17 15 19 18 20 21 21 21 21 21 22 22 21 22
22 22 22 22 22 23 23 23 23 24 24 24 25 25 25 25
25 26 26 25 26 26 26 26 27 26 26 27 27 27 27 27
27 27 27 27 27 27 27 27 27 27 27 26 27 26 27 27
27 27 27 26 27 26 26 26 26 26 26 25 25 25 25 25
25 24 24 23 23 23 23 22 22 22 22 21 21 21 21 20
21 20 20 20 19 19 19 19 19 18 18 17 19 19 20 23
24 23 23 18 15 18 15 22 21 21 20 20 20 19 20 19
18 19 18 15 20 19 21 21 22 21 22 22 22 21 22 22
22 22 23 23 23 24 24 24 24 24 25 25 24 25 25 25
26 26 25 25 26 26 26 26 27 27 27 27 27 26 27 27
27 27 28 27 27 27 27 26 27 27 27 27 27 27 27 27
27 26 26 26 26 26 26 26 26 25 26 25 25 25 25 25
25 24 24 23 23 23 23 23 23 22 23 21 22 21 21 22
20 20 20 19 19 19 19 18 18 18 19 18 18 19 20 23
24 24 24 19 15 19 15 21 22 21 21 21 20 20 21 20
19 19 18 16 19 18 21 20 21 21 22 23 22 23 22 23
23 23 23 23 23 24 24 24 24 24 26 25 25 26 26 26
26 26 26 26 26 26 26 26 26 27 26 27 27 27 27 27
28 27 27 26 26 26 27 27 27 26 27 27 27 27 27 27
27 27 27 27 27 26 27 26 26 26 26 26 25 25 25 25
25 25 24 24 24 24 23 23 22 23 22 22 22 21 22 21
21 21 21 20 20 20 18 19 19 19 18 19 19 19 21 23
24 24 24 20 15 19 16 21 23 22 22 22 21 20 21 19
20 19 19 17 20 18 22 22 22 22 22 23 23 23 23 23
23 23 23 24 24 25 25 25 25 25 26 26 26 26 26 26
26 26 26 26 27 27 27 27 27 27 27 27 27 27 26 26
26 26 27 27 27 26 27 27 27 27 27 27 27 27 27 27
27 26 26 26 26 26 26 27 26 25 26 26 25 25 25 24
24 24 24 23 23 23 23 22 23 23 23 22 22 22 21 21
21 21 21 20 20 20 19 19 19 19 19 19 20 20 21 24
25 24 24 20 15 20 16 21 22 22 21 22 22 21 22 20
20 20 20 17 20 20 22 22 22 22 23 23 23 23 23 23
23 23 24 24 24 23 24 24 25 25 25 25 25 26 26 26
26 26 26 27 27 27 27 27 27 27 26 25 26 26 27 27
27 27 27 28 29 26 27 27 26 27 27 26 27 27 27 27
27 27 27 27 26 26 26 26 26 26 25 26 25 25 25 25
25 24 24 24 24 24 24 23 23 23 23 22 22 22 21 21
21 21 21 21 20 20 19 20 19 19 19 19 19 20 21 24
25 25 25 22 18 21 18 21 23 22 22 21 21 21 23 21
20 20 20 18 21 19 22 22 23 23 22 23 23 23 23 23
24 24 24 24 24 25 25 25 25 26 26 26 26 26 26 26
26 26 26 26 27 26 27 26 26 27 28 28 27 27 27 27
27 27 27 27 28 27 27 27 26 27 27 27 27 27 27 27
27 27 26 26 26 26 26 26 26 26 25 25 25 25 26 26
25 24 24 24 25 23 24 23 23 24 23 23 22 23 22 22
21 21 20 20 20 20 20 19 19 19 20 19 20 21 22 24
26 25 22 21 21 18 17 21 23 22 22 22 22 22 22 21
21 21 20 17 21 20 23 23 23 23 23 23 23 24 24 24
24 24 24 24 25 25 25 25 26 26 26 27 26 27 26 27
27 27 26 26 27 27 27 28 28 27 27 27 27 27 28 28
27 28 28 28 28 27 27 27 27 27 27 27 27 27 27 27
28 27 27 27 27 27 26 26 26 26 26 26 25 25 25 25
25 25 25 24 24 25 25 24 24 24 23 23 23 23 23 22
22 21 21 21 21 21 21 20 20 21 20 20 20 21 22 24
18 13 9 12 20 21 24 23 16 9 7 7 13 22 22 22
21 21 20 18 21 21 23 23 23 23 24 24 24 24 24 24
24 24 25 25 25 26 26 26 26 26 27 26 26 26 26 26
26 26 27 28 28 28 28 29 28 28 28 28 28 28 28 28
27 27 28 28 28 27 27 28 27 27 28 27 28 28 27 27
27 27 26 26 27 26 26 26 26 26 25 26 26 25 25 25
25 25 24 25 25 24 24 24 23 24 23 23 23 22 22 22
22 22 22 21 21 21 21 20 20 20 20 20 21 21 15 10
9 8 10 11 16 14 16 22 26 25 22 11 7 13 22 22
21 21 21 19 21 20 23 24 24 23 23 24 24 24 25 24
24 25 25 25 25 25 26 26 26 26 26 26 26 26 27 27
27 28 28 28 28 29 28 28 28 28 28 28 28 28 28 28
28 27 27 27 28 27 27 28 27 27 27 27 27 27 27 27
27 26 27 27 26 26 27 26 26 26 26 26 26 26 26 26
26 26 26 25 25 24 24 24 24 24 23 23 23 23 22 22
22 22 22 22 22 21 21 21 20 21 21 21 21 17 16 17
18 14 16 19 21 19 14 11 7 8 13 24 23 16 14 20
22 22 21 19 21 20 23 24 24 24 24 25 25 25 25 25
26 25 25 26 26 25 26 25 26 27 27 26 26 27 27 27
27 27 27 28 28 28 29 28 29 29 28 28 28 28 28 28
28 27 28 28 28 28 27 28 28 27 28 27 27 27 28 27
27 27 26 26 27 26 27 26 27 26 26 27 26 26 27 27
26 26 26 25 25 24 24 24 24 24 24 23 24 23 23 23
23 22 23 22 22 22 22 21 21 21 21 19 16 12 9 13
17 18 24 24 27 24 19 14 14 11 8 5 9 13 14 8
15 22 22 19 21 21 24 24 24 24 25 25 25 25 26 25
25 26 25 26 26 26 26 26 26 26 26 27 27 28 28 28
28 28 29 29 29 28 29 29 29 28 28 28 28 28 28 28
28 28 28 27 28 28 27 28 28 28 27 27 27 27 27 27
27 27 27 27 27 27 27 27 27 27 26 26 27 26 26 26
26 26 25 25 26 25 25 25 25 24 24 24 24 24 23 23
23 23 23 23 22 22 22 22 22 21 19 9 8 4 7 9
14 18 20 19 22 30 27 25 25 17 14 10 7 4 2 7
4 11 22 22 22 22 24 25 25 25 26 25 25 25 25 25
25 25 25 26 27 27 27 27 27 27 28 28 28 28 28 28
29 29 28 29 29 28 29 29 29 29 29 29 28 28 28 28
28 28 28 27 28 29 28 28 28 28 28 28 28 27 27 27
28 28 27 28 27 27 27 27 27 27 27 27 27 27 27 27
27 26 26 26 26 25 25 25 25 25 25 25 25 24 24 24
24 23 23 23 22 22 23 22 22 20 5 2 1 2 5 11
16 14 15 16 17 15 12 13 18 18 17 13 13 14 14 2
2 1 13 22 23 23 25 25 25 25 25 25 25 25 26 26
26 26 26 27 26 26 27 27 27 27 27 28 28 29 29 29
29 29 30 29 29 29 28 29 29 29 28 28 28 29 29 29
29 29 29 29 29 29 28 28 29 27 27 27 27 27 27 27
27 28 28 27 27 28 27 27 27 27 27 27 27 27 27 27
27 26 26 26 26 26 26 25 26 25 25 25 25 24 25 25
24 24 23 23 23 23 23 22 21 7 2 3 5 4 9 12
10 19 24 31 33 31 27 25 28 34 42 43 37 39 39 28
7 0 3 15 20 23 25 25 25 26 26 26 26 26 26 26
26 27 27 27 27 27 28 29 27 28 28 29 29 29 29 29
29 30 30 30 30 29 29 29 29 29 29 30 29 29 29 29
29 29 30 29 29 27 26 26 27 27 28 27 28 29 29 28
28 28 28 28 28 28 28 28 27 27 28 27 27 27 27 27
27 27 26 27 26 26 26 26 25 25 25 25 26 25 25 24
24 24 24 24 23 23 23 22 10 2 5 4 1 6 11 14
15 18 23 31 31 37 45 49 62 72 77 77 74 75 71 57
39 10 0 2 11 19 26 26 26 26 26 26 26 26 27 27
27 27 28 28 28 28 28 28 28 28 28 29 29 29 30 30
30 30 30 30 30 30 30 30 30 29 29 29 29 29 29 29
29 28 28 28 28 27 27 28 29 28 28 26 28 28 29 27
23 25 27 27 27 27 28 28 27 27 27 27 28 27 27 27
27 26 26 26 26 26 26 26 26 26 25 25 26 25 25 24
24 24 23 23 23 23 22 14 1 3 0 0 3 6 8 9
14 23 28 38 49 61 76 87 91 95 97 98 96 94 86 70
56 41 10 0 2 15 24 26 26 26 26 26 26 26 26 27
27 27 27 27 27 27 28 28 28 29 29 29 29 29 29 28
30 29 29 29 29 29 29 30 30 29 29 30 29 28 27 27
27 28 28 28 28 28 28 28 27 28 28 28 28 28 28 27
7 16 27 28 28 28 28 28 27 27 28 28 27 28 27 27
27 27 27 27 26 26 26 27 26 26 26 26 25 25 25 25
25 24 24 24 24 23 20 3 0 0 0 0 4 6 12 23
37 59 84 96 102 103 104 105 105 105 105 105 103 103 98 80
63 53 41 9 0 5 23 25 27 26 26 26 27 27 27 27
27 28 28 28 28 28 28 28 28 29 29 28 29 29 29 29
30 30 30 30 30 30 29 29 29 29 28 28 29 28 28 29
29 29 29 28 28 28 28 28 28 28 28 28 27 28 28 27
5 14 27 27 28 28 27 28 28 27 27 28 28 28 27 28
28 26 27 27 27 26 26 26 26 26 26 26 25 26 25 25
25 24 24 24 24 23 9 0 0 0 0 1 4 8 26 51
84 104 108 109 110 112 111 110 108 108 109 107 105 105 101 92
72 60 53 37 4 0 9 15 25 26 26 27 27 27 27 26
27 27 28 28 28 28 28 29 28 28 29 29 29 30 29 29
29 29 29 29 29 29 28 29 29 29 29 29 30 28 29 28
28 28 29 28 28 27 28 27 28 27 28 28 28 28 28 27
8 13 27 28 28 28 28 27 27 27 27 28 28 27 28 28
27 28 27 28 27 27 27 26 26 27 26 26 29 30 28 27
26 25 25 25 25 21 2 0 0 0 0 0 2 20 63 98
110 112 112 110 110 113 115 115 112 111 109 109 107 106 104 96
82 67 59 51 28 0 4 10 15 26 26 27 27 27 28 27
27 27 28 29 29 28 28 28 28 28 29 29 29 30 29 28
29 29 28 29 29 29 29 29 29 28 28 28 29 29 28 28
28 28 28 28 28 28 28 28 28 28 28 28 27 27 27 28
8 13 27 28 28 28 28 28 28 35 35 33 32 30 29 28
27 27 27 28 27 27 27 27 27 26 26 27 36 38 34 32
30 29 26 25 24 14 0 0 0 0 0 3 37 80 105 111
113 113 113 111 111 114 114 112 114 111 110 108 108 109 106 99
89 75 63 55 48 16 0 7 12 22 27 27 27 27 27 27
28 28 28 28 29 28 28 28 29 28 28 29 29 28 29 29
30 29 29 29 29 28 29 28 29 29 28 28 28 29 28 29
28 28 28 28 28 28 28 27 27 28 27 27 27 27 27 27
9 15 29 29 29 28 28 28 29 37 37 36 36 33 32 32
31 29 28 27 27 27 27 26 26 26 26 27 36 37 35 33
34 34 31 26 24 4 0 0 0 0 11 61 92 102 107 113
114 113 113 110 112 113 113 113 113 113 112 110 110 111 110 105
95 83 70 60 54 39 6 5 12 19 26 28 27 27 28 27
27 28 28 28 28 27 27 27 28 28 28 29 29 28 29 29
29 29 29 29 29 28 28 29 29 28 28 28 29 29 28 28
28 28 28 28 27 28 28 28 28 27 28 28 27 27 26 27
8 17 30 30 29 29 29 28 30 38 38 37 35 34 35 36
38 33 33 32 30 29 27 26 27 27 26 28 34 34 34 32
33 33 32 27 17 0 0 0 2 26 64 86 97 103 109 112
113 113 111 112 112 114 113 114 113 112 111 110 110 111 110 105
99 90 77 66 56 47 26 4 14 14 22 28 28 27 27 27
27 27 27 27 28 27 28 28 28 28 29 29 30 29 30 29
30 29 29 29 29 29 29 28 28 28 28 28 28 29 28 28
28 28 28 27 28 28 28 27 27 26 27 28 27 27 27 28
8 18 32 31 30 31 30 30 31 32 27 32 34 35 38 39
39 34 30 31 34 33 31 30 30 29 28 27 26 17 18 21
26 29 32 28 9 0 0 7 41 62 77 89 97 102 105 109
112 113 113 115 116 117 116 115 114 112 111 110 111 109 106 105
102 94 84 73 64 52 40 11 13 16 19 26 27 26 27 27
27 27 27 27 28 28 28 28 28 29 29 29 30 28 29 29
29 29 29 28 28 29 28 28 28 28 29 28 28 29 28 27
27 28 28 28 28 28 28 27 27 27 27 27 27 27 27 27
8 17 33 31 26 27 31 34 37 20 0 5 18 26 31 33
37 30 5 5 12 18 25 27 31 34 32 29 26 11 6 8
8 6 10 22 2 1 10 34 57 71 83 90 96 101 105 108
112 114 116 116 116 117 117 116 114 113 113 113 111 110 106 104
100 96 91 82 71 55 46 26 8 24 16 24 27 27 28 27
27 27 28 28 28 28 28 28 28 28 28 29 30 29 29 29
29 29 29 29 29 28 29 28 28 27 28 28 28 29 29 28
28 28 27 28 27 28 27 27 27 27 27 28 28 27 27 27
10 16 30 32 31 28 29 36 39 20 0 0 2 10 12 12
20 29 1 0 0 0 1 4 8 15 21 28 25 7 1 4
5 1 1 12 2 8 26 46 58 73 86 92 95 98 103 107
113 115 117 117 117 117 118 116 115 113 113 114 113 112 105 103
101 99 95 89 77 59 48 35 5 17 17 18 27 27 28 28
28 28 27 28 28 28 29 29 29 28 29 29 30 28 29 28
29 28 29 28 29 29 29 28 28 28 29 28 28 29 29 28
27 27 27 28 27 27 27 28 28 27 28 27 28 27 27 26
9 8 7 12 20 28 32 37 39 22 0 0 0 4 7 8
14 29 2 0 0 0 0 0 0 0 0 20 26 6 0 0
1 0 1 11 6 15 33 47 57 70 87 93 93 97 104 110
114 117 117 117 118 117 117 115 114 115 115 115 115 113 109 107
104 102 97 94 82 62 48 36 11 12 17 11 25 28 28 28
28 27 28 28 29 28 29 28 29 29 29 29 30 30 29 29
29 29 29 29 29 29 29 28 29 29 29 28 29 29 28 28
28 28 28 28 27 28 28 28 28 28 27 27 28 28 28 28
9 4 0 0 0 1 6 12 21 20 0 0 0 0 0 2
11 29 4 0 0 0 0 0 0 0 0 19 24 2 0 0
0 0 2 9 11 16 34 46 55 67 85 92 94 101 106 111
115 117 118 119 117 118 118 118 117 116 114 115 115 114 110 108
105 103 98 95 85 67 49 34 11 12 16 11 22 28 28 28
28 28 28 28 28 28 28 29 29 29 29 29 30 29 30 29
29 29 29 29 29 29 30 29 29 29 29 29 29 29 28 28
28 28 28 27 28 28 28 28 29 29 29 28 28 27 28 27
9 3 0 0 0 0 0 0 0 13 0 0 0 0 0 0
9 26 2 0 0 0 0 0 0 0 0 18 21 0 0 0
0 0 3 8 13 9 28 37 40 41 48 48 47 51 56 64
82 102 118 118 118 118 118 117 117 113 97 102 91 90 72 61
53 48 46 45 45 40 38 29 9 13 16 7 19 28 28 28
28 28 28 29 29 29 29 29 29 29 29 29 30 29 29 29
30 30 30 30 30 30 29 29 29 29 29 29 29 29 28 29
29 29 29 29 29 28 29 29 28 29 28 28 28 27 27 28
9 4 0 0 0 0 0 0 0 11 0 0 0 0 0 0
12 29 2 0 0 0 3 6 0 0 0 17 21 0 0 0
0 0 3 8 13 1 7 10 19 31 29 29 24 15 13 12
13 16 37 77 117 119 119 118 119 107 66 46 25 17 15 15
16 22 30 48 43 46 32 4 2 6 16 3 19 29 29 29
28 29 29 28 29 29 30 30 30 30 30 30 31 30 30 30
30 30 31 30 30 30 30 30 29 29 29 29 29 30 29 30
29 28 29 28 28 28 29 29 29 29 29 29 29 29 28 28
9 4 0 0 0 0 0 0 0 8 0 0 0 0 0 0
11 32 3 0 0 0 6 10 6 3 0 15 21 0 0 0
0 0 3 8 7 0 17 58 33 5 1 2 30 0 0 0
22 77 13 12 48 115 119 118 117 97 26 15 6 20 76 13
0 0 0 2 6 1 35 58 9 6 12 3 15 28 28 29
29 29 29 30 29 29 30 30 30 30 31 31 31 30 30 31
31 31 31 31 31 30 30 30 30 30 30 30 30 29 30 29
29 29 28 29 28 29 30 29 29 29 30 29 29 29 29 30
9 3 0 0 0 4 2 0 0 8 0 0 0 0 0 0
10 32 3 0 0 0 7 10 9 9 1 14 22 0 0 0
0 0 2 4 0 0 37 35 6 0 0 33 58 0 0 0
29 7 0 2 26 54 113 118 97 39 17 0 8 78 26 0
0 0 0 0 0 0 7 39 23 8 11 3 4 27 29 29
29 29 29 29 29 29 29 30 30 30 31 31 31 31 31 31
31 31 31 31 31 30 31 31 30 30 30 30 30 30 30 29
30 30 28 29 29 28 30 31 31 30 29 30 29 28 28 27
9 4 0 3 0 0 0 0 0 7 0 0 0 0 0 0
11 34 4 0 0 0 5 9 9 9 2 13 24 1 0 0
0 0 2 1 0 0 24 4 0 0 0 20 9 0 0 0
0 0 2 3 13 38 20 36 22 42 5 0 0 0 0 1
3 2 1 0 0 0 0 16 17 4 10 0 0 23 30 30
30 30 30 30 31 31 31 31 30 31 31 31 30 31 31 31
31 31 32 31 32 31 31 31 31 31 30 30 30 30 30 29
30 31 30 30 30 30 30 30 29 29 28 29 29 26 25 24
9 4 1 1 0 0 0 0 0 8 0 0 0 0 0 2
16 35 7 0 0 0 0 2 7 9 1 12 32 25 17 10
6 4 3 0 0 0 20 0 0 0 0 0 0 0 0 0
0 0 0 0 6 36 28 48 27 34 1 0 0 0 0 2
4 6 6 0 0 0 0 2 15 2 5 0 0 17 30 29
29 30 30 30 30 30 30 30 31 31 31 31 31 31 31 31
32 31 31 31 31 31 31 31 31 30 31 30 30 29 30 29
30 30 28 27 27 29 29 27 26 26 23 22 19 16 15 12
10 5 0 0 0 0 0 0 0 18 13 7 4 3 0 0
11 40 28 20 16 13 7 2 1 4 0 10 35 37 34 33
33 33 19 0 0 0 10 0 0 0 0 0 0 0 0 0
0 0 0 0 8 45 38 53 33 33 0 0 0 0 0 0
0 2 4 0 0 0 0 0 14 0 3 0 0 20 30 30
29 30 30 31 31 30 31 30 31 30 30 30 30 31 31 31
31 32 32 31 32 31 31 31 30 29 28 29 28 27 27 26
28 28 26 26 24 22 20 17 15 12 11 10 10 10 11 12
9 4 0 0 0 0 0 0 0 28 40 32 28 27 24 17
21 43 25 20 22 24 24 22 21 19 18 25 37 35 35 35
36 40 28 0 0 0 8 0 0 0 0 0 0 0 0 0
0 0 0 0 15 43 83 101 65 31 3 0 0 0 0 0
0 2 4 3 0 0 0 0 13 0 3 0 1 25 30 30
30 30 30 29 31 30 30 30 30 30 30 31 31 31 32 31
31 31 31 30 31 31 29 28 28 28 28 28 28 26 25 23
20 19 15 14 13 12 12 12 13 13 14 14 16 16 17 17
9 4 0 0 0 0 0 0 0 30 42 33 38 40 43 42
39 40 19 9 11 11 13 13 14 17 20 25 25 23 27 30
33 36 32 2 0 0 8 0 0 0 0 8 15 17 6 0
0 0 0 2 30 41 88 95 84 33 12 0 0 0 0 1
6 28 48 13 0 0 0 0 12 0 1 2 4 25 30 30
31 29 30 30 31 31 30 30 30 30 31 31 31 30 30 31
30 30 31 30 30 29 28 28 29 24 21 19 16 15 13 13
12 13 14 14 15 16 16 17 18 19 19 19 18 14 19 21
9 13 13 9 5 2 0 0 0 30 36 33 39 41 44 44
37 30 16 10 10 10 9 8 8 7 7 7 7 8 11 14
23 26 23 5 0 0 9 0 0 0 1 45 104 47 7 2
0 0 0 2 34 51 91 93 90 50 24 1 0 0 0 2
18 85 122 42 2 0 0 2 15 0 0 4 7 24 29 29
30 29 28 28 30 30 29 30 30 30 30 30 31 31 31 30
29 27 25 24 22 19 17 19 30 20 12 13 15 15 16 16
17 17 18 19 19 20 21 21 22 22 23 23 23 20 16 22
10 19 35 37 34 29 24 19 17 33 28 32 38 41 43 45
39 32 21 12 11 9 8 6 6 6 6 5 5 6 7 7
21 24 23 12 0 0 11 0 0 0 1 55 122 35 1 0
0 0 0 7 36 70 84 91 85 68 35 6 0 0 0 0
12 52 76 17 3 0 0 7 25 0 0 0 7 21 29 29
29 28 28 28 30 30 30 30 30 30 30 29 27 25 23 20
19 17 16 16 16 16 17 16 25 18 15 18 19 20 20 21
21 22 22 23 24 23 24 24 25 25 24 23 25 25 22 15
10 19 36 40 40 38 39 39 40 38 16 17 25 30 35 38
36 33 23 12 11 8 5 5 6 6 8 7 8 8 9 10
23 14 9 16 0 0 16 2 0 0 0 18 31 10 3 1
0 0 0 21 51 69 76 87 81 69 47 25 0 0 0 0
6 19 24 14 2 0 0 12 37 4 0 0 5 17 28 27
27 28 29 29 29 28 27 26 24 22 20 18 18 17 17 17
18 18 19 20 21 21 22 20 26 21 18 22 24 25 24 25
25 26 26 25 26 25 25 26 25 25 26 25 25 27 27 23
10 17 35 39 39 39 40 40 41 36 5 0 1 3 7 14
17 27 26 12 9 5 0 0 0 3 8 9 6 6 10 12
24 28 27 24 0 1 25 8 0 0 2 15 26 13 3 1
0 0 7 36 68 66 88 100 95 73 64 31 9 0 0 0
7 21 21 11 2 0 0 20 54 12 0 0 2 15 26 18
22 26 25 23 22 20 19 18 18 18 19 19 20 20 21 22
23 24 25 25 25 26 25 24 27 22 21 25 26 25 26 27
27 27 27 27 28 28 28 28 28 25 26 26 25 26 27 27
15 18 29 32 32 34 35 37 41 34 3 0 0 0 0 1
9 26 27 10 8 5 0 0 0 0 2 3 0 0 4 5
22 34 28 16 1 6 46 22 0 0 3 12 12 7 2 0
0 2 24 59 72 84 104 110 107 93 84 53 27 3 0 0
5 14 14 6 1 0 6 41 61 18 0 0 3 18 21 15
17 19 19 18 20 20 21 22 23 23 24 25 25 26 27 27
28 28 28 28 28 29 27 22 12 10 20 27 29 29 28 29
28 28 29 29 29 29 29 28 29 28 27 27 27 27 29 29
16 18 20 21 24 28 27 29 37 31 2 0 0 0 0 0
1 27 26 10 8 2 0 0 1 1 0 0 0 0 0 1
20 35 27 5 0 15 52 48 14 2 0 4 3 2 1 0
6 20 52 69 78 98 108 119 117 101 92 69 53 24 8 1
3 7 6 2 1 6 29 67 60 25 1 9 9 19 20 19
20 22 23 24 25 26 26 27 27 27 28 29 29 28 29 30
30 30 30 30 30 30 29 19 3 1 15 28 30 30 30 30
29 29 30 29 29 30 30 30 29 29 29 27 27 26 27 28
15 18 16 17 20 26 25 28 38 32 1 0 0 0 0 0
0 26 23 4 2 0 0 0 5 6 1 0 0 0 0 0
20 37 30 21 2 21 51 59 46 23 16 16 19 13 14 21
47 74 82 84 89 91 105 119 112 96 90 93 88 84 48 27
23 21 20 20 23 39 68 73 63 32 0 7 44 26 25 25
26 27 28 28 29 29 30 30 31 30 31 31 31 32 32 32
32 32 31 25 21 16 25 18 7 2 15 28 30 31 31 31
31 31 30 30 30 31 30 30 30 30 29 29 27 26 26 28
13 16 15 19 23 28 28 33 38 31 1 0 0 0 0 0
0 29 18 0 0 0 0 0 2 9 8 1 0 0 0 0
20 38 39 46 25 25 51 59 64 72 73 65 62 67 80 101
106 70 82 91 84 81 91 105 100 86 89 101 91 100 118 110
89 73 73 77 83 90 89 78 68 40 1 19 41 41 28 29
29 29 30 30 30 30 31 31 32 32 32 32 33 32 32 32
32 32 22 3 1 3 20 17 1 0 14 28 30 30 31 30
30 30 30 30 30 30 29 30 30 29 29 29 28 26 25 25
16 13 0 1 4 8 12 17 22 25 1 0 0 0 0 0
0 29 18 0 0 0 0 0 2 9 13 8 4 0 0 0
19 37 49 48 47 29 51 63 77 93 103 107 110 113 115 119
92 67 82 58 17 22 67 89 84 24 14 62 97 94 112 120
119 118 116 114 112 104 95 82 70 45 13 56 61 52 28 29
30 31 31 31 31 31 32 32 32 32 32 32 33 33 33 32
33 32 26 18 21 25 27 20 0 0 12 28 30 30 31 29
31 30 30 29 29 30 29 29 29 29 28 28 28 27 25 23
19 14 0 0 0 0 0 0 0 13 1 0 0 0 0 0
0 29 16 0 0 0 0 1 12 13 13 11 5 0 0 0
18 38 54 63 55 33 50 64 81 98 107 110 112 119 118 116
83 59 74 72 44 52 58 67 72 63 42 60 86 86 111 119
119 119 119 118 116 110 100 85 70 50 42 73 79 60 30 30
31 31 31 31 31 31 32 31 32 32 32 33 33 33 32 32
32 32 31 30 31 30 29 23 2 0 13 27 30 30 31 30
29 29 29 29 29 29 28 28 28 28 27 27 28 27 27 24
19 15 0 0 0 0 0 0 0 10 1 0 0 3 1 0
0 28 14 0 0 0 0 1 12 16 13 5 2 0 0 0
18 39 59 67 66 48 48 63 86 102 112 118 120 120 119 115
95 66 68 85 90 101 94 93 96 104 100 92 80 85 112 118
118 118 118 118 118 113 103 89 71 53 51 74 77 66 34 31
31 32 32 32 31 32 32 32 32 31 32 32 33 32 32 32
32 32 32 31 31 29 28 25 6 0 16 27 30 30 31 30
30 29 30 29 29 28 29 28 28 27 27 27 27 27 26 24
19 15 0 0 0 1 0 0 0 9 1 0 2 13 8 0
0 28 13 0 0 0 0 0 1 10 8 0 0 0 0 0
14 38 58 63 68 50 48 63 87 103 116 121 120 120 117 116
100 84 74 82 91 103 108 112 111 110 104 93 87 91 103 115
116 119 118 119 118 114 101 92 72 54 62 78 70 69 38 31
32 32 32 31 32 32 33 32 33 32 32 33 32 32 32 32
32 32 32 31 31 30 28 25 15 7 21 28 30 30 30 30
29 29 28 28 28 29 28 28 28 28 28 27 27 27 25 24
17 14 0 0 1 11 3 0 0 9 2 0 6 13 10 2
0 27 11 0 0 0 0 0 0 8 8 0 0 0 0 0
11 37 58 59 69 57 48 65 88 103 117 120 119 116 117 113
96 83 77 84 93 106 110 109 108 111 107 101 90 88 95 110
117 117 119 119 118 115 104 91 72 54 59 91 78 72 40 32
32 32 32 32 32 33 32 32 32 32 32 32 32 31 32 32
32 32 32 32 32 30 28 24 23 21 26 29 30 30 31 29
29 29 29 28 29 28 29 28 28 27 27 26 26 25 25 23
16 14 0 0 6 16 6 2 0 13 19 13 20 20 18 14
7 30 11 0 0 0 0 0 0 6 11 0 0 0 0 0
7 35 55 56 76 60 50 66 87 104 116 119 115 113 114 101
84 81 85 94 103 109 111 108 111 112 111 106 98 87 86 98
114 116 117 118 118 115 105 91 73 55 68 89 89 73 39 31
32 32 32 32 32 32 32 31 32 32 32 32 32 32 32 32
32 32 32 32 31 30 29 26 25 26 29 30 30 30 31 29
29 29 28 28 28 28 28 28 27 27 27 26 25 25 24 22
15 13 0 0 2 5 1 0 0 14 35 34 38 37 36 36
37 41 14 0 0 0 0 0 0 8 12 0 0 0 0 0
4 33 52 58 73 62 51 66 87 105 114 118 115 112 104 88
83 89 96 104 108 110 113 111 113 115 113 110 107 98 90 90
102 115 117 118 117 113 105 93 74 57 71 82 88 71 36 32
32 32 32 31 32 32 32 31 31 31 32 32 32 32 32 32
32 32 32 31 31 31 29 27 27 28 31 30 30 29 30 30
30 29 29 28 28 28 27 26 26 26 25 24 24 24 24 22
15 15 3 0 0 0 0 0 0 14 36 35 39 39 38 42
46 46 27 14 16 11 6 4 6 13 16 4 4 2 1 0
5 27 49 59 63 56 52 67 89 107 113 117 113 102 95 89
91 93 91 90 94 96 97 100 104 104 101 98 100 103 98 93
95 104 117 118 118 111 105 95 75 58 78 83 85 66 33 32
32 32 31 31 32 32 32 32 32 31 32 32 32 33 32 32
32 33 31 31 30 30 29 29 28 30 30 30 30 29 30 29
29 29 28 28 27 27 27 26 27 25 25 24 23 22 22 21
16 18 14 2 0 0 0 0 0 12 34 34 37 37 37 43
46 46 35 30 30 30 26 25 26 26 24 19 17 16 16 15
18 29 47 60 60 59 52 66 90 107 116 120 109 97 100 98
94 79 77 85 87 90 89 89 92 95 97 95 89 84 93 100
100 99 108 119 118 111 106 96 76 62 81 74 81 62 32 32
32 33 32 32 32 32 32 32 32 32 32 32 32 33 32 32
33 33 32 32 31 31 30 29 29 29 30 30 29 29 29 29
29 29 28 27 27 27 26 26 26 25 24 23 23 22 22 21
16 18 10 0 0 0 0 0 0 14 33 31 33 33 33 34
32 32 32 32 33 32 30 30 32 31 30 29 27 26 25 23
24 30 44 63 62 55 52 67 88 108 119 118 101 98 103 93
70 60 62 71 86 97 102 103 102 103 101 96 83 75 72 95
106 107 104 116 118 110 106 96 76 61 67 79 84 54 32 32
32 32 32 33 32 31 32 32 33 32 32 32 32 33 32 33
32 32 31 30 31 31 30 29 30 30 30 30 31 30 30 30
29 28 28 27 27 27 26 25 25 24 24 23 23 23 22 20
19 18 8 1 0 0 0 0 0 13 35 31 31 32 32 32
30 29 32 33 34 35 34 33 33 32 31 31 35 36 34 32
32 35 42 62 73 64 52 63 85 106 118 120 101 102 104 82
51 60 78 89 100 110 117 116 119 118 115 105 94 79 61 61
99 113 108 116 119 108 106 97 75 68 94 85 80 37 32 31
32 32 32 32 32 31 32 31 31 31 31 32 32 31 31 31
31 32 32 31 31 31 31 31 31 31 30 30 30 30 30 29
28 28 28 27 26 26 25 24 23 23 22 22 21 21 20 19
18 17 23 23 21 16 15 13 11 22 38 32 32 32 32 32
33 34 36 34 34 37 40 40 35 32 32 32 39 42 39 37
36 37 34 50 74 76 56 62 79 102 119 121 112 108 111 102
87 86 94 101 109 116 115 108 105 110 111 116 113 103 89 76
89 110 112 117 117 105 104 93 75 75 95 88 60 30 31 31
31 31 31 31 31 31 31 31 31 31 31 32 32 31 32 32
31 31 31 31 31 31 31 30 31 31 30 30 30 29 29 28
28 27 27 26 26 25 25 24 23 22 22 21 20 19 20 19
19 19 34 40 41 38 39 41 41 41 41 35 33 34 34 34
37 39 41 36 36 38 42 40 35 32 28 29 38 41 40 38
38 38 35 35 61 74 55 58 75 96 116 120 120 117 115 108
97 92 98 102 107 110 109 106 103 107 108 111 112 106 99 91
101 115 116 119 117 105 103 91 72 73 90 73 37 30 31 31
32 32 33 33 33 32 31 31 32 31 32 32 32 31 31 31
31 31 31 31 31 31 32 31 31 31 30 30 29 29 29 28
28 27 27 26 25 25 25 23 23 21 21 20 19 19 19 17
19 19 36 45 45 45 46 45 46 46 43 31 28 27 27 27
32 38 43 37 36 35 34 35 36 33 30 27 33 32 29 30
34 34 34 33 36 66 56 58 73 91 109 118 118 119 113 108
103 99 102 106 109 115 114 107 104 107 112 114 111 105 102 97
105 115 118 118 115 100 100 89 69 74 82 50 31 31 32 32
32 33 32 32 32 32 31 31 31 31 31 31 32 30 31 31
31 31 30 30 30 31 31 30 31 30 30 30 29 29 29 28
28 27 27 26 25 24 23 22 21 21 20 19 18 18 18 18
21 18 26 33 34 34 36 37 39 40 38 12 7 5 4 5
8 16 36 39 35 20 13 17 20 19 22 29 29 13 5 3
7 13 18 29 32 43 54 55 69 87 102 112 115 110 106 109
107 105 107 111 116 117 111 105 105 106 108 113 110 109 106 104
107 108 115 118 112 100 97 86 65 69 64 34 31 32 33 32
32 33 32 33 33 33 32 31 31 31 31 31 31 31 31 30
29 29 28 27 25 26 28 31 31 30 30 30 29 29 29 28
27 27 26 25 24 24 23 22 22 21 19 19 18 18 18 18
20 17 21 25 25 25 25 25 26 26 28 7 0 0 0 0
0 1 29 38 26 4 0 0 2 7 15 31 30 9 0 0
0 2 10 24 21 20 34 53 65 82 95 106 112 103 99 104
106 109 109 109 112 109 104 107 110 111 108 106 109 110 108 109
106 102 105 112 108 101 96 83 59 36 33 32 32 32 32 32
33 33 32 32 31 30 29 29 27 28 28 30 31 32 31 27
16 14 12 10 8 9 20 31 32 31 30 30 30 29 29 28
27 26 26 25 24 23 22 22 22 20 19 19 18 18 18 18
19 17 26 31 31 30 29 29 28 28 29 9 1 0 0 0
0 8 31 37 14 0 0 0 0 0 15 33 30 9 0 0
0 1 10 22 8 2 19 53 60 76 90 99 103 95 92 95
98 109 113 111 108 103 106 108 116 116 108 103 101 109 112 109
104 96 97 102 101 101 92 74 53 31 31 32 31 32 32 32
31 26 23 20 18 17 14 11 9 10 13 25 31 31 31 25
7 5 4 5 5 5 19 32 32 31 30 29 29 29 28 27
26 26 25 24 23 23 21 20 20 19 19 18 17 17 17 17
18 17 27 32 33 33 33 33 33 34 32 10 2 0 0 0
0 8 29 33 7 0 0 0 0 0 10 33 29 10 0 0
0 0 7 22 7 1 17 52 54 67 85 94 95 92 83 85
95 101 105 106 104 105 107 110 116 115 112 102 99 104 107 106
102 88 87 93 93 96 85 68 47 31 31 31 32 32 32 32
28 11 5 7 7 7 4 2 2 1 3 21 31 31 31 25
8 5 5 6 5 5 18 31 31 31 30 29 29 29 28 28
26 26 26 24 23 22 21 20 19 18 19 18 17 17 17 16
21 20 28 33 34 33 33 33 34 35 33 9 1 0 0 0
2 2 25 31 4 0 0 0 0 0 11 32 28 9 0 0
0 0 6 23 9 1 10 45 53 60 76 82 87 85 79 76
84 93 99 100 100 108 112 110 112 116 109 104 97 100 102 103
97 85 83 84 87 88 77 62 41 32 31 31 32 31 32 31
27 8 3 6 7 7 4 2 2 2 3 18 31 31 31 23
7 5 6 5 5 5 16 30 31 31 30 30 29 29 28 27
26 25 25 23 22 21 20 19 19 19 18 17 17 17 16 16
25 25 28 29 30 31 23 12 19 29 36 11 0 0 0 0
4 1 21 29 2 0 0 0 0 0 11 32 27 8 0 0
0 0 0 21 11 1 5 33 53 55 65 73 78 78 72 70
72 81 92 102 106 111 109 108 106 109 106 107 103 100 100 96
85 74 73 78 82 81 68 54 34 31 32 32 32 32 32 31
27 8 2 5 6 6 4 2 2 1 2 17 30 31 31 24
7 5 5 5 5 4 13 30 31 30 29 29 28 28 27 27
26 24 24 23 22 21 20 19 18 18 17 16 17 16 16 15
25 26 27 26 27 27 18 0 1 19 39 20 3 0 0 0
3 0 18 29 1 0 0 0 0 0 10 33 27 10 0 0
0 0 0 20 13 1 5 18 51 53 58 65 71 68 64 64
64 76 81 98 105 109 109 106 106 108 106 110 106 103 97 85
74 63 63 73 75 72 62 47 32 31 31 31 31 31 31 31
26 8 2 5 8 8 5 2 2 2 2 18 30 30 31 26
9 6 7 7 8 8 13 28 30 29 28 28 28 27 27 26
25 25 24 23 22 20 20 20 19 17 17 17 16 16 16 15
25 25 26 26 27 27 19 0 0 15 38 18 1 0 0 0
3 1 18 28 1 0 0 0 0 0 6 32 27 12 0 0
0 0 0 19 16 0 0 2 39 50 51 57 64 69 64 59
60 69 72 89 99 105 106 105 100 103 103 104 102 99 89 74
67 62 62 70 70 64 52 38 32 31 31 31 32 32 32 31
27 9 2 4 7 7 4 1 2 1 2 17 31 30 31 27
15 12 12 12 12 11 17 24 25 27 30 29 29 29 27 27
25 24 24 23 21 20 19 18 17 17 17 16 16 16 15 15
15 16 17 20 24 26 21 0 0 12 35 10 0 0 0 0
0 0 17 30 2 0 0 0 0 0 4 31 27 9 0 0
0 0 0 17 21 0 0 0 14 48 51 51 57 61 61 57
54 59 66 78 92 98 101 99 98 96 100 98 94 89 75 64
63 62 63 67 65 59 47 30 31 31 31 31 31 31 31 30
26 9 2 4 5 4 3 1 3 2 2 16 30 31 31 27
11 7 8 5 1 1 3 4 3 6 28 29 29 28 28 27
25 23 23 22 20 20 19 18 17 16 16 16 16 15 15 15
0 0 0 10 23 26 22 1 0 9 32 8 0 0 0 0
0 0 14 32 3 0 0 0 0 0 3 31 29 13 1 1
0 1 2 17 24 0 0 0 0 24 47 49 52 59 59 61
55 56 61 72 86 95 94 91 91 91 94 89 83 80 64 62
57 62 62 64 60 51 47 30 31 31 30 31 31 32 31 32
28 11 3 3 2 1 2 1 2 2 1 15 29 31 31 28
11 5 6 3 0 1 5 20 11 1 26 29 29 28 27 26
25 24 23 22 21 19 19 18 18 17 17 17 16 16 15 15
0 0 0 10 27 26 23 2 0 7 30 12 2 1 1 2
11 7 17 35 16 9 9 11 10 9 13 34 30 25 24 23
24 25 28 35 30 7 5 4 4 8 33 47 45 51 55 58
57 55 57 63 75 82 90 86 84 87 86 82 75 68 60 60
59 61 62 58 51 42 51 29 31 31 31 31 31 32 32 31
28 11 3 2 0 0 3 2 3 3 2 15 29 31 32 27
12 6 6 3 0 0 1 5 1 1 25 29 28 28 27 26
25 24 22 22 21 19 19 18 18 18 17 16 16 15 15 15
0 0 0 8 27 25 23 4 0 3 30 30 28 24 24 29
36 34 34 36 39 39 36 36 37 38 39 42 33 28 34 37
38 41 46 47 40 27 26 24 25 26 35 57 51 45 49 50
53 52 55 61 65 73 75 81 79 73 74 76 75 67 65 60
57 56 55 46 41 51 56 38 29 30 30 31 31 32 33 31
27 11 3 3 2 3 6 3 3 3 1 14 30 31 32 29
12 5 6 4 0 0 0 0 0 0 24 28 27 26 26 26
24 24 23 21 20 20 18 18 17 17 16 16 16 15 15 15
0 0 0 6 26 25 24 5 0 1 28 36 36 31 34 40
43 39 35 32 41 44 42 41 41 44 44 44 35 26 31 35
38 42 46 46 42 29 28 29 29 29 33 59 64 51 44 41
46 49 49 50 53 58 63 64 65 64 64 62 63 64 61 56
53 46 40 44 53 59 59 67 51 30 30 31 32 32 33 31
26 12 3 2 1 1 4 2 4 3 1 13 30 31 32 28
13 5 5 2 0 0 0 0 0 0 21 15 8 7 21 26
24 23 22 21 20 19 18 18 17 17 16 16 16 15 15 14
0 0 0 5 26 25 23 7 0 0 27 35 32 29 32 39
43 40 33 29 32 35 35 35 34 34 33 34 32 25 26 30
32 33 33 31 31 29 29 29 29 29 32 59 68 62 51 47
47 44 44 46 45 46 49 54 55 58 58 57 58 54 53 49
45 48 53 58 60 63 60 33 69 56 30 31 31 33 33 31
27 13 3 2 0 0 2 3 4 4 2 13 30 31 32 29
12 5 6 0 14 19 1 0 0 0 7 16 23 14 6 24
24 23 22 21 20 19 19 18 17 17 16 16 16 15 15 15
0 0 0 4 25 25 23 9 0 0 25 31 24 25 26 32
41 40 35 31 24 22 23 23 23 23 23 24 27 26 26 29
30 29 27 24 26 28 29 29 30 30 32 59 68 67 55 48
46 50 49 46 47 46 49 52 53 53 54 51 50 47 48 50
55 58 60 62 64 67 64 21 25 78 43 31 32 33 33 30
27 14 4 2 1 1 3 3 4 4 1 12 29 31 32 29
12 6 5 4 27 40 10 0 0 7 25 28 29 25 6 22
24 23 22 21 20 19 18 17 17 16 16 16 15 15 15 15
0 0 0 2 23 24 22 10 1 5 27 27 11 13 15 20
26 28 27 32 26 23 25 25 29 29 28 28 31 32 33 36
36 35 31 27 27 28 29 29 29 29 36 62 69 68 62 55
47 47 51 51 49 50 51 53 53 52 50 51 51 52 57 62
62 60 66 66 68 73 70 29 11 52 81 31 32 32 32 30
27 15 4 4 4 3 3 3 4 5 2 12 29 31 32 29
14 4 5 3 11 18 8 0 0 12 29 28 27 27 9 18
24 23 22 22 20 20 18 17 17 16 16 16 15 15 15 15
0 0 0 1 22 23 21 18 19 24 34 26 1 0 0 0
3 7 12 29 29 32 35 32 41 43 33 26 27 28 29 32
37 39 32 28 27 27 28 29 29 29 57 64 68 70 65 61
54 48 49 52 53 53 56 59 60 59 59 59 59 62 66 68
69 69 71 72 75 79 70 39 17 36 110 57 33 33 32 29
27 15 4 3 3 3 3 2 4 5 2 11 29 31 32 30
16 7 8 1 2 1 1 0 0 11 29 28 27 26 11 18
24 23 22 21 20 18 18 17 16 16 16 15 15 16 15 15
0 0 0 0 20 23 20 24 35 38 39 28 1 0 0 0
0 0 9 32 29 34 38 31 40 44 21 3 4 4 5 7
22 39 34 29 29 28 28 28 28 34 72 60 69 73 71 64
59 54 50 56 60 65 66 68 72 77 76 75 75 72 75 78
80 80 75 80 87 85 75 55 23 35 112 104 72 48 43 36
29 17 5 4 4 4 3 3 3 5 2 11 29 31 32 30
25 18 11 3 0 0 0 0 0 8 28 28 27 26 10 20
23 22 21 20 19 18 18 17 17 16 16 15 15 15 15 15
0 0 0 0 18 23 20 25 38 40 41 32 2 0 0 0
0 0 4 33 28 32 34 12 12 24 16 0 0 0 0 0
13 37 34 28 28 28 29 29 29 47 69 51 71 74 77 74
65 56 58 68 72 78 85 88 89 93 91 91 89 88 88 87
85 86 89 94 95 93 79 58 26 47 106 115 97 97 98 105
87 54 31 15 6 5 4 3 4 4 3 10 29 30 32 31
30 12 13 21 3 0 0 0 0 7 28 29 28 25 10 23
24 23 21 20 19 18 17 17 16 16 15 15 15 15 15 14
0 0 0 0 16 23 19 22 30 30 31 23 1 0 0 0
0 0 4 34 28 32 32 4 0 15 16 0 0 0 0 0
9 35 35 29 29 28 29 28 34 68 62 42 74 81 90 88
79 60 63 73 87 98 104 106 105 104 102 102 100 97 97 91
89 95 98 99 101 97 82 37 28 67 104 118 98 103 106 115
118 115 106 101 87 72 56 31 11 6 3 9 27 30 31 31
31 17 24 36 10 0 0 0 0 5 25 24 23 11 12 21
14 12 18 20 18 17 16 15 16 15 15 15 14 14 14 14
0 0 0 0 13 22 19 18 13 13 14 7 0 0 0 0
0 0 4 34 27 32 33 5 0 14 19 0 0 0 0 0
5 33 35 29 28 28 31 50 74 94 61 34 79 92 101 100
90 69 65 81 91 102 113 120 118 118 116 113 107 103 100 97
97 101 103 104 102 98 83 23 28 84 105 120 101 103 107 116
119 118 117 116 117 118 118 115 103 79 51 34 31 24 22 20
17 7 5 7 2 0 0 0 0 0 3 2 2 0 8 13
8 21 16 19 17 17 16 15 15 14 14 14 14 14 15 14
0 0 0 0 11 22 19 17 12 10 13 4 0 0 0 0
0 0 6 34 28 33 33 5 0 12 20 0 0 0 0 0
12 49 61 58 56 63 76 84 79 110 65 30 83 97 104 105
96 74 69 81 91 101 112 120 121 120 119 113 108 104 100 101
99 103 106 105 105 100 86 30 24 91 110 120 104 103 111 117
119 119 119 119 119 119 118 118 117 115 113 109 102 76 43 14
0 0 0 0 0 0 0 0 0 0 0 0 0 0 4 8
64 86 35 18 17 17 16 15 15 15 14 14 14 14 14 14
0 0 0 0 11 21 19 17 14 13 15 5 0 0 0 0
0 0 3 33 27 33 33 5 1 12 21 1 0 11 47 88
109 113 109 106 107 103 94 82 78 116 67 28 86 99 106 107
99 76 72 81 85 94 108 119 120 120 118 110 106 104 104 102
103 106 107 107 108 103 89 46 26 101 113 120 108 105 112 118
120 119 119 119 118 118 118 117 117 117 117 114 112 111 109 103
81 41 11 6 7 8 9 10 10 10 9 3 0 0 11 12
60 62 39 5 5 9 17 16 15 16 15 14 15 14 15 15
0 0 0 0 10 22 18 17 16 14 16 6 0 0 0 0
1 0 2 33 30 34 34 10 2 11 23 32 74 111 122 122
122 121 117 111 117 111 96 80 82 119 65 22 86 99 106 108
101 80 76 83 85 84 99 114 121 119 111 105 108 105 102 104
106 107 110 112 111 105 89 51 48 110 117 120 108 103 113 117
119 119 119 119 119 118 119 119 118 118 118 117 118 117 117 115
111 105 88 42 14 14 14 14 14 13 10 3 0 0 0 0
0 0 0 1 0 7 21 19 19 19 19 17 18 17 17 17
0 0 0 0 8 21 18 17 16 17 17 6 0 1 0 0
6 7 1 31 30 35 35 19 12 34 84 117 123 123 123 122
122 123 121 111 120 113 97 85 91 120 79 13 85 100 107 108
104 83 79 82 82 86 91 106 118 116 111 108 107 106 103 104
108 113 114 114 113 104 88 48 68 117 119 120 109 99 114 118
119 118 119 119 119 119 118 118 118 118 118 118 118 118 118 118
119 117 113 104 68 23 15 16 15 14 11 4 0 0 0 0
0 0 0 2 0 6 16 14 12 11 10 9 8 7 6 5
0 0 0 0 8 21 18 17 18 18 19 9 0 3 0 0
8 16 8 30 33 36 38 53 96 118 121 121 122 122 123 123
123 122 122 115 122 107 95 92 100 122 89 9 81 101 108 109
107 91 81 85 80 84 86 97 113 111 108 107 108 105 99 106
113 115 116 116 114 106 87 44 104 118 120 120 112 99 111 117
120 119 119 119 119 119 119 119 119 119 119 118 119 118 118 119
119 118 119 117 109 83 37 17 17 15 13 5 0 0 0 0
0 0 0 1 17 21 20 21 21 22 22 23 24 25 25 26
0 0 0 0 7 21 18 17 18 18 19 21 17 20 20 20
26 32 30 39 40 61 99 118 122 122 122 122 123 123 122 123
123 122 122 121 121 105 94 88 103 121 91 5 74 100 109 112
112 102 91 85 82 82 86 92 107 109 105 107 106 107 107 112
116 118 116 116 114 103 81 51 115 119 120 120 112 101 111 117
120 120 120 119 119 119 119 119 119 119 119 119 119 119 119 118
119 119 119 119 118 110 89 44 16 15 14 6 0 0 0 0
0 0 0 4 34 34 34 33 33 33 32 32 32 32 32 33
0 0 0 0 6 21 18 17 19 19 19 29 36 38 39 40
43 46 52 74 100 117 122 122 123 123 123 123 122 122 123 122
122 122 122 121 119 103 90 89 104 122 100 5 61 96 106 113
113 108 100 93 87 88 89 88 97 103 106 109 111 111 110 113
117 118 116 116 112 104 74 68 116 120 119 120 111 101 111 116
119 119 119 119 119 119 119 119 119 119 120 119 119 119 118 118
119 119 118 118 118 118 107 89 40 16 15 7 0 0 0 0
0 0 0 6 34 34 34 33 33 32 33 32 32 33 32 33
0 0 0 0 5 20 17 16 18 19 19 28 41 41 41 42
46 67 101 118 120 122 123 123 123 123 123 123 123 122 122 123
123 122 123 121 118 103 93 83 104 122 117 34 48 92 106 111
115 113 109 103 92 93 99 97 98 102 110 116 116 112 112 115
118 119 118 117 113 104 61 90 119 120 120 120 110 100 112 117
120 119 120 120 119 119 119 119 119 119 118 119 119 119 119 118
119 119 119 119 119 119 116 105 87 28 16 7 0 0 0 0
0 0 0 8 35 34 34 33 32 32 32 32 32 32 32 32
0 0 0 0 5 20 17 16 18 20 19 20 29 28 28 35
79 115 122 123 123 123 123 123 123 123 123 123 123 123 123 123
123 123 123 122 118 104 96 81 102 122 122 81 38 86 105 112
115 116 113 106 99 97 101 105 108 112 115 116 115 111 112 116
116 118 118 117 114 99 50 110 119 120 120 120 107 101 112 117
120 120 120 119 119 120 119 119 120 120 119 119 119 119 119 119
119 118 119 119 118 118 117 117 107 77 24 7 0 0 3 6
0 0 0 10 34 33 33 33 33 32 33 32 32 33 32 33
0 0 0 0 4 19 18 15 17 20 20 16 14 14 25 83
120 123 122 123 123 123 123 123 123 123 123 123 123 123 123 123
123 122 122 122 114 105 101 84 98 122 122 113 41 74 101 110
114 116 114 106 103 104 105 109 112 112 113 116 114 112 115 116
115 117 119 116 111 80 54 119 119 119 120 119 103 106 113 118
120 120 120 120 120 120 120 120 119 118 119 119 119 119 119 119
118 119 119 119 119 119 118 118 117 101 80 14 0 0 24 31
3 0 0 12 34 34 34 33 33 33 33 32 32 32 32 32
0 0 0 0 4 19 17 16 18 20 20 18 16 29 89 119
120 122 123 123 123 123 123 123 123 123 122 123 123 123 123 123
123 123 122 122 113 106 104 90 97 121 122 120 57 58 99 106
114 116 114 108 102 104 109 113 114 117 116 117 115 110 113 114
116 119 118 111 110 60 70 117 120 120 120 118 105 110 114 118
120 120 119 120 120 119 120 119 119 119 119 119 119 119 119 119
119 119 119 118 119 118 118 118 118 114 110 83 9 0 12 12
0 0 0 15 34 33 33 33 33 32 33 33 33 32 32 32
0 0 0 0 5 19 17 16 18 20 21 21 37 96 121 116
119 123 123 123 124 123 123 122 123 122 123 123 123 123 123 123
123 123 123 122 114 106 105 97 96 120 122 121 79 46 94 106
109 116 114 110 104 102 107 112 115 117 118 117 111 111 111 114
118 119 114 114 91 53 91 118 119 119 120 118 107 110 117 119
120 119 120 120 120 120 119 119 119 119 119 119 119 119 119 119
119 119 119 119 119 119 119 118 119 117 116 108 74 3 0 0
0 0 0 17 33 33 33 33 33 33 32 32 32 32 32 32
0 0 0 0 7 21 18 16 19 20 21 48 101 122 121 114
118 123 123 123 123 123 123 123 123 123 123 123 122 123 123 122
123 122 123 122 114 109 108 103 95 117 122 122 107 46 77 106
110 110 114 112 107 104 105 109 111 113 113 111 109 108 113 116
119 118 117 111 72 64 108 114 118 117 102 118 108 112 119 119
120 120 120 119 120 119 120 119 119 119 119 120 120 119 119 119
120 119 119 119 119 119 119 118 119 119 119 111 93 17 0 0
0 0 0 19 33 33 32 32 33 32 32 32 32 32 32 32
5 6 7 8 12 17 16 16 18 20 46 106 123 122 121 115
119 124 124 123 123 123 123 122 123 123 122 123 123 123 123 123
123 123 123 122 117 110 108 106 95 114 123 121 118 65 62 104
112 115 115 113 111 107 105 107 108 108 106 107 108 111 114 117
118 119 118 99 62 82 119 116 119 110 40 112 107 116 120 119
119 120 120 119 120 120 119 119 119 119 119 118 119 119 119 119
119 119 119 119 119 118 118 118 119 118 118 114 109 63 0 0
0 0 0 21 34 33 33 33 33 32 32 32 32 31 31 31
10 10 11 12 13 14 16 17 18 24 90 123 123 119 123 116
120 123 123 123 123 123 123 123 123 123 123 123 123 123 123 123
123 122 122 122 118 110 108 108 98 107 122 122 121 91 55 93
111 115 118 116 111 108 108 109 109 109 109 110 112 115 115 119
120 119 116 84 62 104 120 119 120 117 55 115 110 119 119 119
120 119 120 119 120 119 119 119 119 119 119 119 120 120 120 120
119 119 119 118 118 118 118 118 118 118 118 117 115 99 17 0
0 0 0 18 34 32 32 32 32 32 32 31 32 31 31 32
10 10 12 12 13 15 16 17 18 40 104 121 117 121 123 117
122 123 124 123 123 123 122 122 123 123 122 123 123 123 123 123
123 123 122 122 120 113 109 109 105 101 122 121 121 101 55 78
107 113 119 120 117 112 110 108 112 112 112 111 113 117 119 120
120 119 108 71 80 117 120 120 120 119 80 114 115 119 119 119
119 119 120 119 119 119 119 119 119 119 120 119 119 119 119 119
119 119 119 119 119 118 118 118 119 118 118 118 115 110 64 0
0 0 0 9 31 32 32 32 32 32 32 31 31 31 31 31
10 11 12 11 12 14 14 16 20 75 117 111 120 124 123 119
123 122 122 123 123 123 123 123 123 123 123 123 123 123 123 123
122 122 122 122 120 116 110 108 109 105 104 59 116 117 70 66
97 112 117 120 119 115 115 113 115 118 116 117 117 117 119 120
120 116 83 72 111 120 120 120 120 119 105 110 118 119 119 120
119 119 120 119 119 119 119 119 119 119 119 120 119 119 119 119
119 119 118 118 118 118 118 118 118 119 119 118 115 116 99 21
0 0 0 16 21 32 32 32 31 31 31 32 31 31 31 31
2 2 2 4 8 11 12 13 35 98 112 114 122 124 123 122
123 123 123 123 123 123 123 122 123 123 122 123 123 123 123 123
122 123 122 122 120 117 113 110 109 110 113 51 111 121 102 62
79 109 115 121 121 120 118 116 116 116 117 117 118 120 120 120
119 105 68 101 121 120 120 120 120 119 110 115 119 119 120 119
119 119 119 120 119 119 119 119 120 119 119 119 120 119 119 119
119 118 119 118 118 118 118 118 119 118 119 118 116 117 107 74
2 0 1 27 15 27 32 32 32 31 31 31 31 31 31 31
0 0 0 1 5 12 14 15 68 102 103 117 123 123 123 123
123 123 122 123 123 123 123 123 123 123 123 123 123 123 123 122
122 122 122 122 115 116 115 111 110 110 119 82 108 123 119 96
70 96 116 121 121 121 119 117 118 116 117 117 119 120 120 120
117 84 89 120 120 119 120 120 120 116 112 118 119 119 119 119
119 119 120 120 119 119 118 118 119 119 119 119 120 119 119 119
119 118 119 118 118 117 118 118 118 118 118 118 117 117 112 99
35 0 2 30 24 16 31 31 31 31 31 31 31 31 31 31
0 0 0 2 5 11 15 24 102 100 103 122 123 123 123 123
123 123 123 123 123 123 123 123 123 123 123 123 123 123 122 122
122 122 122 122 113 111 117 112 110 109 110 92 107 123 121 118
88 87 115 121 121 121 121 120 119 120 119 120 121 120 120 119
99 80 117 120 121 120 120 120 120 113 114 118 119 119 119 119
119 119 120 120 119 119 118 118 119 119 119 119 119 119 119 118
119 119 118 118 117 118 119 118 119 119 119 118 118 117 116 103
82 5 3 30 31 16 25 31 31 31 31 30 31 31 30 30
0 0 1 4 6 10 16 48 115 98 107 123 123 123 123 123
123 123 123 122 123 123 123 123 123 122 123 123 123 123 123 122
122 122 122 122 117 104 116 116 112 110 107 85 106 123 122 121
115 84 106 120 121 121 121 120 120 120 120 121 121 121 120 109
98 114 121 120 120 120 120 120 116 112 116 119 119 119 119 120
120 119 119 119 119 118 118 118 118 119 119 119 119 119 120 119
119 119 119 119 117 119 119 118 118 118 119 119 118 117 118 107
98 41 5 31 31 21 7 18 31 31 31 31 30 30 30 30
3 5 4 4 7 12 20 77 113 99 110 123 120 121 123 123
123 123 123 122 123 123 123 123 123 122 122 123 122 123 122 122
122 122 122 122 122 114 110 116 114 111 109 97 92 122 122 121
120 100 96 120 122 121 121 121 121 120 121 120 121 120 120 116
120 119 120 120 117 98 109 118 116 114 117 118 119 119 119 119
119 119 120 119 119 118 119 118 119 119 119 119 119 119 119 119
119 118 119 117 117 119 119 119 119 119 119 119 118 117 118 114
99 83 10 24 21 3 5 3 30 30 30 30 30 30 29 29
8 8 7 8 11 14 38 93 112 103 116 122 122 123 124 124
124 123 123 122 122 123 123 123 123 123 123 123 123 123 123 123
123 122 121 122 122 121 117 115 117 113 108 107 93 111 122 122
122 116 96 111 121 121 121 121 121 121 121 121 121 121 121 120
118 120 116 95 72 49 109 118 114 116 119 119 120 120 120 120
120 120 120 120 119 119 119 119 118 119 118 120 119 119 120 119
119 119 119 114 119 119 119 119 118 118 118 119 118 117 117 119
103 95 39 5 11 18 26 3 29 31 30 30 30 30 29 30
9 9 9 10 10 13 68 97 110 102 116 121 124 123 123 124
123 124 123 122 122 123 123 123 122 122 122 122 122 123 123 123
123 122 122 121 122 123 122 114 115 114 110 110 104 98 117 122
121 121 120 119 121 122 122 122 121 121 121 122 122 121 121 120
118 114 89 93 92 65 119 118 118 120 121 120 120 120 120 120
120 120 120 120 120 120 120 120 119 119 119 119 120 120 119 120
119 119 113 109 119 119 118 119 119 118 119 118 118 118 117 118
109 96 75 4 4 11 19 2 23 30 30 30 29 29 29 29
2 2 3 3 5 27 84 99 107 102 115 124 124 123 123 123
124 123 123 123 120 123 124 123 122 122 123 123 123 123 123 123
123 122 123 121 122 122 122 120 110 114 114 112 111 106 109 118
92 73 105 121 122 122 122 121 122 121 121 122 122 121 121 120
120 117 117 118 111 91 121 120 121 120 120 120 120 120 120 119
120 120 120 120 120 120 119 119 119 119 119 119 119 120 120 119
120 119 97 111 119 119 118 119 118 118 118 118 118 118 116 119
116 98 92 28 0 0 1 0 5 20 29 29 29 29 28 29
