P2
128 120
126
26 25 25 25 25 24 23 23 23 22 22 21 21 21 20 20
20 18 19 18 18 17 17 17 16 16 15 15 15 14 14 14
13 13 13 12 13 12 12 11 10 10 8 7 6 5 6 9
9 10 11 8 4 11 15 13 12 11 11 10 10 8 6 4
4 3 3 6 8 7 8 5 7 9 10 10 11 12 12 12
12 12 13 13 14 14 14 14 14 15 15 16 16 17 17 16
17 17 18 18 19 19 20 20 20 21 21 22 22 22 22 22
23 23 23 25 23 23 24 24 24 24 25 24 25 24 24 24
26 25 25 24 24 24 24 24 22 23 22 21 22 21 21 21
20 20 20 19 18 18 17 17 17 16 16 15 16 15 15 14
14 14 13 13 13 12 12 11 11 9 10 8 7 6 7 10
12 13 13 9 4 12 16 13 12 12 11 11 10 9 8 7
7 5 4 6 8 9 7 8 10 10 11 11 12 13 13 13
13 14 14 15 15 15 15 15 16 16 16 16 16 17 17 17
17 19 20 20 20 20 21 21 22 22 21 22 22 22 23 23
23 23 24 25 24 25 24 25 24 25 24 24 24 24 25 24
25 25 25 24 24 24 24 23 23 22 23 22 22 21 21 20
20 20 19 19 18 18 18 17 17 16 16 16 15 15 15 15
14 13 13 13 13 12 12 12 11 11 10 8 7 7 9 12
13 14 14 9 4 11 17 15 14 13 12 11 11 10 9 8
9 7 4 4 8 8 8 9 11 11 12 13 13 14 14 14
14 14 15 15 15 15 16 17 17 16 17 17 17 18 18 19
19 20 21 20 20 21 21 22 21 21 22 22 23 23 23 24
24 24 24 25 24 24 24 24 24 25 24 25 25 25 25 25
26 25 25 25 24 24 23 23 23 22 22 21 21 21 21 21
21 20 19 19 19 18 18 17 17 17 16 16 16 16 15 15
15 15 14 14 13 13 13 12 11 11 10 10 9 8 10 13
14 16 16 10 4 10 17 15 13 13 13 12 12 11 9 9
10 10 6 4 10 8 10 11 12 12 13 13 14 15 15 14
15 15 15 16 16 16 16 16 17 18 17 17 18 19 19 19
20 20 21 20 21 21 21 21 22 22 22 22 22 23 23 23
24 24 25 25 24 24 24 24 25 25 25 24 24 24 25 24
25 25 25 25 25 24 24 24 24 23 22 22 22 21 21 21
21 20 19 19 19 18 18 17 17 17 17 16 16 16 16 15
15 14 14 14 13 14 13 13 13 12 12 11 10 10 11 15
15 16 16 11 5 10 17 15 14 14 14 13 13 12 10 10
10 10 7 4 10 9 11 13 14 14 14 14 15 16 16 15
16 16 16 16 16 16 17 17 17 19 18 19 20 20 20 19
20 21 22 21 21 22 21 22 22 22 22 23 23 24 24 24
24 24 24 25 24 25 25 25 24 24 24 24 24 24 25 26
26 26 25 24 25 24 24 23 23 23 23 22 22 21 21 22
21 20 20 20 19 19 18 18 18 17 17 17 17 16 16 16
16 15 14 14 14 13 13 13 12 12 12 12 12 12 12 15
16 16 17 12 5 9 18 16 15 14 14 14 13 12 11 11
11 11 9 5 11 10 12 14 14 14 16 15 16 16 16 16
17 16 17 17 18 18 18 18 19 19 19 19 19 20 20 20
21 21 22 21 22 22 23 23 22 22 23 23 24 23 24 24
24 24 24 26 25 25 24 24 24 24 24 25 25 25 25 26
25 25 25 25 25 24 24 24 23 23 23 22 22 22 21 21
21 20 20 19 19 19 19 18 18 18 18 17 16 17 16 16
15 15 15 14 13 14 13 13 13 12 12 12 13 13 13 17
17 17 17 12 6 9 18 16 15 15 15 14 14 13 12 12
13 12 10 6 11 11 13 14 15 15 16 16 15 16 16 16
17 17 18 18 18 18 18 19 19 19 19 20 20 20 21 21
21 21 22 21 21 22 22 22 23 23 23 23 24 24 24 24
24 24 24 23 23 23 24 25 25 24 25 25 25 25 25 26
26 26 25 25 25 25 24 24 24 23 23 22 22 21 21 21
21 20 21 20 19 19 19 19 18 18 18 17 17 16 16 16
16 15 15 15 15 14 14 13 14 13 13 12 13 13 14 17
17 18 17 13 8 8 18 17 15 16 15 14 14 14 14 13
13 12 12 7 12 12 14 15 15 15 15 16 16 17 18 17
18 18 19 18 18 19 19 19 19 20 20 20 20 20 21 21
21 22 23 21 23 23 23 23 24 24 23 23 24 23 23 23
22 23 24 24 25 24 24 25 25 25 25 25 26 25 25 26
26 26 26 25 25 24 24 24 24 24 23 23 23 22 22 21
21 21 20 20 20 19 19 18 19 19 18 18 18 17 17 17
16 16 15 15 15 15 14 14 14 14 14 14 14 15 15 18
19 18 18 13 9 8 17 17 16 15 16 16 15 16 15 14
13 13 12 8 12 12 15 16 15 16 17 17 18 18 18 18
18 19 19 19 19 19 19 19 20 20 20 21 20 21 21 22
22 22 23 22 23 23 23 23 24 23 22 22 23 24 24 25
25 25 25 25 25 25 25 25 25 25 25 25 25 26 25 26
26 26 26 25 25 24 24 23 23 23 23 23 23 22 22 22
21 22 21 20 20 20 20 19 19 18 18 18 17 17 16 17
17 16 16 16 15 15 15 15 14 13 14 13 14 14 15 18
19 19 18 14 10 8 18 17 16 16 16 16 15 15 14 14
13 14 12 11 14 13 16 17 17 18 17 17 18 18 19 19
18 20 20 20 20 20 20 20 20 20 20 21 21 21 21 21
22 22 23 23 23 23 23 22 22 23 24 24 25 24 24 25
25 25 25 24 24 25 26 26 25 25 26 26 25 26 26 26
26 25 25 25 25 25 24 24 24 23 23 23 23 22 23 22
22 21 21 20 20 20 20 19 19 19 19 18 18 18 18 18
17 16 16 16 15 15 15 15 15 15 14 14 14 15 16 19
19 19 19 14 10 8 17 18 16 15 17 17 16 15 16 15
14 14 13 11 13 14 16 17 18 17 18 18 18 19 19 19
19 19 20 20 20 20 21 20 20 20 20 21 21 21 22 22
23 23 23 22 22 21 22 23 23 24 24 25 24 24 25 25
25 25 25 25 25 26 25 25 25 25 25 25 25 26 25 25
26 26 26 25 25 24 24 23 23 23 23 23 23 22 22 22
22 21 22 21 21 20 20 19 19 19 19 18 18 18 17 17
17 17 17 17 16 16 16 15 15 14 14 14 15 15 16 18
19 19 19 15 12 6 14 18 17 17 17 17 16 16 16 14
15 15 14 11 14 15 18 18 18 18 18 18 19 19 19 19
19 19 19 20 20 20 20 20 20 21 21 21 21 22 22 21
21 21 21 22 23 24 23 24 25 24 24 26 24 24 24 24
25 25 24 25 25 25 25 26 26 26 25 25 25 26 25 25
26 25 25 24 24 25 24 23 23 24 23 23 23 23 22 22
21 21 20 20 20 20 20 19 19 19 19 19 19 18 18 17
18 17 17 16 16 16 15 15 15 15 15 15 15 15 17 19
20 20 20 14 9 3 14 19 17 17 17 17 17 16 17 15
15 15 15 12 16 15 18 18 18 18 18 19 19 19 20 20
19 20 21 20 20 20 20 20 21 21 21 21 22 21 21 22
23 23 23 23 23 24 24 24 24 24 24 26 25 25 25 25
26 25 25 25 24 25 26 25 25 25 25 24 25 25 25 25
26 25 25 25 25 25 24 24 24 24 24 23 23 22 22 22
22 22 21 21 20 20 20 19 20 19 19 18 18 18 17 17
17 17 17 17 17 16 16 16 15 15 15 15 15 16 17 19
20 21 20 15 11 9 15 20 19 18 18 17 17 16 17 15
16 16 15 13 16 16 18 19 19 19 19 19 20 19 19 20
20 20 21 20 21 21 21 21 21 21 21 21 22 22 23 22
23 23 23 24 23 24 24 24 24 25 25 26 25 24 25 25
25 25 25 25 25 25 25 25 25 26 26 25 25 25 25 25
25 25 25 24 24 24 23 24 24 23 24 23 23 23 22 22
22 21 21 21 20 20 20 20 20 19 19 19 19 19 18 19
18 17 17 16 16 16 16 16 15 15 15 15 15 16 17 20
21 21 20 15 11 11 14 20 19 18 19 18 17 17 17 16
16 16 16 13 17 16 18 18 19 19 19 19 20 19 20 20
20 21 21 21 20 20 20 20 21 22 22 22 22 23 24 23
23 23 24 24 24 24 24 24 24 24 24 25 25 25 25 25
25 26 25 25 26 25 25 25 25 25 25 25 26 26 25 26
25 25 25 25 25 25 24 24 24 23 23 23 23 23 22 22
22 21 21 21 21 21 21 20 20 20 19 19 19 19 18 18
18 18 17 17 17 16 16 16 16 15 16 15 16 16 18 20
20 21 21 16 12 14 14 21 19 18 18 18 17 18 18 16
16 16 16 13 17 17 19 19 20 19 20 20 20 20 20 20
20 20 20 20 20 20 21 22 22 23 24 23 23 23 23 23
23 23 24 24 24 24 25 24 25 25 25 26 25 25 25 25
25 26 26 26 25 25 25 26 26 26 26 26 26 26 25 26
26 25 25 25 24 24 24 24 24 24 23 23 23 23 23 22
22 21 22 21 21 21 21 20 20 21 20 20 20 19 19 19
18 18 18 17 17 17 16 16 16 16 16 16 17 17 19 21
21 22 21 17 12 15 14 20 19 18 19 19 18 18 19 17
17 17 17 14 18 17 19 19 20 19 20 21 20 20 20 20
20 21 21 21 22 22 22 22 22 22 23 23 23 23 23 23
23 24 24 24 25 25 25 25 25 25 25 26 25 26 26 25
25 26 26 26 25 26 25 26 25 25 25 24 25 25 25 26
25 25 25 25 25 25 25 24 24 24 23 24 23 23 23 22
22 22 22 22 21 21 21 21 20 20 20 20 19 19 19 19
18 18 18 18 18 18 17 17 17 16 17 16 17 17 18 22
22 22 22 17 13 16 13 21 20 19 19 19 19 18 19 18
17 17 17 14 18 17 20 20 20 20 20 21 20 20 21 21
21 21 22 22 21 23 22 23 23 23 24 23 24 24 24 24
24 24 24 24 25 25 26 26 25 25 26 26 26 25 25 26
26 26 26 26 26 26 26 26 25 25 26 26 26 26 25 26
26 26 25 25 25 25 25 25 24 24 24 24 23 23 23 23
23 23 23 22 22 21 22 21 22 21 21 20 20 20 20 19
19 18 18 18 18 17 17 17 17 17 17 17 18 18 19 23
23 23 22 18 13 17 14 20 20 20 20 19 19 19 20 19
19 19 18 16 19 17 20 20 19 20 21 21 21 22 22 22
22 23 23 22 23 23 23 23 24 23 24 24 24 24 24 24
25 25 25 25 25 26 25 25 26 26 26 26 26 26 26 27
26 26 26 25 25 25 25 26 26 26 26 26 26 26 26 26
26 26 26 25 25 25 25 25 25 25 24 24 24 24 24 23
23 23 23 22 22 23 23 21 22 21 21 21 21 20 20 20
19 19 19 18 18 18 18 18 18 18 18 18 18 18 20 22
23 23 23 18 14 19 15 21 21 21 21 21 20 20 21 19
19 19 18 15 19 17 20 21 21 21 22 22 22 22 23 22
22 23 23 23 23 23 23 24 24 24 24 25 25 25 25 25
25 25 25 25 26 25 25 27 26 26 27 27 26 26 25 25
25 25 26 26 26 25 26 26 26 26 27 26 26 26 26 26
26 26 26 25 26 25 25 25 25 24 25 24 24 24 24 24
24 24 23 23 23 23 22 21 21 21 21 21 21 21 20 20
20 19 19 19 20 19 18 18 18 18 19 18 18 19 20 23
24 23 23 19 14 19 16 20 22 22 21 21 20 20 22 20
19 19 19 16 19 19 21 21 22 21 23 22 23 23 22 23
23 23 23 23 24 24 24 24 24 24 25 24 25 25 25 26
25 26 26 27 26 26 27 27 26 25 25 24 26 25 26 27
26 26 26 27 28 26 27 26 26 26 26 26 26 26 26 26
26 26 26 25 25 25 26 26 25 25 25 24 24 24 24 24
23 24 24 23 23 22 23 22 22 22 22 21 21 21 20 20
20 20 20 19 19 19 19 19 19 18 19 19 19 19 20 23
24 24 24 20 15 19 17 19 20 18 17 19 18 16 17 17
18 19 19 16 20 20 22 22 22 22 23 24 23 23 23 23
24 24 23 24 24 24 24 25 25 25 25 25 26 25 26 26
26 26 26 26 26 26 26 25 25 26 27 27 27 26 27 27
26 27 27 27 28 26 26 26 26 27 27 26 26 27 27 27
26 26 26 25 25 25 25 25 25 25 24 25 25 25 25 24
24 25 24 24 23 23 23 22 22 22 22 21 21 21 21 21
21 20 21 20 20 19 19 19 19 19 19 19 19 20 21 24
25 24 25 20 15 20 20 17 14 13 15 9 4 6 9 12
15 11 9 10 15 17 22 22 22 23 23 24 23 24 24 24
24 24 24 24 24 25 25 26 25 25 26 26 26 26 26 26
26 26 26 27 27 27 27 27 27 27 27 27 27 27 26 27
28 27 27 27 28 27 27 27 27 27 27 27 27 27 26 26
26 26 25 26 26 26 25 26 26 25 26 25 25 24 25 24
24 24 24 23 24 23 23 22 22 23 22 22 22 22 22 21
21 21 21 20 20 20 20 19 19 20 19 19 20 21 21 24
25 25 25 21 18 19 13 12 10 14 9 3 3 4 6 8
10 8 3 1 2 4 9 20 23 23 23 25 24 24 24 24
24 24 24 24 25 25 26 25 26 26 27 26 26 26 25 26
26 27 27 27 27 27 27 28 28 27 28 28 28 28 28 28
28 27 27 28 27 27 27 27 27 26 27 26 26 27 26 27
26 26 26 26 25 25 25 25 26 26 25 25 25 25 25 25
25 24 24 24 24 23 23 23 22 22 22 22 22 22 22 22
22 21 21 21 20 21 20 19 20 19 19 20 20 21 21 24
25 25 24 22 22 18 15 14 18 15 5 2 9 9 4 4
3 3 4 4 3 3 4 7 17 22 24 24 24 24 25 24
25 25 25 25 25 25 26 25 25 26 25 25 25 26 27 27
27 27 27 28 28 28 28 28 28 28 27 27 28 27 28 27
27 27 28 28 28 27 27 27 28 26 27 26 27 26 26 27
26 26 26 26 26 26 26 26 26 26 26 26 25 25 25 25
24 25 24 24 24 23 24 23 23 23 23 23 22 22 22 22
21 20 21 21 21 21 20 20 20 20 20 20 20 21 21 23
23 22 18 16 11 9 9 10 13 15 15 13 13 12 10 7
1 1 2 0 1 4 6 6 6 5 18 25 25 25 25 25
25 25 25 25 25 25 25 26 26 26 26 26 26 27 27 27
27 27 27 28 27 28 28 28 28 28 28 28 28 28 28 28
28 27 27 27 27 27 27 27 26 27 27 27 27 27 27 27
26 26 26 26 26 26 26 26 26 26 26 25 25 25 25 25
25 25 25 24 24 24 23 23 23 23 23 23 23 22 22 22
22 22 22 21 21 21 20 20 20 20 20 20 20 20 20 20
19 17 13 14 18 9 3 1 2 6 10 8 7 8 16 7
5 7 6 1 2 1 1 6 7 1 4 22 25 25 25 24
25 25 25 25 25 26 26 26 26 26 26 26 26 27 27 27
27 27 28 28 28 28 28 28 28 28 28 28 28 28 27 27
27 27 27 26 27 28 27 27 27 27 27 26 27 26 27 26
27 26 26 26 25 26 26 26 26 26 26 25 25 25 25 24
25 25 25 24 24 24 24 24 24 23 23 23 23 23 23 22
22 22 21 22 21 20 20 20 20 20 21 21 21 17 15 15
15 15 17 18 14 9 5 4 4 1 0 2 4 10 11 8
12 10 5 3 4 1 1 1 4 7 3 8 23 25 26 24
24 25 25 26 26 26 27 26 26 26 27 27 27 27 28 28
28 28 28 29 28 28 28 28 28 28 28 28 29 28 28 28
28 27 27 27 27 27 27 27 27 27 27 27 27 28 26 26
27 26 26 26 27 26 26 26 26 26 26 26 26 26 25 25
25 25 25 25 25 25 24 24 23 24 24 23 23 23 23 23
22 22 22 22 22 21 21 21 21 21 20 20 14 9 13 12
16 18 17 14 10 10 10 5 7 6 11 12 12 12 17 16
11 8 6 7 7 9 8 9 9 10 11 6 12 24 25 26
26 26 26 27 26 27 27 27 27 27 27 27 27 28 28 28
28 28 29 29 29 28 29 28 29 29 28 28 28 28 28 28
28 28 28 28 28 29 28 28 29 27 27 27 26 27 27 27
27 27 27 27 26 26 26 26 26 26 25 26 25 26 25 25
25 25 25 25 24 24 25 24 24 24 24 24 24 24 23 22
22 22 22 22 22 21 21 21 21 21 21 13 6 14 14 9
16 13 10 11 12 8 8 18 20 9 11 10 10 12 12 8
7 6 12 13 12 7 7 9 6 9 10 7 1 9 26 26
26 26 26 28 27 27 27 27 27 27 27 27 27 28 28 28
28 28 29 29 29 28 28 29 29 29 29 28 28 28 28 28
28 28 28 28 27 26 25 26 26 26 27 26 28 27 29 27
28 28 27 26 27 26 26 26 26 26 26 26 26 26 25 26
26 25 26 25 25 25 24 25 24 24 24 24 24 23 23 23
23 23 22 22 23 22 22 21 22 22 16 5 10 11 8 11
14 15 13 12 11 8 14 18 15 7 9 14 20 15 11 11
6 6 4 5 9 8 5 4 3 5 3 2 2 0 10 25
27 27 27 27 27 27 27 27 27 28 28 28 28 28 28 28
29 29 28 29 29 29 29 29 30 29 29 29 28 28 29 28
28 27 27 27 27 27 27 27 28 27 28 26 28 28 28 27
22 24 27 27 26 26 26 26 25 26 26 26 26 26 26 26
26 26 25 26 25 25 25 25 25 24 24 24 24 24 24 24
23 23 23 23 22 22 22 22 22 18 7 7 6 4 5 9
13 11 8 3 4 9 6 8 9 13 15 18 24 21 20 14
13 11 14 14 13 13 10 5 2 0 0 0 0 1 0 12
27 28 28 28 27 27 27 27 27 28 28 28 28 29 29 29
29 29 29 30 29 29 29 29 29 29 29 28 28 27 27 27
27 27 28 28 28 27 28 27 28 28 27 28 27 27 28 27
6 15 27 27 27 26 26 27 26 26 27 27 27 26 26 26
26 26 26 26 26 26 26 25 25 25 25 24 24 24 24 24
24 23 24 23 23 23 23 22 20 10 6 1 6 5 7 8
6 5 3 5 6 6 12 11 16 20 20 20 19 24 26 20
14 11 14 18 15 5 1 0 0 2 0 0 0 0 0 1
15 27 28 28 28 28 28 28 28 28 28 29 29 29 29 29
29 29 30 30 30 29 29 29 29 29 28 28 28 28 28 29
29 29 28 28 28 27 28 28 28 28 28 28 28 28 27 27
5 13 27 27 27 27 28 26 26 27 27 27 27 27 27 27
27 27 26 26 26 26 26 25 25 26 25 25 25 25 25 25
24 24 24 24 23 23 23 20 12 9 2 4 5 5 8 8
4 1 4 10 14 12 15 16 22 23 21 23 26 28 27 21
17 15 14 12 14 10 4 2 3 4 4 2 2 1 2 4
9 25 29 29 29 28 27 28 28 28 29 28 29 29 29 30
30 30 30 29 30 29 29 29 28 29 29 28 29 29 28 29
28 29 29 28 29 28 28 28 28 27 28 28 28 28 28 27
7 12 26 27 27 27 27 27 26 27 27 28 27 27 27 27
26 26 26 26 26 26 26 25 26 26 25 25 28 30 28 26
25 25 24 24 23 24 22 13 7 10 0 5 4 3 9 7
3 6 11 8 7 16 23 19 18 22 26 26 22 25 22 21
22 22 22 11 5 2 2 4 7 7 6 7 7 4 8 12
16 24 28 29 29 29 29 29 29 29 29 29 29 30 29 29
30 29 28 29 28 28 29 29 29 29 29 29 29 29 29 29
28 29 28 29 29 28 28 28 27 28 27 27 28 27 27 27
7 13 26 27 27 27 28 27 28 35 34 33 32 30 28 28
26 27 27 27 27 26 26 26 26 25 25 26 35 38 35 31
30 28 26 24 24 23 16 4 11 1 2 4 1 7 10 8
7 9 9 6 16 20 24 22 26 29 31 20 19 18 18 19
20 28 30 19 13 12 8 8 11 19 27 28 22 20 22 22
25 28 29 29 29 29 29 28 28 29 29 29 29 29 30 30
29 30 29 30 30 30 29 29 29 28 28 28 29 30 28 29
29 28 29 29 28 29 28 28 27 28 28 27 28 27 27 28
9 15 28 28 28 28 28 27 29 38 37 36 35 33 31 31
29 28 28 28 27 26 26 26 26 26 26 28 36 36 35 33
33 34 30 26 24 19 8 6 8 0 3 3 2 7 11 14
8 13 10 12 20 19 21 36 51 43 32 27 27 22 21 20
20 22 30 27 30 28 26 32 43 58 72 73 71 57 45 33
26 28 28 29 29 28 28 29 29 30 30 30 30 29 29 29
29 29 29 29 30 29 29 29 29 29 29 29 29 30 29 29
29 29 29 28 27 28 28 28 28 28 28 27 28 27 27 28
8 17 30 30 29 29 28 27 30 38 37 37 34 34 34 35
37 32 32 31 30 28 26 26 26 26 26 27 34 33 33 32
33 33 32 27 23 13 5 8 2 0 0 1 0 10 13 15
11 15 12 17 20 11 29 42 64 82 80 89 84 81 82 78
75 76 84 92 100 98 96 99 101 102 100 93 87 81 63 47
30 28 28 28 28 28 28 29 29 29 29 30 30 29 29 30
29 30 30 29 29 29 28 28 29 29 28 29 28 30 29 28
29 29 29 28 28 28 28 27 27 27 27 28 27 27 27 27
9 18 32 32 30 31 31 30 31 31 27 32 33 35 37 37
38 32 29 31 34 33 31 29 29 29 27 27 27 16 18 20
25 29 29 26 14 13 3 8 0 0 2 3 3 11 13 11
16 14 19 19 14 9 28 40 68 92 100 109 113 116 116 116
116 116 116 116 116 116 116 115 114 111 105 96 90 84 75 55
38 28 28 28 28 28 28 28 28 28 29 29 30 28 29 29
29 29 29 29 28 28 29 29 29 29 29 29 29 30 29 28
28 28 27 27 27 28 28 27 27 27 27 27 27 27 28 28
8 18 33 31 26 27 31 33 36 20 1 5 17 27 31 33
36 30 6 6 12 18 25 27 30 33 32 29 26 11 6 8
7 7 12 17 9 10 4 7 1 0 0 9 5 13 18 7
16 20 22 19 4 10 30 38 62 90 103 112 114 116 117 117
117 117 116 116 116 117 117 116 115 113 110 103 92 86 79 62
49 29 29 29 29 29 28 29 29 29 29 29 31 29 29 29
29 29 29 29 30 29 29 29 29 28 28 28 28 29 29 29
29 27 27 28 28 28 27 27 28 28 27 28 28 28 28 27
9 16 30 32 30 28 28 35 39 19 0 0 2 9 11 11
20 28 1 0 0 0 1 4 9 15 21 28 25 7 0 3
5 1 2 9 11 4 9 7 0 0 1 9 7 11 16 11
17 21 21 14 5 11 32 41 55 85 101 112 115 116 116 116
116 116 116 116 116 116 116 116 115 114 113 107 95 89 81 65
54 34 28 28 28 28 28 29 28 29 28 29 30 29 29 29
29 29 29 29 29 29 29 29 28 28 28 28 28 29 29 28
28 27 28 27 27 27 27 27 27 27 28 28 28 28 28 26
8 7 6 12 19 26 31 35 38 21 0 0 0 3 6 8
14 28 2 0 0 0 0 0 0 0 0 19 25 5 0 0
1 1 7 10 11 2 9 5 1 0 0 5 4 9 14 12
17 24 22 15 9 14 27 39 55 86 99 110 114 116 117 116
117 117 117 116 116 117 116 116 116 115 114 109 100 92 85 68
59 42 28 28 28 28 28 28 29 28 28 28 30 29 30 29
29 29 29 29 29 29 29 29 28 28 28 28 28 28 28 27
27 27 27 27 27 28 28 28 28 28 28 27 27 27 27 27
8 3 0 0 0 1 5 11 19 19 0 0 0 0 0 0
10 27 3 0 0 0 0 0 0 0 0 18 23 1 0 0
0 0 7 10 7 1 8 3 1 0 2 7 7 14 12 8
14 21 19 18 14 17 23 32 54 84 94 101 109 114 116 116
116 116 115 115 116 115 116 115 115 115 114 110 103 97 88 72
61 47 28 27 28 27 27 28 28 28 28 28 29 28 28 29
28 28 29 28 29 29 28 28 28 28 28 28 28 28 27 27
27 27 27 27 27 27 26 27 27 27 27 27 27 26 26 25
8 3 0 0 0 0 0 0 0 12 0 0 0 0 0 0
8 26 1 0 0 0 0 0 0 0 0 16 21 0 0 0
0 3 7 9 3 4 8 3 0 0 1 8 8 12 10 5
12 18 18 21 20 19 15 31 40 68 82 96 103 111 116 116
115 116 116 116 116 115 116 115 116 115 114 111 106 100 90 77
63 53 30 28 28 28 28 28 28 28 28 28 29 28 28 28
29 29 29 28 29 28 28 29 28 28 28 28 27 28 26 28
28 28 28 27 28 27 27 28 27 28 27 27 26 26 26 26
8 2 0 0 0 0 0 0 0 9 0 0 0 0 0 0
10 28 2 0 0 0 2 5 0 0 0 16 20 0 0 0
0 4 10 7 2 5 6 5 1 0 1 7 12 11 2 2
11 16 13 19 27 19 15 23 36 50 64 86 101 106 110 115
116 117 116 116 116 116 116 116 116 115 114 113 109 102 89 80
67 58 34 28 28 28 28 28 28 29 29 29 30 29 30 29
29 29 29 29 29 29 29 28 28 28 27 28 27 28 28 28
28 28 28 27 27 27 28 27 28 28 28 27 27 27 27 27
8 3 0 0 0 0 0 0 0 8 0 0 0 0 0 0
10 30 2 0 0 0 4 9 6 2 0 15 20 0 0 0
0 4 9 9 4 5 4 6 1 0 0 3 4 4 6 5
7 12 9 17 28 22 14 15 21 30 40 52 73 97 113 115
117 116 116 116 117 117 116 116 116 116 115 114 111 106 95 83
72 63 41 28 28 28 28 29 29 29 29 29 30 30 29 29
29 29 30 29 29 29 29 29 28 28 29 28 29 28 28 28
28 28 27 27 26 27 28 29 28 28 27 28 28 28 27 28
7 3 0 0 0 3 1 0 0 6 0 0 0 0 0 0
9 31 3 0 0 0 5 8 8 7 1 13 22 0 0 0
0 2 6 7 1 4 6 4 1 0 1 0 1 2 9 4
10 6 1 11 20 17 8 13 16 21 24 27 47 87 108 116
117 116 117 116 117 116 116 115 114 115 115 115 113 108 100 90
77 67 50 29 29 28 29 29 28 29 30 30 30 29 29 29
30 29 30 30 30 29 30 29 29 29 29 29 29 28 29 28
28 28 28 27 27 27 28 28 29 29 28 29 28 27 26 25
8 3 0 2 0 0 0 0 0 6 0 0 0 0 0 0
10 31 3 0 0 0 4 8 8 8 1 12 23 1 0 0
0 1 3 7 1 4 6 4 1 0 5 2 0 2 1 12
7 1 0 4 9 9 5 15 15 18 18 26 53 91 113 116
116 116 116 116 116 107 80 59 59 68 87 108 112 110 104 96
82 71 55 32 29 29 30 30 30 30 30 29 29 30 29 29
29 29 30 29 31 30 29 30 30 29 29 29 29 28 29 29
28 28 28 28 28 28 29 28 28 28 28 29 28 26 24 23
9 3 0 1 0 0 0 0 0 7 0 0 0 0 0 1
15 34 6 0 0 0 0 2 6 8 1 11 32 24 16 10
6 3 2 6 2 1 3 3 3 2 14 6 4 1 3 10
4 0 0 1 8 6 5 10 17 17 18 38 74 95 114 115
108 86 63 38 14 3 31 14 0 0 0 3 25 62 99 99
88 78 58 38 29 29 30 30 30 29 30 30 30 30 30 30
30 31 31 30 30 30 30 30 30 30 29 29 29 29 29 28
29 28 27 26 26 28 29 27 25 25 22 21 19 16 14 11
9 4 0 0 0 0 0 0 0 17 11 5 4 2 0 0
10 38 28 20 16 13 6 2 1 3 0 10 34 36 33 32
26 4 3 5 5 0 4 2 5 4 14 10 7 0 2 5
2 0 0 0 7 4 2 8 15 22 20 45 60 57 41 20
2 0 0 0 0 1 24 8 0 0 0 0 0 0 11 74
93 84 52 31 30 30 31 30 30 30 31 30 30 30 30 31
31 31 31 31 31 31 31 30 30 29 29 30 28 28 27 26
27 27 25 25 23 22 19 17 15 12 11 10 10 11 11 12
9 4 0 0 0 0 0 0 0 27 39 31 27 27 23 16
20 42 25 19 21 23 23 22 19 18 17 24 37 35 34 33
28 5 3 3 3 0 1 1 4 7 16 11 4 0 0 8
7 0 1 1 6 8 3 9 7 6 3 1 0 0 0 0
0 4 5 7 6 3 1 5 0 0 0 0 0 0 0 6
78 86 41 8 14 12 21 30 30 31 31 31 30 30 31 31
31 32 31 31 31 31 30 28 28 28 27 28 27 26 25 22
21 18 17 14 13 12 12 12 13 13 14 15 16 16 17 17
9 5 0 0 0 0 0 0 0 30 42 32 37 39 42 42
38 40 18 10 10 11 12 13 14 17 20 25 25 23 27 28
28 6 5 2 4 0 0 0 7 13 13 7 2 1 5 2
3 0 2 5 7 8 0 0 0 0 1 5 13 21 30 38
50 57 68 69 43 18 13 22 0 0 0 0 0 0 0 0
39 82 22 0 0 0 0 16 32 31 31 31 31 30 30 31
30 30 30 31 30 29 29 29 30 24 22 20 17 15 14 13
13 14 14 15 16 16 18 17 19 19 20 20 19 15 19 21
10 13 14 9 5 1 0 0 0 29 35 32 39 41 44 44
37 30 17 10 10 10 9 8 7 7 6 6 7 9 11 14
21 8 4 2 5 1 0 0 4 13 6 3 4 4 7 0
1 0 0 0 3 10 2 0 3 10 60 83 95 102 103 99
104 104 99 76 64 40 26 20 0 0 0 0 0 0 0 0
8 60 5 0 0 0 1 6 31 29 30 31 31 31 31 31
30 28 27 25 23 20 18 19 30 20 12 14 15 16 16 17
18 18 19 20 20 20 22 22 22 23 23 23 23 20 16 22
10 19 35 37 34 29 23 18 16 33 27 31 38 40 43 44
38 32 20 11 11 9 7 6 7 6 6 6 5 6 7 8
20 11 1 2 5 2 0 2 4 8 1 0 6 10 1 0
0 0 0 5 7 8 10 6 18 33 94 104 108 109 108 107
106 101 93 98 80 43 27 19 0 0 0 0 0 0 0 0
2 1 0 0 0 0 2 5 31 30 30 28 27 26 24 21
19 18 16 16 16 17 17 16 25 18 15 18 20 21 21 21
22 22 23 24 24 24 24 24 25 25 25 24 25 25 22 15
10 18 36 39 39 38 38 38 39 38 16 17 25 30 35 38
36 33 23 12 10 8 5 5 5 6 7 7 7 8 9 11
22 14 2 2 5 2 1 4 10 8 0 0 24 68 64 14
3 7 17 15 24 16 11 11 29 57 101 110 111 111 109 107
106 106 111 109 70 23 12 17 0 0 0 0 0 0 0 0
14 0 0 0 0 0 1 6 25 23 20 19 18 17 17 18
18 19 20 20 21 22 22 20 26 21 18 22 23 24 25 26
26 26 27 26 27 26 25 26 25 26 26 25 25 26 27 23
9 17 35 39 39 39 40 39 41 35 5 0 1 3 7 13
17 26 24 11 9 5 0 0 0 2 8 9 7 6 11 12
23 25 7 5 3 2 6 7 18 7 0 22 98 111 109 61
10 5 9 16 19 14 16 23 40 85 107 112 113 112 113 115
115 113 115 100 34 25 25 11 0 0 0 0 0 0 0 1
14 10 0 0 0 0 3 6 18 19 20 20 20 21 21 22
23 23 24 24 25 25 25 23 26 22 21 25 26 26 26 27
27 27 28 27 28 28 27 27 27 25 26 26 25 27 27 27
15 18 28 31 32 33 34 36 39 33 3 0 0 0 0 1
7 25 25 9 8 4 0 0 0 0 2 2 0 0 4 5
21 32 13 2 2 2 11 6 9 1 3 81 95 88 86 82
61 25 13 9 10 15 19 34 51 91 105 109 112 112 112 117
117 117 111 89 49 50 31 5 0 0 0 0 0 0 0 1
31 70 5 0 0 0 2 9 23 23 24 24 24 25 25 26
27 28 28 28 28 28 27 22 12 8 19 26 28 27 28 28
28 28 28 28 28 28 28 27 28 27 25 26 25 26 27 27
15 17 18 20 23 26 26 28 36 30 2 0 0 0 0 0
1 25 25 9 7 2 0 0 1 0 0 0 0 0 0 0
19 34 17 1 2 3 6 7 13 0 30 105 109 120 119 88
56 82 65 37 26 21 31 37 56 92 104 108 109 109 111 117
117 117 112 106 70 52 34 1 0 0 0 0 0 0 0 9
54 105 49 0 0 0 1 12 27 27 28 28 28 27 29 28
29 28 29 29 28 28 27 18 2 1 15 27 29 30 29 29
28 29 28 28 29 28 28 28 28 28 27 26 26 24 27 28
14 16 15 15 18 25 24 26 36 29 1 0 0 0 0 0
0 24 22 3 1 0 0 0 3 4 1 0 0 0 0 0
18 33 17 0 0 5 4 7 8 0 64 108 120 120 119 94
65 86 91 72 30 22 28 37 66 95 103 107 108 106 111 117
117 116 112 109 78 50 36 0 0 0 0 0 0 0 7 13
81 114 95 19 0 0 2 15 30 29 29 29 29 30 30 30
30 31 29 23 20 15 23 17 6 2 13 27 29 30 30 29
29 29 29 29 29 29 29 29 28 28 27 27 25 24 24 27
12 14 13 17 22 26 27 31 36 29 1 0 0 0 0 0
0 27 17 0 0 0 0 0 1 8 6 1 0 0 0 0
18 34 20 0 0 7 5 2 1 1 82 108 120 119 118 109
97 76 99 74 31 18 25 42 79 99 105 110 109 106 109 114
115 115 109 105 89 45 34 0 0 0 0 0 0 6 18 18
106 115 109 72 3 0 2 21 30 30 31 31 31 31 31 30
31 31 20 2 1 2 19 15 1 0 12 26 29 29 30 29
28 29 29 28 29 29 28 28 28 28 28 28 28 26 24 24
14 12 0 1 3 7 11 15 20 24 1 0 0 0 0 0
0 27 19 0 0 0 0 0 1 8 11 6 2 0 0 0
17 36 23 0 0 3 8 1 0 2 86 113 118 119 117 111
102 64 82 48 34 16 18 47 86 99 105 108 106 105 107 110
115 115 113 108 101 66 37 6 0 0 0 0 7 23 15 47
113 112 109 100 47 0 4 23 32 31 31 31 31 32 31 31
31 31 26 17 21 24 27 20 1 0 10 26 28 29 30 28
29 29 28 28 28 28 28 28 28 28 27 27 28 26 24 22
19 14 0 0 0 0 0 0 0 12 1 0 0 0 0 0
0 28 15 0 0 0 0 1 11 12 13 10 4 0 0 0
17 36 25 0 0 3 7 1 0 1 82 114 111 118 120 110
66 75 105 89 29 11 26 60 86 99 105 108 106 104 107 112
114 116 115 114 107 97 64 23 0 0 0 0 19 25 10 92
112 110 104 100 90 33 4 29 32 31 32 32 32 32 32 32
32 32 31 31 30 29 28 22 3 0 12 27 29 29 30 29
30 29 29 28 28 27 28 28 28 28 27 27 28 26 26 23
18 14 0 0 0 0 0 0 0 9 1 0 0 3 1 0
0 27 14 0 0 0 0 1 11 15 12 3 1 0 0 0
16 36 30 3 0 1 4 2 0 0 63 110 105 117 111 102
98 89 99 110 81 36 46 62 88 97 102 106 104 104 104 111
115 115 117 116 114 111 103 69 18 0 0 4 24 11 59 114
109 105 102 99 98 87 25 31 32 31 32 32 32 32 31 32
32 32 31 30 31 29 29 25 7 0 16 27 29 29 30 29
28 28 29 28 29 28 28 28 28 27 27 26 26 26 25 22
17 14 0 0 0 0 0 0 0 9 1 0 1 12 7 0
0 27 12 0 0 0 0 0 1 9 8 0 0 0 0 0
13 35 32 5 0 0 4 0 0 0 32 109 105 117 101 108
115 96 93 117 109 81 61 66 85 91 97 103 104 105 106 110
115 116 117 117 116 115 113 108 89 43 13 7 19 66 110 107
98 95 97 101 102 99 70 31 31 31 31 32 32 32 32 32
32 31 31 31 31 29 27 24 15 6 21 28 29 29 30 29
29 28 29 27 28 28 28 28 27 27 26 26 26 25 25 23
15 14 0 0 1 9 2 0 0 8 2 0 6 12 10 3
0 26 11 0 0 0 0 0 0 6 8 0 0 0 0 0
9 35 33 7 0 0 1 0 0 0 7 92 109 117 96 109
119 94 89 120 117 98 77 74 82 86 95 101 101 104 108 111
114 117 118 117 117 117 117 116 110 99 85 74 82 101 105 101
103 104 108 112 115 104 85 34 32 32 31 31 32 32 31 31
32 31 31 31 31 29 28 24 22 21 25 29 29 29 30 29
29 29 28 28 28 28 28 28 27 27 26 26 26 25 24 22
14 13 0 0 5 14 5 1 0 12 18 12 19 20 18 13
6 29 11 0 0 0 0 0 0 6 11 0 0 0 0 0
6 34 30 7 0 0 0 0 0 0 2 53 114 118 99 107
112 92 89 119 119 108 88 74 82 86 91 100 101 104 107 112
113 116 117 117 117 117 117 117 116 108 99 88 86 103 102 110
113 115 114 107 101 100 83 32 31 32 31 32 32 32 32 32
31 31 31 31 30 29 28 25 24 25 28 29 29 29 30 29
29 29 28 28 28 27 27 27 26 26 25 25 25 24 23 21
13 13 0 0 1 5 1 0 0 14 33 32 36 36 35 36
36 40 13 0 0 0 0 0 0 7 11 0 0 0 0 0
4 31 30 6 0 0 0 0 0 0 2 22 105 119 108 97
112 106 89 105 120 112 96 78 82 88 94 98 101 103 109 111
112 115 117 117 117 117 118 117 117 112 99 84 80 96 97 107
111 99 71 70 91 93 63 32 32 31 32 31 32 32 31 31
31 31 31 31 30 29 28 27 26 28 30 30 30 30 30 30
29 28 28 28 28 27 27 26 26 26 26 25 24 24 23 21
14 14 3 0 0 0 0 0 0 13 35 35 38 37 37 41
45 44 26 13 15 10 6 3 5 11 15 4 3 2 1 0
4 25 29 7 2 0 0 0 0 0 2 8 69 118 119 102
104 104 86 82 117 111 99 81 79 88 93 98 102 104 109 112
111 114 115 116 117 117 117 117 117 112 97 77 82 95 84 80
73 62 77 72 73 68 37 32 32 32 32 32 32 32 32 32
32 32 31 30 30 29 29 27 28 29 30 30 30 30 30 29
29 28 28 28 27 27 27 25 25 25 24 23 22 21 21 20
15 16 13 2 0 0 0 0 0 12 33 33 35 35 35 41
45 45 34 28 29 28 26 24 25 24 23 19 17 15 14 13
17 26 31 15 8 0 0 0 1 1 2 6 25 104 119 118
114 105 93 82 107 111 101 85 81 87 93 97 103 106 108 111
112 114 114 116 117 116 117 117 116 108 91 73 89 101 96 89
88 84 80 58 61 60 35 32 32 31 31 31 32 32 32 32
32 32 31 30 31 30 29 28 29 30 29 29 29 28 29 28
28 28 27 26 26 26 26 25 25 25 24 23 23 21 22 21
17 17 9 0 0 0 0 0 0 12 32 30 32 32 32 33
31 31 31 31 32 32 30 29 31 31 29 28 26 25 23 22
23 28 36 28 23 3 0 0 1 2 3 4 16 62 114 120
115 118 115 116 111 107 100 88 83 87 90 97 100 106 109 113
115 114 115 117 117 117 116 115 112 99 76 77 96 104 97 90
86 80 67 51 67 60 34 31 32 31 31 31 31 32 31 31
31 31 30 30 30 30 29 29 30 29 30 29 30 29 29 29
28 28 27 27 27 26 26 25 25 24 23 22 22 22 21 21
18 18 8 0 0 0 0 0 0 13 34 29 29 30 30 30
29 28 31 33 33 35 34 34 32 31 31 30 33 35 33 30
30 32 38 37 35 15 0 0 1 2 4 4 10 31 86 117
119 115 119 119 111 102 98 90 87 84 88 96 101 105 109 111
114 116 117 117 117 117 116 114 105 84 72 86 99 99 96 94
87 76 64 56 63 57 32 31 31 31 31 31 31 31 30 31
31 31 31 30 30 30 30 30 31 31 30 30 30 30 29 29
28 28 27 26 26 25 25 25 24 23 23 23 22 21 21 18
17 16 22 22 20 15 14 12 10 20 37 30 31 31 30 32
32 33 35 34 34 36 39 39 34 30 31 31 38 40 38 36
36 35 32 27 25 19 1 0 0 2 3 3 15 34 56 91
120 119 119 119 115 100 95 87 87 85 90 93 99 106 111 112
113 115 117 116 117 116 116 110 90 69 78 90 103 105 107 101
97 91 70 63 60 51 32 32 31 31 31 31 31 31 32 31
31 31 31 31 30 31 31 31 30 30 30 30 29 30 28 28
28 27 27 26 26 25 25 24 23 22 22 21 21 19 19 18
18 17 33 39 40 37 37 40 40 40 40 33 32 32 33 33
36 38 41 36 35 37 40 39 35 31 27 28 37 41 39 36
36 37 34 29 23 21 8 0 0 0 3 2 4 15 51 69
99 117 119 119 117 97 89 86 86 84 89 94 100 106 112 110
111 113 116 115 116 116 113 103 76 75 87 104 114 115 115 112
102 93 81 67 52 40 31 31 31 31 31 31 31 31 31 31
32 31 31 31 30 30 31 31 31 30 30 29 29 29 28 28
27 27 26 26 25 24 24 24 23 22 21 19 19 19 18 17
18 18 34 44 44 43 44 44 44 44 41 29 27 26 26 27
31 37 42 37 36 34 33 34 35 32 28 25 31 31 29 29
32 34 33 32 28 25 18 2 0 0 1 6 1 3 56 70
71 85 104 108 101 92 79 80 83 82 89 97 103 107 112 111
113 114 114 112 115 114 110 90 72 76 96 109 113 107 97 87
77 71 67 57 41 34 32 31 31 31 31 31 31 31 31 31
31 30 30 31 29 31 30 30 30 30 29 29 29 28 28 28
27 26 27 25 25 24 23 23 22 20 20 19 18 17 18 17
19 17 25 31 32 34 35 37 38 39 38 12 7 5 3 5
8 15 35 38 33 19 12 16 18 19 21 28 28 12 4 3
7 13 17 28 30 28 27 16 0 0 0 6 2 10 56 71
73 68 75 64 60 78 71 73 81 83 91 99 104 109 112 113
112 112 111 113 112 112 104 83 77 78 61 73 63 68 75 74
68 62 53 41 42 33 32 32 31 31 31 31 32 32 31 30
29 28 28 27 24 25 28 31 31 30 30 30 29 29 28 27
27 27 26 25 24 24 23 22 21 20 19 19 18 18 18 17
19 16 20 24 24 24 24 24 24 25 27 6 0 0 0 0
0 1 29 37 25 3 0 0 2 5 14 29 29 8 0 0
0 3 10 24 20 18 20 22 7 0 0 1 3 12 57 76
86 78 99 104 78 67 62 70 78 81 91 99 103 107 110 109
110 109 109 111 110 107 99 86 86 96 84 100 91 110 78 86
84 92 69 68 44 30 29 28 27 28 28 30 31 30 31 26
15 13 12 10 8 9 21 31 31 30 30 29 29 29 28 27
26 26 26 25 23 22 22 21 21 19 19 18 17 17 18 17
18 16 24 29 29 30 29 28 27 28 27 8 1 0 0 0
0 7 30 35 12 0 0 0 0 0 14 32 29 8 0 0
0 0 9 21 6 1 4 4 3 1 0 0 0 9 59 85
100 92 97 104 84 65 58 66 80 83 92 100 104 109 109 110
111 112 111 107 108 107 97 95 93 106 113 101 84 102 81 82
71 86 79 76 24 16 14 11 10 11 14 26 31 31 31 25
7 5 5 5 5 6 18 31 30 30 30 29 29 29 28 27
26 26 25 24 23 21 21 21 20 19 18 18 17 16 17 16
17 16 26 31 32 32 32 32 32 33 31 9 1 0 0 0
0 8 29 33 6 0 0 0 0 0 11 32 29 9 0 0
0 0 7 22 7 1 8 6 0 1 0 0 2 18 57 84
98 99 99 104 89 64 52 61 74 83 94 99 106 108 110 110
110 110 109 107 107 105 98 97 95 104 116 117 112 108 102 98
95 78 58 50 12 9 6 3 3 2 4 20 31 31 31 24
8 5 5 5 5 5 19 31 31 30 31 29 29 28 27 27
26 25 25 24 23 22 21 20 19 18 18 17 17 17 16 16
19 19 27 32 33 33 32 32 33 35 32 8 0 0 0 0
2 1 24 30 3 0 0 0 0 0 10 32 28 9 0 0
0 0 5 22 8 0 5 5 0 3 4 0 2 18 51 80
93 98 101 105 91 65 49 56 69 84 93 101 106 109 110 109
109 109 108 109 105 104 100 96 93 101 116 117 117 118 117 112
101 87 68 56 18 7 5 3 3 2 3 19 31 31 31 24
7 5 5 5 5 5 16 30 31 30 30 30 29 29 27 27
26 25 24 22 22 20 19 18 18 18 18 18 17 16 17 16
24 24 27 28 29 29 23 12 18 29 36 11 0 0 0 0
4 1 20 29 2 0 0 0 0 0 11 32 27 8 0 0
0 0 0 21 10 0 4 3 0 3 18 0 0 14 49 76
89 94 103 108 98 69 50 53 70 84 90 99 105 108 108 107
108 110 110 108 106 104 101 99 93 99 116 118 118 118 118 117
110 94 73 58 23 7 6 2 3 2 3 18 30 30 31 24
7 5 6 6 6 5 15 31 31 31 30 30 28 28 27 25
25 25 23 23 21 20 20 19 18 18 18 18 17 17 16 16
22 23 24 25 26 26 16 0 1 19 39 19 2 0 0 0
3 0 18 28 1 0 0 0 0 0 10 32 27 10 0 0
0 0 0 20 12 0 5 4 0 3 30 11 0 21 50 73
88 92 103 108 102 76 51 50 68 83 90 96 102 105 106 109
109 107 108 106 104 103 103 97 95 101 114 116 118 118 117 112
104 87 68 57 18 8 6 3 3 2 3 18 31 31 31 25
10 7 7 8 8 8 13 27 29 29 29 28 28 28 27 26
24 24 23 22 21 20 19 19 19 18 17 17 17 17 16 15
22 23 24 24 25 25 18 0 0 15 37 17 1 0 0 0
3 1 18 28 1 0 0 0 0 0 5 31 27 12 0 0
0 0 0 19 16 0 0 0 0 2 29 25 3 35 51 69
85 92 100 108 106 81 59 50 64 77 88 92 98 101 105 109
108 108 107 104 103 104 101 99 94 104 110 114 117 118 116 108
98 78 62 47 11 8 6 2 3 2 2 17 30 30 31 27
15 12 12 12 12 12 17 24 25 27 29 29 28 27 26 25
24 23 23 22 21 20 19 19 18 17 17 16 16 16 15 14
12 13 14 18 22 25 20 0 0 12 35 10 0 0 0 0
0 0 17 29 2 0 0 0 0 0 4 31 27 10 0 0
0 0 0 16 21 0 0 0 0 3 28 29 6 35 52 67
83 91 100 106 107 86 64 54 57 77 82 87 95 97 101 107
105 109 106 104 103 101 99 99 99 101 105 112 117 117 115 110
100 80 59 31 5 5 4 3 3 2 2 17 30 31 31 28
12 8 8 5 1 0 3 4 3 5 27 29 29 27 26 26
25 23 22 21 20 19 19 18 17 16 17 16 16 16 14 15
0 0 0 8 21 24 21 1 0 9 31 8 0 0 0 0
0 0 15 32 3 0 0 0 0 0 3 31 28 12 1 0
0 1 2 18 24 0 0 0 0 3 27 29 10 35 53 64
81 91 98 105 109 94 68 62 53 65 75 84 86 92 95 100
102 105 103 106 103 99 100 100 102 103 105 112 114 117 111 111
101 85 61 20 3 2 3 3 3 2 2 15 30 30 31 28
11 6 7 3 0 1 5 19 10 1 26 29 28 27 26 25
24 22 22 21 20 19 18 18 18 17 17 16 16 15 14 14
0 0 0 8 23 24 22 2 0 6 30 12 2 1 1 3
11 8 17 34 16 9 8 10 10 9 13 33 30 25 24 23
23 25 28 35 30 6 4 3 3 7 28 29 18 33 56 63
78 89 100 107 109 102 77 66 59 53 65 75 78 81 89 94
97 99 100 101 97 100 96 99 100 102 102 112 107 113 114 114
107 92 68 24 0 0 4 3 4 3 2 14 30 31 31 28
11 5 6 3 0 0 1 5 2 1 24 28 28 27 26 26
24 23 22 20 20 19 18 18 17 16 16 15 15 15 15 14
0 0 0 6 24 23 21 4 0 3 28 29 26 22 22 29
35 33 33 35 39 37 35 35 36 37 37 40 32 27 34 36
37 41 45 46 40 26 24 23 23 24 28 27 25 34 58 61
73 87 101 109 112 108 90 73 67 56 49 54 62 68 74 83
89 94 91 95 96 97 99 94 96 99 103 99 104 110 112 109
109 99 77 42 2 3 7 3 3 2 1 13 29 30 31 28
12 5 5 3 0 0 0 0 0 0 23 27 25 24 25 25
23 22 21 20 19 19 18 17 16 16 15 14 15 14 14 14
0 0 0 5 23 22 21 4 0 1 27 35 35 30 33 38
42 37 33 30 39 43 40 40 40 42 44 43 35 25 31 34
37 41 45 45 40 28 27 27 27 27 28 35 34 37 61 63
71 84 101 112 115 113 103 84 63 61 54 45 46 50 64 71
78 82 84 90 93 92 91 96 92 91 96 97 104 105 105 107
107 102 83 56 7 0 3 3 4 3 1 11 28 30 31 28
12 5 5 1 0 0 0 0 0 0 20 14 7 6 20 24
23 22 21 20 19 18 17 16 16 15 15 15 15 14 14 14
0 0 0 3 24 23 21 6 0 0 25 34 31 27 31 37
42 38 32 27 30 34 33 33 32 33 33 33 31 23 24 28
31 32 31 30 30 27 28 28 27 27 28 50 12 41 63 63
68 84 101 113 118 116 110 101 81 71 65 60 49 42 52 59
61 60 71 78 88 87 86 87 86 87 93 96 100 100 106 103
104 98 83 61 13 0 2 3 3 3 1 12 28 30 31 28
12 4 4 0 13 18 1 0 0 0 7 16 22 13 6 24
23 21 20 19 18 18 17 16 15 14 15 15 15 14 14 14
0 0 0 2 22 22 21 7 0 0 23 30 23 24 25 30
39 39 34 29 23 21 21 22 22 22 22 23 26 25 26 28
29 28 25 23 25 27 27 28 28 28 40 52 8 47 65 64
66 84 97 110 119 119 114 103 94 83 72 68 66 59 55 56
54 53 59 64 73 81 81 87 86 85 85 86 90 91 97 98
98 92 80 62 11 1 2 3 3 3 1 11 28 30 31 28
11 3 4 4 25 39 9 0 0 6 23 27 26 24 5 20
22 21 21 19 18 17 17 16 16 14 14 14 14 14 14 14
0 0 0 1 21 22 20 9 0 4 25 26 9 11 14 17
24 26 25 30 25 22 23 24 28 29 27 26 29 29 30 33
35 33 28 25 25 26 27 27 28 28 68 51 9 54 66 64
65 82 98 104 117 120 116 108 97 86 75 70 71 66 63 62
59 55 57 58 62 67 74 80 84 80 80 78 81 80 83 83
85 80 73 52 4 3 3 2 3 4 1 10 28 29 31 28
13 3 4 2 9 16 8 0 0 10 27 27 26 25 9 16
22 21 20 19 18 17 17 16 15 15 15 15 15 14 14 14
0 0 0 0 20 22 19 16 16 23 32 25 1 0 0 0
2 6 10 28 28 30 33 31 39 42 32 24 26 27 28 32
36 39 31 27 27 26 28 28 28 32 95 51 14 62 70 65
64 77 93 106 115 119 115 113 104 90 84 76 73 70 72 67
65 62 59 59 61 62 68 69 72 72 72 70 70 72 73 74
73 71 63 25 3 3 3 2 2 4 1 10 28 29 30 28
15 6 7 1 2 1 0 0 0 10 28 27 26 25 10 15
22 21 20 19 18 17 17 15 16 15 15 14 14 14 14 14
0 0 0 0 18 22 19 23 33 36 38 27 0 0 0 0
0 0 8 31 28 33 37 31 39 42 21 3 3 4 4 6
20 38 33 27 27 27 28 28 28 40 110 45 20 68 73 66
63 75 92 104 116 118 112 112 108 98 92 86 86 84 79 75
70 64 60 59 59 59 63 64 65 67 65 63 62 58 61 59
52 46 21 4 3 4 3 3 2 4 2 9 27 30 31 29
24 17 10 4 0 0 0 0 0 8 27 27 26 25 10 18
22 21 19 19 18 17 16 16 16 15 16 15 15 14 15 14
0 0 0 0 16 21 19 23 36 38 40 31 1 0 0 0
0 0 4 33 27 31 33 12 12 23 15 0 0 0 0 0
12 36 34 28 28 28 28 28 28 57 116 34 27 72 79 70
64 71 91 104 115 119 119 112 106 104 101 100 100 100 92 90
85 75 65 59 56 57 58 57 58 58 57 54 52 51 54 60
40 20 6 4 4 3 4 3 3 4 2 9 27 29 31 30
29 13 13 21 3 0 0 0 0 6 27 27 26 23 8 23
23 22 21 20 19 18 17 16 15 16 15 14 14 14 14 14
0 0 0 0 14 20 18 21 29 30 30 22 1 0 0 0
0 0 4 33 27 31 31 4 0 15 16 0 0 0 0 0
8 34 33 29 28 28 28 29 38 78 118 44 34 76 84 76
65 69 88 103 116 120 120 119 107 101 102 100 103 104 102 100
96 84 75 62 53 48 45 45 45 45 40 50 76 86 92 94
86 67 47 30 20 10 5 3 4 4 3 9 27 30 31 31
31 17 24 36 10 0 0 0 0 5 25 24 23 12 11 20
13 12 18 19 18 17 16 15 16 15 15 14 14 14 14 14
0 0 0 0 12 19 16 16 13 11 14 6 0 0 0 0
0 0 5 34 27 31 32 4 0 13 18 0 0 0 0 0
6 33 34 28 29 29 32 56 72 89 118 52 37 78 87 81
67 68 87 105 117 120 120 120 114 95 99 105 105 108 111 110
103 94 78 60 42 27 14 6 3 9 13 52 96 98 98 97
92 90 89 90 92 86 71 49 31 15 5 9 23 24 22 20
17 7 5 8 2 0 0 0 0 0 3 2 2 0 7 12
8 21 16 18 18 17 16 15 15 15 14 14 14 14 13 14
0 0 0 0 10 20 17 15 11 10 13 4 0 0 0 0
0 0 5 33 27 32 31 4 0 12 20 0 0 0 0 0
3 33 45 49 60 71 80 79 68 94 119 58 38 79 90 83
70 67 85 104 116 119 120 120 117 107 99 104 104 105 112 112
108 97 76 52 22 8 1 0 1 43 75 81 95 101 100 98
95 93 98 99 100 97 90 85 86 83 76 69 52 27 6 0
0 0 0 0 0 0 0 0 0 0 0 0 0 0 4 8
64 85 35 17 17 16 16 14 15 14 14 14 14 14 13 14
0 0 0 0 9 19 16 15 12 11 14 5 0 0 0 0
0 0 3 32 26 32 31 4 0 11 19 1 0 0 6 36
71 103 110 107 115 106 92 75 72 98 120 64 34 78 91 86
74 69 81 102 116 120 120 119 118 111 108 102 105 111 113 116
110 99 78 55 32 17 6 0 22 101 119 104 99 104 103 100
97 97 102 103 98 92 92 92 99 103 103 104 106 103 93 63
28 7 6 6 6 7 8 9 10 10 8 3 0 0 11 12
60 62 38 5 4 8 16 15 15 15 14 14 14 14 14 14
0 0 0 0 8 19 16 15 14 14 15 5 0 0 0 0
1 0 1 31 28 33 33 9 2 10 21 7 22 64 105 120
120 120 114 106 117 109 94 80 80 99 120 71 32 73 95 88
76 70 77 100 114 119 119 120 119 113 110 109 107 108 114 115
106 88 66 61 64 53 22 1 68 108 117 107 101 106 106 107
111 111 111 110 109 109 113 113 116 116 116 116 116 116 114 109
101 76 32 12 12 12 13 13 12 12 9 3 0 0 0 0
0 0 0 1 0 6 19 18 18 17 17 17 17 17 17 16
0 0 0 0 6 19 15 15 15 15 16 5 0 0 0 0
4 6 1 30 30 34 33 18 8 10 40 82 115 121 122 121
120 120 117 106 119 105 92 90 87 99 120 84 33 62 94 90
81 74 75 95 111 119 119 119 119 115 109 108 110 108 108 108
100 76 65 69 84 75 29 11 94 111 116 109 101 107 109 114
116 117 117 116 117 117 117 117 117 117 117 117 117 116 116 117
115 112 101 57 17 14 15 14 14 13 10 3 0 0 0 0
0 0 0 1 0 5 15 12 11 10 9 8 7 6 4 4
0 0 0 0 5 18 15 15 16 16 17 8 0 2 0 0
7 15 7 28 31 35 33 28 57 89 112 117 119 119 121 121
119 118 119 113 119 103 95 93 93 100 120 113 52 53 91 94
84 79 75 89 106 118 120 119 119 116 112 108 107 107 107 102
86 66 68 85 91 74 18 37 105 112 117 110 104 106 108 114
118 118 118 117 118 117 117 117 117 116 117 116 117 117 116 116
116 116 115 109 71 22 15 15 15 13 11 5 0 0 0 0
0 0 0 0 15 19 19 19 19 20 21 22 23 23 24 25
0 0 0 0 5 17 14 13 16 17 17 17 14 18 18 18
25 30 29 38 36 45 76 105 118 120 120 120 121 121 120 121
119 119 120 117 118 104 93 95 99 100 118 119 87 49 81 97
87 82 78 88 106 118 119 120 119 117 111 110 106 102 101 94
72 71 83 95 95 60 14 68 109 115 116 110 107 107 107 114
118 117 118 117 118 117 118 118 117 117 117 116 117 116 116 116
117 117 117 117 112 80 28 16 16 14 13 5 0 0 0 0
0 0 0 4 33 32 32 33 31 31 31 31 31 31 30 31
0 0 0 0 4 16 13 13 16 17 17 27 34 36 38 39
41 45 47 61 83 108 117 119 120 121 121 121 121 121 121 121
120 120 120 117 118 106 95 88 98 99 115 121 111 54 62 96
91 87 82 82 102 115 119 118 119 119 117 112 108 103 94 82
78 85 93 102 94 41 38 96 109 117 116 110 107 106 106 114
118 118 117 118 118 117 117 117 116 117 117 117 117 117 116 116
117 117 116 116 116 110 78 26 17 15 14 6 0 0 0 0
0 0 0 5 32 32 32 31 31 31 31 31 31 31 31 31
0 0 0 0 3 15 13 12 15 17 17 26 38 38 39 40
43 58 89 111 117 119 120 121 121 121 121 121 121 120 120 121
121 120 120 119 119 106 98 89 91 97 112 121 118 72 56 81
94 91 87 83 98 114 119 119 119 118 116 114 111 107 99 92
90 90 102 104 79 27 69 107 114 117 114 109 108 105 108 116
118 117 117 117 117 117 117 117 117 117 116 116 116 116 117 117
116 116 117 116 116 115 109 77 22 16 15 6 0 0 0 0
0 0 0 6 32 31 32 31 31 31 31 30 31 31 31 30
0 0 0 0 3 14 12 12 15 17 17 18 26 26 27 30
68 109 119 121 121 121 120 121 121 121 120 120 120 121 121 121
121 120 120 120 118 106 101 95 86 97 109 121 119 99 57 67
94 94 92 84 94 111 118 119 119 119 118 117 111 106 101 93
91 97 106 101 55 33 95 109 117 117 112 107 104 106 110 118
117 118 118 117 116 117 116 116 117 116 117 117 117 117 117 116
117 116 116 116 116 116 115 109 65 20 15 6 0 0 2 4
0 0 0 9 33 31 31 31 31 30 30 30 30 30 31 30
0 0 0 0 2 13 12 10 15 17 17 13 12 12 22 76
116 122 120 121 121 121 121 121 121 121 121 120 121 120 120 120
120 120 120 120 117 107 103 99 87 95 106 120 119 113 68 59
89 99 99 87 93 109 119 119 118 118 117 116 113 107 103 98
97 104 107 83 38 61 101 116 93 115 112 109 108 109 113 118
118 117 117 117 117 117 117 118 118 117 117 117 117 117 116 116
116 116 116 116 116 116 116 115 102 72 23 5 0 0 22 29
3 0 0 10 32 31 32 31 31 30 30 30 30 30 30 30
0 0 0 0 2 13 11 10 14 17 18 15 14 28 89 117
116 120 120 121 121 121 121 121 121 121 120 121 121 121 121 121
121 121 120 120 118 109 103 102 90 92 102 119 120 118 90 58
76 103 103 95 87 105 118 119 119 118 116 113 111 106 101 97
101 110 103 53 46 91 108 112 31 102 114 110 110 112 116 118
117 118 118 118 118 117 117 118 117 117 117 117 117 117 117 117
117 117 117 117 117 116 116 116 115 105 79 12 0 0 10 12
0 0 0 12 33 32 32 31 30 30 31 30 31 30 30 31
0 0 0 0 3 14 12 11 15 18 18 19 43 97 121 116
114 122 122 121 122 121 121 121 121 121 122 121 121 121 121 121
121 121 121 121 120 112 106 105 98 85 101 116 121 120 103 62
67 99 105 100 92 100 118 119 119 118 116 112 108 103 99 100
110 112 85 50 66 109 113 115 39 100 115 108 112 115 117 118
118 117 118 118 118 118 118 118 118 117 118 117 118 118 118 117
118 117 117 117 117 118 116 117 117 116 103 54 0 0 0 0
0 0 0 16 33 32 32 31 31 31 31 31 31 31 31 31
0 0 0 0 5 16 13 12 15 19 21 56 108 121 121 117
113 122 122 121 121 121 121 121 121 121 122 122 122 122 122 122
122 122 121 121 121 113 106 105 105 83 99 113 66 87 117 73
68 88 110 101 95 101 117 120 119 118 115 111 108 104 104 111
115 111 70 59 102 118 117 115 46 109 111 110 117 118 118 119
119 119 119 119 118 118 118 118 118 118 118 118 119 118 118 118
118 118 118 118 118 117 117 117 117 117 107 85 6 0 0 0
0 0 0 18 33 32 32 32 32 31 32 31 32 31 31 31
3 4 5 6 10 14 12 12 15 20 53 111 122 121 121 118
116 122 122 122 122 122 122 122 122 122 122 122 122 122 122 122
122 121 122 122 121 116 108 106 108 95 86 114 69 64 122 102
70 80 109 104 94 100 118 120 121 118 113 113 110 112 116 119
119 100 65 88 116 118 120 108 74 113 110 115 117 117 118 119
119 119 119 119 119 119 119 119 119 118 119 118 119 119 118 118
118 118 118 118 118 117 117 118 118 117 113 108 41 0 0 0
0 0 0 21 33 32 32 32 32 33 32 32 32 32 32 32
8 9 9 9 9 10 11 13 16 22 81 122 121 118 122 118
118 122 123 122 122 122 122 122 122 122 122 122 122 122 122 122
122 122 121 121 121 118 110 107 108 105 76 111 98 70 122 116
78 80 100 112 96 96 116 120 119 118 115 116 117 118 118 120
114 82 89 114 117 119 119 93 99 111 114 117 118 118 119 119
119 119 119 119 119 119 118 119 118 119 119 119 118 118 119 119
118 118 118 118 117 117 117 118 117 117 116 112 88 5 0 0
0 0 0 18 33 32 32 32 31 32 31 31 31 32 31 31
8 9 9 8 9 10 12 12 15 49 106 117 114 121 122 118
120 122 122 122 122 122 122 122 122 122 122 122 122 122 122 121
122 121 121 121 121 120 114 110 108 107 87 92 114 70 117 121
100 84 94 111 103 95 113 120 120 116 113 115 118 118 119 118
99 93 117 118 118 119 117 102 112 113 116 117 118 119 118 119
118 118 119 118 118 118 118 118 118 118 118 118 118 118 118 117
118 118 117 117 117 117 117 118 118 117 118 113 109 41 0 0
0 0 0 8 30 31 31 31 31 31 31 31 31 31 31 31
8 8 8 8 9 9 10 11 20 86 115 108 119 122 122 120
121 121 122 122 122 122 121 121 121 122 122 121 121 121 121 121
121 122 122 121 121 120 117 113 111 108 102 85 102 89 103 121
117 96 94 100 107 99 112 120 119 111 113 118 120 119 119 112
97 117 119 118 119 119 100 112 113 116 118 118 118 118 118 118
119 118 118 118 118 118 118 118 118 117 117 118 118 117 118 118
117 117 117 117 116 118 117 117 117 117 117 114 114 86 7 0
0 0 0 15 19 32 31 31 31 31 30 30 30 31 31 30
1 1 1 1 3 6 8 11 49 104 105 110 121 122 122 122
122 122 122 122 122 122 122 122 122 122 121 121 121 121 121 121
121 121 121 120 121 121 118 116 112 109 109 91 96 101 97 119
120 111 96 89 105 101 109 119 119 113 113 119 119 119 115 100
113 119 119 119 109 91 103 116 116 117 118 117 119 119 118 118
118 119 118 118 118 118 117 118 118 118 117 117 118 117 118 117
117 117 117 116 116 117 117 116 117 117 117 116 114 106 49 5
0 0 1 26 14 27 31 31 31 30 31 30 30 30 30 30
0 0 0 0 1 7 11 14 87 107 98 116 122 122 122 122
122 122 122 122 122 122 121 121 121 121 121 121 121 121 121 121
121 121 121 121 121 120 120 119 117 112 110 104 93 101 104 106
120 119 117 95 94 107 108 119 119 115 113 119 120 118 105 112
114 94 78 103 53 69 116 117 117 117 118 118 119 119 118 117
118 118 118 118 118 118 117 117 117 118 118 118 118 117 117 117
118 118 117 117 117 117 117 117 117 117 116 116 113 112 89 45
0 0 2 28 23 15 30 30 30 30 30 30 30 29 29 29
0 0 0 0 0 6 10 24 111 106 99 120 121 122 122 122
122 122 122 121 121 122 121 121 121 121 121 121 121 122 121 121
121 121 121 121 121 121 121 121 120 117 111 107 99 99 104 101
109 120 111 103 101 95 107 120 119 115 115 120 119 109 110 98
76 79 95 106 55 107 118 117 118 118 118 119 118 118 119 118
118 118 118 118 118 117 117 117 118 117 118 117 118 118 118 117
118 117 117 115 117 117 117 116 117 117 117 117 114 116 100 57
0 0 3 29 30 15 23 30 30 30 30 29 30 30 29 29
0 0 0 0 0 6 11 46 118 103 102 121 120 119 122 122
122 122 122 121 121 121 121 121 121 120 121 121 122 121 122 122
121 121 121 120 121 121 121 121 121 119 113 109 106 99 103 106
95 79 60 71 110 85 84 115 120 118 117 119 118 119 118 115
116 118 119 115 98 117 118 117 119 119 119 117 119 118 118 118
118 117 118 118 118 117 117 117 117 117 117 117 117 118 118 117
118 118 117 113 117 117 117 117 116 116 117 116 114 115 109 85
15 0 4 30 31 21 7 17 30 30 29 29 29 28 29 29
1 0 0 0 2 7 15 77 119 104 107 122 118 121 122 122
122 121 122 121 120 121 121 121 121 121 121 121 121 121 122 121
121 121 121 120 120 121 121 120 121 120 119 115 111 106 105 106
111 73 61 100 110 119 118 119 120 120 120 119 119 117 117 118
119 119 119 118 115 118 116 118 119 118 119 119 118 118 117 118
117 118 118 118 117 116 117 116 117 117 117 117 118 118 117 118
117 117 109 111 117 116 116 116 117 117 117 116 115 114 115 94
52 0 4 23 20 3 4 3 28 29 29 29 29 28 28 28
3 3 3 4 7 10 35 94 117 101 108 119 122 121 122 122
122 121 122 120 119 121 122 121 120 121 121 121 121 121 121 121
121 120 121 120 120 120 120 120 120 121 120 119 117 116 116 109
113 99 76 86 105 119 120 119 120 119 119 119 118 118 118 118
119 119 118 119 115 118 118 118 118 118 118 118 118 118 118 117
117 118 118 118 118 117 117 117 117 117 117 117 118 117 117 117
117 117 92 114 117 116 117 116 115 116 116 116 115 113 116 104
81 13 0 4 11 15 24 2 26 28 28 28 28 28 28 27
4 5 4 4 5 9 64 99 115 101 108 122 122 121 122 121
121 121 121 121 119 121 121 121 120 121 120 121 121 121 121 121
121 120 120 120 120 120 120 120 120 120 120 120 120 120 120 117
115 113 102 89 88 113 119 119 119 119 119 118 119 119 119 119
118 118 119 118 117 118 118 118 118 118 119 118 119 118 118 118
117 118 118 117 118 117 117 118 117 117 117 118 118 117 117 117
117 114 78 117 117 116 116 116 115 117 116 116 116 114 117 112
90 47 0 1 3 10 18 1 20 28 27 28 27 27 27 27
0 0 0 0 0 24 84 105 113 99 107 121 121 120 120 121
121 121 120 121 120 120 121 121 121 120 120 120 121 120 121 120
120 120 121 120 120 120 120 120 120 119 119 119 120 120 120 119
115 116 114 108 86 93 118 119 120 119 118 119 119 118 118 118
119 118 119 119 117 118 118 118 118 118 118 118 117 117 117 117
117 117 117 117 117 117 117 117 117 116 116 117 117 117 117 117
116 111 85 118 116 117 117 116 115 117 116 116 115 112 116 115
96 78 8 0 0 0 0 0 4 19 27 27 27 27 27 27
