P2
128 120
123
24 24 24 24 23 23 22 22 21 21 20 20 19 19 19 18
18 18 18 17 17 16 16 16 15 15 15 14 14 13 13 12
12 12 11 12 11 11 11 10 10 9 7 5 4 4 5 7
8 9 10 7 3 10 14 12 11 10 9 9 8 6 5 3
2 2 1 4 7 5 6 4 6 8 9 9 10 11 11 11
12 12 12 12 13 13 14 14 15 14 15 15 15 15 15 15
16 15 16 17 18 18 19 20 19 19 20 20 20 21 21 21
21 21 21 23 21 22 22 23 23 22 23 23 23 23 23 23
24 23 23 23 23 22 21 21 21 21 21 20 19 20 20 19
18 18 18 17 17 17 16 15 15 15 15 14 13 13 13 13
12 12 12 12 11 11 10 10 9 8 8 6 6 5 6 9
10 11 12 7 2 10 14 12 11 10 10 9 9 7 6 5
5 3 2 4 7 7 5 7 8 9 10 10 11 12 12 13
12 13 14 13 14 14 14 14 15 14 15 15 16 16 16 16
17 18 19 18 19 19 19 19 19 20 20 20 20 21 21 21
21 22 22 23 22 23 22 23 23 23 23 22 22 22 23 23
24 24 23 22 23 22 22 21 21 21 21 20 20 20 19 19
18 18 18 17 17 17 17 16 15 15 15 14 14 13 13 13
13 12 12 12 12 11 11 10 10 9 8 7 6 6 7 10
12 12 13 8 2 9 15 13 12 11 11 10 9 8 7 6
8 5 3 3 7 7 7 8 10 11 12 12 13 13 13 13
13 14 14 14 14 15 15 15 16 16 16 16 17 16 17 17
18 18 19 18 19 19 20 20 20 21 21 21 21 21 21 22
22 22 22 23 22 22 22 22 23 23 23 23 23 24 23 23
24 24 23 23 23 22 22 21 21 21 21 20 21 20 20 20
19 19 18 17 17 17 16 16 15 15 15 15 15 14 14 14
14 13 12 13 12 11 11 10 10 10 9 8 7 7 8 12
13 14 14 9 3 9 15 14 13 12 11 10 10 9 8 8
9 7 4 3 8 6 8 9 11 12 12 12 13 13 14 14
15 15 15 15 15 15 15 15 15 16 17 16 17 18 18 18
19 19 21 20 19 20 20 20 20 20 20 20 21 21 22 22
22 22 23 24 23 23 23 23 23 24 24 23 23 23 23 22
24 23 24 23 23 23 22 21 21 21 21 21 20 20 20 19
19 18 18 18 17 17 17 16 16 15 16 15 15 14 15 14
13 12 12 12 12 12 12 11 11 10 10 9 9 8 9 12
13 14 14 9 3 9 16 13 13 12 12 12 10 10 8 8
8 8 5 2 9 7 9 11 12 13 13 13 15 15 14 14
15 15 14 14 15 16 16 16 17 17 18 18 18 19 18 18
19 19 20 19 20 20 20 21 21 21 21 22 21 22 22 22
22 22 22 23 23 22 23 22 23 23 23 22 22 23 24 25
24 23 23 23 22 22 22 22 21 21 21 20 20 19 20 19
19 19 18 18 17 17 16 16 15 16 15 15 15 15 14 14
14 14 13 13 12 12 11 11 10 10 10 10 10 10 10 13
14 15 15 11 4 8 16 13 12 13 12 11 11 10 9 9
9 9 7 3 9 8 10 12 13 13 14 14 15 16 15 15
14 15 16 16 17 16 17 17 17 17 18 18 18 18 19 19
19 19 21 21 20 20 21 20 20 21 21 21 21 21 22 22
22 22 23 24 23 23 23 21 22 22 23 23 23 23 23 23
24 23 23 23 23 23 22 22 22 21 21 21 20 20 20 19
19 18 18 17 17 17 17 17 16 16 16 15 15 14 14 14
14 13 13 12 12 12 12 11 11 11 11 10 10 11 11 14
15 16 15 10 5 6 16 15 13 13 13 12 12 11 10 10
9 9 8 4 9 9 12 13 14 14 15 15 15 15 15 16
16 16 16 17 17 18 17 18 18 18 18 18 19 19 19 19
19 20 20 20 19 20 20 21 21 21 21 22 22 22 22 22
22 22 21 21 20 22 22 22 23 23 23 22 23 23 23 24
24 23 23 22 23 23 22 21 22 21 20 20 20 20 19 19
19 19 18 18 17 17 17 16 16 15 15 15 15 15 15 14
14 13 13 13 12 12 12 11 11 10 10 10 10 11 12 15
15 16 16 11 6 7 16 15 13 13 13 12 12 11 11 10
10 10 9 6 10 10 12 13 13 14 13 14 15 15 16 16
16 16 17 17 18 18 18 18 18 18 18 18 18 18 19 19
19 20 21 20 20 21 20 21 21 22 20 21 22 21 21 21
21 21 22 22 22 22 23 22 22 23 22 22 23 23 23 23
24 23 23 22 23 22 22 21 21 21 20 21 20 19 19 18
18 18 18 18 18 17 17 17 16 16 16 15 16 15 15 14
14 13 13 12 13 12 12 12 12 12 11 12 11 12 12 15
15 16 15 11 7 5 15 15 14 13 14 13 13 12 13 11
11 11 10 6 10 9 12 14 14 14 15 15 15 16 16 16
16 16 18 17 18 18 18 18 18 18 18 19 19 19 19 19
20 20 21 21 20 20 21 21 22 21 21 19 21 21 22 22
22 22 22 22 22 22 23 22 22 22 23 23 23 23 24 23
24 24 23 23 23 22 22 22 21 21 21 20 21 20 20 19
19 19 18 18 18 18 17 17 17 16 16 16 16 15 15 15
14 15 14 14 13 13 13 13 12 12 12 11 12 12 13 16
16 17 17 12 9 6 15 15 14 13 14 13 13 12 12 12
12 11 10 9 12 12 14 15 15 15 16 16 17 16 17 17
17 18 18 19 18 18 18 18 19 19 19 19 19 19 19 20
20 21 21 21 21 21 21 20 21 21 22 22 22 22 23 22
23 22 23 22 23 23 23 23 23 23 23 23 23 23 23 24
24 23 23 23 23 22 22 22 22 21 22 21 21 21 20 20
20 19 19 18 19 18 18 17 17 17 17 16 16 15 15 16
15 15 14 14 13 14 13 13 13 13 13 13 13 13 14 17
17 17 17 12 8 6 15 16 14 14 15 15 14 14 14 13
12 13 11 10 13 12 15 16 16 16 17 17 17 18 18 18
18 18 19 19 19 19 19 19 19 19 20 19 20 20 21 21
21 21 21 21 20 20 20 21 22 22 22 23 23 23 23 23
24 23 23 23 23 23 23 24 23 24 23 24 24 24 24 24
25 24 24 24 24 23 23 23 22 21 21 21 21 21 21 21
21 21 20 20 19 19 19 18 18 18 17 17 17 16 16 16
16 16 15 15 15 15 14 14 14 13 13 13 13 14 15 18
18 18 18 15 11 5 12 17 16 15 16 15 15 14 15 14
14 13 13 10 14 14 17 17 17 17 18 17 18 18 19 19
19 19 20 20 20 20 21 21 21 20 21 21 21 21 21 20
20 20 20 21 22 23 23 23 23 24 23 25 23 23 24 23
24 24 24 24 25 24 25 24 25 25 25 24 25 25 24 24
25 25 24 24 24 23 23 22 23 23 22 22 22 22 22 22
21 21 21 20 20 19 19 19 19 19 19 18 18 18 18 17
17 17 16 16 16 16 15 15 15 14 14 14 15 15 15 19
19 20 19 14 9 3 13 18 17 17 17 17 16 16 16 15
15 14 14 11 16 15 17 18 18 18 19 19 20 20 20 21
20 20 21 21 20 21 21 21 21 21 21 22 22 21 22 22
23 23 23 23 23 24 24 24 24 25 24 25 25 25 25 25
25 25 25 25 25 25 25 24 25 26 25 25 25 26 25 26
25 26 25 25 25 24 24 24 23 23 23 23 22 22 22 22
22 21 21 21 21 20 20 19 19 19 19 19 18 17 18 18
18 17 17 17 16 16 16 16 15 15 15 15 15 15 16 20
20 20 20 15 11 9 16 20 19 18 18 17 17 17 17 15
16 16 15 13 17 17 19 18 19 19 19 20 20 20 21 21
20 21 22 22 21 22 22 22 22 22 22 22 22 23 23 23
24 24 24 24 24 25 25 25 25 25 25 26 25 25 25 25
26 25 25 25 25 25 26 26 26 26 27 26 26 26 25 25
25 25 25 25 24 24 24 24 24 23 24 23 23 23 23 23
22 22 21 21 21 20 20 20 20 19 19 19 19 19 19 18
18 17 17 17 17 16 16 16 16 16 15 15 16 16 17 20
20 21 20 16 11 12 15 21 19 19 18 18 18 17 18 16
16 17 16 13 17 17 19 19 20 20 20 21 21 21 21 21
21 22 22 22 21 22 21 21 22 22 23 23 23 23 24 24
24 24 24 24 24 25 25 25 24 25 25 26 25 25 25 25
26 26 25 25 26 26 26 25 25 25 25 25 26 26 26 26
25 25 25 25 24 24 24 24 24 23 23 23 23 22 22 22
22 22 22 22 21 21 21 20 20 20 19 19 19 18 18 18
18 17 18 17 17 17 17 16 16 15 16 15 16 16 17 20
20 21 21 16 12 14 15 21 19 19 18 18 17 17 18 16
16 16 16 13 18 18 20 20 20 21 20 21 20 21 21 21
21 21 22 21 21 21 22 23 23 23 24 23 23 23 23 24
24 24 24 24 24 25 25 25 25 25 24 26 25 25 25 25
25 25 26 26 25 25 25 25 25 26 26 26 26 25 25 25
25 24 24 24 23 24 24 24 24 23 24 23 23 23 22 22
22 21 21 21 21 21 20 20 20 20 20 20 19 19 19 19
18 18 17 17 17 16 16 16 16 15 16 16 16 17 18 21
21 21 20 16 12 15 13 20 20 19 19 18 18 18 19 17
17 16 17 14 18 18 19 19 20 20 21 21 21 21 21 21
20 21 21 22 22 22 22 22 22 23 24 23 24 24 24 24
24 24 24 24 24 24 24 24 25 25 25 26 26 26 25 26
26 26 26 26 26 25 26 25 25 25 25 25 25 24 25 25
25 25 24 24 24 24 24 24 24 23 23 23 22 23 22 22
21 22 22 21 21 21 21 20 21 20 20 20 19 19 18 18
18 18 18 18 17 17 17 17 16 16 16 16 16 17 17 21
21 21 21 17 13 16 13 20 20 19 19 19 18 18 18 17
17 17 17 14 18 18 20 20 21 20 21 21 20 20 21 21
22 21 22 22 22 23 23 23 24 23 24 24 24 24 24 24
25 24 23 24 25 25 25 25 26 26 26 26 26 25 25 25
26 25 26 25 26 25 25 25 25 26 26 25 25 25 25 26
25 24 25 24 24 24 24 24 24 24 24 23 23 23 22 23
22 22 22 21 21 21 21 20 20 20 20 20 20 19 19 19
18 18 18 17 17 16 16 16 17 16 16 17 17 17 18 22
22 22 22 17 13 16 13 19 20 20 20 19 19 18 20 18
18 18 17 15 18 18 20 20 20 20 20 21 21 22 22 22
22 22 23 22 22 22 23 23 23 23 24 24 24 24 24 24
25 25 25 25 25 25 25 25 25 25 25 25 26 26 25 26
26 25 25 25 24 24 25 25 25 24 25 25 25 25 25 25
25 24 24 24 24 24 24 24 23 23 23 23 23 22 22 22
22 22 22 22 22 21 21 21 21 20 20 19 19 19 19 19
18 18 18 18 17 17 17 17 17 16 16 17 16 17 18 21
21 22 22 17 13 17 14 20 21 20 20 20 19 18 20 18
17 18 18 15 18 16 20 21 21 21 22 22 22 21 21 22
21 23 22 22 23 23 24 24 24 23 24 24 24 24 24 24
24 24 25 25 25 25 25 26 26 26 26 26 26 25 25 25
24 25 25 25 25 24 25 25 25 25 25 25 25 26 25 25
25 24 24 24 24 24 24 23 24 23 23 23 23 23 23 22
22 22 22 22 21 21 21 21 20 20 20 20 20 20 19 19
18 18 18 18 18 17 17 17 17 17 16 17 17 18 19 21
23 22 22 18 13 18 15 19 20 20 20 20 19 19 20 19
19 18 18 15 18 18 20 21 21 21 22 22 22 22 22 22
23 22 23 23 23 24 23 24 23 23 24 24 24 25 24 25
25 25 25 25 26 26 25 25 25 25 24 24 24 25 26 26
26 26 26 26 27 25 25 25 25 25 25 25 25 25 25 25
25 25 24 25 25 24 24 24 23 23 23 23 22 23 22 22
22 22 22 22 22 22 22 21 20 20 21 21 20 20 19 19
19 18 18 18 18 18 18 17 17 17 17 17 17 17 18 22
23 22 22 18 14 19 16 20 22 21 21 20 19 19 20 19
18 18 18 16 19 17 17 19 19 21 22 22 22 22 22 23
22 22 23 23 23 23 23 24 24 24 24 24 25 25 25 24
24 25 25 25 25 25 25 25 25 25 26 26 25 25 26 25
25 25 25 25 26 25 25 25 25 25 25 25 26 25 25 26
25 25 24 24 24 24 24 24 24 24 24 23 23 23 23 23
23 22 22 22 22 21 21 20 21 20 21 20 20 20 20 19
19 19 20 19 18 18 18 18 18 18 17 17 18 18 19 22
23 23 23 19 14 19 17 19 21 21 21 20 17 16 15 17
16 16 16 14 16 17 12 15 16 15 15 20 21 22 23 23
23 23 23 23 24 25 24 23 24 24 25 25 25 25 25 26
26 25 25 26 26 26 26 26 26 26 26 26 25 26 26 26
26 26 26 27 26 26 25 25 25 25 25 25 25 26 25 24
25 25 24 24 23 25 24 24 24 24 24 24 23 23 23 23
23 23 23 23 22 22 22 21 21 21 21 21 20 20 20 19
20 19 20 19 18 19 18 18 18 18 18 18 18 18 20 22
23 23 23 19 14 20 19 19 22 18 12 12 11 13 14 10
6 10 12 13 11 7 3 3 5 12 11 8 11 15 19 22
22 22 23 23 24 24 24 24 25 25 25 25 25 25 24 25
25 25 26 26 26 26 26 27 26 27 27 26 27 26 26 26
26 26 26 26 26 26 25 26 25 26 25 25 25 26 26 25
25 25 24 24 24 24 24 23 24 23 24 24 24 23 24 23
23 23 23 22 22 22 22 21 21 21 21 20 21 21 20 21
21 20 20 19 19 19 19 18 18 18 18 18 18 19 20 23
24 24 24 20 15 19 20 17 18 12 9 7 12 16 16 18
15 16 20 12 15 13 18 11 11 7 1 0 3 7 14 19
22 23 23 24 25 25 25 25 25 25 24 25 24 25 25 26
26 26 27 27 27 26 26 27 26 26 26 26 26 26 26 27
26 26 26 26 26 26 25 25 25 25 25 25 25 25 25 26
24 24 24 24 24 24 24 24 24 24 24 24 23 24 23 23
23 24 23 23 22 21 21 21 22 21 21 20 21 20 20 20
20 20 19 20 19 19 18 19 19 18 18 17 19 19 20 23
24 24 24 20 15 20 21 19 12 5 8 14 17 17 19 15
10 10 10 6 3 3 6 15 13 4 1 1 0 3 2 5
7 7 15 22 24 24 24 24 24 25 26 25 25 26 26 26
26 26 26 27 26 26 26 26 26 26 26 26 26 26 26 26
25 26 26 26 26 26 25 25 26 25 25 25 26 25 25 25
25 25 25 24 24 24 24 24 24 24 25 24 24 24 24 23
24 24 23 23 23 22 22 22 22 22 21 21 21 22 21 21
21 20 20 20 20 19 19 19 19 18 18 18 19 20 21 23
25 25 24 20 15 18 15 8 5 8 13 16 17 13 14 12
18 16 13 10 5 2 1 8 8 8 4 4 4 2 3 6
6 0 1 6 16 24 25 26 25 25 25 26 25 26 26 26
26 26 26 28 27 27 27 27 27 27 26 27 27 26 26 26
27 26 26 26 26 27 26 26 26 26 26 25 25 25 25 26
25 24 24 24 24 24 24 25 25 24 24 24 24 24 24 23
23 24 23 22 22 22 22 22 22 22 22 22 21 21 21 20
20 20 20 20 19 19 20 19 20 19 19 19 19 20 21 23
25 25 24 21 15 9 5 7 12 16 16 14 16 14 16 16
15 15 15 10 2 0 0 1 4 7 10 9 8 4 0 2
2 3 0 0 0 10 25 25 25 25 26 26 26 26 26 26
27 26 26 27 26 26 26 27 27 27 27 27 27 27 27 26
26 26 26 26 26 26 26 26 26 26 26 26 26 26 25 24
25 25 25 24 24 25 24 24 24 24 24 24 24 24 24 24
24 23 23 23 23 23 22 22 22 22 22 22 22 21 21 21
21 21 21 20 21 20 19 19 18 18 19 19 19 20 21 24
25 25 25 20 11 5 5 12 11 6 11 10 11 9 14 15
11 9 9 10 6 3 1 1 8 8 5 5 10 9 3 0
0 2 1 3 1 2 16 26 25 25 26 25 26 26 26 26
27 26 27 27 27 27 27 27 27 27 26 27 27 27 26 26
26 26 26 26 26 27 26 26 26 25 25 25 25 25 25 25
25 24 25 24 25 25 24 24 24 24 24 24 24 24 24 24
23 23 23 23 22 23 22 23 22 22 22 22 22 22 21 21
21 21 20 20 20 20 20 20 19 19 20 19 20 21 21 24
26 24 17 11 2 3 7 4 1 7 10 10 11 12 17 14
11 14 7 6 4 2 0 1 1 0 1 3 6 10 8 1
1 0 1 2 2 0 1 12 25 26 26 26 27 27 26 27
27 27 27 27 27 27 27 26 27 27 27 27 27 27 26 27
27 27 26 26 26 25 24 24 24 25 25 25 26 26 27 25
26 26 25 25 25 24 24 24 25 24 24 24 25 24 25 24
24 24 24 24 23 23 23 23 23 23 23 22 22 22 22 21
22 21 21 21 21 21 20 21 20 20 19 19 20 20 21 25
25 20 10 7 6 17 6 0 2 7 8 7 9 12 12 13
19 13 11 10 9 11 8 8 6 6 11 10 8 8 3 5
6 2 1 0 0 4 3 0 12 27 26 26 27 27 27 27
28 27 28 28 28 27 28 28 28 28 28 27 27 27 27 27
26 26 26 26 26 25 26 26 26 27 26 24 26 25 26 25
20 23 25 24 24 24 25 24 24 25 25 25 24 24 24 24
25 24 24 24 24 23 23 23 23 23 23 22 22 22 22 22
21 21 21 21 21 21 21 20 20 20 20 20 20 22 24 21
18 11 6 4 15 10 0 0 6 7 7 7 11 8 6 9
8 6 4 3 11 16 18 16 7 10 7 9 16 14 7 8
5 4 0 0 0 0 1 1 2 22 26 26 26 27 27 27
27 27 27 27 27 27 27 27 28 28 27 27 26 26 25 26
25 26 27 26 26 26 26 26 25 26 26 26 25 25 26 25
6 13 25 26 25 25 25 25 24 24 24 24 24 24 25 24
25 24 24 24 24 24 23 23 23 23 22 22 22 22 22 22
22 21 22 21 21 21 21 21 20 20 20 20 21 21 20 17
18 11 6 8 15 2 1 4 7 7 3 8 11 6 5 3
2 2 3 7 8 8 11 9 8 10 6 10 13 11 7 4
5 2 0 0 0 0 0 3 1 11 27 26 26 27 27 27
28 28 28 28 28 27 27 27 27 27 27 27 27 27 26 26
27 27 27 26 26 26 26 25 25 26 26 25 26 25 26 25
3 12 25 25 25 25 25 25 25 24 25 25 25 25 25 25
25 25 25 24 24 23 23 23 23 23 23 23 23 22 23 22
22 22 22 21 21 21 21 20 21 21 20 21 21 14 14 14
11 9 4 15 3 0 1 6 7 3 4 11 10 9 3 2
3 6 4 3 6 10 10 11 13 14 18 20 17 12 9 7
6 4 9 6 3 2 4 0 3 6 23 27 27 28 28 28
28 28 28 27 27 27 26 27 27 27 27 26 28 27 27 27
27 27 27 27 26 26 26 25 26 26 25 25 26 25 26 26
6 11 24 25 25 25 25 24 24 24 25 25 25 25 25 25
25 25 25 25 24 24 23 23 23 23 23 22 26 27 25 24
23 22 23 22 22 22 22 21 21 21 21 21 15 10 10 10
15 4 10 9 2 0 4 6 7 5 7 10 13 9 6 4
9 13 10 10 10 11 16 20 19 20 26 23 15 8 6 3
4 1 4 8 5 4 1 2 2 4 14 27 28 28 27 27
28 27 27 27 27 28 27 27 27 27 27 27 27 27 27 27
27 26 26 26 27 26 26 26 26 26 26 26 25 25 25 25
5 10 24 25 25 25 25 25 26 33 32 31 30 28 26 26
24 24 25 25 24 24 24 24 24 23 23 24 33 35 33 29
28 27 23 22 22 21 22 21 21 21 21 18 9 11 11 12
10 8 12 9 0 1 5 5 3 5 6 13 11 12 5 10
9 5 5 12 19 19 21 28 27 24 20 21 25 15 9 5
5 3 2 6 4 1 4 0 1 4 1 20 28 27 28 28
28 27 27 27 27 27 26 26 27 27 27 26 27 27 27 27
27 27 27 27 27 27 26 26 25 25 26 26 26 25 25 26
6 13 25 26 25 26 25 25 28 35 35 34 32 30 29 28
28 25 26 25 25 24 24 23 24 24 24 25 33 33 32 31
31 31 28 23 22 23 22 21 21 21 20 8 8 10 13 15
6 12 13 7 2 2 6 4 11 4 11 17 16 15 10 14
12 8 14 19 24 25 23 28 27 27 31 29 29 25 15 7
10 16 14 7 4 1 0 0 1 0 0 3 26 27 27 27
27 27 27 28 27 27 26 27 27 27 27 26 27 27 27 27
27 27 26 26 25 26 26 27 26 26 26 26 26 25 25 26
6 15 28 27 27 26 26 26 27 36 35 34 32 31 32 32
34 30 29 29 28 25 24 23 24 24 24 25 31 31 31 30
31 31 29 25 22 22 21 22 22 23 15 6 10 16 14 12
7 14 11 5 3 2 3 9 14 6 16 15 23 8 20 18
14 16 20 23 23 28 34 33 28 32 31 31 33 22 13 9
12 14 13 5 1 4 1 0 0 0 0 0 11 28 28 27
28 28 28 28 27 27 27 27 27 26 27 27 28 29 27 27
27 27 27 27 26 26 26 26 25 26 26 26 26 26 25 26
6 16 30 30 28 28 28 28 28 29 25 30 31 32 34 35
35 30 26 29 31 30 29 28 27 26 25 25 24 14 17 19
23 27 29 26 23 23 23 23 21 21 8 4 13 16 12 10
7 16 9 7 3 2 4 17 13 12 16 17 18 11 21 18
19 18 20 15 34 51 63 45 31 23 20 20 24 22 18 16
11 8 6 5 1 0 0 0 0 0 0 0 1 24 28 28
28 27 28 27 27 27 27 27 28 27 27 27 27 28 28 27
27 27 27 26 26 27 26 26 26 26 26 26 26 26 26 26
7 16 31 29 24 25 29 31 33 18 0 4 16 24 28 31
33 28 4 5 10 16 23 25 27 31 29 27 24 10 5 7
6 5 9 24 23 22 23 22 22 20 6 7 18 16 11 9
10 14 9 8 1 2 3 13 8 14 17 20 14 20 19 27
23 23 9 19 39 51 74 80 51 31 25 19 19 20 26 23
16 8 2 0 0 0 0 0 1 0 0 0 0 8 28 28
28 28 28 28 28 28 28 27 27 27 28 27 28 28 28 27
27 27 27 26 27 26 26 26 26 26 26 27 27 27 26 26
8 15 28 30 28 26 27 33 37 18 0 0 1 8 11 10
18 26 1 0 0 0 1 3 8 14 19 26 23 7 0 3
4 0 1 24 24 23 23 24 23 17 6 8 17 12 12 7
13 14 11 10 1 5 6 15 12 13 16 23 13 18 22 26
21 13 7 22 41 55 84 98 98 100 78 44 27 23 27 28
22 9 2 0 1 0 0 0 1 0 3 3 0 5 25 28
28 27 28 28 28 28 28 28 28 28 28 28 28 28 28 27
26 26 26 26 26 26 26 27 27 26 27 27 27 26 26 25
8 7 6 11 18 26 30 34 37 19 0 0 0 3 6 6
13 27 2 0 0 0 0 0 0 0 0 19 24 5 0 0
1 0 1 25 24 23 24 23 23 12 3 10 14 10 11 7
12 13 13 10 1 4 9 17 13 16 21 19 15 17 24 27
21 9 12 23 48 50 76 102 109 113 112 112 99 77 55 30
21 18 15 9 5 3 3 2 3 5 1 0 4 8 24 28
29 28 28 29 29 28 28 28 27 28 27 27 27 28 28 27
27 27 27 27 27 27 27 27 27 27 27 27 26 26 26 27
8 3 0 0 0 1 5 12 19 18 0 0 0 0 0 1
9 26 2 0 0 0 0 0 0 0 0 18 22 1 0 0
0 0 1 26 25 24 24 24 23 10 2 11 10 12 8 10
7 13 14 9 3 6 10 13 16 16 19 15 14 18 23 22
19 12 19 26 49 53 71 101 113 114 114 114 114 113 112 107
93 78 64 42 23 20 27 30 29 19 16 15 13 17 27 29
28 28 28 28 28 29 28 28 28 28 28 28 28 28 27 27
27 26 27 26 27 27 27 27 27 28 27 27 27 26 26 25
7 3 0 0 0 0 0 0 0 12 0 0 0 0 0 0
8 25 1 0 0 0 0 0 0 0 0 16 19 0 0 0
0 0 2 27 26 24 24 24 20 5 3 9 5 12 8 11
5 15 14 9 6 8 10 9 17 17 16 16 13 17 19 21
22 20 22 26 42 51 69 98 110 114 113 113 113 114 113 113
114 113 113 111 102 90 79 77 68 63 39 29 27 26 28 29
28 29 29 29 29 29 29 28 28 28 28 28 27 27 27 28
28 28 28 27 28 27 28 27 27 27 27 26 26 26 26 26
8 2 0 0 0 0 0 0 0 9 0 0 0 0 0 0
10 27 2 0 0 0 3 4 0 0 0 15 19 0 0 0
0 0 1 28 26 25 24 24 18 3 4 8 6 11 7 7
4 13 16 7 5 13 8 6 11 11 9 9 16 15 19 19
25 25 25 24 34 45 73 97 110 114 114 114 114 114 114 114
114 113 113 113 113 111 106 100 87 76 69 43 30 28 29 29
29 29 29 29 28 28 28 28 28 27 28 28 28 28 28 28
28 28 28 27 27 27 28 28 27 27 28 27 27 27 27 27
8 3 0 0 0 0 0 0 0 7 0 0 0 0 0 0
10 30 2 0 0 0 4 8 5 2 0 13 20 0 0 0
0 0 0 26 27 25 25 24 18 4 3 9 4 11 9 2
6 15 20 9 8 19 10 5 2 9 15 14 11 14 17 18
24 31 27 21 29 39 69 95 104 111 113 114 114 114 114 114
114 114 114 114 113 113 109 105 90 78 72 53 31 29 29 29
30 29 30 29 29 28 29 28 28 28 28 28 27 27 27 28
28 28 27 27 26 27 28 28 27 27 27 28 28 28 27 28
7 3 0 0 0 2 2 0 0 6 0 0 0 0 0 0
8 30 2 0 0 0 5 9 8 8 1 13 20 0 0 0
0 0 0 25 27 25 25 24 20 4 2 10 4 11 7 0
8 11 20 15 17 21 8 1 4 8 8 11 10 13 13 16
25 27 24 18 25 36 60 84 98 108 113 114 114 115 114 114
114 114 113 113 113 113 110 107 96 81 73 58 34 29 29 29
29 29 29 29 29 29 29 28 28 28 28 28 29 29 28 28
28 28 27 27 27 27 27 28 28 28 28 28 28 27 26 25
8 3 0 2 0 0 0 0 0 6 0 0 0 0 0 0
9 31 3 0 0 0 3 7 7 7 1 12 23 1 0 0
0 0 0 24 27 25 24 25 20 2 6 6 6 9 5 0
4 9 18 16 22 17 10 6 2 1 7 14 5 5 5 12
18 22 26 23 25 30 48 67 95 101 108 114 114 114 114 114
114 114 113 114 113 113 110 108 102 84 73 59 36 29 29 29
29 29 29 29 30 29 29 29 29 28 28 28 28 28 28 28
28 28 27 27 27 27 28 27 27 27 26 27 27 25 23 23
8 2 0 1 0 0 0 0 0 7 0 0 0 0 0 1
14 32 6 0 0 0 0 1 5 6 0 10 30 22 15 9
6 3 3 24 27 24 25 25 21 5 4 8 5 12 4 0
1 6 18 21 19 15 9 7 1 1 7 7 3 0 4 9
16 18 20 24 29 34 41 57 83 101 106 113 114 114 114 114
113 113 114 113 113 113 110 108 104 87 77 62 39 29 29 29
29 29 29 29 29 29 28 28 29 28 28 28 28 28 28 27
27 27 26 25 25 27 27 25 24 23 21 19 18 15 13 11
7 3 0 0 0 0 0 0 0 15 11 5 3 2 0 0
9 36 25 18 15 12 6 2 0 2 0 9 32 34 32 31
30 31 32 35 28 24 25 24 19 4 2 8 4 12 5 2
4 5 18 21 10 10 5 3 1 1 5 4 0 0 2 4
12 13 20 25 27 30 36 44 77 97 107 113 113 113 114 114
113 113 114 113 113 112 112 109 107 94 81 65 41 28 29 29
29 30 29 29 30 29 29 29 28 27 27 27 26 26 25 24
25 25 24 23 22 21 18 16 14 11 10 9 9 9 10 11
7 3 0 0 0 0 0 0 0 26 37 29 25 25 22 14
18 39 23 18 20 22 21 20 18 17 16 22 35 33 32 32
33 37 39 38 28 25 25 24 21 5 3 11 6 10 4 3
7 9 15 12 3 3 1 6 1 3 3 5 0 1 2 3
9 11 19 19 18 27 29 41 68 94 108 111 111 113 114 114
114 113 113 113 112 112 112 110 108 97 84 68 45 29 30 29
29 29 29 28 29 28 27 27 26 26 25 26 25 24 23 21
19 16 15 13 11 11 10 11 11 11 12 13 14 15 16 16
8 3 0 0 0 0 0 0 0 27 39 31 34 37 40 39
36 38 17 8 9 9 11 12 12 15 19 23 23 21 25 28
31 35 36 36 28 25 25 25 20 5 3 13 6 11 4 7
10 17 14 9 2 2 3 7 8 8 0 1 0 3 1 2
9 8 13 16 12 15 16 27 59 90 110 113 114 113 114 113
113 114 114 113 112 113 111 110 107 101 85 67 49 29 29 29
29 29 29 29 29 28 27 27 28 23 20 17 16 14 12 11
12 12 13 14 14 15 16 16 17 17 18 18 17 13 18 20
8 11 12 8 4 1 0 0 0 27 33 30 36 39 42 42
34 28 15 8 9 8 8 7 6 6 5 5 6 8 10 13
22 25 23 23 24 25 25 24 15 2 2 10 8 8 9 15
12 19 12 3 0 0 7 13 11 0 0 0 0 5 7 11
14 15 8 13 7 7 8 29 55 92 113 114 114 114 114 114
114 114 113 113 111 111 110 108 107 102 88 68 56 31 30 28
28 26 25 23 22 19 16 18 28 19 11 13 14 14 15 15
16 17 18 18 19 19 20 21 21 21 21 21 21 19 14 20
9 17 32 35 32 27 22 16 14 30 26 29 35 38 41 42
37 30 19 10 10 8 7 6 5 5 5 4 5 5 5 7
20 22 22 24 24 25 26 25 10 2 1 8 8 8 13 16
15 13 6 2 0 2 15 24 12 1 1 0 3 8 17 20
20 23 8 9 12 12 21 44 83 100 112 114 114 114 113 114
115 114 113 113 110 109 107 107 107 104 94 72 61 30 22 20
18 17 15 15 16 16 16 15 25 18 14 16 18 19 20 20
21 22 22 22 23 22 23 23 24 24 23 22 23 23 21 14
9 17 34 37 37 36 36 37 37 36 15 16 24 29 33 36
34 31 22 10 9 7 4 4 4 6 6 7 7 8 8 10
22 14 9 24 27 27 25 19 11 2 1 8 8 9 16 10
17 11 0 0 1 30 84 104 99 42 4 3 2 0 0 7
15 17 6 2 15 38 80 88 100 104 113 114 114 114 112 113
114 113 112 109 106 104 101 102 106 105 102 81 67 31 17 17
18 19 19 20 20 21 20 19 25 19 17 21 23 23 24 24
24 25 25 25 25 25 25 25 24 24 25 23 24 26 26 22
8 16 33 37 37 37 38 38 39 34 5 0 1 3 6 12
15 25 23 10 8 4 0 0 0 2 8 8 6 5 10 11
22 27 26 30 32 31 26 9 9 1 0 5 7 10 11 9
17 5 0 0 22 96 100 89 102 93 15 1 14 15 15 16
13 27 29 30 23 76 102 113 113 114 114 113 112 112 110 111
113 113 111 107 104 99 96 96 106 108 107 90 69 42 20 22
22 23 23 23 24 25 24 23 25 21 20 24 25 25 25 26
26 26 26 26 27 27 26 26 26 25 25 25 24 25 26 26
13 16 26 29 30 31 32 35 38 31 2 0 0 0 0 0
7 24 24 9 7 3 0 0 0 0 1 2 0 0 3 4
20 32 28 24 25 27 29 24 12 0 0 3 5 10 13 8
10 1 0 4 79 101 91 97 75 83 65 13 3 10 24 27
16 12 31 44 33 60 81 106 115 115 115 111 110 109 107 111
114 113 108 99 102 93 79 83 99 101 108 95 70 53 25 25
26 27 27 27 27 27 26 21 11 8 18 26 27 27 27 27
27 27 27 27 28 27 27 27 27 26 24 24 24 24 26 26
14 16 17 19 22 25 25 26 34 29 1 0 0 0 0 0
1 25 24 8 6 3 0 0 0 0 0 0 0 0 0 0
18 33 25 19 19 21 23 23 11 1 0 1 3 12 10 6
5 0 0 33 107 106 117 116 106 53 68 50 27 13 13 12
15 24 24 40 44 58 55 60 53 79 106 115 112 110 110 110
110 96 72 60 57 69 61 61 79 76 95 88 72 56 26 28
28 28 28 28 28 27 27 18 2 1 15 26 28 29 28 28
27 28 28 28 27 28 28 27 27 27 27 25 25 23 25 26
12 14 13 14 17 23 22 24 34 28 1 0 0 0 0 0
0 23 21 3 1 0 0 0 3 4 1 0 0 0 0 0
17 33 27 14 22 25 22 21 8 0 0 0 1 15 7 3
1 0 0 68 103 114 116 115 100 59 74 96 75 41 28 21
23 35 48 53 87 103 93 77 54 27 26 44 78 102 103 99
77 79 71 55 51 45 31 27 26 27 34 63 73 46 23 29
30 30 28 24 20 15 23 16 6 2 12 26 29 29 29 29
28 29 28 28 28 28 28 28 27 27 26 26 25 24 24 26
11 13 13 17 21 25 25 29 34 28 1 0 0 0 0 0
0 25 17 0 0 0 0 0 1 7 6 1 0 0 0 0
17 33 27 10 18 20 18 21 8 0 0 0 1 13 9 1
0 0 4 85 105 116 116 115 107 104 76 87 91 66 37 26
36 47 45 67 99 111 114 113 103 81 55 34 25 20 38 65
90 86 88 72 43 39 25 11 9 10 25 40 42 18 12 30
30 30 20 2 1 2 18 16 1 0 11 26 29 29 29 28
28 28 28 28 27 27 28 27 28 27 27 27 26 24 23 24
14 11 0 1 3 6 10 15 20 23 1 0 0 0 0 0
0 26 18 0 0 0 0 0 1 8 11 6 2 0 0 0
16 34 29 13 14 15 13 19 9 0 0 0 0 13 8 8
0 0 8 93 111 116 116 115 111 111 71 84 95 70 31 33
32 45 51 82 102 112 114 115 114 113 102 77 53 39 36 22
15 36 54 29 14 68 21 18 11 3 19 45 24 1 16 22
27 31 26 17 20 24 26 20 1 0 10 26 29 28 29 28
28 28 29 28 28 28 28 28 28 27 27 27 27 26 24 22
17 13 0 0 0 0 0 0 0 11 1 0 0 0 0 0
0 26 15 0 0 0 0 0 10 12 12 9 4 0 0 0
16 34 30 18 17 15 14 19 10 0 0 0 0 11 3 5
0 0 12 96 111 115 116 115 109 63 65 96 65 39 50 20
31 53 63 94 111 114 115 114 115 114 114 111 81 47 52 62
58 53 39 71 41 24 8 23 31 31 42 43 11 4 17 27
41 32 30 30 29 28 27 22 3 0 12 26 28 29 30 28
28 28 28 28 27 28 28 27 27 27 26 27 27 26 26 23
18 13 0 0 0 0 0 0 0 9 1 0 0 2 1 0
0 26 13 0 0 0 0 1 10 15 12 4 2 0 0 0
15 34 32 21 14 4 3 17 12 0 0 0 0 4 4 0
0 0 12 88 110 114 114 99 106 84 98 107 105 48 43 13
36 47 84 108 113 114 114 114 115 114 114 114 110 70 39 67
102 97 69 65 24 19 36 55 68 76 63 44 18 36 29 25
38 31 31 30 29 28 28 24 7 0 15 26 28 28 29 28
28 27 28 28 28 28 27 28 27 27 26 26 27 26 26 23
18 13 0 0 0 0 0 0 0 8 1 0 1 11 6 0
0 26 11 0 0 0 0 0 1 9 7 0 0 0 0 0
12 34 32 20 11 4 3 15 17 2 0 0 0 0 2 0
0 0 15 75 111 115 109 101 109 105 104 108 115 80 26 22
39 66 101 112 115 115 114 115 114 115 115 115 114 109 81 60
82 89 93 76 44 42 52 84 87 105 67 60 12 37 24 22
31 30 30 30 30 28 27 24 14 7 21 27 29 29 29 28
29 28 27 27 27 28 28 27 27 27 27 27 27 27 26 24
15 12 0 0 0 8 2 0 0 8 2 0 5 12 9 2
0 26 10 0 0 0 0 0 0 7 7 0 0 0 0 0
9 34 32 12 7 0 0 13 19 3 0 0 0 0 3 0
0 3 17 60 115 116 103 102 115 110 83 110 116 112 72 63
56 84 105 112 115 115 114 115 115 115 114 114 115 112 107 87
63 75 89 64 42 49 50 70 88 89 81 72 8 13 20 28
29 31 30 31 30 28 27 24 21 20 25 28 29 28 29 28
28 28 27 28 28 28 28 28 28 27 27 26 26 26 26 24
13 12 0 0 4 14 5 1 0 11 17 11 19 18 17 12
6 28 9 0 0 0 0 0 0 6 10 0 0 0 0 0
6 33 29 7 7 0 1 17 21 8 0 0 0 2 2 0
2 6 18 48 109 116 102 102 111 110 82 111 116 116 107 86
67 91 107 113 114 114 115 114 115 114 114 115 115 112 108 104
93 84 87 50 50 50 60 75 78 45 82 85 39 23 18 37
30 31 31 30 30 29 27 24 24 25 28 29 28 29 29 29
29 28 28 28 28 28 27 28 28 27 27 27 26 26 25 23
13 12 0 0 1 4 1 0 0 13 32 31 35 35 34 34
35 38 13 0 0 0 0 0 0 7 11 0 0 0 0 0
4 30 28 6 2 0 2 17 21 13 1 0 0 2 4 0
8 12 15 46 97 117 107 94 109 109 86 111 116 116 112 97
87 96 105 110 114 115 115 115 114 115 115 115 114 114 111 106
95 78 84 39 62 66 75 80 71 53 91 91 55 27 25 44
32 31 31 30 30 29 28 26 25 27 29 29 29 29 30 29
28 29 29 29 28 28 27 27 28 28 27 26 26 25 25 23
14 14 3 0 0 0 0 0 0 13 34 34 37 36 36 40
43 43 25 13 15 10 6 4 5 12 16 4 3 2 1 0
4 24 28 6 2 2 2 8 20 20 5 0 0 2 8 3
6 14 19 26 73 115 115 98 111 114 94 102 117 116 115 103
91 96 101 103 111 114 115 114 115 115 115 115 115 115 114 107
99 81 82 32 72 71 73 80 66 80 102 97 89 33 27 40
31 32 31 30 29 29 28 27 28 29 30 30 30 29 29 29
29 29 29 28 27 28 27 27 27 27 27 27 26 24 24 23
15 16 13 2 0 0 0 0 0 11 32 32 34 35 35 40
43 43 34 28 28 27 25 24 24 24 22 18 17 15 14 13
16 25 30 14 11 11 7 5 16 24 9 1 0 2 5 3
6 11 17 31 53 110 114 111 107 109 96 84 114 116 115 106
93 95 99 100 109 113 114 115 114 114 114 114 114 115 114 113
108 87 78 41 78 71 72 77 89 99 101 106 109 58 33 38
31 32 30 30 30 29 29 28 28 29 29 28 28 28 29 29
29 28 28 27 27 27 27 27 27 27 27 26 25 24 24 23
15 16 9 0 0 0 0 0 0 12 31 29 31 32 32 33
31 31 30 30 31 31 29 29 30 30 29 28 26 25 23 21
22 28 35 27 26 22 18 17 19 25 15 4 0 0 3 3
5 8 22 24 46 94 114 116 116 106 100 83 108 116 114 107
94 94 98 101 106 111 113 114 115 115 115 115 115 115 115 114
113 91 82 54 86 70 69 82 96 100 105 113 110 90 51 33
31 31 30 30 30 30 29 28 29 30 29 29 29 30 30 30
29 28 28 28 28 27 27 27 27 26 26 26 25 25 24 23
18 17 7 0 0 0 0 0 0 12 34 29 29 29 30 29
28 27 31 31 32 34 33 33 31 31 30 30 33 35 32 30
30 32 37 35 35 34 34 32 27 26 21 7 1 0 0 3
6 6 27 46 52 77 109 116 114 115 111 112 113 115 113 105
94 91 100 102 107 110 112 114 115 115 115 115 115 115 115 114
115 103 91 59 89 71 66 90 95 99 112 114 109 103 66 30
31 30 30 30 30 30 30 30 31 31 30 29 30 30 29 29
29 28 28 28 28 28 27 27 27 26 26 26 25 25 24 22
16 15 22 21 20 15 14 12 10 20 36 30 30 31 30 30
31 32 34 33 33 36 39 38 34 30 30 31 36 40 38 36
35 35 31 27 25 25 25 26 25 27 27 12 1 0 0 2
9 7 14 30 54 71 89 116 115 113 116 116 114 114 112 105
96 94 99 101 107 110 111 114 115 115 115 115 116 115 115 115
116 114 92 50 65 71 68 85 86 103 103 107 109 105 91 40
31 31 31 31 30 31 31 30 31 31 30 29 30 30 29 30
29 28 28 28 27 27 27 26 27 26 26 25 25 24 24 22
18 18 32 39 40 36 37 39 39 39 39 33 32 32 32 33
35 38 40 35 35 37 40 39 34 31 27 28 36 40 38 36
36 36 33 28 23 22 22 21 23 27 28 19 2 0 1 2
9 11 4 10 65 73 75 105 118 117 116 116 114 111 109 105
97 97 102 104 107 112 113 115 115 115 115 115 115 115 116 116
116 115 115 98 56 39 61 75 100 108 107 104 108 108 99 61
31 31 31 31 30 30 31 31 31 31 30 30 30 30 29 29
29 29 28 29 27 27 27 27 27 26 26 25 24 24 23 21
18 18 34 43 43 43 43 44 44 44 41 29 27 26 26 27
31 36 41 36 35 34 32 34 34 32 28 25 32 31 29 29
32 33 33 32 28 26 25 26 27 28 29 25 6 0 0 1
10 12 9 39 72 76 76 84 111 116 117 116 115 108 108 103
101 100 98 103 108 111 114 115 115 115 116 116 116 116 116 115
115 115 115 106 88 69 72 96 114 114 112 110 113 112 99 69
30 30 31 30 30 31 30 30 31 30 30 30 30 30 30 29
29 29 29 28 27 27 26 27 26 25 25 25 24 23 22 21
19 17 25 31 32 33 34 36 37 38 36 11 7 5 4 4
8 15 34 37 33 19 12 16 19 19 21 27 28 12 4 3
7 13 17 27 30 28 29 31 32 33 33 29 15 0 0 1
4 8 16 54 73 78 80 76 85 104 114 114 112 102 104 99
101 99 101 104 109 111 114 115 116 116 116 115 115 116 116 116
115 115 114 105 87 73 75 91 108 108 99 96 99 98 96 66
29 29 28 27 25 26 27 30 31 30 30 30 30 30 30 29
28 28 28 27 27 27 27 27 27 26 25 24 23 22 23 21
19 15 20 23 24 24 24 24 24 25 27 6 0 0 0 0
0 1 28 36 24 3 0 0 2 6 15 30 28 8 0 0
0 3 11 24 20 18 21 24 26 30 35 30 22 2 1 4
9 3 16 65 77 79 81 78 81 84 73 75 104 96 96 97
100 99 101 106 108 111 114 116 116 116 116 116 116 116 116 116
115 116 112 98 76 78 81 77 70 57 42 38 63 89 85 41
16 15 13 11 9 10 21 31 31 31 30 30 30 30 30 30
29 28 28 27 27 27 27 26 26 25 25 24 23 22 22 21
17 15 24 29 29 29 28 27 26 26 27 8 0 0 0 0
0 8 30 35 13 0 0 0 0 0 14 31 28 8 0 0
0 0 9 21 7 1 4 4 3 10 33 31 25 4 0 2
14 19 41 76 87 91 93 90 91 101 95 77 88 85 86 92
97 97 100 106 108 111 114 116 116 115 116 115 115 115 115 115
114 112 103 84 70 79 92 87 82 77 76 77 70 67 48 26
8 6 5 6 6 6 20 30 31 31 30 29 29 29 29 29
28 27 27 27 26 26 26 26 25 24 24 23 22 21 20 19
15 14 24 29 30 30 31 31 31 32 29 9 1 0 0 0
0 7 27 31 5 0 0 0 0 0 10 31 29 9 0 0
0 0 6 20 6 1 8 5 0 4 31 31 25 8 0 0
10 27 46 76 96 102 106 107 105 107 100 85 80 75 80 87
95 98 100 107 108 112 114 115 115 114 115 115 114 115 115 114
113 109 92 68 69 82 92 86 83 75 64 40 32 32 31 25
8 6 5 5 5 5 18 30 30 30 30 29 29 29 28 28
27 28 27 26 26 26 25 24 24 23 23 22 21 20 19 18
17 17 24 29 30 30 30 29 30 33 30 7 0 0 0 0
1 0 21 29 3 0 0 0 0 0 9 29 26 8 0 0
0 0 4 20 8 0 4 3 0 3 29 31 25 15 0 0
3 22 50 77 95 101 105 110 109 106 95 85 75 68 75 87
94 95 104 108 111 113 113 114 114 114 114 114 114 114 114 113
111 98 69 63 71 89 91 89 84 71 55 37 29 30 29 23
7 5 5 4 3 4 15 28 29 29 29 29 28 28 27 27
26 26 26 25 25 24 24 22 23 22 22 21 20 19 18 17
21 22 23 25 25 26 19 10 15 26 33 10 0 0 0 0
2 0 17 27 2 0 0 0 0 0 9 30 25 7 0 0
0 0 0 18 9 0 2 1 0 2 28 31 24 22 2 7
27 43 58 78 94 100 102 106 110 106 94 83 68 61 71 88
95 98 104 109 111 112 113 114 114 114 113 113 113 114 113 112
106 81 64 68 84 97 98 96 88 78 52 39 28 30 29 22
7 5 4 4 4 3 12 28 29 29 29 28 28 27 27 26
25 25 25 25 24 24 23 23 22 21 21 20 19 18 17 16
21 21 22 23 24 24 15 0 0 15 35 17 2 0 0 0
1 0 15 27 1 0 0 0 0 0 7 30 24 9 0 0
0 0 0 18 12 0 2 2 0 2 28 31 24 25 5 10
44 62 62 80 94 100 101 104 111 109 98 84 65 54 67 83
94 99 106 111 111 113 113 113 114 113 113 113 113 112 112 109
94 67 62 79 102 109 106 106 98 89 63 49 28 29 29 24
8 5 6 6 6 7 11 26 28 27 27 28 27 27 27 26
25 25 25 25 25 24 24 23 22 21 19 19 18 17 16 15
20 21 21 22 22 23 16 0 0 12 35 16 0 0 0 0
1 0 15 27 1 0 0 0 0 0 4 30 25 11 0 0
0 0 0 17 15 0 0 0 0 2 27 31 24 26 5 17
49 65 65 82 96 101 103 106 111 111 100 88 64 53 63 78
93 102 108 110 113 114 113 112 112 110 110 111 112 112 108 105
82 63 50 58 79 88 87 81 73 66 60 45 29 29 29 26
14 11 11 11 11 11 27 27 25 26 29 29 28 28 27 27
26 25 26 26 25 24 24 23 22 21 20 19 18 16 16 15
11 11 13 16 19 21 17 0 0 10 32 9 0 0 0 0
0 0 15 28 1 0 0 0 0 0 3 29 26 8 0 0
0 0 0 15 19 0 0 0 0 2 26 30 24 29 16 24
56 66 67 84 98 102 104 107 111 112 105 92 65 48 60 78
92 101 105 111 113 114 113 113 113 111 113 110 109 108 107 98
77 65 72 53 82 68 59 61 59 56 50 29 29 30 30 25
11 8 8 5 1 1 18 10 3 5 27 29 29 28 28 27
27 26 25 25 25 24 24 22 22 21 19 19 18 16 15 15
0 0 0 5 17 21 17 1 0 7 29 7 0 0 0 0
0 0 13 31 3 0 0 0 0 0 2 29 26 11 1 0
0 1 1 16 23 0 0 0 0 3 25 29 39 47 25 31
57 70 72 87 98 102 105 107 109 110 104 93 66 54 59 75
89 96 102 111 113 113 113 111 110 110 108 109 107 107 102 92
80 79 103 83 97 104 93 77 58 20 15 16 28 30 29 27
11 5 6 5 1 1 9 20 12 1 25 28 28 28 27 27
26 26 25 26 25 25 23 22 22 20 20 19 17 16 15 15
0 0 0 6 20 21 19 2 0 6 28 11 1 1 0 2
9 6 16 33 14 8 7 10 9 9 12 31 28 24 22 22
22 23 27 33 29 6 4 3 4 7 28 49 34 26 27 40
60 73 77 90 97 102 106 107 108 109 106 93 70 59 55 70
87 95 100 104 109 111 109 108 109 109 108 110 107 103 100 89
76 84 109 104 90 92 89 78 70 17 3 15 29 30 30 26
12 5 6 6 2 0 1 5 2 1 25 29 29 28 28 28
26 26 26 25 25 25 24 23 22 21 20 18 17 16 16 14
0 0 0 5 20 19 18 3 0 2 27 27 25 21 21 27
34 32 31 33 37 36 33 33 35 36 36 39 31 26 32 35
37 39 44 45 38 25 24 23 23 23 54 54 10 36 40 48
65 76 81 91 99 103 107 110 110 108 106 95 74 62 55 65
79 91 96 102 107 105 108 109 107 107 108 107 103 100 97 86
71 89 108 110 106 97 92 86 66 42 16 13 29 30 30 27
11 5 6 5 2 2 2 1 0 0 23 28 27 26 27 27
26 26 26 26 26 25 24 23 22 20 19 18 17 15 14 14
0 0 0 3 20 19 17 4 0 0 26 33 33 29 31 37
40 36 33 29 38 42 39 38 38 41 42 41 33 23 29 33
35 39 43 44 39 27 26 26 26 30 91 42 8 42 43 55
69 79 84 91 99 103 108 112 113 111 108 99 78 68 59 58
74 80 89 97 99 102 107 109 104 104 105 104 101 99 92 83
70 92 108 110 112 110 102 92 77 56 37 13 29 30 30 27
12 4 5 2 0 0 0 0 0 0 19 14 8 7 22 27
27 26 26 25 25 24 23 21 21 19 18 17 16 15 14 14
0 0 0 2 20 19 17 5 0 0 23 32 29 26 30 36
40 37 31 27 29 32 32 32 31 32 32 32 30 22 24 28
30 32 31 29 29 27 27 27 27 50 110 37 11 16 48 62
73 81 84 92 98 103 109 112 114 113 110 103 84 72 64 55
59 70 83 90 95 97 104 104 104 105 103 98 98 97 93 79
75 96 107 109 112 110 109 96 77 55 38 12 28 30 30 27
12 4 4 1 19 25 2 0 0 0 8 16 23 15 6 26
26 25 26 25 24 24 23 21 20 19 18 17 17 15 14 14
0 0 0 1 19 19 17 6 0 0 22 29 21 23 24 29
38 37 32 29 22 20 20 21 22 21 22 23 25 25 26 27
28 27 25 23 24 27 27 27 29 82 105 35 14 13 46 69
78 81 86 91 98 104 107 112 115 115 112 105 90 71 67 61
53 58 72 78 86 91 97 98 102 103 101 99 99 92 89 82
83 98 106 110 109 108 104 95 75 54 29 12 28 29 31 27
12 5 5 8 36 48 15 0 0 6 24 28 28 26 7 23
26 25 26 25 24 23 22 21 20 18 17 17 16 15 15 14
0 0 0 1 17 18 16 7 0 3 24 25 10 11 14 17
23 25 25 29 24 21 22 23 27 27 26 26 28 29 30 33
34 33 28 26 26 26 27 28 36 103 98 35 13 13 57 76
82 83 85 91 97 104 109 109 114 115 112 107 98 76 65 64
56 48 51 59 71 82 89 91 95 97 100 98 94 89 91 88
86 97 103 108 108 105 97 80 57 43 8 11 27 29 30 27
13 3 4 7 22 25 13 0 0 11 29 28 28 27 10 19
25 25 25 24 24 22 21 20 19 19 17 16 15 15 15 14
0 0 0 0 16 17 15 14 14 21 29 24 0 0 0 0
1 5 10 26 27 30 33 30 38 41 31 24 26 27 28 31
34 37 31 26 26 26 27 28 56 113 97 36 10 24 67 82
85 86 85 92 96 102 108 112 112 115 114 108 99 89 76 68
63 57 45 42 52 64 75 83 89 88 93 89 92 90 91 93
95 97 104 106 108 106 98 78 53 24 2 10 28 30 30 28
15 5 7 2 5 3 2 0 0 11 28 28 28 27 11 19
26 25 25 24 23 22 20 19 18 17 16 16 15 15 15 14
0 0 0 0 14 17 16 20 31 33 36 26 0 0 0 0
0 0 8 31 28 32 36 30 38 41 20 3 3 4 5 7
20 37 33 28 27 27 34 49 83 117 97 28 2 46 72 86
90 88 87 91 96 102 106 110 114 112 114 107 100 93 88 76
70 66 57 44 46 55 62 70 76 79 86 88 91 88 88 91
94 95 105 102 106 103 102 84 58 15 2 10 27 29 31 28
24 16 11 5 0 0 0 0 0 7 27 28 27 27 11 21
25 25 25 24 22 21 19 18 18 17 17 16 16 15 15 15
0 0 0 0 12 17 15 20 33 35 37 29 1 0 0 0
0 0 4 32 27 30 32 11 12 22 15 0 0 0 0 0
12 36 34 31 49 66 76 76 96 118 92 11 11 65 74 89
95 92 87 91 94 101 107 109 114 115 111 107 105 96 87 81
76 76 69 62 54 49 48 50 56 70 77 81 83 86 87 88
90 97 94 100 105 104 102 92 66 23 2 9 27 28 30 29
29 13 19 29 5 0 0 0 0 7 28 28 28 25 10 24
26 25 25 25 23 19 18 17 16 16 15 15 15 15 14 14
0 0 0 0 11 17 15 17 27 28 27 21 1 0 0 0
0 0 4 32 27 30 31 4 0 15 16 0 0 0 1 19
50 76 86 102 107 88 72 79 100 116 62 0 36 72 78 91
96 94 90 90 95 102 108 110 114 114 111 101 106 101 90 86
78 75 71 68 65 57 51 44 45 53 63 74 72 72 78 80
81 89 89 98 99 101 99 96 72 34 4 9 26 29 30 30
30 19 34 48 17 0 0 0 0 6 25 25 24 13 13 23
16 15 23 25 21 19 17 15 16 16 15 14 14 14 14 13
0 0 0 0 9 16 13 13 11 11 12 5 0 0 0 0
0 0 5 33 27 31 31 5 0 15 19 6 27 60 95 116
116 112 117 117 113 82 75 91 104 115 33 11 55 77 83 93
98 96 92 89 95 102 108 110 115 115 115 111 102 102 100 92
83 80 73 70 70 64 61 54 48 45 50 60 64 68 73 72
77 85 87 93 91 92 93 91 76 55 64 44 33 25 22 20
18 9 12 15 5 0 0 0 0 0 3 3 2 0 9 15
8 21 20 24 22 18 16 15 15 15 13 14 15 14 15 14
0 0 0 0 8 16 14 13 9 9 11 4 0 0 0 0
0 0 6 33 27 32 32 5 11 50 87 109 117 118 118 118
115 110 118 119 114 85 86 97 109 112 32 25 58 79 86 94
99 97 92 90 95 104 109 113 116 117 117 116 109 102 105 102
97 92 88 81 75 72 67 62 57 53 51 50 55 61 68 64
69 71 78 80 88 87 84 84 69 63 86 82 79 62 33 8
0 0 0 0 0 0 0 0 0 0 0 0 0 0 5 8
63 83 38 22 21 18 16 15 15 14 14 14 14 14 13 14
0 0 0 0 7 15 12 13 10 10 13 4 0 0 0 0
0 0 4 32 27 35 53 70 104 116 117 117 118 118 118 118
115 113 118 118 110 91 91 98 113 112 43 31 56 84 89 97
100 97 91 92 96 102 110 114 116 116 116 116 115 103 100 106
101 102 96 90 85 82 73 68 61 58 55 54 56 56 59 59
59 61 66 69 74 79 81 75 64 77 93 90 92 93 89 79
50 17 6 6 7 8 8 10 10 9 8 3 0 1 13 13
58 60 37 7 6 9 16 15 15 15 14 14 14 14 15 15
0 0 0 0 6 16 14 13 13 13 14 4 0 0 0 0
1 0 2 36 60 98 117 118 119 118 118 118 118 118 118 118
117 118 118 118 105 95 98 99 113 116 52 37 53 88 94 100
101 97 92 93 97 103 110 114 117 117 116 116 116 112 100 109
110 106 104 101 97 88 75 69 62 55 55 56 56 54 55 55
52 49 50 57 62 66 68 65 69 101 104 101 104 105 100 97
97 89 55 17 13 13 13 13 13 12 10 3 0 0 0 0
0 0 0 1 0 7 19 18 18 18 17 17 17 17 17 16
0 0 0 0 5 15 13 12 14 15 16 6 0 1 0 0
7 21 62 103 116 118 118 118 118 118 118 118 119 118 119 119
118 118 118 117 96 100 100 101 111 118 66 42 50 90 99 102
103 98 96 94 97 103 109 115 117 116 117 116 116 115 110 107
109 107 105 108 101 91 79 65 55 50 48 48 50 52 52 49
50 46 46 46 52 58 64 78 104 108 105 101 102 105 105 105
110 113 109 92 42 14 14 15 14 13 10 4 0 0 0 0
0 0 0 2 0 6 15 13 12 10 9 9 8 7 5 5
0 0 0 0 5 16 14 13 14 16 16 8 0 3 0 17
67 106 118 119 119 119 119 119 119 119 119 118 119 118 118 118
118 118 118 117 90 100 102 104 110 118 85 45 50 85 101 104
104 98 98 97 96 102 109 115 117 117 117 117 116 115 115 110
109 113 112 113 109 98 73 47 28 15 13 17 21 29 30 27
30 41 71 88 100 109 111 113 110 102 99 100 101 103 106 107
112 114 114 114 109 57 16 16 15 14 12 5 0 0 0 0
0 0 0 1 17 20 19 19 19 20 21 23 23 24 25 25
0 0 0 0 4 14 12 12 15 15 17 18 15 22 58 109
120 119 119 118 118 118 118 118 119 118 118 118 119 118 118 118
118 118 118 117 91 92 102 103 109 118 106 52 49 78 103 108
106 101 99 99 99 102 108 112 115 116 116 116 116 115 115 114
113 112 115 115 109 90 66 31 14 1 20 65 73 84 52 14
18 37 76 100 110 113 114 112 104 97 99 99 100 104 107 111
114 115 114 115 114 110 45 16 16 14 12 5 0 0 0 0
0 0 0 4 33 33 32 31 31 30 30 31 31 32 31 31
0 0 0 0 4 15 12 12 15 17 17 27 39 90 118 117
118 119 119 119 118 119 119 119 118 118 119 118 118 118 119 118
117 118 118 117 94 84 101 103 109 118 115 71 49 71 105 107
108 103 101 99 99 101 108 114 116 117 116 116 115 115 113 112
114 113 111 111 102 82 70 56 27 14 72 99 107 113 82 16
24 47 88 110 114 114 114 110 102 100 103 103 107 111 114 114
114 114 114 114 114 114 94 28 16 16 15 6 0 0 0 0
0 0 0 5 32 32 31 30 30 30 31 31 31 31 31 31
0 0 0 0 3 14 12 11 15 17 17 31 91 116 116 118
119 119 120 119 119 118 118 118 118 118 118 118 118 118 117 118
118 117 118 118 101 78 98 102 106 118 116 86 53 63 101 109
109 107 105 102 101 100 105 114 116 116 116 116 115 112 113 110
111 112 111 105 90 69 81 85 52 56 104 113 113 115 82 22
41 73 109 116 115 114 115 114 113 113 114 113 114 114 114 115
114 114 115 115 114 114 111 91 26 16 15 6 0 0 0 0
0 0 0 7 32 31 31 31 31 30 30 30 31 30 31 30
0 0 0 0 2 14 11 11 15 18 23 80 111 114 118 119
119 119 119 119 119 119 119 119 119 118 118 119 118 119 118 118
119 117 118 117 105 81 98 103 106 118 118 98 59 61 92 111
110 107 108 107 103 102 104 111 117 117 116 117 116 114 110 111
108 106 107 100 77 82 94 93 44 85 109 112 115 116 87 53
71 100 114 115 115 115 115 115 115 114 115 114 115 115 115 114
115 115 115 114 114 114 113 114 76 17 16 6 0 0 2 4
0 0 0 8 32 31 30 30 30 30 30 30 30 30 30 30
0 0 0 0 2 13 11 10 15 20 77 111 106 117 120 119
119 119 119 119 119 118 118 118 118 118 118 118 118 118 118 118
119 118 118 118 109 90 95 103 105 117 117 113 69 61 80 111
111 110 110 109 106 102 105 111 115 116 116 116 116 115 113 111
108 104 98 82 82 94 98 82 36 96 113 115 115 115 96 82
100 111 115 115 115 115 115 115 115 114 114 114 114 115 114 115
114 114 114 114 114 114 114 113 110 56 18 6 0 0 22 29
3 0 0 10 32 31 31 31 30 30 30 30 29 29 29 29
0 0 0 0 2 13 11 10 16 59 110 103 111 119 119 119
119 119 119 118 119 118 119 119 119 118 118 118 118 118 118 118
118 118 118 117 113 101 91 104 103 116 118 115 84 67 71 103
112 112 113 113 110 102 104 110 115 116 116 116 116 116 114 112
109 100 84 77 92 101 103 59 60 107 114 115 116 116 101 98
109 113 114 115 115 114 115 115 114 114 115 114 115 115 114 114
114 114 115 114 114 114 114 114 114 109 60 6 0 0 10 11
0 0 0 12 31 31 31 30 30 29 30 29 30 29 30 29
0 0 0 0 2 14 12 12 51 113 108 107 111 119 119 119
120 119 119 118 119 118 118 118 118 119 118 118 118 118 118 119
118 118 119 117 113 105 94 103 102 114 117 115 99 72 73 94
113 113 114 116 111 104 103 112 115 116 116 116 115 115 115 111
104 93 82 92 103 109 93 43 101 110 111 115 105 98 107 106
113 114 115 115 115 115 115 114 115 114 114 114 115 114 114 114
114 114 114 114 114 114 114 113 113 113 106 27 0 0 0 0
0 0 0 15 31 31 30 30 30 30 30 30 29 29 29 29
0 0 0 0 4 15 12 32 105 108 116 114 111 116 119 118
119 119 119 118 118 118 118 118 118 118 118 118 118 118 118 118
118 118 118 117 112 107 102 100 103 111 118 117 110 79 78 84
112 114 114 115 113 109 105 109 115 116 116 116 115 115 114 111
103 95 95 105 110 108 61 63 115 116 115 115 93 51 113 111
115 114 115 115 114 115 115 114 114 114 115 115 115 115 115 114
114 114 114 114 114 114 113 113 113 113 110 60 0 0 0 0
0 0 0 17 31 30 29 29 29 29 29 29 29 29 29 29
3 4 4 5 9 12 12 56 105 109 118 119 116 108 119 119
118 118 118 118 118 118 118 118 118 118 118 118 118 118 118 118
118 118 118 117 114 109 108 98 104 109 117 117 113 82 77 80
104 116 115 116 114 109 109 108 115 116 116 115 114 113 111 107
101 95 101 110 114 95 61 106 114 115 115 115 103 76 114 113
113 114 115 114 114 115 115 115 114 114 114 114 114 115 114 114
114 114 114 114 114 113 113 114 113 113 113 102 22 0 0 0
0 0 0 18 30 30 30 30 29 29 29 29 28 29 29 29
7 6 8 7 8 9 13 86 101 113 119 119 119 110 116 119
118 118 118 118 118 118 118 118 118 118 118 118 118 118 118 118
118 118 118 117 114 108 110 101 100 106 94 66 115 95 77 77
93 116 116 115 110 107 108 114 116 116 116 116 114 111 107 104
101 102 110 113 108 68 100 113 115 115 115 115 108 98 114 114
114 114 114 115 114 114 114 114 114 114 114 115 114 114 115 115
114 114 114 113 113 113 113 113 113 113 114 112 67 0 0 0
0 0 0 15 30 30 30 29 29 29 29 28 28 28 29 29
7 8 8 8 9 10 29 103 103 118 118 118 118 115 114 118
118 118 118 118 118 118 118 118 118 118 118 118 119 118 118 118
118 117 118 117 116 112 110 107 89 108 98 36 111 110 80 77
87 111 117 116 113 105 107 114 116 116 115 114 111 109 107 103
104 111 115 114 92 99 115 115 115 114 115 115 113 110 113 114
114 114 114 114 114 115 115 114 114 115 114 115 114 114 114 114
114 114 114 113 114 113 114 113 114 114 114 113 100 16 0 0
0 0 0 7 28 29 29 29 29 29 29 28 29 28 28 28
7 6 7 7 8 9 59 99 111 118 119 119 119 117 113 119
118 117 118 119 118 118 118 118 118 118 118 118 118 118 118 117
117 117 117 114 115 111 110 108 87 100 111 56 108 116 98 82
85 102 116 116 115 108 105 114 116 116 115 115 114 112 112 112
115 115 115 111 112 114 114 114 114 115 115 115 114 114 114 114
114 114 114 114 115 114 114 114 114 114 114 114 114 114 115 114
114 114 114 113 114 113 113 113 113 114 113 113 110 57 0 0
0 0 0 13 18 29 29 29 28 28 28 28 28 28 28 28
1 1 1 1 3 11 90 98 117 118 119 118 118 118 111 118
118 118 119 119 119 118 119 118 118 118 118 118 118 118 117 118
117 118 118 111 97 112 110 110 102 85 112 74 104 117 114 91
90 103 117 116 116 111 107 114 116 116 116 115 115 115 114 115
115 115 115 115 115 115 115 116 115 115 115 114 113 114 114 114
114 114 114 114 114 114 114 114 114 114 114 114 115 114 114 113
113 113 114 113 113 113 114 113 114 114 114 113 113 97 22 5
0 0 1 25 12 25 28 29 29 28 29 28 28 28 28 28
0 0 0 0 0 31 102 100 116 119 118 119 119 119 109 119
119 119 118 118 118 118 118 118 118 118 118 118 118 118 118 118
118 118 118 117 105 90 110 110 110 93 98 90 95 118 116 110
98 100 116 116 116 113 109 115 116 116 116 116 116 116 116 115
116 116 115 115 115 115 115 116 115 115 115 113 115 115 114 115
114 115 115 115 114 114 114 113 114 114 115 114 115 114 114 115
115 115 114 114 112 114 114 114 113 114 114 113 113 108 105 55
0 0 2 27 22 14 29 29 28 28 28 28 28 28 27 28
0 0 0 0 1 72 101 102 117 119 118 119 119 118 106 117
119 118 118 119 118 119 118 119 118 119 118 118 118 118 118 118
118 118 118 118 118 104 87 110 110 107 97 101 100 118 116 116
116 111 116 117 116 115 109 116 116 116 116 116 117 116 116 116
116 115 115 115 116 115 116 112 112 112 111 114 115 114 114 115
115 115 115 115 114 114 114 114 114 114 114 114 114 114 114 114
114 114 114 113 111 114 114 114 114 114 114 114 114 110 111 55
0 0 3 28 28 14 22 29 29 29 29 29 28 28 28 28
0 0 0 0 14 102 98 104 117 119 119 119 119 120 107 114
119 119 118 118 119 118 118 118 118 118 118 118 119 118 118 118
118 119 118 118 118 118 106 88 106 108 105 101 101 115 117 116
117 117 117 117 117 116 114 115 116 116 116 117 117 117 117 117
116 116 116 115 115 108 70 54 103 107 112 114 115 114 115 115
115 115 116 115 115 114 114 113 114 114 114 114 114 114 115 115
115 115 114 108 111 114 114 114 113 113 113 113 114 111 110 34
0 0 4 29 29 20 6 16 28 28 28 28 27 27 27 27
1 1 0 0 51 108 98 112 114 118 119 119 119 119 109 112
119 119 119 119 119 119 119 118 119 119 119 118 118 118 118 118
118 118 118 118 118 118 118 107 84 105 108 104 101 106 117 117
117 117 117 117 118 117 118 118 117 117 117 117 117 117 117 115
115 115 116 115 87 53 48 91 111 110 115 115 115 115 115 114
115 115 115 115 114 114 115 114 114 114 115 115 116 115 115 114
114 114 114 98 113 115 115 114 114 113 114 114 114 113 112 73
0 0 4 22 19 2 4 3 27 28 28 28 28 27 27 27
4 4 4 8 88 105 99 118 108 120 119 120 120 119 111 111
119 118 119 118 118 118 118 118 118 118 118 118 119 119 119 118
118 118 118 118 117 117 118 118 108 82 104 107 103 104 111 117
117 117 117 117 118 118 117 117 118 117 117 117 117 117 117 116
116 116 116 110 102 101 71 111 114 116 116 114 115 115 115 114
115 115 116 115 115 114 114 114 113 114 114 115 115 115 114 115
115 115 109 92 115 114 114 114 113 113 113 113 113 112 111 106
11 0 0 4 10 14 23 2 25 27 27 27 27 27 27 27
4 5 5 28 110 103 103 119 108 118 119 119 119 119 111 109
118 119 118 118 119 118 119 118 118 118 118 118 118 118 118 118
118 118 118 117 117 117 118 118 117 107 77 102 104 102 98 82
74 82 116 117 117 118 117 117 117 117 117 117 117 117 116 116
116 115 114 113 115 109 84 115 116 116 116 115 115 115 116 115
115 115 115 115 115 115 115 114 115 115 114 115 115 115 115 114
114 114 99 95 115 114 114 114 113 112 114 114 114 113 111 113
47 0 0 1 3 9 17 1 19 27 27 26 26 26 26 26
0 0 0 59 116 103 104 118 110 115 118 119 118 118 113 108
118 118 118 118 117 118 118 118 118 118 118 117 118 118 118 118
118 117 118 117 117 117 117 117 116 117 108 77 99 108 107 54
64 92 110 117 117 117 116 116 117 117 116 116 117 116 115 115
115 113 113 113 112 106 101 115 115 114 115 114 115 115 114 114
114 114 114 115 115 115 114 114 114 114 114 114 114 114 115 114
114 114 96 105 114 113 114 113 113 111 113 113 113 113 111 113
90 3 0 0 0 0 0 0 3 18 26 25 25 26 25 25
