P2
128 120
131
28 28 27 27 27 26 26 25 25 24 23 23 23 23 22 22
22 21 21 20 20 20 19 19 19 18 18 18 17 16 16 16
15 14 14 15 14 13 13 13 12 11 11 9 8 7 8 11
12 12 14 10 6 14 17 15 14 13 12 12 11 9 8 6
5 4 4 7 9 8 8 6 8 10 10 11 12 12 12 13
13 13 14 14 15 15 16 16 17 17 17 18 18 18 18 18
18 18 19 20 20 21 22 22 23 23 23 23 24 24 24 24
25 24 25 26 24 25 25 25 26 26 26 26 26 26 27 27
28 27 27 27 26 26 25 25 24 24 23 23 23 23 22 21
22 21 21 21 20 19 19 18 19 18 18 17 17 17 17 16
15 15 15 14 14 13 13 12 12 12 11 9 8 8 8 12
13 14 15 10 5 13 18 16 14 13 13 12 12 10 9 8
8 6 4 6 9 9 7 8 10 11 11 12 13 13 14 13
14 14 15 15 15 16 16 16 16 17 18 18 18 18 18 18
19 20 21 21 21 22 22 23 22 23 23 23 23 24 24 24
25 25 25 26 25 25 25 25 26 26 26 25 26 26 26 26
28 27 27 27 26 26 26 25 24 24 24 23 24 23 22 22
22 22 21 21 20 20 19 19 19 18 18 18 17 17 17 16
16 15 15 15 14 15 14 13 13 13 12 11 10 10 11 14
15 16 16 11 5 12 19 16 15 14 14 13 12 12 10 9
10 8 5 5 9 9 9 10 11 12 13 13 14 15 15 15
15 15 16 16 16 16 17 17 18 17 18 18 19 19 20 20
21 21 22 22 22 22 23 23 23 24 24 24 24 25 25 25
25 25 25 26 24 25 25 25 26 26 25 26 26 26 27 27
28 28 27 27 27 26 26 25 25 25 25 24 23 23 23 23
22 21 22 21 21 20 20 19 19 19 18 18 18 17 17 17
16 16 16 15 15 15 15 14 13 13 12 12 11 11 12 15
16 18 18 13 6 12 19 17 16 15 14 14 13 12 11 11
11 10 7 4 10 8 10 11 13 13 14 14 15 15 15 16
17 17 17 17 17 17 18 18 18 18 18 19 20 20 20 20
21 22 23 22 23 23 23 23 24 24 24 24 24 24 25 25
25 25 26 27 27 26 26 27 27 27 27 26 27 26 26 26
27 27 27 27 27 26 26 26 26 25 25 24 24 23 23 23
23 22 22 22 21 21 20 20 20 19 19 18 18 18 18 17
16 16 16 16 16 15 15 15 15 14 14 13 12 12 13 17
17 18 18 13 7 12 20 18 16 16 16 15 15 13 10 12
12 11 8 5 11 9 11 12 14 14 15 15 16 16 17 17
18 17 17 17 18 18 18 19 20 20 20 20 21 21 21 21
22 22 24 23 23 23 24 24 24 24 24 25 24 25 25 26
26 26 26 27 26 27 27 27 27 27 27 26 26 27 27 28
28 27 27 27 27 26 25 25 25 24 24 24 24 23 24 23
23 22 22 21 21 20 21 20 19 19 19 18 18 18 18 18
18 17 16 16 16 15 15 15 15 14 14 13 13 14 14 18
19 19 19 14 8 11 20 18 17 16 16 16 15 14 12 13
12 12 10 6 12 10 12 15 15 16 16 16 17 17 17 17
17 18 18 18 18 19 19 19 20 20 21 21 21 22 21 22
22 23 24 23 24 24 24 25 24 24 25 24 25 24 25 25
25 26 26 27 26 26 26 25 25 26 26 27 27 26 27 27
27 27 27 27 27 26 26 26 26 25 25 25 25 24 24 23
23 22 22 22 21 21 21 19 20 20 19 19 19 18 18 18
17 18 17 16 17 16 16 16 16 15 15 14 15 16 15 19
20 20 20 14 9 11 20 19 17 17 17 16 16 15 14 14
13 12 12 7 12 11 14 16 16 16 17 17 17 17 17 18
19 19 19 18 19 20 20 20 20 20 21 21 21 22 22 23
23 24 25 24 24 24 24 24 25 25 25 25 25 26 26 26
26 25 26 25 25 26 27 27 27 26 27 27 27 27 27 27
28 28 27 27 27 27 26 26 26 25 25 25 24 24 24 24
23 23 22 22 22 21 21 20 20 20 19 19 19 18 18 18
18 17 17 17 17 16 16 16 15 15 15 15 15 16 16 19
20 20 20 15 11 11 21 19 18 18 17 17 16 15 15 14
14 13 12 8 13 13 15 16 16 17 16 18 18 18 19 18
19 19 20 20 20 21 20 21 21 22 22 22 22 22 23 23
23 23 24 24 24 25 25 25 25 25 24 25 26 26 26 25
25 25 26 26 26 27 26 26 27 26 27 27 27 27 27 27
27 27 27 27 27 27 26 26 26 25 26 25 25 24 24 24
23 22 23 22 21 21 21 20 21 20 20 20 20 19 19 18
18 17 18 17 17 17 16 16 16 15 16 15 15 16 17 20
21 20 20 15 12 10 20 20 19 18 18 17 17 17 17 15
14 14 13 10 13 12 16 16 17 17 17 18 18 19 19 19
19 20 20 20 21 21 21 21 21 21 21 22 22 22 23 23
23 23 25 24 24 24 25 25 25 25 24 23 25 24 25 26
27 27 27 26 27 27 27 27 27 27 27 27 27 27 27 27
28 28 28 28 27 26 26 26 26 25 25 25 25 24 24 24
23 22 23 22 22 22 22 21 21 21 20 20 20 19 19 19
18 18 18 17 17 17 17 16 16 16 16 16 16 17 18 21
21 21 21 17 13 10 20 20 19 18 18 18 17 16 16 15
15 15 14 12 15 15 17 18 18 18 19 19 19 19 20 19
19 20 21 20 21 21 22 21 22 22 22 22 22 23 23 23
24 24 25 25 25 25 25 24 24 25 26 27 26 26 26 26
26 27 26 26 27 27 27 27 27 27 27 27 27 28 27 28
28 28 27 27 27 27 27 26 26 26 26 25 25 25 24 24
23 23 23 22 22 22 22 21 21 21 21 20 20 19 19 19
19 18 19 18 17 18 18 17 17 17 17 17 17 17 19 21
22 22 22 17 13 10 20 20 18 18 18 18 18 17 17 16
16 16 15 13 16 15 18 19 19 18 19 19 20 20 20 20
20 21 21 21 21 21 22 22 22 22 23 22 23 24 24 24
24 24 25 24 23 23 24 24 26 26 26 27 26 26 26 26
27 27 27 27 27 27 27 27 27 27 27 27 27 28 27 27
28 28 28 28 27 27 27 26 26 26 26 26 25 25 24 24
24 23 23 23 23 23 23 22 22 21 21 21 20 19 19 19
19 19 18 18 18 18 18 17 17 17 17 17 17 18 19 21
22 22 23 18 14 8 16 20 19 18 19 19 18 17 18 17
17 17 16 13 16 17 19 20 20 19 20 20 20 21 20 20
21 21 22 22 21 22 23 23 22 23 23 24 24 24 24 23
23 23 23 24 25 25 26 26 26 26 27 27 27 27 27 27
27 27 26 27 27 27 27 27 27 28 28 27 27 28 28 27
29 28 28 27 28 27 26 26 26 26 26 25 25 25 25 24
24 24 23 23 23 22 22 22 22 22 22 21 21 21 20 20
20 19 19 19 18 18 18 18 17 17 18 17 18 18 19 22
23 23 23 17 12 5 16 21 20 20 20 19 19 19 19 17
17 17 17 13 18 17 19 19 20 19 20 20 20 21 21 22
21 22 22 22 22 22 22 23 23 23 23 23 23 23 23 24
25 25 25 26 26 26 26 26 26 26 27 28 27 27 27 27
27 27 28 28 28 27 28 28 28 28 28 28 27 28 28 27
29 28 28 27 28 27 27 26 26 26 26 25 25 26 24 25
25 24 24 24 23 23 23 22 22 22 22 21 20 21 20 20
20 20 19 19 19 19 19 18 18 18 18 17 18 18 19 22
23 23 23 18 13 11 18 22 21 20 21 21 20 19 20 18
17 18 16 14 18 18 21 20 21 20 21 21 21 21 22 22
21 22 22 22 23 23 23 23 23 23 23 23 24 24 24 25
25 26 25 25 26 26 27 27 27 27 27 28 28 27 28 27
27 28 28 27 27 27 28 28 27 28 28 28 28 28 28 28
28 28 28 27 27 27 27 26 26 26 26 26 26 25 25 25
25 24 25 23 23 23 22 22 22 22 21 21 21 21 21 20
21 21 19 19 19 19 19 19 18 18 18 18 18 19 20 23
23 23 23 18 14 15 17 23 21 21 21 20 20 20 20 18
18 18 18 15 19 19 21 21 21 21 21 22 22 22 22 23
23 23 23 23 23 23 23 22 23 24 24 25 25 25 25 25
26 26 27 26 26 27 27 27 27 27 26 28 27 27 27 28
27 28 28 28 28 28 27 28 28 28 27 28 28 28 28 28
29 28 28 27 27 27 27 27 26 27 26 26 26 26 25 26
25 25 25 24 24 24 23 23 22 22 22 22 22 21 21 21
21 20 20 20 20 20 20 19 19 18 18 19 19 19 20 23
24 24 23 18 15 16 17 24 23 21 22 21 20 20 21 19
18 18 18 16 20 19 21 21 22 21 21 22 23 23 22 23
22 22 22 22 23 23 23 24 25 25 25 25 25 25 26 26
26 26 27 27 26 27 27 28 28 28 27 28 28 28 29 27
27 28 29 28 28 28 28 29 28 29 29 29 29 28 28 28
28 27 28 27 27 27 26 26 26 26 27 26 26 26 26 25
25 25 25 24 24 24 23 23 22 22 22 22 22 22 22 21
21 21 20 20 19 19 19 19 19 18 18 18 18 19 20 24
24 24 24 19 15 17 16 23 22 21 21 20 21 20 21 19
19 19 19 15 20 19 21 21 21 21 22 22 22 22 22 22
22 23 23 22 23 24 24 24 24 24 25 25 26 25 25 26
26 26 27 26 27 27 27 28 27 27 27 28 27 28 27 28
28 28 28 28 28 29 28 28 28 28 28 27 27 27 28 28
28 27 27 27 27 27 27 27 27 27 26 26 26 25 26 25
25 25 25 24 24 24 23 23 23 22 22 22 22 22 22 22
21 21 20 20 20 20 20 20 19 19 19 19 19 20 20 23
24 24 24 19 15 19 15 23 22 22 22 22 20 20 21 19
19 19 19 16 20 20 22 22 22 22 22 22 22 22 23 23
23 22 23 23 23 24 25 24 24 25 26 26 25 25 26 26
27 26 26 26 26 27 26 27 27 27 28 28 28 27 27 28
28 28 28 28 28 28 27 28 28 28 28 28 28 28 27 28
28 27 28 27 27 27 26 27 27 27 26 26 26 26 25 25
25 24 25 24 24 24 23 23 23 23 23 22 23 22 22 22
21 21 21 20 20 20 19 19 19 18 19 18 19 20 21 24
25 25 24 19 15 19 16 22 22 22 22 21 21 20 21 20
19 20 19 17 20 19 22 22 21 22 22 22 22 23 23 23
23 24 24 23 24 24 25 25 24 26 26 25 26 25 26 26
26 26 27 27 26 26 27 27 27 27 27 28 28 28 28 28
28 28 27 27 27 27 28 28 27 27 28 27 28 27 27 27
27 27 27 27 27 27 27 27 27 27 26 26 25 25 26 25
25 25 24 24 25 24 24 24 23 23 23 22 22 22 22 21
22 21 21 20 21 19 20 19 19 18 19 19 19 20 21 24
25 24 24 20 15 19 15 22 22 22 22 21 21 20 22 20
20 19 19 16 19 18 22 22 22 22 23 24 23 23 23 24
23 23 24 24 24 24 25 25 25 25 26 26 26 26 26 26
26 26 26 27 27 27 28 27 27 28 28 28 28 28 27 27
27 27 27 28 28 27 28 27 26 27 27 27 28 28 28 28
28 27 27 27 27 26 26 27 26 26 26 26 26 25 26 25
25 25 25 25 24 24 24 23 23 23 23 23 23 22 22 22
22 21 21 21 20 20 20 19 19 19 19 19 19 20 21 24
25 24 25 20 16 19 16 21 23 22 22 21 21 20 22 20
20 20 20 17 20 20 22 23 23 23 23 24 23 23 23 23
24 24 24 24 25 25 25 26 25 25 26 26 26 26 27 26
26 26 27 27 28 28 28 28 28 28 27 26 26 27 27 27
27 28 28 28 29 27 27 27 27 27 27 27 28 28 28 28
27 27 28 27 27 27 27 27 27 27 26 26 26 26 25 25
25 25 25 25 25 24 24 24 25 24 24 23 23 22 22 22
21 21 21 21 20 20 20 20 20 20 20 20 19 21 21 24
25 26 26 20 17 18 15 18 22 22 22 21 21 21 23 21
20 20 20 18 20 21 23 23 23 23 24 24 24 24 24 24
25 24 24 25 25 26 25 25 26 26 26 27 26 26 27 27
27 27 27 28 27 27 27 26 27 28 28 28 29 28 28 28
29 28 28 28 29 28 28 28 27 28 28 28 29 28 28 28
27 27 28 27 27 27 27 26 26 26 25 26 26 26 26 26
26 26 26 25 25 25 24 24 24 23 23 23 23 23 22 22
22 21 21 20 21 20 20 20 20 19 19 19 20 20 20 24
24 23 21 19 18 13 12 15 13 12 15 19 21 21 22 21
21 21 20 18 21 21 23 23 23 23 23 24 24 24 25 24
25 24 24 25 26 26 26 26 26 26 26 26 26 27 27 27
27 27 27 27 27 28 28 28 29 29 28 28 28 28 28 28
28 28 29 28 29 28 27 27 27 28 27 28 28 28 28 27
28 28 28 27 28 27 27 27 27 27 27 27 27 26 26 26
26 26 25 25 25 25 25 24 25 24 24 23 23 23 23 22
22 22 22 21 21 21 21 21 21 21 20 20 16 11 13 17
21 26 28 25 22 20 19 17 16 15 11 2 6 13 18 22
21 21 21 18 21 21 23 23 24 23 24 25 25 25 25 25
25 25 25 25 26 26 26 26 27 27 27 27 27 27 26 27
27 28 28 29 29 29 29 29 29 29 29 29 29 29 29 28
28 28 29 28 29 28 28 28 28 28 28 28 28 28 29 28
28 28 28 28 28 28 27 27 27 27 27 27 26 26 26 26
26 27 27 26 26 26 25 25 24 24 24 24 23 23 23 23
23 23 22 22 22 22 22 21 21 21 20 17 13 19 20 14
19 21 19 23 20 19 23 28 28 27 21 11 3 1 8 13
20 21 21 19 21 22 24 24 24 24 25 25 25 26 26 25
26 26 27 26 27 26 27 27 27 27 27 27 27 27 27 28
28 29 29 30 29 30 30 29 30 29 30 29 29 29 29 29
29 28 29 29 30 28 28 29 29 29 28 29 29 29 29 28
28 28 28 27 27 27 27 28 28 28 27 27 27 27 27 27
27 27 26 26 26 25 25 25 25 25 25 24 24 24 24 23
23 23 23 23 23 22 22 22 21 20 12 5 10 19 22 17
18 19 17 17 20 19 17 16 26 32 26 19 7 0 1 10
16 18 22 19 21 22 24 25 25 25 26 26 26 26 27 26
26 27 27 27 27 26 26 27 27 27 28 28 27 29 29 29
29 29 30 31 30 29 30 29 29 29 29 30 30 29 29 30
29 29 30 29 30 29 29 29 29 28 28 28 29 28 29 29
28 28 28 27 28 27 28 27 27 28 28 27 27 27 27 27
27 27 27 27 27 26 26 25 26 25 25 24 24 24 24 24
23 24 24 23 23 23 22 22 21 8 1 7 9 8 7 14
16 18 17 18 23 24 23 16 17 14 8 2 1 0 0 0
11 20 20 20 21 22 25 26 25 26 26 26 27 26 26 26
26 26 26 27 27 27 27 27 28 28 28 28 28 29 29 29
29 29 30 30 30 30 30 30 30 29 30 29 30 29 29 29
29 29 29 28 30 30 29 29 29 29 29 29 29 29 29 29
29 28 28 28 28 28 28 28 28 28 28 28 28 27 28 28
27 27 27 27 26 26 26 26 26 26 26 26 25 25 25 25
24 24 23 23 23 22 23 20 7 1 0 2 4 13 11 10
9 10 12 18 20 27 27 24 15 11 7 1 2 2 0 0
0 14 21 21 23 23 25 25 26 26 26 26 26 26 26 26
26 26 27 27 28 28 28 28 28 29 29 29 29 29 30 30
30 30 30 31 30 30 30 29 30 30 30 30 30 30 30 30
30 29 30 30 30 30 29 29 30 29 29 29 29 29 28 28
29 28 29 28 28 28 29 28 28 28 28 28 28 28 28 28
28 28 27 27 27 26 26 26 26 26 26 25 25 25 25 25
25 24 24 24 24 23 22 7 0 0 0 2 8 12 12 12
11 15 16 17 23 18 22 26 24 21 20 16 4 2 3 1
0 1 16 23 22 22 26 26 27 26 26 26 26 26 26 26
27 27 27 28 28 28 28 29 28 29 29 29 29 29 29 30
30 30 30 30 31 30 30 30 30 30 30 30 30 30 29 30
30 30 30 30 30 30 29 30 29 29 29 29 28 28 28 28
29 28 29 28 28 28 28 28 28 28 28 28 28 28 28 27
28 27 27 27 26 26 26 26 27 26 26 25 26 25 26 25
25 24 24 24 23 23 10 0 0 1 2 2 9 12 15 16
19 16 13 15 18 16 14 18 16 13 11 16 10 1 0 3
2 0 4 13 12 19 25 26 26 26 26 26 27 27 28 27
27 28 28 29 29 28 28 29 29 29 29 30 30 30 30 30
30 30 31 31 31 30 30 30 30 30 30 30 30 30 30 30
30 30 30 30 30 29 27 27 28 28 28 28 29 29 31 28
29 28 29 28 29 29 29 29 28 28 29 28 28 28 27 28
28 28 27 27 27 27 27 27 27 26 26 26 26 26 25 25
24 24 24 25 24 19 0 0 2 12 3 5 4 7 6 12
19 17 14 15 19 16 13 9 5 4 3 7 10 6 6 8
6 1 0 3 8 10 18 26 26 27 27 27 27 27 28 27
28 28 28 29 29 28 29 29 29 29 30 29 30 30 30 30
30 30 31 30 31 31 30 31 31 30 31 30 30 30 30 30
30 28 29 28 28 28 29 30 29 29 29 28 29 29 30 28
24 27 28 29 29 29 29 28 28 28 29 28 28 28 28 27
28 27 28 27 27 27 28 27 27 27 27 27 26 26 26 25
25 25 24 24 23 7 0 0 3 1 2 1 0 2 10 16
21 18 18 27 23 14 8 8 5 2 2 5 8 11 19 30
26 13 5 0 8 16 20 20 26 27 27 27 27 27 28 28
28 29 28 29 29 29 30 29 29 30 30 29 30 30 31 30
31 31 31 31 31 30 31 30 30 31 31 30 30 29 28 29
29 29 30 30 30 29 29 29 30 29 29 29 28 29 29 29
8 17 29 29 28 29 29 28 28 29 29 28 28 28 28 28
28 28 28 28 27 28 28 27 27 26 26 26 26 26 26 25
25 25 25 24 20 0 0 0 0 3 5 4 3 9 10 13
17 16 16 21 23 22 23 16 10 4 3 4 7 15 26 42
52 47 27 15 1 8 16 16 19 27 27 28 28 28 29 28
28 29 28 30 29 29 29 30 30 30 30 30 29 30 30 31
31 31 31 32 31 31 30 31 31 31 30 30 30 29 30 30
30 30 29 29 29 29 29 29 30 29 29 29 29 29 29 29
7 15 29 29 29 29 29 29 28 28 28 29 29 29 28 29
29 29 29 28 28 28 28 28 27 27 27 26 26 26 26 26
26 25 25 24 10 0 0 0 1 1 5 2 1 2 6 7
12 18 18 19 25 31 26 18 13 11 10 9 11 17 37 61
62 63 53 39 19 1 11 16 11 23 28 28 28 28 29 29
29 29 30 30 30 30 30 30 30 29 29 30 30 31 31 31
31 31 31 30 30 30 31 30 30 30 30 30 31 31 30 30
30 30 30 30 30 29 29 29 29 29 29 29 29 28 29 29
9 14 28 30 28 29 28 29 28 28 29 30 29 29 29 29
29 29 28 28 28 28 28 28 28 28 27 26 30 31 30 28
26 26 25 21 0 0 0 0 0 0 0 2 3 4 4 7
9 16 23 17 23 25 30 25 21 19 16 15 14 30 57 71
70 71 70 54 43 14 5 18 20 19 28 28 28 28 28 29
29 29 29 30 30 30 30 29 30 30 31 31 31 31 31 30
31 31 31 31 30 30 30 31 31 30 30 30 30 31 30 30
30 30 29 30 30 30 29 29 29 30 29 29 29 28 29 29
9 15 28 29 29 29 29 29 30 37 36 35 34 32 30 30
28 29 29 28 29 28 28 27 28 27 27 28 37 40 36 34
32 31 27 15 0 0 0 0 0 0 1 3 6 7 9 10
16 14 16 24 24 28 31 27 36 30 29 26 39 61 71 74
81 78 78 66 53 33 9 19 25 27 25 29 29 29 29 29
29 29 30 30 30 30 30 30 30 30 30 30 30 30 31 31
31 31 31 31 31 31 31 31 31 30 30 30 31 31 30 30
30 29 30 30 29 30 29 29 29 29 30 30 29 29 28 29
10 17 29 30 30 30 30 29 31 40 39 39 38 35 34 33
33 31 30 29 29 28 28 27 28 28 28 29 38 38 37 35
35 35 30 6 0 0 0 0 0 0 0 0 0 0 2 11
8 12 16 20 29 38 35 33 32 40 39 54 74 80 90 93
88 81 77 74 62 48 23 19 25 20 22 28 30 30 30 30
29 29 30 30 30 29 29 29 30 30 30 31 31 31 31 31
31 31 31 31 31 30 30 30 30 30 30 30 31 31 30 30
31 30 30 30 30 30 30 29 29 29 29 30 29 28 29 29
10 19 32 31 31 31 30 29 31 40 40 38 36 36 36 38
39 35 34 33 32 30 28 27 28 28 28 28 35 35 34 33
35 35 27 1 0 0 0 0 0 0 0 0 0 1 6 13
17 20 22 32 39 45 49 50 62 61 78 98 96 101 105 99
92 86 79 74 71 57 40 18 32 11 20 25 29 29 29 30
29 29 30 29 30 30 30 30 30 30 30 31 32 31 31 31
31 31 32 31 31 30 30 30 30 30 30 30 30 31 30 30
30 30 30 30 30 30 30 30 29 29 29 29 29 29 29 29
9 20 34 34 32 33 33 33 33 34 29 34 36 37 39 40
41 35 30 33 36 35 33 32 31 31 29 29 28 18 20 22
27 30 17 0 0 0 0 0 0 0 0 0 0 0 2 6
12 20 30 35 37 44 58 71 81 101 106 109 115 114 111 105
95 87 82 74 74 65 51 25 32 12 9 19 29 29 29 29
29 29 29 29 29 30 30 30 30 30 31 32 32 31 31 31
31 31 31 31 31 30 30 30 30 30 30 30 31 32 30 30
30 30 30 30 30 30 30 29 29 29 29 29 29 29 29 29
10 20 34 33 28 29 33 36 38 21 1 6 19 28 33 35
38 32 7 7 13 19 27 29 32 35 34 31 27 12 8 9
8 8 3 0 0 0 0 0 0 0 0 0 0 1 6 14
28 42 51 62 67 76 89 103 112 116 117 119 119 118 114 109
101 89 83 77 75 69 57 37 19 13 2 14 27 30 29 30
29 29 29 29 30 30 30 30 30 30 31 31 32 31 31 31
31 31 31 31 32 31 31 31 31 30 30 30 30 31 30 29
30 29 29 29 29 30 30 30 29 29 29 29 29 29 29 29
10 18 32 34 32 30 31 39 41 21 0 0 3 11 13 13
22 30 2 0 0 0 2 6 10 16 23 30 27 9 1 4
6 2 0 0 5 5 2 0 0 0 0 0 1 12 29 56
90 101 110 114 117 118 118 118 119 120 120 119 119 119 117 111
104 91 83 80 76 72 60 45 16 10 2 9 27 29 30 30
30 29 29 30 30 30 30 30 31 30 31 31 32 31 31 31
31 31 31 31 31 31 30 31 30 31 30 30 31 31 31 30
30 29 29 30 29 29 29 29 29 29 29 30 29 29 29 27
10 9 8 14 22 29 34 39 41 23 0 0 1 5 9 10
17 31 3 0 0 0 0 0 0 0 1 23 27 6 0 0
2 3 0 3 9 17 29 17 9 4 8 12 24 47 78 106
119 121 121 121 121 121 120 120 120 120 120 120 119 119 118 114
104 96 87 81 78 72 63 52 18 13 0 6 23 30 30 30
30 30 30 30 31 30 31 31 31 31 31 31 32 32 31 31
31 31 31 31 31 31 31 31 31 31 31 30 31 31 30 30
30 30 30 30 30 30 31 30 30 30 30 30 30 30 30 30
11 4 0 0 0 2 7 14 24 22 0 0 0 1 1 3
13 30 4 0 0 0 0 0 0 0 0 22 25 3 0 0
0 1 0 9 10 24 47 54 63 66 73 84 95 103 114 121
121 121 121 120 120 121 120 120 120 120 120 120 120 120 119 116
107 98 91 85 79 72 63 57 22 21 0 4 25 30 30 30
30 30 30 30 31 30 31 31 31 32 31 31 32 31 32 32
32 32 32 31 32 31 31 31 31 31 31 31 31 31 31 31
30 31 30 30 30 30 29 30 30 31 31 30 30 30 30 30
11 5 0 0 0 0 0 0 1 15 0 0 0 0 0 0
12 29 2 0 0 0 0 0 0 0 0 21 23 0 0 0
0 3 3 13 17 30 54 61 73 82 89 98 106 113 119 120
121 121 121 121 121 121 121 121 121 120 120 120 120 120 120 118
109 103 94 89 82 75 64 55 25 21 2 2 21 30 30 30
30 30 30 30 31 31 31 31 32 31 31 32 32 31 32 32
32 32 32 32 33 33 32 32 32 32 32 31 31 31 30 31
31 31 31 30 31 30 30 31 31 31 31 30 29 30 30 30
11 5 0 0 0 0 0 0 0 13 0 0 0 0 0 0
14 31 2 0 0 0 5 8 1 0 0 19 23 0 0 0
0 2 7 15 22 32 57 62 73 87 93 100 107 114 119 122
121 122 122 121 121 121 121 121 121 121 121 120 120 120 120 119
114 105 96 90 85 76 65 53 25 15 4 2 17 31 31 31
31 31 30 31 31 31 31 31 32 32 32 32 33 32 32 32
33 32 33 32 32 32 32 32 31 32 31 32 31 32 32 32
32 32 32 31 30 31 32 31 31 31 32 31 31 31 31 31
11 5 0 0 0 0 0 0 0 10 0 0 0 0 0 0
14 35 3 0 0 0 7 12 8 4 0 17 23 0 0 0
0 0 11 10 18 28 54 60 73 89 95 101 107 112 117 121
122 121 121 121 121 121 121 122 121 121 121 121 120 120 120 118
115 107 100 93 88 77 66 50 25 16 3 0 9 30 30 30
31 31 31 30 31 32 31 32 32 32 32 32 33 32 32 32
33 33 33 33 32 32 32 32 32 32 32 31 31 31 31 30
30 31 31 30 29 31 32 32 31 31 31 32 31 31 31 31
11 5 0 0 0 4 2 0 0 9 0 0 0 0 0 0
12 35 4 0 0 0 9 12 11 11 2 15 24 0 0 0
0 0 9 5 7 19 47 58 69 85 96 102 106 112 116 119
122 121 121 121 121 121 121 121 120 121 121 121 120 120 120 119
116 108 102 97 92 79 62 47 23 23 1 0 4 30 30 30
30 31 31 30 31 31 31 31 31 32 32 32 33 32 32 32
32 32 33 32 32 32 31 31 31 31 31 31 31 31 31 30
31 30 30 30 30 29 31 31 31 31 31 31 31 30 29 28
10 4 0 4 0 0 0 0 0 8 0 0 0 0 0 1
12 34 4 0 0 0 5 10 10 10 2 14 26 2 0 0
0 0 4 0 0 13 37 55 64 81 94 101 105 109 115 119
121 121 120 121 120 120 121 120 120 120 120 120 120 120 119 118
114 107 104 101 94 79 63 45 18 16 0 0 2 28 29 29
29 30 30 30 30 31 31 30 31 31 31 31 31 31 31 31
31 31 32 31 32 32 31 31 31 31 30 30 30 30 30 30
30 30 30 30 30 30 31 29 29 29 28 30 29 27 25 24
10 4 1 1 0 0 0 0 0 8 0 0 0 0 0 2
16 36 8 0 0 0 0 2 7 8 1 12 33 25 17 12
7 4 1 0 0 7 29 50 60 77 93 100 104 108 115 118
121 121 121 120 120 120 120 120 119 119 120 120 119 119 119 118
115 110 104 101 95 78 64 45 17 8 0 0 9 30 30 29
29 29 30 30 30 30 30 30 30 30 31 30 30 30 30 30
31 31 31 30 32 31 30 31 30 30 30 31 30 29 29 29
29 29 28 28 27 28 29 27 25 25 23 21 19 16 14 11
10 4 0 0 0 0 0 0 0 18 13 7 4 3 0 0
11 40 29 21 17 14 7 2 1 4 0 10 36 37 35 33
33 33 7 0 0 2 17 42 56 73 92 99 102 107 113 117
121 121 120 120 121 120 120 120 120 120 120 119 119 119 119 117
115 111 107 102 96 77 61 43 16 1 0 0 10 30 30 29
29 30 29 30 31 31 30 30 30 30 31 31 30 30 30 30
31 31 31 31 31 30 30 29 30 29 28 29 28 27 27 26
27 28 26 25 24 22 20 17 15 12 10 9 10 10 11 12
9 5 0 0 0 0 0 0 0 29 41 32 29 28 25 18
20 44 27 20 23 24 25 23 21 20 18 25 39 37 36 36
36 39 13 0 0 0 8 36 54 71 93 99 103 109 114 119
121 121 121 121 120 119 120 120 120 120 119 120 119 119 119 119
117 113 108 103 95 77 62 36 7 0 0 0 9 30 29 30
30 30 30 30 32 30 30 30 30 31 30 31 30 31 31 31
32 31 31 31 31 30 29 28 28 27 27 28 27 26 25 23
20 18 15 14 12 11 11 11 12 13 14 14 15 16 17 17
9 5 0 0 0 0 0 0 0 31 43 34 39 40 43 43
39 41 19 9 11 12 13 14 15 18 21 26 26 23 27 31
34 36 22 0 0 0 4 39 56 73 92 99 104 110 115 118
120 120 121 120 120 120 120 120 120 120 120 119 119 119 119 119
117 116 110 104 95 78 62 38 2 0 0 1 12 30 30 30
30 29 30 30 31 30 30 31 31 31 31 31 31 31 31 31
31 30 31 30 30 29 28 28 30 24 22 19 18 15 14 13
13 13 14 14 15 16 17 17 18 19 19 20 18 15 19 21
11 14 15 10 6 2 0 0 0 30 37 34 41 43 46 46
38 32 18 11 11 10 10 9 8 8 7 7 8 9 12 15
24 28 20 0 0 0 7 45 58 73 89 99 105 112 116 117
121 121 121 121 120 120 120 120 120 121 120 120 120 119 120 119
117 116 110 104 95 80 63 43 1 0 0 0 4 29 30 30
31 30 30 29 31 31 31 30 30 30 31 30 31 31 31 31
30 29 26 25 23 20 18 19 30 21 11 14 15 16 16 17
18 18 19 20 20 21 21 22 22 23 23 23 24 21 16 22
11 20 36 39 35 31 25 20 18 34 29 33 39 42 44 46
41 33 21 13 12 11 9 8 8 8 7 7 6 7 7 8
22 24 20 3 0 0 9 38 47 60 77 92 101 109 114 115
118 119 120 121 120 120 120 120 120 120 120 120 117 113 114 111
114 111 105 99 91 76 59 45 12 0 0 0 3 28 30 30
29 30 28 29 30 31 31 30 31 31 31 29 28 26 24 21
19 18 16 16 16 17 17 16 26 18 15 18 21 21 21 22
23 23 24 24 24 24 24 25 25 25 25 25 26 26 24 16
11 20 38 41 41 39 40 40 41 40 17 18 26 31 37 40
38 35 25 14 12 9 6 6 6 7 8 8 8 8 9 12
24 16 9 5 0 0 13 36 47 49 53 51 47 43 46 51
60 76 101 118 121 121 121 120 121 120 108 96 78 68 67 61
62 62 57 53 49 45 45 28 11 1 0 0 6 26 28 27
28 29 30 30 30 29 28 27 25 23 21 20 18 18 17 18
19 20 21 21 22 22 23 21 27 22 18 22 24 24 25 25
26 26 27 27 26 26 27 26 26 26 27 26 26 28 28 24
10 19 37 42 42 41 42 41 43 38 6 0 1 4 8 14
18 28 27 12 10 6 0 0 0 3 9 10 8 8 11 14
25 30 23 4 0 0 7 15 10 7 9 25 31 10 6 7
12 19 28 55 93 117 121 121 121 115 81 39 29 30 26 24
31 56 60 29 11 5 9 9 6 0 4 9 22 25 26 19
23 27 26 23 22 21 20 19 19 19 20 20 21 21 22 24
24 25 26 25 26 27 27 25 28 23 22 26 27 28 27 28
28 28 28 29 29 29 29 28 28 27 27 27 27 28 29 29
16 19 30 33 34 35 36 38 42 35 3 0 0 0 0 2
10 28 28 11 9 5 0 0 0 0 2 3 0 0 5 6
22 36 31 6 5 0 0 0 0 0 7 12 13 8 3 0
0 0 1 11 41 84 119 121 120 108 53 26 13 7 5 1
10 16 24 10 5 2 0 0 0 1 25 27 26 23 22 15
17 19 20 20 21 21 22 23 23 25 25 25 26 26 27 28
29 29 30 29 30 30 29 23 13 10 21 28 30 29 29 30
29 30 30 30 30 30 31 30 30 29 27 27 28 28 29 29
16 18 20 22 25 28 28 30 38 33 2 0 0 0 0 0
1 28 28 10 8 4 0 0 1 1 0 0 0 0 0 1
21 40 50 10 6 2 4 0 0 0 4 11 10 5 1 0
0 0 0 0 4 30 85 115 109 66 24 7 2 0 0 0
12 14 14 11 0 0 0 0 0 3 23 44 37 19 20 19
21 22 24 24 26 26 27 28 28 29 30 30 31 30 30 30
31 31 31 30 30 30 30 20 3 1 16 29 31 31 31 30
30 31 30 30 31 30 31 30 30 29 29 28 28 26 28 29
16 17 17 18 20 26 25 28 38 32 2 0 0 0 0 0
0 26 23 4 1 0 0 0 4 5 1 0 0 0 0 0
20 46 44 42 3 7 10 0 0 0 1 2 2 2 1 0
0 0 0 0 1 7 26 49 42 18 7 4 0 0 0 0
9 17 15 4 0 0 0 0 1 1 7 32 45 23 25 25
25 27 28 28 29 30 30 30 30 31 31 31 31 32 32 32
32 32 31 26 21 16 25 18 6 2 13 28 30 31 31 31
31 31 31 30 30 31 30 30 30 30 29 29 27 26 26 28
13 16 15 19 24 28 29 32 38 31 1 0 0 0 0 0
0 29 18 0 0 0 0 0 1 8 7 1 0 0 0 0
20 51 59 62 31 18 8 0 0 0 0 0 0 0 0 0
0 0 0 0 0 5 10 10 10 12 7 0 0 0 0 0
4 9 6 0 0 0 0 0 3 2 15 57 54 29 28 29
30 30 31 30 30 31 31 32 32 32 32 33 33 33 33 32
32 33 22 3 1 3 20 17 1 0 13 28 31 32 32 31
31 31 31 30 30 30 30 30 29 29 29 29 28 27 25 26
16 13 0 1 4 8 12 17 22 26 2 0 0 0 0 0
0 30 19 0 0 0 0 0 2 10 12 7 3 0 0 0
20 52 60 68 56 24 9 0 0 0 0 0 0 0 0 0
0 0 0 0 0 5 8 18 13 11 6 0 0 0 0 0
0 0 0 0 0 0 0 0 3 4 46 70 59 31 28 29
31 32 32 31 31 33 32 33 33 33 33 33 34 33 33 33
33 33 27 19 22 26 29 21 1 0 12 28 30 31 31 30
30 31 30 31 31 30 30 30 30 29 29 29 29 28 25 23
20 15 0 0 0 0 0 0 0 13 1 0 0 0 0 0
0 29 16 0 0 0 0 2 12 14 14 12 6 0 0 0
19 51 61 74 59 28 10 0 0 0 0 0 0 0 0 0
0 0 0 0 0 7 53 111 99 25 9 0 0 0 0 0
0 0 0 0 0 0 0 0 4 11 45 73 65 33 30 31
32 32 32 32 33 33 33 33 33 33 34 34 33 34 34 34
33 34 32 32 32 31 30 23 3 0 14 28 31 31 32 31
31 31 30 30 30 30 29 29 29 28 28 29 29 28 28 24
20 16 0 0 0 0 0 0 0 11 1 0 0 3 1 0
0 28 14 0 0 0 0 1 13 17 14 4 2 0 0 0
18 55 63 74 53 33 15 0 0 0 0 0 0 0 0 0
0 0 0 0 0 12 80 114 110 59 9 0 0 0 0 0
0 0 0 0 0 0 0 0 8 21 46 74 72 33 31 32
32 33 33 33 33 34 34 34 34 33 34 34 34 34 34 33
34 33 33 32 32 31 30 26 7 0 17 28 31 31 32 31
31 30 30 30 29 30 30 29 29 29 28 29 28 27 27 24
19 15 0 0 0 1 0 0 0 10 1 0 2 13 8 0
0 28 13 0 0 0 0 0 1 10 8 0 0 0 0 0
14 50 61 73 53 36 20 0 0 0 0 0 0 0 0 0
0 0 0 0 2 25 93 114 111 84 13 1 0 0 0 0
0 0 0 0 0 0 0 0 13 28 58 81 74 34 33 33
33 33 33 33 33 34 33 33 33 33 33 34 34 33 34 34
34 33 33 32 33 31 29 26 16 8 23 29 32 31 32 31
31 30 29 29 29 29 29 29 29 28 28 28 27 27 26 25
17 15 0 0 1 11 3 0 0 9 2 0 6 14 10 3
0 28 12 0 0 0 0 0 0 7 9 0 0 0 0 0
11 44 62 69 55 40 30 0 0 0 0 0 0 0 0 0
0 0 0 0 6 56 100 115 114 96 32 4 0 0 0 0
0 0 0 0 0 0 0 0 24 39 71 85 68 32 33 33
33 34 34 34 34 34 34 34 33 33 33 34 34 34 34 33
33 33 33 33 32 31 29 26 23 22 27 31 32 31 32 31
30 30 30 30 30 30 30 30 29 28 28 27 27 26 26 24
16 14 0 0 6 17 7 2 0 13 19 13 21 21 19 14
7 32 11 0 0 0 0 0 0 7 12 0 0 0 0 0
7 40 60 65 53 42 44 3 0 0 0 0 0 0 0 0
0 0 0 4 26 86 100 113 113 96 64 8 0 0 0 0
0 0 0 0 0 0 0 3 41 58 84 87 62 32 33 33
33 33 33 33 33 33 33 33 33 33 33 33 34 34 33 34
34 34 34 33 33 31 30 27 26 27 30 32 31 32 32 31
30 31 30 30 30 30 29 29 28 28 28 26 26 26 25 22
16 15 0 0 3 6 2 0 0 15 35 34 39 38 37 38
39 43 15 0 0 0 0 0 0 9 13 0 0 0 0 0
5 34 58 67 61 49 53 31 8 0 0 0 0 0 0 0
0 0 2 12 65 91 98 109 111 95 81 31 4 0 0 0
0 0 0 0 0 0 0 21 62 69 92 88 55 33 33 33
34 34 33 34 33 34 34 34 33 33 33 33 34 34 34 33
34 34 34 33 33 31 31 29 28 30 32 32 31 31 32 31
31 31 31 30 29 29 29 28 28 28 27 26 25 25 25 23
16 16 4 0 0 0 0 0 0 14 37 37 41 40 40 44
48 47 28 15 17 12 6 4 6 14 17 4 4 3 2 0
5 27 55 69 61 49 53 59 28 5 0 0 0 0 0 0
0 0 9 47 89 89 95 108 110 98 80 73 17 3 0 0
0 0 0 0 0 0 11 54 67 66 84 81 46 33 34 33
34 34 33 33 33 33 34 34 33 33 33 34 34 34 34 35
34 34 33 32 32 32 31 30 30 31 32 31 31 31 31 31
32 30 30 29 29 28 28 27 27 27 26 25 24 23 23 22
17 18 15 2 0 0 0 0 0 14 36 35 38 38 38 44
47 47 37 31 32 29 27 26 27 26 25 20 18 16 15 15
18 29 48 66 60 45 53 63 59 28 13 4 0 0 0 0
8 18 54 88 86 84 97 109 113 103 80 74 71 19 9 2
0 0 0 0 5 22 53 76 65 60 85 71 36 33 33 33
33 33 33 33 33 33 33 33 33 33 34 34 33 34 34 34
34 34 33 32 32 32 31 30 31 31 31 31 30 30 31 30
30 30 29 29 28 28 27 27 27 26 25 25 24 23 23 21
19 19 12 0 0 0 0 0 0 15 34 32 34 35 35 36
34 34 33 32 33 34 31 31 33 32 31 30 28 27 25 24
25 31 43 62 67 54 52 64 69 71 56 37 26 23 24 39
63 98 98 77 80 82 105 116 119 112 88 73 79 95 66 39
27 23 24 32 51 72 89 80 66 70 83 56 32 33 33 33
33 33 33 33 33 32 33 33 33 33 33 33 33 34 34 33
34 33 33 32 32 32 31 31 32 32 31 31 31 31 31 31
30 30 29 29 28 27 27 26 26 25 24 24 23 23 22 21
20 19 9 1 0 0 0 0 0 14 36 31 32 32 33 32
31 30 33 34 35 37 36 36 35 33 33 32 35 37 35 33
32 35 41 51 69 67 51 68 85 97 102 106 111 114 117 120
121 118 82 81 85 93 111 118 121 117 96 81 84 93 119 120
117 113 113 114 114 107 100 85 66 77 79 39 32 32 32 32
32 33 33 32 32 33 33 32 32 32 32 33 33 32 32 32
33 32 32 31 32 31 31 31 32 32 32 31 31 31 31 30
30 29 28 27 27 26 25 25 25 24 23 22 22 21 20 19
18 18 24 23 21 17 16 14 11 22 39 33 33 33 33 33
34 35 37 35 35 38 41 41 36 32 32 33 40 43 41 38
38 37 34 33 59 67 50 68 88 100 110 116 121 122 122 121
122 108 74 88 95 95 106 117 121 113 91 91 93 87 107 120
121 120 120 120 119 112 101 86 64 77 59 31 31 31 31 32
32 32 33 32 33 32 32 32 32 32 32 32 32 32 32 32
33 33 32 32 32 32 32 31 32 31 31 30 30 30 29 29
29 28 28 27 27 26 25 24 24 22 22 21 20 20 20 19
19 20 35 41 42 39 40 43 42 43 42 35 34 34 34 34
37 39 42 37 37 40 43 41 36 33 29 31 39 43 41 38
39 38 36 31 41 67 50 64 86 100 109 116 120 119 122 120
121 94 75 92 97 88 89 104 113 99 79 83 93 86 102 117
119 120 120 120 119 113 102 85 63 77 40 32 32 31 32 32
33 33 33 33 33 33 33 32 33 33 33 33 34 32 33 32
32 33 32 32 31 32 33 32 32 32 32 31 31 30 31 30
29 28 27 27 26 25 24 24 23 22 21 21 20 19 19 18
20 20 37 47 46 46 47 47 47 47 44 31 29 28 28 29
33 39 43 39 37 36 35 36 37 34 30 27 34 33 30 31
35 36 35 34 32 51 51 60 80 97 108 115 119 121 121 121
118 89 70 74 49 41 64 85 96 83 58 41 62 86 99 113
118 119 121 120 118 109 99 84 63 65 32 32 32 33 33 33
33 34 33 34 34 34 33 32 33 32 33 33 32 32 32 33
33 32 32 32 32 33 32 32 32 31 31 31 31 30 30 29
29 28 27 26 26 24 24 23 23 21 21 20 19 20 19 18
20 19 27 33 34 36 37 38 40 42 39 13 8 6 4 5
8 16 37 40 35 21 14 18 20 20 23 30 30 13 5 4
7 14 18 29 33 33 47 60 78 93 107 115 118 119 120 120
117 99 81 69 78 81 72 61 64 83 99 84 84 98 103 111
117 118 118 118 115 106 96 81 60 44 32 33 33 33 33 33
33 34 33 34 34 33 32 33 32 32 32 32 32 33 32 31
31 30 29 28 26 27 29 32 32 32 31 31 31 30 30 29
28 27 27 25 25 24 23 23 22 21 20 20 19 19 19 18
21 18 23 26 26 26 26 26 26 27 29 8 0 0 0 0
0 2 30 40 26 4 0 1 2 7 16 32 30 9 0 0
0 3 12 25 22 20 44 61 74 91 103 113 117 117 118 120
116 107 102 91 93 101 108 105 105 111 113 100 97 100 104 106
115 118 117 117 113 106 94 81 57 32 33 33 33 32 34 33
33 34 33 33 33 32 30 29 29 29 29 31 32 32 32 27
16 15 12 11 9 11 22 32 33 32 31 30 30 30 29 29
27 27 27 26 24 24 23 22 22 20 20 19 19 19 18 18
20 18 27 32 32 31 31 30 30 29 30 10 2 0 0 0
0 9 32 38 14 0 0 0 0 1 16 34 31 9 0 0
0 1 10 23 8 2 36 61 73 86 102 112 116 114 113 114
111 105 102 92 96 106 113 115 114 115 115 111 101 98 96 101
109 115 117 116 109 101 94 81 55 32 33 33 33 33 34 33
33 27 24 22 19 17 14 12 10 11 14 26 33 33 33 26
8 5 5 6 6 6 20 33 33 32 32 31 30 30 29 28
27 26 26 25 23 23 22 21 21 20 19 18 19 18 18 17
19 18 28 33 34 34 34 34 34 35 33 10 2 0 0 0
0 9 30 35 7 0 0 0 0 0 11 34 30 10 0 0
0 0 9 23 8 1 31 58 71 86 101 108 114 111 107 103
101 97 96 96 101 105 113 114 111 111 113 108 102 96 94 95
97 104 116 116 107 96 96 80 52 32 32 32 33 32 33 33
28 12 7 8 8 8 5 3 3 2 4 22 32 32 32 26
8 6 6 6 5 6 19 32 33 32 32 30 31 30 28 28
27 27 26 25 24 23 21 21 20 19 19 18 18 17 17 16
21 21 30 34 35 34 33 34 35 37 35 10 0 0 0 0
2 1 25 32 4 0 0 0 0 0 11 33 29 10 0 0
0 0 6 24 10 1 23 58 70 85 101 108 114 108 95 89
88 91 94 97 101 109 113 114 113 116 114 107 102 99 94 94
90 92 110 117 104 93 97 78 47 32 33 32 33 33 32 33
28 8 3 6 7 7 5 2 2 2 3 19 31 32 32 24
7 6 7 5 6 5 17 32 32 31 32 30 30 30 29 28
27 26 25 24 23 21 21 19 19 19 19 18 18 17 17 17
26 27 29 30 31 31 24 14 19 30 37 12 0 0 0 0
5 1 22 31 3 0 0 0 0 0 11 34 29 9 0 0
0 0 1 22 11 1 17 54 66 81 99 110 113 104 86 83
83 86 91 96 104 111 116 121 121 120 110 101 98 92 88 87
90 93 104 118 102 96 98 76 42 32 33 32 32 33 33 32
27 8 3 6 7 7 5 2 3 2 2 18 31 32 32 25
7 5 5 6 5 5 14 31 32 31 30 30 30 29 27 26
25 25 25 23 22 21 21 20 20 18 18 18 18 17 17 17
25 26 27 28 28 29 18 0 2 20 40 21 3 0 0 0
4 0 18 30 2 0 0 0 0 0 10 34 28 11 0 0
0 0 0 22 14 1 11 50 63 77 95 107 113 103 88 83
65 65 69 72 76 83 86 94 96 91 83 79 70 61 56 58
85 99 109 119 100 97 93 70 37 32 32 33 33 32 32 33
28 10 3 5 8 7 5 2 3 2 3 19 32 32 32 27
10 7 8 9 9 8 13 28 30 30 29 29 29 29 28 27
25 25 24 23 22 21 20 20 18 18 18 17 17 17 16 16
25 26 27 28 29 29 20 0 0 17 40 19 1 0 0 0
3 1 19 30 1 0 0 0 0 0 6 33 29 13 0 0
0 0 0 21 17 0 4 46 63 71 89 106 115 108 97 85
75 67 66 69 80 94 106 102 98 104 105 97 86 79 77 78
85 100 113 119 99 99 90 63 33 32 33 32 32 33 33 32
28 10 3 5 9 8 5 2 4 2 2 18 31 32 32 28
15 13 12 12 12 12 17 25 27 28 31 30 30 29 28 27
25 24 24 24 22 20 19 19 18 17 18 17 17 16 16 16
15 17 18 21 25 27 22 1 0 13 37 11 0 0 0 0
0 0 17 31 2 0 0 0 0 0 4 33 29 11 0 0
0 0 0 18 22 0 1 33 57 69 84 102 112 117 108 108
108 89 90 96 101 108 117 115 116 119 115 109 106 101 94 89
113 109 117 116 95 91 82 50 32 32 32 32 32 32 33 32
27 11 3 4 5 5 4 2 2 2 3 16 31 32 32 28
13 9 9 5 1 0 3 4 3 6 28 30 30 29 29 27
26 25 24 23 21 20 20 19 18 17 18 17 17 16 16 15
0 0 0 10 24 27 23 1 0 10 33 9 0 0 0 0
0 0 16 34 4 0 0 0 0 0 3 32 30 14 1 1
0 1 2 18 26 1 0 19 55 69 79 95 108 116 117 114
110 97 92 97 105 112 113 108 104 106 106 111 109 100 95 99
115 115 116 105 92 89 75 36 32 32 31 32 32 32 32 32
29 12 3 3 3 2 3 3 3 3 3 16 30 32 32 28
12 6 7 4 0 1 5 20 11 1 27 30 29 29 28 27
25 24 24 22 21 20 19 19 19 17 17 17 17 16 16 16
0 0 0 10 27 27 24 3 0 7 31 14 2 1 1 3
12 9 18 36 17 10 9 12 11 10 14 36 33 27 26 25
24 27 30 36 32 8 6 10 48 64 75 88 99 105 111 110
108 105 99 98 99 102 100 96 89 94 95 100 104 101 101 104
109 106 104 99 92 84 60 30 32 32 32 33 33 34 33 33
29 12 4 3 0 0 3 2 4 3 2 15 31 33 33 29
13 6 7 4 0 0 1 5 2 1 26 30 29 28 28 27
26 24 23 22 22 20 21 20 18 18 18 17 17 16 17 16
0 0 0 9 28 27 24 5 0 3 31 31 29 25 25 31
38 35 35 38 41 40 37 38 39 40 41 43 34 30 36 38
40 43 48 50 42 29 27 27 39 57 70 79 94 98 97 98
106 105 103 103 103 105 103 96 96 99 104 106 103 103 104 104
102 94 93 92 87 73 47 30 32 32 32 32 33 34 34 33
28 12 4 3 3 3 7 4 5 4 2 15 31 32 33 30
13 6 6 4 0 0 0 0 0 0 26 31 28 27 28 27
25 25 23 22 21 21 21 20 19 19 18 17 17 16 16 16
0 0 0 7 28 26 25 6 0 1 30 38 38 33 36 42
45 41 37 33 43 46 43 43 43 45 46 46 37 27 33 37
40 44 48 48 43 31 30 30 32 48 63 76 86 87 86 88
98 102 103 103 104 107 110 112 112 116 113 109 102 101 105 103
94 83 83 79 76 59 62 54 32 31 32 32 33 34 34 33
28 13 4 4 1 1 4 3 4 4 2 14 30 33 33 30
13 6 6 2 0 0 0 0 0 0 21 16 9 8 22 27
25 25 24 22 22 21 20 19 18 17 17 17 17 16 16 16
0 0 0 5 28 26 25 7 0 0 28 37 33 30 34 40
45 41 35 31 33 36 36 36 34 36 36 35 33 25 27 31
33 34 34 32 32 30 30 31 31 36 55 65 71 79 78 80
87 96 105 105 100 101 101 107 114 116 106 102 97 102 107 100
84 77 74 71 65 42 28 56 63 33 31 32 33 33 34 31
27 13 4 3 0 0 3 4 5 4 2 14 31 32 33 29
13 5 5 0 15 20 1 0 0 0 9 18 24 15 7 26
25 23 23 22 20 20 20 18 18 17 17 17 17 16 16 15
0 0 0 4 27 26 24 9 0 0 27 33 25 27 28 34
43 42 37 32 26 24 24 24 24 24 24 26 28 28 29 31
32 31 29 26 27 29 31 31 31 31 42 57 62 71 72 72
79 94 98 107 107 102 101 100 108 107 101 99 100 106 103 96
80 70 69 63 58 55 29 21 48 66 30 32 33 34 34 31
28 15 5 4 2 1 3 4 4 4 2 13 31 32 33 31
14 6 6 5 28 42 10 0 0 7 26 29 29 26 7 23
25 24 23 22 21 20 19 18 18 17 17 16 16 16 16 16
0 0 0 2 25 25 24 11 1 6 28 29 12 14 16 20
27 29 28 32 27 25 26 26 30 31 29 29 32 32 34 37
37 36 31 28 28 29 30 30 31 31 53 51 56 61 63 64
70 80 95 102 102 102 102 99 103 99 101 94 92 101 99 86
65 56 58 56 58 64 52 17 24 82 39 31 33 33 34 31
28 14 4 3 3 3 3 3 4 5 2 12 30 32 33 30
14 4 5 3 11 18 9 0 0 13 30 29 28 27 10 19
25 24 22 21 20 19 19 18 18 17 17 17 16 16 16 16
0 0 0 1 24 26 23 19 19 25 35 28 1 0 0 1
3 7 13 30 30 33 35 34 42 44 33 26 28 29 31 34
38 40 34 29 28 28 29 30 30 35 65 43 51 54 54 56
61 65 82 93 98 99 99 97 95 101 95 93 92 98 88 71
58 55 54 58 68 69 58 19 17 68 69 30 33 34 33 31
29 16 4 4 4 4 4 3 4 4 2 11 29 32 33 31
17 7 8 1 2 1 0 0 0 11 29 29 28 27 11 19
25 24 23 22 21 20 18 18 17 17 16 16 16 16 16 15
0 0 0 0 21 25 22 26 36 39 41 29 1 0 0 0
0 0 10 33 30 36 39 33 41 45 22 4 3 5 5 8
22 40 35 29 29 29 29 30 29 50 54 33 62 52 50 52
53 62 70 84 96 96 95 92 89 94 93 97 94 92 78 61
54 54 55 71 73 67 63 21 17 52 97 47 36 33 33 31
29 17 4 3 4 3 3 3 4 4 2 11 30 31 34 31
26 18 11 3 0 0 0 0 0 8 29 29 28 27 11 21
24 22 22 21 20 19 18 17 18 17 17 17 17 16 16 16
0 0 0 0 20 25 22 27 38 40 43 34 2 0 0 0
0 0 5 34 29 33 34 12 13 25 16 0 0 0 0 0
13 38 35 30 30 29 30 30 30 65 41 26 64 66 54 50
53 55 62 71 88 90 93 90 88 91 90 91 90 84 64 50
52 55 71 81 76 52 45 22 17 56 117 93 82 74 63 45
32 18 6 4 4 4 3 4 4 5 2 10 28 31 32 31
32 14 14 22 3 0 0 0 0 7 29 30 28 25 10 24
25 24 22 21 21 19 18 17 17 16 16 16 16 15 15 15
0 0 0 0 18 25 21 24 32 32 32 24 1 0 0 0
0 0 4 35 29 33 33 4 0 16 17 0 0 0 0 0
9 36 35 30 30 30 30 30 33 76 29 22 62 72 73 55
50 52 56 61 74 85 86 85 81 81 85 83 77 67 49 47
53 71 83 85 80 39 16 21 18 69 123 104 100 98 101 108
96 66 42 27 17 8 5 4 4 5 3 10 29 31 33 33
32 18 24 38 10 0 0 0 0 6 26 26 25 13 13 22
15 13 20 21 20 19 17 17 17 16 16 15 16 15 15 15
0 0 0 0 15 24 21 20 15 14 15 7 0 0 0 0
0 0 5 35 29 34 34 5 0 14 19 0 0 0 0 0
6 34 36 29 29 30 30 36 60 78 21 17 61 72 74 72
52 49 49 52 62 76 77 73 72 73 75 68 59 48 46 52
72 86 89 88 81 49 6 17 24 85 123 108 102 103 106 117
120 118 116 115 115 105 85 59 35 17 8 9 24 25 23 21
18 7 5 9 2 0 0 0 0 0 4 3 2 0 8 14
9 23 17 20 19 18 18 17 17 16 15 16 15 15 15 15
0 0 0 0 14 24 20 19 13 12 15 6 0 0 0 0
0 0 6 35 29 34 34 5 0 13 21 0 0 0 0 0
4 33 37 31 33 39 58 77 81 78 19 14 60 72 76 76
66 54 48 48 49 55 63 67 66 64 61 57 53 48 60 75
85 93 93 91 82 52 9 14 30 101 123 109 102 106 107 118
122 121 121 121 121 121 119 115 111 106 98 82 57 28 7 0
0 0 0 0 0 0 0 0 0 0 0 0 0 0 5 8
66 89 38 19 19 18 17 17 16 16 16 15 16 16 15 15
0 0 0 0 12 24 20 19 15 14 16 6 0 0 0 0
0 0 4 34 29 34 34 6 1 12 21 1 0 0 0 3
19 57 75 79 83 88 90 81 80 81 20 8 59 74 78 77
73 63 57 57 50 44 47 50 51 49 47 43 48 66 82 86
92 96 94 91 85 59 12 13 37 109 123 112 105 110 110 117
122 122 121 121 121 118 118 116 118 117 114 112 111 107 95 65
28 7 6 7 7 9 10 11 12 11 10 3 0 0 12 13
62 64 40 6 6 10 18 17 17 17 16 16 16 16 17 16
0 0 0 0 11 24 21 20 17 17 18 6 0 0 0 0
2 0 2 33 30 35 35 10 3 11 22 6 3 20 57 89
98 97 97 96 92 92 93 76 87 91 23 3 56 75 81 80
77 69 64 66 68 63 46 32 24 22 29 52 76 82 87 93
94 96 97 95 86 63 15 13 74 115 122 113 107 114 113 118
122 121 121 121 122 121 121 121 120 120 120 119 120 120 118 114
105 78 33 14 15 14 15 14 14 13 11 4 0 0 0 0
0 0 0 2 0 7 21 20 20 21 19 19 18 18 18 18
0 0 0 0 10 24 21 20 18 18 19 7 0 1 0 0
7 7 1 33 32 36 36 19 10 11 30 57 96 118 122 117
111 106 102 99 97 95 96 82 94 113 38 0 51 75 81 83
79 73 70 68 68 71 77 79 75 78 85 89 87 90 95 96
97 99 100 98 88 68 17 19 99 118 122 114 105 115 118 121
121 121 121 121 121 121 121 121 121 120 120 120 120 120 120 120
119 116 103 56 18 16 16 17 15 14 12 5 0 0 0 0
0 0 0 2 0 7 17 15 14 12 11 10 9 7 6 5
0 0 0 0 9 24 20 20 19 19 20 11 1 3 0 0
10 16 8 31 34 37 35 22 37 69 106 120 123 123 124 123
118 113 111 105 104 94 94 90 98 122 68 0 45 77 82 87
84 77 73 72 71 74 90 108 113 108 100 99 102 101 102 104
109 108 106 102 92 67 18 38 111 120 122 115 108 113 115 120
121 121 122 121 122 121 120 121 121 120 120 121 121 121 121 121
121 120 119 112 70 22 17 17 16 14 13 5 0 0 0 0
0 0 0 1 18 22 21 21 22 22 23 24 25 26 26 28
0 0 0 0 8 24 20 19 19 19 20 21 17 21 20 21
27 32 31 40 38 39 55 85 117 123 123 123 123 123 123 125
123 122 120 115 113 99 92 87 100 122 104 10 30 74 86 92
94 91 84 80 80 83 87 99 105 105 106 107 105 104 108 115
116 114 109 103 93 60 23 63 115 119 121 115 113 114 114 119
121 121 121 120 121 120 120 121 120 120 121 120 120 120 121 120
120 120 120 120 115 81 27 18 18 16 14 6 0 0 0 0
0 0 0 4 35 35 34 34 34 34 33 33 33 33 33 34
0 0 0 0 7 24 20 19 20 20 20 31 38 39 40 41
44 48 49 53 63 93 117 122 124 124 124 124 124 124 124 124
124 124 124 119 115 100 89 88 102 122 121 58 19 72 90 101
107 108 103 91 84 85 87 89 96 102 109 109 106 112 116 117
119 115 110 103 94 49 37 98 114 120 120 115 114 114 112 119
122 121 121 121 121 120 121 121 120 120 120 120 121 120 120 120
120 120 120 120 119 111 76 25 18 17 16 7 0 0 0 0
0 0 0 6 36 35 34 34 33 33 33 33 33 33 33 34
0 0 0 0 6 23 20 19 20 21 20 29 42 42 42 44
46 52 72 101 117 121 124 125 125 124 125 125 125 125 124 124
124 124 123 122 117 103 95 82 99 120 123 108 27 59 93 104
114 118 118 105 94 94 93 95 102 107 110 113 115 116 117 120
118 115 108 104 87 43 62 109 118 121 120 114 113 111 113 119
121 121 120 121 121 120 121 121 121 121 121 120 120 121 120 120
120 120 120 120 120 118 112 73 22 17 17 7 0 0 0 0
0 0 0 8 35 35 34 34 34 33 33 33 33 33 33 33
0 0 0 0 5 22 19 18 19 21 20 21 29 29 28 29
50 96 118 123 124 124 125 124 125 125 124 125 124 125 124 124
124 124 124 122 116 103 98 84 93 118 124 119 55 44 90 104
113 119 120 114 102 99 104 107 111 115 118 117 115 115 118 119
118 113 109 103 72 39 85 114 120 120 117 112 106 111 114 120
121 121 121 121 121 121 120 120 121 120 121 120 121 121 121 120
121 120 120 120 120 119 119 109 63 20 17 7 0 0 2 5
0 0 0 10 35 34 34 33 33 33 33 33 33 33 33 33
0 0 0 0 5 22 19 18 19 20 20 16 15 14 17 54
111 125 124 124 125 124 125 125 125 125 125 124 125 124 124 124
124 124 124 123 113 105 103 91 88 116 124 121 87 39 79 102
112 118 120 116 110 108 107 109 112 112 115 116 115 114 119 118
116 112 106 97 56 50 100 116 116 117 118 114 113 113 117 121
121 121 121 121 121 121 120 120 121 120 121 120 120 121 120 120
120 120 119 120 120 120 120 119 105 71 23 7 0 0 24 31
4 0 0 11 35 33 33 33 33 33 33 33 33 33 33 33
0 0 0 0 5 21 19 18 19 20 21 18 17 21 70 116
123 124 124 124 124 125 125 124 125 125 124 124 124 124 125 124
125 124 123 123 115 106 104 97 88 111 124 122 113 53 64 99
110 115 119 117 110 108 111 113 114 116 117 116 113 116 118 119
116 110 104 73 50 82 106 119 77 64 119 116 115 114 120 121
122 122 122 122 122 121 121 121 121 120 120 120 120 120 120 120
120 120 120 119 120 119 120 120 119 108 75 10 0 0 11 13
1 0 0 14 35 33 33 33 33 33 33 33 33 32 32 33
0 0 0 0 5 22 19 17 19 21 22 21 27 82 121 121
119 124 124 125 125 124 124 124 124 124 124 124 124 124 124 124
124 123 124 123 114 107 107 103 92 106 124 123 119 84 55 93
107 112 119 120 116 111 111 114 115 117 117 115 114 116 119 119
115 110 98 55 57 103 113 119 84 58 120 115 112 117 120 121
121 121 121 120 121 120 121 120 120 120 120 120 120 120 120 120
120 120 120 120 120 120 119 119 119 118 102 44 0 0 0 0
0 0 0 16 34 33 33 33 32 33 32 33 33 32 32 32
0 0 0 0 7 23 20 17 19 21 21 37 92 122 122 118
119 125 124 124 124 124 124 124 124 123 124 124 124 124 124 123
124 124 124 123 118 109 107 105 96 101 122 123 121 105 56 79
110 114 117 120 119 115 113 114 115 116 114 114 114 118 120 120
115 112 83 53 82 120 117 120 93 72 119 111 115 120 120 121
121 121 121 120 121 121 121 120 120 120 120 120 120 121 121 120
120 120 120 120 120 119 119 119 120 119 108 76 2 0 0 0
0 0 0 18 33 33 33 33 32 33 32 32 32 32 32 31
5 6 7 9 14 19 18 18 19 21 38 101 124 122 122 120
120 124 124 124 124 124 124 124 124 124 124 124 124 124 124 124
124 124 124 124 119 111 107 106 103 93 116 74 108 117 65 66
97 116 121 121 120 117 115 115 117 116 115 116 118 119 120 120
116 107 68 66 111 120 119 121 97 95 113 113 119 120 120 120
120 120 121 120 120 120 121 120 120 120 120 120 120 120 120 120
120 120 119 120 119 119 119 119 119 118 114 107 31 0 0 0
0 0 0 21 33 33 32 32 32 32 32 32 31 31 31 32
10 11 13 13 14 15 17 18 19 24 84 124 123 120 125 121
122 125 124 124 124 124 124 123 123 124 123 124 124 124 124 123
124 124 124 123 121 113 108 107 107 94 115 56 86 124 100 61
77 109 121 123 122 121 118 116 119 118 118 118 121 121 121 121
116 83 67 103 117 118 121 120 94 111 112 117 120 120 120 120
121 120 121 121 121 120 120 120 120 120 121 120 120 120 120 120
120 120 119 120 119 119 119 119 119 118 117 112 79 2 0 0
0 0 0 18 34 33 32 32 32 31 31 31 32 31 31 31
11 12 13 14 14 16 17 19 19 39 104 121 116 123 124 122
122 124 124 124 124 124 124 124 124 124 124 124 124 124 123 124
124 123 123 123 122 115 111 108 108 102 112 88 91 124 118 72
65 91 120 122 122 122 121 121 122 122 122 121 122 121 121 121
100 67 104 120 118 120 121 118 109 113 116 119 120 120 121 120
120 120 120 120 120 120 120 120 120 120 120 121 120 120 120 120
120 120 119 119 118 118 118 119 119 119 119 113 107 33 0 0
0 0 0 9 31 32 31 32 32 32 32 32 31 31 31 31
11 11 12 13 13 15 15 16 21 75 119 111 122 125 124 124
124 124 124 124 124 124 124 124 124 124 124 124 124 124 124 124
124 124 124 124 122 117 115 112 109 105 88 108 85 124 122 105
69 80 114 123 123 123 122 122 122 121 121 121 122 121 121 115
78 100 120 121 119 121 120 113 115 116 119 120 120 121 120 121
121 121 120 120 120 120 120 120 120 120 120 121 120 120 120 119
120 120 120 119 119 120 119 119 119 120 119 114 115 80 4 0
0 0 0 15 20 32 32 31 32 32 32 31 31 31 31 31
3 3 3 6 9 12 13 14 41 101 113 114 124 125 125 124
124 124 124 124 124 124 125 124 124 124 124 124 124 124 124 124
124 124 124 123 121 116 117 114 111 109 95 84 95 120 123 121
102 78 104 123 123 122 123 122 122 122 122 122 122 122 120 92
86 119 122 122 122 119 110 116 118 119 120 120 121 121 121 121
121 121 121 121 121 120 121 121 121 120 120 120 121 121 120 120
120 120 120 119 119 120 120 119 120 120 120 117 118 104 45 6
0 0 1 26 15 28 33 32 32 32 32 32 32 32 32 31
0 0 0 2 7 13 16 18 80 105 104 120 125 125 125 126
125 125 125 124 125 125 125 125 125 125 125 125 124 125 125 125
124 124 125 124 124 118 118 118 114 110 108 85 99 111 124 123
119 92 92 119 123 124 123 123 123 122 122 123 122 122 107 87
115 123 112 108 89 53 109 120 118 119 121 122 122 122 121 121
122 122 122 122 121 121 121 120 121 121 121 121 121 121 121 121
121 121 120 119 120 120 121 120 121 121 120 120 118 112 91 51
0 0 2 31 25 17 32 33 32 32 33 32 32 32 32 32
0 0 0 4 7 13 17 29 114 104 107 124 125 126 126 126
126 125 126 124 125 125 126 126 126 126 125 125 125 125 125 125
124 125 124 124 124 124 123 121 117 114 112 103 93 105 119 124
123 119 99 111 124 123 123 123 123 123 123 123 123 117 100 109
107 82 68 110 64 81 121 120 121 121 122 122 122 121 122 121
122 122 122 122 121 121 121 120 121 121 122 122 121 121 122 121
121 121 120 118 121 121 121 120 121 121 121 120 117 119 99 54
0 0 4 32 32 17 26 33 33 32 32 32 32 32 32 32
0 0 2 5 7 12 17 54 121 102 110 125 125 124 125 126
126 126 126 124 124 125 125 125 125 125 124 125 126 125 125 125
125 125 124 125 124 124 124 124 120 116 112 109 100 103 108 120
124 109 107 113 120 124 123 123 123 123 123 122 122 118 122 119
110 115 116 120 80 110 121 121 122 122 122 121 122 121 121 122
121 122 122 122 122 121 121 120 120 120 121 121 121 121 121 121
121 121 120 117 121 121 121 120 120 120 121 120 117 119 109 84
9 0 5 32 32 23 8 19 33 32 31 32 32 31 31 32
5 6 6 5 9 13 21 84 122 103 114 126 122 125 126 126
126 125 126 124 124 125 126 125 125 125 125 125 124 125 125 124
125 124 124 124 124 125 124 124 123 119 114 113 110 102 107 107
81 54 78 115 119 122 124 123 123 123 124 124 123 122 122 121
121 122 122 123 117 121 120 121 122 122 122 122 122 122 122 122
122 122 122 122 121 120 121 121 121 121 121 122 122 122 121 121
121 120 113 118 121 121 120 120 120 121 121 121 118 119 118 95
45 0 5 25 22 3 5 3 31 32 32 32 32 31 31 31
10 10 9 9 12 15 42 101 120 103 115 123 125 125 126 126
126 125 125 124 122 125 125 125 124 124 124 124 125 124 125 124
124 124 124 124 124 124 124 124 124 122 118 116 114 109 107 112
101 58 95 109 123 124 123 123 123 123 123 123 122 122 120 122
122 122 122 122 119 122 121 122 122 122 122 121 121 122 121 121
121 121 122 121 121 121 121 121 120 120 120 121 121 120 121 121
121 118 97 120 121 121 120 120 119 120 120 120 118 117 119 101
79 6 0 5 12 17 26 3 29 31 30 30 30 31 30 30
10 10 11 11 11 16 71 107 118 102 115 124 126 125 126 126
125 125 125 125 121 124 125 125 124 124 124 124 124 124 125 124
125 124 124 124 123 124 124 124 124 123 124 121 121 123 117 113
118 77 91 99 118 123 123 123 124 123 123 123 122 121 121 122
123 122 122 122 119 121 121 121 122 122 122 122 122 122 122 122
121 121 122 121 121 121 121 121 120 120 120 121 121 121 121 121
120 109 91 121 120 120 120 120 119 120 120 120 118 117 120 111
91 35 0 1 4 11 19 2 22 30 30 30 30 30 30 30
2 3 4 5 6 32 86 111 115 103 114 125 125 124 125 125
125 125 123 124 122 123 125 125 124 124 124 124 124 124 124 124
124 124 124 124 124 123 123 123 123 123 123 123 123 123 122 117
119 104 104 86 104 121 122 123 123 122 122 122 122 121 121 122
122 122 122 122 120 121 121 122 122 121 122 122 121 121 121 120
120 121 121 121 121 121 121 120 120 120 120 121 121 120 121 120
120 102 102 121 121 120 120 119 119 120 120 120 118 116 119 117
95 71 1 0 0 0 0 0 4 21 30 30 29 29 29 29
