P2
128 120
128
24 23 23 23 23 22 21 21 21 20 20 20 19 19 19 18
18 18 17 17 16 16 16 16 15 15 14 14 14 14 13 13
13 13 12 12 12 11 11 10 10 9 9 7 6 6 7 9
10 11 12 8 5 12 15 13 12 11 10 10 9 7 6 5
4 3 3 6 9 7 8 5 7 8 9 9 10 10 10 10
11 11 11 12 12 13 13 13 13 14 14 14 15 15 15 16
15 15 16 16 17 18 18 19 19 18 20 19 20 20 21 21
21 21 21 22 21 21 22 22 22 22 22 22 22 22 22 22
23 23 23 22 22 22 22 21 21 21 20 19 20 19 18 18
18 17 17 17 17 17 16 16 16 15 15 15 14 14 13 13
13 12 12 12 11 11 11 11 11 10 10 8 8 7 8 10
12 13 13 10 3 11 15 14 12 11 11 10 10 10 8 6
6 5 3 6 8 8 6 7 9 10 10 10 11 11 12 12
12 12 13 13 13 13 14 14 15 15 15 15 15 15 15 15
16 17 18 17 17 18 18 19 19 20 20 20 20 21 21 22
21 21 21 22 21 22 22 21 21 21 22 22 22 23 23 23
23 23 23 22 22 22 21 21 20 20 20 20 19 19 19 19
18 18 17 17 17 16 16 15 15 15 15 14 13 14 14 13
12 13 12 12 12 11 11 11 11 10 10 8 8 8 8 12
13 14 14 10 4 10 16 15 13 12 11 11 10 9 7 7
9 6 4 4 8 7 7 9 10 10 10 11 12 12 12 13
13 13 13 13 14 14 14 14 15 15 15 15 16 16 16 16
17 18 19 18 18 19 19 19 19 20 20 20 20 20 21 21
21 21 22 23 21 22 22 22 22 22 21 22 23 22 22 22
23 23 23 22 22 22 21 21 21 20 20 20 20 20 19 19
19 17 18 17 17 17 16 16 16 15 15 15 15 14 14 13
13 13 13 12 12 12 12 12 11 11 11 10 9 9 10 13
14 15 15 10 4 10 16 14 13 13 13 12 11 10 9 9
10 8 5 3 9 7 9 10 11 11 12 12 13 13 13 13
14 14 14 14 14 14 15 14 15 15 15 16 17 17 17 18
17 18 20 18 19 19 19 19 20 20 20 20 21 21 21 21
22 21 21 22 22 21 22 22 22 23 22 23 22 22 22 21
23 23 22 23 22 22 21 20 20 20 20 19 19 19 18 18
18 18 18 17 17 17 16 16 15 15 15 14 14 14 14 14
14 13 12 13 13 13 12 12 11 11 10 10 9 9 10 13
15 15 15 10 4 9 17 15 14 14 13 12 11 10 9 9
9 9 7 3 10 8 10 11 12 12 12 12 13 13 13 13
14 14 14 14 14 14 15 15 15 16 16 16 17 17 17 17
18 18 19 18 19 19 20 19 20 20 20 20 20 21 21 21
21 21 21 22 21 21 22 22 22 22 22 21 22 22 22 22
23 23 23 22 22 21 21 21 20 21 20 20 20 19 20 19
19 18 18 17 17 17 16 16 16 16 15 15 15 14 14 14
14 13 13 13 13 12 12 12 12 11 12 12 11 11 11 15
16 16 16 11 6 8 16 15 14 13 13 13 12 11 10 10
10 10 8 4 10 8 10 11 13 12 13 14 14 14 14 15
14 14 16 15 15 16 15 15 15 16 17 17 17 18 18 19
19 18 20 19 19 20 20 20 20 20 21 21 21 21 21 21
22 22 21 23 22 22 22 21 21 21 21 22 22 22 23 22
23 23 22 23 22 22 21 21 21 20 21 20 20 19 19 19
19 19 18 18 18 18 17 16 17 16 15 15 15 15 14 14
14 14 14 13 13 13 13 12 12 12 12 12 12 12 12 14
15 16 16 12 7 8 17 16 14 14 14 14 13 12 11 10
11 11 9 5 10 10 12 13 14 14 15 14 14 14 14 14
15 15 16 15 16 16 16 17 17 17 17 18 18 18 18 18
19 19 20 19 19 19 20 20 21 21 21 21 21 21 21 21
21 21 21 21 20 21 22 22 22 22 22 22 22 22 22 22
24 22 22 22 22 21 21 20 21 21 20 21 20 19 19 20
19 18 18 18 17 17 17 16 16 16 16 16 16 15 15 15
14 14 14 14 13 13 13 12 12 12 12 11 12 12 13 16
16 17 16 12 7 7 17 16 15 14 14 14 14 13 12 12
12 11 11 6 10 10 13 13 13 13 13 14 15 15 16 15
16 16 17 16 16 16 17 16 17 17 18 17 18 18 18 19
19 20 20 19 20 20 20 20 20 20 20 20 21 21 21 20
21 21 21 22 22 22 22 22 22 22 21 22 22 22 22 23
23 22 22 22 22 22 22 21 21 21 20 20 19 19 20 19
18 18 18 18 18 17 18 17 16 16 16 15 15 15 15 15
15 14 14 14 14 13 13 13 13 12 12 12 12 13 13 16
17 17 17 12 8 8 17 17 15 14 14 14 14 13 13 12
11 11 10 7 12 11 14 15 14 14 15 15 15 15 16 15
16 16 17 16 16 17 17 17 18 17 17 18 18 18 19 19
19 20 21 20 20 20 20 21 22 21 20 19 21 20 22 21
21 22 22 22 21 21 22 22 21 22 22 22 22 22 22 22
23 23 22 22 22 21 21 21 21 21 21 20 20 20 20 19
19 19 18 18 18 17 17 17 17 16 16 16 16 16 16 15
15 14 14 14 14 13 13 13 13 12 13 12 13 13 15 18
17 18 18 13 9 7 16 17 15 14 15 14 14 14 13 12
13 12 12 10 13 12 14 15 15 15 15 16 16 16 16 17
16 17 17 17 17 17 17 18 17 17 18 18 18 19 19 19
20 20 21 21 20 20 20 20 19 20 22 22 21 21 22 22
22 22 22 22 22 22 23 23 22 22 22 22 23 23 22 22
23 23 22 23 22 21 22 21 21 21 20 20 20 20 20 19
19 19 18 18 18 18 18 17 17 17 16 16 17 16 15 15
15 15 15 15 14 14 14 14 14 14 13 13 14 14 14 17
18 18 18 14 10 7 16 17 15 14 15 15 15 14 14 13
13 13 12 11 13 13 15 16 16 16 16 16 16 16 16 16
16 17 17 17 18 18 18 18 19 19 19 19 19 19 19 19
20 20 19 19 19 19 20 20 21 21 22 23 22 21 22 22
22 22 22 22 22 22 23 23 22 22 22 22 22 23 23 23
23 23 22 22 22 22 21 21 21 21 21 21 20 20 20 20
20 20 18 18 19 18 18 17 17 17 17 17 16 16 16 16
16 16 15 15 15 14 14 13 13 13 13 14 13 14 15 18
19 19 18 14 11 5 12 17 15 15 16 15 15 15 15 14
14 13 13 11 14 14 16 16 16 16 16 16 16 17 16 16
17 18 18 18 18 18 17 19 19 19 19 19 19 20 20 19
19 19 19 20 21 21 21 21 22 22 21 23 22 22 22 22
22 22 23 23 22 22 22 22 23 22 22 22 22 23 22 23
23 23 22 23 22 22 22 21 21 21 21 20 20 19 20 19
20 19 19 19 18 18 18 18 18 18 18 17 17 16 16 16
16 15 15 15 15 15 14 15 14 14 14 13 14 15 16 18
18 18 18 14 9 3 12 18 17 16 16 16 15 15 16 14
14 14 14 11 15 14 17 17 17 17 17 17 17 18 17 17
17 18 18 18 18 18 19 19 19 19 20 19 19 19 19 20
20 21 21 21 21 21 22 21 22 22 23 24 23 23 22 22
23 23 22 22 22 22 23 22 22 23 23 23 23 23 23 23
23 23 23 22 22 22 22 21 21 21 21 21 21 20 21 20
20 19 19 19 18 19 18 18 17 18 17 17 17 17 17 16
16 16 16 15 15 15 14 14 14 14 14 14 15 15 16 19
19 20 19 14 10 9 14 18 17 16 17 16 16 16 16 15
15 14 15 12 15 15 17 17 17 17 17 17 17 18 18 18
18 19 19 18 19 20 20 19 19 19 19 19 20 20 20 20
21 21 21 22 22 22 22 22 22 22 22 23 22 22 23 23
22 22 23 23 23 23 23 23 23 23 23 23 23 23 22 23
23 23 23 22 23 22 21 22 21 21 21 21 21 20 20 20
20 20 19 19 18 19 18 18 18 18 18 18 17 17 16 16
16 16 16 15 16 15 16 15 15 14 15 15 15 15 16 19
20 19 19 15 11 11 14 20 18 18 18 17 17 16 17 15
15 15 14 12 16 15 18 17 17 18 18 18 19 19 18 18
18 19 19 19 19 19 20 19 20 20 20 20 21 20 21 21
21 21 21 21 21 22 23 22 22 22 22 23 23 23 23 23
23 23 23 22 23 23 22 22 23 23 23 24 23 23 23 24
23 23 23 22 22 22 22 21 21 21 21 21 21 21 21 21
20 20 20 20 20 19 19 19 18 18 18 18 17 17 17 17
17 17 16 16 16 16 15 15 15 15 14 15 15 16 17 19
20 20 20 16 12 13 13 19 18 18 17 18 17 17 17 16
16 16 16 13 16 16 18 17 17 18 18 18 19 18 19 19
18 19 19 18 19 19 20 20 20 20 20 21 21 21 21 21
21 22 22 22 22 22 23 23 23 23 22 24 23 22 23 22
23 23 23 23 23 23 22 23 23 24 24 24 23 23 23 24
22 22 23 23 22 22 22 22 22 22 22 22 21 21 21 21
21 20 20 20 19 19 19 19 19 18 18 18 18 18 17 17
17 17 17 16 16 16 16 16 15 15 15 15 16 16 17 20
20 20 20 16 13 15 14 19 19 19 19 18 18 17 18 16
16 16 15 13 16 17 18 18 19 19 18 19 19 18 19 18
19 19 19 19 19 20 20 21 20 20 21 21 21 22 22 22
21 22 22 22 22 22 22 23 23 23 23 24 23 23 23 23
23 24 23 24 23 23 23 23 24 23 23 22 23 23 23 23
23 23 22 22 23 22 22 22 22 22 21 21 21 21 21 21
21 20 21 20 19 19 19 19 19 18 18 18 18 18 18 18
17 17 17 17 16 16 16 16 16 15 15 15 15 16 17 20
21 20 21 19 20 22 20 19 19 21 21 17 17 17 18 17
17 17 16 13 17 17 19 19 19 18 19 19 19 19 19 19
19 20 20 20 20 20 20 21 21 21 21 21 22 21 22 21
22 23 23 22 23 23 23 23 23 23 23 24 24 23 23 23
24 24 24 24 24 24 23 23 23 23 23 23 23 23 22 23
23 22 22 22 22 22 22 22 22 22 22 21 22 22 21 21
20 20 20 20 20 20 20 20 19 19 18 19 19 19 18 18
17 17 17 16 16 16 16 16 16 16 16 15 16 17 18 21
21 21 22 19 18 18 16 14 14 19 20 17 12 9 14 17
17 17 16 14 17 16 18 18 18 18 19 20 20 20 20 20
20 20 21 20 20 20 21 21 21 21 22 22 22 22 23 22
23 22 22 22 22 23 23 22 23 23 23 23 24 24 23 24
24 24 23 23 22 23 23 23 23 23 23 23 23 23 23 23
23 23 23 22 22 21 22 22 22 21 22 21 21 21 21 21
21 21 21 20 20 20 19 19 19 19 19 19 19 18 18 18
18 18 17 17 17 17 16 15 16 15 16 16 15 16 17 21
18 17 17 11 11 13 17 22 21 11 8 6 2 1 1 7
15 17 17 15 17 15 19 19 19 20 19 20 19 19 19 20
19 20 20 20 20 21 21 21 22 21 22 22 22 22 22 22
22 22 22 23 24 23 23 23 24 24 23 23 24 23 22 22
22 22 23 23 23 23 23 23 23 23 23 23 23 23 23 23
22 22 22 22 22 22 22 22 23 22 22 21 22 22 21 21
21 21 20 20 20 20 19 20 19 19 19 19 19 19 19 18
18 18 17 17 16 16 16 16 16 17 17 17 16 16 13 14
8 5 4 5 6 13 20 19 21 24 22 18 18 10 5 6
3 9 17 15 17 17 19 19 19 20 20 20 20 20 20 20
20 21 21 21 21 21 21 21 21 22 22 22 22 23 23 23
23 22 23 23 23 23 23 24 23 23 22 22 22 23 24 24
24 24 23 23 24 23 23 22 23 23 23 22 23 23 22 23
23 23 23 23 23 22 22 22 22 21 21 21 22 21 21 21
21 20 21 20 20 20 21 19 19 19 19 19 19 18 18 18
18 17 18 17 17 17 17 17 16 16 16 16 15 9 8 7
11 13 9 10 11 12 14 11 11 14 14 15 19 22 14 8
6 0 6 18 20 19 20 20 20 20 20 20 20 19 20 21
20 20 21 21 22 22 22 22 22 23 22 23 22 22 22 23
23 23 23 23 23 23 22 22 23 23 24 24 24 23 23 23
23 23 23 23 24 23 23 23 23 23 23 23 23 23 23 23
22 22 22 22 22 23 22 22 22 22 22 22 22 21 22 21
21 20 21 20 20 20 20 20 20 19 20 20 19 19 18 18
18 18 17 17 17 16 17 17 17 16 16 16 8 6 13 13
11 12 16 11 15 17 14 13 9 7 2 2 4 10 14 8
4 5 0 4 19 19 20 20 20 20 20 21 20 21 21 21
21 20 21 21 21 22 22 22 22 23 23 23 23 23 24 23
23 23 22 23 23 23 23 24 24 24 24 24 24 24 24 24
25 24 24 24 24 23 23 23 22 22 23 23 23 23 23 23
22 22 23 22 23 22 22 22 22 22 22 21 21 21 21 21
21 21 21 21 21 21 20 20 20 20 19 19 19 19 19 18
18 19 18 18 18 17 18 17 17 16 16 5 2 6 5 3
6 12 15 15 17 21 25 19 14 13 10 4 3 2 4 6
3 2 2 0 7 19 19 20 20 20 20 21 21 21 21 21
21 21 21 22 22 23 23 23 23 23 23 23 23 22 22 22
23 23 23 24 24 25 25 25 25 24 25 24 24 24 25 24
23 23 23 24 24 24 24 23 24 24 24 23 23 24 23 23
23 23 22 23 22 22 23 23 23 22 22 22 22 22 22 22
21 21 21 21 21 21 21 21 21 21 20 20 20 20 19 19
20 19 19 19 19 19 18 18 18 16 5 0 1 2 1 4
5 9 16 21 18 12 19 25 21 15 14 9 7 6 9 9
18 13 3 1 1 6 8 17 22 21 22 22 22 22 23 22
22 23 22 23 23 23 23 22 23 23 23 23 24 23 23 24
24 24 25 26 25 25 25 25 25 25 25 25 24 24 25 25
25 24 25 24 25 24 23 23 24 23 24 24 24 24 24 24
24 24 24 23 24 23 23 23 22 22 23 23 23 22 22 22
22 23 22 23 22 22 22 22 21 21 21 20 21 20 20 20
20 20 20 20 19 19 20 19 18 7 1 1 1 1 1 1
4 9 13 14 19 15 20 23 19 25 25 21 16 14 17 26
38 35 30 8 1 0 8 11 20 23 22 22 22 23 23 23
24 23 23 24 23 23 24 24 24 24 23 23 24 24 24 25
24 25 25 26 25 26 26 26 26 26 26 26 25 25 25 25
25 25 25 25 25 25 24 24 25 25 24 25 24 24 24 24
24 24 24 24 24 24 24 24 24 24 24 23 24 24 24 23
23 23 24 23 23 22 22 22 22 22 22 21 22 21 22 21
21 21 21 20 20 20 20 20 12 0 0 3 3 1 1 4
8 10 7 13 19 26 24 24 22 18 21 24 28 39 40 47
50 54 49 37 16 1 0 11 21 23 23 24 23 24 24 25
25 24 24 24 24 24 24 25 25 24 25 26 25 26 26 26
26 27 27 27 27 27 27 27 27 27 27 26 26 26 26 26
27 26 27 26 26 26 26 26 26 25 25 25 25 25 26 25
25 25 25 24 24 24 24 24 24 24 24 24 24 24 24 24
24 24 24 24 24 23 23 23 22 23 23 22 22 22 22 21
22 21 21 21 21 21 20 19 3 0 2 2 2 0 0 2
9 13 15 18 21 30 38 40 37 40 46 60 71 70 67 78
77 67 61 55 41 18 1 0 17 19 22 23 23 24 23 23
24 23 24 25 25 25 25 25 25 25 26 26 26 26 26 26
26 26 27 28 27 26 27 27 27 27 27 27 27 27 26 26
26 26 26 26 26 27 26 26 26 26 26 26 26 25 24 24
25 24 24 24 24 24 24 24 24 25 25 24 24 24 24 24
24 24 23 23 24 23 23 23 22 23 23 23 23 23 22 22
22 22 21 22 21 20 20 11 0 0 0 0 0 0 1 5
9 10 17 23 28 32 38 46 53 67 85 91 94 96 97 97
94 81 68 62 57 42 19 1 3 12 15 23 24 24 24 24
24 25 24 25 25 25 25 25 25 25 25 26 26 26 26 27
27 27 27 27 27 27 27 27 27 26 27 27 26 26 26 26
26 26 27 26 26 27 26 26 26 25 24 24 24 24 25 25
25 24 24 24 24 24 24 24 25 24 24 24 24 24 23 23
24 24 24 23 23 23 23 23 23 23 23 22 22 22 22 22
22 22 21 21 21 21 19 4 0 0 0 0 0 0 0 0
4 9 19 30 43 57 73 82 94 100 103 106 106 106 104 103
101 88 74 65 60 56 39 11 3 10 14 20 24 24 24 24
23 24 24 26 24 25 25 25 25 25 25 26 26 26 26 26
26 26 27 27 26 26 26 27 27 26 26 26 26 26 26 26
26 26 26 26 25 25 24 24 24 24 24 24 25 25 26 24
25 24 24 24 24 23 24 24 24 24 24 24 24 24 24 24
24 23 23 24 23 23 23 22 23 23 23 22 23 23 22 22
22 21 21 21 20 20 16 1 0 0 0 0 0 0 1 5
21 43 71 91 101 107 108 107 107 108 109 109 109 109 108 105
102 97 81 69 65 59 52 31 5 8 16 21 23 24 24 23
24 24 24 25 25 25 25 25 25 25 25 26 26 26 26 26
27 26 27 27 26 26 26 26 26 26 26 26 26 26 26 26
26 25 25 25 24 24 24 25 24 25 24 23 24 24 25 24
19 22 24 24 24 24 25 24 24 25 24 23 23 24 24 23
24 24 24 23 23 23 23 23 23 23 23 22 22 22 21 22
22 21 21 21 20 20 7 0 0 0 0 0 0 0 3 16
57 94 107 110 111 110 110 111 111 110 110 110 110 109 108 106
104 98 88 74 68 62 58 48 23 5 16 19 22 24 24 24
24 24 24 25 24 25 25 25 25 25 26 25 25 25 26 26
26 26 26 27 26 26 26 26 26 26 26 26 26 25 24 25
24 25 25 25 25 25 24 24 24 25 24 24 24 25 25 24
6 13 24 24 24 24 24 24 24 24 24 24 24 24 24 24
24 24 24 24 23 23 23 24 24 23 23 23 23 22 22 23
22 22 22 21 21 19 2 0 0 0 0 0 0 3 33 79
105 111 111 111 111 110 110 111 110 110 110 111 110 110 110 108
106 100 93 82 72 67 62 55 40 12 18 17 21 23 24 24
24 25 25 25 26 26 26 26 25 26 25 26 26 26 26 27
27 27 27 27 26 26 26 26 26 26 26 25 25 25 25 25
26 26 26 25 24 25 24 24 24 24 25 24 24 24 24 24
3 11 24 24 25 25 24 24 24 24 24 24 24 24 24 24
24 24 24 24 24 24 23 23 24 23 23 23 23 23 23 22
22 22 21 21 21 14 0 0 0 0 0 0 16 58 90 101
108 110 111 111 110 110 110 111 111 110 111 110 110 110 109 109
107 102 97 86 77 69 64 60 48 27 15 24 15 20 24 25
24 25 25 26 25 25 25 26 25 25 26 26 26 26 27 27
26 26 26 26 26 26 26 25 26 26 26 26 27 26 25 25
25 25 25 25 24 24 24 24 25 24 24 24 24 24 25 24
5 10 24 25 25 24 24 24 23 24 24 25 25 25 25 24
25 25 25 25 24 24 24 24 24 23 23 23 26 27 25 24
23 22 22 22 21 8 0 0 0 1 14 42 65 84 97 104
108 111 111 111 110 110 110 110 110 110 110 110 110 110 111 110
109 107 101 94 81 73 67 60 53 39 12 25 13 16 23 24
25 25 26 26 26 26 26 26 25 25 26 26 26 26 26 26
27 26 26 26 26 26 26 26 26 25 25 25 26 26 25 25
25 25 25 25 25 25 25 25 25 24 24 24 24 24 23 24
6 11 24 24 24 24 24 24 25 31 31 29 29 26 26 25
24 24 24 24 24 24 24 24 24 24 23 24 32 34 32 29
28 26 23 21 18 2 0 2 10 35 58 67 77 90 99 104
108 111 111 111 110 111 111 111 111 111 111 111 111 111 110 110
109 108 103 95 85 79 72 64 54 46 16 14 11 10 22 24
25 25 25 26 26 25 25 26 26 26 25 26 27 27 26 26
26 26 26 26 26 26 26 26 26 26 25 25 26 27 25 26
25 25 25 25 24 25 25 24 24 24 25 25 24 24 24 24
6 12 25 25 25 24 24 24 26 34 33 33 32 30 29 29
28 26 26 25 25 25 23 23 24 24 23 24 32 34 32 30
30 30 28 24 14 1 2 8 31 49 63 70 80 92 99 105
109 111 111 111 111 111 111 111 111 110 110 111 110 110 110 110
110 108 106 99 92 83 77 68 55 48 23 11 12 10 20 25
26 26 25 25 26 25 25 25 25 26 26 26 26 25 26 27
27 26 26 27 27 26 26 26 26 26 25 25 25 26 26 25
25 25 25 25 25 25 25 25 25 24 24 25 24 24 24 24
6 13 26 26 26 26 26 25 26 35 34 33 31 31 31 32
34 29 29 28 27 25 24 23 24 24 24 24 30 30 30 29
30 30 30 24 11 2 7 17 38 52 64 76 84 93 99 104
106 110 111 111 111 111 111 111 111 111 111 111 110 110 111 110
109 108 104 99 95 89 82 71 58 46 29 12 15 8 18 24
24 25 25 25 25 25 26 26 26 26 26 27 27 27 26 26
26 27 27 26 26 26 26 26 26 26 25 25 26 27 26 26
25 25 26 24 25 25 25 25 24 24 24 24 24 24 24 24
7 15 29 28 27 27 27 27 27 29 25 29 31 32 34 35
36 30 26 28 31 30 28 27 27 26 24 24 24 15 17 19
23 27 29 26 8 7 10 17 41 51 65 75 86 93 98 103
107 109 111 112 111 112 111 111 112 111 111 110 110 110 110 110
109 107 106 101 98 94 87 74 58 45 27 11 16 3 15 23
26 25 26 26 26 25 26 27 26 25 26 28 27 26 26 27
27 26 27 27 26 26 27 26 26 26 25 26 26 26 25 25
26 25 25 25 25 26 25 25 25 25 24 25 24 24 24 24
7 15 29 28 23 24 28 31 33 18 0 4 15 24 28 30
32 27 5 5 10 15 23 25 27 31 29 27 23 9 6 6
6 5 9 21 6 8 11 14 38 49 62 74 87 94 98 102
107 110 111 111 111 112 111 111 111 111 111 111 111 110 110 110
110 108 106 104 100 96 90 76 59 43 25 10 15 2 13 22
26 25 25 25 26 26 26 26 26 27 27 27 28 27 27 27
26 27 27 26 26 26 26 26 26 25 25 25 26 26 26 26
25 25 25 25 25 25 24 24 24 25 25 24 25 25 25 24
7 14 27 28 27 25 26 32 35 18 0 0 1 8 10 11
18 26 1 0 0 0 1 3 8 13 19 25 23 7 1 3
4 1 1 18 5 9 11 11 35 47 59 73 87 92 96 102
107 110 112 112 112 112 112 111 111 111 111 111 110 110 110 111
110 110 108 106 103 98 93 78 62 44 24 15 13 3 5 18
25 26 26 26 26 26 26 26 27 26 27 27 28 27 27 27
27 27 27 27 26 26 26 26 25 26 26 25 26 26 26 25
25 25 26 25 25 25 25 25 25 25 25 25 25 25 24 23
7 6 6 11 18 24 29 34 36 20 0 0 0 2 5 6
12 25 1 0 0 0 0 0 0 0 0 18 24 5 0 0
1 0 1 17 5 5 10 8 29 44 56 70 87 93 97 104
109 112 111 111 112 111 112 111 111 111 111 111 111 111 111 110
111 110 109 108 105 100 93 79 63 46 23 17 15 1 0 11
27 26 26 26 26 26 27 26 26 26 27 27 28 28 28 27
27 26 27 27 27 26 26 26 26 26 26 26 26 26 26 26
25 25 25 25 25 25 25 25 25 24 25 25 24 25 25 25
7 2 0 0 0 1 5 11 18 17 0 0 0 0 0 1
9 26 3 0 0 0 0 0 0 0 0 17 22 2 0 0
0 0 1 17 5 9 5 6 26 42 51 68 86 92 97 105
110 112 112 112 112 112 111 112 111 111 111 111 111 110 111 111
111 111 109 109 105 101 94 80 63 48 26 15 14 0 0 9
26 26 26 26 27 26 26 26 27 28 27 27 28 27 27 27
26 27 27 27 27 27 27 27 27 27 26 26 27 26 26 26
26 26 26 26 25 25 25 25 26 26 26 25 25 24 24 24
6 2 0 0 0 0 0 0 0 11 0 0 0 0 0 0
7 24 1 0 0 0 0 0 0 0 0 16 20 0 0 0
0 0 1 21 4 5 1 3 22 39 50 70 85 93 98 105
109 112 112 112 111 112 111 111 111 111 111 111 111 111 111 108
108 106 108 106 103 100 93 80 63 46 24 9 8 0 0 5
26 26 26 26 26 26 27 27 27 27 27 27 28 27 27 27
27 27 27 27 27 27 27 27 26 26 26 26 26 26 25 27
26 27 26 25 26 25 25 26 26 25 24 25 25 25 25 25
7 3 0 0 0 0 0 0 0 8 0 0 0 0 0 0
10 26 2 0 0 0 3 5 0 0 0 15 19 0 0 0
0 0 1 24 7 1 0 3 18 36 51 69 82 93 98 102
103 104 108 110 111 112 112 111 112 112 112 111 109 106 92 73
75 87 90 81 94 104 93 80 62 50 23 6 0 0 0 5
26 26 26 27 27 27 27 27 27 27 28 27 27 27 27 27
27 28 27 27 28 27 27 27 27 27 26 26 26 27 26 27
26 26 26 25 25 25 26 26 25 26 26 26 26 25 25 25
7 3 0 0 0 0 0 0 0 7 0 0 0 0 0 0
9 29 2 0 0 0 4 9 5 2 0 13 20 0 0 0
0 0 0 24 10 0 0 2 13 40 50 66 82 93 84 79
79 67 57 66 84 100 111 112 112 112 112 111 92 74 55 38
50 49 63 85 110 113 108 90 72 52 29 2 0 0 0 7
27 27 27 27 27 27 26 27 27 28 28 27 28 28 27 27
28 28 29 28 28 27 28 28 27 27 27 26 27 27 27 26
26 26 26 26 24 25 26 26 26 26 26 26 26 27 26 26
7 2 0 0 0 2 1 0 0 5 0 0 0 0 0 0
8 30 3 0 0 0 6 9 8 7 1 12 20 0 0 0
0 0 0 24 13 0 0 3 13 40 49 72 98 110 96 64
55 49 44 37 45 52 76 90 92 91 86 82 59 39 62 52
28 21 16 24 70 116 94 64 63 50 35 3 0 0 1 10
28 27 27 27 27 27 28 28 28 28 28 28 28 28 28 28
28 28 28 28 29 28 28 27 27 28 27 27 27 27 26 26
26 26 26 26 26 25 27 27 27 28 27 26 26 25 25 23
7 2 0 2 0 0 0 0 0 5 0 0 0 0 0 0
9 30 4 0 0 0 4 8 8 8 1 11 22 1 0 0
0 0 0 22 20 2 0 3 14 43 70 78 79 77 66 39
16 16 23 36 51 30 54 87 99 101 98 92 63 67 53 34
29 31 44 55 83 116 84 32 32 45 40 11 0 0 5 11
27 27 28 28 27 27 27 27 27 28 28 27 27 28 28 28
28 28 29 28 29 28 28 28 28 27 26 27 27 27 27 27
27 27 27 26 26 25 26 26 26 25 25 26 25 24 22 21
7 2 0 1 0 0 0 0 0 6 0 0 0 0 0 2
14 32 6 0 0 0 0 2 6 8 1 10 29 23 15 9
6 3 4 25 25 4 0 1 16 43 52 39 49 92 71 32
34 29 23 32 44 56 61 101 113 112 112 105 82 82 77 71
83 92 104 109 112 112 88 46 43 36 25 28 0 0 4 11
25 27 27 28 27 27 28 28 28 28 28 28 28 27 27 27
28 28 29 28 29 28 28 28 28 28 28 27 28 26 27 26
26 26 25 25 24 26 26 24 23 22 20 19 17 14 11 9
7 3 0 0 0 0 0 0 0 15 10 5 3 2 0 0
9 36 25 18 14 11 5 2 1 3 0 8 32 34 31 30
29 30 32 34 27 6 0 0 25 24 36 37 71 117 112 98
98 90 75 70 79 93 88 88 112 112 112 101 94 107 106 86
94 97 102 104 109 110 91 71 61 41 25 66 45 0 3 10
22 28 27 27 28 27 27 27 27 27 28 27 27 28 28 28
29 29 29 28 29 28 27 27 26 26 26 26 25 24 25 24
24 25 23 23 22 20 17 15 13 10 9 7 7 8 9 9
6 2 0 0 0 0 0 0 0 24 36 28 25 24 21 14
18 39 23 17 20 21 22 20 18 16 16 22 34 32 32 32
33 37 39 38 27 9 0 7 21 21 32 52 74 96 114 95
79 71 63 63 89 116 92 93 98 71 73 112 80 112 100 77
68 62 59 65 77 79 71 71 69 58 27 45 44 0 0 3
15 27 27 27 28 27 28 27 27 28 28 28 28 28 28 28
28 28 28 27 27 27 26 26 26 24 25 25 24 24 22 20
18 16 14 12 10 10 10 10 10 10 11 12 13 13 13 14
7 3 0 0 0 0 0 0 0 27 38 30 34 36 39 39
36 37 17 7 9 10 11 11 13 15 19 23 24 21 25 28
31 34 35 35 27 17 11 79 18 22 53 59 64 58 79 46
27 25 43 48 80 88 75 60 66 75 71 66 80 99 86 69
53 45 26 24 26 38 49 59 63 50 25 22 13 0 0 5
17 28 28 27 29 28 28 28 28 27 29 29 28 28 28 28
28 28 28 28 28 27 26 27 27 22 19 17 15 14 12 13
12 12 13 13 14 14 15 15 16 16 16 17 16 12 17 19
7 10 11 8 4 1 0 0 0 27 32 29 36 37 40 41
33 28 16 9 9 9 9 8 7 6 6 6 6 8 10 13
21 25 23 23 23 20 10 57 16 26 59 59 46 29 41 31
23 34 80 51 66 71 65 63 93 108 105 89 66 91 82 56
61 75 35 24 35 57 26 39 38 26 19 16 0 0 0 4
19 27 27 27 29 28 28 28 28 28 29 28 28 28 28 28
27 26 24 22 20 18 17 17 28 19 11 12 14 14 15 15
15 17 17 17 18 18 19 19 20 20 21 21 21 18 14 19
8 16 31 34 31 26 21 16 14 30 25 29 35 37 40 41
37 29 18 10 9 8 7 6 6 5 5 5 5 6 7 7
20 22 21 23 23 14 2 14 15 14 36 48 33 36 57 49
49 60 74 74 64 65 58 65 98 106 103 96 57 73 79 82
84 82 79 78 72 68 61 61 43 52 52 24 2 0 0 11
26 27 27 27 28 28 28 28 28 28 28 26 25 23 21 19
18 16 15 15 15 16 16 15 23 17 13 16 18 19 18 20
21 21 21 21 22 22 21 21 22 22 22 21 22 22 20 13
8 16 33 36 36 35 35 35 36 35 15 15 23 27 32 35
34 30 21 11 9 7 5 5 5 6 6 7 7 8 8 9
20 13 8 24 26 21 0 7 24 32 33 50 63 67 81 90
96 95 86 73 62 61 66 71 95 102 100 94 64 59 81 80
80 87 94 96 94 86 78 78 71 78 65 38 5 0 9 41
27 26 27 27 28 26 26 24 23 21 19 17 17 15 15 16
16 17 18 18 19 20 20 19 24 19 17 20 22 22 23 23
23 23 24 23 23 23 23 22 23 23 23 22 23 24 24 20
7 15 31 35 36 36 36 36 37 33 4 0 1 3 7 12
15 24 23 10 8 4 0 0 0 2 7 8 6 5 9 11
22 26 24 29 35 51 22 6 38 49 65 69 77 81 89 93
97 94 84 80 80 52 41 73 88 96 97 88 75 53 88 95
92 91 99 103 103 100 96 90 78 80 68 44 16 5 37 46
32 25 23 22 20 18 18 17 17 17 17 18 18 19 20 20
21 22 23 23 23 24 24 22 24 20 19 22 24 24 24 24
25 24 25 25 25 25 25 24 24 23 23 23 22 24 24 25
12 15 25 28 29 30 31 33 36 31 3 0 0 0 0 0
6 23 24 9 7 4 0 0 0 0 1 2 0 0 3 4
19 31 27 24 40 37 46 19 42 56 70 69 83 93 97 98
97 91 87 92 83 52 47 77 83 93 95 89 82 60 78 95
96 97 96 97 100 101 99 95 84 83 72 45 26 20 64 62
37 16 17 17 18 18 19 20 21 21 22 23 23 23 23 24
25 26 26 25 26 26 25 20 10 8 18 24 25 26 26 25
25 25 26 26 26 26 25 25 25 24 23 23 23 23 25 25
13 15 16 17 20 24 23 25 33 28 2 0 0 0 0 0
1 23 24 8 6 2 0 0 0 0 0 0 0 0 0 0
17 32 26 21 45 54 53 27 47 56 67 70 84 89 94 94
93 91 97 96 80 54 72 92 93 98 102 97 99 77 57 93
100 100 99 99 94 96 98 97 85 80 84 56 32 28 71 70
47 19 21 22 22 23 24 24 25 26 25 26 26 26 26 27
27 27 27 27 27 26 26 18 2 0 13 25 26 26 26 26
26 26 26 26 26 27 26 25 26 26 25 23 23 22 23 24
11 14 12 13 16 22 21 24 33 27 1 0 0 0 0 0
0 22 20 3 1 0 0 0 3 3 0 0 0 0 0 0
17 33 26 18 51 60 59 35 48 61 64 72 84 88 90 92
95 99 101 96 74 57 88 80 96 106 109 104 98 85 67 71
109 108 106 105 101 97 100 101 85 77 58 59 40 47 70 71
50 23 25 25 26 25 26 26 27 27 27 27 28 28 27 28
28 28 27 22 18 13 21 15 5 1 11 25 27 27 27 27
26 26 26 25 26 26 25 26 25 25 24 24 22 22 22 24
10 12 11 15 20 23 24 28 33 27 1 0 0 0 0 0
0 24 17 0 0 0 0 0 0 6 5 0 0 0 0 0
16 33 27 15 51 59 66 45 44 85 56 70 82 86 92 96
98 103 106 97 54 75 77 84 100 109 111 108 94 93 100 53
84 112 110 110 109 106 104 99 93 79 69 64 44 65 75 68
57 26 27 27 27 28 28 28 28 28 29 29 29 28 29 28
29 28 19 2 0 2 17 14 0 0 10 24 27 27 27 26
27 27 26 26 26 26 26 25 26 25 25 24 24 22 20 20
11 10 0 1 3 6 9 14 18 21 1 0 0 0 0 0
0 25 17 0 0 0 0 0 0 7 9 6 2 0 0 0
15 34 28 15 51 59 67 50 42 51 66 67 83 87 95 102
105 109 108 74 47 77 85 87 97 110 113 107 88 92 94 74
66 86 85 81 80 80 81 75 75 88 76 63 47 68 90 72
61 27 28 27 27 28 28 28 29 29 29 29 30 29 29 29
29 29 24 16 19 22 24 18 0 0 9 24 26 26 27 26
27 26 26 25 26 25 25 24 25 24 24 24 24 23 20 18
16 12 0 0 0 0 0 0 0 10 1 0 0 0 0 0
0 24 14 0 0 0 0 0 9 10 11 9 4 0 0 0
15 33 29 19 50 58 70 53 41 54 68 72 80 93 96 87
81 76 88 77 63 83 88 82 82 98 107 93 81 89 95 82
90 108 107 104 103 103 105 105 99 92 78 64 51 70 86 76
59 28 28 28 29 29 29 30 29 28 29 30 30 30 29 29
29 29 29 27 27 26 26 20 2 0 10 24 26 26 26 26
26 26 26 26 25 25 25 25 25 24 23 24 23 22 22 19
15 11 0 0 0 0 0 0 0 8 1 0 0 2 0 0
0 23 11 0 0 0 0 0 10 13 11 3 1 0 0 0
14 33 30 21 43 56 71 53 40 54 66 76 76 77 80 86
95 106 111 84 67 81 51 28 53 82 92 76 23 24 74 81
94 109 112 111 111 110 111 109 105 95 80 64 53 74 82 81
53 28 29 28 29 29 29 28 29 29 29 29 29 29 29 30
29 29 28 27 27 26 25 22 6 0 14 24 26 27 27 27
26 25 26 25 25 24 24 24 23 23 22 22 22 22 21 18
15 12 0 0 0 0 0 0 0 7 1 0 1 10 5 0
0 23 11 0 0 0 0 0 0 8 6 0 0 0 0 0
11 32 31 20 34 57 66 53 41 56 74 87 100 106 110 109
112 112 111 83 62 73 57 37 54 57 62 68 80 76 70 74
98 111 111 111 111 111 111 111 107 96 80 62 58 84 79 79
49 28 29 28 29 29 30 29 30 29 29 29 30 29 29 28
29 28 28 28 28 26 25 23 14 6 19 25 27 27 27 26
26 26 25 25 25 25 25 24 24 24 23 23 22 21 21 19
12 11 0 0 0 7 1 0 0 7 1 0 4 10 7 1
0 23 9 0 0 0 0 0 0 6 7 0 0 0 0 0
7 31 30 12 24 54 62 54 42 55 74 89 101 108 112 112
113 113 112 95 72 68 88 91 96 86 87 95 104 91 84 95
103 109 112 111 111 110 110 110 103 94 80 61 62 77 74 73
43 29 29 29 29 28 28 28 28 29 28 29 29 29 29 29
29 28 28 27 28 26 25 21 19 18 22 26 26 26 27 26
26 26 25 25 25 24 24 24 23 23 22 21 22 21 21 18
12 11 0 0 3 12 4 0 0 9 15 9 16 16 15 11
5 25 10 0 0 0 0 0 0 5 9 0 0 0 0 0
5 30 29 8 16 53 63 56 46 53 72 88 100 108 112 112
112 112 112 105 93 83 82 92 104 107 109 108 105 96 92 95
100 105 110 111 110 111 110 110 104 94 79 60 56 63 83 70
33 28 28 28 29 29 28 29 29 29 29 28 29 28 28 28
28 28 28 28 28 27 26 23 22 23 26 26 26 27 27 26
25 25 25 25 25 24 24 24 24 23 22 21 21 20 20 17
12 11 0 0 0 3 1 0 0 11 30 29 33 32 31 32
32 36 12 0 0 0 0 0 0 5 10 0 0 0 0 0
3 28 27 5 6 47 61 53 45 51 68 84 99 109 112 112
112 112 110 103 96 85 83 92 102 109 109 107 106 99 91 93
94 97 103 110 110 111 110 110 106 90 77 59 64 79 82 57
29 30 29 29 29 28 28 28 28 28 28 28 29 29 28 29
29 29 29 28 27 27 26 24 23 25 27 27 27 26 28 27
26 26 26 26 25 24 24 23 22 22 22 21 20 20 20 17
12 12 2 0 0 0 0 0 0 10 31 30 33 33 33 37
41 41 24 12 13 9 4 3 4 9 13 2 2 1 0 0
3 22 27 6 2 29 63 61 48 51 65 82 95 108 112 112
112 109 103 97 88 85 89 96 106 110 106 107 106 102 99 96
95 97 95 101 111 111 110 108 104 91 76 58 80 87 78 38
29 29 28 28 29 29 29 29 28 28 29 29 28 29 29 30
29 29 28 28 28 27 26 26 26 27 27 27 28 26 26 27
26 26 25 25 24 24 24 23 23 22 21 21 19 18 18 17
13 14 11 1 0 0 0 0 0 10 30 30 32 32 33 38
41 41 32 26 26 25 23 21 22 22 21 17 15 13 13 11
15 24 29 13 11 18 56 66 57 50 62 75 93 105 112 113
109 98 92 85 86 91 96 106 108 109 107 106 107 105 105 101
100 100 93 93 107 110 110 109 101 91 74 58 84 86 57 29
29 30 30 29 29 29 29 28 29 28 29 28 29 30 30 29
29 30 29 28 28 27 26 25 26 26 26 26 26 26 27 26
26 26 25 25 24 23 24 23 22 21 21 20 19 17 17 16
14 14 8 0 0 0 0 0 0 10 29 26 28 29 29 30
29 29 28 28 29 29 27 27 28 27 27 26 24 23 21 20
21 27 34 27 25 23 36 63 57 51 62 74 92 102 109 110
99 87 83 86 93 96 103 108 107 109 107 107 100 96 97 101
103 101 98 98 102 111 111 109 101 88 73 59 81 76 36 29
29 29 29 29 29 29 30 29 29 29 29 29 29 29 29 29
29 29 28 28 28 28 27 27 28 28 28 27 28 27 27 27
26 26 25 25 25 24 24 23 22 22 21 20 19 18 17 15
16 16 6 0 0 0 0 0 0 11 32 27 27 28 28 28
26 25 28 29 30 31 31 30 30 28 29 28 31 33 31 28
29 31 36 35 34 34 33 48 60 50 60 73 90 102 111 109
97 87 89 93 93 93 87 83 84 84 88 89 89 87 81 77
82 93 97 103 106 111 111 108 99 84 70 56 77 56 30 30
30 29 30 30 29 29 29 29 28 28 29 29 29 29 29 29
29 29 29 29 29 28 28 28 28 29 29 27 28 28 28 27
27 27 26 26 25 24 23 22 22 21 20 19 18 17 17 15
14 14 19 19 17 13 11 11 9 19 33 28 28 28 28 28
29 30 32 30 31 34 37 37 32 28 28 28 34 37 35 33
33 33 30 26 24 25 25 29 48 49 58 71 86 101 106 104
94 89 87 84 83 67 70 73 75 71 70 73 75 74 70 66
61 59 83 103 110 111 111 104 95 81 71 56 50 32 29 29
29 29 30 29 29 29 29 29 29 29 30 30 30 29 29 29
29 29 29 28 28 29 29 29 29 29 28 28 28 27 27 27
26 25 25 24 24 23 23 22 21 19 19 19 18 17 16 15
15 15 29 35 36 33 34 36 37 37 37 31 29 29 30 30
32 35 36 33 32 34 37 36 32 28 25 26 35 38 36 34
34 34 31 27 21 20 20 20 26 47 57 66 83 96 106 107
97 96 81 53 44 54 65 79 90 95 92 92 97 95 87 80
75 71 97 108 110 112 109 100 88 76 68 51 30 28 29 29
30 30 30 30 30 30 29 29 29 29 29 29 29 29 29 29
29 29 28 29 28 29 29 28 28 28 28 27 27 27 27 27
26 26 26 25 25 23 22 21 20 19 18 18 17 16 15 14
15 15 31 41 40 40 40 40 41 40 37 26 24 23 23 24
28 34 38 33 33 32 31 31 32 29 26 23 29 28 27 27
30 31 30 29 25 24 24 24 26 44 54 65 75 94 105 108
103 104 104 86 67 72 77 88 103 106 100 100 106 103 90 85
86 90 103 111 111 111 109 97 87 76 67 48 29 29 29 30
30 30 29 30 30 29 29 29 29 29 29 29 29 29 29 29
28 28 28 28 28 28 29 28 28 28 28 28 27 27 27 26
26 25 25 24 23 22 21 21 20 19 18 17 17 16 15 15
17 14 22 28 30 30 32 33 34 36 35 10 5 4 3 4
7 14 32 34 31 17 10 15 17 17 19 26 26 11 4 3
6 12 15 25 28 26 27 29 31 42 55 63 72 88 101 110
111 111 110 100 82 83 86 95 105 108 106 107 107 106 100 100
100 98 105 112 111 110 105 92 80 74 65 44 29 29 29 30
30 30 30 30 30 30 29 29 28 28 28 29 29 29 29 28
27 26 26 24 23 24 26 28 29 28 27 28 27 27 26 26
26 25 24 24 23 21 21 21 20 18 17 17 16 15 16 14
16 13 17 21 21 21 22 22 22 22 24 5 0 0 0 0
0 0 25 34 22 2 0 0 1 4 13 27 26 7 0 0
0 1 8 21 18 16 20 23 25 38 55 61 69 81 94 104
110 109 106 104 90 88 93 100 100 95 89 92 93 102 107 105
102 101 107 105 105 105 100 88 79 74 63 40 29 30 30 29
30 29 30 30 29 28 27 26 25 25 26 28 28 29 29 24
14 12 10 10 8 8 18 28 29 29 27 28 28 27 27 26
25 24 24 23 22 21 20 20 19 18 17 16 16 15 15 14
15 14 22 27 27 26 26 25 25 25 24 7 0 0 0 0
0 6 28 33 12 0 0 0 0 0 12 29 27 8 0 0
0 0 8 20 6 0 4 3 3 22 53 59 67 77 89 95
100 104 103 104 96 94 93 99 100 98 91 94 95 100 108 105
105 105 104 100 95 98 98 88 79 71 60 35 29 29 30 30
29 24 22 20 17 16 13 11 9 9 12 23 28 28 29 23
6 5 4 4 5 5 18 29 29 29 29 27 27 27 26 26
25 25 24 23 22 21 20 19 19 17 16 16 15 14 14 14
15 14 23 28 28 29 29 29 29 29 27 7 0 0 0 0
0 6 26 30 5 0 0 0 0 0 9 29 26 8 0 0
0 0 6 19 6 0 8 6 0 11 50 58 66 72 82 93
90 91 99 102 98 99 101 104 109 107 101 102 106 109 110 109
107 107 101 94 91 91 89 86 77 69 56 31 30 30 30 30
26 11 5 6 7 7 4 2 2 2 3 19 28 29 29 23
8 5 5 5 5 4 17 28 29 29 28 27 27 27 26 26
25 24 23 23 22 21 20 19 18 17 17 16 15 14 14 13
17 16 25 29 29 30 29 29 30 31 29 7 0 0 0 0
1 1 22 28 3 0 0 0 0 0 9 29 25 7 0 0
0 0 4 21 8 0 5 5 0 5 44 55 61 70 77 83
83 85 95 99 101 103 108 112 113 111 108 108 109 113 112 112
109 106 100 92 86 85 79 79 73 65 48 29 29 29 29 30
25 7 2 5 7 7 4 1 2 2 2 17 28 28 28 22
6 5 5 5 5 5 16 29 29 29 28 27 27 26 26 25
25 25 24 23 22 21 19 18 18 17 17 16 15 14 14 14
20 22 23 24 26 26 20 11 16 26 33 10 0 0 0 0
2 0 18 27 1 0 0 0 0 0 9 29 25 7 0 0
0 0 0 19 9 0 3 2 0 3 36 53 58 68 75 77
77 80 87 91 100 103 107 113 113 113 110 111 112 112 113 112
111 106 96 86 82 79 76 75 69 60 38 30 30 30 30 29
25 8 3 5 6 6 4 2 2 1 2 16 29 28 29 22
7 5 5 4 4 4 13 28 29 29 28 27 26 26 25 25
24 23 23 22 21 20 20 18 17 17 16 16 15 14 14 14
20 21 22 22 23 23 14 0 0 16 34 17 2 0 0 0
2 0 16 26 1 0 0 0 0 0 7 29 24 9 0 0
0 0 0 19 11 0 3 3 0 3 30 48 55 62 65 71
73 72 79 87 96 105 110 112 113 111 111 113 112 111 111 110
108 100 93 85 76 76 74 69 64 52 31 29 29 29 29 29
25 8 2 5 8 7 5 2 3 1 2 16 28 28 29 24
8 6 6 7 7 8 11 26 27 27 26 26 26 25 25 24
24 24 23 23 21 20 19 18 17 16 15 14 14 14 14 13
19 19 21 20 22 22 15 0 0 13 34 15 0 0 0 0
1 0 16 25 1 0 0 0 0 0 5 29 25 11 0 0
0 0 0 17 14 0 0 0 0 2 28 40 50 56 59 65
67 69 71 83 87 98 105 107 112 113 113 113 113 113 111 107
102 95 87 72 63 68 68 64 58 45 30 30 30 30 30 30
25 8 3 4 7 6 4 2 3 2 3 16 29 29 29 26
14 11 10 11 11 10 17 24 24 25 27 27 26 26 26 25
24 23 23 22 21 19 19 17 16 15 15 14 14 13 14 13
10 11 13 16 20 22 17 0 0 10 31 8 0 0 0 0
0 0 15 26 1 0 0 0 0 0 3 28 25 7 0 0
0 0 0 15 19 0 0 0 0 3 26 31 43 50 52 58
60 61 65 70 81 90 96 104 111 113 114 114 114 113 110 98
93 89 79 66 61 62 66 60 56 53 57 31 30 30 29 29
25 10 3 4 5 5 4 3 3 3 2 15 28 29 29 26
11 7 7 5 1 1 5 5 3 5 25 27 27 27 26 25
25 23 22 22 21 20 19 18 17 16 16 15 15 14 13 13
0 0 0 6 17 21 18 1 0 7 28 7 0 0 0 0
0 0 12 28 2 0 0 0 0 0 2 28 26 11 1 0
0 1 1 15 22 0 0 0 0 3 26 29 27 44 49 54
54 53 56 58 71 79 87 99 109 112 113 113 114 110 107 98
88 81 70 62 61 62 59 55 60 40 43 63 31 29 30 29
26 10 3 3 3 2 3 2 4 3 2 14 28 30 29 26
11 5 5 4 0 1 5 18 10 1 25 27 27 27 26 26
25 24 23 22 21 20 19 17 17 15 15 14 14 14 13 13
0 0 0 6 21 21 19 1 0 5 27 10 1 0 0 1
9 6 15 31 13 7 8 9 8 8 12 30 27 22 21 21
21 23 25 32 27 6 4 3 3 7 25 27 23 29 42 48
50 49 48 54 63 71 85 94 99 101 104 106 106 102 98 92
84 75 61 60 59 57 53 59 66 41 13 54 59 30 31 30
26 11 4 3 1 0 3 3 4 3 2 14 28 30 29 26
11 5 6 4 0 0 1 6 2 1 24 28 27 27 26 26
24 24 22 22 21 20 19 18 17 17 16 15 15 14 14 13
0 0 0 5 21 20 19 3 0 2 26 26 24 21 20 25
32 30 30 32 35 34 32 33 34 35 35 38 29 26 32 33
35 37 41 43 36 24 22 22 22 23 27 26 24 27 37 47
46 46 47 47 52 58 73 80 88 86 92 91 92 90 87 82
76 65 53 52 53 50 57 68 67 48 10 21 82 36 31 30
26 12 4 3 3 4 7 3 4 3 2 13 28 29 30 27
12 5 6 4 0 0 0 0 0 0 23 27 25 25 26 26
24 24 23 22 21 20 19 18 17 16 15 15 14 13 14 13
0 0 0 4 21 20 19 4 0 0 24 31 32 27 29 35
39 35 31 28 37 41 39 37 37 39 40 40 32 23 29 31
35 38 41 42 38 27 26 26 26 26 26 26 24 25 48 57
55 45 45 46 48 50 60 70 77 78 76 74 73 75 72 67
62 47 45 47 46 58 69 71 71 51 12 15 76 57 31 29
26 12 4 4 2 1 4 4 5 4 3 13 28 29 30 26
12 5 5 3 0 0 0 0 0 0 20 14 7 8 20 25
25 23 22 21 20 20 19 17 16 16 16 15 15 13 13 13
0 0 0 3 21 20 19 5 0 0 23 32 28 26 29 35
39 35 30 26 28 32 31 31 30 31 31 31 29 22 23 27
29 31 30 28 28 26 26 26 26 26 26 26 26 40 54 58
61 55 45 40 42 44 48 56 59 58 54 50 51 54 51 48
42 43 43 45 56 70 75 75 75 54 14 16 70 93 55 38
27 14 6 4 1 0 4 4 5 4 2 12 28 30 31 28
13 5 5 1 16 20 1 0 0 0 7 16 22 14 7 25
24 24 23 22 21 19 19 17 16 15 15 15 14 13 13 13
0 0 0 2 21 20 19 6 0 0 22 27 21 22 23 28
37 36 32 28 22 19 20 20 20 20 21 21 24 24 25 26
27 26 25 22 24 26 27 27 27 27 26 26 29 61 30 56
64 60 55 42 40 39 39 41 42 44 45 45 44 42 41 42
39 44 52 61 70 77 79 83 77 59 16 15 69 110 92 84
65 27 7 5 4 3 5 5 6 6 3 13 29 30 31 28
12 5 5 7 30 41 11 0 0 7 24 27 27 24 6 22
24 23 22 22 21 19 18 18 16 16 15 14 13 14 13 13
0 0 0 1 19 20 18 7 0 3 23 25 9 11 13 17
23 25 24 28 23 20 22 22 27 27 25 25 27 28 29 32
33 32 27 25 24 25 26 26 26 26 26 26 44 55 12 54
65 65 58 51 44 45 41 38 38 40 41 40 41 41 40 40
49 60 66 73 73 79 87 85 81 64 16 15 73 115 97 89
100 104 87 68 43 16 6 5 5 6 3 12 28 30 31 28
15 5 6 6 16 19 10 0 0 11 27 27 27 26 9 18
25 23 23 22 21 20 18 17 16 15 15 14 14 13 14 13
0 0 0 0 17 19 17 14 14 21 29 22 0 0 0 0
1 5 10 26 26 28 31 29 37 39 29 22 23 24 26 29
33 35 29 25 25 25 25 26 25 26 26 28 65 32 9 50
64 68 66 53 47 48 52 47 44 40 39 36 35 37 47 58
63 68 73 75 81 88 90 88 86 68 7 17 84 115 103 91
100 112 112 111 110 102 84 68 51 38 21 16 28 30 30 28
16 6 7 2 3 2 1 0 0 11 28 27 25 25 10 17
24 22 22 21 20 18 16 15 15 14 14 13 13 13 12 12
0 0 0 0 15 19 16 20 29 32 34 25 0 0 0 0
0 0 6 28 25 29 34 28 35 39 18 2 3 3 4 6
18 35 30 25 25 25 25 25 25 25 25 41 67 17 8 45
64 71 70 60 49 53 58 59 58 57 60 66 75 78 84 82
80 82 78 80 89 93 94 92 89 71 7 17 95 113 107 94
98 111 113 112 112 111 110 108 108 109 107 99 84 69 54 41
28 18 12 5 0 0 0 0 0 7 26 26 25 24 10 19
23 22 21 20 19 17 16 15 15 13 14 12 13 12 11 12
0 0 0 0 13 18 16 19 31 33 35 27 1 0 0 0
0 0 3 28 23 27 30 9 9 19 13 0 0 0 0 0
9 32 30 24 25 24 24 24 25 24 26 62 48 9 6 41
65 70 70 65 54 52 61 75 87 94 99 101 101 97 98 95
91 87 85 90 97 101 102 100 93 74 8 21 107 112 108 99
97 109 111 111 111 110 111 111 110 110 109 110 110 108 106 102
96 77 49 32 4 0 0 0 0 6 26 26 25 23 8 21
23 21 20 20 18 16 14 13 13 12 12 12 11 11 10 11
0 0 0 0 11 18 14 16 24 25 25 19 0 0 0 0
0 0 2 29 23 26 28 3 0 10 14 0 0 0 0 0
6 30 30 25 25 25 25 26 29 39 59 73 31 12 8 41
67 71 73 69 59 56 66 84 101 109 111 110 108 106 103 98
94 91 92 96 105 109 108 105 98 74 10 34 111 112 110 105
99 108 111 111 111 111 110 110 110 110 110 111 109 110 110 109
108 107 106 101 79 40 7 0 0 5 23 22 21 11 10 21
13 12 18 20 18 16 13 12 12 12 11 11 10 11 11 10
0 0 0 0 9 18 15 14 10 9 10 4 0 0 0 0
0 0 3 28 23 28 29 4 0 10 16 0 0 0 0 0
4 28 30 25 27 38 57 69 75 79 82 77 24 16 12 40
69 76 79 74 64 59 65 77 92 108 113 112 111 107 102 98
92 95 97 102 109 111 111 109 100 68 14 60 113 112 112 105
99 108 111 112 111 111 111 111 111 111 111 111 111 111 110 111
110 110 110 110 109 104 94 56 15 0 3 3 2 0 7 13
6 19 15 19 17 15 13 12 12 12 12 11 12 11 11 11
0 0 0 0 8 17 14 13 8 6 8 3 0 0 0 0
0 0 3 29 24 28 28 4 0 8 17 0 0 0 0 0
3 33 48 56 72 78 85 82 82 82 89 91 33 20 15 33
74 84 92 86 70 62 66 70 84 100 112 113 111 105 98 95
98 100 102 106 109 112 112 109 101 56 33 98 112 112 111 107
99 110 112 112 112 112 111 111 111 111 111 110 111 111 111 110
111 111 111 110 111 111 111 108 99 60 12 0 0 0 5 6
56 80 34 18 18 16 14 12 13 12 11 12 11 11 11 11
0 0 0 0 7 18 14 13 10 9 11 3 0 0 0 0
0 0 2 28 24 29 29 4 0 9 18 0 0 0 7 35
69 95 97 93 86 84 85 84 84 88 101 101 61 29 8 25
75 89 96 95 78 66 68 72 74 87 106 111 104 98 100 102
100 102 104 108 113 112 112 109 99 44 65 109 113 112 111 108
101 109 112 111 112 112 111 111 111 111 111 112 111 111 111 111
111 110 111 111 110 110 111 111 111 107 92 49 3 0 12 11
55 57 37 5 5 7 14 13 13 13 12 12 12 12 13 12
0 0 0 0 7 17 14 13 11 11 12 4 0 0 0 0
0 0 1 28 25 30 30 8 0 8 18 7 31 68 97 108
106 106 106 103 97 90 88 87 85 87 108 106 87 47 3 28
76 90 97 100 87 74 70 73 78 80 88 97 100 103 105 103
102 100 108 112 113 112 112 110 89 35 89 111 112 112 112 110
104 109 112 113 112 112 112 112 111 111 111 111 111 111 111 111
112 111 111 111 111 111 111 110 111 110 109 100 63 5 0 0
0 0 0 1 0 6 18 17 16 17 16 15 15 14 14 13
0 0 0 0 6 17 15 14 13 13 13 4 0 0 0 0
3 4 0 27 26 30 31 16 7 15 54 91 109 112 115 115
114 114 113 111 111 103 92 91 90 91 113 110 99 73 3 37
76 88 97 101 95 83 75 75 78 81 82 88 97 105 106 101
104 108 111 112 112 112 112 108 66 41 103 113 112 113 113 110
104 109 112 111 112 112 112 111 111 112 112 112 111 111 111 111
111 111 111 111 111 111 111 110 110 111 111 110 101 61 2 0
0 0 0 1 0 5 14 11 11 9 9 7 7 5 4 4
0 0 0 0 5 17 14 14 13 13 14 6 0 0 0 0
5 12 5 25 28 31 31 25 68 100 113 115 115 115 115 115
115 115 115 115 113 103 93 92 90 91 114 111 104 87 4 44
74 85 95 100 98 92 85 80 81 85 89 96 103 105 106 106
110 110 111 113 113 112 112 101 48 77 111 112 113 112 112 108
98 110 112 112 112 112 111 112 111 111 111 111 112 111 111 111
112 111 112 111 111 111 111 111 111 110 110 110 110 100 54 1
0 0 0 1 15 19 18 18 18 18 19 21 21 21 22 22
0 0 0 0 5 17 14 14 15 15 15 16 13 16 15 16
22 27 25 34 32 44 81 104 114 114 115 115 115 115 115 115
116 115 115 115 114 102 93 94 93 97 115 114 108 74 6 50
76 85 93 100 99 98 94 88 90 95 97 101 106 109 112 112
111 111 113 112 112 112 110 84 56 104 111 113 113 112 112 104
99 112 112 111 112 112 112 112 112 111 112 112 112 111 111 111
111 111 111 111 110 110 111 111 111 111 110 111 111 109 102 65
7 0 0 4 32 31 30 30 29 29 29 28 28 29 28 29
0 0 0 0 4 17 14 14 15 15 15 24 31 33 34 35
38 41 42 48 79 108 110 110 111 113 113 113 115 115 115 115
115 115 115 114 114 105 93 94 93 97 115 114 111 65 10 50
80 84 93 99 101 101 98 93 92 98 104 109 110 112 112 111
109 111 112 112 113 112 100 57 79 109 112 112 112 112 112 101
107 112 112 112 112 112 112 112 112 112 112 112 112 111 111 111
111 112 111 111 111 111 111 110 111 111 110 111 111 111 111 107
86 17 0 5 32 31 30 30 30 29 29 29 29 29 28 29
0 0 0 0 4 16 14 13 14 15 15 23 35 36 36 37
39 42 51 97 107 106 111 115 115 115 115 115 115 115 115 115
115 115 115 115 113 103 97 96 94 99 115 114 112 69 18 43
81 86 90 97 100 100 98 98 98 99 104 107 108 109 110 108
106 111 112 113 112 110 79 51 99 112 113 113 112 112 112 109
112 112 112 112 112 112 112 112 112 112 111 112 112 111 111 111
112 112 112 111 111 111 111 111 111 111 111 110 111 111 111 110
107 84 13 7 32 31 30 29 29 29 29 29 28 28 28 29
0 0 0 0 3 16 13 12 14 15 15 15 23 23 23 24
26 36 94 105 109 112 113 115 115 115 115 115 115 115 115 115
115 115 115 115 111 101 98 97 95 100 115 114 113 86 29 39
80 90 92 95 102 100 99 97 99 101 104 105 107 105 106 103
105 111 112 112 112 96 56 70 105 111 112 113 113 112 111 112
112 112 112 112 112 112 112 112 112 112 112 111 112 111 111 111
111 111 111 111 111 111 110 111 111 111 111 111 111 111 111 111
105 98 39 9 32 30 29 29 29 29 29 29 29 28 28 28
0 0 0 0 3 16 13 12 14 15 15 11 10 10 10 11
25 86 99 111 114 115 115 116 115 116 116 115 116 115 115 115
115 115 115 115 111 103 102 100 97 103 115 115 114 101 43 39
74 94 95 96 99 100 100 98 98 100 103 104 105 108 105 104
108 112 112 112 106 65 56 94 105 111 69 107 113 112 113 112
112 112 113 113 113 112 112 112 112 111 112 112 111 112 112 112
111 111 111 112 111 111 111 111 111 111 111 111 111 111 111 111
110 108 82 13 31 30 30 29 28 28 29 28 29 29 28 29
0 0 0 0 3 16 13 12 14 15 15 13 10 10 11 19
81 92 108 116 115 115 115 115 116 115 115 115 115 115 115 115
114 114 115 115 112 105 100 101 99 104 114 114 114 110 60 44
63 95 99 100 99 99 101 101 100 100 101 103 105 103 104 107
110 113 113 112 87 59 74 106 109 103 32 92 113 112 111 111
110 112 112 112 113 112 113 113 112 112 112 112 111 111 111 111
111 111 111 111 111 111 111 111 111 111 111 111 111 111 111 111
111 111 104 49 30 30 30 30 29 29 29 29 28 28 28 28
0 0 0 0 3 16 14 12 14 15 15 15 14 14 20 79
100 93 114 115 116 115 115 115 115 115 115 115 115 116 116 116
115 115 115 113 109 106 100 100 100 104 115 115 114 113 80 52
57 93 99 101 103 103 100 102 103 101 104 105 106 107 110 111
113 113 112 106 73 67 103 111 110 106 33 95 113 113 112 110
110 112 113 113 113 112 112 112 111 111 112 111 112 112 112 111
111 112 112 112 111 111 111 110 111 111 111 110 111 110 111 111
111 111 106 88 34 30 30 29 29 29 28 28 29 28 28 28
0 0 0 0 5 18 15 13 14 15 16 16 15 16 58 101
110 96 113 115 116 115 116 115 116 115 115 115 115 115 115 115
115 115 115 111 102 107 103 100 101 103 115 113 114 110 96 59
56 87 101 103 103 105 105 104 103 103 104 106 108 109 110 111
113 113 112 94 69 90 112 112 113 105 47 105 112 112 112 108
111 112 113 113 112 112 112 113 112 112 112 112 112 112 112 111
112 112 112 112 111 111 112 111 111 111 111 110 111 110 111 110
111 111 110 101 57 29 30 29 29 29 29 28 28 29 28 28
3 4 4 6 9 14 13 12 14 16 16 16 16 28 84 109
115 103 107 116 115 116 115 115 115 115 115 115 115 115 116 116
116 115 116 114 95 105 107 101 100 107 81 48 116 114 109 80
61 79 102 106 103 106 108 107 105 106 105 107 109 110 111 112
113 113 107 79 85 109 111 112 112 94 77 112 113 111 111 110
112 113 113 112 112 112 112 112 112 112 111 111 111 112 112 112
112 112 112 112 112 111 112 111 111 111 110 111 111 111 111 111
111 111 111 104 84 32 30 29 29 29 29 28 28 28 28 28
7 8 9 9 10 12 13 13 14 15 16 17 17 57 98 113
115 114 104 116 116 116 116 115 115 115 115 115 115 115 116 115
115 115 115 115 97 95 109 104 101 108 103 75 115 114 111 104
73 76 102 109 109 106 111 112 109 107 108 110 111 112 112 112
113 109 89 89 110 111 111 113 113 91 105 112 112 111 109 112
113 112 113 112 112 112 112 112 112 112 112 112 112 112 112 112
111 112 111 111 111 111 111 111 111 111 111 111 111 111 111 111
111 110 111 107 97 46 30 30 29 29 29 28 28 28 28 27
7 8 9 9 10 11 12 13 13 15 16 17 23 84 108 112
116 115 107 115 115 116 115 115 115 115 115 116 115 115 116 116
116 115 115 115 106 84 106 107 101 103 111 80 115 114 113 109
98 75 100 113 113 111 112 113 113 111 109 110 108 109 111 113
113 99 91 110 113 112 112 112 111 105 112 111 112 110 111 112
112 112 113 112 112 112 112 112 112 112 112 112 112 112 112 111
112 112 112 111 111 111 111 111 111 111 111 110 110 111 111 111
111 111 111 111 100 72 30 30 29 28 28 28 28 27 27 27
8 8 8 9 9 11 11 12 14 14 16 16 41 103 111 114
115 115 110 114 116 116 115 116 116 116 115 116 116 115 115 115
115 116 115 115 111 86 97 109 105 100 104 89 115 114 114 113
109 91 98 114 114 113 113 114 114 113 112 111 112 112 112 112
104 93 107 113 113 113 113 112 106 112 112 113 111 109 112 112
112 112 112 112 111 111 112 112 112 111 112 113 112 112 112 112
112 112 111 111 111 111 111 111 111 112 111 111 111 111 111 111
111 111 111 111 104 90 37 29 29 29 28 28 28 28 28 28
1 1 1 2 4 7 8 9 14 14 16 18 65 111 115 112
116 116 111 112 116 115 116 115 115 116 115 115 115 116 116 116
116 115 115 114 114 101 84 103 107 102 100 104 114 115 115 114
112 107 94 114 114 114 114 113 113 113 113 113 113 113 113 106
97 102 112 114 113 113 110 94 109 112 112 112 110 112 113 112
112 113 112 113 112 112 112 112 112 111 111 111 112 112 112 111
111 112 112 111 111 111 111 111 111 111 112 111 111 110 111 111
112 112 111 111 109 98 57 29 29 29 28 28 28 27 27 27
0 0 0 0 2 8 10 10 14 14 16 22 84 114 115 112
116 116 112 111 116 116 115 116 116 115 115 115 115 115 115 115
115 115 115 114 115 113 100 89 108 104 101 102 110 115 115 113
114 114 106 112 113 114 113 113 114 113 113 113 114 113 109 102
107 110 113 105 102 101 51 86 114 112 113 111 111 113 112 112
112 112 112 112 112 112 111 111 112 112 111 112 112 111 112 112
112 111 111 111 111 111 111 111 111 112 111 111 111 111 111 111
111 111 110 110 110 100 78 30 29 29 28 28 28 28 27 27
0 0 0 0 2 6 10 10 12 13 15 40 97 114 116 115
116 115 111 107 115 115 115 115 115 116 115 115 115 115 115 115
115 116 115 115 114 114 114 94 92 107 103 100 104 114 114 115
114 114 114 114 114 114 113 113 113 113 113 114 113 113 111 113
112 107 77 63 107 93 52 106 112 112 112 112 112 112 112 112
112 112 112 113 112 112 111 111 112 111 111 112 111 111 111 111
112 112 111 111 111 111 111 110 111 111 111 110 111 111 111 111
111 110 110 111 110 104 92 41 29 28 28 27 27 26 27 27
0 0 0 0 2 7 11 12 13 15 17 66 108 109 116 115
115 115 112 101 116 115 115 115 115 115 115 115 115 115 115 115
115 115 114 114 114 114 114 108 85 99 107 101 101 108 114 114
114 113 114 113 114 114 114 113 113 113 113 114 113 113 113 113
111 102 103 106 112 102 84 112 112 112 112 112 112 112 111 112
111 112 112 112 111 110 111 111 111 110 111 112 111 112 111 111
112 111 111 110 111 111 110 110 110 110 111 111 111 110 111 111
110 111 110 110 110 108 94 63 27 28 28 28 27 27 27 27
1 2 1 1 3 7 11 14 16 17 28 84 114 109 117 116
116 116 114 101 116 116 115 115 116 115 115 115 115 115 115 115
115 115 115 115 114 114 115 113 102 86 101 106 102 105 109 102
61 84 113 115 114 114 114 114 114 114 114 114 114 113 113 113
113 113 112 113 113 113 108 112 112 112 112 112 111 111 112 112
112 112 112 112 112 111 112 111 111 111 111 111 111 112 111 112
111 111 111 111 111 111 107 111 111 112 111 111 110 110 110 110
111 110 110 110 110 110 96 87 31 28 27 26 27 27 26 26
4 4 4 4 6 9 11 13 18 18 46 92 116 108 116 116
116 115 115 103 115 116 115 115 115 115 115 115 116 115 115 115
115 114 114 114 114 114 114 114 112 101 88 100 108 105 107 98
52 66 102 114 114 115 114 114 114 114 114 114 114 114 114 112
111 112 112 112 113 112 108 112 112 113 113 112 112 112 112 112
111 112 113 112 112 111 111 111 110 111 111 112 112 111 112 112
111 111 111 111 111 109 89 112 111 111 111 111 111 110 111 111
111 111 110 110 110 110 101 92 54 27 27 27 27 27 26 26
5 5 5 5 6 5 6 6 18 19 65 95 116 108 116 116
115 116 115 102 115 115 116 115 114 115 115 114 115 114 115 115
114 115 115 115 114 115 114 114 114 112 104 88 101 108 106 104
79 67 87 107 114 114 114 114 114 114 114 114 113 113 112 112
111 112 113 113 113 112 108 112 112 112 113 112 112 112 112 112
112 112 113 112 112 112 112 112 112 111 111 111 112 111 112 111
111 111 111 111 111 101 81 112 111 111 111 111 111 110 110 110
111 110 110 110 110 110 107 89 82 28 27 26 26 25 25 25
0 0 0 0 1 1 2 3 18 30 80 96 116 108 115 116
115 115 115 104 114 116 115 115 116 115 115 114 115 115 115 114
115 115 115 115 115 114 114 114 114 114 114 114 109 110 111 108
99 74 87 82 105 113 113 114 114 114 114 114 113 113 113 112
113 113 113 113 112 112 111 112 112 111 113 112 112 112 112 112
112 111 112 112 112 111 111 111 111 111 111 111 111 111 112 112
111 111 111 111 111 90 94 111 111 111 110 110 110 111 110 111
111 110 110 110 110 110 109 89 91 44 26 26 26 26 26 25
