P2
128 120
125
24 24 24 24 24 23 22 22 22 21 21 20 20 20 20 19
18 18 18 18 17 17 16 16 16 16 15 15 15 14 14 13
14 13 13 12 12 11 11 11 11 9 9 7 6 6 7 9
10 10 11 8 4 10 14 12 11 9 9 9 8 6 5 3
2 2 1 4 7 5 5 3 6 7 8 8 9 10 10 9
10 11 11 12 12 12 13 13 14 14 14 15 15 15 15 15
15 16 15 17 17 18 19 19 19 19 19 20 21 21 21 21
22 21 22 23 21 22 22 22 22 23 23 23 23 23 23 23
24 24 24 23 23 23 23 22 21 21 20 20 20 19 19 19
19 18 18 17 17 17 16 16 16 15 15 15 15 15 14 14
14 13 13 13 12 11 12 11 10 9 9 8 7 7 8 10
11 12 13 8 3 10 15 12 11 10 9 9 8 7 6 4
4 3 1 4 6 6 4 6 7 8 8 9 10 10 10 10
11 12 11 12 12 13 13 14 14 15 14 15 15 15 15 15
15 17 18 18 18 19 19 19 20 20 20 20 21 21 21 21
21 22 22 23 22 22 22 22 21 22 22 22 23 23 22 23
24 24 23 23 23 23 23 22 22 21 21 20 20 20 19 19
19 18 18 18 18 17 17 16 16 16 16 16 15 15 14 14
14 14 13 13 13 12 12 11 11 11 10 9 8 8 8 12
13 14 13 8 2 9 15 13 12 11 11 10 9 8 7 6
7 5 2 3 6 6 6 7 9 9 10 10 11 11 12 12
12 12 13 13 13 13 14 14 15 15 14 15 15 16 16 17
17 18 19 18 18 19 19 20 20 20 21 20 21 21 21 21
22 22 22 23 21 21 22 22 22 23 22 23 23 24 24 23
25 24 25 24 24 23 22 22 22 21 21 21 20 20 20 20
20 19 19 19 18 18 18 16 17 17 16 16 16 15 15 15
15 14 13 14 13 13 13 13 12 12 11 10 10 9 10 13
14 15 15 10 3 10 16 14 13 12 12 11 10 9 7 9
9 7 4 2 8 6 8 9 10 11 11 11 12 12 13 13
13 13 14 14 14 15 15 15 15 16 16 16 17 17 17 18
18 19 20 19 19 20 21 21 21 21 21 21 21 21 22 21
22 22 22 24 23 22 23 23 24 23 24 23 24 24 23 23
25 24 25 23 23 23 23 23 22 21 22 21 21 21 21 20
20 19 19 19 18 18 18 17 17 17 17 16 16 16 15 15
15 14 14 14 15 14 13 13 12 12 12 11 11 10 11 14
15 16 15 11 4 10 16 14 13 13 13 12 12 11 9 9
9 8 5 2 8 6 8 9 11 12 12 12 13 14 14 14
14 14 14 14 15 14 15 15 16 17 17 17 18 18 18 19
19 20 20 20 20 20 21 21 21 21 21 21 21 22 23 22
23 23 22 23 22 23 23 23 24 23 23 22 22 23 24 24
25 25 24 24 23 23 22 22 22 21 21 21 21 20 21 20
20 20 20 19 19 19 18 18 17 17 17 16 16 16 16 16
15 15 15 15 14 14 14 14 13 13 12 12 12 11 12 16
16 17 16 11 5 9 17 15 14 13 13 12 11 11 10 10
10 10 7 4 9 8 10 11 12 12 13 13 14 14 14 14
14 14 15 15 16 16 16 17 17 17 18 18 18 18 18 19
19 20 21 20 21 21 22 21 21 22 22 21 21 21 22 22
22 22 23 24 23 23 23 22 22 23 23 23 23 23 24 24
25 24 24 23 23 24 23 23 23 22 22 21 22 21 21 20
21 20 20 19 18 19 18 18 17 17 17 16 16 16 16 16
15 15 15 15 14 14 14 14 14 13 13 12 13 13 14 16
16 17 17 11 6 8 17 16 15 14 14 14 12 11 11 11
11 9 8 4 8 8 11 12 13 13 14 13 14 14 15 15
15 15 16 16 16 16 16 17 17 18 18 18 18 19 19 19
20 20 21 20 21 21 21 21 21 22 22 22 22 22 23 23
22 23 23 22 22 23 23 24 23 23 24 24 24 23 24 24
25 24 24 24 24 23 23 22 22 22 21 22 22 21 20 21
21 20 20 19 19 19 19 18 17 17 17 17 16 16 16 16
15 15 15 15 15 15 14 14 13 13 13 13 13 13 13 17
17 17 17 13 8 8 17 16 15 14 13 13 13 13 12 11
11 11 9 6 10 9 12 13 13 13 13 14 14 15 15 15
16 16 17 16 17 17 17 17 18 18 18 18 19 19 19 19
20 20 21 21 21 21 21 22 22 22 21 22 22 22 22 21
21 22 23 23 23 23 23 23 23 23 23 24 23 23 24 24
24 24 24 24 24 23 23 23 23 22 22 21 22 22 21 21
20 20 19 19 19 18 18 18 18 17 17 17 17 17 17 17
16 16 15 15 15 14 14 14 14 13 14 13 13 14 14 18
17 17 17 12 8 8 17 17 15 15 15 14 14 14 14 11
11 10 9 6 10 9 12 14 14 14 15 15 15 16 16 16
16 16 17 17 17 17 17 17 18 18 18 19 19 19 20 20
21 21 22 21 21 21 21 22 22 22 21 20 21 22 22 23
24 24 23 23 23 24 23 23 23 23 23 23 24 24 24 24
25 25 24 24 25 24 23 23 23 22 22 22 22 21 21 21
21 20 20 20 20 19 19 18 18 18 18 18 17 17 17 17
17 16 16 16 16 15 15 14 14 14 14 13 14 14 15 18
18 18 19 13 10 8 18 17 15 15 15 14 14 13 13 12
12 12 11 9 13 12 14 15 15 15 15 15 15 16 16 16
16 17 18 17 17 18 18 18 19 19 19 19 19 20 20 20
20 20 22 21 21 21 21 21 21 21 23 22 23 22 23 23
23 23 23 23 23 24 24 24 24 24 24 24 24 24 25 24
24 24 24 24 23 23 23 23 23 23 23 22 22 21 21 21
20 20 19 19 19 19 18 19 19 18 18 17 18 17 17 17
16 16 15 15 15 15 15 14 15 14 14 13 14 14 16 19
19 19 18 13 10 8 16 17 14 14 15 15 14 13 13 13
12 12 12 10 12 12 14 15 15 15 16 16 16 16 17 17
17 17 17 18 18 18 18 18 19 19 19 19 20 19 20 20
21 20 21 20 20 20 20 21 22 22 23 24 23 23 23 23
24 23 23 24 23 23 24 23 24 23 23 23 23 24 24 24
24 24 25 25 24 23 23 23 22 22 23 21 22 21 21 21
21 21 20 20 19 19 19 19 19 18 18 17 17 17 17 17
17 16 16 15 16 15 15 14 15 14 15 14 14 15 16 18
19 19 19 14 11 4 12 17 15 15 15 14 14 14 15 13
14 13 12 10 13 13 15 15 16 16 15 16 16 16 16 16
17 17 18 18 18 18 19 19 19 19 19 19 20 20 20 20
19 19 19 20 21 22 22 22 23 23 23 24 23 23 23 23
23 23 23 23 23 23 24 23 24 24 24 23 24 24 24 24
25 24 24 24 24 23 23 22 22 23 22 22 22 22 21 21
20 20 20 19 19 19 19 19 19 19 18 19 18 17 17 17
17 16 16 16 16 16 15 15 15 14 14 14 15 16 16 19
19 19 19 14 8 2 13 18 16 15 15 15 16 15 15 14
14 14 13 10 14 13 16 16 16 16 16 17 17 17 18 17
17 18 18 19 19 19 19 19 19 19 20 20 20 19 20 20
21 21 22 21 22 22 23 22 23 22 23 24 24 23 23 23
24 24 24 23 23 23 24 23 23 24 24 23 24 24 24 24
25 25 25 25 25 24 24 23 23 23 23 22 22 21 21 21
21 21 21 21 20 20 19 19 19 19 19 18 19 18 17 17
17 17 17 16 16 16 16 15 15 15 15 15 15 15 16 19
20 20 20 14 11 9 14 18 17 17 17 17 17 15 16 14
14 14 14 11 15 14 16 17 17 17 17 17 18 17 18 18
18 19 19 19 19 19 19 19 20 20 20 20 20 21 21 21
21 22 22 22 22 23 23 23 24 24 24 25 24 23 24 24
23 23 24 23 23 23 24 24 24 24 24 24 24 25 24 24
25 25 24 24 24 24 23 23 23 23 22 22 22 22 23 22
22 21 21 21 20 20 20 19 20 19 19 19 19 18 18 18
17 17 17 17 17 16 16 15 16 16 16 16 16 16 17 20
21 21 20 15 11 11 14 19 17 17 17 17 17 16 17 15
15 15 14 11 16 15 17 17 17 17 18 18 18 18 18 19
19 19 20 20 19 19 19 20 20 20 21 20 21 21 21 21
22 22 22 23 23 23 23 24 23 23 23 24 23 23 23 24
24 25 25 24 24 24 24 24 23 24 24 25 24 25 24 25
25 24 24 24 24 24 23 23 23 23 23 23 22 21 22 22
22 22 21 21 21 21 20 20 20 19 19 18 18 18 18 18
18 17 17 17 17 17 17 17 16 16 16 15 16 17 17 20
20 20 20 15 11 13 13 20 18 18 18 18 18 16 17 15
15 14 15 12 16 15 18 18 17 18 18 18 19 19 19 18
18 19 19 19 19 19 20 20 21 21 22 22 21 21 22 22
22 22 23 23 23 23 23 23 23 23 23 24 24 23 24 24
24 24 24 24 24 24 24 24 25 25 25 25 25 24 24 25
25 25 25 24 23 23 23 23 24 23 23 23 23 23 22 22
22 22 21 21 21 21 20 20 20 19 20 19 18 19 18 19
18 18 18 18 17 17 16 17 16 16 16 16 16 17 18 21
21 21 21 16 12 14 12 19 19 18 18 18 17 17 17 16
16 16 16 13 16 16 18 18 18 18 19 18 19 19 19 19
19 18 19 19 20 21 20 20 21 21 21 21 22 21 22 22
23 23 22 23 24 23 24 23 24 24 24 24 24 24 24 24
24 24 25 24 24 24 24 25 24 25 24 24 24 24 24 25
24 24 25 24 24 24 24 24 24 23 24 23 23 23 23 23
22 22 22 21 21 21 21 20 20 20 20 19 19 18 19 18
18 18 18 18 18 17 17 17 17 17 16 16 16 17 18 21
21 21 21 17 13 16 13 20 19 19 19 18 18 17 18 17
16 15 15 13 16 16 19 19 19 19 19 19 19 19 19 20
20 20 20 20 20 20 21 21 22 21 22 22 22 22 22 23
23 23 23 23 23 24 24 23 24 25 24 25 24 24 24 24
25 25 25 25 25 24 24 24 25 25 25 24 25 24 24 24
25 24 24 24 24 24 23 24 24 23 23 23 23 23 22 23
23 23 22 22 21 21 21 20 20 20 20 20 20 20 20 19
18 19 18 18 17 17 17 17 17 16 17 17 17 18 19 21
22 23 22 17 13 16 13 20 20 19 19 19 18 17 18 16
17 16 16 14 17 16 18 19 18 19 19 19 19 19 20 21
20 20 20 20 21 21 21 21 21 22 22 23 22 23 23 23
23 23 23 23 23 24 24 24 24 24 25 24 24 24 25 25
25 25 24 24 24 24 25 25 24 24 25 24 24 24 24 24
24 24 24 24 24 24 24 24 24 24 25 23 23 22 23 22
22 22 22 22 22 22 21 21 21 20 21 20 20 20 20 19
19 19 19 19 18 18 18 17 17 17 17 17 18 18 19 22
22 22 22 18 13 18 14 19 20 20 20 19 19 18 20 18
17 17 17 14 17 15 19 19 19 19 21 20 20 20 20 20
21 20 21 21 21 21 21 22 22 23 23 23 23 23 23 23
24 23 24 24 24 24 24 24 25 25 24 25 25 25 24 24
24 24 25 25 25 24 25 24 25 25 25 25 25 24 25 25
25 25 24 25 24 24 24 24 24 24 24 24 23 23 23 23
22 22 22 22 22 22 21 21 21 21 21 20 21 20 20 20
20 19 19 19 19 18 17 18 18 17 17 17 18 19 20 22
23 23 23 18 14 18 15 19 20 20 20 20 19 19 20 19
18 18 17 15 18 18 20 20 20 20 20 20 21 20 20 21
21 21 21 22 21 22 22 23 22 23 23 23 24 23 24 24
24 24 24 25 25 25 25 25 25 24 23 23 24 25 25 25
25 25 25 25 26 24 24 25 24 25 25 24 24 25 25 25
25 25 25 25 25 25 25 25 25 24 25 24 24 23 23 23
23 23 22 22 22 22 22 22 22 21 22 21 21 21 20 20
20 20 19 19 19 19 18 19 18 18 18 19 18 20 20 22
24 23 23 18 14 19 16 20 21 21 21 20 19 19 20 19
18 18 18 15 18 19 21 20 20 21 21 22 22 21 21 21
21 21 21 22 22 22 23 23 24 23 24 24 24 24 24 25
24 25 24 25 25 24 24 25 25 25 26 26 26 26 26 26
25 25 25 26 27 25 25 25 25 25 25 25 25 25 26 25
25 25 25 25 25 25 24 25 24 24 24 24 24 24 24 24
24 24 23 23 23 22 22 22 22 22 21 21 21 21 20 20
20 21 20 20 20 19 19 18 19 19 19 19 19 20 20 23
24 24 24 20 15 19 17 19 21 21 20 20 20 20 20 19
19 19 18 16 19 19 20 21 21 21 21 22 21 21 22 22
22 21 22 22 23 23 24 23 24 23 24 24 24 24 24 24
24 24 25 25 24 25 26 26 26 26 26 26 26 25 25 25
25 25 26 25 26 25 24 25 25 25 25 25 25 25 25 25
25 25 25 24 25 25 24 24 24 24 24 24 23 24 23 23
23 23 23 23 23 23 23 23 22 22 22 21 22 21 21 20
20 20 20 19 19 19 19 19 19 19 19 19 19 19 19 20
20 18 17 14 11 14 14 18 21 21 21 21 21 21 20 20
19 19 18 17 18 19 21 21 21 21 21 22 22 22 22 22
22 22 23 22 23 23 23 24 24 24 24 25 24 24 24 24
24 24 24 25 26 26 26 26 26 26 26 26 26 26 26 25
25 25 25 26 26 25 25 25 25 25 25 25 25 25 25 25
26 25 25 25 25 25 24 24 24 24 24 24 24 24 24 23
24 24 23 23 23 23 22 22 22 21 21 21 21 21 21 21
21 21 20 20 20 20 19 17 17 17 20 20 18 16 13 11
10 5 0 0 0 0 0 3 10 17 20 20 21 20 19 19
19 20 19 16 18 19 21 21 22 21 22 21 22 22 23 22
22 23 24 23 23 24 24 24 24 24 24 23 24 24 24 24
25 25 26 26 26 27 26 27 27 26 26 26 25 25 25 25
26 25 25 25 26 25 24 25 25 25 25 26 25 25 25 25
25 25 25 25 25 25 25 25 25 25 25 25 24 24 24 24
23 23 23 23 23 23 22 23 22 22 22 22 22 22 21 21
21 20 21 21 20 17 8 12 18 18 19 21 22 21 19 19
16 3 0 0 0 0 0 0 0 1 4 15 19 19 19 20
19 19 19 17 18 19 21 22 22 22 22 23 22 23 23 23
23 23 23 23 23 23 24 24 24 24 24 24 24 25 25 25
25 25 25 26 26 26 26 26 26 26 26 26 26 26 26 26
26 26 25 25 26 26 25 25 25 25 25 25 25 25 26 25
25 25 25 24 25 25 25 25 24 24 25 24 25 25 25 24
25 25 24 24 24 23 22 23 22 22 21 21 22 21 21 21
21 21 21 20 14 6 6 5 1 2 8 14 18 20 20 20
19 11 0 0 0 0 0 1 0 0 0 0 6 15 16 18
19 18 19 17 18 19 21 22 22 22 22 23 23 23 23 23
23 23 23 23 24 24 24 24 24 24 24 24 24 25 25 25
25 25 26 27 26 26 26 26 27 26 26 26 26 25 25 25
26 25 25 25 26 26 25 25 26 26 25 25 25 25 25 25
25 25 24 25 24 25 24 25 24 24 24 25 24 24 24 24
24 24 24 23 23 23 23 22 23 23 23 23 21 22 22 21
21 21 17 5 1 0 0 1 5 10 10 6 11 20 24 20
22 21 7 0 1 1 0 0 0 0 0 0 0 0 5 13
16 19 19 17 18 19 21 22 22 22 22 22 22 22 22 22
22 23 23 24 23 24 24 24 24 24 24 24 25 25 25 25
26 26 26 27 25 25 25 25 26 26 25 25 25 26 26 25
26 25 25 25 26 26 25 25 26 25 25 25 25 25 25 24
25 25 25 25 25 25 25 25 25 25 25 24 25 25 25 25
25 24 24 24 23 23 23 23 23 22 22 22 22 22 22 22
22 19 4 0 4 7 12 14 20 21 22 15 19 20 25 27
24 26 23 10 2 1 0 0 0 0 0 0 0 0 0 1
6 14 19 17 19 20 22 22 22 22 23 22 22 22 23 23
23 23 23 24 24 24 25 25 24 25 25 25 26 26 26 25
26 26 27 27 26 26 26 26 26 26 26 25 26 25 25 25
25 25 25 26 26 26 26 26 26 25 25 24 24 24 25 24
25 25 25 25 25 25 25 25 25 25 25 25 25 24 24 24
24 24 24 23 23 23 23 23 23 22 23 23 22 22 22 23
21 11 4 16 23 25 21 14 13 18 32 45 56 62 57 50
43 39 35 26 13 3 0 1 0 0 0 0 0 0 0 0
0 2 6 16 19 19 21 22 22 22 22 23 22 23 24 24
24 23 24 24 24 24 24 24 25 25 24 25 25 26 26 26
26 26 26 27 27 26 26 26 26 26 26 26 26 26 26 26
26 26 26 26 25 24 23 23 24 24 24 24 25 25 26 24
26 25 25 25 25 25 25 25 25 25 25 25 25 24 24 24
24 24 24 24 24 24 23 23 23 22 22 23 23 22 22 22
16 6 18 28 27 19 11 14 29 51 69 75 84 86 84 78
74 72 63 51 36 16 4 0 0 0 0 0 0 0 0 0
0 0 0 4 15 17 21 22 23 23 23 22 23 23 23 23
23 24 24 25 24 24 25 25 25 25 26 25 26 26 26 25
26 26 26 26 26 26 26 26 26 26 26 26 26 26 26 25
25 25 25 24 24 25 25 24 25 25 25 23 25 25 26 24
20 22 25 25 25 25 25 25 25 25 25 24 25 25 25 24
24 24 24 24 24 24 23 23 24 23 23 23 23 23 23 14
2 11 26 27 18 8 19 40 67 82 87 87 90 90 90 88
86 82 74 70 57 28 5 0 0 0 0 0 0 0 0 0
0 0 0 0 1 6 18 23 22 23 23 23 23 23 24 24
24 24 24 25 25 25 25 25 25 25 25 25 25 26 26 26
26 26 26 27 26 26 26 26 26 26 26 25 25 25 24 24
25 25 25 25 26 25 25 24 25 25 25 25 25 25 25 24
5 13 25 25 25 25 25 25 25 25 25 25 25 24 25 25
24 24 24 24 24 24 24 24 23 24 23 23 23 22 11 0
1 12 23 16 19 35 56 73 85 90 93 93 93 94 96 94
90 83 77 82 66 39 8 0 0 0 0 0 0 0 0 0
0 0 0 0 0 1 4 21 23 23 23 23 24 23 23 24
24 24 24 25 25 25 25 25 25 25 25 26 26 26 26 26
26 26 26 27 26 26 26 26 27 26 26 26 26 25 25 25
26 25 25 25 25 25 25 24 25 24 25 25 24 24 25 24
5 11 25 26 26 25 25 25 25 25 25 25 25 26 25 25
25 25 25 24 24 24 25 23 24 24 24 23 24 15 0 0
6 14 13 29 55 68 81 90 93 93 95 95 97 97 100 97
95 88 83 86 76 46 11 0 0 0 0 1 0 0 0 0
0 0 0 0 0 0 0 8 22 21 23 24 24 24 24 24
25 25 25 25 26 25 25 25 25 25 25 26 26 26 27 26
26 26 26 26 26 26 26 25 26 26 26 26 26 26 25 26
26 26 26 25 26 25 25 25 25 25 25 25 24 24 25 25
5 11 24 26 26 26 25 25 24 25 25 27 25 26 25 25
25 25 25 25 25 25 24 24 24 24 24 23 25 7 0 3
8 7 30 63 72 81 91 91 94 97 101 101 102 102 99 100
101 96 91 93 86 48 12 0 0 1 1 1 3 0 0 0
0 0 0 0 0 0 0 0 12 20 23 23 24 24 24 24
24 25 26 26 26 26 26 26 26 26 26 26 26 26 26 25
26 25 25 26 25 25 26 26 26 25 26 26 26 26 25 25
25 25 25 25 26 25 24 25 24 25 25 25 25 24 25 25
7 12 25 25 26 26 25 25 26 33 32 31 30 28 27 26
25 25 25 25 25 25 24 24 25 24 24 24 29 5 0 1
3 27 61 75 81 89 93 98 100 103 105 105 104 102 103 103
104 100 95 95 88 47 17 1 0 2 4 0 0 0 0 0
0 0 1 0 0 0 0 0 3 16 21 23 24 24 25 26
25 26 25 26 26 25 25 25 25 25 26 26 26 26 26 26
26 27 26 26 27 26 26 26 26 26 25 25 25 26 25 25
26 25 25 26 25 26 25 24 24 25 25 25 25 25 24 25
7 14 26 26 26 26 26 25 28 36 35 34 33 30 30 29
29 26 26 26 25 25 25 24 24 24 24 25 29 1 0 0
18 54 75 79 87 93 101 104 104 104 105 107 105 103 102 104
106 103 98 96 79 51 16 3 3 2 5 0 0 2 0 0
0 0 3 1 0 0 0 0 0 4 18 23 23 25 25 25
25 25 25 25 25 25 25 24 25 26 26 26 26 26 26 26
26 27 27 27 26 25 26 26 26 26 26 26 26 26 26 26
26 26 25 25 25 25 25 25 26 25 25 26 25 24 24 25
7 16 28 28 27 27 27 26 28 36 36 35 32 32 33 34
35 31 31 29 28 26 24 24 24 24 25 25 20 0 0 7
47 70 83 82 89 97 104 105 106 107 106 105 103 103 103 106
106 106 103 94 79 44 11 7 7 3 7 6 1 4 3 0
1 2 4 3 0 0 0 0 0 0 7 18 24 24 25 25
25 25 25 25 26 25 26 25 26 25 26 26 27 27 27 26
27 27 27 26 26 26 26 26 26 25 26 26 27 26 25 26
26 26 26 25 26 25 26 25 25 24 25 25 25 25 24 25
8 16 30 30 28 29 29 28 29 30 26 31 32 33 35 36
36 31 27 29 32 31 29 28 28 27 26 25 16 0 1 35
61 80 84 84 93 101 105 106 105 107 106 103 105 104 106 104
104 105 103 97 72 32 8 4 8 10 13 9 3 4 12 1
4 5 3 4 0 0 3 0 0 0 0 12 20 23 25 25
25 25 25 25 26 25 26 26 26 26 27 27 27 26 27 27
27 27 27 26 26 26 26 25 26 26 26 26 26 27 26 26
26 26 25 25 25 26 26 25 25 25 25 25 25 25 25 25
7 16 31 29 24 25 29 32 34 19 0 4 16 25 28 31
34 28 5 5 11 16 23 24 28 31 29 27 19 0 19 51
72 85 84 88 98 102 106 107 105 108 107 105 105 105 105 105
106 102 101 95 63 23 8 9 4 8 17 13 6 2 15 6
7 8 11 8 2 0 8 5 0 0 0 3 16 19 24 25
25 25 25 25 26 26 25 25 26 25 27 26 27 26 27 26
26 26 27 26 26 26 26 26 26 25 25 25 25 26 26 25
25 25 25 25 25 25 25 25 25 25 25 25 25 25 25 24
8 14 28 30 29 26 27 33 37 19 0 0 1 8 10 11
18 27 1 0 0 0 1 3 8 14 19 26 22 3 41 61
78 85 84 94 99 103 105 106 106 107 107 106 108 108 108 106
103 98 98 82 54 21 12 9 9 5 10 17 10 3 9 11
10 11 13 13 7 2 11 20 0 0 0 0 7 19 22 26
25 25 25 25 25 25 25 26 26 26 26 27 27 27 27 26
26 26 27 26 26 26 26 26 26 26 26 26 26 26 26 25
25 25 25 25 25 25 25 25 25 25 25 25 25 25 25 23
7 6 6 11 18 26 30 34 37 21 0 0 0 3 6 7
13 26 2 0 0 0 0 0 0 0 0 19 24 16 55 69
80 85 90 98 101 103 104 107 107 108 108 109 109 107 106 105
101 97 97 79 51 20 16 10 11 10 7 10 17 12 11 10
6 12 11 12 15 5 15 21 6 2 0 0 3 15 20 25
25 25 25 26 26 26 26 26 26 26 26 26 27 26 26 26
26 26 26 27 27 26 26 25 26 26 25 25 26 26 26 25
25 26 25 25 25 26 25 26 25 25 25 25 24 25 25 25
8 3 0 0 0 1 5 11 20 18 0 0 0 0 0 1
10 26 3 0 0 0 0 0 0 0 0 18 24 37 61 74
81 84 94 97 101 102 105 109 108 108 109 111 111 108 107 107
103 99 97 78 42 22 19 15 14 9 10 8 7 11 14 13
7 13 14 14 16 12 11 10 7 9 0 0 0 9 19 25
26 25 25 25 26 26 26 26 26 26 26 27 28 27 27 27
26 26 27 27 26 27 27 26 26 26 26 26 27 27 26 26
26 25 26 25 25 25 25 26 26 26 26 25 25 25 25 25
8 3 0 0 0 0 0 0 0 11 0 0 0 0 0 0
8 25 1 0 0 0 0 0 0 0 0 16 23 47 68 75
79 87 96 98 101 104 107 107 108 110 111 113 112 110 106 106
105 98 95 78 39 31 19 18 16 13 9 10 13 6 10 7
8 10 16 11 15 9 9 7 1 17 4 0 0 3 19 24
25 26 25 26 26 26 27 26 26 27 26 27 27 26 26 27
26 26 27 27 27 27 26 26 26 26 27 26 25 25 25 26
26 26 26 26 26 25 25 26 26 26 25 25 25 25 25 25
8 2 0 0 0 0 0 0 0 9 0 0 0 0 0 0
10 27 2 0 0 0 2 5 0 0 0 15 28 56 72 73
81 92 97 100 103 104 107 106 109 113 114 114 114 112 107 106
103 92 93 74 39 36 20 23 18 13 10 8 11 8 8 8
6 12 20 12 7 6 2 8 6 13 12 0 0 0 14 24
25 26 25 26 26 25 26 26 26 26 26 27 27 26 27 26
27 26 27 27 27 27 26 26 26 26 25 26 26 26 26 26
26 26 25 25 24 24 26 26 26 26 26 25 25 25 26 25
8 3 0 0 0 0 0 0 0 7 0 0 0 0 0 0
10 29 2 0 0 0 4 8 5 2 0 14 35 62 74 73
86 95 99 103 105 104 106 108 111 113 114 114 113 113 109 106
105 91 92 66 43 29 25 23 21 12 11 6 7 7 3 4
1 13 16 16 8 5 4 8 12 8 11 3 2 0 9 25
26 25 26 26 26 26 26 26 26 26 27 27 27 27 27 27
27 27 28 27 27 27 27 27 26 26 26 26 26 26 26 26
26 26 25 25 24 25 27 26 26 27 26 26 26 26 26 26
8 3 0 0 0 3 1 0 0 6 0 0 0 0 0 0
9 30 2 0 0 0 5 9 8 8 1 13 42 68 74 75
91 97 100 104 103 104 105 105 106 112 113 113 112 113 112 108
102 95 90 65 40 28 32 22 15 9 9 5 4 2 2 0
0 9 13 8 12 15 7 11 14 9 3 6 4 0 8 25
26 26 26 26 26 26 26 26 27 27 27 27 28 27 27 27
27 27 27 27 28 27 27 26 26 26 27 26 26 26 26 26
26 26 25 26 26 25 26 27 27 27 27 27 26 25 24 24
8 3 0 3 0 0 0 0 0 6 0 0 0 0 0 0
10 32 4 0 0 0 4 8 8 8 1 12 48 69 70 80
94 96 97 86 59 36 18 7 14 33 55 78 98 113 114 112
112 99 89 77 37 28 33 21 9 11 6 5 1 5 2 1
1 2 13 8 5 13 13 17 16 9 5 9 8 0 5 26
27 26 27 27 28 27 27 28 27 27 27 28 28 28 28 28
27 28 28 28 29 28 28 28 28 27 27 27 27 27 27 27
26 27 26 26 27 26 27 27 26 26 25 27 26 24 22 21
9 4 1 1 0 0 0 0 0 8 0 0 0 0 0 2
16 34 6 0 0 0 0 2 6 8 1 12 54 70 71 79
81 64 27 2 0 0 0 8 32 12 4 6 4 13 35 59
83 102 97 88 44 29 34 24 7 7 7 8 5 5 4 3
4 3 6 11 7 8 13 9 16 11 11 21 12 3 6 26
28 28 27 28 28 28 28 28 28 28 28 28 28 29 29 30
29 29 29 29 29 29 28 28 28 28 28 28 28 27 27 27
27 27 26 26 25 27 28 25 24 23 21 19 18 14 13 11
10 4 0 0 0 0 0 0 0 18 12 7 4 3 0 0
12 39 27 20 17 13 7 3 1 4 0 13 58 71 67 57
29 1 0 0 0 0 0 3 4 4 7 6 6 5 6 7
6 4 11 26 26 16 29 25 13 3 2 9 8 2 6 6
17 13 4 9 13 7 10 8 21 18 16 21 15 3 8 27
28 28 29 29 30 30 30 29 30 30 30 30 29 30 30 30
30 30 30 30 31 30 29 29 29 28 27 29 27 26 26 26
27 27 25 25 23 22 20 17 15 12 11 9 10 10 11 11
9 4 0 0 0 0 0 0 0 29 39 31 28 28 24 17
22 42 25 20 22 24 24 22 20 19 17 25 58 70 62 24
0 0 0 0 0 0 0 13 7 14 31 45 46 41 32 23
16 13 9 5 5 3 1 2 4 1 0 11 11 1 5 11
20 22 5 4 11 10 9 6 18 20 17 20 16 9 9 28
29 30 29 29 30 30 30 29 29 30 30 30 30 30 30 30
30 30 30 30 30 29 29 27 27 26 26 26 26 26 24 22
20 17 16 14 12 12 12 11 12 12 14 14 15 15 16 17
10 4 0 0 0 0 0 0 0 30 41 33 37 39 41 41
38 39 17 9 11 12 12 13 14 17 20 22 50 70 62 5
0 0 0 0 0 0 0 15 32 59 75 76 102 108 108 109
102 93 78 59 42 18 4 1 1 0 0 1 5 2 10 21
21 22 8 6 6 12 5 4 12 17 13 8 9 9 10 27
29 28 28 28 30 29 29 29 29 29 30 30 30 29 29 29
29 28 29 29 29 28 27 28 29 23 20 18 16 15 13 12
12 13 14 14 14 15 16 16 17 18 18 18 17 14 18 21
10 12 14 10 6 1 0 0 0 29 35 32 39 41 44 43
36 29 17 10 10 10 9 9 7 2 0 2 21 63 42 0
0 0 0 0 0 0 0 13 49 76 109 103 97 102 109 114
115 115 114 109 105 85 37 16 8 4 1 0 0 0 8 26
23 20 16 15 11 8 10 2 4 12 12 0 4 9 14 27
28 28 27 27 29 29 29 28 29 29 29 29 29 29 29 29
28 26 24 23 21 19 17 18 29 19 11 13 14 15 15 16
16 17 18 19 19 20 21 21 22 22 21 21 22 19 15 21
11 19 34 36 34 29 24 19 16 32 27 31 38 39 42 43
38 31 20 11 11 10 9 6 0 0 0 0 1 35 14 0
0 0 0 0 0 0 0 13 35 64 111 115 111 107 110 111
114 115 115 113 109 98 54 22 13 11 9 2 0 0 0 11
48 57 41 20 17 12 7 2 0 9 8 2 1 7 15 27
27 28 28 27 28 29 29 28 29 28 29 27 26 24 22 19
17 16 15 15 15 16 15 15 24 18 14 17 19 20 20 20
21 21 21 21 22 22 22 23 23 24 24 23 23 24 21 15
11 19 36 39 38 37 37 38 38 37 16 17 25 30 34 37
35 32 23 12 10 8 5 3 0 0 0 0 0 0 4 4
0 0 0 0 0 0 0 13 29 42 86 113 115 113 116 116
115 115 115 114 112 96 51 20 9 7 6 0 0 1 1 50
105 109 99 46 15 17 7 5 3 13 11 4 1 9 17 23
26 27 28 28 28 27 26 24 23 21 19 17 17 15 16 16
17 18 18 19 19 20 20 19 24 19 17 21 22 23 23 24
24 24 24 25 24 24 24 24 24 24 25 23 24 25 25 22
9 17 34 39 39 39 39 40 40 35 5 0 1 3 7 13
16 26 24 11 9 5 0 0 0 0 0 0 0 0 2 3
0 0 0 0 0 0 0 11 26 32 69 105 115 116 116 116
116 115 114 113 109 83 47 15 12 14 6 3 2 3 15 63
73 80 84 100 26 9 14 8 7 17 10 4 2 3 13 16
21 24 23 21 20 18 17 17 17 17 17 18 19 19 20 21
21 22 23 23 23 24 24 22 25 21 19 24 25 25 24 25
26 25 26 25 26 26 26 26 25 24 24 25 24 25 25 26
15 17 28 30 31 32 34 36 39 32 3 0 0 0 0 1
9 26 25 10 8 5 0 0 0 0 0 0 0 3 12 0
0 0 0 0 0 0 0 7 35 59 86 105 112 116 116 116
116 115 113 110 103 71 42 9 21 22 13 9 14 27 57 68
107 116 107 91 77 2 16 18 5 13 11 4 4 0 8 14
15 17 17 17 19 19 19 19 21 21 22 23 23 23 24 25
25 26 25 26 27 26 25 20 10 8 17 25 26 26 26 26
25 26 27 27 27 27 27 26 27 26 24 24 24 25 26 26
14 16 18 20 22 26 25 27 35 30 2 0 0 0 0 0
1 25 25 9 7 3 0 0 0 0 0 0 0 51 52 0
0 0 0 0 0 0 0 4 40 62 94 107 110 113 115 114
114 114 112 111 91 54 24 10 18 22 34 52 81 91 92 75
107 114 114 96 92 12 9 16 3 11 10 9 3 0 7 17
18 19 20 21 22 23 24 24 25 25 26 26 26 26 26 27
27 27 27 27 27 26 26 17 1 0 13 25 27 28 27 27
26 27 27 26 27 26 26 26 26 26 25 24 25 23 25 25
13 15 14 15 18 24 23 25 34 29 1 0 0 0 0 0
0 24 22 4 1 0 0 0 6 0 0 0 24 97 84 1
3 0 0 0 0 0 0 1 38 62 98 106 108 111 114 114
115 113 113 111 88 47 24 19 27 28 45 87 106 110 106 103
104 111 113 108 89 33 3 11 2 10 9 11 4 0 9 23
22 23 25 24 26 26 27 26 26 27 27 27 27 27 28 28
28 29 27 23 18 13 22 15 4 1 11 25 27 27 27 27
27 27 27 26 27 27 26 27 26 26 25 25 24 23 23 25
11 14 13 17 21 25 26 30 35 29 1 0 0 0 0 0
0 26 17 0 0 0 0 0 4 0 0 4 77 110 104 13
6 1 0 0 0 0 0 1 42 67 101 108 110 112 112 115
115 115 114 112 96 56 40 46 41 45 59 93 105 113 108 107
100 106 111 112 95 47 0 5 1 12 12 4 3 0 15 26
26 26 27 27 27 27 28 28 28 28 29 28 29 29 29 28
29 29 19 1 0 2 17 14 0 0 10 25 27 28 28 26
27 27 27 27 26 27 27 26 26 26 25 26 25 23 21 22
14 12 0 1 3 7 10 15 21 23 1 0 0 0 0 0
0 27 17 0 0 0 0 0 1 0 0 44 100 108 107 43
6 15 2 0 0 0 0 6 49 83 103 111 114 114 114 115
115 115 115 115 110 93 61 69 50 55 70 91 106 110 82 61
102 114 111 110 100 55 0 5 2 13 6 2 2 0 20 27
28 27 27 28 28 29 29 29 28 28 29 29 29 30 29 29
29 29 24 15 18 22 25 17 0 0 9 24 27 27 27 27
27 27 27 26 26 27 26 27 26 26 25 25 25 24 22 20
18 13 0 0 0 0 0 0 0 12 1 0 0 0 0 0
0 27 15 0 0 0 0 1 3 0 23 84 98 102 106 83
4 18 15 0 0 0 0 25 69 100 107 112 114 116 115 115
115 116 115 115 114 110 97 82 57 71 80 90 113 112 95 61
81 101 112 104 101 53 0 1 5 7 0 1 1 4 22 27
28 28 28 28 28 29 29 29 29 29 29 29 30 29 30 29
29 29 28 28 28 27 26 20 1 0 10 24 27 26 27 27
27 26 26 26 26 25 26 25 25 25 24 25 25 24 24 20
17 13 0 0 0 0 0 0 0 9 1 0 0 3 1 0
0 25 13 0 0 0 0 1 4 16 74 90 97 101 103 103
45 6 15 2 0 0 19 64 93 100 107 113 115 115 116 115
115 115 115 115 114 112 106 90 62 81 102 107 114 105 98 98
77 84 113 102 104 38 0 1 3 1 0 0 0 7 27 28
28 29 28 29 29 29 29 29 29 29 29 29 30 29 29 30
30 29 28 29 28 26 26 22 5 0 14 25 27 27 27 27
26 26 26 25 25 25 25 25 25 24 24 24 24 23 23 21
16 13 0 0 0 0 0 0 0 9 1 0 1 12 7 0
0 26 12 0 0 0 0 0 2 61 98 101 100 96 95 93
92 42 11 6 14 45 77 93 101 109 113 115 116 116 116 115
115 115 115 114 112 108 100 93 87 97 110 114 114 94 85 114
87 78 109 102 99 17 4 0 2 1 0 0 0 10 29 29
28 29 28 29 29 29 29 29 29 29 29 29 29 29 29 29
29 29 28 28 28 26 25 22 12 5 19 25 27 27 28 27
26 26 25 25 25 24 24 24 24 23 23 23 24 23 22 21
15 12 0 0 1 9 3 0 0 8 2 0 6 12 9 2
0 25 11 0 0 0 0 0 15 81 108 113 102 98 97 93
88 87 68 66 77 92 99 104 108 114 114 115 116 116 115 115
115 115 114 113 111 104 98 92 91 103 114 115 115 97 97 107
88 83 111 110 67 6 4 0 1 7 0 0 1 12 29 28
29 29 29 29 29 29 30 29 29 29 29 29 29 29 29 29
29 28 28 28 28 26 25 22 20 19 23 26 27 27 27 26
26 25 25 24 25 24 24 24 24 23 23 22 22 22 22 20
14 12 0 0 5 14 5 1 0 11 17 11 19 19 17 13
6 28 10 0 0 0 0 0 23 90 103 104 106 109 111 108
96 96 76 80 92 102 108 112 115 116 116 116 116 116 116 115
115 114 114 112 108 102 96 93 90 106 115 115 102 101 111 103
81 101 114 103 28 1 0 0 0 3 1 1 0 23 29 28
29 29 28 29 28 29 29 29 29 28 29 29 29 29 29 29
29 29 29 28 28 27 26 22 22 23 25 26 26 27 27 26
25 25 25 24 24 23 24 23 23 22 22 22 22 21 21 19
14 13 0 0 1 5 1 0 0 13 32 31 35 35 34 35
35 39 13 0 0 0 0 0 13 78 96 86 62 82 104 109
98 93 80 73 92 104 111 116 116 116 116 116 116 115 115 115
115 115 115 110 107 101 96 92 93 108 115 112 89 99 110 97
99 114 109 73 17 0 0 0 6 3 0 4 3 28 28 28
29 29 29 29 29 29 29 29 29 29 29 28 29 29 29 29
29 30 29 28 28 28 26 25 25 25 27 27 26 26 26 26
26 26 25 24 24 23 23 22 22 22 22 21 21 21 21 19
14 13 3 0 0 0 0 0 0 12 34 34 37 36 36 40
44 44 25 13 15 10 5 4 7 44 83 71 67 49 58 83
86 89 88 68 88 104 112 117 116 117 117 116 117 116 116 116
115 115 114 109 105 99 93 91 96 108 115 107 90 92 102 111
113 112 94 30 6 0 0 0 5 8 0 7 9 29 28 29
29 29 29 28 29 28 28 28 28 28 29 29 29 28 29 29
29 30 29 28 28 27 27 26 26 27 27 27 27 26 26 26
25 25 25 23 23 23 23 22 22 21 21 21 20 18 19 18
15 16 13 2 0 0 0 0 0 11 32 32 35 34 35 41
44 43 34 28 29 27 25 24 24 26 43 67 92 90 85 85
88 99 95 75 79 101 109 116 116 116 116 116 116 116 116 115
115 114 110 107 104 99 96 93 98 110 115 113 110 109 115 114
114 109 65 17 5 0 0 0 0 5 1 3 18 29 29 28
28 29 29 28 29 29 29 29 29 29 29 29 29 29 29 29
29 29 28 28 28 27 26 26 26 26 26 25 25 24 25 25
24 24 24 23 22 22 22 21 22 21 21 20 20 19 19 18
16 16 9 0 0 0 0 0 0 12 31 28 31 31 32 33
31 30 30 30 30 31 30 29 31 31 32 40 65 83 86 93
95 98 101 91 74 94 108 116 117 116 116 116 117 116 116 116
115 112 110 108 105 99 96 96 99 107 114 115 114 115 115 115
112 90 60 19 11 2 0 2 0 0 7 6 25 29 28 29
28 29 29 29 29 29 29 29 29 29 29 29 29 30 29 29
29 29 28 29 28 28 27 26 26 27 26 26 26 26 26 25
24 23 23 23 22 21 21 20 21 20 19 19 18 19 19 18
18 17 8 0 0 0 0 0 0 12 34 28 29 29 30 29
28 27 30 31 32 34 33 32 32 31 32 45 57 78 88 90
93 97 98 97 85 90 106 115 116 116 116 116 116 115 115 116
115 113 112 109 103 100 97 96 99 104 112 115 114 114 115 114
99 78 55 31 17 2 1 1 0 2 9 13 28 29 29 28
29 28 29 29 29 28 28 29 29 28 29 29 29 29 29 29
29 29 28 29 29 28 27 27 28 27 26 27 27 27 25 24
24 23 23 22 22 21 21 20 19 18 18 17 17 17 18 16
16 16 22 21 19 15 13 12 10 20 36 30 30 30 30 31
31 33 34 32 32 35 38 38 33 30 32 48 56 73 89 95
97 102 97 93 96 93 101 111 115 117 116 116 116 117 116 116
116 115 113 105 103 100 99 98 98 100 108 115 114 114 114 106
84 79 51 8 9 4 2 1 0 6 8 20 28 27 28 28
29 29 28 29 29 29 29 29 28 28 29 29 29 29 29 29
29 29 28 28 28 28 28 27 27 27 27 26 26 26 25 25
24 23 22 22 21 20 20 19 17 18 17 17 17 16 16 16
16 17 32 38 39 37 37 39 39 39 39 33 31 32 31 32
34 36 39 34 34 36 39 38 34 31 29 54 58 86 98 103
106 110 101 92 99 100 102 110 115 116 115 116 116 116 116 115
114 114 111 106 104 99 98 97 99 97 104 99 111 110 99 83
82 81 59 13 4 6 8 0 2 8 9 26 28 27 28 28
29 29 29 29 30 30 28 29 29 29 29 29 29 29 29 29
28 28 27 28 27 28 28 27 27 27 26 27 26 25 25 24
23 22 22 21 20 19 18 18 17 17 16 17 17 16 16 15
18 17 33 43 42 42 42 43 43 43 41 29 27 25 25 26
30 35 40 36 35 33 32 33 34 32 32 60 66 77 91 106
114 115 107 99 99 100 104 110 114 116 115 116 116 116 115 116
115 111 110 106 105 99 98 95 91 92 97 82 68 74 83 83
83 83 64 33 10 3 2 0 8 5 16 28 28 28 29 29
29 29 29 30 29 29 29 28 29 29 29 29 28 28 28 28
28 28 28 28 27 28 27 27 27 26 26 26 26 24 24 23
23 22 21 20 19 19 17 17 17 16 16 16 16 15 16 15
19 16 24 31 32 33 34 36 37 38 37 11 6 5 3 4
7 14 33 36 32 19 12 16 19 19 25 44 57 64 67 68
79 98 97 90 99 105 107 112 113 116 116 115 116 116 116 116
114 113 112 110 104 100 98 94 90 88 94 99 99 101 97 91
94 95 69 20 12 7 3 3 6 4 25 29 29 29 29 30
30 29 29 29 30 30 28 28 28 28 28 28 28 28 28 27
27 26 25 24 22 23 25 27 28 26 27 26 25 25 24 23
22 21 21 19 18 18 17 17 17 16 16 16 15 15 16 16
19 16 21 24 24 23 24 24 24 25 26 6 0 0 0 0
0 1 27 36 25 3 0 0 2 6 15 34 43 53 59 66
66 65 60 61 90 104 108 111 115 113 116 114 116 116 116 116
116 113 110 110 103 100 96 90 87 86 89 99 102 103 100 97
103 100 71 22 10 5 6 3 2 6 28 28 28 29 29 29
30 30 30 30 29 28 27 26 25 25 26 27 28 29 28 24
14 11 9 9 7 7 18 28 28 27 26 26 26 25 23 23
22 21 20 19 18 17 17 17 17 16 16 16 15 15 15 15
17 16 24 29 29 29 28 27 27 27 27 9 1 0 0 0
0 7 29 35 13 0 0 0 0 0 14 32 45 65 88 94
91 87 84 86 87 100 108 111 115 114 117 115 116 116 116 115
115 114 111 108 105 99 96 89 85 84 84 95 101 100 101 101
104 98 74 28 13 2 7 1 7 16 29 28 29 29 29 29
28 23 20 18 15 14 11 9 8 8 11 23 29 28 29 23
6 3 3 3 3 3 16 27 27 27 26 26 25 25 23 22
21 20 19 18 17 17 16 15 16 15 15 16 14 14 15 15
17 16 26 31 31 31 31 31 31 31 29 9 1 0 0 0
0 8 28 32 6 0 0 0 0 0 11 42 60 76 92 93
97 103 110 108 101 97 107 111 111 111 113 114 114 115 116 116
114 113 111 108 106 101 95 90 83 77 78 93 100 104 107 108
103 97 75 36 4 0 0 1 10 26 28 28 28 29 29 29
25 9 4 5 6 6 3 0 0 1 1 18 28 28 28 22
6 3 4 4 3 4 16 28 28 27 26 26 25 24 22 22
21 20 19 18 18 17 16 16 16 15 15 15 14 15 14 13
19 18 27 31 32 32 31 31 33 34 31 8 0 0 0 0
2 1 23 29 3 0 0 0 0 0 11 43 59 78 97 110
116 117 116 111 106 97 102 108 112 110 113 114 116 115 114 113
113 114 111 108 105 100 95 86 76 69 76 89 99 107 110 108
101 94 77 45 3 0 0 3 20 29 29 29 29 29 29 29
23 5 1 4 4 4 2 0 0 0 1 16 28 28 28 21
5 3 4 3 3 3 13 26 27 27 27 26 25 25 23 21
21 20 19 17 17 16 15 14 15 15 15 14 15 14 14 13
24 24 26 28 28 28 21 12 16 27 34 11 0 0 0 0
4 1 20 28 2 0 0 0 0 0 11 40 49 59 90 107
113 115 115 112 105 95 97 108 112 115 115 114 115 113 112 114
113 114 112 108 104 98 92 82 72 65 79 93 100 109 112 108
101 92 77 55 12 0 0 8 28 28 28 29 29 29 29 29
24 7 1 4 5 5 2 0 1 0 0 15 28 28 29 22
5 3 3 4 3 3 11 27 28 27 26 26 24 24 22 21
20 20 18 18 17 16 16 16 16 14 14 14 14 14 14 13
23 23 25 24 25 25 16 0 1 18 37 19 3 0 0 0
2 0 16 27 1 0 0 0 0 0 9 35 44 50 72 99
107 111 113 110 103 95 94 103 107 112 115 113 115 115 114 114
112 112 109 103 101 96 88 81 64 64 84 97 103 111 113 108
100 90 73 56 17 0 2 22 28 28 29 28 28 29 29 29
24 7 1 3 5 5 3 0 1 0 1 16 28 28 29 24
8 4 5 4 6 5 9 24 25 26 25 24 24 23 22 21
20 19 19 18 17 16 16 15 15 14 13 13 14 14 14 14
22 23 23 24 25 25 18 0 0 14 36 17 1 0 0 0
3 1 16 28 1 0 0 0 0 0 5 32 41 51 73 95
106 108 113 109 103 96 93 98 100 106 112 109 112 113 113 111
110 106 104 101 97 90 84 73 56 70 89 99 107 112 112 107
98 88 73 57 17 2 13 27 29 28 28 28 28 28 29 28
24 7 0 2 5 5 3 0 0 0 1 15 28 28 27 25
12 10 9 10 9 9 13 21 23 23 26 25 24 23 22 21
19 18 18 17 17 16 15 15 14 14 14 13 13 12 13 12
12 14 15 19 22 24 19 0 0 11 34 10 0 0 0 0
0 0 16 28 1 0 0 0 0 0 4 31 37 54 82 101
105 109 111 110 102 96 97 98 99 104 109 110 109 109 110 109
107 99 97 95 87 85 78 61 59 81 98 103 106 109 110 104
98 86 72 60 30 6 12 26 28 28 27 28 28 28 28 27
24 8 0 1 2 2 1 0 1 0 1 13 27 28 28 25
10 5 5 3 0 0 1 2 2 4 24 25 24 23 22 22
20 18 17 17 16 15 15 14 14 13 13 13 13 13 13 13
0 0 0 8 20 23 20 1 0 8 30 8 0 0 0 0
0 0 14 30 3 0 0 0 0 0 3 30 36 66 94 106
108 109 111 107 104 102 101 100 100 102 100 106 105 102 105 100
97 92 92 87 83 73 60 58 73 90 100 102 108 110 111 104
96 85 72 61 39 21 20 25 28 28 27 28 28 29 28 28
25 9 1 1 1 0 0 1 1 0 0 12 27 28 28 24
9 3 4 1 0 0 2 16 9 0 22 25 23 23 21 20
19 18 17 17 16 15 15 14 14 13 14 13 13 12 12 12
0 0 0 8 24 23 20 2 0 5 28 11 2 1 1 2
10 7 15 33 15 7 8 10 9 9 13 32 40 72 96 103
106 106 104 105 100 98 95 92 99 97 99 98 98 97 99 93
89 87 82 74 68 59 55 69 84 97 103 106 111 113 111 103
96 83 73 62 47 26 50 47 29 27 27 28 28 29 29 28
25 9 1 0 0 0 1 1 1 1 0 12 27 28 28 25
10 3 3 1 0 0 0 4 1 0 21 24 23 22 21 20
19 18 16 16 16 15 15 14 14 14 13 13 13 13 13 12
0 0 0 6 23 22 20 3 0 2 27 27 25 22 21 26
33 31 31 33 37 36 33 34 35 36 36 40 47 74 92 98
101 104 103 105 99 96 91 88 88 88 96 92 92 88 85 84
79 75 65 61 57 54 67 81 90 97 105 107 111 113 109 104
95 80 73 64 53 36 24 51 77 34 27 27 28 28 29 28
24 8 1 0 0 1 3 1 1 1 0 11 26 28 28 25
9 2 3 1 0 0 0 0 0 0 20 23 21 20 21 20
18 18 17 16 15 15 15 14 14 14 13 13 13 12 11 11
0 0 0 4 22 21 20 4 0 0 25 33 33 29 31 37
40 36 32 29 38 41 39 38 38 41 42 41 48 72 87 92
96 101 99 95 95 91 86 86 87 84 86 82 83 79 75 69
60 55 55 57 60 69 78 84 92 99 103 107 111 114 112 104
92 81 72 65 59 53 35 27 84 88 30 27 28 29 30 28
24 10 1 1 0 0 1 0 1 1 0 10 26 28 28 25
10 3 3 1 0 0 0 0 0 0 15 11 4 4 15 20
19 17 17 16 15 15 14 13 14 13 13 13 13 12 12 12
0 0 0 3 22 22 20 6 0 0 24 33 29 26 30 36
40 37 31 27 28 32 32 32 31 32 32 32 40 65 76 83
90 93 93 88 81 84 81 78 78 78 73 75 72 63 56 49
48 53 60 65 73 77 84 87 92 102 108 112 113 115 112 101
92 82 72 68 62 66 67 29 60 97 61 26 28 29 30 27
23 10 1 1 0 0 0 1 1 1 0 10 25 27 28 25
9 2 2 0 10 15 0 0 0 0 4 12 18 10 3 18
18 17 16 16 15 14 14 14 14 13 12 13 12 12 11 12
0 0 0 2 21 20 20 6 0 0 23 29 22 23 24 29
38 38 33 29 22 20 21 21 21 21 22 22 33 52 66 72
78 83 81 74 69 70 70 70 72 67 66 62 59 49 49 53
61 68 75 77 79 81 86 89 97 102 108 112 114 116 111 104
96 80 72 68 64 71 77 45 74 92 95 28 28 29 29 27
24 11 2 1 0 0 1 1 1 2 0 9 25 27 28 25
10 2 2 2 22 36 8 0 0 4 20 23 22 19 3 15
18 17 17 16 16 15 15 13 13 13 13 13 12 12 12 12
0 0 0 1 20 20 19 9 0 4 25 25 9 11 13 17
23 26 24 28 24 22 23 23 27 27 26 26 30 44 54 60
61 67 69 64 57 62 61 62 64 62 60 55 54 59 64 72
77 80 82 86 83 83 92 101 103 106 111 114 113 113 113 105
94 76 72 69 65 65 81 58 89 93 110 42 28 30 29 27
24 12 2 1 1 1 1 0 1 2 0 8 26 27 28 26
11 1 2 0 7 14 7 0 0 8 23 22 21 20 5 12
18 16 16 16 15 14 14 14 13 13 13 12 12 13 13 12
0 0 0 0 18 20 18 15 16 22 30 24 1 0 0 0
2 6 10 27 27 29 32 29 37 40 30 24 26 31 42 44
46 48 51 52 48 54 58 58 60 59 59 60 66 71 75 82
88 90 93 97 98 97 101 104 109 112 113 115 115 116 113 104
91 77 74 70 69 64 59 74 91 94 111 66 28 29 29 27
25 13 2 1 1 1 1 1 1 2 0 8 26 27 29 26
13 4 5 1 1 0 0 0 0 8 24 23 21 20 7 12
18 17 16 16 16 15 14 14 13 13 13 13 13 12 12 12
0 0 0 0 16 19 17 22 32 35 37 26 1 0 0 0
0 0 7 30 27 31 36 30 38 41 21 3 3 4 10 26
37 42 42 44 47 49 52 53 53 56 58 61 67 75 82 90
96 100 103 105 106 106 109 106 108 111 114 116 116 116 112 105
90 76 74 72 73 69 56 60 93 95 113 97 57 42 40 34
26 14 3 2 1 1 1 1 1 2 1 8 26 28 29 27
22 14 8 2 0 0 0 0 0 5 23 22 22 20 7 15
18 16 16 15 15 15 14 13 13 13 14 14 13 12 12 13
0 0 0 0 14 20 17 22 34 37 39 30 1 0 0 0
0 0 4 31 26 30 31 11 11 22 15 0 0 0 0 0
13 36 36 35 37 39 40 39 40 41 44 49 57 68 80 91
99 105 106 109 109 108 110 109 110 114 116 116 116 116 113 105
88 76 76 75 77 72 65 26 87 95 115 107 93 87 85 89
84 59 36 12 3 2 2 1 2 3 1 7 25 27 29 27
28 11 9 17 2 0 0 0 0 5 24 24 23 19 6 18
18 17 17 16 16 15 14 14 14 13 13 13 12 12 12 13
0 0 0 0 12 19 17 20 28 29 28 21 1 0 0 0
0 0 3 32 26 29 30 4 0 15 16 0 0 0 0 0
8 33 33 27 28 27 28 28 27 16 6 17 46 60 80 93
100 105 110 112 114 111 106 108 113 115 116 116 116 116 113 105
88 76 79 78 79 75 66 32 75 99 116 108 98 97 96 100
110 110 104 95 68 48 36 18 5 3 2 7 25 27 28 29
28 13 17 30 8 0 0 0 0 4 21 20 19 9 8 16
10 9 14 16 14 14 13 13 14 13 13 13 12 12 12 13
0 0 0 0 11 19 16 15 12 11 13 6 0 0 0 0
0 0 4 32 26 31 31 4 0 13 18 0 0 0 0 0
5 31 33 27 27 28 28 34 35 28 6 2 28 56 68 89
102 110 113 114 114 110 110 112 115 116 117 116 116 116 114 104
86 78 81 80 81 79 63 41 81 100 116 109 102 101 99 102
111 114 109 109 112 113 112 104 79 45 21 14 22 22 20 17
14 5 2 6 1 0 0 0 0 0 2 2 1 0 5 9
7 19 12 16 15 14 14 13 14 13 13 12 12 12 12 13
0 0 0 0 10 19 17 16 11 10 11 4 0 0 0 0
0 0 5 32 26 31 32 4 0 12 18 0 0 0 0 0
4 30 38 39 42 46 59 65 54 67 18 11 46 55 70 89
102 111 114 112 113 112 113 115 115 117 117 117 117 116 113 102
87 82 86 83 84 83 55 45 86 105 116 111 107 107 105 103
112 115 114 114 115 115 114 111 107 106 103 97 80 50 21 2
0 0 0 0 0 0 0 0 0 0 0 0 0 0 2 8
62 82 31 14 14 14 14 13 14 13 13 13 13 12 13 13
0 0 0 0 9 20 17 15 12 11 13 4 0 0 0 0
0 0 3 31 27 32 31 4 1 11 19 1 0 0 1 13
38 66 79 84 82 80 82 77 68 99 43 12 55 53 65 88
102 110 114 113 110 113 116 117 117 117 117 116 116 115 113 103
88 84 88 87 88 85 48 46 80 109 116 111 109 109 108 106
113 116 116 115 115 114 113 113 112 112 111 108 106 105 100 84
50 16 5 5 6 7 8 9 9 9 7 2 0 0 7 11
58 59 35 4 4 7 15 14 14 15 13 14 13 13 13 13
0 0 0 0 8 19 16 15 14 14 14 5 0 0 0 0
1 0 1 31 27 33 32 10 2 10 20 5 12 32 58 75
84 85 85 88 85 83 84 85 77 108 71 9 58 58 54 77
99 108 112 111 113 114 116 117 117 117 117 117 117 116 114 102
88 87 89 91 92 83 43 48 93 113 115 111 112 111 113 112
115 116 115 115 115 115 115 115 114 114 114 114 114 113 113 110
104 90 52 16 12 12 12 13 12 12 9 3 0 0 0 0
0 0 0 0 0 6 18 17 17 18 17 15 16 16 15 15
0 0 0 0 7 19 16 16 15 15 16 5 0 0 0 0
6 6 1 29 29 33 33 18 9 13 40 60 82 87 91 93
94 93 95 95 93 86 86 87 82 109 97 10 54 67 57 59
85 103 111 114 114 116 116 116 117 117 117 117 117 116 111 100
87 90 93 93 94 76 42 53 105 116 116 111 110 112 113 114
115 115 115 115 115 115 115 114 114 114 114 114 114 114 114 114
114 111 105 77 26 13 14 14 13 11 9 3 0 0 0 0
0 0 0 1 0 5 14 12 12 10 8 8 7 5 5 4
0 0 0 0 6 18 16 15 16 16 17 8 0 2 0 0
8 15 7 28 31 34 33 30 62 94 106 107 105 104 102 107
110 107 111 107 103 89 85 84 86 112 109 23 42 73 66 56
64 93 106 112 114 115 116 116 117 117 117 117 117 116 112 98
87 94 95 95 92 60 42 67 112 115 115 112 111 114 112 113
115 115 115 115 115 114 114 115 114 114 114 114 115 114 114 114
115 114 114 109 87 32 15 15 14 12 11 4 0 0 0 0
0 0 0 0 15 18 18 18 18 19 20 21 22 22 23 24
0 0 0 0 5 18 15 15 16 16 17 18 15 18 18 19
25 30 28 37 35 48 79 105 113 117 117 117 117 117 117 117
118 117 119 115 104 91 86 80 86 112 116 73 26 71 76 69
63 69 91 106 110 113 117 116 116 117 117 116 116 116 110 93
89 98 96 96 88 49 48 94 113 115 115 111 111 114 112 112
115 115 115 114 115 115 115 114 114 114 115 114 114 114 114 114
114 114 114 115 113 92 43 16 15 13 11 5 0 0 0 0
0 0 0 3 30 31 31 31 31 30 29 29 29 30 30 29
0 0 0 0 5 18 16 15 16 18 17 27 34 36 36 38
41 44 46 63 89 109 115 117 118 118 119 118 118 118 118 119
118 119 118 113 104 94 88 77 85 110 118 107 41 57 82 79
70 69 75 95 109 115 116 116 117 117 116 116 116 115 108 91
96 100 98 96 77 45 65 107 115 115 114 110 113 113 111 113
115 115 115 115 115 114 114 115 114 115 115 115 115 114 114 114
115 114 114 114 114 112 89 41 15 13 12 5 0 0 0 0
0 0 0 4 31 31 31 31 30 30 29 30 29 29 29 30
0 0 0 0 4 18 16 14 16 18 17 26 37 38 39 40
44 58 89 111 116 117 118 119 119 118 118 118 119 118 118 119
118 118 118 115 106 96 91 80 78 106 118 114 71 39 85 92
87 76 77 90 104 110 114 115 116 116 116 116 116 115 107 91
100 103 100 91 58 49 87 112 115 115 112 109 107 109 111 114
115 114 115 115 115 115 115 115 115 115 114 115 114 114 114 114
114 114 114 114 114 113 109 90 35 14 14 5 0 0 0 0
0 0 0 7 31 31 31 30 30 30 29 29 29 30 30 30
0 0 0 0 4 17 15 14 16 18 17 18 26 26 26 30
66 109 117 118 118 118 119 118 119 119 119 119 118 118 118 118
119 118 118 116 105 96 94 87 77 103 118 116 97 35 72 99
99 90 83 85 94 103 109 110 112 116 116 116 116 115 105 92
102 105 100 84 51 58 101 113 116 115 112 110 110 114 113 115
115 115 115 115 115 115 114 114 115 114 114 114 115 114 115 114
114 114 114 114 114 113 113 111 83 28 14 5 0 0 2 4
0 0 0 8 31 30 30 29 29 29 29 29 30 29 30 30
0 0 0 0 4 17 15 14 16 18 17 13 12 12 21 72
113 118 116 118 118 118 119 119 119 119 119 118 118 118 118 118
118 118 118 117 106 98 96 91 81 99 118 116 112 58 50 94
104 100 91 91 97 104 106 107 112 115 116 116 115 114 102 93
107 104 102 66 52 82 106 113 57 110 112 112 115 113 112 115
115 115 115 115 115 115 115 115 115 115 114 114 114 115 114 114
114 114 114 114 114 113 113 114 107 84 32 5 0 0 21 28
3 0 0 10 31 30 30 30 29 30 29 30 29 29 29 30
0 0 0 0 3 17 15 14 16 18 18 16 15 27 88 115
112 116 118 119 118 118 119 119 119 118 118 119 118 118 118 119
118 118 118 117 105 98 97 94 86 94 118 118 114 91 48 76
105 107 100 93 97 100 103 107 109 113 116 117 116 115 101 101
106 107 93 55 60 99 110 109 33 98 113 113 115 113 114 115
116 116 116 115 116 115 115 115 115 114 114 115 115 115 115 114
115 114 114 114 114 114 114 114 113 108 91 24 0 0 10 11
0 0 0 12 31 31 30 29 30 29 30 29 29 29 30 29
0 0 0 0 4 17 15 14 16 18 19 19 41 91 119 115
109 118 119 119 119 119 119 118 119 118 118 118 118 118 118 118
117 118 118 116 108 102 100 98 92 90 116 117 116 108 63 66
100 107 107 101 99 100 103 107 111 114 115 117 116 115 104 102
106 109 79 58 85 114 114 111 37 104 112 113 113 114 115 115
115 115 116 115 115 115 115 115 115 115 115 114 115 115 115 114
114 114 115 114 115 114 114 114 114 114 108 78 6 0 0 0
0 0 0 15 31 30 30 30 30 30 30 30 30 29 29 29
0 0 0 0 5 19 16 15 16 18 20 48 104 118 116 116
110 118 118 119 119 118 118 119 119 118 119 119 118 119 118 118
119 118 118 118 111 104 100 98 97 88 108 73 104 115 78 62
86 111 110 107 103 103 106 108 110 113 113 115 117 115 107 102
110 108 70 75 111 115 115 109 57 111 110 113 115 115 115 116
116 115 116 115 115 115 115 115 115 115 115 115 115 115 115 115
115 115 115 115 114 114 114 114 114 114 110 94 26 0 0 0
0 0 0 16 31 30 30 30 30 30 29 30 29 29 29 29
3 5 6 7 11 15 15 15 16 18 35 104 119 117 116 117
113 119 119 120 119 118 119 118 119 119 118 118 118 119 118 118
119 118 119 118 112 107 103 100 101 94 110 55 83 119 106 65
71 104 114 114 112 109 111 111 112 112 113 116 116 116 106 103
112 94 76 105 114 115 116 93 87 110 113 115 115 115 115 115
115 116 116 115 115 115 115 115 114 115 115 115 115 115 115 114
114 115 114 115 115 114 114 115 115 114 112 107 75 2 0 0
0 0 0 19 31 30 30 30 30 30 30 30 29 29 29 29
9 9 10 10 11 12 14 15 17 19 57 114 115 115 119 117
115 119 120 119 119 119 118 118 118 119 118 118 118 119 119 118
119 118 118 118 113 108 105 102 101 99 112 85 87 119 116 85
62 83 114 117 116 113 113 113 112 110 110 114 117 116 107 103
98 84 110 114 114 116 115 95 108 113 115 115 116 116 115 116
116 115 116 115 116 115 115 115 115 115 115 115 115 115 115 115
115 115 115 115 115 114 114 114 114 114 114 109 103 31 0 0
0 0 0 16 31 30 30 30 30 29 29 29 28 28 29 29
9 9 10 10 11 13 15 15 17 31 98 113 110 119 119 117
117 119 119 119 119 119 119 119 119 118 119 119 119 118 118 119
119 118 118 118 114 109 108 106 104 101 95 103 81 119 117 110
73 73 109 118 117 117 116 115 114 110 108 114 117 116 105 98
83 111 116 115 116 116 109 108 113 115 116 115 115 116 116 116
116 116 115 115 116 115 115 115 116 115 116 116 116 115 115 115
115 115 114 115 114 114 114 114 115 115 114 111 108 78 2 0
0 0 0 8 29 30 30 30 30 29 30 29 29 29 29 29
8 9 9 10 11 12 13 15 18 66 108 105 116 119 120 119
118 118 119 119 119 119 118 118 119 118 119 120 119 119 119 119
119 119 119 118 111 106 110 108 105 102 95 77 89 115 118 117
106 77 96 118 118 117 117 116 116 114 106 112 117 116 99 77
105 117 116 116 117 110 102 113 115 115 116 115 115 116 116 116
115 115 115 116 115 115 115 115 115 115 115 115 115 115 116 115
115 115 115 115 114 114 114 114 114 115 114 113 109 102 33 0
0 0 0 14 18 29 30 30 29 29 29 29 29 29 29 29
2 1 2 3 6 10 10 13 33 101 99 105 118 119 119 119
119 118 118 118 119 119 119 118 118 119 118 118 118 118 118 119
117 118 118 118 116 106 109 110 108 104 103 83 90 105 118 117
116 99 90 112 117 117 117 116 117 115 107 110 117 113 76 98
116 113 101 106 74 79 114 115 116 115 115 115 116 116 116 116
115 116 115 115 114 115 115 115 115 115 115 114 115 115 115 114
115 114 114 114 114 114 114 113 115 115 115 114 110 109 77 6
0 0 1 25 12 25 29 29 29 29 29 28 28 28 28 28
0 0 0 0 4 9 12 13 62 109 95 111 118 119 119 119
119 118 119 118 118 119 118 118 118 118 118 119 118 118 118 118
118 118 118 118 118 115 113 112 109 106 104 98 87 97 111 117
117 116 105 104 117 117 116 116 116 115 110 107 116 98 85 87
59 52 74 91 44 101 115 115 115 115 115 115 116 115 115 115
115 115 115 114 114 115 114 114 114 114 114 115 115 114 114 114
114 114 114 114 113 114 113 114 114 114 113 113 111 112 96 42
0 0 1 27 22 14 28 28 28 28 27 28 27 28 27 27
0 0 0 0 3 8 13 17 91 107 94 115 118 117 117 118
118 118 118 117 117 118 118 118 118 118 118 118 118 117 117 117
117 117 116 117 117 117 116 116 110 109 105 102 95 95 100 112
116 95 89 109 111 116 116 115 115 115 113 106 112 110 111 99
103 102 111 98 79 114 114 114 115 115 114 114 115 114 114 114
114 114 114 114 114 113 113 113 114 114 114 114 114 114 114 113
113 113 113 112 111 113 113 113 113 113 113 113 111 111 103 75
5 0 2 27 27 12 20 27 27 27 27 27 27 27 27 27
0 0 0 1 2 7 12 29 107 103 96 117 114 114 117 117
117 117 118 117 117 117 117 117 117 117 116 117 117 117 117 117
117 116 117 116 117 116 116 116 113 109 106 104 102 94 98 99
77 48 67 104 112 114 115 115 115 115 115 115 115 112 112 114
115 115 115 114 109 114 113 114 114 113 114 113 114 113 113 113
113 113 114 114 113 113 113 112 112 112 113 113 113 113 113 113
113 113 113 109 111 113 113 112 112 112 112 112 111 110 110 90
36 0 3 26 27 18 4 13 26 26 26 26 26 26 26 26
1 2 1 1 4 9 14 59 113 101 101 117 115 117 117 118
117 117 118 117 117 117 117 117 117 117 116 117 117 117 117 117
116 116 116 116 116 116 117 116 116 113 110 108 106 101 100 103
102 51 81 99 114 115 115 115 116 115 116 115 115 114 115 115
115 115 114 114 110 114 114 114 114 114 115 114 114 113 113 114
113 113 114 114 113 113 113 112 113 113 113 113 113 114 113 113
113 113 110 104 112 113 112 113 112 113 113 112 112 109 112 99
70 3 2 19 17 2 3 2 25 26 26 26 26 25 25 25
5 5 5 5 7 10 25 82 114 99 102 114 118 117 118 118
118 118 118 117 116 117 117 118 117 117 117 117 117 117 117 117
117 116 116 116 116 116 117 117 117 117 115 114 114 116 110 105
111 75 86 85 106 116 115 115 116 115 115 115 115 115 115 115
115 115 115 115 112 114 114 114 115 114 114 114 113 114 113 114
114 114 114 114 114 113 113 114 113 112 112 113 114 113 113 113
113 113 98 103 113 113 113 113 112 113 113 113 112 109 112 107
84 30 0 3 9 13 22 1 24 26 26 26 26 25 25 25
5 5 6 6 7 8 50 91 112 97 101 118 118 118 118 118
117 117 117 117 117 117 118 117 116 117 117 117 117 117 117 117
117 116 117 117 116 116 117 117 117 117 116 116 116 117 116 109
110 100 100 82 93 112 116 116 115 116 116 115 115 115 115 115
115 114 114 114 114 114 115 114 114 114 115 114 114 115 114 114
114 114 114 114 114 113 114 114 113 113 113 114 114 113 113 113
114 113 79 108 113 112 113 113 112 112 112 112 112 109 112 111
92 64 1 0 2 8 15 1 18 26 25 25 25 25 25 25
0 0 1 1 2 14 79 98 110 97 102 118 117 118 117 117
118 117 115 118 117 117 118 117 117 117 117 117 117 117 117 116
117 117 117 117 117 116 116 116 116 116 116 116 116 116 116 114
109 110 112 103 84 93 113 115 116 115 115 115 115 115 115 115
115 115 115 115 114 114 114 115 115 114 114 114 114 114 114 113
113 113 114 113 114 114 113 113 113 113 113 113 113 114 114 113
113 113 77 113 113 113 113 113 112 112 112 112 112 108 112 112
100 82 19 0 0 0 0 0 3 17 25 25 25 25 25 25
