P2
128 120
128
26 26 25 25 25 24 24 23 24 23 22 22 21 21 21 21
20 19 19 18 18 18 18 17 17 17 17 16 16 15 15 14
14 13 13 12 12 12 12 11 11 10 9 7 6 6 7 9
10 11 12 8 5 12 16 14 12 11 11 10 9 8 6 4
4 3 3 6 8 7 7 5 7 8 9 10 11 11 12 12
12 12 12 13 13 14 14 15 15 15 16 17 16 17 17 17
17 17 18 18 19 19 20 20 20 21 21 22 22 22 22 23
23 23 23 25 23 24 24 24 24 24 24 24 25 25 25 25
26 26 26 25 25 24 24 24 23 22 22 22 21 21 21 21
20 19 20 19 18 18 18 17 18 17 16 16 15 15 15 15
14 14 13 13 13 12 12 12 11 10 10 8 7 7 8 11
13 13 14 9 4 11 16 15 13 11 11 10 10 9 8 6
6 4 3 5 9 8 7 7 9 10 10 10 12 12 12 12
13 13 13 14 14 14 15 15 16 16 17 16 17 17 17 17
18 18 20 19 20 20 21 21 22 22 22 22 22 22 23 23
23 23 24 24 24 24 24 24 25 25 25 24 24 25 25 25
26 25 25 25 25 25 25 23 23 23 23 22 22 21 21 21
21 20 19 19 19 18 18 18 17 17 17 16 16 16 15 15
14 14 14 13 13 13 13 12 12 11 11 10 9 9 10 13
14 15 15 10 3 11 16 15 13 13 12 11 11 10 9 8
9 7 4 5 8 8 8 9 11 11 12 12 13 14 13 13
13 15 15 15 15 15 16 16 16 16 16 17 17 18 18 19
19 20 21 19 20 21 22 21 22 22 22 23 23 24 24 24
24 24 24 25 24 24 24 24 24 24 24 25 26 26 25 26
26 26 26 25 25 25 24 24 23 23 22 22 23 22 21 21
21 20 20 20 20 19 18 18 18 17 17 17 16 16 16 15
15 14 15 15 14 13 13 13 12 12 11 10 9 9 11 14
15 16 16 10 4 11 18 16 14 14 13 12 11 11 9 9
10 9 6 4 9 8 9 10 12 13 13 13 14 15 14 14
15 15 16 15 16 17 16 17 17 17 18 18 18 19 18 19
19 20 22 21 21 22 23 22 22 23 24 23 23 23 23 23
24 24 25 25 24 24 25 25 25 26 26 25 25 25 26 25
26 26 26 25 25 24 24 24 24 23 23 22 22 21 22 21
21 21 20 20 19 19 19 19 18 17 18 17 17 16 16 16
16 15 15 14 14 14 14 13 13 13 13 12 11 11 12 16
16 17 17 11 4 10 18 16 14 14 15 14 13 12 11 11
11 10 7 4 10 9 10 12 14 13 14 14 15 16 16 16
16 16 17 16 16 17 17 18 18 18 19 19 20 20 20 20
21 21 22 21 22 22 22 23 23 23 23 23 23 24 24 25
25 25 24 26 25 25 26 25 25 25 25 25 25 25 26 26
27 26 26 25 26 26 25 24 24 24 23 23 22 22 22 22
22 21 21 21 20 20 19 18 19 18 17 17 17 17 17 16
16 16 16 15 15 15 15 14 14 14 13 13 12 13 13 16
16 17 17 12 6 10 19 17 16 15 15 14 14 13 12 11
12 11 9 5 11 10 12 14 14 15 15 15 16 16 17 16
16 16 17 17 18 18 18 19 19 18 19 19 20 20 21 21
21 21 23 22 22 22 23 24 23 24 24 23 23 24 24 24
24 25 25 25 24 25 25 25 24 25 26 26 26 25 26 26
27 27 26 26 26 25 25 24 25 24 24 24 24 23 23 23
22 22 21 21 20 20 20 19 19 19 19 18 18 18 17 17
17 17 16 16 15 15 15 15 14 14 14 14 14 14 14 18
19 19 18 13 7 9 19 17 16 16 16 15 15 14 14 13
12 12 10 7 12 11 13 14 15 15 16 16 17 17 17 17
18 18 18 18 19 19 19 18 19 20 20 20 21 21 22 22
22 22 23 23 23 23 24 24 24 24 24 24 24 25 25 25
25 25 25 25 24 25 26 26 26 26 26 25 26 26 26 26
27 27 26 26 26 25 26 25 25 24 24 24 23 23 22 23
22 22 21 21 20 20 20 19 19 18 19 18 18 17 17 17
17 17 17 16 16 16 16 15 15 14 14 14 14 14 15 18
18 19 19 14 9 9 19 18 17 17 16 15 15 14 14 13
13 13 12 8 12 12 15 16 17 16 16 17 18 18 18 18
19 18 19 19 19 19 20 19 20 20 20 21 21 21 21 22
22 22 24 23 23 23 23 24 24 24 23 24 25 25 24 24
23 25 25 25 26 26 26 26 26 25 26 26 27 26 26 26
27 26 26 25 26 25 25 24 25 25 25 24 24 23 23 23
22 22 22 21 21 20 20 20 20 19 19 19 19 18 18 17
17 17 17 16 16 16 15 15 15 15 14 14 14 15 16 19
19 20 20 14 11 9 19 18 17 17 17 17 16 16 16 15
13 13 13 9 13 12 15 15 17 17 18 18 19 18 19 18
19 19 20 20 20 20 20 20 20 20 21 21 21 22 22 22
23 23 24 24 24 24 24 24 25 24 23 22 24 24 25 26
26 25 27 26 26 26 26 26 25 26 26 26 27 26 27 27
27 27 26 26 26 25 25 25 25 24 24 24 24 23 23 23
22 22 21 22 21 21 20 20 20 20 19 19 19 18 18 18
18 17 17 16 16 16 17 16 16 15 15 14 14 15 16 19
20 20 20 15 12 10 19 19 17 17 17 17 16 15 16 15
14 14 14 11 15 14 16 18 18 18 19 18 19 18 18 19
19 19 19 19 20 20 21 20 21 21 21 21 22 23 23 23
23 23 24 24 24 23 24 24 24 24 25 26 25 25 26 26
26 26 25 25 26 26 27 27 27 26 27 26 26 27 26 26
27 27 26 26 26 26 26 25 25 25 25 24 24 23 23 23
23 22 22 22 21 21 20 21 20 20 20 19 19 19 19 19
19 18 17 17 17 16 16 16 15 15 16 16 16 17 17 21
21 21 20 15 11 9 18 19 17 16 18 17 17 16 17 15
15 15 14 12 15 15 17 18 19 18 18 19 19 19 19 19
20 20 21 20 21 21 20 21 21 21 22 22 22 23 23 23
23 23 24 23 23 23 23 24 25 24 25 26 25 25 26 26
26 26 26 26 26 26 27 26 26 26 26 26 26 26 26 27
27 27 26 26 26 26 26 25 25 25 25 24 24 23 23 23
22 22 22 22 21 21 21 21 21 20 20 19 19 19 19 18
18 18 18 17 17 17 16 17 17 16 16 16 16 17 18 20
21 21 21 16 13 6 15 19 18 18 18 18 17 16 17 15
15 15 15 12 15 16 18 18 19 19 19 19 19 19 19 19
20 20 21 21 21 22 22 21 21 22 22 23 22 23 22 22
21 21 22 23 24 25 24 25 25 25 26 26 26 25 26 26
26 26 25 26 26 26 26 26 26 27 26 26 27 27 26 27
27 26 26 25 26 25 24 25 25 24 25 24 24 24 24 23
23 23 22 22 22 21 21 21 20 20 20 20 19 19 19 19
19 19 18 18 18 18 17 16 16 16 16 16 16 17 18 21
22 21 21 16 11 4 15 21 19 18 19 18 18 17 18 16
17 16 16 13 17 16 19 19 19 19 19 19 19 19 20 20
20 21 22 22 21 21 22 22 22 22 22 22 22 22 22 22
24 24 25 24 24 25 25 25 25 25 26 27 26 26 25 26
27 26 26 26 26 26 26 27 26 26 26 26 26 27 26 27
27 26 26 26 26 26 26 25 26 24 25 24 23 24 24 23
23 22 23 22 22 22 22 21 21 21 20 19 19 19 19 19
19 18 18 18 18 18 18 17 18 17 16 17 17 17 19 21
22 22 21 17 12 10 17 21 19 19 19 19 18 18 19 17
17 16 16 13 17 18 19 20 20 19 20 20 21 20 20 20
21 21 21 21 21 22 22 22 23 22 22 22 23 23 24 24
25 25 24 25 25 25 25 25 26 26 26 28 26 26 27 26
26 26 26 26 27 26 26 26 26 27 27 27 27 27 27 27
27 27 27 26 26 26 25 25 25 25 25 25 25 24 24 24
24 23 23 22 22 22 21 21 21 21 20 20 20 20 20 20
19 19 19 18 18 17 17 17 17 17 16 17 18 19 19 22
23 22 22 17 13 14 16 22 20 20 19 19 19 18 19 17
17 17 17 14 19 18 20 20 20 20 20 20 20 21 21 21
21 22 22 22 22 22 22 22 23 23 23 23 23 24 24 25
25 25 25 25 25 25 26 26 25 26 25 27 27 26 26 26
26 27 26 27 27 27 27 27 27 26 26 27 27 27 27 27
27 27 26 26 26 25 26 25 25 25 25 25 24 24 24 24
24 24 24 23 23 23 22 21 22 21 21 21 20 19 19 19
19 19 19 18 18 19 18 18 18 18 18 18 18 18 19 22
22 22 22 17 13 15 16 22 21 21 20 20 20 19 20 18
17 17 18 14 19 18 20 21 21 21 21 21 21 21 21 21
22 22 21 21 21 22 23 23 23 23 24 25 24 24 24 25
24 25 25 26 25 26 26 26 26 26 26 27 27 27 27 26
26 26 26 26 27 26 26 27 27 27 28 27 27 27 27 27
27 27 27 27 26 25 26 25 26 26 25 25 25 25 25 25
24 24 24 23 23 22 22 22 22 21 22 21 21 20 21 20
20 20 20 19 19 18 18 18 17 18 18 17 18 19 20 22
23 23 23 18 14 16 15 23 21 21 21 20 20 20 20 18
18 19 18 15 19 19 21 21 21 21 21 22 21 21 22 22
22 22 22 22 23 24 23 23 24 24 25 25 25 25 25 26
25 26 26 26 26 26 26 26 27 27 27 27 27 26 26 27
27 27 27 27 27 27 27 27 27 28 27 27 27 26 27 27
27 27 26 26 26 26 27 26 26 26 26 25 25 24 25 24
24 24 24 23 23 23 23 22 22 22 22 21 21 21 21 20
20 20 20 20 19 19 19 19 18 18 19 19 19 19 20 23
23 24 23 19 15 18 15 22 22 22 21 21 21 20 21 19
19 19 18 16 20 19 21 21 22 22 22 22 22 22 22 23
22 22 23 22 23 23 24 24 24 24 25 25 25 26 26 26
26 26 26 26 26 26 26 26 27 27 27 28 27 27 27 27
27 28 28 28 27 28 27 27 28 28 28 27 28 27 27 27
28 27 27 27 26 26 26 26 26 26 26 26 26 26 25 25
25 25 24 24 24 23 22 23 22 22 22 22 22 21 21 22
21 21 20 20 20 19 19 19 19 19 18 19 19 19 20 24
25 25 25 20 16 19 15 22 22 22 21 21 21 20 21 20
20 19 19 17 20 19 22 22 22 21 22 23 22 23 23 23
23 23 24 24 23 24 24 24 25 25 25 25 25 25 26 26
27 27 27 27 27 27 27 27 27 27 27 27 27 27 27 27
28 28 27 27 27 26 27 27 27 27 28 27 27 27 27 27
27 26 27 26 26 26 27 27 27 27 27 26 26 26 25 25
25 24 24 24 24 24 24 23 23 22 22 22 22 21 21 21
21 21 20 21 21 20 20 19 19 19 19 19 19 20 21 24
25 24 24 20 15 19 16 23 23 22 23 23 22 21 22 20
20 19 20 17 20 18 22 22 22 23 23 24 23 23 24 24
24 24 24 24 24 24 24 24 25 25 26 26 26 26 26 26
26 26 26 27 27 26 27 27 27 27 27 28 28 27 27 27
27 27 27 27 27 26 27 27 27 27 27 27 27 27 28 27
27 27 27 27 27 27 26 26 26 26 26 26 25 25 26 25
25 25 25 24 24 23 23 23 22 23 23 23 23 22 22 22
22 21 21 20 20 20 20 19 19 19 19 19 20 20 21 25
25 25 25 21 16 21 17 22 23 23 23 21 21 22 23 21
20 20 20 17 21 21 23 23 23 23 23 23 23 23 24 24
24 24 24 24 25 25 25 26 26 26 26 26 26 26 26 26
27 26 27 27 27 27 27 28 27 27 27 26 27 27 27 27
27 28 27 28 29 27 28 27 27 27 28 27 27 28 27 27
27 27 27 27 27 27 27 26 26 27 26 26 26 26 25 25
25 25 25 24 24 24 24 23 23 23 24 23 23 23 22 22
22 22 21 20 20 20 20 20 20 20 20 20 20 21 22 24
25 26 25 21 16 21 18 22 23 24 23 22 22 22 23 21
21 20 20 18 21 20 23 23 23 23 24 25 24 24 24 24
25 24 25 24 24 25 26 26 26 26 27 27 26 27 27 27
27 27 27 27 27 27 27 26 27 27 28 28 28 28 28 28
28 28 28 28 29 28 28 27 27 28 28 27 28 28 28 28
28 28 27 27 27 27 27 27 27 26 26 26 25 26 26 25
26 25 25 25 25 25 24 24 24 24 23 23 23 22 23 23
22 22 22 21 21 21 21 20 20 20 21 20 21 21 22 25
26 26 26 22 16 21 20 21 23 23 23 23 22 21 23 22
21 21 21 19 22 22 23 23 24 24 24 24 24 24 25 24
25 24 25 25 26 26 26 27 26 26 27 27 27 27 27 27
28 27 26 27 27 28 28 28 28 29 28 28 28 29 28 28
28 28 29 28 29 28 28 28 27 28 28 27 28 28 28 28
27 27 27 27 27 27 27 27 27 27 27 27 26 26 25 26
25 25 25 25 25 25 24 25 25 25 24 24 24 23 23 23
22 22 22 21 21 21 21 21 21 21 21 21 21 22 23 26
26 25 27 23 17 22 21 20 23 24 24 23 24 23 23 23
22 21 21 19 22 21 24 25 24 24 25 25 25 25 26 25
24 25 26 26 26 26 27 27 28 27 27 26 27 27 27 27
27 27 27 28 28 28 29 29 29 29 30 29 29 29 28 28
29 28 29 29 29 28 28 28 27 27 28 28 28 28 28 28
29 28 28 28 27 28 27 27 27 27 26 26 26 27 26 26
26 26 26 26 26 26 25 25 25 24 24 23 24 23 23 23
23 23 23 22 22 22 21 22 21 21 21 21 22 22 23 26
26 27 27 22 17 22 23 20 25 24 24 24 23 23 22 23
23 23 22 19 22 23 25 25 25 25 25 25 25 25 26 25
25 26 27 26 27 27 27 27 27 27 27 27 27 27 27 28
28 28 29 30 29 29 30 30 29 30 29 29 29 29 29 29
29 29 29 28 30 29 28 28 29 28 29 28 28 28 28 28
27 27 27 27 27 26 26 27 27 27 27 26 27 26 26 26
26 25 25 25 25 25 25 25 24 24 24 24 24 24 23 23
23 22 22 22 22 22 21 21 21 21 22 21 21 22 22 25
26 26 26 22 17 22 23 19 25 24 24 24 24 23 22 22
22 22 22 19 21 22 24 25 24 24 24 25 25 25 26 25
26 26 26 27 26 26 26 26 26 27 27 27 27 27 28 28
28 28 28 29 28 29 29 29 29 28 28 29 28 28 28 29
28 29 28 28 28 28 27 28 28 27 28 28 27 28 28 28
27 28 27 27 27 27 27 26 27 26 26 25 26 26 26 26
26 26 26 26 25 25 25 25 25 24 24 24 23 23 23 22
23 23 22 22 22 22 22 22 21 21 21 20 21 21 23 25
26 27 26 23 17 22 25 18 25 25 25 24 23 23 21 22
21 22 21 20 21 22 24 25 25 24 25 25 26 25 25 25
25 25 26 26 26 27 27 27 26 27 27 27 26 27 27 28
28 28 28 29 28 29 29 29 28 28 29 28 28 28 27 28
28 27 27 28 28 29 27 28 28 28 28 27 27 27 27 27
27 27 26 27 26 26 26 26 26 26 26 26 26 26 26 26
26 25 25 25 24 24 25 24 24 23 24 23 24 23 23 23
23 22 22 22 22 21 21 21 21 21 20 21 21 21 22 25
26 27 26 22 16 22 26 18 24 25 24 24 23 22 22 23
22 22 21 19 20 21 23 24 25 24 24 24 24 25 25 24
25 25 25 26 26 26 26 26 26 26 26 27 27 27 28 28
28 28 28 29 28 27 27 28 28 27 28 27 27 28 28 27
28 27 28 27 27 28 27 27 28 27 27 27 27 27 26 26
27 26 26 26 26 26 25 25 25 25 25 25 26 25 25 25
25 25 24 24 24 24 24 23 24 24 23 23 23 22 23 23
22 22 22 21 22 21 21 21 21 20 20 20 20 21 22 25
26 26 26 22 16 21 26 18 23 24 24 23 23 22 21 22
21 21 21 19 21 21 23 24 24 23 24 23 23 24 24 24
25 25 25 26 25 25 26 26 26 26 27 26 27 27 26 27
27 28 27 28 27 27 28 27 27 27 27 27 28 27 26 27
27 27 27 27 27 28 27 27 28 27 26 27 26 25 25 26
27 26 25 26 26 25 26 26 26 26 25 26 26 26 26 25
25 25 25 24 24 24 24 24 24 24 24 23 23 23 23 23
23 22 22 22 21 21 21 20 21 21 20 21 21 21 22 25
27 27 27 24 18 23 24 21 20 18 21 22 22 22 22 22
21 22 21 20 20 21 22 24 24 24 24 24 25 24 24 25
25 25 25 26 26 25 26 26 26 26 26 27 27 28 28 28
27 28 28 28 28 27 27 28 28 27 27 27 27 27 27 27
28 28 27 28 28 26 25 24 25 25 25 25 27 26 28 26
27 26 26 26 26 26 26 26 26 26 26 26 26 25 25 25
25 25 25 25 25 25 25 25 24 24 23 24 23 24 23 23
23 22 22 22 22 22 22 22 21 21 21 21 21 22 22 25
27 27 26 20 16 15 15 10 11 12 9 12 14 12 13 20
21 22 22 20 20 22 24 25 25 24 25 25 25 25 25 25
26 26 25 26 27 26 27 27 27 27 27 27 27 27 28 28
27 28 28 28 28 28 28 28 28 28 28 28 27 28 28 27
27 27 26 27 26 26 26 27 27 26 26 25 27 26 27 26
21 24 26 27 26 26 26 26 26 26 27 26 26 26 26 26
26 26 25 25 25 25 25 25 25 24 25 25 24 24 24 24
24 23 23 22 22 22 22 21 21 21 21 21 22 22 24 26
28 24 18 13 15 16 20 23 18 13 6 3 0 0 0 3
16 22 22 21 22 23 25 26 25 25 25 25 26 26 26 26
26 26 26 27 26 27 27 27 27 28 28 27 28 28 28 29
29 28 29 29 29 28 28 29 28 28 29 28 28 27 26 27
27 27 28 27 27 27 27 27 27 26 26 26 26 26 27 26
6 14 27 27 27 27 27 27 27 27 26 26 27 26 26 25
26 26 26 26 26 25 25 25 25 25 25 25 25 24 24 23
23 23 23 23 23 23 22 22 22 22 23 22 22 23 24 26
21 15 15 14 19 17 10 9 15 16 15 8 1 0 0 0
7 21 23 22 22 24 25 26 26 26 26 26 26 26 26 26
26 26 27 28 27 27 27 27 28 28 28 28 28 29 29 29
29 29 29 29 29 28 28 28 28 28 28 27 28 28 28 28
28 28 28 27 27 27 28 27 27 27 27 27 27 28 27 27
5 13 26 26 27 27 27 26 26 26 26 27 27 26 26 27
27 27 27 26 26 26 26 25 25 25 25 25 25 25 25 25
25 24 24 24 23 23 23 22 22 22 22 22 23 23 25 19
10 14 11 23 27 40 51 60 62 62 59 55 46 28 10 1
5 20 23 22 22 24 25 26 26 25 25 26 26 26 27 26
27 27 27 28 29 27 28 28 28 28 29 28 28 29 29 28
29 29 28 28 28 28 28 28 28 28 28 28 28 28 28 28
28 28 28 28 28 27 27 27 27 27 27 27 27 27 27 27
7 12 26 27 28 27 27 27 26 27 27 27 27 27 27 27
26 25 26 27 26 26 26 26 25 26 25 25 28 30 28 26
24 24 24 24 23 23 23 23 23 23 23 22 23 23 16 5
11 19 26 52 70 77 77 75 75 79 80 79 76 69 64 50
23 18 23 23 21 24 25 26 26 26 26 26 27 26 27 26
27 27 27 28 28 27 28 28 28 29 29 28 29 29 28 28
29 28 28 28 28 28 28 27 28 28 28 28 29 28 27 28
28 27 27 27 28 27 27 27 27 27 27 27 27 27 27 27
7 13 26 28 27 27 27 26 27 34 34 32 31 30 28 27
26 27 27 26 27 27 26 26 26 26 25 26 35 37 35 32
30 28 25 24 24 24 24 23 23 23 23 23 24 20 5 14
15 33 69 86 89 85 81 78 79 81 80 80 79 80 81 81
78 52 26 23 22 25 25 27 26 26 27 27 27 26 28 27
28 27 28 29 29 28 27 27 28 28 28 28 28 28 28 28
29 29 28 29 29 28 28 29 29 28 29 27 28 29 28 28
28 28 28 28 27 27 28 27 27 27 27 27 27 26 27 27
8 15 27 28 28 28 28 27 30 37 37 37 35 32 32 31
30 28 28 27 27 27 26 25 26 26 26 27 35 36 34 33
33 33 30 25 24 24 24 24 24 24 24 23 22 9 8 4
30 71 85 90 91 90 86 84 87 89 90 85 82 81 83 84
85 79 53 26 23 25 26 27 27 26 27 27 27 28 27 27
27 28 28 28 28 27 27 27 28 28 29 29 29 28 28 29
28 28 29 29 29 28 28 28 28 28 28 28 28 29 28 28
28 28 27 27 27 27 28 27 27 27 27 28 27 26 26 27
8 17 30 30 29 29 28 27 29 38 38 37 35 33 35 36
38 33 33 32 31 28 27 26 27 26 26 27 33 34 33 32
34 34 32 27 25 25 25 24 24 24 23 23 13 1 0 22
69 82 86 89 91 95 96 94 92 90 89 87 82 83 85 85
83 80 72 44 24 26 26 27 28 27 27 28 28 27 28 28
28 28 28 28 28 29 29 28 28 29 29 29 30 29 29 29
29 29 30 30 29 29 28 29 29 28 28 28 29 29 28 28
28 28 28 28 28 28 27 28 28 27 28 28 27 27 27 28
8 18 32 31 30 31 31 30 30 32 27 33 34 35 37 38
39 33 29 31 33 33 31 30 30 29 27 27 26 16 19 21
25 29 31 29 25 25 24 24 24 24 24 15 1 0 14 54
65 65 65 68 73 76 82 71 67 69 72 72 68 65 63 64
80 97 72 61 36 25 26 28 28 28 28 28 27 28 27 27
27 27 28 28 28 28 29 28 29 29 29 30 31 29 30 29
29 29 29 29 28 29 29 28 29 28 28 28 29 30 29 28
28 28 28 27 27 28 27 27 27 27 27 28 27 28 28 28
9 19 33 31 26 27 31 34 36 20 1 5 17 27 31 33
36 31 6 6 12 18 25 27 30 34 31 29 25 11 7 8
7 7 11 27 26 25 25 25 25 24 21 3 0 11 33 39
65 74 80 78 53 30 43 69 70 89 94 89 83 74 51 45
61 93 72 74 52 48 49 31 28 28 28 28 28 28 28 28
28 28 28 29 29 29 28 29 29 29 29 30 30 29 30 29
29 29 30 30 30 30 29 29 29 29 28 28 28 29 29 28
28 28 27 28 29 28 28 27 28 28 28 28 28 28 28 27
9 16 31 32 30 28 29 36 39 21 0 0 2 9 12 12
20 28 2 0 0 0 1 5 9 15 22 28 25 8 1 4
5 1 1 26 26 25 25 24 25 25 13 0 43 42 15 56
71 65 53 30 11 17 24 40 52 103 117 114 108 100 51 32
26 17 28 55 55 38 56 53 49 34 28 28 29 29 29 28
28 28 28 29 29 29 28 29 29 29 29 30 31 30 30 30
30 30 29 30 30 29 28 28 28 29 28 29 29 29 29 29
29 28 29 29 27 27 27 28 28 27 28 28 28 28 28 26
9 8 7 12 20 28 32 37 39 22 0 0 0 4 7 8
15 29 2 0 0 0 0 0 0 0 0 20 26 5 0 0
1 1 1 27 26 25 25 25 25 23 5 11 54 8 52 77
52 33 18 14 19 30 44 73 78 59 84 86 74 97 50 46
31 21 13 15 34 73 71 51 32 51 37 28 29 28 28 28
28 29 29 29 29 29 29 30 30 30 29 30 31 29 30 30
30 30 30 30 30 29 30 29 29 29 29 29 30 29 29 29
28 28 28 28 29 29 28 29 29 29 28 28 28 28 28 28
9 4 0 0 0 2 6 13 21 20 0 0 0 0 0 2
11 28 3 0 0 0 0 0 0 0 0 20 24 2 0 0
0 0 1 28 26 25 26 25 25 17 14 43 23 27 79 48
26 32 54 96 77 60 75 80 71 59 58 64 54 78 80 69
57 42 37 27 18 23 39 35 30 34 51 27 30 29 29 29
29 29 29 28 29 29 29 29 30 30 30 30 31 30 31 30
30 30 30 30 30 30 29 29 29 29 29 29 30 29 29 29
29 29 29 28 29 28 28 28 28 29 29 28 28 28 28 28
10 4 0 0 0 0 0 0 0 13 0 0 0 0 0 0
9 27 2 0 0 0 0 0 0 0 0 19 21 0 0 0
0 0 2 29 27 26 26 26 24 10 25 47 16 44 63 30
60 88 116 112 100 102 104 91 83 73 90 87 85 79 75 113
109 105 88 90 75 37 21 26 28 29 31 38 31 28 29 29
28 29 29 29 29 29 29 29 29 30 30 30 30 29 30 30
30 30 30 30 30 30 30 30 30 30 30 29 29 29 28 29
29 29 28 28 29 28 29 29 29 29 28 28 28 28 28 28
10 4 0 0 0 0 0 0 0 11 0 0 0 0 0 0
12 29 2 0 0 0 4 6 0 0 0 17 22 0 0 0
0 0 1 29 27 26 26 26 23 6 20 31 26 46 45 71
90 91 84 36 47 86 106 87 70 58 73 87 95 89 52 102
114 113 97 86 90 85 52 20 25 33 32 41 25 29 29 29
29 29 29 29 29 29 30 30 30 30 30 30 31 30 30 31
31 31 30 31 30 30 30 30 29 29 29 29 29 30 30 30
30 29 29 29 28 28 29 28 28 29 29 29 29 28 29 29
10 4 0 0 0 0 0 0 0 9 0 0 0 0 0 0
12 32 3 0 0 0 6 10 7 3 0 15 21 0 0 0
0 0 0 28 28 27 27 26 15 7 28 36 31 42 68 80
48 47 28 35 45 54 83 64 47 52 97 108 114 105 75 70
100 77 37 34 36 58 78 43 17 36 50 33 27 29 29 29
29 29 30 30 30 29 30 30 30 30 31 30 31 30 31 30
31 30 30 31 31 30 31 30 30 30 30 29 30 30 29 29
28 29 29 29 28 28 30 30 30 30 30 30 30 30 29 29
10 4 0 0 0 4 2 0 0 7 0 0 0 0 0 0
10 33 3 0 0 0 8 10 10 10 2 15 23 0 0 0
0 0 0 27 29 27 26 21 6 4 36 36 31 48 79 57
44 45 53 64 69 56 53 58 52 94 105 111 118 107 88 57
62 40 34 26 36 36 55 68 23 22 30 35 36 30 30 29
30 30 30 30 30 30 30 31 31 31 31 31 32 31 30 31
31 32 31 31 32 31 31 30 30 30 30 30 30 30 30 29
30 30 29 30 29 29 30 30 30 30 30 30 30 29 28 27
10 4 0 4 0 1 0 0 0 7 0 0 0 0 0 0
12 33 4 0 0 0 5 9 10 9 1 13 24 2 0 0
0 0 0 27 30 28 26 8 3 1 35 30 37 73 80 46
77 96 100 98 87 70 64 73 99 108 97 105 116 102 90 89
56 52 42 50 49 50 32 62 44 12 29 40 39 29 30 29
29 29 30 30 31 30 30 31 30 31 31 30 30 31 31 31
31 31 31 31 32 31 31 31 31 31 30 30 30 30 30 29
30 29 29 29 29 29 30 29 29 29 28 30 29 26 25 24
11 4 1 2 0 0 0 0 0 9 0 0 0 0 0 2
17 35 7 0 0 0 0 2 7 9 1 12 33 25 17 11
7 5 5 27 30 27 19 0 2 3 24 27 49 92 98 76
82 80 79 92 87 82 68 96 100 40 11 62 108 63 37 100
89 52 60 90 103 91 54 51 61 11 20 47 32 30 30 30
30 30 31 31 31 31 30 30 31 31 30 31 30 31 31 31
31 31 31 31 32 31 31 31 31 31 31 30 30 29 30 29
30 30 28 27 27 30 30 28 26 26 23 22 20 16 14 12
10 4 0 0 0 0 0 0 0 18 13 6 4 3 0 0
12 40 29 22 18 14 7 3 1 4 0 11 36 38 34 34
33 33 35 39 30 26 10 1 0 1 10 27 52 61 73 74
79 81 80 77 79 84 66 105 58 15 28 86 103 53 3 48
105 55 55 75 81 88 80 62 69 25 17 43 31 30 30 30
30 30 30 30 31 31 31 31 30 31 32 31 31 31 31 31
31 31 32 32 32 31 31 30 30 29 29 30 29 27 28 26
28 28 26 26 25 23 20 18 15 13 12 11 11 11 11 12
9 4 0 0 0 0 0 0 0 29 40 32 29 28 24 17
22 43 26 21 23 25 25 23 21 20 18 25 38 36 36 36
37 41 43 42 30 25 4 2 0 1 9 40 80 66 67 98
77 71 74 86 101 87 75 104 85 68 94 104 107 86 44 49
99 79 67 83 108 88 77 72 68 43 17 14 27 30 31 31
31 31 30 30 32 30 30 30 31 31 31 30 30 31 32 32
31 31 32 32 32 31 29 28 28 27 27 28 27 26 25 23
21 19 16 14 13 12 12 12 13 13 14 15 15 16 17 17
10 5 0 0 0 0 0 0 0 31 42 34 38 40 43 42
39 41 19 10 11 12 13 14 15 17 21 25 27 24 27 31
34 37 39 39 31 20 2 2 0 1 9 53 64 65 86 99
103 105 109 113 116 100 71 85 86 90 99 105 107 97 86 82
94 76 105 113 104 91 78 60 45 48 6 11 19 30 30 30
30 30 29 30 31 30 30 30 30 31 31 31 31 30 31 31
31 30 30 30 30 29 28 29 30 24 21 19 17 15 14 13
13 13 14 15 15 15 17 17 18 18 19 20 18 14 19 21
10 13 14 10 5 2 0 0 0 30 36 33 40 42 46 45
38 32 18 11 11 10 10 9 9 7 7 7 8 9 12 16
24 28 26 25 27 15 0 0 0 1 16 56 58 81 100 109
113 115 116 113 112 97 79 69 76 83 91 92 95 93 85 74
65 78 109 117 115 110 108 97 74 57 15 7 10 30 30 30
30 30 29 29 32 30 30 29 30 30 31 30 30 30 30 30
30 28 26 24 23 20 18 19 30 21 12 13 15 15 16 17
18 18 19 20 21 21 21 22 22 23 23 23 23 20 16 22
10 19 35 38 35 30 25 19 17 33 28 32 38 41 43 45
40 33 21 12 12 10 9 8 8 7 7 6 7 7 7 8
22 24 23 25 25 13 2 0 0 2 22 52 66 91 103 113
117 119 116 109 103 84 69 75 91 98 98 94 97 97 94 86
71 71 97 115 117 116 114 109 95 67 29 9 9 28 30 30
29 29 28 28 30 30 30 30 31 30 30 29 28 26 24 21
19 17 16 16 16 16 16 16 25 18 15 18 20 21 21 22
23 23 23 23 24 24 24 24 25 25 25 24 25 26 23 16
11 19 36 40 40 38 39 38 39 39 17 17 25 31 35 39
37 34 24 14 12 9 6 6 6 7 8 8 9 9 9 11
23 15 10 26 28 14 8 0 0 1 31 55 73 93 105 116
119 118 111 102 87 73 82 93 96 103 103 97 98 104 101 96
90 75 76 104 116 117 117 113 104 85 49 10 14 28 28 26
28 29 30 29 30 29 28 27 24 23 21 19 18 17 17 17
18 19 20 20 21 22 22 21 26 21 18 22 24 24 24 25
25 25 26 26 26 26 26 26 26 26 26 25 25 27 27 23
10 18 36 40 40 40 41 41 42 37 6 0 1 4 7 13
17 27 26 12 9 6 0 0 0 4 10 10 8 8 11 13
24 29 27 31 33 15 4 0 0 4 42 58 78 94 111 118
119 117 105 93 85 86 89 95 97 94 90 90 92 93 92 96
97 87 72 83 104 116 117 116 110 93 67 17 14 25 25 18
22 26 25 22 22 20 19 18 18 19 19 20 21 20 21 22
23 24 24 24 25 26 26 23 27 22 21 25 26 27 27 27
27 27 27 27 27 27 27 27 27 25 26 26 26 27 27 28
16 19 29 32 33 34 35 37 40 34 3 0 0 0 0 1
9 27 27 11 9 6 0 0 0 0 2 3 1 0 4 6
22 35 30 27 28 13 1 0 0 9 46 60 79 99 112 118
119 114 101 101 99 90 85 84 78 100 102 114 104 107 91 86
82 91 80 78 91 107 117 117 114 100 77 31 7 21 22 15
17 19 19 19 20 20 21 21 23 24 23 24 25 25 26 26
27 28 28 28 28 29 27 22 12 9 19 27 28 28 28 28
27 28 28 28 29 28 29 29 28 28 26 26 26 26 27 27
15 17 18 20 24 27 26 28 36 32 2 0 0 0 0 0
1 27 27 10 7 3 0 0 1 1 0 0 0 0 0 0
19 35 28 21 21 12 1 0 0 16 48 61 81 101 114 119
119 113 105 108 99 75 66 97 95 92 90 91 86 90 92 92
92 84 78 84 92 99 115 117 114 104 82 42 4 18 20 19
20 22 22 23 24 25 26 26 27 27 28 28 28 28 29 29
29 29 29 29 29 29 28 19 2 1 15 27 29 29 30 29
28 28 28 29 29 29 29 28 28 28 28 26 26 25 27 28
14 16 16 16 19 25 24 26 37 31 1 0 0 0 0 0
0 26 23 4 1 0 0 0 4 5 1 0 0 0 0 0
19 36 29 16 24 19 0 1 0 21 49 62 83 100 113 119
118 110 111 111 89 50 53 85 80 97 109 111 112 110 106 95
78 62 60 85 104 105 111 117 114 104 85 48 1 16 24 24
25 26 27 27 28 28 29 29 29 30 30 29 30 30 30 31
30 31 30 24 20 15 24 17 6 2 12 27 29 29 29 29
29 29 29 29 29 29 29 29 29 28 28 27 26 25 25 27
12 15 15 18 22 27 27 31 37 31 2 0 0 0 0 0
0 28 18 0 0 0 0 0 1 8 7 1 0 0 0 0
19 36 30 12 20 18 1 0 0 26 50 63 84 100 111 117
119 110 111 106 76 58 74 87 104 117 118 116 110 114 114 115
106 81 50 70 108 108 111 117 112 102 87 52 1 17 28 28
29 28 29 29 29 29 30 30 31 30 31 31 31 31 31 31
32 31 22 2 0 2 19 16 1 0 12 27 29 30 30 29
29 29 29 28 29 28 28 28 29 28 28 28 27 25 23 25
15 13 0 1 5 7 12 17 22 25 2 0 0 0 0 0
0 29 19 0 0 0 0 0 1 9 11 7 3 0 0 0
19 37 31 15 15 16 2 0 0 26 48 63 80 95 106 114
116 113 109 102 96 88 90 99 109 117 117 111 107 108 110 114
112 103 80 57 94 108 111 115 108 99 86 53 2 11 28 29
30 30 31 30 31 31 31 31 32 31 32 32 32 32 32 31
32 32 26 17 21 24 27 20 1 0 11 26 29 29 30 29
30 29 29 29 29 29 28 29 29 28 27 27 28 27 25 22
18 14 0 0 0 0 0 0 0 12 2 0 0 0 0 0
0 28 16 0 0 0 0 1 10 13 13 11 6 0 0 0
17 36 32 20 18 16 5 0 0 23 46 61 81 92 103 109
111 111 108 98 97 93 94 103 110 116 116 107 98 97 102 111
110 103 91 76 88 103 111 113 102 95 84 53 1 2 27 30
31 31 31 31 31 31 32 32 31 32 32 33 33 33 31 32
32 32 32 31 30 29 29 21 2 0 11 26 29 29 30 29
29 29 29 29 29 28 29 28 28 28 27 27 28 27 27 24
18 15 0 0 0 0 0 0 0 10 1 0 0 3 1 0
0 27 14 0 0 0 0 1 12 16 14 4 2 0 0 0
16 36 34 23 16 6 4 10 8 17 46 60 79 90 100 106
107 106 100 95 97 95 98 102 105 104 94 85 83 86 86 89
95 101 94 83 89 101 113 114 102 91 81 53 1 1 23 32
32 32 31 32 32 32 32 32 32 32 32 33 33 33 32 33
32 32 31 31 30 29 29 25 7 0 16 27 29 29 30 30
30 28 29 29 29 28 29 28 29 28 28 28 28 27 27 24
19 15 0 0 0 1 0 0 0 10 1 0 2 13 7 1
0 28 12 0 0 0 0 0 1 10 8 0 0 0 0 0
14 36 35 22 12 6 37 45 34 19 45 61 78 90 99 103
107 102 95 90 91 90 92 91 87 85 91 96 98 100 96 91
85 84 88 87 86 94 106 108 98 90 78 52 1 4 22 33
32 32 32 31 32 32 32 32 32 32 32 33 33 33 33 33
33 33 32 31 31 30 28 25 15 8 22 28 30 30 31 30
30 30 29 28 28 28 28 29 28 28 28 27 28 28 28 25
16 14 0 0 1 11 3 0 0 9 2 0 6 13 10 3
0 28 11 0 0 0 0 0 0 8 9 0 0 0 0 0
10 36 34 14 8 19 52 49 41 28 43 62 77 89 96 101
105 97 90 87 80 79 78 80 82 91 100 105 109 107 107 103
95 80 77 79 79 87 99 107 99 86 77 52 1 10 25 32
32 33 32 32 33 33 33 32 33 32 32 33 33 32 32 32
32 32 32 32 31 30 29 25 23 22 26 30 30 30 31 30
30 29 29 29 29 29 29 29 29 28 28 28 28 28 27 25
16 14 0 0 6 15 6 2 0 13 19 13 20 20 19 14
7 30 11 0 0 0 0 0 0 7 12 0 0 0 0 0
7 36 32 9 9 42 66 63 63 57 46 61 74 89 96 101
101 98 87 75 72 72 75 81 88 101 107 114 117 117 117 109
100 87 75 68 69 77 92 102 97 87 74 55 21 25 32 33
33 32 32 33 32 33 32 32 33 33 33 32 33 33 33 32
33 32 32 32 32 31 29 27 25 26 29 30 30 30 31 30
30 30 30 30 30 29 29 29 29 28 28 28 27 27 26 24
15 14 0 0 2 7 2 0 0 15 35 33 38 37 36 37
38 41 15 0 1 0 0 0 0 8 13 0 0 0 0 0
4 32 31 8 9 53 67 65 67 57 47 61 74 85 94 96
95 92 83 74 70 69 76 86 95 105 112 113 117 116 117 111
103 94 81 69 62 67 83 92 96 88 76 57 49 38 32 32
32 32 32 33 32 33 32 33 33 33 32 32 33 32 32 32
32 32 32 31 31 30 30 28 27 29 31 31 30 30 30 29
29 30 29 29 29 29 28 27 28 28 27 27 26 26 27 24
16 16 4 0 0 0 0 0 0 14 36 36 40 38 39 43
47 46 28 15 17 12 6 4 6 13 16 5 4 2 1 0
5 26 30 8 15 56 60 60 66 56 50 60 73 84 91 94
90 88 80 76 69 69 73 81 94 102 108 108 109 108 108 108
105 98 86 72 58 58 75 84 90 86 75 61 73 53 32 32
33 33 32 33 33 32 32 31 32 32 32 32 32 32 33 33
33 33 32 32 31 31 30 29 29 30 31 31 30 29 30 31
30 30 30 29 28 28 29 28 27 27 26 25 25 24 24 23
17 18 15 3 0 0 0 0 0 13 34 34 36 36 38 43
46 46 36 30 31 29 27 26 26 25 24 20 18 16 15 15
18 28 33 16 26 55 55 74 59 53 54 61 71 82 87 87
88 81 76 73 70 68 72 74 86 96 96 97 96 93 94 99
96 92 82 67 56 53 65 80 84 80 72 60 81 63 31 32
33 32 32 32 32 32 32 32 32 32 32 33 32 33 32 33
33 32 32 31 31 31 30 29 30 30 30 29 30 29 30 30
29 29 28 28 28 27 27 27 26 27 25 25 25 24 23 23
17 18 11 0 0 0 0 0 0 13 34 31 33 34 34 35
33 33 32 31 33 33 31 30 31 32 30 29 27 26 25 23
25 30 38 31 35 51 57 68 60 55 53 62 72 80 84 80
84 85 82 74 70 66 67 67 73 84 89 85 78 78 82 85
83 80 74 61 56 56 62 75 78 77 67 67 80 68 34 32
33 33 33 32 33 33 32 32 32 32 32 32 32 32 32 32
32 33 32 31 32 31 30 29 30 31 30 30 31 30 30 30
30 29 28 28 28 27 27 26 26 25 25 24 23 24 24 23
19 18 8 0 0 0 0 0 0 14 36 30 31 32 32 32
29 29 32 33 34 36 35 35 33 33 32 31 34 36 34 32
31 34 39 38 39 46 55 54 55 58 53 61 70 75 76 77
77 78 77 79 71 70 66 66 64 66 74 84 83 81 82 80
73 69 60 59 56 60 65 70 73 70 64 72 89 65 36 32
32 32 32 32 32 31 32 32 31 31 32 32 32 31 31 32
32 32 31 31 31 31 30 30 31 32 31 30 30 30 30 29
29 29 28 28 27 26 25 25 25 24 24 23 23 23 23 22
18 18 23 22 21 16 14 13 11 22 38 32 32 32 32 32
33 34 37 34 35 37 40 40 34 30 31 32 38 41 39 37
37 37 33 29 27 47 59 55 70 74 61 57 68 70 70 72
75 76 75 79 78 71 67 67 65 66 74 80 87 86 81 81
78 70 66 61 54 62 65 70 68 65 60 69 82 66 38 31
32 32 32 32 32 32 32 31 31 31 31 32 32 32 32 32
32 32 32 32 31 31 31 31 31 31 30 30 30 30 29 29
29 28 28 27 26 26 25 25 24 23 23 22 22 22 22 22
18 18 34 40 41 38 38 41 41 41 41 35 33 33 33 34
36 38 41 36 36 38 42 40 36 32 28 29 39 42 39 37
38 37 34 30 25 45 68 70 74 81 64 51 65 66 68 65
69 74 70 72 73 69 69 69 69 71 77 82 85 85 88 82
79 74 69 61 61 64 64 67 61 62 57 61 69 64 37 31
31 32 32 32 32 32 31 31 32 32 31 32 32 32 32 32
31 31 30 30 31 31 31 31 31 30 30 30 29 29 28 28
28 27 27 26 25 24 24 24 23 22 22 21 21 20 20 19
18 19 36 45 45 45 44 45 45 45 42 31 28 27 26 28
31 38 43 38 36 35 33 34 35 33 30 26 33 32 29 30
33 34 34 33 29 33 61 71 73 77 74 49 62 65 65 62
61 59 64 60 63 64 66 66 73 74 75 78 82 86 85 85
81 76 68 65 62 65 66 64 60 54 52 77 74 65 36 31
32 33 32 32 33 32 31 31 31 31 31 32 31 31 31 32
31 30 30 31 31 31 31 30 31 31 30 29 29 30 28 28
28 27 26 25 25 24 23 23 22 21 21 19 19 19 19 19
19 17 25 32 33 35 36 37 39 40 38 12 7 5 4 4
8 15 35 38 34 20 13 17 19 19 22 29 28 13 5 3
7 13 17 28 31 29 37 54 66 71 61 39 56 63 60 59
50 54 53 52 54 60 62 68 76 74 79 80 84 88 89 87
86 76 71 67 67 65 65 62 58 52 51 77 73 65 34 32
32 32 32 32 32 32 31 31 31 30 31 31 31 31 31 30
29 29 28 27 25 24 27 30 31 30 30 30 29 29 29 28
27 26 26 25 23 23 22 22 21 20 20 19 18 19 19 19
20 17 22 25 26 25 25 25 25 26 28 7 0 0 0 0
0 1 28 38 26 3 0 0 2 6 15 31 30 9 0 0
0 3 10 24 21 19 22 25 22 17 6 23 51 60 61 59
52 49 52 53 55 56 64 69 77 79 83 85 86 87 88 83
81 75 71 62 61 64 61 61 56 52 58 79 63 46 31 32
32 32 32 32 32 31 30 28 28 28 28 30 31 32 31 27
15 13 12 10 9 10 21 32 32 31 30 29 29 29 28 27
27 25 25 25 24 22 22 22 21 20 20 19 19 19 19 18
19 17 26 30 30 29 30 29 29 28 29 10 1 0 0 0
0 8 30 36 14 0 0 0 0 0 15 32 30 10 0 0
0 1 9 22 8 1 5 4 1 0 1 29 44 54 57 54
48 48 54 58 57 57 66 74 79 83 89 90 87 85 90 84
81 73 66 60 56 55 56 54 51 50 37 60 46 33 32 33
32 26 23 21 19 16 14 11 10 11 14 25 31 32 32 26
8 5 5 5 5 6 19 31 31 31 31 30 30 29 29 27
26 26 25 24 23 22 21 21 20 19 19 19 19 19 19 19
19 17 27 32 33 33 33 33 33 34 31 10 2 0 0 0
0 8 30 34 7 0 0 0 0 0 11 33 30 9 0 0
0 0 8 23 7 1 10 7 0 0 0 23 45 39 43 41
41 50 59 65 66 64 67 72 81 86 91 91 90 88 86 85
82 73 65 61 60 53 53 52 49 38 24 31 32 32 32 32
28 11 6 7 8 8 5 3 3 2 3 21 31 31 31 25
8 5 5 6 6 6 19 32 32 31 31 30 29 28 28 27
26 26 25 24 23 22 21 20 20 19 19 19 19 17 18 17
20 19 28 33 33 33 32 33 34 36 33 9 1 0 0 0
3 1 24 31 4 0 0 0 0 0 11 32 29 10 0 0
0 0 5 23 9 1 6 5 0 0 0 12 47 45 36 36
43 53 60 66 68 66 69 75 83 90 92 94 92 92 89 85
81 74 67 65 63 57 53 52 47 21 31 32 32 32 33 32
27 8 3 6 7 7 4 2 3 2 2 18 30 32 31 24
8 6 6 6 5 6 16 30 32 31 31 30 29 28 27 27
26 25 24 22 21 21 20 18 19 19 19 18 18 17 17 18
25 25 27 29 29 30 23 13 18 29 36 12 0 0 0 0
4 1 21 30 2 0 0 0 0 0 11 32 27 8 0 0
0 0 0 22 11 1 5 3 0 0 0 8 51 52 50 46
49 57 61 71 71 72 74 78 86 93 97 101 95 93 90 91
81 77 72 72 68 59 52 46 32 22 32 32 32 32 32 31
26 9 2 5 7 7 5 2 3 2 2 17 30 30 30 24
7 5 5 5 5 5 13 30 31 30 29 29 28 27 27 25
25 24 22 22 21 20 20 19 19 18 18 18 17 17 17 16
23 25 25 26 27 27 17 0 1 20 39 20 3 0 0 0
4 0 18 29 1 0 0 0 0 0 9 33 27 11 0 0
0 0 0 21 13 0 5 4 0 0 0 11 55 56 58 58
56 57 61 67 68 73 76 81 89 97 101 102 99 100 94 91
83 77 76 74 70 60 50 39 30 25 32 32 32 32 32 32
27 9 3 5 8 7 5 1 3 2 3 18 31 31 31 26
10 7 7 7 8 8 12 28 29 28 27 28 27 27 26 26
24 24 23 23 21 20 19 19 18 17 16 16 16 17 16 16
23 24 25 25 26 26 18 0 0 16 39 17 1 0 0 0
3 1 18 29 1 0 0 0 0 0 5 32 27 12 0 0
0 0 0 20 16 0 0 0 0 1 1 14 57 62 68 68
62 61 63 64 69 74 77 85 96 102 102 102 103 101 98 91
86 81 75 73 67 60 51 49 44 27 31 31 31 32 32 31
27 9 2 4 7 7 5 2 2 2 3 17 30 30 31 27
14 12 12 12 12 11 16 25 26 27 29 29 28 27 26 25
24 23 22 22 20 18 18 18 17 16 16 16 16 16 16 15
13 14 16 19 22 25 20 0 0 12 36 11 0 0 0 0
0 0 17 30 2 0 0 0 0 0 4 32 28 10 0 0
0 0 0 16 21 0 0 0 0 2 9 16 59 69 76 75
71 69 65 63 66 72 81 89 100 104 105 107 110 106 100 95
86 81 76 73 68 62 55 55 55 27 31 31 32 32 32 31
27 10 3 4 5 4 3 2 2 2 2 16 31 31 32 28
12 8 8 5 1 0 2 3 3 5 27 29 28 27 27 26
25 23 21 21 20 19 19 17 17 16 16 16 16 16 15 16
0 0 0 8 21 25 21 1 0 9 32 8 0 0 0 0
0 0 15 33 4 0 0 0 0 0 3 31 29 13 1 0
0 1 2 17 25 0 0 0 0 3 20 25 65 76 83 80
75 75 72 68 67 71 84 95 104 110 113 114 115 108 103 97
89 85 77 69 71 65 61 63 62 33 30 31 31 31 31 31
27 11 3 3 2 1 2 2 3 2 2 15 30 32 31 28
11 5 6 2 0 1 4 19 11 1 25 29 28 26 26 25
23 22 21 20 19 18 18 17 17 16 16 15 16 15 15 15
0 0 0 8 23 23 21 3 0 6 30 13 2 1 1 2
11 8 17 35 16 9 8 10 10 9 14 34 30 25 24 24
24 25 28 35 30 7 5 4 4 7 24 33 69 83 91 85
77 75 75 71 69 73 88 97 107 116 118 117 118 112 108 101
90 84 77 78 75 69 66 69 70 42 30 31 31 32 32 31
27 10 3 2 0 0 2 2 3 2 1 13 30 31 31 27
12 5 6 3 0 0 1 5 1 0 24 28 27 26 26 24
23 21 20 19 19 18 17 17 16 16 16 15 15 15 14 15
0 0 0 6 24 23 21 3 0 3 29 29 27 23 23 28
35 33 33 35 39 38 35 36 37 38 39 41 32 28 34 37
38 41 46 47 40 26 25 25 25 25 30 38 70 88 93 91
81 83 81 77 67 74 91 102 114 119 120 118 117 113 109 102
94 83 79 80 77 71 72 79 74 40 30 31 31 32 32 31
27 11 3 3 2 3 6 3 3 3 1 13 29 30 31 27
11 4 5 3 0 0 0 0 0 0 24 28 26 24 25 23
22 21 20 19 18 18 17 17 16 16 16 16 15 14 14 14
0 0 0 4 23 22 21 5 0 1 28 36 35 31 33 40
43 38 35 31 40 44 41 41 41 43 44 43 36 26 32 35
38 42 46 46 41 29 28 27 28 29 29 40 74 92 97 92
85 87 83 81 68 75 95 107 118 120 120 119 119 118 112 105
97 88 80 83 82 78 75 77 71 48 29 30 31 32 33 31
27 12 4 3 1 0 3 2 4 3 1 12 29 30 31 27
12 4 5 1 0 0 0 0 0 0 20 14 7 6 18 23
22 21 20 19 18 17 17 16 16 15 15 15 14 14 14 14
0 0 0 3 22 21 20 5 0 0 25 34 31 27 31 38
43 39 33 29 31 34 35 34 33 34 34 33 31 23 25 29
31 32 32 30 31 28 28 28 28 28 29 44 77 95 98 97
88 83 81 76 71 78 96 106 116 120 120 119 119 117 112 105
97 89 79 85 81 80 81 87 80 95 50 30 31 32 32 29
25 13 4 2 0 0 2 2 3 3 1 11 28 30 31 27
11 3 4 0 11 17 1 0 0 0 6 14 21 12 4 22
21 19 19 17 17 17 16 16 15 15 15 15 14 13 14 14
0 0 0 1 20 21 19 7 0 0 23 30 23 25 25 31
40 40 35 31 23 21 22 22 23 22 23 24 27 26 27 29
30 29 27 24 26 28 28 29 29 29 38 71 78 98 101 102
98 95 87 71 72 83 99 105 112 119 119 119 119 117 110 104
99 89 80 87 88 89 92 93 80 112 95 33 31 31 32 29
27 14 3 2 1 0 2 2 3 3 0 11 28 29 31 28
12 4 4 3 24 39 10 0 0 5 23 26 25 23 4 18
20 19 18 18 18 16 16 15 15 14 14 14 13 14 13 13
0 0 0 1 19 20 18 9 0 5 26 28 10 12 14 19
25 27 26 30 26 23 24 24 28 29 28 28 30 31 32 35
36 35 30 27 27 28 29 29 29 30 63 101 80 98 102 104
105 100 92 79 72 83 98 102 108 117 120 120 118 113 107 103
98 90 83 91 94 95 98 97 78 118 110 57 46 41 36 30
27 15 4 3 3 2 3 2 3 4 1 10 28 29 31 28
13 4 4 1 8 16 8 0 0 11 27 26 25 24 8 15
21 19 18 18 17 16 16 15 15 15 15 14 14 15 14 14
0 0 0 0 17 19 17 15 17 23 32 26 1 0 0 1
3 7 12 29 29 31 34 31 40 43 33 26 27 28 29 33
36 40 33 29 28 27 29 29 29 34 85 113 82 100 104 107
110 103 95 84 79 86 96 97 99 112 120 120 114 108 108 103
99 95 87 93 98 102 105 94 84 120 111 92 82 89 101 93
65 27 5 4 4 3 3 2 3 4 2 10 28 30 32 29
15 6 7 1 1 1 0 0 0 10 27 26 25 23 9 15
21 19 18 18 18 17 16 15 15 15 14 14 14 14 13 13
0 0 0 0 16 18 17 22 34 37 39 28 1 0 0 0
0 0 9 32 29 34 38 32 41 44 22 4 4 5 5 8
22 39 35 30 29 29 30 30 29 55 98 117 85 99 108 110
112 108 97 84 83 90 100 102 103 106 119 118 111 109 110 104
101 98 92 94 101 106 108 80 97 120 113 104 70 90 106 119
119 112 78 30 5 4 4 3 4 5 2 10 29 30 32 30
25 17 10 3 0 0 0 0 0 7 27 26 26 24 9 17
20 19 19 17 17 17 16 16 16 16 16 16 16 15 15 15
0 0 0 0 14 19 17 22 36 39 41 33 2 0 0 0
0 0 5 34 29 33 35 12 14 25 17 0 0 0 0 0
15 39 36 30 30 32 35 40 47 80 105 118 105 85 110 114
114 112 100 87 87 92 99 101 103 104 115 114 107 111 111 105
102 101 97 97 104 110 108 69 113 118 116 115 72 95 112 115
119 119 118 115 84 39 12 4 5 5 3 11 29 30 32 31
30 13 12 20 2 0 0 0 0 7 28 27 26 23 8 21
21 20 20 19 18 18 17 16 16 16 15 15 15 14 14 15
0 0 0 0 14 19 17 21 31 32 32 24 1 0 0 0
0 0 5 35 29 33 33 5 1 18 18 0 0 0 0 0
12 40 48 58 70 86 86 67 64 96 103 116 121 83 108 117
117 115 104 88 90 97 100 102 105 106 111 114 112 115 114 106
103 104 100 100 109 113 98 87 120 119 120 119 91 98 120 117
119 118 119 119 119 116 102 74 44 20 7 12 29 32 32 32
32 17 21 34 8 0 0 0 0 6 26 25 23 12 13 21
14 12 18 20 18 17 16 17 17 16 16 15 15 16 15 16
0 0 0 0 11 19 16 15 13 13 15 7 0 0 0 0
0 0 6 36 30 34 34 6 1 17 21 0 0 0 8 33
71 105 114 109 113 118 108 55 75 106 101 107 123 100 91 119
119 116 107 89 92 102 102 102 107 110 113 114 116 118 112 107
101 104 102 104 112 113 79 108 119 118 120 118 106 101 119 119
119 119 119 119 120 119 119 117 114 107 89 62 45 29 24 21
18 8 4 7 2 0 0 0 0 0 4 3 2 0 8 13
9 21 15 18 18 18 17 17 17 16 15 15 15 15 15 16
0 0 0 0 9 18 15 15 11 11 14 5 0 0 0 0
0 0 6 36 29 35 34 6 2 15 23 12 45 85 111 118
119 119 112 115 122 122 112 65 101 112 105 103 120 118 81 113
120 118 110 95 95 99 102 105 112 114 115 117 119 118 114 109
103 106 105 108 113 99 78 116 120 118 120 119 112 106 120 119
119 119 119 119 119 118 118 118 118 118 117 116 110 96 64 24
2 0 0 0 0 0 0 0 0 0 0 0 0 0 4 9
65 87 34 17 17 16 16 16 16 16 15 15 15 15 15 16
0 0 0 0 8 18 15 14 13 13 15 5 0 0 0 0
0 0 4 34 29 35 35 7 10 46 84 107 115 117 121 121
119 120 120 122 122 122 112 88 108 114 107 104 112 122 98 90
120 119 113 100 100 107 106 107 116 118 119 119 120 119 117 111
105 107 109 111 111 76 98 119 120 118 119 118 118 110 119 118
119 119 119 119 119 119 118 118 118 118 118 118 117 117 116 111
86 34 7 7 8 8 9 11 11 11 9 3 0 0 11 12
61 63 39 5 5 8 17 16 16 17 16 15 15 15 15 16
0 0 0 0 7 17 15 14 15 15 16 5 0 0 0 0
2 0 2 33 31 36 45 63 102 119 122 122 122 123 122 121
122 122 122 122 122 122 104 94 109 114 110 109 108 123 119 84
105 120 114 103 104 109 107 109 117 120 121 120 120 120 119 111
106 108 110 112 93 75 115 120 120 119 119 119 119 113 120 119
119 119 119 119 119 118 118 119 118 118 118 118 118 118 118 118
119 112 78 26 14 14 15 15 15 13 11 5 0 0 0 0
0 0 0 2 0 7 20 19 19 20 19 18 18 18 18 18
0 0 0 0 6 16 14 13 16 17 17 6 0 1 0 0
8 9 3 34 51 83 113 122 123 123 123 122 123 122 123 122
122 122 123 123 122 122 104 93 109 114 110 110 108 119 122 104
85 110 117 107 107 110 109 111 117 120 121 120 120 120 118 111
107 110 111 106 69 94 117 52 106 119 119 119 118 113 120 119
119 119 119 119 119 119 119 118 119 118 118 118 118 117 118 118
118 118 117 106 49 16 16 17 15 14 12 5 0 0 0 0
0 0 0 2 1 7 16 14 13 12 11 9 9 7 6 5
0 0 0 0 5 16 14 13 16 17 18 9 1 4 0 0
10 19 32 85 120 123 122 122 122 122 123 123 123 122 123 122
122 123 122 122 122 122 113 78 110 113 109 111 109 113 122 119
89 91 113 110 106 110 111 114 117 120 121 121 121 121 118 110
109 109 108 82 65 107 114 30 86 121 120 120 119 107 120 119
119 119 119 119 119 118 118 119 119 118 118 118 119 118 119 118
118 118 119 119 114 57 18 17 16 15 12 5 0 0 0 0
0 0 0 0 16 20 20 20 21 22 22 24 24 25 26 27
0 0 0 0 4 16 14 13 16 17 18 20 16 20 21 22
41 91 121 121 121 122 122 122 122 121 122 122 122 122 122 123
123 123 123 122 122 122 121 85 113 112 110 111 110 109 119 105
106 80 93 110 107 109 111 113 116 120 120 120 119 118 113 108
110 110 97 62 71 115 119 51 84 121 120 119 117 101 120 119
119 119 119 119 118 118 118 118 118 118 119 118 119 118 118 118
118 118 118 118 118 112 46 18 18 16 14 7 0 0 0 0
0 0 0 3 33 34 33 33 33 33 33 33 33 32 33 33
0 0 0 0 4 15 13 12 17 19 19 29 36 38 41 79
117 118 119 122 122 122 122 122 122 122 122 122 122 122 122 122
122 122 122 122 122 122 122 99 117 112 110 111 111 109 97 37
115 89 81 98 107 109 111 112 115 118 119 119 119 115 110 111
112 110 84 64 101 118 114 45 93 120 119 119 112 109 119 119
119 119 119 119 119 118 118 119 118 118 119 119 118 118 119 118
119 118 118 118 118 116 102 36 18 16 15 7 0 0 0 0
0 0 0 6 34 34 34 33 33 32 32 31 32 32 32 33
0 0 0 0 3 15 12 12 16 19 19 27 40 44 90 117
118 122 123 123 122 122 122 123 122 122 122 122 122 122 122 122
122 122 122 121 121 121 122 109 115 114 111 112 111 111 101 35
110 101 76 82 105 109 112 112 114 116 116 117 116 113 111 111
112 106 68 83 114 120 101 47 105 119 120 119 107 116 119 119
119 119 119 119 119 118 118 118 118 119 118 118 118 118 118 118
118 118 118 118 117 117 116 96 25 17 16 7 0 0 0 0
0 0 0 8 34 34 34 33 33 32 32 32 32 32 32 32
0 0 0 0 3 15 12 11 16 19 19 20 35 89 111 119
123 123 123 122 122 122 122 123 123 122 122 123 122 122 122 122
122 121 122 121 121 121 121 118 101 116 111 112 112 113 116 39
83 116 77 71 91 109 112 113 116 117 116 116 113 113 113 115
114 92 62 105 117 119 77 61 117 119 119 114 108 119 119 119
119 119 119 119 119 119 119 118 118 119 119 118 118 119 118 118
119 118 118 117 118 117 116 116 71 18 17 6 0 0 2 5
0 0 0 9 34 33 33 32 32 32 32 32 32 32 33 32
0 0 0 0 2 14 12 11 15 19 18 19 86 110 111 121
123 123 123 122 122 122 122 122 122 123 122 122 122 122 122 122
121 122 122 122 122 121 121 122 99 110 113 111 113 112 116 73
54 117 96 70 71 104 114 113 115 118 118 117 117 117 117 116
109 67 87 115 120 102 49 87 119 119 118 107 117 119 119 119
119 118 118 119 119 119 118 119 119 118 119 118 119 118 118 118
118 117 118 118 118 118 117 118 115 74 20 6 0 0 23 32
4 0 0 11 34 33 33 32 32 32 32 31 32 32 32 32
0 0 0 0 2 13 12 11 15 19 23 77 112 110 115 123
122 123 122 122 122 123 122 122 122 122 122 122 122 122 122 122
122 121 122 121 121 121 121 121 113 92 113 111 112 113 113 111
40 104 114 80 68 84 111 113 116 118 119 119 119 118 119 115
90 75 115 118 118 54 53 111 119 118 114 111 119 119 119 119
119 119 119 119 120 119 119 119 119 118 118 118 118 118 118 118
118 118 118 117 118 117 118 117 117 115 67 6 0 0 11 12
0 0 0 13 34 33 33 32 32 31 32 32 32 31 31 32
0 0 0 0 2 14 12 11 15 21 72 115 118 114 115 122
122 122 122 123 123 122 122 122 122 122 122 122 122 121 122 122
122 121 122 121 121 121 121 121 121 94 106 113 111 112 112 114
53 69 117 95 73 71 104 114 115 116 119 118 119 117 117 106
76 110 119 119 87 30 75 118 119 117 112 117 119 119 119 119
119 119 119 118 119 119 119 118 119 119 119 118 118 118 118 118
118 118 118 117 118 118 117 117 118 117 100 17 0 0 0 0
0 0 0 16 33 33 32 32 33 32 32 32 32 32 32 32
0 0 0 0 4 16 14 11 16 49 106 115 122 119 118 118
123 123 122 122 123 122 122 122 122 122 122 122 122 122 122 123
122 122 122 122 121 121 121 121 121 117 86 116 115 110 110 111
93 47 104 112 78 69 84 113 115 116 119 119 119 118 115 84
98 114 109 119 77 32 103 119 119 115 117 119 119 119 119 119
119 119 119 119 119 119 118 118 119 118 118 118 118 118 119 118
118 118 118 118 118 117 117 117 118 118 111 43 0 0 0 0
0 0 0 18 33 32 32 33 32 32 32 32 31 31 31 32
4 4 5 6 10 13 12 12 18 83 104 120 122 122 122 113
122 123 123 122 122 122 122 122 122 122 122 122 122 122 122 122
122 122 122 122 122 122 121 121 121 121 107 112 119 113 110 111
109 52 100 117 102 81 75 98 113 116 117 119 119 115 92 90
118 116 117 118 73 46 117 120 118 117 119 119 119 119 119 119
119 119 119 119 119 118 119 118 118 118 118 118 118 119 119 118
118 118 118 117 118 118 117 118 118 117 117 91 5 0 0 0
0 0 0 20 33 32 32 32 32 32 32 32 31 31 31 31
9 9 9 8 9 9 10 12 35 104 113 122 123 123 123 117
119 122 122 122 122 122 122 122 122 122 122 122 122 122 122 121
122 122 121 122 121 121 121 121 121 121 120 110 119 120 114 112
112 74 91 107 86 100 97 87 108 114 112 115 114 97 80 116
120 119 118 118 84 80 119 119 118 119 119 119 119 119 119 119
119 119 119 119 119 119 118 118 118 118 118 118 118 118 118 119
118 118 118 118 118 117 117 117 118 117 117 113 42 0 0 0
0 0 0 18 33 32 32 32 32 31 31 31 31 31 31 31
8 8 9 9 9 11 11 13 67 104 118 121 123 122 123 121
118 122 123 122 122 122 122 122 122 122 122 122 122 122 122 122
122 121 121 121 122 121 122 121 121 121 121 120 115 121 119 114
113 95 84 117 118 117 115 85 90 105 113 110 96 78 97 119
119 118 119 119 114 108 120 119 119 119 119 119 119 119 119 119
118 118 119 118 118 118 118 118 118 118 118 118 118 118 118 118
118 118 117 117 117 117 117 117 117 117 118 117 92 7 0 0
0 0 0 8 30 32 32 32 31 31 31 31 31 31 31 31
8 8 8 7 8 9 9 19 93 106 122 122 123 123 123 122
117 122 122 122 122 122 122 121 121 122 121 122 122 122 122 122
121 122 122 122 121 121 121 121 120 120 120 120 120 118 121 118
117 109 70 115 120 120 119 94 87 91 106 98 83 90 117 119
119 119 119 119 119 114 118 118 118 119 119 119 119 118 119 118
119 118 119 118 118 118 118 118 118 118 118 118 118 118 118 118
118 118 117 117 117 118 117 117 116 117 117 116 110 42 0 0
0 0 0 15 20 31 31 31 31 31 31 30 30 30 30 30
1 1 1 1 3 7 9 40 102 112 122 122 122 122 122 122
116 122 122 122 122 122 122 122 122 122 122 122 122 122 122 122
122 121 121 121 122 122 121 121 121 121 120 120 121 120 119 120
119 114 63 108 116 120 119 104 92 88 90 85 84 111 119 119
119 119 119 119 119 117 118 118 119 119 120 119 119 119 119 118
118 118 118 118 118 117 117 118 118 118 118 118 119 118 118 117
117 117 118 117 117 117 117 116 117 118 118 118 115 90 18 6
0 0 1 26 14 26 31 31 31 30 30 30 30 30 30 30
0 0 0 0 1 7 13 73 102 114 123 122 122 122 123 122
115 121 122 121 121 122 121 121 122 122 122 122 121 122 122 122
122 122 121 121 121 120 121 121 121 121 120 119 120 121 118 120
120 120 87 106 102 113 119 116 98 83 62 86 102 119 119 119
119 119 119 119 119 117 119 119 119 119 119 119 119 119 118 118
118 118 118 118 118 117 117 117 118 117 117 118 118 117 117 118
117 118 118 116 117 117 117 117 116 117 117 117 116 109 104 58
0 0 2 29 24 16 31 30 30 30 30 30 29 29 29 29
0 0 0 0 0 6 30 98 103 116 122 122 123 122 122 122
113 120 122 121 122 122 122 121 122 122 122 121 122 121 121 121
121 121 120 121 121 121 121 121 121 121 121 121 121 121 119 117
121 119 114 104 103 97 108 118 115 103 80 118 120 119 119 119
119 119 119 119 119 119 118 119 119 118 118 119 118 118 118 118
118 118 118 118 118 117 117 117 118 118 118 118 118 118 117 117
118 117 116 115 117 117 117 116 117 117 117 117 117 112 110 57
0 0 3 29 30 15 23 30 30 29 29 30 30 30 30 29
0 0 0 0 1 7 62 100 109 116 121 123 122 122 122 122
111 120 122 122 121 121 122 121 121 121 121 121 122 122 122 122
122 121 121 121 121 121 121 120 121 120 121 120 121 121 121 117
120 120 119 119 117 111 105 105 115 102 68 113 119 119 119 119
120 119 119 119 119 118 112 118 119 119 119 118 118 118 117 118
117 118 118 118 118 117 117 117 117 117 117 117 117 118 117 117
118 118 116 113 117 117 117 117 116 117 117 116 117 113 113 37
0 0 4 30 31 21 6 17 30 30 30 29 29 29 29 28
1 2 1 0 3 16 96 98 114 117 119 122 122 122 122 122
110 118 122 122 122 122 122 121 122 122 121 121 121 122 121 122
121 121 121 121 120 120 121 120 121 121 121 121 121 121 121 119
118 118 115 119 119 114 106 103 104 108 77 96 121 119 120 119
120 119 119 119 118 118 115 119 118 119 118 118 118 118 118 118
117 118 118 118 118 117 117 117 117 117 118 118 118 118 118 118
117 117 105 114 117 118 117 117 116 117 118 117 117 114 116 78
1 0 3 23 20 3 4 2 28 30 30 29 29 29 29 29
5 5 5 5 9 44 111 98 117 118 116 122 122 122 123 122
112 118 122 122 121 122 122 122 121 122 122 121 122 122 121 121
122 122 121 121 121 120 121 121 121 121 120 121 120 121 120 120
119 118 113 120 120 120 119 116 112 104 96 86 119 119 119 119
119 119 119 119 119 119 119 119 119 119 119 118 118 118 118 118
118 118 118 119 118 117 117 117 117 117 117 117 117 117 118 118
117 116 90 118 117 117 118 117 116 117 117 117 116 115 116 106
20 0 0 4 11 15 25 3 26 29 29 29 29 28 28 28
6 5 6 6 9 78 113 101 118 121 115 123 123 122 122 123
113 118 122 122 122 122 122 121 121 122 122 121 121 121 121 121
121 121 122 121 121 121 121 121 121 121 121 121 121 121 121 121
120 120 120 119 119 120 120 119 119 114 103 106 120 119 120 120
120 119 119 119 119 119 119 119 119 119 119 119 119 119 119 118
118 118 119 118 119 118 118 118 117 117 117 118 119 118 118 117
117 113 85 119 118 117 117 117 116 117 117 117 117 115 117 115
60 0 0 1 3 10 18 1 20 28 29 28 28 28 28 28
0 0 1 2 22 104 113 101 117 122 115 122 122 122 123 122
115 117 123 122 122 122 122 122 122 121 121 121 121 122 122 121
122 121 121 121 121 121 121 120 120 120 120 120 121 120 120 121
121 121 120 119 120 120 120 120 119 97 109 117 120 119 119 119
119 119 119 119 119 119 119 119 119 118 119 119 119 118 118 118
118 118 118 119 119 118 118 118 117 117 118 118 118 118 118 118
118 112 99 118 118 118 117 117 115 117 117 117 116 115 116 116
97 10 0 0 0 0 0 0 4 19 28 28 28 28 28 27
