P2
128 120
156
30 67 72 66 63 61 60 61 62 63 66 71 73 55 49 48
47 47 47 46 46 46 46 46 45 45 44 44 43 43 44 43
42 42 41 41 40 40 39 38 38 37 37 36 35 35 34 34
34 33 32 32 31 31 30 30 29 28 28 27 26 26 26 26
25 24 25 24 24 25 26 30 30 29 28 21 19 18 29 27
27 26 25 24 25 24 22 23 21 21 22 25 25 25 26 26
26 27 27 27 28 28 29 29 29 29 29 29 29 30 31 31
31 31 32 32 33 34 34 34 35 36 35 35 36 37 36 37
24 58 62 28 5 6 9 11 11 10 9 41 69 67 70 64
57 49 47 46 46 46 46 46 45 45 44 44 44 44 43 43
42 41 41 40 40 40 39 39 39 38 37 37 36 36 35 35
34 33 33 32 32 31 30 30 30 29 29 28 28 27 27 26
26 25 25 24 24 25 27 29 29 29 29 22 19 19 29 28
27 26 26 26 25 24 23 23 22 21 23 26 26 26 27 27
28 28 28 28 27 28 28 28 28 29 29 30 31 31 32 32
32 32 33 33 34 34 35 35 35 36 36 36 36 38 37 37
21 53 56 26 0 0 0 10 1 0 0 30 66 60 62 54
54 50 51 59 59 60 56 51 46 45 44 44 44 43 42 43
42 42 41 41 40 40 40 39 38 38 37 37 36 36 35 34
34 33 33 33 33 32 32 31 31 30 29 29 28 27 27 27
26 26 26 25 25 26 27 31 31 31 30 23 21 21 27 28
27 27 26 26 25 25 24 25 23 22 24 27 27 27 28 28
28 27 27 28 28 29 29 29 30 31 31 31 31 32 33 32
32 32 33 33 34 35 34 35 36 36 37 37 37 38 38 38
19 53 57 28 0 0 0 15 5 0 0 24 64 59 57 12
8 20 33 44 53 58 61 62 50 45 44 44 45 44 44 44
44 43 42 41 41 40 40 39 39 39 39 38 38 37 36 35
35 35 34 33 33 32 32 31 31 30 30 30 29 29 29 28
27 27 27 26 26 27 28 31 32 31 31 24 23 23 27 30
29 28 28 27 27 27 25 25 24 22 25 27 28 27 28 28
29 29 30 30 30 30 30 31 31 30 31 32 32 32 34 33
34 34 35 35 35 34 35 36 36 37 37 37 38 38 39 38
17 52 58 30 0 0 1 5 1 0 0 18 64 60 55 9
0 0 0 0 3 8 36 62 51 45 45 44 45 44 44 43
43 42 42 42 41 41 40 40 40 40 39 39 38 38 36 37
36 35 35 34 34 34 33 32 32 32 31 31 30 30 29 28
28 27 27 27 27 28 28 33 33 33 33 25 23 26 26 31
30 29 29 28 27 28 26 27 25 23 23 28 29 30 30 30
31 30 31 31 31 31 32 32 32 32 32 33 33 34 35 33
35 35 35 35 36 36 36 37 37 37 38 38 38 39 40 39
14 49 56 35 0 2 9 13 10 0 3 13 62 60 53 10
0 0 0 0 0 0 26 63 52 45 46 45 45 44 44 44
44 43 43 42 42 42 41 41 40 39 39 39 39 38 37 37
37 36 35 35 35 34 33 32 33 32 32 32 31 31 30 29
29 28 28 28 28 28 29 33 33 32 32 25 24 28 25 31
31 31 30 29 29 29 27 27 27 23 27 29 30 30 31 31
31 30 31 32 32 31 32 32 32 33 33 33 34 33 35 34
34 35 35 36 36 37 37 37 38 38 38 38 39 39 40 39
14 48 60 47 0 22 12 1 2 0 5 9 60 58 53 11
0 1 8 1 0 0 24 62 51 46 45 45 45 45 44 43
44 43 43 42 42 42 41 41 39 39 40 39 39 39 37 36
37 36 36 35 35 34 34 34 33 33 32 32 31 31 31 30
29 29 28 28 28 29 29 33 34 33 34 27 24 30 24 32
31 31 30 29 29 29 28 27 26 24 28 30 30 30 31 31
32 31 32 31 32 33 33 33 33 33 34 34 35 34 35 35
35 36 36 36 36 36 37 37 38 38 38 38 38 37 38 40
17 49 63 54 2 23 6 1 4 0 3 5 61 61 56 11
1 14 18 6 0 0 22 60 51 45 44 45 45 45 44 43
43 43 43 42 42 42 42 40 40 40 39 39 38 38 37 37
37 36 36 36 35 34 34 34 33 33 33 32 31 31 31 30
30 30 29 29 28 29 30 34 35 33 34 26 25 32 24 31
31 31 30 30 29 30 28 27 27 23 28 29 30 30 31 31
32 31 33 32 33 32 32 33 33 33 34 34 34 35 35 35
36 36 37 37 37 37 38 37 37 37 38 38 39 39 39 39
17 46 59 60 12 16 6 0 0 0 6 7 55 60 56 13
0 7 11 7 0 0 20 60 51 45 45 45 44 44 43 43
43 42 42 42 41 41 41 41 40 40 40 39 39 38 38 37
37 36 36 35 35 35 34 34 34 33 33 32 32 31 31 30
30 30 29 28 29 28 30 34 34 34 34 27 24 32 24 32
32 30 31 29 29 30 28 28 27 23 28 30 31 31 31 31
33 31 32 32 32 32 33 32 33 33 34 34 35 35 36 35
36 35 35 36 36 37 37 38 39 39 39 39 39 39 40 40
26 45 54 59 15 13 3 4 0 0 0 4 49 58 55 13
0 2 8 10 3 0 20 59 50 44 44 44 43 44 44 43
43 43 42 42 42 41 41 41 40 40 39 38 38 38 37 38
37 37 37 36 36 35 35 34 34 34 33 32 32 31 31 30
30 29 29 29 29 29 31 34 35 34 34 27 25 33 23 32
32 31 31 31 29 29 28 29 28 23 28 30 31 31 31 32
33 32 33 33 33 33 34 34 34 35 34 34 35 35 34 34
34 36 36 36 38 37 39 39 38 39 40 39 40 40 40 40
58 44 45 51 17 14 4 10 8 7 9 11 44 56 57 16
0 1 7 15 5 0 19 59 50 44 44 44 44 44 44 43
43 43 43 42 41 41 41 41 40 40 39 39 39 39 38 37
37 36 36 36 36 35 34 35 33 33 33 33 32 32 31 31
31 30 29 29 30 29 30 34 35 35 34 27 25 34 25 32
33 32 31 31 29 29 28 28 28 24 29 30 31 32 32 32
33 33 33 33 34 33 34 34 34 34 34 34 35 35 36 35
36 37 37 37 37 37 38 38 39 39 39 40 39 40 40 39
54 46 41 44 40 41 44 46 44 44 44 41 41 48 59 18
0 1 7 7 7 3 18 57 49 43 44 44 43 43 43 43
43 43 42 42 41 41 41 41 40 40 39 39 38 38 38 37
37 37 36 36 36 36 35 34 34 33 33 32 32 31 31 31
31 30 29 29 30 30 31 35 36 36 34 28 24 32 27 28
33 32 32 31 30 29 29 29 29 24 30 30 32 32 32 32
33 32 33 33 33 34 33 34 35 34 35 35 35 35 35 36
35 36 37 37 37 37 39 39 39 39 39 39 40 39 40 39
27 29 30 33 33 32 31 32 31 32 33 33 33 39 52 35
17 13 10 7 9 14 30 58 49 44 45 44 44 44 43 42
43 42 42 42 41 41 41 41 41 40 40 39 39 38 38 38
37 37 37 36 36 35 34 34 34 34 34 33 32 32 32 31
30 30 30 28 28 29 30 35 36 35 34 29 25 33 30 27
29 32 32 32 30 30 29 29 29 24 30 30 33 33 33 33
33 32 33 33 33 33 34 34 35 34 35 35 35 36 36 36
37 36 38 38 38 38 40 39 39 39 39 40 39 40 39 39
21 21 22 21 22 23 24 25 29 35 40 43 45 37 37 38
41 42 42 40 37 34 39 54 48 44 44 43 43 43 43 43
43 43 42 42 41 41 40 40 40 39 39 39 39 38 38 37
37 37 36 36 36 36 35 35 34 34 34 33 32 31 30 30
31 30 30 29 29 28 30 34 35 36 35 29 24 33 31 26
28 29 30 31 30 29 29 29 29 26 31 29 32 33 32 33
32 33 34 33 34 34 34 34 35 35 35 35 35 35 36 36
37 37 37 37 38 38 39 39 39 39 40 40 40 40 39 39
21 21 20 20 20 20 20 20 21 21 21 23 25 26 26 27
29 32 35 38 41 44 45 46 45 44 44 44 44 44 44 44
43 42 43 42 41 41 41 41 40 40 39 39 39 39 38 38
38 37 37 35 36 35 35 35 34 34 34 34 33 31 29 30
30 31 29 30 30 28 30 35 36 35 34 30 25 34 35 26
30 30 31 30 31 31 30 30 29 24 30 29 33 33 34 33
34 34 34 35 35 35 35 36 36 35 35 35 36 36 36 38
37 37 38 38 39 38 39 39 39 39 40 39 40 39 39 40
37 32 24 26 23 18 20 20 20 21 20 21 21 21 20 20
21 22 24 26 30 34 38 42 45 45 44 44 44 43 43 43
42 42 42 41 41 40 40 41 40 40 40 40 39 39 38 38
37 37 36 36 35 35 35 35 34 32 31 33 33 30 30 27
26 27 29 30 28 28 28 33 35 35 35 29 24 33 36 25
30 29 30 28 29 30 30 30 30 25 31 31 34 34 33 33
33 33 33 34 34 34 35 36 36 35 36 36 37 36 37 37
37 37 38 38 38 39 39 39 39 39 40 40 40 40 39 39
36 41 47 33 41 33 28 24 25 32 29 27 25 22 21 20
19 20 19 19 20 19 21 23 26 30 34 38 42 43 44 44
43 42 42 41 41 41 41 41 41 39 40 39 39 38 38 38
38 37 37 36 35 35 35 35 34 33 33 33 29 28 28 29
27 30 29 26 26 27 25 30 32 31 31 29 22 32 38 26
31 31 32 28 26 29 30 30 30 26 31 31 33 33 34 34
34 35 35 35 35 35 36 35 37 35 36 35 35 37 37 37
38 38 38 38 39 39 40 39 39 39 40 40 39 39 38 38
25 25 34 37 53 51 51 49 41 40 41 43 48 60 50 22
19 19 19 19 19 19 20 19 19 20 20 20 22 24 27 30
35 41 41 42 41 41 41 41 40 40 40 39 39 38 38 38
37 37 36 35 36 35 35 34 34 34 33 26 27 26 24 24
21 22 19 16 19 23 24 20 20 28 29 27 20 30 34 23
29 28 28 24 25 26 30 29 30 27 31 31 34 35 35 34
35 35 35 35 35 35 36 35 37 36 36 37 37 37 38 37
38 38 38 38 39 39 39 38 38 38 39 39 40 40 41 40
21 20 23 23 47 15 1 3 13 40 39 40 47 64 65 52
46 40 38 38 35 31 27 21 21 19 19 20 20 21 14 11
19 39 43 42 42 42 41 41 40 40 40 39 39 39 39 38
37 37 36 33 32 31 32 32 32 26 21 19 14 11 19 21
20 17 16 15 12 8 11 15 20 15 14 16 14 19 22 16
22 28 28 30 30 28 28 28 30 27 31 31 34 34 35 35
35 36 36 36 36 36 37 36 38 37 37 36 36 37 38 38
38 38 37 38 38 38 39 38 39 40 39 39 38 39 39 40
22 22 23 24 46 15 0 0 11 42 40 42 48 60 63 62
61 57 51 61 58 55 50 26 33 31 25 20 19 20 18 17
20 37 42 41 42 42 40 40 41 42 41 40 40 38 32 26
24 23 24 28 28 27 22 30 31 20 11 5 4 2 4 7
10 8 10 11 9 1 0 0 0 0 0 0 0 1 4 6
10 16 20 20 26 30 27 30 29 30 32 31 35 35 34 35
36 36 36 35 36 36 37 37 38 37 37 37 37 37 38 39
38 39 39 39 39 38 39 39 39 38 39 40 39 39 40 41
25 24 23 25 49 17 0 0 4 15 17 20 33 56 60 63
63 56 55 57 60 60 55 35 43 49 47 43 45 38 28 16
19 36 42 42 42 42 41 49 48 45 43 40 36 21 18 13
10 10 6 7 14 14 18 18 10 6 3 1 0 0 0 0
0 0 0 0 0 0 0 0 0 0 0 0 0 0 0 1
4 5 9 14 16 18 22 26 30 28 32 31 35 35 35 36
37 37 36 37 37 37 37 37 37 36 36 36 37 37 38 39
37 37 39 39 39 38 39 39 39 39 39 39 39 38 39 40
16 23 21 24 51 18 0 0 8 13 4 0 19 57 55 27
36 36 42 47 55 57 56 41 47 51 50 51 57 56 47 18
22 38 43 42 42 41 42 53 53 50 48 43 32 19 10 9
4 0 1 2 0 2 5 10 4 0 0 0 0 0 0 0
0 0 0 0 0 0 0 0 0 0 0 0 0 0 0 0
0 3 4 7 8 17 17 18 26 26 29 30 34 34 35 37
38 37 37 37 37 37 36 36 37 38 38 38 38 38 39 40
38 38 38 39 39 39 38 39 39 39 39 39 39 39 40 41
0 3 5 8 51 19 1 4 21 33 4 1 20 58 54 6
11 4 1 3 10 14 47 44 50 53 54 56 58 58 52 19
22 41 44 44 43 42 42 53 53 51 47 42 35 28 11 7
2 4 0 0 0 0 0 4 0 0 0 0 0 0 0 0
0 0 0 0 0 0 0 0 0 0 0 0 0 0 0 0
0 0 0 1 5 7 9 15 19 22 25 25 28 34 36 35
36 37 37 37 38 37 38 37 37 37 38 38 38 39 39 40
39 39 39 39 39 39 39 38 40 40 39 40 40 40 39 41
0 0 0 7 52 20 9 16 27 43 31 3 18 60 55 7
0 1 0 2 13 4 43 44 50 50 54 56 57 58 54 22
22 42 47 44 45 45 45 44 29 41 46 45 45 24 12 1
0 0 1 0 0 0 0 0 0 0 0 0 0 0 0 0
0 0 0 0 0 0 0 0 0 0 0 0 0 0 0 0
0 0 0 0 0 7 4 4 12 15 20 23 29 26 28 34
36 38 38 37 38 37 37 38 38 37 37 38 38 38 38 39
40 39 40 39 40 40 39 40 40 39 40 39 39 40 39 41
0 0 0 5 54 22 8 21 37 34 24 16 13 61 58 9
0 1 0 11 21 11 45 33 28 37 46 53 54 53 51 23
22 42 48 39 40 48 52 38 0 1 17 25 20 12 1 0
0 0 0 0 0 0 0 0 0 0 0 0 0 0 0 0
0 0 0 0 0 0 0 0 0 0 0 0 0 0 0 0
0 0 0 0 0 0 0 5 6 17 18 25 35 34 30 25
34 38 37 38 38 37 38 38 38 38 38 38 38 38 38 38
40 39 39 39 39 39 39 39 40 39 39 40 40 40 40 41
1 0 0 7 56 25 0 13 31 33 21 8 10 59 61 13
0 2 0 7 17 11 44 21 0 4 8 13 21 22 48 25
22 35 45 48 46 49 55 44 0 0 9 13 3 0 0 0
0 0 0 0 0 0 0 0 0 0 0 0 0 0 0 0
0 0 0 0 0 0 0 0 0 0 0 0 0 0 0 0
0 0 0 0 0 0 0 0 5 10 16 20 31 34 35 30
30 36 39 39 39 38 38 38 38 38 39 39 39 39 39 40
41 39 40 39 39 39 40 40 40 40 40 40 40 40 41 42
3 3 1 7 59 28 0 0 5 10 2 0 9 60 63 14
0 1 0 1 0 1 46 21 0 0 0 0 0 0 41 25
19 5 6 13 24 37 46 43 1 0 5 3 0 0 0 0
0 0 0 0 0 0 0 0 0 0 0 0 0 0 0 0
0 0 0 0 0 0 0 0 0 0 0 0 0 0 0 0
0 0 0 0 0 0 0 0 2 5 11 15 27 33 34 34
32 33 37 38 38 38 38 39 39 39 39 39 40 40 40 40
40 39 40 40 40 40 41 40 41 41 41 41 42 41 42 41
0 0 0 4 46 30 0 0 0 0 0 0 7 60 64 18
0 1 0 11 0 0 45 20 3 0 4 0 0 0 41 26
20 3 0 0 0 0 2 22 3 0 0 0 0 0 0 0
0 0 0 0 0 0 0 0 0 0 0 0 0 0 0 0
0 0 0 0 0 0 0 0 0 0 0 0 0 0 0 0
0 0 0 0 0 0 0 0 0 5 8 11 23 31 31 31
33 35 37 39 39 39 39 39 39 39 39 39 39 40 40 40
40 40 41 41 42 41 41 42 41 41 41 40 41 40 40 41
0 0 0 6 47 32 0 0 0 0 0 0 5 59 65 23
0 16 15 27 2 0 45 21 5 2 19 8 0 0 40 27
20 2 0 0 0 0 0 16 3 0 0 0 0 0 0 0
0 0 0 0 0 0 0 0 0 0 0 0 0 0 0 0
0 0 0 0 0 0 0 0 0 0 0 0 0 0 0 0
0 0 0 0 0 0 0 0 0 1 6 10 12 24 28 28
34 38 37 38 38 39 39 39 39 40 39 40 40 40 41 40
41 40 41 41 41 41 42 40 41 41 42 41 42 42 42 43
0 1 0 8 50 42 21 18 17 16 12 10 15 60 66 29
3 1 2 8 2 0 44 21 4 3 9 16 0 0 41 26
20 3 0 0 0 0 0 14 3 0 0 0 0 0 0 0
0 0 0 0 0 0 0 0 0 0 0 0 0 0 0 0
0 0 0 0 0 0 0 0 0 0 0 0 0 0 0 0
0 0 0 0 0 0 0 0 0 0 1 11 16 11 29 30
30 38 38 40 39 39 39 40 40 40 40 40 41 41 40 40
41 40 41 41 42 42 42 42 42 42 41 42 42 41 42 42
0 1 0 5 47 61 60 56 54 51 48 43 42 46 50 20
0 4 12 5 0 0 42 20 2 4 1 4 0 0 40 25
20 4 0 1 14 4 0 12 3 2 0 0 0 0 0 0
0 0 0 0 0 1 0 0 0 0 0 0 0 0 0 0
0 0 0 0 0 0 0 0 0 0 0 0 0 0 0 0
0 0 0 0 0 0 0 0 0 0 0 10 25 16 12 20
24 33 38 39 39 39 40 39 40 41 41 41 40 41 41 41
41 41 41 42 42 42 41 43 42 42 43 43 42 43 42 43
0 0 0 3 54 60 44 46 44 47 52 51 43 30 28 5
2 1 9 4 0 0 41 18 0 7 1 0 0 0 39 27
21 5 11 9 7 1 0 11 6 0 0 0 0 0 0 0
0 0 0 0 0 0 0 0 0 0 0 0 0 0 0 0
0 0 0 0 0 0 0 0 0 0 0 0 0 0 0 0
0 0 0 0 0 0 0 0 0 0 1 4 17 23 16 13
15 23 35 39 40 40 40 41 41 41 41 41 41 40 41 41
40 41 41 42 42 43 43 44 43 43 43 43 43 43 43 41
0 0 0 3 57 44 0 1 3 7 14 21 35 46 41 50
48 42 39 33 25 22 45 22 1 4 2 1 0 0 41 26
21 8 11 0 4 4 0 13 8 0 0 0 0 0 0 0
0 0 0 0 0 0 0 0 0 0 0 0 0 0 0 0
0 0 0 0 0 0 0 0 0 0 0 0 0 0 0 0
0 0 0 0 0 0 0 0 0 0 0 0 5 25 30 21
21 24 35 39 41 41 40 41 41 41 41 41 41 42 42 42
42 43 43 43 43 42 43 44 43 42 42 41 40 40 41 41
0 0 0 4 55 45 2 0 0 1 0 0 8 57 51 29
34 39 48 52 55 55 50 60 43 32 39 38 34 31 44 25
21 8 2 0 0 0 0 18 39 17 2 0 0 0 0 0
0 0 0 0 0 0 0 0 0 0 0 0 0 0 0 0
0 0 0 0 0 0 0 0 0 1 0 0 0 0 0 0
0 0 0 0 0 0 0 0 0 0 0 0 4 20 19 29
21 27 30 37 40 41 41 40 42 42 41 41 42 40 41 42
41 41 42 42 42 42 42 43 42 41 41 41 39 40 37 34
4 0 0 10 56 46 8 0 1 4 8 1 6 59 56 19
13 20 22 20 13 32 65 71 48 41 52 57 56 56 52 25
21 7 0 0 0 0 0 17 55 21 0 0 0 0 0 0
0 0 0 0 0 0 0 0 0 0 0 0 0 0 0 0
0 0 0 0 0 0 0 0 0 2 1 0 0 0 0 0
0 0 0 0 0 0 0 0 0 0 0 0 2 19 20 19
27 23 34 37 41 41 40 39 41 41 40 40 41 41 42 42
42 42 43 44 43 42 41 39 35 32 35 40 24 20 20 21
18 7 6 27 56 45 13 13 2 20 19 3 3 56 56 15
10 13 10 10 1 26 69 66 42 43 53 57 57 60 55 25
22 15 5 1 0 0 0 15 44 8 0 0 0 0 0 0
0 0 0 0 0 0 0 0 0 0 0 0 0 0 0 0
0 0 0 0 0 0 0 0 0 3 4 0 2 1 0 0
0 0 0 0 0 0 0 0 0 0 0 0 0 6 21 18
22 20 33 36 40 40 39 39 40 42 36 14 39 42 43 41
40 38 35 31 27 25 22 22 21 21 25 41 20 23 26 28
16 5 10 37 57 43 25 37 15 20 10 2 3 54 56 6
1 7 0 0 0 25 65 51 20 24 36 38 43 46 53 26
22 37 51 45 37 28 20 23 26 1 0 0 0 0 0 0
0 0 0 0 0 0 0 0 0 0 0 0 0 0 0 0
0 0 0 0 0 0 0 0 0 5 6 1 3 0 0 0
0 0 0 0 0 0 0 0 0 0 0 0 0 2 11 18
18 20 27 35 37 38 40 40 40 32 8 24 35 31 28 26
24 23 22 23 25 26 26 27 28 28 27 36 22 28 33 34
7 8 14 49 61 40 15 13 3 14 30 10 3 53 53 4
0 0 0 0 0 23 65 51 6 0 0 0 1 4 40 27
23 39 58 59 56 56 54 46 13 0 0 0 0 0 0 0
0 0 0 0 0 0 0 0 0 0 0 0 0 0 0 0
0 0 0 0 0 0 0 2 0 1 6 4 5 7 0 1
0 0 0 0 0 0 0 0 0 0 0 0 0 2 6 13
18 17 24 36 24 30 34 30 22 10 18 25 25 25 26 27
28 29 30 30 32 33 34 34 36 35 33 41 27 35 38 38
41 48 46 53 63 51 25 20 18 27 24 12 4 54 52 5
11 3 0 0 0 18 64 54 5 0 0 0 0 1 36 30
22 37 57 59 58 59 55 42 2 0 0 0 0 0 0 0
0 0 0 0 0 0 0 0 0 0 0 0 0 0 0 0
0 0 0 0 0 0 0 1 0 0 8 9 6 3 2 4
1 1 0 0 0 0 0 0 0 0 0 0 0 0 4 4
12 17 18 26 21 22 24 14 19 15 29 29 31 32 33 34
35 34 36 37 38 38 39 39 39 37 27 17 17 38 40 41
28 50 44 12 51 60 49 30 52 51 20 3 5 58 55 9
36 7 0 0 0 11 59 50 3 0 0 2 23 26 37 36
28 34 44 46 47 49 48 27 0 0 0 0 0 0 0 0
0 0 0 0 0 0 0 0 0 0 0 0 0 0 0 0
0 0 0 0 0 0 0 0 0 0 5 8 6 4 5 4
2 0 0 0 2 2 0 0 0 0 0 0 0 1 2 3
5 12 17 27 28 28 18 25 29 26 35 37 37 38 38 38
38 38 39 39 39 38 39 40 39 38 22 6 5 35 40 43
36 39 29 1 36 57 46 11 48 52 23 3 5 60 59 8
23 8 0 0 0 10 53 45 2 0 0 3 30 33 31 36
29 30 31 34 40 40 37 11 0 0 0 0 0 0 0 0
0 0 0 0 0 0 0 0 0 0 0 0 0 0 0 0
0 0 0 0 0 0 0 0 0 0 6 9 7 5 7 6
3 0 0 3 12 7 0 0 0 0 0 0 0 0 0 5
5 10 22 34 35 27 25 39 38 18 21 22 21 14 19 38
41 40 40 32 8 5 12 15 15 27 20 12 5 34 41 42
55 39 34 4 23 53 36 2 35 41 15 6 4 59 60 9
5 8 0 0 0 11 53 45 2 2 0 0 21 27 31 33
28 29 29 30 37 36 27 2 0 0 0 0 0 0 0 0
0 0 0 0 0 0 0 0 0 0 0 0 0 0 0 0
0 0 0 0 0 0 0 3 0 0 6 10 11 13 16 10
4 2 0 10 20 13 4 0 0 0 2 0 1 0 0 0
3 11 29 37 36 22 36 32 42 16 2 0 0 0 20 26
27 6 5 3 4 6 0 0 0 5 19 0 2 34 42 43
35 53 52 30 18 40 32 1 22 35 4 1 3 58 60 10
0 0 0 0 0 13 55 44 1 2 1 0 0 0 16 22
25 25 17 23 31 35 19 2 0 0 0 0 0 0 0 0
0 0 0 0 0 0 0 0 0 0 0 0 0 0 0 0
0 0 0 0 0 0 0 12 1 0 3 18 19 21 31 18
7 6 2 17 18 22 15 0 0 0 1 0 2 3 1 0
2 8 34 38 24 15 3 0 36 35 2 0 0 0 0 0
0 0 0 0 0 13 0 0 0 0 22 1 4 34 41 42
11 11 19 9 1 3 17 28 8 14 2 4 6 55 56 8
0 0 0 0 0 15 57 44 1 1 7 2 0 0 21 29
32 24 0 0 0 1 1 1 0 0 0 0 0 0 0 0
0 0 1 0 0 0 0 0 0 0 0 0 0 0 0 0
0 0 0 0 0 1 3 17 2 1 4 18 25 12 17 15
7 16 13 14 17 36 33 6 0 0 0 0 0 0 1 0
1 11 37 33 5 12 18 8 3 4 0 0 0 0 0 0
0 0 0 1 0 8 0 0 0 0 27 3 5 34 42 43
50 7 0 0 0 0 0 6 8 4 8 44 43 54 51 15
5 3 1 0 0 16 58 44 1 0 3 9 0 0 22 37
34 26 0 0 1 0 2 0 0 0 0 0 0 0 0 0
0 0 3 0 0 0 0 0 0 0 0 0 0 0 0 0
0 0 0 0 1 2 19 19 4 6 13 11 14 8 5 4
13 19 6 11 29 56 52 26 0 0 0 0 0 0 0 1
0 14 39 23 17 40 22 18 28 23 20 20 20 19 16 8
16 4 0 2 0 0 0 0 0 2 32 13 15 37 42 43
58 15 2 0 4 0 0 1 17 37 20 52 57 57 49 52
52 44 34 39 29 33 50 43 5 0 1 15 4 1 21 42
34 27 0 0 4 3 2 0 0 0 0 0 0 0 0 0
0 0 2 2 2 4 1 0 0 0 2 0 0 0 0 0
1 2 1 0 2 9 16 13 11 15 27 37 23 4 3 10
12 5 11 36 54 61 58 48 10 0 0 0 0 0 0 2
0 20 34 9 28 23 34 41 41 42 42 42 42 42 41 26
22 6 0 2 0 0 0 0 1 20 33 30 31 39 42 43
56 6 0 0 8 26 21 43 50 61 57 57 61 61 58 47
38 28 25 33 31 30 41 41 32 18 12 24 21 11 22 41
30 26 1 2 17 12 0 0 0 0 0 0 0 0 0 0
0 0 0 6 5 7 3 1 7 0 2 1 0 0 0 0
7 4 5 2 4 13 13 18 25 30 35 44 33 27 22 17
15 11 16 36 57 60 57 43 13 0 0 0 0 0 0 0
0 25 12 32 33 41 42 42 42 42 42 43 42 42 40 16
0 0 0 1 0 26 40 38 38 38 35 35 38 42 43 43
61 33 8 4 21 58 56 56 42 58 58 50 54 58 58 20
1 0 0 4 18 7 38 41 41 42 41 46 50 48 50 47
30 26 1 7 24 17 1 0 0 0 0 0 0 0 0 0
0 0 0 1 2 4 0 2 7 0 0 0 1 0 0 1
4 5 3 5 5 7 16 31 39 47 64 67 58 69 54 44
33 29 32 42 59 61 47 19 0 0 0 0 0 0 0 0
2 17 22 42 42 42 42 42 43 42 42 43 42 42 38 1
0 7 10 0 0 28 43 42 41 40 38 38 42 43 43 43
62 58 54 50 55 58 54 34 12 36 37 11 6 10 40 20
0 0 1 4 21 18 42 44 28 4 8 16 25 41 53 49
29 26 2 3 11 8 2 0 0 0 0 0 0 0 0 0
0 0 0 0 0 5 0 0 3 0 0 0 2 0 0 1
1 2 7 9 8 6 26 40 62 80 86 97 94 91 78 60
46 49 45 46 58 58 31 11 2 0 0 0 0 0 0 0
1 11 41 40 42 42 42 42 42 42 42 42 43 43 40 2
0 3 12 0 0 26 42 42 41 41 41 41 43 43 43 42
62 61 61 62 61 61 57 39 3 1 3 3 0 0 34 24
0 4 28 20 12 16 44 44 25 1 4 21 13 34 54 45
31 29 18 5 7 3 1 0 0 0 0 0 0 0 0 0
0 0 0 0 1 1 2 0 2 1 0 0 1 0 0 4
2 3 15 15 20 21 20 63 91 99 106 108 109 99 83 63
49 56 57 59 60 49 29 20 21 1 0 0 0 0 1 2
3 31 42 42 42 43 43 43 43 43 43 43 42 42 39 4
0 0 0 0 0 24 43 43 43 41 41 42 42 42 42 43
63 62 63 63 58 30 23 13 1 0 4 10 0 0 33 25
1 27 46 24 9 7 46 46 21 0 8 32 33 44 51 37
30 32 24 2 6 2 1 0 0 0 0 0 0 0 0 0
0 1 0 1 0 2 1 0 0 0 0 0 0 1 8 11
12 7 17 33 53 61 55 78 105 108 111 115 106 94 76 57
48 57 63 68 55 40 40 45 42 4 0 0 0 1 2 0
18 38 42 42 43 42 43 43 43 43 43 42 42 41 39 3
0 0 0 0 0 22 43 43 43 42 43 44 44 43 44 44
57 58 60 61 58 39 42 36 34 30 31 30 0 0 32 27
6 24 48 19 0 5 49 49 20 0 3 13 27 45 53 34
32 34 17 0 3 3 0 0 0 0 0 0 0 0 0 4
11 5 4 3 0 4 1 0 3 0 0 0 2 12 31 51
55 49 35 56 89 107 105 112 115 110 109 94 76 60 21 10
42 61 71 74 48 45 52 55 46 4 0 0 0 7 9 6
32 42 42 42 42 42 43 42 43 42 42 28 17 10 11 0
0 1 0 1 0 20 44 43 44 43 43 44 44 43 44 43
4 5 8 11 19 41 45 31 26 29 32 22 2 0 32 28
2 11 46 17 5 6 51 51 23 0 0 1 6 42 54 34
31 31 31 26 22 20 16 12 1 0 0 0 0 0 0 7
14 16 5 2 2 6 3 0 2 1 1 2 10 30 63 97
101 93 87 100 115 123 122 123 114 100 83 71 76 85 21 7
43 69 86 77 45 54 56 56 46 2 0 3 7 13 30 12
40 41 41 42 42 43 43 44 44 44 40 8 21 4 5 0
0 1 0 4 3 17 43 43 42 44 44 44 43 44 43 43
0 0 0 0 2 33 38 11 0 0 0 0 0 0 30 26
0 0 6 1 10 6 51 52 23 0 0 0 1 37 56 35
32 32 51 59 58 56 60 51 4 0 0 0 0 0 0 3
7 10 6 2 5 9 4 1 1 2 3 3 20 53 94 108
109 118 123 125 127 126 127 123 118 103 107 110 110 74 37 22
49 78 101 88 53 55 42 23 35 0 6 15 20 23 37 13
41 42 42 43 43 43 44 43 44 44 41 43 53 22 36 3
1 0 0 0 0 5 22 41 44 44 44 44 43 44 43 43
0 0 0 0 2 41 48 20 0 0 0 0 0 0 28 29
0 0 0 0 1 4 49 51 20 0 0 0 1 38 59 35
32 33 54 67 66 65 65 58 5 0 0 0 0 0 0 1
2 7 3 4 10 9 11 5 3 2 4 8 37 81 97 116
124 127 133 130 131 132 132 129 122 116 116 115 109 98 75 50
64 90 109 99 61 85 54 0 2 10 27 27 31 35 41 14
40 41 42 43 43 43 43 42 43 43 40 46 53 21 7 0
0 0 0 0 0 9 20 12 34 38 43 43 43 43 44 43
0 0 0 0 3 46 52 27 0 0 0 0 0 0 26 29
0 0 0 0 0 3 49 51 19 0 0 0 0 35 56 34
31 32 39 45 46 48 49 41 3 0 0 0 0 0 2 9
4 8 10 13 10 14 14 8 6 3 5 25 54 83 87 115
125 128 132 131 135 128 132 132 127 121 116 110 102 84 62 60
75 94 111 110 65 52 32 1 8 26 34 30 37 38 40 17
36 41 42 42 43 43 43 43 42 40 38 13 5 7 1 0
0 0 0 0 0 2 12 5 6 30 44 44 43 42 43 43
30 20 31 31 33 52 57 36 0 0 0 0 0 0 25 28
0 0 0 0 0 2 47 53 20 0 0 0 0 30 53 32
32 31 35 38 38 36 35 27 2 0 0 0 0 0 3 15
10 22 37 43 21 27 16 6 9 9 11 37 68 89 92 107
119 123 133 138 138 133 128 132 133 127 116 107 102 88 74 74
82 102 117 116 84 56 55 25 16 30 34 33 39 39 41 24
32 42 42 42 43 42 28 21 18 16 14 3 1 0 0 0
0 0 0 0 0 1 10 8 1 29 44 44 45 44 43 43
42 44 47 46 51 55 38 8 0 0 0 0 0 0 24 29
0 0 1 2 3 8 48 54 22 0 0 0 0 32 59 35
30 31 40 47 47 47 45 35 2 0 0 0 0 0 1 24
33 51 57 28 18 29 23 15 22 20 18 47 73 90 89 88
100 118 131 143 138 137 136 135 139 132 120 107 98 91 80 82
92 109 118 123 106 62 56 39 22 33 36 35 41 40 40 31
25 41 40 38 35 29 11 6 6 6 5 4 8 9 3 0
0 0 0 0 0 0 10 9 1 28 45 44 44 44 43 43
37 41 44 47 54 59 37 6 4 4 3 2 2 2 24 44
31 33 36 40 46 49 52 44 19 2 1 0 0 32 59 35
28 32 42 49 49 48 49 43 6 0 0 0 0 0 0 39
49 72 54 48 51 18 19 24 37 33 23 46 75 93 107 120
124 122 139 139 138 139 137 139 141 135 122 104 96 90 84 87
99 109 115 120 115 79 59 31 22 34 35 34 40 37 34 26
11 16 10 7 7 8 8 9 11 12 13 12 11 4 12 11
0 0 0 0 0 0 10 8 2 23 44 44 44 44 43 43
15 3 7 12 20 53 51 45 47 45 41 40 40 41 48 52
50 51 52 53 54 54 50 44 41 39 35 32 25 40 52 39
37 39 44 48 49 49 49 44 12 0 2 1 0 0 0 36
77 77 68 81 51 22 22 35 44 39 28 46 84 101 119 130
133 136 136 136 139 142 140 141 137 133 121 106 94 85 85 90
106 113 117 120 117 97 66 39 20 33 35 29 15 8 6 7
9 10 12 13 14 14 14 15 15 15 15 12 6 0 10 22
0 0 0 0 0 0 8 6 8 19 43 42 42 41 41 41
28 0 0 1 8 51 59 58 57 57 56 54 56 58 55 46
41 48 48 48 48 48 48 47 47 47 47 47 47 46 45 46
45 45 45 46 46 44 45 39 15 0 3 1 0 0 0 20
68 84 78 65 22 16 45 58 64 61 32 51 77 96 113 134
135 138 142 140 142 142 138 139 135 126 121 105 94 86 87 93
110 122 121 120 119 110 76 47 20 33 35 26 12 11 13 13
13 14 15 15 14 13 12 10 8 7 14 12 7 3 9 11
0 0 0 2 2 2 5 15 19 23 39 43 44 43 43 42
13 0 0 2 10 53 60 61 58 61 59 59 60 59 37 27
30 45 47 46 46 46 47 47 46 47 47 46 46 46 46 45
45 44 45 45 45 45 43 41 16 0 2 0 0 0 0 6
40 82 76 44 25 50 91 88 97 88 38 64 82 92 112 131
134 134 138 139 141 136 135 136 139 131 123 108 97 92 89 93
112 124 122 121 116 114 94 54 19 33 33 19 15 14 12 9
8 5 4 2 1 0 0 0 0 2 16 15 12 8 15 3
0 0 0 1 3 0 11 12 12 18 40 43 44 43 44 43
0 0 0 1 10 52 52 48 45 45 44 44 49 45 25 26
30 43 46 46 45 45 44 43 43 42 42 41 42 41 40 39
39 40 39 39 38 38 38 36 20 1 0 0 0 0 0 0
49 75 94 77 81 48 80 117 109 100 49 72 84 105 120 124
131 130 136 137 139 136 133 137 137 130 124 115 103 95 90 95
117 122 118 115 115 116 105 61 17 32 33 19 14 14 1 0
0 0 0 0 0 0 0 0 0 6 17 15 13 10 4 5
5 6 7 6 8 11 19 21 19 21 35 36 34 34 39 43
0 0 0 0 8 51 27 3 8 4 3 4 14 10 24 25
29 42 46 36 18 12 12 11 10 9 8 7 6 6 5 5
4 4 4 4 4 4 4 18 32 16 0 0 0 0 0 0
17 75 71 81 109 117 98 120 110 98 66 72 79 99 119 127
127 132 130 134 137 135 133 134 131 129 127 120 107 97 92 95
110 110 108 109 114 120 113 76 17 31 33 20 15 12 0 0
0 0 0 0 0 0 0 0 0 9 17 16 14 24 33 26
28 30 31 25 26 29 24 23 22 15 12 27 11 19 32 43
0 0 0 0 6 51 26 0 2 0 1 0 11 9 23 25
28 40 45 37 10 0 0 0 0 0 0 0 0 0 0 0
0 0 0 0 0 0 1 18 42 35 3 0 0 0 0 0
0 18 56 88 118 124 119 118 110 111 90 77 85 104 119 124
127 126 127 128 133 133 134 136 134 133 129 121 109 98 92 89
105 111 113 113 118 122 120 93 27 29 31 18 15 9 0 0
0 0 0 0 0 0 0 0 0 14 17 15 13 28 31 21
25 31 39 37 42 51 51 42 24 10 30 85 18 17 30 43
0 0 0 0 6 50 28 0 3 0 2 6 19 21 23 24
27 38 44 39 16 0 0 0 1 3 3 3 3 2 1 1
2 1 2 2 2 1 2 14 44 38 10 0 0 0 0 0
0 4 59 102 122 122 122 115 107 110 106 94 103 106 120 125
128 128 128 131 136 134 134 134 134 134 130 121 109 99 91 88
112 124 123 118 130 131 116 92 35 27 27 17 15 6 0 0
0 0 0 0 0 0 0 0 1 16 17 16 14 23 21 24
28 35 79 80 84 94 93 69 23 14 71 106 57 19 29 43
0 0 0 0 3 47 28 0 2 3 14 20 20 18 22 24
27 36 44 40 20 0 1 1 1 2 2 3 2 2 2 2
2 3 3 3 2 2 2 12 45 39 16 0 0 0 0 0
0 0 27 114 131 133 130 105 99 104 101 102 104 107 117 123
128 126 128 129 132 134 133 134 135 131 127 119 109 95 89 88
110 129 129 117 111 100 103 81 23 25 25 15 15 2 0 0
0 0 0 0 0 0 0 0 4 17 16 17 15 18 30 27
31 36 67 75 67 72 69 48 27 23 80 51 49 25 27 43
0 0 0 0 2 44 28 0 1 9 17 18 19 18 23 24
27 34 43 40 24 0 0 1 2 2 3 3 4 3 4 3
4 3 3 2 2 1 2 9 42 39 22 0 1 0 0 0
0 0 1 33 89 113 112 68 92 98 99 97 96 107 116 126
129 128 131 131 134 136 135 133 132 132 127 119 106 92 87 83
103 113 104 79 45 80 81 53 37 39 23 15 14 0 0 0
0 0 0 0 0 0 0 0 7 17 16 18 15 3 26 36
38 35 25 24 25 21 24 25 23 23 24 23 22 23 25 43
0 0 0 0 2 41 27 0 0 6 16 17 19 16 21 22
25 32 41 40 28 2 0 1 2 2 2 3 3 3 3 2
3 3 2 2 2 2 2 6 41 41 29 0 0 0 0 1
0 0 0 2 25 74 71 48 88 94 93 97 94 101 114 124
126 125 132 131 134 135 134 133 133 132 126 117 107 92 89 93
81 79 80 97 85 74 55 55 54 46 21 15 11 0 0 0
0 0 0 0 0 0 0 0 11 17 16 19 10 0 27 36
38 34 23 22 23 17 16 16 21 23 23 23 23 22 26 43
0 0 0 0 2 39 26 0 0 4 15 17 18 17 20 22
25 31 41 39 29 3 1 0 1 1 2 2 2 2 2 2
3 3 2 2 2 2 2 3 39 42 28 0 0 0 0 0
0 3 13 21 54 84 91 82 80 84 90 91 91 94 114 121
126 126 132 134 135 135 135 132 132 130 124 118 108 93 94 107
105 95 108 106 59 69 66 54 55 38 17 15 7 0 0 0
0 0 0 0 0 0 0 0 14 16 15 17 4 0 10 11
35 33 24 22 14 16 17 17 22 24 23 23 22 21 22 42
21 17 16 16 19 41 29 0 0 4 15 16 17 16 19 20
22 28 38 38 30 4 0 0 0 0 1 0 1 1 1 1
1 2 2 0 1 0 1 1 35 43 30 0 0 0 0 0
0 8 29 33 62 92 91 82 76 82 89 91 93 100 102 109
121 129 131 134 134 133 133 126 132 127 127 119 109 96 101 107
110 108 112 96 60 67 61 55 55 32 15 14 4 0 0 0
0 0 0 0 0 0 0 1 15 15 15 14 1 0 2 3
34 31 24 19 13 17 14 17 22 24 24 23 21 20 15 39
42 40 39 39 37 35 30 1 0 5 13 15 16 15 18 19
22 27 37 38 30 6 0 0 0 0 0 0 1 1 2 1
2 1 1 1 1 0 1 1 31 43 34 4 0 0 0 0
0 11 27 28 54 89 96 82 75 80 85 93 99 101 111 116
121 126 129 133 134 135 133 133 131 128 125 119 113 99 106 109
105 106 108 90 60 54 55 57 53 26 14 13 1 0 0 0
0 0 0 0 0 0 0 4 16 15 15 13 0 0 1 7
37 30 24 19 13 17 15 16 23 23 23 22 21 20 12 5
32 22 15 11 6 3 26 3 0 5 13 14 15 15 17 19
21 24 35 36 30 7 0 0 1 1 0 1 2 2 1 1
1 1 1 1 0 0 1 0 28 43 37 11 0 0 0 0
0 1 7 21 54 95 100 87 76 78 90 96 101 101 110 116
119 123 130 132 134 134 133 130 130 128 126 123 114 107 108 112
109 107 107 91 63 51 55 58 51 20 14 12 0 0 0 0
0 0 0 0 0 0 0 7 17 14 16 11 0 10 17 20
39 31 24 19 10 16 14 15 23 23 23 23 21 21 12 0
21 2 0 0 0 0 22 5 0 6 12 14 15 14 17 19
21 24 34 36 31 9 0 0 0 1 0 0 2 1 2 1
1 1 1 2 1 1 1 0 24 43 36 14 0 0 0 0
0 1 12 23 68 102 103 95 80 75 88 98 104 104 110 118
120 125 130 129 132 134 135 133 130 129 126 122 116 110 108 113
115 115 106 92 71 52 56 58 46 18 14 8 0 0 0 0
0 0 0 0 0 0 0 12 16 15 17 6 0 14 12 17
39 29 23 11 3 13 16 17 24 23 23 23 22 21 12 0
6 0 0 0 0 0 25 35 30 26 12 13 14 14 16 19
20 23 33 34 30 9 0 0 0 1 1 1 1 1 1 1
1 1 0 1 0 1 1 0 21 43 37 18 0 0 0 0
0 1 9 33 73 105 107 100 84 75 82 97 104 107 114 116
120 124 128 130 132 135 133 133 133 131 125 123 118 109 106 116
120 100 86 72 75 45 58 58 39 16 15 5 0 0 0 0
0 0 0 0 0 0 0 14 16 16 17 3 0 10 7 26
38 26 17 1 2 13 15 17 24 23 23 22 23 23 16 5
0 0 0 0 0 3 30 31 16 14 10 12 14 13 15 18
19 22 31 34 31 11 0 0 0 0 0 1 1 1 1 1
1 1 1 1 1 0 1 0 19 42 36 22 1 0 0 0
0 16 36 54 97 109 109 105 91 77 77 92 102 107 112 116
120 125 126 130 132 132 131 131 131 130 127 121 113 103 101 99
72 67 68 64 67 45 59 57 31 15 15 2 0 0 0 0
0 0 0 0 0 0 2 17 16 17 16 1 2 23 16 33
34 24 14 1 2 13 16 19 24 24 23 23 23 23 19 13
0 0 0 0 0 3 30 18 0 0 10 12 13 13 15 17
18 21 31 33 30 11 0 0 0 0 1 1 1 1 1 2
1 0 1 1 1 1 2 0 17 43 37 27 3 0 0 0
0 8 39 73 103 110 111 108 99 82 73 85 99 107 111 116
120 123 124 129 131 131 131 131 130 128 124 119 107 93 73 50
52 71 26 30 33 53 60 55 24 15 14 0 0 0 0 0
0 0 0 0 0 0 6 17 16 17 13 0 36 77 18 38
34 26 14 1 4 13 16 20 24 24 23 22 23 25 18 5
0 0 0 0 0 2 28 20 0 0 9 12 13 13 14 16
18 21 29 32 30 12 0 0 0 0 0 0 0 1 0 1
1 1 1 0 0 1 2 0 16 43 37 28 8 1 0 0
3 16 39 77 104 112 112 108 104 87 75 78 94 104 110 115
119 121 124 125 128 130 128 127 126 124 121 113 100 84 71 64
74 86 33 35 44 60 61 50 20 15 10 0 0 0 0 0
0 0 0 0 0 0 10 17 17 17 10 0 48 73 12 41
32 25 16 6 16 17 16 23 26 24 23 23 25 24 16 0
0 1 2 4 8 8 26 20 0 0 7 11 12 13 13 16
18 20 28 31 29 12 0 0 0 0 0 1 1 0 1 1
1 0 1 0 1 1 1 0 14 42 37 37 45 30 3 3
34 57 73 96 107 111 113 108 103 94 80 76 86 99 108 113
117 120 122 122 123 124 124 123 120 120 114 102 94 92 102 92
97 97 72 66 53 62 62 43 17 16 6 0 0 0 0 0
0 0 0 0 0 0 13 17 16 17 6 0 13 18 18 40
32 29 17 17 11 17 16 24 27 24 23 22 24 23 17 0
15 16 20 26 33 38 35 24 1 0 6 10 11 12 12 14
16 18 25 30 29 13 0 0 0 0 0 1 0 0 0 0
0 0 0 0 0 0 0 0 13 42 36 41 62 60 48 44
51 73 90 99 106 110 112 109 105 98 89 79 80 90 101 109
113 117 120 122 122 123 120 119 117 115 108 100 96 99 107 105
94 98 90 69 56 63 61 34 16 16 3 0 1 1 1 1
1 1 1 1 1 3 16 17 17 17 2 0 7 10 28 41
32 30 18 16 10 16 16 24 26 25 23 23 22 23 18 0
25 28 30 33 42 45 43 36 29 22 17 10 11 11 12 14
16 17 25 29 28 13 0 0 0 0 0 1 0 0 0 0
0 0 0 0 0 0 0 0 11 41 36 39 58 57 53 50
65 80 91 100 102 108 111 109 106 100 95 87 80 82 92 102
107 114 117 120 120 122 118 116 113 106 103 98 96 101 107 111
102 88 79 63 55 63 59 26 16 16 14 14 14 14 14 15
15 15 15 16 16 16 18 19 18 16 0 0 6 7 32 39
31 31 18 17 10 17 17 25 25 24 22 23 23 22 18 0
26 24 23 22 21 19 18 17 13 11 10 8 8 10 11 13
14 17 24 28 27 13 0 0 0 0 0 0 0 0 0 0
0 0 0 0 0 0 0 0 11 41 36 32 29 29 17 49
71 84 93 98 102 107 109 110 108 104 99 93 85 81 81 90
101 108 111 115 116 116 116 113 110 105 99 95 96 98 102 100
98 90 70 52 55 61 55 21 16 16 17 16 16 16 16 16
16 16 16 16 17 16 17 16 21 14 0 0 3 8 39 38
32 32 18 17 10 16 17 27 25 24 25 24 23 23 19 0
1 1 1 0 1 1 3 13 2 0 2 6 6 7 8 13
15 16 23 27 27 14 0 0 0 0 0 0 0 0 0 0
0 0 0 0 0 0 0 0 10 40 35 39 28 1 14 62
76 88 97 101 102 105 110 112 111 107 102 96 89 85 81 83
90 100 106 109 111 111 112 112 108 105 98 94 93 94 94 89
78 57 37 44 67 60 54 19 16 16 16 16 17 17 18 17
17 17 17 17 17 17 17 14 21 11 0 6 26 25 41 37
34 32 18 16 10 18 20 26 26 25 24 25 24 24 20 0
0 0 0 0 0 3 2 17 3 0 1 6 6 7 8 12
13 15 21 26 26 13 0 0 0 0 0 0 0 0 0 0
0 0 0 0 0 0 0 0 11 41 42 66 10 0 34 72
80 89 96 101 101 105 109 112 112 109 105 98 92 87 83 81
84 90 96 101 105 107 109 109 108 104 99 93 83 89 84 73
60 43 43 112 117 78 48 15 9 19 19 19 20 39 75 54
27 29 25 26 40 42 33 15 9 1 0 19 28 33 45 40
38 35 17 14 6 27 59 32 32 36 38 34 24 23 20 0
0 0 0 0 0 7 7 15 4 0 0 3 6 8 10 12
13 15 21 25 25 13 0 0 0 0 0 0 0 0 0 0
0 1 2 3 5 6 9 11 22 44 54 37 6 3 58 78
82 88 96 100 103 104 109 111 111 109 106 100 93 86 83 82
83 86 88 93 100 102 105 106 106 105 100 93 83 83 80 75
62 49 74 120 113 69 24 20 34 69 84 96 114 132 141 140
133 121 82 37 24 18 23 38 34 3 18 109 81 21 50 45
57 92 90 45 5 68 84 78 72 80 82 64 24 22 19 0
3 5 8 8 7 5 11 9 0 0 0 0 5 8 10 12
13 14 20 25 24 17 3 4 6 8 11 13 16 18 21 23
25 28 28 29 30 31 32 32 33 59 74 26 0 20 67 81
86 87 94 96 101 104 106 111 111 110 106 103 97 92 87 83
83 83 83 86 92 95 98 100 103 104 104 101 98 97 93 81
61 49 80 82 68 38 31 29 58 103 118 125 141 147 147 150
144 126 80 12 12 13 14 12 31 40 49 148 108 25 50 45
50 94 90 40 1 34 91 69 65 66 65 49 24 23 21 0
14 15 15 16 16 14 4 4 3 0 0 2 2 8 10 11
12 13 20 25 26 28 26 27 29 31 33 33 34 33 34 34
34 34 34 34 34 34 33 33 43 68 52 5 1 48 72 85
87 89 94 97 100 105 109 107 112 112 108 106 105 98 91 86
82 82 83 84 85 86 88 94 98 103 103 102 102 101 92 74
59 50 61 63 61 58 56 59 64 92 117 121 136 143 148 150
144 127 88 13 12 12 10 16 21 4 64 118 62 35 44 30
18 34 25 3 4 0 11 19 32 33 29 25 23 24 23 1
15 15 16 16 16 15 5 5 7 2 3 2 0 5 7 10
11 14 19 25 26 27 29 24 30 32 34 33 34 34 35 35
35 33 32 33 34 33 28 34 73 114 44 0 28 64 78 87
89 89 93 97 100 104 108 110 109 112 111 107 106 107 99 92
85 83 79 82 80 79 80 84 91 96 97 100 100 95 79 63
54 36 32 32 33 35 43 60 56 60 99 108 116 140 143 141
130 107 42 10 9 10 8 28 16 0 16 42 16 41 40 13
1 0 0 0 0 0 0 0 24 24 18 23 18 24 25 2
16 16 16 27 37 27 10 2 2 2 2 0 0 0 3 8
11 12 18 25 26 27 29 26 30 31 33 33 34 33 36 51
48 15 7 11 18 18 6 49 84 95 11 6 59 73 82 87
90 89 94 97 101 104 108 110 108 110 111 112 112 111 107 96
89 82 78 75 76 74 72 72 80 88 88 89 88 79 64 55
44 21 28 23 22 20 30 58 49 44 75 47 17 71 67 53
42 26 9 11 13 11 30 57 66 68 77 90 82 84 47 23
11 0 0 0 0 0 0 0 13 18 16 23 17 15 19 12
11 10 10 28 25 18 1 0 0 0 0 0 0 0 4 7
8 9 13 21 23 23 23 22 21 20 20 21 20 28 64 73
26 0 0 0 0 0 17 70 93 68 4 25 74 81 89 90
93 91 92 99 104 106 107 109 112 108 112 113 111 107 106 102
94 83 74 69 69 69 67 65 61 69 73 73 73 60 53 47
27 15 26 21 22 9 2 18 65 89 92 79 31 3 6 12
17 12 12 15 11 74 97 102 114 109 105 102 107 105 62 47
29 0 0 0 0 0 0 0 2 20 24 22 17 21 14 6
7 5 15 48 22 15 3 0 0 0 0 0 0 0 1 2
0 0 0 1 1 1 1 0 1 2 3 11 17 58 82 35
1 0 0 0 0 1 50 65 118 66 14 43 86 91 95 94
94 96 95 102 106 109 110 109 111 111 108 112 111 106 104 99
96 86 74 63 58 58 58 54 50 44 46 48 47 40 36 24
16 16 26 21 21 9 0 0 11 31 43 60 77 64 29 18
22 19 21 32 61 117 118 108 115 108 94 95 104 102 45 5
3 0 0 0 0 0 0 0 0 15 25 14 8 12 6 0
14 0 50 35 9 13 12 0 0 0 0 0 0 0 0 1
0 0 0 0 0 0 0 2 7 8 3 18 34 71 55 13
0 0 0 0 17 42 63 82 119 73 24 51 96 99 99 99
98 99 101 105 106 110 111 112 111 112 111 109 107 107 104 99
94 85 71 57 47 40 37 37 34 26 17 12 30 66 34 27
18 17 27 24 24 14 6 8 11 12 11 9 15 39 81 78
56 63 106 95 71 77 91 100 105 101 96 94 94 96 47 14
14 10 9 11 7 6 14 11 8 6 4 0 1 0 0 0
38 9 76 5 0 9 15 10 0 0 0 0 0 0 0 0
0 0 0 0 0 0 0 3 9 9 6 9 52 64 22 1
0 10 31 67 70 52 72 95 109 67 37 56 104 104 104 102
101 103 106 109 107 109 115 113 114 112 113 109 105 104 104 99
94 81 68 52 39 20 11 7 5 8 3 0 9 46 29 23
26 12 16 14 15 14 19 23 27 32 39 43 32 25 30 65
89 88 76 88 101 111 113 100 81 73 71 60 55 51 39 33
32 29 21 15 6 2 5 4 4 0 0 0 0 0 0 0
50 23 36 0 0 1 14 29 2 0 0 0 0 0 0 0
0 5 5 3 1 0 0 5 17 20 15 11 69 54 5 20
44 60 90 66 79 65 75 84 104 53 45 57 108 108 106 104
105 105 106 110 111 111 113 115 117 113 111 110 103 96 100 96
87 76 64 54 49 40 25 18 16 22 10 2 0 43 38 19
34 42 47 49 56 67 86 111 141 150 152 150 139 101 87 83
88 96 124 150 151 148 146 149 118 79 59 39 33 30 23 17
16 17 14 12 4 1 4 4 3 1 0 0 0 0 0 0
13 17 14 0 1 0 13 6 0 0 0 2 1 4 7 6
5 5 4 4 5 7 10 15 20 22 7 20 68 39 54 83
86 56 42 65 86 71 65 98 122 47 48 60 109 114 108 108
108 108 107 110 114 113 112 115 117 117 112 109 105 99 91 86
77 67 58 55 57 63 61 51 43 33 8 7 3 50 59 29
44 48 76 71 57 50 65 101 120 150 151 145 97 77 71 63
69 76 109 149 151 146 138 150 126 90 62 47 34 29 23 19
17 17 14 13 5 3 3 3 1 1 0 0 0 0 0 0
0 15 8 0 4 0 0 0 0 0 0 5 1 5 8 9
8 8 10 12 17 25 27 26 20 17 1 33 73 80 69 53
58 72 81 80 59 60 59 102 100 60 70 60 110 117 113 113
112 111 111 112 114 116 115 115 116 116 115 112 108 100 92 82
70 63 63 67 73 75 69 60 53 35 13 26 16 42 55 26
44 48 59 58 47 52 74 76 114 148 152 145 99 77 72 66
70 77 114 151 151 146 135 151 129 92 62 46 37 30 23 19
17 16 17 14 6 4 3 4 3 2 0 0 0 0 0 0
0 13 10 8 11 0 0 0 0 0 0 1 0 1 2 2
1 2 4 5 12 22 26 20 7 4 8 61 91 86 105 99
114 113 107 91 51 77 62 90 105 53 67 66 107 120 121 117
118 112 111 111 115 115 115 113 113 115 114 114 110 104 96 84
75 72 73 81 82 76 69 61 54 38 23 53 26 29 84 50
30 51 63 56 55 73 66 56 92 142 152 144 98 74 67 62
62 78 106 146 151 143 122 149 130 88 62 46 35 28 23 19
18 16 18 14 6 4 2 4 3 1 0 0 0 0 0 0
5 15 12 8 6 0 0 0 0 0 0 0 1 0 0 0
0 1 2 4 12 22 26 13 12 46 84 63 98 108 86 78
102 118 91 53 57 72 47 91 116 58 57 69 100 125 125 123
121 117 114 113 114 114 114 117 114 114 113 111 111 106 99 91
83 83 89 93 87 79 69 64 57 39 52 87 25 38 71 56
36 36 63 64 45 60 63 61 93 90 118 141 103 77 66 58
63 83 108 146 151 143 121 150 132 89 65 47 36 28 22 19
16 16 18 15 7 5 2 4 3 0 0 0 0 0 0 0
0 15 7 1 0 0 0 0 0 0 0 0 0 0 0 0
0 2 3 4 11 23 35 46 48 77 86 66 92 84 87 78
68 72 100 48 57 56 52 88 87 62 42 75 91 128 130 126
125 122 115 116 116 113 115 116 115 115 113 111 108 103 98 93
89 95 98 96 89 78 71 64 63 40 41 41 27 60 59 65
52 23 39 54 27 41 43 71 83 75 51 55 80 76 63 55
64 81 107 147 152 143 120 151 137 91 68 49 35 27 22 21
16 18 18 15 7 6 1 3 2 0 0 0 0 0 0 0
0 29 4 0 0 0 0 0 0 1 0 0 0 2 2 0
3 6 8 8 21 48 77 78 55 70 108 95 101 111 120 90
92 87 53 48 88 76 60 82 115 68 49 85 89 117 135 134
131 126 122 119 117 113 114 115 116 116 115 113 110 105 99 96
95 102 104 98 86 80 73 68 74 42 69 57 37 47 50 55
23 36 57 58 71 49 71 48 46 56 46 46 61 70 66 71
64 77 104 145 151 145 115 151 134 91 67 49 36 23 20 17
14 18 19 15 7 6 1 3 3 1 0 0 0 0 0 0
3 4 0 0 0 0 0 0 0 0 0 0 0 4 6 0
4 8 20 73 85 50 68 55 52 69 88 65 78 99 96 63
60 72 32 57 81 74 56 86 98 60 46 73 99 101 136 141
137 132 127 123 119 115 113 114 114 116 115 113 111 109 107 108
110 113 109 99 90 82 74 77 85 54 79 42 49 84 61 64
28 44 46 27 66 60 43 47 59 74 75 44 58 66 73 84
94 83 104 144 151 147 107 151 127 87 69 49 35 21 18 13
13 19 20 17 8 7 1 4 1 0 0 0 0 0 0 0
0 0 0 0 0 0 0 0 0 0 0 0 0 9 8 0
6 60 98 79 69 40 56 80 53 35 73 75 82 97 106 103
62 65 50 43 51 63 63 64 76 57 62 65 82 94 122 141
140 134 133 128 121 118 116 114 118 116 115 113 114 112 112 112
115 116 108 98 91 83 81 89 90 55 62 75 56 79 76 84
49 17 35 18 53 51 62 73 61 58 51 34 78 79 72 94
105 86 83 126 151 147 103 150 123 93 67 43 31 22 18 12
8 16 19 15 8 6 1 3 0 0 0 0 0 0 0 0
7 7 8 8 7 0 0 0 0 0 0 0 0 7 12 9
58 85 88 71 96 75 65 97 69 46 102 91 95 120 133 92
85 59 66 75 73 45 64 67 122 94 63 44 53 77 105 138
141 142 135 131 126 121 119 119 119 118 117 117 117 117 116 118
121 116 105 96 91 90 91 100 83 65 101 85 61 83 56 51
59 22 26 20 47 68 76 73 28 29 38 39 62 69 89 93
73 82 103 80 119 149 101 151 126 93 65 42 27 25 19 11
6 16 18 16 9 7 3 3 0 0 0 0 0 0 0 0
12 13 12 14 13 0 5 0 0 0 0 0 3 12 30 63
79 105 109 93 100 91 61 83 95 63 92 93 76 103 120 98
68 37 56 64 57 63 103 77 99 78 43 48 64 82 94 121
146 143 141 136 129 125 122 122 123 123 122 122 122 120 123 124
124 114 101 96 96 96 98 104 78 71 98 96 60 72 54 71
60 16 14 17 23 41 27 33 18 49 52 45 52 44 81 93
86 57 57 58 72 91 101 151 126 94 66 43 34 28 20 9
8 18 19 16 9 8 2 2 0 0 0 0 0 0 0 0
11 10 15 18 13 0 5 3 0 0 0 0 0 6 66 108
106 114 102 99 95 78 25 57 69 39 58 97 84 100 124 105
90 85 96 98 68 78 81 80 75 59 63 55 69 74 71 102
138 147 143 137 134 130 129 126 130 127 124 126 125 125 129 130
126 111 100 99 99 102 104 105 74 72 98 79 53 96 67 95
79 33 27 23 28 52 51 49 42 65 53 31 74 79 97 96
77 91 79 37 56 74 89 150 120 94 62 46 33 25 20 11
9 17 19 15 9 8 3 2 1 0 0 0 0 0 0 0
0 0 0 0 0 0 8 4 1 4 0 0 0 42 111 120
99 70 62 52 48 63 45 44 47 47 50 63 50 64 85 94
76 84 96 91 82 103 114 82 100 101 93 69 37 47 69 77
117 143 141 141 139 139 135 131 134 131 126 129 130 130 134 132
125 109 103 102 104 106 106 100 65 87 96 81 71 103 78 93
88 34 25 25 13 38 54 63 39 52 63 41 89 75 95 105
88 85 101 68 74 40 49 110 125 92 55 40 30 22 18 13
11 19 20 16 10 9 3 3 1 0 0 0 0 0 0 0
0 0 0 0 0 0 11 4 3 11 0 0 26 96 115 100
84 89 73 112 104 105 58 59 78 78 63 84 84 91 113 89
55 70 77 68 91 104 98 118 118 114 108 78 54 77 85 102
76 116 134 137 139 142 141 137 137 135 131 132 132 133 132 130
122 109 103 105 107 109 107 93 60 99 97 58 50 93 48 1
47 56 48 57 21 62 66 80 56 65 67 32 46 37 57 74
93 99 122 79 84 53 59 66 112 94 55 35 28 21 17 14
11 20 22 18 10 9 2 3 1 0 0 0 0 0 0 0
0 0 0 0 0 0 4 6 7 6 0 2 79 88 73 70
111 109 89 92 90 81 61 42 67 82 63 84 90 103 114 91
70 90 66 39 84 81 93 123 128 86 46 63 60 62 88 90
74 95 119 134 133 136 140 141 140 137 133 133 132 133 133 128
118 110 108 109 111 113 106 96 62 96 85 50 32 43 22 0
3 47 47 54 32 39 47 37 30 19 33 25 57 53 57 50
62 51 65 59 85 45 48 66 74 95 66 40 26 20 17 14
13 19 22 19 10 10 2 4 1 0 0 0 0 0 0 0
0 0 0 0 0 0 0 0 0 0 0 27 94 70 82 115
111 95 87 67 59 84 53 43 52 40 30 58 74 94 111 92
90 77 50 34 44 49 43 57 62 17 0 42 40 40 72 58
75 87 96 125 140 138 141 141 140 138 137 134 133 133 129 126
118 111 111 112 115 112 98 67 43 71 56 45 46 65 37 3
0 6 44 30 29 33 64 79 71 47 66 54 53 78 93 67
90 85 104 61 64 40 65 68 50 77 67 45 28 22 19 13
11 19 22 18 11 10 1 4 2 0 0 0 0 0 0 0
0 0 0 0 0 0 0 0 0 0 6 56 64 87 103 110
76 91 132 96 73 88 87 59 90 71 77 90 84 68 89 84
50 42 46 26 52 56 36 61 62 55 31 61 66 63 95 87
80 86 105 94 135 145 144 144 140 139 136 136 133 131 128 121
117 112 112 117 117 90 63 66 57 66 73 72 42 44 48 40
9 0 1 22 30 20 80 75 73 55 72 77 50 64 87 99
79 89 110 69 50 11 34 34 44 56 63 45 32 24 20 14
12 19 22 20 13 12 2 5 1 0 0 0 0 0 0 0
0 0 0 0 0 0 0 0 0 0 30 66 37 101 101 68
120 139 134 113 89 73 95 54 87 82 69 88 109 97 112 73
93 83 103 65 103 98 49 44 78 63 51 37 50 59 74 98
76 81 117 86 109 133 145 145 143 139 138 135 129 130 127 120
117 114 114 116 100 72 43 59 44 44 44 59 46 35 60 53
35 47 15 12 39 37 128 77 68 30 52 43 30 86 59 88
62 64 91 59 55 41 62 65 19 60 56 43 33 25 19 14
12 17 22 20 12 10 1 4 1 0 0 0 0 0 0 0
0 0 0 0 0 0 0 0 0 0 64 60 43 93 87 86
118 140 110 115 128 96 113 51 88 70 65 73 113 89 121 135
81 71 97 95 103 109 55 57 66 58 35 43 38 50 73 66
52 44 89 78 80 86 110 136 142 140 136 133 129 130 126 121
117 117 116 104 75 60 36 39 40 36 43 61 41 33 53 50
39 65 36 63 82 47 124 102 93 46 85 80 52 94 79 89
78 98 126 55 42 37 77 72 42 53 47 46 32 25 19 14
12 17 22 20 11 12 1 5 1 0 0 0 0 0 0 0
0 0 0 0 0 0 0 0 0 18 55 42 58 45 102 106
108 146 112 100 103 82 110 60 64 57 66 61 114 98 127 126
92 78 86 112 105 97 52 51 47 65 51 56 75 61 84 104
92 58 83 54 9 43 55 108 122 129 140 135 131 130 126 123
120 120 113 79 67 100 80 75 87 68 54 63 36 31 46 44
33 64 62 109 115 105 106 108 84 52 89 96 57 85 69 95
86 94 132 63 21 17 39 34 33 72 46 52 29 24 17 13
12 16 21 19 11 10 1 5 1 0 0 0 0 0 0 0
0 0 0 0 0 0 0 0 0 35 63 82 52 32 87 124
113 115 109 99 120 103 102 63 68 65 46 36 91 67 97 112
68 77 85 106 87 113 95 51 86 89 74 56 96 96 92 117
103 106 107 121 63 36 50 80 112 111 131 134 131 128 124 122
118 119 93 62 90 38 7 21 74 73 32 44 41 46 69 75
48 54 68 98 119 113 83 99 66 46 83 87 62 98 78 70
88 98 115 85 65 50 52 52 48 64 68 69 38 27 17 13
13 15 21 19 12 11 1 5 1 0 0 0 0 0 0 0
0 0 0 0 0 0 0 0 2 66 85 93 52 68 71 131
134 92 117 123 122 102 100 81 59 70 48 38 94 72 99 111
102 106 120 123 105 105 117 56 68 79 90 62 95 109 86 119
114 109 107 109 92 54 49 53 116 108 121 130 131 123 122 120
119 108 77 77 51 54 51 71 80 54 29 46 37 50 80 82
60 83 90 66 107 104 75 115 72 30 52 75 59 99 88 98
122 96 110 65 48 60 65 50 57 94 71 63 44 32 19 13
11 15 21 19 11 11 1 5 1 0 0 0 0 0 0 0
0 0 3 1 0 0 0 4 30 71 73 70 80 85 67 100
104 105 119 147 126 90 92 87 61 96 49 48 85 99 93 114
97 108 124 116 96 119 135 58 66 75 61 40 30 63 64 85
87 55 67 65 79 61 35 59 74 104 112 130 130 123 123 118
115 87 77 64 53 56 48 73 62 50 61 80 46 48 73 82
59 83 90 99 121 128 89 120 92 41 54 64 53 97 81 93
114 88 111 45 41 62 63 39 59 93 75 83 37 33 20 13
10 14 20 20 11 11 1 6 1 0 0 0 0 0 0 0
0 0 8 5 0 0 0 3 60 59 37 60 113 101 73 54
113 115 107 114 112 65 59 71 50 74 48 53 74 106 86 129
102 112 113 122 118 102 105 36 21 42 51 54 41 97 76 76
94 75 66 72 97 85 46 32 60 66 104 125 130 126 122 116
98 81 73 31 45 38 32 41 42 44 36 53 25 18 33 52
37 70 94 98 120 109 103 97 87 60 58 71 66 105 92 106
112 105 122 44 26 40 51 39 53 102 72 78 33 45 25 13
10 13 20 19 10 10 1 6 1 0 0 0 0 0 0 0
0 0 1 1 0 1 0 7 74 88 55 81 109 93 76 58
90 112 114 66 93 81 75 62 20 47 24 28 53 90 57 103
83 67 75 94 93 66 70 40 48 92 79 69 42 68 77 95
123 89 73 70 120 91 71 30 16 44 86 114 127 128 123 112
64 65 38 26 53 45 47 84 93 57 57 64 39 40 48 53
30 48 58 67 90 94 80 69 41 55 59 67 69 108 81 107
109 88 103 80 38 49 65 48 72 75 88 93 54 46 38 14
10 14 20 18 11 11 1 7 1 0 0 0 0 0 0 0
0 0 0 0 0 0 0 26 104 94 100 74 91 88 74 73
65 117 102 111 99 120 97 100 52 76 47 32 70 88 67 97
109 75 86 101 116 75 59 88 35 70 72 52 25 52 83 78
97 90 74 60 105 113 84 61 32 51 67 102 123 125 120 93
72 32 33 37 54 57 69 93 96 51 57 70 40 45 48 63
45 67 86 84 89 78 55 47 56 59 48 56 61 93 79 107
109 92 84 87 53 66 73 43 84 81 85 53 66 53 25 17
10 13 20 20 12 12 0 6 1 0 0 0 0 0 0 0
0 0 0 0 0 0 12 51 102 83 103 72 53 76 103 103
71 76 65 117 115 121 101 90 50 70 57 34 75 100 74 97
128 93 94 106 120 96 73 78 25 22 36 36 32 35 82 61
82 87 74 59 91 69 67 47 43 38 54 78 110 121 102 70
34 23 30 31 49 84 78 88 74 50 30 39 18 25 37 54
44 80 85 82 104 82 60 80 71 45 24 27 28 55 48 72
80 71 63 77 47 71 63 61 88 103 109 77 49 30 29 30
9 12 19 18 12 12 0 7 2 0 0 0 0 0 0 0
