P2
128 120
156
24 2 1 1 3 21 65 71 62 51 51 53 55 56 56 55
64 76 66 59 53 50 49 49 48 48 49 48 48 48 47 47
47 47 46 45 46 45 45 44 43 42 43 42 41 41 40 39
39 39 38 37 37 36 35 34 34 32 32 32 32 31 30 29
30 29 28 28 27 27 26 25 25 24 25 26 30 30 30 29
22 19 19 27 28 27 27 26 25 25 25 23 23 22 19 24
26 26 26 27 28 29 28 28 28 28 29 29 28 29 29 29
30 31 31 32 32 32 33 33 34 34 34 35 35 35 36 36
33 15 0 0 0 15 59 62 38 0 0 0 2 2 0 0
26 70 67 72 70 65 54 51 51 50 50 48 48 47 47 47
46 46 45 45 45 45 44 44 44 43 43 42 42 41 41 40
39 38 38 38 37 36 35 35 35 34 34 33 32 31 32 31
30 29 29 28 27 27 26 26 25 25 26 27 30 30 31 30
23 21 22 26 29 28 27 27 27 26 26 25 25 24 20 25
27 28 27 28 28 28 28 28 28 28 28 29 30 30 31 30
32 32 33 33 33 33 33 34 34 35 35 36 36 36 37 37
33 6 2 6 9 14 56 58 40 0 0 0 14 7 0 0
17 68 63 64 46 45 49 53 60 65 67 65 60 52 47 47
47 46 46 46 45 45 44 44 43 43 42 42 41 41 41 40
40 39 39 38 38 37 36 36 35 35 34 33 32 32 32 31
30 30 29 29 28 28 27 26 26 25 26 27 31 31 31 30
25 22 24 24 30 28 29 28 27 26 27 25 25 24 21 25
27 28 28 29 28 29 29 28 30 30 30 30 30 31 31 32
31 32 33 33 33 34 34 35 34 35 36 35 36 37 37 37
19 1 0 0 3 9 56 59 43 0 0 0 11 8 0 0
11 65 62 60 21 0 5 15 26 36 46 56 65 57 47 47
47 47 46 46 46 45 44 45 44 44 43 42 42 42 41 40
40 39 38 38 37 37 36 36 35 35 34 34 34 33 32 32
31 31 30 29 29 28 27 27 27 26 26 27 32 32 32 31
25 23 26 23 30 29 29 28 28 27 28 26 26 25 22 26
27 28 28 28 29 30 30 30 31 31 31 31 31 32 32 32
33 33 33 35 33 34 34 35 35 36 36 36 37 37 37 38
0 0 0 0 0 6 54 58 45 0 0 0 9 4 0 0
7 63 64 59 21 0 0 0 0 0 0 16 63 57 47 47
47 47 47 46 46 45 45 45 44 44 44 43 42 42 42 41
41 40 39 39 39 38 37 36 36 36 35 34 34 33 32 32
32 31 31 30 30 28 28 28 27 27 27 28 33 33 33 32
26 23 28 23 31 31 30 29 29 27 29 26 26 26 21 26
27 29 29 30 30 31 31 31 32 32 32 32 32 32 32 33
33 33 34 35 35 35 36 36 36 36 37 37 37 38 38 38
0 0 2 9 2 4 50 56 52 1 4 14 11 11 1 6
3 58 62 56 22 0 0 0 0 0 0 12 63 57 47 47
46 46 46 45 46 45 44 44 44 44 43 42 42 41 40 41
40 40 40 39 38 37 38 37 36 36 35 35 34 34 33 32
32 31 31 30 30 29 28 27 27 27 28 28 34 33 33 32
27 23 29 22 31 30 30 29 28 27 29 27 27 26 21 28
28 30 30 30 30 31 31 30 31 31 32 31 32 32 32 32
33 34 34 34 34 35 35 36 36 36 36 36 37 38 39 39
0 0 2 12 6 5 50 58 61 4 18 18 0 4 0 4
1 55 62 57 24 0 3 13 6 0 0 11 61 57 46 46
47 46 46 46 46 45 45 44 44 43 43 42 42 41 41 40
40 39 39 39 39 38 37 37 36 36 36 34 35 33 33 33
32 32 31 30 31 29 28 28 28 28 27 28 33 33 33 32
27 23 30 22 31 31 30 30 29 29 30 27 27 27 22 28
28 30 30 31 31 32 31 32 32 32 32 32 33 33 33 33
34 34 34 34 35 35 35 36 36 36 37 38 38 38 37 37
5 0 0 3 0 6 52 58 64 12 18 10 0 4 0 3
4 50 64 60 24 0 12 17 10 0 0 9 60 56 46 47
46 46 46 45 46 45 44 44 43 43 43 42 42 42 41 41
40 40 39 39 39 38 38 37 36 36 35 35 34 34 34 33
33 33 32 31 31 30 29 28 28 28 28 29 33 34 33 33
28 23 31 23 31 30 30 30 29 28 30 27 27 27 23 29
29 31 31 32 32 32 31 32 32 32 32 32 32 33 34 34
34 34 35 35 36 36 36 36 36 36 36 37 37 37 38 39
16 10 2 0 0 9 51 55 67 23 15 8 2 0 0 3
5 45 62 58 25 0 5 10 9 2 0 9 60 55 46 46
46 46 46 45 45 45 45 44 44 44 43 43 42 42 42 41
40 40 40 39 39 38 38 38 37 36 36 35 35 34 34 33
32 32 31 31 30 30 30 29 29 29 29 30 34 35 34 34
29 23 30 24 30 31 32 31 30 29 30 28 27 28 24 29
29 31 31 31 32 33 32 32 33 33 33 33 34 34 34 35
35 35 35 36 34 35 35 35 36 37 38 38 39 39 40 39
60 52 49 44 33 31 49 45 61 26 15 4 5 2 0 0
3 37 60 57 28 0 1 5 15 9 0 8 60 55 47 45
44 46 45 45 45 45 44 43 43 43 43 42 42 41 41 42
40 40 40 39 39 38 38 37 37 36 35 35 34 34 34 33
33 32 31 31 31 30 29 29 29 29 28 30 33 35 34 34
29 24 31 26 29 32 31 31 31 29 28 28 28 28 24 29
29 32 32 32 32 33 32 33 33 32 33 33 34 34 34 34
35 35 35 35 35 36 37 36 36 37 37 39 38 39 39 40
44 49 57 61 63 63 54 42 52 32 21 18 22 23 21 24
24 39 54 60 32 0 1 8 11 10 0 7 58 55 45 43
46 46 45 45 45 45 45 44 44 44 43 42 42 41 41 41
40 40 40 39 38 39 39 37 37 35 33 33 34 34 34 33
32 32 31 31 31 31 30 30 29 28 29 30 33 36 35 34
29 24 30 29 27 33 32 31 31 30 28 29 29 28 25 30
29 32 32 32 33 32 33 33 34 34 34 34 34 34 34 35
35 35 35 35 35 36 37 37 37 38 38 39 39 39 40 40
26 28 33 36 42 47 47 40 44 42 42 42 45 42 41 44
42 39 42 59 33 0 0 6 7 11 10 12 57 55 43 44
46 46 46 45 45 45 45 44 43 43 43 42 42 42 41 41
41 40 40 39 38 37 37 35 33 32 28 24 29 33 34 33
33 31 32 31 31 30 29 30 30 29 29 30 33 36 35 34
30 24 31 32 26 33 32 32 31 30 29 29 29 28 25 29
28 32 33 34 34 33 34 33 33 33 33 33 34 35 35 35
35 35 36 36 37 36 37 37 38 38 38 39 39 39 39 39
23 23 23 24 24 24 25 27 30 30 31 30 32 32 35 37
38 39 38 50 46 36 30 24 18 15 15 27 58 54 42 44
45 45 45 45 45 44 44 44 44 44 43 43 43 42 42 42
41 40 39 39 36 36 35 36 31 26 23 29 30 30 26 23
28 28 28 28 30 30 30 29 30 30 30 31 35 36 36 35
32 24 30 34 25 34 33 32 32 31 29 30 30 29 26 30
28 33 33 33 32 33 32 33 34 34 34 35 35 36 35 35
36 35 36 36 37 36 37 38 38 38 39 40 40 39 40 40
22 23 23 23 23 23 23 22 22 23 23 23 24 25 30 35
40 44 39 35 36 38 41 44 46 47 46 46 54 50 43 44
45 45 45 45 44 44 45 44 43 43 43 43 42 43 42 40
40 40 39 36 28 31 35 31 31 31 26 19 13 14 17 20
27 29 32 29 29 31 31 31 30 30 30 31 33 36 36 36
32 24 31 36 25 34 34 33 32 32 29 30 30 30 27 29
28 32 33 33 33 34 34 35 35 34 34 35 35 36 35 36
36 36 36 37 37 38 38 39 39 39 40 39 40 39 40 40
36 33 29 26 25 25 23 22 22 22 22 22 22 21 23 23
22 23 24 25 24 27 30 34 38 40 43 45 46 47 43 45
46 46 46 46 45 45 45 44 44 44 43 43 43 41 41 42
39 37 25 14 14 14 17 25 27 16 12 14 22 28 23 16
15 17 22 24 29 29 29 31 30 30 31 32 34 37 37 36
34 25 31 38 26 34 34 33 32 32 31 31 31 30 28 30
31 34 35 35 34 35 35 35 35 34 35 36 36 37 36 36
37 37 37 37 38 38 38 38 39 40 40 40 41 40 41 41
50 50 44 44 43 43 43 36 31 30 18 19 20 22 23 22
23 23 24 23 22 22 23 22 23 25 29 32 37 42 43 45
47 47 46 46 46 45 45 45 44 44 43 43 41 39 41 39
34 22 18 13 21 20 10 8 7 5 8 12 13 6 2 2
2 2 5 9 15 19 27 27 30 28 31 32 35 37 36 36
34 25 31 38 27 33 34 34 33 33 30 31 31 30 28 30
31 35 35 34 35 35 35 35 35 35 36 36 36 38 36 37
37 37 37 38 38 38 38 40 40 40 40 40 41 41 41 40
28 29 32 31 33 33 36 48 38 52 53 47 40 35 42 40
38 35 33 30 22 22 22 21 21 21 20 21 22 21 24 27
31 36 39 41 43 44 44 43 43 41 40 40 36 38 39 34
20 8 2 0 0 0 0 2 1 0 0 0 0 0 0 0
0 0 0 0 0 0 4 14 23 29 31 33 35 38 37 37
35 25 30 39 29 32 35 34 33 33 32 33 31 32 30 30
31 35 35 35 35 35 36 35 36 36 36 36 36 38 37 37
37 38 38 39 39 39 39 39 40 40 40 41 41 40 40 40
28 26 27 26 25 25 25 27 31 47 45 34 39 35 40 40
43 47 68 68 36 28 25 23 23 23 22 21 22 20 19 21
21 22 21 21 23 26 37 42 39 40 33 26 17 12 7 10
4 0 0 0 0 0 0 0 0 0 0 0 0 0 0 0
0 0 0 0 0 0 0 0 10 25 28 32 34 37 37 36
34 25 30 39 31 30 36 35 35 34 32 34 32 32 30 30
32 34 35 35 36 36 36 36 36 36 37 37 37 38 38 37
38 38 38 39 39 39 40 40 40 40 40 40 40 40 40 40
26 27 26 26 26 24 22 24 25 42 30 0 0 4 42 41
44 47 63 67 61 58 53 48 54 50 44 41 27 23 20 21
21 19 18 16 11 15 30 36 33 25 22 15 7 8 7 1
0 0 0 0 0 0 0 0 0 0 0 0 0 0 0 0
0 0 0 0 0 0 0 0 0 13 27 29 34 37 37 37
36 25 30 39 33 28 36 35 35 33 32 34 32 32 31 29
32 36 36 36 36 36 37 36 37 37 36 37 37 39 38 38
38 38 38 39 39 39 40 38 39 39 39 39 39 40 40 40
27 26 29 28 27 25 25 25 26 43 31 0 0 4 37 40
41 46 59 64 65 66 65 55 62 63 60 56 34 34 36 37
28 24 21 19 17 16 26 31 29 17 15 4 15 16 5 0
0 0 0 0 0 0 0 0 0 0 0 0 0 0 0 0
0 0 0 0 0 0 0 0 0 0 14 24 30 35 36 37
36 25 30 39 35 26 35 36 35 33 33 34 33 33 32 30
33 35 36 36 36 37 37 37 37 37 38 38 38 39 38 37
37 37 38 39 39 39 38 40 39 40 40 40 40 40 39 40
33 29 29 28 24 24 28 25 25 47 33 0 0 3 15 10
9 18 56 61 61 63 56 53 54 60 60 61 41 45 45 49
42 48 47 39 16 15 27 34 25 15 7 18 12 2 1 0
0 0 0 0 0 0 0 0 0 0 0 0 0 0 0 0
0 0 0 0 0 0 0 0 0 0 1 10 19 28 33 36
35 26 28 38 38 24 36 36 35 35 34 34 33 33 32 31
33 36 37 37 37 37 37 37 37 38 37 37 37 37 37 38
38 38 39 39 40 40 39 39 40 40 40 40 40 39 40 40
16 13 19 9 6 7 19 17 19 47 33 0 0 8 19 6
2 8 58 60 23 17 30 26 34 43 50 57 46 48 51 49
51 51 47 46 17 18 26 31 19 9 5 6 0 0 0 0
0 0 0 0 0 0 0 0 0 0 0 0 0 0 0 0
0 0 0 0 0 0 0 0 0 0 0 0 4 19 31 33
29 24 19 23 39 23 36 36 36 35 35 34 33 33 33 31
34 37 37 37 37 37 37 37 37 37 37 37 39 38 38 39
39 38 39 39 40 40 39 39 40 39 40 40 40 40 41 40
0 0 0 1 0 0 2 4 4 46 34 1 12 13 49 20
0 12 58 60 19 4 6 0 0 6 3 35 49 49 52 48
55 53 45 44 23 15 24 25 16 2 0 0 0 0 0 0
0 0 0 0 0 0 0 0 0 0 0 0 0 0 0 0
0 0 0 0 0 0 0 0 0 0 0 0 0 2 19 30
27 23 24 31 39 25 35 37 36 35 35 35 34 34 33 30
34 36 37 38 37 37 38 39 38 38 38 38 38 38 38 38
39 39 39 39 40 41 40 40 40 40 40 40 40 40 41 41
11 2 6 0 0 0 0 0 3 47 37 6 21 28 44 36
17 6 58 61 19 0 2 0 2 18 11 36 46 48 46 50
49 51 42 45 22 14 12 7 2 0 0 0 0 0 0 0
0 0 0 0 0 0 0 0 0 0 4 1 0 0 0 0
0 0 0 0 0 0 0 0 0 0 0 0 0 1 6 15
33 27 28 40 41 25 33 37 35 34 35 36 34 34 34 30
34 36 37 37 38 38 39 38 39 38 38 38 38 39 39 39
38 39 39 39 40 41 40 40 40 40 40 41 41 41 41 41
17 5 5 2 0 0 0 0 1 47 40 3 19 35 41 20
27 3 56 65 26 0 2 0 5 25 16 34 38 12 19 26
32 35 30 28 11 3 1 0 0 0 0 0 0 0 0 0
0 0 0 0 0 0 0 1 0 0 0 0 0 0 0 0
0 0 0 0 0 0 0 0 0 0 0 0 0 0 2 7
14 27 30 40 41 29 31 38 37 36 35 36 35 34 34 30
36 37 39 38 39 39 40 39 39 40 39 39 39 38 39 39
39 39 39 40 40 42 41 41 41 41 41 41 41 41 41 40
29 17 13 10 3 3 4 1 5 53 43 0 4 20 34 22
8 2 55 65 29 0 4 0 2 13 8 34 37 0 1 4
2 3 5 10 5 0 0 0 0 0 0 0 0 0 0 0
0 0 0 0 0 0 0 0 0 0 0 0 0 0 0 0
0 0 0 0 0 0 0 0 0 0 0 0 0 0 0 4
6 20 29 40 41 31 28 38 37 36 35 36 34 35 35 31
37 37 39 39 39 39 39 40 39 39 39 39 39 39 39 39
39 39 40 40 40 41 40 41 40 40 41 41 41 42 42 41
26 19 20 21 2 0 2 0 1 48 45 0 0 0 3 0
0 1 55 67 33 0 0 0 4 0 0 32 28 1 0 0
0 0 1 0 1 0 0 0 0 0 0 0 0 0 0 0
0 0 0 0 0 0 0 0 0 0 0 0 0 0 0 0
0 0 0 0 1 0 0 0 0 0 0 0 0 0 0 0
0 8 23 34 36 32 27 38 38 36 35 36 35 35 35 30
37 36 40 40 40 39 40 40 40 39 40 40 39 39 39 39
39 40 40 41 41 42 41 41 41 42 42 42 42 42 42 42
31 25 19 23 0 0 0 0 1 39 47 0 0 0 0 0
0 0 52 68 38 0 3 5 16 4 0 23 29 5 4 5
3 0 0 0 0 0 0 0 0 0 0 0 0 0 0 0
0 0 0 0 0 0 0 0 0 0 0 0 0 0 0 0
1 0 0 0 0 0 0 0 0 0 0 0 0 0 0 0
0 0 7 17 23 33 23 36 37 37 35 37 36 35 35 30
37 37 40 40 40 39 40 39 39 39 40 40 39 40 39 40
40 41 41 41 41 42 41 41 42 42 42 42 42 42 42 42
40 14 12 11 0 0 1 2 4 42 48 1 0 0 0 0
0 0 51 68 44 0 9 15 28 11 1 26 30 6 5 4
4 0 0 0 0 0 0 0 0 0 0 0 0 0 0 0
0 0 0 0 0 0 0 0 0 0 0 0 0 0 0 0
0 2 0 0 1 2 0 0 0 0 0 0 0 0 0 0
0 0 0 5 17 32 23 34 39 37 35 37 35 36 35 31
37 37 40 40 40 39 41 40 40 40 40 40 41 40 40 40
41 41 41 42 42 43 42 42 42 42 43 43 43 42 43 43
36 1 0 0 3 1 3 0 3 44 55 43 39 39 37 34
30 29 56 67 48 3 4 6 1 2 0 22 21 7 6 2
1 0 0 0 0 0 0 0 0 0 0 0 0 0 0 0
0 0 0 0 0 0 0 0 0 0 0 0 0 0 0 0
0 1 1 0 0 0 0 0 0 0 0 0 0 0 0 0
0 0 0 0 3 22 24 32 37 37 35 38 35 36 36 32
39 37 41 41 40 39 41 41 40 40 40 40 40 41 40 42
41 41 42 42 41 42 42 42 42 42 43 42 43 43 43 42
35 1 0 0 0 0 0 0 0 41 67 65 62 56 54 50
45 38 34 37 19 0 1 11 11 2 0 15 19 7 5 1
0 0 0 0 0 0 0 0 0 0 0 0 0 0 0 0
0 0 0 0 0 0 0 0 0 0 0 0 0 0 0 0
0 0 2 2 1 0 0 0 0 0 0 0 0 0 0 1
1 0 0 0 0 8 21 29 37 39 36 38 37 37 36 33
38 37 40 40 41 40 41 40 41 41 41 41 42 42 41 41
42 41 41 42 42 41 42 42 43 43 43 43 44 44 43 44
38 6 0 0 0 0 0 0 0 48 62 28 28 32 37 48
54 55 47 37 25 16 12 13 12 2 0 13 21 4 4 0
0 0 0 0 0 0 0 0 0 0 0 0 0 0 0 0
0 0 0 0 0 0 0 0 0 0 0 0 0 0 0 0
1 0 0 3 0 0 0 1 1 0 0 0 0 0 0 0
1 0 0 0 0 1 13 22 36 39 37 38 36 37 36 33
39 37 42 41 41 41 42 41 41 41 41 41 42 42 42 42
42 42 42 43 42 41 42 42 43 43 43 43 43 44 43 44
37 5 2 0 2 0 0 0 0 46 58 4 0 0 0 2
6 14 52 44 53 56 52 54 54 43 27 19 32 8 3 0
0 0 0 0 0 0 0 0 0 0 0 0 0 0 0 0
0 0 0 0 0 0 0 0 0 0 0 0 0 0 0 1
2 1 0 0 0 0 0 0 0 0 0 0 0 0 0 0
0 0 0 0 0 0 4 12 26 34 36 38 37 37 36 33
39 37 41 41 40 41 41 41 42 42 42 42 42 42 44 42
42 41 41 42 42 42 42 43 43 43 44 43 44 44 43 41
42 17 11 6 7 0 0 0 2 48 59 12 0 2 2 0
0 1 52 62 26 20 28 36 42 43 24 33 38 25 5 0
0 0 0 0 0 0 0 0 0 0 0 0 0 0 0 0
0 0 0 0 0 0 0 0 0 0 0 0 0 0 1 2
2 1 1 1 0 1 1 1 2 0 0 0 0 0 0 0
0 0 0 0 0 0 3 7 19 27 36 38 36 38 37 34
39 37 42 42 42 42 42 42 43 42 43 42 42 42 43 42
43 42 42 43 43 43 42 43 43 44 43 44 44 43 42 43
29 5 7 13 16 13 7 3 10 51 57 17 0 1 6 22
7 1 49 64 29 18 18 23 21 10 8 42 37 17 4 0
0 0 0 0 0 0 0 0 0 0 0 0 0 0 0 0
0 0 0 0 0 0 0 0 0 0 0 0 0 0 1 1
0 1 4 2 0 0 2 3 1 1 0 0 0 0 0 0
0 0 0 0 0 0 4 10 17 26 36 38 36 37 37 35
38 38 43 42 41 41 42 42 41 42 42 41 40 40 43 42
40 38 43 43 44 44 44 44 43 42 39 35 33 29 25 26
35 1 0 0 9 20 9 4 24 55 55 21 27 13 22 17
4 0 47 65 22 6 12 7 5 3 8 37 35 10 1 0
0 0 0 0 0 0 0 0 0 0 0 0 0 0 0 0
0 0 0 0 0 0 0 0 0 0 0 0 0 0 0 0
0 1 4 0 0 0 0 4 0 0 0 0 0 0 0 0
0 0 0 0 0 1 6 11 16 19 33 38 36 37 36 34
38 37 42 41 41 41 41 41 41 41 41 40 40 40 41 34
9 33 42 41 38 35 32 28 25 24 22 23 24 26 26 24
41 2 0 0 3 11 5 12 32 60 54 23 36 21 16 19
11 0 44 63 17 0 7 1 0 0 9 33 31 6 2 0
0 0 0 0 0 0 0 0 0 0 0 0 0 0 0 0
0 0 0 0 0 0 0 0 0 0 0 0 0 0 0 0
0 1 2 2 0 0 0 2 0 0 0 0 3 1 0 0
0 0 0 0 0 0 7 6 18 20 28 35 35 36 36 34
38 37 42 40 40 38 38 37 36 33 34 41 41 39 28 9
22 28 26 24 24 24 24 26 26 28 29 30 30 32 32 32
50 3 0 5 22 23 20 24 45 65 55 12 10 3 11 35
20 0 44 60 16 0 0 2 0 0 7 27 31 10 1 0
0 0 0 0 0 0 1 0 0 0 0 0 0 0 0 0
0 0 0 0 0 0 0 0 0 0 0 0 0 0 0 0
0 3 6 6 0 2 2 0 1 0 0 0 0 0 1 0
0 0 0 0 0 0 8 1 11 18 21 33 34 34 35 34
34 34 35 35 36 37 37 36 35 27 23 28 25 18 13 18
25 27 27 29 30 30 32 33 34 35 36 37 37 39 37 34
52 4 0 5 34 38 51 57 45 59 64 47 37 37 37 28
12 1 46 60 18 18 16 0 0 0 4 29 25 9 1 0
0 0 0 2 2 2 1 0 0 0 0 0 0 0 0 0
0 0 0 0 0 0 0 0 0 0 0 0 0 0 0 0
0 0 1 2 0 1 1 0 0 1 0 0 0 0 0 0
0 0 0 0 0 0 1 3 1 10 15 21 24 26 27 29
32 35 36 32 29 27 25 24 24 23 22 26 15 23 18 31
33 34 35 36 37 37 37 38 38 38 39 39 39 40 39 31
51 4 0 2 31 35 48 48 7 32 64 54 24 46 59 35
7 0 49 65 21 29 17 0 0 0 2 28 22 3 0 0
0 0 0 0 5 2 4 0 0 0 0 0 0 0 0 1
0 2 0 0 0 0 0 0 0 1 0 0 0 0 0 0
0 0 0 2 0 0 0 0 0 1 0 0 0 0 0 0
0 0 0 0 0 2 1 1 0 15 21 26 23 21 21 18
22 22 22 23 25 26 27 28 30 31 31 21 26 36 22 34
37 38 36 34 39 40 39 40 41 34 28 34 36 36 37 30
51 4 0 7 47 48 40 33 8 17 60 52 16 36 55 29
12 0 48 65 23 12 16 1 0 0 1 21 14 0 0 0
0 0 0 0 1 2 3 0 0 0 0 0 0 0 0 0
0 1 2 0 0 0 0 2 0 2 0 0 0 0 0 0
0 0 0 0 0 0 0 0 0 0 1 0 0 0 0 0
0 0 0 0 0 4 0 0 0 13 25 29 29 26 25 23
22 23 26 30 31 32 34 35 35 37 31 24 40 39 32 5
7 7 2 12 23 42 35 28 28 5 4 0 2 2 7 25
54 17 10 9 25 55 50 46 22 11 55 39 7 19 50 13
12 0 48 67 25 0 6 0 0 0 1 11 3 0 0 0
0 0 0 0 3 6 7 1 0 0 0 0 0 0 0 1
0 0 0 0 0 0 2 5 4 1 0 0 0 0 0 0
0 0 0 0 0 0 0 0 0 0 0 1 0 0 0 0
0 0 0 0 0 1 0 0 0 7 22 34 34 32 30 27
26 27 31 35 36 36 38 38 38 37 24 29 18 30 41 5
0 0 0 5 12 13 2 0 0 0 5 0 0 0 0 18
55 47 54 46 26 18 41 51 42 12 26 33 15 7 39 4
3 0 46 66 25 0 0 0 0 0 0 3 1 2 0 0
0 0 0 2 2 12 7 5 0 0 0 1 0 0 0 2
1 0 0 0 0 0 0 4 4 1 0 0 0 0 0 0
0 2 0 0 0 0 0 0 0 0 0 0 0 0 0 0
0 0 0 0 0 0 0 0 0 5 16 33 36 36 36 34
30 31 36 38 40 39 40 40 39 26 9 0 0 2 39 5
0 0 0 0 0 0 0 0 0 0 12 7 0 0 0 14
61 59 55 36 56 35 4 6 4 0 0 4 28 15 11 1
18 14 47 61 22 0 0 0 0 0 0 2 1 1 0 0
0 0 0 3 5 8 9 8 3 2 8 0 0 0 0 1
0 1 0 0 0 1 1 5 7 3 1 0 0 0 2 3
1 0 0 0 0 0 0 0 0 0 0 0 0 0 0 0
0 0 0 0 0 0 0 0 0 0 17 34 36 37 36 34
32 34 38 40 40 41 40 41 39 7 17 37 15 4 4 0
0 0 0 0 0 0 0 0 2 0 0 0 0 0 0 18
68 66 57 14 56 65 29 1 0 1 2 0 0 2 15 3
47 55 57 55 37 24 20 14 10 1 2 1 0 1 0 0
0 0 1 6 7 2 7 8 8 4 6 1 0 0 0 1
1 0 0 0 0 0 3 3 5 0 0 0 0 0 1 1
0 0 0 0 0 1 0 0 0 0 0 0 0 0 0 0
0 0 0 0 0 0 0 0 0 1 28 34 36 36 36 35
31 37 40 42 41 42 42 41 31 17 40 26 27 41 42 39
38 38 38 37 20 30 22 0 3 0 0 0 0 0 0 28
72 71 64 11 48 65 21 5 0 2 7 1 10 26 55 38
53 62 63 56 56 59 52 38 47 26 17 0 2 2 0 0
1 0 7 17 11 8 4 8 7 8 2 3 0 0 1 4
1 0 0 0 0 0 0 1 0 0 0 1 0 0 0 0
0 0 1 2 0 0 0 0 0 0 0 0 0 0 0 0
0 1 0 0 0 0 0 0 0 5 30 34 37 36 36 36
32 39 41 42 41 41 40 37 11 21 23 39 43 43 43 43
43 43 43 42 41 11 5 0 2 0 3 15 16 14 24 36
67 68 68 16 35 66 25 0 0 4 43 39 53 52 62 63
61 62 64 64 48 25 19 13 17 22 12 0 2 7 6 3
3 2 46 40 24 13 3 4 6 5 6 10 3 5 3 9
1 0 0 0 0 0 1 0 0 0 0 0 0 0 0 0
0 0 0 0 0 0 0 0 0 0 0 0 0 0 0 0
1 1 0 0 0 0 0 0 0 12 25 35 37 35 36 36
33 40 41 42 43 42 41 16 30 43 43 43 42 43 42 43
43 43 42 43 17 0 0 4 1 0 13 44 43 42 41 38
14 16 52 27 26 67 56 31 20 28 56 61 55 41 47 61
43 40 46 54 36 0 0 0 2 22 7 0 10 6 9 5
4 12 64 83 69 53 28 13 7 4 2 8 11 17 22 10
3 0 0 0 0 0 0 0 0 1 1 0 0 0 0 0
0 0 0 0 0 0 0 0 0 0 1 0 0 0 0 0
2 0 0 0 0 0 0 0 0 22 26 36 37 37 37 37
33 40 41 43 42 41 26 17 43 43 43 43 42 43 42 43
43 44 43 43 14 0 0 23 0 0 10 44 42 42 42 40
2 1 42 50 24 66 63 63 62 62 62 61 46 10 13 27
10 0 1 23 39 0 1 6 6 11 5 0 13 6 0 0
0 7 45 80 83 66 52 36 19 8 5 7 17 19 19 31
16 4 4 1 0 0 0 0 0 0 0 0 0 0 0 0
0 0 0 0 0 0 0 0 0 0 1 0 0 0 0 0
0 0 0 0 0 0 0 0 1 23 27 34 37 36 36 36
33 40 41 42 42 34 11 41 43 43 43 43 43 43 43 43
43 43 43 44 17 0 0 5 0 0 9 43 43 43 42 41
6 14 43 58 17 63 63 65 65 64 60 54 39 9 0 3
7 0 0 19 43 1 4 36 35 12 1 1 20 11 0 0
0 0 13 55 87 78 49 33 35 31 37 25 13 15 9 15
23 6 4 7 7 4 0 0 0 0 0 0 0 0 0 0
0 0 0 0 0 0 0 0 0 0 1 0 0 0 2 0
0 0 0 0 0 0 0 0 6 17 24 31 23 30 37 37
34 41 41 42 41 12 35 43 42 42 43 43 43 44 43 43
43 43 43 43 17 0 0 0 0 0 6 43 43 44 42 41
12 16 36 61 11 61 66 66 66 64 30 19 18 9 4 3
24 0 0 19 43 2 26 45 31 3 0 9 18 15 0 0
0 2 13 33 72 81 61 46 46 28 8 0 0 0 0 21
66 22 11 16 14 14 10 2 1 0 0 0 0 0 0 0
0 0 0 0 0 0 1 0 0 3 1 1 0 0 0 1
0 0 0 0 0 0 0 0 6 18 21 24 21 23 36 37
35 41 40 42 34 16 43 43 43 43 43 44 43 43 43 42
42 40 36 34 14 0 0 1 0 2 5 43 44 44 43 43
2 14 27 60 8 34 42 45 48 53 53 54 52 49 50 45
46 4 0 18 43 8 9 48 37 1 0 29 28 23 0 0
0 8 33 31 53 76 78 62 19 0 0 0 0 0 0 11
11 5 4 7 8 9 8 5 3 2 0 0 0 0 0 0
0 0 0 0 0 0 0 1 0 0 4 3 0 0 0 0
0 0 0 0 0 0 1 0 1 9 25 16 15 18 35 37
35 41 40 42 26 26 42 42 41 42 42 42 43 43 43 43
27 7 2 1 1 0 0 0 0 2 4 42 43 43 45 44
4 21 33 59 11 0 0 0 0 3 30 40 26 8 10 13
12 3 0 18 43 1 1 31 19 9 2 42 46 26 0 0
0 4 20 33 50 74 88 38 0 0 0 0 0 0 0 6
19 34 40 50 78 88 81 61 35 14 1 0 0 0 0 0
0 0 0 0 0 0 0 0 0 0 2 4 2 1 4 0
0 0 0 0 0 0 0 0 1 11 28 14 16 17 34 37
35 41 40 42 23 29 43 42 43 43 43 43 44 44 44 43
23 30 20 16 7 1 1 0 2 6 6 33 43 43 45 44
1 14 28 55 18 0 0 0 0 0 28 43 28 0 0 0
0 0 0 15 44 0 0 0 0 7 1 38 49 25 0 0
0 0 0 0 16 65 82 7 0 0 0 0 0 0 0 17
50 78 78 95 128 133 128 118 86 43 15 7 1 0 0 0
0 0 0 0 0 0 0 0 0 0 0 2 2 1 1 0
0 0 0 0 0 0 0 1 5 15 29 15 15 17 34 36
34 41 39 42 25 28 43 42 43 43 43 43 43 44 43 43
59 68 44 27 7 0 0 0 0 0 0 13 22 42 44 43
0 1 5 45 29 0 0 0 0 0 34 53 38 0 0 0
0 0 0 14 44 1 0 0 0 0 0 39 52 21 0 0
4 1 0 0 1 25 48 0 2 0 0 0 0 0 0 9
39 78 81 96 134 136 141 134 120 100 58 23 7 0 0 0
0 0 0 0 0 0 0 0 0 0 0 1 0 0 0 0
0 0 0 0 0 0 0 0 1 32 30 16 15 17 33 36
34 40 39 42 28 24 43 41 42 43 43 43 43 44 43 42
24 20 19 2 0 0 0 0 0 0 0 23 8 15 30 43
5 0 0 34 45 5 4 6 6 6 38 56 47 2 0 0
0 0 0 12 44 1 0 0 0 0 0 35 55 27 0 0
10 1 0 0 0 3 16 9 1 0 0 0 0 0 0 4
35 67 79 93 137 144 145 138 133 124 98 61 31 6 0 0
0 0 0 0 0 0 0 0 0 0 0 0 0 0 0 0
0 0 0 0 0 0 0 0 7 36 32 17 16 17 32 36
35 40 39 42 34 19 43 43 43 42 43 42 39 37 33 30
17 5 3 0 0 0 0 0 0 0 0 6 9 1 20 44
5 0 0 22 65 43 34 43 45 46 53 56 46 3 0 0
0 0 0 10 43 0 0 0 0 0 0 34 57 35 0 2
11 1 0 0 0 2 16 25 1 0 0 0 0 0 0 1
27 67 84 94 137 145 145 144 137 133 121 85 46 20 2 0
0 0 0 0 0 0 0 0 0 0 0 0 0 0 0 0
0 0 0 0 0 0 0 12 34 37 33 19 16 17 33 36
35 40 38 42 38 17 42 42 42 43 42 26 10 10 12 10
6 2 5 0 0 0 0 0 0 0 0 6 9 3 17 44
9 9 9 23 70 45 48 50 49 52 60 45 8 0 0 0
0 0 0 10 46 8 7 8 12 17 21 43 57 39 0 2
10 0 0 0 0 18 40 26 2 0 0 0 0 0 0 1
19 77 87 98 141 147 148 145 139 131 124 105 66 33 9 3
0 0 0 0 1 4 0 0 0 4 15 4 0 0 0 0
0 0 0 0 0 0 12 36 39 38 35 22 17 18 33 35
35 40 39 42 40 17 37 34 28 23 17 8 5 4 5 4
6 4 11 8 9 0 0 0 0 0 0 6 9 4 16 43
60 64 70 71 76 38 27 34 39 46 59 52 24 19 19 17
15 14 15 23 50 46 46 49 51 55 57 54 44 29 12 0
5 0 0 0 0 75 108 22 8 0 0 0 0 0 0 0
14 79 91 105 145 148 147 145 132 128 132 116 80 46 16 6
1 0 0 9 19 17 1 0 1 24 49 10 2 0 0 0
0 0 0 0 0 0 23 39 38 37 35 23 20 17 33 35
36 35 29 23 16 7 6 5 7 9 10 12 13 13 14 14
14 11 5 5 21 0 0 0 0 0 0 5 10 5 14 43
73 74 80 81 80 37 0 0 4 10 44 61 56 57 56 54
52 52 54 56 56 52 53 54 55 55 55 53 50 49 46 7
3 0 0 0 12 114 127 42 19 2 0 0 0 0 0 0
12 82 91 115 147 148 146 144 137 130 128 118 88 54 20 10
2 4 1 25 45 30 10 18 34 39 57 33 13 0 0 0
0 0 0 0 0 2 33 40 38 38 36 25 21 17 32 35
34 15 7 9 11 12 13 14 15 16 15 15 15 15 15 14
14 4 2 7 23 0 0 0 0 0 0 4 7 13 16 39
68 68 74 73 72 48 0 0 4 9 44 66 65 64 64 64
60 63 64 59 45 37 47 50 51 50 49 50 50 50 49 11
1 0 0 0 49 127 130 72 18 18 0 0 0 0 0 0
9 84 97 129 151 151 150 149 138 135 130 122 99 64 33 20
9 20 9 20 59 51 31 33 85 57 74 48 12 1 1 0
0 6 0 0 0 4 38 40 38 38 37 27 22 16 32 36
33 18 14 14 15 14 14 14 12 10 9 7 5 3 2 11
16 14 2 14 12 0 0 0 1 10 5 5 14 19 21 38
37 33 18 12 10 7 0 2 5 9 45 65 64 61 62 62
60 62 65 39 29 32 44 50 50 50 49 49 49 49 49 25
3 0 0 1 92 131 132 105 17 36 20 0 0 0 0 0
9 87 102 141 150 150 152 150 140 131 128 120 100 67 45 27
8 25 36 12 54 71 76 62 64 83 74 29 5 2 7 3
1 8 0 0 0 12 39 41 38 37 37 28 23 15 32 35
21 17 15 11 5 3 1 0 0 0 0 0 0 0 0 13
16 14 11 10 4 0 0 0 0 0 0 6 14 13 15 38
24 30 8 0 0 0 0 0 1 9 46 56 34 36 35 32
31 35 38 28 28 30 42 49 48 43 40 39 38 37 36 35
9 0 0 21 123 134 133 126 44 27 59 11 0 0 0 0
20 89 113 148 148 150 149 145 136 129 126 122 107 71 56 27
15 26 41 27 34 73 79 79 80 79 65 12 1 0 13 5
0 2 0 2 0 19 37 38 35 36 36 28 23 14 30 35
28 16 16 6 0 0 0 0 0 0 0 0 0 0 1 16
17 14 12 18 16 18 18 20 20 16 21 25 26 26 24 26
16 30 9 0 0 0 0 0 0 6 47 46 0 4 2 0
0 10 10 23 28 31 40 49 45 18 3 2 2 2 1 5
7 2 0 72 132 134 132 129 92 20 43 40 2 0 0 1
48 93 138 149 147 147 146 140 136 128 123 116 104 77 60 32
23 52 55 63 40 48 61 104 87 55 17 2 0 0 5 1
0 0 0 0 0 21 38 38 35 35 36 28 23 13 29 34
25 15 15 2 0 0 0 0 0 0 0 0 0 0 4 17
16 14 13 49 20 26 28 34 30 23 31 26 25 25 15 15
16 31 11 0 0 0 0 0 0 2 47 49 1 5 2 7
1 9 18 25 28 30 38 49 45 24 1 0 0 1 2 3
1 1 9 113 133 131 130 131 122 65 18 29 14 1 1 27
81 131 150 148 145 146 146 137 130 122 118 116 107 78 80 48
51 93 93 91 87 78 109 97 51 15 2 5 0 0 0 0
0 0 0 0 0 21 39 38 35 35 35 28 24 12 25 33
23 14 13 0 0 0 0 0 0 0 0 0 0 0 8 17
15 15 15 33 21 25 30 43 69 52 76 77 77 28 17 38
15 30 12 0 0 0 0 0 0 2 45 48 2 5 1 5
14 22 23 25 27 30 37 48 46 30 2 1 2 3 4 4
3 2 46 129 129 123 122 117 119 103 86 53 31 32 61 101
132 146 147 146 145 143 138 130 123 119 119 117 114 83 82 51
73 97 99 96 110 113 119 106 48 22 21 2 0 0 0 0
0 0 0 0 0 29 38 37 35 35 34 27 24 12 22 30
19 15 10 0 0 0 0 0 0 0 0 0 0 0 11 17
15 15 13 29 21 26 33 52 103 70 100 98 94 30 15 82
14 29 19 7 0 0 0 0 0 0 41 48 3 3 7 19
23 23 22 23 26 29 36 48 46 33 4 1 2 3 4 4
5 6 85 129 133 125 119 110 104 100 99 109 106 114 124 138
144 146 148 145 143 141 136 130 125 121 119 119 113 100 85 65
91 104 101 98 117 111 103 75 41 35 10 0 0 0 0 0
0 0 0 0 1 34 38 38 36 34 33 30 24 16 22 28
17 14 7 0 0 0 0 0 0 0 0 0 0 0 14 16
15 16 7 28 29 33 37 36 56 36 44 40 36 28 26 41
14 30 24 18 2 0 0 0 0 0 41 48 5 0 7 20
21 22 21 23 27 29 34 46 47 36 8 2 3 3 4 5
6 17 108 134 139 131 123 123 118 105 102 112 114 121 132 142
146 147 146 143 140 139 132 127 122 119 121 122 114 104 102 95
93 102 100 94 115 116 108 65 52 31 3 0 0 0 0 0
0 0 0 0 3 27 24 47 50 52 52 52 50 48 48 33
15 15 4 0 0 0 0 0 0 0 0 0 0 1 16 15
16 18 2 9 34 36 37 25 25 20 22 18 22 21 23 23
12 29 26 12 0 0 0 0 0 0 40 44 5 0 3 20
21 22 21 24 26 28 33 46 47 38 11 2 3 2 3 4
5 21 109 135 137 138 134 141 136 113 100 103 114 120 131 142
144 147 145 141 139 136 131 125 121 119 121 119 113 113 104 92
95 98 97 84 90 112 76 52 49 18 0 0 0 0 0 0
0 0 0 0 6 23 13 51 58 62 60 59 55 54 51 24
14 14 1 0 0 0 0 0 0 0 0 0 0 4 16 15
16 14 0 11 28 33 37 26 25 16 21 17 17 18 24 23
10 26 25 10 7 4 2 1 1 2 43 43 8 0 2 20
22 23 21 22 25 28 32 45 46 39 13 2 3 3 3 4
5 11 88 113 113 102 115 129 126 111 95 96 113 118 129 140
143 145 142 137 139 136 132 126 124 123 124 120 114 114 109 94
96 98 92 83 37 38 36 50 34 5 0 0 0 0 0 0
0 0 0 0 16 22 15 45 61 63 60 59 57 56 49 20
16 13 0 0 0 0 0 0 0 0 0 0 0 9 17 15
16 9 0 1 2 17 37 26 24 12 16 16 19 19 25 25
9 23 36 47 49 48 45 44 44 44 55 49 9 0 4 21
22 22 22 22 26 27 31 44 46 40 16 2 3 3 2 3
5 5 37 88 94 55 53 95 101 102 89 107 116 116 124 137
142 142 141 140 140 137 132 125 126 125 123 123 121 111 104 90
94 95 86 81 60 53 58 42 27 10 3 0 0 0 0 0
0 0 0 4 25 22 17 40 64 64 61 60 59 56 43 18
15 8 0 0 0 0 0 0 0 0 0 0 0 12 17 14
15 4 0 0 1 21 34 27 23 12 19 17 19 20 25 24
7 22 36 51 56 52 48 48 49 44 37 44 13 0 5 21
21 23 22 22 25 27 30 43 46 40 18 2 3 4 3 3
5 4 6 34 69 78 101 108 96 88 90 123 119 115 125 137
142 143 142 143 139 136 131 127 128 125 123 120 114 110 103 92
94 92 82 77 71 74 60 27 24 18 5 0 0 0 0 0
0 0 1 18 27 23 20 33 63 63 59 58 58 57 37 16
15 5 0 0 0 0 0 0 0 0 0 0 0 15 16 15
16 3 0 10 9 29 35 28 22 11 18 16 16 21 24 24
9 25 35 51 53 40 23 11 6 2 0 30 17 0 4 19
20 21 21 21 25 27 30 42 46 41 21 2 3 3 3 3
4 4 5 11 79 76 111 127 115 111 125 128 119 117 124 132
140 141 142 142 138 134 130 128 127 125 124 117 112 106 103 97
93 88 77 77 75 76 58 22 13 6 1 0 0 0 0 0
0 0 9 23 27 23 24 26 61 63 61 59 60 56 30 15
15 1 0 0 0 0 0 0 0 0 0 0 3 16 15 15
14 0 4 17 8 35 32 28 20 10 13 17 16 23 25 24
23 30 17 18 21 20 6 1 0 0 0 27 31 12 13 19
20 21 21 20 25 27 29 41 45 40 22 1 3 3 3 4
4 5 5 6 64 89 106 124 121 120 124 125 116 116 129 136
138 139 139 140 139 137 130 127 129 124 123 118 111 108 100 94
89 85 78 72 74 73 62 40 16 2 0 0 0 0 0 0
0 0 7 15 19 21 27 20 62 65 65 60 60 55 24 15
14 0 0 0 0 0 0 0 0 0 0 0 6 18 15 17
11 0 8 16 7 38 31 24 9 2 7 16 15 23 23 23
29 32 18 0 4 5 2 1 0 0 1 33 56 47 34 19
19 20 21 20 24 27 29 40 45 41 24 1 2 2 2 3
3 4 4 5 41 87 100 121 123 123 124 120 120 120 136 143
141 137 137 138 136 136 132 129 128 123 119 116 109 102 95 88
87 83 77 73 74 78 84 71 41 17 7 3 0 0 0 0
0 1 17 17 18 25 29 15 60 65 65 61 60 50 19 15
11 0 0 0 0 0 0 0 0 0 0 0 10 17 16 17
9 0 4 5 12 39 29 16 6 1 8 17 17 24 25 24
37 37 29 4 5 1 0 0 0 0 2 38 43 12 9 16
19 20 20 19 24 26 28 38 45 42 26 1 2 3 3 3
3 4 4 4 22 87 99 119 123 124 124 119 115 124 131 141
140 136 135 136 135 131 129 132 124 123 119 113 108 101 93 88
86 82 78 73 75 85 90 91 81 57 36 18 0 0 0 0
0 5 19 21 24 30 31 12 54 66 66 62 59 43 17 15
7 0 0 0 0 0 0 0 0 0 0 0 13 17 16 16
5 1 38 32 24 39 30 16 6 0 8 16 16 24 25 24
39 32 21 9 8 0 1 0 0 0 1 35 40 2 0 12
18 19 19 18 23 25 28 37 45 42 26 1 2 2 2 2
2 2 3 3 10 86 99 119 120 125 130 118 116 121 128 135
137 134 136 135 134 133 131 130 124 123 118 112 104 100 95 91
84 79 75 72 78 86 92 95 85 67 39 10 0 0 0 0
0 10 22 22 27 31 32 10 48 66 66 62 59 35 15 16
3 0 0 0 0 0 0 0 0 0 0 1 16 16 16 17
1 11 79 41 23 38 29 15 4 7 14 16 17 25 24 24
35 31 16 19 13 0 0 0 0 0 1 31 40 3 0 10
18 19 20 18 23 24 26 35 44 41 27 2 1 1 1 3
2 2 3 3 6 71 98 95 106 119 127 118 113 118 126 134
135 135 134 135 135 132 130 128 125 121 115 108 103 97 93 89
83 79 73 72 81 88 94 95 86 70 41 8 0 0 0 0
2 20 25 26 30 35 34 10 40 66 66 63 57 27 16 14
0 0 0 0 0 0 0 0 0 0 0 4 17 16 17 15
0 13 56 22 30 36 30 20 15 8 18 16 18 26 26 23
20 14 11 10 10 7 8 10 15 23 29 35 41 5 0 9
18 18 19 17 21 23 26 34 44 41 28 2 1 1 1 1
2 2 2 2 4 49 94 88 89 78 74 90 97 112 121 129
134 135 133 133 133 130 128 124 123 120 116 110 105 97 94 86
81 78 73 77 87 88 94 95 83 72 58 35 5 0 0 1
18 23 27 27 31 35 33 10 30 66 65 64 53 22 16 12
0 0 0 0 0 0 0 0 0 0 0 7 18 16 17 12
0 2 17 16 36 34 31 25 15 11 17 17 21 27 27 24
39 21 19 16 19 21 23 26 30 39 46 48 42 17 6 11
17 18 19 16 20 22 25 33 43 41 28 2 0 0 0 2
2 2 1 2 3 28 75 74 60 60 64 62 64 97 112 125
131 135 133 133 131 126 124 123 120 116 113 108 101 96 90 80
81 75 74 82 90 90 96 94 83 73 63 55 22 0 5 21
24 24 27 28 32 35 33 10 21 62 63 64 46 18 17 12
5 5 6 6 6 7 6 7 7 7 7 13 19 17 18 7
0 1 7 13 43 33 32 27 14 12 17 17 23 26 26 24
36 32 32 30 33 33 35 36 38 43 46 44 41 38 35 30
19 17 17 15 19 21 24 31 41 41 28 2 0 0 0 1
1 1 1 1 1 14 39 49 54 91 103 98 91 95 106 117
125 128 129 126 126 125 122 119 117 114 111 106 98 93 88 80
76 73 77 86 89 92 98 94 82 73 66 61 43 24 21 28
24 25 27 28 31 34 32 11 14 58 62 63 39 16 16 16
16 15 16 16 16 16 16 15 15 17 16 16 18 17 19 4
0 2 7 20 43 33 31 27 14 12 16 17 23 26 26 24
23 22 21 19 18 16 14 13 12 12 12 11 16 12 6 8
13 14 15 13 18 21 24 30 41 41 28 2 0 0 0 0
0 0 0 0 1 4 53 86 95 111 109 105 113 106 103 110
118 120 122 122 122 121 120 117 114 110 108 101 97 91 83 79
75 76 83 89 91 93 98 95 84 73 70 64 55 36 24 28
23 25 27 28 31 33 31 12 10 53 61 62 31 16 16 16
16 16 16 17 17 17 16 16 17 16 17 17 17 18 20 2
0 8 8 26 43 33 32 26 14 12 16 17 25 26 25 24
1 1 0 2 3 1 1 2 2 4 7 10 23 15 0 3
13 14 14 12 17 20 23 30 41 40 28 2 0 0 0 0
0 0 0 0 0 0 42 93 100 101 106 116 120 115 109 107
112 116 117 117 118 118 115 113 112 109 105 98 91 85 81 79
78 79 85 90 95 99 100 93 81 72 70 66 59 47 24 27
24 26 27 28 31 32 32 20 45 88 72 59 32 11 17 18
18 17 18 25 28 18 17 17 17 17 19 17 12 13 16 0
0 26 30 37 43 36 33 24 14 10 12 18 26 26 26 25
0 0 0 8 10 0 0 0 0 0 6 8 21 16 0 1
11 13 14 13 17 19 22 29 40 40 29 3 0 0 0 0
0 0 0 0 0 0 19 78 89 101 113 119 116 114 108 102
103 109 112 113 114 113 112 110 108 104 100 94 86 80 78 79
79 82 89 94 101 104 101 93 80 73 72 69 61 53 38 28
26 26 27 28 28 32 51 99 117 125 112 51 26 11 22 28
31 37 53 99 104 71 66 61 38 47 45 44 40 18 1 0
23 43 20 43 44 40 53 46 34 9 22 89 65 44 54 57
2 0 2 13 11 0 0 3 3 1 7 16 22 15 0 0
4 12 14 15 16 19 21 27 39 38 29 3 0 0 0 0
1 2 3 4 6 8 14 58 72 92 102 104 106 108 106 101
102 107 110 110 109 109 108 105 102 97 93 87 79 79 80 82
84 88 95 97 103 105 102 91 78 72 70 72 64 57 40 13
42 30 26 28 30 41 111 119 115 111 74 23 23 31 77 113
120 137 148 151 151 149 137 110 39 15 13 14 17 33 33 5
102 146 32 46 47 42 96 100 82 8 25 82 86 74 82 83
7 7 8 6 4 9 13 14 16 17 15 11 14 8 0 0
6 6 13 14 16 19 21 27 39 39 34 19 18 20 23 26
27 29 31 32 34 35 35 39 48 62 79 95 101 101 101 101
100 107 110 110 110 108 107 103 98 92 85 80 77 79 83 85
88 92 97 101 103 103 100 89 77 68 72 73 64 62 48 4
31 58 40 47 49 55 81 75 69 64 53 46 43 49 79 118
119 130 139 142 150 149 137 110 33 12 14 12 11 24 25 45
124 142 26 49 42 31 74 78 51 1 2 53 63 46 54 49
16 15 8 9 16 17 18 18 19 21 21 12 8 18 0 1
10 3 13 14 15 18 20 26 39 40 40 38 36 36 39 40
39 37 37 37 36 36 36 37 41 53 69 83 91 96 98 100
104 107 112 111 110 108 106 101 95 86 79 78 77 82 85 88
93 94 101 105 105 102 96 88 75 69 73 74 66 67 59 13
1 23 39 62 68 68 52 52 54 53 51 49 61 64 72 106
122 138 150 151 151 147 135 107 30 8 10 11 10 33 0 15
76 58 22 48 30 9 8 8 0 0 3 0 6 20 32 27
14 7 11 16 17 17 18 18 19 22 26 14 10 15 8 9
6 1 6 8 11 17 19 25 39 40 40 39 35 33 38 38
38 38 37 36 37 40 35 27 30 46 67 82 98 106 104 105
109 110 112 110 109 104 100 95 89 80 75 78 81 85 87 91
95 99 104 104 103 103 98 87 75 69 72 72 69 72 64 29
0 1 45 59 30 29 25 26 27 27 28 30 58 51 46 73
109 68 112 138 136 122 99 46 11 11 8 8 16 41 10 14
52 34 39 50 25 3 0 0 0 0 0 0 0 8 27 14
5 11 16 15 18 17 17 17 26 39 39 11 4 1 0 2
0 2 4 9 11 17 18 24 37 40 40 39 36 35 36 36
36 34 33 40 65 64 15 1 1 14 62 81 95 113 112 113
112 112 111 109 103 99 94 87 80 75 77 80 83 86 92 95
98 103 105 105 107 105 99 89 74 70 72 73 74 75 65 48
5 0 12 61 58 15 15 22 26 22 20 10 40 53 52 51
50 10 14 20 14 12 15 5 12 12 17 47 72 87 94 103
99 103 100 82 34 33 1 0 0 0 0 0 0 0 21 15
9 11 11 10 11 10 10 9 30 30 21 5 0 0 0 0
0 0 0 1 8 7 10 13 22 23 21 19 18 16 15 14
17 18 28 72 78 27 0 0 0 0 41 78 94 102 109 112
113 112 110 105 100 92 82 75 73 73 77 79 81 87 93 100
103 105 105 106 108 105 100 87 75 70 72 76 79 79 68 58
30 0 1 49 94 41 14 21 24 21 18 0 2 29 86 105
108 93 28 10 14 19 19 12 17 9 60 109 106 118 114 103
97 108 108 91 31 36 0 0 0 0 0 0 0 0 12 24
9 10 11 12 14 11 5 11 54 23 18 12 0 0 0 0
0 0 0 0 4 0 0 0 0 0 0 0 1 4 6 5
12 22 55 84 43 3 0 0 0 0 17 68 81 91 96 104
107 109 105 100 90 80 72 68 69 71 72 76 83 90 99 106
108 106 108 107 108 107 97 86 77 68 68 77 81 80 71 64
53 16 0 18 80 69 26 21 26 22 19 0 0 0 2 6
13 37 70 76 49 31 35 39 64 84 115 120 107 115 112 106
100 106 106 85 3 1 0 0 0 0 0 4 4 4 7 17
35 38 41 45 48 37 2 50 49 4 9 17 8 0 0 0
0 0 0 0 2 0 2 0 0 0 0 0 7 14 16 10
13 33 73 60 18 1 0 0 0 0 1 54 74 84 90 96
100 102 96 86 73 63 62 63 63 64 68 75 86 96 101 107
108 106 108 110 109 105 95 88 75 69 71 77 83 82 74 71
63 43 4 0 43 82 57 23 25 22 20 10 15 18 19 18
17 14 12 32 66 68 68 87 79 49 48 63 72 79 77 77
78 78 79 66 30 28 30 24 20 16 4 12 10 7 4 1
60 60 60 61 62 57 15 62 12 0 2 15 20 8 0 0
0 0 0 0 2 3 7 5 5 3 2 2 5 13 16 14
7 47 72 27 0 4 15 5 0 0 0 17 66 77 82 85
87 87 80 68 55 54 55 55 56 58 65 79 92 100 104 108
107 107 108 109 108 103 100 85 74 73 75 79 84 82 81 76
69 57 25 0 24 81 78 48 28 24 28 36 46 59 76 84
94 87 68 59 68 96 104 102 123 141 148 151 144 125 90 78
63 48 43 36 28 23 24 18 15 10 3 4 5 4 2 0
61 60 59 59 55 48 23 36 0 1 0 8 28 5 0 0
0 0 5 7 5 5 10 10 9 7 5 5 9 20 25 19
6 60 70 15 20 37 47 19 0 1 4 5 45 57 60 61
59 58 51 44 44 45 45 46 47 49 64 80 93 100 105 105
105 105 109 109 106 105 100 86 75 75 76 80 83 85 85 81
75 67 50 2 29 90 104 56 46 43 59 77 104 133 150 152
152 138 104 85 77 75 81 96 139 151 151 132 151 139 95 71
50 37 33 27 22 18 20 17 16 10 4 2 4 2 1 0
28 24 18 12 7 2 5 23 0 4 0 6 3 0 0 0
1 7 8 15 15 14 14 13 14 16 21 25 27 27 24 12
11 64 45 18 40 46 50 38 3 23 45 68 55 53 67 45
19 20 47 43 20 15 15 20 29 35 58 78 95 100 104 103
103 105 105 108 111 105 98 86 76 77 79 82 81 86 88 85
81 74 67 15 18 44 73 54 43 19 39 55 86 109 139 153
152 119 81 79 69 69 74 97 142 152 151 144 151 143 105 77
51 42 32 27 22 19 20 18 17 11 6 1 5 3 2 1
0 0 0 0 0 0 4 17 0 6 4 0 0 0 1 1
2 4 7 12 14 13 12 14 16 18 27 33 32 21 16 3
19 71 34 3 37 53 51 43 35 45 60 49 61 63 86 49
1 0 57 69 35 13 13 12 15 24 51 76 89 93 100 102
102 103 105 112 112 105 97 85 77 79 81 82 85 88 92 94
91 88 83 34 35 46 95 55 31 17 44 48 65 84 119 152
152 119 83 74 69 68 72 96 140 152 151 121 151 145 106 76
53 42 34 28 23 20 20 18 17 12 7 1 5 4 2 0
6 0 0 0 0 2 9 20 13 14 2 0 0 0 0 0
0 0 8 8 9 7 7 10 10 15 26 33 26 4 1 0
27 73 29 7 38 32 47 46 56 24 34 71 53 78 92 51
3 7 47 79 81 67 62 59 51 46 55 71 79 88 91 92
95 105 111 113 110 105 96 85 78 82 83 83 90 92 97 99
102 99 99 47 24 42 83 66 43 27 48 66 53 74 87 102
105 107 86 73 65 60 73 97 134 152 151 115 151 145 103 74
53 41 33 26 22 19 18 19 18 12 7 1 4 4 2 0
5 13 5 2 5 5 10 16 6 6 0 0 0 0 0 0
0 2 7 6 7 6 8 8 9 14 25 32 22 1 0 0
30 76 34 8 28 49 41 14 34 50 56 53 39 61 98 59
28 46 33 86 91 98 102 105 104 100 89 80 76 79 89 96
102 108 113 113 111 106 97 84 79 82 85 90 95 97 101 103
106 109 107 57 55 54 63 63 50 46 38 45 71 69 52 76
71 92 108 80 62 62 76 98 134 152 151 114 150 147 107 76
57 42 33 26 24 19 19 21 18 13 8 1 5 4 1 0
4 10 31 7 0 0 13 17 2 2 0 0 0 0 1 2
0 0 3 5 5 7 9 10 10 14 25 33 21 11 6 0
34 79 51 23 68 81 86 49 73 99 89 53 59 69 110 82
41 59 34 81 96 97 105 111 113 112 107 100 93 92 96 100
105 108 110 113 113 109 96 82 80 85 87 93 101 104 104 108
111 115 103 69 65 40 65 96 49 61 36 57 73 91 69 84
75 100 95 82 104 78 78 93 133 151 151 112 149 149 112 79
58 43 31 25 23 16 18 21 18 13 8 2 4 3 1 0
1 0 10 14 1 2 16 9 0 0 0 0 0 3 2 0
0 0 3 12 5 8 12 13 12 17 29 36 26 23 17 0
27 71 66 72 99 96 62 76 93 101 59 45 46 46 94 65
52 49 45 63 96 103 103 108 112 116 115 112 105 99 99 102
104 106 108 112 113 107 95 82 82 87 93 98 104 108 104 112
114 119 88 81 87 37 64 86 44 30 40 26 71 75 47 41
74 82 67 86 93 82 60 61 108 150 151 109 146 145 105 75
59 43 27 22 20 16 19 22 19 14 8 2 4 3 0 0
0 0 0 0 4 3 0 0 0 0 0 0 0 0 5 0
1 0 12 19 6 8 12 12 20 41 43 39 33 26 19 12
49 96 85 91 92 88 80 57 65 106 58 71 53 59 97 75
53 44 84 46 95 103 108 110 113 114 115 116 113 107 104 103
105 106 109 111 111 109 96 83 84 91 96 103 110 113 115 115
119 118 71 60 46 56 65 75 61 37 57 36 56 69 102 77
82 75 86 50 64 60 44 46 74 98 112 101 146 141 107 79
58 42 29 22 18 15 18 23 20 14 9 2 4 2 0 0
3 0 0 2 10 6 2 4 5 3 1 0 0 0 0 0
0 0 14 23 7 9 12 8 18 41 42 38 35 37 46 43
48 90 88 102 121 122 99 75 73 60 53 90 63 57 104 82
44 45 90 55 86 104 108 113 117 118 120 121 118 114 107 102
103 106 108 113 116 111 100 87 85 95 104 106 113 120 121 121
121 108 64 78 45 58 55 74 65 27 41 60 72 56 93 94
125 72 76 49 73 91 74 47 66 75 73 87 116 124 107 78
54 37 27 22 17 10 14 22 20 14 10 5 5 2 0 0
6 3 3 4 9 11 12 13 14 14 3 4 0 0 0 0
0 0 10 25 14 13 14 10 10 21 45 61 53 84 82 73
73 102 69 74 86 96 57 53 76 39 67 86 68 64 73 55
55 48 77 83 69 102 109 111 115 119 121 123 123 124 124 117
113 112 113 117 122 119 104 88 87 100 111 111 115 125 124 127
124 94 76 79 44 87 77 65 43 33 25 59 60 39 51 75
85 86 103 67 79 80 68 50 92 89 80 91 114 102 91 79
56 35 32 27 17 10 15 23 20 14 10 5 5 1 0 0
13 13 10 9 11 15 15 18 21 22 6 5 3 0 0 0
0 0 14 29 37 28 17 7 19 66 106 88 32 47 59 42
49 74 89 96 94 101 82 42 56 53 54 50 42 50 100 101
68 51 54 61 56 100 107 111 114 119 121 123 125 123 124 122
120 119 121 123 128 122 104 88 90 104 114 115 120 125 132 133
125 79 70 76 63 85 90 97 73 49 28 43 44 30 82 79
90 98 108 28 32 41 42 37 87 79 88 104 101 73 108 86
60 40 34 27 17 11 16 24 20 14 11 6 5 1 0 0
6 19 16 9 8 8 6 9 9 7 1 4 9 1 1 0
0 0 0 4 23 4 1 17 87 96 62 72 59 86 93 60
67 102 82 101 119 125 83 79 62 75 85 72 67 80 90 91
48 42 38 76 61 82 110 112 115 118 123 126 130 130 127 126
125 123 121 121 127 123 102 89 94 108 119 121 123 128 136 138
123 77 94 95 65 93 74 77 86 53 27 25 60 31 73 75
54 51 48 28 52 57 56 51 58 48 83 83 75 47 64 59
64 55 33 26 20 14 19 24 20 14 12 5 6 2 0 0
0 2 3 0 0 0 0 0 0 0 0 14 14 0 11 0
0 0 0 0 10 0 22 77 110 108 93 111 61 72 92 73
66 115 77 86 107 114 69 59 50 69 61 46 93 81 82 60
58 47 49 77 84 61 108 115 118 119 123 131 136 136 133 133
131 126 124 123 128 122 101 91 98 113 125 129 128 134 140 138
110 81 104 105 76 87 48 65 64 44 25 15 28 17 63 89
80 81 83 52 73 63 53 46 83 89 112 112 107 99 73 54
37 68 39 22 19 15 20 25 21 15 13 6 6 2 1 0
0 0 0 0 0 0 0 0 0 0 0 13 10 7 19 0
0 0 0 0 18 23 96 112 117 104 93 103 72 55 100 68
45 91 91 86 112 113 77 71 92 101 77 89 104 74 77 93
86 74 50 49 60 55 84 119 121 123 125 129 136 140 138 136
135 134 128 124 131 121 101 94 102 116 128 136 132 135 138 135
99 86 105 96 57 85 80 89 93 40 27 25 28 27 61 55
95 88 92 47 56 74 49 67 103 80 98 103 87 91 112 86
71 55 56 27 20 15 19 25 22 15 12 4 5 2 1 0
0 0 0 0 0 0 0 0 0 0 0 3 4 4 1 0
0 0 0 0 26 94 116 97 71 68 67 83 33 38 43 41
43 68 54 52 92 60 76 78 97 94 89 115 111 107 107 112
110 79 43 50 64 83 70 107 126 127 130 133 135 141 142 138
140 138 132 124 131 124 103 99 106 119 132 133 134 134 133 131
87 83 99 90 72 106 84 116 108 63 46 30 21 25 42 49
85 96 105 52 75 79 53 32 46 45 69 86 110 96 121 95
85 49 42 39 20 16 18 24 22 15 13 3 6 3 1 0
0 0 0 0 0 0 0 0 0 0 0 0 0 0 0 0
0 0 0 8 85 117 112 82 78 73 71 83 77 56 72 84
69 82 78 65 102 78 80 79 80 65 92 96 104 117 128 107
76 72 60 63 83 99 69 84 117 132 133 136 135 142 141 140
142 142 137 125 134 122 106 105 111 118 125 127 131 133 131 115
74 96 115 62 76 107 62 57 88 78 26 49 55 28 47 95
48 61 57 19 28 42 31 44 77 50 63 55 65 63 64 65
68 39 65 56 27 14 18 25 23 16 15 3 6 3 1 0
0 0 0 0 0 0 0 0 0 0 0 0 0 0 0 0
0 0 0 65 91 73 82 110 94 98 106 111 92 61 85 93
69 83 75 106 114 68 65 77 63 49 100 81 82 102 87 12
3 45 48 39 85 74 83 72 99 125 133 137 138 140 141 139
140 142 137 124 134 122 112 113 118 118 122 126 129 133 126 108
68 99 100 44 61 85 30 0 25 72 56 55 71 50 36 77
67 81 105 51 53 67 58 45 92 73 101 68 78 81 108 63
32 56 60 62 50 14 17 24 23 16 15 3 6 2 1 0
0 0 0 0 0 0 0 0 0 0 0 0 0 0 0 0
0 0 22 98 62 105 114 94 86 53 76 74 58 34 46 53
37 55 69 113 98 55 75 99 59 26 15 9 10 24 39 17
10 55 65 53 78 73 67 77 94 94 130 134 137 138 138 136
137 137 136 126 132 129 119 123 126 123 125 131 132 126 113 91
82 92 85 43 37 53 10 0 0 29 64 45 73 52 33 57
74 98 115 51 63 71 74 46 73 67 111 100 84 90 107 54
10 39 71 57 54 26 16 24 24 17 14 3 7 3 1 0
0 0 0 0 0 0 0 0 0 0 0 0 0 0 0 0
0 3 53 79 104 109 95 82 128 86 72 103 75 68 88 75
79 81 49 72 84 53 71 39 44 31 49 66 40 71 80 68
37 63 56 56 88 89 81 80 116 84 112 134 136 138 139 135
134 132 131 128 133 130 125 131 133 131 133 137 133 104 90 60
51 57 74 56 71 58 20 7 0 0 25 46 44 41 19 107
94 70 74 25 63 71 44 44 99 67 74 88 72 71 101 51
49 43 33 41 48 47 18 23 23 16 16 3 6 3 1 0
0 0 0 0 0 0 0 0 0 0 0 0 0 0 1 0
0 35 47 81 103 81 95 140 137 97 76 82 97 62 87 101
74 85 89 105 117 67 69 72 91 60 97 103 51 49 81 66
55 43 49 57 63 78 66 60 100 75 96 107 129 142 138 133
131 132 129 127 135 133 129 134 139 137 138 138 113 66 76 72
51 78 76 49 50 34 52 49 17 0 0 4 41 53 32 128
131 99 113 40 59 65 60 75 100 91 107 97 70 86 107 31
67 80 59 30 59 42 27 22 23 15 15 3 7 3 1 0
0 0 0 0 0 0 0 0 0 0 0 0 0 0 4 8
3 75 40 74 102 91 99 137 125 122 100 79 111 63 81 91
59 83 91 108 135 98 73 103 121 96 108 108 55 62 73 60
38 56 45 65 85 81 61 45 76 69 53 71 87 125 137 135
130 134 132 131 136 135 133 136 139 140 139 120 82 43 66 58
37 46 61 64 46 32 57 60 44 35 45 14 24 73 48 107
132 101 104 49 85 103 72 88 89 74 84 104 88 98 131 30
51 84 60 16 69 60 49 21 22 16 15 3 7 3 1 0
0 0 0 0 0 0 0 0 0 0 0 0 4 4 0 2
29 58 58 50 77 121 108 133 118 113 115 107 120 66 78 77
64 71 101 119 130 107 64 103 101 112 113 114 52 54 57 69
52 71 74 75 105 120 107 85 94 60 9 48 53 94 104 118
131 132 133 135 135 135 137 137 140 138 117 88 66 36 45 43
37 48 46 61 34 32 49 54 45 54 72 53 71 85 72 102
124 104 103 45 95 102 73 100 107 98 88 84 97 106 122 52
41 37 48 62 54 73 70 29 23 16 14 3 7 3 2 0
0 0 0 0 0 0 0 5 8 0 0 0 1 22 3 1
64 74 68 33 64 129 123 107 110 104 97 91 100 53 77 59
39 69 97 110 135 92 84 110 110 97 96 109 70 72 93 96
73 71 110 97 100 120 105 105 109 125 54 47 59 69 101 100
131 134 133 136 136 135 137 137 140 116 83 79 109 86 86 96
74 64 56 66 29 35 53 53 43 46 84 74 127 126 124 93
116 89 87 44 65 85 61 89 101 97 114 124 113 135 110 70
70 66 30 80 44 40 78 46 22 17 14 3 8 3 1 0
0 0 0 0 0 0 0 3 9 0 0 0 1 25 5 15
56 99 64 78 67 109 146 113 97 130 112 104 99 64 78 63
40 54 77 81 113 94 90 109 123 133 103 124 98 57 68 90
89 68 108 105 96 122 117 114 120 119 94 56 66 47 111 96
123 132 133 134 135 134 135 135 122 88 79 75 18 5 36 63
86 44 36 49 34 60 87 84 64 60 94 69 89 115 103 85
127 103 91 32 53 69 52 114 105 91 122 118 96 103 91 82
76 57 50 76 67 72 80 60 23 15 15 3 9 4 0 0
0 0 0 0 0 0 0 0 0 0 0 1 0 11 5 55
74 89 73 96 76 84 109 117 114 144 110 97 108 68 91 64
45 71 90 98 116 105 98 119 135 118 107 128 114 46 91 73
63 33 40 68 76 106 96 68 79 75 87 63 41 66 79 92
111 132 130 131 130 132 133 126 94 83 72 36 46 46 68 66
73 42 48 47 36 66 89 89 68 88 115 85 106 138 127 97
136 113 84 58 98 81 63 109 109 112 127 123 111 116 98 71
63 54 90 74 80 93 55 64 44 16 14 4 7 5 0 0
0 0 0 0 0 0 0 0 0 0 0 0 6 9 5 65
59 49 110 114 87 57 99 118 122 143 98 73 96 64 95 68
46 65 109 95 122 113 113 134 140 126 94 134 93 30 34 52
59 48 67 96 69 90 83 69 66 69 89 64 53 39 59 73
104 131 130 133 128 129 127 104 82 81 42 62 60 50 74 73
76 64 79 86 33 65 85 88 64 90 98 92 128 132 130 105
107 100 86 70 88 76 71 116 93 107 135 122 102 127 91 59
50 63 118 88 70 64 59 47 62 17 15 4 7 4 1 0
0 0 0 0 0 0 0 0 0 0 0 14 20 0 23 86
69 75 110 106 88 65 76 110 101 88 67 56 88 55 53 33
44 72 113 91 143 112 101 116 115 117 76 69 55 29 84 96
74 62 50 80 77 115 114 85 79 90 124 86 54 36 39 40
90 120 138 134 130 131 109 84 76 43 30 36 33 35 57 53
49 38 54 52 16 30 50 63 37 73 102 97 141 118 129 84
71 43 57 67 91 75 72 100 86 115 128 129 112 113 65 73
39 71 100 80 126 59 51 51 47 39 14 5 6 6 1 0
