P2
128 120
157
22 2 1 1 3 20 63 69 60 48 49 50 53 53 53 53
61 72 62 56 51 48 48 46 47 46 46 46 46 46 44 45
44 44 43 43 43 42 42 41 41 40 40 39 39 38 37 37
37 36 35 35 34 34 33 33 32 32 31 31 30 30 29 28
28 27 27 26 26 25 25 24 24 24 24 25 29 30 29 28
22 18 18 26 27 26 26 25 24 24 24 22 22 22 19 22
25 25 25 25 25 26 26 27 27 27 27 27 27 27 28 28
29 29 30 30 30 30 31 31 32 32 32 33 33 34 34 35
32 15 0 0 0 13 57 60 35 0 0 0 2 2 1 0
25 68 64 69 67 62 52 49 49 47 47 46 45 45 45 44
45 44 44 43 43 42 42 41 40 41 40 39 39 39 38 37
37 37 36 35 35 35 34 33 33 32 32 30 30 30 29 29
29 28 28 27 27 26 26 25 24 24 25 26 29 29 29 29
22 20 20 25 28 27 27 25 25 24 25 23 23 22 19 23
25 26 26 27 27 27 27 27 27 27 27 27 27 28 28 29
29 30 31 31 31 32 31 32 33 33 34 34 34 34 34 35
31 5 1 5 7 13 54 56 37 0 0 0 13 6 0 0
17 65 60 61 44 43 47 51 59 63 65 63 58 50 45 45
45 44 43 43 43 42 43 42 42 41 41 40 40 39 39 38
37 37 36 36 36 35 34 33 33 32 32 32 32 31 30 30
29 29 28 27 27 27 26 26 26 26 26 27 31 31 31 30
24 22 23 24 28 27 27 27 26 26 26 25 24 23 20 24
26 27 27 27 27 27 27 27 28 29 29 29 29 30 29 30
30 31 31 32 31 32 32 33 32 33 34 34 35 35 36 36
17 0 0 0 3 8 53 55 39 0 0 0 9 6 0 0
10 62 59 57 19 0 5 14 23 33 43 52 61 53 44 43
43 43 43 43 42 42 42 41 40 40 40 39 38 39 37 37
37 36 36 35 35 34 34 33 33 32 31 31 30 30 30 29
29 28 28 28 27 27 26 26 25 25 25 25 30 30 31 29
23 21 24 22 28 28 28 27 25 25 25 24 24 23 19 23
24 26 26 26 26 28 28 28 29 28 29 29 29 28 29 29
29 30 30 32 31 31 32 33 33 33 33 33 34 34 34 35
0 0 0 0 0 5 51 54 43 0 0 0 7 3 0 0
6 59 60 56 19 0 0 0 0 0 0 15 60 54 44 44
44 43 43 42 42 42 41 41 41 40 40 40 40 39 39 38
37 37 36 36 35 35 34 33 33 34 33 32 32 30 31 30
30 29 29 28 27 27 26 25 26 25 26 26 30 31 31 30
24 22 27 20 29 28 28 27 26 26 27 24 25 25 20 25
25 27 28 28 28 29 28 28 28 29 29 29 29 30 30 30
31 31 31 32 32 32 32 33 33 34 34 34 35 35 35 35
0 0 2 8 2 3 47 53 49 0 3 12 9 10 0 4
3 55 59 53 20 0 0 0 0 0 0 12 60 54 44 45
44 43 44 43 43 42 41 42 41 40 40 39 39 39 38 37
38 37 36 36 36 35 34 35 34 33 33 33 33 32 31 31
30 30 29 29 28 28 28 27 26 26 27 27 31 32 32 31
25 21 28 21 30 29 28 28 27 27 28 25 26 25 20 26
26 28 28 29 29 29 29 29 30 30 30 29 30 30 30 30
31 31 31 32 32 32 33 33 33 34 34 35 35 36 36 36
0 0 1 10 6 4 48 56 58 4 17 17 0 3 0 3
0 51 59 54 22 0 2 11 5 0 0 10 59 54 44 44
44 44 44 43 43 42 42 41 41 40 40 40 40 39 38 38
38 38 37 36 36 35 35 34 34 33 33 33 32 32 32 31
31 30 30 30 28 28 27 27 27 27 27 28 32 33 33 32
26 22 29 22 30 29 29 28 27 27 29 25 26 25 21 27
28 29 29 29 29 30 30 30 30 30 30 30 31 31 31 32
32 33 33 33 33 33 33 34 34 34 34 35 36 36 35 34
5 0 0 2 0 6 49 55 61 11 17 8 0 3 0 2
3 48 62 57 23 0 10 15 8 0 0 8 57 53 43 43
44 43 44 43 43 43 42 42 42 41 40 40 39 39 39 38
38 38 38 36 37 36 36 36 35 34 33 33 33 32 32 31
31 30 30 29 29 28 27 27 28 27 28 29 32 33 32 32
27 22 29 22 30 30 30 29 28 28 29 26 26 25 21 27
27 29 28 29 30 30 30 30 30 31 30 30 31 32 32 32
33 32 33 33 33 34 35 35 35 35 35 36 36 36 37 37
15 9 2 0 0 7 48 52 64 22 14 7 1 0 0 3
4 42 60 56 24 0 4 8 7 2 0 8 58 54 44 44
44 43 43 43 43 42 42 41 41 41 40 40 40 39 39 39
38 38 38 37 36 37 36 35 35 35 34 34 34 33 33 32
32 32 31 30 29 29 28 28 27 28 27 28 32 33 33 33
28 24 30 24 30 30 31 30 29 28 29 26 26 26 22 27
27 31 30 31 31 31 31 31 31 31 30 31 32 31 33 32
33 33 34 34 33 34 33 33 34 35 36 36 37 37 37 38
57 51 47 43 31 30 47 45 58 24 14 2 4 1 0 0
2 36 58 55 26 0 1 4 14 8 0 8 57 53 44 44
44 43 43 43 43 43 42 42 41 41 41 39 40 40 39 38
38 37 37 37 37 35 36 35 34 35 35 34 34 33 33 32
31 31 31 29 29 29 27 29 28 27 28 29 33 34 34 33
28 23 30 24 29 31 30 30 29 28 27 26 27 27 23 27
27 29 29 30 31 31 31 31 32 32 31 32 32 32 33 33
33 33 33 33 33 34 35 35 34 35 36 37 37 37 38 38
42 47 55 59 59 61 51 39 50 30 20 17 21 22 20 23
22 38 52 58 30 0 1 7 10 8 0 7 56 52 43 44
44 43 43 43 43 43 42 42 42 41 41 40 40 40 39 39
39 38 38 38 37 36 36 36 35 34 34 34 33 32 32 31
32 32 31 30 30 28 28 29 28 27 27 27 32 34 34 33
29 23 30 29 28 32 31 30 30 29 27 27 28 27 23 25
27 30 31 31 32 32 32 32 32 32 32 32 32 33 33 33
33 34 34 34 35 35 36 36 36 35 36 37 37 37 37 37
23 27 31 33 40 45 45 38 43 41 41 41 44 41 39 41
39 38 40 57 31 0 0 6 6 9 9 11 55 52 43 44
43 43 43 42 43 42 42 42 41 40 41 41 40 40 39 39
39 38 38 38 38 37 35 35 34 32 34 33 31 31 30 29
30 30 29 30 29 28 26 25 27 26 26 26 31 34 34 33
29 23 30 30 25 31 31 31 30 29 29 28 28 28 23 27
27 31 31 31 31 31 31 31 31 31 31 32 32 34 33 34
34 34 34 35 35 35 35 36 36 36 37 37 38 37 38 38
22 23 23 22 22 22 23 25 27 28 29 28 29 31 33 35
36 37 36 47 45 34 29 22 16 13 14 25 55 52 43 44
44 43 43 43 43 42 42 41 41 41 40 40 40 39 39 39
39 38 39 38 37 37 35 34 32 31 33 32 33 31 30 28
29 30 31 29 27 25 25 24 23 25 26 26 30 32 33 34
30 22 28 32 24 31 31 31 30 28 27 27 27 26 23 27
27 30 31 31 31 31 31 32 32 32 32 33 33 34 32 34
34 34 34 35 35 35 35 36 37 36 37 38 38 37 37 37
20 21 21 21 21 21 21 22 21 22 22 22 22 24 28 33
37 41 37 32 34 36 38 41 43 44 44 44 52 48 43 44
44 43 43 42 43 42 42 41 41 41 41 40 41 40 40 40
39 38 38 38 37 35 36 34 34 34 32 31 29 29 29 28
28 28 25 23 22 24 25 22 20 20 25 24 26 27 30 30
29 21 27 31 23 32 31 30 30 28 27 29 28 25 25 28
27 30 31 31 32 32 32 33 33 33 33 34 34 35 34 35
35 34 35 34 35 35 36 36 37 37 37 37 38 38 38 39
33 31 27 25 24 23 21 21 21 20 20 20 20 20 21 21
21 21 23 23 23 25 28 32 35 37 40 42 44 44 44 44
44 43 44 44 43 43 43 42 42 41 41 40 41 40 40 39
39 38 38 37 37 36 37 36 34 32 28 30 27 28 26 25
22 20 20 17 15 19 16 14 16 13 11 13 19 21 21 20
20 17 23 30 21 27 30 29 28 28 27 25 25 26 24 28
29 32 31 32 33 33 33 33 34 33 34 34 34 35 33 34
35 35 34 35 37 36 37 37 37 37 38 38 38 38 38 38
47 47 41 41 41 40 40 34 30 29 17 18 20 20 21 21
22 22 22 21 20 20 20 20 21 24 27 32 36 41 44 45
44 44 44 43 43 42 42 42 41 42 42 41 41 40 40 40
40 39 38 36 35 36 36 36 32 24 22 21 17 19 20 19
15 15 16 17 12 6 2 5 3 1 2 1 1 3 3 3
5 8 12 16 16 21 27 28 30 30 27 27 26 25 26 29
30 33 33 33 33 33 34 33 34 34 34 35 35 36 34 35
35 35 36 36 36 36 37 37 37 38 38 39 39 39 39 39
26 28 30 30 31 32 34 45 36 49 49 44 37 33 39 38
36 33 31 28 20 20 20 19 20 19 19 19 20 20 23 26
29 34 38 40 43 43 42 42 42 41 41 41 40 41 40 40
39 37 36 37 34 35 35 31 24 22 15 15 6 3 5 5
7 4 5 3 3 0 0 0 0 0 0 0 0 0 0 0
1 1 2 6 6 9 15 18 22 28 29 30 29 29 26 27
29 33 33 33 33 33 34 34 34 34 35 35 35 36 35 35
35 35 36 36 36 37 37 38 38 38 39 39 39 38 39 38
26 25 26 24 24 24 23 26 30 45 43 33 37 33 38 37
41 45 65 65 34 26 23 21 21 22 21 20 20 20 20 21
20 21 21 20 22 26 38 43 42 42 42 41 41 40 40 40
38 37 33 31 30 27 22 20 16 6 1 0 0 0 0 0
1 2 0 0 0 0 0 0 0 0 0 0 0 0 0 0
0 0 0 4 4 5 8 14 17 20 23 28 29 30 28 27
28 31 34 34 34 35 35 35 35 34 35 35 35 37 36 36
37 37 37 38 38 38 38 37 37 38 38 37 37 38 37 38
25 25 25 24 25 22 21 23 24 40 27 0 0 4 40 39
42 45 62 64 58 55 51 46 52 47 43 38 25 24 20 19
19 20 20 17 11 17 34 43 42 42 41 39 39 37 32 28
26 22 25 24 17 20 15 7 0 0 1 0 0 0 0 0
0 0 0 0 0 0 0 0 0 0 0 0 0 0 0 0
0 0 0 0 1 2 6 9 10 14 18 22 25 26 25 28
29 31 33 34 34 35 35 35 35 35 35 36 36 37 37 37
37 37 37 37 37 37 38 37 38 38 38 38 37 38 38 39
26 25 27 26 25 23 23 23 24 41 29 0 0 4 36 38
40 44 57 62 63 64 62 52 60 61 58 55 34 36 40 37
28 25 21 19 17 18 32 42 42 42 42 39 33 26 12 9
3 2 3 3 7 4 6 3 1 0 0 0 0 0 0 0
0 0 0 0 0 0 0 0 0 0 0 0 0 0 0 0
0 0 0 0 0 0 0 5 7 9 17 19 23 23 24 24
28 31 33 34 35 35 36 35 35 35 35 36 36 37 36 35
36 36 37 37 38 38 37 38 38 39 38 38 38 38 37 38
31 28 27 26 22 23 26 24 25 46 31 0 0 2 13 8
7 17 54 58 58 60 54 52 53 60 60 58 40 44 49 50
44 52 50 42 19 19 32 43 42 42 39 27 21 7 5 1
2 4 0 0 0 0 2 0 0 0 0 0 0 0 0 0
0 0 0 0 0 0 0 0 0 0 0 0 0 0 0 0
0 0 0 0 0 0 1 0 2 6 10 15 18 23 23 24
29 29 34 35 35 35 36 36 36 36 36 36 36 35 36 36
36 37 37 38 38 38 37 38 38 38 38 39 39 39 39 38
16 12 18 7 5 6 18 16 17 46 31 0 0 8 18 6
1 8 57 58 21 16 29 25 33 41 48 55 44 48 52 53
54 58 58 55 23 21 35 44 42 40 26 14 8 13 6 9
2 0 0 0 0 0 0 0 0 0 0 0 0 0 0 0
0 0 0 0 0 0 0 0 0 0 0 0 0 0 0 0
0 0 0 0 0 0 0 1 0 0 3 6 12 16 22 20
23 32 36 35 37 37 37 36 36 36 37 36 36 36 37 37
38 37 37 38 39 39 38 39 38 39 39 39 38 39 39 38
0 0 0 0 0 0 2 4 4 44 31 2 12 13 46 19
0 12 56 58 17 4 6 0 0 6 2 35 48 49 53 54
56 58 59 58 27 21 37 45 44 38 22 12 14 15 5 2
0 1 0 0 0 0 0 0 0 0 0 0 0 0 0 0
0 0 0 0 0 0 0 0 0 0 0 0 0 0 0 0
0 0 0 0 0 0 0 0 0 0 2 8 8 10 23 23
25 22 32 34 36 36 37 36 37 37 37 37 37 37 38 37
38 38 38 38 38 39 39 39 39 39 40 39 39 39 40 39
10 2 5 0 0 0 0 0 3 45 35 5 19 26 42 36
15 6 58 60 18 0 1 0 2 18 9 34 47 48 49 52
56 57 56 56 30 21 37 49 41 29 22 18 8 1 0 0
0 0 0 0 0 0 0 0 0 0 0 0 0 0 0 0
0 0 0 0 0 0 0 0 0 0 0 0 0 0 0 0
0 0 0 0 0 0 0 0 0 0 0 2 5 13 15 22
26 29 23 32 36 37 38 37 38 38 38 38 37 37 37 37
37 38 38 38 39 40 39 39 39 40 40 40 40 40 40 39
15 4 3 1 0 0 0 0 1 46 38 3 19 34 38 19
24 3 54 62 23 0 1 0 5 25 15 37 37 11 23 31
43 48 49 54 31 21 36 49 40 28 24 17 0 0 0 0
0 0 0 0 0 0 0 0 0 0 0 0 0 0 0 0
0 0 0 0 0 0 0 0 0 0 0 0 0 0 0 0
0 0 0 0 0 0 0 0 0 0 0 0 4 9 12 22
24 30 31 27 35 37 38 38 38 38 38 38 37 38 38 38
38 38 39 39 38 40 39 39 39 39 39 39 40 40 40 40
28 16 13 10 2 3 4 1 4 51 41 0 4 20 34 21
7 2 54 64 28 0 4 0 2 13 8 35 36 0 1 4
3 7 7 35 35 21 23 31 39 34 18 0 0 0 0 0
0 0 0 0 0 0 0 0 0 0 0 0 0 0 0 0
0 0 0 0 0 1 0 0 0 0 0 0 0 0 0 0
0 0 0 0 0 0 0 0 0 0 0 0 1 4 11 15
25 29 32 27 34 37 39 38 38 38 38 38 38 39 39 38
38 39 39 39 40 40 39 40 40 40 40 40 40 41 40 40
24 17 19 19 1 0 2 0 1 46 44 0 0 0 2 0
0 1 53 64 31 0 0 0 3 0 0 34 35 1 0 0
0 0 0 29 34 21 7 0 2 4 0 0 0 0 0 0
0 0 0 0 0 0 0 0 0 0 0 0 0 0 0 0
0 0 0 0 0 0 0 0 0 0 0 0 0 0 0 0
0 0 0 0 0 0 0 0 0 0 0 0 0 1 9 13
13 26 33 25 34 35 39 39 38 38 38 38 38 38 39 39
39 40 40 40 40 40 39 40 40 40 40 41 41 41 41 41
29 23 19 21 0 0 0 0 1 37 44 0 0 0 0 0
0 1 51 65 35 0 3 5 16 3 0 32 35 3 3 8
5 0 0 29 36 21 8 0 0 0 0 0 0 0 0 0
0 0 0 0 0 0 0 0 0 0 0 0 0 0 0 0
0 0 0 0 0 0 0 0 0 0 0 0 0 0 0 0
0 0 0 0 0 0 0 0 0 0 0 0 0 0 3 16
15 15 29 28 30 35 36 38 39 38 38 38 39 39 38 39
39 39 39 40 40 40 40 40 41 41 41 41 41 41 41 41
38 13 11 10 0 0 0 1 4 40 46 1 0 0 0 0
0 0 48 66 42 0 8 14 27 10 0 31 36 4 5 9
19 1 0 27 36 20 8 0 0 0 0 0 0 0 0 0
0 0 0 1 0 0 0 0 0 1 1 0 0 0 0 0
0 0 0 0 0 0 0 0 0 0 0 0 0 0 0 0
0 0 0 0 0 0 0 0 0 0 0 0 0 0 1 9
15 11 19 31 27 35 34 38 38 38 38 38 38 38 39 39
39 40 40 40 40 41 40 40 40 40 41 41 41 40 41 41
34 0 0 0 2 1 3 0 2 41 52 41 36 36 35 31
28 27 53 65 46 3 3 5 1 1 0 28 35 3 6 2
15 0 0 25 34 20 9 0 0 0 0 0 0 0 0 0
0 0 0 2 0 1 0 0 1 1 0 0 0 0 0 0
0 0 0 0 0 0 0 0 0 0 0 0 0 0 0 0
0 0 0 0 0 0 0 0 0 0 0 0 0 0 0 0
9 12 9 23 27 30 36 39 38 38 38 38 38 39 39 39
39 39 39 39 38 39 40 39 39 39 40 40 41 41 40 40
33 1 0 0 0 0 0 0 0 35 63 62 58 53 51 48
43 36 31 34 18 0 0 8 8 1 0 26 33 0 4 1
2 0 0 24 34 19 8 1 3 0 0 0 0 0 0 0
0 0 0 1 0 0 0 0 1 0 0 0 0 0 0 0
0 0 0 0 0 0 0 0 0 0 0 0 0 0 0 0
0 0 0 0 0 0 0 0 0 0 0 0 0 0 0 0
3 11 13 8 22 27 36 37 38 38 38 37 38 38 38 39
39 39 39 39 40 39 40 39 39 40 40 40 40 41 40 41
35 4 0 0 0 0 0 0 0 43 60 25 26 29 33 43
50 51 43 35 23 14 10 11 9 1 0 28 32 0 5 4
0 0 0 24 34 20 10 8 5 0 0 0 0 0 0 0
0 0 0 0 1 0 0 1 2 0 0 0 0 0 0 0
0 0 0 0 0 0 0 0 0 0 0 1 1 0 0 0
0 0 0 0 0 0 0 0 0 0 0 0 0 0 0 0
2 13 10 10 10 22 33 36 38 39 39 39 38 39 39 39
39 39 39 39 39 38 39 39 40 40 41 40 41 41 41 41
35 3 1 0 1 0 0 0 0 41 56 4 0 0 0 2
5 12 49 42 50 53 49 51 51 45 41 44 42 14 10 13
11 7 4 29 34 20 13 8 0 0 0 0 0 0 0 0
0 0 0 0 1 0 0 1 0 0 0 0 1 0 0 0
0 0 0 0 0 0 0 0 0 0 0 3 3 1 3 1
0 0 0 0 0 0 0 0 0 0 0 0 0 0 0 0
0 10 15 14 10 20 35 37 39 39 39 40 39 39 41 39
39 39 39 39 40 40 40 40 40 40 41 41 41 41 40 38
40 14 8 4 5 0 0 0 1 44 56 11 0 1 1 0
0 0 47 59 24 17 25 33 39 43 49 50 68 58 36 46
46 47 44 45 31 20 12 0 0 0 0 0 0 0 0 0
0 0 0 0 0 0 0 0 0 0 0 0 0 0 0 0
0 0 0 0 0 0 0 0 0 0 2 4 5 3 3 1
0 0 0 0 0 0 0 0 0 0 0 0 0 0 0 0
0 4 19 15 13 14 32 37 39 38 40 39 39 38 41 39
39 39 39 40 40 40 39 40 40 41 40 40 41 41 39 40
28 6 6 11 13 11 6 2 7 47 54 16 0 0 4 19
5 0 45 61 28 16 16 21 18 7 12 62 72 52 38 49
57 56 57 55 32 21 12 0 0 0 0 0 0 0 0 0
0 0 0 0 0 0 0 0 0 0 0 0 0 0 0 0
0 0 0 0 0 0 0 0 0 1 3 1 5 3 6 3
0 1 4 0 0 0 0 0 0 0 0 0 0 0 0 0
0 0 10 18 15 15 31 38 38 40 39 38 37 38 40 39
37 34 40 40 40 41 41 41 41 39 36 33 30 26 23 24
33 1 0 0 7 18 8 3 22 52 52 19 25 12 19 15
3 0 43 60 20 4 9 5 4 1 12 64 65 41 39 52
55 55 59 58 33 21 21 13 0 0 0 0 0 0 0 0
0 0 0 0 0 0 0 0 0 0 0 0 0 0 0 0
0 0 0 0 0 0 0 0 0 4 2 0 4 7 6 5
4 3 5 0 0 0 0 0 0 0 0 0 0 0 0 0
0 2 6 14 16 13 27 37 38 39 39 38 38 37 39 33
8 29 40 39 35 32 29 26 22 21 20 21 22 23 24 22
41 2 0 0 2 10 4 10 30 57 50 19 33 19 15 17
10 0 42 60 15 0 5 0 0 0 11 61 57 18 7 16
18 21 26 43 35 21 27 27 0 0 0 0 0 0 0 0
0 0 0 0 0 0 0 1 0 0 0 0 0 0 0 0
0 0 0 0 0 0 0 0 0 0 2 0 4 6 6 3
3 6 5 1 0 0 0 0 0 0 0 0 0 0 0 0
0 0 4 4 18 13 23 35 35 32 32 39 39 37 27 7
20 26 24 23 22 22 23 24 25 27 28 28 29 30 30 29
49 3 0 4 21 21 17 22 42 62 52 10 10 2 10 33
18 0 41 57 15 0 0 0 0 0 9 60 60 17 0 1
0 0 0 25 36 21 24 18 0 0 0 0 0 0 0 0
0 0 0 0 0 0 0 0 0 0 0 0 0 0 0 0
0 0 0 0 0 0 0 0 0 1 2 0 2 4 4 9
11 11 6 2 2 0 0 2 9 0 0 0 0 0 0 0
0 4 2 0 10 12 22 34 33 25 20 26 24 16 11 17
24 26 27 27 29 29 30 31 32 33 34 35 35 37 36 33
49 4 0 5 34 36 49 53 43 56 60 42 34 34 34 26
10 0 44 57 17 18 14 0 0 0 4 56 61 14 0 0
0 2 4 23 38 21 21 6 0 0 0 0 0 0 0 0
0 0 0 0 0 0 0 0 0 0 0 0 0 0 0 0
0 0 0 0 0 0 0 0 0 0 0 0 2 4 9 14
14 11 7 4 1 0 0 9 26 3 1 0 0 0 3 0
0 1 0 2 2 9 16 23 23 22 22 25 14 22 17 29
31 33 33 35 35 36 35 36 37 38 38 38 38 39 37 29
48 4 0 2 28 31 44 44 5 31 61 51 22 45 56 33
6 0 47 62 19 27 15 0 0 0 2 49 56 12 0 0
0 26 34 34 40 31 19 2 0 0 0 0 0 0 0 0
0 0 0 0 0 0 0 0 0 0 0 0 0 0 0 0
0 0 0 0 0 0 0 0 0 0 0 0 4 8 14 26
23 18 15 8 1 1 0 18 26 8 5 0 0 0 1 1
1 0 0 0 0 6 19 27 28 30 30 20 25 35 21 34
36 37 35 34 38 38 38 38 39 32 27 32 34 34 34 28
49 4 0 7 45 45 38 31 6 17 57 49 13 35 51 25
10 0 47 63 21 11 16 1 0 0 2 45 51 10 0 0
0 23 33 32 34 27 12 0 0 0 0 0 0 0 0 0
0 0 0 1 0 0 0 0 0 0 0 0 0 0 0 0
0 0 0 0 0 0 0 0 1 0 0 0 9 9 20 36
27 26 19 6 2 5 9 20 28 16 14 2 0 0 0 0
0 0 0 0 0 7 26 34 35 36 30 23 38 38 30 5
6 7 1 12 23 40 33 28 26 5 3 0 2 3 7 24
52 16 9 8 24 52 47 42 18 10 52 37 6 19 47 12
11 0 46 65 24 0 5 0 0 0 2 47 53 10 1 3
0 6 13 20 29 24 6 0 0 0 0 0 0 0 0 0
0 0 0 0 0 0 0 0 0 0 0 0 0 0 0 0
0 0 0 0 0 0 1 1 2 2 0 1 6 16 34 35
22 13 12 8 10 19 13 13 30 30 28 11 0 0 0 0
0 0 0 0 0 9 34 37 37 35 22 27 17 28 40 5
0 0 0 5 12 13 2 0 0 0 5 0 0 0 0 17
54 45 52 45 21 17 41 49 38 11 25 32 11 7 36 3
2 0 44 62 23 0 0 0 0 0 4 51 54 9 1 5
0 0 0 9 25 16 1 0 0 0 0 0 0 0 0 0
0 0 0 0 0 0 0 0 0 0 0 1 0 0 2 3
0 0 0 0 0 3 5 4 5 6 12 2 3 19 26 26
12 7 10 15 20 11 8 15 33 52 47 33 7 0 0 0
0 0 0 0 0 14 37 38 37 24 9 0 0 2 38 5
0 0 0 0 0 0 0 0 0 0 11 6 0 0 0 14
59 56 53 36 53 30 2 5 3 0 0 4 27 14 9 1
17 14 46 59 21 0 0 0 0 0 4 53 54 9 0 5
8 0 0 10 33 16 4 0 0 0 0 0 0 0 0 0
0 0 0 0 0 0 1 0 0 0 0 0 0 0 1 2
3 1 0 1 1 7 8 5 6 16 12 4 10 14 11 12
13 10 10 10 9 5 17 36 53 58 61 49 29 1 0 0
0 0 0 0 0 24 40 39 38 7 17 35 15 3 4 0
0 0 0 0 0 0 0 0 2 0 0 0 0 0 0 17
64 62 54 13 54 60 23 0 0 1 1 0 0 2 12 3
46 53 54 53 34 22 18 13 10 6 9 54 53 9 0 0
12 1 0 10 40 15 7 0 0 0 0 0 0 0 0 0
0 0 2 0 0 0 0 0 0 0 0 0 0 0 0 2
1 4 2 2 6 7 7 5 16 25 11 16 26 23 11 24
26 9 8 11 10 9 24 39 56 62 65 56 42 4 0 0
0 0 0 0 0 32 40 38 29 16 38 23 25 39 39 37
37 36 37 36 18 28 20 0 3 0 0 0 0 0 0 26
70 68 61 10 49 60 16 3 0 2 3 1 8 24 51 33
50 59 60 54 54 56 50 36 48 43 38 45 45 21 1 0
14 11 5 7 42 14 16 0 0 0 0 0 0 0 0 0
0 0 3 0 0 0 0 2 1 1 0 0 0 0 0 2
3 9 6 2 7 7 7 9 12 14 10 12 16 16 3 6
12 13 33 27 26 31 25 28 56 68 64 51 21 1 0 0
0 0 0 0 4 37 39 35 11 20 22 37 41 41 41 41
40 41 41 41 39 11 5 0 2 0 3 15 15 14 23 34
63 65 65 14 39 61 18 0 0 5 40 34 50 48 59 59
58 59 61 61 44 22 17 12 16 21 18 33 42 40 37 29
31 33 27 23 46 16 15 0 0 0 0 0 0 0 0 0
0 1 3 0 2 4 4 2 5 4 2 0 0 0 0 1
7 10 5 4 2 1 2 1 11 21 27 29 57 51 4 0
0 0 1 15 30 40 35 37 58 68 58 31 6 0 0 0
0 0 0 0 10 38 39 14 30 41 41 41 41 42 41 42
42 41 41 41 15 0 0 3 0 0 13 42 41 40 39 35
12 15 50 25 31 63 49 24 16 26 53 57 52 37 49 57
40 38 45 52 34 0 0 0 1 21 12 31 43 39 29 30
39 46 52 53 50 11 13 0 0 0 0 0 0 0 0 0
0 0 2 3 5 7 9 3 7 8 3 0 0 1 0 1
7 5 2 2 3 2 8 8 20 22 18 16 20 13 1 0
0 0 0 0 0 12 42 46 58 62 47 19 10 3 0 0
0 0 0 0 22 40 25 18 41 42 41 42 41 42 41 41
41 41 41 41 13 0 0 23 0 0 11 42 41 40 40 38
1 1 40 47 29 62 60 59 57 58 59 57 40 8 15 25
8 0 0 21 37 0 0 5 4 13 18 37 45 36 5 1
7 13 23 52 49 15 11 0 0 0 0 0 0 0 0 0
0 0 2 6 6 4 10 1 10 8 4 1 1 6 0 0
3 3 0 3 1 9 12 12 18 26 33 24 22 25 7 0
0 0 0 0 0 0 8 52 65 55 38 29 32 24 0 0
0 0 0 6 32 33 10 39 42 42 41 41 42 42 42 41
42 43 43 42 17 0 0 5 0 0 8 42 41 41 40 40
5 12 42 54 23 61 59 61 62 60 56 50 34 5 0 3
5 0 0 19 40 1 5 36 36 18 10 37 47 33 1 4
25 27 27 51 46 16 11 0 0 0 0 0 0 0 0 0
0 0 0 1 1 1 5 1 4 5 2 0 1 4 0 0
1 5 2 9 5 20 61 78 94 105 112 82 72 57 8 0
2 0 0 0 0 0 0 30 67 45 41 36 24 16 0 0
0 0 1 22 37 12 34 42 41 41 42 42 42 42 42 41
42 42 42 41 16 0 0 0 0 0 6 42 42 42 40 40
12 15 37 57 15 60 61 62 62 58 24 18 15 5 2 4
19 0 0 18 41 1 25 42 28 4 1 38 49 33 0 5
19 38 39 53 41 24 7 0 0 0 0 0 0 0 0 0
0 0 0 0 0 0 1 0 0 4 1 0 0 1 0 0
3 6 15 15 16 16 70 99 117 124 121 88 78 51 3 0
2 0 0 0 0 0 0 6 61 38 15 0 0 0 0 0
0 7 15 31 33 16 42 41 42 42 42 42 42 42 42 41
41 40 35 33 14 0 0 1 0 2 5 42 42 41 42 42
2 12 27 57 8 40 45 47 50 53 49 51 48 46 46 41
38 1 0 17 41 7 9 46 35 0 1 40 52 34 0 2
4 12 35 55 40 30 17 0 0 0 0 0 0 0 0 0
0 0 2 0 2 1 0 0 0 1 0 0 1 0 0 3
18 16 42 34 39 48 83 118 130 131 123 81 74 52 1 0
0 0 0 0 0 0 0 0 29 10 0 0 0 0 0 0
0 15 31 41 24 27 42 40 40 41 41 41 43 42 42 42
26 7 2 1 0 0 0 0 1 3 4 42 43 42 43 43
4 21 31 57 8 0 0 0 1 4 29 40 27 11 12 15
12 2 0 17 41 1 1 29 18 8 2 41 53 37 0 0
0 0 27 56 41 30 26 4 0 0 0 0 0 0 0 0
2 5 2 3 7 2 1 0 0 0 1 1 1 1 4 18
44 49 65 72 93 108 124 132 135 134 121 71 56 53 0 0
0 0 0 0 0 0 0 6 1 0 0 0 0 0 0 2
0 24 39 41 23 28 42 41 41 42 42 42 43 43 43 42
22 29 20 17 8 2 1 1 3 7 6 31 41 41 43 43
0 15 27 55 14 0 0 0 0 0 29 44 28 0 0 0
0 0 0 15 41 0 0 0 0 7 2 40 54 36 0 0
0 0 24 57 42 30 30 12 0 0 0 0 0 0 0 0
3 13 6 5 3 1 5 0 0 1 1 0 3 6 14 45
74 97 115 113 127 133 139 138 137 135 122 71 55 44 0 0
0 0 0 0 0 0 0 13 1 0 0 0 0 0 0 6
0 33 39 41 24 28 41 42 42 42 42 42 42 43 43 42
59 66 41 27 6 0 0 0 0 1 0 13 22 42 43 43
0 2 6 46 24 0 0 0 0 0 34 52 38 0 0 0
0 0 0 13 43 1 0 0 0 0 0 37 54 33 0 0
0 0 23 58 44 29 32 18 0 0 0 0 0 0 0 0
3 7 8 8 4 0 5 1 1 2 6 4 3 11 22 65
91 110 135 140 142 140 141 142 141 138 127 76 64 25 0 0
0 0 0 0 0 0 0 14 41 13 0 0 0 0 0 7
3 38 39 41 28 24 42 42 42 42 43 42 42 43 42 41
24 20 19 3 1 0 0 0 0 1 0 22 8 14 30 42
3 0 0 37 38 5 3 5 5 6 38 57 50 2 0 0
0 0 0 11 41 1 0 0 0 0 0 35 55 34 0 0
0 0 19 54 41 28 32 19 0 0 0 0 0 0 0 0
0 2 6 7 4 5 9 12 12 13 7 3 7 16 43 78
93 107 130 139 139 141 139 140 138 135 131 87 65 11 0 0
0 0 0 0 0 0 1 24 91 57 0 0 0 0 0 4
6 39 38 40 33 19 42 41 42 42 42 41 39 37 33 30
17 6 3 0 0 0 0 0 0 0 0 6 9 2 20 43
3 0 0 27 61 41 32 41 43 45 55 59 44 2 0 0
0 0 0 10 41 0 0 0 0 0 0 33 55 35 0 0
0 0 16 54 42 27 31 25 1 0 0 0 0 0 0 3
6 2 10 10 9 20 14 12 16 13 10 3 3 21 57 79
89 108 118 121 126 138 141 142 140 138 132 96 68 5 0 0
0 0 0 0 0 1 10 47 101 96 16 0 0 0 0 0
7 40 38 41 38 17 41 41 41 42 42 25 11 10 11 10
5 1 4 0 0 0 0 0 0 0 0 6 9 3 17 44
6 6 6 23 66 42 47 49 49 53 61 45 7 0 0 0
0 0 0 9 43 7 7 8 11 16 20 43 55 37 0 0
0 0 17 58 46 25 31 24 1 0 0 0 0 0 2 2
7 8 24 28 56 38 13 22 21 8 10 11 9 34 67 87
96 92 103 117 130 138 145 143 141 140 139 110 74 7 0 0
0 0 0 0 0 13 9 69 107 115 56 0 0 0 0 0
13 40 39 41 40 17 36 33 28 22 17 8 5 5 5 6
6 6 12 9 9 0 0 0 0 0 0 5 9 3 15 42
54 59 65 66 72 33 29 34 40 47 56 49 24 18 18 16
14 13 13 22 49 43 45 46 49 53 54 52 41 28 13 9
7 4 20 56 43 25 33 27 0 0 0 0 0 0 1 4
22 23 41 63 56 18 20 29 22 14 19 23 17 38 65 90
100 106 116 113 125 137 143 144 141 143 141 127 80 16 0 0
0 0 0 6 19 18 21 90 117 121 95 11 0 0 0 0
18 34 28 22 15 6 6 6 7 9 11 11 13 13 13 13
13 10 5 6 20 0 0 0 0 0 0 5 10 6 14 41
69 71 75 76 74 27 0 0 4 9 40 58 54 54 54 51
50 49 50 52 53 50 50 52 52 52 52 51 49 47 48 45
44 39 41 49 44 41 42 35 1 0 0 0 1 1 0 4
45 42 62 61 37 27 27 19 17 20 35 28 23 36 67 92
110 120 130 134 129 133 135 143 143 144 142 141 98 38 0 0
0 0 3 25 40 8 56 106 121 122 112 52 0 0 0 0
22 14 6 8 9 11 12 13 14 13 14 14 14 14 13 14
13 4 3 6 23 0 0 0 0 2 0 4 7 12 14 37
65 66 72 72 70 40 0 0 1 6 39 61 59 59 59 59
57 59 60 55 41 33 43 47 47 46 46 46 46 46 46 45
46 46 46 45 45 45 44 37 4 0 0 2 0 5 0 0
57 48 75 49 44 70 36 22 20 34 44 43 35 35 74 97
112 126 138 140 145 146 144 144 145 143 141 142 128 73 12 0
0 0 17 36 24 24 96 119 123 122 119 96 12 0 0 1
25 16 12 12 13 13 13 13 12 9 7 6 4 2 1 9
14 12 1 11 10 0 0 0 0 13 5 5 13 18 19 34
37 33 21 14 13 7 0 0 2 6 41 61 61 58 58 58
56 58 61 36 26 28 40 47 46 46 46 47 47 46 47 46
47 46 46 45 45 44 44 36 8 0 3 2 0 1 0 0
45 71 85 66 60 75 25 12 30 45 50 62 40 37 70 90
111 127 141 139 142 143 144 145 144 142 144 142 144 128 74 14
0 1 20 16 17 85 114 124 127 121 119 113 54 0 0 4
19 16 14 10 4 2 1 0 0 0 0 0 0 0 0 12
15 13 11 10 3 0 0 0 0 3 0 5 11 11 12 35
20 26 6 0 0 0 0 0 0 7 42 53 31 32 31 29
28 31 34 25 25 28 39 46 46 39 37 36 36 34 33 32
31 30 29 28 27 27 26 21 6 0 7 3 0 0 0 1
20 64 90 68 66 32 25 35 72 66 91 84 54 45 80 79
104 117 132 137 136 139 142 146 142 140 140 144 146 135 127 95
52 25 25 45 83 101 119 121 119 120 121 116 92 11 0 11
27 14 14 5 0 0 0 0 0 0 0 0 0 0 1 14
15 14 10 16 15 17 17 19 19 20 21 24 25 25 23 25
13 27 7 0 0 0 0 0 0 3 42 43 0 2 1 0
0 7 7 19 26 28 37 46 41 16 2 2 2 1 1 1
0 0 0 0 0 0 0 0 0 0 3 0 0 0 0 0
2 27 51 92 66 37 44 68 98 103 99 102 73 53 87 88
109 125 129 134 134 136 139 143 143 143 141 143 142 139 132 124
107 95 91 92 92 94 109 110 112 117 123 122 108 37 0 22
25 14 14 2 0 0 0 0 0 0 0 0 0 0 3 16
15 14 13 47 20 25 27 34 31 26 33 28 26 25 17 17
14 27 10 0 0 0 0 0 0 1 44 45 1 3 0 4
0 7 15 22 25 27 35 46 42 22 0 0 0 0 1 0
1 0 0 0 0 0 0 0 0 0 0 0 0 0 0 0
0 28 58 70 94 94 93 55 83 119 115 114 77 59 84 88
111 126 133 132 135 132 136 143 143 140 142 146 143 142 140 130
114 104 99 94 79 103 112 116 119 120 125 125 112 71 8 31
21 13 13 0 0 0 0 0 0 0 0 0 0 0 7 16
14 15 14 30 20 24 30 43 70 56 79 81 82 31 20 43
14 28 11 0 0 0 0 0 0 1 41 45 1 3 0 3
12 20 21 22 25 27 34 46 43 27 2 0 0 1 2 3
3 3 3 3 2 2 2 1 1 0 0 0 0 0 0 0
0 7 74 91 88 100 121 123 104 118 114 111 87 70 84 91
108 124 131 131 131 130 133 139 141 141 144 142 143 143 140 133
117 106 99 89 73 117 128 127 122 127 139 132 110 82 26 28
18 14 10 0 0 0 0 0 0 0 0 0 0 0 10 16
14 15 13 28 20 26 34 52 105 75 104 102 100 33 20 85
13 26 16 5 0 0 0 0 0 0 38 45 2 2 5 17
20 20 18 21 24 27 33 45 44 32 4 0 1 2 3 3
3 3 3 3 3 2 2 1 2 0 0 0 0 0 0 0
0 0 20 47 68 98 119 128 121 119 112 116 109 90 91 103
118 125 128 133 133 132 133 141 142 141 140 141 142 143 141 132
116 105 93 81 71 116 140 136 121 126 114 109 100 73 24 27
17 14 7 0 0 0 0 0 0 0 0 0 0 0 14 16
16 18 8 28 30 35 39 39 59 42 48 44 38 32 31 50
14 28 21 16 1 0 0 0 0 0 37 43 3 0 5 18
19 20 19 21 25 27 32 45 44 34 6 0 2 2 3 3
3 4 3 3 3 3 3 3 2 2 1 0 0 0 0 0
0 0 0 25 87 115 130 126 124 122 107 112 113 106 105 113
113 124 130 133 132 132 133 137 140 142 139 140 140 139 136 127
115 100 86 80 59 107 122 119 102 67 70 96 81 55 46 32
14 14 3 0 0 0 0 0 0 0 0 0 0 1 15 15
16 19 2 10 36 41 43 29 29 27 26 22 24 24 26 26
11 25 23 10 0 0 0 0 0 0 38 41 4 0 2 18
19 20 19 21 24 27 31 44 44 36 9 1 2 3 3 3
3 3 3 3 3 3 3 3 3 2 0 0 0 0 1 0
0 0 0 4 70 122 138 137 134 120 97 107 107 106 107 107
116 122 132 136 134 134 135 138 142 143 141 138 136 136 134 123
110 95 82 90 68 76 86 74 79 77 74 75 54 53 51 24
16 15 1 0 0 0 0 0 0 0 0 0 0 5 17 15
18 16 0 12 31 38 43 30 29 22 27 20 19 22 29 28
10 24 23 9 6 4 2 1 1 2 41 40 6 0 2 19
20 21 20 21 25 27 31 44 45 38 11 2 1 2 2 3
3 3 4 4 4 4 4 4 3 2 1 0 1 0 0 0
0 0 0 0 16 91 121 130 130 95 81 102 103 104 103 104
110 121 133 135 131 136 135 138 141 141 138 137 135 134 129 119
105 91 83 98 99 88 83 101 107 73 65 70 64 55 48 20
16 12 0 0 0 0 0 0 0 0 0 0 0 9 17 15
17 9 0 3 6 24 44 31 30 18 21 21 21 24 30 29
8 20 33 44 46 44 41 41 41 40 52 45 8 0 3 19
20 21 20 21 24 25 30 43 44 38 14 2 3 3 2 3
4 2 3 3 2 3 4 3 3 2 2 0 0 1 0 1
2 2 2 1 0 6 51 85 78 30 74 96 99 96 100 99
107 121 130 133 129 134 136 138 138 137 137 133 132 129 125 116
101 87 87 101 111 118 114 120 106 69 72 75 62 56 43 18
16 9 0 0 0 0 0 0 0 0 0 0 0 12 17 15
17 6 0 2 2 28 39 30 28 18 23 21 21 24 30 29
6 19 33 49 53 50 44 44 44 40 33 40 11 0 3 18
19 20 19 20 23 25 28 41 44 38 17 2 3 2 2 2
3 3 3 3 3 3 3 3 3 2 1 0 0 0 0 0
3 2 0 0 0 4 30 81 91 76 81 88 89 93 97 95
104 119 125 130 129 133 136 139 137 136 133 127 130 124 121 113
99 85 93 109 113 113 112 114 96 69 64 70 58 56 36 16
15 5 0 0 0 0 0 0 0 0 0 0 0 15 16 15
17 3 0 12 12 35 38 32 26 16 22 20 20 25 29 28
7 23 31 48 50 41 22 10 5 1 0 27 15 0 3 17
18 20 19 19 23 24 27 39 43 38 19 1 2 2 3 3
3 3 3 3 3 3 2 2 2 1 2 0 0 0 0 0
0 0 1 5 11 22 65 84 92 87 81 80 86 90 97 95
105 105 112 124 132 133 137 137 136 136 134 134 129 124 121 111
100 90 103 118 115 113 110 112 91 75 59 62 58 55 30 15
15 2 0 0 0 0 0 0 0 0 0 0 3 16 15 16
16 0 5 21 13 42 36 32 25 13 16 20 18 25 28 27
21 27 14 15 17 24 7 0 0 0 0 24 27 11 12 17
18 19 19 19 23 24 27 39 43 39 20 0 2 2 2 1
2 3 2 2 2 2 2 2 1 1 2 1 0 0 0 0
0 0 4 26 40 39 72 97 93 84 81 79 85 90 95 101
104 115 119 124 127 130 133 136 136 137 132 131 128 123 119 113
103 101 106 119 120 120 116 110 101 73 65 57 58 54 24 16
13 0 0 0 0 0 0 0 0 0 0 0 6 17 16 17
12 0 9 19 11 44 34 28 13 4 11 20 19 25 28 27
26 29 16 0 1 9 0 0 0 0 0 29 52 43 32 17
17 18 19 18 22 24 26 37 43 39 22 0 1 2 2 2
2 2 2 2 2 2 2 1 1 1 1 0 0 0 0 0
0 0 8 25 31 42 65 97 99 87 80 75 84 93 98 103
105 114 119 121 122 129 132 134 133 135 136 132 128 123 120 114
110 105 108 121 128 126 116 101 85 80 63 53 58 48 19 15
10 0 0 0 0 0 0 0 0 0 0 0 9 17 15 17
9 0 4 8 17 44 33 21 11 2 10 18 16 26 27 28
34 34 27 2 3 2 0 0 0 0 1 34 39 9 7 13
16 17 17 16 21 23 26 36 42 39 23 0 1 1 2 2
2 2 1 1 2 1 1 1 1 1 1 1 0 0 0 0
0 0 1 12 24 29 55 90 102 94 83 77 82 91 97 104
105 113 120 121 123 129 131 128 135 136 135 134 131 127 121 118
114 107 108 124 128 99 86 84 71 81 55 53 59 42 17 15
6 0 0 0 0 0 0 0 0 0 0 0 13 16 16 17
6 1 41 36 27 42 32 19 9 1 10 17 17 26 27 27
38 31 21 8 5 0 0 0 0 0 0 30 36 2 0 10
16 17 17 16 21 22 25 34 41 39 25 1 1 1 1 1
1 1 1 2 1 1 1 0 1 1 1 1 0 0 0 0
0 0 0 3 15 26 59 98 106 99 86 77 78 87 98 105
108 113 118 121 125 127 131 131 134 135 134 132 131 127 123 118
112 101 101 101 69 56 65 51 58 66 40 57 58 33 15 14
3 0 0 0 0 0 0 0 0 0 0 1 16 16 16 16
2 12 83 46 29 41 33 21 8 10 17 18 18 26 27 27
33 28 13 16 8 0 0 0 0 0 0 27 37 2 0 8
16 16 17 15 20 22 24 33 42 39 25 1 1 1 0 1
1 1 1 1 1 1 1 1 0 0 1 1 1 0 0 0
0 0 0 2 9 34 71 99 109 104 90 80 75 83 95 103
108 114 117 119 124 126 128 131 133 133 132 132 130 129 123 118
107 89 80 68 101 104 128 81 17 25 40 61 56 26 16 15
0 0 0 0 0 0 0 0 0 0 0 4 17 16 17 16
0 15 60 25 35 39 32 24 19 11 22 18 21 29 29 28
18 12 9 8 6 5 6 8 12 20 25 30 36 3 0 7
15 15 17 15 19 21 24 32 40 39 25 1 0 0 0 0
1 1 1 1 1 1 1 0 0 0 0 0 0 0 0 0
0 0 1 9 18 42 75 105 110 108 96 82 76 77 88 98
105 110 116 118 123 124 126 130 131 132 130 129 129 125 121 114
101 85 86 67 93 104 140 102 28 41 50 63 51 21 16 11
0 0 0 0 0 0 0 0 0 0 0 7 16 15 17 12
0 2 18 19 40 37 33 28 19 16 21 20 23 30 30 28
36 18 16 13 16 18 21 23 28 36 43 45 38 15 5 9
15 15 16 14 18 19 22 29 40 38 26 1 0 0 0 1
1 0 0 0 0 0 0 0 0 0 0 0 0 1 2 0
0 0 1 18 43 63 96 109 112 111 101 86 80 71 80 93
103 108 112 116 119 123 124 126 127 128 127 126 124 123 120 107
96 90 105 98 89 94 90 69 46 57 53 62 45 18 16 12
5 6 6 6 7 6 6 6 7 7 7 13 18 16 18 8
0 2 8 17 47 35 33 30 17 15 20 20 25 29 30 27
34 29 30 28 31 31 33 34 35 39 42 40 38 34 31 26
16 14 16 13 17 20 22 29 39 38 25 1 0 0 0 0
0 0 0 0 0 0 1 0 0 0 0 0 0 2 12 0
0 0 1 22 50 73 101 109 113 110 102 89 79 73 73 85
96 104 109 113 117 119 120 120 122 124 124 123 120 118 113 102
95 97 111 115 103 104 103 86 77 71 57 61 38 15 16 16
15 15 15 15 15 15 16 15 15 16 16 16 18 17 18 4
0 3 8 23 46 35 33 30 17 15 20 21 26 29 29 27
21 20 18 16 15 13 13 11 10 10 9 9 13 11 4 7
11 12 12 11 16 18 21 28 38 38 26 1 0 0 0 0
0 0 0 0 0 0 0 0 0 0 0 0 0 2 28 6
3 0 10 19 45 80 101 109 112 110 104 93 80 76 71 76
88 100 106 109 114 116 118 120 120 121 120 119 117 114 109 103
98 103 109 117 112 99 100 100 81 72 58 60 31 16 17 16
16 16 17 16 16 16 16 16 15 16 16 16 15 19 20 1
0 8 9 29 45 36 34 29 17 16 19 20 28 29 29 28
0 0 0 1 1 0 0 0 1 2 4 7 19 11 0 1
10 11 12 10 15 18 21 27 38 37 26 2 0 0 0 0
0 0 0 0 0 0 0 0 0 0 0 0 0 2 34 28
15 14 43 55 73 89 103 107 109 110 107 98 81 78 74 71
77 90 99 106 109 113 116 118 119 119 116 115 114 108 104 101
97 101 106 112 115 108 94 83 72 63 67 58 30 12 16 18
17 17 17 25 26 17 17 17 16 16 18 17 12 12 16 0
0 26 31 38 44 37 36 27 17 15 15 21 29 29 29 28
0 0 0 6 7 0 0 0 0 0 4 5 17 14 0 0
9 10 11 10 14 17 19 25 36 35 26 2 0 0 0 0
0 0 0 0 0 0 0 0 0 0 0 0 0 3 38 38
30 29 55 66 85 93 98 103 105 107 105 101 90 79 77 74
70 76 90 98 103 109 113 115 116 116 117 113 110 107 104 98
99 101 104 107 105 104 98 82 64 71 109 48 25 10 21 27
30 36 51 96 102 70 64 60 37 45 44 42 39 19 1 0
23 43 21 44 47 42 58 53 41 17 25 92 69 48 62 64
1 0 0 10 9 0 0 1 2 1 5 12 18 11 0 0
2 9 10 12 14 16 19 25 35 35 26 2 0 0 0 0
0 1 2 3 5 6 9 10 12 14 17 19 21 25 40 27
5 34 60 70 85 91 96 101 105 106 106 105 97 87 79 76
72 67 72 86 96 103 106 111 111 112 111 112 110 108 105 100
98 100 100 101 98 91 76 56 48 95 72 23 22 30 75 110
116 133 146 150 150 146 134 107 38 14 13 14 16 32 33 5
101 144 33 48 49 44 102 107 94 18 28 91 96 81 96 94
5 5 6 5 3 8 10 12 13 13 10 8 10 5 0 0
4 4 11 13 14 17 18 24 35 35 31 17 17 19 22 24
26 28 30 30 32 32 32 33 33 33 33 32 32 36 41 3
3 50 65 76 87 92 97 99 103 107 109 106 103 97 86 80
76 71 67 72 83 94 101 104 106 108 109 111 110 109 105 101
98 95 98 95 88 74 58 45 49 62 51 45 41 47 77 115
117 127 137 140 149 147 134 107 32 12 13 12 10 23 24 44
123 140 27 51 45 35 83 88 61 4 4 58 64 56 68 61
14 13 6 6 14 15 16 16 17 17 17 9 5 14 0 0
7 1 9 11 13 15 18 23 35 36 36 36 34 34 37 38
36 35 34 35 34 34 34 34 34 33 33 32 33 38 15 0
16 60 69 79 89 96 97 100 103 108 109 109 106 103 94 87
83 77 71 68 74 83 91 98 103 104 107 108 109 109 107 104
90 86 91 83 75 65 54 46 50 51 49 48 59 62 70 103
119 136 147 150 150 144 131 103 28 8 10 11 9 32 0 16
75 55 24 49 30 10 10 9 1 3 3 0 7 23 34 28
12 5 10 14 15 15 16 15 17 19 23 9 7 12 5 7
4 0 4 6 9 14 17 22 34 35 36 35 32 31 36 36
36 36 35 34 36 38 33 25 27 31 31 22 49 42 2 0
36 69 76 81 92 98 99 101 104 108 111 109 109 107 100 92
87 83 79 76 74 78 84 91 98 100 104 106 108 108 108 106
104 100 95 90 85 74 63 49 27 26 27 28 55 49 44 70
106 66 109 135 133 119 96 45 10 11 8 7 15 39 10 13
51 34 39 49 25 4 0 0 0 0 0 0 0 9 28 15
2 8 13 12 14 14 15 14 23 36 36 9 3 0 0 1
0 0 1 6 9 13 15 21 34 35 36 35 34 33 34 33
33 32 30 37 60 61 14 1 1 5 8 15 78 59 0 2
58 77 81 81 94 97 100 104 105 109 114 113 112 108 106 100
95 91 87 84 81 78 78 83 91 96 99 101 104 108 110 110
109 108 106 99 91 77 65 47 23 21 18 9 38 51 51 49
48 9 14 18 12 9 12 4 11 11 15 44 70 84 92 102
99 103 102 82 33 33 1 0 0 0 0 0 0 1 22 15
6 9 9 8 8 8 7 6 27 27 18 3 0 0 0 0
0 0 0 0 5 5 7 9 18 19 18 16 15 14 12 11
14 16 25 67 75 25 0 0 0 0 0 53 62 26 0 19
69 83 88 87 94 99 102 105 107 109 112 114 117 114 110 108
105 98 94 90 86 83 80 80 84 89 91 96 99 104 108 109
109 109 108 100 88 73 66 38 23 20 17 0 1 26 82 102
103 89 26 8 13 17 17 11 16 8 56 106 102 115 112 102
96 107 108 92 30 37 0 0 0 0 0 0 0 0 12 24
6 7 8 10 11 9 3 9 51 21 15 10 0 0 0 0
0 0 0 0 2 0 0 0 0 0 0 0 0 3 5 4
11 20 51 80 40 2 0 0 0 0 19 105 104 2 1 50
73 88 90 90 94 99 101 105 110 113 113 115 116 118 113 114
108 108 101 98 93 90 83 82 79 79 85 87 92 98 102 103
107 108 104 92 72 67 57 27 23 20 18 0 0 0 1 5
12 34 67 73 47 29 32 36 61 81 112 116 103 112 110 105
99 105 107 86 3 1 0 0 0 1 0 3 4 4 8 17
31 35 39 42 45 34 1 47 46 2 7 14 6 0 0 0
0 0 0 0 1 0 1 0 0 0 0 0 4 11 13 8
10 30 69 57 16 0 0 0 0 4 59 115 58 0 23 71
81 89 93 92 94 100 103 107 110 114 116 115 118 120 118 116
116 116 109 103 97 92 88 83 80 75 75 75 81 87 94 94
96 96 91 76 65 60 46 21 25 21 19 10 13 16 18 16
14 11 10 29 63 65 65 84 76 47 45 60 70 76 75 75
76 77 78 65 29 27 29 24 20 17 5 12 8 6 3 0
57 56 57 56 58 54 13 58 12 0 1 13 18 7 0 0
0 0 0 0 0 1 4 4 2 1 1 0 4 12 15 13
6 44 69 25 0 3 13 4 0 39 83 101 22 0 55 78
88 91 94 94 96 99 103 107 111 114 117 118 116 120 122 124
121 117 113 105 101 95 88 83 79 77 71 70 68 71 80 83
82 83 73 62 57 47 33 42 33 22 27 34 44 56 74 82
93 85 66 56 65 93 101 100 121 139 147 150 143 122 88 76
62 47 43 35 28 23 23 18 14 8 3 4 4 3 1 0
58 56 56 56 53 46 22 34 0 0 0 7 25 4 0 0
0 0 4 5 3 3 7 8 6 5 4 3 8 18 23 18
5 58 66 15 19 35 45 17 3 62 94 95 11 6 76 85
93 93 96 96 94 99 105 110 112 114 116 118 118 118 121 123
119 115 113 108 103 94 86 78 74 74 71 63 60 54 52 56
59 60 50 46 41 19 20 35 56 64 73 81 102 130 150 151
151 136 100 82 73 73 79 94 138 151 151 130 151 137 91 68
47 36 32 26 21 17 20 17 15 10 5 2 4 2 1 0
25 21 17 11 5 2 4 21 0 3 0 5 3 0 0 0
1 5 6 13 13 12 11 10 12 14 19 23 26 25 23 11
11 62 43 17 39 44 48 41 42 61 115 108 17 18 88 95
98 98 98 98 99 99 107 110 114 115 116 115 119 117 117 121
121 117 114 107 103 95 86 73 65 58 54 53 50 43 35 30
25 18 26 55 36 31 36 54 45 75 81 80 43 74 121 150
152 118 79 76 66 67 73 95 141 152 152 143 151 141 103 75
50 42 32 27 22 20 21 18 16 10 7 1 4 3 2 1
0 0 0 0 0 0 5 15 1 6 3 0 0 0 0 0
1 4 5 10 11 12 11 13 14 17 26 31 30 20 16 2
20 69 31 4 38 68 66 72 59 84 115 104 23 28 94 102
104 102 101 100 101 103 107 111 116 115 117 117 117 119 116 116
117 117 113 107 102 93 79 65 52 41 32 24 21 14 11 6
0 0 14 52 39 52 29 56 56 59 47 66 49 71 75 72
137 117 81 73 67 66 71 96 140 153 152 121 153 144 103 74
52 42 35 29 23 20 21 19 18 12 9 2 7 5 3 2
6 0 0 0 0 1 9 19 12 14 2 0 0 0 0 0
0 0 6 7 7 6 6 7 9 13 24 31 26 4 1 0
28 71 32 37 75 89 82 63 62 92 114 86 38 35 97 106
105 106 103 103 104 108 110 110 113 118 118 118 117 117 116 111
111 113 114 109 104 93 80 65 52 40 23 12 9 9 20 9
4 0 8 53 56 56 32 39 45 76 66 64 52 95 61 49
86 94 82 72 64 59 73 96 133 153 152 114 153 144 101 72
53 41 34 27 23 21 20 21 19 13 9 2 6 5 3 1
5 12 4 1 4 5 11 16 6 6 0 0 0 0 0 0
0 1 4 4 5 4 5 7 8 13 24 31 21 1 0 0
31 77 74 64 89 84 67 69 77 86 107 57 45 40 96 110
109 107 105 105 105 107 111 110 112 117 120 121 118 115 114 111
103 102 107 104 98 88 78 65 59 57 47 39 36 35 39 6
24 1 6 42 51 34 41 39 66 66 67 65 56 66 47 49
67 54 63 71 59 62 75 97 134 153 152 113 152 147 105 75
57 42 34 27 25 20 21 22 19 12 9 3 6 5 2 1
3 9 31 8 0 0 12 16 1 1 0 0 0 0 1 0
0 0 1 3 4 5 8 8 8 12 23 31 20 10 6 0
38 97 102 85 45 55 92 63 78 87 125 68 38 46 88 118
110 108 108 108 108 107 111 114 113 114 118 120 121 117 112 110
105 98 95 95 88 79 68 62 60 66 73 69 60 54 41 3
33 5 14 80 86 26 40 35 36 52 41 26 49 51 34 55
59 53 31 42 52 75 75 88 132 153 152 111 150 149 110 77
57 43 31 26 24 18 20 23 19 14 10 4 5 5 1 0
1 0 9 13 1 2 17 9 0 0 0 0 0 2 2 0
0 0 2 10 3 6 10 11 11 16 29 35 25 23 17 18
64 42 43 53 58 74 100 56 61 103 128 81 71 57 84 120
116 111 112 110 110 109 112 113 116 113 116 120 121 120 116 112
107 100 91 82 72 64 62 63 74 79 80 74 66 58 39 9
57 33 31 71 79 45 39 60 34 43 89 58 45 48 56 30
47 35 38 56 76 71 51 69 98 138 153 108 148 144 103 74
59 44 27 22 20 17 20 23 19 13 10 4 6 4 3 0
0 0 0 0 5 3 0 0 0 0 0 0 0 0 4 0
1 0 10 17 5 7 10 11 19 39 41 38 32 27 49 103
89 90 77 93 120 92 67 53 57 93 95 64 57 65 77 122
120 116 116 113 112 112 112 112 115 115 114 116 117 117 117 114
110 101 92 82 72 67 68 75 83 83 80 75 67 59 35 10
44 25 59 69 76 47 18 27 48 49 78 95 108 67 66 36
66 85 65 44 64 70 79 100 122 111 108 100 146 139 104 76
56 41 28 20 18 15 19 24 20 14 10 5 6 4 1 0
2 0 0 2 10 5 1 3 5 3 1 0 0 0 0 0
0 0 11 20 5 6 10 7 16 38 39 36 38 73 99 97
91 112 103 114 118 100 68 78 71 80 134 76 52 74 73 121
122 123 119 120 114 112 111 113 114 114 115 113 117 117 116 115
112 108 98 87 77 75 82 91 95 90 82 75 70 60 31 39
70 41 58 46 76 54 23 22 56 29 42 53 59 70 94 64
73 75 52 62 76 70 74 95 109 92 101 93 126 136 105 76
53 36 27 23 18 12 15 22 20 14 11 7 5 2 0 0
4 3 2 4 8 11 12 12 13 13 2 3 0 0 0 0
0 0 9 23 13 12 13 9 9 19 45 70 89 68 79 104
107 63 93 104 111 58 38 54 43 71 120 80 51 59 68 113
128 128 126 124 119 114 114 113 113 112 115 116 114 115 115 112
112 107 101 96 87 90 96 100 97 91 82 78 71 68 26 65
65 31 65 58 51 45 48 24 38 26 37 70 72 89 110 45
52 41 32 46 98 77 97 111 93 79 102 72 76 97 106 77
54 34 32 26 17 10 16 23 20 14 11 9 5 2 0 0
12 12 9 8 10 14 14 15 20 21 5 3 2 0 0 0
0 0 11 25 34 26 14 5 19 58 58 69 109 94 97 105
83 89 59 51 108 68 75 70 59 77 90 64 54 66 86 96
133 131 129 128 124 118 117 116 112 113 114 115 117 116 115 113
110 105 100 93 90 94 103 104 100 89 84 79 73 74 25 67
57 56 87 76 84 51 37 22 19 43 42 69 67 75 71 17
27 40 45 52 56 50 87 80 68 55 67 57 59 72 71 77
54 38 34 27 17 12 16 24 20 14 10 8 5 2 0 0
5 18 14 7 8 7 6 8 9 6 1 4 8 1 1 0
0 0 0 3 21 3 13 61 78 66 51 55 90 85 94 110
117 113 83 64 76 47 85 95 56 68 119 90 64 57 96 88
124 136 134 132 128 123 119 117 112 112 114 116 116 117 115 112
108 105 99 98 100 109 114 109 99 94 87 78 80 77 42 69
81 57 84 78 95 83 48 29 17 27 24 87 44 49 52 35
70 55 43 60 77 82 107 115 99 100 70 60 49 78 62 63
53 38 31 24 19 13 18 22 19 12 11 8 5 2 1 0
0 1 2 0 0 0 0 0 0 0 0 13 12 0 10 0
0 0 0 0 13 43 68 52 78 89 66 60 113 98 90 107
114 90 54 78 54 58 84 90 56 80 100 82 42 56 91 97
103 140 142 138 133 126 123 118 113 112 111 114 116 117 113 110
108 106 105 105 110 116 116 109 101 94 86 84 94 78 58 102
94 62 90 60 57 70 45 13 16 15 31 77 81 80 92 52
70 60 42 110 96 82 106 94 84 108 103 80 87 46 48 52
47 33 29 22 19 14 20 24 20 14 11 7 5 2 0 0
0 0 0 0 0 0 0 0 0 0 0 12 9 6 17 0
0 0 0 29 90 120 103 48 72 64 56 67 85 64 67 81
82 89 40 63 31 45 58 74 55 68 65 66 67 61 75 86
94 132 144 142 136 134 128 122 117 115 113 116 118 117 114 111
111 109 108 110 116 120 117 107 101 95 92 96 104 71 72 100
101 70 82 48 66 85 39 33 29 29 26 47 82 77 89 46
58 65 40 62 58 59 93 99 105 104 132 84 92 52 59 57
47 34 27 21 20 15 19 24 22 14 13 6 5 3 1 0
0 0 0 0 0 0 0 0 0 0 0 2 3 3 1 0
0 0 34 110 110 84 72 37 40 72 57 29 82 104 95 112
126 120 67 81 67 66 73 51 44 64 103 119 75 60 39 58
84 111 145 144 143 136 132 125 119 117 116 117 118 119 117 117
116 115 115 120 124 123 116 107 103 97 99 103 106 72 77 105
86 50 90 75 92 105 55 42 29 16 16 48 75 86 94 50
67 64 29 64 47 40 52 73 79 76 78 76 67 41 62 70
60 57 26 20 20 16 18 24 22 14 13 4 5 2 1 0
0 0 0 0 0 0 0 0 0 0 0 0 0 0 0 0
0 27 78 86 79 66 95 82 76 103 79 54 106 94 74 106
136 95 73 78 69 84 90 70 96 89 93 101 63 47 54 76
84 98 131 148 145 141 135 126 123 118 118 120 122 122 123 121
120 118 123 126 128 124 113 108 104 103 106 108 106 70 81 94
93 68 102 79 104 114 77 26 41 66 53 80 49 55 55 18
23 35 31 75 90 95 88 59 53 64 89 49 38 63 68 64
66 54 35 23 19 13 18 24 21 14 13 3 5 2 1 0
0 0 0 0 0 0 0 0 0 0 0 0 0 0 0 0
11 72 81 120 105 100 117 90 56 86 85 56 94 105 72 94
120 105 70 39 56 71 53 48 95 88 86 71 60 55 58 76
88 81 112 146 150 144 137 130 124 121 121 122 126 125 124 125
124 124 130 134 133 124 113 110 108 109 111 111 96 67 98 110
61 62 105 78 46 71 81 51 45 65 54 63 67 71 98 49
53 66 43 87 83 92 92 86 99 107 106 33 10 44 67 48
53 58 55 25 19 14 16 23 22 15 14 3 6 1 0 0
0 0 0 0 0 0 0 0 0 0 0 0 0 0 0 8
70 109 120 122 106 91 99 110 63 75 103 60 73 98 84 93
119 91 83 71 99 103 77 95 106 74 76 85 85 81 60 40
44 65 80 130 150 147 143 135 132 127 123 126 130 128 127 128
127 130 135 135 133 121 114 111 113 113 114 109 95 62 103 97
50 47 94 54 0 2 51 58 48 64 60 46 77 82 106 53
54 66 53 54 51 59 106 93 77 95 112 39 53 37 33 52
45 50 52 29 18 15 15 22 22 15 14 3 6 2 0 0
0 0 0 0 0 0 0 0 0 0 0 0 0 0 1 53
108 123 113 100 70 85 90 89 25 39 57 35 36 67 48 62
88 50 90 80 95 95 87 102 116 99 113 112 125 76 60 56
55 95 86 98 132 146 146 144 142 136 132 129 135 131 131 131
133 136 137 137 133 121 115 114 116 119 117 103 90 65 92 88
52 27 41 26 0 0 2 39 58 29 45 39 84 70 77 31
67 70 29 92 103 83 83 75 52 68 79 30 66 84 53 23
65 47 49 42 18 15 16 22 22 14 14 3 6 2 0 0
0 0 0 0 0 0 0 0 0 0 0 0 0 0 43 98
121 136 123 82 72 39 39 60 56 53 53 72 75 86 61 61
106 69 90 82 88 93 92 106 105 111 126 116 115 76 80 55
81 79 97 70 98 122 142 142 145 144 138 136 137 135 134 134
135 138 138 136 129 120 117 119 122 122 107 94 52 51 65 62
41 50 72 40 30 9 0 0 14 33 47 52 126 86 105 33
47 56 51 91 80 115 110 93 81 110 108 26 81 85 56 22
60 93 77 76 24 15 18 21 22 14 14 2 6 2 0 0
0 0 0 0 0 0 0 0 0 0 0 0 0 9 92 98
109 77 73 104 89 85 104 109 80 58 74 84 66 76 70 110
108 64 67 70 68 45 79 97 82 121 132 103 27 35 53 54
65 93 91 76 90 110 118 141 140 143 143 139 139 137 136 134
135 136 135 133 127 120 120 120 124 118 79 69 70 47 72 76
73 54 45 43 61 50 27 18 6 12 37 47 135 97 111 50
82 98 59 97 69 86 96 92 92 109 114 32 34 62 55 58
46 69 74 87 42 14 15 22 23 15 14 2 6 2 0 0
0 0 0 0 0 0 0 0 0 0 0 0 4 48 108 90
58 82 103 102 79 78 100 100 93 53 65 90 61 72 71 111
100 52 63 89 84 56 74 76 44 52 62 24 0 5 50 45
45 65 53 74 92 103 78 124 142 143 145 142 140 138 137 135
133 136 132 129 124 118 119 122 121 94 60 70 68 36 66 60
56 64 32 38 55 48 40 63 43 54 45 35 128 101 99 51
90 100 65 109 89 102 82 103 99 126 99 71 64 40 36 78
43 37 77 64 41 15 16 22 22 15 13 3 7 2 0 0
0 0 0 0 0 0 0 4 8 0 0 0 17 66 87 81
82 116 120 94 93 56 52 64 60 32 47 42 43 61 46 82
85 44 68 96 65 26 19 31 9 32 48 53 26 38 66 66
62 101 87 81 85 121 98 106 129 146 147 146 142 140 135 134
133 131 131 124 121 121 119 119 96 76 39 45 51 33 37 42
53 48 18 32 47 45 34 58 76 80 104 92 111 94 99 38
76 84 61 101 88 113 118 135 116 131 96 77 66 60 31 78
63 74 67 81 65 27 14 20 22 15 13 3 7 3 1 0
0 0 0 0 0 0 0 2 8 0 0 1 53 63 49 87
112 103 94 80 120 101 59 95 87 59 89 72 88 79 77 72
102 71 65 74 72 38 50 79 52 39 67 76 52 41 47 53
57 75 97 77 79 111 82 92 115 125 137 145 142 140 138 134
130 133 131 125 123 122 120 99 81 67 61 45 58 53 57 59
60 61 29 45 55 53 35 46 81 70 104 76 98 96 87 40
53 66 68 109 87 113 122 113 94 97 81 79 73 50 88 69
83 92 60 55 84 55 13 21 20 15 12 3 6 2 0 0
0 0 0 0 0 0 0 0 0 0 0 11 68 73 25 94
99 88 66 129 138 114 68 67 93 73 85 87 82 73 94 93
132 79 54 80 84 84 90 110 74 45 68 70 53 38 49 34
55 70 62 48 40 71 93 59 49 60 84 123 135 139 136 133
130 132 128 126 123 123 113 82 71 103 78 65 91 78 66 30
36 48 29 63 77 78 61 80 104 71 81 92 101 105 95 42
67 66 79 115 98 119 129 113 98 131 75 67 54 60 95 86
60 76 58 47 78 79 20 19 20 14 12 3 5 3 0 0
0 0 0 0 0 0 0 0 0 0 0 39 89 48 47 64
98 90 93 117 126 124 103 75 82 80 75 73 74 58 97 85
126 131 53 88 98 100 95 115 85 50 55 58 51 40 74 48
68 92 98 86 58 79 68 33 14 43 55 99 106 117 136 135
134 132 131 130 127 122 92 70 91 37 7 18 67 66 59 32
36 33 28 68 96 92 65 96 114 100 123 100 105 113 86 62
93 61 101 107 88 122 134 110 110 132 67 55 52 77 91 84
119 56 49 49 43 64 25 18 20 15 12 4 5 3 0 0
0 0 0 0 0 0 0 0 0 0 4 72 77 53 66 48
49 117 113 105 133 108 105 99 103 86 73 64 73 52 103 97
130 119 64 88 99 115 103 94 81 49 68 68 76 45 69 77
84 94 114 94 94 103 116 92 52 63 37 93 106 106 131 135
134 131 129 130 124 109 81 82 55 46 55 54 75 61 56 55
73 78 34 66 84 85 64 92 103 90 132 104 82 100 96 68
82 59 94 105 83 116 124 125 110 89 73 69 39 91 88 88
102 57 47 65 65 48 27 17 19 15 12 4 5 3 0 0
