P2
128 120
156
30 68 72 67 63 61 60 62 63 65 66 71 74 55 50 48
48 47 48 47 47 47 46 46 46 46 45 44 44 44 44 43
43 41 42 41 41 40 39 39 39 38 38 37 37 36 35 35
34 34 33 33 33 32 31 31 30 30 30 29 28 28 28 27
26 26 25 25 25 25 26 30 30 29 28 22 19 18 30 28
27 26 26 25 26 23 23 23 21 21 22 25 25 26 27 27
28 27 27 28 28 29 29 29 28 29 29 29 30 31 31 31
32 32 33 33 33 34 35 35 35 35 35 36 37 37 37 37
25 58 62 28 5 7 9 11 11 10 8 42 69 66 70 64
57 49 47 46 46 46 46 46 46 45 45 44 44 44 43 43
42 42 41 41 40 41 40 39 38 38 38 37 36 36 35 35
34 33 33 33 32 32 32 31 30 30 30 29 29 28 27 26
26 25 25 25 25 25 27 30 29 30 29 22 19 18 28 28
27 26 26 25 25 24 23 23 22 21 24 26 26 27 27 27
27 28 28 28 28 27 28 28 29 29 30 30 30 32 32 32
31 32 33 33 34 34 35 35 35 35 36 37 37 38 37 37
21 53 57 27 0 0 0 10 1 0 0 30 66 59 62 55
55 50 51 58 59 60 56 51 47 45 45 44 44 44 44 43
43 42 41 41 41 40 40 39 39 39 38 37 37 37 36 35
35 35 34 33 32 32 32 31 30 30 30 30 29 29 28 27
27 26 27 26 25 25 28 31 30 30 30 23 21 21 28 29
28 28 27 26 26 25 24 24 22 21 24 27 26 26 27 27
28 27 27 28 28 29 30 30 30 30 31 31 32 32 32 32
32 33 34 34 34 35 35 35 36 36 36 37 37 38 38 38
17 53 56 29 0 0 0 15 6 0 0 22 64 59 57 12
8 20 32 44 53 58 61 62 50 45 45 44 44 44 43 43
42 41 41 41 41 40 40 39 39 39 38 38 37 37 36 36
35 35 34 33 33 33 32 31 31 31 31 30 29 28 28 28
27 26 26 25 25 26 27 31 31 31 31 24 22 23 26 29
28 27 27 26 26 26 25 25 24 22 25 27 28 27 27 27
29 28 29 29 29 29 30 29 30 31 31 31 32 32 33 32
33 34 34 34 35 34 35 35 36 36 37 37 37 38 38 37
15 51 57 31 0 0 0 4 1 0 0 16 63 60 54 10
0 0 0 0 3 7 34 61 51 44 44 43 44 43 43 43
42 42 42 42 41 40 40 39 39 38 38 37 37 36 36 36
35 35 35 34 34 33 33 32 32 31 31 30 30 29 29 28
27 27 27 26 26 26 28 31 31 31 30 24 22 24 24 29
29 29 28 26 27 27 25 25 24 21 22 26 27 27 28 28
29 29 29 30 30 30 31 31 30 31 31 31 32 31 33 32
33 33 34 34 35 35 35 36 36 36 37 37 37 38 38 38
12 48 56 35 0 2 8 12 9 0 3 11 60 58 53 10
0 0 0 0 0 0 23 62 52 44 45 45 44 44 43 43
43 42 41 41 40 40 40 39 40 39 39 38 38 37 37 36
35 35 34 34 34 33 32 32 32 32 31 31 31 30 30 28
28 27 27 27 26 27 28 32 32 32 31 25 23 27 24 30
29 28 28 26 28 27 25 25 24 21 26 28 28 29 29 30
30 29 30 30 30 30 30 30 31 31 31 32 32 32 33 33
33 34 34 34 34 35 35 36 36 36 36 37 37 38 39 38
11 47 58 47 0 20 12 0 2 0 4 7 58 57 52 11
0 0 7 1 0 0 22 60 51 44 44 43 43 43 42 43
42 42 42 41 41 40 40 39 39 39 38 38 37 36 37 36
35 35 34 35 34 34 33 32 32 31 31 30 30 29 29 28
28 27 28 26 27 27 29 32 33 32 32 25 23 29 23 31
30 29 28 27 27 28 26 25 25 22 27 28 29 28 29 29
30 30 30 30 30 31 31 31 32 32 32 32 33 33 33 33
34 34 35 34 35 35 36 36 36 36 37 36 35 36 36 37
14 48 60 53 1 21 6 0 4 0 3 4 58 60 55 12
0 12 17 6 0 0 19 59 51 44 45 43 44 43 43 43
42 42 41 41 40 40 40 39 40 39 38 37 37 37 37 37
36 36 35 35 34 34 33 32 33 33 32 31 31 31 30 29
29 28 27 27 27 27 28 32 33 32 32 25 23 30 23 30
30 29 29 28 27 28 26 26 26 22 27 28 29 29 30 30
31 30 30 31 31 31 30 31 32 32 33 33 33 34 34 35
35 34 35 35 35 35 36 35 35 36 36 37 38 38 38 38
17 46 58 59 12 15 5 0 0 0 5 5 53 59 55 12
0 7 10 5 0 0 19 59 51 44 44 44 43 43 43 43
42 42 42 42 41 40 40 40 39 39 38 38 38 37 37 36
36 36 35 35 35 34 34 33 33 33 32 32 31 31 30 29
29 29 28 29 28 28 29 34 34 33 33 25 23 31 22 30
29 30 30 29 28 29 27 27 26 22 28 29 30 29 30 30
31 30 31 32 32 31 32 32 33 33 34 33 33 34 35 34
34 34 34 34 35 35 36 37 37 38 39 38 38 39 38 38
25 44 53 58 14 13 3 3 0 0 0 4 49 59 54 13
0 2 6 10 2 0 19 59 50 44 44 45 44 43 43 43
43 43 42 42 41 41 40 40 40 40 39 39 39 38 37 37
36 35 36 36 35 34 34 34 34 34 33 32 32 32 31 31
31 30 30 29 29 29 30 34 34 34 34 27 24 33 24 31
32 31 31 30 28 29 27 28 27 23 28 29 31 31 31 31
32 33 33 33 33 33 33 34 33 34 34 34 35 35 34 34
35 35 36 36 36 37 39 38 38 38 39 38 39 40 40 40
58 44 45 51 17 13 5 9 8 6 9 11 44 56 57 16
0 2 7 14 5 0 19 59 50 44 45 44 43 43 43 43
43 42 42 42 42 42 41 41 40 40 39 39 39 38 37 37
37 36 36 36 36 36 35 35 34 34 34 33 32 32 32 31
30 31 29 29 29 29 30 35 36 35 34 28 24 33 24 31
32 31 31 30 29 29 28 28 28 24 29 30 32 32 32 32
33 32 33 33 33 33 34 34 34 34 34 34 35 35 36 35
36 37 37 37 37 37 39 39 39 39 39 40 40 39 39 39
55 46 42 44 41 41 44 46 44 44 45 43 42 49 59 18
0 2 7 7 9 4 19 58 50 44 45 45 44 44 44 43
43 43 43 43 42 42 41 41 41 40 40 40 40 40 39 39
38 38 37 37 36 36 36 35 35 35 35 34 34 33 33 32
32 31 30 30 30 30 31 35 36 36 34 28 25 34 28 31
33 33 32 32 30 29 29 30 28 24 30 31 33 34 33 34
35 33 35 34 34 34 33 34 35 35 35 36 36 36 36 37
37 37 38 38 38 39 40 39 40 39 40 40 40 40 40 40
27 29 32 34 35 33 32 33 32 32 34 33 34 40 52 34
18 14 10 8 10 15 32 60 51 45 45 45 45 44 44 43
44 43 43 43 43 42 42 42 42 41 41 40 40 39 39 38
37 37 37 37 36 36 34 35 35 35 36 35 34 34 33 32
32 31 30 31 31 31 31 36 36 37 36 29 25 35 30 29
33 33 32 32 31 31 30 30 29 26 31 31 33 34 33 33
33 33 34 34 33 34 34 36 36 35 36 36 36 36 36 37
37 37 38 38 39 39 40 39 40 40 40 41 40 40 40 40
22 22 22 23 23 24 25 26 30 36 41 44 46 38 39 41
43 43 43 42 38 35 41 56 49 45 45 44 45 44 44 44
44 44 43 43 42 42 42 42 41 40 40 40 40 40 40 38
37 37 37 37 35 33 30 33 34 34 34 33 33 33 33 31
32 31 30 29 29 31 31 35 37 36 36 30 25 33 33 29
34 34 33 32 31 30 30 30 30 25 31 29 33 33 33 33
33 34 34 35 35 35 36 35 36 35 36 37 36 36 37 37
38 38 38 38 40 39 40 39 39 40 40 40 40 40 40 40
21 21 21 21 21 21 21 21 21 22 23 24 26 26 26 27
30 33 36 39 42 45 46 47 46 45 44 44 44 44 44 44
43 43 43 43 43 42 42 41 41 41 41 40 40 39 39 38
37 35 34 35 35 33 33 34 34 32 33 34 34 32 31 31
32 30 29 27 26 28 29 34 35 34 34 30 26 34 35 26
34 34 33 32 31 31 30 30 30 25 31 31 34 34 34 34
34 34 34 35 35 35 36 36 37 36 36 36 37 37 37 38
39 38 38 39 39 39 40 40 40 40 40 40 41 40 40 41
38 32 25 26 23 19 20 20 20 21 21 22 22 22 21 20
22 23 25 27 31 35 39 43 45 46 46 45 45 45 45 44
43 43 43 43 42 42 42 41 41 41 41 39 39 39 40 39
38 34 38 37 34 34 34 32 32 30 32 31 29 27 29 30
26 24 22 20 18 19 20 24 26 29 31 26 22 31 35 26
34 35 34 33 32 31 31 31 31 27 32 32 35 34 34 35
35 35 35 35 36 36 36 37 37 35 36 37 37 37 37 38
38 39 39 39 39 40 40 41 40 40 41 41 41 41 41 40
37 41 47 34 42 34 30 25 26 32 30 28 26 23 21 20
20 20 19 20 21 20 22 23 27 31 36 39 42 44 45 45
44 43 42 42 42 42 42 41 41 41 41 41 40 39 39 38
37 35 34 34 31 30 31 29 31 28 30 30 30 32 29 22
16 11 6 6 7 5 9 16 19 21 24 22 20 27 31 23
33 34 34 33 32 31 31 31 31 28 32 32 35 35 35 34
35 35 35 36 35 36 36 36 37 37 37 37 37 37 38 38
39 38 39 39 40 39 40 40 40 39 41 41 40 40 39 39
26 26 36 38 54 51 52 49 42 41 42 44 49 61 51 23
21 20 20 21 20 19 21 20 19 21 20 20 23 24 27 32
36 42 43 43 43 42 42 41 41 41 41 40 40 40 39 36
36 36 34 31 30 31 28 29 27 27 27 25 29 27 18 9
2 1 0 0 0 0 0 0 3 8 14 13 10 20 33 22
28 33 34 33 33 32 32 31 32 28 32 31 34 35 35 35
36 36 36 36 36 36 37 37 38 37 37 37 37 37 38 37
38 39 39 39 41 40 40 40 39 39 40 40 40 39 41 40
22 21 23 24 47 15 2 3 13 41 40 41 47 65 65 52
46 41 39 39 35 31 28 22 21 20 21 21 20 21 14 11
20 38 42 42 42 41 41 41 41 42 41 41 40 39 39 35
35 33 30 30 26 27 24 23 21 17 18 19 19 14 9 0
0 0 0 0 0 0 0 0 0 0 3 6 10 19 22 23
25 32 34 34 33 32 32 32 31 28 32 32 35 35 35 35
36 36 36 36 36 36 37 37 38 37 37 37 37 37 39 38
39 39 38 39 39 38 39 38 39 39 39 39 39 40 40 41
23 22 23 24 46 15 0 0 10 42 39 42 48 60 63 62
62 58 51 61 59 56 51 27 33 31 26 20 19 19 19 18
20 38 43 42 42 42 41 40 41 41 41 40 39 39 36 35
34 28 29 29 21 19 14 9 6 6 3 6 10 5 0 0
0 0 0 0 0 0 0 0 0 0 0 0 1 3 11 12
21 27 34 33 33 33 32 32 33 30 32 32 35 35 35 36
36 36 36 36 37 37 37 37 39 38 38 38 37 37 38 38
38 38 38 38 39 38 39 39 40 39 40 40 40 39 40 41
25 25 24 25 50 18 0 0 5 17 18 20 34 56 61 63
64 56 55 57 60 60 55 35 43 49 48 44 46 40 28 17
20 37 43 43 43 42 41 50 49 47 46 42 40 37 36 33
28 23 21 14 6 1 0 0 0 0 0 0 4 0 0 0
0 0 0 0 0 0 0 0 0 0 0 0 0 1 2 3
15 26 32 33 33 33 33 33 32 31 32 32 35 36 36 37
37 37 37 37 37 37 37 37 37 37 36 37 38 38 39 40
38 38 39 40 40 39 40 39 38 39 40 40 40 39 39 41
17 23 22 24 52 19 0 1 10 13 4 0 20 58 56 27
37 37 43 48 56 59 57 42 48 52 51 51 58 57 47 19
22 38 43 43 43 42 43 54 54 53 49 46 44 43 34 25
17 9 4 1 1 0 0 0 0 0 0 0 0 0 0 0
0 0 0 0 0 0 1 0 0 0 0 0 0 0 0 0
2 15 29 33 34 34 33 33 33 31 33 32 37 36 37 37
37 37 37 36 37 37 37 37 38 38 38 39 38 38 39 40
39 39 39 39 40 40 40 40 40 39 40 40 39 40 40 42
0 5 6 8 51 18 1 4 22 34 4 2 21 59 55 6
12 5 1 4 10 14 48 45 49 53 54 57 59 59 53 20
22 42 46 45 44 43 43 54 55 52 49 47 45 39 22 14
3 0 1 0 0 0 0 0 0 0 0 0 0 0 0 0
0 0 0 0 0 0 0 0 0 0 0 0 0 0 1 0
0 3 22 32 34 35 34 33 34 32 32 32 37 37 37 37
37 37 37 38 37 37 38 38 38 37 38 38 38 38 39 40
39 39 40 40 40 40 40 40 40 40 40 40 40 40 41 43
0 0 1 8 53 21 10 16 28 44 31 3 19 61 56 6
0 1 0 2 14 5 45 46 50 51 55 56 57 58 54 23
23 44 48 45 46 46 46 45 31 41 46 40 38 25 7 1
0 1 0 0 0 0 0 0 0 0 0 0 0 0 0 0
0 0 0 0 0 0 0 0 1 0 0 0 0 0 0 0
0 2 6 29 32 35 33 34 34 32 33 33 36 37 37 38
37 38 39 38 38 38 38 38 39 38 38 38 39 39 39 40
39 40 40 40 40 40 40 41 40 41 41 40 40 41 41 42
0 0 0 5 55 24 8 22 38 35 24 17 13 62 59 10
0 1 0 11 23 12 45 33 28 38 47 54 55 55 53 24
24 43 49 41 41 48 52 41 0 2 17 24 20 6 2 0
1 1 0 0 0 0 0 0 0 0 0 0 0 0 0 0
0 0 0 0 0 0 0 0 0 1 1 0 0 0 0 0
0 4 1 16 33 33 34 35 34 33 32 33 37 38 38 38
39 40 39 40 39 39 39 39 39 39 39 39 39 38 39 39
41 39 40 40 40 40 40 41 41 40 40 41 41 40 40 42
1 1 0 7 57 25 1 13 32 34 22 9 11 60 61 13
0 2 0 8 18 12 46 22 0 5 10 13 21 23 49 26
22 36 46 48 47 50 56 44 0 0 9 11 5 0 0 1
1 3 0 0 0 0 0 0 0 0 0 0 0 0 0 0
0 0 0 0 0 0 0 0 0 0 1 1 0 0 0 0
0 1 0 2 25 34 34 34 34 34 32 35 38 39 39 39
39 40 39 39 39 38 38 38 38 39 39 39 39 40 39 40
41 40 41 40 40 40 40 41 41 40 41 41 41 41 41 42
3 3 1 7 58 29 0 0 4 11 2 0 9 61 64 16
0 1 0 1 0 1 45 23 0 0 0 0 0 0 42 27
21 6 6 14 25 37 46 40 2 0 5 1 2 1 1 3
3 0 0 0 0 0 0 0 0 0 0 0 0 0 0 0
0 0 0 0 0 0 0 0 0 0 0 3 4 0 0 0
0 2 7 5 19 34 35 35 35 34 32 35 38 39 39 39
39 40 39 39 39 39 39 39 39 39 39 40 40 39 40 41
41 40 41 41 41 41 41 42 42 41 41 41 42 41 42 42
0 0 0 4 46 31 0 0 0 0 0 0 7 60 64 19
0 1 0 11 0 0 46 20 5 0 5 0 0 1 42 27
20 3 0 0 0 0 2 18 3 0 2 1 0 0 1 1
0 0 0 0 0 0 0 0 0 0 0 0 0 0 0 0
0 0 0 0 0 0 0 0 0 1 2 2 3 2 0 0
0 1 0 8 17 29 33 35 35 34 31 35 37 40 40 40
40 41 39 39 39 39 39 39 39 39 40 40 40 40 40 41
41 41 41 41 42 41 42 41 41 41 41 41 41 41 41 42
0 1 1 6 47 32 0 0 0 0 0 0 5 59 65 25
0 17 15 28 3 0 45 22 5 2 18 8 0 0 41 27
20 3 0 0 0 0 0 13 3 2 2 1 0 0 1 0
0 0 0 0 0 0 0 0 0 0 0 0 0 0 0 0
0 0 0 0 0 0 0 0 2 1 0 4 1 1 0 0
0 0 0 0 3 22 34 34 35 34 31 36 38 39 39 39
39 39 39 38 40 40 40 40 40 40 40 40 40 41 42 41
42 40 41 41 41 42 42 41 41 42 42 42 42 42 42 43
1 1 0 7 50 42 21 18 17 16 13 11 14 60 66 31
2 1 2 8 3 0 44 23 5 3 10 18 0 0 40 28
21 3 0 0 0 0 0 10 4 2 0 0 0 0 1 0
0 0 0 0 0 0 0 0 0 0 0 0 0 0 0 1
0 0 0 0 0 0 0 0 1 0 0 0 0 1 2 0
0 0 0 0 1 4 28 33 35 35 31 37 38 40 40 40
40 40 40 40 39 39 39 39 40 40 40 40 41 41 42 41
42 41 41 41 41 42 42 42 42 42 41 41 42 42 42 42
1 1 0 6 47 60 60 57 54 51 48 43 41 46 49 20
1 4 12 5 0 0 42 20 3 4 0 4 0 0 41 26
20 4 0 1 12 3 0 5 2 0 0 0 0 0 0 0
0 0 0 0 0 0 0 0 0 0 0 0 0 4 8 10
4 0 0 0 0 0 0 0 0 0 0 1 0 0 3 0
0 0 0 0 0 8 14 29 34 35 32 37 38 39 39 40
39 40 39 40 40 40 41 40 41 41 40 41 40 40 41 40
41 41 41 41 41 42 42 43 42 42 43 43 42 42 42 42
0 0 0 3 54 59 44 46 44 47 53 53 44 31 29 6
2 1 9 4 0 0 41 18 0 8 1 0 0 0 41 27
21 5 11 8 6 1 1 4 1 0 0 0 0 2 1 0
0 0 0 0 0 0 0 0 0 0 0 0 1 9 18 25
14 5 3 0 0 0 0 0 0 0 0 0 2 1 0 1
0 0 0 0 0 7 18 22 31 35 31 36 36 40 39 40
41 41 41 41 41 40 41 41 41 41 41 41 41 41 41 41
40 41 41 42 43 43 43 43 42 42 42 42 42 43 43 43
0 0 0 3 57 44 0 1 3 7 14 21 35 46 41 50
48 42 40 34 25 21 46 23 2 5 2 1 0 0 41 27
21 8 11 0 2 3 1 5 5 1 0 0 0 0 0 0
0 0 0 0 0 0 0 0 0 0 0 0 0 11 22 25
15 7 2 0 0 0 0 0 0 0 0 0 0 0 1 0
0 0 0 0 0 1 16 24 29 33 30 37 36 41 40 39
40 40 40 41 41 41 41 41 41 42 41 41 42 42 42 41
41 42 42 43 43 42 43 43 43 43 42 41 40 40 40 40
0 0 0 3 54 46 2 0 0 1 0 0 7 58 53 29
34 38 48 53 56 57 50 61 45 33 40 38 35 31 45 26
21 9 2 0 0 1 3 6 2 0 0 0 0 0 0 0
0 0 0 0 0 0 0 0 0 0 0 0 1 7 26 26
18 11 4 1 4 3 0 0 0 0 0 0 2 0 0 0
2 0 0 0 0 0 3 16 25 31 28 36 37 40 40 40
40 41 41 41 42 42 41 41 42 42 41 41 41 41 41 42
41 41 42 43 42 42 43 42 42 41 42 41 39 40 37 35
4 0 0 9 56 47 8 0 1 4 8 0 5 58 55 19
13 20 22 20 14 32 66 72 48 41 52 58 56 55 52 25
21 7 0 0 0 1 3 1 0 0 0 0 0 0 0 0
0 0 0 0 0 0 0 0 4 0 0 0 3 7 29 30
26 14 7 3 3 2 0 0 0 0 0 0 4 2 0 1
2 0 0 0 0 0 0 3 12 25 30 38 38 41 40 41
40 40 41 40 41 41 40 39 41 42 40 40 41 41 42 41
41 42 43 43 43 41 40 39 35 32 36 40 23 20 20 20
18 6 5 27 56 45 13 13 3 20 19 3 4 56 56 15
11 14 10 11 1 27 69 65 41 43 53 57 58 61 56 25
22 15 5 1 0 1 1 0 1 0 0 0 0 0 0 0
0 0 0 0 0 0 2 1 6 2 0 1 7 17 35 39
31 18 14 10 4 3 1 0 0 0 0 0 0 0 0 0
2 1 0 0 0 0 0 0 0 13 27 38 37 41 40 40
40 39 40 40 41 41 40 39 39 42 36 14 38 42 43 41
40 38 35 31 28 24 23 22 22 21 25 41 20 23 25 27
14 5 10 37 57 43 26 37 16 21 10 2 3 55 56 6
1 8 0 0 0 26 65 51 21 25 37 39 44 47 53 26
22 38 49 29 15 11 6 3 0 0 0 2 0 0 0 0
3 1 0 0 1 1 3 5 5 3 1 4 15 27 46 51
45 31 30 18 11 8 2 0 0 0 0 2 0 0 0 0
2 1 0 0 0 0 0 1 0 2 19 36 37 40 40 40
39 39 38 38 37 38 40 41 40 32 8 25 34 31 28 25
23 23 23 24 24 26 27 28 29 28 27 37 23 29 33 35
7 7 12 47 61 40 15 13 3 14 29 9 3 53 53 4
0 0 1 0 0 24 66 52 6 0 0 0 1 4 40 28
24 40 56 40 25 18 8 4 1 1 1 0 0 0 0 1
2 1 0 2 4 3 8 7 3 3 0 11 20 31 61 69
69 42 51 33 16 13 4 0 0 0 0 1 0 0 0 0
0 2 0 0 0 0 1 1 0 0 9 29 32 36 36 36
36 35 36 36 25 30 34 31 23 10 18 24 24 25 25 27
28 29 29 30 32 33 34 35 36 35 33 41 27 35 37 38
41 48 45 53 62 49 25 20 17 27 25 12 5 55 52 4
11 3 0 0 0 18 64 54 5 0 0 0 0 1 37 30
22 37 49 46 29 19 8 1 0 0 0 0 0 0 0 0
1 1 0 2 6 4 11 6 6 1 2 20 24 41 66 75
72 46 63 38 26 17 11 2 1 6 5 1 1 1 1 0
1 2 0 0 0 0 0 0 0 0 2 26 31 34 34 34
33 30 27 26 21 22 24 14 19 16 29 30 31 32 34 35
35 35 36 37 38 38 39 39 39 37 26 17 17 38 40 41
28 50 43 12 52 60 48 30 53 51 21 4 6 59 56 9
38 8 0 0 0 12 61 50 3 0 0 2 24 27 38 37
29 34 41 40 25 14 12 1 0 0 0 0 0 0 0 0
1 1 3 4 6 5 10 7 4 2 14 28 24 44 76 84
81 60 70 53 38 21 16 9 2 2 6 1 0 0 1 0
1 0 1 1 0 1 0 0 0 0 0 14 26 25 24 24
24 25 26 27 29 29 19 26 30 27 37 37 37 38 39 39
39 39 39 39 39 39 40 40 40 39 22 7 7 36 41 43
35 38 28 0 36 56 45 11 49 52 22 3 5 61 59 8
23 8 0 0 0 10 54 46 3 0 0 3 31 34 32 36
28 30 29 29 25 12 6 0 0 0 0 1 0 0 0 0
1 1 5 5 4 4 6 5 3 6 29 22 23 53 77 83
87 85 75 63 39 29 19 16 11 0 7 4 5 0 0 0
0 0 3 5 0 0 1 0 0 0 0 4 19 25 28 29
30 31 33 34 36 27 25 39 38 18 22 22 21 14 20 38
42 40 41 32 8 5 12 15 15 28 19 12 5 35 42 43
54 38 33 3 25 53 36 2 36 40 15 6 5 60 60 9
6 9 0 0 0 11 54 45 2 3 0 1 21 27 31 32
28 29 29 29 27 14 4 0 0 0 0 0 0 0 0 0
0 2 6 3 1 8 9 8 11 21 21 21 32 60 79 85
92 103 86 67 46 37 24 18 13 7 3 3 4 2 0 0
0 0 1 4 0 0 0 0 0 0 0 0 18 31 34 35
35 36 38 37 36 23 36 32 42 16 2 0 0 0 20 26
27 6 5 3 5 6 0 0 0 5 20 0 2 35 42 43
38 54 52 28 19 41 31 0 24 34 5 1 4 59 61 10
0 0 0 0 0 13 56 45 2 3 2 0 0 0 17 22
25 25 17 20 19 13 1 0 0 0 0 0 0 0 0 0
0 1 1 0 2 5 8 11 21 25 17 23 45 76 90 98
105 112 102 83 58 48 26 15 14 9 2 0 0 1 0 0
0 0 0 0 0 0 0 0 0 0 4 0 18 36 38 38
39 39 39 38 24 16 3 0 35 35 2 0 0 0 0 0
0 0 0 0 0 13 0 0 0 0 22 1 4 34 42 43
9 13 21 10 2 3 21 26 9 14 4 4 7 56 56 8
0 0 0 0 0 16 58 45 1 1 8 2 0 0 22 29
32 24 0 0 1 1 0 0 0 0 0 0 0 0 0 0
0 1 3 1 8 5 10 32 36 26 20 36 81 91 97 102
110 115 115 98 79 65 53 22 14 14 7 2 0 2 0 0
0 0 0 0 0 0 0 0 0 0 3 3 17 39 39 39
40 40 40 33 5 12 19 7 3 5 0 0 0 0 0 0
0 0 0 1 0 8 0 0 0 0 28 3 6 36 43 43
46 5 0 0 0 0 0 7 9 3 12 46 45 55 52 16
6 4 1 1 0 18 59 45 2 0 4 10 0 0 23 38
35 27 0 0 0 0 0 0 0 0 0 0 0 0 0 0
0 1 4 3 8 6 20 32 30 13 22 74 92 98 107 112
119 119 123 117 105 86 78 60 22 10 7 1 0 1 0 0
0 0 0 0 0 0 0 0 0 0 2 5 17 39 39 40
41 41 41 23 18 41 23 18 28 23 20 20 20 20 16 8
16 4 0 3 0 0 0 0 0 2 32 13 15 37 43 44
54 13 2 0 5 0 0 1 18 34 21 54 58 57 49 52
52 45 34 40 30 34 52 44 6 0 1 15 5 1 22 42
34 26 1 0 1 0 1 0 0 0 0 1 0 0 0 0
0 1 3 4 7 12 10 15 7 11 27 39 54 75 103 124
121 124 127 122 119 106 73 51 31 5 5 2 1 0 0 0
0 0 0 0 0 0 0 0 0 0 2 3 21 41 41 40
40 40 34 10 28 24 35 42 42 43 43 43 42 43 42 26
21 6 0 2 0 0 0 0 1 20 34 30 32 40 43 43
52 3 0 0 10 22 20 42 51 59 56 58 61 62 60 49
40 29 26 34 32 32 41 41 33 18 13 25 22 12 23 43
31 25 1 2 3 1 1 0 0 0 0 0 1 1 0 0
0 0 1 4 8 12 11 12 20 34 42 38 36 48 78 115
122 125 129 120 111 95 67 29 16 10 6 1 0 0 0 0
0 0 0 0 0 0 0 0 0 0 4 3 28 41 41 41
41 39 13 34 34 42 43 43 42 43 43 43 42 42 40 17
0 0 0 2 0 26 39 39 39 39 35 35 38 42 43 43
58 25 5 3 25 58 55 56 42 59 58 51 55 58 58 21
1 0 0 5 20 8 39 43 42 43 41 47 50 49 50 48
30 25 1 1 0 1 0 0 0 0 0 2 1 0 0 0
0 0 5 8 26 29 27 39 52 52 47 48 51 60 72 100
114 122 124 115 99 76 57 40 35 28 23 16 7 5 1 0
0 0 0 0 0 0 0 0 0 0 3 8 34 42 42 41
41 23 22 42 42 42 42 41 43 42 42 42 43 43 38 1
0 7 10 0 0 28 43 41 40 40 38 37 42 43 43 43
61 56 51 47 53 56 51 30 12 38 36 9 7 10 40 21
0 0 1 5 21 19 43 44 28 5 8 16 26 41 55 49
29 26 2 0 0 1 0 0 0 0 2 1 1 0 0 0
1 5 11 31 50 51 70 92 96 89 84 83 87 82 81 94
106 115 114 109 92 76 67 62 71 80 79 58 26 16 4 0
0 0 0 0 0 0 0 0 0 0 3 21 37 40 41 41
31 12 41 42 43 42 43 41 42 42 42 42 42 42 39 2
0 3 12 0 0 26 43 42 42 41 40 41 43 42 42 41
60 59 60 60 59 59 56 36 2 2 5 2 0 0 33 25
0 3 28 20 12 15 45 45 25 2 5 22 13 34 54 46
30 28 12 0 0 0 0 0 0 0 0 1 2 0 0 1
5 16 23 46 73 82 102 111 112 113 113 109 106 101 97 98
108 111 109 102 92 83 87 92 103 115 111 83 59 33 14 4
0 0 0 0 0 0 0 0 0 0 13 30 36 40 41 38
11 37 42 42 42 42 42 42 43 43 42 43 43 43 40 3
0 0 0 0 0 23 42 42 42 40 40 42 42 42 42 43
60 60 61 61 54 30 23 11 0 0 5 7 0 0 32 27
1 27 46 25 9 7 46 47 21 0 7 31 32 42 51 37
29 30 18 0 0 1 0 0 0 0 0 0 1 1 1 2
10 23 39 65 84 96 107 117 118 116 113 109 109 109 105 107
111 111 105 95 87 92 98 105 110 116 117 103 86 58 32 18
2 0 0 0 0 0 0 0 0 0 17 32 38 40 40 24
23 41 42 41 42 42 43 43 42 42 42 41 41 41 38 3
0 0 0 1 0 20 43 42 42 41 42 43 43 42 42 43
58 58 60 60 54 32 37 30 30 23 30 22 0 0 31 28
6 22 48 19 0 5 48 49 22 0 3 13 26 45 53 34
31 33 13 0 0 0 1 0 1 0 0 0 0 0 5 4
10 34 60 78 94 100 108 111 107 101 93 97 104 108 110 110
116 117 108 89 88 93 100 104 105 105 107 96 85 67 51 30
17 0 0 0 0 0 0 0 0 0 24 33 39 41 40 14
37 42 42 40 41 41 41 42 42 42 41 28 16 10 10 1
0 1 0 2 0 18 43 42 43 42 43 43 43 43 43 43
7 9 12 15 23 44 48 35 30 33 35 19 2 0 31 28
2 10 46 18 6 6 51 51 24 0 0 1 5 41 54 34
31 31 27 6 4 3 0 0 0 0 0 0 0 0 1 9
7 32 79 89 96 100 87 53 36 24 29 63 90 102 111 115
127 127 112 85 88 96 94 58 30 34 48 73 79 70 60 45
34 1 0 0 0 0 0 0 0 3 35 34 40 41 40 12
40 41 41 42 42 43 43 44 44 43 40 8 20 4 4 0
0 0 0 6 2 15 43 42 42 44 44 44 44 43 42 43
0 0 0 0 2 35 40 13 0 0 0 0 0 0 31 26
0 0 5 1 10 6 51 52 22 0 0 0 2 37 57 35
32 32 49 44 28 6 7 0 1 0 0 0 0 0 1 14
22 39 87 92 88 70 36 60 5 3 51 96 67 99 110 119
132 132 113 80 96 103 59 48 11 7 33 39 45 67 62 57
45 7 0 0 0 0 0 0 0 16 37 34 40 41 41 14
42 43 43 43 44 44 44 44 44 44 41 44 53 22 37 3
1 0 0 2 0 5 22 40 43 43 43 43 43 43 43 43
0 0 0 0 3 44 50 21 0 0 0 0 0 0 29 28
0 0 0 0 2 5 51 52 20 0 0 0 1 38 59 35
31 32 55 59 41 16 8 0 0 0 0 0 0 2 6 31
56 81 102 96 80 64 88 90 61 57 75 81 75 95 110 119
132 132 111 78 102 101 88 87 61 50 59 60 34 53 62 65
50 16 0 0 0 0 0 0 5 27 37 35 40 40 41 14
41 43 42 43 43 44 43 43 44 44 41 47 53 20 6 0
0 0 0 0 0 10 20 13 35 38 44 44 43 43 44 43
0 0 0 0 3 47 56 32 0 0 0 0 0 0 27 30
0 0 0 0 0 3 50 52 19 0 0 0 1 34 56 34
31 32 39 43 23 14 1 0 0 0 0 0 0 6 26 48
87 99 105 104 96 95 106 124 120 113 105 92 91 111 122 119
125 128 109 80 95 104 96 98 108 109 100 81 55 50 68 73
58 27 0 0 0 0 0 0 13 32 36 35 40 40 41 17
37 42 42 43 43 43 43 42 42 40 38 13 5 7 1 0
0 0 0 0 0 2 12 6 6 30 45 45 43 43 43 43
30 21 31 32 37 58 64 40 0 0 0 0 0 0 25 27
0 0 0 0 0 3 48 54 20 0 0 0 0 30 53 32
31 31 33 32 19 9 0 0 0 0 0 0 0 13 59 75
94 104 110 110 113 112 110 110 108 99 94 100 112 125 124 116
118 122 108 79 90 114 112 104 98 99 96 80 73 74 83 79
63 32 0 0 0 0 0 2 18 34 37 35 40 39 41 24
32 42 43 43 43 41 29 21 18 16 15 3 1 0 0 0
0 0 0 0 0 1 10 8 1 29 44 44 45 44 43 44
45 45 49 48 54 60 39 8 0 0 0 0 0 0 25 30
0 0 1 3 4 9 49 55 22 0 0 0 0 33 58 36
29 31 39 40 30 10 0 2 0 0 0 0 0 21 66 87
98 107 113 118 124 125 124 123 119 119 118 122 127 128 120 114
115 121 111 82 85 110 127 127 123 115 110 104 97 91 87 82
65 32 0 0 0 0 0 10 21 34 36 34 40 40 40 31
25 42 41 39 36 30 11 6 7 7 5 4 8 9 3 1
0 0 0 0 0 0 10 9 1 28 44 44 44 44 43 43
38 45 47 50 58 61 37 6 4 5 3 3 2 2 25 44
32 33 36 41 47 50 53 44 20 2 1 0 0 34 59 34
28 31 39 43 27 3 1 2 0 0 0 0 0 24 69 86
95 108 114 122 132 135 129 129 129 130 130 131 135 127 117 111
112 121 114 83 82 102 128 136 131 128 123 118 111 100 89 83
69 37 0 0 0 0 2 14 22 34 36 34 40 38 34 24
10 15 10 7 7 7 8 9 11 12 12 13 11 5 13 11
0 0 0 0 0 0 10 9 3 23 44 44 44 45 43 44
3 4 8 14 22 54 51 46 48 46 43 41 41 42 49 52
51 52 54 55 56 55 51 44 41 40 35 32 26 40 52 40
37 38 41 43 29 4 0 0 0 0 4 0 0 27 64 84
97 106 116 126 138 137 133 131 131 133 133 137 133 125 114 109
111 121 116 89 80 96 116 135 134 130 127 125 116 106 95 85
71 40 0 0 0 0 8 17 21 33 36 29 15 8 7 7
9 10 12 13 15 15 15 15 16 15 15 12 6 0 10 23
0 0 0 0 0 0 9 9 9 20 43 43 42 42 42 41
5 0 0 2 9 52 60 59 59 58 57 55 57 58 55 46
42 48 49 48 49 49 48 48 48 47 48 47 47 47 46 46
45 43 44 44 32 8 0 0 0 8 21 3 2 24 59 83
99 109 119 127 138 140 135 132 131 134 133 136 130 129 115 108
111 121 117 94 78 89 107 127 138 137 134 129 120 110 98 87
72 39 0 0 0 2 22 17 19 32 35 26 12 12 13 14
14 14 15 15 14 13 11 10 8 7 15 12 7 3 9 11
0 0 0 3 4 3 5 15 19 23 40 43 44 43 43 43
8 0 0 3 11 54 61 62 60 61 59 60 61 60 37 28
32 45 47 47 47 47 47 47 47 46 46 46 46 45 45 45
44 42 42 43 33 9 3 3 0 11 27 1 2 29 61 79
97 110 120 124 140 142 141 136 133 133 133 133 130 124 115 109
113 122 120 100 81 85 103 123 139 137 136 131 120 109 97 89
71 39 0 0 0 1 24 18 18 32 33 18 15 14 11 9
8 6 4 2 1 0 0 0 0 2 16 15 12 9 15 3
0 0 0 3 4 0 11 12 13 18 41 44 44 43 43 43
0 0 0 2 10 53 54 50 46 46 44 44 49 45 25 26
30 44 47 47 45 45 44 44 44 43 42 42 42 41 41 39
38 37 36 31 24 6 3 5 0 23 37 2 5 36 72 78
97 109 120 131 142 145 142 136 134 135 137 135 129 123 112 109
114 124 125 106 83 79 99 112 135 139 137 130 120 110 100 87
71 38 1 0 0 0 19 18 16 31 32 19 14 14 1 0
0 0 0 0 0 0 0 0 0 5 17 15 14 10 4 5
5 6 8 8 8 11 19 21 19 21 36 36 34 34 39 43
0 0 0 0 9 54 29 3 8 4 3 4 14 10 24 25
30 42 47 38 18 13 13 11 9 9 8 7 7 6 5 5
4 5 4 3 4 0 0 1 0 19 35 8 11 32 74 80
94 108 119 136 143 144 144 142 139 143 141 138 133 117 104 106
117 125 128 113 88 73 95 109 129 145 143 129 117 112 102 87
69 34 0 0 0 0 17 18 15 31 33 21 15 12 0 0
0 0 0 0 0 0 0 0 0 9 17 16 14 24 32 25
27 30 32 26 29 31 26 25 24 18 17 35 13 20 33 43
0 0 0 0 6 54 28 0 3 0 1 0 12 10 24 26
30 41 46 37 10 0 0 0 0 0 0 0 0 0 0 0
0 0 0 0 0 0 0 0 0 9 58 18 16 27 72 79
94 107 118 132 143 149 148 145 143 147 143 135 122 99 101 109
123 134 133 117 98 80 78 99 115 142 148 134 120 111 101 88
70 30 1 0 0 0 15 20 13 29 30 18 14 9 0 0
0 0 0 0 0 0 0 0 0 13 17 14 14 28 31 21
26 33 41 40 46 54 55 45 26 13 38 100 18 17 30 43
0 0 0 0 7 52 30 0 4 1 3 7 19 21 24 25
29 39 46 40 16 0 0 1 2 2 2 2 2 2 1 1
1 1 1 2 1 1 0 0 0 1 52 36 35 23 67 77
91 106 117 127 139 152 151 147 142 142 139 125 101 103 111 115
131 143 141 128 101 83 81 81 100 123 144 139 126 113 102 88
67 25 1 0 0 3 14 20 12 27 27 16 14 5 0 0
0 0 0 0 0 0 0 0 1 17 16 16 14 23 21 24
28 35 81 83 88 99 99 73 26 20 84 121 64 19 29 43
0 0 0 0 3 49 30 0 3 3 16 21 21 18 23 25
29 38 47 42 22 0 1 2 2 2 3 3 3 3 3 3
2 3 2 2 2 1 2 2 0 0 40 70 85 27 59 75
87 104 116 125 135 146 148 143 141 136 128 110 87 110 115 126
128 136 135 128 98 80 80 77 88 103 125 135 125 113 102 86
65 21 1 0 1 8 18 21 13 24 24 15 15 2 0 0
0 0 0 0 0 0 0 0 3 17 16 17 16 18 30 28
33 39 69 79 70 76 73 52 30 29 92 56 54 25 28 43
0 0 0 0 3 48 31 0 1 10 19 19 19 18 23 24
28 37 45 43 26 1 2 2 3 3 4 4 4 4 4 3
3 3 3 2 2 2 2 2 1 0 7 57 87 51 51 74
85 102 113 122 130 141 141 140 135 126 119 101 82 104 111 115
109 115 116 106 80 69 76 82 83 93 112 126 122 111 100 84
61 30 9 0 12 15 35 37 36 37 23 15 14 0 0 0
0 0 0 0 0 0 0 0 7 17 16 19 16 3 27 38
41 38 27 27 29 23 26 26 25 24 25 24 23 23 25 43
0 0 0 0 3 46 30 0 0 7 18 20 20 18 23 25
28 36 46 44 28 2 2 3 2 3 3 3 3 3 3 3
4 4 3 4 3 3 2 5 7 0 0 67 92 77 53 75
83 101 111 120 126 133 136 132 126 120 112 103 84 95 84 47
61 96 95 79 49 30 71 98 80 87 101 118 117 109 97 79
57 40 15 5 22 28 51 56 52 45 20 15 11 0 0 0
0 0 0 0 0 0 0 0 11 17 16 20 11 0 30 39
42 37 26 26 29 20 19 18 23 25 23 23 24 23 27 42
0 0 0 0 3 45 29 0 0 6 18 20 21 19 22 24
27 34 44 42 31 4 2 2 2 2 3 2 3 3 3 3
3 3 3 2 2 1 2 4 21 3 0 68 99 88 51 74
82 100 110 116 123 127 129 128 123 117 112 119 110 98 70 51
75 71 63 60 55 61 90 97 90 81 99 116 116 106 93 76
51 25 7 6 28 35 55 56 55 38 17 16 7 0 0 0
0 0 0 0 0 0 0 0 15 17 16 18 5 0 11 13
40 36 27 25 18 19 19 18 24 26 26 24 23 22 23 43
25 20 20 20 24 47 33 1 0 6 17 19 20 18 22 24
27 32 44 44 33 5 2 2 2 2 2 2 2 3 3 2
3 2 3 2 2 2 2 3 32 18 0 19 76 67 36 73
82 98 108 112 120 123 125 124 119 115 117 130 131 128 120 100
106 91 84 85 69 74 88 93 96 93 106 111 108 100 86 72
43 2 8 16 33 53 57 57 56 32 16 15 4 0 0 0
0 0 0 0 0 0 0 2 17 17 17 15 1 0 4 5
38 34 26 23 17 21 18 20 27 27 26 25 23 22 17 40
46 45 44 45 45 43 37 2 0 8 18 19 20 18 22 23
26 31 43 42 34 7 3 2 3 2 3 3 3 3 3 3
3 2 2 2 2 1 2 2 32 37 16 0 2 4 18 69
81 97 106 108 115 119 122 121 118 115 120 132 130 123 119 114
114 110 107 99 81 81 88 92 103 108 112 110 103 94 81 67
38 3 13 30 48 57 58 58 54 26 16 15 1 0 0 0
0 0 0 0 0 0 0 5 17 16 17 14 0 1 2 11
42 35 28 23 17 21 19 18 26 26 25 24 22 22 14 6
36 27 19 15 8 7 33 3 0 8 17 18 19 18 21 23
25 30 42 42 35 9 2 2 2 2 2 2 3 2 3 2
2 2 2 2 2 2 3 2 30 41 34 9 0 0 8 58
78 96 104 107 114 117 119 120 120 116 121 124 123 117 117 117
118 113 115 112 96 89 85 81 96 106 108 109 101 87 76 64
32 10 18 54 62 57 59 59 52 21 16 13 0 0 0 0
0 0 0 0 0 0 0 9 18 16 18 11 0 13 20 24
42 33 28 22 14 20 19 18 26 26 26 25 23 24 13 0
22 4 0 0 0 0 29 8 0 8 15 17 19 17 20 23
25 28 41 42 35 10 1 2 2 2 2 3 3 2 3 2
2 1 2 1 1 2 2 0 25 43 37 17 0 0 0 42
76 95 106 109 114 117 118 120 120 120 119 119 120 121 121 119
118 109 109 111 100 91 83 75 79 104 97 102 96 82 74 61
29 11 29 63 63 63 59 59 47 19 16 10 0 0 0 0
0 0 0 0 0 0 0 12 18 16 18 6 0 17 15 21
43 33 27 14 5 16 19 20 27 25 25 24 24 23 13 0
6 0 0 0 0 1 32 41 34 26 14 16 17 16 19 22
24 26 40 40 35 12 1 1 2 2 2 2 3 2 1 1
1 1 1 1 1 1 1 0 22 43 37 17 0 0 0 26
71 90 104 110 113 117 119 120 120 121 116 114 119 120 117 113
108 110 113 97 85 82 78 75 77 100 94 95 91 82 72 55
16 10 29 62 65 64 59 58 40 16 15 5 0 0 0 0
0 0 0 0 0 0 0 15 17 17 18 3 0 11 9 28
40 28 19 2 3 16 17 20 26 25 25 24 25 24 16 4
0 0 0 0 0 5 35 36 18 16 13 15 16 16 17 21
23 26 38 40 35 13 0 1 1 0 1 2 2 1 1 2
1 1 0 1 1 1 1 0 20 43 37 22 0 0 0 8
65 85 100 108 116 120 122 119 119 119 112 110 111 96 92 92
89 89 89 71 71 56 50 61 76 96 94 95 89 79 71 52
25 22 21 63 63 63 60 57 31 15 15 2 0 0 0 0
0 0 0 0 0 0 2 17 17 17 17 1 3 25 18 36
37 28 17 2 4 16 17 20 25 25 24 23 24 24 20 13
0 0 0 0 0 4 34 21 0 1 12 14 16 15 16 20
21 24 36 39 35 14 0 0 0 1 1 1 1 0 0 0
0 0 0 0 0 1 1 0 17 43 37 27 3 0 0 0
49 80 95 106 114 120 123 121 118 113 106 94 65 56 62 71
92 80 82 65 49 43 29 37 70 99 94 96 89 77 66 42
31 25 15 60 64 64 59 55 24 15 13 0 0 0 0 0
0 0 0 0 0 0 5 17 15 16 13 0 38 82 19 41
35 27 17 2 5 15 16 21 25 25 25 24 24 24 17 5
0 0 0 0 0 2 30 22 0 0 9 13 14 14 15 19
20 23 34 39 34 15 0 0 0 0 0 0 0 0 0 0
0 0 0 0 0 0 0 0 14 42 36 28 7 4 5 0
21 75 90 102 109 117 122 120 117 109 98 77 47 94 127 131
150 140 141 121 101 90 40 62 87 99 95 94 85 72 60 34
33 27 11 55 64 65 59 49 19 14 9 0 0 0 0 0
0 0 0 0 0 0 9 16 15 16 9 0 48 77 13 43
33 26 17 7 17 18 16 23 26 25 24 23 24 23 16 0
0 0 2 4 8 8 29 23 0 0 8 12 13 13 14 17
19 22 32 36 34 15 0 0 0 0 0 0 0 0 0 0
0 0 0 0 0 0 0 0 13 42 36 36 45 45 33 2
1 59 82 96 106 113 118 120 119 112 105 103 93 99 117 134
150 150 149 126 93 83 68 79 85 99 98 91 78 69 51 32
35 28 8 47 64 64 61 42 16 14 6 0 0 0 0 0
0 0 0 0 0 0 12 16 15 17 6 0 13 19 19 43
33 30 20 18 12 18 17 24 28 25 24 22 24 23 16 0
16 16 20 25 33 38 37 25 1 0 6 12 13 13 14 16
18 21 31 36 33 16 0 0 0 0 0 0 0 0 0 0
0 0 0 0 0 0 0 0 12 42 36 41 62 63 52 23
5 37 77 90 102 107 113 117 116 111 108 109 108 99 103 103
118 111 121 99 95 88 69 71 90 93 94 82 73 62 41 32
35 28 7 39 63 63 61 34 15 16 4 0 0 1 1 1
1 1 1 1 1 2 16 17 17 17 2 0 7 11 30 43
33 32 22 19 12 20 19 26 28 27 24 23 23 23 18 0
24 27 30 34 41 45 44 36 29 22 18 12 13 13 13 16
18 20 29 35 32 17 0 0 0 0 0 0 0 0 0 0
0 0 0 0 0 0 0 0 10 41 36 39 57 57 53 41
25 38 70 80 93 102 106 111 114 112 112 112 109 100 101 118
110 111 110 110 104 83 60 72 86 89 85 74 67 55 32 33
35 28 6 30 61 62 59 26 15 15 14 14 14 14 14 15
14 15 15 15 15 15 16 18 17 16 0 0 6 9 35 42
33 33 21 19 12 19 20 26 27 26 24 25 23 23 18 0
26 24 23 21 20 18 16 16 13 10 10 8 10 11 11 14
17 19 29 34 32 17 0 0 0 0 0 0 0 0 0 0
0 0 0 0 0 0 0 0 9 40 35 31 26 25 24 23
22 39 69 73 84 96 102 107 109 110 109 110 109 102 99 103
118 123 131 130 110 70 64 75 78 80 74 67 60 43 28 32
33 28 6 22 59 61 55 22 15 16 16 15 15 16 15 15
15 16 16 15 16 16 17 15 20 14 0 0 3 8 40 39
33 33 21 19 12 19 20 28 27 27 25 25 24 23 19 0
1 0 0 0 0 2 3 15 2 0 3 7 8 8 9 14
16 18 27 33 32 16 0 0 0 0 0 0 0 0 0 0
0 0 0 0 0 0 0 0 10 40 35 30 24 24 24 24
27 47 69 69 76 87 95 100 103 105 106 105 105 101 102 98
96 102 104 98 82 67 71 75 74 74 70 63 52 31 29 32
32 28 8 30 66 60 53 18 15 16 17 17 17 17 18 17
17 17 17 17 17 17 17 14 20 11 0 6 27 27 44 39
35 33 20 18 11 20 22 28 27 27 26 25 25 24 19 0
0 0 0 0 0 4 2 19 4 0 2 6 8 8 9 14
16 19 27 34 32 17 0 0 0 0 0 0 0 0 0 0
0 0 0 0 0 0 0 0 10 42 35 31 30 29 28 30
41 33 66 71 67 77 89 95 101 103 104 102 101 100 94 95
91 86 82 77 72 67 68 73 72 71 67 58 43 28 29 30
32 44 85 117 117 77 49 14 9 19 19 19 20 40 75 53
27 28 25 27 41 42 34 15 9 1 0 19 29 34 48 41
39 37 20 18 12 31 63 34 36 38 40 35 25 24 21 0
0 0 0 0 0 7 7 17 5 0 0 5 7 9 10 13
15 18 25 32 31 17 0 0 0 0 0 0 0 0 0 0
0 1 2 3 4 6 8 9 21 41 35 31 32 32 34 39
5 30 63 70 68 66 77 89 96 102 103 101 100 98 96 90
81 75 69 64 63 66 72 71 71 71 62 52 43 27 29 30
53 110 115 119 113 68 23 20 33 70 84 96 115 133 141 141
134 121 83 37 23 18 22 37 34 3 17 109 83 23 53 48
60 99 98 57 10 69 88 81 76 83 84 66 25 23 20 0
3 5 8 8 6 5 11 9 1 0 0 0 6 9 11 13
14 17 24 32 31 21 4 5 7 10 12 13 16 19 22 23
25 27 29 29 30 31 32 31 31 32 32 31 32 33 49 35
1 32 62 69 71 62 67 79 89 97 102 98 90 100 94 89
82 74 67 67 68 71 79 75 76 67 56 50 44 31 34 36
66 100 90 82 68 37 30 29 59 104 118 126 142 147 148 151
144 126 79 12 12 13 14 12 31 40 51 149 105 28 51 47
55 99 97 47 2 38 95 70 70 70 67 49 24 24 21 0
15 15 16 16 16 14 3 5 4 0 0 3 3 10 11 13
14 17 24 32 32 33 30 30 32 34 35 35 35 35 34 34
35 34 33 34 33 33 33 32 31 32 32 31 33 47 47 15
1 44 62 67 71 68 59 68 79 89 99 102 99 100 96 91
90 89 90 90 91 90 89 81 74 60 48 52 46 53 66 70
66 62 62 63 60 58 55 59 63 93 117 121 136 145 149 151
144 128 86 13 13 12 10 16 21 4 66 119 61 37 45 32
21 38 29 4 7 0 12 19 34 34 29 25 23 24 22 1
15 15 15 16 17 15 5 7 8 3 4 4 0 7 7 11
13 16 23 33 34 33 34 28 33 36 37 36 35 34 34 35
34 33 32 33 33 32 29 31 31 31 30 31 39 73 71 8
12 49 60 68 72 70 63 59 68 79 92 104 109 111 113 109
107 105 105 101 103 103 94 84 68 51 53 55 43 30 49 44
37 32 32 32 33 35 44 60 57 61 100 109 117 141 143 141
131 106 40 10 8 9 8 28 16 0 16 41 16 43 41 13
1 0 0 0 0 0 0 0 26 25 18 22 19 24 25 1
15 16 16 27 36 26 9 2 2 2 2 0 0 1 3 10
12 16 23 32 34 34 34 29 33 35 35 35 35 35 38 51
48 14 7 10 17 17 4 16 27 28 28 39 58 77 43 0
24 51 62 68 74 71 69 61 58 66 80 97 107 113 117 116
116 112 110 107 107 101 89 77 58 49 61 57 41 22 61 25
18 18 28 24 22 20 30 58 48 43 74 46 16 70 67 54
42 25 9 12 14 11 30 56 65 68 78 92 83 85 48 23
12 0 0 0 0 0 0 0 12 18 16 23 17 16 19 12
10 10 9 28 25 17 1 0 0 0 0 0 0 0 4 7
8 11 16 27 29 28 27 25 23 23 22 22 22 29 65 73
25 0 0 0 0 0 0 0 10 11 12 56 66 82 23 0
34 51 62 69 75 76 73 67 60 57 65 83 99 109 113 113
108 109 106 105 101 89 76 64 51 60 65 57 40 2 27 54
17 14 25 20 21 8 2 17 66 89 92 79 30 4 6 12
17 12 11 14 11 75 97 101 113 109 107 104 110 107 61 48
30 0 0 0 0 0 0 0 1 20 25 22 17 22 14 6
7 5 15 47 21 15 2 0 0 0 0 0 0 0 1 1
0 1 1 2 1 2 1 1 2 3 5 12 18 58 82 37
1 0 0 0 0 0 0 0 0 3 32 59 70 116 26 0
39 54 64 71 76 80 77 75 72 62 54 63 80 95 99 101
98 100 98 96 89 77 63 54 57 67 64 60 41 1 7 49
47 14 26 21 21 8 0 0 10 30 43 59 76 63 28 18
21 20 22 33 62 117 117 108 115 109 96 97 106 105 45 5
3 0 0 0 0 0 0 0 0 16 24 14 7 10 6 0
13 0 51 33 9 12 11 0 0 0 0 0 0 0 0 1
0 0 0 0 0 0 0 4 9 11 5 19 37 73 56 13
0 0 0 0 0 0 10 34 43 68 47 73 88 126 28 0
42 58 65 75 78 81 83 81 78 70 61 55 60 73 85 83
85 88 87 84 69 59 51 59 65 69 67 58 42 8 0 28
59 24 26 23 23 13 5 8 11 11 11 10 16 40 82 78
56 63 106 94 70 76 91 99 105 101 97 96 97 98 47 15
15 11 9 12 8 7 15 11 7 5 4 0 1 0 0 0
38 8 76 5 0 8 15 10 0 0 0 0 0 0 0 0
0 1 0 0 0 0 0 6 12 10 7 9 53 67 23 2
0 3 0 10 66 77 77 87 67 66 59 81 99 112 27 1
39 61 68 79 83 83 83 87 82 79 69 61 55 51 58 62
64 64 63 55 47 48 60 66 69 69 66 57 45 25 0 4
39 55 18 14 14 14 19 23 27 32 40 43 31 25 29 64
89 87 77 89 102 111 113 101 81 74 71 61 56 51 40 33
33 30 23 15 7 2 6 4 4 1 0 0 0 0 0 0
50 21 35 0 0 1 14 29 2 0 0 0 0 1 0 0
1 6 6 5 3 1 2 7 19 21 15 12 70 57 4 9
27 34 4 64 64 66 74 59 69 69 77 76 85 88 35 12
36 67 70 81 85 84 83 86 89 81 76 70 64 57 48 41
36 31 30 43 57 65 67 68 72 70 64 59 45 37 6 0
18 63 36 45 55 66 86 111 140 150 152 151 139 102 88 83
88 96 124 151 151 149 146 150 116 79 60 40 34 32 25 18
18 19 15 12 6 2 5 3 1 0 0 0 0 0 0 0
13 17 14 0 1 0 12 5 0 0 0 2 1 6 8 8
7 7 6 6 7 9 12 17 21 22 7 20 68 37 24 41
47 66 69 56 43 58 32 59 104 65 77 65 113 102 30 24
37 73 74 87 88 88 86 85 88 86 76 77 74 65 58 48
45 48 61 71 69 68 68 71 74 68 64 59 48 43 19 0
9 84 53 36 48 46 64 102 120 151 152 145 97 77 72 63
69 76 110 150 151 146 139 152 125 92 63 47 36 30 24 19
19 18 16 14 6 4 4 3 1 2 0 0 0 0 0 0
0 13 8 0 3 0 0 0 0 0 0 5 1 6 9 11
10 10 12 14 19 27 30 28 21 17 2 33 67 16 14 52
81 99 83 93 73 67 93 81 61 49 49 75 110 97 59 43
35 77 79 88 96 95 93 90 86 85 81 77 79 77 76 76
80 82 83 77 71 65 73 78 71 67 64 61 51 48 34 3
1 34 45 11 28 49 56 84 114 149 152 146 100 78 73 67
70 77 113 151 152 146 135 152 129 93 63 47 38 31 25 21
20 18 18 15 8 6 4 4 3 2 1 1 0 0 0 0
0 13 9 8 11 0 0 0 0 0 0 0 0 1 4 4
3 4 5 8 14 25 29 21 6 4 0 42 65 42 68 78
66 89 94 92 90 87 111 94 59 77 71 68 101 74 52 55
36 79 85 91 101 103 101 101 100 95 92 88 82 86 89 90
89 86 78 69 67 73 81 78 73 69 66 62 56 52 38 10
1 25 61 17 36 44 60 73 101 148 153 145 99 75 68 62
61 78 107 148 152 143 123 152 131 88 63 48 37 30 25 20
19 18 19 15 8 6 3 4 3 1 0 0 0 0 0 0
6 16 12 8 6 0 0 0 0 0 0 0 1 1 1 2
1 3 4 6 13 24 28 14 0 8 39 69 64 51 72 91
64 98 99 76 69 78 93 60 35 66 62 51 112 100 49 63
43 80 92 95 100 106 108 107 107 108 104 97 89 83 81 79
77 75 72 75 77 83 85 81 72 69 68 66 60 58 33 20
5 27 60 44 38 56 62 86 80 103 137 145 103 78 67 59
63 83 109 147 152 143 123 152 132 90 67 49 38 30 24 22
19 19 21 16 9 7 2 4 3 0 0 0 0 0 0 0
0 15 6 1 1 0 0 0 0 0 0 0 0 0 0 0
1 4 5 7 13 25 29 33 63 82 56 75 86 52 55 106
89 81 89 116 84 43 81 58 63 59 59 64 96 79 53 50
46 78 100 99 100 107 110 109 109 110 111 106 97 89 82 81
81 79 79 81 84 88 90 80 72 72 71 72 68 65 39 60
41 33 49 47 30 42 64 50 64 48 81 85 89 77 63 55
63 81 107 147 152 143 121 153 138 92 69 52 38 29 24 23
17 20 20 16 9 8 2 4 3 0 0 0 0 0 0 0
0 28 4 0 0 0 0 0 0 1 0 0 0 2 3 0
4 7 9 8 14 32 87 110 103 102 40 45 57 46 63 90
71 80 109 117 66 63 60 39 69 87 68 70 89 84 55 57
72 69 108 105 104 106 109 112 112 112 111 108 106 102 98 91
91 89 90 91 93 95 87 78 74 73 73 76 74 70 41 79
44 27 77 77 33 48 59 70 66 60 90 53 71 80 61 56
62 77 105 146 152 146 115 152 135 92 68 52 36 25 22 19
16 20 21 16 9 9 2 4 3 0 0 0 0 0 0 0
2 4 0 0 0 0 0 0 0 0 0 0 0 5 7 0
3 7 9 15 42 82 77 82 53 65 71 61 92 79 26 72
60 58 78 87 64 58 30 41 71 81 55 76 103 96 50 55
86 68 109 112 107 107 109 111 113 114 113 113 110 106 106 104
101 100 96 95 97 96 87 80 77 75 77 85 80 70 61 95
47 34 67 67 40 29 59 69 58 54 74 53 84 90 78 64
67 80 105 145 152 147 108 152 127 88 70 51 37 23 20 15
16 20 21 17 9 9 1 3 2 0 0 0 0 0 0 0
1 0 0 0 0 0 0 0 0 0 0 0 0 11 9 0
5 7 7 44 79 72 105 110 85 100 103 51 88 84 45 89
89 85 108 117 98 91 53 50 45 60 54 77 63 65 45 56
80 83 97 121 113 110 110 112 113 113 117 116 115 114 110 108
105 99 100 99 102 95 86 81 79 77 84 97 96 70 42 45
26 67 56 65 52 40 38 48 30 48 53 62 91 82 62 52
61 77 102 141 152 148 105 152 123 94 69 45 34 24 20 13
11 19 20 17 10 9 3 4 1 0 0 0 0 0 0 0
6 5 8 9 7 0 0 0 0 0 0 0 0 8 12 2
6 8 34 82 108 123 112 116 88 91 102 73 69 102 82 67
88 62 110 119 79 50 53 71 75 52 45 63 92 112 60 55
52 60 82 122 121 115 112 111 111 113 116 117 116 115 114 115
113 109 106 105 104 97 88 82 82 84 94 104 105 67 77 71
39 47 47 68 28 31 65 44 72 48 48 60 57 70 42 41
61 69 91 125 151 148 102 152 126 94 68 43 30 27 22 13
9 18 21 17 10 10 4 2 0 0 0 0 0 0 0 0
13 12 12 14 13 0 4 0 0 0 0 0 3 11 26 23
17 32 79 117 123 126 103 76 65 83 109 43 34 61 50 38
94 83 93 121 91 47 57 66 57 51 95 83 97 103 59 47
43 77 74 108 127 121 114 114 113 113 116 117 115 118 115 115
114 112 111 112 108 99 88 85 88 92 102 112 110 70 82 52
44 83 60 54 31 36 53 33 64 78 47 50 34 68 69 50
70 75 69 89 113 141 104 152 126 96 68 45 36 30 22 11
8 18 20 16 9 9 3 2 0 0 0 0 0 0 0 0
10 10 15 17 13 0 5 3 0 0 0 0 0 2 16 21
20 80 105 104 111 89 82 80 55 33 52 58 55 45 48 40
50 61 91 107 94 72 100 100 70 63 81 83 93 72 54 41
54 76 83 91 128 126 121 117 117 116 117 120 120 120 118 116
116 116 115 115 108 96 86 90 93 100 110 117 110 67 64 78
56 81 81 87 48 18 36 18 45 55 54 75 64 62 70 46
53 62 83 111 122 90 98 150 121 95 64 48 36 29 22 13
12 20 20 16 9 9 3 2 0 0 0 0 0 0 0 0
1 0 0 0 0 0 8 4 1 4 0 0 0 0 0 9
46 101 105 65 67 78 99 111 83 83 106 98 53 67 72 65
55 41 59 97 80 80 95 91 80 96 112 70 81 82 79 76
55 50 60 68 115 134 128 123 121 120 119 122 124 124 121 119
120 119 119 116 108 94 89 96 101 107 113 121 102 76 104 86
60 84 66 68 64 24 27 28 52 68 76 80 47 49 33 35
79 72 82 106 84 94 91 94 113 94 57 42 32 25 19 14
13 20 21 16 10 10 4 3 1 0 0 0 0 0 0 0
0 0 0 0 0 0 10 4 3 11 0 0 0 0 0 31
67 72 90 72 95 124 111 90 67 64 95 101 50 40 62 66
71 64 100 88 50 65 74 72 77 110 103 103 115 111 117 69
44 49 62 83 88 126 131 128 126 125 125 125 126 126 124 122
123 124 123 118 106 93 92 101 106 111 117 121 91 81 102 94
68 75 44 58 49 16 10 16 33 42 42 38 14 26 40 48
59 77 84 76 54 88 80 68 83 81 57 37 29 23 19 15
13 21 23 19 10 10 3 3 1 0 0 0 0 0 0 0
0 0 0 0 0 0 4 5 6 5 0 0 0 0 3 58
73 48 58 108 106 105 80 75 120 59 58 76 43 62 35 30
59 70 99 100 71 93 79 38 63 88 92 116 125 114 108 79
56 63 78 97 67 99 129 135 134 130 131 130 129 130 126 124
128 127 126 119 107 96 98 106 110 115 120 117 80 79 103 74
51 84 78 83 73 24 22 25 38 48 45 33 42 61 37 49
44 75 106 109 70 63 50 58 68 65 63 41 27 21 17 15
13 19 22 18 9 10 1 3 1 0 0 0 0 0 0 0
0 0 0 0 0 0 0 0 0 0 0 0 0 0 17 70
91 29 59 105 99 59 101 137 140 74 67 95 81 71 68 50
69 52 85 97 83 78 57 40 51 73 55 94 112 62 8 46
54 44 89 79 81 70 108 132 137 136 134 134 130 132 129 129
129 130 130 121 108 101 103 107 111 114 116 104 70 83 99 77
73 103 91 108 90 37 23 14 21 52 60 63 44 59 38 93
76 88 97 78 93 73 56 40 70 60 58 47 28 23 20 14
12 19 22 18 11 11 1 4 1 0 0 0 0 0 0 0
0 0 0 0 0 0 0 0 0 0 0 0 0 0 54 81
58 43 57 76 87 96 98 137 113 106 80 72 95 59 78 48
86 80 70 80 55 59 48 27 34 46 22 47 56 49 13 43
51 34 59 56 60 75 88 117 135 136 135 136 133 132 130 130
130 130 128 120 109 107 106 110 113 114 113 93 62 99 103 50
63 97 45 40 75 36 49 50 28 53 66 77 49 60 42 52
65 78 98 89 86 107 65 89 54 36 42 39 33 25 21 15
12 19 22 19 11 11 2 4 1 0 0 0 0 0 0 0
0 0 0 0 0 0 0 0 0 0 0 0 0 14 68 79
54 76 57 28 90 115 105 131 117 96 112 98 106 56 86 38
76 96 94 106 96 79 86 66 95 102 53 42 71 67 47 43
57 59 74 95 75 74 100 90 126 135 135 135 133 131 128 129
127 129 127 118 116 113 111 111 116 118 102 89 72 88 90 39
44 65 25 0 26 56 46 55 34 60 48 48 24 51 27 55
33 46 59 91 104 99 55 89 59 51 63 53 43 25 18 13
11 17 22 20 11 11 1 4 1 0 0 0 0 0 0 0
0 0 0 0 0 0 0 0 0 0 0 0 0 43 72 31
92 87 41 53 74 126 116 101 101 100 98 81 100 52 67 40
60 98 105 126 107 67 74 94 100 111 58 50 72 66 45 35
35 53 62 94 79 69 109 92 101 120 138 136 133 132 129 128
125 124 123 119 118 116 115 116 120 107 95 54 55 67 61 32
39 52 13 0 0 36 44 46 26 63 54 84 28 32 33 69
72 78 49 55 51 65 67 97 43 42 63 65 49 28 19 14
12 17 22 19 11 12 1 4 1 0 0 0 0 0 0 0
0 0 0 0 0 0 0 0 0 0 0 0 3 81 105 53
93 66 79 78 63 110 123 101 95 121 119 94 90 58 76 35
55 92 108 131 95 70 70 113 107 104 59 49 50 59 42 51
52 41 69 66 52 42 70 78 90 103 117 134 135 132 128 125
124 122 120 119 119 118 117 119 113 70 64 65 46 67 77 67
53 53 45 7 0 1 30 34 22 41 70 100 35 64 45 73
66 78 72 83 98 98 42 45 29 65 63 52 53 43 17 14
13 17 21 19 12 13 1 5 1 0 0 0 0 0 0 0
0 0 0 0 0 0 0 0 0 2 0 0 22 91 76 71
58 71 108 106 70 72 103 112 93 149 128 92 91 73 67 50
35 61 73 109 96 68 70 102 85 109 88 59 73 81 67 47
85 64 77 102 95 72 81 44 13 52 74 113 125 131 129 124
127 124 121 120 120 118 119 118 89 55 54 62 38 59 57 50
28 49 57 40 15 5 0 20 23 90 62 72 42 71 41 55
48 80 90 70 99 89 67 49 16 30 40 47 53 42 20 14
14 17 22 20 13 12 1 6 1 0 0 0 0 0 0 0
0 0 0 0 0 0 0 0 0 2 2 0 61 80 87 97
36 89 114 102 93 47 94 110 113 123 121 72 58 66 66 79
42 73 92 113 103 81 106 125 105 109 116 47 73 87 101 70
103 102 88 113 106 96 102 97 29 46 62 99 104 116 129 123
126 125 122 119 122 120 119 94 65 49 23 42 28 36 48 60
30 42 52 42 44 54 17 29 29 114 98 105 33 38 40 88
82 62 66 65 99 59 57 43 51 63 47 22 68 56 36 13
11 15 21 19 12 12 1 6 2 0 0 0 0 0 0 0
0 0 3 1 0 0 0 4 9 0 0 2 85 105 98 104
79 84 104 92 68 72 64 105 117 73 91 80 62 49 41 50
34 75 98 110 110 87 112 115 97 116 131 60 68 83 77 58
63 84 90 116 113 113 113 122 72 29 40 91 103 108 127 128
125 124 124 121 122 121 102 67 68 88 62 72 64 47 55 44
18 36 44 39 44 53 59 90 42 112 101 95 59 83 59 78
66 92 84 86 133 57 41 14 63 76 61 36 55 50 62 16
12 16 21 20 12 11 1 7 2 0 0 0 0 0 0 0
0 0 9 5 0 0 0 3 23 0 0 16 99 99 101 97
112 70 74 91 84 97 64 90 110 97 102 121 96 84 26 54
33 69 83 122 116 87 104 125 111 114 122 49 36 51 44 29
29 66 56 91 95 75 91 85 89 37 47 75 109 103 125 128
124 123 121 119 122 110 68 70 83 38 22 52 79 37 46 44
32 48 56 48 31 67 90 118 104 108 100 93 57 85 65 96
70 75 89 93 121 77 85 30 26 47 44 55 69 41 66 25
11 15 21 20 12 12 1 7 2 0 0 0 0 0 0 0
0 0 1 1 0 0 0 1 18 0 0 43 75 82 92 97
133 92 49 76 103 110 88 66 61 104 112 120 108 92 41 75
24 45 43 68 83 42 69 96 95 60 65 27 38 71 72 74
48 94 65 80 84 64 55 59 71 50 22 58 90 98 116 127
121 121 120 120 115 87 70 81 47 35 45 61 65 32 31 36
32 70 74 67 54 81 67 99 92 93 99 76 40 76 56 104
90 78 103 98 107 63 72 59 59 52 48 42 74 65 66 40
12 15 21 20 13 13 1 8 2 0 0 0 0 0 0 0
0 0 0 0 0 0 0 0 6 0 1 72 53 85 113 117
118 113 45 85 100 112 102 39 36 108 101 92 66 51 33 57
47 66 79 100 128 70 85 96 113 73 63 76 33 78 76 65
32 67 71 103 108 77 74 84 124 80 32 36 59 90 111 126
121 121 117 114 93 75 80 54 60 46 64 57 53 43 72 47
42 77 87 61 69 98 69 112 115 84 107 85 26 54 52 94
79 95 119 103 75 62 56 71 73 57 49 79 50 86 53 62
26 13 19 19 12 12 1 7 1 0 0 0 0 0 0 0
0 0 0 0 0 0 11 7 1 0 15 81 77 75 117 132
92 85 89 55 93 103 63 47 46 61 73 75 79 61 35 15
28 53 75 93 126 84 93 99 121 86 70 85 34 53 54 41
23 35 65 79 106 93 62 76 122 85 49 7 33 60 101 125
125 122 116 100 80 79 37 39 37 35 34 37 40 34 51 36
38 51 78 64 71 88 100 119 131 84 113 95 57 65 64 115
87 102 91 124 68 60 33 59 69 47 56 83 70 66 43 63
74 19 19 19 13 13 0 7 2 0 0 0 0 0 0 0
