P2
128 120
157
20 1 1 0 2 18 59 65 56 46 46 48 50 51 50 51
59 69 60 54 48 45 44 43 44 44 43 43 43 43 43 42
42 42 41 41 41 40 40 39 39 38 37 37 37 36 36 35
35 34 34 33 33 31 31 30 30 30 29 28 28 27 27 27
26 26 25 24 24 23 23 23 22 22 22 24 27 27 28 27
21 17 17 25 26 25 25 24 23 23 23 21 21 20 17 22
24 24 24 25 25 26 25 26 26 26 26 26 26 26 25 26
27 28 29 29 29 29 29 30 30 30 30 31 32 33 32 33
29 13 0 0 0 12 53 57 33 0 0 0 1 1 0 0
23 64 61 66 64 59 49 46 46 45 45 44 43 42 42 42
42 41 40 41 40 40 39 39 39 38 38 37 37 36 36 35
35 34 34 32 33 31 32 31 30 30 29 29 28 27 27 26
26 25 25 25 24 24 23 22 22 22 22 24 27 28 28 27
21 18 19 24 26 26 25 24 24 23 23 21 22 21 18 22
24 24 25 25 25 25 26 25 25 25 25 26 26 27 27 27
28 28 29 29 29 29 29 29 30 31 31 31 32 32 33 33
29 4 1 3 6 11 50 52 35 0 0 0 11 4 0 0
15 61 57 57 41 40 43 47 55 59 61 58 54 47 42 42
42 41 41 41 40 41 39 38 38 38 37 37 36 36 35 35
34 35 34 33 33 32 31 31 30 30 29 28 28 28 27 27
26 26 25 25 25 25 24 23 22 22 23 24 27 28 28 28
21 20 21 22 27 26 26 25 25 23 25 22 22 21 18 22
24 25 25 26 25 26 25 25 27 26 26 26 27 27 27 27
28 28 29 30 29 30 30 31 30 31 32 31 33 33 33 33
16 0 0 0 2 7 50 52 38 0 0 0 9 6 0 0
9 59 56 53 17 0 4 12 22 32 41 50 58 51 42 42
41 41 41 41 40 40 40 40 39 38 38 37 37 36 36 36
35 34 34 33 32 33 32 31 31 31 30 30 29 29 28 28
28 26 26 25 25 24 23 23 23 23 23 24 28 29 29 28
22 20 23 21 28 27 25 25 25 24 25 23 23 23 19 23
24 25 25 25 26 27 26 27 27 27 27 27 28 27 28 29
29 29 29 30 30 29 30 30 31 32 32 32 32 33 33 34
0 0 0 0 0 5 49 52 40 0 0 0 6 2 0 0
5 57 57 53 18 0 0 0 0 0 0 15 57 51 42 42
42 42 41 41 41 40 40 40 39 39 38 37 37 36 36 35
35 35 34 35 34 33 33 32 31 31 30 30 29 29 29 29
28 27 27 26 26 26 25 24 24 24 24 25 29 29 29 29
22 20 25 20 29 27 27 26 26 25 26 23 24 23 18 23
24 25 26 27 27 27 27 27 28 28 28 28 28 28 28 29
30 29 29 30 30 31 31 32 31 32 32 32 33 33 33 34
0 0 1 6 1 3 44 50 46 0 3 12 8 9 0 4
2 53 56 50 18 0 0 0 0 0 0 11 57 51 42 42
41 41 41 40 40 40 39 39 39 38 38 37 37 37 37 36
35 35 34 34 33 33 32 31 31 31 31 30 29 30 29 28
28 27 27 26 26 25 25 24 24 23 23 25 29 29 28 28
23 19 25 19 28 27 26 26 26 25 26 24 24 23 19 25
25 27 26 27 27 27 27 28 27 27 27 28 28 29 28 29
29 30 30 31 30 31 31 31 31 31 32 32 34 33 33 34
0 0 1 8 5 4 46 53 55 3 15 14 0 1 0 3
0 49 56 51 21 0 2 10 4 0 0 9 55 51 41 42
41 40 41 40 40 40 39 40 38 38 38 37 37 36 36 35
35 34 34 34 33 33 33 32 32 31 31 30 30 29 29 28
27 27 27 27 26 25 25 24 24 23 24 25 29 29 29 28
23 20 26 19 27 27 27 27 25 26 27 24 24 23 19 25
24 26 26 27 27 28 28 28 28 28 28 28 29 29 29 29
29 30 30 30 31 31 31 31 32 32 33 33 34 33 33 32
3 0 0 1 0 5 46 52 57 10 15 8 0 2 0 2
3 45 59 53 21 0 9 13 7 0 0 7 54 50 42 42
42 41 41 40 40 39 39 39 39 38 38 37 37 37 37 36
36 36 35 34 34 33 32 32 31 31 31 31 30 30 29 30
28 28 27 26 25 24 25 24 22 23 22 24 28 29 30 29
25 21 24 18 27 27 28 26 26 25 26 23 24 24 21 24
23 26 27 28 29 29 28 29 28 29 28 28 28 29 30 29
30 30 31 31 32 32 32 32 33 32 32 33 32 34 34 36
14 8 1 0 0 7 45 50 60 19 13 5 1 0 0 2
2 40 56 52 21 0 2 7 6 1 0 8 54 50 41 42
41 40 41 40 40 39 39 39 39 39 38 38 37 37 37 36
36 35 34 34 35 33 33 33 33 32 32 31 31 30 30 28
28 28 27 26 26 25 26 24 23 23 23 23 28 29 29 30
25 19 25 19 26 26 27 26 25 25 27 25 25 25 20 24
22 25 27 28 28 28 28 29 29 29 28 30 30 30 30 31
31 31 31 31 30 31 31 31 31 33 34 34 34 35 36 35
54 48 44 40 29 27 44 41 54 22 12 2 4 0 0 0
1 34 55 52 25 0 0 3 11 7 0 7 53 50 41 42
41 41 41 40 40 40 39 38 38 38 38 37 37 37 37 36
36 35 35 35 34 34 34 33 32 32 32 32 31 31 29 29
29 29 29 27 27 25 25 22 22 23 22 25 23 27 26 28
23 18 23 19 21 23 22 25 26 25 24 24 25 25 22 25
23 27 27 29 28 29 29 30 30 29 30 30 30 30 30 31
31 30 31 31 32 32 33 32 33 33 33 35 34 35 35 36
39 44 52 56 57 57 48 36 47 28 17 15 19 20 18 20
21 35 49 55 28 0 0 6 8 7 0 6 52 49 40 41
41 41 40 40 40 39 40 39 39 38 39 38 37 37 37 36
36 35 34 34 34 34 33 33 33 33 32 32 31 30 30 29
29 29 28 26 25 22 19 19 18 19 20 21 21 25 22 17
14 12 20 19 15 19 19 18 22 22 21 23 24 24 20 25
22 27 28 27 28 29 30 30 30 30 31 30 30 30 30 31
31 32 32 31 31 32 33 33 33 33 34 36 36 36 36 36
23 26 29 32 38 43 43 36 40 39 39 38 41 39 37 40
38 36 38 55 30 0 0 5 5 7 8 10 53 50 42 42
42 42 42 41 41 40 40 40 39 39 39 38 38 37 38 37
37 36 36 36 35 34 34 33 33 33 32 31 30 30 30 30
28 27 28 27 23 19 17 18 13 16 18 18 18 21 20 18
17 11 11 9 10 11 17 17 12 16 17 18 19 19 20 25
24 25 27 26 28 30 30 30 30 30 30 30 29 32 32 32
33 32 33 33 33 33 34 34 34 35 35 35 36 36 36 36
20 20 21 21 21 21 22 23 26 27 28 27 28 29 31 33
34 34 34 44 42 32 27 21 15 13 13 24 53 49 41 41
41 41 41 40 40 40 40 40 39 39 38 38 38 38 38 37
36 36 36 35 35 35 34 33 31 30 29 30 28 27 24 23
25 26 24 21 15 13 12 12 4 5 10 12 15 14 14 18
14 7 6 6 3 4 1 3 6 2 3 2 4 8 11 16
17 21 24 24 26 28 29 30 30 30 30 31 31 33 31 32
33 32 32 32 33 33 33 34 35 34 35 35 36 36 36 36
19 19 20 20 20 19 20 20 19 20 19 20 21 22 26 30
35 39 35 31 32 34 36 38 40 42 41 41 49 46 41 41
41 41 41 41 41 41 40 40 39 38 38 38 38 37 37 36
37 36 36 36 34 33 32 27 24 20 15 12 13 16 20 19
14 14 11 11 7 1 0 0 0 0 0 2 4 2 2 1
0 0 1 1 1 1 0 0 0 0 0 0 0 0 1 3
11 16 15 17 21 27 31 31 31 30 31 31 31 32 32 32
33 32 33 33 34 34 34 35 35 35 35 35 36 36 36 36
31 28 25 22 22 22 20 19 18 19 18 19 19 18 19 19
19 19 21 21 21 23 26 29 33 36 38 40 41 43 42 42
42 41 41 41 40 40 39 39 39 39 39 38 38 38 37 37
36 36 36 34 34 30 21 18 8 3 3 2 1 1 3 4
11 9 6 0 0 0 0 0 0 0 0 0 0 0 0 0
0 0 0 0 0 0 0 0 0 0 0 0 0 0 0 3
4 7 10 14 15 20 27 30 31 30 31 33 33 34 32 32
33 33 33 34 34 34 34 34 35 35 35 35 37 36 37 36
45 45 38 39 37 38 38 32 28 26 15 16 17 18 19 19
20 20 20 18 18 18 18 19 19 22 25 29 34 38 41 42
42 41 41 41 41 41 40 40 39 38 39 39 38 38 38 37
37 36 35 35 31 16 12 4 9 3 2 0 2 0 0 0
0 2 1 1 0 0 0 0 0 0 0 0 0 0 0 0
0 0 0 0 0 0 0 0 0 0 0 0 0 0 0 0
2 2 2 7 11 19 20 25 31 31 32 32 32 33 32 33
33 33 34 34 33 34 35 36 35 36 36 36 36 37 36 36
24 25 28 28 29 29 31 43 34 46 47 41 35 31 37 36
33 31 29 25 19 18 17 17 18 17 17 17 19 19 21 24
27 31 35 37 40 40 39 39 39 39 39 39 38 38 38 37
37 36 36 34 23 14 6 8 7 1 2 0 0 0 0 0
0 0 0 0 0 0 0 0 0 0 0 0 0 0 0 0
0 0 0 0 0 0 0 0 0 0 0 0 0 0 0 0
0 0 2 3 6 7 16 17 22 30 32 32 32 34 33 33
32 32 34 34 34 35 35 35 36 36 36 36 37 36 36 36
24 22 23 23 21 22 22 24 27 42 40 30 33 31 35 34
38 42 61 61 32 24 21 19 19 19 18 18 18 17 17 19
17 18 19 18 19 24 35 39 39 39 38 38 38 38 38 37
36 36 35 32 19 17 10 11 5 0 0 0 0 0 0 0
0 0 0 0 0 0 0 0 0 0 0 0 0 0 0 0
0 0 0 0 0 0 0 0 0 0 0 0 0 0 0 0
0 0 0 0 2 6 4 12 15 25 30 31 31 32 31 31
31 34 33 34 34 35 36 36 35 36 35 35 36 35 35 36
23 23 23 22 22 19 18 20 22 38 26 0 0 3 37 37
39 42 57 61 55 52 48 43 48 44 40 36 22 22 18 18
18 18 19 15 9 15 32 40 39 39 39 38 38 38 38 38
36 37 35 31 22 19 9 0 0 0 0 0 0 0 0 0
0 0 0 0 0 0 0 0 0 0 0 0 0 0 0 0
0 0 0 0 0 0 0 0 0 0 0 0 0 0 0 0
0 0 0 0 0 0 4 3 13 18 26 27 30 32 33 33
32 35 34 35 35 34 35 34 35 35 34 35 35 35 35 35
23 22 24 23 23 21 21 21 22 37 27 0 0 3 32 35
37 40 53 58 59 60 58 49 56 57 54 52 31 33 37 34
26 22 19 17 15 17 29 40 40 39 39 38 38 39 39 37
37 36 33 33 20 15 0 0 0 0 0 0 0 0 0 0
0 0 0 0 0 0 0 0 0 0 0 0 0 0 0 0
0 0 0 0 0 0 0 0 0 0 0 0 0 0 0 0
0 0 0 0 0 0 0 3 4 13 17 24 29 31 33 32
32 33 34 34 35 35 35 35 35 36 35 36 36 36 36 36
29 26 25 24 20 20 24 22 22 42 29 0 0 1 11 7
7 15 51 55 55 56 51 49 49 55 57 55 37 41 46 47
41 49 47 40 16 17 29 40 39 39 39 38 46 49 46 43
40 38 35 31 15 0 0 0 0 0 0 0 0 0 0 0
0 0 0 0 0 0 0 0 0 0 0 0 0 0 0 0
0 0 0 0 0 0 0 0 0 0 0 0 0 0 0 0
0 0 0 0 0 0 0 0 1 5 14 16 22 27 28 32
34 34 35 35 36 36 35 36 36 36 36 36 36 35 36 36
13 11 16 6 4 5 16 13 15 42 30 0 0 5 16 4
0 6 52 53 20 14 27 22 30 39 45 52 42 44 47 50
49 54 54 52 21 18 32 41 41 40 39 39 47 51 48 44
42 43 44 31 7 0 0 0 0 0 0 0 0 0 0 0
0 0 0 0 0 0 0 0 0 0 0 0 0 0 0 0
0 0 0 0 0 0 0 0 0 0 0 0 0 0 0 0
0 0 0 0 0 0 0 0 0 1 13 14 25 28 28 29
35 34 34 35 36 36 35 35 36 35 36 36 36 36 36 36
0 0 0 0 0 0 1 2 2 40 30 1 9 11 44 18
0 9 52 54 16 3 5 0 0 3 1 30 44 46 49 50
52 54 56 55 25 18 34 43 42 41 41 39 46 50 49 47
46 49 45 28 0 0 0 0 0 0 0 0 0 0 0 0
0 0 0 0 0 0 0 0 0 0 0 0 0 0 0 0
0 0 0 0 0 0 0 0 0 0 0 0 0 0 0 0
0 0 0 0 0 0 0 0 0 1 10 18 19 23 30 31
30 35 35 35 36 37 36 36 36 36 36 35 36 36 36 36
7 0 3 0 0 0 0 0 1 42 32 5 17 24 39 32
14 5 53 55 16 0 0 0 1 16 7 32 44 45 45 49
52 53 53 52 27 18 34 46 41 42 43 45 45 12 19 35
43 46 46 22 0 0 0 0 0 0 0 0 0 0 0 0
0 0 0 0 0 0 0 0 0 0 0 0 0 0 0 0
0 0 1 0 0 0 0 0 0 0 0 0 0 0 0 0
0 0 0 0 0 0 0 0 0 0 4 15 18 27 25 30
28 32 35 35 35 37 36 36 36 36 36 36 37 37 37 37
14 3 1 0 0 0 0 0 0 42 35 2 16 30 36 17
23 3 52 59 22 0 0 0 4 22 13 33 35 10 20 28
40 45 47 50 29 19 33 47 40 36 41 49 48 3 0 8
19 18 20 13 0 0 0 0 0 0 0 0 0 0 0 0
0 0 0 0 0 0 0 0 0 0 0 0 0 0 0 0
0 0 0 0 0 0 0 0 0 0 0 0 0 0 0 0
0 0 0 0 0 0 0 0 0 0 1 8 16 25 27 24
31 30 35 35 36 38 36 36 36 36 37 37 37 37 37 36
25 13 10 7 1 2 2 0 2 48 38 0 3 17 31 19
6 1 50 59 25 0 2 0 1 11 6 31 33 0 0 2
2 6 5 31 31 19 20 29 38 44 47 52 50 6 0 4
11 13 13 5 0 0 0 0 0 0 0 0 0 0 1 1
0 0 0 0 0 0 0 0 0 0 0 0 0 0 0 0
0 0 0 0 0 0 0 0 0 0 0 0 0 0 0 0
0 0 0 0 0 0 0 0 0 0 3 6 9 23 29 27
30 28 35 36 36 37 36 36 37 36 37 37 37 38 37 37
22 15 16 17 1 0 1 0 0 43 40 0 0 0 2 0
0 1 50 61 29 0 0 0 2 0 0 30 32 1 0 0
0 0 0 26 32 19 7 0 1 5 14 24 36 8 0 1
3 3 4 0 0 0 0 0 0 0 0 0 0 0 0 1
0 0 0 1 1 0 0 0 0 0 0 0 0 0 0 0
0 0 0 0 0 0 0 0 0 0 0 0 0 0 0 0
0 0 0 0 0 0 0 0 0 0 0 3 10 14 23 31
26 28 34 36 37 37 37 38 37 37 38 37 38 37 38 38
26 21 16 19 0 0 0 0 0 34 42 0 0 0 0 0
0 0 47 61 33 0 2 4 13 3 0 29 33 2 2 7
4 0 0 25 33 18 7 0 0 0 0 0 10 9 0 0
0 0 0 0 0 0 0 0 0 0 0 0 0 0 0 0
0 0 0 0 0 0 0 0 0 0 0 0 0 0 0 0
0 0 0 0 0 0 0 0 0 0 0 0 0 0 0 0
0 0 0 0 0 0 0 0 0 0 0 3 9 14 13 23
26 26 34 37 37 37 37 37 37 37 37 38 38 38 38 38
35 11 10 8 0 0 0 0 2 37 43 1 0 0 0 0
0 0 44 61 40 0 7 12 25 9 0 29 33 2 3 7
16 0 0 24 34 18 7 0 0 0 0 0 6 9 0 0
0 0 0 0 0 0 0 0 0 0 0 0 0 1 0 0
0 0 1 0 0 0 0 0 0 0 0 0 0 0 0 0
0 0 0 0 0 0 0 0 0 0 0 0 0 0 0 0
0 0 0 0 0 0 0 0 0 0 0 0 9 17 13 19
24 25 33 37 38 38 36 37 37 38 38 39 38 38 39 38
32 0 0 0 1 0 1 0 1 38 49 39 34 34 32 29
26 24 50 61 43 2 2 4 1 0 0 27 34 2 4 2
14 0 0 23 33 18 8 0 0 2 2 0 4 8 0 0
0 0 0 0 0 0 0 0 0 0 0 0 0 0 0 0
0 0 2 1 0 0 0 0 0 0 0 0 0 0 0 0
0 0 0 0 0 0 0 0 0 0 0 0 0 0 0 0
0 0 0 0 0 0 0 0 0 0 0 0 7 18 17 12
23 26 28 37 36 37 37 37 37 37 38 38 39 38 38 37
30 0 0 0 0 0 0 0 0 34 60 58 55 50 48 44
40 34 29 32 17 0 0 8 7 0 0 25 30 0 2 0
1 0 0 23 32 17 8 0 4 7 7 0 3 9 1 0
0 0 0 0 0 0 0 0 0 0 0 0 0 0 0 1
0 0 0 0 0 0 0 0 0 0 0 0 0 0 0 0
0 0 0 0 0 0 0 0 0 0 0 0 0 0 0 0
0 0 0 0 0 0 0 0 0 0 0 0 0 10 20 15
13 23 29 36 36 36 37 37 37 38 39 39 39 39 38 39
33 3 0 0 0 0 0 0 0 41 56 24 25 27 31 41
48 49 41 32 21 13 9 9 7 1 0 26 29 0 5 3
0 0 0 24 32 19 8 8 6 4 2 0 3 11 0 0
0 0 0 0 0 0 0 0 0 0 0 0 0 0 0 0
0 0 0 0 0 0 0 0 0 0 0 0 0 0 0 0
0 0 0 0 0 0 1 0 0 0 0 0 0 0 0 0
0 0 0 0 0 0 0 0 0 0 0 0 0 4 11 13
10 11 22 35 38 37 38 37 38 38 39 39 38 39 37 39
33 3 0 0 1 0 0 0 0 40 52 3 0 0 0 1
5 11 45 39 47 50 47 48 48 43 39 41 40 13 9 11
9 6 4 27 31 19 12 7 0 0 1 0 4 22 7 5
3 0 0 0 0 0 0 0 0 0 0 0 0 0 0 0
1 0 0 0 0 0 0 0 0 0 0 0 0 0 0 0
0 0 0 0 0 0 2 2 2 0 0 0 0 0 0 0
0 0 0 0 0 0 0 0 0 0 0 0 0 4 15 14
23 12 18 32 35 35 38 37 38 38 39 39 39 39 37 36
38 12 7 3 3 0 0 0 1 42 53 9 0 0 1 0
0 0 46 56 22 16 24 31 36 39 45 47 64 55 34 43
44 45 42 43 29 19 11 0 0 0 0 0 6 49 47 31
18 0 0 0 0 0 0 0 0 0 0 0 0 0 0 0
0 0 0 0 0 0 0 0 0 0 0 0 0 0 0 0
0 0 0 0 0 1 4 6 1 1 3 0 0 0 0 0
0 0 0 0 0 0 0 0 0 0 0 0 0 0 14 17
18 15 17 32 36 37 37 38 39 38 38 38 38 38 36 38
25 4 4 10 12 9 4 2 7 45 52 14 0 0 3 17
5 0 42 57 25 14 13 19 16 5 11 59 68 49 35 46
53 52 54 52 29 18 12 0 0 0 0 0 6 54 50 39
16 0 0 0 0 0 0 0 0 0 0 0 0 0 0 0
0 0 0 0 0 0 0 0 0 0 0 0 0 0 0 0
0 0 0 0 0 1 5 7 4 2 5 0 1 1 0 0
0 0 0 0 0 0 0 0 0 0 0 0 0 2 8 15
18 16 16 29 36 38 39 38 38 36 33 30 29 24 21 23
32 1 0 0 5 16 7 2 20 49 49 17 22 11 17 15
3 0 39 58 20 3 9 4 3 1 10 60 62 40 37 49
53 53 57 56 31 19 22 20 13 7 2 1 5 48 41 34
5 0 0 0 0 0 0 0 0 0 0 0 0 0 0 0
0 0 0 0 0 0 0 0 0 0 0 0 0 0 0 0
0 0 0 1 3 2 2 9 6 4 9 2 0 5 0 0
0 0 0 0 0 0 0 0 0 0 0 0 0 0 2 11
2 11 14 29 32 31 28 24 22 20 20 20 20 22 22 20
39 2 0 0 2 8 3 9 28 54 49 18 32 17 13 15
9 0 38 56 14 0 4 0 0 0 10 58 54 17 7 15
16 20 24 40 33 20 29 52 53 50 45 40 38 46 35 22
0 0 0 0 0 0 0 0 0 0 0 0 0 0 0 1
0 0 0 0 0 0 0 0 0 0 0 0 0 0 0 0
0 0 0 0 2 2 1 6 9 12 12 6 3 3 1 1
0 0 0 0 0 0 0 0 0 0 0 0 0 0 2 0
6 10 8 17 20 20 21 22 23 25 25 27 27 29 29 28
46 3 0 5 20 20 17 20 41 60 49 9 9 2 9 31
16 0 40 55 13 0 0 0 0 0 9 57 57 15 0 1
0 0 0 24 35 21 31 54 57 55 54 55 56 43 10 4
1 0 0 0 0 0 0 0 0 0 0 0 0 1 0 0
0 0 0 0 0 0 0 0 0 0 0 0 0 0 0 0
0 0 0 0 2 2 4 8 8 11 8 5 9 8 2 0
0 0 0 0 0 0 0 0 0 0 0 0 0 0 0 0
7 10 10 20 27 28 29 31 31 32 34 34 35 36 35 32
47 3 0 4 32 34 47 51 41 54 58 41 33 33 34 25
10 0 43 55 15 16 13 0 0 0 4 55 58 14 0 0
0 2 4 23 37 21 28 49 53 53 55 57 57 39 2 0
0 0 0 0 0 0 0 0 0 0 0 0 2 2 1 0
0 0 0 0 0 0 0 0 0 0 0 0 0 0 0 0
0 0 0 1 1 0 0 4 6 11 5 8 12 3 2 0
0 0 3 6 0 1 0 0 0 0 0 0 0 0 0 0
6 14 14 28 35 35 35 36 37 36 37 37 37 37 37 29
47 3 0 2 27 30 43 43 5 30 59 49 21 42 53 30
6 0 46 60 18 26 14 0 0 0 2 48 53 11 0 0
0 25 33 33 39 33 31 38 41 42 42 43 50 33 0 0
0 0 0 0 0 0 0 0 0 0 0 0 2 1 0 0
0 0 0 0 0 0 0 0 0 0 0 0 0 0 0 0
0 0 0 0 1 0 0 6 7 11 10 16 13 8 4 1
0 0 13 15 6 2 2 0 0 0 0 0 0 2 0 0
1 8 12 30 36 37 37 38 38 32 26 32 34 34 34 27
47 4 0 7 43 42 36 28 6 16 54 46 12 33 50 25
9 0 46 61 20 10 14 1 0 0 1 43 50 10 0 0
0 22 32 31 33 28 27 26 27 35 37 37 49 34 0 0
0 0 0 0 0 0 0 0 0 0 0 0 4 1 0 0
0 0 0 0 0 0 0 0 0 0 0 1 0 0 0 0
0 0 0 0 1 0 0 6 10 10 13 16 14 9 5 2
1 3 22 25 10 7 6 1 0 3 0 0 1 1 0 0
0 0 0 10 22 39 32 28 26 5 3 0 2 2 7 24
50 15 9 8 23 50 45 40 17 10 50 35 5 18 45 11
10 0 44 62 22 0 5 0 0 0 2 45 50 9 1 2
0 5 12 20 28 26 27 29 31 36 39 42 49 34 7 0
0 0 0 0 0 0 0 0 0 0 0 2 3 0 0 1
1 1 1 0 0 0 0 2 1 0 1 2 3 0 0 0
0 0 0 3 5 0 0 10 18 20 24 24 23 14 9 6
7 9 13 27 19 13 4 3 2 5 0 2 1 0 0 0
0 0 0 4 11 13 2 0 0 0 5 0 0 0 0 16
51 43 50 42 19 16 39 46 36 10 24 30 10 7 35 3
2 0 43 60 22 0 0 0 0 0 3 48 51 8 0 4
0 0 0 9 24 24 26 8 9 14 20 27 32 30 3 0
0 0 0 0 0 0 0 0 0 0 0 4 1 0 0 1
1 0 0 0 0 0 0 0 0 0 0 1 1 2 0 0
0 0 0 9 10 1 0 9 37 40 18 17 23 14 10 17
20 13 15 36 38 25 8 4 1 1 0 2 1 0 0 0
0 0 0 0 0 0 0 0 0 0 11 6 0 0 0 12
55 53 49 33 50 27 2 5 3 0 0 4 26 12 8 1
16 12 44 55 19 0 0 0 0 0 4 51 51 7 0 4
8 0 0 11 33 31 29 3 0 0 0 0 0 19 0 0
0 0 0 0 0 0 0 0 0 0 0 6 0 1 1 2
0 2 1 0 0 0 0 0 0 0 2 1 2 1 0 1
0 2 1 17 14 1 2 5 31 46 24 11 13 12 19 31
17 15 23 41 57 38 17 6 2 0 0 0 0 0 0 0
0 0 0 0 0 0 0 0 2 0 0 0 0 0 0 18
61 59 50 12 53 56 20 0 0 1 0 0 0 2 11 3
44 50 52 50 32 21 17 10 9 5 8 51 51 8 0 0
11 1 0 10 41 33 29 5 0 0 1 0 0 17 0 0
0 0 0 0 0 0 0 0 0 0 0 4 1 2 3 2
2 6 5 2 2 0 0 0 0 0 0 2 5 1 1 1
1 3 8 20 10 6 4 8 22 33 18 8 11 16 11 8
5 16 38 66 66 56 23 10 6 0 0 0 0 0 0 0
0 16 33 33 17 28 20 0 3 0 0 0 0 0 0 25
65 63 55 7 47 57 15 3 0 2 3 0 7 23 48 32
48 56 56 51 51 54 46 34 46 40 37 43 43 19 1 0
13 10 4 7 42 32 29 5 0 5 9 1 0 18 0 0
0 0 0 0 0 0 0 0 0 0 0 4 6 6 9 6
3 6 9 3 3 1 0 0 0 0 0 6 7 5 2 0
3 9 16 17 13 11 14 24 19 10 13 16 19 17 10 5
9 27 52 67 69 69 41 14 5 0 0 0 0 0 0 0
0 27 39 39 38 10 4 0 2 0 3 14 14 13 22 33
60 61 60 11 37 58 16 0 0 5 38 32 48 46 57 56
55 56 58 58 42 21 15 11 14 19 17 30 40 38 35 26
29 31 25 23 45 28 27 5 1 15 20 7 0 19 7 0
0 0 0 0 0 0 0 0 0 0 0 3 8 6 11 4
3 7 11 3 5 4 0 0 0 0 0 7 7 6 2 1
6 18 14 13 12 14 30 44 35 34 32 32 23 18 15 16
25 30 36 59 69 70 59 22 8 0 0 0 0 0 0 0
3 33 37 39 15 0 0 3 0 0 12 41 39 38 37 34
11 15 48 21 30 59 46 21 14 24 51 55 50 35 46 54
37 35 42 49 33 0 0 0 1 19 11 28 41 37 28 29
37 43 48 50 49 33 26 7 1 16 18 9 0 25 42 10
0 0 0 0 0 0 0 0 0 0 0 0 5 4 7 3
3 8 10 4 3 3 0 1 0 0 1 2 3 6 3 3
5 9 12 16 23 27 49 60 63 76 79 65 46 40 38 38
41 33 37 54 66 69 62 29 1 0 0 0 0 0 0 0
10 35 37 39 12 0 0 21 0 0 10 40 39 39 38 37
0 1 40 43 28 59 57 56 54 55 55 52 37 6 13 23
6 0 0 19 35 0 0 3 3 12 16 34 42 33 3 0
5 11 22 50 48 32 26 10 0 6 4 3 0 23 46 31
0 0 0 0 0 0 0 0 0 0 0 0 1 0 2 1
0 3 4 2 3 0 0 2 0 0 0 0 2 4 7 4
5 6 18 28 38 50 75 91 96 101 101 92 88 72 65 53
48 44 43 54 67 66 47 18 0 0 0 0 0 0 0 0
19 35 38 39 15 0 0 4 0 0 8 40 39 39 38 37
4 10 40 49 21 56 56 57 58 57 54 48 32 5 0 1
5 0 0 16 38 0 3 32 33 17 8 34 44 32 1 3
23 25 24 49 45 30 28 25 8 5 3 2 0 20 45 38
4 0 0 0 0 0 0 0 0 0 0 0 0 0 2 1
0 0 1 4 0 0 1 3 0 0 0 0 1 4 10 9
16 7 19 36 54 86 97 100 105 108 114 111 106 88 75 59
54 54 49 59 65 55 29 9 1 0 0 0 0 0 0 4
26 32 38 38 16 0 0 0 0 0 5 40 40 39 38 38
9 12 36 51 14 56 59 59 58 55 22 16 13 4 1 2
16 0 0 16 38 1 23 40 27 3 0 35 46 31 0 3
15 36 36 49 38 27 29 25 3 3 2 0 0 19 41 36
10 0 0 0 0 0 0 0 0 2 4 1 0 3 0 2
0 0 1 2 0 0 2 1 0 0 0 0 1 6 16 11
23 28 16 54 80 101 111 115 114 114 115 117 107 96 79 61
59 62 63 70 58 41 29 25 16 1 0 0 0 0 0 16
24 33 33 31 13 0 0 1 0 2 5 40 40 40 40 39
2 10 26 52 6 37 42 44 47 50 45 48 45 43 42 38
37 1 0 16 38 5 7 43 33 0 0 37 48 32 0 1
3 11 32 52 38 28 32 23 4 2 4 0 0 21 46 35
13 0 0 0 0 0 0 0 0 9 12 8 2 3 1 2
2 0 0 0 0 1 0 2 1 3 7 7 9 11 29 25
36 47 51 59 93 112 115 117 116 117 117 115 107 95 79 60
62 70 77 75 52 44 53 55 44 7 0 0 0 0 6 28
19 6 2 1 0 0 0 1 1 2 3 39 40 39 40 40
2 19 29 52 4 0 0 0 1 4 27 37 24 9 11 14
11 1 0 15 38 1 1 27 17 7 1 38 50 34 0 0
0 0 25 53 39 28 28 36 41 39 35 34 32 39 50 37
15 0 0 0 0 0 0 0 7 12 18 16 4 1 2 3
1 0 1 0 1 0 0 4 8 15 32 43 56 41 51 62
79 98 93 101 114 119 110 111 110 112 110 106 101 90 74 57
63 77 87 76 49 56 66 67 55 10 0 1 2 9 24 39
21 28 19 15 7 1 0 0 2 7 5 30 39 40 41 41
0 15 25 51 9 0 0 0 0 0 26 41 26 0 0 0
0 0 0 13 39 0 0 0 0 5 0 36 51 33 0 0
0 0 21 54 40 28 30 42 59 60 58 60 61 60 56 42
11 0 0 0 0 0 0 0 6 9 12 11 5 1 3 6
5 3 3 0 2 0 1 10 21 38 69 91 89 85 84 99
113 123 124 124 128 119 112 103 96 90 85 80 71 58 44 45
70 88 97 77 53 66 71 70 60 17 7 12 22 23 35 39
56 63 40 25 6 0 0 0 0 2 0 12 21 39 40 39
0 2 5 46 16 0 0 0 0 0 31 48 34 0 0 0
0 0 0 12 39 0 0 0 0 0 0 35 51 30 0 0
0 0 21 55 42 27 30 42 60 60 60 60 62 62 56 23
4 0 0 0 0 0 0 0 0 0 5 8 5 3 9 8
7 5 5 2 2 4 4 15 38 65 86 112 109 115 124 125
132 136 133 135 130 126 113 89 79 66 43 29 13 4 9 38
80 99 103 80 62 67 63 62 58 31 29 30 30 32 40 39
22 18 17 2 0 0 0 0 0 0 0 21 8 14 28 40
1 0 0 39 29 4 3 4 5 5 34 54 47 2 0 0
0 0 0 10 38 0 0 0 0 0 0 32 51 31 0 0
0 0 17 51 38 26 31 30 34 34 35 35 36 39 40 6
0 0 0 0 0 0 0 1 9 5 8 5 5 3 11 9
11 13 6 7 6 4 8 23 58 93 93 113 120 132 136 140
135 137 138 138 136 135 125 112 111 103 94 67 42 27 34 61
94 104 111 90 63 45 16 30 48 37 37 34 31 31 30 28
15 5 2 0 0 0 0 0 0 0 0 5 8 1 18 40
2 0 0 30 54 38 29 38 40 43 53 56 42 2 0 0
0 0 0 9 38 0 0 0 0 0 0 31 52 34 0 0
0 0 14 50 40 25 29 31 40 39 38 37 36 36 36 11
1 0 0 0 0 0 1 4 9 8 12 13 22 31 18 12
14 15 6 6 5 2 13 39 68 96 92 115 126 137 140 141
138 141 142 142 142 135 136 125 118 114 108 99 83 61 60 82
102 107 118 104 61 47 6 0 14 38 36 22 9 8 10 9
5 1 4 0 0 0 0 0 0 0 0 5 8 3 15 41
3 4 3 24 60 39 44 46 46 50 57 42 7 0 0 0
0 0 0 8 41 6 6 7 10 14 18 39 51 34 0 0
0 0 15 55 44 24 29 33 43 44 44 44 44 44 39 12
2 0 0 0 1 0 2 2 13 18 24 32 39 37 15 18
21 16 7 8 14 8 23 53 74 88 97 116 126 137 138 142
139 141 138 140 141 141 140 136 121 113 109 99 80 69 78 89
100 109 120 118 79 58 39 6 10 22 15 7 4 4 4 4
5 4 10 7 8 0 0 0 0 0 0 4 8 3 13 39
49 53 58 61 64 26 26 31 36 43 53 47 22 17 17 14
12 11 11 19 46 40 41 43 46 49 51 49 39 26 11 9
6 4 17 53 40 23 31 35 45 46 46 46 47 47 42 10
1 0 1 1 2 2 1 0 24 29 40 49 41 21 15 25
30 20 13 19 20 16 30 56 83 83 89 100 117 127 130 143
146 143 142 137 139 142 144 139 127 113 108 100 88 81 87 94
108 122 129 128 101 60 60 30 7 8 9 10 11 12 12 12
12 10 4 5 19 0 0 0 0 0 0 4 9 5 12 39
64 67 71 71 69 18 0 0 2 6 36 55 50 51 50 48
46 46 47 49 50 47 47 49 49 49 49 48 45 44 44 42
41 37 38 46 42 39 41 41 43 44 44 45 45 45 42 16
1 0 1 5 2 3 0 0 24 41 65 55 47 37 56 19
22 20 22 32 29 23 37 55 84 98 95 95 98 112 126 141
147 144 144 142 144 145 146 143 131 115 106 98 91 86 93 99
112 122 129 131 116 76 58 33 13 13 13 14 13 13 13 13
12 3 2 6 21 0 0 0 0 2 0 3 7 11 13 34
61 62 68 68 67 31 0 0 1 4 36 57 57 56 56 57
53 55 56 52 39 31 39 44 44 44 43 43 44 43 43 43
43 43 43 42 42 42 41 41 42 42 42 41 41 41 40 28
3 0 5 4 0 0 0 0 19 48 85 59 58 64 68 21
29 28 34 45 38 26 34 64 84 99 110 118 124 119 125 142
146 145 144 143 144 145 148 144 131 114 104 97 92 92 95 102
113 121 127 132 124 91 74 47 10 8 7 5 4 2 1 8
13 12 2 10 10 0 0 0 0 13 4 4 12 17 17 32
35 31 21 16 15 8 0 0 1 5 37 58 57 54 54 54
52 54 56 33 23 26 38 43 44 44 43 43 43 43 43 43
43 42 43 42 42 41 41 41 41 41 41 41 41 41 40 25
0 0 5 0 0 0 0 0 8 52 94 76 76 67 28 25
15 38 41 45 51 34 32 68 91 110 123 130 132 130 137 137
140 143 144 144 143 146 144 141 130 112 103 96 93 94 95 107
119 123 129 129 126 107 78 56 1 0 0 0 0 0 0 11
14 12 9 8 3 0 0 0 0 3 0 5 11 10 12 34
18 24 6 0 0 0 0 0 0 4 38 49 29 29 29 27
26 29 31 23 23 25 36 43 42 36 35 34 33 32 31 29
30 29 27 27 25 25 24 24 23 23 23 23 26 33 38 26
0 0 0 0 0 0 0 0 1 35 68 93 74 46 31 38
42 63 64 86 69 39 42 71 84 106 119 136 139 137 141 144
144 143 147 143 142 143 136 137 126 114 102 94 92 94 97 114
127 129 130 131 129 118 86 62 2 0 0 0 0 0 0 14
14 13 11 15 14 16 16 18 18 19 20 23 24 25 22 24
12 23 6 0 0 0 0 0 0 3 40 41 0 1 1 0
0 5 5 18 23 25 34 43 38 15 2 1 1 1 0 0
0 0 0 0 0 0 0 0 0 0 0 0 6 35 40 32
4 1 0 0 0 0 0 0 0 19 42 93 97 68 35 44
62 100 88 91 92 49 49 78 78 95 114 132 137 136 139 141
141 143 142 141 140 140 137 132 126 113 102 93 94 94 99 119
134 134 132 128 127 122 100 65 3 0 0 0 0 0 3 15
14 13 12 46 18 23 26 32 29 26 31 26 25 24 17 18
12 25 8 0 0 0 0 0 0 0 40 42 1 1 0 2
0 6 13 20 23 25 33 42 39 20 0 0 0 0 0 0
0 0 0 0 0 0 0 0 0 0 0 0 6 38 40 38
37 27 2 0 0 0 0 0 0 7 67 77 89 91 102 82
56 101 113 106 101 57 58 85 87 107 119 128 133 134 136 138
141 141 138 135 137 138 139 133 125 112 104 97 96 95 100 122
131 130 130 128 125 125 112 68 3 0 0 0 0 0 6 15
14 13 14 30 18 24 29 41 68 55 77 78 79 30 19 41
12 24 9 0 0 0 0 0 0 0 39 42 1 2 0 2
10 18 18 20 22 25 31 42 40 24 1 0 0 0 0 1
1 1 1 1 0 0 0 1 1 1 1 1 5 36 40 38
45 42 8 0 0 0 0 0 0 0 38 69 75 88 107 128
118 107 119 109 95 63 66 78 87 107 121 125 131 132 132 136
136 138 136 133 134 136 136 130 125 117 110 102 97 96 104 121
128 125 122 122 126 125 115 78 2 0 0 0 0 0 10 15
15 15 12 27 19 25 32 50 101 73 101 99 96 31 18 87
12 24 15 4 0 0 0 0 0 0 35 41 1 1 4 15
19 18 17 19 22 24 30 42 40 28 2 0 0 0 1 1
1 2 2 2 2 2 1 1 1 0 0 0 2 35 42 37
38 39 13 0 0 0 0 0 0 0 2 34 69 90 118 125
126 119 114 110 109 88 71 80 89 104 120 127 126 130 130 130
134 135 134 133 136 134 130 128 128 123 112 103 99 97 101 112
116 114 116 118 124 129 122 99 15 0 0 0 0 0 13 15
15 17 7 27 29 34 39 38 58 42 47 43 38 31 30 50
12 25 19 13 0 0 0 0 0 0 34 40 3 0 3 16
17 18 17 19 22 24 29 41 41 31 5 0 0 0 1 1
1 2 2 1 2 2 1 1 0 2 0 1 2 32 43 36
35 33 23 0 0 0 0 1 0 0 0 12 68 105 125 129
126 130 111 109 112 104 87 85 101 111 120 124 127 126 125 126
130 133 131 130 136 134 132 132 130 123 114 104 99 98 91 109
117 119 121 121 126 131 129 106 41 0 0 0 0 1 15 15
15 19 2 9 35 38 41 28 28 26 26 21 24 24 27 27
10 22 20 9 0 0 0 0 0 0 34 38 3 0 1 15
17 18 17 18 22 24 27 40 41 33 7 0 0 1 0 1
1 1 1 1 2 2 2 2 1 0 1 0 1 28 43 37
23 10 11 1 1 0 0 0 0 0 0 1 55 121 137 139
133 135 102 105 108 106 101 102 108 111 120 125 128 128 125 126
128 131 131 133 135 133 134 132 128 124 114 104 100 96 87 115
128 128 125 126 139 140 129 103 54 0 0 0 0 4 15 14
16 14 0 11 29 36 41 28 28 22 26 20 19 22 28 28
8 20 20 8 5 3 1 0 0 0 36 36 5 0 1 15
17 18 17 18 21 23 27 39 40 34 10 0 0 0 0 0
0 1 1 1 1 1 1 1 1 1 0 1 1 24 43 36
20 0 0 0 0 1 0 1 0 0 1 0 7 78 117 128
134 123 81 100 101 102 101 102 104 111 117 122 127 127 125 126
129 130 132 132 130 132 133 130 128 123 113 104 97 95 85 113
134 142 120 129 127 115 111 95 42 0 0 0 0 8 16 14
16 8 0 2 5 21 40 29 27 17 19 20 20 23 29 29
7 18 28 41 42 41 38 36 37 37 47 41 7 0 2 16
17 18 16 17 21 23 27 38 40 35 12 0 0 0 0 1
1 1 1 1 1 1 1 1 1 0 1 1 1 20 43 36
20 0 0 0 0 0 0 0 3 3 1 0 0 1 39 87
93 57 50 96 97 101 100 98 102 109 118 127 129 126 127 126
128 129 131 131 133 132 131 130 127 121 114 103 96 95 82 110
125 126 115 94 76 93 94 72 13 0 0 0 0 12 16 14
16 5 0 2 1 25 36 28 26 16 23 20 20 24 29 29
5 17 28 45 49 46 40 40 40 35 30 36 9 0 2 16
17 17 17 17 21 22 26 37 40 35 14 0 1 0 0 0
1 1 1 1 1 1 1 1 0 0 0 1 1 17 42 36
22 0 0 0 0 0 0 0 1 1 2 4 6 7 26 62
85 65 67 89 94 94 94 96 96 106 115 125 127 123 127 129
129 133 133 135 132 132 130 130 125 120 111 100 94 97 81 98
104 89 75 61 45 82 61 21 0 0 0 0 0 15 15 15
16 3 0 11 12 34 37 31 26 16 21 20 19 25 28 28
6 20 27 46 48 38 18 8 3 1 0 23 12 0 2 14
16 17 16 17 20 22 25 36 39 35 16 0 0 0 0 0
0 1 0 1 0 1 1 0 1 0 0 1 0 13 41 36
24 0 0 0 0 0 0 0 0 0 5 22 32 28 62 84
88 84 80 82 84 86 92 94 92 103 117 123 125 121 127 129
130 132 132 131 131 131 131 129 124 119 112 104 95 100 97 79
72 71 97 81 60 66 52 3 0 0 0 0 3 16 15 15
15 0 5 19 11 39 33 30 24 12 16 20 18 25 28 28
18 25 11 14 15 21 4 0 0 0 0 20 24 9 10 14
15 16 17 16 20 21 24 34 38 35 17 0 0 0 0 1
0 1 1 1 1 0 0 0 0 0 0 0 0 10 40 36
26 0 0 0 1 0 0 0 0 0 6 22 26 37 64 95
92 82 81 79 83 88 88 94 91 101 110 118 124 122 126 129
133 132 133 133 133 131 131 129 124 119 112 104 95 103 112 110
107 114 121 86 63 73 44 0 0 0 0 0 6 15 14 16
11 0 9 18 11 41 32 27 12 4 10 19 18 24 27 26
24 27 12 0 1 7 0 0 0 0 0 25 46 39 29 14
14 15 15 15 19 21 23 33 38 35 19 0 0 0 0 0
0 0 0 0 1 0 1 0 0 0 0 1 1 8 40 36
26 1 0 3 1 0 0 0 0 0 3 18 36 30 59 90
96 83 80 77 83 85 90 91 97 103 99 110 119 125 127 131
133 131 133 133 125 132 129 126 126 122 114 106 100 109 112 116
115 117 113 80 61 65 23 0 0 0 0 0 9 16 14 16
9 0 4 7 15 42 31 19 10 2 10 17 16 25 27 27
32 31 24 2 2 1 0 0 0 0 0 29 35 8 6 11
14 15 15 14 19 20 23 32 37 35 20 0 0 0 0 0
0 0 1 1 1 0 0 0 0 0 0 0 0 6 38 36
30 5 0 7 3 1 0 0 0 0 0 3 10 30 59 94
99 88 82 78 81 90 94 95 101 102 112 115 119 124 125 129
132 132 134 133 133 133 130 129 126 121 117 108 105 114 113 111
113 115 111 79 63 57 8 0 0 0 0 0 12 16 15 16
5 1 39 34 27 41 31 20 9 2 11 17 16 25 26 27
36 28 18 6 3 0 0 0 0 0 0 26 32 1 0 7
13 14 14 13 18 19 22 30 37 35 21 0 0 0 0 0
0 0 0 0 0 0 0 0 0 0 0 1 0 5 38 36
30 7 0 11 17 1 0 0 0 0 0 7 14 40 76 102
101 91 83 80 80 88 93 97 100 100 110 114 117 120 125 128
131 132 134 132 131 132 130 128 125 122 118 109 110 115 114 110
111 114 110 80 72 45 1 0 0 0 0 1 15 15 15 15
1 12 80 43 26 39 30 19 7 9 16 16 17 26 27 27
30 26 11 13 7 0 0 0 0 0 0 21 31 2 0 5
12 13 13 13 17 18 20 28 36 34 21 0 0 0 0 0
0 0 0 0 0 0 0 0 0 0 0 0 0 4 36 36
31 19 14 23 30 10 0 0 0 0 3 4 18 41 74 102
104 96 84 79 78 85 93 98 101 102 109 115 115 118 123 124
126 127 130 133 130 129 128 125 124 121 117 113 111 114 114 115
117 114 113 95 75 39 0 0 0 0 0 4 16 14 16 14
0 14 57 24 34 36 30 23 18 10 21 16 20 28 28 27
15 10 7 5 5 4 4 6 11 17 22 26 31 3 0 5
12 13 13 11 16 17 20 27 36 34 22 0 0 0 0 0
0 0 0 0 0 0 0 0 0 0 0 0 0 3 36 36
34 50 54 55 55 37 0 0 0 0 8 29 42 58 96 107
107 100 88 80 75 80 89 97 100 103 109 112 114 118 123 125
122 128 130 131 130 128 126 125 122 119 117 113 109 110 115 121
122 106 96 79 84 28 0 0 0 0 0 7 16 14 16 11
0 2 18 18 38 35 31 26 17 14 20 19 22 29 30 27
33 15 14 11 14 16 19 21 25 32 39 40 33 11 4 6
11 12 13 11 15 17 19 26 35 34 22 1 0 0 0 0
0 0 0 0 0 0 0 0 0 0 0 0 0 2 35 36
33 55 61 61 60 53 9 0 0 0 6 33 47 78 102 108
107 104 90 81 75 75 83 93 99 102 108 109 112 118 119 122
123 124 127 128 127 129 127 125 122 120 116 110 101 104 117 114
89 80 84 69 72 20 6 6 6 7 6 12 16 15 16 7
0 1 7 15 45 33 31 29 16 14 19 20 25 29 30 27
31 27 27 26 28 28 30 31 32 36 38 37 34 31 28 23
13 11 12 11 14 16 18 25 33 33 22 1 0 0 0 0
0 0 0 0 0 0 0 0 0 0 0 0 0 2 34 36
32 40 42 40 38 35 20 10 2 9 16 25 64 88 103 109
108 104 95 83 76 70 77 87 96 99 103 108 112 117 117 120
123 123 125 124 126 125 125 125 122 118 112 103 94 97 91 58
55 41 45 52 48 15 15 16 15 16 15 15 17 16 18 4
0 3 9 23 44 33 32 28 16 14 19 20 25 28 29 28
19 18 17 15 14 12 11 10 8 7 7 6 10 7 2 4
8 8 9 10 13 15 18 24 33 33 23 1 0 0 0 0
0 0 0 0 0 0 0 0 0 0 0 0 0 2 33 36
30 23 21 21 21 24 32 9 9 44 46 50 61 93 104 108
108 104 97 86 76 71 72 81 93 99 102 107 110 114 117 118
121 121 123 124 124 124 124 123 119 116 106 93 76 61 48 70
90 27 22 41 40 15 16 16 15 16 15 16 15 18 19 1
0 8 9 27 43 34 33 28 17 16 20 21 28 29 29 28
0 0 0 0 1 0 0 0 0 0 2 3 15 9 0 0
7 8 9 7 12 15 17 23 32 33 23 1 0 0 0 0
0 0 0 0 0 0 0 0 0 0 0 0 0 2 33 35
30 26 25 24 25 42 15 0 29 57 61 78 89 97 104 106
108 106 99 88 77 74 71 77 86 94 100 106 109 111 114 116
118 120 122 121 121 121 121 119 117 111 99 81 69 59 74 85
84 40 47 54 38 18 16 16 16 15 18 16 11 11 16 0
0 26 30 36 43 36 35 27 16 16 15 21 28 29 29 28
0 0 0 6 7 0 0 0 0 0 3 3 13 11 0 0
6 8 8 9 12 15 17 23 32 32 23 1 0 0 0 0
0 0 0 0 0 0 0 0 0 0 0 0 0 3 36 37
30 30 30 29 46 32 1 3 50 62 71 83 91 94 101 103
106 105 101 90 83 77 73 75 80 91 99 104 108 110 112 112
113 115 116 117 118 117 117 117 112 102 91 84 93 90 94 103
92 78 78 69 89 68 63 58 36 44 42 40 37 18 1 0
22 40 20 42 44 41 56 50 41 19 25 92 70 50 66 70
0 0 0 10 9 0 0 1 1 0 3 10 15 8 0 0
1 6 9 11 12 13 15 20 30 31 22 1 0 0 0 0
0 1 2 3 4 6 8 10 12 13 16 18 20 23 35 33
30 30 30 36 25 6 0 21 60 67 77 85 89 94 98 103
106 105 102 97 89 81 78 75 75 82 92 100 104 108 110 112
113 113 115 114 113 112 112 110 103 94 88 91 103 105 98 101
109 96 85 78 135 145 130 105 37 14 13 13 16 31 31 5
99 143 32 46 48 44 101 106 94 20 29 91 98 83 103 103
3 4 4 3 2 7 10 10 11 12 9 6 8 3 0 0
2 2 8 10 12 13 15 20 30 31 27 14 14 16 19 22
24 26 27 28 29 30 31 31 31 31 31 31 31 30 30 30
29 30 36 70 37 0 0 47 67 73 81 89 92 94 99 102
105 105 105 99 94 87 82 76 75 74 84 93 100 105 108 111
113 113 113 109 111 111 107 105 99 93 92 97 102 105 99 92
93 91 78 74 137 145 130 105 32 12 13 12 10 23 24 42
120 141 27 48 43 33 79 86 63 7 4 58 65 60 77 73
12 12 6 5 13 13 14 14 15 14 14 7 3 10 0 0
5 0 7 10 11 13 15 19 29 31 32 31 30 30 33 35
34 33 33 32 32 32 31 32 32 31 30 30 30 30 29 30
30 34 67 82 43 0 15 66 76 78 85 91 96 96 99 101
106 109 108 105 102 95 89 83 78 73 73 85 95 101 105 108
110 111 111 110 108 106 101 97 95 89 90 95 100 102 102 95
87 79 67 83 149 142 128 101 29 9 10 10 8 30 0 14
72 55 23 47 30 11 11 9 1 5 4 0 8 25 36 31
11 4 8 12 14 14 14 14 15 17 20 8 5 8 3 4
1 0 2 4 7 12 13 18 29 31 32 32 29 28 33 33
33 33 33 32 33 36 30 23 25 29 30 20 24 28 27 26
29 53 73 57 13 1 47 75 81 83 87 94 100 100 99 105
109 110 111 107 107 100 95 89 84 78 74 77 85 94 102 104
107 106 107 108 106 102 99 96 89 88 89 92 97 95 89 85
72 54 56 115 129 115 93 43 10 10 7 7 14 38 9 13
50 33 38 48 24 4 0 0 0 1 0 0 0 11 31 19
3 8 12 12 13 13 14 13 22 34 34 7 2 0 0 0
0 0 1 3 7 11 12 17 28 30 31 32 30 29 31 30
31 30 29 35 58 58 13 1 1 4 6 1 3 18 25 25
38 94 110 65 0 22 68 82 87 88 87 96 98 101 103 105
110 109 110 112 109 104 100 95 89 83 78 76 79 85 93 99
102 103 104 105 106 102 101 96 89 87 88 89 88 86 76 58
43 32 16 18 12 11 12 5 11 12 16 44 68 82 90 100
96 100 99 79 32 33 1 0 0 0 0 0 0 1 24 17
6 8 7 7 6 7 6 6 26 25 17 3 0 0 0 0
0 0 0 0 4 3 5 7 15 16 15 14 13 11 11 10
13 15 24 65 71 23 0 0 0 0 0 0 0 0 2 24
76 93 125 28 2 57 75 86 91 92 91 96 98 102 104 106
110 114 112 109 109 109 104 98 91 85 82 79 79 82 86 91
97 100 101 104 104 103 101 96 92 84 78 85 79 69 60 51
44 68 27 10 12 17 17 12 16 8 56 104 101 113 109 99
94 106 106 89 29 37 0 0 0 0 0 0 0 0 14 26
6 7 8 9 11 7 2 8 49 19 13 9 0 0 0 0
0 0 0 0 1 0 0 0 0 0 0 0 0 1 2 2
9 19 49 76 37 2 0 0 0 0 0 0 0 0 2 64
77 109 82 4 19 75 83 89 94 92 93 96 99 102 105 107
108 109 113 113 111 111 108 105 99 92 86 84 82 81 80 85
89 94 97 100 101 102 102 99 95 85 81 78 77 78 69 58
46 33 65 71 46 28 31 35 59 78 109 114 101 109 107 102
96 102 104 82 3 1 0 0 0 2 0 4 4 5 10 19
30 33 37 40 43 32 1 45 44 3 6 14 6 0 0 0
0 0 0 0 0 0 0 0 0 0 0 0 2 9 12 6
9 28 66 54 15 0 0 0 0 0 0 0 1 23 43 76
78 100 54 5 42 82 90 92 94 93 93 98 101 102 107 109
112 109 113 113 112 110 114 112 105 99 91 85 83 81 80 80
85 89 92 95 98 101 102 101 100 98 96 96 93 85 70 59
37 11 11 29 62 63 63 81 74 45 44 59 67 74 73 73
74 75 76 64 29 27 28 24 20 16 6 12 9 7 5 2
54 54 54 55 56 52 12 56 11 0 1 12 16 6 0 0
0 0 0 0 0 0 1 2 1 1 0 0 2 9 12 11
4 42 63 22 0 2 12 4 0 2 24 60 69 81 52 64
95 124 44 12 58 92 95 95 96 95 94 98 101 104 106 109
111 111 110 112 114 110 110 112 112 104 98 90 86 81 79 80
80 81 83 88 93 97 102 104 102 101 102 101 93 79 66 62
87 84 64 55 63 90 98 96 119 138 146 150 142 118 84 73
59 45 41 34 27 22 23 18 14 9 5 5 5 4 2 0
56 54 54 53 50 43 20 31 0 0 0 5 23 4 0 0
0 0 2 2 1 1 4 5 3 2 1 1 5 15 20 16
4 55 61 12 17 32 42 38 66 77 81 95 74 68 53 84
102 138 35 20 67 99 100 99 98 97 93 96 101 106 106 110
111 112 108 110 112 111 111 114 116 112 103 94 83 79 75 75
74 73 76 77 84 91 98 98 99 101 101 94 82 66 61 72
148 134 98 80 71 71 76 91 135 151 150 127 150 133 87 66
45 35 31 25 21 17 19 17 15 9 6 3 4 2 1 1
23 20 15 10 5 2 4 19 0 1 0 4 2 0 0 0
0 4 3 8 9 8 7 7 9 11 16 19 22 21 21 9
9 56 38 14 36 41 63 85 72 63 102 74 64 66 76 98
113 119 36 27 69 104 104 102 99 98 98 96 104 107 112 110
112 112 111 107 111 113 113 111 113 111 104 97 88 77 71 67
68 67 66 66 71 78 86 90 90 93 89 80 64 60 53 89
147 113 76 73 63 64 69 92 138 151 151 140 151 138 99 71
46 38 29 25 21 18 19 17 16 9 7 2 5 3 3 2
0 0 0 0 0 0 4 14 0 4 2 0 0 0 0 0
1 3 2 5 7 6 5 7 8 12 20 26 25 17 13 2
16 63 29 3 37 73 102 97 102 59 44 57 95 63 78 109
108 105 43 34 71 107 105 104 102 100 100 102 104 109 113 113
115 112 112 110 108 110 112 108 106 106 104 99 89 78 64 57
57 59 57 58 58 62 75 79 79 79 75 63 58 53 51 65
66 82 71 70 64 64 68 91 136 152 151 117 151 140 99 70
49 39 32 26 21 19 20 19 17 10 8 2 5 4 2 1
4 0 0 0 0 1 7 17 10 11 1 0 0 0 0 0
0 0 0 1 1 0 1 3 4 9 19 25 21 3 0 0
24 65 26 32 106 93 39 39 49 52 59 77 106 68 79 79
107 65 42 39 72 110 108 107 104 103 102 104 108 108 113 114
116 113 112 113 107 107 108 105 103 101 97 94 88 76 60 44
39 39 40 42 44 42 47 53 57 59 51 46 44 34 43 84
70 72 78 76 72 55 69 92 130 152 151 111 152 141 97 69
50 38 31 26 22 19 19 20 17 11 9 2 6 5 2 1
4 11 3 1 3 3 8 13 3 3 0 0 0 0 0 0
0 0 1 0 0 0 2 2 3 8 19 26 17 0 0 0
27 71 86 98 101 88 92 74 90 113 101 82 65 63 62 99
127 80 37 45 68 116 111 107 106 103 103 105 109 108 110 115
115 114 114 112 113 107 103 102 100 96 91 89 81 67 52 29
19 14 9 8 8 9 9 11 15 33 47 39 22 36 43 42
72 92 91 64 69 72 80 94 131 153 151 109 151 144 101 71
54 40 32 26 24 19 20 22 19 12 10 3 6 5 2 0
2 8 28 6 0 0 11 14 0 0 0 0 0 0 0 0
0 0 0 0 0 1 3 4 4 9 20 26 17 10 6 11
68 83 86 96 101 88 117 108 108 132 106 97 49 64 58 117
143 84 69 66 65 118 110 109 107 107 105 105 109 109 110 114
116 115 115 113 112 109 102 97 96 94 89 84 71 59 50 31
14 11 7 5 4 1 0 0 0 21 55 40 45 32 52 44
54 67 82 56 47 88 77 81 129 152 151 107 149 146 106 74
55 41 30 25 23 17 20 21 18 13 9 4 5 5 3 0
0 0 9 12 0 1 15 7 0 0 0 0 0 1 0 0
0 0 1 7 0 2 6 7 6 12 24 30 22 27 57 97
93 82 66 90 107 102 98 102 106 130 104 77 70 78 72 101
94 72 55 68 66 117 116 113 112 108 107 106 109 112 111 111
114 115 116 112 110 110 106 96 90 90 82 71 62 55 54 41
20 9 6 6 6 7 10 0 0 38 75 40 52 29 62 55
56 45 66 59 69 78 43 53 90 142 152 105 148 142 99 70
55 41 25 21 19 16 20 22 19 13 10 6 6 4 1 0
0 0 0 0 3 1 0 0 0 0 0 0 0 0 2 0
0 0 5 10 1 3 6 6 15 35 37 43 68 88 67 58
90 117 83 108 117 97 53 75 84 107 76 31 61 62 55 99
107 57 56 74 68 112 122 117 115 109 109 109 110 111 114 110
112 116 116 115 112 109 107 103 94 83 75 65 58 55 59 59
44 29 21 19 22 30 22 10 3 57 84 56 59 26 36 50
77 73 67 50 93 77 40 74 85 77 112 98 145 136 101 73
55 40 28 20 18 14 18 23 19 14 10 7 6 4 1 0
1 0 0 1 8 3 0 1 2 2 0 0 0 0 0 0
0 0 5 12 1 3 6 4 13 38 62 88 81 73 55 41
74 86 72 78 91 105 103 69 56 99 90 55 60 46 40 97
128 66 50 70 69 106 126 122 118 115 109 107 108 110 112 111
109 110 112 112 112 110 109 103 96 88 78 68 63 67 72 77
71 61 52 48 49 48 26 28 12 43 67 46 34 34 47 62
69 59 66 49 77 71 49 87 81 78 84 75 97 122 101 72
49 34 25 21 16 10 14 21 19 13 11 9 5 3 1 0
3 2 1 2 7 8 8 9 10 11 1 2 0 0 0 0
0 0 3 15 7 6 8 8 43 84 82 41 71 92 72 57
81 111 102 114 125 121 114 90 65 86 49 75 92 80 63 103
111 71 38 55 68 94 129 125 123 118 111 109 108 110 110 110
108 106 107 108 109 109 108 103 96 88 78 70 70 74 84 87
83 78 70 66 63 50 27 55 28 36 82 55 19 43 30 57
71 43 32 67 82 53 61 74 62 61 52 54 82 79 88 73
51 32 30 25 16 9 15 21 18 13 10 10 5 2 0 0
9 9 6 6 8 11 11 12 17 17 4 3 1 0 0 0
0 0 8 20 30 22 21 91 110 117 108 45 63 75 51 67
85 91 60 75 96 104 75 59 73 62 45 64 96 63 53 83
89 62 49 67 85 82 127 127 122 121 113 109 109 107 107 105
107 108 106 107 105 104 104 103 97 89 80 74 77 87 92 91
85 77 72 70 63 42 69 94 31 39 88 77 35 50 31 30
33 48 27 41 48 49 85 87 77 49 42 43 68 73 76 83
66 36 31 24 14 9 14 21 17 12 10 9 4 1 0 0
3 14 12 5 4 4 3 5 7 4 0 2 6 0 0 0
0 0 0 2 15 8 78 95 108 74 68 34 40 66 66 21
51 69 68 74 79 84 83 32 78 34 55 82 88 67 56 101
122 65 57 60 96 83 113 132 128 121 118 111 110 109 106 106
107 107 107 104 104 103 99 96 91 86 78 78 87 93 95 89
84 78 75 68 69 35 48 48 19 53 82 67 34 36 43 54
43 103 93 89 89 90 47 64 57 31 46 83 86 65 65 83
96 75 34 22 18 12 16 21 18 11 10 10 4 1 0 0
0 1 1 0 0 0 0 0 0 0 0 4 9 0 7 0
0 0 0 0 10 77 71 95 71 62 95 77 80 106 95 54
77 96 101 97 118 127 113 69 68 40 35 47 70 62 73 88
101 62 44 62 90 92 95 136 133 128 121 117 113 109 104 106
107 108 106 108 106 104 101 94 87 81 81 85 96 100 98 90
83 81 75 70 70 33 71 34 50 68 72 70 20 8 35 54
33 77 77 98 65 73 23 54 71 64 36 56 86 73 103 111
117 87 67 29 17 13 17 23 19 13 10 9 5 2 0 0
0 0 0 0 0 0 0 0 0 0 0 3 4 4 15 0
0 0 0 4 60 74 86 126 108 97 108 84 57 93 84 49
58 104 75 88 115 139 97 104 65 70 67 71 46 29 51 53
74 50 50 62 80 90 90 122 137 130 127 120 116 111 105 104
105 107 107 107 105 104 101 98 93 93 96 103 108 106 98 92
88 81 74 79 68 58 80 46 49 40 68 82 43 31 48 52
22 49 65 62 65 93 61 72 75 67 46 58 48 50 65 118
109 87 80 74 39 14 18 23 20 13 11 8 5 2 0 0
0 0 0 0 0 0 0 0 0 0 0 1 2 2 1 0
0 0 2 62 87 122 122 125 99 82 106 85 65 93 104 86
61 113 76 78 96 124 87 74 47 65 89 85 71 71 90 79
126 74 60 46 42 55 86 105 135 134 127 126 120 112 108 106
106 107 107 106 103 101 100 98 98 99 103 108 110 106 99 94
87 80 79 91 66 74 73 25 60 76 43 47 48 27 20 38
7 36 74 68 93 102 53 69 60 34 48 83 82 94 99 95
72 100 97 66 62 41 17 22 20 13 12 6 5 3 1 0
0 0 0 0 0 0 0 0 0 0 0 0 0 0 0 0
0 0 44 91 122 118 109 109 104 83 97 113 43 69 77 57
36 97 100 87 101 138 99 63 43 55 53 61 56 101 87 80
115 84 57 51 54 84 76 96 126 138 131 127 121 116 110 108
107 108 109 105 102 101 102 100 100 103 107 111 110 102 96 91
84 82 92 99 58 53 70 52 79 80 69 62 37 25 15 34
22 55 54 73 92 98 22 25 30 30 32 87 69 91 89 77
49 85 73 62 80 72 31 23 21 14 13 5 5 2 1 0
0 0 0 0 0 0 0 0 0 0 0 0 0 0 0 0
0 31 97 117 122 143 120 75 63 56 74 86 32 36 42 41
21 50 63 61 96 109 110 78 91 108 111 64 48 82 89 86
96 68 41 38 57 80 87 94 110 141 136 130 125 118 114 111
111 111 109 108 105 104 104 104 104 108 115 115 108 100 96 91
89 94 103 91 63 92 85 56 70 82 84 85 56 31 19 23
19 49 55 29 48 44 19 37 42 43 50 44 42 83 89 88
55 62 50 52 65 59 63 33 21 15 14 5 6 1 0 0
0 0 0 0 0 0 0 0 0 0 0 0 0 0 0 0
8 87 119 94 115 81 83 75 83 45 31 62 62 60 81 79
78 63 59 45 72 74 106 69 92 88 91 76 98 111 71 67
65 57 58 52 70 63 74 74 105 135 141 131 124 119 116 114
114 114 114 111 110 109 108 107 112 116 120 117 106 100 96 92
97 102 107 79 73 100 93 55 89 63 77 83 53 12 12 10
19 33 81 47 72 52 38 62 44 38 63 70 72 98 109 87
98 75 47 32 83 66 62 56 25 15 14 5 6 2 1 0
0 0 0 0 0 0 0 0 0 0 0 0 0 0 0 0
49 98 108 72 68 67 93 117 95 76 81 110 87 62 85 72
59 63 82 81 114 120 91 81 95 95 89 86 100 123 93 113
107 86 79 61 35 39 56 64 92 122 143 135 128 124 123 119
117 120 118 113 112 112 112 112 118 122 123 116 104 100 98 100
105 109 109 75 82 106 98 65 85 45 49 60 44 26 22 23
30 48 73 71 84 78 46 65 48 42 89 82 76 102 88 75
101 90 70 58 52 63 55 47 29 14 14 3 6 3 1 0
0 0 0 0 0 0 0 0 0 0 0 0 0 0 0 21
68 70 96 71 82 117 110 112 81 68 82 113 109 46 61 75
65 76 72 85 117 86 56 68 80 77 75 102 114 107 113 119
115 128 77 63 54 62 73 103 71 109 131 141 138 133 131 126
121 123 122 114 114 117 116 120 124 126 124 113 104 102 102 106
110 111 104 67 77 107 78 46 75 69 72 95 43 40 29 21
18 25 58 56 83 76 42 54 51 49 96 86 81 105 97 91
100 124 88 71 47 34 43 42 41 20 14 4 7 3 1 0
0 0 0 0 0 0 0 0 0 0 0 0 0 0 4 55
73 49 65 105 102 121 108 84 81 65 43 67 78 33 45 28
29 51 67 93 123 92 72 79 77 41 42 94 90 101 126 122
120 113 79 79 41 74 67 97 62 84 111 136 140 140 142 135
126 125 126 119 120 120 123 125 128 127 123 111 105 103 108 112
114 114 93 74 85 96 80 62 98 64 96 92 63 20 20 25
18 23 47 78 98 81 47 78 53 36 46 38 49 54 79 82
103 117 81 76 47 58 74 63 73 43 14 3 7 2 1 0
0 0 0 0 0 0 0 0 0 0 0 0 1 3 16 74
90 23 74 100 110 85 75 94 115 103 43 84 93 61 88 50
60 68 48 53 86 100 79 106 103 62 58 101 74 72 108 130
83 28 40 56 55 49 91 80 83 71 104 119 141 140 142 139
131 129 128 122 123 123 126 130 130 128 120 110 106 108 112 116
117 112 82 74 94 109 49 78 107 91 107 106 80 37 46 66
47 45 63 42 61 40 13 29 24 34 69 50 76 54 59 53
52 70 71 54 40 57 70 74 64 46 21 3 7 3 2 0
0 0 0 0 0 0 0 3 6 0 0 0 0 19 53 85
56 37 62 113 88 57 100 141 139 108 50 71 110 76 82 64
59 81 87 70 95 89 67 59 36 16 7 13 16 16 33 41
12 0 8 40 34 37 71 61 77 78 81 101 132 142 138 140
136 132 130 126 125 126 128 129 130 125 117 110 112 112 116 118
120 105 75 103 91 91 39 59 97 44 19 71 73 50 44 57
45 37 70 43 76 67 29 39 41 51 75 72 98 78 78 78
88 99 43 36 61 68 66 70 63 66 40 3 8 4 1 0
0 0 0 0 0 0 0 2 6 0 0 0 0 33 76 78
47 65 57 65 100 104 96 137 110 111 81 69 85 93 76 58
41 82 94 84 115 78 69 67 73 51 37 69 60 36 45 55
60 25 44 69 55 51 79 70 60 63 99 67 115 141 142 140
140 133 130 128 127 127 127 128 126 123 118 112 112 114 119 121
108 102 56 101 85 85 38 51 69 34 0 3 55 57 45 57
56 26 81 62 101 74 40 68 50 54 98 75 106 98 87 80
97 104 21 11 49 72 53 45 61 52 52 5 7 4 1 0
0 0 0 0 0 0 0 0 0 0 0 0 0 50 51 55
86 70 40 34 102 116 104 131 121 99 104 87 98 98 68 74
29 67 98 75 118 121 87 76 83 111 84 111 91 44 43 83
61 35 30 42 56 47 89 78 74 73 103 93 96 124 144 141
143 138 134 129 129 129 130 126 123 118 115 111 112 118 122 108
92 60 39 93 52 59 28 36 45 13 0 0 5 46 47 27
43 10 58 78 110 76 49 74 62 41 56 42 75 97 82 76
105 99 35 40 33 36 59 48 57 35 50 16 6 4 0 0
0 0 0 0 0 0 0 0 0 0 0 0 11 85 62 67
101 66 42 56 91 124 111 99 109 105 75 76 97 120 57 62
35 55 103 91 115 136 90 69 61 95 89 115 97 53 63 65
63 37 24 37 43 55 72 98 72 74 103 102 93 112 126 140
141 140 136 133 130 126 126 126 123 119 118 117 116 120 118 81
61 62 60 57 63 76 46 62 61 36 12 0 0 2 28 43
43 15 99 49 77 36 31 58 32 50 107 73 87 80 61 60
77 67 31 64 80 44 23 55 69 61 90 58 6 4 0 0
0 0 0 0 0 0 0 0 0 0 0 13 45 98 73 68
95 52 96 64 66 130 138 107 85 96 100 90 88 88 54 73
18 47 79 77 138 117 77 87 80 108 102 98 89 38 49 51
60 45 42 45 27 64 70 54 49 35 58 83 70 105 111 116
134 140 137 134 132 128 128 128 124 120 118 118 118 118 94 60
73 68 51 58 78 83 50 56 33 51 59 36 14 2 0 16
40 27 129 88 116 69 47 70 54 74 97 95 113 110 85 95
114 65 35 87 78 62 16 41 96 75 85 79 16 3 0 0
