P2
128 120
157
23 2 2 1 4 22 64 70 61 50 50 52 55 55 55 55
64 74 65 58 52 49 48 48 48 48 47 47 47 47 46 46
46 45 45 45 44 43 43 43 42 42 41 41 40 40 39 39
39 38 38 36 36 35 35 34 33 33 33 32 31 30 30 30
30 29 28 28 27 26 26 26 26 25 26 27 31 31 31 30
24 20 20 28 29 28 27 27 26 25 25 24 23 23 20 24
26 27 28 28 27 28 28 28 29 29 28 28 29 29 29 29
31 31 32 33 32 33 33 33 34 34 34 34 35 36 36 37
33 14 0 0 0 15 58 61 35 0 0 0 3 2 1 0
27 69 66 70 69 63 53 50 50 49 49 48 47 46 46 45
45 45 45 44 45 44 43 43 42 42 41 41 40 39 39 38
38 37 36 36 36 35 35 34 34 34 33 32 32 31 30 30
29 29 28 28 27 27 26 26 26 26 26 27 31 30 31 30
24 21 22 27 29 29 28 27 26 26 26 25 25 23 21 25
27 27 27 28 28 28 28 28 29 28 28 29 29 29 30 30
31 31 32 33 32 33 32 33 34 34 35 35 36 36 36 36
32 5 2 5 8 14 55 56 38 0 0 0 14 6 0 0
17 66 61 62 44 44 48 52 59 64 66 63 58 51 46 46
45 45 45 45 44 44 43 43 42 42 41 41 40 40 40 39
38 38 37 37 36 35 34 34 34 33 33 32 32 31 31 30
30 30 29 29 28 28 27 26 26 26 26 27 31 32 32 31
25 23 24 25 30 29 28 28 27 26 27 25 25 24 21 25
27 28 28 28 28 28 28 28 29 29 29 29 30 30 31 31
31 32 33 33 33 33 33 34 34 35 35 35 36 36 36 36
18 0 0 0 3 9 54 56 41 0 0 0 12 7 0 0
11 63 61 58 19 0 5 14 25 36 45 54 63 55 46 46
45 45 45 45 44 44 43 43 43 42 42 41 41 41 40 39
38 38 37 37 36 36 36 35 34 34 33 33 32 32 31 31
30 30 29 29 28 27 27 27 27 26 27 28 32 33 32 32
25 23 26 23 30 29 29 28 27 27 28 25 26 25 22 26
26 27 27 28 28 29 29 30 30 29 30 30 31 31 32 31
32 32 32 33 33 33 34 34 34 35 35 35 36 36 36 37
0 0 0 0 0 6 51 55 44 0 0 0 8 3 0 0
6 61 62 57 20 0 0 0 0 0 0 16 62 55 46 46
46 45 45 44 43 43 42 43 42 42 41 41 40 40 40 39
39 38 38 37 37 36 36 35 35 34 33 33 33 32 32 32
31 30 30 29 29 29 28 27 27 27 27 27 32 32 32 31
26 23 28 22 31 31 29 29 28 27 28 25 26 25 21 26
26 29 29 29 29 30 30 29 30 30 30 30 31 31 31 31
32 32 33 34 34 34 34 34 35 35 35 36 35 36 36 37
0 0 2 9 2 4 48 54 50 1 4 14 10 11 0 5
3 56 60 53 20 0 0 0 0 0 0 12 61 56 45 45
45 44 44 44 44 43 42 43 42 42 41 40 40 39 39 39
38 37 37 37 36 36 36 35 35 34 34 34 33 32 32 32
31 30 30 29 29 28 28 28 27 27 28 28 32 33 33 32
26 22 29 21 30 30 29 28 28 27 29 26 26 26 21 27
28 29 29 29 30 30 30 29 30 31 31 31 31 31 31 31
32 32 32 34 33 33 33 34 34 34 35 36 36 36 37 37
0 0 2 11 6 5 49 57 58 4 17 17 0 3 0 4
0 53 60 55 23 0 3 12 6 0 0 10 59 54 44 45
45 44 45 44 43 43 43 42 42 41 41 40 40 40 39 39
39 38 37 37 36 36 35 35 34 34 33 33 32 32 32 31
31 31 31 30 29 29 28 28 28 27 28 28 32 33 33 32
27 23 29 22 31 31 30 29 28 28 29 26 26 26 21 27
27 28 29 29 29 31 30 30 31 31 30 31 32 31 31 32
33 32 33 34 34 34 34 34 35 36 35 36 36 36 36 35
5 0 0 3 0 6 50 56 62 12 18 9 0 3 0 2
3 49 63 58 24 0 11 16 10 0 0 9 59 55 45 45
45 44 44 44 44 42 43 42 42 41 41 40 40 40 40 39
39 38 38 37 36 36 36 35 34 35 35 34 34 33 32 32
31 31 30 30 30 29 29 28 27 28 29 29 33 34 33 33
28 24 30 23 31 30 30 29 29 28 29 27 27 27 22 27
27 29 29 29 30 31 30 31 30 31 31 31 31 32 32 33
33 33 33 34 35 34 35 35 35 34 35 35 36 37 37 38
15 10 2 0 0 8 49 52 65 22 13 8 1 0 0 3
4 42 60 57 25 0 4 8 8 2 0 8 58 54 44 44
44 44 43 44 43 43 43 42 42 42 41 40 40 40 39 39
39 38 38 37 37 37 36 35 35 35 34 34 34 33 33 32
32 32 31 30 30 29 29 28 28 28 28 29 33 34 34 33
28 23 31 25 29 31 31 30 30 29 29 27 27 27 23 26
27 29 29 31 30 32 31 31 32 31 31 32 32 32 32 33
33 33 34 34 34 33 34 34 35 35 36 37 37 37 38 38
58 50 46 43 32 30 47 44 58 24 14 3 5 1 0 0
2 36 58 54 26 0 1 4 13 8 0 8 57 53 44 44
44 44 44 43 43 43 43 42 42 41 41 41 40 39 39 39
38 37 37 37 37 36 35 35 35 35 35 34 34 33 33 33
32 32 31 30 30 29 29 29 28 28 29 29 33 34 34 34
29 24 30 26 28 31 31 30 30 28 27 27 28 27 23 28
27 29 30 31 31 32 31 31 32 31 32 32 32 33 33 34
34 33 34 34 34 34 35 34 34 35 36 37 36 38 38 38
42 47 56 59 61 61 52 39 49 30 20 17 21 22 20 23
23 39 52 59 30 0 1 7 10 8 0 7 56 52 44 43
43 44 43 43 43 43 43 42 42 42 41 40 41 40 39 39
39 38 38 37 37 36 36 36 35 35 35 34 34 33 33 32
32 31 31 30 30 30 29 29 29 29 29 28 33 34 34 33
29 23 30 28 27 32 31 30 30 29 27 28 28 27 23 28
27 28 30 31 31 32 32 32 32 32 32 32 33 33 33 33
33 34 33 34 35 34 35 36 36 36 37 38 37 38 38 37
24 26 31 33 40 45 45 39 42 41 41 41 44 41 40 41
39 38 40 57 32 0 0 6 6 9 9 10 55 52 44 44
44 44 43 43 42 43 42 42 41 41 41 41 40 40 40 39
39 38 39 38 37 37 37 36 36 35 35 34 33 34 34 33
32 32 31 31 29 30 30 29 28 28 27 28 32 35 34 33
30 24 31 31 25 33 31 31 30 29 28 28 28 28 24 28
27 28 31 31 31 32 32 32 32 31 31 32 32 33 34 34
34 34 35 35 36 34 36 36 37 36 36 38 38 38 38 38
21 22 22 23 22 22 23 25 28 29 29 28 30 30 33 35
36 37 36 47 44 34 29 22 16 13 14 26 56 51 44 44
44 43 43 43 43 42 42 41 42 40 40 40 40 40 40 39
38 38 38 38 37 37 36 36 36 35 35 34 34 33 33 32
32 32 31 30 30 29 29 28 27 26 27 28 32 34 34 32
29 22 30 33 24 32 32 31 31 29 28 29 28 28 25 28
26 29 30 32 32 32 31 32 32 32 33 32 33 34 33 33
34 33 33 35 35 35 35 36 36 37 37 37 37 37 38 38
21 21 22 22 22 22 22 21 21 22 21 22 23 24 29 33
37 41 37 33 34 36 38 40 43 45 44 44 52 49 44 44
44 44 43 43 43 43 42 41 41 40 41 40 40 40 40 39
39 39 38 38 37 37 36 36 36 35 35 34 33 33 32 30
32 31 30 30 28 28 29 28 29 28 28 26 29 34 33 32
29 22 29 35 24 33 32 32 30 30 28 29 28 28 25 27
25 30 30 31 32 33 33 32 33 32 34 33 34 35 33 34
35 34 35 35 36 36 36 37 37 36 38 37 38 37 38 38
33 30 26 24 24 24 21 20 20 21 20 20 21 21 21 21
21 21 23 23 23 25 28 32 35 38 41 42 44 45 44 44
44 44 43 43 43 42 42 42 42 41 41 41 41 40 40 39
39 38 38 38 38 37 37 37 36 36 35 34 34 31 31 30
31 32 30 26 26 29 28 30 28 26 25 27 27 29 30 32
31 22 29 36 25 31 33 32 31 30 29 29 28 28 25 27
26 31 32 32 32 33 33 33 33 34 34 35 34 35 35 35
35 35 36 36 36 37 37 37 37 37 37 37 39 38 38 38
48 47 41 41 41 41 40 34 29 28 16 18 19 19 21 21
22 22 22 21 20 20 20 20 21 23 27 32 36 41 44 45
45 44 44 44 44 42 42 42 41 41 41 40 40 40 40 40
39 39 38 38 38 38 37 36 36 35 35 34 34 33 33 31
30 29 27 27 27 28 27 26 24 23 26 27 25 26 28 28
28 22 27 34 23 28 30 31 31 30 28 29 28 27 25 25
27 31 32 32 33 33 33 33 33 33 33 34 35 35 34 35
35 35 36 36 36 36 36 37 38 37 37 38 38 38 38 38
26 27 29 29 31 32 34 45 36 49 50 44 36 33 39 37
35 33 31 28 20 19 20 19 20 19 19 19 20 21 23 25
29 33 37 41 42 43 42 42 41 41 42 41 40 40 40 39
39 38 39 37 38 37 37 36 36 35 35 34 35 33 32 28
29 27 28 21 23 21 17 16 14 17 18 15 20 21 17 18
16 15 21 26 20 25 28 26 27 27 27 27 27 26 24 23
27 30 31 33 33 33 34 33 34 34 34 34 35 36 35 35
35 35 35 35 36 36 37 37 37 37 38 38 38 38 38 38
26 24 25 25 23 23 23 26 30 44 43 32 37 33 37 37
41 45 65 64 34 26 22 21 21 21 20 20 20 19 19 20
19 21 20 20 21 25 37 43 42 42 41 41 41 41 40 40
39 38 39 39 38 37 36 36 35 35 34 33 34 32 25 21
20 20 18 16 16 15 13 14 14 9 3 1 5 5 2 4
2 4 8 9 7 14 19 18 20 24 25 28 28 28 27 26
29 30 30 33 34 34 35 34 35 34 34 35 35 36 35 35
36 36 36 36 37 37 38 37 37 38 38 38 37 37 37 37
24 25 25 24 24 21 20 23 23 39 28 0 0 3 40 39
42 45 60 64 59 55 51 47 51 47 42 39 25 23 20 19
19 20 20 17 11 16 33 42 42 41 42 41 40 40 41 40
40 38 38 37 38 36 36 35 33 31 32 33 31 26 19 15
14 7 3 7 6 6 4 2 4 2 0 0 0 0 0 0
0 0 0 0 0 2 5 8 11 13 17 20 25 26 27 26
30 31 31 32 32 33 34 34 35 35 35 35 35 37 36 36
36 37 36 37 37 37 37 36 37 38 37 37 37 38 38 38
25 24 27 26 24 23 22 22 23 39 30 0 0 3 35 38
39 43 57 61 63 63 62 52 59 60 58 54 33 35 39 37
28 24 21 19 17 19 31 42 41 42 42 40 40 41 41 41
40 39 38 35 33 33 31 30 26 26 24 19 20 22 12 5
0 0 0 0 0 0 0 0 0 0 0 0 0 0 0 0
0 0 0 0 0 0 0 0 1 4 11 17 16 20 21 26
27 31 32 32 32 33 35 35 35 35 35 36 36 36 36 35
35 35 36 36 38 38 37 38 37 38 37 37 38 38 38 37
32 28 27 26 22 22 27 24 24 45 32 0 0 2 14 8
7 17 54 58 58 60 54 51 52 58 60 58 40 43 49 51
44 52 50 43 19 19 31 42 42 42 42 41 49 52 50 48
44 38 29 25 13 9 6 9 17 18 13 16 15 2 1 2
0 0 0 0 0 0 0 0 0 0 0 0 0 0 0 0
0 0 0 0 0 0 0 0 0 0 3 6 12 17 22 23
25 27 30 32 32 33 36 35 35 35 36 36 35 35 36 36
36 37 37 37 38 38 37 38 37 38 38 38 38 38 38 38
15 12 18 8 5 6 18 15 17 45 31 0 0 7 17 5
1 8 56 57 22 16 29 24 33 41 48 55 44 47 51 53
53 57 58 56 23 21 35 44 44 43 42 42 51 55 51 46
36 30 23 8 7 3 3 1 0 0 2 6 8 0 0 0
0 0 0 0 0 0 0 0 0 0 0 0 0 0 0 0
0 0 0 0 0 0 0 0 0 0 0 3 2 10 15 20
22 23 29 33 33 33 35 36 36 36 36 36 36 37 36 37
37 36 37 37 38 39 38 38 38 38 39 38 38 39 38 38
0 0 0 0 0 0 1 2 3 43 32 1 11 12 46 19
0 11 56 57 17 3 5 0 0 5 2 33 48 49 52 54
56 58 58 58 27 20 36 45 44 44 44 42 49 52 51 43
28 17 7 8 1 1 1 1 0 0 0 1 1 0 0 0
0 0 0 0 0 0 0 0 0 0 0 0 0 0 0 0
0 0 0 0 0 0 0 0 0 0 0 0 1 1 6 12
17 22 26 26 32 34 34 36 36 36 36 36 36 36 37 37
36 38 38 37 39 40 38 38 38 38 39 38 38 38 39 38
9 1 4 0 0 0 0 0 2 44 35 5 19 26 41 34
14 5 56 59 18 0 1 0 2 18 9 34 46 47 48 52
55 56 57 56 29 20 37 49 43 45 46 48 46 13 20 27
20 14 12 6 0 0 0 0 0 0 0 0 0 0 0 0
0 0 0 0 0 0 0 0 0 0 0 0 0 0 0 0
0 0 0 0 0 0 0 0 0 0 0 0 0 0 0 10
11 24 27 28 22 29 35 37 37 37 37 36 37 37 37 37
37 37 37 37 37 39 38 38 39 38 39 39 39 39 39 39
15 4 3 1 0 0 0 0 0 45 38 3 19 33 39 19
25 3 54 62 24 0 1 0 4 25 14 35 38 11 22 30
43 49 50 54 32 21 36 49 44 39 43 51 51 4 0 7
9 9 2 0 0 0 0 0 0 0 0 0 0 0 0 0
0 0 0 0 0 0 0 0 0 0 0 0 0 0 0 0
0 0 0 0 0 0 0 0 0 0 0 0 0 0 0 3
11 18 28 29 32 27 33 37 38 38 37 37 36 37 37 38
38 38 38 38 38 40 39 39 39 39 39 38 39 39 39 38
27 15 12 9 2 2 3 1 4 50 41 0 4 19 33 20
7 2 53 63 27 0 3 0 2 12 7 34 35 0 1 4
2 7 6 35 34 21 23 32 41 47 49 53 53 6 0 3
4 1 0 0 0 0 0 0 0 0 0 0 0 0 0 0
0 0 0 0 0 0 0 0 0 0 0 0 0 0 0 0
0 0 0 0 0 0 0 0 0 0 0 0 0 0 0 1
9 13 26 29 32 30 27 35 37 38 37 37 38 38 38 37
38 39 39 39 39 40 39 39 39 39 40 40 41 40 40 40
25 17 19 19 1 0 2 0 0 45 44 0 0 0 2 0
0 1 53 64 32 0 0 0 3 0 0 32 35 1 0 0
0 0 0 29 35 21 8 0 1 7 15 25 39 10 0 1
0 0 0 0 0 0 0 0 0 0 0 0 0 0 0 0
0 0 0 0 0 0 0 0 0 0 0 0 0 0 0 0
0 0 0 0 0 0 0 0 0 0 0 0 0 0 0 0
2 12 18 27 31 34 27 32 34 38 38 37 38 37 38 38
38 39 39 39 39 40 39 39 40 40 40 40 41 41 40 41
29 23 18 21 0 0 0 0 0 37 45 0 0 0 0 0
0 0 50 65 37 0 2 5 16 4 0 31 36 3 3 9
6 0 0 28 37 20 8 0 0 0 0 0 10 10 0 0
0 0 0 0 0 0 0 0 0 0 0 0 0 0 0 0
0 0 0 0 0 0 0 0 0 0 0 0 0 0 0 0
0 0 0 0 0 0 0 0 0 0 0 0 0 0 0 0
2 9 16 15 27 31 29 30 34 38 39 39 39 39 38 39
39 39 39 40 40 40 40 40 41 41 40 41 41 41 41 41
38 13 11 10 0 0 0 1 4 40 46 1 0 0 0 0
0 0 48 66 42 0 8 14 27 11 0 30 37 4 5 9
19 0 0 26 37 21 8 0 0 0 0 0 7 10 0 0
0 0 0 0 0 0 0 0 0 0 0 1 0 0 0 0
0 0 0 0 0 0 0 0 0 0 0 0 0 0 0 0
0 0 0 0 0 0 0 0 0 0 0 0 0 0 0 0
0 2 17 15 19 26 31 29 37 35 39 39 39 39 39 39
39 39 40 41 41 41 40 41 40 41 41 41 41 40 41 41
35 1 0 0 2 1 2 0 2 40 53 42 38 36 35 31
28 27 53 65 47 3 3 5 1 1 0 29 36 3 6 2
16 0 0 26 36 21 9 0 0 3 3 0 6 9 0 0
0 0 0 0 0 0 0 0 0 0 0 0 0 0 0 0
0 0 0 0 0 0 0 0 0 0 0 0 0 0 0 0
0 0 0 0 0 0 0 0 0 0 0 0 0 0 0 0
0 2 11 16 13 18 29 29 33 35 38 39 39 40 39 40
40 40 40 40 38 40 40 40 40 40 41 41 42 41 41 41
33 1 0 0 0 0 0 0 0 36 63 62 59 53 51 48
43 37 32 35 18 0 1 9 9 2 0 28 34 1 4 1
2 0 0 25 35 20 9 1 5 8 9 0 4 10 0 0
0 0 0 0 0 0 0 0 0 0 0 0 0 0 0 0
0 0 0 0 0 0 0 0 0 0 0 0 0 0 0 0
0 0 0 0 0 0 0 0 0 0 0 0 0 0 0 0
0 0 1 8 14 10 21 26 31 38 39 39 39 40 39 39
40 39 39 40 40 39 40 40 40 41 41 41 41 42 41 42
37 4 0 0 0 0 0 0 0 45 61 26 27 30 34 45
51 52 44 36 24 14 10 12 10 1 0 28 32 0 6 4
0 0 0 26 35 21 10 10 8 6 3 0 4 11 0 0
0 0 0 0 0 0 0 0 0 0 0 0 0 0 0 0
0 0 0 0 0 0 0 0 0 0 0 0 0 0 0 0
0 0 0 0 0 0 0 0 0 0 0 0 0 0 0 0
0 0 0 4 12 13 8 19 25 37 40 39 40 40 41 40
40 40 41 41 40 40 40 40 41 41 42 41 41 42 41 42
36 3 1 0 1 0 0 0 0 44 56 4 0 0 0 2
6 13 49 43 51 54 50 52 52 46 41 45 43 15 10 13
11 7 5 30 34 21 13 10 0 0 3 1 4 15 0 0
0 0 0 0 0 0 0 0 0 0 0 0 0 0 0 0
0 0 0 0 0 0 0 0 0 0 0 0 0 0 0 0
0 1 2 0 0 0 0 0 0 0 0 0 0 0 0 0
0 0 0 3 20 15 15 11 24 35 39 40 40 40 42 40
40 40 41 40 40 40 41 42 42 42 42 43 42 42 41 39
40 15 9 4 5 0 0 0 1 45 57 12 0 1 1 0
0 0 48 60 25 18 26 34 40 43 49 50 68 59 36 46
47 48 45 46 31 20 12 0 0 0 0 0 5 23 5 0
0 0 0 0 0 0 0 0 0 0 0 0 0 0 0 0
0 0 0 0 0 0 0 0 0 0 0 0 0 0 0 0
0 5 3 1 0 0 0 0 0 0 0 0 0 0 0 0
0 0 0 0 12 19 17 14 18 34 39 39 39 39 41 40
40 40 40 41 41 41 40 41 42 41 40 41 42 41 39 41
28 5 6 12 14 11 6 2 8 49 54 15 0 0 4 19
5 0 46 61 27 16 16 22 19 8 13 64 73 52 38 50
58 56 58 56 32 21 13 0 0 0 0 0 5 21 5 0
0 0 0 0 0 0 0 0 0 0 0 0 0 0 0 0
0 0 0 0 0 0 0 0 0 0 0 0 0 0 0 0
1 5 5 1 0 0 0 0 0 0 0 0 0 0 0 0
0 0 0 0 4 18 19 16 14 32 38 39 38 38 41 40
37 35 40 41 41 41 42 41 41 39 36 33 30 26 23 25
34 1 0 0 7 19 8 3 23 52 53 20 25 11 20 16
3 0 43 61 20 4 10 5 4 1 12 64 65 42 40 53
56 57 60 59 33 21 24 22 15 8 2 0 5 19 2 0
0 0 0 0 0 0 0 0 0 0 0 0 0 0 0 0
0 0 0 0 0 0 0 0 0 0 0 0 0 0 0 2
4 0 6 3 1 2 2 2 1 0 0 0 0 0 0 0
0 0 0 0 1 7 21 17 15 30 38 38 38 38 40 33
8 30 40 39 36 33 30 26 23 22 21 21 22 23 23 21
41 2 0 0 2 9 4 10 30 57 51 21 33 19 14 17
10 0 41 59 15 0 6 0 0 0 11 61 57 18 7 15
18 21 25 43 34 22 31 54 57 53 47 40 27 8 0 0
0 0 0 0 0 0 0 0 0 0 0 0 0 0 0 0
0 0 0 0 0 0 0 0 0 0 0 0 0 0 0 0
1 1 2 3 0 0 4 3 0 0 0 0 0 0 0 0
0 0 0 0 1 7 10 16 12 20 32 39 39 37 27 8
21 27 24 22 22 22 23 23 25 26 27 27 29 30 31 29
49 3 0 4 21 21 18 22 42 62 52 10 9 2 9 33
18 0 41 58 15 0 0 1 0 0 9 60 60 16 0 1
0 0 0 25 37 22 31 56 59 57 56 50 36 3 0 0
0 0 0 0 0 0 0 0 0 0 0 0 0 0 0 0
0 0 0 0 0 0 0 0 0 0 0 0 0 0 0 0
0 0 2 3 1 5 6 2 1 1 0 0 0 0 0 0
0 0 0 0 0 5 2 14 12 13 21 26 23 15 11 16
24 25 26 28 29 29 30 31 32 34 35 35 36 36 35 32
49 4 0 5 32 37 49 53 42 56 60 43 34 34 34 25
10 0 43 57 16 16 14 0 0 0 3 56 60 15 0 0
0 2 4 22 38 21 28 50 55 55 57 45 24 0 0 0
0 0 0 0 0 0 0 0 0 0 0 0 0 0 0 0
0 0 0 0 0 0 0 0 0 0 0 0 0 0 0 0
0 0 1 6 7 11 9 5 0 0 0 0 0 0 0 0
0 0 0 0 1 3 2 2 6 13 22 24 14 21 16 30
31 32 33 34 35 35 35 36 36 37 38 38 37 38 37 29
49 4 0 2 29 32 45 45 6 31 61 51 21 44 56 33
7 0 48 63 20 28 15 0 0 0 1 48 55 12 0 0
0 25 34 35 41 34 32 39 42 43 42 35 11 0 0 0
0 0 0 0 0 0 0 0 0 0 0 0 0 0 0 0
0 0 0 0 0 0 0 0 0 0 0 0 0 0 0 0
0 1 4 7 14 21 23 14 6 1 0 3 8 0 0 0
0 0 2 0 0 0 0 1 8 21 30 20 25 35 20 33
36 36 35 33 38 39 38 39 39 32 26 32 35 34 35 28
49 4 0 7 45 45 38 31 7 17 58 49 14 35 52 26
11 0 47 64 22 11 15 1 0 0 1 45 52 11 0 0
0 23 33 32 34 28 28 28 28 36 37 26 2 0 0 0
0 0 0 0 0 0 0 0 0 0 0 0 0 0 0 0
0 0 0 0 0 0 1 0 0 0 0 1 6 1 2 0
0 1 8 5 21 24 27 16 6 1 2 12 13 0 0 0
0 0 0 0 0 0 0 0 5 27 31 23 39 38 31 5
7 7 2 12 23 41 34 28 26 5 3 0 2 3 8 25
53 16 9 8 24 53 48 43 18 10 52 37 5 18 46 12
11 0 46 65 24 0 6 0 0 0 2 47 53 9 1 2
0 6 13 21 30 28 28 30 33 37 38 23 0 0 0 0
0 0 0 0 0 0 0 0 0 0 0 0 0 0 0 0
0 0 0 0 0 0 6 1 0 0 1 5 12 2 3 1
0 1 7 11 23 24 18 12 9 14 10 12 10 5 1 0
0 0 0 0 0 0 0 0 6 30 23 27 18 28 40 4
0 0 0 4 12 13 2 0 0 0 5 0 0 0 0 17
54 46 53 45 22 17 40 50 39 11 26 32 12 7 37 3
2 0 44 63 24 0 0 0 0 0 3 51 55 9 1 5
0 0 0 9 26 25 27 9 9 15 18 7 0 0 0 0
0 0 0 0 0 0 0 0 0 0 0 0 0 0 0 0
0 0 0 0 0 0 2 0 1 2 9 9 12 4 5 9
11 1 2 11 18 15 6 9 19 24 14 23 29 29 18 0
0 0 0 0 0 0 0 0 9 22 9 0 0 2 38 5
0 0 0 0 0 0 0 0 0 0 11 7 0 0 0 14
58 56 52 36 54 30 2 6 3 0 0 4 27 13 9 1
18 14 45 59 21 0 0 0 0 0 4 53 54 8 0 5
9 0 0 11 36 34 31 4 0 0 0 0 0 0 0 0
0 0 0 0 0 0 0 0 0 0 0 0 0 0 0 0
0 0 0 0 0 1 1 1 0 4 10 10 10 7 11 28
16 9 11 8 9 12 7 2 8 13 19 38 49 50 37 13
0 0 0 0 0 0 0 0 15 7 17 36 15 3 4 0
0 0 0 0 0 0 0 0 2 0 0 0 0 0 0 17
63 62 53 14 54 61 24 0 0 1 0 0 0 2 13 3
47 53 55 53 35 23 19 12 10 6 9 54 54 10 0 0
13 2 0 10 43 34 31 6 0 0 2 0 0 0 0 0
0 0 0 0 0 0 0 0 1 1 0 0 0 0 1 0
1 0 0 0 0 0 1 10 6 4 7 8 9 14 28 25
21 23 15 18 26 29 17 9 10 9 20 41 50 56 51 35
1 0 0 0 0 0 0 0 15 16 38 25 26 40 40 38
38 37 38 37 20 29 21 0 4 0 0 0 0 0 0 26
68 66 59 10 49 61 17 4 0 2 4 1 8 24 51 34
51 59 60 54 54 57 50 36 48 43 38 45 46 22 1 0
14 12 5 7 45 34 32 6 0 6 8 2 0 0 0 0
0 0 0 0 0 0 0 0 0 1 0 3 3 2 0 2
2 0 0 0 0 0 3 12 8 3 9 10 14 20 17 17
11 11 13 0 4 16 27 35 26 23 21 31 57 61 55 44
8 0 0 0 0 0 0 0 9 20 23 38 42 42 42 42
42 42 42 42 39 11 5 0 2 0 4 15 15 13 23 35
63 65 63 12 39 62 18 0 0 6 41 35 51 49 60 60
58 60 62 62 44 23 17 13 16 21 18 33 42 40 37 29
31 34 28 24 48 31 29 6 1 16 20 6 0 0 0 0
0 0 0 0 0 0 0 0 0 3 4 4 6 7 1 5
2 1 1 1 0 0 5 9 2 0 1 2 7 15 17 23
26 37 18 0 0 0 0 11 28 36 32 39 58 59 45 17
2 0 0 0 0 0 0 0 27 42 42 42 42 42 41 41
42 43 42 42 16 0 0 4 0 0 13 43 42 41 40 36
13 17 51 20 32 63 50 24 17 27 54 58 53 38 49 57
39 38 45 52 34 0 0 0 1 22 13 31 44 40 30 31
41 47 51 53 53 36 28 7 2 18 14 5 1 0 0 0
0 0 0 0 0 0 0 0 0 1 4 4 2 8 1 8
3 2 0 4 3 0 5 8 2 0 1 4 11 19 17 12
4 2 5 0 0 0 0 0 0 19 44 45 56 54 26 4
0 0 0 0 0 0 0 8 40 42 43 43 41 42 42 42
42 42 42 42 13 0 0 23 0 0 11 43 42 41 40 39
1 1 45 43 29 63 60 59 58 58 59 56 40 7 15 25
8 0 0 21 37 0 0 5 4 14 17 36 45 36 4 1
6 13 24 53 52 34 28 11 2 7 2 0 0 0 0 0
0 0 0 0 0 0 0 0 0 0 0 1 0 4 0 6
3 0 0 2 3 0 5 7 3 3 2 24 37 51 76 77
46 39 36 1 2 0 0 0 0 0 22 56 54 40 16 7
0 0 0 0 0 0 0 23 42 41 42 42 42 42 41 41
41 42 42 42 17 0 0 5 0 0 8 43 42 42 40 40
5 11 44 50 22 60 60 61 62 60 57 52 35 6 0 2
5 0 0 18 40 1 4 35 36 18 10 37 48 35 2 4
24 28 27 53 47 32 30 28 10 6 3 0 0 0 0 0
0 0 0 0 0 0 0 0 0 0 0 0 0 1 0 1
3 0 0 0 0 0 16 15 17 12 10 38 81 107 119 115
76 58 30 1 2 2 0 0 0 0 1 54 50 33 31 26
8 0 0 0 0 0 7 32 41 41 41 42 42 43 42 43
43 42 42 41 17 0 0 0 0 0 5 42 42 42 42 41
11 15 42 51 14 60 62 63 63 59 25 18 16 6 2 3
20 0 0 17 42 2 25 42 29 4 0 37 49 34 0 4
17 38 39 53 42 30 32 28 4 3 3 0 0 0 0 0
0 0 0 0 0 0 0 0 0 0 0 0 0 0 0 0
0 0 0 0 1 15 41 33 38 32 42 64 105 124 126 119
71 54 28 0 2 1 0 0 0 0 0 30 43 28 9 0
0 0 0 0 2 3 23 38 42 43 42 43 42 42 42 42
42 40 35 33 14 0 0 1 0 3 5 42 42 42 42 42
4 10 31 51 4 40 45 48 50 53 50 51 48 46 46 41
40 2 0 17 42 8 8 46 36 1 0 39 53 35 0 2
4 12 34 55 40 31 34 25 5 3 5 0 0 0 0 0
0 0 0 0 0 0 1 4 0 2 4 0 0 0 0 0
0 0 0 0 10 46 75 76 71 82 93 114 126 132 132 118
61 51 33 0 0 0 0 0 0 0 0 8 23 1 0 0
0 0 0 8 15 14 35 40 40 41 41 41 43 42 42 42
27 7 2 1 1 0 0 1 1 3 3 41 43 42 43 43
2 24 32 53 2 0 0 1 2 4 30 39 26 10 12 16
12 2 0 17 41 1 1 30 18 8 2 41 54 37 0 0
0 1 28 56 41 31 31 38 43 42 36 31 5 0 0 0
0 0 0 0 0 0 6 11 4 7 3 0 2 0 0 2
3 1 0 7 26 72 103 117 118 122 128 132 135 134 131 110
55 48 32 0 0 0 0 0 0 0 1 7 0 0 0 0
0 1 0 14 16 27 42 41 42 42 43 43 44 43 44 42
23 29 20 17 7 2 1 1 3 8 7 33 42 42 43 44
1 21 29 54 4 0 0 0 0 0 30 44 28 0 0 0
0 0 0 15 42 0 0 0 0 7 1 40 55 36 0 0
0 0 24 57 43 31 32 46 63 64 61 61 16 4 0 0
0 0 0 0 0 1 3 10 7 8 7 0 3 0 3 3
5 6 4 11 59 93 109 127 131 135 132 137 138 137 134 112
63 49 21 0 0 0 0 0 0 0 2 7 0 0 0 0
0 4 1 16 23 30 42 42 43 43 43 43 43 44 43 43
60 67 42 28 7 0 0 0 0 1 0 13 23 42 43 43
0 4 12 54 9 0 0 0 0 0 35 52 37 0 0 0
0 0 0 14 44 1 0 0 0 0 0 38 54 33 0 0
0 0 24 59 45 29 33 45 64 64 64 64 26 1 0 0
0 0 0 0 0 2 0 3 5 6 6 7 11 10 10 8
7 5 9 27 65 89 102 124 130 132 137 138 140 136 134 118
68 46 9 0 0 0 0 0 0 0 2 27 36 0 0 0
0 5 3 24 28 25 43 42 43 43 44 43 43 44 43 43
25 21 20 3 1 0 0 0 0 0 0 24 8 15 31 43
0 0 2 51 20 5 4 5 5 6 38 58 50 2 0 0
0 0 0 12 41 0 0 0 0 0 0 36 55 34 0 0
0 0 19 54 41 29 33 32 36 37 38 39 19 0 0 0
0 0 0 0 0 9 5 5 9 9 10 13 15 17 14 10
9 6 15 50 83 98 102 121 118 124 136 139 139 137 135 126
79 44 2 0 0 0 0 0 0 0 5 60 80 14 0 0
0 4 4 30 34 20 43 42 42 42 43 41 39 37 34 31
17 6 4 1 0 0 0 0 0 0 0 6 10 2 22 44
1 0 0 47 52 43 33 43 44 45 56 60 44 2 0 0
0 0 0 11 41 0 0 0 0 0 0 35 56 35 0 0
0 0 17 54 43 28 32 35 43 43 41 39 26 0 0 0
0 0 0 0 3 12 12 9 27 36 48 24 26 23 20 9
18 10 25 60 84 101 95 97 114 125 136 142 140 139 137 133
90 45 0 0 0 0 0 0 0 6 11 84 102 56 0 0
0 1 7 34 39 18 42 42 43 43 42 25 12 11 12 11
6 2 5 0 0 0 0 0 0 0 0 7 11 3 19 45
2 1 1 40 57 43 48 49 49 54 62 45 7 0 0 0
0 0 0 10 44 7 7 8 12 16 20 43 56 37 0 0
0 0 20 60 47 27 33 37 47 48 47 46 33 0 0 0
0 0 0 0 4 17 30 24 45 65 53 18 31 28 19 17
28 17 35 61 88 101 106 116 113 124 135 143 143 140 140 140
108 57 1 0 0 0 0 0 8 11 30 93 115 94 11 0
0 0 9 38 41 18 37 34 29 24 18 9 6 5 6 7
8 7 13 9 9 0 0 0 0 0 0 6 10 4 17 44
45 50 52 62 58 23 30 35 40 47 59 50 24 19 19 16
14 13 13 23 50 44 45 47 50 54 56 53 42 28 13 9
7 5 21 57 43 26 33 39 49 50 50 48 36 1 0 0
0 0 0 0 1 27 53 51 58 54 31 32 21 24 21 31
34 28 36 62 93 110 122 135 138 133 135 135 142 141 142 142
135 72 12 0 0 0 7 10 27 7 61 104 118 111 51 0
0 0 6 22 15 8 6 6 8 10 11 12 13 14 15 15
15 12 5 7 21 0 0 0 0 0 0 7 11 6 15 43
67 72 74 74 63 4 0 0 3 8 41 59 54 56 54 52
50 50 51 53 54 51 51 52 53 52 53 52 49 48 48 46
45 40 42 50 46 42 44 45 46 48 47 47 38 2 0 0
0 0 1 5 0 24 65 75 61 54 65 67 19 21 28 41
45 37 34 64 92 111 125 138 142 145 147 143 140 143 142 142
141 103 40 1 0 2 15 34 24 24 94 114 119 115 95 12
0 0 6 8 10 12 12 14 15 15 14 15 15 15 14 14
14 5 2 7 23 0 0 0 0 1 0 4 8 13 15 38
65 69 75 74 69 14 0 0 2 7 41 63 61 60 60 60
57 60 61 56 42 35 44 48 48 48 47 48 48 48 47 47
47 47 46 46 46 45 46 46 46 45 45 45 37 6 0 0
3 1 0 1 0 14 64 85 63 69 90 47 24 24 42 55
62 47 36 64 89 108 125 142 143 144 143 143 142 140 142 143
142 133 95 31 2 6 20 23 15 81 114 122 119 115 110 58
0 0 8 14 14 14 14 13 12 10 9 7 5 3 2 11
16 13 2 12 11 0 0 0 1 12 5 6 14 18 20 36
46 45 38 34 31 8 0 0 3 7 41 62 61 58 58 58
58 59 61 36 27 28 41 47 47 47 47 47 47 46 46 46
47 46 46 46 45 44 45 45 45 44 44 44 36 8 0 0
7 1 0 0 0 6 46 76 55 80 59 24 33 66 79 90
100 77 39 76 84 97 116 132 140 141 141 141 143 139 136 139
141 136 123 100 56 26 19 35 75 103 117 120 116 115 113 95
14 0 9 10 5 3 1 0 0 0 0 0 0 0 0 13
16 14 11 10 4 0 0 0 0 2 0 5 12 12 13 36
19 25 6 0 0 0 0 0 0 6 41 53 32 33 32 30
29 32 35 25 25 28 39 47 45 39 38 37 36 35 34 33
32 31 30 29 28 27 26 26 26 25 25 24 21 6 0 2
6 0 0 0 0 0 24 49 67 70 53 39 66 86 112 106
115 96 52 86 95 111 127 132 137 140 140 140 139 140 138 137
138 134 125 117 107 92 83 84 97 106 110 110 109 114 117 109
52 0 11 6 0 0 0 0 0 0 0 0 0 0 1 15
16 14 11 17 15 18 18 20 20 19 21 25 26 26 24 26
12 26 7 0 0 0 0 0 0 2 41 43 0 2 1 0
0 7 8 19 25 27 37 46 41 16 2 2 2 1 1 1
1 0 0 0 0 0 0 0 0 0 0 0 4 1 0 0
1 0 0 0 0 0 14 63 70 97 99 98 61 64 117 119
121 95 57 86 85 107 123 135 134 138 136 135 139 138 134 136
136 129 126 123 112 100 93 91 95 107 105 110 112 116 117 113
85 8 14 2 0 0 0 0 0 0 0 0 0 0 3 16
15 14 13 47 19 24 27 33 31 26 32 27 26 24 17 16
12 26 8 0 0 0 0 0 0 0 39 44 1 2 0 3
0 6 14 20 24 26 33 45 42 22 0 0 0 0 0 0
0 0 0 0 0 0 0 0 0 0 0 1 3 5 0 0
0 0 0 0 0 0 0 42 79 75 92 113 122 113 113 115
115 104 79 87 93 111 122 129 133 133 133 134 134 135 134 138
135 133 128 123 113 102 94 91 89 111 115 118 115 122 124 113
91 30 13 0 0 0 0 0 0 0 0 0 0 0 6 16
14 14 13 31 19 24 29 42 69 54 78 79 81 30 19 40
12 26 10 0 0 0 0 0 0 0 38 43 1 2 0 2
11 19 20 21 24 26 33 44 43 27 1 0 0 0 0 1
1 1 1 1 1 0 1 1 2 1 1 1 3 25 5 0
0 0 0 0 0 0 0 9 33 63 93 118 123 124 122 114
117 117 104 96 105 115 125 130 134 135 133 134 136 136 134 134
134 133 129 125 115 104 94 90 89 117 131 126 121 120 108 104
83 27 9 0 0 0 0 0 0 0 0 0 0 0 10 16
14 16 12 28 19 26 33 51 105 73 103 100 99 32 18 83
13 27 16 4 0 0 0 0 0 0 34 42 2 1 4 16
19 19 18 20 23 25 31 43 42 31 3 0 0 0 1 2
2 2 2 2 2 1 1 1 1 1 1 0 2 35 30 2
0 0 0 0 0 0 0 0 7 60 107 122 124 122 123 106
112 115 109 108 115 114 122 127 135 133 132 133 135 133 135 134
135 134 130 124 116 105 94 90 89 113 127 121 98 64 83 88
59 17 7 0 0 0 0 0 0 0 0 0 0 0 13 15
15 18 7 27 30 35 39 39 59 40 47 43 37 30 28 46
12 26 20 14 1 0 0 0 0 0 34 41 3 0 4 16
18 18 17 20 23 25 31 43 43 33 5 0 1 1 1 2
3 2 3 2 2 3 3 2 2 1 0 0 1 33 40 8
0 0 0 0 0 0 0 0 0 38 117 132 135 133 120 92
108 107 106 105 103 114 119 132 137 136 136 135 135 136 138 136
134 131 131 124 117 104 92 91 81 106 106 91 84 64 80 56
24 14 3 0 0 0 0 0 0 0 0 0 0 1 16 15
16 19 2 9 36 39 41 28 28 25 25 20 23 23 25 24
10 23 21 9 0 0 0 0 0 0 34 37 3 0 1 16
18 19 18 20 22 25 29 41 43 35 8 0 1 2 1 2
2 2 3 2 2 2 3 2 2 1 1 1 1 29 43 17
0 0 1 0 0 0 0 0 0 0 42 94 113 115 79 81
103 105 106 103 103 110 121 132 137 130 136 136 136 136 137 135
135 135 133 126 117 108 95 93 91 81 75 86 100 72 63 30
15 15 1 0 0 0 0 0 0 0 0 0 0 4 17 15
17 15 0 12 30 37 41 29 28 20 25 19 18 19 26 25
8 20 20 7 5 3 1 0 0 1 35 36 6 0 1 16
18 18 17 19 22 25 28 40 42 36 11 0 1 1 1 1
1 2 2 2 2 2 2 2 2 1 2 1 2 24 43 28
1 0 0 0 0 3 1 2 1 0 5 48 82 78 53 85
97 99 98 103 102 104 120 129 135 133 135 137 139 139 138 139
137 136 133 129 120 110 97 97 105 101 97 113 108 64 65 26
14 12 0 0 0 0 0 0 0 0 0 0 0 8 17 15
17 9 0 3 5 22 41 29 27 16 19 19 21 21 28 26
6 17 30 40 43 40 37 36 35 35 45 39 7 0 2 16
18 19 18 19 21 24 27 39 42 37 13 0 1 1 1 1
2 1 2 2 2 2 2 2 1 1 1 1 1 19 41 33
2 0 0 0 0 0 2 0 1 3 21 54 93 100 96 89
90 93 99 101 101 104 113 117 131 134 136 138 140 138 138 136
134 137 133 131 123 114 102 103 106 106 105 112 100 64 59 20
15 9 0 0 0 0 0 0 0 0 0 0 0 12 16 15
15 5 0 2 2 26 38 29 26 17 22 20 21 22 27 26
4 15 32 46 49 45 40 39 39 34 29 34 10 0 3 16
17 18 18 18 21 23 26 38 41 36 16 0 2 2 1 1
2 1 2 2 2 2 2 2 2 1 1 2 2 18 43 34
3 0 0 0 0 0 0 6 27 32 52 92 103 99 97 89
88 93 97 100 104 108 117 117 127 134 135 138 140 138 141 139
139 138 135 131 124 117 104 107 110 102 103 109 96 64 49 17
16 5 0 0 0 0 0 0 0 0 0 0 0 15 17 15
17 3 0 11 12 34 38 31 25 14 21 19 19 23 27 26
6 20 32 48 48 36 17 7 3 1 0 21 12 0 2 15
17 17 17 18 21 23 25 37 40 36 17 0 1 1 2 1
1 2 3 2 3 3 2 1 2 2 1 1 1 14 43 35
5 0 0 0 0 0 0 13 27 35 48 87 108 103 96 88
84 93 98 104 107 109 116 123 128 131 135 137 140 138 140 138
138 138 135 133 128 118 111 112 112 106 103 108 96 66 40 15
16 2 0 0 0 0 0 0 0 0 0 0 3 17 15 16
16 0 5 21 12 41 35 31 25 13 16 20 18 24 26 25
18 23 12 14 16 17 2 0 0 0 0 17 23 9 12 15
15 17 18 18 21 22 25 35 40 36 19 0 1 1 1 2
2 2 2 2 2 3 2 2 2 1 2 2 1 11 43 38
11 0 0 0 0 0 0 16 32 34 32 74 110 111 101 91
83 93 101 105 109 108 116 123 126 129 134 136 135 137 139 141
140 137 135 133 127 121 115 111 112 111 111 110 100 69 36 15
14 0 0 0 0 0 0 0 0 0 0 0 6 17 15 17
12 0 10 19 11 43 34 28 13 3 11 20 19 24 26 26
26 27 13 0 1 4 0 0 0 0 0 22 44 39 32 15
14 16 17 17 21 22 25 34 40 37 21 0 0 0 1 1
1 2 2 2 2 1 2 1 1 2 2 1 1 9 43 38
22 0 0 0 0 0 0 1 5 14 35 82 114 113 107 96
83 88 99 106 111 113 118 124 127 131 135 137 135 138 139 139
139 139 138 132 128 122 115 107 109 115 113 96 77 69 29 16
11 0 0 0 0 0 0 0 0 0 0 0 10 16 15 17
9 0 5 8 17 44 33 20 10 2 10 18 18 26 27 26
36 32 24 1 3 0 0 0 0 0 1 30 33 7 7 11
14 15 15 15 20 21 24 32 38 37 22 0 1 2 1 2
2 2 2 2 2 1 1 1 0 1 1 1 1 7 42 39
29 2 0 0 0 0 0 0 11 16 47 89 116 117 112 102
85 83 95 105 111 114 120 123 126 131 134 135 137 138 138 138
138 139 139 134 127 121 111 104 103 99 82 82 69 73 26 16
7 0 0 0 0 0 0 0 0 0 0 0 13 17 17 17
6 2 41 36 29 43 33 20 9 1 11 18 17 25 26 26
42 30 17 6 4 0 0 0 0 0 0 28 29 0 0 7
13 15 16 15 19 20 23 30 37 36 22 0 0 0 0 1
1 1 2 2 2 1 1 1 2 1 2 1 2 6 41 39
33 6 0 0 0 0 0 0 4 17 53 96 117 119 116 106
90 79 89 102 109 113 117 122 126 130 132 134 136 136 137 136
137 137 137 133 126 115 106 91 69 48 64 57 61 56 19 16
3 0 0 0 0 0 0 0 0 0 0 1 17 16 17 17
2 12 84 46 29 41 33 21 8 10 17 18 18 26 27 27
34 28 12 14 8 0 0 0 0 0 0 23 30 1 0 6
13 14 15 15 18 20 22 29 36 36 23 1 0 0 0 2
1 1 2 2 1 1 1 1 1 1 0 1 1 5 39 39
34 18 3 0 0 0 0 12 27 43 78 108 118 122 119 112
98 81 82 97 107 113 117 120 124 127 132 132 135 136 136 134
134 134 134 130 123 110 97 85 61 73 79 59 49 42 18 15
1 0 0 0 0 0 0 0 0 0 0 4 18 16 18 16
0 15 61 27 37 40 33 24 19 10 22 18 20 29 28 26
18 12 9 8 6 6 6 7 12 19 24 28 30 2 0 4
12 13 14 14 17 18 20 27 36 35 24 1 0 0 0 1
1 1 1 1 1 2 1 1 1 1 2 1 1 4 39 39
36 50 30 0 0 0 0 9 37 56 91 111 119 121 119 116
104 86 80 89 103 110 115 120 123 126 130 130 129 131 131 131
130 129 127 124 112 102 95 97 97 92 102 98 77 59 18 12
0 0 0 0 0 0 0 0 0 0 0 8 18 16 18 12
0 2 19 20 41 37 33 28 19 14 20 19 23 30 29 27
37 19 17 13 16 19 21 23 27 34 41 42 35 13 5 7
12 12 13 13 15 17 19 25 34 33 23 1 0 0 0 1
2 1 1 0 1 0 1 0 0 0 0 0 0 3 38 39
36 58 51 4 0 0 2 13 28 65 95 112 119 120 119 117
108 94 81 84 96 106 114 119 121 124 126 129 129 127 128 127
125 122 122 117 107 101 99 107 114 101 91 89 76 60 19 12
6 6 6 6 6 7 6 6 7 7 7 13 18 17 18 8
0 2 9 17 47 35 34 31 17 15 20 20 25 28 29 26
35 30 30 28 31 31 33 34 35 38 42 40 36 32 29 23
14 11 12 12 15 16 19 25 33 33 23 1 0 0 0 1
1 0 0 0 0 0 0 0 0 0 0 0 0 3 37 39
34 44 43 16 2 0 27 54 68 83 102 112 118 121 121 118
112 104 90 84 88 97 107 113 118 122 124 126 130 128 127 122
122 120 115 110 104 100 104 107 113 113 104 91 69 45 17 17
16 16 16 16 16 16 16 16 16 17 17 17 18 18 19 4
0 3 9 24 47 35 34 29 17 15 20 21 26 28 28 27
22 20 19 17 16 14 12 10 9 9 8 6 10 6 2 4
8 8 10 10 14 16 19 24 32 32 23 1 0 0 0 0
0 0 0 0 0 0 0 0 0 0 0 0 0 2 36 38
32 26 23 21 14 15 52 72 86 96 100 109 114 121 120 118
112 108 99 89 85 88 99 107 111 116 120 123 125 124 124 122
119 115 110 106 101 99 102 104 106 101 98 77 53 31 16 17
17 17 17 17 17 17 17 17 17 16 17 17 16 19 20 2
0 8 9 30 46 36 34 29 17 16 20 21 29 28 28 27
0 0 0 1 1 0 0 0 0 1 2 4 14 8 0 1
7 7 8 8 12 15 18 22 31 32 24 1 0 0 0 0
0 0 0 0 0 0 0 0 0 0 0 0 0 3 36 38
32 27 27 26 25 33 62 76 88 93 97 105 113 119 121 120
115 110 104 95 88 84 84 94 104 110 114 117 120 119 118 118
117 113 110 103 98 96 98 97 95 87 70 48 33 14 18 19
18 18 18 26 28 18 17 18 17 18 18 17 13 14 17 0
0 27 32 39 44 38 36 28 17 15 16 21 29 28 29 27
0 0 0 7 8 0 0 0 0 0 3 3 13 10 0 0
6 7 9 10 13 14 16 22 30 31 23 1 0 0 0 0
0 0 0 0 0 0 0 0 0 0 0 0 0 4 39 39
32 32 33 30 22 44 66 79 89 91 94 101 110 118 120 121
118 113 106 98 92 87 83 85 92 100 107 111 112 112 114 114
115 111 109 101 96 90 91 89 79 68 54 43 26 12 22 28
31 36 53 98 103 69 66 60 37 46 45 43 40 19 1 0
24 43 22 45 47 43 58 52 41 17 26 93 67 46 58 60
1 0 1 11 10 0 0 1 2 0 4 11 15 9 0 0
1 7 9 11 12 14 16 21 29 30 23 2 0 0 0 0
0 1 3 4 5 7 9 11 12 15 17 20 22 25 38 36
33 34 42 11 6 55 70 79 88 92 92 97 107 117 120 120
118 115 108 100 95 89 84 82 84 91 96 103 107 108 110 111
111 110 107 101 92 76 82 77 76 69 53 33 23 31 76 112
118 135 148 151 151 148 136 109 40 16 14 14 17 33 33 6
101 146 34 49 51 46 102 106 94 18 28 88 92 78 89 87
6 6 7 5 4 9 11 12 14 14 10 7 8 2 0 0
3 2 9 11 12 14 15 20 29 29 28 15 15 18 20 23
26 28 30 31 32 33 34 34 34 33 34 33 33 32 32 32
32 37 18 0 22 65 74 80 88 93 93 96 106 116 119 119
119 116 110 104 95 91 88 85 83 86 90 95 99 103 105 107
107 108 106 101 97 96 94 92 86 66 52 47 43 48 78 116
118 128 137 141 150 148 135 109 33 13 15 13 11 24 25 46
123 141 28 51 45 35 82 86 60 5 4 57 65 52 62 55
15 14 7 7 14 16 16 16 17 17 17 8 3 10 0 0
6 0 7 11 12 13 15 18 28 30 32 32 31 32 36 37
36 35 35 35 35 35 34 35 34 33 33 33 33 32 32 33
54 54 3 0 45 72 80 81 89 90 91 94 105 115 118 119
116 115 113 107 102 96 91 89 86 84 84 87 94 99 101 103
103 106 107 107 104 103 101 93 77 64 51 48 61 64 71 104
120 136 149 151 151 146 132 105 29 10 11 11 10 33 0 16
76 58 24 51 32 12 11 9 1 3 3 0 7 22 33 27
13 5 10 14 16 16 16 17 17 20 23 9 5 8 4 6
2 0 2 4 8 12 14 18 28 29 31 32 29 29 34 35
35 35 35 36 36 38 34 26 28 32 32 23 25 30 29 38
61 54 0 9 62 78 85 85 88 89 91 96 105 113 118 118
117 114 114 113 108 103 96 91 87 84 83 84 87 91 93 96
99 102 105 105 105 105 98 82 67 60 38 29 57 50 46 72
107 67 110 136 133 120 97 45 11 11 9 8 16 41 10 14
52 35 40 50 26 5 0 0 0 1 0 0 0 9 28 15
3 10 14 14 15 15 15 15 24 37 37 8 2 0 0 1
0 0 0 5 8 11 12 16 26 29 31 32 31 30 33 32
33 32 32 38 61 62 14 1 1 5 7 2 4 20 30 81
95 12 0 34 69 84 89 90 89 90 90 98 107 112 116 119
119 115 114 114 114 111 103 97 89 86 80 80 80 79 85 88
92 95 99 99 98 98 87 70 63 49 24 10 39 52 51 50
50 10 15 20 14 11 15 5 12 12 16 45 71 85 93 103
100 105 102 83 35 34 2 0 0 0 0 0 0 1 22 15
7 10 10 8 9 8 8 8 28 28 20 4 0 0 0 0
0 0 0 0 5 4 6 7 14 15 15 14 13 12 12 11
14 16 26 68 75 25 0 0 0 0 0 0 0 1 30 105
74 0 9 60 76 88 94 94 92 92 93 99 108 116 117 118
120 118 115 113 117 117 111 104 95 86 79 75 74 73 74 75
80 88 94 93 86 86 74 66 59 40 18 0 2 28 84 104
105 91 28 11 14 18 18 12 17 9 57 107 104 117 113 104
97 109 109 93 31 39 0 0 0 0 0 0 0 0 12 25
8 9 9 11 13 10 3 9 52 22 16 10 0 0 0 0
0 0 0 0 2 0 0 0 0 0 0 0 0 1 3 3
10 20 51 80 40 2 0 0 0 0 0 0 0 18 73 93
28 0 45 74 86 92 97 98 95 93 95 100 109 117 121 118
121 119 120 117 115 115 112 106 99 86 74 64 62 65 64 64
67 70 78 78 76 71 58 55 44 26 19 0 0 0 2 6
13 37 69 75 48 30 34 38 62 82 113 118 106 113 111 106
100 107 108 87 4 1 0 0 0 2 0 4 4 5 8 17
31 35 39 42 45 34 1 48 47 3 8 16 7 0 0 0
0 0 0 0 0 0 0 0 0 0 0 0 3 10 12 7
9 29 69 56 16 0 0 0 0 0 0 0 1 54 91 106
8 7 72 83 92 95 99 100 95 95 97 102 108 118 122 123
119 121 119 117 111 109 108 103 98 89 73 55 42 41 43 44
45 46 47 50 50 44 40 33 26 22 20 11 15 17 19 18
16 13 11 31 66 66 66 85 77 48 46 62 71 78 77 77
78 79 80 67 30 29 29 24 20 17 5 13 10 7 4 1
58 57 57 57 59 54 13 59 12 0 1 13 18 6 0 0
0 0 0 0 0 0 1 2 2 1 0 0 2 10 13 12
6 44 67 24 0 3 13 4 0 0 0 0 17 61 111 113
9 21 86 93 98 99 101 103 101 95 99 104 109 117 121 123
124 118 119 116 111 106 102 99 93 79 63 47 27 17 11 7
7 6 7 7 27 61 35 25 23 23 28 36 46 58 75 82
93 85 66 57 66 94 102 101 122 140 148 152 144 123 88 77
62 48 43 36 28 24 24 19 15 11 4 4 5 4 2 0
59 58 57 57 52 46 22 34 0 0 0 7 26 4 0 0
0 0 2 2 1 1 4 5 4 2 1 1 6 16 22 18
5 57 65 13 18 34 45 16 0 1 4 18 53 87 109 89
20 31 94 100 102 103 102 103 102 100 99 103 109 117 121 124
125 124 117 113 109 104 99 94 85 71 59 52 34 15 8 5
4 2 0 0 17 82 46 36 42 52 59 75 103 131 150 152
151 137 101 83 74 74 79 94 139 152 151 131 151 137 92 69
48 37 33 27 22 18 20 17 15 10 5 2 4 2 1 0
26 22 17 11 6 2 5 22 0 3 0 5 3 0 0 0
1 5 4 9 10 9 8 8 9 12 16 20 23 23 22 10
10 60 42 15 38 43 48 37 13 43 64 60 62 90 96 60
35 38 99 105 105 107 105 106 106 105 101 100 109 118 121 124
124 124 121 111 105 103 98 88 76 64 60 61 59 41 22 14
11 15 1 0 3 48 51 21 18 40 43 49 83 106 137 152
151 117 79 77 66 67 73 95 140 152 151 143 151 141 103 76
49 41 32 27 22 19 21 18 17 12 7 2 5 3 2 1
0 0 0 0 0 0 4 16 0 5 3 0 0 0 0 0
1 4 2 5 6 6 6 7 9 12 21 27 27 18 15 2
18 66 31 2 35 53 62 62 84 75 72 63 71 81 118 69
36 42 102 109 110 108 107 107 107 106 104 102 108 117 123 125
123 121 120 115 109 99 94 82 70 62 63 68 76 73 63 50
38 33 6 0 3 71 62 20 23 40 51 58 69 96 133 153
151 118 81 72 66 66 70 94 138 152 151 120 151 144 103 74
51 41 35 28 23 20 20 19 18 13 8 1 6 4 2 1
5 0 0 0 0 1 7 18 12 12 1 0 0 0 0 0
0 0 1 1 1 0 1 2 4 9 19 27 22 3 0 0
25 68 28 6 47 83 87 74 42 58 95 61 71 99 118 68
55 48 97 116 110 109 109 110 110 107 107 106 106 114 121 125
125 122 119 117 112 105 94 81 70 74 81 91 93 86 73 63
52 37 7 2 8 59 76 44 28 49 51 68 82 81 81 136
152 118 84 70 63 58 71 94 131 152 151 113 151 144 101 73
52 40 32 26 22 19 19 20 18 13 8 1 5 4 1 0
5 11 4 1 4 4 9 15 4 4 0 0 0 0 0 0
0 0 1 0 0 0 1 2 3 8 19 27 18 1 0 0
27 72 34 35 68 49 51 71 87 74 72 48 52 94 97 57
69 55 93 120 116 113 114 113 112 110 108 107 108 111 120 125
124 122 119 116 110 103 95 84 80 85 96 100 95 86 74 65
53 37 6 38 39 42 66 53 28 44 48 69 46 65 49 73
97 88 83 71 59 60 74 96 133 152 151 113 150 146 105 75
56 42 33 26 24 19 20 21 18 13 8 2 5 4 2 0
3 9 30 7 0 0 12 16 1 0 0 0 0 0 0 0
0 0 0 0 0 1 3 5 5 9 20 27 17 10 5 0
31 74 76 87 100 97 120 115 115 97 62 73 63 84 125 68
61 66 89 123 121 119 120 117 116 112 110 108 108 111 118 122
123 121 118 114 110 103 94 85 87 99 104 102 94 85 73 66
54 36 20 74 32 32 88 68 40 36 59 67 68 61 50 94
87 79 97 77 63 59 71 91 132 152 152 111 150 148 110 77
57 43 31 25 24 17 19 21 18 14 9 2 5 4 2 0
1 0 9 12 1 1 15 9 0 0 0 0 0 1 1 0
0 0 1 7 0 2 6 7 7 14 25 32 24 23 17 6
51 69 96 102 91 84 107 122 102 64 51 64 44 79 102 66
52 62 82 123 125 126 125 125 117 115 112 109 108 113 118 122
124 118 113 112 107 100 94 90 99 106 108 103 94 83 75 67
58 33 45 90 33 46 72 57 34 31 36 65 48 46 57 82
68 73 87 73 59 53 68 90 130 152 151 108 147 144 103 74
59 43 27 23 20 17 20 23 19 14 9 3 5 3 1 0
0 0 0 0 4 2 0 0 0 0 0 0 0 0 1 0
1 0 5 10 0 3 6 7 16 37 39 37 31 44 58 95
99 73 108 93 86 73 72 81 109 59 68 64 57 83 103 69
46 75 79 120 130 128 130 128 122 117 116 110 107 112 121 124
120 116 111 107 102 97 93 95 106 110 109 102 94 86 77 68
66 28 42 48 32 66 58 73 38 51 29 42 70 43 41 48
67 61 71 66 44 43 62 80 100 142 152 106 145 139 105 77
56 42 28 21 18 15 18 23 20 15 10 4 5 3 1 0
3 0 0 2 10 4 1 2 4 3 1 0 0 0 0 0
0 0 6 12 1 4 6 5 14 37 39 46 67 57 35 72
98 92 95 108 120 93 91 86 69 50 89 83 55 85 115 74
51 70 89 106 135 134 134 132 129 120 117 112 108 110 120 124
125 116 111 109 104 101 102 108 117 117 110 100 94 88 77 73
76 28 65 55 43 46 53 58 29 30 49 58 46 91 95 78
80 37 59 81 73 45 61 74 68 87 119 103 146 136 106 76
52 36 27 23 18 12 15 22 20 15 11 5 5 2 0 0
4 2 2 3 7 10 10 11 12 11 2 4 0 0 0 0
0 0 5 16 8 8 9 6 21 65 61 74 91 69 69 99
98 74 88 99 94 61 68 90 43 64 85 82 58 84 74 55
51 64 92 94 130 141 140 136 131 126 121 114 108 108 117 125
124 114 108 108 107 108 112 118 122 118 110 103 97 87 80 85
82 40 84 41 57 82 64 64 35 24 55 49 23 42 60 54
85 69 72 70 69 39 83 84 78 88 111 93 111 129 107 78
54 35 32 27 17 10 15 22 20 14 11 6 5 2 0 0
12 13 10 9 11 14 14 15 20 19 5 4 3 0 0 0
0 0 11 24 33 24 22 64 99 106 50 29 51 57 33 57
73 76 97 98 107 89 45 60 48 47 51 56 52 58 117 91
64 62 64 88 114 145 145 141 137 130 126 116 111 108 116 124
123 111 107 109 111 114 117 123 124 117 109 104 97 89 89 97
80 51 67 68 60 82 86 88 56 23 28 35 22 71 69 70
111 52 36 35 39 38 70 75 81 95 98 68 96 80 85 79
54 39 34 27 17 13 17 24 20 14 12 7 6 2 1 0
6 18 15 9 8 7 6 8 9 5 1 4 8 1 1 0
0 0 0 3 17 10 72 99 69 67 83 60 97 94 53 83
98 99 115 130 126 92 81 74 72 81 84 57 86 74 108 91
53 44 46 74 97 138 145 145 137 136 131 121 114 110 116 124
122 108 106 110 113 117 123 126 123 115 108 104 98 95 101 104
72 69 106 71 68 80 67 65 70 31 21 39 14 62 57 49
62 26 41 51 53 50 59 47 76 89 82 53 65 59 56 66
54 39 32 26 18 13 18 23 20 13 11 6 5 2 0 0
0 2 2 0 0 0 0 0 0 0 0 5 11 0 9 0
0 0 0 0 14 70 95 109 106 98 109 56 77 87 60 69
105 67 99 113 121 81 73 46 54 65 57 69 101 79 93 61
56 48 62 75 90 117 148 148 145 140 133 124 115 113 117 124
124 108 107 113 118 124 130 133 123 114 109 105 102 102 107 105
69 83 112 80 79 71 49 70 55 24 14 15 13 61 70 44
74 50 65 60 59 38 81 84 97 103 101 96 80 60 39 66
51 33 28 21 19 14 20 25 21 15 12 6 6 2 1 0
0 0 0 0 0 0 0 0 0 0 0 4 6 6 18 0
0 0 0 5 69 111 115 112 104 88 106 71 57 100 75 62
114 102 97 116 124 83 70 65 101 95 75 89 92 74 76 88
83 75 67 59 74 97 136 151 147 144 139 128 119 115 119 130
126 108 107 115 122 131 137 134 122 112 108 106 107 106 110 103
73 83 114 65 62 87 79 88 80 34 28 27 23 36 65 67
89 58 47 64 59 41 82 78 85 106 87 82 112 111 75 52
44 36 26 20 19 14 19 24 21 14 12 4 5 2 1 0
0 0 0 0 0 0 0 0 0 0 0 1 3 3 1 0
0 0 0 60 113 113 89 64 69 56 71 29 32 51 41 28
67 62 56 96 77 53 92 88 90 92 89 115 110 107 114 114
110 75 46 42 65 78 115 148 150 147 141 134 124 117 121 131
129 108 108 119 130 137 140 133 121 113 109 109 110 109 109 97
70 79 106 77 80 104 92 106 85 46 27 19 17 43 59 72
98 67 59 75 65 20 53 36 46 61 95 93 102 84 75 50
51 43 26 19 19 14 17 23 21 14 12 3 5 2 1 0
0 0 0 0 0 0 0 0 0 0 0 0 0 0 0 0
0 0 42 109 118 100 80 73 82 82 87 72 55 55 74 72
85 85 63 96 101 77 85 86 87 80 102 98 106 125 123 109
92 74 65 72 73 107 74 124 145 147 146 142 131 122 122 134
130 109 109 124 135 138 140 133 120 110 112 112 112 112 109 85
77 91 105 44 76 94 37 32 80 54 38 64 49 42 73 46
60 33 17 34 37 30 67 75 75 61 57 47 53 76 64 41
50 61 36 22 18 13 18 24 21 14 13 2 4 1 0 0
0 0 0 0 0 0 0 0 0 0 0 0 0 0 0 0
0 16 93 90 66 86 114 94 103 104 105 88 63 69 84 68
83 87 97 126 85 79 61 69 54 45 100 78 91 115 106 27
4 48 53 49 94 87 76 92 121 142 143 144 140 129 125 134
133 110 110 126 136 137 137 128 118 114 113 116 116 115 105 79
93 90 86 38 55 67 18 0 16 60 53 54 57 28 77 55
93 73 43 64 62 40 78 78 88 86 83 83 104 88 14 41
66 63 50 25 18 12 15 22 22 15 14 2 5 1 0 0
0 0 0 0 0 0 0 0 0 0 0 0 0 0 0 0
0 65 91 59 106 111 97 83 52 71 67 62 31 44 71 53
67 84 104 118 65 69 72 103 73 44 50 35 23 36 32 9
4 43 62 46 64 62 73 83 101 117 142 138 140 137 129 135
138 115 113 127 133 137 135 126 121 117 117 118 120 111 100 61
83 67 68 34 42 55 12 0 0 19 60 36 53 22 57 72
103 80 49 69 80 41 53 60 57 101 83 77 95 93 24 24
45 46 47 37 17 14 16 22 22 15 14 2 6 1 0 0
0 0 0 0 0 0 0 0 0 0 0 0 0 0 0 0
20 69 78 103 111 92 75 123 90 68 95 74 51 74 53 60
82 63 61 85 69 57 85 66 31 20 42 26 34 63 68 51
38 52 55 59 84 95 81 78 111 84 127 143 142 144 137 136
138 119 115 125 131 133 133 126 121 118 120 122 115 87 68 58
53 58 79 59 61 49 44 21 1 0 6 30 49 21 114 78
81 50 36 60 49 30 91 98 85 78 67 55 74 66 32 63
53 36 40 46 21 13 15 21 21 14 14 2 5 2 0 0
0 0 0 0 0 0 0 0 0 0 0 0 0 0 0 1
57 37 90 103 77 94 138 140 97 74 78 96 59 92 76 86
94 108 92 119 91 63 75 71 56 46 90 74 46 57 75 58
52 48 37 57 68 96 80 75 113 93 100 125 141 146 145 140
140 124 118 126 131 129 130 129 121 118 122 118 92 54 68 63
46 68 61 48 34 43 61 50 30 24 14 1 27 25 116 108
107 84 50 77 81 56 94 73 89 104 88 83 111 84 40 81
71 17 54 39 29 14 17 20 21 14 14 2 5 2 1 0
0 0 0 0 0 0 0 0 0 0 0 0 0 0 2 26
79 33 82 100 84 94 142 121 124 102 71 98 64 81 77 77
86 115 89 123 123 67 75 83 108 83 109 88 47 62 73 58
40 56 46 56 69 61 49 46 75 87 77 81 97 133 147 144
140 131 121 124 132 130 130 130 122 121 116 92 70 32 46 48
30 40 51 71 31 38 55 48 38 65 51 31 43 26 95 114
104 75 54 94 96 59 109 85 82 74 83 90 109 83 24 44
68 35 46 72 61 16 14 20 21 14 13 2 6 1 0 0
0 0 0 0 0 0 0 0 0 0 0 0 2 3 1 54
49 55 52 80 117 101 131 124 107 121 102 115 59 87 68 71
68 110 91 126 135 75 73 92 97 99 111 102 44 52 59 52
43 74 54 79 107 105 87 70 86 57 7 31 48 86 116 123
138 134 125 125 130 130 128 126 125 117 93 74 77 65 56 58
50 48 50 50 18 34 47 44 36 70 60 83 93 75 103 101
88 74 49 91 86 60 114 96 106 104 108 101 126 84 66 53
33 47 51 41 66 34 13 20 21 14 13 2 7 2 0 0
0 0 0 0 0 0 0 3 7 0 0 0 0 19 15 68
69 66 29 60 124 117 103 113 103 92 80 106 65 65 54 67
56 114 88 132 125 80 93 105 104 90 96 97 51 75 73 82
51 66 88 86 96 118 99 93 104 97 49 38 64 50 111 105
127 137 130 128 129 130 128 126 123 100 72 82 79 41 42 79
81 49 50 56 29 49 70 68 42 53 70 83 115 100 99 121
96 65 45 64 70 53 100 85 91 112 117 107 107 81 74 61
45 57 57 53 76 45 13 20 21 14 12 2 6 2 0 0
0 0 0 0 0 0 0 2 7 0 0 0 0 22 33 58
98 58 62 65 108 138 121 83 116 123 99 98 66 73 62 50
41 84 68 87 111 76 96 100 128 116 104 129 70 59 74 99
89 72 120 100 100 116 113 112 114 118 98 63 65 41 101 106
115 134 131 126 128 126 124 124 111 81 71 64 19 16 35 56
65 33 40 40 27 68 83 79 61 91 93 63 100 108 77 118
100 69 41 72 70 68 114 92 109 126 110 90 105 70 69 62
50 75 72 80 58 63 28 19 19 14 13 3 6 3 0 0
0 0 0 0 0 0 0 0 0 0 0 0 0 13 79 68
90 60 93 70 82 116 108 94 144 111 99 97 82 67 68 49
41 104 75 107 111 100 105 127 117 116 108 124 98 54 90 69
78 49 61 86 87 115 103 84 91 84 91 72 49 60 62 103
107 123 131 122 123 123 122 119 89 81 72 40 56 51 71 61
66 46 73 65 34 67 93 77 58 94 91 101 120 127 87 101
107 66 64 91 68 74 111 84 123 131 108 96 128 67 56 48
77 87 46 87 57 50 60 19 19 14 12 3 5 2 0 0
0 0 0 0 0 0 0 0 0 0 0 0 4 29 73 59
53 107 112 85 62 88 118 114 138 114 87 95 87 76 92 48
50 93 104 94 119 103 117 132 136 113 95 140 100 33 49 47
40 28 43 79 59 76 78 56 53 60 70 62 60 40 58 57
102 117 132 126 125 122 118 101 78 73 37 62 58 51 59 47
41 43 57 56 26 45 60 73 45 87 94 104 126 112 94 78
57 67 66 90 61 81 102 81 113 117 120 105 106 61 52 42
86 75 96 67 34 49 52 36 19 15 13 4 5 4 0 0
0 0 0 0 0 0 0 0 0 0 0 13 19 49 82 56
67 108 108 89 60 69 121 110 87 88 54 69 72 65 66 47
48 84 113 94 141 104 117 116 116 130 79 71 49 22 62 81
75 65 61 87 75 106 103 80 78 78 125 101 59 50 28 42
62 106 129 131 128 120 109 77 84 42 23 36 36 29 58 88
69 54 67 49 29 39 44 45 25 54 58 77 94 88 61 49
58 50 54 79 40 33 62 71 98 102 115 83 85 72 69 50
93 69 99 71 47 58 47 48 20 15 12 4 5 4 0 0
