P2
128 120
158
0 0 0 0 0 0 0 0 0 0 0 0 0 0 0 0
0 0 0 0 0 0 0 0 0 0 0 0 0 0 0 0
0 0 0 0 0 0 0 0 0 0 0 0 0 0 0 0
0 0 0 0 0 0 0 0 0 0 0 0 0 0 0 0
0 0 0 0 0 0 0 0 0 0 0 0 0 0 0 0
0 0 0 0 0 0 0 0 0 0 0 0 0 0 0 0
0 0 0 0 0 0 0 0 0 0 0 0 0 0 0 0
0 0 0 0 0 0 0 0 0 0 0 0 0 0 0 0
0 0 0 0 0 0 0 0 0 0 0 0 0 0 0 0
0 0 0 0 0 0 0 0 0 0 0 0 0 0 0 0
0 0 0 0 0 0 0 0 0 0 0 0 0 0 0 0
0 0 0 0 0 0 0 0 0 0 0 0 0 0 0 0
0 0 0 0 0 0 0 0 0 0 0 0 0 0 0 0
0 0 0 0 0 0 0 0 0 0 0 0 0 0 0 0
0 0 0 0 0 0 0 0 0 0 0 0 0 0 0 0
0 0 0 0 0 0 0 0 0 0 0 0 0 0 0 0
0 0 0 0 0 0 0 0 0 0 0 0 0 0 0 0
0 0 0 0 0 0 0 0 0 0 0 0 0 0 0 0
0 0 0 0 0 0 0 0 0 0 0 0 0 0 0 0
0 0 0 0 0 0 0 0 0 0 0 0 0 0 0 0
0 0 0 0 0 0 0 0 0 0 0 0 0 0 0 0
0 0 0 0 0 0 0 0 0 0 0 0 0 0 0 0
0 0 0 0 0 0 0 0 0 0 0 0 0 0 0 0
0 0 0 0 0 0 0 0 0 0 0 0 0 0 0 0
16 19 20 19 20 21 33 34 34 35 35 34 34 28 28 29
30 30 24 23 23 22 23 23 22 22 22 22 22 22 21 21
21 20 21 20 20 20 20 20 19 19 19 19 18 18 17 17
17 17 16 16 16 15 16 15 15 15 14 14 14 13 13 13
13 12 12 12 12 12 11 11 12 13 13 13 14 12 12 18
16 15 15 19 19 19 19 18 17 17 17 16 15 15 15 17
18 18 18 18 19 19 19 19 20 20 20 20 21 20 20 20
21 21 21 22 22 22 23 23 23 24 24 24 24 25 25 25
14 2 2 1 3 18 36 48 44 35 37 50 54 53 50 49
55 64 62 59 51 48 50 51 49 47 46 45 45 44 44 44
44 43 43 42 42 42 41 41 41 40 40 39 38 38 37 37
36 36 35 34 34 34 33 32 32 32 31 31 30 30 29 28
28 28 26 26 26 25 25 25 24 24 23 24 26 26 26 26
23 22 22 26 25 24 24 26 24 22 22 23 23 22 21 22
22 23 22 23 23 24 23 25 25 25 25 26 26 26 26 27
27 28 28 28 28 27 28 28 29 29 30 30 30 31 31 32
12 7 0 0 0 10 34 45 34 7 1 0 0 7 20 28
32 38 31 33 34 32 25 24 31 47 55 55 55 52 50 45
45 44 43 43 43 42 42 41 41 41 41 40 39 39 38 38
38 37 36 36 36 35 35 34 33 33 32 32 31 31 30 30
29 29 29 28 28 27 26 25 26 25 26 25 27 26 26 26
23 21 21 23 25 25 27 26 26 26 24 20 21 21 23 24
25 25 24 25 25 24 24 23 22 23 24 26 25 26 26 26
27 27 27 28 27 27 28 29 29 29 30 30 31 31 32 32
16 1 0 1 3 7 29 36 26 5 1 1 8 12 22 26
24 34 29 29 23 19 21 24 37 55 61 59 51 50 47 45
49 51 52 51 48 43 42 41 41 40 40 40 39 39 38 38
38 37 36 36 35 35 34 34 33 33 33 32 32 31 30 30
30 29 29 28 27 27 27 26 25 25 25 26 27 27 27 26
23 23 22 23 27 27 28 27 25 23 23 21 22 24 22 24
25 25 25 25 24 25 23 23 24 25 26 26 26 27 27 27
28 28 28 29 29 29 29 30 30 30 30 30 31 32 32 32
6 0 0 0 3 6 35 28 19 0 10 13 30 18 10 0
5 32 32 30 8 10 17 32 33 26 24 23 33 39 42 47
50 51 47 45 42 42 42 41 41 40 40 39 39 38 38 37
37 37 36 36 35 34 34 33 33 32 32 32 31 30 30 29
29 29 28 28 28 27 26 26 26 25 25 25 27 27 27 26
24 24 26 26 28 26 25 23 25 24 26 25 24 23 22 23
24 24 23 24 23 26 26 26 27 27 27 28 27 28 28 28
28 28 28 29 29 30 30 31 31 32 32 32 33 33 33 33
0 0 0 0 0 2 25 34 35 26 18 9 4 3 1 0
2 29 37 45 38 25 13 3 0 0 0 6 29 38 43 48
45 43 43 42 42 42 41 41 41 40 39 39 39 39 39 37
37 36 35 36 35 35 34 34 33 32 32 31 31 30 30 30
30 29 28 28 27 27 26 26 26 26 26 26 28 29 30 30
28 25 25 22 24 27 27 27 26 26 26 25 25 24 22 23
24 25 25 27 28 28 28 28 29 28 28 29 29 28 29 29
30 30 31 31 31 31 31 31 32 32 32 33 34 34 34 34
0 0 2 7 1 5 41 52 46 4 5 11 8 10 1 4
5 50 58 51 20 0 0 0 0 0 0 14 56 52 43 43
42 42 42 41 41 41 41 40 40 40 39 39 38 38 38 37
37 36 36 35 35 34 34 33 33 32 32 32 31 30 30 30
29 29 28 28 27 27 26 26 26 25 26 27 31 32 31 30
24 23 26 22 29 29 28 27 26 26 26 25 25 24 21 26
27 27 28 28 28 29 28 28 29 29 29 29 30 29 30 30
31 31 31 31 32 32 32 32 33 33 33 34 35 35 35 36
0 0 4 9 2 22 49 57 35 7 19 8 1 1 1 1
20 54 55 42 11 0 5 9 3 0 2 31 56 48 43 43
43 42 42 41 42 41 40 40 40 39 39 38 38 38 38 37
36 36 36 36 35 35 34 33 33 33 32 32 31 31 31 30
29 29 28 28 28 28 27 26 25 25 26 29 31 31 31 29
24 25 25 25 29 29 28 27 26 27 26 25 25 23 23 26
27 28 28 28 29 28 28 29 29 29 29 29 30 30 30 30
31 32 32 32 33 32 32 33 33 34 34 35 35 34 34 34
2 0 0 1 0 25 48 58 41 11 15 4 1 1 0 3
19 54 59 45 11 3 13 13 4 0 1 30 55 48 43 43
42 42 42 42 42 41 41 40 40 39 39 39 38 38 37 37
37 36 36 35 35 35 35 33 33 33 32 32 32 31 30 31
30 30 29 28 28 28 27 26 26 26 27 29 32 32 32 29
24 25 26 25 28 28 28 27 27 27 27 25 26 23 24 26
27 28 28 29 29 30 29 30 30 30 30 29 30 31 31 31
31 32 33 32 33 32 33 34 33 33 34 33 34 35 36 36
14 8 2 0 0 20 44 57 56 15 13 5 0 0 0 4
7 48 57 51 13 1 4 8 5 1 0 21 56 48 43 43
42 42 42 42 42 41 41 40 40 39 40 39 39 38 38 38
37 37 36 36 36 35 35 35 34 32 33 32 32 32 32 31
30 29 29 29 29 28 27 27 27 25 26 29 32 31 32 32
26 23 29 23 28 29 30 28 28 27 27 26 26 25 23 26
27 29 29 29 29 30 29 30 30 30 30 31 31 31 31 32
32 32 33 33 32 32 32 32 33 34 35 35 35 36 36 37
55 48 44 40 30 33 43 45 55 19 13 2 4 1 0 0
2 40 56 53 20 0 1 5 12 6 0 13 56 49 42 42
42 42 42 41 41 41 41 41 40 39 39 39 39 39 38 38
38 37 36 36 35 35 35 34 34 33 33 32 32 30 31 30
30 29 28 28 28 27 26 26 26 26 26 27 31 31 30 31
26 23 30 23 29 30 30 30 28 27 26 26 26 25 22 27
27 29 29 29 29 30 30 30 31 30 31 31 31 31 31 32
32 31 32 32 32 34 34 33 34 34 34 36 36 36 36 36
41 46 54 57 58 59 48 38 48 27 18 15 20 21 19 22
22 38 51 56 27 0 1 6 9 7 0 8 55 50 42 42
42 42 42 42 41 41 41 40 40 40 39 39 38 38 38 37
37 37 36 36 36 35 35 35 34 33 31 31 29 28 30 30
29 28 27 26 26 27 28 26 26 25 24 25 28 30 32 29
27 22 30 27 27 31 30 29 29 28 26 27 27 26 22 26
27 29 30 29 30 31 30 31 31 31 32 31 31 31 31 31
32 32 32 32 33 33 34 34 34 34 35 36 36 36 37 37
23 26 29 32 39 44 43 37 41 40 39 39 42 39 37 40
38 36 38 55 29 0 0 4 5 8 8 10 54 50 42 42
42 42 41 41 41 40 41 40 40 40 39 39 39 39 38 37
37 37 36 36 36 35 35 34 34 32 32 32 31 31 30 27
29 26 27 26 28 27 25 26 25 23 22 20 25 29 30 29
27 21 29 29 25 31 30 29 29 27 26 26 26 26 23 26
25 29 29 30 30 30 30 30 30 30 30 30 31 32 32 32
32 32 33 33 33 34 34 34 34 35 35 36 36 35 37 37
21 22 21 21 21 21 22 24 27 28 28 27 29 30 32 34
35 36 35 46 43 33 28 22 15 13 13 25 55 50 42 42
42 42 42 41 41 41 41 41 41 40 40 39 39 39 39 38
38 37 38 36 36 35 35 35 34 34 34 32 32 29 28 28
25 26 25 25 27 26 24 21 21 23 24 26 27 27 28 29
27 20 28 31 23 29 28 29 29 28 27 27 27 26 21 27
27 29 30 28 28 30 29 30 31 31 31 31 32 34 32 33
33 33 33 33 33 34 35 35 36 36 36 37 36 36 36 37
19 21 21 21 21 20 20 20 20 21 21 21 22 23 28 32
36 40 36 32 33 35 38 39 42 44 43 42 51 47 42 42
43 42 42 42 42 41 41 40 41 40 39 39 39 39 38 38
38 37 37 37 36 36 35 35 33 33 34 33 30 25 24 24
20 23 24 21 17 16 18 17 16 14 15 15 19 21 20 19
20 18 24 27 20 26 27 28 29 28 26 27 27 26 24 25
25 28 28 28 30 31 31 31 32 32 32 32 33 33 33 34
34 32 34 34 34 35 36 36 36 36 37 37 37 37 36 37
32 29 25 24 23 22 20 19 19 19 19 19 20 19 20 20
20 20 22 22 22 24 27 31 34 37 39 41 42 43 43 42
42 42 42 42 42 41 41 41 40 40 40 39 39 39 39 38
37 37 37 37 36 34 33 34 33 33 32 28 22 20 16 14
7 8 10 10 9 10 11 7 6 3 1 3 3 2 4 5
8 11 12 15 13 19 21 22 24 24 26 25 26 26 23 26
26 26 28 30 30 32 32 32 32 32 33 33 33 34 33 33
33 34 34 34 35 35 36 37 36 37 36 36 37 37 37 37
47 46 40 40 39 40 40 33 29 28 16 17 19 19 20 20
21 21 20 20 19 19 19 20 20 23 26 31 35 40 42 43
43 43 43 42 42 41 41 40 41 40 40 40 39 39 39 38
38 36 37 36 35 33 31 29 29 27 24 18 12 5 4 3
0 0 0 1 7 3 0 2 1 0 0 0 0 0 0 0
1 0 0 1 4 9 10 12 15 17 22 25 26 27 24 24
24 25 29 31 31 31 32 33 33 33 33 33 34 35 33 35
35 34 35 35 35 35 36 37 36 37 37 37 37 37 37 38
25 26 29 29 30 31 33 44 35 48 49 43 36 32 38 37
34 32 30 27 20 19 19 18 18 18 17 19 20 20 23 25
28 32 36 39 41 41 41 40 40 40 40 39 39 39 39 38
38 36 36 35 31 27 26 22 16 19 12 5 2 1 0 0
0 0 0 0 0 0 0 0 0 0 0 0 0 0 0 0
0 0 0 0 1 3 3 5 9 12 12 18 23 26 25 27
29 30 30 31 32 32 31 33 32 33 33 33 33 35 34 34
35 35 35 35 36 36 36 36 37 37 37 37 37 38 37 38
25 24 25 24 23 23 23 25 29 43 42 31 36 32 36 36
40 44 64 63 33 25 22 20 21 21 20 19 20 19 19 19
19 20 20 20 21 25 36 42 40 41 40 40 39 39 38 37
33 24 10 7 6 8 11 10 10 7 9 4 0 0 0 0
0 0 0 0 0 0 0 0 0 0 0 0 0 0 0 0
0 0 0 0 0 0 0 5 6 8 11 15 16 21 23 24
28 32 32 31 31 33 32 34 34 33 34 34 35 35 35 35
35 35 35 35 36 37 37 37 36 36 37 37 37 37 37 37
24 24 24 23 24 21 21 23 24 40 26 0 0 3 40 38
41 44 60 62 57 53 50 45 50 46 42 38 23 23 20 20
19 20 20 16 11 16 34 42 41 41 40 40 39 39 38 28
16 9 8 3 3 0 0 0 0 2 2 0 0 0 0 0
0 0 0 0 0 0 0 0 0 0 0 0 0 0 0 0
0 0 0 0 0 0 0 0 0 3 7 7 13 17 20 22
24 30 32 31 32 31 33 34 34 35 35 35 35 37 35 35
36 36 36 37 36 36 37 36 37 37 36 37 37 37 37 37
24 24 27 26 25 22 22 23 23 40 27 0 0 4 35 37
39 43 56 60 61 62 60 51 58 59 57 53 32 35 38 36
27 24 21 18 17 18 32 41 41 41 41 40 39 37 20 8
5 5 2 1 0 0 0 0 0 0 0 0 0 0 0 0
0 0 0 0 0 0 0 0 0 0 0 0 0 0 0 0
0 0 0 0 0 0 0 0 0 1 5 9 7 14 15 23
21 24 27 29 31 30 33 35 35 35 35 35 35 36 35 35
35 35 36 37 36 36 36 37 37 37 37 38 37 37 37 37
31 27 26 25 21 22 26 24 23 45 29 0 0 2 13 9
7 18 53 57 57 59 52 51 51 58 59 57 38 43 48 49
43 51 48 41 18 18 32 41 41 41 41 40 47 33 22 9
11 5 4 0 0 0 0 0 0 1 0 0 0 0 0 0
0 0 0 0 0 0 0 0 0 0 0 0 0 0 0 0
0 0 0 0 0 0 0 0 0 0 0 1 4 4 14 14
20 24 23 28 32 31 33 35 35 35 35 35 35 35 35 35
36 36 36 36 38 38 37 37 37 37 37 37 37 37 38 38
15 12 17 7 4 6 17 15 17 45 29 0 0 8 16 5
1 8 55 56 20 16 27 24 32 41 47 54 43 47 50 52
52 56 56 54 21 20 34 43 42 42 40 41 44 26 22 17
9 0 0 0 0 0 0 0 0 0 0 0 0 0 0 0
0 0 0 0 0 0 0 0 0 0 0 0 0 0 0 0
0 0 0 0 0 0 0 0 0 0 0 0 1 7 6 12
15 21 21 22 25 34 34 35 35 35 35 36 36 36 36 36
37 36 36 37 38 38 37 37 38 38 38 38 38 38 38 38
0 0 0 0 0 0 2 3 4 44 30 1 10 13 45 18
0 11 55 56 16 4 5 0 0 5 2 35 46 48 52 53
54 57 58 57 26 20 37 45 44 44 42 40 41 32 27 8
0 0 0 0 0 0 0 0 0 0 0 0 0 0 0 0
0 0 0 0 0 0 0 0 0 1 0 0 0 0 0 0
0 0 0 0 0 0 0 0 0 0 0 0 0 2 8 9
10 19 26 25 23 27 33 35 36 36 36 36 36 36 36 37
36 36 37 37 38 39 38 38 38 37 39 37 38 38 37 37
10 1 4 0 0 0 0 0 3 45 33 5 19 26 40 34
14 6 56 58 16 0 1 0 2 17 8 35 45 47 47 51
55 55 56 54 28 21 38 49 43 44 45 42 42 9 4 0
0 0 0 0 0 0 0 0 0 0 0 0 0 0 0 0
0 0 0 0 0 0 0 0 0 0 0 0 0 0 0 0
0 0 0 0 0 0 0 0 0 0 0 0 0 0 1 4
10 17 24 27 31 26 29 34 36 36 36 37 36 37 37 37
36 36 37 37 38 39 38 39 38 38 39 38 39 39 39 38
15 4 3 1 0 0 0 0 1 45 36 3 18 33 38 19
25 3 54 60 23 0 1 0 5 24 14 35 36 10 22 30
43 47 49 52 30 21 36 48 43 36 41 47 41 2 0 0
0 0 0 0 0 0 0 0 0 0 0 0 0 0 0 0
0 0 0 0 0 0 0 0 0 0 0 0 0 0 0 0
0 0 0 0 0 0 0 0 0 0 0 0 0 0 0 4
6 14 23 26 29 31 28 32 35 37 36 36 36 36 36 37
37 37 37 37 38 39 39 38 39 38 38 38 39 39 38 38
27 15 11 9 2 3 4 1 4 50 39 0 3 19 32 19
6 2 53 61 25 0 3 0 2 12 7 34 34 0 1 4
2 7 6 35 32 21 22 32 40 46 47 51 40 3 0 0
0 0 0 0 0 0 0 0 0 0 0 0 0 1 0 0
0 0 0 0 0 0 0 0 0 0 0 0 0 0 0 0
0 0 0 0 0 0 0 0 0 0 0 0 0 0 0 1
6 8 16 22 28 31 25 33 34 36 37 36 36 36 37 37
37 37 37 38 38 39 38 38 38 38 39 38 39 39 39 39
24 16 18 18 1 0 1 0 0 44 41 0 0 0 2 0
0 1 52 62 29 0 0 0 2 0 0 32 32 1 0 0
0 0 0 28 33 20 7 0 1 6 14 24 29 2 0 0
0 0 0 0 0 0 0 0 0 0 0 1 0 0 0 0
0 0 0 0 0 0 0 0 0 0 0 0 0 0 0 0
0 0 0 0 0 0 0 0 0 0 0 0 0 0 0 0
0 10 16 9 22 31 25 29 34 34 37 36 37 37 37 37
36 37 37 38 38 38 37 38 38 38 38 38 39 39 39 39
28 22 17 20 0 0 0 0 0 36 42 0 0 0 0 0
0 0 49 62 33 0 2 4 14 3 0 31 33 2 2 8
4 0 0 27 34 19 6 0 0 0 0 0 4 0 0 0
0 0 0 0 0 0 0 0 0 0 0 1 1 0 0 0
0 0 0 0 0 0 0 0 0 0 0 0 0 0 0 0
0 0 0 0 0 0 0 0 0 0 0 0 0 0 0 0
0 4 15 12 14 25 28 26 35 31 35 37 36 36 36 37
37 37 37 38 38 38 38 38 38 39 38 39 38 38 38 38
36 11 10 8 0 0 0 0 2 38 44 1 0 0 0 0
0 0 46 63 40 0 7 12 25 9 0 30 34 3 3 8
16 0 0 25 34 19 7 0 0 0 0 0 0 0 0 0
0 0 0 0 0 0 0 1 0 0 0 2 0 0 0 0
0 0 0 0 0 0 0 0 0 0 0 0 0 0 0 0
0 0 0 0 0 0 0 0 0 0 0 0 0 0 0 0
0 0 7 11 5 17 27 24 32 33 34 36 37 36 37 37
37 37 38 38 37 39 38 38 38 38 39 39 38 38 39 38
33 0 0 0 1 0 1 0 1 38 49 39 35 34 33 30
26 25 51 62 43 2 2 4 1 0 0 28 34 2 4 2
14 0 0 25 32 19 7 0 0 2 1 0 0 0 0 0
0 0 0 0 0 0 0 0 0 0 0 0 0 0 0 0
0 0 0 0 0 0 0 0 0 0 0 0 0 0 0 0
0 0 0 0 0 0 0 0 0 0 0 0 0 0 0 0
0 0 0 6 12 7 24 26 29 34 35 37 36 37 37 37
37 37 38 37 37 37 38 37 38 38 38 38 39 39 39 38
31 1 0 0 0 0 0 0 0 35 61 60 56 51 49 46
41 35 30 33 17 0 0 8 9 1 0 26 32 0 3 1
2 0 0 24 33 19 8 1 4 6 7 0 0 0 0 0
0 0 0 0 0 0 0 0 0 0 0 0 0 0 0 0
0 0 0 0 0 0 0 0 0 0 0 0 0 0 3 1
1 1 0 0 0 0 0 0 0 0 0 0 0 0 0 0
0 0 0 2 7 8 7 21 28 36 36 37 37 38 38 37
38 38 38 38 38 37 38 38 38 38 39 39 40 40 39 39
33 4 0 0 0 0 0 0 0 41 58 24 26 28 32 43
49 50 42 33 22 13 10 10 8 1 0 27 31 0 5 3
0 0 0 24 33 19 9 9 7 4 1 0 0 0 0 0
0 0 0 0 0 0 0 0 0 0 1 0 0 0 0 0
0 0 0 0 0 0 0 0 0 0 0 0 0 0 4 1
2 2 2 0 0 0 0 0 0 0 0 0 0 0 0 0
0 0 0 2 17 10 8 10 22 35 36 38 38 38 38 38
38 38 38 39 39 38 38 38 39 40 39 40 40 40 39 39
34 4 1 0 1 0 0 0 0 40 54 3 0 0 0 1
5 11 47 41 49 51 48 50 49 45 40 43 41 14 10 12
10 7 4 28 33 20 12 8 0 0 1 0 0 0 0 0
0 0 0 0 0 0 0 0 0 0 0 0 0 0 0 0
0 0 0 0 0 0 0 0 0 0 0 0 0 4 1 1
3 4 4 2 0 2 2 0 0 0 0 0 0 0 0 0
0 0 0 0 11 15 14 10 23 34 35 38 38 38 39 38
38 38 38 39 38 38 39 39 39 40 40 40 40 41 39 37
38 15 8 3 4 0 0 0 0 42 54 10 0 1 1 0
0 0 47 58 23 17 25 32 38 41 47 49 66 57 35 45
45 46 43 45 30 20 12 0 0 0 0 0 0 0 0 0
0 0 0 0 0 0 0 0 0 0 0 0 0 0 0 0
0 0 0 0 0 0 0 0 0 0 0 0 0 2 0 0
4 5 2 3 2 3 1 0 0 0 0 0 0 0 0 0
0 0 0 0 4 16 15 11 20 34 37 38 38 38 40 38
38 38 39 39 40 38 38 39 40 39 38 40 39 39 38 39
26 4 6 10 13 10 5 2 7 46 52 15 0 0 4 18
5 0 44 59 27 16 15 20 18 7 12 61 70 50 36 48
55 53 55 54 31 20 13 0 0 0 0 0 0 0 0 0
0 0 0 0 0 0 0 0 0 0 0 0 0 0 0 0
0 0 0 0 0 0 0 0 0 0 0 0 0 2 1 1
5 6 3 1 3 7 2 0 0 0 0 0 0 0 0 0
0 0 0 0 7 12 18 12 15 32 38 37 36 36 39 38
36 33 39 39 39 39 40 40 39 38 35 31 29 25 22 23
32 0 0 0 6 17 6 2 21 50 51 18 24 11 18 15
3 0 41 59 20 4 9 5 4 1 11 62 64 41 38 51
54 54 58 57 32 20 23 21 14 6 1 0 0 0 0 0
0 0 0 0 0 0 0 0 0 0 0 0 0 0 0 0
0 0 0 0 0 0 0 0 0 0 0 0 0 1 0 1
1 4 9 9 12 7 1 1 0 0 0 0 0 0 0 0
0 0 0 0 7 6 15 12 14 32 37 37 37 36 38 32
7 29 38 38 35 32 28 26 22 21 21 20 21 23 22 21
37 1 0 0 1 8 3 9 28 55 49 19 32 18 14 16
9 0 40 58 14 0 5 0 0 0 10 60 56 18 7 15
17 21 25 42 34 21 30 52 52 38 8 0 0 0 0 0
0 0 0 0 0 0 0 0 0 0 0 0 0 0 0 0
0 0 0 0 0 0 0 0 0 0 0 0 0 0 0 2
2 7 16 15 12 9 4 0 0 0 3 12 3 0 0 0
0 0 0 0 5 10 6 14 11 26 32 38 37 36 25 7
20 26 23 21 21 21 21 23 24 25 26 27 27 29 29 28
47 3 0 4 20 20 17 20 40 60 50 9 8 1 10 32
16 0 40 55 14 0 0 0 0 0 9 58 58 15 0 0
0 0 0 25 36 21 31 53 53 34 2 0 0 0 0 0
0 0 0 0 0 0 0 0 0 0 0 0 0 0 0 0
0 0 0 0 0 0 0 0 0 0 0 0 0 0 0 4
7 13 33 20 19 17 8 0 0 0 10 20 8 0 0 0
0 2 1 0 2 11 5 12 10 22 21 26 23 16 11 17
24 25 26 27 28 28 29 30 31 33 34 34 35 35 34 32
47 3 0 4 32 35 47 51 41 55 58 41 33 33 34 24
10 0 44 56 15 17 12 0 0 0 4 55 58 13 0 0
0 2 3 24 36 20 27 49 49 23 0 0 0 0 0 0
0 0 0 0 0 0 0 0 0 0 0 0 0 0 0 0
0 0 0 0 0 0 0 0 0 0 0 0 0 0 0 8
9 22 43 28 22 18 7 1 2 5 13 22 15 6 0 0
0 1 2 0 0 0 3 2 7 20 21 24 13 21 16 29
31 32 32 34 34 35 34 35 36 36 37 36 37 37 36 27
47 3 0 2 27 30 44 43 5 30 59 49 21 42 54 32
5 0 46 60 19 26 15 0 0 0 2 48 54 12 0 0
0 25 33 34 38 32 31 38 34 9 0 0 0 0 0 0
0 0 0 0 0 0 0 0 0 0 1 0 0 0 0 0
0 0 1 0 0 0 0 0 0 0 0 1 0 1 1 5
12 31 39 22 11 8 6 5 16 14 9 21 20 15 2 0
0 0 0 0 0 0 0 2 10 28 29 20 24 33 20 32
35 35 33 32 36 37 37 37 37 31 26 30 34 33 34 27
47 4 0 7 43 43 36 29 6 16 55 47 12 33 50 24
10 0 46 61 21 10 14 1 0 0 1 44 51 10 0 0
0 22 32 31 33 27 27 26 18 3 1 0 0 0 0 0
0 0 0 0 0 0 0 0 0 0 1 0 0 0 0 0
0 0 0 3 0 0 0 0 1 3 3 3 3 10 1 4
15 22 29 13 9 8 15 21 17 6 6 24 40 35 12 0
0 0 0 0 0 0 0 1 15 34 29 22 37 36 29 5
7 6 1 11 22 39 32 27 25 4 2 0 2 2 7 24
51 16 9 8 23 51 45 41 17 10 51 36 5 18 45 10
10 0 45 63 23 0 5 0 0 0 2 46 51 9 1 2
0 6 12 19 28 26 27 27 15 4 2 0 0 0 0 0
0 0 0 0 0 0 1 0 0 0 0 0 0 0 0 0
0 0 0 2 3 3 0 1 4 7 5 4 16 13 6 13
17 15 21 22 17 14 15 9 8 10 25 44 53 52 33 6
0 0 0 0 0 0 0 1 21 34 23 27 16 28 39 4
0 0 0 5 11 12 2 0 0 0 5 0 0 0 0 16
52 44 51 44 20 17 40 47 36 10 24 31 10 8 36 3
2 0 44 61 22 0 0 0 0 0 3 49 52 8 0 5
0 0 0 9 24 24 26 8 3 5 0 0 0 0 0 0
0 0 0 0 0 1 0 0 0 0 0 1 0 0 0 0
0 0 0 1 5 6 1 1 6 8 2 15 19 11 17 27
26 26 28 33 18 15 12 9 7 14 40 50 54 57 47 27
0 0 0 0 0 0 0 3 30 24 8 0 0 3 37 5
0 0 0 0 0 0 0 0 0 0 11 6 0 0 0 13
56 54 50 35 51 28 2 5 3 0 0 4 26 12 9 1
16 13 44 57 20 0 0 0 0 0 4 52 52 8 0 4
8 0 0 10 34 32 29 3 1 0 0 0 0 0 0 0
0 0 0 0 0 0 2 0 1 5 1 2 5 1 1 0
0 0 0 1 9 8 5 4 6 6 8 7 8 8 9 7
11 23 5 7 20 31 34 26 28 24 25 42 56 63 57 46
7 0 0 0 0 0 0 8 34 6 16 35 14 3 3 0
0 0 0 0 0 0 0 0 2 0 0 0 0 0 0 17
62 60 51 12 53 58 21 0 0 1 0 0 0 2 11 3
46 51 53 51 33 22 18 12 10 5 9 52 52 9 0 0
12 1 0 10 42 34 30 5 7 0 0 0 0 0 0 0
0 0 0 0 0 0 3 3 3 11 3 2 8 1 4 0
1 0 0 2 12 2 4 3 2 0 1 6 16 20 20 30
65 52 4 0 0 0 18 38 39 31 28 40 59 64 55 38
7 0 0 0 0 0 0 17 29 15 37 23 25 38 38 36
36 36 36 35 18 28 20 0 3 0 0 0 0 0 0 26
67 65 57 8 49 58 15 4 0 2 3 0 8 24 49 32
50 58 58 53 52 55 48 35 47 41 38 44 44 21 1 0
14 11 5 7 43 33 30 5 1 1 0 0 0 0 0 0
0 0 0 0 0 0 2 5 6 8 6 3 12 4 3 0
2 3 2 0 6 2 3 3 3 4 10 23 32 31 18 10
9 7 1 0 0 0 0 0 15 41 34 44 62 60 40 11
0 0 0 0 0 0 0 24 11 19 22 37 40 40 41 41
41 40 40 40 38 10 4 0 2 0 4 14 15 13 23 33
61 63 61 11 39 59 16 0 0 6 39 33 50 47 58 58
57 58 60 60 44 22 16 12 15 20 18 32 41 39 36 28
30 33 27 23 46 29 28 6 0 4 0 0 0 0 0 0
0 0 0 0 0 0 0 1 0 4 3 1 6 1 0 0
1 4 0 0 2 2 5 3 3 26 32 40 44 65 59 38
37 34 9 0 0 0 0 0 0 9 43 53 60 50 22 4
0 0 0 0 0 0 4 12 29 40 40 40 40 40 40 40
41 41 41 40 15 0 0 3 1 0 12 41 40 39 38 35
13 16 50 20 32 60 46 21 15 25 53 56 50 36 48 55
38 37 43 51 33 0 0 0 1 21 12 30 43 38 29 30
39 45 50 52 51 34 28 7 0 5 0 0 0 0 0 0
0 0 0 0 0 0 0 0 0 1 2 0 1 3 0 0
2 0 0 0 1 8 14 10 16 40 80 100 112 123 120 86
70 42 4 2 1 0 0 0 0 0 22 64 54 36 18 15
3 0 0 0 0 0 5 18 40 40 41 40 40 40 40 40
41 41 40 41 13 0 0 21 0 0 11 41 40 40 39 38
1 1 42 42 31 61 58 57 56 57 57 54 36 6 16 24
7 0 0 21 36 0 0 5 3 13 17 36 44 34 4 1
7 13 24 52 50 33 27 10 1 0 0 0 0 0 0 0
0 0 0 0 0 2 1 0 0 0 0 0 0 0 1 0
1 0 0 4 10 25 35 27 35 43 91 120 127 127 125 84
69 37 1 2 1 0 0 0 0 0 2 60 45 35 37 37
19 0 0 0 0 0 9 39 40 40 41 40 41 40 40 40
41 41 41 41 15 0 0 5 0 0 9 41 40 40 39 38
4 11 42 49 24 59 58 59 60 58 55 49 33 5 0 2
5 0 0 19 39 1 4 35 35 17 9 36 46 33 1 4
25 26 26 51 46 31 29 27 9 1 0 0 0 0 0 0
0 0 0 0 3 4 0 3 6 0 1 0 0 0 1 0
0 0 6 18 32 48 67 71 88 101 120 130 132 133 124 73
59 42 0 0 0 0 0 0 0 0 0 37 41 27 4 0
0 0 0 0 0 4 32 39 38 40 40 41 41 40 41 40
41 40 40 40 15 0 0 0 0 0 6 40 40 41 39 39
10 13 38 52 15 59 60 60 60 56 21 17 14 4 1 3
17 0 0 17 39 1 24 41 28 3 0 37 48 33 0 4
17 37 38 51 40 28 30 26 4 1 0 0 0 0 0 0
0 0 0 0 7 11 5 5 3 1 2 0 0 0 2 1
1 4 15 46 72 100 103 108 122 129 133 135 133 134 118 60
43 46 0 0 0 0 0 0 0 0 0 10 15 0 0 0
0 0 0 1 9 15 40 40 40 40 41 40 41 41 40 40
39 38 33 31 13 0 0 1 0 2 5 41 41 41 40 40
2 10 28 51 7 40 43 46 49 51 47 49 46 44 43 39
36 1 0 16 40 6 8 45 34 0 0 39 51 34 0 1
3 12 34 54 39 30 33 24 4 2 1 0 0 0 0 0
0 0 0 0 3 6 6 7 4 1 8 1 0 2 3 3
4 7 26 73 95 117 129 133 136 136 137 136 136 134 116 63
49 42 0 0 0 0 0 0 0 0 6 4 0 0 0 0
0 1 0 4 13 25 39 39 39 39 39 40 41 40 40 40
25 6 2 1 0 0 0 0 1 3 3 40 41 41 42 41
3 20 30 54 4 0 0 1 2 4 28 39 27 10 12 15
12 1 0 16 40 1 1 29 17 7 2 40 52 36 0 0
0 0 26 54 41 30 30 37 41 38 8 0 0 0 0 0
0 0 0 2 0 3 5 7 4 6 9 9 10 8 5 3
8 18 53 84 94 111 133 139 136 135 139 140 136 135 119 68
55 24 0 0 0 0 0 0 0 0 9 2 0 0 0 0
0 3 1 6 22 27 40 39 40 41 41 41 41 41 42 41
22 28 19 15 7 1 0 0 3 7 6 31 40 40 42 41
0 15 26 52 8 0 0 0 0 0 28 43 27 0 0 0
0 0 0 13 40 0 0 0 0 6 1 38 52 35 0 0
0 0 22 56 41 29 31 43 58 57 20 0 0 0 0 0
0 0 1 11 3 6 11 9 10 13 14 13 13 9 9 2
9 32 70 84 91 110 118 123 126 137 135 139 137 134 125 76
52 8 0 0 0 0 0 0 0 0 7 42 29 0 0 0
0 3 3 13 24 27 40 40 40 41 41 40 41 41 41 41
57 65 41 26 6 0 0 0 0 1 0 12 22 40 41 41
0 2 7 49 15 0 0 0 0 0 33 50 36 0 0 0
0 0 0 12 42 1 0 0 0 0 0 36 52 32 0 0
0 0 23 57 43 28 32 42 61 58 25 0 0 0 0 0
0 1 2 7 11 16 26 39 50 29 24 23 19 10 16 9
15 46 75 95 97 93 109 118 124 134 141 137 139 134 128 83
49 1 0 0 0 0 0 0 0 1 13 82 71 5 0 0
0 2 5 22 28 23 41 40 41 41 41 41 41 41 41 41
23 19 18 2 0 0 0 0 0 0 0 22 8 14 29 41
2 0 0 41 28 5 3 5 5 6 37 57 50 2 0 0
0 0 0 11 40 0 0 0 0 0 0 34 54 33 0 0
0 0 18 52 39 27 32 30 34 33 16 0 0 0 0 1
0 0 1 21 23 32 55 61 52 15 31 28 19 14 29 18
24 53 82 95 103 105 114 112 127 138 143 139 140 140 137 96
55 0 0 0 0 0 0 0 1 6 33 95 98 33 0 0
0 0 4 31 33 19 41 40 40 40 40 39 37 35 32 30
16 5 3 0 0 0 0 0 0 0 0 5 8 1 19 41
2 0 0 35 54 40 32 40 42 45 55 58 43 2 0 0
0 0 0 10 39 0 0 0 0 0 0 33 54 34 0 0
0 0 15 53 41 27 31 33 41 39 20 0 0 0 0 0
1 0 1 33 41 51 68 48 29 31 21 28 19 27 33 29
31 50 86 99 111 121 126 130 125 132 138 142 142 141 139 116
62 4 0 0 0 0 1 1 16 5 58 100 113 74 1 0
0 0 3 32 37 16 40 40 40 41 40 24 10 10 11 9
5 1 4 0 0 0 0 0 0 0 0 5 8 3 16 42
4 3 3 27 60 41 46 48 47 52 59 43 7 0 0 0
0 0 0 8 43 7 6 8 11 15 18 41 54 36 0 0
0 0 17 57 46 25 30 34 45 43 26 0 0 0 0 0
2 1 0 33 57 86 67 50 52 70 17 21 24 41 47 40
30 50 83 106 118 133 140 142 145 141 139 141 143 143 143 138
76 19 0 0 0 0 11 24 19 15 85 110 118 103 26 0
0 0 5 34 38 16 34 32 26 21 16 8 4 3 4 4
5 5 11 8 8 0 0 0 0 0 0 5 9 3 15 40
49 53 57 61 64 26 29 34 38 45 55 48 23 17 18 15
14 12 12 21 47 42 43 45 48 51 53 51 40 27 12 9
7 4 18 55 42 24 32 37 47 44 28 0 0 3 2 0
0 0 0 21 68 86 69 66 82 47 21 16 38 48 53 56
37 51 84 101 116 134 142 144 143 146 141 141 143 141 141 142
108 46 3 0 0 9 26 39 6 60 104 118 119 113 71 0
0 0 4 20 14 6 5 5 6 8 10 10 12 12 13 12
13 10 4 5 19 0 0 0 0 0 0 5 9 5 12 40
65 68 71 72 68 14 0 0 3 7 39 56 52 53 52 50
48 47 49 51 52 48 48 50 50 51 51 49 47 46 46 44
42 38 41 48 44 41 43 42 44 42 29 0 0 7 3 0
0 0 1 8 48 71 67 76 58 20 28 58 76 77 95 77
39 65 87 90 114 130 139 142 142 143 142 143 139 137 141 142
134 100 37 3 0 17 27 14 40 99 118 121 117 114 103 25
0 0 6 7 9 10 11 12 13 13 13 13 14 13 13 12
12 4 1 6 21 0 0 0 0 1 0 3 7 11 14 36
61 63 70 70 68 26 0 0 1 6 39 60 58 57 57 58
54 57 58 54 40 32 42 45 45 45 45 44 45 45 44 45
45 44 44 43 44 43 43 43 43 40 18 0 0 5 0 0
0 0 0 1 28 43 78 69 47 30 66 81 110 97 108 98
47 74 95 99 113 129 132 138 140 140 139 141 138 135 138 140
135 122 102 60 24 12 17 51 96 106 118 120 116 116 110 70
0 0 7 12 12 12 12 11 11 8 7 5 4 2 1 8
14 12 2 10 10 0 0 0 0 12 4 4 12 16 18 33
36 33 24 21 19 9 0 0 2 5 39 59 58 56 55 55
54 56 59 34 24 26 39 45 45 45 44 45 45 44 45 45
45 44 44 43 43 43 43 42 42 39 15 0 0 0 0 0
0 0 0 0 25 64 75 102 87 84 53 61 115 115 118 105
54 84 91 103 121 133 135 136 138 138 137 139 138 136 137 135
130 124 119 109 93 82 81 92 104 106 113 111 113 118 115 98
16 0 9 9 4 2 1 0 0 0 0 0 0 0 0 11
14 12 10 8 3 0 0 0 0 3 0 4 10 10 11 34
18 24 5 0 0 0 0 0 0 5 39 50 30 31 30 27
26 30 33 24 24 26 37 45 44 38 36 35 34 34 33 32
31 29 29 28 27 25 25 24 24 22 10 0 0 0 0 0
0 0 0 0 4 71 83 91 99 117 118 98 113 118 115 98
71 85 88 103 113 132 133 135 136 132 137 137 136 133 138 136
132 128 124 112 101 93 91 94 103 104 106 113 116 120 119 108
48 0 13 5 0 0 0 0 0 0 0 0 0 0 0 14
15 13 10 16 14 16 16 19 18 19 21 23 24 24 22 25
11 24 6 0 0 0 0 0 0 3 41 42 0 2 1 0
0 6 6 19 24 27 36 45 40 16 2 2 1 1 1 1
0 0 0 0 0 0 0 0 0 0 0 0 0 0 0 0
0 0 0 0 0 22 43 65 91 115 128 122 119 115 117 115
93 90 94 117 124 131 133 135 134 135 135 137 134 136 138 135
134 130 125 115 104 96 93 88 106 112 118 119 119 126 126 108
73 7 14 2 0 0 0 0 0 0 0 0 0 0 3 15
14 14 13 46 19 24 26 33 30 26 32 27 26 24 17 18
12 26 8 0 0 0 0 0 0 1 41 43 0 2 0 3
0 6 14 21 23 26 34 45 42 21 0 0 0 0 0 1
0 1 0 0 0 0 0 0 1 0 0 1 0 0 0 0
0 0 0 0 0 0 24 82 109 122 123 121 125 111 115 117
108 102 113 116 122 130 134 135 135 136 135 137 136 135 135 136
135 130 127 116 106 97 93 86 113 127 130 120 125 128 116 103
77 16 13 0 0 0 0 0 0 0 0 0 0 0 7 16
14 14 14 30 19 24 29 43 70 56 78 80 81 30 19 42
12 25 9 0 0 0 0 0 0 1 39 42 1 3 0 3
11 19 19 22 23 26 33 44 42 27 1 0 0 1 1 2
2 3 2 2 1 2 2 2 2 2 2 2 1 0 0 0
0 0 0 0 0 0 4 69 124 136 135 128 126 97 109 111
109 110 111 116 124 128 136 136 133 135 134 135 135 135 135 136
135 130 125 117 106 96 93 88 111 132 133 120 106 90 99 91
56 14 10 0 0 0 0 0 0 0 0 0 0 0 10 15
14 15 12 28 19 25 33 52 103 74 102 101 98 32 20 88
12 25 15 5 0 0 0 0 0 0 36 42 1 1 4 16
19 19 17 20 23 26 32 44 42 30 3 0 1 1 2 3
3 3 3 3 3 2 3 2 2 1 1 1 1 3 0 1
0 0 0 0 0 0 0 15 93 121 130 131 111 83 105 104
106 105 105 115 119 132 137 137 136 136 135 137 137 139 136 136
134 132 125 117 104 94 92 83 106 116 108 86 55 48 88 62
25 15 7 0 0 0 0 0 0 0 0 0 0 0 14 15
15 18 8 27 30 35 39 40 59 42 47 44 38 31 30 50
14 25 19 14 1 0 0 0 0 0 37 41 2 0 4 17
18 19 18 21 24 26 31 43 43 33 6 0 1 2 2 3
3 3 3 3 3 3 4 3 3 3 2 2 3 10 0 0
0 0 3 2 4 3 1 2 16 70 91 87 46 76 101 103
103 102 103 109 120 132 139 133 136 138 137 138 137 137 136 136
135 133 125 116 107 95 95 89 87 91 77 97 85 81 60 33
16 15 4 0 0 0 0 0 0 0 0 0 0 2 17 17
17 20 2 11 36 40 43 29 29 28 27 22 24 25 27 26
10 23 21 9 0 0 0 0 0 0 36 39 4 0 2 17
18 20 19 20 23 26 30 42 43 35 9 1 2 2 2 3
3 3 3 3 3 3 3 3 3 2 1 1 2 12 0 0
0 0 0 4 2 0 1 2 8 45 88 94 75 86 94 96
97 100 102 102 120 129 134 135 135 137 139 138 138 137 138 136
136 133 127 118 109 97 96 104 96 85 98 116 75 64 65 25
16 15 1 0 0 0 0 0 0 0 0 0 0 4 16 15
17 15 0 12 31 37 42 30 29 23 27 20 18 22 28 27
8 20 20 7 5 3 1 1 0 0 37 36 5 0 1 17
18 19 18 19 23 25 29 41 43 36 12 1 1 1 2 2
2 2 2 2 2 2 3 3 2 2 2 1 1 8 0 0
0 0 0 0 0 1 11 12 38 70 93 97 94 87 87 91
96 99 100 104 113 112 129 133 137 138 139 139 138 137 130 136
134 130 128 119 110 99 101 107 109 109 114 112 72 67 58 20
15 12 0 0 0 0 0 0 0 0 0 0 0 8 16 14
16 9 0 2 4 22 41 29 28 17 20 19 20 23 29 28
6 17 29 40 43 41 39 36 36 36 47 42 7 0 2 17
18 18 18 19 22 24 27 40 42 36 13 1 1 2 1 2
2 2 2 3 2 2 2 1 2 1 1 1 1 7 0 0
0 0 0 0 1 15 39 37 55 92 98 95 92 85 85 91
93 98 102 108 116 115 126 132 136 135 137 137 138 137 137 137
134 132 126 120 113 103 107 110 106 105 109 105 69 63 48 17
14 9 0 0 0 0 0 0 0 0 0 0 0 11 15 15
16 5 0 1 2 26 38 29 27 16 22 20 20 23 28 28
4 15 29 43 48 46 40 40 40 35 30 36 10 0 3 16
17 18 17 18 21 23 26 38 41 36 16 0 2 1 1 1
2 2 1 2 2 1 2 1 1 1 0 1 1 8 1 0
0 0 0 0 1 16 29 38 49 90 103 98 90 84 81 90
96 101 104 107 113 121 125 130 132 135 136 138 138 137 135 136
135 131 128 124 116 107 111 113 107 104 107 104 70 61 37 15
14 5 0 0 0 0 0 0 0 0 0 0 0 15 15 15
16 3 0 11 12 33 37 31 25 15 21 19 18 24 27 27
5 19 28 44 45 37 19 7 3 1 0 22 13 0 2 15
17 17 17 17 22 22 25 37 40 36 17 0 1 1 1 1
1 2 1 1 2 1 1 1 0 0 0 0 0 10 5 0
0 0 0 0 0 10 27 25 47 80 106 104 94 85 79 90
97 102 107 106 113 122 124 125 131 133 134 135 135 138 137 134
133 130 129 123 116 114 111 115 113 113 111 107 82 62 29 14
14 1 0 0 0 0 0 0 0 0 0 0 2 16 14 15
14 0 4 20 11 40 34 30 25 12 15 20 17 24 27 26
18 22 11 13 15 21 4 0 0 0 0 20 24 9 11 15
15 17 17 16 21 22 25 36 40 36 19 0 1 2 1 1
1 2 1 1 2 1 1 1 1 0 1 1 1 10 18 0
0 0 0 0 0 0 8 25 45 87 109 105 101 89 80 85
97 103 109 111 115 122 124 128 132 134 133 134 138 137 138 137
135 134 126 123 118 114 111 113 117 120 109 91 73 66 23 14
13 0 0 0 0 0 0 0 0 0 0 0 6 16 14 17
11 0 9 18 10 42 32 27 12 3 10 19 18 24 27 26
23 26 12 0 1 8 0 0 0 0 0 25 46 40 31 15
14 17 17 16 20 21 24 35 40 36 20 0 0 1 1 1
1 2 1 1 1 1 1 1 0 1 1 1 0 8 29 1
0 0 0 0 0 0 13 19 58 92 111 108 104 92 79 80
92 103 108 112 117 121 123 127 132 133 135 136 137 138 137 136
135 134 129 126 119 111 106 113 121 97 82 83 67 67 19 15
9 0 0 0 0 0 0 0 0 0 0 0 9 16 14 17
9 0 5 7 16 42 32 19 10 2 10 17 16 25 26 26
33 30 23 1 2 1 0 0 0 0 1 30 35 8 7 12
15 16 16 15 20 22 24 33 39 37 22 0 1 1 1 1
1 1 1 1 1 1 1 0 0 0 1 0 1 7 34 13
0 0 0 0 0 2 8 33 59 95 112 111 108 98 84 78
87 99 107 111 115 120 122 128 131 132 135 135 136 135 135 136
137 136 129 125 115 105 101 98 69 60 53 59 63 44 16 16
7 0 0 0 0 0 0 0 0 0 0 0 12 15 16 17
6 1 40 35 28 42 32 20 9 1 10 17 16 25 26 27
38 29 17 6 3 0 0 0 0 0 0 27 32 1 0 7
14 15 16 15 19 21 24 32 39 37 23 1 0 0 0 0
1 0 1 1 0 0 1 0 0 0 0 0 0 6 37 30
3 0 0 0 0 18 35 52 79 109 114 115 112 103 88 79
80 93 104 110 114 117 122 125 129 131 135 135 135 134 134 134
133 133 126 122 109 96 78 56 52 78 27 17 33 32 16 15
3 0 0 0 0 0 0 0 0 0 0 1 15 15 16 16
2 12 82 45 28 40 32 19 7 10 17 17 18 26 27 27
31 27 12 13 6 0 0 0 0 0 0 23 32 1 0 7
13 15 15 14 18 19 22 30 38 36 24 1 0 0 0 0
1 0 1 1 0 1 0 0 0 1 0 1 1 4 38 36
14 0 0 0 1 16 49 66 96 109 116 116 112 108 94 81
77 88 100 108 113 117 121 124 128 130 131 133 133 132 133 130
130 128 124 115 103 89 76 61 74 86 34 30 44 26 15 14
0 0 0 0 0 0 0 0 0 0 0 4 16 15 17 15
0 14 58 24 35 38 31 23 18 10 21 16 20 28 28 27
17 12 8 6 5 5 5 7 12 18 24 28 31 2 0 5
13 14 15 13 18 19 22 29 37 36 24 1 0 0 0 0
0 0 0 0 1 0 0 0 0 0 0 0 0 4 37 37
29 5 2 0 1 20 53 85 102 113 117 116 112 109 99 84
78 81 94 103 110 116 119 124 125 126 126 128 128 129 129 125
124 123 115 105 98 93 102 90 96 97 76 64 56 21 15 11
0 0 0 0 0 0 0 0 0 0 0 7 16 15 17 11
0 2 17 18 39 35 32 27 18 14 20 19 22 29 29 27
35 17 15 13 14 17 19 21 26 33 40 41 35 13 5 7
13 13 14 13 17 18 21 27 36 35 24 1 0 0 0 1
0 0 0 0 0 0 0 0 0 0 0 0 0 3 36 37
35 39 8 4 18 27 43 80 103 112 115 115 113 109 103 91
81 80 86 96 106 112 115 119 122 125 127 126 127 125 123 121
120 117 111 103 98 100 109 110 99 99 97 80 67 23 15 11
4 4 5 5 6 6 5 6 6 6 6 12 17 15 17 7
0 1 7 16 45 34 32 30 16 14 19 20 24 28 29 26
33 28 28 26 29 29 31 32 33 36 39 37 35 31 28 23
13 11 12 11 15 17 19 26 36 34 24 1 0 0 0 0
0 0 0 0 0 0 0 0 0 0 0 0 0 2 35 36
32 40 25 18 48 64 83 93 102 109 110 114 112 109 103 98
88 81 82 86 97 104 110 114 119 122 124 124 124 122 120 119
115 110 107 100 99 103 106 111 105 93 89 79 64 21 16 15
15 14 14 15 15 14 14 14 15 15 15 15 17 16 17 3
0 2 7 23 45 33 32 27 16 14 19 20 25 28 28 26
20 19 17 16 14 13 11 9 8 8 8 7 11 7 3 5
8 9 10 10 14 16 19 25 35 34 24 1 0 0 0 0
0 0 0 0 0 0 0 0 0 0 0 0 0 2 35 36
31 24 23 27 57 70 87 94 100 105 110 112 113 110 105 100
94 86 81 81 86 96 103 109 113 117 120 120 120 120 118 114
110 106 102 97 97 99 103 105 105 98 87 68 47 16 16 16
15 15 16 15 16 15 16 15 15 15 15 15 15 17 19 1
0 8 9 28 43 34 33 28 17 15 19 19 28 27 28 27
0 0 0 0 1 0 0 0 0 0 2 4 15 10 0 1
8 9 9 8 13 16 19 25 35 34 24 1 0 0 0 0
0 0 0 0 0 0 0 0 0 0 0 0 0 2 34 36
31 26 29 39 63 75 86 91 98 104 108 111 112 112 107 102
96 91 84 80 78 84 92 100 107 111 114 114 115 115 116 112
109 105 98 95 94 95 97 95 88 80 56 45 31 11 16 16
17 17 17 23 25 16 16 16 16 16 17 16 12 12 16 0
0 26 30 36 43 36 34 27 16 15 15 20 28 28 29 27
0 0 0 5 6 0 0 0 0 0 2 3 14 11 0 0
7 8 9 10 13 15 17 23 33 33 24 2 0 0 0 0
0 0 0 0 0 0 0 0 0 0 0 0 0 3 37 37
32 38 6 47 66 76 86 93 97 101 105 109 113 112 109 106
99 93 88 85 80 80 84 91 98 104 107 108 110 111 113 111
109 104 97 93 91 90 88 82 70 51 40 40 25 10 20 27
29 35 50 95 100 67 63 59 35 45 42 40 37 18 1 0
22 41 20 42 45 41 56 51 41 17 24 92 67 48 62 65
0 0 0 10 9 0 0 1 1 0 3 10 15 9 0 0
1 6 9 10 12 14 16 21 32 32 24 2 0 0 0 0
0 1 2 3 5 6 8 10 12 14 16 18 20 24 36 36
47 11 11 59 68 76 86 94 95 99 104 110 112 112 111 108
102 96 91 86 82 81 80 85 90 95 101 104 106 108 109 108
107 103 98 86 77 84 76 68 59 49 41 24 23 30 74 109
115 132 145 150 150 145 131 105 37 13 12 13 15 31 31 5
100 144 31 46 48 44 101 106 94 18 27 89 95 81 97 96
4 4 5 4 3 7 10 11 12 12 9 6 8 2 0 0
2 3 9 11 12 14 16 21 31 32 29 15 14 17 20 22
24 26 28 29 30 31 31 31 32 31 31 31 31 30 30 35
14 3 27 67 73 75 87 93 96 97 102 108 110 110 111 108
104 98 91 87 84 84 82 83 85 89 93 98 101 103 105 107
105 103 99 93 86 82 83 79 64 52 49 44 40 46 74 113
114 124 133 138 148 145 132 106 31 11 12 11 9 22 23 43
120 140 26 48 43 33 80 86 62 5 3 57 65 56 70 63
12 11 5 5 12 14 14 14 15 15 15 7 3 11 0 0
5 0 7 9 11 14 15 20 31 33 33 33 32 31 35 36
35 34 33 33 32 32 33 32 32 32 32 31 32 31 48 63
6 0 47 73 77 76 87 92 95 100 102 109 112 112 109 108
107 102 98 93 88 85 85 82 82 83 88 93 96 98 100 104
106 105 104 100 98 96 91 79 61 51 46 46 58 61 67 101
117 133 145 149 148 143 129 102 28 8 8 10 8 30 0 14
72 55 22 48 30 10 10 9 1 3 3 0 6 23 34 28
11 4 9 13 14 14 14 15 16 17 21 8 5 8 3 5
2 0 2 4 8 13 15 20 31 33 34 33 30 29 34 34
35 34 33 33 34 36 31 24 26 30 31 21 23 33 60 70
3 9 63 77 83 81 88 93 97 101 105 106 110 112 112 109
109 109 106 101 94 89 85 84 84 84 86 87 90 91 95 100
103 105 104 102 103 100 90 73 63 41 26 27 53 47 43 68
104 64 106 132 130 117 94 44 9 10 7 6 14 38 9 13
49 32 38 48 25 3 0 0 0 0 0 0 0 9 29 15
2 7 12 12 13 13 14 13 22 34 35 7 2 0 0 0
0 0 0 4 7 11 12 18 29 32 33 33 31 30 32 32
32 31 30 36 58 59 13 1 1 4 7 1 3 62 81 28
0 33 70 83 86 86 88 94 98 103 107 110 109 111 112 111
110 111 111 109 102 97 90 87 83 82 83 80 84 84 87 93
99 100 101 103 102 94 77 66 56 27 18 8 36 49 49 47
48 10 14 18 12 10 13 4 11 10 14 43 68 83 90 100
97 102 100 81 33 33 1 0 0 0 0 0 0 0 22 15
6 8 8 7 7 7 7 6 26 26 18 3 0 0 0 0
0 0 0 0 4 3 6 9 16 17 16 14 13 11 11 11
13 15 24 65 73 24 0 0 0 0 0 0 17 101 117 8
8 63 77 87 90 89 91 96 100 105 108 112 112 111 113 112
110 110 114 117 110 104 95 86 82 79 79 77 77 76 78 84
90 93 91 93 90 80 66 58 45 21 17 0 1 26 81 101
102 88 25 8 12 17 16 11 15 7 55 104 101 114 110 100
94 107 107 91 29 37 0 0 0 0 0 0 0 0 12 24
6 7 8 9 10 8 2 8 49 19 14 9 0 0 0 0
0 0 0 0 2 0 0 0 0 0 0 0 0 1 3 3
10 19 50 78 39 2 0 0 0 0 0 8 65 106 58 0
38 75 86 89 92 91 94 97 102 106 109 112 115 111 113 114
116 114 115 117 113 107 100 90 80 74 72 73 70 71 69 69
78 82 83 80 78 63 58 51 30 20 17 0 0 0 1 5
11 34 66 72 46 28 31 36 60 79 110 115 102 110 109 104
97 104 106 86 4 1 0 0 0 2 0 4 4 4 8 16
31 33 37 40 43 33 1 45 45 2 6 14 6 0 0 0
0 0 0 0 0 0 0 0 0 0 0 0 3 10 13 8
10 29 67 56 16 0 0 0 0 0 0 42 78 96 25 2
66 83 92 93 95 93 91 98 105 110 111 115 114 116 112 115
116 115 109 109 112 110 103 94 82 69 62 61 62 59 58 55
53 58 61 62 56 49 46 39 30 21 19 10 14 15 17 16
15 11 10 29 63 64 64 82 75 46 45 59 69 75 75 75
75 76 78 65 29 27 28 24 20 16 5 11 9 7 4 1
55 56 56 56 57 53 13 57 11 0 1 12 18 6 0 0
0 0 0 0 0 0 3 3 2 1 0 0 4 11 14 12
6 44 67 24 0 3 13 4 0 0 9 61 95 108 17 12
84 93 98 96 97 97 96 99 106 111 113 116 116 116 118 112
114 115 109 106 105 102 101 93 80 65 52 43 40 41 41 38
35 32 29 32 44 41 35 24 37 27 26 34 44 57 74 81
92 84 64 56 65 93 100 99 121 140 148 151 143 120 86 75
61 47 42 34 28 23 24 19 15 9 4 4 4 4 2 0
57 56 55 55 51 46 21 33 0 0 0 7 25 4 0 0
0 0 2 3 2 3 7 7 6 4 3 3 8 18 22 18
6 58 65 15 19 35 44 16 4 30 51 65 114 117 19 25
92 101 102 101 99 98 100 101 107 112 114 118 117 118 120 118
115 111 108 105 99 96 93 85 72 56 42 26 17 10 7 5
3 0 0 7 52 56 36 10 22 38 67 68 94 129 150 152
152 135 99 81 72 72 78 94 139 152 151 130 152 136 90 68
48 36 33 26 22 18 21 18 16 10 5 3 4 3 2 1
25 21 16 11 5 2 5 21 0 3 0 5 2 0 0 0
1 5 5 11 11 11 10 10 11 14 18 22 25 24 23 10
11 61 42 17 39 45 62 72 80 66 53 90 116 100 26 33
96 105 104 103 100 101 103 105 106 109 115 117 118 119 119 120
117 110 107 103 100 92 85 73 61 52 49 35 18 9 7 5
9 6 0 0 40 57 31 19 41 54 45 80 85 82 92 140
152 115 78 75 65 66 73 94 140 153 151 142 152 140 101 74
48 40 31 27 22 19 21 19 17 11 7 2 5 3 3 1
0 0 0 0 0 0 4 15 0 5 2 0 0 0 0 0
1 3 3 7 9 9 9 10 12 15 24 29 29 18 15 2
19 66 30 7 71 79 79 94 69 64 69 96 96 73 40 37
101 108 106 105 102 102 104 105 107 108 111 118 119 120 119 120
120 113 104 101 99 89 78 67 60 59 63 64 52 38 32 30
32 12 0 0 50 64 34 48 33 57 53 66 67 71 40 69
103 92 79 70 65 65 69 94 138 153 152 119 153 143 101 71
51 41 33 27 22 19 20 19 17 11 8 2 5 4 3 1
5 0 0 0 0 1 9 18 11 12 1 0 0 0 0 0
0 0 3 4 4 3 4 5 7 11 21 28 23 3 0 0
26 68 30 60 77 74 76 59 78 65 73 77 120 62 39 44
97 114 108 104 104 105 104 105 109 109 110 115 119 121 120 119
118 116 111 102 95 88 76 66 61 66 74 84 83 76 64 54
46 15 3 6 56 74 46 52 23 39 56 65 41 67 53 89
58 45 73 69 62 58 70 93 132 152 152 112 152 143 99 71
51 40 32 26 22 19 19 20 18 12 7 1 5 4 2 1
4 11 3 1 3 4 9 14 4 4 0 0 0 0 0 0
0 0 2 1 2 2 3 5 6 11 20 28 19 1 0 0
29 72 63 77 83 73 34 65 107 63 75 101 131 61 52 49
93 119 110 108 108 107 107 106 109 112 111 111 117 120 121 121
117 117 114 108 99 87 74 68 73 87 100 99 94 80 69 60
47 17 29 24 41 73 52 39 34 43 62 79 72 60 57 89
59 67 89 73 73 71 73 94 132 152 151 111 151 145 103 73
55 41 32 26 24 19 20 22 18 13 8 2 5 4 2 0
2 8 29 6 0 0 11 15 0 0 0 0 0 0 0 0
0 0 0 1 2 3 5 6 6 10 21 28 18 10 6 0
36 100 83 51 42 65 91 81 64 42 50 102 105 71 69 56
88 118 116 112 112 107 109 110 108 110 112 111 113 117 119 118
117 116 112 106 98 88 77 76 85 101 104 99 90 80 71 63
47 16 62 34 34 90 68 16 40 30 52 65 48 41 79 79
56 76 76 68 42 43 55 92 119 152 151 109 149 147 108 75
55 40 30 25 22 17 19 21 18 12 8 3 5 4 1 0
1 0 9 12 1 1 15 8 0 0 0 0 0 1 1 0
0 0 1 8 1 4 8 10 8 15 26 32 24 22 19 43
92 96 86 101 106 113 120 99 65 71 66 91 102 56 64 65
82 121 121 117 117 113 110 109 109 110 111 109 110 113 115 115
116 114 110 106 99 86 77 83 100 106 104 98 90 79 71 64
46 42 93 35 46 77 64 36 46 41 32 39 68 34 50 55
60 66 79 54 36 54 74 77 69 95 131 103 147 143 101 71
56 42 26 21 18 16 19 22 18 12 8 3 5 4 1 0
0 0 0 0 3 1 0 0 0 0 0 0 0 0 2 0
0 0 7 13 1 5 8 8 17 37 39 37 33 52 85 77
91 96 91 104 104 113 105 72 54 64 54 86 123 66 50 75
74 122 123 124 122 119 112 111 109 109 109 109 114 112 115 114
111 111 108 102 95 86 83 97 107 109 105 97 88 80 74 64
44 33 42 32 68 62 74 36 26 40 57 38 93 94 101 91
72 28 63 72 61 48 67 79 74 94 104 103 125 135 103 75
54 39 27 20 17 13 17 22 20 14 9 4 4 3 1 0
1 0 0 1 8 4 0 1 3 2 0 0 0 0 0 0
0 0 8 16 3 5 8 5 14 36 39 51 58 74 86 77
79 113 103 55 90 91 111 53 57 50 46 83 102 71 45 58
72 117 129 124 124 122 115 113 112 110 107 110 112 114 114 112
112 108 104 97 91 85 91 104 110 110 105 96 89 84 75 70
41 67 56 48 41 59 72 41 14 28 46 24 57 57 70 58
81 63 68 82 58 59 71 64 71 88 110 95 95 89 100 74
51 35 26 22 17 10 15 21 19 13 10 7 4 2 1 0
4 2 2 3 7 9 10 11 11 11 1 3 0 0 0 0
0 0 6 19 10 10 11 6 11 55 80 75 66 78 105 75
93 93 94 97 56 50 90 56 89 81 57 80 100 63 51 75
84 101 132 130 129 123 121 115 115 110 108 109 112 113 116 116
113 111 106 99 94 97 106 117 118 111 101 97 93 84 77 79
41 81 39 46 78 53 54 42 45 29 48 12 41 77 74 100
92 43 60 53 25 48 94 85 94 110 92 75 104 78 69 74
52 33 30 25 16 9 15 21 18 13 10 8 4 1 0 0
10 11 8 7 9 13 13 14 19 19 4 3 2 0 0 0
0 0 10 23 32 24 15 31 59 63 72 66 40 40 101 97
107 124 124 103 61 78 51 51 82 81 46 91 121 76 55 66
97 89 130 137 134 130 122 120 117 112 107 106 109 113 115 115
112 110 108 104 105 109 116 121 119 112 105 99 92 82 84 88
51 68 55 64 79 85 86 50 31 17 27 31 66 63 74 87
69 14 25 40 45 49 60 50 83 78 69 49 62 57 65 66
53 37 32 25 16 11 16 23 18 13 10 8 4 1 0 0
4 16 14 7 6 6 4 7 8 5 1 3 6 1 1 0
0 0 0 3 18 23 75 111 89 63 92 80 71 78 110 77
79 94 100 64 37 79 36 66 87 85 58 85 81 50 47 64
91 95 115 142 139 133 129 124 121 113 110 106 109 114 115 114
109 107 106 105 107 112 118 121 118 110 105 98 89 87 98 82
63 91 67 62 85 83 88 73 42 27 17 28 51 73 34 50
42 41 67 59 42 59 79 79 106 110 100 92 71 51 41 80
62 44 31 24 19 12 17 22 18 12 11 8 4 2 0 0
0 1 1 0 0 0 0 0 0 0 0 6 9 0 9 0
0 0 0 0 41 115 108 97 70 20 45 47 38 53 71 72
86 89 93 94 41 56 54 50 45 45 46 54 94 71 74 62
68 81 96 139 139 137 128 128 124 118 113 110 109 114 116 112
110 107 107 108 110 116 122 120 114 107 103 96 94 98 106 71
74 113 68 80 75 50 54 58 29 12 15 19 46 77 70 85
80 51 68 60 36 105 98 79 106 95 81 102 97 78 76 49
52 52 30 21 18 14 19 23 21 13 11 7 5 2 1 0
0 0 0 0 0 0 0 0 0 0 0 5 6 5 15 0
0 0 0 34 78 79 72 59 84 56 68 92 62 49 95 108
99 114 135 104 73 67 74 82 85 57 88 71 120 94 61 46
41 69 86 117 144 140 135 130 125 120 114 111 112 114 116 115
112 112 110 111 116 123 125 120 113 107 102 99 101 107 106 69
84 115 74 71 70 62 86 70 37 29 27 25 33 61 75 83
79 44 62 68 36 64 61 58 84 106 97 103 127 88 91 50
42 46 33 19 18 14 18 23 20 13 11 5 4 1 1 0
0 0 0 0 0 0 0 0 0 0 0 1 2 3 1 0
0 0 21 73 82 122 103 95 115 69 71 96 58 54 106 76
78 104 127 81 71 51 57 71 67 78 103 71 96 80 46 48
60 76 83 103 138 147 140 135 130 121 117 114 112 118 121 117
116 115 115 116 123 130 129 119 110 107 103 105 109 112 106 71
81 107 57 70 91 76 95 89 45 37 23 14 24 45 81 93
77 43 72 64 25 59 47 37 53 67 74 77 77 72 65 41
61 65 50 27 19 14 17 22 20 13 12 4 4 2 1 0
0 0 0 0 0 0 0 0 0 0 0 0 0 0 0 0
0 18 77 114 117 115 96 90 103 89 60 85 85 63 119 102
88 102 132 94 54 48 87 89 53 81 82 78 68 59 63 58
74 74 82 87 123 149 145 137 129 124 122 118 116 121 125 118
118 119 119 123 129 133 129 118 113 108 109 112 114 114 96 79
80 110 69 87 107 91 105 87 60 23 53 59 49 69 44 62
45 17 30 36 30 66 87 79 88 63 54 62 87 54 41 55
59 61 58 46 19 13 18 23 21 14 13 3 5 2 0 0
0 0 0 0 0 0 0 0 0 0 0 0 0 0 0 0
5 69 112 119 102 106 85 98 113 84 34 77 80 34 76 83
65 103 107 59 79 94 99 83 84 112 113 87 100 95 90 74
41 38 54 62 101 141 149 141 137 131 129 124 119 123 126 120
121 122 124 131 132 134 128 118 111 111 112 115 116 111 80 78
90 99 42 75 92 31 26 78 67 46 46 68 42 81 56 89
89 43 64 63 41 84 80 95 95 84 94 92 102 33 10 50
72 51 55 52 25 12 16 22 21 14 13 3 5 1 0 0
0 0 0 0 0 0 0 0 0 0 0 0 0 0 0 1
59 109 122 138 100 75 50 44 50 51 28 38 44 38 71 64
41 69 76 51 81 87 93 89 103 115 100 122 108 116 109 78
51 62 71 102 72 118 139 145 145 140 138 133 124 126 132 125
126 126 132 134 135 134 126 117 113 115 117 119 119 104 77 101
90 79 37 59 69 15 0 8 56 60 41 70 44 70 70 100
100 40 59 72 48 57 51 54 103 85 76 93 110 37 46 32
34 45 42 49 47 14 16 22 21 15 13 3 5 1 0 0
0 0 0 0 0 0 0 0 0 0 0 0 0 0 0 28
105 96 104 71 77 97 61 91 96 89 58 50 74 73 76 92
70 108 107 75 79 86 79 68 104 93 112 124 130 105 78 73
59 66 79 99 72 87 109 136 145 142 142 138 130 128 133 128
127 130 133 135 136 132 123 118 117 117 120 122 111 97 56 92
69 70 28 38 51 6 0 0 7 47 42 39 34 73 63 81
51 32 68 59 30 98 99 85 77 75 51 72 78 29 66 80
43 35 58 36 41 17 16 21 21 14 13 3 5 2 0 0
0 0 0 0 0 0 0 0 0 0 0 0 0 0 6 73
106 69 67 81 108 97 88 101 106 109 67 64 80 78 80 80
79 116 84 82 61 62 45 54 102 68 93 107 89 15 4 46
48 43 92 82 86 80 106 110 137 142 138 141 136 133 134 131
129 130 133 133 134 130 123 119 118 120 123 117 92 66 51 58
58 70 50 65 52 37 26 3 0 0 17 39 35 107 102 107
85 36 58 63 51 89 74 111 108 96 81 112 99 27 81 80
46 12 73 69 71 34 17 20 21 14 13 2 5 2 0 0
0 0 0 0 0 0 0 0 0 0 0 0 0 0 36 67
94 72 96 123 108 79 65 60 68 74 45 33 62 69 45 64
85 119 63 67 68 103 66 41 47 23 18 28 32 4 2 37
55 39 63 60 63 80 103 75 112 139 142 142 143 138 136 133
134 131 134 132 128 125 119 118 119 123 122 96 63 69 64 59
69 80 46 51 31 56 59 39 16 16 4 19 29 93 109 110
92 51 88 96 60 103 73 81 95 90 91 111 103 29 36 66
50 58 50 83 67 64 15 21 21 14 12 2 5 2 0 0
0 0 0 0 0 0 0 0 0 0 0 0 2 8 69 51
61 106 104 109 75 90 117 63 71 84 45 63 53 63 64 73
43 82 74 58 77 80 43 22 49 30 31 55 61 52 34 63
58 59 81 98 79 77 109 104 100 116 145 143 146 142 140 136
132 129 131 131 127 124 123 119 120 121 100 72 51 63 50 39
47 56 66 44 34 47 53 46 40 57 43 58 24 84 112 110
72 58 99 91 71 113 90 99 87 109 96 129 88 70 58 35
40 73 37 39 74 69 24 20 20 14 12 2 6 2 0 0
0 0 0 0 0 0 0 4 7 0 0 0 0 34 81 40
56 101 101 59 107 135 125 72 68 91 74 81 71 96 72 98
80 114 98 65 61 73 58 41 85 79 42 51 79 59 44 37
47 59 62 99 81 73 104 95 82 112 124 138 144 144 139 136
132 129 132 131 126 124 122 121 118 99 80 57 21 45 43 32
48 45 58 27 25 42 45 42 38 75 65 110 85 84 91 100
65 49 80 74 66 95 83 109 115 132 117 120 90 75 64 54
32 81 55 66 86 65 33 19 20 14 12 2 6 2 0 0
