P2
128 120
156
21 2 1 0 2 18 59 64 56 45 46 47 50 50 50 50
58 68 59 53 48 45 44 43 43 43 44 43 43 43 43 43
42 42 42 41 40 40 39 39 38 38 37 37 37 36 36 35
35 34 33 33 33 33 31 31 30 30 30 30 29 29 28 28
27 27 26 26 25 25 24 24 23 23 23 24 27 28 28 27
21 18 17 25 25 25 24 23 23 22 21 20 21 20 17 21
23 24 24 24 24 24 25 25 25 26 26 26 25 25 25 26
27 27 27 28 28 28 29 29 30 29 30 31 32 31 32 32
29 13 0 0 0 12 53 57 32 0 0 0 1 1 0 0
24 64 61 65 63 58 48 46 46 45 44 43 43 42 42 41
41 41 41 40 40 40 39 39 39 38 38 37 37 36 36 35
35 34 34 34 33 33 32 32 31 31 30 30 29 29 28 28
27 27 26 25 25 25 24 24 24 24 24 25 28 28 28 27
21 18 19 24 26 25 25 24 23 23 23 22 22 20 18 22
23 24 24 24 25 25 25 25 25 25 25 26 26 26 27 27
28 28 28 29 29 29 29 30 29 31 31 31 32 32 32 33
29 4 1 3 5 11 50 52 34 0 0 0 11 5 0 0
15 61 56 57 41 40 44 47 55 59 60 58 54 47 42 42
42 42 41 41 40 40 39 39 39 38 38 38 37 37 36 36
36 35 34 35 34 33 32 32 31 31 31 30 30 30 29 28
28 27 27 26 26 26 25 24 24 23 24 25 29 29 28 28
23 21 21 22 27 26 25 25 24 23 24 22 22 21 18 22
24 25 25 25 25 25 25 25 26 26 26 26 27 27 28 27
28 28 29 30 29 30 30 30 31 31 32 31 32 32 33 33
16 0 0 0 2 7 49 52 37 0 0 0 9 6 0 0
10 59 56 54 18 0 4 13 22 32 42 51 58 51 42 42
42 42 41 40 41 40 40 39 39 38 38 38 37 37 36 35
35 35 35 34 33 33 33 33 32 32 32 32 31 30 29 29
28 27 28 27 26 26 25 25 24 24 24 26 29 29 29 29
22 20 23 21 27 26 26 25 24 24 25 23 23 23 19 23
23 25 25 25 25 26 26 26 27 27 27 27 27 27 28 28
28 28 28 29 29 30 30 30 31 31 32 32 32 32 33 33
0 0 0 0 0 5 48 51 40 0 0 0 6 2 0 0
5 57 57 53 19 0 0 0 0 0 0 14 57 51 42 42
42 41 41 41 42 41 40 39 39 38 38 38 37 37 36 36
36 35 35 35 34 34 34 32 32 33 32 31 31 30 31 30
29 29 28 28 28 27 27 26 26 25 26 25 29 30 30 29
24 21 25 20 27 27 27 26 26 24 25 23 23 23 18 23
24 25 26 27 26 27 26 27 28 27 28 28 28 28 28 28
29 29 30 30 30 30 31 31 31 32 32 32 32 33 33 33
0 0 1 7 1 3 44 50 46 1 3 12 7 8 0 4
2 51 56 49 18 0 0 0 0 0 0 11 56 51 42 42
41 42 41 40 40 40 40 39 39 38 38 38 37 37 37 36
36 35 35 35 35 34 34 33 33 32 32 32 31 30 30 29
29 29 28 27 27 27 26 26 25 25 25 26 30 31 31 30
24 20 27 19 28 28 27 26 25 25 26 23 24 24 19 25
24 26 27 26 26 27 26 27 27 28 28 28 28 28 28 29
29 29 30 31 30 30 31 31 31 31 31 33 33 33 34 34
0 0 1 9 5 4 45 53 55 3 15 15 0 2 0 3
0 49 56 51 21 0 2 10 5 0 0 9 55 51 41 42
41 41 41 40 40 41 40 39 39 39 38 38 37 37 36 36
36 35 35 35 35 34 34 34 33 33 32 32 32 31 30 30
30 29 29 28 28 27 26 26 26 25 26 26 30 31 31 30
25 21 27 20 29 28 28 27 27 26 27 24 24 23 19 25
25 26 26 27 27 28 27 28 28 28 28 28 29 28 29 29
29 30 31 30 31 31 31 32 32 32 32 33 33 34 33 32
3 0 0 1 0 6 46 52 57 10 16 8 0 2 0 2
3 45 57 54 20 0 10 14 8 0 0 8 55 51 42 42
41 41 41 41 40 40 40 39 39 39 38 38 37 37 37 36
36 36 35 35 34 34 34 34 33 33 33 32 32 31 31 30
31 30 29 28 29 27 26 26 26 26 26 27 30 31 30 31
26 21 27 20 28 27 28 27 26 25 26 24 24 24 20 26
25 27 27 28 28 29 28 28 28 28 28 27 28 29 29 29
30 30 31 31 31 31 31 32 32 32 31 32 32 34 34 35
14 9 1 0 0 7 45 49 60 19 13 6 1 0 0 2
2 39 57 52 22 0 3 7 6 1 0 8 54 51 42 41
41 41 41 40 41 40 40 40 39 39 38 38 38 38 37 36
37 36 36 35 35 35 34 34 34 33 33 33 32 32 31 31
31 29 29 29 29 28 27 28 27 26 27 27 31 31 31 31
26 21 28 22 28 28 28 28 27 26 27 24 25 24 21 26
25 27 28 28 28 28 28 29 29 29 28 29 30 29 30 30
31 31 31 31 31 31 31 30 32 33 32 34 34 34 35 35
54 47 43 40 29 28 44 41 55 23 12 2 4 1 0 0
1 34 55 52 25 0 0 3 12 7 0 7 53 50 41 41
41 41 41 41 40 40 40 40 39 38 38 38 38 38 37 37
37 36 36 35 35 34 34 34 33 33 33 33 32 32 32 31
31 31 30 29 29 28 27 27 27 27 26 28 31 32 32 32
27 22 28 24 26 29 28 28 27 27 24 25 25 25 21 26
25 28 28 28 28 29 29 29 29 29 29 30 30 30 30 31
31 31 31 31 31 32 32 32 32 32 33 34 34 34 35 35
39 44 51 55 56 57 48 37 46 27 17 15 19 20 18 20
20 35 49 54 28 0 1 6 9 8 0 6 52 49 41 41
41 41 40 40 40 40 40 40 39 39 39 38 38 37 37 36
36 36 35 35 35 35 35 35 34 34 34 34 33 32 32 31
30 25 25 27 27 28 28 27 27 27 27 28 31 32 32 31
27 21 28 26 25 29 28 28 28 26 25 25 26 25 21 26
25 28 28 28 29 29 29 29 30 30 30 30 30 30 30 30
30 31 31 31 32 32 33 33 33 33 33 35 35 35 35 35
22 25 28 31 37 42 42 35 40 38 38 38 41 38 37 39
37 35 37 54 30 0 0 5 5 8 8 10 51 49 41 42
41 41 41 41 40 40 40 39 39 38 38 38 38 38 38 37
37 36 36 36 36 35 35 34 34 34 33 34 33 33 32 30
26 26 28 29 29 28 28 28 27 27 27 28 31 33 33 32
29 22 28 29 24 30 29 29 28 28 26 26 26 26 22 26
25 29 29 29 30 30 29 30 29 29 29 29 30 31 31 31
32 32 32 32 33 32 33 33 33 34 34 34 35 34 35 35
19 20 20 20 20 20 21 23 26 27 27 26 28 28 30 32
33 34 34 44 41 32 27 21 15 13 12 23 52 49 41 41
41 41 41 40 41 40 40 40 40 39 39 38 38 38 37 37
36 36 36 36 36 35 34 35 35 34 33 33 33 33 31 30
25 28 28 27 25 25 26 28 28 28 28 29 31 34 33 33
29 21 28 31 23 30 30 29 29 28 26 26 26 27 24 27
26 29 30 29 29 29 29 29 30 30 30 30 31 32 31 32
32 32 32 32 33 33 33 33 34 34 35 35 36 35 35 35
18 20 19 19 19 19 19 19 19 20 20 20 21 22 26 30
35 39 35 30 32 34 36 38 41 41 42 41 49 46 42 42
41 41 41 40 40 39 40 39 39 38 38 37 38 38 38 38
37 36 37 36 36 35 34 34 33 31 32 33 32 30 31 27
26 30 27 24 22 23 23 24 27 27 27 27 31 33 33 33
30 22 28 32 23 31 30 29 29 28 26 27 27 26 23 26
25 29 29 29 29 30 30 30 30 30 30 30 31 32 31 31
32 31 32 32 33 33 34 34 34 35 35 34 35 35 35 35
30 27 24 22 22 22 19 19 19 18 18 19 19 19 19 19
19 20 21 21 21 23 26 29 33 36 38 39 41 42 42 42
41 41 41 40 40 40 40 40 39 39 39 38 38 38 38 37
37 36 36 36 35 35 33 30 30 29 31 32 31 31 30 27
27 27 24 25 26 26 25 24 20 25 26 29 32 33 33 33
30 22 28 34 22 30 31 30 29 29 28 28 28 27 24 26
27 30 31 30 30 30 30 31 31 30 31 32 32 33 32 31
32 31 32 33 33 34 34 34 34 35 35 35 36 35 36 36
44 44 38 38 37 38 38 32 27 26 15 16 17 18 19 19
20 20 20 20 19 18 19 18 19 22 25 29 33 38 41 42
42 42 41 41 41 40 40 40 39 39 38 38 38 38 38 38
37 37 37 36 35 34 31 30 32 30 29 29 29 28 25 26
27 22 25 27 26 22 20 18 17 19 22 27 31 34 34 33
31 22 28 35 24 30 31 30 30 29 26 28 27 27 25 26
27 30 31 30 31 31 32 30 31 31 31 31 31 33 32 32
32 32 33 33 33 34 34 35 35 35 35 36 35 35 35 36
24 25 28 27 29 30 31 42 34 47 46 41 34 31 37 35
33 31 28 26 19 18 18 17 18 18 17 18 19 19 22 24
27 31 35 38 40 41 39 39 39 39 39 39 38 38 38 38
38 37 37 36 36 34 33 30 31 31 31 31 30 28 23 20
22 23 26 24 22 18 17 15 14 17 17 19 29 33 34 33
31 23 27 35 27 29 31 31 30 29 28 29 28 28 26 26
28 30 31 31 30 30 31 31 31 31 31 32 32 34 33 33
33 33 33 33 34 34 34 35 35 35 36 35 36 36 35 36
24 23 24 23 21 21 21 24 27 42 40 30 34 30 35 35
38 42 61 61 32 24 21 19 19 20 18 18 18 18 18 18
18 19 19 19 20 24 35 40 40 39 39 39 39 38 38 37
37 37 36 37 36 35 35 33 33 30 30 28 27 24 24 17
19 24 25 24 16 14 18 15 13 12 13 14 22 33 34 33
32 23 27 36 28 27 31 31 30 30 29 30 28 28 27 27
28 31 31 31 31 32 32 32 32 32 32 32 33 34 33 33
33 33 33 34 34 34 35 35 35 35 35 35 35 35 35 35
23 23 22 22 21 20 18 21 22 37 26 0 0 3 38 36
39 42 56 60 55 51 48 43 48 45 40 37 23 22 19 19
18 18 19 16 10 16 31 40 40 39 39 39 38 38 38 38
38 37 37 36 36 34 31 30 25 19 19 19 18 25 23 12
22 23 24 16 8 8 6 6 6 8 8 13 11 26 34 33
32 23 28 35 30 24 32 31 31 30 28 29 28 28 28 26
29 31 32 31 32 32 32 32 32 32 32 32 33 34 34 34
33 34 34 34 34 33 34 33 34 34 34 35 34 34 35 35
23 22 24 24 23 21 21 21 22 37 27 0 0 2 33 35
37 41 53 58 59 59 58 49 56 57 55 51 31 33 37 35
26 22 19 18 16 17 30 40 40 40 40 38 38 39 39 39
38 38 37 37 36 31 25 18 15 21 21 21 19 22 27 13
25 26 20 7 6 4 8 13 13 16 13 18 14 15 33 34
33 24 27 36 32 23 33 32 31 30 30 30 29 28 28 26
28 31 32 31 32 32 32 32 33 33 33 34 33 34 33 32
32 32 34 34 35 35 34 35 35 35 35 35 35 35 34 35
29 25 25 24 20 21 24 21 22 41 29 0 0 1 12 7
7 16 51 55 55 56 50 49 49 56 57 55 38 41 47 48
41 49 47 40 17 17 30 40 40 39 39 38 46 50 47 46
42 40 39 37 31 19 16 18 20 17 15 12 16 17 14 13
28 25 7 1 0 6 10 5 4 3 2 8 12 13 23 34
34 25 26 34 35 21 32 32 31 31 30 30 29 29 29 27
30 32 33 32 33 33 33 33 33 33 33 33 33 33 33 33
34 34 34 34 35 35 35 35 34 35 35 35 35 35 35 35
12 11 16 7 4 5 16 13 16 42 29 0 0 6 15 4
1 6 53 53 20 14 26 23 30 38 45 52 43 44 48 50
49 55 54 53 21 19 32 41 41 40 39 39 48 51 49 46
44 43 45 35 31 24 25 23 17 14 9 4 3 5 5 7
15 10 1 0 2 4 0 0 0 0 0 0 4 11 16 32
28 21 17 21 36 21 32 32 32 31 31 31 29 30 29 27
30 32 33 33 33 33 33 33 33 33 33 33 34 34 33 34
34 34 34 35 35 35 35 35 35 35 35 35 35 35 36 36
0 0 0 0 0 0 0 2 2 39 30 1 9 11 44 18
0 9 52 54 17 3 5 0 0 4 2 31 44 47 49 51
53 55 56 55 26 19 34 43 42 42 41 40 47 50 50 47
48 50 46 36 35 27 30 19 17 5 1 1 3 1 1 0
2 1 0 0 0 0 0 0 0 0 0 0 3 6 12 27
28 21 21 29 37 22 32 33 32 31 30 32 30 30 30 26
31 33 33 33 34 34 34 34 34 34 34 34 33 34 34 34
34 34 35 35 36 36 36 36 35 36 36 35 35 36 36 36
8 0 3 0 0 0 0 0 1 41 33 5 18 24 39 32
14 5 53 56 17 0 0 0 1 16 8 31 44 45 46 49
52 52 53 53 28 20 35 46 41 43 44 46 45 13 19 35
44 46 44 38 9 8 12 6 2 1 0 0 0 0 0 0
0 0 0 0 0 0 0 0 0 0 0 1 1 4 6 22
34 26 26 36 37 23 30 33 32 31 31 32 31 31 31 27
30 32 34 33 34 34 34 34 34 34 35 35 35 35 35 34
34 35 35 35 35 36 35 36 36 36 36 36 36 36 36 36
14 3 2 0 0 0 0 0 0 41 36 2 17 31 36 17
24 2 51 59 24 0 1 0 3 23 14 33 36 11 21 29
40 46 47 50 30 20 34 47 41 37 41 50 49 4 0 9
20 19 21 35 5 0 0 0 0 0 0 0 0 0 0 0
0 0 0 0 0 0 0 0 0 0 0 0 4 0 0 6
29 26 28 37 39 27 28 34 34 33 32 32 31 31 31 27
32 33 35 35 35 35 36 35 35 35 34 34 34 34 35 35
35 35 36 35 35 37 37 36 36 37 36 36 37 36 36 36
25 13 11 8 2 2 3 1 3 47 39 0 3 18 31 19
6 1 50 59 26 0 2 0 2 12 6 31 34 0 1 3
2 7 6 32 33 20 22 30 38 45 47 51 51 7 0 5
12 15 15 28 5 0 0 0 0 0 0 0 0 0 0 0
0 0 0 0 0 0 0 0 1 0 0 0 0 0 0 0
5 13 23 36 38 29 25 34 34 32 32 32 31 31 32 28
33 33 35 36 35 34 36 35 35 35 35 35 35 35 35 36
36 35 36 36 36 36 36 37 36 36 36 37 37 37 37 37
22 15 17 18 1 0 1 0 0 42 41 0 0 0 2 0
0 1 50 62 30 0 0 0 2 0 0 30 33 1 0 0
0 0 0 27 33 20 7 0 1 6 14 24 37 10 0 2
4 4 8 12 5 1 0 3 1 0 0 0 0 0 0 0
0 0 0 0 0 0 0 0 0 0 1 0 0 0 0 0
1 5 11 25 35 31 24 35 34 34 33 33 32 32 32 27
33 33 36 36 36 36 37 36 36 36 36 36 36 35 36 36
36 36 36 37 37 38 36 37 37 37 38 38 38 37 37 38
27 22 17 20 0 0 0 0 0 36 42 0 0 0 0 0
0 1 49 61 33 0 3 5 15 3 0 31 34 3 3 8
5 0 0 27 34 20 8 0 0 0 0 0 11 10 0 0
0 0 5 9 0 3 1 1 0 0 0 0 0 0 1 10
17 21 22 11 6 1 0 0 0 0 1 1 0 0 0 0
0 1 5 13 21 26 19 30 33 34 33 34 33 33 32 28
34 34 37 37 36 37 37 36 36 36 36 36 36 36 36 37
36 37 37 38 38 38 38 38 38 38 38 39 39 38 39 38
36 12 10 9 0 0 0 1 2 37 43 1 0 0 0 0
0 0 46 62 40 0 8 14 26 10 0 30 34 4 4 8
17 0 0 26 34 20 7 0 0 0 0 0 7 9 0 0
0 0 0 1 0 1 0 0 0 0 0 0 1 11 31 43
49 59 60 57 51 46 39 36 27 13 3 0 0 1 0 0
0 0 0 3 10 19 22 31 31 33 32 33 32 32 32 27
33 33 36 36 36 35 36 35 36 35 36 36 36 36 36 36
37 36 37 37 38 39 37 37 38 38 38 39 38 38 39 38
33 0 0 0 1 0 1 0 1 38 49 39 35 34 33 30
26 25 51 61 44 3 3 4 1 1 0 28 34 3 6 3
16 0 0 25 34 20 8 0 0 2 3 0 6 9 0 0
0 0 0 0 0 1 0 0 0 0 0 6 19 28 38 40
47 61 82 85 86 83 69 52 41 27 16 4 0 1 0 0
0 0 0 0 0 2 9 27 33 33 31 33 32 33 32 28
34 34 36 36 36 36 37 36 36 36 36 36 36 36 36 37
37 37 37 37 36 36 37 36 37 37 38 38 39 38 38 37
31 0 0 0 0 0 0 0 0 34 59 58 55 51 48 45
41 35 30 32 17 0 0 9 8 1 0 26 32 0 4 1
2 0 0 24 33 19 9 1 6 8 9 0 4 10 2 0
0 0 0 0 1 0 0 0 0 0 14 28 40 51 61 68
71 74 84 97 98 97 83 60 49 36 29 19 6 2 0 0
0 0 0 0 2 0 4 14 32 32 31 32 31 33 32 29
34 32 36 35 36 36 36 36 37 37 37 36 37 37 37 37
37 37 37 37 37 37 37 37 37 38 38 38 38 39 38 38
34 4 0 0 0 0 0 0 0 39 57 25 25 27 32 41
48 50 41 33 22 13 10 11 9 1 0 26 31 0 5 4
0 0 0 24 34 19 10 9 8 5 2 0 4 12 0 0
0 0 0 0 1 0 0 0 0 7 32 64 79 82 88 98
101 99 103 108 102 97 95 81 79 72 63 56 40 15 3 0
0 1 0 0 0 3 6 12 21 28 30 33 31 32 32 29
34 32 37 36 36 36 37 36 36 36 36 37 37 37 37 37
37 37 37 37 37 36 37 37 38 38 38 38 38 39 37 38
32 3 1 0 1 0 0 0 0 38 53 3 0 0 0 1
4 11 45 39 47 50 47 48 48 44 39 41 41 14 9 12
10 7 4 27 32 20 12 8 0 0 2 1 4 22 7 3
0 0 0 0 1 0 0 0 6 50 72 79 82 83 84 96
109 111 115 114 105 99 101 102 103 97 87 79 63 46 24 3
0 0 0 0 0 2 13 8 17 24 29 33 31 32 31 29
34 33 36 36 35 35 36 37 36 36 36 37 37 37 38 36
36 36 36 37 36 36 37 37 37 37 38 38 38 38 37 36
37 13 8 3 3 0 0 0 0 40 52 10 0 0 1 0
0 0 45 56 22 17 24 31 37 40 46 47 64 56 35 44
44 46 42 44 30 19 11 0 0 0 0 0 5 41 32 17
0 0 0 0 0 0 0 0 40 72 85 88 71 72 78 87
101 113 116 114 99 87 93 105 104 95 87 85 81 67 46 24
1 0 0 0 0 0 5 6 15 16 30 32 31 32 32 28
34 33 37 37 36 36 36 36 37 37 37 36 36 36 38 36
36 36 37 37 37 37 36 37 37 37 37 38 37 37 35 37
25 4 5 10 12 9 4 2 7 44 51 14 0 0 4 17
4 0 43 57 26 14 14 19 17 7 12 60 68 50 36 47
54 53 54 53 31 19 12 0 0 0 0 0 5 42 37 17
6 0 0 0 0 0 0 12 71 87 89 45 13 12 48 72
94 108 111 101 85 96 90 93 99 84 52 19 29 56 64 50
15 0 0 0 0 0 0 0 3 19 31 34 32 32 32 29
33 32 36 36 36 36 36 36 35 36 36 36 35 36 37 36
34 32 37 37 37 38 38 37 37 35 33 30 27 24 20 21
31 0 0 0 5 15 6 1 19 48 48 17 23 11 18 14
3 0 40 58 19 4 9 5 4 0 11 60 62 40 38 49
52 53 57 56 32 20 22 21 13 7 2 1 3 35 29 12
3 0 0 0 0 0 0 38 88 92 61 57 9 9 53 72
72 101 98 86 106 121 120 100 67 46 31 3 1 38 49 61
41 1 0 0 0 0 0 0 3 9 26 34 31 32 31 30
33 33 37 36 36 35 36 35 36 36 36 35 35 35 36 30
7 27 37 35 33 30 27 24 21 19 19 19 19 20 21 19
37 1 0 0 1 7 3 8 28 53 48 18 31 17 13 15
9 0 39 56 14 0 5 0 0 0 10 58 55 17 7 15
17 20 24 41 33 21 30 51 54 47 40 31 25 27 15 7
0 0 0 0 0 0 7 68 93 75 52 94 96 98 82 70
75 83 78 102 124 127 128 110 79 51 51 64 63 57 33 62
57 8 0 0 0 0 0 0 0 7 19 29 31 32 32 30
33 32 36 36 35 34 33 32 31 29 29 35 36 33 24 6
19 24 22 20 20 19 20 21 22 23 24 25 26 27 27 26
45 3 0 4 19 19 16 19 39 58 48 9 8 1 8 30
16 0 39 55 14 0 0 0 0 0 9 56 56 16 0 1
0 0 0 23 35 21 30 52 54 51 36 33 26 20 4 0
0 0 1 0 0 1 24 84 97 74 84 105 104 97 92 94
90 72 89 127 118 126 124 103 83 85 60 68 79 78 54 49
63 25 0 0 0 0 0 0 0 1 9 26 30 30 30 29
29 29 31 31 32 32 32 31 31 22 19 24 21 14 9 14
21 22 24 25 25 26 27 27 29 30 31 32 32 33 32 29
46 3 0 4 30 33 46 50 40 53 57 40 32 32 33 23
9 0 41 54 15 16 13 0 0 0 3 53 58 15 0 0
0 2 4 22 36 20 26 47 50 35 33 31 27 11 0 0
0 1 1 0 0 8 47 91 87 79 94 103 107 106 104 101
84 82 120 94 23 79 119 69 35 111 79 76 73 71 70 58
56 45 1 0 0 0 0 0 0 0 3 12 20 22 23 25
28 31 31 28 25 24 22 21 21 20 20 22 12 19 15 27
29 30 30 32 32 33 32 33 33 34 34 34 35 35 34 27
45 3 0 2 25 29 42 42 5 28 57 48 20 40 52 30
5 0 44 59 19 25 14 0 0 0 1 45 52 12 0 0
0 24 32 32 38 32 30 36 31 24 23 23 20 5 0 0
0 0 0 0 0 13 60 85 81 98 106 111 107 106 102 96
80 97 130 31 11 88 108 49 4 83 90 74 76 76 78 75
59 54 15 0 0 0 0 0 0 0 1 8 17 19 18 15
18 18 19 20 22 22 23 25 26 27 28 19 22 31 18 30
33 33 31 30 34 35 35 35 36 29 24 29 32 32 31 25
46 4 0 5 41 42 35 29 6 14 53 46 13 31 49 24
10 0 43 60 21 9 15 1 0 0 1 42 49 10 0 0
0 21 31 31 32 27 26 25 20 20 22 21 15 1 0 1
0 0 0 0 2 21 72 81 101 115 116 113 109 107 107 101
84 105 126 28 74 108 100 70 21 69 96 74 77 78 83 93
86 61 33 0 0 0 0 0 0 0 0 5 15 22 22 19
19 20 23 26 27 28 29 30 31 32 28 20 35 35 28 4
6 6 1 10 19 37 30 25 24 4 2 0 1 1 6 22
49 14 8 7 21 49 44 40 18 9 49 35 5 16 44 11
10 0 43 61 22 0 5 0 0 0 2 44 49 9 1 2
0 5 12 19 27 26 27 27 25 20 19 18 3 0 0 0
0 0 0 0 8 51 78 96 114 122 120 118 116 116 113 110
95 96 131 111 97 98 93 79 67 105 91 82 84 91 100 99
96 82 53 8 0 0 0 0 0 0 0 2 12 27 26 23
22 24 27 31 32 32 33 34 33 32 20 25 15 26 36 4
0 0 0 3 10 11 2 0 0 0 4 0 0 0 0 14
50 42 49 41 21 15 36 46 37 9 23 29 12 5 34 3
2 0 40 59 23 0 0 0 0 0 3 47 51 9 1 5
0 0 0 7 24 23 25 8 6 7 8 3 0 0 0 0
0 0 0 1 25 66 86 105 121 123 124 123 123 119 118 114
111 85 107 99 85 94 97 91 74 82 74 88 100 110 111 106
96 90 72 30 0 0 0 0 0 0 0 3 8 28 31 29
26 27 31 33 35 35 35 35 34 23 7 0 0 1 34 4
0 0 0 0 0 0 0 0 0 0 9 7 0 0 0 11
54 52 48 33 50 29 2 5 3 0 0 3 24 13 8 0
15 13 42 55 20 0 0 0 0 0 4 49 52 8 0 4
8 0 0 9 33 30 29 4 0 0 0 0 0 0 0 0
0 0 0 4 40 76 96 111 121 125 129 128 127 122 117 115
111 93 79 89 100 106 107 110 88 76 62 80 100 105 111 113
106 92 77 52 2 0 0 0 0 0 0 4 4 27 31 30
27 30 34 35 35 36 35 35 35 5 15 33 13 2 3 0
0 0 0 0 0 0 0 0 1 0 0 0 0 0 0 14
60 58 50 11 50 57 23 0 0 0 0 0 0 1 11 2
42 49 51 50 33 21 17 11 9 5 8 49 51 10 0 0
11 1 0 8 40 33 29 5 0 0 0 0 0 0 0 0
0 0 0 8 62 82 100 112 121 125 130 130 128 123 115 111
102 92 92 105 109 112 112 99 95 88 76 66 76 86 96 109
107 99 83 65 17 0 0 0 0 0 0 0 2 27 31 30
27 33 35 36 37 36 36 36 28 13 34 22 22 35 35 34
34 32 33 32 17 25 19 0 1 0 0 0 0 0 0 22
65 63 57 9 44 57 16 2 0 1 4 0 7 21 48 32
47 55 56 50 51 53 47 34 45 40 36 42 42 21 1 0
12 11 5 6 42 32 29 6 0 2 1 0 0 0 0 0
0 0 0 25 71 84 101 115 122 127 131 131 129 124 116 108
100 100 108 107 113 102 85 78 87 96 97 79 58 68 84 102
109 103 90 68 34 0 0 0 0 0 0 0 2 27 31 30
27 34 35 37 36 36 34 32 9 18 19 33 37 37 37 38
38 37 37 37 36 10 4 0 0 0 3 12 14 11 20 30
58 60 59 13 33 58 18 0 0 3 37 32 46 45 55 55
54 55 58 57 42 21 15 11 14 18 16 29 40 37 35 26
28 31 26 22 44 28 26 6 0 9 3 0 0 0 0 0
0 0 0 40 70 87 103 114 124 127 131 130 128 122 116 106
104 109 108 104 99 93 96 97 90 93 102 90 70 59 71 93
105 101 91 72 48 1 0 0 0 0 0 0 11 26 31 31
27 34 35 37 37 36 36 13 25 37 37 37 37 37 37 37
37 37 37 37 14 0 0 2 0 0 9 38 37 36 34 31
10 13 46 21 26 58 46 22 14 23 49 53 48 35 43 53
37 35 41 48 32 0 0 0 1 19 11 28 41 37 28 28
36 43 47 49 48 33 26 7 1 10 3 2 0 0 0 0
0 0 2 46 73 90 103 114 124 128 132 130 127 122 116 108
110 114 105 88 79 106 107 101 99 94 83 84 89 77 65 86
101 100 91 75 55 6 0 0 0 0 0 0 15 30 31 32
28 35 36 36 36 36 23 14 37 37 37 37 37 37 37 37
37 37 37 37 12 0 0 18 0 0 8 37 36 36 36 34
0 0 37 43 23 58 56 55 53 54 54 52 38 7 12 23
7 0 0 18 35 0 0 4 3 11 16 33 42 33 4 0
5 12 21 49 48 32 25 10 1 4 0 0 0 0 0 0
0 0 5 53 75 88 104 117 122 127 127 129 127 122 114 109
117 106 88 68 92 104 111 111 108 100 80 58 71 76 74 74
91 96 91 79 59 15 0 0 0 0 0 0 14 30 32 31
28 36 35 36 36 29 8 35 37 37 37 37 37 37 37 37
37 38 37 37 14 0 0 4 0 0 6 38 37 37 36 35
3 9 37 49 18 56 55 56 57 56 53 47 33 5 0 1
4 0 0 15 37 0 3 32 33 17 9 33 44 32 1 3
22 25 23 48 43 29 27 24 8 2 1 0 0 0 0 0
0 0 10 62 76 87 102 116 123 123 129 129 125 121 115 116
118 110 92 98 113 125 123 113 108 109 104 81 59 65 78 72
79 86 88 80 61 20 0 0 0 0 0 0 6 25 31 32
29 35 35 36 36 11 28 37 36 37 37 37 37 38 37 37
37 38 37 37 15 0 0 0 0 0 4 37 37 37 36 36
8 12 33 52 11 55 57 58 57 55 23 15 14 4 2 2
18 0 0 15 39 1 22 39 28 3 0 35 46 31 0 3
15 35 35 49 39 27 29 25 4 1 1 0 0 0 0 0
0 0 13 67 78 86 101 118 123 127 129 129 127 122 121 123
120 117 116 119 126 128 122 111 105 105 105 93 77 70 76 80
77 81 84 79 62 26 0 0 0 0 0 0 5 19 31 32
30 36 35 36 31 13 38 38 37 38 37 38 38 38 37 37
36 35 30 29 12 0 0 0 0 0 3 38 38 38 37 38
1 9 24 52 5 35 40 43 45 48 46 48 45 43 44 38
38 1 0 15 39 6 7 43 34 1 0 37 49 33 0 1
3 11 32 52 38 28 31 22 5 2 2 0 0 0 0 0
0 0 15 63 79 87 103 117 123 125 128 130 127 124 127 125
119 118 122 122 127 126 121 113 111 109 107 97 85 79 79 86
81 79 81 77 63 27 0 0 0 0 0 0 4 15 30 33
31 37 36 37 23 23 38 37 36 36 37 37 38 38 38 38
24 6 1 0 0 0 0 0 0 1 2 37 38 37 39 38
2 18 28 52 6 0 0 0 1 3 27 36 24 8 10 13
11 2 0 15 39 1 1 28 17 7 2 38 50 35 0 0
0 0 25 53 39 28 29 33 39 36 8 0 0 0 0 0
0 0 14 61 78 86 103 116 123 126 130 129 128 128 131 127
123 124 123 127 130 128 123 117 114 113 110 104 95 86 84 85
86 80 79 77 62 31 0 0 0 0 0 0 7 16 30 33
31 36 36 38 21 26 38 37 38 39 39 40 40 39 39 39
20 26 18 14 6 0 0 0 1 3 4 28 38 38 39 38
0 14 25 51 11 0 0 0 0 0 27 41 26 0 0 0
0 0 0 14 40 0 0 0 0 8 2 38 52 35 0 0
0 0 23 55 41 29 30 41 54 52 10 0 0 0 0 0
0 0 12 57 77 84 103 116 121 126 129 130 130 134 136 129
129 128 128 132 130 124 120 119 116 114 105 99 97 92 89 88
86 84 81 77 66 34 0 0 0 0 0 0 10 16 31 34
32 38 37 39 23 26 39 39 39 40 40 40 40 40 41 40
56 63 40 25 6 0 0 0 0 0 0 11 20 39 40 40
0 1 5 45 18 0 0 0 0 0 32 49 34 0 0 0
0 0 0 13 41 1 0 0 0 0 0 36 52 32 0 0
0 0 23 55 43 27 31 40 48 40 6 0 0 0 0 0
0 0 9 50 77 83 100 113 119 124 127 129 131 135 135 133
134 129 128 130 127 120 117 116 113 106 105 96 95 91 92 90
86 83 80 75 67 37 0 0 0 0 0 5 14 17 31 34
32 38 36 39 26 22 39 39 39 39 40 40 40 40 39 39
22 18 17 1 0 0 0 0 0 0 0 21 7 14 28 40
2 0 0 38 32 4 3 4 5 6 35 53 46 2 0 0
0 0 0 12 39 0 0 0 0 0 0 34 53 32 0 0
0 0 19 51 39 27 31 27 20 16 0 3 0 0 0 0
0 0 6 42 71 81 98 110 118 123 126 128 132 136 135 136
135 129 113 125 121 118 118 118 117 111 106 97 90 90 89 89
86 83 82 75 66 40 0 0 0 0 2 12 15 16 30 33
32 37 36 39 31 18 40 39 40 39 40 38 36 34 31 28
15 5 3 0 0 0 0 0 0 0 0 4 8 1 18 40
2 0 0 29 56 39 30 39 40 42 52 55 42 2 0 0
0 0 0 10 39 0 0 0 0 0 0 32 54 33 0 0
0 0 15 50 40 26 29 27 9 3 2 2 0 0 0 0
0 2 10 38 65 77 93 110 118 122 126 128 132 134 137 137
132 127 121 122 121 119 117 117 121 116 109 100 88 87 85 85
84 81 80 76 66 42 2 0 0 0 0 9 13 16 30 33
32 37 35 39 35 16 38 39 38 39 38 23 10 9 10 9
5 1 4 0 0 0 0 0 0 0 0 5 8 3 15 41
4 4 4 23 60 39 44 45 45 49 56 41 6 0 0 0
0 0 0 9 41 7 6 8 11 15 18 40 52 35 0 0
0 0 17 56 44 24 29 31 8 1 3 5 1 0 0 0
0 5 19 35 56 69 89 106 115 119 121 125 128 132 135 135
131 127 124 123 122 121 118 122 123 119 113 105 95 88 81 79
80 79 79 74 64 41 3 0 0 0 0 13 15 16 29 33
32 37 36 38 37 15 33 30 25 20 15 7 3 3 3 4
4 4 9 6 7 0 0 0 0 0 0 4 8 3 13 39
47 52 57 60 65 26 26 31 36 42 54 46 21 17 17 15
13 11 12 20 45 40 42 44 47 50 52 50 40 27 12 8
7 4 19 53 40 24 31 35 22 0 1 0 2 0 0 0
0 5 36 48 50 69 86 104 113 116 119 125 128 131 132 129
127 129 124 124 125 123 122 124 123 122 113 106 100 89 77 75
76 78 75 72 62 39 8 0 0 0 0 12 18 15 29 32
32 32 26 20 14 5 4 4 5 7 8 9 11 12 12 12
12 8 4 4 18 0 0 0 0 0 0 4 7 1 11 39
62 66 69 70 68 18 0 0 2 6 37 54 50 51 50 48
46 46 48 50 51 47 47 49 49 50 50 48 46 45 45 42
42 37 39 46 43 39 41 39 35 2 0 0 0 0 0 0
2 5 49 56 51 62 83 101 111 113 117 121 123 127 127 124
125 128 126 127 130 133 130 131 130 127 120 113 104 92 77 70
71 75 73 69 59 36 9 0 0 0 0 12 18 13 28 31
30 13 6 6 8 10 11 12 12 13 12 12 13 13 12 12
11 2 1 4 20 0 0 0 0 0 0 3 2 9 12 34
59 61 66 66 65 30 0 0 1 5 36 57 56 56 56 56
53 55 57 53 39 32 40 44 45 44 44 44 43 44 44 44
43 43 43 42 42 41 40 38 32 17 0 0 0 0 0 0
13 19 68 63 53 60 78 96 107 111 116 117 119 122 121 119
118 119 122 123 131 137 128 126 124 121 115 112 104 91 77 66
66 71 70 66 55 35 19 8 0 0 0 15 19 13 28 31
29 15 11 11 11 11 11 11 10 8 6 5 3 2 1 8
12 10 1 8 9 0 0 0 0 5 1 1 9 15 16 32
34 31 22 17 16 8 0 0 1 4 37 57 56 54 53 54
52 54 58 33 24 26 38 44 44 44 44 43 43 43 43 43
43 43 42 42 42 41 40 37 34 20 2 0 0 0 0 4
31 20 51 76 54 61 74 92 102 107 111 114 113 116 116 112
111 112 112 116 121 124 121 116 113 108 110 103 97 84 67 62
61 66 64 61 50 35 57 37 4 0 0 18 20 12 27 31
18 13 12 8 3 2 1 0 0 0 0 0 0 0 0 9
12 9 7 7 3 0 0 0 0 0 0 4 9 9 10 32
16 21 5 0 0 0 0 0 0 4 37 48 29 30 29 27
26 29 31 23 23 25 36 43 42 37 35 34 34 32 31 31
30 29 28 26 26 24 23 23 22 14 6 0 0 0 0 10
56 25 31 72 58 59 71 84 96 103 106 107 108 111 110 108
105 101 106 107 107 109 108 107 105 102 99 94 88 69 58 57
60 62 59 56 45 39 82 51 5 0 0 20 20 11 25 30
25 14 13 4 0 0 0 0 0 0 0 0 0 0 0 12
13 10 7 14 13 15 15 16 16 11 17 19 21 21 19 21
9 21 5 0 0 0 0 0 0 2 38 40 0 1 1 0
0 6 6 17 24 25 35 43 39 15 2 1 1 1 1 0
0 0 0 0 0 0 0 0 0 0 0 0 0 0 0 21
74 35 74 91 67 59 69 79 93 98 102 101 102 104 103 102
98 96 94 94 94 95 98 101 102 100 94 82 70 58 52 54
55 58 54 51 41 18 53 40 1 0 5 24 20 10 24 30
22 12 12 1 0 0 0 0 0 0 0 0 0 0 2 13
12 10 9 44 17 21 23 27 25 16 24 20 18 17 9 7
10 22 8 0 0 0 0 0 0 0 39 41 0 2 0 3
0 7 14 20 22 25 33 43 39 20 0 0 0 0 0 0
1 0 0 0 0 0 0 0 0 0 0 0 0 0 0 42
69 60 114 114 55 64 64 72 86 94 95 94 95 95 96 95
94 90 89 88 88 90 93 97 100 96 87 72 60 52 51 49
52 53 51 49 36 8 24 53 5 0 5 23 20 10 22 28
18 12 11 0 0 0 0 0 0 0 0 0 0 0 5 13
11 10 10 28 18 22 25 36 58 42 63 62 62 21 11 27
10 20 7 0 0 0 0 0 0 0 36 40 1 2 0 2
10 17 18 19 22 25 32 43 41 26 1 0 0 0 1 2
2 2 1 1 1 1 1 1 1 1 1 2 0 0 0 24
58 79 117 79 11 62 61 64 77 87 88 87 87 89 89 90
90 91 94 99 102 106 104 102 102 98 90 79 74 61 53 52
52 50 48 45 29 1 10 32 3 0 0 17 20 9 19 26
17 12 9 0 0 0 0 0 0 0 0 0 0 0 9 13
11 10 9 25 17 22 27 43 89 58 84 81 78 22 9 55
9 20 13 3 0 0 0 0 0 0 32 39 1 1 3 15
18 18 17 19 22 24 30 41 41 28 3 0 0 1 1 2
2 2 3 2 2 1 1 1 0 0 0 0 0 0 0 6
35 85 88 23 2 53 63 61 66 76 81 78 78 82 83 89
90 93 98 103 106 114 113 115 110 104 96 87 74 60 56 54
53 49 49 42 22 0 4 8 0 0 0 9 21 14 19 25
14 12 5 0 0 0 0 0 0 0 0 0 0 0 11 12
11 11 4 24 22 25 28 29 47 29 35 33 30 24 21 31
10 20 17 11 0 0 0 0 0 0 32 39 2 0 3 15
17 17 16 19 21 24 29 41 41 31 5 0 1 1 2 2
2 2 2 2 2 2 2 1 2 1 1 0 1 0 0 0
11 54 55 5 9 56 64 65 61 66 72 73 77 80 85 91
95 97 97 104 110 112 114 111 109 103 96 84 72 63 58 57
53 51 46 41 13 0 0 0 0 0 2 16 41 42 42 30
13 12 3 0 0 0 0 0 0 0 0 0 0 1 13 13
12 12 0 6 24 25 28 20 20 15 17 14 17 17 19 19
7 17 17 7 0 0 0 0 0 0 31 35 3 0 1 14
16 18 17 18 21 23 28 40 41 33 7 0 1 1 1 2
1 2 2 2 2 2 1 1 1 0 0 0 0 4 0 0
0 13 7 0 31 60 60 71 69 67 72 75 78 80 85 91
97 100 104 107 108 112 115 111 110 103 94 84 69 61 58 58
53 52 45 43 5 0 0 0 0 0 7 18 49 49 46 21
12 12 0 0 0 0 0 0 0 0 0 0 0 3 13 11
12 9 0 6 18 22 28 20 19 12 16 13 13 14 20 19
5 15 16 6 4 2 0 0 0 0 32 34 6 0 1 14
16 17 16 17 21 22 27 38 40 34 11 1 0 0 1 1
1 2 1 2 1 1 2 1 1 1 0 0 0 1 0 0
0 0 0 0 41 59 60 73 82 79 82 84 85 85 89 92
96 101 105 109 109 111 112 112 109 103 94 81 69 61 62 61
56 52 51 40 0 0 0 0 0 0 12 23 50 51 45 18
13 10 0 0 0 0 0 0 0 0 0 0 0 6 13 11
11 5 0 0 0 7 28 20 18 8 12 12 14 16 22 21
4 12 23 36 38 36 33 32 32 32 42 37 6 0 1 15
16 17 16 17 20 22 25 37 40 34 13 0 1 1 0 1
2 1 2 2 2 2 2 1 1 1 0 1 1 0 0 0
0 0 0 0 16 47 64 75 87 88 89 94 94 90 91 94
98 100 104 106 109 110 109 109 109 103 91 79 68 64 62 60
57 53 57 37 0 0 0 0 0 1 13 33 52 51 39 15
12 6 0 0 0 0 0 0 0 0 0 0 0 9 12 9
9 1 0 0 0 10 26 20 17 9 15 13 15 16 21 20
3 11 24 39 43 41 36 35 34 31 26 31 8 0 2 15
15 17 16 17 19 21 25 36 39 35 15 0 1 1 1 1
1 1 1 1 1 1 1 1 0 0 0 1 1 0 0 0
0 0 0 0 1 29 67 79 88 94 99 103 100 96 92 95
99 103 106 109 111 109 110 111 108 100 90 79 69 63 62 60
58 59 62 40 0 0 0 0 6 3 12 41 52 51 33 13
13 4 0 0 0 0 0 0 0 0 0 0 0 12 11 10
9 1 0 4 2 18 27 21 16 8 13 12 12 17 20 20
4 15 23 39 41 33 15 6 3 0 0 19 11 0 2 13
14 15 15 16 20 21 24 35 38 35 16 0 1 0 1 0
1 1 1 1 1 1 1 1 0 1 0 0 1 0 0 0
0 0 0 0 0 20 68 84 92 97 103 108 108 103 96 94
97 103 107 110 114 116 113 110 107 100 91 78 68 64 63 60
61 64 62 44 1 0 0 0 11 7 20 48 54 51 26 13
13 1 0 0 0 0 0 0 0 0 0 0 2 13 10 9
7 0 0 6 2 22 25 21 15 6 10 13 13 18 21 20
14 19 7 11 12 17 1 0 0 0 0 15 20 8 10 13
14 14 15 15 18 20 23 32 37 34 17 0 0 1 1 1
0 1 1 1 0 0 0 0 0 0 0 0 0 0 0 4
0 0 0 0 0 11 68 87 93 99 105 109 111 109 101 98
99 103 108 113 117 117 115 114 109 103 94 81 71 66 62 63
66 68 63 49 4 0 0 3 12 11 47 50 53 49 21 12
11 0 0 0 0 0 0 0 0 0 0 0 4 12 10 10
6 0 2 4 1 24 24 18 6 1 5 12 12 19 20 20
20 22 10 0 0 5 0 0 0 0 0 20 41 36 28 13
12 14 14 14 18 20 22 32 37 34 19 0 0 0 0 1
1 1 1 0 0 0 0 0 0 0 1 0 0 0 0 5
0 0 0 0 0 6 69 89 96 102 106 111 115 114 110 105
100 103 107 113 119 119 117 112 109 104 95 81 73 67 63 66
68 69 64 51 8 0 2 1 14 41 55 53 53 44 17 12
8 0 0 0 0 0 0 0 0 0 0 0 7 12 10 9
4 0 0 0 3 27 23 10 3 0 5 12 12 20 20 20
29 27 20 1 1 0 0 0 0 0 0 26 30 6 5 10
12 13 15 13 17 19 21 29 36 34 20 0 0 0 1 0
1 0 1 0 0 0 0 0 0 0 0 0 0 2 1 4
6 0 0 0 0 7 70 92 101 105 109 113 114 114 115 111
106 105 110 115 119 122 119 114 110 106 98 85 74 68 66 69
71 70 67 56 15 0 5 5 36 57 58 54 52 38 14 12
5 0 0 0 0 0 0 0 0 0 0 0 10 12 10 9
3 0 21 16 12 28 23 10 3 0 5 12 13 20 20 20
33 25 14 4 2 0 0 0 0 0 0 25 27 0 0 5
11 12 13 13 17 18 20 29 35 33 20 0 0 0 0 0
0 0 0 0 0 0 0 0 0 0 0 0 1 4 18 1
0 0 0 0 0 11 71 91 102 108 112 116 115 117 116 115
112 108 112 118 122 122 119 114 113 106 100 88 78 70 69 71
72 70 68 58 17 0 7 7 43 59 59 56 53 30 13 13
2 0 0 0 0 0 0 0 0 0 0 0 13 12 10 9
0 6 49 24 10 27 23 10 2 4 10 12 14 21 20 20
30 26 10 11 6 0 0 0 0 0 0 21 28 1 0 5
10 11 13 12 15 17 19 27 34 33 21 0 0 0 0 0
0 0 0 0 0 0 0 0 0 0 0 0 0 4 33 26
15 10 0 0 0 13 70 91 102 109 114 117 116 118 117 115
116 112 114 119 124 125 121 117 114 107 101 89 80 71 72 71
72 71 69 62 22 0 9 9 36 60 59 57 52 24 13 12
0 0 0 0 0 0 0 0 0 0 0 3 13 11 11 9
0 7 33 12 15 27 23 14 11 4 14 12 15 22 22 20
15 10 7 5 5 4 5 6 10 17 21 25 28 2 0 4
11 11 12 12 14 16 18 25 33 32 22 1 0 0 0 0
0 0 0 0 0 0 0 0 0 0 0 0 0 3 35 32
29 30 3 0 0 15 70 90 101 111 114 116 117 116 116 111
112 110 113 123 127 128 121 117 116 111 106 91 82 73 71 70
73 73 67 62 26 0 16 9 28 59 60 58 48 18 14 9
0 0 0 0 0 0 0 0 0 0 0 5 14 11 12 7
0 0 6 5 22 26 24 18 10 7 12 12 17 22 23 20
34 16 14 11 14 16 18 21 25 32 37 38 31 10 4 5
10 11 11 11 14 16 17 23 32 31 21 1 0 0 0 0
0 0 0 0 0 0 0 0 0 0 0 0 0 2 34 35
30 48 19 0 0 15 68 88 102 111 116 119 121 120 118 116
110 108 114 124 129 132 126 121 117 116 110 98 83 73 70 71
74 74 69 62 28 15 27 9 20 56 57 57 41 15 13 9
3 4 4 5 5 5 5 5 5 6 5 11 14 12 12 4
0 0 0 4 28 25 24 20 9 7 12 12 18 22 22 20
31 27 27 25 28 28 30 31 32 35 37 36 33 29 26 20
11 9 10 10 13 14 16 22 30 30 21 1 0 0 0 0
0 0 0 0 0 0 0 0 0 0 0 0 0 2 34 35
31 38 15 0 0 18 70 87 100 109 116 120 121 124 120 117
111 109 113 123 131 134 127 123 121 117 111 99 85 74 70 73
76 76 72 61 33 26 28 8 12 53 56 56 34 13 14 14
13 13 13 13 13 13 13 13 13 14 14 13 14 12 12 2
0 0 0 9 31 25 24 19 8 6 11 12 18 21 21 20
19 17 16 15 13 12 11 9 8 7 6 5 8 5 2 3
6 7 7 8 12 14 16 21 29 29 20 1 0 0 0 0
0 0 0 0 0 0 0 0 0 0 0 0 0 2 33 34
30 23 13 0 0 21 75 91 101 110 116 120 122 122 121 116
112 109 113 120 125 128 126 123 120 116 108 96 84 74 69 74
78 78 74 61 39 29 28 10 9 48 56 56 27 14 14 14
14 14 14 14 14 13 14 14 14 14 14 15 13 14 13 0
0 4 2 14 31 25 24 18 9 8 12 13 21 22 21 20
0 0 0 0 1 0 0 0 0 0 1 3 12 7 0 0
6 6 7 6 10 13 15 20 28 29 21 1 0 0 0 0
0 0 0 0 0 0 0 0 0 0 0 0 0 2 32 35
30 26 22 9 2 30 75 91 102 111 118 120 120 122 122 117
110 107 112 116 119 122 120 122 117 114 106 95 84 74 70 76
82 77 74 62 41 29 28 17 42 82 65 54 28 10 14 16
16 15 16 23 24 16 15 15 14 14 16 14 9 8 11 0
0 17 19 25 32 27 26 17 7 6 9 14 22 22 22 21
0 0 0 5 7 0 0 0 0 0 2 2 11 9 0 0
4 5 6 8 11 13 14 19 27 28 21 1 0 0 0 0
0 0 0 0 0 0 0 0 0 0 0 0 0 3 35 36
29 29 29 29 35 38 76 91 102 110 117 121 123 124 123 115
112 105 108 114 116 117 117 116 115 111 103 92 82 73 71 77
81 80 75 63 42 29 46 94 110 118 104 45 22 9 19 25
28 33 48 93 96 64 60 55 33 41 40 37 33 15 0 0
19 34 11 28 32 30 40 33 24 4 18 82 57 38 47 51
0 0 0 9 8 0 0 1 1 0 3 9 12 7 0 0
0 4 6 9 10 12 13 17 25 26 20 1 0 0 0 0
0 1 2 3 4 6 8 9 10 13 15 18 20 23 34 33
30 30 31 63 90 43 74 91 99 108 114 119 121 122 124 120
112 103 106 111 114 113 113 113 112 106 98 90 78 71 72 79
85 83 77 64 42 37 104 112 109 105 68 21 19 27 70 106
113 128 142 148 149 141 126 102 35 12 11 11 12 26 27 3
94 140 23 29 32 25 70 78 62 3 20 73 77 66 73 75
3 4 4 3 2 7 9 10 11 11 9 5 7 1 0 0
1 1 6 8 10 11 13 16 24 25 25 13 12 16 18 20
23 25 27 28 29 30 30 30 31 31 31 31 30 29 29 30
29 30 37 83 82 38 73 88 101 109 114 120 121 123 123 122
116 109 104 104 108 108 110 109 106 100 94 85 74 72 77 82
88 88 75 62 48 49 74 69 63 58 48 41 38 43 72 111
112 122 131 135 147 142 127 101 29 10 11 9 7 19 20 36
118 139 17 32 27 15 46 54 32 0 1 46 57 40 47 43
12 11 6 5 12 13 13 14 14 14 15 6 2 8 0 0
3 0 5 9 9 11 12 16 24 26 28 28 28 29 32 33
32 33 32 32 32 32 32 31 32 31 30 30 30 29 29 29
30 42 56 92 63 32 71 87 100 109 114 117 120 122 123 121
117 114 111 111 110 109 111 110 107 101 97 89 79 78 81 85
90 87 77 61 38 40 56 47 49 48 45 44 55 58 65 98
114 129 142 147 147 139 125 98 26 6 7 8 6 27 0 11
65 50 12 33 19 3 3 3 0 0 2 0 5 16 27 23
11 4 9 12 13 13 14 14 15 17 19 8 4 6 2 4
0 0 1 2 6 10 11 15 24 26 27 29 26 26 32 32
33 33 33 32 33 35 30 23 25 29 29 21 24 27 26 26
30 61 65 117 62 25 69 83 99 107 115 119 122 123 125 123
119 117 114 113 114 112 114 115 110 105 102 90 82 81 84 89
91 86 76 61 24 21 62 35 24 24 25 27 52 45 41 67
102 63 105 129 126 113 91 40 8 8 6 4 11 33 7 10
41 25 26 34 16 0 0 0 0 0 0 0 0 6 23 11
2 8 12 11 13 14 14 13 21 33 34 7 2 0 0 0
0 0 0 3 5 8 10 14 23 25 27 28 27 28 29 29
29 29 29 35 57 57 12 1 0 4 6 1 3 19 25 25
41 65 83 109 61 22 67 82 98 106 112 116 121 122 125 123
123 119 118 116 116 115 116 116 112 106 101 91 80 82 89 93
91 85 74 60 24 4 32 53 24 19 17 8 35 47 47 45
45 8 13 18 12 9 11 3 10 9 13 39 62 74 78 84
79 82 79 64 27 25 0 0 0 0 0 0 0 0 17 11
5 8 8 6 6 7 6 5 25 26 17 3 0 0 0 0
0 0 0 0 4 2 4 5 11 13 12 12 12 10 10 10
13 14 23 64 70 23 0 0 0 0 0 0 4 21 34 48
52 80 88 92 46 24 63 79 97 108 114 119 122 124 125 127
125 122 120 119 120 119 118 114 114 107 100 87 80 90 97 95
92 84 74 56 31 1 8 65 50 18 15 0 1 25 79 98
100 85 25 7 10 16 15 9 14 6 50 95 88 100 95 83
75 86 86 73 27 24 0 0 0 0 0 0 0 0 10 20
6 6 7 9 10 7 2 7 48 18 13 9 0 0 0 0
0 0 0 0 1 0 0 0 0 0 0 0 0 1 2 1
9 18 48 75 37 2 0 0 0 11 26 38 65 83 67 56
69 64 86 117 66 27 56 82 94 107 117 121 122 124 126 126
126 124 121 121 122 122 122 119 115 109 98 86 82 93 98 94
89 81 72 53 38 8 1 50 101 23 16 0 0 0 1 4
10 32 63 69 44 25 29 34 57 75 104 107 90 97 94 86
78 83 82 64 2 0 0 0 0 0 0 2 2 2 5 13
29 32 36 39 41 32 1 44 44 2 6 13 5 0 0 0
0 0 0 0 0 0 0 0 0 0 0 0 2 8 10 5
9 27 64 53 14 0 0 0 30 61 78 56 65 53 86 66
79 62 97 103 68 33 46 84 95 106 115 122 124 125 124 125
128 125 122 123 122 123 123 119 115 107 98 87 86 97 100 94
87 80 70 51 43 20 0 26 84 47 20 8 11 14 15 14
13 10 8 27 60 61 61 78 71 43 40 53 59 65 64 61
60 60 60 50 23 21 23 18 13 10 1 9 6 3 2 0
52 52 53 53 54 51 12 55 11 0 1 11 15 5 0 0
0 0 0 0 0 0 0 1 0 0 0 0 1 8 11 10
3 40 62 22 0 2 12 29 66 79 31 35 47 67 89 62
56 69 80 111 75 56 38 82 98 106 113 120 123 125 128 126
126 126 124 122 122 120 119 119 112 104 97 87 90 99 100 93
84 79 67 51 46 33 1 8 58 77 34 29 40 54 72 78
89 81 61 52 60 87 95 93 117 137 144 149 139 114 79 66
52 38 33 26 20 17 17 11 8 4 0 2 1 0 0 0
53 52 52 52 48 41 18 31 0 0 0 5 23 4 0 0
0 0 0 1 0 0 1 2 1 0 0 0 4 13 19 15
3 51 60 11 16 32 55 84 87 91 89 80 101 84 53 69
71 49 82 111 83 66 40 71 100 106 112 120 122 123 126 127
130 128 124 123 122 119 119 118 109 101 98 91 93 101 98 92
86 76 67 54 50 42 10 15 45 78 23 20 71 125 146 150
149 131 94 76 66 66 72 88 133 149 149 125 149 130 83 61
40 29 24 19 14 11 14 10 9 5 0 0 0 0 0 0
23 19 14 10 4 1 3 19 0 1 0 3 2 0 0 0
0 3 2 6 6 6 5 5 7 9 14 17 20 21 20 9
8 55 38 14 44 69 71 100 83 62 71 92 88 75 46 67
65 40 80 89 71 65 49 58 104 109 114 118 123 124 125 125
126 129 126 123 123 120 118 119 113 107 100 95 95 99 97 93
85 76 66 60 56 42 26 25 42 58 44 39 50 69 126 151
149 111 72 69 60 60 66 88 135 150 150 138 150 135 96 67
42 34 24 19 15 12 13 11 11 5 2 0 2 0 0 0
0 0 0 0 0 0 3 13 0 3 1 0 0 0 0 0
1 2 0 2 3 3 3 4 6 9 17 24 24 15 13 2
16 61 40 39 86 88 80 97 101 97 60 69 86 71 55 58
66 61 83 105 97 54 65 53 100 112 117 120 120 123 125 125
124 126 126 122 122 119 119 117 111 106 103 100 102 102 99 92
84 76 68 64 63 45 69 56 32 61 74 36 55 56 81 120
150 111 73 65 60 59 63 87 133 151 150 114 150 138 96 66
44 34 27 21 16 13 13 12 11 6 3 0 2 1 0 0
3 0 0 0 0 1 6 16 9 10 1 0 0 0 0 0
0 0 0 0 0 0 0 0 1 7 16 23 19 3 0 0
23 69 67 51 70 89 60 60 88 105 68 43 77 45 66 92
66 61 80 85 72 44 73 62 87 118 119 122 121 120 121 121
122 124 125 121 122 119 119 115 110 106 104 103 105 103 97 89
83 75 73 70 67 45 80 55 32 59 74 39 38 47 64 47
78 79 77 65 57 53 65 88 127 152 150 109 150 140 94 65
46 34 26 21 16 13 13 14 12 7 3 0 2 1 0 0
3 10 3 0 2 3 7 13 2 2 0 0 0 0 0 0
0 0 0 0 0 0 0 0 0 6 15 23 16 6 41 48
46 67 58 55 39 80 80 64 56 70 50 53 57 38 67 84
73 77 71 75 102 62 68 76 74 118 124 123 121 120 120 121
123 124 123 122 121 121 117 114 113 109 105 103 104 101 92 88
81 78 80 82 74 48 71 42 60 49 71 59 42 59 78 74
50 57 75 60 60 55 68 89 128 151 150 107 149 141 98 68
49 36 28 21 19 14 14 16 13 8 5 0 2 1 0 0
2 7 27 6 0 0 10 14 0 0 0 0 0 0 0 0
0 0 0 0 0 0 0 1 1 5 17 30 62 87 84 65
48 69 93 77 48 79 82 72 88 104 54 64 50 54 55 51
36 57 59 107 109 66 61 58 71 99 127 125 122 122 123 123
123 123 124 124 125 121 119 117 114 110 106 106 106 99 91 87
85 83 86 92 76 49 69 35 52 63 44 45 52 34 54 44
34 59 59 44 77 82 69 84 126 151 150 105 148 144 103 70
51 37 26 20 18 13 14 16 13 8 5 1 2 1 0 0
0 0 8 11 0 1 14 7 0 0 0 0 0 0 0 0
0 0 0 3 0 0 3 4 4 9 27 73 92 76 66 99
72 63 89 97 79 67 86 56 94 99 56 91 56 67 75 78
69 97 74 101 77 54 43 46 63 82 117 126 126 123 124 125
124 124 125 127 125 122 119 117 114 111 109 107 104 96 89 89
88 87 95 99 73 67 75 40 80 80 77 64 26 42 51 79
56 35 33 46 76 84 72 62 121 151 150 102 146 140 96 66
52 37 22 18 15 12 15 18 15 9 6 1 2 0 0 0
0 0 0 0 1 1 0 0 0 0 0 0 0 0 0 0
0 0 2 4 0 0 2 3 12 39 72 77 115 102 89 101
90 52 68 61 39 21 63 72 82 113 68 56 43 72 82 54
68 83 79 78 81 76 73 60 66 84 93 126 127 127 127 127
127 127 126 125 124 122 119 116 115 115 112 108 103 93 90 93
95 95 103 106 69 61 81 64 64 78 79 77 39 50 61 46
84 98 57 53 28 55 58 45 59 116 148 101 143 134 98 69
51 36 24 17 13 10 13 18 15 9 6 1 2 0 0 0
1 0 0 1 7 3 0 2 2 1 0 0 0 0 0 0
0 0 2 7 0 0 3 2 28 74 108 109 116 98 97 99
93 25 49 66 61 56 44 50 86 94 85 84 93 93 92 79
96 117 80 97 109 119 74 68 50 66 88 110 134 129 127 128
128 131 128 125 123 122 119 119 118 117 117 111 104 92 91 96
98 98 107 110 64 86 112 63 85 67 46 62 45 19 43 25
39 56 32 54 46 67 78 74 42 62 80 87 143 131 99 69
47 32 23 19 14 7 11 18 15 9 7 2 3 0 0 0
3 2 1 2 6 8 8 9 10 10 1 2 0 0 0 0
0 0 1 11 5 4 5 24 83 108 120 111 80 66 47 43
63 69 57 82 76 53 54 39 48 61 84 76 82 90 90 87
109 101 108 116 119 109 80 76 54 52 86 94 122 134 133 130
127 131 132 126 125 122 121 121 119 122 121 114 101 90 95 103
102 105 111 106 63 91 113 61 68 72 72 84 59 21 23 27
57 70 61 70 44 61 52 49 42 69 61 62 96 117 100 71
49 30 28 23 14 7 11 18 15 10 7 2 2 0 0 0
9 10 7 6 8 11 12 13 17 17 4 3 2 0 0 0
0 0 7 18 28 19 31 88 107 115 94 81 70 86 74 85
108 97 44 42 52 49 59 70 74 97 88 60 69 70 46 69
89 76 108 127 83 16 30 51 66 65 88 88 106 133 138 135
132 131 135 131 129 124 122 122 121 122 122 114 98 91 95 106
108 110 114 96 72 89 105 58 81 93 88 107 80 23 21 25
30 67 51 65 21 20 32 42 46 71 75 102 107 85 80 74
49 34 29 22 13 8 12 19 15 10 8 3 3 0 0 0
4 16 13 6 5 5 4 6 7 5 1 2 6 0 0 0
0 0 0 1 13 9 82 104 76 69 67 94 117 86 81 100
92 70 42 74 59 29 45 73 70 79 78 62 92 87 55 61
70 41 46 22 4 0 1 50 48 59 70 75 94 118 141 142
137 135 138 136 129 125 123 124 124 124 123 112 99 94 102 110
112 114 118 84 77 84 107 59 84 95 51 47 79 41 23 21
22 58 31 30 13 45 57 62 48 43 36 60 68 64 68 85
55 36 29 22 16 10 14 19 16 10 8 4 3 0 0 0
0 1 1 0 0 0 0 0 0 0 0 4 8 0 7 0
0 0 0 0 3 44 78 92 68 85 119 111 99 87 70 59
75 104 69 75 73 56 56 63 61 66 94 80 80 37 13 2
4 13 30 30 29 20 7 27 65 56 82 68 80 103 124 143
142 138 140 137 131 126 125 126 127 128 124 115 103 100 106 115
116 115 110 68 87 97 91 42 63 77 21 0 31 51 49 55
26 45 63 57 35 56 60 51 32 62 58 100 103 89 60 58
51 47 26 18 16 11 16 21 17 11 9 3 3 1 0 0
0 0 0 0 0 0 0 0 0 0 0 3 4 4 14 0
0 0 0 0 28 67 46 56 102 104 99 79 75 104 115 78
76 91 83 64 77 50 59 46 50 83 91 57 36 23 43 43
27 48 78 67 43 71 35 32 71 65 75 81 76 97 104 119
139 141 139 137 134 130 128 127 126 128 124 115 105 103 106 114
118 112 99 68 98 80 81 34 34 49 8 0 2 40 46 52
33 29 54 62 35 39 60 64 41 73 67 96 93 73 98 75
44 42 47 18 16 12 16 21 18 11 9 2 3 0 0 0
0 0 0 0 0 0 0 0 0 0 0 1 2 2 1 0
0 0 0 1 52 86 27 59 106 97 58 89 138 131 120 102
81 103 97 57 83 46 58 75 86 81 83 77 75 36 79 92
52 53 68 70 52 68 74 34 63 59 57 62 64 86 105 101
116 137 139 138 130 127 128 128 127 126 125 119 109 105 106 113
117 101 93 48 64 54 67 54 61 46 0 0 0 4 42 33
36 50 65 72 49 50 71 54 17 39 39 74 91 85 82 116
96 57 35 30 16 12 15 21 18 11 10 1 3 0 0 0
0 0 0 0 0 0 0 0 0 0 0 0 0 0 0 0
0 0 0 24 77 54 46 58 68 88 100 90 134 120 108 124
120 106 99 40 67 43 62 72 87 125 68 74 95 77 102 103
52 42 72 68 45 43 72 66 79 60 77 79 67 58 83 83
103 110 132 135 128 126 125 131 130 127 127 120 114 108 107 114
106 75 71 69 49 72 66 56 27 35 36 11 0 0 1 23
35 20 46 30 26 14 31 33 29 55 51 35 46 77 81 88
67 66 36 43 21 12 15 21 19 12 11 2 4 1 0 0
0 0 0 0 0 0 0 0 0 0 0 0 0 0 0 0
0 0 2 61 79 56 73 50 26 85 117 108 123 123 103 99
101 110 93 50 79 42 66 81 87 110 82 62 78 100 107 116
59 50 55 53 37 39 62 61 101 110 104 73 70 70 51 27
53 83 107 121 124 121 122 126 127 128 125 124 121 115 113 114
91 53 56 60 32 44 45 63 32 31 52 40 15 12 0 14
28 18 49 74 62 35 56 60 44 55 74 81 66 56 43 62
69 59 33 60 40 11 14 20 19 13 11 2 4 0 0 0
0 0 0 0 0 0 0 0 0 0 0 0 0 0 0 0
0 0 28 49 44 98 79 42 58 74 123 119 96 108 96 110
126 105 95 59 66 51 45 45 75 95 63 71 93 100 92 90
64 60 63 71 61 41 90 58 77 113 115 97 113 105 43 47
51 51 103 105 109 117 122 126 128 131 130 127 125 120 114 86
68 53 31 42 36 46 51 66 33 43 59 48 31 58 26 31
28 17 69 66 78 42 62 74 54 36 55 74 86 81 80 101
87 20 41 56 52 21 14 20 19 13 11 2 4 0 0 0
0 0 0 0 0 0 0 0 0 0 0 0 0 0 0 0
0 1 69 85 60 97 56 89 69 61 109 118 99 87 128 131
115 93 102 70 69 79 52 47 77 98 86 90 100 128 96 118
112 43 79 86 99 70 88 114 86 109 106 103 92 115 88 50
51 57 83 105 102 108 119 121 124 127 126 127 126 124 96 69
80 100 72 87 79 55 48 62 29 39 54 47 37 57 44 78
76 47 126 67 61 26 52 47 27 49 97 52 72 73 72 96
89 13 20 61 41 35 13 19 19 11 11 2 4 1 0 0
0 0 0 0 0 0 0 0 0 0 0 0 0 0 0 0
0 15 92 75 59 61 83 109 102 67 69 103 110 91 133 146
108 68 69 65 59 63 49 60 77 94 85 89 117 109 101 108
125 65 66 82 73 70 76 97 83 113 108 116 101 126 123 73
63 46 59 114 103 106 121 118 124 125 127 129 125 112 71 80
69 10 9 49 59 56 51 56 19 32 44 48 42 74 63 103
116 100 124 94 97 41 68 76 61 71 85 82 86 69 56 74
63 24 42 27 35 39 19 18 19 12 12 2 5 1 0 0
0 0 0 0 0 0 0 0 0 0 0 0 0 0 1 4
0 61 73 94 67 41 101 112 94 89 43 102 116 113 107 102
86 47 64 50 17 43 51 69 72 100 96 108 125 128 87 124
137 64 51 65 55 39 19 52 63 74 97 85 80 97 83 87
57 40 67 109 105 107 123 120 123 123 122 125 121 89 71 68
34 50 61 53 87 40 39 49 34 55 64 56 28 62 65 107
117 104 106 109 89 48 79 96 67 79 87 72 75 84 78 105
82 21 65 69 21 43 27 19 19 12 12 2 4 1 0 0
0 0 0 0 0 0 0 0 0 0 0 0 1 2 0 0
8 94 78 106 90 71 93 102 84 63 72 64 110 121 80 84
107 93 100 86 43 75 46 56 58 107 84 103 109 117 118 85
81 26 24 53 59 66 50 82 88 63 92 72 60 58 59 69
57 39 37 68 92 107 124 123 123 121 123 122 103 78 87 36
55 55 63 68 70 32 37 47 39 68 76 72 49 74 65 85
110 111 89 93 77 44 77 92 65 86 98 87 74 76 91 106
73 18 60 71 25 48 62 25 18 12 12 2 6 1 1 0
0 0 0 0 0 0 0 3 6 0 0 0 0 17 1 0
36 114 99 106 101 106 67 82 85 89 90 58 89 118 86 111
108 104 101 89 46 74 63 38 38 61 62 39 75 95 99 75
73 53 38 88 83 67 46 52 75 77 113 97 71 75 91 128
88 49 33 54 60 100 119 125 125 121 123 113 85 83 40 51
65 54 63 64 61 46 68 74 28 56 84 73 54 102 80 66
108 93 83 120 78 39 50 77 56 75 90 87 101 107 98 126
70 38 29 48 40 51 48 47 18 13 11 2 5 1 0 0
0 0 0 0 0 0 0 1 6 0 0 0 0 20 3 0
59 81 108 75 114 130 66 51 84 106 104 82 63 59 82 122
117 117 78 76 39 41 48 58 57 81 111 72 90 93 117 66
54 90 34 61 68 56 28 34 78 78 107 104 90 60 77 124
85 67 17 19 47 85 113 123 124 123 119 82 73 53 29 29
31 26 28 33 37 34 46 50 18 41 62 75 55 93 82 108
118 117 89 121 87 37 41 64 48 99 101 79 113 107 90 103
69 59 59 40 41 54 44 55 19 12 11 2 5 2 0 0
0 0 0 0 0 0 0 0 0 0 0 0 0 7 3 17
80 54 99 104 109 124 95 42 95 98 109 96 33 31 103 109
77 70 40 44 28 25 38 63 61 78 111 82 115 104 120 86
70 73 23 19 33 38 35 27 68 56 58 74 80 46 60 115
84 81 57 33 58 73 105 121 124 121 101 67 39 26 26 56
51 49 63 97 66 51 64 50 26 33 30 28 24 78 81 111
120 122 97 102 94 60 70 82 53 94 101 99 115 113 90 96
67 69 63 51 49 55 67 57 43 12 10 2 4 1 0 0
0 0 0 0 0 0 0 0 0 0 0 0 3 4 0 46
61 66 100 123 107 84 95 66 61 96 98 56 45 44 56 72
76 85 68 81 70 54 68 37 36 53 73 61 71 66 85 66
62 77 55 36 61 68 81 62 89 108 99 113 104 86 82 92
72 69 44 32 44 62 88 109 120 106 75 57 28 36 36 45
57 62 84 94 54 42 73 54 35 37 56 66 31 64 49 86
98 106 77 73 46 65 55 76 50 97 92 86 117 113 89 117
58 57 59 44 85 47 85 43 49 13 10 2 3 1 0 0
0 0 0 0 0 0 0 0 0 0 0 10 15 0 1 81
73 66 101 130 134 83 91 87 67 68 69 51 73 42 32 100
114 102 78 88 93 44 61 47 32 34 66 58 70 99 102 99
79 89 90 43 69 81 76 55 53 86 86 122 121 117 96 117
125 126 81 79 26 29 50 98 107 74 50 15 20 30 27 42
70 79 83 86 63 45 54 44 25 49 53 63 38 78 78 90
81 67 42 41 47 48 54 76 46 78 81 89 116 114 98 108
53 48 40 53 91 60 55 34 37 30 9 3 3 1 0 0
