P2
128 120
156
23 2 1 1 2 19 62 69 59 47 49 50 53 54 54 54
62 73 63 56 52 48 47 46 47 47 46 46 46 45 46 45
45 44 44 43 43 43 43 42 41 40 40 40 40 38 38 37
36 36 35 35 34 34 33 33 32 31 31 31 30 29 29 29
28 27 27 27 26 26 25 24 24 24 25 26 29 29 30 28
22 19 19 27 28 27 27 25 25 23 24 22 22 21 19 23
25 25 26 25 27 27 27 27 27 27 28 28 28 27 28 28
29 30 30 31 30 31 31 32 32 32 33 33 33 34 34 35
31 15 0 0 0 13 57 60 36 0 0 0 2 2 0 0
24 67 64 69 67 62 52 49 49 48 48 47 46 46 44 45
44 43 43 43 43 43 42 42 41 41 40 39 39 38 38 38
37 37 36 35 34 34 34 33 32 33 31 31 31 30 29 29
28 28 28 27 27 27 26 25 25 25 25 26 30 30 29 28
23 20 21 25 28 27 26 25 25 25 25 23 24 23 20 24
26 26 27 26 27 27 27 27 27 27 28 28 28 28 29 29
30 31 31 32 31 31 32 32 33 33 34 33 34 35 35 35
32 5 2 5 7 13 53 56 37 0 0 0 13 6 0 0
16 65 60 61 44 43 47 50 58 63 64 62 58 50 45 45
44 44 44 44 44 43 42 42 41 40 40 40 40 39 38 38
38 37 36 35 36 35 34 33 33 33 32 32 31 31 30 30
29 29 29 28 27 27 27 26 26 25 26 27 30 31 31 31
24 22 23 24 28 28 28 26 26 26 26 24 25 23 20 24
26 27 27 27 27 28 27 27 28 29 28 29 29 29 30 30
31 31 31 32 32 32 32 32 33 33 34 34 34 35 36 36
17 0 0 0 2 8 53 56 40 0 0 0 10 7 0 0
10 62 59 57 19 0 5 13 23 34 44 53 61 53 44 44
44 44 43 43 43 42 42 41 41 41 40 40 40 39 38 38
37 37 36 36 35 34 34 33 33 33 32 32 31 31 30 30
30 29 28 28 28 26 26 26 26 25 26 26 31 31 31 30
24 22 25 22 29 28 28 27 27 25 27 25 25 24 21 24
25 26 26 26 27 28 28 28 29 29 29 29 30 30 30 31
31 31 31 32 32 32 33 33 33 33 33 34 34 35 35 36
0 0 0 0 0 6 51 55 43 0 0 0 7 4 0 0
6 61 61 57 20 0 0 0 0 0 0 17 61 55 46 45
45 45 45 44 44 44 43 42 41 41 41 41 40 40 40 39
39 38 37 37 36 36 36 35 35 34 34 33 33 32 32 31
31 30 30 30 29 28 27 27 27 26 26 28 31 32 32 31
25 22 28 22 30 30 29 29 27 27 28 26 26 25 20 26
27 29 29 29 29 30 29 30 30 30 31 30 31 31 31 32
32 32 33 33 34 34 34 34 35 35 35 35 36 36 36 37
0 0 2 8 2 4 48 54 49 1 4 14 10 10 0 5
3 56 59 53 20 0 0 0 0 0 0 12 60 54 45 44
44 44 44 44 43 43 43 42 42 41 41 40 40 40 39 39
38 37 37 36 36 36 35 34 34 34 34 33 33 32 32 31
31 30 30 29 29 28 28 28 27 27 27 28 32 33 32 32
25 22 29 21 30 30 29 28 28 27 28 26 26 25 21 27
27 29 28 29 29 30 29 30 30 30 31 31 31 31 31 31
32 32 32 32 33 33 33 34 34 34 35 36 36 36 36 37
0 0 1 11 5 5 49 56 58 4 17 17 0 3 0 4
1 52 60 55 22 0 3 12 5 0 0 10 58 54 44 44
44 44 44 44 43 43 43 42 41 41 41 40 40 40 39 39
38 37 37 37 36 36 35 35 34 34 34 33 32 32 32 31
31 30 29 29 29 28 27 27 27 27 27 28 32 33 32 32
26 23 29 22 31 30 29 29 28 27 29 26 26 25 21 27
27 29 29 29 30 30 30 30 30 30 31 30 31 31 31 32
32 32 32 33 33 33 34 34 35 35 35 36 36 35 36 35
4 0 0 2 0 6 50 56 61 11 17 9 0 4 0 2
4 48 62 57 23 0 11 15 9 0 0 9 58 54 44 44
44 44 43 43 43 42 42 42 41 40 41 41 40 40 39 39
38 38 37 36 36 35 35 35 35 34 34 34 33 33 33 32
31 30 30 30 29 28 27 27 27 27 28 29 32 33 32 33
27 23 30 22 30 29 30 29 28 28 29 26 26 25 22 27
27 29 29 30 30 30 30 30 30 30 30 30 31 32 32 32
32 33 33 34 34 34 34 34 34 34 34 35 36 35 37 37
15 9 2 0 0 7 48 52 64 22 13 6 1 0 0 2
3 41 59 56 24 0 3 8 7 1 0 8 57 53 44 44
43 44 43 43 43 42 42 41 41 41 40 39 39 38 38 38
37 37 37 36 37 36 35 35 34 34 34 33 33 33 33 32
31 30 30 30 29 28 28 26 27 26 27 28 32 33 32 32
28 22 29 23 29 29 30 29 29 28 29 26 26 26 22 27
27 29 29 30 30 31 30 30 31 31 30 31 31 31 31 32
33 32 33 33 33 33 33 33 34 35 35 37 36 36 37 37
57 50 46 43 31 30 46 43 58 24 14 3 4 1 0 0
2 35 58 54 26 0 0 4 12 7 0 7 56 52 43 44
44 43 43 42 42 42 41 41 41 40 40 40 39 39 39 38
38 37 37 37 36 35 35 35 34 34 33 34 34 32 32 31
30 31 30 29 29 28 26 26 27 27 27 27 31 33 33 33
28 23 30 25 27 30 30 29 28 28 27 26 26 26 22 27
26 29 30 30 30 30 30 31 32 31 31 31 32 32 32 32
32 32 33 33 33 34 34 34 34 34 36 36 36 36 37 37
41 46 54 58 59 60 50 38 49 29 20 17 21 22 20 22
22 37 51 58 30 0 0 7 9 8 0 6 55 52 43 43
43 43 42 42 42 42 42 41 41 41 40 40 40 39 38 38
38 37 37 36 36 36 35 35 34 33 31 32 31 30 29 28
28 29 30 28 27 28 27 26 25 26 26 26 29 33 32 33
28 22 29 28 26 31 30 29 29 28 26 27 26 26 23 27
26 27 29 29 30 30 31 31 31 31 32 31 32 32 32 32
32 33 33 33 34 34 35 35 35 36 36 36 37 37 37 37
23 26 30 32 38 44 44 37 42 40 40 40 43 41 39 41
39 37 39 57 31 0 0 5 5 8 8 10 54 52 43 43
43 43 43 42 42 42 41 40 40 39 40 39 39 39 39 38
38 37 38 37 36 36 35 32 32 31 31 31 31 32 30 27
28 30 28 29 27 26 26 23 24 23 23 26 29 32 32 33
29 22 29 30 25 31 30 29 29 28 26 27 27 27 23 27
25 28 31 31 31 31 31 31 30 30 30 31 31 33 32 33
33 33 34 34 34 34 36 35 35 35 36 37 37 37 37 37
21 21 22 22 21 21 22 24 27 28 29 27 29 30 32 33
35 35 35 46 43 33 28 22 15 14 13 25 54 50 42 43
43 43 42 42 42 42 42 40 41 40 40 39 39 39 39 38
38 37 37 37 36 36 34 34 33 35 33 32 30 29 27 28
26 27 28 25 23 22 24 23 16 16 22 25 26 27 29 30
27 20 26 28 22 31 30 29 29 30 28 26 27 26 23 26
27 30 31 31 31 31 30 31 31 31 32 32 33 33 33 33
33 33 33 33 34 35 34 35 36 35 36 37 37 37 37 37
20 21 21 21 21 21 21 20 20 21 21 22 22 23 27 32
36 41 37 32 33 35 38 39 42 44 43 42 51 48 43 44
43 43 43 43 42 42 41 41 40 40 40 40 40 39 39 39
38 37 37 37 36 35 35 35 34 33 28 27 28 26 27 25
23 23 20 17 14 15 18 15 17 16 14 14 17 21 21 21
21 18 23 29 21 29 28 29 29 28 26 27 27 27 22 25
25 29 30 31 31 32 32 32 32 32 33 33 33 34 33 33
33 33 34 34 35 35 35 36 36 36 37 37 37 37 37 38
33 30 26 24 23 23 20 20 20 20 20 20 20 20 21 21
20 21 22 22 23 24 27 31 35 37 40 41 44 44 44 43
43 42 43 42 42 41 41 41 41 41 40 40 40 40 39 39
39 38 37 36 36 35 35 35 33 27 21 21 20 19 20 20
18 14 16 17 16 13 6 4 5 6 2 2 2 3 3 4
3 6 10 15 15 19 24 27 27 27 27 27 24 23 20 26
28 31 31 30 32 32 32 32 33 32 33 33 34 35 33 34
34 34 35 34 35 35 35 36 36 37 37 37 38 38 38 37
47 47 40 40 39 40 40 34 29 28 16 17 18 19 21 20
21 21 21 20 20 20 20 19 20 23 27 30 35 40 43 44
44 44 44 43 42 42 41 41 41 40 41 40 40 40 40 39
38 38 37 36 35 32 33 32 29 22 20 19 15 5 5 7
7 9 4 7 4 3 1 0 0 0 0 0 0 0 0 0
0 2 3 6 6 10 13 17 21 25 26 28 26 27 26 25
28 32 32 32 33 33 33 33 33 33 33 34 34 35 34 34
34 35 35 35 35 36 36 37 36 37 37 37 38 38 38 38
25 27 29 29 31 32 34 45 36 49 49 43 36 33 39 37
35 33 30 27 20 19 19 19 19 19 18 19 20 20 23 25
28 33 37 39 42 42 41 41 41 41 41 40 40 39 38 39
38 36 34 32 30 29 29 22 19 13 4 1 1 0 0 0
0 1 2 0 0 0 0 0 0 0 0 0 0 0 0 0
0 0 0 0 2 5 5 10 15 17 22 25 28 27 28 27
27 31 32 32 32 33 34 33 33 33 34 34 34 36 34 35
35 35 36 36 36 36 36 37 37 37 37 38 39 38 38 38
26 24 25 24 23 23 23 26 29 44 42 32 37 32 37 37
40 44 64 64 33 25 21 21 21 20 19 19 20 18 19 20
19 20 20 20 21 25 37 42 41 41 41 40 39 39 37 32
30 28 25 25 23 15 18 11 4 0 1 0 0 0 0 0
0 0 0 0 0 0 0 0 0 0 0 0 0 0 0 0
0 0 0 0 1 1 6 7 10 12 16 20 23 26 27 27
28 31 31 32 34 34 34 34 34 34 34 35 35 36 35 35
36 36 36 36 36 36 37 37 37 37 37 37 37 37 37 37
24 25 25 24 24 21 20 22 24 40 28 0 0 3 39 39
42 44 60 64 58 55 51 46 51 47 42 38 24 23 20 20
18 19 20 17 11 16 33 42 42 41 41 39 39 31 21 10
9 3 2 4 4 8 5 5 4 0 0 0 0 0 0 0
0 0 0 0 0 0 0 0 0 0 0 0 0 0 0 0
0 0 0 0 0 0 0 3 7 5 14 17 22 23 22 23
29 30 30 30 33 34 34 34 34 35 35 35 35 37 36 36
36 36 36 37 38 36 37 36 37 38 37 37 37 38 38 38
25 24 26 25 24 22 23 23 23 39 29 0 0 3 35 38
39 43 56 61 62 63 61 52 59 60 57 54 33 35 39 37
28 24 21 19 16 18 32 42 41 41 41 36 25 14 3 3
0 2 2 0 0 0 1 0 0 0 0 0 0 0 0 0
0 0 0 0 0 0 0 0 0 0 0 0 0 0 0 0
0 0 0 0 0 0 0 0 1 5 9 14 17 21 22 22
25 29 30 31 34 35 35 35 35 35 35 35 35 36 35 35
35 35 36 37 37 38 37 37 37 38 37 38 38 38 37 37
31 28 27 25 22 22 26 23 24 44 31 0 0 2 13 8
7 17 53 58 58 59 53 51 51 58 59 58 40 44 49 50
43 52 50 42 18 18 32 41 41 40 37 20 11 9 10 5
3 0 0 0 0 0 0 0 0 0 0 0 0 0 0 0
0 0 0 0 0 0 0 0 0 0 0 0 0 0 0 0
0 0 0 0 0 0 0 1 0 0 4 8 11 13 20 22
25 28 31 34 34 35 35 35 35 36 35 35 35 35 35 35
36 36 36 36 38 37 37 37 37 37 38 37 38 37 37 37
15 12 17 7 5 6 17 14 17 44 31 0 0 6 17 5
1 8 56 56 21 15 27 24 32 41 47 54 44 46 51 53
52 57 57 55 22 20 34 43 42 41 27 16 9 17 10 3
0 0 0 0 0 0 0 0 0 0 0 0 0 0 0 0
0 0 0 0 0 0 0 0 0 0 0 0 0 0 0 0
0 0 0 0 0 0 0 0 0 0 0 3 7 10 14 20
19 21 31 35 34 35 36 35 35 35 35 35 36 35 36 36
37 36 37 36 38 38 37 37 37 37 38 38 37 37 37 37
0 0 0 0 0 0 1 3 3 42 32 1 10 12 46 19
0 10 55 57 17 3 5 0 0 5 2 32 46 48 52 53
55 57 58 57 27 20 35 44 43 39 20 14 17 8 1 0
0 0 0 0 0 0 0 0 0 0 0 0 0 0 0 0
0 0 0 0 0 0 0 0 0 0 0 0 0 0 0 0
0 0 0 0 0 0 0 0 0 0 0 0 6 6 7 18
25 28 22 28 34 35 35 36 36 36 35 35 35 36 36 36
36 36 37 37 38 38 37 38 37 37 38 38 38 37 38 38
8 1 4 0 0 0 0 0 2 43 34 5 19 25 41 33
14 5 56 58 17 0 0 0 2 18 9 33 45 47 48 51
54 55 56 55 29 20 35 47 41 38 25 23 9 0 0 0
0 0 0 0 0 0 0 0 0 0 0 0 0 0 0 0
0 0 0 0 0 0 0 0 0 0 0 0 0 0 0 0
0 0 0 0 0 0 0 0 0 0 0 0 1 4 11 14
21 24 30 24 29 35 36 36 36 37 36 36 36 36 36 36
36 36 36 36 37 39 37 38 38 37 38 38 38 39 38 38
14 4 2 0 0 0 0 0 0 43 37 2 17 32 38 18
24 2 53 61 24 0 1 0 3 24 13 34 37 10 21 30
42 47 48 52 31 19 33 47 39 35 23 12 0 0 0 0
0 0 0 0 0 0 0 0 0 0 0 0 0 0 0 0
0 0 0 0 0 0 0 0 0 0 0 0 0 0 0 0
0 0 0 0 0 0 0 0 0 0 0 0 0 1 4 13
20 25 30 30 25 33 37 37 36 36 36 36 36 36 36 36
36 36 36 37 36 38 37 37 38 38 37 38 38 37 38 38
26 14 11 8 2 2 3 1 3 49 40 0 3 18 31 20
7 1 52 62 27 0 3 0 1 11 6 33 35 0 1 3
2 6 6 33 33 20 20 30 35 39 16 0 1 0 0 0
0 0 0 0 0 0 0 0 0 0 0 0 0 0 0 0
0 0 0 0 0 0 0 0 0 0 0 0 0 0 0 0
0 0 0 0 0 0 0 0 0 0 0 0 0 1 3 11
12 20 29 28 25 32 36 37 36 37 37 36 36 36 37 36
37 37 38 38 37 38 37 37 38 38 38 38 38 39 38 39
23 16 17 19 1 0 1 0 0 43 43 0 0 0 2 0
0 1 51 63 31 0 0 0 2 0 0 31 34 1 0 0
0 0 0 27 34 20 7 0 1 4 4 0 0 0 0 0
0 0 0 0 0 0 0 0 0 0 0 0 0 0 0 0
0 0 0 0 0 0 0 0 0 0 0 0 0 0 0 0
0 0 0 0 0 0 0 0 0 0 0 0 0 0 0 10
16 9 23 31 24 33 35 37 37 37 37 37 36 37 37 37
37 37 38 38 38 39 37 38 38 38 39 39 39 39 39 39
28 23 18 21 0 0 0 0 0 35 44 0 0 0 0 0
0 0 49 63 36 0 2 5 14 3 0 29 35 2 2 8
5 0 0 26 36 19 8 0 0 0 0 0 0 0 0 0
0 0 0 0 0 0 0 0 0 0 0 0 0 0 0 0
0 0 0 0 0 0 0 0 0 0 0 0 0 0 0 0
0 0 0 0 0 0 0 0 0 0 0 0 0 0 0 2
13 14 13 26 26 28 34 34 36 37 37 38 37 37 37 38
37 38 38 38 38 39 38 39 39 39 40 40 40 39 39 39
38 13 11 9 0 0 0 1 2 39 46 1 0 0 0 0
0 0 46 65 43 0 7 13 26 10 0 29 36 4 4 8
18 1 0 25 36 20 8 0 0 0 0 0 0 0 0 0
0 0 0 0 1 0 0 0 0 0 1 0 0 0 0 0
0 0 0 0 0 0 0 0 0 0 0 0 0 0 0 0
0 0 0 0 0 0 0 0 0 0 0 0 0 0 0 0
6 13 11 17 29 26 34 34 37 38 38 38 38 37 38 38
38 38 39 40 40 41 39 40 40 39 40 41 40 40 40 40
34 1 0 0 2 1 2 0 2 41 52 41 37 36 34 31
27 26 53 65 46 3 3 5 1 1 0 29 35 3 6 2
15 0 0 26 35 20 8 0 0 1 0 0 0 0 0 0
0 0 0 0 1 0 0 0 1 1 1 0 0 0 0 0
0 0 0 0 0 0 0 0 0 0 0 0 0 0 0 0
0 0 0 0 0 0 0 0 0 0 0 0 0 0 0 0
0 7 15 9 20 28 33 36 38 38 38 38 38 39 39 39
39 39 40 40 39 39 39 39 40 40 40 41 42 41 41 41
33 0 0 0 0 0 0 0 0 38 63 62 59 54 51 48
44 37 32 35 18 0 1 10 10 1 0 29 33 1 4 1
2 0 0 27 35 20 9 2 4 1 0 0 0 0 0 0
0 0 0 0 0 1 0 0 2 2 1 0 0 0 0 0
0 0 0 0 0 0 0 0 0 0 0 0 1 1 0 0
0 0 0 0 0 0 0 0 0 0 0 0 0 0 0 0
2 6 12 13 11 24 31 38 40 39 39 39 40 40 40 40
41 40 40 41 41 40 41 40 41 41 42 42 42 42 41 42
37 4 0 0 0 0 0 0 0 47 61 26 27 31 35 46
53 53 44 36 23 15 11 13 10 1 0 31 32 0 7 4
0 0 0 28 34 22 11 11 7 0 0 0 1 1 0 0
0 0 0 0 2 2 0 0 4 2 1 1 0 0 0 0
0 0 0 0 0 0 0 0 0 0 0 0 3 3 1 2
0 0 0 0 0 0 0 0 0 0 0 0 0 0 0 0
0 5 18 12 11 12 27 36 39 40 41 40 41 41 41 41
41 41 41 41 41 40 41 41 42 42 43 42 42 42 42 43
36 3 2 0 1 0 0 0 0 44 56 3 0 0 0 2
6 13 50 43 52 54 50 52 52 47 42 46 43 15 11 14
11 7 5 31 35 22 13 9 0 0 0 0 0 0 0 0
0 0 0 0 0 0 0 0 2 0 0 0 0 1 0 0
0 0 0 0 0 0 0 0 0 0 0 3 4 4 4 4
2 0 0 1 0 0 0 0 0 0 0 0 0 0 0 0
0 0 15 16 15 11 26 37 39 40 41 40 41 41 43 41
41 41 40 41 41 41 42 42 42 43 42 43 42 42 41 39
41 15 9 4 6 0 0 0 1 45 56 12 0 1 2 0
0 0 50 60 24 19 27 35 40 43 49 51 69 59 37 46
47 49 46 47 31 21 13 0 0 0 0 0 0 0 0 0
0 0 0 0 0 0 0 1 1 0 0 0 0 0 0 0
0 0 0 0 0 0 0 0 0 0 0 4 4 4 3 5
2 0 1 3 0 0 0 0 0 0 0 0 0 0 0 0
0 0 5 19 15 14 20 36 39 39 40 40 40 40 42 40
40 40 41 41 41 40 40 41 42 41 41 41 42 42 40 41
28 5 6 12 14 12 6 2 9 48 55 16 0 0 4 20
5 0 46 60 27 17 16 22 19 8 14 64 73 53 39 50
58 56 57 56 32 21 14 0 0 0 0 0 0 0 0 0
0 0 0 0 0 0 0 0 1 0 0 0 0 0 0 0
0 0 0 0 0 0 0 0 0 0 6 2 1 4 6 8
5 2 2 4 0 0 0 0 0 0 0 0 0 0 0 0
0 0 5 11 18 14 18 35 39 40 40 39 38 38 41 40
37 35 41 41 41 42 42 42 41 40 37 33 31 27 24 25
34 1 0 0 8 19 8 3 23 52 53 20 26 13 20 16
3 0 44 61 21 4 10 6 4 1 12 64 65 42 40 52
56 56 60 59 34 22 23 17 5 0 0 0 0 0 0 0
0 0 0 0 0 0 0 0 2 0 1 0 0 0 0 0
0 0 0 0 0 0 0 0 0 0 3 2 2 3 7 5
5 5 7 6 3 1 0 0 0 0 0 0 0 0 0 0
0 0 6 8 14 15 17 33 40 39 39 39 38 39 40 34
9 30 41 40 36 33 30 27 23 22 22 21 23 24 24 23
40 2 0 0 2 9 4 11 30 57 52 21 33 19 15 17
10 0 42 60 16 0 6 0 0 0 11 62 58 19 7 16
18 21 26 43 35 22 28 39 6 0 0 0 0 0 0 0
0 0 0 0 0 0 0 0 2 0 0 0 0 0 0 0
0 0 0 0 0 0 0 0 0 0 1 3 1 4 4 6
3 7 9 3 1 0 0 0 0 3 0 0 0 0 0 0
0 0 0 3 7 15 12 31 35 33 33 40 39 38 28 8
21 27 24 23 23 22 23 24 25 27 28 28 29 31 31 30
49 3 0 5 21 21 18 21 42 62 52 10 9 2 10 33
18 0 42 57 15 0 0 1 0 0 10 60 60 16 0 1
0 0 0 26 37 21 27 30 1 0 0 0 0 0 0 0
0 0 0 0 0 0 0 0 0 0 0 0 0 0 0 0
0 0 0 0 0 0 0 0 0 0 0 0 0 1 6 7
13 13 14 8 4 1 0 0 9 19 0 0 0 0 0 0
0 1 3 1 3 10 12 32 33 25 21 27 24 17 11 18
25 26 27 28 28 29 31 32 32 34 35 36 36 37 36 33
49 3 0 5 34 36 49 53 42 56 60 42 34 34 34 25
10 0 45 57 16 17 14 0 0 0 4 57 61 14 0 0
0 2 4 23 38 21 23 20 0 0 0 0 0 0 0 0
0 0 0 0 0 0 0 0 0 0 0 0 0 0 0 0
0 0 0 0 0 0 0 0 0 0 0 0 1 4 6 13
19 16 11 10 4 0 0 1 17 26 6 3 0 0 1 4
1 0 0 0 3 3 10 22 23 22 22 25 14 22 17 30
32 32 33 34 35 35 35 36 37 37 38 38 38 38 37 29
49 4 0 3 29 31 45 45 6 31 61 51 21 44 56 32
6 0 48 62 19 28 15 0 0 0 2 49 55 12 0 0
0 26 34 34 40 33 27 5 0 0 0 0 0 0 0 0
0 0 0 0 1 0 0 0 0 0 0 0 0 0 0 0
0 0 0 0 0 0 0 0 0 0 0 0 1 9 9 20
34 20 21 18 7 1 1 5 18 27 15 10 0 0 0 0
1 0 0 0 0 1 11 27 29 31 30 20 25 35 21 33
36 36 34 33 37 38 39 39 39 32 26 32 35 34 35 28
49 4 0 7 45 45 38 30 7 16 57 49 13 34 51 25
10 0 46 64 22 10 16 1 0 0 1 45 52 11 0 0
0 21 32 31 34 28 20 1 0 0 0 0 0 0 0 0
0 0 0 0 1 0 0 0 0 0 0 0 0 0 0 0
0 0 0 0 0 0 0 0 0 0 0 0 1 10 13 26
43 23 19 14 5 5 12 14 15 30 24 23 7 0 0 0
0 0 0 0 0 1 15 32 35 36 31 22 38 37 31 5
7 7 2 12 22 40 33 28 27 5 3 0 2 2 7 25
53 17 10 8 24 52 47 42 18 10 52 37 6 18 47 11
10 0 46 65 23 0 5 0 0 0 2 47 52 9 1 2
0 6 12 20 29 25 12 2 0 0 0 0 0 0 0 0
0 0 0 0 1 0 0 0 0 0 0 0 0 0 0 0
0 0 0 0 0 0 1 2 0 1 1 3 2 6 19 40
40 14 9 10 10 17 21 12 14 33 42 44 19 1 0 0
0 0 0 0 0 0 26 37 36 35 23 27 16 28 40 4
0 0 0 4 12 13 2 0 0 0 5 0 0 0 0 17
54 45 53 45 22 17 39 49 39 12 25 32 12 7 36 4
2 0 44 62 23 0 0 0 0 0 3 50 54 9 1 5
0 0 0 8 26 20 4 1 0 0 0 0 0 0 0 0
0 0 0 0 0 0 0 1 0 0 0 0 0 1 0 1
4 1 0 0 1 0 3 3 3 5 6 9 2 5 18 22
23 10 9 15 20 16 5 12 20 50 56 56 39 13 0 0
0 0 0 0 0 4 33 38 38 25 8 0 0 2 37 5
0 0 0 0 0 0 0 0 0 0 11 7 0 0 0 14
58 56 52 36 54 30 3 6 3 0 0 4 27 14 9 1
17 14 46 59 21 0 0 0 0 0 5 53 53 8 0 5
8 0 0 11 33 28 9 2 0 0 0 0 0 0 0 0
0 0 0 1 0 0 0 1 0 0 0 0 0 0 0 0
0 4 2 1 2 1 5 9 3 5 19 12 6 16 15 12
19 21 18 17 11 6 6 26 48 56 59 62 54 34 1 0
0 0 0 0 0 7 38 39 36 6 17 35 15 3 4 0
0 0 0 0 0 0 0 0 2 0 0 0 0 0 0 17
64 62 53 14 54 59 23 0 0 1 1 0 0 2 13 3
46 52 54 53 35 22 19 13 10 5 10 54 53 9 0 0
12 1 0 10 42 28 12 3 0 0 0 0 0 0 0 0
0 0 0 4 0 0 0 0 2 0 0 0 0 0 0 0
2 1 7 4 1 4 8 6 5 19 23 13 19 30 28 22
35 31 16 13 13 12 20 23 32 52 59 64 59 46 7 0
0 0 0 0 0 19 40 39 30 16 38 24 26 39 39 37
37 37 37 36 19 29 20 0 3 0 0 0 0 0 0 26
68 67 60 9 49 60 17 3 0 2 4 0 8 24 51 33
51 59 59 54 54 57 50 36 48 43 38 45 45 21 1 0
15 11 5 7 43 30 17 3 0 0 0 0 0 0 0 0
0 0 0 4 0 0 3 5 1 2 3 2 0 0 0 0
0 2 9 7 3 4 6 9 10 15 16 16 23 24 19 21
4 8 17 30 43 35 36 25 28 48 63 63 52 25 3 0
0 0 0 0 0 27 38 35 11 20 22 37 41 41 41 41
41 41 41 41 38 10 5 0 2 0 4 14 15 14 23 34
62 65 63 14 38 61 18 0 0 5 40 35 50 48 60 59
58 59 61 61 44 22 17 12 16 20 18 32 43 41 37 29
31 33 26 24 47 22 11 5 0 0 0 0 0 0 0 0
0 0 0 3 3 4 4 10 2 3 8 2 1 0 0 0
0 4 9 4 2 1 2 3 4 17 36 46 43 43 64 46
0 0 0 0 4 18 32 37 34 51 64 56 32 6 0 0
0 0 0 0 3 35 39 15 29 41 41 41 41 41 41 41
42 41 41 40 15 0 0 3 0 0 12 42 40 40 38 36
12 15 51 23 30 63 49 24 16 26 53 57 51 37 47 56
39 38 44 52 34 0 0 0 1 21 12 30 43 39 29 30
39 46 50 51 50 29 6 5 0 0 0 0 0 0 0 0
0 0 0 1 5 3 5 11 1 6 13 3 3 0 2 1
1 1 5 1 3 1 2 7 16 34 42 37 26 21 24 9
0 0 0 0 0 0 0 21 44 55 59 44 16 6 1 0
0 0 0 0 17 39 25 16 41 41 41 42 41 41 41 41
41 42 41 41 14 0 0 22 0 0 10 42 41 40 40 38
1 1 40 45 28 62 59 59 57 57 57 55 40 7 14 25
8 0 0 21 38 0 0 5 4 13 17 36 44 36 5 1
6 13 22 52 50 32 8 5 0 0 0 0 0 0 0 0
0 0 0 0 2 3 2 5 2 2 10 4 2 0 6 1
0 0 2 0 3 2 5 15 15 21 24 39 30 20 19 18
1 0 0 0 0 0 0 0 28 67 51 33 26 27 16 0
0 0 0 4 33 32 10 39 41 41 41 41 41 41 41 41
41 41 41 41 17 0 0 5 0 0 8 42 41 41 40 39
5 11 42 51 22 60 59 60 61 60 56 50 34 5 0 2
5 0 0 18 40 1 4 35 36 18 10 37 46 34 2 4
24 27 25 52 46 31 13 7 0 0 0 0 0 0 0 0
0 0 0 0 0 0 0 2 1 0 4 2 0 0 1 0
0 0 1 2 8 7 10 56 77 95 105 118 109 72 65 48
0 2 1 0 0 0 0 0 3 61 43 36 20 6 1 0
0 0 2 20 38 12 33 41 41 41 41 42 42 42 42 42
42 41 41 40 16 0 0 0 0 0 6 42 42 41 41 40
11 14 38 55 13 60 62 62 62 58 24 17 15 5 2 3
19 0 0 17 41 1 24 41 29 4 0 37 49 33 0 4
16 38 39 52 41 28 27 4 0 0 0 0 0 0 0 0
0 0 0 0 0 0 0 0 1 0 1 1 0 0 1 0
0 2 5 17 22 16 20 49 95 119 127 127 118 75 63 42
0 1 1 0 0 0 0 0 0 36 36 7 0 0 0 0
0 1 18 36 34 15 41 41 41 42 42 41 42 41 40 40
40 39 34 32 14 0 0 1 0 2 4 41 41 41 41 41
3 11 27 54 6 38 44 46 49 52 49 50 47 45 46 41
39 1 0 16 41 7 8 45 35 1 0 39 52 35 0 1
3 12 34 54 39 29 31 16 0 0 0 0 0 0 0 0
0 0 1 3 0 2 3 0 0 0 0 0 0 0 0 0
2 15 21 38 45 54 65 88 118 131 134 134 115 66 53 43
0 0 0 0 0 0 0 0 0 7 7 0 0 0 0 1
1 1 33 40 24 25 40 40 39 40 41 40 41 42 42 41
25 6 2 1 0 0 0 0 1 2 3 40 41 41 43 42
3 21 31 55 5 0 0 0 1 4 29 39 26 10 12 15
12 2 0 17 41 1 1 29 19 9 2 40 53 37 0 0
0 1 26 56 41 30 30 26 1 0 0 0 0 0 0 0
0 0 8 7 2 9 2 1 0 0 0 0 2 1 2 3
16 38 56 76 87 98 115 128 134 138 137 136 109 52 38 39
0 0 0 0 0 0 0 0 3 4 0 0 0 0 0 2
4 2 37 41 22 28 42 40 41 41 42 42 42 42 42 41
22 29 21 16 8 1 1 0 3 8 6 31 41 41 43 42
1 17 27 55 10 0 0 0 0 0 29 44 28 0 0 0
0 0 0 14 41 0 0 0 0 7 1 38 53 35 0 0
0 0 23 57 43 30 31 36 9 0 0 0 0 0 0 0
0 3 10 11 5 5 1 2 2 0 1 1 3 3 4 8
27 72 90 123 121 129 137 139 141 141 138 137 110 58 45 30
0 0 0 0 0 0 0 0 11 3 0 0 0 0 0 2
6 6 39 41 25 26 41 41 42 42 42 42 42 42 43 41
58 66 43 26 7 0 0 0 0 1 0 13 21 41 42 42
0 2 7 50 17 0 0 0 0 0 33 51 37 0 0 0
0 0 0 13 43 1 0 0 0 0 0 36 53 33 0 0
0 0 23 58 44 28 32 39 11 0 0 0 0 0 0 0
0 1 3 5 6 6 2 5 6 2 6 6 5 5 7 15
51 87 98 123 140 144 143 139 144 144 141 138 114 66 49 16
0 0 0 0 0 0 0 0 11 43 49 1 0 0 0 1
6 12 39 41 28 23 41 41 41 42 42 42 41 42 42 41
24 19 19 2 0 0 0 0 0 1 0 22 8 13 29 41
1 0 0 43 31 5 3 5 5 6 37 57 49 2 0 0
0 0 0 12 41 0 0 0 0 0 0 35 55 34 0 0
0 0 18 54 40 27 32 28 12 0 0 0 0 0 0 0
0 3 0 5 8 6 3 9 13 11 15 11 7 4 9 30
65 87 93 115 131 137 136 141 139 144 137 138 123 75 49 4
0 0 0 0 0 0 0 2 15 80 84 18 0 0 0 0
4 15 39 40 33 19 42 41 42 42 41 41 38 36 33 30
17 6 3 0 0 0 0 0 0 0 0 6 9 2 20 43
2 0 0 36 57 41 32 41 43 45 55 58 44 2 0 0
0 0 0 11 40 0 0 0 0 0 0 34 56 35 0 0
0 0 16 53 43 27 32 32 16 0 0 0 0 0 0 0
2 11 3 9 17 19 27 22 13 15 14 10 8 3 12 44
72 88 100 113 118 119 127 138 143 143 141 137 128 82 48 0
0 0 0 0 0 0 0 9 26 95 102 59 0 0 0 0
2 21 38 41 37 17 41 40 41 42 41 25 11 10 11 10
6 1 4 0 0 0 0 0 0 0 0 6 9 3 17 43
3 3 3 28 62 41 47 48 48 53 60 45 8 0 0 0
0 0 0 9 44 7 6 8 11 16 20 42 55 37 0 0
0 0 17 58 46 25 31 32 16 0 0 0 0 0 0 1
2 8 11 23 33 52 53 15 25 26 14 8 16 11 21 50
77 94 100 88 107 122 131 142 146 143 142 141 139 92 53 0
0 0 0 0 0 0 12 8 46 98 116 96 12 0 0 0
1 29 39 40 39 17 36 34 27 21 17 9 5 5 5 5
6 5 12 9 9 0 0 0 0 0 0 5 9 4 15 42
49 54 58 64 66 27 29 34 39 46 57 50 24 18 18 15
14 12 13 22 48 43 45 46 49 53 54 52 41 28 13 9
7 4 19 56 43 25 33 34 22 0 0 0 1 2 0 0
2 21 24 39 61 53 24 16 27 26 17 19 30 21 30 49
76 95 101 115 116 117 128 141 144 144 144 142 142 110 62 3
0 0 0 0 6 15 25 8 74 105 122 114 53 0 0 0
2 25 27 21 15 6 6 6 7 9 11 12 12 13 13 13
14 10 5 5 20 0 0 0 0 0 0 5 10 6 14 42
67 72 74 75 71 16 0 0 3 8 40 58 53 54 53 51
49 49 51 52 53 50 50 52 52 52 52 51 48 47 47 45
44 40 41 49 45 41 43 41 26 0 0 0 0 0 4 1
0 36 48 50 60 45 34 47 16 24 21 31 37 29 28 47
81 104 116 128 137 135 133 136 139 143 144 143 143 134 73 17
0 0 0 5 19 42 19 32 97 116 124 119 96 12 0 0
4 14 7 8 10 11 12 14 13 14 14 14 14 14 14 13
12 4 2 6 23 0 0 0 0 2 0 4 8 12 14 37
64 67 73 73 71 29 0 0 2 6 40 61 60 59 59 59
56 59 60 56 41 34 43 47 46 46 46 46 46 47 46 46
46 45 45 45 45 44 44 42 28 0 0 0 3 0 3 1
0 29 63 71 62 54 66 62 26 16 31 44 47 41 32 48
85 101 117 131 138 142 145 146 143 143 145 141 141 142 101 45
3 0 0 11 31 36 10 80 110 124 122 120 112 57 0 0
7 16 12 13 13 13 13 13 11 9 7 6 4 2 1 9
14 12 2 11 10 0 0 0 0 13 5 5 13 17 19 35
41 37 28 23 21 9 0 0 2 7 41 61 60 58 58 58
56 58 60 35 26 28 40 47 46 46 45 45 46 46 46 46
46 46 45 45 45 44 44 41 22 0 0 4 5 0 0 0
1 14 62 81 70 71 70 31 21 24 47 56 67 59 34 57
83 97 115 133 140 140 140 142 142 143 141 140 141 141 134 97
38 5 0 14 19 13 70 103 118 125 122 119 118 96 12 0
4 16 14 10 4 3 1 0 0 0 0 0 0 0 0 12
15 13 11 9 3 0 0 0 0 3 0 5 12 10 12 35
19 26 6 0 0 0 0 0 0 6 41 53 31 32 31 29
28 31 34 25 25 28 38 47 45 40 38 36 36 34 33 32
32 30 29 29 27 26 26 23 11 0 0 5 1 0 0 0
2 3 40 67 71 73 48 25 45 64 82 77 98 90 39 63
87 81 105 124 132 136 138 140 141 142 139 136 137 139 137 124
106 70 41 30 42 77 99 103 119 117 117 121 119 109 47 0
17 15 14 5 0 0 0 0 0 0 0 0 0 0 0 15
16 14 12 16 15 17 17 20 19 20 21 24 26 26 24 26
13 26 7 0 0 0 0 0 0 3 42 43 0 2 1 0
0 7 7 19 25 28 37 46 41 16 2 2 2 1 1 1
1 0 0 0 0 0 0 0 0 0 0 1 0 0 0 0
0 0 21 35 81 90 61 46 63 66 113 99 110 102 53 77
93 98 119 129 131 134 135 137 137 140 139 136 136 137 133 128
122 113 99 91 89 93 96 99 108 113 116 121 123 116 83 9
24 14 14 2 0 0 0 0 0 0 0 0 0 0 3 16
14 14 13 47 19 24 27 33 31 27 33 27 26 25 17 18
13 27 9 0 0 0 0 0 0 1 43 45 1 3 0 4
0 7 15 22 24 27 35 46 42 22 0 0 0 0 0 1
1 1 0 0 0 0 0 0 0 0 0 0 0 0 0 0
0 0 9 66 65 88 102 110 92 74 105 117 115 102 57 80
83 96 113 130 133 132 135 132 135 137 137 133 137 136 131 129
126 116 106 97 94 91 96 111 116 121 120 126 131 120 95 40
21 13 13 0 0 0 0 0 0 0 0 0 0 0 7 15
14 14 15 31 19 24 30 43 70 56 79 81 81 31 20 43
13 26 10 0 0 0 0 0 0 1 40 45 1 3 0 3
11 20 20 22 24 26 34 45 43 27 1 0 0 1 1 2
2 2 2 2 1 2 2 2 1 1 0 0 0 0 0 0
0 0 0 39 67 73 89 107 127 121 111 115 111 107 82 80
86 105 112 125 130 131 130 129 131 134 133 134 138 136 135 130
126 118 107 99 95 89 103 126 129 124 125 136 126 111 92 43
18 14 9 0 0 0 0 0 0 0 0 0 0 0 10 16
15 16 13 29 20 26 34 52 105 75 104 102 100 32 20 87
12 26 16 5 0 0 0 0 0 0 37 44 2 1 5 17
20 20 18 21 24 26 32 45 43 31 3 0 1 1 2 2
3 3 3 3 2 2 2 2 2 1 1 0 0 0 0 0
0 0 0 3 27 70 98 120 125 123 124 112 113 114 105 94
100 112 120 126 131 132 131 131 131 135 134 133 134 134 133 131
127 119 108 98 94 87 98 128 139 125 117 106 97 98 77 32
16 14 7 0 0 0 0 0 0 0 0 0 0 0 13 15
15 18 7 27 30 34 40 40 59 42 48 44 39 32 31 49
13 26 20 15 1 0 0 0 0 0 37 43 3 0 4 17
18 19 18 21 24 25 31 44 43 34 6 0 1 1 2 2
2 3 2 2 3 3 2 2 2 1 0 0 0 0 0 1
0 0 0 0 8 59 108 127 131 125 129 103 109 112 106 105
112 111 119 121 129 131 130 130 130 132 133 134 132 134 133 129
125 118 108 97 92 85 93 118 120 105 76 39 81 74 52 32
15 14 3 0 0 0 0 0 0 0 0 0 0 1 15 15
15 19 1 10 36 40 42 28 28 26 26 21 23 24 26 26
10 24 23 9 0 0 0 0 0 0 37 40 4 0 2 17
19 21 18 20 24 26 30 43 43 36 9 0 1 1 2 1
2 2 2 3 3 2 2 3 2 1 1 0 0 0 0 0
0 0 0 0 0 27 112 133 137 136 128 89 103 103 105 103
102 109 117 124 133 132 131 134 132 134 134 136 134 134 131 130
126 119 108 96 93 91 78 100 82 81 84 67 70 49 50 24
14 14 1 0 0 0 0 0 0 0 0 0 0 4 16 15
17 16 0 12 30 37 42 29 29 22 26 19 19 21 28 27
9 21 21 8 6 4 2 1 1 1 39 40 7 0 1 18
19 19 19 20 24 26 29 42 44 37 11 1 1 1 1 2
2 2 3 3 2 3 2 2 2 2 1 0 0 1 1 0
0 0 1 1 0 0 31 85 112 117 91 57 100 100 104 101
101 106 117 122 133 129 129 133 133 134 136 136 135 133 133 131
125 118 109 98 92 99 93 84 83 109 97 60 72 57 47 19
15 11 0 0 0 0 0 0 0 0 0 0 0 8 16 15
17 9 0 2 5 22 42 29 28 17 19 20 20 23 30 28
6 18 30 42 44 43 39 38 39 39 49 43 9 0 2 17
18 20 18 19 22 24 28 41 43 37 14 0 1 1 0 1
2 1 2 2 2 2 2 1 1 1 0 0 0 0 0 0
0 2 3 2 1 0 0 24 71 79 48 58 92 94 94 97
100 97 110 122 129 130 127 131 133 134 134 133 134 132 133 130
125 119 111 99 95 107 111 111 113 119 93 65 68 56 42 17
14 8 0 0 0 0 0 0 0 0 0 0 0 11 15 13
15 5 0 1 1 25 38 29 27 16 22 21 20 23 29 29
5 17 31 47 51 48 43 43 43 39 33 39 11 0 3 18
18 19 18 18 22 23 27 39 43 38 17 1 2 2 2 1
2 1 1 2 2 1 2 2 2 1 1 1 0 0 0 0
0 0 0 0 1 2 11 39 79 96 92 86 85 87 91 93
99 95 108 116 124 128 130 132 135 137 134 135 133 129 134 127
126 121 113 103 101 111 110 109 112 113 89 63 61 54 35 16
15 5 0 0 0 0 0 0 0 0 0 0 0 14 16 14
16 3 0 11 12 34 38 31 25 15 22 19 19 24 28 28
6 21 30 48 49 38 19 9 5 1 0 26 15 0 3 17
18 19 18 18 22 24 26 39 43 38 18 0 1 1 2 1
1 2 2 2 2 1 2 2 1 1 1 1 0 0 0 0
0 0 0 3 21 34 32 71 98 97 91 87 84 87 91 94
97 98 109 104 117 124 131 131 135 135 134 136 136 135 134 130
127 121 116 106 107 115 110 106 109 112 90 68 58 55 29 15
15 2 0 0 0 0 0 0 0 0 0 0 2 16 14 16
15 0 5 20 12 41 35 32 25 12 16 20 18 24 27 27
19 26 13 15 17 19 4 0 0 0 0 23 27 11 11 17
18 18 18 18 23 24 26 38 43 39 20 0 2 2 2 2
2 2 2 2 2 2 2 1 2 1 1 2 0 0 0 0
0 0 0 7 25 28 41 68 103 103 94 87 82 85 90 94
101 106 106 117 120 125 128 131 133 135 136 137 134 134 134 131
128 125 119 111 113 117 113 114 115 111 106 77 65 53 24 15
14 0 0 0 0 0 0 0 0 0 0 0 6 17 15 17
12 0 9 19 11 43 34 28 13 4 11 20 19 25 28 27
26 28 15 0 2 5 0 0 0 0 0 28 50 43 32 17
17 18 19 17 22 24 26 37 42 39 22 0 2 1 2 1
2 3 2 2 2 2 2 1 1 1 1 1 0 0 0 0
0 0 0 5 20 30 31 63 101 110 100 90 80 84 94 99
101 105 106 115 119 121 124 130 132 134 133 135 136 133 132 130
127 124 120 116 114 116 117 122 122 104 90 79 67 48 19 16
10 0 0 0 0 0 0 0 0 0 0 0 10 17 15 17
9 0 5 8 17 44 33 21 11 2 11 18 17 26 27 27
34 33 26 2 3 1 0 0 0 0 2 34 39 9 7 13
16 18 18 17 21 23 25 36 42 40 24 1 1 2 2 2
2 2 2 2 2 2 2 1 2 1 1 2 1 0 0 0
0 0 0 0 4 15 32 63 105 110 107 96 85 81 92 99
103 107 108 116 122 122 125 131 132 127 136 137 137 134 134 133
130 123 122 117 112 112 121 124 93 83 82 72 61 42 18 16
7 0 0 0 0 0 0 0 0 0 0 0 14 17 17 18
6 1 41 36 28 42 33 20 8 1 11 18 17 26 27 28
40 31 19 7 6 0 0 0 0 0 0 31 35 1 0 9
16 17 18 16 21 22 25 34 41 39 25 1 1 1 1 1
2 1 2 2 2 2 2 1 1 1 2 1 1 1 0 0
0 0 0 0 8 16 39 75 107 114 110 102 88 79 87 96
104 108 111 117 119 123 127 129 133 132 135 137 136 137 135 133
130 126 122 117 107 106 110 73 59 48 56 55 56 34 16 16
3 0 0 0 0 0 0 0 0 0 0 1 17 16 17 17
2 12 84 46 29 41 33 21 9 10 18 18 19 27 28 27
33 29 14 16 10 0 0 0 0 0 0 28 36 2 0 8
16 17 17 16 20 22 25 33 41 40 26 1 1 1 1 2
1 1 1 1 1 2 1 1 1 1 1 2 1 3 9 0
0 0 0 0 3 15 43 76 107 115 112 108 94 81 82 92
101 107 110 116 119 121 127 128 130 132 132 133 131 133 135 135
132 125 120 110 101 86 61 67 81 22 25 41 57 27 17 15
1 0 0 0 0 0 0 0 0 0 0 4 17 16 18 17
0 14 60 27 36 40 33 25 20 11 22 18 21 30 30 28
18 12 10 8 8 6 7 8 13 20 25 32 35 3 0 7
15 15 17 14 19 21 24 32 41 39 26 2 1 1 1 1
2 0 1 1 1 1 1 1 1 0 1 1 0 4 24 1
0 0 0 4 25 42 59 97 112 117 117 111 101 85 78 86
96 104 108 112 117 121 123 126 129 132 130 132 131 132 132 131
129 124 115 103 86 59 63 87 86 35 41 52 52 22 17 12
0 0 0 0 0 0 0 0 0 0 0 8 17 17 18 12
0 2 19 20 40 37 33 28 20 15 21 21 24 31 31 28
37 19 16 14 16 18 21 24 28 36 43 45 38 14 6 9
15 15 16 14 18 20 22 30 39 39 26 1 0 1 1 2
2 1 1 1 1 1 1 0 1 1 1 1 0 3 35 8
0 0 0 4 29 51 76 103 112 116 116 113 106 90 77 79
90 101 107 111 115 119 122 125 125 126 129 130 128 128 127 126
124 119 107 96 88 85 89 99 91 75 71 63 45 18 17 12
5 6 6 6 7 7 6 7 7 8 7 14 18 17 18 8
0 2 9 17 47 35 33 31 18 15 20 20 25 30 31 28
34 29 29 28 31 31 33 34 36 40 42 41 38 34 31 26
16 14 15 14 17 19 22 29 39 38 26 2 0 0 0 0
1 0 0 0 0 0 0 1 0 0 0 0 0 2 35 23
2 0 0 9 26 62 86 104 112 115 114 112 108 95 81 75
82 94 101 108 112 116 119 120 121 121 123 124 124 123 121 121
118 108 100 94 99 111 106 102 108 100 83 72 37 17 17 16
16 15 15 16 16 15 16 16 16 16 17 17 18 18 20 4
0 4 8 24 46 35 34 30 18 16 20 21 26 29 29 28
21 20 19 17 16 14 12 11 10 10 9 9 12 10 4 7
11 12 13 12 17 19 21 28 38 37 26 2 0 0 0 0
0 0 0 0 0 0 0 0 0 0 0 0 0 2 35 35
13 8 14 43 48 60 88 104 109 115 114 112 107 102 90 77
79 86 96 103 110 112 116 118 120 120 120 121 119 119 118 116
112 105 99 99 103 110 110 101 96 96 83 70 31 16 16 16
16 16 17 17 17 17 17 17 16 16 16 17 16 19 21 2
0 8 9 30 45 36 35 30 18 16 20 21 29 29 29 29
0 0 0 0 1 1 0 0 1 1 3 6 19 11 0 2
9 10 11 10 15 18 21 27 38 37 27 2 0 0 0 0
0 0 0 0 0 0 0 0 0 0 0 0 0 2 35 37
27 19 33 57 69 87 93 101 106 111 113 113 107 105 97 86
79 79 84 96 102 107 111 115 117 119 119 119 115 115 114 109
104 102 95 97 101 105 106 103 95 86 70 57 31 12 17 17
18 18 18 25 27 18 17 18 17 17 19 17 12 13 17 0
0 27 31 39 44 38 36 28 17 16 16 22 29 29 30 29
0 0 0 7 8 0 0 0 0 0 5 5 18 14 0 1
9 10 12 11 15 18 20 26 36 37 27 2 0 0 0 0
0 0 0 0 0 0 0 0 0 0 0 0 0 4 39 41
23 10 45 63 75 85 93 97 104 110 113 112 109 105 101 96
84 79 78 84 94 101 107 110 114 115 115 115 116 113 109 105
102 96 93 94 95 99 94 88 77 54 51 47 25 12 22 28
31 37 53 98 102 70 66 60 38 46 44 42 39 19 1 0
25 43 21 45 48 43 59 53 43 18 27 94 69 50 64 65
1 0 1 11 10 0 0 1 2 1 5 13 18 12 0 0
2 9 12 13 15 17 19 25 36 35 26 2 0 0 0 0
1 2 3 4 6 7 9 11 13 15 18 20 22 26 42 35
1 13 57 68 79 86 90 93 103 108 112 112 112 108 103 98
92 85 77 76 82 91 97 105 108 110 110 110 111 110 107 105
100 94 91 90 89 87 81 66 47 42 62 24 23 31 76 111
117 135 147 151 151 147 134 108 38 15 13 15 17 33 33 6
102 145 33 49 50 46 103 108 95 19 29 91 97 83 99 97
5 6 7 5 3 8 11 12 13 14 11 8 11 5 0 0
4 4 12 13 14 16 19 24 35 35 31 17 16 20 22 24
26 28 30 31 32 33 33 34 33 33 33 33 33 34 43 9
0 28 63 71 79 88 90 92 100 107 113 115 112 112 107 102
95 89 83 77 76 82 88 95 101 104 105 106 108 109 107 104
98 93 86 81 83 73 66 57 48 54 52 45 42 47 77 116
117 127 137 141 150 148 135 108 32 12 14 12 10 23 25 45
123 141 28 50 45 35 84 89 64 6 4 58 67 58 71 64
14 13 6 7 15 15 16 16 17 17 17 9 5 14 0 0
8 2 10 12 13 16 18 23 35 36 36 36 35 35 37 39
38 36 35 36 35 35 34 34 34 34 34 33 34 55 17 2
1 51 70 74 82 89 94 93 99 108 113 115 114 114 109 105
98 93 88 83 80 79 84 89 93 97 101 103 105 105 105 103
100 96 85 81 79 83 81 60 50 51 49 48 60 63 71 104
120 136 148 151 151 146 132 104 29 9 11 12 10 33 0 16
75 56 24 50 32 11 11 10 1 4 3 0 7 24 35 29
12 5 10 14 16 16 17 16 18 19 22 11 7 12 6 7
4 0 4 6 10 15 17 23 35 36 36 36 33 31 37 37
36 36 36 35 36 38 33 26 28 32 32 23 52 76 31 0
12 66 78 79 85 92 94 97 99 108 114 114 116 115 112 108
104 96 91 87 86 84 84 85 88 92 97 98 102 103 104 104
102 101 100 97 97 93 76 62 47 27 28 30 56 50 45 71
107 66 110 135 133 120 97 45 11 11 8 8 16 40 10 14
52 34 40 50 27 5 0 0 0 1 0 0 0 10 30 16
4 9 13 13 15 15 15 15 24 37 36 9 3 1 0 1
0 0 2 6 9 14 16 21 34 37 36 36 35 34 35 34
34 33 31 38 61 61 14 1 1 5 8 12 61 67 12 0
37 74 83 86 87 93 94 98 102 107 116 117 117 115 114 113
109 105 100 94 90 86 84 84 84 88 93 95 96 99 101 105
106 105 104 105 101 88 71 64 38 22 20 10 40 51 52 49
50 11 15 19 13 11 14 5 13 13 17 46 71 85 93 103
100 105 103 83 34 35 1 0 0 0 0 0 0 1 24 17
8 10 10 9 9 9 8 8 29 28 19 4 0 0 0 0
0 0 0 1 7 6 9 11 19 20 18 17 16 14 13 13
15 17 27 69 76 24 0 0 0 0 0 58 109 49 0 9
62 80 88 91 90 93 95 99 103 110 112 116 118 118 113 116
116 113 107 101 96 92 87 85 85 87 86 88 89 94 98 103
102 102 104 102 92 75 66 55 27 21 18 0 2 29 84 104
105 90 27 10 14 19 18 13 18 9 59 107 104 117 113 103
98 109 110 93 31 39 0 0 0 0 0 0 0 0 14 26
8 9 10 12 12 10 3 11 52 21 16 11 0 0 0 0
0 0 0 0 2 0 0 0 0 0 0 0 1 4 6 5
12 22 54 81 40 2 0 0 0 0 18 90 118 22 0 44
74 84 93 94 92 95 97 98 105 111 114 116 117 119 117 114
115 118 116 108 102 93 88 83 82 82 81 81 80 85 90 95
97 95 96 91 77 65 59 44 25 22 19 0 0 0 2 6
13 37 69 75 49 31 34 38 62 83 114 117 105 114 112 106
100 107 108 87 4 2 0 0 0 2 0 4 5 5 10 18
32 36 40 42 46 34 1 50 45 3 8 15 7 0 0 0
0 0 0 0 1 0 1 0 0 0 0 0 6 12 15 9
11 31 70 58 17 0 0 0 0 7 71 104 77 2 12 71
83 90 95 97 93 96 97 100 104 111 116 116 116 119 118 118
118 120 120 112 104 98 88 82 76 75 74 72 73 71 77 86
89 86 83 76 64 62 50 29 26 23 20 11 15 18 19 18
16 12 12 31 65 66 67 85 77 48 47 62 71 78 77 77
78 79 80 67 30 29 30 25 21 17 6 13 10 8 5 1
57 58 58 58 59 55 14 59 12 0 2 13 19 7 0 0
0 0 0 0 1 2 5 4 3 3 1 1 5 13 16 14
7 46 70 26 0 3 14 4 0 36 75 108 57 3 33 83
89 94 96 98 96 95 98 101 103 111 116 118 115 118 118 121
119 115 115 113 107 99 87 76 66 63 63 63 59 60 59 61
66 67 65 56 50 45 38 30 23 24 28 36 46 58 76 83
94 86 67 58 66 95 102 101 123 141 148 151 145 123 89 77
63 48 43 37 29 24 25 21 16 10 5 5 5 4 2 0
58 57 57 57 53 47 22 34 0 0 0 7 25 4 0 0
0 0 4 5 4 3 8 8 7 6 4 4 9 19 24 19
7 59 67 15 20 36 45 18 12 57 73 133 53 12 48 92
96 98 98 99 99 94 98 101 106 109 115 119 120 116 116 116
116 110 109 108 103 98 88 75 59 46 40 39 36 35 33 29
28 28 29 44 44 22 10 39 56 56 62 75 102 131 150 152
152 136 101 83 74 74 80 95 139 152 151 131 151 138 93 69
48 37 33 27 22 18 21 18 16 11 5 2 5 2 2 1
26 22 16 11 6 2 5 21 0 3 0 5 3 0 0 0
1 5 6 13 13 12 12 11 12 14 19 23 26 25 23 11
10 62 44 17 40 48 61 60 62 71 95 137 55 19 55 100
102 103 100 100 100 100 98 102 105 109 113 117 119 120 113 114
111 108 105 100 97 92 80 65 50 34 19 11 8 5 4 4
0 0 2 41 45 26 24 44 49 66 79 77 82 102 136 153
151 117 80 77 66 68 73 95 141 152 152 143 151 142 103 76
49 42 32 27 23 20 21 19 17 12 7 2 5 2 2 1
0 0 0 0 0 0 4 16 0 5 2 0 0 0 0 0
1 3 5 9 10 10 10 11 13 16 24 30 29 19 14 2
18 67 32 18 63 85 92 67 50 80 106 118 51 29 57 104
105 104 104 102 102 103 103 100 105 109 114 117 120 120 119 112
107 105 102 97 92 84 70 59 52 43 24 12 7 6 6 17
2 0 0 39 53 44 26 48 57 58 78 78 48 52 106 135
152 116 80 71 66 65 70 94 138 152 151 119 151 144 103 74
52 41 34 27 22 20 19 19 17 11 7 1 5 4 2 1
4 0 0 0 0 1 7 17 10 12 1 0 0 0 0 0
0 0 4 5 5 4 4 5 7 11 22 29 24 3 0 0
25 69 67 70 70 95 65 78 62 87 86 88 45 38 54 109
107 106 105 104 104 104 104 102 100 108 114 117 118 118 117 115
106 98 96 94 84 74 63 59 59 60 53 38 31 27 27 32
3 2 2 46 69 49 33 43 48 67 47 52 62 67 79 50
95 114 83 70 62 57 70 93 131 152 151 112 150 143 100 71
52 39 32 26 21 18 19 19 18 11 7 1 4 3 1 0
3 10 4 1 3 3 8 14 3 4 0 0 0 0 0 0
0 0 2 2 3 3 4 5 6 11 22 30 20 1 0 0
28 92 96 95 56 51 68 83 72 65 105 113 35 42 54 111
112 108 106 106 106 105 104 105 103 104 112 117 120 117 114 114
110 103 94 87 78 68 62 61 68 78 81 74 62 56 50 34
9 18 11 45 60 40 53 27 54 62 78 74 40 76 76 42
76 78 75 73 59 59 74 95 132 151 150 112 149 145 105 75
56 41 32 25 23 18 19 20 17 12 7 1 3 3 0 0
2 8 29 7 0 0 11 15 0 1 0 0 0 0 0 0
0 0 0 2 2 3 6 7 7 10 22 29 19 9 5 3
56 52 44 52 45 66 97 72 65 74 128 120 54 64 56 108
118 110 110 110 109 107 106 106 106 103 109 115 119 120 117 113
112 106 100 90 78 71 70 75 85 88 87 80 71 63 55 33
18 40 20 35 99 56 26 37 44 68 63 51 54 74 57 50
71 60 51 42 49 71 75 91 131 151 151 110 148 147 109 76
56 42 30 24 23 17 19 21 17 13 7 2 4 3 1 0
1 0 9 11 0 1 15 8 0 0 0 0 0 2 1 0
0 0 2 9 2 5 9 10 9 15 27 34 24 22 28 85
89 89 62 79 111 94 83 42 52 77 98 81 53 74 58 105
122 116 115 113 110 110 109 106 106 106 108 114 119 119 117 115
114 106 99 92 81 76 78 86 95 92 87 80 71 67 57 30
53 87 26 43 80 63 31 49 21 39 52 32 33 45 52 59
72 77 43 37 62 68 69 72 106 145 150 107 146 143 102 73
58 42 26 21 20 16 19 22 18 13 8 3 4 3 1 0
0 0 0 0 4 2 0 0 0 0 0 0 0 0 2 0
0 0 8 16 3 6 9 9 17 38 41 37 33 55 98 96
85 113 103 100 128 104 80 70 74 67 115 104 48 70 66 98
122 124 119 119 114 112 109 107 107 106 107 111 116 117 116 113
110 107 101 93 85 82 89 98 99 96 88 79 75 68 64 25
50 51 25 66 72 70 35 48 41 61 48 100 89 88 104 46
32 66 69 50 61 74 75 83 94 114 119 100 145 138 104 75
55 40 27 20 17 13 17 22 19 13 8 4 4 3 0 0
2 0 0 1 8 4 1 2 4 3 0 0 0 0 0 0
0 0 10 18 4 6 9 6 15 37 40 55 88 74 70 98
106 80 84 92 122 77 36 60 51 47 102 108 60 58 66 89
126 127 126 125 122 114 112 108 106 105 108 114 116 118 114 109
108 104 97 93 86 90 99 103 101 96 87 82 76 71 73 25
65 46 53 47 62 81 31 10 38 51 30 63 70 63 72 71
73 68 88 53 67 71 62 71 105 106 94 97 129 136 106 76
52 35 26 23 16 10 14 22 19 13 9 7 4 2 0 0
4 2 2 3 7 10 10 12 12 12 2 3 0 0 0 0
0 0 8 22 12 11 12 8 15 54 59 58 91 105 79 111
87 83 66 57 93 92 60 66 62 64 93 85 61 44 77 83
127 132 127 127 126 119 114 112 108 104 108 114 119 116 114 110
104 99 94 89 88 94 105 107 104 95 90 85 78 80 77 40
86 44 39 70 50 53 47 38 46 45 14 48 71 71 109 78
54 58 56 22 66 99 85 100 110 82 87 99 73 95 106 77
54 34 31 26 16 9 15 22 19 14 10 9 4 2 0 0
11 12 9 7 10 13 13 15 20 20 5 3 2 0 0 0
0 0 12 26 34 26 19 48 79 75 60 53 91 88 81 100
116 121 89 54 84 49 70 101 68 61 95 113 66 49 84 89
111 137 134 133 129 125 118 114 109 105 106 114 118 120 115 109
105 101 98 99 103 111 115 111 103 98 93 85 82 93 78 54
75 42 71 92 74 80 42 27 18 35 19 71 66 75 104 54
17 29 43 51 49 62 54 85 80 60 60 63 55 67 70 76
54 38 33 26 17 11 16 24 19 14 11 9 5 2 0 0
5 17 14 8 7 6 5 7 8 5 1 4 7 1 1 0
0 0 0 3 21 24 66 54 63 85 67 48 87 111 95 103
115 113 64 59 73 48 73 92 68 59 101 109 59 55 74 100
96 135 142 138 135 127 123 118 111 105 103 110 118 120 114 107
104 102 104 106 110 115 117 113 106 99 92 88 93 103 71 60
81 67 62 91 80 94 70 38 23 24 25 60 56 32 49 35
46 64 60 44 62 76 84 109 112 97 93 78 48 51 78 64
54 38 31 25 19 12 18 23 19 13 10 8 5 2 0 0
0 1 2 0 0 0 0 0 0 0 0 11 12 0 10 0
0 0 0 9 68 109 109 64 78 91 64 70 91 77 57 75
77 91 48 56 37 42 59 76 69 68 69 78 52 56 70 93
99 120 146 143 138 134 128 123 114 108 103 108 117 119 111 104
105 104 108 110 115 119 118 110 104 99 96 97 105 107 68 82
118 67 74 83 60 61 75 29 12 12 18 53 83 60 94 70
56 68 59 36 108 96 83 108 92 83 112 100 81 78 41 52
50 34 29 21 19 15 19 24 21 14 11 7 5 2 0 0
0 0 0 0 0 0 0 0 0 0 0 9 9 6 17 0
0 0 11 99 120 90 84 41 27 50 49 26 61 87 100 110
112 126 72 85 61 64 70 54 33 61 73 125 74 68 54 45
77 104 143 145 144 135 135 127 120 111 106 108 118 118 108 104
106 109 110 116 122 123 118 110 105 101 103 105 111 105 70 88
115 77 77 72 49 70 65 34 25 27 26 34 66 71 89 71
43 64 70 36 66 60 59 85 105 96 110 130 85 84 49 58
49 34 27 20 19 15 20 24 21 13 12 6 5 2 1 0
0 0 0 0 0 0 0 0 0 0 0 2 3 3 1 0
0 13 79 80 79 59 84 92 57 90 96 59 83 103 81 100
126 118 75 90 65 82 89 79 77 101 77 112 82 51 50 60
83 92 122 148 147 144 137 131 122 114 108 109 117 120 111 106
109 111 118 124 128 126 117 109 106 106 108 109 113 101 76 85
116 56 63 85 85 88 89 49 39 26 13 25 52 80 97 79
49 79 67 23 61 50 42 54 66 72 74 76 78 59 43 66
67 50 26 20 20 15 18 24 21 14 12 4 5 2 0 0
0 0 0 0 0 0 0 0 0 0 0 0 0 0 0 0
5 68 74 113 110 104 105 112 54 84 85 51 69 116 78 86
105 117 77 46 48 66 62 42 89 93 83 93 66 49 45 65
82 91 109 141 150 146 141 136 125 118 112 110 121 124 111 107
112 118 125 133 135 129 116 111 109 110 111 112 113 94 76 80
106 78 81 104 88 110 98 57 19 49 53 44 74 48 66 47
15 33 37 29 71 89 91 90 66 60 69 98 46 38 62 67
60 55 36 23 19 13 18 23 21 15 13 3 5 2 0 0
0 0 0 0 0 0 0 0 0 0 0 0 0 0 0 7
69 98 124 122 111 95 94 107 80 62 99 81 69 112 93 84
107 113 93 70 95 109 80 81 102 83 69 78 73 78 70 62
48 67 82 127 151 149 145 139 132 125 116 114 122 126 110 106
115 123 133 136 138 127 117 112 113 113 115 115 110 80 86 99
107 48 82 99 55 52 78 77 44 50 68 37 77 53 86 91
44 60 66 43 80 84 93 95 89 94 98 107 29 11 47 67
49 60 48 24 19 14 17 23 22 14 14 3 5 1 0 0
0 0 0 0 0 0 0 0 0 0 0 0 0 0 0 47
102 125 114 103 84 88 93 107 44 36 78 54 24 72 60 50
89 65 88 73 99 94 89 93 120 103 107 104 107 92 71 46
45 68 79 100 138 149 146 145 142 134 124 116 124 129 112 109
121 131 137 139 137 127 118 113 115 118 118 117 107 71 92 92
90 34 64 87 30 0 14 62 60 48 72 42 66 67 99 103
45 68 72 54 52 59 47 97 92 74 89 109 39 51 38 34
44 46 52 35 18 15 16 22 21 15 13 3 5 1 0 0
0 0 0 0 0 0 0 0 0 0 0 0 0 0 32 93
122 132 131 81 75 43 37 55 46 50 35 50 67 90 76 48
87 78 90 82 89 93 84 111 102 107 129 120 116 106 82 55
74 75 112 63 104 132 144 144 144 144 133 122 126 131 117 112
123 135 137 138 134 124 119 118 118 121 122 115 101 64 93 80
80 32 33 44 16 0 0 12 53 46 39 38 59 70 81 57
32 72 63 28 86 107 82 85 77 52 74 88 27 67 82 50
31 63 33 37 18 14 16 22 22 15 14 3 6 2 0 0
0 0 0 0 0 0 0 0 0 0 0 0 0 6 87 102
109 84 71 98 93 75 96 109 91 52 63 88 69 83 73 91
114 72 67 69 70 50 58 105 83 123 130 130 72 40 63 64
53 88 89 79 90 112 130 142 139 140 139 128 128 135 122 115
124 133 136 137 133 124 122 119 121 123 119 101 71 44 76 48
60 39 61 67 38 26 2 0 2 22 38 39 92 108 99 94
31 55 63 52 87 81 102 107 102 81 110 118 21 72 86 53
17 72 76 72 24 15 18 21 21 14 14 2 6 2 0 0
0 0 0 0 0 0 0 0 0 0 0 0 0 38 106 95
59 77 99 108 87 83 104 107 101 61 68 96 76 71 72 91
108 62 65 86 98 57 68 91 54 59 77 50 2 0 39 41
34 73 65 76 87 98 91 134 144 141 144 137 132 134 126 118
124 131 132 131 131 124 121 121 124 125 104 66 69 69 57 75
91 57 54 39 59 58 39 19 22 2 14 32 76 124 105 104
49 92 99 60 104 83 86 83 88 94 107 120 36 31 55 51
61 47 77 70 47 14 15 22 23 15 14 2 6 2 0 0
0 0 0 0 0 0 0 0 0 0 0 0 15 65 85 86
79 116 123 101 86 60 56 66 66 32 40 51 45 54 53 69
89 51 70 98 65 28 12 22 7 20 47 47 29 20 58 68
61 81 95 72 76 112 85 107 139 148 145 145 138 137 129 123
126 130 132 129 128 126 121 120 124 110 81 55 67 58 45 59
58 63 46 35 49 56 47 43 63 38 59 36 60 125 104 97
53 95 100 65 120 98 106 95 106 104 126 97 67 70 48 35
79 38 41 77 56 15 16 22 22 15 14 2 7 3 1 0
0 0 0 0 0 0 0 4 7 0 0 0 42 67 50 82
116 104 101 76 114 109 58 87 88 52 86 73 94 73 77 57
97 74 67 72 72 46 48 78 52 48 62 76 61 44 49 46
60 67 97 77 82 109 111 95 117 140 146 147 142 139 133 126
124 129 132 127 129 127 122 122 112 86 66 25 50 45 28 41
46 56 26 27 44 44 41 35 71 62 113 98 84 104 86 86
43 76 84 57 99 88 106 115 127 116 122 97 82 66 58 36
80 57 72 79 67 25 15 22 22 15 13 3 7 3 1 0
0 0 0 0 0 0 0 2 8 0 0 6 63 79 25 92
98 93 65 128 139 116 71 69 93 76 88 88 97 63 80 88
132 80 60 84 85 88 81 111 79 44 58 77 63 46 42 43
52 63 70 67 48 71 94 74 95 85 108 137 143 139 134 127
125 130 130 129 127 124 126 117 90 73 72 54 59 65 56 64
52 63 38 39 56 55 47 28 73 71 92 98 72 115 100 82
39 54 61 69 120 88 101 129 106 91 107 88 72 74 50 86
74 83 86 56 64 53 13 21 21 15 13 3 7 2 0 0
0 0 0 0 0 0 0 0 0 0 0 33 86 58 43 66
106 86 92 117 125 123 104 72 77 86 74 88 89 48 77 86
125 134 57 94 104 101 94 122 89 53 64 60 48 36 64 45
62 96 86 68 49 57 96 35 9 36 53 101 114 126 137 132
129 131 130 132 129 127 125 98 74 79 104 61 58 83 78 42
35 45 34 43 79 78 74 61 99 96 72 121 93 111 103 90
51 82 75 79 112 94 130 134 118 101 131 87 64 48 64 107
81 67 70 60 53 69 23 20 20 15 13 3 6 3 0 0
0 0 0 0 0 0 0 0 0 0 0 59 83 49 64 53
51 118 110 106 139 110 114 101 97 90 70 85 86 50 79 99
131 122 68 90 97 115 105 98 86 43 64 55 72 46 61 76
73 80 107 111 80 83 102 78 35 37 50 78 106 104 130 133
132 129 130 129 126 127 112 81 72 80 18 16 42 63 77 40
35 46 28 46 88 95 74 63 116 102 114 125 108 105 112 81
64 88 59 83 104 90 115 134 124 104 124 71 61 44 70 100
80 124 57 44 46 49 41 18 20 15 13 4 5 3 0 0
0 0 0 0 0 0 0 0 0 0 13 53 54 86 69 35
44 98 127 116 96 112 92 77 83 105 61 70 61 31 67 87
131 117 61 86 100 105 88 106 129 58 61 91 100 86 69 119
107 87 119 107 127 98 124 127 65 71 55 49 115 104 122 134
134 126 130 128 127 124 92 80 78 42 59 54 70 60 61 46
70 90 42 54 70 90 74 62 107 94 114 129 95 83 82 88
68 87 65 83 92 88 118 120 128 101 96 80 81 40 82 89
82 99 49 49 64 62 33 18 20 15 13 4 5 3 0 0
