P2
128 120
156
19 1 0 0 2 17 57 63 54 43 44 45 48 48 48 48
56 66 57 51 46 44 42 42 42 42 42 41 42 41 41 40
40 40 39 39 39 38 38 38 37 36 36 36 35 35 34 34
33 33 32 32 32 31 30 30 29 29 28 28 27 27 26 26
26 25 25 25 25 24 24 23 22 22 22 24 27 26 26 26
20 17 16 25 25 24 24 22 22 21 22 20 19 19 16 20
22 22 22 23 23 23 23 24 24 24 25 25 25 24 25 25
25 26 26 27 27 27 27 28 29 29 29 30 30 31 31 31
28 12 0 0 0 11 51 54 31 0 0 0 1 1 0 0
22 62 59 63 61 56 47 44 43 43 42 42 42 42 41 41
40 40 39 39 39 38 38 37 37 37 36 36 35 35 34 34
33 33 33 32 32 31 30 30 29 29 29 28 28 27 27 26
27 26 26 25 24 24 23 23 22 22 22 23 27 27 27 26
21 18 19 23 25 24 24 23 23 22 22 20 20 20 17 21
23 23 24 24 23 24 24 24 24 24 24 24 24 25 26 26
26 27 27 28 27 28 28 28 28 29 29 29 30 30 30 31
27 3 0 3 4 11 48 51 32 0 0 0 11 5 0 0
14 58 55 55 39 38 42 46 53 57 58 57 52 45 40 40
40 39 39 39 39 38 38 38 38 37 37 36 35 35 34 34
33 33 32 32 32 31 30 30 30 29 29 29 29 28 28 27
27 26 26 26 25 24 24 23 23 23 24 24 27 27 28 27
21 19 20 21 26 25 24 24 24 22 23 22 21 21 17 20
23 23 24 23 24 24 24 24 25 25 24 26 26 26 26 26
26 27 28 28 27 28 28 28 29 29 30 30 31 31 31 32
15 0 0 0 1 7 48 50 35 0 0 0 8 5 0 0
9 57 53 52 17 0 4 12 21 31 39 47 56 49 41 40
40 39 39 39 39 39 38 37 37 37 36 36 36 36 35 35
34 34 33 32 32 31 31 30 30 29 29 29 29 29 28 27
28 26 26 26 25 24 24 23 23 23 23 24 28 28 28 27
21 20 23 20 26 26 25 25 23 23 24 22 21 21 18 21
22 23 24 24 25 25 25 25 26 25 25 25 26 26 26 27
27 27 28 29 28 28 29 29 29 30 30 30 31 30 31 31
0 0 0 0 0 5 46 49 38 0 0 0 5 2 0 0
5 54 55 50 17 0 0 0 0 0 0 13 55 49 40 39
40 39 39 39 39 39 38 38 37 37 37 37 36 36 35 34
33 33 33 33 32 32 31 30 30 31 30 30 29 28 29 28
28 26 25 23 21 21 20 21 23 23 23 23 28 29 29 28
22 19 23 19 26 26 25 25 25 24 25 22 22 22 17 21
23 24 25 25 25 26 25 25 26 26 26 26 27 26 27 27
28 27 28 28 28 28 30 30 30 30 30 30 31 31 32 32
0 0 1 6 1 2 42 48 44 0 3 10 7 8 0 3
2 49 54 48 18 0 0 0 0 0 0 10 54 49 40 40
40 40 39 39 39 38 38 38 37 36 36 36 35 35 35 35
34 33 33 33 32 32 32 31 31 30 30 29 29 28 29 28
28 27 25 23 25 24 22 23 22 22 22 23 27 29 28 25
17 16 22 15 23 26 27 25 25 24 25 22 22 22 18 23
23 25 25 25 26 27 26 26 26 26 27 26 26 26 26 27
28 27 28 29 29 29 29 30 30 30 31 31 32 32 32 32
0 0 1 7 4 4 44 50 52 3 15 13 0 1 0 2
0 47 53 48 19 0 1 9 4 0 0 9 53 49 39 40
39 39 39 39 39 38 38 37 37 37 37 36 36 35 35 34
34 33 33 32 32 32 32 32 31 31 31 30 30 29 29 28
28 27 25 24 23 23 22 22 22 21 21 24 28 29 26 22
22 19 24 18 26 25 26 26 25 24 26 22 23 22 18 24
24 25 25 26 26 26 26 26 26 26 26 27 27 27 28 28
28 28 28 29 29 29 29 30 30 30 31 32 32 32 31 31
2 0 0 1 0 5 45 50 55 8 14 7 0 1 0 1
2 44 56 52 20 0 8 13 7 0 0 8 52 48 40 40
39 39 39 39 38 38 38 38 38 37 37 36 36 35 35 35
35 34 34 34 33 32 32 31 32 31 31 30 30 29 29 28
29 27 28 26 25 24 24 24 24 22 21 21 28 24 23 27
23 20 25 18 26 25 26 26 25 25 26 24 24 23 19 25
24 25 26 26 26 27 27 28 28 27 27 27 27 28 28 29
29 28 29 30 30 30 30 31 31 30 31 31 32 32 32 33
13 8 1 0 0 6 43 47 58 19 12 5 1 0 0 1
1 37 54 50 21 0 3 6 5 1 0 7 52 49 40 40
39 39 39 39 38 38 38 38 38 37 37 37 36 36 36 35
35 35 34 33 33 33 32 32 31 32 32 31 32 31 30 30
29 28 27 27 25 23 24 23 23 24 22 18 23 24 24 24
19 16 22 18 21 25 25 25 26 25 26 24 25 24 20 25
24 26 26 27 27 27 27 27 27 27 26 28 28 28 29 29
29 30 30 31 29 29 30 29 30 31 32 33 32 33 33 33
52 46 42 38 28 27 42 39 53 21 10 2 2 0 0 0
0 31 53 50 24 0 0 3 11 6 0 6 51 48 39 40
40 39 39 39 39 38 38 38 38 37 37 36 36 36 35 35
35 34 34 33 33 33 33 32 32 32 32 32 31 30 30 29
29 29 27 26 24 25 25 24 22 22 23 19 16 22 23 25
22 19 25 23 25 24 23 25 26 26 24 24 25 24 21 24
24 27 27 27 27 28 28 28 28 27 28 29 29 29 29 29
29 29 29 29 30 31 31 30 31 31 32 33 33 33 34 34
38 42 50 53 54 54 46 35 45 27 17 14 18 20 18 20
20 34 47 52 27 0 0 5 7 6 0 5 50 48 40 40
39 39 39 39 39 38 38 38 38 37 37 37 37 36 35 36
35 34 34 33 34 33 32 32 32 31 31 31 31 31 30 29
28 25 25 24 24 23 22 21 24 22 22 19 15 19 22 24
23 18 24 24 23 26 22 24 25 25 24 24 25 24 20 24
24 28 28 28 28 28 28 28 28 28 28 29 28 29 28 29
29 30 30 30 31 30 31 31 31 31 32 33 33 33 33 33
21 23 27 30 35 40 41 34 38 36 36 36 39 37 35 37
35 33 36 52 28 0 0 4 4 7 8 9 50 47 39 39
39 39 39 39 39 39 39 38 38 37 38 38 37 37 36 36
35 35 34 34 34 34 34 34 32 33 32 32 31 30 30 29
21 18 16 15 15 15 14 16 13 19 21 17 12 23 26 28
25 20 25 22 18 21 24 21 26 27 26 26 25 25 22 25
25 28 28 28 29 29 28 28 28 29 29 29 29 31 30 31
31 30 31 31 31 32 32 32 32 33 34 35 34 34 35 34
19 19 20 19 19 19 20 22 24 26 26 25 27 28 30 32
33 33 33 43 40 30 25 20 14 11 12 23 51 47 40 40
40 40 40 39 39 38 39 38 37 37 37 37 37 37 37 36
36 36 36 35 34 34 33 33 33 32 31 32 31 31 28 21
21 22 18 16 14 16 13 16 17 10 17 13 13 26 23 28
24 19 23 20 15 20 18 18 21 25 25 26 26 25 23 26
25 29 29 29 28 29 28 29 29 29 29 29 30 30 30 31
31 31 31 31 32 33 33 33 33 34 34 34 34 34 34 34
17 18 18 18 18 18 19 19 18 19 19 19 19 21 25 29
33 37 33 30 30 32 35 37 39 41 40 39 47 44 40 39
39 40 39 39 39 39 38 38 38 38 38 37 37 36 36 36
35 35 34 34 34 34 33 33 33 32 32 32 30 28 23 26
22 19 19 16 13 12 11 12 14 10 15 7 17 26 26 24
18 12 14 16 12 12 12 14 15 17 23 25 26 26 23 25
24 28 28 28 28 29 30 29 30 30 30 30 30 31 31 31
31 30 31 30 32 32 32 33 33 33 34 34 34 34 34 35
29 27 24 21 21 21 18 17 17 17 18 17 18 18 19 19
19 19 20 20 20 22 24 29 31 34 36 38 40 41 40 40
40 39 40 39 39 39 38 38 38 37 37 37 37 37 37 36
36 35 35 35 35 34 33 33 33 32 31 30 30 28 26 24
18 15 14 15 15 7 4 3 7 8 6 9 14 21 16 8
7 5 8 9 4 5 10 14 16 18 18 24 25 25 23 25
26 29 29 29 29 30 30 30 30 30 30 31 31 32 31 31
31 31 32 32 33 33 33 33 33 33 34 33 34 34 34 34
42 42 36 36 36 36 36 30 26 25 14 15 16 16 18 18
19 19 19 18 17 17 17 17 18 21 24 28 32 36 39 40
40 39 39 39 39 38 38 38 38 38 38 37 37 37 37 36
35 35 35 34 34 34 33 34 33 33 32 32 29 26 18 17
19 17 16 11 5 1 1 1 0 1 2 8 7 6 1 2
3 4 10 15 8 7 5 3 8 15 18 21 24 26 24 26
26 29 29 29 30 29 30 29 30 30 30 31 31 32 31 31
31 31 32 32 32 32 32 33 33 33 34 34 34 35 34 34
22 24 26 26 27 28 30 41 32 44 44 39 33 30 35 34
32 29 27 24 18 16 17 16 17 17 16 16 18 18 20 23
25 30 34 37 39 39 38 38 38 37 37 36 37 36 37 36
36 35 35 35 35 34 34 33 33 32 32 29 23 17 18 14
12 11 8 2 1 0 0 1 0 0 1 1 0 0 0 0
1 3 3 5 3 7 11 14 8 6 11 17 22 26 25 24
27 29 30 30 29 29 30 30 31 30 31 31 31 32 31 31
31 31 32 32 32 33 34 34 34 34 34 34 34 34 34 34
22 21 22 21 20 20 20 23 26 40 39 29 32 29 33 33
36 40 58 58 30 22 19 18 19 19 17 17 17 17 17 18
17 18 17 17 19 23 34 39 38 38 38 37 37 37 36 36
35 35 35 34 34 34 34 33 33 32 29 26 20 14 9 5
2 1 0 0 0 0 0 0 0 0 0 0 0 0 0 0
0 0 0 0 0 0 0 2 7 7 7 8 19 25 25 25
27 30 30 30 30 30 30 30 30 30 31 31 31 32 32 32
32 32 32 33 33 33 33 33 33 33 33 33 34 33 34 34
21 22 21 21 21 18 18 20 20 36 25 0 0 2 35 35
37 40 55 58 53 50 46 42 46 42 38 34 21 20 17 17
16 17 18 15 9 14 31 39 39 38 37 37 37 37 36 37
36 36 36 35 35 35 34 33 33 30 27 16 6 6 3 1
0 0 0 0 0 0 0 0 0 0 0 0 0 0 0 0
0 0 0 0 0 0 0 0 3 8 7 10 12 23 26 25
27 30 30 30 31 31 31 31 32 31 32 31 32 33 32 33
33 32 33 33 33 33 34 33 34 34 33 33 33 34 34 33
21 21 23 22 21 20 19 19 20 36 26 0 0 3 32 34
35 39 51 56 57 57 56 47 54 55 53 50 30 31 35 34
25 21 18 16 15 16 29 38 38 38 38 37 37 38 38 37
37 37 36 35 34 34 34 33 31 27 14 2 2 0 0 0
1 3 4 0 0 0 0 0 0 0 0 0 0 0 0 0
0 0 0 0 0 0 0 0 0 2 8 9 11 18 28 25
28 30 31 31 31 32 31 31 31 31 32 32 32 33 32 32
32 32 33 34 34 33 33 33 33 34 33 33 33 34 33 34
28 24 24 22 19 19 23 20 20 40 28 0 0 0 10 6
6 15 48 52 54 55 48 47 48 54 55 53 35 39 44 45
39 47 46 39 16 17 29 39 38 38 38 37 44 47 44 43
39 38 37 36 36 35 34 33 30 16 1 4 3 0 0 0
0 0 0 0 0 0 0 0 0 0 0 0 0 0 0 0
0 0 0 0 0 0 0 0 0 0 3 6 12 12 28 26
28 31 31 31 32 32 32 32 33 32 32 31 32 31 31 31
32 33 32 33 34 34 34 34 33 34 34 34 34 34 34 34
12 9 14 5 3 4 14 12 14 40 28 0 0 5 15 4
0 6 50 51 19 13 25 21 29 37 43 50 40 43 46 48
48 52 53 51 20 17 30 39 39 38 38 38 46 50 47 44
43 43 45 41 40 38 36 31 18 1 4 3 0 0 1 0
0 0 0 0 0 0 0 0 0 0 0 0 0 0 0 0
0 0 0 0 0 0 0 0 0 0 0 3 9 11 26 26
30 32 32 32 32 32 32 32 31 32 32 32 32 32 32 33
33 33 33 34 34 34 33 34 33 34 34 34 33 34 34 34
0 0 0 0 0 0 0 2 2 39 27 1 8 10 42 16
0 9 51 52 15 3 5 0 0 3 1 29 42 44 47 49
51 52 53 52 24 18 34 42 41 40 40 38 45 49 48 45
46 47 50 42 38 38 31 20 4 2 0 0 0 0 0 0
0 0 0 0 0 0 0 0 1 3 6 6 2 0 0 0
0 0 0 0 0 0 0 0 0 1 0 0 3 9 22 25
29 31 31 31 31 32 32 33 33 33 32 33 33 33 33 33
33 33 33 33 33 34 34 34 34 34 35 34 34 34 35 34
7 0 2 0 0 0 0 0 1 39 31 4 17 22 37 31
13 4 51 53 15 0 0 0 1 15 7 30 42 43 44 47
50 51 51 51 27 18 33 44 39 40 42 43 43 12 18 34
42 46 47 40 10 7 12 7 1 2 0 0 0 0 0 0
1 1 2 0 0 0 2 8 19 27 34 33 29 18 8 2
0 0 0 0 0 0 0 0 0 0 1 0 0 4 18 25
29 30 32 32 33 33 34 33 33 33 33 32 33 33 33 33
33 34 34 34 34 36 34 35 34 34 34 34 35 35 35 35
13 2 1 0 0 0 0 0 0 40 33 2 15 29 34 15
21 2 48 56 21 0 0 0 3 21 12 32 33 9 19 27
38 43 44 48 28 17 32 45 39 36 39 48 47 3 0 8
17 17 20 30 3 0 0 0 1 0 0 0 0 0 0 2
3 1 3 0 0 1 7 17 27 40 52 57 55 51 40 29
16 3 0 0 3 0 0 0 0 0 0 0 0 0 14 25
30 30 33 33 33 33 34 33 34 34 33 33 33 33 33 33
34 33 33 33 33 35 34 34 34 34 34 35 35 35 35 35
24 13 10 7 1 2 2 0 2 45 37 0 3 16 29 18
6 1 47 56 25 0 2 0 1 9 5 29 32 0 0 2
2 6 6 31 31 19 21 28 36 43 45 50 49 6 0 4
10 14 14 28 6 0 0 0 0 0 0 0 0 0 0 0
0 1 1 4 5 7 17 18 25 33 45 54 62 68 68 45
25 14 5 1 1 2 0 0 0 0 0 1 0 0 4 21
31 31 33 33 34 33 34 34 34 33 33 33 33 33 33 33
34 34 34 35 34 36 34 35 35 34 35 35 35 35 35 35
21 14 15 16 1 0 1 0 0 40 39 0 0 0 2 0
0 0 47 58 28 0 0 0 2 0 0 29 32 1 0 0
0 0 0 24 31 19 7 0 1 6 14 23 35 9 0 1
3 4 7 29 7 0 0 0 0 0 0 0 0 0 1 0
0 1 4 7 9 8 13 19 23 31 44 63 71 71 69 58
44 35 17 3 0 0 0 0 0 0 0 0 0 0 0 9
26 31 34 34 34 34 35 34 34 33 34 34 34 34 35 34
34 34 34 35 35 35 34 35 35 35 35 36 36 36 36 36
25 21 15 19 0 0 0 0 0 32 40 0 0 0 0 0
0 0 45 59 33 0 2 4 13 3 0 27 31 2 2 7
4 0 0 25 34 18 7 0 0 0 0 0 9 10 0 0
0 0 6 18 4 0 2 0 0 0 0 0 0 0 2 0
0 0 2 9 22 35 46 56 54 52 48 61 77 80 82 75
64 47 37 15 4 0 0 1 0 0 0 0 0 0 0 3
14 27 34 34 34 33 35 34 34 34 34 35 34 34 34 34
34 34 34 35 35 36 36 35 36 36 36 36 36 36 35 35
34 10 8 7 0 0 0 0 1 35 41 1 0 0 0 0
0 0 42 59 38 0 6 11 23 8 0 28 33 3 3 7
16 0 0 24 33 18 7 0 0 0 0 0 7 9 0 0
0 1 5 9 3 0 0 0 0 0 0 0 1 0 1 0
0 5 18 45 77 90 90 89 92 83 75 68 82 90 92 87
67 50 35 22 5 2 0 0 0 0 0 0 0 0 0 0
7 16 30 34 34 33 35 34 35 34 34 34 34 35 34 34
35 35 35 36 36 36 35 36 36 36 36 36 36 36 36 36
31 0 0 0 1 0 1 0 0 36 47 36 32 32 30 27
24 23 48 59 42 1 2 4 0 0 0 25 32 1 4 2
13 0 0 23 32 18 8 0 0 2 2 0 5 8 0 0
0 0 3 10 2 0 0 0 0 0 0 0 0 0 0 0
3 27 66 84 94 103 105 105 111 111 103 91 96 96 94 92
71 68 58 42 32 10 1 0 0 0 1 0 0 0 0 0
1 14 22 25 31 33 35 34 35 34 34 34 34 35 35 35
35 35 35 35 34 35 35 35 35 36 36 36 37 36 36 35
28 0 0 0 0 0 0 0 0 32 57 56 53 49 46 43
38 33 28 30 16 0 0 6 7 0 0 24 31 0 3 0
1 0 0 22 32 17 8 1 4 6 8 0 3 9 0 0
0 1 6 3 0 0 0 0 0 0 0 0 0 0 0 0
24 74 89 95 99 100 103 107 112 118 118 113 110 105 100 98
92 92 92 78 65 45 13 0 0 0 0 0 0 0 0 0
0 2 16 29 28 31 34 34 34 34 34 34 34 35 35 35
35 35 35 36 35 35 35 35 35 36 36 36 35 36 35 36
31 4 0 0 0 0 0 0 0 37 54 23 23 25 29 39
45 47 40 30 20 12 9 9 8 0 0 23 30 0 4 3
0 0 0 22 32 19 9 8 7 4 3 0 3 11 0 0
0 0 1 1 0 0 0 0 0 0 0 0 0 0 1 13
68 93 95 94 89 88 98 108 111 116 122 122 121 114 106 104
103 104 106 101 96 90 64 13 0 0 0 0 0 0 0 0
0 0 10 23 30 30 32 33 35 35 34 35 35 35 35 35
35 35 35 35 35 34 35 35 36 36 36 36 36 36 35 36
30 3 0 0 0 0 0 0 0 35 51 3 0 0 0 1
4 10 43 37 45 48 45 45 46 42 36 39 39 13 9 12
9 6 4 26 32 18 11 7 0 0 2 1 4 22 7 4
2 0 0 0 0 0 0 0 0 0 0 1 0 2 11 44
94 99 90 46 12 19 58 94 112 113 122 126 126 120 112 105
106 107 109 107 105 101 90 52 7 0 0 0 0 0 0 0
0 0 7 15 27 30 32 33 35 35 35 35 35 35 37 35
36 35 35 35 35 35 35 35 36 36 36 36 36 36 35 34
34 13 6 2 3 0 0 0 0 38 50 9 0 0 0 0
0 0 42 53 21 15 23 30 35 38 43 45 61 53 33 41
42 42 40 41 28 18 11 0 0 0 0 0 5 49 41 27
18 3 2 0 0 0 0 0 0 0 1 1 2 8 21 80
102 96 52 17 6 12 70 74 102 113 117 124 124 116 104 98
104 109 108 105 107 105 98 84 37 1 0 0 0 0 0 0
0 0 2 18 22 30 32 32 33 35 35 35 35 34 36 35
35 35 34 35 35 34 35 35 36 36 35 36 36 36 34 35
23 4 4 8 10 9 4 1 5 41 49 13 0 0 3 16
4 0 39 56 24 12 12 18 15 5 10 57 66 48 33 45
52 51 52 50 29 18 12 0 0 0 0 0 5 52 45 34
22 9 1 0 0 0 0 0 0 0 1 1 12 16 48 92
98 71 55 69 60 64 83 82 84 109 115 118 117 110 90 93
108 112 105 94 84 88 93 94 70 15 0 0 0 1 0 0
0 0 0 14 21 26 31 32 32 34 34 34 32 33 36 35
32 30 36 36 37 36 37 36 35 34 31 28 25 21 18 20
29 0 0 0 5 15 6 1 19 46 47 16 21 9 15 12
2 0 38 55 18 3 8 4 4 0 10 58 60 37 36 46
50 51 54 54 30 19 21 20 13 7 2 0 5 47 39 37
18 6 0 0 0 0 1 0 0 0 0 1 13 28 78 95
102 67 95 116 117 114 98 77 61 86 113 112 107 99 75 84
108 103 71 24 9 34 56 84 85 38 0 0 0 0 0 0
0 0 0 2 10 18 29 32 34 34 34 34 33 33 35 29
7 25 35 34 31 28 26 23 20 18 18 17 18 20 20 18
36 1 0 0 1 6 2 7 25 51 46 17 29 16 12 14
8 0 36 54 14 0 4 0 0 0 9 56 52 17 7 14
16 20 24 39 32 20 28 50 52 48 43 38 36 43 33 36
20 10 0 0 0 1 0 0 0 0 0 3 8 36 87 96
86 88 110 121 121 113 104 95 85 95 105 101 96 90 73 70
88 71 48 19 13 25 61 50 80 61 7 0 0 0 0 0
0 0 0 0 10 23 26 30 30 28 29 35 35 33 24 6
18 23 21 19 19 19 20 21 22 23 24 24 24 26 26 25
43 2 0 3 17 17 15 18 37 56 48 8 7 1 8 29
15 0 37 52 13 0 0 0 0 0 8 55 55 14 0 0
0 0 0 23 34 20 29 52 54 53 53 53 54 40 10 11
7 9 5 0 0 0 0 0 0 0 1 11 24 62 95 91
93 102 109 114 114 110 104 101 101 100 95 90 92 92 81 70
74 59 81 101 102 82 68 47 75 70 20 0 0 0 0 0
0 0 0 4 8 21 23 31 30 22 18 23 21 15 9 15
22 22 23 24 26 26 26 27 28 30 30 32 31 33 32 29
45 3 0 3 30 32 44 47 38 51 54 38 31 31 31 23
9 0 41 54 15 15 13 0 0 0 3 52 56 13 0 0
0 2 4 22 36 20 27 48 52 51 54 54 55 35 2 0
1 0 1 0 1 0 0 0 0 0 7 26 52 85 93 98
105 110 111 115 117 117 114 113 110 101 90 87 90 96 94 79
76 71 73 99 118 124 101 57 60 72 34 0 0 0 0 0
0 0 0 0 8 13 17 21 21 19 20 22 12 20 15 27
28 30 30 32 32 33 32 33 34 34 35 34 34 35 34 26
44 3 0 1 25 28 41 40 4 28 56 46 19 41 51 29
5 0 44 57 17 26 13 0 0 0 2 46 51 11 0 0
0 24 32 32 38 32 31 37 39 41 41 42 48 33 0 0
0 1 0 0 0 0 0 0 0 0 13 38 81 94 99 108
116 115 113 109 108 110 111 110 106 101 93 86 97 115 114 102
79 85 79 83 98 112 107 75 58 72 47 3 0 0 0 0
0 0 0 0 1 7 18 25 26 27 27 18 22 31 18 30
33 33 31 30 35 35 35 35 36 29 24 29 31 31 32 25
45 4 0 6 40 39 33 27 5 15 52 44 11 31 47 23
9 0 43 59 20 10 13 0 0 0 1 41 48 10 0 0
0 22 31 31 32 27 27 26 27 34 36 36 47 33 0 0
0 0 0 0 0 0 0 0 0 1 16 62 86 95 107 117
121 118 114 107 105 104 103 103 103 101 92 97 116 125 124 118
93 81 92 90 88 93 100 89 62 61 56 11 0 0 0 0
0 0 0 0 0 6 21 30 31 33 28 20 35 34 28 4
6 6 1 10 19 36 30 25 24 4 3 0 1 2 6 22
47 14 8 6 21 47 42 38 15 9 48 33 4 17 42 10
9 0 41 59 22 0 4 0 0 0 2 43 49 9 1 3
0 5 12 18 27 25 27 28 30 34 37 40 48 33 0 0
0 0 0 0 0 0 0 0 0 6 38 74 90 104 110 123
122 118 118 114 112 108 106 104 104 98 100 122 130 136 132 135
97 75 86 88 90 89 91 91 76 60 60 20 0 0 0 0
0 0 0 0 0 7 24 33 33 32 20 24 15 25 36 4
0 0 0 4 11 11 2 0 0 0 4 0 0 0 0 15
48 41 47 41 17 15 37 44 34 9 23 28 9 6 33 2
1 0 40 58 22 0 0 0 0 0 3 46 49 8 0 4
0 0 0 8 24 23 25 8 9 14 19 26 31 29 0 0
0 0 0 0 0 0 0 0 0 27 68 85 98 109 119 123
125 128 128 124 120 115 112 110 93 106 125 121 107 122 121 114
90 80 77 84 86 87 89 91 86 66 61 30 0 0 0 0
0 0 0 0 0 8 24 35 34 23 8 0 0 2 34 4
0 0 0 0 0 0 0 0 0 0 10 6 0 0 0 11
52 51 48 33 48 24 1 5 2 0 0 4 25 11 7 1
15 12 41 53 19 0 0 0 0 0 3 49 50 8 0 5
8 0 0 9 32 30 28 3 0 0 0 0 0 19 0 0
0 0 0 0 0 0 0 0 2 46 74 89 102 111 119 125
132 133 132 130 123 120 114 100 80 121 110 25 6 85 114 100
60 84 87 83 86 85 87 90 90 78 60 41 2 0 0 0
0 0 0 0 1 7 23 35 33 5 14 31 13 2 3 0
0 0 0 0 0 0 0 0 1 0 0 0 0 0 0 15
58 57 48 12 51 52 17 0 0 1 0 0 0 2 9 3
43 48 49 48 30 20 16 11 9 5 8 50 49 8 0 0
11 1 0 10 40 32 29 5 0 0 1 0 0 17 0 0
0 0 0 0 0 0 0 0 7 49 73 89 103 113 121 128
135 135 136 133 124 120 115 95 90 117 69 17 61 94 103 68
2 44 98 85 90 89 89 90 93 86 69 49 6 0 0 0
0 0 0 0 2 5 21 35 26 14 35 22 23 36 36 33
33 32 32 31 16 25 18 0 2 0 0 0 0 0 0 23
63 62 55 9 45 53 13 2 0 1 2 0 6 21 45 29
47 53 54 49 49 51 45 33 44 38 35 41 42 20 0 0
13 11 5 6 42 31 28 5 0 4 8 1 0 13 0 0
0 0 0 0 0 0 0 1 13 54 77 92 106 116 125 132
137 138 135 133 126 117 113 111 93 110 109 112 114 105 90 67
32 35 100 87 94 95 96 97 95 92 77 57 14 0 0 0
0 0 0 0 3 3 22 32 8 17 19 33 36 37 37 37
37 37 37 36 35 10 4 0 1 0 2 12 13 11 19 30
57 59 58 12 37 54 13 0 0 5 35 28 45 43 53 53
52 54 55 56 40 20 15 11 15 18 16 30 39 37 34 25
27 30 24 21 43 28 26 6 1 15 20 7 0 7 0 0
0 0 0 0 0 0 0 1 28 66 81 94 106 118 128 139
141 137 136 138 126 112 113 120 100 86 91 95 114 109 103 78
73 102 88 85 96 104 111 112 101 90 81 66 21 0 0 0
0 0 0 0 2 3 26 12 25 37 37 37 37 36 36 36
37 36 36 36 13 0 0 3 0 0 11 38 36 36 34 31
10 13 45 22 29 56 42 18 12 22 48 51 46 33 45 50
35 34 40 47 31 0 0 0 1 18 10 27 39 35 27 28
36 43 47 48 48 33 25 7 1 15 17 7 0 1 2 0
0 0 0 0 0 0 0 0 39 77 81 94 107 119 129 143
144 142 137 137 124 111 115 121 115 107 100 103 109 109 108 91
64 76 74 91 114 124 123 120 111 96 81 68 28 0 0 0
0 0 0 0 1 3 20 15 37 37 37 37 36 37 36 37
36 37 37 37 12 0 0 19 0 0 8 37 36 35 34 34
0 0 36 42 29 55 53 53 50 52 53 50 34 5 15 21
5 0 0 18 34 0 0 4 3 12 15 34 41 32 4 0
5 11 21 48 46 31 25 9 1 7 4 3 0 0 7 7
7 0 0 0 0 0 0 3 50 82 82 94 111 121 131 142
148 143 134 134 121 111 116 114 106 102 101 100 98 96 96 84
66 55 73 100 132 130 128 121 116 102 86 71 35 0 0 0
0 0 0 0 0 5 8 35 36 36 37 37 37 37 37 37
37 37 37 37 14 0 0 4 0 0 7 37 37 37 36 35
3 9 37 48 22 54 53 53 54 53 51 46 30 3 0 1
3 0 0 16 37 1 3 31 33 15 8 33 43 31 1 3
22 25 24 49 44 29 27 24 8 4 3 2 0 0 1 10
5 0 0 0 0 0 0 5 52 82 82 94 112 121 130 137
147 141 134 132 119 114 115 108 104 106 107 107 106 105 99 96
79 64 75 89 120 129 127 126 118 107 91 73 42 0 0 0
0 0 0 0 3 8 30 36 36 37 37 37 37 37 37 37
37 37 37 37 14 0 0 0 0 0 5 37 36 37 36 35
7 11 32 51 16 53 55 56 56 52 19 15 11 2 1 2
14 0 0 14 37 1 21 38 26 3 0 34 45 30 0 3
15 35 35 48 38 26 28 25 4 3 2 1 0 0 0 0
0 0 0 0 0 0 0 6 47 79 81 96 115 123 126 140
145 139 132 127 118 112 111 109 113 109 105 104 101 105 93 97
89 77 70 79 91 117 126 131 122 109 96 77 48 0 0 0
0 0 0 0 4 13 36 36 37 37 37 37 37 37 37 37
37 35 31 29 13 0 0 0 0 2 4 37 37 37 37 37
1 9 23 51 8 38 42 44 47 48 42 44 42 40 39 35
31 0 0 14 38 5 7 41 32 0 0 35 47 32 0 1
3 10 31 50 37 28 31 22 4 2 4 0 0 3 0 0
0 0 0 0 0 0 0 7 53 80 81 99 118 124 131 140
141 139 133 125 115 107 110 114 105 91 87 89 94 94 82 78
82 80 75 70 79 94 119 128 123 110 96 77 48 1 0 0
0 0 0 0 3 23 37 36 36 36 37 37 38 38 37 37
23 6 1 0 0 0 0 0 0 2 2 37 38 37 38 37
1 17 27 50 6 0 0 1 2 4 26 37 26 11 13 15
10 1 0 14 37 0 1 26 16 6 1 37 49 34 0 0
0 0 24 51 37 27 27 34 39 38 33 32 30 27 9 0
0 0 0 0 0 0 3 9 51 76 83 103 118 127 132 139
139 137 130 123 115 111 113 100 75 83 86 109 115 106 91 66
70 82 77 69 70 83 110 126 118 110 95 77 48 1 0 0
0 0 0 0 8 24 37 36 37 37 37 37 38 38 38 38
20 26 18 14 7 1 0 0 2 5 4 28 37 37 38 38
0 12 23 49 11 0 0 0 0 0 26 40 24 0 0 0
0 0 0 12 37 0 0 0 0 5 1 35 49 32 0 0
0 0 21 52 39 27 29 40 57 58 55 58 57 53 28 3
0 0 0 0 0 0 5 15 44 75 83 104 120 129 134 138
139 138 130 122 116 112 106 69 101 120 118 131 146 136 123 105
72 81 82 72 65 84 101 118 115 106 94 78 49 2 0 0
0 0 0 1 14 24 37 37 37 38 38 38 37 38 38 37
53 60 38 22 5 0 0 0 0 1 0 10 19 37 38 37
0 1 4 41 19 0 0 0 0 0 29 46 35 0 0 0
0 0 0 10 39 1 0 0 0 0 0 33 48 31 0 0
0 0 20 53 41 26 29 39 58 58 56 52 53 50 31 3
0 0 0 1 3 1 11 18 43 74 81 105 120 130 136 139
140 138 131 127 119 105 93 61 114 131 142 138 148 144 145 117
84 69 81 71 72 88 95 109 109 102 91 76 47 1 0 0
0 0 0 9 25 20 37 36 37 37 38 37 36 37 37 36
21 17 16 1 0 0 0 0 0 0 0 18 6 11 25 37
1 0 0 33 32 3 2 3 5 5 34 55 48 2 0 0
0 0 0 9 37 0 0 0 0 0 0 30 49 30 0 0
0 0 16 49 37 24 30 28 32 33 34 32 27 25 17 1
1 0 0 3 7 8 26 35 40 70 82 104 120 129 134 138
140 138 132 131 123 108 112 93 93 104 108 111 124 122 121 105
87 81 73 77 82 101 93 102 103 97 88 73 42 0 0 0
0 0 0 25 28 15 38 37 37 37 38 36 34 32 29 26
15 4 2 0 0 0 0 0 0 0 0 4 6 1 16 38
2 0 0 25 53 35 28 35 38 42 52 55 40 2 0 0
0 0 0 8 37 0 0 0 0 0 0 29 51 33 0 0
0 0 13 49 39 24 28 30 37 37 36 33 31 26 23 1
3 0 0 8 25 21 39 53 47 67 81 102 115 127 135 138
140 139 137 132 125 114 115 117 107 98 103 110 116 114 113 108
96 71 59 65 85 104 93 96 99 93 87 71 35 0 0 0
0 0 14 35 32 14 37 37 37 37 37 22 8 7 9 7
4 1 3 0 0 0 0 0 0 0 0 3 7 2 14 38
3 3 3 21 58 38 42 44 44 48 55 40 6 0 0 0
0 0 0 7 39 5 5 6 9 13 17 38 50 34 0 0
0 0 15 53 42 22 28 31 42 43 42 40 42 40 24 1
0 0 1 17 61 27 56 67 49 59 79 99 114 124 132 136
138 140 140 135 128 118 116 119 119 120 118 117 118 112 113 109
90 67 60 64 74 96 95 96 96 91 82 68 30 0 0 0
0 2 23 33 34 14 31 29 24 19 14 6 3 3 2 3
4 4 8 6 7 0 0 0 0 0 0 4 6 2 12 37
46 51 55 58 63 27 25 30 35 41 50 44 20 15 15 13
11 11 11 18 43 39 39 42 44 47 49 46 37 25 10 7
6 3 17 51 39 22 29 34 43 44 42 43 44 41 27 3
0 0 3 42 69 19 52 82 52 56 77 98 112 121 127 134
137 140 142 140 130 123 120 120 119 124 127 131 123 118 119 111
101 87 80 76 78 87 96 95 93 87 82 65 24 0 0 0
0 6 18 16 13 5 4 4 5 6 7 9 9 10 10 10
10 7 4 4 17 0 0 0 0 0 0 3 7 3 9 36
60 63 66 66 65 19 0 0 1 5 33 51 47 49 47 46
43 43 45 46 47 44 44 46 47 46 46 46 43 42 42 40
39 35 36 44 41 37 39 39 41 43 41 41 41 41 28 1
0 0 3 57 55 18 51 75 50 55 79 97 109 119 125 130
137 138 142 137 131 126 123 121 123 125 127 126 123 119 118 114
109 98 88 82 80 85 96 94 90 85 79 62 20 0 0 0
0 2 3 5 7 8 9 10 11 11 11 11 11 11 11 11
10 2 1 4 19 0 0 0 0 1 0 2 5 9 11 32
56 58 64 64 62 31 0 0 0 2 33 53 53 52 53 53
50 53 54 50 37 30 38 42 41 41 41 41 41 41 41 41
42 41 41 41 40 40 40 40 40 40 39 39 39 38 26 2
0 0 0 53 56 59 79 77 55 54 77 96 106 114 121 129
133 138 139 137 134 130 125 123 123 127 130 127 120 112 111 108
104 96 89 86 84 86 94 94 89 84 77 61 17 0 0 0
0 3 7 10 11 10 10 10 9 7 6 4 3 1 1 6
12 10 1 8 8 0 0 0 0 10 3 3 9 14 15 29
31 27 19 14 13 6 0 0 0 3 35 54 53 51 51 51
50 51 54 31 22 24 35 41 41 41 41 41 42 41 41 41
41 41 40 40 39 39 39 39 40 39 39 38 38 37 30 5
0 0 0 29 68 72 79 84 56 55 75 95 107 111 116 124
128 135 138 139 137 132 125 123 124 126 129 128 121 116 113 109
106 100 96 88 83 86 88 91 86 81 74 56 12 0 0 0
0 6 10 7 2 1 0 0 0 0 0 0 0 0 0 10
12 10 8 8 2 0 0 0 0 1 0 4 8 8 9 31
14 19 4 0 0 0 0 0 0 2 34 44 26 27 26 25
24 27 30 22 21 23 34 41 41 35 33 32 31 30 29 29
28 27 26 25 24 23 23 23 22 22 22 21 24 30 30 11
0 0 0 16 47 91 107 81 46 55 74 92 103 110 115 122
130 133 137 140 138 130 124 117 126 125 124 124 120 115 112 111
107 103 98 89 84 87 86 88 84 79 70 53 13 14 0 0
0 8 11 4 0 0 0 0 0 0 0 0 0 0 0 12
12 11 8 13 12 14 15 16 16 16 18 21 21 21 19 22
8 19 4 0 0 0 0 0 0 1 35 37 0 1 0 0
0 5 4 15 21 24 32 41 36 13 2 1 1 1 0 0
0 0 0 0 0 0 0 0 0 0 0 0 6 34 36 21
1 0 0 1 37 97 90 36 13 57 71 90 101 107 113 119
126 132 136 137 134 131 123 112 123 123 122 122 122 119 120 115
108 102 100 87 85 86 85 84 82 78 68 47 39 50 2 0
0 11 12 1 0 0 0 0 0 0 0 0 0 0 2 13
12 11 10 43 17 21 23 29 26 21 28 23 22 21 14 14
9 19 6 0 0 0 0 0 0 0 35 37 0 1 0 1
0 5 12 17 21 23 31 40 37 18 0 0 0 0 0 0
0 0 0 0 0 0 0 0 0 0 0 0 5 36 38 33
8 0 0 0 7 41 16 0 12 56 64 83 98 104 109 116
120 126 134 133 132 129 127 126 124 122 119 118 118 119 117 113
107 101 98 85 83 84 83 82 81 76 64 42 37 33 0 0
7 11 9 0 0 0 0 0 0 0 0 0 0 0 6 13
12 11 12 27 16 20 26 39 64 50 73 74 75 26 16 38
8 18 6 0 0 0 0 0 0 0 32 38 1 1 0 1
8 16 16 17 19 22 28 38 38 24 1 0 0 0 0 0
1 1 1 0 0 0 0 0 0 0 0 0 3 35 39 34
16 0 0 0 0 0 0 13 47 59 58 76 91 99 104 111
116 122 126 126 126 125 126 126 125 124 122 121 120 119 119 114
108 101 97 87 81 83 81 78 77 72 57 46 55 20 0 0
11 12 8 0 0 0 0 0 0 0 0 0 0 0 8 14
12 13 11 24 18 23 29 46 98 68 96 93 93 28 16 81
8 17 12 2 0 0 0 0 0 0 29 36 1 0 2 13
16 15 14 17 19 22 27 39 38 26 2 0 0 0 0 0
0 1 1 0 1 1 0 0 0 0 1 0 2 33 39 33
15 0 0 0 0 0 0 8 54 60 58 66 86 93 98 103
109 114 120 121 121 123 125 125 129 128 124 121 120 125 124 121
112 101 92 86 80 79 78 76 73 67 51 43 62 11 0 0
4 11 5 0 0 0 0 0 0 0 0 0 0 0 11 13
13 15 5 24 26 30 35 34 53 36 43 39 34 27 25 44
8 18 15 10 0 0 0 0 0 0 28 35 2 0 2 13
15 15 15 16 19 21 26 37 37 29 4 0 0 0 1 1
1 1 2 1 0 0 1 0 0 0 0 0 1 29 39 32
14 0 5 0 0 0 0 0 36 61 61 58 75 88 91 95
102 109 115 114 114 116 119 125 131 132 132 125 127 131 127 123
114 101 92 86 77 74 73 73 69 61 38 23 48 8 0 0
3 11 2 0 0 0 0 0 0 0 0 0 0 1 13 13
13 16 1 8 33 35 37 25 24 22 22 18 20 19 21 20
7 15 15 6 0 0 0 0 0 0 27 31 2 0 1 12
13 15 14 16 19 21 25 36 37 31 7 0 0 0 0 0
0 0 0 1 1 1 1 1 1 0 0 1 1 27 40 32
11 0 2 0 0 0 0 0 9 60 65 63 63 77 82 85
91 100 105 108 107 108 112 118 128 130 128 126 128 131 128 129
117 103 89 80 72 68 68 69 62 53 17 3 30 8 0 0
1 12 0 0 0 0 0 0 0 0 0 0 0 3 14 12
14 12 0 10 26 33 37 24 24 18 22 16 15 17 23 22
5 13 15 5 4 1 0 0 0 0 27 29 4 0 0 12
14 15 14 16 18 20 24 35 36 31 9 0 0 0 0 0
0 0 1 0 1 1 1 1 0 0 0 0 0 22 40 34
15 0 0 0 0 0 0 0 1 55 69 70 59 63 69 70
78 87 95 98 100 98 101 107 115 123 119 117 119 120 121 120
107 98 86 75 67 61 64 62 54 39 3 0 0 0 0 0
0 8 0 0 0 0 0 0 0 0 0 0 0 6 13 12
14 7 0 1 3 19 37 25 24 13 16 15 16 18 24 22
3 10 21 33 35 34 30 29 28 28 38 33 5 0 1 12
13 14 14 15 18 20 23 34 36 31 11 0 0 0 0 0
0 0 1 1 1 0 1 1 0 0 0 0 0 18 39 33
18 0 0 0 0 0 0 0 0 49 74 74 70 60 59 60
66 72 79 85 87 88 91 98 102 110 111 109 109 109 108 105
101 94 81 71 60 56 56 53 45 18 0 0 0 0 0 0
3 5 0 0 0 0 0 0 0 0 0 0 0 10 14 13
13 4 0 0 0 23 33 25 23 13 19 17 16 20 24 23
2 10 21 37 41 39 33 31 31 27 22 26 7 0 1 12
13 13 14 14 17 19 22 32 35 31 13 0 0 0 0 0
0 0 0 1 1 1 0 0 0 0 0 0 0 14 39 33
21 0 0 0 0 0 0 0 0 38 76 78 78 69 63 59
59 64 67 72 75 74 74 79 85 94 98 98 95 96 97 94
89 83 72 61 51 50 50 44 34 1 0 0 0 0 1 1
4 3 0 0 0 0 0 0 0 0 0 0 0 12 12 12
14 3 0 9 9 31 33 28 22 12 18 16 15 20 23 22
3 13 20 37 39 32 15 4 2 0 0 16 9 0 1 11
12 13 14 13 16 18 21 31 34 31 14 0 0 0 0 0
0 0 1 0 1 0 0 0 0 0 0 0 0 12 39 34
22 0 0 0 0 0 0 0 0 33 78 81 82 79 74 69
66 66 68 71 68 70 69 65 63 67 74 77 80 80 79 80
72 67 55 46 44 42 40 37 12 0 0 0 0 1 2 0
8 1 0 0 0 0 0 0 0 0 0 0 2 14 12 13
13 0 4 18 9 37 30 26 21 9 13 16 15 21 23 22
13 17 6 9 11 18 2 0 0 0 0 13 17 7 9 11
11 12 13 13 16 18 20 29 33 31 14 0 0 0 0 0
0 0 0 0 0 0 1 0 0 0 0 0 0 9 38 33
23 0 0 0 0 0 0 0 0 34 79 85 86 83 84 78
73 71 71 74 77 75 77 78 78 72 65 66 67 67 62 56
50 43 39 37 36 36 37 32 1 0 0 0 9 0 3 0
9 0 0 0 0 0 0 0 0 0 0 0 5 14 12 14
9 0 8 16 8 39 30 24 9 2 8 16 15 20 22 21
18 20 7 0 0 5 0 0 0 0 0 16 37 33 27 11
10 11 12 12 15 17 19 27 32 30 16 0 0 0 0 0
0 0 0 0 0 0 0 0 0 0 0 0 0 7 38 34
25 1 0 2 0 0 0 0 0 36 82 89 90 91 91 89
80 74 75 75 81 83 82 85 89 94 89 79 75 67 60 50
44 43 40 37 40 40 38 29 0 0 9 13 21 2 4 9
7 0 0 0 0 0 0 0 0 0 0 0 7 13 12 14
7 0 3 6 14 39 28 16 7 1 8 14 13 21 22 22
26 24 18 0 0 1 0 0 0 0 0 22 27 5 4 6
9 10 11 11 15 16 18 26 31 30 18 0 0 0 0 0
0 0 0 0 0 0 0 0 0 0 0 0 0 6 37 33
27 4 0 5 2 0 0 0 0 38 83 95 96 94 97 96
90 78 76 79 84 86 89 90 91 94 95 93 89 81 73 65
57 48 43 46 46 44 44 27 0 0 26 33 15 2 6 11
4 0 0 0 0 0 0 0 0 0 0 0 10 13 13 13
4 1 36 31 23 37 27 16 6 0 8 14 13 21 22 22
32 24 13 3 1 0 0 0 0 0 0 21 25 0 0 4
9 10 11 11 14 16 18 24 30 30 18 0 0 0 0 0
0 0 0 0 0 0 0 0 0 0 0 0 0 5 36 34
28 7 0 10 17 1 0 0 0 41 84 98 101 100 100 101
97 85 79 81 86 90 90 93 92 95 97 92 89 82 72 64
55 50 48 53 50 48 51 28 0 7 41 33 12 11 11 12
1 0 0 0 0 0 0 0 0 0 0 0 13 13 13 13
1 11 77 41 25 37 28 16 5 7 13 14 14 22 22 22
27 23 8 8 3 0 0 0 0 0 0 16 24 0 0 3
8 9 10 10 13 14 16 23 29 29 18 0 0 0 0 0
0 0 0 0 0 0 0 0 0 0 0 0 0 3 34 33
28 18 13 20 27 12 0 0 0 40 83 96 102 103 104 102
101 93 83 80 85 91 91 92 91 89 92 91 86 79 70 60
54 49 51 52 50 53 52 27 0 0 12 19 32 21 11 10
0 0 0 0 0 0 0 0 0 0 0 2 13 13 14 12
0 12 53 20 30 33 27 18 14 7 17 14 16 24 24 21
14 9 6 4 2 2 3 5 9 14 19 20 24 1 0 2
8 9 9 9 12 13 15 21 28 27 18 0 0 0 0 0
0 0 0 0 0 0 0 0 0 0 0 0 0 2 33 34
31 47 51 52 52 42 1 0 0 40 82 97 105 105 107 106
102 98 90 84 87 92 94 94 91 88 88 87 83 76 64 57
52 52 53 53 53 58 54 28 0 0 30 48 45 18 13 9
0 0 0 0 0 0 0 0 0 0 0 5 13 12 14 9
0 1 15 16 35 32 28 24 15 11 16 15 18 25 24 21
31 14 13 10 12 14 17 19 23 29 36 36 29 9 4 4
7 8 9 8 11 12 15 20 27 27 18 0 0 0 0 0
0 0 0 0 0 0 0 0 0 0 0 0 0 2 32 33
31 52 57 57 56 49 15 0 0 43 81 97 105 109 109 109
106 100 97 89 89 93 98 100 97 95 90 88 81 72 63 57
54 54 53 54 57 60 55 27 0 18 51 53 39 14 13 9
4 4 4 4 5 4 4 5 5 5 5 11 15 14 14 6
0 1 5 12 41 30 28 25 13 11 15 16 20 24 24 22
30 26 25 24 27 27 28 29 29 33 35 34 31 27 24 18
9 7 8 9 11 13 13 18 25 26 18 0 0 0 0 0
0 0 0 0 0 0 0 0 0 0 0 0 0 1 31 33
30 39 39 37 36 33 23 0 0 44 80 96 106 109 109 108
107 105 99 96 90 96 99 102 101 99 94 89 82 74 66 58
57 56 55 57 64 63 58 28 5 47 52 54 34 13 12 13
12 12 12 12 13 13 12 13 13 13 14 14 15 14 15 3
0 2 5 20 41 30 29 25 14 12 16 17 21 24 24 22
17 16 14 13 12 11 9 8 7 6 5 4 7 4 1 2
4 5 5 6 10 12 13 17 25 26 18 0 0 0 0 0
0 0 0 0 0 0 0 0 0 0 0 0 0 2 32 34
28 22 20 19 20 20 18 3 0 50 79 96 107 110 112 111
108 105 101 97 91 94 100 102 103 102 94 90 84 78 68 62
60 56 56 63 67 65 59 27 7 46 53 54 26 13 14 13
13 13 14 13 13 13 14 13 13 13 13 14 13 16 17 1
0 7 7 26 40 31 30 25 13 12 16 17 24 24 24 22
0 0 0 0 0 0 0 0 0 0 0 1 10 6 0 0
4 4 5 5 10 11 13 17 24 25 17 0 0 0 0 0
0 0 0 0 0 0 0 0 0 0 0 0 0 1 31 33
27 23 23 22 22 22 21 18 9 55 81 94 104 111 111 112
112 107 102 97 91 94 98 103 104 102 97 93 88 80 72 66
61 57 60 67 67 66 59 34 40 80 63 52 27 9 13 14
14 14 15 22 23 15 14 14 14 14 16 13 9 10 14 0
0 23 27 34 39 33 31 23 14 12 13 18 25 25 25 23
0 0 0 4 6 0 0 0 0 0 2 2 10 8 0 0
2 4 5 6 9 10 12 16 23 24 18 0 0 0 0 0
0 0 0 0 0 0 0 0 0 0 0 0 0 3 33 34
28 28 28 26 26 25 23 28 17 59 81 95 103 108 112 112
114 111 106 96 92 92 99 102 103 101 97 96 90 82 74 67
63 61 64 69 72 66 58 62 106 114 102 44 21 8 18 24
27 32 48 91 95 63 59 55 33 41 40 38 34 15 0 0
20 38 18 40 42 37 51 46 36 14 21 86 61 42 54 55
0 0 0 8 8 0 0 0 1 0 2 7 11 6 0 0
0 3 5 8 8 10 11 15 22 22 16 0 0 0 0 0
0 0 1 2 3 5 7 9 11 12 14 16 18 21 33 31
28 28 28 29 28 28 34 5 11 64 80 94 104 110 110 111
112 110 108 100 94 94 99 102 101 98 96 93 87 82 72 68
64 62 66 72 75 68 57 68 108 101 66 20 19 27 70 104
110 126 140 146 147 139 126 100 34 12 10 12 14 30 28 4
97 140 28 43 44 40 96 101 87 15 26 82 87 72 84 83
3 3 3 2 2 5 8 9 10 10 7 5 5 1 0 0
0 1 5 7 8 9 10 14 21 23 21 11 11 13 17 19
21 23 25 26 27 28 28 29 29 28 28 29 29 28 28 28
28 28 29 28 28 49 55 4 18 65 81 94 102 109 113 110
111 112 109 103 99 98 103 103 103 96 94 91 88 85 76 70
66 64 71 75 75 71 57 51 62 57 47 40 37 42 70 110
110 120 129 133 145 140 125 101 29 9 11 9 8 20 22 39
117 139 25 45 40 30 75 80 57 4 3 52 59 48 59 52
11 10 4 4 11 12 12 13 14 13 13 5 1 6 0 0
2 0 4 7 8 9 10 14 21 23 24 25 25 25 29 31
30 29 29 30 30 30 29 30 30 30 29 28 28 28 27 27
27 30 30 29 43 64 43 1 32 67 83 94 102 109 112 114
111 107 108 102 103 105 108 107 106 99 97 94 93 90 83 73
68 67 73 78 75 70 55 46 48 47 45 44 54 57 64 97
113 126 140 145 145 136 123 97 25 7 8 8 8 28 0 13
69 52 21 44 27 8 8 8 1 2 2 0 5 20 30 24
10 2 7 11 12 12 12 12 13 15 18 7 3 5 2 3
0 0 0 1 5 8 9 13 20 22 23 25 23 23 29 29
30 29 29 29 31 34 29 21 23 26 27 19 21 25 25 24
26 30 31 34 81 114 37 1 46 66 83 95 102 109 112 113
114 111 104 100 102 108 112 112 110 104 101 100 98 97 87 77
69 70 76 80 74 69 56 48 36 24 23 26 50 44 39 65
100 61 102 126 124 112 90 41 8 8 6 4 12 35 8 12
46 30 35 45 22 2 0 0 0 0 0 0 0 8 25 12
2 7 10 10 12 13 12 12 21 32 32 5 1 0 0 0
0 0 0 1 4 7 8 12 20 22 24 25 24 25 26 26
27 26 25 33 54 55 11 0 0 3 6 1 2 17 24 22
21 17 26 56 94 80 5 13 55 69 84 98 107 110 112 113
113 112 107 97 99 107 112 113 112 107 107 105 105 98 89 78
71 70 75 78 78 71 56 25 43 38 16 8 36 46 46 44
43 7 13 17 11 8 10 3 9 10 14 41 64 79 86 96
92 98 95 75 29 30 1 0 0 0 0 0 0 1 19 13
4 7 7 6 6 5 5 5 24 24 15 2 0 0 0 0
0 0 0 0 3 2 3 3 9 10 11 9 9 8 8 8
10 12 21 61 67 20 0 0 0 0 0 0 0 0 2 1
0 0 56 71 97 43 0 29 59 70 84 99 107 111 114 115
116 113 109 102 97 101 108 111 110 107 108 107 104 95 84 73
70 73 78 82 78 70 53 12 24 63 24 0 1 25 78 97
98 84 23 7 11 16 16 10 14 6 53 100 97 110 106 96
90 103 103 86 27 34 0 0 0 0 0 0 0 0 10 21
4 5 6 7 9 6 2 7 46 18 12 7 0 0 0 0
0 0 0 0 0 0 0 0 0 0 0 0 0 0 1 0
7 16 46 71 33 1 0 0 0 0 0 0 0 0 0 0
0 23 64 81 123 26 2 46 66 71 84 100 107 114 116 117
117 115 111 105 100 97 99 102 104 104 103 103 97 87 76 68
68 75 78 81 75 66 49 6 5 41 44 1 0 0 1 5
11 33 63 67 42 25 28 33 57 76 106 110 98 106 105 99
92 99 101 79 2 0 0 0 0 1 0 3 3 3 6 15
28 31 35 38 40 30 1 45 41 2 5 12 4 0 0 0
0 0 0 0 0 0 0 0 0 0 0 0 1 6 8 3
8 26 61 49 12 0 0 0 0 0 0 0 0 0 0 1
25 51 73 92 126 21 12 58 76 71 86 102 107 111 117 119
120 118 113 108 106 103 99 99 100 98 98 94 86 79 73 69
75 77 80 81 75 68 49 12 0 14 60 31 10 13 15 14
12 9 9 27 60 59 59 78 71 43 41 56 65 72 70 70
71 71 73 60 26 25 26 21 17 14 4 10 7 5 2 0
51 51 51 51 53 48 10 53 10 0 1 10 15 6 0 0
0 0 0 0 0 0 0 0 0 0 0 0 0 6 10 9
2 38 59 20 0 2 11 3 0 0 0 0 4 24 53 61
57 62 85 100 110 25 19 62 84 75 86 102 108 112 116 119
121 121 118 112 108 103 102 101 100 101 100 94 91 84 77 76
79 82 84 83 75 67 45 24 0 4 58 68 30 49 70 78
89 80 60 51 60 86 94 93 115 136 144 148 139 115 80 69
56 42 38 31 25 20 20 15 11 7 2 2 2 2 0 0
52 51 51 51 47 40 18 30 0 0 0 4 22 4 0 0
0 0 0 0 0 0 1 1 0 0 0 0 2 12 18 14
2 50 57 10 14 30 39 14 0 1 19 37 55 82 78 76
59 71 86 92 73 37 28 64 90 80 86 100 110 114 114 115
120 121 120 116 111 108 105 103 101 102 99 95 91 85 78 79
84 88 87 81 73 63 43 35 4 0 62 108 33 56 134 150
149 130 93 75 66 66 71 87 132 150 148 125 149 130 84 61
42 31 28 22 18 15 17 15 12 7 3 2 2 0 0 0
23 19 14 9 4 1 3 18 0 1 0 4 2 0 0 0
0 4 2 6 5 5 4 4 4 8 12 16 19 19 19 8
8 53 36 11 32 38 42 31 2 51 82 88 58 53 57 87
67 66 73 118 83 30 35 63 93 84 90 99 109 115 118 118
118 119 120 118 115 113 112 109 106 102 102 97 93 85 82 87
93 93 88 82 72 63 43 42 12 0 27 65 44 11 50 140
150 110 72 69 59 60 65 87 134 150 149 137 149 134 95 68
44 36 27 24 19 16 17 15 13 8 5 1 3 1 1 0
0 0 0 0 0 0 4 13 0 3 1 0 0 0 0 0
1 2 0 2 3 2 2 3 5 8 15 20 21 14 11 1
15 58 25 1 30 45 44 33 51 60 36 39 44 55 82 67
64 56 96 115 82 62 42 61 95 90 93 100 108 113 118 118
117 117 120 118 117 117 117 115 114 110 105 104 97 91 87 94
96 91 84 78 72 60 46 47 21 2 14 81 56 9 32 62
114 104 72 64 59 58 63 87 133 151 149 114 150 137 95 66
46 36 30 23 19 16 16 16 15 8 6 1 4 2 0 0
3 0 0 0 0 0 6 15 8 10 1 0 0 0 0 0
0 0 0 0 0 0 0 0 0 4 14 20 17 2 0 0
22 60 23 4 30 24 47 85 78 93 86 85 107 99 86 45
65 56 87 96 60 61 56 58 98 98 96 103 109 115 117 118
121 120 119 120 117 117 118 118 118 114 110 106 101 94 92 96
97 89 83 77 71 59 50 50 22 8 22 68 72 32 37 52
60 83 78 65 57 52 64 87 126 151 149 107 149 138 92 65
47 36 29 23 20 17 17 17 15 9 6 1 3 3 0 0
2 9 2 0 2 3 7 12 2 2 0 0 0 0 0 0
0 0 0 0 0 0 0 0 0 4 14 20 14 0 0 0
25 63 26 5 35 53 70 92 93 91 87 90 112 88 60 67
79 55 79 121 75 55 67 58 102 104 104 105 109 112 116 116
118 119 122 120 119 118 118 118 119 116 111 107 99 92 92 97
94 88 82 77 71 61 56 55 27 53 39 47 63 50 27 50
64 66 68 45 55 63 67 88 127 151 150 107 149 139 96 67
50 37 28 22 21 16 17 19 15 10 7 1 4 3 0 0
1 7 26 5 0 0 10 12 0 0 0 0 0 0 0 0
0 0 0 0 0 0 0 0 0 4 15 21 14 8 4 0
27 66 46 46 85 98 71 108 97 75 65 76 92 90 35 47
50 37 86 106 69 50 57 60 100 111 110 108 111 113 115 116
117 118 119 122 120 119 119 117 117 116 108 102 98 93 95 97
94 89 83 78 70 65 63 52 47 65 34 39 94 68 29 42
55 61 52 60 71 78 71 82 125 151 149 102 148 142 101 69
51 38 28 22 21 14 17 19 15 10 7 2 3 2 0 0
0 0 8 10 0 0 13 7 0 0 0 0 0 0 0 0
0 0 0 2 0 0 2 2 2 9 20 26 20 19 12 2
40 68 46 34 73 85 73 84 96 113 87 44 72 51 63 80
73 58 85 89 63 46 66 72 92 116 116 115 112 114 115 115
116 116 116 120 119 117 117 117 116 117 109 104 98 95 96 97
95 89 83 77 71 69 68 50 74 89 28 46 76 50 33 38
63 82 76 36 77 80 72 99 117 149 149 101 145 139 96 66
52 37 23 19 17 14 16 19 16 10 7 3 3 2 0 0
0 0 0 0 1 0 0 0 0 0 0 0 0 0 0 0
0 0 1 3 0 0 2 2 10 30 33 30 26 27 46 49
68 90 72 62 88 100 76 92 112 115 63 60 65 38 56 84
66 56 84 119 83 53 60 86 81 120 123 120 117 116 115 113
114 114 115 117 119 114 116 114 114 112 107 102 101 99 102 100
96 88 82 75 74 78 72 43 48 43 36 65 65 57 42 31
39 36 42 49 62 58 62 91 83 91 132 101 141 132 97 69
50 36 25 18 15 12 15 20 17 11 7 4 3 2 0 0
1 0 0 0 6 2 0 0 1 1 0 0 0 0 0 0
0 0 1 5 0 0 1 1 9 30 31 30 55 92 105 44
39 54 43 40 57 60 55 65 74 87 60 66 34 36 58 82
73 65 79 78 56 44 60 89 85 113 131 127 121 119 115 114
115 115 117 118 117 116 116 113 113 110 107 103 102 101 102 99
92 83 79 77 81 88 83 44 75 41 50 43 60 67 31 46
49 46 70 34 28 44 70 86 82 59 43 67 133 129 98 68
47 32 23 19 14 8 12 19 17 11 8 5 3 1 0 0
2 1 1 1 5 7 7 7 9 8 1 1 0 0 0 0
0 0 1 9 4 2 4 1 2 11 34 86 102 61 60 58
55 82 90 46 67 91 92 95 105 117 98 88 57 64 58 44
40 58 52 92 71 67 59 74 85 95 133 131 127 121 118 117
117 116 117 118 119 119 118 116 112 109 108 106 103 100 100 95
88 84 81 84 89 99 84 56 82 33 62 85 44 51 23 25
53 39 66 91 60 81 42 39 51 46 38 62 62 81 88 71
48 30 27 22 14 8 13 20 16 11 8 6 3 0 0 0
8 8 5 4 6 9 9 10 15 15 3 2 1 0 0 0
0 0 5 16 24 17 6 0 0 23 75 82 94 82 90 88
48 87 79 52 54 96 61 87 119 111 76 41 44 62 74 72
52 86 70 117 94 59 47 39 61 85 119 135 129 126 122 119
118 118 116 117 119 119 119 114 112 111 109 106 103 101 99 93
86 84 84 87 98 104 75 56 72 56 65 87 79 79 44 26
48 35 29 59 34 47 47 61 75 71 43 54 75 63 79 75
57 34 28 22 13 8 13 19 15 11 8 6 2 0 0 0
3 13 11 4 4 4 2 4 6 3 0 1 3 0 0 0
0 0 0 1 10 1 0 0 23 69 72 107 103 91 94 92
60 76 96 82 56 104 80 78 97 121 91 50 68 82 65 38
79 90 75 94 75 44 46 53 79 80 102 136 135 129 124 122
119 118 118 119 119 119 119 116 112 111 110 108 105 102 98 90
87 88 92 97 105 105 67 79 103 56 71 81 72 75 52 18
20 30 36 68 52 70 67 63 60 66 35 63 62 51 62 109
97 60 31 20 15 9 13 19 15 9 8 6 2 0 0 0
0 0 1 0 0 0 0 0 0 0 0 2 7 0 5 0
0 0 0 0 0 0 0 22 81 113 105 115 100 101 93 98
27 41 57 40 19 63 82 75 106 112 90 70 97 95 75 75
90 76 74 70 57 57 51 67 73 80 87 123 138 133 129 122
120 120 120 121 120 119 120 116 113 112 113 112 108 105 99 89
90 93 98 102 108 106 63 89 110 62 82 60 44 60 45 26
15 29 24 68 62 88 62 38 31 34 26 62 75 87 99 96
72 84 71 38 15 10 15 20 17 11 8 5 2 0 0 0
0 0 0 0 0 0 0 0 0 0 0 2 3 3 12 0
0 0 0 0 4 0 20 83 116 118 104 76 56 57 52 57
39 48 56 55 51 50 52 43 81 94 77 79 92 89 78 87
109 95 86 95 93 85 72 43 37 51 62 104 138 137 129 124
122 119 119 122 121 120 120 116 114 115 115 115 112 108 97 91
93 99 104 110 111 95 71 92 109 48 67 70 70 75 54 17
16 20 18 50 25 34 25 15 37 46 44 46 46 60 66 62
47 85 74 59 49 14 15 20 18 11 9 5 3 0 0 0
0 0 0 0 0 0 0 0 0 0 0 0 1 1 0 0
0 0 0 0 4 18 91 97 113 100 82 78 64 70 73 94
63 55 76 72 61 59 78 55 88 84 46 64 74 65 65 107
98 97 118 113 109 102 73 48 57 68 92 78 118 137 136 133
130 126 123 123 125 123 120 117 116 117 118 119 116 106 97 94
99 104 111 115 114 81 72 82 100 57 85 81 92 108 72 36
29 23 29 53 49 46 31 50 56 44 34 56 59 87 100 102
61 56 44 45 54 42 17 20 18 11 9 3 3 0 0 0
0 0 0 0 0 0 0 0 0 0 0 0 0 0 0 0
0 0 0 0 0 59 100 72 66 65 99 103 89 94 99 107
76 43 59 75 62 62 66 85 115 88 68 88 76 36 56 98
77 117 114 127 93 63 66 56 67 77 98 65 85 114 135 136
138 134 128 127 128 124 122 119 119 119 121 120 118 106 98 99
104 109 112 112 107 67 99 93 87 50 89 93 60 79 76 27
22 25 20 30 58 61 58 47 61 46 47 97 71 87 90 76
81 65 59 28 58 54 35 20 18 11 11 3 3 0 0 0
0 0 0 0 0 0 0 0 0 0 0 0 0 0 0 0
0 0 0 0 23 71 94 53 92 107 108 87 60 60 76 68
49 35 49 34 26 39 69 92 106 88 85 88 63 43 39 65
44 58 80 55 3 5 44 45 43 90 77 84 70 101 119 134
137 137 134 133 132 127 124 120 121 122 123 122 118 111 104 103
108 112 113 109 96 49 105 89 63 44 77 78 7 2 60 48
47 60 36 33 61 64 66 49 60 54 34 58 59 86 99 85
71 103 68 70 65 25 39 27 19 13 11 2 3 0 0 0
0 0 0 0 0 0 0 0 0 0 0 0 0 0 0 0
0 0 0 4 60 51 67 106 99 110 83 71 114 73 60 98
81 58 86 57 67 65 51 56 81 81 51 23 22 14 19 34
13 26 51 50 21 15 52 55 43 66 61 63 73 90 92 126
131 134 135 134 133 130 126 122 125 123 125 124 120 115 108 107
109 113 114 100 90 51 98 75 61 26 36 34 0 0 12 50
46 54 49 50 47 53 43 31 53 35 25 46 25 50 62 86
94 110 79 60 72 41 53 43 22 12 12 2 4 0 0 0
0 0 0 0 0 0 0 0 0 0 0 0 0 0 0 0
0 0 0 26 77 27 82 92 91 74 94 116 122 81 73 76
93 48 84 70 67 69 92 84 89 63 74 84 85 63 77 108
56 54 62 68 59 34 55 53 52 83 92 78 74 104 82 105
128 131 135 135 134 130 128 125 126 124 121 121 118 115 109 108
110 112 104 89 55 42 63 52 57 44 64 45 5 0 0 15
48 29 39 26 56 53 60 18 28 34 35 68 51 64 45 51
50 56 49 77 64 32 56 53 39 13 12 2 4 1 0 0
0 0 0 0 0 0 0 0 0 0 0 0 0 0 0 0
0 0 3 64 68 34 72 100 71 76 137 138 117 109 91 78
112 44 84 57 57 62 96 88 116 118 85 74 97 89 85 102
66 37 57 71 52 48 32 40 55 64 97 75 69 102 101 89
111 126 134 137 134 131 127 122 123 124 123 121 121 117 111 109
110 109 72 61 63 51 68 69 75 43 41 25 40 9 0 0
7 31 32 12 54 77 80 32 62 56 37 80 64 83 60 84
73 88 66 46 40 47 59 54 50 20 11 2 4 1 0 0
0 0 0 0 0 0 0 0 0 0 0 0 0 0 1 3
0 0 26 73 41 56 50 78 110 90 121 121 108 109 128 104
118 61 70 56 43 52 103 89 116 133 84 62 75 98 94 114
75 49 61 56 43 30 50 30 48 65 62 45 40 64 85 80
101 105 118 134 133 128 126 122 124 125 123 122 122 119 115 112
108 85 60 44 59 38 44 45 52 52 25 44 52 41 15 9
0 4 26 19 79 64 66 48 76 71 35 52 54 96 89 69
77 98 76 60 10 26 55 38 36 39 13 2 5 0 0 0
0 0 0 0 0 0 0 0 0 0 0 0 0 2 0 0
0 0 42 55 75 60 25 62 114 109 107 123 98 95 95 86
98 44 60 54 33 49 110 94 133 117 70 76 83 107 98 89
72 41 53 53 63 43 70 59 58 82 93 81 56 77 70 9
27 44 80 112 125 127 123 120 120 123 123 121 120 122 118 112
84 67 51 21 39 32 37 38 57 57 27 39 52 43 32 60
22 30 32 47 120 79 70 22 46 37 24 88 63 60 81 57
71 95 61 53 37 34 28 35 49 51 20 2 5 1 0 0
0 0 0 0 0 0 0 2 5 0 0 0 0 14 0 0
0 16 63 71 94 47 55 63 118 120 103 101 95 100 124 101
101 62 59 64 28 34 80 67 93 107 63 74 75 109 82 107
116 46 67 85 87 58 61 89 83 88 107 98 83 93 97 42
17 59 54 99 102 108 121 122 121 122 123 122 121 122 118 92
66 72 98 72 81 77 53 43 51 35 14 35 43 45 34 71
43 87 57 61 123 88 86 42 77 73 47 91 69 89 88 62
86 112 51 41 30 61 75 30 13 59 48 3 5 0 0 0
0 0 0 0 0 0 0 1 5 0 0 0 0 18 3 0
0 48 73 70 76 65 79 58 97 119 103 86 125 125 113 95
93 81 57 77 29 32 95 67 107 105 92 92 118 116 102 100
117 63 65 60 89 83 63 107 97 84 108 102 115 101 113 104
38 49 32 97 100 100 118 121 119 121 121 120 119 120 107 67
72 76 24 10 41 73 75 37 50 43 28 43 52 44 29 69
60 108 105 93 121 93 78 49 86 92 50 86 62 92 95 77
99 133 60 17 20 73 75 51 52 48 46 17 4 1 0 0
0 0 0 0 0 0 0 0 0 0 0 0 0 6 1 0
7 69 60 51 59 105 105 64 66 101 112 90 135 143 103 78
73 65 56 93 37 36 90 95 97 103 86 97 118 103 92 110
132 77 42 81 63 66 41 47 70 76 110 103 92 94 97 98
67 28 51 69 106 97 110 121 118 119 119 118 119 114 82 68
73 28 30 37 58 69 46 29 37 41 35 68 72 62 41 70
59 102 114 93 101 73 72 51 88 86 59 98 76 73 81 83
101 117 82 57 32 25 33 32 66 60 47 33 4 1 0 0
0 0 0 0 0 0 0 0 0 0 0 0 2 3 0 0
35 70 96 34 77 107 96 85 42 92 104 112 111 111 91 49
68 65 39 54 34 26 80 103 92 120 88 102 111 123 110 103
122 67 29 38 39 39 28 41 75 50 67 68 37 45 50 50
57 46 28 53 83 97 109 124 121 119 120 117 118 95 71 88
31 56 51 55 68 73 50 38 60 39 43 76 85 72 56 97
71 67 105 71 97 97 59 38 68 73 60 101 87 96 102 101
109 113 63 44 61 60 54 43 48 75 65 59 13 1 0 0
0 0 0 0 0 0 0 0 0 0 0 10 14 0 0 0
73 84 102 71 79 100 85 66 61 67 95 118 77 69 90 67
82 52 18 48 24 20 72 78 67 117 75 75 91 100 100 52
57 36 25 66 76 70 59 59 88 66 93 92 85 72 75 101
101 49 33 42 55 82 104 124 123 120 119 115 107 78 79 44
45 64 54 47 55 46 31 54 72 43 47 68 82 64 59 103
82 108 124 101 88 96 67 26 53 52 56 92 76 93 121 105
93 91 46 43 76 63 50 44 82 36 85 43 39 1 0 0
