P2
128 120
156
32 68 71 67 64 62 61 63 63 64 67 72 74 55 51 48
49 48 48 47 47 47 47 46 46 46 45 45 45 44 44 43
43 43 43 43 42 41 40 40 39 39 38 38 37 36 35 35
35 34 34 33 33 32 32 31 31 30 29 29 28 27 27 26
26 26 25 25 25 26 26 30 30 30 29 21 19 18 29 28
27 27 26 25 26 24 23 23 21 22 23 26 26 26 26 27
27 27 28 28 29 29 30 29 30 30 30 31 31 31 32 31
32 32 33 33 34 35 35 35 36 36 36 37 37 38 37 38
26 59 63 27 5 7 10 12 12 10 9 44 70 68 70 65
58 49 48 47 46 46 47 46 46 45 45 45 45 44 44 43
43 43 42 42 41 41 40 40 40 38 38 38 37 37 36 35
35 34 34 34 33 33 32 31 31 31 30 30 29 28 27 27
27 26 25 25 25 26 27 30 30 30 29 22 21 19 29 28
28 27 26 26 25 24 24 23 22 22 23 26 27 27 28 27
28 28 29 29 28 28 29 29 29 30 30 31 31 32 33 32
32 33 34 34 34 35 35 36 36 37 37 37 37 38 38 38
22 54 57 26 0 0 0 11 1 0 0 32 66 59 62 55
55 50 52 60 61 60 57 51 47 45 45 45 45 44 44 44
43 43 42 42 41 41 40 40 39 39 38 38 37 37 36 36
35 34 34 34 34 33 32 32 32 31 31 30 30 29 28 27
27 26 26 26 26 26 28 31 31 31 30 23 21 21 27 28
28 27 26 26 26 25 25 25 23 22 25 27 28 28 28 28
28 28 28 28 29 29 30 30 30 31 31 32 32 32 33 33
33 33 34 34 35 35 35 36 36 37 37 38 38 39 38 39
18 54 57 29 0 0 0 15 6 0 0 23 64 59 58 12
8 20 32 45 53 59 61 62 51 45 45 45 45 44 44 44
44 43 42 42 42 41 41 40 40 39 39 38 38 38 36 37
36 35 35 34 34 33 33 32 32 31 31 31 30 29 29 28
27 27 27 26 26 27 28 32 32 32 30 24 22 23 27 29
28 29 28 27 26 26 26 24 23 22 25 27 28 28 28 28
30 29 30 30 31 31 30 31 31 31 32 31 32 32 33 33
34 34 34 35 35 35 36 36 36 36 37 38 38 39 39 38
17 52 57 31 0 0 1 5 2 0 0 18 64 60 55 9
0 0 0 0 3 8 35 62 52 45 45 44 44 44 44 43
43 43 42 43 42 42 41 40 40 40 39 38 38 38 37 36
36 36 35 34 34 34 33 33 33 32 32 31 30 29 29 29
28 28 27 26 26 27 29 32 33 33 31 25 23 25 26 31
29 29 28 28 27 27 26 26 25 22 23 27 29 29 29 30
30 29 30 30 31 30 31 31 31 32 33 32 33 33 34 33
34 34 35 35 35 35 36 36 37 37 38 37 38 39 39 39
13 49 56 35 0 2 8 13 9 0 3 13 61 59 53 10
0 0 0 0 0 0 25 62 51 45 45 45 45 44 44 43
43 43 42 42 41 41 41 40 40 39 39 38 38 38 37 37
37 36 36 35 35 34 34 33 32 32 31 31 30 31 30 29
29 28 28 27 27 27 29 32 33 32 31 25 23 28 24 30
30 29 29 28 28 28 26 26 25 22 26 28 29 29 29 30
31 30 31 31 31 31 32 31 32 32 32 32 33 32 34 34
34 35 35 35 35 36 37 37 37 37 38 38 38 38 39 38
12 48 59 47 0 21 13 1 3 0 4 7 59 58 53 11
0 0 7 1 0 0 23 61 52 45 45 45 45 44 44 43
43 42 42 42 41 41 41 40 40 39 40 39 38 38 38 37
37 36 36 34 35 35 34 34 33 32 32 32 31 31 31 29
29 28 28 27 27 28 29 32 33 33 33 25 23 29 24 31
30 30 29 28 28 28 26 26 26 22 27 29 29 30 31 31
31 31 31 31 31 31 32 32 32 32 33 33 34 34 34 34
35 34 35 35 36 36 36 37 37 37 38 37 37 36 37 39
16 49 62 54 2 22 6 1 4 0 3 5 59 60 55 12
1 13 17 6 0 0 21 60 51 44 45 45 44 44 43 43
43 43 42 42 42 42 41 41 40 40 40 39 38 38 37 37
37 36 36 36 35 35 34 34 34 33 32 32 32 31 31 30
30 29 29 28 29 28 29 34 33 33 33 25 24 31 23 31
31 30 29 28 28 29 27 27 26 22 28 29 30 30 31 31
32 31 31 31 32 32 32 33 33 33 33 34 34 34 35 35
35 35 36 36 36 37 37 37 37 37 37 38 39 39 39 39
17 47 59 60 12 16 6 0 0 0 6 6 54 60 55 12
0 7 11 6 0 0 21 59 51 45 45 45 44 44 43 43
43 43 43 42 42 41 41 40 40 40 40 39 39 39 37 38
37 37 36 35 35 35 35 35 34 34 33 33 32 32 31 31
30 29 29 28 28 28 30 34 33 33 33 26 24 32 23 31
31 31 30 30 29 29 27 28 27 23 28 29 30 31 31 31
32 32 32 32 33 32 32 32 33 33 33 34 35 35 36 35
36 35 35 35 36 36 37 38 38 39 39 39 39 39 39 40
25 44 53 59 15 13 4 4 0 0 0 3 49 58 54 13
0 2 8 11 3 0 20 59 50 44 44 44 44 44 43 43
43 43 43 42 42 42 41 41 40 39 40 39 39 39 38 37
38 37 37 36 36 35 36 35 34 34 34 33 32 32 32 31
30 30 29 29 29 29 30 34 34 34 34 27 24 32 23 31
31 31 31 30 29 29 28 28 28 23 29 30 32 31 31 32
32 31 33 33 33 33 34 33 34 34 34 34 35 34 34 34
35 35 35 36 37 37 39 38 39 39 40 39 39 39 39 39
59 44 44 51 16 13 5 10 8 7 9 11 44 56 57 16
0 2 8 15 5 0 19 59 51 44 45 44 45 44 44 43
43 43 43 42 41 41 41 41 40 40 40 40 39 39 38 37
38 37 37 36 35 35 35 35 35 35 34 33 34 33 32 32
31 31 30 29 29 30 30 34 35 35 34 28 25 33 25 32
33 32 31 31 29 28 28 28 28 23 29 30 32 32 32 33
34 33 33 34 34 34 34 34 34 34 34 35 35 35 36 36
36 37 37 37 37 37 39 38 39 38 39 40 40 40 40 40
55 46 41 44 41 41 44 46 45 44 45 42 42 49 59 18
0 2 7 7 8 4 19 58 51 45 44 44 44 43 43 43
43 43 43 42 42 42 42 42 41 40 41 40 39 39 38 37
37 36 35 34 35 35 35 35 35 35 34 33 32 32 32 31
31 30 30 30 30 30 31 35 36 36 35 28 24 34 27 30
33 32 31 31 30 29 29 29 29 24 30 31 33 33 33 33
34 33 33 34 33 34 34 34 35 35 35 35 36 35 36 37
36 37 37 38 38 38 39 39 39 40 39 40 41 40 40 39
27 29 31 34 34 33 31 33 32 32 33 34 33 39 53 35
18 14 10 7 9 15 30 58 49 44 45 44 44 44 44 43
43 42 42 42 42 41 41 41 41 40 40 40 39 39 38 37
37 36 34 31 33 35 34 34 34 33 33 33 32 32 31 31
30 30 29 29 30 29 31 35 35 35 33 28 25 34 30 29
33 32 32 32 30 30 29 29 29 25 30 30 33 33 33 33
33 33 33 33 34 33 34 35 35 35 35 35 36 36 36 37
37 37 38 39 39 39 40 39 39 40 39 39 40 40 40 40
21 22 22 22 23 23 25 26 29 35 40 44 45 38 38 39
41 43 43 41 38 35 41 55 48 45 45 45 44 44 44 43
43 42 42 42 43 42 42 41 41 41 40 39 39 39 38 37
35 34 32 33 32 34 34 32 32 33 33 32 31 33 32 31
30 27 25 25 29 27 30 32 35 34 35 28 26 34 32 28
33 32 32 31 30 30 30 30 30 26 31 30 32 33 32 33
33 33 33 34 34 34 34 35 36 35 36 36 36 36 37 37
37 37 38 38 38 39 40 39 40 40 40 40 40 40 40 40
22 21 21 21 21 20 21 20 21 21 22 23 26 26 26 27
29 33 36 39 42 45 46 47 45 45 45 45 44 44 44 44
43 43 43 42 41 41 41 41 41 40 40 40 40 39 38 37
34 36 33 34 30 30 31 32 32 28 28 27 30 29 29 27
22 22 22 21 21 23 23 29 30 29 29 25 24 34 35 25
33 33 32 32 32 31 29 30 29 24 31 30 33 33 33 34
35 34 34 35 35 35 35 36 36 35 36 35 35 36 37 38
37 38 39 39 39 39 40 40 40 39 40 40 40 39 40 40
38 32 25 27 23 19 21 20 21 21 21 22 22 21 21 20
21 23 24 27 31 35 39 43 45 46 45 45 45 44 45 44
43 43 43 42 42 42 42 42 41 41 41 41 40 40 38 36
35 31 32 31 28 29 26 30 30 31 33 29 28 24 18 8
7 9 8 10 14 16 19 24 28 30 31 28 20 29 35 25
34 34 33 32 32 30 31 31 30 27 32 31 35 34 34 34
34 34 34 35 35 35 35 35 36 36 36 36 37 37 37 38
38 38 38 38 39 39 40 39 39 40 41 40 41 41 40 40
36 41 46 34 42 34 29 24 26 32 29 27 26 23 22 20
20 20 19 20 20 19 22 23 26 31 35 38 42 44 44 45
43 43 43 42 42 41 41 41 41 41 41 40 39 39 36 36
34 30 30 30 29 28 29 23 25 29 31 29 18 8 1 2
0 0 0 0 0 2 6 9 13 16 19 26 21 27 33 25
34 34 34 33 32 31 32 31 31 27 32 31 34 34 35 34
34 35 35 35 35 35 36 36 37 36 36 36 36 37 37 37
37 38 39 40 39 39 40 40 40 40 40 40 40 39 38 38
25 26 34 36 53 52 51 49 42 41 42 43 49 60 50 22
20 19 19 19 19 19 20 20 19 21 20 20 22 24 27 31
35 41 42 42 41 41 42 41 41 41 41 40 39 35 34 31
29 28 25 23 24 22 17 12 12 19 18 14 4 0 0 0
0 0 0 0 0 0 1 1 4 8 15 13 19 25 33 25
31 34 33 33 32 31 31 31 31 28 31 31 34 34 34 34
35 35 35 35 35 35 36 36 37 36 36 37 36 36 38 37
37 38 38 38 39 38 38 38 38 38 39 39 39 40 41 40
21 21 22 23 46 15 2 3 12 40 39 40 46 63 64 52
46 40 39 38 35 30 27 21 20 19 19 19 20 20 14 11
19 38 42 42 42 42 41 40 40 40 39 38 37 34 33 28
29 29 21 14 8 3 1 2 1 4 7 4 0 0 0 0
0 0 0 0 0 0 0 0 0 0 2 5 9 23 29 21
30 33 33 32 32 31 31 30 30 27 30 30 34 34 34 34
34 35 35 35 35 35 36 36 37 36 36 36 36 36 37 37
37 38 37 37 37 38 38 37 38 38 38 38 38 38 39 40
21 21 22 23 44 15 0 0 10 42 39 42 47 59 63 61
60 57 51 60 58 55 50 26 32 30 26 19 19 19 17 16
20 37 42 42 42 41 40 39 40 40 39 37 36 32 23 19
15 7 4 0 0 0 0 0 0 0 1 0 0 0 0 0
0 0 0 0 0 0 0 0 0 0 0 0 0 11 28 25
28 34 33 33 32 31 31 31 31 28 30 31 34 35 34 35
35 35 35 36 35 36 36 36 37 37 37 36 36 36 37 37
37 38 38 38 38 37 38 38 38 38 38 39 38 38 39 40
25 24 23 25 48 17 0 0 4 16 17 19 33 55 60 62
63 55 55 56 60 59 55 34 43 49 47 43 45 39 27 15
19 36 42 42 42 41 41 49 48 46 42 37 28 18 13 3
0 0 0 0 0 0 0 0 0 0 0 0 0 0 0 0
0 0 0 0 0 0 0 0 0 0 0 0 0 0 9 23
25 32 33 33 33 32 32 31 32 30 32 31 35 35 35 35
36 36 36 36 36 36 36 36 36 36 36 36 36 37 37 38
37 37 38 38 39 38 39 38 38 38 38 39 39 39 38 40
17 23 22 24 51 18 0 0 9 13 4 0 20 58 55 26
36 36 42 48 55 58 56 41 47 52 50 50 57 57 48 18
22 38 43 43 42 42 42 53 51 45 37 29 14 8 2 0
0 0 0 0 0 0 0 0 0 0 0 0 0 0 0 0
0 0 0 0 0 0 0 0 0 0 0 0 0 0 2 10
21 32 35 34 33 33 32 32 32 30 32 32 36 36 37 37
36 36 37 37 37 36 36 37 37 37 37 38 37 38 38 40
38 38 39 38 39 39 39 39 39 38 39 39 39 39 39 41
0 4 6 8 51 18 2 4 21 32 4 1 20 58 54 6
11 4 1 4 10 14 48 45 49 53 54 56 58 58 52 20
22 41 45 44 44 42 42 47 46 42 35 16 4 0 0 0
0 0 0 0 0 0 0 0 0 0 0 0 0 0 0 0
0 0 0 0 0 0 0 0 0 0 0 0 0 0 3 1
14 32 35 34 34 35 33 33 33 32 32 32 36 36 36 37
36 36 36 37 37 37 37 37 37 38 38 38 37 38 38 40
38 38 39 39 39 39 39 39 39 39 39 39 39 39 40 41
0 0 1 7 51 21 8 15 27 44 31 3 18 60 55 7
0 1 0 2 13 4 44 45 50 50 54 56 57 58 54 23
22 44 48 45 45 45 40 36 23 25 15 3 0 0 1 0
0 0 0 0 0 0 0 0 0 0 0 0 0 0 0 0
0 0 0 0 0 0 0 0 0 0 0 0 0 0 2 0
3 28 34 31 34 34 33 33 33 31 31 31 35 36 36 37
37 38 38 37 37 36 37 37 37 37 37 37 38 37 38 40
39 39 40 39 39 39 39 40 39 40 40 39 39 40 39 41
0 0 0 5 55 23 8 22 37 34 23 16 12 60 57 9
0 1 0 11 22 12 46 33 29 38 47 53 55 54 52 23
22 42 49 40 40 44 40 28 0 1 2 0 0 1 3 0
0 0 0 0 0 0 0 0 0 0 0 0 0 0 0 0
0 0 0 0 0 0 0 0 0 0 0 0 0 0 0 0
0 16 34 35 34 35 33 34 34 33 32 33 37 37 37 37
38 39 38 38 38 38 38 38 38 38 39 38 38 38 38 38
40 39 39 39 39 39 39 40 40 40 39 40 40 40 40 42
1 0 0 7 57 25 1 13 32 34 22 9 11 60 61 13
0 2 0 8 17 12 45 22 0 4 9 14 22 23 49 26
22 36 45 47 44 39 37 33 1 3 0 0 0 2 0 0
0 0 0 0 0 0 0 0 0 0 0 0 0 0 0 0
0 0 0 0 1 0 0 1 1 0 0 0 0 0 1 6
7 10 31 35 35 35 35 34 34 33 32 34 37 38 38 39
38 39 38 38 39 39 39 39 38 38 39 39 39 39 39 39
41 40 41 40 40 40 40 41 40 40 40 40 40 40 41 41
3 3 1 8 58 28 0 0 5 11 2 0 10 61 63 14
0 1 0 1 0 1 46 21 0 0 0 0 0 0 42 26
20 5 6 14 23 22 30 20 3 0 0 0 0 0 1 0
0 0 0 0 0 0 0 0 0 0 0 0 0 0 0 0
0 0 0 0 0 0 0 0 1 1 0 0 0 0 0 1
3 10 25 34 35 35 35 34 35 34 32 35 38 39 39 39
38 39 38 38 38 38 39 38 38 39 39 39 40 40 40 41
41 39 40 41 40 40 41 41 41 41 41 41 41 42 41 42
0 0 0 4 47 31 0 0 0 0 0 0 8 60 64 18
0 1 1 12 0 0 45 21 4 0 4 0 0 0 42 27
20 3 0 0 0 0 3 8 1 0 0 0 0 0 0 0
0 0 0 0 1 0 0 0 0 0 0 0 0 0 0 0
0 0 0 0 0 0 0 0 0 1 2 0 0 0 0 0
0 0 12 34 35 35 36 35 35 34 31 35 38 39 39 39
39 40 39 39 39 39 39 39 39 39 39 39 40 39 40 40
40 40 40 41 41 41 42 42 42 42 41 41 41 41 40 42
0 0 0 6 47 32 0 0 0 0 0 0 6 59 65 23
0 16 15 28 2 1 45 22 5 2 19 8 0 0 42 28
20 2 0 0 0 0 0 0 0 0 0 0 1 0 0 0
0 0 0 0 0 0 0 0 0 0 0 0 0 0 0 0
0 0 0 0 0 0 1 3 0 0 1 0 0 0 0 0
0 0 8 13 33 34 35 34 35 33 31 35 38 39 39 40
40 39 39 39 39 39 39 39 40 39 40 40 41 41 41 41
42 41 41 41 42 42 42 41 41 41 42 41 42 42 42 43
0 1 1 8 50 43 21 18 17 16 13 11 14 59 66 29
3 2 2 9 3 1 45 22 5 3 10 17 0 0 40 27
21 3 0 0 1 1 0 1 0 0 0 1 1 0 0 0
0 0 0 0 0 0 0 0 0 0 3 6 7 1 0 0
0 0 0 0 0 0 0 0 3 2 0 0 0 0 0 0
0 0 6 16 20 31 36 34 36 35 30 37 37 39 39 39
39 40 39 39 40 39 40 40 40 40 40 40 40 41 41 40
41 40 40 41 41 41 42 42 42 42 41 41 42 41 42 42
0 1 0 5 48 61 60 57 54 51 48 44 42 47 50 21
1 4 12 6 0 0 43 20 3 5 0 5 0 0 41 27
20 5 0 1 6 2 1 0 0 0 0 0 2 0 0 0
0 0 0 0 0 0 0 0 0 1 11 13 13 8 5 0
0 0 0 0 0 0 0 0 0 1 1 1 0 0 0 2
0 0 2 15 23 26 35 34 35 34 30 37 38 40 39 39
40 40 39 40 40 40 40 39 40 40 40 41 40 40 40 41
41 41 41 42 42 42 42 43 42 42 43 43 42 42 42 42
0 0 0 3 55 59 44 46 44 47 52 52 44 31 29 5
2 1 10 4 0 0 42 18 0 8 2 0 0 0 41 26
20 5 7 5 5 1 2 0 0 0 0 0 0 0 0 0
0 0 0 0 0 0 0 0 0 0 13 20 18 12 6 0
1 0 0 0 0 0 0 0 0 1 2 1 0 0 0 0
0 0 0 8 23 25 32 34 35 33 31 38 38 40 40 40
41 41 41 41 40 40 41 41 41 41 42 42 41 41 41 40
41 41 42 42 43 43 43 43 42 43 43 43 42 43 43 42
0 0 0 3 57 44 0 1 3 7 14 21 36 47 42 51
48 42 40 34 25 22 46 23 2 6 2 2 0 0 42 27
21 8 4 1 4 1 0 0 0 0 0 0 0 0 0 0
0 0 0 0 0 1 0 0 0 1 12 24 24 13 10 0
2 0 0 0 0 0 0 0 0 1 1 1 0 0 0 0
0 0 0 1 9 20 26 31 33 33 32 37 38 41 40 40
40 41 41 41 41 41 42 41 42 41 41 41 42 42 42 41
41 42 42 43 43 43 42 43 43 42 41 41 40 40 41 40
0 0 0 4 56 46 2 0 0 2 0 0 8 58 52 29
34 39 48 53 56 57 51 61 45 33 40 39 35 32 45 25
20 6 1 1 0 1 1 1 0 0 0 0 0 0 0 0
0 0 0 4 1 2 0 0 1 2 13 30 27 14 12 2
2 0 0 0 0 0 0 0 0 1 1 0 4 0 0 0
0 0 0 0 1 6 14 28 36 35 32 38 38 40 39 40
40 41 40 41 41 41 41 41 42 43 42 42 41 40 42 41
42 42 42 42 43 42 42 42 42 41 42 42 39 40 37 34
4 0 0 11 56 47 7 0 1 4 8 0 6 58 56 20
14 21 23 21 13 32 66 71 48 42 53 58 56 56 52 25
19 4 0 2 3 1 0 0 0 1 0 0 0 2 1 0
0 1 2 2 4 2 0 0 5 7 23 40 37 26 22 10
7 7 1 0 0 0 0 0 0 0 1 0 3 1 0 0
0 0 0 0 0 0 2 17 34 34 31 38 38 41 40 40
40 41 40 40 41 41 40 39 40 41 40 39 40 42 42 41
42 42 44 44 43 42 40 39 36 32 35 40 24 20 21 21
18 6 5 27 56 46 13 14 3 21 19 3 4 56 56 15
10 14 10 11 1 27 69 66 42 43 54 57 58 60 55 25
19 11 4 3 2 3 2 0 0 0 0 0 0 3 0 1
1 2 2 3 4 2 2 2 11 12 35 50 53 37 36 21
17 10 2 0 0 0 0 0 1 0 0 1 1 1 0 0
0 0 0 0 2 1 4 6 23 35 32 39 38 41 40 41
40 40 39 40 41 41 39 39 40 41 36 14 39 43 42 42
41 38 35 31 27 24 22 22 22 21 25 41 20 23 26 27
16 5 11 38 57 43 26 37 16 21 10 2 3 56 57 6
1 9 0 0 0 26 66 52 21 25 36 39 43 46 54 27
20 32 30 14 10 0 0 0 0 0 0 0 0 0 3 0
2 5 4 5 6 3 2 5 26 19 44 56 64 45 44 40
27 20 11 2 0 0 1 0 1 0 1 0 0 2 0 0
0 0 0 1 0 0 0 1 19 32 32 39 37 40 40 39
39 39 39 38 37 38 40 41 40 32 8 24 34 31 28 25
23 22 23 23 25 26 27 27 29 29 27 36 23 29 33 34
6 8 14 48 61 39 15 13 4 14 30 10 4 54 54 4
0 0 1 0 0 24 66 52 6 0 0 0 0 4 41 28
20 36 38 20 14 1 0 0 0 0 0 0 0 1 1 2
4 4 4 5 7 3 1 16 28 22 49 67 70 50 43 55
36 21 13 7 1 3 5 1 0 0 4 0 1 0 0 0
0 0 0 0 0 0 0 0 10 31 31 36 35 37 37 36
36 35 36 36 25 30 34 30 23 11 18 24 24 25 26 27
28 29 30 30 32 33 33 35 35 35 33 41 28 36 38 38
41 48 46 54 63 50 25 20 18 26 24 13 5 54 53 5
11 3 0 0 0 18 65 55 5 0 0 0 0 1 37 28
20 33 37 30 10 0 0 0 0 0 0 0 0 0 0 3
6 3 3 5 6 2 6 24 19 27 58 72 79 63 49 72
36 28 17 12 3 0 1 1 0 0 0 0 0 1 0 1
0 0 1 0 0 0 0 0 1 26 32 33 35 35 35 34
32 29 27 26 21 22 24 15 20 16 29 30 31 32 33 34
34 34 36 37 38 38 39 39 40 38 27 17 17 38 40 41
28 51 43 12 51 60 49 30 53 52 21 4 6 59 56 10
37 8 0 0 0 12 60 51 4 0 0 2 25 27 37 36
28 28 27 26 2 0 0 0 0 0 0 0 0 0 0 6
4 0 6 9 7 8 14 21 22 37 57 72 80 81 67 79
56 36 23 19 8 1 0 4 4 1 0 0 0 1 0 1
2 0 0 0 0 0 0 0 0 8 21 27 27 25 24 24
25 26 27 28 28 29 19 25 30 26 36 37 37 37 38 39
39 39 39 39 39 38 40 40 40 39 22 6 6 37 42 43
35 39 29 1 36 56 46 11 49 53 23 3 5 60 60 9
24 10 0 0 0 10 55 46 3 0 0 3 31 34 32 35
29 26 18 14 0 0 0 0 0 0 0 0 0 0 1 0
0 0 5 9 10 21 18 18 25 54 58 88 89 90 89 82
69 41 30 21 14 5 3 3 3 3 1 0 0 0 0 3
1 0 0 0 0 0 0 0 1 3 18 22 20 25 28 29
29 31 33 34 36 27 25 39 38 18 21 22 21 14 19 37
41 40 41 32 8 6 12 15 14 27 20 12 5 35 42 43
53 38 33 4 24 53 36 2 37 41 16 7 5 60 61 10
6 9 0 0 0 11 54 45 2 3 1 0 21 27 32 33
27 22 16 8 0 0 0 0 0 0 0 0 0 0 1 1
1 5 2 8 24 29 24 21 48 60 75 98 98 100 102 91
80 63 39 18 13 8 5 1 0 0 1 0 0 0 0 0
1 0 0 0 0 0 0 0 5 2 21 27 25 31 34 35
36 37 38 38 36 23 36 32 42 16 1 0 0 0 20 26
27 6 5 3 4 6 0 0 0 5 20 0 2 34 42 43
38 54 52 29 19 41 32 1 25 34 5 1 4 59 60 10
0 0 0 0 0 13 56 45 2 3 2 0 0 0 16 22
22 21 9 3 0 0 0 0 0 0 0 0 0 0 1 1
4 5 6 17 39 32 25 41 74 77 91 98 103 107 114 106
87 82 76 45 16 13 7 1 0 0 0 0 0 0 0 0
0 0 0 0 0 0 0 0 13 3 26 31 28 36 37 38
38 38 38 37 24 16 3 0 36 35 2 0 0 0 0 0
0 0 0 0 0 13 0 0 0 0 22 1 4 34 43 42
9 12 21 9 1 3 20 26 8 15 3 4 7 55 57 9
0 0 0 0 0 15 58 45 2 1 8 2 0 0 21 27
30 23 0 2 0 0 0 0 0 0 0 0 0 0 1 0
3 6 11 12 23 16 28 53 86 91 100 102 113 118 120 118
109 88 87 82 51 17 13 2 0 0 0 0 0 0 0 0
0 0 0 0 0 0 0 1 14 6 30 33 32 39 39 40
40 40 40 33 6 12 18 8 3 4 0 0 0 0 0 0
0 0 0 1 0 8 0 0 0 0 27 3 5 35 42 43
46 5 0 0 0 0 0 7 10 3 12 46 44 54 52 16
6 3 2 0 0 18 59 45 1 0 4 10 0 0 23 35
30 17 0 2 0 0 0 0 0 1 2 0 0 0 0 1
5 8 7 8 9 15 24 29 35 62 83 107 122 121 124 120
118 109 87 74 60 29 14 8 1 0 0 0 0 0 0 0
0 0 0 0 0 0 0 0 13 9 31 33 35 40 40 40
41 41 40 23 18 40 21 19 28 23 20 20 20 20 16 9
16 4 0 2 0 0 0 0 0 2 32 13 16 37 43 43
55 13 2 0 4 0 0 1 19 34 21 55 58 58 50 53
53 45 35 40 31 34 52 44 6 0 1 16 5 1 21 40
26 5 0 1 0 0 0 0 2 1 1 0 0 1 1 0
5 19 22 17 19 24 33 30 32 36 53 96 121 120 124 120
113 102 76 42 21 10 8 9 1 0 0 0 0 0 0 0
0 0 0 0 0 0 0 1 11 13 32 33 36 41 41 40
41 40 34 10 28 24 35 42 42 43 42 42 41 42 41 25
21 6 0 2 0 0 0 0 1 20 33 31 31 40 43 43
51 3 0 0 9 22 21 42 51 60 56 58 60 62 59 48
39 29 26 34 32 31 42 42 33 18 13 25 22 13 24 40
21 0 1 0 0 0 0 0 3 2 0 0 0 0 3 5
16 37 44 41 51 60 46 50 52 54 67 87 107 117 120 115
104 79 64 40 29 23 20 14 10 9 7 0 0 0 0 0
0 0 0 0 0 0 0 3 9 24 34 34 38 41 41 41
41 39 12 32 33 41 42 42 42 42 42 42 43 42 40 16
0 0 0 1 0 26 39 39 38 38 35 35 38 42 43 43
59 26 5 3 25 58 55 55 42 58 58 50 55 58 59 21
1 0 0 5 20 8 39 42 42 42 41 47 50 49 50 48
27 1 0 0 0 0 0 0 0 1 1 1 0 1 12 17
32 55 63 72 94 102 102 89 83 82 79 87 97 111 112 108
95 72 63 55 58 61 63 58 31 23 16 0 0 0 0 0
0 0 0 0 0 0 0 2 19 31 34 34 37 41 41 41
40 22 23 42 43 43 42 42 42 42 43 42 42 42 37 1
0 7 9 0 0 28 43 42 40 39 38 37 42 43 43 42
60 57 51 48 54 56 52 31 12 40 36 9 7 10 40 21
0 1 1 5 21 19 42 44 28 5 8 17 25 41 54 49
28 3 0 0 1 0 0 0 0 0 1 0 2 5 18 30
45 75 89 104 109 110 108 106 105 100 98 96 104 110 108 102
93 80 82 83 91 102 107 93 62 37 20 13 1 0 0 0
0 0 0 0 0 0 0 7 28 33 34 34 38 41 40 41
31 12 41 41 42 42 42 42 42 41 42 42 42 42 39 3
0 3 12 0 0 25 42 42 41 40 40 40 43 43 42 42
60 60 61 60 59 60 56 36 1 2 4 2 0 0 33 25
0 4 28 20 13 15 44 45 25 2 4 22 13 33 54 45
30 6 1 0 1 0 0 0 0 0 0 1 4 3 19 48
66 86 102 114 116 111 108 105 107 107 106 104 109 113 107 97
86 88 95 98 106 111 119 111 91 63 38 22 10 0 0 0
0 0 0 0 0 0 0 4 32 34 35 34 38 40 41 37
9 36 42 42 42 42 42 42 42 42 41 42 41 41 39 4
0 0 0 0 0 22 43 42 42 40 40 41 41 42 41 41
60 60 61 60 55 29 23 11 0 0 5 7 0 0 33 26
1 27 46 25 9 7 47 47 21 0 8 32 33 44 51 37
29 21 5 0 0 0 0 0 0 0 0 0 6 7 15 60
79 90 100 104 98 76 66 76 98 103 107 109 115 119 114 94
86 90 97 101 102 104 108 102 91 75 56 34 29 5 0 0
0 0 0 0 0 0 0 6 29 35 36 35 38 40 40 24
24 42 42 42 42 42 43 43 42 42 42 42 41 41 39 3
0 0 0 0 0 21 42 42 42 41 42 43 43 43 42 43
58 59 60 61 55 34 38 31 31 24 31 22 0 0 33 27
6 23 48 19 0 5 50 50 21 0 3 14 27 45 53 34
32 28 11 0 0 0 0 0 0 0 0 0 6 24 31 69
83 86 82 52 22 10 15 59 64 96 105 113 122 129 118 92
86 93 96 76 34 24 43 69 81 75 63 49 43 20 0 0
0 0 0 0 0 0 0 7 24 35 36 35 39 41 40 13
39 42 42 41 42 42 42 43 43 42 42 28 16 10 10 0
0 0 0 1 0 20 44 43 43 43 43 44 44 43 43 43
7 9 12 15 23 43 48 35 30 33 36 19 2 0 32 29
2 11 47 19 7 6 51 52 24 0 0 1 5 42 55 34
31 28 13 9 2 0 0 0 0 0 2 3 10 44 70 96
90 73 42 85 57 3 13 91 76 77 105 114 123 134 122 89
90 106 82 82 30 4 11 52 34 65 64 58 55 35 0 0
0 0 0 0 0 0 1 12 22 35 36 35 39 41 41 12
40 42 41 42 43 42 44 43 43 44 40 7 20 4 4 0
0 1 0 4 3 16 43 42 43 44 44 43 43 43 43 43
0 0 0 0 2 35 40 12 0 0 0 0 0 0 30 26
0 0 6 1 11 7 51 53 23 0 0 0 2 38 56 35
31 27 25 26 6 0 0 0 0 0 0 21 35 74 94 100
94 77 77 101 96 74 81 87 85 92 109 116 122 132 121 85
90 116 90 85 62 27 35 79 50 44 60 65 61 45 4 0
0 0 0 0 0 0 8 14 22 35 37 35 39 41 40 13
40 42 42 43 43 43 44 44 44 44 41 44 52 22 36 3
1 0 0 0 0 5 22 40 43 43 43 43 43 43 43 42
0 0 0 0 3 43 51 21 0 0 0 0 0 0 29 30
0 0 0 0 2 4 50 52 20 0 0 0 2 38 59 37
30 30 31 28 1 0 0 0 0 0 2 48 69 89 103 108
106 99 98 110 125 117 108 93 91 109 121 119 117 125 115 86
86 116 100 99 105 103 93 80 63 51 60 72 67 52 13 0
0 0 0 0 0 6 13 15 21 34 37 34 39 40 41 13
40 42 42 43 43 44 43 43 44 43 40 46 52 20 6 0
0 0 0 0 0 9 20 12 34 38 43 43 42 43 43 42
0 0 0 0 3 47 56 31 0 0 0 0 0 0 28 29
0 0 0 0 0 3 49 53 19 0 0 0 1 35 56 33
29 28 26 13 1 1 0 0 0 0 6 52 83 96 108 112
111 113 116 115 113 107 102 105 114 123 124 114 111 120 112 84
82 114 115 100 97 103 103 90 71 70 78 85 73 58 18 0
0 0 0 0 1 17 15 16 22 34 36 34 40 40 40 16
36 42 42 42 43 43 42 42 42 40 37 13 5 7 1 0
0 0 0 0 0 1 11 6 6 30 44 44 43 42 43 42
29 21 31 31 36 56 63 40 0 0 0 0 0 0 25 28
0 0 0 0 0 2 47 53 20 0 0 0 0 31 53 32
29 27 19 1 0 0 0 0 0 0 9 58 84 96 105 112
119 125 128 130 130 126 125 121 127 129 121 111 111 118 115 85
79 103 128 120 118 109 104 99 92 90 88 89 76 56 21 0
0 0 0 0 10 28 17 15 22 34 36 34 40 39 41 23
31 42 42 43 42 42 28 21 18 16 14 3 1 0 0 0
0 0 0 0 0 1 9 9 1 29 44 44 44 43 43 43
44 44 48 48 54 60 40 9 0 0 0 0 0 0 25 29
0 0 2 3 4 9 50 56 23 0 0 0 1 34 59 34
29 27 21 3 0 0 0 0 0 0 12 61 83 97 104 114
124 137 138 135 136 135 135 130 136 133 119 109 109 118 117 87
80 98 127 134 129 129 124 116 109 103 93 89 79 60 24 0
0 0 0 0 20 30 19 15 23 34 36 35 41 40 42 31
25 43 41 38 35 30 11 6 7 7 6 4 8 10 3 1
0 0 0 0 0 0 10 9 1 28 45 44 44 44 44 44
40 45 48 52 58 62 38 7 5 6 3 2 2 2 26 45
33 34 37 42 47 50 53 44 19 2 1 0 0 34 59 34
29 31 27 9 0 0 0 6 12 0 11 57 82 98 108 117
128 141 140 137 136 136 133 136 139 130 116 105 108 118 117 91
78 92 115 135 135 132 127 123 118 109 101 88 80 63 24 0
0 0 0 3 30 32 23 16 22 33 36 34 40 37 33 26
11 16 11 8 7 8 9 10 12 12 12 12 11 4 12 11
0 0 0 0 0 0 10 9 2 24 44 45 44 44 43 43
12 4 8 14 21 55 52 47 48 46 44 41 41 42 49 53
52 52 53 54 55 55 51 44 41 39 36 33 26 41 50 38
36 37 28 6 4 5 0 6 16 0 13 53 81 97 109 120
130 142 141 138 136 132 135 136 134 132 118 107 108 119 117 94
79 85 104 124 138 135 131 131 123 115 104 92 79 62 24 0
0 0 0 20 36 33 23 17 21 33 35 29 15 7 7 7
9 10 12 13 14 14 14 15 14 14 15 12 6 0 9 22
0 0 0 0 0 0 9 7 8 20 43 43 42 41 41 41
23 0 0 3 9 51 59 59 58 58 57 55 57 58 55 47
42 48 50 49 49 48 49 48 49 48 48 47 47 47 46 44
42 35 28 10 7 12 0 15 32 0 16 61 76 95 108 119
129 140 143 140 135 134 135 135 132 129 115 105 108 119 121 99
81 80 99 120 139 139 135 132 125 115 104 93 79 59 23 0
0 0 0 20 36 33 25 17 20 32 35 26 12 12 13 12
13 13 15 14 14 13 11 10 8 7 14 12 7 2 8 11
0 0 0 1 2 2 4 14 20 23 40 42 44 43 43 43
13 0 0 3 10 53 61 61 59 61 59 59 61 59 37 27
31 45 47 47 47 46 46 47 46 46 46 46 46 46 45 43
35 36 32 13 10 13 0 18 27 2 20 65 78 94 108 119
129 140 141 140 135 136 134 135 133 125 110 104 109 120 124 106
83 77 97 113 136 138 136 129 121 114 104 93 76 60 20 0
1 0 0 14 35 34 24 16 17 31 33 18 14 13 11 8
7 5 4 2 1 0 0 0 0 2 15 14 11 7 15 3
0 0 0 1 3 0 9 11 11 16 39 43 43 42 43 43
0 0 0 2 10 53 54 49 46 45 44 44 49 45 25 26
30 44 47 47 45 45 45 45 43 42 42 42 42 41 39 38
38 38 35 14 6 11 0 9 50 7 18 60 78 91 106 117
133 139 141 144 142 140 139 137 133 125 100 102 112 123 127 109
85 72 95 110 121 137 135 128 121 112 104 91 75 56 17 1
2 0 0 11 34 34 25 18 16 31 32 18 14 13 1 0
0 0 0 0 0 0 0 0 0 5 16 15 13 9 4 5
5 5 8 6 7 10 19 20 19 20 35 36 33 33 38 43
0 0 0 0 9 52 28 3 8 5 4 4 14 11 25 26
30 42 46 37 18 13 12 11 9 9 8 7 6 5 5 5
4 4 3 1 0 0 0 1 54 23 16 57 76 90 104 116
129 139 145 147 145 142 141 136 130 111 96 106 119 131 132 114
96 78 87 105 115 133 138 126 119 114 104 90 75 52 13 4
5 0 0 9 33 33 25 18 14 30 32 20 14 12 0 0
0 0 0 0 0 0 0 0 0 8 15 14 12 23 32 24
26 29 30 25 26 29 23 23 22 15 12 27 11 18 32 42
0 0 0 0 6 53 27 0 2 0 1 0 11 9 23 26
28 41 46 37 10 0 0 0 0 0 0 0 0 0 0 0
0 0 0 0 0 0 0 0 41 70 39 48 74 86 102 115
124 134 145 145 146 140 139 135 126 97 106 112 126 142 138 129
97 81 82 99 108 117 136 130 120 113 102 88 72 48 11 5
0 0 1 15 32 33 25 19 13 28 30 17 14 8 0 0
0 0 0 0 0 0 0 0 0 12 16 14 11 26 31 20
24 31 38 36 41 50 51 41 23 9 30 88 17 16 29 42
0 0 0 0 6 51 29 0 3 0 3 6 18 21 24 25
28 39 46 40 16 0 0 0 0 2 1 2 2 2 1 1
1 1 1 1 0 0 0 0 12 63 69 38 70 81 100 113
125 133 140 145 144 142 139 131 105 97 107 119 118 128 127 118
92 78 78 92 104 106 123 131 122 112 103 86 68 44 10 6
0 1 8 17 33 32 24 20 11 26 26 15 14 5 0 0
0 0 0 0 0 0 0 0 0 15 16 15 12 22 20 23
27 34 77 80 83 95 93 70 22 13 72 109 57 19 28 42
0 0 0 0 3 49 29 0 3 3 15 20 20 18 23 24
28 38 46 42 22 0 1 1 1 2 3 2 2 2 2 2
1 1 2 1 1 1 0 0 5 75 82 47 70 80 98 112
121 128 138 140 143 139 136 129 89 96 104 105 98 108 110 97
70 67 77 93 100 103 114 128 122 111 100 82 64 40 33 13
0 7 15 20 31 31 25 20 11 24 24 14 14 1 0 0
0 0 0 0 0 0 0 0 3 16 15 16 14 18 29 26
30 35 66 73 65 71 68 48 26 23 81 50 48 24 26 42
0 0 0 0 2 45 30 0 1 9 18 18 19 18 23 25
27 36 45 42 26 1 0 1 2 2 3 3 3 3 3 3
2 2 2 2 1 1 1 0 7 85 92 56 66 76 95 109
119 125 132 137 139 135 132 130 92 89 86 32 49 88 85 68
42 29 72 103 99 103 110 121 116 108 97 78 60 38 51 17
0 8 19 35 43 44 41 37 36 37 22 13 13 0 0 0
0 0 0 0 0 0 0 0 6 16 14 17 13 3 24 34
36 34 23 23 23 20 23 23 22 22 23 21 21 21 23 42
0 0 0 0 3 44 29 0 0 7 18 18 19 18 21 23
27 35 44 43 28 1 1 2 2 2 3 3 3 3 2 2
2 3 2 1 1 1 2 3 1 48 83 45 64 77 94 109
116 123 130 135 136 134 132 133 116 96 78 67 82 74 59 60
58 58 89 105 101 105 113 120 115 106 93 76 55 34 33 7
0 7 28 52 58 57 57 54 53 44 19 14 10 0 0 0
0 0 0 0 0 0 0 0 10 17 15 18 9 0 26 34
37 33 22 21 22 16 15 15 20 22 22 21 22 22 26 42
0 0 0 0 3 42 29 0 0 5 18 19 20 18 21 24
27 33 44 43 31 3 1 1 1 1 2 2 2 3 2 2
2 3 3 2 2 1 2 4 20 1 13 8 56 75 94 108
115 122 127 133 136 135 133 135 134 129 113 92 100 109 98 87
65 81 97 105 113 117 118 119 112 102 89 74 52 23 2 4
1 8 42 58 62 58 58 54 53 38 16 14 6 0 0 0
0 0 0 0 0 0 0 0 14 17 15 16 4 0 8 9
33 32 23 21 14 16 16 17 22 23 23 23 21 21 21 41
22 19 18 18 21 45 32 1 0 6 18 19 19 18 21 23
25 31 43 42 32 5 2 2 2 2 2 2 2 2 2 2
1 2 2 1 1 1 2 3 33 27 20 3 44 73 91 106
112 120 125 130 135 135 133 134 135 126 119 108 111 114 110 99
74 87 102 105 111 117 115 113 107 98 87 69 49 15 6 13
7 11 50 60 61 58 57 56 54 31 15 14 3 0 0 0
0 0 0 0 0 0 0 1 16 15 15 14 1 0 2 2
33 30 23 19 13 18 15 17 23 24 24 22 21 21 16 39
44 42 42 43 42 40 35 2 0 7 17 18 19 17 20 22
25 30 42 42 34 7 1 2 2 1 2 2 2 2 2 2
2 2 2 1 1 1 1 1 31 39 26 1 24 69 90 103
109 119 123 127 132 136 134 133 131 121 114 111 117 114 114 108
86 90 96 99 103 107 112 111 104 93 82 65 45 9 16 7
18 15 47 61 62 58 57 57 53 26 14 14 1 0 0 0
0 0 0 0 0 0 0 4 16 15 15 13 0 0 1 8
36 30 23 19 13 17 15 17 24 24 24 22 21 21 12 5
37 25 17 13 7 6 30 3 0 7 16 17 18 16 20 22
24 29 41 41 34 8 1 2 2 1 1 2 1 2 2 2
2 2 1 1 1 1 1 1 29 42 27 1 11 66 87 102
109 117 122 125 129 133 130 130 124 117 113 114 116 111 113 112
93 90 92 88 94 98 105 106 98 88 78 62 40 10 9 13
23 16 41 61 60 57 57 57 51 20 14 11 0 0 0 0
0 0 0 0 0 0 0 7 16 14 15 10 0 10 17 20
38 31 24 18 10 16 15 15 23 22 23 22 22 21 12 0
26 4 0 0 0 0 27 7 0 7 14 16 17 16 18 21
23 27 40 41 34 10 1 1 1 1 1 1 2 2 2 1
1 1 1 1 1 1 2 0 24 42 32 3 1 53 82 98
108 114 120 122 124 128 128 123 121 119 116 113 115 112 111 106
93 86 90 87 90 93 96 99 94 85 73 58 31 6 16 20
23 18 34 62 63 61 58 58 45 17 15 8 0 0 0 0
0 0 0 0 0 0 0 11 16 15 16 5 0 14 11 17
39 30 23 11 2 13 15 17 24 23 22 22 22 22 12 0
10 0 0 0 0 0 29 38 33 27 14 15 17 16 18 22
23 27 39 41 34 11 0 1 1 2 2 1 2 2 1 1
2 1 1 1 0 1 1 0 21 43 37 13 0 32 80 94
106 114 119 122 119 120 120 117 114 117 109 99 97 95 99 82
78 68 79 83 94 90 90 93 89 81 71 55 26 15 16 17
26 23 26 64 64 62 59 57 39 16 15 5 0 0 0 0
0 0 0 0 0 0 0 14 15 15 16 3 0 10 6 25
38 26 16 1 2 13 16 18 24 23 23 22 23 23 15 4
2 0 0 0 0 4 34 35 17 15 12 14 15 15 16 21
22 25 37 39 35 13 0 0 1 1 1 1 1 1 1 0
1 0 0 1 0 0 1 0 20 42 37 21 0 9 72 90
102 110 118 120 118 118 114 112 110 99 77 82 91 88 87 73
63 46 49 73 95 92 87 92 84 77 66 50 22 19 20 22
30 23 20 61 64 62 58 56 30 14 14 1 0 0 0 0
0 0 0 0 0 0 2 16 16 16 16 1 3 23 15 33
34 24 13 0 2 13 15 18 24 23 23 22 23 23 19 13
0 0 0 0 0 4 32 21 0 1 11 14 16 15 16 20
22 24 36 39 34 14 0 0 0 0 0 1 1 1 1 1
0 0 0 0 0 0 0 0 17 43 37 26 1 0 54 85
98 106 114 119 117 114 110 105 85 48 50 50 67 73 69 48
35 45 32 63 93 94 88 91 83 73 61 40 21 21 23 26
32 25 14 60 64 63 59 54 23 13 12 0 0 0 0 0
0 0 0 0 0 0 5 16 14 16 13 0 35 76 17 38
33 25 13 1 4 13 16 19 24 23 22 22 23 23 17 5
0 0 0 0 0 2 31 22 0 0 9 13 14 14 15 19
20 23 35 38 34 15 0 0 0 1 1 0 0 0 0 0
0 0 0 0 0 0 1 0 15 42 37 28 8 4 33 78
92 102 109 114 116 114 108 100 87 70 84 86 90 94 95 78
75 72 57 83 90 92 90 88 79 69 55 31 23 24 25 28
34 26 10 55 64 64 60 49 19 14 9 0 0 0 0 0
0 0 0 0 0 0 9 16 15 16 10 0 48 72 12 41
32 25 15 6 15 17 15 21 25 24 22 22 23 23 15 0
0 0 2 4 8 8 27 23 0 0 8 12 14 14 15 18
20 23 33 37 34 16 0 0 0 0 0 0 0 0 0 0
0 0 0 0 0 0 0 0 13 41 36 36 43 42 43 69
83 96 103 109 114 111 107 103 102 97 91 101 104 103 102 101
94 71 58 74 91 90 90 82 72 64 47 24 24 25 25 31
35 28 9 48 65 64 61 42 16 15 6 0 0 0 0 0
0 0 0 0 0 0 12 16 15 16 5 0 11 17 17 40
32 29 17 17 10 17 16 23 26 24 22 22 23 22 16 0
15 15 20 25 33 38 36 24 1 0 7 11 12 13 13 17
18 21 31 36 34 16 0 0 0 0 0 0 0 0 0 0
0 0 0 0 0 0 0 0 12 42 36 41 61 63 59 64
76 88 97 102 108 107 106 104 107 99 92 99 120 119 120 121
98 60 60 78 85 85 84 74 67 56 36 23 24 26 27 31
33 27 6 39 62 62 60 33 15 15 3 0 1 0 1 1
1 1 1 1 1 2 15 17 16 17 2 0 6 10 28 41
32 30 19 16 10 17 16 24 25 24 22 22 22 22 17 0
25 27 30 33 42 44 44 36 29 22 18 11 12 13 12 16
18 20 30 36 33 15 0 0 0 0 0 0 0 0 0 0
0 0 0 0 0 0 0 0 10 41 35 38 56 56 54 65
69 82 91 98 101 104 104 103 105 101 98 92 93 100 101 95
76 65 72 76 79 79 73 67 60 48 28 22 24 26 27 32
34 27 6 30 61 62 58 25 15 15 14 13 13 13 14 14
14 14 15 15 16 15 18 18 18 16 0 0 5 7 32 39
31 31 19 17 10 17 18 25 25 24 22 23 22 22 17 0
26 25 23 21 20 19 17 16 13 11 11 9 10 11 12 15
17 20 30 35 33 17 0 0 0 0 0 0 0 0 0 0
0 0 0 0 0 0 0 0 10 41 36 32 27 26 34 65
68 73 84 91 94 97 98 99 98 98 95 94 92 87 86 80
73 68 68 71 71 73 67 61 53 40 27 23 25 28 28 32
33 28 6 22 59 61 54 21 15 15 16 15 15 15 16 16
16 15 16 16 16 16 17 15 20 14 0 0 3 8 39 38
33 32 18 17 11 17 17 26 25 24 23 23 23 23 19 0
1 0 0 0 1 2 3 15 2 0 2 7 8 9 9 15
17 19 29 35 34 17 0 0 0 0 0 0 0 0 0 0
0 0 0 0 0 0 0 0 10 40 35 30 25 36 29 63
72 66 73 84 91 96 95 95 94 93 89 83 75 65 60 57
61 63 68 68 69 70 65 58 47 39 26 23 25 27 28 30
32 28 8 30 66 60 53 19 16 17 17 17 17 17 17 17
17 17 17 16 17 17 17 14 21 11 0 6 27 26 41 37
34 32 19 17 9 18 20 27 26 26 25 24 24 24 20 0
0 0 0 0 0 5 3 19 4 0 3 8 9 10 10 15
17 20 29 35 34 18 0 0 0 0 0 0 0 0 0 0
0 0 0 0 0 0 0 0 11 42 36 33 39 28 22 64
73 70 64 74 86 92 95 93 90 91 88 83 75 68 65 66
66 69 69 67 71 69 61 53 47 39 25 26 27 27 29 30
33 45 85 118 118 77 49 15 10 19 20 20 21 41 76 55
28 30 26 28 42 43 35 15 10 1 0 20 29 33 47 40
39 37 18 14 7 30 60 33 34 37 40 35 25 25 21 0
0 0 0 0 0 8 8 19 5 0 0 6 9 11 12 15
17 19 28 35 33 18 0 0 0 0 0 0 0 0 0 0
1 1 2 3 5 7 9 11 23 43 36 40 27 4 23 64
71 73 64 64 75 85 94 96 81 89 87 85 86 88 88 85
81 75 72 75 74 66 55 49 51 42 27 28 27 27 29 30
55 111 115 119 114 67 24 21 35 72 85 98 116 134 141 141
134 122 82 38 24 18 24 39 34 3 20 111 80 23 51 46
59 94 90 44 6 70 83 79 73 81 83 65 25 23 20 0
4 6 9 8 7 6 11 11 1 0 0 1 8 11 12 15
16 18 27 34 32 22 4 6 9 10 12 15 17 20 23 25
27 28 28 30 31 32 32 32 33 34 36 50 25 0 28 63
71 72 67 59 63 74 86 96 100 99 101 98 100 97 95 91
95 88 84 78 69 57 48 53 50 41 30 32 29 31 35 37
68 100 90 82 68 38 31 30 59 104 119 126 142 148 149 151
145 127 80 13 13 13 14 12 32 40 51 149 106 26 50 45
51 93 90 37 1 35 91 70 65 66 65 49 24 24 21 0
15 15 16 16 17 14 5 6 5 0 1 4 3 10 11 13
15 17 26 34 34 34 32 32 34 36 36 36 36 35 36 35
34 35 34 34 34 33 33 33 32 33 56 43 6 0 39 62
71 71 69 64 57 60 75 91 99 103 106 104 101 100 98 96
95 86 83 75 62 48 52 56 52 34 37 60 59 63 66 70
66 62 63 62 61 58 56 60 64 93 117 121 136 145 149 150
145 128 86 12 12 13 10 16 21 4 65 118 62 35 43 30
18 34 24 3 4 0 11 18 32 32 29 25 23 24 23 1
16 16 17 16 17 15 6 7 9 2 5 4 0 7 9 13
15 17 25 34 35 35 35 30 35 37 38 36 36 35 35 35
35 34 33 34 34 33 29 32 32 41 79 58 1 11 50 63
71 75 71 67 61 57 59 77 90 99 103 101 96 97 95 92
85 79 75 66 52 51 57 59 53 32 6 33 54 37 40 45
37 32 32 32 33 35 44 60 57 60 99 109 116 141 143 142
131 107 41 11 9 10 8 28 16 0 16 42 15 40 40 12
1 0 0 0 0 0 0 0 25 25 18 23 19 24 25 2
16 16 17 27 38 28 10 3 3 3 3 0 0 2 4 10
13 16 25 34 35 36 35 31 35 36 36 36 36 34 38 52
49 14 7 11 18 18 5 17 39 64 90 28 0 28 51 64
71 75 75 72 70 64 55 59 75 88 92 92 89 91 87 85
78 72 65 56 52 58 63 61 56 31 0 13 57 36 17 17
19 19 28 23 22 20 30 58 49 44 75 45 18 71 67 54
42 24 9 12 13 11 31 57 65 68 77 91 81 83 46 22
12 0 0 0 0 0 0 0 13 18 16 23 18 16 19 12
12 11 10 29 26 18 1 0 0 0 0 0 0 1 5 8
10 13 20 30 30 29 28 26 25 24 23 23 22 29 66 74
26 0 0 0 0 0 0 2 58 70 98 19 0 39 52 65
72 75 77 76 74 69 60 54 58 69 81 80 80 82 82 77
68 62 53 55 60 64 66 64 54 33 0 2 30 53 17 14
14 14 25 21 21 8 2 18 66 89 92 79 30 3 6 12
18 12 12 15 11 75 98 101 113 108 105 103 107 104 60 48
27 0 0 0 0 0 0 0 2 20 25 22 17 22 14 6
7 5 15 48 21 15 2 0 0 0 0 0 0 0 1 1
0 1 2 3 2 2 1 2 3 5 5 13 19 60 83 36
1 0 0 0 0 0 0 21 60 76 125 13 1 48 55 67
77 77 77 81 77 74 67 60 56 54 58 61 63 62 63 55
48 49 58 64 66 67 68 63 54 40 13 0 5 41 45 14
15 15 26 21 20 8 0 0 10 31 43 60 77 63 29 18
21 19 21 33 62 117 117 107 114 108 94 95 104 102 43 5
3 0 0 0 0 0 0 0 0 15 25 13 7 11 6 0
13 0 51 34 9 13 11 0 0 0 0 0 0 0 0 1
0 0 0 0 0 0 0 5 10 11 5 18 36 73 56 14
0 0 0 0 0 14 47 48 76 100 116 17 8 55 60 71
82 84 81 81 84 80 71 66 62 59 54 49 43 37 30 40
58 64 67 69 70 72 70 63 57 43 30 1 0 20 69 31
18 17 27 23 23 12 6 7 10 11 11 9 16 39 81 77
56 63 106 94 70 77 91 99 104 100 96 94 94 95 45 14
14 10 9 10 6 7 14 11 8 6 4 0 0 0 0 0
37 9 76 5 0 8 15 10 0 0 0 0 0 0 0 0
1 1 0 0 0 0 0 7 13 12 7 9 54 66 22 1
0 4 10 33 70 73 64 59 87 89 85 31 20 60 67 74
88 90 88 84 83 84 78 67 67 62 57 53 51 52 63 71
70 69 68 71 74 72 68 62 57 44 39 14 0 10 75 46
35 21 15 13 13 14 18 22 27 31 39 43 31 24 30 64
88 87 76 88 101 111 113 100 80 73 70 60 55 50 39 33
32 29 21 15 5 1 6 4 3 0 0 0 0 0 0 0
50 22 35 0 0 1 14 29 1 0 0 0 0 1 0 1
1 8 8 6 6 3 3 9 20 21 15 12 70 57 5 9
41 59 63 71 64 66 70 72 66 99 90 34 29 61 74 77
92 96 99 96 91 86 85 81 74 69 67 68 74 80 82 77
74 76 82 87 80 72 68 64 61 48 44 28 2 0 26 48
10 33 42 47 55 66 86 110 140 150 151 151 138 101 87 82
88 95 123 149 150 148 144 148 118 80 60 39 33 30 24 17
16 17 14 12 4 2 4 3 2 0 0 0 0 0 0 0
13 17 14 0 1 0 12 5 0 0 0 2 1 6 9 8
7 7 6 7 7 9 12 17 22 22 7 20 69 38 26 55
60 63 64 33 54 100 65 71 72 122 95 41 36 59 81 82
92 102 103 105 106 105 102 101 99 95 92 90 88 88 84 85
89 92 95 91 81 74 69 65 61 52 50 33 12 0 22 53
19 37 41 44 42 45 64 101 119 150 151 144 96 76 72 63
69 76 109 149 150 146 137 149 126 91 63 46 35 29 23 18
17 18 16 13 4 2 3 2 1 1 0 0 0 0 0 0
0 14 8 0 3 0 0 0 0 0 0 5 1 7 10 11
11 11 13 15 19 28 31 29 21 16 1 33 66 33 75 79
94 74 83 98 85 64 48 48 77 92 68 54 52 56 88 87
92 102 108 108 111 112 113 113 111 106 103 100 102 100 98 97
95 95 96 93 85 74 69 69 66 58 57 30 23 8 23 55
31 39 56 66 79 66 58 84 114 148 151 145 99 77 72 66
68 77 112 148 149 145 133 148 129 93 63 46 37 30 23 18
17 16 17 14 5 4 3 3 2 1 0 0 0 0 0 0
0 13 10 8 10 0 0 0 0 0 0 0 0 3 5 6
5 5 7 9 15 26 29 22 7 4 0 45 66 75 94 90
100 95 102 115 93 60 73 69 62 113 88 50 61 56 96 95
96 101 107 110 108 111 112 115 113 113 109 107 104 104 102 100
98 97 97 92 82 74 73 72 71 65 64 38 62 40 27 59
59 28 41 58 53 64 43 77 81 127 151 143 98 75 68 61
61 78 106 146 150 143 120 149 131 88 63 47 35 28 24 18
18 16 18 14 6 4 1 4 3 1 0 0 0 0 0 0
6 16 11 8 6 0 0 0 0 0 0 0 1 1 2 3
3 5 6 7 14 25 29 14 0 19 45 95 89 83 112 95
64 72 85 104 65 32 59 51 54 100 82 49 55 54 98 104
100 101 107 109 112 110 112 114 112 113 112 112 109 106 103 99
99 100 98 90 82 78 77 74 78 74 71 41 76 45 23 64
71 30 46 64 74 61 52 88 60 82 135 144 102 77 66 58
63 82 107 145 149 143 121 149 132 90 66 48 37 29 23 20
17 16 18 14 6 5 1 3 2 1 0 0 0 0 0 0
0 14 6 1 0 0 0 0 0 0 0 0 0 0 0 1
3 5 6 6 13 25 29 31 56 53 35 78 84 78 85 94
110 76 66 80 57 68 69 65 70 89 72 50 59 71 87 111
108 105 106 109 110 111 113 114 115 115 112 110 110 106 101 99
101 102 98 90 84 82 79 80 89 81 75 52 75 37 47 59
67 46 23 54 47 48 54 66 56 81 92 84 85 76 63 55
64 80 106 146 151 144 118 150 137 92 68 50 35 27 22 21
16 18 18 15 7 6 2 3 2 0 0 0 0 0 0 0
0 28 4 0 0 0 0 0 0 2 0 0 0 2 4 1
5 8 9 9 17 46 54 66 88 65 66 97 92 75 96 106
92 71 73 64 38 64 85 62 68 106 98 53 55 89 76 117
116 109 108 109 111 111 112 116 117 117 117 115 114 110 106 105
106 103 97 92 86 85 82 89 100 98 74 48 59 30 58 45
67 54 39 50 54 54 33 36 54 78 89 72 37 51 68 58
62 77 103 144 150 145 114 149 134 92 68 51 36 23 21 17
14 18 18 15 6 5 1 3 1 0 0 0 0 0 0 0
2 4 0 0 0 0 0 0 0 0 0 0 0 7 8 1
5 8 12 43 82 99 63 32 50 64 32 50 66 65 78 78
91 58 59 34 39 63 81 58 79 74 66 42 52 87 85 105
124 117 112 111 111 110 112 116 117 116 117 117 118 117 114 113
114 110 103 95 89 88 89 97 106 107 75 72 69 31 67 61
47 29 26 56 42 74 89 62 73 29 53 58 46 63 72 68
73 83 104 143 150 147 108 149 128 88 69 49 34 20 18 13
13 18 19 16 8 7 1 3 2 0 0 0 0 0 0 0
0 0 0 0 0 0 0 0 0 0 0 0 0 13 12 1
6 13 62 93 72 66 87 56 95 91 55 71 97 90 105 124
121 78 91 59 63 56 45 40 59 77 103 61 56 63 67 88
125 125 118 113 114 113 113 116 117 118 119 119 119 117 116 116
116 110 102 93 92 94 96 105 113 112 71 67 69 54 78 79
85 53 29 50 32 33 59 31 64 54 65 83 69 49 62 62
84 97 99 128 150 146 105 148 123 94 68 43 32 22 18 12
9 16 19 15 7 6 1 2 0 0 0 0 0 0 0 0
6 6 8 8 7 0 1 0 0 0 0 0 0 10 15 3
19 67 82 111 110 90 100 67 63 92 81 55 103 65 88 113
108 78 46 43 59 72 65 71 83 94 105 59 48 40 75 77
109 131 126 121 118 118 117 116 120 121 122 121 120 119 119 118
119 113 101 93 97 100 104 111 117 113 70 81 97 57 79 68
71 69 22 24 34 48 68 58 82 59 63 51 29 53 90 81
81 109 99 84 120 147 103 149 126 94 66 42 27 24 19 10
6 15 19 15 8 7 2 2 0 0 0 0 0 0 0 0
12 12 12 14 13 0 4 0 0 0 0 0 3 13 28 31
70 103 105 112 106 94 106 52 37 77 66 35 89 97 89 105
124 97 63 84 96 67 44 85 80 92 75 53 38 51 79 85
93 127 132 127 124 122 122 121 123 126 126 124 122 123 122 122
119 113 99 95 101 104 109 113 117 108 71 93 108 63 85 46
50 62 28 14 25 20 65 54 76 36 21 35 43 41 67 73
90 87 61 103 90 84 105 149 126 94 66 43 33 27 20 9
7 17 19 15 8 8 2 2 0 0 0 0 0 0 0 0
10 11 15 17 13 0 5 3 0 0 0 0 0 3 21 75
112 111 91 70 62 42 55 52 43 41 43 36 48 62 53 96
91 100 68 94 88 75 85 101 75 70 78 77 75 57 55 59
66 108 134 133 131 129 128 128 129 129 130 127 126 127 128 128
123 113 101 99 105 110 112 117 115 98 75 93 102 44 77 74
82 88 29 20 23 17 52 31 31 22 46 56 50 49 50 62
96 99 65 58 52 69 73 131 121 94 63 46 33 25 19 11
9 17 19 15 8 8 3 2 0 0 0 0 0 0 0 0
0 0 0 0 0 0 9 4 1 4 0 0 0 0 56 105
118 104 67 84 84 104 109 90 46 70 79 71 64 83 55 81
92 70 77 89 89 78 107 107 97 110 107 116 69 44 48 62
86 81 117 131 134 135 133 133 133 130 132 130 129 131 132 131
126 115 104 103 107 109 112 113 113 81 76 85 97 64 93 91
103 97 54 26 17 19 38 62 63 57 60 64 42 52 87 84
100 90 79 82 65 32 76 68 109 93 56 39 29 22 18 13
11 19 20 16 9 9 3 2 0 0 0 0 0 0 0 0
0 0 0 0 0 0 14 4 3 11 0 0 0 20 101 86
68 78 119 99 98 107 88 83 42 50 78 71 66 84 86 119
99 64 68 69 41 55 96 94 112 121 114 108 77 61 59 80
91 68 88 114 130 135 136 135 137 134 134 130 131 131 131 132
127 115 106 106 107 109 110 111 105 65 97 93 78 45 89 71
19 63 52 33 52 25 28 50 65 63 46 66 57 54 81 74
107 89 79 105 79 69 54 39 64 91 55 35 28 20 17 13
11 20 21 17 9 8 1 2 0 0 0 0 0 0 0 0
0 0 0 0 0 0 4 5 7 6 0 0 1 58 98 54
96 109 115 85 59 67 68 77 33 51 43 34 39 76 91 114
113 73 101 94 57 61 94 63 101 119 75 9 39 49 43 85
76 81 73 100 119 130 135 135 136 134 132 131 129 129 131 131
125 118 114 110 109 112 114 112 102 60 102 82 67 35 62 45
0 2 55 47 53 40 41 68 67 65 43 60 46 28 43 35
66 96 92 117 110 65 78 49 63 72 66 39 26 20 16 14
13 19 22 18 10 9 1 3 1 0 0 0 0 0 0 0
0 0 0 0 0 0 0 0 0 0 0 0 28 59 74 98
107 102 74 105 116 87 77 99 64 80 72 75 67 77 52 78
102 64 40 16 6 9 20 12 28 50 42 12 37 58 45 62
71 62 71 91 90 127 135 136 136 134 132 129 128 127 128 129
126 123 119 114 113 116 119 104 88 42 87 53 50 30 55 34
0 0 12 54 37 47 17 67 44 64 27 32 39 36 67 48
56 59 53 59 60 73 68 40 62 60 64 45 28 21 19 13
11 19 22 18 10 10 1 3 1 0 0 0 0 0 0 0
0 0 0 0 0 0 0 0 0 0 0 1 62 42 72 102
88 86 127 139 121 106 76 78 78 69 82 83 64 107 89 101
86 68 79 83 67 76 108 53 57 67 72 50 46 52 60 65
97 77 78 111 92 110 133 140 137 134 131 129 126 125 125 124
123 122 120 117 117 119 108 75 59 58 54 63 78 49 49 41
30 0 0 9 35 37 10 47 71 95 45 64 64 46 79 76
82 76 77 92 85 54 51 54 72 51 55 45 32 23 20 13
11 18 22 19 11 12 1 4 1 0 0 0 0 0 0 0
0 0 0 0 0 0 0 0 0 0 0 18 87 35 69 102
78 91 140 125 124 132 97 102 84 66 77 72 50 106 84 111
121 97 78 97 98 87 109 65 40 69 68 46 40 43 46 59
77 69 53 89 79 90 111 127 140 135 132 129 123 124 126 123
124 124 120 118 119 115 82 48 65 54 46 51 54 40 34 54
51 28 15 4 1 31 11 85 71 77 40 75 80 52 59 64
96 87 71 93 98 56 20 24 36 39 46 43 33 24 18 13
11 17 21 19 11 10 1 3 0 0 0 0 0 0 0 0
0 0 0 0 0 0 0 0 0 0 0 50 43 51 54 72
114 98 134 130 106 111 98 98 95 52 66 60 53 94 93 123
129 102 76 76 100 98 114 77 48 57 56 38 43 60 49 80
85 69 42 68 85 44 67 76 119 133 132 128 123 126 126 124
124 124 123 120 117 88 63 32 36 41 27 43 60 58 31 53
55 41 58 41 26 55 42 113 107 99 35 38 43 30 72 71
68 77 58 80 81 51 42 50 62 35 43 54 33 25 18 14
11 16 22 20 11 11 1 5 1 0 0 0 0 0 0 0
0 0 0 0 0 0 0 0 0 0 8 57 73 71 35 52
117 114 104 124 105 104 113 108 84 47 80 45 32 89 83 106
126 83 75 86 103 92 95 82 54 67 75 66 42 86 66 79
110 112 75 85 83 21 30 54 90 109 116 129 128 127 127 127
125 124 124 120 92 66 77 81 66 74 60 44 57 36 23 43
48 40 64 47 82 99 76 100 119 94 56 79 93 64 77 82
88 89 82 113 92 43 28 62 72 53 42 48 44 23 17 14
12 17 21 18 11 10 1 4 1 0 0 0 0 0 0 0
0 0 0 0 0 0 0 0 0 3 37 70 97 71 59 63
107 135 112 99 115 123 116 101 99 51 74 49 35 70 75 82
111 94 97 91 125 108 107 122 51 73 84 99 72 95 115 88
118 106 123 105 122 96 33 56 55 108 103 120 129 126 125 124
122 122 122 107 66 76 68 24 24 72 85 48 56 45 36 51
55 38 45 69 101 120 122 87 116 87 55 77 98 67 81 67
80 95 81 121 99 31 10 38 42 32 58 46 46 29 17 13
13 15 21 19 12 11 1 5 1 0 0 0 0 0 0 0
0 0 0 0 0 0 0 0 0 5 71 64 91 56 91 70
83 112 107 99 146 142 104 94 105 58 91 61 43 75 95 93
111 97 93 113 112 109 109 128 76 62 87 71 67 59 81 84
115 118 103 100 106 101 69 41 52 106 102 109 129 124 123 122
122 122 115 82 67 65 39 37 56 70 63 31 37 41 43 75
76 59 60 80 72 101 114 80 111 76 39 63 86 62 90 85
76 77 91 117 95 74 52 43 49 48 51 73 69 46 19 13
11 15 20 19 12 11 1 5 1 0 0 0 0 0 0 0
0 0 3 1 0 0 0 5 10 19 69 52 37 95 112 87
59 94 115 110 123 128 95 60 78 51 83 60 43 61 102 92
117 108 106 120 131 108 101 137 76 35 51 44 34 27 68 63
63 78 48 52 60 62 65 42 46 65 94 104 128 126 122 122
119 119 94 71 79 46 58 50 73 70 58 42 72 46 44 78
86 60 84 102 72 116 118 86 116 86 36 36 70 54 87 91
93 114 110 105 85 57 49 69 56 49 85 81 60 48 31 14
11 16 21 20 11 11 1 7 2 0 0 0 0 0 0 0
0 0 8 5 0 0 0 3 24 54 76 71 60 104 104 87
58 77 112 130 85 71 79 62 72 35 30 35 28 54 100 70
122 107 89 102 108 120 70 67 36 30 69 76 76 49 86 79
82 106 86 74 79 108 97 48 34 55 58 96 121 127 124 119
118 103 79 79 37 54 49 42 54 44 36 49 57 38 36 56
80 59 79 91 97 119 129 98 120 103 57 57 74 51 98 90
86 111 92 114 61 44 54 72 47 47 92 83 83 45 34 14
11 14 20 18 12 11 1 7 1 0 0 0 0 0 0 0
0 0 1 1 0 0 0 1 23 87 88 105 79 87 97 78
83 55 100 123 94 101 115 96 109 68 60 61 16 44 85 50
79 86 54 64 96 101 80 70 77 30 73 76 65 37 54 86
91 119 89 79 65 109 98 77 34 13 41 77 107 124 125 121
114 68 68 47 24 42 38 34 58 79 63 50 61 35 27 31
33 22 52 88 95 121 107 109 93 81 73 54 70 57 99 99
104 109 108 128 61 35 39 48 42 37 96 80 88 46 44 26
10 14 20 19 11 11 1 7 1 0 0 0 0 0 0 0
0 0 0 0 0 0 0 0 23 85 107 86 101 50 78 80
107 80 77 87 94 117 113 107 103 70 56 76 29 66 104 81
95 132 95 86 98 111 97 66 89 37 49 51 42 23 23 61
55 82 89 74 51 93 113 83 63 33 51 63 96 119 122 120
96 65 34 31 37 59 52 63 95 92 47 50 71 39 37 49
67 46 55 71 58 75 82 72 67 37 49 56 69 58 106 91
103 121 91 104 85 49 44 54 62 55 82 75 93 67 35 49
12 13 19 19 12 11 1 6 1 0 0 0 0 0 0 0
0 0 0 0 0 0 12 7 49 55 89 94 122 61 63 99
106 98 56 41 99 109 95 81 53 48 26 39 32 49 97 86
105 128 109 99 108 106 99 58 69 34 16 43 54 63 54 105
89 95 97 86 73 93 73 73 46 43 36 53 73 105 121 101
68 44 26 29 33 48 84 88 95 90 62 43 57 33 38 47
67 48 67 88 87 102 84 62 61 63 64 45 51 47 87 82
99 101 92 88 94 55 60 73 47 73 77 86 65 55 58 35
17 11 19 19 12 11 0 6 2 0 0 0 0 0 0 0
