P2
128 120
123
25 24 24 23 23 23 22 21 21 21 21 20 20 19 19 18
18 18 18 17 16 16 15 15 15 15 14 14 14 13 14 12
12 12 11 10 11 10 10 9 9 8 7 5 5 4 6 8
9 10 11 6 3 11 13 11 10 9 8 8 7 5 4 2
1 1 1 4 6 4 6 2 5 6 6 7 7 8 8 8
8 9 10 10 10 11 11 11 11 12 12 12 13 13 13 13
14 14 14 15 15 16 17 17 18 18 18 18 19 19 20 20
20 20 20 21 20 21 21 21 21 21 21 21 21 21 21 21
24 24 23 23 23 23 22 22 21 21 21 20 20 19 19 18
18 18 17 17 17 16 16 16 15 15 14 14 14 14 13 12
12 12 11 11 10 11 11 10 10 9 9 7 7 6 6 9
11 11 12 7 2 10 14 12 11 9 9 9 8 7 6 4
3 2 1 4 5 6 3 6 6 8 9 8 9 9 9 10
9 10 10 11 11 11 12 12 12 13 13 13 14 14 13 14
14 15 16 16 16 17 18 18 19 19 18 19 19 20 20 20
20 20 20 21 20 21 21 21 21 21 21 21 22 22 22 22
25 25 24 24 23 23 22 22 21 21 21 20 20 20 20 20
19 19 18 18 17 17 16 16 15 15 15 14 14 14 14 13
13 12 13 12 11 11 11 11 11 9 8 8 7 7 8 11
12 13 13 8 2 11 16 13 11 10 10 9 8 8 6 6
7 5 2 2 6 6 5 7 8 9 9 9 10 10 11 11
11 11 12 12 12 12 13 13 13 13 13 14 14 15 15 16
16 17 18 17 18 18 18 19 19 19 20 20 20 20 20 20
21 21 21 22 21 21 21 22 21 21 21 21 22 22 22 22
25 24 24 24 23 22 22 23 22 21 21 21 20 20 19 20
19 19 19 18 18 17 17 16 16 16 16 15 15 15 14 13
13 13 12 12 12 12 12 12 11 10 10 8 8 8 9 12
14 14 14 8 3 11 16 13 13 11 11 10 9 9 7 7
8 6 3 2 8 5 7 7 9 10 11 10 12 11 12 12
12 12 12 12 13 13 14 13 13 14 15 15 15 16 16 16
17 17 19 17 18 18 18 19 19 20 20 20 20 20 20 20
21 21 21 23 21 21 22 22 22 22 22 22 22 22 22 21
25 24 24 24 23 23 23 22 22 21 21 21 20 20 20 20
19 19 19 18 18 17 17 16 16 16 15 15 15 15 14 14
14 13 13 13 13 12 13 12 11 10 11 10 9 8 10 13
14 15 15 9 3 10 17 13 13 12 12 11 10 10 7 8
8 7 4 1 9 6 8 9 11 11 11 11 12 13 13 13
14 14 13 13 13 13 14 14 15 15 15 15 16 16 16 17
17 18 20 19 19 19 19 20 20 20 19 20 20 20 20 21
21 21 21 23 21 22 23 22 22 22 23 21 21 22 23 23
25 24 24 24 23 23 23 22 22 22 21 21 21 20 20 20
20 19 19 18 18 18 17 17 17 17 16 16 16 15 14 15
14 14 14 14 13 13 12 13 12 11 11 11 11 11 11 15
15 15 15 9 3 9 17 14 14 14 13 12 11 10 10 9
9 8 6 2 9 8 9 11 12 12 12 13 14 14 13 14
13 14 14 14 14 15 15 15 16 16 16 17 17 17 17 18
18 18 20 18 19 19 20 20 20 20 21 21 20 20 21 21
21 21 22 24 22 22 22 20 21 22 22 22 23 22 22 22
25 25 24 23 24 23 22 22 22 22 22 22 21 21 20 20
20 18 19 18 18 18 18 17 17 17 16 15 15 15 15 15
15 14 14 14 14 13 13 12 12 12 11 11 11 12 12 15
16 16 17 10 5 9 18 15 14 13 13 12 12 11 10 10
10 9 7 3 9 8 11 12 13 12 13 13 13 13 13 13
14 14 15 14 14 15 15 15 15 16 16 17 17 17 18 18
18 19 19 19 19 19 19 20 20 20 20 20 20 20 21 21
22 22 21 21 20 20 22 23 22 22 22 21 22 22 22 22
25 25 24 24 24 23 23 23 23 23 22 22 21 21 21 21
20 20 19 19 19 19 17 17 17 17 16 16 16 15 15 15
14 14 14 14 14 13 13 13 13 12 12 12 12 13 13 16
17 17 17 11 6 7 17 16 15 14 14 13 13 12 11 11
11 10 8 4 10 9 12 12 13 13 13 13 14 14 15 14
15 15 15 15 15 16 16 16 17 17 17 17 17 18 18 19
19 19 20 19 19 20 20 21 20 20 20 21 21 21 21 20
20 20 22 22 23 22 22 22 22 22 22 22 23 22 23 23
25 24 25 24 24 24 23 23 23 22 22 22 21 21 21 21
20 19 19 19 19 19 18 17 17 17 17 16 16 16 16 15
15 15 15 14 14 14 13 14 13 12 13 12 12 13 14 17
18 18 18 12 8 7 18 16 14 14 14 13 13 13 13 11
10 10 10 5 10 10 13 13 13 14 14 14 15 15 15 15
15 16 16 16 15 16 17 16 17 17 17 18 17 18 18 18
19 19 20 19 21 20 21 21 21 21 19 19 20 20 21 21
22 22 22 22 21 23 23 22 22 22 22 22 23 22 22 23
25 24 24 24 24 24 23 23 22 23 22 22 21 21 21 20
20 20 19 19 19 19 18 17 17 18 17 17 17 16 16 16
15 15 14 15 14 14 14 14 13 13 13 13 13 14 15 18
18 18 18 12 9 7 17 16 15 14 15 14 13 13 12 11
11 11 11 8 11 11 13 14 14 15 15 15 15 16 16 15
16 16 16 16 16 17 17 17 18 17 18 18 18 18 19 19
19 20 21 19 21 20 21 20 19 20 21 22 22 22 22 22
22 22 22 22 23 22 22 22 23 22 22 22 23 23 23 23
25 25 25 24 24 24 24 23 23 22 22 22 22 21 21 21
20 20 20 19 19 19 19 18 18 18 18 17 16 17 16 16
15 15 15 15 14 15 14 14 13 13 13 13 13 14 15 18
19 19 18 13 10 7 18 17 15 13 15 14 14 13 14 12
13 12 12 10 13 12 15 15 15 15 16 15 15 15 16 16
16 16 17 17 17 17 17 17 18 18 18 18 18 19 19 19
19 19 21 19 19 18 19 20 22 22 22 23 22 21 22 22
22 22 22 21 22 22 23 22 22 23 22 22 23 23 23 22
25 25 25 25 24 23 23 23 23 22 23 23 22 21 21 21
21 20 20 19 19 19 19 19 18 18 18 18 18 17 16 16
16 16 15 15 15 15 15 14 14 13 14 14 14 15 16 19
19 19 19 14 12 5 14 17 15 15 15 15 15 14 16 13
13 13 13 9 13 13 15 16 15 15 16 16 16 17 17 16
17 17 18 17 17 18 18 18 18 18 18 18 18 19 19 19
18 17 17 20 21 21 21 21 22 22 22 23 22 23 22 22
23 23 23 23 23 23 23 23 23 23 23 23 23 23 23 23
25 25 25 24 24 24 23 22 23 22 22 22 21 21 21 21
20 20 20 20 20 19 19 19 18 18 18 17 17 17 16 16
16 16 15 15 16 15 15 15 14 14 14 14 14 15 16 19
19 19 19 13 9 2 14 18 17 16 16 16 15 15 15 14
14 14 13 10 15 14 16 17 16 17 16 16 17 17 17 17
17 17 18 17 18 18 19 19 19 19 19 19 19 18 18 18
20 20 21 20 21 21 22 22 22 22 23 23 22 23 22 22
22 22 22 22 22 23 23 23 23 23 24 23 23 24 23 23
25 25 25 25 24 23 24 24 23 23 23 22 22 22 22 22
21 21 20 20 20 19 19 19 19 19 18 18 18 18 17 17
17 17 16 16 16 16 15 15 15 15 15 15 15 15 16 20
20 20 20 15 11 9 16 19 17 17 17 17 16 17 17 14
15 15 14 11 15 15 17 17 17 17 17 17 17 18 18 18
19 18 19 18 19 19 19 19 19 18 19 19 19 20 21 20
21 21 21 21 21 22 22 22 22 22 22 23 22 23 23 23
24 23 23 23 23 23 24 23 23 24 24 23 23 24 24 23
26 25 25 25 25 24 23 24 23 23 22 22 23 22 21 22
21 21 21 20 20 20 20 19 19 19 18 18 18 18 17 17
16 16 17 17 17 16 16 16 15 15 15 15 16 16 17 20
20 20 20 14 11 12 15 20 18 18 18 17 16 16 16 15
15 15 14 11 17 15 17 17 17 18 18 18 18 18 18 18
18 18 19 19 18 19 19 18 19 20 20 20 20 20 21 21
21 21 21 22 22 22 23 23 22 23 23 23 23 23 23 23
23 23 23 23 23 23 23 23 23 23 23 23 23 24 23 24
26 25 25 24 24 24 24 23 23 23 23 23 23 22 23 22
22 22 21 21 21 20 19 19 18 19 19 19 18 18 18 18
18 17 17 17 17 16 16 16 16 15 15 15 15 16 17 21
21 20 21 15 13 15 14 21 19 18 18 18 17 17 18 16
16 16 15 12 17 16 18 18 17 18 18 18 19 18 19 19
19 19 19 19 19 18 19 20 20 20 20 20 20 21 21 21
22 22 22 22 22 23 23 23 22 23 23 24 23 23 23 23
24 24 24 24 24 24 24 24 24 24 24 24 24 23 24 24
26 25 25 25 25 25 24 24 24 24 23 23 22 23 24 22
22 22 22 22 22 21 20 20 20 20 19 19 19 18 18 18
18 17 17 17 17 17 17 17 17 16 16 16 16 17 17 21
21 21 21 16 14 17 14 23 20 19 19 18 18 17 18 16
17 16 16 12 18 17 19 19 18 19 19 19 19 20 19 19
18 19 19 19 20 20 20 20 21 21 22 21 21 21 22 22
22 22 23 22 23 22 23 24 23 24 23 24 24 24 24 24
24 24 24 24 23 24 23 24 24 25 25 23 24 23 23 24
26 25 25 25 25 24 24 24 24 24 23 24 24 24 23 23
23 22 22 22 21 21 20 20 20 19 19 20 19 19 19 19
19 19 18 18 17 17 17 16 17 16 16 16 16 17 18 22
22 22 23 19 16 20 14 20 20 20 21 20 19 18 20 16
17 17 17 13 18 17 19 19 19 19 19 19 19 19 19 20
19 20 20 20 20 20 20 20 21 21 22 21 21 22 22 23
22 22 23 23 23 23 23 23 24 24 23 24 23 24 24 24
24 24 25 24 25 24 24 24 24 24 24 24 24 24 24 23
25 25 25 25 25 25 25 25 25 24 24 24 24 23 23 23
22 22 21 22 21 21 21 20 20 20 20 20 20 19 18 19
18 18 18 18 18 18 17 17 17 17 17 16 17 18 18 21
21 18 19 18 17 19 18 23 23 22 21 21 21 23 21 18
18 17 16 14 18 17 19 19 19 19 19 20 20 20 20 20
20 20 20 20 20 20 20 20 22 21 22 22 22 22 22 22
22 23 22 22 23 23 23 23 24 24 23 25 24 24 25 24
25 25 24 23 23 23 23 24 25 24 24 24 24 23 24 23
25 25 25 25 25 24 24 24 24 24 24 23 24 23 22 23
23 22 22 21 21 21 21 20 20 20 20 19 20 19 19 19
19 18 18 18 17 17 17 16 17 16 16 17 17 18 17 18
13 8 12 12 13 10 17 16 16 20 20 20 20 20 21 19
15 13 16 14 18 15 20 19 19 19 20 20 20 20 20 20
20 20 20 21 21 21 21 21 22 21 22 22 22 22 22 22
23 23 23 23 23 23 22 24 23 23 24 25 24 24 23 23
23 23 24 24 23 23 23 24 23 24 23 23 23 24 23 23
26 25 25 25 25 24 25 24 24 24 24 23 23 23 22 23
22 22 23 22 21 21 21 21 21 20 20 21 20 19 19 19
19 18 18 18 18 18 19 18 18 19 19 21 18 14 9 4
5 8 7 9 9 17 16 13 13 13 17 20 19 20 18 18
19 14 9 13 18 18 20 20 20 20 20 20 20 20 20 20
20 20 20 21 21 21 21 22 22 22 22 22 22 22 22 22
23 22 23 23 23 23 24 24 24 24 23 22 23 23 24 24
24 24 24 24 26 23 24 24 23 23 23 23 24 25 24 24
26 25 26 25 25 25 25 24 25 24 23 24 23 23 23 23
23 23 23 22 21 22 21 21 21 21 21 20 20 20 19 19
20 19 19 19 19 19 21 20 19 22 22 19 14 7 3 3
8 10 14 19 22 24 17 12 11 8 14 16 18 16 19 19
15 14 14 14 17 17 19 20 20 20 20 21 20 20 21 20
21 21 21 21 21 22 21 22 22 22 22 22 22 22 22 23
23 23 23 24 24 23 23 23 23 23 24 24 24 24 24 23
24 24 24 24 26 23 23 24 24 24 23 23 24 24 24 23
25 26 25 25 25 25 25 25 24 24 24 24 24 23 23 22
23 23 22 22 22 22 21 21 21 21 20 20 21 20 20 19
19 19 19 19 23 23 25 25 19 12 10 10 9 2 2 6
11 16 22 28 30 30 22 16 14 11 12 20 17 13 10 17
19 20 15 9 9 15 16 12 15 19 20 21 21 21 21 21
21 21 21 22 22 22 22 22 22 22 23 23 23 23 23 23
23 23 23 23 23 24 24 25 24 24 24 24 25 24 25 25
24 24 25 24 25 23 23 23 24 24 24 24 24 24 24 23
26 25 25 25 25 25 25 25 24 24 24 24 24 23 23 23
23 23 23 23 23 22 22 21 21 21 21 20 20 20 20 20
19 20 19 23 32 29 25 15 8 3 5 3 6 13 11 15
18 23 30 37 37 36 28 20 15 15 12 12 26 19 12 9
12 16 16 18 19 15 16 13 10 9 17 20 21 21 22 21
21 22 22 22 23 22 22 23 23 23 23 23 23 22 22 22
23 23 24 25 25 25 25 25 25 25 25 25 25 25 25 24
24 25 25 24 25 24 24 24 24 24 24 24 23 24 24 23
25 25 25 24 25 25 25 24 24 25 24 24 24 23 23 23
23 23 22 23 23 22 21 21 21 21 21 21 21 21 20 20
20 20 23 28 27 22 13 8 6 3 0 1 8 15 24 20
18 30 31 27 24 23 19 16 18 17 16 14 11 27 21 12
13 10 15 14 11 10 9 6 6 7 7 17 21 22 22 22
21 22 22 22 22 22 22 23 23 23 22 22 23 23 23 24
24 24 25 25 25 25 25 25 25 24 25 25 24 24 24 24
24 24 24 24 25 24 24 24 24 24 24 23 24 24 24 23
26 26 26 25 25 25 24 24 24 24 24 24 23 23 24 24
24 23 23 23 23 22 22 22 22 21 21 21 21 21 20 20
20 21 27 21 16 15 10 6 4 7 10 5 9 19 20 18
23 25 20 17 13 16 16 16 22 23 15 22 16 11 21 24
17 12 13 12 11 9 9 13 10 4 6 8 15 21 22 22
23 22 22 22 23 22 23 22 23 23 22 23 23 23 24 24
24 24 25 26 25 25 25 25 25 25 24 25 24 24 24 25
24 25 24 24 25 24 24 25 25 24 24 23 24 23 24 24
25 26 25 26 25 25 25 25 25 25 25 25 25 25 25 24
24 23 23 23 23 22 22 22 22 22 22 21 21 21 21 21
21 21 17 10 7 5 5 7 7 11 19 14 15 20 14 17
22 23 21 22 22 19 17 17 24 29 27 22 29 26 20 17
17 14 11 8 3 1 1 3 2 4 8 14 7 12 22 23
22 22 23 22 22 22 23 23 23 23 24 24 23 24 24 25
24 24 25 26 24 25 25 25 25 25 25 25 25 25 24 25
25 25 25 25 26 25 24 24 24 25 24 24 24 24 24 24
26 25 26 25 25 25 25 25 25 24 25 24 24 24 24 24
24 24 24 23 23 23 23 22 22 22 22 21 21 21 21 21
21 13 7 3 0 3 7 15 16 14 21 15 25 19 24 29
35 39 43 42 37 30 28 25 25 32 32 30 27 30 31 25
18 15 8 4 2 2 5 7 3 0 3 11 9 1 10 21
21 22 22 23 24 23 23 23 23 24 24 24 24 24 25 25
24 25 24 25 25 25 25 25 25 25 25 25 25 25 25 24
25 25 25 24 25 25 25 24 25 25 25 24 24 24 24 23
25 25 25 25 25 25 25 25 25 25 25 25 24 24 24 24
24 23 23 23 23 22 23 22 22 22 23 22 22 22 21 21
16 4 0 1 3 11 14 13 16 15 19 23 35 39 43 45
55 61 62 62 52 42 35 26 25 30 43 39 43 35 32 28
22 17 11 3 1 3 3 1 5 7 4 10 10 2 0 12
23 23 23 24 23 23 24 23 23 23 24 24 24 24 25 25
25 26 25 25 24 25 25 25 25 25 25 24 25 25 24 25
24 25 25 25 25 25 24 25 25 24 23 23 23 23 23 23
26 25 25 25 25 25 25 25 25 25 24 24 24 24 25 24
24 24 23 23 24 23 23 23 23 22 22 22 21 21 21 20
7 1 1 3 12 20 19 15 17 21 33 47 63 71 71 71
65 67 62 68 64 53 38 36 32 27 31 47 45 39 32 23
20 16 10 5 8 4 2 0 2 7 7 7 8 3 0 2
19 23 23 24 23 24 24 24 24 24 24 24 25 25 25 25
25 25 25 25 25 25 26 25 25 25 25 25 25 25 25 25
25 25 25 25 25 24 22 22 23 23 23 23 25 24 25 23
27 26 26 26 25 26 26 26 25 25 25 25 25 25 25 25
25 24 24 24 23 23 23 23 23 23 23 23 22 22 22 17
7 3 1 2 11 16 16 15 24 42 65 77 86 89 89 87
85 77 68 64 61 53 43 35 28 29 28 27 34 32 30 29
25 16 10 9 5 2 0 1 2 8 8 9 7 2 0 0
11 25 24 25 23 24 24 24 24 24 24 25 25 25 25 25
25 25 26 26 25 25 25 25 26 25 26 26 25 25 26 26
25 25 24 24 23 23 24 24 24 24 23 22 24 24 25 23
23 25 26 26 26 25 25 25 25 25 25 24 25 25 25 24
25 24 24 24 24 24 24 23 23 23 22 22 23 22 22 19
9 0 0 6 14 8 15 30 52 73 85 91 96 95 94 92
90 86 75 62 52 46 42 29 21 25 33 30 32 35 37 30
23 17 10 7 5 3 0 0 3 7 9 10 3 2 1 2
6 24 24 25 24 24 24 24 24 25 25 24 25 24 25 25
25 25 25 26 25 26 25 26 26 26 26 26 25 24 23 23
23 24 25 25 25 24 24 24 24 24 24 24 25 24 25 23
6 11 26 27 26 26 26 25 26 25 26 25 25 25 25 25
25 24 25 24 25 25 24 23 24 23 23 23 23 24 23 17
13 0 1 11 6 15 39 58 74 82 90 98 99 98 97 97
97 97 93 78 58 51 37 29 23 21 28 38 40 39 37 34
25 16 12 8 3 3 0 0 2 6 11 11 5 5 9 12
7 21 25 25 25 25 25 24 25 25 25 25 25 25 26 26
26 26 26 26 26 26 26 26 26 25 25 25 25 25 26 25
26 25 25 25 24 25 24 24 24 24 24 24 25 25 25 24
4 11 26 27 26 26 26 26 26 26 26 26 26 26 26 25
26 25 25 25 25 25 24 24 24 24 24 23 23 23 20 21
10 0 0 10 9 41 62 70 78 88 94 99 100 100 99 99
100 102 100 81 65 56 39 27 20 19 22 29 42 42 38 33
31 24 13 7 5 2 1 0 0 3 6 11 11 8 16 15
7 20 25 25 25 25 25 25 25 25 25 26 26 26 26 26
26 26 26 26 26 26 25 25 26 26 26 25 27 25 25 25
25 26 25 25 25 25 25 25 25 25 25 25 25 25 25 23
7 10 26 27 27 27 27 26 25 25 25 26 26 26 26 26
26 26 26 26 25 25 25 24 24 24 24 23 25 26 16 29
10 0 0 1 26 56 66 71 81 89 95 97 100 100 100 101
102 103 99 82 69 57 44 32 22 21 24 31 30 36 43 42
35 24 19 12 4 2 1 2 0 0 9 16 14 17 12 6
10 20 26 27 26 26 26 25 26 25 26 26 26 26 26 26
26 25 26 26 26 26 26 26 26 25 25 26 26 25 25 26
26 26 25 26 26 26 25 24 24 25 25 25 25 24 25 24
7 10 26 27 27 27 27 26 26 35 34 32 30 28 28 27
25 26 26 25 26 26 25 25 25 24 24 24 33 30 17 24
14 3 0 0 37 59 68 73 82 90 94 98 99 100 101 101
100 102 103 87 67 60 44 33 23 23 28 28 34 35 33 32
32 29 19 10 7 2 1 2 1 1 5 13 12 13 4 2
6 19 26 26 26 26 26 25 26 26 26 26 26 26 26 26
27 26 26 27 26 27 26 26 26 26 25 25 27 26 26 26
26 26 26 26 25 26 25 25 25 25 26 25 25 25 24 25
8 12 27 27 27 26 26 26 28 37 35 36 35 32 31 29
28 26 27 26 25 25 24 24 25 25 24 25 34 29 20 25
13 11 3 2 47 62 70 74 84 89 94 96 99 100 100 102
103 103 104 93 68 60 51 39 27 26 32 33 29 28 30 29
25 20 12 9 9 6 2 1 0 0 1 6 7 2 0 0
0 15 26 26 25 25 24 25 25 26 26 26 26 25 27 26
27 26 26 27 26 25 26 26 26 26 25 25 26 26 25 25
25 26 25 25 25 25 25 25 25 25 25 25 25 24 24 25
7 14 29 28 28 27 27 26 28 37 36 36 32 31 32 34
36 30 31 29 27 25 24 24 25 24 24 24 32 27 21 24
11 9 1 7 51 65 69 75 84 89 94 95 98 100 102 103
105 105 104 99 79 62 53 45 32 26 33 30 29 28 27 27
22 15 11 11 12 9 2 1 0 0 0 1 2 0 0 0
0 12 24 24 25 25 25 26 26 25 26 26 27 26 26 26
26 26 26 26 26 26 25 25 26 26 26 26 26 26 26 25
25 26 26 24 25 25 25 25 24 24 25 25 24 24 23 24
7 15 31 30 29 29 29 28 27 34 31 34 33 34 35 36
37 31 30 32 34 31 28 27 27 25 25 24 26 14 18 21
9 7 0 11 53 64 68 76 85 89 93 94 98 101 104 106
107 106 106 100 84 65 52 49 42 33 26 26 28 22 19 18
17 13 10 12 10 3 0 0 0 0 0 0 0 0 0 0
0 8 24 25 25 25 25 25 25 25 26 27 26 25 26 26
26 26 26 26 25 26 25 25 25 25 25 26 26 26 26 25
25 25 25 25 25 25 25 24 25 24 24 24 24 24 24 24
7 15 31 30 24 26 31 32 34 20 0 5 17 27 31 34
35 30 4 6 13 20 27 28 29 32 30 27 25 8 5 18
21 4 0 15 53 63 70 79 85 88 92 97 99 103 105 108
109 108 106 98 86 75 66 53 46 37 30 23 21 21 19 16
19 18 16 12 8 1 0 0 0 0 0 0 0 0 0 0
0 3 23 25 25 25 25 25 25 26 26 26 26 25 26 26
25 25 26 26 26 25 25 25 25 25 25 25 26 26 26 25
25 24 24 25 24 24 24 24 24 25 24 25 24 25 24 24
8 14 31 31 28 26 24 34 37 21 0 0 1 7 9 9
15 30 0 0 0 0 0 4 9 16 22 27 24 7 0 8
22 17 3 21 56 63 73 82 87 92 96 98 100 102 105 109
110 111 110 108 97 76 70 57 43 38 28 18 16 19 18 17
18 16 13 12 6 1 0 0 0 0 0 0 0 0 0 0
0 1 14 24 25 25 25 26 25 25 25 26 27 26 26 26
26 26 26 26 26 26 25 26 25 25 26 26 25 26 25 25
25 25 25 25 24 24 25 25 25 24 25 25 25 25 24 22
8 7 8 15 23 31 34 37 38 23 0 0 0 3 7 8
11 30 0 0 0 0 0 0 0 0 0 19 24 4 0 0
3 7 0 27 58 64 77 86 90 94 97 98 99 101 105 108
110 111 111 112 109 91 64 51 39 29 26 21 20 15 17 17
17 17 14 10 4 0 0 0 0 0 0 0 0 0 0 0
0 0 0 14 25 25 26 26 26 25 26 26 27 26 26 26
26 26 26 26 26 26 26 25 26 26 25 26 26 26 26 25
24 25 24 24 25 25 25 25 25 25 24 25 24 25 25 25
9 5 0 0 0 1 6 14 22 22 0 0 0 0 1 1
8 31 2 0 0 0 0 0 0 0 0 19 23 1 0 0
0 0 0 38 59 68 80 86 91 94 97 88 69 82 95 106
107 109 111 112 113 111 96 67 49 35 27 23 19 17 18 16
18 16 10 9 2 0 0 0 0 0 0 0 0 0 0 0
0 0 0 7 25 26 26 26 26 26 26 26 26 26 26 26
26 27 26 27 26 26 26 26 26 26 26 26 26 26 26 25
25 25 26 25 25 25 25 25 25 25 25 25 24 24 25 24
8 4 0 0 0 0 0 0 0 15 0 0 0 0 0 0
5 27 0 0 0 0 0 0 0 0 0 18 20 0 0 0
0 0 1 48 59 70 80 83 85 63 26 2 5 11 9 18
24 33 45 58 70 80 89 79 61 40 35 26 19 17 17 16
17 16 10 5 4 0 0 0 0 0 0 0 0 1 2 1
0 1 0 5 23 26 26 26 27 27 27 27 27 26 27 26
26 27 27 26 27 26 27 27 26 27 27 26 26 26 25 26
26 26 26 26 26 25 26 26 26 26 26 25 25 25 24 24
9 4 0 0 0 0 0 0 0 12 0 0 0 0 0 0
9 31 1 0 0 0 4 6 0 0 0 16 20 0 0 0
0 0 6 56 62 73 77 61 19 0 0 0 10 18 11 13
15 16 18 19 20 18 15 12 9 10 10 13 19 17 13 14
11 14 10 4 2 0 0 0 0 1 3 1 0 1 2 1
1 0 1 1 16 27 27 27 27 27 27 27 28 26 27 27
27 27 28 28 28 28 27 27 26 26 26 26 27 27 26 26
27 26 26 26 25 26 27 27 26 26 26 26 26 26 25 25
9 5 0 0 0 0 0 0 0 10 0 0 0 0 0 0
9 34 2 0 0 0 4 10 6 3 0 15 21 0 0 0
0 0 12 56 62 72 52 5 0 0 0 0 2 8 29 36
40 43 46 45 44 42 41 36 23 17 17 12 10 5 3 4
4 4 6 5 4 5 4 1 0 1 3 4 4 1 2 0
0 0 2 0 5 26 26 27 27 27 27 27 28 27 27 28
28 28 28 27 27 27 28 28 27 27 27 27 27 27 27 26
26 26 26 26 24 26 27 27 26 26 26 27 26 27 26 26
9 5 0 0 0 5 4 0 0 9 0 0 0 0 0 0
7 35 3 0 0 0 6 9 9 8 2 12 22 0 0 0
0 0 13 55 62 61 9 0 0 0 0 0 17 33 73 97
105 108 107 107 107 106 103 101 66 45 32 18 6 4 10 17
12 3 9 60 88 80 36 5 3 1 2 4 4 3 1 0
1 0 1 0 11 27 27 27 27 28 28 27 28 27 27 27
27 27 28 28 28 27 27 27 27 27 26 26 26 26 26 26
27 26 26 26 26 26 27 27 27 27 27 27 26 26 24 23
9 4 0 5 1 0 1 0 0 8 0 0 0 0 0 0
7 35 3 0 0 0 6 9 8 9 2 11 24 0 0 0
0 0 9 49 59 34 0 0 0 0 0 0 14 49 91 105
106 109 111 110 108 107 107 103 80 54 58 32 13 8 17 34
47 46 75 91 78 85 92 29 8 6 6 2 0 0 0 0
1 2 0 0 17 27 27 26 26 26 27 26 27 28 27 27
27 28 27 27 28 27 27 27 27 26 27 27 26 27 27 26
26 26 26 26 26 26 27 26 26 25 24 26 26 23 22 22
9 5 2 2 0 1 0 0 0 9 0 0 0 0 0 3
13 37 4 0 0 0 0 3 6 8 1 10 31 23 14 8
4 1 5 29 55 18 0 1 0 0 0 0 13 43 80 106
110 113 112 110 108 108 107 102 86 52 64 57 53 32 36 56
73 80 91 87 111 108 83 71 8 10 5 1 1 2 0 0
0 0 0 1 24 27 27 27 27 27 28 27 27 27 27 27
27 28 27 27 28 27 27 27 27 27 26 26 27 25 26 26
26 26 25 24 24 26 27 24 24 23 21 19 16 13 10 7
9 5 0 0 0 0 0 0 0 17 9 4 1 2 0 0
9 40 27 21 15 9 4 0 0 3 0 10 33 35 32 32
26 2 0 2 35 5 0 0 0 0 0 0 17 30 60 100
108 113 112 112 110 109 108 107 101 76 68 73 86 60 58 73
85 107 82 99 112 113 104 88 23 7 8 2 1 0 0 0
0 0 0 3 26 27 28 27 27 27 27 27 26 27 27 28
27 27 27 27 28 27 27 27 27 26 26 26 25 24 24 23
25 25 23 23 22 20 16 14 11 8 6 6 6 7 8 10
8 5 0 0 0 0 0 0 0 26 40 32 27 27 22 14
13 42 23 18 21 25 26 25 22 18 15 19 36 33 33 32
9 0 0 0 1 2 0 0 0 0 0 0 10 21 39 89
104 110 113 112 111 110 110 110 108 100 91 87 95 79 97 105
109 105 95 108 108 110 109 95 41 4 8 7 1 0 0 0
0 0 0 9 27 27 27 27 27 27 28 27 27 27 27 26
27 27 27 27 27 26 26 24 23 23 24 25 25 24 22 20
17 15 12 10 8 8 8 8 9 10 11 12 12 12 13 13
8 5 0 0 0 0 0 0 0 27 42 29 35 37 40 41
39 42 16 8 9 9 10 10 12 14 20 26 26 22 27 28
4 0 0 0 0 1 0 0 0 0 0 0 7 26 35 77
98 107 111 112 112 111 111 111 110 110 108 106 101 95 108 112
109 102 98 106 105 107 103 101 49 6 9 10 6 1 0 0
0 0 0 21 27 27 27 27 27 27 27 27 27 26 27 27
27 26 27 27 27 26 26 27 27 21 19 16 13 11 9 9
9 10 11 12 12 13 13 14 15 14 15 16 13 11 18 19
8 12 13 8 3 0 0 0 0 28 34 30 37 39 42 43
35 29 15 9 9 9 9 8 6 5 5 4 4 6 9 12
2 0 0 0 26 15 0 0 0 0 0 0 2 28 51 88
98 104 110 113 113 113 111 113 112 110 106 105 98 99 108 112
106 97 54 85 97 107 97 98 53 9 6 10 12 4 0 0
0 0 3 23 27 26 27 27 27 26 27 27 27 27 27 27
27 25 24 22 19 16 14 17 28 14 8 10 12 13 13 14
14 14 15 16 17 16 18 18 19 19 19 20 20 16 12 20
9 15 34 38 35 30 23 18 12 31 25 30 36 38 41 43
38 31 19 10 10 9 7 6 6 5 5 5 5 6 6 5
4 0 0 7 77 46 2 0 0 0 0 0 0 27 58 96
101 104 108 112 113 113 113 114 113 111 107 104 96 98 108 110
108 102 98 108 80 92 93 99 53 14 7 7 8 5 0 0
0 0 8 25 27 27 27 26 27 27 27 27 25 23 20 17
15 13 12 12 13 14 14 13 23 13 12 15 16 17 17 18
19 19 19 20 20 20 20 21 22 21 20 22 21 22 18 12
9 15 35 38 37 36 37 37 38 39 15 17 26 31 36 39
37 33 23 12 10 7 5 5 5 6 6 6 6 7 8 9
7 0 0 43 95 69 1 6 0 0 0 0 0 28 62 98
103 107 109 113 114 113 113 113 113 110 106 102 103 99 108 111
108 94 99 111 95 83 91 97 46 22 9 9 2 0 0 0
0 0 14 27 27 26 26 24 22 19 17 15 13 12 13 13
14 16 16 17 18 18 18 17 25 15 15 19 20 21 21 21
21 22 23 22 22 22 22 22 22 23 21 23 23 23 23 17
8 14 34 39 38 37 38 38 39 37 4 0 0 1 4 11
14 24 25 9 8 5 0 0 0 3 8 9 7 5 10 11
16 1 6 77 99 90 14 11 3 0 0 0 1 37 77 102
106 109 113 113 113 113 113 112 111 109 105 101 97 99 110 113
111 89 82 106 96 88 89 90 36 24 8 7 2 0 0 0
0 1 16 20 18 15 15 14 14 14 15 17 17 18 18 19
20 21 21 21 22 22 22 20 25 17 18 22 23 22 23 23
24 24 24 24 24 25 24 23 21 22 23 21 24 24 24 24
14 16 27 30 31 32 34 35 38 34 2 0 0 0 0 1
8 24 25 9 7 4 0 0 0 0 2 3 0 0 3 3
14 1 31 93 101 101 52 6 17 1 0 0 11 50 94 104
110 112 113 114 113 113 113 112 110 108 105 102 95 103 110 112
111 94 99 100 92 102 94 76 25 23 9 11 2 0 0 0
0 1 12 15 16 16 17 19 19 19 21 21 22 22 22 23
24 24 24 24 25 25 23 17 9 6 18 23 25 25 25 24
24 24 24 24 24 23 24 24 24 21 22 20 21 23 23 23
13 15 16 18 21 25 23 25 34 32 2 0 0 0 0 0
1 25 25 7 7 4 0 0 1 0 0 0 0 0 0 0
13 4 67 99 104 102 96 18 12 10 0 6 34 78 100 108
112 113 113 113 113 113 113 111 109 105 99 102 98 101 108 113
106 77 91 106 110 105 98 56 18 20 10 7 0 0 0 0
0 5 19 19 21 21 21 22 23 24 24 25 25 24 26 25
25 25 25 25 25 25 23 13 0 0 15 23 25 25 25 24
24 25 25 24 24 24 24 23 23 22 20 21 20 21 22 22
12 15 13 13 15 24 22 23 34 32 1 0 0 0 0 0
0 23 21 4 2 0 0 0 5 4 0 0 0 0 0 0
16 24 89 100 103 106 105 81 24 11 26 48 71 92 102 109
112 113 113 114 114 113 112 112 108 104 101 99 97 98 107 112
102 79 108 112 109 106 81 52 29 21 10 1 0 0 0 0
0 11 24 24 24 24 25 25 26 26 27 26 26 26 26 26
26 27 27 23 18 13 23 11 6 1 13 24 25 26 25 26
25 24 24 23 23 23 24 23 22 22 21 20 19 20 21 21
9 13 14 19 23 26 26 29 34 31 1 0 0 0 0 0
0 25 18 0 0 0 0 0 1 7 5 0 0 0 0 0
18 63 94 100 104 106 105 99 80 68 74 81 86 94 102 107
110 111 113 113 113 113 113 109 108 101 99 105 99 98 104 110
108 107 109 111 105 90 66 60 36 18 8 0 0 0 0 0
0 18 26 26 25 25 25 26 27 26 27 27 28 27 27 27
27 27 15 0 0 1 17 10 0 0 12 23 25 25 26 24
25 24 23 22 23 22 22 22 22 21 21 20 18 16 19 18
14 13 0 1 4 8 12 18 22 27 1 0 0 0 0 0
0 27 19 0 0 0 0 0 1 8 11 7 3 0 0 0
29 85 94 97 97 99 101 97 87 84 84 89 92 99 104 107
110 113 114 114 114 114 113 109 106 106 105 103 99 98 101 108
107 102 106 106 94 72 65 61 41 21 10 3 2 0 0 0
4 24 27 27 27 28 28 28 29 28 28 28 29 29 29 27
29 28 21 15 20 23 25 15 0 0 12 24 26 26 25 24
24 23 23 22 22 21 21 21 21 21 20 21 20 17 16 16
19 16 0 0 0 0 0 0 0 14 1 0 0 0 0 0
0 29 16 0 0 0 0 1 11 12 13 10 6 0 0 1
57 97 97 101 103 100 102 105 82 85 90 96 98 101 107 109
112 114 114 114 114 113 112 108 106 102 100 101 95 95 98 105
108 106 105 101 80 69 67 73 55 27 15 11 6 0 0 1
13 29 29 28 29 29 29 29 29 29 29 30 29 29 29 29
29 29 29 28 27 26 25 18 0 0 13 24 25 25 25 25
24 23 23 23 22 22 22 21 21 21 20 20 20 20 18 16
17 16 0 0 0 0 0 0 0 13 1 0 0 4 1 0
0 28 13 0 0 0 0 1 14 16 13 4 2 0 0 6
67 93 96 104 109 111 109 106 84 82 93 99 102 105 108 110
113 114 114 115 115 114 113 110 106 101 100 101 96 96 97 103
106 98 91 82 77 79 77 77 64 27 14 15 8 1 1 3
17 30 29 29 29 30 29 29 30 29 30 30 30 30 30 29
30 29 28 28 27 26 26 22 3 0 17 24 25 25 25 24
23 22 22 21 21 21 21 21 21 20 20 20 21 21 18 15
19 17 0 0 0 1 0 0 0 11 1 0 1 14 8 1
0 29 12 0 0 0 0 0 1 9 8 0 0 0 1 0
38 73 79 61 74 102 105 99 82 80 95 101 105 106 110 113
114 114 115 115 115 114 111 107 106 99 95 96 93 91 92 97
103 90 77 97 100 88 79 75 58 19 9 12 7 4 7 6
25 30 30 29 29 30 30 29 30 29 30 30 30 30 30 29
29 29 29 28 28 27 25 22 11 5 20 24 25 25 25 24
23 22 21 22 21 22 20 21 20 20 20 19 20 19 18 15
15 14 0 0 0 10 3 0 0 11 2 0 6 13 9 3
0 28 10 1 1 0 0 0 0 7 9 0 0 0 0 0
10 40 59 71 67 71 75 79 83 80 93 102 106 108 111 112
114 115 114 114 113 113 108 108 103 101 97 95 94 91 89 96
100 93 97 108 104 89 81 73 58 13 9 8 9 7 6 20
29 30 30 29 29 29 29 29 29 29 29 30 29 29 30 29
29 29 28 28 28 26 24 21 19 18 22 25 25 25 24 23
22 22 20 21 20 19 19 19 19 19 18 19 19 18 17 14
14 15 0 0 6 17 4 3 0 12 18 11 18 17 16 12
2 29 10 0 0 0 0 0 0 5 12 0 0 0 0 0
6 35 33 26 67 91 87 86 88 86 92 101 106 110 111 113
113 114 112 111 113 112 111 109 102 104 100 92 94 88 88 92
98 95 100 108 103 87 82 73 62 16 4 7 9 3 10 29
30 30 29 30 29 30 29 29 29 29 28 29 30 29 28 29
29 29 29 28 28 26 25 21 21 22 24 25 24 23 24 22
22 21 20 20 20 19 19 19 19 18 18 17 17 16 14 11
12 14 0 0 2 5 1 0 0 13 34 33 37 37 36 38
39 41 12 0 0 0 0 0 0 7 13 0 0 1 0 0
3 34 30 18 53 83 79 86 89 91 97 101 106 110 112 113
113 114 111 112 112 110 110 109 107 101 100 91 88 82 86 91
98 99 101 107 102 85 80 73 66 33 1 5 2 3 23 29
30 30 29 29 29 29 29 29 29 29 29 30 30 29 29 29
29 29 29 28 27 26 25 23 22 24 25 24 24 23 23 21
21 20 19 19 19 18 17 16 17 17 17 17 16 17 15 12
13 16 3 2 0 0 0 0 0 12 34 34 37 37 36 40
44 45 26 13 16 10 6 3 3 8 15 2 2 1 0 0
3 24 30 19 60 86 81 81 86 88 101 103 104 110 113 112
112 113 113 112 108 112 112 107 104 101 94 91 85 82 84 88
94 101 104 107 100 85 78 73 67 51 10 0 0 9 28 29
29 29 28 29 29 29 29 29 28 30 29 29 30 30 29 29
29 29 29 28 27 26 25 24 23 25 25 24 23 21 21 21
20 19 19 18 18 18 18 18 17 16 16 15 13 15 14 11
15 16 14 3 0 0 0 0 0 11 34 33 35 35 35 42
45 45 34 29 29 29 27 25 26 25 23 19 17 16 15 15
18 27 33 33 66 89 90 87 85 83 97 108 106 109 111 112
111 110 108 108 111 111 111 106 102 100 94 88 87 81 81 87
94 99 105 107 97 84 76 74 67 54 24 1 1 19 29 29
29 29 29 29 29 29 29 29 29 29 29 29 29 30 29 30
29 29 28 27 27 26 25 24 24 24 23 22 21 20 21 20
20 19 18 17 16 17 16 16 16 16 15 15 14 14 14 10
15 16 10 0 0 0 0 0 0 11 32 29 31 30 31 32
29 29 30 30 31 31 29 28 30 30 29 27 25 23 23 21
22 28 38 35 62 67 77 90 83 79 89 106 107 106 109 111
109 111 109 107 110 110 105 105 103 100 91 86 82 78 82 85
91 100 106 106 96 82 75 75 69 55 38 4 0 16 28 29
30 29 29 29 29 29 29 29 29 29 29 29 29 29 29 29
28 28 27 27 27 26 25 25 25 24 23 22 22 20 21 19
19 18 17 17 17 17 16 16 15 15 15 14 13 14 13 9
17 18 6 0 0 0 0 0 0 12 35 28 29 29 30 29
28 27 30 30 31 33 32 32 31 31 31 29 33 35 32 30
29 31 39 38 45 57 34 47 59 61 87 101 107 105 107 109
108 108 109 108 107 105 103 106 102 94 92 88 82 79 82 88
93 103 106 104 94 80 76 72 70 56 40 8 2 13 27 29
29 29 29 29 28 28 28 28 28 28 28 29 29 29 28 28
29 28 28 26 26 26 24 25 25 24 23 21 21 20 20 18
18 18 17 17 16 15 15 15 15 14 14 14 14 14 14 9
15 15 23 23 21 15 14 11 9 15 37 29 30 29 30 30
30 32 34 32 33 35 39 38 34 29 30 30 36 39 38 35
35 35 30 26 26 26 45 59 57 43 63 94 104 105 103 107
109 107 107 109 105 104 103 100 95 88 91 85 78 77 83 87
94 101 106 104 95 82 75 73 70 56 44 10 9 27 27 28
28 28 29 29 29 29 29 29 29 28 29 29 29 28 28 28
29 28 28 27 27 27 26 25 25 24 22 21 20 20 19 18
17 16 16 16 16 16 15 15 15 14 14 13 14 13 13 9
16 15 30 36 39 35 36 41 41 41 39 32 32 32 31 33
34 37 40 34 34 36 41 38 33 31 25 27 37 40 37 35
35 35 33 29 26 47 70 77 79 79 72 87 100 101 100 103
104 105 107 104 104 101 102 99 94 89 89 83 76 81 87 87
98 103 106 103 95 81 71 73 72 57 42 10 18 28 30 29
29 30 30 30 30 29 28 29 29 29 29 28 30 29 29 28
27 28 27 27 26 26 26 25 24 23 21 21 20 19 19 18
17 17 16 16 15 15 14 15 14 13 13 13 13 13 12 9
16 15 33 43 42 41 43 42 43 42 41 30 28 27 27 27
32 38 42 35 35 35 33 34 35 32 29 24 31 31 30 31
35 36 34 32 31 52 72 85 89 87 80 86 90 99 98 99
100 102 104 104 101 98 99 97 88 84 84 77 78 83 93 96
101 103 104 100 95 81 70 72 74 64 41 14 26 29 29 29
30 30 30 30 30 30 29 29 29 28 29 28 29 27 28 28
27 26 27 27 26 27 26 25 24 22 21 21 20 19 17 18
17 15 16 14 15 15 15 15 15 14 15 14 13 13 13 10
16 13 20 27 29 31 33 36 38 39 41 9 6 4 2 3
6 12 34 36 34 18 9 14 17 17 20 28 28 9 2 1
5 10 14 27 32 40 52 77 84 84 85 91 90 97 100 100
102 103 104 102 100 95 91 93 92 87 84 78 83 88 90 96
101 103 104 99 93 82 70 71 75 67 48 24 29 30 30 30
30 30 30 30 30 29 28 28 28 27 28 28 28 29 29 28
27 27 25 24 22 23 22 24 23 22 21 20 19 19 18 17
16 16 16 15 14 15 15 15 15 14 14 14 13 14 13 10
16 12 16 21 22 21 21 21 22 21 26 5 0 0 0 0
0 0 27 36 27 2 0 0 1 6 12 30 29 6 0 0
0 3 11 26 21 34 38 61 75 83 85 88 87 92 99 97
100 101 100 97 97 96 92 88 86 81 84 84 86 91 95 99
101 106 104 101 92 81 69 71 78 69 55 32 29 30 30 30
30 29 30 30 29 28 27 27 27 27 27 28 29 29 28 22
11 10 8 6 5 6 18 25 25 22 21 20 19 18 18 17
16 15 16 15 15 15 15 15 15 14 14 14 13 13 13 11
13 11 20 26 27 27 27 26 26 26 28 7 3 0 0 0
0 8 29 35 12 0 0 0 0 0 13 32 29 8 0 0
0 1 10 24 4 16 42 64 81 84 85 84 84 92 96 99
100 98 97 95 90 90 85 85 81 81 85 86 89 95 95 99
104 106 103 99 93 81 69 71 80 73 62 40 29 30 30 30
29 25 23 19 15 13 10 8 6 8 10 25 29 28 29 22
4 4 3 4 3 3 17 25 24 22 21 19 19 19 18 16
16 16 16 15 15 15 15 15 14 14 14 13 13 13 13 12
12 10 20 26 28 28 28 29 30 31 31 8 1 0 0 0
0 9 29 33 6 0 0 0 0 0 9 32 29 7 0 0
0 0 8 24 6 13 54 75 90 88 87 89 85 93 94 93
91 92 95 88 85 78 82 76 75 82 90 89 93 96 95 103
103 105 104 100 91 80 69 72 82 80 67 49 29 30 30 30
25 6 3 5 6 8 3 2 2 1 2 22 28 28 28 21
5 4 3 4 3 4 17 25 24 22 21 19 19 18 17 16
16 16 15 15 16 15 14 15 15 15 15 14 14 14 14 11
13 12 21 26 28 29 29 30 31 33 32 8 1 0 0 0
4 1 22 31 2 0 0 0 0 0 9 31 28 8 0 0
0 0 5 24 7 15 57 80 89 92 94 96 95 93 88 88
69 72 87 83 76 78 76 76 84 92 95 93 94 92 96 104
105 102 104 99 93 81 69 73 83 83 73 57 48 43 30 30
23 4 2 5 6 7 3 1 2 1 2 19 28 28 28 19
4 4 5 3 3 3 15 24 23 22 21 20 19 18 17 17
16 16 16 15 16 15 13 12 15 14 14 13 13 13 13 11
17 17 18 20 20 21 17 10 16 26 36 11 0 0 0 0
4 1 19 30 1 0 0 0 0 0 8 31 26 7 0 0
0 0 0 22 9 22 58 77 86 92 95 96 93 94 92 86
75 70 73 72 71 71 71 81 90 94 97 100 99 100 100 104
104 103 105 102 93 80 69 74 85 84 78 65 47 55 71 36
24 4 1 5 5 7 3 2 2 1 2 18 27 28 28 20
4 3 4 4 2 2 11 25 24 22 21 20 19 18 16 15
15 15 14 14 14 14 15 14 15 14 14 13 13 13 13 11
16 16 16 17 17 17 11 0 0 14 38 19 4 0 0 0
2 0 16 30 1 0 0 0 0 0 7 32 25 9 0 0
0 0 0 22 12 22 58 73 84 87 89 93 88 85 85 79
76 71 70 68 73 76 80 86 94 98 101 103 99 103 104 106
107 108 106 103 95 81 69 74 86 85 81 71 53 24 83 88
27 5 2 5 7 7 4 1 2 1 2 18 28 28 28 21
5 5 4 5 4 4 9 22 21 20 19 19 18 18 18 16
15 15 16 16 15 14 14 14 13 13 13 12 13 13 12 11
16 15 16 16 17 17 13 0 0 10 38 16 1 0 0 0
4 1 15 30 1 0 0 0 0 0 3 33 26 12 0 0
0 0 0 19 15 14 51 67 77 78 84 81 75 72 72 70
67 67 65 74 79 81 86 91 98 103 105 106 105 100 105 109
108 108 109 104 96 82 69 75 87 89 84 75 65 22 59 104
64 5 2 4 7 7 3 2 3 1 1 17 28 27 27 23
12 11 11 10 10 9 15 20 21 22 21 21 19 18 17 17
16 15 16 15 15 14 14 14 13 13 13 13 13 13 13 11
10 9 11 11 14 16 14 0 0 8 34 10 0 0 0 0
0 0 15 31 1 0 0 0 0 0 2 32 26 9 0 0
0 0 0 17 21 2 41 56 69 72 75 74 72 65 66 64
69 67 71 76 77 83 88 94 103 106 107 109 106 108 107 109
110 110 110 105 96 80 70 77 91 92 88 80 72 42 46 99
104 17 3 5 5 4 3 1 2 1 1 16 27 28 28 24
7 5 5 3 1 0 2 2 0 4 21 20 19 18 18 17
16 15 15 15 14 14 14 14 14 14 13 13 13 12 12 11
0 0 0 2 11 16 15 0 0 5 29 8 0 0 0 0
1 0 13 34 2 0 0 0 0 0 1 32 27 12 0 0
0 0 0 15 24 0 16 49 56 56 63 64 60 64 62 62
69 66 66 74 79 83 92 94 102 106 109 110 109 111 113 109
110 110 109 105 96 79 71 79 92 96 92 86 77 63 52 95
112 71 4 3 2 1 2 2 3 1 1 16 27 28 28 25
6 5 4 2 0 1 4 19 6 2 21 20 18 18 17 17
16 15 15 15 15 14 14 14 14 13 14 13 13 13 12 11
0 0 0 4 16 15 15 1 0 3 27 9 1 0 0 0
9 6 13 36 13 7 7 8 7 7 9 32 28 25 25 25
25 26 29 34 29 4 3 11 33 39 48 50 52 53 53 55
59 62 65 72 80 88 89 93 100 104 107 107 108 111 109 110
112 112 110 106 96 79 72 80 92 96 94 90 85 77 51 99
112 105 47 2 0 0 3 2 2 2 1 15 27 28 28 24
7 4 5 2 0 0 1 4 1 1 19 19 19 18 18 17
16 15 15 15 15 15 15 15 14 14 14 13 13 12 12 12
0 0 0 3 16 15 15 3 0 0 26 26 28 22 23 28
37 36 35 33 41 40 36 38 39 39 39 41 30 26 32 34
36 39 44 45 39 28 27 27 28 28 30 28 26 27 20 14
11 18 34 58 73 81 93 97 100 102 105 107 109 111 109 109
111 109 112 109 98 81 73 82 93 97 96 93 90 84 60 102
111 110 89 9 3 6 8 3 4 3 2 15 28 28 28 26
8 4 4 2 0 0 0 0 0 0 20 19 19 18 17 16
15 15 15 15 15 15 15 15 14 14 13 13 14 13 13 12
0 0 0 2 17 15 15 3 0 0 23 30 32 27 29 35
41 36 32 28 40 42 39 38 38 41 42 42 33 23 31 34
36 41 45 46 41 26 26 26 27 27 28 27 44 42 27 13
11 4 18 44 55 68 84 93 99 104 101 104 107 108 107 109
111 111 112 109 97 82 74 83 92 99 99 97 94 90 59 96
113 112 103 43 2 1 4 4 5 4 2 14 28 28 29 25
7 4 4 1 0 0 0 0 0 0 17 8 2 4 15 16
16 15 16 15 15 14 14 14 14 13 13 13 12 12 12 12
0 0 0 1 17 16 15 5 0 0 22 31 28 25 29 34
40 38 32 27 28 33 32 33 32 32 31 32 30 22 23 27
29 30 28 27 28 27 28 28 28 27 27 31 91 92 45 19
17 4 35 58 60 62 68 85 94 98 100 102 106 106 106 110
111 113 111 110 99 85 76 85 92 100 101 100 98 95 65 98
109 113 106 98 85 69 54 24 6 5 2 15 28 28 29 27
8 4 4 0 16 16 0 0 0 0 4 13 18 8 5 17
16 14 15 15 14 14 15 14 14 13 13 13 13 12 12 12
0 0 0 0 17 15 14 5 0 0 20 25 18 21 21 25
38 38 34 30 21 20 20 20 20 20 20 20 25 24 25 27
28 28 26 23 24 27 27 28 28 28 28 44 116 117 85 34
15 30 43 61 69 68 68 70 83 96 99 101 106 107 109 110
112 112 113 109 99 85 78 86 93 102 106 105 102 99 70 102
112 114 108 103 103 109 113 113 99 65 33 19 29 29 30 26
7 4 4 5 27 39 4 0 0 7 20 19 18 16 1 16
15 14 15 15 15 15 14 14 13 13 12 12 11 12 12 11
0 0 0 0 16 15 13 7 0 3 21 25 7 10 13 16
23 26 24 30 24 21 22 22 28 27 26 26 29 30 31 34
35 34 28 26 26 26 28 27 28 28 29 63 118 116 105 81
22 32 51 69 81 79 79 76 73 81 96 102 107 109 112 111
113 113 113 109 100 86 81 89 94 102 107 109 108 101 94 104
113 114 109 106 105 109 113 113 113 113 113 112 97 66 33 27
11 4 4 2 6 12 4 0 0 12 20 19 18 18 4 14
16 16 15 15 14 14 14 13 13 13 13 13 12 12 12 12
0 0 0 0 15 15 13 11 12 19 26 23 0 0 0 0
0 5 7 27 26 30 34 29 39 42 32 26 27 28 29 33
36 39 30 27 26 26 27 27 28 28 36 92 118 114 110 96
54 37 59 79 91 96 95 90 81 76 83 98 104 110 113 112
112 113 114 110 99 87 85 94 98 102 108 111 110 103 108 103
113 114 110 109 106 109 113 113 113 113 113 112 112 113 100 73
32 6 6 1 3 2 0 0 0 11 22 19 18 18 4 14
16 15 15 14 14 14 14 13 13 13 12 12 12 12 11 12
0 0 0 0 13 16 13 16 29 32 35 27 0 0 0 0
0 0 7 32 26 32 38 29 40 45 18 2 2 2 3 3
17 38 33 28 28 27 28 29 33 62 95 109 118 116 115 101
79 86 56 82 93 101 106 107 101 91 85 90 99 105 110 111
112 114 114 110 100 88 88 97 102 105 108 113 109 113 107 107
113 114 113 109 111 111 114 113 114 113 113 113 113 113 113 113
112 85 23 3 0 0 0 0 0 8 21 20 19 18 4 16
15 15 14 14 14 14 14 14 14 13 14 13 13 12 13 13
0 0 0 0 12 16 12 16 30 32 35 31 1 0 0 0
0 0 2 34 25 30 35 7 7 19 17 0 0 0 0 0
11 37 33 28 28 29 45 70 93 101 100 113 117 117 116 101
92 115 64 83 94 102 108 111 110 104 98 93 96 102 108 110
112 113 114 110 101 90 91 100 105 107 110 111 114 114 107 109
113 114 114 110 113 109 113 111 114 113 113 113 113 112 113 113
113 112 100 48 2 0 0 0 0 9 23 21 20 17 4 17
17 16 16 15 15 14 13 13 13 12 13 12 12 12 12 12
0 0 0 0 10 15 12 14 25 26 26 23 1 0 0 0
0 0 1 35 25 30 35 3 0 13 18 0 0 0 0 0
8 36 34 44 73 100 105 99 100 100 99 117 117 117 117 108
99 117 108 82 94 102 109 113 114 112 107 103 100 100 104 106
109 114 114 112 102 92 96 105 108 111 112 114 114 114 109 111
113 113 112 111 112 110 110 113 113 113 113 113 113 113 113 113
113 112 111 112 87 36 4 0 0 8 22 20 18 6 10 14
9 8 15 15 13 14 13 13 13 12 12 12 12 12 12 12
0 0 0 0 9 15 12 11 4 4 7 4 0 0 0 0
0 0 2 36 25 30 34 4 0 12 19 0 0 0 0 2
31 73 99 114 116 117 107 96 98 96 106 117 115 117 116 111
109 117 117 112 94 102 110 114 115 115 113 108 105 104 102 102
107 113 114 112 104 96 101 108 113 114 115 115 115 114 113 113
111 113 111 110 112 111 105 113 113 113 113 113 113 113 113 113
113 113 112 112 112 112 107 70 23 0 2 1 0 0 8 9
6 6 14 14 13 13 13 13 13 13 13 12 12 12 12 12
0 0 0 0 7 15 12 11 6 6 8 4 0 0 0 0
0 0 3 35 24 31 35 3 0 10 21 0 0 12 59 100
117 117 117 117 117 115 98 89 94 96 111 117 117 117 117 115
115 117 116 116 115 107 110 115 115 116 115 115 112 107 103 98
106 114 115 112 103 100 105 112 114 114 114 115 114 114 114 113
112 112 113 111 113 111 101 113 114 113 113 112 113 113 113 113
113 113 112 112 112 111 112 111 110 69 8 0 0 0 5 6
36 45 18 14 14 14 13 13 13 13 12 12 11 12 11 12
0 0 0 0 6 15 11 10 7 7 10 5 0 0 0 0
0 0 1 34 24 31 35 4 1 9 23 7 53 105 116 117
117 117 118 117 117 113 95 91 92 98 114 116 116 116 117 117
116 116 117 117 116 116 116 115 115 115 115 114 112 107 95 92
103 114 114 112 108 111 115 115 115 114 114 115 115 114 114 113
113 98 79 111 113 109 99 113 113 113 113 112 112 113 112 113
112 113 112 112 111 111 111 111 111 107 92 21 0 1 10 7
41 35 12 4 3 8 13 13 14 13 13 12 12 12 12 12
0 0 0 0 6 15 12 11 10 9 11 5 0 0 0 0
1 0 0 33 25 33 35 8 3 10 63 106 112 116 118 117
117 117 118 117 116 110 100 93 98 104 115 116 116 117 116 116
116 116 117 117 116 116 116 116 116 116 115 115 115 106 102 101
108 114 115 114 114 114 114 115 114 114 114 114 115 115 114 113
113 89 17 96 112 108 97 113 113 112 113 113 114 112 113 113
113 113 113 112 112 112 111 111 112 109 107 98 28 0 0 0
0 0 1 1 0 8 17 16 16 16 15 15 16 15 16 16
0 0 0 0 5 14 11 11 10 11 13 5 0 1 0 0
5 8 0 31 27 34 35 19 38 86 115 115 111 117 117 117
117 117 118 117 116 109 103 100 104 106 58 116 116 116 116 116
116 116 116 116 116 116 116 115 115 116 116 116 115 115 115 115
115 115 114 114 115 115 115 114 115 114 115 114 113 114 114 112
111 99 22 81 110 107 95 113 113 112 113 113 112 112 112 113
113 112 112 112 112 112 111 112 111 111 107 109 103 44 0 0
0 0 1 0 0 6 13 11 10 8 7 6 4 3 2 2
0 0 0 0 5 15 12 11 12 12 14 8 0 0 0 0
5 14 5 27 29 35 54 97 116 116 116 117 114 118 118 117
118 117 117 117 116 108 106 104 107 105 61 116 117 116 116 116
116 116 117 116 116 116 116 116 116 115 116 116 116 116 115 115
115 115 115 115 115 115 115 115 114 115 114 115 115 114 113 112
113 105 39 76 109 108 96 113 113 112 113 113 113 113 113 113
113 113 113 112 112 112 111 111 111 111 110 111 105 105 45 0
0 0 0 2 17 19 19 19 20 21 22 24 25 25 26 27
0 0 0 0 4 14 11 11 12 13 13 17 12 17 17 17
23 29 29 37 35 72 110 111 117 116 116 115 114 117 117 117
117 116 117 116 113 105 107 105 107 93 66 116 116 116 116 115
115 116 116 116 115 116 116 115 115 115 115 115 115 114 114 115
115 115 115 115 114 115 115 114 115 114 114 114 114 113 110 111
112 104 40 88 110 108 101 113 113 113 113 112 112 112 112 111
112 112 111 112 111 111 111 111 111 111 110 111 110 105 105 28
0 0 0 7 31 30 30 29 29 29 28 28 28 28 28 28
0 0 0 0 3 15 11 11 13 14 13 23 31 33 34 35
39 43 45 47 77 114 116 115 117 116 117 116 116 117 117 116
117 117 116 116 111 104 108 106 106 92 71 111 115 115 116 115
116 116 116 116 115 115 116 115 115 115 115 115 115 115 115 115
114 115 115 114 114 114 114 114 114 114 114 114 113 111 110 112
111 94 36 104 110 111 107 113 112 113 113 112 112 112 112 112
112 112 112 111 111 111 111 110 111 111 111 111 111 108 107 96
10 0 0 10 31 30 30 29 29 28 28 28 28 28 28 29
0 0 0 0 3 15 12 10 12 14 14 21 36 36 37 37
40 45 46 66 112 117 116 117 118 117 117 116 117 117 117 117
116 116 116 117 116 108 111 109 107 101 81 103 116 115 116 115
116 116 116 116 116 115 116 115 116 115 115 115 115 115 115 115
115 114 115 115 115 115 115 114 115 114 115 114 113 111 111 112
108 88 60 113 112 113 110 113 113 113 113 113 112 112 112 112
112 113 112 112 112 112 111 112 112 112 112 111 112 111 106 108
65 0 0 12 31 30 30 29 29 29 29 29 28 28 29 29
0 0 0 0 2 15 11 11 13 15 14 13 22 21 21 22
23 27 33 97 116 117 115 117 117 117 117 117 117 117 117 117
117 116 117 116 116 114 111 111 104 104 100 93 117 116 117 116
116 116 116 116 116 115 115 116 115 115 115 115 115 115 115 115
115 115 114 115 115 114 114 114 114 114 114 114 113 111 112 113
107 92 73 112 113 113 111 113 113 113 112 112 113 113 113 112
113 112 112 112 112 112 112 111 112 112 112 111 112 112 108 111
99 23 0 14 31 30 29 29 29 28 28 29 28 28 29 29
0 0 0 0 2 14 11 10 13 15 14 10 8 8 9 10
13 18 51 111 117 118 116 118 117 117 117 117 117 117 117 117
117 117 117 117 117 116 113 112 104 107 110 94 111 115 116 116
116 116 116 116 116 116 116 116 115 115 116 116 116 115 115 115
115 115 115 115 115 114 114 114 114 114 114 115 114 112 113 110
111 105 84 115 114 113 113 114 113 113 114 113 113 113 113 113
112 112 112 112 112 112 113 112 112 112 112 112 112 112 108 111
101 77 1 17 32 30 30 30 29 29 29 28 29 29 28 29
0 0 0 0 2 14 12 10 13 15 15 13 11 10 12 12
15 45 90 116 117 118 116 117 118 117 117 118 117 118 117 118
118 117 117 117 117 116 115 113 106 109 111 92 96 115 117 117
116 116 117 116 116 116 116 116 116 116 116 116 116 115 115 116
115 116 115 115 115 115 115 115 114 114 114 114 113 112 114 113
113 114 103 112 114 114 113 113 114 113 113 113 113 113 112 112
113 113 113 113 113 112 112 112 112 112 112 112 111 112 109 111
103 105 54 19 31 30 30 30 30 29 29 29 29 29 29 28
0 0 0 0 2 15 12 10 13 15 16 16 15 15 16 16
25 91 97 117 118 118 117 117 117 117 117 117 117 118 117 117
117 117 117 117 117 117 117 115 106 112 111 74 94 95 112 116
116 116 117 116 116 117 116 116 116 116 116 116 115 116 115 116
115 115 115 115 115 115 115 115 115 114 115 114 113 113 114 114
113 113 113 111 113 113 113 113 113 113 114 113 113 113 113 113
113 113 113 113 113 113 113 112 112 112 112 112 112 112 111 111
106 99 101 35 31 30 30 30 30 29 30 29 29 29 28 29
0 0 0 0 3 17 13 11 13 16 16 16 16 16 17 20
78 115 103 118 118 117 116 118 118 117 118 118 117 118 118 118
117 117 118 117 118 117 117 116 114 113 112 74 103 84 92 116
116 116 117 116 116 116 117 116 116 116 116 116 116 116 115 115
115 116 116 115 115 115 115 114 115 115 115 115 113 114 115 114
115 114 114 114 109 100 113 113 114 113 113 114 114 113 113 113
114 114 113 113 113 113 113 112 113 112 111 111 112 111 112 111
106 105 103 98 35 31 31 30 29 29 29 29 28 29 28 28
5 6 6 7 8 11 10 11 13 16 17 17 16 16 18 55
112 114 110 117 117 117 115 117 118 118 118 117 117 118 117 117
118 117 118 117 117 117 117 117 117 116 116 80 104 92 98 110
116 115 116 116 116 116 116 116 116 116 116 116 116 115 115 115
115 115 115 115 115 115 114 115 115 115 115 114 114 114 114 114
114 114 113 113 114 108 114 113 113 113 114 113 114 114 113 113
113 113 112 112 113 112 112 112 112 112 112 112 112 112 111 111
107 109 102 112 74 30 30 30 30 29 29 29 29 28 29 28
7 6 7 8 7 8 10 11 13 16 16 17 18 17 35 105
112 116 113 116 117 116 113 117 117 117 117 117 117 118 118 117
118 118 118 117 117 117 116 116 117 117 116 90 107 101 102 109
115 116 116 117 117 116 115 116 115 116 116 115 115 115 115 116
115 115 115 115 115 115 115 115 115 114 114 114 113 114 114 114
114 114 113 114 114 113 113 113 114 113 113 113 113 113 113 113
113 113 113 113 112 112 112 112 112 111 111 111 112 112 112 111
108 109 98 111 106 39 30 29 29 29 29 28 28 28 28 28
7 6 7 7 8 8 10 11 14 16 16 17 18 23 84 109
116 117 115 115 117 116 112 117 117 117 117 118 118 118 117 117
118 117 117 117 116 117 116 116 117 117 116 90 112 97 111 111
116 116 116 116 116 117 116 116 116 116 115 115 115 115 115 115
115 115 115 115 114 115 115 115 115 114 115 114 114 113 115 114
113 113 114 113 113 114 113 113 114 113 114 114 113 113 113 112
113 113 112 112 112 112 112 112 112 112 112 111 112 112 112 111
108 108 102 111 111 73 29 29 29 29 29 28 28 28 28 28
7 7 7 7 7 8 8 10 13 15 16 16 18 64 103 110
116 117 117 116 117 116 112 117 117 117 117 117 117 117 117 117
117 117 117 117 117 117 116 117 116 115 116 93 113 102 115 115
116 116 116 116 116 116 116 115 116 115 115 115 115 115 115 115
115 115 116 115 115 115 115 114 114 115 114 114 113 113 114 113
114 113 113 113 114 113 113 114 114 114 114 113 113 113 113 112
113 112 112 112 112 112 112 112 112 112 112 111 112 112 111 111
109 107 106 111 111 105 39 28 29 28 28 28 28 28 27 27
2 1 1 0 1 5 7 8 16 15 16 17 44 93 97 116
117 117 117 115 115 114 112 117 118 118 117 117 117 117 117 117
117 117 117 117 117 117 116 116 116 116 116 115 116 116 113 116
116 116 115 116 116 116 116 115 116 115 115 115 115 115 115 115
115 115 115 115 115 115 114 114 114 114 114 114 113 113 114 113
114 114 113 113 113 112 112 113 113 113 113 112 114 113 113 112
113 112 113 112 112 112 112 112 112 112 112 112 112 112 111 110
111 108 109 111 111 110 74 28 28 28 28 28 28 28 28 28
0 0 0 0 1 6 10 9 13 14 16 33 105 105 99 116
117 117 117 116 115 114 112 117 118 117 117 117 117 117 117 117
117 117 117 117 117 116 116 116 116 116 116 115 116 115 111 115
116 116 116 116 116 116 115 115 115 115 115 115 115 115 115 115
115 115 115 115 115 115 115 115 115 114 114 114 113 113 113 113
113 113 113 113 113 113 113 112 113 113 113 113 113 112 112 112
113 112 113 113 112 112 112 112 112 113 112 112 111 111 112 111
110 106 110 111 110 110 106 38 28 29 28 28 28 27 27 27
0 0 0 0 0 5 10 12 13 15 22 87 109 108 109 116
117 117 117 117 113 110 112 118 118 118 117 117 117 117 117 117
117 117 117 117 117 116 117 117 117 117 117 116 117 116 113 114
116 115 115 115 115 115 115 116 116 115 115 116 116 115 115 116
115 115 115 115 115 115 114 114 114 114 114 114 114 111 114 114
114 114 114 114 113 112 112 113 113 113 113 113 113 113 113 112
113 113 112 113 112 113 112 112 112 112 112 112 111 112 112 112
110 106 111 111 110 110 111 71 28 28 28 28 27 27 27 27
0 0 0 0 0 5 11 13 15 16 59 113 103 117 115 118
118 118 118 117 114 103 115 117 118 117 117 117 118 117 117 117
117 117 117 117 117 117 117 117 117 116 116 116 117 116 114 112
116 116 116 116 116 116 115 115 115 115 115 115 116 115 116 115
115 115 115 115 115 114 114 115 114 114 114 114 114 110 113 114
113 113 114 114 113 113 113 112 113 113 113 113 113 113 113 113
113 113 113 113 113 113 113 112 112 112 111 112 112 111 112 111
109 109 112 111 110 110 112 103 34 29 29 28 28 27 27 27
2 2 1 0 3 7 12 15 18 21 86 114 98 118 117 117
118 118 118 117 117 97 117 118 118 118 117 117 117 118 117 117
117 117 117 117 117 117 117 116 117 117 117 116 117 116 114 110
114 116 115 116 116 115 116 116 116 116 117 116 115 115 116 115
115 115 115 115 114 114 114 115 114 115 115 114 114 109 113 114
113 114 114 114 113 112 113 113 113 113 113 113 114 114 113 113
113 113 113 113 112 112 113 112 112 112 111 112 112 111 111 111
109 110 111 111 110 110 111 111 58 27 28 27 27 27 27 26
4 4 3 4 6 9 10 12 16 27 98 115 97 118 118 118
117 117 118 117 117 96 116 117 117 117 117 115 117 117 117 117
117 117 117 117 117 117 117 117 117 116 116 116 116 117 116 114
113 116 115 116 116 116 116 116 116 116 115 115 115 116 115 115
115 115 115 115 115 115 115 115 115 115 115 114 114 110 113 114
114 114 114 113 113 112 113 113 113 113 113 113 114 113 113 113
113 113 113 113 113 112 113 112 112 112 111 112 112 112 111 111
109 111 111 111 111 111 111 111 88 28 27 27 27 26 27 26
6 5 4 4 3 2 2 2 14 40 104 115 98 118 119 118
117 117 118 118 117 97 116 117 117 117 117 113 118 117 117 117
117 117 117 117 116 116 117 117 116 117 117 117 117 117 116 116
114 116 115 116 116 116 116 116 115 116 116 116 116 116 115 115
115 115 115 115 115 115 115 115 115 115 115 114 115 110 112 115
114 114 114 114 114 113 113 113 113 113 113 114 114 113 113 113
113 113 113 113 112 112 112 112 113 112 109 112 112 112 112 111
111 112 112 111 111 111 111 111 106 35 26 26 26 27 25 26
0 0 0 0 0 0 0 1 14 60 104 116 102 117 118 118
118 117 118 118 117 97 112 117 117 117 116 112 118 117 117 116
117 117 117 117 117 117 117 117 116 116 116 116 117 116 116 116
114 115 115 116 116 116 116 116 116 115 115 116 115 115 115 115
115 115 115 115 115 115 115 115 115 114 115 115 114 112 110 113
113 113 113 114 114 113 114 113 113 114 113 114 114 113 114 113
113 113 113 113 113 113 113 113 112 112 109 112 111 112 112 111
111 112 112 109 111 111 111 112 111 55 27 27 26 26 25 25
