P2
128 120
135
27 27 26 26 26 26 25 25 24 24 23 22 22 22 21 21
20 20 19 20 19 19 18 18 17 17 17 16 17 15 15 14
14 14 13 13 13 12 12 12 11 10 9 8 6 6 7 10
10 11 12 8 5 13 17 14 13 12 11 10 10 7 6 4
4 3 3 7 8 6 8 4 8 9 10 10 10 11 11 11
11 11 12 13 13 13 13 14 14 15 15 15 16 16 17 16
16 16 17 18 19 19 20 20 20 21 21 21 21 22 22 22
22 23 23 24 23 23 24 24 24 24 24 24 24 25 25 24
27 27 27 26 26 26 25 24 24 24 23 23 22 22 22 21
21 20 20 20 19 18 18 18 18 17 17 17 16 15 16 15
15 14 14 13 13 13 13 12 11 11 10 9 8 7 8 11
12 14 14 9 4 14 17 14 13 12 12 12 11 10 9 7
6 5 4 7 8 9 6 9 9 10 11 11 11 13 12 13
13 13 14 14 14 15 14 15 15 16 16 16 16 17 16 17
17 18 20 19 20 21 21 21 21 22 22 22 22 23 23 23
23 23 23 25 23 24 23 24 24 24 24 25 25 24 24 24
28 27 27 26 26 25 25 25 25 24 23 23 22 22 21 21
21 21 20 20 19 19 19 18 18 18 17 17 16 16 15 15
15 15 14 13 14 14 13 13 12 11 10 9 9 8 9 13
14 15 15 9 3 13 18 15 14 13 12 12 11 11 9 9
10 7 4 5 8 8 8 9 11 12 12 12 13 14 14 14
14 14 14 15 15 15 15 15 16 16 15 16 17 17 18 18
18 19 21 20 20 21 21 22 22 22 22 22 23 23 23 23
23 24 23 25 23 23 24 24 25 25 24 24 25 24 25 25
28 27 26 27 26 25 25 25 24 24 23 23 23 23 23 22
22 21 21 20 20 19 18 18 18 17 17 17 17 16 16 16
15 14 15 15 14 13 13 13 12 12 11 10 10 10 11 14
15 16 16 10 4 12 18 15 15 14 13 12 12 10 9 10
10 9 5 5 10 7 10 10 11 13 13 13 14 15 15 14
15 15 15 15 15 16 16 16 16 16 17 17 18 18 19 19
19 20 21 20 20 21 21 22 21 21 22 23 23 22 23 23
24 24 24 25 24 25 25 25 25 25 24 24 25 25 25 24
28 27 27 27 26 26 26 25 24 25 23 23 23 23 22 22
22 22 21 20 20 20 20 19 18 18 18 18 17 17 16 16
16 15 15 15 14 14 14 14 14 13 12 12 11 11 11 15
16 17 17 10 4 12 19 16 15 15 15 14 13 12 10 10
10 9 7 3 11 8 11 12 13 14 14 14 15 15 15 15
16 15 16 16 16 16 16 17 17 17 18 18 18 19 20 19
20 21 21 20 21 21 21 22 22 22 22 23 23 23 23 23
24 24 24 25 23 24 24 25 25 25 25 24 24 24 25 26
28 27 27 26 26 25 25 25 25 24 24 24 23 23 22 22
22 21 20 20 20 20 19 18 18 18 18 17 17 17 17 17
16 16 16 16 15 14 14 14 13 12 13 12 12 12 13 16
17 18 18 12 6 11 19 16 15 16 15 14 13 12 11 11
11 11 9 4 11 10 12 13 14 14 15 15 16 16 16 16
16 16 16 16 17 16 17 17 18 18 18 18 19 19 19 20
20 20 22 21 21 22 22 22 22 22 23 23 23 23 23 23
24 23 24 26 24 25 25 23 23 24 24 25 25 24 25 24
27 27 26 26 26 25 26 25 25 25 24 24 24 23 23 22
22 21 21 21 20 20 19 19 19 18 18 17 17 17 17 17
16 16 16 16 15 15 14 14 14 13 14 13 13 13 14 17
18 18 18 11 7 10 19 17 16 15 15 15 14 13 12 12
12 11 9 6 11 11 13 14 15 15 16 16 16 16 16 16
17 17 17 17 17 17 17 18 18 18 19 19 19 19 20 20
20 21 22 21 22 21 22 22 23 23 23 23 23 24 24 24
24 25 24 23 22 23 24 25 25 24 24 25 25 24 25 25
28 27 27 26 26 25 25 25 25 24 24 24 23 23 23 23
22 22 21 21 21 20 19 19 19 18 18 18 17 17 17 17
17 17 17 16 15 15 15 14 14 13 13 13 13 14 14 18
18 19 19 13 8 10 20 18 16 16 16 15 15 14 13 13
12 12 11 6 13 11 14 15 15 15 15 15 16 17 17 17
18 17 18 18 19 18 18 19 19 19 19 19 20 19 20 20
21 21 22 21 22 22 22 23 23 23 22 23 24 23 24 22
22 22 24 24 24 24 25 25 25 24 25 25 25 24 25 25
27 27 27 26 26 26 25 25 25 24 25 23 24 23 23 22
22 21 21 21 20 20 20 20 19 19 19 19 18 18 18 17
17 16 16 16 16 15 15 14 15 15 14 14 14 15 16 19
19 19 19 13 10 8 19 17 16 17 16 16 15 15 16 13
12 12 12 7 12 11 15 15 15 16 16 17 18 17 17 17
18 17 18 18 18 18 19 19 19 19 20 20 20 20 20 21
21 22 23 21 21 22 23 23 23 23 22 21 22 23 23 24
25 24 24 23 23 25 25 24 24 24 24 25 25 25 25 25
27 27 27 26 26 25 25 25 25 25 24 24 24 23 23 22
22 22 21 21 20 20 20 19 19 19 18 18 18 18 18 18
17 17 16 16 16 16 16 15 14 13 14 14 14 15 16 19
20 20 20 14 10 8 19 18 17 16 17 16 16 15 14 14
14 13 13 10 14 13 16 17 16 17 17 17 17 17 18 17
18 18 18 18 18 19 19 19 19 19 20 19 20 20 21 21
21 22 23 22 23 23 23 22 22 22 24 24 23 24 24 24
24 24 24 24 24 25 25 25 24 24 25 25 25 25 25 25
27 27 26 26 26 26 25 26 25 24 24 24 24 23 23 22
22 21 21 21 20 20 20 19 20 19 19 19 19 18 18 17
17 17 17 16 16 16 16 16 15 15 15 15 15 16 16 20
20 20 20 14 11 8 19 18 16 16 17 17 17 16 16 15
15 14 13 11 14 14 17 17 17 17 17 18 18 18 18 18
19 19 19 19 19 19 19 19 20 20 20 20 20 21 21 22
21 22 23 21 20 20 21 22 23 23 23 25 24 24 24 24
24 25 24 24 24 24 25 24 24 24 25 25 25 25 25 25
27 27 27 27 26 25 25 25 25 24 24 24 23 23 23 22
22 22 22 21 21 20 20 20 20 19 19 19 18 18 18 18
17 17 17 17 16 16 15 15 15 15 15 15 15 16 17 20
20 20 21 16 12 6 15 18 17 16 17 17 17 16 17 14
15 14 14 11 15 15 17 18 17 17 17 17 18 18 19 18
19 19 20 19 20 20 20 20 20 20 20 20 20 21 21 21
20 19 20 21 23 23 23 23 24 24 24 25 24 24 24 24
24 24 25 25 24 25 25 24 25 24 25 24 24 24 25 24
27 27 26 25 26 25 25 25 25 24 25 24 23 24 23 22
22 22 21 22 21 21 21 20 20 19 20 19 19 18 18 18
18 17 17 17 17 16 16 16 16 16 16 16 15 17 17 21
21 21 21 14 11 2 14 20 18 18 18 17 17 17 18 15
16 15 15 11 16 15 17 18 17 18 18 18 19 18 19 19
19 19 20 20 20 19 19 20 20 20 20 21 20 20 20 20
22 22 22 22 24 23 24 23 24 25 24 25 25 24 24 24
24 24 25 24 24 24 25 25 25 25 25 25 25 25 25 24
27 27 27 26 26 26 25 25 25 24 24 23 24 23 23 23
23 22 22 22 21 21 21 20 20 20 19 19 19 18 18 18
18 18 17 18 17 17 17 16 16 16 15 15 15 16 17 21
21 21 21 15 12 9 17 21 19 18 18 18 17 17 18 15
16 16 16 12 17 16 19 18 18 19 18 19 19 19 19 19
20 19 20 20 20 20 20 20 20 21 21 20 21 22 22 22
22 23 23 23 23 24 24 24 24 24 24 26 25 24 24 24
24 24 24 24 25 25 25 25 25 26 25 24 24 24 25 25
28 27 27 26 27 26 25 25 25 25 25 24 24 24 24 24
24 23 23 22 21 21 21 20 20 20 20 20 19 19 19 19
19 18 18 19 18 17 17 17 17 16 16 16 17 18 18 21
22 22 21 16 12 13 16 21 19 19 19 19 18 18 20 17
18 17 17 14 18 17 19 19 19 19 20 20 20 20 21 21
20 21 21 21 20 20 20 21 21 22 22 22 23 22 23 23
23 23 24 24 24 25 25 25 24 25 25 26 26 25 25 25
26 25 25 25 26 25 25 25 26 25 25 25 26 25 26 26
28 28 28 27 27 27 26 26 26 26 25 25 25 24 24 24
24 24 24 23 23 23 22 22 22 21 21 20 20 20 20 19
19 19 18 19 18 18 18 18 17 17 17 17 17 18 19 22
22 22 22 17 14 16 16 22 20 20 20 19 19 21 24 22
21 19 19 16 21 19 20 21 21 21 21 21 21 21 21 21
21 21 21 21 21 21 22 22 23 23 23 23 23 23 23 24
24 24 25 24 25 25 25 26 26 26 25 27 26 26 26 26
26 26 27 26 26 26 27 26 26 27 27 27 27 26 27 26
28 27 27 27 27 27 27 26 26 26 26 26 26 25 25 25
25 24 24 24 23 23 22 22 21 22 21 21 21 21 21 21
20 20 20 20 19 18 18 18 18 17 18 18 18 19 19 23
23 23 23 17 14 17 15 23 22 19 18 17 16 23 27 28
26 24 22 19 22 19 21 21 23 22 22 22 22 22 22 21
21 22 22 22 23 23 23 23 23 23 24 25 24 24 25 25
25 25 25 25 26 25 26 26 26 26 26 27 26 26 27 27
26 27 27 27 27 27 27 27 27 28 27 26 26 26 26 27
29 29 29 28 28 27 28 27 27 27 26 26 26 26 26 26
25 25 25 25 24 24 23 23 23 23 23 22 22 22 22 22
21 21 21 20 20 20 20 20 19 18 19 18 19 19 20 24
24 24 25 18 16 20 15 26 26 19 20 13 10 18 25 27
29 25 22 22 25 22 22 22 23 22 23 22 22 22 22 22
23 23 23 23 23 23 24 23 24 25 25 24 25 25 25 25
26 25 26 26 26 26 26 27 27 27 27 28 27 27 27 27
27 28 28 27 28 27 27 27 28 27 27 27 27 27 27 27
29 28 28 28 28 28 27 28 28 27 27 26 27 26 26 26
25 25 25 24 24 23 23 23 23 23 23 22 22 22 21 22
21 21 21 21 20 20 20 19 19 19 19 19 19 20 21 24
25 25 24 19 16 20 20 31 25 32 21 12 10 9 10 14
20 25 30 30 26 23 21 22 21 21 22 24 24 24 24 23
23 23 23 23 23 23 24 24 24 24 25 25 24 25 25 25
25 27 26 26 26 26 26 27 27 27 27 28 27 27 28 28
28 28 27 27 26 26 27 27 27 27 28 27 27 26 27 27
28 29 29 28 28 28 27 27 27 27 27 26 26 26 26 25
25 25 25 24 24 24 23 23 23 23 23 23 23 22 21 22
21 21 20 20 20 20 20 19 19 19 19 19 19 20 21 25
24 22 16 14 18 25 33 32 34 23 14 9 5 2 3 6
8 10 13 19 23 23 20 19 21 19 19 23 24 24 24 23
23 23 23 23 24 24 25 25 25 25 26 25 25 25 25 26
26 26 26 26 27 26 26 26 27 27 27 28 28 27 26 26
26 26 27 27 26 26 26 27 26 28 27 27 27 27 27 27
28 28 28 27 28 27 28 27 27 26 26 26 26 26 26 25
25 25 25 24 24 24 24 24 23 23 23 23 22 22 23 22
21 21 21 20 20 20 20 19 19 19 20 19 19 20 21 23
15 7 8 13 21 29 31 33 28 24 23 14 9 9 7 7
7 6 11 11 12 15 17 18 19 19 20 20 22 23 23 23
23 23 24 24 24 24 24 25 25 25 25 25 25 26 26 26
26 26 26 27 26 26 27 27 27 26 26 25 26 26 26 27
27 27 27 28 29 27 27 27 27 27 27 26 26 27 27 27
28 28 29 28 28 27 28 27 27 27 27 26 26 25 26 25
25 25 25 25 24 24 24 24 23 24 24 23 23 22 22 22
22 21 22 21 21 21 20 20 20 20 19 20 19 20 20 12
4 6 9 13 19 26 33 34 36 34 23 20 19 14 10 6
3 3 6 8 8 8 12 13 19 17 16 17 24 24 23 23
24 24 24 24 24 25 24 25 25 25 25 26 26 26 26 26
26 26 26 27 27 26 26 26 26 27 28 28 27 27 28 27
27 26 26 27 29 26 26 27 27 27 27 27 28 27 27 27
29 28 29 28 28 28 28 27 27 27 26 26 27 26 26 26
26 25 26 25 25 24 24 23 23 23 23 23 23 22 23 23
22 22 22 21 21 21 21 21 20 20 20 20 21 20 12 8
10 14 21 23 21 24 26 32 31 24 20 22 21 18 15 12
11 8 6 4 6 12 12 12 18 15 12 14 20 25 26 23
24 24 24 24 25 25 25 25 25 26 25 25 26 26 27 26
26 26 26 27 26 27 28 28 27 27 27 27 27 27 27 27
27 28 28 28 29 27 26 27 27 27 27 26 27 27 27 26
29 28 28 28 28 28 27 27 27 27 26 26 26 26 26 26
25 26 25 25 25 25 24 24 24 24 23 23 23 23 22 22
22 22 21 22 22 21 21 21 21 21 21 20 21 17 9 12
15 17 23 16 17 24 23 23 20 18 19 22 21 19 22 21
17 12 7 5 5 14 16 15 23 14 10 10 19 23 23 23
24 24 25 24 25 25 26 26 26 26 26 26 26 25 25 25
26 26 27 27 27 28 28 28 28 28 28 28 28 28 27 27
27 27 28 27 28 27 28 28 26 27 27 27 27 27 27 26
28 28 28 28 28 27 27 26 27 27 27 27 26 26 26 26
25 26 25 25 25 24 24 24 24 24 23 23 23 23 23 23
23 22 22 22 21 20 21 21 20 20 20 20 20 16 5 4
5 8 13 19 26 20 20 14 19 21 24 22 26 30 26 23
23 18 11 7 9 15 20 17 26 21 13 9 11 29 28 21
22 25 25 25 25 25 26 25 25 25 25 25 25 26 26 26
27 27 27 28 28 27 28 27 27 28 28 28 27 27 27 27
28 27 27 27 29 27 27 27 27 27 27 26 27 26 27 27
28 28 28 28 27 27 27 27 27 26 26 26 26 26 26 25
26 25 25 25 24 24 24 25 24 24 23 24 23 23 23 22
22 22 22 22 21 22 22 21 21 20 20 20 18 8 2 1
4 9 9 16 23 22 13 14 20 27 29 25 18 17 19 19
13 12 15 15 18 26 28 27 32 26 18 12 8 23 40 33
21 25 25 25 25 25 25 25 25 25 26 25 26 26 26 27
27 26 27 28 27 27 27 28 27 27 27 27 27 27 28 27
27 27 27 27 28 27 27 27 27 26 26 26 27 26 26 26
29 28 28 28 28 28 27 27 27 27 27 27 27 26 26 26
26 26 26 25 25 25 25 24 24 24 24 24 24 24 24 23
23 23 23 22 22 22 21 21 20 20 21 20 12 7 1 2
3 2 2 10 17 11 13 19 25 32 34 27 22 25 34 39
35 30 33 37 37 43 41 36 37 28 19 16 10 12 36 47
32 24 25 25 25 25 26 26 26 26 26 26 26 27 27 27
27 27 28 29 28 28 28 28 28 28 28 28 27 27 27 28
27 28 27 27 28 28 28 27 27 26 27 26 26 26 26 27
28 27 28 27 28 28 27 27 27 27 27 27 26 26 27 27
26 26 25 25 25 25 25 25 24 24 25 24 24 24 23 23
23 23 22 22 22 22 22 21 21 21 21 19 7 5 0 0
0 0 2 12 12 15 14 25 29 38 45 41 45 54 74 80
77 73 69 69 71 72 60 45 33 32 22 24 20 13 22 44
43 25 25 26 25 26 26 26 26 26 27 27 27 27 27 28
28 27 27 28 28 27 28 27 27 28 28 27 27 28 28 27
28 27 27 27 27 27 27 27 27 27 27 27 27 27 26 25
28 28 28 28 27 27 27 27 27 27 27 27 27 27 26 27
26 26 25 26 25 25 25 25 25 24 25 25 25 24 24 24
24 23 23 22 22 22 22 21 21 21 20 14 5 2 0 0
0 1 6 6 10 16 28 30 39 50 60 75 78 89 105 107
104 100 98 97 95 90 77 60 48 41 29 17 16 13 18 36
48 33 24 26 25 25 26 26 26 26 27 27 27 27 27 27
28 28 28 29 28 27 28 28 28 27 28 27 28 27 27 27
27 28 28 27 27 28 27 27 27 27 26 25 25 25 25 25
28 28 28 27 28 27 28 27 28 27 27 27 27 26 26 26
26 26 26 26 25 25 25 25 25 25 25 24 25 24 24 24
23 23 23 23 23 22 22 22 21 21 21 13 5 1 0 0
0 2 2 4 14 24 35 30 42 59 79 93 98 106 111 111
108 107 106 103 100 95 87 70 58 44 36 22 18 15 19 26
41 33 25 26 25 26 26 26 26 27 26 27 27 27 27 27
27 27 27 28 27 27 28 28 28 28 28 27 27 28 28 27
27 28 27 27 27 26 25 24 25 25 25 26 27 27 28 25
29 28 28 28 28 28 28 27 27 27 27 26 27 27 27 27
27 26 26 26 25 25 25 26 25 25 25 25 25 24 24 24
24 24 23 23 23 23 22 22 22 21 21 8 1 0 0 0
0 0 7 14 19 30 22 25 38 62 82 97 105 112 114 113
110 108 107 105 102 98 93 81 65 54 39 27 23 17 13 24
32 30 25 27 26 26 27 26 27 27 27 27 27 28 27 27
28 28 28 28 28 28 29 28 28 28 28 28 28 28 28 28
28 27 27 26 26 26 26 27 26 27 26 25 26 26 28 25
25 27 28 28 28 28 28 28 27 28 27 27 26 27 27 27
27 26 26 26 26 26 25 25 25 25 25 25 25 24 25 24
24 23 23 23 23 23 22 23 23 22 20 3 1 0 0 0
0 4 11 9 19 16 17 21 40 58 82 104 110 116 114 114
112 109 109 107 103 99 94 86 74 61 53 29 23 16 11 17
33 28 22 26 26 26 27 27 27 27 27 27 27 27 28 27
28 28 28 28 28 29 28 28 28 28 28 28 27 26 25 25
26 26 28 27 27 27 27 27 26 27 26 27 26 26 27 26
6 13 28 28 28 28 28 27 27 27 27 27 27 27 27 27
27 26 27 26 27 26 26 26 25 26 25 25 25 25 24 24
24 24 23 23 23 23 23 23 22 22 9 0 0 0 0 0
0 2 3 6 7 5 12 21 33 53 87 107 114 116 115 116
115 114 112 110 105 102 96 88 78 66 57 41 31 15 8 12
30 22 19 29 27 26 27 27 27 27 27 27 27 27 28 28
28 28 28 29 29 29 28 28 28 27 28 27 27 27 28 28
27 27 27 26 27 26 27 26 27 26 27 26 26 26 26 26
5 12 28 28 28 28 28 28 28 27 28 28 28 28 27 27
27 27 26 27 27 26 26 26 25 25 26 26 25 25 25 25
25 24 24 24 23 23 23 23 22 16 0 0 1 0 0 0
0 0 0 4 2 2 7 17 36 48 86 104 116 117 116 116
116 115 112 111 108 104 98 92 84 71 60 52 38 22 12 5
21 16 12 26 27 26 27 28 27 27 27 28 28 28 28 28
29 28 28 27 27 27 27 28 28 28 26 27 29 27 27 27
27 27 27 27 27 26 26 26 27 26 27 26 26 26 27 25
7 11 28 28 27 28 28 27 26 26 26 27 28 28 28 27
27 27 27 27 27 26 26 26 26 26 25 25 26 28 27 25
25 25 24 24 24 24 24 23 21 11 0 0 0 0 0 0
0 0 0 2 1 1 6 12 27 45 86 110 117 117 116 116
115 114 111 112 109 105 100 94 87 77 65 54 41 26 8 5
8 13 13 27 28 27 27 27 27 27 28 28 27 28 28 28
28 28 28 28 28 28 28 28 27 27 27 27 28 27 27 27
26 26 27 27 28 27 27 26 27 27 27 26 26 26 26 26
8 11 27 28 28 28 28 28 28 36 35 33 32 30 28 27
26 27 28 27 27 26 27 26 26 26 26 26 36 38 36 31
30 28 25 24 24 24 24 24 22 15 7 10 8 2 0 0
0 0 0 0 1 7 8 17 46 89 109 115 116 116 116 116
115 113 112 111 109 105 101 96 89 82 70 55 42 33 9 1
3 10 9 28 28 27 27 27 28 27 27 28 28 28 28 28
28 28 28 28 28 28 27 27 28 28 27 27 28 28 28 28
27 27 27 28 27 27 27 27 27 27 27 26 27 26 26 26
8 13 29 28 28 28 28 27 29 38 37 37 36 33 32 31
30 28 28 28 27 27 27 25 26 26 26 26 36 36 35 32
33 34 31 26 25 25 24 23 21 14 10 12 5 0 0 0
0 0 2 2 7 13 14 45 94 114 115 114 114 114 115 115
115 113 112 112 112 106 101 98 91 84 74 59 47 32 7 0
1 6 8 26 28 26 26 26 27 28 28 28 28 27 28 28
28 28 28 28 28 27 28 27 28 27 27 27 28 27 27 27
27 27 27 27 27 27 27 26 27 27 27 27 26 25 26 27
8 15 32 30 30 29 29 28 29 39 38 37 35 34 34 35
38 32 32 31 29 27 26 26 26 26 26 26 35 35 35 33
34 34 32 27 24 24 24 23 19 4 6 8 6 0 0 0
2 6 11 12 18 21 45 97 113 114 115 113 114 114 116 116
115 114 114 114 112 108 104 99 92 86 77 60 49 34 6 0
0 3 16 26 27 27 27 27 27 28 28 29 29 28 28 28
28 28 28 28 28 28 27 27 27 27 27 27 28 28 28 28
28 27 28 26 27 27 26 27 26 26 26 26 26 26 26 26
9 16 33 32 31 31 31 30 29 35 32 36 35 36 37 38
39 34 32 34 35 33 31 29 28 27 26 26 27 15 19 22
29 33 33 28 25 24 24 24 21 5 4 5 3 0 1 4
9 11 15 20 29 57 97 109 112 114 115 115 115 115 115 115
115 115 115 115 114 112 106 100 94 88 77 61 49 38 6 0
0 1 22 27 27 28 28 27 27 28 28 28 28 28 28 27
28 28 28 28 27 28 28 27 28 27 27 27 28 28 27 26
27 27 27 27 27 27 27 26 27 26 26 26 26 26 26 26
9 16 34 32 26 29 33 35 36 22 0 5 18 30 33 36
38 31 4 7 15 21 29 30 31 35 32 29 27 10 7 9
5 6 10 28 25 24 24 24 23 5 0 0 0 0 1 10
13 16 31 57 81 102 105 110 113 116 116 116 116 115 116 116
116 116 116 115 114 112 107 101 95 90 77 61 49 33 7 0
0 3 26 27 27 27 27 28 28 28 27 28 28 28 28 28
28 28 28 27 28 28 28 27 27 27 28 27 28 29 28 27
27 26 26 27 27 27 26 26 26 27 26 27 27 27 26 26
9 16 33 35 31 27 26 37 39 23 0 0 2 9 10 10
17 32 1 0 0 0 0 4 10 17 25 29 27 8 1 6
7 1 1 29 25 25 24 24 24 7 0 0 1 0 1 8
21 44 67 87 97 103 106 110 114 115 116 115 114 116 116 116
115 115 115 115 112 112 107 98 96 90 78 59 47 31 6 0
0 8 27 28 28 28 28 28 28 28 28 28 29 28 28 28
28 28 28 27 28 28 28 28 27 28 27 27 28 28 28 27
27 26 27 27 27 27 27 27 27 26 27 27 27 27 27 24
10 9 8 15 24 32 36 39 40 25 0 0 1 4 7 8
12 32 1 0 0 0 0 0 0 0 0 20 27 6 0 1
3 2 0 29 25 25 25 25 24 12 0 0 0 2 9 32
51 62 73 88 97 103 107 109 114 115 116 115 116 116 116 116
116 116 113 106 102 92 74 59 53 48 40 31 22 10 1 0
0 11 28 28 28 27 28 28 28 28 28 28 30 29 28 28
28 28 28 29 29 29 28 28 28 28 28 28 28 28 28 27
27 27 27 26 27 28 27 27 28 27 27 27 26 27 27 27
10 6 0 0 0 1 7 16 24 25 0 0 0 1 1 2
9 32 3 0 0 0 0 0 0 0 0 20 25 2 0 0
1 0 0 30 26 26 26 26 25 21 1 0 0 3 18 40
54 59 62 69 73 71 70 73 79 86 94 99 106 109 117 116
116 111 97 63 37 25 25 26 19 14 10 10 16 20 5 0
0 24 29 28 28 28 29 29 29 29 29 28 29 29 29 29
29 29 29 29 29 29 29 29 29 29 29 28 29 28 29 28
28 28 28 28 28 28 28 28 29 29 29 28 27 27 27 26
10 5 0 0 0 0 0 0 0 16 0 0 0 0 0 0
6 30 0 0 0 0 0 0 0 0 0 20 22 0 0 0
0 0 1 32 26 26 26 25 26 24 9 0 0 0 14 21
26 31 35 38 35 28 20 15 14 17 22 38 63 96 113 112
108 90 41 21 15 7 5 7 4 0 0 0 0 0 4 0
3 28 29 28 29 29 28 29 29 30 29 29 30 28 30 29
29 30 30 30 30 30 30 30 29 29 29 29 29 28 27 30
29 29 29 29 29 28 28 28 28 28 28 28 28 27 28 27
10 5 0 0 0 0 0 0 0 13 0 0 0 0 0 0
11 33 1 0 0 0 5 7 0 0 0 18 22 0 0 0
0 0 0 33 27 26 27 26 26 25 7 0 0 0 6 9
50 31 11 9 8 3 0 0 1 3 8 22 50 65 102 105
96 45 19 5 0 0 6 16 17 8 1 0 0 0 9 0
5 28 29 29 29 29 29 29 29 30 30 30 30 29 30 30
30 30 30 30 30 30 30 29 28 29 28 29 28 30 30 29
29 29 28 29 29 28 29 29 29 30 29 28 28 27 28 28
11 6 0 0 0 0 0 0 0 11 0 0 0 0 0 0
10 36 2 0 0 0 6 11 8 4 0 16 22 0 0 0
0 0 0 31 27 26 26 26 26 25 6 0 0 0 0 4
22 1 4 22 31 18 4 3 2 0 4 47 121 74 52 66
41 34 14 0 0 2 8 73 112 46 2 0 0 0 9 0
10 30 30 29 29 29 29 30 29 29 29 29 31 29 30 30
31 31 31 30 30 30 30 30 29 29 29 29 29 29 29 28
29 28 29 28 27 29 30 29 29 28 29 29 29 29 29 28
10 6 0 0 0 6 4 0 0 9 0 1 0 0 0 0
8 37 2 0 0 0 8 11 10 10 2 15 24 0 0 0
0 0 0 31 27 27 27 26 26 23 7 0 0 0 0 3
12 0 7 62 115 51 18 8 5 3 6 38 107 67 29 34
18 36 16 0 0 1 14 88 121 50 1 0 0 0 7 0
14 28 29 29 29 29 29 30 30 31 31 30 31 30 30 30
29 30 31 30 30 29 30 29 29 30 30 29 29 30 29 29
30 29 29 28 28 28 29 30 30 30 30 30 29 29 28 26
10 5 0 6 2 1 1 0 0 9 0 0 0 0 0 0
8 38 3 0 0 0 6 10 10 10 2 14 25 0 0 0
0 0 0 29 28 26 26 26 25 17 4 0 0 0 0 8
11 0 10 74 124 61 10 7 3 2 1 9 19 31 27 30
21 35 12 0 0 0 4 22 38 10 0 0 0 0 8 1
16 28 29 30 30 30 30 29 29 30 30 29 29 31 30 30
30 31 30 31 32 30 30 30 30 29 30 29 29 30 29 29
29 29 29 29 29 29 30 29 28 28 27 29 29 25 25 25
11 6 2 2 0 1 0 0 0 11 0 0 0 0 0 4
15 38 4 0 1 0 0 4 8 10 1 12 34 24 16 9
4 1 2 28 29 27 27 27 25 12 1 0 0 0 3 27
10 0 3 22 34 14 5 1 0 0 0 2 3 25 49 96
81 33 12 0 0 0 0 3 4 0 0 0 0 0 7 4
26 29 30 30 31 30 30 30 30 31 31 30 30 30 30 30
31 31 31 30 32 30 30 31 30 30 30 30 30 29 29 29
30 29 27 26 26 29 30 27 27 26 24 22 19 16 13 10
10 6 0 0 0 0 0 0 0 19 10 4 2 2 0 0
11 43 29 23 16 11 4 0 0 5 0 11 36 37 34 35
35 36 37 39 28 26 27 26 27 17 1 0 0 0 2 30
9 0 0 3 5 1 0 0 0 0 0 0 1 26 66 100
95 44 19 0 0 0 0 0 0 0 0 0 0 0 8 22
41 31 30 30 30 30 30 30 30 30 30 30 30 30 30 31
31 31 31 30 32 30 30 30 30 29 29 29 28 27 26 26
27 28 26 26 25 23 19 16 13 11 9 9 8 9 10 12
10 6 0 0 0 0 0 0 0 29 43 34 30 29 24 15
16 46 24 20 23 27 29 28 24 21 17 22 39 37 36 35
36 41 43 42 29 27 27 26 27 25 16 29 34 6 2 33
9 0 0 0 0 0 0 0 0 0 0 0 2 29 80 103
97 69 26 1 0 0 0 0 0 0 0 0 0 0 13 41
58 32 29 29 32 30 30 30 30 30 30 31 30 30 31 30
30 31 31 30 30 30 28 27 27 27 27 28 28 28 26 24
20 17 15 13 11 10 10 10 12 12 13 14 15 16 16 17
10 6 0 0 0 0 0 0 0 30 44 32 38 40 44 44
41 44 17 9 11 11 11 12 13 16 22 28 28 24 29 32
35 38 41 41 30 26 27 26 27 26 30 42 49 17 4 41
13 0 0 0 0 0 0 0 0 0 0 0 7 42 85 102
98 83 45 13 0 0 0 0 0 0 0 0 0 0 24 58
62 31 30 30 31 30 30 30 30 29 30 30 30 29 30 30
30 29 30 30 30 31 29 31 30 23 21 18 15 13 11 11
12 13 13 14 15 15 16 17 17 18 18 19 15 13 20 21
10 13 15 9 3 0 0 0 0 30 37 32 40 42 45 46
37 30 16 10 11 10 10 10 9 7 7 6 6 8 11 14
24 26 22 23 25 27 27 27 27 27 32 43 51 37 9 45
22 0 0 0 0 0 0 0 0 0 1 2 16 62 82 101
100 84 69 24 2 0 1 2 1 0 0 0 0 6 40 57
60 29 28 29 31 30 30 30 30 30 30 30 30 30 31 30
30 28 26 24 22 18 16 19 31 16 10 13 15 15 16 16
17 17 18 19 19 20 20 21 22 22 22 22 23 19 15 23
11 18 37 40 38 33 26 19 14 34 28 32 39 41 44 46
41 34 21 11 11 10 8 7 6 5 6 6 6 6 6 7
22 25 25 24 25 27 27 27 27 27 31 55 56 54 31 47
40 5 0 0 0 0 0 0 0 0 0 9 32 75 81 101
101 84 76 49 13 0 1 5 6 2 0 0 1 25 56 58
57 28 29 28 30 30 29 29 30 30 30 29 28 26 23 20
17 16 14 14 15 16 16 15 26 15 14 17 19 19 20 20
21 22 23 23 23 23 24 24 25 24 23 24 24 24 19 13
11 17 37 41 40 39 39 39 41 42 15 19 27 34 38 43
40 35 24 12 11 9 6 6 7 7 7 7 7 8 9 10
24 10 5 26 26 27 27 24 26 27 28 56 57 58 43 47
57 20 0 0 0 0 0 0 0 0 2 18 61 72 82 100
101 86 71 74 37 12 7 1 3 0 0 5 24 60 59 61
54 28 29 29 29 29 29 27 24 21 19 17 16 15 15 16
18 18 19 19 20 20 21 19 27 17 18 22 23 24 24 24
25 24 25 25 25 24 24 23 24 25 23 24 25 25 25 19
10 16 37 42 41 40 41 41 42 40 4 0 0 2 5 12
16 26 27 11 10 5 0 0 0 3 10 10 8 7 12 13
26 31 29 34 34 33 29 4 14 28 28 54 60 57 37 46
59 55 14 1 0 0 0 0 0 4 21 64 71 65 77 99
100 87 67 70 84 70 44 28 21 20 26 43 70 69 58 60
60 27 25 23 20 19 17 17 16 17 19 19 19 20 21 21
22 23 24 24 26 26 25 23 29 21 21 25 25 26 25 26
27 27 27 27 27 27 27 26 24 25 24 23 25 25 25 25
16 17 29 32 33 35 36 38 41 37 2 0 0 0 0 1
9 27 27 9 8 5 0 0 0 0 2 4 0 0 4 4
22 35 27 26 28 30 32 29 27 28 28 48 63 51 50 42
57 65 59 32 13 9 8 9 22 54 96 98 63 78 77 98
103 93 72 70 88 103 101 96 90 91 89 90 88 78 58 55
62 19 16 17 18 19 20 20 22 22 23 23 24 24 25 25
27 27 27 27 27 27 26 20 11 8 22 26 27 28 27 28
27 27 27 27 27 26 26 25 25 22 24 22 23 25 24 25
15 17 18 20 23 27 25 27 36 34 2 0 0 0 0 0
1 27 27 9 8 4 0 0 1 0 0 0 0 0 0 0
19 36 27 21 19 20 23 26 28 27 27 40 68 56 63 42
55 66 74 74 65 60 68 83 101 110 114 88 67 82 86 111
114 103 83 76 75 111 112 107 99 98 95 91 88 80 56 48
62 23 22 22 24 24 25 26 26 26 27 27 28 27 28 28
27 28 28 28 28 28 27 15 1 0 18 26 28 29 28 27
27 27 27 27 27 26 27 26 25 24 22 23 21 23 23 24
14 17 15 15 17 26 25 26 36 34 1 0 0 0 0 0
0 25 23 4 1 0 0 0 6 5 1 0 0 0 0 0
19 36 28 13 24 28 23 24 27 28 28 33 63 61 63 40
54 72 88 93 93 99 104 108 113 116 112 74 71 76 82 100
105 92 80 84 78 100 116 111 105 101 95 89 88 82 57 57
46 25 26 27 27 28 28 28 29 28 29 29 29 29 29 29
30 30 29 26 21 15 25 12 8 1 15 27 28 29 28 28
27 27 26 26 26 25 25 25 24 23 23 21 20 20 22 22
11 15 16 22 26 29 29 31 37 33 1 0 0 0 0 0
0 28 19 0 0 0 0 0 1 8 7 1 0 0 0 0
19 37 29 9 22 22 20 24 27 28 28 32 62 56 63 39
52 72 85 91 95 102 108 113 116 117 102 72 77 61 60 76
84 77 57 74 83 94 115 115 111 102 95 87 88 80 58 65
42 28 29 29 28 29 29 29 30 30 31 30 31 30 30 30
30 30 17 0 0 1 20 13 1 0 15 27 29 29 29 27
27 27 26 25 25 25 24 24 24 22 22 22 20 17 20 20
15 14 0 1 5 9 13 19 24 30 1 0 0 0 0 0
0 29 20 0 0 0 0 0 1 9 13 8 4 0 0 0
18 38 30 11 15 15 13 23 27 29 29 30 58 67 63 38
49 70 79 89 94 102 109 115 117 117 105 77 68 45 50 57
61 65 68 63 77 102 116 116 114 105 97 88 85 77 57 62
38 30 30 30 30 30 30 30 31 31 31 31 31 31 31 31
31 31 24 17 22 26 27 17 0 0 14 27 28 29 29 27
28 27 26 25 25 25 23 23 23 22 22 22 22 20 17 17
20 17 0 0 0 0 0 0 0 15 1 0 0 0 0 0
0 31 16 0 0 0 0 1 12 12 14 11 6 0 0 0
19 37 31 21 21 18 17 23 26 29 29 29 41 69 69 39
48 67 79 88 93 103 109 116 117 117 114 100 83 65 80 91
83 95 87 79 94 107 114 115 112 105 98 89 83 76 55 48
32 31 31 30 31 31 32 32 32 31 32 32 31 32 31 31
31 31 31 30 30 28 27 19 0 0 16 27 29 29 29 27
27 26 26 25 24 23 24 23 22 22 21 22 22 20 17 15
18 17 0 0 0 0 0 0 0 13 1 0 0 4 1 0
0 28 14 0 0 0 0 1 15 17 14 5 3 0 0 0
16 38 33 23 16 2 2 19 25 29 29 29 33 62 68 43
43 62 76 86 94 99 106 114 115 115 111 103 93 83 91 102
95 99 99 91 91 103 108 112 111 106 98 90 82 74 52 34
31 31 31 31 31 31 32 31 31 30 31 32 32 32 31 32
32 31 31 31 30 28 28 24 4 0 18 27 28 28 28 27
26 25 25 24 24 23 24 22 22 21 20 20 20 20 17 14
19 18 0 0 0 1 0 0 0 12 1 0 2 14 8 1
0 30 12 0 0 0 0 0 1 10 8 0 0 0 0 0
13 37 35 23 13 7 5 18 26 29 29 30 30 43 66 54
41 61 77 84 92 96 104 109 111 109 104 96 91 92 104 107
108 105 106 96 89 95 103 104 108 105 98 88 83 71 47 31
32 31 32 31 32 32 33 31 32 32 32 32 32 31 32 31
31 31 31 30 31 28 28 25 13 8 23 28 29 29 28 27
26 25 24 24 23 23 22 21 20 20 19 19 19 18 17 13
16 16 0 0 0 12 3 0 0 12 2 0 8 15 10 4
0 29 11 1 1 0 0 0 0 8 10 0 0 0 0 0
9 37 35 11 9 0 0 16 25 30 30 30 30 32 57 59
39 58 75 84 91 98 102 103 102 102 98 89 92 98 102 107
108 108 105 100 93 91 97 97 101 103 97 90 82 70 46 33
32 32 33 32 32 32 32 32 31 32 31 32 32 31 31 31
31 32 32 31 31 28 27 23 22 21 26 29 29 28 28 26
26 25 24 24 23 22 21 20 19 19 19 19 19 18 16 13
15 16 0 0 8 19 5 3 0 13 19 11 19 17 17 12
3 31 11 0 0 0 0 0 0 6 13 0 0 0 0 0
6 37 33 7 10 1 1 21 23 30 29 30 30 30 29 32
33 56 72 82 88 98 99 95 96 97 86 83 86 89 91 97
102 101 97 93 94 93 97 98 94 97 98 90 80 66 42 32
32 32 32 32 32 32 31 32 32 32 32 32 32 32 32 32
32 31 31 31 31 30 28 25 25 26 28 29 28 28 28 26
26 25 24 22 22 21 21 20 19 20 19 18 18 17 16 11
14 15 1 0 2 6 1 0 0 14 36 34 40 39 37 40
41 44 12 0 1 0 0 0 0 7 13 0 1 1 0 0
3 35 31 6 4 1 3 21 22 29 29 29 30 29 26 30
29 52 68 79 87 98 100 94 94 83 53 57 54 55 59 71
77 80 68 64 68 70 66 95 98 94 96 89 78 61 39 32
32 32 32 32 32 32 32 32 32 31 32 31 31 32 32 32
32 32 32 31 31 29 28 26 26 28 29 28 28 28 28 26
25 24 23 23 22 21 19 19 19 19 18 17 18 17 17 12
15 16 3 2 0 0 0 0 0 13 36 35 39 39 38 42
46 46 26 14 17 11 6 3 4 10 15 3 3 1 0 0
2 25 30 5 2 2 4 11 23 30 29 30 30 27 27 31
33 48 64 77 83 96 101 99 93 92 85 60 61 73 82 81
78 80 82 76 68 63 78 94 102 94 96 89 76 58 36 32
32 32 31 32 32 32 32 31 32 32 32 31 32 32 32 32
32 32 31 31 30 30 29 28 28 30 30 29 28 27 26 25
24 23 22 21 20 19 20 19 19 18 18 16 14 15 15 11
16 17 15 3 0 0 0 0 0 12 35 35 38 37 37 45
49 49 36 31 31 30 28 27 28 27 24 21 19 17 16 16
19 28 34 15 14 14 8 5 17 29 30 30 30 25 29 33
34 45 60 74 80 91 100 104 103 104 93 80 76 84 99 105
105 108 104 90 82 87 97 107 104 97 91 87 75 54 34 32
32 32 32 32 32 31 32 31 31 31 32 31 31 32 32 32
32 32 31 30 30 30 29 28 29 28 28 27 26 26 27 25
24 23 22 20 20 19 19 18 18 17 16 16 15 14 14 11
15 17 11 0 0 0 0 0 0 12 33 30 32 33 33 34
31 31 31 32 33 33 31 29 32 31 31 30 26 25 23 22
23 29 38 28 26 23 18 17 19 28 29 29 29 25 29 32
35 39 56 71 78 86 95 104 107 104 96 84 86 88 96 94
99 100 101 97 95 95 99 105 102 96 83 82 72 51 32 31
32 32 32 32 31 32 32 32 32 32 32 32 32 32 32 31
31 30 29 30 30 30 29 28 30 29 28 28 28 27 26 25
23 22 20 20 19 18 18 17 17 17 16 15 15 16 15 10
18 18 6 0 0 0 0 0 0 12 37 30 31 31 32 32
30 29 32 33 34 35 35 35 33 32 32 31 35 37 35 32
31 34 42 40 39 39 38 36 29 28 29 30 30 26 28 33
35 34 52 65 78 83 88 100 101 96 93 86 87 91 94 89
89 91 96 98 97 97 100 103 96 95 82 76 66 43 31 32
33 32 33 32 32 31 32 31 31 31 31 32 32 31 31 31
31 31 31 30 30 30 29 30 30 30 29 27 27 26 26 24
23 22 21 20 19 19 17 18 17 16 16 15 16 15 15 11
15 14 23 23 22 15 14 12 10 17 40 32 32 31 32 32
33 34 37 35 35 38 41 41 35 31 33 33 40 42 40 37
37 37 32 27 25 25 26 27 26 29 30 30 30 28 27 32
35 33 47 59 70 76 84 94 92 90 87 89 95 96 98 94
90 95 101 104 99 97 97 97 93 93 83 75 60 35 32 32
31 31 31 32 32 32 33 32 32 31 32 31 32 31 32 32
32 31 31 31 31 31 31 30 30 30 29 28 28 26 25 24
22 21 20 19 18 18 17 17 16 16 16 16 15 15 16 12
17 15 31 38 40 37 38 43 44 43 41 34 34 35 34 35
38 40 42 36 37 39 43 40 36 33 28 30 40 42 40 38
38 38 35 31 25 23 23 22 25 29 30 30 30 26 29 33
36 37 37 51 65 75 78 90 89 80 79 89 96 104 105 105
104 106 107 108 103 96 91 88 85 89 77 69 51 31 33 32
33 33 33 33 33 33 32 32 32 31 31 31 32 32 31 31
32 31 31 31 30 30 31 31 30 30 29 28 27 26 25 23
22 21 21 19 18 18 17 17 17 16 16 16 16 15 14 11
15 15 33 44 44 43 44 44 45 45 43 32 29 29 29 30
34 40 44 37 38 37 35 36 38 35 31 26 33 33 31 33
36 37 36 34 28 27 27 27 28 30 30 30 30 24 31 33
36 37 39 44 58 70 78 83 81 74 78 85 98 104 105 105
106 105 104 106 104 93 84 82 82 82 74 62 39 32 33 33
33 33 33 33 33 33 32 31 32 31 32 31 31 30 31 31
31 30 30 31 30 31 31 30 29 29 28 28 26 25 24 23
22 21 20 18 18 18 17 18 17 16 17 16 16 15 15 12
16 14 20 27 29 32 34 37 39 41 42 9 7 5 2 4
7 13 36 39 37 20 11 16 19 19 22 30 30 10 3 1
6 12 15 29 32 29 30 33 34 36 35 31 30 24 32 33
36 37 43 39 48 57 73 78 72 68 72 80 93 99 106 106
110 111 106 105 100 90 82 80 78 74 65 49 41 33 33 33
33 33 33 33 33 32 32 32 31 31 31 31 32 31 32 31
31 30 30 29 27 27 28 31 30 29 28 28 26 25 24 22
21 20 20 19 18 17 17 18 17 17 16 16 15 16 16 13
16 12 15 19 20 21 22 22 22 23 28 6 0 0 0 0
0 0 30 38 28 2 0 0 2 8 15 33 31 7 0 0
0 4 12 27 21 21 25 28 31 34 38 33 30 25 33 33
36 36 46 44 41 52 64 72 66 62 68 73 81 92 102 106
112 113 112 106 93 87 78 74 70 60 50 47 46 33 34 33
33 33 33 33 33 32 31 31 29 30 30 31 31 32 31 26
14 13 11 9 7 9 23 31 31 30 28 28 27 25 24 23
20 20 20 19 18 17 17 18 17 17 17 17 16 16 16 13
14 12 20 26 26 27 28 28 28 28 30 8 5 0 0 0
0 11 33 38 14 0 0 0 0 0 16 35 32 8 0 0
0 1 11 27 5 0 3 2 1 8 39 34 30 27 32 33
37 36 45 49 43 46 54 58 64 57 62 68 76 90 101 106
109 111 110 106 92 84 71 65 64 50 47 58 46 33 33 33
33 29 26 23 19 17 14 11 8 10 13 28 32 32 32 24
7 7 6 7 7 7 23 32 31 30 28 27 27 26 24 22
21 20 21 19 19 18 18 18 18 17 17 17 16 16 17 14
13 11 20 26 28 29 30 31 33 34 33 9 2 0 0 0
0 11 32 36 7 0 0 0 0 0 11 35 31 9 0 0
0 1 9 26 6 2 14 9 0 5 38 34 29 29 33 34
36 36 47 54 53 44 50 51 53 51 55 64 73 83 96 103
106 105 105 98 89 77 68 54 54 48 54 64 47 34 34 33
28 8 5 8 9 10 5 5 5 4 5 26 32 32 32 25
8 7 7 7 6 7 23 32 31 30 29 28 27 26 24 23
22 21 20 19 19 18 18 18 18 17 17 17 17 17 17 14
15 14 21 27 29 29 30 31 33 34 33 8 2 0 0 0
5 1 25 33 3 0 0 0 0 0 12 34 31 8 0 0
0 0 7 27 7 2 7 7 0 3 37 34 28 29 33 34
37 36 47 58 59 51 51 49 49 53 47 58 68 72 88 99
99 103 98 90 84 72 58 47 48 55 64 67 47 33 33 33
27 7 5 9 8 9 6 4 4 3 5 23 31 31 32 21
7 6 7 7 7 7 21 31 31 30 30 28 26 25 23 22
21 21 21 20 19 18 17 16 18 17 17 17 17 16 17 14
20 20 21 21 22 23 18 10 16 28 38 11 0 0 0 0
6 2 22 33 2 0 0 0 0 0 11 35 29 8 0 0
0 0 1 25 9 2 6 4 0 3 37 35 27 30 33 34
37 36 48 59 62 58 52 51 50 53 49 50 60 66 80 86
89 93 88 80 70 64 51 47 58 63 70 70 48 33 33 33
27 7 4 8 8 9 5 4 4 3 4 22 32 32 32 23
7 7 7 7 6 6 17 32 31 29 28 28 26 25 22 21
20 20 19 18 18 18 17 18 18 18 17 18 17 17 17 15
19 19 20 19 19 19 13 0 0 16 41 21 5 0 0 1
4 1 19 32 1 0 0 0 0 0 9 35 28 10 0 0
0 0 0 24 12 2 6 7 1 2 35 35 27 31 33 34
36 36 49 58 63 61 60 53 56 52 52 47 50 61 69 71
74 76 69 64 61 52 48 60 67 70 74 72 61 48 33 33
27 7 5 8 10 10 6 3 4 3 4 22 31 31 30 25
8 7 8 9 9 8 14 28 28 27 26 26 24 24 23 21
20 20 20 19 18 17 18 17 18 17 17 15 16 16 16 14
18 18 18 18 18 18 14 0 0 12 40 18 2 0 0 0
5 2 17 32 1 0 0 0 0 0 4 36 28 14 0 0
0 0 0 21 16 0 1 0 0 1 34 34 26 31 32 34
41 48 55 61 67 68 63 61 55 54 50 50 51 57 61 61
60 57 55 56 53 47 57 70 73 75 76 72 57 65 63 33
28 8 4 6 10 9 6 3 4 3 4 20 30 31 31 27
15 14 14 13 14 13 19 26 28 28 28 27 25 24 22 21
20 19 20 19 18 17 16 16 16 16 16 15 15 15 16 14
11 11 12 13 14 17 15 0 0 7 35 10 0 0 0 0
0 0 15 33 1 0 0 0 0 0 2 34 28 10 0 0
0 0 0 17 21 0 0 0 0 1 30 32 25 31 40 59
57 58 61 66 71 72 68 64 62 58 53 52 57 59 61 63
65 63 59 55 53 59 69 76 78 79 76 72 47 35 83 58
26 8 4 5 6 5 4 3 4 3 2 18 29 30 30 26
8 7 7 4 1 1 3 3 1 6 28 26 25 23 21 21
19 18 18 18 17 16 16 16 16 15 15 15 15 14 14 14
0 0 0 2 12 16 16 0 0 5 30 8 0 0 0 0
1 0 13 36 3 0 0 0 0 0 1 33 28 12 0 0
0 0 0 15 26 0 0 0 0 3 30 31 26 43 91 53
62 59 60 72 78 78 74 71 66 66 61 56 60 66 67 72
70 73 66 65 67 71 78 83 85 85 83 77 52 24 79 105
33 8 4 3 3 2 3 3 4 2 2 17 29 30 30 27
8 5 6 3 0 2 6 24 9 3 27 26 24 23 21 21
20 19 18 17 17 15 15 16 16 14 14 15 14 14 14 13
0 0 0 5 17 16 16 1 0 3 28 9 0 0 0 0
10 6 13 38 14 7 7 9 9 8 10 35 30 26 27 26
26 28 30 36 31 4 3 2 2 4 30 30 32 103 107 47
62 59 59 76 85 87 86 83 75 75 75 75 74 75 83 83
82 81 80 80 81 85 92 96 96 97 92 82 61 30 79 115
64 8 4 4 0 0 4 3 4 3 2 17 29 30 30 26
8 5 6 3 0 0 2 5 1 2 26 25 24 23 22 20
19 19 17 17 16 16 16 16 16 15 15 15 14 15 14 13
0 0 0 3 18 17 16 2 0 0 27 28 29 24 24 30
39 38 36 35 43 42 38 39 41 41 42 43 31 28 35 37
39 42 46 48 42 29 28 28 28 28 31 30 82 120 97 49
67 57 62 79 91 94 94 93 88 86 81 82 82 88 92 92
94 96 92 90 88 93 97 101 101 99 95 87 72 38 92 110
104 22 4 4 4 7 9 3 4 3 2 17 29 30 31 27
9 6 6 3 0 0 0 0 0 1 25 25 24 21 22 21
20 19 18 18 17 17 16 16 16 15 15 14 14 14 14 14
0 0 0 2 19 16 16 4 0 0 24 31 33 28 31 36
43 37 34 30 41 44 42 41 40 44 44 44 35 25 32 35
39 44 48 48 44 28 28 28 28 29 30 49 119 115 95 80
61 53 69 82 94 97 99 100 96 87 86 90 93 93 99 99
99 100 98 94 94 100 102 106 104 101 98 90 79 47 101 108
114 70 4 4 2 1 4 4 5 4 1 14 30 30 31 27
9 5 5 2 0 0 0 0 0 1 22 11 3 6 19 21
19 18 18 17 17 16 16 16 16 15 15 15 14 13 14 13
0 0 0 2 19 17 16 4 0 0 23 32 30 26 31 36
42 40 34 28 30 35 34 35 34 34 33 33 32 23 24 28
31 32 30 29 30 29 29 30 29 29 29 85 122 113 108 88
46 67 76 85 94 99 98 105 105 98 93 93 94 99 102 103
105 104 102 101 103 108 109 109 107 103 99 93 84 54 99 109
117 101 21 4 1 0 4 4 5 5 2 15 29 30 31 29
9 5 6 0 17 18 0 0 0 0 5 17 23 11 7 22
20 19 18 18 17 17 16 15 14 15 14 14 15 13 14 13
0 0 0 1 19 17 15 6 0 0 21 27 20 23 22 27
40 41 36 32 23 21 22 21 22 22 22 23 27 26 27 29
30 30 27 25 26 28 29 30 30 30 36 113 122 112 114 77
58 73 82 89 97 101 95 109 111 107 103 102 102 100 104 106
108 107 109 109 110 114 114 113 109 106 102 97 90 63 91 106
118 109 78 49 35 15 7 6 7 6 3 14 30 30 31 28
9 5 5 7 31 43 5 0 0 10 25 26 25 22 3 21
19 18 18 18 17 16 16 15 15 14 14 14 14 13 13 13
0 0 0 0 18 17 15 8 0 4 23 26 8 11 14 18
25 28 27 32 25 23 24 24 29 30 29 28 31 32 33 37
37 36 31 28 27 28 30 30 30 30 52 122 122 111 113 80
62 87 87 92 98 103 107 111 114 113 108 109 109 111 109 112
115 114 115 114 117 116 116 115 110 107 104 100 94 76 95 112
118 114 102 102 106 114 103 75 48 25 6 15 31 30 32 29
11 5 5 4 9 15 5 0 0 16 27 26 25 23 5 19
21 20 18 18 17 17 16 15 15 15 15 14 14 14 14 14
0 0 0 0 17 17 15 12 13 21 29 26 0 0 0 0
0 6 8 30 29 33 38 32 42 46 35 29 30 31 32 36
38 40 33 29 28 29 29 30 30 31 72 123 121 117 107 94
74 97 94 95 99 105 109 113 116 117 115 114 113 115 116 116
117 117 116 115 117 117 117 114 112 107 106 103 99 103 97 113
118 115 107 104 112 116 117 118 117 117 113 93 65 35 32 29
13 5 7 1 4 3 0 0 0 15 28 26 24 23 6 18
21 19 18 18 17 16 15 14 15 15 14 14 14 14 14 14
0 0 0 0 15 17 14 18 31 34 37 29 0 0 0 0
0 0 8 35 28 34 40 32 44 48 19 1 2 2 3 4
19 41 34 29 29 29 30 30 31 53 102 122 121 120 111 107
96 102 99 98 103 107 110 114 117 118 117 117 116 117 118 118
119 119 118 118 119 119 118 116 112 109 108 108 104 113 98 113
118 117 112 106 112 117 117 118 117 117 116 116 116 111 93 58
27 19 13 4 0 0 0 0 0 10 28 26 25 24 6 21
19 19 18 17 17 17 15 15 15 14 15 15 14 14 14 14
0 0 0 0 13 17 14 17 32 34 38 33 1 0 0 0
0 0 2 36 26 33 37 7 8 20 18 0 0 0 0 0
13 39 35 30 30 30 31 46 85 104 114 122 121 121 110 110
117 103 103 102 105 108 112 116 118 119 119 118 118 118 118 119
119 119 119 118 119 119 118 117 115 112 113 113 117 113 104 116
117 117 112 111 113 116 118 117 117 117 117 117 117 117 117 116
94 24 20 26 2 0 0 0 0 11 29 28 26 22 6 22
22 20 19 18 18 16 15 15 14 14 14 14 14 14 14 14
0 0 0 0 12 17 14 16 27 28 28 24 1 0 0 0
0 0 2 38 27 33 36 3 0 14 20 0 0 0 0 0
9 38 36 31 35 62 89 107 108 103 118 122 121 122 114 113
122 113 105 106 108 110 115 118 119 120 119 119 119 119 119 120
120 120 120 120 120 119 119 118 115 114 117 118 119 112 108 117
118 117 115 115 112 117 114 117 117 117 117 118 117 117 117 117
117 114 77 48 7 0 0 0 0 9 28 26 24 9 14 19
13 11 18 19 17 16 15 15 15 15 14 14 14 14 14 14
0 0 0 0 10 17 14 13 5 6 9 5 0 0 0 0
0 0 3 38 27 34 37 3 1 13 21 0 0 0 0 0
5 38 57 85 114 113 107 107 106 108 122 121 122 122 119 118
121 121 115 107 109 113 116 119 120 120 120 120 119 119 118 120
120 120 120 119 119 119 119 118 117 116 119 119 119 114 111 116
114 117 111 112 111 114 117 117 118 117 118 117 117 117 117 117
117 115 116 112 69 29 0 0 0 0 3 2 1 1 11 12
7 7 19 18 18 17 16 14 16 14 15 14 14 14 14 14
0 0 0 0 9 17 13 12 7 7 10 5 0 0 0 0
0 0 4 38 26 34 38 3 1 12 24 0 0 0 8 39
69 106 119 122 122 112 102 102 103 112 122 121 121 122 121 120
121 121 121 118 112 114 118 120 120 120 120 120 120 120 120 119
120 120 120 119 119 119 119 119 118 118 119 119 119 117 115 117
112 119 115 115 112 109 118 118 118 117 117 117 117 117 117 117
118 117 117 115 117 116 98 44 1 0 1 0 0 1 7 7
37 47 22 18 18 17 16 15 16 15 14 14 14 14 13 14
0 0 0 0 7 17 13 13 10 9 13 6 0 0 0 0
1 0 1 36 26 34 37 3 3 11 24 2 29 80 115 121
122 122 121 122 119 105 99 102 107 115 121 121 122 121 121 121
121 121 121 121 121 118 119 119 120 120 120 120 120 119 119 118
117 119 119 119 119 119 119 120 119 119 119 119 119 118 117 117
115 83 105 116 111 104 117 117 117 117 118 118 117 117 117 118
117 117 117 116 116 115 115 114 83 21 11 4 0 2 14 8
44 37 15 6 4 10 16 15 15 15 14 14 15 14 15 15
0 0 0 0 7 17 14 13 12 12 13 6 0 0 0 0
2 0 0 36 28 35 37 9 3 10 40 77 118 122 122 122
122 122 122 122 121 108 100 104 106 118 121 120 121 121 121 121
121 121 121 121 121 121 121 120 120 120 120 119 117 118 118 115
118 119 119 119 120 119 120 119 120 120 119 119 119 118 118 117
116 47 52 118 111 103 117 118 118 117 117 117 118 117 118 118
118 117 117 117 117 116 116 116 110 97 31 4 0 0 0 0
0 0 2 2 0 11 20 19 19 18 19 17 18 18 18 18
0 0 0 0 7 17 14 13 13 15 16 7 0 2 0 0
7 10 0 35 29 37 38 20 14 69 114 117 123 122 122 122
122 122 122 122 120 110 106 110 111 73 101 122 122 122 121 121
121 121 122 121 121 121 121 121 121 120 121 120 121 120 119 120
120 120 120 120 120 120 120 120 120 119 120 120 119 119 119 115
116 64 40 117 111 103 116 118 118 118 118 118 118 118 118 118
118 118 117 117 117 117 117 117 113 114 102 38 0 0 0 0
0 0 2 2 1 8 15 13 11 10 9 7 5 4 4 4
0 0 0 0 6 17 14 14 15 15 16 9 1 2 0 0
8 17 7 31 32 38 39 53 98 121 120 116 122 122 122 122
123 122 122 122 120 112 111 113 112 69 110 121 122 121 121 121
121 122 122 122 121 121 121 121 121 120 120 121 120 120 120 120
120 120 120 120 120 120 120 120 120 120 119 119 119 119 117 115
115 82 28 116 111 107 116 118 118 118 118 118 118 118 117 118
117 118 118 118 117 117 117 117 117 114 112 109 43 0 0 0
0 0 0 3 20 22 22 22 23 25 26 27 28 29 29 29
0 0 0 0 5 17 14 13 15 16 16 20 15 19 20 21
26 32 32 41 37 57 106 120 121 121 120 118 122 122 122 122
122 122 122 121 117 113 112 114 106 65 102 122 121 121 122 121
121 121 121 121 121 121 120 121 120 121 120 120 120 120 120 120
120 120 120 120 120 120 119 119 119 119 119 119 119 116 113 114
114 85 40 115 112 106 116 118 118 118 119 118 118 118 118 117
118 117 117 117 117 116 116 116 117 115 116 110 110 37 0 0
0 0 0 9 35 33 33 33 32 32 32 32 32 32 32 32
0 0 0 0 5 18 15 14 16 17 16 27 35 37 39 40
43 47 49 52 81 114 116 121 121 122 121 121 122 122 122 122
122 122 122 121 115 113 113 113 105 74 96 122 120 121 121 121
122 122 122 121 121 121 121 121 120 120 120 120 120 120 120 120
120 120 120 120 120 120 120 120 119 119 119 119 118 113 113 117
112 65 62 117 113 110 118 118 118 118 118 118 118 117 117 117
118 117 117 117 117 117 117 116 117 116 117 114 111 106 20 0
0 0 0 12 35 33 33 32 33 32 31 31 32 32 32 32
0 0 0 0 4 18 15 13 16 18 17 25 40 39 40 41
44 49 51 83 119 121 121 122 121 122 121 121 122 122 121 122
121 121 121 121 118 115 115 112 110 91 90 121 121 121 121 121
121 121 121 121 121 120 121 120 121 120 120 121 120 120 120 120
120 120 120 120 119 119 119 119 119 119 120 119 116 113 114 117
106 60 98 117 117 114 118 118 118 118 118 118 117 117 117 118
118 117 118 117 117 117 116 117 117 117 117 117 112 114 88 3
0 0 0 14 34 34 33 32 32 32 32 32 32 32 32 32
0 0 0 0 4 18 14 13 15 17 17 16 24 24 24 24
27 31 58 115 123 121 122 122 122 122 121 122 122 122 122 122
122 121 122 122 121 118 117 111 112 110 91 117 120 121 121 121
121 121 121 121 121 121 120 120 120 120 120 120 120 120 120 120
120 120 120 120 120 119 119 119 119 119 119 119 116 114 116 115
109 63 112 117 118 116 118 118 118 118 118 117 118 117 117 117
117 117 117 117 117 117 117 117 117 117 117 117 115 113 110 50
0 0 0 15 34 33 33 33 32 32 32 32 32 32 32 31
0 0 0 0 4 18 15 13 16 18 18 13 11 10 11 12
15 24 101 121 123 120 122 122 122 123 122 122 122 122 122 122
122 121 122 121 121 120 118 110 114 116 100 103 121 121 121 121
121 121 121 121 120 121 121 120 121 120 120 121 121 121 120 120
120 120 120 119 120 119 119 119 119 119 119 119 116 114 117 114
114 81 113 119 118 117 118 118 118 118 118 118 118 118 118 118
118 118 117 118 117 117 117 118 117 116 117 117 116 113 113 96
13 0 0 19 34 33 33 32 32 32 31 32 32 32 32 32
0 0 0 0 3 17 14 13 15 17 18 15 13 13 13 15
17 46 116 122 123 120 123 123 122 122 122 122 122 122 122 122
122 121 122 122 122 121 119 112 115 116 92 93 111 121 121 121
121 121 121 121 121 121 121 120 120 121 120 120 120 120 120 120
120 120 120 119 120 120 120 120 120 119 119 119 116 116 118 116
117 114 109 118 119 117 118 119 118 118 118 117 118 117 117 117
118 118 118 117 117 117 118 117 117 117 117 117 116 113 114 103
74 2 0 21 34 33 33 33 32 32 32 31 31 31 31 31
0 0 0 0 3 16 14 13 15 17 18 18 17 18 18 19
31 87 120 122 122 120 122 122 122 122 122 122 122 122 122 122
122 122 122 122 122 121 120 114 117 115 81 99 92 110 122 120
120 121 120 121 120 121 120 120 121 120 120 121 120 121 119 120
120 119 120 119 119 119 119 119 119 119 119 118 116 116 119 119
118 118 113 118 118 117 118 118 117 118 118 118 118 118 117 118
117 117 117 117 117 118 117 116 117 116 117 117 117 114 114 106
107 43 0 24 34 33 33 32 32 32 32 32 32 31 31 31
0 0 0 0 5 19 14 13 15 17 18 18 18 18 19 23
87 102 122 122 122 120 122 123 122 122 122 122 122 122 122 121
122 122 122 122 122 121 122 120 119 117 82 103 93 88 116 121
121 121 121 121 120 121 121 121 120 121 120 120 120 120 120 119
120 119 119 119 119 119 119 119 119 119 119 118 115 117 119 118
118 118 118 117 103 117 118 118 118 118 118 119 118 117 118 118
118 118 118 117 117 117 117 117 117 117 117 116 117 116 114 110
101 99 18 25 33 33 32 33 33 32 32 32 31 31 31 31
7 7 8 8 10 12 12 12 15 18 18 18 19 18 20 63
116 106 121 122 121 119 121 122 122 122 122 122 122 122 122 122
122 122 122 122 122 121 121 122 121 120 89 106 106 94 113 119
120 120 121 120 120 120 121 120 121 120 120 120 120 120 120 119
120 120 120 119 119 119 119 119 118 119 119 118 116 117 118 119
118 119 118 118 109 117 118 118 117 118 118 117 117 118 118 118
118 118 117 117 117 117 117 117 116 116 116 116 116 116 114 113
105 113 92 31 33 33 32 32 32 31 32 31 31 31 31 31
8 9 9 9 9 11 12 13 15 18 18 19 19 20 40 111
116 114 120 122 121 118 122 122 122 122 122 122 122 122 122 121
122 122 122 122 121 121 122 122 121 121 93 109 113 104 112 117
121 120 121 121 121 120 120 120 120 120 120 120 120 120 119 120
120 119 119 119 119 119 119 120 120 119 120 118 116 118 118 118
118 118 118 118 118 118 118 118 118 118 118 118 118 118 118 118
118 117 117 117 117 117 117 117 117 116 117 117 116 117 114 113
106 110 116 63 32 33 32 32 32 31 31 31 31 30 31 31
8 8 9 9 9 10 12 13 15 18 18 19 20 28 98 116
120 119 120 122 120 116 122 122 122 122 122 121 122 122 122 122
122 122 122 122 121 121 121 121 120 120 95 113 110 112 117 120
120 120 121 121 121 121 120 120 120 120 120 120 120 120 120 119
119 120 119 119 119 120 119 119 119 119 119 118 115 118 119 118
118 119 119 118 118 118 118 117 118 118 118 118 118 118 117 117
117 118 117 117 117 117 117 117 117 117 117 116 116 117 114 114
105 112 117 102 35 32 32 31 32 32 30 31 30 30 30 30
8 8 8 8 9 10 10 12 15 17 18 19 21 68 111 118
121 119 119 122 121 114 122 121 122 122 122 121 122 121 122 121
121 122 121 121 121 121 121 121 120 120 97 115 104 118 120 121
120 120 120 120 120 120 120 120 120 120 119 119 120 119 119 120
119 119 119 119 119 119 119 119 119 119 119 118 116 118 117 118
118 118 118 117 118 117 118 118 118 118 118 118 118 117 118 117
117 117 116 116 117 117 117 116 116 117 117 117 116 116 113 115
106 115 116 116 64 31 32 31 31 31 31 31 30 31 30 30
2 1 1 1 3 7 9 10 18 16 18 19 46 105 110 119
122 121 119 121 121 114 122 122 121 122 122 121 122 121 121 122
121 121 121 121 121 121 121 120 120 120 119 120 120 117 120 120
120 120 120 120 120 120 120 119 120 120 120 120 119 119 119 119
120 119 119 120 119 119 119 119 118 118 119 117 115 118 118 117
118 118 117 118 117 117 117 118 118 117 117 117 118 117 117 117
116 116 117 116 117 117 117 117 117 116 117 116 116 116 114 115
108 116 115 115 101 34 31 31 30 30 30 30 30 30 29 29
0 0 0 0 2 9 13 12 15 16 18 25 85 100 118 121
122 122 120 120 120 113 122 122 122 122 121 121 121 121 121 121
121 121 121 121 121 121 121 121 120 120 120 120 120 117 117 120
120 119 120 120 120 120 120 119 119 119 119 119 119 120 119 119
119 119 119 119 119 119 119 119 119 118 119 118 115 118 117 117
117 118 117 117 117 117 117 117 117 118 118 118 117 117 117 117
117 117 117 116 117 117 117 117 117 117 117 117 117 116 115 113
111 116 115 114 115 64 31 31 31 31 31 30 30 30 30 29
0 0 0 0 1 7 12 14 15 16 22 92 109 99 120 122
122 122 121 121 119 113 122 122 122 122 121 121 122 121 121 122
122 121 121 121 121 121 121 121 120 121 121 121 121 118 117 120
120 120 120 120 120 120 119 119 119 119 119 119 120 119 119 119
119 120 119 119 119 119 119 119 119 118 118 119 115 116 118 118
118 118 119 118 118 117 117 117 117 117 117 117 117 117 117 117
118 117 117 117 117 117 117 117 117 116 117 116 116 116 117 112
111 116 116 114 115 102 33 31 31 31 30 30 30 29 29 29
0 0 0 0 1 7 13 15 17 19 64 110 114 109 121 122
122 122 121 121 114 114 122 122 121 121 121 122 121 121 122 121
121 121 121 121 121 121 121 121 121 121 121 121 120 119 115 119
120 119 120 119 120 120 119 119 120 120 120 120 120 119 120 119
119 119 119 119 118 118 118 118 119 118 118 118 115 114 117 118
118 117 118 118 117 116 117 116 117 117 117 117 118 117 117 117
117 117 117 117 116 117 117 116 116 116 117 117 116 116 115 110
114 116 114 114 115 115 48 20 31 31 30 30 30 29 29 29
3 3 2 0 4 9 14 17 19 40 114 106 119 118 121 122
122 122 122 122 108 116 121 122 122 121 121 121 121 122 121 121
121 121 121 121 121 121 121 120 120 121 121 121 120 119 116 117
120 120 120 120 120 119 120 120 120 119 119 120 120 120 120 119
119 120 120 119 119 119 119 119 118 119 119 119 116 112 118 118
118 118 118 118 117 117 118 117 117 117 117 118 117 118 118 118
117 117 118 117 117 118 118 117 117 115 117 117 116 115 115 110
116 116 115 114 116 116 87 8 31 30 30 29 29 28 29 29
5 4 5 6 8 10 13 14 19 72 122 102 121 122 121 122
122 121 122 121 104 116 122 121 121 121 120 121 122 121 121 121
121 121 121 122 121 121 121 121 121 121 120 121 120 120 119 116
120 120 119 120 120 121 120 120 119 120 120 120 119 120 120 119
119 119 118 119 119 119 119 119 119 119 119 119 117 111 118 117
117 118 118 118 117 116 117 117 117 117 117 117 118 117 117 118
117 118 118 117 117 117 117 116 117 114 117 117 117 116 115 112
117 117 115 113 116 116 112 23 30 30 29 29 28 28 28 28
7 7 6 5 4 4 3 4 20 90 121 101 120 123 123 123
122 123 122 122 106 116 123 121 121 122 120 121 121 121 122 121
122 121 122 121 121 121 121 121 121 120 121 121 121 121 121 119
121 121 120 121 121 121 120 120 120 120 120 120 120 120 119 119
119 119 119 119 119 120 120 119 119 120 120 119 119 111 118 118
118 119 119 118 118 118 119 118 118 118 117 118 118 118 117 118
118 118 118 117 118 117 117 118 118 114 117 117 117 117 114 114
117 117 115 116 117 117 116 56 26 30 29 29 28 28 28 28
0 0 0 0 0 1 1 3 28 104 121 103 120 122 122 122
122 122 122 122 112 109 122 122 122 121 119 122 122 122 122 121
121 121 121 121 121 121 121 121 120 120 120 120 121 120 120 119
119 120 120 120 120 120 120 120 120 120 120 120 120 120 119 119
120 119 120 119 119 119 119 119 120 119 120 119 119 114 117 118
118 118 118 118 118 118 118 118 118 118 118 118 118 118 118 118
118 118 117 117 118 117 117 116 117 115 117 117 116 116 115 116
117 116 115 115 117 116 116 89 6 24 29 28 28 28 28 28
