P2
128 120
122
25 25 25 23 24 23 23 22 22 21 21 20 20 20 19 19
19 18 18 18 16 17 16 16 15 15 15 15 15 13 13 13
12 12 12 11 12 12 11 11 10 9 8 7 6 5 5 8
9 10 11 7 3 12 14 12 10 10 10 9 8 6 4 2
2 1 1 4 6 4 6 2 5 7 7 8 8 9 9 9
9 9 10 11 10 11 12 12 12 13 13 13 13 14 14 14
14 14 15 16 16 16 17 18 18 19 19 19 20 20 20 20
20 20 21 22 21 21 21 22 22 22 21 22 22 22 22 22
25 25 24 24 23 22 22 22 21 21 21 20 20 20 20 20
19 18 18 18 17 17 16 15 15 15 15 14 14 14 13 13
13 13 12 12 11 11 11 11 10 10 9 8 6 6 7 10
11 12 13 8 3 11 15 12 11 10 10 9 8 8 6 4
4 3 2 4 6 6 3 6 7 8 9 9 10 10 10 10
11 11 12 12 12 12 13 12 13 13 14 13 13 14 14 14
15 17 18 16 18 18 19 19 19 19 19 20 20 20 21 20
21 21 20 22 21 22 22 22 22 22 22 22 22 21 22 22
25 24 24 24 24 23 23 22 22 21 21 21 20 20 20 19
19 19 18 18 17 17 17 16 16 16 15 15 15 15 14 14
13 13 12 12 12 12 12 11 11 10 10 8 7 7 8 11
12 13 14 8 2 11 16 13 12 11 10 10 9 8 7 7
7 4 2 2 6 6 6 7 9 9 10 10 11 11 12 12
11 11 12 12 13 12 13 13 14 14 14 14 15 15 16 16
17 18 19 17 18 18 19 19 19 19 19 20 20 20 20 21
22 21 21 23 21 21 21 22 22 22 21 22 23 22 23 23
25 24 24 24 24 23 23 22 21 22 21 21 21 21 20 20
20 19 19 18 18 18 17 16 16 16 15 15 14 15 15 14
14 13 13 13 12 13 12 11 11 10 10 9 8 8 10 13
14 14 15 9 3 11 17 14 13 12 11 10 10 9 7 8
8 7 3 2 8 5 8 8 10 11 11 11 12 12 12 12
12 12 12 13 13 14 14 14 14 15 15 16 16 16 17 17
17 18 19 18 19 19 19 20 20 20 20 20 20 20 20 20
21 21 22 22 21 22 23 22 23 23 22 21 22 23 22 22
25 24 25 24 24 23 23 23 23 22 21 21 21 20 20 19
19 19 19 18 18 17 17 17 16 16 16 16 16 15 15 14
14 14 13 13 13 13 13 12 11 12 11 10 10 9 9 14
15 15 15 9 4 10 16 14 13 13 13 12 11 10 8 8
9 7 5 1 8 6 8 10 11 11 12 12 13 13 13 13
13 13 13 13 13 13 14 15 15 15 16 17 17 17 17 17
18 18 19 18 18 19 19 20 20 20 20 20 21 21 22 21
22 22 22 23 21 22 22 22 22 22 22 21 21 22 23 23
25 25 24 24 24 24 23 23 23 22 22 22 22 21 21 21
20 20 19 19 18 18 17 17 16 16 16 15 16 15 16 15
15 14 13 14 13 13 13 12 12 12 12 11 11 11 11 15
15 16 16 10 5 10 17 15 13 12 12 12 11 10 9 10
9 9 7 3 9 8 10 11 13 13 13 12 13 14 14 14
14 14 14 14 15 15 15 16 16 16 16 17 17 17 17 18
18 18 20 19 19 19 20 20 21 20 21 21 21 21 21 22
21 21 22 23 22 23 22 21 21 22 21 22 23 22 22 22
24 24 24 24 24 23 23 23 23 22 22 21 21 21 20 20
19 19 19 19 18 18 18 17 18 18 17 16 17 16 15 15
14 14 14 13 13 12 12 12 12 12 12 12 12 12 13 16
17 17 16 10 5 9 18 15 13 13 13 13 12 11 10 10
10 9 8 4 9 9 11 12 13 12 13 13 14 14 13 14
14 15 15 14 15 15 16 16 16 16 17 16 17 18 18 18
18 18 19 19 19 19 20 20 20 20 20 20 21 21 22 22
22 22 22 21 21 20 22 22 23 22 22 22 23 22 23 23
25 25 24 24 24 24 23 23 22 22 22 22 21 20 21 20
20 20 19 19 18 18 18 17 17 17 17 17 16 16 15 15
16 15 15 15 14 14 14 13 12 12 12 12 12 13 13 16
17 17 17 11 7 8 17 16 14 14 14 13 13 12 11 11
11 11 10 5 10 10 12 13 13 13 13 12 14 14 14 14
15 15 15 15 16 16 17 17 17 17 17 18 17 17 18 18
19 19 20 20 20 20 20 21 21 21 20 20 21 21 22 20
20 21 21 21 23 23 23 23 22 22 22 22 23 22 23 23
25 25 25 25 24 24 23 23 23 23 21 22 21 21 21 20
20 19 19 19 19 19 18 17 18 18 17 17 17 15 16 16
15 15 14 14 14 14 13 13 13 13 13 13 13 14 14 17
18 18 18 11 8 7 17 16 14 15 14 14 13 13 14 11
11 11 11 6 11 9 12 13 13 14 15 15 15 15 16 16
16 16 17 16 16 17 16 17 17 17 18 17 18 18 18 19
19 19 20 20 20 21 21 21 22 21 20 19 20 21 21 22
23 23 23 22 22 22 22 22 22 22 22 23 23 23 23 23
26 25 25 24 24 24 24 23 23 22 22 22 22 21 21 21
21 20 20 20 20 19 18 18 18 17 17 17 16 16 16 16
15 15 15 15 14 14 14 14 14 13 13 13 13 13 15 17
18 18 18 12 9 7 18 16 15 14 14 14 14 13 12 12
12 12 11 8 11 12 13 14 15 15 15 15 15 16 15 16
16 16 17 17 16 17 17 17 17 18 18 18 18 19 19 19
19 19 21 20 20 21 21 21 20 20 21 22 22 22 22 22
22 22 22 22 22 23 23 23 23 23 23 23 24 23 23 23
25 25 24 25 24 24 23 22 22 22 22 22 22 22 21 21
20 21 20 20 19 19 19 18 18 18 17 17 17 17 16 16
16 15 15 14 14 14 14 14 14 14 14 13 14 14 16 18
18 18 18 13 9 7 18 17 15 14 15 15 14 14 14 13
13 13 11 9 12 12 14 15 15 15 15 16 16 16 17 16
17 17 17 17 17 18 17 18 18 18 18 18 19 19 19 19
20 20 21 20 20 18 19 20 22 22 21 23 21 21 22 22
22 22 21 21 22 22 23 23 22 23 22 22 23 22 23 23
25 25 25 25 24 23 23 23 22 22 22 22 22 21 21 21
21 20 20 20 19 19 19 19 18 18 18 17 17 16 16 16
16 16 16 16 16 15 15 15 14 14 13 13 13 14 15 18
19 19 18 14 11 5 14 18 15 15 16 15 15 14 15 13
13 13 12 10 13 13 15 15 16 16 16 16 16 17 17 17
16 17 17 17 17 17 18 18 18 18 19 19 19 19 20 20
18 19 18 19 21 22 22 21 22 22 22 22 22 22 22 21
22 22 22 22 23 23 23 22 23 23 23 22 22 22 23 22
25 25 25 25 24 24 24 22 23 22 23 22 22 22 22 21
21 21 21 20 20 19 19 19 18 18 18 17 17 17 16 17
16 16 16 15 16 15 15 15 15 14 14 14 15 16 16 19
20 20 19 14 9 3 14 18 18 17 16 16 16 15 16 14
15 14 13 10 15 14 16 16 17 16 17 17 17 17 17 17
18 18 18 17 18 18 18 18 19 19 19 19 19 19 18 19
21 21 21 21 21 21 21 21 22 22 22 23 23 22 23 23
23 23 23 23 23 23 23 23 23 23 23 23 23 23 23 23
25 24 24 24 24 24 24 23 23 23 23 22 22 22 22 22
21 21 20 20 20 19 19 19 18 18 18 18 17 17 17 17
16 17 17 17 16 16 15 15 15 14 14 14 14 15 16 19
19 20 19 14 12 9 16 20 18 17 17 16 16 15 16 14
14 14 14 10 16 14 17 17 17 17 17 17 17 17 18 18
17 17 18 17 18 18 19 19 19 18 19 18 19 19 20 20
21 21 21 21 21 22 22 22 22 22 22 23 23 23 23 23
23 23 23 23 22 23 23 24 23 23 23 23 23 23 23 23
25 25 24 24 24 24 23 24 23 23 23 23 23 22 22 22
22 21 21 21 20 20 20 19 18 19 19 18 18 17 18 18
17 17 16 16 16 15 15 16 16 14 15 15 15 17 17 20
21 21 20 15 11 13 15 20 18 17 17 17 16 16 17 15
15 15 15 11 16 15 17 17 17 17 18 18 18 18 19 19
19 19 19 19 18 18 18 19 19 19 20 19 21 20 21 21
21 21 22 22 21 22 22 22 22 22 22 23 23 23 23 23
23 23 23 23 23 23 24 23 23 23 23 23 24 24 23 24
25 25 25 25 24 25 24 24 24 23 23 23 22 21 22 21
21 21 21 21 20 19 20 19 19 19 19 18 18 18 18 18
17 17 17 17 17 16 16 16 16 15 15 15 15 16 17 20
20 20 20 15 12 15 14 20 20 19 18 17 17 17 17 15
15 14 16 12 17 16 18 18 18 18 18 18 18 17 18 18
18 18 18 18 18 18 19 20 20 21 21 21 21 20 21 21
22 22 22 22 21 22 22 23 22 23 22 24 23 23 24 23
23 23 23 23 23 23 23 23 23 23 24 23 24 24 24 23
25 25 25 25 24 24 24 23 24 23 23 23 23 22 22 22
22 21 21 20 21 20 19 19 20 19 19 19 19 18 18 18
17 17 17 17 17 16 16 16 15 16 16 15 16 17 17 21
20 21 21 16 13 16 14 20 20 19 19 17 18 17 18 16
16 16 16 12 17 17 18 18 18 18 19 18 19 18 18 18
19 18 19 19 19 20 20 20 20 20 21 21 21 21 21 21
22 22 22 22 22 22 23 22 23 23 23 24 23 23 23 23
23 24 24 23 23 23 23 23 23 24 23 23 23 23 23 23
26 25 25 25 25 25 25 25 24 24 23 23 23 22 22 22
22 22 22 21 21 21 21 20 20 19 20 19 19 18 18 19
18 17 17 17 17 17 17 16 16 16 16 16 16 17 18 20
21 22 22 18 15 19 17 21 20 17 20 18 19 18 20 17
17 17 16 13 18 16 19 19 18 18 18 19 19 18 19 20
19 19 19 19 20 20 20 20 21 21 22 21 22 21 21 22
22 22 22 22 22 22 22 23 24 23 23 24 23 24 24 24
24 23 24 23 24 23 24 23 23 24 24 24 24 24 23 23
25 25 24 25 24 24 25 24 23 23 24 23 23 23 22 22
23 22 22 22 21 21 20 20 20 20 20 19 19 19 19 19
19 18 18 17 17 17 17 16 16 16 17 17 16 17 18 21
21 21 19 14 13 16 16 16 18 20 21 20 20 20 21 22
20 18 16 15 17 17 19 18 19 18 19 19 20 20 21 20
20 20 20 20 20 20 21 21 21 21 22 21 21 21 22 22
23 23 23 23 23 23 23 24 23 24 23 24 24 24 24 24
24 24 24 22 23 23 23 24 23 23 24 24 24 23 23 23
25 25 25 25 25 25 25 25 24 23 23 23 23 22 22 22
22 22 22 22 22 21 21 21 20 21 20 20 19 19 18 19
19 18 18 18 18 17 17 18 18 17 17 18 19 21 20 19
15 10 10 10 7 8 6 10 15 15 17 17 18 19 21 21
24 20 16 13 17 15 19 19 19 19 20 20 20 20 20 20
20 20 21 21 21 21 21 22 22 21 22 21 22 22 21 22
22 22 22 23 23 23 23 23 24 24 24 25 25 24 22 23
23 23 23 24 23 23 23 23 23 23 23 24 23 24 24 24
26 26 25 25 25 25 25 24 24 24 24 24 23 23 23 23
23 23 22 22 22 21 21 21 21 20 20 20 20 20 19 19
19 19 19 19 18 18 19 20 21 20 19 20 20 21 17 14
9 5 11 8 9 12 14 18 14 11 11 13 18 17 19 20
20 20 17 9 8 13 19 20 20 20 20 21 20 21 21 21
21 21 21 21 21 21 21 22 21 21 22 23 22 22 23 23
23 23 24 24 24 24 24 24 24 24 23 22 23 23 23 24
24 24 25 25 26 24 24 24 24 25 24 24 24 24 24 24
26 26 26 25 25 25 25 25 24 24 24 24 24 24 23 23
23 24 23 22 22 22 23 21 21 21 21 21 21 20 20 20
19 19 19 19 19 19 23 25 25 25 18 13 10 11 7 3
3 7 11 17 22 21 24 19 14 11 8 11 14 18 16 19
21 16 16 17 14 10 14 20 21 20 21 22 21 21 21 22
21 21 21 21 21 21 22 22 22 22 22 23 23 23 23 24
24 23 24 24 25 24 23 23 23 24 25 24 24 24 24 24
24 24 24 24 26 24 24 24 24 24 24 24 24 24 24 24
26 26 25 25 25 25 24 24 24 24 24 24 24 24 24 24
23 23 23 22 22 22 21 21 21 21 21 21 20 20 19 20
20 20 20 19 19 22 30 28 22 14 7 4 4 3 9 10
8 12 17 22 27 31 32 25 17 15 12 9 17 15 13 10
16 20 17 13 10 12 19 17 15 16 20 22 21 21 22 21
22 21 22 22 22 22 22 22 22 22 23 23 23 23 24 24
24 24 23 24 23 24 24 25 24 24 24 25 24 25 24 24
24 24 25 24 25 24 24 24 24 24 24 24 24 24 24 23
26 25 25 26 26 25 25 25 25 25 24 24 24 24 24 24
23 23 23 23 22 22 23 22 22 21 21 21 21 21 20 20
20 20 19 20 23 27 25 19 11 6 5 2 0 1 6 18
21 17 21 32 36 34 33 25 20 15 16 13 10 24 17 9
6 10 18 19 16 14 13 15 17 15 9 16 20 21 22 22
21 22 22 21 22 23 23 22 23 24 23 23 24 23 22 23
23 24 24 25 25 25 25 25 25 25 25 25 26 25 25 25
25 25 25 25 26 24 25 25 24 24 25 24 24 25 24 24
26 26 25 25 25 25 25 25 25 24 24 24 24 24 24 24
24 24 23 23 22 22 22 22 22 21 21 21 21 21 21 21
21 20 20 21 24 17 13 9 6 3 4 7 3 4 13 20
24 21 31 26 25 19 18 16 15 18 15 15 12 11 29 16
11 11 9 13 18 19 18 13 16 16 13 7 14 20 21 21
22 22 22 22 23 22 23 23 23 23 23 23 23 23 23 24
24 24 25 26 25 25 25 25 25 24 25 25 25 25 25 25
25 25 25 26 26 24 24 24 25 25 25 24 23 24 24 24
26 25 25 25 25 25 25 25 25 24 25 24 24 24 24 24
23 23 23 23 23 22 22 22 22 21 22 22 22 21 21 20
20 20 19 18 12 7 3 3 5 6 5 16 16 14 19 19
15 20 21 20 16 13 15 14 15 23 21 16 19 13 12 27
21 14 12 11 14 12 11 13 13 8 8 10 9 12 21 22
22 22 22 22 22 22 22 22 23 23 23 23 24 24 25 24
24 24 24 25 25 25 25 25 25 25 24 25 24 25 25 25
25 25 25 25 25 25 24 24 24 24 24 24 24 24 25 24
26 26 26 25 25 25 25 25 25 25 25 25 25 24 24 24
24 24 23 24 23 22 22 22 22 22 21 21 21 21 21 21
21 21 20 10 4 0 0 2 8 15 14 19 15 21 20 17
22 27 28 28 28 27 21 18 16 25 27 22 22 26 20 15
22 22 18 14 10 7 9 9 8 14 11 6 10 8 11 20
22 22 22 22 22 23 23 23 24 23 24 23 23 24 24 24
24 24 25 26 25 25 25 25 25 25 25 25 24 25 24 25
25 25 25 24 25 25 25 24 24 24 24 24 24 24 24 23
25 25 25 25 25 26 26 24 25 24 25 24 24 24 24 23
24 23 23 23 23 23 23 23 22 22 22 22 21 22 21 21
20 20 15 3 0 3 7 12 12 15 17 18 18 29 31 35
37 45 51 53 53 42 32 28 24 26 30 28 27 26 33 30
23 19 19 14 10 8 2 2 5 4 3 8 11 12 4 7
18 22 22 22 22 23 23 23 22 23 23 24 24 24 24 25
25 25 24 26 25 25 25 24 25 25 25 25 25 25 24 24
25 24 24 24 25 24 24 24 25 24 24 24 24 24 24 23
26 26 25 25 25 25 25 25 25 24 24 24 24 24 24 24
24 24 24 23 23 23 23 22 22 22 22 22 21 21 21 21
21 19 7 2 1 2 14 21 17 16 18 25 37 52 60 62
61 58 64 61 67 55 44 36 31 25 34 37 39 37 30 26
25 19 14 10 5 3 4 7 7 7 2 1 10 10 5 0
6 20 23 24 23 24 24 24 23 23 24 24 24 24 24 24
24 24 25 25 25 25 25 25 25 25 25 25 25 24 25 25
24 25 25 25 25 25 24 24 25 24 24 23 22 23 22 23
26 25 26 25 25 25 24 24 24 24 24 24 24 24 24 24
24 23 24 23 23 23 23 23 23 22 22 22 22 22 21 21
21 17 6 0 0 3 15 14 15 19 33 53 69 79 84 84
81 78 70 63 66 61 52 37 34 33 25 37 45 43 39 31
25 22 20 13 6 7 3 4 3 5 8 5 8 9 9 0
0 8 23 25 23 23 23 23 23 23 23 24 24 24 25 25
25 25 25 25 25 25 25 25 25 25 25 25 24 24 25 25
25 24 25 25 24 23 22 22 22 23 23 24 25 24 25 22
27 26 26 25 26 26 25 25 24 25 24 25 25 24 24 24
25 24 24 24 23 23 23 23 23 22 22 22 21 21 21 21
21 16 7 0 0 12 12 8 22 42 63 79 85 92 93 92
90 88 80 66 58 55 47 41 30 28 28 24 30 34 32 32
29 23 18 9 9 9 7 3 1 3 7 8 7 8 7 1
0 1 16 24 23 24 24 23 24 23 24 24 24 24 25 24
25 24 25 26 25 25 25 25 26 26 26 25 24 25 25 25
25 23 23 23 23 23 24 24 24 24 23 22 24 24 25 22
23 25 25 26 25 25 25 25 24 25 25 25 24 25 24 25
24 25 24 24 24 23 23 23 23 23 22 22 22 22 22 21
20 22 6 0 1 9 5 27 49 67 77 87 93 99 97 96
95 95 92 82 62 49 44 35 25 22 29 30 26 30 37 34
29 20 16 11 10 7 5 1 2 4 9 8 8 6 4 0
0 0 7 24 23 23 24 24 24 24 25 24 25 25 25 25
25 26 26 26 25 25 26 26 26 25 25 25 24 23 22 23
23 24 24 25 25 24 24 24 24 24 24 24 23 23 24 22
5 11 26 26 26 25 25 26 25 25 25 25 25 25 25 25
25 25 25 24 25 24 24 24 23 23 22 22 22 22 22 21
17 24 8 0 0 8 18 51 63 70 85 91 96 99 100 99
99 99 100 97 73 62 48 32 24 20 21 33 37 36 33 34
32 24 15 10 8 9 4 1 0 4 8 9 11 4 1 2
0 1 2 22 25 24 24 24 24 25 24 25 25 24 25 25
26 25 26 26 26 25 25 25 25 25 25 24 24 25 25 25
25 25 25 24 24 24 24 24 24 24 24 24 24 24 24 23
4 10 25 26 25 26 26 25 25 25 24 26 26 25 26 25
25 25 25 25 24 24 24 23 23 23 23 23 22 23 23 21
19 21 10 1 0 1 38 57 64 74 86 92 96 99 98 99
100 101 103 95 74 62 50 32 22 18 19 24 36 42 39 36
29 24 20 13 7 3 4 0 0 2 9 10 10 5 2 7
4 11 3 15 25 24 24 24 24 24 25 25 25 26 26 26
26 26 25 25 25 25 24 24 25 26 24 25 26 24 24 25
25 25 25 25 25 24 24 24 24 24 23 24 24 24 24 23
6 9 26 26 26 26 26 26 25 24 25 26 26 25 25 25
25 25 25 24 24 25 24 24 24 23 23 22 25 26 24 23
22 18 15 5 0 6 49 61 67 78 87 92 96 97 99 99
100 103 103 95 75 66 50 34 25 17 19 26 27 35 44 40
39 34 23 14 10 7 5 3 3 0 3 7 11 10 6 14
17 19 5 11 25 24 25 25 25 24 25 25 25 26 24 25
25 25 25 25 25 25 25 25 25 25 25 25 25 25 24 24
25 25 25 25 25 25 24 24 24 24 24 23 24 23 23 23
6 10 25 26 26 25 26 25 25 33 32 31 30 28 26 26
24 25 25 24 24 24 24 23 24 23 24 23 33 36 33 27
23 20 13 8 1 15 55 64 68 82 87 92 94 98 98 99
101 103 105 97 76 61 52 34 26 19 23 23 32 33 32 36
32 31 27 21 12 6 3 1 2 1 0 8 13 13 16 14
9 10 9 12 25 25 24 24 25 25 25 25 25 25 25 25
25 25 24 26 25 25 24 24 24 24 25 24 25 25 25 25
25 25 25 25 24 25 24 24 24 24 24 24 23 23 24 23
7 12 26 27 26 27 26 26 27 36 35 34 34 31 30 28
27 25 26 26 25 25 24 24 25 24 24 24 34 34 33 27
21 23 8 5 0 24 59 64 72 82 88 92 94 98 100 102
103 104 104 101 81 60 54 41 28 21 25 29 28 29 31 30
30 25 18 14 10 8 5 5 3 2 1 7 14 13 14 10
1 3 9 14 24 24 24 24 25 25 26 26 26 24 25 25
26 25 25 25 25 24 25 25 25 25 25 25 26 25 25 25
25 24 24 24 24 25 25 24 24 24 25 25 24 23 23 25
7 14 29 28 28 27 26 26 27 37 35 34 32 32 32 33
36 30 30 28 27 24 23 23 24 24 24 24 32 33 32 27
12 23 9 0 0 32 59 64 75 82 89 91 95 98 101 104
106 106 106 102 87 66 53 45 32 21 24 32 30 29 27 28
26 20 14 12 11 10 7 3 2 0 0 2 8 9 5 3
0 0 2 12 21 25 25 25 25 25 26 26 26 25 26 25
26 26 25 25 25 25 25 24 25 24 25 25 26 26 25 25
25 25 26 24 24 25 24 24 24 23 24 24 23 24 23 24
7 15 32 30 29 30 29 29 27 33 30 34 32 32 35 36
36 30 29 32 33 31 29 27 27 25 24 24 25 13 16 18
7 19 23 6 0 39 60 68 78 84 89 93 97 99 103 105
107 106 105 99 89 71 57 49 41 30 24 27 28 26 21 19
17 16 10 10 12 11 9 1 2 0 0 1 1 2 0 0
0 0 0 11 21 25 25 25 25 25 26 26 26 25 25 25
25 25 26 25 24 25 25 25 26 25 25 25 26 25 26 25
25 24 25 24 24 25 24 24 24 24 24 24 24 24 25 24
8 15 32 30 23 26 31 32 33 20 0 5 17 27 31 34
36 30 4 6 13 19 28 28 29 32 29 26 24 9 6 6
2 2 14 7 1 46 59 72 81 87 92 95 98 100 103 106
109 109 108 104 92 76 68 55 42 34 27 25 23 20 20 18
19 18 15 14 13 11 4 0 0 0 0 0 0 0 0 0
0 0 0 9 21 25 25 25 25 25 25 25 26 25 25 25
25 26 26 26 26 25 26 26 25 25 25 25 25 26 25 24
25 24 24 25 24 25 24 24 24 24 24 25 24 24 24 24
8 14 31 32 29 26 24 34 37 22 0 0 1 7 9 8
15 30 0 0 0 0 0 4 9 16 22 27 24 6 0 4
5 0 1 1 7 52 62 78 84 90 94 96 98 100 103 106
109 110 111 111 103 80 68 61 47 42 33 23 18 17 18 15
15 17 15 15 12 9 1 0 0 0 0 0 0 0 0 0
0 0 0 3 22 26 26 25 25 25 25 26 27 26 26 25
26 25 26 26 26 26 26 25 25 25 25 25 25 25 25 25
25 24 25 25 24 24 24 25 25 25 25 25 25 25 24 22
8 7 8 14 22 30 33 35 37 23 0 0 0 2 6 8
10 30 0 0 0 0 0 0 0 0 0 17 24 4 0 0
2 1 0 0 21 55 68 79 84 90 94 87 81 97 102 105
108 110 111 111 111 101 71 51 41 31 27 21 18 15 17 16
17 15 15 15 13 4 0 0 0 0 0 0 0 0 0 0
0 0 0 2 20 25 25 25 26 25 25 25 27 26 26 25
26 25 26 26 26 25 25 25 25 25 25 25 25 25 25 25
24 24 25 24 24 25 25 25 25 24 24 24 24 24 24 24
8 4 0 0 0 1 6 13 22 22 0 0 0 0 0 2
7 30 2 0 0 0 0 0 0 0 0 18 22 1 0 0
0 0 0 1 38 58 71 78 79 55 22 2 10 21 39 54
65 79 97 111 112 112 103 71 49 34 29 24 21 17 17 15
17 17 16 15 9 4 0 0 0 0 0 0 0 0 0 0
0 0 0 0 9 23 25 25 26 26 26 25 27 26 26 26
26 26 27 26 26 26 26 26 26 26 25 25 26 26 25 25
25 26 25 24 25 25 24 25 26 25 25 25 25 24 24 24
8 5 0 0 0 0 0 0 0 14 0 0 0 0 0 0
5 28 0 0 0 0 0 0 0 0 0 17 19 0 0 0
0 0 0 3 48 60 70 58 14 0 0 0 20 36 35 39
33 29 20 21 34 46 59 59 52 38 34 24 16 16 21 16
16 17 15 12 8 4 1 0 0 0 0 0 1 1 0 0
0 0 0 0 0 15 26 27 26 26 26 26 27 26 27 26
26 27 27 27 27 27 26 26 25 26 26 26 26 25 25 26
26 26 26 26 26 25 26 26 26 25 25 25 24 24 24 24
8 4 0 0 0 0 0 0 0 12 0 0 0 0 0 0
9 30 1 0 0 0 3 5 0 0 0 16 20 0 0 0
0 0 0 26 50 60 55 6 0 0 0 0 1 7 17 21
28 32 39 41 45 49 47 41 36 23 17 14 16 13 14 13
13 15 14 9 7 3 1 0 0 0 0 0 0 2 2 1
3 0 2 0 0 9 25 26 26 26 27 27 27 26 27 27
27 27 27 26 27 27 26 26 25 25 26 25 25 27 26 26
26 26 26 26 25 26 26 26 26 26 26 26 25 25 25 25
8 4 0 0 0 0 0 0 0 9 0 0 0 0 0 0
8 33 2 0 0 0 4 8 6 3 0 14 20 0 0 0
0 0 0 28 49 55 19 0 0 0 0 8 15 33 69 90
93 92 89 84 80 72 63 50 28 29 39 37 36 23 12 10
9 10 12 8 7 5 2 1 0 1 3 1 1 2 1 4
2 1 2 1 0 5 23 26 26 26 27 26 28 26 26 27
26 27 27 26 27 26 26 26 26 26 26 25 26 26 25 26
26 26 25 25 24 25 26 25 25 25 25 26 25 26 25 25
7 4 0 0 0 4 4 0 0 8 0 0 0 0 0 0
5 34 2 0 0 0 5 9 8 8 1 12 22 0 0 0
0 0 0 23 42 46 2 0 0 0 0 5 29 61 96 101
105 109 109 107 106 106 104 100 62 47 32 17 5 4 9 14
7 3 6 19 36 29 9 6 2 3 6 5 3 2 3 3
1 1 1 2 0 0 16 26 27 27 27 27 27 26 26 27
27 27 27 26 26 26 27 25 26 26 26 26 26 26 26 25
26 26 25 25 25 24 26 26 26 26 26 25 26 25 24 23
8 4 0 4 1 0 1 0 0 7 0 0 0 0 0 0
6 35 3 0 0 0 5 8 7 8 2 11 23 0 0 0
0 0 0 3 21 35 0 0 0 0 0 4 29 53 96 107
110 111 111 108 107 107 106 101 71 57 56 27 8 5 14 39
42 32 45 95 94 99 67 10 7 3 3 6 5 3 1 0
0 0 0 1 2 0 13 27 27 27 27 26 26 27 26 26
26 26 26 27 28 27 27 27 27 27 26 26 26 26 26 26
27 26 25 26 26 25 27 26 25 25 24 25 25 22 22 22
9 5 1 2 0 0 0 0 0 9 0 0 0 0 0 3
13 36 4 0 1 0 0 3 7 9 1 11 31 23 15 8
4 1 0 0 2 12 0 0 0 0 0 6 29 40 88 103
110 112 111 109 108 108 107 102 79 54 67 57 45 26 37 53
69 68 93 79 88 83 90 47 10 10 9 5 1 3 1 1
2 2 1 2 0 0 22 28 27 27 28 27 27 28 27 27
28 28 28 27 28 27 27 27 27 27 26 27 27 26 27 26
27 26 25 24 24 26 26 24 24 24 22 20 17 13 10 8
9 5 0 0 0 0 0 0 0 18 9 4 1 2 0 0
10 40 27 21 16 10 4 0 0 4 0 10 33 35 32 33
32 26 0 0 0 3 4 0 0 0 0 4 25 30 72 97
106 111 111 112 110 111 110 108 99 74 74 79 83 56 60 73
87 103 78 98 113 112 87 79 13 12 10 6 3 3 2 0
0 0 4 2 0 4 26 28 28 28 28 27 27 27 28 28
28 28 28 28 29 28 28 28 28 27 27 27 26 25 24 23
26 25 24 24 23 21 17 15 11 9 8 7 7 8 9 10
9 5 0 0 0 0 0 0 0 29 40 33 29 27 23 14
15 44 23 19 23 26 28 27 23 19 16 22 37 35 34 33
34 29 0 1 0 1 0 0 0 0 0 2 19 24 54 88
101 107 111 111 110 111 112 112 108 103 90 96 96 83 95 101
106 105 98 107 111 113 106 89 28 9 9 6 2 2 1 0
2 0 0 0 0 9 28 28 28 28 28 28 28 28 28 29
29 29 28 29 29 28 27 25 25 25 25 26 27 26 24 22
19 16 13 11 10 9 10 9 11 12 12 13 14 14 15 15
10 6 0 0 0 0 0 0 0 29 43 30 37 39 42 43
40 43 17 10 11 11 11 11 13 16 21 27 26 23 28 31
33 30 0 0 25 41 0 0 0 0 0 0 16 39 69 87
99 106 110 112 113 113 114 113 113 112 112 108 102 102 112 113
109 102 105 105 106 110 110 96 41 6 11 9 4 2 2 0
0 0 0 0 0 14 28 28 27 28 28 28 28 28 28 28
28 28 28 28 29 29 27 28 28 21 20 16 14 12 10 10
10 11 12 13 13 14 15 16 16 17 17 17 14 12 18 19
10 13 14 8 3 0 0 0 0 30 35 31 38 40 44 45
36 30 16 10 10 10 9 9 8 7 7 6 6 7 10 13
23 23 5 7 74 62 2 3 0 0 0 0 14 46 85 95
100 104 110 113 113 114 113 114 114 111 110 108 104 108 113 113
108 90 70 103 109 108 103 101 48 10 8 10 9 4 1 1
0 0 0 0 1 21 28 28 28 28 28 28 28 29 29 30
28 27 25 24 20 17 15 18 29 14 9 11 12 14 14 15
15 16 17 18 18 18 20 20 21 20 21 21 21 17 13 21
10 17 35 39 37 31 24 18 13 33 26 31 37 39 42 44
39 33 20 11 11 10 8 7 7 6 6 6 5 6 6 7
22 24 12 41 94 76 5 9 0 0 0 0 15 49 88 98
103 106 111 113 114 114 114 114 114 111 110 106 99 107 112 112
110 100 89 93 86 104 99 98 56 13 6 9 14 6 1 0
0 0 0 0 6 26 28 28 28 28 28 28 26 24 22 18
16 15 13 14 14 15 15 14 25 14 13 16 17 18 18 19
20 21 20 21 22 22 22 22 23 23 22 22 23 23 19 13
10 16 36 39 38 37 38 38 39 40 15 19 28 33 38 41
38 34 23 12 11 8 5 6 6 6 7 7 8 8 9 10
25 10 15 78 97 92 22 15 6 0 0 0 23 59 96 101
106 109 111 114 114 113 113 113 113 111 106 110 105 107 113 112
107 101 101 109 81 97 95 99 54 20 12 9 13 10 3 0
0 0 0 0 17 26 27 25 22 20 17 16 14 14 15 16
16 17 17 17 19 19 19 18 26 16 16 20 22 22 22 23
23 24 24 24 24 22 23 22 23 24 21 23 24 24 24 18
8 15 35 40 39 39 39 39 40 38 4 0 0 1 5 12
15 25 25 11 9 5 0 0 0 3 9 10 8 7 11 12
25 29 48 95 100 99 56 8 17 0 0 3 35 79 98 105
109 111 114 114 114 114 114 113 112 110 106 105 102 108 113 113
108 80 99 110 84 92 93 93 47 29 14 11 6 2 1 0
0 0 0 3 17 16 16 15 15 15 17 18 18 19 19 20
21 21 22 22 23 23 23 21 26 18 19 23 23 24 24 24
25 25 25 25 25 25 25 24 23 24 23 22 24 24 24 24
15 16 27 30 31 32 34 37 39 35 2 0 0 0 0 1
9 26 25 9 7 5 0 0 0 0 3 3 0 0 5 4
21 38 81 98 102 101 93 18 14 5 2 20 61 93 102 108
112 114 114 113 114 113 113 113 112 109 108 102 104 110 113 113
110 89 97 100 86 99 96 81 37 33 14 9 5 0 0 0
0 0 0 5 17 17 18 20 20 21 22 22 23 22 24 24
24 25 25 25 25 26 24 18 9 7 20 24 25 25 25 25
25 25 25 25 25 24 25 24 24 22 22 22 23 24 24 24
13 16 18 19 22 26 25 26 34 33 1 0 0 0 0 0
1 26 26 8 7 4 0 0 1 0 0 0 0 0 0 0
20 55 92 99 104 103 100 71 24 22 42 59 83 97 104 109
113 114 114 113 114 113 113 113 109 106 104 104 103 110 113 113
100 94 102 98 104 100 102 63 27 30 14 13 4 0 0 0
0 0 0 11 22 22 23 24 24 25 26 26 26 25 26 25
26 26 26 26 26 26 25 14 1 0 16 25 26 26 26 25
25 24 25 24 24 25 24 24 24 23 21 22 20 22 23 24
13 16 14 15 16 25 23 24 35 33 1 0 0 0 0 0
0 23 21 4 2 0 0 0 5 4 1 0 0 0 0 0
26 79 93 99 99 101 98 88 71 68 75 81 88 100 105 109
110 113 114 114 113 113 112 112 108 106 103 103 100 109 113 112
81 80 108 112 110 108 85 50 21 24 13 9 1 0 0 0
0 0 1 18 25 25 26 26 26 26 27 26 27 27 27 27
27 27 27 24 20 14 23 12 6 1 14 25 26 27 26 26
26 25 24 25 24 24 23 23 22 22 22 20 20 20 21 22
10 14 15 20 24 27 27 30 35 31 1 0 0 0 0 0
0 26 18 0 0 0 0 0 1 8 6 1 0 0 0 1
57 94 92 94 95 98 103 89 78 79 85 89 95 102 105 108
112 114 114 114 114 113 112 109 107 102 107 104 101 104 112 111
103 107 111 112 110 99 70 53 35 24 11 4 0 0 0 0
0 0 5 24 26 26 27 27 28 28 28 28 29 27 27 27
28 28 15 0 0 1 18 11 0 0 14 25 26 26 26 24
24 24 24 22 22 22 23 22 22 21 22 22 20 17 20 19
14 13 0 1 4 8 12 18 22 28 1 0 0 0 0 0
0 27 19 0 0 0 0 0 1 8 12 7 3 0 0 6
75 93 97 105 101 103 105 97 72 81 91 96 98 105 107 110
113 113 114 114 114 113 111 109 108 107 107 102 102 100 110 108
103 103 108 108 98 76 68 66 45 22 10 1 0 0 0 0
0 0 10 28 28 28 29 28 28 28 28 28 29 29 28 28
29 29 22 15 20 24 26 16 0 0 11 24 25 25 25 24
24 24 23 22 22 22 21 21 21 21 20 20 21 18 16 16
18 16 0 0 0 0 0 0 0 14 1 0 0 0 0 0
0 28 15 0 0 0 0 1 11 11 12 10 6 0 0 3
57 75 78 86 104 112 109 98 69 82 94 99 103 105 109 111
113 113 114 114 113 112 110 109 106 103 104 101 96 98 105 108
106 102 105 99 80 73 71 72 48 26 13 6 3 0 0 0
0 1 18 28 28 28 29 29 29 28 29 29 28 29 28 29
28 29 28 28 27 26 25 17 0 0 14 24 25 25 25 23
23 23 22 22 21 21 21 21 21 21 20 20 20 20 17 15
17 16 0 0 0 0 0 0 0 13 1 0 0 4 0 0
0 27 13 0 0 0 0 1 14 15 13 4 2 0 0 1
22 54 64 46 62 87 91 81 71 81 96 101 104 108 111 112
114 114 114 114 114 113 110 108 103 102 105 99 98 97 102 106
102 100 99 84 78 78 81 83 63 38 18 12 9 1 0 0
1 6 26 29 29 29 28 28 29 28 28 29 30 29 28 29
29 29 28 28 27 27 26 22 3 0 16 24 25 24 25 23
23 22 22 22 22 21 21 21 20 20 19 20 20 19 17 14
18 16 0 0 0 1 0 0 0 11 1 0 1 13 7 1
0 28 12 0 0 0 0 0 1 9 8 0 0 0 0 0
12 35 42 51 68 70 71 78 75 79 95 103 106 108 111 113
114 114 114 113 113 111 108 105 102 97 98 97 93 96 94 104
98 74 79 84 93 89 85 85 74 39 17 15 12 3 0 0
2 8 29 28 28 29 29 28 29 29 29 29 29 29 29 28
29 28 28 27 28 26 24 21 10 5 20 24 25 24 24 23
23 22 21 21 21 20 20 20 19 19 19 19 20 19 17 14
14 14 0 0 0 10 2 0 0 11 2 0 7 13 9 3
0 27 10 1 1 0 0 0 0 7 9 0 0 0 0 0
10 36 34 26 61 80 77 81 78 82 93 102 107 109 111 112
114 113 113 113 113 111 110 104 102 98 98 96 95 90 94 102
101 89 103 107 102 89 86 83 73 32 9 12 9 4 4 7
3 15 29 28 29 29 28 28 29 29 28 29 29 28 29 29
29 29 29 29 27 26 23 20 18 17 22 24 24 23 24 22
22 21 20 20 21 19 19 18 18 17 18 18 17 17 16 13
13 14 0 0 6 17 4 3 0 12 18 11 17 16 15 11
2 28 10 0 0 0 0 0 0 5 11 0 0 0 0 0
5 35 32 22 56 73 73 79 78 88 94 100 105 110 111 111
113 111 113 113 112 111 109 103 103 101 95 95 92 87 96 98
100 96 106 110 102 90 88 83 74 29 9 9 7 7 5 6
7 26 28 29 28 28 29 28 29 29 29 28 30 29 29 28
29 28 28 28 27 26 24 21 20 21 24 25 24 23 23 22
22 20 20 20 18 18 18 17 17 17 17 17 16 16 14 10
12 13 0 0 1 5 1 0 0 12 34 32 37 36 35 37
37 41 12 0 0 0 0 0 0 7 12 0 0 1 0 0
3 34 30 25 64 80 74 73 71 86 97 97 104 109 111 110
113 113 113 112 111 111 109 107 101 100 94 89 88 86 92 99
102 100 106 109 102 88 87 82 76 38 5 5 8 8 2 5
21 29 29 28 28 28 29 28 28 28 29 28 29 29 28 28
29 29 28 28 27 26 25 23 22 23 25 23 24 23 23 21
21 20 20 19 18 18 17 15 17 16 16 15 15 15 15 11
12 15 3 2 0 0 0 0 0 12 33 33 37 36 35 39
43 43 25 13 15 10 5 3 3 8 15 3 1 0 0 0
2 23 29 25 62 76 84 78 65 75 99 99 101 107 110 109
110 110 109 109 112 112 107 103 101 95 92 87 85 83 90 94
101 102 107 108 100 87 84 81 78 57 11 3 3 2 1 14
27 28 27 28 28 28 28 28 28 28 29 28 28 29 28 29
28 28 27 26 26 26 25 24 23 25 25 24 23 22 21 20
19 19 18 17 17 16 17 17 16 15 16 15 13 13 13 10
14 15 14 3 0 0 0 0 0 10 33 32 35 35 34 41
45 45 33 28 29 28 26 25 26 24 22 19 17 15 15 14
18 26 32 22 55 51 52 64 50 61 93 101 99 103 107 108
109 109 108 111 112 109 105 101 100 95 89 89 86 83 88 94
101 103 107 107 98 87 82 81 75 65 36 2 0 0 6 23
29 28 29 28 28 29 28 28 29 28 28 29 28 29 28 29
29 29 27 27 27 26 24 24 23 23 22 22 21 20 20 19
19 18 18 17 16 16 15 15 15 15 14 14 13 13 13 10
14 15 9 0 0 0 0 0 0 12 31 28 30 30 30 31
28 28 28 29 30 30 29 28 30 29 29 27 24 23 22 21
21 27 36 27 30 42 61 65 54 46 79 100 100 102 104 105
106 108 107 110 107 102 105 103 99 91 86 85 81 83 89 92
96 103 108 106 95 85 80 80 75 63 49 13 0 0 10 27
29 29 29 29 29 28 28 28 29 29 29 29 28 28 28 28
28 27 26 26 26 26 25 24 25 24 23 22 22 21 20 19
19 18 17 16 16 15 15 15 15 15 14 13 14 13 13 9
18 18 6 0 0 0 0 0 0 11 34 27 28 29 29 30
28 27 30 31 32 33 32 32 31 30 30 29 32 35 32 30
29 31 39 37 42 66 81 88 90 72 65 94 99 98 103 106
105 106 109 107 104 104 104 99 93 91 88 83 82 84 93 92
101 105 108 104 94 84 80 80 75 63 52 31 1 0 14 29
29 29 29 29 29 29 28 28 28 27 28 28 28 27 27 28
28 28 27 28 27 26 25 26 26 24 24 22 21 21 19 18
17 17 17 16 15 15 15 15 14 14 14 13 13 12 13 9
15 14 21 21 20 15 14 11 9 15 36 29 30 29 29 30
30 32 34 32 33 36 38 38 33 28 30 29 36 38 36 34
34 35 29 26 45 72 89 96 95 82 74 85 94 94 99 101
103 105 105 104 102 103 97 92 86 91 84 79 79 87 90 93
97 105 106 103 93 83 81 76 75 63 53 37 6 0 11 26
28 29 28 29 29 28 28 28 28 28 28 29 29 28 29 29
28 28 28 27 27 27 26 25 25 24 23 21 20 20 19 18
17 16 16 15 15 15 15 15 14 14 13 13 13 13 13 10
16 14 30 36 38 35 36 40 41 40 39 32 32 32 32 33
35 36 39 34 34 36 41 38 33 30 25 27 37 39 37 35
36 35 33 30 35 56 80 88 90 85 82 79 92 94 94 98
100 103 103 102 101 101 96 92 88 89 83 78 84 89 90 91
100 104 106 103 94 83 79 77 76 64 53 40 6 3 24 28
29 29 29 30 29 29 28 28 29 28 28 28 29 28 29 28
28 28 27 27 26 26 27 25 24 24 22 21 20 19 18 17
16 16 16 16 15 15 14 14 15 14 13 13 13 13 12 8
16 14 31 42 41 42 42 42 42 43 41 30 28 27 27 28
32 38 42 34 35 34 32 33 35 32 29 23 31 31 29 30
35 35 34 33 30 44 70 82 87 87 85 82 89 95 96 98
101 100 101 97 95 97 95 89 83 82 76 81 86 94 98 97
104 104 104 101 94 81 76 77 76 68 55 34 4 12 30 30
30 30 29 29 30 29 28 29 28 28 28 28 29 28 28 28
28 27 27 27 26 26 26 25 24 23 22 21 20 19 18 17
18 16 16 15 15 14 15 15 14 13 14 13 13 13 13 10
15 13 20 27 29 31 33 35 37 39 40 8 6 4 2 4
6 12 34 36 33 17 10 14 16 16 19 28 28 8 2 1
4 11 14 28 33 50 73 84 86 85 84 78 89 94 93 97
97 95 97 97 95 90 91 89 87 84 80 86 93 91 95 99
102 103 104 98 94 83 75 76 79 73 58 36 12 27 30 30
30 29 30 30 30 29 29 28 28 28 28 28 28 28 28 28
27 27 26 25 22 23 23 25 25 23 22 21 19 19 18 17
17 16 16 15 14 15 15 15 15 14 14 13 13 13 13 11
14 11 15 19 20 20 20 21 22 22 26 5 0 0 0 0
0 0 28 35 25 1 0 0 1 6 13 31 29 5 0 0
0 4 11 25 32 60 79 86 83 83 86 81 90 91 95 96
95 95 93 90 93 86 84 84 80 84 88 90 92 93 99 99
105 105 104 99 95 83 73 74 80 74 63 43 23 30 30 29
30 30 29 30 29 29 28 27 27 27 27 27 29 29 29 22
11 10 7 6 5 6 18 25 24 23 21 20 20 19 18 18
17 16 16 15 15 14 15 15 15 14 14 13 13 12 12 10
13 11 19 25 26 26 27 26 25 25 28 7 3 0 0 0
0 8 30 35 12 0 0 0 0 0 14 31 29 7 0 0
0 1 10 24 33 61 79 84 87 91 91 90 89 87 89 88
93 88 85 83 82 80 80 77 81 87 89 92 96 97 98 101
106 105 104 101 94 82 73 74 82 76 67 51 29 29 30 29
29 25 22 19 15 13 10 8 6 7 11 25 29 28 28 21
4 4 4 4 3 4 18 26 24 24 22 20 19 19 18 17
16 16 16 16 16 15 14 14 15 14 14 14 13 13 14 11
12 10 19 25 27 28 29 29 30 31 31 8 1 0 0 0
0 8 28 32 5 0 0 0 0 0 9 32 29 8 0 0
0 0 8 24 36 59 75 82 89 91 93 90 92 87 77 60
79 87 76 75 78 76 72 77 84 92 92 95 97 96 100 104
104 105 103 98 93 82 74 76 84 82 71 59 37 30 30 30
25 6 3 6 7 8 3 2 3 1 3 22 28 28 28 21
5 4 3 4 4 3 17 26 24 23 22 21 20 19 18 18
16 16 15 15 15 15 14 14 15 14 14 13 14 13 13 11
13 12 20 27 28 28 29 30 31 32 31 7 1 0 0 0
3 0 22 30 3 0 0 0 0 0 9 31 27 7 0 0
0 0 6 24 36 59 74 80 84 89 88 90 90 83 79 66
71 71 71 69 71 70 76 88 92 96 95 94 93 95 103 105
104 105 104 101 93 83 73 76 84 85 77 65 47 55 42 29
24 4 3 6 6 6 3 2 2 1 2 19 27 28 28 19
4 4 4 3 3 4 16 25 25 24 23 21 20 19 18 18
16 16 15 15 15 14 13 13 14 14 14 14 13 14 14 12
18 17 19 20 20 22 16 10 15 26 35 11 0 0 0 0
4 2 19 30 1 0 0 0 0 0 9 32 26 7 0 0
0 0 0 23 30 53 68 73 82 82 81 79 80 76 73 68
70 66 66 73 76 77 86 90 96 98 101 100 101 100 103 107
102 105 107 103 94 83 73 77 86 87 82 71 55 39 69 66
25 6 3 6 7 7 4 2 2 1 1 18 28 28 29 20
5 4 4 5 3 3 12 27 25 23 22 21 19 19 17 16
16 15 15 15 15 14 15 15 14 14 14 14 15 14 13 12
16 17 16 17 17 17 12 0 0 13 38 18 4 0 0 0
3 0 16 30 1 0 0 0 0 0 8 33 26 9 0 0
0 0 0 22 20 44 60 66 74 76 71 67 68 68 66 67
63 67 78 81 79 83 88 96 101 103 104 100 103 104 104 107
106 109 106 104 95 83 72 76 87 87 84 76 62 32 45 103
53 5 3 5 7 7 4 2 2 2 2 18 28 28 28 22
5 5 5 5 5 5 10 23 22 22 20 19 19 18 18 17
16 16 16 16 15 14 14 15 15 14 14 13 14 13 13 12
16 16 16 17 16 16 13 0 0 10 37 16 1 0 0 0
4 1 15 31 1 0 0 0 0 0 3 33 26 12 0 0
0 0 0 19 16 21 49 53 63 65 63 63 64 64 70 71
71 73 77 77 82 86 94 99 104 106 107 107 102 103 109 107
108 110 110 105 96 83 73 78 87 89 86 79 71 51 24 92
100 16 2 5 8 7 4 2 3 2 2 17 29 28 27 24
13 12 11 11 11 10 16 22 23 22 22 21 19 18 18 17
17 16 16 16 15 14 14 14 14 13 13 14 13 13 12 12
10 10 11 12 14 16 15 0 0 8 34 9 0 0 0 0
0 0 15 31 1 0 0 0 0 0 2 32 26 9 0 0
0 0 0 17 21 1 20 39 51 55 56 61 59 60 65 70
65 69 75 78 81 90 91 101 106 107 110 108 109 108 107 108
108 111 111 106 96 82 74 79 90 92 90 83 76 66 27 83
110 59 2 5 5 5 4 2 3 2 2 17 28 29 28 25
7 6 6 3 1 0 2 2 1 4 22 21 20 19 18 18
16 15 15 15 15 14 15 15 14 14 14 14 14 13 12 12
0 0 0 2 11 15 14 0 0 5 28 8 0 0 0 0
1 0 12 34 2 0 0 0 0 0 1 32 27 12 0 0
0 0 0 15 25 0 0 0 4 14 36 40 40 48 50 61
61 67 72 80 87 88 91 100 103 106 110 109 112 113 110 110
110 110 110 107 97 81 73 82 91 95 93 88 80 74 44 85
108 104 32 3 3 2 3 2 3 1 1 15 27 29 29 26
7 5 5 2 0 2 5 20 7 2 21 21 19 19 17 18
17 15 16 15 16 15 15 14 15 14 13 13 12 13 13 12
0 0 0 4 15 16 15 1 0 3 27 9 1 0 0 0
9 5 13 36 13 7 7 9 8 8 9 33 28 25 25 25
25 27 29 35 29 4 3 2 2 5 28 29 24 30 24 20
22 36 58 74 81 90 95 98 102 104 106 109 111 109 110 110
111 111 110 106 96 81 75 83 93 97 95 92 87 80 58 80
108 112 86 9 0 0 4 3 4 2 2 16 28 29 28 25
7 5 5 2 0 0 1 4 1 1 21 21 20 18 18 17
16 16 16 15 15 14 15 15 14 14 13 13 13 13 13 11
0 0 0 3 16 14 14 2 0 0 25 26 27 23 23 28
37 36 34 32 40 39 36 36 38 38 39 40 30 26 33 35
36 40 44 46 39 28 27 26 26 27 29 27 27 57 39 19
11 12 14 40 66 83 91 95 100 102 105 106 109 108 109 110
108 111 113 109 98 83 75 83 94 96 96 93 90 86 70 76
108 113 102 45 3 6 8 3 4 3 1 15 28 28 29 26
8 5 5 2 0 0 0 0 0 0 20 21 19 17 18 18
16 15 15 15 15 15 14 14 14 14 13 12 12 12 12 11
0 0 0 2 17 15 14 3 0 0 24 29 32 26 29 34
39 35 31 28 38 41 38 38 38 41 41 41 33 23 30 33
36 41 45 45 41 26 26 26 26 27 27 27 49 88 51 19
27 21 17 46 54 64 81 93 99 99 100 105 107 106 107 110
109 111 111 108 98 82 77 85 93 98 98 96 94 91 75 65
112 113 107 84 26 5 5 4 5 3 2 15 28 29 29 25
8 4 4 1 0 0 0 0 0 0 18 8 2 4 16 17
16 16 15 14 14 13 14 13 13 13 12 13 12 11 12 12
0 0 0 1 17 15 14 4 0 0 21 29 27 24 28 33
39 37 31 26 28 32 31 31 31 31 31 31 30 21 21 27
28 30 28 27 28 26 27 26 27 27 26 28 87 116 81 25
33 22 40 54 61 63 67 82 92 98 98 103 103 104 105 108
111 111 113 108 100 85 79 86 93 99 100 98 97 95 79 70
109 114 108 104 97 96 91 64 32 7 3 14 28 28 29 26
8 4 4 0 15 16 0 0 0 0 4 13 17 8 5 18
15 14 15 14 14 14 14 13 13 12 12 12 13 11 11 11
0 0 0 0 17 15 14 5 0 0 18 26 18 20 19 24
36 38 33 29 21 19 19 20 20 20 20 21 25 23 25 26
27 27 25 22 24 26 27 27 28 27 28 36 110 117 103 60
26 36 23 55 68 72 73 71 84 96 101 102 107 108 108 109
110 111 112 109 100 86 80 88 93 100 104 104 102 100 79 88
109 113 110 106 103 107 112 113 112 102 68 43 34 29 29 26
8 4 3 4 26 39 4 0 0 7 20 20 18 17 2 16
15 15 15 15 14 13 13 13 13 12 12 12 12 11 11 11
0 0 0 0 15 15 12 6 0 2 19 23 6 9 12 16
22 26 24 29 24 20 21 22 27 27 26 26 29 29 30 34
35 33 28 25 25 26 27 27 27 27 27 53 117 116 109 100
32 48 20 65 75 78 79 79 74 84 98 103 106 111 110 110
111 111 113 110 99 86 83 91 94 100 106 108 106 103 89 103
111 114 111 108 106 106 113 112 113 112 112 112 111 93 52 27
10 4 4 2 5 12 5 0 0 12 21 20 18 18 4 14
15 15 14 14 14 14 13 13 13 12 12 12 12 11 12 11
0 0 0 0 14 15 13 10 11 18 25 23 0 0 0 0
0 4 7 27 26 31 34 29 39 42 32 26 28 28 29 33
36 38 30 26 26 26 27 27 28 28 44 90 117 115 112 109
47 64 32 70 81 90 92 88 81 77 85 99 106 110 111 109
110 112 113 109 98 87 88 95 98 101 106 111 111 104 107 101
112 113 112 107 109 106 112 112 113 112 112 112 112 112 111 88
53 12 6 0 2 2 0 0 0 12 22 20 19 17 4 14
15 14 14 14 14 13 13 13 12 12 12 12 12 12 11 11
0 0 0 0 13 15 12 15 28 30 32 25 0 0 0 0
0 0 7 33 26 32 37 29 40 44 17 1 1 2 2 3
18 38 33 28 27 27 28 29 45 75 98 105 117 116 115 111
69 111 44 73 85 95 103 105 100 90 84 90 97 106 109 110
110 113 114 110 100 88 90 98 102 104 107 111 111 108 110 103
112 114 113 109 113 108 113 112 113 112 112 111 112 112 112 112
112 106 56 4 0 0 0 0 0 8 22 21 19 18 3 16
14 14 14 13 13 13 14 14 13 13 13 13 12 12 12 11
0 0 0 0 11 15 12 16 29 31 34 30 1 0 0 0
0 0 2 34 24 30 34 6 8 18 17 0 0 0 0 0
12 37 33 27 30 44 68 88 98 101 101 113 117 117 116 110
86 116 80 69 89 98 105 110 109 104 96 91 95 101 107 108
110 114 114 110 100 91 94 101 106 109 111 112 111 115 110 107
114 114 113 111 113 109 113 111 113 113 113 113 112 112 112 113
113 113 111 76 13 0 0 0 0 9 23 22 21 17 5 17
17 17 16 16 15 14 14 14 13 13 13 12 12 12 12 12
0 0 0 0 10 15 12 13 24 25 25 21 1 0 0 0
0 0 2 36 25 31 33 2 0 13 17 0 0 0 0 0
9 39 54 76 105 115 108 98 99 100 100 116 117 116 117 113
100 116 115 85 88 99 107 112 113 112 107 99 96 96 101 104
110 114 114 111 101 93 97 106 110 112 113 113 114 114 111 111
113 114 113 112 112 110 111 113 113 113 113 113 113 112 113 113
113 112 111 112 105 58 11 0 0 8 22 20 18 5 11 14
10 8 15 15 14 15 14 14 14 13 13 12 12 12 12 12
0 0 0 0 9 15 12 11 4 4 7 4 0 0 0 0
0 0 3 36 25 31 34 3 1 12 20 0 0 0 2 32
76 110 115 116 116 116 109 96 96 97 104 117 116 117 116 114
110 116 116 115 96 98 108 113 115 115 114 108 102 98 96 101
109 114 115 111 103 97 103 109 113 113 115 115 115 114 113 113
112 113 112 112 112 112 107 111 113 113 112 113 113 113 113 113
114 113 113 112 112 112 112 84 39 3 2 1 0 0 8 9
7 6 15 15 14 14 13 13 13 13 12 12 12 12 12 12
0 0 0 0 8 15 11 10 5 5 8 4 0 0 0 0
0 0 3 36 25 31 34 3 1 10 22 0 3 42 100 116
117 117 117 118 117 115 99 89 93 94 111 117 116 117 116 116
116 117 116 116 116 108 107 114 116 116 115 114 109 101 93 94
107 114 115 111 104 101 108 112 114 114 115 114 114 114 113 113
112 113 113 111 113 112 106 111 113 113 113 113 114 113 113 113
113 113 112 112 112 112 112 112 112 95 24 0 0 0 5 8
36 45 18 15 15 14 14 13 14 13 12 12 12 12 12 12
0 0 0 0 6 15 12 11 7 7 10 5 0 0 0 0
0 0 1 34 25 32 34 3 2 11 28 56 104 115 117 116
117 117 117 117 116 112 94 91 93 98 114 117 117 117 117 116
116 117 117 116 116 115 115 114 115 114 114 114 111 97 86 87
105 113 114 111 106 108 113 115 115 114 115 115 115 114 113 113
111 112 109 112 113 111 103 111 113 113 113 113 113 113 113 113
113 113 113 112 112 112 112 112 112 109 106 42 0 2 11 8
42 35 12 4 3 8 13 13 14 14 13 12 12 12 13 12
0 0 0 0 6 15 11 11 10 9 12 5 0 0 0 0
1 0 0 34 26 33 35 8 5 40 95 117 115 114 118 117
117 118 118 117 117 110 101 97 98 105 116 115 116 117 116 116
116 117 117 116 116 117 116 116 116 116 113 115 111 97 88 89
106 114 114 115 115 115 115 115 115 115 114 114 115 115 114 113
113 100 25 93 113 110 104 112 114 113 113 113 113 113 113 113
113 113 113 112 112 112 111 112 112 111 108 109 59 1 0 0
0 0 1 1 0 9 17 17 18 17 17 16 16 16 16 17
0 0 0 0 5 15 11 11 11 12 13 5 0 1 0 0
5 8 0 32 27 34 37 58 99 116 117 117 114 117 118 117
117 117 117 117 116 107 106 101 104 107 70 117 117 117 116 117
116 116 117 116 116 115 116 116 116 116 115 115 115 115 115 115
115 115 115 115 115 115 115 114 115 114 114 114 114 114 114 113
113 103 30 70 113 110 102 110 113 113 113 113 113 112 113 113
113 113 113 113 112 112 112 112 111 112 110 110 106 73 3 0
0 0 1 1 0 6 13 11 10 8 7 6 5 3 2 3
0 0 0 0 5 15 12 10 11 12 13 8 0 1 0 0
6 14 5 30 29 44 95 111 116 116 117 117 115 117 117 116
117 117 117 117 116 106 108 105 106 102 74 117 116 116 116 116
116 117 117 116 117 116 116 115 115 116 115 116 115 115 115 115
115 116 115 115 115 115 115 115 115 115 115 114 114 114 113 113
113 107 49 61 111 108 102 111 113 113 113 113 113 113 112 113
113 113 113 112 113 113 112 113 112 112 112 111 109 107 75 2
0 0 0 3 17 20 19 20 21 22 23 24 25 27 27 28
0 0 0 0 4 14 11 10 12 13 13 17 13 17 18 18
23 29 29 38 41 98 117 117 118 117 117 117 115 117 117 117
117 117 117 117 114 103 107 105 108 94 81 118 117 117 117 116
116 117 116 116 115 116 116 116 115 115 115 115 116 115 115 116
115 115 115 115 115 115 115 114 115 115 115 115 115 114 112 112
113 108 61 72 113 109 103 112 113 113 113 113 113 113 113 113
113 113 113 112 112 113 113 113 113 113 112 112 112 107 110 60
0 0 0 8 32 31 31 31 30 30 30 29 29 29 29 30
0 0 0 0 4 15 11 10 12 13 13 24 32 34 35 36
39 44 46 49 92 114 118 116 117 117 117 117 116 116 117 116
117 117 117 117 113 103 108 107 108 95 79 115 116 116 116 116
116 116 116 116 116 116 116 115 115 116 116 116 115 115 115 115
115 115 115 114 115 114 115 114 114 114 114 114 114 112 111 112
113 105 45 84 113 111 109 113 113 113 113 113 113 112 113 112
113 113 113 112 112 112 112 112 112 112 112 112 112 110 108 107
32 0 0 10 32 30 31 30 30 30 29 29 29 29 29 29
0 0 0 0 3 14 11 10 12 14 14 21 36 36 37 38
41 45 46 66 115 115 117 116 117 117 117 117 117 117 117 117
117 117 117 116 116 106 110 109 108 100 84 108 117 115 117 116
116 116 116 116 116 116 116 115 116 115 116 115 115 115 116 115
115 115 115 115 115 114 115 114 115 114 115 114 114 112 111 113
112 98 48 108 113 113 111 113 113 113 113 113 112 113 113 113
113 114 113 113 113 113 112 112 113 113 112 111 112 112 108 110
92 5 0 12 32 31 30 30 29 29 30 29 29 29 29 29
0 0 0 0 3 14 11 10 12 14 14 13 22 21 21 22
24 27 33 87 118 117 117 117 117 117 117 117 117 117 117 117
117 117 117 117 117 112 110 111 108 102 99 97 117 115 116 116
116 116 116 116 116 115 115 116 115 116 115 115 115 115 115 115
115 115 115 115 115 115 115 114 115 114 114 115 114 112 112 114
108 102 64 112 113 113 112 113 113 113 113 113 113 113 113 112
114 113 113 113 113 113 112 112 113 113 112 112 113 113 110 111
106 45 0 15 32 31 30 29 30 29 30 29 29 29 28 29
0 0 0 0 2 14 11 10 12 15 15 10 8 8 10 11
14 21 66 104 118 117 116 117 117 117 117 117 117 117 117 117
117 117 117 117 117 114 111 112 107 105 110 99 115 116 116 116
116 117 116 117 116 116 116 116 116 115 116 116 115 115 115 115
115 115 115 115 115 115 115 114 114 114 115 115 115 112 112 113
111 108 74 114 114 113 113 113 113 113 113 113 113 113 113 113
113 113 113 113 113 113 113 113 112 112 113 112 112 112 111 110
107 93 8 18 32 31 30 30 30 29 29 29 29 28 29 29
0 0 0 0 2 14 11 10 12 14 15 13 11 11 11 11
15 53 103 105 118 117 117 117 118 117 117 117 117 117 117 117
118 117 117 117 117 117 113 113 108 108 112 99 102 116 116 116
115 116 116 116 116 116 117 116 116 116 115 115 116 115 114 115
114 115 114 114 115 114 115 115 115 114 114 115 114 113 113 110
113 113 100 111 114 113 113 114 114 114 114 114 113 113 113 113
114 113 113 112 113 113 113 112 112 113 112 112 113 113 112 111
109 104 69 21 32 31 30 30 30 30 30 29 29 29 29 29
0 0 0 0 2 14 11 10 12 14 16 16 15 15 16 16
35 106 106 109 118 117 114 117 117 117 117 117 117 118 118 118
117 118 117 116 117 117 114 113 107 110 112 84 88 103 116 116
116 116 116 116 116 116 116 115 116 115 115 116 115 115 115 115
115 115 115 115 115 115 114 114 114 114 115 114 113 113 114 114
113 113 113 107 114 114 113 114 113 113 114 113 113 113 114 113
113 114 113 113 113 113 113 112 112 112 113 112 112 112 112 111
109 102 105 50 31 31 30 30 30 29 29 29 29 28 29 28
0 0 0 0 4 16 11 10 12 15 16 16 15 16 16 23
90 113 111 111 117 117 113 118 118 117 117 117 117 118 117 117
117 117 118 117 116 116 116 116 113 112 112 80 95 84 89 116
116 116 116 116 116 116 116 116 116 116 116 116 115 115 115 115
115 115 115 114 115 115 114 115 115 114 114 114 113 113 114 114
114 113 113 113 111 111 114 113 114 113 114 114 114 113 113 114
113 113 113 113 112 113 113 112 113 113 113 112 113 112 113 112
109 106 101 94 37 31 31 30 29 29 30 29 29 29 28 29
5 5 6 7 9 10 10 10 13 15 16 17 16 17 19 72
114 113 117 113 117 117 111 117 117 117 117 117 117 118 118 118
118 117 117 117 117 116 117 117 116 116 115 81 100 92 90 111
116 116 116 116 116 116 116 116 116 115 115 116 115 115 115 115
115 115 116 115 115 115 115 115 114 114 114 114 114 113 114 114
114 115 114 114 114 98 114 113 114 114 113 113 114 114 114 113
114 113 113 113 114 113 113 113 113 113 113 112 113 113 112 113
109 111 101 112 81 31 31 30 30 30 29 29 29 29 29 29
7 7 7 7 8 8 9 10 12 16 16 16 17 17 44 108
111 116 117 113 118 117 112 118 118 118 118 117 117 118 117 117
117 117 117 117 117 116 116 116 117 116 116 89 103 100 98 108
115 116 116 116 116 116 116 116 116 116 115 115 116 115 115 115
115 115 116 115 115 115 114 115 115 114 114 114 114 113 114 114
114 114 114 114 114 114 114 114 114 114 114 114 114 113 113 113
113 113 113 113 113 113 113 113 113 113 113 113 113 113 113 113
110 112 101 110 110 46 30 30 30 30 29 29 29 29 29 29
8 7 8 7 7 8 9 10 12 15 17 17 18 30 100 105
112 118 118 115 117 116 112 118 118 118 117 117 117 118 118 118
118 117 117 117 117 117 116 117 116 116 116 95 108 100 108 111
116 116 116 116 116 117 116 116 116 115 115 115 115 116 116 116
115 115 116 116 115 115 115 115 115 114 115 114 114 113 114 114
114 114 114 114 114 114 115 113 114 114 113 114 113 113 114 114
114 114 114 113 113 113 114 113 114 113 113 112 113 113 113 112
111 112 101 111 112 82 30 30 30 30 29 29 29 28 29 28
7 7 8 7 7 8 8 9 13 15 16 17 24 69 105 105
117 117 118 116 117 116 112 118 117 118 117 117 117 117 117 117
117 117 117 117 118 117 117 117 117 116 116 98 113 100 114 115
116 116 115 116 116 116 116 116 116 116 116 115 116 116 115 116
116 115 115 115 115 115 114 115 115 115 115 115 114 114 114 114
114 114 114 114 114 113 114 114 114 114 114 114 114 113 114 113
114 114 113 113 113 114 114 113 113 114 113 113 113 113 113 113
110 112 104 112 112 108 42 30 30 30 30 29 29 29 29 29
2 1 1 0 1 5 6 8 16 15 16 19 74 114 96 112
118 118 118 117 116 108 113 118 117 118 117 117 117 117 117 117
117 117 117 117 117 118 117 117 117 116 117 115 116 116 114 115
116 116 115 117 116 116 116 115 115 116 115 116 115 115 115 115
115 115 115 115 115 115 115 115 115 114 115 114 114 113 114 114
115 114 113 114 114 114 113 113 114 114 113 113 114 113 113 113
113 113 113 113 113 113 113 113 113 113 113 112 113 113 112 112
111 111 107 113 112 112 80 30 30 30 29 28 28 28 28 28
0 0 0 0 0 6 10 10 13 14 16 51 100 116 100 115
118 117 117 117 117 102 114 118 118 117 117 117 117 116 117 116
116 117 117 117 117 116 117 117 117 116 117 116 116 115 112 115
116 115 115 115 116 116 115 115 116 116 116 116 115 115 115 114
115 115 114 114 115 114 115 115 115 114 115 115 114 114 114 113
114 113 114 113 113 113 113 112 113 114 113 114 114 113 113 113
113 113 113 113 113 113 113 113 112 113 113 112 113 112 112 112
111 109 110 111 111 111 109 43 29 29 29 28 28 28 28 27
0 0 0 0 0 4 8 11 12 14 20 99 103 114 113 116
117 117 117 117 116 96 113 117 117 117 116 117 116 117 117 116
117 117 117 117 117 116 116 116 116 116 116 115 116 115 112 114
116 114 115 115 115 115 115 115 115 115 115 115 115 115 115 114
114 114 114 114 114 114 114 114 114 114 114 113 113 112 113 113
113 113 113 113 113 112 112 112 112 113 113 112 112 113 112 112
113 113 113 113 112 113 112 112 112 112 112 111 111 111 112 111
111 108 111 112 111 110 111 77 28 28 28 27 27 27 26 26
0 0 0 0 0 4 9 12 13 15 38 110 100 111 116 116
116 116 117 116 116 92 112 117 116 116 116 115 116 116 116 115
116 116 116 116 115 116 116 116 116 115 115 115 115 116 112 111
114 114 114 115 115 114 114 114 114 114 114 113 114 114 114 114
114 113 114 114 113 113 114 113 113 113 114 113 113 111 112 112
112 112 112 112 112 111 111 111 112 112 112 112 112 113 112 112
112 112 112 112 111 112 112 111 111 111 111 111 111 111 111 111
111 108 111 111 110 110 111 104 36 27 28 27 26 26 26 26
1 1 0 0 1 6 10 13 16 18 54 110 101 108 117 117
116 116 117 116 116 95 110 116 116 116 115 115 115 116 116 116
116 116 116 115 116 115 115 115 115 115 115 115 115 115 113 109
113 115 114 115 115 114 115 114 114 114 114 114 114 113 114 113
114 113 114 114 114 113 113 113 113 113 113 113 113 108 112 112
112 112 113 112 112 111 112 112 112 112 112 112 112 112 112 111
112 112 112 112 112 112 111 112 112 112 111 111 111 110 111 111
109 108 111 111 109 109 111 110 65 26 27 26 26 26 25 25
2 2 2 3 5 7 9 11 15 17 71 108 102 106 117 116
116 116 116 116 115 101 102 116 116 116 115 113 116 116 116 116
116 115 115 115 115 115 115 115 115 116 115 115 115 115 115 112
112 115 114 115 114 114 114 114 114 114 114 114 114 114 114 114
114 113 113 114 113 113 113 114 114 114 113 113 112 109 112 112
112 112 113 112 112 111 112 112 112 112 112 112 113 112 112 112
112 112 112 112 111 111 111 111 111 111 110 111 111 111 111 111
110 110 111 111 110 110 110 110 93 28 26 26 26 25 25 25
5 4 3 3 2 1 1 1 13 17 88 107 103 108 117 117
116 116 116 116 116 108 107 116 115 116 116 112 116 116 116 115
116 115 116 116 115 115 115 116 115 115 115 115 115 115 115 114
113 115 114 114 114 115 115 114 114 114 114 114 114 114 113 113
114 114 114 114 114 114 114 113 114 114 113 113 113 109 111 112
112 113 113 112 112 112 113 112 112 112 112 113 112 112 112 112
112 112 112 112 112 111 112 112 112 111 110 111 111 111 111 110
109 111 111 110 110 110 110 110 108 40 25 25 25 25 25 24
0 0 0 0 0 0 0 0 12 28 100 105 107 113 114 116
116 116 116 116 116 111 114 116 116 116 115 111 116 116 116 115
115 115 116 115 115 115 115 115 115 115 115 116 116 115 114 115
113 114 114 114 115 114 114 114 114 114 114 114 114 114 114 114
114 114 114 114 113 114 114 114 113 113 113 113 113 110 109 112
112 112 113 112 112 112 112 112 112 112 112 112 112 112 112 112
112 112 112 112 111 112 111 112 112 111 108 111 111 111 111 111
110 111 111 109 110 110 110 110 110 64 25 25 25 25 25 25
