P2
128 120
126
26 26 25 25 25 24 23 23 22 22 22 21 21 21 20 20
19 19 19 18 18 17 16 17 16 16 16 15 15 14 14 13
13 13 12 12 11 11 10 10 10 9 8 6 5 5 6 8
9 10 11 7 3 11 15 11 10 10 9 9 8 7 6 4
3 3 2 6 7 6 7 3 7 8 9 9 10 10 11 11
12 12 12 12 12 13 13 13 13 14 14 15 15 16 15 15
16 16 16 17 18 18 19 19 19 19 20 20 20 21 21 21
22 22 22 23 22 22 23 22 23 23 23 23 23 23 23 24
26 26 25 25 24 24 24 23 23 22 21 21 21 20 19 20
19 19 19 18 18 18 17 17 16 16 15 15 14 14 13 13
13 12 12 12 12 12 12 11 11 10 9 7 6 5 6 9
10 11 12 7 2 12 15 13 12 11 10 10 9 8 6 5
4 3 2 5 7 7 4 8 9 10 10 11 11 11 12 12
12 12 13 13 13 13 13 14 15 15 15 15 15 15 15 15
16 17 18 18 18 19 20 20 20 20 20 20 21 21 22 22
22 21 21 23 22 22 22 23 23 23 22 23 23 23 23 23
26 25 25 24 24 24 24 23 22 22 22 21 21 21 21 21
20 19 19 18 18 17 17 16 16 16 16 15 15 15 14 14
13 13 13 13 13 12 12 11 10 10 9 8 7 7 8 12
13 14 14 8 2 11 15 12 12 12 10 10 10 9 7 7
8 6 3 4 7 7 7 8 10 10 12 11 12 13 13 13
13 14 14 14 14 14 15 15 15 15 14 15 16 16 17 17
17 19 19 19 19 19 20 20 20 20 20 21 21 21 22 21
22 22 23 24 22 23 23 23 23 23 23 23 23 23 23 23
26 25 25 25 24 24 24 23 22 22 22 21 21 21 20 20
20 19 19 19 18 18 17 17 17 16 16 16 15 14 14 14
14 14 13 13 12 12 12 12 11 11 9 9 8 8 8 12
12 14 14 8 3 11 17 14 13 12 12 11 10 9 7 8
8 7 4 2 8 6 8 10 11 11 13 12 13 14 14 13
13 14 14 14 14 15 15 15 15 15 16 16 17 17 17 18
18 19 19 19 19 20 20 21 21 21 21 21 22 21 21 22
22 22 22 23 22 23 23 23 24 23 23 23 23 24 24 22
26 26 25 24 24 24 24 23 23 22 22 21 22 22 21 20
20 20 20 19 18 18 17 17 16 16 16 15 15 15 15 15
14 14 14 13 13 13 12 11 11 11 10 10 9 9 10 13
14 15 15 9 4 10 17 13 13 12 12 12 11 10 8 9
9 9 6 2 10 7 10 11 12 12 13 13 14 14 14 15
15 15 15 15 15 15 15 16 16 16 17 17 18 18 18 18
19 19 21 20 20 20 20 20 21 21 20 21 21 21 22 21
22 22 22 24 22 23 23 23 23 23 23 22 22 22 23 24
26 25 25 24 24 24 24 23 23 23 23 22 22 21 20 21
20 20 19 19 19 18 17 17 17 17 16 16 16 16 16 15
15 14 14 13 13 13 13 13 12 12 12 11 10 11 11 15
15 16 15 10 4 10 17 15 14 13 13 13 12 11 9 10
9 9 7 3 10 9 11 12 13 14 15 14 15 15 15 14
14 15 15 14 15 16 16 16 17 17 18 18 18 19 18 19
19 19 20 20 20 20 20 21 21 21 22 21 22 22 22 23
23 22 22 24 23 23 22 22 22 22 22 23 24 23 23 23
25 25 25 25 24 24 24 23 23 23 22 22 22 21 22 21
20 20 19 19 18 19 18 17 17 16 16 16 16 16 15 15
15 14 14 14 13 13 13 13 12 11 11 11 11 12 12 15
16 16 17 10 5 8 18 15 14 13 13 13 12 11 11 11
11 11 9 5 10 10 12 14 14 13 14 14 14 14 14 15
16 16 16 16 16 16 17 17 17 18 17 18 18 18 20 19
19 19 20 20 20 20 21 21 21 22 21 21 21 23 22 22
23 22 22 21 21 22 24 24 24 23 23 23 23 23 24 24
25 25 25 25 24 25 24 24 24 23 22 22 22 21 21 20
20 19 19 19 19 18 18 18 18 17 17 17 17 16 15 15
15 14 14 14 13 14 13 12 12 12 12 11 12 13 13 17
17 17 16 11 7 7 17 16 14 15 14 13 13 12 12 11
11 11 9 5 11 10 13 14 14 14 15 15 16 16 16 15
16 16 17 17 17 17 17 17 18 18 18 18 19 19 19 20
20 21 21 20 20 20 21 22 22 21 21 22 23 22 23 22
21 21 22 23 23 23 23 23 22 23 23 24 24 23 24 24
26 25 25 25 25 24 24 23 22 22 23 22 21 22 21 21
20 20 20 19 19 19 19 18 17 17 17 17 17 16 16 15
15 15 15 14 14 14 13 13 13 12 12 12 12 13 14 16
17 17 17 12 8 7 18 16 15 14 14 13 13 13 14 12
12 12 11 7 12 11 14 15 15 15 15 16 16 16 16 16
17 17 17 17 17 17 18 18 18 19 19 18 19 19 19 19
20 20 21 21 22 21 21 22 22 22 20 20 21 21 21 23
24 24 23 23 23 24 24 23 23 24 24 24 24 23 23 24
26 25 25 25 25 24 24 23 24 23 23 22 22 21 22 21
21 19 20 19 19 19 19 18 18 18 17 17 17 16 16 15
16 15 15 15 15 14 14 13 13 13 13 13 13 14 15 18
18 18 18 12 8 7 17 16 15 15 15 15 14 14 13 12
13 12 11 9 12 12 15 15 16 16 16 17 17 17 17 17
17 17 18 17 18 18 18 18 18 19 19 19 19 19 19 20
21 20 22 21 22 22 22 21 20 22 22 23 23 23 23 23
24 23 23 23 24 23 24 23 23 24 24 24 24 24 24 24
26 26 26 25 25 25 24 24 23 23 23 22 22 22 21 21
21 21 21 20 20 19 19 18 18 18 17 17 17 17 17 16
16 15 16 16 15 15 14 14 14 14 14 13 13 14 15 18
18 18 19 13 10 7 18 17 15 14 15 15 15 14 15 14
14 13 12 11 13 13 16 17 17 17 16 17 17 17 18 18
18 18 19 19 19 19 19 20 19 19 19 19 20 20 20 20
21 21 21 21 20 20 20 22 22 23 23 24 23 23 23 23
23 23 23 23 24 24 24 24 24 24 24 24 24 24 24 23
26 26 25 25 25 25 24 23 23 24 23 23 23 22 22 22
22 21 21 20 20 20 19 19 19 19 19 18 18 17 17 17
16 16 16 16 15 15 15 15 14 14 14 14 15 15 15 19
19 19 19 14 11 5 14 17 16 16 17 16 16 15 16 14
15 14 14 10 14 14 17 17 17 17 18 18 19 19 19 18
19 19 19 19 19 19 19 20 20 20 20 20 21 21 21 21
21 19 20 21 23 22 23 23 23 24 24 24 23 24 24 24
24 24 24 25 24 24 24 24 25 24 24 24 24 25 25 24
27 26 26 25 25 25 24 24 23 23 23 23 23 22 23 22
22 21 22 21 21 20 20 19 19 19 19 18 18 17 17 17
18 17 17 16 17 16 16 15 15 15 15 14 14 15 16 19
20 20 20 13 9 2 15 19 17 18 17 16 17 16 17 15
15 14 14 12 16 16 18 18 18 18 19 19 19 19 19 19
19 20 20 20 20 20 20 20 21 21 21 21 20 20 20 20
22 22 22 23 23 23 23 23 24 24 25 24 24 24 24 23
24 23 25 24 24 25 25 25 24 25 25 25 25 25 24 24
27 26 25 25 25 25 25 24 24 24 24 23 23 23 23 22
22 22 22 21 21 20 20 19 20 19 19 18 19 18 18 17
18 17 17 16 17 16 16 15 15 15 15 14 15 16 17 20
20 20 20 14 10 8 16 20 18 17 18 17 17 17 18 15
16 16 15 12 17 16 17 18 18 18 19 19 19 20 19 20
20 20 20 20 20 19 20 20 20 19 20 20 21 21 22 22
22 23 23 23 23 23 23 23 23 23 23 25 25 24 24 24
25 24 25 24 24 25 24 25 24 25 25 24 24 24 24 24
26 26 26 26 26 25 25 25 24 24 24 24 23 23 23 23
22 22 22 21 21 21 20 20 20 19 19 19 19 18 18 18
18 18 18 18 17 17 16 16 16 15 15 14 15 16 17 20
20 21 20 15 12 13 16 20 19 19 19 18 17 17 18 16
16 16 16 12 18 18 19 19 19 19 20 19 20 20 20 19
20 20 21 21 20 20 20 21 21 21 22 22 22 22 22 22
23 22 23 24 23 24 24 24 23 24 24 25 25 24 24 24
24 25 25 24 25 24 25 25 26 25 25 25 25 25 25 25
26 26 25 25 25 24 24 24 24 25 24 24 24 23 23 23
23 22 21 21 21 20 20 20 19 19 20 19 19 19 19 18
18 17 17 17 17 16 16 15 15 15 16 16 16 16 18 21
21 22 21 15 13 15 14 20 19 19 19 18 18 18 19 17
16 16 16 12 18 18 20 20 20 20 20 20 20 20 20 20
20 20 20 20 20 20 21 21 21 21 23 22 23 22 22 23
23 23 24 24 24 24 23 24 24 23 24 26 25 25 25 24
25 25 26 25 25 24 25 24 25 25 26 25 26 25 25 25
26 26 26 26 25 25 25 24 24 24 24 23 23 23 23 22
22 22 22 21 21 21 20 20 20 19 20 19 19 18 18 18
18 18 18 17 17 17 17 16 16 16 16 16 15 17 17 21
21 21 21 16 13 16 14 21 20 19 19 19 18 17 18 17
17 17 16 14 19 18 21 22 21 20 20 20 20 19 20 19
19 20 20 20 21 21 21 22 22 22 23 22 23 22 22 22
22 24 23 23 23 24 24 23 24 24 25 26 25 25 24 24
24 24 24 25 24 24 25 25 25 25 25 24 24 24 24 25
26 26 26 26 25 24 25 25 25 24 24 24 24 23 23 23
23 22 22 22 21 20 21 20 20 20 20 19 20 19 19 19
18 19 18 17 17 17 16 16 16 16 16 16 17 17 18 21
22 22 22 16 13 17 12 20 19 19 20 19 18 18 20 18
20 20 20 23 24 24 26 23 21 20 16 17 13 15 20 20
21 21 21 21 21 21 22 22 22 22 22 23 23 22 23 23
23 23 23 23 23 24 24 24 24 24 24 25 24 25 25 24
25 25 25 25 25 24 25 24 25 25 24 25 25 24 24 24
26 26 26 26 25 25 25 25 24 24 24 23 23 23 22 22
22 22 22 21 21 21 21 20 21 20 20 20 19 18 19 18
18 17 17 18 17 17 17 17 17 16 17 16 16 17 18 21
21 22 21 16 13 19 12 20 19 20 22 20 19 19 20 16
15 13 16 15 17 17 20 26 28 27 17 8 6 7 9 14
16 18 18 19 21 22 22 22 22 22 23 23 22 23 22 23
23 23 23 23 23 24 24 24 24 25 25 25 25 25 24 25
25 24 24 23 23 24 24 24 24 25 25 25 24 24 24 24
26 25 25 25 25 24 25 25 24 24 24 23 23 23 23 22
22 22 21 21 22 21 21 20 20 20 20 20 20 19 19 18
18 18 18 18 17 17 17 16 16 16 16 17 17 18 19 22
22 22 22 16 13 19 12 20 20 19 14 8 5 9 8 5
3 9 12 7 3 4 10 11 12 16 17 14 12 6 7 5
10 13 13 16 18 24 22 23 23 22 22 22 22 23 23 23
23 24 23 24 24 25 24 24 24 24 24 25 25 24 24 24
24 24 24 25 24 24 24 24 24 24 24 24 24 24 25 24
26 25 26 25 26 25 25 25 24 24 24 24 24 23 23 22
23 23 22 22 22 22 21 20 20 21 20 20 20 19 19 19
18 18 18 18 18 18 17 17 17 17 17 17 17 18 18 22
22 22 22 16 13 20 14 16 8 3 3 0 0 1 0 0
0 3 0 0 0 9 7 3 1 0 6 10 9 8 5 5
6 3 4 8 8 15 20 22 23 23 23 23 23 23 23 23
23 23 24 24 24 24 25 25 25 25 24 23 24 24 24 25
25 24 24 24 26 23 24 24 24 25 25 24 24 25 25 24
26 25 25 26 25 25 25 24 24 24 24 24 24 24 24 23
24 23 23 23 22 22 21 20 21 20 21 20 20 20 19 19
19 19 19 18 18 18 18 18 17 17 17 18 17 18 19 22
23 23 22 17 13 17 11 4 0 0 0 0 0 0 0 0
0 0 0 0 5 8 10 4 4 10 12 9 12 11 4 1
5 8 9 8 8 12 13 21 23 23 23 23 23 23 24 24
24 24 24 25 25 24 25 24 24 25 25 25 24 25 25 25
24 25 25 25 27 25 24 25 25 25 25 24 24 24 25 24
26 26 26 25 25 25 25 25 24 24 24 23 23 23 23 23
23 23 22 22 22 21 22 21 21 21 20 20 20 20 20 19
19 19 19 19 18 18 18 18 18 18 17 18 18 18 19 22
22 22 23 18 14 10 3 0 0 0 0 0 0 0 0 0
0 1 0 1 3 3 2 2 5 10 13 10 5 2 2 4
4 7 2 1 3 5 7 17 22 23 23 24 24 24 24 24
24 24 24 24 24 24 25 25 25 25 24 25 24 25 25 25
25 25 25 25 26 24 24 25 25 25 24 24 25 25 24 23
26 25 26 26 25 25 25 24 24 24 24 24 24 24 24 24
24 23 23 23 23 22 22 21 20 21 21 21 20 20 19 20
20 20 20 20 20 19 19 19 18 18 18 18 18 19 19 23
23 22 22 19 8 3 0 0 0 0 0 0 0 0 0 0
3 6 7 5 6 2 3 5 10 2 6 13 11 6 5 5
3 2 0 0 1 1 2 7 21 24 24 23 24 24 23 23
24 25 25 25 26 26 26 25 26 26 26 25 26 26 25 25
25 25 25 26 26 25 26 25 25 25 25 24 24 25 25 24
25 25 26 26 26 25 25 25 25 25 24 24 24 24 24 24
23 23 22 22 22 22 22 22 22 22 21 21 21 21 20 20
20 20 20 19 19 19 19 19 19 18 18 18 19 19 20 23
24 23 20 9 0 0 0 0 2 1 0 0 0 0 2 0
2 7 15 11 7 11 6 11 6 4 4 11 16 12 3 2
5 4 0 0 0 0 2 2 15 23 23 23 24 25 24 25
25 25 25 26 25 25 26 26 26 26 26 25 26 26 26 26
26 26 26 25 26 24 25 25 25 25 25 25 24 25 25 25
26 26 26 25 25 25 25 25 24 24 25 25 25 24 24 24
24 23 23 23 22 22 22 22 21 22 22 21 21 21 21 21
20 21 21 19 20 20 19 18 19 18 18 18 18 19 20 24
24 20 9 1 1 4 7 8 6 3 1 2 1 6 8 4
2 11 18 18 16 17 14 9 10 8 12 7 4 6 9 7
3 0 1 1 2 1 4 5 7 19 24 24 24 25 25 25
25 25 26 27 26 26 27 26 26 26 26 26 25 25 25 26
26 26 26 25 26 26 25 25 26 25 25 24 24 24 25 25
26 25 25 25 26 26 25 26 25 25 25 25 24 24 24 24
24 23 23 23 23 23 22 22 23 22 22 21 22 21 21 21
20 19 20 20 19 19 19 19 19 19 19 19 19 20 21 24
21 5 4 2 9 14 19 16 13 5 0 5 1 8 10 7
6 8 16 18 19 15 16 16 17 19 12 6 5 5 1 0
0 0 0 0 0 2 3 9 9 14 25 25 24 25 25 25
25 25 25 27 25 26 26 26 26 26 26 26 26 26 26 26
26 25 25 25 26 25 25 25 25 25 25 25 25 25 25 25
26 26 26 25 25 26 26 25 25 25 25 24 24 24 24 24
23 24 24 23 23 23 22 22 22 21 22 22 21 21 22 21
21 21 21 20 20 20 19 19 18 19 19 19 19 20 20 21
10 2 7 11 18 19 19 15 8 0 4 6 6 12 10 8
10 10 9 12 13 11 18 17 17 18 11 10 7 4 2 4
6 6 5 1 1 5 6 10 14 15 24 25 24 25 25 25
26 26 26 26 26 26 26 26 26 26 26 26 26 26 26 25
26 26 26 25 26 26 25 25 26 25 25 25 25 25 24 24
26 25 26 25 26 26 26 26 26 25 25 24 24 24 24 24
23 23 23 23 23 23 23 22 23 23 22 22 22 22 21 21
21 20 20 20 20 19 20 19 19 20 19 19 20 20 22 18
6 6 9 13 10 8 10 13 15 13 10 7 10 10 11 11
9 12 11 13 14 10 10 9 11 17 15 12 7 4 1 1
2 3 0 1 6 9 9 12 17 18 25 25 25 25 25 26
25 25 26 26 26 26 26 26 26 26 26 26 26 26 25 26
26 26 26 25 25 26 25 25 25 25 24 24 23 24 24 24
26 26 26 26 26 26 25 25 25 25 25 25 25 25 25 25
24 24 24 24 23 23 23 23 22 22 22 23 22 22 22 22
21 21 21 21 21 20 20 20 20 19 20 19 20 21 21 16
8 13 12 3 0 0 2 9 13 13 12 10 9 8 12 22
17 14 19 16 19 16 10 8 9 11 11 7 6 3 0 0
0 0 2 11 17 11 13 17 23 22 25 25 25 26 25 26
26 26 26 27 26 27 26 27 27 27 27 26 26 26 26 26
26 26 26 27 26 24 23 23 24 25 24 25 26 25 26 24
27 26 26 25 26 25 25 25 25 25 25 25 25 24 24 24
24 23 24 23 24 23 23 23 23 23 23 22 23 22 22 21
21 20 21 20 20 20 20 20 20 20 20 20 20 22 19 14
9 15 10 1 0 0 0 3 13 10 9 7 8 12 13 24
31 30 25 22 16 17 15 10 8 9 9 13 10 10 9 5
3 3 7 13 17 9 12 21 28 27 25 25 25 26 26 26
26 26 26 26 26 26 26 27 27 26 26 26 26 26 27 26
26 25 25 24 24 24 24 25 25 25 24 24 25 25 27 24
23 25 26 26 26 26 26 25 25 25 25 25 25 25 24 24
24 24 24 24 24 24 24 23 23 22 22 22 22 22 22 22
22 21 22 21 21 20 20 21 20 20 20 20 20 20 17 16
14 17 9 3 0 0 3 8 7 6 10 12 15 14 14 15
15 22 31 26 23 20 16 11 10 9 12 11 13 13 14 8
4 10 14 14 11 9 14 20 24 26 26 25 25 25 25 25
26 26 27 27 26 26 27 27 27 27 27 26 26 24 23 23
24 24 26 26 26 26 26 25 25 25 24 25 25 25 26 24
5 11 26 26 26 25 26 25 25 25 26 25 25 25 25 24
24 25 25 24 24 24 24 23 24 23 23 22 22 23 22 22
22 22 21 21 21 21 21 21 21 21 21 21 21 21 20 17
17 15 6 3 4 1 7 8 4 6 8 10 16 15 11 6
9 17 18 23 25 21 17 15 14 15 16 14 16 12 9 7
6 5 10 8 5 11 16 17 20 26 25 25 26 26 27 27
27 27 27 27 27 27 26 27 27 26 25 26 26 26 26 26
26 26 26 25 25 25 25 25 25 25 25 25 25 25 25 24
3 11 26 26 26 26 26 25 25 24 25 25 25 25 25 25
25 25 24 24 24 24 24 23 23 23 22 22 22 22 23 22
22 22 21 21 22 21 21 21 21 20 20 20 19 21 19 15
13 16 9 8 5 1 6 2 10 14 16 13 12 13 16 17
17 22 20 20 21 17 17 17 14 16 19 19 21 18 14 10
3 1 3 3 12 14 21 22 23 26 26 26 26 26 26 26
26 27 26 26 26 26 26 26 26 26 26 26 27 25 25 26
26 26 25 25 25 25 26 25 25 25 25 25 25 24 25 24
5 9 25 26 25 26 25 25 24 24 25 26 26 26 25 25
25 25 25 24 24 23 24 23 23 23 23 23 25 26 25 23
23 22 22 22 22 21 21 21 21 21 21 20 21 19 16 13
13 12 9 10 2 6 1 5 13 17 15 15 16 16 21 25
28 29 29 26 26 25 23 22 19 20 15 20 18 15 10 12
11 4 3 4 15 25 35 37 25 26 26 26 26 27 26 26
26 26 26 26 26 26 26 26 26 25 25 25 26 26 26 26
26 26 25 26 26 26 25 25 25 25 25 24 24 24 25 25
6 10 26 26 27 26 25 25 26 33 32 30 29 26 26 25
24 24 25 24 24 24 24 24 23 23 23 23 33 35 33 29
27 26 23 22 22 22 21 21 20 21 21 19 14 15 19 12
5 11 7 8 2 0 0 1 2 3 10 13 18 22 27 26
24 25 18 23 20 25 26 25 24 18 24 14 12 7 6 3
6 7 2 5 26 48 57 47 27 26 26 26 26 26 27 25
26 26 25 26 26 26 26 26 26 26 25 26 26 26 26 26
26 26 26 26 25 26 26 25 25 25 25 25 24 24 24 24
7 12 26 26 26 26 26 26 27 37 36 35 34 31 30 29
28 25 25 24 24 24 24 23 24 24 24 24 34 34 33 30
31 31 28 23 22 21 21 21 21 21 21 13 4 11 18 11
2 11 1 3 0 0 0 0 1 6 9 17 21 25 27 32
33 28 29 34 33 36 41 40 32 32 30 35 23 17 25 37
33 28 18 41 67 71 64 52 30 26 26 27 27 25 27 27
27 26 27 26 26 25 26 26 26 26 25 25 26 26 26 26
27 26 26 26 25 26 25 25 25 25 25 26 25 24 24 25
6 13 29 28 28 27 26 26 27 37 35 35 32 31 31 32
35 30 30 28 26 25 24 23 24 24 23 24 32 33 32 30
30 31 30 24 22 22 22 22 21 21 19 6 0 5 16 4
0 2 0 0 0 0 0 0 1 7 11 12 13 19 22 22
22 25 26 35 43 63 70 70 81 93 96 95 89 84 99 96
97 90 87 83 89 82 71 57 37 26 26 27 27 26 26 26
26 26 26 26 26 26 26 26 26 26 25 26 26 27 26 26
26 26 25 25 25 25 25 25 25 25 25 25 24 24 24 24
7 14 31 30 29 29 29 28 27 33 31 34 33 33 35 36
37 31 29 31 33 30 27 27 26 25 24 25 26 13 16 21
26 29 31 26 23 22 22 22 22 22 19 1 0 1 9 5
0 0 0 0 0 0 0 1 5 9 12 17 17 16 18 19
20 21 29 42 60 81 95 103 112 113 114 113 112 112 108 104
103 102 100 97 93 86 77 60 44 26 27 27 27 26 27 26
27 27 27 26 26 26 26 26 26 26 26 26 26 27 26 26
26 26 26 25 25 25 25 25 25 24 24 25 25 25 25 25
8 15 32 31 25 27 32 33 34 20 0 5 17 27 32 34
36 29 4 6 14 19 29 28 30 33 30 27 24 9 5 6
3 4 9 26 24 24 23 23 23 22 16 0 0 0 8 6
2 0 0 0 0 0 4 6 11 14 18 16 17 20 21 20
19 24 40 49 58 81 94 106 114 114 113 114 113 112 109 106
101 94 98 98 96 90 83 68 53 29 27 28 27 27 27 26
26 27 27 27 27 26 27 26 27 27 27 27 27 27 27 25
26 25 26 26 26 26 26 26 26 26 26 27 26 26 25 26
9 15 32 33 29 27 25 35 38 21 0 0 2 9 10 9
17 30 0 0 0 0 0 3 10 16 24 29 25 7 0 4
7 1 1 27 24 25 23 23 23 24 16 3 0 3 10 10
6 6 1 0 0 1 3 5 14 18 20 17 18 20 20 20
28 30 45 37 53 72 96 115 115 115 114 114 111 92 65 40
17 4 16 47 80 93 86 70 59 36 27 28 29 28 28 28
28 28 28 28 28 28 28 28 27 28 27 27 28 28 28 27
27 27 28 27 27 27 27 27 27 27 27 27 26 27 26 23
10 8 9 16 25 33 35 38 39 23 0 0 0 3 7 8
12 31 0 0 0 0 0 0 0 0 0 20 25 5 0 1
2 1 1 29 25 25 25 25 25 25 18 9 1 3 10 14
14 12 9 0 0 2 6 9 10 12 18 15 16 19 18 20
24 24 27 35 53 92 115 115 111 90 62 35 13 3 3 10
22 3 0 0 3 39 80 76 62 42 28 29 30 29 28 28
28 27 29 29 29 28 28 28 28 28 29 28 29 29 28 27
27 27 27 27 28 28 28 28 29 28 28 28 27 28 28 28
10 6 0 0 0 1 6 15 24 23 0 0 0 1 1 2
10 31 2 0 0 0 0 0 0 0 0 21 23 2 0 0
1 0 1 30 25 25 25 25 25 25 21 13 4 7 9 11
13 15 9 7 3 8 6 3 5 13 16 15 12 10 13 14
15 22 32 44 75 77 56 31 11 4 5 6 8 8 7 2
0 3 0 0 0 0 23 69 65 45 28 28 29 29 30 29
29 30 30 30 30 29 29 29 29 29 28 28 29 29 28 28
28 28 28 28 28 28 28 28 29 29 29 28 27 27 27 27
10 5 0 0 0 0 0 0 0 15 0 0 0 0 0 0
7 29 0 0 0 0 0 0 0 0 0 20 20 0 0 0
0 0 1 32 26 26 26 26 25 25 16 9 7 7 6 10
8 10 8 8 7 4 1 0 6 6 16 20 21 19 11 23
26 15 17 17 11 13 15 17 19 21 27 37 47 53 42 17
9 12 0 0 0 0 0 40 66 43 29 29 30 28 29 29
29 29 29 30 29 29 29 30 29 29 29 29 29 28 28 29
29 29 29 28 28 28 28 29 29 29 28 28 28 27 27 26
9 4 0 0 0 0 0 0 0 12 0 0 0 0 0 0
10 31 1 0 0 0 4 6 0 0 0 18 21 0 0 0
0 0 1 32 26 25 25 25 25 24 9 3 3 3 4 2
5 4 5 5 1 0 0 1 0 2 9 15 14 13 13 11
7 10 13 17 28 46 67 82 95 103 106 109 108 103 93 47
28 8 0 0 0 0 1 17 60 21 13 27 29 29 29 30
28 30 29 30 30 29 29 28 28 27 27 28 28 29 29 28
28 28 28 28 28 28 28 28 28 28 27 27 27 27 27 27
9 5 0 0 0 0 0 0 0 11 0 0 0 0 0 0
9 34 2 0 0 0 5 9 7 3 0 16 21 0 0 0
0 0 0 29 26 25 25 25 25 23 5 0 1 2 2 6
5 3 3 0 0 1 1 0 0 0 4 7 1 0 3 10
10 8 13 33 77 102 108 110 113 113 112 111 111 109 94 43
28 10 0 0 0 0 0 4 37 2 0 9 30 29 29 29
29 29 29 29 28 28 29 28 28 29 28 28 28 28 28 28
27 27 27 26 25 27 28 27 28 27 27 28 28 28 28 28
9 5 0 0 0 5 4 0 0 9 0 0 0 0 0 0
7 35 2 0 0 0 6 10 9 9 2 14 22 0 0 0
0 0 0 29 26 25 25 25 25 22 2 0 3 0 0 0
0 0 0 3 6 5 5 0 1 5 0 0 25 41 42 47
47 25 17 29 58 96 109 112 112 113 113 112 110 105 80 36
26 16 0 0 0 0 0 5 0 0 3 2 28 29 28 29
29 29 29 29 30 29 29 28 28 29 28 28 28 29 28 28
29 28 28 29 28 27 29 29 29 28 28 28 27 27 26 25
9 4 0 5 1 1 1 0 0 7 0 0 0 0 0 0
8 35 2 0 0 0 5 8 8 8 2 13 24 0 0 0
0 0 0 28 27 26 26 25 25 22 5 0 0 0 0 0
0 0 0 4 4 8 9 32 79 92 65 33 72 56 55 55
59 22 25 47 65 101 111 111 113 113 114 113 109 99 62 28
24 13 0 0 0 0 0 2 0 0 1 3 25 29 29 29
29 29 29 29 29 28 29 28 29 28 29 28 28 29 29 28
28 28 27 27 28 27 28 28 27 27 26 28 27 25 24 24
10 5 2 2 0 0 0 0 0 9 0 0 0 0 0 3
14 37 4 0 0 0 0 3 7 9 1 11 32 23 15 9
4 1 1 27 27 25 25 25 25 23 9 0 0 0 1 0
0 0 0 4 14 15 40 99 96 85 93 98 75 76 57 57
48 40 40 60 78 107 112 112 113 113 114 112 107 96 47 18
18 7 0 0 0 0 0 5 40 2 0 4 25 28 28 28
28 29 29 29 30 28 29 29 29 28 28 28 28 28 28 27
28 28 26 25 25 28 28 25 26 24 22 20 18 14 11 9
9 5 0 0 0 0 0 0 0 17 9 4 1 1 0 0
9 40 27 21 15 10 4 0 0 4 0 10 34 35 32 33
33 34 35 38 27 25 25 25 25 25 17 0 0 0 0 0
1 0 3 11 16 19 84 90 104 110 79 92 112 91 74 72
59 47 58 76 93 107 112 113 114 114 114 112 105 94 53 32
19 0 0 0 0 0 5 15 88 39 0 5 27 29 29 29
29 28 29 28 29 28 28 28 29 28 28 28 26 26 25 24
26 26 25 25 24 21 18 15 12 10 8 8 8 8 9 11
9 6 0 0 0 0 0 0 0 27 40 32 28 27 23 14
15 44 23 18 22 25 28 26 22 19 16 20 37 35 34 34
35 40 41 41 28 25 25 25 25 24 19 8 0 0 0 0
2 8 8 14 19 31 95 109 115 115 107 82 111 113 108 95
73 79 88 95 106 112 113 114 114 113 113 111 106 101 79 44
31 0 0 0 0 0 13 26 98 86 15 5 27 29 29 28
29 29 29 29 29 28 27 26 26 26 25 27 26 26 24 21
19 16 14 11 10 9 10 10 11 12 12 14 15 14 15 15
9 5 0 0 0 0 0 0 0 28 43 30 37 38 41 42
39 42 16 8 10 9 10 11 12 14 20 26 26 22 27 30
33 36 38 38 29 25 26 26 26 26 17 8 1 0 0 0
1 7 9 17 15 42 101 113 113 114 110 99 107 114 114 109
102 97 100 101 108 113 114 114 114 113 113 112 109 105 92 50
36 4 0 0 0 8 15 50 105 100 59 7 27 28 29 28
28 27 28 28 28 28 27 28 28 22 20 17 14 13 11 10
11 12 12 13 14 14 15 15 16 17 18 18 15 13 19 20
10 12 14 9 3 0 0 0 0 29 34 30 38 40 43 44
36 29 15 9 10 9 9 8 6 6 6 5 5 6 9 13
22 26 22 21 24 26 26 26 26 25 19 2 0 1 0 0
0 1 9 13 16 49 105 109 109 113 113 79 91 110 113 110
104 100 103 106 108 114 114 114 113 113 113 113 112 108 103 66
38 13 0 0 2 25 11 83 108 104 90 28 27 29 29 29
29 27 25 24 22 18 16 19 30 15 9 12 13 14 14 15
15 16 17 18 18 19 20 21 21 21 21 21 22 17 14 21
10 16 35 38 36 31 25 18 13 33 26 30 37 39 42 44
39 32 19 10 11 9 7 6 6 5 6 6 6 6 7 7
21 24 24 24 24 26 27 26 26 26 20 1 0 2 1 0
0 0 2 8 15 52 103 104 107 112 102 78 97 107 113 110
103 96 100 107 109 113 113 114 114 114 114 114 114 112 110 94
45 27 3 0 20 24 25 106 106 103 99 71 29 26 23 19
17 15 14 13 14 16 15 14 25 15 14 17 18 19 20 20
21 22 21 22 23 23 23 23 23 23 22 23 23 24 19 13
10 16 35 38 39 37 37 37 39 40 14 17 27 32 38 41
38 34 23 11 9 8 5 5 5 6 6 6 7 8 8 10
24 10 5 26 26 26 25 24 25 26 22 2 0 0 2 1
0 0 0 5 17 62 105 99 107 99 108 101 95 109 114 111
104 101 106 110 112 113 113 114 114 114 114 114 114 113 112 108
83 40 22 9 12 19 80 114 106 104 102 91 44 14 14 15
17 18 18 19 19 20 20 18 26 16 17 21 22 23 23 23
24 24 24 24 24 24 24 24 24 25 23 24 25 24 24 18
8 14 35 40 39 38 39 38 40 39 4 0 0 2 4 11
14 25 24 10 8 4 0 0 0 3 9 9 8 7 11 13
25 30 28 33 33 32 28 4 14 26 24 3 0 0 0 5
5 1 2 6 17 66 103 96 102 98 115 102 75 113 116 114
105 103 106 108 109 111 112 113 114 114 114 114 114 114 114 111
102 86 65 55 51 72 102 105 91 95 99 97 79 31 20 21
21 23 23 22 23 24 23 22 27 18 20 24 25 24 25 25
26 26 26 27 26 26 25 24 24 24 23 22 25 25 25 25
14 16 28 31 31 32 34 36 39 35 2 0 0 0 0 1
8 25 25 9 7 5 0 0 0 0 2 3 0 0 4 4
21 33 26 25 27 29 31 28 26 26 23 5 0 0 0 0
5 8 9 11 16 50 94 97 99 99 111 95 81 109 115 114
107 102 107 109 108 108 112 114 114 114 114 114 114 114 113 110
106 99 95 92 89 90 97 96 96 95 97 95 96 66 25 24
25 25 26 26 26 26 25 19 10 8 21 25 27 26 26 26
26 26 26 26 26 26 26 25 26 24 24 22 23 24 24 24
13 16 17 19 21 25 24 25 34 33 1 0 0 0 0 0
0 26 25 8 6 3 0 0 1 0 0 0 0 0 0 0
19 34 25 20 19 18 22 24 27 26 23 5 0 0 0 0
1 6 11 12 12 30 74 104 97 104 101 104 91 95 116 114
108 100 101 105 105 108 107 112 114 114 114 114 114 114 112 110
108 105 100 96 92 86 94 100 103 109 110 106 102 79 32 26
27 26 27 27 26 26 25 14 1 0 17 25 27 28 27 27
27 27 27 27 27 26 26 26 25 24 22 23 21 23 22 23
13 15 14 14 16 25 22 24 34 32 0 0 0 0 0 0
0 24 21 4 1 0 0 0 5 4 0 0 0 0 0 0
18 34 27 13 24 27 22 22 26 26 26 10 0 0 0 0
1 0 1 10 16 16 47 96 105 111 114 109 87 84 114 114
107 104 103 97 104 103 108 112 113 112 114 114 114 114 110 109
110 106 102 99 92 84 90 103 110 99 81 86 80 59 29 28
28 29 28 25 20 14 25 12 8 1 16 27 28 28 27 27
26 26 26 26 26 26 26 25 25 24 23 22 21 21 22 22
9 14 14 20 23 27 26 30 35 31 1 0 0 0 0 0
0 25 17 0 0 0 0 0 1 7 6 1 0 0 0 0
18 35 28 7 21 19 17 22 25 26 25 17 1 0 0 0
0 0 0 5 16 21 31 68 108 114 114 115 114 113 112 110
102 102 98 101 101 101 106 109 110 113 114 114 114 114 113 112
109 107 105 100 93 83 81 91 86 67 61 63 52 32 29 28
29 29 16 0 0 1 19 11 1 0 14 26 27 28 28 27
27 27 26 25 26 26 24 24 23 22 22 22 19 18 19 19
13 13 0 1 4 8 12 18 22 27 1 0 0 0 0 0
0 26 19 0 0 0 0 0 1 7 11 6 3 0 0 0
16 35 29 10 13 14 12 22 25 27 26 22 2 0 0 0
0 0 0 3 16 20 42 60 83 108 114 114 114 112 110 107
101 97 96 100 104 97 105 108 110 113 114 114 113 111 114 113
112 109 107 101 93 88 85 73 87 101 69 38 31 30 30 29
29 29 22 16 21 25 26 18 0 0 13 26 28 27 28 26
26 26 26 25 25 25 24 24 24 23 22 21 21 19 17 15
19 16 0 0 0 0 0 0 0 13 1 0 0 0 0 0
0 28 16 0 0 0 0 1 11 11 12 10 6 0 0 0
17 35 30 19 19 17 14 20 24 26 26 25 9 0 0 0
0 0 0 2 10 16 29 50 68 77 102 113 115 114 109 106
98 94 94 98 97 100 104 108 111 114 113 113 114 114 114 114
113 111 106 101 95 92 91 87 87 88 56 32 31 31 30 30
30 30 29 29 28 27 26 19 0 0 14 26 28 27 28 27
27 26 26 25 24 24 23 23 22 22 21 21 20 19 17 16
16 15 0 0 0 0 0 0 0 12 1 0 0 3 0 0
0 27 13 0 0 0 0 1 14 15 12 3 2 0 0 0
14 35 32 22 15 2 2 19 25 27 27 26 17 0 0 0
0 7 2 6 8 12 19 31 69 73 80 104 112 108 105 104
96 93 94 98 99 101 107 107 109 114 115 115 113 115 114 114
113 112 108 103 99 95 90 87 87 89 63 35 31 31 30 30
30 30 29 29 28 28 27 23 3 0 18 26 28 28 28 27
26 25 25 24 23 23 23 22 22 22 21 21 21 20 17 14
18 16 0 0 0 1 0 0 0 11 1 0 1 13 7 1
0 28 12 0 0 0 0 0 0 8 8 0 0 0 0 0
12 36 33 22 12 5 4 16 23 27 27 27 24 6 0 0
1 5 6 6 8 14 23 59 77 79 81 79 85 82 105 100
94 89 94 96 95 95 105 109 110 113 113 114 114 114 115 114
114 112 108 104 102 95 91 91 94 95 76 41 30 30 30 30
30 30 30 30 29 27 26 23 12 7 22 26 27 27 28 26
26 25 24 24 23 23 22 22 21 21 20 19 18 18 17 13
13 13 0 0 0 10 2 0 0 10 1 0 6 12 8 2
0 27 10 0 1 0 0 0 0 7 9 0 0 0 0 0
9 35 33 10 8 0 0 15 24 27 27 28 27 18 1 0
0 4 9 3 6 17 28 66 85 98 101 99 86 93 104 97
94 87 92 94 98 101 103 107 105 111 112 114 114 114 114 114
113 111 107 106 99 95 92 94 91 80 76 49 30 30 31 30
30 30 29 29 29 27 26 22 20 20 25 28 27 28 28 26
25 25 24 24 24 22 22 22 21 20 19 18 18 17 16 12
13 14 0 0 5 16 3 1 0 12 17 11 17 16 15 11
2 28 10 0 0 0 0 0 0 5 11 0 0 0 0 0
6 35 31 6 9 1 1 19 21 27 27 28 28 25 8 0
0 2 4 1 14 25 31 66 82 99 111 114 101 97 101 94
90 87 89 93 97 101 101 104 107 111 112 111 113 113 113 114
112 112 110 109 103 91 78 70 49 54 65 38 30 30 30 30
30 30 30 29 29 28 26 24 23 24 27 28 27 26 27 26
26 25 24 24 23 23 22 21 19 19 18 18 17 16 15 11
11 13 0 0 1 5 1 0 0 13 34 33 38 36 35 37
39 41 11 0 0 0 0 0 0 7 12 0 0 1 0 0
2 33 29 5 3 1 3 20 21 28 28 28 28 27 11 0
0 1 3 5 12 18 44 71 82 97 111 114 106 102 100 94
89 86 89 89 95 97 101 106 108 109 110 112 110 113 114 113
111 109 111 110 98 62 54 65 68 56 35 32 32 31 31 31
30 30 30 29 29 27 27 25 25 26 29 28 28 27 28 26
26 26 24 23 22 21 20 18 19 18 18 17 16 17 15 11
13 15 3 1 0 0 0 0 0 11 34 33 37 36 36 40
44 44 26 13 15 9 5 3 3 8 14 2 2 0 0 0
2 24 29 4 1 1 3 9 21 27 27 28 28 25 20 0
1 0 0 6 18 17 56 72 78 92 106 113 110 105 101 93
88 88 86 86 90 96 100 103 106 109 111 111 110 111 109 111
110 109 112 108 92 85 91 85 81 73 52 32 30 31 31 30
30 31 30 29 29 29 28 27 27 28 28 28 28 27 26 25
25 25 23 21 21 20 20 19 18 17 17 16 14 14 14 10
13 14 13 2 0 0 0 0 0 11 33 32 35 35 34 42
45 45 33 29 28 28 26 26 26 25 23 20 17 15 15 14
17 26 32 13 12 13 8 4 16 28 28 28 29 24 25 5
1 0 0 7 20 16 61 71 74 90 105 113 112 107 100 93
85 82 85 84 84 89 99 101 106 107 106 108 109 111 111 111
108 108 110 104 96 96 97 97 89 68 52 36 30 31 31 30
30 30 29 28 29 28 27 26 27 28 27 26 26 26 26 26
25 23 22 20 19 19 18 17 17 17 16 15 14 14 14 11
14 15 9 0 0 0 0 0 0 11 31 28 30 31 31 32
28 28 30 30 31 31 29 28 30 30 30 28 25 24 22 21
22 28 38 27 25 21 17 16 17 28 28 28 28 23 27 14
0 1 0 5 11 25 62 70 70 88 103 110 112 111 104 95
89 87 83 82 87 91 100 99 105 106 109 106 105 108 109 108
108 106 106 102 100 96 93 87 68 45 51 35 30 30 30 30
30 30 29 29 29 29 28 28 29 29 28 27 28 26 26 25
24 23 21 21 20 19 18 18 17 16 16 15 15 15 14 10
15 16 5 0 0 0 0 0 0 12 35 27 29 30 29 29
28 27 30 31 32 33 33 32 31 31 31 29 33 35 33 30
30 32 40 38 38 38 36 35 29 28 28 28 28 25 27 25
2 0 0 5 14 39 63 70 67 85 100 110 114 111 107 99
95 86 81 81 86 92 94 97 100 101 101 102 105 106 104 102
105 105 102 96 95 90 88 81 65 52 49 31 31 30 30 30
30 30 29 29 29 28 28 29 30 29 29 27 28 27 26 25
24 22 21 20 19 18 17 17 16 15 15 15 15 15 14 10
13 12 21 21 19 14 13 10 8 15 37 29 30 29 29 30
32 33 35 33 34 36 39 38 34 29 30 30 37 39 38 35
35 35 31 25 23 24 24 25 25 27 28 28 28 26 25 30
11 1 0 3 24 47 62 71 71 82 98 107 110 109 104 102
99 88 87 80 82 87 90 93 97 96 99 101 101 105 106 105
101 105 99 93 87 87 92 89 84 68 39 30 31 30 30 30
30 30 30 30 30 30 30 29 29 29 28 27 27 26 25 24
23 21 21 19 18 18 17 17 16 16 16 15 15 14 15 10
13 13 28 34 37 33 35 40 41 41 39 31 32 32 32 32
34 37 40 34 34 36 41 39 34 31 25 28 38 40 37 35
36 36 33 29 23 21 21 20 23 27 28 29 28 24 27 30
26 7 14 8 32 51 67 71 69 81 94 104 107 110 105 101
103 97 91 81 78 80 80 89 91 97 97 96 94 103 102 105
101 99 92 89 87 93 93 93 90 73 43 30 30 30 30 30
30 29 29 29 29 29 29 29 29 29 28 27 26 26 24 23
22 20 20 19 17 17 16 16 16 14 14 15 14 14 13 10
13 12 29 40 39 39 41 40 41 41 40 29 27 27 27 28
32 39 42 35 36 35 33 34 35 32 29 24 31 31 30 31
35 36 34 33 28 26 25 25 26 27 28 28 28 22 29 31
33 30 16 7 35 50 66 71 67 78 92 99 108 110 103 101
102 96 92 91 82 81 80 80 85 89 89 91 88 95 100 100
99 94 86 91 93 96 93 87 81 64 47 30 30 29 29 29
30 29 30 30 29 30 30 29 29 27 27 28 26 24 23 23
22 20 19 18 17 17 17 17 15 15 15 14 14 14 14 10
13 10 16 23 26 28 31 33 36 38 39 8 6 4 2 3
6 12 35 36 34 17 9 14 17 17 20 29 29 9 1 1
5 10 14 28 30 27 28 31 32 34 34 29 28 24 29 31
34 33 30 18 34 57 68 70 67 76 92 100 109 111 108 105
105 98 92 90 86 83 77 76 79 80 81 85 90 92 93 94
92 90 91 89 96 96 93 91 75 66 54 30 30 30 30 30
30 29 28 27 24 26 26 29 29 27 27 27 26 24 24 23
22 20 20 18 17 17 16 16 16 15 15 14 14 14 14 11
13 9 12 15 15 16 17 18 19 19 24 4 0 0 0 0
0 0 27 37 26 1 0 0 1 6 13 30 29 5 0 0
0 4 10 26 19 20 24 26 28 32 35 30 27 23 30 31
34 33 31 23 40 61 69 70 67 73 86 98 108 108 108 105
106 102 94 94 90 85 82 79 80 80 70 75 84 83 85 86
88 89 88 90 98 95 94 84 73 73 54 30 30 30 30 23
12 12 9 7 6 8 21 30 29 28 27 26 26 24 23 22
20 19 19 18 17 17 16 16 16 15 14 14 14 13 13 11
11 8 15 21 21 22 22 22 23 23 27 7 2 0 0 0
0 8 29 35 12 0 0 0 0 0 13 32 30 8 0 0
0 1 9 24 4 0 1 1 1 7 36 32 27 25 30 31
34 33 32 26 47 66 71 70 68 73 86 101 106 112 110 107
110 102 96 94 89 86 84 87 87 79 74 73 70 71 71 72
77 78 77 80 86 88 87 75 70 70 46 26 30 30 30 22
5 5 5 5 4 5 20 29 28 28 27 26 26 24 23 22
20 19 19 18 17 17 15 14 15 14 15 14 14 14 14 12
10 8 15 21 23 24 24 26 27 28 29 6 0 0 0 0
0 8 28 33 6 0 0 0 0 0 9 32 29 8 0 0
0 0 7 24 5 1 12 8 0 3 34 31 26 25 30 31
33 33 33 30 54 69 72 70 69 72 85 99 110 112 112 111
108 105 99 98 97 94 94 89 90 84 80 75 67 66 68 70
73 69 71 72 75 79 73 66 65 64 33 22 30 29 30 22
5 5 5 5 4 5 20 29 29 28 28 26 25 24 22 21
20 19 18 18 17 16 15 15 16 15 15 14 14 14 13 11
11 10 17 22 23 24 25 26 27 29 29 7 0 0 0 0
3 0 21 30 2 0 0 0 0 0 9 32 28 8 0 0
0 0 5 24 7 0 5 5 0 2 34 32 26 26 30 31
33 33 33 35 61 70 73 71 67 73 89 99 109 114 115 112
107 107 104 99 97 100 94 89 93 90 90 78 74 73 72 70
68 65 65 64 68 70 65 58 60 52 13 20 28 29 29 19
5 5 6 5 4 5 18 28 28 27 28 26 24 24 22 21
20 19 18 17 17 15 14 13 15 14 14 14 14 14 14 12
17 17 18 19 20 20 15 8 13 23 33 9 0 0 0 0
4 1 19 30 1 0 0 0 0 0 8 32 26 7 0 0
0 0 0 23 8 2 4 3 0 2 34 33 25 28 30 31
34 34 33 45 67 76 76 74 67 75 90 99 108 113 112 109
107 106 105 104 102 99 96 96 96 93 93 83 77 78 72 71
67 67 61 60 58 58 53 49 48 22 3 20 29 29 29 21
5 5 5 5 4 4 15 29 29 28 27 26 25 23 21 20
18 17 17 17 16 16 16 16 15 15 15 15 15 15 14 12
16 16 16 16 16 16 10 0 0 11 35 17 3 0 0 0
2 0 16 30 1 0 0 0 0 0 7 33 26 9 0 0
0 0 0 21 11 1 4 4 0 1 33 32 24 29 31 33
42 52 62 54 70 79 77 74 69 76 92 101 108 114 114 112
109 109 110 107 106 102 95 96 93 91 90 82 79 80 76 74
71 65 60 54 47 38 33 24 14 2 2 20 28 28 29 23
6 5 6 7 7 6 12 26 26 26 25 24 24 23 22 20
19 18 18 18 16 16 15 15 15 14 13 13 14 14 14 12
16 16 16 16 17 16 12 0 0 8 35 14 1 0 0 0
3 1 15 30 1 0 0 0 0 0 3 33 26 12 0 0
0 0 0 19 15 0 0 0 0 1 32 31 24 29 49 90
57 55 60 60 74 83 81 75 71 78 91 103 111 115 116 114
112 107 107 108 107 108 103 104 101 95 90 82 82 79 71 63
51 30 17 11 10 9 6 4 4 3 3 19 29 28 29 25
14 12 13 12 12 12 18 25 27 27 27 26 25 23 22 21
19 18 18 18 16 16 15 15 15 15 14 14 14 14 13 12
10 10 11 12 14 16 13 0 0 6 31 9 0 0 0 0
0 0 15 32 1 0 0 0 0 0 2 33 26 9 0 0
0 0 0 18 21 0 0 0 0 1 30 32 25 45 110 98
66 51 56 69 80 87 86 77 72 78 93 103 112 114 116 112
114 109 107 105 106 109 107 102 100 93 88 86 80 58 34 31
27 9 5 7 7 6 5 3 4 3 3 17 29 30 29 26
8 8 8 4 1 1 3 3 1 6 27 26 25 24 22 21
20 18 18 18 17 16 15 15 16 15 14 15 14 14 14 13
0 0 0 2 11 16 15 0 0 4 27 7 0 0 0 0
1 0 13 34 2 0 0 0 0 0 1 33 27 11 0 0
0 0 0 15 25 0 0 0 0 3 30 31 31 100 113 84
63 52 62 75 85 92 89 79 74 80 94 106 113 113 114 113
112 110 105 102 105 107 107 103 101 95 89 74 47 6 16 32
30 9 5 4 4 3 4 4 4 3 3 17 29 30 29 26
8 6 6 3 0 3 6 24 8 3 27 26 25 24 22 22
20 19 18 17 17 16 16 16 16 15 15 14 14 14 14 12
0 0 0 4 16 16 14 1 0 2 25 8 0 0 0 1
10 6 13 37 13 8 7 8 8 8 9 33 29 26 26 26
26 27 30 36 30 4 3 2 2 4 29 30 72 120 101 86
70 50 71 80 91 96 90 80 75 79 95 107 113 115 114 112
112 106 104 107 110 105 102 101 97 93 75 60 51 16 18 65
65 10 5 5 1 0 5 3 4 3 3 17 30 30 30 27
9 6 7 4 0 0 2 5 1 2 26 26 25 24 23 22
21 19 18 19 18 16 17 16 16 16 15 14 14 14 14 13
0 0 0 4 17 15 15 2 0 0 23 25 26 22 22 28
36 36 34 33 41 40 37 38 39 40 40 42 30 27 33 35
38 41 45 47 41 29 28 27 27 28 31 43 114 115 100 98
61 54 77 85 95 98 93 81 77 79 96 108 113 110 115 112
113 108 108 100 103 104 103 102 94 80 67 69 64 27 22 80
104 18 4 4 4 7 9 4 5 4 3 16 29 29 30 27
8 6 6 3 0 0 0 0 0 2 26 26 25 23 22 21
20 19 19 18 17 17 16 15 15 15 15 14 14 14 13 12
0 0 0 2 18 15 15 3 0 0 22 28 31 26 29 35
40 36 32 29 40 43 40 39 38 42 43 43 34 24 32 35
38 43 46 47 43 27 27 27 27 27 29 74 120 114 109 98
50 73 83 92 97 100 94 82 79 80 95 108 113 115 116 113
114 111 104 103 103 101 101 95 83 73 79 76 72 36 52 92
113 61 4 4 2 2 5 4 5 4 2 15 29 30 30 27
10 6 6 2 0 0 0 0 0 1 22 11 4 6 20 22
20 19 19 18 17 17 16 15 15 14 14 14 14 13 13 13
0 0 0 1 19 17 14 4 0 0 20 28 25 23 28 33
39 37 31 27 28 33 33 33 32 33 32 33 31 23 23 28
30 31 29 28 29 27 29 28 29 28 32 103 119 114 115 84
72 81 89 95 99 101 95 86 82 81 95 107 113 103 116 114
115 109 107 105 104 102 96 85 79 87 90 86 81 39 89 98
114 95 14 4 1 0 5 5 6 5 3 16 30 30 31 28
8 5 5 0 18 17 0 0 0 0 6 18 24 11 8 22
20 18 18 18 16 16 15 14 14 14 14 14 14 13 13 13
0 0 0 1 18 16 14 5 0 0 18 22 17 20 20 24
37 38 33 29 21 20 20 20 20 21 21 22 25 25 26 28
29 28 26 23 25 27 28 28 28 29 44 117 119 114 112 96
81 90 95 99 103 102 94 87 83 81 93 107 114 109 117 116
115 110 112 110 108 104 93 82 93 102 100 94 87 47 82 98
112 108 86 71 56 36 15 6 7 6 3 14 29 29 31 27
8 5 5 7 31 41 5 0 0 10 25 26 24 22 3 21
20 19 18 18 17 16 15 15 14 13 14 14 13 13 13 13
0 0 0 0 17 16 14 6 0 3 21 22 6 9 12 16
23 25 25 30 23 22 23 23 28 29 27 27 30 31 32 35
36 35 29 27 27 27 28 28 29 30 60 120 119 115 108 104
89 96 100 103 104 104 95 92 87 81 94 108 116 117 117 116
116 114 115 111 108 102 92 98 107 109 104 97 92 72 79 107
112 113 98 100 104 112 114 91 63 39 16 14 30 29 30 28
10 5 5 3 8 15 4 0 0 17 27 26 25 24 5 20
20 18 18 17 16 16 15 15 14 14 14 14 14 14 14 14
0 0 0 0 16 16 13 10 10 17 24 21 0 0 0 0
0 4 7 28 26 31 35 31 40 43 33 27 28 29 30 34
37 39 32 28 27 27 28 29 33 60 96 119 118 117 108 107
93 103 104 107 107 104 95 94 90 81 95 108 116 117 116 116
116 117 115 112 107 101 101 109 113 111 105 101 97 97 82 109
113 115 103 99 107 113 115 115 115 114 113 96 58 31 32 28
12 5 6 1 3 2 0 0 0 15 27 25 24 23 6 18
20 18 17 17 17 16 15 15 15 14 13 13 14 13 12 13
0 0 0 0 15 15 13 15 26 29 31 24 0 0 0 0
0 0 6 33 26 33 38 31 42 45 18 1 1 2 2 4
18 39 32 28 28 28 30 53 94 103 111 119 118 118 108 112
107 104 107 110 109 103 96 97 95 85 94 110 117 117 117 116
116 116 115 111 106 106 111 115 115 112 108 103 102 112 89 109
114 116 108 102 107 112 115 115 115 114 114 114 113 108 86 49
24 18 13 3 0 0 0 0 1 11 27 26 25 24 6 20
18 18 17 16 16 16 15 15 14 14 14 14 14 14 13 13
0 0 0 0 12 16 12 14 26 29 32 28 0 0 0 0
0 0 2 35 25 30 35 7 8 19 17 0 0 0 0 0
12 38 34 29 36 63 90 106 106 102 111 119 119 118 112 114
118 107 112 113 111 104 100 101 98 87 94 109 117 117 117 115
116 116 114 110 110 113 116 116 116 113 110 107 110 112 96 113
113 115 111 106 108 110 115 114 115 114 113 114 114 114 114 113
78 13 19 24 2 0 0 0 0 11 28 27 25 21 6 21
21 19 19 18 17 16 15 14 15 14 14 13 13 13 12 12
0 0 0 0 10 15 12 14 22 22 23 19 1 0 0 0
0 0 2 35 25 31 34 3 1 14 18 0 0 0 0 0
9 38 56 83 113 116 108 106 103 102 114 120 119 118 117 117
118 116 112 113 111 106 105 106 101 90 95 109 117 117 116 114
115 114 112 109 113 116 116 115 116 115 111 112 116 112 102 115
115 115 112 108 108 107 111 115 115 115 115 114 114 114 114 114
114 104 65 44 6 0 0 0 0 10 27 25 23 8 15 18
12 10 18 17 16 15 14 14 14 14 13 13 13 13 13 13
0 0 0 0 9 16 12 10 0 0 3 2 0 0 0 0
0 0 3 37 26 31 35 3 1 12 20 0 0 0 2 26
64 105 119 119 119 116 105 103 102 108 117 118 118 118 118 118
118 119 118 113 111 108 110 109 105 94 95 108 117 117 116 112
114 113 112 114 116 117 117 116 116 115 114 117 116 113 107 114
114 115 110 110 106 107 112 115 115 115 115 115 114 115 114 115
113 114 114 106 71 31 2 0 0 0 2 2 1 1 11 12
7 7 18 18 17 17 15 15 15 14 13 13 13 12 13 13
0 0 0 0 8 15 12 10 1 1 4 2 0 0 0 0
0 0 4 35 25 32 34 2 1 12 22 0 13 58 102 116
117 118 119 119 118 110 98 99 103 111 119 118 118 119 118 118
118 118 118 118 113 110 113 113 109 96 97 109 117 117 116 110
112 113 113 115 116 116 116 116 116 116 117 117 117 115 113 114
113 114 111 106 106 103 114 115 115 114 115 114 115 115 115 115
115 113 114 114 114 113 101 46 1 0 1 0 0 1 6 8
39 44 21 17 17 16 15 13 14 14 13 12 12 13 13 14
0 0 0 0 7 15 12 10 3 2 6 3 0 0 0 0
0 0 1 35 25 32 35 3 2 11 32 63 113 117 119 119
119 119 119 119 119 109 98 101 104 113 119 118 119 118 118 118
119 119 118 119 118 117 116 115 112 101 99 106 114 115 113 103
104 110 108 113 117 116 116 116 117 116 116 116 116 115 113 114
113 113 115 110 109 98 115 115 115 114 114 115 114 115 115 115
114 114 115 114 113 113 113 111 86 22 11 4 0 2 13 8
42 36 14 6 4 9 16 15 15 14 13 13 13 12 13 13
0 0 0 0 6 15 12 11 7 6 8 3 0 0 0 0
2 0 0 33 26 33 35 8 10 65 111 117 120 120 120 119
119 119 119 119 119 108 100 106 104 113 119 117 119 118 118 119
119 119 119 118 118 118 118 118 116 110 104 107 116 117 114 98
91 99 110 116 116 117 117 117 117 116 116 117 117 116 116 115
116 106 54 110 109 94 115 115 115 115 115 115 115 115 116 116
116 115 115 115 114 114 114 112 110 98 33 4 0 0 0 0
0 0 2 2 0 10 19 17 18 18 17 17 17 17 18 18
0 0 0 0 6 15 12 10 8 7 9 4 0 0 0 0
5 8 0 32 27 34 36 37 92 118 116 115 119 119 119 119
119 119 119 119 118 110 106 109 104 102 93 119 119 118 118 118
119 119 119 119 119 118 118 118 118 118 117 117 117 116 116 112
113 117 117 117 118 118 117 117 117 116 116 116 116 116 116 114
113 100 14 92 109 94 114 116 116 116 115 115 115 115 115 115
115 115 114 115 114 114 114 114 110 113 103 44 0 0 0 0
0 0 1 1 0 8 15 12 11 9 8 6 5 3 4 3
0 0 0 0 5 15 12 11 9 8 10 6 0 0 0 0
6 14 5 29 30 49 89 117 118 118 117 119 120 120 120 119
120 120 119 119 119 111 108 111 105 88 74 120 119 118 118 119
119 119 119 118 118 118 118 118 118 118 117 118 118 118 118 117
118 118 117 117 117 117 117 117 117 117 117 117 117 117 116 111
111 106 18 87 111 97 113 115 115 115 116 115 116 115 115 116
116 116 115 115 115 115 114 114 113 112 109 109 46 0 0 0
0 0 0 3 19 21 21 21 22 24 25 26 27 28 29 30
0 0 0 0 5 16 12 10 10 9 10 14 11 16 16 18
23 29 30 40 69 110 116 119 119 119 117 118 119 119 119 119
120 119 120 119 117 111 110 113 106 81 78 120 118 119 118 118
118 119 119 119 118 118 118 118 117 117 117 117 118 117 117 117
118 118 117 117 117 117 117 116 117 117 117 117 116 116 112 110
114 108 23 85 110 100 113 116 116 116 116 115 115 115 115 114
115 115 114 114 114 114 114 115 115 114 114 110 108 34 0 0
0 0 0 9 34 32 32 32 31 31 31 30 30 31 31 30
0 0 0 0 4 16 12 10 10 11 10 21 30 33 34 36
39 43 47 82 116 116 119 119 119 119 118 119 119 119 119 120
119 120 119 119 115 111 111 111 106 76 76 120 118 119 119 119
119 119 119 119 118 118 118 118 118 118 118 118 118 117 118 118
118 118 117 117 118 117 117 117 117 116 117 117 117 116 110 111
116 101 23 100 110 100 113 115 115 115 116 115 115 115 116 115
116 116 115 115 115 115 115 114 114 114 115 112 110 101 16 0
0 0 0 12 34 32 32 32 31 31 31 31 31 30 31 31
0 0 0 0 4 16 12 10 10 11 11 19 33 35 36 37
40 45 71 116 120 119 120 120 119 120 119 119 119 119 119 120
119 119 119 119 117 114 113 112 109 93 76 116 117 118 118 118
119 119 119 118 119 118 118 119 119 118 118 118 118 117 118 118
118 117 117 118 117 117 117 117 117 116 117 117 117 114 111 113
116 82 35 112 112 104 115 116 116 116 116 116 115 115 115 115
115 115 115 115 115 115 115 115 115 115 115 115 110 112 79 2
0 0 0 13 33 32 32 32 31 31 32 31 31 31 31 31
0 0 0 0 3 15 11 9 10 11 11 10 20 20 21 21
23 42 111 118 120 119 120 120 119 119 119 120 120 119 119 120
120 119 120 119 119 116 116 110 110 108 81 107 119 118 118 118
118 119 118 118 118 118 118 117 117 117 117 118 117 118 118 118
118 117 117 117 117 116 117 117 116 116 116 117 117 114 111 115
114 80 67 115 113 111 115 115 115 115 115 115 115 116 115 115
116 115 116 115 115 115 115 114 115 114 114 114 112 113 106 39
0 0 0 15 33 32 32 32 31 30 30 30 30 31 31 31
0 0 0 0 2 14 11 9 9 10 10 6 4 5 6 9
13 65 120 119 120 118 120 119 119 119 119 119 119 119 119 118
119 119 119 119 118 118 116 108 111 115 98 94 118 117 118 117
118 117 118 118 117 118 117 117 118 118 117 118 117 117 117 116
116 117 116 116 117 116 116 116 115 116 116 116 117 113 112 115
110 82 87 114 116 113 115 116 115 115 115 114 115 115 115 115
114 115 114 114 115 114 115 114 114 114 114 115 112 111 108 90
7 0 0 18 32 31 31 31 31 30 30 30 30 29 29 30
0 0 0 0 2 13 10 7 8 10 11 9 7 8 9 11
32 97 120 119 119 117 119 119 119 119 118 118 118 118 119 119
119 119 118 118 118 118 116 109 112 114 92 89 106 117 118 118
118 118 118 117 117 117 117 117 117 117 117 117 117 116 116 116
116 117 116 116 116 115 116 116 116 115 115 115 115 113 113 112
111 98 89 115 115 114 114 115 114 114 114 114 114 114 114 115
114 114 114 114 114 114 114 114 114 113 113 113 113 110 109 102
67 1 0 20 32 31 31 30 30 29 29 30 29 29 29 28
0 0 0 0 2 12 10 7 8 10 11 12 11 12 13 26
86 102 119 118 119 117 118 118 118 118 118 118 118 118 118 118
118 118 118 117 118 117 117 113 114 113 82 90 91 113 117 116
116 116 117 117 116 117 116 117 117 117 117 117 116 116 115 116
115 115 115 115 115 115 115 115 116 116 116 115 114 112 113 113
112 112 100 113 114 114 114 114 114 114 114 114 114 114 114 114
114 113 113 114 113 113 113 113 113 112 113 113 113 111 110 101
101 28 0 21 31 30 30 29 29 29 28 29 28 28 28 28
0 0 0 0 3 14 9 7 7 10 11 12 12 13 15 66
106 104 119 118 118 117 118 118 118 117 118 118 118 118 118 118
118 118 118 118 117 117 117 117 114 114 84 94 102 75 111 117
117 117 117 117 117 117 116 116 117 116 116 116 116 116 116 115
116 116 116 115 116 115 115 115 115 115 115 115 114 112 114 114
114 114 112 113 114 114 113 114 115 114 114 115 115 114 114 114
114 114 114 114 114 113 113 113 113 113 113 113 113 112 110 107
99 96 14 23 31 30 30 30 29 29 29 28 28 28 28 28
4 4 5 5 7 9 7 7 8 11 11 12 13 14 42 110
110 108 118 118 117 117 118 118 118 119 118 117 118 118 118 118
118 118 117 118 117 117 117 117 118 117 91 98 110 79 107 112
117 116 117 117 117 117 117 116 117 116 116 116 116 116 116 115
115 115 115 115 115 115 115 116 115 115 115 115 114 112 114 114
114 114 114 114 100 106 114 114 114 114 114 114 114 114 114 114
114 114 113 113 113 113 113 113 113 113 113 113 113 113 110 110
100 112 77 26 30 29 29 28 28 28 28 28 28 28 28 28
6 6 6 5 5 6 7 6 8 10 13 13 15 22 95 114
117 111 119 118 117 116 118 118 118 118 118 118 118 118 118 118
118 118 118 118 118 118 117 117 117 117 104 105 116 93 111 109
116 117 116 117 117 117 116 116 116 117 116 116 116 117 116 116
116 116 116 116 116 115 116 115 115 115 115 115 114 113 115 114
115 114 115 115 113 113 115 115 115 114 115 114 114 114 114 115
114 114 114 114 113 114 114 113 113 113 113 113 114 113 110 110
100 110 111 47 30 30 30 29 29 28 28 28 28 27 28 28
6 5 6 6 6 6 6 7 8 10 12 13 16 72 112 112
118 114 118 118 117 115 118 118 119 119 118 118 119 118 118 118
118 117 118 117 117 116 117 118 117 117 113 114 116 107 113 112
116 117 117 117 116 117 116 116 116 116 116 116 116 116 116 116
116 116 115 115 115 116 116 115 115 115 115 115 114 113 115 114
114 114 114 114 114 114 114 115 115 114 115 115 114 114 114 114
114 114 114 113 113 113 114 113 114 114 114 113 113 114 110 111
100 110 113 86 30 29 29 29 29 29 28 29 28 28 29 28
7 7 7 6 6 6 6 6 8 10 12 14 43 105 111 118
118 115 118 118 117 115 118 118 118 118 118 118 118 118 118 118
118 119 118 118 118 117 118 118 117 117 103 111 111 107 115 116
117 117 116 117 117 117 116 116 116 116 116 115 117 116 116 116
116 116 117 116 116 116 116 115 116 115 115 115 114 113 114 115
115 115 114 115 115 114 115 115 115 114 114 114 114 114 114 114
114 114 113 114 114 114 114 113 113 114 113 113 113 113 110 111
102 113 113 111 46 30 30 30 29 28 28 28 28 28 28 28
2 1 1 0 0 1 2 6 12 10 12 22 96 103 113 119
119 117 118 118 117 113 119 118 118 119 118 118 118 118 118 118
118 118 118 117 117 118 118 118 118 118 114 116 117 117 115 117
117 116 116 117 117 116 117 117 117 117 117 117 117 117 116 116
116 116 116 116 116 115 115 116 116 115 115 116 115 114 115 115
115 115 114 114 114 114 114 114 114 114 114 114 115 115 114 114
114 114 115 113 114 114 114 113 114 114 114 114 114 114 111 111
105 113 113 113 85 29 30 29 28 28 29 29 29 29 28 28
0 0 0 0 0 1 4 6 9 11 15 61 106 101 119 119
119 118 118 118 117 113 119 118 118 118 118 118 118 117 118 118
118 118 118 118 118 118 118 118 118 118 117 117 117 116 113 117
117 117 116 117 117 117 117 116 117 116 116 116 117 116 116 116
117 116 116 116 116 116 116 116 116 115 116 115 115 114 115 115
115 115 115 115 114 115 114 114 114 115 115 115 114 114 114 114
114 114 114 114 114 114 114 114 114 114 113 113 113 112 111 109
106 114 112 111 111 47 29 30 29 29 29 28 28 28 28 27
0 0 0 0 0 0 4 6 9 11 56 117 100 107 119 119
119 118 117 118 117 111 119 118 118 119 119 118 119 118 118 118
118 118 118 118 118 118 118 117 117 118 118 118 118 117 114 117
117 116 117 117 116 117 117 117 116 117 117 117 117 116 116 116
116 116 116 116 116 116 115 115 116 115 115 116 116 112 115 115
115 115 115 115 114 114 113 113 114 114 114 114 114 114 115 115
115 115 114 114 114 114 114 113 114 114 113 113 114 114 113 109
107 114 111 111 112 85 27 29 29 28 28 28 28 28 27 27
0 0 0 0 0 1 6 8 10 34 98 117 105 114 119 119
119 119 119 119 116 113 118 118 118 118 118 118 119 118 118 118
118 118 118 119 118 118 118 118 118 117 117 117 117 117 115 115
117 117 117 117 117 117 118 117 117 116 116 116 117 116 116 116
116 116 116 116 116 116 115 115 116 116 116 116 115 110 114 115
114 115 115 115 115 114 114 114 115 114 114 114 114 115 115 115
115 114 115 114 114 114 114 114 114 114 113 114 113 113 113 107
110 113 111 110 113 110 28 19 30 29 29 28 28 27 27 27
1 1 0 0 0 3 8 11 16 87 110 112 117 117 119 119
119 119 119 118 111 111 119 118 119 118 118 118 118 118 118 118
118 118 118 117 117 117 118 117 117 117 118 118 117 117 116 113
117 117 116 117 117 117 117 117 117 116 117 117 117 116 117 116
116 116 116 116 116 115 116 116 116 116 116 116 115 110 113 114
114 115 115 115 114 113 114 114 114 114 115 115 115 115 115 115
115 115 115 114 114 114 114 114 114 114 113 114 113 113 113 106
113 114 112 109 113 113 60 7 29 28 27 27 27 27 27 27
3 3 3 4 5 8 10 11 29 108 111 104 119 118 118 119
119 119 119 118 104 115 118 118 118 118 117 118 118 118 118 119
119 118 118 118 118 118 118 118 117 117 117 117 117 117 116 113
116 117 116 117 117 117 117 116 117 116 116 116 116 116 116 116
116 116 116 116 116 116 116 116 116 116 116 115 115 110 110 114
114 115 115 115 114 114 115 115 114 114 114 115 114 114 114 114
114 114 114 114 114 114 114 114 114 113 113 114 114 113 113 107
113 113 111 109 113 113 98 7 29 28 27 27 26 27 26 26
5 5 4 3 2 2 1 2 45 110 113 101 120 119 119 119
118 119 118 118 101 114 118 118 118 118 117 118 118 118 118 118
118 118 118 117 117 117 117 117 117 118 117 118 117 117 117 116
116 117 116 117 117 117 117 116 116 117 116 116 117 116 116 116
116 116 116 116 116 116 116 116 116 116 116 116 115 112 110 115
115 115 115 114 115 114 114 114 114 115 114 115 115 115 114 114
114 115 114 113 114 113 113 114 114 111 112 113 113 113 112 109
114 114 111 111 113 113 111 25 24 27 27 26 26 26 26 26
0 0 0 0 0 0 0 1 65 108 114 99 118 118 118 118
118 118 119 118 102 112 119 118 118 118 116 118 118 118 118 118
117 118 118 118 118 117 118 118 117 117 117 117 117 117 117 117
116 117 116 116 117 117 117 116 117 116 116 116 116 116 116 115
116 116 116 116 116 116 116 116 116 116 116 115 115 113 109 114
114 114 115 115 115 114 115 115 115 114 114 114 114 114 114 114
114 114 114 114 114 114 114 114 114 113 113 114 113 114 112 111
113 113 110 110 113 113 112 59 4 22 27 26 26 26 26 26
