P2
128 120
125
26 26 25 25 25 24 23 22 22 22 21 21 21 20 20 20
19 19 18 18 18 17 17 17 16 16 15 15 14 14 13 13
13 13 12 12 12 11 11 10 10 9 7 6 4 4 5 7
8 9 10 7 3 11 14 12 11 10 9 9 8 6 5 2
2 2 1 5 7 5 7 3 6 8 9 9 10 11 11 11
11 11 12 12 12 12 13 13 14 14 14 14 14 15 15 15
16 15 16 17 17 18 19 19 19 19 20 20 20 20 21 21
21 22 22 22 22 22 22 22 22 23 23 23 22 22 23 23
26 25 25 24 24 23 23 22 22 21 22 21 21 21 20 20
19 19 18 17 17 16 16 16 16 15 15 14 14 14 13 13
13 12 12 12 12 11 11 10 10 9 8 6 6 5 6 9
10 11 12 7 2 11 15 12 11 10 9 9 8 7 7 4
4 3 2 4 6 7 4 6 8 9 10 10 11 11 11 12
12 12 12 12 13 13 14 13 14 14 15 15 15 15 15 16
16 17 18 17 18 18 19 18 19 20 20 20 20 21 21 21
22 22 22 23 22 22 22 22 22 23 22 22 22 22 22 22
25 24 24 23 23 22 23 22 21 21 20 20 20 20 20 19
19 18 18 18 17 16 16 16 15 15 14 14 13 13 13 12
13 12 12 11 11 10 10 10 10 9 8 7 6 5 7 10
11 12 12 6 1 10 15 12 11 10 9 8 8 7 5 5
6 4 2 2 5 6 6 7 9 9 10 10 11 11 12 11
12 12 13 12 13 13 13 13 14 14 13 14 14 15 16 16
16 17 18 17 18 18 18 19 19 19 20 20 20 20 20 20
21 21 22 23 21 21 21 22 22 22 22 21 22 22 22 22
24 24 23 23 22 22 22 22 22 22 21 21 20 20 20 19
18 18 18 17 16 16 15 15 15 15 15 14 14 14 14 13
13 12 12 11 11 10 11 10 9 9 9 8 7 7 7 11
12 13 14 7 2 9 15 12 11 11 10 9 9 8 6 7
7 6 3 1 7 5 6 8 10 10 11 11 12 12 12 12
12 13 13 13 13 13 14 14 14 14 14 15 16 16 17 17
17 17 19 17 18 18 18 19 19 19 19 19 20 20 20 21
21 22 21 23 21 22 22 21 22 22 21 21 22 21 22 21
24 24 24 23 24 23 23 22 22 21 21 20 20 20 19 19
19 19 18 17 17 16 16 16 15 16 15 14 14 14 14 13
13 12 13 12 12 11 11 10 10 10 9 8 7 7 8 13
13 14 14 8 3 9 15 12 12 11 11 10 9 8 6 8
8 7 4 1 8 6 8 10 10 11 12 12 12 13 13 13
13 13 13 13 14 14 14 15 16 16 16 16 17 17 17 17
17 17 19 17 19 19 19 19 20 19 19 20 21 20 21 20
21 21 21 23 20 21 22 22 22 22 22 21 20 21 22 23
25 24 24 24 23 23 22 22 22 22 22 21 21 20 20 19
19 19 18 18 17 17 16 16 16 16 16 16 15 15 14 14
13 13 13 12 12 12 11 11 10 10 11 10 10 10 11 14
14 15 14 8 3 8 16 14 13 12 12 11 11 10 9 9
9 8 7 2 9 7 10 11 12 12 12 13 14 14 14 14
14 14 15 15 16 15 15 16 17 17 17 17 17 17 18 18
18 18 20 19 20 19 20 20 20 20 20 21 21 21 21 21
21 21 22 24 21 22 21 20 20 21 21 22 23 22 23 22
25 24 24 24 24 24 23 23 22 22 21 21 21 20 20 19
19 19 18 18 18 18 17 16 16 16 16 15 15 15 14 14
13 14 13 13 13 12 12 12 11 11 11 11 11 11 11 14
15 15 15 9 5 7 17 14 13 12 12 12 11 10 9 9
10 9 8 4 9 9 11 12 13 13 14 14 14 14 14 14
15 15 16 15 16 16 16 16 17 17 17 17 18 18 18 18
18 18 20 19 19 20 21 21 21 21 21 21 21 21 22 21
22 21 21 20 20 21 22 22 23 22 22 22 23 23 23 23
25 25 25 24 24 24 23 22 23 22 21 22 21 21 20 20
20 19 19 18 18 18 18 17 17 17 16 16 16 15 15 15
15 14 14 14 13 13 13 12 12 11 12 11 11 12 13 16
16 16 16 10 5 6 17 15 13 13 13 13 12 12 11 11
11 11 9 5 10 10 12 13 13 13 13 14 14 15 16 15
16 16 17 17 17 17 17 17 18 17 17 18 18 18 19 19
19 19 20 20 20 21 21 21 22 21 20 21 22 21 22 20
20 20 21 22 22 23 22 22 23 22 23 22 23 23 23 23
26 24 25 24 25 24 24 23 23 23 22 22 21 21 20 20
20 20 19 19 19 19 18 18 17 17 17 16 16 15 15 15
15 14 14 14 14 13 13 13 13 12 12 12 12 12 14 16
16 16 17 11 7 6 17 15 14 14 14 14 13 13 13 11
11 10 10 5 11 10 13 14 14 15 15 16 16 16 16 17
17 17 17 17 17 18 18 18 18 18 18 18 18 19 19 19
19 20 21 20 21 21 21 21 22 22 20 20 21 21 21 22
23 22 22 22 22 23 23 22 23 23 23 24 24 23 24 23
26 26 25 25 24 24 23 23 23 22 22 22 22 22 22 20
21 20 20 19 19 18 18 18 17 17 16 16 16 16 16 16
15 15 14 14 14 14 14 13 13 12 13 12 12 13 14 17
17 18 17 12 8 6 17 16 14 14 15 14 14 13 14 12
13 12 11 8 12 11 14 15 15 15 15 16 17 17 17 17
18 18 18 18 18 19 18 18 19 18 19 19 19 19 20 20
20 20 22 21 21 21 22 21 20 20 22 22 22 22 22 23
23 23 22 23 23 23 23 23 23 23 23 24 24 23 23 24
25 25 25 25 24 24 24 23 23 22 23 22 22 21 21 21
20 20 20 19 19 19 19 18 18 18 17 17 17 16 16 16
16 15 15 15 15 14 14 14 14 13 13 13 13 14 15 18
17 17 17 12 9 6 17 16 15 14 15 15 14 14 14 12
13 13 11 9 13 13 15 16 16 16 16 17 18 17 18 18
18 17 18 18 18 18 18 18 19 19 19 20 20 20 20 20
21 21 22 20 19 19 20 21 22 22 22 24 23 22 22 22
23 23 23 22 23 23 24 23 23 24 23 24 23 23 24 23
26 26 25 24 24 24 23 23 23 23 22 22 22 22 22 22
21 21 20 20 20 19 19 18 18 18 17 17 17 17 17 16
16 16 16 15 15 15 14 14 14 13 13 13 13 14 15 18
18 19 18 13 10 5 14 17 15 15 15 15 15 15 15 13
13 14 13 9 14 14 16 16 16 16 17 17 18 18 18 18
18 18 19 18 19 19 19 19 19 19 20 20 20 20 20 20
19 19 20 20 22 22 22 22 23 23 23 23 23 23 23 23
23 24 24 24 24 23 24 23 24 23 23 24 23 23 24 23
26 25 25 25 24 24 23 23 23 23 23 23 22 22 22 21
21 20 20 20 19 19 19 19 19 18 18 18 17 17 17 17
16 16 15 15 16 15 15 14 14 14 14 14 14 15 15 19
19 19 19 13 9 1 14 18 17 17 17 16 15 16 16 13
14 14 14 10 15 15 17 17 17 18 18 19 18 19 19 19
19 19 19 19 19 19 19 20 20 20 20 20 20 20 19 20
21 21 21 21 21 22 22 22 22 23 23 24 23 23 24 23
24 23 24 23 24 24 24 24 23 24 24 24 24 24 24 23
26 25 25 25 25 24 24 23 23 23 22 23 22 22 22 22
21 21 21 20 20 20 19 19 18 18 18 18 18 18 18 17
17 16 16 16 15 15 15 14 15 14 14 14 14 15 16 19
20 20 20 14 10 8 16 18 17 17 17 16 16 16 17 14
15 15 15 11 16 16 18 18 18 18 18 18 19 19 19 20
19 20 20 20 20 20 20 20 20 20 20 20 20 20 21 21
22 23 22 22 23 23 23 23 23 23 23 24 23 23 24 23
24 24 24 24 24 24 24 24 24 24 24 24 24 23 24 23
25 25 24 24 25 24 24 24 24 23 23 22 22 22 22 22
21 21 21 21 20 19 19 19 19 19 19 19 18 17 17 17
17 16 16 16 16 16 15 15 15 14 14 14 14 15 16 20
19 20 19 14 11 11 14 19 18 17 17 17 17 17 17 15
15 16 15 12 17 16 18 18 18 18 19 19 19 19 19 19
19 19 20 19 20 19 19 20 21 20 21 21 22 21 22 22
21 21 22 22 22 22 22 23 22 23 23 24 24 24 24 24
24 24 24 24 24 23 23 23 24 24 24 24 24 24 24 25
26 25 25 25 24 24 24 24 23 23 23 22 22 22 22 21
22 21 21 21 20 20 19 20 19 19 19 18 18 17 18 18
17 17 16 16 16 16 15 15 15 14 14 14 15 16 17 20
20 21 20 14 12 14 13 19 18 18 17 17 16 16 17 16
15 16 16 12 17 17 19 19 18 19 19 19 19 20 19 19
19 19 19 19 20 20 20 21 21 21 21 21 21 21 21 22
22 22 23 22 23 23 23 24 24 23 23 24 24 23 23 24
24 24 24 24 24 23 24 24 24 24 25 24 24 24 24 24
26 25 25 25 24 24 25 25 24 24 23 23 23 23 22 22
21 21 21 21 20 21 20 19 20 19 19 19 18 18 18 17
17 17 17 16 16 16 16 16 15 15 16 16 16 17 17 21
20 20 20 14 11 15 12 20 19 18 18 18 17 17 18 15
17 16 16 12 18 17 19 20 19 19 19 20 20 20 19 20
19 20 20 21 21 21 21 20 21 21 22 22 22 22 22 22
22 23 22 22 22 22 23 23 23 24 24 25 25 25 25 24
24 24 24 25 24 24 24 24 24 25 24 24 24 23 23 24
26 26 25 25 25 24 25 25 24 23 23 23 23 23 23 22
22 22 22 21 21 21 21 20 20 20 19 19 19 19 18 18
18 18 17 17 17 17 17 16 16 16 16 15 16 16 17 21
21 22 21 16 13 17 11 20 19 18 17 18 18 18 20 16
20 19 21 19 21 21 22 22 21 20 19 20 19 20 20 20
20 21 21 21 21 22 21 21 22 22 22 21 22 22 22 22
23 23 23 23 23 24 24 24 24 24 24 25 24 23 24 24
24 24 25 24 25 24 25 24 24 24 24 25 25 24 24 24
25 25 25 25 25 24 25 24 24 24 24 24 23 23 23 22
22 22 21 22 21 21 21 21 21 20 20 20 20 19 19 19
18 17 18 17 17 16 17 17 17 16 17 16 16 17 18 21
22 22 21 16 12 17 12 19 20 19 19 19 18 18 17 16
12 13 11 10 14 19 20 21 23 23 22 23 23 19 20 18
19 20 21 21 20 20 22 22 22 22 23 22 23 23 23 23
23 24 23 23 24 24 24 24 24 24 24 25 25 25 25 25
25 25 25 23 23 23 24 25 24 24 25 25 25 24 24 24
26 26 25 25 25 24 25 24 24 24 24 22 23 23 23 22
23 23 22 22 21 21 21 21 20 20 20 19 19 19 19 19
19 18 18 18 18 17 17 17 17 17 17 16 16 17 18 21
22 22 22 17 12 18 12 20 20 20 19 19 15 9 8 3
1 5 2 0 4 11 11 10 9 8 14 19 24 27 23 16
8 7 10 16 17 20 22 22 22 22 23 23 23 22 22 23
24 24 24 24 24 25 25 25 25 25 25 25 25 24 24 23
23 24 24 25 24 24 25 24 24 25 25 24 24 25 25 24
25 25 25 25 25 25 25 24 25 24 24 24 24 23 23 23
22 22 22 21 21 21 20 21 20 21 21 20 20 20 19 19
19 18 18 18 18 18 17 17 17 17 17 16 17 18 18 22
23 22 22 17 12 18 13 20 20 19 20 14 6 2 2 0
0 0 0 0 0 2 1 1 2 7 9 13 16 21 28 27
19 10 2 3 6 12 20 22 22 22 23 23 23 23 24 23
23 23 24 24 24 24 25 25 25 24 23 23 23 24 24 25
25 25 25 26 26 24 24 25 24 24 24 24 24 25 25 25
26 25 25 26 25 25 25 24 24 24 24 24 23 23 24 24
24 24 24 23 22 22 21 21 21 21 20 20 20 20 20 20
19 19 19 19 18 18 18 17 18 18 17 16 18 18 19 23
23 23 23 18 13 20 15 21 22 18 8 2 2 0 0 0
0 0 0 0 0 0 0 0 2 8 4 3 3 5 12 21
24 21 8 1 1 4 7 15 21 22 22 24 24 23 24 24
24 24 25 25 25 25 24 24 24 24 25 26 25 25 25 25
25 25 25 26 26 25 25 25 25 26 25 25 25 24 25 25
25 25 26 25 25 25 25 25 24 24 24 24 24 23 24 23
23 23 22 22 22 22 22 21 21 21 21 21 21 20 20 20
19 20 19 20 18 18 18 18 18 17 18 18 18 19 20 23
23 23 23 18 13 20 18 19 12 6 2 0 0 0 1 0
0 0 0 0 0 0 0 0 2 1 0 0 0 8 8 7
7 14 15 12 6 1 2 6 14 16 20 23 25 25 25 26
25 24 24 25 24 25 25 26 25 25 26 25 26 26 25 25
25 26 26 26 27 25 25 25 25 25 25 24 25 25 25 24
26 26 26 26 26 25 25 25 25 25 25 25 24 24 24 23
23 23 22 22 22 22 22 21 21 21 21 21 21 20 20 20
20 19 20 20 19 19 18 18 19 18 18 18 18 19 20 23
24 23 24 20 14 20 16 10 2 4 1 1 0 1 1 2
1 0 0 0 0 0 0 0 2 0 0 1 12 13 6 1
0 0 5 7 7 5 4 1 3 8 13 18 22 26 24 24
25 24 25 25 26 26 26 26 26 26 26 26 26 26 26 26
25 25 25 25 26 25 25 25 24 24 25 24 25 25 25 24
26 25 26 26 25 25 25 25 25 25 25 25 24 25 25 24
23 23 23 22 22 22 22 21 21 21 21 21 21 21 20 20
21 19 20 20 19 19 18 18 18 18 18 18 19 19 20 24
24 24 24 20 17 18 11 1 6 5 2 9 6 9 6 4
2 1 1 0 0 1 0 0 6 1 0 4 12 11 9 3
3 7 10 5 3 2 2 0 0 0 2 11 14 22 24 24
25 25 25 27 26 26 26 26 26 26 26 26 26 26 26 27
27 26 26 26 26 25 25 25 25 25 25 25 24 24 25 25
26 26 26 25 26 25 25 25 25 25 25 24 25 25 24 24
23 23 23 23 23 22 22 23 22 22 21 22 21 21 21 20
21 20 20 20 20 20 19 19 19 18 18 18 19 20 20 24
25 24 25 22 17 16 9 8 15 7 10 13 16 15 10 8
6 2 7 3 2 6 1 5 9 7 10 8 6 4 3 2
10 14 9 9 10 3 0 1 5 4 5 2 6 14 21 24
25 25 25 26 25 25 26 26 26 26 26 26 26 26 26 26
25 26 26 25 27 26 25 25 26 25 25 25 25 25 25 25
26 26 26 26 25 25 25 25 25 25 24 24 24 24 24 24
24 23 24 23 23 22 22 22 22 22 22 22 22 21 21 20
20 20 20 19 19 19 19 19 18 18 19 19 20 20 21 24
25 25 24 22 19 16 12 15 19 17 17 16 19 20 16 11
3 2 9 3 11 9 7 5 12 17 16 13 5 11 6 12
13 14 12 2 0 1 2 4 6 5 6 5 5 13 16 24
25 26 26 27 26 26 26 26 26 26 26 26 26 26 25 26
25 26 25 25 26 26 26 25 25 25 25 25 24 25 25 25
26 26 25 26 26 26 26 25 26 25 24 24 24 24 24 23
24 23 23 23 23 23 22 22 22 22 22 22 22 21 21 21
21 20 20 21 20 20 20 20 19 19 19 20 20 20 21 24
25 24 24 22 18 18 15 23 16 15 11 14 15 15 10 4
0 6 9 6 15 13 11 9 16 18 20 15 19 10 14 11
3 4 15 7 4 3 5 1 1 1 0 2 3 4 11 24
25 25 26 26 27 26 27 26 26 27 27 27 27 26 26 25
26 26 25 25 25 26 25 25 25 26 25 25 25 25 25 24
26 26 26 26 25 25 25 25 25 24 25 25 25 24 24 24
24 24 23 23 23 23 23 22 22 22 22 21 22 21 21 21
21 21 21 20 20 20 20 20 19 19 19 19 20 20 21 25
26 24 25 24 23 23 18 17 13 3 0 0 7 15 16 13
13 12 10 11 16 12 11 9 12 15 18 22 19 18 15 11
7 6 13 15 10 3 0 1 1 0 0 0 1 1 3 20
26 26 27 27 26 26 26 27 27 26 26 26 26 26 26 26
26 26 26 25 26 27 26 26 26 26 25 25 24 24 23 24
26 26 26 26 25 25 26 25 25 25 25 24 24 24 24 24
23 24 24 23 24 23 23 23 23 23 22 22 21 22 21 21
21 20 21 21 21 21 20 20 20 20 20 20 20 20 21 24
26 24 25 26 25 21 21 18 7 2 0 0 1 10 16 16
9 8 11 11 12 10 12 11 10 9 18 17 15 18 16 18
16 15 8 6 9 7 5 6 3 0 0 0 0 0 1 16
24 26 26 27 27 26 26 27 26 26 27 26 26 26 26 26
26 26 26 26 26 25 24 23 24 24 24 25 25 25 26 24
27 26 26 26 26 25 25 24 25 25 25 25 25 25 24 24
24 24 24 24 24 23 23 23 23 22 23 22 22 22 22 22
22 22 21 21 21 21 21 20 20 19 20 20 21 21 21 25
25 22 22 22 22 19 18 13 4 1 0 0 0 5 15 13
12 11 12 13 12 14 14 13 10 10 11 13 15 20 18 19
19 11 7 5 5 5 4 2 0 1 2 2 0 4 2 7
24 27 26 27 27 27 27 27 28 27 26 27 26 26 26 26
27 26 25 25 25 25 25 26 26 25 25 23 25 25 26 24
23 26 26 26 26 26 26 25 25 26 25 25 25 25 25 25
25 24 24 24 24 23 24 24 23 23 23 22 23 22 22 22
22 22 22 21 21 21 21 21 20 21 20 21 21 21 22 25
22 15 14 18 15 14 14 7 4 3 4 1 5 9 9 10
7 8 7 10 14 23 17 12 16 17 17 13 14 15 15 19
15 12 7 5 3 0 0 0 0 1 2 1 2 4 8 6
18 27 27 28 27 27 27 27 27 27 27 27 27 26 24 24
25 25 27 27 26 26 26 26 25 25 25 25 25 25 26 24
5 11 26 26 26 26 26 25 26 26 26 26 26 26 26 25
25 25 25 25 24 24 23 23 23 22 23 23 23 22 22 22
22 22 22 22 21 21 21 21 20 20 20 20 21 22 22 24
12 5 11 22 14 14 8 6 7 8 5 2 10 6 6 7
11 13 15 15 15 21 29 24 22 20 18 20 13 9 10 16
19 14 11 8 6 5 7 7 7 7 3 2 6 7 17 13
18 27 27 27 27 27 27 27 27 27 26 26 26 26 26 27
27 26 27 26 26 26 26 25 26 25 25 25 25 25 25 24
3 11 26 26 26 26 26 26 26 25 26 26 26 25 26 25
26 24 24 24 23 24 24 24 24 24 23 23 23 22 23 23
22 22 22 22 21 22 22 21 21 21 21 21 21 22 22 20
4 2 6 15 15 2 6 6 6 7 1 6 6 3 6 8
8 13 19 15 12 14 21 33 27 25 17 17 18 13 10 13
14 9 8 5 1 2 3 6 9 4 5 11 15 13 22 20
19 26 26 26 26 26 26 26 26 27 26 26 27 26 26 26
27 27 27 26 26 25 25 25 26 25 25 25 25 25 25 24
6 10 26 26 26 26 26 25 24 24 25 26 26 25 26 24
25 25 24 25 24 24 24 23 24 23 23 23 26 27 25 23
23 23 23 22 22 22 21 21 21 21 21 21 21 22 22 15
1 0 3 14 6 0 6 3 5 3 2 5 0 10 13 12
17 13 12 13 9 6 9 12 25 23 24 22 17 10 10 10
12 13 7 8 6 4 2 4 4 9 18 22 20 20 26 22
22 27 26 27 26 26 26 26 26 26 26 26 27 26 26 26
27 26 26 27 26 26 26 25 25 25 25 25 25 24 25 25
6 10 26 26 27 26 26 26 26 34 33 31 30 27 26 25
24 24 25 25 24 24 24 24 24 24 24 24 34 36 33 29
27 26 23 21 22 22 22 21 22 21 22 21 22 22 22 8
0 0 0 4 1 0 0 0 1 0 0 0 2 7 12 14
15 14 14 15 18 17 19 26 23 26 27 21 17 15 15 11
11 13 16 13 12 10 8 5 11 14 22 21 18 21 27 28
27 27 26 26 27 26 26 26 26 26 26 26 28 27 27 27
27 26 26 26 26 26 25 25 24 25 25 25 26 25 25 25
7 12 26 27 27 27 26 26 27 36 35 34 34 31 30 29
27 26 25 25 25 25 24 23 24 24 24 24 34 35 32 30
31 32 29 24 22 22 22 21 22 21 21 21 22 23 22 8
0 0 0 4 2 0 0 0 0 0 0 0 0 0 4 7
14 17 20 20 26 25 24 24 25 23 21 19 16 14 16 15
16 15 14 14 13 9 7 11 16 19 17 17 15 21 23 31
28 26 27 27 27 26 26 27 27 27 26 26 27 27 26 27
26 26 26 26 26 26 26 26 25 26 26 26 25 25 25 25
7 14 30 29 28 28 27 26 28 38 35 35 32 31 32 33
35 30 30 28 27 25 24 24 25 25 25 25 33 33 32 30
31 31 30 25 23 22 22 22 22 22 22 22 22 23 22 11
1 0 1 5 3 1 0 0 0 0 0 0 0 1 7 10
15 20 23 24 25 27 27 26 25 28 28 22 20 19 13 20
21 19 22 15 10 8 5 9 17 16 13 14 16 21 19 28
28 27 27 27 27 27 26 27 27 27 27 27 28 28 27 27
27 26 27 26 27 26 26 25 25 25 25 26 26 26 25 26
8 16 32 31 30 30 29 28 27 33 30 34 33 34 36 36
38 31 30 32 34 31 29 27 27 26 25 24 25 13 17 20
27 30 32 27 23 23 23 23 23 23 23 22 22 23 20 15
3 0 4 5 11 3 4 0 0 0 0 0 1 3 8 12
15 17 22 26 29 29 30 25 24 22 30 26 24 23 19 15
20 22 23 20 19 10 4 4 8 6 7 11 15 17 18 27
27 27 28 28 27 28 28 28 28 27 27 27 27 28 27 27
26 26 26 26 26 27 27 26 27 26 26 26 27 27 26 26
8 16 33 31 25 27 32 33 35 20 0 5 18 28 32 34
36 30 3 7 14 20 28 28 30 34 31 27 25 9 6 7
4 5 10 27 24 24 23 23 23 23 23 23 24 24 16 9
4 0 6 12 12 11 8 1 0 0 1 3 4 10 11 13
17 18 21 23 24 22 25 27 31 34 27 29 30 24 19 24
26 21 20 15 9 15 6 3 2 7 19 17 22 23 26 28
28 28 28 28 28 28 28 27 27 27 28 27 28 29 28 27
27 26 26 27 27 27 26 26 26 26 26 27 27 27 26 26
8 16 32 33 29 26 25 35 38 22 0 0 2 9 10 10
17 30 0 0 0 0 0 4 10 17 23 28 25 7 0 5
6 1 1 27 24 24 24 24 24 24 23 23 23 23 8 5
8 9 9 10 12 12 14 7 0 0 0 3 4 11 16 20
18 19 20 18 20 21 20 24 30 43 42 48 45 39 34 28
29 23 15 9 7 6 11 8 4 12 28 31 44 39 27 27
28 28 29 28 28 28 28 28 28 28 28 27 28 28 28 27
27 27 27 27 27 27 27 27 27 27 27 27 27 27 25 24
9 7 8 16 23 31 34 37 38 23 0 0 1 4 7 8
12 31 0 0 0 0 0 0 0 0 0 20 24 4 0 0
2 1 0 28 24 24 25 24 24 24 24 23 24 22 5 1
5 5 5 7 11 13 12 8 4 1 4 7 9 14 19 21
20 18 22 22 22 19 23 30 50 61 64 80 90 85 85 73
63 50 23 15 21 16 17 10 9 31 60 64 58 43 28 28
29 28 29 29 29 28 28 27 28 28 28 28 28 28 28 27
27 27 27 27 27 27 27 27 28 27 27 26 26 27 27 27
9 5 0 0 0 1 6 15 23 22 0 0 0 0 1 2
9 31 2 0 0 0 0 0 0 0 0 19 23 1 0 0
0 0 0 30 25 25 25 24 24 24 24 24 23 20 1 0
1 2 2 4 5 8 9 9 7 8 8 5 3 5 12 18
17 17 19 22 25 29 33 50 59 58 64 88 97 105 111 111
106 94 84 81 84 78 70 64 72 82 88 79 63 47 28 28
28 28 28 28 28 28 28 28 28 28 27 27 28 28 27 27
27 27 27 27 27 28 27 27 28 28 27 27 26 25 26 25
8 5 0 0 0 0 0 0 0 15 0 0 0 0 0 0
5 27 0 0 0 0 0 0 0 0 0 19 20 0 0 0
0 0 1 30 24 24 24 24 24 24 24 24 24 21 2 0
3 2 3 4 5 3 3 5 7 4 2 0 1 9 13 16
15 17 21 25 28 33 41 48 59 48 59 86 98 112 113 113
113 114 113 111 103 99 100 100 97 92 96 86 68 54 30 28
28 28 28 28 28 28 28 27 27 28 27 28 27 27 26 28
28 28 28 27 28 27 27 27 27 27 26 26 26 25 25 26
9 5 0 0 0 0 0 0 0 11 0 0 0 0 0 0
9 30 1 0 0 0 3 5 0 0 0 16 20 0 0 0
0 0 0 31 25 25 24 25 24 24 24 24 24 23 5 0
1 0 0 2 4 3 3 1 0 0 0 0 0 3 8 17
25 27 25 28 29 40 33 40 48 31 64 88 112 113 113 113
112 113 113 113 107 103 101 99 97 96 97 90 76 59 32 28
28 28 28 28 27 28 28 28 27 27 26 27 27 28 28 28
28 27 27 26 27 27 27 27 27 28 27 26 26 26 26 26
8 5 0 0 0 0 0 0 0 10 0 0 0 0 0 0
8 33 1 0 0 0 4 8 5 3 0 15 21 0 0 0
0 0 0 28 25 25 24 23 24 24 24 24 24 23 6 0
0 0 0 0 0 0 0 1 2 4 2 1 0 0 8 22
32 32 32 32 24 29 21 31 27 47 90 111 113 113 114 113
112 112 112 111 105 100 97 94 92 92 96 95 85 68 35 29
28 28 29 29 27 27 28 27 27 28 28 27 28 28 28 27
27 26 27 26 25 26 28 27 27 26 26 27 27 27 27 27
8 4 0 0 0 5 4 0 0 8 0 0 0 0 0 0
6 34 2 0 0 0 6 9 8 7 1 13 21 0 0 0
0 0 0 28 25 25 25 25 24 25 24 24 25 23 8 0
0 0 0 0 0 0 1 4 5 6 8 2 0 2 9 20
23 29 30 25 18 19 17 22 35 79 110 114 114 113 113 112
111 110 112 108 99 97 94 93 92 95 97 99 86 78 37 27
28 28 28 28 28 28 28 28 28 28 28 27 28 28 27 27
27 27 27 26 26 26 27 28 28 28 28 27 27 26 25 24
8 4 0 5 1 0 0 0 0 7 0 0 0 0 0 0
6 35 3 0 0 0 4 8 7 8 1 11 24 0 0 0
0 0 0 26 26 25 25 25 24 25 24 24 25 22 5 1
0 0 0 0 0 0 0 2 8 11 7 6 19 16 8 12
20 24 24 26 19 11 11 17 62 99 111 113 113 114 113 112
111 111 110 107 94 83 74 66 68 78 83 96 88 87 41 27
28 28 28 28 29 28 28 28 28 28 27 27 27 28 28 27
27 27 27 27 27 27 28 27 26 26 25 27 27 24 24 24
9 5 1 2 0 0 0 0 0 9 0 0 0 0 0 2
12 36 4 0 0 0 0 2 6 7 1 10 31 22 15 8
4 1 1 25 27 25 25 25 24 25 25 25 25 21 3 0
0 0 0 0 0 0 2 11 17 15 38 90 104 101 64 15
10 11 6 7 8 3 8 36 84 99 113 114 113 113 113 113
112 112 111 103 77 57 48 37 32 14 23 37 45 69 39 27
28 28 28 28 29 28 28 28 29 28 28 28 28 27 27 27
27 27 26 24 24 27 28 25 25 25 22 21 18 14 11 8
9 5 0 0 0 0 0 0 0 16 8 3 1 1 0 0
9 40 28 21 14 9 3 0 0 4 0 9 33 35 32 33
33 34 34 37 26 25 25 25 25 24 25 25 25 22 2 0
0 0 0 1 2 7 8 13 16 30 91 87 84 84 102 85
63 65 51 29 19 27 43 63 65 72 86 96 101 103 107 109
109 110 110 104 94 87 72 55 19 18 19 18 22 17 28 25
29 29 29 29 29 29 29 28 28 27 27 27 26 25 24 23
26 26 24 25 23 21 18 15 12 10 8 7 7 8 9 10
8 5 0 0 0 0 0 0 0 25 39 31 27 26 22 14
13 43 22 18 22 25 27 26 21 18 15 20 37 34 33 33
34 39 40 40 27 25 25 25 25 25 25 25 25 22 1 0
2 1 0 0 3 11 12 17 16 67 91 106 113 99 71 107
110 93 61 56 66 51 65 71 71 90 94 86 77 77 81 80
97 102 101 104 99 101 100 75 40 33 19 13 14 16 20 16
10 22 29 29 30 28 27 25 25 25 26 27 26 26 24 22
19 16 13 11 10 10 10 10 11 12 12 13 14 14 15 15
8 5 0 0 0 0 0 0 0 26 42 29 35 37 41 41
39 42 15 7 9 9 9 10 11 14 19 25 26 22 27 29
32 37 38 39 28 25 25 25 25 25 24 25 25 21 2 0
0 2 0 0 1 7 9 14 21 88 102 115 114 112 88 94
114 111 98 86 64 50 69 73 77 106 112 113 112 106 94 75
67 64 70 77 78 77 96 79 18 23 26 39 20 15 15 15
19 15 17 28 28 28 27 28 28 22 20 17 14 12 10 10
11 11 13 13 14 14 15 15 16 17 17 17 14 12 18 19
9 11 13 8 3 0 0 0 0 28 35 30 37 39 43 43
35 28 14 8 8 8 8 7 6 6 5 5 4 6 9 12
22 25 22 22 24 26 26 25 25 25 25 25 25 21 2 0
0 0 2 0 0 3 9 10 36 98 109 112 115 113 108 97
113 114 111 95 67 74 78 87 100 111 113 113 113 113 113 109
92 66 48 51 49 37 27 42 21 38 69 68 28 23 28 24
20 18 9 23 21 17 15 18 29 15 10 12 13 14 14 15
16 16 17 18 18 19 19 19 20 20 21 21 21 17 13 21
10 16 34 38 36 30 24 17 13 32 26 31 37 39 42 44
38 32 19 10 10 8 7 5 5 4 5 5 5 6 6 7
21 24 24 24 24 25 25 26 25 25 25 25 25 20 1 0
0 0 3 6 0 2 10 11 49 99 108 109 114 114 97 79
111 112 113 108 101 100 101 103 110 113 113 113 113 113 112 111
105 94 59 33 28 25 10 30 10 44 74 52 33 47 17 22
21 16 11 13 14 15 15 14 25 14 14 16 17 19 19 20
21 21 22 22 22 22 22 23 23 23 22 23 23 23 19 13
9 15 35 38 38 36 36 37 39 40 14 17 27 32 37 40
37 33 22 11 8 7 4 5 5 5 6 6 7 8 8 9
23 9 5 25 25 26 25 23 25 25 25 24 26 23 2 0
0 0 0 8 5 5 9 14 62 103 103 107 110 102 78 84
104 110 112 108 103 102 104 106 111 114 114 113 113 114 113 112
105 99 92 82 61 44 20 17 27 52 66 33 33 19 14 22
18 13 11 18 19 19 20 18 25 17 17 21 23 22 23 23
24 24 24 24 24 23 23 22 23 24 22 23 24 24 24 18
7 13 34 39 39 37 38 39 40 38 4 0 0 1 5 11
14 24 25 10 8 4 0 0 0 2 8 9 7 6 11 12
24 29 26 32 33 31 27 3 13 26 25 25 26 25 5 0
0 0 0 0 8 10 14 15 63 104 100 108 102 114 104 96
108 113 112 109 100 100 105 107 111 113 113 113 113 113 113 112
108 105 102 96 77 64 20 33 36 63 56 15 41 42 3 3
9 13 14 22 23 24 23 21 26 19 20 23 24 24 24 25
26 25 26 25 26 26 26 25 23 24 24 22 24 24 24 24
14 16 27 30 30 32 34 36 39 35 2 0 0 0 0 0
7 24 25 7 6 4 0 0 0 0 2 3 0 0 3 3
20 32 26 24 26 29 30 27 25 26 25 26 26 22 6 0
0 0 0 0 0 5 13 13 52 104 98 104 104 113 99 75
111 114 113 110 99 100 103 109 110 112 113 113 113 113 113 113
111 107 103 92 77 59 21 42 46 69 47 33 74 72 15 14
14 15 15 25 26 26 25 19 10 7 21 25 26 26 26 27
25 26 26 26 26 25 25 25 25 23 24 22 23 25 24 24
14 16 16 18 22 25 24 25 33 32 1 0 0 0 0 0
0 25 26 8 6 3 0 0 1 0 0 0 0 0 0 0
18 34 25 20 18 18 22 24 27 26 26 26 26 20 5 0
0 0 0 0 0 0 9 13 33 93 97 103 101 106 97 84
111 115 114 110 101 104 106 108 110 111 113 113 113 113 113 113
112 110 106 91 76 51 33 46 57 71 54 57 99 95 34 16
13 19 27 27 26 27 26 15 1 1 17 25 27 28 27 26
26 27 26 26 27 26 26 25 26 24 23 23 22 23 23 23
12 15 13 13 15 24 22 23 34 33 1 0 0 0 0 0
0 22 21 3 1 0 0 0 4 4 0 0 0 0 0 0
17 34 26 12 23 26 21 23 26 26 26 26 27 26 14 0
0 0 0 0 0 0 7 15 20 70 105 102 102 104 108 93
105 114 113 109 101 102 108 106 107 110 111 113 113 113 113 113
113 111 108 92 79 54 44 55 67 80 54 86 109 101 60 18
14 25 28 25 20 14 23 12 7 1 15 26 27 28 27 28
27 27 26 26 26 26 26 25 24 25 23 22 21 22 22 22
9 14 14 20 23 26 25 29 34 31 1 0 0 0 0 0
0 26 18 0 0 0 0 0 0 6 5 0 0 0 0 0
17 34 28 8 21 20 18 22 25 26 26 26 26 27 20 2
0 0 0 0 0 0 10 12 22 47 102 103 113 113 101 76
92 114 114 109 99 102 105 105 105 110 111 113 113 113 113 113
113 113 111 94 83 70 48 62 72 63 70 108 107 103 84 21
19 28 17 0 0 1 19 12 1 0 14 26 27 27 28 27
27 27 26 26 26 26 26 25 24 23 23 23 20 18 20 19
13 12 0 1 4 8 12 18 22 27 1 0 0 0 0 0
0 26 19 0 0 0 0 0 0 8 11 6 3 0 0 0
15 35 29 9 13 14 12 22 25 26 26 27 27 27 24 9
0 0 0 1 1 0 5 10 22 50 80 112 113 115 114 104
104 112 112 106 101 98 99 102 105 103 109 112 113 113 113 114
114 113 110 97 78 77 42 57 60 53 94 110 111 107 96 42
27 29 23 16 21 25 26 17 0 0 13 25 27 28 28 27
27 26 26 25 26 26 25 24 24 23 22 22 22 19 16 15
18 15 0 0 0 0 0 0 0 13 1 0 0 0 0 0
0 27 15 0 0 0 0 0 10 10 11 9 5 0 0 0
16 35 30 19 19 17 15 21 24 26 27 26 26 26 25 16
2 0 0 2 4 3 7 13 16 35 64 92 110 113 112 112
110 108 110 101 103 99 93 100 101 105 109 111 112 114 113 113
113 112 109 105 84 69 64 47 60 74 95 95 103 108 102 72
31 30 29 29 28 27 26 19 0 0 14 26 27 27 28 26
27 26 26 27 25 25 24 23 23 23 21 21 21 19 17 15
16 14 0 0 0 0 0 0 0 11 1 0 0 3 0 0
0 25 13 0 0 0 0 1 13 14 12 3 2 0 0 0
14 34 31 21 15 1 2 17 24 26 27 27 26 27 25 20
8 0 0 1 6 7 5 12 14 13 58 69 89 106 111 112
110 107 106 98 97 96 101 99 99 105 108 110 110 112 113 113
112 110 108 106 103 97 90 88 81 87 99 100 98 99 99 90
47 29 29 29 27 26 26 22 3 0 17 25 27 28 28 27
26 26 26 26 25 24 23 23 23 21 20 20 20 20 17 14
16 16 0 0 0 0 0 0 0 10 1 0 1 11 6 0
0 26 12 0 0 0 0 0 0 8 8 0 0 0 0 0
11 35 33 21 11 5 3 15 23 26 26 26 26 26 23 22
15 0 0 0 6 3 4 11 18 29 62 70 76 95 111 112
107 106 102 95 96 94 98 102 97 104 106 106 111 113 113 113
113 107 106 108 105 102 99 90 80 91 105 108 111 110 108 100
65 29 28 28 28 27 25 22 11 6 21 26 27 27 28 27
27 26 25 25 24 24 23 22 22 21 20 20 20 19 16 12
13 13 0 0 0 9 1 0 0 10 2 0 5 11 8 2
0 25 10 0 0 0 0 0 0 6 8 0 0 0 0 0
8 34 32 9 6 0 0 13 22 26 26 27 27 27 22 26
20 0 0 0 3 1 9 20 21 45 69 74 79 79 91 91
95 105 100 94 91 91 95 96 99 102 106 109 111 112 114 113
111 111 110 107 105 103 98 86 76 87 103 108 97 92 93 86
57 29 29 29 28 27 25 21 20 20 24 27 28 27 28 26
27 26 25 25 24 23 23 23 21 20 20 19 18 17 15 12
13 14 0 0 5 16 4 2 0 12 17 10 17 15 14 10
2 27 10 0 0 0 0 0 0 5 11 0 0 0 0 0
5 35 31 6 9 1 1 19 21 27 26 27 27 26 22 27
28 2 1 0 0 3 9 14 28 58 74 88 93 90 83 72
96 100 93 90 93 96 98 98 101 105 106 109 113 113 113 111
110 112 111 109 105 104 96 84 80 73 82 78 58 56 66 55
34 29 29 29 29 27 26 23 23 24 27 28 28 28 28 27
27 26 25 25 24 24 23 22 21 20 20 18 18 16 15 11
11 13 0 0 1 5 1 0 0 12 34 32 37 36 35 37
38 41 12 0 0 0 0 0 0 6 12 0 0 1 0 0
2 33 29 5 3 0 2 20 22 27 28 28 29 28 24 30
32 11 3 0 0 3 16 17 41 68 73 91 107 114 106 91
97 98 94 91 87 95 95 95 98 105 107 108 113 114 114 112
114 113 113 111 107 103 94 84 88 82 78 98 81 46 36 31
31 31 30 29 29 28 27 25 25 27 30 29 29 28 29 28
28 27 27 26 25 24 23 20 21 20 19 18 17 17 17 13
13 15 3 1 0 0 0 0 0 11 34 33 36 36 36 40
44 44 25 13 15 10 5 3 3 8 15 2 2 0 0 0
2 23 29 4 2 2 3 9 21 28 28 28 28 25 25 29
33 22 4 0 0 8 20 15 50 72 73 89 106 114 108 98
98 95 88 90 88 95 96 100 102 106 107 108 112 113 113 112
114 113 112 110 106 101 95 90 91 89 88 91 69 35 31 31
31 31 30 29 29 29 29 28 27 29 30 30 29 28 28 28
27 26 26 25 24 23 23 21 21 20 19 18 16 16 15 12
15 16 14 3 0 0 0 0 0 11 33 32 36 35 35 43
46 46 34 29 29 28 28 26 27 25 23 20 18 17 16 15
18 27 33 14 13 13 9 5 17 28 29 29 29 25 28 31
33 28 4 0 0 6 11 21 59 73 73 88 104 113 112 104
99 91 90 87 90 92 97 100 100 104 105 105 109 111 114 113
113 114 113 110 108 102 98 94 89 87 88 90 68 37 32 32
32 32 31 30 31 30 29 28 29 29 28 28 28 28 29 29
28 27 26 24 24 22 21 21 20 19 19 18 16 16 16 12
15 16 10 0 0 0 0 0 0 11 32 28 31 31 31 32
29 29 30 30 32 31 30 29 30 30 30 29 25 24 22 21
23 28 37 27 27 22 18 16 18 28 29 29 29 24 29 31
33 32 15 2 0 5 14 36 62 71 70 86 103 112 112 106
100 92 88 88 88 91 93 97 100 100 104 106 109 109 109 111
111 111 111 109 106 103 99 93 89 91 93 97 79 43 31 31
31 30 29 30 30 30 29 29 30 30 30 30 29 29 29 29
27 27 26 25 23 22 21 21 20 19 18 17 17 16 15 11
17 18 6 0 0 0 0 0 0 11 35 28 29 30 31 31
29 28 31 32 32 34 34 32 32 31 31 30 33 36 33 31
30 32 40 39 38 39 37 35 29 28 29 28 28 25 27 31
34 33 26 9 9 4 28 47 61 70 66 84 101 109 110 108
99 91 85 79 88 85 86 95 99 100 105 104 105 106 108 110
110 113 111 107 104 103 97 92 88 90 91 83 72 43 30 31
31 31 31 31 30 31 29 30 31 31 30 29 29 29 29 28
27 26 26 25 23 22 21 20 19 18 17 16 16 15 15 10
14 13 21 22 20 14 13 11 8 15 37 29 30 30 30 30
31 33 35 33 34 37 40 39 34 30 31 31 37 40 38 36
35 36 31 26 24 25 25 26 26 28 29 28 29 26 26 31
34 33 30 25 17 12 38 53 67 73 69 81 98 107 110 109
101 93 86 85 82 83 84 86 98 97 102 103 106 108 103 107
109 110 105 106 106 105 100 88 76 69 46 58 62 34 31 31
31 30 30 30 30 31 30 31 31 30 30 29 29 29 28 28
26 25 25 24 23 21 21 20 18 18 17 16 16 15 15 11
15 14 29 34 38 33 35 39 40 40 39 32 32 33 33 33
36 38 40 34 35 36 41 39 33 31 26 28 38 41 38 36
36 37 34 30 23 21 22 21 24 28 29 29 28 24 28 31
34 34 29 31 29 17 41 57 70 72 68 78 95 104 106 106
102 95 91 82 80 79 85 89 98 97 101 103 102 103 106 107
104 106 106 105 106 105 93 61 48 47 44 35 36 32 31 31
31 31 30 30 30 30 30 30 30 30 29 29 28 28 27 27
26 25 24 24 22 21 20 19 18 17 16 15 15 15 14 10
14 13 30 40 40 40 41 41 41 42 41 29 27 27 27 28
32 38 43 35 36 35 33 34 36 33 30 24 32 32 30 31
36 36 34 33 28 26 26 26 27 28 28 28 28 23 29 30
34 33 30 31 30 22 46 59 71 71 67 77 91 99 104 105
100 98 95 84 80 80 85 90 95 97 101 103 105 101 102 105
106 106 104 105 107 100 86 79 76 73 71 54 34 30 31 31
30 29 30 29 29 30 30 30 30 29 29 29 28 28 28 27
27 25 24 22 21 20 19 19 17 16 17 16 15 14 14 11
14 11 17 24 26 29 31 34 36 38 39 8 6 4 2 3
6 12 34 36 34 18 10 14 17 17 20 29 29 9 2 1
5 11 14 28 31 28 29 32 32 34 34 29 28 23 30 32
34 34 32 31 30 26 50 65 74 72 65 76 88 98 106 108
101 98 100 92 84 77 81 88 89 92 97 98 98 99 99 104
105 103 104 103 103 98 92 90 92 88 79 61 39 30 31 30
30 29 28 28 25 27 27 30 30 29 29 28 28 28 27 26
26 25 24 22 20 20 19 19 18 16 15 15 14 14 14 12
13 10 11 15 16 16 17 18 18 19 24 4 0 0 0 0
0 0 27 36 26 2 0 0 1 6 13 31 30 5 0 0
0 3 10 25 19 20 23 27 28 32 36 30 27 24 30 31
34 33 32 29 30 31 57 68 73 71 66 75 91 99 108 107
101 101 98 93 90 83 81 81 84 90 94 95 96 100 101 100
100 98 102 100 98 94 94 90 88 86 67 52 37 30 30 24
13 12 9 8 6 8 21 30 30 29 29 29 29 28 27 26
24 23 23 21 19 18 17 18 17 16 16 15 15 15 14 12
11 9 16 21 22 22 22 22 22 22 25 6 2 0 0 0
0 8 30 34 12 0 0 0 0 0 14 32 30 8 0 0
0 1 9 24 4 0 2 1 1 7 36 31 27 25 30 31
34 33 32 28 31 39 62 72 74 71 67 73 88 97 108 106
106 105 102 95 91 89 82 82 80 85 90 97 97 95 98 103
102 100 96 101 91 91 87 86 82 67 46 47 31 30 30 23
5 5 5 6 5 6 22 30 29 30 29 27 27 28 28 25
24 23 23 21 20 19 18 17 16 15 15 15 14 14 15 12
10 8 16 21 23 24 24 26 26 28 27 6 0 0 0 0
0 8 28 33 6 0 0 0 0 0 9 32 29 8 0 0
0 0 7 23 5 1 12 8 0 3 35 32 27 26 31 31
33 33 33 28 30 48 67 75 76 72 68 73 90 98 105 107
106 104 104 98 92 90 88 82 78 81 85 88 92 87 93 97
101 99 96 95 89 83 82 86 83 68 56 39 29 30 29 23
6 6 6 6 5 6 21 30 30 30 30 29 28 28 27 26
24 23 21 20 20 18 17 17 17 16 16 16 15 15 15 12
12 11 18 23 23 24 23 25 26 28 28 7 1 0 0 0
3 0 21 31 3 0 0 0 0 0 9 32 28 8 0 0
0 0 5 24 7 1 6 6 0 2 35 33 26 27 31 32
34 33 33 29 35 57 73 78 77 72 68 74 88 101 110 110
108 110 108 100 97 93 86 85 80 82 83 78 83 89 92 96
98 99 97 88 86 85 89 92 90 81 67 35 28 30 30 20
6 6 6 5 6 6 19 30 30 30 30 28 28 27 26 26
24 23 22 20 20 18 17 16 17 16 16 15 15 15 15 13
17 17 18 18 19 20 15 8 11 22 32 9 0 0 0 0
3 1 19 30 1 0 0 0 0 0 9 32 27 7 0 0
0 0 0 22 9 1 4 3 0 2 35 33 25 28 31 32
34 34 36 44 46 64 77 82 79 72 70 78 93 103 111 111
112 111 109 103 98 97 88 86 84 86 82 76 77 83 87 92
90 93 89 89 90 93 96 95 93 89 73 40 29 30 30 22
6 6 5 6 5 5 15 31 30 29 28 28 27 27 25 24
22 22 21 19 18 18 18 17 16 16 16 16 16 15 14 13
17 17 17 17 17 16 11 0 0 10 34 17 3 0 0 0
2 0 16 30 1 0 0 0 0 0 7 33 26 9 0 0
0 0 0 22 12 2 5 5 1 2 32 32 25 28 31 32
48 63 54 59 55 70 82 84 82 73 71 81 94 102 112 114
112 109 108 105 101 99 96 95 89 90 83 78 76 74 77 77
84 87 90 88 88 97 95 93 88 85 70 46 28 29 30 24
7 6 7 8 8 8 13 28 28 27 26 26 26 26 25 24
23 22 21 20 19 18 18 17 17 15 15 14 14 14 14 12
17 16 16 16 16 16 12 0 0 8 33 14 1 0 0 0
4 1 15 30 0 0 0 0 0 0 3 33 26 12 0 0
0 0 0 20 15 0 0 0 0 1 32 32 24 29 31 45
108 73 51 51 62 76 86 88 82 75 73 84 96 102 111 113
111 107 107 105 103 97 100 94 88 90 86 82 78 69 70 70
69 77 78 81 87 96 92 90 90 80 67 45 29 29 29 26
14 14 14 13 13 12 21 26 28 29 29 28 27 27 26 25
24 22 22 21 19 18 17 17 16 15 15 15 14 14 14 13
10 10 11 12 14 16 14 0 0 5 29 8 0 0 0 0
0 0 15 31 1 0 0 0 0 0 2 33 26 9 0 0
0 0 0 18 21 0 0 0 0 1 29 31 24 30 34 95
112 58 50 56 72 84 91 93 85 76 75 82 94 103 112 114
113 110 108 110 107 105 101 96 92 94 91 92 77 74 72 71
68 69 67 72 76 86 85 84 81 73 62 36 29 30 29 26
9 8 8 5 1 1 5 4 2 6 29 28 27 27 26 26
24 22 21 21 19 19 18 17 17 15 15 15 14 14 13 13
0 0 0 2 11 15 14 0 0 3 25 6 0 0 0 0
1 0 12 34 2 0 0 0 0 0 1 32 27 11 0 0
0 0 0 15 25 0 0 0 0 3 29 30 24 31 66 118
99 44 54 66 79 88 95 96 85 76 76 84 95 106 111 114
112 112 108 106 107 105 102 95 95 91 90 89 78 74 76 74
68 64 62 63 66 72 73 70 70 67 54 24 29 31 31 27
8 7 7 4 0 4 8 24 9 3 28 27 27 27 25 25
24 22 22 20 20 18 18 17 16 15 15 15 14 14 14 13
0 0 0 4 16 15 14 1 0 1 22 7 0 0 0 0
8 5 12 35 12 7 7 8 8 7 9 33 28 26 26 26
25 27 30 35 30 3 3 2 2 4 28 28 24 36 106 116
98 50 54 75 83 93 99 97 86 77 77 85 97 107 110 112
110 112 110 106 105 102 105 102 100 96 90 86 75 74 74 70
70 67 60 55 55 62 61 59 58 56 21 16 30 30 29 26
9 6 7 4 0 1 2 6 1 2 27 28 27 26 26 25
23 22 21 20 19 18 18 17 16 15 15 14 14 14 14 13
0 0 0 3 16 15 14 2 0 0 20 22 23 20 21 26
35 33 33 32 39 39 36 37 38 39 39 40 30 26 33 35
37 40 45 46 40 28 27 26 27 27 30 27 25 59 119 114
105 45 60 81 89 97 100 98 86 79 77 86 99 107 111 112
112 110 109 106 100 103 106 103 97 96 88 80 75 75 70 66
66 61 57 50 46 40 37 33 30 13 4 17 29 30 31 27
9 6 6 3 0 0 0 0 0 1 27 27 27 26 26 25
23 22 21 20 19 18 17 16 15 15 13 13 14 13 13 13
0 0 0 2 17 15 14 3 0 0 18 24 27 23 26 32
38 33 30 27 39 41 39 38 38 42 42 42 34 23 31 34
36 41 45 46 42 26 26 26 26 27 27 27 27 84 119 114
110 51 78 88 95 100 103 99 86 81 79 86 99 108 111 110
109 109 105 102 104 104 101 102 98 95 90 80 75 58 34 21
19 23 25 10 4 2 6 5 6 5 4 15 29 30 30 27
9 5 5 2 0 0 0 0 0 1 23 12 5 8 23 24
23 22 21 20 18 17 17 16 16 15 14 14 13 13 13 12
0 0 0 1 17 15 13 4 0 0 17 24 23 21 26 31
38 36 29 25 27 32 32 33 32 32 32 33 31 22 22 27
29 30 28 27 28 27 27 27 27 27 27 28 32 104 118 115
110 73 87 94 98 102 105 100 87 84 81 87 101 110 108 113
111 110 106 106 100 100 100 96 96 92 84 66 42 24 8 6
18 35 56 27 1 0 6 5 6 6 4 15 30 30 30 28
10 6 5 0 19 19 0 0 0 0 6 19 25 13 8 25
23 21 21 20 18 17 17 16 15 14 14 13 14 13 13 13
0 0 0 0 18 15 14 5 0 0 15 20 15 17 17 22
35 36 32 28 20 19 20 20 20 20 20 21 25 24 25 27
27 27 26 22 24 26 27 27 28 28 28 29 44 115 118 115
109 80 95 100 103 105 106 99 88 87 83 88 101 109 111 115
111 111 108 100 99 97 97 98 95 85 74 75 67 44 16 12
49 73 111 86 58 42 20 6 7 7 4 14 29 29 30 27
9 5 5 9 33 45 5 0 0 11 27 27 26 25 4 24
23 21 20 19 18 17 16 15 15 14 14 13 12 12 13 12
0 0 0 0 17 15 13 5 0 1 17 20 5 8 11 15
21 24 23 28 22 20 22 22 27 28 27 26 30 29 31 35
35 34 29 26 26 26 28 27 28 28 32 57 89 118 118 115
107 87 101 105 107 108 107 98 90 90 83 88 101 110 96 114
113 112 106 102 100 100 95 90 85 79 87 89 84 77 38 39
84 97 111 109 96 101 103 93 69 42 12 14 29 29 31 28
10 5 6 6 11 17 6 0 0 16 28 26 26 26 6 22
24 22 21 20 18 17 16 15 14 14 14 13 13 13 13 13
0 0 0 0 15 15 12 9 8 15 22 19 0 0 0 0
0 4 7 27 26 30 35 30 39 43 32 26 27 29 29 34
36 38 31 27 27 26 28 29 32 62 97 103 104 118 118 116
105 109 105 109 110 110 107 97 94 93 85 88 101 110 114 115
113 112 107 107 105 103 99 87 84 96 103 101 92 89 68 88
85 109 111 114 99 102 108 111 114 113 111 96 75 42 30 28
12 6 7 1 5 3 0 0 0 15 28 27 26 25 7 20
22 21 20 19 18 16 16 15 14 14 14 13 13 13 12 12
0 0 0 0 13 15 11 14 24 27 29 23 0 0 0 0
0 0 6 31 25 32 37 29 40 45 17 1 2 2 3 4
19 39 33 28 28 28 35 68 99 108 104 102 107 118 117 117
111 116 109 112 114 112 106 97 98 97 88 90 102 113 116 115
114 111 110 110 107 105 98 94 103 108 109 103 97 95 96 100
93 108 111 115 105 105 108 109 115 114 114 113 114 110 81 61
32 19 14 4 0 0 0 0 0 11 28 27 26 25 7 23
22 21 20 19 18 16 16 16 15 14 15 14 13 12 13 13
0 0 0 0 11 16 12 14 25 26 30 27 0 0 0 0
0 0 2 33 24 29 34 7 8 18 17 0 0 0 0 0
12 37 34 29 44 80 114 119 113 106 102 99 106 118 117 117
114 115 116 111 115 113 105 100 102 102 91 90 104 114 116 115
111 110 111 110 107 101 101 107 113 114 112 105 101 97 112 105
100 110 112 115 110 104 108 108 113 114 114 113 113 113 113 113
110 69 27 29 3 0 0 0 0 12 29 28 26 23 7 24
23 22 21 20 19 17 16 15 15 14 14 13 13 12 12 13
0 0 0 0 10 15 12 12 21 21 22 19 1 0 0 0
0 0 1 34 23 29 33 3 0 13 18 0 0 0 0 0
9 43 69 98 117 118 118 118 110 104 103 107 108 118 117 117
117 116 117 116 115 113 107 104 106 104 94 91 103 113 116 115
111 109 110 109 105 105 110 114 115 114 113 107 103 109 116 109
104 114 113 114 112 106 107 105 112 113 114 114 114 113 114 114
114 113 108 78 23 0 0 0 0 10 28 26 24 9 16 21
14 13 21 20 18 16 14 14 14 13 13 12 12 13 12 12
0 0 0 0 9 15 11 9 0 0 2 1 0 0 0 0
0 0 2 35 24 30 35 3 0 12 20 0 0 0 4 40
84 115 118 118 118 118 118 118 105 100 105 108 110 118 117 118
117 117 117 117 116 111 108 109 111 107 98 92 103 114 116 115
110 107 109 107 107 112 115 115 115 115 113 110 112 116 115 111
108 114 113 114 109 106 103 106 112 114 114 114 114 114 114 114
114 113 113 113 112 84 54 12 0 1 3 2 1 1 12 14
7 7 21 20 18 16 15 14 14 14 13 13 12 12 12 12
0 0 0 0 7 15 11 10 0 0 3 1 0 0 0 0
0 0 3 34 23 30 34 3 0 10 23 0 11 60 104 116
119 118 118 118 118 117 117 114 102 101 106 112 113 117 117 118
117 117 117 118 117 117 111 113 114 111 102 94 102 113 116 115
108 106 109 109 113 115 116 115 115 115 113 114 116 115 115 113
112 114 113 113 109 105 101 107 113 114 114 114 114 114 114 114
114 114 113 113 112 113 113 110 72 12 1 0 0 1 7 7
37 46 23 20 18 16 15 14 14 13 13 12 12 12 12 12
0 0 0 0 6 16 11 10 3 1 4 2 0 0 0 0
0 0 1 33 23 31 35 3 2 10 33 61 108 117 118 118
118 118 118 118 118 118 118 113 103 105 106 113 116 117 117 118
117 117 117 117 117 117 117 116 116 114 105 98 104 113 115 114
103 105 110 113 115 115 116 116 115 115 116 116 116 116 115 114
113 114 112 111 113 106 102 102 114 114 114 114 114 114 114 114
114 113 113 113 113 113 113 113 112 98 34 4 0 3 15 8
43 37 14 7 5 9 14 14 14 14 14 14 13 13 14 13
0 0 0 0 6 15 11 10 6 4 6 3 0 0 0 0
1 0 0 32 24 32 34 8 6 50 110 117 118 119 119 119
118 118 118 118 118 118 118 114 105 107 104 114 117 118 118 118
117 117 118 118 117 117 117 117 116 116 112 104 105 113 116 115
99 98 110 106 115 115 116 115 116 116 115 116 116 115 115 114
115 115 114 111 101 111 103 99 114 114 114 114 115 114 113 114
114 114 114 113 113 114 113 113 113 112 107 43 0 0 0 0
0 0 1 2 0 9 18 17 17 17 17 16 17 16 17 17
0 0 0 0 5 14 11 10 7 7 7 3 0 0 0 0
4 7 0 31 26 34 36 38 90 116 118 118 116 118 118 118
118 118 118 118 117 117 118 115 109 109 104 115 72 103 118 118
117 117 117 117 117 117 117 117 117 117 117 117 115 115 115 114
107 100 107 111 116 116 116 116 116 116 116 115 116 116 115 115
114 111 114 113 30 81 108 96 115 114 114 114 114 114 114 114
114 114 113 114 114 113 113 113 113 113 113 106 57 1 0 0
0 0 2 1 0 7 15 12 11 9 8 7 5 4 3 3
0 0 0 0 5 15 11 10 7 6 8 5 0 0 0 0
5 14 5 27 30 37 78 116 118 118 118 118 117 119 118 118
118 118 118 118 118 117 118 116 110 111 106 112 59 96 118 118
117 117 118 117 117 117 117 117 117 117 117 117 117 117 116 116
117 117 117 116 116 116 116 116 115 116 115 115 115 116 116 115
114 106 111 113 26 70 110 97 114 114 114 114 114 114 113 114
114 114 115 114 114 114 114 113 114 113 113 111 109 64 1 0
0 0 0 3 19 21 20 20 21 23 24 25 26 28 28 28
0 0 0 0 4 15 11 10 8 7 8 12 11 14 15 16
22 29 29 37 43 93 115 115 119 118 118 118 117 118 119 118
118 118 118 117 117 118 118 114 113 110 107 113 53 101 118 116
117 117 117 118 117 117 117 117 117 117 117 117 117 116 116 117
117 116 116 116 116 116 115 115 115 116 115 116 116 116 116 115
112 107 109 112 23 70 111 99 114 114 115 114 115 114 114 114
114 114 114 114 113 114 114 114 113 114 113 113 111 111 57 0
0 0 0 8 34 32 31 31 31 30 31 30 30 30 30 30
0 0 0 0 4 14 10 9 8 9 7 18 27 30 32 35
37 42 45 52 101 118 116 118 118 118 118 118 117 118 118 118
118 118 118 118 118 118 118 113 113 109 108 113 57 92 118 117
117 117 117 117 117 117 117 117 117 116 117 116 117 117 117 116
116 117 115 115 116 116 116 115 115 115 115 115 115 115 116 115
109 106 112 110 25 75 110 99 113 114 114 114 114 114 113 113
114 114 114 114 114 114 114 113 114 114 114 113 112 112 111 48
0 0 0 11 33 31 32 31 31 30 30 30 29 29 29 28
0 0 0 0 3 14 10 9 8 8 8 16 32 32 34 35
39 43 51 95 116 118 117 118 118 118 118 118 118 117 118 118
118 117 118 118 118 118 118 115 114 110 110 112 71 88 117 116
117 116 116 116 116 116 117 117 117 117 117 116 116 116 117 117
116 116 116 116 116 115 115 115 116 115 116 116 115 115 115 115
109 106 114 99 22 95 107 101 114 114 114 114 114 114 114 114
114 115 114 114 113 114 114 113 113 113 113 113 113 112 113 106
27 0 0 13 32 32 31 31 30 29 30 30 30 29 30 30
0 0 0 0 2 13 10 8 7 8 8 7 17 18 18 19
22 27 80 117 118 118 118 118 118 117 118 118 118 118 117 118
118 118 118 117 118 118 117 116 115 108 109 115 89 86 112 117
116 116 116 116 117 117 117 117 117 117 116 116 116 116 116 116
116 116 116 116 115 115 115 115 115 115 115 116 115 115 115 114
108 107 114 91 38 108 109 105 114 113 114 113 114 114 114 113
113 114 114 114 114 114 114 114 114 113 113 113 113 112 113 110
92 4 0 14 32 31 31 31 30 30 29 29 29 28 29 29
0 0 0 0 2 13 10 8 8 9 9 4 2 3 5 6
10 48 106 118 118 118 119 118 118 118 118 118 118 118 118 118
118 118 118 118 118 117 118 118 116 111 111 116 105 86 103 117
117 116 117 117 117 117 117 116 117 117 116 116 117 116 116 116
116 116 116 116 116 115 115 115 115 115 116 116 116 115 115 114
108 110 113 84 65 112 112 111 115 114 114 114 115 115 114 114
114 114 114 114 114 113 113 113 113 113 113 113 113 113 114 112
110 64 0 17 33 31 30 30 30 29 29 29 29 29 29 29
0 0 0 0 2 12 10 7 7 8 9 6 4 5 6 8
27 94 109 119 118 118 118 118 118 118 117 117 118 118 119 118
118 117 118 118 117 117 118 117 116 115 112 115 103 84 89 115
117 117 117 117 117 117 117 116 116 116 116 116 116 116 115 115
116 116 116 115 116 115 116 115 115 115 115 115 115 115 114 113
108 112 109 92 78 113 114 113 115 114 114 114 114 114 114 113
114 114 114 114 114 113 113 113 113 113 113 112 113 113 113 113
111 111 44 19 32 31 30 30 30 30 29 29 29 29 28 29
0 0 0 0 2 13 10 7 8 9 10 10 10 10 11 15
88 110 109 118 118 117 117 118 118 117 118 118 118 118 119 118
118 117 118 117 117 117 117 117 117 117 115 116 103 77 99 96
117 116 116 117 117 117 116 117 116 116 116 116 116 116 115 116
116 116 115 116 115 115 115 115 115 115 115 115 115 115 115 113
109 114 110 105 89 114 114 113 114 114 114 114 114 114 114 113
114 114 114 114 113 113 113 113 113 113 114 112 113 113 113 113
113 107 105 39 32 31 30 29 29 29 29 29 29 28 28 29
0 0 0 0 3 15 9 7 7 9 10 10 10 10 12 55
112 112 111 118 118 117 117 118 118 117 118 118 117 118 118 118
118 117 118 118 117 117 117 117 116 117 116 116 107 76 112 77
104 115 117 117 116 117 117 116 116 116 116 116 116 116 115 115
116 116 115 115 116 116 115 115 116 115 115 115 115 115 114 113
110 114 113 113 107 113 114 113 114 114 114 114 114 114 114 113
114 114 114 114 114 113 114 113 114 114 113 112 113 112 113 113
113 106 111 94 33 31 31 30 30 29 29 29 29 28 29 29
5 5 5 6 8 8 7 6 8 9 10 11 10 11 29 103
116 115 113 118 118 118 118 118 118 119 118 118 118 119 118 118
118 118 118 117 117 117 117 117 117 117 117 117 114 77 115 87
99 109 116 116 116 117 116 116 116 116 116 116 116 116 116 116
116 116 115 115 116 115 115 115 115 115 115 115 115 115 115 113
112 114 114 114 115 114 108 114 113 114 114 114 115 114 114 114
114 113 114 114 113 113 113 114 114 113 113 113 111 113 113 113
113 108 111 113 63 30 30 29 29 29 29 29 29 29 28 29
6 7 7 6 6 7 7 7 7 9 10 11 12 17 86 116
114 118 115 119 118 118 118 118 118 118 118 118 117 118 118 117
118 118 117 117 118 117 118 117 117 117 117 116 117 84 116 102
109 108 112 117 117 117 116 117 117 116 116 115 116 116 116 116
116 116 115 115 115 115 115 115 115 115 115 115 115 115 115 114
113 114 114 115 114 114 100 105 115 114 114 114 115 114 114 114
113 113 114 114 114 114 114 114 114 113 113 112 111 113 112 113
113 110 110 113 98 34 31 31 30 30 30 29 29 29 29 28
7 7 7 6 7 7 7 7 7 9 10 11 14 60 113 115
117 118 116 118 118 119 117 118 119 118 118 118 118 118 119 118
118 117 118 118 117 118 118 117 117 118 118 117 118 90 117 106
115 113 114 116 116 117 116 116 116 116 116 116 117 116 117 117
116 116 116 116 115 115 116 115 115 114 115 115 116 115 115 113
114 114 115 114 114 115 114 114 114 114 114 114 114 114 114 114
114 115 114 114 114 114 114 114 114 114 114 113 109 114 113 113
113 110 108 113 112 61 30 30 30 30 29 29 29 28 29 29
7 7 7 6 6 7 6 6 8 8 10 12 40 103 112 115
118 118 117 119 119 118 116 119 118 118 118 118 118 118 118 117
118 118 118 118 118 118 118 118 117 118 117 117 117 99 114 102
116 116 116 117 116 117 116 116 117 117 116 116 117 116 116 116
116 116 116 116 116 115 116 116 115 115 115 116 116 115 114 112
115 114 114 115 114 114 115 114 115 115 114 115 114 115 115 114
114 114 114 114 114 114 114 114 114 114 114 112 109 114 113 113
113 110 111 113 113 96 32 31 30 30 30 29 29 29 28 28
2 1 1 0 0 1 2 5 11 8 10 14 76 112 110 117
119 118 118 118 118 118 114 118 118 118 118 118 118 118 118 118
118 118 118 118 118 118 118 117 117 117 118 117 117 115 118 117
115 117 117 117 116 116 117 116 117 116 117 116 116 116 117 115
116 116 116 116 115 116 115 115 115 115 115 115 116 116 115 113
115 115 115 115 114 114 114 114 114 114 114 114 115 115 115 114
114 114 115 114 114 114 114 114 115 114 114 114 113 113 113 113
113 111 112 114 114 110 44 31 30 29 29 29 28 28 28 28
0 0 0 0 0 1 4 4 8 9 11 54 106 108 110 119
118 118 118 118 118 119 114 118 118 118 118 118 117 118 118 118
118 118 118 118 118 118 118 118 118 117 118 116 117 117 117 116
114 116 117 117 116 117 117 117 117 117 116 116 117 116 115 116
116 116 116 116 116 116 116 117 116 115 116 116 116 115 115 112
115 114 115 115 114 114 113 113 114 115 115 115 115 115 115 114
114 115 114 114 114 114 114 114 113 114 114 114 113 113 113 113
113 112 113 112 113 113 65 30 30 29 29 29 29 28 28 28
0 0 0 0 0 0 4 4 7 9 19 101 117 101 117 119
118 119 119 118 118 118 112 117 118 119 118 118 118 118 119 118
119 119 118 118 118 118 117 117 117 117 118 117 117 117 117 117
115 115 117 117 116 117 117 117 116 116 117 117 116 116 116 116
116 116 116 116 116 116 115 116 116 116 115 115 116 115 115 112
114 115 114 115 115 114 113 114 114 114 115 114 114 115 115 114
114 115 114 114 114 114 114 114 114 114 114 114 109 113 113 113
114 113 114 113 113 113 85 30 30 29 29 28 28 28 28 27
0 0 0 0 0 1 5 7 9 12 56 111 118 107 118 119
119 119 119 118 119 118 112 117 118 118 118 118 118 118 118 118
118 118 118 118 118 118 118 118 118 117 117 117 117 117 117 116
116 114 117 117 117 116 116 116 117 116 116 116 117 116 116 116
116 116 116 116 116 115 116 116 116 116 116 115 115 115 114 110
113 114 114 114 114 113 113 113 114 114 115 115 114 114 114 114
114 114 114 114 114 114 113 114 113 114 114 114 107 114 114 113
113 114 113 113 112 113 103 25 30 29 28 28 28 28 28 28
2 1 0 0 0 2 7 10 13 21 103 110 116 117 118 119
119 118 119 118 119 118 110 115 118 119 118 118 118 118 119 118
118 117 118 117 117 117 118 117 117 117 117 116 117 118 117 117
117 116 116 117 116 116 117 117 116 116 117 117 116 116 116 116
116 116 116 116 115 116 116 116 116 115 115 115 115 115 114 109
111 115 115 115 115 114 114 113 114 114 114 115 115 115 115 114
114 114 115 115 114 114 114 114 114 114 114 114 113 113 114 113
114 114 114 112 108 114 111 33 29 28 27 28 28 27 27 27
3 3 3 4 5 8 10 10 14 38 117 109 110 119 118 118
118 117 118 118 118 118 112 115 118 118 118 118 118 118 118 118
117 117 117 117 117 117 117 117 117 117 117 116 117 117 117 117
117 116 114 116 116 116 116 116 116 116 116 116 116 116 116 116
116 116 115 116 116 115 116 115 116 115 115 115 115 115 114 110
109 114 115 114 114 113 114 114 114 114 114 115 114 114 115 114
113 114 114 113 113 114 113 113 113 114 113 114 114 113 114 113
113 113 113 110 107 113 113 59 27 28 28 27 27 27 27 27
6 5 5 4 3 2 1 1 12 54 115 110 108 119 119 118
118 118 118 118 118 118 113 115 118 118 118 117 117 118 119 118
118 118 118 117 117 117 117 117 117 117 117 117 117 118 117 117
117 117 116 116 116 116 117 116 116 116 116 116 116 116 116 116
116 116 116 116 116 116 116 115 115 116 116 116 115 115 115 112
108 115 115 114 115 114 114 114 114 114 114 114 115 114 114 114
114 114 114 114 114 114 114 114 114 114 114 113 113 113 114 113
113 113 113 110 107 113 113 81 25 28 27 27 27 27 27 26
0 0 0 0 0 0 0 0 12 75 111 112 105 119 118 118
118 118 118 118 118 118 114 115 118 118 118 117 117 117 118 117
117 117 117 118 117 117 117 117 117 117 117 117 117 117 117 117
117 116 116 115 116 116 116 116 116 116 116 116 116 116 116 116
116 116 116 116 116 115 115 115 115 115 116 115 115 115 114 112
109 114 115 115 115 114 114 113 115 114 114 114 115 114 114 114
114 113 114 113 114 114 113 114 113 114 113 114 113 113 113 113
113 113 113 110 107 112 112 100 11 22 27 27 27 26 26 26
