P2
128 120
122
25 25 24 24 23 22 21 21 21 20 20 19 19 18 18 18
18 18 17 17 17 15 16 15 15 14 14 13 13 13 13 12
12 11 12 10 11 10 10 10 9 8 7 6 5 4 5 7
8 9 10 7 3 11 14 12 10 9 9 8 7 5 4 2
1 1 0 4 6 4 5 2 5 6 6 6 8 8 8 9
8 9 10 10 10 10 11 10 11 12 12 12 13 12 12 13
13 13 14 15 15 16 17 17 17 18 18 18 19 19 20 19
19 19 20 21 20 20 21 21 21 21 21 20 21 21 21 21
24 24 23 22 22 22 21 21 21 20 20 20 20 19 19 18
18 17 17 16 16 15 15 15 15 14 14 14 13 13 13 12
12 12 10 11 11 11 10 11 10 9 8 7 6 6 6 9
10 11 12 7 2 11 14 12 11 10 10 9 8 7 6 4
3 2 1 4 6 5 4 6 6 7 8 8 9 10 9 10
10 10 10 11 10 11 12 12 12 12 13 13 14 14 13 14
14 16 17 16 16 16 18 17 18 18 18 18 19 20 19 19
20 20 20 21 20 21 20 20 21 21 21 20 21 21 21 21
25 24 24 23 23 22 22 21 21 21 20 20 19 20 19 19
19 19 18 17 17 16 16 16 16 15 15 14 13 13 13 13
13 12 12 12 12 12 11 10 11 10 9 7 6 7 7 11
12 13 14 8 3 11 16 13 12 11 10 9 8 8 6 6
7 4 1 3 6 6 6 7 8 9 9 9 10 10 11 11
11 11 11 12 12 12 13 12 13 13 13 13 14 14 15 15
16 17 17 17 18 18 18 18 19 19 19 19 19 19 20 19
20 20 21 22 21 21 21 21 21 22 21 21 22 21 22 22
24 23 23 23 23 22 22 22 21 21 21 21 20 20 20 20
19 18 18 17 16 17 16 16 15 15 15 14 15 14 14 13
13 12 12 12 12 12 11 11 11 10 10 8 8 8 9 13
13 14 13 8 3 10 16 13 13 12 11 11 10 9 7 8
8 6 4 2 8 5 7 7 10 10 10 11 12 12 12 12
12 13 12 12 13 12 13 13 13 13 14 15 16 16 16 17
17 18 19 18 18 18 18 18 19 19 19 19 20 19 20 21
21 21 21 22 20 21 22 21 21 22 21 21 21 21 21 21
24 24 24 24 23 23 22 21 22 21 21 21 20 20 20 20
20 19 18 18 18 17 17 16 16 16 15 15 15 14 14 14
13 13 13 13 13 12 12 12 11 11 10 10 9 9 10 13
14 15 15 10 4 11 17 13 13 13 12 11 11 10 8 8
8 8 4 1 9 6 9 10 11 12 13 11 12 13 13 13
13 13 13 13 13 13 14 14 15 15 16 15 16 16 16 17
17 18 19 18 19 19 19 19 20 19 20 20 20 20 21 21
21 21 21 23 21 21 22 22 22 22 22 20 21 21 22 23
24 24 23 23 23 23 23 22 22 22 22 21 21 21 20 20
19 19 19 18 17 17 17 16 16 16 15 15 16 14 15 15
14 14 13 13 12 13 12 12 12 11 11 11 10 10 11 15
15 16 16 10 4 9 17 14 13 13 13 12 11 11 9 9
9 8 6 2 9 8 9 10 12 12 12 13 13 13 14 13
13 13 14 13 14 15 14 15 15 16 16 16 17 17 17 18
18 18 19 18 18 19 19 19 19 19 20 20 20 20 21 21
21 21 22 23 21 22 21 20 20 21 21 22 23 21 22 22
25 24 24 24 23 23 23 23 22 22 21 21 21 20 20 20
20 19 19 18 18 18 17 16 16 16 16 15 15 15 15 14
14 14 13 13 13 13 13 13 12 12 12 12 12 12 13 15
16 17 16 11 6 9 17 15 14 14 13 13 12 11 10 10
10 9 7 4 10 9 11 13 13 13 13 13 13 13 13 13
14 15 15 15 15 16 16 16 16 16 16 17 17 17 18 17
18 18 19 19 19 20 20 20 21 20 21 20 21 21 21 21
21 21 21 20 20 20 21 21 22 22 22 22 23 22 22 22
25 24 24 24 24 24 23 23 23 22 22 21 21 21 20 19
19 19 19 18 18 18 17 17 17 17 17 16 16 16 15 15
15 14 14 13 13 13 13 13 13 12 12 12 12 12 13 17
17 17 17 11 7 8 17 16 14 14 13 13 12 12 12 11
11 10 9 5 10 10 12 13 13 13 13 13 14 14 15 14
15 15 16 15 16 16 16 16 16 16 17 17 18 18 18 19
19 18 20 19 20 19 20 20 20 20 20 20 21 22 21 20
20 21 21 22 22 22 22 22 21 22 21 22 23 22 22 23
24 24 24 24 24 23 23 23 22 21 22 21 21 20 20 20
20 19 19 18 18 18 18 17 17 17 17 16 16 15 15 15
14 14 14 14 14 14 14 13 13 13 12 12 12 13 14 17
17 17 17 12 8 7 18 16 15 15 14 14 13 14 14 11
10 11 10 6 11 10 13 13 13 14 14 14 14 14 15 15
15 15 16 16 16 17 17 17 17 17 17 17 17 17 18 18
18 19 20 19 20 20 20 21 21 20 19 19 20 20 21 21
22 21 21 21 21 22 22 22 21 22 22 22 23 22 23 22
25 25 24 24 23 23 23 22 23 22 22 22 21 21 21 20
20 20 20 19 19 18 18 18 18 17 17 16 16 16 16 16
15 15 15 14 14 14 14 13 13 13 13 13 14 14 15 17
18 18 18 13 9 7 17 16 15 15 15 15 14 13 13 12
13 12 11 8 11 11 14 15 14 14 15 15 15 16 16 16
16 16 17 16 17 17 17 17 17 17 17 18 18 18 19 19
19 19 21 20 20 20 21 20 19 20 21 22 22 22 22 21
22 22 22 22 23 22 22 22 22 22 22 22 22 22 23 23
25 25 24 24 23 23 23 23 22 22 22 22 21 21 21 20
21 20 20 20 19 19 19 18 18 18 17 16 16 16 15 15
15 15 15 15 14 14 15 15 13 13 13 13 13 14 15 18
18 18 18 12 9 7 18 17 15 14 15 15 15 14 14 12
13 12 11 9 12 13 15 15 16 16 15 16 16 16 16 16
16 16 17 16 17 17 17 18 18 18 18 18 18 19 19 19
19 19 20 19 19 18 19 20 22 21 22 23 21 21 21 22
22 21 22 21 22 22 23 23 22 23 22 22 23 22 22 22
25 25 25 24 24 23 23 23 22 22 22 21 21 21 21 21
21 20 20 20 20 19 18 18 18 18 17 17 17 17 16 16
16 16 15 15 15 15 14 14 14 14 14 14 14 15 16 19
19 19 19 14 12 5 14 17 16 15 16 16 16 15 16 14
13 13 12 10 14 13 15 16 15 15 16 16 17 17 17 17
17 18 18 17 18 18 18 19 18 18 18 18 19 19 19 19
19 18 18 19 21 21 21 21 22 22 22 23 22 22 22 22
22 22 23 22 22 22 23 22 22 23 23 22 23 22 23 22
25 24 24 24 24 23 23 23 22 22 22 21 21 21 21 20
21 20 20 20 20 19 19 19 18 18 18 17 17 17 16 16
16 16 16 15 15 15 15 15 15 14 14 14 14 15 16 18
19 19 19 13 9 2 14 18 16 17 17 16 15 15 16 13
14 13 13 10 15 14 16 16 17 17 17 17 17 17 17 17
17 17 18 17 18 18 18 18 18 19 19 19 19 18 18 19
20 21 21 20 21 21 21 21 21 22 22 23 22 22 22 21
22 22 23 22 23 22 22 23 23 23 23 23 22 23 23 22
25 25 24 24 24 24 23 23 22 23 22 22 22 21 21 21
21 21 20 20 19 19 19 18 18 18 18 18 18 17 17 17
17 17 17 16 16 16 16 15 15 14 14 14 14 15 16 19
19 20 20 14 11 9 16 19 17 17 16 17 16 16 17 14
14 14 14 11 16 15 17 17 17 17 17 17 17 18 18 18
18 18 19 19 18 18 18 19 19 18 18 18 18 19 20 20
20 21 21 21 22 21 22 21 22 22 22 23 22 22 22 22
22 22 23 23 23 22 23 23 23 23 23 23 22 23 23 22
25 24 24 24 23 23 23 23 23 23 22 22 22 21 22 21
21 21 21 20 20 19 19 19 19 19 18 18 18 17 17 18
17 16 16 16 16 16 16 15 15 15 15 15 15 15 16 20
20 20 19 14 11 12 15 20 18 18 18 17 18 17 17 14
15 15 14 10 16 15 18 18 17 17 18 19 18 18 18 18
18 18 18 18 18 18 18 19 19 19 20 20 21 21 21 21
21 20 21 21 21 21 22 22 22 22 22 23 23 22 23 23
23 23 23 23 23 23 23 23 23 23 23 23 23 23 22 23
25 25 25 24 24 23 24 23 23 23 23 22 22 22 22 22
21 21 21 21 20 20 19 19 18 19 18 18 18 18 18 18
17 17 17 17 16 16 15 16 15 15 15 15 16 16 17 21
20 20 20 15 12 14 13 20 18 19 20 17 18 17 19 17
16 15 15 11 17 17 18 18 18 18 18 18 18 18 19 19
18 18 18 18 19 19 19 19 20 20 21 20 21 20 21 21
21 21 21 22 22 22 22 22 22 22 22 23 22 23 23 22
23 24 23 24 24 23 23 23 23 23 24 24 24 23 24 23
24 24 24 24 24 23 24 24 24 23 23 23 22 22 22 22
21 21 20 20 20 20 20 19 19 19 19 19 19 18 18 18
17 17 17 17 16 16 16 16 16 15 16 16 16 17 17 21
20 20 21 16 13 16 14 18 17 18 21 21 19 20 19 16
16 16 17 13 17 17 19 19 19 19 19 19 19 19 18 18
18 19 19 19 19 19 20 20 20 21 21 21 21 21 21 21
21 22 22 21 22 22 22 23 23 23 23 24 23 23 23 23
23 24 23 24 23 23 24 23 23 24 23 22 23 22 23 23
25 25 25 24 24 24 24 24 23 23 23 23 23 23 23 23
22 21 21 22 21 21 20 20 20 19 19 19 20 19 18 18
18 18 17 17 17 16 16 16 16 16 16 17 18 20 19 22
22 24 22 17 14 12 10 7 6 14 15 17 18 18 23 21
21 21 21 17 21 17 18 19 19 18 19 19 19 18 19 19
19 19 19 20 20 20 20 20 21 21 21 21 21 21 22 22
22 21 21 22 23 22 23 23 23 23 23 24 23 23 24 23
24 24 24 23 24 24 23 23 23 23 23 23 24 23 22 23
25 24 24 24 24 24 24 24 24 24 23 23 23 22 21 22
22 21 21 21 21 21 21 20 20 20 20 20 19 19 18 18
18 18 17 17 17 17 17 17 17 18 19 21 22 25 23 25
23 21 19 14 9 4 3 4 8 9 11 9 13 21 18 19
21 22 21 20 23 21 21 19 18 18 19 20 19 20 19 19
20 19 20 20 20 20 20 20 21 21 22 21 21 22 22 22
22 22 22 22 22 22 22 23 23 23 23 24 24 24 24 24
24 24 24 23 22 23 23 23 23 23 23 23 24 23 23 23
26 24 25 25 25 24 24 24 24 24 23 23 23 22 23 22
22 22 22 21 22 21 21 20 20 20 20 19 19 19 19 19
18 18 18 17 17 17 17 17 18 22 32 26 26 25 22 12
10 11 13 8 3 4 3 10 13 13 17 17 23 22 18 15
17 18 23 22 22 21 19 19 19 19 19 20 20 20 20 21
20 21 21 21 21 21 21 21 21 21 21 22 21 21 21 22
22 22 23 24 23 23 24 24 24 24 23 24 24 24 23 23
23 23 23 24 23 23 24 23 23 24 23 24 23 24 24 24
25 25 25 25 25 24 25 24 24 24 23 23 23 23 23 23
22 22 22 22 22 22 21 21 21 21 20 20 20 19 19 19
19 19 18 18 18 18 18 19 23 30 30 24 22 14 11 8
5 7 8 13 12 8 11 14 18 23 26 29 29 24 18 16
12 15 18 23 25 21 17 16 16 18 20 21 21 20 21 21
21 21 21 21 22 21 21 21 22 22 22 22 22 22 23 22
23 23 23 23 24 23 24 24 24 24 23 22 23 24 24 24
24 25 25 25 26 24 23 24 23 24 24 23 23 24 25 24
26 25 25 25 24 24 24 24 24 23 24 23 23 23 23 23
23 23 22 23 22 22 21 21 21 21 21 20 20 20 20 19
19 19 19 18 19 19 19 22 29 26 20 20 17 12 8 9
9 5 7 12 20 21 22 20 25 28 34 37 37 33 25 18
16 13 20 23 18 17 22 17 16 16 17 20 21 21 21 21
21 21 22 22 22 22 22 22 22 22 22 23 22 22 23 24
23 24 24 24 24 24 24 23 23 23 24 24 24 24 24 24
24 24 24 24 26 24 24 25 23 24 24 24 25 24 24 24
26 26 25 25 25 25 25 24 25 24 24 24 24 23 23 23
23 23 23 23 23 22 21 22 21 22 21 21 21 20 21 20
20 19 20 20 19 19 19 22 19 14 17 15 12 10 7 9
15 13 9 16 20 26 22 21 32 34 32 35 37 36 29 20
18 15 13 25 23 16 17 21 19 15 14 16 20 22 22 22
22 22 22 22 22 22 22 22 23 23 23 23 23 23 24 24
24 24 23 24 24 24 25 25 24 25 25 25 25 25 25 24
25 25 25 25 26 24 24 25 24 25 24 24 24 24 24 23
25 26 26 25 25 25 25 24 24 24 24 24 24 23 24 24
24 24 23 23 23 22 22 22 21 21 21 21 21 20 20 20
20 20 20 19 20 20 17 13 9 8 5 5 9 14 15 12
19 18 15 17 23 17 21 30 28 23 23 19 21 22 23 20
21 16 17 14 29 20 14 16 19 19 13 13 14 15 20 21
21 21 22 22 22 22 22 23 23 23 24 23 23 23 23 23
23 23 25 25 25 25 25 25 26 25 25 25 25 25 25 24
24 24 25 25 25 24 25 25 24 25 25 24 24 23 24 23
25 25 25 25 25 25 24 24 24 24 25 24 24 24 24 24
23 23 23 22 22 22 22 21 21 21 21 21 20 20 20 20
20 20 19 19 19 17 8 3 5 5 8 14 16 16 21 16
20 15 21 23 19 18 23 27 26 22 18 20 21 18 22 21
25 22 19 22 12 23 16 15 14 18 19 16 11 8 8 16
21 22 22 21 22 23 22 23 23 23 22 22 23 23 23 24
23 24 24 25 25 25 25 25 25 25 25 24 24 24 24 25
25 25 24 24 25 23 23 23 24 24 24 23 23 23 24 23
25 25 25 25 25 24 24 24 24 24 24 24 24 23 23 23
23 23 23 23 22 22 22 22 21 21 21 20 21 21 20 20
20 20 20 20 19 10 5 5 5 7 15 21 19 16 13 17
16 23 33 34 34 36 37 41 41 39 36 31 25 22 19 20
28 31 24 28 25 16 18 18 14 15 13 11 8 6 2 4
14 21 22 22 22 22 22 22 22 23 23 22 22 23 23 24
24 24 23 24 24 24 25 24 24 24 24 24 24 24 24 24
24 24 24 24 24 24 23 24 24 23 23 23 23 23 23 23
24 24 24 23 23 23 24 24 24 23 23 23 23 23 23 22
22 22 22 22 22 21 21 20 21 21 21 21 21 20 20 20
20 19 19 19 19 13 9 1 0 5 12 16 20 15 16 23
33 43 55 59 60 57 53 57 58 59 55 46 34 29 25 23
28 36 34 28 31 30 19 13 11 10 5 3 3 5 4 0
3 16 21 21 21 21 21 21 22 22 22 22 22 23 23 23
23 23 23 24 24 23 23 23 23 24 23 23 23 23 23 24
23 24 23 23 24 23 23 22 23 22 22 22 22 22 22 23
24 24 24 24 24 24 23 23 23 24 23 23 23 22 23 23
22 22 22 22 21 22 21 21 21 21 21 20 21 20 20 19
20 19 20 22 21 16 6 0 2 12 12 7 12 22 33 49
66 76 82 83 87 81 78 71 62 63 66 61 48 35 27 20
25 38 44 44 30 25 25 19 13 7 2 0 0 0 0 0
0 7 18 22 21 22 22 22 22 22 23 22 22 23 23 23
23 23 23 24 23 24 24 24 24 24 24 23 24 24 23 23
23 23 23 22 23 23 23 23 23 23 22 23 22 22 22 22
24 24 24 24 23 24 24 23 23 23 24 23 23 23 23 23
23 22 22 22 21 21 21 21 21 22 21 21 21 21 20 20
20 19 21 22 17 21 1 0 10 7 7 21 39 52 68 80
89 91 92 93 93 92 90 84 74 65 67 64 54 39 36 28
27 27 43 47 43 37 27 20 13 5 0 0 0 1 0 0
0 7 11 21 22 21 22 22 22 22 22 23 22 23 23 24
23 24 24 24 24 24 24 24 23 23 24 24 24 23 23 24
24 24 23 23 24 24 23 23 24 23 22 21 21 21 21 22
25 25 25 24 24 24 24 24 24 24 23 24 23 23 23 23
23 23 23 23 23 22 22 22 22 22 21 21 21 20 20 21
20 20 21 16 26 16 1 0 10 10 26 54 67 77 83 88
96 98 97 98 97 95 95 90 83 71 59 52 50 43 32 26
23 32 29 38 42 35 24 18 14 6 2 0 1 0 0 1
0 6 6 11 22 23 23 23 23 23 23 24 24 24 24 24
24 24 24 24 24 24 24 24 25 24 24 24 24 24 24 24
24 24 24 23 24 23 22 21 22 22 22 23 24 23 24 22
25 25 25 24 24 24 24 23 24 24 24 24 24 23 23 23
23 23 23 23 22 22 22 22 22 22 22 22 21 21 21 21
21 21 19 15 26 11 0 0 1 25 56 71 77 81 86 93
100 99 100 100 100 99 97 97 96 88 64 53 47 35 29 23
24 31 33 33 34 31 27 20 10 6 2 0 0 0 0 1
4 8 8 1 17 24 23 23 23 23 23 24 24 24 24 24
24 24 25 25 25 25 24 25 25 24 24 24 24 24 25 24
25 23 22 23 22 22 22 23 23 23 23 21 23 22 24 22
22 24 25 25 25 25 24 25 24 24 24 24 24 23 24 23
24 23 23 23 23 22 23 22 23 22 22 22 22 21 21 21
21 20 19 17 23 14 1 0 1 44 66 74 79 82 89 95
99 99 100 101 101 101 100 100 102 94 69 60 48 35 27 21
23 28 37 39 39 34 28 21 11 6 3 0 0 0 0 3
7 7 7 1 5 23 23 23 24 23 23 23 24 24 24 24
24 24 24 25 24 24 25 25 25 25 25 24 25 23 22 22
22 23 24 24 25 23 24 24 23 23 23 24 23 23 24 22
5 10 25 25 25 25 25 24 24 24 24 24 24 24 24 24
24 24 24 23 23 23 23 23 23 22 22 22 22 22 22 22
21 21 19 21 22 11 8 0 10 56 70 78 81 85 92 97
99 101 101 101 101 101 101 102 102 93 71 62 50 38 26 19
19 23 34 43 40 37 30 20 10 6 2 0 0 0 0 3
7 9 6 0 0 18 24 24 23 24 23 24 24 24 25 25
25 25 25 25 25 25 25 25 25 25 24 24 24 24 24 24
24 24 24 24 24 24 23 23 23 23 23 24 23 23 23 23
3 9 24 26 25 25 25 25 24 24 24 24 25 25 24 24
24 24 24 24 24 24 24 24 23 22 23 22 22 22 22 22
22 22 16 22 21 8 8 0 25 61 73 81 81 87 94 96
100 100 102 102 102 102 102 103 103 95 73 62 48 38 29 24
24 27 30 31 40 37 34 25 14 5 1 0 0 0 0 2
9 9 3 2 0 13 25 24 24 24 25 24 24 25 25 25
25 25 25 24 24 24 25 25 25 25 24 24 25 24 24 24
24 24 24 24 24 23 23 24 24 23 24 24 24 23 24 22
6 9 24 25 25 25 25 25 24 23 24 25 26 25 25 25
25 24 25 24 24 24 24 24 23 23 23 22 25 26 24 23
22 22 12 14 22 5 3 0 39 64 76 80 80 89 93 97
100 100 103 103 103 105 105 105 105 98 76 59 50 38 30 24
28 28 29 31 27 38 31 21 13 8 1 0 0 0 0 1
7 10 5 7 5 14 24 24 24 24 25 25 25 25 24 24
25 25 25 25 24 25 25 24 25 24 24 24 25 25 24 24
24 25 25 25 25 25 24 24 23 23 23 23 23 23 23 23
6 9 25 26 26 25 25 25 26 33 32 30 29 26 26 25
24 25 24 25 25 24 24 23 23 24 23 23 32 36 32 29
27 24 9 7 22 16 1 3 48 67 76 79 84 90 94 97
100 100 103 105 106 106 107 106 105 101 83 60 53 46 34 27
31 31 30 28 30 26 24 20 14 6 0 0 0 0 0 0
6 12 10 14 12 12 25 25 24 25 25 25 25 25 25 25
25 25 24 25 25 25 24 24 25 25 24 24 26 25 24 24
25 25 24 24 24 24 24 23 24 23 24 23 24 23 23 23
7 11 26 26 26 25 26 25 26 36 35 35 33 30 30 29
27 25 25 25 25 24 24 23 23 23 24 24 34 33 32 30
31 31 16 0 9 16 7 12 53 69 75 80 88 92 96 100
101 105 106 107 108 108 109 108 107 104 86 63 54 50 41 29
32 32 29 29 26 23 18 15 8 2 1 0 0 0 0 0
8 15 16 12 8 11 23 24 24 24 25 25 25 24 25 25
25 25 26 25 25 24 25 25 25 25 24 24 24 25 25 25
25 25 24 24 24 24 25 24 24 24 24 24 23 23 22 24
6 12 28 27 27 26 26 25 27 36 35 34 31 31 31 32
35 29 29 27 26 25 24 23 24 24 23 24 32 32 31 29
30 30 21 0 0 3 2 17 58 71 75 82 92 96 100 102
104 106 107 108 109 110 110 110 108 102 88 68 54 50 47 35
29 26 27 21 18 14 16 14 11 8 6 3 0 0 0 0
2 10 7 4 2 13 25 25 25 25 25 25 25 25 25 25
26 25 25 24 25 24 25 24 25 24 24 25 25 25 24 25
24 24 24 23 24 24 24 24 24 24 23 24 24 23 23 24
7 14 31 29 28 28 28 28 27 32 30 34 32 33 35 36
37 31 30 32 33 30 28 27 26 25 24 24 25 14 17 19
26 29 29 13 2 0 0 28 63 72 77 88 98 101 105 105
107 107 107 108 109 109 110 110 110 108 94 70 66 60 50 39
31 24 22 18 15 12 11 10 9 8 5 3 0 0 0 0
0 4 2 0 0 11 25 25 25 25 25 26 25 24 26 26
25 25 26 25 25 25 25 25 25 25 25 25 25 26 25 24
24 25 24 24 24 25 25 24 24 24 24 24 24 24 24 24
7 15 31 29 23 26 30 31 34 19 0 5 17 26 31 33
35 29 4 6 13 19 27 27 29 32 29 26 24 8 6 6
3 5 9 25 16 0 0 45 69 75 82 94 103 105 103 103
105 105 106 107 108 109 110 110 110 111 105 77 60 60 51 41
30 20 19 17 12 10 13 12 10 6 4 0 0 0 0 0
0 0 0 0 0 11 25 25 25 25 25 25 26 25 25 25
25 25 25 25 25 25 25 25 25 25 25 25 25 26 26 25
24 24 24 24 24 25 23 24 24 23 23 25 25 24 24 24
8 14 30 31 29 25 24 33 36 21 0 0 1 8 10 9
16 30 1 0 0 0 0 4 10 16 22 27 24 6 0 4
5 1 0 25 16 0 5 58 74 76 86 100 104 100 96 100
101 103 106 107 108 109 109 110 110 110 110 99 64 49 46 38
31 24 18 17 14 11 11 8 6 5 1 0 0 0 0 0
0 0 0 0 0 14 25 25 25 25 25 25 26 25 26 26
25 25 25 26 25 26 26 26 25 25 25 25 25 25 25 25
25 24 25 24 24 24 24 25 24 25 24 24 24 24 24 21
8 7 8 15 23 30 33 36 37 22 0 0 0 3 7 7
10 30 0 0 0 0 0 0 0 0 0 19 24 5 0 1
1 1 0 27 16 4 14 63 76 77 90 100 94 88 76 82
82 98 102 107 107 108 109 110 111 111 111 110 96 54 39 37
31 27 24 18 19 18 15 12 5 2 1 0 0 0 0 0
0 0 0 0 0 10 26 25 25 26 25 25 27 26 26 25
25 25 25 26 26 25 25 25 26 26 25 25 26 26 26 25
24 24 24 24 25 25 25 25 25 24 24 24 24 24 25 25
9 4 0 0 0 1 6 14 22 23 0 0 0 0 1 2
8 30 3 0 0 0 0 0 0 0 0 19 22 1 0 0
0 0 0 28 24 17 21 64 78 65 58 54 39 32 45 47
53 62 80 101 107 107 107 109 111 111 111 111 107 82 39 30
29 23 21 22 19 18 13 9 5 1 0 0 0 0 0 0
0 0 0 0 0 4 24 26 26 26 26 26 27 26 27 26
26 27 26 27 27 27 27 27 26 26 26 25 26 25 26 25
25 25 26 25 25 26 25 26 26 26 26 25 25 25 24 24
8 4 0 0 0 0 0 0 0 15 0 0 0 0 0 0
5 28 0 0 0 0 0 0 0 0 0 18 19 0 0 0
0 0 1 29 24 23 33 52 38 32 51 31 26 30 33 49
59 63 60 74 102 109 110 109 110 110 111 111 106 96 63 27
23 16 17 17 22 17 11 7 3 2 0 0 0 0 0 0
0 0 0 0 0 0 7 24 26 26 26 27 27 26 27 27
27 27 27 27 28 27 27 27 26 27 26 26 26 26 25 26
26 26 26 26 25 25 25 26 26 26 25 24 25 25 24 24
9 5 0 0 0 0 0 0 0 12 0 0 0 0 0 0
9 31 1 0 0 0 3 6 0 0 0 16 20 0 0 0
0 0 0 30 24 20 26 43 30 35 29 22 27 40 31 68
86 103 101 92 90 99 106 108 106 105 103 99 98 85 51 30
12 12 13 16 19 22 18 11 2 0 0 0 0 0 0 0
0 0 0 0 0 0 1 21 27 26 27 27 27 26 27 27
27 26 27 27 27 27 27 27 26 26 25 25 25 27 26 26
26 26 26 26 26 26 27 27 26 26 26 25 25 25 25 25
8 5 0 0 0 0 0 0 0 10 0 0 0 0 0 0
9 33 2 0 0 0 5 9 6 3 0 15 21 0 0 0
0 0 0 15 9 7 12 26 33 45 46 36 35 40 35 76
111 92 30 38 40 48 65 28 27 26 28 33 40 43 35 34
18 7 7 7 15 12 12 9 3 0 0 0 0 0 0 0
0 0 0 0 0 0 0 16 27 27 28 27 29 27 28 28
28 28 28 27 27 27 27 27 26 26 27 26 26 27 26 26
26 26 26 25 25 25 27 26 26 26 26 27 27 26 26 26
8 4 0 0 0 5 4 0 0 8 0 0 0 0 0 0
7 34 2 0 0 0 7 9 9 8 2 13 22 0 0 0
0 0 2 20 20 12 8 12 46 59 78 66 51 32 36 51
70 52 54 48 39 50 64 76 88 94 100 103 103 97 67 55
48 14 8 10 27 41 19 9 27 51 43 11 0 0 0 0
0 0 0 0 0 0 0 16 27 27 27 27 28 27 26 27
26 27 27 27 28 27 27 27 27 27 26 26 27 27 26 26
27 26 26 26 26 25 27 27 27 27 27 27 26 26 24 23
8 5 0 4 1 0 1 0 0 8 0 0 0 0 0 0
7 34 3 0 0 0 5 8 8 8 2 12 24 0 0 0
0 0 4 23 21 9 16 12 52 57 93 84 64 28 28 50
42 47 36 53 84 102 110 112 111 109 108 107 104 97 73 49
54 36 19 16 31 57 51 56 97 84 91 80 12 0 0 0
0 1 0 0 0 0 0 4 25 27 26 26 27 27 26 27
27 28 28 27 28 27 27 27 27 26 26 27 26 26 26 26
26 26 26 26 26 25 26 26 25 25 24 26 25 23 22 22
9 5 2 2 0 0 0 0 0 9 0 0 0 0 0 3
13 36 4 0 0 0 0 3 7 8 1 11 31 22 14 8
4 4 8 22 20 14 14 30 54 51 89 90 61 17 5 12
22 33 38 67 93 105 110 112 111 110 108 108 107 104 89 63
63 73 51 38 55 72 86 98 79 98 88 81 54 1 1 0
0 0 0 0 0 0 0 1 24 28 27 27 26 27 26 27
27 27 27 27 28 26 27 27 27 27 27 26 26 26 26 25
26 25 24 23 23 26 26 24 24 23 21 19 16 13 10 7
9 4 0 0 0 0 0 0 0 16 8 4 2 2 0 0
9 39 26 20 14 9 4 0 0 4 0 10 33 35 32 33
31 18 4 7 17 19 16 27 44 34 59 70 56 35 17 23
28 45 60 82 88 99 108 111 111 110 109 108 108 108 101 93
73 82 71 65 78 90 106 85 94 112 111 95 78 8 6 2
0 0 0 0 0 0 0 5 25 27 27 27 27 27 27 27
27 27 28 27 28 27 27 26 26 26 26 26 25 24 23 22
24 24 23 23 22 20 17 14 10 8 6 6 6 7 8 10
8 5 0 0 0 0 0 0 0 26 39 31 27 26 22 13
14 42 22 18 21 25 27 25 21 18 15 19 36 34 32 32
33 21 9 10 16 20 16 49 64 25 36 77 69 43 28 37
33 79 81 98 100 102 106 110 111 112 111 109 110 108 107 105
102 94 82 95 108 110 105 93 109 111 109 107 88 22 4 3
0 0 0 0 0 0 0 15 26 27 27 27 26 27 27 26
27 26 27 27 27 26 26 24 24 24 24 25 25 24 22 20
17 14 12 10 9 8 8 8 9 10 11 12 13 13 13 13
8 5 0 0 0 0 0 0 0 27 41 29 35 37 41 41
38 42 16 8 10 9 10 10 12 14 20 26 25 22 27 30
30 13 17 19 11 12 16 82 89 39 46 74 75 50 41 51
35 85 85 99 103 104 106 108 112 111 112 111 111 111 108 101
101 95 90 102 110 108 101 100 104 107 106 104 96 29 4 5
0 0 0 0 0 0 1 24 27 26 27 27 27 27 27 27
27 26 26 27 27 27 26 27 26 20 18 15 13 11 10 9
10 10 12 12 13 13 14 14 15 15 16 16 13 11 17 18
8 11 13 8 3 0 0 0 0 27 34 29 37 39 42 43
35 28 15 9 10 9 9 9 7 6 6 5 5 6 9 12
21 24 17 9 12 12 48 99 105 67 52 75 80 60 49 58
35 83 84 99 104 106 108 110 111 112 112 112 111 111 107 101
98 86 88 103 108 105 92 55 95 109 106 97 99 29 6 9
2 0 0 0 0 0 6 25 27 27 28 27 27 27 27 27
27 26 23 22 20 16 15 17 28 14 8 11 12 13 13 14
14 14 15 16 16 17 18 19 19 19 20 20 20 17 12 20
9 15 33 37 35 30 22 17 12 31 25 29 36 38 41 43
38 31 19 10 10 9 7 6 5 5 6 5 6 6 6 6
20 23 24 11 15 27 84 106 108 98 52 74 85 68 58 60
45 86 85 102 105 108 110 111 111 111 111 111 111 109 106 100
96 96 91 102 107 103 98 104 98 83 103 92 95 24 5 11
9 1 0 0 0 0 18 26 27 27 27 27 25 23 20 18
15 14 13 12 13 14 14 12 23 13 12 15 17 18 17 18
19 19 19 21 21 21 21 21 22 21 20 21 21 21 18 12
9 15 34 38 37 36 36 37 38 38 14 17 26 30 36 40
37 33 21 11 9 7 5 5 5 7 6 6 7 7 7 9
23 11 32 17 12 52 98 105 109 110 81 57 78 72 65 59
54 84 88 106 109 111 112 112 112 112 112 111 110 107 105 100
96 93 95 104 109 103 89 102 111 87 94 89 91 19 6 7
12 7 0 0 0 5 24 23 22 20 16 14 13 13 13 14
15 16 16 16 18 19 18 17 24 15 16 19 21 21 21 21
22 22 23 22 22 21 22 22 22 23 20 22 23 23 23 16
8 13 33 38 38 37 37 37 38 37 4 0 0 1 4 11
15 24 24 10 8 4 0 0 0 2 8 9 7 6 11 12
23 28 32 20 25 80 100 105 109 111 106 67 52 62 53 46
69 75 100 107 111 112 111 112 112 111 111 110 107 106 105 100
98 92 96 107 111 108 76 93 111 94 88 86 78 18 6 8
4 2 0 0 0 8 14 14 14 15 16 17 17 18 18 18
19 21 21 21 22 22 22 20 25 17 18 22 22 23 23 23
24 24 24 24 25 24 24 23 21 22 22 20 23 22 23 23
13 15 27 30 30 32 33 35 39 35 2 0 0 0 0 1
8 24 24 8 6 4 0 0 0 0 2 3 0 0 4 4
20 32 25 14 56 94 98 100 101 105 107 90 65 52 57 71
81 95 104 108 112 112 113 112 112 112 112 109 106 105 101 95
97 95 99 107 111 106 85 97 105 93 99 86 56 18 5 5
1 0 0 0 1 14 19 19 19 20 21 21 22 22 23 23
24 24 24 24 25 25 24 18 10 7 19 23 25 25 25 25
24 24 25 24 24 24 23 23 23 21 22 20 22 23 23 23
13 15 16 18 20 24 23 24 33 32 2 0 0 0 0 0
0 24 26 7 7 3 0 0 1 0 0 0 0 0 0 0
18 33 25 30 89 104 99 101 102 102 104 100 84 84 89 94
98 99 105 108 109 111 111 111 112 111 111 109 106 103 100 96
95 93 100 107 111 94 84 98 101 106 95 88 32 17 7 6
0 0 0 0 5 21 23 23 23 24 24 25 25 24 25 25
25 25 25 25 25 25 24 14 0 0 15 23 25 26 25 25
25 25 25 24 24 24 24 23 23 22 20 20 19 21 21 22
11 14 13 13 15 23 22 23 34 31 1 0 0 0 0 0
0 22 21 4 1 0 0 0 5 4 1 0 0 0 0 0
17 33 26 41 89 102 106 111 110 107 105 103 88 89 91 98
101 102 105 109 110 111 112 112 112 112 111 109 101 102 94 96
99 93 95 106 110 87 93 110 109 106 101 61 17 13 7 7
0 0 0 0 11 24 25 25 26 26 26 26 26 26 26 26
26 27 26 23 19 13 22 11 6 1 14 24 25 26 26 26
25 24 24 23 23 23 22 22 21 21 20 19 19 19 21 21
9 14 14 20 22 26 25 28 34 31 1 0 0 0 0 0
0 25 17 0 0 0 0 0 1 6 5 0 0 0 0 0
17 34 27 19 67 82 82 79 101 111 107 101 87 86 95 101
103 104 106 110 111 112 112 112 112 112 111 107 102 101 101 100
97 95 92 103 106 107 110 110 108 99 82 42 19 14 8 1
0 0 0 1 17 27 26 26 26 27 27 27 27 27 27 27
27 27 15 0 0 1 18 11 1 0 13 24 25 25 26 25
24 24 23 23 23 22 22 22 21 20 20 20 17 16 18 18
13 12 0 1 4 8 12 18 22 27 1 0 0 0 0 0
0 26 18 0 0 0 0 0 1 8 11 6 3 0 0 0
16 34 28 10 23 51 68 61 63 84 94 91 87 84 97 104
105 107 108 111 111 113 112 112 112 112 110 107 103 100 97 97
95 92 93 100 104 104 106 108 99 81 63 51 24 14 5 0
0 0 0 3 24 28 27 27 28 27 27 28 28 28 28 27
28 27 21 14 20 24 25 16 0 0 12 24 26 25 26 24
24 24 23 23 22 22 21 21 20 20 20 20 20 17 16 14
18 15 0 0 0 0 0 0 0 13 1 0 0 0 0 0
0 28 15 0 0 0 0 1 10 11 11 9 5 0 0 0
17 35 30 19 20 19 36 69 92 80 75 85 91 86 96 104
107 107 109 112 113 113 113 113 112 112 112 108 102 99 96 98
94 91 89 96 105 108 108 103 85 64 60 45 20 10 2 0
0 0 0 10 28 28 28 28 28 28 28 29 28 28 28 28
28 28 28 27 27 26 25 17 0 0 14 24 25 25 25 24
24 23 23 22 21 21 21 21 20 20 19 19 20 18 16 14
16 15 0 0 0 0 0 0 0 12 1 0 0 3 0 0
0 26 13 0 0 0 0 1 14 15 13 4 2 0 0 0
14 34 31 22 15 2 15 56 86 92 88 93 94 92 96 103
108 110 111 112 112 113 113 113 112 112 109 104 100 98 91 92
91 87 88 94 102 99 95 86 70 64 62 53 25 11 6 4
0 0 1 20 28 28 28 28 29 28 28 29 29 29 29 29
29 28 28 28 27 26 26 21 3 0 16 24 26 25 25 24
23 22 22 21 21 20 21 20 20 19 19 19 19 19 16 13
18 16 0 0 0 1 0 0 0 10 1 0 1 13 7 1
0 27 12 0 0 0 0 0 1 9 8 0 0 0 0 0
12 34 33 22 13 7 27 62 84 86 82 93 94 96 101 104
109 111 112 113 113 113 113 112 112 111 108 106 101 96 92 92
90 85 82 88 99 84 64 85 83 72 68 57 25 13 11 6
0 0 10 28 29 29 29 28 29 29 29 29 29 28 29 29
28 28 28 28 28 26 25 21 11 6 20 25 26 25 25 23
23 22 22 21 21 21 21 19 19 19 18 18 18 17 16 13
14 13 0 0 0 10 2 0 0 10 2 0 7 13 9 3
0 27 10 0 1 0 0 0 0 7 9 0 0 0 0 0
9 34 32 11 9 0 43 70 94 94 86 90 93 96 105 107
109 111 113 113 113 113 112 111 112 109 107 105 100 98 96 89
88 85 80 90 95 83 95 104 91 74 67 49 14 10 14 7
1 3 17 29 28 29 28 28 28 28 28 29 29 29 29 29
28 28 28 28 28 26 24 21 19 18 22 25 25 25 25 23
23 22 21 21 20 19 19 19 18 17 17 17 17 16 15 12
13 14 0 0 6 17 4 2 0 12 17 10 17 16 14 11
2 28 10 0 0 0 0 0 0 6 11 0 0 0 0 0
5 35 31 7 10 1 42 70 80 93 97 94 91 93 105 110
110 112 114 113 113 113 113 112 110 107 108 104 102 96 94 85
85 80 80 84 93 87 100 103 88 74 65 42 8 11 10 6
3 7 25 29 28 29 29 29 29 29 28 28 29 29 28 29
29 28 28 28 27 27 25 22 22 22 25 26 25 24 24 23
23 22 21 20 19 19 19 18 17 17 17 17 16 15 13 9
11 13 0 0 1 5 1 0 0 13 34 32 37 36 35 37
37 41 11 0 0 0 0 0 0 7 12 0 1 1 0 0
3 33 28 5 3 1 29 62 67 56 81 91 91 92 103 112
111 112 113 113 113 113 112 109 109 109 109 103 99 96 90 85
77 72 79 88 94 91 101 102 86 73 63 41 5 8 9 8
8 26 28 29 28 28 29 28 29 28 29 29 29 29 29 29
29 29 29 28 28 26 25 23 22 24 26 25 25 24 24 23
22 22 21 20 19 18 17 16 17 16 16 15 15 16 15 11
13 15 3 1 0 0 0 0 0 11 33 32 36 35 35 39
43 43 25 12 15 9 5 3 3 8 14 2 2 0 0 0
2 23 28 4 2 2 24 33 41 37 41 58 69 89 104 110
112 110 112 113 111 113 111 108 110 108 105 100 97 95 88 83
79 76 78 84 94 96 102 100 82 72 61 44 3 7 9 4
19 29 28 29 29 28 29 28 29 29 29 29 29 29 29 28
28 29 28 27 27 27 25 25 24 26 26 25 25 24 23 22
21 20 20 18 17 17 18 17 16 16 15 15 13 13 13 9
13 14 14 2 0 0 0 0 0 11 33 31 34 34 34 41
44 44 33 27 28 27 25 24 25 24 22 19 17 14 14 14
17 25 31 13 12 13 25 36 54 70 72 65 51 73 100 108
113 111 110 110 110 110 109 107 107 104 99 101 99 95 84 77
76 72 77 84 93 97 102 96 80 68 61 48 9 3 1 7
27 29 28 29 28 28 28 29 29 28 28 28 28 29 29 29
29 29 28 27 27 26 25 24 25 25 24 23 23 23 22 22
21 20 19 17 17 16 15 16 16 14 14 14 13 13 13 9
13 15 9 0 0 0 0 0 0 11 30 27 29 29 29 30
27 27 28 29 29 29 28 26 29 29 27 26 24 22 21 20
20 26 35 26 24 21 26 51 70 80 82 85 88 86 95 107
110 108 107 110 111 108 108 108 104 101 100 101 96 87 84 78
71 72 79 84 93 100 102 93 77 67 61 47 14 0 1 19
28 29 28 28 28 28 29 28 28 28 28 28 28 28 27 27
27 27 26 27 26 26 25 26 26 25 25 24 24 22 21 20
19 18 17 17 16 16 15 16 14 15 14 13 13 13 13 8
16 17 5 0 0 0 0 0 0 10 33 27 28 28 29 29
27 26 28 30 30 32 31 31 30 30 29 28 31 34 32 29
28 31 38 37 36 36 37 47 57 80 92 94 94 91 96 101
105 106 101 106 106 107 108 105 102 99 100 92 88 83 81 74
69 73 79 84 97 101 100 90 74 66 61 47 20 0 6 25
29 29 29 28 28 28 28 28 27 27 27 28 28 28 27 28
27 28 27 27 27 26 25 26 26 25 25 24 23 22 21 19
19 19 18 17 16 15 14 15 14 13 14 13 13 13 12 8
13 13 20 21 19 14 13 11 8 14 36 28 28 29 29 29
29 31 33 31 32 35 38 37 32 28 29 28 35 37 37 33
34 33 29 24 22 23 28 48 39 59 81 85 90 92 97 94
102 104 102 99 103 105 105 104 100 98 97 91 86 82 79 70
68 78 80 88 95 101 100 87 73 67 61 47 22 0 5 26
28 28 28 28 29 28 29 28 29 28 28 28 28 28 28 28
28 28 27 27 27 27 27 27 26 26 24 24 22 22 21 19
19 17 17 16 15 15 15 15 13 14 13 13 13 12 13 9
15 13 28 34 37 33 35 39 40 39 38 31 31 31 31 31
34 36 39 32 33 35 39 37 32 29 24 26 36 38 36 34
34 34 32 27 22 21 22 42 41 54 75 83 87 91 95 94
97 103 102 102 103 104 102 101 95 92 95 87 80 76 73 69
74 84 84 93 98 102 98 87 71 66 60 46 23 3 14 24
29 29 29 30 29 29 27 27 28 27 28 28 28 28 28 27
27 28 28 27 26 26 27 26 25 25 24 23 22 21 20 19
18 17 17 16 15 15 14 14 13 13 13 12 12 12 11 7
15 14 30 41 40 40 41 40 42 41 40 29 26 25 26 27
31 37 41 34 34 34 32 32 34 32 28 23 30 30 29 29
33 34 33 32 27 25 25 38 55 68 84 89 88 88 90 87
93 99 100 99 100 99 97 99 93 91 87 88 81 76 68 70
79 87 89 97 99 100 97 88 70 65 62 48 22 14 27 27
29 29 29 29 29 29 28 28 28 27 28 28 28 27 28 27
28 27 27 27 26 27 27 27 26 25 24 24 22 21 20 18
18 17 16 14 15 14 14 14 14 13 13 13 13 12 12 9
14 12 18 25 27 28 31 33 36 38 38 8 6 4 2 3
5 11 33 35 33 17 8 14 16 16 19 27 27 8 1 1
4 10 13 26 29 26 27 39 61 78 92 94 90 88 91 85
94 95 98 99 96 97 96 90 90 88 82 80 71 75 73 80
82 87 91 97 100 100 93 85 69 64 63 50 18 22 29 29
30 29 29 30 29 29 28 27 27 27 27 27 27 28 27 27
27 27 26 25 22 23 24 26 26 24 23 23 22 20 19 18
18 17 17 15 15 14 14 15 14 13 13 12 12 12 12 9
14 10 14 18 19 19 19 19 20 20 25 5 0 0 0 0
0 0 26 35 25 1 0 0 1 6 12 30 28 5 0 0
0 3 10 24 18 19 23 43 63 78 89 93 95 97 97 92
93 93 92 90 91 94 87 84 79 78 78 73 72 75 78 81
88 92 94 100 101 100 93 84 68 63 63 52 24 28 29 29
29 29 29 29 29 28 27 26 26 26 26 27 28 27 28 22
11 10 7 6 4 5 18 27 26 25 24 22 22 21 19 18
17 16 16 15 14 14 14 14 14 13 14 13 13 12 13 10
12 9 17 24 24 25 24 24 24 24 28 7 2 0 0 0
0 7 28 34 13 0 0 0 0 0 12 30 29 7 0 0
0 1 9 22 4 0 4 43 61 76 85 93 94 98 99 92
94 89 87 65 70 87 79 74 73 73 67 69 77 80 83 88
88 91 99 103 101 99 93 82 67 62 66 54 30 29 29 29
29 25 22 19 16 13 10 8 5 7 9 24 28 27 28 21
4 4 4 4 3 4 19 27 26 26 24 23 22 21 20 18
17 17 17 16 15 14 14 14 15 13 13 13 12 12 12 10
10 9 17 24 25 26 27 28 29 29 29 7 0 0 0 0
0 8 27 32 6 0 0 0 0 0 9 31 28 7 0 0
0 0 7 23 5 1 14 41 58 75 85 89 88 92 91 88
91 85 81 69 69 71 71 67 67 66 72 82 85 88 87 87
88 97 99 102 102 98 91 81 66 63 69 59 38 28 29 29
24 5 3 5 6 7 2 2 2 1 2 21 28 27 27 21
4 4 3 4 3 3 18 27 26 25 24 22 22 21 19 18
17 17 16 15 15 14 14 14 14 13 14 13 13 12 12 10
11 10 18 24 25 26 27 28 30 30 30 7 1 0 0 0
3 0 20 29 2 0 0 0 0 0 8 31 27 8 0 0
0 0 4 23 6 1 6 33 51 66 77 78 82 85 81 76
75 73 71 67 69 62 62 67 68 72 81 86 90 92 91 91
91 101 104 100 102 100 93 81 65 65 72 62 45 32 29 29
24 5 2 6 5 6 2 1 2 1 2 18 27 27 27 18
4 4 5 3 4 4 16 26 26 25 25 23 22 21 19 18
18 17 17 16 15 15 14 12 14 14 13 12 12 13 12 11
16 15 17 18 19 21 15 9 14 24 34 10 0 0 0 0
3 1 18 29 1 0 0 0 0 0 8 31 25 7 0 0
0 0 0 21 8 1 4 20 47 55 68 71 74 75 71 65
64 64 62 62 59 65 71 73 76 80 89 93 95 97 93 97
97 101 102 101 103 101 92 79 65 68 75 69 52 55 53 32
24 5 2 5 5 6 3 1 1 1 1 18 27 27 28 20
4 4 4 4 3 3 13 27 26 25 24 23 21 21 18 17
16 15 15 15 14 14 14 14 14 14 14 13 14 13 13 11
15 16 15 16 15 16 10 0 0 12 36 18 3 0 0 0
2 0 15 29 1 0 0 0 0 0 7 32 25 9 0 0
0 0 0 21 11 1 5 6 30 48 55 55 63 64 59 59
59 59 66 64 68 72 73 79 82 88 93 99 100 101 98 97
101 104 105 106 105 103 93 78 63 69 76 73 59 36 53 81
37 5 2 5 7 6 4 1 2 1 1 18 27 27 27 21
5 5 5 6 6 5 10 25 24 23 22 22 21 20 19 18
17 17 16 16 15 14 14 14 13 13 13 13 12 12 12 11
16 15 15 15 15 15 11 0 0 9 36 15 1 0 0 0
3 1 15 29 1 0 0 0 0 0 3 32 25 11 0 0
0 0 0 19 15 0 0 0 1 21 42 46 49 51 54 57
56 57 66 61 64 72 75 78 88 92 100 104 103 105 102 101
104 106 107 108 107 101 94 76 64 72 79 77 65 34 23 89
96 16 2 5 7 7 3 1 2 1 2 17 27 27 27 23
12 11 11 11 11 10 16 23 25 25 24 23 22 20 18 18
17 16 16 16 14 14 13 13 13 13 13 13 12 12 12 11
9 9 10 11 13 14 12 0 0 6 32 9 0 0 0 0
0 0 14 30 1 0 0 0 0 0 1 31 25 9 0 0
0 0 0 16 20 0 0 0 0 1 28 30 27 33 38 44
49 55 61 61 68 72 79 86 90 94 102 104 107 106 106 107
107 108 108 109 109 103 93 76 65 75 82 79 70 50 13 67
105 73 2 4 5 4 3 1 2 1 1 15 27 28 27 24
6 5 5 3 1 0 2 2 1 4 24 23 21 20 19 18
17 16 15 15 15 14 14 14 13 13 13 13 12 12 11 11
0 0 0 1 10 14 13 0 0 4 27 7 0 0 0 0
0 0 12 33 2 0 0 0 0 0 0 30 25 11 0 0
0 0 0 13 24 0 0 0 0 2 28 29 24 29 30 39
20 15 27 48 63 74 83 89 88 98 100 103 107 107 107 108
108 108 110 109 107 102 91 73 67 78 85 83 76 65 26 61
96 108 28 2 2 1 2 1 2 1 1 15 27 28 28 25
7 5 5 2 0 2 5 21 8 2 23 22 21 20 18 18
17 16 15 14 14 13 13 13 14 13 13 12 12 12 11 11
0 0 0 4 15 14 13 1 0 2 25 8 0 0 0 0
9 5 12 35 12 6 6 8 7 6 8 31 27 24 24 24
24 26 28 33 28 3 2 2 2 3 26 27 23 28 48 60
24 8 13 34 48 59 74 86 96 97 101 104 105 106 107 106
107 109 110 111 108 103 89 72 69 81 89 86 81 72 39 71
93 110 75 3 0 0 3 2 2 1 1 15 27 28 28 25
7 5 4 2 0 0 1 4 1 1 22 22 21 20 19 18
17 16 15 15 15 15 14 14 13 13 13 12 12 12 12 11
0 0 0 2 15 14 13 2 0 0 23 25 26 22 21 26
35 34 33 32 39 39 35 35 38 38 38 39 29 24 32 34
36 38 42 44 39 27 26 26 25 26 28 26 23 32 80 59
18 17 24 52 55 55 62 77 90 97 102 102 101 102 105 105
105 110 109 110 109 104 89 71 70 84 90 89 86 80 61 69
98 106 106 39 2 5 7 2 3 2 1 14 27 28 28 25
7 5 5 2 0 0 0 0 0 0 21 22 21 19 19 18
17 16 15 15 15 14 13 14 13 13 12 12 12 12 11 11
0 0 0 2 16 14 13 2 0 0 21 28 30 25 27 33
38 33 31 27 38 41 38 37 36 40 40 40 32 22 29 32
34 40 44 45 40 25 25 25 25 26 26 26 25 56 98 57
19 26 30 59 64 60 61 66 81 94 96 98 97 102 103 101
106 108 109 110 110 102 89 71 73 85 93 91 88 85 77 59
105 106 111 88 7 1 3 3 3 2 1 13 27 27 28 25
7 3 4 1 0 0 0 0 0 0 19 9 3 5 16 18
17 16 15 14 14 13 13 13 12 12 11 12 11 10 11 11
0 0 0 1 16 14 12 3 0 0 19 27 25 23 27 32
38 36 30 25 25 31 31 31 30 30 30 30 29 20 21 25
27 29 27 25 27 25 26 26 26 26 26 26 28 92 116 86
29 25 39 64 68 70 67 66 69 83 94 99 97 101 102 104
106 108 111 109 109 102 90 73 76 87 94 94 92 90 85 58
105 107 111 102 47 4 4 3 4 4 2 13 27 27 29 26
7 4 4 0 14 15 0 0 0 0 4 14 19 8 6 18
16 15 15 14 13 13 13 12 12 12 12 11 11 11 11 10
0 0 0 0 16 14 13 4 0 0 17 23 16 19 18 23
35 36 32 27 20 18 19 19 19 19 19 20 23 23 24 26
26 26 24 22 23 25 26 26 26 26 27 26 36 111 115 103
65 23 51 67 72 81 79 77 72 72 83 93 99 102 106 107
108 111 111 111 109 103 90 75 79 88 96 97 95 93 91 60
100 107 112 107 96 91 79 64 36 9 2 12 27 27 28 25
7 4 4 4 26 38 4 0 0 8 22 21 20 18 1 17
16 15 15 15 14 13 13 12 12 11 11 12 11 11 11 10
0 0 0 0 15 14 12 6 0 2 19 22 6 9 11 14
21 24 23 28 22 19 20 21 26 26 25 25 28 29 29 33
33 32 27 25 24 25 26 26 27 26 27 28 55 117 115 107
95 42 48 76 86 93 94 89 82 77 74 87 98 103 107 111
110 112 112 112 110 102 89 76 81 88 98 102 102 99 97 74
102 107 112 109 102 101 107 111 111 105 76 50 34 28 29 27
10 4 4 2 6 12 4 0 0 12 22 21 20 19 4 15
17 16 15 15 13 13 13 12 12 12 11 11 11 12 11 11
0 0 0 0 14 14 12 9 10 16 23 22 0 0 0 0
0 4 7 27 26 30 34 28 38 42 31 25 26 27 28 32
34 37 30 26 25 26 27 26 27 27 31 57 94 116 115 111
102 75 60 81 90 99 104 105 100 90 83 84 94 103 108 111
112 112 112 113 111 102 88 80 87 93 100 105 107 105 99 96
97 110 112 112 105 101 108 112 112 111 111 112 110 98 68 31
11 5 6 0 2 2 0 0 0 12 24 22 20 19 5 14
17 16 15 15 14 14 13 12 12 13 12 12 12 12 12 11
0 0 0 0 12 14 12 14 27 29 32 24 0 0 0 0
0 0 6 32 25 31 37 29 40 44 17 1 2 1 3 3
16 37 32 27 27 26 27 27 32 57 91 99 107 116 114 114
102 93 94 85 93 100 106 108 108 103 96 91 93 99 105 110
113 114 113 113 111 102 87 84 93 97 100 106 109 109 98 111
101 111 113 113 107 104 109 112 112 112 111 112 112 112 111 101
67 41 15 3 0 0 0 0 0 9 24 23 21 20 5 17
17 16 15 15 14 14 14 14 13 13 13 13 13 12 12 12
0 0 0 0 12 16 12 15 28 30 33 29 0 0 0 0
0 0 2 35 25 29 34 6 8 18 17 0 0 0 0 0
12 37 33 28 29 29 43 74 94 100 102 99 110 116 116 116
106 98 113 90 97 103 108 112 112 110 105 99 98 100 105 110
113 114 114 114 112 101 89 89 98 103 105 108 111 105 108 111
106 111 113 113 109 110 111 112 113 113 112 112 112 112 112 112
112 111 95 40 1 0 0 0 0 11 26 24 23 19 5 19
19 17 17 17 16 15 15 14 14 13 13 13 13 13 12 13
0 0 0 0 10 15 12 14 23 24 24 21 1 0 0 0
0 0 2 35 24 30 33 2 0 13 18 0 0 0 0 0
8 36 34 36 65 96 115 111 102 102 102 96 114 117 116 116
111 103 116 107 98 105 110 113 115 113 111 107 103 102 104 108
111 114 114 114 111 102 91 95 102 106 109 111 110 111 114 112
110 112 113 114 110 111 109 113 111 112 112 113 113 112 112 112
113 112 113 111 81 25 0 0 0 9 25 23 21 7 13 16
11 10 17 17 16 15 13 14 14 13 13 12 12 12 12 12
0 0 0 0 9 15 12 10 2 3 6 3 0 0 0 0
0 0 3 36 25 31 34 3 0 11 19 0 0 0 0 0
10 61 90 112 116 116 117 110 100 99 97 101 116 116 115 116
113 110 116 115 107 104 111 114 115 115 114 111 107 105 104 104
107 112 113 113 111 102 93 97 107 111 113 111 112 114 114 111
112 112 112 112 111 111 109 111 112 112 112 112 112 113 112 112
112 112 112 111 112 112 89 47 9 0 2 2 1 1 9 10
6 6 16 16 15 14 14 13 14 13 12 13 13 13 13 12
0 0 0 0 6 15 11 9 3 3 6 3 0 0 0 0
0 0 3 34 24 31 34 3 0 9 22 0 0 0 17 63
104 116 116 116 116 116 116 105 93 94 96 106 116 116 115 116
115 115 116 116 115 110 110 114 114 114 114 114 112 109 106 103
103 111 114 114 111 102 95 101 110 112 113 113 114 113 114 113
113 112 111 113 110 109 109 107 112 112 112 112 112 113 113 112
113 113 112 112 112 111 111 111 107 66 13 0 0 0 5 7
35 45 20 16 15 14 14 13 13 12 12 12 12 11 12 13
0 0 0 0 6 14 10 10 6 5 8 4 0 0 0 0
1 0 1 33 24 31 34 3 2 9 22 1 20 70 111 116
116 116 117 116 116 116 114 98 93 97 98 110 116 115 115 115
115 115 115 116 115 115 115 114 114 114 114 113 114 109 102 95
98 110 113 113 109 101 99 108 112 114 114 114 114 113 113 112
113 112 109 112 110 109 109 103 112 112 112 113 112 112 112 112
112 112 112 111 111 111 112 112 111 110 102 35 0 1 12 7
42 36 13 5 3 9 14 14 14 13 13 13 12 12 12 12
0 0 0 0 6 15 10 9 8 8 10 4 0 0 0 0
1 0 0 32 25 31 34 8 2 8 31 70 112 115 116 116
116 116 116 116 116 116 113 102 93 97 100 112 115 115 116 116
115 115 116 116 115 115 115 115 114 114 113 113 113 105 97 93
96 108 112 113 110 105 109 113 114 114 113 113 114 114 114 113
113 113 109 112 112 111 109 99 111 112 112 112 112 112 112 112
113 112 112 112 112 112 111 111 111 111 109 107 50 1 0 0
0 0 1 1 0 9 17 16 16 16 16 15 16 15 15 16
0 0 0 0 5 14 11 9 9 10 11 5 0 0 0 0
5 7 0 30 26 33 34 17 12 49 104 116 114 114 116 116
116 116 115 116 115 116 114 105 100 103 105 87 112 116 115 115
115 115 116 115 115 115 115 115 115 115 115 114 113 110 102 96
97 109 114 114 114 114 114 113 114 114 114 113 113 114 114 113
112 111 111 75 68 112 108 98 111 112 113 112 112 112 112 112
111 112 112 111 111 111 111 111 111 111 111 110 108 60 2 0
0 0 1 1 0 7 13 11 10 9 8 6 4 3 3 3
0 0 0 0 4 14 10 10 10 10 11 7 0 0 0 0
5 13 5 27 29 34 35 42 100 116 116 116 115 115 117 117
117 116 116 116 115 115 113 106 104 107 108 59 109 116 116 115
115 116 116 115 115 115 115 115 115 114 114 115 114 115 114 115
115 115 115 114 114 114 114 114 113 114 114 113 114 114 114 113
112 108 112 65 24 108 109 100 109 112 112 112 112 112 112 112
112 112 113 112 112 112 112 112 112 111 112 110 111 105 74 3
0 0 0 2 17 19 19 20 21 22 22 23 24 26 26 27
0 0 0 0 3 14 11 9 11 10 11 16 11 16 16 17
21 28 28 36 33 37 81 113 113 115 115 115 116 114 116 116
116 116 116 115 115 115 110 108 107 108 103 63 114 116 115 115
115 115 115 115 115 115 114 115 115 115 114 114 114 114 114 114
114 113 113 114 114 114 114 113 114 113 114 114 114 113 113 112
111 109 111 82 15 106 107 101 109 112 113 112 112 112 112 111
111 112 111 112 111 111 111 111 111 112 111 111 111 109 109 68
1 0 0 8 31 30 30 29 29 28 28 29 29 29 28 28
0 0 0 0 3 13 10 9 11 12 12 22 30 32 33 35
38 42 44 46 42 82 115 114 116 116 116 116 116 115 116 116
116 115 116 115 115 112 105 108 108 107 94 64 105 116 115 115
116 115 115 115 115 115 114 114 114 114 115 114 114 114 115 114
114 114 114 114 113 114 113 113 113 112 113 113 113 113 113 111
109 110 111 93 20 106 108 102 108 112 112 112 112 112 111 111
112 112 112 112 111 111 112 111 112 112 111 111 111 110 110 110
52 0 0 10 32 30 30 29 29 29 28 29 28 28 28 28
0 0 0 0 3 14 10 9 11 13 12 20 34 34 35 36
39 43 45 49 83 112 116 115 116 116 116 116 116 115 116 116
115 115 115 116 115 113 107 110 109 107 101 77 101 115 113 115
114 114 115 115 115 115 114 115 114 114 114 114 114 114 114 114
114 113 113 114 114 113 114 114 113 113 114 113 113 113 113 110
109 110 110 81 32 109 108 104 111 112 112 113 112 112 112 112
112 112 112 111 111 111 111 111 111 112 112 111 112 111 110 111
106 35 0 12 32 30 30 29 29 29 28 28 29 29 28 28
0 0 0 0 2 13 10 8 11 12 13 11 20 20 20 21
23 26 28 54 112 115 116 115 116 116 116 116 116 115 116 116
116 116 116 116 115 115 111 111 111 105 104 92 93 115 115 115
115 115 115 115 115 114 114 115 114 114 114 114 114 114 114 114
114 114 114 114 114 113 113 113 113 113 113 113 113 114 113 110
109 112 108 60 61 112 111 109 112 112 112 111 112 112 112 112
112 112 113 112 112 112 112 112 112 112 112 112 111 111 111 111
110 98 11 14 31 30 30 29 29 29 29 28 28 29 28 28
0 0 0 0 2 13 10 9 11 13 14 9 7 6 8 9
11 17 31 92 115 116 116 115 116 116 116 116 116 115 116 115
116 115 115 115 115 115 114 112 113 105 107 107 90 114 115 114
115 115 115 115 114 114 114 115 114 114 115 115 114 114 114 114
114 114 113 113 113 113 113 113 113 113 113 113 114 114 112 110
108 112 104 60 94 111 111 111 112 112 113 113 113 113 112 112
111 112 112 112 112 111 112 112 112 111 112 112 111 112 111 111
111 108 65 17 31 30 30 29 28 29 29 28 28 28 28 28
0 0 0 0 2 13 10 8 10 13 14 10 9 10 10 11
14 28 81 101 117 116 116 115 116 116 115 116 115 116 116 116
116 116 115 116 116 115 115 113 112 106 107 111 100 103 115 114
115 114 115 115 115 115 115 114 114 114 114 115 114 113 114 114
114 114 114 113 114 113 114 113 113 113 113 114 113 113 112 108
110 111 108 66 102 112 113 112 112 112 112 111 112 112 111 111
112 113 113 112 112 112 112 112 112 112 112 111 111 111 111 111
111 109 108 54 30 31 30 30 29 29 28 28 28 28 28 27
0 0 0 0 2 13 11 9 11 14 15 15 14 14 14 15
17 62 109 103 117 116 116 115 116 116 116 116 116 116 116 116
116 115 116 115 115 115 115 114 113 106 109 111 94 87 111 115
114 114 115 115 115 115 115 115 115 114 114 114 114 114 114 114
114 113 113 113 113 113 113 113 114 113 114 114 113 114 112 109
110 108 109 88 100 112 112 112 112 112 112 112 112 112 113 112
112 112 112 112 111 112 111 111 111 111 111 111 111 111 112 111
111 110 110 104 43 30 30 29 29 28 28 28 28 28 28 27
0 0 0 0 3 15 10 8 11 14 14 15 14 14 15 16
40 107 111 108 117 116 116 116 116 115 115 116 115 116 116 116
116 116 116 116 116 115 116 115 114 109 109 111 94 78 86 103
116 115 115 115 115 115 115 115 114 114 114 114 114 114 114 113
114 114 114 113 114 114 114 113 113 113 113 113 113 113 112 110
112 111 112 112 101 112 112 112 112 112 112 112 113 112 112 112
113 112 112 112 112 112 112 111 112 112 111 111 111 111 112 111
111 111 108 109 88 32 30 30 29 29 29 28 28 28 27 28
4 4 5 5 7 9 8 9 11 14 14 15 15 14 15 23
91 112 114 110 115 115 115 115 116 116 116 115 116 116 116 116
116 115 115 115 115 115 115 115 115 115 113 112 95 79 88 93
111 114 114 114 114 115 115 114 114 114 114 114 114 113 113 113
113 113 113 113 113 113 113 113 113 113 113 113 113 113 111 111
111 112 112 112 110 111 111 112 111 112 111 112 112 112 112 111
112 111 112 111 112 112 111 111 111 111 111 111 111 111 111 111
111 111 109 106 111 66 29 28 28 28 28 27 27 28 28 28
6 6 5 5 6 7 8 8 11 13 14 15 15 15 19 75
112 112 116 112 116 116 115 115 115 115 115 115 115 115 116 115
116 116 116 115 115 114 115 114 114 115 114 114 103 79 92 93
107 114 114 114 114 114 114 114 114 114 113 113 114 113 113 113
113 113 113 113 113 113 112 113 114 113 112 113 113 112 111 111
112 112 112 112 112 112 94 109 113 112 112 112 112 112 112 111
111 112 111 111 111 111 111 111 111 111 111 111 111 111 111 111
111 110 110 105 110 102 35 29 29 28 28 28 27 27 27 27
5 5 6 5 7 7 8 9 11 13 15 15 16 17 52 106
112 114 116 112 116 115 114 114 116 116 116 116 116 116 116 116
115 115 115 115 116 115 115 115 115 115 115 115 109 87 100 106
107 112 114 114 114 115 114 114 114 114 114 114 114 114 114 114
113 114 113 113 113 113 113 112 113 112 113 113 113 112 111 112
112 112 113 112 112 112 110 112 113 112 112 111 112 112 112 112
111 112 112 111 111 111 111 111 111 111 111 111 111 111 111 111
111 111 110 106 111 110 62 28 28 28 28 27 27 28 27 27
6 6 6 6 6 7 7 7 11 12 14 15 16 33 102 106
112 115 116 114 116 116 114 112 115 115 115 115 115 115 115 115
115 116 115 116 115 115 114 114 115 115 114 114 110 111 86 110
111 114 113 114 114 114 114 114 114 114 113 113 113 113 113 113
113 114 113 113 113 113 113 113 113 113 113 113 113 112 110 111
112 112 112 112 112 111 112 112 112 112 112 112 112 112 112 111
111 111 111 111 111 111 112 111 111 111 111 111 111 111 111 110
110 110 110 104 111 110 96 31 28 29 28 28 27 27 27 27
1 1 0 0 0 3 5 6 14 13 14 15 18 64 107 101
115 115 116 114 116 115 114 111 116 116 115 115 115 115 115 115
115 115 115 115 115 115 114 114 114 115 115 115 115 111 113 112
114 114 113 114 114 113 114 113 114 113 114 114 113 114 113 113
113 113 113 113 113 113 112 113 113 112 113 112 113 112 111 112
113 112 112 113 111 111 111 111 111 112 112 111 112 112 111 111
111 111 112 111 111 111 111 111 111 111 111 111 110 110 111 111
111 111 110 107 110 110 109 52 28 28 28 27 27 27 27 27
0 0 0 0 0 4 8 8 12 12 14 15 48 112 100 107
116 116 116 115 115 116 114 111 116 115 115 115 114 114 115 115
115 115 115 115 115 115 115 115 115 115 115 114 114 114 113 111
113 114 114 113 114 114 114 113 113 113 113 113 114 113 113 113
113 113 113 113 113 113 113 113 113 112 113 113 112 113 110 111
112 112 112 112 111 111 111 111 112 112 112 112 111 111 112 111
111 111 111 112 112 111 111 111 111 111 111 111 108 109 110 110
110 111 110 109 110 110 111 79 28 28 28 27 27 27 26 26
0 0 0 0 0 3 7 9 11 12 14 17 84 116 102 112
116 115 116 115 115 116 113 111 116 115 115 115 115 116 116 116
115 115 115 115 115 115 115 115 115 115 115 115 114 115 114 111
112 114 113 114 113 114 114 114 114 114 114 114 114 113 113 113
113 114 113 113 113 112 112 113 113 113 112 113 113 112 111 112
112 112 112 112 112 111 111 110 111 111 111 111 111 112 112 111
112 112 112 111 111 112 111 111 111 111 111 111 110 110 111 110
110 111 110 111 110 110 110 100 32 28 28 27 27 26 26 27
0 0 0 0 0 3 9 11 12 14 16 46 106 113 107 115
116 116 116 115 116 115 113 112 116 115 115 115 115 115 115 115
115 115 115 115 115 115 115 115 115 114 115 115 115 114 114 112
111 114 114 114 114 114 114 114 114 114 114 114 114 113 113 113
113 112 113 113 113 113 113 113 113 113 113 113 113 112 109 111
112 111 112 112 112 111 111 111 111 111 111 112 112 112 112 112
112 112 112 111 111 112 111 111 111 111 111 111 111 111 111 110
110 110 110 111 110 110 110 109 46 27 27 27 27 26 26 26
1 1 0 0 0 5 10 13 15 17 20 82 109 107 116 115
115 116 116 115 115 115 113 110 115 115 115 115 115 115 116 115
115 115 115 115 115 115 115 114 114 115 115 114 115 115 115 112
108 113 114 113 114 113 114 114 114 113 114 114 113 113 114 114
113 113 113 113 113 112 113 112 113 113 113 113 113 112 109 111
112 112 113 112 112 111 111 111 111 111 112 111 112 112 112 112
111 112 112 112 112 111 111 111 111 111 111 111 110 107 111 110
112 111 111 110 110 110 110 110 67 27 27 27 26 26 26 26
2 2 2 3 5 8 9 10 15 15 19 90 109 101 117 116
116 115 115 115 115 115 114 112 115 115 115 115 115 115 115 115
115 115 115 115 115 115 115 115 115 115 114 114 114 115 114 114
108 110 114 114 114 115 114 114 114 114 114 113 113 113 113 113
113 113 113 113 113 113 113 113 113 114 113 113 112 112 110 109
111 112 112 112 111 111 111 111 111 112 112 112 112 112 112 112
111 112 112 111 111 111 111 111 111 111 111 111 110 104 111 111
111 111 110 110 111 110 110 110 90 28 27 27 26 26 26 25
5 4 3 3 2 1 1 1 13 15 22 98 110 101 117 116
116 116 116 115 115 115 114 113 115 115 115 115 115 115 116 115
115 115 115 114 114 115 115 114 115 114 115 115 114 115 115 114
114 110 114 114 114 114 114 114 113 114 114 113 113 113 113 113
113 113 113 113 113 113 113 113 113 114 113 113 113 113 111 107
112 112 113 112 112 112 112 112 111 112 111 112 112 112 112 112
111 112 112 112 112 112 111 112 111 112 111 111 111 109 111 111
111 110 110 111 110 108 110 110 105 34 26 26 26 26 25 25
0 0 0 0 0 0 0 0 12 15 25 101 110 102 116 116
115 115 115 116 115 115 114 114 115 115 115 115 115 116 116 115
114 115 115 114 115 114 114 115 115 114 114 114 115 114 114 114
114 113 113 114 114 114 113 113 114 113 113 113 114 113 113 113
113 113 114 113 113 113 113 113 113 112 113 113 113 112 111 106
111 111 112 112 112 112 111 112 111 112 112 112 112 112 112 111
111 111 111 111 111 111 111 111 111 111 111 111 111 111 111 111
111 110 111 110 110 108 110 110 109 49 25 26 26 25 25 25
