P2
128 120
125
26 26 25 25 24 24 23 23 22 22 22 22 21 21 21 20
20 19 19 18 17 17 17 16 16 16 16 15 15 15 14 13
13 13 12 12 11 11 11 10 10 9 7 6 5 5 6 8
8 10 11 7 3 11 14 12 11 10 10 9 8 7 6 3
2 3 2 6 7 6 7 4 7 8 9 9 11 11 11 11
11 12 12 12 12 13 13 13 14 14 14 15 15 16 16 16
17 17 17 17 18 18 18 19 19 20 20 20 21 22 22 22
22 22 22 24 23 23 24 23 23 23 23 23 23 23 23 23
26 25 25 24 24 24 24 24 23 23 22 22 21 21 21 20
20 19 19 18 18 17 18 17 17 16 16 15 15 15 15 14
14 13 13 12 12 12 12 11 11 10 8 8 6 6 6 10
11 12 13 8 3 12 16 13 12 11 11 9 9 8 7 4
4 3 3 5 7 8 6 8 9 10 11 11 11 12 12 13
12 13 13 13 14 14 14 14 15 15 16 16 16 15 16 16
16 18 19 18 18 19 20 21 21 21 21 21 21 21 22 22
22 23 22 23 23 23 23 24 23 24 23 23 23 23 24 23
27 26 25 25 25 24 24 24 23 23 22 23 22 21 21 21
20 20 19 18 18 17 17 17 16 16 16 16 16 15 15 14
14 14 13 12 12 12 11 11 11 10 9 8 7 8 8 12
13 14 14 9 2 12 16 13 12 12 11 10 10 9 8 8
8 6 3 4 7 7 7 8 11 11 12 12 13 13 13 13
13 14 14 14 14 14 16 16 16 16 16 16 17 17 18 18
18 19 20 18 19 20 20 21 20 20 21 21 22 22 23 23
23 23 24 25 23 23 23 23 24 23 23 24 24 23 24 24
26 25 25 25 25 24 24 23 23 23 23 22 22 21 21 20
20 19 19 19 19 19 18 18 17 17 16 16 16 15 16 15
14 14 13 12 12 12 12 11 11 11 10 9 8 8 9 13
14 15 15 9 3 11 17 14 13 13 12 11 10 10 7 8
9 8 5 4 9 7 9 10 12 12 13 13 14 14 14 14
13 14 14 15 14 15 16 15 16 15 17 17 17 18 18 18
18 19 20 19 20 20 20 21 21 21 21 22 22 21 22 22
23 23 22 24 23 23 23 24 24 24 24 23 24 24 25 23
26 26 26 25 25 24 24 24 23 23 22 22 22 21 21 20
20 20 19 19 18 18 18 17 17 16 16 17 16 16 15 15
15 15 14 13 13 13 12 12 12 11 11 10 9 9 10 14
15 15 16 9 3 10 17 14 13 13 13 12 11 11 9 10
9 9 6 3 10 8 10 11 13 13 13 13 14 15 15 14
15 15 15 15 16 15 16 17 17 17 17 18 18 18 19 19
19 20 21 20 20 21 21 21 21 21 21 22 22 22 22 23
23 23 23 24 22 23 23 24 23 24 24 22 22 23 24 25
26 25 26 25 24 24 24 24 23 23 23 22 22 21 21 21
21 20 20 20 19 19 18 17 17 17 17 17 16 16 15 14
14 14 14 13 13 13 13 13 12 12 11 11 11 11 11 15
15 16 15 10 3 9 17 14 14 13 13 12 11 11 10 10
10 10 8 3 10 9 11 12 13 14 15 14 15 15 15 15
15 15 15 16 17 16 17 17 18 17 17 18 18 18 18 19
19 19 21 20 20 21 21 21 22 22 22 22 22 22 22 22
23 22 22 24 23 23 22 21 22 23 23 24 25 23 23 24
26 25 25 25 25 25 24 24 23 23 22 22 22 22 21 21
21 20 20 19 19 18 18 17 17 17 16 17 16 16 15 15
15 14 15 14 13 13 13 13 12 12 12 12 12 13 12 16
16 16 16 10 5 9 18 15 14 13 14 13 12 12 11 11
11 11 9 4 10 9 12 13 14 14 15 14 15 14 15 15
16 16 17 17 17 18 17 17 17 17 17 18 18 18 19 19
20 20 21 20 20 21 21 21 22 21 22 21 22 22 23 23
23 23 23 22 22 22 23 24 24 23 23 23 23 23 24 24
26 25 25 24 25 24 23 23 23 22 22 22 21 22 21 21
21 21 20 19 19 19 19 18 18 18 17 16 16 16 15 15
15 15 14 13 14 14 13 13 12 12 12 12 12 12 13 16
16 17 17 11 6 8 17 16 14 14 14 13 13 12 12 11
11 11 9 5 10 10 12 14 14 13 14 14 15 16 16 16
16 16 17 17 17 17 17 17 18 18 19 19 19 19 19 19
19 20 21 20 21 21 21 21 22 22 21 22 23 22 22 21
21 21 22 23 23 23 23 24 23 23 23 24 24 23 24 24
26 26 26 25 24 24 24 23 23 23 22 22 22 22 22 21
21 20 20 20 20 19 19 18 18 18 17 17 16 16 16 16
15 15 15 14 14 14 14 13 13 12 13 12 13 13 14 17
16 17 17 11 8 7 18 16 15 15 14 14 14 14 15 12
11 12 11 6 11 11 14 14 15 15 16 16 16 16 17 17
17 17 18 17 17 18 18 18 18 18 19 19 19 19 20 19
20 21 22 21 21 21 22 22 23 22 20 20 22 22 22 23
24 23 23 23 23 24 24 23 23 23 24 23 24 24 24 24
26 25 25 25 25 24 24 24 23 24 22 23 22 22 21 21
21 20 20 20 20 19 19 18 18 17 17 17 17 16 16 15
16 15 15 15 15 15 14 14 14 13 13 13 13 13 14 17
17 18 17 12 8 7 18 17 15 15 15 15 14 14 14 12
12 12 11 9 12 12 15 15 16 16 16 17 17 17 17 18
17 17 17 17 17 18 18 18 18 19 19 19 19 20 20 20
21 21 22 21 21 22 22 21 20 21 23 23 23 22 23 23
23 23 22 23 23 24 24 23 24 24 24 23 24 24 24 24
26 25 25 25 25 24 24 23 23 23 23 23 22 22 22 22
21 21 21 20 20 20 19 18 18 18 18 17 17 17 16 16
16 16 15 15 16 15 15 14 14 14 13 13 13 14 15 18
19 18 19 13 10 7 18 17 15 14 16 15 15 14 15 12
13 13 13 10 13 14 16 16 17 17 17 18 17 17 18 18
18 18 18 19 19 18 19 19 19 19 19 19 19 20 20 21
21 21 23 21 20 19 20 22 23 22 22 24 23 23 22 23
23 23 23 24 23 24 25 24 24 24 23 23 24 23 24 23
25 25 25 25 25 24 24 24 24 23 23 23 22 22 22 21
21 21 20 20 20 19 19 18 18 18 18 17 18 17 17 17
17 16 15 15 15 14 15 15 14 14 14 13 13 14 15 18
19 18 18 14 11 5 14 17 15 15 16 16 15 15 16 13
14 13 13 9 14 14 16 17 17 17 17 17 18 18 18 18
18 18 18 18 18 19 19 19 19 19 20 20 20 21 21 21
20 19 19 20 22 22 22 22 22 23 23 23 23 23 23 23
23 24 24 24 24 24 24 24 24 24 24 24 24 24 25 24
26 26 26 25 25 24 24 24 23 23 23 23 22 22 22 22
22 21 21 20 20 20 19 19 18 18 18 17 18 17 16 17
17 17 16 16 15 15 15 15 14 14 14 14 14 14 15 19
20 20 20 13 9 2 14 18 17 17 17 16 15 15 16 14
15 14 14 11 15 15 17 17 18 18 17 18 18 18 18 19
18 19 19 19 19 19 19 20 20 20 20 20 20 19 19 20
21 22 22 22 23 23 23 23 23 23 23 24 23 23 24 23
24 23 24 23 24 24 24 24 24 24 24 24 24 24 24 24
26 25 25 25 25 25 25 24 24 24 24 23 23 22 22 22
21 21 20 20 20 19 19 19 19 18 18 18 18 17 17 17
17 17 16 16 15 16 15 15 15 15 14 14 14 15 16 20
20 20 19 14 10 8 15 19 17 17 18 17 16 16 16 15
15 15 14 11 16 15 17 18 18 18 18 18 19 18 19 19
19 19 19 19 19 20 20 20 20 20 20 20 21 21 22 21
22 22 22 22 22 22 23 23 23 23 23 24 24 24 25 24
24 24 24 23 24 24 25 24 24 24 25 23 24 24 24 24
26 25 26 25 24 25 25 24 24 23 23 23 23 22 22 22
22 21 21 21 20 20 19 19 19 19 19 19 18 18 18 17
17 17 16 16 16 16 15 15 16 14 14 15 15 16 16 20
20 20 20 15 12 12 14 20 18 18 17 17 16 16 17 15
15 15 15 12 17 17 18 18 19 18 18 19 19 19 19 19
19 19 20 20 20 20 20 20 21 21 21 21 21 21 21 22
22 22 22 22 23 23 23 24 24 24 24 25 24 24 24 24
24 24 24 24 24 24 24 24 24 24 25 24 24 24 24 25
25 25 25 25 25 25 24 24 24 24 24 23 22 22 22 22
22 22 22 21 21 20 20 20 19 19 19 19 19 18 18 17
17 17 16 16 17 16 16 15 16 15 15 15 15 16 17 20
20 20 20 14 12 14 13 20 18 18 18 18 18 18 18 16
16 16 16 12 18 17 19 18 19 19 19 19 19 19 19 19
20 20 19 19 19 20 20 20 21 21 22 21 22 22 22 22
23 22 23 23 23 23 24 24 24 24 24 25 24 24 24 24
25 24 24 24 24 23 24 24 24 24 25 25 25 25 25 25
26 25 26 25 25 25 24 24 24 23 23 23 23 22 22 22
22 21 22 21 20 20 20 19 20 19 19 18 18 18 17 18
17 17 17 17 17 16 16 16 15 15 15 15 15 16 17 20
21 21 20 15 12 16 12 20 19 18 18 18 17 17 18 16
17 17 16 13 18 17 19 20 20 19 19 19 19 19 19 19
19 20 19 20 20 21 21 21 21 21 22 21 22 21 22 22
22 23 23 23 24 23 24 24 24 24 24 25 24 24 24 24
24 23 24 25 24 24 24 24 24 25 25 24 24 23 24 24
26 26 26 25 25 24 24 25 24 25 24 23 23 23 23 23
22 22 22 22 21 20 20 20 20 20 20 19 19 19 18 18
18 18 17 17 17 17 17 17 16 16 16 16 16 17 18 21
21 21 21 16 12 17 11 20 19 19 19 20 19 18 19 18
19 19 19 15 21 20 22 21 21 20 18 19 18 18 19 21
21 21 21 20 21 21 21 21 21 22 22 22 22 22 22 23
23 23 22 23 23 23 24 24 24 24 25 25 25 24 24 25
25 25 25 24 25 25 24 24 24 24 25 25 25 24 24 24
26 25 26 26 25 25 25 24 24 23 23 23 23 23 23 23
22 22 22 22 22 21 21 20 20 20 19 19 19 19 18 18
18 17 18 18 17 17 17 17 17 16 16 16 17 17 18 21
22 21 22 16 13 18 12 21 20 20 22 21 18 17 19 20
18 17 15 14 19 20 22 27 26 18 14 10 9 8 11 18
19 20 20 21 21 22 22 22 22 22 23 22 22 22 23 23
23 23 24 23 24 24 24 24 25 24 24 25 25 24 24 25
25 25 24 23 23 24 24 25 25 25 25 25 25 24 23 24
26 25 25 25 25 25 24 24 24 24 24 23 23 24 23 23
22 22 22 22 21 21 21 20 20 20 20 20 20 19 19 19
18 18 18 18 18 17 16 17 17 17 16 16 17 17 18 22
22 22 22 17 12 18 13 21 19 17 12 10 6 3 8 9
8 6 4 10 13 14 11 15 19 26 26 19 7 2 4 4
10 16 18 18 20 21 22 22 23 22 23 23 23 23 23 23
24 24 24 24 24 24 24 24 24 24 24 25 25 25 24 24
24 24 24 25 24 25 25 24 24 24 24 24 24 25 24 24
25 25 26 25 25 25 24 24 25 24 24 23 24 23 23 23
22 22 22 22 22 21 21 20 20 21 20 19 19 19 19 19
19 18 18 18 18 18 18 17 17 17 16 16 17 17 18 22
22 22 22 17 12 18 13 15 10 2 2 2 0 0 0 0
0 0 3 6 3 0 0 3 7 9 10 15 15 11 5 4
4 6 10 12 15 17 23 23 23 23 23 23 24 23 23 24
24 24 24 24 25 24 25 25 24 24 23 22 23 23 24 25
25 25 24 25 26 24 25 25 25 24 24 24 24 24 24 24
26 26 25 25 25 24 25 24 24 24 24 24 24 24 23 23
23 22 22 21 21 22 21 21 21 20 21 20 20 20 19 19
19 19 19 18 18 18 17 17 17 17 17 17 18 18 19 22
23 23 22 18 13 18 11 4 1 0 0 0 0 0 0 0
0 0 0 0 0 0 4 10 3 0 0 0 6 6 6 3
4 2 0 2 6 11 15 21 23 23 22 23 24 23 24 24
24 24 24 24 25 24 23 23 23 24 25 25 25 25 25 25
25 25 25 25 27 24 24 25 23 25 24 24 25 25 25 24
25 25 25 25 25 24 25 24 24 24 24 24 24 23 23 23
23 23 22 22 22 22 21 20 21 20 21 20 20 20 20 19
19 19 19 19 19 18 18 17 17 17 17 17 17 18 18 22
23 22 23 18 16 9 3 0 0 0 0 0 0 0 0 0
0 0 0 0 0 0 8 8 7 2 4 8 10 10 11 5
0 1 7 5 5 2 9 14 21 24 24 24 24 24 24 24
24 24 23 24 24 24 24 26 25 25 24 25 25 25 25 25
25 25 25 25 26 24 24 24 24 25 24 24 25 25 24 23
25 26 25 24 25 25 25 24 24 24 25 24 24 23 23 23
23 22 22 22 22 21 21 21 21 21 20 20 20 21 20 20
20 19 19 18 19 18 17 16 17 17 17 17 17 18 19 23
23 23 21 16 5 0 0 0 0 0 0 0 0 0 0 0
0 0 2 0 2 1 5 2 1 1 7 12 9 3 1 3
2 4 5 4 4 7 8 9 15 23 24 23 24 23 23 23
24 24 25 25 25 25 24 25 25 25 25 25 25 25 26 25
25 25 25 25 26 24 24 24 24 24 24 24 24 24 24 24
25 25 25 25 25 25 25 25 25 24 24 23 23 23 23 23
23 22 22 22 22 21 21 21 21 21 21 20 20 20 20 19
19 19 19 19 19 19 18 18 18 17 17 17 17 19 20 23
23 22 17 5 0 0 0 0 0 1 1 0 0 0 0 1
0 0 8 4 9 6 2 5 1 8 8 6 14 7 4 2
4 3 1 0 0 0 1 3 8 21 23 23 23 23 24 24
24 24 25 25 25 25 25 25 25 26 26 25 25 25 25 25
25 24 25 24 25 24 24 24 24 24 25 25 24 24 24 24
25 25 25 25 25 25 25 24 24 24 24 24 24 24 23 23
23 23 23 22 22 22 21 22 21 21 21 21 21 21 20 20
20 20 20 19 19 19 19 18 18 17 18 19 19 19 20 24
23 16 3 3 0 2 2 5 5 3 1 1 2 4 0 5
2 0 5 14 15 11 7 9 8 10 3 1 5 16 11 5
0 0 0 0 0 0 0 0 2 16 23 23 24 24 24 24
24 24 24 26 25 25 26 25 25 25 25 26 25 24 25 25
25 25 25 25 26 25 25 25 25 24 24 24 24 24 24 24
26 26 26 25 25 25 25 25 24 24 24 24 23 23 23 23
23 23 23 23 23 22 22 22 22 21 22 21 21 20 20 20
20 19 20 19 19 19 19 19 18 19 18 19 19 19 20 21
14 2 1 3 2 9 13 16 13 10 5 0 3 2 4 11
6 4 9 16 21 16 21 14 15 9 8 8 9 7 8 6
4 5 5 0 0 0 0 2 4 8 21 24 24 25 24 24
24 24 25 26 25 25 26 25 26 26 26 26 25 25 25 25
25 25 24 24 25 25 25 24 25 24 25 24 25 25 25 25
26 26 26 25 25 25 25 25 25 24 24 24 24 24 24 24
24 24 24 23 23 22 22 21 22 21 22 22 21 21 21 21
20 20 20 19 19 19 19 19 19 18 19 19 19 20 21 21
9 4 9 6 12 17 18 18 17 8 1 0 5 3 7 13
9 7 9 14 15 21 18 14 15 14 16 15 6 4 2 2
3 1 0 0 1 0 0 2 7 6 13 24 24 25 25 25
25 25 26 27 26 26 26 26 26 26 25 25 25 25 25 25
25 25 25 25 25 25 25 25 25 25 25 25 25 25 25 24
26 26 26 26 26 26 25 26 25 24 25 25 24 24 25 24
24 24 24 24 24 23 23 23 22 23 22 22 22 21 21 21
21 21 21 20 20 20 20 20 20 20 20 19 19 20 21 17
10 7 15 10 16 13 14 13 12 9 8 10 8 8 12 12
9 11 10 12 10 15 13 15 19 15 20 14 9 3 2 0
0 0 0 1 2 0 2 5 8 16 16 23 26 26 25 26
26 26 26 27 26 26 27 27 27 26 26 27 26 26 26 26
26 26 26 26 26 27 26 26 26 26 25 24 24 25 24 24
27 27 26 26 26 25 26 26 26 25 25 25 25 25 25 26
25 25 25 24 24 24 23 23 23 22 23 23 22 22 22 22
22 22 21 22 21 21 21 20 20 20 20 20 21 21 20 17
12 13 16 13 3 1 0 7 12 16 15 9 8 10 12 12
13 11 13 11 15 14 13 14 14 13 19 16 11 10 6 4
5 7 7 7 3 1 8 11 12 19 18 23 26 26 26 27
27 27 27 28 28 27 27 28 27 27 27 26 26 27 26 26
27 27 27 27 27 26 25 24 25 25 25 26 27 26 26 24
28 27 27 27 27 27 27 26 27 26 27 26 27 26 26 26
26 26 26 25 25 25 25 25 24 24 24 24 23 24 23 23
23 23 23 23 22 22 22 22 22 21 21 21 22 22 18 19
16 17 16 9 2 0 0 2 10 15 14 12 9 9 10 12
22 20 14 18 18 19 18 12 10 12 13 15 12 8 4 0
1 1 3 3 5 12 16 15 17 23 21 27 28 28 28 28
28 28 28 28 28 28 28 28 28 28 29 28 28 28 28 28
28 28 26 26 26 26 26 27 27 27 26 25 27 26 28 25
25 26 27 28 27 27 27 26 26 27 26 26 26 26 26 26
27 26 26 25 25 25 24 24 24 24 24 24 24 24 24 23
24 24 23 22 22 22 22 22 22 21 22 21 22 22 22 23
16 20 18 8 3 0 0 1 9 10 10 10 11 12 15 13
21 31 31 25 24 16 19 18 15 10 11 15 11 5 7 4
3 1 1 3 10 22 20 15 19 27 26 27 27 27 28 28
29 29 28 28 28 28 28 28 28 28 28 27 27 26 25 26
26 27 28 28 27 27 27 27 27 27 26 27 26 26 27 25
6 13 28 28 27 28 27 27 27 27 27 27 27 27 26 26
26 26 26 26 25 25 24 25 25 24 25 24 24 24 24 24
24 23 23 23 23 23 22 22 22 22 22 22 21 24 24 21
19 18 13 6 2 5 3 11 11 8 8 12 15 17 17 15
15 16 25 32 26 23 21 19 11 10 11 10 12 16 16 12
9 4 5 10 14 20 16 11 19 27 32 29 28 28 28 28
29 28 28 29 28 28 28 28 28 28 27 27 28 28 28 28
28 27 27 27 27 26 26 26 26 26 27 26 27 27 27 26
4 12 27 27 27 27 27 27 27 26 26 27 27 26 26 26
26 26 26 25 25 25 25 25 24 24 24 24 23 23 24 24
23 23 23 23 22 22 22 22 22 21 22 21 23 22 21 16
15 14 12 10 9 7 1 9 7 5 10 10 9 15 16 12
6 8 14 18 26 29 24 18 16 16 15 13 15 13 13 11
11 5 7 16 15 13 11 12 19 21 28 27 27 28 27 28
28 27 28 28 28 27 27 27 27 27 27 27 28 27 27 27
27 27 27 27 27 27 27 26 26 26 26 26 26 26 27 25
7 10 26 27 27 27 28 27 25 26 26 27 27 26 26 26
26 25 26 26 25 25 24 25 25 25 25 24 27 28 26 25
23 23 23 23 23 23 22 22 22 22 22 20 16 14 21 15
16 10 12 9 10 3 7 5 5 14 15 18 15 11 13 16
16 17 22 22 20 20 20 19 15 15 19 18 18 21 18 12
6 5 4 8 9 5 9 14 18 20 28 28 28 28 27 27
28 27 28 27 27 27 27 27 27 27 27 27 28 27 27 27
27 27 27 27 27 27 26 26 26 26 26 25 26 26 26 26
8 11 27 27 27 28 27 27 27 35 34 32 31 28 27 27
26 26 26 26 26 25 25 26 25 25 25 24 34 36 34 30
28 26 24 23 24 23 23 22 22 22 22 14 7 11 21 18
7 6 11 6 9 3 4 0 6 14 15 15 16 17 18 21
24 28 29 33 26 24 24 21 23 18 15 18 21 19 20 14
15 7 1 2 2 10 16 21 22 25 27 28 27 28 28 27
28 27 27 27 28 28 27 28 28 27 27 26 28 27 26 27
27 27 27 27 26 26 27 26 26 26 27 26 26 25 26 26
7 13 27 27 27 27 26 27 28 37 36 36 35 32 31 29
28 26 25 25 26 25 25 24 25 25 25 25 35 35 33 31
32 32 29 24 23 23 23 22 22 22 20 7 1 4 15 16
1 3 5 1 3 0 0 0 0 2 5 10 16 19 25 27
29 28 29 21 26 26 29 26 25 22 22 22 15 18 12 9
6 12 6 4 3 14 27 39 37 26 27 28 27 26 27 27
27 27 27 27 27 26 27 27 27 27 27 27 28 28 27 27
27 27 26 26 26 26 26 26 26 26 26 27 26 25 26 26
8 14 31 30 29 28 27 27 28 38 36 36 32 32 32 34
37 31 31 29 28 26 25 25 25 25 24 25 33 33 32 31
32 32 31 25 23 23 23 23 23 22 19 2 0 1 11 7
0 0 1 0 0 0 0 0 0 3 9 12 17 22 26 28
33 36 32 29 34 31 29 33 32 22 22 21 21 12 8 7
8 6 10 3 5 30 56 58 44 27 27 28 28 27 27 27
27 28 28 27 27 28 28 27 27 27 27 27 28 28 26 27
27 27 27 26 26 26 26 26 26 26 26 27 26 26 25 26
8 15 32 31 30 30 30 29 28 33 30 34 34 34 36 37
38 32 31 33 34 31 29 28 28 26 25 25 25 14 17 21
27 30 31 27 24 23 23 23 23 22 14 0 0 0 3 8
0 0 0 0 0 0 0 0 1 4 10 14 16 17 22 25
25 25 29 28 37 40 52 58 57 50 53 50 50 43 30 43
55 51 40 32 50 72 72 63 50 28 27 28 27 27 28 28
28 28 28 28 27 27 27 26 27 27 27 27 27 28 27 27
27 27 27 26 26 27 27 26 26 25 26 26 26 26 26 26
8 16 32 31 24 27 31 33 35 20 0 5 17 28 32 34
36 30 4 7 14 20 28 28 30 33 31 27 25 9 6 6
4 4 9 27 24 24 24 23 23 23 13 0 0 0 3 7
4 0 0 0 0 0 0 2 5 10 12 14 18 18 18 17
19 20 21 27 39 57 78 89 93 103 112 112 109 105 104 105
101 102 98 95 86 89 82 70 54 31 27 28 28 27 27 27
27 27 27 27 28 27 27 27 27 26 27 26 27 27 27 26
26 25 25 26 26 26 26 26 26 26 26 26 26 26 25 25
9 15 32 32 29 26 24 35 38 22 0 0 2 8 10 9
17 30 0 0 0 0 0 4 9 16 23 28 25 7 0 5
6 1 0 27 24 24 24 24 23 23 14 5 1 2 7 7
10 4 4 0 0 0 2 6 8 11 16 19 18 17 21 19
18 18 21 36 48 59 81 95 104 113 114 115 114 114 114 112
107 106 104 100 97 94 86 76 59 38 26 27 28 27 28 27
28 27 28 27 27 28 27 27 26 26 26 27 27 27 27 26
26 26 27 27 27 27 26 26 26 26 26 26 26 26 25 23
8 8 8 15 23 32 34 36 39 23 0 0 0 3 7 8
11 31 0 0 0 0 0 0 0 0 0 19 25 4 0 1
2 1 0 29 24 25 24 23 24 23 16 13 1 1 6 13
13 12 11 5 0 0 2 3 8 16 18 19 17 16 18 18
17 24 28 45 43 52 75 89 110 115 114 114 114 115 114 111
108 104 99 99 97 94 90 80 64 47 28 27 28 27 28 28
27 27 28 28 28 27 27 27 27 27 27 26 27 27 27 27
26 26 26 26 26 27 28 27 27 27 26 26 25 26 26 25
9 5 0 0 0 1 6 15 23 23 0 0 0 0 1 2
8 30 2 0 0 0 0 0 0 0 0 19 23 1 0 0
0 0 0 29 24 24 24 24 24 22 12 8 5 6 8 9
10 13 14 5 3 2 6 8 7 7 12 17 14 15 16 16
19 22 26 32 33 49 74 108 114 115 114 114 112 103 86 69
51 32 13 16 41 71 88 80 65 53 29 28 28 28 29 28
28 29 28 28 28 28 27 27 28 27 27 27 28 27 27 28
27 27 27 26 27 27 27 27 28 27 27 27 26 26 26 26
9 4 0 0 0 0 0 0 0 15 0 0 0 0 0 0
5 29 0 0 0 0 0 0 0 0 0 18 20 0 0 0
0 0 1 30 25 25 25 25 25 21 5 3 5 3 5 7
8 9 11 10 8 9 6 3 2 9 14 16 14 11 7 11
12 16 23 31 41 74 102 99 82 68 53 34 19 16 21 19
20 33 7 0 0 0 27 72 69 56 32 29 29 27 29 28
28 28 28 28 28 29 28 28 29 29 29 29 28 28 27 29
28 28 28 28 28 27 27 28 27 28 27 26 26 26 26 26
9 4 0 0 0 0 0 0 0 12 0 0 0 0 0 0
10 31 1 0 0 0 4 6 0 0 0 17 20 0 0 0
0 0 0 31 25 25 25 24 23 19 1 1 2 3 3 3
3 4 4 4 5 3 1 0 1 4 5 16 18 17 14 11
24 24 17 21 32 31 29 37 40 39 32 23 21 21 18 10
4 1 0 0 0 0 0 19 62 57 31 29 29 29 29 29
28 29 29 29 29 28 28 28 28 28 27 28 28 29 29 28
28 29 28 28 27 27 28 28 27 28 27 27 27 26 27 27
9 5 0 0 0 0 0 0 0 10 0 0 0 0 0 0
9 33 1 0 0 0 5 9 6 3 0 16 21 0 0 0
0 0 0 30 26 25 25 25 24 18 0 0 1 2 4 5
6 5 4 3 1 0 0 0 1 0 2 10 13 8 6 10
13 19 29 39 41 37 37 41 43 45 49 53 56 59 58 44
21 8 14 0 0 0 0 0 46 52 23 27 30 28 29 29
29 29 29 28 28 28 28 28 29 29 28 28 29 29 28 28
27 27 27 26 26 27 28 28 28 28 27 28 28 28 28 27
9 4 0 0 0 5 4 0 0 8 0 0 0 0 0 0
6 35 2 0 0 0 6 8 9 8 2 13 22 0 0 0
0 0 0 27 25 24 25 24 24 19 1 0 2 1 0 1
1 1 2 1 2 5 3 3 0 0 0 1 2 1 5 11
15 11 10 15 37 80 101 110 113 113 113 111 111 109 105 99
54 29 14 0 0 0 0 0 27 30 0 8 29 27 28 28
28 28 29 29 29 28 28 27 28 28 28 27 28 28 28 27
28 27 27 27 27 26 28 28 27 27 27 27 27 27 25 25
9 5 0 5 1 0 1 0 0 8 0 0 0 0 0 0
6 35 3 0 0 0 5 8 7 8 1 12 24 0 0 0
0 0 0 27 27 25 25 25 25 21 3 0 0 0 0 0
0 0 0 2 4 4 6 3 15 45 45 16 16 62 50 45
50 45 22 19 32 69 105 113 113 113 113 113 111 110 108 95
44 26 14 0 0 0 0 0 9 8 1 2 26 29 28 28
28 28 28 28 30 28 29 29 29 28 28 28 28 28 27 27
27 27 26 27 27 27 28 28 27 27 26 28 27 24 24 23
10 5 2 2 0 0 0 0 0 9 0 0 0 0 0 2
14 37 4 0 0 0 0 3 7 8 0 10 32 23 15 9
4 1 1 26 27 25 25 25 25 24 10 0 0 0 1 0
0 0 0 1 5 13 13 40 97 109 105 98 68 74 62 55
60 56 20 27 45 69 102 113 113 113 114 113 112 108 101 80
31 21 19 0 0 0 0 0 3 0 1 3 26 28 28 29
28 29 29 29 30 28 29 29 28 28 28 28 28 28 27 27
28 27 26 25 25 28 28 26 26 25 22 21 17 14 11 9
9 5 0 0 0 0 0 0 0 17 9 4 1 1 0 0
9 41 28 21 15 10 4 0 0 4 0 9 34 35 32 33
33 34 35 38 27 25 26 26 25 24 13 3 0 0 0 0
0 0 0 4 14 16 27 94 91 87 84 73 103 92 74 55
66 46 35 41 59 82 109 113 114 114 114 113 112 106 95 58
21 16 15 0 0 0 0 1 5 0 0 5 26 28 28 29
28 28 29 29 29 28 29 28 28 27 28 28 26 25 24 24
26 26 25 24 23 21 18 15 12 10 8 8 8 8 9 11
9 5 0 0 0 0 0 0 0 26 40 32 28 27 24 15
14 44 23 18 22 26 28 25 22 19 16 20 37 35 33 34
35 39 41 41 28 26 25 25 25 25 10 6 0 0 0 0
0 4 5 10 17 16 55 94 109 116 111 83 92 111 91 80
71 56 48 59 75 95 112 113 114 114 114 114 112 104 91 45
22 18 6 0 0 0 0 4 35 36 0 5 28 29 29 29
29 29 30 29 30 28 28 26 26 25 25 27 26 26 24 22
19 16 14 11 10 10 10 10 11 11 13 13 14 14 14 15
9 5 0 0 0 0 0 0 0 28 43 30 36 38 41 42
39 43 16 8 10 9 10 10 11 14 20 26 26 23 27 30
33 37 39 39 28 25 27 25 25 25 9 0 1 0 0 0
1 6 11 14 19 16 78 101 116 115 114 109 93 113 113 109
93 66 81 85 97 107 113 114 114 114 114 114 111 103 94 64
36 22 0 0 0 0 0 11 57 84 14 7 29 28 29 28
28 28 28 28 28 28 28 28 28 22 21 17 14 12 11 10
10 11 13 13 13 14 15 16 16 16 17 18 14 12 18 19
9 11 14 8 3 0 0 0 0 28 35 31 38 41 44 45
36 30 15 9 9 9 8 8 6 6 6 5 5 7 10 13
22 26 22 22 25 26 26 26 25 24 11 0 0 2 0 0
0 3 9 11 17 21 86 108 113 114 113 113 95 112 113 114
110 103 101 102 105 113 114 114 114 114 114 113 111 106 102 85
45 31 0 0 0 0 9 11 76 100 59 9 29 29 30 29
29 27 25 23 21 17 15 18 30 15 9 12 13 14 15 15
16 16 17 18 19 19 20 20 21 21 21 21 21 18 13 22
9 16 35 38 36 31 24 18 13 33 26 31 38 39 42 45
39 32 19 10 10 9 7 6 6 5 5 5 6 6 6 6
21 24 24 23 24 25 26 26 25 25 12 0 0 1 2 0
0 0 2 6 12 31 85 110 109 114 114 93 65 106 110 113
111 104 102 104 107 113 114 114 114 114 114 114 113 109 105 94
46 31 1 0 0 1 23 17 98 106 92 31 27 25 22 19
16 14 13 13 14 14 14 14 25 14 14 17 18 19 19 20
21 21 22 21 22 22 22 22 24 23 22 23 23 23 19 13
10 16 35 39 38 37 37 38 40 40 14 17 27 32 37 41
38 34 22 11 9 8 5 5 5 6 6 6 7 7 8 9
24 10 5 26 26 26 25 23 24 25 14 0 0 0 1 3
0 0 0 7 11 42 87 107 103 113 101 107 93 106 112 114
111 102 100 104 111 111 114 114 114 114 113 113 113 112 108 102
58 31 7 0 0 18 24 41 109 108 101 65 16 15 14 15
17 17 17 18 19 20 19 18 25 16 17 20 22 23 23 24
24 24 25 24 24 24 24 23 23 24 23 24 25 25 25 18
8 14 35 40 40 38 40 39 40 38 3 0 0 1 4 10
14 24 24 9 8 4 0 0 0 3 9 10 7 6 11 12
24 29 27 32 32 31 27 3 14 27 15 0 0 0 0 3
7 1 2 6 13 51 89 109 99 106 104 112 94 98 114 115
113 102 105 108 111 112 113 114 115 114 114 114 114 113 111 108
85 36 18 1 10 28 13 84 111 106 103 91 34 18 20 20
21 21 22 22 23 24 24 22 27 19 20 24 25 25 24 25
26 25 25 25 26 26 26 25 23 24 24 22 25 25 24 25
14 16 28 31 31 33 35 37 40 36 2 0 0 0 0 1
8 25 25 8 7 5 0 0 0 0 2 3 0 0 3 4
21 33 26 25 27 29 31 29 26 26 17 0 0 0 0 0
5 8 9 9 16 42 84 111 96 101 109 107 83 96 116 115
114 105 107 108 111 112 112 112 114 114 114 114 114 113 113 112
104 73 36 18 10 16 48 109 111 105 104 98 68 24 24 24
24 26 26 26 26 26 25 19 10 7 21 25 26 26 26 26
26 26 27 26 27 26 26 26 26 24 24 23 23 25 25 24
14 16 17 19 22 26 24 25 34 32 1 0 0 0 0 0
0 26 26 8 7 4 0 0 1 0 0 0 0 0 0 0
18 34 25 20 18 19 22 24 27 26 20 1 0 0 0 0
0 4 10 12 13 28 73 107 97 104 96 103 91 97 116 115
114 104 106 110 107 107 112 113 114 114 114 114 114 114 114 113
109 101 85 65 52 58 85 106 98 94 99 101 89 44 26 27
27 27 27 27 26 27 26 15 1 0 17 26 28 28 27 26
26 27 27 26 26 26 26 25 26 24 23 23 22 23 24 24
13 16 14 14 16 25 22 23 34 33 1 0 0 0 0 0
0 23 22 4 1 0 0 0 5 4 0 0 0 0 0 0
18 35 27 14 24 27 22 23 27 27 25 5 0 0 0 0
0 0 0 6 16 18 47 90 109 104 105 104 94 87 113 116
115 106 101 106 107 108 107 111 114 114 114 114 115 114 115 113
111 107 101 92 85 80 90 100 100 97 99 97 96 75 32 28
29 28 28 25 21 15 24 13 7 2 15 26 27 28 27 27
27 27 26 27 26 27 26 25 25 25 23 22 21 21 23 22
10 15 15 21 24 27 27 30 35 32 1 0 0 0 0 0
0 27 18 0 0 0 0 0 1 8 6 0 0 0 0 0
18 35 29 8 22 21 19 23 26 27 26 11 0 0 0 0
0 0 0 3 15 19 28 67 108 109 114 115 105 82 110 115
114 104 105 101 100 106 107 112 113 114 112 115 115 115 114 111
111 109 105 97 89 79 90 102 107 109 111 107 105 88 40 28
29 30 17 0 0 1 20 12 1 0 15 27 28 28 29 27
27 27 27 26 26 26 25 25 25 24 24 22 20 19 20 20
14 13 0 1 4 8 12 18 23 27 1 0 0 0 0 0
0 28 19 0 0 0 0 0 0 8 11 7 3 0 0 0
17 36 30 11 14 15 13 22 25 27 26 16 0 0 0 0
0 0 0 2 19 21 36 57 86 115 115 116 115 116 113 110
109 101 100 98 103 101 105 110 111 114 115 115 115 115 114 112
113 110 106 99 91 78 83 101 110 105 86 88 85 70 35 29
30 30 23 16 22 26 27 17 0 0 14 26 27 28 28 27
27 27 26 25 26 25 25 25 24 23 22 22 22 18 16 16
18 15 0 0 0 0 0 0 0 14 1 0 0 0 0 0
0 29 16 0 0 0 0 1 11 12 13 10 6 0 0 0
18 36 30 19 20 17 15 21 25 27 27 24 4 0 0 0
0 0 0 2 14 16 38 59 71 92 110 112 112 114 112 108
107 98 96 101 103 99 101 109 109 110 114 115 115 114 115 114
114 110 105 100 89 75 76 83 87 71 57 63 59 39 31 31
31 30 30 29 28 28 27 18 0 0 15 26 27 28 28 27
27 26 27 26 25 24 24 23 23 22 21 21 21 20 18 16
17 15 0 0 0 0 0 0 0 13 1 0 0 3 0 0
0 27 13 0 0 0 0 1 14 15 13 3 2 0 0 0
16 36 33 23 16 2 2 19 25 27 27 26 11 0 0 0
0 5 2 5 9 16 22 33 68 73 89 111 115 114 109 108
102 95 95 97 101 101 103 107 112 114 115 115 115 113 115 115
114 113 107 100 88 77 87 78 86 98 69 41 33 32 31 31
31 31 30 29 28 28 27 23 3 0 18 27 29 28 28 27
27 26 26 25 24 24 23 23 22 21 21 21 21 20 18 14
17 16 0 0 0 1 0 0 0 12 1 0 1 13 7 0
0 28 12 0 0 0 0 0 1 9 8 0 0 0 0 0
12 36 33 22 12 5 4 16 24 27 27 27 21 3 0 0
1 5 6 9 10 14 20 37 71 74 77 90 108 106 102 107
100 93 91 96 98 99 104 107 109 115 116 115 114 114 115 115
114 113 105 97 87 82 85 86 86 84 50 31 32 31 31 31
30 31 30 29 30 28 26 23 12 7 22 27 28 28 29 27
27 25 25 25 23 23 23 23 21 21 20 20 20 19 17 14
14 13 0 0 0 10 2 0 0 11 2 0 6 12 8 2
0 27 10 0 1 0 0 0 0 7 9 0 0 0 0 0
9 35 34 10 8 0 0 14 23 27 28 27 27 13 0 0
1 4 10 8 7 16 25 63 84 86 84 79 80 76 101 103
96 90 94 96 96 96 103 107 109 112 114 115 114 114 115 114
113 112 106 96 89 81 82 85 85 79 50 32 31 30 30 30
29 29 30 29 28 27 25 22 21 20 24 28 28 28 28 25
26 25 24 24 24 23 23 22 21 20 19 18 18 18 16 12
13 14 0 0 5 16 4 2 0 12 17 10 16 16 14 11
2 28 10 0 0 0 0 0 0 5 12 0 0 0 0 0
5 35 31 5 8 1 1 19 21 27 27 28 27 21 3 0
0 1 5 2 12 21 29 66 84 98 105 103 93 92 103 100
96 89 89 97 96 96 102 106 106 110 111 113 114 114 113 113
112 109 100 94 89 75 83 89 93 85 56 32 30 31 30 30
30 29 29 29 29 28 26 23 23 24 27 28 28 27 27 26
25 25 24 23 22 22 21 20 19 18 18 17 17 16 15 11
11 14 1 0 1 5 1 0 0 12 34 31 37 36 35 37
38 41 12 0 0 0 0 0 0 6 13 0 0 1 0 0
2 33 29 5 3 0 2 19 21 27 28 28 28 24 4 0
0 0 3 4 12 23 37 70 83 97 110 114 104 96 102 97
90 90 88 92 95 98 99 104 105 108 111 112 111 112 110 111
110 103 96 93 77 67 88 95 90 80 62 33 30 30 30 29
29 29 29 29 28 28 27 25 25 27 28 27 27 27 28 26
26 25 24 22 21 21 19 17 18 18 18 16 16 16 16 11
12 15 3 1 0 0 0 0 0 11 34 33 37 36 36 39
44 44 25 13 15 10 5 2 3 8 15 2 2 0 0 0
1 22 29 3 1 1 3 9 21 28 28 28 28 25 9 1
0 0 0 10 19 16 53 73 80 93 107 113 107 102 102 95
91 87 89 90 95 98 98 101 105 105 107 108 109 110 109 110
103 99 98 89 54 57 64 58 57 70 54 30 31 30 31 30
30 30 29 29 29 28 28 27 26 28 28 28 28 26 26 25
25 24 23 21 21 20 19 19 18 18 17 16 14 15 14 11
14 15 13 3 0 0 0 0 0 10 33 32 34 35 35 42
45 45 34 29 29 28 27 25 26 25 23 19 17 15 15 14
17 26 32 13 12 12 8 4 16 28 28 28 27 23 17 0
2 0 1 14 17 18 67 73 77 91 105 112 111 106 101 93
89 88 87 89 87 92 98 101 104 105 107 110 104 107 106 105
100 96 97 67 83 89 84 77 61 39 33 30 31 30 30 30
30 30 29 29 29 28 27 27 27 28 26 26 26 25 26 25
24 23 22 20 19 19 18 18 18 17 16 16 15 14 14 11
14 15 10 0 0 0 0 0 0 10 31 28 31 31 31 32
29 29 30 30 31 31 29 28 29 30 29 27 25 23 22 22
22 28 37 27 25 22 17 15 17 27 28 28 28 23 24 4
1 0 1 11 14 29 67 71 74 89 104 111 111 107 101 93
87 80 87 83 83 86 96 97 102 103 104 103 105 106 102 101
98 98 90 81 95 104 102 93 82 61 37 30 30 30 30 30
29 30 29 29 30 29 28 27 28 27 27 27 27 26 26 25
23 23 21 20 20 19 18 18 17 16 16 15 15 14 14 10
17 17 5 0 0 0 0 0 0 11 34 27 28 29 30 30
28 27 30 31 32 33 33 32 31 30 30 29 32 35 33 31
30 31 40 38 38 37 37 35 28 27 28 27 27 23 25 11
0 0 1 7 24 47 69 72 69 87 100 108 111 109 102 94
89 85 83 80 84 85 96 97 100 103 103 102 101 102 103 101
97 95 87 92 96 102 103 98 85 65 43 30 30 29 29 30
30 29 29 29 29 29 28 29 30 29 28 27 27 27 26 24
24 22 21 20 19 18 17 17 17 16 16 14 14 14 13 9
13 13 21 21 20 14 13 11 9 15 37 30 31 30 31 31
31 33 36 32 33 36 39 38 33 29 30 29 37 40 38 35
36 35 31 26 24 25 24 25 25 27 28 28 28 26 25 22
3 3 3 13 40 55 66 72 70 82 98 106 110 108 106 99
95 85 79 78 83 89 93 95 98 99 101 99 99 100 100 96
99 94 86 94 97 100 97 89 72 54 40 29 31 30 30 30
30 30 30 30 29 30 30 29 29 29 27 27 26 26 25 24
23 21 21 20 19 18 18 17 16 16 15 14 14 13 14 10
14 13 28 35 38 34 36 40 41 41 39 32 32 33 32 33
35 37 40 34 35 37 41 39 34 31 26 28 38 41 38 36
36 36 33 29 22 22 21 22 24 27 28 28 28 23 26 30
18 13 13 23 47 61 72 73 70 80 94 103 106 106 102 100
97 87 85 77 82 85 89 90 94 95 96 96 99 101 100 98
94 96 90 92 95 100 98 87 66 50 36 30 32 31 31 30
30 29 30 29 29 29 30 29 29 29 27 27 27 26 25 24
23 21 21 20 18 17 16 16 15 14 14 15 14 15 13 9
14 13 30 40 40 40 41 42 42 43 41 30 29 27 27 28
33 39 42 35 35 35 33 34 36 33 29 24 32 32 30 31
36 36 35 33 27 26 25 26 27 28 29 28 28 23 29 31
34 27 13 26 47 60 73 73 69 78 90 100 104 108 102 100
103 96 90 81 77 80 80 89 90 94 97 99 94 101 101 100
96 95 90 91 96 100 98 91 77 55 32 31 31 29 30 30
30 29 29 29 29 30 30 29 28 28 28 27 26 26 25 24
22 21 20 19 18 18 17 17 16 15 15 14 14 14 14 11
14 11 18 25 27 30 32 35 37 39 40 8 6 4 2 4
6 12 35 37 35 18 10 15 18 17 20 29 29 9 2 1
5 11 13 28 30 27 28 32 32 34 33 29 29 23 30 32
34 33 27 28 52 64 73 72 68 77 90 98 107 108 102 100
101 95 92 89 82 82 80 81 87 92 91 88 89 97 99 100
99 92 90 95 97 99 98 96 86 64 33 30 30 30 31 30
29 29 28 27 25 27 27 29 29 28 28 28 27 26 25 23
22 21 20 18 17 16 16 17 16 15 16 15 14 15 15 11
13 10 12 16 17 18 19 19 20 21 25 5 0 0 0 0
0 0 28 37 26 1 0 0 1 6 14 31 29 5 0 0
0 4 11 26 19 20 23 26 29 32 36 30 28 24 31 32
35 35 28 32 55 67 76 72 67 75 91 98 107 108 107 105
105 98 92 90 85 81 77 79 81 82 84 88 89 94 98 100
95 95 95 97 101 98 97 91 88 70 37 29 30 30 30 24
13 12 9 8 6 8 22 30 29 28 28 27 27 25 24 23
21 20 20 18 18 17 17 17 16 15 15 14 14 14 14 11
11 10 17 23 23 24 24 24 24 25 27 7 3 0 0 0
0 8 30 36 13 0 0 0 0 0 14 33 31 8 0 0
0 1 9 24 4 0 2 2 1 7 37 32 28 25 31 32
34 34 31 39 63 73 75 72 68 74 87 98 106 106 107 105
106 102 93 93 89 86 80 77 81 80 74 81 89 88 93 92
93 96 93 93 102 96 92 91 84 69 40 27 31 30 31 23
6 6 5 6 5 6 22 30 30 30 29 27 26 26 25 22
21 20 19 18 17 17 16 16 16 15 16 16 15 15 16 13
11 10 17 23 25 26 26 27 29 30 30 7 1 0 0 0
0 9 29 34 6 0 0 0 0 0 9 33 30 8 0 0
0 1 7 24 5 1 12 9 0 4 36 32 27 27 31 32
35 34 31 47 70 76 78 72 69 74 88 101 106 112 110 108
110 102 97 95 88 84 83 86 82 76 73 77 80 81 80 86
90 91 89 94 99 95 94 90 79 69 39 23 29 30 30 23
7 6 6 6 6 6 21 30 30 29 29 27 26 25 24 22
21 20 19 18 18 18 17 16 16 15 16 15 15 15 15 12
12 11 19 24 25 26 26 28 29 31 30 6 1 0 0 0
4 0 23 31 3 0 0 0 0 0 10 33 29 8 0 0
0 0 5 25 7 1 7 6 0 3 35 33 27 28 31 32
34 33 35 56 72 77 78 73 70 75 88 100 111 113 112 112
108 104 99 100 96 93 92 89 90 84 79 73 69 73 75 76
83 78 82 81 89 89 86 82 77 67 33 20 29 30 30 20
6 6 6 6 6 6 20 30 30 29 29 27 26 25 23 21
21 20 19 18 18 16 15 14 16 16 16 16 15 15 15 13
18 18 19 20 20 21 16 8 14 24 34 10 0 0 0 0
4 2 20 31 1 0 0 0 0 0 9 32 27 8 0 0
0 0 0 24 9 1 5 3 0 2 35 33 25 29 31 33
35 35 43 64 78 81 79 74 69 77 93 101 111 115 114 110
107 107 104 98 97 99 92 89 92 88 83 77 75 72 74 73
74 72 74 75 77 81 75 71 71 61 18 19 30 30 30 21
5 6 6 6 6 6 16 30 30 29 28 27 26 25 22 20
19 18 18 18 17 17 17 17 16 16 16 15 15 15 14 13
17 17 17 17 17 17 11 0 0 12 36 18 4 0 0 0
3 1 17 30 1 0 0 0 0 0 8 34 27 10 0 0
0 0 0 23 12 1 5 5 1 2 34 33 25 29 32 41
52 63 53 69 81 84 81 76 71 81 93 101 110 114 113 108
106 106 105 103 100 98 92 94 95 94 93 80 78 77 77 72
69 67 66 64 70 71 67 63 61 43 5 21 30 30 30 24
8 7 7 7 8 7 13 28 27 27 25 26 25 24 24 22
20 20 19 19 18 17 16 17 16 15 15 14 15 15 15 13
17 17 17 18 17 17 13 0 0 10 37 15 1 0 0 0
4 1 16 31 1 0 0 0 0 0 4 34 27 13 0 0
0 0 0 21 16 0 1 0 0 1 32 32 26 47 90 56
53 61 59 74 84 88 83 76 72 82 95 101 110 115 114 111
108 110 109 106 104 100 96 96 92 92 90 79 77 79 73 74
70 67 63 59 58 58 53 50 40 10 3 20 30 29 30 26
14 14 13 13 14 13 19 25 27 28 28 27 26 24 23 22
20 19 19 19 18 17 16 16 16 15 15 15 15 14 14 13
11 11 11 12 13 16 14 0 0 7 33 9 0 0 0 0
0 0 16 32 1 0 0 0 0 0 2 33 27 9 0 0
0 0 0 19 21 0 0 0 0 1 31 32 38 109 97 62
51 53 68 80 88 92 86 77 73 81 94 104 112 115 115 112
112 107 108 106 106 105 100 101 97 92 87 78 80 76 76 72
67 61 54 43 33 25 19 13 6 4 4 19 30 31 30 27
8 8 8 5 1 1 3 3 1 6 28 27 26 25 23 23
21 19 19 19 17 17 16 16 16 15 15 15 14 14 14 14
0 0 0 2 11 16 15 0 0 4 28 7 0 0 0 0
1 0 14 35 2 0 0 0 0 0 1 33 27 12 0 0
0 0 0 16 25 0 0 0 0 3 31 34 94 114 80 57
51 61 75 85 92 97 88 79 73 82 95 104 110 112 114 111
113 109 105 104 106 108 103 99 98 89 83 80 76 65 50 45
35 14 6 6 5 4 5 4 5 4 4 18 30 31 30 27
8 7 6 3 0 4 8 25 8 3 28 27 25 26 23 22
20 20 19 18 18 17 16 16 16 15 15 14 14 14 13 13
0 0 0 5 17 16 15 1 0 3 27 8 1 0 0 0
9 5 14 37 12 7 7 9 8 8 10 35 29 27 27 26
26 27 31 36 29 4 3 2 3 5 30 67 120 102 83 65
51 69 79 89 96 97 88 79 74 82 97 107 112 112 113 112
112 109 102 104 104 105 105 101 98 91 80 66 30 10 20 30
28 10 6 5 1 0 5 4 5 3 3 18 30 31 31 27
9 7 7 4 0 0 2 5 1 2 26 27 26 25 24 23
21 20 19 19 18 18 16 16 15 15 15 15 14 14 14 14
0 0 0 4 17 16 15 2 0 0 24 25 27 22 22 28
37 35 35 34 41 41 37 38 40 40 40 42 31 27 34 36
38 41 46 47 41 29 28 27 27 28 38 108 117 99 98 56
55 76 83 93 99 99 90 79 75 82 97 108 112 112 112 111
109 104 106 105 107 102 101 98 93 83 63 39 10 10 31 73
42 10 5 5 5 7 10 5 5 5 4 17 30 30 30 27
9 5 6 3 0 0 0 0 0 1 26 26 25 23 23 22
20 19 18 18 17 17 16 16 15 16 14 14 14 14 13 13
0 0 0 2 18 16 15 3 0 0 22 29 31 26 29 35
40 35 32 29 40 42 40 39 39 43 43 44 35 24 32 35
38 43 47 47 43 27 27 28 27 28 61 120 116 108 98 46
72 81 89 96 100 99 91 80 76 83 99 108 109 111 114 111
111 107 103 99 103 101 101 96 86 70 70 62 25 22 53 113
86 14 6 5 2 2 6 5 5 4 3 15 29 30 30 27
9 6 6 2 0 0 0 0 0 1 23 11 4 7 21 23
21 19 19 18 17 17 15 15 15 15 14 14 14 12 14 14
0 0 0 1 18 16 15 5 0 0 20 28 26 24 28 33
40 38 32 27 29 34 34 33 33 33 33 33 31 22 23 27
29 31 29 28 29 27 28 29 29 30 87 120 116 115 87 68
81 88 93 98 103 102 92 83 78 83 98 109 113 115 115 111
112 106 102 102 101 99 97 89 77 81 80 74 38 40 92 111
106 54 27 15 2 0 6 5 7 6 4 15 29 30 30 28
9 5 5 0 18 18 0 0 0 0 7 18 24 12 8 22
20 18 19 17 17 16 16 15 15 14 15 14 14 13 14 13
0 0 0 1 18 16 15 6 0 0 18 24 18 21 21 25
38 38 34 30 23 20 21 21 21 21 22 22 25 25 27 29
29 29 27 24 26 28 29 30 30 34 108 120 116 113 96 77
89 94 99 102 104 102 91 85 81 83 98 110 105 105 116 113
114 106 107 105 105 99 88 81 90 93 90 84 49 56 100 107
113 97 99 100 93 71 45 18 8 7 4 14 30 30 31 28
9 6 6 7 31 42 5 0 0 10 27 26 26 23 3 22
20 19 19 18 18 17 16 15 15 14 14 14 13 13 14 13
0 0 0 0 18 17 14 7 0 3 19 22 6 9 12 16
23 27 26 31 25 23 23 24 29 29 27 27 30 31 32 35
36 35 30 27 27 28 30 30 31 44 117 120 117 110 99 86
97 99 103 105 107 102 93 89 83 84 98 110 115 115 116 114
112 109 110 107 107 99 87 95 105 104 97 92 74 66 106 110
116 102 100 105 113 116 116 114 101 84 56 23 29 30 32 29
12 6 6 4 9 16 6 0 0 16 28 26 26 24 5 20
21 20 19 18 17 16 15 15 15 15 15 14 14 14 14 13
0 0 0 0 16 17 14 11 11 18 25 23 0 0 0 0
0 5 8 29 28 32 37 31 41 44 33 28 29 30 30 35
37 40 32 29 28 28 30 32 58 91 120 120 119 111 106 95
103 104 106 107 107 101 94 93 85 83 99 111 116 117 116 115
115 115 113 110 104 96 100 109 112 107 100 97 104 82 108 112
117 108 101 106 113 116 115 116 116 114 114 108 81 64 38 29
13 7 8 2 4 3 0 0 0 15 28 26 25 24 6 18
21 20 18 18 18 17 16 15 15 15 14 14 14 14 13 13
0 0 0 0 15 17 13 16 27 30 32 25 0 0 0 0
0 0 8 34 27 33 39 31 43 46 18 1 2 2 3 4
20 40 34 29 30 30 47 90 104 108 120 120 119 113 110 112
104 108 110 110 107 101 97 96 89 86 101 112 117 118 115 114
115 115 114 108 103 105 113 116 114 108 105 105 114 90 111 114
117 111 105 107 112 115 116 116 115 114 114 114 115 115 110 67
27 20 14 4 0 1 0 0 1 11 29 27 26 25 6 21
20 19 18 17 17 17 16 16 16 16 16 15 15 14 14 14
0 0 0 0 13 17 13 15 27 30 34 30 1 0 0 0
0 0 2 36 26 31 35 7 8 20 17 0 0 0 0 0
14 39 36 31 53 83 107 107 103 108 120 119 119 114 114 120
109 111 114 113 108 102 99 99 92 86 100 113 118 118 114 113
115 115 112 107 109 115 117 117 115 111 109 114 114 97 114 114
117 113 107 109 110 114 116 115 115 115 114 115 115 115 115 115
99 45 22 25 2 0 0 0 0 12 29 27 26 22 7 23
22 21 20 19 19 17 16 15 15 14 14 14 13 13 14 13
0 0 0 0 11 16 13 14 24 23 24 20 1 0 0 0
0 0 2 36 25 31 35 3 0 14 19 0 0 0 0 0
10 44 73 104 118 110 107 106 102 110 120 119 119 119 116 119
119 114 115 114 108 105 104 103 95 87 100 113 117 117 114 111
113 113 109 110 115 117 117 117 116 115 116 118 114 102 113 114
116 112 109 107 108 111 115 115 116 116 115 116 115 115 116 114
115 114 106 78 39 4 0 0 0 10 28 26 24 8 15 19
13 11 18 19 17 16 15 15 15 14 14 13 13 13 13 13
0 0 0 0 9 16 12 10 1 1 4 2 0 0 0 0
0 0 3 36 25 31 35 4 0 12 21 0 0 0 3 36
80 117 119 119 118 106 104 102 108 114 119 118 119 119 119 119
119 119 114 113 110 108 107 106 97 89 99 112 117 116 113 109
113 110 110 115 117 116 117 116 116 117 117 116 115 108 113 113
115 109 108 106 104 114 115 115 115 115 115 115 115 115 115 115
114 115 114 114 114 109 67 10 0 0 3 1 1 1 11 12
6 7 18 18 17 15 15 14 14 13 13 13 12 12 13 13
0 0 0 0 7 15 12 10 1 1 4 2 0 0 0 0
0 0 3 35 24 32 35 3 1 10 23 0 21 70 109 116
117 118 118 119 115 100 100 101 110 117 118 118 118 118 118 119
118 118 118 116 110 110 110 109 102 91 99 111 116 116 112 107
111 112 114 116 116 116 116 116 116 115 116 116 115 112 114 112
112 114 106 107 99 114 114 115 115 114 115 115 115 114 114 114
114 114 113 113 113 112 110 100 33 0 1 0 0 1 6 6
36 46 21 16 16 15 13 13 13 12 12 12 12 12 12 12
0 0 0 0 6 15 10 10 3 2 5 3 0 0 0 0
0 0 0 33 24 31 34 3 1 9 39 83 115 118 118 118
119 118 118 117 111 98 100 103 109 117 118 118 118 117 118 118
118 118 118 118 117 115 114 111 105 94 100 110 114 112 106 100
108 110 112 115 116 115 115 116 116 115 115 115 115 113 114 112
111 101 112 109 94 113 114 114 115 114 114 114 113 114 114 114
113 113 114 113 113 113 113 110 110 65 12 4 0 2 13 7
42 35 14 5 4 8 14 13 13 13 12 12 12 12 12 12
0 0 0 0 6 15 11 10 6 5 7 3 0 0 0 0
0 0 0 32 25 32 36 9 16 70 111 118 118 118 118 118
118 118 117 117 112 98 103 104 107 118 117 118 118 118 118 118
118 118 118 118 117 117 117 117 114 108 106 111 115 115 108 97
107 111 115 116 116 116 116 116 116 115 115 115 115 115 114 113
108 20 89 110 93 111 115 114 114 114 114 114 114 114 114 114
114 113 114 114 113 114 113 110 112 106 83 11 0 0 0 0
0 0 0 1 0 8 17 16 17 16 16 16 16 16 16 16
0 0 0 0 5 15 11 10 6 6 7 3 0 0 0 0
4 8 0 31 27 33 36 44 108 115 113 118 119 119 119 118
119 118 118 118 112 103 108 104 107 81 118 118 118 118 117 118
118 118 118 118 117 117 117 117 117 117 117 117 116 116 116 116
117 116 117 116 116 116 116 116 116 115 115 116 115 115 112 110
109 20 76 111 93 111 115 115 114 114 115 114 114 113 114 114
114 114 114 114 114 114 114 113 112 110 111 86 7 0 0 0
0 0 1 1 0 6 14 11 10 9 7 6 4 3 3 3
0 0 0 0 4 15 11 10 8 8 9 5 0 0 0 0
5 14 5 28 30 45 89 115 118 117 115 119 119 119 118 118
119 118 118 118 114 107 111 105 106 54 118 118 118 118 118 118
118 118 118 117 117 117 117 117 118 117 117 118 118 118 116 117
117 116 116 116 116 116 116 116 116 116 116 116 116 114 111 111
110 27 69 111 98 110 115 115 115 114 115 114 115 115 114 115
114 114 115 114 114 114 114 113 113 112 111 110 76 2 0 0
0 0 0 2 18 20 19 20 21 23 24 25 26 26 27 28
0 0 0 0 4 14 11 9 8 8 9 13 11 15 16 17
23 30 30 40 77 115 118 118 118 117 116 118 118 118 119 119
119 118 119 118 112 109 113 105 101 58 117 118 118 118 118 118
118 118 118 117 117 118 117 118 117 117 117 117 117 116 116 117
117 117 116 117 116 116 116 116 116 116 116 116 115 110 109 114
109 31 82 109 99 109 114 115 114 114 115 114 114 114 114 114
114 114 114 115 114 114 114 114 113 114 113 109 110 53 0 0
0 0 0 9 33 31 31 30 30 30 30 30 29 29 29 29
0 0 0 0 3 14 11 10 10 10 10 20 29 31 33 35
38 43 51 98 114 114 119 118 119 118 118 119 119 119 119 119
118 119 118 117 111 110 113 105 98 58 112 118 118 118 118 118
118 118 118 117 117 117 117 117 117 117 118 117 117 117 117 117
117 117 116 116 116 116 116 116 116 116 116 116 115 110 110 115
99 25 96 109 100 111 114 115 114 115 115 115 114 114 115 114
115 114 114 114 114 113 113 113 113 114 114 110 113 102 21 0
0 0 0 11 32 31 31 31 30 30 30 29 29 29 29 29
0 0 0 0 3 14 11 9 9 10 10 18 33 34 36 37
40 47 94 118 118 118 119 118 119 118 119 119 119 118 119 118
118 118 119 118 114 112 114 106 105 69 102 118 117 117 118 118
118 118 118 118 118 118 118 118 117 117 117 117 117 117 117 116
117 116 117 117 116 116 116 116 116 116 116 116 114 111 113 114
88 40 112 111 106 113 115 115 115 115 114 115 114 114 115 114
114 115 115 115 114 115 114 114 113 114 114 111 113 109 75 2
0 0 0 13 33 31 31 31 31 30 30 30 30 30 29 29
0 0 0 0 3 14 10 9 9 11 10 9 19 19 20 20
24 71 115 119 118 119 119 119 119 118 119 119 119 119 118 119
119 119 119 118 117 114 113 106 115 87 94 117 117 118 118 118
118 118 118 117 118 118 117 117 117 117 118 118 117 117 117 116
117 116 116 117 116 116 116 116 116 116 116 116 114 110 114 112
89 69 114 114 112 115 114 114 115 115 115 115 115 115 115 114
115 114 114 114 114 113 113 113 113 114 114 113 112 110 101 38
0 0 0 15 32 31 31 31 29 30 29 29 30 30 29 29
0 0 0 0 2 14 11 8 9 10 10 6 5 5 7 9
28 111 118 119 118 119 119 119 119 119 119 119 119 119 119 119
119 119 119 119 118 116 112 108 116 103 85 112 118 118 118 118
119 118 118 118 117 118 117 117 117 116 117 117 116 117 117 116
116 116 116 117 117 117 117 116 116 116 116 116 114 111 114 110
96 79 115 115 114 115 115 115 115 115 115 115 115 115 115 115
114 114 114 115 115 114 115 114 114 113 114 113 112 111 104 101
18 0 0 17 32 31 31 30 30 30 30 29 29 29 29 29
0 0 0 0 2 13 10 8 9 11 11 9 8 8 9 12
62 118 118 119 118 119 119 119 119 119 118 119 119 119 119 119
119 118 118 118 118 117 114 108 116 104 86 95 117 118 118 118
118 118 118 118 117 117 118 117 117 117 117 117 117 117 117 116
117 117 117 116 117 116 117 116 116 116 116 116 114 114 114 112
109 92 115 115 116 115 116 116 116 115 115 115 115 114 115 114
114 114 114 114 114 114 114 114 114 114 114 114 113 113 107 101
72 1 0 20 32 31 30 30 30 29 29 29 29 29 29 29
0 0 0 0 2 13 9 8 9 11 12 12 12 12 14 38
96 119 118 120 118 119 119 118 119 119 119 119 119 119 119 119
119 118 119 118 118 118 117 112 116 103 75 99 100 118 118 118
117 117 118 118 118 118 117 117 117 117 117 117 116 117 116 117
117 117 116 116 116 116 116 116 116 116 117 115 114 115 115 114
114 109 112 115 115 115 115 115 115 115 115 115 115 114 115 114
114 114 114 114 114 114 114 114 114 113 114 114 113 111 109 100
111 57 0 21 31 31 30 30 29 29 29 30 29 29 29 29
0 0 0 0 3 15 10 7 9 11 12 13 12 13 27 101
99 120 119 119 118 119 120 119 119 119 119 119 119 119 119 119
119 119 118 118 118 117 118 116 116 105 76 114 75 99 116 118
118 118 118 118 117 117 117 117 117 117 117 117 117 117 117 117
117 117 117 116 116 116 116 116 116 115 116 115 114 115 115 115
115 115 116 111 113 115 116 115 115 115 115 115 115 115 115 115
115 114 114 114 114 114 114 114 114 114 114 114 114 111 111 104
111 109 19 23 31 31 30 29 30 29 30 29 29 29 29 29
5 5 6 7 8 10 8 7 9 11 12 13 13 16 73 112
104 119 119 120 118 119 119 119 119 119 119 119 119 119 119 119
119 119 118 119 118 118 118 119 118 111 80 117 88 101 110 117
117 118 118 117 117 118 118 117 118 117 117 117 116 116 117 117
116 116 117 116 116 116 116 116 116 116 116 115 114 115 115 115
115 115 115 108 103 115 115 115 115 115 115 115 115 115 115 115
115 114 114 114 115 114 114 115 114 113 114 114 114 112 111 103
106 114 73 26 31 31 30 30 30 30 30 29 29 29 29 29
7 7 7 6 6 7 7 7 9 12 13 14 15 44 111 115
110 118 120 119 117 119 119 119 119 120 119 119 119 119 119 118
119 119 118 119 118 118 118 118 118 116 94 117 105 104 109 114
118 117 117 117 118 117 117 117 117 117 117 117 117 117 117 117
117 117 117 116 117 116 115 116 116 116 115 115 114 116 115 116
116 115 115 116 116 115 115 115 115 115 115 115 115 115 115 115
115 115 115 114 114 114 114 114 114 114 114 114 114 111 112 104
110 114 111 46 31 31 30 30 29 29 29 29 29 29 29 29
8 7 8 6 7 7 8 7 9 12 13 14 24 98 115 118
115 118 119 119 116 120 119 119 119 119 119 119 119 118 119 118
119 118 118 118 118 118 118 118 118 118 108 116 108 114 113 115
118 117 118 117 117 118 117 117 117 117 117 117 117 117 117 117
116 116 117 116 116 116 116 116 116 116 116 115 115 116 116 116
116 115 115 115 115 116 115 115 116 115 115 115 115 115 115 115
115 115 115 114 114 114 114 114 114 114 114 114 114 111 112 105
112 113 114 88 31 31 31 30 30 30 29 29 29 29 28 28
8 7 7 6 6 6 6 7 9 11 13 16 69 112 116 119
117 117 119 119 114 119 119 119 118 119 118 119 119 118 119 119
119 119 119 119 119 118 118 118 117 115 96 116 101 116 117 117
118 117 117 118 117 118 117 117 117 117 117 117 117 117 117 117
117 117 117 116 116 116 116 116 116 116 116 115 115 115 115 115
115 115 115 115 115 115 115 115 115 115 115 115 114 114 115 115
115 115 114 114 114 115 114 114 114 114 114 113 114 111 112 107
113 114 113 112 52 30 30 30 29 30 29 28 28 29 29 29
1 1 1 0 0 2 4 6 12 11 13 43 103 108 119 120
119 117 119 119 113 119 119 119 119 119 119 118 118 118 118 119
119 119 119 119 119 119 118 118 118 117 113 118 117 115 117 117
118 117 117 118 118 117 118 117 117 117 117 117 117 117 117 116
117 116 116 117 117 117 116 117 116 116 116 115 115 116 116 115
115 115 115 115 115 115 114 115 115 115 115 115 116 115 115 115
115 114 115 114 114 115 115 114 115 114 114 114 114 113 111 109
114 114 112 113 92 31 31 30 29 30 28 28 28 28 28 28
0 0 0 0 0 2 5 7 10 12 16 84 101 117 120 120
120 118 119 119 113 119 119 119 119 119 119 119 119 119 119 119
119 119 119 119 119 118 119 118 118 118 118 117 117 115 117 117
118 118 118 118 118 118 118 117 118 117 117 117 117 117 116 116
117 117 116 117 116 116 116 116 117 116 116 116 115 116 115 115
116 115 116 116 115 115 115 114 115 115 115 115 115 115 116 115
115 115 115 115 115 115 115 114 114 114 114 114 114 113 112 109
115 113 111 112 113 48 30 30 30 29 29 28 28 28 28 28
0 0 0 0 0 1 6 7 9 16 77 103 98 118 119 119
119 118 119 118 112 118 119 119 119 119 119 119 119 119 119 119
119 119 119 118 118 118 118 118 117 118 119 118 118 116 115 118
118 117 118 118 117 117 117 117 118 117 117 117 117 117 117 117
116 117 116 117 116 116 117 116 117 117 116 116 113 115 115 115
115 115 115 115 115 115 114 115 115 115 116 115 115 115 115 115
115 114 115 114 114 114 114 114 114 114 114 113 114 114 110 111
114 113 111 113 114 83 27 31 29 29 28 28 29 28 28 28
0 0 0 0 0 1 6 9 11 50 112 111 103 118 120 120
119 118 119 118 111 116 119 119 119 118 118 119 119 119 119 119
119 119 119 119 118 118 118 118 118 118 118 118 118 118 116 117
118 117 118 118 118 117 117 117 117 117 116 117 117 116 117 117
116 117 117 117 116 116 116 116 116 116 116 115 112 114 115 115
115 115 115 115 114 114 115 114 115 115 115 115 115 115 115 115
116 115 114 114 114 115 114 114 114 113 114 113 114 114 109 112
114 113 111 113 114 108 21 19 29 28 28 28 28 28 28 27
2 2 0 0 0 4 9 12 29 104 109 114 113 118 119 119
119 119 119 118 111 117 119 119 119 119 118 119 118 119 119 119
119 119 118 118 118 118 118 118 118 118 119 118 118 118 115 116
117 117 117 117 117 118 118 117 117 117 117 117 117 117 117 117
116 117 117 117 116 116 117 116 117 116 116 116 111 111 114 115
114 115 115 115 114 114 115 114 115 115 115 115 115 115 115 115
115 114 115 114 114 114 114 114 114 112 115 115 114 113 110 113
114 112 111 113 114 113 48 7 30 28 28 28 28 28 28 27
4 4 4 4 6 8 10 12 69 117 102 119 118 119 119 119
120 119 119 114 113 117 119 119 119 119 119 119 119 119 118 118
119 118 119 118 118 118 118 118 118 118 118 119 118 118 117 114
118 118 117 117 117 117 117 117 117 117 117 117 116 117 117 117
117 117 117 117 116 116 116 116 116 116 116 116 113 109 115 115
115 116 116 116 115 115 115 115 114 115 114 115 115 115 115 115
115 115 115 115 114 115 115 115 114 112 114 114 114 113 111 114
114 112 112 113 113 113 88 6 29 28 27 28 27 27 27 27
6 5 4 4 3 2 2 7 89 118 98 118 120 119 119 119
119 119 119 112 112 118 119 119 119 119 117 119 119 118 118 118
118 118 118 118 118 118 118 118 118 118 118 118 118 118 118 116
118 117 117 117 117 117 117 117 116 117 117 118 117 117 116 116
117 117 117 117 117 116 116 116 116 116 116 116 114 108 116 115
115 116 116 115 115 115 115 116 115 115 115 115 115 115 114 115
114 114 115 114 115 114 114 114 115 114 114 114 114 114 113 114
114 111 110 114 113 113 108 12 25 27 27 27 27 27 26 26
0 0 0 0 0 0 0 17 99 118 99 115 119 119 119 119
119 119 119 115 107 118 119 119 119 118 117 119 118 118 118 118
118 118 118 118 118 118 118 118 118 118 118 118 118 117 118 117
117 117 117 117 117 117 117 117 117 116 116 117 117 117 117 117
117 117 117 117 116 116 116 116 116 116 116 116 115 110 115 114
115 115 116 115 115 115 115 115 114 115 115 115 115 114 115 115
115 115 115 115 115 115 114 114 114 114 114 114 113 113 113 114
114 111 112 113 113 114 113 38 5 22 28 27 27 27 27 26
