P2
128 120
156
44 43 43 42 42 41 40 39 39 39 38 38 37 36 36 35
35 34 33 33 33 32 32 31 31 30 30 30 30 29 28 28
28 27 26 26 24 22 22 20 19 21 23 24 26 27 22 17
28 31 28 26 26 25 24 21 19 18 15 15 14 14 19 20
18 20 14 19 22 22 23 24 25 25 26 26 27 27 27 28
28 29 29 30 32 31 32 32 33 33 34 34 34 34 35 36
37 37 38 39 39 39 39 41 41 41 42 42 43 43 45 43
43 44 43 44 45 45 45 45 44 44 45 44 45 45 44 44
44 43 43 42 42 41 40 39 39 39 38 37 37 36 36 35
35 34 34 33 33 33 32 31 31 30 30 29 29 29 28 28
27 26 26 26 25 23 22 21 21 22 26 26 28 29 23 16
29 32 29 27 26 25 25 23 22 19 17 16 15 14 19 20
20 18 20 22 24 24 25 26 27 27 27 27 28 28 29 29
30 30 31 31 32 32 32 33 33 33 33 34 36 36 37 37
38 39 39 40 41 40 40 41 42 42 42 42 43 43 44 43
44 44 44 44 44 44 44 45 45 45 44 44 45 45 45 45
43 43 43 42 41 41 40 39 40 39 38 38 37 37 36 35
35 35 34 33 33 32 32 32 31 31 30 30 29 29 28 29
27 28 27 27 26 25 23 22 22 24 28 29 30 30 23 14
29 33 30 28 27 26 25 24 23 20 20 21 17 14 17 20
20 20 22 24 25 26 26 27 28 28 28 29 29 29 30 31
31 32 32 32 33 32 33 33 34 34 35 36 37 37 37 38
38 39 40 40 40 41 41 41 42 43 43 44 43 44 45 43
44 44 44 44 44 44 45 45 46 45 46 45 46 45 44 44
44 43 42 42 41 41 40 40 39 39 39 38 38 36 37 36
36 35 35 34 33 33 32 32 32 31 30 30 30 29 29 28
28 28 27 26 26 25 24 24 23 25 29 30 32 31 24 15
28 34 30 29 28 27 25 25 24 21 22 22 20 16 16 22
20 22 23 26 26 27 27 29 29 29 29 30 31 31 31 32
31 32 32 33 33 33 34 35 36 36 36 37 38 39 38 39
38 40 40 41 41 41 41 41 41 42 43 43 43 44 45 43
44 45 44 45 45 45 44 44 45 44 45 44 44 44 45 46
43 42 42 43 42 40 41 40 39 39 38 37 38 37 37 36
35 35 34 34 34 33 33 33 32 31 31 31 31 30 30 29
29 29 28 28 27 27 25 24 24 26 30 31 32 32 25 15
27 34 29 29 29 28 27 26 25 22 23 23 21 17 15 23
20 23 25 27 27 28 28 29 30 30 30 30 31 31 31 31
32 32 33 34 34 34 35 36 36 36 37 37 38 40 39 40
40 40 41 41 41 41 42 42 42 43 43 43 43 44 46 43
44 44 45 44 45 45 44 44 44 44 45 46 46 46 46 46
44 43 43 42 42 41 40 40 40 40 39 38 38 38 38 37
36 36 35 34 34 34 34 32 32 31 31 32 31 31 30 29
29 29 29 28 27 28 27 26 27 28 33 33 34 33 26 16
27 34 31 31 29 29 28 27 25 23 24 23 23 19 17 23
23 25 27 28 29 30 30 31 31 32 32 32 31 32 32 33
34 33 35 35 35 36 36 36 37 37 38 38 39 40 39 40
41 41 42 42 42 42 42 43 43 44 44 44 44 44 46 44
45 45 44 44 43 43 44 45 45 46 45 45 46 46 46 46
44 43 43 42 42 42 41 41 41 40 40 39 39 38 37 37
36 36 35 35 35 34 34 33 33 32 32 31 31 31 30 30
30 29 28 28 28 28 28 28 29 30 33 33 34 33 26 18
26 35 32 31 30 29 29 28 26 26 26 25 24 22 18 23
24 26 29 29 29 30 30 31 31 31 32 32 33 34 34 34
34 35 35 35 36 36 36 37 38 37 38 39 39 40 39 40
40 41 41 41 42 42 42 42 44 44 44 45 45 44 44 42
43 43 43 45 45 46 45 45 45 45 45 45 45 46 46 45
44 44 43 42 41 42 41 40 41 40 40 39 39 38 38 37
37 37 36 35 35 35 34 33 33 33 33 32 31 31 31 30
30 30 29 29 29 29 29 28 29 30 35 35 35 35 27 20
25 36 32 31 31 30 30 29 28 27 26 26 25 23 20 24
25 28 30 30 30 30 30 31 32 32 33 33 33 34 34 35
35 35 36 36 36 37 37 38 38 38 39 39 40 42 41 41
41 42 42 42 42 42 43 44 44 44 43 42 42 43 44 45
45 45 46 45 45 45 46 46 45 46 46 45 46 46 46 46
45 44 44 43 42 42 41 41 41 40 40 39 39 38 38 37
37 36 36 36 35 35 35 34 34 33 33 33 32 32 32 31
31 30 30 30 30 29 29 29 30 31 35 34 35 35 27 22
24 36 33 32 32 31 30 30 30 30 26 26 26 24 21 25
26 29 30 30 31 32 32 33 34 33 33 34 34 35 35 35
36 36 36 36 37 37 38 38 39 39 39 40 40 42 41 42
42 42 43 43 43 40 42 43 43 43 43 44 45 45 45 45
46 45 45 45 45 45 45 46 46 46 46 46 46 47 46 47
45 44 44 43 43 43 42 42 41 41 41 40 40 39 39 38
37 37 37 36 36 35 35 34 34 34 33 33 33 32 32 32
31 31 31 31 31 30 30 31 32 33 37 36 37 36 29 23
24 36 34 33 32 32 31 31 29 30 28 28 27 26 24 26
28 31 32 32 33 33 34 34 34 34 35 35 35 35 36 36
36 37 37 38 38 38 38 39 40 40 40 41 42 42 42 42
43 44 43 42 43 44 43 44 46 45 45 45 45 45 45 46
46 46 46 46 46 46 46 46 46 47 47 47 47 47 47 47
45 44 44 43 43 43 42 42 42 41 41 40 40 40 39 39
38 37 37 37 37 36 36 35 34 34 34 34 33 33 33 32
32 32 31 31 31 30 31 31 32 34 37 37 37 37 29 25
24 37 35 33 32 33 33 31 30 31 29 29 28 27 26 29
29 32 33 33 33 34 34 34 35 35 35 36 36 36 37 37
37 37 38 39 39 39 39 39 40 40 41 41 41 43 42 41
40 41 42 43 44 44 45 45 45 45 45 46 46 45 46 45
46 46 46 46 46 46 46 47 46 47 47 47 47 48 47 46
45 45 44 43 43 43 43 42 42 41 41 41 40 40 39 39
38 38 38 37 37 36 36 35 35 35 34 34 34 33 33 33
33 32 32 32 32 31 32 32 33 34 37 38 38 37 31 25
20 34 35 33 33 33 32 32 31 33 29 30 30 28 26 29
31 33 34 33 34 34 35 35 35 36 36 36 36 37 37 37
38 38 38 39 39 40 40 40 41 41 41 41 39 40 40 43
43 44 44 44 44 45 46 46 45 45 45 46 46 46 46 46
46 46 46 46 47 46 46 46 47 47 47 47 47 47 47 47
46 45 45 44 44 43 43 42 43 42 42 41 40 40 40 39
38 38 38 37 37 37 36 36 36 35 35 35 35 34 33 33
33 33 32 32 32 31 32 32 33 35 38 39 39 38 31 23
15 33 37 34 35 34 33 33 32 33 30 31 30 29 27 31
32 34 34 35 35 35 35 36 36 37 36 37 37 38 38 38
38 39 39 39 40 40 40 40 40 39 40 41 42 43 43 44
44 45 44 45 45 45 47 45 46 46 45 46 46 46 46 46
46 46 46 47 47 47 47 46 47 48 47 47 48 48 48 48
46 45 45 45 44 44 44 43 43 42 42 42 41 40 40 40
39 39 38 38 37 37 36 37 36 35 36 35 35 34 34 34
34 34 33 33 33 33 33 33 34 35 39 39 40 39 31 25
23 36 38 36 36 36 34 33 34 34 32 32 32 31 28 32
33 35 36 35 35 36 36 37 37 37 38 37 38 39 38 39
40 40 40 40 40 40 40 41 41 41 43 43 43 44 44 44
45 45 45 45 45 46 47 46 46 46 46 47 47 47 47 46
47 47 47 47 48 48 47 47 47 48 48 48 48 48 49 49
46 45 45 45 44 44 44 43 43 43 42 41 41 41 40 41
40 39 39 38 39 38 37 36 37 36 36 35 35 35 35 34
34 33 34 33 33 33 33 34 35 36 40 40 40 39 31 28
27 35 39 37 36 35 35 34 33 35 32 32 32 31 28 33
34 36 36 36 36 36 36 37 38 37 38 38 39 39 39 39
39 39 39 40 41 42 41 42 42 43 43 43 44 44 44 44
45 45 46 45 46 46 48 46 46 46 47 47 47 46 47 47
47 47 46 47 47 47 47 47 48 48 49 49 49 49 49 48
45 45 45 45 45 44 44 44 43 43 42 42 41 42 41 40
39 40 39 38 38 38 37 37 37 37 36 36 36 35 35 34
35 34 34 34 33 33 33 34 35 36 40 40 40 39 31 28
30 34 39 38 37 37 36 35 34 35 33 33 33 32 28 34
34 36 36 36 37 37 37 37 38 38 37 38 38 38 38 38
39 40 41 41 42 42 42 42 42 43 43 43 44 44 44 44
45 46 46 46 46 46 48 47 46 47 46 46 47 47 47 47
47 47 47 47 48 48 47 48 48 48 49 49 47 47 47 48
45 46 45 45 44 45 44 44 43 43 42 42 42 42 41 41
40 40 39 39 39 39 38 38 37 37 37 36 37 36 36 35
35 34 34 34 34 34 34 34 35 37 41 41 41 41 33 29
32 33 39 38 37 37 36 35 35 36 33 34 33 32 29 35
35 37 37 37 38 37 38 38 38 38 38 38 38 39 39 40
40 41 41 42 42 43 42 43 43 44 43 44 45 45 45 45
46 46 46 47 47 46 48 47 47 47 47 47 47 48 48 47
47 46 48 48 49 49 48 48 46 48 48 48 49 49 48 48
45 46 45 46 45 44 44 44 43 43 43 43 42 42 41 41
40 40 40 40 39 39 39 38 38 38 38 37 37 36 36 35
36 35 35 35 34 34 34 34 36 38 42 42 42 42 33 30
34 32 39 38 38 37 36 36 36 37 35 35 34 33 30 35
35 38 38 38 38 38 38 37 38 38 40 39 40 40 40 40
41 42 42 42 43 43 42 43 43 44 44 45 45 45 45 46
45 47 47 47 47 47 48 47 47 48 47 48 48 48 48 48
48 48 48 47 48 47 48 49 48 48 48 48 48 49 48 48
46 46 46 45 45 44 44 44 44 44 43 43 43 42 41 41
41 40 41 40 39 40 39 38 38 37 37 37 37 36 36 36
36 35 36 35 35 35 35 35 37 38 42 42 43 42 34 30
36 31 40 39 38 38 37 37 36 36 35 35 34 34 31 36
36 38 38 38 37 38 39 39 39 40 40 40 41 41 40 41
41 42 42 43 43 44 43 44 45 44 44 45 45 45 46 46
47 46 47 47 47 48 49 48 48 48 48 48 48 48 46 46
47 48 48 49 48 49 48 48 48 48 48 49 48 48 49 48
46 45 46 45 45 44 45 44 44 44 43 43 43 42 42 41
41 41 40 40 40 40 40 39 39 38 38 38 37 37 36 36
36 36 36 36 35 35 35 35 37 38 42 43 42 42 34 31
38 30 40 40 39 39 39 37 36 38 35 36 35 34 31 35
33 38 38 38 39 39 40 40 40 40 40 40 41 41 41 42
42 43 43 43 43 44 44 44 45 45 45 45 45 45 46 46
46 47 47 47 47 48 49 48 48 48 47 47 47 47 48 48
48 48 48 48 48 48 48 48 48 48 48 48 48 48 48 49
46 46 45 45 45 45 45 44 44 44 43 43 43 43 42 42
42 41 41 41 40 40 40 39 39 39 38 38 38 37 37 37
37 36 36 36 36 36 36 36 38 39 43 44 43 43 35 31
39 31 42 40 39 39 39 38 39 40 36 37 38 39 32 38
37 39 39 39 39 40 41 40 41 41 41 41 41 42 42 42
42 43 44 43 44 44 44 45 45 45 45 45 45 46 47 47
47 47 47 48 47 46 47 46 47 46 47 47 49 49 49 49
48 48 48 47 48 48 49 48 49 49 48 48 48 48 48 48
46 46 45 46 45 45 45 45 44 44 43 43 43 42 43 42
42 41 41 41 40 41 40 39 39 39 39 38 39 37 38 37
37 36 36 36 36 36 36 37 37 38 43 44 43 42 35 31
41 35 41 40 40 40 45 45 39 40 36 37 36 37 37 40
39 40 40 40 40 41 41 40 40 41 41 42 42 42 42 42
43 43 44 44 44 44 45 44 45 45 46 46 46 47 47 47
46 46 47 46 47 48 48 47 49 48 48 48 48 48 49 50
48 48 48 48 48 48 49 49 49 49 49 49 49 49 49 49
46 45 46 45 45 45 45 44 44 44 44 44 43 43 43 43
43 42 42 41 41 41 40 40 39 39 39 39 39 38 38 37
38 37 37 36 36 36 37 37 37 39 44 44 44 44 36 32
41 33 43 41 43 49 49 42 34 31 30 30 35 36 36 39
38 40 41 42 42 41 41 41 41 41 41 41 42 43 43 43
43 43 44 44 44 45 45 46 46 46 47 46 47 47 47 47
46 47 48 48 48 48 49 48 48 48 48 48 49 49 49 50
48 48 48 48 49 48 49 49 49 49 48 49 48 48 48 48
47 47 46 46 46 46 45 45 44 44 44 43 43 43 43 43
42 42 42 42 41 41 41 41 40 40 39 40 39 39 39 38
38 37 38 37 37 37 37 37 37 39 45 44 45 45 37 33
42 37 40 42 52 52 42 36 29 28 24 22 26 29 32 41
44 44 43 43 43 45 43 42 43 43 42 42 43 43 43 44
44 44 44 45 45 46 46 46 46 46 45 46 46 47 48 49
49 49 49 49 49 49 49 49 50 49 50 49 49 50 49 51
49 49 49 48 48 49 48 49 49 49 48 49 49 49 49 49
46 45 46 46 46 45 45 45 45 44 44 44 44 43 44 43
43 42 42 42 41 41 40 41 40 40 39 39 39 39 39 39
38 38 38 38 38 38 37 37 36 39 45 46 46 45 36 32
42 36 40 53 50 44 41 35 30 22 21 23 24 27 27 28
34 39 43 43 41 42 44 43 43 42 42 43 43 44 43 44
44 44 45 45 46 46 45 45 45 46 47 47 47 48 49 48
49 49 50 49 49 50 49 50 50 49 49 49 50 49 50 51
49 48 49 49 49 49 49 49 49 50 49 49 49 48 49 48
47 46 46 46 46 46 46 46 45 45 45 44 44 44 44 43
43 43 43 43 42 42 42 41 41 41 40 40 40 40 39 39
38 39 39 38 38 38 39 38 35 32 47 48 47 46 38 33
43 38 45 48 39 40 37 27 19 16 15 14 19 25 24 22
26 24 27 34 40 44 44 45 44 44 43 43 44 44 44 44
45 45 45 45 46 45 45 46 47 47 47 47 47 48 50 49
49 49 50 49 49 49 49 49 49 50 50 50 50 49 50 51
49 49 49 50 49 50 49 49 49 50 50 49 50 49 50 49
47 46 46 46 46 46 46 46 46 45 45 45 44 44 44 44
44 43 42 42 42 42 42 41 42 41 40 41 41 40 40 39
40 39 39 39 38 38 40 39 32 23 43 47 47 45 37 33
43 45 38 30 24 26 22 23 18 13 16 15 14 16 26 26
26 26 22 22 28 33 41 44 46 44 43 44 44 44 44 44
45 46 46 46 46 46 46 47 47 47 48 48 48 48 50 50
50 50 50 49 50 50 50 50 50 49 50 50 50 49 49 51
50 50 50 50 49 49 50 49 49 50 50 50 50 50 49 50
47 46 46 47 47 47 46 46 46 45 46 45 44 45 45 44
44 44 43 43 43 43 42 42 42 42 41 41 41 41 40 39
40 39 39 37 38 41 41 40 28 18 38 49 47 47 38 33
43 36 24 19 17 15 15 17 16 18 18 21 19 16 17 24
31 25 28 20 25 22 27 37 41 46 45 44 44 44 46 46
46 46 46 46 47 47 47 47 48 48 48 49 49 49 51 50
49 51 50 51 50 50 50 50 51 49 49 50 50 50 50 51
50 50 50 50 50 50 49 50 50 50 49 50 49 48 48 48
47 47 47 46 47 46 47 47 46 46 46 45 45 45 45 44
44 43 43 43 43 43 42 42 42 42 42 42 42 41 41 41
40 40 40 34 40 39 40 36 31 24 25 39 48 47 27 24
57 13 17 15 14 12 17 15 19 20 23 23 22 26 25 19
26 31 27 28 28 22 23 26 37 41 46 45 47 46 47 45
46 47 47 47 47 48 49 48 49 49 49 49 49 50 51 50
50 50 50 51 50 50 50 51 50 50 50 50 51 51 51 51
51 50 51 51 51 51 50 48 49 47 48 49 50 50 50 50
47 47 46 46 47 47 46 46 46 46 46 45 45 45 45 45
45 44 44 43 44 43 43 43 42 42 42 41 42 41 41 41
37 38 38 35 39 40 39 34 26 25 23 32 43 37 26 17
22 5 4 16 16 16 15 20 18 20 23 25 29 25 30 25
28 30 28 32 25 23 27 26 30 37 40 47 48 47 47 46
46 47 47 47 47 48 48 48 49 50 49 50 50 50 50 50
50 51 51 51 51 50 50 50 50 50 51 50 51 50 51 51
50 49 49 48 47 48 49 50 51 52 50 48 50 49 49 48
47 47 47 47 47 47 47 46 47 46 46 45 45 44 45 45
44 43 44 43 43 43 43 43 43 42 42 42 42 41 42 41
39 35 36 34 37 36 37 33 20 17 34 33 32 39 35 20
7 13 6 15 23 19 18 19 18 19 19 18 21 24 32 31
33 40 39 37 36 30 25 30 37 35 35 43 43 47 49 45
46 47 47 47 47 47 49 49 49 49 49 50 49 50 51 50
49 50 50 50 51 51 49 50 50 50 50 51 50 50 49 48
46 47 49 49 50 47 48 49 50 50 48 48 48 47 48 48
47 46 47 47 46 46 46 46 46 45 46 45 45 45 45 44
45 44 43 43 43 43 43 42 42 43 42 41 41 41 41 37
37 35 39 36 34 38 32 26 25 32 36 51 37 29 42 49
35 9 9 3 16 22 17 20 23 24 26 24 24 26 25 24
25 32 39 23 22 26 18 19 27 42 44 41 45 44 47 45
45 47 47 47 47 47 47 48 48 49 49 49 49 50 50 50
50 50 50 50 51 50 51 50 49 48 47 47 48 49 50 50
49 50 49 49 49 49 49 48 49 50 47 48 48 48 49 48
47 46 46 46 46 46 46 46 46 45 45 45 45 45 45 44
44 44 43 43 43 42 42 42 42 42 42 41 41 40 39 37
38 38 37 37 38 34 28 35 20 16 19 23 44 37 30 36
45 53 19 11 12 19 24 24 26 29 36 36 38 36 34 31
29 23 38 38 28 23 23 16 17 28 34 41 49 44 48 45
46 47 46 46 47 47 47 48 48 48 49 49 49 49 50 48
49 49 49 50 49 48 48 48 48 48 49 49 49 48 49 49
49 49 48 48 48 48 48 48 48 48 47 48 47 47 48 47
47 46 46 46 45 45 46 46 46 45 45 46 45 45 45 44
45 44 43 43 43 42 42 42 41 42 41 41 41 40 39 38
37 36 39 38 35 20 13 12 10 18 22 24 29 35 34 36
44 57 49 9 20 13 25 38 35 30 32 33 37 38 37 45
37 26 32 37 38 27 25 18 18 29 30 32 39 55 51 46
46 46 47 46 47 47 48 48 49 49 49 49 49 49 49 48
48 48 48 49 49 48 48 50 48 49 48 48 48 48 48 48
48 48 48 48 48 48 48 48 49 49 48 47 47 48 47 47
47 47 46 45 45 46 46 46 46 46 45 45 45 45 44 44
44 43 43 43 43 43 43 46 47 45 43 42 42 41 39 40
40 40 36 30 23 19 16 7 9 17 24 32 48 54 50 44
40 47 57 37 23 16 15 35 34 35 34 30 29 44 44 36
56 36 29 35 37 33 24 21 19 23 33 32 36 44 52 50
46 47 47 47 46 48 48 48 49 48 48 47 48 48 48 48
49 49 49 49 48 48 48 50 49 49 49 48 49 48 49 48
48 48 48 48 48 48 48 48 47 48 47 47 47 48 48 48
47 47 47 49 57 55 53 51 49 47 46 45 46 46 45 45
45 45 45 44 44 43 45 58 59 54 50 47 45 41 41 41
38 38 34 31 18 13 16 14 12 19 29 37 51 63 74 73
73 68 67 60 24 28 27 36 48 34 33 39 37 35 46 44
40 61 37 33 35 37 28 26 18 19 33 35 38 40 46 48
50 47 47 47 47 48 48 47 49 49 49 49 48 48 49 48
49 48 49 49 49 48 49 50 49 49 49 49 49 49 49 49
49 49 48 48 49 49 49 49 48 49 48 48 48 48 47 48
48 47 47 52 62 60 59 57 53 52 51 49 47 47 46 47
45 44 44 45 44 44 48 60 59 55 53 54 53 48 42 37
39 34 21 14 9 11 12 17 22 34 36 48 61 67 60 63
68 63 54 54 47 13 14 8 49 46 36 31 38 41 46 57
49 50 62 32 42 34 32 27 19 14 29 36 37 43 44 46
46 51 49 48 48 48 49 48 48 49 49 49 49 49 49 49
49 49 50 49 49 49 49 50 50 49 49 49 49 49 49 49
49 50 49 49 49 49 49 48 48 48 49 48 49 49 48 48
49 47 47 52 63 61 59 55 55 56 58 59 52 53 50 48
46 44 44 45 45 44 47 56 56 54 53 54 52 47 29 31
29 21 14 8 7 14 14 20 22 29 44 54 64 67 61 67
68 61 50 37 31 13 4 2 25 47 22 28 35 42 45 47
54 48 61 57 42 47 33 32 25 19 23 41 44 38 45 46
43 48 52 48 49 49 51 49 49 49 49 50 49 50 49 49
49 49 49 49 49 49 49 50 50 49 49 50 49 49 48 49
49 48 49 48 48 49 49 49 48 48 49 49 49 49 48 47
51 51 50 52 55 54 58 57 58 60 62 61 53 53 55 56
53 49 48 48 46 45 46 43 35 38 45 49 49 28 26 24
18 15 11 4 6 12 18 16 30 37 45 47 49 47 46 48
55 48 24 18 19 17 3 4 4 41 26 18 25 35 45 50
55 50 42 67 53 56 55 35 28 26 22 34 47 44 48 49
46 49 49 53 47 49 51 49 49 50 50 50 50 50 49 50
50 49 50 50 50 50 50 51 51 49 50 49 49 49 48 50
50 50 49 49 48 49 49 49 50 50 49 50 50 50 49 49
49 55 56 59 23 7 21 42 52 57 60 61 44 12 21 33
43 50 49 53 55 50 48 38 22 21 22 24 25 35 25 13
9 13 10 8 11 20 22 31 32 35 42 49 47 42 46 52
49 28 25 20 27 12 7 10 10 24 34 12 13 26 41 58
54 51 42 49 62 48 65 48 28 28 29 23 44 53 49 56
51 46 50 52 50 48 50 50 50 50 50 50 50 50 49 49
50 50 49 50 49 50 50 50 50 50 50 50 49 50 50 49
50 48 50 50 49 49 51 49 50 50 50 50 49 49 49 48
46 50 60 64 22 0 1 16 25 26 28 44 41 0 0 0
3 10 19 28 39 45 49 39 19 13 21 27 38 25 14 9
8 11 15 12 16 31 35 36 35 39 38 35 46 47 52 68
62 46 44 31 31 16 20 11 8 4 34 12 6 19 35 45
66 60 44 39 63 52 61 60 36 23 36 24 35 53 64 57
54 51 48 49 52 50 51 50 50 50 50 50 50 50 50 50
50 50 50 49 50 50 50 51 50 50 49 49 49 49 49 49
50 50 50 50 50 50 50 51 51 50 47 48 48 48 48 49
53 57 62 65 24 0 0 11 17 21 21 37 41 1 0 0
1 0 2 0 1 9 48 37 14 12 17 28 24 13 9 7
9 13 16 23 32 49 57 74 44 48 53 43 39 44 41 43
44 54 58 51 29 32 32 13 7 4 19 11 2 12 29 40
54 63 59 43 52 68 55 67 59 28 36 33 25 44 57 68
64 56 49 48 50 50 51 51 50 50 50 50 50 50 50 50
50 50 50 50 50 50 49 51 50 50 49 49 50 49 49 50
50 50 50 50 50 50 50 50 50 50 50 50 50 49 49 49
9 21 34 48 26 0 0 8 9 10 12 34 43 7 0 0
0 0 1 0 0 3 46 34 11 4 20 24 15 8 9 10
11 17 22 35 59 65 65 80 60 58 53 39 36 32 43 49
51 53 58 59 48 22 13 10 10 11 5 16 3 10 24 42
43 55 67 67 46 67 62 58 71 53 36 43 32 32 51 63
72 61 49 49 50 50 50 51 51 51 50 50 52 51 51 51
51 51 51 51 51 51 51 51 51 51 50 49 50 50 50 50
51 50 51 51 51 51 51 50 50 50 50 50 50 50 49 48
0 0 0 10 24 0 0 2 1 0 9 31 39 0 0 0
0 3 1 0 0 2 45 30 5 16 26 17 9 6 10 15
14 20 34 50 68 90 90 85 93 92 79 62 51 40 43 48
42 44 47 55 43 17 16 14 18 35 8 17 4 12 21 41
50 58 61 77 69 69 63 62 55 68 44 46 43 30 41 48
61 69 67 53 55 55 50 50 50 51 50 50 51 51 51 51
51 50 51 52 51 51 52 51 50 51 52 51 52 51 51 52
50 50 52 52 51 51 51 50 50 50 49 49 50 50 50 49
0 0 0 6 22 0 0 0 0 0 4 35 42 0 0 0
0 17 14 2 0 1 43 22 10 19 19 11 7 8 15 15
15 23 36 60 73 86 87 95 98 103 93 65 53 49 44 25
16 28 43 47 41 22 21 19 18 43 18 13 12 18 19 31
59 56 57 59 74 78 70 64 65 60 62 50 52 37 37 50
52 60 59 62 57 54 51 48 49 51 50 51 52 51 52 52
51 51 51 51 51 50 50 50 52 51 52 51 51 51 51 51
51 51 51 51 52 51 51 50 51 50 51 51 51 51 51 51
1 0 0 5 19 0 0 0 0 0 3 36 46 1 0 0
5 20 21 16 8 1 36 15 15 19 16 13 14 18 13 16
16 25 41 66 75 77 93 107 122 94 93 80 57 47 28 15
17 30 41 47 45 32 29 28 22 18 23 6 15 22 22 26
48 53 68 52 58 78 87 68 67 54 72 57 55 51 37 38
45 54 57 58 59 60 53 50 50 51 50 51 52 52 52 51
51 51 51 50 51 50 51 52 52 51 51 51 51 51 49 48
51 52 52 51 51 51 52 51 52 52 52 52 52 51 51 51
19 4 0 5 18 1 5 0 0 0 4 33 48 1 0 0
9 21 22 22 20 5 37 14 13 13 11 13 12 10 11 11
21 31 38 66 91 81 81 99 111 101 103 83 76 47 25 17
19 26 37 44 53 43 37 41 23 16 18 7 20 28 26 26
41 63 64 62 53 53 82 85 77 63 54 69 57 55 34 40
31 44 54 60 52 53 54 51 52 51 49 51 52 52 52 51
52 52 51 51 52 51 51 52 52 51 50 51 51 51 50 50
50 52 52 52 52 52 52 52 52 51 50 49 48 50 50 51
11 2 0 4 18 3 3 0 0 0 9 34 49 1 0 1
7 20 22 21 20 9 20 14 8 7 7 9 9 5 9 11
19 31 42 50 72 101 104 97 84 92 95 97 90 56 18 24
26 28 38 37 48 57 44 40 19 10 10 15 26 32 30 28
34 60 65 77 52 53 63 79 81 80 53 66 63 60 43 41
39 32 47 62 60 52 53 54 52 49 50 51 52 52 52 53
52 52 52 51 51 51 52 51 52 51 51 52 51 50 51 51
51 53 52 52 51 51 52 51 47 46 46 46 46 44 41 37
8 5 0 5 20 2 0 0 0 0 16 37 53 3 1 8
5 6 16 21 20 4 13 13 8 8 5 6 8 2 6 11
25 27 35 51 67 83 95 88 103 106 105 117 103 72 39 25
31 33 39 39 42 46 53 49 20 5 10 26 39 44 32 35
26 59 74 72 74 43 63 69 70 74 68 59 69 60 49 40
41 35 30 65 68 54 50 53 55 52 51 52 52 52 52 53
51 52 52 52 52 52 51 52 51 51 51 51 51 51 50 49
51 52 48 49 48 47 47 44 40 36 33 29 26 24 24 23
0 4 1 6 36 14 10 10 5 0 6 36 64 40 32 26
19 7 3 10 14 4 9 6 11 1 8 7 11 4 8 10
40 50 38 43 56 61 69 89 96 110 146 149 146 146 112 48
37 40 43 42 39 42 48 47 18 3 20 39 51 56 38 47
24 53 67 75 72 68 39 68 71 71 74 51 73 48 39 38
41 33 26 58 65 56 51 50 51 52 52 52 52 53 53 54
51 52 52 52 52 52 52 50 50 49 47 50 48 47 47 47
47 43 40 36 33 29 27 25 25 25 26 22 26 29 30 31
0 0 0 8 60 61 49 46 43 34 22 40 68 41 41 44
46 44 39 33 30 19 6 3 20 9 9 7 9 12 2 11
51 91 75 57 46 52 60 76 106 141 148 149 151 151 142 115
53 47 42 42 42 42 44 38 20 8 30 53 67 65 47 62
28 34 61 79 75 79 65 55 72 68 63 55 63 46 34 30
37 36 25 46 54 59 56 51 54 51 52 53 53 52 52 53
52 50 49 48 47 47 48 49 48 47 45 43 40 37 34 31
28 27 27 26 26 28 29 31 31 31 33 22 21 34 36 36
0 0 0 8 63 64 55 62 64 68 65 66 64 26 23 25
26 27 29 32 37 25 11 7 23 16 12 5 5 17 13 13
50 91 104 107 94 78 78 109 125 135 147 151 151 151 150 140
96 55 48 42 44 40 40 39 22 13 41 62 76 71 63 77
36 35 42 74 84 77 72 76 63 64 67 66 50 48 38 32
36 33 23 41 50 57 53 50 49 49 50 52 52 51 50 51
49 50 51 50 45 45 41 38 34 32 29 29 29 29 29 30
31 32 33 34 35 35 37 34 34 38 40 36 16 39 41 41
2 0 0 9 63 55 58 65 68 72 69 57 49 27 24 24
23 22 21 20 19 15 8 7 12 15 10 5 2 6 25 25
42 66 89 102 111 117 133 146 150 151 151 151 151 151 151 149
125 72 48 45 42 38 34 31 20 25 50 64 71 72 71 90
54 45 36 32 68 85 83 74 70 59 61 55 49 44 41 34
35 37 21 30 44 46 51 52 50 49 52 52 49 49 47 44
41 38 44 50 31 26 28 29 30 31 32 33 34 35 36 36
37 38 40 40 41 41 42 38 31 38 44 44 21 35 43 41
47 37 28 29 58 46 57 64 67 71 70 60 51 31 26 25
23 21 19 19 19 17 14 5 5 13 12 5 6 4 5 41
47 67 84 100 124 139 149 151 151 151 151 151 151 150 151 151
145 96 48 40 43 40 34 35 23 37 56 68 63 74 81 94
72 57 38 39 41 65 75 84 79 56 45 39 41 40 36 34
34 34 26 22 37 44 47 52 49 44 41 39 38 34 33 31
30 30 36 49 30 31 34 36 36 37 38 39 40 40 42 41
43 43 44 45 44 44 44 45 43 33 39 44 37 22 46 43
63 63 63 66 59 31 42 53 58 64 66 60 55 35 26 23
20 17 17 17 19 18 17 18 16 10 12 8 5 3 5 40
86 70 78 99 109 124 140 148 152 151 151 151 151 150 151 151
150 113 64 45 42 42 35 30 31 40 51 62 64 68 67 92
77 55 43 49 43 38 55 63 71 80 57 36 26 39 34 32
39 31 32 17 26 36 42 41 38 33 31 34 36 37 37 37
37 37 35 44 31 36 40 42 43 43 44 44 45 45 46 46
45 44 45 45 46 45 44 46 48 46 32 37 43 16 41 46
64 65 65 67 51 8 5 9 15 24 33 36 52 37 24 21
14 5 7 7 17 22 21 17 19 17 14 6 6 6 6 52
88 74 60 84 104 121 137 145 150 151 152 151 151 151 151 151
150 138 89 53 48 43 35 33 34 49 54 61 58 68 52 73
67 60 50 45 45 38 41 53 53 55 57 42 25 26 35 33
40 30 35 19 21 34 40 39 38 36 39 40 39 40 41 45
43 42 42 51 36 41 44 45 46 46 47 47 47 48 47 48
49 48 47 46 45 47 45 46 48 49 47 33 37 25 31 46
58 60 63 66 46 3 0 0 0 3 14 25 53 36 22 20
11 0 0 2 8 13 12 8 12 14 15 17 3 6 9 55
55 31 44 85 109 127 143 149 151 151 151 151 151 151 151 151
151 146 112 73 51 45 45 40 36 54 58 68 64 77 56 72
60 53 54 50 44 39 38 44 39 40 36 38 28 21 27 30
27 27 29 19 20 33 44 42 44 41 44 42 45 45 45 47
47 45 36 33 28 43 47 48 47 48 48 49 49 49 49 50
49 49 48 49 47 46 47 46 48 49 49 47 32 30 12 25
48 45 51 61 42 1 0 0 0 5 1 15 56 35 21 20
12 0 1 9 4 2 3 2 5 6 13 29 32 20 16 52
41 37 38 59 66 98 128 145 152 152 151 151 151 151 151 151
151 150 128 90 68 46 41 41 43 55 61 73 63 79 69 81
59 58 64 56 47 42 40 39 44 25 32 34 27 22 28 34
30 29 24 19 19 36 50 50 49 45 43 48 47 47 47 48
48 46 24 14 13 42 48 50 51 49 49 48 49 49 50 50
50 50 49 49 48 47 47 46 46 48 50 49 45 28 9 2
45 42 49 62 41 0 0 0 0 5 1 5 56 28 17 6
0 0 3 17 12 6 5 0 0 2 7 35 43 28 24 53
49 55 59 22 28 57 76 100 136 150 152 152 151 151 152 151
151 151 142 105 91 71 46 41 60 60 55 75 63 77 75 76
50 57 62 62 50 43 42 41 49 37 17 32 31 28 34 32
29 28 20 18 23 37 51 42 51 51 47 48 50 48 45 44
40 46 23 17 10 39 49 50 52 50 51 50 51 50 50 50
50 50 49 49 49 49 47 46 44 47 49 49 46 42 19 0
47 47 54 60 39 0 0 0 0 1 0 7 58 16 1 0
1 3 3 13 20 12 4 1 0 0 6 40 53 36 24 51
62 70 91 60 61 125 116 81 96 133 149 151 152 151 151 151
151 151 148 119 113 92 65 54 74 56 50 69 62 76 79 68
52 58 66 70 50 44 44 42 42 39 18 33 34 31 35 35
39 31 15 13 20 32 52 47 46 54 54 48 50 30 12 7
12 41 21 13 8 37 48 50 51 50 50 50 50 50 50 50
50 50 50 49 49 48 49 47 44 45 47 46 44 45 36 0
24 32 41 47 37 0 0 0 0 0 0 9 58 17 0 0
1 1 4 10 25 20 16 5 2 2 5 42 58 40 25 44
94 107 107 84 76 101 108 120 127 132 146 151 151 151 151 151
152 152 151 140 122 111 83 60 74 59 42 57 62 70 73 65
50 59 67 67 58 42 54 43 42 40 19 35 48 40 38 35
34 32 17 14 22 32 53 56 47 48 53 51 50 30 22 29
38 46 23 3 6 36 48 49 50 50 49 50 50 50 49 49
49 49 49 49 48 48 49 49 46 42 42 42 43 47 40 3
0 0 0 5 30 0 0 0 0 0 0 11 58 15 0 0
0 1 11 22 25 23 23 7 0 2 6 43 60 41 34 45
118 146 121 87 62 95 118 141 145 144 148 150 151 152 151 151
151 151 151 149 133 115 100 68 82 60 35 44 66 65 61 59
50 56 69 65 54 53 62 43 39 40 27 34 71 52 48 35
26 31 16 18 18 26 45 66 52 50 51 49 49 48 45 50
49 46 28 6 8 35 47 48 50 50 49 49 49 49 50 50
49 49 49 49 49 48 49 48 48 46 43 42 45 48 42 5
3 0 0 1 28 0 0 1 12 6 0 7 55 10 0 0
0 0 12 27 31 21 16 5 0 5 10 41 56 46 38 60
144 151 128 99 79 100 128 143 141 146 150 150 152 151 151 151
151 151 151 151 133 112 105 81 99 64 33 34 54 54 50 51
54 57 74 64 51 46 68 54 41 38 33 29 74 71 52 39
30 24 19 28 21 23 34 64 54 47 48 46 49 47 48 49
47 46 36 4 8 39 48 50 50 50 50 49 50 49 49 49
49 49 49 48 48 48 49 48 48 47 42 42 45 48 44 6
8 0 0 1 26 0 0 12 26 15 2 8 55 9 0 0
1 1 6 8 28 7 1 3 2 5 7 38 61 49 40 104
153 145 123 114 92 104 124 135 136 149 152 151 151 151 151 151
151 151 151 151 135 120 117 85 104 76 32 29 40 46 46 50
54 52 62 60 53 41 60 69 41 38 33 24 69 79 62 47
31 26 26 31 30 28 31 57 62 48 46 42 43 46 49 49
47 45 39 14 17 41 48 49 50 50 49 49 49 48 49 49
49 48 49 49 49 48 48 49 48 47 43 42 44 47 44 6
23 8 2 0 26 0 1 23 26 19 5 8 52 7 5 2
2 3 3 1 25 7 0 1 0 1 1 34 61 47 67 147
152 146 116 111 92 102 122 130 144 150 152 152 152 151 151 151
151 151 151 151 139 125 126 93 105 85 30 27 33 37 44 44
52 48 51 62 66 40 56 78 48 36 28 30 43 70 58 32
14 26 28 31 41 32 27 41 64 49 52 42 41 50 50 50
47 45 39 35 36 45 49 50 50 50 49 50 49 48 49 49
49 49 49 49 49 48 48 48 48 48 43 39 36 41 38 7
32 14 7 0 35 23 21 32 30 28 16 13 53 6 4 1
2 1 1 1 25 12 1 0 0 0 0 29 62 55 128 152
152 148 119 103 92 104 123 135 147 151 152 152 151 151 151 151
151 151 151 150 145 131 128 98 107 88 27 27 27 30 47 49
54 52 53 64 53 67 59 70 60 33 23 24 31 49 45 37
17 28 33 30 43 37 31 34 51 51 52 47 43 48 49 49
49 45 41 41 44 48 50 49 50 50 49 49 49 49 49 50
49 49 50 49 49 48 49 49 48 47 42 38 33 30 37 10
19 10 5 0 42 55 54 60 57 56 56 57 60 9 0 3
0 0 0 3 26 14 4 5 3 0 0 22 61 93 150 151
152 151 136 107 99 108 126 140 149 151 151 151 152 151 151 151
151 151 150 150 147 146 131 106 95 83 29 24 27 33 40 42
59 64 60 51 56 67 71 67 65 30 16 18 20 38 42 35
19 26 41 38 41 38 37 35 43 45 48 56 47 46 49 47
49 46 44 44 48 50 50 50 50 51 50 50 50 50 49 49
50 49 48 49 49 48 48 48 47 47 43 40 41 43 44 14
4 5 2 0 42 57 58 61 59 61 67 71 66 31 21 27
13 7 6 11 30 18 10 9 7 3 2 18 62 132 153 152
152 150 132 109 104 112 130 142 150 152 152 151 151 151 151 151
151 151 151 151 147 148 136 115 95 86 37 26 30 39 47 50
56 67 67 64 62 67 72 60 71 33 13 20 13 23 42 32
37 41 40 45 55 46 38 39 45 40 43 53 49 46 49 49
49 47 47 47 49 50 51 50 50 50 51 50 50 50 50 49
49 50 49 49 49 49 49 46 46 46 42 39 39 42 43 15
4 3 1 0 40 55 56 59 58 60 70 72 70 50 48 48
44 41 40 40 42 34 30 27 26 24 24 33 89 145 153 152
152 149 128 110 107 119 130 142 150 152 151 151 151 151 151 151
151 151 151 151 148 151 141 115 94 95 44 24 31 37 51 59
64 67 69 59 70 66 66 62 60 34 17 20 14 18 48 62
41 46 56 52 33 40 38 41 38 41 43 48 53 50 49 49
49 48 48 48 49 48 48 48 48 50 49 50 50 49 48 49
49 49 49 49 48 48 48 46 45 45 42 38 38 42 43 19
4 2 0 0 41 50 51 53 54 54 56 53 54 50 51 52
51 48 49 50 49 47 45 41 40 38 38 57 123 145 152 152
152 148 126 107 110 122 135 146 151 151 152 151 151 152 151 151
152 151 151 151 150 150 146 112 93 96 69 30 29 44 50 64
72 71 69 62 53 65 56 49 48 25 15 14 17 9 34 78
74 45 53 46 21 15 28 34 36 38 42 61 50 48 49 50
49 47 48 49 50 49 49 50 51 51 50 50 49 48 49 49
49 48 49 49 49 48 47 46 46 46 42 36 37 41 41 22
4 0 0 0 43 53 50 51 51 51 50 47 47 52 53 54
55 52 53 51 51 51 49 54 55 51 49 95 141 150 152 149
145 144 116 107 113 123 139 149 152 152 151 152 152 151 151 151
151 151 151 151 150 150 148 118 92 94 91 45 30 50 66 71
78 73 69 64 48 33 46 39 37 23 8 14 15 5 10 58
70 63 37 40 17 7 14 38 33 34 41 59 50 49 51 49
50 49 50 51 51 51 50 51 50 51 50 50 50 50 49 49
49 48 49 48 48 48 47 46 46 44 41 37 36 41 41 23
26 21 17 13 45 57 50 51 51 50 51 52 54 56 54 56
59 62 60 52 50 50 51 62 63 60 67 127 151 152 148 144
147 146 115 105 113 124 139 148 151 152 151 151 151 151 151 151
151 151 151 151 151 151 145 113 94 93 92 68 34 46 71 79
82 73 61 54 40 30 31 32 30 13 9 13 10 5 6 18
62 61 41 23 24 13 7 24 36 27 38 49 47 55 53 49
51 50 51 51 50 50 50 50 50 51 49 50 49 49 49 48
48 48 48 47 47 46 45 44 44 44 41 35 35 39 39 25
58 61 65 63 65 60 54 53 54 54 54 58 61 63 55 58
61 66 60 54 48 45 50 64 63 60 88 143 152 152 152 151
152 152 123 100 110 126 135 143 143 151 151 151 151 151 151 151
151 151 151 151 151 151 147 114 93 87 88 70 30 41 55 78
82 67 61 38 34 22 24 26 20 12 7 19 12 8 6 18
21 59 43 25 8 13 13 24 38 40 34 48 56 52 51 49
50 50 50 51 50 50 49 49 49 50 49 49 49 49 49 48
48 47 48 47 46 45 45 44 43 42 40 33 33 38 39 27
70 69 70 70 70 62 52 46 49 47 50 56 63 65 56 58
57 56 57 56 52 45 43 57 55 54 100 142 141 131 98 90
129 150 115 92 101 118 133 143 144 150 152 152 151 151 151 151
151 151 151 151 151 150 148 115 91 85 84 83 45 31 56 62
71 67 45 36 25 26 24 23 17 8 8 17 17 12 7 14
18 31 46 40 5 9 17 25 36 49 35 48 67 59 52 49
50 50 50 50 50 50 50 50 50 49 50 49 49 48 48 48
46 46 47 45 44 45 44 43 42 42 39 33 32 37 38 29
59 61 64 65 67 56 17 22 15 13 17 25 38 63 57 52
31 30 36 38 37 42 46 43 19 14 74 134 119 106 122 126
103 114 93 100 93 108 124 137 144 149 151 151 151 151 151 151
151 151 151 151 151 150 151 128 88 83 79 85 51 38 48 58
70 62 31 29 23 23 26 22 22 11 10 18 22 21 13 13
17 24 43 43 24 16 22 26 33 49 39 40 49 66 52 45
48 48 50 50 49 49 49 49 49 48 48 49 48 48 47 47
46 46 47 45 44 44 42 41 41 40 39 33 31 35 37 29
41 41 42 41 44 42 5 0 0 0 0 0 11 58 56 35
5 3 7 12 18 35 49 41 9 1 14 96 132 138 143 129
122 116 106 105 92 94 114 131 139 146 147 151 151 152 152 151
151 151 151 151 151 151 150 135 91 75 77 79 49 30 41 46
48 62 33 25 28 27 28 27 23 11 7 25 33 27 19 18
26 17 34 52 42 29 31 28 31 39 38 33 32 40 48 27
27 43 51 50 50 49 49 49 49 49 49 48 47 47 46 45
45 45 46 44 43 42 42 41 40 40 39 33 30 34 37 30
48 47 46 45 46 42 14 8 0 0 0 5 22 58 51 14
0 0 0 1 8 38 51 44 7 0 0 7 38 52 74 109
131 132 123 109 98 92 109 127 145 146 145 149 151 151 151 151
151 151 151 151 151 151 151 139 90 73 73 72 47 31 24 54
31 44 33 24 28 28 30 35 24 16 2 18 33 30 27 16
36 29 23 65 53 36 47 31 27 30 33 32 23 18 26 29
19 42 51 50 50 50 50 50 50 50 48 47 47 47 47 46
45 44 45 44 42 42 41 40 40 39 38 31 29 32 34 30
53 53 53 53 53 45 13 9 0 0 0 5 26 58 45 5
0 0 0 0 0 35 51 43 7 0 0 0 8 22 40 24
95 121 122 118 109 99 109 125 142 151 150 146 151 152 152 152
152 151 151 151 151 151 151 142 100 76 71 71 54 37 20 34
46 25 26 21 35 35 34 39 30 21 10 14 32 36 34 26
29 43 18 73 68 29 39 29 28 28 33 31 25 23 22 25
22 43 51 51 51 50 50 50 50 48 48 47 48 46 46 46
45 44 44 44 42 42 41 40 38 38 37 31 28 30 33 29
53 52 54 54 56 47 10 8 0 0 4 8 11 53 39 2
0 0 0 1 0 33 49 42 7 0 0 0 6 20 41 7
54 109 119 120 118 96 104 126 142 151 151 149 151 152 151 151
151 152 151 152 151 151 151 145 102 75 73 80 56 31 19 22
52 34 19 21 31 36 40 39 28 20 21 14 27 38 37 31
27 35 14 72 67 29 21 26 27 29 41 27 28 19 18 18
22 41 50 50 50 50 50 49 49 48 47 47 47 46 46 46
45 44 42 44 42 41 40 39 37 36 36 29 24 26 31 29
49 35 30 40 54 50 8 0 0 0 6 14 7 50 36 1
0 0 0 0 0 34 49 40 6 0 0 0 1 11 42 6
38 101 112 121 122 95 87 125 144 151 152 151 151 151 151 151
151 151 151 151 151 151 150 138 93 75 78 91 75 33 27 26
46 61 24 19 28 39 36 43 36 31 27 22 25 31 46 34
30 12 9 76 67 20 10 23 21 25 36 25 32 38 20 23
21 37 51 51 50 50 49 49 48 47 46 45 45 45 44 43
43 42 42 42 41 40 39 38 37 36 35 28 24 26 31 30
45 19 0 13 45 57 24 5 0 0 7 11 3 47 33 0
0 0 0 0 0 33 50 38 8 0 0 0 0 6 43 8
31 66 70 81 85 68 61 109 143 151 152 151 151 152 152 151
152 151 151 150 149 151 147 122 93 87 88 98 79 33 32 48
52 59 41 19 21 41 39 60 40 39 35 24 26 31 50 33
18 15 21 82 58 18 3 15 18 20 26 22 21 31 40 30
18 34 48 49 48 48 48 48 47 47 45 47 47 46 47 45
44 43 42 41 39 39 37 36 35 34 33 27 24 25 30 29
45 21 0 6 41 59 22 3 0 0 7 14 7 46 34 0
0 0 0 0 0 25 51 39 14 0 0 0 0 4 45 10
6 44 55 78 105 106 96 93 132 151 152 152 152 152 152 152
152 152 151 149 150 147 129 110 93 96 100 102 91 43 19 32
61 64 39 23 22 39 39 66 40 36 49 21 23 15 50 41
9 19 30 77 49 7 4 3 15 22 17 22 22 29 39 40
25 38 46 49 49 50 50 49 48 47 46 45 45 46 45 44
42 42 41 40 39 37 36 35 34 33 33 27 23 24 29 28
43 26 0 2 35 55 8 0 0 0 0 1 3 45 35 0
0 0 0 0 0 20 52 39 8 0 0 0 0 2 44 17
1 12 71 106 121 133 105 94 112 143 151 152 152 152 152 152
152 152 149 146 144 138 129 117 100 100 101 111 95 43 18 21
52 57 52 24 23 31 49 68 41 37 51 24 18 13 42 52
10 23 47 76 43 12 7 0 9 17 12 20 24 25 46 16
14 33 16 13 34 50 49 48 48 48 47 46 45 45 45 43
42 41 40 39 38 36 35 34 33 32 32 27 22 23 28 28
42 29 0 1 31 49 5 0 0 0 0 3 0 43 40 0
0 0 0 0 0 18 53 39 9 0 0 0 2 2 43 23
1 17 83 119 127 120 111 111 108 131 148 151 151 152 151 151
151 150 143 140 138 140 140 126 104 102 108 110 88 39 20 16
55 44 33 21 16 30 44 64 46 40 49 33 11 14 34 56
21 17 68 74 43 16 5 1 8 10 13 18 18 28 33 4
11 20 34 5 21 49 49 48 48 47 46 46 45 44 44 42
41 41 39 38 37 36 35 34 32 31 30 26 22 22 27 28
42 32 1 0 27 48 9 2 1 1 5 21 6 43 49 12
10 9 15 10 11 24 56 43 37 33 31 31 36 38 55 30
7 22 80 106 113 115 116 120 116 126 140 149 149 151 151 151
150 146 142 140 142 148 148 126 103 104 111 104 76 36 24 17
46 38 20 17 15 37 45 61 44 55 50 44 9 15 26 44
38 36 74 71 48 19 5 2 6 12 25 20 18 33 19 3
7 15 22 3 19 49 49 49 48 48 47 45 45 44 44 43
41 41 39 37 36 35 34 33 31 31 30 27 20 21 26 27
41 34 2 0 18 51 43 41 35 37 46 55 48 53 57 59
56 53 55 56 56 58 61 44 48 54 56 59 64 69 69 51
39 39 47 70 98 108 111 118 121 130 137 145 147 149 149 147
144 139 134 140 148 150 148 124 105 105 111 102 59 41 27 22
42 39 12 12 19 40 47 51 45 58 56 38 8 14 24 38
39 60 55 51 31 16 7 8 23 19 26 18 16 24 11 4
3 2 1 0 18 48 48 47 46 46 46 45 44 44 43 42
42 40 39 37 36 34 33 32 31 30 29 26 20 20 25 27
40 35 3 0 11 52 55 53 48 53 64 64 57 53 52 67
66 62 62 63 66 67 65 47 44 53 56 60 67 71 71 57
44 44 45 48 73 98 110 114 123 132 139 140 141 141 142 138
134 128 130 145 151 151 145 120 107 110 110 86 49 52 35 27
42 23 17 15 23 39 53 42 49 61 54 32 9 21 30 33
31 48 40 47 32 16 14 21 21 34 34 23 23 17 7 2
3 2 2 0 17 44 30 22 34 46 46 44 44 43 42 41
40 37 37 35 34 32 33 31 30 30 29 26 20 20 25 26
39 36 4 0 8 53 54 48 47 53 62 65 57 49 45 54
58 56 55 55 56 56 56 46 38 42 48 50 53 52 51 49
44 45 45 46 69 99 111 117 122 131 133 135 132 129 129 126
120 121 136 149 151 149 136 113 108 108 108 66 50 52 38 30
35 21 10 18 25 48 45 40 39 66 47 22 11 25 30 33
27 25 14 16 10 11 22 25 38 21 37 33 21 14 8 25
14 0 2 0 7 20 28 32 9 36 45 44 43 43 41 40
39 37 36 34 33 32 31 30 29 29 28 26 20 19 24 26
39 36 7 0 5 51 44 39 40 43 53 64 59 52 46 35
37 37 37 37 36 37 39 41 40 42 44 45 44 39 38 41
44 45 45 46 77 107 115 120 125 129 129 127 122 119 118 118
122 132 142 147 148 145 126 111 109 112 103 44 40 35 28 33
40 27 15 17 26 47 37 48 46 58 29 19 18 15 29 33
19 13 1 3 3 10 20 4 1 15 29 32 27 18 35 61
53 3 2 0 23 43 46 46 31 22 45 43 43 42 40 39
38 35 35 33 32 32 31 29 29 29 28 26 20 18 24 26
37 35 10 4 14 51 35 24 29 33 40 49 48 47 49 37
37 37 39 44 43 41 44 46 47 49 52 52 51 44 41 42
44 44 45 45 71 109 116 122 127 130 128 123 120 122 125 131
136 139 143 145 143 136 118 110 112 111 82 29 32 27 25 35
49 29 23 17 28 29 35 47 50 47 32 35 11 9 42 36
12 4 1 0 0 0 0 2 1 15 28 30 22 19 26 43
54 6 0 2 41 47 46 45 39 15 45 43 43 42 41 39
37 36 34 33 31 31 30 30 29 29 28 26 20 19 24 26
36 34 23 27 37 53 28 1 1 3 5 12 19 26 50 43
50 50 51 61 61 48 45 47 48 50 56 58 58 45 43 42
43 44 44 45 53 91 112 120 125 123 121 120 122 127 135 138
137 139 142 140 130 118 113 115 111 64 32 27 34 28 31 29
57 28 22 21 30 10 22 45 47 37 33 26 1 19 50 36
9 14 6 4 0 1 0 0 3 14 17 12 11 11 17 17
21 2 2 1 41 47 46 45 41 15 43 43 42 40 40 39
36 34 33 32 32 31 30 30 29 29 28 26 20 21 25 28
35 33 44 54 57 59 30 0 0 0 0 0 7 27 53 44
56 54 53 67 65 21 11 12 13 15 20 45 58 47 44 43
43 44 44 44 46 69 98 111 116 117 113 113 121 130 133 131
128 125 120 131 142 140 122 71 15 19 34 27 34 30 31 29
52 38 22 30 20 5 21 47 44 33 34 19 13 46 45 22
11 21 27 17 2 4 0 0 2 15 19 11 10 7 12 13
5 4 6 5 36 47 46 45 41 19 44 42 41 40 39 38
35 33 32 31 30 30 30 30 29 29 28 26 20 19 25 27
36 33 44 57 60 62 36 0 0 0 0 0 0 23 55 41
53 44 21 29 47 11 0 0 0 0 2 36 58 47 44 44
43 44 44 44 44 51 72 94 92 92 92 106 115 119 116 114
108 122 147 148 119 58 13 3 2 10 32 24 38 32 25 32
40 50 30 38 11 10 14 43 35 35 29 14 43 63 36 19
17 19 12 17 13 6 0 0 5 26 46 23 16 15 18 11
14 4 0 1 34 48 47 46 35 27 44 43 42 40 40 39
35 33 32 31 30 30 30 29 29 29 28 27 21 17 22 26
34 31 41 54 52 51 33 0 0 0 0 0 0 20 55 41
52 39 1 6 37 12 0 0 0 0 0 30 56 47 43 43
43 43 43 43 43 42 39 49 53 51 69 87 96 97 94 98
125 138 105 46 10 4 2 1 1 4 29 26 40 48 36 39
35 43 28 28 16 9 14 30 29 37 26 21 47 44 38 32
25 32 22 18 27 13 9 1 0 18 60 33 16 21 30 5
1 0 0 1 33 47 46 43 19 37 41 36 37 41 40 37
33 30 29 30 30 29 29 29 28 28 28 28 20 17 21 26
34 31 28 24 23 25 8 0 0 0 0 1 0 22 56 42
53 41 1 6 35 17 0 0 0 0 0 22 55 47 43 43
44 43 43 43 42 41 26 32 37 29 35 44 53 62 75 91
73 33 9 9 6 2 1 0 0 0 17 22 41 62 57 46
25 30 30 21 19 15 10 19 38 41 25 36 30 20 22 41
55 50 33 15 21 28 19 11 0 18 37 25 19 21 29 6
1 0 0 0 11 17 16 11 11 36 18 18 17 41 39 36
34 31 30 30 29 29 29 29 28 29 29 27 21 17 21 26
34 30 26 20 21 23 5 0 0 0 0 1 0 24 54 42
53 39 1 6 33 20 0 0 0 0 0 17 55 47 43 43
43 43 43 42 42 35 30 41 38 34 27 31 26 18 19 6
0 3 5 4 2 0 0 0 0 0 10 27 39 67 78 53
14 25 25 22 25 19 14 15 48 36 36 31 16 4 2 24
20 21 18 10 24 24 6 5 3 9 17 13 6 2 3 0
0 0 0 0 0 0 0 0 3 8 20 90 48 41 39 37
33 30 29 30 28 28 29 29 29 29 29 28 23 18 22 27
33 29 28 23 24 27 5 0 0 0 0 4 0 20 54 43
54 40 2 7 31 21 0 0 0 0 0 16 54 48 43 43
43 43 43 43 43 28 40 40 37 33 26 26 29 23 23 7
0 1 1 2 0 0 1 1 2 1 5 24 40 68 78 84
30 18 18 24 40 40 25 21 29 27 31 23 7 3 0 3
16 13 12 7 6 6 1 1 4 5 4 5 6 6 7 10
13 15 18 19 20 17 2 0 20 22 74 102 113 31 26 23
31 32 31 32 31 30 31 31 30 30 31 30 24 20 23 28
33 30 29 28 27 28 5 0 0 0 1 7 0 17 56 43
55 42 8 8 30 26 7 1 1 5 3 14 54 48 43 43
43 43 43 43 39 31 43 40 38 27 16 22 34 38 28 14
8 3 0 0 1 1 1 2 2 2 4 11 33 61 80 97
62 14 19 23 41 69 35 38 24 30 25 20 5 1 0 2
6 19 17 9 2 0 0 3 4 5 2 6 9 10 9 10
15 19 23 25 26 20 5 1 3 4 3 3 5 9 8 9
31 35 33 35 34 34 34 35 34 36 35 35 30 25 26 30
34 29 30 30 30 30 5 4 5 0 3 19 8 14 58 45
57 45 25 11 29 27 10 10 9 7 3 14 53 49 43 44
44 44 44 43 33 39 43 39 32 14 15 20 37 34 23 11
11 11 1 2 0 1 1 2 2 2 2 5 26 45 66 80
60 21 19 21 33 71 53 62 25 52 25 23 7 1 0 0
3 1 5 8 3 0 1 2 4 4 7 11 11 11 12 11
10 10 8 9 10 9 9 7 9 10 10 7 5 12 10 10
33 37 35 33 31 30 29 27 23 21 19 17 13 7 6 7
33 28 29 31 30 31 7 8 6 0 4 22 25 15 59 47
58 42 33 19 28 24 7 16 16 7 0 11 51 47 43 44
44 43 43 42 33 43 42 37 17 7 14 25 29 31 15 8
11 8 1 0 1 0 1 3 2 3 3 6 13 36 58 58
48 30 17 34 19 45 58 51 33 59 26 23 5 3 1 0
6 3 0 1 5 4 4 6 8 10 11 11 10 10 8 9
10 9 8 8 8 8 8 8 8 10 11 11 10 11 14 24
30 28 29 30 32 34 36 37 38 39 40 42 43 38 39 44
32 28 29 32 31 33 26 24 27 25 29 40 44 40 64 49
59 38 28 30 25 27 13 20 19 13 10 18 44 43 42 43
44 43 44 41 37 42 41 23 5 6 15 21 29 26 12 5
5 3 2 1 1 1 1 2 2 3 3 5 8 17 37 33
39 22 18 30 52 38 35 35 41 60 31 14 6 3 5 7
12 8 6 6 7 7 10 11 11 11 11 11 11 10 11 10
9 9 7 8 9 8 7 7 10 11 11 12 11 11 12 16
43 55 56 55 55 56 56 56 56 55 55 55 54 46 44 50
32 27 28 32 31 33 49 53 57 58 60 66 69 71 73 53
59 34 14 32 27 41 35 36 35 34 33 33 35 38 42 42
42 43 42 42 38 38 34 11 2 5 11 17 24 20 8 4
2 4 1 1 1 1 1 2 2 2 3 3 6 10 22 13
22 21 12 6 27 60 27 24 30 52 28 15 6 4 5 11
8 7 7 7 7 10 7 10 11 10 11 11 11 10 11 10
10 8 7 7 9 7 6 9 9 10 11 10 11 13 11 11
12 37 56 55 55 55 55 56 55 56 55 56 55 47 44 49
32 26 27 31 32 32 53 60 61 62 64 69 72 73 74 62
57 34 4 17 24 40 35 37 36 36 36 36 37 39 42 42
42 41 41 42 40 34 21 9 13 10 11 16 19 8 8 2
2 3 1 1 1 1 2 1 1 2 3 4 4 7 16 13
10 11 11 4 1 8 15 13 18 31 19 12 5 4 7 6
4 6 7 8 12 12 6 7 9 9 11 11 13 11 11 10
10 9 8 8 7 6 5 9 10 10 11 11 11 12 12 12
10 12 41 55 54 55 55 55 55 55 55 54 54 47 45 48
31 25 26 31 32 29 40 48 47 46 48 51 54 53 52 48
54 35 3 9 20 42 39 41 41 41 40 40 41 40 41 42
41 42 41 41 40 32 22 11 12 12 7 4 5 4 1 0
0 1 0 0 1 1 1 1 1 0 1 1 4 4 13 17
18 17 9 5 2 0 3 5 7 7 10 4 4 3 5 2
6 7 7 11 11 10 8 6 6 6 12 11 11 10 10 9
10 8 9 8 7 5 6 10 10 10 10 10 12 12 13 12
12 10 13 49 54 54 54 54 54 54 55 55 54 48 44 47
30 25 26 31 32 29 23 22 21 23 25 29 34 35 37 35
51 36 3 6 18 41 39 42 42 42 42 41 42 41 41 41
41 41 41 34 22 18 17 13 3 4 2 2 2 1 1 0
2 0 0 0 0 0 0 0 0 0 0 0 0 1 5 18
25 25 18 7 2 1 4 3 9 11 7 5 6 3 1 4
8 9 12 10 9 8 9 9 9 8 6 7 6 6 6 9
9 8 10 8 6 3 7 10 10 10 11 11 12 12 13 13
11 11 9 21 54 54 54 53 53 54 54 54 54 49 43 46
28 23 24 29 31 29 25 22 22 23 25 30 35 37 38 37
52 39 9 7 18 42 39 41 41 41 41 41 40 40 41 38
27 18 12 6 5 6 16 17 14 3 7 4 0 2 0 0
2 0 0 0 0 0 0 0 0 0 0 0 0 0 1 8
10 16 11 1 0 0 2 4 27 1 5 3 2 2 4 5
10 12 11 8 8 9 9 9 10 9 8 8 6 4 3 2
4 9 9 6 4 3 8 9 9 10 10 12 12 11 13 12
12 12 10 9 37 55 55 54 53 54 54 54 54 49 44 45
28 23 24 29 31 31 29 28 27 27 28 32 36 38 38 38
54 45 37 44 49 46 38 41 41 40 41 41 41 41 35 14
7 8 8 9 7 8 14 19 17 8 4 7 6 1 0 0
3 1 0 0 0 0 0 0 0 0 0 1 2 2 4 6
9 7 0 0 0 1 1 13 26 4 2 1 2 5 6 9
13 10 9 8 8 9 9 9 11 10 10 9 8 8 6 6
4 5 7 5 4 4 9 10 10 9 11 10 11 10 11 11
11 11 10 9 13 50 53 53 53 53 54 54 54 50 44 45
30 23 23 28 31 31 30 29 29 29 31 35 40 41 39 38
54 48 52 60 58 45 37 40 40 40 40 39 40 33 10 9
9 9 9 9 9 8 11 21 14 8 4 5 5 4 0 0
1 5 0 0 0 0 0 0 0 0 1 2 2 3 4 5
7 6 3 3 1 1 1 40 8 9 6 8 7 7 12 13
10 7 8 10 9 9 8 9 9 7 7 7 7 7 7 6
7 5 6 4 4 7 9 10 8 10 9 9 7 10 12 10
12 11 11 8 7 30 54 54 54 54 54 53 54 50 43 43
26 22 24 29 30 30 30 29 29 29 31 35 40 41 37 34
39 36 36 38 39 37 38 40 40 40 40 40 29 7 8 9
9 10 9 9 9 8 10 13 12 7 7 7 5 1 0 0
1 5 2 0 3 0 0 0 0 1 2 3 4 3 3 7
9 11 9 9 8 6 10 37 8 9 10 9 10 12 13 11
10 9 8 9 8 9 9 8 7 7 7 7 7 7 7 8
7 6 5 5 3 6 8 10 10 9 10 7 7 9 12 8
10 11 11 9 8 10 48 53 53 53 53 53 54 51 43 43
20 21 22 28 29 30 30 29 30 29 30 34 39 39 37 36
37 36 34 33 36 37 38 39 40 40 40 27 5 4 8 10
10 8 9 9 8 6 10 11 8 10 11 5 3 3 0 1
2 6 6 16 18 0 0 0 1 0 0 0 1 5 8 10
9 10 9 11 10 10 45 14 10 8 10 11 12 11 10 9
9 8 8 9 10 10 9 9 9 7 8 7 9 8 9 7
7 9 4 4 4 7 10 10 9 10 8 4 5 10 11 6
11 10 11 10 9 7 25 53 52 52 53 53 53 51 44 42
21 21 22 26 28 29 30 30 30 30 31 34 38 39 37 37
37 37 36 34 36 37 38 39 40 39 32 4 5 4 8 9
8 8 8 8 7 7 11 11 11 8 6 7 6 4 1 3
4 5 10 30 27 0 0 0 0 2 1 0 0 1 5 9
9 9 9 9 11 16 51 9 10 13 13 11 11 9 10 10
10 10 9 10 9 10 9 8 9 9 9 10 8 10 9 9
9 9 5 4 6 7 9 10 11 9 7 4 7 10 9 7
11 10 11 10 9 8 7 44 53 53 53 53 53 51 43 42
20 19 21 26 29 29 30 30 31 30 32 35 39 39 37 37
37 37 36 35 37 37 38 38 39 37 8 3 3 4 9 9
9 9 7 7 5 8 9 9 7 7 8 8 6 4 3 7
5 5 12 11 41 5 4 1 2 4 6 5 4 7 8 7
9 8 10 8 11 44 28 13 14 12 13 11 10 10 11 10
10 10 10 10 9 10 9 9 10 9 9 11 9 9 7 10
7 9 9 5 6 6 9 10 8 9 6 4 6 12 5 8
9 10 10 9 10 9 7 20 52 53 52 52 52 51 43 41
15 15 23 27 27 27 29 29 29 30 31 35 39 38 38 37
37 37 36 36 36 37 37 38 39 22 2 3 2 4 9 9
9 8 6 7 9 9 7 6 7 8 9 6 5 3 4 8
8 6 7 10 57 11 7 6 6 6 6 7 7 8 7 7
9 9 9 10 15 51 8 10 11 11 11 10 11 11 11 11
10 10 11 10 10 9 9 9 10 10 10 10 9 10 9 9
9 9 9 6 6 8 8 9 10 7 4 4 7 10 4 10
9 9 10 9 9 9 7 7 39 52 51 52 52 51 44 41
17 19 21 26 26 28 28 29 29 30 31 34 39 39 38 37
37 37 37 37 37 35 37 37 36 7 3 3 2 3 7 9
8 8 7 6 8 9 8 8 9 9 9 8 6 3 7 9
9 9 7 6 36 28 10 8 7 6 7 7 8 8 8 8
8 9 7 7 26 14 9 11 11 10 10 10 10 10 10 9
10 10 10 11 10 10 9 9 9 10 9 10 10 9 10 8
11 9 9 7 6 7 7 10 9 6 2 3 8 9 3 10
8 8 10 9 10 9 8 6 14 51 52 52 51 51 44 40
15 20 21 23 25 26 27 27 29 29 31 34 38 39 38 37
37 36 37 36 37 36 36 37 24 1 5 4 0 2 7 8
8 8 8 7 8 9 7 9 10 9 9 6 6 2 8 10
8 8 9 7 8 35 8 6 9 6 6 6 6 5 5 6
5 5 6 11 41 8 11 12 11 10 11 10 10 10 10 8
9 8 9 9 9 9 9 8 9 9 9 9 10 9 11 9
10 10 9 8 6 7 6 8 9 6 2 2 8 7 4 8
6 8 9 8 8 8 7 7 5 36 52 51 51 51 44 40
15 20 21 24 26 27 28 30 31 31 33 36 38 38 38 38
37 36 36 36 36 35 36 35 9 2 6 4 0 2 9 9
9 9 8 7 7 8 8 10 8 8 8 5 4 3 8 9
8 8 8 10 6 50 8 5 5 4 4 3 4 4 5 6
7 9 10 37 22 11 10 10 10 10 9 10 10 9 9 9
9 9 9 9 9 10 10 8 9 9 7 8 9 9 10 9
8 10 10 8 7 4 7 8 10 6 2 3 9 4 5 7
6 9 9 8 9 8 7 7 5 12 50 51 50 50 45 39
16 21 24 26 29 31 32 33 33 34 36 36 37 37 37 37
37 35 35 36 36 35 35 28 0 3 7 5 0 1 7 9
8 8 9 8 6 7 10 8 8 7 7 6 4 4 8 10
9 8 9 9 7 39 31 7 7 7 7 5 5 7 8 7
9 8 8 52 8 10 11 10 10 11 11 9 9 10 9 8
8 9 10 8 8 9 10 8 9 9 9 9 9 9 10 11
9 9 10 7 6 3 6 7 6 5 1 4 8 1 5 6
6 9 7 8 9 8 8 7 6 4 36 51 50 50 45 39
18 21 24 28 27 31 33 34 35 35 36 36 36 37 36 37
36 36 35 35 36 36 35 15 0 4 7 6 0 1 7 9
9 9 8 7 6 7 8 9 8 7 6 6 4 4 9 9
10 8 9 10 8 11 46 6 8 8 6 7 5 9 10 8
9 9 29 29 9 11 10 10 11 10 9 9 9 9 8 9
10 9 9 8 9 9 9 8 9 10 8 8 7 9 9 9
9 9 8 8 7 4 4 6 5 7 2 4 7 0 5 4
6 8 7 8 9 8 7 7 6 3 12 49 49 50 46 39
12 11 14 27 22 28 33 33 35 35 35 36 36 36 37 37
36 35 35 35 35 36 33 3 0 5 8 7 2 0 6 9
8 8 8 7 6 8 8 9 8 8 8 5 4 4 9 9
10 8 10 9 8 7 46 11 9 9 9 7 8 9 9 9
9 10 36 9 10 10 11 10 9 9 9 9 9 10 9 9
9 8 8 8 9 9 10 9 9 9 10 10 8 10 9 8
9 9 7 7 8 4 3 7 6 5 1 4 5 0 5 4
7 7 6 8 9 8 9 8 7 5 3 35 50 49 46 38
5 5 9 28 23 26 29 30 32 32 34 34 36 36 36 36
36 35 35 35 35 35 25 0 2 6 8 7 3 0 4 8
10 8 6 6 6 7 9 8 7 8 6 8 4 5 8 10
10 8 9 9 9 8 31 38 8 8 8 8 8 7 9 10
9 30 21 9 10 9 10 9 9 9 9 8 9 9 9 8
9 8 9 8 8 9 9 8 9 9 8 9 7 8 9 6
8 9 7 7 8 4 2 6 6 5 4 4 3 1 4 4
8 7 6 8 8 8 9 8 7 7 4 15 49 49 47 38
