P2
128 120
157
42 42 41 41 40 40 40 38 38 38 37 37 36 35 35 35
34 33 33 32 31 31 31 30 30 29 28 28 28 27 27 26
26 25 25 25 23 21 20 18 18 19 22 23 25 25 21 16
27 30 27 26 25 24 23 22 20 18 15 15 14 14 19 21
19 20 15 19 22 23 23 24 25 25 26 26 26 26 27 27
28 29 28 29 30 31 31 32 33 32 33 33 33 33 34 35
36 37 37 37 38 38 39 39 39 40 41 41 42 42 44 41
43 43 42 43 43 43 43 43 44 43 44 44 44 44 44 44
43 42 42 41 41 39 39 38 38 38 36 36 36 35 35 34
34 33 32 32 32 31 30 30 29 29 29 28 28 27 27 26
26 26 25 25 24 22 21 20 19 20 24 25 27 28 22 15
28 31 28 27 25 25 24 23 22 19 18 16 16 14 19 20
21 19 21 23 24 25 26 26 27 26 27 27 27 28 28 29
30 30 30 31 32 32 32 32 33 33 32 33 35 36 36 36
37 38 38 39 39 39 40 40 41 41 41 42 42 42 44 42
42 42 43 43 44 43 43 43 43 43 44 44 44 45 44 44
42 42 41 41 41 40 40 39 39 38 38 37 36 36 35 35
34 34 33 32 32 32 32 30 30 29 29 29 28 28 28 27
27 27 26 26 25 23 22 21 21 23 27 28 29 29 22 13
28 32 29 27 27 26 26 24 24 21 22 22 18 15 18 21
21 21 22 25 25 26 27 27 28 28 28 28 29 29 30 30
31 31 32 32 32 32 33 33 34 34 35 36 37 37 37 38
38 39 39 40 39 39 40 41 41 42 42 42 43 43 45 42
43 43 43 43 43 43 43 43 44 44 44 44 45 45 44 43
43 42 41 41 41 40 39 38 38 38 37 37 37 36 36 35
35 35 33 33 32 33 32 31 31 30 30 29 29 28 28 28
27 27 26 26 25 24 23 22 22 24 28 30 31 30 23 14
28 33 30 29 28 26 26 25 24 21 23 23 21 16 16 22
20 23 24 26 27 27 27 28 29 29 28 30 29 30 30 31
31 32 32 32 32 33 34 34 35 36 36 36 37 38 37 38
38 39 39 40 40 40 41 41 42 42 42 42 42 43 44 42
43 43 43 44 44 44 44 44 44 44 44 44 43 43 44 45
43 42 42 42 41 40 40 40 39 38 38 37 37 36 36 35
35 34 33 33 32 32 32 31 31 31 30 30 30 29 29 28
28 27 27 27 26 26 24 24 23 25 30 31 31 31 24 15
27 33 29 29 28 28 27 26 25 22 24 24 22 18 16 24
21 24 26 28 28 29 28 29 30 30 30 31 31 31 32 32
32 32 33 34 34 35 35 35 36 36 37 37 38 40 38 39
39 40 39 40 40 41 41 41 42 42 43 42 42 43 44 42
44 44 44 44 44 44 43 43 44 44 44 45 45 46 46 45
43 43 42 41 41 40 40 39 39 38 38 37 37 37 36 35
35 35 34 33 33 33 32 31 31 31 30 30 30 28 29 29
27 28 27 27 27 27 26 25 25 27 31 32 33 32 25 16
26 34 31 30 29 29 28 27 26 23 25 24 24 20 17 23
23 25 27 29 29 30 30 31 31 31 31 31 32 31 31 33
33 33 34 34 34 35 35 35 37 37 37 38 38 39 38 39
39 40 40 41 41 41 41 41 42 42 43 43 43 43 45 43
43 43 42 42 42 42 44 44 44 44 44 44 44 45 45 45
43 42 42 42 41 41 40 39 40 39 38 38 38 37 37 36
35 35 34 33 34 33 33 32 31 31 31 31 30 30 29 29
29 28 28 27 27 27 27 27 27 28 32 33 33 32 25 17
25 34 31 31 30 30 29 28 27 26 26 26 25 22 19 24
24 27 29 30 30 30 30 31 31 31 32 32 33 33 34 34
34 34 35 35 35 35 36 36 37 37 37 38 38 40 39 39
40 41 41 41 41 41 41 42 42 43 43 43 44 44 43 42
42 43 43 44 45 44 44 45 45 45 45 44 45 45 45 45
43 42 42 42 41 41 40 40 39 39 38 38 38 37 37 37
36 35 35 34 34 34 33 33 32 32 31 31 30 30 29 29
29 29 28 28 28 27 28 28 28 29 33 34 33 33 26 18
25 34 32 31 31 30 30 29 28 27 27 26 26 24 20 24
26 29 30 31 31 31 31 32 33 33 33 33 33 34 34 34
34 35 35 36 36 36 37 36 38 38 38 38 39 41 39 40
40 41 42 42 41 41 42 43 43 43 43 41 41 41 42 43
44 44 44 44 44 44 44 45 44 45 46 45 45 45 45 45
43 42 42 41 41 41 41 40 39 39 38 38 38 37 37 36
36 35 35 34 34 34 33 33 32 32 32 31 31 31 31 30
29 29 28 28 27 28 28 28 29 30 34 34 34 35 27 21
24 35 32 31 31 31 30 30 30 30 27 26 27 25 22 25
26 30 31 31 31 32 32 33 33 33 34 34 34 34 35 36
35 36 36 36 37 37 36 37 37 38 39 38 39 41 40 40
41 41 42 42 41 39 41 42 41 41 42 43 44 44 43 43
44 44 44 44 44 44 44 45 44 45 45 45 45 45 45 45
42 42 42 41 41 41 40 40 40 39 39 38 38 38 37 36
36 35 35 35 34 34 34 32 32 32 32 31 30 30 30 30
30 29 29 29 29 29 29 28 30 31 34 35 34 34 27 22
22 34 33 31 31 31 31 30 29 29 28 28 27 25 24 26
28 31 32 33 33 32 33 34 34 34 34 35 35 35 35 35
35 35 37 37 37 37 37 37 38 38 39 39 40 41 41 41
41 41 41 41 41 42 41 42 43 43 43 44 44 43 44 44
43 44 44 45 45 45 45 45 44 45 46 45 46 45 46 45
43 43 42 41 41 41 41 40 40 39 39 38 38 38 37 37
36 36 35 35 34 34 34 33 33 33 33 31 32 31 31 30
30 30 29 29 28 28 28 29 30 32 35 35 35 35 28 24
23 36 33 31 31 32 31 30 30 30 29 29 28 27 26 28
30 32 33 33 34 33 34 34 34 35 34 35 35 36 36 35
36 36 37 37 37 37 38 37 39 39 40 40 40 41 40 40
39 39 40 41 42 43 44 43 43 44 44 44 44 43 43 44
44 45 44 45 45 45 44 45 45 45 45 45 45 46 46 45
43 43 42 42 41 41 40 41 40 40 40 39 39 38 38 37
36 36 35 35 34 35 34 34 33 33 33 32 32 32 31 31
31 30 30 30 30 29 29 30 30 32 36 36 36 35 29 24
19 32 34 32 32 32 32 32 31 32 29 29 30 28 26 29
31 33 33 34 34 34 35 35 35 35 35 35 36 36 36 36
36 37 37 37 38 38 39 39 39 40 40 39 38 38 39 41
42 42 43 43 43 44 44 44 44 44 44 44 45 44 44 45
46 44 45 45 45 45 44 44 45 46 46 45 46 46 45 45
43 43 43 42 42 41 41 40 40 40 40 39 39 38 38 37
37 37 36 36 36 35 35 34 34 34 34 33 34 32 31 31
31 31 30 30 30 30 30 30 31 32 37 37 37 36 29 21
15 32 35 34 34 34 32 32 32 33 30 30 30 29 27 31
33 34 34 35 35 35 35 35 35 36 36 36 36 37 37 37
38 38 38 38 39 39 39 39 38 38 38 39 41 42 41 42
42 43 43 43 44 44 45 45 44 44 45 45 44 45 45 45
45 45 45 45 45 45 45 45 45 45 45 45 46 46 46 45
44 43 43 42 42 42 41 41 40 40 40 40 39 39 39 38
37 37 36 36 36 35 35 34 34 34 34 33 33 32 32 32
32 32 31 31 30 31 30 31 31 33 37 38 38 37 29 23
22 35 35 34 34 34 33 33 33 34 31 31 31 30 28 33
33 35 35 35 35 35 36 36 36 36 37 36 37 38 37 37
38 38 39 39 39 39 38 39 39 40 41 42 41 42 42 42
43 43 43 43 44 44 45 44 44 45 45 45 45 45 45 44
45 46 45 45 46 46 46 46 46 46 46 46 46 46 46 46
45 43 43 43 43 42 41 41 41 40 40 40 39 39 39 39
39 38 38 36 36 37 36 36 35 35 35 34 34 34 33 33
33 32 32 32 31 31 31 32 33 34 39 39 39 38 30 26
26 34 37 36 36 35 35 34 34 34 32 32 33 32 29 34
35 37 37 37 37 36 37 37 37 37 37 37 38 38 38 39
38 39 39 40 40 41 41 41 42 41 42 42 43 43 44 44
44 44 44 44 45 45 47 46 46 45 46 45 45 45 45 46
46 46 45 46 46 46 46 46 46 46 47 47 48 47 48 46
44 44 44 44 43 43 43 42 41 41 40 40 40 39 39 39
39 38 38 37 37 36 36 36 36 36 35 35 34 34 34 33
33 33 32 32 32 32 32 33 34 35 39 39 39 38 30 27
28 33 37 36 36 35 35 35 35 36 33 33 33 32 29 35
36 37 38 38 38 38 38 38 38 38 38 38 38 37 38 39
39 39 40 40 40 41 41 41 42 42 43 43 43 44 44 43
44 44 45 45 45 45 47 45 46 46 45 46 46 46 46 46
45 46 46 46 46 47 46 46 46 47 47 47 46 46 45 46
44 44 44 44 43 43 43 42 42 42 41 41 41 41 40 40
40 38 38 38 38 38 37 37 36 36 35 35 35 34 34 34
33 33 33 33 32 32 33 33 34 36 40 39 40 39 32 28
31 32 38 37 37 36 36 35 35 36 33 34 34 33 30 35
35 38 39 38 38 39 39 38 37 38 38 38 39 39 39 39
40 41 41 41 42 42 42 42 42 43 42 43 43 44 44 45
44 45 45 46 46 46 47 46 46 46 46 46 46 46 46 46
46 46 46 47 48 47 47 47 45 46 47 47 48 47 47 46
44 44 44 44 43 43 43 43 42 42 42 41 41 40 40 40
39 39 39 38 38 37 37 37 37 36 36 36 36 35 34 34
33 33 33 32 32 32 33 33 35 36 40 40 41 40 32 29
33 31 38 38 37 37 37 36 36 37 34 35 35 34 32 36
37 38 38 38 39 38 38 38 38 39 39 39 40 39 40 40
41 41 41 41 41 42 42 43 43 43 44 44 44 44 44 44
45 45 46 45 45 46 47 45 46 46 46 46 47 47 47 46
47 46 47 46 46 46 47 47 47 47 47 46 46 47 47 47
44 44 44 43 43 43 42 42 42 41 41 41 41 41 40 40
40 40 39 39 39 38 38 37 37 36 36 36 35 35 34 34
34 34 33 33 33 32 33 34 34 36 41 40 41 40 32 28
35 30 39 38 37 37 37 37 36 37 34 35 37 37 32 36
37 39 39 38 38 38 39 39 39 39 39 39 40 40 40 40
41 41 41 42 42 43 42 42 43 43 43 44 44 44 44 45
45 45 46 46 46 46 47 46 46 46 46 47 47 46 45 44
45 45 46 47 47 48 46 47 46 47 46 46 46 46 47 47
44 44 44 43 43 43 43 43 42 42 42 41 41 41 40 39
39 39 39 38 38 38 38 38 37 37 37 37 37 35 35 35
34 34 34 34 33 34 33 34 35 37 41 41 41 41 32 29
35 29 39 38 39 38 37 37 36 39 36 39 40 34 30 35
34 38 39 39 39 39 41 39 39 40 40 39 40 40 41 41
41 41 42 41 42 43 42 42 43 43 44 44 44 44 45 45
45 45 46 46 46 46 47 46 46 46 46 45 45 45 46 45
47 46 46 46 46 46 46 46 46 46 46 46 46 46 46 47
44 44 44 43 43 43 43 42 42 43 42 41 42 41 40 40
40 39 40 39 38 38 38 37 37 36 36 36 36 35 35 35
34 34 34 34 34 33 34 35 36 37 42 42 41 41 33 29
37 29 40 39 40 38 38 38 40 41 37 39 36 36 31 37
38 40 40 40 39 40 40 40 40 40 40 40 40 40 41 41
41 42 42 42 42 43 44 43 43 43 44 43 44 44 45 45
46 46 46 46 46 44 45 45 45 44 45 46 47 46 46 47
46 46 46 46 46 47 46 47 47 47 47 47 46 46 45 46
44 44 43 43 43 43 43 42 42 42 42 42 41 40 40 41
40 40 39 39 39 39 38 38 37 38 37 36 36 36 35 35
35 35 34 34 34 34 33 34 36 37 41 42 41 41 33 30
38 29 39 39 40 39 38 39 38 39 38 40 39 38 37 41
38 40 39 40 40 40 41 40 40 40 40 41 41 41 41 41
42 42 42 42 43 43 44 43 43 44 44 44 45 45 46 45
45 44 44 44 45 45 45 46 46 46 47 46 46 46 47 49
46 46 46 46 47 46 46 47 47 47 46 46 47 46 46 47
44 44 44 43 43 43 43 42 42 41 41 41 41 41 40 40
40 40 40 39 40 38 39 38 37 37 37 37 37 36 36 36
35 35 34 34 34 34 34 35 36 37 42 42 42 41 34 29
39 33 40 39 40 39 39 42 41 42 52 58 50 45 40 39
38 40 40 40 41 40 41 40 41 40 40 40 40 40 41 41
41 42 42 43 44 44 44 44 44 45 45 45 45 45 45 45
45 45 46 47 46 46 47 46 47 46 46 46 46 46 46 47
45 45 46 46 47 46 46 46 46 47 47 47 46 45 45 46
44 45 44 43 44 43 43 43 42 41 42 42 42 41 41 41
40 39 38 39 39 39 39 38 38 38 38 37 37 36 37 36
35 35 35 35 35 34 35 35 36 38 43 42 42 43 35 31
40 35 39 37 39 39 40 42 41 42 47 55 56 57 52 44
38 41 41 40 41 41 42 41 41 40 41 40 41 42 42 42
43 43 43 43 44 43 43 44 44 43 44 44 44 45 46 47
46 46 47 47 47 47 47 46 48 47 47 47 47 47 47 48
47 46 46 45 46 46 45 46 46 46 45 46 46 46 46 46
45 44 44 44 44 44 43 43 42 43 42 42 42 42 41 41
40 40 40 40 40 39 39 38 38 38 38 37 37 36 36 36
36 36 35 36 35 35 36 37 37 39 45 44 45 45 38 37
45 37 39 41 38 38 40 43 32 31 41 52 52 56 58 55
44 43 41 41 41 41 42 41 41 41 41 41 42 42 43 43
43 43 44 43 44 44 44 44 44 44 45 44 45 46 47 46
47 47 47 47 47 47 47 47 47 47 47 47 47 47 47 48
46 46 47 47 47 47 46 47 47 47 47 46 46 46 47 46
44 44 43 43 43 43 43 43 43 42 42 42 42 41 42 41
41 41 40 40 40 39 39 39 39 38 39 38 38 38 37 37
36 36 35 35 36 35 35 36 37 38 45 45 45 44 38 38
46 46 49 45 39 36 31 30 23 34 43 44 42 48 55 59
57 53 47 45 46 41 41 41 41 41 41 42 42 43 43 43
43 43 43 44 44 44 44 44 45 45 45 45 45 46 48 46
47 47 47 48 47 47 47 46 47 47 48 47 47 46 47 49
47 47 47 47 47 47 46 47 47 46 47 47 47 47 47 47
44 44 44 44 44 44 43 43 43 43 42 42 42 41 42 41
41 41 40 41 40 40 39 39 39 39 38 38 38 38 38 38
37 37 37 36 36 36 36 36 37 40 44 44 47 48 52 53
52 54 51 54 47 34 29 10 15 26 28 31 47 51 50 53
54 55 57 51 43 44 42 42 42 42 42 42 42 42 43 43
43 43 44 44 44 45 45 45 46 47 46 46 46 46 48 47
47 46 47 48 47 47 47 47 47 47 48 47 47 47 47 48
47 47 47 47 46 46 46 47 46 47 47 47 47 48 47 47
45 44 45 44 44 44 44 43 43 43 43 43 42 42 42 42
41 42 41 41 40 40 39 40 39 39 39 38 39 38 38 38
38 37 37 37 36 36 36 37 38 40 50 58 70 73 68 61
59 46 37 50 59 55 50 36 20 20 19 24 31 37 45 46
46 47 48 54 57 47 42 41 42 42 41 42 42 42 44 44
44 44 44 44 45 45 45 45 45 46 46 46 47 47 48 48
48 48 48 48 48 47 47 48 48 47 47 48 48 47 47 48
48 47 47 47 47 47 47 47 47 47 47 46 46 45 45 46
45 44 44 45 44 44 44 44 44 43 43 43 43 42 43 42
41 41 41 41 41 41 40 40 40 39 39 39 39 38 38 38
37 37 37 37 36 37 36 38 40 49 67 74 82 73 63 52
48 59 64 55 53 49 59 55 41 29 24 17 22 38 42 43
48 47 43 45 53 55 52 41 40 41 42 42 43 43 44 44
44 44 45 45 45 45 46 46 46 46 47 47 47 47 48 47
47 47 47 47 47 47 47 48 48 47 48 48 48 48 48 48
48 48 48 49 48 47 47 46 46 44 45 46 47 48 47 47
45 44 44 44 44 44 44 43 43 43 43 43 43 43 43 42
42 42 42 41 41 41 40 40 40 40 40 39 39 39 38 38
38 37 37 36 37 35 37 41 45 67 68 78 78 56 46 58
60 58 39 23 27 26 25 23 20 19 18 17 28 35 44 46
51 56 49 46 52 57 50 50 41 42 42 42 43 43 45 44
45 45 45 45 45 46 46 46 47 47 47 47 47 48 48 48
48 48 49 48 48 48 47 48 47 47 48 48 48 47 48 49
48 47 46 46 46 46 46 47 48 49 48 45 47 46 46 45
45 45 45 45 45 45 44 44 44 44 43 43 43 42 43 42
42 42 41 41 41 41 41 41 41 40 40 40 40 39 39 38
38 38 37 37 36 37 39 41 60 64 72 74 48 59 59 46
38 29 33 34 23 14 15 20 17 19 22 17 16 16 20 36
42 50 41 33 39 50 50 44 48 43 43 44 44 44 46 44
44 45 45 44 46 47 47 47 48 47 47 48 48 48 48 48
48 48 48 48 48 48 48 48 48 49 48 49 48 48 47 46
44 45 47 47 47 45 46 47 48 49 46 46 46 46 45 47
45 45 45 45 44 45 44 44 44 44 44 43 43 43 44 43
43 42 42 42 41 41 41 41 40 40 40 40 40 39 39 39
39 38 38 37 37 40 39 51 61 74 71 52 72 60 50 35
36 45 34 20 21 23 25 21 17 17 29 26 22 15 14 20
35 45 50 37 37 44 42 39 39 43 43 44 45 45 46 45
44 45 45 46 46 46 47 47 47 48 48 47 48 48 49 48
49 48 49 49 49 49 49 48 47 47 45 45 45 47 47 48
47 48 47 48 48 47 47 47 47 49 46 46 46 46 46 46
45 45 45 44 45 45 45 45 44 44 44 44 44 44 43 42
42 42 42 42 42 41 41 41 41 40 40 40 40 39 39 38
38 38 38 38 38 39 44 52 67 70 57 65 57 51 39 55
57 38 27 26 25 33 32 14 10 20 27 22 20 21 20 17
27 38 49 45 24 34 42 39 34 38 43 44 45 45 47 45
45 45 46 46 46 47 47 47 47 48 48 48 48 48 49 48
48 47 48 48 48 47 47 47 47 47 49 49 48 48 48 48
48 48 47 47 48 47 47 47 47 48 46 47 46 46 47 47
45 45 45 45 44 44 44 44 44 44 44 44 44 44 43 43
43 43 42 42 42 42 41 41 41 41 41 40 40 40 39 39
39 38 38 37 38 40 49 49 67 55 67 56 39 40 63 51
29 29 31 25 45 46 15 9 14 26 20 13 14 17 23 29
27 43 50 56 36 24 35 40 38 31 35 45 44 44 46 45
45 46 46 46 47 47 47 47 47 47 48 49 49 48 48 48
47 47 48 47 48 48 47 49 47 47 47 47 48 47 48 47
47 47 47 48 48 47 47 47 47 48 46 47 47 47 46 47
45 46 45 43 44 46 45 45 45 44 44 44 43 43 43 43
43 42 42 42 42 41 41 44 46 44 42 41 40 40 40 39
39 38 39 39 40 43 45 67 57 72 62 47 53 67 52 35
35 30 21 46 46 21 9 14 23 24 20 18 12 14 17 32
43 41 46 53 61 45 34 37 43 40 31 40 45 45 46 46
46 46 46 46 46 47 47 47 48 47 48 47 47 47 47 47
48 48 47 47 47 47 48 49 48 48 48 48 48 48 48 48
48 47 47 47 47 47 46 46 46 47 46 46 46 46 47 47
46 46 46 48 55 53 51 49 47 46 45 44 45 45 44 44
44 43 43 43 43 42 44 56 57 53 48 45 43 40 40 40
39 38 38 37 39 42 53 59 68 62 46 52 64 57 59 54
32 22 41 48 28 17 13 13 16 16 21 15 15 17 18 23
43 41 37 40 51 58 54 36 41 42 43 43 45 46 47 46
46 47 46 47 47 47 47 47 47 48 48 48 47 47 47 48
48 47 48 48 48 48 48 49 48 48 48 48 47 48 48 48
48 47 47 47 48 47 47 47 47 47 46 47 46 47 45 46
46 45 45 50 60 58 57 55 52 50 49 46 45 45 44 44
44 43 43 43 43 42 46 58 56 53 52 52 51 46 40 39
39 38 40 38 41 40 60 57 53 52 57 66 60 64 61 54
32 40 53 40 30 22 16 10 16 13 22 16 16 15 25 27
32 50 44 32 31 49 58 39 40 44 47 45 46 45 47 46
46 45 46 46 47 47 48 47 46 48 48 47 48 48 47 47
46 47 48 48 48 47 47 49 48 48 48 48 48 48 48 47
48 48 47 47 47 47 47 46 46 47 47 47 47 47 46 46
46 45 45 49 61 59 57 53 53 54 55 58 50 50 48 46
45 42 43 43 43 42 45 54 54 53 51 52 53 49 41 40
40 38 38 39 41 47 44 45 47 59 65 64 53 53 62 43
43 60 50 44 36 22 4 13 16 12 15 22 21 25 26 38
34 45 56 33 39 30 32 37 27 40 50 47 44 44 44 44
45 46 47 46 47 47 49 48 48 48 48 48 48 48 48 47
47 47 47 48 47 47 48 49 47 47 47 47 48 47 47 47
47 46 47 47 47 47 48 47 46 46 47 47 47 46 46 45
49 48 47 49 53 51 55 54 56 58 59 59 50 50 53 54
50 48 46 45 44 43 44 40 32 36 41 47 51 51 43 40
39 38 40 42 39 39 41 28 40 67 58 54 41 66 53 50
57 56 53 50 38 5 7 10 19 21 21 35 31 33 38 41
44 42 57 51 22 39 34 28 25 25 44 46 45 45 46 45
46 46 46 46 47 47 49 47 47 47 48 48 48 48 48 47
48 47 47 48 47 47 47 49 48 48 47 48 47 47 46 47
48 47 46 46 46 47 46 47 47 47 47 46 47 47 46 47
46 52 54 57 22 5 18 39 49 53 56 58 42 11 19 31
40 48 47 51 53 49 45 36 20 17 18 17 18 30 44 40
40 40 37 44 41 45 31 38 67 46 67 55 65 63 65 51
69 55 55 58 19 17 14 16 26 35 34 52 47 44 45 53
62 58 57 62 30 21 43 35 29 15 24 44 45 45 46 46
46 46 46 47 47 47 48 48 48 48 48 48 48 48 48 47
48 48 48 47 48 48 47 48 49 48 47 48 47 47 48 47
47 47 47 47 48 47 48 47 48 48 47 48 48 47 46 46
44 48 57 61 22 0 0 14 24 24 26 42 39 0 0 0
2 9 17 26 37 43 47 36 15 9 14 15 3 12 45 41
44 38 39 48 51 35 33 66 53 59 75 65 77 70 61 69
52 62 61 37 36 33 26 29 36 46 53 64 75 62 51 56
57 60 68 72 51 21 25 42 29 14 10 34 46 47 47 47
48 47 47 48 48 47 49 49 48 48 48 48 48 48 49 49
48 48 49 48 48 48 48 48 49 49 48 47 47 47 47 47
47 47 48 48 48 48 49 49 49 48 46 46 46 45 46 46
51 55 60 62 24 0 0 10 15 19 19 34 39 1 0 0
0 0 1 0 1 7 44 35 10 4 1 11 2 13 47 41
41 39 40 53 46 35 61 56 56 85 73 80 74 68 68 66
70 64 55 63 61 62 53 41 49 53 57 68 91 88 65 53
57 60 72 80 61 30 22 30 30 13 12 22 46 46 47 47
47 48 47 48 48 48 49 50 49 49 49 49 49 49 49 49
49 48 47 49 49 49 48 49 50 49 48 47 48 48 48 49
48 49 48 49 49 48 48 48 48 49 48 48 48 48 47 47
8 20 32 46 25 0 0 7 7 10 12 33 43 7 0 0
0 0 1 0 0 3 45 32 4 0 0 8 2 14 49 42
38 38 42 46 35 55 63 50 73 90 77 82 79 69 76 65
75 65 70 75 78 68 48 51 56 62 61 67 81 96 94 67
64 69 65 83 71 38 23 33 29 13 15 11 40 48 48 48
48 48 48 48 49 47 49 50 50 50 49 49 50 50 51 51
51 50 50 50 50 49 50 50 49 49 49 49 49 49 49 50
49 49 50 50 50 49 50 49 49 49 49 49 48 49 47 47
0 0 0 10 23 0 0 1 1 0 9 30 39 0 0 0
0 3 1 0 0 2 46 24 0 0 0 3 4 23 53 42
41 38 44 39 46 67 59 39 88 84 86 77 77 77 63 72
70 66 76 75 70 69 85 77 72 76 65 73 87 100 104 89
77 73 61 62 78 44 21 21 20 8 10 11 33 45 48 48
48 49 50 49 50 50 51 51 50 50 50 51 51 51 51 51
51 50 51 51 51 51 51 51 49 50 51 51 51 51 51 51
50 50 51 51 51 50 49 50 50 49 49 49 50 49 49 49
0 0 0 6 20 0 0 0 0 0 4 35 40 0 0 0
1 17 13 2 0 1 45 23 0 0 0 1 7 17 52 43
43 32 36 36 55 69 49 55 90 79 76 81 78 65 58 61
61 70 76 87 89 96 95 105 101 91 88 77 92 98 107 102
81 87 66 43 46 44 18 21 17 4 4 12 35 47 48 48
49 49 49 50 50 50 50 50 50 50 50 51 51 51 51 51
52 51 51 51 51 50 50 49 51 50 51 51 50 51 50 50
50 50 51 51 51 50 50 50 50 50 50 50 50 50 51 51
0 0 0 6 19 0 0 0 0 0 3 36 44 0 0 0
5 20 21 16 8 1 44 21 0 0 0 4 6 20 49 42
39 28 25 36 59 73 49 52 67 64 73 65 56 50 45 40
53 72 78 97 108 112 100 108 117 109 106 96 84 94 100 99
86 86 85 50 43 34 29 18 12 5 12 13 42 44 47 48
48 49 49 50 50 50 50 51 51 50 51 51 51 52 52 51
50 50 51 50 51 50 50 51 51 50 50 50 50 50 49 48
50 51 51 50 50 50 50 50 51 50 51 51 51 51 51 50
19 4 0 4 17 0 4 0 0 0 4 33 47 1 0 0
8 22 22 22 19 4 41 25 0 0 0 10 8 14 47 45
36 24 19 34 55 73 31 42 40 53 49 40 45 31 27 43
61 67 97 122 125 113 105 106 113 125 129 113 100 87 86 89
88 83 87 54 43 36 28 18 12 6 13 28 42 40 43 47
48 49 50 50 51 51 51 51 50 50 50 51 51 51 51 51
51 51 51 50 51 50 50 50 50 50 50 50 50 49 49 49
50 51 51 51 51 51 51 52 51 50 50 48 47 48 50 50
10 1 0 4 17 2 2 0 0 0 9 33 48 1 0 1
6 19 21 21 19 5 40 28 0 0 1 11 1 14 45 43
33 17 17 31 58 65 25 29 31 36 27 30 28 19 26 44
59 92 117 128 135 134 124 117 116 127 149 141 123 93 87 85
69 73 81 66 42 43 21 16 13 8 13 28 36 38 44 42
48 49 49 50 50 49 49 50 51 50 50 50 51 51 51 52
50 50 51 51 50 50 50 50 51 51 50 50 50 49 50 49
49 51 50 50 49 49 50 49 46 45 44 45 45 43 40 36
8 4 0 4 19 1 0 0 0 0 16 37 52 3 0 8
5 5 15 20 19 2 37 48 32 21 15 14 7 21 45 42
23 12 14 28 62 54 19 22 20 22 24 22 17 25 34 53
85 99 122 135 149 144 142 139 141 141 145 150 149 127 97 82
78 69 64 57 47 61 32 11 10 11 10 24 32 27 32 42
44 48 50 50 50 50 50 50 50 50 50 51 51 51 51 52
50 51 51 51 50 51 51 50 50 50 50 50 49 49 48 48
49 49 46 47 47 45 47 43 39 35 31 27 25 24 23 22
0 3 0 6 33 14 8 10 4 0 6 35 62 39 30 24
17 6 2 9 13 1 36 57 57 53 52 47 44 42 40 30
16 10 4 23 61 46 18 18 23 28 24 21 29 27 53 81
94 107 126 141 147 150 151 151 150 150 147 143 146 140 120 110
97 72 55 55 42 39 45 14 12 8 6 26 26 18 22 31
42 46 49 50 50 50 50 49 50 50 51 51 51 51 51 52
50 51 51 50 50 51 51 49 48 47 46 49 47 46 45 46
45 42 39 35 31 28 25 24 23 24 25 20 26 28 30 30
0 0 0 7 58 59 47 44 42 33 21 39 66 39 39 43
44 42 37 32 28 23 44 57 57 54 54 55 56 48 39 25
14 7 5 32 62 50 18 22 29 28 25 34 23 49 75 99
94 122 129 146 150 151 150 150 150 150 150 145 143 129 122 109
110 98 67 48 35 17 30 23 14 11 12 18 21 13 14 23
38 47 46 50 50 50 50 49 50 50 51 51 51 51 50 52
50 49 47 46 46 46 47 47 46 45 43 42 39 35 32 29
27 26 25 25 25 26 28 29 30 31 32 20 20 34 34 35
0 0 0 7 61 62 52 60 61 66 62 63 62 24 21 23
24 25 27 30 36 42 50 46 44 49 52 52 55 41 28 18
14 6 2 24 57 50 22 24 29 42 40 26 48 73 92 107
115 144 145 150 151 150 150 150 151 150 150 150 149 144 135 133
112 110 104 66 37 22 18 22 23 20 11 8 12 7 7 17
31 48 45 47 49 50 50 49 49 49 50 49 49 49 49 50
48 49 50 49 44 43 40 36 33 30 28 27 27 27 27 29
30 31 31 32 33 33 35 32 33 37 38 34 14 38 39 39
2 0 0 7 61 53 55 62 66 70 66 55 47 25 23 23
22 21 20 18 18 17 19 20 22 29 36 43 40 30 23 24
18 10 5 12 52 54 23 20 38 56 41 69 63 76 115 111
138 151 151 151 151 150 150 150 151 150 150 150 150 150 150 147
145 112 72 56 55 55 51 57 42 14 2 1 6 6 4 15
26 46 48 47 49 51 50 49 49 49 49 50 49 47 46 43
40 37 43 49 31 26 27 28 29 29 30 31 33 34 34 35
36 37 38 38 39 40 41 36 30 36 41 41 20 33 42 39
45 36 26 27 56 45 55 61 63 68 68 58 49 29 24 23
21 19 18 17 17 17 16 17 18 24 27 39 32 29 23 14
17 11 11 6 37 55 25 21 54 102 107 90 98 114 123 105
150 149 151 150 150 150 150 150 150 150 150 150 150 150 127 88
73 84 87 81 70 59 60 68 78 28 1 1 4 3 2 9
24 43 48 46 48 49 49 48 46 43 40 37 34 31 30 30
30 29 35 48 29 30 33 34 35 36 37 37 39 39 40 40
41 41 42 43 43 42 42 43 43 32 38 42 35 21 44 41
60 60 61 63 56 29 40 50 55 62 63 58 53 33 25 22
19 16 16 16 18 17 18 19 24 28 30 34 28 26 23 13
15 6 2 9 25 53 27 20 65 120 122 111 125 129 111 136
147 151 151 151 150 150 151 150 150 150 150 146 106 64 46 48
43 42 63 69 59 29 18 10 13 21 4 2 2 2 0 10
25 43 46 43 42 41 38 34 32 30 31 31 33 33 34 36
37 36 35 43 31 35 39 41 41 42 43 43 44 43 44 44
44 43 44 44 45 44 43 45 46 45 31 35 41 15 39 44
62 62 63 65 49 5 4 8 14 22 32 34 50 35 23 21
13 4 5 6 16 21 20 19 24 30 36 34 34 32 20 16
18 14 18 26 25 42 37 19 72 115 119 127 121 103 106 141
146 152 151 151 151 150 150 151 150 150 138 67 44 31 19 13
22 37 96 124 101 34 13 8 11 19 0 4 4 1 2 13
27 45 34 30 32 33 34 34 36 36 37 38 40 40 40 42
43 42 40 50 35 40 44 44 44 45 45 45 46 46 46 46
47 47 46 45 44 45 44 45 47 48 46 31 36 23 31 45
56 58 61 64 44 2 0 0 0 2 13 24 51 34 21 19
10 0 0 2 7 12 13 10 20 25 31 35 42 38 24 14
13 12 21 27 28 30 30 24 51 80 88 82 71 60 53 48
48 63 89 126 151 151 151 151 151 142 67 43 28 10 6 12
36 51 139 153 136 45 15 8 5 29 0 0 4 3 3 16
28 49 38 36 38 39 42 41 42 42 43 44 45 45 46 46
47 45 36 33 29 42 46 46 46 47 48 48 48 48 48 48
47 47 48 47 46 45 46 44 47 48 48 46 31 28 12 24
45 44 49 58 40 0 0 0 0 4 0 14 55 34 20 19
11 0 0 8 3 3 6 9 7 20 30 32 44 36 32 16
16 12 1 2 16 49 76 92 99 81 82 92 53 26 20 9
10 14 30 55 102 146 152 151 150 90 44 39 9 2 7 13
31 75 139 150 99 33 18 14 6 27 4 6 5 5 7 20
35 51 42 40 43 45 45 45 45 46 46 47 47 48 47 48
48 46 25 14 13 41 47 49 50 49 47 47 49 48 49 49
49 49 48 48 47 46 45 45 45 47 48 47 44 28 9 1
43 40 47 59 39 0 0 0 0 4 0 4 54 26 15 5
0 0 3 16 13 8 7 2 2 31 28 36 44 28 27 11
1 2 0 2 31 65 52 28 19 47 132 152 86 28 15 4
2 4 13 23 44 89 132 131 87 57 47 17 1 5 7 10
22 77 97 97 47 25 18 17 9 23 14 7 4 7 13 25
43 44 49 44 46 48 48 48 48 48 48 49 49 49 47 43
39 45 23 17 10 38 48 49 51 50 49 49 49 49 49 49
50 49 48 48 47 48 47 45 43 46 48 47 45 41 17 0
45 45 52 58 38 0 0 0 0 1 0 6 56 15 1 0
0 2 3 12 21 14 8 5 15 31 26 37 48 30 26 13
0 2 0 0 17 28 9 13 21 53 135 153 97 28 20 7
4 3 3 8 25 52 46 60 47 58 44 19 7 4 2 8
14 30 46 46 29 13 14 16 10 19 15 8 7 10 19 37
46 45 47 48 49 50 49 50 49 50 50 50 50 30 13 8
12 42 19 11 8 37 48 49 51 49 49 49 50 49 49 49
49 49 49 48 48 47 48 46 43 44 45 45 43 43 35 0
22 30 39 44 35 0 0 0 0 0 0 8 57 16 0 0
0 0 4 9 26 21 19 10 28 31 27 36 48 28 29 16
0 0 1 2 5 17 5 10 22 34 83 102 56 30 22 9
1 2 1 3 18 49 31 36 36 56 43 10 1 0 0 1
5 13 18 18 15 8 8 15 10 18 18 14 12 14 22 37
45 38 45 49 49 49 51 50 50 50 50 51 49 29 21 30
37 44 23 4 7 36 47 49 50 50 49 49 49 49 48 49
49 48 48 48 47 48 48 48 45 41 42 42 42 45 39 3
0 0 0 4 28 0 0 0 0 0 0 10 56 13 0 0
0 0 10 21 27 24 24 17 31 37 28 37 47 28 28 17
3 0 12 7 4 14 4 5 11 27 34 46 37 28 15 5
1 0 0 0 11 45 37 82 82 46 54 2 0 0 0 0
2 5 9 9 8 5 5 11 9 17 37 20 18 18 27 45
55 40 41 46 50 51 50 51 50 50 51 50 51 49 49 50
49 46 28 7 9 36 47 49 50 50 48 49 49 49 49 49
49 49 48 49 48 47 48 47 47 45 41 41 43 46 41 4
2 0 0 1 25 0 0 1 11 4 0 7 53 9 0 0
0 0 12 27 33 21 18 19 37 50 30 38 48 32 25 14
10 2 55 27 4 13 3 6 9 18 29 25 21 16 8 0
0 0 0 0 6 43 89 144 142 82 55 7 0 0 0 0
1 3 4 3 3 2 1 7 8 16 47 31 21 25 38 48
52 36 43 46 50 51 51 51 50 50 51 51 51 50 49 49
48 46 35 5 8 39 48 50 50 50 49 49 49 48 48 48
48 48 48 48 47 47 48 47 47 46 42 41 44 46 43 5
6 0 0 0 24 0 0 11 24 14 1 7 52 8 0 0
0 0 4 9 29 8 10 19 48 49 28 40 45 30 23 20
17 10 23 30 5 16 2 5 5 7 11 10 7 5 2 0
0 0 0 0 9 41 98 143 149 119 39 28 0 0 0 0
0 1 2 2 1 1 1 4 6 19 50 31 26 33 39 49
48 34 40 46 47 50 51 49 50 51 51 51 50 50 49 50
47 46 39 14 18 41 48 49 50 50 49 49 48 47 48 48
48 48 49 48 47 48 47 48 47 46 43 41 43 46 44 6
22 6 1 0 25 0 1 21 25 17 4 7 51 6 4 1
0 2 3 2 24 11 7 17 57 42 29 33 39 30 22 22
21 19 3 5 9 20 2 4 2 1 2 2 0 1 0 0
0 0 0 0 14 42 107 145 151 130 45 45 3 0 0 0
0 0 2 2 3 3 0 2 4 27 58 22 27 39 42 51
44 33 35 41 43 49 51 49 49 50 50 50 50 50 50 49
47 45 39 36 36 44 49 49 50 50 48 48 49 47 48 48
48 48 48 48 48 47 47 47 47 47 43 39 35 40 36 8
31 13 6 0 33 21 20 31 29 27 15 12 51 5 3 0
1 0 1 4 25 14 8 22 51 29 29 30 37 30 20 22
26 18 11 3 18 18 3 4 1 0 0 0 0 0 0 0
0 0 0 0 19 51 110 140 150 133 81 28 28 0 0 0
2 5 6 5 5 3 0 1 11 49 58 23 16 35 42 46
43 32 35 36 41 48 50 50 48 50 50 50 50 50 50 50
48 45 41 41 43 48 49 50 50 50 49 49 48 49 49 48
49 49 49 49 48 48 49 48 48 46 41 38 33 30 36 10
17 8 4 0 41 52 52 57 55 54 55 55 58 8 0 2
0 0 1 5 28 20 8 21 41 24 20 31 35 24 21 23
28 16 17 6 25 25 2 5 1 0 0 0 0 0 0 0
0 0 1 2 24 65 109 141 150 134 106 59 41 11 0 0
1 7 12 10 9 4 0 1 27 76 62 27 9 30 45 44
42 31 28 39 38 41 47 50 49 50 50 50 50 50 50 49
48 46 44 44 48 49 49 49 49 50 50 50 49 49 49 49
49 49 48 49 49 48 47 47 47 47 43 40 40 42 44 13
3 3 1 0 39 53 55 59 57 58 65 68 63 29 20 25
11 6 5 10 31 27 13 21 32 21 23 29 29 21 23 26
31 22 18 9 30 35 5 4 1 0 0 0 0 0 0 0
0 0 0 11 31 86 112 140 151 139 119 114 68 44 8 0
1 4 6 11 10 0 0 22 65 96 62 24 8 16 40 49
45 31 23 30 36 41 44 48 48 50 50 50 51 50 49 48
48 47 46 46 49 50 50 49 49 50 49 49 49 49 48 48
48 48 48 48 48 48 48 46 46 45 42 38 39 42 42 15
3 1 0 0 38 53 54 56 56 58 67 69 67 48 45 45
42 39 38 37 42 37 31 28 27 30 29 31 27 22 22 28
24 26 19 10 28 34 13 3 0 0 0 0 0 0 0 0
0 0 0 21 61 95 119 145 151 148 130 108 108 61 40 18
2 3 4 7 5 17 45 77 111 101 91 29 8 12 22 49
48 32 24 21 31 33 41 47 49 49 51 51 51 49 50 49
49 47 47 48 48 48 48 47 48 49 49 49 48 48 47 48
48 48 48 48 47 47 47 45 44 45 42 37 38 42 43 19
2 1 0 0 39 48 49 51 51 51 53 51 52 48 49 50
49 46 46 47 47 45 41 35 32 36 37 36 31 21 27 32
13 22 19 11 17 38 28 7 0 0 0 0 0 0 0 0
0 0 6 32 98 91 122 147 151 150 138 112 106 104 88 54
40 27 32 31 54 70 99 124 112 112 98 22 10 9 17 30
47 38 26 19 20 33 40 49 50 48 50 50 49 49 50 49
49 47 47 49 49 49 49 49 50 50 49 49 48 48 48 48
49 47 49 47 48 47 46 45 46 45 42 37 37 41 41 21
2 0 0 0 40 51 48 48 49 49 48 45 45 49 50 52
53 50 50 49 50 47 44 41 43 45 43 40 34 25 33 26
7 19 18 9 12 34 50 33 2 0 0 0 0 0 0 0
0 5 27 73 92 96 125 145 151 150 144 121 119 114 128 140
135 131 136 141 144 145 143 135 116 109 105 23 9 10 10 23
38 40 26 20 15 26 37 48 48 47 49 50 50 49 49 49
49 48 49 50 49 49 49 49 49 49 49 48 49 49 48 48
48 47 48 47 47 46 45 45 45 44 41 35 36 40 40 23
24 19 16 12 43 54 48 48 48 48 48 49 52 54 51 54
57 60 57 50 51 48 45 44 52 43 54 48 32 30 34 20
8 19 17 11 11 29 64 49 23 3 0 0 9 13 0 1
17 38 86 92 102 97 124 149 151 151 146 119 113 117 120 130
143 149 150 150 149 146 138 129 111 108 109 28 7 6 9 16
29 43 42 19 13 18 33 45 47 47 49 50 50 50 49 49
50 49 49 50 49 49 48 49 49 49 48 48 47 48 48 47
47 47 47 46 46 45 45 44 44 44 41 35 35 39 39 25
56 58 62 60 63 58 51 51 52 51 52 55 59 59 52 56
58 63 57 51 49 43 43 45 51 46 50 41 29 44 32 15
13 17 17 10 9 24 61 75 70 35 27 26 33 38 22 36
74 128 111 95 101 89 108 146 151 150 138 104 83 111 124 119
126 140 148 147 146 140 125 113 106 107 113 24 5 5 6 19
27 28 33 15 12 13 25 43 48 46 49 50 50 49 50 48
50 49 50 50 50 49 49 48 48 49 48 48 47 48 48 47
47 46 47 46 45 45 44 44 43 42 40 33 33 38 39 26
67 67 68 67 67 60 49 45 46 45 47 54 60 63 53 55
55 53 55 55 51 41 37 47 45 46 45 36 43 37 26 13
15 23 19 10 7 29 85 71 91 91 70 54 59 81 113 141
145 132 102 92 66 65 77 118 145 139 114 111 109 124 128 131
123 116 128 133 133 127 113 101 111 107 100 5 7 6 3 10
39 30 23 23 7 11 31 43 47 45 48 49 48 48 48 48
49 49 49 49 49 49 49 49 49 48 49 48 48 47 47 47
47 46 47 45 44 45 44 43 43 42 40 34 32 37 38 28
56 59 61 63 64 53 15 20 13 11 15 22 36 61 56 52
30 28 34 37 38 40 36 39 26 29 34 44 38 40 19 10
17 32 21 9 6 24 102 83 85 98 111 125 134 144 146 147
140 116 101 98 79 90 89 83 115 105 106 113 124 129 130 132
129 113 105 115 116 109 109 111 119 98 39 0 3 8 7 10
25 35 28 27 5 10 26 43 47 45 49 48 48 47 47 45
47 47 49 49 48 48 49 48 48 48 48 48 48 47 46 46
46 46 47 46 45 45 43 42 43 41 39 33 31 36 37 30
39 39 39 40 42 40 4 0 0 0 0 0 10 56 53 33
4 3 7 15 27 33 46 35 17 24 34 31 38 31 14 11
22 39 25 7 7 12 93 97 76 92 113 126 134 139 142 139
128 120 107 101 96 88 79 77 81 95 123 126 127 131 132 138
141 135 118 111 125 119 115 128 127 53 0 0 3 7 10 10
31 37 33 18 12 11 28 45 47 45 40 32 31 27 25 22
27 43 50 49 50 48 49 49 49 49 47 47 47 47 46 45
45 45 47 45 44 43 43 42 42 42 40 34 30 34 37 30
47 45 44 44 44 41 12 6 0 0 0 3 20 56 49 13
0 0 0 6 21 36 45 38 16 29 25 32 38 26 18 17
27 37 26 6 7 7 78 107 70 85 99 118 127 132 133 123
122 125 113 105 103 103 101 105 113 126 137 138 139 136 141 142
144 145 142 127 142 146 132 135 133 50 0 0 1 6 14 29
29 34 33 15 19 13 26 45 46 46 31 14 14 14 15 14
18 42 50 50 49 48 49 49 49 48 47 47 47 46 47 46
45 45 45 45 43 43 42 41 41 40 39 32 29 32 35 30
50 50 50 50 51 42 10 6 0 0 0 5 24 55 43 4
0 0 0 14 7 32 45 40 22 23 26 41 33 21 22 22
33 33 19 7 2 1 59 103 75 80 83 104 117 121 115 113
131 130 121 121 122 123 129 141 146 147 149 150 146 143 141 135
134 135 138 147 147 148 132 146 133 43 0 0 1 2 15 40
48 43 34 12 15 15 28 46 45 44 30 13 13 14 14 13
17 43 50 50 50 49 49 48 48 47 46 46 46 46 45 45
45 44 45 44 43 43 42 41 40 39 38 31 28 30 32 28
50 50 51 51 54 43 8 6 0 0 3 6 9 50 36 1
0 0 10 9 2 29 43 30 17 23 37 28 30 19 21 22
40 29 18 6 0 0 13 74 72 83 81 95 118 122 120 142
144 138 133 133 136 142 148 149 150 150 150 143 134 123 113 104
92 118 149 150 149 148 132 149 132 32 0 0 0 1 11 33
48 52 31 18 10 21 33 46 45 45 27 13 13 14 13 13
16 40 49 49 50 49 48 48 48 46 47 46 46 46 46 45
45 44 44 45 44 42 41 40 39 38 36 30 25 26 30 29
47 33 28 37 51 48 7 0 0 0 4 12 5 47 34 1
0 4 19 0 3 30 41 27 17 29 30 24 30 20 20 22
41 36 22 4 0 0 0 5 30 89 100 96 126 142 134 145
134 127 125 128 129 130 132 136 136 135 126 121 111 90 95 90
114 146 150 150 150 146 131 149 123 17 0 0 0 0 1 18
40 41 25 9 5 21 34 46 47 46 28 14 13 14 14 14
15 37 49 50 49 49 49 48 48 46 46 46 45 44 43 43
43 43 43 43 43 42 41 40 38 37 36 30 26 27 30 30
44 18 0 10 42 55 23 4 0 0 5 8 2 44 33 0
0 11 8 0 3 30 38 26 23 26 25 30 32 21 21 28
43 48 24 4 1 0 0 0 14 92 113 101 129 150 145 137
122 111 102 97 103 110 113 117 121 121 116 103 102 112 117 117
131 145 150 150 150 144 135 148 96 2 1 1 1 1 0 0
8 35 42 19 6 21 36 47 48 47 31 14 13 14 15 15
14 33 48 47 47 46 47 47 46 46 44 46 46 46 46 45
44 44 44 42 41 40 39 38 37 35 34 28 24 25 30 29
43 20 0 5 38 56 20 2 0 0 4 11 5 43 31 0
0 27 0 0 0 24 40 27 24 21 24 31 29 21 22 29
43 50 23 7 2 0 0 0 8 84 121 108 126 151 149 147
132 91 69 81 95 88 94 101 106 114 120 135 141 128 119 116
132 149 150 150 150 139 141 139 57 0 0 1 5 7 6 1
4 12 17 33 28 15 35 47 46 46 36 22 22 22 23 24
24 42 45 47 48 48 48 47 47 47 45 45 45 46 46 44
43 42 42 41 40 39 38 37 35 34 33 28 22 23 28 28
43 25 0 1 33 52 7 0 0 0 0 0 2 42 34 0
4 19 0 0 1 19 42 27 21 21 27 27 32 22 25 35
43 50 18 9 6 0 0 0 7 61 120 114 115 149 151 150
144 134 118 110 113 121 135 140 145 143 148 149 148 134 119 123
148 149 149 149 147 127 146 116 20 1 0 2 9 20 12 1
9 11 22 17 19 32 33 46 47 46 37 19 17 17 12 8
13 52 15 13 32 48 48 47 47 47 46 45 44 44 45 43
43 41 42 40 40 38 37 35 33 33 32 26 21 22 27 27
42 28 0 0 28 47 4 0 0 0 0 2 0 40 38 0
6 6 0 0 1 18 42 27 19 24 30 29 31 22 36 37
47 52 17 17 14 0 0 2 11 35 107 118 105 141 151 151
140 140 121 112 119 123 135 147 148 147 146 144 136 123 122 145
151 150 150 150 135 129 136 79 7 5 0 0 10 32 12 1
7 9 21 33 26 18 31 42 49 47 38 15 15 15 8 0
8 24 34 8 20 48 48 47 47 47 47 46 45 44 45 43
43 42 41 41 39 38 37 35 34 32 32 27 22 22 27 27
42 32 0 0 25 46 7 1 1 0 4 19 5 40 46 12
18 12 14 10 14 24 43 36 37 40 34 49 37 25 49 38
50 44 18 20 21 3 2 9 11 18 80 118 105 116 147 151
147 143 139 118 116 122 129 137 139 138 137 135 130 133 147 150
150 151 150 145 118 137 109 71 6 7 0 0 13 47 9 1
8 5 9 26 42 42 34 35 47 46 37 15 14 15 13 1
6 14 22 6 19 48 48 47 48 48 47 46 45 45 44 44
43 42 42 40 38 36 36 34 33 32 31 26 21 21 26 27
41 34 2 0 16 49 41 39 33 34 45 52 46 51 54 57
55 52 54 54 54 53 47 35 43 50 44 55 36 34 57 47
45 42 19 16 24 6 8 21 8 16 38 101 113 104 122 146
146 136 136 137 134 126 127 132 137 139 141 141 142 148 149 150
150 151 149 126 128 127 91 45 7 6 0 0 11 48 17 0
9 7 6 13 30 31 39 37 41 47 39 15 14 14 11 5
6 5 1 1 17 47 48 47 47 47 46 45 46 45 44 44
44 43 41 40 38 36 35 33 32 31 29 26 20 20 25 26
42 37 3 0 10 50 53 51 46 51 61 62 55 51 50 66
64 60 60 62 63 62 55 42 39 52 49 51 41 46 56 56
38 42 21 13 24 10 19 25 4 17 13 53 101 108 105 126
140 143 139 139 144 147 146 147 146 145 148 146 147 150 150 150
151 150 137 115 138 100 73 8 9 9 0 0 9 39 40 1
14 7 7 15 25 30 31 41 38 42 39 15 13 13 8 5
6 6 2 0 17 45 30 22 34 47 46 45 45 44 44 43
42 41 40 39 37 36 35 33 32 31 31 27 20 20 25 26
42 37 5 0 8 50 52 46 46 52 60 63 56 48 45 53
54 55 55 54 54 53 49 43 34 44 50 46 42 48 51 59
38 41 22 12 20 6 31 22 12 17 12 7 62 102 106 103
126 138 145 142 146 147 151 151 151 151 151 151 151 151 151 151
151 143 115 130 124 78 20 5 9 9 0 0 14 39 64 10
16 12 13 16 27 37 44 41 42 40 40 15 14 11 5 28
14 0 0 0 7 20 28 32 9 37 46 45 45 45 43 42
42 41 39 37 36 35 34 32 31 31 29 27 20 19 25 27
42 38 7 0 5 50 43 38 39 41 51 62 57 51 45 35
36 40 36 36 36 37 38 41 33 41 48 50 43 43 53 60
38 42 24 9 15 8 27 19 13 15 13 1 18 76 106 98
108 130 142 149 150 150 152 152 152 152 151 152 151 151 151 151
148 123 116 137 97 44 3 7 10 13 2 4 12 45 54 30
15 15 25 32 39 42 50 50 46 42 38 15 13 10 34 65
55 2 1 0 24 44 49 47 32 23 46 45 45 44 44 43
41 40 39 38 36 35 34 32 31 31 29 27 21 19 24 26
41 38 10 3 13 50 34 23 28 31 40 48 48 46 48 37
36 38 39 42 42 41 40 44 42 43 47 50 47 42 50 57
38 40 28 11 8 11 15 22 10 14 12 0 9 69 81 101
94 118 136 144 150 150 151 152 152 151 152 151 151 151 151 150
135 110 138 115 72 6 7 6 7 14 9 12 7 40 38 33
22 7 25 49 67 67 68 58 57 50 41 16 13 11 32 40
55 4 0 2 42 47 47 46 41 15 46 44 45 44 44 42
40 39 37 36 35 33 32 32 30 30 28 27 21 19 23 26
41 38 24 27 37 52 27 1 1 2 5 12 18 25 49 42
49 49 52 61 59 47 40 43 45 41 45 49 49 44 45 54
47 30 34 13 5 10 14 24 12 11 10 0 4 58 75 83
93 97 128 141 148 150 150 152 152 151 150 151 151 150 149 140
113 128 129 98 22 7 8 5 9 13 15 22 6 31 30 36
28 4 7 35 66 80 81 78 61 42 45 17 12 12 15 10
18 0 0 1 42 49 47 46 42 16 45 45 44 44 43 41
38 37 35 35 34 32 32 32 31 30 29 28 20 21 25 28
40 38 45 54 57 58 29 0 0 0 0 0 7 28 52 44
55 54 53 66 62 22 19 16 18 27 41 45 50 47 40 51
57 24 30 24 4 10 21 21 7 10 11 0 4 21 82 68
86 86 102 135 146 147 145 150 152 150 151 152 149 140 136 116
116 132 111 52 6 9 5 7 9 11 17 26 14 14 36 30
30 16 6 9 25 65 71 77 57 37 42 32 27 23 3 0
0 0 0 5 37 48 47 46 41 20 45 44 44 43 42 39
37 35 34 33 33 32 32 31 30 30 29 27 21 20 25 27
41 37 46 57 59 61 35 0 0 0 0 0 0 22 54 40
53 44 21 31 46 11 3 2 0 12 38 37 49 47 42 52
57 23 24 27 5 7 22 16 8 11 11 0 3 2 32 72
68 85 83 109 137 144 137 139 150 151 151 149 134 123 116 108
130 117 75 9 12 7 6 11 12 13 19 35 24 16 30 28
28 21 8 18 19 25 54 39 32 34 36 42 11 32 21 0
0 0 0 0 35 48 47 47 36 27 44 44 43 43 43 39
36 35 33 33 31 30 31 30 30 30 30 28 21 18 22 26
40 37 44 53 53 52 32 0 0 0 0 0 0 19 54 41
52 38 1 8 38 13 2 3 2 11 35 33 48 44 43 53
59 28 23 18 10 4 19 14 8 7 13 0 1 4 3 16
48 72 86 80 96 119 120 113 126 141 135 121 106 100 107 131
120 81 13 14 10 5 8 13 13 14 23 38 39 31 14 24
32 26 19 24 23 21 34 40 20 22 34 44 33 60 58 3
0 0 0 0 35 48 47 43 19 37 42 38 38 43 42 38
34 31 31 31 30 30 29 30 30 29 29 28 21 18 22 26
40 36 31 25 24 26 8 0 0 0 0 0 0 22 54 41
52 39 1 6 37 18 3 9 1 11 36 36 44 43 45 52
64 30 12 15 7 7 11 13 9 7 11 1 1 2 2 2
3 32 70 88 86 78 79 81 83 87 84 83 97 121 127 111
70 12 13 12 5 7 13 14 13 12 31 43 38 44 22 15
28 32 27 43 38 21 33 28 21 15 29 33 25 33 36 2
0 0 0 0 12 18 16 11 12 37 17 19 19 43 41 37
33 32 31 31 29 29 29 30 29 29 29 28 22 18 21 26
40 35 30 21 22 24 5 0 0 0 0 1 0 24 53 41
52 38 1 6 34 22 1 2 6 10 32 46 46 49 46 54
61 33 13 8 13 10 8 15 7 11 9 1 6 2 1 1
2 3 23 63 87 104 111 109 105 106 117 127 126 114 96 47
11 14 11 6 6 10 14 15 14 15 37 38 42 49 38 12
3 23 33 48 45 22 24 20 19 13 13 10 0 0 0 0
0 0 0 0 0 0 0 0 3 8 21 90 48 42 40 37
33 31 30 30 29 28 30 29 29 29 29 28 23 18 21 27
39 34 31 24 25 27 5 0 0 0 0 3 0 19 52 41
53 38 4 8 32 21 9 1 7 12 24 51 46 51 51 61
51 37 12 0 7 13 7 14 12 17 7 0 0 1 1 0
0 1 2 11 41 67 85 98 104 106 105 99 84 55 19 11
14 10 6 5 9 14 13 13 12 13 24 30 33 44 34 17
5 3 36 46 34 25 20 24 24 15 8 16 7 9 11 11
12 15 17 18 18 17 2 0 19 22 72 100 111 31 27 24
30 31 30 30 29 29 30 30 30 30 30 29 24 19 23 28
40 35 32 28 26 27 4 0 0 0 0 5 0 15 53 42
54 40 7 9 29 25 10 4 5 17 16 47 48 46 56 64
46 38 16 1 1 7 9 8 10 27 4 0 0 2 0 0
0 0 1 1 2 8 24 34 42 44 38 27 13 13 13 12
10 6 5 9 14 14 13 13 11 9 13 18 34 52 53 29
15 11 26 69 35 28 23 36 34 20 17 29 24 23 24 25
25 26 27 26 25 20 3 0 1 1 1 3 4 8 7 8
30 34 33 34 33 32 33 34 33 34 34 32 27 23 25 29
39 34 32 30 31 29 5 3 4 0 2 17 6 12 55 43
55 42 23 8 27 26 11 14 11 22 9 30 54 47 56 68
54 39 17 2 2 7 4 4 10 32 11 1 0 1 1 0
0 0 0 1 3 5 9 8 11 11 14 13 11 11 9 7
4 5 10 14 14 13 14 13 10 6 8 11 38 53 66 41
32 16 6 63 60 32 17 48 50 21 16 24 26 26 26 26
27 27 28 27 25 21 3 0 0 0 0 0 0 10 9 9
32 36 33 31 29 27 26 24 21 19 18 15 12 7 6 6
39 33 32 31 30 31 7 6 5 0 3 21 23 13 56 45
56 40 31 17 24 22 7 18 17 23 5 15 44 39 55 61
64 42 20 10 7 5 4 0 8 26 26 7 0 0 0 1
0 0 0 0 1 4 5 6 9 8 9 10 9 7 5 4
5 8 14 15 13 14 15 11 8 4 5 7 29 50 41 14
13 3 2 21 67 49 39 63 55 16 7 6 11 13 15 15
18 19 19 20 18 16 6 2 0 0 0 0 0 4 13 25
30 28 29 29 30 32 34 35 37 38 39 40 41 36 36 42
38 33 33 32 31 33 25 23 26 23 27 37 42 38 61 46
57 36 27 29 25 26 14 20 21 24 11 17 37 29 52 54
60 46 32 10 9 2 5 2 1 19 32 18 0 0 3 1
1 1 0 0 0 2 3 6 7 7 7 8 7 5 4 4
8 12 14 14 14 14 12 10 6 3 4 3 15 27 26 16
13 9 6 4 51 46 41 57 35 10 8 10 11 9 9 9
9 8 8 8 7 8 8 8 5 3 0 0 0 0 37 57
55 54 53 53 54 54 54 54 55 54 54 54 52 44 43 48
37 32 32 32 32 34 49 53 56 56 58 64 67 69 71 52
57 33 13 31 27 39 34 33 33 35 31 34 35 26 48 53
52 50 27 17 14 7 6 2 0 12 22 36 1 4 5 1
3 4 5 3 3 3 2 5 5 6 7 5 6 4 5 9
13 14 13 14 14 13 11 7 5 6 4 2 6 20 29 24
16 7 2 12 35 49 35 25 12 9 9 9 10 9 10 8
8 8 9 9 8 9 11 10 9 9 9 6 0 0 40 57
55 54 54 54 54 54 54 54 54 54 54 54 53 45 43 48
38 31 31 32 33 33 53 60 61 60 62 67 70 71 72 60
55 32 5 17 25 38 33 35 36 38 34 38 37 24 45 54
54 48 30 36 26 12 5 1 3 14 15 37 3 11 9 0
2 5 5 5 4 4 4 4 5 5 6 6 6 5 9 11
14 14 14 15 14 11 8 6 7 9 6 2 3 15 27 19
12 9 10 17 14 19 18 22 11 9 13 11 12 9 8 8
7 9 8 8 7 10 11 11 10 11 11 10 8 3 43 56
55 54 54 54 53 53 53 53 53 54 54 53 52 46 43 47
36 30 30 32 32 31 39 47 46 45 46 49 52 51 51 47
52 34 6 9 22 40 38 38 41 41 38 46 41 23 42 55
49 42 38 46 37 24 8 5 4 7 6 15 10 3 0 0
2 3 7 6 8 6 5 5 4 4 4 7 7 9 12 13
13 13 14 13 11 9 8 7 9 10 10 4 3 18 25 7
7 6 4 8 8 19 19 9 9 10 12 10 10 9 9 9
8 9 8 6 8 11 10 11 11 10 11 11 9 9 36 55
54 53 54 54 53 53 54 54 53 53 53 53 53 47 42 45
35 29 29 32 33 30 24 22 22 22 24 29 34 35 35 34
50 37 7 8 18 41 38 39 42 39 40 46 40 19 32 60
49 35 35 37 49 31 13 2 5 6 4 8 5 0 0 0
1 2 3 6 5 7 8 8 7 11 9 11 11 13 13 14
15 14 13 10 8 7 6 9 11 11 12 6 6 9 12 6
6 7 10 14 8 14 16 9 12 11 12 10 10 9 11 11
9 9 7 6 8 11 11 10 11 11 11 12 11 10 12 44
54 54 54 53 53 53 53 53 53 53 53 53 53 48 43 45
34 28 28 31 32 31 26 23 22 23 24 29 33 36 36 35
50 38 9 11 20 41 39 40 41 39 41 44 39 17 24 55
52 39 29 39 32 30 20 8 6 3 1 2 1 0 0 0
0 1 1 3 5 9 11 12 9 13 10 13 13 13 15 13
12 12 9 10 8 8 9 11 11 12 7 9 5 8 7 7
9 10 15 11 9 10 15 14 12 12 11 10 9 9 11 10
11 9 7 6 9 11 10 10 11 11 12 13 11 10 9 15
51 53 53 53 53 53 53 53 53 53 53 53 53 48 43 44
34 28 28 31 32 32 30 28 28 27 27 31 36 36 37 36
52 44 35 43 47 43 36 39 39 39 43 41 37 21 21 33
55 41 28 27 19 24 15 12 11 9 3 0 0 0 0 0
0 0 1 1 2 5 7 10 8 11 10 12 12 13 11 11
9 8 7 8 7 8 10 12 11 26 8 7 7 10 6 8
8 12 12 9 8 7 8 9 9 8 7 5 6 7 9 10
11 7 6 6 9 10 10 10 11 11 11 11 11 10 9 7
26 53 53 52 52 52 52 52 52 52 52 52 52 48 42 43
35 27 27 30 32 32 31 29 29 29 30 33 39 39 37 36
51 46 49 58 56 44 35 38 38 39 40 30 22 14 15 19
26 48 46 29 13 13 16 9 24 17 6 1 0 0 0 0
0 0 0 0 0 1 4 5 6 9 8 9 7 7 7 5
6 5 5 8 9 10 11 10 18 27 7 5 9 9 7 8
13 15 10 7 8 9 10 10 8 6 4 4 2 1 3 8
9 6 4 4 9 9 9 9 11 10 9 8 10 9 9 7
7 39 52 52 52 52 52 51 52 51 52 52 52 48 42 41
29 25 26 28 30 30 29 28 28 28 29 33 37 38 36 32
37 35 34 36 36 35 36 37 39 40 27 11 17 7 17 21
18 16 36 46 39 22 16 10 19 21 18 1 0 0 0 2
0 0 0 0 0 0 0 1 2 3 3 4 3 3 2 3
4 4 5 7 9 9 5 3 44 6 6 8 7 6 7 11
13 9 8 7 7 10 9 9 8 8 7 6 4 3 2 6
7 6 4 5 8 8 7 8 9 8 6 8 10 6 9 9
6 15 51 51 51 51 50 50 50 51 50 51 51 48 40 40
22 24 26 28 29 30 30 29 28 28 29 32 36 37 34 33
34 34 32 30 34 34 35 37 37 26 26 27 5 5 20 35
21 11 13 23 31 23 15 1 0 1 5 2 0 1 0 6
6 0 0 0 0 0 0 0 0 0 1 1 2 2 3 4
5 6 7 8 6 3 4 12 46 3 6 6 6 7 9 12
8 7 6 6 7 8 10 9 8 8 6 6 5 4 4 6
6 3 4 6 8 9 7 8 7 5 4 7 9 5 9 9
6 4 34 51 50 50 50 50 50 50 51 51 51 48 41 40
23 24 25 27 28 29 29 29 29 29 30 32 36 36 34 34
35 35 33 31 34 34 35 36 26 39 30 16 1 4 13 39
39 21 19 23 19 18 13 6 6 1 6 5 0 3 4 3
5 0 0 0 0 0 2 1 1 1 2 3 4 4 5 6
7 7 4 4 5 6 6 42 16 7 7 8 8 11 12 11
7 6 6 6 6 8 8 5 5 4 4 5 5 5 6 4
5 4 3 4 8 9 8 8 7 3 3 8 7 4 9 8
6 5 11 49 50 49 50 49 49 50 50 50 50 49 41 39
21 22 24 27 28 28 29 30 30 30 30 33 37 37 35 34
35 35 34 32 34 35 34 28 26 18 4 8 12 1 1 17
48 43 35 32 33 28 16 7 2 2 5 3 0 1 5 10
19 0 0 0 0 0 3 4 4 6 6 7 6 6 8 6
5 3 6 8 6 5 7 52 6 9 10 8 11 11 10 8
7 7 7 7 8 9 7 6 6 7 7 5 5 6 6 8
4 3 3 6 8 8 8 8 5 2 4 9 5 5 7 8
7 6 5 31 51 49 50 50 50 50 50 50 50 49 41 38
17 16 23 27 27 28 29 28 29 29 31 33 38 38 36 35
36 35 35 34 34 34 28 8 5 1 3 5 6 16 6 1
9 33 43 41 37 30 21 10 1 1 3 3 1 1 6 9
26 0 0 0 0 0 1 4 6 6 5 7 5 5 3 3
5 6 6 6 5 7 29 18 10 8 10 10 10 11 9 8
8 7 8 9 9 9 7 7 7 7 7 4 8 7 6 8
5 4 5 6 8 9 8 8 4 2 4 9 3 5 7 7
7 6 5 10 48 50 50 50 50 50 50 49 49 49 42 38
20 22 22 27 27 28 28 29 29 29 30 33 38 37 36 35
34 34 34 34 34 32 8 3 4 0 2 3 1 3 15 15
7 5 23 26 14 8 6 6 1 3 4 3 1 0 2 7
44 3 0 0 0 0 0 0 1 1 3 3 4 4 5 5
5 5 6 7 9 12 55 8 10 12 11 9 9 8 9 8
9 9 9 9 9 9 9 8 8 8 8 4 7 8 7 8
6 4 5 5 8 8 8 6 3 3 5 8 3 6 5 6
6 5 6 4 27 50 49 49 49 49 49 50 49 49 42 38
19 22 23 25 27 27 27 28 29 29 30 34 38 37 37 36
35 34 35 35 35 21 2 3 2 1 2 6 6 5 1 3
8 7 7 19 21 11 5 3 2 3 3 4 4 2 1 4
51 6 6 5 2 0 0 0 1 1 1 1 1 2 3 5
7 8 10 11 11 30 39 12 12 10 10 10 10 10 10 9
10 10 9 10 10 9 9 8 7 8 7 6 8 7 9 8
7 7 5 6 7 9 8 6 3 2 5 8 3 5 5 7
7 7 7 6 7 44 49 49 49 49 49 49 49 49 43 38
18 22 24 26 27 28 29 30 31 32 33 35 37 37 37 36
35 34 34 35 35 7 5 5 2 0 1 5 4 5 4 2
2 3 4 5 7 9 8 6 5 4 5 4 3 3 2 1
35 17 5 8 8 7 3 2 4 3 3 4 6 6 7 8
8 9 9 10 11 55 13 9 9 9 11 10 10 10 10 10
10 11 10 9 10 10 9 9 10 8 5 6 9 7 8 9
8 6 4 5 6 7 8 5 2 1 6 7 1 5 5 8
6 7 7 6 4 25 50 49 49 49 49 49 49 49 43 38
20 24 27 29 30 32 33 34 34 35 36 36 36 36 36 36
35 34 33 35 25 3 5 7 5 0 1 6 6 6 6 5
3 4 5 4 2 7 7 5 5 5 5 6 4 5 5 4
7 35 4 5 6 7 8 8 8 7 8 7 8 8 8 7
9 8 7 7 16 36 6 9 10 10 9 9 11 10 10 9
10 10 9 10 10 9 8 7 7 7 6 7 9 8 8 8
8 6 4 4 5 7 7 6 1 1 5 6 1 3 5 8
5 5 7 6 5 6 42 49 49 49 49 49 49 48 44 38
20 22 25 29 29 32 34 34 35 36 36 36 35 36 35 35
34 33 32 33 10 2 5 6 6 0 0 5 6 7 8 6
6 5 6 7 4 6 7 7 6 5 5 6 6 6 6 6
2 43 6 1 2 3 5 6 6 6 6 6 6 7 6 5
4 4 5 6 30 9 9 10 10 9 10 9 10 10 9 9
9 8 9 10 9 9 8 7 7 6 6 7 8 9 8 8
7 6 5 2 4 6 7 7 2 2 6 3 0 2 6 7
5 6 6 6 4 3 23 48 48 48 49 49 49 48 45 37
13 13 17 31 25 30 33 35 35 36 36 36 36 35 36 35
35 34 33 26 0 2 5 5 5 1 0 5 8 8 8 7
6 5 6 6 6 5 6 7 5 3 5 4 7 7 6 7
4 31 28 1 1 1 1 1 2 1 2 2 2 3 4 4
5 7 8 15 38 9 11 11 12 11 10 9 10 10 10 9
9 8 9 9 8 8 8 7 8 7 7 7 8 8 9 8
8 8 6 4 4 6 6 6 3 1 6 1 0 2 7 7
5 6 7 6 5 4 4 43 48 48 48 48 47 48 44 37
6 7 12 32 27 27 30 31 32 33 34 35 35 35 35 35
35 34 33 13 0 3 5 5 6 3 0 5 8 8 5 5
6 5 4 6 5 5 5 6 5 5 4 5 6 7 7 8
5 5 60 7 6 5 3 3 4 5 5 6 6 6 6 7
8 8 10 38 16 10 11 10 12 11 10 9 10 10 10 9
9 10 10 9 9 9 8 7 7 6 6 6 8 9 8 7
7 7 6 4 1 5 5 3 3 2 7 0 0 4 8 5
5 7 7 6 4 4 1 22 48 47 47 47 48 48 45 38
