P2
128 120
153
40 39 39 39 38 37 37 36 36 35 35 34 34 34 33 33
32 31 31 30 30 30 29 29 28 28 27 26 26 26 25 25
24 24 24 22 21 20 18 17 16 18 21 21 23 24 20 15
26 29 26 24 24 24 22 21 19 17 15 15 14 14 19 19
18 20 15 19 22 22 23 24 25 25 25 26 26 26 26 27
27 27 28 29 29 29 30 30 30 31 32 31 32 32 33 33
34 36 36 36 36 37 37 38 38 39 39 39 40 40 41 40
40 41 41 41 41 41 41 41 42 41 41 42 42 42 42 42
40 40 39 39 38 37 37 36 36 36 35 34 34 34 33 32
32 32 31 30 30 30 29 29 28 28 27 27 27 26 25 25
25 25 24 23 22 21 19 18 18 19 22 23 24 26 20 14
26 30 27 26 25 25 23 23 22 20 18 17 16 15 19 20
20 18 21 22 24 24 25 25 26 26 26 26 27 27 28 27
28 29 29 29 30 31 31 31 31 31 31 31 33 34 34 35
36 36 37 37 37 38 38 38 39 39 39 39 39 39 41 41
41 41 41 41 41 41 41 41 41 42 42 42 42 42 42 42
40 40 40 39 39 38 37 37 36 36 36 35 35 34 33 32
32 32 31 30 30 30 29 29 29 28 28 28 27 26 26 26
25 25 24 24 22 22 21 19 19 20 25 26 27 27 21 13
26 30 28 27 25 24 23 23 22 20 21 21 18 15 18 21
21 20 22 24 25 26 26 27 28 27 27 28 28 28 29 29
29 29 30 30 30 31 31 31 32 32 34 34 35 36 36 36
37 37 37 38 38 38 38 39 39 40 40 40 40 41 42 41
41 41 41 41 41 41 41 42 42 42 42 42 42 43 42 41
40 39 40 39 38 38 38 37 37 36 35 35 34 34 34 34
33 32 32 31 31 30 30 29 29 28 28 28 28 27 26 26
26 25 25 24 24 23 21 20 21 22 26 27 28 28 21 13
26 31 29 28 27 26 25 24 24 21 23 23 20 16 16 22
20 22 23 26 26 27 27 28 29 28 28 30 30 30 30 30
30 30 31 31 31 32 32 33 34 34 34 35 35 36 36 36
37 37 37 38 38 39 39 39 39 39 40 41 41 41 42 41
42 42 42 42 42 42 42 42 42 43 42 41 41 41 41 42
40 40 39 39 39 38 38 36 37 37 36 36 35 35 34 34
33 33 32 32 31 31 30 29 29 29 28 28 27 27 26 26
26 26 25 24 24 24 23 22 22 24 28 29 30 29 22 14
26 32 27 27 27 26 26 25 24 21 23 24 22 18 16 23
21 23 26 27 27 28 28 29 30 30 29 30 30 31 31 31
30 31 32 32 32 33 33 34 35 35 35 35 36 38 37 38
38 38 38 38 38 39 39 39 40 39 40 40 41 41 43 40
41 42 42 42 42 42 41 41 41 42 42 43 43 44 43 42
41 40 39 39 39 37 37 37 37 36 35 35 35 34 34 33
33 32 32 32 31 31 30 30 30 29 28 28 28 28 28 27
27 26 25 25 25 24 24 23 22 24 29 29 29 29 22 14
25 32 29 28 28 28 27 26 25 23 24 24 23 19 17 22
22 25 26 28 28 29 29 30 30 30 30 30 30 31 31 32
32 32 33 33 33 33 34 34 35 35 35 36 37 38 37 38
38 38 39 39 38 39 40 40 39 40 40 41 40 40 43 40
41 41 41 41 40 41 41 42 42 42 42 42 42 42 43 43
41 40 40 40 39 38 38 37 37 37 36 36 36 35 34 34
34 33 32 32 32 31 31 30 29 29 29 29 29 28 28 28
27 27 26 26 25 25 25 25 25 27 31 30 31 30 24 15
24 32 29 29 28 28 27 27 25 25 25 25 25 21 19 24
24 27 29 29 29 29 30 30 30 30 31 31 32 32 33 33
33 33 34 34 34 34 34 35 35 35 36 36 38 38 37 38
38 39 40 39 40 40 40 40 41 41 41 41 41 41 41 39
39 40 41 42 42 42 42 43 42 42 43 43 42 43 43 42
41 40 40 39 39 39 38 38 37 37 37 36 35 35 34 34
34 33 32 33 32 31 32 31 30 30 29 29 29 28 28 27
28 27 26 26 26 25 25 25 26 27 31 31 32 31 24 18
23 33 30 29 30 29 28 28 27 26 26 25 25 22 20 24
25 28 29 30 30 30 30 30 32 32 32 33 32 33 32 33
33 34 35 34 35 35 35 36 36 37 36 37 37 39 38 38
38 39 40 39 39 39 40 40 41 41 41 40 40 40 41 42
42 42 42 42 41 42 42 43 42 43 43 43 43 42 43 43
40 40 40 39 39 39 38 38 38 37 37 37 36 36 35 35
34 34 33 33 32 32 31 31 30 30 30 30 29 29 28 29
28 27 27 26 26 26 26 26 27 28 32 32 32 32 25 20
22 34 31 30 30 29 29 28 29 29 27 26 26 25 21 25
26 29 29 29 30 31 31 31 33 32 32 33 34 34 34 34
35 34 35 35 35 36 36 36 36 37 37 38 38 39 38 39
39 40 40 40 40 37 39 39 40 39 40 42 42 42 41 41
42 42 42 42 42 42 43 44 43 43 43 43 43 43 43 43
41 40 40 39 40 39 39 38 37 37 37 36 36 35 35 34
34 34 33 33 33 33 32 32 31 31 30 30 30 29 29 28
28 28 27 27 26 26 26 27 28 29 32 32 33 32 25 21
22 33 32 30 30 30 30 30 28 28 27 27 26 25 23 26
27 30 31 31 32 32 33 33 33 33 33 33 34 34 34 34
35 35 35 35 35 36 36 36 37 37 37 38 39 40 39 40
40 40 40 39 40 41 40 41 42 42 41 42 42 42 41 42
42 42 43 43 43 43 43 43 42 43 43 44 44 44 43 44
41 41 40 40 39 39 39 39 39 39 37 37 37 36 35 35
35 34 34 33 33 33 32 32 31 31 31 31 30 30 29 29
29 29 29 28 27 28 27 28 29 30 33 33 33 34 26 22
21 34 31 30 29 30 30 30 29 30 28 28 28 27 26 28
29 31 32 32 33 33 34 33 34 34 34 34 34 35 35 35
36 36 36 37 36 36 37 37 38 38 38 39 39 40 40 38
38 39 39 41 41 41 42 41 41 42 42 42 42 42 42 42
43 44 43 43 43 43 43 43 43 43 43 44 44 44 44 43
41 41 41 40 40 39 39 39 38 38 37 37 37 37 36 36
35 35 35 34 34 33 33 33 33 32 32 31 30 30 30 29
29 28 28 28 28 28 27 28 29 30 34 34 34 34 28 23
19 32 32 30 30 31 31 30 29 30 28 29 28 27 25 28
30 32 32 33 33 34 34 34 34 35 35 35 36 36 35 36
36 36 37 37 37 37 37 38 38 39 39 38 37 37 38 39
41 40 41 41 42 42 43 42 42 42 42 43 43 43 43 43
43 43 43 43 43 43 43 43 44 44 44 44 44 44 45 43
42 41 41 40 40 40 39 39 39 38 38 38 37 37 36 36
36 35 35 34 34 34 33 33 33 32 32 31 31 31 31 30
30 30 29 29 29 28 28 28 30 31 35 34 35 34 27 20
14 30 34 32 33 32 32 31 31 32 29 30 29 29 26 30
31 33 34 33 33 34 34 34 35 35 36 35 36 37 36 36
37 37 37 37 38 38 39 38 37 37 37 39 40 40 40 41
42 41 41 42 43 42 43 42 43 42 43 44 43 43 43 43
43 43 44 44 44 43 44 44 44 43 44 44 44 44 45 43
42 42 41 41 41 40 40 39 39 38 39 38 37 38 37 37
36 35 35 35 35 34 34 34 33 33 33 33 32 32 31 31
31 30 30 30 29 29 28 29 31 32 36 36 36 36 28 23
21 33 35 33 34 33 33 32 31 32 30 31 31 30 27 32
33 34 34 34 35 36 36 35 36 36 36 36 37 37 36 37
37 38 38 38 38 38 37 38 39 41 41 40 41 41 42 41
42 42 42 42 43 43 45 43 43 43 43 43 43 43 43 43
43 44 43 43 44 44 44 44 44 44 44 44 45 45 45 45
42 41 42 41 41 40 40 40 40 39 39 38 38 38 37 37
36 36 36 35 35 34 34 33 33 32 32 32 32 31 31 32
31 31 30 30 30 30 29 30 31 32 35 36 36 36 28 25
24 32 36 34 34 33 33 32 32 33 31 31 31 30 28 32
33 35 35 35 35 36 36 36 36 36 37 37 37 38 37 37
37 38 38 39 38 39 39 39 39 40 40 40 40 41 41 41
42 42 43 42 43 43 44 43 43 43 44 44 44 44 43 44
44 44 43 43 44 44 44 44 44 44 45 45 45 44 45 44
42 42 41 41 41 41 41 40 40 40 39 39 39 38 38 37
37 36 36 36 36 36 35 34 34 34 34 33 33 33 32 32
31 31 31 30 30 30 30 31 32 33 37 37 37 36 29 26
27 32 36 35 35 34 33 33 32 34 31 31 31 31 28 33
34 36 36 36 36 36 37 37 37 37 37 37 37 37 38 37
38 38 39 39 40 40 40 40 40 40 41 41 42 42 42 42
43 43 43 43 43 43 44 44 44 44 44 43 44 44 44 44
44 44 45 44 44 45 45 45 45 45 46 45 45 44 44 45
42 42 42 41 41 41 40 40 40 40 39 39 39 38 38 37
37 37 36 36 36 36 35 35 34 34 34 33 33 33 32 32
32 31 31 30 30 30 30 31 32 33 37 37 37 37 29 26
29 31 37 36 35 35 34 34 33 34 32 33 33 32 28 34
34 36 36 36 37 37 37 37 37 37 37 36 37 38 37 39
39 39 39 40 40 41 40 40 41 41 41 40 42 42 42 42
43 43 43 43 44 44 45 44 44 44 44 44 44 44 44 44
44 44 44 45 46 45 45 44 43 44 44 44 45 45 45 44
42 42 42 41 41 41 40 40 40 40 39 39 39 38 38 38
37 37 37 36 36 35 35 34 35 34 34 33 33 33 33 32
32 32 31 31 31 31 31 31 32 33 37 37 37 37 29 26
31 28 36 35 35 35 34 34 34 35 33 33 33 32 29 34
35 37 37 36 37 37 37 36 37 37 37 37 38 38 38 39
39 39 39 40 40 40 41 40 41 41 42 42 42 42 42 43
43 43 43 43 44 44 45 43 44 44 44 44 45 44 45 45
44 44 44 44 44 44 44 45 45 45 44 45 45 45 45 46
42 42 42 41 41 41 40 40 40 39 39 38 38 38 38 37
37 36 37 36 36 36 35 35 34 34 34 34 33 33 32 33
32 32 32 31 31 31 31 31 32 33 37 38 38 37 29 27
32 27 37 36 36 35 35 34 34 35 33 33 33 32 30 34
35 36 36 36 37 37 37 37 38 38 39 38 38 38 38 39
39 39 39 41 41 41 41 41 41 41 42 42 42 42 42 42
43 43 44 44 44 44 45 44 44 44 45 45 45 45 44 43
43 43 44 45 45 44 44 44 45 44 44 44 44 44 44 45
42 42 41 41 41 40 40 40 40 40 40 39 39 39 38 38
38 37 37 36 36 36 35 35 35 34 35 34 34 33 34 33
32 32 32 31 32 31 31 32 33 35 39 39 38 38 31 27
34 28 37 37 36 35 35 35 35 36 34 34 34 34 30 34
32 37 37 37 38 38 39 38 38 38 39 39 39 39 39 39
40 40 40 40 41 41 41 41 41 42 42 43 42 43 43 43
43 43 44 43 44 44 45 44 44 44 43 43 43 43 44 44
45 43 45 44 44 45 44 44 44 45 44 45 44 44 44 44
42 42 41 41 41 41 41 40 40 40 39 38 39 38 38 38
38 37 37 37 37 36 36 36 36 35 35 34 34 34 34 33
33 32 32 32 32 31 31 32 33 34 39 38 38 38 31 27
35 27 37 37 37 36 36 36 35 37 33 34 35 33 30 36
35 38 38 38 38 38 39 39 39 39 39 39 39 39 40 39
41 40 41 41 40 41 42 42 41 42 42 42 42 43 44 44
43 44 44 43 44 43 42 42 43 43 44 44 45 44 45 45
44 44 44 43 44 44 44 44 44 45 44 44 44 44 44 44
41 41 41 41 41 40 41 40 40 40 40 40 39 38 39 38
38 37 37 37 37 36 36 36 35 35 35 35 35 34 34 34
34 33 33 32 32 32 32 32 33 35 39 39 39 38 31 27
36 27 37 37 37 36 35 36 36 37 34 34 35 34 31 37
36 39 39 39 39 39 40 38 39 38 39 40 40 39 40 40
40 40 41 41 42 41 42 42 42 43 43 43 43 44 44 44
44 43 43 43 43 43 44 44 45 45 45 45 45 44 45 47
44 44 45 44 45 44 45 44 44 45 45 44 44 44 44 45
42 42 42 42 41 41 41 40 40 40 39 39 39 39 39 38
38 38 38 37 37 37 37 36 36 35 35 35 35 34 34 33
34 33 33 33 33 32 32 32 34 35 39 38 39 39 32 28
37 29 37 37 37 37 36 35 36 37 34 35 35 34 32 37
36 39 38 40 39 39 40 39 40 40 40 40 39 39 40 40
40 41 41 41 41 42 42 42 42 43 43 43 43 43 43 43
43 43 44 45 45 44 45 44 45 44 45 45 45 45 45 46
44 44 44 44 44 44 45 45 44 45 44 44 44 44 43 43
41 41 41 41 41 41 41 40 40 40 40 39 40 39 38 39
38 37 37 37 37 36 36 36 36 35 35 35 35 35 34 34
34 34 33 33 33 32 33 32 34 35 39 39 39 39 32 28
37 30 35 36 37 37 37 36 36 37 35 35 35 35 32 39
36 39 39 39 41 41 42 42 41 40 42 40 40 40 40 40
41 42 42 41 42 42 42 42 43 42 42 42 43 43 44 44
45 45 45 45 45 45 45 45 45 45 45 44 45 45 45 46
45 44 45 43 44 45 44 44 45 45 44 44 44 44 44 44
42 41 41 42 42 41 41 40 40 39 40 39 40 39 38 39
38 38 38 38 38 38 38 37 36 36 36 35 35 35 35 34
34 33 34 33 34 33 33 34 35 35 40 40 40 40 33 28
37 31 35 38 38 37 37 37 37 37 36 35 36 35 31 32
33 39 39 39 42 41 44 42 43 43 43 47 46 42 41 42
41 42 42 42 42 43 42 42 42 42 43 44 44 44 45 45
45 46 46 46 45 45 45 45 46 45 45 45 45 45 45 46
44 44 45 44 44 44 44 44 45 45 45 45 45 45 45 44
43 42 42 42 42 41 41 41 41 40 40 40 40 40 39 39
38 39 38 38 38 38 37 37 37 37 37 36 36 36 36 35
35 34 35 34 34 33 34 34 35 36 40 41 41 40 33 28
39 34 34 39 38 38 38 38 38 35 38 42 47 33 27 23
19 20 33 39 42 41 41 44 43 43 43 43 44 49 47 42
42 43 42 42 42 43 42 43 43 43 44 44 44 44 46 45
46 46 46 45 46 46 46 45 46 45 46 46 46 45 45 47
45 44 45 45 45 45 45 45 45 45 45 44 45 45 45 44
42 42 42 42 42 42 42 41 41 41 41 40 40 40 40 40
40 40 39 39 39 38 38 37 38 37 37 36 36 36 35 36
35 34 35 34 34 34 34 34 35 37 41 42 41 40 33 29
39 36 33 39 38 39 39 39 43 53 55 54 38 26 19 16
14 11 19 36 38 39 41 43 43 42 43 42 42 41 46 49
42 43 43 43 43 43 43 43 44 44 44 44 45 45 46 46
45 46 46 46 46 46 46 45 46 45 46 46 46 45 45 46
45 45 46 46 45 44 45 45 45 46 45 45 45 46 45 45
42 41 42 42 42 42 41 41 41 40 41 40 40 40 40 40
39 39 39 38 38 38 38 37 37 37 37 37 36 36 36 36
35 35 35 34 34 34 34 35 35 37 41 41 42 40 34 29
40 39 33 42 42 40 41 46 62 59 50 39 24 12 5 0
0 3 8 20 24 26 33 41 44 40 42 41 42 42 43 46
47 43 43 43 43 44 44 44 44 44 45 45 45 45 47 46
46 46 45 46 46 46 46 46 45 45 45 45 46 45 45 46
46 46 46 46 45 45 44 45 45 45 45 45 44 43 43 43
42 42 42 42 42 41 42 41 42 42 41 41 41 40 40 40
40 40 39 39 39 39 39 38 38 37 37 37 37 37 37 36
36 35 35 35 35 35 35 36 37 37 42 42 42 42 35 30
40 41 37 51 45 44 40 56 61 51 31 12 3 3 3 0
0 1 5 11 15 21 26 33 45 44 43 44 44 44 44 42
47 45 43 43 43 44 44 44 45 45 45 46 46 47 47 46
46 46 46 46 46 46 46 46 46 46 46 46 46 45 46 46
46 45 45 46 45 46 45 45 44 42 44 45 46 46 46 45
43 43 43 42 42 42 42 42 42 42 41 41 41 40 41 41
40 40 40 40 39 39 39 38 38 38 38 37 37 37 37 37
36 36 36 36 36 35 35 36 36 37 42 43 43 42 37 36
55 65 59 50 40 42 51 45 42 15 2 0 1 2 8 5
8 9 9 10 11 16 14 26 36 49 51 43 43 44 45 42
43 48 43 44 44 44 45 45 45 45 45 45 46 46 47 46
46 47 47 47 47 47 46 46 46 46 46 46 47 46 47 47
46 45 45 45 44 44 45 45 46 47 45 43 45 45 44 43
42 43 43 42 42 43 43 42 42 42 42 41 42 41 41 40
40 40 40 39 39 39 40 38 38 38 38 37 38 37 37 37
36 36 36 36 36 36 36 36 37 38 42 43 43 43 47 65
77 69 48 34 37 38 34 48 37 11 0 3 4 2 0 7
14 22 24 9 1 8 24 26 41 37 46 50 45 46 49 47
44 45 41 43 44 45 45 45 46 46 46 46 47 47 47 47
47 47 47 47 46 46 46 46 47 47 46 47 47 46 45 44
43 44 45 46 46 43 44 45 46 47 44 44 44 43 44 44
43 43 43 42 43 43 42 42 42 41 42 41 41 41 41 41
41 40 40 40 40 39 39 39 39 38 39 38 38 38 38 38
37 37 36 35 36 36 36 36 37 38 43 43 43 51 56 69
61 46 32 30 28 33 47 59 30 6 6 7 7 13 20 29
33 30 26 30 20 8 19 30 18 41 41 53 44 45 46 47
47 46 40 43 44 45 46 45 46 46 46 46 47 46 48 47
47 47 47 47 48 47 47 46 46 44 44 43 44 44 45 46
46 46 46 45 46 45 45 45 45 47 44 44 44 44 45 45
42 43 42 43 43 43 42 42 42 42 42 42 42 42 41 41
40 40 41 40 39 40 39 39 39 39 39 39 38 38 37 37
37 37 37 37 36 36 36 37 38 38 43 43 46 56 61 52
42 43 34 28 27 35 61 48 27 26 34 41 52 74 90 97
99 76 51 38 38 35 15 25 38 29 36 27 47 41 46 48
44 50 46 38 45 45 45 45 46 47 47 47 47 47 48 46
47 46 47 47 47 46 46 45 45 46 46 46 46 46 46 46
45 45 45 45 45 46 45 45 45 46 44 44 44 44 45 45
44 44 43 43 42 42 42 42 41 42 42 41 42 41 41 41
41 41 40 40 39 40 39 39 38 39 39 38 38 38 38 38
37 37 37 37 36 36 36 36 37 38 43 44 50 52 44 38
52 50 42 32 28 53 58 48 46 62 83 100 119 119 113 108
111 115 95 61 60 57 57 46 37 40 41 34 31 27 30 43
45 47 51 36 45 44 45 45 46 46 46 46 46 46 46 45
45 45 45 46 46 45 45 47 45 46 45 46 46 45 45 45
45 44 45 45 45 45 45 44 44 46 44 43 44 44 44 44
43 43 43 41 41 43 43 43 42 43 42 43 42 42 41 42
41 41 40 40 40 40 39 42 42 41 39 39 39 38 38 37
37 37 37 36 36 37 37 37 38 39 44 44 49 42 37 48
73 50 47 29 45 56 48 62 74 94 112 128 142 143 133 121
116 114 113 101 89 71 59 62 59 45 45 51 24 24 26 25
46 43 46 39 42 45 45 45 46 45 46 46 45 45 45 44
45 45 45 45 44 45 45 46 45 45 45 45 45 45 46 45
45 44 45 44 45 45 44 45 44 45 44 44 43 44 44 44
43 43 42 45 53 50 48 46 44 43 41 41 42 42 42 42
41 41 40 40 41 40 42 54 55 51 46 44 42 39 38 38
38 38 37 37 36 37 37 37 38 39 44 45 48 39 37 73
63 56 45 48 51 40 63 91 108 112 127 139 145 145 145 142
132 118 112 104 124 108 97 67 52 64 51 43 40 21 25 29
35 45 43 40 41 45 45 45 46 46 46 46 45 44 46 46
46 45 46 45 46 45 45 47 46 45 46 45 45 45 45 45
46 45 44 44 44 45 44 45 44 45 44 44 44 44 43 44
43 43 42 47 57 55 54 52 49 47 47 44 43 42 42 41
41 40 40 40 41 40 43 54 53 51 50 50 49 44 39 38
38 37 38 38 38 37 37 38 38 39 43 46 46 36 39 42
39 45 39 37 38 57 78 112 118 121 131 137 140 141 141 143
144 139 124 102 102 118 108 95 55 52 48 32 45 28 12 28
37 38 37 39 44 45 45 45 44 45 46 45 45 45 45 45
45 45 45 45 45 45 44 46 45 45 46 45 45 44 45 44
45 45 44 45 44 45 45 44 44 43 44 44 44 44 44 43
44 43 43 48 57 56 54 51 51 50 53 55 47 48 46 44
42 40 40 41 40 40 43 52 52 50 49 50 50 47 39 38
38 38 38 38 38 37 38 38 39 39 44 41 39 32 30 28
29 28 27 34 59 69 100 109 111 123 130 137 142 145 146 146
144 143 140 127 105 104 105 103 74 61 60 46 44 37 10 14
35 40 33 44 44 45 47 45 45 45 45 45 46 45 45 46
45 45 46 45 45 45 45 47 47 46 45 45 46 45 45 45
45 45 45 44 44 45 45 44 44 44 45 45 44 44 43 44
46 45 45 48 49 49 52 52 53 55 57 56 49 48 51 51
48 45 44 43 42 41 42 38 31 35 40 46 49 49 41 39
38 38 38 38 38 38 38 38 38 39 43 26 36 32 18 14
10 13 27 52 69 79 108 109 130 139 144 145 147 147 147 146
146 145 143 134 120 107 113 97 88 64 63 53 43 36 6 5
17 36 26 41 44 45 47 46 45 45 46 46 46 46 46 45
46 45 45 45 45 45 45 47 46 46 45 46 45 45 44 45
46 45 44 45 44 45 45 45 45 46 45 44 44 45 45 44
44 49 51 54 20 5 17 37 46 51 54 55 40 10 18 29
38 45 45 49 50 47 44 35 19 17 18 17 18 29 42 40
39 39 38 38 39 38 38 38 40 40 42 22 38 25 16 9
8 21 59 72 81 82 109 139 148 148 148 148 147 148 147 147
147 147 147 146 140 126 113 109 96 74 67 57 49 40 10 14
22 34 21 33 44 45 46 45 46 46 47 46 47 46 46 46
46 46 46 46 46 45 46 46 47 46 45 45 44 45 44 45
45 44 45 45 45 45 46 45 46 46 45 46 46 45 45 44
42 46 55 59 20 0 0 13 22 23 25 40 37 0 0 0
2 8 17 25 35 42 46 35 14 10 14 16 3 13 44 41
40 40 40 39 39 40 40 39 40 41 40 40 47 28 26 39
8 43 75 82 74 109 142 147 148 148 148 148 148 148 148 148
148 147 142 144 145 134 132 122 100 71 59 55 46 39 13 20
34 39 24 19 44 47 47 46 45 46 47 47 46 47 46 47
47 46 47 46 46 47 46 47 47 47 45 46 45 45 46 46
46 46 47 46 46 46 46 47 47 45 44 43 44 44 45 44
49 53 57 60 21 0 0 9 15 18 19 34 38 0 0 0
0 0 1 0 1 8 44 34 9 5 2 11 2 14 46 41
41 40 41 40 41 40 40 40 41 41 40 44 37 34 35 68
23 55 73 73 98 120 115 107 116 134 145 149 149 149 149 149
142 130 113 99 97 114 114 117 119 87 57 46 37 33 16 19
33 38 25 13 43 47 48 49 47 48 47 48 47 48 48 48
47 47 47 47 47 47 47 49 48 48 47 46 47 47 47 47
48 47 48 47 48 47 47 47 47 47 47 47 47 46 46 45
8 19 32 44 24 0 0 7 7 9 11 33 40 5 0 0
0 0 1 0 0 4 45 31 4 0 0 9 1 15 48 42
42 42 41 41 41 41 41 41 41 42 46 48 30 43 45 81
31 67 82 89 89 68 68 77 93 114 137 150 150 149 149 149
131 123 107 91 82 77 84 91 96 107 70 45 40 36 19 17
26 32 18 21 44 47 48 49 49 49 49 49 48 49 49 49
48 48 49 49 49 48 48 49 48 48 48 48 48 48 48 48
48 48 48 49 49 49 48 48 48 48 47 47 47 48 46 46
0 0 0 9 21 0 0 0 0 0 7 27 36 0 0 0
0 2 1 0 0 2 44 24 0 0 0 3 3 16 49 42
42 42 42 42 42 41 42 42 43 43 47 34 23 53 54 66
32 68 71 76 69 81 81 85 92 107 123 147 148 144 149 149
136 123 119 107 92 80 91 101 101 94 90 44 36 44 20 12
25 21 20 16 35 48 49 49 48 49 49 49 49 49 49 49
49 49 49 49 49 49 48 49 48 48 49 48 49 49 47 48
48 48 49 49 48 48 48 48 48 47 47 47 47 48 48 46
0 0 0 5 19 0 0 0 0 0 3 33 38 0 0 0
0 15 12 1 0 1 43 23 0 0 0 1 1 15 51 42
42 41 42 42 41 41 41 42 43 43 45 22 14 43 50 52
39 72 100 119 119 117 112 123 126 121 123 132 127 124 138 147
145 143 144 142 126 115 126 139 137 123 93 57 32 39 23 11
22 11 5 12 23 47 49 47 47 48 48 48 48 48 49 49
49 49 49 48 48 48 47 48 49 49 49 49 48 48 48 48
47 48 48 48 48 47 48 47 47 47 47 48 48 47 48 48
0 0 0 4 17 0 0 0 0 0 2 33 42 0 0 0
3 18 20 14 7 1 41 21 0 0 0 0 0 10 50 42
42 42 41 42 41 43 41 41 43 42 35 11 8 22 55 37
51 99 121 94 78 85 82 101 137 142 122 112 110 117 117 134
145 149 147 118 71 70 72 92 146 147 126 80 39 28 28 18
19 7 5 19 32 48 48 49 48 48 49 49 49 49 49 48
49 49 49 48 49 48 48 49 49 48 48 48 48 47 47 46
48 49 49 48 48 48 48 48 49 48 48 48 48 48 47 48
17 3 0 3 16 0 2 0 0 0 2 29 44 0 0 0
6 19 21 20 18 3 39 23 0 0 0 0 0 8 51 42
42 42 41 41 41 42 40 40 44 40 27 15 10 15 40 29
79 116 91 82 96 82 97 94 94 130 115 113 120 118 113 121
135 148 124 83 99 85 96 87 87 139 145 102 58 36 32 24
27 10 6 25 39 47 48 49 48 48 49 49 49 49 49 49
49 49 48 48 49 49 48 48 49 47 48 48 47 47 47 47
47 48 49 48 49 49 49 49 48 48 47 45 45 46 47 48
8 1 0 3 16 0 2 0 0 0 7 30 45 1 0 0
5 18 20 19 18 4 37 26 0 0 0 0 0 6 50 43
42 41 41 41 41 41 42 40 39 36 24 13 14 23 30 34
102 119 85 118 89 44 88 135 108 96 120 148 147 144 121 115
128 129 117 130 99 40 83 123 90 116 149 123 77 67 34 25
27 20 5 22 38 43 47 48 48 48 48 48 49 49 49 51
49 49 48 48 47 48 48 48 48 47 47 47 47 47 48 47
47 48 49 48 48 47 48 46 43 42 42 42 42 41 37 34
6 3 0 3 16 0 0 0 0 0 13 34 48 2 0 5
2 4 13 19 17 2 35 45 30 20 11 5 3 9 49 42
42 42 42 41 41 41 43 47 49 50 38 24 15 24 21 47
115 108 83 101 101 109 128 129 94 95 128 150 149 148 138 114
116 115 126 129 119 103 104 128 115 100 146 132 89 83 60 23
21 23 12 26 34 42 48 48 47 47 48 49 48 48 49 50
48 49 49 49 49 49 48 48 49 48 48 48 47 47 45 46
47 47 44 45 44 43 43 40 36 33 30 26 23 22 21 21
0 1 0 5 30 12 7 8 4 0 5 33 59 36 27 22
16 5 2 7 12 1 32 55 55 50 49 48 48 49 55 41
42 41 41 41 41 41 41 43 46 42 33 25 23 18 22 69
114 87 85 113 133 132 111 85 80 103 116 148 149 146 137 123
113 104 100 117 133 137 136 122 102 93 136 136 102 97 89 38
34 18 9 31 40 44 48 47 48 48 49 49 49 49 49 49
48 48 48 47 47 48 47 46 46 45 44 46 45 44 44 44
44 41 38 34 30 26 24 23 22 22 23 19 24 26 27 27
0 0 0 5 53 56 44 41 38 31 19 35 63 36 37 40
42 40 36 30 27 22 41 56 55 52 52 55 61 62 59 42
42 42 41 41 41 41 40 41 41 40 34 11 31 17 43 83
111 88 108 128 135 117 98 89 90 105 79 133 149 123 114 135
116 104 105 122 140 146 147 138 121 103 121 133 108 98 97 45
34 23 10 29 44 45 47 47 48 48 48 48 48 48 48 49
47 47 45 44 44 44 46 45 45 44 42 40 37 34 30 27
25 24 24 23 24 25 26 28 29 29 30 20 18 32 32 33
0 0 0 6 57 59 50 57 58 63 60 60 58 22 19 21
22 23 26 29 33 40 47 43 43 47 50 54 59 60 58 43
42 42 42 42 42 41 38 35 35 37 37 18 32 16 57 87
98 102 123 132 128 106 97 98 110 84 36 108 142 90 39 122
136 117 114 130 145 146 147 148 143 130 113 126 112 100 97 50
35 26 9 31 39 46 48 47 47 48 48 48 47 48 47 47
46 46 47 47 42 42 38 34 32 28 26 25 26 26 27 28
28 29 31 31 31 31 32 30 31 35 36 33 13 36 37 37
1 0 0 6 57 50 52 59 62 66 63 52 44 23 20 20
20 20 19 18 17 16 17 18 20 25 30 42 42 39 41 41
42 42 42 43 43 45 42 40 37 37 24 13 24 23 66 92
96 114 124 133 121 106 105 106 131 74 59 115 134 121 45 78
146 133 124 139 147 148 148 145 144 139 124 119 116 103 96 58
33 31 9 29 35 44 48 47 48 50 48 47 47 46 45 42
38 35 41 47 30 26 26 28 28 28 29 31 31 31 32 33
34 35 36 37 37 37 39 35 28 34 40 40 19 31 40 37
42 33 24 25 53 42 52 58 61 65 65 56 46 27 22 21
19 18 16 16 15 15 15 15 16 16 19 39 40 40 38 41
43 42 42 42 45 43 41 41 38 36 19 10 17 29 74 94
109 118 127 131 128 126 113 118 144 99 98 127 147 138 84 77
147 140 139 143 143 145 146 146 141 133 129 124 119 106 97 62
38 39 4 28 37 43 46 46 45 42 39 36 33 30 29 29
28 27 33 46 28 28 31 34 34 35 35 36 37 37 39 39
39 40 40 41 41 40 40 41 40 29 36 41 34 19 42 39
57 57 57 59 52 27 37 47 51 58 60 54 50 31 23 20
17 15 15 15 16 16 17 17 18 18 23 39 17 23 42 41
43 41 39 43 43 41 42 41 40 34 12 8 17 37 82 103
115 124 128 133 142 144 136 129 139 141 139 142 148 146 148 141
148 138 147 148 147 147 146 146 146 136 130 123 116 106 98 61
42 36 2 23 38 35 38 33 32 30 29 30 31 32 32 33
34 34 33 41 29 33 36 38 39 40 40 40 41 42 42 42
41 40 41 42 42 41 40 42 44 43 29 33 39 14 37 42
59 59 59 61 46 4 3 6 12 20 28 31 46 32 20 18
11 3 4 5 14 20 19 17 19 22 25 42 40 38 50 49
48 36 18 38 42 42 42 40 29 21 7 5 20 48 92 109
119 126 136 145 149 149 148 129 117 121 135 149 149 149 147 146
143 133 148 148 148 148 147 147 145 141 137 131 116 107 99 58
43 35 6 18 37 32 34 36 33 34 35 36 37 38 38 39
40 39 38 47 33 37 41 42 42 43 42 43 43 43 43 44
44 44 44 42 42 43 42 42 44 44 43 29 34 22 27 42
53 55 57 61 42 1 0 0 0 1 11 21 48 32 19 18
9 0 0 0 6 11 11 5 8 14 17 42 52 43 43 45
48 47 39 41 41 42 40 36 31 24 9 5 26 57 98 113
122 136 146 149 150 150 149 143 115 114 143 150 149 149 147 135
129 144 149 149 148 148 148 148 147 140 137 136 122 107 98 58
54 36 8 21 38 34 35 40 39 40 42 42 43 43 43 44
43 42 34 31 26 39 43 44 44 44 45 45 45 45 45 45
44 45 45 45 43 42 43 42 44 45 45 42 29 27 10 22
42 41 46 55 38 0 0 0 0 2 0 11 51 31 18 16
9 0 0 7 2 1 2 0 0 3 9 41 52 36 34 32
34 40 42 42 41 42 39 29 24 18 5 4 33 65 101 114
127 143 150 150 150 150 150 144 128 130 148 149 149 149 149 147
147 148 148 148 148 148 148 147 148 147 137 134 127 108 98 58
44 19 10 26 20 16 30 44 45 42 44 44 45 45 44 45
44 43 23 12 11 38 45 47 47 46 45 45 46 46 46 46
46 46 45 46 44 43 42 42 43 44 46 44 41 25 7 1
40 37 44 55 37 0 0 0 0 2 0 3 50 24 13 4
0 0 1 14 10 4 3 0 0 0 5 40 54 37 27 41
40 36 39 41 44 40 34 28 24 11 0 7 32 73 100 113
130 146 150 150 150 150 148 134 124 134 147 149 148 149 148 147
147 148 148 148 148 148 148 148 148 147 144 134 127 110 98 63
37 15 3 15 8 5 12 33 48 46 44 45 47 46 44 40
37 43 22 15 8 36 45 46 47 46 46 46 46 46 46 46
46 46 45 45 45 45 43 43 41 43 45 45 42 38 17 0
42 43 49 55 35 0 0 0 0 0 0 5 52 13 0 0
0 0 1 10 17 11 3 0 0 0 4 40 54 35 20 38
36 34 40 41 38 36 30 30 21 2 0 7 36 79 102 114
134 149 150 150 149 147 133 123 129 140 143 144 147 148 149 146
145 146 148 148 148 148 148 148 148 148 146 135 125 112 98 64
33 14 1 5 2 0 5 14 35 46 45 46 48 28 12 6
10 39 18 10 7 34 44 46 48 47 46 46 46 46 46 46
46 46 46 46 44 44 44 42 40 41 42 43 40 41 34 0
20 27 36 42 33 0 0 0 0 0 0 7 53 14 0 0
0 0 2 7 21 18 13 4 0 1 4 40 55 38 18 29
28 27 37 37 41 36 35 29 14 0 0 8 36 82 102 114
134 149 150 150 149 143 133 129 138 140 134 135 141 145 147 149
147 146 148 148 148 149 148 148 149 149 148 135 125 112 96 71
29 14 1 3 0 0 4 11 20 42 46 48 47 30 22 28
35 41 21 2 5 34 44 46 47 46 46 46 47 46 46 46
45 46 46 46 45 45 45 45 42 39 39 39 39 43 37 2
0 0 0 3 25 0 0 0 0 0 0 8 52 11 0 0
0 0 9 19 22 20 21 5 0 1 5 39 56 41 29 33
30 30 38 42 40 41 33 25 7 0 0 8 35 80 101 113
130 145 149 149 147 144 133 127 123 118 117 118 120 125 127 141
144 147 148 148 148 148 149 148 148 148 147 129 125 111 96 72
28 20 3 2 1 0 3 8 15 33 47 48 50 47 47 46
46 44 26 6 8 33 44 46 47 47 47 46 46 46 46 46
47 46 46 45 45 44 45 45 45 43 39 40 41 44 39 4
0 0 0 0 23 0 0 0 8 2 0 5 50 8 0 0
0 0 10 23 28 18 13 4 0 3 6 37 55 43 35 26
11 25 45 43 47 41 33 23 4 0 0 7 30 76 99 110
126 142 143 147 149 145 129 112 111 121 126 126 130 132 124 119
123 133 148 148 148 148 148 148 149 148 148 133 128 112 94 70
37 28 21 4 2 3 6 9 18 28 48 48 47 48 47 47
44 43 34 4 6 35 45 46 47 46 47 46 46 46 46 46
45 45 45 45 44 44 45 45 44 44 39 39 42 44 41 5
4 0 0 0 22 0 0 9 22 11 0 6 49 7 0 0
0 0 3 6 24 6 0 0 1 2 4 34 55 44 33 21
15 38 47 44 46 39 31 20 5 0 0 8 33 73 96 108
122 133 141 147 149 136 103 100 121 136 143 144 145 143 141 130
113 111 137 149 148 148 148 148 148 148 148 140 129 109 93 71
51 33 39 28 27 22 19 20 25 30 46 47 49 47 47 46
45 43 37 13 17 39 45 47 47 48 46 46 45 45 45 45
45 45 45 45 45 45 44 44 44 44 40 39 41 44 42 5
19 5 1 0 22 0 0 19 23 16 3 5 48 5 2 0
0 0 1 0 22 6 0 0 0 0 0 30 55 42 23 15
20 50 47 46 41 42 28 20 7 0 0 28 54 71 93 109
118 126 141 150 146 109 101 128 144 149 149 149 149 149 149 148
142 120 111 133 149 148 148 148 148 148 147 141 128 103 91 76
73 63 57 45 8 5 6 14 22 31 45 49 47 48 47 46
44 42 37 33 33 42 46 46 47 47 46 47 46 45 46 46
46 46 46 45 45 45 45 45 44 44 40 36 33 38 35 7
28 10 4 0 29 19 17 28 26 24 13 10 48 5 2 0
0 0 0 0 21 10 0 0 0 0 0 25 55 37 20 19
26 50 45 39 43 45 29 23 10 3 1 39 62 74 89 110
113 123 146 150 144 120 124 139 146 149 149 149 149 149 149 148
148 147 141 137 148 148 148 147 147 147 148 141 124 100 89 82
80 70 55 41 13 5 7 17 26 34 43 46 49 47 47 47
45 42 39 39 41 45 47 47 47 47 46 46 45 45 45 46
46 46 46 46 46 45 46 46 45 45 40 36 32 28 35 11
15 7 3 0 38 50 49 53 51 50 51 51 54 7 0 1
0 0 0 1 23 11 3 3 2 0 0 18 55 34 20 16
39 48 39 39 53 43 34 22 11 6 7 35 84 80 85 108
109 128 148 149 134 129 138 147 150 149 149 149 150 149 149 148
148 147 143 146 148 148 148 148 146 146 147 142 120 97 88 89
85 97 58 32 35 16 16 24 36 38 46 45 49 49 47 46
45 43 41 42 45 47 47 46 46 47 46 47 47 46 47 46
46 45 46 45 45 45 45 44 44 44 41 38 39 41 42 13
1 1 0 0 36 50 51 55 54 54 60 64 59 27 16 22
10 6 4 7 25 16 7 6 4 1 0 13 48 35 16 16
43 39 33 54 58 45 39 18 12 4 6 28 74 82 82 105
107 130 149 145 134 135 143 149 149 149 149 148 149 149 149 149
149 149 148 148 148 149 148 148 145 145 147 141 116 94 84 94
92 111 48 24 28 38 24 28 45 44 48 46 47 48 46 45
45 44 44 44 46 47 47 47 47 47 47 46 46 46 46 45
46 46 46 46 45 45 46 44 43 44 40 37 38 40 40 15
1 0 0 0 34 50 51 53 53 55 63 65 63 45 43 43
39 36 36 35 37 30 27 23 22 20 21 28 46 40 23 29
46 32 43 63 51 43 32 20 14 3 6 24 56 85 80 103
106 131 149 143 131 135 145 149 149 149 149 149 149 149 149 149
148 148 148 148 148 147 148 148 146 145 147 137 116 94 85 101
101 96 35 15 21 33 40 35 51 56 49 49 46 48 47 46
46 45 45 45 46 45 45 46 45 46 46 47 46 46 45 45
45 45 46 46 45 45 45 43 42 42 41 37 37 41 43 19
0 0 0 0 34 44 45 47 48 49 50 47 48 45 46 47
46 44 44 44 44 43 40 37 35 33 33 36 48 49 37 40
44 56 57 52 48 42 27 19 14 4 2 13 49 93 77 100
106 128 143 141 135 138 146 146 148 149 149 149 149 149 149 148
149 149 148 148 148 148 148 147 147 144 146 133 113 93 85 108
96 109 39 13 20 30 42 43 55 60 49 50 46 47 49 46
46 44 45 46 47 46 46 46 47 47 46 46 46 45 46 45
45 45 46 45 46 45 45 44 44 43 41 36 36 40 40 22
0 0 0 0 36 48 44 45 46 46 45 42 41 46 47 49
50 47 48 46 47 46 45 49 49 46 43 44 51 58 52 48
59 55 52 54 48 35 27 22 13 4 1 11 50 96 76 96
107 126 140 135 134 138 141 143 148 150 150 149 149 149 150 149
149 149 149 148 149 148 148 148 148 144 140 129 111 91 88 119
108 123 49 11 21 28 41 56 55 60 46 49 45 47 48 49
47 46 47 48 47 47 46 47 47 47 47 46 47 46 46 46
46 45 46 45 45 44 44 43 43 43 40 36 37 40 41 24
21 17 14 10 39 51 45 46 45 45 46 47 49 51 48 51
53 57 55 47 45 46 47 56 57 54 51 52 52 49 40 45
43 47 56 49 46 38 28 24 11 5 3 11 60 97 78 91
106 120 129 128 127 132 141 146 147 150 149 149 149 149 149 149
149 149 149 149 148 148 148 148 148 144 135 122 109 90 94 126
118 125 57 8 20 34 43 65 64 66 55 42 47 46 47 49
47 47 47 48 47 47 47 47 47 48 47 46 46 47 46 45
46 45 46 45 45 45 44 44 44 43 41 36 35 39 39 25
52 54 58 56 59 54 48 48 48 47 49 53 55 56 50 53
55 60 55 50 44 41 46 59 58 55 53 54 53 46 37 32
38 45 41 38 39 37 35 28 18 7 4 13 70 114 79 85
103 114 121 122 124 129 142 147 148 149 149 149 150 150 149 149
149 149 149 149 148 148 149 148 147 142 132 118 106 90 112 133
124 114 65 5 14 30 45 63 74 71 61 41 40 48 47 48
49 47 48 47 47 47 47 46 46 47 46 46 46 46 46 45
45 44 45 45 44 44 44 43 43 42 41 35 35 39 40 28
63 63 64 64 64 57 46 42 43 42 44 51 57 60 50 52
51 51 52 51 47 41 39 52 49 47 49 53 52 42 40 38
43 40 39 41 41 40 42 32 17 11 9 11 60 116 88 77
94 108 114 116 120 131 145 149 149 149 150 149 149 149 149 149
149 149 149 148 148 148 148 147 145 135 126 114 102 97 123 129
118 105 58 5 9 21 45 60 73 73 73 43 37 44 46 45
49 47 47 46 46 46 47 46 46 46 46 46 46 46 45 45
45 44 46 45 44 44 43 43 43 43 40 35 33 38 39 30
54 56 57 59 61 50 13 18 11 10 14 20 33 57 51 47
27 26 32 33 32 37 41 39 16 10 11 21 29 29 37 35
32 46 45 40 41 44 49 37 25 14 10 4 61 111 97 68
85 102 107 109 112 127 143 148 149 148 149 149 149 149 149 149
149 148 148 148 149 148 148 145 137 125 117 108 97 101 136 128
123 106 45 5 10 13 40 58 65 69 62 44 33 36 46 44
48 45 47 47 46 46 47 46 46 46 46 46 45 45 44 44
44 45 46 44 43 43 43 42 42 42 41 35 33 37 39 32
36 36 37 37 39 37 3 0 0 0 0 0 8 53 50 30
2 1 4 9 15 31 45 38 7 0 0 3 18 24 31 29
38 41 41 41 38 43 49 44 33 12 3 0 68 105 102 59
75 92 100 99 100 114 132 143 143 138 143 147 147 148 148 149
148 147 147 145 144 142 142 137 125 115 106 98 82 79 133 135
126 101 22 5 8 16 34 52 54 63 53 40 27 23 24 20
27 41 47 47 47 46 47 47 47 46 46 46 45 45 45 44
45 44 46 45 44 43 43 42 43 42 41 35 33 36 39 32
43 42 41 40 41 37 10 4 0 0 0 3 18 53 47 12
0 0 0 0 6 34 46 40 6 0 0 3 16 22 32 29
21 28 28 32 38 43 50 50 23 6 0 0 31 80 67 38
63 78 90 87 85 91 107 122 127 124 123 123 130 134 135 141
139 137 133 130 130 130 129 122 111 101 92 85 68 27 87 120
111 55 0 5 4 15 34 51 46 52 51 34 23 16 16 15
20 42 48 48 48 46 47 47 47 47 45 45 46 45 45 45
44 43 45 45 44 44 43 42 43 42 41 36 34 35 37 33
47 47 47 48 49 39 8 5 0 0 0 3 22 52 38 3
0 0 0 0 0 31 46 39 5 0 0 3 14 23 33 15
25 25 28 22 35 45 51 32 10 3 0 0 0 0 0 7
49 61 75 77 72 76 83 94 108 116 121 118 118 119 119 118
118 121 120 119 117 115 111 104 94 83 79 78 91 43 4 20
15 0 0 4 7 6 28 51 43 36 34 31 22 16 14 15
18 41 48 48 48 47 47 47 47 46 45 45 45 45 45 45
44 44 44 44 44 43 43 43 42 42 41 35 32 34 36 32
48 47 48 49 51 41 7 5 0 0 2 6 8 48 33 1
0 0 0 0 0 30 45 38 5 0 0 4 15 25 26 15
20 27 25 20 42 49 42 23 11 4 0 0 0 0 0 1
22 43 53 57 57 63 77 90 102 110 118 123 126 128 125 120
115 109 100 93 92 87 83 76 68 68 71 80 105 84 5 5
3 0 0 3 7 8 16 44 51 29 28 23 16 17 16 14
20 40 48 48 48 48 47 46 46 45 45 46 45 45 45 45
44 44 44 44 44 44 43 42 42 41 40 34 29 31 34 32
43 31 26 35 50 46 6 0 0 0 4 10 4 45 31 0
0 0 0 0 0 31 45 35 4 0 0 16 17 13 25 12
19 33 24 20 44 46 39 23 14 7 0 0 0 0 0 2
10 41 35 37 39 44 60 79 92 100 109 114 119 122 119 115
107 96 80 67 61 60 57 59 64 68 76 106 109 81 7 2
1 0 0 0 9 9 18 30 47 37 25 20 16 14 15 16
16 35 48 49 47 48 47 47 47 45 45 45 45 44 44 44
44 43 44 44 43 43 43 42 42 41 40 35 31 31 35 33
39 15 0 8 40 51 20 3 0 0 3 7 1 42 30 0
0 0 0 0 0 28 46 35 6 0 1 24 9 8 26 12
28 32 23 21 46 40 30 24 23 5 0 0 0 0 0 4
9 58 46 49 54 61 59 60 72 83 91 98 106 109 109 105
98 92 93 99 101 95 92 89 83 82 103 110 103 74 9 0
0 0 0 0 8 17 20 36 44 36 31 15 18 14 15 16
17 31 47 47 45 45 45 45 45 45 43 44 45 45 46 45
44 44 45 43 43 42 42 41 41 40 39 33 30 30 33 32
39 18 0 4 36 53 18 2 0 0 3 9 3 40 28 0
0 0 0 0 0 22 47 36 11 0 8 16 6 9 28 24
33 31 22 27 47 30 27 31 27 4 0 0 0 0 0 1
5 58 70 63 70 77 76 66 66 69 78 89 99 104 103 102
101 106 115 124 122 115 111 104 105 115 119 109 105 69 11 1
0 0 0 2 10 18 35 37 45 46 30 14 16 17 20 22
24 44 44 46 47 47 46 46 46 46 44 44 45 45 45 44
44 42 43 43 41 42 41 41 40 39 38 33 28 28 32 31
38 22 0 1 31 50 6 0 0 0 0 0 1 40 31 0
0 0 0 0 0 17 47 35 6 2 19 4 4 6 30 37
31 26 24 31 51 27 35 40 33 5 3 0 0 0 0 0
3 50 82 80 74 83 88 79 73 74 81 90 97 103 107 109
115 122 126 130 124 122 119 116 124 128 121 119 117 83 10 1
0 0 0 0 8 22 44 51 46 48 39 22 20 19 15 11
18 71 16 14 32 47 47 46 46 46 45 45 44 44 45 44
44 44 43 43 42 41 41 40 39 39 37 32 27 27 30 30
37 24 0 0 26 44 3 0 0 0 0 1 0 39 36 0
0 0 0 0 0 15 49 36 8 15 4 5 5 9 29 41
31 19 26 46 51 24 36 45 34 10 1 1 0 0 1 0
1 43 83 92 82 86 92 96 93 99 102 105 107 111 118 127
136 139 138 131 129 131 127 130 137 136 137 120 67 25 14 4
0 1 0 6 11 14 25 40 48 51 35 22 25 23 15 2
11 29 33 15 20 47 46 46 47 46 46 45 45 45 45 44
44 43 43 43 41 41 41 40 39 38 36 32 27 26 30 30
35 27 0 0 22 43 6 1 0 0 3 17 4 37 44 10
7 8 12 8 9 21 52 39 34 37 32 30 33 33 41 43
31 18 34 51 51 19 33 49 39 15 5 8 0 0 2 0
0 34 84 95 90 89 96 104 107 116 122 125 127 132 138 146
149 148 144 142 140 139 136 140 140 134 71 20 12 10 10 3
0 3 0 0 4 3 2 9 31 44 33 23 29 28 21 4
7 15 22 15 19 46 46 46 46 46 46 45 45 44 44 45
44 43 43 42 42 41 40 39 38 38 36 32 26 25 29 29
35 30 1 0 15 46 38 36 30 32 42 49 43 48 51 54
51 48 51 51 52 54 57 41 44 50 52 52 54 56 54 48
38 33 49 50 45 19 33 57 43 24 17 15 3 0 6 0
0 29 84 96 93 90 95 107 112 122 133 144 146 148 149 150
150 150 148 149 147 148 143 136 85 23 12 12 10 8 10 4
0 2 3 2 10 8 2 0 5 23 36 31 27 33 20 11
13 13 6 10 19 47 47 46 46 45 45 45 45 45 45 44
44 43 43 42 42 40 40 38 37 36 35 31 25 24 28 29
35 31 2 0 10 49 50 48 44 49 58 59 53 48 47 62
60 57 56 58 61 61 60 43 41 49 54 53 54 57 56 49
38 37 46 45 45 23 38 55 38 33 35 20 8 8 11 0
1 14 74 94 97 92 94 106 116 128 139 149 150 150 150 150
149 150 149 149 149 143 88 28 14 14 11 8 6 6 6 10
0 3 4 7 16 10 0 1 3 9 17 19 36 32 18 16
13 12 7 8 18 42 30 22 34 46 46 45 46 44 45 44
44 43 43 42 41 40 39 38 36 36 35 31 24 23 27 27
33 30 3 0 7 48 50 43 43 49 58 60 52 45 41 50
53 52 52 52 53 52 55 43 36 39 45 48 44 46 50 45
38 41 44 42 41 24 36 53 37 37 50 21 17 21 8 0
2 11 26 68 96 96 94 103 119 135 146 150 150 151 150 150
150 149 150 139 90 31 15 14 14 10 8 8 9 9 8 13
5 7 1 8 21 7 0 1 3 9 23 25 19 37 19 30
18 0 0 0 8 20 27 31 10 37 46 44 45 45 44 43
44 43 42 41 40 40 39 37 36 35 35 31 25 23 27 28
33 30 5 0 4 47 40 36 36 39 49 59 54 48 42 32
33 33 33 33 34 34 36 38 38 40 42 41 37 38 43 39
41 38 48 35 47 32 32 53 35 41 36 16 27 20 0 0
0 7 9 12 28 61 83 97 118 137 149 150 150 151 150 150
140 104 64 23 15 15 16 12 9 7 8 9 11 9 9 8
4 3 0 7 20 11 0 4 4 4 13 29 29 26 35 56
57 5 3 3 23 42 47 46 31 23 46 45 45 44 44 43
43 42 41 40 39 40 39 37 36 35 33 31 24 22 26 27
32 30 7 3 12 47 31 21 26 29 37 45 45 43 45 34
34 34 37 40 39 38 40 43 44 45 47 45 41 43 42 40
38 41 43 35 50 39 34 44 32 51 23 31 36 9 0 1
0 4 1 6 10 11 14 27 49 70 85 97 95 90 69 40
20 17 18 15 17 17 12 10 8 9 12 11 11 10 9 13
12 9 3 5 21 16 1 5 6 5 10 22 29 32 32 34
59 7 1 2 42 46 46 46 40 17 46 45 45 45 44 43
41 41 40 39 38 38 38 37 36 35 33 31 24 22 26 28
30 29 21 24 34 49 25 1 0 2 4 10 16 24 46 39
46 46 47 58 57 44 41 44 45 45 50 50 44 43 39 35
38 40 38 42 49 49 24 37 26 42 28 36 35 4 0 0
0 0 0 1 5 7 9 11 13 13 16 15 16 15 15 17
15 15 14 13 14 10 9 8 10 10 14 13 11 10 10 6
20 18 10 9 26 25 6 8 9 15 16 19 25 28 32 23
29 2 0 1 41 48 47 46 43 18 46 46 46 45 44 42
41 39 38 38 38 37 37 36 35 34 33 31 23 23 27 29
29 28 38 49 52 55 27 0 0 0 0 0 6 25 50 41
53 52 50 63 62 21 10 13 13 15 20 37 46 44 39 31
38 36 43 49 51 43 21 40 25 38 38 32 35 1 0 0
0 1 0 0 1 3 5 8 11 9 10 13 14 14 12 12
13 11 12 9 7 8 9 10 12 13 14 11 11 10 11 11
30 27 14 9 25 36 23 9 9 17 26 35 35 34 34 28
23 7 1 5 36 47 46 46 41 21 45 44 44 43 42 40
37 36 36 35 34 36 37 36 35 33 32 30 24 21 26 28
29 27 39 52 55 57 31 0 0 0 0 0 0 19 51 37
49 41 18 26 43 10 0 0 0 0 3 29 45 47 35 30
36 36 44 59 52 31 33 38 28 39 35 34 28 0 0 0
0 2 0 1 0 1 2 3 6 6 8 8 9 11 10 11
9 8 10 9 8 9 11 13 12 13 12 13 12 10 11 24
38 35 27 9 18 29 44 5 1 6 25 45 58 48 40 33
24 17 1 0 34 47 46 46 35 28 45 44 44 43 42 39
37 35 34 34 32 33 35 34 33 33 32 30 23 19 23 26
28 26 35 48 47 47 29 0 0 0 0 0 0 18 51 38
49 35 0 4 34 11 0 0 0 0 1 26 49 44 33 35
39 35 44 61 51 23 36 27 35 33 29 31 16 0 0 0
6 2 0 1 0 0 1 1 3 5 5 7 8 9 10 11
9 10 8 8 8 13 12 11 13 13 13 12 12 10 13 38
42 40 34 14 14 21 32 8 1 1 8 40 62 79 62 44
27 18 3 0 34 47 46 43 20 37 42 38 38 42 41 36
33 31 31 31 30 32 34 33 32 30 30 29 22 19 22 26
27 25 23 20 21 22 6 0 0 0 0 0 0 21 50 38
49 36 0 4 33 14 0 0 0 0 4 24 52 42 37 38
38 37 44 52 40 23 29 21 33 31 18 28 9 0 0 0
4 3 3 3 2 2 2 3 4 6 8 9 8 8 9 11
10 11 7 8 9 10 12 14 12 13 13 14 13 10 19 39
37 54 50 17 3 18 18 17 4 3 4 13 54 83 87 60
36 21 4 0 13 18 17 11 13 37 18 19 20 43 41 36
33 30 29 30 29 31 33 33 31 32 30 29 23 18 22 26
27 24 21 16 18 20 4 0 0 0 0 0 0 22 50 39
49 36 0 3 30 17 0 0 0 0 6 21 51 44 39 39
39 41 50 42 39 32 26 22 31 25 11 36 2 0 0 0
6 1 2 4 5 6 5 4 6 6 8 6 9 9 9 10
10 11 8 9 12 13 14 12 13 11 12 9 9 8 23 27
43 58 49 29 9 9 20 19 12 11 8 10 32 70 77 73
45 25 8 0 0 0 0 0 3 7 20 87 45 41 40 36
32 30 28 29 29 31 33 32 32 30 30 29 23 19 21 26
26 23 22 19 19 22 4 0 0 0 0 2 0 17 49 38
49 35 0 5 28 18 0 0 2 4 9 20 49 43 47 44
45 49 55 43 32 29 32 26 31 23 18 35 0 0 0 0
0 1 3 3 5 5 5 3 6 6 6 6 8 8 8 8
9 11 9 13 14 12 12 13 13 13 13 13 8 10 17 20
40 30 34 40 33 15 14 23 18 24 23 14 17 47 58 50
42 30 17 15 16 14 4 2 17 19 72 98 109 31 26 22
28 29 27 28 29 31 32 31 31 31 30 29 24 19 23 27
27 23 23 23 23 24 3 0 0 0 0 5 0 14 50 39
51 38 5 6 26 22 4 0 1 9 8 17 48 43 54 51
54 61 58 45 31 32 37 29 31 19 18 29 0 0 2 0
0 0 2 3 4 5 6 7 6 7 6 8 7 9 9 8
12 11 13 12 13 15 13 14 15 12 9 9 9 14 9 12
19 39 48 41 39 31 4 16 21 36 50 24 25 29 44 34
32 33 9 5 8 8 8 7 8 10 10 11 9 9 7 7
29 32 31 32 32 34 34 35 34 34 33 32 28 22 24 28
26 22 23 25 25 25 4 2 2 0 1 15 5 11 52 41
51 41 21 7 24 23 9 9 9 14 9 13 47 43 45 47
52 62 58 46 33 31 30 27 22 14 27 21 1 0 11 0
8 0 0 2 4 6 6 5 7 9 8 10 7 11 9 9
13 10 14 13 13 13 14 13 10 9 10 8 9 9 2 13
37 44 56 30 9 1 0 6 30 38 58 32 14 27 34 33
25 26 3 5 7 9 10 7 7 10 10 10 9 10 12 9
30 34 31 30 29 29 28 26 22 20 17 15 12 7 5 6
26 22 22 25 25 26 5 4 3 0 2 19 21 11 53 42
53 38 28 16 22 22 4 15 15 17 2 11 46 42 36 37
46 69 58 41 34 31 27 21 17 13 42 18 5 0 8 2
3 0 0 3 3 5 5 6 9 8 10 11 9 12 12 13
12 14 13 14 12 14 10 10 11 12 11 11 8 7 3 17
40 49 62 38 18 4 0 0 32 46 37 32 18 22 36 27
26 15 5 6 8 8 8 7 9 10 11 10 10 10 9 10
24 26 26 27 30 32 34 36 37 37 38 40 40 35 35 41
26 21 22 25 26 28 20 20 23 20 24 35 39 36 59 43
54 35 25 26 23 26 12 18 20 20 9 17 48 39 36 31
43 64 55 39 36 29 27 18 15 13 41 22 25 1 3 0
0 0 0 1 2 4 5 5 8 7 8 11 10 12 12 12
11 13 11 11 11 10 12 12 11 10 12 11 9 2 3 14
37 45 52 47 40 14 3 0 25 70 37 30 20 34 43 26
26 7 7 8 10 8 7 7 10 9 9 10 10 11 11 8
14 44 51 52 53 55 56 55 55 53 53 52 50 44 43 47
26 22 22 26 26 29 45 48 51 51 55 61 64 65 67 48
54 30 11 28 24 36 32 33 33 31 29 36 33 34 36 28
38 52 61 43 36 29 19 14 9 18 20 18 51 11 3 1
0 0 0 0 3 3 4 4 6 7 8 10 9 9 11 11
11 10 11 10 11 8 11 10 10 9 12 13 9 1 2 8
20 15 11 7 1 0 0 0 15 78 60 23 25 47 54 26
18 7 10 9 10 9 6 7 11 11 11 11 10 11 11 11
9 16 48 52 53 54 54 54 53 52 52 52 51 43 41 46
25 20 21 26 27 27 47 54 55 56 59 64 67 68 69 57
52 31 2 14 21 36 32 33 36 33 31 35 33 36 36 24
37 42 57 50 39 29 18 10 7 19 6 8 32 10 2 0
0 2 1 1 3 3 4 4 4 6 8 7 8 8 9 9
10 7 10 10 8 9 11 9 12 13 12 12 9 0 0 4
8 8 8 6 4 1 0 2 13 53 58 31 41 60 52 22
13 10 10 11 9 7 6 8 10 10 10 11 10 11 13 11
10 9 23 52 53 54 54 53 53 52 53 52 51 45 41 45
25 20 21 26 27 25 34 43 42 42 43 45 49 48 48 44
49 32 1 8 17 38 36 40 39 38 36 36 37 37 36 23
36 41 55 49 23 17 16 22 19 17 2 8 18 6 0 0
1 1 0 3 3 4 5 5 5 5 5 6 8 6 8 8
8 7 8 10 9 11 11 13 12 12 14 11 11 8 1 7
23 20 12 11 15 5 6 12 13 38 45 39 54 61 30 15
10 9 12 12 10 8 5 8 11 10 10 11 10 12 11 11
9 8 7 36 53 52 53 52 52 52 52 52 52 45 41 45
25 19 20 24 26 24 20 18 18 19 21 25 31 33 34 32
46 33 1 5 15 38 36 39 39 39 36 36 40 37 34 27
34 41 43 38 16 20 17 13 17 14 12 9 25 3 0 0
1 0 0 3 3 3 4 5 5 5 8 8 7 8 9 9
9 10 9 10 11 9 13 11 11 8 7 7 49 5 1 4
21 18 10 13 21 17 18 17 20 36 39 38 44 25 9 7
3 5 10 12 8 6 5 8 11 10 10 10 11 11 10 11
9 9 8 12 47 52 51 51 51 51 51 51 51 45 41 43
23 19 19 24 26 25 20 18 18 18 20 25 31 33 33 32
47 35 6 4 14 38 35 38 38 40 37 34 37 32 25 33
31 36 29 32 19 8 14 11 5 10 14 16 8 2 0 7
2 0 9 2 3 3 4 4 6 5 5 6 7 7 8 9
8 9 10 10 11 10 8 6 5 6 7 29 40 7 5 2
6 8 15 14 11 12 15 19 20 15 19 25 15 8 10 6
4 2 7 10 9 7 6 8 10 11 9 10 9 9 9 9
8 8 8 6 28 51 50 50 50 50 51 50 50 45 41 42
23 18 18 22 24 26 24 23 23 22 23 27 32 33 34 33
48 41 32 39 43 42 33 37 39 47 48 42 33 28 25 18
18 30 35 24 7 4 3 7 3 7 6 7 1 1 1 7
5 0 18 0 1 3 4 4 5 7 6 7 11 7 10 10
9 9 9 8 5 4 5 8 6 7 9 56 8 9 5 6
8 12 13 10 10 11 4 1 5 10 8 7 9 10 8 5
5 5 7 9 5 5 6 8 9 8 7 8 7 6 9 10
7 8 9 6 8 45 50 50 50 49 50 49 49 46 40 40
24 18 17 22 24 25 24 23 24 24 25 29 34 35 34 32
47 44 45 54 52 40 33 35 40 41 46 30 9 4 3 10
6 16 42 28 19 6 5 7 10 6 3 2 2 1 1 5
4 0 14 0 0 0 1 2 4 6 7 10 8 8 7 6
4 3 2 4 7 7 8 5 7 7 27 25 8 9 8 8
12 12 8 10 9 8 6 6 9 9 10 8 10 6 6 5
5 7 6 6 5 4 5 6 8 8 8 7 6 4 6 6
2 7 8 6 4 23 49 49 48 48 49 49 49 46 39 39
21 16 17 21 23 24 24 23 23 24 25 29 34 35 32 29
34 31 30 33 33 31 33 34 35 35 24 20 20 11 10 6
5 9 21 49 40 27 21 16 16 12 4 7 5 1 0 6
7 7 15 2 1 1 0 0 0 0 0 0 2 1 1 2
3 4 5 6 7 7 7 6 7 12 44 7 8 10 8 10
11 11 9 8 7 8 7 7 8 8 8 7 6 5 5 4
6 6 6 6 4 3 5 9 8 7 7 6 3 3 5 6
2 7 8 6 5 6 42 48 48 48 49 48 48 46 39 38
16 16 17 20 23 24 24 23 23 24 25 28 33 34 32 31
32 31 30 29 32 33 33 34 34 20 2 5 9 18 16 11
5 1 1 17 43 46 47 24 9 10 7 4 2 1 0 3
8 4 26 3 1 1 1 0 0 0 1 2 2 2 2 2
3 3 4 5 6 7 8 10 10 44 15 10 9 10 11 11
10 9 8 7 8 8 7 7 7 6 6 6 6 6 3 5
6 6 8 6 5 4 5 7 8 7 7 6 2 4 8 4
3 7 7 6 5 4 21 48 48 49 49 48 48 47 39 38
14 16 17 20 21 22 24 25 25 25 26 28 33 34 32 32
33 32 31 29 32 32 33 33 16 1 2 5 6 6 8 7
7 6 3 3 6 12 8 8 8 4 2 2 1 1 0 1
6 8 40 6 5 6 4 2 1 1 3 3 4 3 4 4
7 8 7 8 9 9 9 9 28 44 8 10 11 12 9 9
9 9 9 8 8 8 9 8 8 7 6 6 7 5 4 5
6 5 8 7 6 5 5 8 9 7 7 6 3 2 7 4
5 7 8 6 6 5 6 41 48 48 48 48 48 47 39 38
14 14 16 19 21 22 23 24 25 25 26 29 33 33 32 32
33 32 32 31 32 33 33 15 1 1 2 5 6 6 6 6
7 6 4 7 9 8 8 7 5 2 1 2 2 1 1 2
2 8 35 14 8 9 8 9 6 4 5 5 7 8 9 9
8 8 9 10 11 11 11 11 47 11 12 12 12 10 9 10
10 9 8 8 8 9 8 8 8 8 7 8 7 6 4 6
8 7 8 7 6 5 6 6 7 7 7 4 2 3 7 2
4 6 7 6 6 5 3 21 48 48 48 48 48 47 40 37
9 10 17 20 21 22 23 24 25 25 27 29 34 34 32 33
32 33 32 31 31 32 21 0 2 2 2 5 6 6 6 6
5 5 4 7 6 7 4 2 3 3 2 2 1 1 2 2
2 4 37 49 7 8 8 8 10 9 8 9 8 9 9 11
10 10 9 9 10 9 10 27 32 11 10 10 10 11 10 10
10 10 10 9 10 9 8 9 8 7 8 7 7 6 5 7
7 7 7 8 7 6 6 7 8 9 6 3 2 4 8 1
6 6 8 6 7 6 5 5 42 48 47 47 48 47 40 37
10 13 15 19 20 21 22 23 24 25 27 30 34 34 34 33
33 33 33 33 32 29 3 1 1 1 3 5 7 6 5 5
5 4 4 5 3 4 4 4 5 4 5 5 4 4 4 4
5 4 37 51 9 9 9 7 7 7 8 7 8 7 8 7
8 8 9 10 10 10 10 35 9 10 11 11 11 10 10 11
10 10 9 9 10 8 9 8 7 8 8 8 7 6 5 7
7 9 8 9 7 7 5 6 6 7 7 3 1 3 7 1
5 6 8 5 6 6 5 4 22 48 47 48 48 48 41 36
9 13 15 17 19 20 21 23 24 24 26 30 34 34 33 34
33 32 32 33 33 16 0 1 1 0 2 5 5 6 6 5
4 5 6 6 4 4 5 5 5 5 4 4 6 4 5 6
6 6 5 41 8 8 8 10 10 10 9 9 8 9 9 9
9 10 9 7 7 7 35 20 10 11 12 11 10 9 10 10
10 10 9 9 8 9 8 8 8 7 7 7 6 5 6 8
7 9 8 8 7 6 5 6 7 9 9 3 1 5 5 0
4 5 7 5 7 7 5 4 5 42 47 47 47 47 41 37
9 13 15 17 20 22 24 25 26 28 29 31 33 34 33 33
33 32 32 32 29 2 0 1 0 0 1 4 5 5 5 5
5 4 6 5 5 6 6 6 6 5 4 5 6 5 6 6
6 6 6 19 34 4 5 6 6 6 7 6 5 7 6 5
6 6 8 8 8 11 49 9 12 11 11 12 11 9 10 10
9 9 9 8 7 8 8 8 7 7 8 7 6 5 6 7
9 9 8 8 7 6 6 6 7 6 6 4 2 5 3 0
3 5 6 4 6 6 6 4 3 23 48 47 47 47 42 37
11 17 19 21 23 25 27 28 30 30 31 32 33 33 33 33
33 32 32 32 18 0 1 2 0 0 0 4 5 5 6 5
5 5 6 6 5 6 5 5 6 5 5 3 5 5 6 6
7 7 8 9 53 7 7 6 6 7 7 7 8 7 8 8
9 8 9 9 9 39 25 10 11 11 10 12 10 10 9 10
10 9 8 9 9 8 8 8 9 8 6 7 6 5 6 6
8 8 8 8 9 8 6 4 6 6 6 5 1 6 2 1
3 6 5 4 6 6 5 3 3 5 43 47 47 47 42 36
14 17 19 22 22 26 28 29 30 31 32 32 32 33 33 33
33 31 31 30 5 0 1 3 1 0 0 4 5 6 6 6
5 5 4 4 4 5 6 5 5 4 5 4 5 6 6 7
8 8 8 8 23 23 9 9 8 9 10 9 9 10 9 9
9 9 10 10 12 42 10 11 11 11 12 11 11 9 9 9
10 9 9 9 8 8 8 7 8 8 8 7 6 5 7 7
8 9 8 7 7 7 6 3 3 6 5 4 1 5 1 0
4 5 4 4 7 6 5 3 3 1 25 48 46 46 43 35
9 8 11 22 17 23 27 28 29 30 30 31 31 31 32 32
33 31 31 22 0 0 2 2 1 0 0 3 5 5 6 5
6 5 5 4 4 5 4 4 4 4 4 4 5 5 5 6
8 7 8 9 10 54 7 9 9 9 10 9 9 9 9 9
10 10 10 10 40 19 11 11 12 11 11 11 10 9 9 9
9 8 9 8 8 8 8 8 8 7 7 6 6 6 7 7
8 8 8 8 6 7 6 3 2 5 5 4 3 4 0 0
3 4 2 4 5 5 5 4 4 2 6 44 46 46 43 36
2 2 6 23 19 20 23 26 28 29 30 31 31 31 31 32
31 31 30 10 0 0 2 3 2 0 0 3 5 7 6 6
5 5 3 4 4 5 5 5 4 5 5 4 5 6 5 7
7 8 8 8 8 41 28 8 9 9 10 10 10 9 10 11
12 10 10 18 35 10 11 11 12 11 10 10 10 9 8 9
8 8 8 8 7 7 7 7 9 7 7 7 7 6 6 7
7 8 7 7 5 5 5 4 1 3 4 4 4 4 0 1
4 4 2 5 7 6 4 4 3 2 0 29 46 46 43 35
