P2
128 120
155
41 40 39 39 38 38 38 37 36 35 35 34 34 33 33 33
32 31 31 31 30 29 29 27 28 28 27 26 26 26 25 25
24 24 23 22 21 19 18 16 16 17 20 22 23 23 19 14
25 28 25 24 23 22 22 20 18 17 14 13 13 13 18 19
17 20 14 18 21 22 22 23 24 24 25 25 26 26 27 27
27 27 29 29 30 30 30 31 31 31 31 31 31 32 32 32
34 35 36 36 36 37 37 38 38 39 39 39 40 40 42 40
41 41 42 42 42 42 42 42 41 42 42 42 42 42 42 42
40 39 39 38 38 38 37 36 36 35 35 35 34 33 33 32
32 31 31 30 30 30 29 28 28 27 27 27 26 26 25 25
25 24 24 23 22 20 19 18 17 19 23 23 25 26 20 14
25 29 27 25 24 22 23 22 20 19 17 16 15 14 18 19
19 17 20 22 24 24 24 25 26 26 26 27 27 27 27 28
29 29 29 29 30 31 32 31 31 32 32 32 34 34 35 35
36 37 37 37 37 38 38 38 39 39 40 40 40 40 41 40
40 41 42 42 42 41 41 42 42 42 42 42 43 42 43 42
41 40 40 39 38 38 37 37 36 36 35 35 34 34 33 32
32 32 31 30 30 30 29 28 29 28 27 27 27 26 26 26
25 25 24 24 23 21 20 19 18 21 24 25 27 26 20 11
25 29 26 25 25 23 23 23 22 19 20 20 17 14 17 20
19 19 21 23 24 25 25 27 27 27 27 28 28 29 29 29
30 30 31 31 31 31 31 31 32 33 34 34 35 35 35 36
36 37 37 38 38 39 39 39 40 40 40 40 40 41 42 40
41 41 41 41 41 41 42 42 42 42 42 42 43 43 42 42
40 40 40 39 39 38 38 37 37 36 36 35 35 34 34 33
33 32 31 31 30 30 30 29 29 28 28 27 27 26 26 26
25 25 24 24 24 23 22 21 21 22 26 27 29 28 21 12
25 30 27 26 25 25 24 23 22 19 21 21 20 15 15 22
19 22 23 25 25 27 27 28 28 29 29 29 30 30 31 30
30 31 31 31 31 31 32 34 33 35 35 35 36 37 36 36
36 38 38 39 39 39 39 39 39 40 40 41 41 41 43 41
41 42 42 41 42 42 42 42 42 42 42 41 41 41 42 43
41 40 40 39 39 38 38 37 37 36 36 36 35 35 34 33
33 32 32 32 31 30 30 29 29 28 29 28 27 27 27 26
26 26 25 25 24 23 23 21 21 23 28 28 29 28 22 13
25 31 28 27 27 26 26 25 23 20 22 22 21 16 15 22
20 23 25 26 27 28 28 29 30 30 30 31 31 31 31 31
31 31 32 33 33 33 34 34 34 35 35 35 36 37 37 37
38 38 38 38 39 39 39 39 40 40 40 41 41 41 43 40
42 42 42 43 43 43 42 41 42 42 42 43 44 43 43 43
40 40 40 39 38 38 38 37 37 36 36 36 35 35 34 34
33 32 32 32 31 31 30 30 29 29 29 28 28 27 27 27
26 26 25 25 25 24 24 23 24 25 29 29 30 29 22 14
24 31 28 28 27 26 26 25 24 23 23 23 23 19 17 23
22 25 27 27 28 29 29 30 31 30 31 31 30 30 31 32
32 33 33 34 34 35 34 34 35 35 35 37 37 38 37 38
38 39 39 39 39 38 39 39 40 40 41 41 41 41 43 41
42 42 41 41 40 41 41 42 43 43 43 43 43 43 43 43
41 40 39 39 39 39 38 37 37 36 36 35 35 35 34 33
33 33 32 32 32 32 31 31 30 29 29 28 28 28 28 27
27 27 26 25 25 25 25 24 25 25 29 30 30 30 23 15
23 32 29 28 28 27 27 26 25 24 24 24 23 21 18 22
24 26 28 28 29 29 29 31 30 30 31 31 32 32 32 33
33 33 33 34 35 34 34 35 35 35 36 36 37 38 38 38
39 39 39 39 39 39 40 40 41 41 41 41 42 41 41 39
40 40 41 41 42 43 42 42 42 42 43 42 43 43 43 43
41 40 40 39 39 38 38 37 37 37 36 36 36 35 34 34
33 33 32 32 32 31 30 31 30 29 29 28 29 28 28 27
27 27 27 26 26 26 25 25 26 26 31 31 31 30 23 17
22 32 29 28 28 27 27 26 25 25 25 25 24 22 19 23
24 27 29 29 29 29 29 30 32 31 32 32 33 33 33 34
34 34 35 34 35 35 35 34 36 36 36 36 37 39 38 38
39 39 39 40 40 39 40 41 41 41 41 39 40 40 40 43
43 43 42 42 43 42 43 43 41 43 43 42 42 43 42 43
41 41 40 39 39 38 38 38 38 37 36 36 36 35 35 34
33 33 33 32 32 32 31 31 30 30 30 29 28 28 28 28
27 26 27 26 26 25 25 26 26 28 31 31 31 31 24 19
21 32 30 29 29 29 28 27 28 28 25 25 24 23 19 24
25 28 28 29 30 31 31 31 32 32 33 33 34 34 33 34
34 34 35 35 35 35 36 36 36 37 37 37 37 39 38 39
39 39 40 40 40 37 39 40 40 40 40 42 42 42 42 42
42 42 42 42 42 42 43 43 42 43 43 43 43 43 43 43
41 40 39 38 39 38 38 38 38 37 37 37 36 36 35 35
34 34 33 33 32 32 31 30 31 30 30 29 29 28 28 28
27 27 27 26 26 26 26 26 26 28 31 31 32 31 24 19
20 32 30 29 28 28 28 27 27 27 26 26 26 24 23 25
26 29 30 31 31 31 32 32 32 33 33 33 34 34 34 35
34 35 36 35 36 36 36 36 37 37 37 37 38 40 39 39
39 40 40 39 39 40 39 41 41 41 41 42 42 42 41 42
42 43 43 42 43 43 43 43 42 43 43 43 43 43 43 43
41 40 40 40 39 38 39 38 37 37 37 36 36 36 35 35
34 33 33 33 33 32 32 31 31 31 31 30 29 29 28 28
27 27 27 26 27 26 26 27 28 29 33 32 33 32 25 21
20 33 30 28 28 29 29 28 28 29 26 27 27 26 25 27
28 31 31 31 31 32 33 33 33 33 34 34 34 35 34 34
34 35 35 36 35 36 36 36 37 37 37 38 38 40 38 38
37 37 39 40 41 41 42 41 42 42 42 42 42 42 42 42
42 43 42 42 43 42 42 42 42 43 44 43 43 43 44 43
41 40 40 39 39 39 39 38 37 38 37 37 37 36 36 35
35 34 33 33 32 32 32 31 31 31 30 30 30 29 29 29
28 28 28 28 28 27 27 27 28 29 33 33 33 33 26 21
16 30 31 29 29 30 29 28 28 29 27 28 27 26 24 27
29 31 32 32 32 32 33 33 33 34 34 34 35 35 35 35
36 36 37 36 37 37 37 37 38 38 38 37 36 36 37 38
39 40 40 41 41 42 43 42 41 42 42 42 42 42 42 42
43 43 43 43 43 42 42 42 43 43 43 43 44 44 43 43
41 40 40 40 39 39 38 38 38 37 38 37 36 36 36 35
35 34 34 34 34 33 33 32 32 31 31 31 30 29 29 28
29 28 28 28 28 27 27 28 29 30 34 34 34 33 26 19
12 29 32 31 31 30 30 30 29 30 27 28 28 27 24 29
30 32 33 33 32 34 34 35 35 34 35 35 35 36 36 36
36 36 37 37 37 37 37 37 37 36 36 38 39 40 40 40
40 41 41 41 41 42 43 42 42 42 43 43 42 42 42 42
43 42 43 43 43 42 43 43 43 43 43 44 44 43 44 43
42 41 41 40 40 39 39 38 38 38 38 37 37 37 36 36
35 34 34 34 33 33 33 32 32 32 32 31 31 31 30 30
30 29 29 28 28 28 28 28 29 30 34 34 34 34 26 21
19 32 33 32 32 32 31 31 30 32 29 30 30 28 26 31
31 34 34 33 33 34 34 34 35 35 35 35 36 36 37 37
37 37 38 38 38 37 37 38 39 39 40 40 40 40 41 41
42 42 41 42 42 42 44 42 43 43 42 43 43 43 43 43
43 43 44 43 44 44 44 44 43 43 44 44 45 44 44 45
42 42 41 41 41 41 40 40 39 39 38 37 37 37 36 37
36 36 36 35 34 34 34 33 33 33 32 32 32 31 31 31
30 29 29 29 29 29 29 29 30 32 36 36 36 35 27 24
23 31 34 33 33 32 33 32 31 32 30 31 31 30 27 33
33 35 35 34 35 35 35 36 36 36 36 37 38 38 37 37
37 37 38 37 39 39 39 40 40 40 41 41 42 42 42 42
43 43 43 43 43 43 44 43 44 44 43 43 44 43 44 44
43 44 43 44 44 44 44 44 45 45 45 45 45 46 46 45
42 42 42 41 42 41 41 40 40 40 39 39 38 38 38 38
37 37 36 36 36 35 35 34 33 34 34 33 33 32 32 32
31 31 31 30 30 30 30 30 31 33 37 36 36 35 28 25
27 31 36 35 34 34 34 33 33 34 32 31 32 32 28 33
34 36 36 36 37 37 37 37 38 38 37 38 38 38 38 38
38 39 40 40 41 41 41 41 41 41 41 42 42 42 42 43
44 43 44 44 44 44 46 44 45 44 44 44 45 45 45 45
44 44 45 45 45 46 46 46 46 46 46 45 45 45 44 45
44 43 42 42 42 42 42 41 41 41 40 40 40 40 39 39
38 38 37 37 37 36 36 36 35 34 35 34 34 33 33 33
32 32 32 32 31 31 31 32 32 34 38 38 38 38 30 26
29 31 37 36 35 35 35 34 34 35 32 34 33 32 30 35
35 37 37 37 38 38 38 38 39 38 38 38 39 39 39 40
40 41 41 40 41 42 42 42 42 42 43 43 43 43 43 44
44 44 45 44 45 45 46 45 45 45 45 45 45 45 45 45
45 45 46 46 47 46 46 45 44 46 46 46 47 47 47 46
43 43 43 42 42 41 42 41 41 41 41 40 40 39 39 39
38 38 37 37 36 37 37 36 36 35 35 34 35 33 34 33
33 33 32 31 31 32 32 32 33 34 38 38 38 38 30 27
31 29 37 36 36 35 36 35 35 36 33 34 33 33 30 35
36 38 38 38 38 38 38 38 37 39 39 38 40 40 40 40
41 41 41 41 42 42 42 42 42 42 43 43 43 43 44 44
44 44 45 45 45 45 47 45 45 45 45 45 46 46 46 46
46 45 45 45 45 45 45 46 46 46 46 45 46 46 46 46
43 43 42 42 42 41 42 41 41 40 41 40 40 39 39 39
38 38 38 37 37 37 36 36 35 35 35 35 35 34 33 33
33 32 32 32 32 32 31 32 33 35 39 38 39 38 30 27
33 28 37 36 37 36 35 35 35 36 34 34 34 33 31 35
36 38 38 38 37 38 39 38 39 39 39 39 40 40 40 40
40 41 41 41 42 43 42 42 43 43 43 44 43 44 44 44
45 44 45 46 45 45 47 45 45 46 46 46 46 46 45 44
44 45 45 45 46 46 46 46 45 45 46 46 46 45 46 46
42 43 43 42 42 42 41 41 41 41 40 40 39 39 39 38
39 38 37 37 38 37 37 36 35 36 35 35 35 34 34 33
33 33 32 32 31 32 32 32 33 34 38 38 39 39 30 27
34 28 37 37 36 36 35 35 34 36 34 34 34 35 30 34
33 38 39 38 38 39 40 39 39 40 40 40 41 40 40 41
41 41 42 42 43 43 42 42 43 43 43 44 43 43 43 44
44 44 44 46 45 45 46 46 46 45 45 45 44 45 46 45
45 45 46 46 46 46 46 45 45 46 46 46 45 45 45 46
44 42 42 42 42 42 42 41 41 41 41 41 40 40 39 39
39 38 38 37 37 37 36 36 36 36 35 35 35 34 34 34
33 33 33 32 32 32 32 33 34 35 40 40 39 39 32 27
35 28 37 37 36 36 36 35 36 38 34 36 36 35 31 37
37 39 39 39 40 39 40 39 40 40 41 40 41 41 41 42
41 42 43 42 42 43 43 43 43 43 44 43 44 44 45 45
45 45 45 45 45 44 44 44 45 44 45 45 45 46 46 47
45 46 45 46 46 46 46 46 46 46 46 45 45 46 45 45
43 43 42 42 43 42 41 41 41 41 40 40 40 40 39 39
39 38 38 37 38 38 37 37 36 36 36 35 35 35 34 34
34 33 33 33 33 33 33 33 34 35 40 40 40 39 32 28
37 29 38 38 38 37 36 36 36 38 35 35 36 35 32 38
37 39 40 40 40 40 41 40 41 40 40 41 41 41 42 41
42 42 43 43 43 43 44 44 44 43 44 44 43 44 45 45
45 45 44 44 44 45 45 46 46 46 46 45 46 46 46 48
45 45 46 45 46 45 46 46 46 46 46 46 45 46 45 46
43 43 42 42 43 42 42 41 41 41 41 40 40 40 39 39
39 39 39 38 38 37 37 36 36 37 36 35 35 35 35 34
34 33 34 34 33 33 33 33 35 36 40 40 40 40 32 28
38 29 37 37 38 37 38 37 37 38 36 36 36 36 34 39
37 41 39 41 40 40 41 40 41 40 41 40 41 41 43 43
43 43 43 43 44 43 44 44 44 44 44 44 44 44 44 44
44 45 46 46 46 46 46 45 46 46 46 46 47 46 46 47
46 45 45 45 46 46 46 46 45 46 45 46 45 45 45 45
43 42 43 42 42 42 42 42 41 41 41 40 39 39 39 39
39 38 38 38 38 38 37 37 37 36 36 36 36 35 35 34
34 34 33 34 32 33 33 33 35 36 40 40 40 40 32 28
38 30 37 36 37 38 37 37 39 42 38 38 37 36 35 40
37 40 41 41 42 42 42 40 41 41 40 41 40 40 43 42
43 43 42 43 44 44 44 44 44 43 43 43 43 45 44 46
46 46 46 46 46 46 46 46 46 46 46 46 46 46 46 47
45 45 45 45 45 45 46 46 46 45 46 45 46 45 45 45
43 42 42 42 43 42 42 42 41 41 40 41 40 40 40 39
39 38 39 38 38 37 37 37 37 36 36 36 36 36 35 35
35 34 34 34 34 34 33 34 35 36 41 41 41 40 33 29
38 31 35 38 40 40 43 47 46 43 42 41 34 33 33 40
40 43 42 40 40 41 44 42 41 42 43 42 42 42 41 43
43 43 44 43 44 44 42 43 43 43 44 44 44 45 46 46
46 46 47 46 46 46 46 46 47 46 46 46 47 46 46 47
46 45 45 45 46 45 46 46 46 46 46 46 46 46 45 46
43 43 43 42 42 43 42 41 41 41 41 40 40 40 40 40
39 39 39 39 38 38 38 38 38 37 37 36 36 36 36 35
35 35 34 34 34 34 35 35 35 37 41 42 42 41 34 29
39 35 36 45 54 56 56 44 38 32 27 26 19 17 21 24
33 40 39 41 43 38 37 37 38 40 45 44 43 39 41 43
44 45 43 43 43 43 44 44 45 44 44 44 44 46 47 46
46 46 46 47 46 46 46 46 46 46 47 46 47 46 46 47
46 45 46 46 45 46 46 46 46 46 47 46 46 46 46 46
43 43 42 42 42 42 42 42 41 41 41 41 40 40 40 40
39 39 39 39 38 38 38 37 37 37 37 36 36 36 36 36
36 35 35 34 34 35 34 35 36 37 41 41 42 41 36 30
41 44 52 64 64 59 48 37 29 26 24 19 17 15 9 11
15 40 37 34 37 32 28 24 21 28 44 44 38 29 34 40
44 44 46 45 43 44 44 44 45 45 45 44 45 45 47 46
46 46 47 46 46 46 47 46 46 46 47 46 46 46 45 47
47 46 46 47 46 46 46 45 46 46 45 46 46 46 45 46
43 43 43 42 42 42 42 42 42 41 41 41 41 42 40 40
40 40 39 39 39 39 39 38 38 38 37 37 37 36 36 36
35 36 35 35 35 35 35 36 36 37 42 42 42 41 36 38
57 69 71 63 61 52 33 27 26 21 18 15 9 2 1 13
16 20 31 31 30 26 22 14 8 13 37 59 40 28 28 38
43 44 44 44 46 45 45 45 46 45 46 46 46 46 48 47
47 47 47 47 47 47 47 47 47 46 46 47 47 47 46 47
47 46 46 47 47 46 46 46 47 47 46 46 46 45 44 44
43 43 42 43 42 43 43 43 42 41 42 41 41 40 40 40
40 39 39 39 39 38 39 38 38 38 38 37 38 37 37 36
37 36 35 35 35 35 35 36 37 39 43 43 43 45 50 61
71 78 61 61 57 37 34 33 30 28 20 9 0 1 9 28
34 38 38 32 25 20 18 15 11 15 21 42 37 27 27 35
45 45 45 45 45 46 46 46 46 46 46 46 46 46 48 46
47 47 47 48 47 47 47 47 47 47 47 46 47 46 46 47
47 46 47 47 47 46 46 45 45 43 44 45 46 47 46 46
43 43 43 43 43 43 43 43 42 42 42 42 41 41 41 40
40 40 39 40 39 39 39 38 38 38 38 37 38 37 37 36
36 36 36 36 36 36 36 36 37 38 44 46 48 55 64 77
73 59 61 51 38 49 50 44 48 31 12 0 1 5 39 55
40 32 40 31 24 21 17 17 21 24 19 16 19 26 25 30
44 48 46 45 45 46 46 48 47 46 46 47 46 46 48 47
47 47 48 48 47 47 47 47 47 47 47 47 47 47 47 47
47 45 45 45 44 44 46 46 47 48 46 44 46 45 45 44
43 43 43 43 42 43 42 43 42 42 42 41 42 41 41 41
40 40 40 40 39 39 39 39 39 38 38 37 38 38 37 37
36 36 36 36 35 35 36 38 37 38 44 51 52 61 77 73
56 57 58 52 60 64 58 56 37 12 2 1 7 44 63 50
47 50 44 34 28 21 17 18 17 13 7 5 9 15 21 25
34 37 43 46 45 46 44 46 46 46 47 47 47 46 48 47
47 47 47 48 47 48 47 47 48 48 48 47 48 47 46 45
44 44 46 47 47 44 44 46 46 48 44 45 45 44 44 45
43 43 43 43 43 43 43 43 42 42 43 42 42 42 41 41
41 40 40 40 39 39 39 39 39 38 38 38 38 37 38 37
37 37 36 36 36 36 36 37 39 41 49 49 60 76 71 57
56 59 69 75 65 60 59 52 15 6 10 17 50 67 65 67
50 41 39 40 30 23 28 20 17 13 4 4 7 14 15 16
29 41 44 46 43 44 42 43 45 47 46 47 47 47 47 47
47 47 47 48 48 47 48 47 46 45 45 44 45 46 47 47
46 47 45 46 46 46 46 46 46 48 45 45 46 45 45 46
44 43 43 43 43 43 43 42 42 42 43 42 42 42 41 41
41 41 40 40 40 40 39 40 39 39 38 39 39 38 38 38
38 37 36 36 36 38 38 37 40 44 44 61 71 67 60 51
57 71 69 67 66 65 54 24 10 10 21 50 68 71 65 50
47 53 67 50 29 34 23 16 13 9 6 7 9 13 15 12
25 37 44 44 44 43 40 44 43 46 47 49 47 47 48 47
47 47 48 47 48 47 47 46 46 46 47 48 47 47 47 46
46 46 46 46 47 46 46 46 46 47 45 45 45 45 46 46
43 43 43 43 43 43 44 43 43 43 43 42 42 42 41 41
41 41 40 41 40 39 39 39 39 39 39 38 38 38 38 38
37 37 37 37 37 39 38 42 46 43 58 65 61 64 54 56
73 70 73 75 67 63 39 19 18 23 49 61 69 64 53 64
66 72 60 46 35 35 28 17 10 12 9 8 12 13 12 11
17 24 35 41 41 49 45 42 42 46 47 48 47 47 47 47
46 46 46 47 47 47 47 48 46 47 47 47 48 47 46 46
46 46 45 46 46 46 46 46 46 47 46 45 46 45 45 45
44 44 43 41 42 43 43 43 43 42 42 43 42 42 42 42
41 42 41 40 41 40 40 43 43 41 40 39 39 38 38 37
38 37 37 36 36 37 38 47 45 57 63 59 59 54 58 72
71 74 78 72 73 48 20 12 14 40 53 62 57 69 73 67
62 64 60 44 47 37 32 27 16 12 10 12 16 7 12 10
11 11 17 25 30 38 46 41 42 42 47 46 46 47 47 46
46 47 47 47 46 46 47 48 46 47 47 46 47 46 46 46
46 46 46 46 46 46 46 46 45 46 45 45 45 45 45 46
44 43 43 46 53 51 49 47 45 44 43 41 43 42 43 42
42 41 41 41 41 40 42 55 55 51 47 44 43 39 39 38
38 39 37 37 38 37 42 45 54 61 60 61 57 61 66 66
71 65 71 62 49 23 20 33 28 43 42 46 51 72 69 58
63 69 52 45 38 22 16 14 15 16 12 13 13 12 14 10
8 3 9 11 19 24 34 41 42 39 46 48 47 47 47 47
47 46 47 47 47 47 47 48 47 47 47 47 47 46 47 46
46 46 45 45 46 46 46 46 46 46 46 46 46 46 44 45
44 44 44 48 58 55 55 53 50 48 47 45 43 43 43 42
42 41 41 41 41 41 44 56 55 52 50 50 50 45 39 39
38 39 39 38 38 39 46 52 56 58 63 57 57 58 60 68
64 68 69 53 33 27 63 20 29 28 33 38 53 69 63 60
71 70 57 39 22 9 11 16 15 17 16 19 12 12 16 11
9 5 8 6 12 20 27 39 43 41 44 47 47 47 47 47
47 47 47 48 48 47 46 48 47 47 47 46 46 45 46 46
47 47 46 46 46 46 46 46 46 45 46 46 46 46 45 45
46 44 44 49 59 57 55 52 52 53 55 56 49 49 47 44
42 41 41 41 42 41 43 53 53 51 50 51 51 48 40 39
39 39 39 39 40 48 50 51 52 56 60 62 58 48 60 65
66 74 62 61 25 23 36 19 23 29 39 57 61 65 56 70
67 68 54 31 17 17 21 23 29 26 22 19 17 15 15 12
12 8 10 9 8 7 18 32 42 43 43 46 47 47 47 48
47 47 47 47 47 47 47 48 48 48 47 47 48 48 46 47
47 47 47 46 46 46 47 46 45 46 47 46 46 46 45 45
48 48 47 49 50 50 54 53 54 57 58 58 50 50 52 53
49 47 46 45 43 42 44 39 31 35 40 45 49 49 42 39
39 39 39 39 44 50 47 51 51 56 60 59 52 46 57 57
72 75 64 41 12 15 16 25 22 25 41 62 67 63 65 67
65 64 46 25 22 46 57 56 65 44 29 22 21 16 17 12
14 9 11 13 10 9 15 24 35 42 43 44 47 48 48 48
48 47 47 48 47 47 47 49 48 48 47 47 47 47 46 47
47 47 46 46 46 47 47 47 47 47 47 46 46 47 46 46
46 50 52 55 21 5 18 38 48 52 55 56 40 11 19 30
39 47 46 50 51 47 44 35 19 17 18 17 19 30 43 40
40 39 41 41 51 48 47 44 49 57 61 58 49 58 56 73
89 68 53 22 10 14 16 19 28 34 45 56 63 69 68 65
66 59 38 28 31 74 89 92 96 72 39 33 27 16 21 14
16 11 15 15 11 9 12 16 26 43 44 45 48 48 48 47
48 48 47 48 48 47 47 48 48 48 46 47 46 47 47 46
47 46 47 46 46 46 48 47 47 47 47 47 47 47 46 45
43 46 55 60 20 0 0 13 22 23 24 41 37 0 0 0
2 8 16 25 35 43 46 34 13 9 13 15 2 13 44 40
40 41 40 46 46 45 42 43 53 54 62 55 55 49 58 72
60 52 21 17 14 22 16 21 32 41 50 55 63 70 69 65
57 51 42 34 41 94 107 116 103 86 45 43 31 21 27 20
17 13 15 17 13 9 9 11 21 41 44 46 47 48 48 48
48 48 48 47 47 48 48 48 49 48 47 47 46 46 46 47
47 47 47 47 47 48 48 48 48 47 45 45 45 45 45 45
50 54 58 60 22 0 0 9 14 19 19 34 38 0 0 0
0 0 1 0 1 7 43 34 9 4 1 10 2 12 45 40
41 40 43 45 39 43 41 43 45 60 58 59 47 44 41 44
59 43 10 27 12 24 21 28 38 51 64 78 79 68 60 49
53 59 47 43 60 102 115 121 103 88 51 49 39 28 36 32
20 16 17 17 13 10 9 10 16 34 44 46 47 49 48 48
48 48 47 48 48 48 48 49 48 49 47 46 48 47 47 48
48 47 48 48 47 47 47 46 47 47 47 47 47 46 46 46
8 19 31 44 24 0 0 6 6 8 10 31 41 5 0 0
0 0 1 0 0 2 43 31 3 0 0 6 1 12 47 41
42 45 47 42 36 41 44 40 48 61 60 52 40 33 25 28
32 20 20 38 13 26 27 27 36 51 69 72 64 54 47 52
58 60 59 57 82 110 114 121 106 88 64 57 45 36 44 38
26 20 18 15 13 10 9 10 15 29 48 52 48 48 49 49
49 48 48 48 48 48 48 49 48 49 48 47 48 47 48 48
48 47 49 49 49 49 49 48 48 48 48 47 47 47 46 46
0 0 0 7 22 0 0 0 0 0 6 26 36 0 0 0
0 2 0 0 0 1 42 23 0 0 0 2 2 14 49 41
43 44 45 39 41 41 42 36 49 61 57 39 36 25 16 20
31 9 67 28 22 30 21 33 32 44 60 57 52 53 52 57
58 62 77 73 95 109 115 112 109 85 81 66 55 50 55 43
30 25 20 14 12 9 7 8 12 20 41 47 49 48 48 49
49 48 49 49 49 49 49 49 48 48 48 49 49 48 48 48
48 47 48 49 48 48 47 47 47 46 47 48 47 47 47 47
0 0 0 5 20 0 0 0 0 0 2 32 39 0 0 0
0 14 11 1 0 1 41 22 0 0 0 0 1 13 50 41
45 44 44 43 38 50 34 33 49 53 48 29 30 23 16 32
19 4 32 19 32 35 30 37 54 55 60 63 61 55 57 51
57 68 91 88 92 105 111 100 107 86 96 76 70 71 63 49
40 30 23 18 14 10 8 9 11 17 30 43 47 50 49 49
49 49 49 49 49 48 49 48 49 48 49 49 48 49 48 48
48 49 49 49 49 48 48 47 48 48 48 48 48 49 49 49
0 0 0 4 17 0 0 0 0 0 2 33 42 0 0 0
3 17 19 13 6 0 41 20 0 0 0 0 0 10 50 43
44 42 45 43 39 45 31 34 48 47 35 24 27 23 16 32
6 8 6 14 38 29 56 45 54 64 60 57 55 50 48 53
62 80 96 95 78 95 102 92 107 94 101 82 85 86 76 56
45 36 23 18 14 10 9 9 11 15 21 41 44 51 49 48
48 49 49 49 49 49 49 50 50 49 49 49 48 48 47 46
48 49 49 48 48 49 49 48 49 49 49 49 49 49 48 49
17 3 0 3 15 0 3 0 0 0 2 30 45 0 0 0
6 18 20 19 18 3 38 23 0 0 0 0 0 8 50 43
41 44 45 40 41 37 30 37 45 44 20 25 23 19 19 23
4 9 6 15 40 40 51 54 52 44 42 44 47 44 53 66
80 103 96 75 57 83 92 90 103 105 100 87 78 86 73 58
42 31 27 21 19 15 11 8 11 15 18 38 43 50 50 49
49 49 48 48 49 49 48 49 49 48 48 49 49 49 48 48
49 50 49 50 50 50 49 50 50 49 47 46 45 47 48 48
9 1 0 3 15 0 1 0 0 0 7 30 45 1 0 0
5 18 19 20 18 3 38 26 0 0 0 0 0 6 50 44
41 51 39 40 39 34 34 44 44 35 14 27 24 22 21 19
13 8 11 13 34 43 43 41 49 48 49 51 49 60 73 86
102 110 102 56 41 77 82 89 95 107 91 77 75 80 69 52
38 32 30 22 15 11 11 9 12 15 15 32 43 46 50 50
49 50 49 49 49 50 50 49 49 49 48 49 49 47 48 48
49 50 49 49 49 48 49 48 45 43 43 44 44 43 39 35
7 3 0 3 16 1 0 0 0 0 14 34 48 2 0 6
2 4 13 18 16 1 35 45 30 19 11 6 3 9 49 45
44 57 36 52 39 34 40 49 47 27 21 30 23 26 25 28
19 5 15 19 25 39 41 47 50 51 58 62 69 80 97 106
114 118 109 51 33 66 74 86 98 91 75 73 77 72 61 45
37 38 34 24 21 14 11 11 10 14 13 26 41 46 50 50
49 50 49 50 50 50 49 49 49 49 49 49 49 48 46 47
48 48 45 46 46 44 45 42 38 35 31 27 24 23 22 21
0 2 0 5 32 13 7 8 4 0 5 33 60 36 28 22
16 6 2 7 11 0 33 55 54 50 49 48 48 48 55 44
48 49 34 60 36 35 40 61 53 29 31 37 23 30 21 23
14 16 20 23 23 38 38 28 38 44 53 65 82 101 118 125
126 109 109 51 32 69 75 86 84 68 62 64 59 53 55 57
53 42 33 32 32 19 15 11 11 11 14 21 39 45 50 51
49 49 50 49 49 50 50 48 47 47 45 47 46 46 45 45
45 42 39 35 32 27 25 24 23 23 24 20 25 28 28 29
0 0 0 6 55 57 45 42 40 31 20 36 64 37 37 40
41 40 35 29 27 22 42 56 54 52 52 55 61 62 58 44
53 41 35 54 38 35 48 75 53 32 42 38 23 31 27 18
14 13 29 23 32 37 48 43 40 52 69 89 100 111 134 147
125 100 96 49 37 67 71 73 62 57 56 64 70 68 60 54
47 46 49 46 45 30 17 13 11 9 14 16 33 45 49 50
49 48 46 45 45 45 46 46 46 45 43 42 38 35 32 29
27 25 25 25 25 26 27 28 29 30 31 20 19 33 33 34
0 0 0 6 57 59 50 57 58 63 60 60 59 22 19 21
22 23 26 29 33 39 47 43 42 47 50 54 59 61 56 47
50 38 40 40 41 34 58 79 46 31 49 42 25 29 33 21
14 6 39 31 28 41 41 49 59 69 77 95 105 126 149 146
118 101 99 45 48 58 62 64 59 61 72 77 67 61 63 66
71 71 58 58 49 28 21 13 12 11 15 15 29 45 48 49
47 47 48 48 43 42 39 36 32 29 27 26 26 26 27 28
29 30 31 31 32 33 34 32 32 36 36 34 14 36 38 37
1 0 0 7 58 50 53 60 62 67 64 52 44 23 20 20
19 19 18 16 16 15 16 16 21 25 31 43 43 40 41 52
46 38 52 32 38 44 68 61 33 37 52 42 36 31 32 26
17 4 34 39 39 36 37 42 50 55 65 84 118 146 149 134
121 110 87 40 80 70 63 68 86 96 94 103 103 97 94 104
102 81 70 61 46 26 19 17 14 13 13 14 30 45 45 42
38 36 41 47 30 25 26 27 29 29 30 32 32 33 33 34
35 36 37 38 38 38 38 35 29 35 40 40 19 33 41 38
42 33 24 25 53 42 52 58 61 65 65 56 47 27 22 21
19 18 16 15 15 14 14 14 15 15 19 39 39 39 36 51
46 42 51 30 36 57 61 42 31 49 52 40 44 32 38 29
20 5 31 43 50 43 35 37 43 52 63 97 137 148 135 118
131 93 46 63 99 83 61 92 132 125 133 140 138 134 129 114
92 80 78 59 54 32 21 20 13 14 13 13 27 30 29 29
28 28 33 46 28 29 31 33 34 35 36 37 38 38 39 39
40 40 41 41 42 40 41 42 40 31 36 41 34 20 42 39
57 58 58 60 53 26 38 48 53 58 61 55 50 30 22 19
17 13 15 15 16 16 16 16 17 19 24 40 16 24 43 58
45 44 48 34 36 65 42 31 42 53 48 43 52 40 45 37
10 6 24 45 41 50 42 42 47 57 77 97 115 116 105 100
85 57 58 102 92 66 92 135 144 145 147 148 148 142 123 102
93 89 73 70 56 43 31 16 14 17 12 15 31 33 33 35
34 34 33 41 29 34 37 39 40 40 41 42 43 42 43 43
42 42 42 42 43 43 41 44 44 43 30 35 39 15 38 42
59 59 59 61 47 4 2 7 11 20 28 31 47 32 20 18
10 3 4 4 13 19 19 16 18 21 25 42 40 37 55 62
43 42 44 38 41 58 38 30 47 49 37 44 50 49 43 40
24 4 13 37 36 42 42 46 55 72 89 103 106 110 107 103
81 85 118 112 94 117 143 145 133 139 138 142 143 145 133 126
120 109 91 90 74 67 19 15 17 17 15 23 39 38 38 40
40 40 39 48 35 38 42 43 43 43 44 44 45 44 44 45
45 45 44 44 43 44 42 43 45 45 44 30 34 23 27 42
53 55 58 61 41 1 0 0 0 1 10 21 47 31 18 17
8 0 0 0 6 10 10 4 8 14 17 43 51 43 55 53
42 45 38 33 43 43 33 38 51 42 36 51 52 60 51 41
40 24 20 27 24 36 45 52 63 94 130 142 141 129 121 117
130 146 142 139 143 139 140 132 121 111 110 106 93 102 114 127
135 127 103 102 96 87 19 16 18 16 18 35 44 44 44 44
45 42 35 31 27 40 44 44 45 45 46 46 46 46 46 47
46 46 45 45 44 43 44 43 45 46 46 43 30 27 11 23
43 41 47 56 39 0 0 0 0 3 0 12 51 32 18 16
9 0 0 7 2 0 1 0 0 3 8 41 52 41 51 42
37 55 32 32 45 33 35 43 47 44 37 52 55 62 60 41
40 40 25 26 25 39 51 64 95 125 148 150 149 149 150 149
149 149 149 142 138 136 126 119 114 110 90 62 52 57 69 98
112 117 108 111 99 67 23 10 20 18 29 44 47 45 45 46
45 44 23 13 12 40 46 47 48 47 46 46 47 47 47 47
47 47 46 47 46 44 44 44 43 46 47 46 43 26 8 1
41 38 45 57 37 0 0 0 0 3 0 3 51 24 13 4
0 0 2 15 11 4 3 0 0 0 5 41 55 42 51 44
51 54 30 32 39 32 41 43 47 41 46 58 56 63 64 42
37 46 34 32 34 42 58 83 110 135 150 150 150 149 150 150
149 149 148 140 141 141 140 134 117 94 83 70 73 68 77 93
102 117 112 107 67 26 10 16 20 34 46 47 48 47 45 42
38 44 23 16 10 37 46 47 49 48 48 47 48 47 48 47
48 47 47 46 46 46 45 43 42 44 46 46 44 40 18 0
43 42 49 56 37 0 0 0 0 0 0 5 53 13 0 0
0 0 2 11 17 10 3 0 0 0 4 41 57 43 41 43
51 44 37 29 38 31 32 34 34 38 44 57 58 69 66 43
42 45 44 34 42 54 76 96 115 141 150 151 150 150 149 150
149 149 149 148 147 142 120 102 85 46 27 28 58 92 95 97
113 127 113 81 33 18 14 36 42 46 48 49 49 29 13 7
10 40 18 11 8 36 47 48 49 48 48 48 48 47 47 48
48 47 47 48 46 46 47 44 42 43 44 44 42 42 35 0
21 28 37 43 34 0 0 0 0 0 0 7 54 15 0 0
0 0 2 7 21 18 14 4 0 1 4 41 56 44 32 37
46 41 41 33 38 28 29 28 28 44 48 52 68 77 65 45
43 41 50 37 46 56 76 100 120 144 151 150 150 150 150 150
150 149 149 148 140 109 88 99 135 81 27 59 70 109 121 130
142 143 116 46 15 16 35 49 48 49 49 50 48 30 21 29
36 43 23 3 6 35 46 48 48 48 48 47 47 47 47 48
47 47 47 47 46 46 46 46 44 41 40 40 41 44 39 3
0 0 0 4 27 0 0 0 0 0 0 9 53 11 0 0
0 0 10 20 22 21 22 6 0 2 6 41 56 45 38 41
46 55 34 40 35 27 25 22 37 44 53 52 76 74 62 50
45 39 48 39 49 62 84 109 128 149 151 150 150 150 150 150
149 150 148 136 123 117 114 118 125 104 68 79 94 118 142 148
149 148 126 39 13 21 46 50 50 50 50 49 50 48 48 48
48 45 27 7 8 35 46 47 49 48 48 48 48 48 48 48
48 47 47 48 47 46 46 46 46 44 40 41 42 45 40 4
1 0 0 0 24 0 0 1 9 3 0 5 51 9 0 0
0 0 10 24 30 19 14 4 0 4 8 38 55 46 37 37
47 53 37 46 28 26 21 34 45 47 53 58 71 72 58 50
48 43 50 47 52 70 94 117 141 151 150 150 150 150 150 150
149 149 147 143 142 147 144 139 129 112 92 83 106 135 148 148
149 149 143 65 26 39 50 51 50 50 50 50 50 49 48 47
47 45 35 5 8 37 46 48 48 48 47 47 48 46 47 47
47 47 47 47 46 46 46 46 46 45 41 40 43 46 43 6
5 0 0 0 23 0 0 10 23 12 1 6 50 7 0 0
0 0 3 6 26 6 0 1 1 3 4 35 56 44 32 36
54 44 39 39 27 25 26 47 41 47 47 65 58 69 54 46
52 48 53 58 63 84 103 125 147 150 150 150 150 150 150 150
150 149 149 149 149 149 148 146 139 129 116 101 111 144 149 149
148 149 148 120 37 46 51 50 50 49 50 50 49 49 48 47
46 44 38 14 17 40 47 48 48 49 48 47 47 47 47 47
47 47 47 47 47 46 46 47 46 45 41 39 42 45 43 6
21 6 1 0 23 0 0 19 23 16 4 6 49 6 3 1
0 1 1 0 22 6 0 0 0 0 1 31 53 39 29 38
48 37 36 29 26 24 46 44 40 47 57 67 47 64 46 42
48 48 60 64 65 93 109 129 149 150 150 150 151 150 150 150
150 150 150 150 149 149 148 145 133 119 113 107 109 139 149 149
148 149 149 145 87 48 51 49 49 50 49 49 49 49 49 48
45 43 39 34 35 43 48 48 48 48 47 48 48 46 47 48
48 47 47 47 47 46 47 46 46 46 42 38 34 40 36 8
29 11 5 0 31 20 18 29 27 25 14 11 49 5 2 0
0 0 0 0 21 11 0 0 0 0 0 28 48 38 36 36
32 34 35 26 26 34 50 28 40 49 62 61 42 54 44 44
47 52 62 66 70 99 113 126 150 151 151 151 150 150 150 150
150 149 149 149 149 148 148 143 136 126 115 113 126 146 149 149
149 148 149 149 128 59 50 51 50 49 49 50 49 48 48 48
47 44 41 41 42 47 49 48 49 49 48 48 48 47 48 48
48 48 48 48 47 47 47 47 46 45 41 38 33 30 37 11
17 7 3 0 38 50 51 55 52 52 52 53 56 7 0 1
0 0 0 1 23 12 3 4 5 3 1 24 43 33 34 28
30 35 28 23 31 45 33 32 49 50 67 45 37 52 42 45
44 50 58 63 70 91 111 125 148 150 150 150 150 150 150 150
150 150 150 150 149 149 149 147 143 136 128 131 143 148 149 149
149 149 149 148 144 87 50 51 51 50 49 49 49 49 49 48
47 45 43 43 47 48 48 48 48 49 48 48 48 48 48 47
48 47 48 48 48 47 47 46 46 46 42 39 40 43 43 14
2 2 0 0 38 52 53 57 55 56 62 66 61 27 17 23
10 6 4 8 26 16 8 9 7 4 3 20 38 32 27 25
25 29 17 25 32 54 32 32 52 62 51 34 40 46 44 48
42 49 52 62 71 89 114 124 144 150 150 150 150 150 150 150
150 150 150 149 150 149 149 148 149 145 141 139 141 145 148 149
149 149 149 148 148 119 53 50 50 50 50 49 50 49 48 47
47 46 45 45 48 48 50 49 48 49 49 49 49 48 47 47
48 48 47 47 47 47 46 45 45 44 41 38 39 41 42 17
2 1 0 0 36 51 52 54 54 56 65 67 65 47 44 44
40 38 36 36 38 31 27 24 24 21 24 29 35 33 31 23
22 26 14 27 36 46 31 43 64 48 28 29 32 41 47 51
40 45 48 64 70 87 109 122 137 150 150 150 150 150 150 150
151 150 150 150 149 149 149 149 149 148 144 142 140 146 148 149
148 149 149 148 148 143 78 49 50 50 50 50 49 48 48 48
47 46 46 47 47 46 46 46 47 48 48 48 47 47 46 46
47 47 48 48 48 46 47 45 44 44 42 38 38 42 43 20
1 0 0 0 36 46 47 48 49 49 51 49 49 46 47 47
47 44 45 46 45 43 41 38 37 35 37 39 39 33 29 27
26 17 12 24 37 40 41 66 57 30 21 25 26 39 50 61
37 46 49 57 69 93 113 119 131 148 149 149 148 149 151 150
150 150 150 150 150 149 149 149 149 149 148 145 142 148 149 149
149 148 149 149 147 146 122 53 50 50 50 50 49 48 48 49
48 46 46 48 48 47 48 48 48 49 48 48 48 47 47 48
47 47 48 47 47 47 46 46 46 45 42 38 38 42 42 23
2 0 0 0 39 49 45 46 46 47 46 43 43 47 48 50
50 48 49 48 47 46 46 51 52 48 46 40 42 36 31 26
28 12 9 26 36 44 63 59 37 29 24 25 24 40 53 61
40 44 47 58 77 99 115 122 123 145 148 147 146 146 149 150
151 151 150 150 150 149 150 150 149 150 149 144 144 147 146 148
148 147 147 148 148 146 139 78 49 49 49 49 49 49 49 49
49 47 49 50 49 49 48 49 49 49 48 48 48 48 48 47
48 47 48 46 47 46 46 46 46 46 42 37 37 41 41 24
22 18 14 11 41 52 46 46 46 46 47 48 50 52 50 52
55 58 56 48 46 47 48 58 59 56 52 46 40 37 31 27
26 8 6 21 38 57 44 41 34 25 30 24 30 48 65 56
43 40 50 62 75 95 115 125 129 137 144 142 142 143 149 151
150 150 150 150 150 149 150 150 150 150 149 146 141 133 146 146
144 142 145 148 148 148 138 103 50 50 50 50 49 49 49 49
49 48 49 50 49 49 48 49 48 49 48 48 48 48 48 47
48 47 48 46 46 46 46 45 44 45 42 36 36 40 41 26
54 56 60 58 61 56 49 49 50 49 50 54 56 58 51 54
57 62 56 51 45 42 47 60 59 56 52 47 40 30 30 32
27 8 8 16 45 53 42 39 37 25 18 21 30 56 68 42
41 45 53 64 75 90 106 118 129 134 140 145 140 141 147 151
150 150 151 150 150 150 150 150 149 150 148 137 122 130 149 149
149 149 148 149 149 149 144 117 61 50 51 50 50 49 49 48
50 49 49 49 49 49 49 49 49 49 49 48 48 48 48 47
47 47 48 47 47 46 46 46 45 43 42 35 35 39 40 28
65 65 65 65 65 58 47 43 44 44 45 52 58 61 52 54
53 52 53 52 49 42 40 53 51 49 49 43 44 28 31 39
31 15 10 23 36 49 54 40 37 27 18 19 47 73 58 40
45 54 56 67 70 82 104 116 124 134 145 145 139 141 144 150
151 150 150 150 150 150 150 150 150 148 137 116 115 127 141 147
135 121 138 142 144 147 148 123 74 48 49 49 49 49 49 48
49 49 49 49 49 48 49 48 48 48 48 48 47 47 47 46
47 46 47 46 45 45 45 44 44 44 42 35 34 39 39 30
55 58 60 61 63 51 14 19 12 11 14 21 35 59 53 48
28 27 34 35 33 39 43 39 18 15 18 37 44 31 31 35
30 17 10 20 30 54 58 38 41 27 29 32 65 69 49 49
56 46 62 68 64 74 97 115 122 138 145 142 143 142 146 150
151 150 150 150 150 150 150 150 149 139 117 116 140 136 113 115
100 67 83 95 117 128 139 118 72 48 49 48 48 48 47 46
48 47 49 49 49 49 49 49 49 48 48 48 48 48 47 46
47 47 47 46 45 46 45 43 44 43 41 35 34 38 39 31
37 37 38 38 41 38 4 0 0 0 0 0 9 55 53 32
3 2 5 10 16 33 47 40 10 3 8 44 41 34 27 34
39 21 7 19 26 55 60 40 41 33 34 37 66 52 46 61
37 41 70 71 58 68 87 111 124 137 143 143 137 146 149 150
151 151 151 150 150 150 150 149 138 116 117 137 150 150 140 120
133 139 128 104 90 112 119 95 56 49 40 33 32 29 26 23
28 43 50 50 49 49 48 49 48 49 48 47 48 48 47 47
47 47 48 46 46 45 45 44 44 43 42 36 34 37 39 33
45 44 43 42 43 39 12 6 0 0 0 3 19 55 48 12
0 0 0 0 7 36 47 41 6 1 15 48 47 35 31 37
53 20 10 12 19 47 56 34 35 34 29 50 60 42 51 50
32 47 76 67 59 62 76 101 123 137 143 145 144 148 151 151
151 151 147 145 150 150 148 133 111 112 131 148 151 150 150 148
135 120 96 99 103 91 77 55 51 50 32 15 16 15 16 15
20 43 50 50 50 49 49 49 49 49 48 47 48 48 48 47
46 46 47 47 45 46 45 44 44 43 42 36 33 36 39 32
50 49 49 48 50 40 10 7 0 0 0 4 24 54 40 3
0 0 0 0 0 33 47 41 6 0 28 40 49 40 30 43
56 19 11 10 12 39 47 36 32 40 39 60 44 46 60 53
36 52 75 58 57 59 66 93 120 134 143 147 148 151 152 151
151 150 140 149 151 150 129 106 117 138 148 150 150 150 150 145
130 101 53 58 44 24 46 50 49 49 31 16 16 16 16 16
19 44 51 51 51 50 49 49 49 48 47 47 48 47 47 48
47 46 46 46 45 45 45 43 43 42 41 35 32 34 36 32
50 50 51 51 53 43 8 7 0 0 2 6 9 50 35 1
0 0 0 0 0 33 47 40 7 1 35 40 49 41 31 45
69 29 12 14 9 31 43 37 28 40 44 47 39 49 56 38
46 62 69 52 61 58 69 89 114 128 142 146 148 151 151 151
151 147 147 151 150 142 111 121 143 151 150 150 150 149 149 137
115 96 60 51 15 16 44 49 49 47 29 15 15 16 16 15
19 42 50 50 50 50 49 49 48 48 48 48 48 47 47 47
46 46 45 46 45 45 44 43 42 41 40 35 29 31 34 32
46 33 28 36 51 47 7 0 0 0 5 12 5 48 32 1
0 0 0 0 0 33 46 38 10 15 26 33 33 49 28 57
78 35 17 18 17 27 49 37 32 41 41 32 40 57 50 34
47 72 67 54 66 58 72 80 111 118 137 142 148 150 151 151
151 149 150 151 150 126 107 123 143 147 149 149 149 148 142 132
120 111 87 35 10 14 41 49 48 47 29 14 14 15 15 14
15 38 50 50 49 49 49 48 48 47 46 46 46 46 46 45
45 45 45 45 45 44 44 43 41 41 39 34 30 30 34 32
42 17 0 9 41 54 21 3 0 0 4 7 1 42 30 0
0 0 0 0 0 30 48 38 12 26 16 31 21 40 28 51
75 43 14 17 18 25 46 39 31 38 35 26 42 57 46 33
47 74 62 64 79 60 71 72 108 118 131 136 146 149 150 150
151 150 150 150 149 122 76 82 100 105 103 105 107 111 105 102
96 83 97 25 10 14 41 48 48 48 33 15 14 15 16 15
15 33 47 47 46 46 46 47 47 46 46 46 47 47 47 46
45 45 45 44 43 43 42 42 40 39 38 32 28 28 32 30
41 20 0 3 36 54 19 2 0 0 4 10 4 40 31 0
0 0 0 0 0 21 48 39 21 23 23 27 17 27 34 43
63 49 12 27 19 25 39 36 29 39 33 29 52 51 48 36
55 60 54 74 89 61 65 67 101 119 124 128 141 146 149 151
150 150 150 150 149 127 119 90 110 123 121 134 123 118 99 91
79 103 110 18 9 13 39 47 46 46 37 23 22 22 23 24
25 46 44 47 48 47 47 47 47 46 45 45 45 46 46 45
44 43 44 43 42 41 41 40 39 37 36 31 26 26 30 29
40 23 0 1 31 50 7 0 0 0 0 0 1 40 32 0
0 0 0 0 0 19 49 38 16 36 24 26 21 15 31 37
50 44 15 32 25 28 41 35 35 35 30 34 50 55 60 38
53 51 52 73 87 66 61 68 85 114 122 125 133 142 148 149
149 150 149 149 148 131 139 146 134 131 125 148 147 148 144 137
112 133 80 12 15 11 38 46 47 46 36 19 18 18 13 9
16 69 16 14 32 48 47 47 47 47 47 46 45 45 45 44
43 43 43 42 42 41 40 39 38 37 35 30 25 25 28 28
39 27 0 0 26 45 4 0 0 0 0 1 0 38 37 0
0 0 0 0 0 15 48 36 38 27 11 33 25 15 29 41
38 34 18 23 43 34 37 38 41 33 29 39 43 59 73 50
53 43 49 69 77 71 60 69 75 108 116 121 127 135 145 149
150 150 149 148 146 134 143 147 149 148 143 142 136 142 148 145
104 115 46 11 17 14 36 46 48 45 37 15 15 15 10 1
9 28 34 15 19 47 47 47 47 46 46 46 45 45 45 44
44 43 43 43 42 41 40 38 37 36 34 30 24 23 27 28
39 29 0 0 22 43 7 1 0 0 3 17 4 37 44 10
8 7 12 8 9 20 40 37 39 40 32 35 31 12 25 37
30 23 16 13 50 39 44 44 40 38 32 40 34 57 84 55
53 40 52 64 71 76 59 68 72 101 109 116 119 128 138 146
149 150 148 145 143 140 148 149 149 149 149 149 144 122 117 110
91 88 18 12 11 26 37 46 49 47 38 15 14 15 16 3
7 14 22 14 19 47 47 46 47 47 47 45 45 45 44 44
44 43 43 42 41 40 39 38 36 36 34 30 24 23 27 28
38 32 2 0 14 47 39 37 30 32 42 50 44 49 52 54
51 49 51 51 48 37 56 41 46 52 48 34 26 19 26 41
21 11 16 17 40 54 44 41 47 44 41 33 29 52 74 63
55 40 55 62 67 82 63 65 62 90 105 111 114 120 128 138
147 148 147 145 147 147 149 146 149 149 148 147 141 124 110 95
84 60 19 15 10 14 39 46 49 46 39 16 14 15 14 8
11 12 6 8 17 47 47 46 46 46 46 45 45 45 45 44
44 43 43 42 41 39 38 37 34 34 32 29 22 22 26 28
38 33 2 0 9 49 51 49 44 49 59 60 54 49 48 62
61 58 57 59 49 61 59 44 44 54 48 36 20 23 33 37
15 7 15 18 39 55 35 42 51 50 45 31 28 56 73 67
60 46 58 64 65 88 77 68 60 70 97 101 110 112 121 129
140 143 144 144 149 150 150 148 149 149 149 146 136 125 112 97
80 43 22 23 19 13 35 45 48 47 38 15 13 14 11 10
10 13 7 6 18 43 30 22 35 46 46 46 46 45 44 44
43 41 42 41 40 39 38 36 34 34 32 28 22 21 26 27
37 34 4 0 7 48 50 44 44 49 58 60 54 46 41 50
54 53 53 51 42 53 52 43 39 49 39 31 19 29 35 37
20 9 19 18 33 28 36 33 37 44 47 32 28 48 83 69
68 45 52 64 69 90 95 85 70 59 79 94 103 108 114 123
130 139 142 144 149 150 150 150 149 149 149 148 139 122 105 88
77 21 25 30 29 25 33 45 46 47 39 15 13 10 6 32
18 0 0 0 7 20 28 32 10 38 47 45 45 45 44 44
43 43 42 41 40 39 38 36 34 34 31 28 21 21 25 27
37 34 6 0 4 47 41 36 36 39 49 60 56 49 43 33
34 34 34 34 31 34 37 39 39 48 37 35 20 17 25 34
24 10 16 14 18 22 32 26 29 35 48 42 29 45 83 66
71 53 37 64 72 92 96 105 91 71 72 82 92 103 110 119
129 138 142 145 149 150 150 150 149 149 149 148 140 123 105 87
64 18 30 51 56 40 33 41 45 46 39 15 13 11 38 69
63 4 1 1 22 42 46 46 32 22 46 45 44 44 44 43
42 42 41 40 39 38 37 35 34 33 31 29 22 20 25 26
37 34 9 3 12 47 32 21 26 29 37 46 45 43 45 34
34 33 37 40 35 41 41 43 46 49 40 41 31 17 20 33
29 14 13 10 16 23 19 13 25 29 44 55 34 44 80 66
70 69 37 69 70 95 94 112 108 92 92 87 84 92 104 116
124 137 145 145 149 150 150 150 150 150 149 147 141 126 112 93
42 15 26 40 53 50 43 37 45 44 40 16 13 12 38 48
65 6 0 1 41 47 47 46 41 17 46 45 45 44 44 43
41 40 39 39 37 36 36 35 34 33 31 28 22 20 24 26
36 34 22 26 35 51 26 0 1 2 4 10 16 23 47 40
48 46 47 57 52 44 42 42 47 44 47 47 40 25 28 30
29 25 13 4 10 21 18 12 14 25 37 71 39 51 71 67
66 91 46 62 70 95 94 109 112 107 108 103 93 84 92 106
120 132 143 144 147 150 150 150 150 150 150 149 148 138 127 104
27 5 11 19 27 40 28 36 42 45 39 17 12 12 18 13
23 1 0 1 40 47 47 45 42 17 45 45 44 44 44 42
40 38 37 37 36 36 35 35 34 32 31 29 22 21 25 28
35 33 41 51 54 56 27 0 0 0 0 0 5 24 50 40
53 53 51 64 61 28 13 16 23 40 36 43 44 18 31 33
50 32 9 7 10 17 12 14 15 22 26 74 53 65 66 64
65 88 59 57 64 98 96 105 111 112 123 118 112 99 86 91
106 122 136 143 141 147 150 150 150 150 150 149 150 143 131 106
22 5 8 14 20 18 22 24 41 45 40 31 26 22 3 0
1 0 0 4 36 47 47 46 41 21 45 44 44 43 42 39
37 35 35 34 34 35 35 34 33 32 31 29 22 20 25 27
34 32 42 54 56 58 34 0 0 0 0 0 0 19 51 39
50 42 19 27 44 20 5 0 14 32 23 37 40 20 31 41
70 30 12 8 11 20 11 10 25 32 18 62 61 66 67 55
52 76 70 57 61 98 99 95 108 112 129 129 128 120 105 94
94 109 122 134 136 135 146 150 149 149 150 149 148 133 121 97
17 4 11 20 20 26 16 19 39 44 44 41 13 35 25 0
0 0 0 0 33 47 47 46 36 27 45 44 43 43 42 39
36 35 34 33 31 33 34 34 32 31 31 29 22 19 23 26
34 32 40 50 49 49 30 0 0 0 0 0 0 17 51 38
49 36 0 5 36 14 18 3 12 30 15 30 33 17 29 48
62 22 15 12 13 13 9 8 24 32 21 40 62 72 77 56
46 64 74 49 62 94 108 95 106 106 128 131 134 136 126 111
100 96 109 123 131 124 128 145 150 149 149 149 140 113 117 75
7 7 10 19 23 35 22 18 34 44 46 41 36 64 66 5
0 0 0 0 33 47 46 43 21 37 42 38 38 43 42 37
33 31 31 30 30 31 32 32 31 30 30 29 22 18 22 25
33 30 27 22 22 23 6 0 0 0 0 0 0 20 52 39
50 37 0 5 33 15 2 10 8 20 10 23 25 24 29 48
33 18 19 21 24 14 8 14 30 33 32 32 57 76 68 58
37 48 65 45 36 51 90 97 106 103 118 127 131 137 132 125
113 102 97 108 121 125 113 116 134 136 135 133 119 111 107 28
2 7 15 18 18 29 38 23 32 40 39 34 28 40 43 4
0 0 0 0 12 17 16 11 12 37 19 19 19 43 41 37
33 31 30 30 28 30 32 33 31 30 29 28 22 17 20 25
33 29 26 19 20 21 4 0 0 0 0 0 0 22 51 39
50 37 0 4 31 18 0 5 6 13 14 22 28 28 32 38
15 21 26 29 29 22 13 24 42 24 47 33 58 81 68 53
49 32 56 44 26 10 14 28 66 91 109 118 122 131 132 127
118 107 98 92 102 116 111 89 84 92 95 96 92 86 45 18
7 4 23 30 28 20 39 41 23 13 9 2 0 0 1 0
0 0 0 0 0 0 0 0 4 8 20 88 47 42 40 36
32 30 29 30 29 30 32 31 31 30 30 29 23 18 21 26
33 29 26 20 21 24 4 0 0 0 0 2 0 18 50 39
51 37 0 4 28 19 0 0 8 18 15 34 28 22 32 23
9 33 34 47 39 29 24 36 39 18 47 40 58 75 69 47
42 25 41 42 19 4 8 11 13 13 29 59 89 116 124 119
113 102 96 88 80 84 95 93 73 50 36 31 33 18 34 39
11 3 15 37 44 34 41 47 24 12 8 7 9 9 10 11
14 16 17 18 18 16 3 0 20 23 71 99 110 32 27 24
30 30 29 29 30 31 32 32 31 31 30 29 24 20 22 27
33 29 28 25 24 25 4 0 0 0 0 5 0 14 52 40
52 38 6 6 27 24 7 1 8 14 27 29 19 22 21 4
12 39 45 50 37 30 26 51 36 21 39 55 64 74 72 42
30 23 32 35 20 1 4 7 11 9 12 15 17 21 36 48
50 56 63 68 67 61 60 60 53 35 14 7 10 7 21 36
50 35 7 20 45 46 31 36 26 25 24 24 23 23 23 24
25 25 26 26 24 19 3 0 1 2 1 2 4 9 7 7
29 32 31 32 32 34 35 35 34 34 34 33 28 23 24 28
33 28 28 27 28 27 4 3 3 0 2 15 6 12 53 41
53 41 21 7 25 24 8 7 9 17 11 12 29 25 9 1
12 50 56 37 41 19 23 48 27 26 31 66 68 70 71 39
26 23 31 29 22 1 3 4 7 5 8 13 16 17 16 16
15 15 12 12 16 17 15 11 6 1 5 6 9 3 11 17
40 23 11 17 26 31 19 25 22 26 27 25 25 24 26 26
26 27 27 27 25 20 3 0 0 0 0 0 0 10 9 9
31 35 32 30 29 30 28 26 23 19 17 15 11 7 5 6
32 28 28 28 28 28 6 5 4 0 2 19 21 11 54 43
54 39 30 16 24 22 5 13 16 14 1 9 22 27 14 0
17 51 45 29 24 18 26 42 27 32 26 51 68 72 72 46
17 27 30 26 22 4 1 4 3 3 4 9 10 11 13 14
15 15 15 15 15 14 12 9 4 4 5 6 5 1 6 6
6 8 9 12 10 17 14 14 22 25 22 20 20 19 17 17
15 14 13 15 18 21 4 0 0 0 0 0 0 4 13 25
29 28 27 28 30 33 36 36 37 38 39 40 41 36 36 41
32 27 27 28 28 31 22 21 24 21 24 36 41 36 58 45
55 35 25 27 22 24 11 18 21 15 12 15 20 29 32 8
15 53 26 19 8 17 27 39 29 31 26 42 58 66 70 44
20 25 25 22 22 3 3 4 3 5 3 5 7 8 9 9
10 12 11 11 10 9 7 5 4 4 6 5 3 0 7 6
1 2 2 2 6 6 12 8 10 10 10 10 11 9 10 9
9 8 9 11 9 10 7 4 0 0 0 0 0 0 35 56
54 52 52 52 54 56 56 56 55 54 53 53 51 44 42 47
32 26 27 29 28 31 46 50 53 54 56 61 65 66 68 49
54 31 12 29 24 37 32 32 23 28 31 30 24 28 27 39
21 43 19 6 5 20 25 29 34 28 30 45 47 77 70 47
21 24 19 27 18 2 5 3 4 8 5 4 6 8 7 7
8 7 8 6 5 5 6 5 6 8 8 4 3 0 2 6
8 10 9 3 4 9 9 11 9 10 11 10 9 8 9 10
10 8 10 11 11 11 10 9 8 1 0 0 0 0 39 55
54 53 52 52 53 55 55 54 54 53 53 53 51 44 42 46
31 26 26 29 30 30 49 57 57 57 60 65 68 69 70 58
53 32 2 14 21 36 33 33 26 34 33 37 25 26 30 40
67 38 15 1 3 23 23 20 26 23 38 43 37 78 63 42
24 17 18 21 13 2 3 4 7 9 8 6 7 8 8 8
8 8 6 5 4 7 7 9 12 11 7 5 3 1 5 10
12 12 11 11 11 10 10 10 10 10 10 9 8 9 10 10
8 8 11 11 11 11 10 10 10 7 2 0 0 0 40 55
53 53 53 52 53 53 54 53 53 53 52 52 51 45 42 45
31 25 26 28 29 27 36 44 43 43 44 47 49 49 49 44
50 34 1 8 19 40 47 44 34 37 37 42 33 25 30 30
59 69 21 0 4 21 22 22 13 24 31 38 32 66 57 38
25 12 17 20 10 2 2 5 6 9 8 6 8 8 8 8
8 7 6 6 8 10 12 12 13 9 5 4 3 1 7 10
10 12 9 11 11 10 10 11 12 11 9 9 11 10 11 10
9 9 11 10 11 11 11 11 10 9 7 1 0 0 42 53
52 52 52 51 52 52 53 52 52 52 52 52 51 45 40 44
31 25 25 29 29 27 21 19 19 20 21 26 31 33 34 32
45 33 2 5 15 46 50 39 37 38 39 39 37 27 28 22
31 76 49 0 9 21 26 25 17 18 29 45 38 51 53 32
23 11 24 16 9 1 1 5 7 10 11 9 10 10 8 8
9 7 8 10 13 13 12 13 11 6 5 4 3 2 8 10
13 12 10 12 10 11 11 12 11 10 8 10 11 11 12 10
8 8 11 11 11 10 11 11 11 10 8 6 1 0 45 53
52 52 51 51 51 51 52 52 51 51 52 51 51 46 41 43
29 24 24 29 29 27 23 21 20 21 23 27 32 34 34 32
45 29 7 6 24 44 36 37 37 35 25 23 23 21 17 11
27 52 77 16 10 23 28 31 31 24 37 56 29 51 33 33
26 17 26 6 7 1 0 2 6 10 9 9 13 12 10 10
9 9 11 12 12 13 14 11 7 3 5 4 1 3 9 11
13 10 7 8 9 11 13 11 9 7 8 10 11 12 11 8
8 9 11 11 11 10 11 11 11 10 8 8 3 2 47 52
52 51 51 51 51 51 51 51 51 51 51 51 51 46 41 42
29 24 24 29 29 29 27 26 25 24 26 29 34 34 35 35
50 40 29 37 40 21 11 9 2 15 12 0 4 14 7 2
20 49 58 34 15 24 29 47 53 35 55 52 18 40 20 30
25 17 20 1 10 0 0 2 5 8 9 10 12 13 14 12
13 11 12 13 13 13 11 8 4 3 4 3 1 7 10 13
11 7 8 6 6 10 12 10 6 4 3 3 6 11 10 9
7 8 12 11 10 11 11 11 10 10 8 7 6 8 48 51
52 51 50 51 51 50 51 51 51 51 50 51 50 47 41 41
31 24 24 27 29 29 28 26 27 28 28 33 38 38 36 35
50 45 48 47 8 0 0 0 0 0 7 3 0 8 7 2
14 57 52 32 20 31 39 55 66 49 76 53 22 28 19 17
20 20 9 8 11 1 0 0 4 7 8 10 12 13 12 12
13 13 14 12 12 10 5 4 3 4 4 2 3 10 11 13
8 7 7 7 8 9 7 7 3 3 4 3 3 10 11 11
8 9 10 11 9 9 9 9 8 10 8 6 8 5 37 52
51 51 50 51 51 50 51 51 51 51 50 50 50 48 41 41
26 24 24 27 28 28 28 26 26 27 28 32 36 38 35 31
36 33 26 6 1 2 0 0 0 0 0 0 0 1 7 6
8 61 54 32 22 22 54 52 59 65 54 54 36 34 14 8
16 16 9 4 6 0 0 0 1 3 4 6 8 10 11 11
12 11 10 8 8 5 3 3 5 5 3 2 7 10 13 13
8 7 8 9 10 10 10 8 6 6 5 5 6 9 9 6
8 8 11 10 9 9 10 9 8 8 7 5 8 6 13 49
51 50 51 50 50 50 50 50 50 50 50 50 50 48 41 40
21 23 24 27 27 28 29 27 27 27 28 31 36 36 34 33
32 17 4 3 3 5 0 0 0 0 0 0 0 0 0 4
6 38 64 29 20 15 48 64 52 51 49 37 47 37 11 10
14 11 5 7 4 0 1 0 0 2 1 3 5 6 6 7
7 7 5 4 2 3 3 5 7 4 4 6 9 11 13 10
10 8 7 8 10 10 9 9 6 6 5 6 8 9 8 7
7 7 10 10 10 9 9 7 7 9 5 5 8 7 6 30
52 51 50 51 50 50 50 50 50 50 50 50 50 48 41 40
22 23 23 27 28 28 28 28 28 28 29 31 36 36 34 34
18 3 5 5 4 4 2 0 0 0 0 0 0 0 0 0
8 18 49 41 20 14 24 57 49 46 57 27 41 43 15 5
5 10 5 3 0 0 0 1 0 3 1 1 1 1 1 2
2 2 1 2 3 4 6 8 40 3 6 9 10 14 12 10
9 8 8 8 10 10 8 7 6 6 5 6 7 8 9 9
6 7 10 9 9 10 8 6 6 10 6 6 9 7 5 9
47 50 50 50 50 50 49 49 49 50 50 50 50 48 41 38
20 20 23 25 27 27 27 28 28 29 30 32 36 36 34 20
1 4 5 6 5 4 4 0 0 0 0 0 0 0 0 0
1 12 23 30 17 13 10 38 43 37 28 33 32 31 18 6
5 7 2 0 0 0 0 0 1 4 5 4 4 3 3 3
2 2 3 5 5 4 3 24 22 6 10 11 13 13 11 11
10 9 9 9 10 10 7 6 7 5 5 7 9 9 9 7
7 7 9 11 9 9 7 5 5 8 4 6 9 7 7 5
23 50 50 50 49 50 49 49 49 49 49 49 49 49 41 39
16 15 22 26 26 26 27 27 28 28 30 33 36 36 30 3
2 4 4 5 4 5 5 3 0 0 0 0 0 0 0 0
0 0 4 21 14 5 5 10 28 24 22 22 30 22 30 13
4 1 0 0 0 0 0 0 2 5 7 7 8 7 7 7
5 6 6 4 4 4 5 36 9 11 12 13 13 11 10 11
11 10 9 10 10 9 8 7 7 4 5 8 8 10 9 9
8 8 8 8 8 8 7 4 6 8 4 6 9 8 5 6
6 42 49 49 49 50 49 49 49 49 49 49 49 48 41 38
18 20 21 26 26 27 27 27 27 28 29 34 37 36 13 0
2 4 3 5 3 4 5 4 1 0 0 0 0 0 0 0
0 0 0 1 12 4 2 2 13 18 18 18 24 21 29 17
6 1 0 0 0 0 0 0 0 5 7 9 10 8 7 6
4 4 4 5 7 8 27 39 11 12 13 12 11 10 10 10
11 10 11 11 10 10 8 7 8 4 6 8 8 9 9 9
7 8 9 8 11 8 6 5 5 8 3 7 8 8 7 7
5 18 50 50 49 49 49 48 49 49 49 49 49 48 42 38
17 21 22 24 25 26 26 27 27 27 29 32 36 29 1 1
2 4 3 4 3 5 4 4 2 1 0 0 0 0 0 0
0 0 0 0 1 7 1 1 2 16 11 18 12 16 29 30
9 4 2 1 0 0 0 0 0 3 4 4 4 4 4 3
6 6 7 7 11 11 45 16 12 14 11 10 10 10 12 13
11 10 10 11 11 9 8 8 8 4 6 8 9 10 9 8
9 8 8 8 8 8 6 3 4 8 2 6 8 7 5 6
5 4 37 49 49 49 49 49 48 48 49 49 49 48 42 37
17 22 23 24 26 27 27 29 29 30 32 34 35 12 0 0
3 4 4 3 3 3 4 4 3 2 0 0 0 0 0 0
0 0 0 0 0 0 1 0 1 3 13 9 12 10 16 28
13 4 2 4 5 4 3 1 0 4 5 6 6 6 6 8
9 10 10 11 11 13 45 13 13 9 12 11 10 10 12 11
11 10 11 11 11 10 9 8 6 3 6 8 9 10 9 9
8 7 8 7 8 11 6 3 5 7 1 5 8 7 6 6
6 4 15 48 48 48 49 48 48 48 48 48 48 48 42 37
18 23 26 27 29 31 32 32 33 33 35 35 29 1 1 0
2 5 4 3 2 2 4 5 6 4 1 0 0 0 0 0
0 0 0 0 0 1 1 1 1 3 4 7 7 7 18 61
39 2 5 5 5 6 6 6 8 9 10 10 11 11 11 11
11 11 12 11 12 31 20 8 9 12 12 11 9 10 11 11
12 12 11 11 10 9 8 7 6 6 7 9 9 9 10 9
8 8 7 9 7 8 6 3 4 6 1 5 7 7 5 6
6 5 5 34 49 48 48 48 48 47 48 48 48 48 43 37
18 21 25 30 28 31 33 32 33 35 35 34 12 0 2 0
1 4 4 3 1 2 5 5 6 6 3 0 0 0 0 0
0 0 0 0 0 2 3 2 2 2 3 3 8 7 22 50
42 0 0 1 3 6 8 8 9 10 10 11 11 10 12 11
11 10 10 7 8 36 7 10 12 12 12 11 9 10 12 11
10 10 11 11 11 9 7 7 6 4 6 8 9 9 9 8
8 7 7 7 8 7 8 4 5 5 0 5 7 6 5 7
7 5 4 11 46 47 48 47 47 47 47 48 47 47 44 37
13 13 17 31 25 29 32 32 33 34 34 29 1 1 3 0
2 4 5 3 1 1 5 6 7 5 4 2 1 0 0 0
0 0 0 0 0 2 3 2 4 5 7 7 7 6 8 31
44 3 0 2 2 3 4 6 8 8 7 9 9 8 9 8
8 8 8 7 33 33 11 14 13 12 13 10 10 12 12 10
10 10 11 11 10 10 8 8 6 5 8 8 9 11 9 10
8 9 7 5 8 7 6 4 5 3 0 4 7 4 4 7
6 6 5 3 29 48 47 47 48 47 47 48 48 47 45 37
7 8 12 32 27 27 29 30 32 32 32 13 0 1 2 0
3 4 5 5 1 0 4 6 5 5 3 3 2 0 1 0
0 0 0 0 0 0 1 3 6 7 7 8 8 8 8 7
29 25 2 6 5 4 5 6 6 8 7 7 7 7 8 8
7 7 8 10 56 10 13 12 12 13 12 10 10 12 11 12
11 11 11 10 10 9 7 8 6 6 7 8 9 9 9 9
7 8 7 5 6 7 5 7 5 4 0 4 6 3 4 7
6 5 4 2 7 46 47 47 47 46 47 47 47 47 45 37
