P2
128 120
158
44 43 43 43 42 42 40 40 40 39 39 38 38 37 36 35
35 34 34 34 33 33 32 32 31 31 30 29 30 28 28 28
27 27 26 26 24 22 21 19 19 20 23 24 26 26 22 18
29 32 29 27 27 26 25 24 21 20 18 17 16 16 21 22
21 22 17 21 24 25 25 26 27 27 28 28 28 29 30 30
30 31 31 32 33 33 33 33 35 35 35 35 35 35 36 37
38 39 39 39 40 41 41 41 42 43 44 44 43 44 46 44
45 45 45 45 45 45 45 45 45 46 46 45 46 46 46 45
44 43 42 42 42 41 40 40 39 39 38 38 37 37 36 36
35 35 34 34 33 32 32 32 32 31 30 29 29 29 28 28
27 27 27 26 24 23 22 20 20 21 25 26 28 28 23 16
29 32 29 28 27 26 26 24 23 21 20 19 18 16 21 22
23 21 23 25 26 26 27 28 28 28 28 28 29 30 30 30
31 31 32 32 33 34 34 34 35 34 34 35 36 37 37 38
39 39 40 40 41 41 41 42 42 43 42 43 43 43 45 43
44 44 45 45 45 45 45 45 45 46 46 45 46 46 46 45
44 43 43 42 42 41 40 40 39 39 38 38 37 37 36 36
35 34 34 34 33 33 32 32 32 31 31 30 30 29 29 28
27 28 27 26 25 24 23 22 21 23 27 28 30 30 23 14
28 32 30 29 28 26 26 26 25 23 23 24 20 17 19 22
22 22 24 25 28 28 28 29 30 30 30 30 31 31 31 32
32 33 33 34 33 33 34 34 34 35 36 37 39 39 38 39
39 40 41 41 41 42 42 42 43 43 44 43 44 44 45 43
44 44 45 45 45 44 45 45 46 46 46 46 47 46 45 45
44 44 43 42 42 41 41 40 40 40 38 38 38 37 37 36
35 35 34 34 34 33 33 32 31 31 30 30 30 30 29 28
28 27 28 27 26 25 24 23 23 24 29 30 31 31 23 14
28 33 30 30 29 28 26 26 24 22 24 24 22 17 18 25
22 24 25 28 28 29 29 30 31 31 31 31 32 32 32 32
33 34 33 34 34 34 35 35 36 37 37 38 39 40 39 40
40 41 41 41 42 42 42 42 43 43 44 43 44 44 46 44
45 45 45 46 46 45 45 45 46 46 46 44 43 44 45 46
44 43 42 42 42 41 41 40 40 39 39 38 38 37 37 36
36 35 34 34 34 33 33 32 32 31 31 30 30 30 29 29
29 28 27 27 27 26 25 24 24 26 30 31 32 32 24 15
28 34 30 30 30 28 28 27 26 23 25 25 23 19 17 25
23 24 27 28 29 30 30 31 32 32 32 33 33 33 33 33
32 33 34 35 35 36 36 36 37 37 37 38 39 40 39 40
41 41 41 41 41 42 42 42 43 43 44 44 43 44 46 44
44 45 45 45 45 45 45 44 44 45 45 46 46 47 47 46
44 43 42 42 42 41 41 40 39 39 38 38 38 36 37 37
36 36 35 34 34 33 33 32 33 32 32 31 30 29 29 29
29 29 28 28 27 27 26 26 25 27 31 31 32 32 24 16
26 34 31 30 30 30 28 28 26 25 26 26 25 20 18 24
24 27 28 30 30 31 31 32 32 32 32 32 33 32 33 34
34 34 35 35 36 36 37 37 38 38 38 39 39 41 39 40
41 41 42 42 42 42 42 43 43 43 44 44 43 44 46 44
45 45 44 44 43 44 44 45 45 46 46 46 46 46 47 46
44 43 43 42 42 41 41 40 40 40 39 38 39 38 37 37
36 35 34 35 34 34 33 33 33 32 32 31 31 31 30 30
29 29 29 28 28 27 27 27 28 29 33 32 33 33 25 17
26 35 32 30 30 30 30 29 27 27 27 26 26 23 21 24
26 29 30 31 31 32 31 33 33 33 33 33 34 35 34 35
35 35 36 36 36 36 36 37 38 38 39 39 40 41 40 41
41 42 42 42 42 42 43 43 44 44 44 44 44 44 44 43
43 43 44 45 45 45 45 45 45 46 46 46 46 46 46 46
44 43 43 42 42 41 41 41 40 39 39 39 38 37 37 37
36 36 35 34 34 34 33 33 33 32 32 31 31 30 30 30
30 30 29 29 28 28 28 28 28 29 33 34 34 34 26 19
25 35 32 31 31 30 30 30 28 28 27 27 27 24 21 25
27 29 31 31 31 32 32 33 33 34 34 35 35 35 35 35
36 36 36 37 37 37 38 38 39 39 39 39 40 41 40 41
42 42 43 42 43 43 43 44 44 44 44 42 43 42 44 45
46 45 46 45 45 45 45 46 45 46 46 45 46 46 46 46
44 43 43 43 42 42 41 41 40 40 39 39 39 38 38 37
36 36 35 35 34 34 34 33 33 33 32 31 31 31 30 30
30 29 29 29 28 28 28 28 29 30 34 34 35 34 27 22
24 35 33 32 32 32 31 30 30 31 28 28 27 26 22 27
27 30 32 32 32 32 34 34 34 34 35 35 36 36 36 36
36 37 37 37 38 38 38 38 38 39 40 40 40 42 41 42
42 42 43 43 42 40 42 43 42 42 43 45 45 45 44 44
46 45 44 45 45 45 45 46 45 46 46 46 46 46 47 47
44 43 43 42 42 42 41 41 40 40 40 39 39 38 37 37
37 36 36 35 36 35 35 34 33 33 33 33 32 32 31 30
30 30 30 29 29 29 28 29 30 31 34 35 35 34 26 22
23 35 33 32 32 32 31 31 30 30 29 29 29 27 25 28
29 31 33 33 34 34 34 34 35 35 35 35 36 36 37 36
36 37 38 38 38 38 39 39 39 41 40 41 41 42 41 42
42 43 42 41 42 43 43 43 44 45 45 45 45 44 45 45
46 46 46 45 45 45 46 46 46 46 47 47 47 47 47 46
44 43 43 43 42 42 42 41 41 41 40 39 39 39 38 37
37 36 36 36 35 35 35 35 34 33 33 33 32 32 31 31
31 31 30 30 30 29 29 30 31 32 36 35 36 36 28 24
23 36 34 31 31 32 32 31 31 32 29 30 30 28 28 30
31 34 34 34 34 35 35 36 36 36 36 36 37 37 37 37
38 37 38 38 39 39 39 39 40 40 40 41 42 43 41 41
40 40 41 43 44 44 45 44 44 44 45 45 45 45 46 45
46 46 45 46 46 46 46 46 46 47 46 47 47 47 47 46
44 44 44 43 43 42 42 42 41 41 40 40 39 39 38 38
37 37 36 36 36 35 35 35 35 34 34 33 33 32 32 32
31 31 31 30 30 30 29 30 31 33 35 36 36 36 29 24
19 33 34 32 32 33 33 32 31 33 30 30 30 29 27 30
32 34 34 34 35 35 36 36 36 37 37 37 37 37 37 37
38 38 38 39 39 40 39 40 41 41 41 40 39 39 40 42
43 43 44 44 44 45 46 45 46 45 45 46 46 46 45 46
46 46 46 46 45 46 46 45 46 46 46 46 47 47 47 46
44 44 43 44 43 42 42 42 41 41 41 40 40 40 39 38
38 37 37 37 36 36 36 35 34 34 34 34 33 33 32 32
32 31 31 31 31 30 30 30 32 33 37 37 37 37 29 22
15 32 36 34 34 34 34 33 32 33 31 31 32 30 28 33
33 36 36 36 35 36 36 37 37 37 37 37 37 39 38 38
39 38 40 39 40 40 41 40 40 39 40 41 42 43 43 44
44 44 44 45 45 45 46 44 45 46 45 46 45 46 46 45
46 46 46 46 47 46 46 46 46 47 47 47 47 47 48 47
45 44 44 44 43 43 42 41 41 41 41 40 39 40 39 38
38 38 37 37 36 36 36 35 35 35 35 34 34 33 33 33
33 32 32 31 30 30 30 31 32 33 37 37 38 37 29 24
22 35 37 35 35 35 35 34 33 35 32 33 33 31 29 33
35 36 36 36 36 36 37 37 37 38 38 38 38 39 39 39
39 40 40 40 40 40 40 40 41 41 42 42 43 43 43 43
44 44 44 45 45 45 47 45 46 46 46 46 45 46 45 45
46 46 47 46 46 47 46 46 47 47 47 47 47 47 48 47
45 45 44 44 43 43 43 42 41 41 41 41 40 39 39 39
39 38 37 37 37 36 36 36 35 35 34 35 34 34 33 33
33 32 32 32 32 31 31 31 33 34 38 38 38 37 30 26
26 34 37 36 35 35 35 35 34 35 32 33 33 32 29 34
35 37 37 37 37 38 38 38 38 38 38 38 38 39 39 39
39 40 40 40 40 41 41 42 42 42 43 43 43 43 44 44
44 45 45 45 46 45 47 46 46 46 46 46 46 46 46 46
46 46 46 46 46 46 47 47 47 47 47 48 47 48 48 47
44 44 44 43 43 43 43 43 41 42 41 41 40 40 40 39
39 39 38 38 37 37 37 37 36 35 35 34 34 34 34 33
33 33 32 32 32 32 32 32 32 34 38 39 38 38 30 26
28 33 38 37 36 36 35 35 34 36 33 33 34 33 30 35
36 37 37 37 38 38 38 38 38 40 39 39 40 38 39 39
39 40 41 41 41 43 41 42 42 42 42 43 43 44 44 44
44 44 45 45 46 46 48 46 46 46 46 46 46 46 46 46
46 46 46 46 47 47 47 47 47 47 48 47 47 46 46 47
45 44 44 43 43 42 43 42 42 42 41 41 41 41 40 40
39 38 38 38 38 37 37 36 36 35 35 35 35 34 34 34
33 33 33 32 32 32 32 32 34 35 39 39 39 38 31 27
30 31 38 37 37 36 36 35 35 36 34 34 34 34 30 36
36 38 38 38 38 38 38 39 39 38 39 37 39 39 39 40
40 41 42 42 42 43 42 43 42 43 43 44 44 44 45 45
45 45 45 45 46 46 47 46 46 46 46 46 47 46 46 46
46 46 47 47 48 48 47 46 46 46 47 47 48 48 47 46
44 44 45 43 44 43 42 42 42 42 41 42 41 40 40 40
39 39 39 39 38 38 37 36 37 37 36 35 36 35 34 34
33 34 33 33 32 32 32 33 34 35 39 39 39 39 31 28
33 30 39 37 37 37 37 36 36 37 34 34 35 33 30 36
36 38 39 39 39 39 38 38 39 39 39 40 40 40 41 41
40 41 41 42 42 43 42 42 43 44 44 44 45 44 44 45
45 46 46 46 46 46 47 47 46 47 46 47 47 46 46 47
47 47 47 46 47 46 47 48 48 48 47 47 47 48 47 47
44 45 45 44 43 44 43 43 42 42 42 42 41 41 41 41
40 39 39 39 38 38 38 37 37 36 36 36 36 35 35 35
34 34 34 33 33 33 33 34 34 36 40 40 40 39 31 28
34 29 39 38 37 37 37 36 36 37 35 36 35 34 32 37
37 39 39 38 39 39 40 39 40 40 40 40 41 41 41 40
41 42 41 42 43 43 43 43 44 44 44 44 44 45 45 45
46 46 46 46 46 46 48 47 47 47 47 47 48 48 46 45
46 47 47 47 47 48 47 47 47 46 47 47 47 46 47 47
44 44 44 44 44 43 43 43 42 42 43 42 42 41 41 40
40 40 39 39 39 38 38 38 37 37 37 36 36 35 35 35
34 33 34 33 33 33 33 33 34 36 41 40 40 40 32 29
36 29 39 39 39 38 37 36 37 38 35 36 36 35 30 36
34 39 39 39 40 40 41 40 40 41 41 41 41 42 41 41
42 42 42 42 43 44 43 44 44 44 45 45 45 45 45 45
46 46 47 47 47 46 48 47 47 47 47 46 46 46 47 46
47 47 47 47 47 47 47 47 47 47 47 47 47 47 46 48
45 44 44 44 44 44 43 43 42 43 42 42 41 41 41 41
40 40 39 39 39 39 38 38 37 37 37 36 36 36 36 36
35 34 34 34 34 34 34 34 35 36 41 41 41 40 33 29
37 29 40 40 39 38 38 38 37 40 36 36 37 36 32 38
37 40 40 40 40 40 41 40 41 41 41 42 41 41 42 42
42 42 43 43 43 44 44 44 44 45 45 45 45 45 46 46
46 46 47 47 47 45 45 46 47 45 46 47 48 47 48 49
46 47 47 47 47 47 47 47 47 47 47 47 47 47 47 47
45 45 44 44 44 44 44 43 44 42 42 42 42 42 41 41
40 40 40 40 39 39 39 39 38 37 37 37 37 36 36 36
36 35 35 34 34 34 34 34 36 37 42 42 42 41 34 30
38 30 40 39 39 39 38 38 38 40 36 36 36 37 33 39
38 40 40 41 41 41 42 41 41 42 42 42 42 42 42 42
43 43 44 43 43 45 45 44 44 45 46 46 46 46 47 47
47 46 46 46 47 46 47 47 48 47 47 47 47 47 48 50
47 46 47 47 47 46 47 47 48 48 47 47 47 48 48 48
46 45 45 44 44 44 44 44 43 43 42 42 43 42 41 41
41 40 40 40 40 39 39 38 38 38 37 37 37 37 37 36
36 36 35 35 35 35 35 35 36 37 42 42 42 42 33 30
39 31 39 39 40 40 39 39 38 40 37 37 37 37 35 39
37 41 40 41 43 42 42 42 43 42 42 42 42 43 43 43
44 44 44 44 45 45 45 45 45 45 46 46 46 46 46 46
46 46 48 48 48 48 48 48 48 48 48 48 49 48 48 49
47 46 47 47 48 48 48 48 48 48 47 48 47 47 46 47
45 45 44 44 45 44 44 43 43 43 43 43 43 43 42 41
41 41 40 40 40 40 39 39 39 38 38 38 38 37 37 36
36 36 36 35 35 35 35 35 37 38 43 42 42 43 35 30
40 32 38 39 40 40 39 39 38 39 39 39 39 38 36 40
38 41 42 42 42 42 44 42 43 42 42 42 43 43 43 44
44 44 44 45 45 46 45 45 46 45 45 45 46 46 46 47
48 48 48 48 48 48 49 48 48 48 48 48 47 49 48 49
48 47 48 47 47 48 47 48 48 48 48 48 48 48 47 48
45 45 45 44 45 44 44 44 44 43 43 43 42 42 41 41
41 41 41 41 40 40 40 39 39 39 39 38 38 38 38 37
37 36 36 36 36 36 36 36 37 39 43 43 43 43 35 30
40 34 37 41 41 40 40 40 42 50 50 47 39 34 31 33
37 43 42 43 43 41 41 43 44 43 43 42 44 44 44 44
45 45 45 46 46 45 45 45 45 45 46 46 47 48 49 48
48 49 49 48 49 49 49 49 49 48 48 48 48 48 48 50
47 48 48 48 48 48 48 48 48 48 48 48 48 48 48 47
45 45 44 45 44 44 44 44 44 43 43 44 43 42 42 42
41 41 41 41 41 40 40 39 40 39 39 38 38 39 38 37
37 37 37 36 36 36 36 37 37 39 43 44 43 43 35 31
41 36 36 41 41 40 41 53 67 55 45 31 20 15 14 17
21 35 43 43 35 29 36 44 44 44 43 44 44 45 44 45
45 45 44 44 45 46 46 46 47 47 46 47 47 47 49 48
48 48 49 49 49 49 49 48 49 48 49 48 49 48 49 50
48 48 48 48 48 49 48 48 48 49 49 48 48 49 49 48
46 45 45 45 45 45 45 44 44 43 44 43 43 43 43 42
42 41 41 41 41 40 41 40 40 40 39 39 39 39 38 38
37 37 37 37 37 37 37 37 37 39 43 44 44 42 35 31
41 38 35 42 42 43 51 56 48 40 19 11 7 6 2 6
10 17 35 29 29 34 41 44 47 44 44 47 47 47 45 44
45 46 46 46 46 46 46 47 47 47 47 47 47 48 49 49
49 49 49 49 49 49 49 49 49 49 49 49 49 48 48 50
49 48 48 48 48 48 49 48 49 48 48 48 49 49 48 49
46 46 45 45 45 44 44 44 44 44 44 44 44 43 43 43
43 42 42 42 41 40 40 40 40 40 39 39 39 38 38 38
38 38 38 37 37 36 37 37 38 40 45 44 44 43 36 31
42 41 34 42 43 49 41 46 36 13 4 0 0 0 0 1
6 11 18 23 23 28 40 49 50 51 43 43 42 46 49 45
45 46 46 46 46 47 47 47 48 48 48 48 49 49 50 49
49 49 49 49 49 49 49 48 48 48 48 49 49 49 48 50
50 49 49 49 49 49 49 49 49 48 48 48 47 47 46 46
45 46 45 45 45 45 45 45 44 43 44 43 44 43 43 43
43 42 42 42 41 41 40 41 41 40 40 40 39 39 39 39
38 38 38 38 37 37 37 38 38 40 44 45 44 44 37 31
42 44 34 43 46 39 43 45 27 13 1 0 1 1 1 2
7 12 17 14 16 17 26 32 42 45 52 48 45 46 47 49
45 46 45 46 46 47 47 48 48 48 48 48 49 49 50 49
50 49 50 49 49 49 49 49 49 48 49 49 49 49 49 50
50 49 49 50 49 49 49 47 47 46 47 48 49 49 49 48
45 45 46 45 45 45 45 45 44 44 44 44 44 44 43 43
44 42 42 41 42 41 41 41 41 41 40 40 40 39 40 39
39 38 38 38 37 38 38 38 39 40 44 45 45 45 37 31
42 45 33 42 41 44 51 44 21 1 0 2 1 0 0 5
12 17 20 24 22 19 18 26 39 42 44 51 44 45 48 48
50 47 46 46 47 47 48 48 48 48 49 49 49 49 50 50
50 50 50 50 50 50 49 49 49 49 49 49 49 49 50 50
50 48 48 48 47 47 48 49 50 50 48 46 48 47 48 47
46 46 45 45 45 45 45 45 45 44 44 44 44 43 43 43
42 42 42 42 41 42 42 41 41 41 41 40 40 40 39 39
39 39 38 38 38 37 38 38 39 40 45 45 45 45 37 31
42 47 35 39 37 49 48 35 6 1 1 0 0 0 0 2
6 14 19 27 34 51 55 44 35 40 43 53 49 47 47 45
52 49 47 47 47 48 48 48 49 49 49 49 49 49 50 50
50 49 50 50 49 50 49 49 49 50 50 49 50 49 48 47
45 46 48 49 49 47 47 48 48 50 47 47 47 47 47 48
46 46 46 45 46 45 45 45 45 44 45 44 44 44 43 43
43 43 43 42 42 42 42 41 41 41 41 40 41 40 41 40
40 39 39 38 38 38 38 38 39 41 45 46 45 46 38 34
50 45 34 33 43 42 54 20 3 2 1 2 1 3 4 5
7 6 16 14 18 27 44 54 56 52 38 43 49 44 47 45
49 53 46 47 47 48 47 48 48 49 49 50 50 49 50 49
50 50 50 50 50 50 50 49 48 47 47 46 47 48 49 50
49 49 49 49 49 49 49 48 48 50 47 48 48 47 48 47
46 46 46 46 46 46 46 45 45 44 45 44 43 44 44 43
44 44 44 43 43 43 42 42 42 41 41 41 41 41 40 40
39 39 39 39 39 38 38 39 40 41 46 47 45 45 44 47
48 35 27 33 34 54 43 14 9 17 9 14 16 25 31 32
28 17 9 5 3 6 13 21 25 28 43 32 36 40 44 46
46 53 47 48 48 48 48 49 49 50 50 50 50 50 51 50
50 50 50 50 50 49 49 49 48 49 49 50 50 49 49 49
48 48 48 48 49 48 48 49 48 49 48 49 47 48 49 48
46 46 46 46 46 45 46 45 45 45 45 45 44 45 45 44
44 43 43 42 42 42 42 42 42 41 41 42 41 40 40 40
40 40 40 39 39 38 39 39 40 41 46 46 45 47 46 45
29 27 30 33 53 38 38 14 14 21 39 67 91 101 98 92
85 78 51 38 15 2 4 11 23 36 34 35 22 33 46 46
46 49 48 47 48 48 48 48 50 49 50 50 49 49 49 49
49 49 49 49 49 49 49 50 49 49 49 49 50 49 49 49
48 49 47 48 48 48 48 48 48 49 47 47 47 47 47 47
46 46 45 44 45 46 46 45 46 45 45 45 45 44 44 44
44 44 43 43 43 43 42 45 46 44 42 42 41 41 40 40
40 40 39 39 39 39 39 39 41 42 46 46 46 45 41 29
35 53 48 49 40 38 34 12 45 78 105 114 121 123 122 121
116 109 94 78 72 51 23 15 16 40 41 45 15 17 26 44
44 45 43 46 48 48 48 48 49 48 48 48 48 48 48 48
49 49 49 49 48 48 49 50 49 48 49 48 49 48 48 48
48 47 48 48 48 48 47 48 47 49 48 47 47 47 47 48
46 46 46 48 56 54 51 49 47 46 45 44 44 45 45 44
44 44 43 43 43 43 44 57 58 53 50 46 45 41 41 40
40 40 40 39 39 39 39 39 40 41 46 46 46 41 33 24
72 66 58 33 27 50 41 78 99 113 116 119 121 123 123 126
125 125 123 110 108 101 64 39 26 41 57 50 27 11 21 31
47 45 45 43 48 48 48 47 48 48 48 49 48 48 49 48
48 47 48 49 49 48 48 50 49 48 49 49 48 48 48 48
48 48 47 47 48 48 47 48 48 48 48 47 47 47 46 47
46 46 46 51 61 58 58 56 52 50 49 47 46 45 44 44
44 44 43 43 43 43 47 59 57 54 53 53 53 47 41 40
40 40 40 39 40 39 40 40 41 42 46 47 46 37 25 61
59 46 27 22 29 53 91 93 101 113 121 126 133 134 131 132
128 127 120 119 109 97 78 56 49 30 47 54 31 6 13 32
41 46 47 39 48 48 49 48 48 49 49 49 49 48 48 48
48 48 49 49 49 48 48 49 49 49 49 49 48 48 48 47
48 48 48 48 48 48 48 47 47 47 48 47 48 48 47 46
48 47 46 51 62 60 58 54 54 54 56 58 51 51 49 47
45 42 43 43 44 44 46 55 55 53 52 53 54 51 42 41
40 40 40 40 40 40 40 40 41 41 46 47 40 33 24 47
29 19 12 7 36 60 78 104 127 136 141 144 146 144 144 143
141 127 98 73 60 61 47 41 40 33 44 44 44 4 14 21
44 54 47 41 47 48 50 48 49 48 48 49 48 49 48 49
48 49 48 49 49 49 49 51 49 49 49 49 49 48 48 48
48 48 49 47 48 48 48 48 47 47 47 48 48 48 47 47
50 49 48 50 53 52 56 55 57 59 61 60 51 52 54 55
51 48 47 46 45 43 45 41 32 36 41 49 52 52 43 40
40 41 40 40 40 40 40 40 41 42 46 46 38 27 28 20
14 18 27 27 22 19 17 12 27 70 137 150 149 148 146 105
60 32 28 14 9 8 8 10 10 12 26 19 27 18 3 9
48 56 52 40 49 49 51 49 49 49 49 49 49 49 49 49
49 49 49 49 49 49 49 50 49 48 49 49 49 48 48 48
49 48 48 49 48 48 49 49 49 49 49 48 48 49 48 48
48 53 55 58 22 6 19 40 50 54 58 59 42 12 20 32
41 49 48 52 54 50 47 38 21 18 20 19 20 32 45 42
41 42 41 41 40 41 40 41 42 42 46 46 28 23 23 34
31 19 4 1 3 10 8 3 2 8 31 82 65 71 52 14
11 4 2 1 2 2 2 4 3 4 9 26 12 17 16 11
39 57 47 45 49 49 51 50 50 50 50 50 50 50 50 50
50 50 50 50 50 49 49 50 51 50 49 49 49 49 49 48
50 48 49 49 49 49 50 49 49 49 49 50 50 49 48 48
46 49 59 62 21 0 0 15 25 25 27 44 40 0 0 0
2 9 18 27 38 45 49 37 16 11 15 17 3 14 46 43
43 42 43 42 42 42 42 42 43 44 49 38 14 27 22 14
3 0 0 0 0 0 1 2 6 48 84 92 65 23 10 6
3 0 0 0 1 4 5 5 6 8 7 9 4 10 7 14
35 45 43 48 48 49 51 51 51 51 51 51 51 51 50 50
51 51 51 50 50 50 50 51 52 50 50 50 50 49 49 49
49 50 50 50 50 50 50 51 50 49 47 48 47 47 48 48
52 57 61 63 22 0 0 11 17 20 20 37 39 1 0 0
1 0 1 0 1 9 46 36 10 6 2 12 2 15 49 43
43 43 43 42 42 42 42 42 43 43 49 29 12 14 0 0
0 0 0 0 0 0 0 0 54 149 151 150 131 72 7 1
0 0 0 0 0 0 0 0 0 0 7 43 53 12 1 17
36 30 30 46 49 49 50 51 51 51 51 51 50 51 51 51
51 51 50 50 50 51 50 51 51 51 50 49 50 50 49 50
50 50 50 50 50 50 49 49 50 50 49 50 50 49 49 48
9 20 33 47 25 0 0 7 8 10 12 33 43 6 0 0
0 0 0 0 0 3 46 32 4 0 0 8 1 15 50 44
43 43 42 43 42 42 42 43 44 45 49 25 3 0 0 0
0 0 0 0 0 0 0 7 105 146 152 151 149 115 16 2
0 0 0 0 0 0 0 0 0 0 4 49 78 19 2 19
35 22 19 42 52 50 51 52 51 51 51 51 51 51 52 52
51 51 50 51 50 50 50 51 51 50 50 50 51 50 50 50
50 50 51 51 51 51 51 51 51 50 49 50 49 50 49 48
0 0 0 9 23 0 0 1 0 0 7 29 38 0 0 0
0 3 1 0 0 2 46 25 0 0 0 3 3 16 52 44
43 43 43 43 42 42 42 43 45 45 49 30 0 0 0 0
2 51 23 0 0 0 0 29 114 136 152 148 146 140 32 4
0 0 0 0 0 0 0 0 0 0 0 0 0 12 11 13
32 16 14 38 50 50 51 52 51 52 51 51 52 53 52 52
52 52 52 51 52 52 51 51 50 51 51 51 52 51 51 51
51 50 51 51 51 50 50 50 50 50 50 50 50 50 50 49
0 0 0 6 21 0 0 0 0 0 3 35 41 0 0 0
0 16 13 2 0 1 45 24 0 0 0 1 1 15 53 44
44 44 44 43 43 43 43 44 45 45 48 29 0 0 0 0
33 85 3 0 0 0 0 57 89 87 153 109 73 149 79 6
3 0 0 0 3 32 4 0 0 0 0 0 0 10 8 9
26 11 15 28 51 51 52 51 52 52 52 52 52 52 52 52
52 52 52 52 52 50 51 51 52 52 52 51 52 51 51 51
50 52 52 51 52 51 51 50 50 50 51 51 51 51 51 51
0 0 0 5 19 0 0 0 0 0 3 36 45 0 0 0
4 19 21 16 8 1 44 22 0 0 0 0 0 11 53 44
44 43 43 43 44 44 44 44 46 45 49 25 21 0 0 0
89 57 0 0 0 0 9 105 65 75 149 125 42 107 141 24
12 2 0 4 74 134 34 0 0 0 0 2 4 18 10 7
22 11 18 14 52 52 52 52 51 52 52 53 52 53 52 51
52 52 51 51 52 51 52 52 52 51 51 51 51 51 50 49
51 52 51 51 51 51 52 52 52 51 52 52 52 52 51 52
18 3 0 4 17 0 4 0 0 0 3 32 47 1 0 0
7 21 22 21 19 4 42 25 0 0 0 0 0 9 53 44
44 44 44 43 44 43 43 44 45 45 49 30 32 0 0 11
128 19 0 0 0 2 50 135 68 106 150 146 82 61 138 103
13 15 7 52 142 46 0 0 0 0 1 6 8 33 18 3
17 12 18 11 48 52 51 52 52 51 51 52 52 51 52 51
52 52 51 50 51 51 51 51 52 50 50 51 51 51 50 50
50 52 52 51 52 52 52 52 51 51 50 48 47 50 51 51
9 1 0 4 18 1 2 0 0 0 8 32 48 1 0 0
6 19 21 21 20 5 40 29 0 0 0 0 0 7 54 45
45 45 44 44 43 43 44 44 45 46 48 32 13 0 0 27
94 1 0 1 9 17 55 146 89 126 150 151 124 55 128 143
92 25 28 45 61 14 8 2 1 1 7 10 36 44 39 2
17 9 9 15 39 50 50 51 52 52 51 52 52 52 52 53
52 52 52 52 52 52 51 51 52 51 51 52 51 50 51 50
50 52 51 52 51 50 52 49 47 46 46 46 46 45 41 36
8 4 0 4 18 1 0 0 0 0 15 36 51 3 0 7
4 5 15 20 18 3 37 48 32 21 12 6 3 10 53 45
45 45 44 43 43 42 43 44 46 48 49 38 5 3 5 36
61 23 23 27 21 35 103 151 133 144 152 151 151 140 147 145
138 127 74 41 25 18 24 26 31 37 31 64 97 47 61 3
16 15 9 28 44 51 51 51 51 51 51 51 52 53 52 53
51 52 52 53 52 52 52 51 51 51 51 51 51 50 49 49
50 51 47 48 48 46 47 43 39 36 33 28 26 24 23 22
0 3 0 6 34 14 9 9 4 0 6 34 63 39 30 24
17 6 2 9 14 1 35 58 58 53 52 50 50 52 58 44
44 44 44 43 44 44 43 43 41 43 42 31 3 4 4 14
13 16 29 66 105 122 122 137 125 150 151 151 151 150 150 143
139 151 145 132 115 86 65 41 24 50 102 108 100 66 57 9
10 19 13 34 46 47 51 50 51 51 52 51 52 52 52 53
50 51 52 51 50 51 52 50 49 49 47 49 48 46 46 47
46 43 40 36 32 28 26 25 25 25 25 21 25 29 29 30
0 0 0 7 57 60 47 44 41 33 21 38 67 39 40 43
44 43 38 33 30 24 45 59 58 56 56 58 64 66 63 45
44 44 45 43 43 44 43 44 45 45 46 30 3 8 13 53
48 80 117 138 150 151 125 109 128 151 151 151 150 147 140 136
149 150 150 149 148 140 131 120 108 97 100 106 101 87 40 10
7 28 22 30 40 46 50 50 51 51 52 52 52 51 51 52
51 50 48 47 47 47 48 48 48 46 44 43 40 36 33 30
28 26 26 26 25 27 30 30 31 32 33 22 20 34 35 36
0 0 0 7 61 63 53 60 62 67 64 64 62 25 21 23
25 25 28 31 36 43 51 45 45 50 53 58 62 63 61 46
44 45 44 44 44 44 44 45 46 46 48 32 5 8 19 78
99 122 145 151 151 151 130 114 134 148 148 150 150 149 149 149
150 150 150 150 150 150 148 137 121 117 110 102 102 94 39 9
6 30 29 32 44 49 50 50 50 51 51 51 50 51 51 50
49 50 50 49 44 43 40 37 34 31 29 28 27 28 29 29
30 31 32 34 34 34 35 33 33 37 39 36 15 39 40 39
2 0 0 8 61 53 55 63 66 70 67 56 47 25 22 23
21 21 20 19 19 18 19 19 23 28 33 45 46 43 44 45
46 45 45 44 45 44 44 45 48 46 48 36 11 7 39 97
124 146 152 152 152 141 115 123 140 146 148 150 151 145 140 145
150 151 151 151 151 150 151 150 139 122 121 107 97 96 53 11
5 39 26 38 40 49 50 50 50 51 51 51 49 49 48 45
41 38 44 50 32 27 28 30 30 31 32 33 34 34 35 36
37 37 39 40 40 40 41 37 31 37 43 42 21 34 43 41
44 35 26 28 56 45 55 62 65 69 69 59 49 30 24 23
21 20 18 18 17 17 16 17 17 18 21 42 42 42 41 42
45 45 45 45 44 44 43 45 46 45 46 29 12 8 76 114
141 151 151 151 142 116 123 137 139 143 147 150 150 150 147 139
146 150 150 150 150 150 150 150 148 135 126 117 100 95 69 12
3 39 23 30 34 50 50 49 47 44 41 38 34 32 31 31
30 29 35 48 30 30 33 35 36 37 38 39 40 40 41 42
42 43 43 44 44 43 43 44 43 33 38 43 36 22 45 41
61 61 61 63 56 29 40 50 56 62 64 58 53 33 24 22
19 16 17 17 18 19 19 19 20 20 26 42 19 27 45 45
46 44 42 44 44 43 44 44 42 40 43 18 6 20 100 126
147 152 152 147 128 121 135 139 135 135 135 143 143 150 151 149
146 150 151 151 151 151 150 151 151 145 128 120 104 93 73 16
0 38 24 20 33 38 37 34 33 32 32 32 34 35 35 37
37 37 36 44 32 36 40 42 42 43 43 44 44 45 45 45
45 44 45 45 46 45 43 46 48 46 32 36 42 17 40 45
63 63 63 65 49 6 4 7 13 23 32 34 49 34 22 20
12 4 6 7 16 21 21 18 21 24 29 46 43 42 54 53
51 38 15 37 44 45 44 44 41 35 35 9 2 45 109 132
148 150 149 140 132 130 126 119 120 123 130 132 129 131 144 149
151 151 151 151 151 151 151 150 151 147 133 125 109 95 73 20
1 29 35 22 26 31 33 35 36 38 38 39 40 41 41 42
43 43 41 51 36 41 45 45 45 46 46 47 47 47 47 48
48 48 48 46 45 47 44 46 48 48 47 32 37 25 30 46
56 59 61 65 44 2 0 0 0 2 13 24 51 34 21 19
10 0 0 2 8 11 12 6 10 16 19 46 56 46 47 48
51 50 39 43 45 45 45 45 36 26 31 5 3 70 111 134
146 145 146 149 135 115 111 135 147 151 151 150 148 137 121 130
147 151 151 151 151 151 151 151 151 147 136 129 112 97 75 26
4 18 30 33 30 41 40 41 42 43 44 44 45 45 46 47
46 45 36 33 29 43 47 48 48 48 49 48 49 49 49 49
49 48 48 48 46 45 47 45 48 48 49 46 33 29 12 25
45 44 49 59 40 0 0 0 0 4 1 14 54 33 20 18
10 0 0 8 3 1 3 0 0 4 11 45 56 40 37 35
37 42 45 46 45 45 46 44 32 25 36 15 18 84 112 132
139 143 150 151 120 109 145 152 152 152 152 152 152 151 147 123
125 149 151 151 151 150 151 151 150 149 141 130 113 99 78 31
19 4 16 31 44 46 44 45 47 48 48 48 48 48 48 48
47 46 25 14 14 42 48 49 51 50 49 49 49 50 49 50
49 49 49 49 48 47 46 45 45 48 49 48 45 28 9 2
43 40 47 59 39 0 0 0 0 3 0 4 54 26 15 6
0 0 3 17 13 6 4 0 0 0 7 43 57 40 30 44
43 38 41 45 45 43 44 44 39 31 37 26 30 88 112 127
129 147 152 138 108 134 150 152 152 151 152 152 152 151 152 150
137 130 148 151 151 151 151 151 151 151 146 132 113 100 84 34
24 0 8 18 45 42 45 47 49 48 49 49 50 49 47 44
40 46 24 17 11 38 49 50 52 50 50 50 50 49 49 50
50 49 49 49 49 48 47 46 44 47 49 49 46 42 19 0
46 46 53 59 38 0 0 0 0 0 0 6 56 14 0 0
0 2 3 12 20 12 5 2 0 0 6 44 59 38 23 41
39 35 41 45 46 44 44 45 35 27 28 23 34 89 111 119
127 150 152 126 125 143 152 152 152 152 152 152 152 152 152 151
144 142 151 151 152 151 151 151 151 151 146 131 110 100 86 38
23 0 10 23 30 28 38 46 48 49 49 51 51 30 13 9
12 42 19 12 9 38 49 50 52 50 50 50 51 50 50 50
50 50 50 49 48 48 48 47 43 45 46 46 44 45 36 0
22 30 39 45 36 0 0 0 0 0 0 9 57 16 0 0
0 1 5 9 24 21 16 5 1 2 5 43 59 40 20 29
28 29 41 45 45 45 46 41 39 39 31 18 34 89 113 114
133 152 142 123 134 149 152 152 150 152 152 152 152 152 152 152
150 148 151 151 152 151 151 151 151 152 145 130 106 100 85 39
22 4 11 12 18 15 17 39 54 50 49 51 50 31 23 30
38 44 24 4 8 38 49 51 51 51 50 50 50 50 49 50
50 50 50 49 49 49 49 49 46 43 42 42 43 47 40 4
0 0 0 4 29 0 0 0 0 0 0 11 55 12 0 0
0 0 11 21 25 23 23 6 0 3 7 43 59 43 32 34
31 29 39 43 45 45 44 36 36 30 21 9 28 86 112 111
138 153 131 126 140 150 150 149 151 152 152 152 152 152 152 152
151 151 151 151 151 151 150 150 151 151 145 124 102 99 85 45
23 26 11 10 8 6 13 20 38 48 49 51 52 50 50 50
49 47 28 7 9 37 48 50 51 50 50 50 50 50 50 50
50 50 49 49 49 48 49 48 48 46 43 43 45 47 42 5
1 0 0 1 26 0 0 1 11 3 0 6 54 9 0 0
0 0 12 27 31 21 15 4 0 6 9 40 60 46 35 25
10 20 37 43 46 42 39 30 31 23 8 3 25 80 108 110
143 149 129 132 142 142 148 152 152 152 152 152 152 152 152 152
152 152 151 151 151 151 151 149 151 150 143 119 100 99 83 59
27 26 29 28 18 17 15 17 20 42 48 50 53 52 51 50
48 47 36 5 8 39 48 49 50 50 50 49 49 49 49 48
48 48 49 49 48 47 48 49 48 47 42 42 45 47 44 6
6 0 0 0 24 0 0 11 24 13 1 7 53 8 0 0
0 0 4 7 27 7 1 2 2 4 5 37 60 47 34 20
13 16 34 41 43 38 33 29 25 12 0 5 24 73 106 112
139 140 130 136 140 145 149 152 152 152 152 151 152 151 152 151
151 151 151 151 151 151 151 150 151 150 139 118 99 98 82 82
58 46 38 26 24 23 21 19 22 31 50 50 52 51 51 50
48 46 39 15 19 42 49 50 50 50 49 49 49 48 48 48
49 48 49 48 48 48 48 48 47 46 43 41 44 47 45 7
21 5 1 0 24 0 0 20 24 16 3 6 51 6 3 1
0 2 2 0 23 7 0 0 0 0 0 31 58 44 20 12
5 9 33 38 37 35 31 26 16 1 0 11 26 72 103 113
134 135 126 131 141 149 150 151 151 151 151 151 151 150 150 150
150 150 150 150 150 150 150 150 149 149 134 115 98 96 83 97
91 97 81 37 8 5 3 11 21 36 50 49 49 50 50 49
47 44 39 35 35 44 48 49 50 49 48 48 48 47 48 48
48 48 48 47 47 47 47 47 47 46 42 38 35 40 37 7
29 12 5 0 31 20 18 30 27 26 14 10 51 5 2 0
0 0 0 0 22 12 0 0 0 0 0 25 58 39 14 17
3 13 34 36 38 36 31 28 13 0 1 6 64 80 100 114
126 127 123 128 145 151 151 151 151 151 151 151 151 151 150 150
151 150 150 150 150 150 150 149 148 144 131 112 97 95 86 114
105 101 83 78 19 7 8 11 19 23 47 50 50 49 49 49
47 44 41 41 43 47 49 49 49 50 49 49 48 48 48 48
48 48 49 48 48 48 47 47 47 46 42 38 34 30 37 12
17 7 3 0 39 53 52 57 54 53 54 54 57 8 0 1
0 0 0 2 24 12 2 4 1 0 0 19 57 34 12 12
7 17 39 41 39 38 35 27 9 1 1 7 64 77 97 115
121 119 120 133 148 151 151 151 151 151 151 151 151 151 151 150
150 150 150 150 150 150 150 149 147 140 128 110 97 93 99 123
120 130 118 96 53 13 6 11 21 25 43 53 52 50 49 48
47 45 43 43 47 49 48 49 49 49 49 48 49 48 49 49
49 48 47 48 48 48 46 47 47 46 43 40 40 43 45 14
2 2 1 0 38 53 55 58 57 58 64 68 63 29 18 24
11 6 5 9 27 18 8 7 5 1 1 15 52 34 13 7
9 19 40 42 50 42 36 22 12 2 2 13 83 88 94 112
117 116 118 131 149 151 151 151 151 151 151 151 151 151 150 151
151 150 151 151 150 150 150 149 146 137 125 110 97 95 112 123
115 124 122 99 44 38 15 19 26 31 47 52 53 49 49 48
48 46 46 46 49 50 50 49 49 50 50 49 49 49 49 48
48 48 48 49 48 48 47 45 46 46 43 39 40 42 43 17
2 0 0 0 37 53 54 56 56 58 67 69 67 48 45 45
42 39 38 37 38 31 29 25 23 21 21 29 49 41 23 19
24 31 39 49 56 42 28 21 15 3 4 15 84 89 89 106
112 112 111 121 139 149 148 146 147 146 149 150 150 150 151 150
150 150 150 150 150 150 149 146 140 135 122 107 93 96 118 105
124 109 109 89 35 34 31 24 32 39 47 50 55 49 49 48
48 47 47 47 48 47 47 47 48 49 48 49 49 48 47 47
48 47 48 48 48 47 47 45 45 45 43 39 39 43 43 20
1 0 0 0 37 47 48 50 50 51 52 50 51 48 48 49
49 46 46 47 47 45 43 39 38 35 34 37 50 51 40 36
35 42 51 54 45 36 30 21 15 4 8 14 71 87 84 98
109 108 105 109 117 130 135 134 138 136 140 142 143 145 148 150
150 149 150 150 151 149 145 138 134 127 120 104 93 101 124 118
114 131 86 69 29 31 36 32 39 53 50 49 50 50 48 48
48 47 48 48 49 49 49 49 49 49 49 49 48 48 48 48
48 47 48 48 48 48 47 47 47 46 44 38 38 42 43 24
1 0 0 0 40 50 48 48 48 48 47 44 44 49 49 51
52 50 50 49 49 48 47 51 51 49 46 47 53 60 57 52
52 58 61 49 44 36 28 25 13 5 6 16 63 95 76 91
102 106 100 100 106 113 123 128 136 140 139 142 142 139 138 141
141 142 143 143 143 141 134 129 123 122 115 101 96 126 131 126
123 145 85 64 27 28 34 45 47 57 53 50 48 52 50 49
49 48 49 51 50 50 49 50 50 50 49 49 49 50 49 49
48 47 49 48 48 47 47 46 47 46 43 38 38 42 42 25
23 19 15 12 43 54 48 48 48 48 48 49 52 54 51 54
57 61 58 50 48 49 49 60 60 57 54 55 53 48 44 42
47 56 47 49 45 31 26 23 13 6 11 10 62 109 73 81
91 99 95 91 99 109 118 124 134 140 144 145 144 139 133 127
121 121 125 126 126 126 122 117 114 113 108 95 105 134 142 138
128 139 94 65 22 27 38 51 49 65 54 51 48 51 51 49
51 50 50 51 50 50 49 50 50 50 49 49 48 49 48 48
49 48 48 47 48 47 47 46 46 46 43 37 37 41 41 27
56 58 62 60 63 58 52 51 52 51 52 56 58 60 53 56
58 64 58 52 46 43 49 62 61 58 56 56 55 50 42 36
43 43 50 49 40 34 33 23 14 10 11 5 61 116 82 68
76 83 82 75 82 103 111 116 124 130 135 141 139 138 131 120
109 101 101 104 108 109 107 106 107 108 98 90 113 138 139 141
118 118 86 56 14 29 37 52 63 68 65 47 49 50 53 49
51 50 50 50 50 50 49 49 49 50 49 49 48 49 49 48
48 48 49 47 47 46 47 46 46 44 43 37 36 41 41 29
67 68 68 67 67 60 49 45 46 44 47 55 60 64 53 56
56 54 55 54 51 44 41 55 52 51 52 56 55 53 43 36
41 47 50 41 39 36 33 24 17 14 3 5 57 112 103 61
60 65 66 60 62 78 100 108 113 119 126 130 132 130 126 119
113 104 98 95 93 93 94 99 104 103 87 94 110 141 151 148
126 115 92 25 8 22 36 52 67 71 74 53 45 49 52 49
51 51 51 50 51 50 50 50 50 49 49 49 48 48 48 48
47 47 49 47 47 47 47 46 46 45 43 37 35 40 41 31
57 59 62 63 65 54 15 20 13 11 15 22 36 61 54 50
29 27 34 36 34 40 44 41 17 11 12 23 30 33 39 42
42 41 45 44 43 42 33 26 26 15 5 2 65 113 120 65
53 48 51 56 63 69 86 99 106 111 120 125 127 129 127 125
126 128 125 115 105 96 95 98 101 92 85 113 72 111 152 149
126 104 53 6 7 12 36 55 66 73 78 56 40 44 48 48
48 48 50 50 49 50 51 50 49 49 49 49 49 48 48 48
47 47 49 48 46 46 45 44 45 45 43 37 34 39 41 33
39 39 39 39 42 40 4 0 0 0 0 0 9 56 54 33
3 2 6 10 16 33 48 40 7 0 0 1 14 23 37 33
32 31 42 45 47 46 42 38 20 11 3 1 59 104 83 18
52 53 54 67 77 75 84 95 102 107 119 124 127 132 133 134
138 139 143 137 127 117 109 103 87 81 109 120 69 27 75 88
79 51 1 7 7 10 25 53 66 70 66 58 29 27 27 28
27 44 50 50 50 50 50 50 49 49 49 49 48 48 48 47
48 48 49 48 47 46 47 45 46 45 43 37 35 38 41 34
47 45 44 43 44 40 12 6 0 0 0 4 19 56 50 12
0 0 0 0 7 37 49 42 6 0 0 0 10 23 33 16
25 34 29 36 48 52 51 32 13 1 0 0 17 31 5 0
42 54 66 73 82 81 87 97 104 110 118 126 133 137 139 142
145 145 145 140 135 124 115 96 92 111 124 120 97 29 3 0
3 0 0 4 6 11 27 48 56 64 61 50 27 18 17 21
20 43 52 51 51 50 50 49 50 49 48 48 49 48 48 48
47 47 48 47 47 47 46 45 45 45 44 37 35 37 40 35
50 50 50 50 51 42 10 6 0 0 0 4 25 56 42 4
0 0 0 0 0 33 49 42 6 0 0 0 11 22 34 21
29 31 20 36 47 51 40 21 5 2 0 0 0 0 0 0
35 53 65 79 86 90 89 102 110 117 123 130 138 145 148 148
147 148 147 139 136 126 113 108 123 135 134 119 108 58 4 2
4 1 0 4 9 11 26 50 51 55 56 40 26 18 17 19
21 43 51 51 51 50 50 50 50 49 48 47 49 48 47 48
48 47 47 47 46 46 46 45 44 43 42 36 33 35 36 33
51 51 51 53 54 44 8 6 0 0 3 7 8 51 36 1
0 0 0 0 0 33 48 40 6 0 0 0 14 24 36 20
22 24 26 39 48 48 31 9 8 6 0 0 0 0 0 0
25 70 64 78 90 98 99 108 119 127 135 140 145 150 151 151
151 149 140 139 139 127 119 127 140 140 134 118 114 59 12 7
10 1 2 2 13 11 19 48 51 43 36 31 25 17 15 18
20 42 51 51 51 51 50 50 49 49 48 48 49 49 48 48
47 46 46 47 47 46 45 45 44 42 42 35 30 31 35 33
47 34 28 38 52 49 7 0 0 0 5 13 5 49 34 0
0 0 0 0 0 33 48 39 5 0 0 1 14 22 36 20
18 21 27 39 49 45 15 17 16 9 2 0 0 0 0 0
24 75 77 76 92 101 110 114 127 140 144 148 151 151 151 152
151 149 145 144 142 130 129 141 146 141 126 119 108 51 17 14
13 0 0 3 16 18 18 41 50 39 31 25 18 16 16 16
20 38 51 51 50 51 50 49 50 48 48 48 47 47 47 47
46 46 47 46 46 46 46 45 44 43 41 35 31 32 35 33
41 17 0 10 42 55 22 3 0 0 5 9 2 45 32 0
0 0 0 0 0 32 49 37 7 0 0 2 12 14 35 16
20 26 25 46 42 30 25 29 24 13 0 0 0 0 0 0
25 74 85 79 93 105 114 118 130 145 151 152 151 152 151 152
151 151 150 149 147 138 142 147 149 139 129 121 105 46 14 8
9 0 0 1 9 28 25 35 47 42 33 24 18 14 17 18
18 34 49 49 49 47 48 48 48 48 46 48 48 49 48 47
47 47 47 46 45 45 44 44 43 41 40 34 30 31 34 33
42 19 0 5 39 56 20 2 0 0 4 11 5 44 31 0
0 0 0 0 0 23 50 39 14 0 0 1 15 10 34 17
24 24 35 53 32 26 34 44 35 14 0 0 0 0 0 2
20 70 91 87 95 107 117 121 134 147 152 152 152 152 152 152
152 151 152 151 150 147 149 149 148 139 127 125 106 41 14 8
5 0 0 4 11 24 40 44 46 37 34 19 20 16 21 25
29 48 47 49 50 50 50 49 49 49 47 48 48 49 49 47
47 46 46 46 45 44 44 43 42 40 39 33 29 29 33 31
41 23 0 1 34 53 7 0 0 0 0 0 2 43 33 0
0 0 0 0 0 19 51 38 8 0 0 1 13 12 35 26
31 28 46 48 26 30 41 51 37 15 1 3 7 0 2 0
11 72 92 93 97 104 114 122 139 149 151 151 152 152 152 151
152 151 151 151 151 150 151 149 148 143 133 127 105 41 13 3
2 0 0 3 14 29 41 49 52 46 35 18 20 17 14 11
21 72 17 16 35 50 50 49 50 49 49 48 47 47 48 47
47 46 46 45 44 44 44 42 41 39 39 33 27 28 32 31
39 26 0 0 29 47 4 0 0 0 0 2 0 42 38 0
0 0 0 0 0 17 53 38 9 0 0 3 17 21 42 35
29 26 57 39 24 39 49 50 37 22 12 25 4 1 4 0
11 74 95 96 98 105 113 124 142 152 152 152 152 152 152 152
152 152 152 151 151 151 151 150 148 140 109 73 45 17 11 2
0 0 0 2 12 22 48 54 54 57 40 22 24 22 15 2
14 31 35 17 23 50 49 49 50 50 50 49 48 48 48 47
47 46 46 46 45 44 43 42 40 39 37 33 28 27 31 31
38 29 0 0 25 46 7 1 1 0 4 19 5 40 47 11
9 9 14 9 10 24 55 42 37 32 31 31 38 41 48 36
24 32 58 31 25 42 56 50 37 30 37 25 8 12 0 0
8 71 91 99 100 105 108 119 139 152 152 152 152 152 152 152
152 151 152 152 151 151 147 110 72 30 15 13 12 9 13 2
0 0 2 8 14 21 30 34 51 50 34 22 27 29 22 7
10 17 24 17 21 50 50 49 50 49 49 48 48 48 47 47
47 46 46 45 45 43 43 42 40 39 38 33 27 26 30 30
36 31 1 0 17 50 41 39 33 35 45 53 46 51 55 57
55 51 54 55 55 57 61 44 48 53 55 51 54 56 54 42
35 50 52 31 22 42 54 44 36 34 49 24 13 21 0 2
9 25 55 84 99 105 106 115 133 149 153 152 152 152 152 152
152 152 150 131 95 59 23 17 16 15 12 11 10 10 16 1
0 5 5 0 4 7 5 11 28 42 38 20 28 31 20 12
14 14 7 11 20 50 50 49 49 49 49 48 48 48 48 48
48 46 47 45 44 43 42 40 39 38 36 32 26 25 29 30
36 31 2 0 11 51 53 52 47 52 62 63 57 52 51 66
65 61 60 62 65 65 64 46 43 50 56 54 59 52 59 48
45 52 46 27 21 40 51 40 35 51 41 24 25 16 0 2
4 6 10 12 21 41 58 71 86 112 130 141 137 132 111 94
78 49 25 19 18 17 17 15 14 12 10 9 10 9 10 1
0 2 4 3 6 12 10 0 5 18 34 31 29 33 24 16
13 15 9 8 20 45 32 24 37 50 49 48 49 48 47 47
46 45 46 45 44 43 42 40 39 38 36 32 25 24 29 29
34 31 3 0 8 51 53 46 46 53 61 65 57 48 44 53
56 56 55 55 56 56 56 45 37 42 47 51 45 48 49 46
49 44 40 27 30 37 44 38 41 42 29 27 28 2 0 1
2 3 5 7 10 11 13 13 16 17 19 20 21 20 21 17
18 19 16 17 18 17 13 13 11 9 8 10 11 10 7 6
0 7 6 8 9 18 5 0 4 10 24 18 33 33 22 35
18 1 1 0 9 22 31 34 11 41 50 49 49 49 48 47
48 46 45 45 44 43 42 39 38 38 36 33 25 24 29 30
34 31 5 0 6 50 43 39 39 42 52 63 58 51 45 35
36 36 36 36 36 36 39 41 40 41 42 45 37 40 41 43
46 45 33 32 31 40 36 34 44 31 31 31 16 0 0 0
1 1 2 2 5 6 8 11 10 15 14 16 15 18 18 15
15 15 13 13 15 11 10 9 9 10 13 11 11 9 11 8
0 5 3 6 14 19 7 0 3 7 22 34 25 38 47 68
61 4 3 1 26 45 49 49 33 26 49 47 48 48 47 46
46 45 44 43 42 42 41 39 38 37 36 32 25 23 28 29
33 30 8 3 13 50 33 23 28 31 40 48 48 47 48 36
36 36 39 42 42 42 43 47 47 48 50 48 39 42 42 37
43 35 31 41 33 35 33 34 35 32 41 29 10 0 0 0
0 1 1 1 2 3 6 6 9 10 10 12 13 14 12 12
12 11 13 11 10 10 10 11 11 12 13 13 11 10 9 8
12 7 1 2 16 17 12 0 6 7 11 32 39 33 39 56
64 8 0 2 44 49 49 49 43 18 49 48 48 47 47 46
44 43 42 41 40 40 40 39 37 36 35 33 26 23 27 29
31 30 20 26 36 52 26 1 1 2 5 12 18 26 49 42
50 48 50 60 60 47 43 46 47 49 53 47 41 38 32 37
40 31 41 43 33 36 32 34 37 35 38 25 2 0 0 0
0 1 1 0 2 3 4 5 7 7 11 10 12 12 11 12
11 13 11 11 10 10 10 13 12 12 12 11 10 10 10 10
19 12 7 2 19 18 18 1 9 10 9 21 29 32 34 30
29 1 0 2 43 49 49 47 44 19 48 48 48 47 46 45
43 41 41 40 40 39 39 38 37 36 34 32 24 24 28 30
31 29 41 53 56 57 28 0 0 0 0 0 7 27 52 43
56 55 53 67 64 21 10 12 13 17 25 38 38 29 33 44
31 38 55 39 29 26 28 34 40 24 43 12 0 0 0 4
4 1 2 2 2 3 4 6 8 10 14 9 11 12 12 12
12 11 13 13 12 11 13 11 14 14 13 13 11 11 7 15
18 20 15 4 19 26 29 4 14 15 23 24 27 32 29 28
19 0 0 6 38 50 49 48 43 22 48 47 47 46 44 42
40 39 38 37 37 38 38 38 36 36 34 32 25 23 28 29
30 28 41 55 57 59 34 0 0 0 0 0 0 21 53 39
52 44 20 28 46 11 0 0 0 0 6 27 30 32 35 42
33 44 62 43 29 20 29 36 35 21 43 4 0 0 0 10
2 4 5 4 4 4 6 7 9 12 13 9 11 11 12 11
13 10 12 12 12 10 13 13 13 12 12 13 10 10 10 25
30 32 17 5 17 26 54 12 11 16 32 38 42 35 35 31
29 4 0 0 36 50 49 49 37 29 47 47 46 45 45 41
38 37 36 36 35 36 37 36 35 34 34 32 25 20 24 28
29 27 38 50 50 49 31 0 0 0 0 0 0 19 54 40
51 38 0 5 37 12 0 0 0 0 4 21 29 35 36 41
38 52 60 34 33 13 32 33 25 24 27 0 0 0 5 0
2 1 4 4 5 6 5 7 8 12 11 8 11 11 12 10
13 11 9 12 14 12 13 13 13 13 13 12 11 9 17 25
50 44 28 13 10 24 52 23 11 4 18 47 62 58 44 39
29 15 0 0 36 49 48 45 21 39 44 40 41 45 44 39
35 33 33 32 32 34 35 36 35 33 33 31 24 20 24 28
29 26 25 21 22 23 7 0 0 0 0 0 0 22 54 41
52 39 1 5 34 15 0 0 0 0 3 17 37 35 37 35
43 55 54 28 38 13 27 32 21 39 7 2 1 0 1 0
5 1 3 5 6 6 7 7 7 11 10 7 9 10 11 9
14 12 12 15 15 13 14 14 14 12 12 12 10 6 12 44
46 46 40 25 6 24 31 29 9 5 7 33 66 85 73 48
35 20 0 0 12 18 17 13 13 39 20 20 21 45 43 39
35 32 31 32 31 33 34 35 34 33 32 30 24 19 23 27
28 25 22 17 18 21 4 0 0 0 0 1 0 23 54 41
52 39 1 5 32 19 0 0 0 0 0 19 42 38 38 36
48 53 43 32 37 18 19 28 18 40 5 4 0 0 0 3
1 2 4 4 5 6 7 7 9 11 11 10 10 11 12 12
14 13 13 14 13 13 14 13 14 13 14 10 10 10 19 33
42 46 62 46 8 15 26 26 15 4 5 10 47 82 90 68
44 28 1 0 0 0 0 0 3 8 21 90 49 44 42 39
34 31 30 30 31 32 34 34 33 33 33 31 25 20 23 28
28 24 23 20 20 24 4 0 0 0 0 2 0 19 52 41
52 37 1 5 29 20 0 0 0 1 2 20 46 42 41 44
53 47 36 31 34 34 14 25 32 21 11 7 7 2 0 5
2 1 3 3 4 6 6 8 12 13 13 11 13 13 13 11
15 12 15 12 16 15 14 15 15 13 13 8 8 10 13 23
45 53 48 22 10 3 25 30 25 14 12 10 20 62 73 70
45 41 20 19 19 17 3 0 21 24 72 101 112 33 28 25
31 31 30 31 31 32 34 34 33 33 32 31 26 21 24 28
28 23 24 23 22 25 4 0 0 0 0 5 0 15 54 42
53 40 6 6 27 23 6 2 0 4 5 21 47 46 40 45
61 39 36 31 40 46 22 25 47 8 13 9 2 0 0 3
0 2 2 3 3 4 5 9 10 10 14 9 12 12 15 12
15 12 13 12 16 12 10 12 12 11 12 9 8 7 5 18
37 44 47 41 14 2 6 38 29 22 20 12 16 37 55 43
42 44 26 27 25 20 4 0 1 1 1 2 4 8 7 8
30 34 33 34 34 35 36 37 36 36 35 34 29 24 26 30
27 24 24 26 26 27 4 3 3 0 2 16 6 12 54 43
54 43 23 8 26 26 8 8 8 6 5 24 53 48 46 41
59 39 37 36 38 44 28 36 32 1 13 21 13 3 0 1
2 1 3 2 4 5 6 9 8 9 13 9 13 11 14 11
13 12 12 12 13 11 10 10 11 13 13 10 11 10 3 11
18 27 35 39 23 7 0 15 35 27 38 27 13 26 32 31
28 25 8 11 13 14 7 5 5 2 0 0 0 11 9 10
33 36 33 32 31 31 29 27 23 21 18 16 13 8 6 7
27 23 23 25 26 27 6 5 4 0 2 21 23 12 57 45
57 40 31 17 24 21 5 15 15 7 2 20 58 48 49 40
50 37 35 38 39 39 36 36 22 4 11 38 34 18 0 0
3 2 3 3 4 4 5 7 7 10 12 10 13 11 13 11
12 11 11 12 13 13 9 11 9 12 13 13 10 5 1 3
15 48 49 57 52 31 11 4 28 37 44 41 16 24 26 29
23 17 2 6 10 9 9 8 11 9 7 3 0 5 14 25
30 29 28 29 32 35 37 38 39 39 40 42 42 37 37 43
26 22 23 26 27 29 22 21 25 22 26 37 41 37 61 46
57 36 27 27 23 25 11 18 18 13 11 22 51 48 47 40
47 38 37 39 40 37 40 23 15 12 13 26 59 37 0 0
8 1 2 4 4 4 5 6 10 11 12 9 11 11 12 10
11 11 12 11 13 12 9 11 10 12 12 12 9 5 0 16
38 52 39 19 10 17 9 3 13 54 48 36 20 28 33 28
20 8 3 10 10 9 9 9 11 11 12 10 9 5 38 58
55 54 53 54 55 58 58 58 57 56 55 55 54 46 44 49
26 22 23 27 26 29 46 50 54 55 58 63 66 68 71 51
57 33 13 30 25 38 34 34 33 31 32 33 41 35 44 40
45 40 42 39 40 39 27 21 13 11 11 18 37 14 2 0
7 2 3 4 5 5 6 5 7 10 8 8 11 11 11 10
12 11 13 11 14 13 12 12 16 15 13 12 9 13 4 20
45 46 55 30 8 0 1 1 6 41 78 31 22 41 39 24
15 4 11 11 11 8 8 11 11 12 11 11 11 11 21 52
56 55 55 54 56 57 57 57 56 55 55 55 53 46 44 49
26 22 21 26 27 27 49 57 58 59 61 66 69 71 72 60
55 32 3 14 23 38 34 34 35 34 34 35 38 34 32 47
41 40 41 40 46 39 23 23 14 6 5 21 24 4 0 0
5 2 4 5 5 6 6 6 8 7 8 11 9 11 11 9
11 11 12 11 13 11 14 15 13 12 11 8 11 28 2 15
46 49 65 39 12 1 0 0 2 27 81 39 24 58 53 19
13 10 10 10 10 10 8 12 12 12 12 11 12 12 9 18
51 55 54 54 55 55 56 55 55 55 54 54 54 48 44 47
26 21 21 26 27 25 35 44 43 44 44 48 51 51 51 47
52 33 1 8 20 39 38 39 40 39 39 40 39 36 35 44
41 32 24 27 22 19 21 18 16 16 17 7 17 1 0 0
3 8 3 5 5 5 6 8 9 7 9 12 9 13 11 12
12 13 12 13 12 12 9 6 7 7 9 10 47 6 0 7
23 36 32 34 30 10 2 1 2 33 60 42 48 61 44 8
17 12 11 11 10 9 9 11 12 12 10 12 12 11 12 9
20 53 55 54 54 54 55 55 55 55 55 54 54 48 43 46
25 20 21 25 27 24 19 18 18 19 21 26 32 33 35 33
50 34 2 5 17 40 39 41 40 40 41 40 40 37 36 33
41 19 10 15 14 7 8 13 10 11 29 18 5 1 1 2
2 19 0 2 5 6 7 7 10 10 14 14 11 12 12 12
11 13 10 8 7 5 9 8 10 8 10 28 31 0 0 2
8 4 6 17 2 6 1 5 8 41 46 33 55 48 14 16
13 13 14 12 10 8 8 12 12 12 12 12 12 11 11 10
8 28 54 53 53 53 54 53 54 54 54 54 54 48 44 46
25 20 20 24 26 25 21 19 19 20 22 26 32 35 35 34
49 37 7 5 17 39 36 39 40 39 39 39 38 32 26 17
30 27 18 20 34 27 21 12 9 8 10 11 2 0 4 2
1 24 1 0 0 0 1 3 6 7 9 9 8 7 6 6
5 4 6 9 9 9 9 8 9 8 11 53 3 0 1 4
8 8 8 17 12 9 10 14 24 31 27 34 34 13 4 9
4 9 13 12 10 8 8 11 12 11 11 11 11 11 11 9
9 7 42 53 53 53 53 53 53 53 53 53 53 48 42 44
24 19 19 23 25 26 25 24 25 25 26 29 33 35 36 36
52 43 35 43 47 44 36 39 39 35 24 16 10 5 3 1
10 21 32 47 54 44 27 21 16 12 6 5 3 5 7 9
7 20 3 2 2 0 0 0 1 1 3 2 4 5 6 6
7 8 8 8 8 7 8 7 8 9 39 18 7 6 8 9
13 14 7 8 13 15 26 31 16 11 9 19 10 5 8 6
5 5 10 11 10 7 8 11 11 11 10 11 10 9 10 8
7 7 15 52 53 52 53 52 52 53 53 53 53 48 43 44
25 18 18 22 24 25 25 25 25 26 27 31 36 38 36 35
51 46 49 58 56 44 35 38 29 9 7 7 8 8 7 6
5 5 11 18 15 14 16 9 8 10 9 7 3 7 8 6
6 24 0 1 4 3 1 2 1 3 4 4 4 4 4 4
4 6 7 7 7 7 9 9 10 25 41 8 10 11 11 12
13 10 9 10 10 10 9 6 7 13 9 9 8 8 7 7
7 7 10 10 6 8 8 11 10 9 10 10 8 7 10 8
6 9 6 32 53 52 52 52 52 52 52 52 52 49 42 42
22 18 18 21 24 25 25 24 25 26 27 32 36 37 35 32
37 34 34 36 37 36 36 28 6 7 9 8 9 9 8 8
7 8 8 9 14 12 10 10 8 9 7 2 2 3 10 10
9 32 7 3 3 1 2 2 2 2 4 4 4 4 4 5
7 7 8 9 11 11 10 10 13 56 12 12 10 12 14 13
11 10 11 8 7 8 7 7 8 7 8 7 7 6 8 8
9 9 9 8 7 7 9 10 11 9 10 8 6 6 9 7
5 9 7 11 50 52 52 52 52 52 52 53 53 50 42 42
18 18 18 22 24 25 25 25 25 26 27 30 35 37 34 34
35 34 32 32 34 35 26 5 3 7 9 8 8 9 8 8
8 6 9 9 8 10 10 9 7 3 3 3 2 2 5 11
10 36 13 9 9 8 9 8 6 7 6 6 7 9 10 9
8 9 11 9 10 11 11 13 53 28 10 11 13 13 12 13
11 11 9 9 10 9 10 9 8 7 9 6 6 6 7 8
8 8 9 7 6 5 11 11 10 10 10 7 5 6 10 3
6 9 8 6 30 52 52 51 52 51 52 52 52 50 42 40
16 17 18 20 22 24 25 25 27 26 28 31 35 36 35 34
36 35 34 32 34 25 3 2 4 8 8 7 8 8 9 8
6 6 8 10 8 12 10 6 3 3 3 3 3 3 3 6
11 24 22 9 10 11 11 10 9 11 10 9 10 10 10 10
11 12 13 12 12 13 12 21 43 11 13 14 13 11 11 11
11 10 10 10 10 10 10 9 7 6 8 9 8 7 7 11
9 9 10 6 7 6 7 9 9 9 9 5 4 6 9 4
7 7 8 5 10 49 52 51 51 52 51 52 51 50 42 40
15 15 17 20 22 23 24 25 26 27 28 31 35 36 34 34
36 35 35 34 29 4 3 3 4 7 7 7 8 8 7 7
5 8 8 9 8 6 3 3 4 4 3 2 3 2 3 4
8 24 59 14 8 10 10 11 11 11 12 11 11 11 10 10
11 11 10 10 12 10 13 48 16 13 15 12 13 11 10 10
11 10 10 10 9 9 12 11 9 8 8 9 9 8 7 9
9 9 8 7 6 7 7 11 11 9 9 5 3 6 9 3
6 7 7 5 4 30 52 51 51 51 51 51 51 50 42 40
10 10 18 20 21 22 23 24 26 27 28 32 37 36 35 35
36 35 35 33 8 2 2 3 4 6 7 7 7 7 7 7
5 7 4 4 4 4 5 5 3 4 6 4 4 4 4 5
6 37 57 23 10 10 8 7 9 10 9 8 9 9 10 10
10 9 12 12 13 13 30 28 12 11 11 13 11 10 11 11
12 11 11 11 11 10 9 8 9 9 10 8 9 8 9 9
10 9 9 8 6 7 8 8 9 9 8 4 4 6 9 4
5 6 8 5 6 9 48 51 50 51 50 50 51 50 43 39
10 13 16 20 20 21 22 24 25 26 28 32 36 36 35 35
35 35 35 22 0 2 2 2 3 7 8 7 7 6 6 6
6 7 5 3 5 6 6 7 5 7 6 6 6 6 7 7
8 9 39 31 10 12 12 12 12 11 10 11 10 11 12 12
12 12 12 11 11 11 59 9 12 13 12 12 12 11 12 11
11 10 11 10 11 10 10 9 9 9 8 7 8 8 8 9
8 10 9 8 7 6 6 7 10 9 7 4 3 7 8 2
5 6 7 5 6 5 29 51 50 50 51 51 51 50 43 40
8 12 14 17 19 21 22 24 25 26 28 32 36 36 36 36
35 35 34 6 0 1 2 1 2 6 7 6 8 8 6 5
7 7 6 7 7 7 8 6 6 6 6 7 7 7 8 8
7 8 7 48 11 9 9 10 10 11 10 9 9 10 9 8
8 10 10 10 11 40 28 12 12 12 12 12 12 11 11 11
11 10 10 10 9 10 10 9 10 8 8 8 9 9 8 10
10 10 8 9 8 6 6 7 8 10 8 3 3 6 6 0
5 8 8 6 7 6 10 47 50 50 50 50 50 50 44 39
8 13 16 17 20 22 24 26 27 28 30 33 35 35 35 35
35 34 25 0 0 0 1 1 2 6 6 7 7 6 7 7
6 7 7 6 6 6 6 6 7 6 7 7 6 8 8 8
9 9 9 29 48 7 8 8 8 8 9 9 10 9 10 9
9 10 11 11 14 49 10 12 13 12 12 13 12 11 11 10
11 10 11 10 10 8 9 9 9 10 9 8 8 7 8 10
10 9 9 8 8 7 4 7 9 10 8 4 4 7 5 0
2 7 7 3 7 5 4 30 51 50 50 50 50 50 45 39
11 17 20 21 23 26 27 28 30 31 33 34 35 34 35 35
35 34 12 0 0 0 0 0 1 4 6 7 8 7 6 6
6 6 6 6 6 7 6 6 6 7 6 7 7 8 8 10
10 10 10 9 46 12 10 9 10 10 10 11 10 10 11 10
11 11 11 10 46 18 12 12 12 13 12 12 11 11 11 11
11 10 10 10 10 9 9 9 10 9 9 9 8 8 9 9
10 9 10 8 8 7 3 5 7 7 7 4 3 8 3 0
4 7 5 5 7 7 4 10 48 49 49 49 49 49 45 38
16 18 20 24 23 26 29 30 31 32 33 34 34 34 34 35
35 31 2 0 0 1 1 0 1 5 7 8 7 7 6 6
6 5 5 5 6 6 5 6 6 7 7 8 7 8 8 9
9 9 10 10 18 55 9 10 10 10 10 10 11 10 10 10
11 10 12 19 33 11 12 12 13 13 14 13 12 12 11 11
10 10 11 10 9 9 9 9 9 8 8 10 8 7 9 10
9 8 9 8 8 7 5 4 7 6 7 5 3 7 1 0
5 6 5 5 6 6 4 3 33 50 49 50 50 49 46 38
10 9 11 23 18 24 28 29 30 31 33 33 34 34 35 34
34 22 0 0 0 2 1 0 0 3 6 7 8 7 6 6
5 5 6 6 6 6 5 6 7 6 7 6 7 8 8 9
9 9 10 10 9 53 29 10 10 11 12 12 10 11 12 12
13 12 13 46 12 11 12 12 13 12 11 12 11 9 9 10
9 11 11 10 9 10 11 9 10 9 9 8 8 8 9 9
9 9 9 8 7 7 5 2 6 5 5 4 3 6 0 1
6 6 4 5 6 6 4 3 11 49 48 49 49 48 46 38
4 3 7 24 20 20 24 25 27 29 30 32 32 33 33 33
33 10 0 0 0 2 2 0 0 1 5 6 6 6 6 6
6 5 6 6 7 6 6 7 6 7 6 7 6 9 9 8
9 8 9 10 10 12 50 10 10 11 11 11 11 11 11 11
12 13 42 37 11 11 12 12 12 12 11 11 10 9 10 10
9 9 10 7 8 9 8 9 8 8 9 9 8 8 8 8
8 7 8 7 7 6 7 3 4 6 4 6 4 4 0 2
6 5 3 5 6 5 5 3 1 34 48 48 48 48 46 38
