P2
128 120
157
43 43 42 42 41 40 39 39 39 38 38 37 36 35 35 34
34 33 33 32 32 31 31 30 30 30 29 28 28 28 27 26
26 25 26 25 23 21 20 18 17 19 22 23 24 25 20 16
27 30 28 26 25 25 24 22 21 18 16 16 15 15 20 21
19 21 16 19 23 23 24 25 26 26 27 26 27 28 28 29
29 30 30 30 32 32 32 32 33 33 33 34 34 34 34 35
36 37 38 38 39 39 39 40 41 41 41 42 42 42 44 42
43 43 44 44 44 44 44 44 44 44 45 44 44 44 44 45
43 42 42 41 40 40 39 38 38 38 37 36 36 36 35 35
34 33 33 33 32 31 31 30 30 30 29 29 28 28 27 27
26 26 26 25 24 22 21 20 19 20 23 25 27 28 21 15
28 31 27 26 26 25 25 24 22 20 19 18 17 16 20 21
21 19 22 23 25 26 26 27 27 27 27 28 28 28 29 30
30 30 31 31 32 33 33 33 34 33 34 34 35 37 36 38
38 38 39 39 39 40 40 41 41 42 42 42 42 41 44 43
43 43 44 44 44 44 44 44 45 45 44 44 44 45 45 44
43 43 42 41 41 40 40 39 38 38 37 37 37 36 35 35
35 34 33 32 32 32 32 31 31 31 30 29 29 29 28 27
27 27 26 25 25 23 22 21 21 23 26 28 29 29 21 13
28 32 29 27 27 25 25 24 23 21 22 23 19 15 19 22
21 22 23 25 26 27 27 28 29 29 29 29 30 31 31 31
31 32 32 33 33 33 33 33 34 35 36 36 37 37 37 38
39 40 40 40 40 40 41 41 42 42 42 43 43 43 45 42
43 44 44 44 44 44 44 44 45 44 45 45 45 45 45 44
43 43 43 42 41 42 40 40 39 39 38 37 37 37 36 36
35 34 34 33 32 32 32 31 31 30 30 29 29 28 28 28
28 27 27 26 25 25 23 23 22 24 28 30 30 30 22 14
28 33 30 29 28 27 26 25 25 22 23 23 22 17 17 24
21 23 24 26 27 29 29 30 30 30 30 31 31 31 32 32
33 33 33 33 34 34 35 35 35 37 37 37 39 40 39 39
39 40 40 41 41 41 41 42 42 42 43 43 43 43 45 43
44 44 44 45 45 44 45 44 45 45 45 44 44 45 45 45
43 42 42 41 42 40 40 40 39 38 39 37 37 37 37 37
36 35 35 34 33 33 33 32 31 31 31 30 30 30 29 29
28 28 28 27 26 26 25 23 23 25 30 31 32 31 24 15
27 34 30 30 29 29 27 26 25 23 25 24 24 18 17 25
22 25 27 28 29 30 30 30 31 32 32 32 33 34 33 33
32 33 34 35 35 35 36 36 37 37 37 38 39 40 39 39
40 41 41 42 41 42 41 42 43 43 43 43 43 43 46 43
44 44 45 45 45 45 45 44 44 46 46 46 46 47 47 46
43 43 42 41 42 41 40 40 39 39 39 38 37 37 37 36
36 35 34 34 33 33 33 32 32 32 31 31 31 30 29 29
29 29 28 28 27 27 26 26 26 26 31 31 31 31 24 15
26 34 31 30 29 29 28 27 26 25 26 25 25 21 19 24
25 27 28 30 30 31 31 32 33 33 32 32 33 32 33 33
34 35 35 36 36 36 37 37 38 38 38 39 39 40 40 40
41 41 41 41 42 42 42 42 43 43 44 43 43 43 45 44
44 44 44 44 44 44 44 45 46 46 46 45 46 46 46 46
43 43 43 42 42 41 41 40 40 39 39 38 38 37 37 37
36 35 35 34 34 34 34 32 32 32 31 31 31 30 30 29
29 29 28 28 28 27 27 27 28 29 32 33 33 33 25 17
26 34 31 30 30 29 29 28 27 27 26 26 26 22 21 24
26 29 30 30 32 32 32 33 32 32 33 34 34 35 35 35
35 35 36 36 36 37 37 37 38 37 38 39 39 41 41 41
41 42 42 42 42 42 43 43 44 44 44 44 44 44 44 43
43 44 45 46 46 45 45 45 46 46 46 46 46 46 46 45
44 44 43 42 43 42 41 41 41 40 39 39 38 37 37 37
36 35 36 35 35 34 34 33 33 32 32 31 31 31 30 30
30 30 29 29 29 28 28 28 28 29 33 34 34 33 26 19
25 35 32 31 30 30 30 29 28 28 28 27 27 24 21 25
27 30 31 31 32 32 32 33 34 34 34 35 35 35 35 36
36 36 37 37 38 37 38 38 39 39 39 40 40 42 40 40
41 42 42 43 43 42 43 44 44 44 44 42 43 43 44 45
46 45 46 46 45 45 46 47 45 46 46 46 46 46 46 46
44 44 43 42 42 41 41 41 40 40 40 39 39 38 37 37
37 36 36 36 36 35 34 34 34 33 32 32 32 31 31 31
30 30 29 29 29 28 28 29 29 30 34 34 35 34 26 21
24 35 33 32 32 32 31 30 31 31 28 27 27 26 23 26
28 31 31 32 32 33 34 34 35 34 35 35 36 36 36 37
37 37 38 38 38 38 38 38 39 40 40 40 41 42 42 42
42 42 44 43 44 41 42 43 42 42 44 45 46 45 44 45
46 45 46 46 46 46 46 46 46 47 47 47 47 47 47 46
44 44 44 43 42 42 42 42 41 40 40 39 39 38 38 38
37 37 35 36 35 35 35 34 34 33 33 32 32 32 32 31
31 31 30 30 30 29 29 29 30 31 35 35 34 35 27 23
23 35 33 32 32 32 31 31 30 30 29 29 29 27 26 28
29 32 33 34 34 34 35 36 35 36 36 36 37 36 37 37
37 37 38 38 38 39 39 39 40 40 40 41 42 44 42 42
43 43 43 42 42 44 44 44 45 45 45 45 45 45 45 46
45 46 46 46 46 46 46 47 46 46 47 47 47 47 47 47
45 44 43 43 43 42 42 41 41 41 40 40 39 39 38 38
37 37 36 36 36 35 35 34 34 33 33 33 33 32 32 32
32 31 31 30 30 29 30 30 31 32 36 35 36 36 28 24
23 35 33 31 31 32 32 31 30 32 29 30 29 28 27 30
31 34 34 34 35 35 35 36 36 36 36 37 37 37 37 37
38 38 39 39 39 39 39 39 40 40 40 41 42 43 42 41
40 41 42 43 44 44 46 45 45 44 45 45 46 44 45 45
46 46 46 46 46 46 46 46 46 47 46 47 47 47 47 46
44 44 43 43 43 42 42 42 41 40 40 40 39 39 38 38
38 37 36 36 36 35 35 35 35 34 34 33 33 32 32 31
31 30 31 30 30 30 30 30 31 32 36 36 36 36 29 24
19 33 33 32 32 33 32 31 31 32 30 31 29 29 27 29
32 34 34 34 35 35 35 36 36 37 37 37 37 38 37 37
38 38 39 39 40 39 40 40 40 40 40 40 39 39 40 41
43 43 44 44 44 44 45 45 45 45 45 45 45 45 45 46
45 46 46 46 46 46 45 45 46 46 47 46 47 46 46 47
44 43 43 42 42 42 41 40 40 40 40 40 39 39 38 38
38 37 37 36 36 35 35 35 34 34 33 33 32 32 31 31
31 31 31 30 30 29 29 30 31 32 35 36 36 35 29 21
14 31 35 33 33 33 32 32 31 33 30 31 31 30 26 31
32 34 35 35 35 35 35 36 36 36 36 37 37 37 37 38
38 38 39 39 39 39 40 39 39 39 39 40 41 42 42 43
43 43 44 44 44 44 45 44 44 44 44 45 44 45 45 45
45 45 45 46 46 46 46 46 46 46 46 46 46 46 47 46
44 43 42 42 42 41 41 40 40 40 39 39 38 37 38 37
37 37 36 36 36 35 35 35 34 34 33 33 32 32 32 32
32 31 30 30 30 29 29 29 30 31 35 36 36 35 28 22
20 33 35 33 33 33 32 32 32 33 31 31 31 30 27 32
32 34 35 34 35 35 35 35 36 37 36 37 37 38 37 38
38 38 38 38 38 38 38 38 39 40 41 41 41 41 42 42
43 42 43 43 43 43 46 44 45 45 45 44 44 45 45 44
45 45 45 44 45 45 45 45 45 45 45 45 46 46 46 46
43 43 42 42 42 41 41 40 40 39 39 39 39 38 38 38
37 36 36 35 35 35 35 34 34 34 33 33 32 32 31 31
31 30 31 30 30 29 29 30 31 32 36 36 36 35 27 24
24 31 36 34 33 33 33 32 32 33 30 31 31 30 27 33
33 35 35 35 35 35 36 36 36 36 36 37 37 37 37 37
38 37 38 38 38 39 39 40 40 40 41 41 42 42 42 42
43 43 43 43 44 44 45 44 44 45 44 44 45 44 44 45
44 44 44 45 44 46 46 45 45 45 46 46 46 45 46 45
43 43 43 42 41 41 42 42 41 40 40 40 39 38 38 38
38 37 37 37 36 35 35 35 34 34 34 33 33 33 32 32
31 31 30 30 30 30 29 31 32 33 37 36 37 36 28 25
27 31 37 35 35 34 34 33 33 33 31 32 32 32 28 33
33 36 35 36 36 36 36 37 37 38 37 38 38 38 38 38
38 39 39 39 40 41 40 41 41 41 41 41 41 43 42 43
43 43 44 44 45 45 46 44 45 45 45 45 45 45 45 46
45 45 45 45 45 45 46 46 46 46 47 46 46 45 44 46
43 43 43 43 42 42 42 41 41 41 40 40 40 39 39 39
39 37 37 37 37 36 36 35 35 34 34 34 34 33 33 33
32 32 32 32 31 31 31 31 32 33 37 38 38 37 29 26
29 30 37 36 35 35 35 34 34 35 33 33 33 32 29 35
35 37 37 37 37 37 38 38 37 37 37 37 38 38 38 39
39 40 40 41 41 42 42 42 42 42 42 42 43 43 43 43
44 44 45 45 45 45 46 45 45 45 45 45 45 45 45 45
45 45 46 46 47 47 46 46 45 45 47 46 47 47 46 45
43 44 43 43 42 42 42 42 41 41 41 40 40 39 39 39
38 38 38 37 37 37 36 36 36 35 35 35 35 34 33 33
33 32 32 32 32 31 31 31 32 34 37 38 38 38 30 27
31 29 36 36 36 35 35 35 34 35 33 34 34 33 30 35
35 37 37 37 38 38 37 37 37 38 39 39 40 39 40 40
40 40 41 41 41 43 41 41 42 42 43 43 43 43 44 44
45 45 45 45 45 45 46 46 45 45 45 45 46 46 46 46
46 46 46 46 45 45 46 47 47 47 46 46 46 47 47 46
44 44 43 43 43 42 42 42 42 42 41 41 40 40 40 39
39 38 38 38 38 37 36 36 36 35 35 35 35 34 34 33
33 33 33 32 32 32 32 32 33 35 39 39 39 38 30 27
33 28 38 37 37 36 36 35 35 36 34 34 34 33 30 35
36 38 38 37 37 38 38 39 39 39 39 39 40 40 40 40
41 41 41 41 42 43 42 42 43 43 43 43 44 43 44 44
44 45 46 45 45 45 47 46 45 45 47 46 47 46 45 44
45 45 46 46 47 46 46 47 46 46 46 46 46 46 46 46
44 44 43 43 43 42 42 42 42 41 42 41 41 41 40 40
39 39 39 38 38 37 37 37 36 37 36 36 36 34 34 34
34 33 32 33 32 32 32 32 34 35 40 40 40 39 32 28
35 28 39 38 37 37 36 36 35 37 34 35 35 34 30 35
33 37 38 38 39 40 40 39 40 40 40 41 40 40 41 41
41 41 42 42 42 43 43 43 44 43 44 44 44 44 45 46
45 45 46 46 46 46 47 46 47 46 46 46 45 45 46 45
46 46 47 46 46 47 46 46 47 47 47 46 46 47 46 47
44 44 44 44 43 43 43 43 42 41 41 41 41 40 40 40
40 39 39 39 38 38 38 37 37 36 36 36 36 35 35 35
34 34 34 33 33 33 33 34 35 36 39 40 40 39 32 28
37 29 39 39 38 38 37 36 36 39 35 36 36 36 31 37
37 40 39 39 40 40 41 39 41 40 40 41 41 41 41 42
42 42 42 42 43 43 44 44 44 45 45 44 44 45 45 45
46 45 46 46 46 45 45 45 46 45 46 46 47 47 47 48
46 46 46 47 47 47 47 46 47 47 47 47 46 46 46 47
44 44 44 43 43 43 43 42 42 42 41 41 42 41 41 40
40 39 40 39 38 38 39 38 37 37 37 37 36 36 36 35
35 34 34 34 34 33 34 34 34 36 40 41 41 40 32 29
38 29 39 39 39 38 37 38 37 39 36 36 36 36 32 38
37 40 40 40 40 41 41 41 41 41 42 41 42 42 42 42
42 43 43 43 43 43 44 44 43 44 44 45 45 45 46 46
46 46 46 45 45 46 47 46 47 47 47 47 47 46 47 49
46 46 47 46 47 47 47 47 47 47 47 47 47 47 47 47
45 45 44 45 44 44 44 43 42 42 42 41 41 41 40 40
40 39 39 39 39 38 39 38 38 37 37 37 37 35 36 35
35 35 35 35 34 34 34 35 35 37 41 41 41 41 32 28
38 30 39 38 38 38 38 37 37 39 36 36 36 36 33 38
37 40 41 41 40 41 43 42 42 41 41 41 42 42 43 43
43 43 44 44 44 45 44 45 45 45 45 45 45 45 45 45
45 46 47 47 47 47 47 47 48 47 47 48 47 48 47 49
47 46 47 46 47 46 47 47 47 47 47 47 47 46 46 47
44 44 44 44 44 43 43 43 43 42 43 42 42 42 41 41
41 41 40 39 40 39 39 38 38 38 37 37 37 37 36 36
36 35 35 34 34 34 35 35 36 38 42 42 42 42 34 30
40 32 38 38 39 40 39 38 38 39 37 37 37 37 34 40
40 41 41 41 42 41 45 42 42 42 41 41 42 42 43 44
44 44 44 44 45 45 45 45 45 45 45 45 45 46 46 47
48 48 48 48 47 47 47 47 48 47 48 47 48 48 48 49
47 47 47 47 47 47 47 48 48 48 47 47 48 47 47 47
44 44 44 44 44 43 43 43 43 42 42 42 41 41 41 40
40 40 40 40 40 40 39 39 39 38 38 38 37 37 37 36
36 35 35 35 35 35 35 35 36 37 42 42 42 42 34 30
39 33 37 39 40 39 39 39 38 39 44 45 47 49 49 44
36 37 39 42 42 41 43 42 42 42 43 43 43 43 43 43
44 44 45 44 45 45 44 44 45 44 45 45 46 47 48 47
47 48 48 48 48 47 48 48 48 48 48 47 48 48 48 49
47 47 47 47 47 48 47 47 48 48 49 48 48 48 48 47
44 44 44 44 44 44 43 44 43 42 43 43 43 42 42 42
41 41 40 40 40 40 39 38 39 38 39 38 38 38 37 37
36 36 36 36 35 36 35 36 36 38 43 43 43 42 35 30
40 36 36 41 40 40 40 38 42 54 57 54 47 36 31 25
25 24 20 25 39 43 42 41 43 43 43 46 45 43 44 44
45 45 44 45 45 45 45 45 46 46 46 46 46 47 49 48
47 49 48 49 48 48 48 48 48 47 48 48 49 48 48 49
48 48 48 47 47 48 48 48 48 48 48 47 48 48 47 47
45 45 45 44 44 44 44 44 44 43 43 42 42 42 42 41
41 41 41 40 40 40 39 39 39 39 39 37 38 38 37 37
37 37 36 36 36 36 36 36 38 38 43 43 43 42 34 30
40 37 34 41 41 40 33 35 56 50 49 46 32 25 11 5
4 3 7 10 22 35 37 37 37 38 46 47 47 46 46 46
44 44 45 45 45 46 45 45 47 47 46 47 47 47 49 48
47 48 48 48 49 48 48 48 48 48 49 48 49 48 48 49
48 47 48 48 47 47 47 47 47 48 48 48 48 48 47 48
45 44 44 44 44 44 44 43 43 43 43 43 43 43 42 42
42 41 41 41 40 40 40 40 39 39 39 39 39 38 38 38
37 37 37 37 36 36 36 36 37 39 43 44 43 43 35 30
41 40 33 42 39 26 26 43 42 29 25 20 15 10 7 1
0 0 0 1 9 23 27 24 28 35 44 44 43 46 46 44
46 47 46 46 46 46 47 46 46 47 47 48 48 48 49 48
49 49 49 49 48 48 48 48 48 47 48 48 48 48 47 50
49 48 48 48 49 48 48 48 49 48 47 47 47 46 45 46
45 45 44 45 44 44 45 44 44 44 43 43 42 43 42 41
42 41 41 41 41 40 41 40 40 40 39 40 40 38 38 38
38 37 37 37 37 37 37 37 38 39 44 44 44 43 36 30
41 42 33 41 29 20 37 34 20 22 17 10 8 8 4 3
1 1 0 0 5 10 15 18 24 32 35 44 52 47 48 45
45 46 47 45 46 46 46 47 47 47 48 48 48 48 50 48
49 49 49 49 49 48 48 49 49 48 49 48 49 48 49 49
49 48 49 49 47 48 48 47 46 46 46 47 48 49 49 48
45 45 45 45 45 44 45 44 44 44 44 43 43 43 43 43
42 42 42 41 41 41 40 41 40 40 39 39 40 39 39 39
38 38 38 38 37 38 37 38 39 39 44 45 45 44 37 31
41 44 33 34 23 36 50 31 28 18 4 1 1 4 7 2
6 10 8 4 6 3 8 15 18 20 33 33 45 54 48 48
45 46 46 48 47 47 48 48 48 48 48 49 49 48 49 48
49 49 50 49 49 49 49 49 49 49 49 49 49 49 49 50
49 47 48 47 47 47 47 48 49 50 48 46 48 47 47 46
45 44 45 45 44 44 44 44 44 44 44 43 43 43 42 42
42 42 42 42 41 41 41 41 41 40 40 40 40 39 38 38
38 38 38 38 37 37 37 38 39 40 44 45 45 45 37 31
42 48 47 25 31 49 42 39 30 10 8 7 9 8 10 9
12 17 21 14 10 13 14 13 16 22 27 40 37 44 53 44
46 47 46 46 47 47 47 48 48 48 48 49 48 48 49 49
49 49 49 49 49 49 49 48 49 49 49 49 49 48 47 47
46 45 48 48 49 46 47 48 48 50 47 48 48 47 47 47
45 45 44 45 45 45 45 44 44 44 43 44 44 43 44 43
42 42 42 42 41 42 41 41 41 40 40 40 39 40 40 39
39 39 39 38 38 38 38 38 39 40 45 45 45 44 37 31
48 57 32 24 49 41 49 37 17 16 18 21 25 30 43 54
57 50 43 33 24 21 8 9 14 26 28 25 35 34 43 53
48 49 47 46 47 47 48 48 49 49 48 49 48 49 50 49
49 49 50 50 50 50 50 49 48 47 47 46 47 48 48 49
49 49 49 49 48 48 48 49 48 50 48 47 47 46 47 48
46 45 45 45 45 45 45 45 44 44 44 44 44 43 44 43
43 43 43 42 42 41 42 41 41 41 40 41 40 40 40 39
40 39 39 38 38 38 38 38 39 40 45 46 45 44 38 37
50 34 21 35 33 37 31 6 11 28 48 67 90 102 105 104
105 102 72 58 54 51 41 27 19 18 30 30 36 34 36 46
54 47 47 46 47 47 47 47 48 49 49 49 49 49 50 49
49 49 49 49 49 48 48 48 48 49 49 49 49 49 49 49
48 48 48 48 48 48 48 48 48 48 47 47 47 48 48 48
45 46 45 46 45 45 45 45 45 44 44 45 44 44 44 43
43 43 43 43 42 42 41 41 41 41 41 41 41 41 40 40
40 39 39 38 38 38 39 38 40 40 46 46 45 45 40 40
25 14 30 22 25 29 12 8 39 79 96 115 125 127 124 119
117 117 110 86 68 65 73 61 52 29 28 39 37 46 34 46
42 42 51 46 51 48 48 48 49 48 49 49 49 48 49 48
48 48 49 49 49 48 48 50 48 48 49 49 49 48 49 48
48 48 48 48 48 48 48 48 48 49 47 47 47 47 47 48
46 45 45 43 44 45 46 45 45 45 45 45 45 44 44 44
44 43 43 43 43 43 42 46 46 43 42 41 41 41 40 40
40 39 39 39 39 39 39 39 40 41 46 45 44 44 38 22
17 21 12 14 13 8 19 54 89 113 133 141 141 138 134 132
122 115 121 120 102 75 80 77 76 68 44 38 41 42 42 48
53 43 46 53 51 48 48 48 49 48 48 48 48 48 48 48
49 49 48 49 48 48 49 50 48 48 48 48 48 48 48 49
49 48 48 48 48 49 48 48 47 49 48 47 46 47 48 48
46 46 45 48 56 54 52 50 47 45 45 43 44 44 44 43
43 43 43 43 44 43 45 58 58 53 49 46 45 41 41 40
40 40 40 39 39 39 39 39 40 41 46 46 45 41 36 26
12 4 21 23 9 13 61 96 122 141 146 146 142 138 138 138
131 122 118 127 135 124 81 82 80 80 72 49 43 45 34 40
57 54 45 44 51 48 47 48 48 48 49 48 48 47 48 48
48 48 49 49 48 49 49 50 49 49 49 49 49 48 48 48
48 48 47 47 48 48 48 48 47 49 47 47 47 48 46 48
46 46 45 50 61 58 58 55 52 50 49 48 46 45 45 44
44 43 43 43 43 43 47 58 57 54 53 53 53 47 41 41
41 40 40 40 40 39 39 40 41 42 46 46 46 36 33 15
4 6 33 29 13 48 94 119 132 136 137 134 131 139 142 145
144 137 130 116 116 137 126 98 88 76 77 67 52 46 39 28
50 39 50 31 47 49 48 48 47 49 48 49 49 48 49 48
48 48 49 49 49 48 48 50 49 49 49 48 48 48 48 48
49 48 48 48 48 48 48 47 48 47 48 47 48 48 47 47
47 47 46 51 61 60 58 54 54 55 56 58 50 51 49 46
45 43 43 44 44 43 46 56 55 53 52 53 53 49 42 41
41 41 40 40 40 40 40 41 41 42 46 47 45 29 14 11
6 14 20 21 40 92 114 120 123 131 136 140 144 147 148 149
149 147 147 141 129 113 119 129 109 82 76 73 61 41 42 23
38 34 28 29 37 48 50 48 49 48 48 48 48 49 48 48
48 48 49 49 48 48 49 51 49 49 49 49 49 48 48 48
48 48 48 47 48 48 48 48 47 47 48 48 47 48 47 46
49 49 48 50 53 52 56 55 57 59 61 60 52 51 54 55
51 48 47 46 45 44 45 41 33 36 42 48 52 51 44 41
41 41 41 41 40 40 40 41 41 41 46 47 43 19 14 13
11 16 15 20 77 106 115 114 125 141 149 150 151 150 150 150
150 150 149 149 148 144 132 111 114 112 78 74 71 45 34 24
14 33 23 21 30 44 49 49 51 48 49 49 49 49 49 48
49 49 49 49 48 48 48 49 49 49 48 48 48 48 48 48
49 48 48 48 48 49 49 48 48 48 49 48 48 48 48 47
48 53 54 57 22 6 19 39 49 54 57 58 41 12 20 31
41 49 47 52 54 50 47 37 21 18 19 18 20 32 45 42
41 41 41 41 41 40 40 40 42 42 46 48 40 13 12 16
16 18 13 17 35 37 28 32 35 48 70 96 143 151 150 151
150 150 150 141 97 70 46 26 21 24 20 25 31 33 29 19
10 20 18 17 24 38 49 49 50 49 50 49 50 49 49 49
50 49 50 49 49 49 49 50 51 49 49 48 48 48 48 47
49 48 48 48 48 48 50 49 49 50 49 50 49 49 48 47
45 49 58 62 21 0 0 14 24 24 26 43 39 0 0 0
2 9 17 26 36 43 47 36 15 10 14 16 3 14 46 42
42 41 42 42 41 41 41 41 42 43 48 49 36 12 19 21
16 28 27 27 18 8 6 4 3 4 8 19 33 113 152 152
151 150 101 37 28 16 11 14 11 9 11 9 17 19 16 13
19 17 15 16 11 40 50 49 49 49 50 49 49 50 50 50
50 50 50 50 49 49 50 50 50 50 49 49 48 48 49 49
49 49 49 49 49 49 49 50 50 49 47 47 47 46 47 47
51 56 60 62 22 0 0 10 16 20 20 36 39 1 0 0
1 0 2 0 1 8 46 35 10 6 1 11 2 13 48 43
42 42 42 42 42 42 42 42 43 44 48 49 35 10 16 18
17 18 19 44 17 0 0 0 0 0 0 1 5 24 79 82
81 62 16 9 3 2 1 0 0 0 0 2 5 55 39 22
9 7 11 11 13 32 46 50 51 50 50 50 50 50 50 50
50 50 50 50 50 50 50 51 50 51 49 49 49 50 49 50
50 49 50 50 50 50 49 49 49 50 49 49 50 48 48 49
8 19 32 47 25 0 0 6 7 9 10 32 41 6 0 0
0 0 0 0 0 3 45 31 4 0 0 7 1 14 49 43
42 42 42 42 42 41 41 43 44 43 48 48 39 9 11 30
1 0 61 131 10 0 0 0 0 0 16 37 6 19 21 24
19 16 8 0 0 0 0 0 0 0 0 0 0 0 1 2
10 4 9 9 11 28 49 51 50 50 50 50 50 51 51 51
51 50 50 50 50 50 50 51 50 50 50 49 49 49 49 50
50 50 50 50 51 50 50 50 50 49 49 50 49 49 48 47
0 0 0 8 22 0 0 0 0 0 7 29 38 0 0 0
0 2 0 0 0 2 45 23 0 0 0 2 2 16 51 43
43 43 43 43 42 42 42 42 44 44 48 50 46 12 10 2
0 4 115 69 0 0 0 0 0 30 107 72 5 19 44 82
63 17 4 0 0 0 0 25 4 0 0 0 0 0 0 0
2 4 3 5 5 22 47 49 49 50 51 50 51 51 52 51
51 51 51 51 51 51 51 51 50 50 51 50 51 50 50 51
50 50 50 50 50 50 50 49 49 49 49 50 50 49 50 49
0 0 0 5 20 0 0 0 0 0 3 33 40 0 0 0
0 15 12 1 0 1 43 23 0 0 0 0 1 14 52 42
43 43 43 42 42 42 42 43 44 44 48 50 45 15 5 0
0 19 114 12 0 0 0 0 23 83 35 0 4 36 99 113
106 36 7 0 0 0 38 77 25 0 0 0 0 0 0 0
0 6 4 2 1 9 35 48 47 49 51 51 51 51 51 51
51 51 50 50 51 50 51 50 52 51 51 51 51 51 50 51
50 50 51 51 51 50 50 49 49 49 50 50 50 51 51 50
0 0 0 4 18 0 0 0 0 0 2 35 43 1 0 0
3 18 20 14 7 1 42 21 0 0 0 0 0 11 52 43
43 43 42 42 42 42 42 43 44 44 48 49 34 10 4 0
0 30 57 0 0 0 0 11 70 22 0 0 34 128 144 140
123 57 9 0 0 17 78 31 0 0 0 0 0 0 0 1
0 6 3 3 2 4 25 38 45 50 51 51 51 51 51 50
50 50 51 50 51 51 50 51 52 50 50 50 50 50 49 48
50 50 50 50 50 50 51 51 50 50 51 51 51 51 50 51
17 3 0 3 16 0 3 0 0 0 2 31 46 0 0 0
7 20 21 20 19 3 39 24 0 0 0 0 0 8 52 43
44 43 43 43 42 42 43 43 44 44 47 43 25 10 4 0
0 28 26 0 0 0 0 7 14 0 0 6 100 148 151 151
147 97 10 2 1 58 42 0 0 0 0 0 0 0 0 0
1 7 2 4 6 15 47 51 49 50 50 51 51 51 51 50
51 51 50 50 51 50 50 51 52 50 50 50 50 50 49 49
49 51 51 51 51 51 51 52 51 51 49 48 47 49 50 50
9 1 0 3 17 1 1 0 0 0 8 32 47 1 0 0
5 18 20 20 18 3 39 27 0 0 0 0 0 7 53 44
43 43 43 43 43 42 43 44 44 44 46 42 19 8 3 0
0 60 25 0 0 0 0 0 0 0 0 40 119 137 152 150
144 130 27 7 1 20 2 0 0 0 0 0 0 0 0 0
5 10 2 7 7 29 47 48 49 50 51 50 51 52 52 53
51 51 51 52 51 51 50 50 51 50 50 50 50 50 50 50
49 51 51 51 50 50 51 49 46 45 45 45 46 44 40 36
7 4 0 4 18 0 0 0 0 0 14 36 50 2 0 5
2 4 14 19 18 2 37 47 31 20 11 6 3 10 52 44
44 44 44 44 43 43 43 44 43 38 41 44 33 8 3 0
0 80 13 0 0 0 0 0 0 3 45 83 102 106 152 149
119 138 65 7 7 0 0 0 3 0 2 0 0 0 1 1
7 11 5 17 12 41 49 50 50 50 50 51 51 51 51 52
50 52 52 52 51 51 51 51 51 51 51 50 50 49 48 49
50 50 47 48 48 46 46 43 39 36 32 28 26 24 23 22
0 2 0 5 33 14 8 8 4 0 5 35 61 38 29 23
16 6 2 8 13 1 34 57 57 52 52 50 49 51 58 44
44 43 44 43 43 43 43 44 46 44 47 46 34 22 2 0
0 28 5 3 3 54 9 0 2 68 58 111 53 62 147 131
32 111 127 18 22 5 0 19 98 18 4 1 2 2 6 5
11 24 3 20 11 40 49 49 50 51 51 52 51 52 52 53
51 51 51 51 50 51 51 49 49 48 47 49 47 47 47 47
47 43 40 37 32 29 26 26 25 25 26 22 26 29 30 30
0 0 0 8 58 59 47 44 41 32 20 38 66 39 39 42
44 43 38 32 29 24 44 59 57 55 55 58 64 66 62 45
45 44 44 44 44 43 43 43 45 46 46 47 37 15 0 3
0 0 2 0 21 88 1 1 7 27 66 119 46 95 139 133
49 58 141 75 16 31 22 100 30 3 5 6 5 4 9 12
21 29 4 38 13 34 46 51 53 51 52 52 51 52 52 53
51 51 48 48 48 48 49 48 48 47 45 44 40 37 33 30
29 27 26 26 26 28 30 31 32 32 34 22 22 35 36 37
0 0 0 8 62 62 54 60 62 66 63 64 62 24 21 23
24 25 28 30 35 42 50 45 44 49 53 57 62 63 61 45
44 44 44 44 43 43 43 43 41 39 41 41 31 14 0 3
6 5 0 0 22 33 16 24 27 21 108 129 66 123 148 145
91 54 135 133 45 30 37 30 24 22 19 11 8 10 14 14
39 22 2 31 20 35 45 49 50 51 51 51 50 51 50 51
50 50 51 49 46 44 41 37 35 31 29 28 28 28 29 30
31 32 33 33 34 35 36 33 34 38 39 36 16 39 40 40
1 0 0 8 61 53 55 63 66 70 66 55 47 25 22 23
21 21 20 19 18 18 18 19 22 27 32 44 45 42 43 43
45 44 45 44 44 44 44 45 44 39 41 41 22 10 0 6
32 20 17 29 32 32 27 47 64 95 132 146 125 141 150 148
141 97 145 142 128 91 72 51 30 27 30 33 41 39 45 82
69 13 2 28 18 26 43 50 50 50 51 50 49 48 47 44
41 38 44 50 32 28 29 30 30 31 32 33 34 35 35 36
36 38 39 40 41 40 41 38 32 37 43 43 22 35 43 41
44 35 26 27 56 45 55 61 64 68 68 59 49 29 24 23
21 19 18 17 16 16 16 16 17 17 21 42 42 41 41 43
45 44 45 44 43 43 45 43 44 44 43 40 15 4 0 16
74 81 59 49 56 83 116 136 141 127 121 144 134 150 151 151
151 151 151 139 146 147 138 121 100 76 56 38 36 80 103 99
84 14 0 22 12 25 39 48 46 44 41 38 35 31 31 31
30 29 34 48 30 30 33 35 36 37 37 39 40 40 41 42
42 42 43 44 44 43 43 44 43 33 39 43 36 22 45 42
60 60 60 62 56 28 39 49 54 61 63 57 52 32 24 21
18 15 16 16 18 18 18 18 19 20 24 41 17 25 44 43
44 43 40 43 43 44 44 44 43 41 44 37 8 0 0 30
83 91 103 117 129 139 149 150 150 147 114 115 128 151 150 150
149 139 137 131 150 150 149 149 146 142 135 125 114 109 98 95
86 26 0 15 12 19 29 35 32 31 30 31 32 33 34 34
36 36 35 43 30 35 39 41 42 42 43 43 43 44 44 44
44 43 44 44 44 44 42 45 46 45 31 35 42 16 39 44
62 62 62 64 49 5 3 7 12 21 30 33 48 34 21 19
11 3 4 5 15 20 19 17 20 23 27 44 42 41 52 52
50 38 14 36 44 42 43 43 43 40 35 26 8 0 7 49
91 108 118 131 143 149 150 151 150 149 131 121 142 151 151 151
150 146 137 145 150 150 150 150 149 149 146 136 131 125 110 96
87 33 0 3 23 18 29 35 36 35 37 37 38 39 39 41
42 41 40 50 35 39 43 44 44 44 45 46 46 46 46 47
47 46 46 45 44 45 44 44 46 46 45 31 35 24 28 44
55 57 61 63 44 1 0 0 0 1 12 22 50 33 20 18
9 0 0 1 7 10 11 5 9 15 18 44 54 45 45 47
50 49 38 42 44 43 43 44 35 26 28 25 10 0 23 61
98 112 124 139 149 151 151 151 150 141 127 130 144 150 150 149
150 149 146 148 150 150 150 150 149 149 150 145 134 130 120 102
87 40 8 0 10 30 36 39 42 40 42 43 44 44 45 46
45 44 36 32 28 42 46 46 46 47 47 47 47 48 48 48
47 47 47 47 45 44 45 44 47 47 47 46 31 29 11 24
44 43 48 57 40 0 0 0 0 3 0 12 53 33 19 17
9 0 0 6 2 1 1 0 0 3 9 42 55 38 35 33
37 41 44 46 43 42 42 42 30 24 31 20 6 8 31 73
101 113 129 146 151 151 151 151 141 127 125 137 148 150 150 150
151 147 144 145 149 149 149 150 149 149 149 149 142 132 124 106
91 46 19 0 3 27 36 39 42 43 46 48 47 46 46 46
47 44 24 13 13 40 47 48 49 48 47 47 48 48 48 49
49 48 47 48 47 46 45 44 44 47 48 47 44 27 9 1
42 39 46 58 38 0 0 0 0 2 0 3 52 25 14 5
0 0 1 15 10 5 3 0 0 0 6 41 55 38 28 42
42 36 40 43 43 42 42 41 32 26 25 12 0 10 37 81
102 117 132 148 151 151 151 144 136 128 138 147 145 141 142 148
150 149 145 143 148 150 150 150 150 150 149 149 147 133 122 108
92 48 32 0 2 10 22 20 38 46 44 47 48 48 46 42
38 44 22 16 9 37 47 48 50 49 48 48 48 48 48 48
48 48 47 48 47 47 45 44 43 46 47 47 45 41 18 0
44 45 51 58 37 0 0 0 0 0 0 5 54 14 0 0
0 0 1 11 18 11 3 1 0 0 5 42 57 37 21 39
37 34 40 43 43 42 37 34 28 27 19 2 0 12 40 84
103 115 130 148 150 151 147 143 142 136 138 135 131 129 127 136
139 147 150 148 148 150 150 149 150 150 150 149 148 134 124 110
93 55 28 3 2 8 10 11 17 40 47 47 47 30 13 7
10 40 19 11 9 36 47 49 51 49 49 49 48 48 48 49
48 48 49 48 47 47 47 45 42 43 45 44 43 43 35 0
22 29 37 44 35 0 0 0 0 0 0 7 55 16 0 0
0 0 2 7 22 19 14 5 0 1 4 41 57 39 18 27
26 27 40 44 43 39 35 31 27 27 10 0 0 9 41 83
102 114 127 143 148 147 145 149 145 133 119 117 117 122 122 127
123 129 138 147 150 150 150 150 150 150 150 150 148 128 124 110
94 60 27 6 3 5 2 2 6 18 46 50 47 30 23 28
36 42 23 2 5 35 47 49 50 48 48 49 49 49 48 48
48 48 48 48 47 47 48 47 44 41 41 42 41 45 39 3
0 0 0 4 26 0 0 0 0 0 0 9 54 12 0 0
0 0 9 20 23 21 22 6 0 1 5 41 58 42 30 32
29 29 37 42 39 37 33 35 32 21 2 0 0 12 43 81
101 114 125 139 141 146 150 150 134 111 114 131 138 138 142 142
139 125 117 131 149 150 150 150 150 149 150 150 148 132 127 110
94 59 24 12 1 3 1 3 6 16 32 48 49 49 48 48
48 45 27 7 8 35 47 49 50 49 48 49 48 48 49 48
48 48 48 48 47 46 47 47 47 44 41 41 43 46 41 4
1 0 0 0 24 0 0 0 9 2 0 6 52 9 0 0
0 0 11 25 30 19 14 3 0 4 7 39 58 44 34 24
11 19 37 41 41 39 42 40 29 15 0 0 1 30 47 78
98 112 120 131 136 149 151 138 107 115 141 150 151 151 151 151
150 146 129 109 134 149 150 150 150 150 150 150 149 139 125 106
91 57 26 24 18 5 2 1 6 12 20 45 47 49 50 48
47 46 35 5 7 38 47 48 49 49 48 48 48 47 48 47
48 48 47 48 46 47 47 47 46 46 41 41 43 47 43 5
5 0 0 0 24 0 0 9 23 12 0 6 52 7 0 0
0 0 3 6 26 6 0 1 1 3 4 36 58 46 33 19
14 16 35 46 46 44 45 39 29 14 1 0 4 63 81 79
95 113 119 125 137 152 151 124 121 140 150 151 151 151 150 150
150 150 150 139 123 134 151 150 150 150 150 150 149 142 126 101
91 67 49 28 33 30 23 22 18 14 21 39 47 47 49 49
48 45 38 14 18 41 48 49 50 49 48 49 48 48 47 47
48 47 48 47 47 47 47 48 47 46 42 41 43 46 44 7
21 5 1 0 24 0 0 20 24 17 3 6 50 6 3 0
0 2 1 0 23 6 0 0 0 0 0 31 58 43 20 14
4 14 37 58 52 49 45 39 26 16 3 0 15 69 86 79
91 113 116 124 145 151 146 132 140 147 151 151 151 150 151 150
150 150 150 150 146 146 150 150 150 150 149 150 148 140 121 96
87 80 74 61 61 36 15 10 14 28 29 40 47 50 50 49
48 44 39 35 35 44 48 48 49 49 48 49 48 47 49 48
48 48 48 48 47 47 47 47 46 46 43 38 35 40 37 7
30 12 5 0 32 20 18 30 27 25 13 11 50 5 2 0
0 0 0 0 22 11 0 0 0 0 0 27 58 39 15 17
3 13 47 58 50 47 52 38 27 15 9 0 22 93 95 81
90 109 114 125 149 150 136 140 146 151 151 151 151 150 150 150
150 150 150 150 148 148 150 150 150 149 147 149 148 139 117 93
88 95 79 73 58 50 8 6 8 17 28 41 52 49 49 48
47 44 41 42 43 47 49 49 49 49 48 48 48 48 48 48
48 49 49 48 48 48 48 48 47 46 42 38 34 30 37 11
17 6 3 0 40 51 52 56 54 53 53 54 57 7 0 1
0 0 0 1 24 11 1 4 2 0 0 20 57 35 15 13
10 20 54 51 47 57 54 37 33 15 15 4 25 101 102 83
86 108 110 128 150 146 137 140 147 151 151 151 151 151 151 151
151 151 150 150 150 150 150 149 149 149 146 149 147 139 113 92
86 105 91 105 81 46 14 11 13 21 32 42 52 50 50 49
47 45 43 44 47 49 48 48 49 50 49 49 49 49 49 48
48 48 48 48 48 47 47 47 46 47 43 39 40 43 44 14
2 3 0 0 38 53 54 57 57 57 64 68 62 28 18 24
10 6 4 9 27 17 8 7 4 1 1 13 51 33 12 7
11 23 51 47 55 64 50 47 34 13 14 4 19 91 103 90
84 105 110 127 147 146 137 142 149 150 150 150 150 150 151 151
150 150 150 150 150 150 150 150 150 150 148 147 148 134 111 91
87 105 104 115 83 45 37 16 21 28 39 48 49 49 51 48
48 46 46 46 49 49 50 49 49 49 49 49 49 48 48 48
48 47 48 48 48 48 48 46 45 45 43 39 40 43 43 17
2 0 0 0 37 52 53 55 55 56 66 68 66 47 45 45
41 38 37 36 38 31 27 24 23 21 21 28 48 39 22 22
23 29 51 53 62 59 51 41 26 18 12 5 15 61 102 93
81 102 110 129 143 141 140 145 148 149 151 150 150 151 151 151
150 150 150 150 150 150 150 150 149 149 149 146 146 132 110 91
89 109 108 102 69 36 37 29 33 35 57 49 49 46 54 48
48 46 46 47 48 47 46 47 47 48 48 49 48 48 47 47
47 47 48 48 48 47 46 46 45 45 43 39 39 44 45 21
1 0 0 0 36 47 47 50 50 50 52 49 50 47 48 48
48 45 46 47 47 45 42 38 37 34 34 37 49 50 39 37
33 33 53 59 54 57 48 34 27 21 8 2 14 47 117 97
80 99 112 128 139 136 136 140 145 150 150 150 150 150 150 150
150 150 150 150 150 150 150 149 150 149 149 144 140 129 108 91
94 107 112 102 53 32 29 43 33 50 61 56 52 44 51 50
48 46 47 48 48 48 48 48 49 49 48 48 47 47 47 47
47 46 48 47 47 48 47 46 46 46 44 39 39 43 43 23
1 0 0 0 38 50 46 47 48 47 47 43 43 48 49 50
51 48 49 48 47 47 46 51 51 47 45 46 51 59 56 55
52 50 53 51 55 55 43 33 29 20 9 5 15 42 111 105
79 96 109 123 130 130 131 136 146 150 150 151 151 151 151 150
151 150 150 149 150 149 149 149 149 149 149 144 135 122 107 88
101 123 122 116 46 25 26 44 44 55 69 54 49 48 48 53
48 47 49 50 50 48 49 48 49 49 48 48 49 48 48 47
48 47 48 47 47 46 46 45 46 45 43 38 38 42 42 26
22 18 15 11 41 53 47 47 47 47 47 48 51 52 50 53
56 59 57 49 47 47 48 59 59 56 53 53 53 48 43 44
40 38 48 51 52 49 43 39 35 17 10 7 12 40 107 115
78 91 104 117 122 124 126 133 147 151 150 150 150 150 150 150
150 150 150 150 150 150 150 150 150 149 149 141 131 117 102 88
112 125 127 127 45 19 22 46 57 61 74 60 43 49 48 52
50 48 49 50 49 48 48 49 49 49 48 48 47 48 47 47
47 47 48 46 47 46 47 46 45 46 43 38 37 41 41 28
55 57 60 59 61 57 50 50 50 50 51 54 57 59 51 54
57 63 56 51 45 42 47 60 59 57 54 55 54 49 41 34
33 36 45 49 38 41 44 42 40 23 8 10 6 37 104 119
85 83 96 110 114 116 120 133 147 150 150 150 150 150 150 150
150 150 150 150 150 149 149 149 149 148 143 133 125 113 99 99
135 132 117 119 43 11 19 43 64 66 73 67 42 44 48 49
51 49 49 49 49 48 48 47 47 48 47 48 47 47 47 46
47 47 48 47 46 46 45 45 45 44 43 36 37 40 41 29
65 66 66 66 66 59 48 43 45 43 46 52 59 62 52 54
53 51 53 52 48 42 40 53 51 49 50 55 54 50 41 35
38 38 39 43 42 43 44 50 40 22 13 10 2 26 102 115
96 71 86 100 106 108 108 122 140 147 146 144 149 150 149 149
149 149 150 149 149 148 148 147 147 143 135 122 116 107 96 117
134 131 114 106 37 5 11 32 59 72 76 72 49 38 45 48
51 48 48 48 48 48 48 48 48 48 48 47 47 46 46 46
46 45 47 46 45 46 46 45 44 44 42 37 35 40 40 32
56 57 60 61 63 52 14 19 11 10 14 20 34 59 53 48
27 26 32 34 33 38 42 40 16 10 11 21 28 31 40 37
36 30 40 43 44 43 46 51 44 29 16 7 3 18 100 113
105 61 75 89 98 96 94 101 117 131 131 127 130 132 136 138
139 146 145 141 139 139 139 137 139 134 122 112 105 98 86 126
139 131 115 96 14 5 8 24 53 70 70 67 51 35 38 45
47 47 49 48 48 48 49 48 48 47 47 48 48 47 46 46
46 46 47 46 45 46 45 44 43 44 42 36 34 38 40 32
37 38 38 38 41 39 4 0 0 0 0 0 8 54 52 31
3 1 4 9 14 32 46 39 7 0 0 1 13 23 36 33
33 36 39 45 47 43 50 53 53 36 11 2 0 7 73 96
71 41 62 74 87 86 78 79 87 100 110 112 116 113 116 120
122 123 125 128 126 124 123 124 125 118 108 98 91 83 55 108
140 129 116 62 0 8 8 18 47 66 68 62 43 27 23 22
27 43 49 49 48 48 49 49 48 48 48 48 48 47 47 46
46 46 48 46 46 45 46 45 44 44 43 37 34 38 40 34
45 44 43 42 43 39 10 5 0 0 0 3 18 55 48 12
0 0 0 0 6 35 49 41 5 0 0 0 10 24 30 14
28 26 27 28 37 44 47 57 47 23 6 0 0 0 2 10
1 11 51 55 66 70 67 73 84 94 105 112 119 121 120 122
122 118 117 116 112 111 110 106 104 98 89 81 80 77 51 35
101 112 79 12 0 9 6 21 45 61 58 59 35 23 16 15
19 43 50 50 50 49 49 49 49 49 47 47 48 48 47 47
47 46 47 48 46 46 46 45 45 45 44 38 35 38 40 35
50 50 50 50 51 42 10 6 0 0 0 4 24 55 41 3
0 0 0 0 0 34 48 41 5 0 0 0 9 22 36 18
21 26 22 25 29 45 49 51 33 12 5 0 0 0 0 0
0 1 41 41 43 47 47 55 75 96 104 109 115 119 125 128
126 121 115 106 93 81 78 76 75 71 66 70 74 95 88 7
3 14 3 0 0 8 9 18 46 53 51 43 35 19 17 16
20 43 51 51 51 50 50 50 50 49 48 48 48 48 48 48
48 47 48 47 47 47 47 45 45 45 44 37 35 37 39 34
51 50 52 52 54 44 9 6 0 0 2 6 9 50 35 1
0 0 0 0 0 33 48 40 6 0 0 0 11 23 34 19
19 25 30 26 31 50 45 45 24 15 6 1 0 0 0 0
0 1 41 47 42 42 46 52 57 71 91 98 104 110 115 119
118 113 105 96 84 75 71 66 60 61 65 65 87 107 105 22
3 8 0 0 0 6 14 16 38 55 48 29 19 22 18 16
19 42 52 52 52 52 51 51 50 49 49 49 49 49 49 49
48 47 47 48 47 47 47 46 45 44 43 38 33 34 38 35
47 34 29 39 53 49 7 0 0 0 5 13 5 50 33 0
0 0 0 0 0 34 48 39 5 0 0 0 12 21 35 15
16 29 35 28 32 48 43 30 31 25 9 0 0 0 0 0
0 5 39 68 51 62 68 73 69 66 74 84 92 100 106 109
108 105 100 98 103 109 109 101 92 86 74 91 114 109 107 30
9 4 0 0 0 7 18 21 34 50 47 26 18 14 15 18
17 39 52 51 51 51 51 51 50 49 48 49 48 48 48 48
47 48 49 48 48 48 47 47 46 45 44 38 35 35 38 36
42 16 0 11 44 55 23 4 0 0 6 9 2 46 32 0
0 0 0 0 0 33 49 37 7 0 0 0 4 25 39 16
26 35 37 22 39 46 32 31 45 29 6 0 0 0 0 0
1 7 36 76 72 69 79 84 81 73 73 78 86 96 103 104
106 107 108 113 117 125 120 112 105 97 104 117 112 115 104 24
6 2 0 0 0 3 18 28 32 50 49 39 17 13 12 17
20 37 50 51 50 49 49 49 49 48 47 48 49 50 50 49
48 48 48 47 46 46 46 46 45 44 43 37 33 34 37 35
41 19 0 5 40 57 21 3 0 0 5 11 5 44 31 0
0 0 0 0 0 24 50 39 14 0 0 0 10 30 43 24
33 37 30 22 45 41 23 39 51 31 7 0 0 0 0 0
0 2 28 79 88 78 79 91 94 87 87 93 99 103 107 110
115 118 122 124 126 129 121 118 111 113 123 129 121 118 99 22
1 1 0 0 0 3 13 32 45 46 48 38 16 10 13 20
28 49 46 50 50 50 50 50 49 49 49 48 49 49 50 48
48 47 48 46 45 45 45 44 44 42 42 36 31 31 35 33
40 22 0 2 35 52 6 0 0 0 0 0 2 43 33 0
0 0 0 0 0 20 51 38 7 0 0 0 20 13 42 33
36 31 27 28 57 33 25 47 49 31 11 3 1 3 0 1
0 0 21 80 93 89 84 93 100 104 103 111 116 119 119 122
128 135 140 139 136 127 126 124 120 130 138 135 127 125 100 23
5 0 0 0 0 4 17 37 50 51 46 36 21 11 12 13
23 72 20 17 35 51 51 50 50 50 49 49 48 48 49 47
48 46 46 46 46 45 44 44 43 42 40 35 30 30 34 33
38 25 0 1 29 47 4 0 0 0 0 2 0 42 37 0
0 0 0 0 0 17 51 38 9 0 0 7 21 13 39 36
33 26 23 43 61 30 28 42 55 35 23 13 12 7 1 2
0 1 16 79 95 97 90 94 104 112 116 124 135 138 138 143
144 149 151 149 145 140 134 131 134 142 142 138 126 85 35 12
9 3 1 0 0 5 16 33 47 48 54 41 20 15 16 9
12 30 35 17 23 50 49 49 50 49 49 49 48 48 49 48
47 47 46 46 45 45 44 44 42 41 39 35 30 29 33 32
37 28 0 0 24 45 7 1 1 0 3 19 5 40 47 11
8 9 13 9 10 23 54 41 36 31 31 41 36 37 45 42
32 24 37 53 57 26 28 41 56 42 33 20 27 13 3 6
0 1 14 76 96 98 94 96 103 114 121 133 145 150 151 151
152 151 152 151 151 147 144 142 143 144 138 98 33 14 15 9
9 1 0 0 0 4 8 14 16 29 39 39 24 18 20 12
8 17 25 18 21 49 49 48 49 49 48 48 48 47 47 47
47 46 46 45 45 44 43 42 41 40 39 35 29 28 32 32
36 30 1 0 16 49 41 38 33 34 44 52 46 51 54 57
54 50 53 54 54 56 59 42 47 53 54 57 59 59 62 55
39 36 49 52 52 25 28 50 50 40 31 41 36 19 19 4
3 1 8 58 93 101 98 95 100 112 124 141 151 152 152 152
151 151 151 151 150 149 149 147 140 96 38 14 13 11 9 5
8 0 0 1 2 5 8 9 4 2 17 30 29 24 24 15
13 15 9 12 20 50 50 48 48 49 48 48 48 48 48 47
48 46 46 44 44 43 42 41 40 39 37 33 28 27 31 31
34 30 2 0 10 50 53 51 46 51 61 63 56 50 50 65
64 60 60 62 64 64 64 45 42 50 51 58 60 57 64 60
38 47 46 49 47 29 33 50 39 37 34 50 33 22 29 1
0 0 6 13 41 77 99 99 98 107 124 143 151 151 151 152
152 151 151 151 151 149 137 85 31 14 14 13 10 6 7 10
8 0 0 2 7 6 8 12 1 0 7 18 19 25 35 21
15 17 10 10 19 45 32 23 36 49 48 47 48 48 47 47
46 45 45 44 44 42 42 41 40 38 37 33 27 25 30 30
33 31 3 0 7 50 52 45 45 51 60 63 55 47 43 52
55 55 54 54 55 54 55 45 37 41 46 51 48 47 53 45
45 43 53 39 47 34 33 47 31 33 42 36 31 31 19 0
2 0 2 6 10 12 25 52 75 97 118 143 152 152 152 152
151 151 151 132 94 51 19 14 15 13 11 9 6 7 7 9
4 0 0 2 7 7 12 9 4 0 4 15 28 24 30 40
20 1 1 0 8 21 30 33 10 39 48 47 47 48 47 47
46 45 44 44 43 43 42 40 39 39 37 33 26 24 30 30
33 30 5 0 5 49 42 38 38 40 51 62 57 50 44 34
35 35 35 35 35 36 38 40 39 41 45 43 39 40 43 38
46 51 48 39 53 38 31 40 26 29 46 35 38 30 6 0
0 0 4 1 4 7 11 12 14 18 34 60 84 101 109 104
95 68 39 19 17 17 17 16 11 10 8 6 8 10 11 8
5 0 3 6 1 2 12 12 9 0 5 10 22 39 37 43
42 12 3 2 25 44 49 48 33 24 48 47 47 48 47 46
45 44 43 44 42 41 41 40 39 38 37 33 27 25 29 29
32 30 7 3 13 49 32 22 27 30 39 48 47 45 47 35
35 35 38 42 41 40 41 45 46 48 51 46 45 42 36 43
44 45 37 51 55 34 21 37 22 36 39 40 40 25 0 0
0 0 1 1 1 2 6 6 8 12 12 14 16 17 18 18
19 17 15 17 14 17 15 12 9 7 7 10 13 11 11 10
7 6 7 11 6 2 13 16 15 0 8 8 14 26 31 34
39 26 3 2 45 49 49 48 42 18 49 47 48 47 46 45
45 43 42 41 41 41 41 39 38 37 36 34 26 24 28 30
31 29 20 25 35 51 26 0 1 2 4 12 17 26 49 41
49 48 50 60 59 46 43 45 46 49 52 49 49 38 38 41
43 40 40 58 50 42 14 33 18 40 40 28 42 10 0 0
0 2 4 1 3 0 2 3 5 8 12 9 13 12 14 14
15 16 13 14 12 10 9 7 7 8 10 13 12 13 10 9
8 12 19 15 9 2 16 26 33 1 12 15 23 25 30 31
29 26 18 2 43 49 48 48 44 19 47 48 47 47 46 44
42 41 40 40 40 40 40 39 39 37 35 33 26 25 29 31
30 28 40 51 54 56 27 0 0 0 0 0 6 27 51 42
55 53 53 66 63 20 10 12 13 15 22 39 51 38 40 42
41 41 47 64 37 44 14 32 18 37 31 29 39 4 0 0
8 21 9 1 2 0 0 1 2 3 5 7 9 9 11 10
12 10 10 9 10 8 7 7 9 11 12 11 12 12 11 9
9 17 21 23 12 1 16 22 57 6 11 16 34 41 51 42
34 31 27 12 38 49 49 48 43 23 48 47 46 46 44 42
40 38 38 37 37 39 39 39 37 36 35 32 26 24 28 30
29 27 40 53 56 59 33 0 0 0 0 0 0 21 53 40
51 42 19 27 45 10 0 0 0 0 6 36 49 42 43 42
41 40 50 57 33 36 20 26 20 35 20 10 31 1 0 3
25 8 6 1 2 1 1 2 2 3 5 8 7 9 9 9
11 11 10 11 9 9 10 12 12 12 11 12 12 12 10 9
15 21 39 35 24 10 17 21 44 14 8 9 19 50 66 74
61 47 28 20 35 49 48 48 37 30 47 47 46 45 44 41
38 37 36 35 34 36 37 37 36 35 35 32 25 21 25 28
29 26 36 50 50 49 31 0 0 0 0 0 0 19 53 39
51 37 0 5 36 12 0 0 0 0 6 31 48 44 42 42
44 44 49 45 29 31 20 26 23 35 8 17 17 0 0 2
12 11 9 3 2 4 4 4 3 3 5 3 6 10 9 10
11 12 10 12 13 12 10 12 13 11 12 12 13 12 10 9
21 38 45 46 28 23 7 17 28 23 9 5 7 22 56 83
88 63 39 26 36 49 48 45 22 39 44 40 41 44 44 39
35 33 33 33 32 34 35 37 35 34 34 32 25 22 24 28
28 25 24 21 22 23 7 0 0 0 0 0 0 23 53 40
51 37 0 5 34 14 0 0 0 0 5 30 50 50 46 44
46 52 45 38 32 29 23 17 26 24 8 28 2 0 0 0
7 16 12 2 4 4 5 6 5 5 8 6 7 10 9 10
10 10 9 12 13 13 12 11 13 12 13 13 12 12 11 11
22 36 45 44 49 30 5 7 32 28 20 9 9 7 16 62
64 56 32 31 17 18 17 12 14 40 19 20 21 45 43 38
35 32 31 32 32 34 35 36 34 34 33 32 25 20 23 28
28 24 22 16 18 21 4 0 0 0 0 0 0 23 53 41
52 37 1 4 32 18 0 0 0 2 10 27 61 53 48 54
53 55 46 34 33 36 28 9 27 24 17 19 0 0 0 0
3 22 7 2 4 5 6 6 6 5 6 7 8 8 7 8
11 11 8 11 12 14 14 13 13 13 14 13 12 11 8 11
25 27 44 40 49 36 13 0 14 47 32 23 18 17 14 25
44 29 30 25 2 0 0 0 4 9 21 91 48 44 42 38
34 31 30 31 31 33 35 35 34 33 33 31 25 21 23 28
27 23 22 19 20 23 4 0 0 0 0 2 0 19 52 40
51 36 1 5 30 19 0 0 1 7 8 20 54 46 47 63
56 55 44 34 36 38 32 17 20 21 25 8 1 0 0 0
0 19 1 1 3 4 5 7 7 5 6 8 8 7 8 7
10 10 7 11 13 10 13 15 14 13 10 10 9 9 8 9
11 24 28 35 47 50 33 9 0 18 42 28 29 27 16 19
21 17 23 26 19 17 3 0 21 23 73 101 112 33 28 24
30 31 29 31 31 33 34 34 33 33 33 31 26 21 24 29
28 23 23 22 23 24 3 0 0 0 0 4 0 14 53 41
53 39 5 5 27 24 5 0 2 7 8 15 46 36 47 62
63 52 44 34 36 39 37 22 13 26 31 9 6 3 0 0
0 5 1 1 1 4 4 5 6 5 8 9 10 8 10 9
10 11 10 14 12 13 12 12 14 13 13 11 7 8 9 11
6 10 31 41 34 23 14 10 0 0 18 33 39 42 17 14
16 16 22 21 16 15 5 3 5 5 5 4 4 8 7 8
30 34 32 34 34 36 37 38 37 37 36 35 31 24 26 29
26 22 23 24 25 25 4 2 2 0 1 15 6 11 54 42
53 42 22 7 24 25 8 11 6 10 9 13 49 35 44 61
62 50 39 33 35 34 36 27 15 40 13 13 14 3 0 0
6 4 1 0 0 3 3 4 4 7 10 9 13 9 12 8
11 12 11 13 12 13 11 14 11 12 11 11 7 8 10 6
1 22 40 45 51 25 8 0 0 0 4 31 57 34 16 13
21 15 9 3 3 8 8 8 7 8 9 8 6 11 10 8
31 36 33 31 31 31 29 27 24 20 18 16 12 7 7 6
26 23 23 24 25 26 6 4 3 0 1 19 21 11 55 43
55 39 30 19 23 22 10 14 15 14 3 9 45 38 31 49
59 46 41 38 37 33 25 30 24 33 24 8 37 20 1 0
1 0 1 3 1 3 3 3 4 5 8 7 10 9 10 10
12 11 13 11 13 9 12 10 8 8 8 11 10 8 10 3
3 22 43 51 67 36 8 0 0 0 2 35 78 37 11 29
27 13 4 3 7 8 9 8 6 8 10 9 10 9 10 18
28 27 28 29 32 35 37 38 39 39 40 41 42 37 37 42
26 22 22 26 26 28 21 20 24 21 24 35 40 36 60 45
56 35 25 28 23 27 11 18 18 18 11 16 39 39 39 44
53 46 43 40 37 31 28 27 26 5 11 14 41 40 9 0
0 0 1 2 1 2 3 3 4 4 7 7 10 9 11 9
11 10 11 8 11 9 11 8 8 8 7 9 12 12 10 2
4 14 31 40 42 31 16 1 0 0 1 26 66 39 28 47
35 6 5 8 8 9 8 7 8 10 10 10 10 10 10 11
28 52 54 53 55 57 58 57 56 55 54 54 53 46 43 49
26 21 22 25 26 28 44 49 52 53 56 62 65 67 70 50
56 31 11 29 23 37 32 34 34 31 26 29 33 34 36 44
43 49 47 40 30 35 29 26 32 20 9 7 23 47 10 0
0 0 0 1 4 2 3 3 4 3 3 7 8 6 8 7
9 9 10 6 10 9 9 7 8 9 10 12 13 12 9 1
1 3 10 8 5 17 14 5 0 0 4 26 48 36 64 41
15 4 9 10 8 9 8 7 8 11 10 10 10 9 10 11
9 25 53 54 55 56 57 56 56 54 54 54 53 46 43 48
25 20 20 24 26 26 47 56 57 57 60 65 68 70 71 59
53 31 2 13 21 37 33 35 36 33 31 31 33 36 36 42
42 43 40 24 20 16 15 21 28 22 6 1 1 27 8 0
0 0 0 1 5 2 3 4 4 5 5 3 4 5 7 6
7 7 9 6 8 8 9 8 9 11 12 13 12 10 19 0
1 7 16 17 11 8 4 4 4 6 20 25 33 30 37 8
6 9 11 10 10 9 9 7 7 11 9 10 10 11 11 11
10 8 29 54 55 55 56 54 55 54 54 53 52 46 43 47
24 20 20 25 26 23 34 43 42 42 44 47 50 50 49 45
50 33 1 7 18 39 37 40 38 38 38 34 34 39 42 40
42 40 29 16 16 27 17 16 8 6 2 8 18 11 5 0
0 0 0 1 2 4 4 5 4 5 7 8 7 8 6 8
8 8 8 8 9 8 11 8 12 12 10 7 8 18 35 2
2 13 22 13 7 8 10 22 33 36 21 12 22 19 6 5
8 9 9 10 12 8 8 6 7 11 11 10 10 11 11 11
11 9 8 38 54 54 55 54 54 53 54 53 53 47 42 45
24 19 20 24 26 23 18 17 17 18 20 25 30 32 33 32
47 33 1 5 15 39 37 39 39 39 38 37 37 38 35 37
41 46 25 18 21 30 30 19 5 4 2 7 21 8 0 0
1 0 0 16 1 4 4 4 5 6 6 8 11 10 7 9
10 9 8 10 9 12 10 11 7 4 4 6 9 61 8 3
5 10 14 12 15 11 3 5 13 9 12 7 2 7 2 2
3 4 4 9 12 8 6 5 8 10 10 10 10 11 11 9
10 8 8 12 49 53 52 53 53 53 53 53 53 47 42 44
23 19 19 24 26 24 20 18 19 19 21 25 31 33 34 33
48 36 7 5 17 39 36 39 39 39 38 33 18 9 5 6
9 29 46 49 40 46 31 26 22 15 14 5 8 6 2 4
5 3 0 12 0 0 3 4 5 6 5 11 11 8 10 9
9 11 9 12 10 7 5 4 6 6 7 8 36 25 6 5
7 9 9 13 13 7 5 4 8 7 7 10 7 9 6 5
5 3 2 6 10 10 7 6 9 10 10 10 11 11 9 10
9 8 8 6 25 53 53 52 52 53 53 52 52 48 42 43
24 18 18 23 25 25 24 23 23 23 24 28 33 34 36 35
50 42 34 42 46 43 35 38 39 38 30 8 7 6 6 7
6 6 10 21 24 18 14 12 11 8 8 8 5 7 4 7
10 7 2 18 0 0 0 0 0 2 4 6 9 7 10 8
7 7 5 5 4 6 8 9 7 7 8 12 42 6 7 8
8 10 13 12 11 8 6 8 9 8 9 11 9 11 8 8
6 4 5 7 9 6 5 7 9 11 10 9 10 8 8 9
10 7 9 8 9 46 52 52 52 52 52 52 52 48 42 43
25 19 18 22 24 25 25 24 25 26 28 31 36 37 36 35
50 45 49 57 55 43 35 38 39 28 6 7 8 8 9 7
7 8 7 7 9 10 9 7 6 8 7 8 7 4 2 7
9 9 7 30 1 1 1 1 0 0 0 0 1 2 2 3
4 5 5 6 6 6 7 7 8 7 9 48 10 8 11 9
10 12 11 10 8 8 7 9 11 9 9 8 7 8 6 7
6 6 7 7 8 6 5 6 9 10 9 9 10 7 6 8
8 4 9 8 6 21 52 52 52 52 52 52 52 49 42 42
22 18 18 22 24 25 25 24 24 25 28 31 36 37 35 32
37 34 34 36 37 35 35 37 23 5 5 7 9 9 9 9
9 10 8 7 9 9 8 8 9 9 7 4 3 3 2 3
7 11 12 30 6 3 1 1 1 1 2 4 4 4 4 3
4 4 5 6 6 7 9 8 11 11 27 35 11 11 10 12
14 13 11 10 9 8 8 10 9 10 10 7 7 7 7 6
6 7 8 9 8 6 6 8 10 10 10 9 8 5 5 9
8 4 10 9 6 7 45 52 52 52 52 52 52 50 42 42
17 17 18 21 24 25 26 25 26 25 27 30 35 36 34 33
35 34 32 31 34 35 35 21 3 4 4 6 9 8 9 9
8 9 7 6 9 9 9 9 11 7 3 4 3 3 2 2
2 7 10 25 19 7 7 5 5 4 3 3 3 6 5 4
5 6 7 8 9 10 10 10 11 18 68 9 11 12 13 12
11 10 10 9 9 9 10 10 8 9 8 7 7 7 7 4
6 8 8 10 7 6 6 6 8 11 9 10 8 4 5 9
6 5 8 8 6 5 23 52 52 51 51 52 52 50 42 41
17 17 17 21 22 23 24 26 26 26 28 31 35 36 34 34
35 35 34 32 34 35 28 3 3 5 4 6 7 7 8 8
7 8 6 7 8 9 9 8 5 3 5 3 3 4 3 3
4 4 9 21 27 9 9 10 10 9 8 6 7 8 10 11
10 11 10 10 11 11 11 12 12 42 21 13 13 13 12 10
10 11 10 9 9 9 9 9 10 9 8 8 8 9 7 6
6 8 7 8 8 7 6 6 8 11 9 8 6 3 4 9
5 6 7 9 6 6 7 45 51 51 52 51 51 50 42 41
16 16 17 20 22 23 24 25 26 27 28 31 36 36 34 34
35 35 34 33 34 33 6 1 3 3 3 6 8 8 7 7
7 7 4 7 5 5 4 5 4 5 4 4 5 5 5 4
5 6 5 12 43 9 9 9 9 9 10 10 10 10 10 12
13 12 12 12 11 11 10 11 20 44 14 12 12 12 13 11
10 11 10 9 10 10 9 9 9 9 8 8 8 8 8 5
7 8 8 8 9 8 6 6 8 8 10 8 5 3 5 9
5 5 6 8 6 7 5 26 51 51 51 51 51 50 43 40
10 11 18 21 21 23 24 24 26 27 29 32 36 36 35 35
36 35 35 35 34 21 0 2 2 2 2 5 8 8 8 7
5 6 7 8 6 4 5 6 6 7 6 6 5 6 6 5
6 8 7 7 42 9 12 11 9 9 10 9 9 8 10 10
10 10 10 9 11 11 11 11 36 12 10 10 12 12 11 10
11 10 11 11 11 11 10 10 10 9 8 8 10 9 7 5
7 8 8 10 10 8 7 6 7 8 9 7 4 2 5 8
3 5 6 9 6 6 7 7 46 51 51 51 51 50 43 40
10 13 15 19 20 22 23 24 25 26 27 31 36 36 35 35
34 34 34 35 33 6 1 3 2 1 0 4 7 7 6 7
6 4 5 6 6 5 6 6 7 7 6 6 5 6 6 7
7 8 7 8 29 58 21 7 10 10 10 9 9 9 9 9
9 9 9 9 8 7 7 25 32 9 12 12 12 11 12 11
10 11 10 9 9 8 9 9 9 9 8 7 7 7 6 6
8 8 9 9 9 8 7 5 6 6 8 8 4 2 4 8
1 4 6 8 6 7 6 4 26 51 50 50 50 50 43 39
8 12 15 17 19 21 22 23 24 26 28 31 35 36 36 35
35 34 34 34 25 0 1 4 3 1 0 4 6 7 7 7
7 6 6 7 7 5 6 6 6 6 6 6 6 6 6 8
7 8 8 8 39 57 37 6 6 6 6 7 6 5 5 6
6 7 6 8 8 9 10 51 10 12 12 11 12 11 11 11
10 10 10 9 10 9 9 9 9 9 8 8 8 7 6 5
8 8 8 9 9 9 8 6 4 7 8 10 4 2 5 6
0 4 6 8 5 6 6 5 7 47 50 50 50 50 44 39
8 13 15 18 19 22 23 25 27 28 29 32 34 35 34 34
34 33 34 33 10 0 0 4 4 1 0 2 6 7 8 8
6 5 4 5 5 5 5 5 5 6 5 5 5 5 6 7
8 8 8 8 7 36 25 9 9 8 7 7 8 8 7 7
9 8 9 10 10 10 31 33 10 11 11 11 12 11 11 10
10 8 9 9 9 8 9 8 8 8 8 8 7 6 6 6
7 9 9 9 9 8 7 5 4 6 7 7 4 2 5 4
0 2 6 6 5 6 7 4 3 28 50 50 50 49 44 38
11 16 19 21 24 26 27 29 30 31 32 34 34 34 34 35
33 33 33 29 2 0 1 4 3 1 0 1 5 6 7 6
6 6 6 5 6 6 6 6 5 5 5 6 5 6 7 7
7 8 8 8 9 14 43 9 9 9 10 10 10 9 9 9
10 9 9 10 10 11 51 9 11 11 11 11 12 11 11 9
9 10 10 10 9 9 9 8 8 8 8 7 8 7 5 6
7 9 9 9 9 8 8 6 4 6 7 5 6 2 5 2
0 2 7 5 4 6 6 4 3 9 47 48 49 48 44 37
15 17 19 23 23 25 28 30 31 32 33 34 33 34 33 34
34 33 33 20 0 0 2 4 4 2 0 1 5 7 8 7
6 5 4 4 5 5 5 6 5 5 6 6 6 6 6 7
8 8 9 9 9 8 60 22 10 9 9 10 10 9 9 10
10 10 10 10 10 33 23 11 11 12 12 12 12 11 11 9
10 10 8 9 9 8 8 8 7 8 7 9 8 7 7 8
8 9 9 9 8 7 7 6 3 3 7 5 4 2 5 1
0 4 7 4 5 6 6 5 4 2 33 49 49 48 45 38
10 9 11 23 18 24 27 29 30 31 32 33 33 33 33 34
34 33 32 7 0 0 3 4 5 4 0 0 4 7 6 6
6 6 5 5 6 6 6 6 6 6 5 6 5 5 6 6
8 8 8 9 10 9 16 51 8 9 10 10 10 11 10 11
11 11 11 10 21 41 10 11 12 12 12 11 11 10 9 9
10 9 9 10 9 8 9 8 8 10 8 7 7 6 6 7
7 9 8 7 9 7 7 7 4 2 5 4 3 4 4 1
0 4 5 3 5 7 6 5 3 2 13 48 48 48 45 37
4 3 6 24 20 20 23 25 27 29 30 31 32 32 32 33
33 33 26 0 0 0 3 5 6 5 1 0 2 6 6 7
5 4 4 5 6 6 6 4 5 5 5 6 6 5 7 8
8 8 8 9 9 10 10 37 21 10 10 10 10 10 10 11
12 11 12 11 53 13 11 11 13 12 11 11 10 10 9 9
10 10 9 9 9 8 9 9 8 8 7 8 9 8 6 7
8 7 9 8 7 6 6 6 5 1 3 5 4 4 5 0
2 6 6 4 5 7 6 5 6 3 1 36 48 48 46 38
