P2
128 120
155
41 41 40 39 39 39 38 37 36 37 36 35 35 34 33 33
32 32 31 31 31 30 29 29 29 28 27 27 27 26 25 25
24 24 24 23 21 20 19 17 17 18 21 21 23 23 19 15
26 29 26 24 24 22 22 20 18 16 14 13 13 13 18 19
18 20 15 19 22 23 23 25 26 26 26 27 27 27 28 29
29 29 30 30 31 31 32 32 33 33 33 33 33 34 34 35
36 36 37 37 38 38 39 39 40 39 40 40 41 41 42 41
41 42 42 42 43 43 43 43 42 43 43 43 43 43 43 43
42 41 40 40 39 39 39 38 37 36 36 35 35 34 34 33
33 32 32 31 30 30 30 30 29 28 27 27 27 26 27 26
25 25 24 24 23 21 20 18 18 19 23 24 25 26 20 14
26 29 27 25 25 24 23 22 21 19 17 16 15 14 19 20
20 18 20 22 24 25 26 27 27 27 28 28 28 29 29 29
30 31 31 31 33 33 33 33 34 33 32 33 35 36 36 37
37 38 38 39 39 39 40 40 41 41 41 41 41 41 43 42
42 42 43 42 42 43 42 43 43 43 43 43 43 43 44 43
41 41 41 40 39 39 38 38 37 37 36 35 36 35 35 34
33 32 32 31 31 30 30 29 30 29 28 27 28 27 26 26
26 25 25 24 23 22 20 20 19 21 25 27 28 28 21 12
27 31 27 26 25 25 23 23 22 19 20 20 17 14 17 20
20 20 22 24 25 26 27 28 28 29 29 29 30 31 31 31
32 32 32 33 33 33 33 33 34 34 35 36 37 38 37 38
38 39 39 39 39 40 40 40 41 41 41 41 42 42 43 41
42 43 43 43 43 43 43 44 44 44 45 44 44 44 44 42
42 41 41 40 40 39 39 39 38 37 37 36 35 35 34 34
33 34 33 32 32 32 31 30 30 29 29 28 28 28 27 27
26 26 25 25 24 23 22 21 21 23 27 29 29 29 22 13
26 31 28 28 27 26 25 25 23 21 22 22 20 15 16 23
20 22 24 25 27 27 28 30 30 30 30 31 32 32 32 33
33 33 33 34 34 34 35 36 36 37 37 37 38 39 37 38
39 39 40 40 40 40 40 41 42 42 42 42 42 42 44 42
43 43 43 44 44 43 43 44 44 44 44 43 43 43 44 44
42 41 41 40 39 39 39 39 38 38 37 36 36 36 35 34
34 34 33 32 32 32 31 31 30 30 30 29 29 28 28 27
27 27 26 25 26 25 23 22 22 24 29 30 30 30 23 14
26 32 29 28 27 27 26 25 24 21 23 23 22 17 16 23
22 24 25 27 29 29 29 30 31 32 32 32 32 32 33 33
33 33 34 35 35 35 35 36 37 37 38 38 39 40 39 39
40 40 41 41 41 40 40 42 41 41 42 42 43 42 44 43
44 43 44 43 44 44 44 43 43 43 44 45 45 46 45 45
42 41 41 41 40 40 39 39 38 38 37 37 36 35 36 35
35 34 33 33 32 32 31 31 31 30 31 29 29 28 29 28
27 27 26 26 26 25 25 24 25 26 30 30 31 30 23 15
25 33 29 28 28 27 27 26 25 23 24 24 23 20 17 23
23 25 27 29 30 30 30 31 32 32 33 33 33 34 33 35
34 35 36 36 36 37 37 37 38 38 38 39 39 40 39 40
40 41 41 41 41 42 42 42 42 43 42 43 43 43 45 42
43 43 43 42 42 42 43 44 44 44 45 44 44 44 44 45
42 42 41 41 40 40 39 39 39 38 38 38 37 36 36 36
35 34 34 33 32 33 32 31 31 30 29 29 28 29 28 28
27 28 28 27 26 26 26 26 27 27 30 31 32 31 24 16
25 33 31 30 28 28 27 27 26 25 25 25 24 22 19 23
24 27 28 30 30 31 31 32 32 33 33 33 34 35 35 36
36 36 36 36 36 37 38 37 38 38 39 39 39 41 40 40
41 41 41 41 42 41 42 42 43 43 42 43 43 43 43 42
42 43 43 44 45 44 44 45 44 45 45 44 44 45 45 44
42 42 41 40 40 40 40 38 39 38 38 37 37 36 35 35
35 34 34 34 33 32 32 32 31 31 31 30 30 29 28 28
28 28 27 27 27 26 26 26 27 28 32 32 32 32 25 18
24 33 31 29 29 29 28 28 27 26 25 26 25 22 20 24
25 28 30 31 31 30 31 32 33 34 34 35 35 35 35 36
36 37 37 37 37 38 38 38 39 39 39 39 39 42 40 40
41 41 41 41 41 41 42 43 42 43 42 41 41 41 42 43
44 44 44 44 43 43 44 44 44 44 45 44 45 45 44 45
42 42 41 41 40 40 39 39 38 39 38 37 36 36 36 35
35 34 34 33 33 32 32 31 32 31 31 30 30 30 29 28
29 29 28 28 27 27 26 27 27 29 33 32 32 32 25 20
22 33 30 30 30 29 29 28 28 28 26 25 25 24 20 25
26 30 30 30 31 33 32 34 34 34 34 35 35 35 35 36
37 37 37 37 38 38 38 38 39 39 39 40 40 41 40 41
41 41 42 42 42 39 41 41 40 41 41 43 44 43 43 42
44 44 43 44 44 44 44 45 44 44 45 44 45 44 44 45
42 42 41 41 40 40 39 39 39 38 38 37 37 36 36 35
35 34 34 33 33 33 33 32 32 31 30 30 30 30 29 29
28 28 28 28 27 27 27 28 28 29 33 33 34 33 25 21
20 33 31 30 30 30 28 29 27 28 27 27 26 24 23 26
27 30 31 32 32 33 34 34 35 35 35 36 36 37 36 36
37 37 38 37 38 38 38 38 39 39 39 40 40 42 41 41
42 42 42 41 41 42 41 42 43 43 43 43 44 43 43 43
44 44 43 44 44 44 44 44 44 45 45 45 45 44 45 45
42 42 42 41 41 39 40 39 39 38 38 37 37 36 36 35
35 34 34 34 33 33 33 32 32 32 31 31 30 30 30 29
29 28 29 28 28 28 27 28 28 30 33 34 34 33 26 22
21 34 31 30 29 30 30 29 28 28 27 27 27 26 25 27
29 31 32 32 33 33 34 34 35 36 36 36 36 37 37 38
37 38 38 39 39 39 39 39 39 40 40 40 40 42 41 40
39 39 40 41 42 42 43 43 42 43 44 43 44 43 44 44
44 44 44 45 44 44 44 44 44 45 45 45 45 45 45 44
42 41 41 40 40 40 40 39 38 38 38 38 38 36 36 36
35 35 34 34 34 34 33 33 33 32 32 31 31 30 30 29
29 29 29 28 28 28 27 28 29 30 33 34 34 34 28 22
17 31 32 30 30 30 30 30 29 30 27 28 28 27 24 28
30 32 33 33 34 34 34 35 35 36 36 36 36 37 37 38
38 38 38 39 39 39 39 40 40 40 41 39 39 38 39 41
41 42 42 43 43 44 44 43 43 43 43 44 44 44 43 44
44 44 44 44 44 44 44 44 45 45 45 45 45 45 45 45
42 41 42 40 41 40 39 39 39 39 38 38 37 37 36 36
35 35 35 35 34 34 33 33 33 32 32 31 32 31 30 30
29 30 30 29 28 28 28 28 29 31 34 34 34 34 26 19
13 29 33 31 32 31 30 30 30 31 28 28 28 28 25 30
31 33 34 34 34 35 35 36 36 36 37 36 37 38 38 38
39 39 39 39 39 40 40 40 39 39 39 40 41 42 41 41
42 42 42 43 43 43 44 44 43 44 43 44 44 44 44 44
44 44 44 44 44 44 44 44 45 45 45 45 45 45 45 44
42 42 41 41 40 40 40 39 39 39 38 38 38 37 37 36
36 35 35 35 34 34 34 33 32 32 32 31 31 32 31 30
31 30 29 29 29 28 29 29 30 31 35 35 36 35 27 21
20 32 34 32 32 31 31 30 30 31 29 29 29 29 27 31
31 34 34 35 35 36 36 36 37 37 37 38 38 39 39 38
39 39 39 39 39 39 39 39 40 41 41 41 42 42 42 42
43 42 43 43 44 44 45 44 44 44 44 44 44 45 44 44
44 44 45 44 45 45 45 45 45 45 45 45 46 45 45 45
42 42 41 42 41 41 40 39 39 39 39 38 38 37 37 37
36 36 36 35 35 34 34 34 33 33 33 33 32 32 31 31
31 30 30 30 29 29 29 29 30 32 36 36 36 35 28 24
24 31 35 34 33 33 33 32 32 32 30 30 30 30 27 32
33 34 35 35 36 36 37 37 37 37 38 38 39 39 39 40
39 39 40 40 40 41 40 41 41 41 42 42 42 43 42 42
43 43 43 43 43 44 45 44 44 45 45 44 45 45 45 45
45 45 44 45 44 45 45 45 45 45 45 45 46 46 46 45
42 42 41 41 41 40 40 40 40 38 39 38 38 38 38 38
37 36 36 36 35 35 34 34 34 34 33 33 32 32 31 31
31 30 30 30 29 29 29 30 31 32 36 35 36 36 28 24
26 31 35 34 34 33 33 32 32 33 30 31 31 31 27 33
33 35 35 36 36 37 37 38 38 38 38 38 38 38 39 39
39 40 40 40 41 42 41 42 41 42 42 43 43 43 43 43
43 43 44 44 44 44 46 44 44 44 44 44 45 44 45 44
44 45 45 45 45 45 46 45 45 46 46 46 45 44 44 44
43 43 42 42 41 41 40 40 40 40 39 38 38 38 38 37
37 36 36 36 36 35 35 34 35 34 34 33 33 33 33 32
32 31 31 30 30 30 30 30 31 33 37 36 37 36 28 25
28 29 36 35 35 34 34 33 32 34 31 32 32 32 28 34
34 36 37 37 37 37 38 38 38 38 38 38 39 39 39 40
40 41 41 41 41 42 42 42 42 42 42 43 43 43 44 44
44 44 44 45 45 44 46 45 45 44 45 45 45 45 45 44
44 44 45 45 46 46 45 45 44 45 45 46 46 46 46 45
43 42 42 41 42 40 41 40 40 40 40 40 39 39 38 38
38 36 36 36 36 36 35 35 35 34 34 33 33 33 33 32
33 32 31 31 30 31 31 31 32 33 38 37 37 37 30 26
30 28 35 35 34 34 34 33 33 34 32 32 32 32 29 34
35 37 37 37 37 38 38 38 38 39 39 40 40 40 40 41
41 41 41 41 42 43 43 43 43 43 43 43 44 44 44 44
44 44 45 45 45 45 46 45 45 45 45 45 46 46 46 46
46 45 46 45 45 44 45 46 46 46 45 45 45 46 46 46
42 43 42 42 42 41 41 40 40 40 39 39 39 39 38 38
38 38 38 37 37 36 36 35 35 35 34 33 34 33 33 32
32 32 31 31 31 30 31 31 32 34 38 38 38 38 30 26
31 27 37 36 36 35 35 34 34 35 33 33 33 33 30 34
35 37 37 38 38 38 38 38 40 40 40 40 40 40 41 40
42 42 42 43 42 43 42 43 43 43 44 44 44 44 44 44
44 44 45 45 45 45 47 45 45 45 46 46 46 46 44 44
44 45 45 45 45 46 46 46 45 46 45 45 45 45 46 45
42 42 42 41 41 41 41 41 40 41 40 39 39 39 39 38
38 38 37 37 36 36 36 36 35 35 34 35 34 34 33 33
33 32 32 32 31 31 31 31 32 34 38 39 38 38 30 27
34 27 36 36 36 35 35 34 34 36 33 34 34 34 29 34
34 38 38 38 39 40 40 40 39 40 40 40 40 41 40 41
41 42 42 43 43 43 43 43 43 44 44 44 44 44 45 45
45 45 46 45 45 45 46 46 45 45 45 44 44 44 45 44
45 45 45 45 45 46 46 45 45 46 45 45 45 45 45 45
43 42 42 42 41 41 41 41 40 40 40 40 39 39 39 38
38 37 38 37 37 36 36 36 35 35 35 34 34 34 33 33
33 33 32 32 32 31 31 33 33 34 39 39 38 38 30 27
35 27 37 36 36 36 35 35 35 37 33 34 34 34 30 36
35 38 38 39 39 39 40 39 40 40 41 41 42 42 42 42
42 42 42 42 42 43 44 44 43 44 44 44 44 44 45 45
45 45 46 46 46 44 45 45 45 44 45 46 46 46 46 47
44 45 45 45 45 45 45 45 46 46 46 45 45 45 45 45
43 42 42 42 42 42 41 41 41 40 40 40 40 39 39 39
38 37 37 37 36 37 36 36 36 36 35 35 35 34 34 34
33 33 32 32 32 31 32 33 34 35 39 39 39 38 31 27
36 28 37 37 37 36 35 35 35 37 34 35 34 34 31 37
36 38 39 39 40 39 40 40 41 41 43 41 43 43 42 42
44 44 44 44 43 44 44 44 44 45 44 45 45 45 46 46
46 45 44 44 45 45 45 45 46 46 46 46 46 46 46 48
45 46 46 45 46 45 45 45 46 46 45 45 45 45 46 46
43 42 42 41 41 42 41 40 40 40 40 40 40 39 39 39
39 38 38 38 37 38 37 37 36 35 36 35 35 34 34 33
33 33 32 32 32 32 33 33 34 35 39 40 39 39 32 28
37 28 37 37 38 37 36 36 36 37 35 34 35 34 31 37
37 40 39 40 41 42 42 42 42 41 42 42 43 43 42 45
42 44 44 44 45 45 45 45 44 45 45 45 45 45 45 45
45 46 46 46 47 46 47 46 46 47 46 46 46 46 46 47
45 45 46 45 46 45 46 46 46 46 46 46 45 45 44 45
43 43 42 42 42 42 41 41 41 41 40 40 40 40 40 39
38 39 38 38 37 38 37 37 37 36 36 36 36 35 35 35
34 34 33 33 33 33 33 33 34 35 40 40 40 40 32 28
37 30 36 36 37 37 37 36 36 37 35 36 36 37 34 40
37 40 37 40 43 42 40 40 41 41 41 41 44 44 43 43
38 40 43 44 44 46 45 46 45 44 44 44 45 46 46 47
47 47 47 47 47 46 46 47 47 47 46 46 46 46 47 47
45 45 46 46 45 46 45 46 46 45 46 45 46 45 45 45
43 42 42 42 42 42 42 41 41 40 40 40 40 40 40 39
39 39 38 38 38 37 37 37 37 36 36 36 36 35 35 34
34 34 33 33 33 34 33 34 34 36 41 40 41 41 33 29
38 32 35 38 38 38 38 37 37 37 36 37 38 40 46 42
42 37 32 29 27 26 24 24 28 36 45 44 41 39 41 36
35 26 33 46 45 42 43 45 46 45 45 45 45 46 47 47
47 48 48 47 47 47 47 47 47 47 47 47 47 46 47 47
45 45 45 45 46 46 46 46 45 46 46 46 45 46 46 45
43 42 43 42 42 42 42 42 41 41 41 40 40 40 40 39
39 39 38 38 38 37 38 37 37 37 37 36 36 36 36 35
35 35 34 34 34 34 34 34 35 36 41 41 41 41 33 28
38 34 34 39 38 38 38 38 37 35 38 47 52 53 49 42
31 28 24 21 18 18 19 11 25 47 39 39 41 37 36 35
29 17 11 35 46 46 43 43 46 45 46 46 46 47 48 47
47 47 48 47 47 47 47 46 47 47 47 47 47 46 47 48
46 46 46 46 45 46 46 46 45 46 46 46 46 47 46 46
43 42 42 42 42 41 42 41 41 41 41 41 41 40 40 39
39 40 39 39 38 39 38 37 37 37 37 36 36 36 36 35
35 34 34 34 34 34 34 34 35 37 41 41 42 40 33 29
38 36 33 41 39 39 38 39 42 52 63 65 53 54 49 36
31 25 21 22 18 8 2 10 11 18 36 41 28 31 25 20
16 10 1 8 41 37 35 40 46 46 47 46 47 47 48 47
47 47 48 47 47 47 47 47 47 46 46 47 46 46 46 47
46 45 46 47 46 46 46 46 46 46 46 46 47 47 46 46
43 43 42 42 42 42 41 42 42 41 40 41 40 40 40 40
40 39 39 38 38 38 38 37 37 37 37 37 37 36 36 35
35 35 35 34 34 33 34 34 35 37 41 41 41 41 34 29
39 39 32 40 41 40 43 53 63 76 66 54 54 51 41 43
48 44 42 33 4 0 2 7 32 48 43 32 38 33 24 21
17 14 15 17 23 29 26 32 44 45 47 47 47 47 48 47
47 47 47 47 47 47 47 47 46 47 47 46 46 46 46 48
47 46 46 46 46 46 46 46 46 47 46 46 45 44 44 44
43 43 43 42 42 42 42 41 42 42 42 42 41 41 40 40
40 40 39 39 39 38 38 38 38 38 37 37 37 36 37 36
36 36 35 35 35 35 35 36 36 37 42 42 42 42 35 28
39 40 32 41 43 50 58 69 70 56 51 52 50 58 63 57
55 57 44 8 0 4 17 49 59 63 51 33 32 34 27 23
19 18 19 12 8 12 23 26 44 45 47 47 48 47 48 47
48 48 48 48 48 47 47 47 47 47 47 47 47 47 47 48
47 46 47 48 47 46 47 45 45 43 44 45 46 47 47 46
43 43 43 43 42 42 42 42 42 41 41 42 42 40 41 40
40 39 39 39 39 39 39 38 38 38 38 38 37 37 36 36
36 36 35 35 35 35 35 35 37 38 42 43 43 43 35 29
42 43 34 46 50 54 74 73 60 49 54 63 73 67 65 61
63 43 8 6 6 30 56 65 65 42 44 52 62 48 30 25
25 21 16 10 5 4 11 22 41 47 47 48 47 47 48 48
47 47 48 47 47 47 47 47 47 47 48 48 48 47 48 48
47 46 46 45 45 45 46 47 47 48 46 45 46 45 45 44
43 43 44 43 43 43 43 42 43 42 42 41 41 41 41 41
41 40 40 40 39 39 39 39 38 38 38 38 37 37 37 37
37 37 36 36 36 36 36 36 38 38 43 44 44 43 36 30
42 47 42 48 55 73 71 59 52 59 72 73 71 74 67 63
50 19 12 10 22 55 65 58 59 65 66 66 54 40 26 26
25 24 19 9 10 16 12 15 27 42 47 46 47 47 48 49
49 48 48 48 48 48 48 47 47 48 48 48 48 47 47 46
44 45 47 48 48 45 45 47 47 49 46 46 46 45 45 46
44 44 44 44 44 44 43 43 43 43 43 42 42 42 42 41
41 41 41 41 40 40 40 39 39 39 38 38 39 38 39 38
37 37 37 37 36 36 37 37 38 39 44 45 45 45 37 30
43 50 41 56 65 62 59 54 63 72 71 64 60 68 71 63
29 18 16 24 52 56 54 60 76 68 60 66 57 37 29 29
19 14 19 18 20 19 11 13 17 30 45 48 45 44 44 44
50 49 49 49 50 49 49 49 48 47 47 46 46 47 49 49
48 48 48 48 47 47 48 48 47 49 46 47 47 47 47 47
45 45 45 44 45 45 45 44 44 44 43 43 43 43 43 42
42 42 42 42 42 41 40 40 41 40 40 40 39 39 39 39
38 38 39 38 38 38 38 38 40 40 45 46 46 45 39 34
46 54 59 61 54 59 58 64 66 67 60 52 65 79 72 46
21 17 14 35 36 39 46 58 64 52 62 66 67 43 35 28
12 8 9 21 22 11 7 9 10 18 36 48 49 45 45 47
45 49 50 50 49 48 48 49 48 48 50 49 50 49 48 49
49 49 48 49 49 49 48 48 48 49 47 48 47 47 48 48
45 45 45 45 44 44 44 44 44 44 44 44 44 43 43 43
43 42 42 42 42 41 41 41 40 40 40 40 40 39 39 39
39 39 38 39 38 38 38 38 40 40 45 46 45 45 38 36
50 61 57 47 53 60 62 64 52 54 50 52 63 73 59 34
16 15 21 28 31 45 64 71 61 61 69 74 65 45 37 24
19 18 12 23 17 3 4 5 8 8 13 22 38 46 45 46
43 46 49 49 50 49 49 51 49 49 49 49 50 49 49 49
48 48 48 48 49 49 49 49 48 49 48 48 47 48 48 48
45 45 45 43 44 45 45 45 45 45 44 44 44 44 43 43
43 43 42 42 42 41 41 44 45 42 41 41 40 39 39 40
39 39 38 39 38 39 39 39 40 41 46 46 45 45 41 42
52 51 44 48 63 58 68 55 52 49 45 63 80 73 35 30
24 19 21 25 31 48 57 67 64 65 68 81 72 37 38 24
38 24 27 23 11 6 8 6 12 6 10 13 12 16 27 43
41 41 49 48 49 48 49 50 49 49 49 49 50 49 49 49
49 48 49 48 49 49 48 48 47 49 48 47 47 47 48 48
45 45 45 47 55 53 50 48 46 45 44 42 43 44 43 43
43 42 42 42 42 41 43 56 56 52 48 45 43 40 39 39
40 39 38 39 38 39 39 39 40 41 45 45 47 45 45 49
48 42 41 56 54 65 56 51 45 41 54 75 68 46 23 21
31 24 21 29 43 56 57 60 66 70 82 83 50 52 35 27
42 41 36 29 17 12 12 12 9 4 10 12 11 6 20 37
46 40 43 48 49 48 49 50 49 49 49 49 49 49 49 48
49 48 48 48 48 48 48 48 48 48 47 47 47 48 47 47
45 45 45 49 59 57 56 54 51 49 48 47 44 44 44 43
43 42 42 42 42 42 45 56 56 53 51 52 51 46 40 39
40 39 39 39 39 39 39 39 40 41 45 46 46 47 51 45
36 38 46 50 56 58 59 45 37 35 48 56 56 26 30 43
36 23 38 55 65 72 77 72 58 62 68 52 52 67 49 52
46 49 49 44 26 19 14 12 8 9 11 9 5 4 8 19
34 42 45 48 49 48 48 49 49 49 49 50 49 49 49 48
49 49 48 48 49 49 49 48 48 47 48 47 48 48 47 46
46 45 45 50 60 58 56 52 52 53 55 57 50 50 48 45
44 41 42 43 42 42 45 54 54 52 50 51 52 49 41 40
39 39 39 39 39 39 39 39 41 41 45 47 47 51 43 37
36 43 41 42 56 65 48 35 28 20 28 40 37 14 37 15
32 26 32 40 57 77 69 51 44 43 45 69 77 70 69 69
58 59 52 31 26 18 19 12 11 8 13 9 7 8 8 16
24 38 45 46 49 49 49 50 49 49 49 49 49 49 48 49
49 48 49 48 48 48 50 48 48 48 49 48 48 48 47 47
49 48 48 50 52 51 55 54 55 58 59 58 50 50 52 53
50 47 46 45 43 42 44 40 32 36 41 47 50 50 42 40
40 40 39 39 40 39 39 40 41 42 47 47 51 45 37 39
43 35 34 43 56 54 32 30 18 18 20 34 15 8 18 10
27 37 32 40 55 67 60 53 44 43 33 45 67 47 57 62
63 76 58 48 35 29 25 15 12 12 11 10 9 11 8 10
24 34 40 44 48 48 49 50 50 49 49 49 49 49 48 49
50 49 48 48 48 48 49 48 48 48 48 48 48 49 48 48
47 51 53 56 21 6 19 38 48 52 56 57 41 11 19 30
40 47 45 50 52 48 44 36 19 17 18 17 19 31 43 40
40 40 39 39 40 40 40 39 41 40 47 50 47 43 37 36
34 32 34 43 48 42 20 26 18 21 28 34 8 15 6 16
20 48 33 44 68 76 65 57 56 62 48 58 66 53 66 62
61 90 75 51 28 25 25 17 18 16 11 16 14 10 19 17
12 18 34 47 47 48 49 50 50 49 49 49 48 48 49 48
48 48 48 48 49 48 49 49 49 49 48 49 48 48 47 47
43 47 57 60 20 0 0 14 23 24 25 41 38 0 0 0
2 8 17 25 36 42 46 35 14 9 13 15 3 13 44 40
40 40 40 40 40 39 40 40 42 44 50 49 45 43 35 41
26 28 35 40 37 26 18 26 17 13 31 16 7 9 6 15
24 49 55 48 52 58 54 59 66 59 54 64 74 74 86 71
80 86 69 57 49 41 38 38 38 31 27 23 21 17 18 19
13 10 14 35 48 47 47 49 48 49 48 49 48 49 49 48
48 49 49 48 48 49 49 49 49 48 46 46 46 46 46 47
49 54 59 61 23 0 0 9 14 18 18 34 39 0 0 0
0 0 1 0 1 7 43 35 9 4 1 10 2 12 46 41
41 41 40 40 40 40 40 41 42 43 48 47 44 40 33 35
32 28 35 38 38 15 18 24 16 17 26 15 18 7 9 19
31 50 48 50 55 52 58 62 61 62 82 76 92 88 86 74
88 62 58 63 57 46 42 45 48 46 43 49 50 37 28 17
12 9 11 28 47 51 47 49 49 50 48 48 48 49 48 49
49 49 49 49 49 49 49 48 49 49 48 48 48 48 47 47
8 18 31 45 24 0 0 5 7 8 10 31 40 5 0 0
0 0 0 0 0 2 44 31 3 0 0 6 1 13 48 41
41 41 41 41 40 41 41 41 41 43 47 46 41 37 35 34
34 30 40 38 34 17 22 26 24 23 24 25 16 6 15 20
31 44 49 41 43 50 57 61 59 81 113 109 105 91 84 60
81 53 56 57 56 48 40 31 26 24 28 31 32 28 26 25
13 11 15 36 46 50 44 46 49 49 49 49 49 49 49 49
49 49 49 49 50 49 49 49 49 49 48 48 48 48 47 47
0 0 0 8 22 0 0 0 0 0 7 27 37 0 0 0
0 2 0 0 0 2 43 23 0 0 0 1 2 14 49 41
41 41 42 41 41 41 41 42 43 45 46 52 33 38 36 32
35 34 43 48 25 23 33 25 25 22 12 39 15 12 20 17
30 40 36 35 38 42 48 57 74 110 130 125 105 92 95 55
57 70 72 73 81 74 60 51 44 42 45 39 30 31 17 14
14 21 20 29 43 46 34 36 47 50 50 50 50 50 50 50
49 49 51 50 50 50 49 49 49 49 49 48 49 48 48 47
0 0 0 5 19 0 0 0 0 0 2 32 39 0 0 0
0 14 11 1 0 1 42 23 0 0 0 0 1 13 50 41
42 41 41 41 42 41 41 41 43 44 48 45 34 50 38 35
39 45 61 50 26 28 34 27 25 30 13 23 10 27 23 23
37 48 39 49 48 44 55 82 98 126 145 142 113 107 97 55
61 112 98 88 99 92 65 52 41 35 35 29 15 8 7 6
19 29 33 30 27 43 43 29 34 50 50 50 50 50 49 49
49 50 50 50 50 49 49 49 48 49 49 49 49 49 50 49
0 0 0 4 18 0 0 0 0 0 2 33 42 0 0 0
3 17 20 14 6 0 40 21 0 0 0 0 0 10 50 42
42 41 42 42 42 42 42 42 43 46 51 36 32 49 34 35
49 60 80 48 27 39 35 32 29 33 20 14 8 30 26 27
46 46 50 53 52 49 64 90 111 143 147 147 127 111 91 52
91 120 108 105 111 100 79 64 57 44 44 42 25 9 10 8
14 24 21 25 24 30 42 47 29 42 49 49 49 50 48 47
49 50 50 49 49 50 50 49 50 50 50 50 50 50 49 49
17 3 0 3 16 0 3 0 0 0 2 30 44 0 0 0
6 19 20 19 18 2 38 23 0 0 0 0 0 8 51 42
42 42 41 42 42 41 42 42 43 44 50 34 29 47 39 33
47 77 79 36 34 47 31 38 30 35 27 18 5 25 30 36
43 45 44 50 46 54 68 77 114 139 149 150 127 97 62 68
127 141 142 149 145 134 116 104 95 80 64 48 33 5 10 15
10 18 21 22 20 25 24 40 40 33 49 50 49 49 49 48
49 50 50 50 51 50 50 50 50 49 48 47 46 48 49 49
8 1 0 3 16 0 1 0 0 0 7 31 46 1 0 0
4 17 19 19 18 3 37 26 0 0 0 0 0 6 51 43
43 42 42 44 42 43 43 43 44 49 45 35 33 37 43 36
52 83 59 35 46 49 30 45 35 38 34 14 5 23 33 45
46 42 44 58 72 71 81 102 98 113 118 106 82 65 58 108
146 149 149 148 148 145 129 108 109 86 71 73 58 3 10 19
5 19 19 19 20 19 20 22 33 41 48 50 50 48 50 49
49 50 51 51 50 50 51 49 46 44 44 45 44 43 39 35
6 3 0 3 16 0 0 0 0 0 13 34 50 3 0 6
3 4 14 18 17 2 35 45 30 19 11 5 3 8 50 43
42 42 42 45 43 43 44 44 45 55 44 38 30 33 38 47
59 65 42 52 51 41 32 47 35 41 37 19 4 20 43 44
50 45 50 63 75 97 118 138 135 112 102 91 76 65 94 129
133 139 143 145 148 144 125 103 102 83 98 107 92 6 15 15
6 16 22 22 21 31 20 20 25 48 49 49 49 48 47 48
49 50 46 47 47 45 46 43 39 36 31 27 26 24 22 22
0 2 0 4 32 13 7 8 3 0 5 32 60 36 27 22
16 5 2 7 11 0 32 55 54 51 50 48 48 49 56 42
42 43 42 43 42 42 43 43 44 58 44 44 31 38 41 51
57 47 42 55 46 36 34 48 37 48 42 22 6 20 34 42
44 41 47 64 89 128 148 150 149 139 119 103 98 125 146 149
149 148 136 142 143 144 130 115 108 111 115 113 99 26 19 15
8 18 16 17 25 45 38 28 42 45 46 48 47 45 45 46
45 42 39 35 32 28 26 24 23 24 25 20 25 27 29 30
0 0 0 6 54 57 45 42 39 31 19 35 64 37 37 41
42 41 36 29 26 22 41 56 54 52 52 55 61 63 60 42
43 42 42 43 42 42 42 42 48 54 45 51 31 42 42 51
46 40 55 53 39 32 38 50 41 49 44 33 17 17 22 28
44 48 55 75 117 147 150 150 150 150 149 149 149 148 148 142
141 134 125 116 121 125 130 129 127 128 121 119 106 36 12 19
8 15 13 16 28 43 43 40 44 45 43 42 39 35 32 29
27 26 25 25 25 26 28 29 30 31 31 22 19 34 34 34
0 0 0 7 59 60 51 57 60 64 60 61 60 22 19 21
22 23 26 28 34 40 48 43 42 47 50 55 60 61 59 44
42 42 43 42 42 43 42 43 58 46 46 59 35 44 44 44
34 49 56 46 34 37 43 48 49 53 47 37 31 16 21 26
44 56 69 98 138 150 150 150 149 149 149 149 150 148 144 144
135 126 112 108 88 73 76 105 122 131 125 123 110 72 22 11
8 16 10 19 31 41 38 36 33 30 28 28 28 27 28 29
30 31 32 33 33 34 35 33 33 37 38 35 15 38 39 39
1 0 0 7 58 50 53 60 63 67 64 52 45 23 20 20
19 19 18 17 16 15 16 17 21 25 30 42 42 40 41 42
43 42 42 42 42 42 42 44 60 44 45 53 39 42 40 37
36 42 39 33 33 34 45 50 59 63 44 36 35 25 26 38
50 67 88 117 147 150 150 150 150 149 150 149 149 148 148 147
146 139 126 109 87 55 62 64 80 116 126 123 111 89 22 6
8 11 12 19 22 28 28 28 30 30 31 32 33 34 34 35
36 37 38 39 40 39 40 37 31 36 42 42 20 34 42 40
43 33 25 25 54 42 53 59 61 66 66 56 46 27 22 21
19 17 16 15 15 15 14 14 15 15 19 40 40 39 39 41
43 42 42 42 43 44 43 46 60 40 48 42 46 45 39 32
38 35 28 26 37 36 43 52 67 64 44 39 47 29 33 47
60 80 99 122 148 149 149 149 150 149 149 149 149 149 149 148
132 106 72 49 43 73 88 80 88 103 114 119 108 97 22 10
6 7 17 20 24 30 33 35 36 36 37 39 39 40 40 41
41 42 42 43 43 43 43 43 42 32 38 43 35 21 44 41
58 59 59 61 54 27 39 48 53 59 61 55 51 31 22 20
17 14 15 14 15 16 16 16 17 18 23 40 16 24 42 41
43 41 40 42 43 44 44 50 53 45 55 37 47 47 39 30
35 32 20 27 42 40 42 65 70 60 49 37 40 34 36 49
65 86 106 129 151 150 150 149 149 150 150 149 149 149 144 121
105 99 96 52 53 58 111 114 100 101 112 113 103 68 22 18
2 10 22 17 30 36 39 40 42 42 42 43 43 44 44 44
43 43 44 44 45 44 43 45 45 44 31 35 41 16 40 43
60 61 61 63 47 5 2 6 12 20 29 32 48 33 20 18
10 2 3 4 13 19 19 15 18 21 25 42 41 39 50 49
49 37 14 36 44 44 43 53 51 52 43 48 41 43 41 30
31 27 26 35 43 45 45 68 67 62 51 37 36 39 39 50
67 91 114 139 150 150 150 149 150 150 150 149 149 145 127 116
123 150 141 41 75 79 123 134 126 122 119 108 74 30 16 7
7 23 15 33 36 40 43 44 45 45 45 46 45 46 47 47
47 47 46 45 44 45 44 44 46 47 45 31 36 24 29 44
53 56 58 62 43 1 0 0 0 1 11 21 49 32 18 17
8 0 0 0 6 10 10 4 8 14 17 43 52 44 45 45
48 48 37 42 45 43 45 50 44 45 49 44 44 47 29 29
33 26 39 34 42 39 54 64 66 62 52 44 40 39 41 54
79 106 124 149 151 149 150 150 150 150 150 149 149 144 140 135
135 131 145 107 90 97 126 145 149 148 133 98 36 14 7 9
31 26 19 32 28 42 46 46 46 47 47 48 48 48 48 48
48 48 48 47 45 44 46 45 47 47 48 46 32 29 12 24
44 41 46 56 39 0 0 0 0 2 0 11 51 31 17 16
8 0 0 6 2 0 1 0 0 3 8 41 53 37 34 33
35 40 43 45 44 44 46 46 41 42 56 39 45 38 24 26
24 42 36 34 40 45 64 56 52 54 48 45 48 52 53 65
91 113 139 150 149 150 150 150 150 150 150 150 150 150 150 149
148 144 113 112 96 103 127 148 149 149 141 82 28 29 31 42
46 40 24 14 13 40 46 48 49 48 48 47 48 48 48 48
48 47 47 48 47 46 45 45 45 47 48 47 44 28 9 2
40 37 45 57 37 0 0 0 0 2 0 3 51 24 13 4
0 0 1 14 10 3 2 0 0 0 5 40 54 37 27 42
41 36 40 44 45 45 45 44 43 54 45 38 39 31 23 26
29 41 25 35 49 58 63 45 50 48 46 49 51 64 66 72
101 124 148 151 150 150 150 150 150 150 150 150 150 149 150 149
149 148 134 108 95 115 144 149 149 149 148 104 26 37 47 43
39 45 24 17 11 37 47 49 50 49 49 49 49 48 49 48
49 49 48 48 47 47 45 45 43 45 47 47 44 41 18 0
43 42 50 56 36 0 0 0 0 0 0 5 53 13 0 0
0 0 1 10 17 10 3 0 0 0 4 41 55 36 20 38
36 33 39 43 44 43 42 45 47 45 36 42 31 28 25 27
47 31 29 42 58 69 43 40 49 44 41 48 58 61 67 80
113 130 149 151 151 150 150 151 150 150 150 150 149 150 150 150
150 149 142 123 107 119 147 149 148 149 148 142 59 27 15 9
12 41 20 12 9 37 47 49 50 49 49 49 49 48 48 48
49 48 49 48 47 47 47 45 43 44 45 44 43 43 35 0
20 28 37 42 34 0 0 0 0 0 0 7 54 15 0 0
0 0 2 6 21 18 13 3 0 0 3 40 56 38 18 28
29 29 39 43 42 41 40 43 44 33 33 40 21 26 28 27
54 32 31 56 71 47 31 37 47 46 42 44 57 65 71 89
115 134 149 150 150 150 150 150 150 150 151 150 149 150 150 149
149 149 142 125 113 112 142 149 149 149 149 149 128 39 24 31
37 43 24 5 7 35 47 48 49 49 48 49 49 48 48 49
48 48 48 48 47 48 48 48 45 42 41 41 42 45 39 3
0 0 0 3 26 0 0 0 0 0 0 8 53 11 0 0
0 0 8 19 22 20 20 5 0 1 4 39 56 41 29 32
31 30 38 42 42 41 42 41 31 27 37 26 12 25 28 28
47 31 45 69 45 35 28 35 45 44 44 48 52 64 70 87
112 137 148 150 150 150 150 150 150 150 150 149 150 150 149 149
149 149 147 133 118 114 136 149 149 149 149 149 147 98 49 49
49 47 29 9 9 35 46 48 49 49 48 49 48 48 48 48
49 48 48 48 47 47 47 47 47 44 41 41 43 45 41 5
0 0 0 0 23 0 0 0 8 2 0 5 50 8 0 0
0 0 10 24 28 17 13 3 0 3 7 38 57 44 33 23
11 18 37 42 43 37 36 31 28 25 39 12 10 28 32 35
40 45 57 47 31 28 32 36 44 50 49 42 53 60 73 93
115 136 145 150 150 150 150 150 150 150 150 151 150 150 150 150
150 150 147 131 123 130 148 149 149 149 149 149 148 133 61 49
48 46 36 7 9 38 47 49 50 50 49 49 49 48 48 48
48 48 48 48 47 46 47 47 47 46 42 41 44 46 42 6
5 0 0 0 22 0 0 9 22 11 0 6 51 7 0 0
0 0 2 6 25 6 0 0 0 2 3 34 57 44 32 18
13 15 39 43 41 36 31 26 28 24 31 8 10 28 29 33
44 41 46 39 26 20 27 36 54 56 49 45 49 58 78 94
120 135 145 151 151 150 150 150 150 150 150 150 150 150 150 150
150 149 148 142 138 145 149 148 149 149 149 149 149 147 98 49
48 46 39 16 19 42 48 49 50 49 49 49 49 48 48 48
48 48 48 48 48 47 47 47 47 46 42 41 43 46 44 7
20 5 0 0 22 0 0 19 23 16 3 5 48 5 2 0
0 0 0 0 21 6 0 0 0 0 0 30 56 41 20 11
3 6 35 41 43 34 31 32 28 31 16 7 8 28 33 34
51 46 44 39 27 17 27 40 53 61 48 42 51 61 82 106
124 135 140 150 150 150 150 150 150 150 150 150 150 150 150 150
150 150 149 144 142 147 148 149 149 149 149 149 149 146 133 66
48 45 40 36 36 44 49 49 50 50 49 49 49 47 49 49
49 48 48 47 47 47 48 47 47 47 43 39 35 40 37 8
29 11 5 0 30 19 17 28 26 25 13 10 49 5 2 0
0 0 0 0 21 10 0 0 0 0 0 24 56 38 14 15
0 9 36 41 41 37 30 29 28 33 10 6 4 31 39 41
53 48 45 41 30 21 29 45 63 50 48 47 54 60 88 113
130 140 144 150 151 150 150 150 150 150 150 150 150 150 150 150
150 149 150 147 145 146 149 149 149 150 149 150 149 148 143 111
50 46 43 42 44 48 50 49 50 50 49 49 48 48 48 48
48 49 48 48 48 48 48 47 47 47 43 39 34 30 37 13
16 6 3 0 38 50 50 54 52 51 52 52 55 7 0 0
0 0 0 1 22 11 1 2 1 0 0 18 56 33 11 9
3 15 37 35 43 38 34 28 37 40 12 10 6 29 41 35
53 50 46 38 25 22 43 69 59 44 44 55 47 61 89 111
135 141 146 145 149 149 150 150 150 150 150 150 151 150 150 150
150 150 149 149 147 145 149 149 149 146 143 147 148 149 147 131
70 46 44 44 48 50 49 49 50 50 49 49 49 49 49 48
49 47 47 47 48 47 46 47 47 47 43 39 41 43 44 15
1 1 0 0 36 51 52 56 54 55 61 65 61 27 17 23
10 5 4 7 25 16 6 5 3 0 0 13 49 32 10 4
7 9 30 38 52 37 32 28 40 37 19 11 13 20 38 31
60 60 45 31 27 34 55 69 52 46 57 39 46 68 84 108
129 138 145 148 150 150 150 150 150 150 150 150 150 150 150 149
149 150 150 149 148 146 149 149 146 144 147 148 149 148 149 146
107 49 47 46 49 50 50 49 50 49 49 49 49 48 48 48
48 48 48 49 48 48 48 46 46 46 42 39 40 42 43 17
1 0 0 0 34 50 51 53 53 55 64 66 64 46 43 43
40 37 36 35 37 30 26 23 21 20 20 27 46 38 20 17
20 15 24 45 40 35 31 28 32 38 20 1 4 17 40 25
57 65 43 32 27 33 61 40 46 60 42 41 56 64 81 103
122 140 146 149 149 149 149 150 149 149 149 150 150 150 150 150
150 150 149 149 148 144 146 148 148 149 148 146 147 147 148 148
123 63 47 48 49 48 48 48 48 48 49 49 48 49 47 48
48 47 48 48 48 47 47 45 44 45 42 39 39 44 44 21
0 0 0 0 34 45 46 48 48 49 51 48 48 45 46 47
46 43 44 46 44 43 41 37 36 33 33 36 48 49 37 34
30 29 33 38 39 33 29 32 30 46 22 3 0 10 36 21
50 62 46 34 32 50 48 33 47 58 33 44 67 64 68 97
120 140 148 150 150 150 150 150 149 150 149 149 149 149 149 149
149 149 149 149 146 138 146 148 149 140 71 67 96 118 144 146
124 68 48 49 49 49 49 49 49 49 49 49 48 48 48 48
48 47 48 47 48 47 47 46 46 46 43 38 39 42 43 24
0 0 0 0 37 48 45 45 46 46 45 42 42 46 48 49
50 48 48 47 47 46 45 49 49 46 43 43 51 59 56 54
53 52 50 32 47 37 31 27 39 58 24 2 0 7 31 18
37 58 51 36 39 50 37 43 48 51 40 45 72 64 65 91
109 137 149 150 150 150 150 149 150 150 150 150 150 150 150 150
150 150 149 149 143 137 148 140 141 132 120 143 143 116 111 135
101 54 50 51 51 50 49 50 50 50 49 49 49 49 49 48
47 47 48 47 47 47 47 46 46 45 43 38 38 43 42 25
21 17 14 10 40 52 46 46 45 45 47 47 50 51 49 52
55 58 55 48 45 46 47 57 58 55 52 52 51 47 42 40
44 48 41 41 53 39 28 22 43 64 27 3 2 6 27 22
23 50 44 39 41 37 30 44 54 38 44 49 71 67 63 89
103 134 148 149 150 149 149 149 149 150 149 149 149 149 149 149
149 149 149 149 138 145 149 145 132 137 147 140 134 130 110 83
57 50 50 50 50 49 49 50 49 49 48 49 48 49 48 47
49 48 48 47 48 47 47 46 45 45 43 38 38 41 41 27
53 55 60 57 60 55 48 48 48 48 49 52 56 57 49 53
55 61 55 50 43 41 46 58 58 55 53 54 53 48 39 35
35 43 30 47 54 39 34 26 47 72 31 4 6 8 16 32
21 47 42 39 43 24 31 51 49 32 40 66 71 70 63 89
100 131 146 149 150 150 150 150 150 150 150 149 150 149 150 149
149 149 149 146 141 148 149 149 149 149 149 138 87 55 52 50
51 51 50 50 50 49 49 49 49 49 48 48 48 48 48 47
47 47 48 47 47 46 46 45 45 44 43 38 38 41 42 30
65 65 65 65 65 59 47 43 44 43 45 52 58 61 51 53
52 51 53 52 48 41 39 52 50 48 49 54 53 49 45 41
41 44 37 51 44 30 39 31 53 76 47 4 7 6 20 39
19 40 43 39 39 22 40 55 44 36 42 77 70 72 70 89
99 126 139 148 150 150 150 150 150 150 150 149 149 149 149 149
150 149 150 148 148 149 149 149 149 149 144 103 57 51 51 50
51 50 51 50 50 50 50 49 49 49 49 49 48 49 48 47
48 47 48 47 46 47 46 46 45 45 43 38 37 41 41 32
54 57 59 60 63 51 14 19 11 11 14 20 35 59 52 48
28 27 32 34 33 38 42 39 16 10 12 20 27 33 48 46
47 51 39 55 42 26 37 33 56 77 67 8 5 8 19 32
31 29 36 43 31 27 42 55 41 42 50 74 73 79 80 89
97 121 135 142 150 150 150 150 150 150 150 150 150 150 150 149
150 149 149 149 149 149 148 149 149 148 124 92 54 50 49 47
49 49 50 50 50 49 50 49 49 48 48 49 49 48 47 47
48 48 49 47 46 47 46 45 46 45 43 38 36 40 42 33
37 37 38 38 40 38 4 0 0 0 0 0 8 54 52 31
2 1 4 9 15 32 46 38 6 0 0 0 13 24 44 35
39 48 34 49 34 24 34 38 50 79 68 9 8 16 22 28
42 30 33 46 25 28 46 51 44 44 56 67 83 87 86 84
93 117 138 147 150 150 151 151 150 151 150 150 151 150 151 151
150 150 150 150 150 149 150 149 149 145 115 87 34 30 27 25
29 45 51 50 50 49 50 50 49 49 49 48 49 48 47 47
47 47 49 48 47 46 46 45 45 46 44 38 35 40 42 35
44 43 42 41 42 39 11 5 0 0 0 3 18 54 47 12
0 0 0 0 6 35 47 40 5 0 0 0 10 22 36 6
20 29 23 38 23 25 27 41 45 59 58 21 9 21 24 29
43 29 29 54 28 28 50 57 55 45 59 59 84 91 91 79
85 108 138 147 149 151 151 150 151 151 151 150 150 151 151 150
150 149 149 141 140 149 149 144 137 127 119 79 17 16 18 17
21 43 51 50 51 49 50 50 49 49 48 48 48 48 48 47
47 47 48 48 47 47 46 45 46 46 44 39 36 39 41 36
49 49 48 49 50 41 9 5 0 0 0 4 23 54 40 3
0 0 0 0 0 32 47 40 5 0 0 0 6 22 36 5
22 41 31 29 24 27 21 39 42 42 46 27 17 28 36 40
41 33 27 51 35 37 41 63 69 45 61 53 86 86 83 78
79 97 130 145 149 151 151 151 151 151 151 151 151 151 151 151
151 150 125 106 122 121 108 101 102 101 93 50 17 17 18 17
20 44 51 51 51 51 50 50 50 49 48 48 49 48 48 49
48 48 48 48 47 47 47 45 45 45 44 38 35 38 39 35
49 49 50 50 52 43 7 5 0 0 2 6 8 49 34 1
0 0 0 0 0 31 46 39 5 0 0 0 3 19 37 9
29 36 22 35 26 27 22 37 26 29 23 28 14 31 43 51
39 44 39 45 46 53 37 51 75 50 62 53 86 85 81 73
77 99 127 138 147 150 150 151 151 151 150 151 150 150 150 151
150 134 125 114 114 118 112 97 86 74 57 24 17 18 17 17
20 43 51 51 51 51 50 50 49 49 48 48 48 48 48 48
48 47 47 48 48 47 46 46 45 44 43 38 33 34 38 35
44 32 27 36 50 47 7 0 0 0 4 11 4 46 32 0
0 0 0 0 0 31 46 37 5 0 0 0 1 12 35 12
19 30 16 32 25 25 22 35 20 16 14 20 13 27 58 42
38 49 40 50 46 52 37 59 74 61 69 62 85 84 81 75
69 90 120 134 145 149 151 151 151 150 151 151 150 150 151 151
147 139 149 149 148 141 133 127 108 84 38 17 17 18 17 16
17 39 52 51 50 50 50 50 50 48 47 47 47 46 46 46
46 46 47 47 47 46 46 46 45 44 43 37 34 34 37 36
39 16 0 9 41 54 22 3 0 0 4 7 1 43 31 0
0 0 0 0 0 29 47 35 7 0 0 0 0 6 35 8
15 20 13 29 24 26 22 32 16 6 6 19 16 37 44 36
39 51 39 45 49 49 45 56 69 67 68 57 86 87 86 80
70 78 110 127 137 147 150 151 151 150 151 151 150 150 150 150
148 147 150 150 150 148 145 130 111 97 60 17 17 17 18 18
17 35 49 49 48 47 48 47 48 48 47 48 48 48 49 48
48 47 48 47 46 45 45 45 44 43 42 37 34 33 37 35
38 17 0 4 36 54 19 2 0 0 4 10 4 41 30 0
0 0 0 0 0 22 49 37 12 0 0 0 0 10 42 13
16 9 7 25 25 20 28 34 19 5 5 18 16 29 34 37
33 33 36 44 44 45 62 54 74 70 72 56 81 96 88 89
81 73 96 116 126 136 144 150 151 151 151 151 151 151 151 150
150 150 150 149 150 146 135 121 107 95 53 25 24 25 26 26
28 49 47 49 50 50 50 49 49 48 47 47 48 49 49 47
47 47 47 46 45 45 45 44 43 42 41 36 32 31 35 33
36 20 0 1 32 50 6 0 0 0 0 0 1 41 32 0
0 0 0 0 0 18 49 36 7 0 0 0 1 11 40 19
18 11 10 22 25 20 32 41 20 5 2 16 15 23 37 35
23 21 26 37 31 41 70 58 77 69 69 71 85 101 96 100
92 87 94 108 114 124 138 147 151 151 151 151 151 150 150 150
150 150 151 150 149 142 120 95 77 62 42 23 22 20 15 11
20 78 19 17 35 50 49 49 49 49 49 48 47 48 48 48
48 46 46 46 45 44 45 44 43 42 41 35 30 31 34 33
35 23 0 0 27 45 4 0 0 0 0 1 0 40 37 0
0 0 0 0 0 16 51 36 9 0 0 0 3 9 42 24
17 14 16 28 31 20 26 43 26 11 15 19 15 21 25 27
17 17 29 37 26 38 73 75 82 66 70 90 83 101 97 103
102 101 111 109 107 111 125 138 148 150 151 151 151 151 151 151
150 150 150 149 146 133 115 98 80 57 40 18 18 18 13 2
12 33 36 19 23 50 50 49 49 49 49 48 49 48 48 47
47 47 47 46 45 45 44 43 42 41 40 35 30 29 33 33
33 25 0 0 23 43 6 1 0 0 3 17 4 39 45 10
7 7 12 8 9 22 52 40 34 30 29 29 33 32 52 28
18 22 27 25 22 23 18 33 25 8 32 15 18 16 14 18
20 24 32 35 25 36 75 83 84 62 69 95 85 96 103 102
106 107 119 124 116 105 110 123 135 144 150 150 151 150 150 150
150 150 150 150 148 138 126 100 74 51 41 18 17 17 19 5
9 17 25 20 22 49 49 48 48 48 48 48 47 48 48 48
47 46 47 45 45 44 43 43 41 41 39 35 29 29 32 32
31 26 1 0 14 46 38 36 30 32 42 50 44 49 52 55
52 49 52 52 53 55 58 42 45 51 54 55 60 53 64 47
38 37 36 28 22 23 17 34 22 37 46 17 10 14 14 12
5 16 32 40 29 37 61 80 84 65 68 89 93 94 112 103
109 109 120 130 131 116 103 105 119 130 141 149 150 151 150 150
150 150 150 150 149 148 134 106 66 47 42 18 17 17 17 12
15 16 9 14 20 48 49 48 48 48 48 47 47 47 48 47
47 46 47 45 45 43 43 42 41 39 38 34 28 26 30 31
30 26 1 0 8 47 50 48 44 49 58 59 53 49 47 63
62 58 57 60 63 63 62 43 40 49 53 55 62 65 59 55
42 41 39 38 26 29 23 32 21 60 27 22 14 14 16 7
5 28 31 47 30 36 51 75 74 60 57 83 93 99 117 106
112 112 120 129 138 131 116 102 97 108 119 134 142 149 151 150
150 150 149 150 150 149 133 108 53 44 42 21 15 15 13 14
15 16 11 11 19 45 31 24 36 48 48 47 48 47 46 46
46 45 45 44 44 43 42 41 40 39 37 34 27 26 30 30
29 26 2 0 6 47 49 43 43 49 57 61 53 45 41 51
54 53 53 52 54 53 53 43 35 40 45 48 49 50 50 50
40 38 42 38 35 34 32 25 37 50 18 27 23 23 23 12
13 34 32 46 33 40 56 74 67 56 48 71 89 98 125 107
114 113 118 129 138 135 133 126 113 104 107 114 123 134 147 150
150 150 149 149 149 141 116 97 38 44 40 23 16 13 9 37
21 1 1 1 9 22 30 34 12 39 48 47 47 46 47 46
46 45 44 44 43 43 42 40 39 38 37 34 27 25 29 30
28 26 3 0 4 46 39 35 35 38 48 60 55 48 42 33
34 33 34 34 34 34 37 39 38 40 42 42 42 38 36 50
41 39 43 43 32 28 43 27 44 21 34 32 28 38 25 18
29 46 26 35 49 48 65 67 70 62 46 64 80 106 128 109
116 115 116 127 142 141 136 131 130 123 121 122 122 118 120 141
149 150 149 148 146 117 113 75 48 41 44 21 18 12 43 74
67 6 4 4 26 45 48 48 33 25 48 46 47 47 47 46
45 44 44 43 42 42 42 39 39 38 36 33 27 24 28 29
27 25 5 2 11 45 30 20 25 29 37 46 45 43 45 34
34 34 37 41 40 39 41 44 45 47 50 50 48 42 40 40
44 35 39 36 28 29 38 32 20 12 42 44 44 52 35 29
36 40 19 31 58 55 73 64 61 57 40 49 67 96 132 117
120 126 122 127 144 142 136 126 121 119 116 121 125 125 111 107
123 132 133 133 122 112 112 34 32 35 40 36 18 14 45 54
70 8 0 2 43 49 48 48 42 19 48 47 47 46 46 45
44 43 42 42 40 41 41 39 39 38 36 33 27 25 28 30
27 25 17 22 31 47 24 0 0 2 3 10 15 23 47 40
48 47 48 58 58 45 42 45 45 48 53 56 55 44 42 40
40 37 37 27 21 35 24 22 15 13 51 52 55 42 37 28
42 32 24 33 55 71 78 67 66 40 36 35 48 55 90 114
126 139 137 137 151 151 147 133 114 108 105 106 109 114 115 97
79 82 91 100 103 103 56 14 17 21 28 37 25 15 22 17
28 2 0 2 43 49 49 48 44 20 47 48 48 46 46 45
43 41 41 41 40 40 41 40 39 38 36 34 27 26 29 32
26 24 35 47 50 53 25 0 0 0 0 0 5 25 50 41
53 52 52 65 63 19 10 11 12 14 20 44 57 45 42 41
41 40 37 19 22 21 21 13 8 11 53 59 56 35 34 29
41 24 21 27 42 81 86 72 71 36 37 38 39 39 20 20
51 87 130 145 152 152 151 148 130 105 83 81 86 94 97 98
88 68 47 46 48 30 17 21 17 18 24 29 37 25 5 2
3 0 1 7 39 49 48 48 43 25 48 47 47 46 45 43
40 39 39 37 38 40 40 40 39 38 36 34 27 25 29 31
27 25 36 49 52 54 31 0 0 0 0 0 0 20 51 38
51 42 19 27 45 10 0 0 0 0 1 35 56 46 43 43
43 41 37 18 20 3 14 23 4 9 55 52 31 32 23 30
38 24 18 23 34 92 84 74 58 28 39 33 31 30 17 14
13 16 19 43 86 117 137 144 146 146 125 87 59 50 50 49
41 32 18 10 13 9 2 16 11 18 25 33 33 39 24 0
0 0 0 1 37 50 50 49 39 32 48 48 47 46 45 42
39 38 38 37 36 38 40 39 38 37 36 34 27 23 27 29
26 24 33 45 45 46 28 0 0 0 0 0 0 19 52 39
50 36 0 5 37 11 0 0 0 0 0 30 55 46 43 43
42 41 34 21 18 1 2 23 23 12 41 41 17 18 17 26
31 26 17 23 38 82 83 68 53 27 37 31 22 23 12 10
12 14 13 16 18 20 21 23 24 29 34 33 30 17 9 4
1 6 13 18 19 8 5 14 19 6 28 33 35 60 62 6
0 0 0 0 37 50 49 46 24 41 45 41 43 46 45 40
37 35 34 34 35 38 39 38 37 37 36 35 27 23 26 29
26 23 20 15 16 19 5 0 0 0 0 0 0 22 52 39
50 37 1 5 35 14 0 0 0 0 0 23 54 45 41 43
41 42 32 27 11 0 4 11 42 45 31 25 12 7 16 23
25 23 26 28 33 63 92 64 46 25 39 34 18 21 8 7
8 11 9 10 15 17 18 18 17 15 16 15 14 10 2 0
0 0 9 39 30 14 9 15 21 13 24 50 38 42 45 7
0 1 0 2 16 21 19 14 16 40 20 22 23 46 43 39
36 33 32 33 34 36 37 37 37 36 35 34 28 23 26 29
25 22 18 11 12 15 3 0 0 0 0 0 0 23 50 39
50 36 0 5 32 17 0 0 0 0 0 17 53 45 41 42
41 42 36 39 20 0 9 16 29 62 51 18 3 7 18 20
19 15 23 32 32 59 86 67 40 25 33 27 20 18 13 4
5 8 7 6 10 11 12 13 14 14 14 12 9 6 1 2
4 1 18 37 23 18 19 23 18 18 29 67 48 17 5 5
5 3 1 1 1 0 0 0 4 10 23 95 49 44 42 39
35 32 31 32 32 35 37 36 35 34 35 33 27 22 25 29
25 21 18 13 13 17 2 0 0 0 0 2 0 17 49 38
50 35 1 5 29 18 0 0 0 0 0 14 51 45 40 39
39 40 44 45 30 9 5 8 20 32 77 37 0 6 23 20
19 15 23 30 37 41 72 62 39 21 26 31 13 14 9 6
5 7 6 6 7 9 9 9 9 9 8 6 6 4 4 7
4 0 16 21 23 20 19 25 22 26 28 55 42 19 12 13
15 17 19 20 20 18 3 0 22 25 73 102 112 33 28 24
30 31 30 31 33 35 36 36 36 35 34 33 27 23 25 30
24 20 19 16 16 18 2 0 0 0 0 3 0 13 50 39
50 37 5 5 26 22 4 0 0 2 1 12 50 46 40 39
40 38 41 46 28 20 4 15 31 20 45 73 7 11 25 29
25 18 25 28 33 28 72 53 38 16 25 26 7 17 4 6
8 7 6 5 7 7 7 8 6 5 5 5 5 6 9 10
4 1 9 13 20 11 13 21 15 20 21 32 32 25 24 25
26 26 26 26 24 20 3 0 2 2 1 3 5 8 8 8
30 34 32 34 35 38 39 40 38 38 36 36 31 24 26 30
23 19 18 17 19 18 2 1 1 0 0 12 5 9 50 39
50 40 20 6 23 23 7 6 5 4 0 10 48 44 39 40
39 31 33 42 28 25 20 35 43 24 33 63 43 10 22 29
39 34 31 39 17 19 72 36 35 22 23 28 7 12 3 5
8 9 7 4 6 7 7 6 6 6 9 10 10 11 11 6
2 1 2 4 3 4 4 6 8 7 9 18 23 26 25 27
27 28 27 26 25 20 3 0 0 0 0 0 0 10 9 8
30 35 32 31 32 33 31 29 26 21 19 17 13 8 7 6
23 20 18 18 19 20 3 2 1 0 1 16 19 9 51 40
51 36 27 14 21 20 2 11 12 4 2 15 45 43 38 39
40 37 36 25 23 28 29 18 33 17 41 49 40 13 27 30
55 59 40 47 27 33 41 21 30 21 29 22 6 13 5 6
9 11 8 5 6 6 6 6 8 11 12 11 12 12 11 4
3 2 3 8 10 7 6 1 3 4 9 15 15 12 16 17
18 19 19 19 18 15 7 4 2 0 0 0 0 5 12 24
28 27 27 28 32 36 38 39 40 38 40 42 42 37 37 41
24 19 19 19 19 22 17 15 20 17 21 33 38 34 56 43
52 33 23 25 21 23 9 16 15 10 11 23 39 39 38 44
41 38 37 21 20 27 18 8 23 21 53 60 40 21 26 48
52 73 49 45 40 33 21 14 24 17 31 10 13 8 4 7
9 12 11 8 10 11 12 13 12 12 11 11 12 11 7 6
3 4 3 10 10 10 12 9 6 10 12 11 11 11 10 10
10 10 10 9 9 9 7 9 9 7 3 0 0 0 35 56
53 52 52 54 57 60 60 60 58 56 55 55 53 45 43 48
23 19 19 19 20 22 38 43 47 48 51 58 61 63 66 47
52 29 9 27 21 36 31 31 31 29 29 28 29 29 35 40
39 39 38 31 18 19 10 9 33 33 59 68 44 24 26 59
70 69 68 32 46 37 17 9 19 16 20 10 12 9 2 7
10 13 10 10 11 11 12 11 12 12 12 13 12 8 6 4
5 3 5 9 11 12 12 9 11 12 11 12 10 9 10 11
11 9 8 10 9 9 8 10 10 10 9 8 4 0 38 56
53 53 53 53 56 58 58 57 55 55 55 54 53 46 43 47
24 18 18 20 21 20 41 50 51 52 55 61 64 65 67 56
51 31 1 12 19 36 31 32 33 31 31 32 32 34 38 38
38 38 37 37 21 10 5 6 22 16 42 72 46 27 20 48
81 76 60 34 41 44 8 15 13 16 12 8 7 4 5 8
11 9 11 15 14 12 14 15 14 15 13 10 8 4 6 5
7 3 7 10 12 13 9 10 12 11 12 13 12 12 11 10
8 9 10 11 9 8 9 10 10 9 10 8 9 7 37 54
53 53 52 53 55 56 56 55 55 55 55 54 53 46 42 46
23 18 18 20 21 18 28 38 38 37 39 44 46 46 45 42
47 30 0 6 16 37 35 37 37 37 37 37 37 37 37 38
38 38 37 37 34 18 1 0 1 2 19 58 55 28 18 22
62 66 34 39 31 37 24 10 18 14 10 7 5 0 1 4
8 10 10 11 12 11 14 14 13 11 11 6 5 4 6 9
5 4 8 10 13 13 8 11 11 11 12 11 12 12 11 10
9 10 12 11 10 9 9 11 11 11 11 10 10 9 12 46
53 52 52 52 53 53 54 54 54 54 53 53 52 47 42 45
23 18 17 19 21 19 13 12 13 14 17 22 27 29 31 29
44 32 0 3 13 38 35 38 38 38 38 37 38 37 37 38
38 38 38 37 35 24 3 0 0 0 2 28 43 29 17 14
25 32 26 30 32 26 32 20 11 12 8 4 1 3 0 3
5 5 8 9 10 11 11 10 9 7 5 5 5 6 10 6
5 7 10 11 12 8 7 8 10 12 12 13 12 11 10 8
10 11 12 11 10 7 10 11 11 10 11 10 11 10 8 14
49 53 52 52 52 52 52 52 52 53 53 52 52 47 41 43
23 17 17 19 21 19 15 13 13 14 17 22 28 31 32 30
45 34 6 4 15 38 36 37 39 37 38 37 37 38 37 37
35 27 19 10 3 0 0 0 1 0 0 4 35 23 12 8
10 18 22 21 29 27 25 20 12 6 4 2 1 0 1 2
2 4 4 6 7 7 8 5 5 4 4 6 8 11 17 5
5 10 12 14 11 7 8 8 7 8 12 13 11 10 7 9
8 11 12 11 9 8 10 11 11 11 11 11 11 10 9 6
22 52 52 52 53 52 52 52 52 52 52 52 52 48 42 43
23 17 16 19 20 22 20 19 19 19 21 24 29 32 32 32
48 40 32 39 44 42 34 37 38 37 36 32 24 17 11 5
1 0 0 0 0 0 0 0 0 0 0 0 10 20 6 3
2 9 14 19 20 15 21 18 9 0 0 1 1 2 2 6
5 5 6 6 6 5 5 4 3 4 6 6 5 26 17 7
8 10 12 14 9 8 8 9 9 9 9 8 6 6 4 4
2 6 11 10 8 6 9 11 11 11 10 10 10 9 8 6
6 36 52 52 52 52 52 51 51 52 52 52 52 47 41 42
25 18 16 19 20 21 21 20 21 21 23 27 33 34 33 32
47 43 46 54 54 41 33 36 31 15 8 3 2 1 0 0
0 0 0 0 0 0 0 0 0 0 0 0 0 12 8 2
2 3 9 11 14 7 10 20 12 0 0 1 3 3 6 7
8 7 8 7 6 5 4 5 6 5 3 4 8 34 6 8
11 12 15 10 9 7 8 9 10 10 10 9 8 7 6 5
4 8 11 11 9 8 10 11 11 10 11 10 8 9 9 4
7 10 49 52 51 51 51 51 51 51 51 52 51 48 41 41
21 17 17 19 21 21 21 20 21 21 24 28 33 34 32 29
33 31 31 34 35 34 34 28 7 6 6 6 6 5 3 1
0 0 0 0 0 0 0 0 0 0 0 0 0 0 6 3
2 3 8 10 8 8 4 6 8 0 0 0 1 4 6 8
9 10 9 7 8 7 6 4 3 5 7 10 28 26 9 11
12 14 12 10 9 9 9 9 10 11 9 10 9 7 6 5
6 9 11 8 7 8 10 11 10 10 10 8 6 9 8 4
9 6 27 53 51 52 51 51 50 51 51 50 51 48 41 41
16 17 16 18 20 21 22 22 21 21 23 27 32 33 31 31
32 32 30 29 33 33 24 5 5 8 7 7 7 6 5 3
1 0 0 0 0 0 0 0 0 0 0 0 0 0 0 2
3 4 9 11 7 20 8 8 3 0 0 0 0 0 3 6
6 9 7 6 4 3 2 6 9 9 10 10 38 12 11 12
14 13 10 10 10 10 10 9 9 10 9 8 8 6 5 5
7 8 10 8 6 7 10 11 10 9 9 7 5 8 8 4
8 6 8 46 51 51 51 50 50 51 51 50 51 48 41 40
16 16 16 17 19 21 22 22 23 22 24 27 32 33 32 32
33 32 32 30 32 19 4 5 5 7 7 7 7 7 7 6
5 2 1 0 0 0 0 0 0 0 0 0 0 0 0 0
3 6 7 10 10 19 21 11 7 1 0 0 0 1 5 5
4 3 1 2 4 7 8 9 9 10 11 16 35 11 12 13
13 13 10 9 10 11 10 9 10 9 8 7 7 6 4 8
8 10 9 7 7 6 8 9 10 10 9 4 5 8 6 5
7 7 4 24 52 51 50 50 50 50 51 50 50 49 41 40
16 15 16 18 19 21 22 22 23 24 25 28 33 33 32 32
33 32 33 31 17 3 5 4 5 7 7 7 8 6 5 6
5 4 5 1 0 0 0 0 0 0 0 0 0 0 0 1
0 5 9 11 11 8 30 22 8 6 1 2 1 2 5 7
6 5 7 9 11 11 11 12 12 13 12 37 29 14 14 11
11 10 10 10 11 11 11 10 10 9 8 7 8 7 4 7
9 9 11 7 8 7 8 12 10 9 9 5 5 8 6 4
6 8 4 6 44 51 50 50 50 50 50 50 50 50 42 40
10 10 18 19 19 20 21 22 23 24 25 29 34 33 33 32
33 32 33 21 1 3 5 5 5 6 7 6 6 6 5 6
4 4 4 1 0 0 0 0 0 0 0 0 0 0 0 0
2 4 9 11 11 17 48 29 4 5 7 8 7 6 8 10
11 12 12 12 12 12 11 12 12 14 16 60 16 14 14 13
12 10 11 11 13 11 10 10 10 8 9 9 8 6 5 8
9 9 8 10 7 8 8 8 9 9 8 4 4 9 5 3
6 7 4 4 21 50 50 50 49 49 50 50 50 49 42 39
10 13 15 19 19 20 21 22 23 23 25 28 33 34 33 33
33 33 30 4 2 4 4 5 4 6 7 7 5 4 3 5
6 6 5 1 2 1 1 1 0 0 0 0 0 0 0 1
3 5 6 9 11 13 44 55 9 8 8 9 9 9 10 10
11 12 13 12 13 15 15 14 15 14 22 42 12 13 14 12
12 9 12 12 13 11 11 10 10 10 9 10 9 6 6 8
8 9 10 9 9 7 7 7 10 8 6 4 5 8 3 3
5 7 5 5 6 41 50 49 50 49 50 50 50 49 43 38
9 13 15 16 18 20 21 22 23 23 25 28 33 33 34 34
33 32 13 0 2 5 3 3 3 5 6 6 6 6 4 3
4 6 5 4 5 3 3 3 3 1 1 0 0 0 1 3
4 5 7 9 6 8 11 62 34 11 12 12 12 11 10 11
11 12 12 13 12 11 11 10 11 11 37 18 13 12 13 12
11 11 12 11 13 11 11 10 9 9 8 8 8 6 6 8
9 10 9 10 9 7 8 7 8 10 7 3 3 7 1 3
6 8 4 6 5 19 49 49 49 49 49 49 49 49 43 39
8 13 16 17 20 21 23 25 26 26 28 31 33 33 34 34
33 27 1 1 4 4 3 2 2 5 5 6 6 6 5 6
5 4 6 5 6 5 5 5 5 4 4 4 3 3 4 5
6 7 7 8 8 8 7 13 55 7 8 8 8 8 8 8
9 9 11 10 11 11 11 12 13 14 42 12 12 13 13 11
10 10 13 11 11 11 11 11 10 10 8 8 7 6 6 9
10 9 9 9 8 8 6 7 8 9 8 4 5 8 1 1
6 7 4 7 6 5 41 50 49 48 49 48 49 49 43 38
12 17 19 21 23 26 27 28 30 30 31 32 33 33 33 34
33 11 0 1 5 5 4 2 2 4 5 6 7 6 6 5
5 5 5 4 5 6 5 5 6 6 6 5 6 5 7 7
7 9 8 9 10 10 9 9 37 28 8 8 8 9 10 8
10 10 11 10 10 10 12 13 14 25 40 11 14 14 13 10
10 11 13 12 12 10 10 10 9 9 10 8 7 6 7 7
9 10 10 8 8 8 7 6 8 7 8 5 4 6 0 1
7 6 5 7 6 4 19 49 48 48 48 49 49 49 44 38
15 17 20 24 23 27 29 30 31 31 31 32 32 33 33 34
28 1 0 1 4 5 5 2 1 4 6 6 7 8 7 7
6 5 5 4 6 6 6 5 6 7 7 7 8 7 7 7
8 8 9 9 10 9 9 10 10 40 10 10 9 10 10 10
11 11 11 10 10 12 12 12 13 49 19 13 14 14 11 8
10 12 13 12 12 11 10 10 10 10 8 9 8 6 7 9
9 10 9 8 8 8 8 5 7 6 6 5 6 5 0 2
7 4 6 7 6 4 4 41 48 48 48 48 48 48 45 38
10 9 12 23 18 23 28 29 31 31 31 32 32 33 32 33
11 0 0 2 4 5 4 3 1 2 6 6 7 8 6 5
6 5 5 5 6 6 5 5 6 5 7 6 7 7 7 9
8 8 9 10 9 10 9 9 10 19 39 9 10 9 10 10
11 11 10 10 12 13 15 14 13 50 12 13 15 14 10 9
11 12 12 12 11 11 9 9 9 8 8 8 8 7 9 8
9 9 9 8 7 8 7 5 5 6 5 7 5 4 0 3
5 2 5 6 5 3 2 18 48 47 48 48 48 48 44 37
3 3 7 24 21 21 25 27 28 30 30 31 31 32 32 28
1 0 0 2 4 4 4 3 1 1 4 6 7 7 6 6
4 5 6 6 6 6 6 6 7 6 7 7 7 7 7 8
8 9 9 9 9 9 9 9 10 9 47 22 9 11 11 10
11 10 10 12 13 13 11 11 25 29 14 14 13 11 9 9
11 13 13 12 10 10 9 9 10 9 8 8 8 7 7 9
9 8 8 8 7 8 8 4 4 4 5 5 6 3 0 5
5 1 5 5 5 4 2 2 40 47 47 47 48 47 45 38
