P2
128 120
159
37 36 36 36 35 35 34 34 34 34 32 32 32 31 32 30
30 30 29 29 28 27 27 26 26 25 25 24 24 24 23 23
22 22 21 21 20 20 20 20 19 19 19 20 20 24 24 24
24 20 18 12 23 24 21 20 21 20 20 19 19 17 18 17
15 15 15 18 20 20 20 21 22 22 22 22 23 23 23 23
24 24 25 24 25 25 25 26 26 26 27 27 27 27 28 30
30 29 30 31 31 31 31 31 32 32 33 33 33 34 34 33
35 33 34 34 35 35 36 35 34 35 35 35 35 34 33 33
36 36 36 35 35 34 34 34 33 33 33 32 32 31 31 30
30 30 29 28 27 27 27 26 26 25 25 24 25 23 23 22
22 21 21 21 20 21 20 20 19 19 18 19 20 24 24 24
25 20 19 10 18 23 21 20 21 21 20 19 20 17 18 17
14 15 16 19 21 21 21 21 22 22 22 23 23 23 23 24
24 24 25 25 25 25 26 26 26 27 26 28 28 29 29 30
30 30 31 31 30 31 31 32 32 32 33 33 33 33 33 34
34 34 35 35 34 35 34 34 33 33 34 34 34 34 35 36
36 36 36 35 35 34 34 33 34 33 33 32 31 32 30 31
30 30 28 28 28 27 27 26 26 26 25 24 24 23 23 23
22 22 21 21 21 21 20 20 19 19 19 19 20 24 25 25
24 19 14 6 18 23 22 21 21 21 20 20 21 18 18 18
15 16 17 21 21 22 22 22 22 22 23 22 23 24 24 23
25 24 25 24 25 25 26 26 26 26 28 27 28 28 29 30
29 31 30 31 32 32 32 31 32 33 33 34 34 33 33 32
32 31 32 32 32 33 35 35 35 36 34 35 35 35 35 35
36 36 35 35 35 34 35 34 34 33 32 32 31 32 31 31
30 30 29 29 28 27 27 27 26 26 25 24 24 24 23 23
22 22 21 21 21 21 20 20 20 19 19 20 21 25 25 26
24 20 15 14 21 24 23 22 22 21 21 20 21 18 19 19
16 18 17 21 22 22 22 22 22 23 23 24 24 24 24 24
25 24 25 25 26 26 27 26 27 27 28 28 28 28 29 31
29 30 31 32 32 32 33 31 29 31 31 31 31 32 33 33
33 34 35 35 35 34 34 35 34 35 34 35 35 35 36 35
37 35 36 35 35 35 34 34 33 33 33 32 32 31 31 31
30 30 29 28 28 28 27 26 27 26 25 25 24 24 23 23
22 22 21 21 21 20 21 20 20 19 19 20 21 26 25 25
25 20 16 17 20 25 23 23 23 22 22 21 22 19 19 19
17 19 18 22 22 23 23 22 23 23 23 23 24 24 24 25
25 25 25 26 27 26 26 26 27 27 28 28 29 29 30 30
30 30 29 29 29 29 30 33 33 32 33 34 34 34 34 34
33 33 35 34 34 34 34 35 34 36 34 35 36 35 35 35
36 36 35 35 34 34 34 33 33 33 33 32 31 31 31 31
30 29 29 28 29 27 27 27 26 26 26 25 24 24 23 24
23 22 23 22 21 21 20 20 19 20 20 20 22 26 25 25
25 20 16 18 20 25 23 23 23 21 22 21 22 20 19 19
18 19 19 22 23 22 23 23 24 23 24 24 24 24 25 25
25 25 26 26 26 27 27 27 27 28 27 28 28 27 27 27
29 30 31 31 32 32 32 33 34 33 33 33 34 34 33 33
34 33 34 35 34 34 34 34 34 35 34 36 35 35 36 35
36 36 35 35 35 34 35 33 34 33 33 33 32 31 31 31
31 30 29 29 28 28 28 27 27 26 25 25 25 25 25 24
23 23 22 22 22 21 21 21 20 20 20 20 22 27 26 26
26 21 18 20 19 25 24 23 23 22 22 21 22 21 21 20
18 21 20 23 23 23 24 24 24 24 24 25 25 25 25 25
26 26 27 27 26 27 27 26 26 27 27 27 29 30 31 31
31 31 31 32 33 32 34 34 34 34 34 34 34 34 34 33
33 34 34 35 35 34 35 35 34 35 34 35 36 35 36 35
36 35 36 35 35 34 34 34 34 34 33 33 33 31 31 31
31 30 30 29 29 28 28 27 26 26 26 26 26 25 24 24
24 22 23 23 22 22 22 21 21 20 21 21 23 27 27 27
26 21 18 22 20 25 24 24 24 24 23 22 22 21 20 20
18 21 20 23 24 24 24 24 25 25 25 26 25 25 26 25
25 26 26 27 27 27 28 29 28 29 29 30 30 30 30 31
31 31 32 32 32 33 34 33 35 34 34 34 34 35 34 34
34 34 35 35 35 35 35 35 35 35 35 35 36 36 36 36
36 36 36 35 34 34 34 34 34 33 33 33 33 32 31 31
31 30 30 29 29 29 28 27 28 27 26 25 26 25 25 24
24 23 23 22 22 22 22 21 21 21 21 22 23 27 28 27
27 21 18 23 19 26 25 25 25 24 23 23 24 22 21 21
18 22 21 24 24 24 25 25 25 25 24 25 25 25 26 26
26 26 27 28 28 28 29 29 30 30 29 30 30 30 31 32
32 32 32 33 33 33 33 34 36 34 34 34 34 35 35 35
34 34 35 35 35 36 36 34 36 36 35 36 35 35 36 36
36 36 36 36 35 34 34 34 34 34 33 33 32 32 31 31
30 30 30 29 28 29 28 28 28 26 27 26 25 25 25 25
24 23 24 23 22 22 22 21 21 21 21 22 25 28 28 28
27 21 18 25 19 26 26 25 25 24 23 24 23 22 22 21
19 23 21 24 25 25 24 25 25 26 26 26 26 26 27 27
27 27 28 28 28 29 29 30 29 30 30 30 31 31 32 32
33 32 33 33 34 33 34 34 35 34 34 34 35 35 35 35
34 34 35 35 35 35 36 35 36 36 35 35 35 36 36 36
37 36 35 36 35 35 34 34 34 33 33 33 32 32 32 32
31 30 30 29 29 29 28 28 28 27 27 26 26 25 25 25
25 24 24 23 23 23 23 22 22 22 23 23 26 29 29 28
28 21 19 25 19 26 26 25 25 25 24 25 24 23 23 23
18 24 20 25 25 25 25 26 27 26 27 27 27 27 28 27
27 28 29 29 29 30 30 31 30 30 31 30 30 31 32 32
32 32 34 34 34 34 34 34 36 34 34 35 35 35 35 35
35 36 35 35 35 35 36 35 35 35 35 36 36 36 36 36
37 36 36 35 36 35 35 35 34 34 34 33 33 33 32 32
31 30 30 30 29 29 28 28 28 27 27 26 26 25 26 25
25 24 24 24 23 23 23 23 22 22 23 23 26 30 29 29
28 21 20 26 19 27 26 26 26 25 24 25 25 23 23 22
19 24 23 26 26 26 27 27 27 26 27 28 28 27 28 28
28 29 29 29 29 30 30 31 30 30 31 31 32 32 32 32
33 33 33 33 34 34 35 34 36 35 35 35 35 35 36 35
35 35 35 36 35 35 36 36 36 37 36 36 37 37 36 37
36 36 35 35 35 35 34 34 34 33 33 33 33 33 32 32
31 31 30 30 29 29 29 28 28 28 27 27 27 26 25 25
25 25 25 24 24 22 23 23 23 23 23 24 26 29 28 29
29 21 21 28 20 27 26 26 26 25 25 26 25 23 24 23
20 25 24 26 26 27 26 26 27 26 27 27 27 28 28 28
28 28 29 29 30 30 30 31 30 31 32 32 32 33 32 32
32 33 33 34 34 34 34 34 35 34 35 34 35 35 35 35
35 35 35 36 35 37 36 36 36 36 36 36 36 36 35 34
37 36 36 36 35 35 34 34 34 34 34 33 33 32 32 32
32 31 30 30 29 29 29 28 29 27 28 27 26 27 26 26
25 25 25 24 24 24 23 23 23 22 24 24 27 29 29 29
28 23 21 29 20 27 26 27 26 26 25 26 24 24 24 23
20 25 24 27 26 27 27 27 28 27 27 27 28 28 28 29
28 28 29 30 30 29 30 31 31 31 32 31 32 32 33 33
34 34 34 34 34 35 35 35 36 35 35 35 36 35 36 36
35 35 36 35 35 35 35 35 36 35 36 36 36 37 37 37
36 37 36 36 35 34 35 34 34 34 33 33 32 32 32 32
31 31 30 30 30 29 29 28 29 28 27 27 27 27 26 26
26 25 25 25 24 24 23 23 23 23 23 25 28 30 30 30
29 22 22 29 19 27 27 27 27 26 25 25 25 24 24 24
20 26 25 27 27 28 28 28 29 28 28 28 29 28 28 29
29 29 30 30 30 30 30 31 31 31 32 32 33 32 32 33
34 34 34 35 35 35 34 35 36 35 35 35 34 34 34 34
34 34 35 36 37 36 37 36 36 36 35 36 36 35 36 36
36 36 36 35 35 35 34 34 34 34 34 33 33 33 32 32
32 31 31 30 29 30 29 29 28 28 28 27 27 27 26 26
26 25 24 25 24 25 24 24 23 24 24 25 28 30 31 30
29 22 22 30 20 28 28 27 27 27 26 24 25 24 24 24
20 26 25 27 28 28 28 28 29 29 29 29 29 29 29 28
29 30 30 30 31 31 31 32 32 31 32 32 33 33 33 34
33 34 33 33 33 33 33 32 33 34 34 34 35 35 36 36
37 34 36 36 35 36 36 36 36 36 36 36 35 36 36 36
37 35 36 35 35 35 34 34 34 33 34 33 32 33 32 32
32 31 31 30 30 30 29 28 28 28 28 27 27 26 26 26
26 25 24 25 25 24 24 23 24 24 24 25 29 31 31 30
29 21 23 31 20 28 28 28 27 26 26 24 26 25 25 24
20 26 25 28 27 28 28 28 29 28 29 29 29 29 29 29
29 30 31 31 30 32 32 32 31 32 32 32 33 32 32 33
32 33 33 34 35 35 36 35 35 35 35 35 35 35 35 35
38 34 35 36 35 36 36 35 36 36 36 36 36 36 36 36
35 36 36 35 35 34 34 34 34 34 34 33 33 32 33 31
32 31 30 30 30 29 29 29 29 28 28 27 27 27 27 26
26 26 25 25 25 24 24 24 24 24 24 25 29 31 31 30
28 20 23 31 20 28 28 28 27 27 26 25 26 25 25 24
20 26 25 28 28 28 28 28 29 29 29 29 29 29 29 30
30 30 31 31 31 31 31 30 30 31 32 33 33 33 34 34
34 34 34 35 35 35 35 35 35 35 35 35 35 36 36 35
37 35 35 35 35 35 35 35 35 36 36 36 36 36 36 36
21 36 35 35 35 35 34 35 35 33 34 33 33 32 32 32
32 31 31 30 31 29 29 29 29 28 28 28 27 27 27 26
26 26 26 25 25 25 24 24 24 24 25 26 30 32 31 31
29 21 24 32 22 28 28 28 28 27 27 25 26 25 25 25
20 26 25 28 29 29 29 29 29 29 29 29 29 29 29 30
30 30 31 31 31 31 32 31 31 32 32 32 32 33 33 34
34 35 35 36 35 35 35 35 36 35 36 35 35 35 35 36
36 35 35 35 34 35 35 36 35 36 37 36 36 35 35 35
21 36 36 35 34 35 35 34 34 34 34 33 33 33 32 32
32 31 31 30 30 30 29 29 28 29 28 28 28 27 27 26
26 25 25 25 25 25 24 24 24 24 25 26 29 31 31 31
28 21 25 33 22 27 29 28 28 28 27 25 26 26 25 25
21 26 26 28 28 28 28 29 28 28 28 28 29 29 29 30
31 31 31 31 31 31 31 33 31 32 33 33 33 33 33 35
34 35 35 35 35 35 36 35 35 35 35 35 35 35 35 36
37 35 35 35 35 35 36 35 36 36 35 35 36 35 35 34
20 36 35 35 35 34 34 33 32 34 34 33 32 33 33 32
32 31 31 31 30 30 29 30 29 29 28 28 28 27 27 26
26 26 26 25 25 24 24 24 24 25 26 26 30 31 31 31
28 21 26 33 23 26 29 28 28 29 27 28 26 25 26 24
21 26 25 27 28 28 28 28 29 29 30 29 30 29 30 30
31 30 31 31 31 32 32 33 33 33 33 33 33 33 34 35
35 35 34 35 36 35 36 36 35 35 35 35 35 36 35 35
37 35 34 35 35 35 36 35 36 35 35 34 35 36 36 35
22 36 36 36 35 35 34 36 38 36 34 34 34 33 33 33
32 32 31 31 30 30 30 30 29 28 29 29 28 28 27 27
27 26 26 26 25 25 25 25 25 25 26 27 31 32 32 31
28 21 27 35 24 28 30 31 30 31 30 30 29 28 27 26
22 28 28 29 29 29 29 30 30 30 30 30 31 30 31 31
31 31 32 32 32 32 32 33 33 33 33 34 34 34 35 35
36 35 35 35 35 36 36 36 35 35 35 36 36 35 35 35
36 36 36 35 36 35 36 36 35 35 36 36 36 35 36 36
27 37 36 36 36 36 35 44 46 43 43 38 36 34 32 32
32 32 32 31 31 31 31 30 30 31 38 36 31 29 28 27
27 27 27 27 26 25 25 25 26 26 26 27 32 32 31 31
27 21 28 35 27 30 32 30 32 32 30 28 27 27 28 28
24 29 29 30 30 30 30 30 30 30 31 31 31 32 32 32
32 32 32 32 32 33 33 33 33 34 34 35 35 35 35 36
35 36 36 36 36 36 37 36 37 36 36 35 36 36 36 36
37 36 36 36 37 35 36 36 36 36 37 36 36 37 37 36
32 40 38 38 36 36 35 46 48 45 44 42 40 39 39 34
34 33 33 32 32 32 31 31 31 36 45 43 40 37 34 31
28 27 27 28 27 27 27 26 26 26 27 28 33 33 33 33
28 23 30 36 30 32 34 33 33 29 25 22 27 26 23 28
29 28 30 31 31 31 31 31 31 31 31 32 32 32 33 34
33 33 33 34 34 34 34 34 35 35 36 35 36 36 36 37
36 36 37 37 38 37 37 36 37 36 37 37 37 37 37 37
38 37 37 37 38 37 37 37 38 38 37 37 37 38 37 36
36 44 41 40 39 38 37 46 49 48 43 44 44 45 48 40
40 38 35 34 32 32 32 32 32 37 44 42 39 40 40 38
32 29 28 28 28 28 27 27 28 27 28 29 34 34 34 34
29 23 32 37 31 33 30 26 21 19 31 33 34 37 34 31
32 30 26 31 32 32 32 33 32 32 33 32 33 34 34 34
34 34 35 34 34 35 35 35 36 36 37 37 37 37 37 38
38 38 38 38 38 38 38 38 38 38 38 38 39 38 38 38
39 39 38 39 39 38 38 38 37 36 36 36 37 36 36 37
37 46 36 38 43 44 44 38 14 29 42 46 49 49 49 40
39 43 44 40 35 34 33 32 32 36 35 40 39 40 40 39
33 29 29 29 29 28 28 27 28 28 29 29 34 34 35 33
29 23 33 36 31 30 24 13 8 20 27 28 30 33 27 27
26 29 23 19 29 33 33 33 33 32 33 33 34 33 34 35
35 35 35 35 35 35 36 36 36 37 36 37 37 37 38 38
38 38 38 39 39 39 39 39 38 39 39 38 39 38 38 37
36 33 34 36 36 37 37 38 38 40 39 39 39 39 39 38
36 45 42 38 33 45 49 34 0 0 11 26 33 40 46 32
2 12 24 36 41 39 41 38 34 35 18 15 19 27 35 39
34 30 30 29 29 29 29 28 28 28 29 29 34 34 35 34
28 24 31 34 32 22 10 2 7 8 8 6 5 10 13 19
19 20 21 16 21 32 33 33 33 33 34 33 34 34 35 35
35 35 35 35 36 36 36 36 36 38 37 37 38 38 39 38
38 38 38 38 38 38 37 37 36 35 37 36 37 37 38 38
39 39 39 39 38 38 35 38 38 39 37 35 38 38 36 36
6 16 29 43 46 48 51 34 0 0 5 13 15 13 26 30
0 0 0 1 8 18 31 38 39 35 17 7 12 9 5 9
34 30 30 29 29 29 28 28 28 28 29 30 35 35 34 32
20 23 19 28 24 14 10 12 34 49 57 52 38 26 19 10
13 16 17 18 14 27 33 34 33 33 33 34 34 34 34 35
35 36 36 35 36 36 36 36 36 37 36 36 36 36 37 36
37 37 37 38 37 38 38 39 39 38 39 39 39 38 37 37
38 38 38 38 38 37 38 38 37 39 37 38 37 36 37 37
0 0 0 2 13 28 42 32 0 0 3 6 11 12 27 27
0 0 0 0 0 0 0 4 22 36 14 1 6 7 3 2
34 30 30 30 29 29 28 29 29 29 30 31 34 35 35 31
19 22 19 23 23 30 58 85 96 103 109 110 105 96 54 12
5 6 5 12 8 21 34 34 33 34 33 34 35 34 34 34
35 34 33 34 35 36 37 36 36 37 36 37 37 37 37 37
37 37 37 38 38 37 37 37 39 38 37 37 38 38 37 38
38 37 37 37 37 37 37 37 37 38 38 37 38 36 38 38
0 0 0 0 0 0 1 24 0 0 1 1 2 4 25 27
2 0 0 0 0 0 0 0 16 36 10 0 0 4 2 3
35 30 29 30 29 29 29 29 29 28 30 31 36 36 35 35
28 20 21 30 66 98 107 111 112 118 120 122 121 117 108 81
27 5 3 6 5 16 32 34 33 33 33 33 33 33 34 34
34 35 36 36 36 35 36 38 36 36 36 37 37 37 37 37
37 37 37 37 37 37 37 37 39 37 37 38 37 38 38 38
37 37 37 38 37 37 37 38 38 38 37 37 37 37 37 38
0 0 0 0 0 0 0 19 0 0 0 0 0 3 25 22
0 0 0 0 0 0 0 0 16 32 1 0 0 1 0 4
37 30 30 30 30 29 29 29 29 29 31 32 37 36 36 35
25 20 34 74 102 113 114 117 118 124 128 130 128 125 120 116
97 45 8 3 4 13 28 33 34 33 34 34 34 34 34 34
34 35 36 35 36 35 36 38 36 37 36 37 37 37 38 37
37 36 37 37 38 37 37 37 39 37 38 38 38 38 38 38
38 37 37 37 38 37 38 36 37 38 38 37 36 37 38 38
0 0 0 0 0 0 0 16 0 0 0 0 0 2 34 22
0 0 0 2 12 2 0 0 16 30 0 0 0 0 1 6
39 30 31 30 29 30 29 29 29 30 31 32 36 36 36 34
22 31 69 89 103 109 111 114 118 124 126 125 125 123 121 120
118 101 51 10 4 11 20 34 34 34 33 34 33 33 34 34
35 35 35 35 35 36 36 38 36 37 37 36 37 37 37 36
36 36 36 37 37 37 37 37 39 38 38 37 38 38 37 37
38 37 37 37 38 37 38 38 36 38 37 37 37 37 37 37
0 1 0 11 6 0 0 14 0 0 0 0 0 1 33 22
0 0 0 4 15 10 4 0 16 28 0 0 0 0 0 6
39 30 30 31 30 30 29 29 30 30 31 32 36 37 34 32
25 61 83 91 101 109 113 114 117 117 116 115 113 114 115 117
118 117 100 39 9 17 11 31 35 35 35 34 34 34 34 35
35 35 35 36 35 35 35 38 36 36 37 36 36 37 37 36
37 37 36 36 37 37 37 38 39 37 37 37 38 38 37 37
37 38 38 37 37 37 38 37 37 37 38 37 38 37 36 37
1 12 5 4 2 0 0 13 0 2 0 0 0 4 36 21
0 0 0 8 15 14 13 4 17 26 0 0 0 0 0 6
38 31 30 30 30 29 30 30 30 30 31 32 32 25 23 20
24 37 45 57 84 117 127 133 133 128 124 121 124 129 127 121
118 113 111 76 23 29 15 21 35 33 34 34 34 34 35 35
35 35 36 35 36 35 36 37 37 36 36 37 37 36 37 37
37 37 37 38 36 36 37 37 38 38 37 37 37 37 37 37
38 38 37 37 36 38 38 37 37 37 38 38 38 38 37 37
6 4 0 3 3 0 1 12 0 0 0 0 0 6 36 20
0 1 0 7 14 12 12 4 19 26 0 0 0 0 0 5
39 30 31 30 30 30 30 30 30 31 28 14 14 14 26 50
19 12 10 13 18 25 60 105 140 139 133 137 139 132 131 136
128 117 106 103 52 36 26 12 32 34 34 34 34 35 35 35
35 35 36 35 36 36 35 37 37 37 37 37 37 36 37 36
37 37 37 37 37 37 37 37 38 38 37 37 37 36 37 37
37 37 37 38 37 36 37 38 39 39 38 38 37 38 37 37
1 0 0 0 1 0 4 20 2 0 2 0 0 18 41 23
1 1 2 0 5 12 13 2 20 33 11 2 0 0 0 6
40 31 31 31 31 31 30 30 30 31 25 8 25 4 89 110
2 0 0 0 0 0 7 24 98 131 129 141 128 70 44 24
14 14 15 21 30 21 29 15 29 34 34 35 34 34 35 35
35 36 37 36 36 37 37 38 37 37 38 37 38 37 38 38
37 38 38 37 38 38 38 38 39 38 37 37 37 38 38 38
38 38 38 37 38 39 40 39 39 39 38 39 38 39 39 38
0 0 0 0 0 0 7 51 45 30 25 16 4 0 44 46
38 30 21 9 1 2 9 1 20 44 43 37 30 20 13 17
39 31 31 31 31 31 30 31 31 31 21 8 6 21 136 31
0 0 0 0 2 32 20 2 22 66 77 89 33 23 5 1
0 0 0 1 4 6 8 11 20 33 35 36 36 35 35 35
36 36 36 36 37 37 38 38 36 37 38 37 38 38 38 38
39 38 38 38 38 38 38 39 38 38 38 38 38 37 38 38
38 39 39 38 38 39 39 39 39 37 36 37 37 37 37 36
0 0 0 0 0 0 10 57 49 44 47 48 48 42 56 31
18 23 30 35 34 27 20 12 28 45 44 40 41 43 47 48
40 31 31 31 31 31 30 31 31 32 19 3 0 58 94 0
0 0 0 3 70 120 51 1 16 19 22 17 9 0 0 0
0 0 0 0 0 2 10 9 9 10 32 35 35 36 36 36
36 36 37 37 38 37 37 38 38 38 38 38 38 38 39 39
39 39 39 38 39 39 38 39 38 39 38 39 39 38 38 38
39 38 39 40 39 39 39 39 40 39 39 39 40 39 38 38
35 24 12 2 0 0 12 55 40 48 52 54 56 46 46 26
14 15 15 15 17 19 26 35 46 39 37 40 41 47 50 51
41 30 31 31 31 31 31 31 31 31 14 2 0 52 23 0
0 0 3 59 58 7 0 3 23 77 90 33 6 0 0 0
21 33 0 0 0 0 0 1 10 6 31 35 35 36 35 36
36 37 37 37 38 38 38 39 38 38 38 38 39 39 39 37
38 38 38 37 38 37 38 38 40 39 40 39 40 39 39 40
39 39 40 40 40 40 39 39 39 38 39 39 39 38 37 38
51 52 51 45 35 23 28 42 37 47 51 54 56 48 39 26
15 15 14 14 13 12 11 10 10 13 17 25 31 37 38 41
38 31 32 32 31 31 31 30 31 31 9 1 0 61 5 0
0 0 6 21 0 0 0 9 69 114 121 77 5 0 0 20
77 43 0 0 0 0 0 0 2 3 30 35 36 35 36 36
36 37 37 37 37 37 36 38 37 37 39 38 39 39 39 38
39 39 39 39 39 39 39 40 40 39 39 39 39 39 39 39
39 39 40 40 40 39 39 39 39 38 38 38 39 39 38 38
52 53 52 51 51 51 53 34 27 42 48 51 54 49 42 29
16 16 14 12 10 10 9 9 9 9 10 9 16 33 30 25
28 31 32 31 31 31 31 30 31 28 7 1 4 56 0 0
0 0 0 0 0 0 4 80 126 124 122 102 10 0 7 66
27 0 0 0 0 0 0 1 2 4 28 36 36 36 36 36
37 37 37 37 38 38 38 37 38 38 38 38 39 39 39 40
39 39 38 39 39 38 38 39 39 38 38 39 38 38 37 38
39 40 40 40 40 39 39 39 39 39 39 39 40 40 39 39
48 51 51 52 52 53 54 19 0 3 10 20 31 35 40 32
17 14 12 8 10 10 10 11 10 11 12 11 21 27 19 30
29 32 32 32 31 31 31 31 31 25 6 0 0 7 0 0
11 4 0 0 32 59 47 123 149 148 147 126 34 1 4 15
0 0 0 0 0 0 1 1 3 4 25 37 37 36 36 38
36 38 38 37 38 37 37 38 38 37 38 39 39 40 39 41
39 39 40 39 38 38 39 39 38 39 38 40 39 38 39 39
39 40 40 40 40 40 41 40 41 40 40 40 41 41 39 40
37 39 40 43 47 51 51 13 0 0 0 0 6 14 33 31
14 13 5 0 0 1 10 13 14 11 14 15 25 30 12 29
35 33 32 26 30 31 31 31 30 21 2 3 0 0 1 10
78 5 0 16 57 8 72 116 149 148 148 141 68 3 0 0
0 0 0 0 0 0 3 0 7 11 18 38 36 36 36 38
37 37 37 37 37 38 38 37 39 39 39 39 39 39 39 40
38 39 40 39 39 39 39 39 39 39 39 38 39 38 39 39
39 41 41 41 40 41 41 40 40 39 38 37 38 39 40 39
22 26 34 35 32 43 46 9 0 0 0 1 0 7 37 29
13 11 6 0 0 0 3 6 5 1 9 12 22 39 42 39
41 41 36 7 19 32 31 31 29 13 0 1 3 0 0 10
27 1 0 0 3 12 90 100 146 147 141 145 103 9 2 0
20 80 5 1 1 2 5 1 11 17 7 36 36 35 36 38
37 37 37 36 37 37 38 38 38 38 39 39 39 39 39 40
39 39 37 38 38 38 38 37 38 37 37 39 37 38 36 39
40 39 37 39 38 40 42 39 36 36 37 37 38 37 36 34
27 25 31 33 31 45 47 6 0 0 0 1 1 0 38 25
13 8 3 0 0 4 0 0 0 0 0 1 17 41 34 27
28 30 36 37 34 32 32 31 26 6 0 3 29 11 16 12
9 7 8 7 7 34 95 34 136 137 41 129 127 37 12 15
79 16 2 3 3 9 12 7 16 16 5 31 35 34 35 37
36 36 37 37 37 38 37 37 38 39 39 38 38 39 39 39
37 39 39 38 37 38 39 38 38 37 37 38 35 35 33 33
31 30 28 28 26 24 24 22 21 19 18 17 17 16 14 14
14 24 34 37 41 46 45 4 0 0 0 0 0 0 43 11
3 0 0 0 2 11 4 1 0 0 0 0 17 42 35 24
26 28 28 30 33 31 32 32 24 5 0 17 65 73 51 21
12 8 7 16 46 88 84 19 120 130 32 89 142 97 16 20
12 9 11 7 9 17 17 16 21 16 6 28 35 35 35 36
37 37 37 38 39 40 39 39 39 38 38 37 35 35 35 33
32 31 38 33 26 25 24 22 21 20 19 19 18 18 18 17
16 16 16 15 15 15 16 16 16 17 18 17 18 18 18 19
0 0 1 6 15 23 35 3 0 0 0 0 0 2 46 9
0 0 0 0 0 8 13 3 0 0 0 0 20 43 34 14
31 33 27 29 32 32 32 31 22 4 0 28 69 78 72 66
62 60 66 77 85 103 91 66 129 146 85 65 146 128 92 36
30 24 23 22 22 34 30 50 28 16 11 26 36 35 35 34
32 32 31 29 28 27 26 24 23 22 20 21 19 19 19 19
19 19 34 35 13 17 19 20 19 19 20 20 21 21 21 21
22 22 23 23 22 22 24 24 24 24 24 24 24 24 24 25
0 0 0 0 0 0 19 2 0 0 0 0 0 6 45 5
0 0 0 0 3 8 18 10 7 0 0 0 22 44 35 11
24 21 22 30 33 32 32 32 25 3 2 34 72 78 81 88
89 88 92 96 104 103 108 100 141 149 143 107 144 136 131 127
105 73 44 34 64 74 98 103 41 14 8 16 22 21 20 19
20 19 20 20 20 21 20 21 21 22 22 23 24 23 23 24
24 24 27 25 17 23 25 26 26 26 26 26 27 28 27 28
28 29 29 28 29 29 30 29 29 30 29 29 29 29 28 30
0 0 0 0 0 0 18 0 0 0 6 0 0 5 44 2
0 0 0 0 15 17 19 14 11 0 0 0 23 45 35 19
21 21 18 29 31 32 33 33 25 2 7 38 73 85 95 103
108 121 127 124 112 94 76 99 147 149 139 131 129 137 147 145
141 136 130 117 110 109 111 102 59 9 7 18 23 22 24 24
24 25 25 25 27 28 27 26 28 27 29 28 29 30 29 31
30 29 34 32 21 29 31 31 31 32 32 32 32 32 33 32
32 32 33 33 33 33 33 33 33 33 33 33 33 33 33 32
0 1 8 2 0 0 18 0 0 7 18 8 0 8 43 0
0 0 0 0 13 18 21 5 5 0 0 1 23 45 36 25
22 13 18 28 32 33 33 33 27 1 11 50 76 92 101 108
120 133 144 137 108 92 83 112 148 147 136 120 126 143 149 147
148 147 145 139 130 117 107 103 67 16 9 25 29 29 29 30
31 32 32 32 33 33 34 32 33 33 34 34 34 34 35 34
34 31 28 27 25 33 34 34 34 34 35 35 35 35 35 34
34 34 36 35 36 36 36 36 36 36 37 37 37 37 36 36
0 7 21 8 2 0 18 0 0 16 18 11 1 10 38 0
0 0 0 0 0 6 14 0 0 0 1 0 21 45 37 27
15 4 7 27 32 33 33 33 29 3 16 60 79 95 104 112
127 138 132 107 101 90 98 132 145 140 139 122 127 134 146 148
148 148 148 146 144 132 113 105 71 19 7 30 33 34 33 34
34 35 35 34 36 36 36 35 35 36 36 36 36 36 36 36
35 30 9 8 22 35 37 37 37 37 37 37 38 37 37 37
36 36 35 36 37 37 37 37 37 37 38 38 36 37 37 36
0 10 21 9 5 0 26 26 20 25 20 18 4 12 35 0
4 0 0 0 0 7 15 0 0 0 0 0 20 46 35 17
8 5 7 26 32 33 33 34 30 4 20 69 80 97 103 114
128 122 100 103 101 107 118 138 138 138 146 135 120 124 132 146
148 148 148 148 147 138 118 107 78 16 7 34 35 34 34 35
37 35 36 37 37 38 37 38 37 37 38 38 38 34 32 29
32 28 9 4 19 36 38 39 38 38 37 38 37 37 38 38
38 37 38 37 37 37 38 37 38 38 37 38 38 38 38 38
0 3 3 1 1 0 31 44 45 49 46 46 43 44 34 0
0 0 0 0 0 7 15 0 0 0 0 0 19 46 29 9
9 0 5 26 32 34 34 33 31 6 33 74 82 97 104 116
118 101 110 113 115 116 127 134 137 145 148 147 141 128 125 131
147 148 148 148 147 140 122 111 89 17 4 33 37 36 37 37
36 37 37 37 37 38 38 38 38 37 38 39 31 2 1 1
20 21 10 5 20 36 38 39 38 39 38 38 38 38 39 38
38 38 38 38 38 37 38 38 38 39 38 38 38 37 37 38
7 2 1 0 0 0 32 46 47 49 47 49 54 56 39 8
8 5 0 0 0 11 16 0 2 1 0 0 15 47 23 6
7 0 16 27 32 33 35 34 30 6 42 75 83 96 106 114
105 117 126 121 110 110 112 118 124 130 137 148 148 147 136 131
138 148 148 148 147 141 122 113 95 29 3 30 37 37 36 37
38 38 38 37 38 39 39 39 39 39 38 39 37 27 28 30
33 25 0 0 20 36 38 39 38 38 39 39 38 38 39 39
38 38 38 38 38 38 38 37 38 39 38 38 38 37 37 38
1 1 0 0 0 0 32 40 45 46 45 50 58 58 48 34
34 31 23 17 15 18 17 7 5 2 0 0 10 44 19 6
1 2 10 26 31 34 34 35 27 5 49 74 82 94 105 107
111 135 125 96 92 111 135 143 146 146 142 134 139 148 148 144
135 145 148 148 147 138 119 111 96 38 7 36 37 37 36 37
38 37 38 38 38 39 39 40 38 39 39 39 39 38 37 36
35 26 1 2 21 36 37 38 38 38 38 38 38 38 38 38
38 38 38 37 38 38 38 37 38 38 37 38 38 38 37 37
0 0 1 0 0 0 38 37 40 41 41 42 41 41 43 38
39 39 37 36 36 34 31 27 22 21 18 16 22 41 24 12
9 13 2 20 32 34 34 35 30 19 70 72 80 93 101 105
131 147 106 90 106 127 130 124 125 137 148 147 130 134 147 149
146 142 149 147 145 135 116 109 98 48 9 33 39 37 38 38
38 37 38 39 38 39 39 39 39 39 40 39 38 38 37 36
35 29 5 1 26 36 39 39 39 39 38 39 38 39 38 39
38 39 40 37 38 39 38 37 38 38 38 38 39 38 39 37
17 10 4 1 0 0 40 39 37 38 39 39 37 34 36 40
39 41 38 37 38 38 37 35 32 29 25 24 28 42 34 25
22 17 11 16 32 34 35 50 92 98 84 67 79 90 99 106
138 128 98 101 113 130 128 128 130 139 148 149 147 132 129 147
148 142 146 147 141 130 113 108 98 59 11 31 37 37 37 38
37 38 38 38 38 38 39 38 38 38 38 39 38 38 38 35
34 29 11 7 29 37 39 39 39 38 38 38 37 38 37 38
38 37 38 37 37 38 37 38 38 39 38 38 37 37 37 37
48 49 42 41 38 29 48 42 40 39 39 39 40 41 43 40
42 44 49 45 39 38 38 37 44 44 39 35 35 44 48 46
44 39 33 27 32 33 36 68 74 101 86 63 76 88 94 107
122 111 101 109 123 135 134 130 138 145 148 149 149 146 138 143
148 145 144 142 139 130 112 107 95 81 12 36 38 37 37 38
38 37 38 37 38 37 39 38 38 38 39 38 38 38 38 35
33 28 25 23 33 37 38 39 38 38 38 37 37 37 38 38
37 38 38 37 37 38 37 37 37 38 38 38 37 38 37 37
59 57 56 55 57 56 55 45 42 41 41 42 44 46 49 42
44 46 54 49 40 35 37 39 50 47 45 43 42 39 35 34
37 39 41 38 32 34 43 85 93 109 87 62 73 83 92 103
106 102 105 115 126 130 123 118 126 140 149 148 148 147 144 144
148 147 138 136 131 123 111 105 95 107 86 78 38 37 38 37
38 37 38 37 37 37 37 38 38 37 38 38 38 37 38 35
32 30 30 31 36 38 38 38 38 37 37 37 37 38 37 38
37 38 37 37 37 38 38 37 36 38 38 37 37 37 37 36
51 53 55 57 59 58 58 37 33 32 33 36 41 49 53 44
44 46 49 44 40 37 31 37 50 49 45 43 43 40 34 25
23 22 22 26 33 35 58 96 98 109 94 62 73 82 91 95
95 96 103 105 108 109 119 131 135 134 142 149 148 146 145 145
147 147 138 130 126 120 109 100 93 117 124 96 65 36 37 37
37 38 37 37 37 37 37 38 38 38 38 39 38 37 37 36
35 33 32 37 38 37 38 38 38 38 38 38 37 38 38 37
38 37 37 37 37 37 36 37 37 37 38 36 38 37 37 36
29 29 30 33 37 41 47 20 3 5 1 4 9 20 47 44
43 30 28 37 37 35 34 31 37 32 35 41 44 42 40 32
29 27 27 29 33 34 74 109 100 108 88 62 71 79 84 93
88 93 91 89 99 119 137 145 144 135 129 139 144 142 142 142
146 145 136 126 119 117 106 97 95 123 128 106 81 37 37 38
38 38 38 37 37 37 37 38 38 38 38 38 37 36 36 36
34 34 35 38 38 38 38 38 38 38 37 38 38 38 38 38
38 38 38 38 37 37 38 37 37 37 37 36 37 36 37 36
38 37 35 32 31 30 32 16 2 0 0 0 0 1 40 44
30 2 1 5 10 12 28 34 22 4 0 4 13 20 33 37
32 32 34 33 35 35 77 105 116 113 98 67 70 81 89 86
83 90 86 87 108 133 147 149 148 142 130 127 132 139 144 145
142 140 135 128 118 114 101 94 101 122 126 117 104 36 38 37
38 37 37 37 38 37 37 38 38 38 38 37 36 36 37 35
34 34 36 36 36 36 36 36 37 37 38 37 37 37 37 37
36 38 38 37 37 37 37 37 36 37 36 30 35 36 35 35
41 41 40 40 39 38 38 15 4 0 0 0 0 12 43 40
10 0 0 0 2 8 32 36 20 0 0 0 3 12 29 30
31 33 39 41 44 42 69 100 119 118 106 82 69 78 90 79
79 88 87 92 113 136 149 148 148 144 137 124 122 133 139 137
137 138 136 125 120 110 98 94 109 110 126 116 123 41 37 37
38 36 36 36 37 37 37 36 36 37 37 37 37 37 37 37
35 37 38 37 37 37 37 37 38 37 37 37 36 36 36 38
38 38 38 37 37 37 37 37 37 36 37 37 36 36 34 34
42 42 40 41 41 42 42 15 5 1 0 0 0 13 43 33
1 0 0 0 0 2 35 36 21 0 0 0 0 11 28 7
2 7 10 14 28 43 59 102 101 105 110 94 63 73 83 74
76 83 88 98 110 131 145 148 144 145 145 133 124 133 134 133
135 138 139 124 116 108 98 92 122 125 139 115 134 54 37 37
36 36 36 36 36 37 37 36 37 37 38 37 36 37 36 36
36 37 38 37 37 37 38 38 38 37 37 36 37 36 37 36
37 38 38 37 37 36 36 36 36 36 36 35 36 35 34 34
14 20 27 32 38 42 45 13 1 0 0 2 6 1 40 25
0 0 0 0 0 1 36 35 19 0 0 0 0 9 29 5
2 10 4 0 16 45 43 91 96 113 113 102 59 66 76 71
74 75 83 96 105 124 131 136 137 140 140 134 130 130 133 130
132 141 134 123 113 106 93 104 136 141 144 119 122 54 38 37
36 36 37 36 37 37 37 37 37 37 37 37 37 37 37 37
37 38 38 38 36 38 37 38 37 37 38 37 38 36 37 37
37 37 38 37 37 37 37 36 37 36 36 35 36 34 34 34
33 29 24 18 6 23 50 20 1 0 0 1 7 1 40 22
0 0 0 0 0 3 38 33 17 0 0 0 0 7 31 5
4 12 9 0 16 44 36 61 93 110 111 102 56 58 63 68
65 66 72 85 100 112 117 114 119 124 124 128 126 128 125 126
128 135 134 118 111 105 92 125 140 126 122 120 113 43 38 37
37 37 36 36 37 37 37 36 37 37 37 36 37 36 37 38
37 38 38 38 37 37 38 37 38 37 37 37 37 36 37 37
37 36 38 38 37 37 37 37 36 36 37 35 34 33 33 33
39 38 38 37 14 19 51 25 6 0 0 4 5 0 39 17
0 0 0 0 0 4 39 33 13 0 0 0 0 1 31 5
2 4 1 0 17 45 35 49 86 100 101 55 43 54 53 56
55 54 57 67 81 93 98 100 103 110 116 119 116 117 119 116
124 133 128 114 107 100 93 141 138 128 111 111 84 36 37 36
36 36 35 36 36 37 37 37 37 37 36 36 37 36 37 38
38 38 37 37 38 37 38 37 38 37 37 37 38 37 37 37
38 37 37 37 37 36 37 37 36 36 36 34 33 33 33 32
39 38 38 38 14 18 51 14 0 0 0 1 6 2 41 16
0 0 0 0 0 2 39 32 17 1 0 0 0 1 33 5
5 9 6 0 18 44 34 33 58 64 44 8 48 51 52 51
45 49 49 48 53 63 75 75 80 90 99 105 104 106 109 112
121 125 118 109 103 92 89 126 143 132 118 100 36 23 23 22
22 21 24 29 33 36 37 37 34 21 23 22 22 22 24 31
39 38 38 37 39 38 38 38 38 39 38 37 37 38 38 37
38 38 37 37 37 37 37 35 36 35 35 35 34 32 32 32
32 34 37 38 17 17 47 7 0 0 0 0 0 2 43 15
0 0 0 0 0 1 39 33 14 0 0 0 0 0 35 6
0 2 1 0 19 43 31 31 37 37 30 8 61 49 56 50
47 42 54 61 65 74 81 79 72 77 82 87 94 101 103 107
113 114 107 105 99 83 41 90 137 124 105 72 8 13 12 11
6 7 6 6 22 37 38 37 34 12 9 9 9 9 11 24
39 39 38 38 38 39 39 38 38 38 38 38 37 37 38 38
38 37 37 38 37 37 37 37 36 35 35 35 33 33 32 31
1 27 36 37 18 13 41 4 0 0 0 0 3 1 43 17
0 0 0 0 0 1 39 33 11 0 0 0 0 0 35 9
0 1 0 0 20 42 30 33 36 37 39 11 45 54 54 56
59 57 60 66 74 89 95 93 96 95 97 98 97 98 97 100
105 104 102 99 89 86 39 31 97 109 94 24 7 13 10 11
6 6 5 5 20 37 37 36 32 11 9 9 10 9 10 27
39 39 39 39 38 38 38 38 38 37 37 37 37 37 37 37
39 38 37 37 37 36 37 36 36 35 34 34 33 32 32 30
0 35 40 36 19 9 40 21 15 10 7 9 15 7 43 28
8 5 5 4 2 3 40 33 20 7 4 2 2 1 36 10
0 0 0 1 23 40 30 33 35 37 40 29 23 62 53 59
64 64 66 66 76 93 100 102 101 103 106 105 103 97 96 97
99 97 95 89 78 100 67 3 33 49 29 6 8 13 11 10
5 5 5 5 18 36 36 36 29 10 9 10 10 9 10 27
39 39 39 39 39 39 39 38 37 37 37 38 37 37 37 37
38 37 37 37 37 36 37 36 36 35 34 34 32 31 30 29
0 34 41 36 21 5 42 42 41 36 36 38 39 43 43 50
52 46 46 46 42 42 50 34 37 41 41 39 40 41 48 14
3 1 0 0 25 36 28 33 35 36 40 36 19 67 61 58
65 67 66 66 78 97 102 108 105 106 110 107 107 106 101 101
99 94 90 78 85 105 58 13 38 37 21 6 8 13 11 10
4 6 5 4 20 36 37 37 30 9 9 10 9 9 10 25
39 39 39 40 39 38 38 37 38 37 38 37 37 38 37 37
38 37 37 37 36 36 37 36 35 35 34 32 32 30 29 28
0 33 42 37 22 5 42 43 38 38 40 39 35 36 37 46
56 52 51 51 54 54 55 38 36 43 45 47 53 56 55 38
33 30 28 25 33 34 28 33 35 37 41 36 21 62 67 58
65 70 68 69 76 92 101 106 111 111 111 112 116 114 110 105
99 95 86 82 97 105 29 29 37 37 21 5 7 13 12 9
5 5 4 4 23 37 36 36 30 11 9 9 11 10 9 25
40 40 39 39 38 38 38 37 37 37 37 38 37 37 37 36
37 38 37 38 37 36 36 34 35 34 33 32 31 30 28 26
0 34 42 36 22 4 43 33 32 31 36 39 38 36 35 34
42 44 47 46 49 50 51 41 30 37 42 46 53 56 55 38
32 32 32 33 35 32 30 30 34 36 38 35 29 61 72 64
61 67 70 69 78 96 103 111 111 111 116 117 115 113 117 109
104 98 88 97 101 100 28 35 37 35 18 6 7 9 8 7
5 5 4 4 22 36 37 36 32 19 18 17 17 17 16 23
36 36 36 36 36 36 36 36 35 37 37 37 37 36 36 36
37 36 37 36 37 35 36 34 34 33 29 30 28 25 25 23
0 33 43 35 25 8 43 22 26 29 29 36 37 37 38 29
23 25 25 25 26 26 29 31 28 31 35 35 33 31 34 33
34 34 33 32 31 32 31 29 33 33 35 38 35 65 74 70
63 64 70 74 82 95 106 112 115 114 119 117 115 116 114 110
105 98 96 103 105 95 37 37 37 35 17 5 6 4 4 5
5 6 4 4 22 35 37 36 31 11 12 12 12 13 14 23
37 38 39 38 38 38 37 37 36 36 37 38 37 36 37 37
37 35 36 36 36 35 34 34 33 33 32 29 28 27 26 25
0 32 42 35 32 27 44 11 1 4 8 11 17 21 35 31
26 27 28 31 30 29 31 34 34 35 37 37 35 30 29 32
34 34 34 34 33 33 33 32 32 32 38 39 38 72 78 76
70 66 69 76 89 103 111 116 118 120 123 122 121 121 114 108
104 104 100 105 108 92 38 38 36 33 17 5 5 1 0 6
5 6 5 4 23 36 37 36 30 10 10 11 10 10 11 23
38 39 38 38 38 38 38 38 38 37 37 37 37 37 37 36
37 36 35 35 35 35 34 33 32 31 31 29 27 26 25 23
0 30 42 35 36 47 49 10 0 0 0 0 3 8 35 34
41 40 37 47 48 39 37 40 40 44 49 47 41 34 32 33
34 34 34 33 33 33 32 33 34 36 40 39 40 74 78 77
76 67 70 80 90 110 117 121 127 125 126 126 125 118 109 110
108 107 107 107 111 91 37 37 36 32 16 5 6 7 10 11
6 6 5 4 25 35 38 37 30 10 9 11 10 10 10 24
39 38 38 37 38 38 37 38 37 37 37 37 38 36 37 36
36 35 36 35 34 34 34 32 32 31 29 27 26 26 24 23
0 29 42 34 36 50 51 13 0 0 0 0 0 5 41 32
42 43 38 53 56 16 11 15 19 24 33 47 44 35 33 32
34 33 34 34 33 32 32 33 34 35 40 39 41 78 77 76
81 75 70 79 92 113 122 127 131 134 135 129 124 116 110 113
112 112 109 106 114 97 38 37 34 31 16 6 5 1 1 5
5 6 4 4 24 36 37 36 30 9 10 11 10 10 10 24
39 38 38 37 38 37 37 38 36 36 37 36 37 37 36 36
36 36 35 35 35 33 33 32 30 30 29 26 25 24 23 22
0 28 42 34 35 46 46 16 0 0 0 0 0 3 43 30
40 32 7 17 39 6 0 0 0 0 6 43 45 34 34 33
34 34 33 33 32 33 33 32 34 35 40 39 37 80 81 76
83 80 74 80 95 116 129 133 132 133 138 133 124 119 115 113
112 113 109 107 113 98 42 36 33 31 16 5 5 0 0 5
5 7 4 5 26 36 37 36 28 9 9 9 9 9 10 26
39 39 38 37 38 37 37 38 37 38 36 37 37 37 36 37
36 35 36 34 33 32 32 31 29 29 27 25 24 24 22 21
0 27 41 34 29 16 14 0 0 0 0 0 0 5 44 30
41 28 0 3 34 6 0 0 0 0 5 41 44 34 34 34
34 34 34 33 33 32 33 32 33 35 40 36 36 79 83 79
84 82 77 81 94 119 128 133 135 131 133 133 125 122 115 113
113 115 110 110 111 101 48 36 33 31 16 6 5 4 4 5
5 7 4 4 27 35 37 36 27 8 9 9 10 10 10 28
38 38 38 37 37 37 37 38 37 37 37 36 37 37 36 36
36 36 35 34 34 33 32 30 29 28 27 24 24 23 22 21
0 26 41 33 28 15 10 0 0 0 0 0 0 7 43 31
42 27 0 4 34 7 0 0 0 0 2 39 43 34 34 34
34 34 33 33 32 32 32 33 34 36 39 33 36 83 84 79
86 87 80 81 96 116 129 138 139 133 135 136 133 121 117 114
115 116 111 112 114 105 51 35 32 31 15 5 5 5 5 5
5 7 4 5 27 35 37 36 26 8 9 9 10 10 11 29
38 38 38 37 38 37 37 38 36 37 37 36 37 36 36 36
35 35 34 34 33 32 31 30 29 27 26 24 24 23 22 21
0 25 41 33 29 18 11 0 0 0 0 0 0 9 41 30
42 24 0 4 34 8 0 0 0 0 0 37 43 34 34 33
34 34 33 33 32 32 32 33 34 35 37 32 36 81 89 87
86 85 80 81 95 113 132 143 144 141 136 137 127 121 119 119
119 117 113 114 118 108 54 35 33 31 14 4 5 5 5 4
5 6 4 4 28 35 36 36 27 8 8 10 10 9 9 28
38 38 37 38 37 37 37 37 36 36 37 36 36 36 35 35
35 33 34 33 32 31 31 30 28 26 25 24 23 21 21 19
0 27 41 32 29 20 11 0 0 0 0 2 0 6 42 32
43 21 0 4 32 6 0 0 0 0 0 36 42 33 34 34
34 34 33 33 32 32 32 32 33 35 37 31 36 83 92 87
84 85 81 82 97 112 131 144 148 145 137 135 129 123 120 122
123 123 116 122 118 113 57 35 34 31 14 5 5 5 5 5
4 6 3 5 28 35 37 35 27 12 12 11 9 9 10 29
38 38 38 37 37 37 37 37 37 37 37 37 36 36 36 34
35 33 34 33 32 31 30 29 27 26 24 23 22 20 20 19
0 28 40 33 29 22 10 1 3 0 0 6 0 7 43 34
44 23 4 5 32 12 2 0 1 2 1 37 42 34 34 34
34 33 33 33 33 32 33 32 33 35 38 32 32 83 94 89
90 87 81 82 94 109 127 147 148 145 137 134 129 123 119 122
126 125 126 132 125 117 63 34 34 32 14 5 6 5 5 5
5 5 4 6 30 35 38 36 36 34 34 30 23 29 27 34
37 38 38 38 37 37 37 37 37 37 37 37 36 36 36 35
35 34 34 33 32 32 30 29 27 26 24 22 22 22 21 21
0 27 40 32 29 23 12 2 4 0 0 12 13 6 45 34
44 24 18 5 31 11 6 4 7 1 2 37 41 33 33 34
34 33 33 33 33 32 32 31 33 35 39 35 37 83 92 93
92 89 82 81 89 103 122 143 144 141 138 133 132 126 123 125
129 136 135 139 132 117 68 31 34 32 13 6 5 5 5 4
5 6 4 6 28 34 36 37 38 37 38 37 37 37 36 37
38 37 38 37 37 37 37 37 35 36 37 36 37 36 36 35
35 35 34 34 33 32 30 28 27 27 25 23 22 21 21 20
0 28 41 33 29 23 23 14 18 12 11 18 20 13 48 36
45 18 26 8 31 5 8 13 8 0 1 35 39 33 34 34
34 33 33 33 33 32 32 32 33 35 38 35 36 82 93 98
99 91 86 84 89 101 110 129 137 138 140 136 134 125 125 128
136 142 141 143 134 120 61 2 7 11 13 10 6 5 5 5
5 6 4 7 31 36 37 38 38 38 38 38 39 38 40 38
39 39 39 38 39 39 39 38 38 37 37 37 38 37 37 36
35 35 35 34 33 32 30 28 27 26 27 25 24 23 22 21
0 29 40 32 29 23 38 45 48 47 47 47 48 49 57 39
46 10 27 15 30 11 12 13 9 4 3 32 36 32 33 34
34 33 33 33 32 32 32 32 32 32 36 17 20 83 92 103
107 101 90 86 91 106 111 117 134 141 143 140 134 125 126 130
142 145 147 145 135 120 70 0 0 0 5 13 17 13 11 9
6 4 6 15 32 35 36 36 37 38 37 37 36 36 38 37
36 37 37 37 37 37 37 38 37 37 37 37 37 36 37 35
35 34 34 33 32 31 30 28 27 25 24 23 22 22 22 22
0 29 39 31 28 22 37 51 50 50 50 51 51 55 62 46
45 6 12 20 31 28 29 27 27 26 25 28 29 32 32 33
33 32 32 32 32 31 31 31 30 28 11 0 17 82 90 103
113 112 101 96 91 108 117 120 135 144 146 139 131 125 131 140
148 148 148 147 136 121 84 1 0 0 0 8 19 21 20 18
8 4 17 24 32 36 36 37 36 36 36 36 35 36 37 36
36 37 37 36 36 36 36 36 37 37 36 36 36 35 35 35
34 34 33 31 31 30 29 28 26 24 22 21 21 21 20 19
0 29 38 30 27 21 24 36 37 38 39 40 41 45 50 45
42 5 3 8 30 25 27 26 27 27 26 26 29 31 32 32
31 32 32 31 31 31 31 30 29 14 1 0 20 83 92 103
117 117 113 106 99 108 120 125 138 143 146 143 135 134 138 146
149 148 149 145 137 121 97 23 0 0 0 7 18 18 21 20
6 3 20 26 32 34 36 36 36 36 36 36 34 35 36 35
36 36 36 35 35 36 36 36 36 36 36 35 36 35 34 34
35 32 32 32 31 29 29 27 25 24 22 21 20 19 21 19
0 30 37 29 26 21 13 10 10 10 10 11 13 15 19 26
39 4 2 5 30 27 32 31 31 30 30 30 30 31 32 31
31 31 31 31 30 31 30 30 24 3 0 0 26 84 87 101
116 122 122 116 104 113 125 137 145 146 149 148 142 137 143 149
149 148 148 146 136 121 101 79 5 0 0 6 19 17 24 22
6 4 22 28 32 34 35 35 35 34 35 34 32 34 35 35
34 35 35 34 34 34 36 36 37 36 35 36 35 36 34 33
34 32 32 31 30 29 28 27 26 24 22 21 20 20 19 18
0 29 35 27 25 21 16 13 12 10 11 12 12 14 19 26
37 3 0 2 30 27 31 31 30 30 31 30 30 30 30 30
30 30 30 30 30 29 29 29 14 3 0 0 46 80 86 97
113 120 128 124 110 110 123 138 147 147 149 148 144 142 148 148
148 148 147 143 133 122 105 104 64 1 0 9 18 13 24 22
7 4 24 27 31 33 34 34 34 34 34 33 31 33 34 34
34 34 33 33 33 33 34 35 38 38 36 37 37 35 35 34
35 33 32 31 30 29 28 26 25 24 22 21 20 19 19 17
0 30 34 26 24 21 20 18 17 15 14 13 13 16 19 28
38 10 8 9 31 26 30 30 30 29 30 29 30 30 29 29
29 29 29 29 29 29 29 27 7 5 0 9 70 78 86 95
111 120 129 127 116 112 126 138 147 147 149 148 146 145 148 148
148 148 147 142 129 123 105 109 102 22 2 13 16 12 18 24
8 4 24 28 32 33 34 34 34 34 34 32 30 33 34 33
33 27 18 19 21 23 40 48 50 50 48 47 46 45 43 41
39 38 36 35 33 32 31 29 27 26 24 22 21 21 20 19
0 33 35 26 24 22 20 19 19 18 19 18 18 18 20 33
39 30 44 46 42 25 30 30 30 29 30 30 30 30 30 30
29 29 29 29 29 28 29 20 7 12 1 42 78 79 85 94
111 120 130 131 119 113 125 140 145 146 150 148 146 147 149 149
149 148 147 139 125 126 108 114 110 36 17 16 15 11 13 22
8 5 26 28 31 32 33 33 34 34 33 32 29 31 34 32
32 11 0 0 0 3 52 56 56 56 56 56 56 56 55 54
53 52 52 50 48 46 44 42 40 37 35 32 30 28 25 24
19 34 32 26 24 22 20 19 19 18 18 18 19 20 19 29
31 26 36 39 35 24 29 29 29 29 29 29 29 29 29 29
29 29 29 29 29 28 27 12 9 16 7 66 82 82 87 95
108 121 131 133 120 115 123 138 143 145 148 148 147 148 149 149
149 148 146 140 131 128 115 117 102 35 19 17 15 11 13 15
10 6 27 30 32 32 33 34 33 33 33 31 28 31 34 33
31 8 0 0 0 8 56 56 56 56 56 56 56 56 55 55
54 54 53 53 51 50 49 47 45 44 43 42 41 41 39 39
27 27 26 26 24 21 21 20 19 18 18 18 19 20 23 26
25 22 21 25 25 27 29 29 29 28 29 29 29 29 29 29
28 29 29 28 28 28 20 6 10 17 17 74 88 84 89 97
109 121 128 136 123 115 124 134 143 142 145 146 148 148 149 149
149 148 147 139 133 128 120 120 84 35 17 19 14 12 13 13
16 13 28 31 32 33 33 33 34 33 33 30 26 31 34 32
30 5 0 0 0 15 56 56 56 57 56 56 56 56 56 55
55 53 53 53 52 50 48 47 46 45 43 41 40 40 40 39
27 26 28 26 23 21 21 21 19 19 19 18 19 20 24 26
26 25 22 25 25 27 29 28 29 28 29 29 28 29 28 28
28 28 28 28 27 22 10 6 13 17 33 87 93 88 90 99
109 122 127 135 131 118 124 135 140 144 147 147 149 149 149 149
149 147 145 140 138 131 123 121 59 27 18 18 15 12 13 13
16 24 30 31 32 32 33 32 34 33 33 32 24 32 34 33
28 3 0 0 0 22 57 56 56 55 56 56 56 55 55 55
54 54 54 53 52 51 49 48 46 44 44 42 42 41 39 39
27 26 26 26 22 21 20 21 21 20 20 18 19 20 25 26
25 25 24 26 26 27 28 28 29 28 28 28 28 28 29 29
28 28 28 28 25 7 8 6 13 19 33 112 103 95 92 102
111 123 133 135 139 125 130 138 144 143 148 148 149 149 149 149
149 148 146 144 140 132 128 97 45 19 18 16 13 12 13 14
16 22 27 31 35 35 34 33 34 33 33 32 23 30 33 33
29 1 0 0 0 31 57 55 56 56 56 56 56 55 55 55
54 54 53 53 51 51 49 48 46 45 44 43 41 40 40 40
18 18 18 20 20 21 21 21 21 20 20 20 20 21 25 27
26 26 25 25 26 26 27 28 27 28 28 28 28 28 27 28
28 27 28 24 9 5 6 9 13 20 33 131 108 103 97 106
113 127 136 142 141 135 133 141 146 147 147 149 149 148 149 149
149 148 147 144 139 135 120 63 31 18 19 15 13 13 14 15
17 20 29 29 28 33 34 33 33 34 33 30 10 18 32 33
26 0 0 0 0 39 56 55 56 56 56 55 56 55 55 55
54 54 53 53 52 51 50 48 47 45 43 42 41 40 40 39
16 18 18 20 20 20 21 20 20 20 20 21 21 23 26 27
26 26 26 26 26 27 27 27 27 27 28 28 28 27 27 28
27 27 20 8 5 6 8 9 15 21 34 128 128 106 104 112
117 128 136 143 148 140 135 142 148 148 147 149 150 149 149 148
147 147 147 146 143 136 88 50 21 20 18 16 14 13 16 15
17 21 26 29 30 53 38 33 33 33 33 29 16 23 31 32
23 0 0 0 0 47 56 55 56 55 56 56 56 56 55 55
54 54 54 53 52 51 50 48 46 46 43 42 41 40 40 39
16 18 19 19 20 20 20 20 20 21 20 20 21 23 28 27
26 26 27 26 25 26 27 27 27 27 27 27 27 27 27 26
26 19 9 8 6 6 8 9 15 21 35 122 152 116 111 119
122 134 141 145 151 148 143 146 149 149 148 150 150 150 149 149
148 148 148 148 145 115 65 31 21 19 17 16 15 14 14 16
18 22 26 26 32 70 58 34 34 33 33 30 24 32 31 30
18 0 0 0 3 51 55 55 55 54 55 55 55 55 55 55
54 54 54 53 52 52 50 48 47 45 45 42 42 40 40 40
15 18 19 19 20 20 20 21 20 20 20 21 21 24 28 26
25 26 26 26 26 25 26 27 27 27 27 27 27 26 25 21
12 3 6 6 6 5 7 12 18 23 45 114 153 150 124 123
127 137 147 147 150 150 149 149 148 149 149 149 150 149 149 149
149 149 148 149 136 83 75 20 21 17 16 15 15 15 16 17
18 20 20 14 17 50 50 34 32 32 33 30 28 32 31 30
16 0 0 0 8 54 55 55 55 55 55 55 55 55 56 55
53 54 53 53 52 50 50 49 48 45 44 43 42 42 40 39
14 19 21 22 23 24 24 24 24 24 24 25 25 26 28 27
25 25 26 27 25 25 26 26 26 26 26 26 26 29 17 13
6 0 6 7 4 5 7 10 17 25 49 105 153 151 151 128
131 141 150 150 150 150 148 146 148 147 146 147 149 149 150 149
149 149 149 145 109 119 34 20 20 18 15 15 13 16 17 18
18 19 18 12 14 30 48 31 29 31 35 54 40 30 31 30
12 0 0 0 15 54 54 54 55 54 55 54 55 55 55 54
54 54 53 52 52 51 50 49 47 46 44 43 41 41 40 39
18 21 23 24 29 28 28 28 28 28 28 27 28 28 28 27
25 25 26 27 26 25 26 26 27 26 26 27 23 20 10 12
1 2 6 6 5 4 5 9 17 24 43 102 152 152 151 150
135 142 151 150 151 150 150 144 144 146 144 146 149 150 150 149
149 149 149 141 142 71 21 21 17 16 15 16 15 17 18 18
20 21 20 14 15 31 45 26 21 18 24 35 44 37 31 29
9 0 0 0 23 56 54 54 54 54 54 55 54 55 55 54
55 54 54 53 52 51 50 49 48 46 45 44 43 41 40 38
19 18 17 19 35 26 27 27 28 28 27 27 27 27 27 27
25 25 26 26 26 26 26 25 26 26 30 27 21 9 10 6
0 1 6 6 4 3 2 6 13 21 23 81 146 152 151 151
151 148 150 151 150 151 150 144 148 143 143 148 149 149 150 149
149 150 149 148 101 24 21 19 16 16 15 15 16 18 20 19
18 20 18 15 12 27 56 16 14 13 16 20 29 40 39 35
6 0 0 0 30 54 54 53 53 54 54 54 54 54 54 53
54 54 54 53 52 51 51 50 48 47 45 44 43 42 40 39
12 11 11 14 36 29 24 24 26 26 27 27 27 27 27 27
25 25 26 26 26 26 26 26 27 28 28 23 18 10 10 1
0 2 7 7 5 3 2 3 12 17 22 72 143 152 152 151
152 151 151 151 151 151 150 148 150 148 147 148 149 148 150 150
150 150 137 65 25 23 20 16 16 17 17 17 19 18 19 19
20 19 16 12 8 27 60 20 19 14 15 21 22 29 31 45
41 11 0 0 37 55 53 54 54 54 54 54 54 54 54 54
54 54 53 53 52 52 51 49 48 47 45 44 43 42 41 40
12 11 11 15 36 29 21 19 21 21 23 23 24 25 27 27
25 25 26 26 27 26 26 27 26 26 24 19 10 13 13 1
1 5 7 6 5 4 2 2 8 11 12 34 83 128 153 152
152 151 151 151 151 151 151 150 150 150 148 146 149 149 150 150
149 128 89 22 23 20 18 15 16 17 18 20 19 20 19 18
19 25 19 12 10 25 55 20 18 13 10 12 17 23 24 33
46 49 30 3 44 53 53 53 53 53 54 53 54 54 54 55
54 54 53 53 54 52 51 50 49 48 46 44 43 42 41 40
11 10 10 14 35 29 20 18 18 18 18 19 20 21 22 24
26 25 26 26 27 24 28 47 31 27 25 16 14 27 26 11
8 10 6 6 4 4 2 1 3 3 5 35 54 70 140 152
152 152 151 152 152 152 151 151 151 151 151 151 151 150 146 116
96 90 54 20 20 16 15 16 18 20 20 20 21 19 20 18
17 32 33 29 19 32 73 27 13 11 5 8 15 22 19 30
37 39 48 51 49 53 53 53 53 53 53 54 54 54 54 54
53 53 54 53 53 52 52 51 49 48 47 46 44 42 41 40
9 9 8 9 32 29 20 17 18 18 18 18 18 18 20 22
26 26 26 27 20 28 50 57 42 42 35 18 28 31 27 18
11 9 6 6 5 3 2 1 1 0 0 23 28 29 102 153
152 151 152 152 151 151 151 151 151 151 151 151 151 141 67 47
75 65 11 12 18 17 17 18 20 20 20 20 20 19 18 17
18 35 34 34 31 32 61 38 19 12 7 6 21 23 16 29
33 36 39 58 47 51 53 52 52 54 53 54 54 53 54 54
55 54 53 53 52 52 51 50 50 49 47 45 45 43 41 40
31 29 17 11 31 28 19 17 17 18 17 17 17 18 19 21
25 26 25 18 28 38 49 48 42 44 39 21 27 26 21 16
21 16 6 7 6 4 2 1 0 0 1 11 54 15 53 146
152 151 152 151 152 152 151 151 151 151 150 149 131 52 40 42
53 14 0 0 11 21 21 21 20 20 19 19 19 18 18 18
20 58 30 29 32 28 51 37 29 26 21 13 27 32 31 38
35 33 40 50 38 45 50 53 52 53 53 53 53 53 54 54
53 53 53 53 53 52 51 50 50 49 47 46 45 43 41 40
28 29 30 29 29 28 20 17 17 17 18 17 18 18 18 21
26 25 15 24 49 70 93 77 42 42 32 57 62 67 57 31
35 18 8 7 7 5 3 1 0 0 3 1 27 22 23 92
138 151 152 152 152 152 151 151 151 151 151 129 53 35 27 34
33 30 20 10 3 12 14 14 16 19 19 18 19 19 21 18
23 69 62 45 36 41 73 46 29 32 26 12 26 32 39 54
41 32 49 37 32 37 42 52 53 53 53 53 53 53 53 54
54 53 53 53 53 52 52 51 49 48 48 47 45 43 42 40
38 38 39 39 32 26 19 17 18 19 24 24 24 21 19 22
27 17 31 72 77 64 69 70 74 72 43 46 47 41 38 17
12 18 13 8 5 4 4 1 1 0 2 3 4 10 13 45
98 132 147 152 152 152 151 151 151 151 132 55 39 35 36 35
38 37 41 56 37 32 19 2 0 3 13 19 19 19 20 18
20 40 45 67 66 64 73 64 41 27 22 9 33 41 42 54
53 47 59 32 31 34 37 46 52 52 52 52 53 53 53 53
54 53 52 52 52 52 51 51 50 49 48 46 45 43 42 40
36 40 41 42 42 38 29 27 29 32 40 44 44 42 37 27
29 28 69 86 60 34 48 41 56 53 27 22 26 23 10 5
4 6 11 11 8 4 8 21 2 0 0 5 1 13 10 25
49 121 152 152 151 151 151 151 150 146 62 46 45 39 41 42
46 45 50 53 41 41 40 20 10 2 0 4 15 19 20 17
22 30 23 30 38 43 39 35 56 66 58 27 45 63 53 52
51 61 69 45 36 29 34 39 51 52 52 51 52 52 53 52
52 52 52 52 51 51 51 51 49 49 47 46 45 43 42 40
40 42 44 45 47 46 46 47 48 47 46 46 46 46 40 27
34 50 53 48 36 24 47 33 36 26 21 20 19 20 18 13
7 9 13 14 5 4 16 24 6 1 0 4 2 11 7 12
45 61 146 152 152 151 150 148 150 107 41 62 48 36 42 43
42 42 60 51 40 39 31 24 19 18 13 6 2 2 6 23
29 27 16 16 21 33 28 21 30 40 47 27 25 42 84 70
48 67 53 51 46 29 28 31 45 51 51 52 52 52 52 52
52 52 52 51 51 51 50 49 49 48 47 45 45 43 41 39
44 43 42 41 42 41 40 40 41 41 42 40 40 40 28 29
61 40 35 37 31 19 49 31 27 21 20 18 17 18 20 20
16 20 21 16 15 10 27 32 8 6 1 3 5 6 9 7
19 52 88 153 151 151 150 148 145 64 44 55 45 43 42 41
41 40 66 47 42 36 31 21 18 18 18 18 19 19 19 31
35 37 21 18 19 41 28 19 19 22 23 9 16 27 69 101
94 83 42 47 50 42 31 28 41 51 51 52 51 51 51 51
52 51 51 51 51 51 50 49 48 47 46 45 43 43 41 39
40 40 37 38 38 38 37 36 36 37 36 34 34 32 21 41
51 28 32 33 33 17 50 31 29 23 21 18 16 16 19 18
16 23 19 16 16 13 33 42 6 11 5 1 6 2 11 5
9 32 60 123 153 151 150 149 122 45 55 45 43 45 40 42
43 39 62 43 41 40 29 22 21 20 19 19 17 19 20 34
37 37 21 19 18 44 28 19 17 20 20 5 16 26 47 68
93 108 83 69 49 50 46 31 32 46 51 51 51 51 51 51
51 51 51 50 50 49 49 48 48 47 45 44 43 42 40 38
34 33 33 32 32 32 32 32 31 31 31 30 30 23 25 39
41 25 31 33 31 15 45 29 31 22 20 17 18 16 20 19
15 23 18 18 17 15 31 48 8 14 15 2 7 5 10 7
4 11 46 71 134 150 150 149 87 41 68 41 41 46 40 40
43 42 64 39 42 42 26 21 20 18 19 20 21 20 21 36
37 35 20 18 19 47 24 20 18 21 17 5 18 29 39 47
72 70 74 95 70 50 52 37 34 35 50 50 51 50 51 51
51 50 50 50 49 49 49 48 47 47 45 44 43 41 40 38
31 32 32 31 32 31 30 31 30 30 31 29 30 16 34 28
40 30 29 34 31 13 41 27 32 24 20 18 18 19 18 16
18 23 17 21 17 15 33 53 7 11 17 8 3 14 12 7
4 4 17 53 67 128 151 145 59 45 63 43 42 42 43 42
40 47 65 37 43 41 24 23 20 20 21 20 20 18 21 38
40 35 20 18 19 52 20 19 16 20 13 5 18 33 40 44
63 41 46 66 93 71 48 43 39 31 49 50 50 50 50 50
50 50 50 49 49 49 48 47 46 46 45 43 42 40 39 38
32 31 32 33 32 31 31 30 30 30 31 31 25 16 27 25
30 31 30 32 31 13 40 28 35 23 17 19 20 17 17 15
17 21 17 19 15 13 35 59 9 7 17 15 3 14 24 10
5 3 5 25 56 76 146 130 54 53 50 47 43 38 43 49
42 49 63 43 41 36 24 20 20 20 20 21 20 18 22 35
38 36 20 19 19 59 18 16 17 20 9 4 20 37 37 55
53 32 36 45 61 92 83 49 32 29 42 49 49 49 49 50
49 49 49 49 48 48 47 46 46 45 44 42 41 40 38 36
34 33 33 32 33 33 32 31 30 31 30 30 34 20 17 32
31 35 26 30 29 12 34 29 35 23 16 18 22 17 15 16
16 18 18 21 17 14 33 64 13 5 17 19 7 9 30 26
26 16 19 22 35 73 97 103 82 100 76 69 62 55 43 44
44 51 52 44 43 35 23 22 21 20 20 22 20 19 24 38
37 38 18 20 20 63 19 18 16 19 7 5 23 37 37 63
42 30 34 36 40 55 84 68 33 25 31 46 49 49 49 49
49 49 48 47 47 47 47 46 44 43 42 41 40 38 37 36
33 33 33 32 32 33 32 32 31 30 30 29 33 9 15 28
33 38 30 34 30 9 31 28 36 23 18 17 19 18 14 14
15 16 20 22 16 13 30 60 22 20 40 54 40 22 55 67
53 24 8 3 14 44 38 55 36 59 64 67 72 84 98 79
64 67 45 40 42 33 26 22 23 22 21 20 20 19 25 40
38 34 20 17 24 63 16 16 15 18 5 7 30 38 42 62
34 31 37 38 42 41 51 69 32 20 22 33 48 49 48 48
48 47 47 47 46 46 45 44 44 42 41 39 38 37 36 35
