P2
128 120
154
34 34 34 33 33 33 32 32 31 30 31 29 29 29 28 28
27 27 27 27 26 25 25 24 24 23 22 22 22 22 21 20
20 20 19 19 19 19 19 19 18 17 17 18 18 23 23 22
22 19 16 11 21 22 20 19 20 19 19 18 18 16 16 15
13 13 14 17 19 19 20 20 20 20 20 21 21 21 22 22
22 21 22 22 23 24 24 24 25 25 25 25 26 26 26 27
27 27 27 28 29 29 29 29 30 30 30 31 31 31 31 31
33 31 31 31 32 32 32 32 32 32 32 32 33 33 31 30
34 33 32 32 32 32 31 31 31 31 30 30 30 30 29 28
28 27 27 26 26 25 24 24 23 23 22 22 22 22 22 21
21 20 19 19 19 18 18 17 17 17 17 18 19 22 23 24
24 20 19 9 17 22 19 18 20 19 18 18 19 16 16 16
14 15 15 18 20 19 20 19 20 20 20 21 21 21 22 22
22 22 23 23 23 24 24 24 25 25 25 25 26 27 27 28
28 28 28 28 29 29 29 29 30 30 30 31 30 31 31 31
32 32 33 32 32 32 32 31 30 31 31 32 32 32 33 33
34 34 33 33 32 32 32 31 31 31 30 30 29 29 29 28
27 28 27 26 26 25 25 24 25 24 23 23 22 22 22 21
21 21 20 20 20 19 19 18 18 17 18 18 19 23 23 23
23 18 12 5 18 22 21 21 20 20 20 19 20 17 18 16
15 15 16 19 20 20 21 21 21 21 21 22 22 22 22 23
23 22 23 23 24 24 25 25 26 26 25 26 26 27 27 28
28 28 28 29 29 29 30 29 30 31 31 31 31 31 31 31
31 30 30 31 30 31 32 32 33 34 32 33 33 32 33 34
35 34 34 34 33 32 32 31 31 30 31 30 30 29 30 29
29 28 27 26 26 25 25 25 24 24 23 23 23 22 22 22
22 21 21 21 20 19 19 19 19 18 18 19 20 24 24 24
24 19 15 14 20 24 21 22 21 20 20 20 20 18 18 18
16 18 18 21 22 21 21 21 22 21 22 22 22 23 23 23
24 24 24 24 25 25 25 25 25 26 26 26 26 27 28 29
29 29 30 30 31 31 30 28 28 30 30 29 29 30 31 32
32 33 34 33 33 33 33 32 33 33 33 33 33 33 33 33
33 34 33 33 33 32 33 32 32 31 31 30 30 30 29 28
28 28 27 27 26 26 26 25 25 25 25 23 23 22 22 22
21 20 21 20 20 19 19 19 19 18 19 19 20 24 24 24
23 18 14 16 19 23 23 22 22 21 20 20 20 19 19 18
16 18 18 21 21 21 21 22 22 22 23 23 23 23 23 23
24 23 23 24 24 25 24 25 26 26 26 27 28 28 28 29
28 28 27 27 27 27 29 31 31 31 31 31 32 32 32 32
31 31 32 32 32 31 32 32 32 33 32 34 33 33 34 32
34 33 33 31 31 31 31 30 30 30 29 30 29 29 29 29
29 28 27 27 26 25 25 24 24 24 23 23 22 22 22 21
21 20 20 20 20 19 19 18 18 18 18 18 20 24 23 24
23 18 16 17 19 23 22 21 21 20 19 19 20 18 18 18
16 18 18 21 21 21 20 21 21 22 21 22 22 22 23 23
24 24 25 24 24 25 25 25 25 25 26 25 25 24 23 25
26 27 28 29 30 30 30 30 31 30 30 30 30 31 31 30
31 31 32 32 31 32 32 32 32 33 32 32 33 32 32 31
33 32 33 31 32 32 31 31 29 30 30 29 29 28 28 28
27 27 26 26 26 25 25 24 24 24 23 23 22 22 22 21
20 20 20 19 20 19 19 19 18 18 18 19 20 24 23 23
23 18 16 18 17 23 21 21 21 21 20 19 20 18 18 17
15 18 17 20 21 21 21 21 22 21 22 22 22 22 22 23
23 23 23 24 24 24 24 24 23 24 24 25 26 28 28 28
28 28 28 28 29 29 29 30 30 30 30 30 30 31 31 30
30 30 30 31 31 31 31 30 31 32 32 32 32 32 32 31
33 32 32 31 31 31 30 29 29 29 29 28 29 28 27 27
27 27 27 26 25 25 24 23 23 23 22 22 21 21 21 21
21 20 20 19 19 19 18 18 17 18 17 18 19 23 24 24
24 18 16 19 16 22 21 20 21 20 20 18 20 18 18 17
15 18 17 21 21 21 21 21 22 21 22 22 21 21 22 22
22 22 23 23 24 24 25 25 25 25 25 26 26 26 27 26
28 28 28 28 29 29 29 29 31 30 30 30 30 30 29 30
30 30 31 31 31 30 30 31 32 31 30 31 31 32 31 31
32 32 32 31 31 31 30 30 30 29 29 29 28 28 28 27
27 26 26 26 25 25 25 25 24 24 24 23 22 21 22 21
21 20 19 19 19 19 18 18 18 17 18 19 21 24 24 24
23 19 15 20 16 22 22 21 21 20 20 20 20 19 19 18
15 19 18 21 21 21 22 22 22 22 21 22 22 22 22 22
23 23 24 23 24 25 25 26 26 26 26 26 27 28 27 28
28 28 29 29 29 28 29 29 31 30 30 30 30 31 30 30
31 31 31 30 31 31 31 31 31 31 30 31 32 31 32 31
33 32 32 31 32 30 30 30 30 30 29 28 29 29 28 28
27 27 27 26 26 25 25 24 24 23 23 22 22 22 21 21
21 22 21 20 20 20 19 18 18 18 19 19 21 25 24 25
25 19 15 22 16 23 23 22 22 21 20 20 20 19 19 18
16 20 18 22 21 21 21 22 22 22 22 23 23 22 24 23
23 24 25 25 25 26 26 27 26 27 27 27 27 27 27 28
28 28 29 29 30 30 31 30 32 30 31 31 31 31 31 31
31 30 31 31 31 32 31 32 32 32 31 32 32 32 32 31
33 32 32 31 32 31 30 31 31 30 30 29 29 29 28 28
27 27 26 26 26 26 25 25 25 24 24 23 23 23 23 22
22 21 20 20 21 20 19 19 19 19 19 21 23 26 26 25
25 18 16 23 17 23 23 22 22 22 22 22 22 20 20 20
16 21 17 22 23 22 22 23 25 23 24 24 24 24 25 25
25 25 25 26 26 26 26 27 27 27 27 28 28 27 28 29
29 30 30 30 30 30 30 30 31 30 31 31 31 31 32 32
31 32 31 32 31 32 32 32 31 31 32 32 33 32 33 33
33 32 32 32 32 31 31 30 30 29 29 29 29 28 28 28
28 27 28 26 27 26 25 25 25 24 23 24 23 22 23 22
22 22 22 20 21 20 20 20 20 20 20 20 23 25 26 25
25 19 17 24 17 24 23 23 22 22 21 23 22 20 20 19
16 21 20 23 24 24 24 24 24 23 24 24 24 24 24 24
25 25 26 26 26 27 27 27 27 27 28 28 28 27 28 28
29 30 30 30 30 31 31 31 32 31 32 31 31 31 32 31
31 31 31 32 32 32 32 32 33 32 32 33 33 34 33 33
33 32 32 31 31 31 30 30 30 30 30 29 29 29 29 28
28 27 27 26 26 26 26 25 25 25 25 24 24 24 23 22
22 21 22 21 20 20 20 20 20 20 21 21 25 27 26 27
26 20 18 25 17 24 23 24 23 22 23 23 22 21 21 21
17 22 21 23 23 24 24 24 24 24 24 25 24 25 26 25
26 25 26 26 26 27 27 27 27 28 28 28 29 30 29 30
30 30 30 29 31 30 31 30 32 31 30 31 31 32 32 32
32 31 32 32 32 33 33 33 33 32 32 33 33 32 32 31
33 33 33 32 32 32 31 31 30 30 30 29 29 28 29 28
28 28 28 27 27 27 26 26 25 25 25 24 24 23 24 23
22 22 22 22 21 22 21 20 20 21 21 21 24 27 26 27
26 20 19 26 18 24 24 24 24 23 23 23 22 21 21 21
17 23 21 24 24 25 25 25 25 25 25 24 25 25 26 26
26 26 26 27 27 27 28 28 29 29 28 28 29 29 29 29
30 30 30 30 31 31 32 32 33 31 32 32 33 33 33 31
32 32 32 32 31 31 32 32 33 32 33 33 33 34 34 33
34 32 33 32 32 32 31 30 31 31 30 30 29 29 29 29
29 28 27 27 27 26 26 26 26 26 25 25 24 24 23 24
23 23 23 22 22 21 21 21 21 22 21 23 26 28 28 28
27 20 19 27 18 25 24 24 24 23 23 23 23 22 22 21
18 23 22 25 25 25 25 25 26 25 26 26 26 26 26 26
27 27 27 27 28 28 28 28 29 29 29 30 29 29 30 31
31 31 32 31 32 32 32 32 33 32 32 31 32 31 31 31
32 31 32 33 34 33 33 33 33 33 33 32 33 33 33 33
34 33 33 33 32 32 32 32 31 31 30 30 30 29 29 28
29 28 28 28 27 27 27 26 26 26 25 25 24 24 24 24
23 23 23 23 22 22 21 22 21 21 22 22 25 28 28 28
26 19 20 28 18 26 25 25 25 25 24 21 23 22 22 22
18 23 21 25 25 25 26 26 27 26 26 26 26 26 26 26
27 27 27 28 28 29 29 30 29 30 29 30 30 30 30 30
31 31 31 30 30 30 30 29 30 31 31 31 33 33 33 34
33 31 32 32 32 32 33 33 33 33 33 33 33 33 32 33
34 33 33 32 32 31 31 31 31 31 31 31 30 30 30 30
29 28 28 28 28 27 27 27 26 26 25 25 25 25 25 24
24 23 23 22 22 22 22 21 22 22 22 23 27 27 28 28
27 19 21 29 18 26 26 25 25 25 24 22 24 23 23 22
19 24 23 25 26 25 26 25 26 26 26 26 26 26 27 27
28 28 28 29 29 29 29 30 29 30 30 29 29 29 29 31
30 31 31 32 33 32 33 32 33 32 32 32 32 33 33 33
35 32 33 33 33 33 33 33 33 34 33 33 33 33 33 33
34 33 33 33 32 33 32 31 32 32 30 30 29 30 30 29
28 28 28 28 28 27 26 27 27 26 26 25 25 24 25 24
24 24 23 23 23 22 22 22 23 22 23 23 27 29 28 28
26 19 22 29 19 26 26 26 26 25 24 23 24 23 23 22
19 24 23 26 26 26 26 27 27 27 28 27 28 27 27 27
28 28 28 28 28 28 29 28 29 29 30 30 30 31 31 31
31 32 32 32 32 32 33 32 33 33 33 33 33 33 32 33
35 32 32 32 32 33 33 33 33 33 34 33 33 33 33 32
20 33 33 33 32 32 32 32 31 31 31 31 31 30 30 29
29 29 28 29 27 27 27 27 26 26 26 25 25 25 25 25
25 24 25 23 23 23 23 22 22 23 23 23 28 30 29 29
27 19 23 30 20 27 27 26 25 25 26 23 24 23 24 23
19 25 24 27 26 27 27 27 27 27 27 27 27 28 28 28
28 29 29 29 30 29 29 29 29 30 29 30 30 31 31 32
32 32 33 33 33 33 33 33 33 33 33 33 33 33 34 33
34 33 33 33 33 34 33 33 33 33 33 33 33 33 33 33
19 33 32 33 32 32 32 32 31 31 31 30 30 30 30 30
29 29 29 28 28 28 28 27 27 27 26 26 25 25 25 25
24 23 23 23 23 23 23 22 23 23 23 24 28 29 29 29
26 20 24 31 20 26 27 27 27 26 27 23 24 24 23 23
19 24 23 26 26 26 27 26 26 27 26 27 27 27 27 28
28 28 29 29 29 29 29 30 29 31 31 31 31 31 31 32
32 32 32 33 32 33 32 32 32 33 34 33 34 33 33 33
34 33 32 32 32 32 33 32 33 34 33 33 33 34 33 32
18 33 33 33 33 32 31 30 30 31 32 31 30 31 30 30
30 30 30 29 29 28 28 27 27 27 26 26 26 26 26 25
25 25 25 24 24 23 23 23 23 23 23 24 28 30 29 29
27 20 25 32 22 26 28 29 28 29 27 28 26 26 25 23
19 24 24 26 27 27 27 26 26 27 27 27 28 27 28 29
29 29 29 30 30 31 31 31 30 30 32 31 32 32 32 34
33 33 33 33 34 33 34 33 33 32 33 33 33 33 33 33
34 33 32 33 33 34 34 33 33 34 33 33 33 34 33 33
20 34 34 33 33 33 32 34 35 33 32 31 31 31 30 30
30 29 28 28 29 29 27 28 28 27 27 26 27 25 26 25
25 24 24 24 24 24 24 24 24 23 25 25 29 30 30 29
27 19 26 32 24 28 28 28 28 29 28 28 27 26 26 25
20 26 26 27 27 27 27 27 28 28 29 28 28 28 29 29
29 29 29 30 29 29 30 30 31 31 32 31 32 33 33 34
33 32 33 33 33 33 34 33 33 33 33 34 34 33 33 33
34 33 32 33 33 32 33 33 33 33 34 33 34 34 34 34
24 34 34 34 33 33 33 41 44 40 40 36 34 32 30 30
30 30 30 29 29 29 28 27 27 28 36 33 28 27 26 26
26 25 25 25 25 24 24 23 23 24 24 25 29 30 29 29
26 20 27 34 26 28 30 30 31 27 23 19 18 17 19 25
27 28 27 28 28 28 29 28 28 28 29 29 29 29 29 30
30 30 30 29 30 31 31 31 31 31 31 32 32 33 33 33
33 33 33 34 34 34 34 34 33 34 33 33 34 34 33 32
34 34 34 34 34 33 34 34 33 33 34 34 33 34 34 33
28 36 35 34 33 33 33 42 44 42 41 38 37 36 35 32
31 30 29 29 29 28 29 29 28 33 42 40 36 34 31 28
25 25 24 25 24 24 24 24 24 24 25 25 30 30 30 30
26 20 27 33 27 30 27 23 22 14 21 25 26 26 25 24
26 20 24 28 28 28 28 28 28 28 29 29 29 29 30 31
30 30 30 30 30 30 31 31 32 32 32 33 33 32 33 34
33 33 33 34 33 34 33 33 34 33 33 33 33 34 34 34
34 34 33 34 34 33 33 33 34 34 34 33 34 35 34 34
31 40 37 37 36 34 33 42 44 43 39 39 39 41 43 36
37 33 31 30 28 28 28 29 29 33 39 38 36 35 36 35
29 26 25 26 25 25 24 24 25 24 25 25 30 30 30 30
26 20 27 32 28 26 24 12 3 12 31 31 33 35 34 30
29 31 21 19 28 29 28 29 29 29 28 28 29 29 30 30
31 30 31 30 31 32 32 32 32 33 34 33 33 33 33 34
33 34 34 34 34 34 34 34 34 34 34 34 34 34 34 34
35 34 34 34 35 33 35 34 33 32 31 32 33 32 32 32
33 41 32 34 38 39 40 34 12 26 39 42 44 44 45 36
35 38 39 35 32 30 29 29 29 32 32 35 35 35 36 35
30 25 26 26 25 25 25 25 25 25 26 26 31 30 31 30
25 19 27 30 25 16 7 1 3 12 18 21 26 28 23 25
24 27 23 15 18 28 29 29 29 29 29 30 30 30 30 31
31 31 31 31 31 31 32 31 33 32 33 33 34 34 33 35
34 34 34 34 35 34 34 34 34 35 35 34 35 34 34 33
32 29 31 32 33 33 32 33 34 36 35 34 35 35 35 34
32 41 39 34 31 41 44 32 0 0 7 23 29 34 42 30
2 10 21 32 37 34 38 34 30 31 15 12 15 23 32 35
31 26 26 26 26 26 26 25 25 25 26 26 30 31 31 30
26 21 25 24 18 7 4 3 12 16 19 16 11 10 14 16
16 16 21 14 13 23 30 30 31 30 30 29 30 31 30 31
31 31 31 31 32 32 33 33 33 34 33 34 33 34 34 34
34 34 34 34 34 34 33 33 33 32 33 32 33 33 34 35
35 35 35 35 34 35 31 34 34 35 34 32 33 34 33 33
5 14 26 39 41 44 46 31 0 0 4 9 12 11 24 27
0 0 0 0 6 15 28 35 35 32 14 6 10 7 3 7
30 26 27 26 26 25 26 25 25 26 26 27 32 31 32 29
18 19 15 22 18 20 35 59 76 81 85 81 61 42 27 17
15 13 13 18 11 16 30 30 30 30 30 31 31 31 31 32
32 32 33 31 32 33 33 33 32 34 32 33 33 32 34 33
33 33 33 34 34 34 34 34 35 34 34 35 35 35 34 34
34 34 34 34 35 34 34 34 33 34 33 33 34 33 33 33
0 0 0 1 12 25 38 29 0 0 1 4 9 10 23 25
0 0 0 0 0 0 0 3 19 33 12 0 5 6 3 1
31 27 27 27 27 26 26 26 26 26 27 27 31 32 31 28
17 16 18 26 51 80 94 98 102 107 109 110 106 104 80 34
8 6 5 12 9 15 28 31 31 30 30 30 31 30 31 31
31 30 30 31 32 33 33 34 34 34 34 33 34 33 33 34
33 33 34 34 34 34 34 34 35 34 34 34 34 34 34 33
33 33 33 33 34 33 35 34 34 35 34 34 34 33 34 34
0 0 0 0 0 0 0 21 0 0 0 0 1 3 23 24
1 0 0 0 0 0 0 0 13 33 7 0 0 2 1 2
33 27 27 27 26 26 26 26 26 26 27 28 33 33 33 31
20 16 33 70 93 105 109 110 112 117 118 121 118 117 113 96
56 13 4 4 7 14 22 31 30 30 30 30 31 30 31 31
31 32 32 32 33 31 32 33 32 32 33 34 33 33 33 34
34 34 33 35 34 34 34 34 35 33 34 34 34 34 34 35
35 33 34 34 34 34 34 34 34 34 34 33 33 33 33 35
0 0 0 0 0 0 0 17 0 0 0 0 0 1 21 19
0 0 0 0 0 0 0 0 15 28 1 0 0 0 0 3
34 27 27 27 27 26 27 27 26 27 28 29 33 33 32 27
20 32 71 88 103 112 112 114 118 124 127 129 129 126 122 120
105 69 16 4 4 13 19 31 31 30 31 31 31 31 31 31
31 31 32 31 32 32 33 35 33 33 33 33 33 33 33 33
33 32 33 33 33 33 33 34 36 34 35 35 34 35 35 34
34 33 33 33 33 33 34 34 34 34 34 34 33 34 33 34
0 0 0 0 0 0 0 15 0 0 0 0 0 2 31 21
0 0 0 2 10 1 0 0 14 27 0 0 0 0 1 5
35 27 27 27 27 27 26 26 26 27 28 29 34 33 32 27
27 65 81 90 96 105 110 112 119 128 128 129 127 122 120 120
119 104 67 17 5 12 13 27 32 30 31 32 31 31 32 31
32 32 32 32 33 33 32 35 33 33 34 33 34 34 34 34
34 35 34 34 34 34 33 33 35 34 34 33 34 34 34 34
35 35 34 34 35 35 35 34 34 34 34 34 34 34 34 34
0 0 0 9 5 0 0 12 0 0 0 0 0 0 29 19
0 0 0 3 12 8 3 0 15 25 0 0 0 0 0 5
35 27 28 28 27 27 27 26 27 27 28 29 33 31 30 28
53 74 82 88 99 110 113 117 124 122 120 116 117 116 117 117
115 114 98 44 10 21 14 21 33 31 31 31 31 30 31 31
31 32 32 32 32 32 32 35 33 34 34 34 34 34 34 34
34 34 33 33 34 33 33 34 36 34 34 34 35 34 34 34
34 33 34 34 34 34 34 34 33 33 34 34 35 34 33 34
1 10 3 2 1 0 0 11 0 1 0 0 0 2 32 19
0 0 0 6 12 11 10 3 15 24 0 0 0 0 0 5
36 28 28 28 28 26 27 27 27 27 29 29 33 31 25 49
71 78 83 101 113 115 120 139 137 138 131 131 130 128 125 122
118 111 107 71 30 33 23 10 31 31 31 31 31 31 31 32
32 32 32 32 33 32 32 34 33 33 33 34 33 33 34 34
34 34 34 34 34 33 34 34 36 34 34 34 34 34 33 33
35 34 34 34 34 34 35 34 33 32 35 34 34 34 34 33
5 3 0 2 1 0 1 10 0 0 0 0 0 5 33 18
0 0 0 6 12 11 11 3 17 23 0 0 0 0 0 5
36 27 28 27 28 27 27 28 28 28 30 30 31 28 34 72
78 83 96 111 109 110 122 132 140 141 132 140 134 136 139 136
130 118 107 97 50 35 32 12 26 31 31 32 31 31 31 31
32 31 32 32 33 33 32 34 34 33 34 33 33 33 34 33
34 34 33 33 34 34 34 34 35 35 34 34 33 34 35 34
34 33 34 34 34 34 34 34 35 34 34 34 34 34 34 33
0 0 0 0 0 0 3 18 2 0 1 0 0 16 38 22
0 0 1 0 4 10 11 1 17 30 9 2 0 0 0 5
37 28 28 28 28 27 27 27 27 28 28 20 24 27 62 80
82 87 103 101 80 79 100 116 139 137 130 140 118 120 130 137
141 135 116 105 83 34 28 22 18 31 31 31 31 31 31 31
32 32 32 32 33 34 33 34 33 33 33 33 33 33 34 35
34 34 34 34 34 34 34 34 35 34 34 33 33 34 34 34
34 34 35 34 35 34 36 35 35 35 35 34 34 34 34 34
0 0 0 0 0 0 5 47 41 27 22 14 3 0 40 42
36 27 18 8 1 1 7 0 18 40 40 34 28 18 13 14
36 28 27 28 28 28 28 27 28 27 19 17 23 41 73 81
80 78 69 55 57 74 102 123 141 139 138 143 124 109 96 99
133 140 130 113 107 64 16 28 22 29 32 32 32 31 32 31
32 31 32 32 33 33 34 34 33 34 34 34 35 35 35 34
34 34 34 34 34 34 34 34 34 35 34 34 34 34 34 34
35 34 34 34 34 34 34 35 35 34 33 33 34 33 33 32
0 0 0 0 0 0 8 51 45 40 44 44 44 39 51 29
15 21 27 32 31 25 18 11 24 41 40 37 37 40 44 45
38 28 29 29 29 28 28 28 28 25 12 20 28 54 78 74
67 54 47 50 73 98 119 123 132 128 137 142 140 130 95 61
89 128 133 124 111 106 49 15 27 26 32 32 32 32 32 32
32 33 33 33 34 34 34 34 34 34 34 34 35 34 34 34
35 34 35 35 35 35 35 35 34 34 35 35 35 34 34 34
35 34 35 36 35 35 35 34 35 35 35 34 35 34 34 34
32 22 10 2 0 0 11 51 36 44 48 50 52 42 41 23
11 13 12 12 14 16 23 32 42 36 33 37 38 43 46 46
38 27 28 29 28 29 27 28 28 21 18 21 30 62 68 59
58 57 65 65 79 96 111 105 105 109 126 142 142 138 118 77
57 88 112 119 114 112 92 15 8 20 32 32 32 32 33 33
34 32 33 33 34 35 34 35 33 34 35 35 36 35 35 34
34 34 34 34 34 34 34 33 36 34 36 36 36 36 36 36
35 35 36 35 36 35 35 35 35 35 34 35 35 35 34 34
47 48 46 41 32 20 25 38 33 43 47 49 51 45 36 24
13 13 12 11 11 9 9 8 8 10 15 22 28 33 35 38
35 29 28 29 29 28 28 27 27 18 18 19 32 68 55 69
60 38 66 45 31 64 87 91 97 109 121 131 135 128 111 94
71 61 85 103 110 112 103 50 1 7 31 32 32 32 32 33
33 33 34 33 34 33 33 34 35 34 34 34 35 35 35 34
35 35 36 34 35 35 35 35 36 35 34 35 35 35 34 34
35 35 36 36 36 36 35 35 35 34 35 35 35 35 34 34
48 48 47 46 47 47 49 31 23 38 44 47 50 45 39 27
14 14 11 9 8 8 7 8 7 8 8 8 14 30 27 23
25 29 29 28 28 28 28 28 26 15 11 12 41 65 71 80
60 69 36 56 61 51 75 81 105 125 124 122 117 111 95 48
37 48 68 88 95 103 106 69 21 1 26 33 33 34 34 33
34 34 34 34 34 35 34 34 35 34 35 35 35 36 36 37
36 35 35 35 36 36 35 35 36 35 35 35 35 35 34 34
36 36 36 36 36 35 35 35 35 36 37 36 36 36 36 36
45 48 48 49 49 49 49 18 0 2 9 17 29 32 36 29
14 12 10 6 8 8 9 8 8 9 10 9 19 25 17 28
27 29 30 30 30 29 29 29 24 8 5 12 51 67 94 71
80 83 74 84 77 69 73 107 119 121 117 116 108 108 82 86
81 72 46 77 110 97 108 81 43 9 20 34 33 33 33 34
33 34 34 35 35 34 35 34 35 34 35 36 36 36 36 37
35 36 37 37 36 36 36 36 36 36 36 36 35 35 36 35
35 37 37 37 36 37 38 37 37 37 37 36 36 36 36 37
34 35 37 38 42 47 48 12 0 0 0 0 5 12 30 29
12 11 4 0 0 1 9 12 11 9 13 13 23 27 11 26
33 30 28 23 28 29 29 27 17 2 8 16 60 74 87 51
68 85 78 67 64 67 91 136 142 142 133 118 107 106 114 113
68 63 102 80 113 104 100 93 44 19 6 33 34 34 34 36
35 34 34 33 35 34 35 34 35 35 35 36 36 36 36 37
35 36 37 36 35 36 36 35 36 35 36 35 36 35 36 36
37 38 37 38 37 37 37 36 36 35 34 34 35 36 36 36
20 23 31 31 30 40 43 8 0 0 0 1 0 6 35 27
11 10 5 0 0 0 2 5 3 1 8 10 21 36 39 37
38 38 34 6 18 30 29 28 13 0 6 28 69 81 80 66
85 97 93 75 67 72 95 133 144 143 140 126 111 96 84 113
124 131 134 103 106 119 96 99 43 22 8 28 33 33 33 34
34 34 34 34 34 35 35 35 36 35 36 36 36 36 35 37
36 36 35 35 35 35 36 35 34 34 35 36 33 35 33 35
37 36 34 35 35 37 38 36 34 34 34 34 35 34 34 31
25 23 29 30 29 41 44 5 0 0 0 0 0 0 37 23
11 7 1 0 0 3 0 0 0 0 0 1 17 38 31 26
26 28 34 35 31 29 29 28 10 2 12 43 75 87 78 77
87 96 93 83 81 87 92 125 142 144 139 129 119 95 87 101
122 129 112 96 100 136 103 101 41 25 14 26 33 32 33 35
34 34 35 34 34 35 34 35 35 36 36 36 35 36 36 37
35 36 36 35 34 35 35 35 35 34 33 34 32 32 31 31
29 27 27 25 24 22 20 19 18 17 15 15 15 14 12 13
13 22 31 35 38 43 41 3 0 0 0 0 0 0 39 10
2 0 0 0 2 9 4 0 0 0 0 0 16 39 32 22
25 26 26 27 31 30 30 29 11 8 18 56 78 88 84 86
92 92 90 89 92 96 61 94 132 113 100 134 125 115 98 105
131 143 135 102 107 134 112 104 47 24 24 25 32 33 32 34
34 34 35 35 35 36 37 37 36 35 35 35 33 31 32 29
29 28 34 31 24 23 21 21 19 18 17 17 17 16 15 15
15 14 14 13 13 13 14 15 15 15 16 16 15 16 16 16
0 0 0 5 13 20 32 3 0 0 0 0 0 2 44 8
0 0 0 0 0 6 12 3 0 0 0 0 18 41 33 13
30 32 25 27 30 30 30 29 12 6 20 62 79 84 85 91
90 87 91 94 99 101 36 77 122 92 48 141 130 125 119 113
132 143 135 114 117 129 114 105 59 24 29 20 33 33 33 31
31 30 29 27 26 25 24 22 21 20 19 18 18 17 17 17
17 17 32 32 12 15 17 18 18 18 18 19 19 20 19 20
21 20 21 21 21 21 22 21 22 21 22 21 21 22 22 22
0 0 0 0 0 0 17 2 0 0 0 0 0 5 42 5
0 0 0 0 2 7 17 10 6 0 0 0 19 41 32 9
22 19 19 27 30 30 31 29 10 12 20 64 79 86 93 96
96 98 99 100 101 111 54 109 136 134 47 137 135 129 127 132
132 134 137 128 119 127 120 105 61 32 27 14 19 19 18 18
17 18 17 18 18 19 19 19 20 20 21 21 21 22 21 22
21 21 25 23 15 21 23 24 23 24 25 24 25 25 25 25
25 26 26 26 26 26 27 26 27 27 27 27 27 27 27 27
0 0 0 0 0 0 16 0 0 0 5 0 0 4 42 2
0 0 0 0 13 15 17 12 10 0 0 0 21 42 33 18
19 20 16 27 30 30 30 30 15 10 24 68 81 96 102 108
119 122 112 107 106 101 88 118 142 142 103 127 137 135 138 142
139 136 133 127 123 122 117 105 63 27 23 18 21 21 22 23
23 23 24 24 25 25 24 24 24 26 26 26 27 27 28 28
28 27 32 31 19 27 29 29 29 29 29 29 29 30 30 29
29 30 30 31 31 31 31 30 30 30 30 30 30 30 30 30
0 0 6 1 0 0 16 0 0 5 16 6 0 6 38 0
0 0 0 0 11 15 19 5 3 0 0 1 21 42 33 23
20 11 16 26 29 30 30 30 15 11 34 71 85 100 104 116
131 142 139 113 94 78 85 130 144 142 125 133 133 140 142 142
141 141 139 131 120 117 112 104 60 25 22 25 27 27 27 28
28 29 29 29 30 30 30 30 29 30 31 31 31 31 31 31
30 28 26 24 22 30 30 30 31 31 32 32 33 32 32 31
31 31 32 32 32 32 32 32 32 33 33 33 32 33 33 33
0 5 19 6 1 0 16 0 0 14 15 9 0 9 35 0
0 0 0 0 0 5 12 0 0 0 0 0 20 42 34 24
12 3 6 24 29 30 30 30 15 9 45 73 88 100 107 122
135 127 111 100 84 80 110 139 139 139 124 111 126 141 143 143
142 142 141 140 133 119 109 105 58 24 16 29 31 31 30 31
31 32 32 32 32 32 33 31 32 32 32 32 32 32 32 32
31 27 7 6 20 32 34 33 33 33 33 33 33 34 34 34
34 33 34 33 33 33 34 34 34 34 33 33 32 33 34 33
0 7 19 6 4 0 24 24 18 23 18 15 4 11 31 0
3 0 0 0 0 6 13 0 0 0 0 0 18 42 32 14
6 3 5 23 29 30 31 30 13 15 58 75 90 99 108 123
111 100 105 95 95 109 127 140 134 139 139 119 112 129 141 143
142 141 142 141 140 125 110 103 63 21 16 29 32 32 32 31
33 32 32 34 34 33 34 34 33 34 34 35 34 31 29 25
29 25 7 3 16 32 35 35 35 34 33 34 34 34 35 34
34 33 34 34 33 33 34 34 34 34 34 35 35 35 34 34
0 1 2 0 0 0 26 40 41 45 43 41 39 39 31 0
0 0 0 0 0 5 14 0 0 0 0 0 16 43 27 7
8 0 4 23 28 30 30 31 11 17 64 75 90 99 111 111
102 109 108 105 108 109 117 127 136 138 143 140 123 117 125 140
143 143 141 142 142 129 113 107 74 22 16 27 33 33 33 33
34 34 34 34 34 35 35 35 35 34 35 35 29 2 0 0
17 19 8 4 16 32 35 35 36 34 34 35 34 34 34 35
35 34 35 34 35 35 35 34 34 35 35 34 33 34 33 34
5 1 0 0 0 0 28 41 43 44 43 45 50 52 36 7
6 4 0 0 0 8 14 0 1 0 0 0 13 43 20 4
6 0 14 23 28 30 31 31 9 23 68 75 90 100 109 103
118 116 111 99 88 106 122 129 130 130 129 137 141 127 123 127
142 142 141 141 139 130 114 107 82 27 15 31 34 33 34 34
34 35 34 34 34 35 35 35 35 35 36 35 34 24 25 28
29 22 0 0 17 32 34 35 35 35 35 34 34 35 35 35
35 35 35 35 34 33 34 33 34 36 34 34 34 34 34 34
1 0 0 0 0 0 27 37 40 41 41 45 53 53 45 31
31 28 20 15 14 16 16 5 3 0 0 0 8 40 18 4
0 1 8 24 29 31 32 30 9 40 67 74 88 100 104 115
132 111 82 79 104 122 124 117 121 132 140 122 129 142 135 133
135 143 142 142 140 130 114 109 87 30 14 29 34 33 33 34
34 34 34 34 34 35 36 36 35 35 36 35 35 34 33 32
31 23 0 1 19 33 35 35 35 34 34 35 34 34 34 35
34 34 35 33 34 35 34 34 34 34 35 34 35 34 33 33
0 0 0 0 0 0 34 34 36 37 37 38 37 38 38 35
35 34 33 32 33 30 27 24 19 18 15 14 20 37 20 10
7 10 1 17 28 30 33 66 75 81 63 73 88 98 104 131
138 91 82 96 116 124 123 124 125 134 141 141 118 130 142 141
136 140 141 140 138 126 109 107 85 33 9 30 34 34 34 34
34 34 34 34 35 34 35 35 35 35 35 35 35 34 33 32
32 26 3 0 23 33 34 34 35 34 35 34 35 35 35 34
35 34 35 33 34 34 34 33 34 34 34 34 34 34 34 34
15 9 3 1 0 0 37 35 34 34 34 35 34 30 33 36
37 37 35 34 35 34 34 32 29 26 22 21 25 38 30 23
19 15 10 14 29 32 47 69 94 90 60 71 83 95 106 133
118 90 91 105 125 132 124 119 129 136 142 143 137 111 132 140
142 141 142 138 134 124 107 106 85 42 14 33 33 33 33 34
34 34 35 34 34 36 35 35 35 35 35 34 35 34 34 32
30 26 9 5 27 33 35 36 36 35 34 34 34 35 34 34
34 34 34 33 34 34 35 34 34 35 34 34 34 34 34 33
44 44 37 37 35 27 44 38 35 36 35 35 36 37 40 37
38 41 44 41 35 34 34 33 41 40 36 31 31 40 45 42
40 36 30 25 28 31 62 77 96 90 59 69 81 91 108 120
108 94 99 113 123 114 111 118 123 133 143 143 141 129 108 132
142 140 141 138 129 118 103 105 87 54 15 35 34 34 33 34
34 34 34 34 34 34 35 34 34 35 35 34 35 34 34 32
30 25 22 21 29 34 34 34 35 34 34 34 34 33 34 34
35 34 35 33 34 34 33 34 33 34 34 33 34 34 34 33
54 52 52 52 52 51 51 41 38 37 37 37 39 42 45 39
39 43 50 44 36 32 34 36 45 44 42 38 39 36 32 31
34 36 38 35 29 32 81 87 102 94 62 67 77 90 107 105
97 96 103 109 98 104 128 134 139 129 139 143 141 135 126 130
142 141 140 135 129 118 103 103 91 86 59 49 32 33 33 33
34 34 34 33 34 35 35 35 34 34 35 34 34 33 34 32
29 26 26 28 33 34 34 36 35 34 34 34 33 34 34 34
34 33 33 33 32 34 33 33 33 35 34 34 34 33 33 32
47 49 51 52 53 53 53 34 30 28 31 33 38 45 49 40
41 42 45 39 35 33 28 33 46 44 41 40 40 37 31 22
20 20 20 23 30 36 99 91 106 89 65 66 78 91 102 97
92 95 95 86 89 119 139 141 139 129 128 141 140 136 134 137
142 141 134 129 121 114 101 98 92 115 118 96 39 33 34 34
33 34 33 33 34 33 34 34 34 34 35 35 34 33 33 32
30 28 29 33 33 34 34 34 34 34 34 33 34 34 34 34
35 34 34 34 34 33 33 33 34 33 34 33 34 34 33 33
27 26 27 30 33 37 43 19 1 4 1 3 7 17 43 40
39 27 25 34 35 32 31 28 34 29 32 38 40 39 37 28
26 24 24 26 31 41 107 100 116 94 72 67 74 81 95 89
88 90 90 83 105 126 141 143 140 130 120 133 136 135 133 138
142 140 131 125 118 110 98 94 98 119 111 84 54 34 34 34
35 35 35 34 34 34 35 35 35 35 35 35 33 33 33 32
31 31 31 34 35 35 35 35 35 35 35 35 35 35 34 35
34 34 35 34 34 34 35 34 34 34 34 33 34 33 33 33
35 33 31 29 27 27 29 14 1 0 0 0 0 0 37 40
26 1 1 3 8 9 25 31 20 3 0 3 12 17 30 34
30 29 31 31 32 38 94 110 127 103 80 65 76 86 91 83
86 89 88 98 113 124 137 143 138 133 122 125 132 139 137 139
140 138 130 118 112 108 95 90 105 120 121 111 64 33 34 35
35 34 33 34 34 34 34 34 34 34 34 34 33 33 33 33
31 32 33 33 33 33 33 32 33 34 33 34 33 34 33 34
33 34 34 34 34 33 33 33 33 33 32 27 32 33 33 33
37 38 37 36 36 34 35 13 2 0 0 0 0 10 38 36
7 0 0 0 0 6 29 33 18 0 0 0 2 9 26 27
27 30 35 37 41 42 89 105 110 105 89 64 74 88 82 77
85 85 92 112 119 126 131 143 139 137 130 121 132 137 138 139
138 134 130 118 110 103 92 90 107 117 112 119 78 32 33 33
34 33 33 33 33 33 34 33 33 33 33 34 33 33 33 33
31 33 34 33 34 33 34 34 34 35 34 33 32 33 33 33
33 34 33 33 33 33 33 33 34 32 33 33 34 32 32 31
39 39 37 37 38 38 37 13 3 0 0 0 0 12 40 30
1 0 0 0 0 1 32 32 19 0 0 0 0 9 25 5
2 5 9 12 26 41 74 87 101 107 97 59 71 83 77 76
83 82 97 117 123 128 131 137 137 141 132 128 135 136 135 133
133 134 127 119 109 100 90 97 117 124 119 119 100 33 35 34
34 34 34 34 34 34 34 33 34 34 34 34 34 34 33 33
33 35 35 34 34 35 35 35 34 34 33 33 33 33 34 33
33 34 34 34 33 34 33 33 33 33 32 32 33 32 32 31
11 17 24 29 34 39 41 10 0 0 0 1 4 1 36 22
0 0 0 0 0 1 33 32 16 0 0 0 0 7 26 4
1 9 3 0 14 42 52 92 106 107 100 57 64 77 74 75
77 78 95 111 116 122 124 132 138 132 127 134 129 134 132 132
134 135 126 116 106 97 86 112 125 140 131 116 100 33 35 33
33 33 34 32 33 34 34 33 34 35 34 34 34 33 33 34
34 34 34 34 33 34 34 34 34 34 35 34 34 34 34 33
33 34 33 33 33 33 33 33 34 33 33 32 32 31 31 30
30 25 21 16 4 19 45 17 1 0 0 0 5 0 37 19
0 0 0 0 0 2 34 30 14 0 0 0 0 6 28 4
3 10 7 0 14 40 42 75 100 105 92 51 57 65 70 69
71 72 86 102 111 108 114 120 125 126 127 125 125 129 129 127
136 133 124 113 105 94 89 135 129 131 128 114 80 33 34 34
33 33 33 33 33 33 33 32 33 33 33 32 33 33 33 34
34 35 35 34 33 33 34 33 33 33 33 33 33 33 33 33
34 33 33 34 34 33 33 33 33 32 31 31 30 30 30 29
35 34 34 34 12 14 46 21 5 0 0 2 3 0 35 16
0 0 0 0 0 3 35 29 12 0 0 0 0 0 27 4
1 2 0 0 14 41 35 62 80 80 34 32 51 52 58 57
59 61 67 87 94 98 96 103 114 118 121 117 118 123 123 124
129 129 119 108 102 93 108 135 124 111 111 111 49 33 33 32
32 32 32 31 31 32 32 33 32 33 32 32 33 33 33 34
34 34 33 33 34 34 33 34 34 34 33 34 33 33 33 33
33 32 33 33 32 32 32 33 32 32 32 31 30 30 28 28
35 35 34 33 12 14 46 11 0 0 0 1 3 0 35 14
0 0 0 0 0 1 34 28 15 0 0 0 0 0 28 4
3 7 3 0 15 40 30 28 37 31 10 43 47 47 48 45
51 51 54 66 75 86 82 84 99 102 108 108 111 115 113 119
124 127 115 104 98 88 120 137 127 121 106 77 20 20 19 19
18 18 20 25 29 32 32 32 30 17 18 18 18 17 20 27
33 34 33 34 34 34 33 32 33 34 33 33 32 32 32 32
34 33 32 32 33 32 32 31 31 30 31 30 29 28 28 28
27 30 32 33 14 12 42 5 0 0 0 0 0 0 37 13
0 0 0 0 0 0 34 29 12 0 0 0 0 0 30 4
0 0 0 0 16 39 28 27 32 33 23 44 49 48 44 39
40 48 52 61 75 82 83 76 86 92 97 97 104 107 110 115
119 117 107 99 89 80 67 135 129 111 90 32 4 9 9 8
3 3 3 3 18 32 32 32 30 8 6 6 6 6 7 20
34 34 34 33 33 34 33 33 33 33 33 33 33 32 33 33
35 33 32 33 32 31 32 32 32 31 31 31 29 29 28 27
0 24 32 33 16 10 36 3 0 0 0 0 1 0 39 15
0 0 0 0 0 0 34 29 9 0 0 0 0 0 30 8
0 0 0 0 16 37 27 28 32 32 31 26 57 46 48 47
44 50 57 63 78 85 86 85 86 93 94 95 98 100 103 108
110 106 102 94 83 62 30 110 119 106 77 8 5 9 7 8
3 3 2 3 16 32 33 32 29 8 7 6 7 6 7 22
35 35 35 35 34 34 34 33 34 32 33 33 32 32 33 33
34 33 33 33 33 32 32 32 32 31 31 30 29 28 28 27
0 29 35 32 17 7 35 18 13 9 6 8 13 5 37 25
6 4 4 3 1 2 35 30 17 6 3 1 2 1 32 9
0 0 0 0 19 36 25 30 32 33 35 21 60 49 50 55
52 56 58 64 80 86 89 91 92 95 94 95 95 96 97 101
102 97 94 86 82 77 7 36 75 74 27 4 6 11 8 8
3 3 2 1 14 31 32 32 26 7 7 7 6 7 7 23
35 35 35 35 34 34 35 34 33 33 33 34 33 33 33 33
34 33 33 33 33 32 32 32 32 31 30 30 29 28 27 26
0 30 38 33 19 4 38 39 38 31 33 34 35 39 39 46
48 43 43 42 40 38 45 31 33 37 37 36 37 37 44 12
2 0 0 0 22 33 25 30 32 33 36 25 56 58 52 57
59 57 60 66 81 91 97 96 96 100 100 97 96 93 94 93
91 90 85 74 94 90 8 28 36 35 19 4 5 11 9 8
3 4 4 3 18 33 33 34 27 7 6 7 7 6 7 21
34 35 36 36 35 35 34 33 34 34 35 34 34 34 34 32
34 33 33 33 33 33 33 32 32 32 31 29 29 27 26 26
0 30 39 33 19 4 39 39 35 35 37 36 33 33 33 42
52 49 46 47 50 51 51 35 33 40 41 44 49 53 52 35
30 27 25 23 29 31 26 30 32 34 37 25 53 66 52 58
63 59 59 64 79 87 95 97 100 105 102 102 103 98 94 93
88 84 73 84 99 67 14 35 35 34 18 5 6 11 11 8
4 4 3 3 20 34 34 34 27 9 8 8 10 8 8 22
37 37 35 35 35 35 35 34 34 34 34 34 34 34 34 34
34 35 35 34 34 34 34 32 32 32 31 30 30 27 26 25
0 32 40 33 21 4 40 30 29 28 33 36 35 34 32 31
39 41 43 43 46 47 49 38 27 35 39 43 50 53 52 35
31 30 30 31 33 31 28 28 32 34 35 28 54 70 57 56
61 61 59 65 78 90 95 101 102 105 106 105 108 101 98 93
86 80 78 97 100 46 29 34 34 33 17 5 5 8 6 6
4 4 3 4 21 35 34 34 30 17 16 15 16 17 15 21
33 33 34 34 34 34 34 33 33 35 34 33 34 34 33 34
34 34 34 34 34 33 33 33 33 32 28 28 27 25 24 22
0 31 39 32 23 6 40 20 24 27 27 33 35 34 36 27
21 22 23 23 23 23 27 30 26 29 32 33 30 28 31 32
32 31 31 30 28 30 29 27 31 32 34 34 58 73 64 57
58 62 62 63 75 86 96 99 101 105 106 107 103 104 103 97
90 80 92 101 98 46 34 35 35 33 16 4 5 4 3 4
4 5 3 3 20 32 34 33 28 9 10 11 11 11 12 20
34 36 36 35 35 35 35 35 32 33 34 35 35 34 34 35
34 33 33 33 33 32 32 31 30 30 29 27 26 25 24 23
0 29 40 32 29 25 41 10 1 3 6 9 14 17 33 28
24 25 25 29 28 27 29 31 32 33 35 34 32 28 27 30
31 31 31 32 31 30 30 30 29 30 35 37 63 76 69 60
60 63 65 69 77 90 97 99 104 105 106 106 105 103 101 95
88 86 100 103 97 43 35 35 34 31 16 5 4 1 0 5
4 5 3 3 22 33 35 34 28 8 9 8 8 8 8 20
35 35 35 34 35 35 35 35 35 34 34 35 34 33 34 33
33 33 31 32 33 33 32 31 31 29 28 27 25 24 22 21
0 28 39 32 33 44 44 9 0 0 0 0 1 6 32 31
37 37 35 44 45 35 34 36 38 41 45 44 39 31 29 30
31 31 31 30 30 30 30 30 32 34 38 36 66 77 73 67
59 60 66 70 83 93 99 102 105 108 110 109 108 105 100 93
90 91 101 106 93 39 34 35 32 28 14 4 4 5 8 10
5 5 4 2 22 33 34 33 27 9 8 9 9 8 8 22
36 36 35 34 34 34 34 35 34 34 34 33 35 33 34 33
34 33 33 33 33 31 31 30 29 29 27 25 24 23 21 21
0 26 38 31 33 45 47 12 0 0 0 0 0 4 38 29
39 39 35 49 52 14 10 13 16 22 29 43 40 31 30 29
31 31 31 31 30 30 30 29 31 32 37 36 68 75 71 70
66 60 67 70 86 96 102 108 109 110 109 111 108 99 98 95
91 95 101 105 95 40 35 34 32 28 14 4 4 0 0 4
4 4 2 3 22 33 34 33 27 8 8 9 8 8 8 22
35 34 35 34 35 34 35 34 34 34 34 33 33 34 33 32
32 32 32 32 31 30 30 29 28 27 26 24 23 22 21 19
0 25 38 30 31 42 43 14 0 0 0 0 0 2 39 27
37 30 6 14 36 5 0 0 0 0 5 39 42 32 32 31
31 31 31 31 30 30 30 29 31 33 37 37 68 79 72 76
72 64 66 73 88 102 106 107 111 114 113 110 106 99 97 93
93 96 101 106 95 41 34 33 30 28 13 4 4 0 0 4
4 5 3 2 23 32 34 32 25 7 8 7 7 8 8 23
36 35 35 34 35 34 34 34 34 34 33 34 33 34 33 34
33 32 33 31 31 30 29 28 26 26 25 23 22 21 20 19
0 23 38 30 26 14 12 0 0 0 0 0 0 4 40 27
37 27 0 1 31 5 0 0 0 0 3 37 40 31 31 31
31 30 30 30 30 29 30 29 30 32 38 34 67 79 75 78
75 67 67 73 92 106 109 112 111 114 114 109 106 101 97 93
95 99 105 107 95 43 34 33 30 28 14 3 4 2 3 4
3 4 2 2 23 32 34 33 24 6 7 7 7 7 7 24
34 34 34 34 34 34 33 34 33 34 34 33 33 34 33 33
32 32 31 31 30 30 29 27 27 26 25 22 22 20 19 19
0 22 37 29 25 12 8 0 0 0 0 0 0 6 39 28
38 25 0 1 30 6 0 0 0 0 1 35 40 30 31 31
31 30 30 30 29 29 29 29 30 32 36 31 68 80 78 78
80 74 69 75 93 106 112 115 112 113 115 113 107 103 98 95
99 102 107 106 97 44 33 31 30 28 12 3 3 3 3 4
3 4 3 2 24 32 33 32 23 6 7 7 7 7 8 25
34 35 34 33 34 33 33 33 33 32 33 33 33 32 32 32
32 32 31 31 31 29 28 28 26 25 24 21 21 20 19 18
0 22 37 30 25 14 9 0 0 0 0 0 0 7 37 27
38 22 0 1 31 6 0 0 0 0 0 34 39 31 31 30
31 30 30 30 30 29 29 30 30 32 34 31 69 84 82 79
81 75 70 75 89 109 117 119 119 118 117 114 108 106 101 99
104 107 107 109 101 47 34 32 30 28 12 2 3 3 3 2
3 4 2 2 24 31 33 32 23 6 7 7 8 7 7 25
34 34 33 33 33 33 33 33 32 32 33 33 32 33 33 32
31 30 30 30 29 27 28 27 25 24 23 21 20 18 18 17
0 22 37 29 26 17 9 0 0 0 0 0 0 5 39 28
39 20 0 2 28 6 0 0 0 0 0 32 40 30 30 30
30 30 30 29 29 28 28 29 30 31 33 30 68 86 84 82
79 77 73 78 92 110 119 125 125 121 121 119 112 108 107 107
109 106 112 109 105 50 32 32 30 28 12 2 3 2 3 3
2 4 1 2 25 31 33 31 25 9 9 8 7 6 7 25
34 34 34 33 34 33 34 34 33 33 32 33 33 32 32 31
31 30 30 30 29 28 27 26 24 23 22 20 19 17 17 17
0 23 37 29 26 19 8 0 2 0 0 5 0 4 39 29
39 21 2 3 28 9 1 0 0 0 0 31 38 29 30 30
29 29 28 29 29 28 29 29 30 32 35 31 67 86 87 85
83 78 74 79 94 110 122 130 131 127 124 119 113 108 108 109
113 116 120 114 107 49 31 31 30 28 12 3 3 3 2 2
2 3 1 2 25 31 34 32 32 30 31 27 19 26 23 30
33 33 33 33 32 33 33 32 32 33 33 33 33 33 33 31
31 30 29 30 28 28 27 25 24 23 22 20 19 18 18 17
0 23 36 28 25 19 10 1 2 0 0 9 10 4 41 31
40 21 14 2 27 8 4 1 3 0 0 31 37 29 30 30
30 29 30 29 29 28 28 28 29 31 35 32 66 85 89 88
85 78 75 79 93 112 122 127 129 128 126 121 115 109 109 113
120 124 126 120 106 37 20 25 28 27 10 3 2 3 2 2
2 3 2 3 25 30 31 32 33 33 33 33 32 32 31 32
34 33 33 34 33 33 33 33 32 32 33 32 32 32 32 31
31 31 30 30 29 28 27 25 25 24 22 20 19 18 18 17
0 24 35 28 25 19 20 11 14 10 9 15 16 10 42 31
41 15 22 5 27 3 4 9 6 0 0 31 35 28 30 29
29 28 28 28 28 28 27 28 29 30 25 7 63 83 92 94
86 80 75 79 93 108 120 125 128 131 123 121 116 111 109 118
125 129 131 122 107 31 0 1 3 10 11 6 3 2 3 2
2 2 0 3 26 31 33 33 33 33 34 34 35 34 34 34
34 34 33 33 33 34 33 33 33 32 32 33 33 33 32 32
30 30 30 29 28 27 26 24 23 22 23 22 20 20 18 18
0 25 36 28 24 19 33 39 42 42 41 42 42 44 52 35
42 8 22 12 26 9 9 10 6 2 1 27 32 29 30 29
29 30 29 29 28 28 28 28 28 17 1 0 60 81 94 98
96 84 77 79 91 103 115 131 134 133 125 121 114 112 112 121
131 135 133 122 107 39 0 0 0 0 6 11 12 8 7 5
3 2 3 11 27 31 32 31 32 32 33 32 32 31 33 32
32 32 32 32 33 33 33 33 32 33 32 33 32 32 32 30
30 29 29 29 28 27 26 25 24 23 21 19 18 18 18 18
0 24 35 27 25 18 32 46 45 45 45 46 46 50 56 42
40 5 9 15 27 24 25 24 23 21 21 24 25 28 28 28
29 28 28 27 28 27 28 28 22 3 0 0 61 81 94 103
104 92 84 81 92 103 106 127 132 133 125 121 115 112 117 130
136 139 134 123 106 43 0 0 0 0 0 6 16 18 17 14
5 1 13 19 28 31 32 32 32 33 32 32 31 32 33 32
32 32 33 32 31 31 32 32 32 33 32 32 32 31 31 31
31 30 29 28 28 26 25 24 23 21 21 19 18 17 17 16
0 26 34 26 24 18 20 32 32 33 34 35 37 41 45 41
38 4 1 5 27 21 24 24 23 23 22 22 25 28 29 28
29 28 28 28 28 27 28 27 10 0 0 0 63 81 94 108
112 103 92 89 94 104 99 115 126 129 128 121 117 117 122 138
139 140 134 123 107 64 2 0 0 0 0 5 16 16 18 16
4 2 16 23 29 31 32 33 32 32 32 31 30 31 32 31
31 32 33 32 31 32 32 32 33 32 32 32 32 32 31 30
31 29 28 28 28 27 26 24 24 22 21 19 18 17 17 16
0 26 33 25 23 18 11 8 8 7 8 9 10 13 17 22
35 3 1 2 27 24 27 29 27 27 27 27 27 28 29 28
28 28 28 28 27 27 27 24 3 1 0 5 69 79 87 108
118 115 106 93 98 108 110 115 122 128 132 129 123 120 129 142
141 140 136 121 108 89 49 1 0 0 0 5 16 16 21 19
5 3 19 25 28 31 31 31 32 31 31 31 30 31 32 31
32 32 32 31 31 31 31 32 33 33 32 33 32 32 32 31
32 29 29 28 28 27 26 24 23 21 20 18 17 18 17 16
0 28 32 24 23 18 14 10 9 9 9 9 11 12 16 24
35 3 0 2 27 25 28 28 28 28 28 28 27 28 28 27
28 28 28 28 28 27 28 16 2 1 0 27 69 80 87 105
114 119 119 102 101 110 115 121 125 133 134 130 124 127 139 144
143 141 132 120 110 97 91 57 4 0 0 5 16 12 21 20
5 3 21 25 29 30 32 31 32 32 32 30 28 30 32 31
31 31 31 30 31 31 31 34 35 36 34 34 34 33 32 31
32 30 30 29 28 27 27 25 24 22 21 20 18 18 17 16
0 28 31 24 22 20 18 16 15 13 12 12 13 14 17 27
36 9 7 8 29 23 28 27 28 28 28 28 28 28 28 27
27 27 27 27 27 26 26 8 6 3 3 59 70 81 88 103
114 120 122 111 103 112 118 125 128 133 135 132 129 136 142 143
143 140 129 116 113 97 99 94 50 1 0 9 16 11 20 21
6 4 23 24 29 30 30 30 30 31 30 30 28 30 32 30
31 25 16 17 18 21 36 45 46 46 45 44 43 42 41 39
38 36 34 33 32 31 30 27 26 24 22 21 20 20 18 18
0 31 32 24 21 20 18 16 16 16 16 15 15 17 17 30
37 27 41 44 39 22 27 27 28 27 27 27 27 27 26 27
27 27 27 27 27 26 19 4 9 8 14 70 72 80 86 102
113 121 125 117 106 112 122 126 128 135 138 134 130 137 143 143
142 139 127 114 117 102 103 104 79 18 30 18 14 10 14 22
7 4 23 25 28 30 30 30 30 31 30 30 26 29 31 29
28 10 0 0 0 3 48 52 53 53 52 52 52 52 51 51
50 49 48 47 46 44 42 40 38 36 34 31 28 26 23 22
16 31 30 23 20 18 18 16 16 16 16 17 17 18 17 25
28 22 33 35 31 22 26 26 26 26 27 27 27 27 27 27
27 26 27 27 26 21 7 4 10 14 20 77 75 81 88 101
113 121 129 120 110 114 121 128 127 137 141 136 134 142 143 144
142 136 128 119 119 110 108 111 81 28 24 14 14 9 11 17
8 4 24 27 28 28 29 29 30 29 29 28 25 29 31 30
29 7 0 0 0 6 51 52 52 52 51 52 52 52 52 51
51 50 50 49 49 48 46 44 43 42 40 39 38 37 36 35
25 24 24 23 21 20 19 18 16 17 16 16 17 18 20 23
23 19 18 23 23 24 26 27 26 27 27 26 26 26 26 26
26 26 26 27 22 6 7 5 12 15 36 81 80 83 90 101
113 120 127 125 115 114 122 133 132 137 139 137 139 143 144 142
140 135 128 123 120 113 114 115 73 34 21 16 14 9 9 12
11 5 25 28 28 29 30 30 31 30 30 28 23 28 30 29
27 4 0 0 0 13 52 52 52 52 52 52 53 53 51 51
51 50 49 48 48 47 45 44 43 42 40 39 38 37 36 36
24 23 24 23 20 19 18 18 17 16 17 16 17 18 22 24
23 23 19 22 23 23 25 25 26 26 26 26 26 25 26 26
26 26 26 25 9 5 5 6 11 17 51 96 86 84 94 101
114 121 124 130 119 116 119 131 134 135 136 140 144 143 144 144
139 135 130 127 122 117 121 116 57 34 16 17 13 10 10 11
14 23 25 27 29 29 29 29 29 30 29 29 21 28 31 29
26 2 0 0 0 20 52 52 52 51 52 52 52 52 52 51
51 50 50 49 49 47 47 45 44 42 40 39 38 38 37 37
24 24 24 23 20 18 19 18 19 18 17 16 17 18 21 24
23 22 21 23 24 24 25 25 26 25 25 26 26 25 25 25
25 24 20 8 3 5 4 6 12 18 53 128 96 88 96 103
116 124 126 134 127 121 120 127 131 132 136 142 143 144 143 142
137 136 132 128 122 122 128 109 49 29 15 14 12 9 8 10
14 22 23 28 30 31 29 30 30 30 29 28 20 27 30 29
25 1 0 0 0 28 52 51 52 52 52 52 52 52 51 50
50 50 49 49 48 47 46 45 43 42 41 40 38 37 37 36
17 16 14 17 18 17 18 18 18 17 17 18 18 19 23 24
24 23 22 22 23 24 24 25 25 25 25 24 25 25 25 25
25 14 8 6 3 4 5 7 13 19 45 139 117 96 101 107
117 126 131 137 135 127 126 127 130 132 139 144 144 144 143 141
138 138 137 130 126 127 130 79 49 18 16 14 10 9 10 11
13 23 28 27 23 28 29 29 30 29 30 26 7 16 28 29
23 0 0 0 0 36 52 51 51 51 51 51 51 51 51 51
50 49 50 49 48 48 47 45 43 42 40 39 38 36 37 36
13 14 15 17 18 18 18 18 17 18 18 17 18 19 23 23
23 23 23 23 23 24 25 25 25 24 25 25 25 24 24 23
15 7 8 4 3 3 6 8 14 19 38 132 146 114 108 111
120 126 130 140 142 132 131 134 134 135 140 145 144 144 143 137
136 139 139 133 130 134 115 66 41 16 17 14 10 9 11 12
13 20 26 25 32 59 30 28 30 29 29 26 13 20 28 27
19 0 0 0 0 42 51 50 50 51 51 51 51 51 51 50
50 50 49 48 48 47 46 45 43 42 41 39 38 38 36 37
14 15 16 16 16 17 17 17 17 17 18 17 19 20 25 24
23 24 24 23 23 23 24 24 24 24 25 24 25 27 28 25
10 6 10 5 4 4 5 9 14 21 44 118 148 144 125 119
126 137 133 142 145 142 139 138 138 137 142 144 144 145 143 137
139 142 142 140 137 130 84 88 24 17 15 13 10 10 11 13
15 19 25 25 32 67 44 30 26 30 28 26 21 28 27 27
16 0 0 0 2 46 51 50 50 50 49 51 51 51 51 51
50 50 49 49 48 48 47 45 44 42 41 40 38 37 36 36
12 15 16 16 17 17 18 17 18 18 18 18 18 21 24 23
23 22 24 23 23 23 24 24 24 24 24 26 29 27 15 10
0 1 6 5 3 4 5 10 18 22 45 110 149 147 145 130
129 142 136 143 145 144 144 141 141 140 142 144 144 144 143 139
141 143 143 142 141 107 105 67 17 17 14 12 11 12 13 13
15 19 19 16 18 51 42 30 29 27 32 40 25 28 28 27
13 0 0 0 6 49 51 50 50 50 50 51 51 51 50 50
50 50 49 49 48 47 46 45 43 43 41 40 39 38 37 36
12 17 19 19 20 20 21 21 21 22 22 22 23 24 25 24
23 22 23 24 23 23 23 23 23 23 26 18 17 14 12 8
0 4 6 6 3 3 4 8 15 21 34 103 147 148 147 146
137 145 144 144 146 145 142 141 140 136 139 141 145 144 144 142
144 144 143 143 132 118 117 24 18 17 12 11 11 11 13 14
14 18 12 11 13 38 43 29 27 27 29 41 40 30 27 26
11 0 0 0 13 51 50 50 51 50 51 50 50 51 50 50
51 50 50 49 49 49 46 46 44 42 42 39 39 37 37 36
16 18 19 22 25 25 24 25 24 25 26 25 25 25 25 23
22 22 23 23 23 23 23 24 25 28 28 19 17 12 14 6
0 4 6 3 3 2 2 6 13 20 24 72 144 147 148 146
147 146 145 145 146 146 142 133 139 135 136 140 145 145 145 143
144 144 144 141 139 129 57 17 18 14 13 11 11 12 14 16
17 19 14 14 14 43 46 21 21 18 18 23 32 36 34 30
7 0 0 0 19 50 49 49 49 49 50 50 50 50 51 50
51 50 49 49 48 47 47 45 45 43 42 41 39 39 37 36
16 16 15 17 32 24 24 24 25 25 25 24 24 24 25 24
23 22 23 23 24 22 24 25 27 24 23 18 18 10 8 0
0 3 5 5 3 2 0 3 9 16 22 51 137 147 147 147
147 147 147 146 146 146 142 139 137 133 135 141 144 144 144 144
144 144 145 145 138 98 23 19 16 13 11 11 12 13 15 16
16 18 14 13 12 38 52 16 13 11 13 15 20 28 29 39
31 3 0 0 27 50 49 49 50 49 49 49 50 49 50 49
49 49 49 48 48 47 47 46 45 44 42 41 39 38 37 36
9 9 9 12 33 25 21 22 23 24 24 24 25 24 24 23
22 22 22 23 23 23 21 23 24 23 18 17 10 9 7 0
0 4 5 5 3 1 1 1 7 11 16 22 76 132 148 147
147 147 147 147 146 146 143 144 144 138 138 140 143 145 145 145
145 146 145 139 76 28 20 18 14 12 13 12 14 15 16 17
16 18 10 10 8 29 50 18 17 14 12 15 17 22 20 27
41 40 14 0 33 48 49 48 48 49 49 49 49 50 50 50
50 49 49 48 47 47 46 45 44 43 42 40 40 39 37 37
10 9 9 12 32 25 17 15 17 18 19 20 21 22 23 23
23 22 23 24 23 15 31 26 21 24 16 14 10 14 10 0
4 6 5 4 2 1 0 0 3 5 3 23 49 85 123 149
148 147 147 147 147 147 147 145 145 144 139 140 143 145 145 145
146 145 132 101 28 21 18 14 13 13 14 14 15 16 16 16
17 18 11 10 10 25 46 18 12 12 9 7 11 17 13 19
35 37 44 22 39 48 49 48 49 49 48 50 49 49 50 49
49 49 48 48 48 47 47 46 45 44 43 41 40 38 37 36
8 8 8 11 31 25 17 15 15 16 16 16 17 18 19 21
22 22 23 23 13 21 52 41 33 28 20 18 22 26 24 11
7 8 4 3 2 0 0 0 1 1 0 12 25 31 76 146
147 147 147 147 147 146 146 146 146 146 147 147 146 146 146 145
137 107 96 84 18 18 13 10 11 13 14 16 15 15 16 16
15 26 26 21 16 32 59 28 10 10 7 5 7 15 12 19
30 35 38 45 44 47 47 48 47 48 48 48 49 49 49 49
49 48 49 48 48 47 46 46 44 43 43 41 40 39 37 37
6 6 5 6 28 25 17 14 14 14 14 14 14 14 15 18
23 27 24 16 18 34 56 44 37 42 33 24 28 28 24 13
7 8 5 4 2 1 0 0 0 0 0 1 51 18 30 121
148 146 147 147 147 147 147 146 146 146 146 146 145 146 144 107
40 48 73 47 10 15 12 12 14 16 16 16 16 16 16 15
16 27 26 31 25 36 58 35 22 13 10 7 11 22 24 24
28 29 38 44 39 46 47 47 48 47 49 48 48 48 48 48
48 48 47 47 47 47 47 46 45 44 43 42 40 39 38 36
28 25 13 8 27 25 16 14 14 14 14 14 14 14 15 19
28 23 13 13 34 39 49 44 38 42 30 18 24 24 21 16
27 16 7 5 3 2 0 0 0 0 0 0 15 39 13 70
140 147 147 147 146 146 146 145 146 146 145 146 145 142 92 45
42 56 56 3 0 14 15 16 16 17 16 16 16 16 16 16
16 31 21 26 28 33 49 32 25 26 27 24 15 22 25 35
28 28 51 33 29 42 47 47 47 47 47 48 47 48 48 48
49 48 48 47 47 47 46 45 45 44 43 41 40 38 38 36
24 24 27 25 27 25 17 14 14 14 14 14 13 14 15 22
29 15 9 25 38 60 85 78 42 39 36 55 57 64 53 26
24 15 9 6 3 2 2 0 0 0 1 2 2 15 9 31
89 131 140 147 147 147 146 146 146 146 145 144 143 89 36 25
31 30 22 7 0 2 14 18 17 17 17 16 17 16 16 15
15 56 45 35 30 44 65 52 32 25 25 25 17 16 23 40
41 39 48 24 28 34 46 46 46 47 47 47 48 48 48 48
48 47 48 47 47 46 46 46 44 44 43 42 40 39 37 35
34 34 34 35 29 22 16 14 14 15 19 21 21 18 19 17
28 12 20 55 89 79 68 62 69 78 47 49 45 38 34 14
10 17 13 8 6 4 2 11 1 0 0 2 0 10 7 13
47 104 142 147 147 147 146 146 146 145 146 144 88 43 29 29
31 30 29 41 27 16 6 3 3 6 13 15 16 15 17 16
16 40 45 60 62 69 81 59 52 42 28 23 16 36 58 39
45 62 52 32 27 30 41 45 46 45 47 46 47 47 47 47
47 48 48 47 47 47 46 45 45 43 43 41 40 39 37 36
32 36 37 38 38 34 26 23 26 29 36 39 39 33 15 14
37 16 47 83 80 54 45 39 44 43 26 21 23 20 12 2
3 6 7 8 6 3 11 23 4 2 0 2 2 8 7 9
29 51 134 146 146 146 145 145 146 145 145 95 42 43 31 34
33 40 35 53 38 37 35 18 6 1 0 6 14 15 16 16
15 26 20 27 33 47 50 28 25 38 55 62 36 28 47 39
43 68 46 40 24 26 35 45 46 46 46 46 47 47 46 47
47 46 46 45 45 45 46 44 44 43 42 41 40 38 37 36
36 38 40 41 42 42 42 43 43 43 42 41 41 24 13 23
42 23 62 57 43 26 36 32 27 24 19 17 15 18 16 12
8 13 14 13 12 11 23 34 6 6 0 0 4 3 8 6
13 44 75 147 147 146 146 144 143 142 125 44 46 47 32 36
39 40 40 61 37 34 33 22 17 12 7 1 1 9 14 15
16 23 13 13 17 37 42 15 16 18 21 33 24 14 28 67
61 52 44 43 27 23 29 43 46 45 46 47 46 47 47 47
47 47 47 46 46 46 46 44 43 43 41 39 38 37 36 34
40 39 38 37 38 37 37 36 37 38 38 36 31 7 10 23
39 42 41 38 31 18 35 31 23 21 19 16 15 17 17 16
11 19 15 14 13 13 26 46 6 10 7 0 6 1 10 4
6 23 50 110 148 147 146 145 144 141 84 41 47 40 35 38
37 37 38 63 39 35 32 20 16 15 16 14 10 5 5 20
26 27 15 13 17 40 45 16 14 17 16 17 9 9 24 67
101 70 54 41 39 29 26 42 45 46 45 46 46 46 47 47
47 46 47 46 46 45 45 45 43 43 41 40 39 38 36 35
37 36 34 34 33 33 33 32 32 32 31 30 23 5 17 22
61 36 30 32 33 16 31 32 24 22 19 15 16 16 17 16
11 20 16 15 14 12 23 53 7 9 14 2 3 5 7 5
4 8 39 67 139 147 145 144 143 134 47 47 40 38 41 37
38 39 38 57 38 35 31 19 17 18 16 15 15 15 14 29
31 34 19 15 15 45 47 14 15 14 16 16 7 8 23 39
81 72 86 51 45 43 30 30 45 45 45 45 45 45 45 46
46 46 46 46 45 45 45 44 43 42 41 39 38 37 35 34
30 29 29 29 29 29 29 28 28 28 27 26 14 10 17 23
45 26 28 30 28 13 30 32 25 23 17 15 17 14 16 15
12 18 14 16 15 15 25 58 9 8 15 10 1 10 8 7
2 2 14 51 93 140 145 144 144 97 41 59 40 40 41 36
38 39 45 53 33 38 31 21 17 17 17 16 17 16 15 29
32 32 17 14 15 39 40 14 16 16 16 18 9 10 26 37
46 41 68 73 44 46 39 23 42 45 45 45 45 45 46 45
46 46 46 45 44 44 44 43 42 42 41 39 38 37 36 34
29 29 29 29 28 28 28 28 27 27 26 12 6 16 15 33
28 36 31 31 28 12 24 31 25 23 19 17 16 16 16 14
14 18 15 18 14 14 22 63 13 5 14 15 2 10 19 11
5 3 5 23 58 81 136 144 143 65 41 55 40 38 40 40
37 36 51 52 35 40 29 22 19 17 18 17 16 16 18 32
35 32 19 16 17 47 35 13 16 18 17 18 7 9 27 43
28 33 46 77 63 43 44 23 36 45 45 45 45 45 45 45
45 45 45 44 45 44 44 44 42 41 40 39 37 36 34 33
29 28 29 29 28 29 28 28 28 28 19 3 7 18 12 35
19 46 28 30 31 12 20 31 27 25 17 16 18 16 13 12
11 14 15 17 14 14 20 68 18 3 13 16 8 4 22 23
9 3 4 11 34 64 90 143 133 60 48 46 43 41 37 42
45 37 52 51 38 36 27 19 17 17 17 19 17 16 17 32
35 33 17 17 17 50 38 12 15 16 17 17 8 10 34 35
23 30 36 53 88 67 39 20 26 43 44 44 44 45 45 45
45 44 44 44 44 43 42 42 41 40 39 38 36 35 34 33
31 30 30 30 30 29 29 28 28 26 14 13 5 30 22 23
17 45 34 29 29 10 18 29 29 23 17 16 18 15 13 11
12 12 18 19 15 14 20 64 25 7 26 49 38 10 25 49
50 41 21 19 14 69 52 117 101 67 93 76 63 58 49 39
40 38 54 40 42 37 24 20 19 17 17 18 17 15 17 33
33 35 17 17 18 53 35 13 18 14 19 16 7 12 30 20
23 33 34 38 63 92 63 19 22 37 44 43 43 44 44 44
44 44 43 43 43 42 42 41 40 39 38 36 35 34 33 31
30 30 30 30 30 29 29 29 29 18 14 13 15 61 20 9
21 36 44 29 28 8 16 29 28 24 19 16 18 15 13 11
13 11 18 20 16 21 35 89 62 31 16 12 18 22 37 69
28 21 5 0 8 23 27 54 62 34 53 60 63 70 83 90
68 51 57 35 39 38 24 20 20 19 19 17 18 17 17 34
34 31 18 14 18 55 29 10 16 14 19 16 7 15 30 15
27 33 34 38 41 57 88 18 16 25 44 43 43 43 43 43
43 43 43 43 41 41 40 39 38 37 36 34 33 33 32 31
