P2
128 120
155
36 36 35 36 35 34 34 33 33 32 32 31 31 31 30 30
30 29 29 28 28 27 27 26 26 25 25 24 23 23 23 22
22 21 22 20 21 20 20 19 19 18 18 17 17 16 16 17
17 20 22 22 22 21 17 12 17 23 19 19 19 18 18 17
17 16 15 15 14 12 14 15 18 18 18 18 18 19 19 19
19 20 20 21 21 21 21 22 22 22 23 23 23 23 24 24
25 24 25 26 27 26 27 28 28 28 27 28 28 28 28 29
29 29 29 29 30 29 30 31 31 31 31 31 31 31 32 31
35 35 35 34 34 34 33 33 33 32 32 32 32 31 31 30
29 29 28 28 27 27 26 25 26 25 24 24 24 23 23 22
22 21 21 21 20 19 19 19 19 18 18 18 17 18 17 17
18 20 22 22 22 20 18 11 13 22 19 18 19 19 18 18
18 17 16 16 15 14 15 17 19 19 19 19 20 20 20 20
21 21 21 21 21 21 21 21 22 22 23 23 23 23 24 24
25 24 25 27 26 26 26 27 27 27 27 28 28 28 29 30
29 29 29 30 31 29 30 30 30 30 30 31 30 30 30 30
36 35 34 35 34 34 34 33 33 32 32 31 31 30 31 30
29 29 29 29 28 27 26 26 26 26 25 24 24 23 22 22
21 21 21 21 20 20 20 19 19 18 18 18 17 17 17 17
18 21 22 23 23 21 16 8 12 22 20 20 20 19 18 18
18 17 17 16 15 14 16 18 19 19 20 20 20 20 20 20
21 21 21 21 22 22 22 22 22 23 24 24 24 24 24 25
24 25 25 27 26 27 27 27 28 29 29 28 29 29 30 29
29 29 30 29 30 29 29 29 30 29 30 30 30 30 31 31
35 35 35 34 34 33 33 32 33 33 32 32 31 31 31 31
30 29 29 28 28 27 27 26 26 25 25 25 25 24 23 23
22 21 21 21 21 19 20 19 19 18 18 18 18 18 17 18
19 22 24 24 23 21 16 11 15 23 21 21 21 20 20 20
20 18 17 18 16 14 17 18 20 20 20 20 20 20 21 21
22 21 22 22 23 22 22 22 23 23 24 23 24 24 25 25
26 26 27 28 27 26 27 28 28 29 28 26 27 28 28 28
28 28 29 29 29 29 31 31 31 31 30 31 31 31 32 32
35 35 35 34 34 34 34 32 33 33 32 32 31 31 30 30
30 29 29 28 28 28 28 27 26 26 25 25 24 24 23 23
22 22 22 22 22 21 21 20 20 19 19 19 18 18 18 18
19 22 23 24 24 21 17 16 16 24 22 21 21 21 20 19
20 17 18 17 16 16 18 20 20 21 21 21 21 20 21 21
22 22 22 23 22 23 24 23 24 24 24 24 24 25 25 25
25 25 26 27 27 27 27 27 27 27 28 28 28 28 29 29
29 30 31 30 30 30 31 30 31 31 32 31 32 32 32 32
35 35 35 35 34 34 33 33 32 32 32 32 31 31 31 31
30 29 30 28 28 28 27 26 26 25 25 25 25 24 24 23
23 22 23 22 21 21 20 20 20 20 19 19 18 18 18 19
19 23 24 24 24 21 17 16 16 23 21 21 21 21 20 20
21 18 19 19 17 17 18 20 21 20 21 21 22 22 22 22
22 23 23 23 24 23 23 23 24 23 25 25 24 25 25 25
26 25 25 26 26 26 27 26 28 28 28 29 30 29 29 30
30 30 30 30 31 31 31 31 30 31 31 31 31 32 31 32
35 35 35 35 34 34 34 33 33 33 32 32 32 31 31 30
30 29 29 29 28 28 28 27 27 27 26 25 25 24 24 23
23 22 22 21 22 22 21 20 20 20 20 19 19 18 18 19
20 23 25 24 24 21 17 18 17 24 23 22 21 21 21 20
21 19 18 18 17 17 19 21 22 22 22 23 23 23 22 23
23 23 24 23 24 23 24 24 25 25 25 24 25 25 24 25
25 26 26 27 28 28 29 28 29 29 29 30 30 30 30 30
30 30 30 30 30 30 31 32 31 31 32 32 31 32 31 32
35 35 35 35 34 34 34 33 33 32 32 32 32 31 31 31
30 30 29 29 28 28 28 27 27 26 25 26 25 25 25 24
24 23 23 23 22 22 21 20 20 19 19 19 19 19 19 19
20 24 25 26 25 21 18 19 17 23 23 22 22 21 21 21
22 20 20 19 18 19 19 21 22 22 22 22 23 22 23 23
23 23 24 24 24 24 24 24 24 25 24 25 25 25 26 26
27 27 28 28 28 28 29 29 28 29 29 30 31 30 29 29
30 31 31 31 31 31 31 31 31 32 32 31 31 31 32 32
35 35 35 34 34 34 34 33 34 33 32 31 31 30 31 30
29 29 29 28 28 28 28 28 27 27 26 26 26 25 24 24
23 23 23 23 23 22 22 21 21 20 20 20 19 19 19 19
20 24 25 25 25 21 18 20 17 22 23 23 23 22 21 21
22 19 19 20 18 19 20 22 23 23 24 23 24 23 23 23
22 22 23 23 23 24 24 24 25 25 26 26 26 26 27 27
28 27 28 28 28 28 29 29 30 30 30 30 31 30 30 30
31 31 31 31 30 31 31 31 31 31 31 31 31 31 32 32
35 35 36 35 34 34 34 33 33 32 32 32 32 32 31 30
31 30 30 29 29 28 28 27 26 26 26 26 26 25 25 25
25 24 24 23 23 23 22 21 21 21 20 19 20 20 20 20
22 25 26 26 26 22 18 21 18 23 23 22 23 22 23 22
22 20 20 20 18 20 20 23 23 22 23 23 23 24 23 24
24 24 24 25 25 25 25 25 26 26 26 26 27 26 26 26
28 28 28 29 29 29 30 30 30 30 30 30 31 30 31 30
31 31 31 32 31 31 32 32 32 31 32 32 31 32 32 32
35 35 34 34 34 34 33 33 33 33 33 32 32 31 32 31
30 29 29 29 29 29 28 28 27 27 27 26 26 26 25 24
24 23 23 23 23 22 22 22 22 21 20 20 21 20 20 20
22 25 26 26 26 21 18 22 18 24 24 24 23 23 23 22
23 20 20 20 17 20 19 23 23 23 24 24 25 24 25 25
25 24 25 24 25 25 26 25 25 26 26 27 28 27 27 28
27 28 28 28 29 29 29 29 30 31 30 31 32 31 31 31
32 32 32 31 32 31 32 31 31 31 32 31 32 32 32 32
36 35 35 34 34 33 33 33 32 32 32 31 31 31 31 31
31 30 29 29 28 29 28 27 27 27 27 26 26 25 25 25
24 24 24 24 23 23 22 22 22 20 21 20 20 20 20 21
22 25 27 26 26 22 18 24 18 24 24 24 23 22 22 23
24 21 22 21 19 21 21 23 23 24 24 24 25 24 24 25
25 25 25 25 26 26 26 26 26 26 27 27 27 27 27 28
28 28 29 29 29 29 30 30 30 30 31 31 31 30 31 30
31 31 31 31 31 31 31 32 32 32 32 32 32 32 31 32
36 35 34 34 34 34 33 33 33 32 33 31 32 31 30 30
30 30 29 29 29 28 28 28 27 27 27 27 27 26 25 25
25 25 24 24 23 23 23 23 23 22 22 22 21 21 21 21
23 27 26 27 26 22 18 23 18 23 23 24 24 23 23 23
23 21 22 21 18 21 21 25 25 24 25 25 26 25 25 25
25 25 25 25 25 25 26 26 26 26 27 27 28 28 28 28
29 29 29 29 29 29 30 30 30 31 31 32 32 31 32 31
32 31 32 31 31 31 31 31 31 32 32 32 32 32 33 33
35 35 35 34 34 34 33 32 33 32 32 31 31 32 31 31
30 30 30 29 29 28 28 27 27 26 26 26 26 25 25 25
25 24 24 24 23 23 23 23 22 22 22 21 21 21 21 21
23 27 27 27 27 22 19 25 19 23 23 24 23 23 23 22
23 22 22 21 19 22 22 24 25 25 25 25 26 25 25 25
25 26 26 26 26 26 27 26 28 27 27 28 28 27 28 28
28 28 29 29 30 29 30 30 31 31 31 31 32 31 32 32
32 32 32 32 32 32 32 32 32 32 31 31 31 31 31 31
35 34 34 34 34 33 33 33 32 32 32 32 32 31 31 31
31 30 30 28 29 29 28 28 27 27 27 27 26 26 26 26
25 24 24 23 23 23 22 22 22 22 22 21 22 22 21 23
24 27 28 27 26 21 18 26 20 22 25 24 24 24 23 23
23 22 21 21 19 21 21 24 24 24 25 25 26 26 26 26
26 25 25 25 26 26 26 27 27 27 27 28 28 28 28 29
28 29 29 29 30 30 30 30 31 30 30 31 32 31 31 31
31 31 31 31 30 30 31 32 31 32 32 32 32 32 33 32
35 35 35 34 34 34 33 33 32 31 32 32 31 31 31 30
30 30 30 29 29 29 29 28 28 27 27 26 26 25 25 25
25 24 24 24 24 23 23 23 22 21 21 22 21 21 21 22
23 27 27 28 27 22 19 27 21 23 25 25 24 24 23 22
23 22 23 22 19 22 23 25 25 25 25 25 26 25 26 25
25 25 26 26 26 26 27 28 28 27 28 28 28 28 29 29
29 29 29 30 30 30 30 30 30 30 30 29 29 30 30 30
30 30 32 32 31 31 31 31 31 31 32 32 32 32 32 31
31 33 34 34 33 33 33 33 32 33 32 32 31 31 31 31
30 29 29 29 29 29 28 28 28 27 27 27 27 26 26 26
25 25 24 24 24 23 23 23 22 22 22 22 22 22 21 23
24 27 28 27 27 20 19 27 21 22 25 25 25 24 24 23
23 23 22 22 19 22 22 25 25 26 26 26 27 26 26 26
26 26 26 26 26 26 27 27 27 28 28 28 28 29 28 29
29 29 29 30 30 30 30 29 30 30 31 31 30 31 32 32
31 31 32 32 33 31 31 31 31 31 32 31 31 32 32 31
14 17 21 27 31 32 33 32 33 32 32 31 31 31 31 30
31 31 30 30 29 29 28 28 27 27 27 26 26 26 25 26
25 25 24 24 24 24 23 24 23 22 22 21 22 21 22 22
25 28 28 28 27 20 19 27 23 23 26 25 25 24 24 23
23 22 22 22 19 22 23 25 26 26 26 27 27 26 26 27
27 26 27 27 27 27 27 28 28 28 28 27 27 28 28 27
28 29 29 30 31 31 31 32 32 31 31 31 32 31 31 31
32 32 31 32 33 31 31 31 31 32 32 31 31 31 31 31
12 13 9 7 13 22 33 33 32 33 32 32 31 32 31 31
31 30 30 29 29 29 29 28 28 28 27 27 27 27 26 26
25 24 24 24 24 24 23 23 23 22 22 22 22 22 22 23
26 28 29 29 27 21 19 28 24 23 26 25 26 24 24 24
24 22 23 22 19 23 23 25 26 25 25 26 27 26 27 26
27 27 26 27 27 27 27 27 27 28 28 28 29 29 29 29
30 30 30 31 31 31 31 31 31 31 31 31 31 31 32 32
32 32 32 32 32 31 31 31 31 31 31 31 32 31 32 32
11 12 10 6 9 21 33 33 33 32 32 31 31 31 31 31
30 30 30 29 30 29 28 28 28 28 28 27 27 26 26 25
25 25 25 24 24 23 24 23 22 22 22 22 22 21 22 22
25 28 29 29 28 21 21 29 25 22 26 27 26 24 23 24
25 23 23 23 21 24 23 26 27 26 26 26 26 25 25 25
25 25 26 26 27 28 27 28 27 28 29 29 29 29 30 29
30 30 30 31 31 31 32 32 32 32 31 31 32 32 32 31
31 31 31 31 32 31 31 31 31 31 32 31 32 32 31 31
28 22 14 9 11 20 33 33 33 33 33 32 31 31 32 31
31 31 31 30 29 29 29 28 28 28 28 27 28 27 26 27
26 26 26 25 25 24 24 23 23 23 23 23 22 23 23 24
26 29 29 29 28 20 21 29 25 21 29 27 20 17 17 20
26 29 29 24 20 24 22 25 26 26 26 27 26 27 27 27
27 27 28 28 28 27 28 28 28 28 29 29 29 30 30 30
31 31 32 32 32 31 32 32 32 31 31 32 31 32 31 32
32 32 32 32 33 31 31 31 31 31 31 31 31 32 31 31
45 43 31 10 12 22 34 33 34 34 33 31 35 35 34 33
32 31 31 30 30 30 29 29 29 29 28 28 27 27 27 27
26 26 26 25 25 25 25 24 24 24 24 23 23 23 24 24
26 29 29 30 28 21 22 30 28 28 31 24 27 28 24 21
19 21 34 33 25 25 25 27 28 28 28 28 28 28 28 28
28 28 28 29 29 29 29 30 29 30 30 31 30 31 31 31
31 32 32 32 32 32 32 33 33 33 33 33 33 32 32 33
32 33 32 32 33 32 32 32 32 33 33 33 33 32 33 33
49 49 37 11 14 26 34 34 34 34 34 34 43 43 41 39
36 34 32 31 31 31 30 30 30 29 29 29 29 28 33 35
33 29 27 26 25 25 25 24 24 24 24 25 24 24 24 25
28 30 30 30 28 22 21 25 28 25 25 22 22 27 28 24
22 21 24 25 32 41 32 29 28 28 28 28 28 28 29 29
29 29 30 30 30 30 30 30 30 31 30 31 32 32 32 32
32 33 32 34 33 33 32 33 33 33 33 32 33 33 32 33
33 33 33 32 34 33 32 33 33 33 33 33 32 33 33 33
49 49 40 14 15 32 38 36 36 35 34 35 44 44 43 41
38 37 37 36 33 32 32 31 31 30 30 30 29 29 39 42
38 35 33 32 28 26 27 26 26 26 25 25 25 24 25 26
29 31 30 30 29 20 15 17 22 17 14 13 16 19 24 28
21 14 12 19 20 23 28 30 29 29 30 29 30 30 29 29
29 30 30 30 31 30 31 31 32 32 32 33 33 33 33 33
33 33 33 34 33 34 34 35 34 34 34 34 34 33 34 34
34 33 34 34 34 33 33 34 34 34 34 34 34 35 35 35
48 49 39 15 17 35 41 38 38 37 36 37 45 44 45 41
41 42 44 43 37 37 34 32 31 28 30 30 30 31 39 41
38 37 38 37 33 27 27 27 26 26 26 26 26 25 26 27
30 32 31 31 26 14 13 18 13 13 12 16 20 24 25 21
25 18 18 19 20 18 19 29 29 27 29 30 30 30 30 30
31 31 31 32 32 32 31 31 31 32 32 32 33 33 33 34
34 34 34 35 35 34 35 35 35 34 34 34 34 33 34 34
34 34 35 35 36 34 34 35 34 34 34 34 34 33 33 33
41 44 37 14 17 36 42 35 36 39 41 41 31 16 29 38
42 44 46 43 35 34 39 39 36 33 32 32 30 31 34 32
34 35 37 37 34 28 27 28 27 26 26 26 26 26 27 27
30 32 31 29 21 12 17 14 9 10 13 11 15 22 28 28
22 22 24 24 25 21 16 16 31 34 30 31 30 30 31 31
31 31 31 32 32 32 32 33 33 33 33 33 34 34 34 34
34 34 34 34 34 34 34 35 35 35 35 35 35 35 35 35
34 35 35 33 32 31 31 33 32 33 33 34 35 35 35 34
7 25 37 15 17 32 40 38 35 36 43 46 23 0 1 15
27 31 37 41 21 5 13 23 31 35 35 37 35 32 29 15
17 21 27 32 34 29 27 26 26 27 26 26 26 26 26 27
30 31 28 19 12 13 19 9 4 6 6 11 17 25 28 28
29 22 14 15 16 13 15 18 14 25 40 32 30 31 31 31
31 31 32 32 32 32 32 33 32 33 33 34 34 34 34 34
35 35 35 35 35 34 34 35 35 34 34 33 32 32 32 32
33 33 33 34 35 34 34 34 34 34 32 35 35 36 33 33
0 16 35 15 14 8 15 26 36 41 46 48 22 0 0 6
11 13 15 33 15 0 0 0 4 10 19 28 33 34 27 10
7 9 7 6 21 29 27 28 27 27 27 26 26 26 27 27
30 29 16 13 13 20 13 9 6 9 7 10 13 16 23 26
18 13 13 19 27 23 18 20 20 16 27 30 30 32 31 31
32 31 32 32 32 32 33 32 33 33 33 33 34 34 33 34
34 33 34 34 33 34 34 34 34 35 34 35 35 34 35 35
35 34 34 34 34 34 34 33 34 34 34 35 35 36 34 34
0 20 34 15 12 0 0 0 4 14 26 37 20 0 0 3
6 9 11 32 15 0 0 0 0 0 0 2 8 29 26 6
3 3 6 0 16 31 28 28 28 26 27 26 27 27 27 28
31 22 7 11 22 17 10 18 19 21 14 16 15 21 25 17
15 26 31 25 22 24 34 34 27 26 17 35 28 30 31 31
32 32 32 32 32 32 32 32 33 33 33 33 33 33 33 34
34 33 33 34 34 34 35 34 34 34 34 34 35 34 34 34
34 34 35 34 34 34 34 34 34 35 34 34 34 35 33 33
0 21 32 15 10 0 0 0 0 0 0 7 15 0 0 0
0 1 6 31 14 0 0 0 0 0 0 0 0 28 23 2
0 0 2 0 18 30 28 27 27 27 27 27 27 27 28 27
22 16 17 21 14 14 25 33 34 35 34 36 39 42 34 25
27 30 32 30 34 27 35 49 34 30 30 30 35 31 31 31
31 31 31 31 32 32 32 32 33 33 33 35 33 34 34 34
34 33 34 34 34 34 34 34 34 33 34 35 35 34 34 34
34 34 35 34 34 34 34 34 33 34 34 34 34 35 34 33
0 24 30 14 10 0 0 0 0 0 0 2 12 0 0 0
0 0 5 29 10 0 0 0 0 0 0 0 0 28 16 0
0 0 0 0 20 31 28 27 28 26 26 27 27 27 27 18
7 10 24 14 9 32 52 54 54 58 65 69 71 72 60 47
35 35 36 35 33 30 28 27 25 25 33 34 43 30 29 30
31 31 32 32 32 32 33 33 33 33 33 34 33 33 33 33
34 34 34 33 33 33 34 33 33 34 33 34 34 34 34 33
34 34 34 35 34 33 33 33 34 35 33 34 33 34 33 32
0 27 27 14 10 0 0 0 0 0 0 3 9 0 0 0
0 0 6 34 10 0 0 0 5 7 0 0 0 29 13 0
0 0 0 0 23 31 28 28 27 27 27 27 28 28 26 6
3 19 21 11 25 61 71 75 76 93 101 106 110 112 107 83
69 52 50 43 45 46 38 29 20 15 23 36 38 24 28 28
31 31 31 31 32 32 32 32 32 32 33 35 33 34 34 34
34 34 34 33 34 33 33 34 33 33 33 33 35 34 34 34
34 34 34 33 34 33 33 33 33 34 33 34 33 34 33 33
0 30 24 14 8 0 1 0 8 1 0 3 7 0 0 0
0 0 6 36 9 0 0 0 8 12 7 2 1 29 10 0
0 0 0 0 24 32 28 29 28 28 27 27 28 28 20 2
6 18 20 18 52 79 88 88 97 110 115 126 131 124 119 106
92 80 69 68 66 55 52 40 30 17 24 26 37 26 21 18
31 31 31 32 32 33 32 33 33 33 34 34 33 34 34 33
33 33 33 33 34 34 34 34 34 33 35 35 35 34 34 34
34 34 33 33 34 34 34 34 34 34 34 33 33 34 34 33
0 34 23 14 7 1 7 1 3 0 0 3 7 0 0 0
0 0 9 37 8 0 0 1 10 13 12 9 2 30 10 0
0 0 0 0 23 31 28 28 29 28 28 28 28 27 12 0
6 23 23 29 68 84 90 92 103 115 122 133 137 133 130 128
131 127 110 108 103 85 69 53 31 16 19 19 35 26 23 15
26 32 31 32 32 32 32 32 32 32 32 34 34 34 34 33
34 34 34 35 34 33 33 33 33 33 33 34 35 34 34 34
34 34 33 34 35 34 34 33 33 34 33 33 34 34 34 34
10 36 21 14 8 4 2 0 0 0 0 5 6 0 0 0
0 1 13 39 8 0 0 0 8 11 12 10 2 29 9 0
0 0 0 0 25 32 29 29 28 28 28 27 27 23 4 0
11 23 29 40 76 87 94 97 105 118 128 136 140 140 138 140
142 140 129 119 109 103 104 79 59 27 20 22 30 18 18 16
17 32 31 31 32 32 32 33 33 34 33 34 34 34 34 33
33 34 34 34 34 34 34 34 34 34 34 34 35 34 33 33
33 33 33 33 34 34 34 34 34 34 35 34 34 34 34 33
40 39 18 15 7 0 0 0 0 0 0 8 20 7 3 1
0 0 17 41 18 5 2 0 0 5 11 7 1 30 26 12
4 1 0 0 25 32 29 29 28 28 28 28 28 21 1 2
5 20 30 52 78 90 95 98 104 117 128 139 141 143 142 142
143 143 141 140 139 139 126 116 90 49 20 32 19 14 12 10
13 31 31 32 32 32 32 32 33 33 33 34 33 34 33 34
33 34 34 34 34 34 33 34 34 34 34 34 34 34 34 33
33 34 34 34 34 34 34 34 34 34 35 34 34 35 34 34
48 40 17 14 7 0 0 0 0 0 0 14 46 38 28 25
17 7 13 46 35 30 27 21 10 4 5 4 2 31 41 37
31 26 20 18 32 32 29 29 29 28 28 28 27 19 0 0
1 20 32 54 79 93 98 100 104 115 130 142 142 142 141 142
142 141 142 142 142 142 140 128 118 75 28 29 10 7 8 0
2 25 31 31 31 32 33 32 33 33 33 34 33 33 33 33
34 33 34 34 34 34 34 34 34 34 34 34 34 34 34 33
33 33 33 34 34 33 34 34 34 34 34 35 34 33 33 33
51 42 17 15 10 2 0 0 0 0 0 17 52 43 43 45
46 43 41 49 24 18 22 26 27 26 24 21 20 39 42 40
39 39 43 45 44 32 29 29 28 28 28 28 28 19 0 0
1 17 34 56 81 94 99 103 108 117 134 143 143 143 143 143
143 143 142 142 142 142 142 139 132 88 45 17 9 5 3 0
0 18 33 32 32 32 33 33 33 33 34 34 33 34 34 34
35 34 35 35 35 34 35 34 35 34 34 34 33 34 34 34
34 34 35 34 34 34 35 35 34 34 34 34 35 34 34 34
34 39 16 16 26 34 26 16 7 2 0 20 46 38 45 48
51 50 43 39 19 13 14 13 15 16 19 23 30 35 30 33
36 39 44 46 45 31 29 29 29 29 28 28 28 20 0 0
2 15 33 56 83 95 102 107 110 118 133 143 143 143 143 142
142 142 143 142 142 142 142 142 136 108 61 19 5 2 0 0
0 15 33 32 32 33 33 33 33 34 34 35 34 34 35 34
34 34 34 34 35 34 34 34 34 34 34 34 34 35 35 34
35 34 35 35 34 35 35 35 35 34 34 34 34 34 35 34
11 37 17 17 31 47 48 45 41 35 27 35 37 36 45 48
51 51 44 35 20 13 13 12 11 10 10 9 10 11 13 18
23 30 34 34 36 31 29 29 29 28 29 28 28 23 0 0
1 9 31 60 85 96 104 109 114 119 129 141 143 143 143 143
143 144 143 143 142 142 143 143 137 126 65 42 1 1 0 1
0 13 34 33 33 34 33 33 33 33 33 33 34 34 34 34
35 35 35 36 35 36 35 34 35 34 34 35 35 34 35 34
34 35 34 35 35 35 35 35 34 35 34 34 34 33 34 34
10 35 16 16 32 48 50 49 48 49 49 47 25 21 32 39
45 47 43 37 23 15 13 11 10 10 9 9 8 8 8 8
10 24 28 26 26 29 29 29 29 29 29 29 29 25 1 0
0 6 29 62 86 97 103 110 115 121 129 141 143 143 142 143
142 142 142 142 142 142 142 142 142 133 104 73 35 2 7 2
0 16 33 33 32 33 34 34 34 34 33 34 34 34 34 34
35 35 35 35 35 34 34 34 35 35 34 35 35 34 35 35
34 34 33 34 35 35 35 35 35 35 35 35 35 35 35 35
21 33 21 18 29 43 45 45 48 48 50 46 12 0 3 9
16 26 29 36 24 14 11 7 5 6 7 10 10 10 10 11
14 26 17 19 29 28 29 29 29 28 28 28 29 27 3 0
0 7 32 69 88 97 103 107 113 119 128 140 143 143 143 142
143 143 143 143 142 143 143 143 142 140 135 98 85 72 34 4
1 24 33 33 33 34 33 33 33 34 34 34 34 34 35 35
35 35 35 36 35 35 35 35 35 35 34 35 34 34 34 35
34 34 34 34 35 36 36 36 36 36 36 35 35 36 35 35
23 28 26 22 27 32 34 37 39 40 46 42 7 0 0 0
0 6 15 35 23 12 10 2 0 0 2 10 13 9 9 13
16 28 25 22 34 33 31 24 20 29 29 29 29 28 3 0
0 7 31 71 88 96 100 106 113 125 136 143 144 143 143 143
143 143 142 142 143 143 143 142 140 138 138 134 118 86 44 5
4 29 33 34 33 33 33 33 34 34 34 34 35 35 36 36
36 35 35 36 35 35 35 35 35 35 35 35 34 35 35 35
34 34 34 34 35 35 36 35 35 35 35 35 35 34 34 34
23 26 21 20 22 21 24 31 31 31 41 38 4 0 0 0
0 0 10 38 20 10 9 1 0 0 0 1 3 1 1 7
11 29 38 34 35 36 36 24 15 28 29 29 29 26 2 0
0 6 46 79 89 94 99 104 113 129 142 143 143 143 143 143
142 143 143 143 143 143 143 142 141 137 136 135 120 86 34 7
5 31 32 34 33 33 33 34 34 34 34 33 34 34 35 35
34 35 35 36 35 34 34 34 33 34 34 34 33 33 33 34
32 33 33 35 36 34 34 34 33 35 35 32 31 31 31 31
11 21 18 19 21 24 25 30 31 33 43 36 2 0 0 0
0 0 6 37 15 8 2 0 0 2 3 0 0 0 0 0
4 28 37 27 25 25 30 33 31 29 30 29 30 23 1 0
3 20 66 82 84 88 97 110 121 134 143 144 143 143 143 144
143 143 143 143 143 142 143 143 142 138 136 132 120 92 33 5
5 31 31 34 33 32 33 34 34 34 34 34 34 35 35 35
35 35 35 35 33 34 35 33 32 33 32 32 32 30 31 31
30 29 28 28 27 25 24 23 22 21 20 19 19 17 17 16
11 22 19 20 10 7 14 22 29 35 41 33 2 0 0 0
0 0 9 38 4 0 0 0 0 4 8 3 0 0 0 0
3 30 40 25 22 29 27 27 29 30 30 29 29 22 1 1
5 42 74 81 81 91 104 117 131 138 143 143 144 144 144 144
144 144 144 144 144 144 143 143 143 141 135 128 118 96 31 5
7 33 33 34 34 34 34 34 35 34 34 34 33 33 32 31
30 29 29 28 27 28 34 29 23 21 21 20 19 18 18 17
16 16 15 15 14 14 14 13 13 13 14 14 14 14 14 14
15 27 25 23 5 0 0 0 3 7 14 23 1 0 0 0
0 0 13 36 2 0 0 0 0 1 11 10 3 0 0 0
4 31 40 22 18 29 26 25 29 30 30 30 31 27 3 2
9 58 76 76 78 93 104 114 135 142 142 144 145 144 144 144
144 144 144 143 144 142 143 142 142 142 137 126 116 104 32 5
13 29 29 27 27 26 26 25 23 23 22 21 21 20 20 19
19 17 17 18 17 18 31 25 13 15 16 17 17 18 17 17
18 18 18 18 19 18 19 19 19 20 20 20 20 20 21 20
18 33 27 24 5 0 0 0 0 0 0 15 0 0 0 0
0 0 17 34 1 0 0 0 0 7 12 13 10 2 0 0
4 32 41 22 14 20 19 24 29 30 30 30 31 33 8 2
12 67 77 69 67 74 72 79 97 107 114 125 133 141 144 144
144 144 144 143 143 144 143 144 143 143 139 122 115 106 39 3
11 20 19 19 19 20 19 19 19 20 19 20 19 20 20 20
21 20 21 22 22 22 27 22 16 20 23 24 22 23 23 23
24 24 24 25 24 25 26 26 25 26 26 26 26 26 26 25
19 33 26 23 4 0 0 0 0 0 0 14 0 0 2 7
1 0 17 28 0 0 0 0 2 17 19 15 13 2 0 0
6 33 41 26 20 20 18 23 28 30 31 31 49 82 34 8
21 72 80 64 54 53 56 51 44 44 47 61 89 112 140 145
145 144 143 133 129 132 137 139 141 138 137 122 112 106 49 6
16 23 24 23 24 24 24 24 25 25 26 26 26 26 27 28
28 28 28 28 27 26 32 26 20 26 27 28 28 28 29 29
29 29 30 29 29 29 30 30 30 30 29 29 30 30 30 30
29 33 22 22 3 0 1 10 2 0 0 13 0 0 11 14
5 0 19 25 0 0 0 0 1 8 18 9 2 0 0 0
6 33 41 28 21 12 10 20 28 31 30 32 62 89 87 59
57 77 78 68 64 57 48 43 38 32 25 32 54 89 126 144
143 145 137 105 84 63 74 85 100 105 106 108 104 104 50 6
22 29 29 29 29 30 30 30 31 31 31 30 31 31 31 31
32 31 31 31 31 28 24 21 24 30 31 30 31 31 31 32
32 31 32 31 31 31 32 32 31 33 33 32 33 33 33 34
45 38 22 21 2 0 9 20 7 1 0 18 3 4 16 15
8 0 21 20 0 0 0 0 0 0 13 3 0 0 0 0
5 33 42 28 18 7 4 17 28 31 31 38 79 84 101 92
68 79 81 77 70 48 41 32 34 49 64 50 61 76 113 143
145 144 126 90 54 32 34 42 53 73 75 77 92 106 44 8
28 33 32 32 32 32 32 33 33 32 33 33 33 33 34 33
34 33 33 33 32 24 9 6 23 32 34 33 33 33 33 34
34 34 34 33 33 34 33 33 33 34 34 34 34 34 33 33
46 38 21 20 2 0 7 13 6 1 0 30 31 30 31 27
24 12 29 18 0 0 0 0 0 0 13 4 0 0 0 0
3 33 41 20 11 3 2 16 27 31 32 39 85 86 101 93
69 78 83 85 67 46 71 63 55 82 126 63 72 79 101 139
144 142 116 97 88 82 72 72 71 73 91 90 89 104 47 10
49 47 33 33 34 34 35 35 35 34 35 35 34 35 34 34
32 25 23 21 28 20 9 3 21 33 34 35 35 33 34 34
34 34 34 34 33 34 35 34 34 35 34 34 35 35 34 34
45 33 21 21 7 0 1 1 0 0 1 33 42 44 46 44
44 44 47 20 0 0 0 0 0 0 15 5 0 0 0 0
1 32 40 14 9 1 1 19 26 31 31 37 89 90 106 89
72 79 87 92 78 66 78 89 86 105 130 83 89 85 99 136
144 140 119 109 96 101 67 53 52 71 83 101 102 106 77 46
107 88 35 35 35 35 35 35 35 35 35 35 35 35 35 36
27 7 5 6 22 18 6 3 20 33 35 35 34 34 34 35
35 35 35 35 35 35 35 35 34 34 35 34 35 35 34 33
41 27 22 23 19 3 1 0 0 0 1 34 42 43 44 44
47 53 52 32 15 16 8 3 1 4 18 7 1 1 0 0
1 30 37 11 5 1 4 22 26 31 32 34 87 98 105 82
71 79 88 96 98 87 76 86 97 107 107 86 88 87 100 136
145 136 123 125 121 125 69 57 96 71 75 109 110 106 97 115
121 97 39 34 34 35 35 35 35 36 35 36 36 35 36 36
34 27 26 28 29 18 0 1 21 33 35 36 35 35 35 34
34 35 35 34 35 34 34 33 34 34 34 34 35 35 34 34
39 22 23 23 13 0 0 0 0 0 2 33 37 40 41 42
47 50 51 40 33 33 30 24 22 21 25 15 12 8 6 3
5 26 35 10 3 2 4 16 26 31 31 32 77 107 106 92
73 77 89 102 111 111 102 105 113 114 99 82 86 89 104 138
145 136 120 117 115 110 102 100 111 89 88 111 115 106 102 122
112 107 48 34 35 34 35 35 35 35 36 35 35 35 36 35
35 35 34 33 32 20 1 2 22 33 34 35 34 34 34 34
34 35 35 35 35 35 34 34 34 33 33 34 33 34 34 34
36 21 24 23 10 1 0 0 0 0 4 38 35 36 37 37
37 34 35 36 36 37 36 34 34 34 33 29 26 22 19 17
19 29 35 17 13 12 7 10 24 32 32 33 61 113 103 103
73 76 86 104 120 124 130 135 133 121 101 95 94 92 106 140
144 136 123 120 121 118 114 110 104 107 121 124 118 105 103 121
110 108 42 35 34 35 35 35 35 36 36 36 36 35 35 35
35 34 33 31 30 22 2 4 25 33 34 35 35 35 34 35
35 35 35 34 34 34 34 33 34 34 33 33 34 34 34 34
36 22 22 24 30 28 23 16 11 7 9 39 37 35 35 35
36 34 34 36 37 38 39 37 36 35 34 34 34 33 30 26
26 31 41 33 30 24 18 16 23 31 31 31 49 110 99 112
74 73 84 104 121 132 141 141 134 118 106 100 96 94 107 140
143 135 129 131 139 140 136 130 127 130 137 131 117 106 102 123
110 98 35 34 35 35 35 35 35 35 35 35 34 35 34 33
34 34 34 32 30 23 9 10 28 33 34 35 34 34 34 34
33 33 34 34 34 33 34 33 34 33 33 34 34 34 33 33
35 21 23 26 45 49 48 44 45 44 42 46 38 36 36 36
37 38 40 41 38 40 44 46 40 35 35 35 39 44 41 38
35 36 41 40 39 39 37 33 28 31 31 31 44 95 90 110
78 69 81 103 122 135 141 141 133 117 106 100 96 95 112 143
143 132 132 136 143 142 142 143 142 142 142 133 116 104 107 122
118 70 32 33 33 33 33 34 34 34 34 34 34 34 34 34
34 34 33 31 28 24 21 22 31 33 34 35 34 34 34 33
33 33 33 33 33 33 32 32 33 33 32 33 33 34 33 32
35 20 24 27 48 54 53 52 53 53 53 51 39 36 36 36
38 42 45 46 39 41 45 48 40 34 32 33 40 46 43 40
40 39 34 29 27 28 30 30 29 31 31 31 36 92 93 97
81 68 81 101 121 133 141 140 130 114 106 100 94 93 118 144
142 130 132 140 143 143 143 142 143 142 142 133 111 101 114 124
121 45 34 34 34 34 34 34 34 33 34 34 34 33 33 33
34 33 33 32 29 27 27 30 33 34 34 34 34 33 34 33
33 33 33 33 33 33 34 33 33 33 32 31 32 33 32 32
29 18 24 23 33 37 40 43 45 48 50 49 25 19 18 18
22 30 40 46 40 40 39 40 39 36 32 30 37 42 41 40
41 40 36 29 23 22 22 22 27 31 31 31 31 66 102 90
78 67 81 97 114 129 140 140 127 115 107 100 92 98 133 144
140 126 131 140 142 142 142 142 143 142 142 132 109 101 128 120
108 35 34 34 34 34 34 33 34 33 34 34 34 35 35 35
34 33 33 31 30 29 29 32 34 34 34 34 34 34 34 33
34 33 34 33 34 33 33 33 33 33 33 33 33 34 33 33
29 19 24 22 29 30 29 29 28 29 31 34 10 0 0 0
0 3 16 43 40 29 14 17 22 23 25 29 31 22 17 20
29 33 34 34 29 27 26 27 28 30 30 30 26 46 94 110
86 67 82 96 108 122 132 135 124 115 105 98 90 117 144 144
143 128 128 141 143 143 143 143 143 142 141 129 104 100 132 115
95 33 35 35 35 34 35 34 34 34 34 34 34 34 34 34
33 33 33 32 31 31 32 34 34 34 34 34 34 34 34 33
34 33 34 33 33 33 34 33 33 33 33 32 32 33 31 31
29 18 22 24 35 36 36 34 33 31 31 30 11 1 0 0
0 0 10 42 34 10 0 0 2 6 15 31 30 9 0 0
2 11 19 33 31 29 32 34 35 36 32 30 26 34 74 105
91 65 81 92 103 113 120 122 117 110 104 95 96 131 144 144
143 133 126 140 143 142 142 142 143 142 140 122 100 107 114 107
73 33 34 34 34 34 33 33 33 33 34 34 34 33 34 34
33 33 33 32 31 32 32 33 33 33 33 33 33 34 34 34
34 33 33 33 33 34 34 33 32 32 32 32 32 33 30 28
25 17 23 25 38 38 38 38 37 37 37 33 10 1 0 0
0 3 21 42 25 1 0 0 0 0 14 33 30 7 0 0
0 5 17 25 16 20 24 29 33 39 34 28 25 31 47 89
94 65 81 93 101 108 111 112 111 105 102 94 90 125 145 144
143 136 130 134 141 143 143 143 143 143 134 115 97 108 113 108
45 34 35 35 34 34 33 34 34 34 34 33 33 33 34 33
33 33 33 32 32 33 34 34 34 34 34 34 34 33 34 33
32 33 33 33 34 34 34 33 33 33 33 33 33 32 31 30
27 22 24 22 25 30 33 35 37 39 40 35 8 2 0 0
0 1 14 38 16 0 0 0 0 0 12 35 30 7 0 0
0 3 15 18 0 3 5 4 10 35 36 29 27 33 35 46
59 63 78 94 100 104 108 110 110 105 106 84 66 100 138 142
137 121 131 131 131 142 142 143 143 140 126 111 94 116 123 77
35 36 36 35 34 34 34 33 33 34 34 34 35 35 35 34
34 34 34 34 33 34 34 34 34 34 34 34 34 34 34 34
34 33 34 33 34 34 33 33 33 32 33 32 32 32 31 31
38 35 33 27 20 18 17 19 19 21 34 38 7 0 0 0
2 5 10 37 11 0 0 0 0 0 13 34 28 5 0 0
0 2 17 19 0 8 8 1 3 34 35 28 28 32 35 37
39 59 76 92 102 104 108 109 109 107 106 93 68 85 102 112
98 62 114 132 127 139 143 143 142 137 126 109 94 118 112 48
35 35 35 33 33 33 34 33 33 34 34 34 34 34 34 33
34 34 34 34 35 35 35 34 34 34 34 34 34 34 34 34
33 33 33 32 34 33 34 33 33 33 33 33 32 31 31 31
38 38 38 37 35 34 32 31 27 15 27 42 17 1 0 0
2 3 8 36 8 0 0 0 0 0 15 34 27 4 0 0
0 0 15 19 0 4 5 0 3 34 36 28 30 33 35 37
39 57 73 89 101 104 105 106 102 99 101 95 74 78 77 98
111 88 119 139 137 141 143 143 142 137 122 104 99 118 75 35
35 35 35 34 34 33 33 33 33 33 33 33 33 34 34 33
34 34 34 35 35 35 35 34 34 34 34 34 34 33 33 34
34 34 34 34 35 34 33 33 32 33 32 32 32 31 30 30
38 37 37 37 37 37 36 36 35 19 26 42 13 0 0 0
3 3 10 35 6 0 0 0 0 0 16 35 25 4 0 0
0 0 12 20 0 5 4 0 4 35 35 27 30 33 35 37
38 55 70 85 100 104 104 102 99 95 95 88 70 83 101 116
113 118 133 139 142 143 143 143 142 134 119 99 83 81 37 32
32 31 31 31 30 30 31 32 33 33 33 33 33 30 31 30
31 31 32 33 34 34 34 34 35 34 34 34 35 34 34 34
33 33 34 33 34 33 33 33 33 32 33 32 31 31 30 29
29 31 32 33 34 34 35 35 35 21 25 39 4 0 0 0
0 0 12 35 5 0 0 0 0 0 13 35 25 6 0 0
0 0 13 21 0 3 4 0 5 34 34 27 31 33 36 38
38 52 68 80 95 105 106 111 110 108 109 105 91 102 104 113
119 121 132 141 142 143 143 142 140 129 113 92 45 36 27 17
16 16 16 16 14 13 14 17 26 33 33 33 29 16 15 15
15 15 17 27 35 34 35 34 34 34 33 33 33 34 34 34
34 33 33 33 35 33 33 33 32 32 32 31 31 30 30 29
3 4 6 8 10 14 26 33 35 22 22 32 1 0 0 0
0 0 11 36 5 0 0 0 0 0 13 37 23 2 0 0
0 0 13 24 0 0 0 0 6 35 33 28 32 33 36 37
37 47 67 77 91 104 112 116 109 107 112 116 121 137 132 127
134 129 129 134 139 142 144 143 138 124 105 81 37 35 22 5
5 9 9 9 4 4 4 5 20 33 33 33 28 10 6 7
7 7 9 25 36 35 35 35 35 35 34 34 34 33 34 33
32 33 33 33 34 33 33 33 32 32 32 31 32 31 31 30
0 0 0 0 0 0 23 35 35 22 19 31 6 2 0 0
3 3 13 38 10 0 0 0 0 0 13 37 24 3 0 0
0 0 14 27 1 0 0 0 7 34 31 28 32 34 36 38
37 42 63 72 85 101 118 121 85 65 73 84 103 123 138 139
141 141 138 131 132 136 141 142 131 113 98 66 35 34 21 6
6 10 9 9 4 4 3 3 18 32 33 33 26 10 7 7
8 8 9 27 36 36 36 34 34 35 34 34 33 33 34 34
33 33 33 34 35 34 33 32 32 32 33 31 31 30 29 28
0 0 0 0 0 0 27 39 35 22 15 36 32 28 23 22
26 26 30 40 35 29 25 25 21 20 28 39 29 25 21 18
18 18 27 29 2 0 0 0 10 34 30 29 33 34 36 37
37 36 57 69 79 95 119 124 113 91 79 88 91 93 99 108
111 110 116 116 119 129 137 137 121 105 94 53 35 34 21 6
6 11 9 8 4 4 3 3 18 32 34 33 24 8 7 8
7 7 9 26 35 36 36 36 34 35 35 34 34 34 34 34
34 34 33 33 34 33 33 32 32 32 33 32 31 31 30 29
0 0 0 0 0 0 26 39 34 22 13 39 40 36 35 36
36 35 38 37 49 50 46 46 47 47 48 45 31 38 40 41
43 46 48 39 18 14 11 10 16 32 29 28 32 33 36 36
33 34 48 66 73 91 110 120 120 106 97 109 124 129 122 123
120 109 92 96 105 124 135 126 109 100 83 40 35 33 20 5
6 10 10 8 4 4 3 3 20 32 33 33 24 7 7 7
7 7 8 25 36 36 36 35 34 34 33 34 33 33 33 33
33 33 34 33 34 33 33 33 32 32 32 32 31 31 29 28
0 0 0 0 0 0 25 40 35 23 13 38 35 31 33 36
36 33 33 32 41 47 47 46 47 50 50 47 31 35 39 42
47 51 53 45 32 30 30 29 30 32 28 27 31 34 35 34
33 35 40 62 73 85 103 115 115 109 103 112 112 113 120 129
133 125 120 131 132 130 130 117 103 97 70 34 34 32 19 5
5 9 8 7 3 4 3 3 21 33 32 33 26 12 10 10
11 10 9 24 34 35 34 34 34 33 33 33 32 33 33 33
32 32 32 32 33 34 33 32 32 32 32 32 32 30 28 26
0 0 0 0 0 0 25 40 33 23 15 36 25 27 27 30
36 35 34 32 27 28 30 31 31 33 34 37 29 27 32 36
39 40 41 39 31 30 30 30 30 30 28 28 29 32 33 34
35 35 41 58 75 83 95 102 109 110 108 110 110 103 104 110
119 122 128 138 140 129 120 107 99 88 49 33 34 32 18 5
5 6 5 4 4 4 3 3 21 32 33 33 26 14 13 13
14 14 14 23 33 34 35 34 34 34 33 33 32 34 33 33
34 33 33 34 34 33 34 33 33 32 32 31 31 28 26 25
0 0 0 0 0 0 23 40 34 28 25 36 12 11 14 19
23 25 29 33 24 23 23 25 25 25 25 28 30 29 32 32
32 29 27 29 30 31 31 31 31 30 30 29 29 29 32 35
36 35 42 60 68 77 91 97 105 111 115 114 109 107 108 115
122 125 132 134 127 120 112 101 94 77 38 35 34 32 18 5
4 2 1 3 3 4 3 3 21 32 34 33 25 10 9 9
9 9 11 22 34 34 34 34 34 33 33 34 32 33 33 34
34 33 33 34 33 32 32 32 32 31 31 30 30 29 27 26
0 0 0 0 0 0 23 40 33 32 37 37 5 0 0 0
2 7 15 33 30 32 30 33 38 35 31 33 35 36 39 40
38 32 29 30 31 31 31 31 30 30 30 29 30 31 34 36
35 35 43 64 59 72 86 97 102 112 126 127 117 108 113 120
127 128 125 123 118 114 107 98 85 75 36 35 33 30 16 5
4 2 2 7 4 5 3 3 22 32 33 33 24 8 7 8
8 8 9 23 34 34 34 34 34 34 33 33 33 33 32 33
33 33 33 33 33 33 33 32 32 31 30 30 29 28 26 25
0 0 0 0 0 0 22 40 33 35 46 40 6 0 0 0
0 0 15 35 32 40 36 41 50 41 23 24 28 30 36 42
44 34 30 29 31 31 31 31 30 30 30 30 31 33 35 36
35 32 42 68 55 62 81 96 98 109 131 139 136 131 131 136
137 129 118 116 111 106 99 92 77 79 36 35 33 29 16 5
4 3 4 6 4 5 2 3 22 32 33 33 24 8 8 8
8 8 8 25 35 35 34 34 33 34 33 34 33 33 33 33
33 33 33 33 32 32 31 31 31 30 30 30 29 28 26 25
0 0 0 0 0 0 21 39 32 33 44 41 7 0 0 0
0 0 14 37 31 39 27 24 36 32 2 0 2 4 8 28
44 35 32 31 31 31 31 31 30 30 30 29 30 31 35 36
33 29 40 70 61 51 69 92 95 105 121 135 139 143 144 142
138 128 115 113 108 101 94 81 79 81 36 34 31 28 15 4
4 0 0 4 4 5 3 3 22 32 33 32 23 7 7 7
6 7 8 24 34 34 34 34 34 34 33 34 33 33 33 32
33 33 32 32 32 32 32 31 30 30 30 29 28 27 25 24
0 0 0 0 0 0 19 38 33 29 27 21 2 0 0 0
0 0 15 35 30 37 14 1 15 26 0 0 0 0 0 21
43 35 31 31 31 31 31 30 30 30 30 30 30 32 35 35
30 25 37 73 67 47 58 78 86 94 113 132 143 144 145 140
131 120 111 111 103 90 84 74 89 80 36 34 31 28 15 5
4 1 1 4 4 5 3 4 24 31 34 32 22 7 7 8
8 7 9 26 34 34 33 33 33 33 33 33 33 33 33 33
33 34 34 34 33 32 32 31 31 30 30 29 28 28 26 24
0 0 0 0 0 0 19 37 31 26 14 5 0 0 0 0
0 0 19 35 31 38 12 0 12 26 0 0 0 0 0 18
41 35 31 32 31 31 31 31 30 29 29 29 30 31 34 33
28 14 25 73 71 61 46 61 74 85 106 126 137 140 141 139
122 110 108 104 88 82 72 85 95 82 36 33 30 28 14 4
4 4 4 4 4 4 2 4 24 31 33 32 21 6 7 6
6 6 10 27 34 35 34 34 33 33 33 33 33 33 33 33
32 32 32 33 33 32 31 31 30 30 29 29 28 27 26 24
0 0 0 0 0 0 18 38 31 26 16 4 0 0 0 0
0 0 21 33 32 37 10 0 12 26 1 0 0 0 0 15
41 34 31 32 31 31 30 29 30 29 30 30 30 32 34 32
28 15 28 77 76 70 51 47 62 72 92 113 128 130 131 124
115 104 101 89 74 72 81 98 98 84 35 32 31 28 14 4
4 4 3 3 3 4 3 4 25 32 33 32 21 7 7 8
8 7 10 28 35 34 33 33 33 33 33 33 33 33 33 33
33 33 33 33 33 32 31 31 30 29 29 27 27 26 24 23
0 0 0 0 0 0 19 37 31 26 18 4 0 0 0 0
0 0 21 33 34 37 9 0 12 25 1 0 0 0 0 14
41 34 31 31 31 31 30 30 30 29 29 29 30 31 33 30
27 21 33 78 80 77 67 52 50 56 69 90 105 110 112 111
105 97 86 71 73 79 98 106 100 83 27 28 30 28 14 4
3 4 3 3 3 4 3 6 26 32 34 32 21 6 7 7
7 6 9 28 34 34 35 34 34 34 34 34 33 32 33 33
33 33 33 33 32 32 31 31 30 30 30 29 27 26 25 23
0 0 0 0 0 0 19 38 31 27 19 3 0 0 0 0
1 0 19 34 34 37 10 1 12 25 3 0 0 0 0 14
40 33 31 31 31 30 30 30 29 29 29 29 30 31 34 31
19 5 27 78 80 83 79 63 59 50 50 62 68 77 86 88
85 73 66 71 81 94 105 108 102 85 8 4 7 11 9 6
5 4 4 4 3 4 3 5 26 32 34 32 27 20 20 15
13 14 16 30 34 34 34 34 33 33 33 32 34 33 33 34
33 33 34 33 33 31 32 30 30 30 29 28 27 27 25 24
0 0 0 0 0 0 20 38 31 27 20 4 1 1 0 1
9 2 20 36 37 37 18 6 13 25 6 2 1 1 0 15
40 33 31 31 31 31 31 30 30 29 29 29 30 31 34 21
3 0 27 79 83 84 84 74 70 67 62 50 41 40 45 52
55 62 75 84 95 104 111 111 107 92 8 0 0 0 0 3
9 3 3 3 3 4 2 6 26 31 33 33 34 33 32 30
28 30 29 33 34 34 34 35 34 34 34 34 34 34 33 33
34 33 33 33 32 32 31 31 30 31 31 28 28 27 25 24
0 0 0 0 0 0 19 37 31 26 22 13 9 9 5 8
15 12 23 38 37 35 18 14 13 22 3 7 8 3 0 15
40 33 31 31 31 30 29 30 29 29 28 29 30 31 29 7
0 0 28 78 83 87 87 80 73 73 77 78 78 78 75 73
83 90 96 101 106 112 116 115 112 96 11 0 0 0 0 0
12 9 4 3 3 3 2 6 27 33 33 34 34 34 35 35
34 34 34 34 35 35 36 34 34 34 34 33 32 33 33 33
34 33 33 34 33 32 31 31 30 30 30 28 27 28 25 24
0 0 0 0 0 0 22 37 30 26 23 32 35 35 34 34
36 35 42 44 39 33 16 21 16 22 6 10 10 3 1 14
36 31 30 30 30 31 30 30 30 29 29 29 29 29 17 3
0 0 42 79 86 90 91 86 79 75 84 103 112 116 115 114
114 111 108 108 113 115 119 119 117 102 30 0 0 0 0 0
12 14 5 4 3 3 2 10 28 33 33 33 34 34 34 34
34 34 36 34 33 34 34 34 34 34 34 34 34 33 34 34
34 33 33 33 32 31 32 31 30 31 30 29 28 27 27 26
0 0 0 0 0 0 21 36 29 25 22 39 46 47 46 47
47 48 54 52 41 30 5 18 18 27 20 21 20 18 16 20
29 28 30 30 30 30 30 29 29 28 28 28 28 26 8 3
0 8 62 79 87 92 93 89 83 79 80 100 116 124 122 119
118 117 115 114 121 124 128 126 120 105 78 21 0 0 0 0
10 16 13 12 6 3 10 18 29 32 32 33 33 33 33 33
32 32 34 32 33 34 33 33 32 32 33 33 33 33 33 33
33 32 32 32 32 31 31 30 30 30 29 28 27 25 25 24
0 0 0 0 0 0 22 34 29 24 19 30 38 39 39 40
41 43 48 49 42 27 1 7 15 28 23 24 24 23 23 23
24 27 29 29 29 29 29 29 29 28 28 28 27 20 3 2
0 35 68 80 87 98 103 101 90 83 84 93 113 126 127 121
118 118 118 119 129 134 136 132 124 109 94 82 30 0 0 0
10 14 14 15 4 2 14 22 28 31 32 32 32 32 32 32
30 31 33 32 31 32 32 32 31 32 32 33 33 32 32 32
31 31 31 32 32 30 29 28 28 29 28 28 26 25 24 23
0 0 0 0 0 0 22 34 27 23 16 14 14 14 15 16
17 19 23 26 33 25 0 2 12 28 25 27 26 26 26 26
27 28 29 28 29 28 28 28 28 27 27 26 25 11 4 5
0 52 71 81 87 99 108 112 102 89 89 94 102 118 124 121
121 121 121 124 134 140 140 133 125 111 98 97 85 18 1 6
13 14 14 17 4 3 18 24 28 30 32 31 32 31 31 30
30 31 32 31 31 31 31 31 31 31 31 32 32 31 31 31
31 31 31 31 31 30 30 28 29 28 28 27 26 24 23 22
0 0 0 0 0 0 22 32 26 22 17 12 10 8 9 8
9 10 13 16 29 23 0 0 11 27 26 28 27 27 27 27
27 26 27 26 27 27 27 27 27 27 26 24 12 5 4 10
4 56 74 82 87 100 109 118 117 99 96 101 100 105 114 123
125 124 121 128 141 143 141 135 126 111 100 102 101 49 16 41
14 12 10 16 4 3 20 24 28 29 30 31 31 30 30 29
28 29 30 30 30 30 29 28 29 30 30 31 33 32 32 32
31 31 31 31 30 29 28 28 28 28 28 27 25 24 24 22
0 0 0 0 0 0 22 32 25 21 19 16 14 13 12 11
11 12 15 19 32 25 5 5 15 27 25 27 27 27 28 27
27 27 27 27 27 27 27 26 26 26 24 10 4 4 6 13
13 59 78 84 89 100 110 124 127 116 104 107 110 113 121 129
130 124 126 139 143 143 143 137 123 112 107 107 108 59 29 25
14 11 8 12 8 4 21 24 29 30 30 30 31 30 30 28
27 29 31 30 30 28 25 26 26 28 33 36 38 38 36 36
35 34 34 34 34 32 31 30 30 30 29 28 27 26 25 22
0 0 0 0 0 0 26 32 25 22 20 18 16 16 15 15
14 14 16 20 34 30 27 33 35 30 24 27 28 27 27 27
27 26 26 26 26 26 26 27 26 26 17 3 6 3 7 14
21 65 82 86 92 101 110 124 134 127 116 115 121 125 130 135
136 134 138 143 143 144 141 135 124 114 114 114 111 55 35 17
16 11 8 11 12 12 21 25 27 29 30 29 30 30 30 29
28 29 30 28 27 11 3 4 5 17 44 48 49 49 48 47
47 46 45 45 43 42 40 38 37 37 35 34 33 30 28 26
11 11 10 10 10 12 29 30 24 21 19 18 17 16 17 16
16 17 17 20 31 27 30 38 37 27 24 26 26 27 26 27
27 26 27 27 27 27 26 27 25 16 6 3 5 4 8 14
23 100 93 91 97 105 112 122 135 137 125 120 125 133 137 142
143 141 143 144 144 142 141 135 127 118 116 119 108 47 33 15
16 11 9 10 12 21 25 26 28 28 30 29 29 29 29 27
25 28 30 29 25 3 0 0 0 17 50 51 51 51 51 51
51 51 51 51 51 50 50 49 49 49 47 46 44 42 41 38
26 25 25 25 24 24 25 25 24 21 20 19 18 17 16 15
16 17 17 20 23 21 19 22 25 24 24 27 27 26 26 27
27 26 26 26 26 26 26 23 14 8 3 3 5 4 9 15
24 112 119 97 104 109 115 123 135 140 134 126 129 136 138 142
143 144 144 144 144 142 140 136 128 123 120 123 94 46 24 15
14 10 9 9 12 20 24 27 28 29 29 29 30 29 29 27
25 28 31 28 23 1 0 0 0 23 51 51 51 50 51 51
51 51 52 51 51 51 50 50 50 49 49 48 47 46 45 43
27 27 27 25 25 24 24 24 24 20 19 19 18 17 17 16
16 17 19 22 23 22 20 20 22 23 25 25 26 25 26 26
26 26 26 25 26 27 25 15 9 7 4 2 3 5 9 15
24 95 145 113 112 114 116 121 135 144 140 132 131 136 136 142
144 143 145 144 144 143 139 136 133 127 123 122 70 45 16 16
12 9 9 10 12 18 27 27 27 34 30 29 29 29 29 26
23 28 30 28 20 0 0 0 0 31 51 51 51 51 51 50
51 51 51 51 51 51 50 50 50 50 49 48 47 47 45 44
28 26 26 25 24 24 24 23 23 20 19 19 19 18 18 18
16 17 20 22 23 23 22 21 24 23 25 25 26 26 26 26
26 26 26 27 29 27 22 12 11 6 5 3 5 6 11 15
26 83 148 142 123 122 120 119 132 145 145 138 135 138 139 141
144 145 145 144 144 141 139 139 136 130 128 105 74 43 18 17
13 10 9 11 12 18 25 27 31 65 38 28 29 29 29 26
22 27 29 28 18 0 0 0 0 37 51 51 51 51 51 51
52 52 51 51 51 51 50 50 50 50 49 48 47 47 45 44
14 14 14 16 17 18 17 18 19 19 18 18 18 18 18 17
18 18 20 24 24 23 23 22 23 24 24 25 25 25 25 25
26 26 30 30 25 24 15 5 7 6 5 3 4 5 11 17
27 76 147 148 145 132 128 122 130 145 146 144 141 141 142 143
144 145 144 144 143 141 142 143 141 136 125 87 94 21 17 15
12 10 10 12 14 19 24 24 27 55 44 31 26 27 32 26
14 23 29 28 16 0 0 0 3 43 51 50 51 51 50 51
51 51 51 51 51 50 51 51 50 50 49 49 48 47 45 44
0 0 2 4 9 14 15 16 18 18 18 19 18 19 18 19
18 19 21 24 24 23 23 23 23 24 25 25 26 25 25 26
27 29 27 26 16 14 8 1 6 7 6 3 4 6 12 19
25 71 142 148 147 146 134 128 132 145 147 146 145 145 145 145
145 146 145 144 144 142 144 143 143 139 107 120 57 16 17 13
11 11 12 13 14 18 15 11 12 36 46 30 29 28 33 50
19 19 28 28 13 0 0 0 6 45 51 51 50 50 51 51
51 51 51 51 51 51 51 50 50 50 50 48 48 47 46 45
8 1 4 4 8 14 16 16 17 17 17 17 18 17 18 18
18 19 23 24 24 23 24 24 23 23 24 25 25 25 25 28
29 25 18 16 14 17 8 4 7 7 5 4 4 4 11 17
24 57 132 148 147 147 145 135 136 146 147 147 146 146 144 145
145 145 145 144 144 144 145 144 144 139 133 102 22 18 15 12
11 10 12 14 14 16 16 14 13 37 46 26 25 25 27 30
34 32 30 27 10 0 0 0 12 48 50 50 50 50 50 50
50 50 50 51 51 50 51 50 50 50 50 49 48 48 47 46
23 4 6 5 7 14 16 16 17 18 18 18 18 19 19 18
19 20 23 25 23 23 23 23 23 23 23 25 25 25 30 29
29 24 20 18 13 12 3 1 6 6 5 4 2 2 8 14
22 28 106 149 147 147 147 147 144 145 146 147 147 146 146 146
146 146 146 146 145 145 145 144 144 145 126 49 19 18 14 12
12 11 13 15 16 18 16 13 14 35 54 16 13 11 12 18
25 33 34 37 14 0 0 0 18 48 50 49 50 50 51 51
51 51 51 51 51 51 51 50 50 50 49 49 48 47 46 45
39 16 15 11 8 13 16 17 19 20 21 21 22 21 21 21
21 22 24 25 24 23 24 24 23 23 23 24 23 25 27 25
24 20 19 12 10 6 0 1 6 6 5 2 1 1 4 10
16 22 73 144 148 148 147 147 147 147 146 146 146 145 145 145
146 145 145 145 145 145 145 146 145 134 80 23 20 16 13 12
11 12 15 16 17 18 14 12 10 24 54 20 17 14 12 15
19 21 20 35 40 17 0 0 24 50 50 50 50 50 50 51
50 51 51 50 50 50 50 50 50 50 50 49 48 47 47 46
39 22 20 17 14 16 19 20 22 26 25 24 24 24 25 25
24 25 25 25 23 23 23 23 24 23 25 23 19 34 28 22
24 18 14 9 12 8 0 3 6 5 4 2 1 0 1 7
11 12 30 79 133 149 148 147 147 147 147 147 146 146 146 146
146 145 146 146 146 146 146 145 135 74 21 20 18 12 13 13
13 15 16 17 18 18 13 10 10 21 49 20 15 13 11 10
13 18 15 26 35 38 24 0 30 49 49 49 49 50 50 50
51 51 51 51 50 51 51 50 50 49 49 48 48 47 47 46
25 18 18 18 17 17 16 16 19 29 25 23 25 25 25 25
25 24 24 24 24 23 23 23 24 23 25 17 24 47 42 28
25 17 15 19 25 22 10 8 7 5 4 2 0 0 0 2
3 2 28 47 72 136 148 148 148 147 147 147 147 147 147 146
146 146 146 147 146 146 144 125 103 48 20 18 13 11 13 14
16 15 16 15 16 19 23 17 13 25 60 27 11 11 8 5
9 16 11 22 34 33 42 16 36 49 49 49 50 49 50 50
50 50 50 50 50 50 50 49 50 49 50 49 49 48 47 46
22 11 11 11 10 10 10 9 14 31 26 22 22 23 24 24
25 25 24 24 23 22 23 25 26 19 18 27 37 53 48 38
39 28 25 27 28 27 14 7 8 4 4 1 1 0 0 0
0 0 14 31 26 91 149 147 147 147 147 147 147 146 147 147
147 148 147 147 147 123 72 75 82 27 17 13 11 13 15 16
17 17 17 18 16 22 30 30 27 33 65 37 20 13 10 7
12 21 21 24 30 30 46 36 43 49 49 49 49 49 49 49
49 49 50 51 50 50 51 50 50 49 49 48 48 47 47 46
20 9 10 10 9 9 10 9 14 31 26 18 17 18 19 21
21 22 23 23 23 22 24 28 20 13 23 39 42 50 47 40
41 29 22 26 26 23 15 19 13 6 4 3 2 0 0 0
0 0 6 45 17 41 137 148 148 147 148 148 147 147 147 147
147 146 146 143 108 48 41 62 47 2 13 14 16 17 18 17
17 17 16 16 16 24 29 27 30 33 57 37 27 27 26 23
19 25 25 31 26 32 42 28 42 48 49 48 49 49 49 50
50 50 50 49 50 50 50 50 49 50 49 49 48 48 47 46
20 9 9 9 8 8 8 7 12 28 25 18 15 16 16 17
18 18 19 21 23 24 23 29 15 14 31 43 58 83 77 41
40 38 48 53 60 51 30 27 15 8 5 3 2 0 0 0
0 0 0 19 22 16 82 136 147 148 147 147 147 147 147 147
147 147 143 99 43 34 39 40 9 0 2 16 18 17 18 17
17 17 17 17 17 34 53 36 32 37 66 51 34 26 27 26
20 20 27 40 38 47 37 27 33 47 48 47 48 48 48 49
49 49 50 49 50 50 50 50 49 49 49 48 48 48 46 46
20 9 9 9 10 10 10 7 9 27 26 18 14 15 15 15
15 15 16 17 21 22 15 25 14 24 59 86 79 66 68 69
69 50 54 47 43 39 16 10 17 13 8 5 4 2 3 0
0 1 1 4 8 9 34 99 136 146 148 148 148 148 147 147
147 145 104 45 26 28 31 29 29 24 8 3 8 10 13 16
16 16 17 17 15 28 49 57 60 66 87 61 52 44 32 26
20 38 54 38 46 67 39 26 29 42 47 48 48 49 48 48
49 49 49 49 49 49 49 49 49 49 48 48 47 47 48 46
29 24 25 25 26 26 24 17 13 26 26 16 15 14 15 16
15 15 15 17 20 18 15 35 22 47 85 79 54 43 46 48
46 28 25 25 23 17 5 5 12 10 10 7 3 16 14 3
0 0 4 1 11 8 17 51 123 148 147 147 147 147 147 146
145 111 49 37 32 33 34 35 42 44 35 31 14 3 0 3
13 16 17 18 16 21 26 27 35 40 61 31 25 35 49 57
40 30 45 36 52 61 46 31 26 36 48 48 48 48 48 47
48 49 49 49 49 49 49 50 49 49 49 48 47 46 46 45
29 28 29 29 28 28 28 28 28 27 25 17 15 15 15 16
15 15 15 16 17 12 19 38 28 57 58 45 27 36 39 29
25 21 18 17 20 16 10 8 14 11 12 11 11 34 21 7
4 0 4 2 9 7 10 33 70 143 148 148 147 147 146 145
129 51 50 42 33 38 40 39 53 45 35 33 23 17 12 4
0 7 15 17 16 20 19 13 17 26 50 19 17 17 21 29
23 14 29 64 68 42 43 35 23 28 45 47 47 48 48 48
48 49 49 49 49 49 49 49 48 48 48 47 47 46 46 46
34 29 28 28 30 34 35 35 35 32 25 17 15 16 19 23
25 24 21 17 10 10 21 37 48 39 37 34 20 34 39 24
23 21 17 17 19 19 17 14 24 16 15 15 14 46 30 8
10 2 3 5 7 8 7 16 48 100 149 148 147 146 143 138
88 41 49 40 35 40 39 38 60 45 36 32 22 17 15 16
10 5 2 5 22 25 21 13 17 28 57 18 14 15 16 16
10 8 25 69 96 68 51 40 34 26 43 47 47 47 47 47
47 48 48 49 49 49 49 49 49 49 48 47 47 46 46 44
37 33 29 27 29 33 37 39 39 39 36 31 31 33 36 40
41 41 38 28 8 15 20 45 46 29 32 34 20 30 39 26
24 20 17 17 17 18 15 14 23 16 16 15 15 45 39 6
14 10 1 6 4 9 4 5 24 61 131 148 147 145 144 134
56 49 40 41 40 39 39 37 57 42 37 34 21 18 18 16
16 16 16 18 32 31 27 13 15 26 55 18 14 15 16 17
10 8 23 46 70 68 79 44 44 37 32 46 47 47 47 47
47 48 48 48 48 48 48 47 47 47 47 46 45 45 45 44
39 39 38 37 37 40 40 42 41 41 42 41 41 42 42 42
41 41 34 18 11 17 20 36 36 30 32 31 17 27 38 26
24 18 17 18 16 18 15 14 21 17 17 15 15 45 45 6
12 15 5 6 10 10 6 3 9 37 83 137 145 145 144 106
43 60 39 42 40 37 39 41 58 37 39 35 23 18 17 17
17 17 16 18 33 32 27 15 16 28 50 16 15 17 16 17
11 8 24 40 35 41 69 62 44 42 25 43 47 46 46 47
47 47 48 47 47 47 47 48 47 47 46 47 45 44 43 42
42 42 41 40 39 39 39 39 38 38 38 38 38 37 38 37
36 33 13 6 16 15 24 31 41 34 31 31 16 21 35 26
25 19 18 16 16 15 13 15 19 17 18 14 14 44 51 7
9 17 12 3 16 19 8 3 3 13 47 74 122 145 144 76
43 56 41 39 40 40 38 41 62 34 39 32 21 20 17 17
18 17 17 20 35 34 26 15 16 30 54 14 14 16 17 18
10 9 29 38 23 32 46 75 56 42 25 35 46 45 46 46
47 47 47 47 47 46 47 46 46 45 45 44 44 43 43 41
38 37 36 35 35 35 35 35 34 34 34 32 32 32 31 31
30 20 5 5 16 17 31 23 37 42 33 31 17 19 32 27
25 18 19 18 16 14 13 15 17 18 17 16 14 44 57 10
6 15 15 4 11 30 16 8 5 9 21 54 78 138 135 67
53 46 44 40 40 45 43 42 61 39 38 30 21 17 18 18
18 16 16 20 33 35 27 17 18 33 58 16 15 17 17 17
10 10 31 25 22 31 35 56 85 58 25 27 44 45 46 45
45 46 46 46 46 46 45 46 46 45 45 44 44 43 42 41
31 30 30 30 29 30 31 30 30 30 30 29 29 29 28 28
27 15 22 4 35 43 18 19 33 54 31 30 16 16 31 28
25 18 18 19 15 13 12 14 14 21 17 15 15 40 59 18
14 36 44 26 14 41 47 53 25 20 14 42 61 96 112 69
90 78 69 63 54 44 42 43 49 41 39 28 21 20 18 18
20 19 17 21 35 34 28 15 17 33 52 14 16 15 17 18
10 12 30 18 26 33 35 39 64 83 33 19 36 46 45 45
45 46 46 46 46 45 46 44 45 44 44 43 42 42 41 40
29 28 28 29 29 29 29 30 30 29 29 28 28 28 28 28
18 12 20 4 41 30 5 18 32 49 36 33 20 10 30 27
24 19 17 16 15 14 12 14 13 22 22 22 30 62 91 48
23 18 19 25 24 56 51 27 15 3 9 43 29 39 63 36
55 57 61 66 81 84 68 65 51 39 40 28 22 20 20 19
17 17 17 22 36 35 26 16 17 38 49 11 15 16 19 16
10 15 29 15 28 34 35 35 39 72 43 11 25 45 45 45
45 44 45 44 45 44 44 44 44 44 43 42 41 40 39 38
29 29 30 30 30 30 30 30 30 30 29 28 29 28 28 28
10 25 13 7 17 12 0 12 30 39 42 29 22 9 30 27
25 20 17 15 15 15 13 13 12 36 51 46 44 52 69 23
2 2 8 10 9 15 33 20 18 15 103 145 68 13 39 41
46 39 36 33 40 44 54 83 86 81 74 65 54 39 28 25
20 17 17 24 36 36 28 16 17 38 52 12 16 16 20 16
10 19 29 16 30 34 35 35 35 60 38 8 25 44 44 44
44 44 45 44 45 44 44 44 43 42 42 41 40 38 38 36
29 29 30 30 30 31 31 31 31 31 30 30 29 28 28 23
10 25 6 6 11 9 1 8 29 37 50 29 22 7 30 28
24 19 16 13 15 14 16 17 23 32 18 12 10 25 59 19
2 1 7 10 12 8 32 19 20 24 131 123 56 11 37 49
41 37 35 31 33 39 31 46 42 41 42 35 33 38 43 55
56 48 41 40 43 38 29 16 17 40 53 12 16 15 18 15
11 22 23 20 31 33 34 33 45 44 28 8 33 53 43 43
44 43 42 42 43 42 43 42 42 41 40 40 39 38 36 36
30 31 31 31 30 30 30 30 30 30 30 29 29 29 28 25
34 19 2 4 9 10 2 5 24 29 47 34 26 8 31 27
26 22 17 13 20 28 45 40 21 18 14 7 8 22 60 24
5 0 4 10 13 8 25 21 15 15 64 80 7 23 35 60
42 34 53 48 29 38 36 41 37 34 29 21 16 14 14 15
18 22 30 56 79 76 56 30 19 41 49 13 17 13 15 15
12 29 24 26 33 34 37 35 52 34 25 2 15 50 42 43
42 42 43 43 42 42 41 41 41 41 39 39 36 36 35 34
30 30 30 30 30 31 31 31 31 30 31 30 29 29 28 12
31 26 7 3 7 12 5 2 19 30 33 38 27 13 50 46
36 28 27 31 37 24 14 9 5 19 16 9 8 19 60 26
8 0 3 9 12 12 18 23 17 15 7 1 2 35 38 61
40 33 41 38 31 35 40 43 34 36 31 20 15 13 14 13
13 12 12 23 36 37 38 45 49 65 70 41 43 14 15 14
12 32 24 31 38 35 35 45 43 35 25 1 10 38 42 43
42 42 43 42 41 41 41 40 40 39 38 37 36 35 34 33
