P2
128 120
158
35 35 34 34 34 33 33 33 33 32 31 30 30 30 30 29
29 28 28 28 27 26 26 25 26 25 24 23 23 22 22 22
21 21 21 20 20 19 19 19 18 18 18 18 19 24 23 24
23 20 18 12 22 23 21 20 21 20 19 19 19 16 17 16
14 15 15 18 20 20 21 21 21 21 21 22 22 22 23 22
22 22 23 23 24 25 24 25 25 25 26 26 26 26 27 29
29 29 29 29 29 30 30 30 31 31 31 31 31 32 32 32
33 32 32 33 34 33 34 34 33 33 33 34 33 33 33 32
35 35 34 33 34 33 33 32 32 31 32 31 31 30 30 29
28 28 28 27 26 26 25 25 25 25 23 24 23 23 22 22
22 21 20 20 19 20 20 18 18 18 18 19 20 24 24 25
24 20 20 10 19 23 21 20 21 20 20 19 20 17 18 17
15 16 16 19 21 21 21 21 22 22 22 22 23 22 23 23
23 23 23 24 24 24 25 25 26 25 25 26 27 28 28 29
29 29 29 30 30 30 31 30 31 30 32 31 32 32 32 33
34 33 33 34 33 33 32 32 32 31 32 33 33 33 34 35
35 35 35 34 34 34 33 33 32 32 32 32 31 30 30 30
29 29 28 28 27 26 27 26 25 25 24 24 23 23 23 22
22 21 21 21 21 20 19 19 19 19 19 20 21 25 25 25
25 20 14 6 19 24 22 22 22 21 21 20 21 19 19 18
15 17 17 21 22 22 22 22 22 22 23 23 23 24 23 24
24 24 25 25 25 25 26 26 26 26 27 27 28 28 29 29
29 30 30 31 31 31 31 30 32 32 33 33 34 33 33 32
32 30 31 32 32 33 33 34 35 35 35 35 34 35 35 35
36 35 35 34 34 33 33 33 33 33 31 31 32 31 31 30
30 29 29 28 27 27 26 26 26 25 25 24 24 24 23 23
22 21 21 21 20 21 20 20 19 19 20 20 22 25 26 26
25 21 17 16 21 25 23 23 23 21 21 21 22 20 19 19
18 19 19 22 23 23 23 22 23 23 24 23 24 23 24 24
25 25 25 25 26 26 27 26 27 27 27 28 28 28 29 31
30 30 31 32 32 32 32 30 29 31 30 30 31 31 32 33
34 34 35 35 35 34 34 34 34 34 34 35 35 35 35 35
35 35 35 35 34 34 34 34 33 33 32 32 31 30 30 30
30 29 29 28 28 27 27 26 27 25 25 25 24 24 24 23
23 22 22 21 21 21 21 21 20 21 20 20 22 26 26 26
25 20 16 17 22 25 24 23 24 23 22 22 22 20 20 20
18 20 19 23 23 23 23 23 24 24 24 24 24 24 25 25
26 25 26 26 26 26 26 27 28 27 28 29 29 30 29 31
30 30 29 29 29 29 31 32 32 32 34 33 34 33 33 33
33 33 35 34 34 34 34 34 34 35 34 36 36 35 36 35
36 35 35 35 34 34 34 33 33 32 33 31 31 31 30 31
30 29 29 28 28 27 27 27 26 26 25 25 24 24 24 24
23 22 22 22 22 21 21 21 21 20 20 21 23 27 27 26
26 21 18 20 21 26 24 23 23 23 22 22 22 20 20 20
18 21 21 24 24 24 23 24 24 24 24 25 25 25 25 26
26 26 26 27 27 27 27 28 27 28 27 28 27 27 27 27
28 30 31 32 33 32 33 33 34 34 33 34 33 34 33 33
34 34 34 34 35 35 34 35 35 35 34 35 35 35 35 35
35 35 34 34 34 34 34 34 33 32 32 32 32 31 31 30
30 29 29 28 28 28 27 27 27 26 26 25 25 24 24 23
23 23 22 21 22 21 21 21 21 21 21 22 23 27 27 27
26 20 19 21 21 25 24 24 23 23 22 22 23 21 20 20
18 21 20 24 24 24 24 24 25 24 25 25 24 26 25 26
26 26 27 27 27 26 26 26 26 26 26 28 29 30 31 30
30 31 31 32 32 32 33 32 34 33 33 33 33 34 34 33
33 34 34 34 34 34 34 34 34 35 34 35 35 35 35 35
36 35 35 35 34 33 33 33 33 32 31 31 31 30 30 30
30 28 28 28 27 27 26 26 26 25 25 25 24 24 24 24
23 22 22 22 22 22 21 21 21 20 21 21 23 27 27 27
26 21 18 22 20 25 24 24 23 23 22 22 23 20 21 20
18 22 20 24 25 24 25 24 25 25 24 25 25 24 26 24
25 25 26 26 27 27 28 27 28 27 29 28 29 29 30 30
30 31 31 31 32 32 33 33 34 33 33 32 33 33 33 33
34 33 33 34 34 34 34 34 34 35 34 35 35 35 35 35
35 34 34 34 34 33 33 32 32 32 32 30 30 30 29 28
28 27 27 27 26 26 26 25 25 25 24 25 24 24 24 23
23 23 22 22 22 21 21 21 21 20 21 21 23 27 27 26
26 20 17 22 18 25 24 23 23 23 23 22 23 21 21 20
17 21 20 23 24 24 24 24 24 24 24 24 25 23 25 25
25 25 26 26 27 27 27 28 28 28 28 29 29 29 30 30
31 31 31 31 31 31 32 32 34 32 33 32 32 33 33 33
32 32 33 33 33 34 34 33 34 34 33 34 34 34 35 34
34 34 33 33 32 31 32 32 31 30 30 29 29 28 28 28
27 28 27 26 26 25 25 25 24 23 24 23 23 23 23 23
22 22 22 22 21 21 21 20 20 20 21 21 23 26 26 26
26 20 17 23 17 25 24 23 23 22 21 21 21 20 20 20
17 21 19 23 23 24 23 24 24 23 24 24 25 25 25 25
25 25 26 27 26 27 27 27 27 27 27 28 27 28 29 29
30 30 30 31 31 31 32 31 33 32 32 32 32 32 32 32
32 32 33 33 33 34 34 33 33 34 33 33 32 33 33 33
34 33 33 32 32 32 32 31 31 31 30 29 29 29 28 28
27 26 26 25 25 25 25 24 24 24 24 23 23 23 23 23
23 22 22 21 21 21 20 20 21 21 20 21 24 27 27 26
26 20 17 24 17 24 24 23 23 22 22 23 22 21 21 20
17 21 18 23 23 24 24 25 26 24 25 25 25 25 25 26
25 26 26 26 27 26 27 28 27 28 28 28 29 29 30 30
31 30 31 31 32 31 31 32 32 32 32 32 33 32 32 32
33 33 33 33 32 32 33 33 32 33 33 33 33 34 34 33
34 33 33 33 32 32 31 30 30 30 29 28 28 27 28 27
26 26 25 25 25 24 24 23 24 23 23 23 23 23 23 23
23 22 23 22 22 21 21 21 20 20 20 21 24 27 27 27
26 19 18 24 18 25 24 24 23 23 23 24 22 21 21 20
17 22 21 23 25 25 25 25 25 24 25 25 25 24 25 26
26 26 26 27 27 28 28 29 28 28 29 29 29 30 30 29
30 30 31 31 32 32 33 32 33 32 32 32 32 32 33 33
32 32 32 33 33 33 33 33 34 33 33 34 34 34 34 34
34 33 33 32 33 31 31 31 30 30 29 28 28 27 26 26
25 25 24 24 23 23 24 23 23 23 23 24 23 23 23 23
23 22 22 22 22 21 22 21 21 21 22 22 26 28 27 28
27 20 19 25 18 25 24 24 24 23 23 24 22 21 21 22
18 23 22 24 25 25 25 26 26 26 25 25 27 26 26 26
27 27 26 27 28 28 27 28 29 29 29 30 30 30 31 30
31 31 31 32 32 32 32 32 34 31 32 32 33 33 33 33
33 32 33 34 33 34 34 34 34 34 34 34 34 33 33 32
35 34 34 33 32 32 31 31 30 29 28 27 26 26 25 25
24 24 24 23 23 23 22 22 22 23 23 23 22 23 23 23
23 23 23 23 22 22 22 22 22 21 22 23 26 29 28 28
27 21 20 27 18 25 25 25 26 24 23 23 22 21 21 22
19 24 22 25 25 25 26 26 27 26 27 27 27 26 26 27
27 28 27 28 28 28 29 29 29 30 30 30 30 30 30 30
31 31 31 32 32 33 32 33 35 33 33 33 34 33 34 34
33 34 34 34 33 33 33 34 34 33 34 34 34 35 35 35
34 33 33 32 32 31 31 30 30 28 27 26 25 25 24 24
24 23 23 23 22 22 22 22 23 22 23 23 23 23 23 23
23 22 23 22 22 22 22 22 22 21 22 23 27 29 29 29
27 21 20 27 18 25 25 25 24 24 24 24 24 22 23 22
19 24 22 25 26 26 27 26 27 26 27 27 27 27 27 27
27 28 28 28 29 29 29 29 29 30 30 31 30 30 30 32
32 32 32 32 33 32 33 33 34 34 33 33 33 32 32 32
32 32 33 34 34 34 34 34 34 33 34 34 34 34 34 34
34 34 33 33 32 31 30 29 28 27 26 24 24 23 23 23
23 23 22 23 22 22 22 22 22 23 22 22 22 22 23 22
23 23 23 22 23 22 22 23 22 22 23 23 26 28 28 28
27 20 21 28 18 27 25 25 25 25 25 22 23 22 23 22
18 25 23 26 26 27 27 27 28 27 27 27 27 27 27 27
27 28 29 29 29 29 30 30 30 30 30 31 31 31 31 31
32 32 32 32 32 32 31 31 31 32 32 32 33 33 34 34
34 32 34 33 33 34 34 34 34 34 34 34 34 34 34 33
34 34 33 33 32 31 29 28 27 27 26 25 25 24 24 23
23 23 22 21 21 22 22 21 22 22 22 22 22 22 22 22
22 23 23 23 22 23 22 23 23 22 22 24 28 30 30 29
27 19 22 28 18 26 26 26 25 25 24 23 24 24 23 23
19 25 24 27 26 27 27 27 28 27 27 28 28 28 29 28
29 29 30 29 30 30 30 30 30 31 30 30 30 30 31 32
32 32 32 33 33 33 34 34 34 34 34 34 34 34 34 35
37 34 34 34 34 34 34 34 34 34 35 34 35 34 34 34
34 34 33 33 31 30 29 28 28 26 25 25 24 24 24 23
23 23 23 22 23 22 22 22 21 22 21 22 21 21 22 22
22 22 22 23 23 23 23 23 23 23 23 25 28 29 29 29
26 19 23 30 19 26 27 26 26 26 25 23 25 24 23 23
18 25 24 26 27 27 27 27 28 28 28 29 28 28 28 29
29 29 29 30 30 31 30 30 30 30 31 31 32 32 32 33
33 33 34 33 34 34 34 33 34 34 34 34 34 35 35 35
36 34 34 34 34 34 34 34 35 35 35 35 35 34 34 34
21 34 33 32 30 29 29 28 27 26 25 25 25 25 25 24
24 23 23 23 23 22 22 22 22 22 22 22 22 21 22 22
22 22 22 22 23 23 23 22 23 24 24 24 28 30 30 30
28 19 24 30 21 27 27 27 27 27 26 24 26 25 25 24
20 26 25 28 28 28 27 28 28 28 28 28 28 28 28 29
29 30 30 30 30 31 31 31 31 31 32 32 32 33 33 34
34 34 35 35 35 35 35 35 34 34 35 35 35 34 34 34
36 34 34 35 34 35 35 35 35 35 36 35 35 34 35 35
20 34 33 32 32 30 29 28 27 26 26 25 25 24 24 24
23 23 23 22 23 23 23 22 22 22 22 22 21 22 22 21
21 21 22 22 23 23 23 24 23 23 24 25 29 30 30 29
27 20 25 31 21 27 29 28 28 28 27 24 26 25 24 24
20 26 25 27 28 28 28 28 27 27 27 28 28 28 28 29
30 29 30 30 30 30 31 32 30 32 33 33 33 33 33 34
34 34 34 35 35 34 34 35 35 35 35 35 35 34 34 35
35 34 34 34 34 34 35 34 35 35 35 35 35 34 34 34
20 34 33 32 31 30 29 26 26 26 26 25 25 25 25 25
25 24 23 23 23 22 22 22 22 21 21 21 21 21 22 22
22 22 22 23 23 23 23 23 24 24 25 26 30 30 31 30
28 20 26 32 22 28 28 24 21 22 25 29 30 27 26 24
20 26 25 28 28 28 28 28 28 29 29 29 29 29 30 30
30 30 31 31 31 32 31 31 32 32 32 32 33 33 34 35
34 35 35 35 35 35 35 35 35 34 35 35 35 35 34 35
36 34 35 35 35 36 35 35 35 35 35 34 35 35 34 34
21 33 32 31 31 29 28 29 30 28 27 26 25 25 24 24
24 23 23 23 24 23 23 22 22 22 22 21 22 21 21 21
21 21 21 22 23 22 23 24 24 24 25 25 29 30 30 28
26 20 26 32 32 31 28 30 27 26 22 22 25 35 30 29
20 26 27 28 28 28 28 29 29 29 29 29 30 30 30 31
30 30 31 31 31 31 32 32 33 33 33 34 34 34 34 35
35 34 34 34 35 34 35 35 35 34 34 35 35 35 35 34
36 35 34 35 35 35 35 35 35 35 35 36 35 34 35 35
24 33 33 32 31 29 28 35 37 34 32 28 27 25 24 25
24 24 24 23 24 22 22 22 22 23 29 27 24 22 21 21
22 21 22 22 22 22 23 23 23 24 25 25 30 30 29 30
26 21 26 32 29 27 26 28 30 28 25 23 21 22 26 31
36 30 28 29 29 29 29 29 29 29 29 29 29 30 30 31
31 30 31 31 31 32 31 32 33 33 33 33 33 34 34 35
35 35 35 36 35 35 35 34 35 35 35 34 34 35 34 34
35 35 35 35 36 34 35 35 35 35 35 35 35 35 35 35
29 36 34 33 32 30 28 37 39 36 33 31 30 29 29 25
24 24 24 23 23 23 23 23 23 27 36 34 31 29 27 24
22 21 21 22 22 22 23 23 24 25 26 26 30 31 29 29
23 17 23 23 20 15 17 18 22 28 25 17 14 13 19 22
23 28 31 30 30 29 29 30 30 30 30 30 31 31 31 32
31 30 31 31 32 32 32 33 34 34 34 35 35 34 35 36
35 35 35 36 35 36 35 35 36 35 35 35 35 36 35 36
36 34 36 35 35 36 35 35 35 35 35 35 35 36 35 36
32 39 36 36 33 31 29 37 39 38 33 33 33 35 37 30
30 28 26 24 23 23 23 23 22 26 33 31 30 30 31 30
24 21 22 22 23 23 23 23 24 25 25 26 31 31 30 22
14 16 18 16 14 16 18 24 27 25 20 23 18 18 21 23
17 13 25 37 31 30 29 31 30 29 30 30 30 31 31 31
32 32 32 32 33 33 33 33 33 33 34 34 34 34 35 35
35 35 35 36 36 35 36 35 35 35 36 36 35 35 36 36
37 35 36 36 37 35 36 35 34 34 33 33 33 34 33 34
32 41 31 32 36 36 35 30 11 22 33 36 39 38 38 30
29 32 34 30 27 24 24 24 23 25 26 29 29 30 29 30
25 21 22 22 22 23 23 24 24 25 26 26 32 31 26 15
13 17 14 10 15 11 13 19 25 29 27 25 28 25 22 21
21 20 16 21 35 34 31 29 30 30 30 30 31 31 32 32
33 32 32 33 32 33 33 33 34 35 35 35 35 35 35 36
35 35 35 36 36 36 36 36 35 36 36 36 36 36 37 34
34 31 32 34 34 34 34 35 36 38 37 36 36 37 37 36
32 40 37 31 28 37 41 28 0 0 5 18 23 29 35 24
1 8 18 27 31 29 31 28 24 24 11 9 11 18 26 29
27 22 22 23 22 23 23 24 24 25 26 27 31 28 22 13
16 16 7 5 9 8 14 19 28 29 30 26 18 14 16 18
16 13 18 18 19 37 34 31 30 31 30 30 30 31 31 32
32 32 32 33 33 33 34 34 35 34 35 35 36 36 36 36
36 36 35 36 36 35 36 35 34 33 33 33 34 34 34 36
36 36 36 36 35 36 32 35 36 37 36 33 35 35 35 34
5 14 25 37 40 41 42 27 0 0 2 7 9 7 19 22
0 0 0 0 4 12 22 28 29 25 10 2 6 4 2 5
25 22 22 22 23 23 24 24 25 25 26 27 27 18 13 14
20 12 6 5 8 6 11 15 18 25 26 16 11 14 20 29
27 25 22 22 19 20 34 31 32 31 32 31 32 33 33 34
33 34 34 33 34 33 34 33 34 35 34 35 35 35 35 35
35 35 35 35 36 36 36 37 37 36 37 36 36 36 36 36
36 35 35 35 35 35 35 36 35 37 36 35 36 35 34 35
0 0 0 1 11 23 34 26 0 0 1 3 6 7 19 22
0 0 0 0 0 0 0 2 15 25 8 0 2 3 1 1
27 23 23 23 24 24 24 25 26 26 27 26 15 13 15 21
14 11 14 15 16 12 14 14 21 23 16 15 26 31 25 23
26 37 40 31 28 22 29 31 33 33 33 33 32 32 32 33
33 32 32 33 34 34 35 35 35 35 35 35 35 34 35 35
35 35 35 36 35 35 36 36 38 36 36 36 36 36 36 35
35 36 35 36 36 36 36 36 36 36 36 36 36 35 36 36
0 0 0 0 0 0 0 17 0 0 0 0 0 1 18 21
0 0 0 0 0 0 0 0 10 26 5 0 0 1 0 1
28 23 23 23 23 25 25 26 26 27 29 20 8 12 23 16
14 22 31 30 32 27 32 33 38 30 24 28 33 33 32 38
29 34 50 38 32 31 25 39 30 32 32 32 32 32 33 33
33 33 34 34 35 34 35 36 34 34 35 35 35 35 36 36
35 36 35 36 36 35 35 36 37 35 35 36 36 36 36 36
36 36 36 36 36 36 36 36 36 36 36 36 35 35 35 36
0 0 0 0 0 0 0 14 0 0 0 0 0 0 17 16
0 0 0 0 0 0 0 0 11 23 0 0 0 0 0 2
29 23 24 24 25 25 25 26 27 25 20 16 22 21 11 14
33 46 46 48 55 57 64 65 68 52 43 35 36 37 35 33
34 29 29 25 25 29 33 43 33 31 32 32 32 33 33 32
33 33 33 34 34 34 34 36 35 35 35 36 36 35 36 35
35 34 36 35 36 36 35 35 37 35 36 36 35 35 36 36
36 35 35 35 36 36 36 36 36 36 36 35 36 36 36 36
0 0 0 0 0 0 0 13 0 0 0 0 0 1 25 17
0 0 0 0 7 0 0 0 11 21 0 0 0 0 0 4
30 24 24 24 25 25 26 26 26 18 7 9 24 19 10 34
62 69 69 74 86 93 101 103 105 100 79 64 50 49 44 45
49 41 34 26 17 16 32 41 33 29 30 33 33 33 33 33
34 33 33 33 35 34 34 36 34 35 35 36 36 35 36 35
36 36 36 36 36 35 36 36 37 36 36 36 36 36 36 35
37 36 36 35 36 36 37 36 35 35 36 35 36 36 36 36
0 0 0 9 5 0 0 11 0 0 0 0 0 0 23 16
0 0 0 2 9 6 2 0 11 20 0 0 0 0 0 4
31 23 24 25 26 26 26 28 25 6 3 19 24 13 23 66
80 87 87 99 111 117 126 129 125 120 103 88 75 66 64 64
54 52 41 31 21 21 24 36 33 24 23 32 33 33 34 33
34 33 33 33 34 34 34 36 34 35 35 34 35 35 35 35
35 36 35 34 36 35 35 36 37 35 36 36 37 36 36 36
36 36 36 36 35 36 37 36 36 35 36 35 36 36 34 36
1 10 3 2 1 0 0 9 0 0 0 0 0 1 26 17
0 0 0 4 10 8 8 2 11 19 0 0 0 0 0 3
32 24 25 25 26 26 27 28 18 2 7 19 24 19 42 80
90 94 96 109 117 123 136 138 133 128 126 124 121 109 101 103
84 70 54 39 16 18 23 30 33 28 20 25 33 33 32 34
33 34 34 34 34 34 34 36 35 35 34 34 34 35 35 36
36 35 35 36 35 35 35 34 37 36 36 36 36 35 35 36
37 37 36 35 36 36 37 36 35 35 36 36 36 35 35 35
5 3 0 2 1 0 0 9 0 0 0 0 0 1 26 15
0 0 0 3 8 8 8 2 13 19 0 0 0 0 0 4
32 24 25 26 27 27 28 27 11 0 5 24 24 27 59 83
94 97 101 111 122 131 139 142 141 140 140 144 141 129 118 110
101 100 84 58 35 18 28 25 31 26 22 16 32 32 33 33
33 33 33 34 34 34 34 36 35 35 35 35 35 35 36 35
35 35 35 35 35 34 35 35 36 36 35 35 35 35 35 35
36 35 35 36 35 35 35 36 36 37 36 36 36 36 36 35
1 0 0 0 0 0 2 16 2 0 0 0 0 11 30 18
0 0 0 0 2 6 6 0 12 24 8 1 0 0 0 4
33 26 26 27 28 27 28 24 4 0 12 23 31 34 70 86
96 100 105 112 124 134 142 144 145 144 144 145 144 140 139 136
137 126 117 99 62 25 33 24 26 17 13 15 31 33 32 33
33 34 34 34 34 35 35 36 34 35 35 35 36 36 35 36
35 36 36 35 36 35 35 36 36 36 35 35 35 35 35 35
36 36 36 36 36 36 37 36 37 36 36 36 36 36 36 36
0 0 0 0 0 0 5 44 38 24 18 11 2 0 32 36
29 23 15 6 0 0 4 0 14 33 33 29 22 14 10 12
33 25 26 27 27 28 28 19 1 2 7 19 32 45 72 89
99 104 106 113 123 135 144 145 145 144 144 145 145 144 144 145
144 142 128 122 88 39 33 20 14 12 6 7 22 33 33 33
33 33 34 33 35 35 35 35 34 35 35 35 35 36 35 35
36 35 35 35 35 35 35 36 36 36 36 35 36 36 36 36
36 36 35 36 36 36 36 36 37 36 34 35 34 34 34 33
0 0 0 0 0 0 6 48 41 35 37 36 36 30 41 24
11 16 22 27 26 20 14 9 20 36 34 32 32 34 38 39
34 26 27 27 28 29 28 16 0 1 2 15 31 46 70 92
101 105 108 113 122 137 146 145 145 144 145 145 145 145 145 145
145 144 141 133 106 59 35 13 11 6 4 0 11 33 33 33
33 33 34 34 35 35 35 35 34 35 35 35 36 34 36 36
36 36 36 36 36 37 37 36 35 35 36 36 36 36 36 35
36 36 37 37 37 37 37 36 36 36 36 36 36 36 36 35
33 23 10 2 0 0 9 46 33 39 41 41 38 28 30 17
7 8 8 9 10 13 19 27 37 31 28 31 32 37 39 41
34 25 27 28 28 28 28 17 0 0 0 15 29 49 71 93
102 107 113 116 125 140 145 145 145 145 145 145 145 145 145 144
145 144 144 138 119 70 46 9 8 2 0 0 3 32 33 33
33 34 34 34 35 35 35 36 35 35 36 36 37 37 37 36
36 35 36 35 35 35 35 35 37 37 37 37 38 37 36 37
37 36 37 37 37 36 36 36 36 36 36 36 36 36 35 35
48 49 47 42 32 20 23 34 29 39 40 40 40 31 22 15
10 9 9 8 7 6 6 5 6 7 11 18 23 28 28 32
32 26 28 28 29 29 29 16 0 0 0 13 28 47 73 93
103 110 114 119 124 134 144 145 145 145 145 145 145 145 145 145
145 144 144 141 132 76 62 12 2 0 0 1 1 32 34 34
34 34 35 34 35 35 34 35 34 35 35 36 36 36 36 36
37 36 37 36 37 37 36 37 37 37 36 36 36 36 36 36
36 37 37 37 37 37 36 36 36 36 36 36 36 36 35 35
48 49 48 46 46 46 45 28 21 33 38 39 39 31 24 17
11 10 8 6 6 5 5 5 4 5 6 5 12 26 23 18
23 27 28 28 28 29 29 20 0 0 0 8 23 52 75 96
103 109 116 121 125 134 143 145 146 145 145 145 145 145 145 145
144 144 144 143 133 110 68 41 1 1 0 2 1 31 35 34
34 35 35 35 35 35 35 35 36 35 36 35 36 36 36 37
37 37 36 37 36 36 37 36 37 36 37 37 37 37 35 35
37 38 38 37 37 37 37 36 37 37 38 37 37 38 36 37
45 47 47 49 48 47 46 15 0 1 6 12 20 20 22 19
11 9 7 4 5 5 7 7 6 7 8 7 15 21 14 24
24 27 28 28 29 29 29 21 0 0 0 4 22 49 80 97
103 110 114 121 125 132 144 146 146 145 146 145 145 145 145 144
145 145 145 145 142 132 92 89 49 18 12 0 5 32 34 35
34 35 35 35 35 35 35 36 35 34 36 36 36 37 36 38
36 36 37 37 36 37 37 37 37 36 36 37 36 36 36 36
36 37 38 38 38 38 38 38 38 38 39 38 38 38 37 38
34 35 36 38 41 44 44 10 0 0 0 0 1 5 17 19
8 7 2 0 0 0 5 9 8 6 9 10 19 23 9 23
30 28 28 23 28 29 30 25 1 0 0 4 22 56 84 98
104 108 110 118 125 133 143 146 146 146 145 146 146 145 145 145
145 145 144 144 144 141 131 108 103 66 21 1 15 33 35 36
35 34 35 34 35 35 35 35 36 36 36 36 36 37 37 39
37 37 37 37 37 37 37 36 36 36 37 37 37 36 37 37
38 38 38 38 38 38 38 37 37 37 35 35 36 37 38 37
19 24 31 31 29 38 39 7 0 0 0 0 0 2 21 18
7 7 3 0 0 0 1 3 2 0 5 7 17 30 34 34
36 36 33 6 18 31 31 26 1 0 0 6 19 54 88 97
103 105 111 119 132 141 146 146 147 146 146 146 145 145 146 145
145 145 145 144 143 140 141 135 110 64 24 3 21 34 35 35
35 35 35 35 35 35 36 36 36 36 36 36 37 37 37 38
36 37 36 36 35 36 37 36 36 35 36 37 34 36 34 37
38 37 35 37 35 38 39 37 34 34 34 35 36 34 34 32
24 23 28 28 27 38 39 4 0 0 0 0 0 0 24 16
7 4 1 0 0 2 0 0 0 0 0 0 13 32 28 22
23 27 33 35 32 30 30 26 1 0 2 5 25 70 92 99
101 103 112 120 133 145 147 147 147 146 146 146 146 146 145 146
145 145 145 145 143 139 138 134 115 58 21 3 22 34 34 36
35 35 35 35 35 36 35 36 35 37 36 36 37 37 37 37
36 37 36 36 35 36 36 36 36 35 34 35 33 33 32 31
30 29 27 26 24 23 22 20 19 18 16 15 15 14 13 13
13 22 30 33 37 40 37 3 0 0 0 0 0 0 27 7
1 0 0 0 1 7 2 0 0 0 0 0 13 34 29 22
24 26 26 28 32 32 31 25 1 0 6 10 38 71 87 94
99 106 115 128 138 147 146 147 147 147 147 147 146 146 146 146
146 146 146 146 144 140 137 132 117 64 17 5 23 35 33 35
36 35 36 36 37 38 37 38 38 37 37 35 35 33 33 32
30 30 36 32 25 23 22 22 20 19 18 18 18 17 16 15
15 15 15 14 14 14 15 15 16 17 16 16 16 17 17 17
0 0 0 4 12 19 29 2 0 0 0 0 0 0 31 6
0 0 0 0 0 4 9 1 0 0 0 0 15 35 29 12
29 31 25 28 31 31 31 24 0 7 10 39 73 71 69 75
69 68 81 105 136 145 143 146 147 148 148 147 147 147 147 147
147 147 146 146 145 140 133 130 115 67 17 4 26 35 35 33
31 31 29 28 27 25 24 23 22 21 20 20 18 18 18 18
18 18 33 33 14 16 18 19 18 19 19 19 20 20 20 21
20 21 22 21 22 22 22 23 22 22 22 23 23 23 23 24
0 0 0 0 0 0 14 1 0 0 0 0 0 2 31 3
0 0 0 0 1 4 13 7 4 0 0 0 17 36 30 9
22 19 20 29 31 32 32 25 1 6 9 29 38 33 95 144
75 33 30 28 34 59 97 139 149 147 147 147 147 147 147 146
147 146 146 146 146 143 133 128 117 79 16 6 20 20 20 20
19 19 19 19 20 20 20 20 21 22 21 22 22 22 22 22
22 22 26 25 16 22 24 25 25 26 25 26 26 26 27 27
27 27 27 27 27 28 28 28 29 28 29 28 28 28 28 28
0 0 0 0 0 0 14 0 0 0 2 0 0 3 30 1
0 0 0 0 10 12 13 9 8 0 0 0 19 37 30 17
20 21 17 28 31 32 32 29 2 2 6 14 13 26 109 151
86 24 10 8 5 9 20 49 116 147 148 147 148 147 147 146
147 133 118 109 109 112 108 107 107 86 18 10 23 23 24 24
24 25 25 25 26 27 27 26 26 28 28 28 29 29 28 29
29 28 33 32 21 28 30 30 30 31 31 31 31 31 32 32
31 31 32 33 33 33 33 32 32 32 32 33 32 32 33 32
0 0 6 1 0 0 13 0 0 3 11 2 0 4 29 0
0 0 0 0 8 12 15 3 2 0 0 0 19 38 32 22
20 13 17 27 31 33 34 33 7 4 13 20 14 26 72 90
41 16 8 4 1 1 3 11 44 113 140 147 148 140 111 64
42 30 30 38 47 62 96 129 123 109 88 56 26 30 30 29
30 31 31 31 32 32 32 31 32 33 32 33 34 34 33 34
32 30 28 26 25 32 32 33 33 33 34 34 34 34 34 33
33 33 34 34 33 34 34 35 35 36 36 36 36 36 36 35
0 5 18 5 1 0 13 0 0 10 12 5 0 6 26 0
0 0 0 0 0 4 10 0 0 0 0 0 18 38 32 24
13 4 7 26 31 34 67 87 23 18 37 21 10 20 40 44
25 8 5 3 1 0 0 1 6 56 108 141 146 98 35 21
14 8 6 13 17 40 122 152 129 45 79 74 24 35 34 34
34 34 35 34 34 35 35 34 34 34 34 34 35 34 35 34
34 29 9 8 23 35 37 36 36 36 36 36 36 36 37 36
36 36 36 36 36 36 36 36 36 36 36 36 35 35 36 35
0 8 18 6 3 0 20 20 14 17 13 11 2 8 24 0
2 0 0 0 0 4 11 0 0 0 0 0 17 39 31 14
7 4 6 25 31 44 69 100 87 73 64 17 7 15 19 23
14 2 1 0 0 0 0 0 3 23 52 74 78 36 17 6
0 0 1 19 11 20 67 112 94 38 13 25 29 36 35 35
36 35 36 36 37 36 37 37 36 36 36 37 37 33 31 28
31 26 9 4 19 34 37 38 38 37 36 36 37 37 37 36
36 36 36 36 36 36 37 37 37 37 37 37 37 38 37 37
0 1 1 0 0 0 22 34 34 36 35 33 31 31 24 0
0 0 0 0 0 4 11 0 0 0 0 0 16 40 26 7
8 0 5 25 31 57 77 87 105 101 64 15 4 10 11 10
5 0 0 0 0 0 0 0 4 24 28 32 36 37 10 0
0 0 0 9 22 32 40 49 39 26 19 22 38 37 37 37
36 37 37 36 36 37 38 38 37 36 37 38 31 2 1 1
19 20 10 5 19 35 37 38 38 36 37 37 37 37 37 37
37 37 37 36 37 37 36 37 37 38 37 37 36 36 36 36
5 0 0 0 0 0 23 35 35 36 35 36 39 41 28 4
4 3 0 0 0 6 11 0 0 0 0 0 12 41 20 5
6 0 15 25 30 62 86 90 106 98 68 14 3 8 5 1
0 0 0 0 0 0 0 0 5 26 38 55 33 37 3 0
0 0 0 3 23 35 33 33 35 26 13 40 71 40 36 37
37 37 36 36 36 37 37 37 37 37 37 38 36 26 27 29
32 24 0 0 20 35 37 37 37 37 37 37 37 36 37 37
36 37 37 36 36 36 36 35 36 38 36 36 36 36 36 37
0 0 0 0 0 0 20 30 33 34 33 37 42 43 36 23
23 21 15 11 9 12 11 2 1 0 0 0 8 40 17 4
0 2 9 25 30 58 91 95 111 91 69 11 3 8 3 1
0 0 0 0 0 0 0 0 10 36 107 141 116 38 3 0
0 0 0 0 8 16 16 22 22 21 13 72 114 57 35 36
37 36 37 36 37 38 38 37 36 37 37 37 37 35 35 35
33 24 1 2 20 34 36 37 37 36 36 37 37 36 36 36
36 37 37 35 36 36 36 36 36 37 36 36 36 35 35 35
0 0 0 0 0 0 26 26 28 29 29 29 26 27 29 26
27 27 25 25 26 24 21 18 15 15 12 12 17 35 20 10
7 11 1 18 30 53 96 99 108 85 72 14 4 11 4 1
1 0 0 0 0 0 0 1 18 62 124 141 143 51 7 0
0 0 0 0 3 4 6 18 18 15 14 87 110 73 36 36
36 36 36 36 37 37 37 37 37 38 37 37 36 36 35 34
33 27 4 0 24 35 36 37 37 36 37 36 36 37 36 37
37 36 37 35 36 36 36 36 36 36 36 36 36 36 36 36
13 7 2 0 0 0 30 26 24 25 26 26 24 20 25 28
29 29 28 27 28 27 28 26 24 21 18 17 23 36 30 23
20 15 10 15 30 40 99 106 100 84 73 33 6 8 4 2
1 0 0 0 0 0 2 12 25 93 130 146 143 59 14 0
0 0 0 0 2 3 6 19 17 12 18 92 111 84 35 36
36 36 36 36 36 37 37 36 37 37 37 36 36 35 36 33
32 27 9 6 28 36 36 37 36 36 36 36 36 36 36 36
36 36 36 36 36 36 36 36 36 37 36 36 36 35 36 35
39 39 32 32 30 23 37 29 26 27 26 27 27 28 30 29
30 32 36 33 27 29 28 29 37 36 31 28 29 38 43 42
41 37 32 25 30 34 84 111 102 102 80 56 30 5 2 1
1 0 0 0 0 0 11 20 57 99 135 147 140 76 24 0
0 0 0 0 2 3 7 18 16 10 23 106 112 83 34 36
36 36 36 36 36 36 37 36 37 36 37 37 36 36 36 33
31 27 23 22 32 36 36 37 37 37 37 36 36 36 36 37
36 36 36 35 36 36 36 36 35 36 36 36 36 36 36 36
48 46 45 45 45 45 44 33 29 29 29 29 31 33 37 31
31 34 42 39 26 24 28 31 40 40 38 35 36 34 30 30
34 36 39 36 31 33 67 112 98 113 82 70 39 10 3 3
1 0 0 0 0 0 16 28 87 101 140 146 135 101 26 2
0 0 0 3 5 4 9 19 14 7 37 115 114 62 35 36
36 36 36 36 36 37 36 37 37 36 37 36 36 35 35 34
31 28 29 30 34 36 37 37 36 36 37 36 36 36 36 37
35 36 36 36 35 36 36 35 35 37 37 36 36 35 35 34
40 42 44 45 46 46 46 28 23 22 24 25 30 35 39 31
31 34 40 37 27 22 21 28 42 41 38 37 38 36 30 21
19 20 20 23 30 32 58 103 95 111 84 70 69 29 11 0
0 0 0 0 0 10 20 62 89 104 142 147 133 118 29 24
0 0 1 12 17 14 16 19 9 8 66 125 110 39 35 36
36 37 36 36 36 36 36 36 37 37 37 37 36 36 35 34
33 31 30 35 36 36 36 37 37 37 36 36 36 36 36 36
36 37 36 36 36 36 36 35 36 37 36 35 36 36 36 35
16 16 17 20 24 29 35 16 1 2 0 2 5 12 34 32
30 21 21 27 25 21 20 22 31 27 29 35 38 37 36 28
26 24 24 27 31 33 47 98 86 103 91 68 80 89 59 25
12 9 9 12 18 23 49 86 84 113 146 147 127 121 50 34
10 0 1 8 15 24 23 18 5 27 103 131 85 35 36 36
37 36 36 36 36 36 36 37 36 37 36 37 35 35 35 35
32 33 33 37 37 37 36 37 37 37 37 37 36 37 36 36
36 36 37 36 36 36 37 36 36 35 35 35 36 36 35 35
26 23 22 20 17 17 19 10 0 0 0 0 0 0 28 31
19 0 0 2 4 3 15 25 17 1 0 3 10 16 29 33
30 29 31 32 33 33 36 87 107 91 90 68 82 97 103 97
73 61 71 76 72 81 100 84 93 133 147 147 132 122 94 30
42 13 2 5 8 12 16 7 12 73 123 130 58 35 36 36
36 36 35 35 36 36 35 36 36 36 37 36 35 35 35 34
33 33 35 35 35 35 36 36 36 37 36 37 36 36 36 36
36 36 36 36 35 35 35 35 35 35 35 29 34 34 34 34
29 28 28 28 27 25 25 9 1 0 0 0 0 6 31 27
5 0 0 0 0 2 20 26 15 0 0 0 1 9 24 26
27 31 35 38 41 40 33 58 100 108 91 66 83 94 101 110
121 138 144 125 104 99 100 86 113 146 147 147 137 120 128 89
71 48 26 26 19 18 19 25 62 118 125 125 45 35 36 35
36 35 35 35 35 36 36 36 35 35 35 36 35 35 35 35
34 35 36 36 35 35 35 36 36 37 36 36 35 35 36 36
36 36 36 35 36 36 35 35 35 35 35 35 35 34 33 31
31 30 29 28 28 28 27 9 1 0 0 0 0 9 31 22
0 0 0 0 0 0 23 25 15 0 0 0 0 8 24 5
2 6 10 12 27 41 33 39 85 110 101 66 82 95 102 113
121 129 125 110 99 103 100 92 116 148 147 146 144 124 132 135
138 123 94 65 54 74 96 105 96 121 108 109 39 36 37 35
35 35 35 35 35 35 35 34 36 36 36 35 36 36 36 35
35 36 36 36 35 36 36 36 36 35 35 35 35 35 35 35
35 36 36 35 35 35 35 35 35 35 34 33 34 33 33 32
9 13 18 21 26 30 30 8 0 0 0 0 2 0 28 15
0 0 0 0 0 0 26 24 13 0 0 0 0 5 24 3
1 9 3 0 15 42 33 28 56 100 103 66 80 95 101 109
117 116 110 101 98 107 100 90 98 144 147 147 143 126 130 130
141 146 146 146 143 138 125 110 97 113 115 85 35 36 36 34
34 35 35 34 34 36 36 36 36 35 35 35 35 35 35 35
35 36 35 36 35 36 37 36 36 36 36 36 36 35 35 35
35 35 35 35 35 35 35 35 35 34 34 33 33 32 31 31
22 19 16 12 2 14 35 13 0 0 0 0 2 0 27 13
0 0 0 0 0 1 27 22 11 0 0 0 0 4 25 3
2 9 7 0 14 42 32 27 34 60 84 62 77 93 103 109
113 108 106 105 104 105 95 62 70 120 133 140 119 123 136 133
136 146 146 145 144 138 126 107 101 114 111 46 35 36 36 35
35 34 35 34 34 34 34 33 34 34 34 34 34 34 34 36
36 36 36 36 36 35 35 35 36 35 35 35 35 35 35 35
36 35 35 36 35 35 35 34 34 33 33 32 31 31 30 30
26 26 25 25 8 11 37 17 2 0 0 1 1 0 27 12
0 0 0 0 0 2 29 20 8 0 0 0 0 0 25 3
1 2 0 0 15 41 32 27 33 35 40 59 75 90 103 109
109 106 105 101 101 103 98 72 79 89 95 106 54 113 141 139
131 143 146 145 144 136 124 102 106 129 87 35 36 35 35 34
34 34 34 34 33 34 35 35 34 35 34 34 35 34 35 36
35 36 35 35 36 35 36 35 36 35 35 35 35 35 35 35
36 35 35 35 35 34 34 34 34 34 33 33 31 31 29 29
26 25 25 25 9 9 37 8 0 0 0 0 1 0 27 11
0 0 0 0 0 0 29 20 12 0 0 0 0 0 26 4
3 6 3 0 15 41 31 27 33 35 38 55 71 86 100 108
108 106 97 94 93 93 86 79 76 84 96 114 80 114 140 141
142 145 146 145 144 135 119 97 109 108 48 22 23 20 21 20
20 19 21 25 31 34 34 33 31 19 20 20 20 19 22 29
36 36 35 35 36 35 35 35 34 35 34 34 34 34 35 34
36 34 34 34 34 34 33 33 33 32 32 31 30 29 29 29
18 22 24 24 10 10 37 4 0 0 0 0 0 0 28 10
0 0 0 0 0 0 28 20 9 0 0 0 0 0 26 4
0 0 0 0 16 40 29 29 33 35 38 53 68 79 94 108
109 103 92 91 92 92 84 83 96 107 118 131 121 127 134 140
145 146 146 145 141 129 115 94 112 70 22 4 5 9 8 8
3 3 3 3 19 34 34 34 31 9 6 7 7 7 8 21
36 35 36 35 35 36 35 35 35 35 35 35 34 34 34 34
35 34 33 34 33 33 33 34 33 32 31 32 31 30 29 28
0 8 18 24 11 11 37 3 0 0 0 0 1 0 30 11
0 0 0 0 0 0 27 19 6 0 0 0 0 0 27 7
0 0 0 0 17 38 27 30 33 34 38 49 66 77 89 106
116 109 84 90 98 101 107 111 120 120 117 133 125 124 131 139
142 145 145 145 139 127 109 78 50 36 20 3 5 9 7 7
3 3 3 3 17 33 33 33 30 8 6 6 7 7 7 23
36 36 36 35 35 35 35 35 34 34 34 34 34 34 34 34
36 34 34 34 34 32 34 33 33 32 31 30 29 29 28 27
0 14 22 23 12 7 37 19 14 9 6 7 12 3 30 20
5 3 2 2 0 0 29 21 12 4 2 0 0 0 27 7
0 0 0 0 18 35 26 31 33 34 38 45 66 74 79 100
119 126 83 61 76 89 101 117 138 145 135 138 137 127 123 125
132 138 141 143 137 118 100 61 34 34 19 3 5 9 7 7
3 3 2 2 15 33 33 34 27 7 7 8 8 8 8 24
36 35 35 35 35 35 35 34 34 34 34 35 34 34 34 33
35 35 34 34 34 33 33 33 33 32 31 31 30 28 28 26
0 15 24 23 13 4 38 38 38 32 33 35 33 33 29 36
40 36 35 35 33 31 38 23 27 32 31 30 32 31 38 10
1 0 0 0 20 33 25 30 32 34 37 40 62 69 76 91
117 124 106 89 72 74 86 98 112 127 134 132 134 131 123 117
117 122 134 138 130 109 92 47 34 33 18 3 4 9 7 7
2 3 3 2 18 33 33 34 27 7 7 7 8 6 7 21
35 35 36 36 35 35 34 34 34 34 34 33 34 34 33 33
34 33 34 34 33 33 34 33 33 32 32 30 29 28 26 25
0 15 24 23 14 4 39 40 35 35 37 36 29 22 22 33
44 41 39 39 43 43 43 27 25 35 35 37 42 45 45 31
27 25 23 22 28 31 25 30 33 34 38 35 53 68 73 88
113 121 120 99 91 96 109 121 127 122 124 124 113 101 97 94
88 110 132 133 116 100 83 38 35 33 18 4 5 9 9 6
2 3 3 2 19 33 34 34 28 8 8 8 9 8 7 21
37 37 36 36 35 35 35 34 34 34 34 34 34 34 35 33
33 35 34 34 33 34 33 32 33 32 32 30 29 27 26 25
0 18 25 24 14 3 41 31 29 29 33 35 32 23 18 22
33 34 36 36 38 39 41 32 19 29 33 36 42 46 46 31
27 28 29 30 32 30 28 30 33 35 36 34 47 65 74 85
106 117 115 100 93 99 113 118 121 126 135 141 133 120 111 114
111 121 132 123 104 95 68 34 34 33 17 4 5 7 6 6
4 4 4 4 22 35 35 35 30 17 17 15 16 16 15 21
34 35 35 34 35 35 35 35 34 35 35 34 35 34 35 34
35 34 35 35 35 35 34 34 33 32 29 28 27 25 24 22
0 17 25 22 17 8 42 21 24 27 28 34 33 25 20 17
13 12 13 12 13 14 19 22 19 21 26 27 25 22 26 27
28 28 30 29 28 30 30 29 32 33 34 37 40 62 79 88
100 105 108 102 98 95 103 107 106 106 113 121 125 121 118 127
139 129 127 113 101 92 53 36 36 34 17 6 6 4 3 5
5 6 5 4 22 35 36 35 30 10 11 12 12 13 13 22
35 37 38 37 37 36 36 36 34 34 36 36 36 36 36 36
37 36 36 35 35 35 34 34 33 33 32 30 29 27 26 25
0 18 26 23 23 26 43 9 1 3 7 10 14 12 19 20
17 16 17 20 19 18 21 25 26 27 29 28 27 24 24 28
29 30 31 32 31 31 31 31 31 32 37 38 38 54 79 90
98 104 103 103 103 107 104 101 102 105 109 114 117 117 120 127
130 128 121 102 96 78 39 37 36 33 16 5 5 1 0 6
6 6 5 5 24 35 37 35 30 10 10 11 10 10 10 22
37 37 37 37 38 37 37 37 36 36 36 37 37 36 35 36
36 35 35 35 35 35 35 34 34 33 32 29 28 27 25 24
0 17 26 23 28 46 46 9 0 0 0 0 1 3 19 22
27 28 27 33 34 28 27 31 32 35 40 40 35 27 26 27
29 30 31 30 31 31 31 32 33 35 40 38 38 59 71 80
92 101 102 104 109 116 117 116 109 110 114 117 118 116 118 120
123 123 110 98 89 58 36 37 35 31 16 6 5 7 9 10
6 6 4 4 23 35 36 35 28 9 10 11 11 10 10 24
38 37 37 37 37 36 37 36 36 36 36 36 36 36 36 36
36 35 35 35 34 33 34 34 33 32 30 28 27 26 24 22
0 16 25 22 27 48 49 12 0 0 0 0 0 3 25 19
28 30 30 36 39 10 7 10 13 18 26 39 36 27 26 27
29 30 31 31 31 31 31 32 33 35 39 38 37 63 60 78
85 100 102 104 108 113 116 126 133 137 134 128 124 117 115 122
125 116 101 94 78 43 37 36 34 30 15 5 4 1 1 5
5 6 4 4 25 34 35 35 28 9 9 9 9 9 9 23
37 36 36 35 36 36 36 37 36 36 36 35 36 36 35 35
35 36 34 34 34 33 33 33 31 31 29 28 26 25 23 21
0 14 24 21 25 44 45 15 0 0 0 0 0 1 27 16
25 20 4 8 26 3 0 0 0 0 4 34 37 27 28 27
29 29 30 30 30 30 30 30 32 34 38 37 33 65 58 68
76 90 103 104 102 101 114 127 137 143 138 124 121 115 115 118
117 109 99 88 77 41 36 35 32 30 14 5 5 0 0 5
5 6 3 4 25 34 36 35 27 8 9 9 9 9 9 24
37 36 36 36 35 35 35 35 35 35 35 35 36 35 36 36
36 35 35 34 33 33 33 31 31 30 29 27 26 25 23 21
0 14 24 21 19 15 12 0 0 0 0 0 0 2 27 15
25 17 0 0 21 3 0 0 0 0 2 32 36 26 27 28
29 29 29 30 30 30 31 30 31 33 38 34 30 65 64 52
68 82 96 101 93 95 116 133 140 140 136 121 112 110 117 116
114 103 97 78 83 42 36 35 32 29 14 4 4 3 4 4
4 5 4 3 25 34 36 34 26 8 8 9 9 8 9 26
36 36 35 35 36 35 35 36 36 35 35 35 35 36 35 35
35 35 34 33 33 33 32 31 30 30 28 26 26 24 22 21
0 13 23 20 19 12 9 0 0 0 0 0 0 4 28 15
26 16 0 0 20 4 0 0 0 0 1 30 36 27 28 28
28 29 29 29 29 30 30 30 32 34 37 31 30 63 71 49
53 73 84 92 86 95 113 126 139 137 129 118 106 110 118 115
106 98 89 75 88 43 36 34 31 30 13 4 5 4 4 4
4 5 3 3 25 33 35 34 25 7 7 8 9 8 9 27
36 36 36 35 35 35 35 36 34 34 35 35 35 35 35 34
35 34 33 34 32 32 31 31 29 28 28 25 25 24 21 20
0 12 24 19 19 16 10 0 0 0 0 0 0 5 27 15
26 15 0 0 20 5 0 0 0 0 0 28 34 26 27 27
28 28 29 29 29 29 30 30 31 33 35 31 29 67 74 56
42 57 70 83 89 96 102 117 135 130 120 115 102 111 115 104
96 92 76 86 93 45 36 34 32 30 13 4 3 4 3 4
4 5 3 3 26 33 35 34 25 7 8 9 8 7 8 27
36 35 35 35 35 35 35 35 34 34 35 35 35 35 35 34
34 33 33 32 31 31 32 30 29 28 27 25 24 21 21 19
0 12 23 19 18 17 10 0 0 0 0 0 0 3 28 16
26 13 0 0 18 4 0 0 0 0 0 27 34 25 27 27
28 28 28 28 28 29 29 29 30 32 34 30 29 68 75 66
52 42 56 72 83 94 101 104 121 118 114 114 108 111 107 93
88 79 82 95 98 47 35 34 32 30 13 3 3 4 4 3
3 4 3 4 26 33 35 34 26 10 11 9 8 7 8 26
35 35 35 34 34 34 34 35 34 34 33 34 34 34 34 34
34 33 33 33 32 32 32 30 29 28 27 25 24 21 21 20
0 13 23 19 18 20 9 0 1 0 0 4 0 3 29 17
27 15 1 0 17 6 0 0 0 0 0 26 33 25 25 26
27 28 28 28 28 29 30 29 31 33 36 30 23 69 79 72
60 50 45 56 68 84 95 98 103 111 112 106 103 100 90 81
78 80 96 102 100 48 34 34 32 30 13 3 4 3 3 3
3 4 3 3 27 32 35 34 33 31 32 28 20 27 24 30
34 35 35 34 34 35 35 34 34 35 34 35 34 34 34 34
34 32 32 32 32 32 31 30 29 28 27 25 24 22 22 20
0 13 22 18 18 20 11 1 2 0 0 8 10 3 31 19
28 15 9 0 17 4 1 0 1 0 0 27 33 25 26 27
27 27 27 28 28 28 28 29 30 32 35 32 30 72 82 78
68 59 52 44 47 59 64 72 84 95 95 94 93 79 77 77
79 93 103 104 98 49 33 33 32 30 12 3 4 4 3 3
3 4 3 4 26 32 33 34 35 34 35 35 34 34 34 34
36 35 35 35 35 35 35 35 34 35 34 34 34 34 34 34
34 33 33 32 32 32 32 30 29 29 26 25 24 22 21 19
0 13 22 18 19 20 20 13 15 11 9 15 17 8 34 21
29 11 14 0 17 2 2 6 3 0 0 26 31 24 25 26
26 26 27 28 28 28 28 29 30 32 35 31 27 74 82 80
78 67 60 56 48 45 41 42 48 58 66 66 65 69 74 80
90 98 108 105 101 41 13 18 22 26 12 4 4 4 4 3
4 4 2 5 28 34 35 35 35 36 35 36 36 36 36 35
35 36 36 35 36 36 35 35 35 34 34 35 35 35 35 35
34 34 32 33 32 31 31 30 29 28 29 28 26 24 22 20
0 13 21 18 18 20 34 41 43 43 43 43 42 41 43 25
30 5 13 5 17 6 5 6 3 1 1 22 27 23 25 25
26 26 27 27 27 27 27 28 29 29 26 9 8 75 83 83
81 78 68 66 62 53 47 46 44 40 41 50 61 71 80 90
95 103 109 106 107 47 0 1 0 2 7 15 15 10 9 7
4 3 4 12 29 33 33 34 34 34 34 34 33 33 35 34
34 35 34 34 35 35 34 35 34 35 34 35 34 33 33 34
34 33 33 32 31 31 31 31 29 28 27 25 24 23 21 22
0 13 21 17 17 19 34 47 47 46 47 46 46 47 47 30
28 3 3 7 17 18 17 17 17 16 15 18 21 23 24 24
25 26 26 26 27 27 27 27 27 16 2 0 6 75 83 84
84 81 75 71 72 71 66 62 61 60 64 71 80 87 96 99
105 111 113 112 110 49 0 0 0 0 1 15 22 19 18 16
6 2 14 21 30 33 34 33 34 34 34 34 33 34 35 34
34 34 34 34 33 34 34 35 34 34 33 34 34 34 33 33
34 33 32 31 31 30 30 30 30 27 26 25 24 22 20 20
0 13 21 15 17 19 21 33 33 34 35 36 37 37 37 31
26 2 0 0 17 16 16 16 15 15 16 16 19 23 23 25
25 25 26 26 26 26 27 26 19 2 0 0 14 77 84 87
88 85 81 76 77 88 98 101 102 101 100 104 106 106 107 107
112 117 120 118 112 73 2 0 0 0 0 15 19 20 19 17
5 2 17 24 30 32 33 33 34 33 34 33 31 34 34 33
33 33 34 33 33 34 34 35 34 34 33 34 33 33 34 33
34 32 32 31 31 31 31 29 29 26 25 24 23 21 20 19
0 13 19 16 18 20 12 9 8 8 9 8 8 8 7 12
24 2 0 0 18 19 20 21 21 20 20 21 21 22 23 24
24 25 25 26 25 26 26 25 7 1 0 0 31 80 86 89
89 87 84 79 79 91 106 113 120 117 115 115 116 115 113 116
122 128 127 124 114 95 44 0 0 0 0 16 17 22 22 20
6 3 21 26 30 32 33 33 33 33 33 33 31 33 33 33
33 34 33 33 32 33 33 34 35 35 35 33 34 34 34 34
34 32 32 31 31 31 31 30 29 27 26 25 24 22 21 20
0 14 19 15 17 20 14 11 10 9 9 8 8 8 5 13
24 2 0 0 18 19 21 21 21 21 22 21 22 22 23 23
24 24 24 25 26 25 26 20 2 0 0 2 59 80 86 90
96 94 88 83 85 89 105 120 127 126 120 120 119 119 115 124
131 136 135 129 119 101 94 34 0 0 0 16 15 21 23 21
6 4 23 27 31 32 33 33 34 33 33 32 30 33 34 33
32 33 33 32 32 32 33 35 37 37 36 36 35 35 35 35
36 33 33 32 32 32 32 31 30 29 27 26 24 22 21 19
0 14 18 15 17 21 20 17 16 15 13 12 10 9 7 15
24 5 3 3 19 18 20 21 20 21 22 22 22 23 23 24
23 23 24 24 25 25 25 12 4 1 0 26 73 80 83 94
100 103 95 86 85 90 97 114 128 128 122 122 122 122 121 129
137 140 135 131 120 106 100 95 23 0 3 17 13 18 24 22
6 5 24 26 30 32 33 33 32 33 32 31 30 32 33 32
33 26 18 18 20 23 39 47 48 49 47 46 45 44 43 42
42 39 36 35 34 35 34 34 32 30 29 27 26 25 23 21
0 17 18 15 17 21 20 18 18 17 17 16 14 12 8 20
26 21 27 29 27 17 20 20 20 20 20 21 21 22 21 22
22 22 24 23 24 23 22 6 7 3 3 65 77 81 86 95
103 108 110 96 90 96 101 104 112 118 125 122 126 122 124 136
143 142 138 133 121 108 102 104 57 5 16 17 12 13 24 24
7 5 25 27 30 31 32 32 32 33 32 31 28 30 33 30
31 10 0 0 0 4 51 54 55 54 54 54 54 54 54 54
53 53 52 51 50 49 48 46 44 42 40 37 34 31 28 26
11 20 18 15 17 21 20 18 18 17 17 17 17 15 8 17
20 17 20 24 22 17 18 20 20 20 19 20 21 20 21 21
21 22 22 22 22 22 15 4 11 10 16 82 80 84 87 96
105 112 117 112 100 100 107 105 112 120 129 128 125 123 132 143
144 144 140 131 120 113 104 108 63 20 16 15 11 11 17 25
8 5 26 29 30 31 31 32 33 32 31 30 27 30 33 31
30 7 0 0 0 8 53 54 54 54 54 54 54 55 54 55
55 54 54 53 52 52 52 51 50 48 47 46 45 44 41 41
15 15 14 14 17 21 20 18 17 16 16 16 16 14 12 14
14 10 9 14 14 16 18 18 19 20 20 19 19 19 20 21
21 21 21 22 22 17 7 6 13 17 28 87 84 84 89 99
104 113 125 123 113 110 113 115 121 127 134 132 128 131 141 145
145 144 139 130 118 118 112 111 55 25 16 16 11 10 13 16
9 5 27 30 30 31 31 31 33 32 31 29 25 30 32 31
28 5 0 0 0 14 54 54 54 54 54 54 54 54 54 54
54 53 53 52 52 52 51 51 50 49 47 46 45 43 41 40
15 14 14 14 17 20 20 19 19 18 17 16 16 14 14 15
14 13 10 14 15 16 17 18 19 18 19 19 19 19 20 19
20 20 20 21 17 7 6 7 14 19 44 91 90 88 92 103
110 113 125 132 123 117 118 126 132 135 141 142 138 140 145 147
145 143 140 132 122 120 117 110 40 22 17 17 11 10 12 13
18 10 24 28 30 30 31 30 31 31 31 30 22 30 32 31
27 3 0 0 0 21 54 53 53 54 54 53 54 53 54 54
54 53 53 53 52 52 51 50 50 48 47 46 45 44 42 40
15 14 15 14 17 20 20 20 19 19 18 17 17 15 14 15
15 15 13 15 15 16 18 18 18 18 18 18 19 18 18 19
20 19 20 19 6 7 5 8 15 22 78 101 95 91 97 106
112 117 125 136 134 124 123 129 137 137 141 143 142 144 147 147
145 143 140 132 126 123 121 93 35 17 17 15 11 11 12 12
19 25 22 25 30 32 31 32 32 31 31 29 20 28 30 31
26 1 0 0 0 29 54 54 54 53 54 53 54 54 53 54
53 53 53 52 52 52 52 51 50 49 48 47 45 44 42 40
12 11 11 15 18 19 19 19 18 19 19 19 18 16 15 16
16 15 14 15 16 16 16 17 18 17 18 18 18 18 19 19
18 19 19 9 4 5 4 9 14 21 63 121 105 96 101 111
114 118 126 137 140 131 126 131 136 138 143 145 145 145 147 147
146 144 140 135 129 125 119 62 29 17 17 13 11 10 13 14
18 29 29 24 26 27 29 30 31 31 31 28 9 16 30 31
24 0 0 0 0 38 54 52 52 53 53 53 53 53 53 54
54 53 53 53 53 52 52 51 50 49 48 46 46 44 43 42
15 16 17 19 19 19 19 19 19 18 19 18 18 17 16 15
15 15 15 15 14 15 16 17 18 17 17 18 18 18 18 18
19 17 10 5 4 5 6 10 15 22 57 138 108 103 108 116
118 120 123 138 145 139 132 133 134 136 142 144 144 146 147 145
145 142 141 138 133 126 95 48 20 18 16 13 11 11 13 15
18 24 27 29 38 27 22 28 31 31 31 28 14 21 29 29
20 0 0 0 0 44 53 53 53 52 53 53 53 53 53 53
53 52 53 53 52 52 52 51 51 49 49 47 46 45 43 41
14 16 17 18 18 19 19 18 19 18 18 19 18 18 17 16
15 16 15 15 14 15 16 17 17 17 17 17 17 17 18 20
22 9 7 5 4 5 6 10 16 22 48 145 124 109 115 121
125 124 122 136 148 146 139 139 139 139 141 142 146 148 147 146
144 143 145 140 134 121 65 41 18 19 15 13 12 12 14 15
19 23 26 30 59 59 31 27 31 30 30 27 22 30 29 28
18 0 0 0 3 49 52 53 53 53 52 53 53 53 53 53
54 53 53 53 52 52 52 51 50 49 48 47 46 44 43 42
13 15 16 17 18 18 18 18 18 18 18 17 18 18 17 16
14 15 15 15 15 15 16 16 16 17 17 16 17 19 22 21
12 7 7 5 4 5 6 11 16 23 47 139 149 121 122 128
129 130 126 138 148 149 146 145 146 145 146 145 147 147 147 146
144 145 145 144 137 88 82 25 20 16 14 13 12 12 14 15
18 22 20 20 42 52 34 29 30 31 31 28 26 29 29 28
15 0 0 0 6 51 52 52 52 52 52 53 53 53 53 53
53 53 52 53 53 52 52 51 50 49 48 48 46 45 43 42
11 14 16 16 17 17 17 18 18 18 18 18 17 18 17 16
15 14 16 16 14 14 15 16 16 16 16 17 23 25 19 14
1 2 6 5 2 3 6 11 17 22 48 128 150 150 130 132
136 133 129 138 148 148 149 147 147 148 148 147 148 147 148 147
146 146 146 146 120 97 70 17 18 16 13 12 12 14 15 16
17 15 10 11 20 50 32 28 30 32 46 33 27 29 28 28
11 0 0 0 13 52 51 52 52 52 51 52 52 52 53 53
52 53 53 53 52 52 52 51 51 49 49 48 46 45 43 42
11 13 15 17 19 19 17 17 18 17 18 18 17 17 17 16
15 14 15 16 15 14 16 16 16 15 18 24 27 16 14 12
1 4 5 5 2 4 5 10 17 23 50 116 151 150 149 135
138 140 134 140 148 148 148 149 148 148 148 148 147 148 148 147
147 147 146 141 126 113 25 20 18 15 14 13 12 15 16 17
17 18 14 13 20 49 30 25 23 25 34 45 34 29 28 27
9 0 0 0 19 52 51 52 52 52 52 52 52 53 53 53
53 52 52 52 51 51 51 51 50 49 48 48 46 45 44 42
9 9 7 9 17 14 16 17 17 17 17 16 17 16 16 17
14 14 15 15 15 15 15 15 15 21 26 18 14 10 17 9
0 5 6 5 2 3 3 9 15 22 38 106 151 150 150 150
138 139 138 144 149 148 148 148 148 148 147 148 148 148 148 147
148 148 144 145 134 56 20 19 16 14 13 14 14 15 18 17
18 20 15 13 18 63 18 11 11 12 16 26 36 36 32 26
5 0 0 0 28 52 51 51 51 51 51 51 52 52 52 53
53 53 52 52 52 52 52 51 50 50 49 48 46 45 44 42
3 2 3 4 17 16 16 17 17 17 17 17 16 17 16 15
14 14 15 15 15 15 15 17 23 27 24 20 14 11 9 2
0 4 5 4 3 1 1 6 13 19 22 71 147 151 150 150
150 148 143 147 149 149 148 148 148 148 147 148 147 147 147 147
144 146 147 135 75 21 21 17 14 14 13 14 16 17 18 18
18 17 9 9 11 58 27 16 15 13 17 19 27 30 39 40
9 0 0 0 34 50 50 50 50 51 50 51 52 52 51 52
52 52 52 52 52 51 51 51 51 50 49 48 47 46 45 43
3 3 2 4 17 16 16 16 16 17 16 16 16 16 16 16
15 14 15 15 15 16 21 26 26 23 20 18 9 11 9 1
0 5 6 4 3 1 1 2 9 14 21 44 133 150 151 150
149 150 150 149 149 149 149 147 146 148 148 148 148 148 148 147
148 148 133 63 20 20 18 14 13 14 14 16 17 18 17 18
17 18 10 11 9 52 30 15 16 10 11 15 20 21 28 43
45 22 1 0 41 51 50 50 51 51 51 51 51 51 51 51
52 52 52 51 52 51 52 50 50 50 49 48 48 46 45 43
2 2 2 4 17 16 16 16 16 17 16 16 15 16 15 15
14 14 14 15 19 20 38 24 24 25 17 13 16 24 17 5
5 8 6 5 3 2 1 1 7 10 13 19 49 104 144 150
149 149 149 149 149 149 148 147 148 147 146 148 148 149 149 148
145 120 100 31 20 18 14 13 14 15 17 18 17 17 17 16
18 31 20 13 11 59 38 11 11 7 5 9 17 17 23 34
35 43 41 8 44 49 50 49 50 50 50 50 50 51 51 51
52 51 51 51 51 51 51 51 50 49 49 48 48 46 45 44
1 1 0 1 14 16 15 15 16 16 16 16 15 16 15 15
15 14 18 21 19 35 59 40 34 29 18 19 28 29 30 16
9 8 5 6 4 2 1 1 3 4 0 28 42 61 95 151
150 150 150 149 150 149 150 149 149 149 149 150 148 149 147 103
73 80 74 18 19 14 13 14 16 17 17 18 17 18 17 17
20 35 30 31 24 57 44 21 10 8 2 8 18 14 19 28
32 36 51 39 46 49 50 49 50 50 51 50 51 51 51 51
52 51 52 52 51 51 51 51 50 49 49 48 47 46 44 43
23 21 9 2 13 17 16 16 15 15 16 16 16 16 16 16
15 19 22 19 35 44 60 39 42 43 28 25 30 29 29 20
8 10 6 5 4 1 1 1 2 1 0 9 39 22 49 137
150 149 149 150 150 150 149 149 150 150 150 150 149 142 88 43
51 72 24 1 16 15 17 18 18 18 18 18 19 16 17 17
22 35 26 32 24 48 41 30 24 18 13 16 30 26 30 33
31 33 48 34 41 48 49 49 49 49 50 50 50 50 51 51
52 51 51 51 51 51 51 50 49 49 49 48 47 46 44 43
19 19 22 21 16 16 16 15 15 15 15 15 16 15 15 16
20 17 18 33 46 60 68 37 45 39 29 36 42 36 33 31
32 16 7 5 5 3 1 0 1 0 0 1 47 29 20 95
151 150 150 150 150 149 149 150 149 149 149 147 140 75 38 35
43 34 5 0 2 17 18 18 18 18 18 17 18 16 17 16
26 66 30 24 19 44 49 29 28 28 20 13 30 29 45 45
31 35 42 28 32 39 49 49 49 49 50 49 49 49 50 50
50 50 50 50 50 50 50 50 49 49 48 47 47 45 44 42
28 27 28 28 25 17 15 14 15 16 19 20 20 18 15 22
18 17 40 66 74 75 87 64 53 44 52 64 58 65 57 26
24 19 10 6 4 3 2 1 0 0 1 1 11 36 9 45
130 144 149 149 149 149 149 148 149 149 148 142 79 36 26 31
32 28 26 26 8 6 9 8 10 15 17 16 17 17 18 16
22 56 55 61 56 68 74 53 26 22 20 7 33 30 46 49
44 47 34 27 29 32 42 47 48 48 48 48 49 49 49 50
50 50 50 50 50 49 50 49 48 47 47 46 45 44 43 42
24 27 29 29 30 28 23 22 24 23 32 37 38 36 26 25
19 41 81 79 52 40 55 54 78 51 26 29 30 29 23 8
7 17 15 10 6 3 3 1 1 0 0 2 1 11 8 17
71 129 133 149 150 150 149 149 149 148 146 85 43 31 33 31
34 37 38 54 37 38 28 8 1 0 5 15 16 17 17 15
19 31 28 46 44 51 38 42 60 50 38 19 56 56 44 49
49 67 43 35 26 29 35 47 48 48 48 49 49 48 49 49
50 49 50 49 49 49 49 48 48 47 47 46 45 43 42 41
29 31 33 34 36 36 37 38 40 40 41 41 42 39 24 35
30 69 69 49 28 30 46 32 42 23 20 17 18 20 9 1
3 6 11 11 8 2 6 21 3 0 0 3 1 10 7 10
36 78 148 150 149 149 149 148 148 148 111 39 52 38 36 41
43 40 42 58 37 35 34 20 14 8 2 0 7 13 15 17
22 25 13 21 22 36 21 21 35 47 47 23 28 52 71 45
51 68 43 45 29 25 27 40 47 47 48 48 48 48 49 48
49 49 49 49 49 48 48 48 46 47 46 45 44 43 42 41
28 29 28 27 28 29 30 30 32 33 34 35 35 26 23 41
51 44 41 36 21 29 48 25 28 19 18 15 19 18 17 13
9 13 15 13 8 5 16 30 6 4 0 1 4 5 8 9
17 47 108 151 150 149 149 145 144 141 59 40 61 38 34 41
40 40 50 56 38 35 30 20 17 17 17 11 7 6 9 26
28 25 13 15 17 42 19 16 21 21 23 7 17 33 83 93
75 50 41 47 42 28 25 36 47 47 47 47 47 47 48 48
48 48 49 48 48 48 47 47 46 45 45 45 44 43 41 40
24 23 23 23 24 25 26 26 27 28 28 28 28 19 26 67
35 29 34 32 20 25 48 23 25 19 18 16 16 18 18 18
16 26 23 15 15 12 24 42 7 10 3 1 5 1 11 6
8 31 58 132 150 149 148 145 143 110 43 46 41 44 38 40
39 38 50 55 39 36 30 18 17 17 16 16 17 16 17 34
33 33 16 17 16 48 19 15 17 17 15 3 16 28 54 80
107 84 71 45 47 44 34 26 42 46 46 47 47 47 48 48
48 48 48 48 47 48 47 46 45 44 44 43 43 42 40 39
17 17 18 18 19 20 20 21 22 23 24 24 22 18 34 48
27 28 32 34 21 23 52 25 26 19 17 17 16 15 18 16
16 26 21 17 15 13 21 52 8 9 12 1 5 2 8 6
4 11 43 78 148 149 147 145 142 74 42 57 37 44 39 37
39 39 53 45 39 40 27 20 17 17 17 18 17 16 17 34
33 31 15 16 19 49 17 16 15 18 13 4 18 28 40 50
79 66 81 78 45 47 41 29 30 47 46 47 47 47 48 48
48 47 47 47 48 47 47 45 45 45 45 43 42 40 39 38
15 15 16 16 17 17 20 20 21 22 24 24 18 23 39 34
35 28 30 31 20 19 48 26 28 20 20 18 16 16 18 16
16 26 20 19 14 15 20 58 10 9 17 7 2 10 8 8
5 5 16 52 104 140 147 145 135 50 43 58 37 42 39 37
39 39 58 40 40 40 27 21 18 16 18 18 19 17 20 36
36 31 17 17 21 48 16 17 15 17 10 5 17 33 38 48
52 39 50 81 81 51 42 36 25 43 46 46 47 47 47 47
47 47 47 47 47 46 46 45 45 44 43 42 41 40 38 37
16 16 17 17 18 19 20 20 21 22 24 23 13 32 24 29
42 27 31 33 21 17 42 26 30 20 18 17 15 15 16 16
17 26 18 24 16 15 20 62 12 7 16 14 2 10 15 9
5 3 5 24 58 78 136 146 114 44 51 49 42 39 40 43
40 39 64 41 37 39 24 20 18 17 18 19 17 16 20 34
36 32 16 16 22 60 14 15 16 19 7 5 21 35 36 62
36 28 37 48 74 88 58 34 22 38 46 46 46 46 46 46
46 45 45 46 46 45 45 44 44 43 42 41 40 39 37 36
17 17 18 19 19 20 21 21 22 23 24 18 21 23 22 28
37 28 30 31 19 16 40 28 32 20 18 20 18 12 15 17
16 28 18 22 15 14 20 69 21 5 13 17 6 7 22 24
8 2 3 8 31 59 89 144 97 56 60 42 46 41 38 44
45 38 61 41 42 36 24 20 19 18 19 19 18 16 21 36
35 34 17 19 23 65 15 16 14 17 4 6 24 33 38 62
31 28 35 36 44 66 78 37 19 27 43 46 46 46 46 47
46 46 46 46 46 45 45 44 43 42 40 40 39 37 36 35
16 16 17 17 19 19 20 21 22 23 24 32 30 11 25 34
35 37 30 31 20 15 35 29 33 20 18 19 20 15 14 15
16 25 18 23 16 15 19 70 27 4 12 25 16 5 18 35
27 30 18 24 17 59 59 111 68 71 101 83 77 73 65 50
44 41 56 39 42 37 23 21 21 19 19 20 19 17 22 38
36 32 18 17 25 62 12 16 14 16 3 7 31 34 49 47
31 32 36 37 40 39 57 38 16 19 31 46 46 46 46 45
45 45 45 45 45 44 44 43 41 41 39 38 37 36 35 33
