P2
128 120
151
35 35 34 34 34 33 33 32 32 30 30 30 30 29 29 29
28 28 28 27 27 26 26 25 24 24 24 23 23 22 22 21
21 21 21 20 20 20 19 19 18 18 18 18 19 23 24 23
23 19 18 13 22 23 21 20 21 21 20 19 19 17 18 17
15 16 16 19 21 22 21 22 22 22 23 23 23 23 23 24
24 24 25 24 25 26 26 26 26 27 27 27 27 27 28 28
29 28 29 30 30 30 30 31 31 31 32 31 32 32 32 31
33 32 32 33 33 33 34 34 33 33 34 34 34 33 32 32
35 35 34 34 33 33 33 31 32 31 31 31 30 30 29 29
29 28 27 26 26 25 26 25 24 25 24 23 23 23 22 22
22 21 20 20 20 20 19 18 18 18 19 19 20 23 24 25
24 20 20 10 18 22 20 20 21 21 20 19 21 18 19 18
17 17 18 20 22 22 22 22 22 23 24 24 24 24 25 25
25 25 25 26 25 25 25 26 26 26 27 27 27 28 29 30
29 29 29 30 31 31 31 31 31 31 32 32 32 32 32 33
34 32 33 33 32 33 32 32 31 31 32 32 33 33 34 35
34 34 34 33 33 32 33 32 31 31 31 30 29 29 29 29
28 28 27 27 26 26 26 25 24 24 23 22 22 22 21 21
20 21 21 20 20 20 20 19 19 18 18 19 19 24 24 24
24 19 14 7 19 24 21 22 21 21 20 20 21 18 18 18
16 17 17 20 22 22 22 22 23 23 23 23 24 24 24 24
25 24 25 25 25 26 26 25 26 25 26 27 27 27 28 29
29 28 29 29 30 30 31 30 31 32 32 32 32 32 31 31
31 30 30 31 30 31 33 33 34 34 33 33 33 33 33 33
34 33 33 33 32 32 32 31 31 30 31 30 30 30 29 29
28 28 27 27 26 26 25 24 24 24 23 23 23 23 22 21
21 20 20 20 19 19 19 18 18 18 18 19 20 24 25 25
24 19 16 14 20 24 22 22 21 20 20 20 21 19 19 19
18 18 19 22 22 22 22 23 23 23 24 24 24 24 25 25
25 26 26 25 26 25 26 25 26 26 26 27 27 28 28 29
29 29 30 30 30 30 30 29 28 30 29 29 30 30 31 32
32 32 33 34 33 33 32 32 33 33 32 33 33 33 33 33
33 32 32 32 31 32 32 31 31 30 30 29 29 28 28 27
28 27 26 26 26 25 25 25 25 23 23 22 22 21 21 21
20 20 20 20 19 19 19 18 18 18 17 18 19 23 24 23
23 18 14 16 18 23 22 21 21 21 20 20 20 18 18 18
16 18 17 21 21 21 22 22 23 23 23 23 24 23 24 24
24 24 25 24 25 25 25 25 26 26 27 27 27 27 27 28
27 28 27 26 27 27 28 30 30 30 31 31 31 31 31 31
30 30 31 31 31 31 31 31 31 33 31 32 33 32 33 32
33 32 32 32 31 31 30 30 30 30 29 29 29 28 29 28
27 27 26 26 26 25 25 24 23 23 23 22 22 21 21 21
21 20 20 20 19 19 18 19 18 17 18 18 19 23 23 24
24 19 15 17 18 23 22 21 21 20 20 20 20 18 19 19
16 19 19 22 23 22 22 23 23 23 23 23 24 24 24 24
25 25 25 25 25 25 25 26 26 25 26 25 25 25 25 25
25 27 28 29 30 30 30 30 31 30 30 31 30 31 31 30
31 30 32 32 31 32 32 32 32 32 31 32 32 32 32 32
32 32 32 32 32 32 31 31 31 30 29 29 29 29 28 28
27 27 26 26 26 25 25 25 24 23 23 22 22 21 21 21
21 20 20 20 20 19 19 19 19 18 19 19 21 25 24 25
24 19 16 18 18 23 22 22 22 21 21 20 21 18 19 18
17 19 19 22 22 23 23 23 24 23 24 25 25 25 25 25
25 25 25 26 25 25 26 25 25 25 26 26 27 28 29 28
28 29 29 29 29 29 30 30 31 31 30 31 31 31 31 31
31 30 31 32 31 32 32 32 32 32 32 33 33 33 32 32
34 33 32 32 31 32 31 31 30 30 30 30 29 29 28 28
28 28 27 27 26 26 25 25 24 24 24 23 23 22 22 22
22 21 20 20 20 19 19 19 19 18 18 20 20 24 25 25
25 20 17 21 18 24 23 22 22 22 21 20 21 19 20 19
17 21 20 23 23 23 24 23 24 24 25 24 25 25 26 25
25 25 25 25 27 27 27 26 27 27 27 27 28 28 29 29
29 29 30 30 30 31 31 31 32 30 31 30 31 31 31 32
31 32 32 32 32 32 32 32 33 33 32 32 32 33 32 33
33 32 32 33 32 32 31 31 31 31 30 30 29 28 28 28
27 27 27 27 26 26 25 25 25 25 24 24 23 22 23 22
22 21 21 20 20 20 20 20 19 20 19 20 22 25 26 25
25 20 17 21 17 23 23 23 23 22 22 22 22 21 20 20
18 22 20 23 24 24 25 25 25 25 25 25 25 25 25 26
26 26 27 27 27 27 28 28 28 28 28 28 28 29 29 29
30 30 30 30 30 30 31 31 32 31 32 32 32 32 32 32
31 32 32 32 32 32 32 32 32 33 32 33 33 33 33 33
33 33 33 32 32 31 31 31 31 30 30 30 29 29 29 28
28 27 28 27 26 26 25 25 24 24 24 23 23 23 23 23
23 22 22 21 21 21 20 20 19 19 20 20 24 26 26 26
26 21 17 23 18 24 23 23 23 22 22 22 22 21 22 21
18 22 21 24 25 25 25 25 25 25 25 26 25 26 26 26
27 27 27 28 27 28 28 29 28 28 29 28 28 29 30 29
30 30 31 31 31 31 32 31 33 32 32 32 32 32 32 32
32 31 32 32 33 32 33 33 33 33 32 33 32 33 33 32
34 33 33 32 32 31 32 31 31 32 31 31 30 29 29 28
28 27 27 26 26 27 26 26 26 25 26 24 24 23 23 23
23 22 21 22 21 21 21 20 20 20 21 21 23 26 27 27
27 20 17 24 17 25 24 24 23 24 23 24 23 22 22 21
18 22 19 25 25 25 25 26 27 26 27 27 27 27 28 27
28 28 28 28 28 28 28 29 29 29 30 30 30 30 30 30
30 30 32 31 31 32 32 32 33 32 32 33 33 33 33 33
33 33 33 33 32 32 33 33 33 33 32 33 34 33 34 34
33 33 33 32 32 32 31 31 31 31 30 30 30 30 30 29
28 28 28 28 27 26 27 26 26 25 25 24 24 24 24 24
23 23 22 22 22 21 21 20 20 20 20 21 24 27 27 27
26 20 19 25 18 25 25 24 24 23 23 24 23 22 22 22
19 24 23 25 25 26 26 26 27 26 27 26 28 27 27 29
28 28 29 29 29 29 30 30 29 29 30 30 29 30 31 31
31 31 32 32 32 32 33 32 34 32 32 33 33 33 33 32
33 33 32 33 33 33 34 34 34 34 33 34 34 34 34 34
33 33 33 33 32 32 31 32 32 31 31 30 31 30 29 29
28 28 27 27 27 27 27 27 27 26 26 25 25 25 24 24
23 23 23 22 22 22 21 22 21 21 21 23 25 28 27 28
27 20 19 26 19 26 24 24 24 23 23 24 24 22 23 22
20 24 23 26 26 26 27 27 28 27 28 28 28 29 29 29
29 28 29 29 29 29 29 30 29 30 30 30 30 31 31 31
31 32 31 32 32 32 33 32 34 33 33 32 33 34 33 33
33 33 33 33 33 34 34 34 34 34 34 34 33 34 33 33
35 34 34 33 33 33 32 31 31 31 31 31 30 30 30 30
29 28 29 28 27 28 27 26 26 26 26 25 25 25 24 24
24 23 23 23 23 22 22 21 21 21 21 23 25 28 28 28
27 21 20 27 19 25 25 25 25 24 24 24 23 23 23 23
19 26 24 27 26 27 28 28 29 29 28 28 28 28 29 29
29 29 30 30 30 30 30 31 30 31 30 30 31 31 31 31
32 32 32 32 33 33 33 33 35 33 33 34 34 33 34 34
33 33 34 33 34 33 33 33 34 33 34 34 34 35 35 35
34 33 33 33 33 32 32 32 31 32 31 31 30 30 30 29
29 28 28 28 27 27 26 27 26 26 26 26 26 25 25 24
24 23 23 23 22 22 22 22 21 22 22 23 27 29 29 29
27 22 20 27 18 26 25 25 25 24 24 24 24 24 23 24
20 25 24 27 26 27 27 28 29 28 29 29 29 29 29 30
30 30 30 30 30 31 30 30 30 31 31 31 31 32 31 31
33 33 33 32 33 32 33 33 35 33 33 33 33 32 32 32
33 32 33 34 35 34 34 34 34 33 33 34 34 34 35 34
34 34 33 33 33 32 31 32 31 31 31 30 30 30 30 29
30 29 29 28 28 28 27 27 27 26 26 25 25 25 24 25
24 24 24 24 23 23 23 22 22 22 23 24 26 28 29 28
27 20 21 29 18 27 26 26 26 25 25 23 24 23 24 23
20 26 24 27 27 29 28 28 29 28 28 29 29 28 29 29
30 30 30 31 31 31 31 32 31 31 31 31 32 31 32 31
33 32 32 31 32 32 31 31 31 32 32 32 33 33 34 34
34 32 33 34 33 33 35 34 34 34 34 34 34 34 34 33
35 33 33 33 32 32 32 32 32 32 31 31 31 31 30 30
30 29 28 28 28 28 27 27 27 27 26 27 26 26 25 26
25 24 23 23 23 23 22 22 23 22 23 24 28 29 29 28
27 20 21 29 19 26 26 25 26 25 26 23 24 24 24 24
20 26 25 27 28 27 28 28 29 28 29 29 30 30 30 31
31 31 31 31 31 31 31 32 31 31 31 31 31 31 32 32
32 32 33 33 33 34 34 33 33 33 33 34 34 34 34 34
36 34 33 34 34 33 34 33 33 33 34 34 34 34 34 34
33 34 34 34 33 32 33 32 32 32 31 31 31 30 31 30
30 29 29 28 28 28 28 28 27 27 27 26 26 25 25 25
25 25 24 24 24 23 23 23 23 23 23 24 28 29 29 29
28 20 23 31 20 27 27 27 28 26 26 24 24 24 24 24
20 26 25 27 29 28 29 29 30 30 30 30 31 30 30 31
31 31 31 31 31 32 32 31 31 31 32 31 33 32 33 33
33 34 33 34 34 34 34 33 34 34 34 34 34 35 34 35
35 34 33 34 34 34 34 34 34 35 34 34 34 34 34 33
19 34 34 33 32 32 32 32 32 32 32 32 32 31 31 30
30 29 29 29 28 28 27 27 27 26 27 27 26 26 26 26
25 24 24 24 24 24 23 23 22 24 25 25 28 30 29 30
28 20 23 31 21 27 27 26 26 26 25 24 25 23 24 24
20 18 20 25 23 23 25 27 29 25 21 27 29 30 28 30
30 31 31 31 31 31 32 31 31 32 32 32 32 33 33 34
34 34 35 34 34 34 34 34 34 34 34 34 34 34 35 34
35 34 33 34 34 34 34 34 33 34 35 34 34 33 34 34
20 34 34 33 33 34 33 32 32 32 32 32 31 31 31 30
30 30 30 30 29 29 28 29 28 28 27 26 26 26 26 26
26 25 25 25 25 24 24 24 24 24 25 25 29 30 30 30
27 20 25 32 22 27 27 27 26 26 26 18 15 14 10 12
11 11 17 16 17 15 13 17 18 17 9 10 20 19 17 21
29 29 27 25 29 31 32 32 31 33 33 33 34 33 33 35
34 33 34 34 34 34 34 34 34 35 35 34 35 34 34 35
35 34 34 34 34 35 35 34 34 35 35 34 35 34 34 33
19 34 34 34 33 33 32 31 31 32 33 32 32 32 31 31
30 30 30 30 29 28 28 27 27 27 27 26 27 26 27 26
26 25 25 25 25 24 24 24 23 24 25 25 29 31 31 30
28 21 26 33 22 26 27 25 13 5 8 9 10 7 8 8
7 2 2 5 11 12 2 7 11 8 5 10 14 8 5 5
8 13 17 20 22 25 31 32 32 33 33 33 33 34 34 35
34 34 35 36 35 35 35 35 35 34 34 35 34 35 35 35
36 34 34 34 34 35 35 34 34 34 35 34 34 34 34 34
20 34 34 34 34 34 33 35 36 34 33 32 31 31 31 31
31 30 31 29 29 29 29 29 28 28 27 27 27 27 26 26
26 25 25 24 25 25 24 24 25 25 25 26 30 30 30 30
27 21 26 33 23 24 15 5 3 4 3 5 9 10 13 10
6 6 2 0 2 6 7 6 4 4 4 2 6 15 6 3
6 11 16 20 19 22 25 32 34 33 34 34 34 35 35 35
34 34 34 35 35 34 36 35 35 35 34 35 35 35 34 34
36 35 34 34 35 34 35 34 34 35 35 35 35 34 35 34
25 36 34 33 34 34 33 41 44 42 40 36 34 32 31 31
31 30 31 30 29 29 28 28 28 30 37 34 31 28 27 26
26 26 26 25 25 24 25 24 24 24 25 26 30 31 30 30
27 21 26 27 21 10 2 0 0 4 5 2 5 19 15 6
8 6 4 1 1 5 4 5 5 4 4 5 3 4 9 11
8 8 13 21 22 17 17 27 32 33 34 33 34 34 34 35
35 35 36 35 36 35 35 35 35 35 35 34 35 35 35 34
36 34 35 35 35 34 35 35 35 34 35 35 34 35 36 35
30 38 36 35 34 33 34 44 44 43 41 38 38 36 36 32
31 31 30 31 29 29 29 30 29 34 43 41 37 34 32 28
25 26 25 25 25 25 25 25 25 26 26 26 31 31 29 29
25 20 22 19 3 0 0 0 0 2 8 7 3 6 16 13
12 13 4 3 2 2 5 6 7 8 10 9 6 4 5 8
12 11 10 9 17 17 16 19 25 33 34 35 35 35 34 35
35 35 35 36 36 35 35 35 36 35 36 35 35 35 35 35
36 34 35 35 35 35 34 35 36 35 35 34 35 36 35 35
33 41 38 38 36 35 33 43 45 44 41 40 41 42 43 37
38 35 32 30 29 29 29 29 29 34 40 39 36 37 37 35
30 26 26 27 26 26 26 25 25 25 26 27 31 31 30 28
23 18 20 10 1 3 0 1 1 2 8 10 8 5 10 13
9 17 15 7 4 7 4 4 6 9 16 13 9 4 5 6
11 20 17 12 17 20 16 10 16 26 33 34 35 34 35 35
36 36 35 36 36 35 35 35 36 36 36 35 36 35 35 36
36 36 36 36 36 35 36 36 34 33 32 33 34 33 33 33
33 42 32 34 39 39 40 34 13 26 39 42 45 45 45 37
36 39 40 36 33 32 30 30 30 34 32 36 36 36 37 36
31 26 26 26 26 26 25 25 26 26 26 27 32 32 31 26
19 17 17 4 1 1 3 6 4 5 8 14 10 6 7 14
11 5 12 16 8 7 6 6 7 13 17 24 17 9 5 5
6 14 20 8 13 14 14 9 5 12 27 33 35 36 35 36
35 35 36 36 36 36 36 36 36 37 36 36 36 36 36 34
34 31 32 33 33 34 34 35 35 38 37 36 36 36 36 35
32 42 39 34 31 41 45 32 0 0 8 23 29 35 42 30
2 10 22 32 38 36 38 35 31 32 16 13 16 24 32 36
31 27 27 27 27 26 26 26 26 26 26 27 32 32 32 28
17 16 14 3 6 4 4 8 9 9 11 17 16 13 6 14
12 11 5 10 17 9 8 10 9 16 24 25 29 18 11 5
4 4 12 10 7 12 12 8 2 3 9 26 35 36 36 36
36 35 35 36 36 36 35 35 35 33 33 33 34 34 35 35
36 36 36 36 35 36 32 35 35 36 35 33 34 34 34 34
6 14 26 39 42 45 47 33 0 0 4 10 13 10 24 28
0 0 0 0 6 15 28 36 36 32 15 6 10 8 4 7
31 27 27 26 27 26 26 26 27 27 27 28 32 33 31 27
13 14 10 9 16 7 4 7 6 14 16 23 21 16 11 11
19 10 13 7 11 16 11 15 14 19 26 21 22 24 18 10
4 3 3 7 8 8 10 7 1 2 4 12 31 35 35 35
35 36 35 36 35 36 36 36 37 36 36 36 37 37 35 36
36 35 35 34 35 35 35 35 35 36 35 34 35 34 34 35
0 0 0 2 12 25 39 30 0 0 2 4 9 10 25 26
0 0 0 0 0 0 0 2 19 33 11 0 5 6 3 1
32 28 28 28 27 27 27 27 27 27 28 28 32 33 33 28
16 14 13 12 9 8 13 18 11 12 20 28 22 17 10 13
20 12 17 12 13 17 19 17 17 17 20 18 23 24 23 17
7 3 4 5 9 8 8 8 4 1 2 7 23 34 35 35
35 36 35 36 35 35 36 36 38 36 36 36 37 36 35 35
36 35 35 36 36 36 36 36 36 35 35 35 35 34 35 35
0 0 0 0 0 0 0 21 0 0 0 1 1 3 23 26
1 0 0 0 0 0 0 0 14 34 8 0 0 3 2 2
33 28 28 28 27 27 27 27 27 26 28 29 34 34 33 33
25 18 12 13 11 16 26 28 22 13 25 33 29 24 11 14
23 22 20 13 14 20 21 24 18 19 28 23 23 20 23 24
14 5 4 6 11 9 7 6 5 3 1 4 13 32 36 36
36 35 35 36 36 35 36 35 37 35 35 36 35 36 36 36
36 35 35 36 36 36 35 36 36 36 35 35 35 35 35 36
0 0 0 0 0 0 0 17 0 0 0 0 0 2 22 20
0 0 0 0 0 0 0 0 15 30 1 0 0 1 0 3
35 29 28 28 28 27 28 27 27 27 28 29 34 34 34 33
25 21 19 25 30 40 44 48 43 23 24 38 38 28 15 9
27 29 24 23 19 26 26 31 24 29 32 33 30 24 22 20
21 9 4 7 13 13 9 6 6 7 4 3 8 26 36 35
35 34 36 36 36 36 35 35 37 36 36 37 36 35 36 35
36 35 36 35 36 36 35 35 35 36 36 35 35 35 34 35
0 0 0 0 0 0 0 15 0 0 0 0 0 2 31 21
0 0 0 2 10 1 0 0 15 28 0 0 0 0 1 6
36 28 28 27 28 28 27 27 28 28 29 30 35 34 34 33
25 22 28 42 55 65 51 63 68 42 32 35 39 34 24 15
25 35 27 29 28 25 20 20 22 24 23 24 29 33 24 25
23 11 7 8 11 13 12 7 8 8 8 5 8 21 36 36
36 36 36 36 36 36 36 35 38 35 37 36 36 36 36 36
37 37 35 35 35 35 35 35 35 35 35 35 35 35 35 36
0 0 0 11 6 0 0 13 0 0 0 0 0 1 31 19
0 0 0 3 13 9 4 0 16 25 0 0 0 0 0 5
37 28 29 28 28 28 28 28 28 28 30 30 35 35 34 33
26 26 42 64 80 92 83 71 87 56 50 42 31 34 29 25
23 30 29 34 31 25 23 20 22 25 27 25 26 31 43 32
34 16 11 12 13 14 14 12 11 13 16 7 7 18 34 35
35 35 35 35 36 35 36 36 38 36 36 36 36 37 36 35
36 36 36 36 36 35 37 36 35 35 36 35 35 35 34 34
1 11 3 2 1 0 0 11 0 1 0 0 0 4 33 20
0 0 0 7 13 12 11 3 16 25 0 0 0 0 0 5
37 29 28 28 28 28 28 28 28 28 30 31 35 35 34 34
27 28 62 88 98 106 102 85 94 77 59 59 31 28 26 26
28 28 30 29 25 19 20 26 27 25 26 26 24 29 48 44
54 32 21 20 19 19 16 16 18 17 20 10 7 15 32 36
36 36 36 36 36 35 36 35 36 36 36 36 36 36 36 35
37 36 36 35 36 35 36 36 35 35 36 36 36 36 35 35
5 3 0 3 2 0 1 10 0 0 0 0 0 5 34 18
0 0 0 7 13 12 12 3 18 24 0 0 0 0 0 5
37 29 29 29 29 28 28 29 28 29 30 31 35 35 35 34
27 35 82 95 102 109 113 102 106 101 66 78 46 26 25 28
32 32 30 26 25 25 22 20 24 25 24 24 24 22 31 43
49 36 39 32 30 29 28 17 25 30 24 12 11 14 27 36
36 36 35 35 36 35 36 36 37 37 36 36 35 35 36 35
36 35 35 36 35 35 36 36 36 36 36 35 36 36 35 35
0 0 0 0 0 0 3 19 2 0 1 0 0 16 39 22
1 0 0 0 4 10 11 1 18 31 10 2 0 0 0 6
38 29 30 29 28 29 28 28 28 29 30 32 36 36 36 34
26 51 89 100 105 111 117 117 122 120 86 88 86 40 28 27
29 31 29 41 58 51 44 33 26 24 28 26 24 27 27 28
51 37 44 48 43 35 41 28 24 33 26 15 14 11 21 37
36 36 37 36 36 36 36 37 38 36 36 35 35 36 35 36
35 36 36 35 37 36 37 36 36 37 36 36 35 36 36 35
0 0 0 0 0 0 6 47 42 28 24 14 4 0 40 43
36 28 19 8 1 2 7 0 18 40 40 35 28 19 12 15
37 29 29 29 29 29 29 29 29 30 31 32 35 36 35 34
28 69 93 102 105 110 119 126 126 129 116 83 102 110 90 73
65 67 79 93 105 93 69 45 30 27 32 28 27 30 30 28
36 32 42 48 46 41 46 43 35 37 28 21 18 10 13 34
35 35 35 35 35 36 36 36 37 36 35 36 36 36 35 36
36 36 36 35 36 36 35 37 36 35 34 35 35 33 33 34
0 0 0 0 0 0 7 51 46 40 44 45 44 38 52 31
15 21 27 33 32 27 18 11 25 42 41 38 37 41 45 46
39 29 30 29 29 29 28 28 28 30 30 32 36 36 36 32
33 78 94 101 106 113 123 133 137 140 141 129 108 109 129 142
142 138 131 114 98 90 85 57 43 32 43 40 33 33 34 34
31 36 32 32 35 29 30 44 49 46 35 32 30 16 13 30
36 36 36 36 37 36 36 36 35 36 35 35 36 36 35 36
36 35 36 37 37 37 36 36 36 36 36 36 36 35 35 35
33 22 10 2 0 0 11 52 37 45 48 50 52 42 42 24
12 13 13 14 15 17 25 33 43 37 35 38 39 44 48 48
39 29 29 29 29 30 29 29 29 30 31 33 36 36 36 30
42 85 95 101 106 115 125 135 139 142 142 142 141 141 141 142
141 129 115 113 102 76 69 70 59 49 46 50 40 39 39 39
35 37 37 36 30 32 28 19 46 61 34 48 41 28 22 26
36 36 36 35 36 36 35 35 37 37 38 37 37 37 36 37
36 36 37 37 36 36 36 36 36 35 36 35 36 36 35 35
47 49 47 42 33 21 25 38 34 44 48 50 53 45 37 25
13 14 14 12 11 10 10 9 9 11 16 24 29 35 35 38
37 30 31 30 30 29 29 29 29 31 31 33 37 36 36 31
59 91 96 101 108 118 127 134 139 141 142 142 142 142 142 142
140 128 110 105 103 87 72 75 73 63 54 56 48 47 49 46
42 46 44 43 44 42 34 13 15 38 23 40 38 36 31 25
36 38 38 37 37 37 37 37 38 37 37 36 37 36 36 37
37 37 38 37 38 37 37 36 36 35 36 35 36 35 34 34
48 48 48 47 47 48 50 31 25 39 45 48 51 47 40 27
14 15 13 11 9 10 10 9 9 9 9 9 15 31 29 24
27 30 30 30 30 30 30 29 30 31 32 35 38 37 35 34
78 93 95 103 112 122 132 140 143 143 142 142 142 142 142 142
141 128 115 100 85 79 81 77 76 77 69 64 55 50 48 53
44 48 47 45 42 39 35 26 12 13 12 21 29 26 46 33
33 37 36 36 37 36 37 37 38 37 37 37 37 37 36 36
38 38 38 38 37 37 37 37 37 37 38 37 37 38 37 36
46 48 49 50 49 49 49 18 0 2 9 18 30 33 37 30
16 14 12 8 9 10 10 10 11 11 11 10 20 27 19 29
29 31 31 31 30 30 30 30 30 31 32 35 37 37 34 43
93 97 98 114 120 125 138 144 143 143 143 142 143 142 143 142
143 137 116 109 101 80 73 79 83 92 84 75 62 52 49 51
48 45 44 38 42 34 36 37 22 6 8 8 13 12 35 35
28 38 38 38 37 38 38 38 37 37 37 38 37 37 37 37
37 38 39 38 39 39 39 39 39 39 39 38 38 38 37 38
34 36 37 40 43 48 49 12 0 0 0 0 6 13 30 29
13 12 5 0 1 1 11 13 13 10 15 15 25 29 12 28
35 32 30 25 30 31 31 30 31 32 33 36 37 37 33 63
98 96 104 122 124 129 142 144 144 143 143 143 144 143 144 143
143 143 133 108 99 99 85 82 88 97 95 85 80 74 55 49
48 45 46 40 37 31 38 32 39 23 12 4 9 12 22 35
25 38 39 38 38 39 38 38 38 38 38 38 38 37 38 37
38 39 38 39 38 38 38 38 38 37 36 36 37 38 38 37
20 24 32 33 32 41 44 8 0 0 0 1 0 7 36 28
12 11 7 0 0 0 3 6 4 2 9 11 22 38 39 38
40 40 36 7 20 31 31 31 32 32 31 36 37 37 34 80
99 98 111 131 126 132 142 144 143 143 143 143 143 143 143 142
143 143 143 135 104 90 98 92 93 95 97 89 83 85 77 64
56 50 49 52 48 39 36 28 34 25 27 9 8 14 12 30
22 36 36 37 37 38 38 37 37 36 36 38 35 36 34 38
38 38 36 37 36 38 40 37 35 35 35 34 36 34 34 32
25 22 28 29 29 41 44 5 0 0 0 0 0 0 36 24
12 7 2 0 0 4 0 0 0 0 0 2 16 39 32 26
26 28 35 36 32 30 31 30 31 23 20 32 36 37 35 88
100 100 114 136 127 132 137 142 143 144 143 143 143 143 143 143
142 143 142 142 139 117 94 96 105 101 94 102 87 86 96 83
59 57 52 43 39 38 40 35 32 22 28 20 15 14 6 18
21 36 37 36 35 36 36 36 37 36 34 35 34 34 32 32
31 29 28 26 25 23 22 21 20 18 16 15 15 15 13 14
13 22 31 35 38 44 42 4 0 0 0 0 0 0 40 12
3 0 0 0 2 11 5 1 0 0 0 0 17 39 34 23
26 28 27 29 32 31 30 30 30 14 15 30 35 35 39 92
100 101 111 131 131 125 120 125 133 142 143 144 143 143 143 143
143 143 143 143 144 140 117 97 93 118 106 95 98 91 75 91
80 63 47 44 37 28 30 33 26 25 28 22 17 21 9 12
24 31 37 33 25 24 24 22 21 20 19 18 18 18 17 16
16 15 16 14 14 15 16 16 16 17 17 17 16 18 16 17
0 0 0 5 13 21 32 3 0 0 0 0 0 2 43 8
0 0 0 0 0 7 12 3 0 0 0 0 19 41 33 13
30 32 26 29 31 30 31 31 31 23 22 32 36 37 40 82
93 91 86 92 91 86 81 88 94 107 121 135 143 144 144 144
144 143 143 143 143 142 130 103 90 94 108 108 92 91 74 78
79 74 55 49 39 33 35 26 23 43 30 27 24 20 13 8
30 24 34 33 14 17 19 19 19 19 19 21 21 21 21 21
21 21 22 21 22 22 22 23 22 22 22 23 22 22 23 24
0 0 0 0 0 0 18 2 0 0 0 0 0 6 43 5
0 0 0 0 3 7 18 11 6 0 0 0 20 42 33 10
22 20 21 28 32 31 32 32 32 30 26 35 36 37 30 52
82 90 67 55 35 36 41 52 65 79 96 113 131 141 143 144
144 143 143 143 143 144 142 116 97 86 83 100 103 112 91 78
75 73 76 59 43 45 39 28 21 34 35 26 29 12 10 10
34 27 26 25 17 22 25 26 26 26 27 27 26 27 27 27
27 27 28 28 28 28 28 28 28 29 29 28 28 28 28 28
0 0 0 0 0 0 16 1 0 0 5 0 0 4 41 2
0 0 0 0 14 16 17 13 10 0 0 0 22 42 34 19
21 21 17 28 31 31 31 31 31 30 26 35 37 39 28 19
64 102 94 80 62 47 38 35 49 66 96 110 121 135 144 144
144 143 143 143 143 143 142 140 130 113 103 91 95 104 109 94
89 84 82 77 58 35 44 35 34 25 23 20 30 20 8 9
26 24 33 32 21 27 30 30 30 31 31 31 31 31 32 31
31 32 32 32 33 32 33 31 31 31 31 32 32 31 31 31
0 0 6 1 0 0 15 0 0 5 16 6 0 6 39 0
0 0 0 0 11 16 20 5 4 0 0 1 21 42 35 24
22 13 18 26 30 32 31 32 32 30 25 35 37 38 37 18
53 125 135 115 83 67 51 39 61 83 88 90 109 135 143 143
141 143 143 143 143 142 142 143 143 142 141 133 119 104 122 114
108 85 110 133 134 105 45 30 37 25 19 22 17 22 6 8
13 20 28 26 24 32 33 33 33 33 34 34 34 33 33 32
32 32 33 33 33 33 33 34 34 35 34 34 34 34 34 34
0 6 19 6 1 0 16 0 0 14 16 10 1 8 36 0
0 0 0 0 0 5 13 0 0 0 1 0 20 42 35 26
14 4 7 26 30 31 31 32 31 30 24 35 37 39 38 25
72 142 144 124 92 81 52 34 21 54 87 109 99 117 139 144
143 143 143 143 143 143 143 143 143 142 142 142 142 142 143 142
124 124 142 139 125 126 126 47 30 24 15 15 8 19 7 4
5 19 9 9 22 34 35 36 35 36 35 35 35 36 36 35
35 35 35 35 34 36 35 35 35 35 34 35 33 34 34 34
0 8 19 7 4 0 24 24 18 24 19 17 3 11 32 0
3 0 0 0 0 6 15 0 0 0 0 0 18 42 33 17
7 4 7 25 31 32 32 32 32 30 25 37 38 38 38 35
116 146 143 121 101 96 82 65 35 80 105 100 110 108 128 143
143 142 143 143 143 143 143 143 144 143 143 143 143 143 142 142
137 142 139 141 142 138 128 119 34 21 20 17 7 16 7 0
0 21 10 5 18 34 36 38 37 36 36 36 36 36 36 36
36 36 36 36 35 35 36 36 36 36 36 36 36 35 36 35
0 1 2 0 0 0 26 41 41 46 43 42 40 41 32 0
0 0 0 0 0 5 15 0 0 0 0 0 16 44 29 8
9 0 5 25 30 32 32 31 32 28 28 37 38 39 41 88
144 146 145 140 116 98 86 62 55 80 102 118 123 121 132 144
143 144 143 143 144 143 143 143 142 142 143 142 142 142 142 142
142 124 131 143 142 142 138 121 73 18 26 16 5 8 6 0
4 20 11 6 19 34 36 37 37 36 36 36 36 36 36 37
37 37 36 36 36 36 36 36 36 37 36 36 35 35 34 35
5 1 1 0 0 0 29 42 43 44 43 44 50 52 37 6
6 4 0 0 0 10 15 0 1 1 0 0 14 44 21 6
7 0 15 25 30 32 32 33 32 27 32 37 39 38 63 134
146 145 145 144 129 97 78 63 65 87 113 121 136 140 140 143
144 144 143 143 143 143 143 143 143 143 143 142 142 143 141 141
142 132 139 142 142 142 141 123 95 14 14 21 6 7 6 0
21 24 0 0 19 34 36 37 38 37 37 37 36 37 36 37
36 36 36 35 36 35 36 35 35 36 35 36 35 35 35 35
0 1 0 0 0 0 29 37 40 42 42 46 54 54 45 32
31 28 21 15 14 17 15 5 4 1 0 0 9 42 19 6
1 3 9 25 30 33 32 32 32 28 33 38 39 45 112 147
146 146 145 146 137 118 97 83 80 90 109 126 140 143 144 143
144 143 143 144 144 143 143 143 143 143 142 142 142 142 141 142
132 139 143 142 142 143 142 131 99 11 7 9 6 9 11 13
33 25 3 3 21 35 36 37 36 36 36 37 36 36 36 36
37 36 36 35 35 36 35 35 36 36 35 35 35 34 34 34
0 0 0 0 0 0 34 34 37 38 37 38 37 38 38 35
36 35 34 33 34 31 28 25 21 19 17 15 20 38 21 11
8 12 2 18 30 32 32 33 30 29 34 39 40 74 140 146
146 145 145 145 144 141 124 105 104 109 119 133 141 143 144 144
144 143 143 143 143 143 143 143 143 143 142 142 143 143 142 142
102 95 135 142 142 142 142 135 85 11 13 5 5 12 16 31
33 28 5 1 24 35 36 36 36 37 36 36 37 37 37 36
37 36 37 35 35 35 35 35 35 36 36 35 36 35 35 34
15 9 4 0 0 0 36 35 34 35 35 35 33 30 34 36
37 38 35 34 35 34 35 32 29 27 23 22 26 39 32 24
20 16 11 15 30 32 32 32 28 30 35 39 46 115 145 145
145 145 145 145 145 143 135 116 115 118 129 139 141 142 143 143
143 144 143 143 143 142 143 143 142 142 142 142 142 142 142 142
134 118 121 138 143 142 142 140 56 11 11 5 11 17 26 34
32 27 11 7 28 36 36 36 37 36 36 35 36 36 35 36
36 36 36 35 35 36 35 35 36 36 36 35 35 35 34 34
44 45 37 37 35 27 44 38 36 36 36 36 36 37 40 38
39 41 44 41 36 36 36 34 41 41 37 33 32 41 45 43
41 37 32 25 30 32 32 32 27 33 36 40 77 140 145 145
144 144 145 144 144 142 133 122 123 126 136 143 144 144 144 143
144 143 143 142 142 142 142 142 143 142 142 143 142 143 142 139
143 138 117 121 142 141 142 126 29 19 14 11 12 23 35 34
31 28 24 23 31 36 36 37 37 36 37 36 36 36 36 36
36 36 35 34 35 35 35 35 34 35 36 35 35 35 35 35
54 53 53 52 53 52 52 41 38 38 37 37 40 44 47 40
41 43 51 45 37 33 34 36 46 44 42 39 40 37 32 31
35 38 39 36 31 32 32 32 28 32 36 48 110 144 146 145
146 145 145 145 144 142 132 125 125 130 137 144 143 143 144 144
144 143 143 143 142 142 143 142 142 142 141 142 142 142 143 132
141 142 126 115 140 141 141 87 20 18 17 12 11 31 36 35
32 29 29 30 35 36 37 37 37 36 36 36 34 36 36 36
36 35 35 36 35 35 35 34 35 36 35 35 34 35 34 34
46 49 51 52 54 54 53 34 30 28 31 32 39 45 49 40
41 44 45 41 37 34 30 34 47 45 43 41 41 38 32 23
22 21 21 24 30 32 32 32 28 31 39 82 124 145 145 145
145 145 144 144 144 139 128 125 128 136 142 144 144 143 144 144
143 142 143 142 142 142 141 142 142 142 142 142 142 143 143 140
138 141 133 114 139 140 133 47 22 14 9 11 15 35 36 35
33 30 31 34 36 36 36 37 36 36 36 36 36 36 36 36
36 36 36 35 35 35 35 34 34 35 35 35 35 35 35 34
26 26 27 30 33 36 43 18 2 4 1 3 7 18 43 41
39 27 25 34 35 33 31 29 35 30 32 38 41 39 37 30
27 25 25 27 31 32 32 31 26 33 53 104 141 145 144 145
145 144 145 144 140 133 127 126 134 140 144 143 143 143 143 144
143 143 143 143 142 142 142 142 142 141 142 141 142 142 142 141
141 131 117 124 141 141 99 28 18 15 8 11 22 35 35 34
33 33 33 36 37 37 37 37 37 37 36 36 36 36 36 36
36 35 36 36 36 36 35 35 35 34 35 34 35 34 35 35
35 33 31 30 28 26 30 14 2 0 0 0 0 0 36 40
26 1 1 4 8 10 25 31 21 3 0 4 12 19 31 35
31 30 32 31 33 32 32 30 26 35 64 114 144 144 145 145
145 146 144 144 131 121 124 129 137 142 143 143 143 144 143 143
143 142 142 142 141 141 142 141 141 142 142 142 142 142 140 135
138 138 137 136 133 131 54 26 19 19 12 10 31 36 36 35
33 34 35 35 35 35 35 34 36 36 36 36 36 36 36 36
35 36 36 36 35 34 34 34 34 35 34 29 33 34 34 34
37 38 37 37 36 35 35 13 3 0 0 0 0 10 39 37
9 0 0 0 1 7 30 33 19 0 0 0 2 10 27 28
28 31 36 38 42 40 32 29 28 35 53 106 131 128 134 144
145 145 145 143 126 112 122 131 138 143 143 143 143 143 143 143
142 142 142 143 142 142 142 142 142 142 142 142 142 142 127 115
139 142 140 137 139 84 40 24 23 18 13 24 36 36 35 35
34 35 36 35 35 35 36 36 36 36 36 36 35 35 35 37
35 35 35 35 35 35 35 35 35 34 34 34 35 34 33 33
39 38 37 36 37 38 37 14 3 0 0 0 0 12 40 30
1 0 0 0 0 1 32 33 20 0 0 0 0 10 26 6
2 6 9 12 26 41 32 27 29 34 38 65 119 96 76 99
123 140 144 133 126 111 112 128 137 143 143 143 143 143 143 143
143 143 143 142 142 142 141 142 141 142 142 142 142 141 142 142
142 142 142 141 119 64 28 23 19 15 18 34 36 36 35 35
35 37 37 36 35 35 36 36 36 36 35 35 35 36 35 35
35 35 36 35 35 34 34 35 35 34 33 34 35 34 34 34
12 17 24 29 33 39 41 11 0 0 0 1 4 1 36 23
0 0 0 0 0 1 33 32 17 0 0 0 0 7 27 5
2 10 5 0 15 42 33 26 31 34 36 39 53 81 75 92
105 101 119 134 134 119 112 125 138 143 144 144 143 143 142 143
143 143 143 143 142 143 142 142 141 141 142 142 142 140 141 141
141 141 139 130 98 46 22 22 17 15 29 36 36 35 35 36
35 35 36 36 36 36 36 36 36 36 36 36 36 35 35 35
35 35 35 35 34 34 35 34 35 34 34 33 34 34 34 34
29 25 22 15 4 19 45 18 1 0 0 0 5 0 36 19
0 0 0 0 0 2 35 30 15 0 0 0 0 6 28 5
3 11 8 0 14 40 32 26 32 34 37 38 38 34 38 72
112 125 136 138 128 123 122 127 134 142 144 143 143 143 143 143
143 143 143 142 142 141 141 141 141 140 141 142 140 128 141 141
141 137 133 130 86 33 19 21 17 17 35 34 35 35 35 36
36 36 36 36 36 35 35 35 35 35 34 35 35 34 35 35
36 35 35 35 34 35 34 34 33 34 33 34 33 33 33 33
35 34 34 34 12 15 46 22 5 0 0 2 4 0 35 16
0 0 0 0 0 3 36 29 12 0 0 0 0 1 27 4
1 3 1 0 14 41 32 26 33 34 37 38 37 35 34 41
80 107 119 122 118 117 124 136 140 142 143 143 143 143 143 142
143 142 142 142 141 142 142 141 142 141 142 142 136 66 117 133
134 140 138 127 68 34 20 21 22 23 36 35 35 34 35 35
35 36 35 35 36 35 35 35 36 35 35 35 35 34 35 35
35 34 34 34 34 34 33 34 34 34 34 33 33 33 32 33
35 34 34 33 12 14 46 12 0 0 0 0 4 1 36 14
0 0 0 0 0 1 36 30 16 1 0 0 0 0 30 5
5 8 5 0 15 41 31 27 33 34 37 38 37 36 32 35
68 95 105 109 111 110 119 133 144 144 144 143 144 144 144 143
144 143 143 143 143 142 141 141 140 138 136 141 140 125 138 142
142 141 140 118 58 32 22 20 17 18 22 20 21 20 23 30
36 37 36 35 36 36 36 36 36 36 35 35 35 35 35 34
35 35 34 34 35 34 35 33 34 33 34 34 33 33 33 33
28 31 33 34 14 13 43 6 0 0 0 0 0 1 38 13
0 0 0 0 0 0 35 30 13 0 0 0 0 0 31 6
0 0 1 0 17 41 30 29 33 35 38 38 37 37 31 35
77 98 114 114 110 107 111 126 142 145 145 144 144 144 144 143
143 142 141 142 140 142 141 142 134 140 139 142 142 143 142 142
142 142 140 102 38 32 22 17 20 13 9 9 9 9 10 23
37 37 36 36 36 36 36 36 36 36 36 36 35 35 35 35
36 35 34 35 34 35 35 35 35 34 35 35 34 35 34 34
1 24 32 34 16 11 37 3 0 0 0 0 2 1 40 16
0 0 0 0 0 0 35 30 10 0 0 0 0 0 33 8
0 0 0 0 18 39 28 31 34 35 38 38 38 38 33 29
62 82 101 116 119 107 96 110 133 144 145 144 145 142 142 144
144 141 142 141 139 142 139 140 137 136 137 141 142 143 144 143
143 143 137 95 27 31 24 14 27 12 10 9 10 10 10 25
38 37 37 37 37 37 37 36 36 35 35 35 35 35 36 35
37 36 36 36 36 35 36 35 35 35 35 35 34 34 34 35
0 32 37 34 17 8 37 19 14 9 7 8 14 7 40 26
7 5 5 4 1 3 38 31 19 6 4 2 2 1 34 9
0 0 0 1 22 38 28 33 35 36 39 40 39 37 35 25
50 66 84 91 92 92 67 79 121 142 145 145 143 141 140 144
142 141 140 140 142 141 140 136 135 134 133 142 144 145 144 144
144 144 133 84 25 36 19 20 29 12 11 12 12 11 12 27
38 38 37 38 37 38 38 37 36 36 37 37 36 37 36 36
37 37 36 37 37 36 36 37 36 37 36 36 36 36 36 35
0 32 38 34 19 5 38 39 38 33 34 36 37 40 40 47
50 44 44 43 41 40 47 32 35 38 39 38 39 39 45 13
3 1 0 0 24 35 27 32 33 35 38 38 35 34 32 26
63 88 114 129 129 114 94 79 99 130 140 141 141 140 142 143
142 142 139 139 140 136 138 135 133 127 133 141 144 144 144 143
144 142 120 66 20 32 10 29 30 11 11 11 11 11 11 25
38 38 39 39 38 38 37 36 36 36 37 36 36 37 36 36
37 36 36 36 36 35 36 36 37 37 37 36 36 35 36 35
0 31 39 34 20 4 40 40 35 35 37 36 33 33 33 42
52 49 47 47 51 52 52 36 34 41 42 45 50 54 52 36
31 29 26 24 31 33 27 31 34 35 38 35 34 36 34 25
46 63 92 120 134 138 134 102 88 118 132 140 139 139 142 141
139 140 138 139 136 134 132 127 130 129 133 139 144 144 144 144
144 138 112 53 14 17 12 35 30 12 11 11 11 11 10 24
39 38 37 37 37 37 38 36 36 36 36 36 36 36 36 36
35 37 36 36 36 35 36 35 36 36 37 36 36 35 35 35
0 31 39 33 21 3 39 31 29 29 33 36 35 34 33 32
40 42 44 43 45 47 48 38 27 35 39 43 50 53 52 36
31 30 31 32 33 32 29 30 34 35 36 34 36 36 34 26
36 56 76 105 123 133 129 118 95 108 124 128 132 131 138 135
137 137 132 132 131 131 129 127 126 128 135 141 143 144 144 143
143 131 100 55 24 16 30 37 32 19 18 17 18 18 17 22
34 35 36 35 36 36 36 35 34 36 36 36 36 35 35 35
35 36 37 36 36 36 36 36 37 36 33 34 33 33 32 32
0 30 39 32 23 6 39 20 24 26 27 33 35 34 35 27
20 23 22 22 23 24 27 29 26 29 32 33 31 28 31 31
31 31 31 30 29 31 30 28 31 32 34 36 37 36 36 26
28 52 69 93 108 119 122 117 102 106 122 126 131 130 133 132
133 133 134 132 128 126 123 121 122 131 134 141 144 144 142 143
142 121 92 63 38 27 37 36 31 12 13 13 13 14 15 22
35 37 37 37 37 36 36 36 33 35 36 37 36 36 36 37
36 35 35 36 36 36 35 35 36 35 35 35 35 35 35 34
0 29 39 32 29 24 40 9 1 3 6 9 15 18 32 28
24 24 26 29 29 27 29 32 32 33 34 33 33 28 27 31
32 32 33 32 31 31 30 31 30 30 36 36 36 35 35 26
28 55 71 90 103 108 112 116 112 109 120 125 128 124 126 129
133 127 128 126 120 121 118 118 123 131 140 142 143 143 143 143
141 117 89 77 61 34 37 36 30 11 11 11 11 11 11 22
36 37 37 37 37 37 37 36 36 35 35 36 37 34 35 35
35 35 35 35 35 36 36 36 35 36 35 35 35 34 34 33
0 26 39 31 33 43 44 9 0 0 0 0 1 6 31 30
36 37 33 43 45 35 34 37 38 40 45 44 39 32 30 30
32 31 31 31 31 31 30 30 32 34 38 37 35 35 29 20
27 72 107 112 108 106 107 111 110 109 120 126 124 127 126 126
128 125 125 119 117 116 116 121 128 138 141 143 143 143 143 142
140 118 87 85 74 34 36 35 30 10 10 11 12 11 10 24
37 37 36 36 36 36 36 36 35 36 35 35 36 35 36 34
35 35 35 34 34 34 35 34 34 35 34 34 34 34 33 33
0 26 38 30 32 46 46 12 0 0 0 0 0 4 38 29
39 39 35 49 52 14 9 13 17 22 29 43 40 32 30 30
31 31 32 32 31 31 30 30 32 34 37 36 35 31 29 29
40 89 110 118 121 115 112 110 107 114 119 126 124 127 122 122
126 122 119 116 113 114 120 124 132 140 141 142 143 143 143 143
140 116 98 101 84 34 37 36 30 11 10 11 10 10 10 23
37 36 36 35 36 36 36 36 36 35 36 35 35 35 35 35
35 35 35 35 35 34 34 34 33 34 35 33 33 33 33 32
0 24 38 30 31 42 42 14 0 0 0 0 0 2 39 26
36 30 5 13 36 5 0 0 0 0 5 39 42 32 32 30
31 31 31 31 30 30 30 30 32 33 37 36 31 28 28 30
50 89 100 117 122 116 116 113 110 113 116 120 120 125 118 117
120 118 119 116 115 116 123 131 134 140 142 143 143 143 144 144
140 119 106 109 87 33 36 35 28 10 10 9 10 10 11 25
37 36 35 35 36 35 36 36 35 35 35 35 34 36 36 36
35 35 35 35 35 34 34 34 34 34 34 33 34 34 33 32
0 23 37 30 25 13 11 0 0 0 0 0 0 4 39 26
37 26 0 1 30 5 0 0 0 0 3 37 41 31 31 31
31 31 31 31 30 30 30 30 30 32 37 33 28 17 17 30
48 85 89 114 117 118 118 116 112 113 113 114 115 113 115 112
114 114 118 118 120 122 128 133 139 141 142 143 143 142 144 143
140 122 112 110 94 36 36 35 27 9 10 10 10 9 10 25
35 36 35 35 35 35 35 36 35 36 35 35 35 35 35 35
35 34 33 34 34 34 34 34 34 34 34 34 34 33 32 32
0 22 37 29 25 11 8 0 0 0 0 0 0 6 39 27
37 24 0 1 30 5 0 0 0 0 2 34 40 31 31 31
30 31 31 31 29 29 30 30 31 33 36 31 27 3 1 29
37 74 79 101 112 113 114 115 110 108 103 107 108 108 108 107
109 110 116 119 120 127 132 137 140 140 143 143 143 143 143 143
142 126 119 118 102 44 35 34 26 9 9 10 10 10 10 27
37 35 36 35 35 35 35 35 34 35 35 35 34 34 34 34
34 34 34 34 34 33 33 34 32 33 34 32 33 33 32 32
0 21 37 29 25 15 9 0 0 0 0 0 0 7 38 27
37 21 0 1 30 6 0 0 0 0 0 33 38 30 31 31
31 31 31 30 30 29 30 30 31 33 35 30 27 18 13 27
28 45 64 87 104 109 112 110 106 103 99 99 99 100 101 103
107 112 117 122 125 126 131 135 138 142 143 142 143 143 144 144
142 130 123 124 111 61 35 35 26 9 9 10 9 8 9 26
36 36 34 35 35 35 35 35 35 35 35 34 35 35 35 34
34 33 34 34 33 33 34 34 34 34 33 33 33 32 32 32
0 22 37 28 25 16 9 0 0 0 0 0 0 5 38 27
39 19 0 1 28 6 0 0 0 0 0 32 38 30 31 30
31 30 30 29 29 29 29 29 30 32 34 28 27 23 26 29
26 25 42 54 76 89 96 97 90 88 89 89 93 97 99 102
106 110 110 118 125 128 130 132 137 140 141 143 143 144 144 144
141 136 128 128 113 83 36 35 27 11 12 11 10 9 9 27
35 35 35 35 35 34 35 35 34 34 34 34 35 34 34 34
35 33 34 34 33 33 34 33 33 33 33 33 33 32 32 32
0 22 36 29 25 18 9 0 1 0 0 4 0 4 38 28
38 20 2 2 27 9 1 0 0 0 0 31 38 30 30 30
30 30 30 30 29 29 29 29 30 32 34 29 19 16 20 27
24 23 26 22 39 53 65 66 61 65 69 75 85 94 94 100
104 110 113 120 123 123 126 134 132 138 139 140 144 143 143 144
142 139 137 131 120 98 31 11 11 16 21 22 20 28 24 31
35 35 35 35 35 35 35 34 35 34 34 35 34 34 34 34
34 33 33 34 33 33 33 33 34 34 33 33 33 33 33 32
0 22 36 28 25 19 10 1 2 0 0 8 9 4 40 30
40 20 14 1 27 9 3 2 3 0 0 31 37 29 30 30
31 30 30 29 29 29 29 29 30 32 35 31 25 19 19 21
19 23 26 16 52 49 45 39 33 32 41 52 67 77 83 96
102 107 113 120 121 120 119 129 132 129 140 140 144 144 144 144
144 142 142 137 127 107 58 0 0 4 6 13 23 30 34 34
35 36 36 35 35 35 35 35 34 34 34 34 35 34 34 34
34 34 34 34 34 34 34 33 33 35 34 33 33 32 33 31
0 23 35 28 24 19 20 12 14 10 8 15 17 10 43 31
41 15 22 5 27 3 4 9 6 0 0 30 35 28 29 29
29 29 29 29 29 29 29 28 29 31 35 31 23 26 25 24
24 29 27 14 52 53 53 50 48 45 32 38 53 75 91 99
103 107 118 119 119 119 121 125 126 129 140 144 144 144 143 144
143 143 141 139 133 115 97 25 0 1 4 16 24 24 35 36
36 36 35 35 36 36 35 34 35 34 34 34 35 34 35 35
34 34 34 34 33 33 33 33 33 34 36 35 34 34 32 33
0 23 35 27 24 18 33 39 41 41 41 41 42 44 52 34
41 8 22 11 25 8 8 10 5 2 1 27 32 28 29 29
30 28 29 29 29 28 28 28 28 29 33 30 25 29 27 27
28 32 27 11 49 53 53 50 47 45 44 48 59 74 92 104
109 118 120 122 123 124 123 125 129 133 141 144 144 144 144 143
143 143 143 142 140 126 109 65 3 0 13 23 24 22 29 35
34 35 34 35 34 34 34 34 34 34 34 34 34 33 34 33
34 33 34 34 34 33 34 34 34 33 33 33 32 32 32 33
0 24 34 26 24 17 32 45 45 45 44 45 46 50 55 40
39 4 8 14 26 23 24 23 22 22 21 24 25 27 29 29
28 28 28 28 28 28 28 27 27 27 32 29 25 30 28 28
30 32 26 8 47 53 52 50 47 46 45 48 65 75 93 104
111 117 122 126 126 123 120 122 129 135 144 144 144 144 143 144
143 143 142 143 140 128 97 51 25 10 22 25 25 22 26 34
33 34 34 33 33 33 34 33 34 34 33 34 33 33 33 32
33 33 32 32 33 32 33 33 33 32 32 33 33 32 32 32
0 25 34 26 23 18 20 31 32 33 35 35 37 40 45 40
37 4 1 4 26 21 22 22 22 22 22 22 25 28 28 29
29 28 29 29 29 28 28 27 27 27 32 25 25 31 30 30
33 34 27 8 44 53 53 51 47 45 44 44 59 71 86 100
111 115 120 124 127 124 119 123 129 133 143 143 144 144 144 143
144 143 144 143 141 115 70 50 36 21 24 25 25 21 22 33
33 34 35 34 33 34 34 34 34 34 34 34 34 33 33 33
34 33 33 33 33 34 34 33 33 33 33 32 32 32 31 31
0 25 33 24 22 17 10 8 7 7 8 8 10 12 16 22
35 3 0 2 26 23 27 27 27 26 26 26 26 27 27 28
28 28 27 27 27 27 27 28 27 27 31 25 28 32 31 31
34 35 26 7 40 52 53 52 47 46 45 44 49 70 80 93
104 113 118 121 124 123 118 123 130 137 144 144 145 144 144 144
144 143 143 143 128 87 66 52 21 22 26 26 25 24 23 28
33 33 33 32 32 33 33 34 35 35 34 34 34 34 34 34
34 32 33 32 33 32 33 33 33 32 32 33 32 32 32 31
0 26 32 24 22 18 13 10 9 8 8 8 9 12 15 23
34 3 0 1 27 24 27 27 27 27 27 27 27 27 27 28
29 28 27 28 28 27 28 27 27 26 28 26 27 32 31 32
35 35 25 7 35 54 54 52 47 45 44 43 42 58 75 86
99 111 120 123 125 121 121 120 129 138 143 143 143 143 144 143
143 143 144 138 99 82 69 25 21 24 25 26 26 25 25 23
31 33 33 33 32 33 33 35 36 37 36 35 35 35 34 34
36 34 33 34 34 34 35 35 33 34 33 33 33 32 33 31
0 27 31 23 22 19 18 15 15 12 12 11 11 13 16 26
34 7 7 8 28 22 27 27 28 27 27 27 28 28 27 27
27 27 27 27 28 27 27 26 26 26 25 28 27 33 32 33
35 35 25 5 30 53 52 51 46 43 38 31 29 33 61 79
93 109 117 121 124 121 121 122 128 138 142 144 144 144 144 144
144 144 140 111 88 81 33 19 23 25 26 27 27 27 28 28
26 26 19 20 21 23 39 46 48 48 47 46 45 44 43 41
41 39 38 37 36 37 37 37 36 35 36 35 35 35 35 34
0 30 32 24 21 20 18 17 16 16 16 16 15 16 17 29
36 27 41 43 38 22 26 26 27 26 26 27 26 26 27 27
27 27 27 27 28 27 27 26 24 24 27 29 28 32 32 33
35 34 25 6 26 52 52 51 44 31 33 40 39 38 43 68
86 102 115 118 123 120 121 122 126 136 142 144 143 144 143 143
143 142 119 93 87 42 19 23 25 25 26 26 26 26 29 33
27 19 1 0 0 3 51 54 55 55 54 54 54 54 54 53
53 52 53 53 51 50 50 49 49 47 47 44 42 41 39 37
16 31 29 23 20 19 18 16 16 16 16 16 18 18 17 26
27 22 32 35 31 21 25 26 26 27 27 26 27 27 26 26
27 26 27 26 26 26 25 24 23 24 31 29 29 32 33 34
35 34 25 5 23 52 52 49 32 39 45 42 39 40 41 57
80 94 109 120 122 117 118 121 127 138 140 143 139 144 144 144
144 125 98 92 51 17 22 24 25 26 26 26 27 26 27 31
28 26 11 0 0 9 53 54 54 53 54 54 54 55 55 55
55 55 54 54 55 55 55 55 55 55 54 55 55 54 54 53
24 23 23 23 20 19 18 17 16 15 15 15 16 17 19 22
21 18 17 21 22 23 25 25 25 26 25 25 25 25 26 26
26 26 26 27 26 26 25 23 23 24 30 29 29 31 31 32
34 33 23 5 19 51 48 35 42 43 44 41 40 40 38 45
73 92 111 123 122 114 116 122 124 133 137 139 136 143 144 143
132 100 92 60 18 21 22 25 26 25 26 25 26 27 26 27
27 28 46 28 2 15 54 54 54 54 54 53 53 53 54 54
54 53 54 54 54 54 54 55 54 55 55 54 55 54 53 52
23 24 24 23 19 18 18 18 17 17 16 16 16 17 21 23
22 21 19 22 22 23 25 25 25 25 25 26 26 26 26 26
26 26 26 26 26 26 25 24 21 25 29 31 29 31 32 32
34 33 23 5 15 47 33 46 46 42 43 42 40 40 38 37
67 90 112 122 122 114 112 117 123 128 134 138 141 144 145 135
104 96 67 18 20 23 24 24 25 24 26 26 27 27 26 24
22 32 51 73 58 37 54 53 54 53 53 54 54 54 55 54
54 54 54 54 54 54 54 54 55 54 54 54 55 54 53 53
24 24 24 23 19 18 19 18 18 17 17 16 16 17 21 23
22 22 20 22 23 23 24 25 25 24 25 25 25 25 24 25
25 25 25 25 25 25 25 24 20 27 29 31 28 29 31 32
34 33 22 6 12 34 45 49 45 41 43 41 38 29 26 19
54 81 106 120 118 109 111 118 122 125 130 137 140 143 134 104
94 70 20 20 22 24 26 24 25 25 24 26 26 25 24 20
24 44 48 62 69 60 53 54 54 54 54 53 54 54 54 54
53 54 53 53 54 53 54 54 54 54 54 55 54 54 53 52
15 15 15 17 17 17 17 18 17 17 17 17 17 18 22 23
23 23 21 22 23 22 23 23 24 24 24 24 24 25 25 24
24 25 25 25 25 24 23 23 23 26 29 31 28 28 32 33
35 34 23 15 41 44 49 50 46 41 43 40 37 23 19 7
41 72 99 115 115 107 110 117 121 121 126 132 141 132 108 96
62 18 20 23 24 24 27 26 25 24 25 25 25 25 23 20
29 35 36 35 59 66 56 50 54 53 53 53 53 53 53 54
54 53 54 54 54 55 55 54 54 54 54 54 54 54 53 53
13 15 15 17 17 18 18 18 18 17 17 17 17 18 22 22
22 22 23 22 22 23 23 24 25 24 24 24 25 24 24 24
24 24 24 24 24 24 24 21 25 26 31 31 28 26 31 32
37 39 36 42 18 30 40 41 41 40 40 38 34 20 7 3
36 65 87 104 110 107 111 118 119 119 121 128 125 105 95 55
18 20 22 22 23 23 25 26 26 24 25 25 24 23 20 20
28 34 28 41 43 58 55 43 53 54 53 53 53 53 53 53
54 54 54 54 54 54 54 55 54 55 54 54 54 55 53 53
13 15 15 16 17 16 17 17 17 17 16 17 18 20 24 23
22 22 23 22 21 22 23 23 23 24 24 23 24 24 24 24
24 24 24 23 20 22 21 20 25 25 32 30 28 26 29 31
32 30 28 50 8 9 5 3 7 11 10 7 4 4 4 4
27 69 81 94 106 106 112 115 118 114 112 109 103 96 53 16
21 21 22 24 24 23 25 25 24 23 23 24 25 21 20 20
30 44 37 29 39 47 56 51 41 50 53 53 53 53 53 53
54 54 54 54 54 54 54 54 54 54 54 54 54 53 53 52
12 15 15 16 17 18 18 18 17 18 18 17 18 21 24 23
22 22 23 23 22 22 23 23 23 24 24 24 22 22 23 23
23 21 22 21 13 14 17 22 25 28 32 30 28 23 27 33
37 39 34 27 0 1 2 0 0 0 0 0 1 4 4 7
57 74 79 87 100 104 113 118 117 105 100 98 96 45 18 21
23 24 23 22 23 25 24 24 25 25 25 23 21 20 25 22
36 45 55 83 35 41 55 57 45 39 50 53 53 53 53 54
53 54 54 53 54 54 54 54 54 54 55 54 55 54 53 53
12 17 18 19 19 20 20 21 21 20 21 21 22 24 24 23
22 22 23 23 22 21 22 22 22 22 22 22 23 23 23 24
22 20 21 22 21 14 19 23 26 31 28 22 22 32 41 40
37 20 18 14 0 1 0 0 0 0 0 0 4 5 10 37
79 79 80 84 95 101 112 114 104 93 90 88 38 18 20 21
23 23 23 22 23 23 23 22 24 24 24 21 17 23 27 24
45 59 98 69 46 30 48 60 54 37 39 50 53 53 53 53
53 53 53 54 53 54 54 54 54 54 54 54 53 53 53 52
15 17 20 22 25 24 24 24 24 24 24 23 24 24 24 23
21 21 22 22 21 21 22 22 22 22 22 23 22 22 22 22
20 18 22 28 25 22 22 25 31 33 31 35 40 37 35 20
8 6 19 8 0 0 6 3 0 0 0 3 4 9 23 70
58 84 84 83 89 96 105 106 97 90 79 32 17 20 22 20
22 23 22 23 23 21 22 22 23 23 22 18 20 26 15 29
64 102 84 42 38 41 33 56 63 49 33 40 51 53 53 53
53 52 53 52 53 52 54 53 54 53 54 53 54 53 53 53
16 15 14 16 32 23 23 24 24 24 24 24 24 23 24 23
22 21 22 22 22 21 21 21 22 21 21 21 22 21 22 20
19 19 20 26 31 27 20 14 8 4 11 18 20 14 3 0
3 17 30 16 1 7 35 26 17 36 14 4 17 17 28 75
41 88 88 84 85 90 97 100 99 81 26 17 21 20 21 22
23 23 22 22 22 22 22 21 21 19 17 19 25 15 6 35
96 92 54 27 33 42 49 58 95 69 44 34 39 50 52 52
52 52 52 53 53 54 53 53 53 53 53 53 53 53 52 52
8 8 9 11 32 24 20 21 22 23 23 24 24 24 23 22
21 21 21 21 21 21 21 21 22 21 21 21 21 21 21 19
18 18 19 19 24 35 25 14 9 4 0 0 0 0 0 0
0 2 23 5 0 1 10 9 6 12 17 49 50 26 30 81
29 90 87 82 80 86 95 99 81 26 17 19 20 21 20 22
21 22 20 21 21 21 20 19 19 17 16 24 27 8 27 87
70 58 38 19 35 43 47 54 54 72 81 52 39 39 52 52
52 52 52 52 53 52 52 53 53 53 53 53 53 53 52 52
9 8 8 11 31 25 16 15 16 16 19 20 20 21 22 22
21 21 21 21 22 21 21 21 20 20 20 20 21 20 21 21
19 18 19 20 16 22 18 17 11 10 5 1 0 0 0 0
0 0 24 1 0 0 59 79 71 52 50 46 44 14 65 93
34 96 84 80 78 82 96 76 19 17 17 18 18 18 19 20
22 21 20 20 21 20 17 16 15 16 19 31 13 8 61 69
43 26 18 18 36 46 46 49 53 38 58 76 78 53 40 51
51 52 51 52 52 52 52 52 52 52 52 52 52 52 51 51
7 7 7 11 29 24 16 14 14 14 14 15 16 16 17 19
20 20 20 21 21 21 20 21 20 20 20 20 20 20 20 20
19 17 18 17 16 16 16 19 10 3 2 0 0 0 0 0
0 0 0 1 0 0 37 54 54 51 49 17 29 12 108 116
49 92 97 103 99 79 50 18 17 19 19 19 19 20 20 20
20 21 19 19 20 19 15 12 12 19 27 19 4 24 69 46
34 14 8 20 22 35 44 48 50 47 45 62 48 60 61 49
51 51 51 51 51 51 51 52 52 52 52 52 52 51 52 51
6 6 5 5 28 24 16 13 14 13 13 13 14 14 14 17
21 21 21 21 21 20 21 20 20 19 19 19 20 20 19 20
19 19 19 15 17 15 17 19 11 3 2 1 0 1 0 0
1 1 0 12 8 0 18 43 41 29 16 4 27 40 124 117
141 145 125 97 43 18 18 18 20 19 19 19 19 20 21 19
19 19 20 19 18 15 13 12 19 30 25 5 4 41 41 34
20 9 18 28 31 30 30 43 62 69 57 68 64 38 41 50
51 51 51 51 51 52 52 52 52 52 52 52 53 51 51 50
27 25 13 6 26 24 15 13 13 14 13 13 13 13 14 16
20 21 20 20 20 20 20 20 19 19 18 19 19 18 18 19
19 18 15 16 16 13 17 17 10 4 3 2 1 2 1 0
1 1 0 11 10 0 7 40 35 20 3 3 11 66 111 85
83 91 76 26 16 17 18 17 18 19 18 18 19 20 20 21
19 18 19 17 13 12 10 20 41 34 12 2 13 37 29 21
7 11 25 32 34 40 46 45 54 70 75 56 73 61 42 39
43 52 51 51 51 51 51 51 51 51 52 51 52 51 51 51
25 25 26 25 26 25 16 13 13 13 13 13 13 13 14 16
21 20 20 20 21 20 20 19 18 17 17 18 18 18 18 18
17 16 12 18 20 19 13 13 7 3 3 2 2 1 1 0
1 2 0 7 8 0 2 41 36 21 3 5 13 46 79 77
88 55 32 11 18 20 18 19 18 19 20 19 21 21 20 19
18 18 16 14 12 11 19 39 54 38 11 4 29 29 20 5
4 16 25 26 40 47 47 48 51 62 75 71 65 70 52 56
43 45 50 50 51 50 51 51 51 52 51 51 51 51 52 50
33 34 34 35 28 22 16 13 13 15 18 20 20 17 14 16
20 20 20 20 20 20 19 14 14 14 13 13 13 17 34 33
30 24 22 19 28 41 15 10 7 9 6 5 4 3 2 1
4 15 17 21 23 24 12 41 38 21 3 8 18 24 58 34
6 0 2 7 16 18 18 19 21 20 20 20 20 19 18 18
17 16 14 12 11 18 31 55 49 22 13 21 44 31 9 2
8 19 23 40 39 40 40 45 57 72 98 97 54 61 56 54
56 45 51 50 50 50 50 50 51 51 51 51 50 51 50 50
32 35 37 38 38 33 25 23 25 28 36 39 39 37 31 33
34 34 34 35 37 37 35 28 23 6 1 2 3 13 40 43
42 43 42 43 45 45 46 42 33 39 35 29 28 29 9 0
4 36 39 37 35 33 24 31 27 20 7 12 15 19 28 21
9 8 10 17 15 14 19 19 19 20 18 18 17 19 18 17
15 14 11 11 20 52 66 51 33 14 16 33 45 27 10 6
18 28 39 46 35 34 39 68 97 83 71 73 55 61 44 42
59 49 47 50 50 51 50 50 51 51 51 51 51 50 50 49
36 38 40 40 42 42 42 42 43 43 42 42 41 41 41 41
40 40 40 38 38 38 37 36 35 29 2 0 0 0 2 4
5 8 11 14 15 13 13 16 24 22 21 21 22 20 5 0
1 28 30 28 27 23 14 20 20 14 12 23 25 48 37 32
26 14 13 15 15 12 22 16 14 17 18 17 17 16 15 14
15 13 11 17 39 88 100 75 16 10 19 36 34 16 14 20
35 57 56 41 26 35 64 74 62 58 52 73 64 62 47 34
40 42 46 52 50 50 50 50 50 50 50 50 50 50 50 49
40 39 38 37 38 37 36 36 37 37 37 35 36 35 35 34
33 32 32 31 31 31 31 31 29 29 10 0 0 0 0 0
0 0 0 0 0 1 1 1 4 2 2 2 0 0 0 0
0 3 3 2 1 7 11 15 17 12 13 29 27 52 36 33
32 23 17 19 15 20 23 16 13 13 18 19 17 15 14 14
13 12 16 20 43 62 92 57 36 30 43 37 14 14 16 30
55 71 63 32 33 57 50 53 59 59 47 65 73 59 50 32
36 31 31 52 49 50 50 50 50 50 50 50 50 50 50 49
36 36 34 34 34 34 33 32 32 32 32 30 30 29 28 27
26 26 24 24 24 24 23 22 20 20 14 0 0 4 0 0
2 0 0 0 0 0 0 0 0 0 0 0 0 0 0 0
0 0 0 0 0 10 12 9 15 11 17 34 31 45 30 31
32 26 20 20 18 25 15 14 13 12 9 17 18 18 16 15
13 17 17 26 37 48 43 30 34 40 54 46 23 10 24 35
69 67 46 38 51 42 45 52 56 50 48 60 76 56 48 30
35 30 25 45 51 49 50 49 49 50 49 50 50 50 49 49
30 29 29 29 29 29 28 28 27 27 27 26 26 25 24 24
23 23 23 22 22 20 21 20 21 19 13 0 1 9 0 2
8 7 7 6 4 3 2 2 1 0 0 0 0 0 0 0
0 0 0 0 7 10 12 7 14 13 20 31 35 36 26 31
30 27 26 24 24 28 15 12 13 8 5 5 13 18 17 13
18 15 17 37 39 36 20 13 16 25 28 30 39 36 69 82
65 46 36 57 41 43 48 47 49 44 55 60 75 58 47 31
36 32 26 35 54 48 49 49 49 50 50 50 50 50 50 49
27 27 29 27 27 26 27 26 27 26 27 26 26 25 25 25
24 24 24 23 22 21 21 20 19 18 12 0 2 11 0 6
11 10 11 13 12 10 9 8 6 6 7 6 2 1 0 0
0 0 0 0 13 11 10 8 14 15 23 30 51 40 32 35
28 26 34 30 30 26 18 12 11 6 4 4 4 8 11 11
14 11 30 40 36 26 6 6 12 16 14 11 26 39 93 110
69 29 45 50 53 49 48 42 40 47 56 57 74 55 45 31
35 29 25 32 54 49 49 49 49 49 49 49 49 49 49 48
29 28 29 29 29 28 28 27 27 27 28 26 26 26 25 24
24 23 23 22 22 21 21 20 19 17 10 0 3 10 1 9
12 12 13 14 14 13 12 11 9 4 2 4 1 3 2 0
0 0 0 2 21 11 8 11 11 16 28 30 55 36 31 26
26 32 38 37 40 29 21 15 11 8 7 4 5 8 16 18
17 25 37 37 33 11 6 7 14 13 8 9 13 38 81 105
73 31 44 54 62 51 44 36 43 55 53 53 69 57 44 31
35 29 23 31 43 48 48 48 48 48 49 48 49 49 49 48
30 29 30 30 30 29 28 28 27 27 26 26 27 26 25 24
24 23 22 22 21 20 20 20 18 14 6 0 1 3 1 8
11 12 13 13 10 8 7 6 6 2 0 0 0 0 0 0
0 2 2 5 18 12 7 11 8 18 39 33 47 33 26 22
32 32 38 39 38 31 27 19 9 8 7 9 12 18 18 18
24 34 38 36 24 6 7 10 14 10 6 7 14 43 67 74
64 50 47 64 68 55 38 31 48 55 52 50 63 58 44 30
35 29 24 29 47 51 48 47 47 48 48 47 48 48 47 47
29 30 29 29 29 29 28 28 28 26 27 26 26 25 25 23
23 23 22 22 21 20 20 19 18 9 2 0 0 0 0 5
7 6 3 3 2 2 5 5 4 1 0 0 0 0 0 0
0 3 7 7 18 11 9 11 8 21 63 73 63 30 23 24
35 34 35 55 36 31 28 20 13 14 16 16 20 20 17 22
29 37 33 33 9 6 7 12 13 7 6 7 27 51 53 35
53 57 52 65 67 56 31 36 46 54 51 52 59 58 45 31
35 28 24 27 61 57 46 47 47 47 47 48 48 48 48 47
