P2
128 120
157
37 37 36 36 35 35 35 34 34 33 33 32 32 32 31 31
30 29 29 28 28 27 27 26 26 26 25 24 24 23 23 22
23 22 21 21 20 20 20 19 19 19 19 19 20 24 24 24
24 20 18 12 22 23 21 20 21 20 19 19 19 18 18 17
15 15 15 17 20 21 21 22 21 22 22 23 23 23 24 24
24 24 25 25 25 26 26 26 27 27 27 27 28 28 29 30
30 30 30 31 31 32 32 31 32 32 33 33 33 34 33 34
35 33 34 34 35 34 35 35 34 35 35 36 35 35 34 33
37 36 36 36 35 35 35 34 34 33 33 32 32 31 32 30
30 29 29 28 28 28 27 27 26 25 24 24 24 24 23 23
22 22 21 21 21 21 20 19 20 19 19 19 20 24 25 25
25 20 20 10 18 23 21 21 21 21 20 19 20 17 18 18
16 16 17 20 21 21 21 22 22 22 23 23 23 23 24 24
24 24 25 25 25 25 26 26 27 27 27 27 28 29 29 30
30 30 31 31 32 32 32 32 33 33 33 33 33 33 34 33
35 34 34 35 34 35 34 34 33 33 34 35 36 34 36 37
36 36 36 35 35 35 34 34 34 33 33 32 33 32 31 30
30 30 29 29 28 27 27 26 26 26 25 25 25 24 23 23
22 22 22 21 21 20 20 19 20 19 19 20 21 25 25 25
25 20 14 6 18 24 22 22 21 21 20 19 21 18 19 18
16 17 17 21 22 22 22 22 23 22 23 23 24 24 24 25
25 25 25 25 26 27 26 26 26 27 28 28 28 29 30 31
31 31 31 32 32 33 32 32 32 33 33 33 34 33 33 32
33 32 32 33 33 34 35 35 36 36 35 36 35 35 35 36
37 37 36 35 34 35 34 34 34 33 33 32 32 32 31 31
31 30 30 29 28 28 27 26 27 26 25 25 25 24 24 23
23 22 22 21 21 21 21 21 19 20 20 20 22 25 25 25
25 20 15 15 21 25 23 22 22 21 21 20 21 19 19 19
17 19 18 22 23 22 23 23 23 24 24 24 24 24 25 25
25 25 25 26 26 26 27 27 27 28 29 28 29 29 30 31
30 31 31 32 32 32 32 31 30 32 32 31 32 32 33 34
34 35 35 35 35 34 35 35 35 36 35 35 36 35 36 35
36 36 36 35 35 34 35 34 34 33 33 33 32 32 31 31
30 30 30 29 29 28 27 26 27 26 26 25 25 24 25 23
23 23 22 22 21 22 21 21 20 20 20 20 21 26 26 26
24 19 16 16 20 25 23 22 23 23 22 21 21 20 20 20
17 19 19 21 23 23 23 23 24 24 24 24 24 25 25 26
26 26 26 26 27 27 27 28 28 28 28 29 30 30 30 31
30 30 30 30 29 30 31 33 33 33 34 34 34 34 34 34
34 34 35 34 35 35 35 35 35 36 35 36 36 35 36 35
36 36 36 35 35 35 35 34 34 34 33 32 32 32 31 31
31 30 29 29 29 28 27 27 27 26 26 25 25 25 25 24
23 23 22 22 22 21 21 21 21 20 20 20 22 26 26 26
26 19 17 19 21 25 23 23 23 23 22 21 23 20 20 20
17 20 20 22 23 24 23 24 24 25 25 25 26 25 26 26
26 26 27 27 27 27 28 28 28 28 28 29 28 27 27 28
29 30 31 32 33 33 33 33 35 34 33 35 34 34 35 34
34 34 36 35 35 35 35 35 35 36 35 36 36 36 36 35
37 36 36 35 34 34 34 34 34 33 33 32 32 32 31 31
30 30 29 29 29 28 28 27 27 26 26 25 25 25 24 24
23 23 23 22 22 21 21 21 20 19 20 21 23 26 26 26
26 20 18 20 19 25 24 24 22 22 22 21 22 20 21 20
17 20 20 23 23 24 24 24 24 24 25 25 25 26 26 26
27 26 26 27 27 27 27 27 27 28 27 29 29 30 31 31
31 31 32 32 32 33 33 34 35 34 33 33 34 34 34 34
34 34 35 36 35 35 35 35 35 36 35 35 36 36 35 35
36 36 35 36 35 35 34 33 34 33 33 33 32 32 32 32
31 30 29 29 30 28 28 27 27 27 26 26 25 25 25 25
24 23 23 22 22 22 21 21 21 20 21 21 23 26 27 27
26 21 18 22 19 25 24 24 23 23 23 22 23 21 21 21
18 22 20 24 24 24 25 24 25 25 26 26 26 26 26 26
26 26 27 27 27 28 28 28 29 28 29 30 31 30 31 31
31 32 33 33 32 34 33 33 35 34 35 34 34 35 35 34
35 35 35 35 36 35 35 35 36 36 35 36 36 36 37 36
37 36 36 36 35 35 35 34 34 34 33 33 31 32 31 31
31 30 31 29 29 28 28 28 27 27 26 26 26 25 26 24
24 24 23 23 22 22 22 21 21 20 20 21 23 27 27 27
27 21 18 23 19 25 25 24 24 23 23 23 23 22 22 21
19 22 21 25 25 25 26 25 25 25 25 26 25 25 26 26
26 27 27 27 28 29 29 29 29 29 30 30 31 31 31 32
32 33 33 33 34 33 35 34 36 35 34 35 34 35 35 35
35 34 35 35 35 35 35 35 35 36 35 35 36 35 36 35
36 36 36 35 35 34 35 34 34 34 33 33 32 32 32 31
31 30 30 30 29 29 28 28 28 27 27 26 26 26 25 25
25 25 24 23 23 22 22 21 22 21 21 23 25 28 27 27
27 21 18 24 20 26 25 25 24 24 24 24 24 22 23 21
20 23 21 25 25 25 25 26 26 25 26 27 27 26 27 27
27 28 28 28 29 28 29 30 30 30 30 31 31 31 32 33
33 32 33 33 34 34 34 34 36 35 35 35 35 35 35 35
35 35 36 35 35 36 36 36 36 35 36 36 35 36 36 36
37 36 35 36 34 35 35 34 34 33 34 33 32 32 32 32
31 30 30 30 29 28 29 28 28 27 27 26 26 26 25 25
25 24 24 24 23 23 22 22 22 22 22 23 25 28 29 28
28 21 18 26 19 26 26 25 25 25 24 24 24 23 22 22
18 23 20 26 26 26 26 26 28 27 27 27 27 27 28 27
28 28 28 29 29 29 30 30 30 31 30 31 31 32 32 32
33 33 34 34 33 35 34 35 36 34 35 35 36 35 35 35
35 36 35 35 35 35 36 36 36 36 35 36 36 36 36 36
37 36 36 35 35 34 34 34 34 33 33 32 32 33 32 32
31 31 31 30 29 29 28 29 28 28 28 27 26 26 26 25
25 25 24 25 23 23 22 22 22 22 22 22 26 28 28 28
28 22 19 27 19 27 26 25 26 24 25 26 24 24 23 23
20 25 23 27 26 27 27 27 27 26 27 28 28 28 28 28
28 29 29 29 29 30 31 31 30 31 31 31 32 32 32 32
33 34 33 34 34 34 35 34 36 35 35 36 35 36 35 36
35 36 35 36 35 36 36 36 36 37 36 36 37 37 37 37
37 36 36 35 36 35 35 34 34 34 33 34 32 32 32 32
32 30 31 29 29 29 29 29 28 28 28 27 27 27 26 26
25 25 24 24 24 23 23 22 22 22 23 24 26 30 28 29
28 21 20 28 20 26 26 26 26 25 25 26 25 24 24 23
20 25 24 27 27 28 27 27 28 27 28 28 28 28 29 29
29 28 29 30 30 30 30 30 31 31 32 32 33 33 33 33
33 34 34 34 35 35 35 36 36 35 35 35 35 36 36 35
36 36 35 35 36 37 36 37 36 36 36 37 36 36 36 34
37 36 36 35 36 35 34 34 34 34 34 33 33 32 32 32
31 31 31 30 30 30 29 29 28 28 28 27 27 26 26 26
26 25 25 25 24 24 24 23 23 23 23 25 27 29 29 30
29 22 21 28 20 27 26 27 26 26 26 26 25 24 24 24
20 26 24 27 27 28 28 28 29 28 29 28 28 29 29 30
28 29 30 29 31 30 31 31 32 32 32 32 32 32 33 33
34 34 34 34 34 35 35 36 37 36 36 36 37 36 36 36
36 36 36 36 35 36 35 35 36 35 36 36 37 37 37 37
37 37 36 36 35 35 35 35 35 34 34 33 33 33 33 32
32 32 31 30 30 30 29 29 29 28 28 27 27 27 26 26
26 25 25 24 25 24 23 24 23 24 24 24 29 31 31 30
29 23 22 30 20 28 27 27 27 26 26 26 26 25 25 24
20 26 25 28 28 28 28 28 29 28 29 29 29 29 29 29
30 30 31 30 31 32 31 32 31 32 33 33 33 32 33 34
34 35 35 35 35 35 36 35 37 35 35 36 35 35 35 35
34 35 36 36 37 37 37 37 37 36 36 37 36 36 36 35
36 37 36 35 35 35 35 34 34 34 34 33 33 33 32 32
32 31 31 30 30 30 30 30 29 29 29 27 28 27 27 26
26 25 25 25 24 24 25 24 24 23 24 24 29 30 31 30
28 22 23 30 20 28 28 28 27 27 27 25 25 26 25 25
21 27 25 28 29 29 29 28 29 29 29 29 29 28 30 29
30 30 30 31 30 31 32 33 33 33 33 33 33 33 34 34
34 35 34 34 34 34 33 32 34 34 34 34 36 37 36 37
37 34 37 36 36 36 36 37 36 36 36 36 37 36 37 36
37 36 36 36 35 36 35 35 34 35 34 34 34 33 33 33
32 32 32 32 31 30 30 29 29 29 29 28 28 27 27 27
26 27 26 25 26 25 25 24 24 24 24 25 29 31 31 31
29 21 24 31 21 29 29 28 27 27 27 25 26 25 26 25
21 27 26 30 29 29 29 30 30 29 30 30 30 30 30 31
30 31 31 32 32 32 33 32 32 32 33 33 33 33 33 34
35 34 35 35 36 36 36 36 36 36 36 36 36 36 36 36
39 36 36 36 36 36 36 36 37 36 37 37 36 37 37 36
37 37 36 36 36 36 35 35 36 35 35 34 34 34 33 33
32 32 32 31 31 30 30 30 30 29 29 28 27 28 27 26
26 26 27 26 25 25 25 25 24 25 25 26 30 31 32 31
29 22 25 32 21 28 29 29 28 27 28 26 26 26 26 25
21 27 27 29 30 29 30 30 31 30 30 30 31 31 31 32
32 31 32 32 32 31 32 32 32 33 33 33 34 34 35 35
35 36 36 37 36 36 36 36 36 36 37 36 37 37 36 37
38 36 35 36 37 37 37 36 37 37 36 37 36 37 37 36
23 37 37 36 36 36 35 35 35 35 35 34 35 34 34 33
33 32 32 32 31 30 31 30 30 30 29 29 28 28 27 27
26 27 26 26 26 25 25 25 25 25 26 26 30 32 32 32
30 21 26 33 23 30 29 30 29 29 28 27 27 27 26 26
23 27 27 29 30 30 30 30 31 30 31 31 30 31 31 32
31 31 32 33 33 33 33 33 33 34 33 34 34 34 35 36
36 36 36 37 37 36 37 36 37 36 36 37 36 36 37 37
37 37 36 36 36 36 37 38 37 37 38 37 37 37 37 37
22 38 37 36 36 36 36 35 35 35 34 34 33 33 33 33
33 32 32 32 31 31 31 30 30 29 30 29 29 28 28 27
27 27 26 26 26 25 25 25 25 25 26 26 31 32 32 32
29 22 26 34 23 29 30 30 30 29 28 27 29 27 27 26
22 28 27 30 29 30 29 30 29 30 29 30 31 30 30 31
32 32 32 33 32 33 32 34 33 34 34 34 35 34 35 36
36 36 36 36 36 36 37 36 36 36 36 36 36 36 37 36
37 36 37 37 36 36 36 36 36 37 36 36 37 36 36 35
22 36 37 36 37 36 35 34 34 35 35 34 34 34 34 33
33 32 32 32 31 31 31 30 30 29 29 29 28 28 28 28
27 26 27 26 26 26 26 25 26 25 26 27 31 33 32 32
29 22 28 34 23 28 30 30 30 30 31 32 30 29 29 27
23 28 26 30 30 29 30 30 30 30 31 30 31 32 31 32
32 32 32 33 33 33 34 33 33 34 35 35 35 35 35 36
36 36 36 36 37 37 37 37 36 36 36 37 36 37 36 36
38 36 35 37 36 37 36 35 36 36 37 36 36 37 36 36
23 37 37 37 36 35 35 37 38 37 35 35 34 34 33 33
33 32 32 31 31 31 31 30 29 29 29 29 28 28 28 27
27 26 26 26 26 26 25 25 25 26 26 27 31 33 32 32
29 22 28 35 25 28 30 31 31 30 29 31 31 30 28 28
26 28 29 30 30 30 30 30 31 31 31 31 32 31 31 32
32 32 33 33 33 32 33 33 34 34 34 35 35 35 35 36
36 35 36 36 36 36 36 36 36 36 36 36 36 37 36 36
37 37 36 36 37 35 37 36 36 36 37 37 36 37 37 36
26 38 37 36 36 35 35 44 47 44 43 39 36 35 32 32
33 32 32 31 31 31 31 30 30 31 38 36 32 29 29 27
27 27 26 26 26 26 26 26 25 26 26 27 32 32 32 32
28 22 28 35 26 28 30 32 32 32 33 31 28 24 22 21
21 26 32 32 31 30 30 30 30 31 31 31 32 32 32 33
33 33 33 33 32 34 33 35 34 35 35 35 36 35 36 36
36 37 36 36 36 36 36 36 36 36 36 36 36 36 36 36
37 36 37 36 37 35 36 36 36 37 37 37 36 36 37 36
31 40 39 38 37 36 35 45 48 45 44 41 40 38 38 34
33 33 32 32 31 31 31 30 30 35 45 43 39 37 34 31
28 28 27 27 26 26 26 26 26 25 26 27 32 32 31 32
28 22 29 36 26 27 31 34 31 27 26 19 18 26 28 27
28 25 29 25 24 31 31 31 32 31 31 31 32 32 32 33
32 32 33 33 33 34 34 35 35 35 35 36 36 35 35 36
36 36 37 37 37 36 37 36 37 36 36 36 36 36 37 37
37 36 37 37 37 37 36 36 37 37 37 37 37 37 37 36
35 44 41 40 39 37 36 46 48 47 43 43 43 44 46 39
39 37 34 32 30 31 31 31 31 35 42 41 39 39 39 37
31 27 28 28 28 27 26 26 26 27 27 28 33 32 32 32
27 21 30 35 27 26 31 32 29 18 8 7 27 34 37 39
38 33 30 32 30 19 26 31 32 32 32 32 32 33 32 34
33 33 33 34 34 34 34 33 34 35 35 35 36 35 36 36
36 36 37 37 37 37 37 37 37 37 37 36 37 37 37 37
38 37 36 37 37 36 37 37 36 35 34 34 36 35 35 35
36 45 35 38 41 43 43 37 14 28 42 45 48 48 48 39
39 42 43 38 35 33 32 31 31 35 34 38 37 39 39 37
32 27 28 28 27 27 27 27 27 27 28 29 33 33 34 33
27 22 31 36 27 24 32 24 16 5 1 10 18 21 26 29
25 24 25 26 25 18 16 26 32 32 32 32 32 32 33 34
35 34 35 34 35 34 35 35 35 35 36 37 36 36 36 37
36 37 37 37 37 37 38 37 38 37 37 37 37 37 37 36
35 32 34 35 35 36 36 36 37 39 38 38 38 38 37 37
35 44 41 36 33 44 47 35 0 0 9 25 32 38 45 32
2 11 23 34 40 37 40 37 33 34 16 14 18 25 34 38
34 29 28 29 28 28 28 27 27 27 28 28 33 34 34 32
27 23 30 35 29 23 25 13 5 3 7 14 15 17 13 10
15 17 20 17 21 17 14 16 31 32 33 33 33 34 34 34
35 35 35 35 35 35 35 36 36 36 36 36 37 37 37 38
37 37 37 37 37 37 36 36 35 34 35 35 35 36 36 38
38 37 38 37 37 37 34 37 37 39 37 35 36 37 35 36
7 16 29 43 45 48 50 34 0 0 4 11 14 12 26 30
0 0 0 1 7 17 30 38 39 35 17 7 11 8 5 8
33 30 29 29 29 28 28 28 28 28 28 29 34 34 34 30
19 21 15 32 26 23 21 15 19 38 62 75 82 83 71 53
38 19 12 15 11 20 12 15 27 33 34 33 34 34 34 35
35 35 35 34 35 35 36 36 36 37 35 36 36 36 36 36
36 36 37 38 38 38 38 38 38 37 37 37 38 38 38 37
37 37 37 37 37 37 37 38 37 39 37 36 37 36 36 37
1 0 0 2 13 28 41 34 0 0 3 6 11 12 26 29
0 0 0 0 0 0 0 3 20 36 14 1 6 7 3 1
34 29 29 29 29 29 28 28 28 28 29 29 35 35 34 30
19 22 22 30 19 23 29 55 82 95 102 108 116 118 117 115
101 59 18 7 6 8 13 12 22 34 34 34 35 34 35 35
35 34 33 34 35 36 36 36 35 36 36 36 37 36 36 36
37 37 37 38 37 37 37 37 39 37 38 37 38 38 38 38
37 37 37 37 37 37 38 37 37 37 37 37 38 36 37 38
0 0 0 0 0 0 1 23 0 0 0 1 1 4 25 27
2 0 0 0 0 0 0 0 15 36 9 0 1 3 2 2
35 30 30 30 30 29 28 28 28 29 30 31 36 35 35 34
28 24 30 25 24 42 80 102 108 113 114 120 124 127 128 127
123 110 78 29 8 2 9 9 19 33 34 34 33 33 34 34
35 35 35 35 36 36 36 37 36 36 37 36 36 36 37 37
36 37 36 37 37 37 37 37 39 37 37 38 38 37 37 38
37 37 37 37 37 38 38 37 37 38 38 37 36 37 36 37
0 0 0 0 0 0 0 19 0 0 0 0 0 3 25 22
0 0 0 0 0 0 0 0 16 32 1 0 0 1 0 4
37 30 30 30 29 29 29 29 29 29 29 31 36 36 35 35
27 24 27 24 45 83 101 113 117 120 121 128 132 137 137 133
132 127 114 86 35 7 5 9 16 28 34 34 34 34 35 35
34 35 35 35 35 35 36 38 37 36 37 37 37 37 37 37
37 36 37 36 37 36 36 36 38 37 38 38 37 37 38 37
38 37 37 37 38 38 38 37 37 37 37 37 37 37 37 37
0 0 0 0 0 0 0 16 0 0 0 0 0 2 34 23
0 0 0 2 12 2 0 0 16 30 0 0 0 0 2 6
39 31 30 30 30 29 29 29 30 30 31 32 36 36 36 34
27 24 27 41 76 91 102 111 114 117 122 131 137 137 136 134
131 131 129 113 85 34 5 9 15 19 34 35 34 34 34 35
35 35 35 35 36 36 35 38 36 37 36 37 37 37 38 37
37 37 37 37 37 37 37 37 39 37 38 37 37 37 37 37
38 38 37 37 37 38 38 38 37 38 38 37 37 37 37 37
0 0 0 12 6 0 0 14 0 0 0 0 0 2 33 22
0 0 0 5 15 10 5 0 17 28 0 0 0 0 0 6
39 30 30 31 30 30 30 29 30 30 32 32 37 36 36 34
27 24 35 69 87 94 100 108 114 119 123 130 132 133 133 131
129 128 128 125 113 69 22 14 26 12 31 35 35 35 35 35
35 35 35 35 36 36 35 37 36 37 37 36 38 37 37 36
37 38 37 37 37 37 38 37 40 38 38 38 38 38 38 38
38 38 38 38 37 38 38 37 38 37 37 37 37 38 36 37
2 12 4 3 2 0 0 12 0 2 0 0 0 4 35 21
0 0 0 8 15 14 13 4 17 26 0 0 0 0 0 6
39 30 31 30 30 30 29 30 29 30 32 32 36 36 36 34
26 27 62 78 86 93 108 116 123 121 127 128 128 123 119 122
124 124 122 121 119 95 48 24 36 13 22 35 34 35 35 34
35 35 36 35 36 36 35 38 37 36 37 37 37 37 37 37
38 37 37 38 37 37 37 37 39 38 38 37 38 37 37 38
39 38 38 37 38 38 38 37 38 37 38 38 38 38 37 36
6 4 0 3 3 0 1 12 0 0 0 0 0 6 37 20
0 0 0 7 14 13 13 4 19 26 0 0 0 0 0 6
39 30 31 30 31 30 30 30 30 30 32 33 33 24 21 17
17 24 31 35 41 55 86 113 125 142 141 141 130 128 136 138
131 133 131 119 116 112 69 39 40 23 14 33 34 34 34 35
35 35 36 36 35 36 36 37 37 36 36 37 36 37 37 37
37 37 37 37 37 37 37 38 38 38 37 38 37 37 38 37
38 37 38 38 38 38 38 38 38 38 38 38 38 38 38 37
1 0 0 0 0 0 4 21 2 0 2 0 0 18 41 24
1 1 1 0 5 12 13 2 20 34 11 2 0 0 0 6
40 31 31 31 31 30 31 30 30 31 32 34 17 12 20 36
90 52 8 5 7 14 21 30 74 132 147 148 137 148 148 147
146 145 143 136 119 113 104 56 26 33 20 25 34 35 34 35
35 36 36 36 36 37 37 38 36 37 37 37 37 37 38 38
38 38 38 38 37 38 37 38 39 38 37 37 37 38 37 37
37 37 38 38 38 37 39 38 39 39 38 39 38 39 38 38
0 0 0 0 0 0 7 51 45 30 26 16 4 0 44 46
39 30 20 9 1 2 9 1 20 43 44 37 30 21 13 17
40 31 32 31 32 31 31 30 31 32 33 33 11 22 8 38
136 15 0 0 0 0 8 60 76 44 134 139 139 148 136 94
67 45 34 31 34 43 60 58 29 28 30 22 34 36 35 35
36 35 36 36 37 37 38 38 36 38 38 37 39 38 38 38
38 38 38 39 39 38 38 39 38 38 38 38 38 38 38 39
39 39 39 39 39 38 39 39 39 38 36 37 37 37 36 36
0 0 0 0 0 0 10 56 49 43 48 49 48 42 56 32
18 23 30 36 35 27 19 12 27 45 44 41 41 44 47 48
40 30 32 31 31 31 31 30 31 32 33 33 9 17 0 68
82 0 0 0 0 13 103 135 59 8 51 98 127 123 46 21
9 4 4 7 4 4 7 11 11 12 24 31 32 36 36 35
36 36 37 37 37 37 38 38 38 38 38 38 39 39 39 39
39 39 39 39 39 39 39 39 37 38 39 39 39 38 39 39
39 39 40 40 40 40 39 39 40 40 40 40 39 38 39 38
36 24 11 2 0 0 13 55 39 49 52 54 56 46 45 26
13 15 15 15 17 19 26 36 46 39 38 41 42 47 50 50
41 31 32 32 31 31 31 30 31 32 32 34 11 1 1 90
30 0 0 0 3 86 86 10 0 4 17 20 26 22 17 1
0 3 46 105 23 0 0 1 3 11 8 11 22 36 37 37
36 37 37 38 38 38 39 39 38 38 39 39 40 39 40 39
39 39 39 38 39 38 39 38 40 40 40 40 41 40 39 40
39 39 41 40 40 40 39 39 40 39 40 39 39 39 38 38
52 53 51 45 35 23 28 43 37 48 52 54 57 49 40 27
15 16 15 14 13 12 11 10 11 13 18 26 31 37 38 41
39 31 32 32 32 32 31 31 31 33 33 32 9 0 2 82
7 0 0 0 0 4 0 0 0 8 26 59 57 20 5 0
0 44 137 94 10 0 0 0 3 6 23 12 19 35 37 37
38 37 38 38 38 37 37 38 38 38 39 39 40 40 40 40
40 40 40 39 40 40 40 40 40 39 40 39 39 39 40 39
40 40 40 40 40 39 39 40 40 39 39 39 39 39 39 39
52 53 52 51 51 52 54 34 28 42 49 52 55 49 43 30
17 16 14 13 11 11 10 10 9 9 9 10 17 34 30 26
29 32 32 32 32 31 31 31 32 33 33 27 7 0 1 34
0 0 0 0 0 0 0 7 21 13 73 113 115 33 3 0
6 84 53 0 0 0 0 0 1 6 7 12 8 34 38 37
38 38 39 38 38 39 38 39 40 39 39 39 39 39 39 40
40 40 39 40 40 40 40 40 40 39 39 39 39 39 38 39
41 40 40 40 41 40 41 40 40 40 40 40 40 41 40 39
50 52 52 53 53 54 54 19 0 3 11 21 32 36 40 31
17 15 12 9 10 10 11 11 11 11 12 11 22 27 19 31
30 33 32 33 32 32 31 32 32 33 33 22 4 0 0 0
0 0 11 9 0 0 20 31 6 44 116 138 131 59 3 0
0 3 0 0 0 0 0 0 1 6 3 14 2 28 38 38
37 38 38 39 38 38 39 38 39 39 39 40 40 40 41 41
40 41 41 40 39 41 40 40 40 40 39 40 39 39 40 40
39 41 41 41 41 41 42 41 41 41 42 41 41 41 40 42
38 40 41 44 47 52 52 13 0 0 0 0 7 14 33 31
15 13 5 0 1 1 11 15 14 11 15 16 26 30 13 30
35 34 32 27 31 32 32 32 33 34 31 16 1 0 0 0
0 0 35 1 0 0 3 0 21 99 123 130 127 84 6 0
0 0 0 0 0 0 0 0 3 3 6 18 2 13 38 39
38 38 38 38 39 39 39 39 40 40 40 40 41 40 40 41
39 40 41 40 40 40 41 41 40 40 41 40 41 39 40 40
42 41 41 42 41 41 41 41 41 40 39 38 39 41 41 41
23 27 35 36 34 44 47 9 0 0 0 1 0 7 38 29
13 12 7 0 0 0 3 6 5 1 10 12 23 40 42 41
42 41 37 6 21 32 33 32 32 33 29 7 1 0 0 0
0 3 7 1 0 0 0 12 98 145 144 143 125 112 14 17
0 0 3 32 13 0 0 0 6 1 9 24 8 10 34 39
37 38 38 38 38 39 39 39 39 39 40 41 40 40 40 41
40 40 39 40 39 40 39 39 39 38 39 40 38 39 37 40
41 41 38 40 39 42 42 40 38 38 38 38 39 38 37 36
28 26 33 33 33 46 48 5 0 0 0 2 1 0 40 25
14 9 3 0 0 5 0 0 0 0 0 2 19 42 34 27
28 31 37 38 34 32 33 32 33 25 19 5 1 4 0 5
6 10 4 1 0 0 5 39 111 150 150 150 142 130 30 23
0 0 24 12 1 1 1 4 11 6 11 26 6 14 30 39
38 37 38 38 39 39 38 39 39 40 40 40 40 40 40 41
39 41 40 39 39 39 39 39 40 38 38 38 36 36 35 35
33 32 31 29 28 25 25 23 22 21 19 19 18 18 16 16
16 26 35 38 43 48 46 4 0 0 0 0 0 0 44 12
4 0 0 0 3 12 6 1 0 0 0 0 19 43 36 25
29 29 28 32 34 33 33 32 33 13 14 5 0 7 8 6
3 8 7 5 1 7 13 51 106 147 150 150 146 137 59 8
2 0 1 5 12 9 6 12 15 12 19 23 10 24 30 38
39 39 39 40 41 41 40 41 41 41 40 39 37 36 36 35
33 33 40 35 27 27 25 24 23 22 21 20 20 19 19 18
19 18 18 17 17 17 17 18 19 19 20 19 19 20 19 20
0 0 1 7 16 25 37 3 0 0 0 0 0 3 47 8
0 0 0 0 0 8 13 4 0 0 0 0 22 44 35 15
33 35 27 30 34 33 34 33 34 24 20 4 2 33 45 27
23 25 20 18 15 11 30 88 79 136 144 137 141 137 99 15
17 1 2 10 14 12 12 24 30 21 28 28 10 31 24 36
35 34 32 31 30 28 28 26 25 24 23 22 21 21 21 21
21 20 36 35 15 19 21 21 21 22 22 23 23 23 23 23
24 24 24 24 24 25 25 25 25 25 26 26 26 26 26 27
0 0 0 0 0 0 20 2 0 0 0 0 0 7 46 6
0 0 0 0 3 9 19 12 8 0 0 0 23 46 36 12
25 23 23 31 34 34 34 34 34 32 26 4 6 42 77 79
58 34 25 26 38 65 90 97 27 111 128 58 101 142 134 51
24 20 10 10 10 12 19 39 51 38 46 22 11 28 17 22
21 22 22 22 22 23 22 23 23 24 24 24 25 25 26 26
26 25 30 27 19 25 27 28 28 28 29 29 30 29 30 30
30 31 31 31 31 31 31 31 32 32 32 32 31 32 32 32
0 0 1 0 0 0 20 1 0 0 7 1 0 6 45 2
0 0 0 0 16 18 20 15 12 0 0 0 25 46 36 20
22 23 19 31 33 34 34 34 34 32 26 4 13 49 79 85
85 86 83 84 88 94 100 96 37 111 132 98 63 149 142 125
68 48 33 26 25 13 16 55 59 69 93 13 9 28 23 26
27 27 28 29 29 29 29 29 30 30 31 31 32 31 31 32
32 31 36 34 24 30 32 33 33 34 34 34 34 34 34 34
34 34 35 35 36 35 36 36 35 35 36 35 35 35 35 35
0 1 9 2 0 0 18 0 0 7 19 9 0 8 43 0
0 0 0 0 14 18 21 7 5 0 1 2 24 46 37 27
23 15 20 29 32 33 34 33 34 33 26 5 11 59 82 94
96 98 101 104 106 108 110 102 85 127 148 144 69 146 144 141
143 126 93 59 38 35 64 83 98 113 101 21 11 22 29 32
32 33 33 33 34 34 34 33 33 34 35 35 36 36 36 35
34 33 30 28 26 34 35 35 35 35 36 36 36 35 35 35
36 35 36 36 36 37 36 37 37 38 38 37 38 38 38 38
0 8 22 9 2 0 19 0 0 16 18 11 1 9 38 0
0 0 0 0 0 6 14 0 0 0 1 0 22 45 37 27
15 4 7 27 32 33 34 33 33 32 25 5 18 67 86 99
101 112 127 133 124 113 106 88 90 138 149 148 125 142 144 147
148 147 146 141 130 122 122 118 117 112 103 29 10 15 32 35
35 35 35 35 35 35 36 35 36 36 36 36 36 36 36 36
35 30 10 8 23 35 37 37 37 37 36 37 38 37 38 37
37 37 37 38 36 37 37 37 38 37 37 38 36 37 37 36
0 9 22 8 5 0 25 25 19 25 20 17 4 11 35 0
3 0 0 0 0 6 15 0 0 0 0 0 19 45 35 16
8 4 6 25 31 33 32 32 33 30 23 7 27 73 89 100
106 121 138 148 135 103 87 77 104 144 148 145 126 129 137 147
147 147 147 147 146 145 141 130 116 113 104 38 8 12 28 35
35 35 36 36 36 37 36 37 36 36 36 37 37 33 32 27
31 27 9 4 18 35 37 38 37 37 36 37 37 36 37 37
37 37 37 37 37 37 38 37 37 37 37 37 37 37 36 36
0 2 3 1 0 0 28 43 44 49 46 44 42 42 34 0
0 0 0 0 0 5 16 0 0 0 0 0 17 45 30 8
9 0 4 25 31 32 32 33 32 28 26 6 38 75 91 101
109 127 136 119 105 99 85 99 130 147 143 146 132 117 131 147
148 148 147 147 148 147 147 140 121 114 105 49 8 9 28 36
36 36 37 36 38 37 37 38 38 37 38 37 32 3 1 1
18 21 9 5 17 35 37 38 38 38 38 37 37 38 38 38
38 37 38 37 38 37 37 37 38 38 37 37 37 37 36 37
6 1 1 0 0 0 30 44 46 47 46 48 53 56 39 8
7 4 0 0 0 9 15 0 1 1 0 0 14 46 22 5
6 0 15 26 30 33 32 33 33 27 28 5 44 76 91 102
112 124 107 104 105 98 108 118 135 146 141 146 145 129 120 132
147 148 147 148 148 147 146 142 127 117 107 65 12 10 31 37
37 38 37 37 37 38 37 38 38 38 38 38 36 27 27 30
32 25 0 0 19 35 38 38 38 38 38 38 37 38 38 38
38 38 38 37 37 37 37 36 36 38 37 37 36 36 37 37
1 1 0 0 0 0 30 40 43 45 45 49 57 57 48 34
32 30 22 16 14 18 17 6 5 1 0 0 9 44 19 5
0 2 9 26 31 33 33 34 32 28 30 6 62 75 91 104
115 108 106 113 112 111 109 109 121 129 140 144 147 147 133 125
134 147 148 148 147 147 147 144 128 119 110 75 16 9 27 38
37 37 37 37 38 38 39 39 38 38 38 39 38 37 36 36
34 25 1 2 20 35 37 38 38 37 37 38 38 37 38 38
38 38 38 37 37 38 37 37 37 38 38 37 37 37 36 37
0 0 0 0 0 0 36 36 40 40 40 41 40 41 41 38
39 38 36 35 36 34 31 26 22 20 16 16 21 40 22 11
8 12 2 19 31 33 34 34 30 41 82 75 76 74 92 104
109 107 124 123 112 91 95 118 132 138 140 136 133 142 148 136
132 140 148 148 148 148 147 143 125 119 108 81 19 6 28 39
37 37 38 37 38 38 39 39 38 38 38 38 38 37 37 34
34 28 4 1 25 37 38 38 38 39 38 38 38 38 38 38
38 38 39 37 38 38 37 37 37 37 38 38 38 37 38 36
16 10 3 0 0 0 40 37 37 37 38 38 36 32 36 38
40 40 38 37 37 36 37 35 32 29 25 23 27 41 33 25
21 16 10 15 31 33 33 34 29 63 82 102 73 73 92 103
105 123 137 106 76 89 115 124 127 120 127 141 145 126 138 147
142 141 145 148 147 147 147 139 121 115 108 84 32 8 33 38
37 37 37 37 37 38 38 37 38 38 38 38 38 37 37 35
33 28 9 6 29 37 38 38 38 38 38 38 38 38 38 38
38 38 38 36 36 37 37 37 37 38 38 37 37 37 37 36
47 48 41 40 38 29 47 41 38 38 38 38 39 40 42 40
42 44 47 44 39 38 37 37 45 43 39 35 35 44 48 45
43 39 33 27 31 33 33 34 34 80 90 102 72 73 89 100
108 140 132 84 91 103 123 126 126 129 131 143 147 145 121 140
149 147 145 147 148 147 146 136 116 113 109 90 45 10 37 37
38 37 38 38 38 38 39 38 38 38 38 38 38 37 37 35
33 28 25 23 33 37 38 38 38 38 38 38 37 37 38 38
37 37 37 36 38 37 36 37 37 38 38 37 37 37 37 36
59 57 56 56 57 56 56 45 41 42 40 41 44 47 50 42
43 46 54 48 39 35 37 39 49 48 45 42 43 39 35 34
37 39 41 38 32 33 34 34 47 94 99 108 73 71 86 96
111 136 108 92 98 114 131 132 122 124 134 143 148 148 140 116
142 148 147 147 148 147 143 129 113 112 105 99 84 69 61 37
37 38 37 38 37 38 38 38 37 37 38 38 38 38 37 36
33 30 31 31 37 38 38 39 38 38 38 37 37 38 38 38
37 37 38 37 37 37 37 37 37 38 38 38 37 37 37 36
51 54 56 57 58 58 58 38 33 32 34 35 42 49 53 44
45 47 50 45 41 37 31 37 50 48 46 44 44 41 35 25
22 22 23 26 32 34 34 34 63 106 99 109 79 69 85 94
110 114 104 100 109 122 126 117 118 127 131 143 149 148 147 133
115 144 148 148 148 146 142 130 113 111 102 104 125 125 100 49
37 38 38 38 38 37 38 38 38 39 38 39 38 37 37 36
35 33 32 37 37 38 38 38 39 38 39 38 38 38 38 38
39 38 38 37 37 38 37 37 38 38 38 37 38 39 37 37
29 29 30 33 36 41 48 20 3 5 2 4 9 20 47 44
43 30 28 37 38 36 34 31 37 32 35 41 44 43 40 32
29 27 26 29 33 33 33 34 67 113 115 105 84 67 82 95
101 98 98 105 111 110 100 119 137 145 145 139 148 149 147 142
128 135 148 147 146 140 136 125 112 107 97 109 127 120 95 67
38 38 39 38 38 38 38 38 38 39 38 39 37 37 37 37
35 35 35 39 39 39 39 39 40 38 39 39 38 39 38 39
38 38 38 38 38 38 38 38 37 38 38 37 38 38 38 37
38 37 35 33 32 30 34 16 3 0 0 0 0 1 41 44
29 2 2 5 10 13 28 35 23 5 1 4 14 20 34 37
33 34 35 34 35 35 34 33 60 103 131 115 89 69 79 91
95 92 97 104 99 87 111 135 148 149 146 138 141 148 146 144
140 139 148 147 141 139 129 120 110 101 97 117 131 130 120 80
37 38 38 38 37 38 38 38 39 38 39 38 37 37 37 36
35 36 37 37 37 37 37 37 38 39 38 38 38 38 37 38
37 38 38 38 38 37 37 37 37 38 37 31 37 37 37 37
41 41 41 40 40 38 39 15 5 1 0 0 0 12 44 40
9 0 0 0 1 9 32 36 21 0 0 0 3 13 29 30
32 34 38 41 44 42 35 32 55 107 117 119 99 67 78 85
91 85 96 97 90 97 123 141 149 149 143 137 131 142 141 145
142 147 148 147 136 129 123 119 107 100 100 113 127 119 127 100
36 38 37 37 38 37 38 37 37 37 38 38 38 38 37 37
36 37 38 38 38 38 38 38 39 39 38 38 37 37 38 38
38 38 38 38 37 38 37 37 37 37 37 37 38 37 36 36
43 42 41 41 42 43 42 16 5 1 0 0 1 16 44 33
2 0 0 0 0 2 36 36 22 0 0 0 1 11 29 6
3 7 11 14 30 43 35 29 41 94 96 101 105 68 81 92
85 83 95 92 92 110 123 135 148 149 143 143 129 136 144 146
145 147 145 143 138 128 120 115 103 98 109 119 131 126 124 119
37 38 38 38 38 38 38 37 38 39 38 38 38 38 38 38
37 38 39 38 38 38 38 39 39 38 38 37 38 38 38 37
38 38 38 38 37 38 38 38 38 37 37 37 37 37 36 37
14 20 27 33 38 43 45 11 1 0 0 2 6 3 41 25
0 0 0 0 0 1 37 36 18 0 0 0 0 10 29 4
2 10 5 0 17 45 34 29 36 83 107 115 109 63 75 88
79 80 91 90 100 119 130 134 146 149 144 147 137 135 144 147
146 147 141 138 136 128 118 111 100 98 125 132 145 137 122 111
38 37 38 37 37 38 38 38 38 38 38 38 38 38 37 38
38 39 39 38 37 38 39 39 38 37 39 38 38 37 37 37
37 37 38 38 38 37 38 37 38 38 37 37 37 37 37 36
33 29 25 19 7 23 50 20 1 0 0 1 7 1 41 22
0 0 0 0 0 3 38 33 17 0 0 0 0 7 32 5
4 13 9 0 16 45 36 29 37 63 98 112 112 63 69 82
75 78 84 89 104 122 131 135 140 146 146 147 141 141 146 147
143 138 136 140 135 126 117 108 98 104 141 135 139 138 120 95
36 37 37 37 38 37 37 37 38 37 38 37 38 37 37 39
39 39 39 38 38 37 38 38 38 38 37 37 37 37 38 37
38 37 38 37 38 38 37 38 37 37 37 36 36 36 36 35
40 39 39 38 15 19 51 25 6 0 0 4 6 0 40 18
0 0 0 0 0 4 40 33 13 0 0 0 0 2 32 5
3 5 1 0 17 44 34 29 36 59 92 104 101 57 62 73
73 76 78 83 99 115 121 126 128 140 143 136 137 141 140 142
137 135 138 143 135 124 114 107 94 126 146 128 117 122 118 57
37 37 36 37 37 37 37 38 37 37 37 37 37 37 38 39
38 38 38 39 39 38 38 38 39 39 39 38 38 37 38 38
38 38 38 37 37 37 36 38 38 37 37 37 36 35 35 35
40 39 39 38 14 18 51 14 0 0 0 1 6 2 40 16
0 0 0 0 0 2 39 32 18 1 0 0 0 0 32 5
5 9 6 0 18 44 33 30 36 40 55 66 48 27 55 60
68 66 69 75 89 104 107 110 117 126 127 127 133 130 135 133
132 129 140 138 129 119 112 103 99 141 138 130 120 111 89 23
23 22 24 29 34 37 38 38 35 22 23 22 23 22 24 31
38 39 38 38 38 38 38 38 38 38 38 38 37 38 38 38
38 38 37 37 37 37 38 36 37 36 37 37 35 36 34 34
32 35 37 37 16 15 47 7 0 0 0 0 0 1 42 15
0 0 0 0 0 1 39 32 14 0 0 0 0 0 34 6
0 1 1 0 19 43 31 31 35 37 40 41 39 27 50 50
54 55 56 60 69 85 93 95 95 107 117 120 125 120 125 125
123 127 135 139 127 113 107 99 98 130 145 134 120 104 45 10
7 7 7 7 22 38 37 38 35 11 9 9 10 9 10 25
40 39 39 39 38 38 38 38 38 38 38 38 36 37 37 38
38 37 37 38 37 37 37 37 38 37 36 37 35 35 34 33
1 28 36 37 18 13 40 4 0 0 0 0 2 1 44 17
0 0 0 0 0 0 39 33 11 0 0 0 0 0 35 9
0 1 0 0 20 42 30 33 36 37 41 41 40 30 46 50
47 44 49 49 54 61 73 81 73 86 99 106 110 111 113 115
114 123 129 130 118 109 100 91 46 95 141 129 112 86 16 11
6 6 5 5 21 36 37 37 33 11 10 9 11 10 11 27
39 39 39 39 38 39 39 38 38 37 38 38 37 37 37 38
39 37 38 37 37 37 37 37 37 37 37 36 35 34 34 34
1 34 40 37 20 9 40 21 16 10 7 9 15 6 42 28
8 5 5 4 2 3 40 33 20 7 3 1 2 1 36 10
0 0 0 1 23 40 29 33 35 37 41 41 40 35 39 50
48 45 43 52 55 62 74 80 77 73 83 89 96 96 103 107
112 117 121 116 109 103 95 95 41 38 105 109 92 31 11 11
6 6 6 5 19 36 37 37 30 9 10 10 11 9 10 28
39 39 40 39 39 38 39 38 37 37 37 38 38 37 37 37
38 38 38 38 38 37 38 38 38 37 36 37 35 34 34 34
0 34 41 35 20 6 42 42 42 35 37 39 40 43 42 51
52 46 46 46 42 42 49 34 37 41 41 40 40 41 48 14
3 1 0 0 25 37 28 33 35 37 40 40 36 34 37 58
51 55 52 56 60 65 79 84 81 84 86 90 92 93 98 99
103 109 109 104 102 97 84 106 64 3 20 25 17 15 12 11
6 6 5 5 21 37 37 37 29 10 9 9 10 9 10 25
39 40 40 40 38 38 38 38 37 37 38 37 38 38 37 37
38 38 38 38 37 37 38 38 38 37 36 36 35 34 32 32
0 33 42 37 22 4 42 43 37 37 40 39 35 36 36 46
56 52 51 51 54 55 55 37 35 44 45 47 53 57 56 38
33 30 27 25 32 34 28 33 35 37 39 36 35 38 33 66
53 58 57 59 60 65 79 86 87 90 91 96 97 95 93 94
93 97 96 96 94 81 90 111 59 13 20 7 9 13 14 10
6 6 5 5 22 37 36 37 31 11 10 10 11 10 9 24
39 40 39 39 39 38 39 37 38 37 37 37 37 37 37 37
36 38 38 39 38 38 38 36 37 37 36 35 34 33 32 31
0 34 43 36 23 4 43 33 31 31 36 39 37 36 35 34
42 44 46 46 49 50 51 41 29 37 42 46 54 56 56 37
32 33 33 34 35 32 30 30 35 35 38 35 39 37 35 70
54 58 62 58 61 67 80 88 94 92 95 101 99 99 97 93
94 93 91 88 82 80 99 109 31 28 21 6 8 9 9 8
5 6 5 5 23 37 37 37 32 18 18 18 18 18 16 23
36 37 37 36 37 37 37 36 35 37 37 37 37 37 37 37
38 37 38 38 37 37 37 37 37 36 32 32 31 30 30 28
0 33 43 35 26 8 43 22 26 29 29 36 38 37 38 29
23 25 24 25 25 26 29 31 28 30 34 35 33 31 33 34
34 34 34 32 31 33 33 29 32 34 35 38 38 37 40 72
62 56 62 60 61 63 75 84 91 96 100 103 102 105 106 101
96 94 88 87 77 95 104 100 29 36 18 7 7 6 5 5
5 6 5 4 23 36 37 36 31 11 13 13 12 13 14 23
37 38 40 39 39 38 38 37 36 37 37 38 38 37 38 38
38 37 37 37 37 37 37 36 36 35 34 33 32 32 30 29
0 32 42 35 32 27 44 10 1 4 8 11 17 20 35 31
26 27 27 32 31 29 32 34 35 36 37 36 34 30 29 32
34 34 34 34 33 33 32 33 32 32 38 39 38 36 43 74
68 57 59 63 61 65 76 87 95 97 100 105 107 107 107 106
102 98 93 86 88 104 106 91 34 35 18 7 6 2 0 6
6 6 5 5 24 36 37 36 31 10 10 10 10 10 11 23
38 38 38 38 38 37 38 38 38 37 37 38 38 37 37 37
37 37 36 36 36 37 36 36 35 35 34 32 32 31 29 27
0 31 42 34 36 47 48 10 0 0 0 0 1 7 34 34
40 40 37 47 49 38 37 40 40 44 48 47 42 33 32 33
34 33 34 33 33 33 32 32 34 36 39 38 37 37 42 77
72 61 60 64 65 66 74 86 95 99 99 104 105 106 103 105
104 99 94 89 98 107 107 76 33 32 17 6 6 7 10 11
5 6 4 4 24 36 37 36 30 10 9 10 11 10 11 25
38 39 38 38 37 38 37 37 37 37 37 37 37 37 37 36
37 36 37 36 36 36 35 35 34 34 33 32 31 29 28 26
0 29 42 34 36 50 50 13 0 0 0 0 0 6 41 31
43 42 38 53 55 16 11 15 19 25 33 47 44 34 34 32
34 33 33 34 33 32 32 32 34 36 40 38 36 33 44 77
74 66 59 61 67 70 79 89 95 98 102 105 106 108 108 105
103 95 93 93 99 107 105 66 33 32 16 7 5 1 1 6
5 6 4 4 25 35 38 36 30 9 9 10 10 10 9 25
38 38 38 37 38 38 38 38 37 38 37 37 36 36 37 37
38 36 36 36 36 35 34 34 34 33 32 30 30 28 27 25
0 27 42 33 35 46 46 16 0 0 0 0 0 2 42 29
40 32 7 16 39 6 0 0 0 0 6 43 44 35 34 33
34 33 33 33 32 32 33 32 34 35 39 38 32 30 46 78
73 72 66 62 69 70 83 93 98 103 104 106 109 110 108 101
99 98 95 97 102 107 107 72 32 32 16 6 4 0 1 6
5 6 4 3 26 35 37 36 27 9 9 9 9 10 10 26
39 39 38 37 38 37 37 38 37 37 37 37 37 38 37 37
37 37 36 36 35 35 34 34 33 32 31 29 29 28 26 25
0 27 41 33 28 15 14 0 0 0 0 0 0 5 43 30
40 28 0 2 34 6 0 0 0 0 5 40 43 34 34 33
33 33 33 32 32 32 31 32 32 34 39 35 30 18 39 78
76 76 72 65 67 73 87 98 103 105 110 113 109 109 106 100
100 99 98 99 104 109 108 74 32 31 15 6 5 5 5 5
5 6 4 3 26 35 37 36 27 8 9 9 9 9 10 27
37 38 37 37 37 37 37 37 37 37 37 36 37 38 37 37
37 37 35 35 35 34 35 33 33 32 31 29 28 26 25 23
0 25 40 32 28 14 11 0 0 0 0 0 0 7 42 30
41 26 0 3 34 6 0 0 0 0 2 38 43 33 34 34
34 33 33 33 32 32 32 32 33 35 38 32 28 3 30 80
77 78 76 68 68 73 90 104 108 110 109 115 115 111 110 106
103 100 103 105 109 114 108 76 31 31 14 5 5 4 6 5
5 6 3 3 26 34 37 36 26 8 9 9 9 10 10 29
38 38 38 36 37 36 37 37 36 37 37 37 37 36 36 36
36 36 35 35 34 34 33 33 32 31 30 28 28 26 24 22
0 24 41 32 28 17 11 0 0 0 0 0 0 8 41 30
41 23 0 2 32 7 0 0 0 0 0 35 42 33 34 33
33 33 33 32 33 31 32 32 33 34 36 32 28 19 39 82
81 79 82 76 68 74 92 104 110 112 112 114 118 115 113 108
106 104 105 111 114 114 112 81 32 31 14 5 5 5 5 5
4 5 2 3 27 34 37 35 26 7 7 9 9 9 9 28
39 37 37 37 37 36 36 37 36 36 37 37 36 36 37 36
35 35 35 35 33 33 34 33 32 30 29 27 26 24 24 22
0 25 40 32 28 20 10 0 0 0 0 1 0 6 41 30
42 21 0 3 32 7 0 0 0 0 0 35 42 33 33 33
34 32 33 32 31 31 32 31 32 34 36 31 28 24 46 85
84 82 82 76 71 76 90 108 117 118 119 120 121 121 115 113
109 108 112 116 116 117 117 82 33 31 14 5 4 5 4 5
4 5 3 3 28 34 36 36 28 11 12 10 9 8 9 28
37 37 37 37 36 37 37 37 37 36 36 36 37 36 36 36
36 34 34 35 34 33 34 32 31 30 29 28 26 25 22 22
0 26 39 32 29 21 10 0 2 0 0 6 0 6 42 32
43 22 3 4 31 11 2 0 0 1 0 36 42 32 33 33
33 33 32 32 31 32 31 31 32 34 37 31 21 18 44 85
86 85 80 79 74 78 91 111 120 126 127 124 126 123 119 115
114 114 118 114 118 117 116 84 32 32 13 4 4 4 5 4
4 5 4 5 28 35 37 35 36 33 34 29 22 28 26 34
37 37 37 37 37 36 37 36 36 37 36 37 36 36 36 35
36 35 35 34 34 34 33 32 32 31 28 27 26 24 23 21
0 26 40 31 28 23 12 2 3 0 0 11 11 5 43 33
44 23 16 3 30 10 5 3 5 0 0 34 40 32 33 33
32 32 32 31 32 31 31 31 33 33 37 33 27 21 42 84
88 86 84 79 75 80 94 111 123 131 132 128 128 125 120 115
115 115 121 124 126 123 119 81 27 29 13 5 4 4 4 4
4 5 3 4 27 33 34 36 37 36 37 37 36 36 35 36
37 37 37 37 36 37 36 37 35 36 36 35 36 36 36 35
36 35 35 34 34 33 34 32 31 31 29 27 25 23 23 21
0 27 39 31 28 22 22 14 16 11 10 18 20 12 47 35
45 18 25 7 29 4 6 11 8 0 0 34 38 32 32 33
33 32 31 31 32 31 31 30 32 33 36 33 25 27 41 84
89 89 87 80 76 79 92 112 124 128 131 131 130 126 120 115
116 118 129 130 134 132 120 76 2 3 6 6 9 6 4 4
4 4 2 5 30 35 36 37 37 38 38 38 38 38 39 38
38 38 38 38 38 38 38 36 37 36 36 36 37 37 37 37
36 36 36 34 34 34 33 31 31 29 31 29 27 25 22 23
0 27 39 31 28 21 37 44 46 46 45 46 46 48 56 38
46 10 25 14 29 10 11 12 8 3 3 31 35 31 33 32
32 32 32 32 32 31 30 31 31 31 36 33 19 4 29 82
89 93 90 83 78 79 91 109 123 125 129 134 126 126 121 117
117 124 133 138 142 135 121 83 1 0 0 0 7 15 11 9
5 3 6 14 32 35 35 36 36 37 36 36 36 35 37 36
36 37 37 36 36 37 36 37 37 37 37 36 36 36 36 35
36 35 34 34 34 33 34 32 31 30 28 27 26 25 24 23
0 28 38 31 28 21 37 49 50 50 49 50 51 55 61 45
45 5 12 18 31 27 28 27 26 25 24 27 28 32 32 32
32 31 31 32 31 32 31 31 30 29 35 20 2 0 27 80
90 97 97 89 81 81 89 103 118 132 136 136 128 126 120 119
119 128 140 143 143 136 120 91 2 0 0 0 1 13 19 18
7 3 16 23 32 35 37 36 36 37 36 36 36 36 37 36
36 37 37 36 35 36 36 37 37 36 36 37 36 35 36 36
37 35 35 33 34 33 32 32 31 29 28 27 26 23 22 21
0 30 39 30 27 21 24 36 37 38 39 40 42 45 50 45
42 4 3 8 31 25 27 26 26 26 26 26 29 31 32 32
32 32 32 31 32 31 31 30 30 30 28 5 0 0 30 81
89 97 101 96 90 84 90 100 109 131 135 135 129 126 121 119
124 139 145 146 146 136 122 99 17 0 0 0 1 13 19 21
6 4 21 26 33 35 36 36 37 37 36 36 34 36 37 36
36 36 37 36 36 36 37 37 37 37 37 37 36 36 37 36
37 35 34 34 33 34 33 32 31 29 28 26 25 24 23 22
0 30 37 29 27 21 14 11 11 11 12 12 14 17 20 27
40 4 2 5 31 27 32 31 31 31 31 30 30 32 32 33
32 31 31 31 31 31 31 30 30 30 12 2 0 0 34 82
90 101 107 102 97 91 93 101 99 117 129 133 132 125 124 124
132 146 147 148 145 138 124 103 73 11 0 0 0 14 19 21
7 5 24 29 34 35 36 36 36 36 36 35 33 36 36 36
36 36 37 36 35 36 36 37 39 37 37 37 37 36 37 37
37 36 34 34 34 33 34 32 32 29 28 27 25 25 22 21
0 32 36 29 26 22 17 14 13 12 13 13 13 16 19 28
39 3 1 4 32 28 32 32 33 32 32 32 32 32 32 31
32 31 31 31 31 31 31 31 30 25 5 2 0 0 51 81
84 103 114 114 108 97 97 106 109 115 123 132 135 134 130 129
140 149 149 148 146 134 124 106 99 76 8 0 0 17 18 18
8 5 26 29 34 35 36 36 37 37 35 35 32 36 36 35
36 36 36 35 35 35 36 38 40 40 39 39 38 38 37 37
39 36 35 34 34 34 34 33 32 31 29 28 26 24 23 22
0 32 36 27 25 23 22 19 19 16 15 14 14 17 19 30
38 10 8 11 33 27 31 31 31 31 31 31 31 31 31 31
31 31 31 31 30 30 30 29 29 17 5 1 0 13 66 81
84 100 110 118 119 104 99 107 114 120 126 135 138 136 133 137
148 150 149 149 143 134 123 109 105 101 49 1 3 19 17 15
8 6 27 30 33 35 35 36 35 36 36 34 33 34 36 35
35 28 19 21 22 25 42 49 52 52 50 49 48 47 45 44
44 41 40 38 37 37 37 36 34 32 31 29 28 26 24 23
1 35 36 28 25 23 22 20 20 20 20 19 19 19 21 34
41 31 45 48 42 26 30 31 30 31 31 31 30 31 30 31
30 30 31 30 31 30 30 28 26 10 8 2 1 55 74 82
86 99 112 119 124 113 103 111 118 124 128 134 138 138 137 144
149 149 149 148 140 127 125 112 108 111 73 19 16 19 16 14
12 7 28 30 33 34 36 35 35 35 35 34 30 32 36 34
34 12 0 0 0 5 54 58 58 57 58 57 58 58 58 58
57 56 55 54 53 52 51 49 46 44 42 38 35 32 29 28
20 35 34 28 24 23 22 20 20 20 19 20 20 21 20 30
31 26 37 40 35 25 30 31 30 30 30 30 30 30 30 30
30 29 30 30 29 30 29 27 20 7 15 8 18 79 78 83
86 98 112 119 126 118 107 111 121 124 129 137 142 140 139 145
149 150 148 147 140 123 126 117 112 116 67 29 18 19 14 12
15 15 29 31 33 35 34 34 35 35 34 33 29 33 35 34
32 8 0 0 0 10 57 57 58 57 57 58 57 58 58 58
58 57 56 56 56 55 54 54 53 51 50 48 47 45 43 42
27 27 27 27 24 22 22 20 20 19 19 19 20 20 22 26
25 22 21 25 26 27 29 30 29 30 30 29 29 29 29 29
29 29 29 30 29 29 28 24 11 7 15 14 34 87 81 82
87 98 112 120 127 124 110 112 119 128 129 139 145 142 142 148
149 148 147 145 138 131 128 124 118 116 53 28 18 18 15 13
15 14 23 33 34 34 34 34 35 35 34 32 27 33 35 34
32 5 0 0 0 15 57 57 58 57 57 57 57 57 58 58
57 57 57 55 55 55 54 53 52 51 49 48 46 45 43 42
27 27 28 27 23 22 21 21 21 19 19 18 19 20 24 26
25 25 22 25 26 27 28 29 29 29 29 29 29 28 29 29
29 29 29 29 28 28 27 13 7 9 15 17 52 91 88 85
90 100 112 122 124 126 115 113 120 132 133 137 141 142 146 149
150 149 146 144 138 131 130 124 123 104 43 22 20 18 14 12
15 15 19 33 33 34 33 33 34 34 33 33 24 32 35 33
29 3 0 0 0 23 57 57 56 57 56 57 57 56 57 57
57 57 56 56 55 55 54 53 52 50 49 48 46 45 43 42
27 26 27 26 22 21 21 21 21 20 20 19 20 21 25 27
26 25 23 26 26 26 28 28 29 28 28 29 29 28 29 28
28 28 28 28 28 27 14 8 7 11 17 22 79 100 96 87
92 102 114 124 125 131 122 116 118 129 133 137 138 145 149 149
149 149 145 144 140 138 134 126 125 76 34 18 19 16 14 14
14 15 19 29 29 36 34 34 34 34 34 32 22 30 34 33
28 1 0 0 0 32 57 57 57 56 57 56 57 56 57 57
57 56 56 56 55 54 54 53 52 51 49 48 46 45 43 42
19 18 18 20 20 21 21 21 21 21 20 20 20 22 25 26
26 26 25 25 26 27 27 28 28 28 27 28 27 27 27 27
28 27 27 28 26 14 5 7 7 12 18 23 88 116 106 94
96 105 118 127 131 136 132 121 121 126 131 133 139 147 148 149
148 147 144 145 142 138 132 129 108 54 22 18 18 14 13 14
15 16 18 26 31 30 33 34 34 34 34 31 10 18 32 33
26 0 0 0 0 40 57 56 57 56 56 56 56 56 57 56
56 56 56 55 55 55 54 53 52 50 49 48 46 45 43 42
16 18 17 19 20 20 20 20 20 20 20 19 20 22 26 26
27 25 26 25 25 26 27 27 28 27 27 27 27 27 28 28
28 27 28 24 11 5 5 6 7 12 18 25 81 137 104 101
101 110 120 130 134 141 138 130 127 128 132 134 142 148 148 150
149 146 145 145 145 140 136 126 73 40 19 20 18 15 14 13
15 16 18 24 28 29 30 40 34 34 33 30 16 23 32 32
23 0 0 0 0 46 56 55 56 56 56 56 56 56 56 56
56 56 56 55 55 54 54 53 52 51 50 48 46 45 43 42
15 18 18 19 19 20 20 20 20 20 20 19 21 23 27 26
25 26 26 26 25 26 27 27 27 27 27 27 27 27 27 27
27 26 21 11 8 6 6 8 9 13 19 27 80 152 119 102
108 114 124 132 135 145 147 137 135 136 136 137 142 149 149 149
148 145 145 146 147 142 138 96 59 23 21 20 18 15 14 15
15 17 20 24 27 29 42 82 41 32 33 30 24 31 31 31
19 0 0 0 3 51 56 56 55 56 55 56 56 56 56 56
56 56 56 55 55 54 53 53 52 50 50 48 47 45 43 42
15 17 18 19 19 20 20 20 20 20 21 21 22 24 27 26
25 25 26 26 25 25 26 26 27 26 27 26 26 26 26 27
23 14 5 3 8 6 5 7 10 16 21 35 81 153 150 115
114 122 128 142 140 148 150 146 144 141 140 139 143 146 150 150
149 146 147 148 148 146 120 74 47 20 20 18 16 16 15 14
17 18 20 25 24 19 31 69 41 33 32 30 28 32 31 30
15 0 0 0 8 55 55 55 55 54 55 56 56 56 56 56
56 56 55 55 55 54 53 53 52 50 49 48 46 45 43 42
14 19 21 22 23 23 24 24 24 24 24 24 25 27 27 27
25 25 26 26 25 25 26 27 26 27 26 26 26 27 30 23
12 9 1 4 7 6 4 7 9 16 23 34 81 151 152 149
124 128 133 147 144 148 151 150 148 144 143 140 143 147 150 150
149 147 149 149 149 139 94 101 23 21 20 16 16 16 15 17
17 17 19 21 14 11 16 47 42 31 32 33 39 43 30 30
12 0 0 0 15 55 54 55 55 55 55 55 55 56 56 56
56 55 55 55 54 55 54 53 52 51 49 49 47 45 43 42
18 20 23 24 28 27 28 27 27 27 27 27 27 27 28 26
25 25 26 26 26 26 26 26 27 26 26 26 28 24 20 11
13 4 1 6 6 6 4 5 8 15 23 30 84 143 151 151
151 133 137 148 149 149 150 150 144 137 139 139 141 144 149 149
149 148 149 149 148 128 134 48 21 20 18 16 15 15 15 17
18 19 19 22 17 14 16 47 38 28 25 26 34 53 39 30
9 0 0 0 22 55 54 54 54 55 54 54 55 55 55 56
55 55 55 54 55 54 54 53 51 50 49 48 47 45 44 42
19 18 17 18 35 26 26 28 28 27 28 27 28 27 27 26
25 25 25 26 26 25 25 25 26 25 26 28 32 21 15 8
9 0 0 6 6 4 4 3 5 13 20 24 64 140 152 151
150 150 141 149 150 150 150 150 147 139 138 133 135 140 150 149
149 149 150 149 149 145 84 21 22 18 17 15 15 16 17 19
20 19 19 23 17 14 14 52 31 13 10 13 18 28 38 41
20 0 0 0 30 55 54 54 54 54 55 54 55 55 55 55
55 55 55 55 54 54 53 53 52 51 50 48 47 45 44 42
12 11 11 14 36 28 23 24 25 25 27 27 27 27 27 26
25 24 26 26 26 25 26 26 25 26 28 26 26 20 10 11
3 0 0 6 6 5 3 2 3 10 17 22 54 141 152 151
151 151 151 151 151 151 150 150 149 144 143 133 139 138 147 149
149 150 150 150 138 78 25 23 21 16 17 17 17 17 18 19
20 20 18 21 13 12 8 49 39 18 17 13 18 20 26 34
38 34 12 0 38 54 54 54 54 54 55 55 55 55 55 55
55 54 55 55 54 54 53 53 52 51 50 48 47 46 44 43
11 11 10 14 35 28 20 18 20 21 22 23 24 25 26 26
25 25 25 26 26 26 25 25 27 25 26 26 21 14 9 15
3 0 3 7 6 4 4 2 1 7 13 15 29 92 145 152
151 151 151 151 151 151 151 150 150 150 149 144 138 137 146 150
150 150 149 131 65 22 22 20 17 16 16 18 18 19 19 20
19 18 19 23 13 13 8 46 44 17 17 11 13 17 22 25
25 43 52 31 45 52 53 53 53 53 53 54 54 54 54 54
54 55 54 54 54 53 54 52 52 51 50 49 48 47 45 43
10 10 10 13 34 27 19 18 17 18 18 19 19 19 22 23
25 25 25 26 26 26 24 22 47 34 27 27 18 12 25 27
14 7 9 7 6 4 3 3 1 4 5 3 33 59 85 141
151 151 151 151 151 151 151 151 151 151 151 150 148 150 151 151
150 138 114 98 29 22 19 16 14 15 17 18 19 19 19 19
18 19 21 35 25 15 10 52 50 15 14 8 6 11 19 21
23 38 40 45 56 53 53 53 53 53 54 53 53 54 54 54
54 54 54 53 54 53 53 53 52 51 50 49 48 46 45 43
8 8 7 8 31 28 20 17 18 18 17 17 18 17 19 21
25 25 25 25 27 22 22 40 65 42 43 39 22 24 32 26
18 12 8 6 7 5 3 2 1 1 1 0 18 30 41 104
153 151 151 151 151 151 151 151 150 151 151 151 151 151 150 138
76 70 77 66 15 21 18 16 17 18 19 19 20 20 19 19
19 18 23 38 32 33 25 54 55 22 11 9 2 8 18 18
19 31 35 38 52 52 50 53 53 53 53 53 53 54 54 54
54 54 54 54 53 54 53 52 52 51 50 49 48 47 45 44
31 28 16 10 30 28 19 17 17 17 18 17 17 17 18 21
25 26 25 25 18 23 38 41 57 41 45 43 23 24 25 23
14 16 18 7 6 6 3 3 0 1 0 0 7 57 15 53
145 151 151 151 151 151 151 151 151 151 150 150 150 149 127 65
47 68 65 5 0 13 19 20 20 20 21 20 20 19 18 19
17 16 28 40 29 34 28 46 49 32 22 15 8 15 31 25
24 34 34 35 50 46 45 48 53 53 53 53 53 53 53 54
54 53 54 53 53 53 53 52 52 52 50 49 48 46 45 44
28 27 29 28 29 28 19 16 17 17 17 17 17 17 18 21
25 25 26 16 20 43 63 85 90 47 41 35 47 61 65 59
35 34 22 8 5 5 3 3 1 0 0 0 0 28 30 26
100 148 151 151 151 151 151 151 151 151 151 150 149 126 49 33
34 38 28 12 0 0 14 20 19 20 19 20 19 19 19 19
18 17 45 73 38 25 21 42 50 30 30 30 18 14 34 30
43 42 32 33 52 33 35 41 49 52 52 53 53 53 53 53
53 54 53 53 54 53 53 53 52 52 50 49 49 47 45 43
37 38 38 38 32 25 19 17 17 18 22 23 23 20 18 21
25 26 18 25 65 83 71 64 75 70 76 49 45 52 45 42
22 14 16 12 7 6 4 3 0 0 0 1 3 4 15 12
49 102 131 145 151 151 151 150 151 150 150 150 126 49 35 32
34 33 32 30 39 20 18 10 6 5 9 16 18 19 19 19
19 17 32 58 61 66 62 73 82 49 26 28 19 11 27 30
50 56 46 37 50 31 32 38 42 52 51 52 52 52 52 52
52 53 53 53 53 52 51 51 51 50 50 49 48 47 45 44
35 39 41 41 41 36 29 26 28 31 40 43 43 41 35 37
30 29 26 58 84 66 36 40 51 48 64 31 22 26 24 11
5 4 5 10 9 7 4 2 16 2 0 0 4 1 11 9
24 50 120 149 150 151 150 150 150 149 150 132 50 45 34 38
37 41 44 40 61 41 41 39 22 5 0 0 8 17 18 18
18 17 26 33 34 52 49 59 49 51 53 38 22 18 66 48
49 52 51 64 52 35 30 33 36 46 51 51 52 51 52 52
52 52 52 52 52 52 51 51 50 49 49 48 47 46 44 43
39 41 44 45 46 45 45 46 47 47 46 45 45 45 45 42
26 35 42 57 48 41 23 38 45 32 31 20 20 17 21 17
10 5 6 12 13 3 1 7 27 5 1 0 3 2 9 8
13 43 59 146 151 150 150 150 149 149 148 71 38 60 40 38
45 44 44 43 64 38 39 40 27 19 13 7 1 1 7 11
16 21 26 25 14 25 24 40 27 28 51 63 54 27 47 65
62 48 50 73 50 49 33 26 32 36 50 50 51 51 51 51
52 52 52 52 52 51 51 51 50 49 49 48 47 45 44 43
43 43 41 40 40 39 39 40 40 40 40 40 40 39 38 31
25 58 43 36 35 32 20 35 47 26 23 20 18 16 19 18
19 14 13 21 15 11 6 15 38 7 3 0 1 5 3 10
9 22 48 91 152 151 151 149 148 147 121 45 50 55 43 39
43 40 41 48 64 41 38 37 24 19 17 18 17 12 10 11
19 31 32 29 17 18 19 44 22 19 27 27 26 12 25 49
94 80 59 70 46 51 44 31 28 30 45 50 50 51 51 51
51 51 52 51 52 51 50 50 49 49 48 47 46 45 43 42
40 39 38 37 37 37 36 36 35 36 34 33 33 32 30 21
35 53 27 30 36 35 18 34 44 27 23 20 18 17 17 19
18 16 18 24 15 16 11 18 47 8 8 2 0 5 1 10
6 9 41 55 124 152 150 150 149 148 80 45 51 38 43 41
42 41 41 49 62 43 40 35 22 19 20 18 18 18 19 18
25 36 37 32 17 19 21 48 22 16 19 19 13 6 20 35
76 99 109 77 53 49 50 45 31 29 42 50 51 51 51 51
51 51 51 51 51 50 50 49 49 49 48 47 46 44 43 42
34 33 33 32 32 32 32 31 31 31 30 29 29 29 24 21
39 41 26 30 33 33 20 38 39 28 23 19 18 18 16 18
19 16 23 21 19 15 15 23 54 10 12 11 1 5 3 9
7 5 13 50 75 148 152 150 150 137 48 52 56 40 47 40
40 43 43 56 48 42 42 34 24 20 20 20 20 20 19 19
27 39 36 31 18 18 26 48 21 17 19 20 10 7 22 35
50 62 100 89 93 72 51 53 47 30 33 48 51 51 51 51
51 51 51 51 51 50 51 50 49 49 48 46 46 45 43 42
32 32 32 32 31 31 32 31 31 31 31 31 31 30 18 33
28 39 33 31 35 32 16 36 35 31 25 23 18 18 18 19
17 15 23 19 24 17 17 27 59 10 11 17 8 3 8 9
8 6 6 22 56 86 139 151 151 105 44 59 50 40 43 42
40 41 42 61 45 41 44 33 26 21 21 20 21 21 21 21
31 40 39 30 19 20 28 44 18 19 18 20 7 10 24 36
44 51 69 51 72 95 67 48 50 37 35 41 51 51 51 51
52 51 52 51 51 50 50 49 49 48 48 46 45 45 43 41
34 33 33 33 33 33 32 32 31 32 33 32 32 29 18 29
25 29 38 30 36 37 17 33 32 33 27 20 20 21 20 17
17 17 24 19 24 18 15 28 65 13 8 18 17 4 13 18
11 6 5 9 32 59 84 150 151 75 45 58 48 45 42 44
48 43 45 72 44 41 42 31 24 22 20 21 23 21 19 20
33 41 40 30 19 20 35 48 17 20 20 20 4 12 28 39
45 62 47 38 49 71 95 79 49 46 30 37 50 52 51 52
51 51 51 51 51 51 50 50 49 49 48 47 46 44 43 42
35 34 35 35 34 33 32 32 32 31 31 31 31 37 26 16
30 34 38 28 32 32 15 33 30 36 27 18 19 21 20 17
17 16 22 20 23 18 16 27 72 18 5 15 18 7 8 25
21 10 6 9 17 41 71 111 143 84 70 68 47 49 43 41
48 48 43 65 45 45 41 29 24 21 22 21 22 22 20 20
34 38 41 28 22 22 38 52 17 18 19 18 3 13 32 38
43 70 35 32 40 45 64 92 80 50 26 35 42 51 51 50
51 50 50 50 50 49 49 48 48 47 46 45 44 43 41 40
34 34 34 34 34 33 33 33 32 32 31 30 30 32 12 13
28 34 39 35 32 34 13 26 30 35 25 18 18 20 20 17
16 17 20 20 26 17 16 26 67 25 9 29 47 34 12 30
50 55 35 22 19 23 76 52 99 54 76 96 91 86 86 73
60 47 45 62 41 45 41 27 24 23 22 21 22 23 21 21
35 40 39 30 18 20 44 49 16 19 20 14 2 15 36 38
51 55 34 33 39 40 44 58 81 55 25 31 28 49 50 50
50 49 49 49 49 48 48 48 46 45 45 43 42 40 39 38
