P2
128 120
155
34 34 33 33 33 32 31 31 31 30 30 29 29 28 28 28
28 27 27 26 25 25 24 24 24 23 22 22 21 22 21 20
20 20 19 19 19 19 18 17 18 17 17 18 19 22 22 23
23 19 17 11 21 22 19 18 19 19 19 18 17 16 16 15
13 13 13 16 19 19 19 19 19 19 20 20 20 20 21 21
21 21 22 22 22 23 24 23 24 23 24 25 25 25 26 27
27 27 28 28 28 29 29 29 29 29 29 29 31 31 30 30
31 30 31 31 32 31 32 32 31 32 32 32 32 31 31 30
34 34 33 32 33 32 32 31 31 30 30 29 29 29 28 28
27 27 27 26 25 25 24 24 24 23 23 22 22 21 21 21
20 20 20 19 20 19 19 19 18 18 18 18 19 23 24 23
23 19 19 9 17 22 19 19 19 19 19 18 19 16 17 15
13 14 15 18 19 20 20 20 19 20 20 21 21 21 22 22
22 22 22 22 23 23 24 24 25 24 25 25 26 26 27 28
27 28 28 28 29 28 29 29 29 29 30 31 30 30 31 30
32 30 31 32 31 32 31 30 30 30 31 31 32 31 33 34
34 33 33 33 32 32 31 32 31 30 30 30 30 29 29 28
28 27 27 26 25 25 25 24 24 23 23 22 22 21 21 21
21 20 20 19 20 19 19 19 18 18 18 19 20 24 24 23
23 19 13 5 18 23 21 20 20 19 19 18 19 17 17 16
14 15 15 19 20 20 20 20 21 20 21 22 21 22 22 22
23 22 24 22 24 24 24 24 25 25 25 25 26 26 27 28
27 28 28 29 29 29 29 29 30 30 31 30 31 31 31 30
30 29 29 30 30 30 32 32 33 33 31 32 31 33 33 33
33 33 33 32 33 31 32 31 31 31 30 29 29 29 29 28
28 28 27 26 26 26 26 24 24 24 23 23 22 22 22 21
21 20 20 20 19 20 19 18 19 18 19 19 20 24 24 24
24 19 15 14 20 23 21 21 21 20 19 19 19 17 17 18
15 17 16 20 21 20 20 21 21 21 21 21 22 22 23 22
23 23 23 24 24 24 24 25 25 25 25 26 26 27 27 28
28 29 29 29 29 30 29 28 27 29 29 29 29 29 30 31
31 32 32 32 32 32 32 32 31 33 32 32 33 32 33 33
34 33 33 32 33 32 32 31 31 30 30 30 30 29 29 29
28 28 27 26 27 26 25 25 24 24 24 23 23 22 23 22
21 21 20 20 20 20 20 19 19 18 18 19 20 25 24 24
24 19 15 16 19 24 22 22 22 21 20 19 20 19 18 18
16 18 17 20 22 21 21 21 22 21 22 22 23 22 22 22
23 23 23 24 24 25 25 25 25 26 26 26 27 27 28 28
28 28 27 26 27 27 29 30 30 31 31 31 31 31 31 31
31 31 31 32 32 32 32 32 32 33 32 33 33 32 33 32
34 33 33 33 32 32 31 31 31 31 29 29 29 29 29 29
27 27 27 27 26 25 25 25 24 24 23 23 23 23 22 22
22 22 21 20 20 20 20 20 19 19 20 20 21 25 25 25
24 19 15 18 19 23 22 21 21 20 20 20 20 18 18 18
16 18 18 21 21 22 22 22 22 22 22 22 22 23 23 23
24 23 24 25 24 25 25 26 25 26 26 26 25 25 24 25
26 27 28 29 30 30 30 30 32 30 30 31 31 31 31 31
31 31 32 33 31 32 31 32 32 33 32 33 33 33 33 33
34 33 34 32 32 32 32 31 31 31 30 30 30 29 29 29
28 27 27 27 26 25 25 25 25 24 24 24 23 23 22 22
22 22 21 21 21 20 20 20 20 19 19 20 22 25 25 25
24 19 17 19 19 23 22 22 21 21 21 19 20 18 18 18
15 18 18 21 22 21 22 22 22 22 22 23 23 23 23 24
24 24 25 25 24 25 25 25 25 25 25 26 26 28 29 28
28 29 29 29 29 30 30 30 31 31 31 30 32 31 31 31
30 31 32 32 32 32 33 32 32 32 31 33 33 33 33 32
34 33 33 32 32 32 31 31 31 31 30 30 30 28 29 28
28 27 27 27 26 26 26 25 24 25 24 24 23 23 23 22
22 22 21 21 21 20 20 20 20 20 19 20 22 26 26 25
25 20 18 20 19 24 23 23 22 21 21 20 21 19 19 19
15 19 18 21 22 22 22 22 22 23 23 23 23 23 24 23
24 24 24 25 25 25 26 26 26 26 27 28 27 27 28 28
29 29 29 29 29 30 31 30 32 31 31 31 30 32 31 32
31 32 32 32 32 32 32 32 33 33 33 33 33 33 33 33
33 33 33 32 32 32 31 31 31 31 30 29 29 29 29 28
28 28 27 26 26 26 26 26 25 25 25 24 24 23 23 23
23 22 21 22 21 20 20 20 20 19 20 21 22 26 26 26
25 20 17 21 18 24 24 22 22 21 21 21 21 20 19 19
16 20 18 22 22 23 22 23 23 22 23 23 23 23 23 24
24 24 25 25 26 26 26 27 27 27 27 28 28 28 29 29
29 29 30 30 30 30 30 31 32 31 31 31 31 32 31 31
31 30 32 32 32 32 32 32 32 33 32 32 33 32 33 33
34 33 33 33 32 32 31 31 31 30 30 30 29 29 29 29
28 28 27 27 27 27 26 25 25 24 24 24 24 23 23 23
23 22 22 22 22 21 21 20 21 21 21 21 23 26 26 26
25 20 16 23 18 24 23 22 22 22 21 21 21 19 20 19
16 20 19 22 22 22 22 22 23 23 23 24 24 24 24 24
25 25 25 26 25 27 26 27 26 27 27 28 27 28 28 29
30 29 30 30 31 30 31 31 32 32 31 32 32 31 31 31
32 31 32 32 32 33 32 32 32 33 32 32 32 33 32 33
33 33 33 32 32 31 31 31 32 31 30 29 30 29 29 29
28 28 27 28 27 26 26 25 25 25 25 24 24 24 24 23
22 23 23 22 22 22 22 21 20 21 21 22 24 27 27 26
26 20 17 24 17 24 23 24 23 22 21 23 22 20 20 19
16 21 17 22 23 23 23 24 25 23 24 25 24 25 25 24
25 25 26 26 26 27 27 28 27 27 28 28 28 28 29 29
29 29 30 30 30 31 31 31 32 31 32 31 32 31 32 32
32 32 32 33 32 32 33 33 32 32 32 32 33 32 33 33
33 33 32 32 31 31 31 31 31 30 30 29 29 29 29 29
28 28 28 26 26 26 26 26 25 25 25 24 25 24 23 23
23 22 22 22 22 21 21 21 21 20 20 21 23 27 26 26
26 19 18 25 17 25 24 23 23 22 22 23 21 20 20 20
16 21 20 23 23 23 23 24 24 23 24 24 24 24 24 25
25 25 26 26 26 27 27 27 27 27 27 28 29 29 29 28
29 30 30 30 31 31 31 31 32 31 31 31 32 31 31 32
32 32 31 32 32 32 32 32 33 32 32 32 33 33 33 33
33 32 32 32 32 31 31 31 30 30 30 29 29 29 28 28
28 27 28 26 27 26 26 26 25 25 25 24 24 23 24 23
23 23 23 22 22 22 22 22 21 21 21 21 24 27 27 27
26 20 18 25 18 24 23 24 23 22 22 22 22 20 21 19
16 22 21 23 23 23 24 24 25 24 24 24 24 24 25 25
25 25 25 26 26 26 27 28 28 27 28 28 29 29 29 29
29 30 30 30 31 31 31 31 32 31 31 32 31 32 31 31
32 31 31 32 32 33 33 33 33 33 32 33 32 32 31 31
33 33 32 32 32 31 32 31 31 30 30 30 30 29 29 28
29 28 27 27 26 26 26 25 26 25 25 25 24 25 24 24
24 23 23 23 23 22 22 22 21 21 21 22 25 28 27 28
27 21 19 26 17 24 24 24 23 23 23 22 22 20 21 20
17 22 21 23 24 24 24 25 25 24 25 25 25 25 25 26
26 26 26 27 27 28 27 27 28 28 29 28 29 29 29 30
30 30 30 31 31 31 31 32 33 32 31 32 32 32 32 33
32 32 32 32 31 31 32 31 32 31 32 32 32 33 34 33
33 33 33 32 32 31 31 31 31 31 30 30 30 29 29 29
28 28 28 28 27 27 27 26 26 26 26 25 25 25 24 24
24 24 24 23 23 23 23 22 22 22 22 23 26 28 28 28
27 21 19 27 18 25 25 25 24 23 23 22 22 21 21 21
17 23 21 24 24 25 25 25 26 25 26 25 26 25 26 25
26 26 27 28 28 28 28 28 29 29 29 29 30 29 30 30
31 30 31 32 31 31 32 32 33 32 32 31 32 31 31 31
31 31 32 32 33 34 34 33 32 33 33 32 33 33 33 32
34 34 33 32 32 32 31 31 31 31 31 30 30 30 30 29
29 28 28 28 28 27 27 26 27 26 26 26 26 25 25 24
24 24 23 23 24 23 23 22 22 23 23 24 27 28 29 28
27 21 21 29 18 26 26 25 25 24 24 22 23 23 22 22
18 23 22 24 25 25 25 26 26 26 26 26 26 26 26 26
26 28 28 28 28 29 29 29 29 29 29 30 31 30 30 31
31 31 31 31 31 30 31 30 31 31 32 31 32 33 33 33
33 31 33 33 32 33 33 33 33 33 33 33 33 33 33 33
34 34 33 33 33 33 32 32 32 32 31 32 31 31 30 29
30 30 29 29 28 28 28 28 28 27 27 27 26 26 26 26
25 25 25 24 24 24 24 24 24 23 24 25 28 30 30 29
27 21 22 29 19 27 27 26 26 26 25 23 24 23 23 22
18 24 23 26 26 26 27 27 27 26 27 27 27 27 28 27
27 28 28 29 29 30 30 30 30 30 31 30 30 30 30 31
31 32 31 32 33 33 34 33 33 33 33 34 33 33 33 33
35 33 33 34 33 33 34 33 34 34 34 33 34 33 33 33
35 35 34 34 33 33 34 33 32 33 32 32 32 31 31 30
31 30 30 30 29 29 29 28 28 28 27 27 27 27 27 26
26 26 26 25 26 26 25 24 25 25 25 26 29 30 31 30
29 21 25 32 21 28 28 27 26 26 25 24 25 24 24 23
20 25 24 27 28 27 28 28 29 28 29 29 28 29 29 29
29 29 30 30 30 30 31 30 30 30 30 31 32 32 33 33
33 33 34 34 34 35 34 34 34 34 34 35 35 34 34 35
36 34 34 34 34 35 35 34 34 35 35 34 34 35 35 34
21 35 34 35 34 34 34 34 34 33 33 32 32 33 32 32
31 31 31 30 30 30 29 29 29 28 28 28 28 28 27 27
27 26 26 26 26 25 26 25 26 25 26 26 30 32 31 30
30 22 26 33 22 28 28 28 28 27 27 25 26 24 25 24
20 26 26 28 28 28 28 28 29 29 29 29 29 29 29 30
29 30 30 30 31 31 32 31 31 32 32 33 32 32 33 34
34 34 34 35 34 35 35 35 35 35 36 35 35 35 35 35
36 34 34 34 35 35 34 35 35 34 36 35 35 35 35 34
21 35 35 35 34 34 34 33 34 33 33 33 32 33 32 32
32 32 31 31 30 30 30 30 30 29 29 28 28 28 27 27
27 27 26 26 26 26 25 25 25 25 26 27 31 31 32 31
29 22 27 33 23 28 30 28 28 28 27 25 26 25 25 25
21 26 26 28 28 28 28 28 27 27 28 28 28 28 28 29
30 30 30 31 31 31 31 32 31 32 33 32 33 33 33 35
34 34 35 35 34 35 35 34 35 35 35 35 35 35 35 35
36 34 35 35 34 34 35 34 35 35 35 34 35 35 34 34
20 36 35 34 34 34 34 32 32 33 33 33 32 33 32 32
32 31 31 30 30 30 29 29 29 28 29 28 28 28 27 27
27 26 26 26 26 26 26 25 25 26 27 27 31 32 32 32
28 22 26 37 34 36 35 30 28 27 27 27 26 25 26 25
20 26 25 28 28 28 28 28 28 28 29 28 29 29 29 30
30 30 30 31 30 31 31 31 32 32 33 32 34 34 34 35
35 34 35 35 35 35 35 35 34 34 34 35 35 34 34 34
36 34 34 34 34 35 35 34 34 34 35 34 35 35 34 34
22 34 35 35 35 34 33 35 37 35 34 33 33 32 32 31
32 31 31 31 30 29 30 29 29 28 28 28 28 28 28 27
27 26 27 26 26 26 26 25 27 26 26 27 32 31 31 30
22 15 23 31 30 29 30 28 20 19 19 18 18 22 24 25
21 26 28 29 28 28 29 29 29 29 29 29 30 30 30 31
31 31 31 31 31 31 32 32 32 32 33 33 33 33 33 35
34 34 35 34 34 35 35 35 34 35 34 35 35 34 34 34
36 34 34 34 35 34 35 34 34 35 35 35 35 34 35 35
25 35 35 34 34 34 33 42 45 42 41 37 35 33 31 31
31 32 31 31 30 30 30 29 29 30 37 34 31 28 27 27
27 26 26 27 26 26 26 26 26 26 26 28 30 27 25 19
7 8 13 17 17 20 24 27 23 18 22 22 21 17 17 17
14 21 28 29 29 28 29 29 29 29 29 29 30 31 30 31
30 30 32 30 31 31 32 32 32 33 32 33 33 34 33 34
34 34 35 35 35 35 34 35 34 35 34 34 34 35 35 34
35 34 34 34 34 34 34 34 35 34 35 35 35 35 34 35
30 38 37 36 35 34 34 43 45 44 42 39 38 38 37 33
32 32 31 31 31 30 30 30 29 34 43 41 37 35 34 29
27 27 26 27 27 26 26 26 25 28 26 23 16 8 1 6
5 5 8 13 22 27 23 17 16 26 29 26 20 13 13 6
7 13 17 21 28 29 29 29 29 30 29 29 30 31 30 31
31 30 31 31 31 32 32 33 33 33 33 34 34 34 34 36
35 35 35 35 35 34 35 34 35 34 34 34 35 35 34 35
35 35 34 35 35 35 35 34 35 36 34 35 34 35 35 35
32 41 38 38 38 35 34 43 46 44 40 41 41 42 44 37
38 35 33 31 29 30 30 30 30 34 41 39 36 37 38 35
30 27 27 27 26 26 26 25 22 20 14 10 4 8 8 9
7 5 14 21 27 16 22 20 20 17 22 26 22 25 21 12
15 18 12 9 9 19 24 29 29 29 29 30 29 29 31 31
31 31 31 32 32 33 32 32 32 33 34 33 34 34 34 35
35 35 35 35 36 35 34 34 34 35 35 34 34 35 34 35
35 34 34 35 36 34 34 35 33 33 32 32 33 33 33 33
34 42 33 35 39 40 40 35 13 27 39 43 45 45 45 37
37 40 41 37 33 31 30 30 29 33 33 36 36 37 37 36
31 27 26 27 26 25 24 20 14 10 6 8 8 9 16 20
17 15 27 33 20 21 21 20 13 19 23 28 29 27 24 28
28 21 16 18 14 9 8 24 30 30 30 29 30 31 31 31
31 31 32 32 32 32 33 33 34 33 33 35 34 35 35 35
34 34 34 35 35 35 35 35 35 35 35 35 36 35 35 33
32 30 32 32 33 34 33 34 35 36 36 35 36 36 36 35
34 42 39 34 31 41 45 32 0 0 9 24 30 36 43 31
2 11 22 32 38 36 39 35 32 32 16 14 16 24 32 37
32 27 27 26 24 16 8 9 11 12 10 13 19 22 24 28
33 26 28 18 15 19 16 20 20 20 25 24 27 23 30 36
32 32 33 33 20 7 6 11 29 30 31 31 31 32 31 33
32 32 32 32 32 32 34 34 33 34 34 34 35 34 35 35
35 34 34 35 35 35 34 34 33 32 32 33 34 33 35 35
36 36 35 36 34 35 32 34 34 36 35 32 34 34 33 34
5 14 27 39 42 45 47 32 0 0 4 10 13 12 25 28
0 0 0 1 7 16 29 35 36 33 15 5 10 8 5 8
31 28 27 25 21 8 7 9 12 10 12 14 24 28 23 18
23 23 24 29 39 41 46 47 42 40 35 31 26 29 26 26
24 24 31 36 22 7 5 8 20 32 32 31 31 31 31 33
33 33 33 33 33 33 34 33 34 34 33 34 34 33 34 33
34 34 34 35 35 35 35 35 36 35 35 35 35 35 35 35
34 34 34 34 35 34 35 34 34 35 34 34 35 34 34 34
0 0 0 2 12 26 39 31 0 0 2 6 10 11 25 26
0 0 0 0 0 0 0 3 19 33 12 1 6 6 3 1
32 28 25 20 9 7 12 19 16 11 14 20 28 33 32 26
24 34 47 61 75 72 74 73 75 72 75 67 62 60 57 45
37 33 32 39 25 16 11 4 11 32 33 32 31 31 32 32
32 32 31 32 33 33 33 34 34 34 34 34 35 34 34 34
34 34 35 35 34 34 35 34 36 34 34 34 34 35 35 34
34 34 34 34 34 34 35 35 35 35 35 34 35 34 34 35
0 0 0 0 0 0 0 21 0 0 0 1 1 4 23 26
2 0 0 0 0 0 0 0 14 34 9 0 0 3 2 2
32 26 18 9 16 21 29 24 21 26 26 27 29 23 25 31
37 46 65 86 98 101 104 104 102 98 93 102 106 103 103 97
88 70 47 37 40 28 18 8 5 26 31 31 31 30 31 31
31 33 32 33 33 33 33 35 33 33 34 34 34 34 34 34
34 34 33 34 34 34 34 34 35 34 34 35 35 35 35 34
34 34 34 35 34 35 35 34 34 34 35 34 34 34 34 35
0 0 0 0 0 0 0 17 0 0 0 0 0 2 23 20
0 0 0 0 0 0 0 0 16 30 1 0 0 1 0 3
34 18 13 21 23 30 28 24 25 21 23 28 27 24 28 34
42 53 75 108 118 121 121 123 125 123 121 125 128 130 126 122
125 124 101 62 42 41 31 15 3 15 30 31 31 31 32 32
32 32 33 33 33 33 34 35 33 34 33 34 34 34 34 34
34 33 35 34 34 33 33 34 35 34 35 34 34 34 35 34
35 34 34 35 35 34 34 33 34 34 34 34 34 35 34 34
0 0 0 0 0 0 0 15 0 0 0 0 0 2 31 22
0 0 0 2 11 2 0 0 15 29 0 0 0 0 1 6
27 12 17 16 21 19 12 15 19 26 26 23 25 28 26 30
37 54 78 117 128 129 129 131 133 132 133 135 137 137 134 136
134 133 131 109 67 31 33 29 15 8 27 32 31 31 31 31
32 31 32 32 33 33 33 35 33 34 34 33 34 34 34 33
33 33 34 34 34 34 34 34 36 34 34 34 35 34 34 34
34 35 34 34 35 34 35 34 33 34 34 33 34 34 34 34
0 0 0 10 6 0 0 13 0 0 0 0 0 1 30 21
0 0 0 4 14 10 4 0 16 27 0 0 0 0 0 4
20 14 5 12 10 11 13 23 25 24 25 23 33 28 20 32
39 51 72 108 126 130 130 134 133 136 138 141 141 141 139 140
140 138 136 130 114 62 26 28 17 8 25 32 31 32 32 32
33 33 32 33 33 33 33 35 33 33 34 34 34 34 34 34
34 35 34 34 34 34 35 34 36 34 34 35 35 34 34 33
34 34 34 35 34 35 35 34 34 34 35 34 35 34 33 34
1 11 4 2 2 0 0 11 0 2 0 0 0 3 33 19
0 0 0 7 14 12 11 3 16 25 0 0 0 0 0 8
14 2 10 9 5 15 27 24 19 24 29 27 26 26 30 33
37 48 63 96 119 125 131 133 135 138 140 143 142 142 142 142
140 140 139 137 129 102 36 25 17 11 27 32 32 32 32 32
32 32 33 33 33 32 33 34 34 34 34 34 33 34 34 34
34 34 34 34 34 33 34 34 35 35 34 35 34 34 34 34
35 34 34 34 34 34 35 34 34 33 35 34 35 35 34 33
5 4 0 3 2 0 1 11 0 0 0 0 0 6 34 19
0 0 0 6 12 12 12 3 18 25 0 0 0 0 0 7
4 13 15 9 15 20 23 22 22 22 26 29 32 39 38 39
40 47 60 85 105 116 127 136 140 140 142 142 142 142 142 142
142 141 141 139 135 119 75 16 19 15 30 32 31 32 32 32
32 32 33 33 33 33 32 35 35 34 33 34 34 34 34 34
35 34 35 34 34 34 35 35 35 35 34 34 34 33 34 34
35 33 34 35 34 34 35 35 35 35 35 34 35 34 34 33
0 0 0 0 0 0 3 19 2 0 2 0 0 16 39 22
0 1 1 0 5 11 12 1 19 31 10 2 0 0 3 2
7 15 20 19 16 22 19 23 22 24 24 26 28 37 39 33
37 53 56 73 97 113 123 136 141 141 142 142 142 143 142 141
142 141 141 140 137 128 105 33 15 25 31 32 32 32 32 33
33 33 33 33 33 34 34 35 33 34 34 34 34 35 35 34
35 35 34 35 34 35 34 35 36 35 34 34 34 35 34 34
34 34 35 34 35 34 36 35 36 36 35 35 35 35 35 35
0 0 0 0 0 0 6 47 43 28 24 15 4 0 41 44
37 29 20 8 1 2 8 0 19 41 40 35 28 14 3 0
9 14 16 13 18 14 19 22 26 24 25 25 29 32 26 29
37 47 57 77 93 104 120 133 143 142 142 142 141 142 141 143
142 141 141 141 140 132 114 73 13 29 31 32 32 32 33 32
33 32 33 33 34 34 35 35 34 34 34 34 34 35 35 35
34 34 35 35 35 35 35 35 35 35 34 34 35 34 34 35
35 35 36 35 35 35 35 36 35 35 33 33 33 33 32 32
0 0 0 0 0 0 8 52 46 41 45 46 46 39 52 30
16 21 28 33 32 26 18 12 25 42 41 38 37 14 0 1
9 5 9 11 10 12 16 21 22 22 19 23 27 20 25 31
36 48 63 79 93 107 118 132 141 143 143 143 142 142 142 142
142 140 140 140 138 136 120 100 26 28 32 33 32 33 32 33
32 33 34 34 34 34 34 34 34 34 34 34 35 35 35 35
35 35 35 34 35 35 35 35 34 34 35 35 35 35 35 35
35 35 35 36 35 35 35 35 35 35 35 35 36 34 34 34
33 22 11 2 0 0 10 52 37 45 48 50 52 43 43 25
12 13 13 14 15 17 24 33 43 36 34 38 33 5 0 3
3 3 7 12 10 13 15 22 21 18 21 20 22 23 26 27
32 46 60 75 92 106 115 134 142 142 142 142 143 142 142 141
142 141 140 140 138 136 124 109 44 29 32 32 32 32 32 32
34 33 33 33 34 35 35 35 34 34 35 35 35 35 35 34
35 35 35 34 35 35 34 34 36 35 36 35 36 35 35 35
35 35 36 36 36 36 35 34 35 34 35 34 35 35 33 34
47 49 46 42 32 21 25 39 35 44 48 50 53 46 37 25
13 14 14 12 12 11 10 9 10 12 16 23 23 4 0 0
2 6 5 10 16 14 17 20 16 19 20 19 20 21 25 20
28 46 56 73 91 103 119 135 143 143 143 143 142 142 142 142
142 141 139 138 138 135 127 114 68 30 33 32 33 32 33 34
34 34 34 33 34 34 32 34 33 34 34 35 35 35 36 35
35 36 36 35 36 36 35 36 36 35 36 35 35 35 34 35
36 36 36 36 36 35 35 35 35 34 35 35 34 35 34 34
48 49 48 47 47 48 50 31 24 39 44 48 50 46 39 28
15 14 12 11 10 9 9 8 8 8 9 8 12 3 0 0
1 0 0 3 14 10 13 10 15 24 23 24 28 22 25 28
34 45 60 71 83 105 122 140 143 143 143 142 142 142 142 142
141 141 141 137 137 132 130 120 91 33 33 33 33 33 34 33
34 34 34 34 34 34 34 35 35 34 35 34 36 35 35 36
35 35 34 35 35 35 35 35 35 35 35 35 35 35 34 34
36 36 36 36 35 36 36 35 35 36 36 36 36 36 35 35
45 48 48 49 50 49 49 18 0 3 9 18 29 33 37 31
16 13 11 7 9 9 10 9 9 10 11 10 13 1 0 0
0 0 6 12 10 13 12 16 18 24 28 31 36 31 26 31
39 45 46 55 80 108 135 143 143 143 143 142 141 141 142 142
142 142 142 142 138 133 129 124 111 45 34 34 34 33 34 35
34 35 34 34 34 35 35 34 35 34 35 35 36 36 35 37
36 36 36 36 35 35 36 35 35 35 35 36 35 35 35 35
36 36 36 37 37 37 37 37 37 37 37 36 37 36 37 37
34 36 38 40 42 48 49 12 0 0 0 0 5 13 30 29
13 12 4 0 0 1 10 13 13 10 14 14 10 0 0 0
0 2 2 6 10 15 18 16 21 30 36 38 33 29 36 48
47 43 44 67 105 133 136 121 103 82 61 42 47 45 53 85
120 143 143 143 142 139 129 131 118 74 34 34 34 33 34 36
34 34 35 35 36 35 36 35 36 36 36 36 36 36 36 37
35 36 37 36 36 37 36 36 36 36 36 36 37 35 36 35
37 37 37 37 37 37 37 37 36 35 35 34 35 36 36 36
21 24 31 32 31 41 45 8 0 0 0 1 0 7 36 28
12 11 6 0 0 0 2 5 4 1 8 11 5 0 0 0
2 3 5 10 17 18 22 23 24 32 38 38 40 56 60 47
47 30 31 38 35 20 7 3 3 3 3 15 66 46 18 14
15 35 83 133 144 142 132 134 130 101 36 35 34 34 35 36
35 35 36 35 35 36 35 36 36 36 36 37 37 37 37 37
37 37 36 36 35 36 37 35 35 34 35 36 34 35 33 37
37 37 35 36 36 37 38 35 34 34 34 34 35 33 33 32
25 24 29 31 30 41 45 5 0 0 0 1 0 0 37 23
12 7 2 0 0 4 0 0 0 0 0 3 1 0 0 0
5 4 5 11 17 17 24 19 27 29 34 22 21 18 6 2
1 2 1 3 6 7 7 8 10 12 14 16 36 27 6 5
6 7 7 19 87 143 141 139 141 117 44 34 33 32 33 35
35 35 34 36 35 36 36 36 35 36 37 37 36 37 36 37
35 36 36 35 35 36 35 35 35 34 34 35 32 32 31 30
30 28 28 26 24 22 21 20 18 18 16 15 15 13 14 13
15 23 32 35 39 44 42 4 0 0 0 0 0 0 41 12
3 0 0 0 2 11 5 1 0 0 0 1 0 0 0 1
3 5 8 13 14 14 18 24 15 4 0 2 5 5 10 16
25 43 52 56 58 54 53 55 56 56 59 49 47 19 5 7
5 5 1 0 7 66 143 142 143 131 52 32 33 33 33 36
35 35 36 36 38 37 38 37 38 37 36 36 34 33 34 31
30 29 36 32 24 24 22 21 20 19 18 17 16 16 16 16
15 14 14 14 14 14 14 16 16 16 17 16 16 16 16 18
0 0 1 6 13 22 33 3 0 0 0 0 0 2 43 8
0 0 0 0 0 7 12 3 0 0 0 0 0 0 0 4
4 3 4 9 12 14 20 14 0 7 24 41 51 37 53 67
99 130 136 137 131 117 108 105 106 101 93 70 46 11 7 8
4 5 2 0 1 8 98 141 141 115 40 29 32 34 32 31
31 30 29 27 27 25 24 23 21 20 19 19 18 17 18 18
17 17 31 32 12 16 17 17 18 18 18 19 20 19 19 19
20 19 20 21 20 21 22 21 21 21 21 22 21 23 22 23
0 0 0 0 0 0 18 2 0 0 0 0 0 6 44 6
0 0 0 0 3 7 17 10 6 0 0 0 0 0 1 3
3 4 6 7 11 15 15 3 10 38 55 71 58 47 73 89
118 138 143 143 142 128 114 104 102 98 93 73 44 10 6 6
3 4 2 0 0 0 45 136 113 31 7 1 3 9 17 19
19 19 19 19 19 21 20 19 20 21 21 22 22 22 22 23
23 22 26 24 16 21 23 24 24 25 25 25 25 26 25 26
26 27 27 26 28 27 28 27 27 28 27 27 27 27 27 27
0 0 0 0 0 0 17 1 0 0 6 0 0 5 42 2
0 0 0 0 14 16 17 13 10 0 0 1 0 0 1 2
5 11 5 10 20 25 15 4 33 46 74 65 70 88 104 121
131 139 143 144 142 126 111 105 99 89 82 62 39 3 2 2
1 1 1 0 0 0 21 87 44 3 1 2 3 0 4 21
24 24 25 26 26 26 27 25 27 27 27 28 28 28 28 29
29 27 33 31 20 26 29 29 30 30 30 30 30 30 31 30
30 30 31 31 31 32 31 32 31 31 32 31 32 30 31 30
0 0 8 2 0 0 16 0 0 6 18 7 0 7 40 0
0 0 0 0 12 17 19 5 5 0 1 3 0 0 0 6
9 9 17 85 132 135 94 32 86 104 108 110 118 127 131 132
134 139 144 144 141 122 112 103 92 77 59 47 31 6 4 0
0 0 0 0 0 6 37 52 3 0 0 0 2 3 0 20
30 31 31 30 31 32 31 31 31 32 31 32 32 32 32 32
31 29 27 25 23 30 31 31 32 32 32 32 33 32 33 32
32 32 33 33 33 34 34 33 34 35 34 35 34 35 34 34
0 7 20 8 2 0 17 0 0 15 18 11 1 10 36 0
0 0 0 0 0 5 13 0 0 0 2 3 0 0 3 4
6 14 101 125 111 128 145 136 135 142 125 116 122 125 130 128
134 140 142 144 140 124 114 102 85 70 72 59 22 7 4 0
0 0 0 0 0 11 37 39 4 0 0 0 0 4 0 24
33 32 33 33 33 34 33 33 33 33 34 34 34 34 33 34
32 27 7 6 21 33 34 34 34 35 35 34 35 35 35 35
35 34 34 34 33 34 34 35 35 35 35 35 33 35 34 34
0 9 21 8 5 0 25 25 18 24 19 18 4 12 32 0
3 0 0 0 0 6 13 0 0 0 0 6 0 0 4 4
9 65 138 135 139 142 124 139 145 145 136 118 120 120 121 128
138 141 143 143 141 126 113 99 85 84 89 63 14 5 0 0
0 0 0 0 2 27 68 132 55 0 0 0 0 5 4 30
34 34 34 35 35 35 35 35 35 35 35 35 35 32 29 26
30 25 8 3 17 32 35 36 35 34 34 34 35 35 34 34
34 34 35 34 34 34 35 34 35 36 35 35 35 35 34 34
0 2 2 1 0 0 29 41 43 47 44 43 41 41 32 0
0 0 0 0 0 5 15 0 0 0 0 7 0 0 3 7
9 114 144 142 137 145 133 108 144 145 144 123 111 112 118 126
138 144 144 144 143 129 113 99 91 87 92 68 10 5 0 0
0 0 0 2 21 34 104 140 120 22 0 0 0 3 9 34
34 35 35 35 35 35 35 36 36 35 36 36 30 2 1 0
17 19 9 4 16 33 35 36 35 35 35 35 35 35 36 35
36 35 35 35 35 35 35 35 35 35 35 35 34 35 34 34
6 2 1 0 0 0 30 43 44 45 44 45 51 53 37 7
6 4 0 0 0 10 14 0 2 1 0 7 2 1 8 3
17 136 146 132 135 145 145 125 138 144 144 130 109 109 116 129
140 143 142 142 142 136 118 105 95 89 90 72 9 5 0 0
0 0 4 39 30 51 134 139 139 89 1 0 0 2 12 34
35 35 35 35 36 36 36 36 36 35 35 35 34 24 25 28
30 23 0 0 17 33 35 35 36 35 35 35 35 35 35 35
35 35 35 34 35 34 34 34 34 35 34 34 34 33 34 34
0 1 0 0 0 0 29 38 41 43 42 47 55 55 46 32
32 29 21 15 13 16 16 6 4 1 0 4 3 3 5 0
28 144 145 121 134 145 145 130 117 143 143 132 109 105 113 125
140 142 142 143 142 141 129 110 102 95 90 84 17 3 1 0
0 14 43 64 34 94 141 138 138 130 28 0 0 2 22 35
34 35 35 34 35 36 36 36 35 36 36 36 35 35 34 33
31 23 1 1 18 32 34 34 36 34 35 35 35 34 35 35
35 35 35 34 34 34 34 34 34 34 35 34 34 33 33 34
0 0 0 0 0 0 35 35 38 38 38 39 38 39 39 35
36 36 34 33 34 32 28 24 20 19 16 15 6 3 0 1
20 140 141 114 139 146 141 92 137 138 142 130 111 102 112 124
139 141 141 143 143 143 140 128 109 102 96 91 52 5 1 0
1 40 47 55 51 136 142 141 140 140 77 0 0 3 24 35
35 34 35 35 36 36 36 35 35 36 35 35 35 35 33 32
31 26 4 0 22 33 35 35 35 35 35 35 34 35 35 34
35 34 35 34 34 34 34 34 34 34 34 34 34 34 34 33
15 9 3 1 0 0 38 36 35 36 36 36 35 31 34 37
37 38 36 35 35 35 35 33 30 26 23 22 13 5 0 2
7 117 137 108 143 145 144 136 132 125 144 135 111 103 107 118
131 138 138 140 141 142 143 142 134 117 104 97 87 40 8 1
5 53 44 34 108 143 142 136 133 139 123 8 0 5 31 35
35 35 35 35 34 36 36 35 36 35 35 35 35 35 34 32
31 26 9 5 27 34 35 35 35 35 35 34 34 35 34 35
35 34 35 34 34 35 34 35 35 36 34 35 34 34 34 33
45 46 38 37 36 27 44 39 36 36 36 36 37 38 39 38
38 42 45 41 37 35 36 34 41 41 37 33 25 10 0 5
3 68 134 101 140 145 145 144 127 115 145 138 114 102 106 111
127 136 138 137 140 142 143 142 143 142 134 115 98 87 60 29
16 30 54 107 140 141 139 124 122 130 130 49 0 11 33 34
34 35 34 34 34 34 36 35 35 35 35 35 34 34 34 31
30 25 22 21 29 33 34 35 35 34 34 33 34 34 34 34
34 34 34 33 34 33 33 34 34 34 34 34 34 33 33 32
55 54 53 53 53 53 53 42 39 39 39 39 41 44 47 40
41 43 51 44 37 33 35 37 47 45 43 40 40 24 2 4
4 20 114 101 137 144 145 143 119 122 145 142 120 101 105 112
123 135 137 134 137 141 142 142 143 143 143 143 141 135 129 123
117 128 138 141 133 129 122 116 126 138 139 111 16 12 34 34
35 35 35 34 35 34 35 35 35 34 35 34 34 34 34 32
30 27 27 29 33 35 35 35 35 34 35 34 33 34 34 35
34 34 34 34 34 34 34 33 33 34 33 33 33 32 32 32
48 50 52 54 55 54 54 35 31 30 32 33 38 46 51 41
42 43 47 42 38 35 29 34 47 45 42 40 41 36 14 3
6 11 57 109 124 141 143 140 116 125 144 144 125 102 105 112
120 129 138 138 140 141 144 144 143 144 143 143 143 142 143 142
142 142 142 134 112 123 131 133 139 141 142 135 78 17 35 34
34 35 34 34 34 35 34 35 35 35 35 35 34 33 33 33
31 29 29 33 34 34 34 35 35 35 35 34 35 34 34 34
35 34 34 34 34 34 33 33 33 33 34 32 33 33 32 31
28 28 29 31 34 38 44 20 2 4 2 4 8 19 44 43
40 28 26 35 35 34 33 29 36 31 33 40 42 40 33 11
7 11 19 91 107 141 143 143 128 120 132 145 129 103 107 112
118 127 134 137 141 143 144 144 144 143 144 143 143 143 143 144
143 142 142 120 118 136 141 141 140 138 139 138 114 33 35 35
35 35 36 36 35 35 35 36 35 35 35 35 34 35 34 33
32 32 32 35 36 35 35 36 35 35 35 35 35 35 35 36
35 35 35 34 35 35 35 33 33 33 33 32 34 32 32 32
37 35 33 31 29 28 31 15 2 0 0 0 0 1 38 42
28 2 2 5 10 11 27 34 22 4 1 4 13 20 32 22
6 10 11 40 118 118 144 142 143 116 125 145 126 99 104 110
116 121 126 136 140 143 144 144 144 144 143 144 144 144 144 143
142 143 141 105 120 133 119 92 76 107 135 126 87 33 35 35
35 35 35 34 35 35 35 35 36 36 36 35 35 34 34 34
32 33 33 34 33 35 34 34 35 35 35 35 35 35 35 35
34 35 35 35 34 34 33 33 32 33 32 26 31 31 30 30
39 40 38 38 38 37 37 14 5 1 0 0 0 12 41 38
9 0 0 0 1 8 31 34 20 0 0 0 4 12 28 23
8 9 11 12 73 139 145 139 145 145 146 144 126 98 99 107
113 119 123 131 137 141 144 143 144 144 144 144 144 144 145 144
143 142 143 123 107 122 119 126 102 99 107 89 39 35 36 35
36 35 34 35 35 35 36 34 34 35 35 35 35 35 34 34
33 35 35 35 35 34 35 35 35 35 35 35 34 34 35 35
34 35 35 34 34 33 33 32 33 32 31 31 31 30 29 29
41 41 40 39 40 40 41 16 5 1 0 0 1 14 42 32
1 0 0 0 0 3 35 35 20 0 0 0 1 12 27 7
8 8 11 8 23 89 135 143 146 146 146 145 123 99 98 106
111 116 120 129 136 132 141 144 144 145 144 144 144 144 144 144
143 143 142 142 135 122 131 131 95 67 49 39 37 37 37 35
35 35 35 35 35 35 35 35 36 36 36 36 35 35 35 35
35 36 37 35 35 36 36 36 36 35 36 35 35 35 35 34
35 35 35 34 34 33 33 33 32 32 32 30 31 30 29 29
14 19 26 31 36 42 43 12 1 0 0 2 6 3 39 25
0 0 0 0 0 1 35 34 18 0 0 0 0 9 28 5
4 10 11 9 13 37 83 113 140 146 145 137 115 95 93 105
109 114 118 126 132 132 139 144 145 144 144 144 144 144 144 143
143 141 140 140 131 128 129 123 95 39 36 36 37 37 36 35
35 35 35 34 35 35 36 35 35 35 35 35 35 35 34 36
36 36 36 35 35 36 36 35 35 35 36 36 35 35 35 35
35 35 34 34 34 33 32 32 32 30 30 29 29 28 29 28
32 27 24 18 6 22 47 18 1 0 0 2 7 1 39 20
0 0 0 0 0 3 37 32 15 0 0 0 0 7 29 4
4 12 12 11 9 19 60 88 96 102 87 77 108 90 89 99
104 113 115 123 130 129 136 141 145 144 144 144 144 144 144 143
143 138 135 134 125 121 119 110 88 36 36 36 35 36 35 35
34 34 34 34 35 35 35 34 35 34 35 34 35 34 35 36
35 35 36 36 35 35 36 35 35 35 34 35 35 34 35 34
34 34 33 34 33 32 32 31 30 29 29 28 27 27 27 26
38 37 36 35 14 18 48 24 6 0 0 4 6 0 38 17
0 0 0 0 0 4 38 30 12 0 0 0 0 1 29 4
3 7 12 11 8 15 50 84 105 102 98 99 100 85 82 91
100 110 116 124 126 129 129 134 142 143 144 144 144 145 144 139
135 134 141 139 140 139 118 116 83 35 35 35 35 35 35 34
34 34 33 34 34 34 34 35 34 34 34 34 34 34 35 35
35 36 36 35 36 35 35 36 35 35 35 35 35 34 34 33
35 33 33 32 32 31 31 31 30 29 28 28 27 26 26 26
37 36 36 35 14 17 48 13 0 0 0 1 5 2 39 15
0 0 0 0 0 1 37 31 17 1 0 0 0 1 31 5
5 10 9 10 7 11 33 78 100 106 103 100 95 83 81 81
99 108 116 120 127 128 127 133 138 142 143 144 145 144 139 116
116 130 130 134 134 133 124 124 77 35 31 23 23 22 22 20
20 20 22 26 31 34 35 34 32 19 21 19 20 19 22 29
35 35 35 35 35 35 35 35 35 35 35 34 34 34 34 34
34 33 32 32 32 31 31 29 29 28 29 27 26 25 25 24
30 33 35 35 15 15 44 6 0 0 0 0 0 2 41 15
0 0 0 0 0 1 37 31 13 0 0 0 0 0 32 6
0 2 6 8 7 8 22 69 92 106 101 98 97 83 79 81
91 103 114 119 125 124 129 133 137 134 141 144 144 143 133 115
110 106 113 120 122 117 112 103 75 35 22 5 6 11 10 10
5 5 4 5 20 34 34 34 31 9 8 7 8 8 8 21
36 36 35 35 36 35 35 34 35 34 34 34 33 33 33 33
34 33 32 33 30 30 30 30 29 27 27 27 25 25 23 23
1 26 34 35 17 12 38 4 0 0 0 0 2 1 41 17
0 0 0 0 0 1 37 31 11 0 0 0 0 0 33 9
0 1 2 7 8 6 8 58 90 103 101 99 92 86 77 75
82 99 109 118 123 125 122 126 132 135 139 139 141 139 128 141
144 142 140 141 140 133 114 85 68 35 21 5 6 11 9 8
4 4 3 3 17 33 34 34 29 9 7 7 9 7 8 24
36 36 36 35 35 35 35 35 35 34 34 34 34 33 33 33
34 33 32 31 30 29 30 28 27 27 26 25 23 23 23 22
0 32 38 34 18 8 37 21 14 9 7 9 15 6 41 28
8 5 5 4 1 3 37 31 19 7 3 1 2 1 34 10
0 0 0 5 6 4 6 57 89 101 103 98 93 87 75 73
80 90 100 111 114 119 124 128 129 127 135 138 140 136 140 143
144 144 144 143 143 131 115 101 72 34 20 5 7 12 9 9
4 4 3 3 16 33 34 34 27 8 8 8 8 7 8 25
36 36 36 36 36 36 35 34 34 34 34 34 33 33 33 32
33 32 31 31 31 29 28 28 27 26 24 24 23 21 22 21
0 32 39 34 20 5 39 40 40 33 35 37 38 41 40 48
49 44 44 43 41 39 47 33 35 39 39 37 38 38 45 13
3 1 0 1 16 10 8 54 87 101 104 100 96 85 77 72
74 80 93 102 109 112 118 123 133 126 127 138 139 139 142 144
143 142 142 140 133 117 97 95 69 33 19 5 7 11 10 9
4 4 3 3 19 34 34 34 27 8 7 8 8 7 8 23
35 36 36 36 35 35 34 34 35 34 34 34 33 33 33 32
32 31 31 31 30 28 29 27 26 25 25 24 23 22 21 20
0 32 39 35 21 4 40 41 35 36 38 38 34 34 35 44
53 49 48 47 51 52 51 35 33 40 43 45 50 53 52 36
31 28 26 24 30 20 9 57 89 99 108 105 102 94 81 73
69 74 86 95 102 106 116 123 131 136 138 142 140 141 140 142
141 140 136 134 120 106 94 93 54 32 18 5 6 10 10 8
4 4 4 3 20 33 33 34 28 9 7 8 9 8 7 21
36 36 36 36 35 35 35 34 33 33 34 33 33 32 32 31
31 32 32 31 29 28 28 26 25 24 23 22 22 20 19 19
0 32 40 33 21 3 40 32 30 29 34 37 36 34 33 32
40 42 43 44 46 47 49 38 28 35 40 44 50 54 53 36
31 31 31 32 33 26 3 42 90 103 112 111 109 99 90 77
73 68 76 80 89 97 110 119 131 139 141 139 139 138 141 141
138 138 138 136 121 96 88 84 37 33 17 5 6 7 7 6
5 5 3 3 20 34 34 34 29 17 16 15 15 16 14 21
33 33 34 33 34 34 33 33 32 34 33 33 33 32 32 32
32 31 31 30 29 27 27 26 25 24 20 20 19 19 17 17
0 32 41 33 24 7 41 21 25 27 28 34 36 35 37 28
22 24 24 24 24 25 27 30 26 29 32 34 32 29 31 32
32 32 32 31 30 30 11 34 89 104 115 118 118 110 98 87
79 71 74 77 82 87 102 115 126 135 134 133 133 135 138 139
135 132 140 140 137 120 94 61 34 34 17 5 5 4 3 4
4 5 3 3 20 33 34 34 29 9 10 10 10 12 13 20
33 36 36 36 35 35 35 34 33 33 34 34 33 33 33 33
33 31 30 29 28 28 26 25 24 23 21 21 20 19 19 18
0 30 40 33 30 26 42 10 1 4 8 11 16 19 33 30
26 25 27 30 29 28 30 33 33 34 36 35 34 29 28 31
33 32 32 33 33 31 28 35 90 103 116 121 123 117 110 96
84 80 78 79 80 80 91 99 110 125 129 130 126 134 135 135
135 135 133 134 130 127 98 43 34 32 16 5 5 1 0 6
5 6 4 3 22 33 35 34 29 9 9 9 9 8 9 21
35 36 36 35 35 35 35 35 34 34 33 34 34 32 33 32
32 30 29 28 27 26 25 23 23 22 21 20 20 19 18 18
0 29 41 33 35 45 45 9 0 0 0 0 2 8 33 32
39 39 35 45 46 36 35 38 39 41 46 45 39 32 30 31
32 32 33 32 32 32 31 34 89 101 117 122 128 125 118 107
95 85 82 81 78 75 80 87 92 114 118 117 120 122 130 135
136 131 125 128 131 127 100 38 34 30 15 6 6 6 9 10
5 6 3 3 23 34 35 34 28 9 9 9 9 9 8 23
36 36 36 35 35 35 35 35 35 34 34 33 33 31 32 31
31 29 29 28 27 26 24 23 22 21 21 20 18 19 18 17
0 29 40 33 34 47 48 12 0 0 0 0 0 6 39 31
41 41 37 51 53 15 11 14 18 24 31 45 42 33 32 31
32 32 32 32 32 32 32 37 87 99 115 124 126 131 120 113
103 93 85 86 83 80 73 74 84 93 102 108 114 120 126 131
133 129 127 130 123 120 98 39 33 30 15 5 5 1 1 5
6 6 4 3 23 34 35 34 28 8 8 9 8 9 9 23
36 35 36 35 35 35 35 35 35 34 34 33 33 33 32 31
31 30 29 28 26 25 23 22 21 20 21 19 19 18 17 17
0 27 40 33 34 44 45 15 0 0 0 0 0 3 41 29
38 30 7 16 39 6 0 0 0 0 7 41 43 33 33 32
33 33 33 33 32 32 32 41 86 98 113 126 125 127 123 119
110 100 91 92 92 90 84 73 73 71 76 89 99 110 117 119
126 129 125 119 111 114 88 38 32 30 15 6 5 0 0 5
5 6 3 3 25 33 35 34 26 8 8 8 9 8 9 23
36 36 35 35 36 35 35 36 35 34 33 34 33 33 32 32
31 29 28 26 26 24 23 22 20 21 21 19 19 18 18 17
0 27 40 32 27 15 13 0 0 0 0 0 0 6 42 29
39 27 0 3 33 5 0 0 0 0 5 39 42 33 33 33
34 33 32 32 32 31 32 46 87 96 113 125 126 128 126 120
112 103 93 92 95 94 93 85 69 59 58 69 79 92 104 112
121 120 118 113 108 104 75 34 32 30 14 6 5 4 5 6
5 6 4 4 25 33 35 34 25 7 8 8 9 8 9 26
36 35 35 35 35 35 35 35 34 34 33 32 33 33 32 32
31 30 28 26 26 24 22 21 21 21 20 18 19 18 17 17
0 25 39 31 27 14 10 0 0 0 0 0 0 8 41 28
40 25 0 3 33 6 0 0 0 0 3 37 41 32 33 33
32 32 32 32 31 32 32 53 86 96 113 117 127 129 122 119
112 105 98 95 94 97 96 86 78 74 67 63 63 68 82 95
105 105 109 103 100 90 56 33 31 29 14 5 5 4 5 4
4 5 3 4 25 32 35 34 25 7 8 8 8 8 9 27
35 35 35 34 35 34 34 35 34 33 33 32 32 31 30 30
29 28 27 25 24 23 22 20 20 19 19 18 18 17 16 16
0 23 38 30 27 16 10 0 0 0 0 0 0 9 40 29
39 22 0 2 31 7 0 0 0 0 0 34 40 31 32 32
32 32 31 31 31 31 31 60 87 94 110 120 125 130 124 119
115 110 99 95 97 96 94 92 86 79 75 70 60 56 52 60
75 81 78 76 81 67 37 33 31 29 13 4 5 4 4 4
3 5 2 3 25 31 34 33 23 6 6 7 7 6 7 26
35 34 33 34 34 34 34 34 32 32 33 32 31 31 30 28
28 26 26 24 23 22 21 20 19 18 18 17 17 15 16 16
0 24 38 30 26 18 10 0 0 0 0 1 0 6 39 29
40 19 0 3 30 6 0 0 0 0 0 33 39 31 31 30
31 31 30 30 30 30 32 68 88 93 108 116 124 124 124 122
118 112 105 100 100 98 102 97 91 84 76 70 60 51 42 35
31 32 37 49 51 39 34 33 31 29 12 3 3 2 2 2
2 3 1 3 25 32 33 32 25 9 10 8 7 6 7 26
34 34 33 33 33 33 33 33 32 32 31 31 31 30 29 28
27 25 25 24 22 20 19 19 18 18 17 15 16 15 14 15
0 23 37 29 26 18 9 0 1 0 0 5 0 5 40 29
40 21 3 3 28 10 1 0 0 0 0 31 38 30 30 30
30 30 29 29 29 29 33 73 88 93 104 116 122 126 124 122
116 113 109 108 104 102 109 105 103 95 84 69 55 43 35 29
28 24 21 26 30 32 31 31 30 27 11 2 3 2 2 1
1 2 1 2 24 30 33 31 31 29 30 25 17 25 22 29
33 33 33 32 32 32 32 32 31 30 30 31 30 29 28 27
26 25 23 23 22 20 19 17 17 17 16 16 15 14 15 15
0 22 37 29 26 20 10 1 2 0 0 9 10 4 40 30
40 20 14 3 27 9 4 2 4 0 0 31 36 29 30 30
30 29 29 26 21 16 33 78 88 94 101 115 121 126 126 123
122 119 116 112 109 113 117 114 111 106 93 74 55 42 27 20
31 29 19 26 28 30 32 31 30 27 11 2 2 2 2 2
2 2 1 2 24 29 30 32 32 32 33 33 32 32 31 31
33 32 33 33 32 32 32 32 30 31 30 30 30 29 28 27
26 25 24 22 21 19 19 17 17 18 17 15 15 14 14 15
0 23 36 28 25 19 20 12 15 11 9 16 17 10 44 32
41 16 24 6 27 4 5 10 6 0 0 30 35 28 29 29
29 22 9 1 0 0 48 82 86 96 103 111 120 123 129 122
123 121 118 118 117 120 119 119 118 109 97 81 70 54 32 0
5 22 19 26 28 30 31 31 29 27 10 2 3 2 2 2
2 2 1 2 27 31 32 33 33 34 33 33 34 33 34 33
33 33 33 34 33 34 33 32 32 30 30 30 30 30 29 28
26 25 24 23 21 20 18 17 17 17 19 18 17 16 15 16
0 25 35 28 25 19 34 40 43 42 42 43 42 44 53 35
42 8 23 12 27 9 9 11 6 3 2 28 32 28 29 29
21 2 0 0 0 5 71 87 85 97 101 110 117 124 127 128
122 122 118 118 119 122 122 121 117 111 100 90 76 73 39 0
0 5 17 25 28 29 31 30 29 28 22 17 13 9 8 6
3 2 4 11 27 31 32 33 33 32 33 32 32 32 33 32
31 33 32 32 32 32 32 33 32 31 30 30 29 29 27 27
26 24 24 22 20 19 19 18 17 17 16 16 16 15 16 17
0 25 36 27 25 19 34 46 46 46 46 46 47 51 57 42
42 5 10 16 27 24 25 25 24 22 22 25 26 29 29 26
11 4 0 0 0 30 84 89 89 97 99 107 115 125 130 128
128 121 119 119 118 121 123 121 120 111 105 93 78 85 44 0
0 1 11 25 27 29 30 30 29 27 27 25 21 17 17 15
5 2 14 20 29 32 32 32 33 32 32 32 31 32 33 32
32 32 33 32 32 32 32 32 32 30 30 29 29 28 28 27
26 24 23 21 20 19 18 19 18 16 16 15 15 15 15 15
0 26 35 27 25 19 21 33 34 35 36 36 39 41 46 42
39 4 2 6 27 22 24 24 23 23 23 23 26 29 29 17
11 7 0 0 1 63 89 89 94 100 101 106 116 123 130 127
124 119 118 116 117 120 121 117 117 113 105 90 84 96 49 0
0 0 8 20 27 28 30 30 29 28 27 26 21 18 18 17
5 2 17 23 29 30 32 32 32 32 32 32 30 31 33 31
31 32 33 31 31 32 32 32 32 31 31 29 30 29 28 26
26 24 23 21 20 19 19 18 17 16 16 15 15 16 15 15
0 28 34 27 24 19 12 9 9 9 10 11 12 14 18 25
37 3 2 4 29 25 28 28 28 28 27 27 27 28 28 10
11 9 0 0 38 84 96 96 97 101 101 108 115 122 132 132
126 124 119 118 116 116 116 121 117 109 98 88 95 100 56 0
0 0 7 15 26 28 29 29 29 28 27 28 24 22 21 20
5 4 20 25 30 31 32 32 32 32 32 32 30 32 32 32
32 32 32 31 31 32 32 32 33 32 31 31 30 29 28 28
27 25 23 22 21 19 19 18 18 17 16 16 15 15 15 15
0 29 33 26 24 19 15 12 11 11 11 11 11 14 17 25
36 3 0 2 28 25 29 30 29 29 29 28 28 28 23 5
11 12 0 22 75 95 103 105 98 100 101 107 115 122 130 135
136 128 122 118 116 114 117 120 115 100 97 92 107 104 70 2
0 0 8 11 25 27 28 28 28 28 27 27 23 22 22 21
6 3 22 26 30 32 32 32 32 33 32 30 29 31 32 31
31 31 31 31 31 31 31 33 35 35 33 32 31 30 30 28
28 25 24 22 22 20 20 19 19 18 17 17 16 16 16 15
0 29 32 25 23 21 20 18 16 15 14 13 13 16 19 28
36 10 8 9 30 25 28 29 29 28 29 29 28 29 14 5
11 16 3 57 93 105 108 106 101 100 103 104 116 123 132 133
139 135 133 122 117 117 116 112 104 104 97 104 112 107 86 30
0 1 13 11 23 27 28 28 27 27 27 26 24 23 24 22
6 4 24 26 29 31 32 32 33 32 32 31 30 31 32 31
31 25 17 18 19 22 37 45 45 45 43 42 41 39 37 35
34 31 28 27 25 24 23 22 21 20 20 18 18 18 17 17
0 33 33 24 23 21 20 18 18 18 18 18 18 18 19 32
38 29 42 45 39 23 29 28 27 28 28 27 28 20 5 5
11 17 13 74 107 108 112 111 106 103 103 109 117 124 133 136
143 142 137 129 125 121 116 109 107 107 105 116 119 111 87 51
0 4 16 13 18 26 27 28 27 27 27 27 26 25 24 23
7 5 25 27 30 30 31 31 31 32 31 31 27 29 32 30
29 10 0 0 0 3 50 53 52 51 50 51 50 50 49 47
46 44 43 41 39 38 36 34 33 31 30 28 26 24 22 22
18 32 31 25 23 21 20 18 18 18 18 18 19 20 18 27
29 25 35 37 33 23 27 27 28 27 27 27 18 7 5 6
8 15 22 78 114 117 116 117 111 104 103 113 120 128 132 137
145 145 141 135 133 128 124 121 117 111 118 129 121 111 89 69
2 10 15 13 12 21 27 26 25 26 27 27 25 26 26 24
8 5 25 28 30 30 31 31 31 32 31 29 26 29 32 30
29 7 0 0 0 7 52 52 52 52 51 50 50 49 50 48
47 46 45 43 42 40 40 39 38 38 37 37 36 37 35 35
25 25 25 25 22 20 20 19 19 17 17 18 19 19 21 25
24 21 20 24 24 26 27 27 27 27 26 13 6 6 6 7
10 15 24 74 119 120 120 121 113 102 104 116 125 131 137 139
145 146 144 141 139 132 132 127 118 116 131 134 123 114 93 76
4 13 15 12 11 14 20 19 17 15 17 23 26 26 27 25
9 5 26 29 30 30 31 31 32 31 31 28 25 29 31 30
27 4 0 0 0 14 53 52 52 51 51 50 50 50 49 48
47 46 46 43 42 41 40 39 38 37 37 36 36 36 35 36
26 25 26 25 22 20 20 20 19 19 18 18 18 19 23 25
24 23 21 24 25 25 26 27 27 27 16 5 7 6 7 8
8 15 22 78 119 126 127 128 118 103 108 122 130 134 139 142
145 145 145 144 142 139 134 129 121 125 135 133 126 118 96 70
17 17 16 12 10 11 15 20 19 8 10 17 26 26 27 25
8 5 25 28 30 30 31 30 31 31 31 30 22 30 31 30
26 2 0 0 0 21 53 52 51 51 51 51 50 50 49 48
47 46 45 44 42 41 40 39 38 38 38 37 37 36 36 36
26 25 26 25 21 20 20 20 20 19 18 18 19 20 24 25
24 24 22 24 24 24 26 26 26 25 8 6 6 6 7 8
9 15 20 81 125 136 138 133 120 105 113 128 135 134 137 140
146 145 145 144 143 142 135 129 122 133 138 134 129 120 98 56
51 16 16 12 9 11 13 14 21 25 15 16 26 27 26 26
10 5 27 30 31 31 31 31 31 31 30 29 20 27 30 30
25 1 0 0 0 29 53 52 52 51 51 50 50 49 49 48
47 46 45 44 43 42 40 40 39 38 38 37 36 36 35 35
18 17 16 19 19 20 20 20 20 19 20 20 19 21 24 25
25 24 23 24 25 25 26 26 26 16 7 6 5 5 7 7
9 13 18 42 129 142 145 138 123 108 118 133 140 140 136 136
146 146 146 144 143 142 138 128 129 142 138 132 135 126 98 51
64 16 17 13 10 9 11 13 21 47 40 24 26 26 26 25
10 4 26 29 30 31 31 31 31 31 31 28 8 16 29 29
22 0 0 0 0 37 52 52 51 51 50 50 50 50 48 49
47 47 46 44 43 41 41 40 39 38 38 37 36 36 36 36
15 16 17 19 19 19 19 19 19 19 20 19 20 22 25 26
25 25 25 24 24 25 26 26 28 13 10 7 4 4 4 6
9 11 18 29 106 146 142 143 128 114 123 135 142 145 140 139
144 147 147 145 144 143 138 133 138 143 139 135 141 131 99 78
49 16 16 10 10 9 10 13 12 20 37 31 28 28 28 26
10 4 26 29 29 31 32 30 31 30 30 27 14 20 28 29
21 0 0 0 0 43 52 51 51 51 51 50 50 50 49 48
48 47 46 44 44 43 41 40 39 39 38 37 37 37 36 36
14 17 17 17 19 18 19 19 19 19 18 18 20 22 25 25
24 24 25 24 24 25 26 30 25 11 12 8 5 2 3 4
8 12 16 22 78 143 146 138 129 121 133 141 145 146 143 141
146 146 146 145 144 144 142 141 145 144 140 140 144 135 106 99
33 17 15 11 10 10 9 9 6 11 19 28 25 26 32 38
11 4 26 29 30 30 30 30 30 30 30 27 22 28 28 27
16 0 0 0 3 48 52 50 50 50 50 50 50 49 49 48
48 47 46 45 44 43 42 40 40 39 38 37 37 37 36 35
14 16 17 18 18 19 19 19 20 19 20 20 21 23 26 25
24 24 25 25 26 27 23 26 25 13 13 9 4 2 3 4
7 11 16 21 54 134 149 148 138 127 139 144 146 146 146 143
146 146 145 146 145 145 145 145 145 144 140 142 144 140 130 83
27 19 15 11 10 9 10 13 9 13 15 36 18 15 13 18
28 20 27 29 29 30 30 30 30 30 30 27 25 28 27 27
13 0 0 0 7 50 51 51 51 50 50 50 50 50 49 49
49 48 47 46 45 43 42 41 40 39 38 37 36 36 36 35
13 18 19 21 22 22 23 23 23 23 23 23 24 25 27 25
24 24 25 28 30 25 18 14 14 11 14 9 5 1 2 2
4 10 15 20 34 113 149 148 147 145 141 147 147 147 147 145
146 147 145 146 146 145 145 145 145 146 141 144 144 144 130 70
23 20 15 10 10 9 12 15 12 9 12 35 24 12 14 13
16 27 34 34 30 30 31 29 30 29 29 28 27 28 28 27
11 0 0 0 14 52 51 51 50 50 51 50 50 50 50 50
49 48 48 46 45 44 42 41 40 39 38 38 37 36 36 35
17 20 22 24 27 26 26 26 26 26 27 27 26 26 26 25
24 26 30 28 25 13 16 16 14 11 15 10 4 1 2 1
3 7 12 18 26 65 146 148 148 148 148 147 147 147 147 146
147 147 144 145 146 145 146 146 146 145 143 136 140 146 113 49
21 18 12 10 11 10 13 16 14 5 8 23 47 14 14 13
13 15 21 31 39 34 30 29 29 30 29 28 28 28 28 26
8 0 0 0 20 51 50 50 50 50 50 50 50 50 49 49
49 47 47 46 45 44 43 42 41 40 38 38 37 37 36 35
18 16 16 18 33 25 26 26 26 27 26 26 26 26 25 25
25 28 19 17 14 13 16 15 16 11 17 12 6 2 2 1
1 4 10 15 20 32 73 136 150 148 148 148 148 147 148 147
146 146 143 139 145 145 145 145 146 145 132 141 146 134 104 34
20 15 11 11 11 12 14 15 18 7 6 14 55 21 10 10
7 9 14 19 26 34 36 30 28 28 29 27 27 27 27 26
5 0 0 0 28 50 50 50 50 50 49 50 50 49 50 49
48 48 47 46 45 45 43 42 41 40 39 38 37 36 36 35
11 10 10 13 34 26 22 23 24 25 26 25 26 26 26 26
28 29 18 18 16 13 12 10 10 8 17 15 8 3 2 1
0 1 6 11 17 22 30 71 140 149 148 148 148 149 148 148
147 147 140 133 146 145 145 146 144 141 146 146 133 101 97 60
16 13 10 11 13 14 16 18 19 18 12 19 69 46 11 8
7 6 12 15 15 26 30 37 29 28 28 28 27 27 26 25
3 0 0 0 34 50 49 50 50 50 50 49 50 50 50 49
49 48 47 47 46 44 44 43 42 40 39 38 37 37 36 35
10 10 10 13 33 27 19 17 18 20 21 22 24 25 29 30
26 25 19 20 14 10 10 9 10 6 20 18 11 6 3 2
1 1 3 9 14 19 21 23 46 88 86 126 148 148 148 148
147 147 147 145 146 147 147 146 147 146 147 139 98 46 61 55
11 10 11 12 15 15 17 16 17 19 21 21 53 51 24 14
14 17 23 27 21 26 27 38 33 28 27 27 27 26 26 21
1 0 0 0 40 50 50 50 50 49 50 49 50 50 50 50
49 49 48 47 46 45 45 43 42 41 39 38 38 37 35 36
10 9 9 12 32 27 19 16 17 17 18 18 22 24 28 25
25 21 17 14 10 14 13 11 15 9 20 19 17 10 5 3
2 1 3 7 11 13 16 15 30 47 49 68 106 149 148 147
147 148 147 148 147 147 147 146 147 146 133 104 42 39 53 33
5 13 13 15 15 15 16 16 16 17 17 17 37 51 31 23
25 21 21 29 27 36 27 39 27 27 27 27 27 26 25 20
0 0 0 2 45 49 50 49 49 49 50 50 49 49 49 49
49 48 48 47 46 46 45 43 42 41 40 39 37 37 36 35
7 7 6 6 29 26 18 16 17 17 18 27 21 17 37 25
23 21 16 17 19 27 28 28 26 13 17 20 19 15 8 4
2 1 2 6 9 13 9 3 25 29 25 23 45 130 149 148
147 148 147 147 147 147 147 147 146 132 103 52 40 37 33 5
0 8 12 15 17 14 16 16 16 17 31 27 49 93 67 23
23 22 14 33 31 38 39 45 30 24 26 27 27 26 24 18
0 0 0 5 47 49 48 49 49 49 49 49 49 49 49 48
49 48 48 47 46 45 45 43 43 41 39 38 38 37 36 35
29 26 15 9 29 26 18 17 17 20 28 22 14 26 54 44
36 31 24 23 30 29 27 31 28 15 12 20 18 18 12 6
3 1 1 3 8 7 0 0 14 77 53 7 17 79 149 148
148 147 147 147 147 148 147 147 138 125 65 42 34 26 32 30
15 7 1 1 2 9 15 15 17 16 25 40 41 76 43 37
41 36 30 46 49 37 44 59 43 35 20 27 26 26 26 14
0 0 0 9 48 49 49 49 49 49 49 49 49 49 49 49
49 48 48 47 47 45 44 43 43 41 39 38 37 36 35 35
26 26 27 26 27 27 18 15 21 26 26 12 25 37 48 53
36 39 35 25 25 25 23 23 26 30 22 21 20 18 15 10
6 2 1 5 5 0 1 0 10 37 76 10 11 29 128 149
148 148 147 148 148 147 147 146 139 105 44 34 30 28 29 33
27 28 13 7 3 0 2 9 15 16 15 15 15 45 29 22
39 44 39 20 25 50 43 58 40 38 23 23 25 24 25 12
0 0 0 16 48 48 48 47 48 48 49 48 48 49 48 48
48 48 47 46 46 45 45 43 42 41 39 38 37 36 34 34
35 35 36 36 31 24 19 24 25 22 17 20 35 39 53 61
34 42 32 33 46 51 52 54 59 41 28 20 20 18 17 14
9 5 4 9 7 3 3 7 5 15 25 5 10 17 73 144
147 148 148 147 147 147 147 145 135 54 39 32 29 29 33 40
32 29 17 13 13 10 5 2 9 24 18 9 8 35 30 16
16 19 16 7 15 53 84 76 46 39 35 28 25 25 24 10
0 0 0 23 48 47 47 47 47 48 48 48 48 48 48 48
48 47 46 46 46 45 44 43 42 41 40 38 37 36 35 34
33 37 39 38 39 34 25 30 21 18 17 31 56 77 83 85
59 51 48 56 60 52 51 51 40 14 8 16 20 19 18 15
11 9 8 10 14 11 2 12 12 11 6 5 6 10 28 119
146 147 147 147 147 146 137 126 83 42 38 30 28 32 41 50
33 29 18 14 14 13 13 12 18 28 26 11 12 40 38 16
11 15 13 4 14 28 56 90 77 71 39 38 28 25 24 7
0 0 0 27 48 47 47 48 47 48 47 48 48 47 47 47
47 46 46 45 45 44 43 42 41 40 39 37 37 35 34 33
38 39 42 43 43 32 21 30 21 23 32 75 90 78 48 54
50 74 61 31 25 28 24 23 21 6 2 9 12 12 14 13
11 20 46 14 15 14 7 5 20 10 9 5 6 8 14 61
146 147 147 148 146 138 125 118 53 37 36 29 35 37 39 50
34 31 19 15 16 14 13 13 17 29 27 14 13 35 45 16
12 14 14 4 14 23 33 57 42 51 66 41 32 23 22 4
0 0 0 35 46 46 47 47 47 47 48 48 47 47 46 47
46 46 45 45 45 44 43 42 40 39 39 37 35 35 33 33
40 40 39 39 33 18 14 37 30 27 63 85 72 44 35 39
40 37 32 21 17 16 19 20 17 14 12 17 18 21 12 9
12 22 58 17 12 16 13 3 13 19 11 6 5 5 9 22
98 149 147 147 147 135 132 105 43 39 35 35 36 37 39 46
34 35 21 15 14 13 15 14 15 31 29 17 13 30 51 17
14 11 13 4 12 22 33 44 28 32 47 72 50 23 21 2
0 0 0 39 46 46 46 46 47 46 47 47 46 47 46 46
46 46 45 44 44 43 42 41 40 39 37 37 35 35 33 32
38 37 36 33 19 15 24 42 34 46 67 51 43 34 28 35
48 23 23 20 17 16 18 16 17 16 17 27 32 24 20 16
15 20 70 28 11 15 16 10 5 19 19 13 4 3 5 12
36 128 148 147 144 134 135 78 43 41 36 39 36 35 41 50
35 36 22 18 15 16 17 15 15 30 32 21 14 21 64 21
13 10 12 5 11 22 37 36 25 27 29 39 64 30 18 1
0 0 2 42 46 45 46 46 46 46 46 47 46 46 46 45
46 45 45 43 43 42 41 41 39 38 37 36 35 34 33 32
32 31 30 22 11 13 27 31 62 62 40 35 35 34 25 29
55 18 24 19 16 16 16 18 16 17 17 23 34 24 20 16
15 18 63 46 12 11 17 15 5 11 19 26 11 5 4 5
12 56 142 147 139 138 132 56 42 39 36 38 40 37 40 55
33 35 23 17 18 17 17 15 15 26 31 27 15 17 60 26
14 10 11 4 11 25 37 33 27 29 30 31 34 26 11 0
0 0 5 45 45 46 46 46 46 46 46 46 46 45 45 45
45 44 44 43 42 42 41 40 39 37 36 35 34 34 32 32
30 29 28 11 8 17 26 39 78 41 30 33 35 34 28 19
57 23 26 19 17 18 15 15 18 17 15 23 33 26 23 15
16 16 57 52 16 11 18 17 12 5 16 29 27 15 5 2
6 15 75 143 102 133 124 47 42 38 42 37 40 42 37 47
40 35 22 19 18 17 17 18 16 22 33 30 15 14 51 35
14 11 11 4 9 28 39 26 27 30 30 32 30 23 9 7
0 0 9 45 45 45 45 45 45 46 46 45 45 45 45 45
44 43 43 43 42 41 41 39 38 37 36 35 34 33 32 31
30 30 23 5 6 23 26 49 48 42 30 31 29 30 32 16
51 25 26 18 19 16 16 15 17 16 17 21 32 26 27 17
17 16 44 64 20 9 15 17 16 7 9 23 34 21 18 6
4 8 19 86 62 105 110 74 70 59 62 59 49 41 40 43
38 39 25 20 19 17 16 15 16 22 32 31 17 15 43 46
13 13 9 2 9 32 41 26 27 30 31 30 29 31 11 27
0 0 14 46 44 45 45 46 45 45 45 45 45 45 44 44
44 43 43 41 42 41 39 38 37 36 35 34 32 32 32 31
32 31 26 3 10 24 46 45 32 53 29 30 33 32 31 15
45 26 28 20 17 17 16 16 16 16 17 20 33 25 27 17
15 14 38 71 29 13 10 17 18 15 6 15 35 24 30 38
29 23 13 29 58 58 77 40 62 65 63 65 79 78 77 69
58 56 51 43 31 22 21 18 16 18 32 33 21 13 31 52
15 14 9 1 9 32 35 26 26 29 29 29 27 30 7 18
3 0 18 44 44 44 45 44 44 44 44 44 44 44 43 43
44 42 41 41 39 39 37 37 35 34 33 32 32 31 31 31
31 25 8 2 16 30 48 27 26 38 48 33 32 34 36 16
39 29 28 21 17 17 18 15 14 16 17 17 33 27 25 18
17 16 27 76 33 16 12 17 29 26 15 14 42 63 70 39
27 8 2 11 28 42 43 35 42 36 35 32 39 33 56 66
65 61 50 43 41 46 56 54 45 48 56 48 33 13 23 57
18 12 9 1 12 34 25 26 30 31 29 29 33 34 10 9
7 0 23 44 44 44 44 45 44 44 43 44 43 43 44 43
42 42 40 40 38 38 37 36 35 33 33 32 32 31 30 30
