P2
128 120
156
36 35 35 35 34 34 33 33 33 32 32 32 31 30 30 30
29 28 28 27 27 26 25 26 25 25 24 23 23 23 22 22
21 21 21 20 20 20 19 19 19 18 19 19 20 24 24 25
24 20 18 12 22 23 20 20 21 20 20 19 20 18 18 16
15 15 15 18 20 21 21 21 22 22 22 24 24 23 24 24
24 24 24 25 24 25 25 25 26 25 27 27 27 27 27 29
29 29 29 30 30 30 31 31 31 31 31 32 32 33 33 32
34 33 33 33 34 33 34 34 33 34 34 34 34 33 33 32
35 35 35 34 34 34 33 33 33 32 32 31 32 31 30 30
29 28 29 28 27 26 26 25 26 24 24 24 23 23 22 22
22 21 21 20 20 20 20 19 19 18 19 20 20 24 24 25
24 21 20 11 19 24 21 21 21 21 20 19 20 17 18 18
16 16 16 20 21 22 22 22 23 23 23 23 24 24 24 25
24 25 25 26 25 26 26 26 26 26 26 27 28 28 28 29
29 29 30 30 31 31 31 31 31 32 32 32 32 32 33 33
34 34 35 34 33 34 34 33 33 32 33 34 34 33 34 35
36 35 36 34 34 34 34 33 32 32 31 31 31 30 30 30
29 29 28 27 27 26 26 26 25 25 24 24 24 24 23 23
22 22 22 21 21 20 20 19 19 19 19 20 21 24 25 25
25 20 14 7 19 24 22 22 22 21 21 20 21 19 19 19
16 17 17 21 23 22 22 23 23 23 23 24 23 24 24 24
24 24 25 25 26 26 26 26 27 27 27 28 28 28 29 30
30 30 30 31 30 31 31 31 31 32 32 33 33 33 32 32
32 31 31 32 32 32 34 34 35 35 34 35 34 35 35 35
36 35 35 35 34 34 34 33 33 32 32 32 31 31 30 30
30 29 28 27 27 27 26 26 25 25 25 24 24 24 23 23
23 22 22 22 21 21 20 21 20 20 19 20 21 25 25 26
25 21 16 15 21 24 22 23 22 21 21 21 22 19 19 19
17 18 19 23 23 23 23 24 23 24 24 24 24 24 25 25
25 25 26 26 26 26 27 26 27 27 27 28 28 28 29 30
31 30 30 31 32 32 32 30 29 31 31 31 31 32 32 34
33 34 34 34 34 33 34 34 34 35 34 35 35 34 35 35
35 35 35 34 35 34 34 33 33 32 32 31 31 31 30 29
30 29 29 28 27 27 27 26 25 25 25 25 24 23 24 22
23 22 22 22 21 21 21 21 20 19 20 21 22 25 26 26
25 20 16 17 20 25 24 23 23 22 21 21 22 20 21 20
18 20 19 22 24 24 23 24 24 25 25 25 25 25 26 26
26 26 26 26 26 27 27 27 27 27 28 28 29 29 29 31
29 29 29 28 29 29 31 32 32 33 33 33 33 33 34 33
34 32 35 34 34 34 34 34 34 35 34 35 35 34 35 34
36 35 35 34 34 33 33 33 32 32 32 31 32 30 31 30
30 29 28 28 27 27 28 27 26 26 25 24 24 24 23 23
23 22 22 22 21 21 20 20 20 20 20 21 23 26 26 26
26 20 17 19 21 25 23 24 23 22 21 21 22 20 20 20
18 20 20 23 23 24 24 24 24 24 25 25 26 25 26 26
26 26 27 26 27 27 27 28 28 28 28 28 28 27 26 27
28 29 30 31 32 31 32 32 33 32 32 33 33 33 33 32
33 33 34 34 33 34 34 34 35 35 34 35 35 35 35 34
36 35 35 34 34 33 34 33 33 33 32 31 31 31 30 31
29 30 29 29 28 27 27 27 27 25 25 25 24 24 23 23
23 23 23 22 21 21 21 20 20 21 20 21 23 26 26 26
26 20 18 20 19 25 24 24 24 22 22 22 23 21 20 21
18 22 20 24 24 24 25 24 26 25 25 26 26 26 26 26
27 26 27 27 27 28 27 27 26 27 27 28 29 29 31 30
30 30 31 32 32 32 33 32 34 33 33 32 33 33 33 33
33 33 34 34 34 34 35 34 34 35 34 35 35 34 35 34
35 35 35 34 34 34 33 33 33 32 32 32 31 30 31 30
29 29 29 28 28 27 27 27 26 26 26 25 24 24 24 24
23 23 22 22 22 21 21 21 21 21 21 21 23 26 27 27
26 21 18 21 19 24 24 23 23 23 23 22 23 21 22 22
19 22 22 24 25 25 25 25 25 26 26 26 27 26 26 26
26 26 26 27 27 27 27 28 28 29 29 29 30 30 30 30
30 31 32 32 32 32 33 33 34 33 33 33 33 34 33 33
33 34 35 34 33 33 33 34 34 34 34 34 35 35 35 34
36 34 34 35 33 34 33 33 32 33 32 32 32 31 31 30
30 29 29 29 28 28 27 27 26 26 26 25 25 24 24 23
23 23 23 23 23 22 21 21 21 21 21 22 23 27 27 27
27 20 18 23 19 26 24 25 24 24 23 22 23 21 22 21
19 22 22 25 25 25 26 26 26 26 26 26 26 26 26 27
26 27 27 28 28 28 29 29 30 29 29 29 30 30 30 31
32 31 32 32 32 32 33 33 34 34 33 33 33 34 33 34
34 33 34 34 34 34 35 34 34 34 34 34 35 35 34 35
35 34 35 34 34 33 33 33 33 32 32 31 32 31 31 31
30 30 29 29 28 28 27 27 27 26 26 25 25 25 24 24
24 23 23 22 23 22 21 21 21 21 21 22 25 28 28 26
27 21 18 25 18 25 25 25 24 23 24 23 24 22 23 22
19 23 21 25 24 25 25 26 27 26 26 27 27 26 27 27
28 27 28 28 28 28 29 29 29 29 29 30 31 31 31 31
32 31 32 32 33 33 33 33 34 33 34 33 34 33 34 34
34 34 34 34 34 34 35 34 35 35 34 35 34 35 34 35
35 35 35 35 34 33 33 32 32 32 32 32 31 31 31 30
30 30 29 28 28 27 28 27 27 26 26 26 25 25 24 24
24 23 24 23 23 22 22 21 21 21 21 22 24 27 28 28
27 21 18 25 19 26 25 25 25 25 24 24 24 22 22 22
19 23 20 25 26 26 26 27 28 27 27 27 28 27 28 28
28 28 29 29 29 29 29 30 30 30 29 30 31 30 31 31
31 32 32 34 33 33 33 33 35 33 33 33 34 33 34 34
34 34 34 35 34 34 34 35 34 35 34 35 35 35 35 35
35 35 35 34 34 34 34 33 33 33 32 32 31 31 31 31
31 29 30 29 28 28 27 28 27 28 27 26 26 25 25 24
24 24 23 24 23 23 22 22 22 22 22 23 26 28 28 28
27 21 18 26 19 26 25 25 25 24 24 25 24 23 23 23
20 24 24 26 27 27 26 27 28 27 28 28 29 28 28 28
28 29 29 30 29 29 30 30 30 29 31 31 31 31 31 31
32 33 32 33 34 33 34 34 35 34 34 35 34 35 34 34
35 35 34 34 35 34 35 35 35 35 35 36 36 36 35 35
35 34 35 34 34 34 33 33 33 33 32 31 32 32 32 30
31 30 29 29 28 28 28 28 28 26 27 26 26 26 25 25
25 25 24 24 23 23 22 22 22 21 22 23 26 29 28 28
28 21 20 27 19 26 26 26 25 25 24 25 24 23 23 23
20 25 24 27 27 28 27 28 29 28 29 28 29 29 28 29
29 30 29 29 29 29 30 30 30 30 30 31 31 32 32 32
32 32 33 33 34 33 34 34 35 34 34 34 34 35 35 35
35 34 34 35 35 35 36 36 36 36 36 35 34 34 34 33
35 35 34 34 34 34 33 33 33 32 33 32 32 31 31 31
30 31 30 29 29 28 28 28 28 27 27 26 26 26 26 25
25 24 24 24 24 23 23 23 22 23 23 24 27 29 29 30
28 21 21 28 19 26 25 26 26 25 25 25 24 24 24 23
20 26 24 28 27 28 28 28 29 28 29 29 29 29 29 29
29 29 30 30 30 30 30 31 31 32 31 31 32 32 32 32
33 33 33 34 33 34 33 34 35 34 35 34 36 35 35 35
35 35 35 35 35 34 34 35 35 34 35 36 35 36 36 36
35 35 35 35 35 34 34 33 33 32 32 32 31 32 31 31
30 30 30 28 29 28 28 28 27 27 26 27 27 26 27 25
25 24 24 24 24 24 22 23 23 22 23 24 27 29 30 29
28 22 21 29 19 27 27 26 26 25 25 25 25 25 24 24
21 26 25 27 28 28 29 29 30 29 29 29 29 29 29 29
30 30 31 30 31 31 31 31 31 31 32 32 32 32 32 33
33 33 33 34 34 34 34 34 36 35 35 34 34 33 33 33
34 33 34 35 36 36 36 35 35 35 35 35 35 34 36 35
35 35 35 34 35 33 33 33 33 33 32 32 32 32 32 31
31 30 31 30 29 29 29 29 28 28 28 27 27 26 26 25
25 25 25 25 24 23 23 23 24 23 24 25 28 30 30 29
28 21 21 29 19 27 27 27 26 26 26 25 26 25 25 24
21 26 26 28 29 29 29 29 30 29 30 30 30 29 30 30
30 30 30 31 31 30 31 32 32 32 32 33 33 33 33 33
34 33 33 33 33 33 33 32 33 33 33 34 35 35 36 36
35 34 35 35 34 35 35 35 35 35 35 35 35 35 35 35
36 35 35 35 34 34 34 34 33 33 33 33 32 31 32 31
31 31 30 30 29 29 29 28 28 28 28 27 26 26 26 26
25 25 25 24 25 24 23 24 23 23 24 25 28 30 31 29
28 21 23 30 20 28 27 27 27 27 26 24 26 26 25 24
21 27 26 29 29 29 29 30 30 29 30 30 30 30 31 31
30 31 32 31 32 32 32 33 32 32 32 32 32 33 32 32
33 33 34 34 34 34 35 35 35 35 35 35 35 35 35 35
37 34 35 35 35 35 36 34 36 35 36 35 35 36 35 35
35 35 35 35 35 34 34 33 34 33 33 33 33 32 32 32
32 31 31 30 30 29 30 29 28 29 28 27 28 27 26 26
26 25 25 25 24 24 24 25 24 24 25 26 30 31 31 30
29 21 24 31 20 28 28 27 28 27 27 26 26 26 26 25
21 27 27 29 29 29 29 30 31 31 30 32 31 31 31 31
32 31 31 32 32 32 31 32 31 32 32 33 33 34 34 34
34 35 35 35 35 35 35 34 35 35 35 35 35 35 35 36
37 35 35 35 36 35 35 36 35 36 35 36 35 35 36 35
21 36 36 35 35 34 34 34 34 34 33 33 32 32 32 31
32 31 31 30 30 30 29 29 29 29 28 28 28 27 27 26
26 26 25 25 25 25 25 25 24 24 25 26 30 32 31 31
29 21 24 32 22 28 28 28 27 27 27 25 27 26 26 25
22 27 27 30 30 30 30 31 31 31 31 31 32 31 31 31
31 31 32 32 32 33 33 32 32 33 33 33 34 34 34 35
34 35 35 36 36 35 36 36 36 36 36 36 35 36 36 36
36 35 35 36 35 36 35 36 35 36 36 35 36 35 36 35
22 36 36 35 34 35 35 34 34 34 33 33 33 33 33 32
32 31 31 30 31 29 29 29 29 29 29 28 28 28 27 27
26 26 26 26 25 25 25 25 25 25 26 26 30 32 31 31
29 22 26 33 23 28 29 29 29 28 27 26 28 26 27 26
23 28 28 30 30 30 30 30 30 30 31 31 31 31 31 32
33 32 33 33 32 33 32 33 33 33 34 34 34 35 35 35
35 35 36 36 36 36 36 36 35 36 35 36 36 36 36 36
36 36 35 36 35 36 36 35 36 36 36 35 36 35 35 35
21 36 35 35 35 34 34 33 32 34 34 33 33 33 32 32
32 31 31 31 31 30 31 30 29 29 29 28 28 28 28 27
27 26 26 26 26 26 25 25 25 25 25 26 31 32 32 32
29 22 27 34 23 27 30 29 29 28 27 28 28 27 26 26
22 27 26 30 30 30 31 31 30 31 31 32 32 32 31 32
32 33 33 33 33 33 33 34 33 34 34 34 35 35 35 36
35 35 36 36 36 36 37 36 36 36 36 36 36 36 35 35
36 35 35 35 35 35 36 36 35 36 36 36 35 36 35 35
22 35 36 35 36 34 34 36 37 36 35 35 33 33 33 33
33 32 32 31 31 30 29 29 29 29 29 28 29 28 28 27
27 27 27 26 26 25 26 26 25 26 26 27 31 32 31 32
28 22 27 34 24 27 29 29 28 28 24 21 23 24 27 23
21 27 29 30 30 31 31 31 31 31 32 32 32 33 33 34
33 33 33 33 33 32 33 33 34 34 34 35 35 35 35 36
36 36 36 36 36 36 36 36 36 35 35 36 35 36 35 35
36 35 36 35 36 35 36 36 36 35 36 36 36 36 35 35
25 36 37 36 35 35 35 42 46 43 41 38 35 33 31 32
32 32 32 30 31 30 30 30 30 31 38 35 31 28 28 27
27 27 26 26 26 26 26 25 26 26 27 27 32 32 32 31
28 22 28 35 26 22 17 8 6 9 12 13 12 9 13 12
15 20 22 22 23 28 30 30 29 32 32 32 33 33 33 33
33 33 34 33 33 34 33 34 34 35 34 34 35 35 36 36
35 36 35 36 36 36 36 36 36 36 36 35 36 36 36 35
36 35 35 36 36 35 36 36 35 36 36 36 36 36 36 35
31 39 38 36 36 35 35 45 46 45 43 40 39 38 38 34
33 32 32 32 31 30 31 29 30 35 44 42 38 36 33 30
27 27 27 27 27 26 26 25 26 26 26 27 32 33 31 31
27 21 25 27 13 0 0 3 6 4 7 12 14 17 9 7
2 5 12 17 9 14 18 17 11 18 29 31 30 32 33 33
33 33 33 34 34 34 34 35 35 34 35 35 35 36 35 37
35 35 37 37 37 36 36 36 36 35 36 36 36 36 36 36
37 36 36 37 36 37 36 35 36 36 36 36 35 37 36 36
33 42 39 39 38 36 35 45 46 46 41 41 42 43 46 37
38 36 33 32 29 30 30 30 30 35 42 40 37 37 38 36
31 27 27 26 26 26 26 26 26 26 27 28 33 30 32 30
25 18 15 3 0 1 0 0 5 7 2 10 18 8 8 8
4 0 2 6 7 4 7 7 5 11 16 13 13 20 30 33
33 33 34 33 33 34 34 34 34 35 35 35 35 36 36 36
37 36 36 36 37 37 36 35 36 36 36 36 36 36 36 36
37 36 36 37 37 35 36 36 35 34 33 33 34 34 34 34
34 44 34 36 40 41 41 36 13 27 40 43 46 47 46 38
37 41 41 37 33 32 31 30 30 34 33 36 37 37 37 36
32 26 27 27 26 27 26 26 26 26 27 27 32 30 28 26
21 13 2 3 2 1 1 0 3 7 7 4 10 15 13 11
5 3 0 5 6 8 6 4 5 2 6 14 4 4 10 18
23 26 31 34 33 34 34 34 35 36 36 36 35 36 36 37
35 36 36 37 37 36 36 37 36 36 37 36 36 37 36 34
34 31 33 34 35 34 35 35 36 38 37 36 37 37 37 35
33 43 40 35 32 43 46 34 0 0 8 24 30 36 43 32
2 11 22 33 38 36 39 36 33 33 17 13 16 24 33 37
32 28 28 27 27 27 27 26 27 27 28 28 32 31 24 21
18 7 1 2 3 4 3 2 5 9 10 6 6 13 10 16
13 4 4 3 4 6 7 8 7 6 3 3 10 8 8 13
19 21 23 30 34 34 35 35 35 35 36 36 37 36 36 37
36 36 36 37 37 36 36 35 34 33 35 34 34 34 36 37
37 36 36 36 36 36 33 36 35 37 36 33 36 36 34 36
6 15 28 41 44 46 48 33 0 0 4 11 13 12 25 29
0 0 0 0 7 16 29 37 37 33 16 6 11 8 4 7
32 28 29 27 28 27 27 27 27 28 28 29 33 31 22 20
13 4 8 7 4 6 9 8 7 13 12 9 3 12 10 6
15 14 6 7 5 4 6 9 14 10 7 3 6 9 10 9
11 19 18 20 31 34 35 35 36 36 35 35 35 35 35 35
36 35 35 36 35 37 36 37 38 37 37 36 37 36 36 36
36 36 36 36 36 36 37 36 36 37 36 35 36 35 35 35
0 0 0 2 12 26 40 31 0 0 2 5 10 11 25 27
0 0 0 0 0 0 0 3 19 35 13 1 5 6 3 1
32 28 28 28 28 27 27 27 27 27 28 29 33 32 22 18
11 10 17 9 5 3 7 9 12 19 16 16 8 9 12 10
4 13 18 7 7 6 7 14 17 19 11 5 4 6 14 18
12 13 17 13 21 31 35 35 35 36 36 36 36 35 36 36
36 36 35 36 35 35 36 36 38 36 36 36 36 37 36 36
35 35 35 36 36 35 36 36 36 36 36 36 36 35 36 36
0 0 0 0 0 0 0 22 0 0 0 1 1 3 23 26
1 0 0 0 0 0 0 0 14 35 9 0 0 2 2 2
34 29 29 28 28 28 28 27 28 28 29 30 34 34 27 19
14 11 10 8 11 14 11 10 15 23 18 17 8 10 17 9
12 6 12 14 8 11 9 20 23 24 21 10 5 4 8 22
11 14 18 16 10 20 32 37 35 35 35 36 36 36 36 36
36 36 36 36 36 35 36 36 38 37 36 37 36 36 37 36
37 36 36 36 36 37 36 36 36 36 37 36 36 36 36 37
0 0 0 0 0 0 0 19 0 0 0 0 0 2 24 21
0 0 0 0 0 0 0 0 16 30 1 0 0 1 0 4
36 29 29 29 28 28 28 28 28 29 30 31 36 35 32 22
11 12 12 18 25 27 21 12 19 27 24 20 10 12 17 13
15 11 11 15 14 14 14 20 24 21 26 19 10 4 4 10
13 7 13 12 11 8 22 36 36 36 36 36 36 36 36 36
36 36 37 37 37 36 36 37 38 37 38 37 37 37 37 37
37 37 37 37 37 36 36 36 36 37 37 36 36 37 37 37
0 0 0 0 0 0 0 16 0 0 0 0 0 2 33 22
0 0 0 2 12 2 0 0 16 30 0 0 0 0 1 6
38 29 30 29 29 29 29 29 29 29 31 31 36 36 35 26
21 27 36 44 43 47 45 26 20 36 32 22 12 11 20 22
18 11 13 18 21 18 16 19 19 19 24 23 17 6 3 2
7 7 9 12 9 3 6 24 35 37 37 36 37 37 37 36
36 36 36 37 37 37 37 37 39 37 38 38 37 37 37 37
37 37 36 36 37 37 37 37 37 37 37 36 37 37 37 37
0 0 0 11 6 0 0 13 0 0 0 0 0 1 33 21
0 0 0 4 14 10 4 0 17 27 0 0 0 0 0 6
38 30 30 29 30 29 29 29 29 29 31 31 36 36 35 31
31 46 67 78 58 63 68 42 31 33 38 28 18 9 24 26
22 20 17 23 25 25 20 25 28 19 23 22 22 13 4 3
5 7 8 8 7 2 3 7 26 36 37 36 37 37 37 36
37 37 37 37 37 36 37 37 39 37 37 38 37 37 37 37
37 37 37 37 37 37 38 37 37 36 37 36 37 37 36 36
2 12 5 3 2 0 0 11 0 2 0 0 0 4 35 20
0 0 0 8 14 13 12 3 17 25 0 0 0 0 0 6
38 30 30 30 30 30 30 30 30 30 31 32 37 37 36 34
54 82 97 105 89 76 88 54 49 42 34 36 27 16 24 33
25 28 26 26 27 28 25 30 34 32 26 18 22 22 7 4
4 7 8 6 6 3 0 4 12 33 37 37 37 36 37 37
38 37 37 37 37 37 37 37 38 38 38 37 38 37 37 37
38 38 37 37 37 37 38 37 37 36 37 37 37 37 36 36
6 4 0 3 2 0 1 11 0 0 0 0 0 7 36 20
0 1 0 8 14 13 13 4 18 25 0 0 0 0 0 6
39 31 31 31 30 30 30 30 29 31 33 34 37 37 37 43
82 98 108 113 108 95 99 70 65 57 32 31 27 24 24 30
30 34 30 24 22 20 25 27 27 29 33 25 21 21 12 6
6 11 11 7 5 5 3 0 7 24 37 38 37 37 38 37
38 38 38 37 37 37 38 38 39 38 37 37 37 37 38 38
38 38 38 38 38 38 38 38 37 38 38 37 38 37 37 37
1 0 0 0 1 0 4 20 2 0 2 0 0 17 41 24
1 1 2 0 5 12 13 2 19 33 11 2 0 0 0 7
40 31 31 31 30 30 30 30 30 31 33 33 38 37 38 65
95 106 112 118 121 111 115 92 80 80 38 27 26 30 28 32
31 31 22 21 25 25 30 31 29 27 29 43 26 28 13 7
7 10 12 9 5 6 5 2 4 14 35 37 37 37 38 38
38 38 37 37 37 38 37 38 39 38 37 37 37 38 38 37
37 37 38 38 38 38 39 38 38 39 38 38 38 38 38 38
0 0 0 0 0 0 7 50 43 29 25 16 4 0 43 44
39 30 21 9 1 2 8 1 20 42 42 36 30 20 13 17
40 31 31 31 31 30 30 30 31 31 32 34 38 37 45 83
100 110 113 118 126 123 135 119 83 101 75 29 27 29 33 33
30 27 27 25 25 27 21 25 28 26 32 44 40 47 24 11
11 11 12 12 7 7 7 7 4 10 31 38 38 39 38 38
38 38 38 38 38 38 38 38 37 38 37 37 37 37 37 38
38 38 38 38 38 38 38 38 38 37 35 36 36 35 36 36
0 0 0 0 0 0 9 55 48 43 46 47 47 40 54 32
17 23 30 35 34 27 20 12 26 44 43 40 40 43 47 48
40 31 31 31 31 31 31 31 30 32 33 34 38 38 60 90
103 110 115 121 131 136 132 135 105 86 109 90 56 39 31 31
38 60 53 40 30 28 28 27 25 24 24 31 47 44 33 25
18 18 17 13 13 10 14 12 5 10 27 38 38 38 38 38
38 38 38 37 38 38 38 38 37 38 39 38 38 38 37 38
38 38 39 38 38 38 38 38 38 38 38 38 38 38 37 38
35 23 11 2 0 0 12 54 39 47 51 52 55 45 45 27
13 15 14 15 16 19 25 35 45 38 36 40 41 46 49 49
41 30 31 31 31 31 30 30 31 32 33 35 39 39 74 95
104 109 116 125 135 141 144 145 140 122 110 119 134 138 126 113
104 103 98 75 47 30 26 28 27 25 28 26 27 49 33 41
36 28 28 23 13 19 19 16 7 8 27 37 38 38 38 37
37 37 37 37 37 37 37 37 38 39 39 38 39 38 38 38
38 37 39 39 38 38 38 37 38 37 37 37 37 37 36 37
50 50 49 44 34 22 27 41 36 46 49 52 54 48 38 26
14 15 15 14 13 12 11 10 11 13 17 24 30 36 37 40
38 30 31 32 31 31 31 30 31 32 32 36 39 45 85 96
103 109 118 128 136 141 145 145 145 144 145 145 145 145 138 130
122 101 90 88 61 42 31 37 32 28 32 32 31 38 31 40
48 44 37 38 18 24 26 19 8 10 24 38 38 38 38 38
38 39 38 38 39 38 38 38 39 38 38 38 38 38 37 37
37 38 38 38 39 38 37 37 37 37 37 37 37 37 37 36
51 51 50 49 49 50 52 33 26 40 47 50 53 48 41 28
16 16 14 12 10 10 10 9 9 10 10 9 16 33 30 25
28 31 31 31 31 31 31 30 31 33 33 37 39 61 94 97
102 111 121 129 138 141 144 145 146 145 146 146 145 144 132 114
113 105 83 71 72 56 43 46 43 35 34 35 35 34 32 35
38 40 41 48 33 27 29 20 11 12 17 36 38 38 38 39
38 38 38 38 39 37 39 38 39 37 38 38 38 38 36 37
39 39 39 38 38 38 38 38 38 38 39 38 38 39 38 39
48 50 51 52 52 52 52 19 0 3 10 20 32 35 39 32
17 15 12 8 10 11 12 11 11 12 12 12 21 27 19 31
30 32 32 32 32 32 31 31 32 33 33 37 43 84 97 97
110 121 126 136 144 145 146 146 145 146 146 145 146 144 135 116
102 102 90 73 77 72 60 49 56 44 41 40 41 37 38 35
27 29 27 36 46 40 37 22 17 12 11 37 39 39 38 40
38 39 39 40 38 38 38 39 39 39 38 40 38 38 38 38
39 39 39 39 39 40 40 40 40 40 40 39 39 40 38 40
36 38 40 42 44 49 50 12 0 0 0 0 7 14 32 31
15 13 5 0 1 1 11 14 14 11 15 15 25 29 13 28
35 33 31 26 30 32 31 31 32 33 34 37 57 97 98 101
124 129 130 144 146 146 146 146 146 145 145 145 145 144 135 116
107 88 80 81 79 77 71 62 58 50 49 50 44 41 45 41
39 31 37 19 34 60 42 35 26 14 10 31 39 38 39 39
38 38 39 38 38 39 38 38 39 39 39 38 39 38 38 38
39 39 40 40 40 39 39 39 39 37 37 37 37 38 38 38
21 26 33 34 32 42 46 9 0 0 0 1 0 7 36 29
13 13 7 0 0 0 3 6 5 2 10 12 23 38 41 40
41 41 36 7 20 32 32 31 32 33 33 37 76 100 98 110
136 133 137 146 147 147 146 146 146 146 146 146 146 146 144 123
106 106 84 73 81 84 88 75 66 53 49 51 50 44 50 46
44 44 39 22 8 37 46 39 42 23 18 29 40 38 39 40
39 38 37 38 37 38 38 38 37 37 36 38 36 37 35 38
40 39 37 38 37 40 40 38 36 36 36 36 37 36 36 34
27 25 31 32 32 43 46 5 0 0 0 1 0 0 38 25
13 9 3 0 0 5 0 0 0 0 0 2 18 40 34 28
28 31 37 37 34 32 32 32 33 25 21 37 93 102 102 117
143 127 103 85 74 67 66 76 105 136 147 146 146 146 145 143
116 98 101 91 82 89 94 90 76 66 54 45 48 42 46 39
41 38 33 27 15 13 20 28 41 30 28 26 38 39 39 40
38 40 39 38 37 38 38 38 39 37 37 37 35 35 33 33
31 30 29 28 26 24 24 22 21 20 18 17 17 16 15 15
15 25 34 37 41 46 44 3 0 0 0 0 0 0 43 11
3 0 0 0 3 12 6 1 0 0 0 0 19 43 35 25
29 29 29 31 33 32 33 33 33 14 17 43 100 102 101 99
66 11 3 3 3 3 8 69 131 114 111 109 117 134 147 147
144 112 88 100 92 93 99 97 86 83 70 49 48 40 46 40
34 36 31 34 22 4 12 15 26 24 42 32 37 36 36 34
33 33 39 34 27 26 25 24 22 21 21 20 19 19 19 18
18 17 17 16 16 16 17 18 18 18 18 17 18 18 18 20
0 0 1 6 14 23 35 3 0 0 0 0 0 3 46 9
0 0 0 0 0 9 14 4 0 0 0 0 21 43 35 15
32 34 28 30 33 33 32 27 14 7 11 35 83 97 84 19
5 8 9 7 4 2 7 36 72 92 116 124 122 92 78 92
106 129 114 95 98 106 91 103 84 85 93 71 59 52 48 50
40 33 33 32 37 18 9 7 12 12 36 32 22 21 21 20
20 19 35 35 15 19 20 21 22 21 21 22 23 22 22 23
23 23 23 23 24 23 25 24 24 24 24 24 24 24 25 26
0 0 0 0 0 0 19 2 0 0 0 0 0 7 46 6
0 0 0 0 4 8 18 11 8 0 1 0 22 45 36 12
25 22 23 31 33 33 32 9 0 5 6 5 43 86 54 2
12 8 5 4 2 1 12 21 16 23 29 41 54 74 83 98
103 84 66 62 65 97 112 97 97 93 95 100 68 56 51 47
44 43 33 28 34 26 20 7 10 12 26 33 24 26 25 26
26 26 29 27 19 24 27 27 27 28 27 28 28 28 29 29
29 30 30 30 31 31 31 31 30 31 31 31 30 30 31 31
0 0 1 0 0 0 19 0 0 0 6 1 0 6 43 2
0 0 0 0 15 18 19 15 12 0 0 0 25 45 36 20
23 24 19 31 33 34 33 7 3 10 11 5 10 66 13 5
13 7 5 4 1 1 27 57 56 70 105 109 90 76 65 55
45 54 70 78 83 73 64 64 77 90 80 95 98 64 46 41
31 31 39 36 31 22 29 12 10 15 17 33 27 32 32 32
32 31 36 34 24 31 33 33 33 34 34 34 34 34 34 34
33 34 34 34 34 35 34 34 35 34 35 35 35 34 34 34
0 1 9 2 0 0 18 0 0 8 19 9 0 9 42 0
0 0 0 0 13 18 20 7 6 0 1 3 26 46 37 27
24 15 21 29 33 33 34 7 6 8 12 5 3 9 6 10
13 6 4 2 1 0 22 63 69 95 136 148 149 148 147 143
137 127 108 73 40 38 52 57 44 36 47 70 94 85 56 54
41 29 30 30 26 23 26 18 20 15 10 26 27 36 36 36
35 33 31 28 27 34 36 36 36 36 36 36 37 36 36 36
36 37 36 37 36 37 37 37 37 37 38 37 38 38 37 36
0 8 22 8 3 0 19 0 0 17 19 12 1 11 38 0
0 0 0 1 1 8 14 0 0 0 2 1 24 46 37 27
16 5 9 28 33 34 34 11 7 13 10 5 3 7 15 13
10 2 0 0 0 0 19 72 60 86 133 148 147 148 148 148
147 147 147 146 131 98 76 44 39 30 28 26 54 98 75 48
38 33 34 26 25 35 26 24 17 22 9 19 28 38 38 37
36 31 11 10 25 37 39 38 38 39 39 39 39 40 39 39
38 38 38 38 38 38 39 39 39 38 38 38 37 38 38 37
0 11 23 9 6 0 27 26 20 26 21 19 4 14 34 0
5 0 0 1 0 9 15 0 0 0 0 0 22 46 36 18
10 6 9 28 33 34 34 19 7 10 7 1 36 48 12 10
6 1 0 0 0 0 17 66 82 58 113 147 146 147 148 148
148 147 148 148 148 147 140 120 94 82 77 39 18 62 97 74
46 44 37 24 23 37 33 28 19 22 10 19 32 36 34 31
34 29 12 6 21 37 39 40 39 39 38 39 39 39 39 39
39 38 40 39 39 38 39 39 39 39 39 39 39 39 39 39
0 4 4 2 1 0 32 43 46 49 46 45 43 43 33 0
0 0 0 0 0 7 16 0 0 0 0 0 20 46 30 11
10 0 6 27 33 35 35 22 6 4 1 31 106 91 18 13
7 2 0 0 0 0 14 65 94 72 93 143 148 148 148 148
147 147 147 147 147 147 147 147 144 122 127 94 35 22 104 113
91 41 37 33 29 23 24 27 19 14 7 24 30 5 3 2
23 22 12 7 21 37 39 40 40 40 40 39 39 38 40 39
40 38 38 38 38 38 39 38 39 39 38 39 38 38 38 38
7 2 2 0 0 0 31 44 46 48 46 48 53 55 38 8
8 5 0 0 0 10 15 1 2 1 0 0 15 46 24 8
8 0 18 27 32 34 34 32 3 1 17 111 141 104 32 17
16 3 0 0 0 0 8 63 101 86 98 144 147 148 147 147
148 148 147 147 146 146 146 146 146 146 146 143 103 100 144 142
135 131 58 31 33 19 23 20 29 10 6 24 32 27 28 31
33 25 0 1 20 37 38 39 39 38 39 38 38 38 39 39
38 39 38 38 38 38 37 36 37 38 37 37 37 36 37 37
0 1 1 0 0 0 30 39 43 44 44 49 56 57 47 33
33 30 22 16 15 18 17 6 5 2 0 0 10 43 20 6
1 3 9 26 31 33 34 30 4 10 85 147 147 121 52 14
33 3 0 0 0 1 7 54 93 101 115 145 146 147 146 146
146 146 145 146 145 145 145 145 145 146 145 144 136 145 143 140
133 126 130 49 25 16 16 12 19 9 5 20 27 37 35 35
34 26 2 3 20 34 37 37 37 36 37 38 38 37 37 38
37 37 37 36 37 37 36 36 36 37 37 37 37 36 36 35
0 0 0 0 0 0 34 35 37 38 38 39 38 39 40 35
37 37 35 34 35 33 29 25 21 19 16 15 21 38 23 11
9 13 2 19 31 33 33 28 8 42 137 148 148 133 77 11
50 19 2 2 1 2 7 55 96 102 128 146 146 146 146 146
146 146 145 145 145 145 145 144 144 144 144 144 143 122 138 145
144 143 129 112 21 18 16 9 16 11 2 9 22 37 36 35
34 28 5 1 24 35 37 37 37 37 37 36 37 36 37 37
37 36 37 35 36 36 36 35 36 36 36 36 36 36 36 36
16 9 3 0 0 0 38 37 35 36 36 36 35 31 34 37
38 39 37 36 36 36 35 34 31 28 24 23 27 41 32 24
21 16 11 15 31 34 33 29 12 112 148 147 147 143 103 22
53 58 8 4 2 3 8 69 97 105 141 146 146 146 146 145
146 145 145 145 144 144 145 145 145 145 144 144 143 128 143 144
144 144 136 123 38 24 13 8 8 10 0 1 28 37 37 35
33 28 10 6 29 36 37 37 37 37 36 37 36 37 36 37
37 36 37 36 36 36 36 36 36 37 36 36 36 36 36 35
45 47 39 39 36 28 46 40 38 37 37 37 38 39 41 39
40 43 46 43 37 36 37 35 43 42 38 35 33 43 47 45
43 38 33 28 31 33 34 33 64 141 148 147 148 146 116 64
31 64 30 4 2 4 23 89 99 127 147 146 146 146 147 146
146 146 145 145 145 145 145 145 145 145 145 145 133 145 145 145
144 145 142 126 51 14 17 7 5 7 0 3 35 37 37 34
33 28 25 23 32 37 38 38 38 37 37 36 37 36 37 37
36 37 36 35 37 36 36 36 36 36 36 36 36 36 36 35
57 55 54 54 55 54 54 43 40 40 40 40 42 45 49 42
42 45 53 47 39 34 36 38 48 47 44 41 41 39 34 33
37 39 41 37 32 33 34 51 107 142 148 147 148 147 129 108
56 37 29 2 1 10 65 96 118 146 147 146 146 146 146 146
146 146 146 145 145 144 145 145 145 145 145 143 83 118 145 145
145 145 144 132 38 10 10 9 4 5 0 18 38 37 37 35
33 30 29 31 35 38 38 37 38 37 37 37 36 37 37 38
37 37 37 36 36 36 37 36 36 37 36 37 36 36 36 35
49 52 54 55 56 56 56 36 31 30 33 34 40 47 51 42
44 45 48 43 39 36 30 36 49 47 44 42 43 40 34 25
23 22 23 26 32 34 38 88 129 146 148 147 147 147 135 116
138 88 41 28 36 64 87 121 146 147 146 147 146 146 146 146
146 146 146 145 145 144 144 145 145 145 145 144 124 119 134 145
145 144 144 126 18 10 5 7 8 7 10 36 37 37 36 35
33 32 32 36 37 37 37 37 38 37 37 37 37 37 37 37
37 37 36 36 36 36 36 36 36 37 37 36 37 36 36 36
29 28 29 32 35 40 46 21 3 4 1 4 9 19 45 43
41 29 27 36 36 35 33 30 36 31 35 40 44 42 40 32
29 27 26 28 33 34 51 104 143 148 148 147 147 147 141 121
139 133 120 113 113 122 138 147 146 147 147 146 146 146 146 146
146 146 145 145 145 144 144 145 145 145 143 139 145 130 119 139
144 144 144 89 8 10 3 4 13 14 33 39 36 37 36 36
34 34 35 37 38 38 37 38 37 38 38 38 37 38 38 37
37 37 38 37 37 38 37 36 36 36 36 35 37 36 37 36
37 35 34 32 30 29 32 16 2 0 0 0 0 1 39 43
29 2 2 5 10 12 27 34 23 4 1 4 14 20 33 37
33 33 34 34 35 35 49 103 137 140 146 148 149 148 148 145
133 127 123 126 135 143 147 147 146 146 147 146 146 147 146 146
145 145 145 145 145 144 145 145 145 145 143 134 146 141 116 132
146 144 139 40 16 11 8 10 17 29 38 38 36 37 38 36
35 35 36 36 36 37 37 36 37 37 38 37 37 38 37 38
37 38 37 37 36 36 36 36 36 36 36 31 35 36 35 36
39 40 39 39 38 37 37 15 5 1 0 0 0 12 42 39
9 0 0 0 2 8 32 36 21 0 0 0 3 12 29 30
31 34 39 41 43 42 37 72 126 103 83 130 149 148 148 147
129 121 123 130 140 146 147 147 147 147 147 147 146 146 147 146
146 145 146 145 145 143 145 145 145 146 145 138 144 144 122 131
145 143 96 19 17 16 10 10 29 37 37 37 37 37 37 37
36 36 37 37 37 37 37 37 38 38 37 37 37 36 37 38
37 37 37 37 37 36 36 36 37 36 36 36 36 36 35 35
42 42 40 40 41 41 40 15 4 1 0 0 0 15 43 32
2 0 0 0 0 2 35 36 22 0 0 0 1 12 28 7
3 8 11 15 29 43 36 35 73 118 109 94 110 139 147 139
131 118 121 132 141 146 147 148 147 148 147 146 147 147 147 146
146 146 146 146 144 144 145 146 145 145 145 144 143 130 117 140
140 136 44 19 13 8 11 14 38 38 38 38 38 38 37 37
36 38 39 38 37 38 38 39 38 37 37 37 37 37 37 36
37 37 38 37 36 36 36 37 37 37 36 36 37 36 36 36
14 20 27 31 37 42 43 12 1 0 0 2 6 2 40 24
0 0 0 0 0 1 36 35 19 0 0 0 0 9 29 5
2 12 5 0 17 44 35 30 35 42 59 104 117 107 124 135
139 123 120 133 140 147 148 148 147 147 147 147 147 147 147 147
147 147 146 146 145 144 145 146 145 142 133 137 144 141 140 133
141 85 25 16 11 7 10 23 38 38 37 38 37 38 37 39
38 38 39 38 38 38 38 38 37 38 39 39 38 37 38 37
38 37 37 37 37 36 37 36 37 36 36 36 37 36 35 36
32 28 24 18 5 23 48 19 1 0 0 1 8 1 40 22
0 0 0 0 0 3 38 33 16 0 0 0 0 8 31 5
4 13 10 0 17 44 35 29 36 38 46 95 125 129 141 142
141 132 123 131 142 147 147 148 148 147 147 147 147 147 147 147
147 146 146 145 145 144 145 145 145 142 131 141 146 145 137 141
111 42 25 17 16 9 9 33 37 37 37 36 37 37 38 38
38 38 39 38 38 37 38 37 38 37 37 37 38 37 38 37
37 37 37 37 37 36 37 37 37 37 37 36 36 36 35 35
38 38 37 37 14 18 50 24 6 0 0 4 6 0 39 18
0 0 0 0 0 4 39 32 13 0 0 0 0 1 31 5
3 5 1 0 17 45 35 29 36 37 43 77 109 119 130 131
134 133 134 137 140 147 148 147 148 148 147 147 147 148 147 147
146 146 146 145 143 142 144 145 143 144 146 145 146 146 146 122
57 32 22 19 14 9 23 38 38 37 37 36 38 37 37 38
37 38 38 38 38 38 38 38 38 37 38 37 38 37 37 37
37 36 37 37 37 37 36 37 36 37 36 36 35 35 35 35
38 37 37 36 14 17 49 14 0 0 0 1 5 2 40 16
0 0 0 0 0 1 39 32 17 1 0 0 0 1 32 6
6 10 6 0 19 44 34 30 36 37 42 72 94 110 115 119
124 128 138 141 145 146 148 148 148 147 147 147 148 147 147 147
147 146 147 144 143 140 141 145 142 145 145 146 146 143 127 96
49 25 24 14 12 16 35 37 35 22 23 22 23 22 24 31
38 37 38 38 39 37 38 38 38 38 37 38 36 36 37 36
38 37 37 36 37 37 37 36 37 36 36 36 36 35 35 35
31 34 36 36 16 15 45 7 0 0 0 0 0 1 41 16
0 0 0 0 0 1 38 32 15 0 0 0 0 0 34 6
0 2 1 0 20 43 32 32 36 37 42 80 99 113 112 115
120 124 134 142 148 147 148 148 148 148 148 147 147 147 147 147
147 147 145 141 140 137 140 144 82 129 144 141 134 122 115 75
32 21 20 11 11 31 37 37 34 12 10 10 10 10 11 24
39 39 38 38 37 38 38 38 38 38 37 37 37 36 37 37
38 37 36 37 36 36 36 37 37 36 37 37 36 36 35 35
2 26 35 36 17 13 39 3 0 0 0 0 2 1 42 17
0 0 0 0 0 0 38 31 10 0 0 0 0 0 35 8
0 1 0 0 20 42 30 33 36 38 42 70 93 114 121 118
120 119 125 136 147 149 148 148 148 148 148 146 147 147 146 146
146 145 144 140 135 130 131 140 86 105 130 133 135 124 114 62
29 24 16 10 20 36 37 37 32 12 10 10 11 10 11 27
39 39 39 38 38 38 37 38 37 36 37 37 36 37 36 36
38 37 36 36 37 36 37 37 37 36 37 37 35 35 36 36
0 33 39 35 19 9 39 20 15 9 7 9 15 6 42 27
7 5 5 4 1 3 38 32 19 7 3 1 3 1 35 10
0 0 0 1 22 38 28 34 36 37 41 51 71 87 96 112
122 119 112 123 141 148 148 148 148 146 147 147 147 145 145 144
143 144 142 136 125 129 130 138 141 146 146 146 141 128 107 46
29 21 14 13 23 36 36 36 30 11 10 11 11 10 11 27
39 39 38 39 38 38 39 36 37 36 36 37 36 36 36 36
37 37 36 37 37 36 37 37 37 37 36 37 36 35 35 35
0 32 41 35 21 4 40 41 40 34 36 37 38 42 41 48
51 45 45 45 41 40 48 34 36 40 40 38 40 40 47 15
3 1 0 1 23 36 28 33 36 37 42 62 74 98 107 108
101 92 93 100 128 146 148 148 147 146 146 147 146 144 145 144
143 141 135 131 127 122 128 138 146 146 146 146 140 130 89 29
25 19 14 10 22 37 37 37 30 10 10 10 11 10 10 24
38 38 39 39 38 38 37 37 37 37 37 37 37 37 37 36
37 36 37 37 37 36 37 37 37 37 37 36 36 35 34 34
0 31 41 35 22 4 41 42 36 37 39 39 35 35 35 45
55 51 49 49 52 54 54 37 35 42 44 46 51 56 54 38
32 30 27 24 32 34 28 33 35 37 41 54 70 94 122 131
131 115 104 86 105 139 148 148 147 147 147 146 146 145 142 142
142 135 132 124 123 118 126 138 145 146 146 146 139 127 77 18
26 15 12 10 23 37 36 36 31 12 11 10 12 10 9 23
39 39 38 37 37 38 37 37 37 37 36 36 36 36 36 37
36 38 37 37 37 37 38 36 37 37 38 36 36 35 34 34
0 31 41 35 23 3 41 32 31 31 35 38 37 34 34 33
40 42 45 44 48 48 50 41 28 36 41 45 52 55 55 37
32 31 32 33 35 32 30 31 35 36 38 36 45 63 84 103
120 128 140 121 87 126 146 148 147 146 147 146 145 145 143 141
135 131 128 122 120 115 127 137 146 146 146 145 139 126 68 16
28 14 8 7 22 37 36 36 32 19 18 18 18 18 17 22
35 36 35 35 36 36 36 35 35 36 37 36 36 36 36 36
36 37 37 37 36 36 36 36 37 37 34 35 33 33 32 32
0 31 41 34 24 7 42 21 25 28 28 35 37 36 37 28
22 24 25 24 25 25 28 31 27 30 34 35 33 30 33 33
34 34 32 31 31 33 31 29 33 34 36 39 53 72 86 94
97 117 126 127 99 106 141 145 145 144 146 143 142 140 138 134
133 126 121 117 116 119 125 139 145 146 145 143 135 116 58 16
28 8 7 6 23 36 37 36 31 12 13 13 13 14 15 23
36 38 38 38 38 37 38 37 36 36 36 37 37 37 36 37
37 37 36 36 36 36 36 37 36 37 36 36 35 34 34 34
0 31 41 34 31 26 42 10 1 4 7 11 16 19 34 30
25 26 27 31 30 28 31 33 34 35 37 35 34 30 29 32
34 34 33 34 33 33 33 32 32 33 39 46 87 115 125 123
114 107 115 121 110 98 134 143 143 142 141 140 139 137 132 130
124 121 117 115 114 120 130 143 145 145 145 141 134 113 57 13
14 4 7 6 24 36 37 36 31 11 10 11 11 11 11 23
37 38 38 37 37 38 37 38 37 37 37 38 38 36 37 36
37 36 35 36 36 37 36 36 36 36 37 35 35 34 34 33
0 29 41 33 35 46 46 10 0 0 0 0 2 7 33 32
39 39 36 46 47 37 36 39 39 42 47 46 40 33 31 31
33 33 34 33 33 32 32 33 34 37 41 59 98 110 126 137
135 120 109 116 112 104 127 139 139 135 134 132 132 126 128 122
118 117 112 111 116 123 133 143 145 141 140 140 132 104 60 21
8 7 6 6 25 36 37 36 30 10 10 11 11 10 10 24
39 38 37 37 37 37 37 37 37 37 37 36 36 36 37 36
36 35 36 36 36 36 36 36 36 36 36 35 34 34 33 33
0 28 40 32 34 48 49 13 0 0 0 0 0 5 39 30
41 42 38 51 54 16 11 14 18 24 32 46 43 34 32 32
34 33 33 32 33 32 32 32 34 36 41 68 93 105 124 131
130 123 117 115 106 103 123 133 131 134 131 128 128 124 122 115
112 109 109 112 121 131 138 142 143 142 141 137 130 98 68 30
9 9 6 6 25 36 38 36 29 11 11 10 10 10 11 24
37 38 37 36 37 37 38 37 37 36 37 36 37 36 36 36
36 36 37 36 36 35 36 36 35 36 36 35 34 34 32 32
0 26 40 32 33 44 45 15 0 0 0 0 0 3 41 28
38 31 7 16 38 6 0 0 0 0 6 41 44 33 34 33
33 33 33 33 33 32 33 32 34 36 40 64 86 89 120 124
121 119 120 114 105 110 121 128 128 128 124 122 121 116 114 109
110 109 115 119 131 135 141 142 144 145 143 141 131 103 70 41
8 9 6 6 26 35 37 35 28 9 10 10 10 10 10 25
38 38 38 37 38 37 38 37 36 37 36 37 36 36 37 37
37 36 37 35 35 36 36 36 35 35 36 34 34 33 33 32
0 25 40 32 27 15 13 0 0 0 0 0 0 5 42 29
38 28 0 2 32 6 0 0 0 0 4 39 43 33 33 33
33 33 32 33 32 32 33 32 33 34 40 49 78 82 110 118
117 121 120 114 110 110 111 117 121 118 115 114 115 112 110 107
110 113 121 126 132 140 140 144 144 145 145 142 134 107 76 45
7 9 6 6 27 35 37 35 27 9 10 10 10 10 10 27
38 37 37 37 37 37 36 37 36 37 37 36 37 37 37 36
37 36 35 36 35 35 35 35 36 36 35 34 34 33 32 32
0 24 39 32 27 14 10 0 0 0 0 0 0 7 41 29
40 27 0 3 33 6 0 0 0 0 2 38 42 33 33 33
33 33 33 32 32 32 32 32 33 36 39 37 61 70 95 112
116 117 118 110 104 102 102 105 106 106 105 107 106 107 110 112
113 121 128 132 139 142 143 145 146 146 146 144 133 112 87 49
7 8 6 6 27 35 37 36 27 9 10 10 10 10 11 28
37 37 37 37 37 37 36 37 37 36 37 36 37 36 35 36
35 36 35 35 35 35 35 35 34 35 35 33 33 32 31 31
0 23 38 31 27 16 10 0 0 0 0 0 0 8 40 29
40 22 0 2 31 7 0 0 0 0 0 35 42 33 33 32
33 33 32 32 31 31 31 32 33 35 36 31 41 54 70 91
104 111 110 104 97 85 86 88 93 92 92 95 96 104 112 114
119 128 133 135 140 141 142 144 144 146 146 145 137 116 94 56
7 8 5 6 27 35 37 35 26 8 9 10 10 9 9 28
38 37 36 37 37 36 37 37 36 35 36 37 35 36 36 35
35 35 36 35 35 34 35 34 34 34 33 33 33 31 31 30
0 24 39 31 27 17 10 0 0 0 0 0 0 6 41 29
41 20 0 3 31 6 0 0 0 0 0 34 41 33 33 33
33 32 32 32 32 31 31 31 33 34 36 31 29 32 46 61
82 91 93 87 83 81 80 81 81 83 86 94 103 111 117 120
125 129 133 135 137 142 144 144 144 147 147 145 139 123 103 68
8 8 5 6 28 34 37 35 28 12 12 11 9 9 10 29
37 37 37 37 37 36 36 37 36 37 36 36 36 36 36 35
35 34 35 35 34 34 35 35 34 34 33 32 32 31 30 30
0 25 39 30 27 20 10 0 2 0 0 5 1 5 41 31
41 22 2 3 29 10 1 0 0 1 0 34 40 32 32 32
32 32 32 31 31 30 31 31 32 34 37 32 22 19 22 31
39 49 58 65 72 78 78 86 90 92 98 100 106 105 115 121
128 128 132 135 140 141 143 141 147 146 146 144 139 126 110 88
14 7 6 6 30 35 37 35 35 33 34 30 22 29 26 32
36 36 37 37 36 36 36 36 37 36 36 37 36 36 36 36
36 35 35 35 35 35 35 34 34 34 33 32 32 32 31 30
0 25 37 30 27 20 11 2 2 0 0 10 11 5 42 33
43 22 15 3 30 10 5 3 4 0 1 34 39 31 32 32
31 31 32 32 31 31 30 30 31 33 37 33 27 21 21 23
20 25 28 29 45 57 70 81 89 90 97 102 107 110 117 121
123 126 132 135 137 138 136 141 145 147 146 145 137 132 119 98
31 8 7 7 28 34 35 36 36 36 37 37 36 35 35 35
36 36 36 37 36 36 36 36 35 36 36 36 36 36 35 35
35 35 36 35 35 35 36 35 34 36 34 32 31 31 31 30
0 25 37 29 26 20 21 13 15 11 9 16 18 11 46 33
43 16 24 6 28 4 5 11 7 0 0 32 37 31 32 31
31 31 30 31 30 30 30 29 31 32 36 32 25 28 26 26
25 30 28 14 46 36 45 62 79 88 97 101 105 110 117 118
123 123 126 136 138 133 138 135 143 146 146 145 142 134 126 111
57 2 2 2 11 21 30 35 37 37 37 37 37 37 38 37
37 37 38 37 38 37 37 36 36 36 35 36 36 36 36 36
35 35 35 35 35 34 33 34 33 33 36 34 33 32 31 30
0 25 37 30 26 20 35 42 44 44 44 43 44 46 54 36
43 9 23 13 28 9 10 11 7 3 3 30 34 30 31 31
31 31 31 30 31 30 30 30 30 30 35 32 27 30 29 28
30 33 28 12 52 55 45 50 69 89 101 106 114 118 122 122
124 123 125 132 130 131 140 142 145 147 146 145 141 136 133 122
94 17 0 0 3 6 9 14 26 36 35 35 35 35 37 35
35 36 36 36 35 37 35 37 36 36 36 36 36 35 35 34
35 35 34 35 33 33 34 34 34 33 32 32 31 31 30 31
0 27 36 29 26 20 35 47 48 48 48 48 49 53 59 44
42 5 11 16 29 26 26 25 24 24 23 26 27 30 30 30
31 30 30 30 30 30 30 30 30 29 35 31 28 32 31 30
32 35 28 10 49 55 55 51 63 83 102 111 120 125 127 127
130 129 132 134 138 139 142 146 147 147 146 146 144 142 139 129
114 67 4 0 0 2 3 10 20 30 36 35 34 35 35 35
35 35 36 36 36 35 35 36 36 36 36 36 35 35 35 35
35 35 35 33 34 34 33 34 33 33 33 32 31 30 29 29
0 27 36 28 26 19 22 34 35 36 37 38 40 43 48 43
40 4 1 6 29 23 26 25 25 24 24 24 27 30 30 31
30 31 30 31 30 30 30 30 29 29 34 27 28 33 32 32
34 36 28 9 46 55 56 54 58 72 95 111 122 123 134 134
136 134 132 137 142 141 145 147 147 146 147 147 145 143 142 139
128 107 55 2 0 0 1 15 21 23 37 35 34 35 36 35
35 35 35 35 35 35 36 36 36 36 36 36 35 36 35 34
36 33 34 34 34 34 34 34 34 33 33 32 31 31 30 28
0 28 36 27 25 19 12 10 9 9 9 10 12 14 18 25
38 4 1 4 29 26 30 30 29 29 29 29 29 30 31 31
31 30 30 30 30 29 30 29 30 29 33 27 29 35 32 33
36 37 28 8 43 55 57 55 54 71 85 106 118 126 128 134
136 137 135 140 142 143 146 147 147 147 147 146 146 145 145 142
137 123 102 45 0 0 6 19 22 21 35 34 33 35 36 35
35 35 36 35 34 35 35 36 38 37 36 35 36 36 36 35
36 35 34 34 34 34 35 34 35 32 33 32 32 30 30 28
0 29 35 27 25 21 16 13 12 10 11 11 12 14 17 26
37 4 0 2 29 26 30 30 30 30 30 30 30 30 30 30
30 30 30 30 31 30 29 30 29 29 30 29 30 35 34 34
37 37 27 8 37 55 56 55 53 62 81 98 111 120 129 132
138 142 140 141 144 146 148 148 147 147 147 147 146 147 147 145
143 137 120 79 21 2 15 21 21 19 28 35 32 35 35 35
35 35 34 34 35 35 35 38 39 40 38 38 38 37 36 37
37 36 35 36 35 35 36 35 35 34 34 32 31 31 29 28
0 30 33 27 24 22 20 18 17 15 14 13 14 17 19 29
37 10 9 10 32 25 30 30 30 30 29 30 30 30 30 30
30 30 30 31 30 30 30 30 28 29 28 31 30 35 35 35
38 38 27 7 33 56 55 47 33 58 72 92 107 117 125 132
137 140 140 141 145 147 148 148 148 148 147 147 147 148 147 148
147 144 135 84 34 22 20 21 19 20 22 33 33 34 36 35
35 28 20 21 23 26 42 49 51 51 50 49 46 46 45 44
44 42 40 40 39 39 39 38 37 36 35 35 33 32 31 30
1 34 35 27 24 22 21 19 19 19 19 19 18 18 20 33
39 30 44 46 41 24 30 30 30 30 30 29 30 29 29 30
30 30 29 30 30 30 30 27 27 27 31 32 32 35 35 36
38 37 27 7 29 56 55 21 23 68 59 83 99 112 120 125
136 141 145 144 146 147 148 147 148 146 148 147 147 148 147 147
147 146 137 71 38 20 22 21 21 20 21 23 31 33 36 33
33 12 0 0 0 4 53 57 57 57 57 57 57 57 56 56
57 56 55 55 54 53 52 51 50 48 47 44 42 39 37 33
19 34 32 26 24 21 21 19 18 19 18 19 19 20 19 28
30 25 36 39 34 24 28 28 29 28 29 29 29 29 30 29
30 29 29 29 29 28 28 27 26 26 33 31 31 35 35 36
37 36 26 7 26 55 40 5 13 71 69 65 89 104 113 123
137 140 146 146 147 147 148 148 147 146 147 147 147 147 146 147
147 146 108 61 24 19 22 21 23 22 22 23 25 34 36 35
33 9 0 0 0 9 57 57 57 56 57 56 57 57 57 57
57 57 57 57 57 57 56 55 56 55 56 54 53 52 50 49
27 26 26 26 23 22 21 20 19 18 18 18 18 20 22 25
24 20 19 24 25 26 28 28 29 28 29 29 29 29 29 29
29 29 29 29 28 29 28 26 26 28 33 32 32 34 35 35
37 35 25 6 21 51 11 3 9 69 83 70 73 93 111 125
138 142 142 146 148 148 148 148 147 144 146 148 147 147 148 147
147 130 77 36 20 21 21 21 22 22 22 23 23 31 35 35
31 6 0 0 0 16 57 56 57 56 57 57 57 57 57 57
57 57 57 57 56 56 57 55 55 55 54 53 53 52 50 49
26 26 26 25 23 21 21 20 20 19 18 17 19 19 23 26
25 24 22 24 25 26 27 28 28 28 28 28 28 27 28 28
28 28 28 29 28 28 28 26 24 28 32 33 31 33 35 35
36 36 25 6 17 30 3 2 4 63 84 83 73 86 108 122
136 142 142 143 147 148 148 147 147 144 145 147 147 147 147 146
141 91 49 19 21 22 21 21 23 24 23 23 24 26 33 33
29 3 0 0 0 24 57 57 57 56 56 57 56 57 57 56
57 57 57 57 56 56 57 56 55 55 54 54 53 52 51 49
26 25 26 24 21 20 20 20 20 20 19 18 18 19 24 25
25 24 22 24 25 26 26 28 27 27 28 27 28 27 28 28
27 27 27 28 27 26 26 25 22 29 31 33 30 32 35 35
36 35 24 6 12 9 3 1 12 71 83 92 79 80 99 119
133 139 139 142 146 147 147 147 146 146 147 146 148 147 147 144
103 56 21 23 23 22 22 22 23 23 22 24 24 25 34 39
29 2 0 0 0 30 57 56 56 56 56 56 55 56 56 56
56 56 57 56 56 56 56 56 55 55 54 53 53 52 51 50
18 17 17 19 19 19 19 20 19 19 19 18 19 20 24 25
24 24 23 24 25 25 26 27 27 27 27 27 27 27 27 27
27 26 27 27 27 26 26 25 25 29 32 34 30 29 33 34
36 35 24 8 7 3 2 1 47 73 81 95 90 82 92 115
130 135 134 141 147 148 147 146 147 147 146 147 147 147 143 110
59 19 21 23 21 22 23 23 24 24 22 24 23 23 34 41
34 1 0 0 0 40 56 56 56 55 56 55 55 55 56 55
55 56 56 55 56 56 56 55 55 54 54 53 52 52 51 49
15 17 17 19 19 19 19 19 19 19 19 18 19 21 24 25
25 24 24 24 23 25 26 26 26 26 26 27 26 26 27 27
27 26 26 26 27 26 25 23 27 28 34 34 30 28 33 34
39 41 37 25 4 4 1 3 60 69 81 94 98 87 89 108
122 130 132 141 148 148 148 145 146 147 147 148 147 141 106 66
20 21 22 22 20 21 23 24 24 23 23 23 22 23 30 30
34 29 2 0 0 47 55 55 55 55 55 55 56 56 55 56
56 56 56 56 56 55 55 55 55 54 53 53 52 51 50 49
14 17 17 18 18 18 19 19 19 19 18 19 19 22 25 25
24 24 25 24 24 25 25 25 26 25 26 25 26 26 26 26
26 25 26 25 22 24 23 22 28 28 35 33 30 28 32 33
33 31 28 12 6 4 2 22 68 82 86 92 104 97 93 100
114 124 128 141 146 147 147 147 146 147 147 147 139 100 67 23
21 24 24 21 23 22 23 22 23 23 24 24 22 27 28 35
34 27 32 6 4 51 55 55 55 54 55 55 55 55 56 55
56 55 55 56 55 55 55 55 55 54 53 52 52 51 51 49
14 17 17 18 18 18 19 19 19 19 18 19 20 23 26 25
24 24 24 24 23 23 25 25 26 25 25 25 25 25 25 25
25 23 25 23 15 15 18 24 27 30 34 33 30 24 28 35
39 37 23 11 14 10 14 42 82 87 93 95 107 105 98 97
106 116 122 141 147 147 147 146 146 145 147 137 102 65 22 22
24 23 24 22 22 21 23 22 25 24 23 22 22 37 24 34
38 50 58 36 24 53 54 54 54 54 54 54 54 54 55 55
55 55 55 56 55 55 54 55 55 55 54 53 52 52 51 49
13 18 19 20 21 22 22 22 22 22 22 23 23 24 26 24
23 24 24 24 24 23 25 24 25 25 25 24 24 25 25 25
23 22 22 24 23 16 20 25 28 34 31 24 24 34 43 37
25 14 11 15 19 27 31 69 122 74 102 99 113 113 104 101
101 110 118 142 148 148 147 145 144 143 129 99 68 23 23 23
22 23 23 23 23 22 22 22 23 24 23 20 29 39 21 37
40 81 73 44 38 49 53 54 54 54 54 54 54 54 55 55
55 55 55 54 55 54 55 54 54 54 53 53 52 51 50 49
17 19 21 23 27 26 26 25 25 26 26 26 25 25 26 24
23 23 23 24 24 23 24 24 24 24 25 24 24 24 25 25
23 22 24 30 27 24 25 27 33 36 32 37 42 36 19 6
7 8 12 17 21 53 44 101 128 63 107 103 122 132 116 107
102 102 110 141 148 148 148 146 139 122 102 72 23 23 25 23
23 23 23 23 23 23 23 24 23 22 21 20 30 25 12 25
60 97 51 37 39 34 47 53 54 54 54 54 54 54 54 55
55 55 55 55 55 55 55 54 54 53 53 52 51 51 51 50
17 17 16 17 34 24 25 26 26 26 27 26 26 26 26 24
23 24 25 25 23 24 24 25 24 24 23 24 24 24 24 23
21 21 22 27 33 30 23 16 10 7 14 23 21 12 6 6
2 4 12 18 32 53 43 127 141 84 99 106 125 142 134 116
102 99 104 139 148 147 148 143 118 104 77 23 23 24 23 23
23 21 22 22 22 24 24 24 23 21 19 24 38 15 9 25
75 78 43 30 37 39 38 56 60 54 54 54 54 54 55 54
55 54 55 55 55 55 55 55 54 54 53 52 52 52 51 49
10 10 10 13 34 26 22 22 24 24 25 25 26 25 25 25
23 23 24 24 23 24 23 24 23 24 24 24 24 24 24 22
20 21 21 21 27 37 27 15 11 7 8 10 5 4 7 1
1 8 18 31 102 72 65 144 142 140 96 104 125 144 135 121
104 95 100 142 148 148 142 117 118 78 21 22 22 22 22 22
22 22 23 22 22 23 22 21 20 19 19 32 35 16 11 53
77 48 38 22 29 41 41 51 74 58 53 53 54 54 54 54
54 54 55 55 55 54 55 54 54 53 52 52 52 51 50 49
10 9 9 13 34 26 19 17 18 19 21 22 22 24 24 25
23 23 23 24 24 23 24 23 24 23 23 23 23 23 24 23
21 20 21 21 18 25 21 19 20 15 5 5 4 5 8 4
3 39 92 73 79 85 100 149 146 146 141 112 130 141 138 119
104 96 98 141 149 147 136 118 69 21 23 23 22 22 23 22
21 22 23 21 23 23 22 19 16 15 21 35 26 13 13 79
64 31 16 9 14 23 36 42 46 46 48 54 53 54 53 54
54 54 54 54 54 54 53 54 54 53 53 52 51 51 50 49
9 9 9 13 32 27 18 16 17 17 17 17 18 19 20 21
23 23 23 24 24 24 24 23 24 23 23 23 23 22 23 23
22 21 21 20 19 19 20 24 27 11 11 8 8 10 7 10
8 22 58 67 37 65 105 150 148 147 146 149 143 140 140 133
118 117 128 147 143 118 53 28 21 22 23 21 20 22 22 23
22 22 22 23 22 21 18 17 13 19 30 33 16 8 18 72
41 27 21 9 17 25 24 31 44 45 41 47 54 53 53 53
54 54 54 54 54 54 54 54 54 53 52 52 52 51 51 50
7 7 6 7 29 27 18 16 16 16 17 16 17 16 17 19
23 22 23 24 24 24 23 23 23 22 22 22 22 22 22 22
22 21 21 17 19 21 24 25 13 9 11 14 10 6 7 9
6 3 32 52 27 48 102 151 149 148 146 147 147 148 149 148
147 122 119 103 88 37 21 23 22 22 20 20 21 22 22 22
22 22 22 21 20 18 16 14 16 35 37 24 14 6 27 52
31 22 19 5 16 25 27 29 28 33 51 57 57 58 53 54
54 54 54 54 54 55 54 54 54 53 53 53 51 51 51 49
29 27 15 9 29 27 18 16 16 16 16 16 17 16 16 19
23 23 24 24 24 23 23 23 22 22 22 22 22 22 22 22
22 21 19 19 24 36 50 46 19 8 13 23 20 19 14 5
5 0 8 48 26 19 78 149 149 149 148 148 148 148 148 129
81 76 90 79 50 20 22 23 21 21 21 22 22 22 22 23
23 22 21 21 18 16 14 13 31 51 52 32 18 4 46 40
24 18 12 3 11 21 28 28 28 33 44 52 60 59 58 54
54 53 53 53 54 54 54 53 54 53 53 52 52 51 50 50
27 27 28 27 28 27 18 16 16 15 16 16 15 15 16 19
23 23 23 23 23 22 22 22 21 21 21 21 21 21 21 21
20 19 14 27 50 38 30 21 21 32 26 21 18 22 13 4
5 0 2 43 34 18 43 136 150 149 149 149 149 146 80 32
41 72 42 14 0 1 13 22 21 23 24 23 22 23 23 22
21 20 19 17 16 14 15 22 41 55 51 36 32 13 57 48
23 16 6 1 12 25 25 21 32 41 44 43 46 62 70 53
53 53 53 53 53 52 53 53 53 53 52 51 51 51 50 49
36 36 37 36 30 24 18 15 15 17 20 22 22 19 16 19
23 23 23 23 23 23 22 18 16 16 16 16 14 20 36 36
31 26 24 39 34 21 23 5 11 26 8 4 7 7 5 5
6 1 1 25 47 18 29 96 147 149 149 149 148 80 28 27
24 30 30 28 10 11 10 16 23 22 21 22 22 21 20 21
19 18 16 16 15 14 19 65 71 53 42 35 28 20 50 45
36 24 3 4 23 26 19 29 36 39 43 43 59 72 58 54
52 52 52 52 53 53 53 53 52 53 51 51 51 51 50 49
34 38 39 39 40 35 27 25 27 29 38 41 41 39 34 34
36 36 36 38 39 40 37 31 25 8 1 3 4 15 44 46
45 45 34 19 14 18 14 1 9 9 3 2 6 6 6 7
4 2 5 9 47 27 19 32 125 145 147 148 107 36 35 39
43 43 40 40 39 28 15 23 18 15 13 13 19 21 19 19
18 17 16 17 15 15 35 80 103 91 39 25 19 25 39 41
37 32 10 13 33 35 37 42 41 35 39 43 66 49 43 57
54 48 50 52 52 52 52 52 52 52 52 50 50 50 50 48
38 40 42 43 44 43 43 45 45 45 44 43 44 43 43 42
42 42 41 41 40 40 40 38 37 31 2 0 0 0 3 5
7 25 19 11 11 21 7 3 10 4 4 2 5 5 7 10
6 11 6 4 38 37 19 17 85 148 146 142 52 36 66 43
42 42 42 41 44 43 41 46 28 22 14 7 4 12 19 19
18 18 17 17 15 21 34 51 81 88 76 62 28 60 70 34
37 28 10 19 37 40 56 60 43 36 38 57 39 44 46 44
56 48 41 51 52 51 52 51 52 51 51 50 50 50 49 48
41 41 39 39 38 38 38 38 39 38 39 38 38 37 36 36
35 35 33 34 32 32 33 32 30 30 11 0 0 0 0 0
0 19 11 9 10 23 2 7 8 4 4 1 4 4 7 13
5 20 6 3 20 47 21 11 42 142 146 107 37 44 63 41
38 42 45 41 44 42 53 44 39 40 28 8 3 1 6 15
19 18 18 15 18 24 30 44 55 47 60 59 39 63 77 71
44 16 8 30 35 50 64 62 57 43 53 41 38 41 45 45
46 53 42 43 51 51 51 51 51 50 51 50 49 49 48 47
37 38 35 35 36 35 35 34 33 34 32 31 31 30 29 28
27 27 25 26 26 25 24 24 22 22 16 1 0 5 0 1
7 21 11 8 10 15 0 11 4 5 4 0 4 5 6 11
5 25 4 3 5 39 31 15 17 117 149 77 39 50 44 40
39 41 41 36 41 44 61 39 38 36 36 20 11 4 1 1
5 10 12 14 17 27 39 43 42 26 33 24 24 37 43 70
74 36 23 65 82 56 63 58 57 67 66 40 42 40 43 45
44 56 46 33 51 50 51 51 51 51 50 50 50 49 49 47
31 30 31 29 30 29 30 28 28 28 27 27 27 27 26 25
24 24 24 23 22 22 22 21 21 20 15 1 1 11 1 4
13 16 11 8 13 8 2 10 4 4 1 1 3 5 10 6
7 27 4 1 3 19 39 19 16 73 142 48 43 61 36 40
44 38 38 39 41 42 61 40 41 37 33 21 18 16 15 8
5 5 17 22 25 37 42 41 33 22 20 9 22 24 30 38
41 28 32 52 89 100 59 51 58 83 55 56 46 39 39 43
43 46 51 32 44 50 50 50 50 50 50 49 49 48 48 47
29 29 29 29 29 28 28 28 27 27 28 27 27 27 26 25
24 25 24 24 23 22 22 22 20 19 13 0 3 12 1 16
14 14 12 7 12 4 5 10 4 3 2 2 3 6 12 4
10 22 3 0 2 12 34 27 15 37 111 37 49 66 38 40
42 33 38 44 44 52 46 41 41 37 26 22 20 20 19 20
20 21 20 22 34 39 43 43 26 23 21 10 28 24 25 26
15 8 18 37 78 105 101 58 68 63 53 61 56 38 34 40
42 46 49 38 35 50 50 49 50 49 49 49 49 48 47 46
29 30 30 30 29 29 29 28 28 28 29 28 28 27 26 26
25 25 25 24 23 22 22 21 21 18 11 0 3 12 2 9
14 16 16 8 10 3 6 9 4 1 4 1 4 5 10 3
18 21 3 0 4 12 16 39 13 20 59 41 55 51 41 37
37 37 39 42 42 61 40 41 41 37 23 20 20 19 20 22
21 20 21 24 40 39 43 40 23 22 17 15 24 22 22 20
5 5 20 37 63 88 99 106 93 40 56 64 63 49 36 37
41 46 48 49 29 48 49 49 49 50 49 49 48 48 47 46
30 30 31 31 31 30 30 29 29 29 29 27 28 27 26 26
25 25 25 23 24 22 22 22 20 15 9 0 2 4 3 8
12 14 16 9 11 4 9 7 2 0 5 2 4 9 6 4
24 15 7 0 5 12 8 25 19 33 62 46 62 40 42 34
35 43 43 43 46 68 38 39 42 32 22 21 21 21 22 22
24 22 23 31 41 42 41 31 23 22 15 22 20 22 22 14
3 9 26 46 53 59 67 105 85 86 57 63 65 59 49 38
41 46 61 57 28 44 49 49 49 49 49 49 49 48 47 47
31 31 31 31 31 31 30 30 30 28 28 27 28 27 27 25
26 24 23 23 22 22 22 22 20 11 4 0 0 4 3 13
15 16 15 9 13 7 10 7 1 2 6 3 5 12 4 7
38 23 19 17 19 28 29 23 38 37 68 88 100 63 54 42
37 43 43 41 52 58 45 40 37 28 21 20 21 22 23 23
21 22 24 38 44 42 39 25 24 23 15 25 20 24 23 6
4 15 38 46 53 48 52 76 64 102 97 60 63 61 60 41
41 62 56 44 39 37 49 49 49 49 49 48 48 47 47 46
