P2
128 120
148
35 34 34 34 33 33 33 31 31 31 30 30 30 30 29 29
29 28 28 28 27 26 26 26 26 25 25 24 23 23 22 21
21 21 21 20 20 20 20 19 18 18 18 17 17 16 16 16
15 15 14 15 16 17 21 20 21 20 16 13 11 20 19 17
16 16 17 16 16 15 15 14 14 11 13 12 15 17 17 17
18 17 17 18 18 18 18 18 19 18 19 19 20 19 20 21
20 21 20 21 22 22 22 22 24 23 24 23 24 24 24 24
25 24 25 25 25 25 26 25 26 28 26 26 27 27 27 27
41 33 33 33 33 32 32 31 31 31 31 30 30 30 30 30
29 28 27 28 26 26 25 25 25 25 24 24 23 23 22 23
21 21 21 21 20 19 19 19 18 18 18 17 17 17 17 17
17 16 16 16 16 17 20 21 21 20 17 13 10 19 19 17
17 18 18 17 16 16 15 15 14 11 14 13 16 17 18 18
18 19 19 19 19 19 19 18 20 19 19 19 20 19 20 20
21 21 21 22 22 22 22 23 24 23 23 23 24 25 24 25
25 25 25 26 26 26 26 26 26 27 26 27 26 26 27 26
41 32 33 33 33 33 33 32 32 32 31 31 30 30 29 29
29 29 28 28 27 27 26 27 26 25 25 24 23 23 22 22
22 22 21 21 20 20 20 20 19 19 18 19 18 17 17 17
17 16 16 16 17 18 21 22 21 21 17 10 7 18 19 18
18 18 17 17 17 17 15 16 16 13 14 15 18 19 18 19
19 19 19 20 19 19 19 19 20 21 21 21 21 21 21 22
21 21 22 22 22 22 23 23 24 24 24 25 25 25 26 26
26 25 26 26 26 27 26 26 26 26 26 26 27 26 27 28
41 33 34 33 32 33 32 32 32 31 31 31 30 30 30 30
29 29 29 28 28 27 26 26 26 25 25 25 25 24 24 24
23 22 22 21 20 21 20 20 20 19 19 18 19 18 18 17
17 17 17 17 18 20 22 22 23 21 17 11 10 20 21 19
19 19 18 18 18 17 16 16 16 12 15 16 18 19 19 19
20 20 20 20 21 20 21 21 20 22 21 21 21 22 22 22
22 22 23 23 23 23 23 24 25 24 25 25 25 25 26 25
23 25 26 26 26 26 26 26 26 26 28 28 28 28 28 28
40 34 33 33 34 33 32 32 32 32 31 31 30 30 30 29
29 29 28 28 28 27 27 26 26 26 25 25 24 24 24 23
23 22 22 22 21 21 21 21 20 19 20 19 19 18 18 18
17 17 17 17 18 20 22 22 23 21 17 14 14 21 21 20
20 20 19 18 19 18 17 17 17 14 17 17 19 20 21 20
20 20 20 21 20 21 21 20 21 21 21 22 22 22 22 22
23 23 23 23 24 24 24 25 26 25 25 24 25 25 24 25
26 26 26 26 27 27 27 27 27 27 27 28 28 28 28 28
40 33 34 33 33 32 32 32 32 32 31 31 30 30 30 30
30 29 30 29 28 27 27 27 26 26 25 25 25 24 24 23
23 23 22 22 22 22 21 20 20 20 20 19 18 19 18 18
18 18 18 18 19 21 23 23 23 21 17 14 14 21 21 21
20 20 20 19 20 18 17 18 17 14 18 17 20 20 20 20
20 21 21 21 21 21 21 21 22 22 22 22 22 22 22 23
23 23 23 24 23 23 24 23 24 24 24 25 25 26 26 26
27 27 27 27 27 28 27 28 27 27 28 28 28 28 28 28
38 33 32 33 32 32 33 32 32 31 32 31 31 31 30 30
30 29 28 28 27 28 27 27 27 26 26 25 25 25 24 24
23 22 22 22 21 21 21 21 20 20 20 20 20 19 19 18
18 18 18 18 18 21 24 23 23 22 18 16 16 21 22 20
20 20 20 19 19 18 17 17 17 14 18 19 20 20 21 22
21 21 21 21 22 21 21 22 22 22 23 22 23 23 23 23
23 22 22 22 23 23 23 25 25 25 25 26 26 26 27 27
27 28 27 28 27 27 27 27 27 27 27 28 29 28 29 28
37 33 34 33 33 33 32 32 31 31 31 31 30 30 30 29
29 29 29 28 29 28 28 27 27 26 26 26 25 24 24 24
24 23 23 23 22 22 22 21 20 20 20 19 20 19 19 19
18 18 19 19 19 22 25 24 24 22 18 17 17 20 22 21
22 21 21 20 21 19 19 18 17 15 19 19 20 20 21 21
21 22 22 22 22 22 22 22 22 22 23 23 22 22 23 23
24 24 24 25 25 25 26 26 26 26 26 26 26 27 26 27
27 28 27 27 28 28 28 28 28 28 28 28 29 28 29 28
36 32 33 33 33 33 32 32 32 32 32 31 30 30 29 29
29 28 28 28 28 27 27 27 27 26 26 25 25 25 25 24
24 24 23 23 23 22 22 22 21 21 21 19 20 19 19 19
18 18 18 18 18 22 24 24 25 23 18 17 18 20 23 22
22 21 22 20 21 19 18 18 18 16 19 20 22 22 22 22
22 22 21 21 21 21 21 22 21 21 22 22 23 23 24 24
25 24 25 24 25 25 25 26 25 26 26 27 27 27 27 27
28 28 28 27 28 27 28 27 28 27 28 28 28 28 29 29
36 34 34 33 33 32 32 32 31 31 31 31 30 29 31 29
29 29 29 28 28 28 28 27 26 25 26 25 25 24 24 24
24 23 23 23 22 22 22 22 21 21 21 20 20 20 20 19
19 19 19 19 20 23 25 25 24 23 18 17 19 19 22 21
22 21 20 20 21 19 19 19 19 16 20 20 21 22 21 22
22 22 22 22 22 23 22 22 23 22 22 22 23 23 23 24
24 24 24 24 25 25 25 25 26 26 26 27 28 27 27 27
27 28 27 28 28 28 29 28 29 28 28 28 28 28 28 28
34 33 33 32 32 31 32 31 31 31 31 31 31 30 30 30
29 29 28 28 28 27 28 26 26 27 26 25 26 25 25 24
24 23 23 23 22 22 22 21 22 21 21 21 20 20 20 20
19 19 20 20 20 24 25 25 25 23 18 19 20 20 23 23
22 22 21 20 21 19 19 18 18 16 19 19 21 22 22 22
22 24 23 23 22 23 23 22 23 22 23 24 24 24 25 24
25 24 25 24 25 25 25 25 26 26 26 27 27 27 27 28
28 28 28 28 28 28 29 28 27 28 28 28 29 28 29 29
34 33 33 33 32 32 31 31 31 30 31 30 29 29 29 29
29 29 28 28 28 28 27 27 26 26 26 26 25 25 24 24
24 24 23 23 23 22 23 22 21 21 21 20 20 20 19 19
19 20 19 20 21 24 26 25 25 23 18 19 20 19 22 22
22 21 21 21 22 20 20 20 19 16 20 20 22 21 22 23
22 23 22 23 23 24 23 23 23 23 24 24 24 24 24 25
25 24 25 25 26 25 26 26 26 27 27 27 27 27 27 27
27 28 28 27 27 28 27 28 28 29 28 28 28 28 28 28
34 33 33 33 32 32 32 31 31 31 30 30 30 30 30 30
29 28 28 28 27 27 27 26 26 26 26 25 25 25 25 25
25 24 24 23 23 22 22 22 21 21 21 21 21 21 20 20
20 20 20 20 21 24 25 25 25 23 18 19 21 20 24 23
23 21 22 21 22 20 19 20 19 16 21 20 22 22 23 23
23 23 23 23 22 22 23 23 23 23 23 24 25 25 24 25
25 25 25 26 26 26 26 26 26 26 26 27 27 27 28 28
28 28 28 28 28 28 28 28 28 28 28 27 28 28 28 28
33 33 33 33 32 32 32 31 31 31 30 30 30 29 29 29
29 29 28 28 28 27 27 27 27 26 26 25 25 25 24 24
24 23 24 23 23 23 22 22 22 22 22 21 21 21 20 20
20 20 20 21 21 24 26 26 26 23 18 20 21 19 22 22
22 22 21 21 22 20 20 20 19 17 20 21 23 22 23 23
23 23 24 23 23 23 24 23 23 23 24 24 24 24 24 24
25 25 25 25 26 26 26 26 26 27 27 27 28 28 28 28
28 29 28 28 29 29 28 28 29 29 29 28 28 28 28 27
34 33 33 32 32 32 31 31 31 31 31 30 31 30 30 30
30 29 29 28 28 27 27 27 27 26 27 27 26 25 25 25
25 24 24 23 23 23 23 22 22 22 21 21 21 21 21 21
21 21 21 21 22 25 26 26 26 23 18 21 22 19 23 23
23 23 22 21 22 21 20 20 19 17 20 21 22 23 24 23
24 24 24 24 24 24 24 24 24 24 24 24 25 24 25 25
26 25 25 26 26 26 26 26 27 27 27 27 27 28 28 28
28 29 29 28 28 28 28 28 27 27 27 27 28 29 29 29
32 33 33 33 32 32 32 32 31 31 30 30 29 30 29 28
29 29 29 28 28 27 28 27 27 27 26 26 26 25 25 25
24 24 24 24 24 23 23 22 23 22 22 21 21 21 21 20
20 20 20 21 22 26 27 27 26 23 18 22 23 19 24 23
23 23 22 22 21 21 21 21 20 17 21 22 24 23 24 23
24 24 23 23 23 24 24 24 24 25 24 25 26 25 25 26
26 26 26 26 26 26 27 27 28 28 27 27 27 27 27 26
26 26 27 26 27 27 28 28 29 28 28 28 29 28 28 28
17 21 25 29 31 33 32 32 32 31 31 31 31 30 30 29
30 29 28 28 29 28 27 27 27 26 27 26 26 26 26 26
26 25 25 24 24 23 23 23 23 22 22 22 21 22 22 22
22 21 21 22 23 26 27 26 25 22 18 23 26 19 26 24
24 24 23 23 21 21 22 21 21 18 22 22 24 24 24 24
25 25 25 25 24 24 24 25 25 25 25 25 26 26 25 26
27 26 27 27 27 27 27 27 27 27 27 27 27 27 28 28
28 28 29 29 29 29 29 29 28 29 28 28 28 28 29 28
11 12 11 13 18 21 26 30 31 32 31 31 31 30 29 30
29 29 29 28 28 28 28 28 28 27 26 26 26 26 26 25
25 25 24 24 24 23 24 23 23 23 23 22 23 22 22 21
21 21 22 22 23 27 28 28 26 23 19 24 25 19 24 24
24 22 23 22 21 22 21 21 21 19 22 24 24 24 25 25
25 25 25 24 24 24 25 24 25 25 25 26 26 26 26 26
26 25 26 26 25 26 27 27 28 28 28 28 29 29 28 29
29 28 29 28 29 29 28 28 28 30 29 28 29 29 29 28
11 12 11 12 12 11 9 12 17 27 31 31 31 30 30 30
30 29 29 29 29 29 28 27 27 27 27 27 27 26 26 25
25 25 25 24 24 23 23 23 22 23 22 22 22 22 22 22
23 22 22 23 25 27 28 29 27 23 19 24 26 20 29 35
35 27 24 24 23 22 21 21 20 19 22 23 24 24 24 25
25 25 25 26 25 25 25 25 26 25 25 25 25 25 26 27
26 27 27 27 27 27 27 27 29 28 27 28 28 29 28 29
29 30 29 29 29 29 29 29 29 30 29 28 28 28 29 28
20 15 11 11 11 12 6 5 10 25 31 31 30 30 30 29
30 29 29 29 29 29 28 28 28 27 28 27 27 26 26 26
26 25 25 24 24 24 23 23 23 23 23 23 23 22 22 21
22 21 22 23 23 28 28 29 26 23 18 17 14 19 26 28
30 30 24 18 16 18 17 17 21 20 22 24 25 25 25 25
24 24 25 25 24 24 24 25 26 26 26 27 26 27 26 27
27 27 28 28 27 27 28 28 28 29 29 29 29 29 29 29
28 29 29 29 29 28 28 29 29 30 28 28 28 28 28 28
37 34 28 23 17 13 9 9 11 24 31 31 31 31 31 30
30 30 29 30 29 29 28 28 27 27 27 27 27 27 26 26
26 26 25 25 25 25 24 24 24 23 23 22 23 23 22 22
23 22 22 24 25 27 27 21 13 7 7 5 8 12 16 16
16 18 20 20 16 10 12 12 12 16 19 19 23 24 26 25
25 25 25 26 25 26 26 25 26 26 26 26 26 26 26 27
27 27 28 28 28 29 29 29 29 29 29 29 30 29 30 29
29 29 29 29 29 29 29 30 28 30 28 28 28 29 28 29
40 38 35 41 38 33 17 9 12 26 32 31 31 31 30 30
31 31 30 29 29 29 30 29 28 28 28 27 27 27 26 26
25 25 25 25 24 24 24 24 24 24 24 24 23 23 23 22
22 22 20 22 21 20 13 9 2 0 4 4 4 3 7 14
19 27 24 14 13 21 23 19 16 8 6 6 6 15 26 27
26 26 26 26 26 26 25 26 27 27 27 27 27 27 28 28
28 28 28 28 28 28 29 28 29 29 29 29 29 30 30 30
30 29 29 29 29 29 29 29 29 30 29 28 29 29 29 29
41 41 42 45 45 44 24 10 13 27 32 31 32 31 31 32
39 38 36 34 32 30 29 28 28 28 27 27 27 27 26 27
26 26 28 29 28 25 25 24 24 23 23 23 23 23 23 22
22 20 13 11 8 5 5 3 8 4 7 4 1 10 14 20
24 13 11 13 23 24 18 18 14 11 13 4 5 11 10 15
25 29 27 27 27 27 27 27 27 27 27 27 27 27 28 27
28 28 28 29 29 29 30 29 30 29 29 29 29 29 29 29
28 29 29 29 29 29 29 29 29 31 29 30 29 29 29 28
40 41 44 45 45 45 26 10 15 31 33 32 32 31 31 32
42 40 39 37 34 33 32 29 29 28 28 27 28 27 27 26
27 26 33 37 35 31 29 27 25 24 24 24 23 23 20 17
13 14 13 10 5 4 6 5 4 12 14 12 8 18 28 25
12 18 22 19 11 17 21 21 20 24 14 8 18 17 10 8
7 13 21 26 26 26 27 26 27 27 26 27 28 28 27 28
29 29 29 29 29 29 29 28 29 29 29 30 30 30 29 29
29 30 28 29 29 28 29 29 28 30 29 29 29 30 29 29
37 42 44 44 45 44 27 11 17 34 36 34 34 32 31 33
42 42 40 37 37 37 38 37 32 31 29 28 27 26 27 26
26 27 34 38 36 33 34 33 29 25 24 23 22 22 18 10
9 6 9 11 10 8 9 15 19 19 25 28 20 29 23 20
15 16 14 15 18 18 27 23 30 23 26 26 25 21 18 18
10 4 7 25 28 27 28 27 29 27 27 27 27 28 28 27
28 28 29 29 29 30 29 30 31 30 30 30 29 30 29 29
29 29 29 29 30 29 30 30 30 31 29 29 30 30 29 29
18 29 38 41 41 41 25 11 18 35 37 32 35 36 35 36
31 26 34 37 38 40 41 40 33 35 35 33 31 27 28 27
26 26 32 33 34 32 33 33 31 26 24 24 23 20 14 5
6 9 10 11 10 12 16 24 25 19 21 26 24 26 18 22
26 23 25 26 21 20 24 22 23 22 32 31 30 28 30 28
15 3 6 13 27 26 27 27 28 27 27 28 28 27 28 29
29 29 29 29 29 29 29 29 30 30 30 30 30 30 30 29
30 29 30 30 30 29 30 29 29 28 27 27 27 28 27 28
0 3 7 14 18 35 25 11 17 34 37 31 29 33 39 41
16 0 6 22 31 36 39 39 23 12 22 29 32 33 31 31
29 27 28 17 20 24 29 32 32 26 23 23 20 18 11 9
8 9 16 15 6 6 10 22 28 27 17 20 23 31 40 49
56 55 61 53 49 49 40 30 28 29 27 26 22 25 36 33
11 4 3 8 25 28 28 28 29 27 28 28 28 28 28 28
29 29 29 29 30 30 30 31 30 30 29 29 29 29 30 29
29 29 27 27 27 28 28 28 29 28 29 29 29 29 29 27
0 0 0 0 0 25 24 11 13 17 27 33 35 36 42 44
15 0 0 5 12 13 18 32 14 0 0 3 10 18 24 32
33 30 26 11 7 8 8 12 20 27 24 21 16 7 11 14
18 23 24 16 19 26 25 27 25 29 27 30 39 53 67 78
82 77 76 81 80 74 79 70 68 65 59 46 39 32 34 30
20 11 7 2 21 28 29 27 29 28 28 28 28 28 28 29
29 29 29 29 29 29 29 28 29 28 28 28 29 29 29 29
30 29 29 29 29 29 29 29 29 29 29 28 29 28 29 28
0 0 0 0 0 27 22 11 7 0 0 5 14 25 35 40
14 0 0 2 6 9 10 28 13 0 0 0 0 0 2 7
14 27 25 8 2 5 6 0 7 26 23 15 7 17 18 19
26 23 24 24 25 19 26 25 21 22 28 36 43 60 83 99
103 105 106 106 101 98 95 105 105 104 105 97 87 68 40 37
34 18 12 3 10 27 28 28 29 28 27 27 27 27 28 28
28 28 29 28 29 29 28 28 29 28 29 29 29 29 29 28
29 29 28 28 28 29 29 29 28 28 28 28 28 28 28 28
4 8 0 0 0 30 21 11 5 0 0 0 0 0 4 16
12 0 0 0 0 2 4 27 13 0 0 0 0 0 0 0
0 20 24 4 0 0 2 0 8 27 20 4 16 16 17 23
21 16 16 17 16 25 26 24 21 26 30 39 46 64 100 117
119 119 120 125 124 120 121 123 127 125 121 121 124 119 88 49
38 34 20 10 5 24 27 27 27 27 26 27 27 28 28 28
30 28 29 28 29 28 28 28 28 28 28 28 29 29 29 28
29 30 28 29 28 28 28 28 28 28 27 28 28 28 28 27
0 13 2 0 0 32 19 11 4 0 0 0 0 0 0 4
8 0 0 0 0 0 4 27 9 0 0 0 0 0 0 0
0 21 20 0 0 0 0 0 10 29 10 17 8 9 13 17
15 12 15 18 26 22 19 24 28 25 29 34 48 67 105 124
125 124 128 130 131 130 131 133 133 131 130 133 131 129 123 92
43 24 30 17 6 15 28 28 28 28 29 28 28 28 28 28
30 28 28 28 29 29 29 29 29 29 29 28 29 29 29 28
29 30 29 29 29 28 29 29 29 30 29 28 29 29 29 29
0 3 0 0 1 33 17 12 4 0 0 0 0 0 0 5
7 0 0 0 0 0 5 30 8 0 0 0 1 2 0 0
0 23 16 0 0 0 0 0 12 24 18 8 2 12 9 7
13 19 24 23 20 24 21 28 28 20 27 34 44 63 98 120
128 128 133 133 133 135 135 135 135 134 133 134 134 132 130 121
93 31 27 22 6 16 28 28 28 28 29 28 28 29 29 29
30 29 30 30 29 30 29 30 29 29 29 29 29 29 29 29
29 31 30 30 30 30 29 30 29 30 29 28 29 29 29 29
0 0 0 0 3 36 16 13 4 0 0 0 4 0 0 5
4 0 0 0 0 0 7 34 8 0 0 0 6 10 3 0
0 24 14 0 0 0 0 0 13 14 4 6 16 13 5 13
21 24 20 18 21 27 27 27 26 30 32 36 47 57 87 114
126 128 133 133 135 136 136 136 136 136 136 136 136 135 133 131
115 65 23 21 11 19 30 29 30 30 30 29 30 29 30 30
31 29 30 30 31 30 31 31 30 31 30 30 31 30 31 30
31 31 30 31 30 30 31 30 30 30 31 30 31 31 30 30
0 0 0 0 4 35 15 13 3 1 4 0 6 0 0 5
5 0 0 0 0 0 7 34 8 0 0 0 8 12 11 7
0 25 13 0 0 0 0 0 4 4 5 13 20 17 19 16
21 20 26 24 23 25 28 32 40 35 37 40 46 55 80 103
114 126 134 137 136 136 136 137 136 136 136 136 136 136 135 134
125 98 31 19 16 25 30 30 30 30 30 29 29 30 30 30
32 31 32 31 31 32 32 31 31 31 31 30 31 31 31 31
31 33 32 32 32 31 31 30 31 31 31 30 30 30 30 30
12 8 3 1 9 36 16 14 4 7 2 0 1 0 0 6
4 0 0 0 0 1 11 37 7 0 0 0 10 12 12 10
2 26 13 0 0 0 0 0 6 1 5 14 21 21 18 22
20 19 22 20 24 24 26 26 34 38 35 36 51 57 68 91
111 123 133 136 137 137 137 137 138 138 137 137 137 136 136 135
130 113 69 12 20 28 31 31 31 31 31 32 31 31 32 31
32 32 31 31 32 32 32 32 33 32 33 32 31 32 32 32
32 33 32 31 32 31 31 32 31 32 32 31 31 31 32 31
38 38 35 29 29 33 14 13 4 2 0 0 0 0 0 9
7 0 0 0 0 2 18 38 9 0 0 0 3 9 12 10
1 27 19 3 0 0 0 2 1 0 6 11 13 13 14 14
15 19 22 27 24 24 25 26 32 28 28 34 46 51 69 92
103 117 130 137 138 137 137 137 138 137 137 137 137 137 137 136
134 120 99 27 24 30 31 31 31 31 31 31 31 31 31 31
33 32 32 33 32 32 33 33 33 32 32 31 32 31 32 31
32 32 32 32 32 32 32 32 32 31 31 31 31 31 31 32
43 46 44 45 43 31 14 13 3 0 0 0 0 0 0 17
34 22 14 10 4 0 13 43 29 19 14 8 1 0 6 7
1 27 36 28 19 12 6 1 0 0 9 4 10 12 14 8
12 16 23 20 22 18 20 27 21 23 29 34 43 60 72 86
102 117 129 137 136 137 137 137 137 137 137 137 137 136 136 136
135 124 107 51 23 30 30 30 31 30 31 31 31 32 31 32
32 31 32 31 31 31 32 31 32 32 31 32 32 32 32 32
32 32 31 31 31 31 32 31 32 31 31 31 32 31 32 31
44 45 46 48 47 31 14 13 2 0 0 0 0 0 0 21
49 41 37 37 34 25 27 46 29 25 28 28 24 17 12 9
5 30 40 39 36 35 26 2 0 1 2 4 5 9 14 13
15 15 22 21 18 22 22 23 22 27 30 32 46 62 81 90
104 113 124 136 137 136 137 136 137 136 136 136 135 136 135 135
134 127 111 77 24 31 32 31 31 30 31 31 31 31 31 32
32 31 32 32 32 32 32 32 32 32 32 32 32 31 32 31
32 31 32 32 32 31 31 31 32 31 31 32 32 31 31 31
23 28 35 40 45 30 14 16 18 13 6 1 0 0 0 25
47 37 42 44 48 46 43 43 18 12 15 17 20 22 24 27
30 40 37 36 37 37 31 3 0 1 3 7 3 4 9 17
12 17 19 19 17 19 20 23 21 25 22 26 43 56 71 89
100 115 127 135 136 136 137 136 137 137 137 137 137 136 135 134
133 128 114 95 32 31 31 31 31 31 32 31 32 32 33 32
33 32 32 32 32 32 32 33 32 32 32 32 32 32 32 32
32 31 32 32 32 32 31 31 32 31 32 32 32 32 32 32
0 0 2 6 27 28 14 16 34 43 40 32 22 13 7 29
37 36 44 46 49 48 39 33 18 12 13 12 12 11 11 13
17 21 20 24 29 33 28 1 0 0 0 0 1 2 7 15
10 13 12 16 24 25 26 26 26 26 26 30 43 55 70 88
102 117 131 137 137 137 137 138 137 137 137 137 136 136 135 132
131 127 120 107 48 32 31 32 31 31 31 31 32 31 31 31
32 32 31 32 32 33 33 33 33 33 32 32 32 32 32 31
33 33 33 33 33 32 32 32 32 32 32 32 32 32 31 31
0 0 0 0 21 28 14 17 36 47 46 45 44 42 40 41
28 31 40 43 46 48 42 34 20 14 13 12 11 10 9 8
7 7 8 10 12 21 16 0 0 0 2 0 7 10 15 12
15 12 16 19 25 27 31 35 30 31 31 34 47 56 66 80
105 119 134 136 136 137 136 136 137 136 136 136 137 136 136 135
130 124 121 112 71 30 31 32 32 31 32 32 31 32 32 31
32 32 32 32 32 32 32 33 32 32 32 31 32 33 32 32
33 33 32 32 32 31 31 30 31 32 32 32 32 32 32 31
0 1 6 5 23 27 13 16 34 44 45 44 45 45 47 42
12 8 17 25 33 37 37 35 22 14 12 8 8 8 9 9
8 9 9 9 9 20 9 0 0 0 0 0 1 4 8 10
15 17 16 22 28 34 37 40 32 27 36 46 43 43 56 82
108 132 137 137 136 137 137 136 137 136 136 136 136 135 136 135
133 124 122 118 97 34 32 31 32 32 32 32 31 32 32 31
32 31 31 32 33 33 33 33 33 32 32 32 32 31 32 32
32 32 31 31 32 31 31 31 31 32 33 32 32 31 32 32
0 7 24 23 24 29 22 21 30 36 38 40 42 44 46 39
5 0 0 1 4 12 19 33 22 12 10 4 2 2 4 10
11 10 9 11 13 22 3 0 0 0 2 6 3 7 12 18
19 21 24 26 32 35 37 31 37 50 54 47 48 46 70 106
132 138 136 137 136 136 136 136 136 136 136 136 136 137 136 137
136 131 123 121 115 53 32 32 33 31 32 31 32 32 32 31
31 32 32 33 33 33 33 32 33 32 33 32 33 32 32 33
32 32 32 32 32 31 31 31 31 32 32 33 33 33 32 33
0 6 24 24 22 25 21 20 22 24 27 31 31 34 42 34
3 0 0 0 0 3 13 35 20 11 9 1 0 0 0 5
8 5 5 11 13 19 0 0 0 0 2 3 6 8 13 19
18 22 22 26 34 43 44 52 70 71 54 67 51 74 116 135
136 136 136 136 136 134 134 136 136 137 136 136 136 137 136 136
136 135 129 124 120 78 30 32 33 32 32 32 32 32 31 32
32 32 32 32 33 33 33 33 33 32 32 32 32 32 32 32
31 31 31 31 32 31 31 31 32 32 32 31 32 32 33 32
0 0 6 11 20 22 18 20 20 21 22 29 28 31 42 32
1 0 0 0 0 0 8 36 18 10 7 1 0 0 1 0
0 0 0 2 4 10 0 0 0 0 5 6 6 10 15 16
15 20 26 32 38 42 53 70 72 67 60 69 69 118 138 138
137 138 137 136 133 130 135 136 136 136 136 135 136 136 136 136
136 136 133 131 124 94 30 31 33 31 31 32 31 32 32 33
32 32 33 33 32 32 32 32 32 31 31 31 30 29 31 31
31 30 30 30 31 29 30 29 30 29 29 27 27 24 25 25
0 0 0 0 15 16 16 18 15 19 25 29 30 35 41 28
0 0 0 0 0 0 7 35 10 3 0 0 0 3 6 1
0 0 0 0 1 4 0 0 0 3 3 3 3 5 10 12
13 22 28 34 40 51 63 70 62 51 68 74 105 136 137 137
137 137 137 135 129 126 132 134 134 123 113 107 107 92 88 103
120 131 133 130 126 98 31 31 33 33 32 32 33 33 33 33
34 33 33 33 33 32 32 32 31 30 30 32 29 26 26 24
23 22 21 20 20 19 18 17 16 15 15 13 13 11 11 11
2 0 0 0 20 20 20 18 2 1 5 11 18 27 33 26
0 0 0 0 0 0 11 34 2 0 0 0 0 2 9 7
1 0 0 0 0 1 0 0 0 4 1 3 7 8 8 13
16 18 27 32 44 53 67 76 54 48 74 86 124 138 137 138
137 136 136 131 123 120 116 112 108 101 93 78 61 52 62 80
98 124 134 124 115 81 33 31 31 31 31 30 30 29 28 28
27 26 24 23 22 21 20 19 19 17 18 30 25 13 14 14
15 14 14 14 15 14 15 14 15 14 15 15 14 14 15 15
4 0 0 0 26 25 24 20 1 0 0 0 0 0 4 16
0 0 0 0 0 0 15 34 2 0 0 0 0 1 9 12
7 1 0 0 0 1 0 0 0 0 3 9 9 5 14 36
45 19 23 41 50 64 77 62 54 75 75 107 123 137 137 137
137 136 134 129 121 117 108 109 106 104 98 98 96 91 93 105
115 131 133 115 84 39 23 23 22 21 21 19 19 18 18 17
17 17 17 16 17 17 17 17 18 18 18 25 22 13 16 18
19 19 19 19 19 19 20 19 19 20 20 21 21 21 21 21
8 2 0 0 29 28 23 19 1 0 0 0 0 0 0 13
0 0 0 0 0 0 16 30 0 0 0 0 0 11 14 15
12 5 0 0 1 1 0 0 0 0 6 9 7 28 101 135
137 119 68 73 74 94 80 87 86 112 110 127 136 137 138 137
137 136 133 125 128 130 120 114 103 100 104 89 67 92 109 122
134 136 135 107 49 16 18 19 20 19 19 20 19 20 21 21
21 21 22 22 22 23 22 22 23 22 21 27 22 16 21 23
24 23 24 24 25 25 25 25 24 24 25 25 25 25 25 26
16 12 6 0 30 26 23 19 0 0 0 2 0 0 0 11
0 0 5 9 1 0 17 25 0 0 0 0 1 14 18 14
8 3 0 0 3 2 0 0 0 2 6 6 22 114 116 102
121 136 136 129 137 130 116 122 129 133 133 134 136 137 137 136
136 136 130 129 134 133 115 95 85 82 70 37 43 87 113 122
135 135 135 98 68 23 23 24 24 25 25 25 26 26 26 26
26 26 26 26 27 27 27 27 27 26 25 27 23 19 25 26
26 26 26 27 27 27 27 27 27 26 27 27 27 27 28 27
35 36 32 27 38 26 19 16 0 0 6 13 2 0 1 11
0 1 14 14 4 0 20 21 0 0 0 0 0 3 13 8
0 0 0 0 4 4 0 0 0 2 3 8 83 137 136 134
137 123 132 139 139 137 119 118 124 127 132 133 136 136 136 137
136 135 133 132 135 124 101 82 72 81 64 57 77 107 116 128
136 136 136 115 56 26 29 29 28 28 28 29 29 29 29 29
29 29 29 29 30 29 29 29 29 28 22 12 10 20 28 29
29 29 29 29 30 29 30 29 29 29 29 30 29 28 29 29
16 26 36 43 43 30 19 16 0 0 11 18 6 1 1 20
8 10 17 15 10 0 21 18 0 0 0 0 0 0 9 5
0 0 0 0 1 9 0 0 2 5 4 13 124 140 138 134
139 128 103 135 138 138 125 115 119 119 125 132 137 137 136 136
136 136 134 135 136 134 124 121 120 119 109 83 87 120 134 134
135 136 135 132 53 21 31 30 30 31 31 30 31 31 31 31
30 30 30 30 30 31 29 28 27 27 20 4 2 17 29 31
31 30 30 29 30 29 30 30 29 30 30 29 29 30 30 29
8 4 18 42 41 28 18 15 0 0 4 5 1 0 2 33
35 36 37 32 30 22 33 17 0 0 0 0 0 0 10 8
0 0 0 0 0 13 1 0 6 4 2 26 137 139 130 129
139 139 125 129 135 138 133 113 109 114 119 131 137 137 136 137
136 137 136 136 136 136 134 129 123 123 120 111 109 120 131 134
135 135 135 135 115 32 34 31 32 31 31 31 31 32 31 31
31 31 31 32 32 26 11 8 7 20 16 8 1 16 29 30
31 31 30 31 30 30 30 31 31 30 30 30 30 30 30 30
26 14 25 41 38 24 19 19 8 0 1 0 0 0 3 34
38 41 42 41 43 46 46 21 2 2 0 0 0 0 13 7
0 0 0 0 0 15 3 0 5 2 0 37 140 138 119 129
139 138 132 106 135 136 134 115 107 111 119 132 137 138 137 136
138 136 136 137 136 135 136 133 134 125 121 125 127 132 133 135
135 134 135 135 133 82 32 32 32 32 32 32 32 32 31 32
32 32 32 32 32 25 11 11 13 22 15 0 0 17 29 30
31 31 30 30 30 30 30 31 31 31 30 30 30 30 30 30
20 24 33 41 33 20 20 21 13 0 0 0 0 0 3 35
38 40 41 41 46 50 50 33 22 21 14 7 5 5 16 9
2 2 1 0 0 17 7 1 2 0 0 27 137 136 113 134
139 138 96 122 136 134 132 117 104 105 115 127 136 136 136 137
136 136 136 137 137 136 136 136 136 134 129 131 134 135 135 135
135 135 134 135 135 120 41 32 32 32 32 32 32 32 32 32
32 31 32 32 33 32 30 29 30 28 17 0 0 17 29 30
31 31 30 31 31 31 30 31 31 30 30 30 29 30 30 30
3 11 33 41 29 19 22 20 5 0 0 0 0 0 5 33
33 36 36 37 40 42 43 37 32 33 31 28 27 26 26 20
16 12 11 7 7 18 15 4 2 0 1 13 122 131 106 138
139 139 134 133 130 129 132 116 104 102 112 125 137 138 137 137
137 136 136 136 136 136 136 136 136 136 135 135 135 136 135 136
135 135 135 135 135 132 71 31 33 32 32 32 32 31 33 32
32 32 33 32 32 32 30 29 29 27 19 1 1 20 30 30
31 31 31 31 31 30 30 31 30 30 30 30 30 30 30 30
0 3 33 42 28 21 21 20 11 5 2 1 0 0 6 37
32 33 35 35 35 32 30 33 34 35 34 32 32 32 31 30
27 24 22 20 19 25 32 11 1 0 1 7 76 129 102 136
139 139 138 134 116 130 135 116 105 100 106 117 129 136 136 136
136 137 137 137 137 136 136 137 136 137 136 135 135 135 135 135
136 136 136 135 134 134 108 33 33 32 32 32 32 32 32 32
31 33 32 32 32 32 32 31 29 27 21 3 3 22 29 31
31 31 31 31 30 31 31 30 31 31 30 31 30 30 30 29
0 1 32 42 26 21 21 26 35 35 28 24 21 15 19 40
34 33 33 33 33 32 33 35 35 36 38 37 35 33 33 33
33 35 32 28 26 29 39 29 5 0 3 7 29 121 104 134
139 137 138 127 111 134 136 119 102 99 104 109 125 133 135 135
137 136 136 136 136 135 136 136 136 136 136 136 135 136 136 136
135 135 135 133 134 134 129 46 32 32 32 31 32 32 32 32
32 32 32 31 32 32 31 30 29 26 21 12 14 26 30 31
32 31 31 30 30 29 30 30 30 30 30 29 29 30 30 29
0 3 36 44 26 21 21 30 47 48 47 45 47 47 46 46
37 35 35 35 36 37 40 41 36 38 41 45 39 33 32 33
36 43 41 38 36 36 37 36 21 4 3 6 13 73 112 124
137 138 138 114 114 138 138 121 103 97 104 111 120 128 132 130
133 137 136 136 137 137 137 136 137 136 136 136 137 134 136 134
128 132 127 121 129 134 132 83 31 32 32 33 32 31 31 31
32 31 31 32 31 31 31 31 30 26 23 22 24 29 31 31
32 31 31 30 30 31 31 30 30 30 30 29 29 29 29 30
0 3 35 42 23 19 21 28 46 49 49 50 50 50 50 48
35 32 32 32 34 39 43 44 37 39 43 45 39 34 30 30
36 43 41 39 38 37 33 27 22 12 5 9 14 31 110 111
138 138 137 118 122 134 138 125 104 98 103 109 116 125 131 131
134 136 136 136 136 136 136 136 136 136 137 136 132 126 126 122
129 133 127 123 131 135 133 117 46 31 32 31 32 32 32 32
32 32 32 32 32 31 31 29 29 27 25 25 29 30 31 31
32 31 31 31 31 30 31 30 30 30 30 30 30 30 30 29
0 2 34 38 20 20 22 21 28 30 32 35 37 41 44 42
15 11 10 11 14 21 33 44 39 37 33 32 35 33 30 28
32 37 36 35 39 38 36 32 25 18 4 6 8 15 63 124
119 138 138 135 102 121 138 129 102 98 106 109 113 120 125 128
132 137 136 136 136 136 136 136 137 137 136 133 127 135 116 112
131 135 135 135 134 132 135 128 79 30 32 32 32 32 32 31
32 31 32 32 32 31 31 30 30 28 28 28 31 31 31 31
31 31 31 31 30 31 30 31 31 31 31 30 30 30 30 29
0 3 36 40 20 20 20 23 30 29 29 28 27 27 28 30
7 0 0 0 0 0 11 40 37 24 8 10 16 17 20 28
30 18 10 10 18 24 28 32 30 24 8 5 10 9 23 100
136 139 137 139 133 127 137 128 99 94 103 108 113 118 121 126
130 137 137 136 136 135 136 136 136 136 135 126 133 136 121 97
120 130 132 127 122 123 130 128 87 31 32 31 32 32 32 32
32 33 32 33 32 31 31 30 30 28 29 30 31 31 31 31
31 31 32 31 31 31 31 30 30 29 30 30 29 29 29 29
0 5 40 43 19 19 20 26 35 35 35 34 32 31 30 28
8 1 0 0 0 0 13 40 31 8 0 0 0 3 12 29
30 12 0 0 0 6 14 29 28 28 18 4 9 8 12 47
114 139 139 139 139 139 139 127 97 93 99 106 109 115 118 124
128 132 137 136 136 136 136 137 137 136 133 133 134 137 134 106
93 97 93 71 69 109 119 109 53 32 32 31 32 31 31 31
31 31 31 31 31 30 31 31 31 29 30 31 30 30 30 30
31 31 31 31 30 30 30 30 31 30 31 30 30 29 29 29
8 12 40 37 17 18 21 27 36 37 36 35 36 36 37 31
8 2 0 0 0 3 19 39 22 0 0 0 0 0 10 33
31 11 0 0 0 2 13 23 10 12 14 8 7 10 9 23
68 104 132 139 138 138 138 125 98 91 96 104 107 111 114 123
124 127 137 137 137 137 136 136 136 135 133 126 129 135 131 126
121 115 117 103 84 90 74 52 33 32 32 31 31 31 32 31
31 31 32 32 32 31 31 31 30 30 31 31 31 30 31 31
32 31 31 31 30 31 31 30 30 30 30 29 29 29 28 28
35 34 39 33 25 24 23 20 21 25 28 30 32 35 38 32
5 0 0 0 0 2 12 36 16 0 0 0 0 0 7 32
30 10 0 0 0 1 12 22 2 2 6 5 9 9 12 12
39 76 94 115 132 135 121 117 94 86 94 102 106 109 113 119
123 127 136 137 136 137 137 136 136 134 119 123 131 135 132 122
114 112 104 76 88 41 35 34 33 33 32 32 31 32 32 32
31 31 32 32 31 31 31 31 31 31 32 32 32 31 31 32
31 31 31 31 31 30 30 30 30 30 30 29 30 29 29 29
37 37 37 37 36 34 31 26 22 19 18 19 16 18 34 36
6 0 0 0 2 4 9 36 11 0 0 0 0 0 10 33
29 8 0 0 0 1 11 22 2 5 10 6 7 9 11 10
26 66 90 97 92 69 74 106 89 81 89 96 101 108 109 116
120 125 129 136 136 137 136 136 136 118 120 129 136 136 137 134
125 101 79 89 77 34 34 34 32 31 31 30 31 31 32 31
31 32 31 31 32 31 31 31 31 32 31 32 31 31 31 31
31 31 31 31 31 31 31 30 29 30 29 29 28 28 28 28
36 35 36 35 36 35 35 35 35 34 32 31 25 8 28 38
14 0 0 0 2 2 8 34 8 0 0 0 0 0 11 33
26 6 0 0 0 0 8 23 1 2 5 1 3 11 6 8
17 56 87 106 103 98 93 98 84 77 80 90 96 105 109 116
116 121 125 129 134 136 136 136 131 113 120 125 124 124 130 132
129 114 101 91 57 32 33 32 32 31 31 31 31 30 30 30
30 31 31 30 30 30 30 30 31 31 32 31 31 31 31 31
31 32 30 30 30 30 30 29 29 30 29 29 29 28 28 27
35 34 35 34 34 34 34 34 34 33 33 33 30 9 27 38
9 0 0 0 2 3 9 33 6 0 0 0 0 0 10 33
26 7 0 0 0 0 5 23 2 4 5 1 0 10 6 6
12 42 80 100 106 100 93 93 82 77 76 84 95 102 107 111
115 118 123 128 130 133 136 136 123 102 107 100 119 107 110 111
115 108 94 95 38 27 27 26 26 26 25 26 27 29 30 31
31 28 25 25 25 25 25 26 29 30 31 30 30 31 30 30
31 31 31 30 30 30 31 30 29 29 29 28 28 27 26 27
14 16 18 20 22 25 26 28 30 30 32 33 30 9 26 33
2 0 0 0 0 0 10 33 5 0 0 0 0 0 7 33
25 7 0 0 0 0 5 25 2 1 3 1 0 13 7 7
9 25 71 94 105 98 91 91 82 74 76 83 90 100 106 110
114 115 120 124 126 130 133 129 118 120 131 124 138 137 135 129
114 96 91 93 13 10 11 11 9 8 7 8 12 23 31 30
31 26 10 8 9 9 8 11 22 31 31 31 30 31 31 30
30 30 30 30 29 28 29 28 28 29 28 28 28 27 27 26
0 0 0 0 0 1 2 3 5 12 26 31 30 10 22 27
0 0 0 0 0 0 9 34 6 0 0 0 0 0 7 33
24 4 0 0 0 0 5 27 3 0 0 0 0 20 15 5
4 15 68 90 102 99 93 86 79 74 71 76 85 95 104 109
112 112 115 120 122 129 134 129 121 136 130 106 135 128 136 136
136 133 111 73 3 7 9 9 7 2 3 2 2 18 29 30
30 24 8 5 5 6 5 7 22 31 31 31 30 30 30 30
30 30 30 29 30 29 29 29 29 29 28 27 27 26 25 26
0 0 0 0 0 0 0 0 0 6 30 33 30 9 18 27
7 3 1 1 4 5 11 36 12 2 1 2 0 0 8 34
25 7 1 0 0 0 5 27 5 0 0 0 1 24 30 12
6 12 65 87 100 99 92 86 80 71 68 73 82 87 97 100
106 108 114 117 120 124 134 130 130 137 136 132 123 122 126 121
133 132 112 44 4 6 9 8 6 2 3 2 2 17 29 30
29 22 7 5 5 5 5 6 23 32 32 32 31 31 31 30
31 29 30 29 29 28 28 28 28 28 28 27 27 27 26 25
0 0 0 0 0 0 0 0 0 5 32 33 30 9 15 34
32 28 23 23 26 26 30 37 36 30 27 26 25 22 26 38
28 27 24 22 20 22 24 33 7 0 0 0 2 25 30 22
8 13 63 86 100 101 93 88 79 69 67 69 73 83 92 98
104 102 109 118 123 123 134 134 135 136 136 136 135 131 132 123
105 100 100 21 4 7 9 9 6 2 3 1 2 17 29 29
30 20 6 5 6 5 5 6 22 32 31 31 32 30 30 29
29 29 29 29 29 29 29 28 28 29 28 27 27 26 25 25
0 0 0 0 0 0 0 0 0 5 33 34 30 9 14 36
36 32 32 34 32 31 34 33 45 47 44 43 44 45 46 44
29 33 37 38 40 43 45 42 23 17 14 12 14 27 28 25
11 7 65 86 98 104 99 93 85 74 68 65 68 78 87 96
98 101 108 115 125 132 135 134 134 136 135 136 136 136 137 130
112 100 68 13 4 6 9 9 5 2 2 1 2 20 29 30
30 21 7 5 5 5 4 5 20 31 32 30 31 31 30 30
30 30 29 30 28 29 28 28 27 27 27 27 27 26 25 24
0 0 0 0 0 0 0 0 0 4 33 34 29 10 13 36
31 28 30 33 34 30 30 29 36 42 42 41 42 44 45 44
30 29 35 38 42 47 48 45 31 27 28 27 28 29 27 24
18 4 57 86 102 109 103 100 89 81 70 66 65 69 77 87
90 96 104 114 124 132 134 135 134 135 136 135 135 135 132 123
111 95 52 13 4 5 7 7 5 2 2 1 2 20 29 29
29 22 10 9 9 9 9 8 20 29 30 29 29 29 29 29
28 27 28 28 28 27 27 26 27 27 27 27 26 25 24 23
0 0 0 0 0 0 0 0 0 4 35 34 30 13 14 33
21 23 24 27 32 31 32 31 25 25 26 27 28 29 30 33
27 24 28 32 34 35 35 35 29 28 27 27 27 27 28 26
25 16 53 85 101 110 110 108 96 85 77 72 65 67 76 83
91 90 102 111 120 122 125 132 130 133 133 135 133 134 128 115
97 78 39 13 4 4 3 3 3 3 3 2 2 20 30 31
30 23 11 10 10 10 11 11 19 29 30 30 30 30 30 29
30 28 30 30 30 29 28 28 28 27 26 26 26 25 25 23
0 0 0 0 0 0 0 0 0 4 33 34 29 22 24 31
8 8 10 15 20 22 26 31 23 22 21 22 23 23 23 25
27 27 29 31 31 27 24 26 28 28 29 28 28 27 28 27
27 22 51 86 99 110 113 115 104 94 80 73 70 68 73 81
87 88 97 100 115 119 126 128 128 130 129 132 134 132 126 113
97 74 30 12 4 4 1 0 4 2 3 1 2 20 29 30
29 21 6 6 6 6 6 7 19 30 31 31 31 30 30 30
29 28 29 29 30 28 27 27 28 28 26 26 25 24 24 22
0 0 0 0 0 0 0 0 0 3 33 35 30 32 38 32
3 0 0 0 1 4 13 31 28 31 28 31 37 35 30 31
33 33 36 38 36 31 27 26 28 29 29 29 29 29 29 28
29 25 52 85 98 109 114 119 114 105 90 79 75 71 73 76
80 85 93 88 107 112 115 119 125 123 124 123 131 133 129 117
97 66 27 12 4 4 2 3 5 3 4 2 3 21 29 31
30 21 6 6 6 6 6 6 21 30 31 30 30 31 31 30
30 30 29 29 30 29 28 27 26 26 25 25 25 23 23 22
0 0 0 0 0 0 0 0 0 3 32 33 29 35 43 35
3 0 0 0 0 0 14 33 30 38 34 37 46 40 20 19
22 26 30 37 41 35 29 28 28 29 29 29 29 28 28 28
29 28 54 83 95 108 116 118 121 113 98 85 81 75 74 72
76 76 84 89 95 102 104 109 115 124 124 123 125 128 129 120
104 63 25 11 5 4 2 4 6 3 4 2 3 22 29 31
29 20 6 5 6 5 6 7 21 31 31 31 31 31 30 30
30 29 29 29 29 28 28 28 27 27 27 26 25 23 22 21
0 0 0 0 0 0 0 0 0 3 32 34 29 34 43 36
4 0 0 0 0 0 12 34 28 36 25 20 31 33 3 1
1 2 4 19 39 36 29 28 28 29 29 28 29 29 29 28
29 29 58 83 95 106 118 117 119 115 106 94 86 81 79 77
79 79 75 81 81 83 91 102 110 119 121 122 124 128 125 120
113 82 26 12 5 4 0 0 3 3 4 2 4 22 29 30
30 20 7 6 6 6 5 7 22 31 31 30 30 30 30 30
30 30 30 29 29 29 29 28 27 27 26 25 23 23 22 21
0 0 0 0 0 0 0 0 0 2 31 33 28 25 22 16
0 0 0 0 0 0 14 34 29 35 14 0 10 26 1 0
0 0 0 12 38 36 30 30 29 29 29 29 28 28 28 28
28 30 63 83 92 106 116 117 119 117 111 97 88 85 82 84
83 81 76 74 68 66 73 86 100 110 118 121 120 123 126 118
115 99 34 11 5 3 1 1 4 3 4 2 4 22 29 30
30 19 5 5 5 5 5 7 24 31 31 31 30 31 30 29
30 29 30 29 28 28 28 28 28 27 26 25 24 23 22 21
0 0 0 0 0 0 0 0 0 2 30 33 28 20 11 3
0 0 0 0 0 0 16 33 29 35 13 0 9 25 2 0
0 0 0 9 37 35 29 29 28 28 29 28 29 28 29 29
29 34 69 83 92 105 111 113 120 115 107 98 89 86 84 84
87 87 82 72 62 55 59 66 82 93 103 113 114 119 124 116
113 109 43 11 4 4 3 3 3 3 3 1 3 22 29 30
29 18 5 5 6 5 6 8 24 31 30 30 29 29 30 29
30 29 30 30 28 28 28 26 27 26 25 24 22 22 21 20
0 0 0 0 0 0 0 0 0 2 30 33 28 20 13 2
0 0 0 0 0 0 20 31 30 35 11 0 8 26 2 0
0 0 0 7 36 34 29 29 28 29 29 29 28 28 28 29
29 38 74 83 89 103 111 116 120 116 108 101 95 90 89 87
89 89 84 79 77 72 66 59 58 71 88 103 106 108 112 105
107 105 38 9 3 3 3 3 3 2 3 1 5 24 29 30
29 17 5 5 5 5 5 7 24 31 30 30 30 30 30 30
30 29 28 29 28 27 27 27 27 26 25 24 23 21 20 19
0 0 0 0 0 0 0 0 0 2 29 32 27 21 15 2
0 0 0 0 0 0 18 31 30 35 10 0 9 25 2 0
0 0 0 6 34 34 29 28 28 28 28 28 28 27 28 26
24 41 77 85 90 101 109 114 115 114 112 107 98 90 87 91
91 90 91 85 81 79 75 65 54 48 59 76 85 90 90 85
100 81 28 10 3 3 3 3 2 2 2 1 4 24 28 29
29 18 6 6 6 6 4 6 24 30 31 29 30 29 30 29
30 29 29 28 28 28 27 27 26 25 24 23 22 20 20 19
0 0 0 0 0 0 0 0 0 2 31 32 27 22 16 2
0 0 0 0 1 0 17 32 31 35 11 1 9 24 4 0
0 0 0 7 35 33 29 29 29 29 28 28 28 22 12 4
2 49 78 85 90 99 108 114 118 116 114 108 102 98 95 93
92 96 93 88 84 80 75 65 51 39 36 37 49 54 53 63
66 38 24 9 3 3 2 2 2 2 3 2 5 24 30 31
29 25 19 18 14 10 13 13 26 30 30 30 30 30 30 30
30 29 29 29 28 28 27 27 26 25 24 23 22 21 20 19
0 0 0 0 0 0 0 0 0 2 30 32 27 22 18 2
1 0 0 1 8 1 17 33 33 35 16 6 9 24 6 2
0 1 0 7 35 33 28 28 28 28 28 27 20 4 0 0
7 65 79 85 93 97 107 113 117 119 116 112 107 102 102 97
98 104 100 98 90 83 72 61 46 33 26 20 14 18 28 31
32 29 25 10 4 3 3 2 2 2 2 0 5 24 27 30
29 29 29 29 27 25 28 27 30 30 30 30 30 29 30 29
29 29 29 29 28 28 28 27 26 25 24 23 22 21 20 19
0 0 0 0 0 0 0 0 0 2 30 32 27 22 19 9
7 7 3 6 13 10 20 35 35 34 17 14 10 22 3 5
7 2 0 7 33 31 28 28 28 28 28 24 6 0 0 0
22 73 81 83 94 99 104 111 115 120 117 116 114 110 108 104
108 110 108 103 99 87 70 54 40 34 6 1 0 2 19 31
30 29 25 9 3 3 3 2 2 2 2 1 6 25 29 30
31 30 31 31 31 31 30 29 30 30 30 30 31 30 30 30
30 29 29 28 28 27 27 26 26 25 24 23 22 21 20 19
0 0 0 0 0 0 0 0 0 2 30 30 26 21 20 30
31 32 31 30 32 32 37 41 37 32 12 20 13 21 4 8
9 4 1 7 30 30 27 28 27 27 26 14 5 0 0 0
45 78 83 83 94 97 102 107 115 120 118 114 114 111 111 111
115 115 114 111 104 93 76 58 48 62 1 0 0 0 5 23
29 27 26 15 10 7 5 4 3 2 0 2 10 25 29 29
29 30 31 30 31 30 30 31 30 30 30 30 29 29 29 29
29 29 29 28 28 28 28 27 27 26 24 23 22 21 19 18
0 0 0 0 0 0 0 0 0 3 30 31 26 21 20 37
42 42 43 43 43 44 49 48 38 29 5 17 16 26 19 20
18 15 13 16 26 26 27 28 27 27 25 8 9 1 0 9
68 80 83 87 95 95 98 104 114 118 120 118 114 111 114 114
118 118 116 112 107 96 81 69 76 71 1 0 0 0 1 13
28 27 26 23 20 16 12 12 9 3 2 9 17 26 29 29
30 30 30 29 30 28 29 30 29 28 29 30 29 29 30 29
30 29 29 28 27 27 26 25 25 24 23 22 20 20 19 18
0 0 0 0 0 0 0 0 0 3 30 30 25 21 18 31
37 38 38 39 40 42 45 47 39 27 1 6 12 25 21 22
22 22 21 21 22 25 27 28 28 27 19 6 11 5 0 42
76 84 85 93 98 97 96 102 113 120 120 118 114 111 110 110
114 117 115 115 107 97 85 82 95 78 3 0 0 0 0 7
23 27 26 25 24 19 17 16 13 2 3 14 20 27 28 28
29 30 29 29 29 28 29 30 29 29 29 30 29 28 29 28
29 29 29 28 27 27 26 26 25 25 23 22 20 20 19 18
0 0 0 0 0 0 0 0 0 4 31 29 25 22 15 14
15 15 16 17 17 19 23 26 32 26 1 2 10 27 24 26
25 25 24 24 24 25 27 27 28 26 11 7 13 9 15 69
82 89 91 95 99 97 96 100 111 119 120 119 116 113 110 110
113 114 111 112 106 97 89 93 101 86 10 0 0 0 0 7
17 28 26 26 24 21 19 17 15 2 5 17 23 27 29 29
30 30 30 29 28 27 29 29 28 28 29 29 28 28 29 29
29 30 29 28 28 27 27 26 26 25 23 23 22 21 20 19
0 0 0 0 0 0 0 0 0 5 31 28 23 20 15 11
9 8 9 8 9 10 14 18 29 24 1 0 9 26 25 27
27 27 27 26 26 26 27 27 25 15 4 6 12 13 32 81
88 92 96 95 101 99 96 100 109 120 126 124 117 113 112 109
109 108 113 109 100 95 93 104 107 93 59 9 0 0 0 10
14 26 25 25 25 21 20 20 17 3 6 20 24 27 28 29
29 29 29 29 28 27 29 29 29 28 28 28 27 27 28 28
30 30 30 29 28 27 27 26 26 26 24 23 22 21 20 19
0 0 0 0 0 0 0 0 0 6 31 29 23 21 19 15
14 12 11 10 11 12 15 18 30 24 5 4 13 28 25 27
28 27 27 27 27 26 27 23 12 6 5 6 13 16 40 88
92 98 100 98 103 102 93 99 107 118 124 128 123 118 112 110
108 107 110 103 95 100 101 112 108 96 79 45 1 0 3 14
13 25 26 26 24 21 20 20 18 3 7 21 24 28 29 29
29 29 30 29 28 26 29 29 29 28 26 24 24 25 26 31
35 37 36 35 34 32 31 30 29 28 26 25 23 22 21 21
0 0 0 0 0 0 0 0 0 8 32 28 24 21 19 17
16 16 15 15 15 15 17 19 33 28 24 30 32 29 23 26
26 26 26 26 26 26 21 8 7 6 5 6 11 18 36 93
99 102 105 104 107 104 99 101 107 119 123 133 131 125 116 111
112 110 104 99 105 104 115 119 112 97 83 70 4 2 5 14
11 17 21 24 25 22 22 22 18 3 8 22 24 27 28 28
29 29 29 28 26 25 27 29 27 26 11 3 4 5 14 41
45 46 45 44 44 43 42 41 40 38 37 35 33 30 29 27
9 9 8 7 7 7 7 6 7 16 32 27 23 21 19 18
16 17 17 17 17 17 17 20 31 28 30 38 39 29 23 26
27 26 25 26 26 24 8 4 5 5 6 6 11 17 32 91
106 107 109 109 109 105 103 103 107 114 125 137 137 130 124 121
118 114 109 110 110 116 128 125 111 97 88 80 10 5 9 16
12 12 18 23 25 24 23 23 20 4 8 22 26 27 28 28
29 29 29 28 27 25 26 28 27 24 3 0 0 0 11 46
49 48 48 48 48 47 46 47 45 45 44 42 41 40 38 37
26 26 26 25 24 24 24 24 23 24 26 24 22 19 19 18
17 17 17 16 17 18 18 21 24 21 20 24 26 24 24 26
26 26 26 26 27 20 6 5 6 5 7 6 10 15 39 94
110 111 112 110 109 108 106 108 111 116 125 138 139 136 131 128
125 123 120 119 116 129 136 124 111 100 94 89 18 20 13 15
12 11 13 18 24 25 25 24 22 5 9 24 27 27 28 29
28 29 28 28 25 23 27 29 28 23 2 0 0 0 18 47
48 48 47 47 47 47 46 45 45 45 44 43 42 41 40 39
27 27 27 27 26 25 26 25 24 24 24 24 23 20 19 19
19 17 17 17 16 17 19 21 23 22 20 20 22 23 25 26
26 26 26 26 22 9 7 5 5 5 6 7 10 15 32 114
120 119 118 114 113 114 112 111 112 118 127 138 139 139 136 134
130 129 127 121 124 135 134 123 113 102 97 95 36 49 15 15
11 11 13 15 19 22 25 23 20 4 8 23 27 27 27 28
28 28 29 29 26 22 27 29 27 21 1 0 0 0 23 49
48 48 48 47 47 47 46 46 45 45 44 43 42 41 40 39
27 27 27 27 26 26 25 25 25 24 24 23 22 19 19 18
18 18 17 17 17 17 19 22 23 23 21 20 22 23 24 24
25 25 26 27 21 9 9 5 4 4 5 7 10 15 22 93
139 128 123 119 115 117 116 116 113 119 130 139 139 138 137 135
134 130 126 122 130 137 132 123 114 106 101 98 58 52 13 15
10 10 11 14 16 23 39 20 11 2 5 19 25 28 28 27
28 27 27 27 25 20 26 26 27 17 0 0 0 0 31 48
48 48 47 47 46 47 46 46 45 45 44 43 43 41 41 39
22 20 19 18 17 17 18 17 18 18 18 18 19 18 18 18
18 18 18 17 17 18 19 22 23 22 21 21 22 22 23 25
26 27 30 28 19 11 9 5 4 3 4 5 9 14 19 63
138 139 132 125 120 121 122 119 114 115 124 139 139 138 138 135
135 130 124 124 135 137 129 120 117 109 106 98 79 42 14 15
10 9 9 12 14 24 49 38 22 11 2 3 13 24 27 27
27 27 27 27 24 13 22 26 26 16 0 0 0 0 34 46
46 46 46 46 46 46 46 45 45 44 44 43 42 41 40 39
8 3 1 0 0 1 3 5 10 13 14 15 16 17 17 17
17 16 16 16 16 18 20 22 23 22 22 22 21 22 23 26
26 26 29 30 17 13 11 6 3 2 3 4 9 12 17 41
122 141 138 131 125 125 125 124 119 113 120 137 140 138 137 135
134 130 126 132 138 136 125 121 122 115 111 99 84 29 15 14
10 7 8 11 12 18 28 39 27 24 22 21 12 15 20 23
26 26 26 26 19 7 14 25 25 12 0 0 0 2 39 47
45 46 45 45 45 45 45 45 44 44 43 43 42 41 40 39
28 25 22 12 0 0 2 2 7 13 13 14 16 16 16 16
17 16 16 16 16 17 20 21 21 21 20 21 21 21 25 27
27 28 25 27 15 12 11 5 3 1 2 3 7 11 15 28
101 141 141 138 133 133 131 129 124 115 118 134 139 138 137 136
136 134 135 137 137 135 122 124 125 119 115 111 71 21 14 12
9 8 7 9 5 6 10 31 26 24 23 25 31 23 17 15
22 25 25 25 20 16 22 24 23 9 0 0 0 5 40 45
45 44 45 44 45 44 44 44 44 43 42 41 41 40 39 38
39 40 41 31 4 2 3 3 7 12 14 14 15 15 15 16
16 15 16 15 16 17 20 22 21 21 22 21 23 28 26 24
18 15 13 13 4 12 10 5 2 0 0 1 6 10 15 22
76 138 141 140 139 138 135 133 129 118 121 136 138 138 137 137
137 137 137 137 136 132 122 129 130 125 117 123 57 17 15 10
8 7 7 6 7 9 12 29 34 18 20 18 19 25 29 24
23 25 24 24 20 20 23 22 21 7 0 0 0 9 43 44
45 45 45 45 44 44 43 43 43 42 43 41 41 40 40 39
38 45 50 44 16 10 9 4 7 12 14 15 17 18 18 18
19 18 19 18 19 20 22 22 21 20 21 22 26 23 21 19
10 12 13 14 6 12 11 5 0 0 0 0 4 9 14 20
43 128 141 141 140 139 139 138 136 125 121 136 138 138 138 137
138 138 137 138 137 132 128 135 135 120 131 108 52 16 15 11
8 6 7 8 10 9 12 23 48 11 9 8 9 13 21 24
33 31 25 24 22 23 24 24 21 5 0 0 0 14 43 44
44 44 44 44 44 44 45 44 44 44 43 42 41 41 40 39
47 48 50 46 25 16 15 9 10 13 16 18 20 21 21 22
21 21 21 22 22 22 23 22 22 22 25 24 24 17 13 13
12 16 14 14 5 13 11 5 2 0 0 0 2 6 12 18
28 90 141 140 140 140 140 140 139 134 127 138 139 138 138 138
138 138 138 138 137 133 133 136 129 129 138 92 46 17 16 10
8 7 8 9 11 6 9 12 48 21 12 11 11 12 15 16
18 29 31 25 22 23 22 22 21 3 0 0 0 21 44 44
44 44 44 44 44 43 44 43 43 44 43 42 42 41 41 40
34 34 33 30 22 18 18 17 17 16 16 16 22 26 21 22
23 23 23 23 23 23 23 23 24 31 25 25 27 17 16 16
12 13 12 10 2 13 14 7 3 0 0 0 0 3 9 15
21 33 90 141 141 140 140 140 140 138 135 138 138 138 138 137
138 138 138 138 138 135 135 129 134 138 131 79 24 17 14 9
8 8 8 11 13 5 8 8 43 29 10 10 9 7 8 13
11 18 27 30 24 24 24 22 19 1 0 0 0 27 44 43
44 44 44 44 44 44 44 44 43 44 43 43 42 41 41 39
27 27 27 23 13 10 10 9 10 9 9 9 19 28 21 20
22 22 23 23 22 22 24 29 27 28 27 25 23 17 18 14
9 7 7 7 0 11 15 10 4 1 0 0 0 1 7 12
17 22 41 114 141 141 140 140 140 140 140 140 139 138 134 136
138 138 138 137 138 131 129 138 138 138 118 69 16 17 12 9
9 9 10 12 15 9 7 8 40 43 13 7 7 6 5 10
9 13 25 27 30 23 22 22 17 0 0 0 0 33 45 44
44 44 44 44 44 45 44 44 44 43 43 42 43 42 41 41
28 27 27 23 12 8 8 7 7 7 7 7 18 28 22 17
17 18 19 20 22 25 32 29 18 26 24 22 20 15 13 9
9 10 9 10 2 11 17 14 7 2 1 0 0 1 4 10
14 17 21 34 115 130 140 140 140 140 141 140 140 139 137 138
138 139 138 139 138 137 139 139 137 114 95 85 20 15 9 8
9 9 11 13 16 19 19 21 46 59 26 10 8 7 8 16
18 17 20 25 35 24 23 22 15 0 0 0 2 37 44 43
43 43 43 44 44 44 44 44 44 44 44 43 43 42 41 40
28 28 28 23 11 8 7 7 8 8 7 7 19 28 21 15
14 15 15 18 26 32 30 19 17 30 36 21 21 15 14 12
16 20 19 19 12 11 18 16 11 5 2 1 0 0 4 7
11 12 15 16 34 45 91 132 142 140 141 140 140 140 140 141
140 140 139 140 139 140 139 138 121 80 71 88 31 10 8 8
10 11 13 15 15 17 19 24 37 58 31 21 20 21 21 21
24 22 18 27 33 21 23 21 13 0 0 0 5 40 44 43
44 44 44 44 45 44 45 44 44 43 44 44 43 42 41 41
28 27 27 23 9 6 6 6 6 6 6 5 16 28 21 15
13 14 18 25 26 25 25 17 19 33 54 31 25 20 19 23
25 27 30 26 13 10 18 17 15 9 4 1 0 0 3 6
8 10 3 17 26 31 47 72 139 142 141 141 140 141 140 140
140 140 140 139 140 139 139 130 83 38 38 66 31 8 9 10
11 12 14 14 14 17 14 18 29 57 40 25 22 23 22 20
19 22 27 39 35 21 22 20 11 0 0 0 9 42 43 43
44 43 44 44 44 44 44 44 44 44 44 44 42 42 41 41
28 29 29 26 17 15 16 17 18 19 14 8 13 27 22 14
14 22 35 24 24 22 20 18 32 38 58 34 37 34 27 29
28 28 27 26 14 9 18 17 15 12 5 2 1 0 2 5
7 2 0 4 43 37 13 25 102 142 141 142 141 140 141 140
140 140 140 140 139 139 125 92 45 33 38 51 12 10 11 11
13 13 14 14 14 20 38 38 54 90 70 49 29 22 20 19
36 46 30 54 43 24 21 21 7 0 0 0 14 42 43 43
43 43 43 44 44 43 44 44 43 44 42 42 43 42 41 41
29 29 30 28 26 26 28 27 25 25 23 21 20 25 21 14
18 30 33 22 23 16 16 28 39 41 49 37 37 36 27 21
25 26 28 33 36 31 20 18 17 14 10 5 1 0 1 4
0 0 0 2 31 53 16 11 51 139 141 141 141 141 140 140
140 139 140 140 139 129 103 40 40 37 39 28 1 2 8 9
12 12 13 14 13 15 30 36 44 77 48 30 31 43 51 42
34 36 28 55 39 30 16 20 5 0 0 0 19 42 42 42
43 42 42 42 43 43 43 44 44 43 43 42 43 42 42 41
26 26 28 28 25 25 25 26 28 28 29 31 29 25 20 16
25 23 30 24 20 12 21 34 40 48 77 64 32 33 36 49
54 61 62 55 36 21 18 19 17 14 12 8 4 2 6 4
1 0 2 1 11 27 11 7 18 96 139 141 141 141 141 141
140 140 140 139 138 132 69 39 29 28 32 28 19 6 0 0
2 8 13 13 15 14 12 13 18 51 34 15 15 18 28 30
15 17 43 53 33 32 18 18 4 0 0 0 23 42 42 41
42 42 42 42 42 43 43 43 43 42 42 41 41 42 40 40
32 33 33 34 30 25 23 24 29 33 34 35 35 31 24 20
23 19 25 29 20 16 26 40 66 78 82 81 58 67 55 56
50 40 41 35 19 5 9 19 16 15 13 10 8 13 8 12
9 2 3 7 5 8 5 6 9 47 136 139 141 140 140 140
140 140 140 139 135 92 44 33 27 28 33 29 24 20 7 4
1 0 4 11 14 14 12 7 9 46 37 13 11 12 12 13
6 11 51 73 61 39 29 23 3 0 0 0 29 41 41 41
41 41 42 42 42 42 42 41 42 42 41 41 41 41 41 39
35 35 35 35 35 32 29 28 30 34 36 38 39 39 32 16
22 15 16 34 25 22 39 77 87 75 47 61 49 54 36 24
26 23 21 19 11 3 6 15 12 13 12 9 14 47 17 12
14 9 1 12 6 9 4 4 6 17 97 142 140 140 140 140
140 140 132 117 102 47 41 29 26 26 37 35 26 19 14 11
12 7 2 1 9 19 15 7 7 37 45 14 10 10 12 11
6 11 38 51 62 59 34 33 7 0 0 1 32 40 41 41
41 42 42 42 42 42 42 43 42 42 41 41 40 40 40 39
36 36 37 37 38 37 37 37 37 37 38 37 38 36 18 10
20 16 21 50 33 25 68 83 60 41 30 52 27 29 21 18
15 17 19 17 14 8 12 18 14 13 12 12 18 58 26 8
13 13 4 7 16 7 6 4 5 10 43 133 141 140 140 140
140 132 117 117 73 37 35 27 27 28 44 42 29 22 15 13
13 12 11 10 21 26 21 9 10 34 46 16 11 12 12 13
7 10 26 24 34 51 42 34 15 0 0 3 35 40 40 40
41 40 41 41 41 41 41 42 41 41 42 40 41 40 39 39
40 39 41 39 39 37 36 35 35 35 35 33 34 26 7 9
14 15 28 43 40 37 67 50 38 28 24 50 23 23 19 18
15 17 17 17 18 14 18 31 20 18 15 13 16 60 43 8
12 14 11 3 16 12 9 3 2 6 14 76 141 141 140 140
138 130 125 114 48 34 31 28 33 32 43 38 29 23 16 14
14 12 13 12 21 28 23 12 12 29 48 15 12 12 12 13
8 10 19 15 25 36 62 45 26 0 0 6 36 39 40 40
40 41 41 41 42 41 42 41 41 41 40 40 40 39 39 38
35 33 33 32 32 31 30 30 31 31 30 29 28 14 3 4
12 17 27 32 60 55 41 36 32 26 20 50 25 21 20 16
15 15 16 17 15 14 18 30 21 16 14 14 16 52 51 12
8 15 14 4 7 16 16 6 3 3 7 24 105 142 141 140
135 128 127 86 42 35 31 34 33 33 46 36 31 25 19 15
15 14 13 14 19 29 25 13 13 25 57 19 11 11 11 13
9 9 19 12 23 27 43 69 44 6 0 10 38 39 39 40
40 40 40 40 41 41 40 41 41 40 40 40 40 39 39 38
30 29 28 28 27 26 26 26 27 27 27 27 31 29 6 2
12 29 25 34 78 46 29 28 31 27 16 45 29 21 20 17
17 15 14 17 17 13 17 28 21 20 13 15 15 46 62 18
8 15 16 11 4 13 24 18 6 2 2 8 38 125 141 139
135 128 125 62 40 35 33 37 35 32 47 36 31 24 18 16
14 16 14 13 18 28 29 15 14 20 60 22 11 12 10 12
10 9 20 13 27 27 29 46 60 13 0 13 38 38 39 38
39 40 40 40 40 41 40 41 40 39 40 39 39 38 37 37
28 27 28 28 27 27 27 27 27 27 27 25 18 12 2 3
16 31 22 37 51 39 29 30 29 27 15 39 33 22 19 18
17 15 14 16 14 14 16 28 20 22 16 14 14 38 66 23
7 11 16 14 5 7 23 30 17 6 2 4 13 60 138 121
126 128 115 43 38 35 35 35 39 34 46 36 31 25 17 16
15 14 15 13 16 28 29 19 12 18 56 24 11 12 11 14
10 10 22 14 26 27 27 27 47 19 3 18 38 38 38 39
40 40 40 39 40 39 40 39 39 39 39 39 38 38 37 36
28 28 28 28 28 28 28 28 28 28 28 16 4 5 0 6
21 28 27 45 30 45 33 29 29 26 12 28 33 20 20 18
18 16 15 15 15 15 16 27 20 20 15 14 14 31 72 31
11 7 15 16 12 5 15 33 21 20 10 7 13 17 78 74
99 129 105 61 50 42 43 38 36 35 40 32 36 24 19 17
16 15 15 15 15 29 29 22 13 16 56 26 11 13 12 13
10 11 24 16 28 28 27 28 40 22 24 26 38 37 38 38
38 39 39 39 39 39 40 39 39 39 38 38 37 37 36 34
28 28 28 27 28 28 28 28 29 29 27 6 0 4 0 6
21 18 42 36 20 35 42 28 29 31 13 22 35 21 21 17
17 18 15 12 13 13 15 24 22 20 15 15 15 25 70 37
15 8 17 30 24 11 11 35 41 56 50 29 13 6 29 58
56 116 78 51 74 76 76 76 65 47 48 32 35 27 21 16
17 17 15 14 14 27 30 23 12 13 52 35 12 13 11 13
11 12 24 17 26 27 25 26 35 15 20 34 37 37 37 38
38 38 39 38 38 38 37 37 38 37 37 36 36 35 34 34
