P2
128 120
138
0 7 38 35 28 28 29 28 28 28 27 28 27 27 27 26
27 26 26 26 26 26 25 25 24 24 23 24 23 23 22 22
22 22 21 21 21 21 21 20 20 20 19 19 19 18 18 18
18 18 20 22 22 22 21 16 17 18 18 23 23 22 22 21
22 21 21 20 20 17 20 21 23 23 23 23 24 23 24 24
24 24 25 25 24 25 25 25 26 26 26 27 26 26 26 27
27 27 27 28 28 28 28 29 30 30 30 30 30 30 31 31
31 31 31 31 30 31 31 31 31 31 31 32 32 32 32 32
0 7 37 34 28 28 28 28 27 27 27 27 27 27 26 26
26 26 26 26 26 24 25 24 25 24 24 23 23 23 23 22
22 22 22 21 21 21 21 20 20 20 19 19 19 18 18 18
19 19 20 23 23 22 22 16 16 19 17 23 23 23 22 22
22 22 21 21 20 18 21 22 23 23 23 24 24 23 24 24
25 24 25 24 25 25 25 25 26 26 26 26 27 26 27 27
27 28 28 28 28 28 29 29 29 30 30 31 30 30 30 30
30 30 30 30 31 31 32 32 32 32 32 32 32 32 32 32
0 7 38 34 28 28 28 28 28 28 28 27 27 27 27 27
27 26 26 26 25 25 25 25 24 24 24 24 23 23 23 22
22 22 22 21 21 21 21 21 20 20 20 20 19 19 19 18
18 19 20 22 23 23 22 17 17 20 18 23 23 23 22 22
22 22 21 21 21 19 22 22 23 23 23 23 24 24 24 24
24 24 25 25 25 25 25 26 26 27 27 27 27 27 27 27
28 28 28 29 29 29 29 29 29 29 29 29 30 29 30 30
31 31 32 30 31 31 31 32 32 32 32 32 33 32 32 33
0 7 37 34 28 28 28 27 27 27 27 27 26 26 26 26
26 26 25 26 26 24 25 25 25 24 24 23 23 23 22 22
22 22 22 21 21 21 21 20 20 20 20 20 20 19 19 19
19 19 21 22 22 23 22 17 17 21 17 22 23 23 22 22
22 23 22 21 21 18 21 22 24 23 24 23 25 24 25 24
24 24 25 25 25 25 25 26 26 26 26 26 27 27 28 28
28 28 29 29 28 28 28 29 29 29 30 29 30 30 30 31
31 31 31 31 31 31 31 31 31 31 31 31 32 32 32 32
0 8 37 33 28 28 28 28 27 27 27 27 27 27 26 26
26 26 26 25 25 24 25 24 24 24 24 23 23 22 23 23
22 22 22 22 22 21 21 21 21 20 20 20 19 19 19 18
19 20 20 23 23 23 22 17 18 22 17 22 23 24 23 23
22 22 22 22 21 19 22 22 23 24 24 24 25 25 25 25
25 24 25 25 26 26 26 26 26 26 27 27 27 28 27 27
27 28 28 29 29 29 30 30 30 30 30 30 30 30 31 31
31 31 31 31 31 31 31 31 32 31 32 32 33 32 32 32
3 15 37 33 28 28 28 28 27 27 27 27 27 26 27 26
26 26 26 26 25 25 25 25 24 24 24 24 24 23 23 23
22 23 22 22 22 21 21 21 21 20 20 20 20 20 19 20
19 20 21 24 25 24 23 17 17 22 18 23 24 24 24 23
22 22 23 22 21 19 22 22 24 24 24 25 25 25 25 25
25 25 26 26 26 26 27 27 27 27 27 26 26 27 27 27
28 28 29 30 30 30 30 30 31 30 30 30 31 31 30 31
31 32 31 32 31 31 31 31 32 31 31 32 32 32 32 32
17 24 36 31 28 28 28 27 28 27 27 27 27 27 26 27
26 25 26 25 26 26 25 25 25 24 24 24 23 23 24 23
23 22 22 22 22 22 21 21 21 21 20 20 20 20 19 19
19 20 21 24 24 24 23 17 17 23 19 23 24 24 24 23
22 22 22 22 22 19 22 23 24 25 24 25 26 25 26 26
25 26 25 25 26 26 26 26 27 27 27 27 28 28 28 28
28 28 29 30 30 30 30 30 30 30 30 30 30 30 31 31
31 31 31 32 31 31 31 31 31 31 32 32 31 32 32 32
28 29 31 29 27 28 28 27 27 27 27 26 27 26 26 26
26 26 26 26 25 25 25 25 24 24 24 24 24 24 23 23
23 22 22 23 22 21 22 22 21 21 20 20 19 20 20 20
20 20 21 24 24 24 24 18 18 24 20 22 25 24 24 23
22 23 23 23 22 20 23 23 25 25 25 25 25 25 25 25
25 25 25 25 26 26 27 27 27 27 27 27 27 28 28 29
29 29 30 30 30 30 31 30 31 30 30 30 30 30 31 31
31 30 31 32 30 30 31 31 32 31 31 32 32 32 32 32
21 24 27 28 28 28 28 27 27 27 27 27 26 27 27 26
26 25 25 26 25 25 25 25 24 24 24 24 24 23 23 23
23 23 22 22 23 22 22 21 21 21 21 20 20 20 20 20
20 21 22 24 25 25 24 18 18 25 21 22 25 25 25 24
23 23 24 23 23 20 23 23 25 25 25 25 25 25 25 25
25 26 26 27 27 26 27 27 27 27 27 28 28 27 28 29
29 30 30 30 30 30 30 31 31 30 30 31 31 30 31 31
31 31 31 32 31 31 32 31 32 31 31 31 32 32 32 33
10 12 16 18 22 24 26 27 27 28 27 27 27 27 26 26
26 26 26 26 26 25 26 25 25 25 24 24 23 23 23 23
23 23 23 23 22 22 22 22 22 22 21 21 21 20 20 20
20 21 22 24 25 25 24 19 18 25 21 21 25 24 25 24
23 23 23 23 23 20 23 23 25 25 25 25 25 26 26 27
26 26 26 26 27 27 28 28 28 28 28 28 28 29 29 29
29 30 30 30 30 30 30 31 31 31 30 31 31 31 31 31
31 31 31 32 32 31 32 32 32 32 32 32 32 32 32 32
7 8 8 8 10 11 13 16 19 22 24 26 27 26 27 26
26 26 26 26 25 25 26 25 25 25 24 25 24 24 23 23
23 24 24 23 23 22 22 22 21 22 21 21 21 21 21 20
21 21 23 25 25 25 25 19 19 26 23 21 26 26 26 25
24 24 24 24 23 20 24 24 25 25 26 26 26 26 26 26
27 27 28 27 29 27 28 28 28 28 28 28 28 29 29 30
30 30 30 31 31 31 30 31 31 31 31 31 31 31 31 31
32 32 32 33 32 32 33 31 31 32 31 31 31 31 31 32
15 12 9 8 9 8 8 8 9 8 9 14 24 26 27 26
26 26 26 26 26 26 26 25 25 25 25 24 24 24 24 23
24 23 23 23 22 22 22 22 23 23 22 21 22 21 21 21
21 22 23 25 26 25 24 19 19 26 25 21 26 26 25 25
25 24 25 24 24 21 25 25 27 26 26 27 27 26 27 26
27 27 27 27 28 28 28 28 28 29 28 29 29 30 30 30
30 30 30 31 31 31 31 31 31 31 31 31 32 32 31 32
32 31 32 31 30 30 31 30 31 31 32 33 33 31 32 32
32 26 13 15 12 9 8 8 9 6 3 10 23 27 27 27
26 26 25 26 26 26 25 25 25 25 25 24 25 25 24 24
23 24 23 23 23 23 23 22 22 22 22 21 21 21 21 21
22 22 23 26 26 25 25 19 19 26 26 20 26 26 26 25
25 25 25 24 24 22 24 25 26 27 26 27 27 27 27 27
27 27 28 28 29 28 29 28 29 29 29 28 29 29 30 30
30 30 30 31 31 31 31 31 32 32 31 31 31 30 30 30
31 31 31 31 31 31 31 32 31 31 32 32 33 31 31 31
38 32 20 25 27 24 19 17 13 9 6 9 22 27 27 27
26 26 27 26 26 26 26 25 25 25 25 25 25 24 24 24
24 24 25 28 27 25 24 23 22 22 22 21 22 21 21 21
22 22 24 25 25 25 25 19 19 26 27 20 26 27 26 25
25 25 24 24 25 22 25 25 26 27 27 27 26 27 27 28
27 27 28 28 29 29 29 29 29 29 29 29 29 30 30 30
31 30 30 30 31 30 30 31 30 30 30 31 30 30 31 31
32 31 32 31 31 31 31 32 31 32 32 32 32 32 32 31
38 33 25 29 33 31 31 33 32 21 7 9 22 26 27 27
27 26 32 33 31 29 27 26 25 25 25 25 24 24 24 24
24 24 29 34 33 29 29 26 23 22 22 21 22 21 21 21
22 22 24 25 26 26 25 20 19 26 28 20 24 26 26 26
25 25 25 25 24 22 25 25 26 27 27 27 27 27 28 27
27 28 28 28 29 29 29 29 29 29 29 30 29 29 29 29
29 29 29 30 30 30 30 30 30 30 30 31 31 30 30 31
31 31 31 31 31 31 31 32 32 31 32 32 32 31 31 31
21 31 28 31 34 34 36 38 38 29 8 11 24 27 27 26
26 27 35 36 34 32 31 30 30 27 27 26 25 23 23 24
24 23 29 34 32 30 31 31 26 22 22 23 22 22 22 21
22 22 23 25 26 26 26 20 19 25 28 20 25 27 27 26
26 25 25 25 25 22 25 25 27 27 26 27 27 27 27 28
28 28 28 28 29 29 29 29 29 29 29 29 29 29 29 29
30 30 29 30 30 30 30 30 30 30 30 31 31 31 31 31
31 31 31 31 30 31 31 31 31 31 32 32 32 31 31 32
3 29 29 32 34 35 37 38 39 32 9 11 26 29 28 28
26 27 34 35 35 32 32 34 35 31 31 30 28 26 25 25
25 24 27 27 27 28 30 31 27 23 22 22 22 22 22 22
22 22 23 26 26 26 25 18 17 19 26 20 24 27 26 26
25 26 25 26 27 25 25 26 26 27 27 28 28 28 28 28
28 28 28 28 29 28 28 28 29 29 29 29 30 29 30 29
30 30 30 30 30 30 30 30 30 30 30 31 31 31 31 31
31 31 31 32 31 31 31 31 32 31 32 31 32 31 32 32
5 29 23 26 30 34 36 36 37 31 11 12 28 30 27 29
29 30 28 16 23 29 33 36 36 29 19 23 27 28 28 29
29 26 25 14 11 14 17 20 25 24 23 22 22 22 22 22
22 22 23 26 27 26 21 14 15 15 26 21 22 27 27 26
25 25 27 28 26 21 14 15 21 22 24 22 24 24 27 28
29 28 28 28 29 29 29 30 29 29 29 30 30 30 30 29
30 30 30 30 30 29 30 30 31 31 30 31 31 31 31 31
31 31 31 31 32 31 32 31 32 32 32 32 32 31 32 32
7 28 8 4 10 18 24 28 30 30 12 12 27 30 26 26
30 34 24 0 1 12 19 21 26 24 1 1 4 9 15 20
26 27 25 12 3 4 3 1 17 25 23 23 23 22 22 22
22 23 24 27 27 27 25 18 18 24 28 21 17 19 14 9
16 28 28 30 22 14 15 14 14 16 21 23 21 15 14 21
30 29 29 29 29 29 29 29 29 30 30 30 31 30 30 30
30 30 31 30 31 31 31 31 31 31 31 32 32 31 31 31
31 31 32 32 32 32 32 32 32 33 32 32 32 32 32 32
5 27 4 0 0 0 1 3 7 27 13 10 17 23 27 29
33 36 25 0 0 1 6 8 14 22 1 0 0 0 0 1
3 13 24 9 0 0 1 0 15 25 24 23 23 23 23 22
23 24 25 27 27 27 27 21 19 19 10 2 3 7 11 18
25 24 30 25 18 17 19 22 22 23 23 24 30 22 14 13
18 27 30 29 29 29 29 30 29 29 30 31 31 30 30 30
30 31 30 30 31 31 30 31 30 31 31 32 31 31 31 31
31 31 31 31 31 31 32 32 32 32 32 33 33 32 32 32
5 28 3 0 0 0 0 0 2 26 12 6 0 1 5 11
19 26 23 0 0 0 1 3 10 23 1 0 0 0 0 0
0 5 24 6 0 0 0 0 16 26 24 24 24 23 23 23
23 24 25 27 28 28 24 12 2 2 5 12 17 23 28 24
20 22 18 21 24 26 29 26 25 30 26 22 25 26 21 12
12 13 24 30 30 30 30 30 30 30 30 30 31 30 31 31
30 31 31 31 32 31 31 31 31 31 32 32 32 32 31 31
31 32 32 32 32 32 33 33 32 33 33 34 34 33 33 33
5 28 3 0 0 1 0 0 2 26 12 6 0 0 0 0
0 1 10 0 0 0 0 0 7 20 1 0 0 0 0 0
0 4 22 3 0 0 0 0 17 27 24 24 24 23 24 23
23 24 25 27 27 14 2 5 8 12 18 18 24 29 17 14
13 9 10 15 20 18 23 34 37 33 31 29 23 21 19 19
18 11 9 20 30 30 30 30 30 31 30 30 31 31 31 31
31 31 32 32 32 31 31 32 32 31 31 32 32 32 32 31
32 32 32 32 32 33 32 33 33 33 33 33 31 32 32 32
5 28 3 0 0 6 1 0 2 26 12 6 0 0 0 0
0 0 5 0 0 0 0 0 8 23 1 0 0 0 3 0
0 3 22 2 0 0 0 0 18 28 24 24 24 24 23 24
24 25 25 19 7 3 13 12 16 19 26 26 17 11 8 7
3 4 1 4 15 16 12 8 13 22 32 33 27 21 19 18
23 23 16 8 21 31 30 31 31 31 31 31 31 30 31 31
31 31 31 32 32 32 32 32 32 32 33 33 32 32 32 32
32 32 33 33 32 33 33 33 33 33 33 34 33 34 33 33
5 27 2 0 0 2 1 0 2 25 11 6 0 0 0 0
0 0 4 0 0 0 0 0 8 24 1 0 0 2 8 4
1 3 22 2 0 0 0 0 15 28 25 25 24 24 23 24
23 19 10 2 11 13 17 14 18 16 8 4 4 6 5 4
6 9 11 18 30 34 31 23 12 15 25 23 30 27 18 21
20 20 20 14 9 25 31 30 30 31 31 31 31 31 32 31
31 32 32 32 32 32 32 32 32 32 32 32 32 33 33 33
33 32 33 33 33 34 34 33 33 33 33 33 33 33 33 33
5 25 1 0 0 0 0 0 2 26 11 5 0 0 0 1
0 0 3 0 0 0 0 0 7 25 2 0 0 3 8 8
5 3 22 2 0 0 0 0 13 29 25 25 24 24 24 22
16 6 6 11 15 12 15 15 10 5 2 5 12 13 13 21
28 37 41 56 71 78 76 62 44 37 31 27 22 30 21 13
17 17 6 10 5 15 29 31 31 32 32 31 32 32 32 32
32 32 33 32 32 32 33 32 32 32 32 33 33 33 33 33
33 33 33 32 33 33 34 34 33 33 33 33 34 34 34 34
7 24 1 0 0 0 0 0 2 25 11 6 0 1 0 0
0 0 3 0 0 0 0 0 9 26 2 0 0 1 7 8
5 2 23 8 1 0 0 0 13 29 25 25 24 25 22 17
7 9 13 18 19 31 41 38 35 31 25 22 24 24 27 38
63 57 62 75 94 99 100 97 91 78 69 61 49 38 29 18
11 11 8 1 1 3 23 31 31 31 31 31 32 31 31 31
32 32 32 32 32 32 33 32 33 32 32 32 33 32 33 33
32 32 32 33 34 34 33 34 34 34 34 34 34 35 35 34
25 29 11 3 3 3 1 0 5 25 10 6 0 0 0 0
0 0 5 1 0 0 0 0 12 30 9 2 2 0 0 4
3 1 26 27 21 15 11 10 22 29 25 25 25 24 18 13
9 10 10 17 16 11 17 23 33 29 35 27 25 29 39 56
77 73 85 107 113 115 115 110 110 106 98 85 76 66 45 34
21 10 6 4 0 0 13 30 31 31 31 30 31 31 31 31
32 32 32 32 32 32 33 32 33 33 33 33 33 32 33 34
32 32 32 33 33 34 34 34 34 34 34 34 34 34 33 34
32 40 37 22 24 25 25 22 23 25 10 7 0 0 0 0
0 0 14 22 13 10 6 2 9 35 26 20 19 14 8 7
6 5 28 36 33 32 33 36 37 31 25 25 24 22 17 12
9 9 20 12 4 2 6 8 11 25 31 27 27 29 44 69
81 95 109 122 124 124 124 123 122 119 115 109 96 82 78 47
37 20 4 3 0 0 5 30 32 32 31 31 31 31 31 31
32 32 32 33 33 33 33 33 33 33 33 33 33 33 33 33
33 33 33 33 35 33 34 33 34 34 32 31 30 30 30 31
33 46 38 23 29 35 36 36 36 26 9 6 0 0 0 0
0 0 19 40 33 32 32 28 28 38 20 14 17 18 19 18
20 22 32 30 31 32 35 39 39 32 25 24 25 21 14 6
4 5 6 2 2 3 4 7 9 30 28 23 28 32 49 73
87 111 122 125 125 125 125 124 124 124 122 120 114 102 89 74
58 43 10 0 1 0 0 28 32 30 31 31 31 32 32 32
32 33 33 33 33 32 33 32 32 32 32 32 32 32 32 33
31 31 30 32 32 30 30 29 28 28 26 24 22 20 19 18
35 43 30 22 29 35 36 38 38 27 10 9 3 1 0 0
0 0 20 38 34 38 40 41 35 31 16 9 9 9 10 10
11 13 16 15 18 22 28 29 29 28 25 24 24 18 9 2
1 2 3 2 3 4 5 6 20 31 24 19 31 36 48 65
95 124 126 126 126 125 125 124 125 124 124 123 122 115 106 93
83 70 40 12 0 0 0 21 32 31 31 32 31 31 32 32
32 32 32 32 33 31 31 30 30 31 31 31 30 29 29 29
27 26 25 24 23 20 19 17 16 16 15 15 16 16 16 15
34 38 17 4 11 16 18 23 29 27 10 13 25 26 21 14
9 6 22 30 32 38 40 41 35 27 17 10 9 8 7 7
6 5 5 5 7 11 23 23 22 24 25 25 23 11 3 0
2 1 2 4 5 4 4 11 31 26 22 17 31 36 47 64
103 125 125 125 126 125 125 125 125 125 125 125 124 121 114 106
98 89 72 52 5 0 0 16 31 31 31 32 31 31 32 32
32 31 32 32 31 30 30 32 28 26 25 23 22 20 20 19
18 17 17 17 17 17 18 18 19 20 20 20 22 22 20 14
32 38 13 0 0 0 0 0 8 24 11 13 31 38 38 36
35 32 33 22 23 30 34 36 33 28 19 11 8 7 5 5
6 6 6 7 8 12 21 14 21 26 26 23 16 3 0 0
2 3 2 4 8 5 5 25 27 27 11 23 28 32 47 64
104 124 125 126 126 125 125 125 125 125 124 124 124 124 120 113
104 98 93 76 37 0 0 12 32 32 32 31 31 30 29 28
27 25 24 23 21 20 22 31 21 16 17 18 18 18 18 19
20 21 21 22 22 23 24 24 25 25 25 23 25 26 25 11
29 39 12 0 0 0 0 0 5 24 11 13 30 38 38 38
39 39 36 10 2 6 10 16 18 23 21 11 7 1 0 1
4 8 7 6 9 14 24 22 26 30 29 19 8 1 0 3
3 4 4 7 10 5 9 29 26 20 15 27 29 35 42 70
100 119 125 126 125 126 125 125 125 125 125 125 125 125 123 118
111 103 98 91 68 19 0 10 28 26 25 24 22 21 20 19
19 18 18 18 19 18 18 28 20 18 21 22 23 24 24 25
25 26 26 27 27 27 28 28 28 29 27 23 23 29 30 19
26 36 10 0 0 0 3 10 14 23 16 15 25 31 32 34
35 37 32 5 0 0 0 0 5 20 21 8 5 0 0 0
0 2 1 1 4 10 26 31 26 27 26 18 3 0 1 5
7 5 7 14 10 7 20 23 23 15 22 24 30 39 39 66
99 112 120 125 126 125 125 126 125 125 125 125 124 124 123 121
112 107 101 98 85 54 3 10 20 19 19 19 20 20 20 21
22 23 23 23 24 24 22 29 23 23 26 27 28 28 28 29
29 29 30 29 29 29 29 30 30 28 29 31 26 25 30 26
23 32 8 0 0 0 6 18 19 20 19 16 19 21 24 26
26 32 30 4 0 0 0 0 0 19 21 7 3 0 0 0
0 0 0 0 0 4 26 30 21 21 18 12 0 0 4 8
9 9 10 19 13 16 26 21 28 21 24 26 30 36 39 68
96 102 116 123 125 125 126 125 125 125 125 125 125 125 124 123
117 111 104 101 93 71 29 18 21 23 23 24 24 24 25 26
27 27 27 28 29 28 24 24 22 26 29 30 29 30 31 31
31 32 32 32 32 31 30 29 30 29 28 32 33 25 24 27
24 31 6 0 0 0 2 9 13 16 16 15 16 16 20 23
24 31 29 3 0 0 0 0 0 19 17 1 0 0 0 2
3 0 0 0 0 3 26 32 17 19 14 7 0 1 11 16
15 12 15 20 17 25 24 28 26 27 27 26 36 35 40 68
84 100 113 121 124 125 126 125 126 125 125 125 125 124 124 123
118 113 107 102 96 81 56 27 27 28 28 29 28 29 29 29
29 30 30 30 31 29 19 9 11 26 31 32 32 32 32 32
32 34 33 33 33 33 32 30 30 30 28 31 33 32 25 22
26 32 5 0 0 0 0 0 1 12 11 14 12 12 17 21
25 30 27 3 0 0 0 0 0 21 12 0 0 0 0 1
7 4 0 0 0 2 25 32 16 15 11 4 1 5 21 24
18 16 22 21 22 24 24 29 31 23 26 27 36 37 42 62
83 92 108 114 122 125 125 125 125 125 125 125 124 125 124 123
119 115 108 101 97 86 68 38 30 29 30 29 31 30 31 31
31 31 29 27 25 27 18 5 6 24 31 33 34 33 32 33
33 33 33 33 33 32 33 33 31 30 29 29 33 33 32 22
29 32 5 0 0 0 0 0 1 15 14 14 3 0 0 3
7 10 16 3 0 0 0 0 0 22 11 0 0 0 0 4
10 8 4 0 0 3 26 33 19 13 9 3 2 14 29 31
21 17 26 24 25 30 24 28 27 27 23 31 33 39 48 56
76 90 103 108 123 123 126 125 126 125 125 126 125 125 124 123
120 116 110 102 97 90 74 50 31 31 32 32 32 31 32 32
33 28 13 7 6 19 17 4 4 24 32 33 34 33 33 33
33 33 33 34 34 34 33 33 33 31 29 27 32 33 32 27
30 32 5 0 0 0 0 0 2 20 19 17 3 0 0 0
0 0 6 2 0 0 0 0 0 22 10 0 0 0 1 11
14 9 5 0 0 3 26 35 22 13 11 3 5 24 35 37
25 27 30 26 27 29 27 29 29 26 27 28 34 41 49 59
78 92 97 101 117 122 126 126 126 126 126 125 126 125 124 123
122 119 113 106 98 91 80 59 33 32 33 33 34 33 33 33
33 30 19 18 22 26 17 0 3 24 32 33 34 33 34 34
33 33 34 34 34 34 34 33 33 33 30 27 28 30 29 27
28 28 7 0 0 1 0 0 2 24 20 17 3 0 0 0
0 0 4 1 0 1 5 0 0 21 7 0 0 0 0 6
13 3 0 0 0 2 24 34 22 11 11 6 10 31 39 40
32 35 28 30 34 29 26 33 32 27 26 31 34 34 45 63
76 92 85 95 113 124 126 126 126 125 126 125 125 125 125 124
122 119 117 108 100 89 83 68 40 32 33 34 34 33 33 33
33 33 32 32 31 30 20 1 3 25 32 33 34 34 34 33
34 34 34 34 34 34 33 33 33 33 33 29 26 25 24 28
20 23 17 7 4 7 8 3 3 24 19 16 3 0 1 4
0 0 4 2 0 7 10 2 0 21 7 0 0 0 0 0
9 1 0 0 0 1 22 34 20 10 11 10 17 36 46 47
43 40 39 32 33 27 28 33 30 26 26 29 32 38 45 63
75 88 85 97 114 125 125 126 126 126 125 126 126 125 125 124
119 113 113 107 100 89 78 76 54 33 33 34 34 33 33 33
34 33 33 33 32 31 24 3 6 26 33 33 34 33 34 33
34 34 34 34 34 34 34 33 34 33 33 33 29 24 25 30
15 24 23 23 21 22 26 24 23 30 20 15 3 0 5 10
2 0 6 11 7 15 15 9 4 23 6 0 0 0 0 0
10 3 0 0 0 0 20 33 20 9 13 12 21 42 56 50
46 46 39 35 26 26 30 32 27 27 26 30 35 42 41 56
71 83 86 103 123 127 127 127 127 126 126 126 126 122 116 108
104 93 96 93 88 80 74 76 70 42 34 34 34 33 34 34
34 33 33 33 32 30 26 14 16 29 34 34 35 35 34 34
34 34 34 34 34 34 34 34 34 34 34 33 30 25 26 32
18 24 18 5 4 10 17 24 33 32 21 14 3 0 3 6
1 0 8 29 29 32 30 29 28 32 8 0 0 0 0 0
11 4 0 0 0 0 15 31 14 8 14 16 31 51 60 51
50 47 40 30 19 26 31 27 25 25 27 32 37 40 37 56
68 77 93 118 127 127 126 127 126 126 125 125 119 104 87 58
40 37 39 36 39 42 54 68 75 57 33 34 34 33 33 34
34 34 33 33 32 30 27 25 26 32 34 34 35 34 35 34
34 34 34 34 34 34 35 35 34 35 34 34 32 25 24 32
21 25 15 0 0 3 5 11 32 31 20 15 7 0 0 0
0 0 9 33 34 37 36 39 42 40 20 10 10 5 3 4
14 8 2 2 0 1 12 30 12 11 19 19 37 52 59 53
55 51 37 18 21 26 20 21 26 26 25 30 32 34 42 56
59 72 103 125 127 126 126 126 126 125 124 112 91 69 53 40
30 20 13 14 21 22 30 61 72 63 31 34 34 34 34 34
34 34 34 34 33 31 29 29 32 34 34 35 35 34 35 35
34 35 35 35 35 35 35 34 34 34 34 34 32 25 23 24
21 27 14 0 0 11 17 18 31 27 17 16 14 2 0 0
0 0 8 31 32 34 34 38 41 40 31 26 26 23 22 22
23 19 16 13 12 11 18 28 13 14 22 20 44 50 58 52
59 44 22 20 21 12 17 29 29 28 29 26 32 37 49 50
58 79 115 128 127 127 126 126 125 112 94 72 62 63 66 63
59 48 35 28 31 29 31 58 70 55 23 25 34 34 35 34
34 34 34 33 33 32 32 31 34 35 35 35 36 35 35 35
35 35 35 35 35 35 35 35 34 34 34 34 33 26 23 27
23 29 13 0 0 4 15 22 33 24 16 18 14 1 0 0
0 0 8 29 29 31 31 31 30 30 30 30 30 30 29 30
29 27 26 25 22 20 24 28 20 15 25 29 45 39 47 50
51 30 18 17 13 16 28 27 31 30 27 26 31 37 39 45
60 99 126 127 127 126 126 126 123 95 74 73 87 91 96 99
97 85 69 53 48 40 44 64 64 38 9 12 35 35 34 34
34 34 33 34 33 32 33 33 35 34 34 34 35 35 35 35
35 35 34 34 35 35 34 35 35 34 33 33 32 25 24 30
24 30 15 0 0 0 1 18 34 24 16 18 14 5 2 1
0 0 10 32 28 28 29 29 27 28 30 31 33 34 33 30
30 30 32 35 32 30 30 29 22 16 24 34 40 29 34 36
34 26 18 18 12 19 21 24 24 23 25 25 28 32 36 50
84 124 127 127 127 126 127 126 122 109 105 112 109 110 109 104
93 81 67 61 69 68 68 75 59 25 6 16 35 34 33 34
34 33 33 34 34 32 33 34 34 34 34 34 35 34 35 35
35 35 34 34 34 35 35 35 34 34 34 33 32 26 23 29
25 31 14 0 0 0 0 14 34 24 16 17 22 27 26 22
21 20 26 35 30 29 30 30 31 33 35 33 35 39 39 31
28 28 34 39 37 35 34 29 18 18 27 39 28 25 24 24
25 20 24 9 10 8 15 18 26 26 28 28 31 40 44 72
112 126 127 126 126 126 126 126 125 122 125 124 122 113 92 82
71 55 39 56 84 99 98 84 47 16 17 32 33 33 34 34
34 34 34 34 34 33 34 35 35 34 34 35 35 35 35 35
35 34 34 34 34 35 35 35 34 34 34 34 33 26 24 29
25 31 12 0 0 0 0 14 35 25 16 17 28 41 42 40
41 42 42 40 32 30 30 30 33 37 38 34 34 38 39 31
27 25 32 38 36 35 36 32 20 20 33 41 21 16 15 15
12 21 14 2 4 7 11 19 25 28 37 43 49 67 84 114
126 127 126 126 126 126 126 126 126 125 126 125 111 96 106 86
54 30 22 49 95 120 118 90 37 34 33 34 34 34 34 34
34 34 34 34 34 34 35 35 35 34 35 35 35 34 35 34
35 34 35 34 34 35 34 35 34 34 34 34 33 27 24 30
24 31 11 0 0 0 0 13 35 24 15 18 27 38 39 40
40 42 43 39 21 16 14 15 20 28 37 34 31 26 27 25
23 23 27 23 17 18 24 28 18 22 39 41 16 8 7 10
19 15 7 6 22 33 24 23 45 61 84 92 98 118 123 126
125 126 127 127 126 126 126 126 126 126 126 120 108 107 86 79
75 28 41 62 93 121 125 104 52 33 33 34 34 34 34 34
33 34 34 34 34 34 35 35 35 34 34 34 35 35 35 34
35 34 34 34 34 34 34 34 34 34 34 34 33 27 24 30
24 31 11 0 0 0 0 11 33 22 14 17 19 23 24 25
26 28 30 28 6 0 0 0 1 9 33 31 17 4 5 8
11 22 26 11 0 0 4 16 15 21 40 36 14 4 2 9
13 11 20 87 120 122 114 105 116 112 117 123 120 124 122 124
124 126 126 126 127 126 126 126 126 126 126 123 118 113 108 104
103 44 69 88 108 125 126 118 54 10 23 32 34 34 34 33
33 33 33 32 33 34 34 34 35 34 35 34 34 34 34 34
34 34 34 34 34 35 33 33 34 34 34 34 34 28 24 29
25 32 11 0 0 0 0 11 33 23 14 17 20 25 25 24
23 23 23 22 5 0 0 0 0 8 32 26 4 0 0 0
5 23 28 10 0 0 0 9 12 22 36 29 15 3 1 10
13 19 104 128 115 121 128 128 128 127 126 125 120 119 119 122
124 126 127 126 127 126 126 126 127 126 126 126 125 125 124 104
70 42 58 99 121 125 126 123 92 17 22 33 33 33 32 27
25 24 23 22 25 31 35 35 34 34 35 34 34 34 34 34
34 34 34 34 35 35 34 34 34 33 34 34 34 28 24 28
29 28 10 0 0 0 0 12 36 24 13 17 23 28 30 29
29 29 29 25 7 0 0 0 0 11 31 20 0 0 0 0
2 24 28 10 0 0 0 6 11 20 33 25 11 0 3 10
6 61 126 100 106 123 116 128 129 129 128 126 120 117 119 123
123 127 126 127 126 126 126 126 126 126 126 126 126 126 125 118
101 72 62 98 125 125 125 124 118 57 24 33 34 34 29 14
10 10 9 9 12 29 35 34 35 34 35 35 34 34 34 34
34 33 34 34 34 35 34 34 34 34 34 35 34 29 24 28
30 23 15 8 5 4 3 16 34 24 15 19 25 30 31 31
31 31 32 27 6 0 0 0 0 6 28 16 0 0 0 0
2 25 27 10 0 0 0 4 10 17 20 23 5 0 2 5
3 87 120 111 129 129 128 128 128 128 128 128 120 113 118 122
126 128 127 127 127 127 126 126 126 126 127 126 126 126 125 119
105 86 80 112 124 126 126 126 124 104 34 31 34 33 29 12
7 7 8 8 11 29 35 35 36 35 34 35 35 34 33 34
34 34 34 34 34 35 34 34 34 34 34 34 35 30 25 28
27 26 26 25 24 22 21 25 29 26 24 25 27 29 30 29
29 30 30 26 8 0 0 0 2 3 25 13 0 0 0 0
2 25 26 9 0 0 0 1 11 20 12 23 6 0 0 0
3 97 118 121 130 129 129 126 128 129 129 127 124 112 116 122
126 127 127 127 127 126 126 126 126 126 127 126 126 126 125 121
109 94 98 122 126 126 125 126 125 121 91 36 33 33 28 11
8 8 8 8 11 28 35 35 35 35 35 35 35 34 34 34
34 34 34 34 34 35 34 35 34 34 34 34 35 31 24 26
26 25 26 26 26 26 26 26 26 26 26 26 27 27 27 27
28 28 28 27 18 1 0 0 2 3 24 12 0 0 0 0
1 25 26 10 0 0 0 0 11 19 8 17 8 0 0 0
1 88 120 126 129 128 125 76 122 128 128 128 126 113 115 123
126 127 127 127 127 127 127 127 127 127 127 126 126 126 124 119
109 97 107 122 126 126 126 126 125 124 117 79 35 34 28 11
7 8 8 8 10 27 35 35 36 35 34 35 35 34 33 34
34 33 34 34 33 34 35 34 34 35 34 34 35 31 23 26
24 25 25 25 25 25 25 25 26 25 25 25 26 26 26 26
26 27 27 26 19 1 0 0 1 2 24 11 0 0 0 0
0 22 27 11 0 0 0 0 11 20 11 11 10 0 0 0
0 67 125 127 129 129 114 84 126 128 129 129 128 121 117 120
125 127 127 127 127 126 127 127 127 127 127 127 127 126 124 116
107 101 110 122 127 126 126 126 126 125 124 111 60 34 30 14
10 10 10 10 11 25 34 35 34 34 34 34 34 34 34 34
35 35 34 33 32 32 33 34 35 35 35 34 35 31 25 27
11 10 11 10 11 11 11 11 11 11 11 12 13 13 14 14
15 17 22 26 20 0 0 0 0 1 24 13 0 0 0 0
0 21 28 9 0 0 0 0 11 18 16 4 6 0 0 0
0 35 124 128 130 129 112 123 124 128 129 129 128 125 118 121
123 125 127 127 128 128 127 127 128 127 127 127 127 127 126 117
108 106 110 119 127 127 127 126 126 126 126 123 91 40 31 18
14 14 14 15 15 23 33 35 35 35 35 35 35 34 34 35
35 35 34 19 9 9 12 26 34 35 35 34 35 31 25 25
0 0 0 0 0 0 0 0 0 0 0 0 0 0 0 0
0 3 18 25 21 2 0 0 1 1 23 18 1 0 1 1
2 21 29 16 7 6 6 9 16 16 17 0 2 0 0 0
1 8 104 130 130 127 114 129 121 129 129 129 129 127 122 123
124 127 127 127 127 127 127 127 128 127 127 127 127 127 126 120
114 110 110 116 125 127 124 125 125 125 125 125 101 52 31 16
11 11 10 11 11 23 34 35 35 35 35 35 35 35 34 34
35 35 33 10 0 0 0 20 35 34 34 34 34 31 25 25
0 0 0 0 0 0 0 0 0 0 0 0 0 0 0 0
0 1 20 26 23 15 11 12 18 18 26 29 24 22 23 23
23 33 32 26 30 30 31 35 30 19 16 0 0 0 0 0
1 1 66 131 129 126 121 129 121 127 128 128 128 126 124 127
125 125 126 127 127 126 127 127 127 127 127 127 127 127 126 124
118 114 110 113 122 126 126 125 125 125 125 122 94 48 30 16
9 9 10 9 9 23 35 36 35 35 35 35 35 35 34 34
34 34 32 7 0 0 0 14 34 34 34 34 33 31 25 25
0 0 0 0 0 0 0 0 0 0 0 0 0 0 0 0
0 1 19 27 26 30 32 33 34 30 28 33 41 40 39 40
42 42 36 26 34 37 39 44 40 21 11 0 0 0 0 0
0 0 32 125 128 125 122 130 128 128 128 128 128 127 124 125
126 124 125 125 127 127 126 126 127 127 127 127 127 126 126 126
122 117 111 109 119 125 125 125 125 113 111 107 68 37 31 16
8 9 9 8 9 22 35 35 35 35 35 35 35 35 34 34
33 33 30 6 0 0 0 7 33 34 33 33 33 31 25 24
0 0 0 0 0 0 0 0 0 0 0 0 0 0 0 0
0 0 18 26 25 29 33 35 34 28 24 26 35 36 36 36
37 37 35 24 27 31 35 36 34 23 4 0 0 0 0 0
0 0 11 101 129 126 120 129 128 125 126 127 127 126 125 125
124 125 125 125 126 125 126 125 126 126 126 126 126 126 125 125
123 118 111 107 116 125 125 122 98 64 94 78 39 34 31 15
8 8 8 7 8 21 34 35 34 34 34 34 34 33 33 30
20 18 16 2 0 0 0 6 32 33 33 32 32 31 24 23
0 0 0 0 0 0 0 0 0 0 0 0 0 0 0 0
0 0 15 26 23 25 27 29 33 29 24 21 22 23 22 23
23 24 26 24 24 27 28 26 23 22 5 1 0 0 0 0
0 0 4 60 124 128 128 127 127 127 127 127 127 126 126 125
125 123 125 125 125 125 124 125 125 125 125 125 125 125 125 124
124 120 115 108 113 115 119 100 88 97 73 37 33 34 30 15
7 8 7 7 8 20 33 34 34 33 34 34 33 33 32 15
0 0 0 0 0 1 0 5 31 32 32 32 32 30 24 22
0 0 0 0 0 0 0 0 0 0 0 0 0 0 0 0
0 0 13 26 23 20 16 19 23 21 20 22 20 20 22 24
25 24 26 28 30 33 33 29 25 24 10 5 0 0 0 0
2 0 2 37 96 126 128 127 127 128 127 126 127 126 126 125
125 124 124 124 125 125 125 125 125 125 126 125 125 124 125 125
125 123 116 111 115 104 92 98 112 102 25 28 33 34 31 15
7 7 8 7 7 21 34 34 33 33 34 33 34 33 32 10
0 0 0 0 0 0 0 4 31 32 32 32 32 31 24 22
0 0 0 0 0 0 0 0 0 0 0 0 0 0 0 0
0 0 12 26 23 12 1 2 3 5 12 23 25 31 32 36
36 25 24 26 28 32 37 33 27 25 19 5 0 0 0 2
6 0 1 24 81 108 125 128 127 127 127 127 127 126 126 126
125 124 125 125 126 126 126 125 125 126 126 126 126 125 125 125
124 125 120 114 121 119 114 114 110 95 25 27 33 33 31 15
6 7 7 7 7 21 33 34 34 34 34 34 34 33 32 15
0 0 0 0 0 0 0 4 31 32 32 32 32 30 24 23
0 0 0 0 0 0 0 0 0 0 0 0 0 0 0 0
0 0 10 26 23 10 0 0 0 0 12 24 26 34 33 34
34 11 4 6 7 14 32 35 28 26 25 12 0 0 0 3
8 1 0 15 73 102 105 114 126 128 128 127 126 126 125 125
126 125 125 125 125 125 126 125 125 125 126 126 126 126 126 125
125 125 124 120 123 122 116 109 105 87 36 27 33 34 31 18
10 11 9 9 10 21 33 34 34 34 33 34 33 33 33 27
4 0 0 0 0 0 0 2 23 32 33 32 32 31 26 23
0 0 0 0 0 0 0 0 0 0 0 0 0 0 0 0
0 0 8 24 22 11 0 0 0 0 11 24 24 31 20 13
22 5 0 0 0 2 27 35 28 26 27 19 1 0 0 4
13 7 0 7 58 98 105 103 109 110 105 116 124 121 122 121
125 126 125 126 126 125 126 125 125 125 125 125 125 125 125 125
125 125 125 124 123 119 109 104 107 83 44 26 32 34 32 27
25 25 21 23 24 29 34 35 34 34 34 34 34 32 22 24
6 0 0 0 0 0 0 0 9 33 32 33 32 31 26 24
0 0 0 0 0 0 0 0 0 0 0 0 0 0 0 0
0 0 7 25 22 12 0 0 0 0 12 25 24 31 14 2
18 5 0 0 0 1 24 34 28 28 28 25 4 0 0 3
10 11 1 3 44 87 101 105 119 119 96 107 119 115 118 121
125 125 126 126 126 126 125 126 126 125 126 126 126 126 126 126
126 125 125 122 117 112 107 112 117 96 61 28 32 33 33 33
34 34 32 33 34 33 35 35 35 35 35 35 33 21 2 1
8 7 0 0 0 0 0 0 8 32 33 33 32 31 27 24
0 0 0 0 0 0 0 0 0 0 0 0 0 0 0 0
0 0 5 24 22 13 0 0 0 0 13 24 24 31 14 2
17 7 0 0 0 0 20 34 28 27 27 25 13 0 0 1
5 12 6 3 35 75 97 103 123 128 126 119 114 110 113 121
123 125 126 126 126 126 126 126 126 126 126 126 126 126 126 125
125 125 124 117 114 112 118 122 113 95 72 29 30 32 33 33
33 34 34 34 33 31 28 28 26 24 22 22 14 2 0 0
5 5 0 0 0 0 0 0 3 28 33 32 32 30 25 22
0 0 0 0 0 0 0 0 0 0 0 0 0 0 0 0
0 0 4 23 22 14 0 0 0 0 13 24 25 32 14 1
17 8 0 0 0 0 18 34 28 27 27 26 21 3 0 0
3 8 8 3 25 64 86 97 121 129 128 120 110 107 111 119
123 125 127 127 127 126 126 126 126 126 126 126 126 126 125 126
126 126 124 115 112 118 122 99 78 69 46 25 31 30 31 32
33 33 34 34 25 9 6 52 25 1 1 2 0 0 0 5
0 0 0 0 0 0 0 0 0 21 33 32 31 30 26 23
0 0 0 0 0 0 0 0 0 0 0 0 0 0 0 0
0 0 5 22 22 15 0 0 0 0 11 25 25 31 15 1
16 11 0 0 0 0 17 33 28 27 27 27 26 9 0 0
2 9 6 4 23 52 74 90 118 127 127 122 108 104 111 118
123 124 126 127 126 126 127 126 126 126 126 127 127 126 126 125
126 125 123 114 108 108 84 62 52 35 24 25 29 29 29 31
33 33 33 32 17 0 46 125 101 12 4 19 1 0 1 12
0 0 0 0 0 0 0 0 0 5 18 18 24 30 27 24
0 0 0 0 0 0 0 0 0 0 0 0 0 0 0 0
0 0 3 21 22 16 1 0 3 0 11 26 26 34 19 3
15 13 1 1 1 0 17 33 28 27 27 27 26 15 0 1
1 7 5 6 19 44 69 87 112 126 127 123 108 102 108 111
117 121 124 126 126 126 126 127 126 126 126 126 126 127 126 126
126 125 119 84 73 74 77 76 64 39 21 25 27 27 29 30
32 32 23 20 9 1 55 96 92 20 10 22 15 11 15 20
10 7 6 5 4 4 4 2 2 2 3 2 18 31 27 24
0 0 0 0 0 0 0 0 0 0 0 0 0 0 0 0
0 0 3 22 22 17 3 0 7 8 12 26 27 34 23 8
14 11 4 6 2 0 14 31 27 26 27 27 27 22 2 0
7 2 4 5 16 43 63 83 110 125 128 126 110 98 102 108
116 120 122 125 126 126 126 125 126 126 126 126 127 127 126 126
126 122 100 92 105 107 107 101 92 68 29 23 25 27 28 30
31 30 12 12 12 13 16 19 21 21 22 25 27 26 25 25
22 19 17 14 12 10 10 9 8 7 6 7 23 34 31 27
0 0 0 0 0 0 0 0 0 0 0 0 0 0 0 0
0 0 2 20 22 19 17 17 22 25 26 33 29 34 23 14
14 15 9 10 7 5 15 27 26 26 27 27 27 25 11 0
7 6 0 4 15 45 61 77 105 124 127 127 118 100 97 104
114 118 119 124 126 125 126 126 126 127 126 126 126 126 126 126
125 117 104 120 123 122 118 109 90 67 34 23 25 26 27 29
31 31 13 9 10 10 11 12 12 13 15 17 19 15 16 14
10 8 5 3 2 8 30 31 33 34 35 37 42 44 41 36
0 0 0 0 0 0 0 0 0 0 0 0 0 0 0 0
0 0 2 20 21 23 35 39 40 40 41 39 32 33 17 12
16 22 19 18 17 17 20 23 25 26 26 27 26 26 21 3
2 8 3 1 12 35 59 77 102 123 128 128 122 105 98 102
108 113 120 122 125 126 126 127 126 126 126 126 126 127 126 125
122 114 117 120 120 118 111 91 53 41 24 23 24 26 27 30
31 32 21 4 0 0 0 0 0 0 0 0 0 0 0 0
0 0 0 0 0 18 51 52 52 51 51 49 48 45 42 36
0 0 0 0 0 0 0 0 0 0 0 0 0 0 0 0
0 0 2 20 20 22 37 42 41 41 41 40 33 31 12 4
13 23 21 22 21 21 21 23 24 26 26 26 26 26 25 12
0 0 2 2 23 44 57 72 99 123 128 128 124 110 98 101
107 108 114 115 118 122 122 124 124 125 126 126 123 125 125 123
120 117 120 121 119 114 106 82 57 39 20 23 24 25 27 29
31 31 21 1 0 0 0 0 0 0 0 0 0 0 0 0
0 0 0 0 0 30 49 49 50 48 45 41 42 39 35 32
0 0 0 0 0 0 0 0 0 0 0 0 0 0 0 0
0 0 1 19 21 19 25 26 25 25 25 23 25 29 11 0
12 24 24 24 24 25 24 25 25 25 26 26 27 27 26 21
2 0 0 0 20 47 62 71 96 121 130 129 125 114 101 94
99 103 110 112 114 117 120 119 120 121 122 123 124 123 121 119
117 119 119 119 118 115 106 84 58 29 21 23 24 25 26 28
30 31 14 0 0 0 0 0 0 0 0 0 0 0 0 0
0 0 0 0 2 30 36 35 42 37 34 27 30 29 25 28
0 0 0 0 0 0 0 0 0 0 0 0 0 0 0 0
0 0 1 19 20 17 14 12 13 13 14 12 18 30 12 0
11 25 25 26 25 25 25 25 25 25 25 26 26 26 25 25
14 0 0 0 10 43 60 66 93 118 129 129 127 122 102 93
95 98 104 107 112 113 114 118 117 118 118 119 121 120 117 113
110 115 115 114 114 113 103 82 58 21 22 23 24 25 25 27
29 29 9 0 0 0 0 0 0 0 0 0 0 0 0 0
0 0 0 0 0 6 5 5 27 29 26 23 22 22 21 25
0 0 0 0 0 0 0 0 0 0 0 0 0 0 0 0
0 0 1 19 20 17 15 15 14 14 14 12 20 30 19 11
19 26 24 25 25 25 25 25 25 25 25 25 25 25 25 25
22 9 1 2 15 39 61 70 89 118 129 129 126 124 114 102
94 93 95 102 104 107 110 110 114 114 114 116 118 118 113 114
113 113 113 116 116 115 105 83 56 15 21 23 24 24 25 26
28 24 2 0 0 0 0 0 0 0 0 0 0 0 0 0
0 0 0 0 0 0 0 0 15 32 30 28 28 27 25 26
0 0 0 0 0 0 0 0 0 0 0 0 0 0 0 0
0 0 4 21 21 18 18 18 17 16 16 13 20 32 29 30
32 27 23 24 24 25 25 24 24 24 24 25 25 25 25 25
23 18 8 4 13 32 49 69 87 115 127 128 126 122 116 104
97 93 90 96 99 102 103 104 109 109 111 111 114 114 114 112
117 112 114 114 114 115 106 88 57 18 21 23 24 25 25 25
26 16 0 0 0 0 0 0 0 0 0 0 0 0 0 0
0 0 0 0 0 0 0 0 8 30 31 29 28 27 27 26
0 0 0 0 1 1 2 2 3 4 4 5 6 7 7 8
10 10 13 20 19 18 18 19 18 18 18 14 18 25 23 26
27 23 22 24 24 23 24 24 24 24 24 24 24 24 25 24
20 12 10 6 14 36 57 71 85 113 125 128 127 125 119 110
104 105 92 92 94 93 95 98 101 100 102 105 109 107 111 111
111 111 115 113 115 112 105 87 59 19 20 23 24 24 24 24
23 5 0 0 0 0 0 0 0 0 0 0 0 0 0 0
0 0 0 0 0 0 0 0 3 26 28 26 26 26 24 25
9 9 11 12 13 13 14 14 15 15 16 16 16 16 17 17
17 17 17 17 18 18 18 18 19 18 18 16 17 19 18 18
21 21 22 23 23 23 23 23 23 23 23 23 23 23 24 23
21 15 17 14 22 40 57 71 83 110 123 128 126 123 120 112
106 104 100 98 95 93 95 95 93 96 96 99 102 101 102 104
107 107 109 110 110 110 100 79 58 19 20 22 23 23 23 23
19 2 0 0 0 0 0 0 0 2 0 0 0 0 0 0
0 0 0 9 0 0 0 0 0 20 21 16 17 18 15 16
15 13 16 17 17 17 17 17 17 17 17 17 18 18 17 18
17 17 17 17 17 18 19 19 19 19 18 17 18 20 19 18
20 21 22 23 23 24 24 23 24 23 24 23 24 24 24 23
23 21 20 18 29 46 63 72 81 109 124 128 127 123 121 115
109 104 103 101 100 97 99 95 94 93 93 92 92 93 98 98
98 102 104 106 104 99 93 68 53 13 20 22 22 22 23 22
11 0 0 0 0 0 0 0 0 0 0 0 0 0 0 0
0 0 1 20 0 0 0 0 0 14 18 16 17 16 13 16
16 13 16 16 17 17 17 17 18 23 24 12 6 9 13 13
8 11 15 15 16 18 20 19 19 19 18 17 18 20 20 20
21 21 22 23 23 23 23 23 23 24 23 23 23 23 24 23
23 22 25 19 41 63 73 78 81 106 121 127 128 126 120 117
110 105 106 106 103 100 102 100 98 95 91 88 82 79 81 81
88 91 96 96 93 89 82 56 30 6 19 23 22 22 22 21
8 0 0 0 0 0 0 0 0 0 0 0 0 0 0 0
0 0 10 23 0 0 0 0 0 9 21 23 24 22 20 23
12 11 11 11 11 11 11 14 30 41 25 2 0 0 0 1
0 1 7 11 11 10 10 9 10 14 18 18 19 20 21 20
20 21 22 23 23 23 23 23 23 22 23 23 23 23 23 22
20 23 26 17 53 75 83 82 80 101 117 126 129 126 123 117
115 109 108 106 105 106 103 99 94 91 90 85 80 77 68 65
72 73 80 79 78 74 54 36 12 9 20 22 22 23 23 22
4 0 0 0 0 0 0 5 0 0 0 0 0 0 0 0
0 0 14 17 0 0 0 0 0 3 23 25 25 26 25 24
0 1 0 0 1 2 5 25 48 34 6 0 0 0 0 0
0 0 0 0 0 0 0 0 0 2 14 19 19 21 21 21
21 21 22 22 23 22 23 23 23 22 22 22 22 20 20 21
19 28 25 21 65 85 90 85 79 96 115 124 127 125 122 120
121 115 114 112 109 108 107 100 97 94 90 82 75 69 62 60
57 54 47 45 45 36 26 19 16 17 21 23 22 22 23 25
1 0 0 0 0 0 1 11 0 0 0 0 0 0 0 0
0 0 3 3 0 0 0 0 0 0 11 20 21 21 21 23
0 0 0 0 0 6 14 40 43 12 0 0 0 0 0 0
0 0 0 0 0 0 0 0 0 0 7 19 20 20 21 22
21 21 21 22 22 23 22 23 22 22 22 22 22 19 16 20
26 34 25 35 74 90 93 88 78 93 112 124 125 121 123 119
120 119 116 113 117 111 108 105 97 88 74 65 58 51 45 37
32 26 24 26 21 21 21 19 19 20 20 20 21 21 21 12
0 0 0 0 0 0 0 0 0 0 0 0 0 0 0 0
0 0 0 0 0 0 0 0 0 0 2 10 14 13 16 22
0 0 0 0 0 5 26 41 22 1 0 0 0 0 0 0
0 0 0 0 0 0 0 0 0 0 7 20 20 20 21 21
21 21 22 21 22 22 22 22 22 22 22 21 20 15 14 18
30 39 34 45 84 94 96 88 79 89 111 123 123 122 119 118
121 123 121 117 116 112 108 102 92 83 68 50 33 20 14 10
14 19 33 39 37 34 31 26 21 17 15 12 13 12 11 3
0 0 0 0 0 0 0 0 0 0 0 0 0 0 0 0
0 0 0 0 0 0 0 0 0 0 6 9 17 17 18 21
0 0 2 2 0 5 35 34 4 0 1 2 0 0 0 0
0 0 0 0 0 0 0 0 0 2 15 21 21 21 20 20
21 20 21 21 22 21 22 22 21 21 21 20 18 15 15 19
35 41 49 61 89 96 97 90 79 85 110 119 120 123 121 122
126 120 120 119 118 113 107 99 87 70 48 27 5 0 0 2
15 15 20 31 37 25 19 14 8 4 3 1 1 1 0 0
0 0 0 0 0 0 0 0 0 0 0 0 0 0 0 0
0 0 0 0 0 0 0 0 0 0 10 15 17 24 24 24
1 3 7 6 0 9 41 26 3 11 18 17 1 0 0 0
0 0 0 0 0 0 0 0 0 9 18 19 18 19 20 20
21 22 21 21 21 21 22 22 21 20 19 18 16 17 17 27
39 43 63 68 93 100 99 92 80 85 108 121 123 121 121 125
125 121 122 120 119 114 106 97 80 60 45 34 18 1 8 16
23 18 15 18 23 5 2 0 0 0 0 0 0 0 0 0
0 0 0 0 0 0 0 0 0 0 0 0 0 0 0 0
0 0 0 0 0 0 0 0 0 0 5 9 10 23 24 25
11 10 8 5 0 14 37 13 8 25 25 22 7 0 4 7
1 0 0 0 0 0 0 0 0 1 3 3 3 7 17 20
21 20 20 20 21 21 21 21 21 20 18 18 19 17 18 34
42 44 70 64 95 100 101 95 80 83 106 121 125 124 121 123
126 123 122 121 119 117 108 97 81 60 53 57 31 11 24 28
27 23 19 18 23 10 4 2 0 0 0 0 0 0 0 0
0 0 0 0 0 0 0 0 0 0 0 0 0 0 0 0
0 0 0 0 0 0 0 0 0 0 0 0 1 20 25 24
14 8 3 0 0 21 34 5 5 26 26 22 6 1 18 21
12 1 0 0 0 0 0 0 0 0 0 0 0 0 13 19
19 19 19 19 19 19 20 20 20 19 18 17 20 18 24 38
41 42 70 68 90 102 102 96 82 81 103 119 126 127 124 122
125 122 120 119 120 117 107 95 76 58 60 65 27 30 36 33
28 24 17 20 22 23 19 16 4 0 0 0 0 0 0 0
0 0 0 0 0 0 0 0 0 0 0 0 0 0 0 0
0 0 0 0 0 0 0 0 0 0 0 0 0 10 23 23
12 2 0 0 0 26 35 4 6 23 14 18 10 14 28 25
17 4 0 0 0 0 0 0 0 0 0 0 0 0 11 18
18 18 18 18 18 18 19 21 22 25 25 21 26 29 35 37
40 44 68 74 78 104 103 98 84 79 99 118 126 128 125 124
123 123 123 119 117 115 105 90 68 63 71 68 33 38 38 34
27 22 10 12 20 28 29 29 24 15 8 1 0 0 0 2
12 8 0 0 0 0 0 0 0 0 0 0 0 0 0 0
0 0 0 0 0 0 0 0 0 0 0 0 0 3 17 18
9 1 0 0 0 29 36 5 5 10 0 10 17 25 31 22
15 7 0 0 0 0 0 0 0 0 0 0 0 0 9 17
17 18 17 17 19 22 29 34 38 40 36 27 29 32 36 36
40 46 63 79 54 103 104 99 86 79 96 115 124 126 124 124
123 123 124 121 116 111 100 78 65 74 84 64 52 37 37 35
28 23 19 7 14 32 38 40 40 38 40 34 22 12 6 12
23 14 0 0 0 0 0 0 0 0 0 0 0 0 0 0
0 0 0 0 0 0 0 0 0 0 0 0 0 0 15 17
8 2 1 0 0 31 40 13 7 4 0 12 25 33 28 8
9 9 0 0 0 0 0 0 0 0 0 0 0 0 6 18
19 20 22 26 35 38 37 40 44 41 36 25 25 32 35 38
40 46 56 96 39 94 103 99 87 80 94 113 123 127 126 123
123 124 122 118 116 110 94 70 76 86 89 59 60 38 38 35
29 22 21 15 15 30 45 44 40 41 44 42 43 42 40 35
28 13 2 0 0 0 0 2 0 0 0 0 1 0 0 0
0 0 0 0 0 0 0 0 0 0 0 0 0 0 12 17
12 10 8 0 0 26 41 22 11 2 0 15 30 33 16 0
7 10 0 0 0 0 0 0 0 0 0 0 0 0 3 23
30 37 38 37 39 41 46 46 45 43 38 29 27 32 34 37
39 48 49 100 46 72 102 98 89 80 91 112 123 126 126 122
122 123 120 117 112 104 84 76 86 93 85 68 54 39 41 37
29 22 22 16 17 34 38 43 39 39 38 42 41 41 43 42
43 42 38 27 15 5 2 4 0 0 0 1 4 0 0 0
0 0 0 0 0 0 0 0 0 0 0 0 0 0 10 16
16 12 10 0 0 21 36 29 11 0 1 17 29 21 5 0
5 7 0 0 0 0 0 0 0 0 0 0 2 10 22 37
40 38 38 37 39 40 45 49 46 43 38 29 23 33 34 35
38 49 49 90 64 45 98 97 92 82 87 107 121 125 123 121
121 121 117 112 105 88 78 88 96 102 72 88 47 41 42 37
30 24 24 17 20 31 40 44 41 36 38 43 41 42 44 44
48 41 43 46 43 42 31 22 7 0 0 1 5 0 0 0
0 0 0 0 0 0 0 0 0 0 0 0 0 2 7 14
16 13 11 1 0 18 35 33 11 0 1 12 12 2 0 0
0 0 0 0 0 0 0 0 0 6 19 32 34 36 36 36
41 42 37 35 38 41 46 45 43 40 35 28 27 34 33 35
36 45 50 76 90 29 76 96 92 84 84 105 120 126 126 122
118 119 115 106 96 88 94 102 108 101 72 99 47 43 42 37
32 25 22 21 23 30 38 39 38 38 39 40 40 42 45 44
44 40 39 41 40 40 39 40 41 31 6 1 5 1 0 0
0 0 0 0 0 0 0 0 0 0 0 0 0 3 7 15
19 13 11 1 0 6 14 12 3 0 0 0 0 0 0 0
0 0 0 0 0 0 0 1 20 36 37 40 38 38 37 39
40 38 35 31 37 43 42 42 42 39 33 30 32 33 30 34
34 41 45 61 108 44 46 93 92 84 82 102 117 125 126 120
115 114 111 106 104 102 105 111 113 86 103 94 41 39 42 36
30 23 19 20 26 33 40 41 40 41 41 38 40 41 42 41
42 41 41 41 41 40 40 42 41 42 42 23 8 1 0 0
0 0 0 0 0 0 0 0 0 0 0 0 0 3 7 17
4 1 0 0 0 0 0 0 0 0 0 0 0 0 0 0
0 0 0 0 0 0 8 30 41 42 41 40 39 40 39 39
41 40 34 32 39 42 39 41 42 40 36 34 33 34 31 32
35 39 46 50 108 85 33 76 93 85 82 99 113 123 126 120
112 109 107 107 108 108 112 116 105 80 119 75 43 43 41 35
30 23 18 19 29 34 40 39 38 39 38 37 40 41 42 40
42 43 41 41 39 37 38 39 39 38 40 42 35 8 0 0
0 0 0 0 0 0 0 0 0 0 0 0 0 2 6 16
0 0 0 0 0 0 0 0 1 0 0 0 0 0 0 0
1 0 0 0 0 20 40 42 41 38 39 38 37 39 39 39
40 40 36 31 38 43 41 41 42 40 35 34 32 32 30 29
34 39 47 48 95 107 51 47 90 86 82 96 110 120 125 119
108 101 104 109 112 113 116 117 86 93 110 50 39 42 37 37
29 23 15 14 35 40 41 41 39 39 37 37 40 40 39 40
40 40 39 39 38 37 38 36 38 38 37 38 30 24 3 0
0 0 0 0 0 0 0 0 0 0 0 0 0 1 5 14
0 0 0 0 0 0 1 12 13 7 4 9 10 9 1 5
4 0 0 0 17 42 41 38 39 39 40 39 37 39 38 38
42 40 37 29 34 43 43 39 40 40 35 34 32 34 30 29
33 38 44 51 79 119 84 32 76 88 83 93 111 121 124 120
104 95 104 110 112 113 117 103 78 109 94 43 43 41 35 37
29 25 15 12 36 40 42 42 43 41 37 37 40 38 36 39
41 40 41 42 41 40 41 40 39 39 37 39 29 24 27 1
0 0 0 0 0 0 0 0 0 0 0 0 0 1 6 13
0 0 0 0 0 0 2 16 16 21 23 19 21 17 11 13
3 0 0 8 39 40 39 37 38 40 39 39 39 38 37 40
42 43 38 29 35 41 42 39 39 42 37 32 33 39 34 29
31 39 43 46 64 123 106 48 49 87 85 92 110 121 124 117
99 88 102 108 111 115 110 83 82 118 92 35 43 43 35 32
28 24 16 15 37 38 38 38 40 42 38 37 40 39 35 37
39 38 38 39 40 39 40 39 40 37 35 36 27 20 37 16
0 0 0 0 0 0 0 0 0 0 0 0 0 1 9 12
0 0 0 0 0 0 0 5 15 27 31 25 27 26 23 13
0 0 0 28 39 38 35 35 37 40 41 42 41 40 41 42
41 41 39 30 34 40 40 42 39 41 39 32 33 40 37 32
34 39 48 50 58 118 122 81 33 77 88 90 108 123 126 118
97 85 102 111 116 117 96 83 80 118 83 3 3 30 40 31
27 24 19 25 39 38 39 37 36 40 40 38 39 39 33 37
41 41 36 36 41 41 44 41 40 38 38 37 28 19 34 31
2 0 0 0 0 0 0 0 0 0 0 0 0 2 12 14
0 0 0 0 0 0 0 0 12 19 27 32 29 29 18 2
0 0 12 36 32 34 34 33 37 41 42 41 41 42 43 44
43 41 40 31 35 39 39 44 41 39 39 34 33 42 41 30
34 38 50 49 37 119 126 107 49 54 92 90 106 123 126 118
93 84 105 117 120 114 96 90 100 115 34 0 0 5 40 33
26 25 24 32 39 37 37 37 35 39 40 39 39 37 35 38
41 41 37 37 42 41 41 41 40 39 38 39 29 21 33 32
14 0 0 0 0 0 0 0 0 0 0 0 0 4 12 13
0 0 0 0 0 0 0 0 2 8 18 24 20 13 2 0
0 2 28 38 32 30 36 29 36 41 43 39 42 43 44 42
41 41 40 32 35 36 38 43 41 39 41 36 33 42 41 31
36 39 53 24 14 119 126 108 82 36 88 92 104 121 127 117
91 85 105 119 114 106 102 89 116 91 3 0 0 0 35 34
26 26 29 34 39 37 37 36 35 35 39 39 39 34 34 37
40 38 34 36 41 41 41 40 38 36 38 39 28 22 36 33
27 5 0 0 0 0 0 0 0 0 0 0 0 3 10 9
0 0 0 0 0 0 0 0 0 0 5 6 6 0 0 1
1 18 30 36 34 30 38 30 33 40 41 40 42 43 43 43
42 42 42 36 34 33 38 43 42 36 40 36 35 42 40 34
34 36 52 18 5 113 127 108 112 59 78 97 101 121 127 115
86 86 103 111 91 76 105 111 121 37 0 0 0 0 35 35
25 25 32 33 37 37 36 34 35 33 38 39 36 32 31 35
39 39 38 36 39 39 39 39 40 40 40 40 28 22 37 34
27 18 6 0 0 0 0 0 0 0 0 0 0 3 13 10
0 0 0 0 0 0 0 0 0 0 2 2 1 0 0 4
12 28 30 35 32 28 38 31 34 39 42 45 44 43 45 46
43 44 46 42 36 32 36 42 43 36 39 37 38 42 40 40
34 33 48 23 1 99 130 110 120 94 62 99 96 119 128 114
81 71 86 70 49 77 121 125 73 13 7 7 0 0 34 38
30 30 39 35 36 37 37 36 36 35 34 37 36 31 32 34
36 38 37 36 40 41 41 41 39 37 40 39 25 25 35 36
28 19 27 6 0 0 0 0 0 0 0 0 0 3 13 11
0 0 0 0 0 0 0 0 1 5 5 5 4 12 6 5
30 26 31 35 29 28 40 30 30 36 40 42 43 44 44 45
43 45 47 44 39 30 32 42 42 35 40 37 39 43 40 41
40 37 46 25 0 75 132 119 121 112 68 80 93 113 127 110
62 51 56 49 53 111 124 76 24 8 12 16 3 5 34 45
33 36 43 34 39 37 38 38 39 39 35 36 35 32 32 36
38 39 36 33 35 38 39 36 38 36 38 37 26 26 36 34
29 27 42 38 1 0 0 0 0 0 0 0 0 2 11 8
0 0 0 0 0 0 0 0 1 6 4 4 13 29 21 29
35 29 34 35 29 27 40 31 31 37 40 44 43 43 43 43
44 44 42 44 38 27 31 40 45 37 41 38 40 43 37 44
43 40 48 18 0 46 131 128 126 115 72 54 74 105 123 95
54 48 40 48 57 101 67 21 16 8 17 24 21 17 23 47
47 37 40 37 36 38 38 39 38 40 36 37 37 32 34 37
37 37 36 34 36 39 39 37 36 37 40 39 28 27 35 35
35 33 39 94 59 0 0 0 0 0 0 0 0 1 10 6
0 0 0 0 0 0 0 0 2 8 6 7 21 33 35 40
35 30 35 36 29 24 39 34 34 36 40 44 47 46 45 46
46 45 42 46 39 27 31 38 47 37 39 40 42 41 36 44
46 47 46 6 8 30 100 129 130 122 78 49 50 78 102 66
39 23 11 14 29 29 24 20 16 15 33 33 38 34 24 33
51 47 47 46 37 35 40 38 38 39 39 38 36 33 38 40
38 38 39 35 37 39 40 37 35 36 40 39 29 28 37 39
39 36 59 123 119 28 0 0 0 0 0 0 0 0 2 1
0 0 2 0 0 0 0 0 1 9 9 17 34 43 46 40
38 32 36 37 27 23 38 34 34 35 39 42 45 43 44 40
42 43 40 44 38 32 30 36 43 38 40 40 40 40 40 44
47 49 27 13 24 27 39 88 121 126 89 50 45 51 72 56
30 32 37 38 40 33 25 26 26 32 39 35 37 37 37 28
31 48 52 50 57 29 38 42 42 43 41 38 39 37 39 39
37 37 39 38 37 40 38 35 35 39 38 37 27 28 37 42
39 42 99 127 122 91 3 0 0 0 0 0 0 0 0 0
0 0 1 1 0 0 0 0 0 4 11 24 37 69 66 40
40 33 33 36 30 24 42 37 36 35 39 42 44 43 44 40
41 43 42 45 42 32 28 39 45 40 40 43 51 44 47 44
43 34 34 34 30 26 27 30 42 54 29 7 13 29 42 49
33 36 37 42 43 34 26 36 40 38 41 37 38 38 39 37
33 27 26 30 35 26 34 43 44 44 42 39 38 38 41 41
39 40 39 37 39 39 38 35 35 38 39 37 28 29 41 39
44 68 125 127 120 124 45 0 0 0 0 0 0 0 0 0
0 0 0 0 0 0 0 0 0 0 6 23 45 114 106 44
41 38 33 36 33 24 42 37 37 35 40 43 44 43 45 42
43 44 42 47 44 34 30 39 46 41 40 38 43 31 32 35
38 40 40 41 41 39 37 37 33 38 28 28 30 31 42 43
34 39 41 45 44 33 28 41 41 42 44 40 40 41 41 41
39 36 35 38 37 38 40 42 44 41 38 40 41 40 38 39
38 37 39 38 41 39 37 34 35 39 41 40 29 29 38 43
56 118 127 125 119 125 104 8 0 0 0 0 0 0 0 0
3 0 0 0 0 0 0 0 0 0 0 13 82 134 131 72
41 40 37 35 33 24 41 37 36 36 41 43 45 45 44 42
43 45 43 46 44 36 31 37 44 44 41 42 41 41 42 42
43 44 43 43 43 44 43 42 38 37 36 38 34 32 54 44
38 41 46 49 42 30 35 45 43 43 42 40 41 42 42 42
41 39 38 41 42 41 42 42 45 43 40 40 43 42 41 39
38 39 40 40 42 42 39 38 40 41 43 40 30 29 39 49
106 128 126 124 122 125 125 63 0 0 0 0 0 0 0 0
5 2 0 0 0 0 0 0 0 4 4 37 124 133 132 116
46 37 38 35 34 24 39 40 36 36 39 43 44 45 44 43
44 45 43 45 45 36 33 35 43 46 43 43 45 47 47 46
44 45 41 43 43 44 45 44 40 36 41 36 35 35 114 107
69 54 53 57 41 31 44 45 44 55 70 64 52 44 42 42
41 41 40 42 43 44 45 45 44 43 43 42 43 41 43 39
37 40 40 40 42 42 42 40 39 40 44 41 32 31 47 90
128 127 126 124 125 125 125 112 10 0 0 0 0 0 0 0
4 1 0 0 0 0 0 0 0 8 16 97 134 132 132 131
78 38 39 37 35 28 63 64 48 38 40 42 44 45 45 44
43 44 44 47 45 39 32 36 43 48 46 47 48 47 47 46
44 44 43 43 43 43 44 43 41 37 43 37 32 51 129 129
129 126 124 122 86 52 66 87 112 126 128 127 126 119 103 82
65 44 41 41 43 44 45 44 44 54 71 85 85 70 56 48
41 41 40 41 42 43 42 40 46 62 78 76 43 36 72 126
127 126 126 125 124 124 125 124 60 0 0 0 0 1 10 3
1 0 0 0 0 0 0 0 0 4 45 130 133 132 132 131
115 46 36 39 33 52 131 131 125 112 98 88 84 83 84 74
65 68 86 103 104 82 45 35 41 46 45 43 43 44 45 47
55 64 66 62 54 48 46 46 43 44 54 62 35 77 130 128
128 128 128 127 126 127 127 127 127 128 127 127 127 127 126 125
125 118 94 72 55 56 65 85 111 124 125 126 126 125 125 121
114 107 97 89 87 89 96 108 120 125 125 125 91 48 118 125
124 124 124 123 123 123 123 123 109 10 0 0 0 0 8 3
0 0 0 0 0 0 0 0 0 7 90 133 132 131 131 131
130 82 38 34 35 57 132 131 130 130 130 129 130 130 130 130
130 129 130 129 129 129 119 74 42 42 45 45 54 82 106 121
127 129 129 128 126 121 117 117 117 120 124 126 92 99 128 127
127 127 127 126 126 127 127 126 126 127 126 126 126 125 126 126
125 126 125 125 124 124 125 125 124 124 124 125 125 124 124 124
124 124 124 124 124 124 124 124 124 124 123 123 100 83 125 123
123 123 123 123 123 123 122 122 122 64 0 0 0 0 0 0
0 0 0 0 0 0 0 0 0 32 125 132 131 130 131 130
130 122 52 35 32 55 131 131 130 130 130 130 130 130 130 129
129 129 129 129 129 130 129 128 115 102 103 114 126 129 128 128
128 128 127 127 127 128 128 127 127 127 127 127 124 124 127 126
127 127 127 127 126 126 126 126 126 126 127 126 125 125 125 125
124 124 125 125 125 125 125 125 125 125 124 125 124 124 124 124
124 124 124 124 124 124 123 123 123 123 123 123 115 118 123 123
123 123 123 122 122 122 121 121 122 112 12 0 0 0 0 0
