P2
128 120
142
0 7 39 37 30 30 30 29 29 29 28 28 28 27 28 27
27 27 27 26 26 26 26 26 26 25 25 24 24 24 23 23
23 22 22 21 22 22 22 21 20 20 20 19 20 19 19 18
19 20 21 23 23 23 22 17 18 19 19 24 23 23 22 22
22 23 21 21 21 18 21 22 23 23 23 23 24 24 24 24
24 25 24 25 25 25 25 26 26 27 27 27 27 26 28 27
28 28 28 29 29 30 30 30 30 31 31 31 31 31 32 32
32 32 31 32 31 32 32 33 32 32 33 33 33 33 33 34
0 7 39 36 29 29 29 29 29 28 28 28 29 28 28 28
28 27 27 27 27 26 26 25 25 25 24 25 24 24 23 23
23 23 23 22 22 22 21 21 21 20 21 20 19 20 20 19
19 20 22 23 24 23 22 17 18 20 18 24 24 24 24 22
23 24 22 22 22 19 22 22 24 23 24 24 25 25 24 25
25 25 25 25 25 25 26 26 26 27 27 27 27 27 28 28
28 29 29 29 30 30 31 31 30 31 31 32 31 31 32 31
32 31 31 31 32 32 33 33 33 33 32 33 32 32 33 33
0 8 38 36 29 29 29 29 29 28 28 28 28 28 28 27
27 27 26 26 26 26 26 26 26 25 25 24 25 24 24 23
23 23 23 23 22 22 22 21 21 21 20 20 20 20 19 19
19 20 21 24 24 24 23 18 18 21 19 24 24 24 24 23
23 23 22 22 22 19 22 23 24 24 25 25 26 25 25 25
25 25 25 25 25 26 26 26 26 26 27 28 27 28 28 28
28 29 29 29 30 30 30 30 31 30 30 31 31 31 31 31
32 32 33 32 32 32 33 32 33 32 33 33 33 33 33 33
0 7 38 35 29 29 29 29 28 28 28 29 28 28 28 28
28 27 28 27 27 26 26 25 26 26 25 25 25 24 24 24
24 24 23 23 22 23 22 22 21 22 21 20 21 20 20 20
20 20 22 24 24 25 24 18 18 22 19 24 24 24 24 24
24 24 22 23 22 20 23 23 25 24 25 25 26 25 25 25
26 26 25 26 26 27 27 26 27 28 28 28 27 29 29 29
29 29 30 30 30 30 29 30 31 31 31 31 31 32 31 32
33 32 33 33 32 33 33 33 33 33 33 33 34 33 33 34
0 9 38 35 29 29 29 29 29 28 29 28 28 28 28 27
27 27 27 27 26 27 26 26 26 25 26 25 25 24 24 23
24 23 23 22 22 22 22 22 22 21 21 21 21 21 20 20
20 21 22 24 25 25 24 18 18 23 19 24 25 25 24 24
23 23 23 22 22 20 23 23 25 25 25 25 26 26 26 26
26 26 26 27 26 27 27 27 28 27 28 29 28 28 28 28
28 29 29 29 30 31 31 31 31 31 32 31 32 32 32 32
32 32 33 33 32 32 32 33 32 33 33 33 34 33 33 34
4 16 38 34 29 29 29 29 29 28 28 28 28 28 28 28
27 27 27 26 26 27 26 26 25 25 25 25 25 24 24 24
24 23 23 23 23 22 23 22 22 21 21 21 21 21 20 21
20 21 22 25 25 25 24 18 19 23 18 24 25 25 25 24
23 23 23 23 23 20 23 23 25 25 25 25 26 26 26 26
26 26 27 26 27 27 27 27 27 27 28 27 27 28 28 29
29 29 30 31 30 31 32 32 32 31 32 31 32 32 32 32
32 33 33 33 32 33 32 33 33 33 33 33 33 33 33 33
19 25 37 33 29 28 29 29 29 29 28 28 28 28 27 27
27 27 27 27 26 26 26 26 25 26 25 25 25 24 24 24
23 24 23 23 23 23 23 22 22 22 22 21 21 21 21 20
21 21 22 25 25 25 24 18 19 24 20 24 26 25 25 25
23 23 23 23 23 19 23 24 25 26 26 26 26 26 26 27
27 27 27 27 26 27 27 27 28 28 28 28 28 29 29 29
29 29 30 31 31 31 31 31 31 31 32 32 32 32 32 32
33 32 33 33 32 32 32 33 32 32 33 33 33 33 33 33
29 30 33 31 29 29 29 29 29 28 28 28 28 28 27 28
28 27 27 27 27 27 26 26 26 26 25 26 25 25 25 24
24 24 25 24 23 23 23 23 22 22 22 21 21 21 21 21
21 21 23 25 25 25 25 19 19 25 21 23 25 25 25 24
24 24 23 23 23 21 23 24 25 26 26 26 26 26 26 26
26 26 26 26 28 27 28 28 28 28 28 29 29 29 29 29
30 30 31 32 31 31 31 31 31 32 32 32 32 32 32 32
32 31 32 34 32 32 33 33 33 33 33 33 34 34 34 34
22 25 28 29 29 30 29 29 29 28 28 28 28 28 27 27
27 27 27 27 27 27 26 26 26 26 26 25 25 25 25 25
24 23 24 23 23 23 23 23 22 22 22 22 22 21 21 21
21 22 23 26 26 26 25 19 19 26 22 23 27 25 25 25
24 24 24 24 24 21 24 24 25 26 26 26 26 26 26 26
27 26 27 27 28 27 28 28 28 28 28 29 29 29 30 30
30 31 31 32 31 31 32 31 32 32 32 32 32 32 32 32
33 32 32 34 32 32 33 33 32 32 33 33 33 34 34 34
10 13 17 20 23 25 28 29 29 29 29 29 28 28 28 28
27 27 27 27 27 26 26 26 26 26 26 25 25 24 24 25
24 24 24 24 24 24 23 23 23 22 22 22 22 21 21 21
21 22 24 26 27 26 26 20 19 26 23 22 26 26 26 26
25 24 24 25 24 20 24 24 26 26 26 26 27 27 26 27
27 27 27 27 28 28 28 29 28 28 28 29 30 30 30 30
31 31 31 32 31 31 32 32 32 32 32 32 32 31 32 32
32 32 32 34 33 33 33 33 33 33 33 33 33 33 33 33
8 9 9 9 11 12 14 18 20 23 26 27 28 28 28 27
27 27 27 27 27 27 27 26 26 26 26 26 25 25 25 25
25 24 25 24 24 23 23 23 23 23 23 23 22 22 22 22
22 23 24 26 27 26 26 19 19 26 25 22 27 26 26 26
25 25 25 25 24 21 24 25 26 26 27 27 28 27 27 28
28 27 28 28 29 28 28 28 28 28 29 30 30 30 30 30
31 31 31 32 31 31 32 32 32 32 31 31 32 32 32 33
33 33 33 33 33 32 33 32 33 33 33 32 32 32 33 33
16 13 10 9 9 9 9 10 11 9 10 16 25 28 28 27
27 27 28 27 28 27 27 27 27 26 26 25 25 25 25 25
25 24 24 25 24 24 24 24 24 23 23 23 22 22 22 22
22 23 24 26 27 26 26 20 20 27 26 21 27 27 27 26
25 25 25 25 25 22 25 26 27 27 27 27 27 27 27 27
27 28 28 29 29 28 29 29 29 30 29 30 30 30 31 31
30 31 31 32 32 32 32 32 33 33 32 32 32 32 33 33
32 33 33 32 31 31 32 32 32 33 33 34 34 33 34 34
34 27 14 15 13 10 9 9 10 6 4 10 24 28 28 28
28 27 27 27 27 27 27 27 26 27 26 25 25 25 25 25
25 25 25 24 24 24 24 23 24 23 22 22 22 22 22 22
22 23 24 27 27 26 26 20 20 27 27 21 27 27 27 26
26 26 25 25 25 22 25 26 27 27 27 27 27 27 28 28
28 29 29 29 29 29 29 29 29 30 30 30 30 30 31 31
31 32 32 33 32 32 32 32 33 32 32 31 31 31 31 32
32 32 32 32 32 33 33 33 32 33 33 34 34 32 33 33
40 33 21 26 29 25 20 17 14 9 6 9 23 28 28 28
27 27 27 28 28 27 27 26 26 26 26 26 26 25 25 25
25 25 26 30 28 26 25 24 23 24 23 23 23 23 23 22
22 23 24 26 27 26 26 20 20 27 28 21 27 28 27 27
25 26 25 25 26 22 26 26 27 27 28 28 28 27 28 28
28 28 28 29 29 29 29 29 29 30 31 30 30 30 31 31
32 32 32 32 31 31 31 31 32 32 31 32 32 32 32 33
33 32 33 32 32 32 33 33 33 33 33 33 34 33 33 33
40 34 27 31 34 32 33 35 33 23 8 10 24 28 28 28
28 28 34 34 33 30 28 28 27 26 26 26 26 26 25 25
25 25 31 37 35 31 30 28 24 24 24 23 23 23 23 23
23 24 25 26 27 27 26 21 20 28 28 21 26 27 27 27
26 26 26 26 26 23 26 26 28 28 28 28 28 28 28 28
28 28 29 30 30 29 30 29 30 29 30 30 31 30 31 31
31 31 31 31 31 32 32 32 32 32 32 33 32 32 32 33
33 33 33 33 33 33 33 33 33 33 33 34 34 33 33 33
21 32 30 33 36 36 38 39 40 31 9 12 25 29 29 28
28 28 37 37 35 33 32 31 31 29 28 27 26 25 25 26
26 25 31 36 34 33 33 32 28 24 24 23 23 24 23 23
23 23 24 27 27 27 26 21 20 27 29 21 26 28 28 27
26 27 26 26 26 24 26 26 28 28 28 28 28 29 28 29
29 29 29 29 31 30 30 29 30 30 31 31 31 31 30 30
31 30 30 31 31 32 32 32 31 31 32 33 33 32 32 33
33 33 33 33 32 33 32 33 33 33 33 33 34 33 33 33
4 31 31 34 35 36 38 39 40 33 11 13 27 31 30 29
29 29 36 38 36 34 35 36 37 33 32 32 30 27 27 27
26 26 29 29 29 30 32 32 29 24 24 23 24 24 24 24
24 24 25 28 28 28 26 19 19 20 28 22 25 29 28 28
27 27 28 27 28 25 27 29 29 29 29 29 29 29 29 29
30 29 30 30 30 29 29 29 30 30 31 31 31 30 31 31
32 32 32 32 32 31 31 32 32 32 32 33 33 32 33 33
33 33 33 33 33 33 33 33 33 34 34 33 34 33 33 33
6 31 26 28 32 36 38 39 39 33 13 13 29 31 29 30
31 32 29 18 24 32 35 38 38 30 20 24 28 30 30 30
30 28 26 16 12 15 19 22 26 25 24 24 24 24 24 24
24 25 25 27 28 28 23 15 16 16 28 23 24 24 20 20
24 25 21 20 16 23 24 25 23 23 23 26 29 29 29 29
29 30 29 30 29 30 31 31 30 31 31 31 32 31 32 31
32 32 31 31 32 31 32 32 32 32 33 33 33 33 33 33
33 33 33 33 33 33 33 33 34 34 34 34 34 33 34 34
9 30 9 4 11 19 26 29 32 32 13 13 29 33 28 28
33 37 25 0 1 13 21 23 28 25 1 1 5 10 16 22
27 29 26 13 4 5 5 2 18 26 25 24 25 24 24 24
25 25 26 29 29 29 26 18 14 9 10 7 3 10 25 30
27 27 23 16 14 14 18 22 24 23 17 15 18 28 30 30
30 30 30 30 30 31 31 31 30 31 31 32 32 31 32 31
32 32 32 32 32 32 32 33 33 32 32 34 33 33 33 34
33 33 33 33 34 34 34 33 34 35 34 34 34 34 34 34
6 29 5 0 0 0 1 3 8 29 14 11 18 25 29 31
35 39 27 0 0 2 8 10 16 24 1 0 0 0 0 1
3 13 26 11 0 0 2 0 17 27 26 25 25 25 25 25
25 26 26 29 29 27 17 4 2 4 8 11 17 24 28 27
29 25 16 16 17 19 22 26 27 33 28 15 15 18 23 31
31 30 31 31 31 32 31 31 32 31 32 32 32 32 33 32
32 32 33 33 33 32 33 33 33 32 33 34 35 34 34 33
33 33 33 34 34 33 34 34 34 34 34 34 35 35 35 35
5 30 4 0 0 0 0 0 2 27 13 8 0 1 6 12
21 28 24 0 0 0 2 4 12 25 2 0 0 0 0 0
0 6 26 7 0 0 0 0 18 28 26 25 25 25 25 26
26 26 27 24 11 4 3 7 12 16 22 25 25 19 23 30
22 18 24 25 27 26 30 23 25 30 29 25 16 13 14 17
29 32 31 31 31 32 31 31 32 32 32 32 33 32 33 33
33 33 33 33 34 33 34 33 33 34 33 34 34 34 33 32
33 34 33 34 34 34 34 34 35 35 35 36 35 35 35 35
6 30 4 0 0 2 0 0 2 28 14 7 0 0 0 0
0 2 12 1 0 0 0 0 9 22 1 0 0 0 0 0
0 5 24 3 0 0 0 0 20 29 26 26 26 25 25 25
26 25 15 2 5 7 12 17 19 22 28 28 17 20 20 19
20 25 30 36 34 33 31 32 28 25 24 21 20 21 17 9
12 27 32 31 31 32 32 32 32 32 32 32 33 33 33 33
32 32 33 33 34 33 33 33 34 33 33 34 34 34 34 33
34 34 34 34 34 34 34 34 34 35 35 34 34 34 34 33
6 29 3 0 0 8 1 0 2 28 13 7 0 0 0 0
0 0 7 0 0 0 0 0 9 24 1 0 0 1 4 0
0 4 24 2 0 0 0 0 19 29 26 26 26 25 25 24
20 9 4 12 13 14 19 22 26 26 18 11 15 11 8 9
13 21 19 18 26 35 32 37 33 26 23 21 20 23 23 22
10 11 28 31 31 32 32 32 32 32 32 33 33 33 33 33
33 33 33 33 33 33 34 33 33 33 33 35 33 33 34 34
34 34 34 34 34 35 35 35 35 35 35 35 35 34 35 34
6 28 3 0 0 3 1 0 2 27 13 7 0 0 0 0
0 0 4 0 0 0 0 0 9 26 2 0 0 3 9 5
1 4 23 2 0 0 0 0 17 30 26 26 25 24 18 7
1 8 13 17 16 21 25 23 15 6 10 6 4 4 6 4
7 14 21 16 19 14 21 30 35 32 27 19 23 20 20 18
18 9 14 30 31 31 32 32 32 32 32 33 33 32 33 33
33 33 34 34 34 34 33 33 33 34 34 34 34 34 34 35
34 34 34 34 34 35 35 35 35 35 35 35 34 35 34 34
6 26 2 0 0 0 0 0 3 27 12 7 0 0 0 2
0 0 4 0 0 0 0 0 9 27 2 0 0 4 9 9
6 3 23 3 0 0 0 0 15 30 26 26 23 18 7 4
7 15 15 15 13 11 6 4 2 4 8 10 10 11 19 26
37 53 65 61 51 37 34 35 33 29 31 22 14 17 18 7
7 4 5 21 31 31 31 32 32 32 33 32 33 33 33 33
33 33 33 33 33 34 33 33 33 33 34 34 34 34 34 34
34 34 34 34 35 35 35 35 35 35 35 34 34 34 35 35
8 26 1 0 0 0 0 0 3 27 12 7 0 1 0 0
0 0 3 0 0 0 0 0 10 27 2 0 0 2 7 8
6 3 24 9 1 0 0 0 14 30 26 24 19 11 6 13
18 19 26 40 35 27 16 12 11 18 18 21 33 41 52 52
67 80 96 104 96 85 74 72 62 46 44 28 20 11 13 10
6 0 0 10 30 32 32 31 32 32 32 31 32 32 32 33
33 33 34 33 33 34 33 33 34 33 33 34 34 34 34 34
33 34 32 34 35 35 35 35 35 34 35 35 35 35 35 35
26 30 11 3 4 3 1 0 6 26 11 7 0 0 0 0
0 0 6 2 0 0 0 0 13 31 10 2 2 0 0 4
4 2 27 29 22 16 12 11 22 30 26 22 16 7 12 9
16 28 29 33 38 49 48 43 27 26 27 32 41 72 70 72
88 104 111 110 107 107 103 94 89 76 67 46 30 22 11 6
7 1 0 2 24 32 32 32 32 32 32 32 32 32 32 33
33 33 33 34 34 34 34 34 33 34 34 34 34 34 34 34
34 33 33 34 35 35 36 35 36 35 35 35 35 34 34 35
33 41 39 23 25 25 26 22 24 26 11 8 0 0 0 0
0 0 14 23 14 11 7 2 10 36 28 22 20 15 9 8
7 6 29 36 34 33 34 36 37 31 25 18 14 12 9 21
22 11 7 10 14 23 19 32 29 25 31 37 57 85 79 98
114 122 122 124 124 120 118 114 109 98 89 82 45 35 25 7
2 2 0 0 18 33 32 32 31 31 32 31 32 32 32 32
32 33 33 34 34 33 34 34 33 34 34 34 33 34 34 34
34 34 34 33 35 34 35 34 34 35 33 31 31 31 31 32
34 47 39 25 31 36 37 37 37 27 10 7 0 0 0 0
0 0 20 41 34 33 33 30 28 38 21 15 18 19 19 19
20 23 33 31 31 33 36 40 40 32 25 17 10 6 10 15
9 4 3 5 7 10 19 34 28 29 30 39 64 87 97 114
124 128 128 128 127 127 126 122 120 117 103 95 76 61 44 27
7 1 0 0 9 32 32 32 32 32 32 32 32 32 32 33
33 33 33 34 33 33 33 33 33 33 34 33 33 33 33 33
32 32 31 33 33 31 31 30 29 28 27 24 23 21 20 18
37 45 31 23 30 36 37 39 40 29 10 9 4 1 0 0
0 0 21 39 35 39 40 41 36 31 17 9 10 10 10 10
11 14 16 16 19 23 29 30 29 28 24 14 7 2 4 5
2 3 3 4 7 8 27 32 25 26 35 43 70 83 109 127
128 128 128 128 128 128 128 127 125 124 119 110 97 80 73 53
38 13 0 0 4 30 32 32 31 32 32 32 32 32 32 33
33 33 34 34 34 33 33 32 32 32 32 32 31 30 29 30
27 27 26 24 23 21 20 18 17 17 16 16 16 16 16 16
35 40 18 5 12 17 19 24 30 28 11 14 25 27 22 14
9 7 24 31 34 39 41 42 36 29 18 11 11 9 8 7
7 6 6 7 8 12 24 24 23 23 20 7 1 1 2 4
4 2 5 4 6 16 33 27 20 28 40 43 61 84 122 129
129 130 129 129 128 128 127 127 127 127 125 120 112 102 93 82
67 54 5 0 1 28 32 31 32 32 33 32 32 33 33 34
33 33 33 33 32 30 32 33 28 26 25 24 23 21 20 19
19 18 18 17 18 18 18 19 19 20 21 21 22 23 21 15
34 40 14 0 0 0 0 0 9 25 11 14 32 40 39 37
35 33 34 23 24 31 35 38 35 29 21 12 10 7 6 6
7 8 7 8 9 13 22 14 21 23 11 3 0 3 3 3
6 6 7 4 7 31 31 29 15 29 39 42 56 88 121 129
130 129 129 128 129 128 128 127 128 127 126 124 119 112 104 96
90 74 38 0 0 26 32 31 32 32 32 32 31 31 30 29
28 26 25 24 23 21 23 32 22 17 18 18 18 18 19 20
20 21 21 23 23 24 24 25 25 26 26 24 26 27 26 12
31 41 13 0 0 0 0 0 6 25 12 14 32 40 40 40
40 41 37 11 3 6 11 17 19 24 22 11 8 2 0 1
6 9 8 7 10 15 25 23 25 20 6 2 0 4 6 3
6 10 8 6 19 31 31 18 21 31 33 44 57 94 122 128
130 129 128 129 128 128 127 128 128 127 128 127 124 118 110 104
97 90 71 20 0 27 31 29 28 27 26 25 24 22 21 20
19 19 18 19 20 20 19 28 20 19 22 23 24 25 26 26
27 27 28 28 28 28 29 29 29 29 29 25 24 31 31 20
27 37 10 0 0 0 3 10 15 24 17 16 26 33 33 35
37 39 34 6 0 0 0 0 5 21 22 9 7 0 0 0
1 3 2 1 5 10 27 32 22 14 1 0 3 6 8 5
9 15 10 7 27 29 28 11 28 30 33 41 57 92 116 126
128 128 128 128 128 128 128 128 128 128 127 127 125 121 112 107
100 97 85 57 11 22 22 21 20 19 20 19 20 20 20 21
22 23 23 24 25 25 23 29 24 24 27 28 28 28 30 29
30 30 31 30 30 31 31 31 31 30 31 32 27 26 32 27
24 34 8 0 0 0 7 19 20 22 21 18 20 21 25 27
28 33 31 4 0 0 0 0 0 21 23 9 5 0 0 1
0 0 0 0 0 4 27 28 17 8 1 1 8 10 11 10
16 16 11 19 27 23 24 20 23 29 40 40 57 89 114 117
127 129 129 129 128 129 128 128 128 128 128 127 126 123 116 110
103 100 92 71 38 21 21 22 23 24 25 25 26 26 27 27
28 29 29 29 30 28 25 26 23 27 31 31 31 32 32 33
33 33 33 33 33 33 31 30 32 30 30 33 34 27 25 29
26 33 7 0 0 0 2 10 14 18 17 15 17 17 21 25
25 33 31 3 0 0 0 0 0 20 18 2 0 0 0 4
4 0 0 0 0 3 26 23 13 3 2 4 13 16 11 16
24 19 17 27 28 30 23 29 25 28 40 38 53 90 102 113
123 126 128 129 129 129 129 128 129 128 128 127 127 124 119 112
105 101 95 80 58 28 26 27 28 29 29 29 29 29 30 30
30 31 31 31 32 31 21 10 12 28 33 33 34 34 33 34
34 34 34 34 34 34 34 31 30 32 30 33 35 33 26 24
28 33 6 0 0 0 0 0 2 13 13 15 13 13 18 22
27 32 29 3 0 0 0 0 0 22 14 0 0 0 0 2
8 5 0 0 0 3 25 18 11 1 2 13 24 22 18 18
25 24 25 29 22 33 28 27 28 34 40 40 54 83 96 109
120 126 128 128 128 128 128 128 128 127 128 128 127 125 120 116
108 101 96 85 68 40 30 30 31 31 31 32 31 31 32 32
32 33 30 28 26 28 19 6 5 25 33 34 35 34 34 34
34 35 35 35 34 34 34 34 32 31 30 30 35 34 33 22
30 34 5 0 0 0 0 0 1 16 14 16 3 0 1 3
7 11 17 3 0 0 0 0 0 23 12 0 0 0 0 4
11 10 5 0 0 3 22 13 9 3 5 23 31 26 20 24
26 26 27 31 26 33 26 29 25 36 38 43 55 74 92 101
114 119 127 128 128 128 129 128 129 128 128 128 127 125 121 116
110 101 96 87 73 51 32 32 33 32 33 33 33 33 33 33
33 30 14 7 6 20 17 4 4 24 33 34 35 34 34 35
34 34 35 34 35 34 35 34 35 32 30 29 33 34 33 28
31 33 6 0 0 0 0 0 2 22 19 18 4 0 0 0
0 0 6 2 0 0 0 0 0 23 10 0 0 0 2 12
15 10 5 0 0 4 19 16 11 5 11 30 35 32 23 31
26 28 32 26 28 31 27 28 25 34 37 47 57 70 87 101
111 116 128 127 128 128 128 127 128 127 128 127 127 124 122 118
112 104 98 90 80 59 34 33 33 33 33 33 34 34 34 34
34 30 19 18 22 26 16 0 3 24 33 34 35 34 34 34
35 34 34 34 35 34 35 34 34 34 31 28 29 31 30 27
29 29 7 0 0 2 0 0 2 25 21 18 3 0 0 0
0 0 5 2 0 2 5 0 0 22 8 0 0 0 0 6
13 4 0 0 0 2 18 25 9 7 23 39 45 37 31 36
28 27 36 24 28 31 30 26 30 34 38 44 57 71 88 101
104 109 122 126 128 129 129 129 129 129 128 128 127 125 123 120
116 107 98 91 84 66 41 33 33 33 34 34 34 34 33 33
35 33 33 32 32 31 20 1 4 25 33 35 35 34 35 34
34 34 34 34 35 34 34 33 34 34 34 31 27 25 25 29
20 24 17 8 4 7 9 4 4 25 19 17 4 0 0 4
0 0 4 2 0 7 10 2 0 21 7 0 0 0 0 0
9 1 0 0 0 1 18 26 9 11 31 49 55 42 40 34
32 30 34 25 27 34 30 29 29 34 36 40 52 72 87 100
91 105 119 127 128 128 128 128 128 128 127 127 128 126 123 120
118 111 101 90 80 75 54 33 33 33 34 34 34 33 33 34
34 33 33 33 31 31 24 4 5 26 32 33 35 34 35 34
34 35 34 34 34 34 34 34 34 34 34 33 28 24 25 31
15 24 23 23 20 23 26 24 23 30 20 14 3 0 5 11
2 0 6 11 7 15 15 10 4 23 7 0 0 0 0 0
10 3 0 0 0 5 17 26 12 17 37 57 57 47 51 39
38 41 24 20 33 30 27 28 27 33 33 40 51 69 84 95
91 104 116 128 128 129 129 129 128 128 127 127 127 125 122 113
110 105 97 86 75 76 67 41 33 33 33 34 34 33 34 33
34 33 33 33 32 30 26 14 15 29 34 34 35 34 35 34
33 34 33 34 34 34 34 33 34 35 34 34 31 25 26 33
19 25 19 6 4 10 17 24 33 33 22 14 3 0 3 6
1 0 9 30 30 32 31 30 29 33 9 0 0 0 0 0
11 4 0 0 0 7 15 24 18 22 44 61 53 51 51 48
40 35 19 24 29 28 29 26 27 31 39 41 43 63 79 89
90 105 125 129 129 128 128 128 127 127 127 123 115 103 91 80
81 78 69 61 63 65 73 56 33 33 33 33 34 33 34 34
34 34 34 33 32 30 27 25 26 32 34 35 35 34 34 34
34 35 35 35 35 35 35 34 34 34 34 34 32 26 25 32
20 26 16 0 0 3 5 11 32 31 20 15 7 0 0 0
0 0 8 33 35 38 37 39 44 41 20 11 10 4 3 5
14 8 3 2 1 9 12 21 22 26 52 54 58 56 48 50
34 21 16 26 28 26 25 27 28 36 42 40 41 64 72 83
96 120 129 128 129 128 128 128 128 127 123 109 86 58 37 27
23 18 20 23 33 55 70 63 33 31 34 33 34 34 34 34
34 34 33 33 33 31 29 29 31 35 35 35 36 35 35 35
35 35 35 35 35 35 35 34 35 35 35 35 33 26 22 24
22 28 15 0 0 11 18 18 33 28 18 17 16 3 0 0
0 0 9 32 34 35 35 39 42 42 31 27 27 24 23 23
24 19 16 14 13 18 15 26 27 31 54 41 59 54 50 40
22 13 23 24 20 23 27 25 28 33 35 36 48 60 63 76
104 128 130 130 130 129 128 128 126 118 98 75 57 45 36 25
18 17 20 26 24 47 67 57 26 19 34 34 35 34 34 34
35 35 35 33 34 33 32 32 35 36 36 35 37 36 35 36
36 36 36 35 35 35 36 36 35 35 35 34 33 26 23 27
24 30 14 0 0 4 16 24 34 25 16 18 14 1 0 0
0 0 9 31 30 32 33 33 32 31 31 31 32 30 30 30
30 28 27 25 23 24 16 28 31 37 45 36 49 48 44 25
14 23 19 12 21 32 29 28 28 27 35 42 56 53 60 79
116 130 130 130 130 129 128 121 102 79 65 62 67 70 68 65
53 36 37 33 30 50 67 45 15 7 34 35 35 36 35 35
36 35 35 34 34 34 33 34 35 35 35 35 35 35 36 36
36 35 36 36 36 36 36 36 36 36 34 34 34 27 25 31
27 32 16 0 0 0 2 20 36 25 17 19 15 5 2 2
0 0 11 33 30 30 30 30 29 29 32 33 34 35 35 32
32 31 34 37 33 27 17 26 41 39 32 27 37 38 31 15
18 14 12 20 32 28 34 29 25 28 34 44 44 48 60 97
128 131 130 130 130 130 128 106 79 74 77 88 93 100 100 93
79 64 56 53 49 62 65 36 9 15 36 35 35 35 36 36
35 35 35 35 35 34 35 35 36 35 35 36 37 36 37 36
36 36 36 36 36 37 36 36 36 36 34 34 34 27 25 31
28 33 15 0 0 0 0 16 37 26 18 18 25 29 28 24
23 22 28 38 31 32 32 32 34 36 37 35 36 41 41 33
29 30 37 41 37 28 18 25 48 40 22 20 27 25 22 22
18 14 15 23 24 29 24 25 26 28 32 35 38 50 78 123
132 131 131 130 130 130 125 114 106 107 108 109 109 108 98 86
71 60 63 76 76 78 59 25 20 33 35 35 36 35 35 36
36 36 36 36 36 35 36 37 37 36 37 37 37 37 37 37
36 37 36 36 36 37 36 36 36 36 36 36 36 28 27 32
27 33 14 0 0 0 0 16 37 26 17 19 30 43 44 42
43 44 44 42 34 31 31 32 35 39 40 35 37 41 41 33
29 27 33 40 36 29 18 25 50 33 15 20 18 17 25 20
19 7 12 12 20 22 28 28 28 28 32 42 43 67 107 127
131 130 130 130 130 129 127 124 123 123 123 117 101 85 75 62
44 47 63 95 105 93 52 35 36 35 35 35 35 35 35 35
35 35 35 36 37 36 36 36 37 36 36 37 37 36 36 36
36 36 36 36 36 36 37 36 36 36 36 36 35 29 25 31
26 33 12 0 0 0 0 15 37 27 18 20 28 40 41 42
43 44 44 41 23 18 16 17 22 30 40 36 33 28 29 27
25 25 28 25 20 24 16 29 49 28 10 14 12 14 14 22
7 4 6 10 16 25 30 30 35 40 45 61 71 104 124 130
131 131 131 130 130 129 129 129 129 128 121 99 100 103 78 52
28 37 73 116 125 108 59 34 33 34 35 35 35 35 35 35
35 35 35 35 36 36 37 36 37 36 36 36 37 37 36 36
36 36 36 36 36 36 36 36 35 36 36 36 35 29 25 31
26 34 12 0 0 0 0 12 34 23 15 19 20 25 26 27
28 28 31 30 7 1 0 0 1 10 34 33 19 5 6 9
12 23 28 13 1 14 14 28 42 22 7 4 7 10 21 12
4 17 47 55 44 40 56 60 82 87 91 111 118 126 126 128
130 130 130 130 130 130 130 130 129 126 112 100 83 49 35 24
33 59 85 118 129 120 69 29 31 33 34 35 34 35 35 35
34 34 34 34 36 36 36 36 36 36 36 36 36 36 36 36
36 36 36 35 35 36 36 35 35 35 35 35 35 29 25 31
26 33 13 0 0 0 0 12 35 24 15 19 21 27 26 26
25 24 24 23 6 0 0 0 0 9 33 28 5 0 0 0
6 25 29 11 0 9 13 25 37 16 5 1 4 13 14 9
47 114 130 129 125 123 124 114 116 119 117 123 122 122 124 126
130 130 129 130 130 129 130 130 129 124 122 124 124 115 91 54
37 74 94 118 128 125 90 11 14 30 32 34 35 35 33 28
26 25 24 23 25 32 36 35 35 35 36 35 35 35 36 36
36 35 36 35 36 36 35 35 34 35 35 35 35 29 25 30
30 30 11 0 0 0 0 13 38 25 14 18 23 31 31 30
30 30 31 25 8 0 0 0 0 12 32 20 0 0 0 0
2 25 28 11 0 8 13 21 27 10 5 0 3 12 10 35
123 125 101 117 122 131 131 131 130 126 120 118 120 122 125 127
129 130 129 129 129 129 130 129 128 128 128 126 123 117 110 95
70 69 96 123 128 127 115 50 17 20 25 32 34 34 30 14
10 10 10 9 13 29 36 36 36 35 35 35 35 35 35 35
34 34 34 34 35 36 35 34 35 35 35 36 36 30 25 29
30 24 15 9 6 5 3 17 35 25 16 20 26 32 32 32
32 32 34 28 6 0 0 0 1 6 29 16 0 0 0 0
2 25 27 9 0 7 11 17 18 9 2 0 6 10 3 77
128 98 122 131 122 130 131 131 131 130 122 117 120 123 124 127
131 130 130 130 129 129 128 128 129 129 129 126 112 103 98 88
73 81 116 126 128 128 126 96 18 6 15 31 34 34 29 12
7 8 8 8 11 29 36 36 36 35 35 36 35 35 34 34
35 35 35 35 35 35 35 35 35 34 35 35 35 31 25 28
28 27 27 26 25 23 22 26 30 27 25 26 28 30 30 30
31 31 32 28 10 0 0 0 2 4 26 15 0 0 0 0
2 25 26 9 0 4 15 16 11 5 0 0 3 4 3 100
119 117 132 132 132 131 131 131 131 131 125 113 118 121 127 130
130 129 129 130 129 129 129 129 129 129 130 128 122 108 89 73
77 98 124 128 128 128 127 116 73 7 12 30 34 33 28 11
7 8 8 7 11 29 37 36 37 36 36 36 35 35 35 34
35 34 35 35 35 35 35 35 35 35 35 35 36 31 25 28
27 26 27 27 27 27 27 27 27 27 27 27 28 28 28 28
29 28 28 28 18 1 0 0 3 2 24 13 0 0 0 0
2 24 27 12 0 4 15 18 8 6 0 0 0 0 3 101
119 125 132 131 131 121 129 131 130 130 129 114 115 121 130 130
131 130 130 129 130 129 130 129 129 129 129 128 128 121 105 86
83 103 125 128 128 128 127 124 112 52 12 30 34 34 29 10
7 8 8 7 9 27 36 36 36 36 35 36 35 34 34 35
34 34 34 34 34 35 35 35 35 35 35 35 35 31 24 26
25 25 25 25 25 26 26 26 26 26 26 26 26 26 26 27
27 27 27 28 20 1 0 0 1 2 25 12 0 0 0 0
0 22 27 11 0 2 13 20 5 9 3 0 0 0 1 87
122 128 131 131 123 67 126 131 131 131 130 120 114 122 127 128
129 130 130 129 129 128 129 129 129 130 130 129 129 124 116 99
82 97 122 129 129 128 127 127 121 101 35 29 34 34 30 13
9 9 10 10 11 25 35 35 35 35 35 35 34 34 34 34
34 34 34 34 33 32 33 34 35 35 36 35 35 32 25 27
11 11 11 11 11 11 12 11 11 11 11 12 13 13 14 15
16 18 23 26 20 1 0 0 0 1 24 14 0 0 0 0
0 21 28 10 0 1 13 22 1 8 2 0 0 0 0 62
128 129 132 132 113 96 127 129 131 130 131 127 115 121 124 128
129 130 130 129 129 129 129 130 129 129 129 130 129 128 123 106
87 92 114 127 127 128 128 128 125 116 79 34 34 34 31 17
14 13 13 14 14 24 34 35 35 35 35 35 35 34 34 35
35 35 34 20 9 8 11 26 35 35 35 34 34 31 25 26
0 0 0 0 0 0 0 0 0 0 0 0 0 0 0 0
0 3 18 26 22 2 0 0 1 1 23 19 1 0 1 1
2 21 29 17 8 8 16 21 3 8 1 0 0 0 0 26
124 130 132 131 113 127 122 129 131 131 131 129 120 120 123 125
130 130 129 129 129 129 130 129 130 130 129 129 130 129 125 111
90 87 103 125 124 126 127 127 128 125 98 48 34 35 32 16
10 11 10 10 11 22 34 36 36 35 35 35 35 36 35 35
35 35 34 10 0 0 0 20 35 35 35 35 35 32 25 26
0 0 0 0 0 0 0 0 0 0 0 0 0 0 0 0
0 1 21 26 24 16 11 12 19 18 27 30 24 23 24 23
25 34 33 27 31 31 25 17 4 1 0 0 0 0 0 4
95 132 132 130 116 132 122 130 131 131 131 129 122 126 125 123
126 128 129 130 129 129 129 129 129 129 130 129 128 128 127 111
90 80 98 127 129 128 127 128 128 125 99 55 34 35 31 15
8 9 9 9 9 22 35 36 36 35 36 36 35 35 35 34
35 35 33 8 0 0 0 13 34 35 35 34 34 32 26 25
0 0 0 0 0 0 0 0 0 0 0 0 0 0 0 0
0 1 21 28 27 31 33 34 35 32 29 34 43 41 40 41
43 43 37 27 34 37 29 12 5 0 0 0 0 0 0 0
54 132 131 130 122 132 124 129 131 131 131 130 123 124 125 123
123 124 126 128 128 129 129 130 129 130 129 129 129 129 127 111
89 76 89 129 128 128 127 125 123 116 86 46 34 35 32 16
8 9 9 9 8 22 35 36 35 35 35 35 36 35 35 34
34 34 31 6 0 0 0 8 34 34 34 34 34 32 26 25
0 0 0 0 0 0 0 0 0 0 0 0 0 0 0 0
0 0 18 28 27 30 34 37 36 30 25 27 36 38 37 37
39 39 36 25 28 33 30 9 4 0 0 0 0 0 0 0
22 122 131 130 121 131 130 129 131 131 131 130 127 125 124 122
125 125 126 128 128 127 128 129 129 129 129 128 128 128 125 109
83 76 70 117 124 115 94 71 93 97 55 31 34 35 31 16
7 8 8 7 9 22 35 36 35 36 35 35 35 35 34 31
20 18 17 2 0 0 0 6 33 34 34 34 34 32 26 24
0 0 0 0 0 0 0 0 0 0 0 0 0 0 0 0
0 0 17 28 26 27 30 32 35 31 26 24 24 24 25 25
25 26 28 25 27 29 29 12 2 0 0 0 0 0 0 0
7 89 132 131 124 131 131 129 130 131 131 131 129 127 126 124
123 126 127 128 129 128 128 129 129 129 128 130 129 128 121 100
75 79 81 86 86 76 73 87 94 54 17 29 35 36 33 16
8 8 8 9 9 23 35 36 36 35 36 35 35 35 35 16
0 0 0 0 0 1 0 6 33 34 34 34 35 33 26 24
0 0 0 0 0 0 0 0 0 0 0 0 0 0 0 0
0 0 15 28 25 22 18 20 24 23 21 24 22 22 23 26
26 26 28 30 32 35 33 24 5 0 0 0 0 0 0 0
2 53 121 132 131 131 131 132 131 131 130 130 130 129 127 123
122 125 126 128 129 128 128 128 129 129 129 129 129 124 111 87
71 77 96 105 103 101 96 58 59 19 10 29 34 35 32 15
7 7 8 8 9 22 35 36 35 35 35 35 36 35 33 10
0 0 0 0 0 0 0 6 33 34 33 33 34 32 25 23
0 0 0 0 0 0 0 0 0 0 0 0 0 0 0 0
0 0 13 27 24 13 1 2 4 7 14 24 27 32 33 38
37 27 26 27 30 34 38 33 14 2 0 0 0 0 2 0
1 31 90 127 131 131 131 131 131 131 130 130 130 129 128 124
124 125 127 126 127 128 128 128 129 129 128 129 126 115 102 74
70 80 100 99 94 92 79 55 50 9 9 28 34 35 32 16
7 8 8 8 8 22 35 35 35 35 35 35 35 35 34 16
0 0 0 0 0 0 0 5 33 34 34 34 34 32 26 24
0 0 0 0 0 0 0 0 0 0 0 0 0 0 0 0
0 0 11 27 24 12 0 0 0 0 13 25 28 36 33 36
36 12 5 6 8 15 33 36 21 2 0 0 0 2 7 0
0 19 77 106 122 131 132 131 131 131 131 130 130 130 127 127
124 125 127 127 127 128 129 128 129 128 129 126 118 109 85 65
79 95 100 98 95 85 61 48 28 5 9 28 34 35 32 18
10 11 10 9 10 22 35 36 36 36 35 35 35 35 34 28
5 0 0 0 0 0 0 2 24 35 34 33 33 32 27 24
0 0 0 0 0 0 0 0 0 0 0 0 0 0 0 0
0 0 9 26 24 12 0 0 0 0 11 26 26 33 21 13
24 6 0 0 0 3 28 36 28 6 0 0 1 3 10 4
0 11 65 102 104 108 124 131 131 130 130 129 128 127 124 128
125 126 126 127 127 128 129 129 129 128 127 119 115 101 69 78
100 113 115 114 107 96 73 48 8 5 8 27 33 35 34 28
25 26 22 24 25 29 35 35 36 35 35 35 35 33 23 25
8 0 0 0 0 0 0 0 10 34 34 34 34 33 27 25
0 0 0 0 0 0 0 0 0 0 0 0 0 0 0 0
0 0 7 25 23 14 0 0 0 0 13 26 26 32 14 2
19 6 0 0 0 1 24 36 29 15 0 0 2 5 12 10
0 4 50 94 105 105 109 106 90 99 128 125 124 122 125 127
123 128 127 125 127 127 129 128 128 126 120 112 114 92 76 96
115 120 107 95 87 84 75 37 5 5 8 26 32 34 34 34
34 35 33 33 34 34 36 36 36 36 36 36 34 21 3 1
7 7 0 0 0 0 0 0 8 34 34 34 33 32 27 24
0 0 0 0 0 0 0 0 0 0 0 0 0 0 0 0
0 0 6 25 23 14 0 0 0 0 14 26 26 33 14 2
20 7 0 0 0 0 21 35 29 23 2 0 2 4 8 13
6 1 39 83 103 104 119 127 111 107 121 119 117 124 123 127
127 127 129 127 128 128 127 127 127 125 115 116 113 101 82 88
84 74 79 72 71 62 47 12 5 5 7 25 31 33 33 34
35 36 36 36 35 32 29 28 26 25 24 23 14 2 0 0
5 5 0 0 0 0 0 0 3 29 34 33 33 32 27 24
0 0 0 0 0 0 0 0 0 0 0 0 0 0 0 0
0 0 5 24 24 14 0 0 0 0 14 25 25 32 14 1
17 9 0 0 0 0 19 35 29 27 12 0 0 3 3 8
12 4 28 71 96 102 121 132 129 119 117 116 114 121 123 126
128 129 128 127 127 127 125 125 123 122 115 119 116 105 66 57
91 111 120 115 111 102 38 4 5 6 10 25 30 30 31 33
33 34 35 34 26 9 6 54 26 1 1 1 0 0 0 6
0 0 0 0 0 0 0 0 0 22 33 33 33 32 26 24
0 0 0 0 0 0 0 0 0 0 0 0 0 0 0 0
0 0 4 24 23 16 1 0 0 0 11 25 26 33 14 1
16 11 0 0 0 0 17 34 29 27 24 4 0 2 1 8
13 5 17 58 84 96 117 130 129 120 112 110 113 119 124 127
126 128 127 128 129 127 127 126 124 120 116 119 116 100 75 75
120 116 129 125 126 125 74 7 6 11 17 25 29 29 30 32
33 34 34 32 18 0 46 127 104 12 4 20 1 0 1 12
0 0 0 0 0 0 0 0 0 5 19 19 25 31 28 24
0 0 0 0 0 0 0 0 0 0 0 0 0 0 0 0
0 0 4 23 23 17 2 0 3 1 10 26 28 34 19 3
15 14 2 1 1 0 17 34 29 27 26 8 0 1 2 9
8 7 17 47 73 89 110 129 130 121 111 108 114 118 119 122
123 125 126 128 128 126 124 122 119 119 120 122 117 103 91 98
121 113 129 122 127 122 73 10 3 14 20 25 27 28 29 31
32 32 23 20 9 1 57 97 93 21 10 22 15 11 15 21
10 7 6 5 4 3 3 2 2 1 3 3 19 32 28 24
0 0 0 0 0 0 0 0 0 0 0 0 0 0 0 0
0 0 3 22 23 18 3 0 8 10 12 27 29 35 24 9
16 12 5 6 2 0 15 33 28 27 27 14 0 1 5 2
5 8 14 34 68 85 104 125 128 122 110 105 109 112 117 121
123 124 126 127 126 125 124 122 116 117 118 122 119 106 104 115
104 83 117 65 74 79 45 13 2 15 21 24 26 27 28 31
32 31 13 12 13 13 17 20 21 21 23 26 27 27 26 26
23 20 17 15 13 11 10 9 9 7 7 8 24 36 32 28
0 0 0 0 0 0 0 0 0 0 0 0 0 0 0 0
0 0 3 22 23 21 19 18 24 25 28 34 30 34 23 15
15 15 10 11 8 6 16 28 27 28 27 23 3 1 7 7
1 6 10 31 62 81 100 122 128 124 113 103 105 108 115 121
121 123 124 124 123 124 120 115 114 115 117 119 115 107 109 113
118 112 101 90 83 57 35 15 3 15 22 24 26 26 29 31
32 31 13 10 10 11 12 12 13 14 15 18 19 16 16 16
11 8 5 3 2 8 30 33 34 36 37 39 44 46 42 38
0 0 0 0 0 0 0 0 0 0 0 0 0 0 0 0
0 0 2 21 23 24 36 41 41 41 42 42 34 33 17 12
16 22 19 19 19 18 20 24 26 27 27 26 13 1 3 8
9 2 11 32 59 75 96 118 127 125 117 106 102 102 110 115
120 123 123 125 123 120 118 114 114 112 113 116 117 112 113 114
117 120 115 103 88 71 50 20 3 14 21 23 25 26 28 30
32 32 21 5 0 0 0 0 0 0 0 0 0 0 0 0
0 0 0 0 0 19 52 53 54 53 52 51 49 46 43 38
0 0 0 0 0 0 0 0 0 0 0 0 0 0 0 0
0 0 2 20 22 23 38 43 44 43 43 41 35 32 12 4
14 24 22 22 22 22 22 23 25 26 27 26 23 5 2 0
5 6 7 25 55 75 92 118 127 127 119 108 103 105 109 113
115 118 116 116 118 116 115 111 111 112 114 116 116 115 116 116
117 117 118 112 97 78 56 24 2 13 21 23 25 26 28 30
32 32 22 1 0 0 0 0 0 0 0 0 0 0 0 0
0 0 0 0 0 31 50 50 51 49 47 43 44 41 37 34
0 0 0 0 0 0 0 0 0 0 0 0 0 0 0 0
0 0 1 20 21 20 26 27 26 26 25 24 25 30 11 1
12 25 25 26 26 25 26 26 26 26 26 26 27 14 0 0
0 0 11 37 56 67 89 115 129 129 122 110 102 103 105 109
109 117 115 117 117 116 114 113 113 112 115 115 113 109 115 116
116 113 112 109 98 74 55 22 3 12 22 23 23 25 27 29
31 31 14 0 0 0 0 0 0 0 0 0 0 0 0 0
0 0 0 0 2 31 36 36 43 38 35 28 30 30 26 28
0 0 0 0 0 0 0 0 0 0 0 0 0 0 0 0
0 0 2 19 21 18 15 13 14 14 14 12 19 30 12 0
11 25 25 25 26 25 25 26 26 26 26 26 27 22 2 1
0 0 8 37 59 69 85 112 128 130 124 114 102 99 100 105
107 111 113 114 113 113 113 113 112 113 117 116 114 111 115 114
114 114 112 105 84 53 40 19 4 12 22 23 24 25 26 28
30 29 9 0 0 0 0 0 0 0 0 0 0 0 0 0
0 0 0 0 0 6 5 5 28 31 26 24 23 23 22 26
0 0 0 0 0 0 0 0 0 0 0 0 0 0 0 0
0 0 2 20 22 18 16 15 15 14 15 13 20 31 18 11
20 26 24 25 26 25 25 25 26 26 26 25 25 25 8 0
0 0 5 32 60 66 81 109 127 130 127 119 108 96 98 99
103 105 108 109 113 111 114 115 111 113 116 114 114 113 112 112
113 111 112 102 78 53 35 18 4 11 22 23 24 24 25 26
28 24 2 0 0 0 0 0 0 0 0 0 0 0 0 0
0 0 0 0 0 0 0 0 16 33 31 29 29 28 26 27
0 0 0 0 0 0 0 0 0 0 0 0 0 0 0 0
0 0 5 22 22 19 18 19 18 17 17 14 22 33 29 31
33 28 24 25 25 25 25 25 24 24 25 25 25 25 21 4
5 5 11 34 51 71 78 107 125 131 128 122 114 105 100 97
97 102 106 108 110 109 112 111 112 111 111 115 116 113 115 113
114 110 108 101 78 53 31 19 4 9 21 23 24 25 25 25
27 16 0 0 0 0 0 0 0 0 0 0 0 0 0 0
0 0 0 0 0 0 0 0 8 31 31 30 29 28 27 27
0 0 0 0 1 1 2 3 3 4 5 6 6 7 8 9
10 11 15 21 20 19 19 20 19 19 18 15 19 25 24 28
28 23 24 25 25 25 25 24 24 25 25 25 25 25 24 14
6 5 7 29 45 69 77 104 122 129 128 124 116 107 99 98
94 96 99 100 104 105 109 109 107 110 112 110 113 115 111 114
114 108 108 102 80 54 31 18 4 8 21 22 23 25 24 24
24 5 0 0 0 0 0 0 0 0 0 0 0 0 0 0
0 0 0 0 0 0 0 0 3 27 29 27 26 26 25 25
10 10 12 13 14 14 15 15 16 17 17 17 18 18 18 18
18 18 19 18 19 19 19 19 19 19 18 16 18 20 18 19
21 22 23 24 24 24 24 24 24 24 24 24 24 25 22 14
12 10 10 35 50 71 78 100 119 128 128 126 120 110 103 102
100 95 96 96 99 104 105 107 109 109 109 107 107 110 111 113
113 109 105 99 85 59 33 17 4 7 19 22 22 24 23 23
20 2 0 0 0 0 0 0 0 2 0 0 0 0 0 0
0 0 0 9 0 0 0 0 0 19 22 16 17 18 17 16
17 14 17 18 18 18 18 18 18 18 18 17 17 18 18 18
17 18 18 18 18 18 20 20 20 19 19 17 18 20 19 19
21 21 22 23 24 24 24 24 23 24 23 24 24 24 23 20
20 18 17 39 52 71 75 98 118 126 128 125 119 115 108 103
102 99 97 95 99 102 101 103 106 105 103 102 105 106 107 106
107 108 103 99 84 61 37 18 5 6 20 22 22 23 22 22
11 0 0 0 0 0 0 0 0 0 0 0 0 0 0 0
0 0 1 20 0 0 0 0 0 14 19 17 18 17 13 15
17 14 17 17 18 17 17 17 19 23 24 12 7 9 13 14
8 11 16 16 16 18 20 20 19 19 19 18 19 21 21 20
21 22 22 23 23 24 23 24 23 23 24 24 23 24 24 22
22 21 24 49 58 73 77 94 116 127 130 127 121 117 111 103
103 102 103 99 100 100 101 102 101 101 99 95 96 97 100 103
102 104 101 95 82 57 38 18 5 5 19 22 22 23 23 22
8 0 0 0 0 0 0 0 0 0 0 0 0 0 0 0
0 0 10 24 0 0 0 0 0 8 21 23 24 22 20 23
13 11 12 12 12 12 12 14 31 42 26 2 0 0 0 0
0 0 7 12 12 11 10 8 9 15 19 19 19 21 21 21
21 22 22 23 23 23 23 23 23 23 23 24 23 23 23 22
24 22 32 64 73 81 80 91 113 125 130 130 124 117 112 104
104 104 104 101 101 103 100 101 98 96 91 83 81 81 89 94
96 96 96 89 77 55 37 17 8 9 20 22 22 22 22 22
3 0 0 0 0 0 0 4 0 0 0 0 0 0 0 0
0 0 13 16 0 0 0 0 0 4 23 25 25 25 25 24
1 1 0 0 0 3 5 25 49 36 6 0 0 0 0 0
0 0 0 0 0 0 0 0 0 2 13 19 20 21 21 21
21 21 22 23 23 23 23 23 23 22 23 23 23 21 20 22
29 22 42 74 86 89 80 87 109 122 129 130 126 119 115 110
107 105 106 104 105 102 96 93 95 91 86 84 72 67 75 80
88 87 88 83 74 52 28 17 15 16 21 22 22 22 23 24
1 0 0 0 0 0 1 10 0 0 0 0 0 0 0 0
0 0 3 3 0 0 0 0 0 0 11 20 21 21 21 23
0 0 0 0 0 5 14 40 43 13 0 0 0 0 0 0
0 0 0 0 0 0 0 0 0 0 7 20 20 21 21 22
21 21 22 22 22 23 22 22 22 22 22 22 22 18 16 24
30 21 53 82 92 93 83 84 105 120 128 129 123 121 119 117
110 110 109 106 106 102 97 97 94 91 81 75 66 63 63 68
72 74 79 77 58 43 22 18 18 19 19 20 21 21 20 11
0 0 0 0 0 0 0 0 0 0 0 0 0 0 0 0
0 0 0 0 0 0 0 0 0 0 2 9 14 12 15 22
0 0 0 0 0 5 26 42 23 1 0 0 0 0 0 0
0 0 0 0 0 0 0 0 0 0 7 20 21 21 20 21
21 21 21 23 23 22 23 22 21 22 22 22 21 16 14 30
37 29 65 87 95 94 85 82 102 117 127 124 122 123 116 118
114 112 113 114 107 105 100 94 84 73 68 63 59 48 46 43
40 46 53 46 40 36 31 26 21 17 14 13 12 11 11 3
0 0 0 0 0 0 0 0 0 0 0 0 0 0 0 0
0 0 0 0 0 0 0 0 0 0 6 8 16 17 18 22
0 0 2 2 0 5 37 35 5 0 1 3 0 0 0 0
0 0 0 0 0 0 0 0 0 2 16 22 22 21 21 22
22 21 21 22 23 22 22 22 22 22 21 21 18 15 22 36
41 43 74 92 98 95 86 81 98 117 125 123 123 119 119 122
122 116 114 110 107 102 95 87 77 62 50 39 31 23 16 17
18 15 19 30 36 26 18 13 7 3 2 2 1 1 0 0
0 0 0 0 0 0 0 0 0 0 0 0 0 0 0 0
0 0 0 0 0 0 0 0 0 0 10 15 18 25 25 25
1 3 7 7 0 10 42 27 4 11 19 18 2 0 0 0
0 0 0 0 0 0 0 0 0 9 18 19 19 19 20 21
22 21 21 21 22 21 22 22 21 21 20 20 18 18 32 37
43 58 79 95 99 98 88 80 95 116 121 123 125 122 124 124
118 118 120 115 108 100 91 77 58 40 18 4 0 0 0 12
15 15 17 19 24 5 1 0 0 0 0 0 0 0 0 0
0 0 0 0 0 0 0 0 0 0 0 0 0 0 0 0
0 0 0 0 0 0 0 0 0 0 5 10 10 24 26 25
12 11 9 5 0 15 38 14 8 26 27 23 7 0 5 8
1 0 0 0 0 0 0 0 0 1 3 4 4 8 19 21
22 21 21 21 22 21 22 21 22 20 19 19 20 21 36 41
46 69 78 100 101 100 91 80 93 115 124 126 125 124 128 126
123 121 121 117 109 101 86 67 49 36 17 2 0 1 7 19
16 6 14 17 24 10 4 2 0 0 0 0 0 0 0 0
0 0 0 0 0 0 0 0 0 0 0 0 0 0 0 0
0 0 0 0 0 0 0 0 0 0 0 0 2 20 26 25
16 9 4 1 0 23 36 6 5 28 27 24 5 2 19 22
14 2 0 0 0 0 0 0 0 0 0 0 0 0 15 20
20 20 19 20 20 21 21 22 22 20 18 18 22 29 39 42
46 79 76 101 103 101 93 80 91 113 123 128 128 123 127 129
125 123 122 120 114 104 90 70 55 57 50 12 7 22 27 27
25 17 18 17 25 24 16 14 4 0 0 0 0 0 0 0
0 0 0 0 0 0 0 0 0 0 0 0 0 0 0 0
0 0 0 0 0 0 0 0 0 0 0 0 0 11 24 24
14 2 0 0 0 28 37 5 7 24 15 20 11 15 29 26
18 5 0 0 0 0 0 0 0 0 0 0 0 0 13 19
19 19 19 19 19 19 20 21 23 25 21 28 36 38 39 43
43 77 76 99 105 103 94 81 88 110 124 130 130 126 126 127
124 123 122 123 116 104 89 68 59 68 67 19 30 38 37 30
26 15 16 20 23 23 15 7 1 0 0 0 0 0 0 3
13 8 0 0 0 0 0 0 0 0 0 0 0 0 0 0
0 0 0 0 0 0 0 0 0 0 0 0 0 3 18 19
11 0 0 0 0 31 38 6 5 11 0 11 19 27 32 23
17 8 0 1 0 0 0 0 0 0 0 0 0 0 10 18
17 18 18 18 18 20 26 35 40 33 19 33 40 34 36 40
46 71 74 86 106 104 97 83 86 107 123 131 130 128 126 125
126 125 123 119 115 103 82 66 70 81 70 24 41 39 37 29
24 17 7 14 22 26 28 28 25 19 9 1 0 0 0 11
24 14 0 0 0 0 0 0 0 0 0 0 0 0 0 0
0 0 0 0 0 0 0 0 0 0 0 0 0 1 16 17
10 4 1 0 0 32 42 14 7 5 0 13 26 35 29 10
10 11 0 0 0 0 0 0 0 0 0 0 0 0 6 19
20 20 19 19 26 37 40 44 45 37 22 33 37 36 38 41
48 64 85 61 106 104 98 84 84 103 120 127 130 127 126 125
126 126 124 119 111 96 72 71 82 86 64 43 43 38 38 30
24 23 14 11 23 36 37 39 38 41 40 34 25 14 5 1
4 1 0 0 0 0 0 1 0 0 0 0 1 0 0 0
0 0 0 0 0 0 0 0 0 0 0 0 0 0 13 17
14 10 9 0 0 28 43 24 12 3 1 16 30 35 18 0
7 11 0 0 0 0 0 0 0 0 0 0 0 0 4 24
29 32 25 31 41 43 47 47 47 40 27 26 36 36 38 40
48 56 102 47 94 103 98 87 84 102 118 127 130 129 127 127
128 123 121 118 110 87 73 82 91 92 52 65 41 39 38 31
24 22 17 17 30 45 45 40 41 44 42 45 45 44 41 33
20 9 1 0 0 0 1 3 0 0 0 1 4 0 0 0
0 0 0 0 0 0 0 0 0 0 0 0 0 1 11 16
17 13 12 0 0 23 37 31 12 0 1 19 31 22 5 0
6 8 0 0 0 0 0 0 0 0 0 0 0 2 13 37
41 41 37 40 43 46 50 47 42 40 27 22 34 34 36 40
49 48 99 56 70 102 97 88 82 97 116 126 129 128 125 125
125 121 118 114 102 79 82 91 98 92 51 70 40 42 40 32
25 25 20 19 33 36 43 41 39 39 43 40 42 43 43 44
43 44 37 25 11 1 1 3 0 0 0 1 6 0 0 0
0 0 0 0 0 0 0 0 0 0 0 0 0 2 8 15
18 13 12 1 0 19 37 34 12 0 1 13 13 2 0 0
0 0 0 0 0 0 0 0 0 0 6 20 29 35 37 37
40 42 39 37 41 44 46 44 42 36 21 20 33 33 35 37
48 51 82 75 40 93 94 90 81 92 111 123 125 124 124 124
123 118 113 104 85 81 92 102 106 82 68 66 40 45 40 33
25 24 21 19 28 41 45 41 38 37 43 44 42 47 45 52
43 44 47 44 45 35 25 13 1 0 0 1 6 1 0 0
0 0 0 0 0 0 0 0 0 0 0 0 0 3 8 16
20 15 12 1 0 6 16 12 3 0 0 0 0 0 0 0
0 0 0 0 0 0 0 0 8 30 37 40 38 38 38 41
42 41 36 34 40 44 43 42 42 36 24 27 34 33 35 35
44 50 67 101 32 65 94 90 82 88 109 120 125 126 123 120
120 113 104 90 85 95 106 113 108 67 96 61 44 45 40 34
26 22 20 25 30 40 40 42 40 42 41 41 42 44 44 43
42 40 42 42 42 40 42 43 38 16 0 0 5 1 0 0
0 0 0 0 0 0 0 0 0 0 0 0 0 3 7 18
4 1 0 0 0 0 0 0 0 0 0 0 0 0 0 0
0 0 0 0 0 0 1 18 39 42 42 42 40 40 40 41
42 40 35 34 40 39 38 41 42 38 29 31 33 31 33 35
40 46 53 108 61 39 89 90 82 85 105 118 126 128 122 117
115 109 102 98 101 108 116 117 100 81 111 55 42 44 40 34
25 21 17 24 31 40 42 40 42 42 38 40 42 42 43 42
43 41 43 42 41 41 43 42 43 45 33 11 5 0 0 0
0 0 0 0 0 0 0 0 0 0 0 0 0 2 6 17
0 0 0 0 0 0 0 0 1 0 0 0 0 0 0 0
1 0 0 0 0 8 32 42 44 41 40 39 38 39 39 40
42 41 37 33 40 41 36 39 41 39 31 27 32 31 30 35
39 47 46 100 100 36 67 91 84 85 102 115 123 126 121 114
110 106 104 107 110 116 120 115 79 108 106 45 41 44 38 32
24 20 14 28 34 40 41 40 39 39 36 39 42 44 42 43
44 42 42 41 38 40 40 40 40 40 43 40 22 1 0 0
0 0 0 0 0 0 0 0 0 0 0 0 0 1 5 15
0 0 0 0 0 0 1 13 14 8 4 10 11 10 1 4
5 0 0 0 8 41 43 41 41 39 41 39 38 40 40 39
41 41 38 31 34 43 43 38 41 39 33 29 31 31 29 35
40 48 49 83 114 65 39 87 86 85 100 112 121 126 121 111
104 104 108 113 115 120 123 105 76 116 80 42 45 40 39 33
24 18 10 30 39 41 42 41 40 39 36 41 41 40 42 40
41 41 40 39 37 39 37 38 40 38 38 33 26 17 0 0
0 0 0 0 0 0 0 0 0 0 0 0 0 1 6 13
0 0 0 0 0 0 2 16 17 22 25 20 22 18 12 14
3 0 0 3 36 41 40 39 40 41 41 40 39 40 38 41
44 43 40 31 35 40 44 38 39 42 35 31 34 34 30 33
39 46 53 69 122 98 36 70 89 88 99 113 121 125 121 107
98 104 111 114 119 123 119 85 87 115 57 39 41 36 38 32
26 19 8 32 38 41 42 44 43 39 36 40 38 37 40 41
40 42 42 43 41 42 42 41 41 38 40 34 23 33 11 0
0 0 0 0 0 0 0 0 0 0 0 0 0 1 10 13
0 0 0 0 0 0 0 7 17 29 31 26 29 27 24 13
0 0 0 25 42 41 37 36 37 41 41 42 41 40 41 42
43 44 41 32 35 40 40 38 39 42 35 32 39 39 31 36
41 47 48 57 119 117 60 42 89 91 99 114 122 125 121 104
94 106 114 119 123 124 104 76 106 110 49 46 43 36 34 31
25 20 12 32 39 38 38 41 44 40 37 40 40 35 38 40
41 40 42 43 40 42 41 41 39 37 38 33 20 35 33 1
0 0 0 0 0 0 0 0 0 0 0 0 0 3 13 15
0 0 0 0 0 0 0 0 13 20 28 33 31 31 19 2
0 0 9 36 37 38 36 35 39 43 43 44 44 43 44 44
43 43 42 33 35 39 39 42 38 41 36 32 39 43 32 36
38 50 52 56 106 129 95 35 77 93 99 116 127 129 122 102
93 109 119 125 128 119 88 74 110 114 32 22 44 40 33 30
25 21 17 37 39 39 38 35 40 42 38 39 41 35 37 41
42 39 38 42 43 44 43 41 41 40 40 34 21 31 35 12
0 0 0 0 0 0 0 0 0 0 0 0 0 4 14 14
0 0 0 0 0 0 0 0 2 10 20 26 22 15 2 0
0 1 27 38 34 32 37 32 37 43 45 41 43 43 45 45
45 44 42 34 35 37 37 43 38 39 39 33 39 45 32 38
38 50 54 32 107 130 117 61 50 95 98 114 128 130 124 102
94 114 126 130 131 111 87 82 118 97 6 0 8 41 35 28
25 24 25 39 38 38 38 36 38 40 40 39 38 35 38 41
44 39 39 43 44 42 43 42 40 39 39 34 23 32 35 29
2 0 0 0 0 0 0 0 0 0 0 0 0 3 11 10
0 0 0 0 0 0 0 0 0 1 6 8 7 1 0 2
1 15 31 40 36 32 39 31 35 42 44 41 44 46 46 45
43 44 43 36 36 36 38 43 40 40 40 33 40 47 31 38
37 51 40 4 102 131 113 92 36 87 97 112 126 131 122 99
93 116 129 129 124 107 98 96 124 53 0 0 0 29 38 28
26 29 30 40 38 37 37 36 35 40 39 38 36 35 38 41
40 37 37 41 42 42 40 40 38 41 41 34 21 35 37 31
18 1 0 0 0 0 0 0 0 0 0 0 0 4 14 12
0 0 0 0 0 0 0 0 0 1 4 4 1 0 1 5
10 31 32 38 36 31 41 33 35 42 44 43 46 45 45 46
45 46 48 41 35 32 38 44 41 38 41 36 41 45 37 38
35 49 39 0 87 133 112 117 69 75 97 108 125 131 123 97
94 119 130 119 98 100 100 118 110 10 0 0 0 23 42 27
25 32 31 40 39 38 37 37 34 38 39 37 33 33 35 40
40 40 38 40 41 41 41 41 42 43 42 34 21 36 38 33
23 20 3 0 0 0 0 0 0 0 0 0 0 4 15 12
0 0 0 0 0 0 0 0 2 6 6 6 6 13 7 1
26 30 32 38 34 29 41 34 33 39 44 46 47 46 48 49
45 47 49 47 39 32 34 43 41 37 41 36 43 46 39 40
32 45 44 1 72 136 118 119 105 62 96 102 123 132 122 93
89 109 102 67 53 110 117 128 56 5 5 0 0 24 44 30
26 36 35 39 39 38 37 36 36 36 38 38 33 32 34 39
39 40 38 41 42 42 42 41 39 41 41 33 24 37 38 34
22 30 27 0 0 0 0 0 0 0 0 0 0 3 13 10
1 0 0 0 0 0 0 0 2 7 6 5 15 31 21 23
37 30 34 37 32 26 41 34 31 36 41 44 45 46 46 46
45 46 49 46 41 29 31 42 42 37 42 37 44 46 42 43
39 43 42 2 44 135 126 121 116 77 71 94 117 130 119 84
60 73 55 50 74 126 130 84 13 9 15 2 0 24 47 32
32 45 37 41 41 40 41 40 40 35 37 37 32 32 34 37
41 39 36 36 39 40 38 38 38 38 39 33 24 37 35 34
30 41 60 37 0 0 0 0 0 0 0 0 0 2 12 8
1 1 0 0 0 0 0 0 3 9 7 9 23 35 30 41
37 33 37 37 33 26 41 35 33 37 40 46 46 46 46 46
47 46 44 46 41 26 31 41 43 38 42 38 45 44 43 45
42 46 36 0 18 125 132 130 121 83 53 72 107 126 112 63
54 54 52 53 105 127 76 24 10 13 20 15 9 24 49 43
37 44 37 39 40 39 40 40 41 39 38 38 33 35 36 39
40 39 35 37 40 41 39 36 38 41 41 36 25 36 38 38
35 39 81 120 30 0 0 0 0 0 0 0 0 0 2 1
0 0 3 1 0 0 0 0 2 10 10 19 35 43 46 41
38 34 37 39 33 22 38 35 34 35 38 44 48 47 46 46
46 46 44 47 42 29 29 39 44 36 42 40 44 41 42 44
49 51 23 0 18 80 131 132 129 91 51 50 75 113 85 52
32 18 24 43 72 61 23 18 9 18 28 32 30 24 37 54
45 44 46 38 40 42 41 40 41 40 39 39 33 36 40 41
41 40 38 39 40 41 39 35 38 39 42 34 25 35 40 43
37 49 121 127 98 5 0 0 0 0 0 0 0 0 0 0
0 0 2 1 0 0 0 0 0 5 12 24 38 58 56 42
39 34 33 37 33 21 38 37 33 34 38 42 45 45 43 41
42 44 40 44 40 31 27 37 43 37 41 41 40 40 42 47
50 39 4 15 27 35 73 116 129 104 54 47 51 75 67 34
28 27 25 31 30 23 20 18 18 36 35 36 38 36 28 38
54 52 49 48 33 41 41 41 42 42 39 39 37 39 41 39
38 40 41 39 41 40 36 35 37 39 38 33 26 38 40 40
43 84 129 126 124 60 0 0 0 0 0 0 0 0 0 0
0 0 0 0 0 0 0 0 0 0 6 23 38 100 93 43
40 36 33 36 35 22 41 39 34 33 37 41 44 44 44 41
40 44 42 46 45 32 27 39 45 37 41 45 43 45 48 44
35 26 27 27 28 28 30 39 52 36 8 13 27 41 52 34
34 36 40 42 35 27 30 34 36 40 37 36 37 38 37 31
31 38 43 52 31 35 43 44 46 44 42 40 38 39 43 42
41 42 39 40 41 39 37 36 38 40 40 34 24 39 40 45
63 124 129 123 125 114 13 0 0 0 0 0 0 0 0 0
3 0 0 0 0 0 0 0 0 0 0 12 64 133 128 58
41 41 36 34 36 23 40 39 35 34 37 43 44 44 45 44
43 45 42 47 44 35 29 39 46 39 38 48 47 34 31 33
36 37 37 37 36 34 35 33 38 29 29 30 31 34 50 34
38 40 44 46 37 27 38 42 40 43 41 39 40 40 41 38
36 30 31 32 32 37 43 43 42 40 39 41 40 41 42 41
39 41 40 42 41 39 36 35 38 41 43 36 25 39 41 54
114 130 129 122 126 128 77 0 0 0 0 0 0 0 0 0
5 2 0 0 0 0 0 0 0 4 4 24 114 136 135 106
44 38 40 35 36 25 37 38 35 34 39 42 45 45 45 43
43 46 43 47 46 36 30 35 44 41 39 39 38 38 41 39
41 41 43 42 43 45 42 36 37 37 38 38 31 38 46 35
39 44 47 44 34 31 43 43 44 42 41 40 41 42 41 41
38 36 40 41 41 41 41 44 44 40 38 42 42 40 40 40
40 41 41 43 44 41 39 40 40 44 43 37 26 40 46 99
130 129 128 124 128 128 123 27 0 0 0 0 0 0 0 0
4 1 0 0 0 0 0 0 1 9 14 76 136 135 134 133
70 40 39 38 38 26 36 41 36 34 37 42 43 45 45 44
45 46 44 45 46 36 31 35 45 45 41 42 45 46 47 45
43 43 41 42 43 45 44 39 35 42 37 40 32 79 101 59
48 48 52 45 32 39 47 43 43 48 51 44 41 41 41 41
40 39 40 42 42 43 44 45 44 41 41 45 43 44 41 39
41 41 42 42 43 42 41 40 38 43 44 36 28 45 81 130
130 129 127 127 128 128 127 82 0 0 0 0 0 1 10 4
1 0 0 0 0 0 0 0 0 5 31 124 136 135 135 134
113 44 37 40 37 29 80 92 73 50 41 42 44 47 46 45
44 46 46 48 47 39 32 35 44 47 45 47 48 48 47 44
45 43 42 42 44 44 45 42 36 43 39 37 33 112 133 129
124 121 121 93 49 49 62 84 111 127 129 122 111 93 71 51
40 39 40 41 45 45 46 43 43 43 44 46 42 42 43 41
40 42 41 42 43 43 41 43 62 83 94 77 34 62 124 130
128 128 127 127 127 127 127 121 24 0 0 0 0 1 9 4
0 0 0 0 0 0 0 0 0 6 74 137 135 135 135 134
132 76 41 37 37 37 127 134 133 129 120 109 102 99 98 91
84 85 102 119 121 98 51 34 42 47 45 43 44 45 46 45
45 47 46 44 44 44 43 44 38 41 46 37 48 128 131 132
132 131 131 129 127 127 131 130 130 130 130 130 130 130 130 127
111 79 54 44 44 44 49 67 90 108 120 122 114 104 97 91
87 84 79 78 81 91 104 120 128 127 127 124 49 109 128 127
127 126 126 126 126 126 124 125 86 1 0 0 0 0 0 0
0 0 0 0 0 0 0 0 0 17 116 135 134 133 133 133
133 121 48 37 36 39 125 134 134 133 133 132 133 133 133 132
132 132 132 132 132 132 124 74 41 43 45 44 47 65 86 103
118 124 124 122 113 103 102 103 106 110 121 96 77 131 130 129
130 130 130 130 129 130 130 130 130 129 130 129 129 128 128 128
127 127 126 114 108 115 122 127 127 127 126 127 127 126 126 126
126 126 126 125 126 125 125 125 125 125 125 123 85 124 125 125
124 123 123 123 123 123 122 122 121 54 0 0 0 0 0 0
