P2
128 120
148
0 9 42 40 32 32 32 32 32 32 32 32 31 31 31 30
31 30 30 30 29 29 28 28 28 28 27 27 27 26 25 25
25 25 25 24 24 23 23 24 23 23 23 22 22 22 21 21
21 22 23 25 26 25 24 19 20 20 20 26 26 25 25 24
24 24 22 22 22 19 21 22 24 24 24 25 25 25 25 25
26 25 26 26 26 26 27 27 27 27 28 28 29 29 29 30
30 30 31 31 31 31 32 32 33 33 34 34 33 34 35 34
34 35 34 34 35 35 35 35 35 35 35 36 36 36 36 36
0 9 42 39 31 32 32 31 32 31 31 31 31 31 30 30
30 29 29 30 29 29 28 28 27 27 27 26 26 26 26 26
25 25 25 24 24 24 24 23 23 22 23 22 22 21 21 21
21 21 23 25 26 25 25 19 19 21 20 26 26 25 25 24
24 25 23 23 22 19 23 23 24 24 25 24 25 24 24 25
26 25 26 26 26 27 27 27 28 28 28 28 29 28 29 29
30 30 30 31 31 31 32 33 33 33 33 34 33 33 34 34
34 33 34 33 34 34 35 35 35 36 35 35 35 35 36 35
0 8 42 38 31 32 32 32 31 31 31 31 31 30 30 30
30 30 30 29 29 28 28 27 28 28 27 26 26 26 25 26
25 25 24 24 24 23 24 24 24 23 23 22 22 22 22 22
22 22 23 25 26 26 25 19 19 23 20 25 26 25 25 24
25 24 23 23 22 19 23 23 24 24 25 25 26 25 26 26
25 26 26 26 26 27 27 27 28 28 28 29 30 29 30 30
31 30 31 31 31 32 32 32 32 32 32 32 33 32 33 33
34 34 35 34 34 35 35 35 35 35 35 35 35 35 35 35
0 9 42 39 32 32 32 32 31 31 31 31 31 30 30 30
30 30 30 29 28 29 28 28 28 28 28 27 27 26 26 26
26 25 25 25 25 24 24 24 23 23 23 22 22 21 22 22
22 22 23 26 26 26 25 20 20 24 20 25 25 26 25 25
24 24 24 24 23 20 23 24 25 24 25 25 26 26 26 26
26 26 26 27 27 28 28 28 28 29 29 29 29 30 30 30
30 31 31 31 32 31 32 32 32 33 33 33 34 34 34 34
34 34 35 35 34 35 34 35 35 35 35 35 36 36 36 36
0 10 41 37 31 32 32 32 31 31 32 31 31 31 31 31
31 30 30 29 29 28 28 28 28 28 28 27 27 26 26 26
26 26 25 25 25 25 24 24 23 24 24 23 23 23 22 22
23 23 24 26 26 27 25 20 20 24 20 26 27 26 26 25
24 25 24 24 24 21 23 24 26 25 26 26 26 26 27 27
27 26 26 27 27 28 28 28 29 29 29 29 29 30 30 30
30 30 32 32 32 33 33 33 33 33 33 33 33 34 34 34
35 35 35 36 34 35 35 35 35 35 35 35 36 36 36 35
6 18 42 37 32 32 32 31 31 31 31 31 30 30 30 30
30 29 29 29 29 29 28 28 28 28 27 28 27 26 26 26
26 26 25 25 25 25 24 25 24 24 24 23 23 23 22 22
22 22 24 26 27 27 26 20 20 26 21 26 27 26 26 25
24 24 25 24 23 21 23 24 25 26 26 26 27 26 26 26
27 27 27 28 28 28 28 28 29 29 29 29 29 29 30 29
30 30 31 32 32 32 33 33 33 34 34 34 34 34 34 34
34 34 35 35 34 34 34 35 35 35 36 35 36 36 36 35
20 27 40 35 31 31 32 31 31 31 31 30 31 30 30 30
30 30 29 29 29 29 28 28 27 27 27 27 27 26 26 26
26 26 25 25 24 25 24 24 24 23 23 23 23 23 22 22
23 23 24 27 28 27 26 19 20 26 21 25 27 27 26 26
25 24 24 24 23 20 24 24 26 26 26 27 27 26 27 27
27 28 28 27 28 28 28 28 28 28 29 29 30 30 31 31
31 31 32 33 33 33 33 33 33 33 33 33 34 34 34 34
34 34 35 35 34 34 34 35 35 34 35 35 35 36 36 36
32 33 35 34 32 31 31 32 32 31 31 30 31 29 29 29
29 29 29 30 28 29 28 28 28 28 27 28 27 26 26 26
26 25 25 25 25 25 25 24 24 24 23 23 23 23 23 22
22 23 25 27 27 27 26 20 20 27 22 25 27 27 26 26
25 24 24 24 24 21 24 25 27 26 26 27 27 27 27 27
26 27 27 27 28 28 29 29 29 29 29 30 30 31 31 31
31 31 32 33 33 32 33 33 34 34 34 34 34 34 34 34
34 34 35 36 34 34 34 34 35 35 35 35 36 36 36 36
24 27 30 31 32 32 31 31 31 31 31 31 30 30 30 30
30 30 30 29 29 28 28 28 28 27 28 27 27 26 26 27
26 26 26 25 25 25 25 25 24 24 24 23 23 23 23 23
23 24 24 27 28 27 27 21 20 27 23 24 28 27 27 27
25 25 25 25 25 22 24 25 26 26 26 26 27 26 27 27
27 27 28 28 29 28 29 29 29 29 30 30 30 30 31 31
32 32 33 33 33 33 34 33 33 34 33 33 34 33 34 34
34 34 35 36 35 35 35 35 35 35 35 35 36 36 36 36
12 15 19 22 25 28 30 31 32 32 31 31 30 30 30 30
29 29 30 29 29 29 29 28 28 28 28 28 28 27 27 26
26 26 26 26 25 26 25 25 25 24 24 23 23 24 24 23
23 24 25 27 28 28 27 22 21 28 25 24 28 28 28 26
26 25 25 25 24 21 25 24 26 27 27 27 27 27 28 28
28 28 28 29 30 29 29 30 29 30 30 30 31 31 31 32
32 33 32 33 33 33 33 33 34 34 34 34 34 34 34 34
34 34 34 35 35 34 36 35 35 35 35 35 35 35 36 36
9 11 11 11 13 14 16 20 22 25 28 29 30 31 31 30
30 30 30 30 29 29 28 28 28 28 28 28 27 27 27 27
27 27 26 26 26 25 25 25 25 24 24 24 24 24 24 23
24 25 26 28 28 28 28 21 21 28 26 23 28 28 28 27
26 26 26 25 25 22 25 26 28 27 27 28 27 28 28 28
28 28 29 30 30 29 30 30 30 30 30 30 31 32 32 32
32 33 33 34 33 33 34 34 34 34 34 34 34 34 34 35
35 35 36 36 35 35 36 35 35 35 35 34 34 35 35 35
17 15 12 11 11 12 11 11 12 11 12 18 28 30 30 30
30 29 29 29 29 29 29 29 29 28 29 28 28 27 27 26
27 26 26 26 26 26 26 25 25 25 25 25 25 24 24 24
24 25 26 28 29 29 28 21 21 29 28 24 29 29 29 27
26 26 26 25 25 23 25 26 27 28 28 28 28 29 29 29
28 29 30 29 30 30 29 30 30 31 31 32 31 32 32 32
33 33 33 34 33 34 34 34 34 35 35 34 34 35 35 35
35 35 35 34 33 33 34 34 34 35 36 37 37 35 36 36
36 29 16 18 15 12 10 10 11 7 5 12 26 30 30 30
30 29 30 29 29 29 29 28 29 28 28 28 27 27 27 26
27 27 26 27 26 26 26 25 25 25 25 25 24 24 24 24
24 25 26 28 28 28 28 21 21 28 29 22 28 28 28 28
27 27 26 26 25 23 26 26 28 28 28 27 28 28 28 28
28 29 29 29 31 30 30 30 31 30 31 31 32 32 32 33
33 32 33 34 33 33 34 34 35 34 34 33 33 33 33 33
33 34 34 34 35 35 35 35 34 34 35 35 36 34 35 35
43 36 23 29 31 27 22 20 16 12 9 12 25 30 30 30
30 28 29 30 30 29 29 29 29 28 28 28 28 28 28 27
28 27 28 31 30 28 27 26 25 25 25 25 25 24 24 25
25 25 26 28 28 27 28 22 22 29 29 22 29 29 29 28
27 27 26 26 26 23 26 26 28 28 28 29 29 29 29 29
30 29 29 30 31 30 30 30 31 31 32 31 32 32 32 33
33 33 33 34 33 33 33 34 34 34 34 33 33 34 34 35
34 34 35 35 34 34 35 35 35 35 35 35 36 35 36 35
43 38 29 34 38 35 36 38 35 25 9 12 26 30 30 30
30 30 36 37 35 34 31 30 28 28 29 28 27 28 27 27
27 27 33 39 37 34 32 30 27 25 25 25 25 25 25 24
24 25 27 29 29 29 28 22 21 29 30 22 27 29 29 29
28 27 27 27 27 24 26 26 28 28 27 28 28 29 29 29
29 29 30 30 31 31 31 31 31 31 32 32 32 32 32 32
32 32 33 33 33 33 33 34 34 34 33 35 34 34 34 34
35 34 34 35 35 34 35 35 35 35 35 36 36 35 35 35
24 35 32 36 39 38 41 42 43 33 11 14 28 31 31 31
30 31 39 40 39 36 34 34 34 31 30 29 29 28 27 27
28 28 33 38 36 34 35 34 29 25 25 26 25 25 25 25
25 26 27 29 29 29 29 22 22 29 31 22 27 30 29 29
28 28 27 27 27 24 26 27 29 29 28 30 30 30 30 30
30 30 30 31 31 31 31 30 31 31 31 32 32 32 32 33
33 33 33 33 34 33 33 33 33 33 33 35 34 34 35 35
35 35 35 35 34 35 35 35 35 35 35 35 36 35 36 36
5 34 34 36 38 40 42 43 44 35 13 15 30 33 32 32
31 32 39 40 39 37 38 39 40 35 35 34 33 30 28 29
28 28 31 31 30 32 35 35 31 26 26 26 25 25 25 25
26 26 26 29 29 29 27 21 19 21 30 23 26 30 29 28
29 29 28 27 27 25 28 27 29 30 29 30 30 30 30 30
30 30 30 31 31 31 30 31 32 32 33 32 32 32 33 33
33 33 33 33 33 33 33 34 34 34 33 35 35 35 35 35
35 35 35 36 35 35 35 35 36 35 36 35 36 35 35 35
8 34 28 31 34 38 41 42 42 36 15 16 32 35 32 33
34 34 32 20 27 34 39 41 41 33 22 27 31 33 33 33
33 30 28 17 14 17 20 23 28 27 26 26 26 26 26 26
26 26 27 30 30 29 24 17 18 18 30 23 26 30 30 30
29 30 28 28 27 25 28 27 30 30 30 30 31 30 30 31
31 31 31 30 31 32 32 31 31 32 32 33 33 33 33 33
34 34 34 34 33 34 34 34 33 34 34 35 35 35 35 35
35 35 35 36 36 35 35 36 36 36 35 36 37 36 36 36
11 32 10 6 13 22 29 33 35 35 14 15 32 35 30 30
35 39 26 0 2 15 23 25 31 27 1 1 5 12 18 24
30 31 29 15 5 7 5 2 20 28 27 26 26 26 26 25
26 26 27 30 31 30 27 20 22 27 32 25 25 31 30 29
29 30 28 28 28 25 27 28 30 30 30 30 30 30 31 30
31 31 30 31 32 32 32 32 32 32 33 34 33 33 34 33
33 33 34 33 33 34 34 34 35 34 34 36 35 35 35 35
35 35 35 35 35 35 36 35 36 36 36 36 37 37 37 36
8 32 6 0 0 0 2 4 10 31 16 14 21 28 32 34
38 42 29 0 0 3 9 11 18 26 1 0 0 0 0 1
5 16 28 12 0 0 2 0 17 29 27 27 27 26 26 26
27 27 29 31 32 31 29 24 23 30 33 27 24 31 31 30
29 30 29 29 28 26 28 27 29 30 30 31 31 32 32 32
32 31 31 31 32 32 32 31 32 32 33 34 34 33 34 34
34 34 35 34 35 35 35 34 34 34 34 36 36 35 35 35
35 35 36 36 36 36 36 36 36 36 36 36 37 36 36 37
7 32 4 0 0 0 0 0 3 30 16 9 1 2 7 14
23 30 26 0 0 1 2 5 13 26 2 0 0 0 0 0
0 6 26 7 0 0 0 0 19 29 27 27 27 26 26 26
26 27 28 31 32 31 30 24 24 31 34 29 23 31 31 30
30 29 29 29 28 26 28 27 30 31 30 31 31 31 31 31
32 32 31 31 31 32 33 32 33 32 33 33 35 33 33 34
33 33 34 34 34 34 34 34 34 34 35 35 35 35 34 35
35 35 35 35 35 35 36 35 36 37 37 37 37 37 36 36
7 32 4 0 0 2 0 0 2 30 16 8 0 0 0 0
0 3 14 1 0 0 0 0 10 24 1 0 0 0 0 0
0 6 26 4 0 0 0 0 20 30 27 27 27 27 27 27
27 28 28 31 32 31 30 24 24 30 33 29 23 30 31 30
30 30 30 30 29 26 28 29 31 30 31 31 32 32 32 32
32 31 31 31 32 32 32 32 33 33 32 33 34 33 34 34
34 34 34 34 34 35 34 34 34 34 34 35 35 35 34 35
35 35 36 36 36 37 36 36 36 36 37 37 36 36 36 35
7 32 4 0 0 9 2 0 2 30 15 8 0 0 0 0
0 0 7 0 0 0 0 0 10 26 1 0 0 1 5 0
0 5 24 3 0 0 0 0 20 31 28 27 27 26 26 26
27 26 27 30 31 30 31 26 26 31 33 30 23 30 31 31
30 30 29 29 29 26 28 28 31 32 31 31 32 32 31 32
31 31 31 31 31 32 32 32 32 33 33 34 34 34 34 34
34 34 34 34 35 34 34 34 35 35 35 36 35 36 35 35
35 35 36 36 36 36 36 36 36 36 36 37 37 37 37 36
7 31 4 0 0 4 2 0 2 29 14 8 0 0 0 0
0 0 6 0 0 0 0 0 10 27 2 0 0 3 10 6
1 4 25 2 0 0 0 0 17 31 27 27 27 27 27 26
20 20 25 30 32 33 34 31 33 33 33 30 23 29 31 31
30 30 29 29 29 26 28 28 31 31 31 31 32 32 31 31
32 31 32 32 33 32 33 33 32 32 33 33 34 33 34 34
34 34 35 35 35 36 35 35 35 34 34 35 35 35 35 36
36 35 36 36 36 37 37 37 37 37 37 37 37 36 36 37
7 28 2 0 0 0 0 0 3 29 14 8 0 0 0 3
0 0 4 0 0 0 0 0 9 29 2 0 0 5 10 10
6 4 25 3 0 0 0 0 15 31 27 27 27 26 24 12
10 10 10 13 25 26 29 34 35 37 35 30 26 27 29 31
30 29 29 29 28 26 28 28 30 31 31 30 32 32 31 31
32 32 31 32 32 32 32 32 33 33 33 34 34 34 34 35
34 34 35 35 35 35 35 35 34 34 35 35 36 36 36 36
36 36 36 36 36 36 37 37 37 36 36 36 36 37 37 37
10 28 2 0 0 0 0 0 3 29 13 8 0 3 0 1
0 0 4 1 0 0 0 0 12 30 3 0 0 2 9 9
7 3 26 9 1 0 0 0 15 32 28 27 27 27 14 2
1 0 1 8 26 11 10 18 20 23 28 31 28 28 24 25
29 29 29 29 29 27 28 29 31 31 31 31 31 31 31 31
31 32 32 32 32 32 33 33 33 34 34 34 34 34 34 34
35 35 36 35 35 35 35 35 35 35 36 36 36 36 36 36
35 35 34 36 37 37 37 37 38 37 38 37 38 38 38 38
28 33 13 5 5 4 2 1 7 29 14 10 2 1 0 0
0 0 6 3 0 0 0 0 15 34 11 3 3 0 1 6
5 2 28 31 24 17 13 11 24 32 27 27 26 19 3 0
1 2 7 25 24 11 13 20 26 25 25 27 28 24 22 26
24 23 28 29 29 27 28 28 31 31 31 31 32 33 32 32
32 32 32 32 33 33 33 33 33 33 34 33 34 33 34 34
34 34 35 36 36 35 35 35 35 35 35 36 36 35 36 36
36 36 36 36 37 37 37 37 37 38 38 38 37 37 36 38
36 45 42 26 27 29 29 25 26 28 12 9 0 0 0 0
0 0 16 25 16 13 8 3 12 39 30 23 22 17 10 8
7 7 32 39 37 36 36 38 40 34 27 27 17 3 0 1
1 7 16 20 9 8 25 39 48 45 48 48 43 34 26 23
21 21 22 27 29 27 28 29 31 32 32 31 32 31 32 32
31 32 32 33 33 33 34 33 33 33 34 33 34 34 34 34
34 35 36 36 36 36 36 36 36 36 36 36 35 36 36 36
35 36 36 36 38 37 37 37 38 38 36 35 33 33 33 34
38 52 42 27 33 39 41 40 40 29 13 9 0 0 0 0
0 0 22 44 37 35 35 32 32 42 23 17 19 21 22 21
23 25 35 33 33 35 39 41 43 34 26 17 2 0 4 8
13 22 15 15 47 77 94 101 103 103 104 103 99 90 72 43
23 15 9 9 18 24 28 29 31 31 31 31 31 32 32 32
32 32 33 32 33 33 33 33 33 33 33 34 34 34 34 35
35 35 35 36 35 35 35 34 35 35 36 35 35 35 35 35
34 34 34 36 36 34 33 32 31 30 28 26 25 23 22 20
39 48 34 25 33 39 41 43 43 31 13 11 5 1 0 0
0 0 23 43 38 42 45 45 39 34 18 10 11 11 11 11
12 15 17 17 20 24 31 32 32 25 14 7 8 13 13 10
8 16 44 71 99 107 109 111 110 108 105 103 100 96 96 92
72 38 19 8 1 4 18 28 31 32 31 31 31 31 31 31
32 32 32 32 34 34 33 34 33 34 34 34 34 34 34 34
35 35 35 35 35 35 34 33 34 34 34 34 33 32 31 32
30 28 27 26 24 23 21 19 18 18 18 17 18 18 18 18
38 43 20 6 14 18 22 26 33 31 13 16 28 30 24 16
11 7 26 33 36 42 44 45 39 31 20 12 12 10 9 8
8 7 6 7 8 12 24 25 20 3 3 8 14 18 11 7
18 60 96 107 111 108 107 104 98 94 82 64 48 43 50 60
71 69 42 17 13 5 4 18 30 31 31 31 32 31 32 32
32 32 31 32 33 33 32 33 34 33 34 34 34 34 35 35
35 34 35 35 34 32 33 34 30 28 26 25 23 22 21 20
20 19 19 19 19 20 20 20 20 22 22 23 23 24 22 16
36 43 15 0 0 0 0 1 10 28 13 16 35 42 42 40
38 37 37 25 26 34 38 41 37 32 23 13 11 8 7 7
7 7 8 9 9 14 23 14 14 7 3 1 3 7 9 26
80 103 107 106 107 111 110 110 102 86 51 40 37 28 23 22
25 30 47 28 7 11 11 14 25 30 31 31 32 32 31 31
32 32 31 31 32 33 33 33 34 34 34 34 34 33 32 30
29 28 26 25 23 22 24 34 23 18 19 19 20 21 20 21
22 22 23 24 25 25 26 27 27 28 28 25 28 30 29 13
34 43 15 0 0 0 0 0 7 27 14 16 34 43 43 43
44 44 39 12 3 7 12 19 22 26 24 12 9 3 1 1
6 10 9 7 11 15 23 13 9 2 4 2 0 0 20 87
105 102 97 100 110 117 118 121 108 80 62 63 67 56 69 86
92 67 36 36 19 5 4 9 18 28 31 30 30 30 30 29
29 31 32 31 32 31 31 30 29 28 27 26 24 23 21 20
20 20 20 20 21 20 20 29 22 20 23 25 25 26 27 27
27 28 30 29 30 30 31 31 31 31 31 26 26 32 33 22
29 40 12 0 0 0 4 13 17 27 19 18 28 35 36 38
39 42 37 7 0 0 0 0 7 23 24 10 7 0 0 0
1 3 1 1 5 11 19 27 11 0 0 0 0 11 78 103
95 78 81 110 120 129 125 126 121 96 93 84 98 108 120 128
128 123 95 49 34 13 4 0 5 21 29 28 28 26 27 24
20 25 26 25 24 23 22 22 21 20 20 20 20 21 22 22
23 24 24 25 26 26 24 31 24 25 28 30 30 29 31 31
32 32 32 32 31 32 33 33 33 31 33 34 29 28 33 29
27 36 9 0 0 0 9 21 22 23 22 20 22 24 27 30
30 36 34 5 0 0 0 0 1 23 24 9 5 0 0 0
0 0 0 0 0 5 19 22 8 0 0 0 1 53 98 85
48 45 69 113 123 134 133 133 132 119 119 119 118 111 89 79
89 102 116 96 42 36 14 2 0 3 22 25 23 22 22 19
16 19 20 20 21 21 22 22 23 24 25 25 26 26 27 28
29 30 30 31 31 30 27 27 24 29 31 32 33 33 33 33
34 34 35 34 34 35 33 32 33 32 32 35 35 29 26 31
27 35 7 0 0 0 3 13 16 21 18 18 19 20 23 27
27 35 33 4 0 0 0 0 0 23 19 2 0 0 0 4
4 0 0 0 0 3 23 18 7 0 0 0 16 86 85 35
37 55 79 112 129 135 135 134 133 128 129 122 106 66 48 67
62 54 92 114 77 39 31 13 4 0 4 18 20 20 21 21
21 22 24 24 26 27 27 28 29 29 30 30 30 30 31 31
32 32 33 32 33 32 21 9 11 28 34 34 34 35 34 35
36 36 36 35 35 35 35 33 32 34 32 35 36 36 28 25
31 36 7 0 0 0 0 0 3 15 14 17 15 15 20 25
28 35 31 4 0 0 0 0 0 24 15 0 0 0 0 2
9 5 0 0 0 3 26 21 5 0 0 0 45 88 41 28
56 83 106 123 127 133 134 127 125 119 120 113 80 57 80 59
62 78 65 106 102 50 45 23 15 4 0 15 24 25 25 26
27 27 29 30 31 30 31 32 32 32 32 32 32 33 33 33
34 34 32 29 27 30 20 7 6 26 34 36 36 36 35 36
36 36 36 36 37 36 36 36 34 32 32 32 37 36 34 25
33 35 6 0 0 0 0 0 2 18 17 18 5 0 2 5
8 12 19 3 0 0 0 0 1 26 13 0 0 0 0 5
11 10 5 0 0 3 28 31 10 2 0 7 70 52 21 50
91 116 126 131 127 123 118 107 102 101 106 102 83 102 104 62
71 74 69 94 111 75 46 37 15 16 0 6 28 30 29 30
30 31 31 31 32 32 32 33 34 34 34 34 35 34 35 34
35 31 14 7 6 21 17 4 4 25 35 36 37 36 36 36
36 36 36 37 36 36 36 36 36 34 32 30 35 37 35 29
34 36 6 0 0 2 0 0 2 24 21 20 4 0 0 0
0 0 8 3 0 0 0 0 0 25 11 0 0 0 1 13
16 10 5 0 0 3 27 33 18 8 0 20 66 23 50 98
121 122 121 121 117 107 113 123 121 102 88 91 99 105 116 126
129 123 100 91 114 97 55 50 20 24 10 0 16 31 30 30
32 32 33 32 33 34 34 34 34 34 34 34 35 34 34 34
35 31 20 18 23 28 18 0 3 25 34 36 36 35 35 35
36 35 36 37 36 36 36 35 36 35 33 30 31 33 32 29
31 31 8 0 0 2 1 0 3 27 23 20 5 0 0 0
0 0 6 2 0 2 7 0 0 24 9 0 0 0 0 7
14 4 0 0 0 2 25 36 23 11 3 34 42 39 103 129
117 85 86 99 99 103 133 135 135 126 101 76 87 106 126 135
134 132 120 105 100 103 73 55 32 20 26 2 2 26 31 32
33 32 33 32 33 33 34 33 34 34 35 35 35 35 35 36
36 35 34 33 33 32 20 1 3 25 33 35 36 36 36 36
36 36 36 36 36 36 36 35 35 36 35 32 27 26 26 30
22 26 19 10 5 9 10 4 4 27 21 18 4 0 1 5
0 0 6 3 0 9 12 3 0 24 7 0 0 0 0 0
10 1 0 0 0 1 23 36 21 12 10 37 26 80 128 118
61 37 38 50 85 110 135 135 134 127 122 90 75 93 119 132
133 131 125 116 107 101 87 61 46 15 24 13 0 13 31 33
33 33 33 33 33 34 34 34 34 34 35 35 35 35 35 35
36 35 34 34 33 32 24 3 6 27 34 35 36 35 35 36
35 35 36 36 35 36 35 35 36 36 36 36 30 26 26 33
17 26 25 26 23 25 29 27 26 33 22 17 4 0 6 13
3 0 7 13 8 17 16 11 5 25 8 0 0 0 0 0
11 3 0 0 0 0 19 35 17 12 18 34 40 108 117 66
58 61 54 65 87 113 134 135 133 84 97 125 87 85 110 125
130 128 121 116 114 106 89 68 54 19 21 18 4 6 31 34
34 34 34 34 34 33 34 34 35 35 35 35 35 35 35 35
36 35 35 35 34 32 26 14 16 30 35 36 37 36 36 36
36 36 36 37 36 36 36 36 36 36 36 35 33 26 27 34
21 28 21 7 6 12 19 27 36 35 24 16 4 0 5 8
2 0 10 33 33 35 33 33 32 36 9 0 0 0 0 0
12 4 0 0 0 0 17 34 17 15 21 33 58 116 82 65
66 38 47 71 91 116 108 123 133 62 23 119 112 83 101 114
116 115 116 119 119 116 105 78 57 27 21 18 8 8 32 33
33 34 33 33 34 34 35 34 35 35 35 35 36 36 35 35
36 35 35 36 34 32 29 27 28 34 36 36 37 36 36 36
36 36 36 36 36 36 36 36 36 37 36 36 34 28 27 34
24 29 18 0 0 4 7 14 35 35 23 17 9 0 0 0
0 0 10 37 38 39 39 42 46 44 22 12 12 5 4 6
16 9 4 2 1 0 13 29 18 18 19 31 71 114 64 87
86 85 97 90 93 122 55 69 130 118 60 88 127 87 108 121
121 122 122 121 119 119 112 95 63 37 18 16 3 9 30 34
34 34 33 34 34 35 35 34 35 35 35 35 36 35 36 36
36 36 36 35 35 32 31 30 33 36 36 36 38 37 37 37
37 37 37 37 37 37 37 37 37 37 37 36 35 27 24 26
24 30 17 0 0 13 19 21 35 30 20 19 17 3 0 0
0 0 10 36 37 38 39 42 46 45 35 29 29 26 24 24
25 20 17 15 13 13 20 31 23 19 25 32 77 117 68 82
119 122 111 104 102 127 55 65 127 129 113 111 130 88 118 131
129 130 129 127 123 119 113 103 78 52 21 18 5 2 26 34
34 34 34 34 35 34 34 35 35 35 36 35 36 36 36 36
36 36 36 35 35 34 34 34 36 37 38 37 38 38 38 38
37 37 37 37 37 37 38 38 37 37 37 37 36 29 26 29
28 34 17 0 0 6 18 27 37 28 19 22 18 2 0 0
0 0 11 34 33 35 35 36 34 34 34 34 35 33 32 33
33 31 29 28 25 24 26 35 32 20 30 34 76 118 86 110
133 126 116 110 109 127 94 82 121 122 109 100 107 89 117 134
134 133 133 132 127 120 112 105 89 63 31 20 9 0 21 35
35 35 35 36 35 35 35 35 36 36 36 36 37 36 37 37
38 37 37 37 36 35 35 35 37 36 36 37 37 38 38 38
38 38 38 39 38 38 38 38 38 38 36 36 35 28 27 33
30 34 17 0 0 0 3 23 39 28 19 21 18 7 4 2
1 0 13 36 33 33 34 33 31 32 35 35 37 38 37 34
34 33 36 39 36 33 33 37 35 23 28 43 69 118 105 118
132 126 113 110 114 124 132 104 117 120 117 108 95 87 103 118
131 133 132 131 128 120 116 107 93 68 45 17 14 2 13 35
35 35 35 35 35 35 35 35 35 36 36 36 37 37 37 37
37 36 36 36 36 35 36 37 37 37 37 37 38 38 37 38
38 37 37 38 37 38 38 38 38 38 36 36 36 29 27 33
30 36 18 0 0 0 0 18 39 28 20 20 27 31 30 26
25 24 31 40 35 33 34 34 35 38 39 37 39 43 44 35
32 33 38 44 42 38 37 36 31 19 24 48 67 111 105 118
129 124 116 116 120 109 107 103 119 120 122 122 118 108 94 97
113 127 131 128 126 121 115 110 95 73 56 17 11 8 7 34
35 35 35 35 35 35 35 35 35 35 35 36 36 35 36 37
37 36 36 37 37 36 37 38 38 37 38 38 38 38 38 38
38 38 38 37 37 39 38 38 38 37 38 37 36 29 27 33
29 36 15 0 0 0 0 17 40 29 19 21 33 46 47 45
46 47 47 45 36 34 34 34 38 42 42 38 38 43 43 35
30 27 35 41 39 38 38 37 31 19 24 49 68 105 103 116
121 120 124 127 129 106 91 115 125 124 120 121 123 123 116 103
102 108 120 123 123 119 115 110 100 80 61 29 8 12 8 33
35 34 35 35 35 35 34 34 35 35 35 36 36 36 36 37
37 37 36 36 37 37 38 37 38 37 38 38 37 38 38 37
38 37 37 37 37 37 38 37 37 37 38 37 36 30 27 33
28 35 13 0 0 0 0 15 39 28 18 21 30 42 44 45
46 47 47 44 25 20 17 18 23 32 41 38 34 30 30 29
26 26 30 26 19 20 26 27 27 17 31 46 72 99 105 118
120 127 133 135 127 101 102 124 121 119 117 121 122 124 123 115
118 115 109 120 120 118 114 110 101 84 62 41 10 6 8 29
35 36 36 35 36 35 35 35 35 34 35 36 36 35 36 36
36 36 36 36 37 37 37 37 38 37 37 37 37 37 37 37
37 38 37 37 37 37 37 37 37 37 37 37 36 30 26 32
27 35 13 0 0 0 0 14 37 26 17 21 22 27 28 28
29 31 33 31 9 1 0 0 1 11 36 36 20 6 6 10
12 24 29 13 1 0 4 13 21 24 32 44 75 95 110 119
123 133 135 133 116 98 119 122 124 117 108 111 111 111 114 114
120 133 122 111 114 116 110 110 104 88 67 50 34 11 5 24
35 35 35 35 35 35 35 34 34 34 35 35 35 36 36 36
36 35 35 35 36 36 37 37 37 37 37 37 37 37 37 37
37 37 37 37 37 37 37 37 37 37 37 37 37 31 27 32
29 37 14 0 0 0 0 13 37 26 17 20 23 28 28 28
27 26 26 25 7 0 0 0 0 10 35 29 5 0 0 0
6 26 31 12 0 0 0 8 19 25 28 38 73 93 112 119
129 136 136 126 107 107 126 122 114 110 118 123 122 118 114 106
104 122 133 121 112 110 108 108 105 92 72 53 68 66 43 18
35 34 34 34 34 34 33 33 32 32 33 34 35 35 34 28
26 25 25 24 27 33 37 37 38 37 37 37 37 36 37 37
37 36 37 37 37 38 36 37 37 36 37 37 37 31 26 31
32 31 12 0 0 0 0 15 40 28 16 20 25 33 33 33
33 33 32 28 8 0 0 0 0 13 35 21 0 0 0 0
2 26 30 12 0 0 0 6 18 18 23 23 68 96 112 120
132 137 133 119 103 116 121 112 107 125 131 124 126 134 135 129
119 108 120 125 114 108 101 103 103 92 76 56 72 88 55 36
28 30 25 24 22 21 19 18 17 18 24 34 35 35 31 15
11 9 10 9 13 30 38 37 36 36 37 37 37 37 37 37
37 36 37 37 37 37 37 37 37 37 37 38 37 32 26 31
33 26 17 10 8 6 4 19 38 27 18 22 27 34 34 34
34 35 36 30 8 0 0 0 1 7 30 17 0 0 0 0
2 26 28 11 0 0 0 3 19 16 11 14 61 97 112 123
132 136 129 113 108 121 111 104 125 132 119 121 127 134 135 132
127 119 114 120 117 110 102 101 101 95 77 59 60 85 62 52
31 19 8 8 9 9 7 4 4 5 14 32 35 35 30 11
6 7 7 7 11 31 38 38 38 37 37 38 36 37 36 36
36 36 36 36 36 37 37 37 37 36 37 37 37 32 26 30
31 29 29 28 26 26 24 28 32 29 27 28 31 33 33 33
34 33 33 31 11 0 0 0 3 4 28 15 0 0 0 0
2 26 28 9 0 0 0 1 18 18 4 9 53 97 113 123
128 135 126 109 121 121 100 118 136 132 127 126 130 134 135 134
132 125 120 118 117 113 103 99 100 94 80 65 58 81 85 64
46 15 3 5 7 7 5 3 3 3 11 31 34 35 29 11
7 8 8 7 11 29 37 37 38 37 37 37 36 36 36 37
36 36 37 36 36 37 37 37 37 36 36 37 37 32 26 29
29 29 29 29 29 30 30 29 29 29 29 29 30 30 30 30
31 31 31 30 21 2 0 0 4 3 27 14 0 0 0 0
1 26 28 11 0 0 0 0 17 18 0 4 46 93 111 122
126 130 122 112 132 118 109 132 136 135 132 125 119 127 134 135
133 126 120 116 114 110 103 97 98 95 84 70 57 77 73 81
59 16 4 4 8 8 6 2 4 3 11 31 35 35 29 11
6 7 7 7 9 28 38 38 38 37 37 37 37 36 36 36
36 36 36 36 35 37 37 37 37 37 37 37 37 33 25 28
28 28 27 27 28 28 28 28 28 29 28 29 29 30 29 30
30 30 30 29 21 1 0 0 1 3 26 13 0 0 0 0
0 23 28 12 0 0 0 0 15 20 1 2 40 88 108 120
123 123 117 116 134 114 120 130 135 135 126 115 114 117 121 126
127 122 119 115 111 106 100 97 97 94 88 74 58 85 74 90
72 21 4 5 8 9 6 3 4 3 12 31 35 35 31 14
9 10 11 11 11 26 36 36 36 36 36 36 36 35 36 36
37 37 36 36 35 34 35 36 37 37 36 37 36 33 27 28
13 13 12 13 13 12 13 13 13 13 14 14 14 15 15 16
17 19 25 28 22 1 0 0 0 1 25 14 0 0 0 0
0 22 29 10 0 0 0 0 15 22 1 2 36 81 104 117
121 121 115 116 133 121 125 133 136 131 117 114 118 119 118 117
116 117 116 112 107 101 94 97 96 94 87 76 61 93 97 87
81 36 3 4 7 7 5 3 4 4 11 31 35 34 32 18
14 14 14 14 15 24 35 37 38 37 37 37 37 37 36 36
37 37 36 20 9 9 12 28 37 37 37 36 37 33 27 28
0 0 0 0 0 0 0 0 0 0 0 0 0 0 0 0
0 3 20 28 23 2 0 0 1 2 25 20 1 1 2 1
2 23 31 17 8 6 7 10 22 24 2 0 28 72 99 114
119 117 113 114 127 124 129 133 133 124 116 123 121 125 122 115
112 112 111 107 104 101 94 92 90 89 84 76 62 91 99 92
81 48 4 4 5 4 4 3 4 4 10 30 35 35 33 17
11 11 10 10 11 24 37 38 38 38 37 37 37 37 37 36
37 37 36 11 0 0 0 21 37 37 37 36 36 34 27 27
0 0 0 0 0 0 0 0 0 0 0 0 0 0 0 0
0 2 23 29 27 18 13 14 21 20 30 32 26 23 25 24
26 35 34 27 31 33 34 38 42 33 4 0 18 65 94 108
114 114 111 116 123 123 129 127 121 117 122 127 130 132 126 123
112 107 103 103 101 94 89 89 87 84 79 75 62 89 99 91
83 52 4 3 1 0 3 3 4 3 10 30 35 36 32 15
9 8 9 9 9 24 37 38 37 37 37 37 37 37 36 36
36 36 34 8 0 0 0 15 37 37 36 36 36 34 27 27
0 0 0 0 0 0 0 0 0 0 0 0 0 0 0 0
0 1 22 30 29 33 34 36 36 33 32 36 45 43 43 44
45 46 39 28 36 39 43 47 49 40 7 0 10 55 87 102
109 111 108 117 118 124 125 121 111 116 122 131 133 132 126 120
111 109 107 100 93 90 83 83 80 79 74 72 59 74 87 77
66 38 4 3 2 2 6 4 5 4 10 30 36 37 33 15
8 9 9 9 9 23 37 37 37 37 37 37 37 37 37 37
36 36 33 6 0 0 0 8 36 37 36 36 36 33 27 26
0 0 0 0 0 0 0 0 0 0 0 0 0 0 0 0
0 0 21 30 29 33 37 40 38 32 27 30 39 40 39 39
40 41 37 26 29 35 38 40 40 36 10 0 7 45 79 99
107 107 107 114 118 121 117 114 109 117 125 134 133 127 120 114
112 106 104 95 88 80 78 74 75 74 74 68 57 21 12 21
32 18 5 3 2 2 5 3 5 4 9 30 36 36 33 16
8 8 8 8 9 23 37 37 37 37 37 37 37 37 36 32
21 19 17 2 0 0 0 7 35 36 36 37 36 35 28 26
0 0 0 0 0 0 0 0 0 0 0 0 0 0 0 0
0 0 19 30 27 29 31 34 37 33 27 25 25 25 26 26
27 27 29 27 28 31 31 29 26 27 15 0 10 61 69 95
103 105 105 109 110 112 112 109 107 112 121 129 128 121 117 107
109 107 102 88 82 70 69 66 67 69 68 63 55 19 0 5
22 17 6 4 0 0 2 4 6 5 9 30 35 36 32 15
8 8 8 8 8 24 37 37 37 37 37 36 37 37 36 17
0 0 0 0 0 0 0 7 35 36 35 36 36 34 27 26
0 0 0 0 0 0 0 0 0 0 0 0 0 0 0 0
0 0 17 29 27 23 20 22 26 24 23 25 23 23 25 28
28 27 30 31 34 36 36 32 27 27 23 2 51 86 62 90
100 103 102 102 102 106 107 106 106 110 116 119 115 116 109 106
103 94 92 80 73 65 60 60 63 65 62 62 56 19 0 5
24 18 5 3 1 1 3 3 5 4 9 29 35 37 33 15
7 8 8 8 9 24 37 37 37 37 37 37 37 36 35 10
0 0 0 0 0 0 0 6 35 35 36 36 36 35 28 26
0 0 0 0 0 0 0 0 0 0 0 0 0 0 0 0
0 0 15 29 26 15 1 2 4 7 15 26 29 34 35 40
38 29 28 29 32 36 40 37 30 29 26 20 79 90 60 84
99 100 100 100 98 100 101 102 105 109 110 109 106 109 102 96
88 78 82 73 59 56 53 50 55 56 56 58 51 11 0 6
25 19 5 4 3 4 3 3 5 4 8 28 34 36 33 15
7 7 8 8 8 23 37 38 37 37 37 37 37 37 35 17
0 0 0 0 0 0 0 5 34 36 36 36 36 34 27 25
0 0 0 0 0 0 0 0 0 0 0 0 0 0 0 0
0 0 13 29 26 13 0 0 0 0 14 28 31 39 36 38
37 12 5 6 8 15 35 39 31 30 29 39 60 75 61 78
97 99 99 97 94 96 96 96 101 104 105 104 95 93 91 84
79 76 73 67 50 46 46 48 50 52 55 55 45 6 0 16
29 19 5 3 3 3 3 3 4 4 8 28 35 36 34 19
10 11 10 10 10 24 36 37 37 38 37 37 37 36 36 29
5 0 0 0 0 0 0 3 25 36 36 36 35 34 29 26
0 0 0 0 0 0 0 0 0 0 0 0 0 0 0 0
0 0 11 29 26 14 0 0 0 0 12 27 28 35 22 14
25 5 0 0 0 3 30 38 31 30 30 44 81 93 70 70
92 96 97 94 91 90 88 89 94 96 98 97 88 87 85 90
87 81 73 64 49 46 48 49 51 51 53 50 48 5 1 25
30 20 6 3 4 3 3 3 4 4 8 28 35 36 34 29
26 27 22 24 26 31 36 38 38 37 38 37 38 35 25 26
7 0 0 0 0 0 0 0 12 37 36 36 35 34 29 27
0 0 0 0 0 0 0 0 0 0 0 0 0 0 0 0
0 0 9 28 26 15 0 0 0 0 13 28 27 35 16 3
21 6 0 0 0 1 26 37 31 30 30 44 93 104 78 66
88 93 93 89 86 81 82 79 78 88 91 88 88 88 93 93
87 80 72 56 51 50 52 56 52 53 50 46 56 6 2 28
31 20 5 3 3 3 3 2 4 3 7 27 34 35 36 36
37 37 35 36 37 37 38 38 38 38 38 38 35 22 3 1
7 6 0 0 0 0 0 0 9 35 36 36 35 34 29 27
0 0 0 0 0 0 0 0 0 0 0 0 0 0 0 0
0 0 7 26 26 16 0 0 0 0 15 27 27 35 16 2
21 8 0 0 0 0 23 37 31 30 30 40 94 105 102 78
78 89 88 85 82 80 76 70 72 83 85 89 93 93 89 91
86 75 71 55 52 56 58 61 58 58 51 53 59 7 4 28
31 21 7 4 4 3 3 3 4 4 6 26 33 34 35 35
36 37 37 37 37 34 31 30 28 26 25 25 16 2 0 0
4 5 0 0 0 0 0 0 3 31 36 36 35 34 29 25
0 0 0 0 0 0 0 0 0 0 0 0 0 0 0 0
0 0 6 26 25 16 0 0 0 0 15 27 27 35 16 2
19 9 0 0 0 0 20 37 31 30 30 34 83 100 112 102
72 83 85 85 79 75 69 61 64 75 82 82 89 94 95 91
84 79 68 58 59 61 60 62 64 61 51 61 63 11 11 31
30 22 8 5 4 4 4 3 4 4 9 25 31 32 33 34
35 36 37 36 27 9 6 53 27 1 1 2 0 0 0 6
0 0 0 0 0 0 0 0 0 24 35 35 34 34 28 25
0 0 0 0 0 0 0 0 0 0 0 0 0 0 0 0
0 0 5 26 25 18 1 0 0 0 12 27 28 35 17 2
18 12 0 0 0 0 19 37 31 29 30 30 53 97 107 114
72 74 80 82 76 73 71 63 64 69 75 78 91 94 94 88
84 74 67 68 64 67 67 65 64 60 56 66 65 13 14 31
32 27 20 17 14 13 12 7 5 10 17 26 30 30 31 33
35 35 35 34 17 0 48 132 105 11 4 19 0 0 1 13
0 0 0 0 0 0 0 0 0 6 20 20 27 33 29 25
0 0 0 0 0 0 0 0 0 0 0 0 0 0 0 0
0 0 4 25 25 19 2 0 4 1 11 28 29 36 21 5
17 15 3 2 2 1 19 36 30 29 30 30 33 80 106 111
58 64 75 76 75 76 73 69 67 71 79 85 91 91 96 89
85 78 76 72 77 75 73 64 63 59 61 70 66 12 13 31
32 30 29 27 23 21 20 11 2 13 21 25 29 29 31 33
34 34 24 21 9 1 56 99 94 20 9 20 11 7 12 18
7 4 2 2 2 1 1 1 1 1 2 3 20 34 30 26
0 0 0 0 0 0 0 0 0 0 0 0 0 0 0 0
0 0 4 24 25 19 4 0 9 11 14 30 30 37 26 10
16 13 5 7 3 0 16 35 30 30 30 30 31 61 84 52
3 40 66 72 71 73 73 74 72 74 77 85 86 99 101 92
85 91 89 84 78 75 73 63 62 65 67 74 68 14 15 31
31 30 30 28 24 23 21 12 1 14 22 25 27 28 30 32
33 32 13 12 13 13 16 19 20 20 21 23 23 22 22 21
17 14 11 9 8 6 7 6 6 6 6 8 25 38 34 29
0 0 0 0 0 0 0 0 0 0 0 0 0 0 0 0
0 0 3 23 25 22 20 20 25 28 29 35 33 37 25 16
17 16 11 13 9 6 17 31 29 29 30 30 30 41 42 14
0 15 53 65 66 71 77 78 75 82 83 89 95 104 105 98
95 96 99 91 84 81 72 61 67 71 75 79 71 17 13 32
31 30 31 29 26 25 23 14 1 14 22 24 26 27 30 32
34 34 15 11 11 11 11 12 12 12 14 14 14 12 13 11
7 4 3 1 1 7 30 33 36 37 38 41 45 48 45 39
0 0 0 0 0 0 0 0 0 0 0 0 0 0 0 0
0 0 3 23 24 25 39 43 45 45 45 44 35 36 19 13
18 24 21 21 19 19 21 26 28 28 29 29 30 30 30 24
3 10 53 48 59 64 75 83 81 87 87 92 101 102 102 101
103 100 98 95 87 81 70 65 71 81 88 83 74 21 13 30
31 30 30 29 26 25 23 14 1 13 21 24 26 28 29 31
33 33 23 5 0 0 0 0 0 0 0 0 0 0 0 0
0 0 0 0 0 21 54 55 56 55 54 53 51 48 45 40
0 0 0 0 0 0 0 0 0 0 0 0 0 0 0 0
0 0 3 23 24 26 42 46 45 45 45 44 37 35 14 6
16 26 25 25 24 24 25 25 27 29 29 28 29 30 29 28
13 4 63 45 44 57 68 78 83 89 97 103 109 107 111 109
108 106 103 102 90 82 70 72 77 88 95 88 76 26 12 27
30 30 30 29 27 26 25 16 2 14 21 23 25 26 28 31
34 34 23 1 0 0 0 0 0 0 0 0 0 0 0 0
0 0 0 0 0 33 53 53 53 52 50 46 46 43 39 36
0 0 0 0 0 0 0 0 0 0 0 0 0 0 0 0
0 0 2 21 23 21 27 29 28 28 27 26 28 33 13 1
13 27 26 27 27 27 27 27 28 28 28 28 29 29 29 28
21 3 59 64 47 54 63 73 81 92 100 109 113 112 112 115
114 110 109 102 90 82 71 73 81 91 98 95 78 35 14 24
29 30 29 29 28 26 25 18 2 12 22 23 24 26 28 30
32 32 14 0 0 0 0 0 0 0 0 0 0 0 0 0
0 0 0 0 2 32 38 38 44 39 37 30 32 32 28 31
0 0 0 0 0 0 0 0 0 0 0 0 0 0 0 0
0 0 2 21 23 19 16 15 15 14 15 14 20 32 13 0
13 27 27 28 28 28 28 28 28 27 28 28 28 29 28 27
25 7 45 77 64 53 59 68 75 86 100 107 115 116 115 119
121 114 114 104 93 86 77 80 88 93 99 100 81 43 11 15
23 24 23 26 28 27 25 19 2 11 22 24 24 25 27 29
30 31 10 0 0 0 0 0 0 0 0 0 0 0 0 0
0 0 0 0 0 7 6 6 31 33 29 25 24 24 24 28
0 0 0 0 0 0 0 0 0 0 0 0 0 0 0 0
0 0 2 22 23 20 18 17 17 16 16 15 22 34 21 13
21 28 26 27 27 27 27 27 27 27 27 28 28 29 28 28
26 12 31 85 78 68 60 63 71 82 97 109 116 116 117 119
123 120 112 104 97 87 82 84 91 98 104 102 86 51 8 13
18 16 15 21 26 25 24 19 3 11 22 24 25 25 27 28
29 26 3 0 0 0 0 0 0 0 0 0 0 0 0 0
0 0 0 0 0 0 0 0 16 35 33 31 31 31 29 29
0 0 0 0 0 0 0 0 0 0 0 0 0 0 0 0
0 0 6 24 24 20 20 20 20 18 18 15 23 35 31 32
35 30 26 26 28 27 27 27 27 27 27 26 27 27 27 27
26 17 22 85 88 80 73 67 69 79 93 108 117 119 122 122
123 123 115 107 101 92 84 84 91 102 106 105 91 55 11 13
14 11 10 17 24 24 23 19 3 10 22 24 25 25 26 27
28 16 0 0 0 0 0 0 0 0 0 0 0 0 0 0
0 0 0 0 0 0 0 0 9 33 34 33 31 30 30 28
0 0 0 1 1 1 3 3 4 5 6 7 8 9 9 10
12 12 17 23 22 20 20 21 21 21 20 17 20 27 26 29
30 26 25 25 26 26 26 26 26 26 26 26 27 27 27 27
27 21 15 84 93 89 84 79 77 76 91 108 117 120 127 129
127 124 118 111 98 90 89 87 96 107 108 107 95 59 13 11
12 12 9 14 21 22 21 18 4 8 21 23 25 25 25 25
25 6 0 0 0 0 0 0 0 0 0 0 0 0 0 0
0 0 0 0 0 0 0 0 3 28 30 28 28 29 26 27
12 12 14 15 16 17 17 18 18 19 18 19 19 19 19 19
20 19 20 21 20 20 21 20 21 20 20 17 19 22 19 20
23 23 25 26 27 26 26 26 26 26 26 26 26 26 26 27
26 24 16 79 99 100 96 89 82 80 92 106 119 126 132 130
129 125 121 116 103 90 92 94 99 108 111 107 97 61 11 8
10 10 7 11 19 21 21 18 4 7 21 23 24 24 24 25
20 2 0 0 0 0 0 0 0 2 0 0 0 0 0 0
0 0 0 10 0 0 0 0 0 22 23 19 19 20 18 18
18 16 19 20 20 20 19 19 20 20 20 20 20 20 20 20
19 19 20 19 20 20 21 22 22 21 20 19 21 22 22 21
22 23 24 25 25 25 25 26 26 25 25 25 26 26 27 26
26 25 19 72 101 106 104 91 85 81 91 107 118 127 132 135
132 129 124 115 102 93 94 97 102 110 111 107 98 68 15 9
10 9 6 10 15 20 20 17 4 5 20 23 23 23 24 23
11 0 0 0 0 0 0 0 0 0 0 0 0 0 0 0
0 0 1 21 0 0 0 0 0 15 20 18 19 18 14 17
18 15 18 19 20 20 20 19 21 26 27 14 9 11 14 15
9 13 17 17 19 20 22 22 22 22 21 20 20 22 22 21
23 23 24 25 25 25 26 25 25 25 26 26 25 25 25 25
25 24 21 63 99 108 108 94 88 86 93 107 121 127 135 134
134 134 125 113 101 92 96 100 108 115 113 105 98 73 20 10
10 10 8 8 11 18 20 18 5 5 20 23 23 24 23 23
8 0 0 0 0 0 0 0 0 0 0 0 0 0 0 0
0 0 10 25 0 0 0 0 0 9 24 25 26 24 22 25
14 13 13 13 13 14 13 16 33 45 28 2 0 0 0 1
0 1 9 13 13 12 12 10 11 16 21 20 21 23 23 22
23 24 24 25 25 25 25 25 25 25 25 25 25 25 25 24
22 21 18 59 99 110 111 99 91 86 92 103 117 126 134 134
136 133 124 112 103 96 97 105 111 116 111 105 97 75 22 15
12 11 8 8 8 17 19 17 8 8 20 23 23 24 24 23
3 0 0 0 0 0 0 3 0 0 0 0 0 0 0 0
0 0 13 18 0 0 0 0 0 4 25 28 27 27 27 27
1 1 1 1 1 5 8 28 53 39 7 0 0 0 0 0
0 0 0 1 0 0 0 0 0 2 15 21 21 22 24 23
23 24 25 25 25 25 25 25 25 25 25 24 25 23 22 23
21 17 17 57 99 111 114 104 93 88 93 103 113 122 130 135
137 129 122 112 109 103 102 110 114 118 113 106 96 77 20 13
25 11 9 6 7 16 19 17 16 17 21 24 23 22 25 26
1 0 0 0 0 0 0 9 0 0 0 0 0 0 0 0
0 0 4 3 0 0 0 0 0 0 13 23 24 24 24 25
0 0 0 0 0 7 17 44 47 14 0 0 0 0 0 0
0 0 0 0 0 0 0 0 0 0 8 22 22 23 24 24
24 23 25 25 25 25 25 25 25 24 25 25 24 21 18 23
25 21 21 60 101 113 119 114 103 92 96 108 114 123 131 135
137 128 121 118 115 107 106 117 118 119 114 105 96 77 22 19
36 21 23 21 17 20 21 19 19 20 21 21 22 22 22 12
0 0 0 0 0 0 0 0 0 0 0 0 0 0 0 0
0 0 0 0 0 0 0 0 0 0 3 11 16 15 17 24
0 0 0 0 0 7 30 46 26 2 0 0 0 0 0 0
0 0 0 0 0 0 0 0 0 0 8 23 23 23 24 24
23 23 24 24 25 25 25 25 24 24 25 24 23 17 15 19
24 24 29 56 98 114 122 121 113 99 99 108 115 122 132 135
135 124 123 120 117 111 109 121 120 120 114 105 96 78 26 33
37 31 34 40 38 35 31 26 22 18 15 13 13 13 12 3
0 0 0 0 0 0 0 0 0 0 0 0 0 0 0 0
0 0 0 0 0 0 0 0 0 0 7 10 18 20 21 25
0 1 5 3 0 6 40 38 6 0 2 3 0 0 0 0
0 0 0 0 0 0 0 0 0 3 18 24 25 24 23 24
24 23 24 24 25 24 25 25 24 24 23 22 19 17 17 19
26 32 37 50 93 113 121 123 120 105 103 109 115 123 128 133
128 125 125 123 120 113 114 128 122 119 115 106 97 79 27 40
38 34 22 33 38 27 19 14 7 3 2 1 1 1 0 0
0 0 0 0 0 0 0 0 0 0 0 0 0 0 0 0
0 0 0 0 0 0 0 0 0 0 11 18 20 27 27 27
2 5 9 8 1 12 45 29 5 14 22 20 2 0 0 0
0 0 0 0 0 0 0 0 0 12 21 21 22 22 23 24
24 24 23 23 24 24 25 24 24 23 22 22 20 19 19 18
23 36 43 44 88 110 120 125 123 112 108 111 117 122 128 132
129 127 128 126 122 115 117 131 125 119 114 106 101 81 39 44
41 34 19 20 25 4 1 0 0 0 0 0 0 0 0 0
0 0 0 0 0 0 0 0 0 0 0 0 0 0 0 0
0 0 0 0 0 0 0 0 0 0 6 12 12 27 28 28
13 12 10 7 0 17 41 15 10 28 29 26 8 0 7 10
1 0 0 0 0 0 0 0 0 1 4 4 5 9 21 23
24 24 23 24 23 24 24 24 24 23 21 20 21 19 19 20
23 41 47 48 83 107 118 127 129 118 110 112 116 122 129 132
133 134 133 131 126 119 121 132 129 119 112 106 102 81 46 41
41 33 22 16 24 10 4 2 0 0 0 0 0 0 0 0
0 0 0 0 0 0 0 0 0 0 0 0 0 0 0 0
0 0 0 0 0 0 0 0 0 0 0 0 2 22 28 28
16 10 5 1 0 25 39 6 7 31 30 27 7 3 22 25
15 2 0 0 0 0 0 0 0 0 0 0 0 1 18 22
22 22 22 22 22 22 23 23 23 22 20 20 23 20 18 20
29 44 46 58 83 105 117 125 129 122 115 114 117 122 131 136
137 137 136 134 128 121 122 133 132 120 113 108 106 80 49 42
42 32 22 9 22 23 16 13 3 0 0 0 0 0 0 0
0 0 0 0 0 0 0 0 0 0 0 0 0 0 0 0
0 0 0 0 0 0 0 0 0 0 0 0 0 12 27 26
13 3 0 0 0 29 39 5 8 26 17 21 12 17 31 29
20 7 0 1 0 0 0 0 0 0 0 0 0 0 14 20
21 21 22 21 21 21 23 23 23 22 21 22 25 23 20 19
34 42 50 61 90 106 116 126 129 129 125 116 116 123 132 137
138 137 137 135 129 124 127 135 134 123 115 112 109 77 46 44
41 32 27 10 8 6 2 1 0 0 0 0 0 0 0 3
14 9 0 0 0 0 0 0 0 0 0 0 0 0 0 0
0 0 0 0 0 0 0 0 0 0 0 0 0 4 20 21
11 1 0 0 0 31 39 7 6 13 1 13 21 29 35 25
18 10 0 1 0 0 0 0 0 0 0 0 0 0 12 21
20 21 21 20 20 20 21 21 21 20 21 27 26 25 22 23
37 42 50 57 97 103 117 123 133 134 133 122 118 124 132 138
139 138 137 135 131 125 132 135 134 125 117 114 102 76 43 48
43 35 29 23 20 18 16 18 18 9 2 0 0 0 0 11
26 16 1 0 0 0 0 0 0 0 0 0 0 0 0 0
0 0 0 0 0 0 0 0 0 0 0 0 0 1 17 20
10 4 1 0 1 34 44 15 9 6 0 16 28 37 31 11
12 12 0 0 0 0 0 0 0 0 0 0 0 0 7 21
22 22 21 20 20 20 23 28 31 35 38 36 25 24 23 33
38 42 52 53 97 94 114 123 132 138 137 126 122 127 133 137
137 137 137 135 131 130 135 136 133 127 119 116 98 75 47 49
41 35 28 23 17 21 26 39 44 44 40 30 15 4 0 1
4 1 0 0 0 0 0 1 0 0 0 0 2 0 0 0
0 0 0 0 0 0 0 0 0 0 0 0 0 0 15 20
14 13 11 0 0 29 45 26 13 3 1 18 33 38 21 0
9 13 0 0 0 0 0 0 0 0 0 0 0 0 5 27
32 32 26 25 28 34 38 40 41 45 46 43 31 23 25 39
41 42 53 57 87 92 110 120 132 138 138 134 126 128 134 136
137 138 137 133 131 133 136 136 133 128 122 111 104 65 45 46
40 35 29 25 11 15 24 41 46 46 42 45 46 43 32 18
7 0 0 0 0 0 1 3 0 0 0 1 4 0 0 0
0 0 0 0 0 0 0 0 0 0 0 0 0 2 12 18
18 15 13 1 0 24 39 33 14 0 2 20 33 24 7 0
6 9 0 0 0 0 0 0 0 0 0 0 0 0 5 34
41 43 40 44 42 42 44 48 52 52 50 44 33 22 30 38
38 40 48 54 73 105 94 121 131 137 139 138 133 132 134 135
136 136 135 133 132 135 137 137 133 129 121 104 104 53 48 43
39 33 28 28 22 15 18 38 48 45 43 46 45 47 48 49
46 40 29 19 9 2 0 3 0 0 0 1 7 0 0 0
0 0 0 0 0 0 0 0 0 0 0 0 0 3 10 17
19 16 15 2 0 20 38 37 14 0 1 14 15 4 0 0
0 0 0 0 0 0 0 0 0 0 0 0 2 8 22 42
43 45 44 46 42 41 41 46 52 52 46 40 29 22 33 39
39 38 45 52 59 115 87 113 127 136 138 139 137 135 137 136
135 134 134 135 135 136 138 136 134 128 106 110 77 49 46 38
39 35 29 27 25 23 27 34 46 45 40 39 46 45 44 53
48 56 49 51 52 45 39 27 15 4 0 1 7 1 0 0
0 0 0 0 0 0 0 0 0 0 0 0 0 4 9 18
21 16 14 2 0 7 17 14 3 0 0 0 0 0 0 0
0 0 0 0 0 0 0 0 0 0 10 27 39 41 41 42
42 46 47 44 37 38 44 50 48 47 45 37 24 24 37 36
37 37 41 50 55 103 108 96 126 134 139 139 137 136 136 135
133 134 135 136 137 138 138 136 134 114 102 121 61 42 52 40
36 33 27 23 15 27 24 36 49 47 43 40 43 45 46 49
51 49 47 45 46 46 45 43 45 43 31 9 6 1 0 0
0 0 0 0 0 0 0 0 0 0 0 0 0 4 9 20
5 2 0 0 0 0 0 0 0 0 0 0 0 0 0 0
0 0 0 0 0 0 0 0 2 25 43 45 47 45 44 44
45 46 45 41 33 40 49 46 46 47 45 37 27 33 39 36
34 36 40 49 55 85 123 89 117 131 136 139 139 138 136 134
135 135 136 137 137 138 138 136 124 90 108 119 56 1 17 47
34 31 27 20 7 31 36 39 45 45 44 45 42 43 46 48
48 46 49 47 49 47 45 44 46 45 47 47 27 3 0 0
0 0 0 0 0 0 0 0 0 0 0 0 0 3 7 19
0 0 0 0 0 0 0 0 1 0 0 1 0 1 0 0
2 0 0 0 0 0 0 12 38 47 47 45 45 42 43 43
43 45 44 41 34 38 48 46 46 47 45 36 29 37 39 35
32 34 37 45 51 69 125 106 94 127 133 139 139 139 137 136
133 134 135 136 136 138 137 133 104 86 122 97 26 0 0 37
35 30 26 21 4 29 41 41 45 43 39 43 41 43 46 46
46 45 49 47 46 43 41 42 43 44 43 45 47 36 8 0
0 0 0 0 0 0 0 0 0 0 0 0 0 3 7 18
0 0 0 0 0 0 2 14 15 9 4 12 13 12 3 7
7 0 0 0 0 0 18 47 46 45 44 44 44 42 44 44
43 45 45 42 34 36 49 48 45 42 45 36 28 36 39 33
32 34 40 51 55 58 125 125 88 113 128 136 139 139 138 136
131 131 132 133 136 137 137 115 93 106 124 69 14 0 0 25
40 32 28 25 8 23 43 41 44 43 41 43 39 45 44 42
44 46 44 46 44 43 42 44 41 41 45 42 43 37 24 4
0 0 0 0 0 0 0 0 0 0 0 0 0 2 8 15
0 0 0 0 0 0 2 19 19 25 28 22 25 21 15 17
4 0 0 0 0 12 45 45 43 43 45 45 45 42 43 41
44 47 47 44 36 36 47 47 46 42 46 41 29 35 41 37
33 35 40 53 31 40 127 128 108 90 126 135 139 139 138 135
129 127 127 130 133 135 125 100 102 127 97 64 11 0 0 26
44 31 28 25 16 26 42 42 43 42 45 45 39 45 44 42
41 44 44 43 44 45 45 45 45 44 46 42 44 36 24 29
1 0 0 0 0 0 0 0 0 0 0 0 0 2 12 16
0 0 0 0 0 0 0 7 18 30 34 28 30 29 26 16
1 0 0 0 3 38 46 43 41 41 45 45 46 44 44 44
46 46 45 45 38 36 45 45 48 43 46 43 29 34 41 40
33 36 41 56 14 25 130 126 109 89 120 133 138 139 138 134
128 128 127 130 129 126 113 97 122 114 64 32 1 0 0 28
42 30 30 29 22 31 42 42 42 40 39 45 42 44 47 43
39 43 46 41 39 43 44 45 44 44 43 41 41 35 20 35
17 0 0 0 0 0 0 0 0 0 0 0 0 4 15 17
0 0 0 0 0 0 0 1 14 23 31 37 34 34 21 3
0 0 0 0 20 41 38 40 39 42 47 47 46 45 46 47
49 47 45 46 41 38 43 43 46 47 44 45 35 32 44 42
33 39 42 55 14 13 128 131 112 103 108 135 139 139 139 133
132 130 128 128 121 115 97 112 120 60 25 16 1 0 1 28
46 33 30 33 30 37 42 42 42 40 36 42 46 45 45 41
41 46 46 41 37 44 47 46 46 45 46 44 42 36 22 33
34 1 0 0 0 0 0 0 0 0 0 0 0 5 16 17
0 0 0 0 0 0 0 0 3 12 22 28 24 16 3 0
0 0 0 7 40 41 34 43 37 41 47 48 45 46 47 48
48 47 45 46 43 42 43 41 45 47 41 43 37 33 46 47
36 40 40 53 20 5 116 139 114 119 97 128 137 139 137 135
135 133 127 123 116 87 65 107 77 28 21 18 5 7 8 22
51 36 36 39 36 39 40 42 41 38 38 37 44 45 44 40
42 46 45 39 37 44 48 46 46 46 46 43 43 37 23 30
37 10 0 0 0 0 0 0 0 0 0 0 0 4 13 12
0 0 0 0 0 0 0 0 0 1 8 10 9 1 1 3
1 0 0 27 42 40 35 43 36 39 46 47 45 47 49 49
49 46 44 49 45 44 39 40 44 48 41 44 40 37 47 48
47 43 39 50 22 0 81 142 131 126 108 99 135 139 138 133
136 133 128 116 83 59 55 41 26 22 19 18 19 30 9 10
48 46 39 46 35 40 40 40 40 40 38 36 42 44 40 39
38 45 45 41 38 44 45 46 45 44 44 45 46 37 24 35
39 25 0 0 0 0 0 0 0 0 0 0 0 5 16 14
0 0 0 0 0 0 0 0 0 2 5 5 2 0 2 6
1 0 18 34 40 39 34 43 38 40 47 49 50 49 49 49
51 46 46 50 50 48 41 37 41 47 39 44 40 42 49 45
46 48 43 52 16 0 35 130 140 136 111 69 106 136 136 128
132 127 118 74 44 26 26 25 26 23 21 19 33 36 16 10
33 53 43 45 42 40 42 39 41 42 43 40 40 43 40 37
39 43 40 41 39 42 45 47 47 47 47 47 47 36 23 37
39 32 12 0 0 0 0 0 0 0 0 0 0 5 17 15
0 0 0 0 0 0 0 0 3 8 8 7 8 15 9 0
0 8 32 34 40 35 31 45 37 35 43 47 47 48 50 50
51 46 45 51 52 51 41 33 39 47 40 45 41 44 49 41
50 48 50 50 6 4 26 59 117 138 125 73 62 95 126 119
108 111 81 41 25 25 33 39 38 30 27 33 41 34 29 19
20 39 56 52 50 47 36 41 39 41 42 44 39 41 39 38
40 44 43 39 36 39 45 44 45 44 42 45 43 34 26 37
42 32 21 18 0 0 0 0 0 0 0 0 0 4 15 11
2 0 0 0 0 0 0 0 3 9 7 7 17 34 21 0
5 34 33 36 40 35 28 44 37 36 42 45 49 49 48 48
45 43 44 48 48 49 37 33 38 48 41 44 43 45 45 41
49 51 55 35 9 22 28 31 39 65 68 32 42 59 91 95
82 91 44 28 32 42 47 44 36 28 39 38 43 33 39 37
30 25 31 39 45 51 27 36 39 39 41 43 39 40 39 38
42 43 39 38 36 37 43 43 42 43 42 43 43 35 26 38
38 32 30 44 13 0 0 0 0 0 0 0 0 3 13 10
3 2 1 0 0 0 0 0 4 10 9 10 25 37 23 3
30 42 34 40 41 36 26 43 39 38 42 44 48 51 51 52
49 48 46 47 50 49 37 34 38 45 41 42 45 50 48 52
52 51 36 32 39 35 30 31 33 33 24 9 15 31 46 58
62 67 37 32 41 45 47 40 30 30 41 40 43 33 38 41
42 39 36 32 33 36 34 42 41 41 42 44 39 40 40 38
44 43 38 39 37 38 43 45 44 40 42 45 45 36 27 38
41 40 37 46 83 14 0 0 0 0 0 0 0 0 2 2
0 1 4 1 0 0 0 0 2 12 12 21 37 46 37 35
44 42 34 40 41 35 24 40 39 38 40 41 45 49 48 46
44 38 44 45 46 46 39 34 39 47 41 42 44 55 39 33
33 31 39 42 45 45 42 41 38 34 39 29 39 37 35 39
51 53 34 37 43 49 49 39 26 39 43 44 43 37 40 41
43 41 42 40 38 40 38 43 39 41 44 46 44 44 43 41
43 40 36 38 40 39 43 44 41 38 43 43 44 34 27 39
44 43 41 68 127 89 2 0 0 0 0 0 0 0 0 0
0 1 4 3 0 0 0 0 0 5 14 27 40 48 52 59
45 42 37 38 41 35 24 42 42 39 40 42 45 47 47 46
41 38 44 44 48 49 39 34 41 49 43 43 43 41 36 38
40 42 44 45 46 46 47 47 45 37 42 36 46 44 39 32
48 45 36 43 51 53 47 33 32 45 45 46 44 40 43 44
47 46 45 43 40 42 41 39 39 40 43 44 44 45 43 43
44 40 38 41 39 40 42 43 39 39 42 42 40 34 29 41
45 43 49 111 134 121 42 0 0 0 0 0 0 0 0 0
1 0 1 1 1 0 0 0 0 0 8 25 38 48 84 103
47 45 40 36 39 39 26 44 43 40 40 42 47 47 48 48
42 39 45 45 49 51 41 36 45 49 45 43 46 47 46 47
45 45 48 47 48 47 49 47 46 41 40 42 45 46 38 37
112 79 44 48 53 56 44 32 46 47 46 45 45 40 44 45
46 47 46 45 42 43 44 40 42 43 46 45 42 44 46 43
40 39 37 39 40 42 43 42 40 39 41 45 44 35 29 43
45 51 89 135 133 122 111 7 0 0 0 0 0 0 0 0
5 2 0 0 0 0 0 0 0 0 0 12 26 58 132 135
62 46 46 39 39 39 25 42 43 41 40 44 47 49 48 49
43 40 48 46 50 50 43 37 43 48 47 43 47 51 52 52
49 48 49 46 48 48 50 50 49 44 40 47 43 48 39 59
138 136 125 108 109 103 55 40 61 81 103 120 120 98 81 70
61 53 47 44 44 44 45 46 46 45 47 46 46 45 47 44
41 38 39 41 42 43 45 43 40 42 44 46 45 36 30 40
48 78 133 136 130 122 133 57 0 0 0 0 0 0 0 0
7 3 0 0 0 0 0 0 0 5 6 18 31 104 143 142
108 46 42 41 39 40 27 41 43 40 41 43 47 47 50 48
42 42 49 47 49 51 44 38 42 49 50 47 50 50 50 50
50 47 47 47 47 48 48 49 48 46 43 46 45 48 42 99
140 138 138 138 138 137 128 129 135 137 137 136 137 136 136 136
135 130 122 94 60 43 45 45 47 47 47 49 48 49 46 43
42 38 38 41 42 45 47 45 44 45 43 46 45 36 30 48
67 130 135 135 127 127 135 120 15 0 0 0 0 0 0 0
6 3 0 0 0 0 0 0 1 9 14 30 68 138 142 141
137 67 40 44 39 42 29 42 48 42 41 44 45 47 49 47
43 42 48 47 50 51 45 38 43 49 51 46 44 47 49 57
69 81 89 86 79 69 62 60 64 67 79 100 115 74 55 125
138 138 138 138 138 137 137 137 137 137 137 137 136 136 136 136
136 136 136 136 134 119 93 84 79 86 99 113 125 128 121 96
71 51 41 42 42 44 45 45 44 44 46 55 56 39 34 57
121 135 134 133 129 133 134 133 72 0 0 0 0 1 12 4
3 0 0 0 0 0 0 0 0 6 13 38 118 143 142 141
141 108 46 40 42 40 38 119 131 119 99 86 81 75 72 66
53 45 51 60 80 89 78 51 43 48 50 49 52 77 115 134
140 140 139 138 138 138 136 136 137 137 138 138 137 135 124 138
137 137 137 137 137 137 137 136 136 136 136 136 135 135 136 135
135 135 135 134 135 133 133 133 132 132 132 133 133 133 132 132
132 128 115 97 79 69 67 71 79 96 116 128 131 108 51 101
133 132 130 130 129 130 130 129 116 35 1 0 0 1 10 5
0 0 0 0 0 0 0 0 0 5 14 68 140 141 141 141
139 136 66 43 41 40 48 135 140 140 139 140 139 139 140 139
134 128 127 134 139 139 139 132 105 83 82 102 127 139 139 138
139 139 138 138 138 138 138 138 137 137 137 137 137 136 131 136
136 136 136 136 136 136 136 135 135 135 135 134 134 133 133 133
132 132 132 132 132 131 131 131 130 130 129 130 131 130 130 129
128 127 127 127 126 125 125 125 124 124 123 123 122 120 92 121
124 123 123 122 122 122 121 121 119 105 39 0 0 0 0 0
0 0 0 0 0 0 0 0 0 3 22 114 142 141 141 140
140 140 113 44 39 40 47 134 141 140 140 140 140 140 140 139
139 138 140 139 139 139 139 139 138 138 139 139 139 139 138 138
139 137 138 137 137 137 137 137 137 137 137 136 137 137 136 136
136 136 137 135 135 135 135 135 134 133 134 134 133 132 133 132
132 132 132 132 132 131 131 131 130 130 130 129 129 129 129 128
127 127 126 125 125 124 124 124 123 123 122 122 122 121 115 121
122 122 122 121 121 121 121 120 119 118 79 11 0 0 0 0
