P2
128 120
137
0 6 37 34 28 27 27 27 27 27 27 26 26 27 26 26
25 25 25 25 25 24 24 23 23 23 22 22 22 22 21 22
22 22 22 20 21 20 20 19 19 19 18 18 18 17 17 17
17 17 18 20 21 21 20 14 15 16 15 21 20 20 19 19
19 19 18 17 16 14 17 17 19 19 19 19 20 20 20 20
21 20 20 21 21 21 22 22 22 22 23 24 23 24 25 25
25 26 26 26 26 26 26 27 27 28 28 28 28 28 28 29
29 29 29 29 30 30 30 30 30 30 30 30 30 30 30 31
0 6 36 34 27 27 27 27 27 27 27 26 26 25 26 25
25 25 24 25 25 24 24 24 24 23 23 22 22 22 22 22
21 21 21 21 21 20 21 20 20 19 19 19 18 18 18 17
17 18 18 21 22 21 20 15 15 17 15 21 21 20 20 19
19 20 17 17 17 15 18 18 19 20 20 20 20 20 20 21
21 21 22 21 22 21 22 22 23 23 24 24 24 24 25 25
26 25 26 26 26 26 27 27 27 28 28 29 29 28 29 28
29 28 29 28 29 29 29 29 31 30 30 30 31 30 31 30
0 7 37 33 27 27 27 27 27 27 27 26 26 26 26 26
25 25 25 25 25 24 24 23 23 23 23 23 23 23 22 22
22 22 22 21 21 21 21 20 20 19 19 19 18 18 18 18
18 18 19 21 21 21 20 15 15 18 15 21 21 21 20 19
19 20 19 18 17 15 18 18 20 20 20 20 20 20 20 21
21 21 22 22 22 22 23 23 24 23 23 25 24 25 25 25
25 25 26 26 26 27 27 27 27 27 27 28 28 28 28 28
29 30 30 29 30 30 29 30 30 30 30 30 30 30 30 30
0 6 36 33 27 27 26 27 27 27 26 26 26 26 25 25
26 25 25 25 25 24 24 24 24 23 23 23 23 23 22 22
22 21 21 21 21 21 21 20 20 20 20 19 19 18 19 18
18 19 20 22 22 22 21 16 15 20 16 21 21 21 21 20
20 19 18 18 17 15 18 18 20 20 21 21 22 22 22 21
22 22 21 22 22 22 23 22 24 24 24 25 25 25 25 26
26 26 27 27 27 26 27 27 27 28 28 28 28 28 29 29
29 30 31 30 30 29 29 30 30 30 30 30 31 31 30 31
0 8 35 32 27 27 27 26 26 26 26 26 26 26 26 26
26 25 25 25 25 24 24 24 24 23 23 22 23 23 23 22
23 22 22 22 21 21 21 20 20 20 20 19 19 18 18 18
18 18 20 22 22 22 22 16 16 20 16 21 22 21 21 20
20 20 19 19 19 16 19 19 20 20 21 20 22 21 22 21
22 22 22 23 22 23 24 24 24 24 25 24 24 25 25 24
25 26 26 26 27 27 28 29 28 28 28 28 29 29 29 29
29 30 29 30 29 30 30 30 30 30 31 30 31 30 31 30
2 15 36 32 27 27 27 27 26 27 26 26 26 26 26 26
25 25 26 25 25 24 25 24 24 24 24 24 23 23 23 23
22 22 22 22 21 21 21 21 21 20 20 20 19 19 19 19
19 19 20 22 22 23 21 16 16 21 16 21 22 21 21 21
20 19 19 19 18 16 19 19 21 21 21 21 23 22 22 23
22 22 22 23 23 23 24 23 24 24 25 24 25 25 25 25
26 27 27 28 27 28 28 29 29 29 29 29 29 30 30 30
30 30 30 30 29 29 30 30 30 30 30 30 31 30 31 31
17 23 35 30 27 27 27 27 27 26 26 26 26 25 26 26
25 25 26 25 25 25 25 24 24 24 23 23 23 23 22 22
23 22 23 22 22 22 22 21 21 21 20 19 20 19 19 18
19 19 20 22 23 23 22 16 16 22 17 21 22 22 22 21
20 20 19 20 19 16 19 19 21 21 21 22 22 22 22 22
22 23 23 23 23 23 24 24 24 24 25 25 25 26 26 26
26 26 27 28 28 28 28 28 29 29 29 29 29 29 29 29
29 29 30 31 29 30 30 30 30 30 30 30 30 30 30 31
27 29 30 28 27 27 27 27 27 26 26 26 26 26 26 26
25 25 25 24 25 24 25 24 24 23 24 24 23 23 23 23
22 22 22 21 22 22 21 21 21 21 20 20 20 20 20 19
19 20 21 23 23 23 22 16 16 22 17 20 23 22 22 21
20 21 20 19 19 17 19 20 21 22 22 22 23 22 22 22
22 22 22 23 24 24 24 24 24 24 25 25 25 26 27 27
27 27 28 29 28 27 28 28 28 29 29 29 29 29 29 29
30 29 30 31 29 30 30 29 30 30 30 30 31 31 31 31
20 24 26 27 27 27 27 27 27 27 26 26 26 26 26 25
25 25 25 25 25 25 25 24 24 24 24 23 23 23 22 23
23 23 22 23 22 22 22 22 21 21 20 20 20 19 19 19
20 20 21 23 24 24 23 17 17 23 20 20 24 23 22 21
20 20 20 20 19 17 20 20 22 22 22 22 22 21 22 22
22 23 23 24 24 24 24 25 25 25 26 26 26 26 26 26
27 27 28 28 28 28 29 28 29 29 29 29 29 28 29 29
29 28 29 31 29 30 30 31 30 30 30 30 31 30 31 31
9 12 15 18 21 23 25 27 27 27 27 26 26 26 26 26
26 25 25 25 25 25 24 24 24 24 23 23 24 23 24 23
23 23 23 22 22 22 22 21 22 21 21 21 21 21 20 20
20 21 21 24 25 24 23 17 17 23 20 19 23 23 22 22
21 20 21 20 20 17 20 19 21 21 22 23 23 23 23 23
23 23 24 24 25 24 24 25 25 25 25 26 26 26 27 27
28 28 28 29 28 28 29 29 29 28 28 28 29 28 29 29
30 29 30 31 30 30 30 31 30 30 30 31 30 31 31 31
6 8 8 8 10 10 12 16 19 21 24 25 25 25 26 26
25 25 25 25 24 25 24 24 24 24 24 24 24 23 23 23
23 23 23 23 22 23 22 22 22 21 21 21 21 20 20 20
20 20 21 24 25 24 24 18 17 24 22 20 24 23 22 22
21 21 21 21 20 17 21 21 23 22 22 23 23 23 23 24
24 24 24 24 26 24 25 25 25 25 26 26 26 26 27 27
27 28 28 29 28 28 29 29 29 29 28 29 29 29 30 29
29 29 30 31 30 30 30 30 30 30 30 30 29 29 30 30
14 11 8 8 7 7 8 8 9 7 8 14 23 26 26 26
26 26 25 25 25 25 25 24 25 24 24 24 24 24 24 23
23 23 23 23 22 22 22 22 22 21 22 21 22 21 21 20
21 21 22 24 25 24 24 17 17 24 23 19 24 24 24 22
21 21 21 21 20 18 21 21 22 22 22 22 23 23 23 23
23 24 25 24 25 24 25 25 25 26 26 26 26 27 27 27
28 28 28 29 29 28 29 29 29 29 29 29 29 30 29 29
30 30 29 29 28 29 29 29 29 29 30 31 31 30 30 30
31 24 12 14 11 9 7 8 8 5 3 8 22 26 25 25
25 25 24 25 25 25 25 25 25 24 25 24 24 24 24 23
23 23 23 22 23 23 22 22 22 22 21 21 21 21 21 21
20 21 22 25 25 24 23 18 17 24 25 19 24 24 23 22
21 22 21 21 20 17 21 21 23 23 23 23 24 23 23 24
24 24 25 24 26 25 26 26 26 26 26 26 26 27 27 28
28 28 28 29 28 28 28 29 30 29 29 29 28 29 28 28
28 29 29 29 29 30 30 30 29 29 30 31 30 29 30 30
37 31 19 25 27 23 18 16 13 8 6 9 22 26 27 26
26 25 26 26 26 25 25 25 25 24 25 24 25 24 24 24
23 24 25 28 27 25 24 23 22 22 22 21 21 22 21 21
21 21 22 24 25 24 24 18 18 25 25 18 24 24 24 24
23 23 22 21 21 19 22 21 24 23 23 23 23 24 24 24
24 24 25 25 26 26 26 26 26 26 27 27 27 27 27 28
29 29 29 29 29 29 28 29 29 29 28 29 28 28 29 29
30 30 30 30 30 30 30 31 30 30 30 30 31 29 30 30
38 33 25 29 32 30 31 33 31 21 6 9 22 26 26 26
26 25 31 32 30 29 27 26 24 24 24 25 25 24 23 24
23 24 29 35 33 29 28 26 23 22 22 22 22 21 21 21
20 22 22 25 25 24 24 18 17 24 25 18 23 24 24 23
22 22 21 21 21 18 21 21 24 23 23 24 24 24 24 24
25 24 25 25 26 25 26 25 25 26 27 27 27 28 27 27
27 27 27 28 27 28 28 28 29 28 28 29 29 29 29 29
30 30 29 29 29 29 29 29 29 30 30 30 31 30 30 30
21 31 27 31 33 33 35 37 37 28 8 10 23 26 27 27
26 27 35 35 33 32 30 29 29 26 25 25 24 24 23 23
24 24 29 34 32 30 31 31 26 22 22 22 22 21 21 21
21 22 22 25 25 24 24 18 17 24 26 18 22 25 24 24
23 23 22 22 22 19 22 22 24 23 23 23 24 24 24 25
24 25 25 25 26 26 26 25 26 26 27 27 26 27 27 27
28 27 27 28 28 28 28 29 28 28 28 29 29 29 29 29
29 29 30 30 29 29 30 30 30 30 30 30 30 30 30 30
3 28 28 31 33 34 36 37 38 31 9 11 25 28 27 27
26 26 32 34 33 31 32 33 34 30 30 30 28 26 24 24
24 23 26 26 26 27 29 30 27 22 22 21 22 22 21 21
21 21 22 24 24 24 23 17 15 17 25 18 22 25 24 23
22 23 22 22 22 20 22 21 24 23 24 24 24 25 24 25
25 25 25 25 25 25 25 25 26 27 27 27 27 26 27 27
28 28 28 28 28 27 27 28 28 28 28 29 29 29 30 30
29 29 29 29 30 29 29 30 30 29 30 29 31 30 30 30
4 28 24 26 29 33 36 36 36 30 10 12 27 30 27 28
30 30 27 16 22 29 32 34 35 28 18 22 26 27 28 28
28 26 24 15 11 13 17 20 25 23 22 22 22 22 21 20
14 12 10 7 5 7 9 10 12 13 24 19 21 25 25 24
24 24 22 22 22 20 22 22 24 24 24 24 24 24 25 25
25 25 25 25 25 26 26 27 26 26 27 28 28 27 28 28
28 28 28 28 28 28 28 28 28 28 28 30 29 29 29 29
29 29 29 29 29 30 30 30 30 30 30 30 31 30 30 30
7 27 7 4 9 17 24 27 29 29 11 12 26 30 25 25
30 34 21 0 1 10 18 20 26 23 1 0 4 9 14 20
25 26 25 11 3 4 3 1 16 24 22 19 14 7 3 1
0 1 3 4 4 4 6 3 6 13 25 20 20 25 25 24
23 24 22 22 23 20 22 21 24 24 24 25 25 25 25 25
25 25 26 26 26 25 26 26 27 26 27 28 28 28 28 27
28 29 29 28 28 28 28 29 29 29 28 30 30 29 30 30
30 29 29 30 30 30 30 30 30 30 30 30 31 31 30 30
5 27 4 0 0 0 1 2 7 27 11 9 16 22 26 28
32 36 24 0 0 2 6 7 13 21 0 0 0 0 0 1
3 12 24 9 0 0 1 0 15 19 5 0 0 0 0 0
5 7 10 13 17 15 8 15 18 9 11 19 19 25 25 23
23 24 23 22 22 21 22 22 24 24 25 25 25 25 26 25
26 25 25 26 26 26 27 26 27 27 28 28 29 28 28 28
28 28 28 28 28 29 29 29 29 29 29 30 30 29 30 30
29 29 29 30 30 30 30 30 30 31 31 31 31 31 31 31
5 27 3 0 0 0 0 0 2 25 12 6 0 1 5 10
18 25 21 0 0 0 1 2 10 22 1 0 0 0 0 0
0 5 23 6 0 0 0 0 3 0 0 0 0 0 0 6
13 20 18 21 23 20 19 10 13 19 16 19 29 30 26 25
24 25 23 23 23 21 23 22 25 25 25 25 26 26 26 26
26 26 26 26 26 26 27 26 27 27 27 28 29 28 28 28
28 28 29 29 29 29 29 29 29 29 29 30 31 30 29 30
29 30 30 30 30 31 30 30 30 31 31 31 31 31 32 31
5 27 3 0 0 2 0 0 2 25 12 5 0 0 0 0
0 1 10 0 0 0 0 0 6 20 1 0 0 0 0 0
0 4 22 2 0 0 0 0 0 0 1 1 6 7 2 9
5 3 1 0 0 1 4 13 6 6 17 14 17 21 22 25
24 24 23 23 23 21 24 24 25 25 25 26 26 26 26 26
26 26 26 26 26 27 27 27 27 27 28 28 29 28 29 28
28 28 29 29 29 29 29 29 29 30 29 30 30 30 30 30
30 30 30 30 30 30 31 31 31 31 32 32 30 30 31 30
6 27 3 0 0 5 0 0 2 25 12 5 0 0 0 0
0 0 5 0 0 0 0 0 7 21 1 0 0 0 3 0
0 4 22 2 0 0 0 0 3 9 13 14 11 10 10 13
17 18 13 7 3 3 1 1 2 5 6 13 9 16 15 21
25 25 24 24 24 22 23 24 26 26 26 26 27 27 26 27
27 26 27 26 27 27 27 27 28 28 28 28 29 28 29 29
29 30 29 30 30 30 30 30 30 30 30 31 30 30 30 30
31 29 30 31 31 31 31 31 31 31 31 31 31 31 31 31
6 26 2 0 0 2 1 0 2 25 11 7 0 0 0 0
0 0 4 0 0 0 0 0 9 24 1 0 0 2 8 4
1 3 20 1 2 11 3 7 16 13 15 21 22 11 7 8
11 17 21 15 14 12 15 11 10 8 10 7 6 10 13 17
20 24 24 25 24 21 24 24 26 26 27 26 27 27 26 27
27 27 27 27 27 28 28 28 28 28 29 29 29 29 30 29
30 30 30 30 30 30 30 30 31 31 30 30 30 31 31 32
31 31 32 31 31 32 32 32 32 31 32 32 31 32 32 32
6 24 1 0 0 0 0 0 2 25 11 5 0 0 0 1
0 0 2 0 0 0 0 0 8 25 1 0 0 3 9 8
5 1 3 0 4 10 12 9 4 3 2 5 7 9 13 17
26 27 24 17 14 15 20 24 19 24 16 13 8 5 9 14
18 19 24 25 24 22 23 25 26 26 26 25 26 27 27 26
27 27 27 27 28 28 28 27 28 28 28 29 29 29 30 30
30 30 30 31 30 30 31 30 30 30 30 30 31 30 31 31
31 31 31 31 32 31 32 32 32 32 32 32 32 31 32 32
8 24 1 0 0 0 0 0 3 25 11 6 0 1 0 0
0 0 3 0 0 0 0 0 10 26 2 0 0 1 6 6
2 0 0 0 4 6 2 0 0 0 0 3 7 11 20 25
23 16 14 18 18 18 16 14 18 20 25 22 18 8 6 9
14 12 19 24 24 22 24 24 26 27 27 26 27 27 27 27
27 27 27 27 28 28 28 28 29 29 29 29 30 29 30 30
30 30 30 30 30 31 30 30 31 31 31 31 31 31 32 31
32 31 30 31 32 32 32 32 32 32 32 33 33 33 33 34
25 29 11 4 4 3 1 0 5 24 11 7 0 0 0 0
0 0 5 2 0 0 0 0 12 29 9 2 2 0 0 1
0 0 0 0 0 0 0 1 1 1 1 2 4 11 16 21
16 7 14 19 16 13 12 11 16 14 10 14 21 18 11 4
9 11 13 21 24 23 24 25 26 27 26 27 27 27 27 27
27 28 28 28 28 28 29 28 29 29 29 28 29 29 29 29
30 30 31 31 32 31 31 31 31 31 31 31 31 30 31 31
31 31 31 32 33 33 33 33 33 33 33 33 33 32 32 33
31 39 37 22 24 25 25 22 23 24 10 7 0 0 0 0
0 0 13 21 12 10 6 2 9 34 26 20 19 11 0 0
0 4 1 0 0 0 1 4 7 4 4 2 5 7 10 10
9 7 5 2 9 14 13 11 10 11 12 12 8 13 13 5
5 10 12 13 22 22 24 24 27 27 27 27 27 27 27 28
28 28 27 28 29 28 29 29 29 29 29 29 29 29 30 29
30 31 30 31 31 30 31 31 31 30 31 31 31 31 32 32
32 31 32 32 33 32 32 31 32 32 31 30 29 29 28 29
33 45 37 23 29 34 35 35 35 25 9 6 0 0 0 0
0 0 19 39 32 31 31 28 27 36 19 13 14 2 0 0
11 6 0 0 0 0 0 1 4 7 12 13 9 3 4 6
9 18 21 18 7 12 20 25 20 10 9 11 11 8 12 5
6 8 11 9 17 22 24 24 26 27 26 27 27 27 27 28
28 28 28 28 29 29 29 28 28 29 29 28 28 29 29 30
30 31 30 31 31 30 31 30 30 30 30 30 30 30 30 30
29 29 28 31 31 29 28 27 27 26 24 22 21 19 18 16
34 42 29 21 28 34 35 37 37 26 9 8 3 1 0 0
0 0 19 37 33 36 39 39 34 29 15 7 4 0 0 15
10 0 0 0 0 0 0 1 5 12 14 13 18 19 19 13
11 14 15 12 12 8 10 16 22 18 11 8 11 9 9 8
2 6 9 9 8 20 23 25 26 26 27 27 27 26 28 27
27 28 27 27 28 28 28 28 28 28 28 28 29 28 29 30
30 30 30 30 30 29 29 28 28 28 29 28 28 27 27 27
25 24 23 22 20 18 17 15 14 13 13 13 13 14 14 14
32 37 16 4 11 15 18 22 27 26 9 12 23 25 20 13
9 6 22 29 31 37 38 39 33 26 15 4 1 0 10 8
0 0 0 0 0 0 1 7 10 7 10 12 13 17 17 16
11 13 15 15 17 21 11 15 19 14 12 8 8 8 7 7
7 5 7 8 8 15 23 24 27 27 26 27 26 27 26 27
27 27 27 27 28 29 28 28 28 29 29 29 29 29 29 30
29 29 29 29 29 27 28 30 25 24 23 21 20 18 16 16
15 15 15 14 16 15 16 16 17 18 18 19 19 20 19 12
32 38 13 0 0 0 0 0 8 24 11 14 31 38 37 35
33 32 33 21 22 29 33 36 32 27 13 0 0 1 7 0
0 0 0 1 0 2 8 12 8 9 15 22 23 20 16 12
10 13 18 23 25 19 15 12 14 15 13 10 10 9 14 9
9 4 7 5 6 7 20 25 26 26 26 26 27 26 27 27
27 27 26 26 28 28 28 28 29 29 29 29 29 28 27 26
25 23 22 21 19 17 20 29 19 14 15 16 16 17 18 18
19 19 20 20 21 21 22 22 22 23 23 21 24 25 24 10
28 38 12 0 0 0 0 0 5 23 11 13 30 37 37 37
38 39 35 10 2 6 9 14 17 17 3 0 0 2 1 0
1 1 2 1 2 4 4 4 5 10 16 22 13 11 15 18
18 18 18 17 16 14 13 12 11 10 8 8 10 9 9 10
8 7 7 6 9 4 11 23 26 26 26 25 25 25 25 24
24 26 27 27 27 27 27 26 25 24 23 21 20 18 17 17
16 16 16 17 17 16 16 25 18 16 19 20 21 21 22 23
23 24 24 24 25 26 26 26 27 27 27 22 22 27 28 17
25 35 9 0 0 0 3 10 14 23 16 15 25 30 31 32
34 36 32 5 0 0 0 0 3 3 0 0 0 0 0 0
2 2 2 1 0 2 3 2 5 9 9 4 9 12 16 19
18 13 7 7 6 6 6 8 11 8 8 7 7 9 7 7
7 8 5 8 5 7 3 19 23 24 24 23 24 23 24 21
17 22 23 21 21 19 19 18 17 17 16 16 17 17 18 19
20 21 20 22 23 22 20 26 21 21 25 26 26 26 27 27
27 27 28 28 28 28 29 28 28 27 28 29 24 23 28 25
23 31 7 0 0 0 7 18 19 20 19 16 18 20 23 26
26 31 29 3 0 0 0 0 0 0 0 0 0 0 0 0
0 0 0 0 2 4 4 4 8 6 5 11 13 16 17 17
10 11 13 10 11 11 12 10 6 7 6 6 6 5 6 3
5 5 4 5 4 6 4 13 21 22 21 21 19 19 18 16
13 16 17 16 17 18 18 19 20 20 22 22 22 22 24 24
25 26 26 26 27 25 22 22 20 25 27 28 28 29 29 29
29 30 30 30 30 31 29 28 29 28 28 31 30 25 23 26
24 31 6 0 0 0 2 9 14 17 15 15 16 16 20 24
24 30 28 3 0 0 0 0 0 0 0 0 0 0 0 0
0 0 0 1 9 7 6 9 11 9 8 10 17 23 20 10
19 28 23 13 11 12 11 9 3 2 5 5 4 5 5 5
4 2 1 1 2 2 10 9 17 16 17 16 17 17 17 18
18 19 21 22 23 23 24 24 25 25 26 26 26 26 27 28
28 29 28 28 29 28 18 7 9 25 30 30 30 30 30 30
31 31 32 31 32 31 31 29 28 29 27 30 32 31 24 21
26 31 5 0 0 0 0 0 2 12 12 14 12 11 17 21
25 30 26 3 0 0 0 0 0 0 0 0 0 0 0 0
0 0 0 8 6 2 5 7 4 7 12 16 18 12 9 15
20 19 17 14 11 9 7 6 6 4 7 8 7 4 5 6
5 4 2 0 0 0 9 9 14 17 19 19 20 20 22 23
23 24 25 26 26 27 27 27 28 28 29 29 29 29 29 29
30 29 27 25 22 25 16 4 4 23 30 31 32 31 31 31
32 31 32 32 32 32 32 31 29 28 28 28 32 32 30 21
29 32 5 0 0 0 0 0 1 15 13 15 3 0 1 3
6 10 16 2 0 0 0 0 0 0 0 0 0 0 0 0
0 0 0 1 3 2 3 3 9 14 16 12 10 12 19 22
21 25 19 13 8 5 6 8 9 7 6 5 3 2 3 4
4 3 0 0 0 0 3 8 12 21 23 23 24 25 25 26
27 27 27 28 28 28 28 29 30 30 30 30 30 30 30 30
31 27 12 5 5 18 15 3 4 23 31 32 33 32 32 31
32 32 32 32 33 32 32 31 31 29 28 26 31 32 30 25
30 31 4 0 0 0 0 0 2 21 19 17 3 0 0 0
0 0 6 1 0 0 0 0 0 0 0 0 0 0 0 0
0 2 2 4 2 5 12 18 19 11 9 12 17 17 16 21
24 19 11 7 7 8 5 4 5 6 5 1 4 2 1 2
3 1 0 0 0 0 0 5 6 22 26 26 27 27 26 27
28 28 28 29 29 29 30 30 30 30 31 31 32 31 31 31
32 28 17 16 20 25 14 0 1 22 30 32 33 32 31 32
32 32 32 32 32 32 32 31 32 31 28 26 27 28 27 25
27 27 6 0 0 1 0 0 2 24 19 16 3 0 0 0
0 0 5 2 0 0 0 0 0 0 0 0 0 0 0 0
2 2 2 1 3 10 18 11 7 15 16 18 17 18 21 22
22 16 11 9 9 6 4 5 3 4 3 3 6 6 6 6
5 1 2 1 0 0 0 0 1 15 27 27 28 27 28 28
29 30 30 29 29 30 30 30 30 30 31 31 32 30 31 31
31 31 30 30 30 29 18 1 3 23 30 32 32 31 32 31
32 32 32 32 32 32 32 32 32 32 31 27 24 23 23 26
18 22 16 8 4 7 8 4 4 25 18 16 3 0 0 4
0 0 4 2 0 0 0 0 0 0 0 0 0 0 0 0
0 0 0 3 11 17 13 12 17 20 24 25 26 26 25 23
17 15 10 10 9 6 6 7 5 5 9 8 5 5 3 1
0 1 0 0 0 0 0 0 0 8 27 28 27 27 28 29
29 30 29 29 30 30 30 30 31 31 31 32 31 31 31 31
31 31 31 30 29 27 21 2 4 24 31 31 32 32 32 31
31 32 32 31 32 31 31 31 31 31 31 31 27 22 23 29
15 23 22 22 20 22 25 23 22 28 19 14 2 0 4 10
2 0 6 11 4 1 0 0 0 0 0 0 0 0 0 0
0 0 2 9 16 18 22 28 40 42 36 37 37 27 23 20
17 17 17 13 9 10 7 8 9 12 10 8 9 9 7 6
6 7 0 0 0 0 0 0 0 4 25 29 28 27 28 29
29 30 29 30 30 30 30 30 30 30 30 31 31 31 31 32
31 31 31 31 29 27 23 12 14 27 31 32 32 32 32 32
31 31 31 32 32 32 32 32 32 32 31 31 29 23 23 30
18 24 17 4 4 10 16 24 32 32 21 14 3 0 3 6
1 0 8 27 21 3 0 0 0 0 0 0 0 0 0 0
0 4 14 25 32 53 71 71 59 56 43 36 33 26 20 21
20 20 19 17 14 13 10 16 45 70 63 29 8 8 8 7
9 8 5 0 0 0 0 0 0 3 25 28 28 28 28 29
29 29 29 29 29 30 30 30 30 31 31 31 31 31 31 31
31 31 31 30 29 27 24 22 23 29 31 32 33 32 32 32
32 32 32 32 32 32 32 32 32 32 31 31 30 23 22 29
20 25 15 0 0 3 4 10 31 30 19 14 6 0 0 0
0 0 8 31 27 3 0 0 0 0 0 0 0 0 0 1
13 35 63 88 101 105 105 92 77 63 55 40 33 27 23 19
21 20 17 17 18 21 28 64 107 117 118 106 39 6 8 6
4 7 6 5 0 0 0 0 0 2 25 28 28 28 28 29
29 29 29 29 29 29 30 30 30 30 31 30 31 31 30 30
30 30 30 30 30 28 26 26 28 31 31 31 32 31 31 31
31 31 31 31 32 31 32 31 32 32 32 31 29 23 19 21
20 26 13 0 0 10 16 17 31 26 17 16 14 2 0 0
0 0 7 29 28 10 0 0 0 0 0 0 0 9 36 68
94 116 123 123 123 121 121 116 108 96 77 53 39 30 27 21
21 21 20 20 18 29 78 109 99 99 99 116 101 12 0 1
1 1 1 9 7 0 0 0 2 1 23 28 28 28 29 28
28 29 29 29 29 29 29 30 30 30 30 29 30 31 30 31
31 30 30 30 30 28 28 28 30 31 31 31 32 32 31 32
32 32 31 32 32 31 32 31 31 31 31 30 30 22 20 23
22 28 13 0 0 4 14 21 32 23 14 16 12 0 0 0
0 0 8 28 28 26 10 1 0 0 0 2 23 71 106 114
119 124 125 124 125 125 125 124 123 115 95 71 44 16 13 18
16 17 30 34 40 66 106 94 113 124 123 119 119 52 0 0
0 0 0 3 10 1 0 0 0 3 22 27 28 28 28 28
28 28 28 28 29 29 29 29 30 30 30 29 30 30 30 31
31 31 30 29 30 28 28 29 30 31 31 30 31 31 31 31
31 31 30 31 32 31 31 31 31 31 29 29 29 22 21 26
23 29 14 0 0 0 1 18 33 23 15 17 13 4 2 1
0 0 9 30 27 27 27 21 5 6 24 46 86 102 110 119
124 125 125 125 125 124 125 124 124 116 72 19 11 16 20 18
21 31 55 81 95 110 113 89 123 124 123 119 116 89 5 1
1 0 0 0 5 4 0 0 0 3 24 27 27 28 28 27
28 29 29 29 29 29 29 29 29 29 29 30 30 30 30 30
30 30 30 30 30 29 29 30 31 30 30 31 31 31 32 31
31 31 32 31 31 31 31 31 31 31 29 29 28 23 21 27
24 30 14 0 0 0 0 13 33 23 15 16 22 26 25 21
20 20 25 34 29 28 28 28 21 39 74 88 98 102 110 118
122 124 125 125 125 125 124 109 62 18 12 18 22 27 49 69
62 66 100 120 122 124 119 113 124 123 122 121 115 102 11 1
2 0 0 0 0 2 4 0 0 2 26 27 28 28 28 27
28 28 28 28 29 29 29 29 29 29 30 30 30 29 30 30
30 30 30 30 30 30 31 31 32 32 31 31 31 32 31 32
32 32 31 31 31 31 32 32 31 31 31 31 31 24 21 27
24 30 12 0 0 0 0 13 34 24 15 17 27 40 40 39
40 41 41 39 31 28 28 28 28 52 76 88 97 103 110 116
118 122 124 125 123 98 49 12 12 19 34 51 80 99 99 100
89 70 95 119 124 124 122 112 118 123 123 122 120 108 22 3
4 3 0 0 0 0 6 2 0 1 23 27 27 27 27 28
28 28 29 29 30 30 29 29 29 29 29 30 30 30 30 31
30 30 30 30 31 31 31 32 31 31 31 31 31 31 32 32
32 31 32 31 31 31 31 31 31 31 31 31 30 24 21 27
23 30 10 0 0 0 0 14 35 24 15 17 26 37 38 39
40 41 42 38 21 16 14 15 19 52 77 86 97 104 110 114
116 117 113 79 32 10 16 22 35 59 92 118 121 117 115 113
112 99 100 119 124 124 122 72 90 113 121 123 122 109 30 5
7 7 2 0 0 0 4 5 0 0 21 29 28 28 29 29
29 30 30 30 30 30 29 29 30 29 30 31 31 31 31 31
31 30 31 30 32 32 32 31 32 32 31 31 31 32 32 31
32 32 31 31 31 32 32 31 32 32 32 31 31 25 21 27
24 32 11 0 0 0 0 11 32 22 15 17 19 23 24 25
26 27 29 28 6 0 0 0 1 46 77 85 97 105 109 109
98 58 18 8 15 24 37 55 85 116 126 125 125 121 120 116
113 109 116 125 126 125 124 114 115 124 118 122 122 111 43 8
8 10 5 0 0 0 0 3 0 0 18 28 28 29 29 29
31 31 31 30 31 31 30 30 29 30 30 30 30 30 30 30
30 31 31 30 32 32 33 32 32 32 32 32 32 33 32 32
32 31 32 32 32 33 32 32 32 32 32 31 31 26 22 27
25 32 11 0 0 0 0 12 34 23 15 18 21 25 25 25
24 23 24 22 6 0 0 0 0 45 77 87 98 101 74 40
13 8 12 19 32 50 69 106 126 127 127 126 126 124 117 113
115 113 118 126 126 126 120 108 126 125 120 118 121 110 53 15
6 9 5 0 0 0 0 0 1 0 21 30 30 30 30 30
30 30 30 30 30 30 29 29 29 29 30 31 32 32 30 24
24 23 21 20 23 30 33 33 33 33 33 33 33 33 33 33
33 32 32 32 33 33 32 32 32 32 33 33 32 27 23 27
30 29 10 0 0 0 0 13 36 24 14 17 22 30 29 29
29 29 29 25 7 0 0 0 0 44 76 86 78 27 11 7
9 12 23 29 41 73 111 126 127 126 126 126 126 125 119 117
115 115 121 126 126 126 123 93 121 124 121 116 121 101 57 23
7 8 1 0 0 0 0 0 0 0 17 30 30 29 30 30
30 26 23 21 20 19 17 15 15 16 22 30 31 31 27 12
8 8 8 7 11 28 34 34 33 33 33 32 33 32 32 33
32 32 32 32 32 33 33 32 33 32 33 33 32 27 22 27
30 23 15 9 6 4 4 18 35 24 17 20 25 31 32 31
31 31 32 26 6 0 0 0 1 40 71 67 18 3 24 7
15 30 43 66 101 118 123 127 127 127 127 127 126 126 125 119
116 117 121 126 126 126 123 98 122 122 116 122 122 88 59 29
10 5 1 0 0 0 0 0 0 0 18 29 29 30 29 30
28 16 6 6 7 7 4 2 3 3 12 28 31 31 27 10
6 6 6 5 9 27 34 33 33 33 33 33 33 32 32 32
32 32 33 32 32 33 32 32 33 32 32 33 33 28 23 26
28 26 26 26 23 23 22 25 29 26 24 25 27 28 29 29
29 30 30 28 10 0 0 0 3 34 54 20 0 0 1 17
30 47 82 114 125 127 127 127 127 126 126 126 125 126 126 123
122 119 121 126 126 126 105 101 124 125 125 124 118 77 63 38
16 2 0 0 0 0 0 0 0 0 15 28 29 29 29 29
28 13 2 3 5 5 4 1 2 2 9 27 31 30 25 9
5 5 5 5 9 26 33 34 33 33 33 33 32 32 32 32
32 32 32 32 32 32 33 32 32 33 33 33 33 28 22 25
25 26 26 26 26 26 26 27 27 26 26 26 27 27 27 27
28 28 28 27 18 1 0 0 4 28 18 0 0 0 10 16
26 60 99 113 123 127 128 127 127 127 127 126 127 127 126 124
122 121 121 125 125 125 96 107 125 125 125 125 104 73 66 50
28 3 0 0 0 0 0 0 0 0 17 29 29 30 29 29
27 13 2 3 5 6 4 1 2 2 9 27 31 31 26 9
5 5 6 5 7 24 33 33 33 33 32 33 32 32 32 32
32 32 32 32 32 32 33 32 33 33 32 33 32 29 21 23
24 25 25 25 25 25 26 25 25 25 25 24 25 25 26 26
26 26 27 27 19 1 0 0 2 21 3 0 0 0 6 9
10 37 78 97 113 124 126 127 127 127 127 127 127 127 125 121
124 123 124 125 126 126 120 117 126 126 125 120 85 77 71 57
34 8 0 0 0 0 0 0 0 0 15 29 29 29 30 30
28 13 2 3 6 6 4 1 2 2 9 26 30 30 27 11
7 7 8 8 8 22 32 32 32 32 32 32 32 31 31 32
32 31 31 31 30 29 30 32 32 32 32 33 33 29 22 25
10 11 11 11 11 11 12 12 12 12 12 13 13 14 14 14
15 17 22 25 19 1 0 0 1 26 4 0 0 0 0 15
4 23 72 102 113 121 125 125 127 127 127 127 127 127 126 123
123 124 125 124 126 126 126 122 125 125 124 99 75 75 75 64
47 20 0 0 0 0 0 0 0 0 12 29 29 30 29 29
28 14 2 3 5 5 4 1 2 2 9 27 31 31 28 15
11 12 11 12 12 21 31 33 32 32 33 32 32 32 32 32
33 33 31 18 8 7 10 23 32 32 33 32 32 29 23 24
0 0 0 0 0 0 0 0 0 0 0 0 0 0 0 0
0 3 18 25 20 2 0 0 3 31 15 0 0 0 0 7
18 22 59 113 118 119 124 127 127 127 127 127 127 127 126 123
120 123 125 125 127 126 126 120 125 126 110 81 75 74 81 76
63 29 4 0 0 0 0 0 0 0 6 28 29 29 29 29
27 14 2 2 2 2 2 2 2 2 9 27 31 31 28 13
8 8 8 8 9 20 32 33 34 33 33 33 33 33 32 32
32 32 30 8 0 0 0 17 32 32 32 32 32 28 22 23
0 0 0 0 0 0 0 0 0 0 0 0 0 0 0 0
0 2 20 25 24 15 10 12 19 18 30 0 0 0 0 0
18 21 47 104 119 117 124 128 127 128 128 127 127 127 127 126
124 124 125 126 126 125 126 126 125 117 88 84 77 88 98 87
67 47 22 4 0 0 0 0 0 0 0 24 29 30 30 30
28 14 3 2 1 0 2 1 3 2 8 27 31 32 29 13
7 7 7 7 7 21 33 33 33 32 33 33 33 33 33 32
33 32 30 6 0 0 0 11 32 32 32 32 32 29 23 23
0 0 0 0 0 0 0 0 0 0 0 0 0 0 0 0
0 1 20 26 26 30 31 32 33 17 16 1 0 0 0 0
6 27 38 75 114 118 125 127 127 127 127 127 127 127 127 127
125 124 125 125 126 126 126 125 111 92 88 97 94 108 103 87
64 41 29 18 4 0 0 0 0 0 1 26 30 30 30 30
27 13 3 1 0 1 4 2 3 3 8 26 31 32 28 12
6 6 6 6 7 21 33 33 33 33 33 33 33 33 32 32
32 31 28 3 0 0 0 7 32 32 32 31 31 30 23 22
0 0 0 0 0 0 0 0 0 0 0 0 0 0 0 0
0 0 19 27 25 29 33 35 34 8 0 0 0 0 0 0
0 13 29 45 102 120 126 127 127 127 127 127 126 127 127 126
125 125 124 123 123 125 127 124 104 110 120 118 101 110 102 85
70 47 29 16 9 1 0 0 0 0 4 26 30 30 31 29
26 14 3 2 1 1 3 3 4 3 8 26 31 32 28 13
6 6 6 7 7 21 33 33 32 32 33 32 33 32 32 28
18 16 15 1 0 0 0 6 31 32 32 31 31 29 23 22
0 0 0 0 0 0 0 0 0 0 0 0 0 0 0 0
0 0 17 27 25 26 28 31 33 8 0 1 15 0 0 0
0 1 15 27 85 121 127 127 127 127 127 127 126 126 126 124
122 123 124 123 124 125 125 124 115 119 125 119 105 108 102 83
74 52 31 18 11 5 1 0 1 0 10 26 29 30 30 28
25 14 3 1 0 0 1 2 4 2 7 26 30 32 28 13
5 5 6 5 6 20 32 33 32 32 33 33 33 33 31 13
0 0 0 0 0 0 0 5 31 31 31 32 32 30 23 22
0 0 0 0 0 0 0 0 0 0 0 0 0 0 0 0
0 0 16 27 24 21 18 20 23 12 0 0 9 1 0 0
0 0 5 17 66 122 126 128 128 127 127 127 126 127 126 125
123 123 124 124 124 125 123 121 115 117 123 118 110 109 101 81
72 55 41 29 20 9 4 4 2 2 19 27 29 31 31 28
26 15 4 3 1 0 2 2 4 3 7 26 30 32 29 13
5 6 6 6 7 20 32 34 33 33 32 32 32 33 31 7
0 0 0 0 0 0 0 5 31 31 31 31 31 30 23 21
0 0 0 0 0 0 0 0 0 0 0 0 0 0 0 0
0 0 13 26 24 13 1 2 4 5 0 0 16 8 0 0
0 0 1 10 51 119 126 128 129 128 128 128 126 127 127 125
124 122 124 123 122 122 120 117 115 115 120 117 113 109 102 83
76 64 50 33 19 17 7 4 1 6 22 28 30 31 31 28
26 16 3 2 2 2 2 2 3 3 7 25 31 32 29 13
5 6 7 6 6 20 32 33 33 33 33 33 33 32 32 14
0 0 0 0 0 0 0 4 30 32 31 31 31 29 24 21
0 0 0 0 0 0 0 0 0 0 0 0 0 0 0 0
0 0 12 26 24 12 0 0 0 0 5 0 54 37 15 7
0 0 3 9 45 115 125 127 127 127 127 127 127 126 125 125
124 124 123 125 125 122 119 113 111 114 118 115 113 108 102 83
82 70 52 34 27 21 12 1 0 9 21 27 29 30 30 28
26 17 4 2 2 2 2 2 3 3 6 25 31 32 30 16
8 9 7 8 8 21 32 33 32 33 33 33 32 32 32 26
3 0 0 0 0 0 0 2 22 31 32 31 30 29 24 21
0 0 0 0 0 0 0 0 0 0 0 0 0 0 0 0
0 0 10 26 24 12 0 0 0 0 11 7 74 91 20 33
22 1 3 9 53 116 122 125 126 126 127 127 127 126 125 126
125 125 123 123 120 119 118 112 112 112 117 114 111 109 101 84
80 72 60 45 35 28 15 4 2 15 18 26 29 31 31 28
27 17 4 2 1 2 1 2 2 3 6 25 31 32 31 25
23 24 19 21 23 27 33 33 33 33 33 33 33 31 21 23
6 0 0 0 0 0 0 0 9 31 32 31 30 29 25 23
0 0 0 0 0 0 0 0 0 0 0 0 0 0 0 0
0 0 8 25 24 13 0 0 0 0 12 31 91 108 76 15
35 14 8 18 81 116 121 126 126 127 128 127 127 127 126 126
125 125 123 122 121 120 116 112 113 111 115 115 112 109 102 84
76 74 60 52 41 32 17 7 5 14 18 24 28 29 29 28
27 17 4 2 2 2 1 1 2 2 5 24 29 31 31 30
31 32 30 32 32 32 33 34 34 33 33 33 31 19 2 0
3 3 0 0 0 0 0 0 7 31 31 31 30 29 23 20
0 0 0 0 0 0 0 0 0 0 0 0 0 0 0 0
0 0 6 24 23 13 0 0 0 0 15 53 107 111 107 74
30 18 16 53 106 116 121 126 127 127 127 127 127 127 127 127
127 126 124 123 122 119 113 111 109 110 113 117 113 110 103 86
78 76 72 57 47 30 21 10 6 16 17 24 27 29 29 28
27 18 4 1 2 1 1 1 2 2 5 22 28 30 30 32
32 33 33 32 32 29 26 25 23 22 21 21 12 1 0 0
1 1 0 0 0 0 0 0 2 26 30 30 29 28 23 20
0 0 0 0 0 0 0 0 0 0 0 0 0 0 0 0
0 0 5 24 23 15 0 0 0 0 15 74 112 117 108 103
102 74 60 88 108 117 121 125 127 127 127 127 127 126 126 127
126 125 124 122 119 119 114 111 109 108 110 115 115 110 103 88
76 83 83 66 50 37 22 17 10 15 17 24 27 28 29 28
27 19 7 4 2 3 3 2 3 3 7 22 28 28 29 30
31 31 32 31 23 7 4 38 20 0 0 0 0 0 0 4
0 0 0 0 0 0 0 0 0 19 30 29 29 27 23 20
0 0 0 0 0 0 0 0 0 0 0 0 0 0 0 0
0 0 4 24 23 16 1 0 0 0 17 90 115 118 115 116
113 107 87 89 106 114 120 125 127 128 127 127 127 127 127 128
127 125 123 122 119 115 105 112 106 106 108 115 118 113 104 90
79 85 83 69 55 46 33 23 9 14 19 23 26 28 29 28
27 23 16 15 12 11 10 5 2 8 14 23 26 26 28 29
30 32 31 30 15 0 29 112 89 9 0 8 0 0 0 10
0 0 0 0 0 0 0 0 0 4 16 16 22 27 23 20
0 0 0 0 0 0 0 0 0 0 0 0 0 0 0 0
0 0 3 23 22 17 2 0 4 1 23 99 119 122 123 124
124 115 85 85 103 115 121 124 127 127 127 126 126 125 126 125
125 124 123 120 118 114 114 109 102 103 106 114 117 116 107 92
80 85 83 79 70 59 51 31 16 14 21 23 25 27 28 28
27 26 25 23 19 18 17 9 1 11 18 23 24 25 26 27
29 29 20 17 6 0 32 73 72 12 1 7 1 3 6 12
3 2 1 1 0 0 0 0 0 0 0 1 15 27 23 20
0 0 0 0 0 0 0 0 0 0 0 0 0 0 0 0
0 0 3 22 22 17 3 0 8 10 29 99 118 119 120 122
123 118 85 85 97 111 119 124 127 127 127 127 128 126 126 126
124 121 118 118 117 115 110 108 103 103 106 115 120 117 111 96
82 83 86 88 75 70 58 44 23 14 21 22 25 27 28 28
27 26 26 24 22 20 19 10 0 11 18 21 23 24 26 28
29 29 11 7 7 5 6 8 8 7 8 8 10 11 12 13
11 9 8 6 4 4 4 4 4 3 4 5 19 30 27 23
0 0 0 0 0 0 0 0 0 0 0 0 0 0 0 0
0 0 3 21 23 20 19 18 23 26 32 80 103 91 69 79
92 93 83 92 90 108 118 122 125 125 126 125 125 126 125 125
125 122 117 117 115 113 107 105 103 105 110 118 121 118 110 98
84 80 88 88 84 82 74 60 40 21 22 21 24 26 27 27
27 26 26 24 22 21 20 12 0 11 19 21 23 24 25 27
29 29 11 4 4 4 3 3 3 3 4 4 4 4 6 6
3 2 1 0 0 4 25 28 29 31 32 33 37 39 36 32
0 0 0 0 0 0 0 0 0 0 0 0 0 0 0 0
0 0 2 21 22 23 35 39 40 41 42 50 68 82 93 85
97 95 102 100 92 101 115 119 123 123 125 126 124 124 125 122
122 120 116 115 113 107 104 104 104 106 113 116 119 118 111 99
86 79 89 87 94 95 89 78 56 33 22 20 24 26 27 27
27 27 27 25 22 22 20 12 1 11 18 20 22 23 25 27
30 30 20 3 0 0 0 0 0 0 0 0 0 0 0 0
0 0 0 0 0 16 48 48 48 47 46 44 42 39 37 32
0 0 0 0 0 0 0 0 0 0 0 0 0 0 0 0
0 0 2 21 21 22 38 43 43 42 42 41 36 41 31 48
98 99 101 101 97 101 110 116 118 119 125 125 125 124 123 119
118 118 116 111 107 103 99 100 104 111 114 118 119 118 112 99
86 80 87 90 99 102 101 89 72 49 23 20 23 25 27 27
27 26 26 26 23 23 21 14 1 11 18 20 21 23 25 27
29 30 20 0 0 0 0 0 0 0 0 0 0 0 0 0
0 0 0 0 0 27 45 45 45 44 42 37 38 35 32 30
0 0 0 0 0 0 0 0 0 0 0 0 0 0 0 0
0 0 2 20 21 20 25 27 26 25 25 24 25 31 14 23
82 91 93 92 90 101 109 116 119 121 124 123 122 122 120 114
115 115 110 108 103 97 96 101 105 110 114 120 119 118 113 100
89 81 84 93 103 107 105 96 83 63 28 6 12 30 31 26
26 27 26 26 25 24 22 15 1 11 19 21 21 23 25 27
29 29 13 0 0 0 0 0 0 0 0 0 0 0 0 0
0 0 0 0 1 27 32 32 38 34 32 25 27 25 23 25
0 0 0 0 0 0 0 0 0 0 0 0 0 0 0 0
0 0 1 19 21 18 16 14 14 14 14 13 20 30 14 12
72 95 98 96 90 96 108 116 122 121 123 122 123 119 117 111
114 111 109 104 101 98 94 102 106 108 115 119 118 120 112 103
88 81 85 93 101 108 107 101 91 72 48 4 2 27 36 27
21 21 22 24 24 23 22 16 2 9 20 21 21 22 24 26
27 27 8 0 0 0 0 0 0 0 0 0 0 0 0 0
0 0 0 0 0 5 3 4 25 27 24 20 19 20 19 24
0 0 0 0 0 0 0 0 0 0 0 0 0 0 0 0
0 0 2 20 21 18 16 15 15 15 15 13 21 32 20 16
68 104 108 109 103 88 92 109 118 123 123 120 120 116 114 111
112 109 104 102 100 99 101 103 106 111 114 119 120 120 112 102
91 83 82 91 102 107 109 104 98 83 63 24 11 33 35 29
16 14 12 18 23 22 22 16 3 9 20 20 21 22 23 24
26 22 1 0 0 0 0 0 0 0 0 0 0 0 0 0
0 0 0 0 0 0 0 0 14 30 29 27 27 25 24 24
0 0 0 0 0 0 0 0 0 0 0 0 0 0 0 0
0 0 5 22 22 18 19 18 19 18 17 15 23 33 29 32
64 76 71 70 74 74 79 98 110 117 119 119 118 114 111 110
108 105 100 100 98 95 101 104 107 110 113 115 119 119 112 103
95 84 80 87 99 106 109 109 102 90 75 48 16 54 36 31
18 9 9 14 20 21 19 16 2 7 19 20 22 22 23 24
25 14 0 0 0 0 0 0 0 0 0 0 0 0 0 0
0 0 0 0 0 0 0 0 7 29 28 28 26 26 26 25
0 0 0 1 1 2 2 3 4 4 6 6 8 8 8 11
11 12 15 21 20 18 19 19 19 19 18 15 19 25 25 28
42 50 39 47 77 103 114 106 108 111 112 111 114 112 110 106
106 106 101 99 97 98 102 102 106 110 112 112 116 116 114 106
96 86 81 85 96 107 112 110 107 97 84 65 19 40 35 33
25 10 7 12 19 20 20 16 2 7 18 21 21 22 22 22
21 4 0 0 0 0 0 0 0 0 0 0 0 0 0 0
0 0 0 0 0 0 0 0 2 25 27 25 24 25 23 23
11 11 12 13 14 14 14 15 16 16 17 17 18 18 18 18
19 18 18 18 19 19 19 20 20 19 19 17 19 20 19 20
22 24 34 73 91 110 114 111 109 107 106 106 112 113 109 105
104 100 97 97 100 100 101 104 108 109 112 113 116 119 115 109
97 88 82 83 91 106 113 113 108 101 91 73 28 36 38 33
27 12 5 9 16 19 18 15 3 5 18 20 21 22 22 22
18 1 0 0 0 0 0 0 0 0 0 0 0 0 0 0
0 0 0 7 0 0 0 0 0 18 20 15 16 17 15 16
17 14 17 18 18 18 18 18 18 18 18 18 18 18 18 19
17 19 18 18 18 19 20 20 20 20 19 17 19 20 20 20
22 23 49 77 88 98 106 110 106 102 103 104 108 108 105 104
97 97 98 100 100 98 102 104 106 111 111 111 119 116 112 110
100 90 83 85 89 104 114 115 111 103 96 70 37 40 37 33
28 16 6 8 13 17 18 16 4 5 18 20 21 21 21 20
10 0 0 0 0 0 0 0 0 0 0 0 0 0 0 0
0 0 1 18 0 0 0 0 0 13 17 15 17 15 12 14
17 13 16 17 17 17 18 18 19 24 24 13 8 10 14 14
9 12 16 17 17 18 20 21 20 20 20 18 19 21 21 21
22 23 39 41 49 77 96 102 100 98 102 105 105 104 100 100
93 97 97 98 95 98 103 104 106 107 111 115 117 114 115 108
99 91 85 87 89 99 112 116 113 106 99 58 43 37 38 31
27 24 9 7 10 16 17 16 4 4 18 20 21 21 21 20
7 0 0 0 0 0 0 0 0 0 0 0 0 0 0 0
0 0 8 21 0 0 0 0 0 8 21 23 23 21 19 21
13 12 13 12 13 13 12 15 31 42 25 2 0 0 0 1
0 1 8 13 12 12 10 9 10 15 19 19 20 21 21 21
22 23 24 23 39 64 88 96 96 99 100 101 100 101 97 95
91 94 93 95 94 95 101 105 105 107 111 111 113 114 114 110
102 92 86 89 91 96 108 116 115 110 91 54 44 39 38 31
25 22 15 6 8 14 18 17 7 8 19 21 21 21 21 21
3 0 0 0 0 0 0 0 0 0 0 0 0 0 0 0
0 0 11 15 0 0 0 0 0 3 22 25 25 25 24 23
1 0 1 0 1 3 5 25 48 35 6 0 0 0 0 0
0 0 0 1 0 0 0 0 0 2 14 20 20 21 22 22
22 22 23 24 28 51 87 99 99 96 98 100 96 92 92 90
91 95 94 92 90 89 97 103 105 110 111 107 111 116 114 114
106 93 87 91 92 96 104 114 114 109 74 60 41 40 37 31
27 21 22 13 12 16 16 16 13 15 19 21 20 20 22 23
0 0 0 0 0 0 0 0 0 0 0 0 0 0 0 0
0 0 2 2 0 0 0 0 0 0 11 19 20 20 21 22
0 0 0 0 0 7 15 40 43 13 0 0 0 0 0 0
0 0 0 0 0 0 0 0 0 0 8 21 20 21 22 21
22 22 23 23 25 37 80 102 103 96 98 96 94 87 86 82
83 87 80 78 76 80 88 98 107 111 114 111 111 115 117 116
110 97 88 93 92 96 103 111 115 97 69 58 39 43 38 32
25 21 23 14 18 35 34 28 23 21 19 20 19 20 19 11
0 0 0 0 0 0 0 0 0 0 0 0 0 0 0 0
0 0 0 0 0 0 0 0 0 0 1 9 13 12 14 21
0 0 0 0 0 5 26 40 22 1 0 0 0 0 0 0
0 0 0 0 0 0 0 0 0 0 7 20 21 20 21 21
22 22 22 23 23 30 70 92 97 90 94 94 94 82 73 76
80 77 69 59 58 69 85 99 110 112 112 112 113 115 119 119
113 101 91 95 96 95 103 111 110 80 83 51 43 42 37 33
25 22 24 22 16 33 41 42 41 38 33 29 20 12 10 2
0 0 0 0 0 0 0 0 0 0 0 0 0 0 0 0
0 0 0 0 0 0 0 0 0 0 5 7 15 16 17 20
0 0 3 2 0 5 36 34 5 0 1 3 0 0 0 0
0 0 0 0 0 0 0 0 0 3 16 22 22 21 21 20
22 21 22 22 22 24 56 82 92 84 86 83 83 74 69 70
66 59 51 43 42 60 79 97 106 109 110 108 114 118 121 121
114 104 93 94 99 97 100 110 96 79 89 43 41 40 36 31
24 23 24 20 26 37 43 42 44 39 41 42 43 34 17 3
0 0 0 0 0 0 0 0 0 0 0 0 0 0 0 0
0 0 0 0 0 0 0 0 0 0 9 14 16 22 22 23
1 3 6 6 0 9 40 26 4 11 18 17 2 0 0 0
0 0 0 0 0 0 0 0 0 9 18 18 18 18 20 21
22 21 22 21 22 23 35 70 80 73 74 69 62 61 62 58
51 40 28 16 24 54 73 95 105 107 109 111 113 119 122 120
117 108 96 94 102 101 99 103 82 96 71 43 42 38 35 30
25 23 22 22 27 40 39 40 45 42 35 39 44 38 39 38
28 17 5 0 0 0 0 0 0 0 0 0 0 0 0 0
0 0 0 0 0 0 0 0 0 0 4 8 8 22 23 23
12 10 8 5 0 15 36 14 9 24 25 23 7 0 4 8
1 0 0 0 0 0 0 0 0 1 3 4 4 8 19 21
21 21 21 21 21 22 23 38 57 57 55 44 39 39 36 32
25 17 19 4 31 76 78 86 98 108 111 112 113 118 123 123
120 110 97 99 105 104 97 80 81 92 46 42 38 37 35 29
24 22 20 22 37 39 39 40 44 41 39 40 40 40 46 43
48 46 41 34 22 11 3 0 0 0 0 0 0 0 0 0
0 0 0 0 0 0 0 0 0 0 0 0 1 17 23 23
15 8 3 1 0 22 34 5 5 26 26 23 6 2 18 22
13 2 0 0 0 0 0 0 0 0 0 0 0 0 14 20
20 20 20 21 21 19 14 17 30 33 29 21 16 12 9 5
6 15 59 28 55 94 83 79 93 104 110 110 109 114 123 124
121 114 100 102 109 108 88 67 104 74 43 47 40 35 34 25
23 22 17 23 40 41 44 44 40 34 35 40 40 42 42 44
42 43 41 42 43 42 39 29 21 8 0 0 0 0 0 0
0 0 0 0 0 0 0 0 0 0 0 0 0 8 22 22
13 2 0 0 0 26 35 5 7 23 15 18 10 14 27 25
17 5 0 1 0 0 0 0 0 0 0 0 0 0 12 19
19 20 23 20 20 16 16 18 26 31 26 16 2 0 0 2
23 33 82 78 58 96 98 90 84 93 102 106 108 111 121 125
125 116 103 104 111 103 68 69 113 79 10 16 43 37 31 27
24 25 14 24 40 46 46 41 37 32 36 41 42 44 44 43
41 43 40 43 43 42 42 42 43 43 33 11 0 0 0 0
0 0 0 0 0 0 0 0 0 0 0 0 0 3 17 18
10 1 0 0 0 29 37 6 5 11 0 10 19 26 31 22
16 9 0 0 0 0 0 0 0 0 0 0 0 0 12 22
26 25 25 26 24 14 15 18 28 31 30 23 1 1 0 5
34 40 71 101 72 90 106 104 96 87 89 97 102 108 119 126
126 118 105 105 112 92 65 97 111 51 3 0 20 40 29 27
25 27 14 22 35 39 40 38 33 33 39 40 43 42 42 41
40 42 42 43 42 39 40 41 41 41 42 42 25 3 0 0
0 0 0 0 0 0 0 0 0 0 0 0 0 0 13 16
10 4 1 0 0 31 41 13 8 5 0 14 25 34 28 10
10 11 0 0 0 0 0 0 0 0 0 0 9 19 33 36
35 31 34 33 27 11 12 27 35 34 36 28 3 6 7 7
33 41 59 108 94 76 112 117 116 109 100 93 92 101 117 127
127 120 107 103 101 82 85 117 84 22 0 0 5 42 30 26
26 30 17 26 35 40 41 39 32 33 40 40 42 40 39 40
41 40 41 41 41 39 42 40 40 41 41 42 43 38 7 0
0 0 0 0 0 0 0 0 0 0 0 0 0 0 12 16
14 10 9 0 0 27 42 24 12 2 1 16 30 34 17 0
8 11 0 0 0 0 0 0 0 1 10 28 35 36 36 34
35 37 37 37 31 19 25 39 39 37 35 28 5 12 22 19
31 42 55 115 113 81 97 121 125 123 117 106 93 93 110 126
128 122 106 93 86 92 112 112 59 13 0 0 4 44 31 26
29 36 21 32 37 40 41 39 34 34 42 43 43 42 39 40
41 40 43 41 41 39 40 40 40 40 42 42 42 36 27 2
0 0 0 0 0 0 0 0 0 0 0 0 0 1 10 15
16 13 11 0 0 22 36 30 11 0 1 18 30 21 5 0
6 8 0 0 0 0 0 0 11 28 37 38 36 36 34 34
36 36 36 35 30 20 27 39 38 34 34 28 7 11 24 22
34 41 41 116 120 102 80 115 126 127 126 117 100 90 99 122
127 122 103 78 77 106 121 67 28 2 0 0 5 44 32 27
34 42 25 35 38 41 40 37 35 31 39 41 41 41 38 39
41 41 39 39 41 41 40 40 40 41 43 40 38 28 24 21
0 0 0 0 0 0 0 0 0 0 0 0 0 2 7 14
18 13 13 1 0 19 36 34 12 0 1 12 13 3 0 0
0 0 0 0 0 0 1 20 39 38 35 35 34 35 32 33
35 35 36 35 30 20 26 38 37 30 31 29 7 13 25 23
33 32 29 119 116 106 94 92 125 128 128 124 109 96 92 116
127 118 92 53 87 121 78 24 16 2 0 2 9 45 37 34
39 44 27 35 38 40 39 37 36 32 37 41 41 40 40 41
41 41 40 40 42 41 40 39 40 41 39 40 38 25 25 32
8 0 0 0 0 0 0 0 0 0 0 0 0 3 8 15
20 15 11 1 0 6 16 12 3 0 0 0 0 0 0 0
0 0 0 0 0 1 25 40 37 36 35 35 35 35 33 33
34 35 36 34 30 21 27 35 35 28 29 29 9 14 24 21
29 32 22 120 118 102 108 84 117 127 129 127 117 105 93 106
123 96 58 52 111 90 30 16 17 8 4 12 11 39 43 39
42 47 31 38 39 40 40 40 39 35 34 41 39 40 40 42
40 40 39 42 42 41 41 41 41 41 42 39 37 21 26 32
19 1 0 0 0 0 0 0 0 0 0 0 0 3 7 17
4 1 0 0 0 0 0 0 0 0 0 0 0 0 0 0
0 0 0 0 0 18 35 36 34 36 36 37 37 38 34 34
35 37 37 35 31 24 29 33 32 29 30 29 14 17 22 19
25 30 14 109 125 103 108 98 95 124 129 129 124 110 99 91
82 51 45 49 49 29 19 17 17 14 30 20 10 21 50 46
38 44 36 38 40 39 40 40 39 37 33 40 40 39 38 41
42 42 44 42 42 41 41 43 42 41 40 39 35 20 27 31
23 12 0 0 0 0 0 0 0 0 0 0 0 3 6 17
0 0 0 0 0 0 0 0 1 0 0 0 0 1 0 0
2 0 0 0 9 33 29 30 35 33 35 38 40 37 34 36
39 39 37 34 34 29 32 31 29 26 30 30 22 27 24 23
23 29 17 71 129 123 115 100 66 100 127 128 126 113 104 68
39 22 13 24 24 23 21 19 19 28 37 29 16 17 37 51
48 47 43 38 39 40 40 40 40 38 34 37 39 40 40 40
40 42 42 40 40 41 41 41 42 39 40 39 35 20 29 33
24 24 0 0 0 0 0 0 0 0 0 0 0 1 4 14
0 0 0 0 0 0 2 13 14 8 5 10 11 10 2 5
5 0 0 1 26 35 28 26 38 31 36 39 39 35 36 39
42 41 37 34 35 35 33 30 30 25 31 30 28 34 29 24
22 29 19 14 95 123 124 105 55 53 89 119 117 114 94 37
26 27 34 37 36 34 28 30 34 34 37 32 32 26 24 35
47 49 51 45 30 42 42 44 43 43 36 36 41 41 41 40
41 42 39 41 40 41 42 40 40 40 42 42 37 21 32 32
28 32 12 0 0 0 0 0 0 0 0 0 0 1 6 13
0 0 0 0 0 0 2 16 16 21 23 19 21 19 13 14
4 0 0 13 33 35 30 26 37 32 35 39 38 38 39 42
43 44 35 34 36 39 38 31 27 23 33 31 32 35 31 32
26 31 16 5 27 58 85 72 27 31 46 69 84 106 74 32
30 36 38 39 36 31 28 37 35 35 37 33 37 36 35 32
30 29 30 30 33 45 43 44 44 44 40 36 38 41 42 42
39 40 42 43 43 41 43 40 40 40 42 42 35 21 33 32
29 33 22 24 0 0 0 0 0 0 0 0 0 1 10 13
0 0 0 0 0 0 0 7 17 28 30 25 28 27 24 14
0 0 4 26 33 35 28 27 38 33 31 35 38 40 42 43
43 40 33 33 40 43 41 33 27 22 34 34 36 34 34 37
39 41 13 19 22 24 25 21 5 7 21 33 49 72 53 33
35 38 41 42 37 27 29 36 35 35 37 37 37 38 39 38
39 38 37 40 38 39 40 41 42 42 40 37 37 41 42 45
43 41 44 43 43 42 40 39 39 42 40 39 34 20 33 33
31 39 32 39 16 0 0 0 0 0 0 0 0 2 12 15
0 0 0 0 0 0 0 1 12 19 27 32 30 30 19 3
0 1 26 31 36 35 29 29 39 33 31 35 38 41 42 42
43 39 33 33 40 42 38 30 30 23 35 45 42 42 42 44
43 33 33 34 34 31 26 32 26 25 28 28 30 43 42 33
39 44 44 43 36 28 35 38 37 38 39 38 40 41 41 41
40 39 39 40 40 39 41 41 44 42 41 39 36 39 43 44
42 42 42 42 44 42 41 39 39 41 43 42 33 19 34 33
36 44 36 52 77 3 0 0 0 0 0 0 0 4 13 14
0 0 0 0 0 0 0 0 3 10 20 25 22 15 2 0
0 15 37 33 36 36 29 27 38 35 34 37 39 42 44 43
41 35 32 35 41 43 38 32 31 24 35 42 36 33 31 33
34 37 39 39 40 39 31 32 37 34 36 30 29 72 57 39
43 47 49 41 34 34 40 39 38 37 39 39 39 41 41 42
41 43 41 41 41 43 43 42 41 41 41 40 37 37 38 43
45 42 41 42 43 40 38 38 39 42 44 44 33 21 33 36
41 41 42 85 113 41 0 0 0 0 0 0 0 3 11 10
0 0 0 0 0 0 0 0 0 1 7 7 7 1 0 3
11 37 40 35 35 38 30 26 38 36 36 37 40 42 42 41
40 30 29 37 39 42 38 33 32 28 38 39 37 35 37 38
40 40 44 42 42 42 37 31 39 36 39 30 40 122 123 105
89 86 92 62 36 39 44 47 70 95 106 103 97 90 78 63
50 41 41 40 42 42 44 43 42 43 43 42 39 36 36 40
41 38 40 43 43 44 42 40 41 40 43 42 31 21 36 38
39 44 56 114 118 86 2 0 0 0 0 0 0 5 13 11
0 0 0 0 0 0 0 0 0 2 4 4 2 0 2 7
30 42 41 35 33 36 30 27 41 39 38 39 42 43 42 42
40 29 31 40 42 46 39 32 36 31 38 42 44 40 41 40
43 44 43 43 42 43 42 33 38 39 38 33 64 131 130 129
130 129 128 125 109 98 105 122 127 127 127 127 127 127 127 127
125 110 87 66 52 50 45 43 42 43 41 42 40 37 38 39
42 41 40 41 40 40 40 39 39 43 51 50 32 21 36 39
39 48 99 126 118 107 35 0 0 0 0 0 0 4 14 12
0 0 0 0 0 0 0 0 2 7 6 6 6 13 8 4
70 47 41 41 35 35 31 28 42 39 40 39 43 43 42 42
39 31 34 42 43 44 41 34 38 33 39 45 45 43 43 43
44 44 44 44 42 43 43 37 36 44 39 37 95 130 128 129
129 128 129 128 128 128 128 128 127 127 127 128 128 128 127 127
126 126 127 127 125 123 120 118 112 100 82 60 40 38 40 40
40 40 41 42 47 56 67 78 96 113 123 123 81 20 39 37
44 85 126 125 115 108 81 1 0 0 0 0 0 3 12 8
1 0 0 0 0 0 0 0 2 7 6 6 15 31 20 25
112 77 40 38 37 35 30 28 39 40 40 41 43 44 43 44
40 31 38 45 44 46 42 36 39 37 39 41 50 54 47 42
44 45 44 45 45 47 52 56 62 109 104 67 118 130 129 130
130 129 129 128 128 127 127 127 128 127 127 127 128 127 127 128
128 127 127 127 127 127 127 127 126 125 126 125 110 79 60 59
65 83 98 112 121 125 125 125 125 124 125 125 93 20 35 43
68 125 125 124 116 112 112 29 0 0 0 0 0 2 11 7
1 1 0 0 0 0 0 0 3 9 8 9 22 34 24 70
127 122 55 37 39 37 32 28 39 44 41 41 44 44 43 43
38 33 40 45 44 47 42 38 42 43 42 78 124 128 123 107
98 98 102 107 112 120 125 129 130 130 129 121 128 129 128 129
129 129 128 128 128 128 128 127 128 127 128 127 127 127 127 127
127 126 127 126 126 126 126 126 126 126 127 126 126 126 126 125
125 125 125 125 125 124 124 124 125 124 125 124 95 23 39 58
117 125 124 124 119 119 117 83 1 0 0 0 0 0 1 1
0 1 3 1 0 0 0 0 2 11 11 19 34 43 46 113
130 130 99 41 37 39 31 45 112 113 102 90 88 85 80 69
51 37 43 50 66 81 67 43 43 45 62 127 131 130 130 130
130 130 130 130 130 130 128 129 130 128 128 128 129 128 128 129
128 127 128 128 128 128 127 126 127 127 127 127 127 127 127 127
127 127 127 126 126 126 126 126 126 125 125 126 126 125 125 124
125 125 124 124 125 125 125 124 124 124 124 123 95 22 46 102
125 124 124 124 122 122 119 111 20 0 0 0 0 0 0 0
0 0 3 2 0 0 0 0 0 5 13 24 38 45 80 130
131 131 129 67 41 38 32 61 132 133 131 131 131 131 131 131
124 107 102 116 130 131 130 116 92 88 116 130 130 130 130 130
130 129 130 129 129 128 129 128 128 128 128 129 128 128 128 125
128 128 127 128 128 127 127 127 127 127 127 127 127 127 127 126
125 126 125 125 125 125 124 125 125 125 125 124 125 125 125 124
124 124 124 123 123 123 124 123 123 123 123 123 96 29 80 124
123 123 123 122 123 122 120 110 70 0 0 0 0 0 0 0
0 0 0 0 0 0 0 0 0 0 6 23 35 50 112 133
131 131 131 116 47 37 31 61 132 131 131 132 131 131 131 131
130 131 132 131 130 131 131 130 130 130 130 128 129 130 130 130
130 130 130 130 129 129 129 128 129 128 128 128 127 128 126 105
128 128 127 127 127 127 127 127 127 127 126 127 127 126 126 125
125 125 125 125 124 125 124 124 124 125 125 124 124 124 124 124
124 124 124 124 124 123 123 123 123 123 123 123 98 46 118 123
123 123 122 122 122 122 121 109 103 12 0 0 0 0 0 0
3 0 0 0 0 0 0 0 0 0 0 11 24 63 128 132
131 131 131 131 98 43 31 61 132 132 131 131 131 131 131 131
131 131 130 130 130 130 130 130 130 130 131 130 130 130 130 129
129 129 129 128 128 128 128 128 128 128 128 128 127 124 114 110
127 128 127 127 127 127 127 126 127 126 126 126 127 126 126 125
125 125 125 125 125 124 124 124 124 124 125 124 124 124 124 124
124 124 123 124 123 123 123 123 123 123 123 123 119 111 123 123
123 122 122 122 122 122 121 110 110 55 0 0 0 0 0 0
5 2 0 0 0 0 0 0 0 4 4 15 28 93 132 131
131 131 131 131 129 74 38 59 131 130 130 131 131 130 130 130
130 130 130 130 130 130 129 130 130 129 129 128 129 129 129 128
129 129 129 128 128 128 128 128 127 127 127 127 125 100 106 105
123 127 127 127 127 127 126 126 126 126 126 126 126 125 125 124
124 125 125 125 124 124 123 124 124 124 124 124 124 124 123 124
124 123 124 123 123 123 123 123 123 123 123 122 121 122 122 122
122 122 122 121 121 121 121 111 111 96 5 0 0 0 0 0
3 0 0 0 0 0 0 0 0 8 11 26 52 123 131 131
130 130 130 130 130 122 58 90 130 130 130 130 130 130 130 129
129 129 129 129 129 129 129 128 128 129 129 128 128 128 128 128
128 127 127 127 128 127 127 127 127 126 127 128 125 98 88 106
124 127 126 127 126 125 125 126 126 125 126 126 125 124 124 124
124 124 125 124 123 123 123 123 123 123 124 124 124 124 123 123
123 123 123 123 122 122 123 122 122 122 122 122 120 120 122 122
122 121 121 121 121 121 119 112 113 112 39 0 0 1 9 2
1 0 0 0 0 0 0 0 0 3 10 28 85 130 130 129
129 129 130 129 129 129 124 127 128 129 129 128 129 129 129 128
128 128 128 128 128 128 128 128 128 128 128 127 127 127 127 128
128 128 127 128 127 128 127 127 127 126 126 126 126 117 72 101
126 126 126 125 125 125 125 126 125 125 125 124 124 124 124 124
123 124 124 124 124 123 123 123 123 123 123 123 123 123 123 122
122 123 122 123 123 122 122 122 122 122 121 121 117 119 121 122
121 121 121 121 120 121 118 116 117 114 87 1 0 0 8 3
0 0 0 0 0 0 0 0 0 3 11 42 120 131 131 130
129 130 130 130 130 130 129 128 128 129 129 129 129 129 129 128
129 128 129 128 128 128 128 128 128 128 128 128 127 128 127 127
127 127 127 127 126 127 127 126 125 126 126 126 126 126 121 125
126 126 126 126 126 125 125 125 125 124 125 124 125 124 125 124
124 124 124 124 124 124 124 124 123 123 123 123 124 123 123 123
123 123 123 123 123 122 122 122 122 122 121 121 112 118 122 121
121 121 121 122 121 121 118 120 120 115 110 25 0 0 0 0
0 0 0 0 0 0 0 0 0 2 12 78 131 130 130 130
130 130 130 130 129 130 130 128 129 129 130 129 129 129 129 128
128 128 129 128 128 129 128 128 128 128 127 127 128 127 128 128
128 127 127 127 127 127 127 127 127 126 125 126 127 126 126 125
126 125 126 126 125 125 125 125 125 125 125 125 125 124 124 123
123 123 124 124 124 124 124 123 123 124 123 123 123 123 123 123
123 123 123 122 123 123 123 123 123 122 122 122 114 121 122 122
122 121 121 121 121 120 120 121 120 118 114 68 0 0 0 0
