P2
128 120
146
0 7 40 39 31 31 31 31 31 30 30 30 30 30 29 29
29 29 29 28 28 27 27 27 27 26 26 26 25 25 25 25
24 24 24 24 23 23 24 23 23 22 22 22 21 21 20 20
20 20 21 24 24 24 23 18 18 19 18 24 24 23 23 22
22 22 21 20 19 17 20 20 22 22 22 23 23 23 23 23
24 23 23 24 24 24 25 25 26 25 27 27 27 27 28 28
28 29 29 28 29 30 30 30 31 31 32 32 32 32 33 33
33 33 33 33 33 33 33 33 34 33 34 34 34 34 35 35
0 8 41 39 32 31 31 31 31 30 31 30 30 30 29 29
29 29 29 29 28 27 28 27 27 26 26 26 26 26 25 25
25 25 25 25 24 24 24 23 23 23 22 22 22 21 21 21
21 21 23 25 25 25 24 18 18 21 19 24 24 24 23 23
23 23 21 21 20 18 21 22 23 23 23 23 24 23 23 24
24 24 25 25 25 26 26 26 27 27 27 27 28 28 28 28
29 29 30 30 30 30 31 32 31 32 32 33 32 32 32 33
32 33 32 32 33 34 34 34 34 34 34 34 34 34 34 34
0 9 41 38 31 31 31 31 31 31 31 31 31 30 30 30
29 29 29 29 28 28 28 27 28 27 27 26 26 26 26 26
25 25 25 25 25 24 24 24 24 23 23 23 23 22 22 21
22 21 23 25 25 25 24 18 19 22 19 25 25 25 24 23
24 23 22 22 21 19 22 22 23 23 24 24 25 24 25 25
25 25 26 26 26 26 27 26 27 27 27 28 28 29 29 30
30 29 30 31 31 31 31 31 31 31 31 32 33 31 33 33
34 33 34 33 34 35 34 34 34 34 35 35 36 35 35 35
0 10 42 38 32 32 32 31 32 31 31 31 31 30 30 30
30 29 30 30 29 29 29 28 28 28 27 27 27 27 26 27
26 26 26 26 26 25 25 25 25 24 24 23 23 23 23 22
22 23 24 26 26 26 26 20 20 24 19 25 25 25 25 25
25 24 23 23 22 19 23 23 25 24 24 25 26 25 26 26
26 26 26 26 27 27 28 28 28 29 29 30 30 29 30 30
31 30 31 31 32 32 32 32 33 33 33 33 34 34 35 34
34 35 36 35 35 35 35 35 35 35 36 36 36 36 35 36
0 11 41 38 32 32 32 32 32 31 32 32 31 31 31 31
30 30 30 30 29 29 29 29 28 28 27 27 28 27 28 27
27 27 27 25 26 26 26 25 25 25 25 25 24 24 23 23
23 24 24 27 27 27 26 20 20 24 20 26 26 26 26 25
24 24 24 24 22 21 23 23 25 25 25 25 27 26 26 26
27 26 27 27 27 27 27 28 28 29 30 30 30 30 30 30
30 31 31 31 32 32 33 34 33 33 33 34 34 34 34 35
35 35 36 36 35 35 35 35 36 36 36 36 36 36 36 36
6 20 43 37 32 32 32 32 32 32 32 31 31 31 30 31
31 30 31 30 30 30 30 29 29 28 28 28 27 27 27 27
27 27 27 27 26 26 26 26 25 25 25 24 24 24 24 24
23 24 25 27 28 28 26 20 21 26 20 26 27 26 26 25
24 24 24 24 24 20 24 24 26 26 26 26 27 26 26 27
26 27 27 27 28 28 29 29 29 29 29 29 29 29 29 30
31 31 32 33 33 33 34 34 34 34 34 35 35 34 34 35
35 35 35 36 34 35 35 35 35 35 36 36 36 36 36 35
21 27 40 36 32 32 32 32 32 31 31 31 31 31 31 30
30 30 30 29 29 29 29 28 28 28 28 28 28 28 27 27
27 27 27 27 27 26 26 26 26 25 25 24 24 24 24 24
24 24 25 27 27 27 26 20 20 26 21 25 27 26 26 26
24 24 25 24 23 20 23 24 25 25 26 26 27 27 27 27
26 27 27 28 27 28 28 28 28 29 29 29 29 30 30 31
31 32 32 33 33 33 33 33 33 33 33 33 34 34 34 34
35 34 35 36 34 35 35 35 35 35 35 36 35 35 35 36
33 34 36 34 32 32 32 32 31 31 31 31 30 30 30 30
30 30 29 30 30 30 29 29 29 29 28 28 28 27 27 26
27 27 27 26 26 26 26 26 25 25 25 25 24 24 24 24
24 24 25 27 28 27 26 21 20 27 22 25 27 26 26 26
25 24 24 24 24 21 24 24 26 26 26 26 27 26 27 26
26 26 27 27 29 28 28 29 29 29 30 30 30 31 31 31
31 32 32 33 33 33 33 34 34 34 34 34 34 34 34 35
35 34 35 35 34 34 35 35 35 35 35 35 36 36 36 35
25 28 31 32 32 33 32 31 32 32 32 31 31 31 31 30
30 29 30 30 29 29 29 28 28 28 28 28 28 28 28 28
27 27 27 27 27 26 26 26 26 25 25 25 25 25 24 24
24 25 26 28 28 28 27 21 21 27 23 25 28 27 27 26
25 25 26 25 24 21 24 24 26 26 26 26 26 26 27 27
27 27 28 28 29 28 29 28 29 29 30 30 31 31 31 31
32 32 32 33 33 33 33 34 34 34 33 34 33 34 34 35
35 34 35 36 35 35 35 35 35 35 35 35 35 36 36 36
13 16 19 22 25 28 30 32 32 32 31 31 31 30 30 30
30 30 30 29 29 30 29 29 29 29 28 28 27 27 27 27
27 27 27 27 26 26 26 26 27 26 26 26 25 25 24 24
24 25 25 28 28 28 27 21 21 28 24 24 28 28 27 26
25 25 25 25 24 21 24 24 26 26 26 27 27 27 27 27
27 28 28 28 29 29 29 29 29 29 29 30 31 31 31 32
32 32 33 33 33 33 33 33 34 34 34 34 34 34 34 34
35 35 34 35 34 35 35 35 35 35 35 36 36 36 36 36
11 12 12 12 13 14 16 20 23 26 29 29 31 30 30 31
30 30 29 30 30 29 28 28 28 29 28 29 29 28 28 27
28 27 28 28 27 27 27 26 26 26 26 25 25 24 25 24
25 26 26 29 29 28 28 21 21 28 26 23 28 28 28 27
26 26 26 25 25 21 25 25 26 27 26 27 27 27 28 28
28 28 29 29 30 29 29 30 29 29 30 31 31 31 32 32
32 32 33 34 33 33 33 34 34 34 33 33 34 34 34 34
35 35 36 36 35 35 36 35 35 35 35 35 34 34 35 35
17 15 12 11 11 11 11 11 12 11 11 17 28 30 30 30
30 30 30 29 30 29 29 29 29 29 28 28 28 28 27 27
27 27 27 27 27 26 27 26 26 25 26 26 25 25 24 25
25 25 26 28 29 28 27 21 21 28 27 23 29 28 28 27
25 25 25 26 24 22 26 25 27 27 27 27 27 28 28 27
28 28 29 29 29 28 29 30 30 30 30 31 31 31 32 32
32 32 32 33 33 33 33 34 34 34 34 34 34 35 34 34
35 34 34 33 32 33 34 33 34 34 35 36 36 35 35 36
36 30 16 18 15 12 11 11 12 8 7 12 26 30 30 30
30 30 30 29 29 29 29 29 28 28 28 28 29 28 28 27
28 27 27 27 27 27 27 26 26 25 26 25 26 25 25 25
25 26 27 28 28 28 27 21 21 29 28 22 28 28 28 27
27 27 27 26 26 22 26 25 27 27 27 27 28 28 28 28
28 29 29 29 30 30 30 30 29 31 30 31 31 31 32 32
33 33 33 34 33 33 34 33 34 34 34 33 33 33 32 33
33 34 34 35 34 34 35 35 34 35 35 35 35 34 35 35
43 35 24 29 32 28 22 19 16 12 9 13 26 31 30 30
30 29 29 31 31 30 30 30 29 29 29 29 29 28 28 28
28 27 29 32 32 29 28 27 27 26 27 26 26 25 25 26
25 26 27 28 29 28 28 22 22 29 30 22 28 29 29 28
27 27 26 26 26 23 26 25 28 28 28 28 28 29 28 29
29 29 29 30 30 30 30 30 31 30 31 31 32 32 32 33
33 33 33 33 33 33 34 33 34 33 33 33 33 33 34 35
35 35 35 34 34 35 34 35 35 35 35 36 36 35 36 35
43 38 30 34 38 35 35 39 35 25 9 12 26 31 31 31
31 30 36 37 35 34 31 30 29 29 29 28 29 28 28 28
28 28 34 40 37 35 33 30 28 26 26 26 26 25 25 25
26 26 27 29 29 29 29 22 21 29 31 22 27 29 28 28
28 28 27 26 26 23 26 26 28 27 28 28 28 28 28 28
28 29 29 30 31 30 31 30 30 30 31 31 31 32 31 31
32 32 32 32 32 32 33 34 33 33 34 35 34 33 34 34
35 34 35 35 34 35 35 35 35 35 35 35 35 34 34 35
24 35 33 35 38 38 40 43 43 33 11 14 28 31 31 31
30 31 39 41 39 36 35 34 34 32 31 29 29 28 28 28
28 28 34 38 37 36 35 35 31 26 27 26 26 26 26 25
26 26 27 29 29 29 28 22 22 28 31 22 27 29 29 28
28 28 26 26 27 24 26 26 28 28 28 28 29 29 29 29
29 30 30 30 30 30 30 30 30 31 31 32 31 32 31 32
32 32 32 32 33 33 33 33 32 33 33 34 34 34 34 34
34 34 35 35 34 34 35 35 35 35 36 35 36 35 35 35
5 34 34 37 38 40 42 43 44 36 13 15 30 33 32 31
31 32 39 40 39 37 37 39 39 35 35 34 32 31 29 28
29 29 32 31 31 33 35 35 32 27 27 26 26 26 26 26
26 26 27 30 30 29 28 21 20 21 30 23 26 30 30 29
28 28 27 27 27 25 27 27 28 28 29 28 29 29 29 29
29 29 30 29 30 30 30 30 31 31 31 32 32 31 32 32
32 32 32 32 33 33 32 33 33 33 33 35 34 34 34 34
34 34 34 35 35 34 35 35 35 35 35 35 35 34 35 36
7 33 28 30 34 38 40 41 42 35 15 15 32 35 32 33
34 35 32 20 27 34 37 40 41 33 23 27 32 33 33 33
33 30 28 18 14 17 20 24 29 28 27 27 27 27 26 26
26 27 27 30 30 29 24 16 18 17 29 24 25 30 30 29
28 29 27 27 28 24 27 27 29 29 29 29 29 29 29 29
30 30 30 30 30 30 30 30 30 31 32 32 32 32 32 32
33 33 33 33 33 33 33 33 32 33 34 35 34 34 34 34
34 35 34 34 35 35 35 35 36 35 34 35 36 36 35 36
11 32 10 6 13 21 29 32 35 34 14 15 31 34 30 30
35 39 26 0 2 14 23 25 30 27 1 1 5 12 17 23
29 31 29 15 6 8 6 2 21 28 27 27 27 27 26 26
26 26 28 30 31 31 27 21 21 26 32 25 24 29 29 28
28 29 28 28 27 25 27 27 28 29 29 29 29 29 29 30
29 30 30 31 31 31 31 31 31 31 31 32 32 32 32 32
32 33 33 32 32 32 33 33 34 33 33 35 35 34 34 34
34 34 34 35 35 35 35 34 35 35 35 34 36 36 36 36
7 32 5 0 0 0 2 4 10 31 16 13 21 27 31 33
38 41 28 0 0 4 9 11 17 25 1 0 0 0 0 2
5 16 28 13 0 1 2 0 19 29 27 27 27 27 27 26
27 27 28 31 31 30 29 23 23 29 32 26 23 30 30 28
29 29 29 28 27 25 27 26 29 29 29 30 29 30 30 30
30 30 30 30 30 30 31 30 31 31 31 32 33 32 33 33
33 33 33 34 33 33 33 33 34 33 33 35 35 34 34 34
34 34 34 35 35 35 35 34 36 35 35 36 36 36 36 36
6 32 5 0 0 0 0 0 3 29 15 9 1 2 6 13
23 30 25 0 0 1 3 5 13 26 3 0 0 0 0 0
0 7 28 8 0 0 0 0 19 30 27 27 27 27 26 27
27 27 28 30 30 29 20 14 10 16 21 19 19 27 29 29
28 28 28 28 28 25 27 27 29 29 30 30 30 30 30 30
30 30 30 31 31 31 32 31 31 31 32 33 33 32 33 32
33 33 33 33 33 34 34 34 34 34 34 35 35 34 34 34
34 35 34 34 34 35 35 35 35 36 36 36 36 36 36 36
7 31 4 0 0 3 0 0 3 30 15 9 0 0 0 0
0 2 13 1 0 0 0 0 10 24 1 0 0 0 0 0
0 6 26 4 0 0 0 0 21 31 27 28 27 27 27 26
25 22 19 10 3 2 1 1 0 0 0 0 1 4 6 6
7 13 24 27 27 25 28 28 30 29 30 30 30 31 30 31
30 30 30 31 31 31 31 32 32 32 32 32 34 33 33 33
33 34 34 34 34 34 34 33 34 34 34 35 35 34 34 34
35 34 35 36 35 35 36 35 36 36 36 36 35 34 35 35
8 31 4 0 0 9 2 0 2 30 15 8 0 0 0 0
0 0 8 1 0 0 0 0 10 25 1 0 0 1 5 0
0 5 26 3 0 0 0 0 21 32 28 27 27 24 19 5
2 7 7 3 4 8 12 16 14 11 11 9 9 16 24 23
16 9 5 9 21 25 28 28 30 30 30 30 31 32 31 30
31 30 31 31 31 32 32 32 32 33 33 33 34 33 33 33
33 34 34 34 34 34 34 34 34 34 34 35 35 35 35 34
34 35 35 35 35 36 37 36 36 35 36 36 36 36 36 36
7 31 4 0 0 4 2 0 3 29 15 8 0 0 0 0
0 0 6 0 0 0 0 0 10 28 2 0 0 4 11 7
2 4 25 3 0 0 0 0 18 31 27 20 12 4 4 7
9 18 23 23 19 18 17 20 22 16 15 16 13 15 22 26
26 29 25 12 7 13 25 27 29 30 30 30 30 30 30 30
30 30 31 31 31 32 31 32 32 32 33 33 33 33 33 33
34 34 34 34 34 34 35 34 34 34 34 34 34 35 35 35
36 35 35 36 36 37 37 37 36 36 36 35 36 36 36 36
7 28 2 0 0 0 0 0 3 29 14 8 0 0 0 3
0 0 5 0 0 0 0 0 10 29 2 0 0 5 11 11
7 4 25 3 0 0 0 0 16 24 8 3 6 9 6 11
12 11 10 12 13 10 16 18 21 25 22 18 19 19 14 4
4 9 21 23 23 9 13 25 29 30 30 30 31 31 31 30
31 31 31 31 31 31 32 32 33 33 33 33 34 33 33 34
34 34 35 34 34 34 34 34 34 34 35 35 36 36 36 36
35 35 35 36 36 36 36 36 36 36 36 36 36 37 37 37
10 29 2 0 0 0 0 0 4 29 14 9 0 4 0 1
0 0 5 1 0 0 0 0 12 30 3 0 0 3 9 10
8 4 26 10 2 0 0 0 4 3 3 5 9 22 19 7
2 2 3 5 5 3 7 11 14 13 16 16 16 21 26 24
15 4 1 4 14 17 14 19 27 30 31 30 30 31 31 31
31 31 31 32 32 32 33 33 33 33 33 33 34 33 34 34
34 35 35 35 35 35 35 34 35 35 35 35 35 35 35 35
35 35 34 36 37 36 36 37 37 37 37 37 38 38 37 37
28 33 14 5 6 4 2 0 8 29 14 10 2 1 0 0
0 0 8 3 0 0 0 0 15 34 11 3 3 0 1 6
6 3 29 31 25 17 10 7 6 7 14 28 28 10 2 2
2 4 6 10 9 10 9 10 9 15 20 24 33 33 34 34
23 19 9 1 0 5 12 16 24 27 31 31 31 31 31 31
31 32 32 32 32 32 32 33 32 33 33 33 33 33 33 34
34 34 35 35 35 35 35 35 35 35 35 36 35 35 35 36
36 35 35 36 37 37 37 37 38 38 37 38 38 37 36 37
36 45 42 25 27 29 29 25 27 28 13 10 1 0 0 0
0 0 17 25 16 13 8 3 12 39 30 24 21 17 11 9
8 7 32 39 33 21 8 5 5 15 21 14 4 2 1 0
1 6 10 10 14 19 19 14 16 18 22 31 38 30 23 21
20 21 22 16 5 4 3 5 15 19 30 30 30 30 31 32
31 32 32 32 33 32 33 33 33 33 33 33 33 33 34 34
35 35 35 35 35 35 35 36 35 35 36 36 35 35 36 36
35 35 36 36 37 37 36 37 37 37 35 34 33 33 33 34
38 52 43 27 34 39 41 41 40 30 13 10 0 0 0 0
0 0 23 44 37 36 35 33 32 42 24 17 20 21 22 22
23 26 35 24 10 2 1 4 8 10 14 15 7 3 2 5
7 8 8 8 12 13 17 22 15 13 21 23 17 18 16 13
15 14 15 16 17 8 9 5 11 16 21 29 31 31 33 32
32 33 32 32 33 32 32 33 33 33 33 33 33 34 34 35
35 35 36 36 36 35 35 35 35 35 36 35 35 35 35 36
34 35 34 35 35 33 33 31 31 31 29 26 25 23 22 20
41 49 34 26 34 40 41 43 44 32 12 12 5 2 0 0
0 0 24 43 38 42 44 45 39 34 19 11 12 12 12 12
13 16 11 3 0 0 0 3 13 18 15 8 4 4 9 9
10 9 12 13 16 21 24 25 25 19 14 13 18 13 8 14
14 17 18 17 18 23 12 12 5 11 17 21 33 31 31 32
32 32 33 32 34 33 33 33 34 33 34 34 33 34 34 35
35 35 35 35 35 35 34 34 34 34 34 33 33 32 32 31
30 28 28 26 25 23 21 20 19 18 18 18 18 18 18 18
38 42 20 7 14 19 22 27 33 31 13 17 29 30 25 17
11 9 26 33 36 42 44 45 38 30 20 13 12 11 10 9
8 8 0 0 0 0 3 7 7 5 3 6 14 21 19 16
17 19 23 22 20 19 22 24 26 30 35 24 16 21 23 16
11 20 15 16 16 11 20 11 12 5 11 15 27 31 32 32
32 32 31 32 33 33 32 33 33 33 33 34 34 34 34 35
34 34 35 34 33 32 33 34 30 28 27 25 23 23 21 20
20 19 19 19 19 20 20 19 21 21 22 23 23 24 23 16
37 43 16 0 0 0 0 1 11 28 14 17 36 43 42 40
39 37 38 25 27 35 39 41 38 32 22 13 11 9 7 7
3 0 0 0 0 0 3 4 3 4 8 14 14 18 18 18
17 15 21 20 20 22 25 32 37 29 23 22 18 16 23 23
14 13 21 14 11 14 16 15 14 8 5 11 23 30 31 31
32 31 30 32 34 33 33 33 34 34 34 34 33 33 32 31
29 27 26 25 23 22 24 34 23 18 19 20 20 20 21 22
22 23 23 25 24 26 27 27 27 28 28 26 28 29 28 13
34 44 15 0 0 0 0 0 8 28 14 17 35 43 43 43
44 44 39 13 4 8 13 19 22 27 25 13 10 3 1 3
1 0 0 0 0 0 0 1 4 2 1 0 2 3 5 9
12 17 16 17 17 20 30 27 19 14 12 17 16 16 16 14
15 15 17 18 16 13 14 8 10 16 6 6 20 25 29 29
29 31 32 32 32 31 31 30 29 28 27 25 24 23 22 21
21 20 20 21 21 21 20 30 22 20 23 25 25 26 27 27
28 28 29 30 30 30 31 32 32 31 31 26 27 32 33 22
31 41 12 0 0 0 5 14 18 28 20 19 29 36 37 39
40 43 37 8 0 0 0 1 8 25 25 12 9 1 0 0
0 0 0 0 0 0 0 0 0 0 0 0 2 6 8 13
22 22 19 22 26 23 17 13 14 19 20 21 27 25 22 19
19 18 11 14 15 12 8 11 5 12 14 3 10 18 25 24
21 26 27 26 25 23 23 22 21 22 22 21 21 21 22 23
24 25 25 26 27 27 25 31 26 26 29 30 31 31 32 32
32 33 33 33 32 33 33 34 34 32 34 35 30 28 34 30
28 37 9 0 0 0 10 22 23 24 23 20 23 24 28 30
31 37 34 5 0 0 0 0 1 24 24 10 6 0 0 1
0 0 0 0 0 0 0 0 0 0 1 2 8 11 15 24
19 16 19 24 24 19 14 15 20 21 20 20 18 20 19 17
19 20 16 13 20 15 13 10 8 8 13 6 3 15 16 20
17 20 20 20 21 21 23 23 24 24 25 26 26 27 28 29
30 30 31 31 32 30 27 27 24 29 32 33 33 33 34 35
35 35 35 36 36 36 35 33 34 33 33 36 36 29 28 31
29 36 8 0 0 0 4 14 18 21 20 18 20 21 24 28
29 36 33 4 0 0 0 0 0 23 20 3 0 0 1 0
0 0 0 0 0 0 0 1 0 0 3 9 15 17 16 14
15 12 14 14 16 20 29 28 32 35 23 17 17 16 15 12
12 10 10 14 14 19 14 17 10 7 9 11 2 5 13 19
21 23 25 26 27 27 28 29 30 30 31 31 31 31 32 32
32 33 33 33 33 32 21 10 12 29 34 36 36 36 35 36
36 36 36 36 36 36 36 34 33 34 32 36 37 36 29 26
31 37 7 0 0 0 0 0 3 15 15 17 15 16 21 26
30 35 31 4 0 0 0 0 0 25 15 0 0 0 1 1
0 0 0 0 0 0 0 0 1 3 7 12 14 15 13 10
14 20 29 30 23 20 26 27 26 24 20 14 10 9 8 8
10 10 10 10 11 11 15 16 9 7 4 8 3 1 11 19
27 28 29 30 31 31 32 32 33 32 33 33 33 33 34 34
34 34 32 30 27 30 20 7 7 27 35 36 37 36 36 37
36 36 37 37 37 37 37 36 35 34 32 33 37 37 35 25
34 37 7 0 0 0 0 0 3 20 18 19 5 0 2 6
9 13 20 4 0 0 0 0 1 27 14 0 0 1 0 1
0 0 0 0 0 0 0 0 1 4 8 9 12 10 11 17
24 34 35 21 14 10 8 12 11 9 10 13 17 21 20 16
15 16 15 15 15 12 10 9 10 7 9 7 6 3 6 19
29 32 32 32 33 33 33 34 34 34 35 35 35 35 35 35
36 31 15 8 7 22 18 5 6 27 36 37 37 37 37 37
37 37 37 37 37 37 37 36 37 35 32 31 36 37 36 30
36 37 7 0 0 2 0 0 4 25 23 21 5 0 0 0
0 0 9 3 0 0 0 0 1 26 11 0 0 3 1 0
1 1 0 0 0 0 0 0 2 7 9 10 13 16 22 26
30 31 20 13 14 13 20 19 19 20 22 19 20 19 15 17
20 20 18 12 11 10 8 9 11 9 10 8 5 5 1 14
28 33 34 34 34 34 35 35 35 35 35 35 35 36 35 35
36 32 20 19 23 28 18 0 4 26 35 36 37 36 36 37
37 36 37 37 37 37 38 36 37 36 34 30 32 34 33 30
33 32 9 0 0 3 1 0 3 29 24 21 5 0 0 0
0 0 7 2 0 3 7 0 1 26 9 0 0 0 1 0
0 1 2 0 0 0 1 3 12 20 20 24 27 30 34 34
30 25 24 18 17 20 26 22 21 31 32 25 21 21 17 15
13 13 10 7 6 9 13 12 9 7 3 8 6 6 3 4
28 34 34 34 34 35 35 35 35 35 36 36 36 36 36 36
36 36 34 34 34 32 21 1 4 26 35 36 37 36 37 37
37 37 37 37 37 37 37 36 36 36 35 32 28 27 26 30
24 28 21 11 6 11 12 6 6 29 23 20 5 0 2 7
1 0 7 3 0 10 13 4 1 25 8 0 0 0 0 1
0 2 7 10 9 10 18 36 74 107 118 113 101 102 99 86
69 63 55 37 28 26 30 32 30 29 34 26 19 13 11 11
10 8 6 6 10 5 6 8 8 7 3 1 6 3 5 0
18 33 34 34 33 34 34 35 35 34 35 36 36 36 36 36
36 35 35 35 34 33 25 4 6 28 35 36 37 36 36 36
36 36 36 36 37 37 36 36 36 36 37 36 31 26 27 34
18 27 26 26 24 26 29 28 27 33 23 19 5 0 7 13
4 0 8 13 9 17 17 12 5 26 8 0 0 0 1 2
0 25 63 62 67 81 98 118 130 135 135 134 132 123 118 107
83 76 67 51 43 37 35 33 32 32 28 22 16 13 13 9
8 8 8 7 7 8 5 6 7 6 1 1 4 4 5 6
7 32 33 33 33 34 34 34 34 34 35 35 35 34 35 35
35 35 35 35 34 32 26 14 16 31 35 36 36 36 36 36
36 36 36 36 36 36 36 35 36 36 36 35 33 27 27 34
22 28 22 8 7 14 20 28 37 36 25 17 5 0 6 9
3 0 11 33 33 36 34 33 32 36 10 0 0 0 0 4
6 58 97 104 113 120 124 131 135 136 135 134 135 130 122 116
99 78 75 59 49 45 41 37 33 27 21 16 13 11 9 11
9 8 9 8 8 9 10 9 8 9 7 1 0 7 1 5
5 29 33 33 34 34 34 34 34 35 35 35 35 35 35 35
36 35 35 35 34 31 28 26 27 33 36 36 37 36 36 36
35 36 36 36 37 36 36 36 37 37 36 36 34 28 26 34
24 29 18 0 0 5 8 14 36 35 24 18 9 0 0 1
0 0 10 37 38 40 39 42 46 44 23 13 13 7 6 9
18 79 101 109 116 122 125 132 135 135 135 135 134 134 130 122
111 86 76 61 49 39 34 32 29 22 18 14 12 8 9 9
8 8 6 6 7 6 6 8 7 9 8 4 1 1 0 2
8 26 33 33 33 33 34 34 34 34 35 34 35 35 35 35
35 35 35 35 34 32 30 29 32 35 36 35 37 36 37 36
37 37 36 37 37 36 36 36 36 36 36 36 34 27 23 26
24 31 17 0 0 14 21 21 36 31 21 19 17 4 0 0
0 0 10 35 37 38 38 42 45 45 34 29 29 26 24 22
31 91 105 110 118 122 128 133 135 136 135 135 134 134 134 133
128 112 88 69 50 41 33 26 24 23 16 14 12 10 9 11
11 10 7 5 2 4 6 2 4 5 6 4 1 0 0 1
7 19 32 33 34 34 34 34 35 34 35 35 35 36 35 35
35 35 35 34 34 33 33 32 35 36 37 36 37 37 36 36
37 37 37 36 37 36 37 37 37 36 36 36 35 28 24 28
27 33 17 0 0 7 19 26 38 29 19 21 17 2 0 0
0 0 10 33 33 35 35 35 34 34 33 34 35 33 33 32
50 99 106 111 118 123 131 134 135 135 135 135 135 135 134 135
135 130 110 80 56 38 30 25 25 24 21 20 17 11 11 11
11 11 8 6 3 3 6 5 5 4 2 2 0 0 0 0
8 15 34 34 35 34 35 34 35 34 35 35 36 36 36 36
36 36 36 36 35 34 34 34 36 36 36 36 36 37 37 37
37 37 37 37 37 37 37 37 37 37 35 35 34 27 25 32
29 35 18 0 0 0 3 23 39 28 20 21 17 7 4 3
1 0 13 35 32 33 32 32 31 31 34 35 36 38 37 34
63 102 106 114 121 127 132 135 135 135 136 136 135 135 135 134
135 134 127 94 64 49 35 26 22 22 23 17 15 14 13 11
10 12 12 11 10 7 5 6 5 6 3 0 0 0 0 0
6 14 32 34 34 34 34 34 35 34 35 35 36 35 36 36
36 35 35 34 35 34 35 36 36 36 36 37 37 37 37 37
36 36 36 36 37 37 37 37 37 37 36 35 35 28 26 32
30 36 18 0 0 0 0 18 39 29 20 21 27 31 30 27
25 24 30 40 34 34 33 34 35 38 38 36 38 43 45 37
74 102 108 116 119 123 128 130 132 133 135 135 136 135 135 135
136 134 134 119 82 55 44 32 25 25 27 27 22 20 18 12
13 18 20 13 10 11 12 8 5 1 1 0 2 0 0 0
3 11 32 34 34 34 35 34 34 34 34 35 35 34 35 35
36 37 36 36 36 36 37 37 37 36 37 37 37 37 37 37
37 37 37 37 37 37 37 37 37 37 37 37 37 29 26 33
29 35 15 0 0 0 0 18 41 30 20 21 34 46 47 45
47 47 47 45 36 33 34 34 38 42 42 38 39 43 44 41
85 102 111 112 119 123 121 123 126 133 133 135 135 136 135 135
135 135 134 128 103 63 40 34 32 30 28 31 31 28 23 22
41 70 85 73 35 12 12 11 11 12 7 0 0 0 0 0
0 7 30 34 35 35 35 34 34 35 35 36 36 36 36 36
36 36 36 36 37 36 36 37 37 36 36 37 37 37 37 37
37 38 37 37 37 38 37 37 37 37 37 37 36 30 26 32
29 36 14 0 0 0 0 17 40 29 19 23 31 43 44 45
45 47 48 44 25 20 18 18 23 32 42 38 35 31 32 47
93 106 109 107 104 100 102 110 110 113 124 134 134 134 135 135
136 135 135 132 117 90 58 38 33 35 39 41 36 36 34 51
97 122 129 129 117 49 9 9 12 15 15 3 0 0 0 0
0 3 28 36 35 35 34 33 34 34 34 35 36 35 35 36
35 36 36 35 37 37 37 37 37 37 37 37 37 36 36 36
37 37 37 37 37 37 37 37 36 36 37 37 36 30 26 32
28 36 14 0 0 0 0 15 37 27 19 22 23 27 28 29
31 31 33 32 9 1 0 0 2 12 37 36 21 6 9 57
98 105 97 77 46 52 52 62 70 78 91 98 122 134 136 136
136 136 135 135 129 118 102 73 43 31 45 74 80 64 55 64
70 75 86 96 113 111 18 7 6 10 12 8 0 0 0 0
0 1 25 35 35 35 34 34 34 34 34 35 36 36 36 35
35 35 35 35 36 36 37 36 36 37 37 36 37 37 37 37
37 37 37 37 37 37 37 37 37 37 36 37 36 31 27 32
29 38 16 0 0 0 0 14 38 28 19 22 24 29 30 29
28 27 28 26 9 0 0 0 0 11 36 30 6 0 4 75
97 89 57 28 25 46 70 92 102 108 112 111 110 120 133 137
136 136 136 136 135 128 121 110 89 45 50 65 87 108 121 126
90 120 132 132 125 131 52 0 0 2 5 9 3 0 0 0
0 1 23 35 34 34 33 32 32 33 33 35 35 35 33 28
27 26 25 24 26 34 38 37 37 37 37 37 37 37 37 37
37 36 37 37 37 37 36 37 36 37 37 37 37 31 26 31
33 33 13 0 0 0 0 17 41 29 18 21 27 34 34 34
33 33 33 28 10 1 0 0 0 14 35 23 1 0 13 82
81 37 14 12 55 85 105 114 121 127 129 134 133 131 132 137
136 136 135 135 135 132 128 120 115 96 77 110 120 124 132 125
114 135 133 134 131 130 87 0 0 0 0 4 9 0 0 0
0 0 15 23 22 20 19 17 16 19 24 33 35 35 31 15
10 9 9 9 13 30 37 37 36 36 37 36 37 37 36 37
37 36 36 36 36 37 37 36 36 36 37 37 37 31 26 31
35 27 19 12 9 7 6 21 39 28 19 23 29 35 36 35
36 36 37 31 10 0 0 0 2 8 31 18 0 0 22 75
46 21 16 35 80 91 92 99 108 118 128 135 136 136 136 136
136 136 136 135 135 134 124 120 116 118 106 126 134 135 134 124
132 134 134 132 129 124 103 6 0 0 0 0 12 3 0 0
0 0 7 7 9 9 6 4 4 4 14 32 35 35 30 12
7 7 8 7 11 31 38 37 37 37 37 37 37 36 36 36
36 36 36 36 36 37 37 37 37 37 37 37 37 33 26 30
32 31 30 30 28 27 26 29 34 31 28 30 32 34 34 34
34 34 35 31 11 0 0 0 5 6 29 17 0 0 24 69
31 31 34 41 49 61 83 107 119 112 117 132 137 137 137 137
136 136 135 136 136 133 124 120 119 115 123 130 135 134 135 104
89 131 134 133 128 125 101 6 0 0 0 0 6 3 0 0
0 2 4 5 7 7 6 3 3 3 11 31 35 34 29 11
7 8 8 7 11 29 37 37 38 38 37 37 36 36 36 37
36 36 37 36 36 36 36 37 36 37 37 37 37 33 26 29
30 30 31 30 30 31 31 31 31 31 30 31 31 31 32 31
32 32 32 32 21 2 0 0 5 4 27 15 0 0 16 62
47 29 42 49 33 27 43 71 96 113 123 131 137 137 137 137
137 136 136 136 136 134 132 122 120 119 128 134 135 135 135 118
94 136 132 134 130 130 89 5 0 0 0 0 0 1 0 0
1 6 4 5 8 7 6 3 4 4 11 31 35 35 29 11
7 8 8 7 9 28 38 38 38 38 37 37 36 36 36 36
36 36 35 36 36 37 37 37 37 37 37 37 37 32 26 28
29 30 30 29 29 29 30 29 30 30 30 30 30 31 30 31
31 31 31 31 22 1 0 0 2 4 28 15 0 0 7 30
74 76 78 88 67 42 69 99 112 130 134 136 136 137 136 137
136 136 136 136 136 135 133 124 125 123 133 135 135 135 132 124
130 135 133 133 129 132 71 4 1 1 0 0 0 0 0 0
0 7 4 4 8 8 6 3 4 4 12 31 35 35 30 14
10 10 11 11 12 26 36 37 36 36 36 36 36 36 36 36
37 37 36 36 35 34 35 37 37 37 37 37 37 33 27 29
14 14 14 14 14 14 15 14 14 14 15 15 16 17 17 17
19 21 26 30 23 1 0 0 0 1 27 16 0 0 0 6
37 104 124 124 111 94 67 94 127 135 137 136 136 136 137 136
136 136 136 136 136 135 133 131 125 124 134 136 135 136 130 99
133 134 132 130 127 131 59 5 3 3 1 0 0 0 2 0
0 9 4 4 7 7 5 3 4 4 11 31 35 34 32 18
14 14 14 15 15 25 35 38 37 37 37 37 37 36 35 36
37 36 35 20 10 9 12 28 37 37 37 37 37 34 26 27
0 0 0 0 0 0 0 0 0 0 0 0 0 0 0 0
1 4 22 28 24 3 0 0 2 3 26 21 2 2 3 3
15 107 136 134 114 95 74 111 126 132 136 134 136 137 137 137
137 137 136 136 136 135 130 131 129 128 133 136 135 135 127 108
123 135 132 126 127 121 48 5 2 5 1 0 0 0 1 0
0 12 5 4 4 4 4 3 4 3 11 30 35 36 32 16
10 11 10 11 11 23 36 37 37 37 37 37 37 37 37 37
36 37 36 10 0 0 0 21 37 37 36 36 36 33 27 27
0 0 0 0 0 0 0 0 0 0 0 0 0 0 0 0
0 3 25 30 28 19 14 16 23 21 31 33 28 26 28 28
41 118 138 132 114 100 89 110 123 130 132 135 137 137 137 137
138 137 136 137 136 135 131 134 131 129 134 136 136 127 113 127
134 129 126 131 128 100 46 8 2 4 0 0 0 0 0 0
0 13 4 3 1 0 3 3 5 4 10 30 35 36 33 15
8 10 9 9 10 24 37 38 38 37 38 38 37 37 37 36
36 36 34 8 0 0 0 16 37 37 36 37 37 34 28 28
0 0 0 0 0 0 0 0 0 0 0 0 0 0 0 0
0 2 24 31 31 35 36 38 38 35 33 38 46 45 45 47
71 130 139 137 126 109 90 105 120 125 131 136 137 138 137 138
137 137 137 137 136 135 132 129 132 133 135 136 135 118 116 135
135 134 134 132 124 74 42 12 1 1 0 0 0 0 0 0
0 10 5 4 2 3 6 4 5 4 10 30 36 37 33 16
9 10 9 8 9 24 37 38 37 37 37 37 38 37 37 36
37 36 33 6 0 0 0 9 36 37 36 36 37 34 27 27
0 0 0 0 0 0 0 0 0 0 0 0 0 0 0 0
0 1 23 31 29 34 38 41 40 34 28 31 40 42 42 44
95 136 138 137 136 123 102 102 113 122 135 137 137 137 137 137
137 137 136 136 136 135 133 130 132 133 135 136 135 131 124 135
134 135 134 132 99 71 43 16 1 1 0 0 0 0 0 0
3 14 5 4 2 2 5 4 5 4 10 30 35 37 33 16
8 9 8 9 9 24 37 37 37 37 37 37 38 37 37 33
22 20 18 2 0 0 0 8 36 37 37 37 37 35 28 26
0 0 0 0 0 0 0 0 0 0 0 0 0 0 0 0
0 1 21 31 29 31 33 36 38 34 29 27 27 28 29 48
118 138 138 139 137 130 111 102 108 122 136 137 138 137 137 137
137 137 137 137 136 136 135 133 134 135 135 136 135 135 135 136
135 135 134 114 82 71 50 22 2 0 0 0 0 0 0 0
5 17 6 4 1 0 4 4 6 5 9 30 36 36 33 16
8 9 9 9 10 25 37 38 37 37 37 37 37 37 36 17
0 0 0 0 0 1 0 7 36 37 36 36 37 35 28 26
0 0 0 0 0 0 0 0 0 0 0 0 0 0 0 0
0 0 20 32 29 25 22 23 27 26 25 28 27 27 30 88
131 138 138 138 137 130 112 105 108 122 136 138 137 137 137 137
137 137 136 136 136 136 135 135 133 135 135 135 135 134 131 136
135 134 116 88 85 76 56 27 2 0 0 0 0 0 0 0
9 17 6 4 2 1 3 4 6 6 10 30 35 37 33 16
8 8 9 9 10 24 37 38 37 37 37 37 38 38 36 10
0 0 0 0 0 0 0 6 35 36 36 37 37 36 28 26
0 0 0 0 0 0 0 0 0 0 0 0 0 0 0 0
0 0 18 32 28 17 3 3 6 10 17 28 32 37 58 120
135 138 139 138 138 130 113 108 115 125 136 137 138 138 138 137
137 137 137 137 136 135 133 133 134 133 133 136 136 135 135 135
133 111 88 81 85 78 56 29 2 0 0 0 0 0 0 0
14 19 7 4 4 5 5 4 6 5 9 29 35 36 33 17
8 8 9 9 9 24 37 38 38 38 38 37 37 38 35 17
0 0 0 0 0 0 0 6 35 36 37 36 36 35 28 26
0 0 0 0 0 0 0 0 0 0 0 0 0 0 0 0
0 0 15 31 27 15 0 0 0 2 16 30 33 45 97 129
134 134 134 136 137 127 113 113 120 130 137 138 137 138 137 136
137 136 137 136 136 134 131 132 133 131 130 134 135 136 132 127
108 95 86 78 86 80 62 34 5 0 0 0 0 0 0 0
17 19 6 4 4 3 3 4 5 5 9 29 35 36 34 20
11 12 10 11 11 24 36 37 38 37 37 37 37 37 37 30
5 0 0 0 0 0 0 3 26 37 37 37 36 35 30 26
0 0 0 0 0 0 0 0 0 0 0 0 0 0 0 0
0 0 13 30 28 16 0 0 0 0 16 30 30 59 118 134
135 130 128 128 127 123 113 116 125 134 137 138 138 137 137 137
137 137 136 137 137 135 134 132 132 132 132 131 131 133 108 97
102 103 90 88 103 91 70 42 9 0 0 0 0 0 0 0
20 20 6 4 4 4 3 3 4 4 8 28 35 36 35 29
27 27 22 25 27 32 38 38 38 38 38 37 37 35 25 27
8 0 0 0 0 0 0 0 12 36 37 36 36 35 30 27
0 0 0 0 0 0 0 0 0 0 0 0 0 0 0 0
0 0 10 29 26 16 0 0 0 0 16 30 30 75 125 138
137 135 134 131 127 122 111 116 127 136 137 137 138 137 137 137
137 136 136 135 135 134 133 130 133 129 129 131 125 124 116 119
128 123 104 105 116 93 66 46 24 2 0 0 0 0 0 0
24 21 5 2 3 3 2 3 4 4 7 27 33 35 35 35
36 36 34 35 36 36 37 37 37 37 37 37 35 22 2 1
7 7 0 0 0 0 0 0 9 35 35 36 36 34 29 26
0 0 0 0 0 0 0 0 0 0 0 0 0 0 0 0
0 0 8 28 27 17 0 0 0 0 17 28 29 71 118 130
132 137 136 137 134 120 109 117 128 135 137 137 137 137 137 137
137 136 135 134 135 133 133 131 131 131 127 123 119 117 114 119
128 123 107 109 113 90 67 39 29 13 0 0 0 0 0 0
19 20 5 3 3 3 2 2 3 3 6 25 32 33 34 34
35 36 37 37 36 32 30 29 27 25 24 24 15 2 0 0
4 4 0 0 0 0 0 0 3 30 35 35 35 33 28 25
0 0 0 0 0 0 0 0 0 0 0 0 0 0 0 0
0 0 6 27 26 17 0 0 0 0 15 28 28 49 95 111
86 100 124 133 133 113 107 115 127 135 136 136 137 137 136 137
136 135 135 134 135 134 133 131 129 131 129 124 116 111 113 119
127 122 112 109 110 89 69 46 25 13 2 0 0 0 0 0
10 21 7 4 3 3 3 2 3 3 8 24 30 31 32 33
35 35 35 35 27 8 5 51 27 1 1 1 0 0 0 5
0 0 0 0 0 0 0 0 0 21 34 33 33 32 28 24
0 0 0 0 0 0 0 0 0 0 0 0 0 0 0 0
0 0 5 26 26 18 1 0 0 0 13 28 29 37 46 84
98 103 102 111 114 106 111 114 128 136 136 136 136 136 136 136
136 135 135 135 135 135 134 131 130 128 123 121 111 105 109 117
124 120 114 109 106 85 65 45 28 16 6 0 0 0 0 0
16 25 19 16 13 12 11 6 3 8 16 25 28 29 30 32
33 34 34 33 17 0 46 131 106 12 3 17 0 0 1 12
0 0 0 0 0 0 0 0 0 5 19 19 26 32 28 25
0 0 0 0 0 0 0 0 0 0 0 0 0 0 0 0
0 0 4 25 25 19 2 0 4 2 11 28 30 38 24 19
51 82 115 113 103 116 117 113 125 135 137 137 137 138 137 136
136 136 136 135 136 135 135 133 131 129 123 121 110 105 106 119
125 120 117 109 107 86 67 52 39 26 11 2 0 2 0 8
28 29 27 25 21 20 18 9 1 12 19 24 27 28 30 31
33 33 23 19 9 1 52 97 94 20 8 19 11 8 12 18
7 4 3 2 2 2 1 1 1 0 2 2 19 32 29 25
0 0 0 0 0 0 0 0 0 0 0 0 0 0 0 0
0 0 4 25 26 20 4 0 10 11 14 30 31 38 28 12
19 49 110 116 118 122 121 116 122 134 137 137 137 137 137 136
136 136 136 136 136 136 135 134 131 126 125 116 108 102 105 117
123 120 117 110 104 87 73 57 38 24 14 7 3 6 6 24
29 28 28 26 23 22 21 11 0 13 20 24 26 27 29 30
32 32 12 11 12 12 15 17 19 18 20 22 23 22 21 20
17 14 11 10 7 7 6 6 6 6 6 8 24 36 33 28
0 0 0 0 0 0 0 0 0 0 0 0 0 0 0 0
0 0 4 24 25 23 20 20 26 28 30 37 34 38 26 18
19 47 99 107 111 118 121 120 122 133 137 137 137 137 137 137
136 136 136 136 135 135 133 131 129 124 123 114 107 99 103 117
124 122 119 110 102 87 73 59 43 29 22 10 1 2 10 24
30 29 28 27 25 24 22 13 1 13 20 23 25 26 28 30
33 32 13 9 10 10 10 10 11 11 12 13 14 11 12 11
7 4 3 2 1 7 30 33 35 36 37 40 44 46 44 38
0 0 0 0 0 0 0 0 0 0 0 0 0 0 0 0
0 0 4 24 26 26 39 44 45 46 46 45 36 36 20 16
20 47 96 107 109 109 113 116 123 130 134 137 136 137 137 137
136 137 136 136 135 135 134 131 127 124 117 106 108 99 102 117
126 124 119 110 101 84 73 60 48 37 26 16 3 4 14 22
30 29 29 27 25 24 22 14 1 13 20 23 25 26 28 30
33 33 21 4 0 0 0 0 0 0 0 0 0 0 0 0
0 0 0 0 0 20 54 55 55 55 54 52 50 47 45 40
0 0 0 0 0 0 0 0 0 0 0 0 0 0 0 0
0 0 3 23 24 26 41 47 46 46 46 44 37 35 15 8
19 45 102 118 118 114 111 107 123 129 134 135 133 136 137 137
136 136 136 136 135 134 128 125 124 120 116 111 105 96 102 119
126 126 120 110 101 85 73 62 51 38 29 14 5 7 15 24
29 29 29 28 26 25 23 15 1 12 20 22 24 25 27 29
33 32 22 1 0 0 0 0 0 0 0 0 0 0 0 0
0 0 0 0 0 32 52 52 52 51 49 44 45 42 38 35
0 0 0 0 0 0 0 0 0 0 0 0 0 0 0 0
0 0 3 23 24 22 28 29 29 29 28 27 28 33 14 4
16 51 99 108 120 126 120 111 117 127 135 137 135 137 137 137
137 137 136 135 134 134 126 123 120 119 114 111 102 92 102 119
126 128 120 110 102 84 79 77 58 43 27 16 4 11 16 25
28 28 28 27 26 26 24 17 1 11 21 22 23 25 27 30
31 32 14 0 0 0 0 0 0 0 0 0 0 0 0 0
0 0 0 0 2 32 37 37 44 39 37 29 31 31 28 30
0 0 0 0 0 0 0 0 0 0 0 0 0 0 0 0
0 0 3 23 24 21 17 16 16 16 16 15 22 33 15 3
15 43 74 73 78 90 105 99 96 118 131 137 137 137 136 136
136 136 134 132 133 129 123 122 120 116 109 106 98 96 107 122
127 128 124 111 99 85 83 78 62 44 30 16 5 10 15 22
23 23 24 26 27 26 25 18 2 11 22 23 24 25 26 28
30 30 9 0 0 0 0 0 0 0 0 0 0 0 0 0
0 0 0 0 0 7 6 6 30 32 28 24 23 23 23 27
0 0 0 0 0 0 0 0 0 0 0 0 0 0 0 0
0 0 3 22 24 20 18 18 17 17 17 15 24 35 22 15
24 31 37 46 57 74 83 96 100 107 123 134 137 136 134 136
135 134 127 126 125 125 122 117 115 108 103 101 96 100 114 126
132 130 126 114 101 87 87 80 66 52 39 24 7 12 22 19
17 15 14 20 25 25 23 18 3 10 22 23 25 25 26 28
29 25 2 0 0 0 0 0 0 0 0 0 0 0 0 0
0 0 0 0 0 0 0 0 17 35 33 31 31 30 29 28
0 0 0 0 0 0 0 0 0 0 0 0 0 0 0 0
0 0 6 25 25 21 21 21 20 20 19 16 24 35 32 34
37 31 28 47 88 99 108 125 129 117 120 127 133 133 132 133
130 129 126 123 125 120 115 111 104 100 97 96 99 108 118 127
131 129 124 113 102 87 87 85 78 63 51 32 13 14 21 16
13 11 10 16 23 23 22 18 3 8 21 23 24 25 25 26
27 15 0 0 0 0 0 0 0 0 0 0 0 0 0 0
0 0 0 0 0 0 0 0 9 33 33 32 30 29 29 28
0 0 1 1 1 2 3 4 5 6 7 8 9 10 11 12
13 14 17 24 23 21 22 22 21 21 21 17 22 28 27 30
30 27 29 68 96 105 114 122 126 125 124 124 125 126 129 130
126 125 122 121 119 114 110 102 98 89 93 99 105 117 123 127
130 127 122 114 103 86 86 89 79 70 60 42 20 12 15 11
11 11 8 13 20 22 21 17 3 8 20 23 24 25 24 25
25 5 0 0 0 0 0 0 0 0 0 0 0 0 0 0
0 0 0 0 0 0 0 0 3 28 30 28 27 28 27 27
13 13 15 16 17 17 18 18 19 19 19 20 21 20 21 21
21 21 21 21 21 21 22 22 22 22 21 19 20 21 20 21
24 25 28 56 66 85 103 115 122 125 122 120 120 120 125 126
123 120 120 117 114 106 102 95 93 90 97 105 110 116 124 131
128 128 123 112 102 87 85 86 86 85 74 59 32 12 14 8
9 10 7 11 18 20 20 17 4 6 20 23 23 24 23 24
19 1 0 0 0 0 0 0 0 2 0 0 0 0 0 0
0 0 0 9 0 0 0 0 0 21 23 18 19 19 17 17
20 17 19 21 21 20 21 20 21 21 21 21 21 21 21 21
20 21 21 20 20 20 22 22 22 22 21 20 21 23 22 22
24 25 26 30 43 67 95 109 117 120 117 116 117 116 124 126
121 119 112 114 108 99 94 89 91 101 106 108 112 119 126 128
126 129 123 113 102 89 84 89 93 94 87 73 49 11 9 18
10 8 6 9 14 19 19 17 4 5 19 22 23 24 23 24
12 0 0 0 0 0 0 0 0 0 0 0 0 0 0 0
0 0 2 21 0 0 0 0 0 15 20 19 20 18 14 17
20 17 20 21 20 21 21 21 22 27 28 15 10 12 16 16
10 14 19 18 19 21 23 22 22 23 22 21 22 24 23 23
25 25 27 27 34 65 94 109 113 116 116 115 119 120 121 121
117 113 111 107 99 94 89 92 98 106 109 113 116 120 126 128
128 128 123 114 100 88 84 93 100 101 97 82 63 22 4 33
21 10 8 8 11 18 20 18 5 5 20 22 22 23 23 22
8 0 0 0 0 0 0 0 0 0 0 0 0 0 0 0
0 0 11 24 0 0 0 0 0 10 23 25 26 24 22 24
16 14 15 15 15 15 15 18 34 46 29 3 0 0 1 2
0 1 10 15 15 14 13 11 12 17 22 21 22 24 24 24
24 25 26 27 28 49 89 111 115 114 118 117 117 117 116 115
111 110 102 94 91 89 96 102 106 109 110 112 116 122 123 130
130 128 120 115 98 86 84 94 101 105 100 89 71 41 8 35
32 11 8 8 8 16 19 18 8 8 20 23 23 24 23 23
4 0 0 0 0 0 0 2 0 0 0 0 0 0 0 0
0 0 14 18 0 0 0 0 0 4 25 27 28 28 27 27
2 1 1 1 2 6 9 30 54 40 8 0 0 0 0 0
0 0 0 2 1 0 0 0 0 3 16 22 23 24 25 25
25 25 26 27 28 37 84 110 120 120 115 115 114 110 111 109
105 100 90 90 89 98 101 103 108 112 114 116 120 124 123 125
127 125 120 116 99 84 81 93 103 106 104 95 78 56 21 38
38 18 8 6 7 15 19 18 16 17 22 24 23 23 24 26
1 0 0 0 0 0 0 8 0 0 0 0 0 0 0 0
0 0 4 3 0 0 0 0 0 0 13 23 24 24 24 25
0 0 0 0 0 9 17 44 48 16 0 0 0 0 0 0
0 0 0 0 0 0 0 0 0 0 9 23 23 23 24 25
25 25 26 27 27 33 78 105 118 119 114 113 112 108 102 101
98 93 85 86 88 96 98 106 112 113 115 119 124 127 127 127
127 128 123 115 101 85 79 92 103 106 106 99 85 68 37 46
37 30 23 21 17 19 20 19 19 20 20 21 22 22 22 13
0 0 0 0 0 0 0 0 0 0 0 0 0 0 0 0
0 0 0 0 0 0 0 0 0 0 2 10 16 14 16 24
0 0 0 0 0 8 31 47 27 2 0 0 0 0 0 0
0 0 0 0 0 0 0 0 0 0 9 23 24 24 24 25
25 24 25 26 27 31 73 99 110 109 109 109 106 103 94 93
87 81 85 86 93 96 103 108 115 119 121 122 122 124 126 129
127 125 125 114 102 84 77 90 103 109 108 103 93 77 38 46
38 35 35 40 37 35 31 26 21 17 15 13 13 13 11 3
0 0 0 0 0 0 0 0 0 0 0 0 0 0 0 0
0 0 0 0 0 0 0 0 0 0 7 10 18 19 20 25
0 2 5 5 1 7 40 38 6 0 2 4 0 0 0 0
0 0 0 0 0 0 0 0 0 3 18 25 25 24 24 24
25 25 25 26 26 28 59 91 104 100 102 102 101 100 87 79
78 77 80 77 78 90 97 106 116 119 120 122 123 127 128 128
125 124 126 117 103 84 78 88 102 112 110 105 98 79 34 45
39 35 28 33 38 26 19 13 7 2 2 1 1 1 0 0
0 0 0 0 0 0 0 0 0 0 0 0 0 0 0 0
0 0 0 0 0 0 0 0 0 0 11 17 20 26 26 26
3 6 10 9 2 12 46 30 6 14 22 21 3 0 0 0
0 0 0 0 0 0 0 0 1 13 21 22 22 22 23 24
25 25 24 25 25 26 43 76 90 88 92 91 84 84 73 69
69 68 59 53 53 71 91 103 113 121 125 124 128 123 125 125
124 127 124 115 102 84 79 88 102 113 113 109 102 76 43 46
41 33 27 20 24 5 0 0 0 0 0 0 0 0 0 0
0 0 0 0 0 0 0 0 0 0 0 0 0 0 0 0
0 0 0 0 0 0 0 0 0 0 6 12 11 26 28 27
15 13 12 7 0 18 42 17 11 29 29 26 9 0 7 10
2 0 0 0 0 0 0 0 0 1 4 4 5 10 21 24
25 25 25 25 25 26 30 52 66 70 74 67 61 58 61 60
51 39 27 24 36 62 84 103 113 121 126 127 128 122 123 127
129 128 126 115 102 84 80 91 101 112 115 112 102 63 50 45
40 34 30 21 24 10 4 2 0 0 0 0 0 0 0 0
0 0 0 0 0 0 0 0 0 0 0 0 0 0 0 0
0 0 0 0 0 0 0 0 0 0 0 0 2 21 27 27
19 11 6 2 0 25 39 7 8 31 30 27 8 3 22 25
16 3 0 1 0 0 0 0 0 0 0 0 0 1 18 24
23 23 23 23 24 24 24 30 38 42 42 35 31 31 30 27
24 7 0 3 19 56 81 97 110 122 128 129 126 126 124 126
129 128 127 117 101 85 80 93 101 111 116 114 99 58 51 45
40 33 29 27 29 25 16 13 3 0 0 0 0 0 0 0
0 0 0 0 0 0 0 0 0 0 0 0 0 0 0 0
0 0 0 0 0 0 0 0 0 0 0 0 0 12 26 26
15 3 0 0 0 31 40 6 9 27 18 21 13 17 32 29
21 7 0 2 0 0 0 0 0 0 0 0 0 0 15 22
23 22 22 22 23 23 23 24 25 25 22 22 24 24 22 19
17 2 0 0 14 57 75 93 108 117 122 121 123 124 126 126
127 130 128 119 103 85 80 92 102 110 116 114 85 62 46 45
41 31 27 26 26 28 8 1 0 0 0 0 0 0 0 3
13 9 0 0 0 0 0 0 0 0 0 0 0 0 0 0
0 0 0 0 0 0 0 0 0 0 0 0 0 4 20 21
13 1 0 0 1 34 41 7 7 14 1 14 22 29 35 26
19 11 0 1 0 0 0 0 0 0 0 0 0 0 13 21
21 21 21 21 21 21 21 22 23 21 21 25 26 27 25 21
12 2 0 0 22 74 79 87 106 118 121 120 121 120 127 129
130 132 129 120 105 86 81 91 103 111 116 109 72 70 44 44
42 33 27 24 16 28 28 19 18 27 30 20 4 0 0 12
26 15 0 0 0 0 0 0 0 0 0 0 0 0 0 0
0 0 0 0 0 0 0 0 0 0 0 0 0 1 17 20
12 5 2 0 1 36 46 15 11 7 1 17 28 38 31 12
13 13 0 0 0 0 0 0 0 0 0 0 0 0 9 22
23 23 22 21 21 21 21 22 21 21 23 25 24 22 22 18
13 21 23 27 45 84 83 83 99 113 118 119 120 126 127 129
131 132 130 121 107 88 83 92 104 113 115 91 79 63 45 44
41 32 26 26 13 16 33 46 46 44 45 45 40 14 1 1
4 1 0 0 0 0 0 0 0 0 0 0 1 0 0 0
0 0 0 0 0 0 0 0 0 0 0 0 0 1 14 19
16 13 12 0 1 31 46 26 14 3 2 19 34 38 21 0
10 13 0 0 0 0 0 0 0 0 0 0 0 0 6 27
31 32 26 20 17 18 23 27 30 29 28 24 25 24 25 23
22 37 38 66 52 93 95 86 86 107 115 120 124 127 129 131
133 132 130 122 109 89 83 93 103 113 109 78 88 51 46 46
41 32 27 26 20 15 23 43 46 46 43 43 45 43 37 34
28 17 5 0 0 0 0 2 0 0 0 1 4 0 0 0
0 0 0 0 0 0 0 0 0 0 0 0 0 2 12 19
19 15 13 1 0 25 40 33 15 0 2 21 33 24 6 0
7 9 0 0 0 0 0 0 0 0 0 0 0 0 6 34
41 42 30 24 28 29 32 33 35 36 39 39 28 20 22 21
31 38 39 72 73 87 104 102 91 94 110 119 124 127 129 127
132 134 131 122 111 93 87 96 103 112 95 80 95 47 48 47
41 34 27 28 23 20 28 45 50 45 43 44 44 46 46 46
45 45 42 32 20 9 3 3 0 0 0 1 7 0 0 0
0 0 0 0 0 0 0 0 0 0 0 0 0 3 9 16
21 17 14 2 0 21 40 37 14 0 1 15 15 4 0 0
0 0 0 0 0 0 0 0 0 0 0 0 0 0 4 26
32 38 40 38 39 34 36 38 41 45 44 44 30 20 19 27
36 39 42 59 92 77 104 107 104 93 94 108 118 123 126 124
128 133 131 125 114 95 90 99 103 105 80 95 91 49 49 47
40 34 29 27 23 22 28 37 46 43 40 40 44 40 43 46
45 46 46 48 47 45 44 33 21 11 1 1 6 1 0 0
0 0 0 0 0 0 0 0 0 0 0 0 0 4 8 17
23 17 13 2 0 8 18 14 4 0 0 0 0 0 0 0
0 0 0 0 0 0 0 0 0 0 0 0 1 8 20 33
39 39 40 38 41 37 36 39 43 47 50 45 32 18 18 26
33 37 46 51 101 69 104 113 115 110 102 100 109 119 124 122
124 131 132 126 115 98 92 102 104 88 80 119 74 43 47 44
37 32 26 23 24 26 27 41 47 44 40 39 44 45 46 50
48 52 44 45 48 46 47 43 46 48 41 21 9 1 0 0
0 0 0 0 0 0 0 0 0 0 0 0 0 4 9 19
6 2 1 0 0 0 0 0 0 0 0 0 0 0 0 0
0 0 0 0 0 0 0 0 0 0 0 14 34 41 41 39
39 40 43 44 42 34 34 38 45 46 44 41 32 12 17 29
32 36 43 45 96 84 89 115 121 121 118 112 109 113 117 120
123 130 133 130 117 100 95 105 99 69 95 110 55 48 47 42
37 30 27 23 22 29 32 41 44 44 41 44 42 43 44 46
46 47 45 44 45 45 46 44 47 45 47 49 43 24 3 0
0 0 0 0 0 0 0 0 0 0 0 0 0 3 8 19
0 0 0 0 0 0 0 0 2 0 0 1 0 1 0 0
2 0 0 0 0 0 0 0 0 6 28 43 42 43 42 40
40 41 44 42 39 29 33 44 45 43 43 40 32 11 20 32
31 34 40 41 86 108 75 111 123 126 126 121 115 110 112 114
120 130 135 130 118 100 97 105 84 66 112 84 43 46 41 41
37 29 26 19 20 31 34 42 45 42 44 42 39 43 46 47
45 46 47 44 45 43 40 41 44 44 44 45 46 45 38 7
0 0 0 0 0 0 0 0 0 0 0 0 0 2 6 17
0 0 0 0 0 0 2 15 15 10 5 12 13 11 3 7
7 0 0 0 0 0 0 0 20 40 45 45 43 42 41 41
42 43 44 43 39 29 34 46 45 45 44 42 32 15 24 33
30 34 40 43 71 115 91 93 123 127 130 127 122 116 110 109
116 127 136 132 119 100 98 94 63 85 120 62 49 47 40 37
35 29 28 15 16 37 41 42 43 42 41 40 38 42 45 44
44 45 46 43 43 41 40 41 42 43 43 41 42 42 31 30
6 0 0 0 0 0 0 0 0 0 0 0 0 1 7 15
0 0 0 0 0 0 2 18 18 24 27 22 24 21 14 16
4 0 0 0 0 0 0 25 46 45 43 42 42 42 40 41
42 42 43 42 40 30 32 46 47 46 45 42 32 17 22 31
27 33 41 48 61 116 109 80 115 128 133 132 127 120 112 104
107 123 134 132 118 97 90 68 57 92 122 53 21 46 44 35
35 31 27 16 15 38 42 44 45 43 42 41 38 41 41 41
43 43 42 43 44 43 42 44 42 44 44 41 43 40 23 29
36 1 0 0 0 0 0 0 0 0 0 0 0 1 11 14
0 0 0 0 0 0 0 8 18 30 34 28 30 29 27 15
1 0 0 0 0 0 19 45 42 40 41 42 43 43 40 41
41 41 45 44 42 31 32 43 45 45 42 43 31 20 20 30
28 31 38 44 53 111 121 91 94 127 133 134 131 125 119 107
101 117 133 132 119 97 78 58 68 112 110 22 0 6 43 37
33 29 27 17 20 39 42 42 43 44 45 42 38 40 42 39
41 43 43 41 42 44 45 46 45 44 42 39 41 38 20 29
38 16 0 0 0 0 0 0 0 0 0 0 0 3 14 16
0 0 0 0 0 0 0 1 14 22 31 36 34 33 21 3
0 0 0 0 0 8 40 44 40 37 37 43 43 43 42 42
40 43 44 45 44 33 32 41 41 44 41 44 35 21 25 34
30 31 40 48 55 105 133 111 80 120 135 137 136 134 128 114
102 112 131 134 118 88 59 78 95 124 61 0 0 0 27 41
31 29 29 20 31 41 40 42 40 38 44 44 38 40 43 38
38 42 44 39 38 43 44 47 44 44 43 42 43 36 22 26
35 31 2 0 0 0 0 0 0 0 0 0 0 5 15 15
0 0 0 0 0 0 0 0 3 11 21 27 24 16 3 0
0 0 0 0 0 26 40 36 39 36 37 43 45 47 44 45
44 46 45 45 45 37 33 39 39 45 41 42 35 22 26 35
31 33 41 53 27 109 135 126 97 95 133 138 137 136 135 122
106 108 129 134 117 79 67 96 118 112 11 0 0 0 20 42
29 30 32 26 38 41 40 41 40 37 41 43 41 39 40 37
39 43 45 39 38 44 45 46 46 44 42 40 44 36 22 28
40 34 18 0 0 0 0 0 0 0 0 0 0 4 13 11
0 0 0 0 0 0 0 0 0 1 8 10 9 1 0 2
1 0 0 0 15 39 42 31 41 35 36 44 47 44 44 45
47 48 46 45 45 38 35 36 35 44 43 40 38 26 28 35
30 34 41 47 5 107 133 118 114 81 123 138 138 138 137 129
110 106 124 129 108 62 77 118 129 54 2 0 0 0 25 43
31 27 36 30 39 41 40 39 38 37 40 43 42 38 39 37
41 43 41 36 37 43 44 44 42 41 40 43 43 34 22 31
41 36 25 11 0 0 0 0 0 0 0 0 0 5 16 13
0 0 0 0 0 0 0 0 0 2 5 6 3 0 2 6
1 0 0 5 31 40 42 33 42 33 34 44 48 44 45 48
48 47 46 44 47 43 39 35 34 43 43 41 38 27 31 34
28 34 38 47 3 100 137 117 125 104 107 138 138 138 138 134
116 106 117 114 74 54 116 133 87 19 10 1 0 0 28 43
34 32 42 34 41 39 39 39 38 39 38 42 42 39 35 36
38 42 42 39 39 42 43 43 42 42 42 42 43 30 23 34
41 37 23 26 15 0 0 0 0 0 0 0 0 5 16 13
0 0 0 0 0 0 0 0 3 8 8 7 7 15 9 0
0 0 0 22 32 39 37 32 43 36 34 43 46 45 46 49
48 48 46 45 49 46 42 33 33 42 43 41 39 32 35 37
32 37 35 49 6 83 141 120 120 119 94 127 138 138 138 137
121 106 99 67 53 84 131 91 26 17 10 12 7 1 26 50
37 38 49 39 43 41 39 39 40 39 38 39 41 39 34 35
37 40 40 40 39 43 44 45 45 41 39 41 41 30 22 37
40 36 27 38 40 4 0 0 0 0 0 0 0 4 15 11
3 1 0 0 0 0 0 0 3 9 8 7 17 33 20 0
0 0 12 36 31 40 37 29 41 37 34 42 46 48 49 49
50 51 44 46 51 51 47 35 29 39 42 40 40 33 39 44
33 36 34 46 13 52 141 131 126 120 98 93 136 138 137 137
125 95 62 54 58 75 77 31 20 18 9 23 27 11 19 49
50 39 46 39 41 42 38 40 41 44 43 39 41 38 37 36
39 41 42 38 36 40 43 43 39 38 38 43 44 31 24 38
39 38 36 43 74 69 1 0 0 0 0 0 0 3 13 9
2 4 1 0 0 0 0 0 3 11 8 10 25 37 23 1
0 11 38 37 33 39 36 25 41 38 32 38 44 46 47 48
49 49 44 46 51 49 47 33 27 40 41 41 41 33 42 46
42 41 34 44 14 18 126 138 136 124 88 61 96 128 131 131
108 58 33 15 25 31 26 23 21 16 21 40 34 27 19 37
54 50 49 44 37 41 41 39 43 43 45 40 42 40 38 40
42 41 40 38 37 40 43 42 38 37 39 44 44 32 24 38
42 44 38 46 107 132 45 0 0 0 0 0 0 0 2 2
0 2 4 2 0 0 0 0 3 13 12 21 38 46 37 17
15 35 43 36 37 40 38 25 42 39 34 39 42 49 48 48
48 45 43 45 47 47 45 29 28 40 42 42 41 33 44 42
45 43 41 41 7 17 65 127 139 134 98 52 50 75 96 110
59 33 28 34 40 41 34 28 28 30 37 41 36 39 34 28
42 56 53 50 52 33 41 41 42 43 44 42 42 42 40 43
46 41 40 40 39 42 42 43 36 38 42 43 40 31 26 38
45 44 46 78 135 134 105 5 0 0 0 0 0 0 0 0
0 2 4 3 0 0 0 0 0 6 14 28 41 48 47 33
41 46 45 38 37 41 40 24 38 40 36 38 42 48 51 50
51 47 45 47 47 49 45 30 29 40 43 41 42 38 44 39
45 46 51 37 16 29 31 49 85 105 73 35 35 49 60 70
46 35 41 45 45 44 35 28 40 40 40 42 37 39 40 41
35 34 39 42 47 27 43 44 45 46 47 44 44 45 42 43
43 39 39 42 44 45 46 41 36 39 43 42 41 29 26 42
43 47 59 125 136 131 131 54 0 0 0 0 0 0 0 0
1 0 1 1 1 0 0 0 0 0 8 25 37 46 44 43
73 47 42 40 37 39 40 24 38 40 37 37 41 45 49 48
47 41 39 45 43 47 43 31 30 42 41 42 44 41 43 46
47 51 43 33 36 34 30 31 33 33 21 6 15 28 32 55
41 39 42 46 49 46 33 31 44 42 43 44 40 41 42 44
42 42 38 35 37 35 45 44 47 48 47 44 44 43 45 45
43 41 43 43 43 44 43 40 36 38 43 47 43 31 27 41
47 56 113 135 134 128 133 111 7 0 0 0 0 0 0 0
6 1 0 0 0 0 0 0 0 0 0 11 25 37 32 81
125 55 46 43 37 38 41 28 41 44 38 38 42 46 47 47
47 40 38 45 43 50 46 30 31 45 42 43 45 55 50 47
41 35 37 44 46 45 43 43 37 37 39 36 38 34 37 52
38 41 49 50 52 44 31 39 45 44 46 45 42 44 45 47
46 44 42 40 43 42 42 42 45 47 44 40 43 44 43 41
41 39 42 45 45 48 44 38 38 41 46 46 43 31 28 42
52 102 136 135 134 131 134 133 59 0 0 0 0 0 0 0
7 4 0 0 1 0 0 0 0 5 5 17 27 31 49 132
140 92 45 44 42 36 40 29 41 43 39 37 42 48 48 47
47 40 40 45 43 50 46 32 35 46 42 43 42 45 33 32
35 41 44 47 47 47 48 45 42 37 42 36 38 32 49 59
40 44 50 52 52 39 35 48 46 43 43 45 42 43 45 46
47 45 44 42 43 43 43 45 46 48 46 44 45 46 44 43
40 42 44 45 46 46 45 42 41 42 46 47 42 31 30 50
89 136 134 135 134 134 134 133 114 8 0 0 0 0 0 0
6 3 0 0 0 0 0 0 1 9 12 29 39 41 103 142
140 133 62 41 44 38 39 30 39 43 39 37 42 46 48 48
47 41 40 47 45 49 46 33 34 43 44 41 44 46 43 44
43 45 47 47 47 47 48 46 44 37 43 38 37 34 94 131
104 87 79 85 70 39 39 50 57 86 113 119 107 92 81 67
56 48 43 43 43 45 47 48 47 45 47 46 45 44 42 43
40 41 44 45 46 46 44 42 41 48 67 83 75 34 33 71
133 134 134 134 133 133 133 134 129 46 0 0 0 2 12 4
3 0 0 0 0 0 0 0 0 6 12 31 43 74 138 141
140 139 104 45 38 42 40 32 37 45 39 37 40 45 47 48
46 40 42 47 44 50 46 35 34 44 47 41 47 51 50 49
45 46 46 46 48 45 48 48 45 40 42 43 34 39 123 138
137 138 137 137 133 110 106 117 133 137 136 135 136 135 135 135
133 127 106 76 52 46 46 47 55 72 91 102 106 95 70 52
45 43 46 45 45 45 50 69 100 126 134 134 133 62 47 125
135 134 133 132 133 133 133 132 127 98 2 0 0 1 10 5
0 0 0 0 0 0 0 0 0 5 13 31 50 120 142 141
139 139 134 61 42 42 40 32 64 81 61 44 41 44 46 48
46 41 42 47 46 50 47 36 35 45 50 46 46 46 48 47
45 46 46 46 47 47 48 47 45 42 45 60 39 59 136 136
137 137 137 137 136 137 137 137 137 137 137 136 136 135 135 136
135 135 135 135 131 115 115 123 131 134 134 135 135 134 133 129
120 109 104 97 96 108 126 134 134 133 133 132 131 70 86 134
132 131 131 131 131 131 130 130 126 123 41 0 0 0 0 0
0 0 0 0 0 0 0 0 0 2 13 31 77 140 140 140
139 139 139 108 46 40 42 37 123 139 137 126 110 99 91 87
81 63 56 62 86 107 97 57 37 44 48 44 43 46 59 76
86 95 101 98 94 88 86 92 100 113 124 136 112 99 138 136
137 136 137 135 135 135 135 135 135 135 135 136 135 134 135 134
134 134 134 134 134 134 134 134 133 133 132 133 133 133 132 132
132 132 131 131 131 131 130 131 131 130 130 130 128 98 123 129
129 129 129 128 128 128 127 126 123 123 107 26 0 0 0 0
