P2
128 120
144
0 7 39 37 30 31 30 29 29 29 29 29 29 28 28 28
28 27 27 27 27 27 27 26 25 25 25 25 24 23 23 23
23 22 22 22 21 22 21 21 21 20 21 19 19 19 19 18
17 18 20 22 23 23 22 17 17 18 18 24 23 23 22 22
21 21 20 21 20 18 20 21 23 23 24 24 25 24 24 25
25 25 25 25 25 26 26 27 27 27 27 27 27 28 28 28
29 28 29 29 29 30 30 30 31 31 32 32 31 32 32 32
32 33 32 32 32 32 33 32 33 32 33 33 34 34 33 33
0 7 39 36 29 29 29 29 29 29 28 28 28 29 28 28
28 27 27 27 27 26 26 25 25 25 25 25 24 24 24 23
23 23 22 22 22 21 21 21 21 20 20 19 19 19 19 19
18 19 21 23 23 23 22 17 17 20 17 23 23 23 23 22
22 23 21 21 21 18 21 22 23 24 24 24 25 25 25 26
25 26 25 26 26 26 26 26 27 27 27 27 27 28 28 28
29 29 29 30 30 30 30 31 31 30 32 32 31 31 32 31
32 31 32 32 33 32 33 33 33 33 34 33 33 33 33 33
0 7 39 36 30 30 30 29 29 29 29 29 28 28 28 28
27 27 27 27 27 26 26 26 26 26 26 25 25 25 23 24
23 23 23 22 22 22 22 22 22 21 21 20 20 19 19 19
19 19 20 23 23 23 23 18 18 21 18 24 24 24 23 23
23 23 22 21 21 19 23 22 24 24 25 25 26 25 26 26
26 26 26 26 26 27 27 27 28 28 28 29 28 29 29 29
29 29 29 30 30 30 31 30 31 31 31 31 31 31 32 32
33 33 33 32 33 32 32 33 33 33 33 33 34 34 34 34
0 8 39 36 29 29 29 29 28 29 29 29 29 29 29 28
28 28 28 28 27 27 26 26 26 25 25 25 25 24 24 24
24 24 23 23 22 23 22 22 21 21 21 21 20 20 20 20
20 20 22 24 24 24 23 18 18 22 18 24 24 24 24 23
23 24 22 23 22 20 23 23 24 24 25 26 26 26 26 26
26 26 26 26 27 27 27 28 28 28 28 29 29 29 29 29
30 30 31 30 31 30 30 31 31 32 31 32 32 32 32 33
33 33 34 33 33 33 33 34 33 34 34 34 34 33 33 34
0 9 39 35 29 29 30 30 29 29 29 29 29 28 28 28
28 27 27 27 26 27 27 26 26 26 26 25 25 25 24 23
23 24 23 23 23 23 22 22 22 21 21 20 20 20 20 20
20 20 22 24 25 24 24 18 18 22 19 24 24 24 25 24
23 23 23 22 21 19 22 23 24 24 26 26 27 26 27 27
26 26 27 27 27 27 28 28 28 29 29 29 29 29 29 29
29 29 29 30 31 31 31 32 32 32 32 32 32 33 33 33
33 33 34 33 32 32 33 33 33 33 34 34 34 34 34 34
4 16 39 34 29 29 30 29 30 29 28 28 28 28 29 28
28 28 28 27 27 27 27 26 26 26 25 25 25 24 24 24
24 24 23 23 23 22 22 22 22 22 21 21 20 20 20 20
20 21 23 25 25 25 23 18 18 23 19 23 25 25 25 24
23 22 23 23 23 20 24 24 25 25 26 26 26 26 26 27
27 27 27 28 28 28 28 28 28 29 28 28 28 29 29 29
30 30 31 32 31 32 32 32 32 32 32 32 33 32 32 32
33 33 33 33 33 33 33 34 33 34 34 33 34 34 34 34
19 26 38 33 29 29 30 29 29 29 29 29 29 28 28 28
28 27 27 27 27 27 27 27 26 26 25 26 26 25 25 24
24 24 24 23 23 22 23 22 22 22 21 21 21 21 20 21
21 21 22 24 25 25 24 19 19 25 20 24 26 25 25 25
23 23 23 23 22 20 23 24 25 25 26 26 27 27 27 27
27 27 27 28 28 28 28 28 28 29 29 29 29 29 29 30
30 30 30 32 31 31 32 32 32 32 32 33 33 33 33 33
33 32 33 33 32 33 32 33 33 33 33 34 34 34 34 35
30 31 33 31 29 30 30 29 29 29 29 28 28 28 28 28
28 27 28 27 27 27 27 26 26 25 25 25 25 25 24 24
24 24 24 24 24 23 23 23 23 22 21 21 21 21 21 20
21 21 22 25 26 25 25 18 18 25 21 23 26 25 25 24
24 24 24 24 24 21 24 24 26 26 26 26 27 27 26 26
27 27 27 27 28 28 29 29 29 29 29 29 30 30 30 31
31 31 31 32 32 32 32 33 32 32 32 32 32 32 32 33
33 32 33 34 32 33 34 33 34 34 34 34 34 34 34 34
23 26 28 30 30 29 30 29 30 29 29 29 29 29 29 27
27 28 27 27 27 27 26 26 26 25 26 25 25 25 25 24
24 24 24 23 24 23 23 23 22 22 22 21 22 21 21 21
21 21 23 24 26 26 25 19 19 26 22 23 26 26 26 25
24 24 24 23 24 21 23 24 26 26 27 26 27 27 27 27
27 27 28 28 29 29 29 28 29 29 29 29 29 30 30 31
31 31 31 32 32 32 32 32 32 32 32 33 33 32 33 33
33 33 33 34 33 33 34 33 33 34 33 33 33 34 34 35
11 14 17 21 24 26 28 28 29 29 29 28 28 28 28 28
27 27 27 27 27 27 27 27 26 26 26 26 25 25 25 25
24 24 24 24 24 23 23 23 23 23 22 22 22 21 21 21
21 22 23 25 26 26 26 19 19 26 23 22 26 26 26 25
25 24 25 24 24 21 24 24 26 26 26 27 27 27 27 28
27 28 28 28 29 28 29 30 29 29 30 30 31 31 31 31
31 31 32 32 32 32 32 32 33 33 33 32 33 33 32 32
33 32 33 34 33 33 34 34 33 33 34 34 34 33 34 34
9 10 9 9 11 12 14 17 21 23 26 27 28 29 28 27
27 27 27 27 27 27 26 26 26 26 27 26 26 25 25 25
24 25 24 24 23 23 23 23 23 22 22 22 22 21 22 21
22 22 23 26 26 26 26 20 19 26 25 21 27 27 26 26
25 25 24 25 24 21 25 25 27 27 27 27 27 28 29 28
28 29 28 29 30 29 29 29 29 29 30 30 31 30 31 31
31 31 32 33 32 32 32 32 32 32 32 33 32 32 33 33
33 33 34 34 34 34 34 33 32 33 33 33 33 33 34 33
16 13 10 9 10 9 9 10 11 9 10 15 26 28 28 27
28 28 28 27 28 27 27 27 26 26 26 26 25 25 25 24
25 24 24 24 24 24 24 24 23 23 23 22 22 22 22 21
21 23 23 26 27 26 25 20 19 27 26 21 27 27 27 26
25 25 25 25 24 22 25 26 27 27 27 27 27 28 28 28
28 28 29 29 29 29 29 30 30 30 30 30 31 31 31 32
31 30 31 32 32 33 32 33 33 33 33 33 33 33 34 33
33 33 33 32 31 32 32 33 33 33 34 35 35 33 34 34
34 28 14 16 13 10 8 8 9 6 4 10 24 28 28 28
28 28 27 27 27 27 26 26 26 26 26 26 25 25 25 24
25 25 24 24 24 24 24 24 23 23 23 22 22 22 22 22
23 23 24 26 27 26 26 20 19 27 27 21 27 27 27 26
25 25 25 25 24 22 25 25 27 27 27 28 28 28 29 29
29 29 29 29 30 29 29 29 30 29 30 30 30 30 31 31
31 32 32 32 32 32 32 33 33 33 32 32 32 32 31 32
32 32 33 33 33 33 33 33 32 33 33 34 34 33 33 33
40 33 21 27 29 26 21 18 15 10 7 10 24 28 28 28
28 27 28 29 28 28 27 27 26 26 26 26 25 25 25 25
25 24 26 29 28 26 25 24 24 24 23 23 22 22 22 22
22 22 23 26 26 26 26 20 20 27 28 21 26 27 27 26
26 25 26 25 25 22 26 25 27 27 27 28 28 28 29 29
29 28 29 30 30 30 30 30 30 30 31 31 31 31 32 32
32 32 32 33 32 32 32 32 32 32 32 32 32 32 33 32
33 32 33 33 33 33 33 33 33 33 33 34 34 33 33 33
41 36 26 31 35 32 33 35 33 23 7 10 24 28 28 28
28 28 34 34 33 32 29 27 26 26 27 26 26 26 25 25
25 25 31 36 34 31 29 27 24 23 23 23 23 22 23 22
22 23 24 27 27 26 26 20 20 27 29 20 26 27 27 27
27 26 26 25 25 23 25 26 28 27 28 28 28 28 29 29
29 29 30 30 31 30 30 30 30 30 30 31 31 31 31 31
31 31 32 31 32 32 32 31 32 32 32 33 32 32 32 33
33 33 33 33 33 32 33 33 33 33 33 34 34 33 33 33
21 33 30 33 36 36 38 40 40 31 10 12 25 29 29 28
27 29 37 38 36 34 32 32 31 29 28 27 26 25 25 25
25 25 31 36 34 32 33 32 28 23 24 23 23 23 23 22
22 23 24 26 27 27 26 21 20 26 29 21 26 28 28 27
27 26 26 26 26 23 26 26 29 28 28 28 29 29 29 29
29 29 30 30 30 30 30 30 30 30 30 31 31 31 31 31
31 31 31 31 31 32 32 32 32 32 32 34 32 33 33 33
33 33 33 34 33 33 33 34 34 34 34 34 34 33 33 33
4 31 31 34 36 37 39 40 40 34 11 12 28 31 30 29
29 29 36 38 37 34 34 35 38 33 32 32 30 28 26 26
26 25 29 28 29 29 32 33 29 24 23 23 23 23 23 23
23 24 25 27 28 27 25 19 18 19 28 22 24 28 28 27
27 27 26 26 26 24 27 27 28 29 29 29 29 30 30 30
30 30 30 30 30 30 30 30 30 31 31 31 32 30 31 31
31 32 32 32 32 32 32 33 32 32 32 33 33 33 33 33
33 33 33 34 34 33 33 33 34 33 34 33 34 34 33 33
6 31 26 28 31 36 39 40 40 34 13 13 30 32 30 31
31 32 30 18 25 31 35 38 39 30 20 24 29 30 30 30
30 28 26 16 12 15 18 21 26 25 24 24 24 24 24 23
24 24 25 27 28 27 23 16 17 16 28 23 24 29 29 28
28 28 26 27 26 25 27 27 29 29 30 30 30 30 30 30
30 30 30 30 31 30 30 31 30 31 32 33 32 32 32 32
32 33 32 32 32 32 32 32 32 32 32 34 33 34 34 34
34 33 34 34 34 33 33 34 35 34 34 34 35 34 34 34
9 30 9 4 12 20 27 30 33 32 13 13 30 33 29 28
33 37 25 0 1 12 21 23 28 25 1 1 4 11 16 22
28 29 27 13 4 5 4 1 18 26 24 24 24 24 24 24
25 25 26 28 29 29 26 20 21 25 30 24 24 29 29 28
28 28 26 22 21 20 21 21 23 25 28 30 30 30 30 31
31 30 30 31 31 32 32 32 32 32 32 33 33 32 32 33
33 33 33 33 33 33 33 34 34 33 33 34 34 34 34 34
34 34 34 34 34 34 34 34 35 35 34 34 35 35 35 35
7 30 4 0 0 0 2 4 9 31 15 13 19 26 30 31
36 40 27 0 0 3 9 10 16 24 1 0 0 0 0 1
4 15 27 11 0 0 1 0 18 28 26 26 26 25 25 25
25 26 27 29 30 30 29 24 23 29 32 25 20 23 19 17
15 10 4 3 4 1 0 1 1 2 4 12 19 24 29 31
31 31 31 31 32 32 32 32 33 33 33 34 34 33 34 33
33 34 34 34 34 34 34 34 34 34 34 35 35 35 35 35
35 35 34 35 35 36 35 35 35 35 36 36 36 36 36 37
7 31 4 0 0 0 0 0 3 28 14 9 1 2 6 13
22 29 25 0 0 1 2 5 13 24 2 0 0 0 0 0
0 6 26 7 0 0 0 0 19 29 26 26 25 26 26 26
26 27 28 31 31 30 30 24 23 30 28 21 15 11 9 8
12 18 18 25 16 12 16 16 17 17 16 13 10 9 10 13
20 23 28 33 33 34 34 33 33 33 33 34 35 34 34 34
33 34 34 35 35 35 35 35 34 35 35 35 35 35 35 34
35 35 35 36 36 36 35 35 36 37 36 37 36 36 37 36
7 30 4 0 0 2 0 0 3 29 14 8 0 0 0 0
0 3 13 0 0 0 0 0 9 22 1 0 0 0 0 0
0 6 25 3 0 0 0 0 20 29 26 27 26 26 26 25
26 27 27 30 31 30 29 23 23 27 25 19 15 17 18 16
17 15 16 15 12 16 16 17 18 20 28 26 23 28 25 23
20 18 22 25 29 32 33 32 33 33 33 34 34 34 34 34
34 34 34 34 34 34 34 34 34 34 34 35 35 35 35 35
35 35 35 35 35 35 35 35 35 36 36 36 34 34 35 35
7 31 4 0 0 8 1 0 2 29 14 7 0 0 0 0
0 0 7 1 0 0 0 0 9 24 1 0 0 1 4 0
0 5 24 3 0 0 0 0 19 30 26 26 26 26 26 26
27 27 28 31 31 31 30 24 24 24 22 16 16 15 17 22
17 17 17 17 23 27 26 22 24 29 26 21 20 21 22 21
20 24 18 20 23 23 30 33 33 34 34 34 34 34 34 34
33 34 34 35 35 35 34 35 35 35 35 36 35 35 35 36
35 35 35 35 35 35 36 36 36 36 36 37 37 36 36 36
7 30 3 0 0 3 1 0 3 28 14 8 0 0 0 0
0 0 5 0 0 0 0 0 9 27 2 0 0 4 10 6
1 4 24 2 0 0 0 0 18 31 27 27 26 26 26 26
27 27 28 30 31 30 29 24 22 23 15 13 11 21 22 31
40 44 27 17 12 15 16 17 13 13 14 18 22 28 24 22
20 16 14 16 20 21 24 33 32 33 34 34 34 33 34 34
35 35 35 35 35 35 35 35 35 34 35 35 34 35 36 36
36 36 36 36 36 36 37 36 36 36 36 36 36 36 35 36
7 27 2 0 0 0 0 0 3 28 12 7 0 0 0 2
0 0 4 0 0 0 0 0 9 27 2 0 0 4 10 9
6 4 23 3 0 0 0 0 15 30 27 27 26 26 26 26
27 27 28 30 32 30 29 22 19 16 10 10 16 23 19 15
19 39 46 35 16 9 6 7 10 11 13 15 16 15 13 15
15 18 22 19 17 16 18 21 30 25 33 35 35 34 34 34
35 35 35 35 34 35 35 34 35 35 35 36 36 36 36 35
35 35 35 35 36 36 36 36 36 36 37 36 36 36 36 37
10 26 1 0 0 0 0 0 3 28 13 7 0 3 0 0
0 0 4 0 0 0 0 0 11 28 2 0 0 2 8 9
7 3 25 9 1 0 0 0 14 31 27 27 27 26 26 26
27 27 28 30 31 31 27 20 12 10 8 7 8 11 8 7
6 15 31 48 48 24 13 13 9 5 4 7 10 14 23 25
25 25 26 30 18 15 16 17 19 20 20 32 34 34 34 34
35 35 35 35 35 35 35 35 35 35 35 36 36 35 36 36
36 35 35 36 37 37 37 37 36 36 37 36 37 37 37 37
27 31 12 4 4 3 2 0 6 27 12 8 1 1 0 0
0 0 6 3 0 0 0 0 14 32 9 3 2 0 0 4
4 2 28 30 23 17 13 11 23 31 27 26 27 26 26 26
27 27 28 30 31 27 22 12 10 7 10 9 12 8 7 5
6 6 17 23 33 36 30 24 21 25 21 20 18 12 19 29
35 30 30 28 24 19 17 21 16 17 15 20 32 34 34 34
35 35 35 36 35 35 35 35 35 36 35 36 36 35 36 36
35 35 35 35 36 37 37 37 37 37 37 38 37 37 36 36
34 43 40 24 26 27 27 24 25 27 12 8 0 0 0 0
0 0 16 23 14 11 7 2 11 37 28 22 21 16 10 7
7 6 30 37 35 34 35 36 39 33 26 27 27 26 26 26
27 28 28 30 27 25 17 10 7 10 15 12 14 14 9 11
8 9 9 26 38 34 27 29 29 34 39 51 39 38 34 33
28 39 36 30 29 24 21 22 21 15 15 18 22 33 34 35
35 35 35 36 35 35 36 36 35 35 36 35 35 35 35 36
35 36 36 36 37 36 37 36 36 37 35 34 33 33 33 33
36 49 41 26 31 37 39 39 38 29 11 8 0 0 0 0
0 0 21 43 35 34 34 30 30 39 22 15 18 20 20 20
21 24 34 32 33 34 38 41 41 34 27 27 27 27 27 27
27 28 28 27 21 17 7 10 11 19 18 19 15 16 16 11
13 10 19 36 33 31 33 36 41 55 78 62 53 60 64 54
45 39 37 27 32 30 22 22 24 18 14 15 15 25 35 35
35 35 35 36 35 35 35 35 35 35 35 35 35 34 34 35
34 34 34 35 35 33 32 31 31 30 28 27 25 23 21 20
38 46 33 24 32 37 39 41 42 29 11 9 4 1 0 0
0 0 22 41 36 40 42 42 37 32 17 10 10 10 10 10
11 14 17 15 19 24 30 31 31 29 27 26 26 27 26 26
27 28 27 22 15 12 9 11 20 22 23 15 21 19 22 15
12 19 38 31 26 24 34 38 51 81 88 80 73 81 95 88
72 60 44 38 36 36 24 24 26 24 19 15 8 12 32 34
34 35 34 35 35 34 34 33 33 34 34 33 32 32 31 31
29 28 27 26 25 23 21 19 18 17 17 17 17 17 17 18
36 40 18 5 12 17 20 25 31 29 12 14 27 28 23 15
10 7 24 32 34 40 42 43 37 28 18 12 11 9 8 7
6 6 5 6 7 12 24 23 23 25 27 27 27 27 27 27
27 27 25 13 13 9 9 15 23 24 22 23 23 27 22 15
17 31 31 26 20 25 39 42 65 86 93 102 102 113 112 116
100 77 66 58 43 40 30 24 26 28 24 23 10 5 19 36
35 34 34 34 33 32 32 34 30 28 27 25 24 22 21 21
20 19 19 18 19 19 19 20 20 22 22 22 23 24 22 16
35 42 15 0 0 0 0 0 10 26 13 16 34 41 40 38
37 35 36 23 25 32 37 39 36 30 21 12 10 7 7 7
7 7 7 8 9 13 22 15 22 27 28 26 24 27 27 27
28 28 20 20 13 11 15 19 22 25 24 25 25 25 19 16
28 30 32 22 20 32 45 47 70 86 106 120 125 127 122 121
124 107 90 76 58 49 33 26 24 22 25 24 26 3 7 28
29 27 26 26 24 22 24 34 23 18 19 19 19 20 21 22
22 23 23 24 25 25 25 26 27 27 27 25 28 29 27 13
32 42 13 0 0 0 0 0 7 25 13 15 33 41 41 41
41 42 37 11 3 6 11 17 20 25 22 12 8 2 0 1
6 9 7 7 10 15 26 23 28 33 31 24 16 25 27 27
28 24 17 21 11 9 18 22 23 23 26 24 18 25 22 28
29 30 23 17 28 37 41 50 68 95 126 130 131 131 130 128
126 124 110 90 74 62 45 27 17 18 22 16 23 14 1 12
22 20 20 20 21 20 20 29 22 20 23 25 25 26 26 27
27 28 29 30 29 30 30 31 31 30 30 26 25 31 32 21
28 39 12 0 0 0 4 12 15 25 18 17 27 34 34 35
38 40 35 6 0 0 0 0 6 22 23 9 6 0 0 0
1 3 2 1 5 10 28 33 28 28 30 29 24 27 28 28
27 17 19 14 13 18 29 27 28 26 23 20 23 23 31 28
23 27 18 25 29 36 42 53 74 111 131 131 131 131 131 130
129 128 127 110 91 76 58 35 24 14 13 11 6 14 3 5
23 24 24 25 27 26 24 31 25 25 28 29 30 30 31 31
32 32 32 32 32 32 32 33 33 31 32 33 28 27 33 29
25 34 8 0 0 0 8 20 21 23 21 18 21 23 26 28
29 34 31 4 0 0 0 0 0 22 23 8 4 0 0 1
0 0 0 0 0 4 27 32 23 22 24 26 29 29 28 27
26 14 18 14 16 28 37 37 31 24 25 21 22 24 28 27
33 21 29 23 31 35 42 54 89 117 131 131 131 131 131 130
130 130 130 125 109 93 83 45 39 18 9 9 7 3 4 3
24 30 30 30 31 30 26 26 24 28 31 32 32 33 33 34
34 34 34 34 34 35 34 32 34 32 31 34 35 28 26 30
26 34 7 0 0 0 2 11 15 19 17 16 17 18 21 25
26 33 31 3 0 0 0 0 0 21 19 2 0 0 0 4
4 0 0 0 0 3 27 33 19 22 26 23 25 28 27 27
20 21 17 18 22 39 49 49 32 27 28 21 21 29 24 30
27 28 22 28 31 41 41 62 92 119 131 131 131 131 131 130
130 130 129 128 124 104 101 67 44 45 11 5 10 2 0 0
18 32 33 32 32 32 21 10 13 28 33 35 35 34 34 34
34 35 35 35 35 35 35 33 31 33 31 34 36 35 28 25
29 34 7 0 0 0 0 0 2 14 13 16 14 13 19 24
27 33 30 4 0 0 0 0 0 23 14 0 0 0 0 2
8 5 1 0 0 3 27 34 17 17 20 20 26 29 28 28
21 24 19 22 32 51 56 43 38 34 29 23 28 32 28 28
33 25 29 26 36 38 42 67 100 119 127 131 131 131 131 131
130 130 131 130 129 120 105 92 60 46 30 7 6 3 0 0
16 34 32 29 26 29 19 7 7 27 34 35 36 35 35 35
35 36 36 37 36 36 36 35 33 32 31 32 36 36 34 24
31 35 6 0 0 0 0 0 1 17 15 16 3 0 1 4
7 11 18 3 0 0 0 0 0 25 12 0 0 0 0 4
11 9 5 0 0 3 27 35 19 16 16 18 25 28 27 27
22 22 23 25 46 56 53 45 48 34 31 29 37 27 28 27
30 31 24 29 39 41 48 77 98 109 126 132 131 131 131 130
131 130 130 131 130 127 117 100 88 62 43 27 14 1 0 1
12 30 14 7 7 21 18 5 6 26 35 36 36 36 36 35
35 36 36 36 36 36 36 35 35 33 31 30 34 36 35 29
33 34 5 0 0 0 0 0 2 22 20 19 3 0 0 0
0 0 6 2 0 0 0 0 0 24 10 0 0 0 1 12
15 11 6 0 0 3 27 35 24 18 12 14 24 27 27 26
18 27 25 35 51 49 55 48 46 44 36 42 27 26 28 32
31 27 28 31 37 44 54 74 95 110 123 129 131 130 130 131
131 131 131 131 130 129 124 113 101 92 66 39 21 1 0 0
8 32 20 19 23 28 18 0 4 25 34 35 36 35 36 36
36 36 36 36 36 36 36 35 36 35 32 29 30 32 30 28
30 30 8 0 0 2 0 0 2 26 21 18 4 0 0 0
0 0 5 2 0 2 6 0 0 23 8 0 0 0 0 6
13 3 0 0 0 3 25 36 25 15 5 7 21 27 27 24
17 32 29 42 41 50 55 49 48 46 41 24 19 27 31 32
27 31 31 34 39 48 59 75 92 107 123 130 131 131 131 130
131 131 131 131 130 130 128 119 109 102 93 77 54 8 0 0
6 35 34 33 33 32 20 1 5 26 34 36 36 35 36 36
35 36 36 36 36 36 36 35 36 36 35 32 28 27 26 30
21 25 19 10 4 9 9 4 4 26 20 17 4 0 0 5
0 0 5 2 0 7 10 2 0 23 7 0 0 0 0 0
10 1 0 0 0 0 22 36 22 9 2 5 21 27 28 21
24 36 33 37 30 48 48 52 47 33 25 15 25 25 29 29
29 30 33 34 38 48 60 77 91 104 113 125 131 130 130 131
131 130 131 131 131 130 129 122 113 105 103 92 77 34 0 0
3 34 35 35 33 32 25 4 6 28 34 35 36 36 36 36
36 36 36 36 36 36 36 35 35 36 35 35 30 25 26 33
16 25 24 24 22 24 27 26 24 32 21 16 3 0 5 12
2 0 6 12 7 16 15 10 4 24 7 0 0 0 0 0
9 3 0 0 0 0 20 35 16 7 1 4 21 27 29 15
32 41 34 23 23 36 42 44 28 16 14 20 23 26 23 29
26 28 32 28 34 46 64 80 96 104 110 129 129 131 131 131
131 131 131 130 130 129 129 122 114 106 104 98 78 57 7 0
3 33 35 35 33 31 27 15 17 31 35 36 37 36 36 36
36 35 36 36 36 36 36 36 35 36 36 35 33 26 27 34
20 26 20 6 5 11 18 25 35 34 23 15 4 0 4 7
1 0 9 31 31 34 31 31 30 34 9 0 0 0 0 0
11 4 0 0 0 0 16 34 13 4 0 7 22 27 26 14
40 44 26 16 22 26 28 24 15 19 24 20 16 17 22 28
31 32 30 35 38 50 66 80 96 95 109 122 128 131 131 131
131 131 131 131 131 130 129 124 116 109 104 101 84 68 21 0
9 35 35 35 34 31 29 26 27 33 36 37 37 36 36 36
36 36 36 36 36 36 36 36 36 36 36 36 34 27 26 34
22 27 17 0 0 4 6 12 34 33 21 16 7 0 0 0
0 0 9 34 36 38 38 40 44 42 21 12 11 5 3 5
15 8 3 2 1 0 12 30 13 2 2 5 17 26 21 17
44 37 16 12 16 18 22 25 15 14 11 12 14 22 28 30
30 35 38 38 35 45 66 80 85 89 108 124 131 132 131 131
131 130 131 131 130 130 128 123 117 109 107 102 89 71 35 0
26 36 35 35 34 32 30 30 33 35 36 36 37 36 36 36
36 36 36 37 36 36 36 36 36 36 36 36 34 27 24 26
23 28 15 0 0 12 18 19 32 28 18 18 16 3 0 0
0 0 8 32 34 36 36 39 43 42 32 27 27 24 23 23
24 19 16 14 13 12 19 30 19 11 11 7 11 24 18 25
45 26 9 6 10 15 19 18 19 11 9 15 24 26 27 29
30 34 36 33 31 45 64 78 84 94 111 128 131 131 131 131
132 130 131 131 131 130 128 123 118 112 107 103 90 71 46 15
34 36 34 34 34 33 33 33 36 36 36 36 37 36 36 37
37 37 37 36 36 36 37 36 36 36 36 36 34 27 24 27
25 30 14 0 0 4 16 24 34 26 16 19 14 1 0 0
0 0 9 30 30 32 32 33 32 31 31 31 33 31 30 31
30 28 27 25 23 22 25 34 32 28 25 21 20 24 15 30
33 15 7 2 6 11 18 20 10 3 10 12 18 23 30 33
34 29 31 28 38 52 60 73 88 107 126 132 132 132 132 131
132 131 131 131 131 129 128 124 118 111 106 101 93 73 55 31
36 35 35 35 35 34 34 34 35 35 36 36 37 37 37 37
36 36 36 37 37 36 37 36 36 36 34 35 34 27 26 31
27 32 16 0 0 0 2 20 35 25 17 18 15 5 2 2
0 0 10 33 30 30 30 29 28 29 31 32 34 35 35 32
31 31 33 37 34 31 31 36 36 35 35 33 30 25 14 22
20 11 3 0 8 15 16 9 2 2 5 9 18 21 25 28
28 29 29 39 47 46 57 75 106 128 132 131 132 131 131 131
131 131 131 131 130 130 128 125 120 112 104 99 91 75 57 35
35 35 35 35 35 34 35 36 36 36 36 36 36 37 36 36
36 36 36 36 36 37 37 36 36 36 34 34 34 27 25 31
27 33 15 0 0 0 0 15 36 26 17 18 24 29 27 23
22 22 27 37 31 31 31 31 33 35 36 34 36 41 41 32
29 30 36 42 39 36 36 34 29 25 25 25 26 24 18 15
13 4 0 2 10 14 7 2 2 7 8 10 13 21 26 28
30 29 35 39 43 48 62 93 123 132 132 132 131 132 132 132
131 131 131 131 130 130 128 126 121 113 105 96 91 77 60 36
36 36 36 35 36 35 36 36 36 36 37 37 37 37 36 37
37 37 36 37 36 37 37 36 36 36 36 36 35 29 25 32
27 33 13 0 0 0 0 15 37 26 17 18 30 43 43 42
43 44 44 42 33 31 31 32 35 39 40 35 37 40 41 33
28 26 33 39 38 37 38 35 31 25 23 22 24 21 17 8
12 3 0 4 11 7 4 28 52 47 27 19 20 24 28 33
33 34 35 37 45 57 91 121 132 132 132 132 131 131 131 130
131 131 130 130 129 130 125 122 123 115 108 95 91 79 63 37
36 35 36 35 36 36 36 37 37 37 37 37 36 37 36 37
37 36 36 37 36 36 36 36 36 35 36 36 35 29 25 31
26 33 12 0 0 0 0 14 38 26 16 19 28 40 41 42
43 44 45 41 23 17 15 16 21 30 39 35 32 28 29 27
24 24 29 25 18 19 25 26 31 31 28 28 30 22 21 7
12 5 1 2 4 7 82 126 131 130 115 68 59 63 61 70
60 48 52 47 66 101 129 132 133 132 131 132 132 131 131 130
127 123 118 113 110 115 116 115 117 113 109 97 86 83 70 40
36 36 36 35 37 36 37 37 36 36 35 36 36 37 36 36
36 36 36 36 36 36 36 36 36 36 36 36 35 29 25 31
26 33 12 0 0 0 0 12 35 23 16 19 20 24 25 26
27 29 31 30 7 0 0 0 1 10 34 34 18 5 6 8
12 23 27 12 1 0 3 11 25 27 26 28 31 22 24 4
12 3 0 1 2 53 129 115 105 129 133 132 127 121 108 113
107 99 105 104 118 126 131 132 131 132 132 131 131 120 97 96
88 88 76 65 59 54 70 96 105 104 101 96 84 87 77 46
34 35 34 34 36 36 36 36 36 36 37 36 37 36 36 36
37 36 36 36 36 36 36 36 36 36 36 36 35 30 26 31
26 34 13 0 0 0 0 12 35 24 15 18 22 26 26 26
25 24 24 23 6 0 0 0 0 9 33 28 5 0 0 0
5 24 29 11 0 0 0 7 20 14 9 12 14 21 26 5
9 0 0 0 3 97 120 101 129 133 126 132 132 132 130 129
126 124 126 129 129 131 132 131 132 131 131 131 127 111 84 69
70 62 58 51 36 28 23 32 52 74 82 85 80 87 82 53
26 26 25 23 26 33 37 37 36 37 36 36 36 36 36 36
36 36 36 36 37 37 36 36 36 35 36 36 36 30 25 31
31 30 11 0 0 0 0 14 38 26 15 18 23 30 31 30
30 30 30 25 7 0 0 0 0 12 33 21 0 0 0 0
2 25 29 11 0 0 0 5 19 8 2 7 3 15 22 2
4 0 0 0 10 116 114 128 134 134 131 132 133 133 132 126
124 122 123 125 127 129 131 132 132 131 131 131 129 119 109 100
83 83 79 72 56 36 18 10 15 25 41 63 73 84 83 54
12 11 11 10 14 30 37 37 37 36 37 37 37 36 36 36
36 35 36 36 36 37 36 36 35 36 36 37 36 31 26 30
31 25 16 9 6 4 4 18 36 25 17 21 26 32 33 33
32 33 34 28 6 0 0 0 0 6 29 16 0 0 0 0
2 26 28 10 0 0 0 3 19 9 2 7 3 10 13 0
1 0 0 0 17 120 118 134 133 133 132 131 132 132 133 129
121 119 123 125 127 131 131 132 131 131 131 131 131 129 127 120
113 105 103 100 93 77 49 24 24 27 26 41 69 79 80 50
11 9 8 8 12 31 37 37 38 36 36 37 36 36 36 36
35 36 36 36 36 37 36 36 36 36 36 36 36 32 25 30
28 27 27 27 26 24 22 26 30 27 25 27 28 30 31 31
31 31 31 28 9 0 0 0 2 3 27 14 0 0 0 0
2 25 26 9 0 0 0 0 17 10 1 4 2 7 5 0
0 0 0 0 17 118 125 133 134 133 122 109 133 132 132 129
116 116 121 124 127 130 131 131 131 132 132 131 131 131 129 123
113 97 89 82 74 71 60 45 40 34 30 47 70 74 68 39
10 8 8 8 12 29 37 37 37 37 37 36 36 36 36 36
36 36 35 36 35 36 36 36 36 36 36 36 36 32 25 28
27 28 27 27 27 28 28 28 27 28 28 27 28 28 28 28
29 29 29 28 19 1 0 0 2 2 24 12 0 0 0 0
1 25 28 11 0 0 0 0 16 13 1 4 2 6 2 0
0 0 0 2 9 110 128 134 133 123 74 105 134 133 133 131
118 116 122 125 130 132 132 131 132 132 132 131 131 131 124 110
103 107 92 71 53 32 25 43 61 58 53 65 74 60 43 22
5 9 8 8 10 28 37 37 37 37 37 37 36 36 35 36
36 35 36 34 35 36 37 37 36 36 35 36 37 32 24 27
25 26 26 26 26 26 26 26 26 26 26 27 27 27 27 27
28 27 27 27 20 1 0 0 0 2 25 13 0 0 0 0
0 22 27 12 0 0 0 0 15 15 0 0 0 7 6 0
0 0 0 3 4 96 132 133 133 110 118 129 132 133 133 131
117 113 119 127 131 131 132 132 132 132 132 131 132 131 128 123
115 98 83 73 36 16 24 45 83 99 94 89 63 36 17 9
2 11 11 11 12 26 36 36 35 36 36 36 36 35 35 36
36 36 36 35 34 32 34 35 36 36 35 35 36 33 25 27
11 10 11 11 11 11 11 11 11 11 11 12 12 13 14 15
15 17 22 26 19 0 0 0 0 0 23 14 0 0 0 0
0 21 28 10 0 0 0 0 13 19 0 0 0 6 10 0
0 1 1 3 2 85 133 133 128 118 133 125 132 132 132 131
119 113 122 128 132 132 131 132 131 131 131 131 131 131 131 130
129 125 95 104 61 38 63 74 94 121 119 90 31 8 7 6
11 14 14 15 15 24 35 36 36 37 36 36 36 35 35 35
36 35 35 20 10 9 12 27 36 35 35 35 35 32 25 26
0 0 0 0 0 0 0 0 0 0 0 0 0 0 0 0
0 2 18 25 21 2 0 0 0 1 23 19 1 1 2 1
1 21 30 16 7 5 7 9 21 23 1 0 0 4 9 0
1 3 1 3 1 74 132 133 124 130 132 123 133 133 133 132
122 117 120 125 131 131 132 131 132 131 131 131 132 132 132 131
131 131 117 75 50 49 88 115 124 130 128 94 16 14 18 16
11 12 11 11 11 23 36 36 37 36 37 37 37 36 36 35
36 36 34 10 0 0 0 20 36 35 35 35 35 32 25 26
0 0 0 0 0 0 0 0 0 0 0 0 0 0 0 0
0 1 20 26 24 15 10 12 19 18 27 30 24 21 23 23
25 33 33 26 31 31 32 36 40 34 16 12 11 13 7 0
3 1 5 3 0 52 133 133 120 133 130 124 132 132 133 131
124 119 120 124 127 131 131 131 131 131 131 131 131 131 131 130
131 127 117 102 66 57 96 125 131 130 129 101 17 1 15 15
9 9 9 9 9 23 36 36 36 36 36 36 36 36 35 35
35 35 32 9 0 0 0 14 35 35 35 35 35 32 26 26
0 0 0 0 0 0 0 0 0 0 0 0 0 0 0 0
0 0 19 27 27 31 32 34 35 32 30 35 43 42 41 42
44 45 37 27 34 38 41 46 48 42 29 27 27 27 10 1
5 3 9 3 0 27 127 133 122 133 133 126 132 132 133 132
122 126 124 125 128 130 130 130 132 131 131 131 131 132 131 130
131 128 118 101 83 79 105 126 131 130 130 109 35 18 23 17
9 10 10 9 10 23 37 37 36 36 36 36 36 36 36 36
35 35 32 7 0 0 0 8 35 36 35 35 35 33 26 26
0 0 0 0 0 0 0 0 0 0 0 0 0 0 0 0
0 0 19 29 27 31 35 37 36 30 26 28 37 38 38 38
39 40 36 26 29 34 37 38 39 36 29 28 28 27 10 0
6 9 8 4 1 12 100 135 134 133 133 130 124 132 132 131
124 127 126 126 130 130 131 131 131 131 131 131 131 131 131 131
129 126 116 104 91 105 126 130 131 131 130 118 53 30 33 17
9 9 9 9 10 23 37 37 37 37 37 36 36 36 36 32
21 19 17 3 0 0 0 7 35 36 35 35 35 32 27 25
0 0 0 0 0 0 0 0 0 0 0 0 0 0 0 0
0 0 18 28 26 28 30 33 36 32 26 24 25 25 25 25
25 26 28 26 27 29 31 28 27 27 29 30 29 28 13 4
11 13 9 5 0 7 69 130 134 133 133 133 133 133 133 131
127 126 127 124 127 130 130 131 132 132 132 132 131 132 131 131
127 120 113 102 100 121 130 130 131 131 131 127 73 29 34 17
9 10 9 9 11 24 36 37 36 37 36 36 36 36 35 17
0 0 0 0 0 2 0 7 34 35 35 35 35 33 27 25
0 0 0 0 0 0 0 0 0 0 0 0 0 0 0 0
0 0 16 28 26 22 19 21 25 24 22 24 22 22 24 27
27 26 29 31 33 35 35 31 27 27 29 30 29 29 17 2
9 9 9 11 1 4 58 108 132 135 134 133 133 133 133 131
128 126 125 127 127 128 131 132 132 132 132 132 132 131 132 131
126 115 108 103 111 124 131 129 131 131 130 127 103 40 33 16
9 9 9 9 10 24 36 37 37 36 37 37 37 37 34 10
0 0 0 0 0 1 0 6 34 35 35 35 36 34 26 25
0 0 0 0 0 0 0 0 0 0 0 0 0 0 0 0
0 0 14 28 25 15 1 2 5 7 14 25 28 34 34 39
39 28 27 28 30 35 39 36 30 28 29 29 30 29 22 1
5 6 6 15 4 2 49 93 111 132 134 134 134 133 133 132
130 129 127 127 129 129 132 132 131 132 132 132 132 132 132 130
126 115 108 108 113 124 131 131 131 130 130 129 118 61 34 18
9 10 10 9 9 24 37 37 36 36 37 37 36 37 35 17
0 0 0 0 0 0 0 6 34 35 35 35 34 34 28 26
0 0 0 0 0 0 0 0 0 0 0 0 0 0 0 0
0 0 11 28 24 12 0 0 0 0 14 27 29 37 35 37
36 12 5 7 8 15 35 38 30 28 28 29 29 28 23 1
4 3 5 14 6 2 45 88 100 113 132 134 133 133 132 130
130 129 126 127 129 129 131 132 132 132 132 132 132 132 131 130
125 120 114 111 111 123 131 131 130 131 131 130 125 90 35 20
12 13 10 11 11 23 36 37 37 37 36 37 37 36 36 30
5 0 0 0 0 0 0 3 25 36 36 35 35 34 29 26
0 0 0 0 0 0 0 0 0 0 0 0 0 0 0 0
0 0 10 26 25 12 0 0 0 0 12 27 27 34 22 14
25 5 0 0 0 3 29 37 30 29 29 29 30 29 25 3
4 5 6 16 8 2 37 85 96 109 115 115 126 133 131 131
130 128 126 125 129 130 132 132 131 132 132 132 132 132 132 131
130 124 117 113 113 121 130 130 130 130 130 130 127 107 48 30
28 28 23 25 27 31 37 37 37 37 37 37 37 34 25 26
9 0 0 0 0 0 0 0 13 35 35 35 34 33 29 26
0 0 0 0 0 0 0 0 0 0 0 0 0 0 0 0
0 0 7 26 24 13 0 0 0 0 13 26 26 33 15 2
20 6 0 0 0 2 26 37 31 29 29 29 29 28 26 8
3 4 1 8 6 4 35 77 91 107 119 107 107 129 126 126
125 128 128 129 130 130 130 131 132 131 132 132 132 132 132 131
131 126 119 113 110 117 128 129 129 128 130 131 129 116 67 36
36 36 35 36 36 36 37 37 37 38 37 37 35 23 3 1
8 8 0 0 0 0 0 0 9 35 35 36 35 34 28 25
0 0 0 0 0 0 0 0 0 0 0 0 0 0 0 0
0 0 6 26 25 15 0 0 0 0 15 26 26 34 16 2
20 8 0 0 0 0 22 37 30 28 28 29 28 29 27 17
6 3 2 2 7 7 31 69 86 105 124 114 110 121 120 122
124 129 131 130 131 131 131 132 132 131 131 132 132 132 132 131
130 127 120 113 107 115 129 131 131 131 130 130 130 120 79 37
36 37 37 37 37 33 31 30 28 26 25 25 16 2 0 0
6 6 0 0 0 0 0 0 3 31 35 35 35 33 28 25
0 0 0 0 0 0 0 0 0 0 0 0 0 0 0 0
0 0 5 24 23 14 0 0 0 0 15 26 27 34 15 2
18 9 0 0 0 0 20 36 30 29 29 29 29 29 28 23
7 0 2 2 2 7 26 71 84 102 123 112 108 115 116 122
125 129 126 130 131 131 131 132 132 132 132 132 132 132 131 131
131 128 122 112 106 115 127 131 131 130 130 130 129 111 76 36
36 36 36 35 27 10 7 54 27 2 2 3 0 0 0 7
0 0 0 0 0 0 0 0 0 23 35 34 34 33 28 25
0 0 0 0 0 0 0 0 0 0 0 0 0 0 0 0
0 0 4 25 24 17 1 0 0 0 12 26 27 34 16 2
18 12 0 0 0 0 19 36 30 29 29 29 29 28 28 27
13 1 1 5 1 5 34 68 85 99 118 110 104 111 113 121
124 129 130 132 132 131 132 132 132 133 132 132 132 132 131 131
131 130 122 112 108 114 124 131 127 115 94 113 116 90 54 34
35 35 35 34 19 0 50 129 104 12 5 21 1 0 2 14
0 0 0 0 0 0 0 0 0 7 21 21 27 33 29 25
0 0 0 0 0 0 0 0 0 0 0 0 0 0 0 0
0 0 4 24 23 17 2 0 3 1 11 28 28 36 21 5
16 14 3 2 2 0 18 35 30 28 29 29 28 28 29 28
20 5 1 0 0 5 35 67 85 99 115 108 102 107 114 121
125 128 130 130 131 130 132 132 132 132 132 132 132 132 132 132
132 129 122 112 113 114 101 103 92 78 88 102 80 47 34 34
35 34 25 22 10 2 58 99 94 22 12 24 18 13 17 23
13 9 8 7 6 6 6 6 4 4 6 5 20 33 29 26
0 0 0 0 0 0 0 0 0 0 0 0 0 0 0 0
0 0 4 23 24 19 4 0 9 10 13 29 29 36 26 9
16 13 5 7 3 0 16 34 30 29 29 29 29 29 28 28
23 7 1 0 0 12 33 67 88 98 112 107 99 105 113 119
125 129 132 133 132 131 132 132 133 132 132 132 133 132 132 132
131 129 125 115 121 125 113 109 118 121 85 45 34 30 31 33
34 34 15 14 14 15 18 21 22 23 25 28 29 30 29 28
25 23 20 18 16 14 14 13 12 12 11 11 25 37 33 29
0 0 0 0 0 0 0 0 0 0 0 0 0 0 0 0
0 0 3 23 24 21 19 19 24 26 28 35 31 36 25 15
17 16 10 12 8 6 17 29 28 29 29 29 29 29 28 28
25 9 1 0 0 20 45 67 87 99 112 106 99 101 109 114
121 125 129 132 130 132 132 132 132 132 132 131 132 132 132 132
131 131 127 121 126 128 123 120 118 116 72 26 28 29 31 33
34 34 15 11 12 12 13 13 14 15 17 19 22 19 19 17
13 9 7 5 4 10 33 35 37 37 39 40 45 47 44 39
0 0 0 0 0 0 0 0 0 0 0 0 0 0 0 0
0 0 3 22 23 24 37 42 42 42 44 42 34 34 18 13
17 23 20 20 19 19 21 26 27 28 29 29 29 28 28 28
27 18 6 6 0 12 47 71 86 99 111 107 99 99 104 112
121 124 126 130 132 133 133 132 131 132 132 132 132 132 132 131
132 131 128 125 125 123 117 113 113 104 60 25 28 29 30 32
34 34 23 6 0 0 0 0 0 0 0 0 0 0 0 0
0 0 0 0 0 21 54 55 55 55 54 53 51 47 45 39
0 0 0 0 0 0 0 0 0 0 0 0 0 0 0 0
0 0 2 21 22 24 40 45 44 44 44 43 36 33 13 6
15 25 23 23 23 23 23 25 26 27 28 28 29 29 29 28
28 25 16 14 3 11 47 70 88 98 113 110 98 97 100 109
120 123 123 129 132 132 132 132 132 132 132 132 132 132 133 132
132 131 125 121 120 115 109 111 113 90 55 25 26 27 29 31
34 34 23 1 0 0 0 0 0 0 0 0 0 0 0 0
0 0 0 0 0 33 52 52 52 51 49 44 45 42 38 36
0 0 0 0 0 0 0 0 0 0 0 0 0 0 0 0
0 0 2 21 22 21 27 28 28 27 27 25 26 31 11 1
13 26 26 27 27 27 27 27 27 27 29 28 29 28 29 28
27 26 21 14 10 18 49 80 90 99 112 112 98 94 101 107
114 120 126 127 129 131 132 132 132 132 132 132 132 132 132 131
131 129 120 117 117 114 116 122 120 84 61 25 26 27 29 31
32 33 15 0 0 0 0 0 0 0 0 0 0 0 0 0
0 0 0 0 2 32 37 38 44 39 37 30 32 32 29 30
0 0 0 0 0 0 0 0 0 0 0 0 0 0 0 0
0 0 2 20 22 19 16 14 14 15 15 14 20 32 13 1
13 26 27 27 28 27 27 27 27 27 27 28 28 29 28 28
27 23 15 10 9 18 39 76 93 100 113 114 101 92 98 105
112 116 122 126 131 130 132 133 133 132 132 132 132 132 132 132
132 129 120 117 117 125 126 122 111 94 72 25 25 27 29 30
32 31 11 0 0 0 0 0 0 0 0 0 0 0 0 0
0 0 0 0 0 7 6 6 30 32 29 25 25 24 24 28
0 0 0 0 0 0 0 0 0 0 0 0 0 0 0 0
0 0 2 21 22 19 17 16 16 15 15 13 21 33 20 13
21 28 26 26 27 27 27 27 27 27 27 27 27 27 28 27
27 22 18 17 10 23 51 80 94 101 113 116 106 93 89 97
105 111 118 118 124 126 130 130 132 132 132 133 132 132 132 132
130 127 114 112 118 113 92 79 78 78 46 26 26 27 28 29
30 26 3 0 0 0 0 0 0 0 0 0 0 0 0 0
0 0 0 0 0 0 0 0 18 35 33 32 30 30 29 28
0 0 0 0 0 0 0 0 0 0 0 0 0 0 0 0
0 0 6 23 23 20 20 20 19 19 18 15 23 34 31 32
34 29 25 26 27 27 26 26 27 26 27 27 27 27 27 27
27 24 21 22 18 32 56 84 96 104 113 117 110 98 90 93
98 106 112 117 119 122 125 126 128 129 132 132 132 132 132 132
126 107 79 81 77 68 58 49 41 33 27 26 26 27 27 28
29 18 0 0 0 0 0 0 0 0 0 0 0 0 0 0
0 0 0 0 0 0 0 0 10 33 33 32 31 30 30 29
0 0 0 1 1 2 2 3 4 5 6 7 8 8 9 10
11 12 16 22 21 20 20 21 21 20 20 15 20 27 25 28
29 25 24 25 26 26 26 26 26 26 26 26 26 26 26 26
26 24 23 22 21 36 60 84 94 104 113 118 114 103 94 90
92 98 105 113 117 118 121 121 124 129 127 129 132 131 131 126
113 105 121 112 105 103 96 80 54 23 24 25 26 27 26 26
26 6 0 0 0 0 0 0 0 0 0 0 0 0 0 0
0 0 0 0 0 0 0 0 4 29 30 28 28 29 27 27
10 11 13 14 15 15 16 17 17 17 17 18 19 18 19 19
20 19 19 20 20 19 21 21 20 21 20 17 18 21 20 21
22 23 24 26 26 26 25 26 25 26 25 25 26 26 27 26
26 25 25 25 27 57 71 85 94 102 113 118 117 111 99 88
87 91 101 105 111 114 118 119 120 122 124 125 127 126 123 118
116 120 125 123 121 114 103 92 71 34 22 24 25 26 25 25
21 2 0 0 0 0 0 0 1 4 0 0 0 0 0 0
0 0 0 11 1 0 0 0 0 22 23 18 20 20 18 18
16 14 17 19 19 19 19 19 19 19 19 20 19 19 19 19
19 18 19 19 20 19 21 21 21 20 20 18 20 21 21 20
22 23 24 25 25 25 25 25 25 25 26 26 26 26 26 26
25 25 24 26 37 69 81 89 96 103 114 120 119 113 105 95
95 84 92 100 107 109 113 116 116 119 121 122 123 123 121 119
120 121 120 117 113 104 90 70 62 30 22 24 25 25 25 24
13 0 0 0 0 0 0 0 0 0 0 0 0 0 0 0
0 0 2 22 0 0 0 0 0 16 20 18 20 19 15 17
15 13 16 18 18 18 18 18 19 24 25 13 8 10 14 14
9 11 17 17 17 19 21 21 20 20 20 18 20 21 21 21
22 22 24 24 25 25 24 25 25 25 25 25 24 25 25 25
25 25 29 29 48 84 93 92 96 102 113 120 122 117 112 102
95 89 88 90 97 101 109 112 112 114 118 121 117 114 112 118
118 119 118 113 105 86 57 44 28 11 21 24 24 24 24 23
9 0 0 0 0 0 0 0 0 0 0 0 0 0 0 0
0 0 11 25 0 0 0 0 0 10 23 25 25 24 22 24
11 10 11 12 12 12 12 15 32 43 27 2 0 0 0 1
0 0 8 12 12 12 11 9 10 15 20 19 21 21 22 21
22 22 23 23 24 24 24 24 25 24 24 24 24 24 24 23
21 25 32 21 60 92 98 93 95 100 109 118 123 121 115 108
97 93 88 87 91 98 102 103 107 109 113 114 112 113 110 113
112 113 114 111 102 82 62 52 15 10 21 23 24 24 24 24
4 0 0 0 0 0 0 5 0 0 0 0 0 0 0 0
0 0 14 18 0 0 0 0 0 4 24 27 26 27 26 26
0 0 0 0 1 3 5 25 49 36 6 0 0 0 0 0
0 0 0 0 0 0 0 0 0 1 14 19 19 20 22 22
21 22 22 23 23 23 24 24 23 23 23 23 23 21 20 21
20 33 36 24 75 98 101 95 94 100 107 117 122 123 116 109
100 98 97 90 91 95 95 99 101 104 108 110 112 110 112 108
110 112 110 109 98 77 61 36 17 17 21 24 23 23 24 26
1 0 0 0 0 0 1 11 0 0 0 0 0 0 0 0
0 0 3 3 0 0 0 0 0 0 12 21 22 22 22 24
0 0 0 0 0 5 14 41 44 13 0 0 0 0 0 0
0 0 0 0 0 0 0 0 0 0 7 20 20 21 21 22
22 21 22 23 23 23 23 23 23 23 23 23 23 19 17 21
27 39 39 34 88 102 102 96 93 97 107 116 122 122 120 117
107 100 97 93 96 93 93 96 97 98 102 103 107 111 108 109
112 111 115 113 100 78 57 23 19 21 21 21 22 22 22 13
0 0 0 0 0 0 0 0 0 0 0 0 0 0 0 0
0 0 0 0 0 0 0 0 0 0 2 10 15 14 15 23
0 0 0 0 0 5 26 41 23 1 0 0 0 0 0 0
0 0 0 0 0 0 0 0 0 0 6 20 21 21 21 21
22 21 21 22 23 23 23 22 22 22 23 23 21 16 14 18
34 42 46 51 95 105 105 97 92 97 105 117 120 119 122 118
114 106 100 97 96 94 93 92 93 92 94 97 101 106 107 111
111 113 113 111 99 76 50 28 22 18 16 13 13 13 12 3
0 0 0 0 0 0 0 0 0 0 0 0 0 0 0 0
0 0 0 0 0 0 0 0 0 0 6 9 17 18 19 23
0 0 2 2 0 5 35 35 5 0 1 3 0 0 0 0
0 0 0 0 0 0 0 0 0 2 16 22 23 21 21 22
23 22 22 22 22 22 23 22 22 22 21 21 18 15 15 24
38 42 56 75 100 108 107 98 93 96 104 114 119 122 121 116
117 110 106 100 96 87 83 84 87 83 82 88 96 98 102 107
109 111 114 108 95 70 44 14 9 4 3 2 2 1 0 0
0 0 0 0 0 0 0 0 0 0 0 0 0 0 0 0
0 0 0 0 0 0 0 0 0 0 10 16 19 25 25 25
0 2 6 6 0 9 41 26 3 12 19 18 2 0 0 0
0 0 0 0 0 0 0 0 0 9 18 19 19 19 20 21
22 21 21 21 22 22 22 22 22 21 20 20 18 17 19 33
40 43 63 90 105 110 109 99 93 95 104 114 118 125 120 120
121 116 109 109 97 90 82 82 79 77 74 74 79 91 98 101
105 104 105 99 82 65 31 0 0 0 0 0 0 0 0 0
0 0 0 0 0 0 0 0 0 0 0 0 0 0 0 0
0 0 0 0 1 0 0 0 0 0 6 11 11 25 26 26
10 9 9 6 0 14 36 13 8 25 26 24 8 0 5 8
1 0 0 0 0 0 0 0 0 0 2 3 3 7 19 21
22 22 21 22 22 21 21 21 21 21 19 18 19 18 25 35
42 46 64 84 106 113 112 101 93 95 105 116 120 124 124 124
121 116 112 108 103 93 76 66 66 66 66 63 66 75 85 93
96 96 95 91 69 61 19 2 0 0 0 0 0 0 0 0
0 0 0 0 0 0 0 0 0 0 0 0 0 0 0 0
0 0 0 0 0 0 0 0 0 0 0 0 2 20 26 26
12 8 4 1 0 21 35 5 5 28 27 24 6 2 19 23
13 1 0 0 0 0 0 0 0 0 0 0 0 0 14 20
20 20 20 20 20 21 21 21 21 20 19 19 23 23 35 38
43 45 62 85 104 115 112 101 94 95 105 116 122 125 124 124
119 117 117 117 111 100 86 63 43 43 49 51 56 62 67 73
80 85 83 69 54 37 17 14 4 0 0 0 0 0 0 0
0 0 0 0 0 0 0 0 0 0 0 0 0 0 0 0
0 0 0 0 0 0 0 0 0 0 0 0 0 11 25 25
10 1 0 0 0 25 35 4 6 23 15 19 11 15 29 26
18 5 0 0 0 0 0 0 0 0 0 0 0 0 12 19
20 19 19 19 19 19 20 22 25 28 29 29 34 37 36 37
42 45 56 89 95 117 114 103 95 94 103 116 125 128 125 125
123 120 118 117 115 109 100 81 43 21 18 18 24 29 34 37
48 52 46 36 22 6 2 1 0 0 0 0 0 0 0 3
13 8 0 0 0 0 0 0 0 0 0 0 0 0 0 0
0 0 0 0 0 0 0 0 0 0 0 0 0 4 19 20
7 0 0 0 0 28 35 5 5 11 0 12 19 27 33 23
16 8 0 0 0 0 0 0 0 0 0 0 0 0 11 18
18 18 18 18 19 23 31 39 43 42 36 35 38 39 35 35
40 48 52 91 79 117 114 104 95 94 102 115 126 129 128 123
121 118 118 117 118 113 103 90 62 21 11 9 6 0 2 3
12 26 19 18 19 16 12 10 5 1 0 0 0 0 0 12
25 15 0 0 0 0 0 0 0 0 0 0 0 0 0 0
0 0 0 0 0 0 0 0 0 0 0 0 0 1 16 19
8 4 1 0 0 30 40 12 7 5 0 14 26 35 29 10
11 11 0 0 0 0 0 0 0 0 0 0 0 0 6 19
20 21 20 25 36 40 41 46 45 41 37 34 29 38 36 36
39 47 50 96 65 112 115 105 98 96 102 114 122 127 128 126
121 122 117 116 118 113 103 89 69 38 18 16 14 21 10 9
18 27 22 20 20 20 19 20 21 19 14 5 0 0 0 1
3 1 0 0 0 0 1 2 0 0 0 0 2 0 0 0
0 0 0 0 0 0 0 0 0 0 0 0 0 0 14 18
12 11 9 0 0 25 41 23 11 2 0 16 31 36 18 0
7 11 0 0 0 0 0 0 0 0 0 0 0 0 4 24
31 35 33 40 42 44 48 47 49 44 41 34 34 37 35 38
39 47 50 91 74 94 113 107 99 96 101 113 122 129 130 128
123 122 122 115 113 110 100 81 68 61 45 40 39 41 30 34
32 26 15 17 17 16 16 18 15 15 18 21 20 14 6 1
0 0 0 0 0 0 1 5 0 0 0 1 5 0 0 0
0 0 0 0 0 0 0 0 0 0 0 0 0 2 12 17
16 13 12 1 0 20 34 29 12 0 1 18 32 22 5 0
5 8 0 0 0 0 0 0 0 0 0 0 0 3 16 38
40 42 39 40 42 46 50 50 46 43 40 34 29 37 34 36
37 46 51 74 88 72 111 109 102 96 100 111 121 126 131 128
126 123 119 117 113 107 92 72 73 81 89 79 65 42 38 37
34 27 16 9 14 14 15 18 15 14 14 17 20 22 22 22
18 10 2 0 0 0 1 5 0 0 0 2 7 0 0 0
0 0 0 0 0 0 0 0 0 0 0 0 0 3 9 16
15 14 13 1 0 17 34 33 11 0 1 13 14 3 0 0
0 0 0 0 0 0 0 0 0 1 10 24 32 37 37 38
40 42 38 38 41 45 47 48 46 42 34 33 32 37 33 36
36 42 55 59 101 56 100 109 104 98 99 109 119 123 126 128
125 123 120 116 110 101 81 77 88 100 106 80 81 39 40 39
35 27 22 16 12 18 21 19 18 17 17 20 24 28 32 36
40 44 41 31 18 6 1 2 0 0 0 1 7 2 0 0
0 0 0 0 0 0 0 0 0 0 0 0 0 4 9 17
19 15 12 1 0 5 14 12 2 0 0 0 0 0 0 0
0 0 0 0 0 0 0 0 14 35 39 40 37 38 39 42
43 41 37 35 41 46 45 44 43 40 32 37 39 38 31 36
34 40 51 55 101 68 75 110 104 97 98 109 119 124 127 127
124 122 116 113 106 93 86 94 103 110 105 83 87 39 42 41
34 27 26 18 19 16 28 31 28 25 30 32 33 44 41 52
43 44 47 45 45 39 35 24 9 0 0 1 6 2 0 0
0 0 0 0 0 0 0 0 0 0 0 0 0 3 7 18
3 1 0 0 0 0 0 0 0 0 0 0 0 0 0 0
0 0 0 0 0 0 3 25 42 43 43 42 40 41 41 42
43 40 34 36 43 43 42 43 44 41 35 39 40 40 33 34
35 38 47 48 87 96 60 102 103 97 98 108 117 123 128 126
122 120 115 109 102 97 101 110 117 116 93 105 79 40 40 40
34 27 24 22 18 19 36 41 38 35 36 37 39 42 44 43
43 40 42 42 42 40 41 41 43 28 5 0 6 1 0 0
0 0 0 0 0 0 0 0 0 0 0 0 0 3 7 18
0 0 0 0 0 0 0 0 1 0 0 0 0 0 0 0
2 0 0 0 0 14 37 44 44 41 40 39 39 39 39 41
42 42 36 34 43 43 41 43 43 42 35 35 37 40 32 32
36 38 45 48 74 115 70 82 103 99 99 109 116 122 126 126
122 118 112 108 106 106 112 118 121 107 93 120 61 39 42 39
33 25 20 24 24 22 35 41 39 42 39 37 41 43 43 41
44 42 43 42 40 40 43 42 42 44 41 23 9 1 0 0
0 0 0 0 0 0 0 0 0 0 0 0 0 2 6 16
0 0 0 0 0 0 1 11 13 8 4 10 11 10 2 4
5 0 0 0 15 44 44 41 41 39 41 39 38 41 40 40
42 42 38 32 39 46 44 41 44 41 36 35 34 39 33 30
34 37 47 51 60 115 93 62 98 100 101 109 115 121 125 125
121 116 111 108 111 112 117 121 120 88 106 99 44 41 40 37
34 26 17 19 28 29 39 38 34 40 37 38 41 42 42 41
44 42 41 40 37 38 39 39 39 38 40 37 27 4 0 0
0 0 0 0 0 0 0 0 0 0 0 0 0 1 7 14
0 0 0 0 0 0 1 15 17 22 25 19 22 18 12 14
4 0 0 8 41 42 40 38 41 42 42 40 39 40 39 40
44 42 39 31 36 42 45 41 41 43 36 34 35 43 41 32
33 38 44 50 57 109 114 64 84 102 104 109 117 122 125 125
118 111 109 111 115 118 122 125 107 81 114 77 38 40 37 36
33 24 11 11 31 40 42 38 36 39 35 40 40 39 38 42
39 40 40 40 38 41 38 38 41 38 38 35 24 26 0 0
0 0 0 0 0 0 0 0 0 0 0 0 0 2 10 15
0 0 0 0 0 0 0 6 16 29 32 27 29 28 25 15
0 0 2 33 43 41 38 36 38 40 41 41 41 39 40 42
44 44 41 32 36 41 42 41 40 44 40 33 34 44 46 36
36 39 47 47 52 92 128 85 59 100 106 110 118 123 126 124
117 110 110 115 118 122 124 117 83 92 120 70 41 45 38 32
32 25 11 5 32 40 40 38 39 41 35 40 39 38 37 41
42 42 42 43 43 42 42 41 41 37 38 34 20 30 18 0
0 0 0 0 0 0 0 0 0 0 0 0 0 2 14 16
0 0 0 0 0 0 0 0 12 20 29 34 32 31 20 3
0 0 16 38 38 38 36 35 40 43 44 44 44 43 43 44
44 42 42 34 35 39 41 44 40 43 40 34 34 44 48 36
35 38 48 52 56 77 134 111 58 87 108 111 121 129 129 122
114 108 110 117 121 125 124 98 73 95 117 58 2 20 43 34
30 25 15 7 33 39 38 35 36 41 37 40 43 38 35 39
41 38 37 40 40 43 42 41 39 38 37 34 20 32 33 2
0 0 0 0 0 0 0 0 0 0 0 0 0 5 15 16
0 0 0 0 0 0 0 0 1 9 20 25 22 14 3 0
0 5 31 40 34 34 37 33 38 43 44 40 42 43 45 45
45 44 43 35 35 38 37 45 42 39 42 37 34 43 46 36
38 38 48 54 43 69 130 123 83 64 106 112 120 131 132 127
114 108 115 121 126 128 119 94 84 110 107 15 0 0 27 37
30 25 19 13 36 38 38 36 33 40 39 40 40 36 35 40
42 39 36 40 43 43 43 42 41 40 39 35 21 26 35 14
0 0 0 0 0 0 0 0 0 0 0 0 0 3 11 11
0 0 0 0 0 0 0 0 0 1 6 8 8 1 0 2
2 23 32 41 36 32 39 30 35 43 45 41 45 46 46 45
43 43 43 36 36 35 37 44 44 40 42 38 34 44 49 37
39 38 48 52 6 56 132 124 98 54 95 113 120 130 133 126
112 109 117 125 129 123 108 102 92 123 66 0 0 0 14 41
30 26 21 17 37 38 37 36 32 37 40 39 38 35 36 40
42 38 36 39 44 41 42 41 39 38 39 35 24 29 36 28
1 0 0 0 0 0 0 0 0 0 0 0 0 4 15 12
0 0 0 0 0 0 0 0 0 1 4 4 1 0 1 6
19 31 33 38 36 31 41 32 34 41 43 42 45 46 45 45
45 45 47 41 37 33 38 44 45 38 42 39 36 44 46 43
40 33 46 49 2 38 135 119 111 79 84 112 120 130 133 123
108 108 120 127 123 101 96 108 120 115 16 0 0 0 14 46
29 28 25 21 37 39 38 35 34 34 39 40 36 33 33 39
39 38 34 40 42 42 41 40 39 41 41 35 21 31 36 31
15 0 0 0 0 0 0 0 0 0 0 0 0 4 15 12
0 0 0 0 0 0 0 0 2 7 7 6 5 13 8 6
33 29 34 37 34 30 41 33 33 40 44 46 47 47 48 49
45 46 48 47 40 33 34 42 46 38 41 39 39 45 45 42
42 33 44 48 3 27 134 126 113 110 78 108 116 129 133 121
102 109 118 111 79 53 103 128 125 51 9 7 0 0 17 46
29 26 26 24 35 37 37 35 33 32 39 39 35 31 31 39
40 40 38 38 41 42 42 41 40 40 41 35 23 33 37 32
21 19 1 0 0 0 0 0 0 0 0 0 0 3 13 10
1 0 0 0 0 0 0 0 2 7 6 5 15 32 25 32
37 30 35 37 31 27 42 34 30 36 41 43 45 46 47 47
46 46 50 47 43 32 31 42 46 36 42 40 37 45 44 45
47 40 44 47 3 13 126 133 116 120 89 90 111 126 132 115
96 98 92 62 52 66 125 122 59 18 10 17 4 0 19 47
33 30 35 34 39 39 38 39 38 35 35 38 34 30 32 36
38 38 35 35 41 40 40 39 38 39 38 33 23 34 36 31
23 35 18 0 0 0 0 0 0 0 0 0 0 2 12 8
1 2 0 0 0 0 0 0 3 9 7 10 24 36 37 42
36 34 37 37 32 26 42 35 32 37 40 46 47 46 46 45
45 45 45 46 43 29 30 39 48 39 43 41 39 46 42 46
45 42 48 39 0 8 107 136 127 124 95 63 96 121 131 109
75 72 59 52 57 71 105 51 19 12 12 20 14 4 21 51
36 35 44 37 40 39 37 38 39 40 35 37 36 33 34 39
40 38 35 35 38 39 38 36 37 38 40 35 24 35 36 34
32 42 74 25 0 0 0 0 0 0 0 0 0 0 2 2
0 1 4 1 0 0 0 0 2 12 11 20 36 45 45 43
36 34 38 39 33 23 40 36 34 35 38 45 49 48 48 48
47 47 45 48 45 31 30 38 47 40 40 42 42 44 38 44
46 49 52 20 2 21 68 132 134 131 100 53 61 95 119 81
58 48 27 11 21 33 28 22 20 12 22 30 29 22 19 42
50 39 42 39 40 41 37 38 38 41 38 38 36 32 37 41
39 38 36 35 39 41 41 36 38 40 42 37 25 36 39 40
35 46 111 110 15 0 0 0 0 0 0 0 0 0 0 0
0 1 3 2 0 0 0 0 0 5 13 27 40 65 48 41
39 35 37 39 33 21 38 36 34 35 38 43 47 46 45 42
41 45 42 45 42 34 29 36 45 40 42 43 42 42 43 44
49 51 36 10 21 29 34 77 125 134 116 63 47 55 82 63
47 28 28 31 36 35 29 24 25 23 38 35 36 37 30 28
49 52 50 46 41 40 38 38 40 42 40 40 36 37 42 42
38 39 40 39 41 42 39 35 38 39 41 34 25 36 41 42
42 78 131 125 74 1 0 0 0 0 0 0 0 0 0 0
0 0 1 1 1 0 0 0 0 0 7 24 51 119 66 43
42 36 34 38 36 23 41 41 36 35 38 43 45 45 45 41
41 45 43 47 47 35 29 39 47 42 42 43 50 46 48 47
42 33 32 35 31 27 29 32 48 75 75 31 27 35 49 51
42 30 36 40 43 39 30 30 39 38 41 37 36 39 40 36
34 46 53 52 58 35 40 41 43 45 43 42 40 38 42 42
40 41 39 39 40 41 38 36 38 41 40 36 27 39 42 43
54 119 132 122 123 34 0 0 0 0 0 0 0 0 0 0
5 0 0 0 0 0 0 0 0 0 0 16 97 138 111 46
42 42 36 36 38 23 41 40 36 35 38 44 45 46 46 44
43 45 43 49 47 37 31 39 46 42 43 41 49 41 31 30
35 39 40 40 40 39 35 35 33 36 28 19 21 27 28 51
38 35 39 45 48 40 27 36 43 41 42 40 39 41 41 42
41 40 36 34 38 29 37 41 44 45 43 41 40 42 44 41
39 41 40 41 43 41 39 36 37 42 43 37 25 39 42 52
102 132 131 121 130 99 5 0 0 0 0 0 0 0 0 0
6 3 0 0 0 0 0 0 0 5 6 47 134 138 136 79
43 40 40 36 38 24 39 40 37 35 39 43 46 46 46 43
43 47 44 48 46 39 30 36 44 45 43 44 42 39 40 41
42 44 43 44 43 46 44 43 40 38 38 37 40 34 34 50
36 37 45 48 47 37 29 42 44 44 44 42 41 43 44 44
43 42 39 40 39 37 37 39 43 44 39 41 43 41 40 40
38 39 40 42 43 41 37 38 41 44 44 39 27 39 47 87
132 132 129 123 131 130 54 0 0 0 0 0 0 0 0 0
5 2 0 0 0 0 0 0 1 9 20 107 139 137 137 125
50 38 40 38 38 25 37 41 36 34 37 42 43 46 45 44
44 46 45 46 48 39 34 34 43 47 43 44 45 47 47 46
44 44 42 43 43 45 45 44 41 37 42 36 40 29 58 91
46 41 47 51 46 33 38 47 44 42 43 43 41 41 43 42
43 41 40 40 41 39 40 43 46 44 40 40 45 43 42 39
38 41 42 43 45 44 42 41 39 43 45 37 27 44 70 130
132 131 128 129 131 131 113 9 0 0 0 0 0 1 11 4
2 0 0 0 0 0 0 0 0 7 60 137 138 137 137 136
89 41 39 39 38 26 55 67 51 39 38 42 44 46 45 44
43 46 46 47 48 41 33 35 43 48 47 48 49 50 49 47
44 46 43 43 44 44 45 45 42 38 43 39 38 31 98 134
124 109 98 101 72 34 41 50 65 94 117 121 111 99 82 59
44 40 40 41 42 43 45 45 44 43 42 43 44 42 43 40
38 40 39 41 43 42 41 40 42 53 63 51 30 57 122 133
132 131 129 130 131 130 127 54 0 0 0 0 0 1 9 5
0 0 0 0 0 0 0 0 0 14 111 139 138 138 137 137
127 57 41 40 38 34 124 136 131 117 98 86 81 78 76 67
59 61 73 91 97 81 46 35 40 46 47 45 45 45 46 46
44 44 45 43 44 45 45 44 43 41 41 43 36 41 124 134
134 134 134 133 129 114 114 124 132 133 133 132 132 132 132 131
120 92 55 40 42 43 44 44 51 75 99 117 119 105 89 79
66 61 52 50 51 58 70 87 112 128 130 125 49 103 131 129
130 129 129 130 129 129 125 110 8 0 0 0 0 0 0 0
0 0 0 0 0 0 0 0 0 44 135 137 136 136 136 136
136 102 42 36 39 38 127 137 136 135 136 135 135 136 136 135
134 134 135 135 135 134 124 76 43 43 46 46 47 60 80 95
107 118 123 122 116 107 102 101 101 103 106 118 78 61 132 132
133 132 133 132 131 132 132 132 132 131 132 131 131 131 130 130
130 130 128 113 90 83 86 104 124 130 129 129 129 129 129 129
128 128 127 124 124 127 127 127 127 126 126 125 84 125 126 126
126 125 125 125 125 124 121 123 81 10 0 0 0 0 0 0
