P2
128 120
146
0 8 41 39 32 32 31 31 31 31 31 30 30 30 30 30
30 29 30 29 28 28 28 27 27 27 27 26 26 25 25 25
25 24 24 23 23 23 23 22 22 22 22 21 21 21 21 20
21 21 23 25 25 25 24 18 20 21 20 25 25 25 24 24
24 24 22 22 21 19 22 23 24 24 24 24 25 25 25 25
25 25 25 25 25 26 26 26 27 27 28 28 28 28 28 29
29 29 30 30 30 30 31 31 31 32 33 33 33 33 33 33
34 34 34 34 33 34 34 34 34 34 35 35 35 35 35 35
0 7 41 38 31 31 31 31 31 31 30 30 30 29 29 29
29 29 28 28 28 28 27 27 27 27 26 26 26 26 25 25
24 24 24 24 23 23 23 23 22 22 21 21 21 20 21 20
21 21 22 25 25 25 24 19 19 22 20 26 26 26 25 24
24 24 22 22 22 19 22 22 24 24 25 24 24 24 25 25
25 25 25 26 26 26 26 26 27 26 27 28 28 28 28 29
30 29 30 30 31 31 32 32 32 31 33 33 33 32 33 33
33 33 32 32 33 33 34 34 34 34 34 34 35 34 35 35
0 8 41 38 31 31 31 31 31 31 30 30 30 29 30 29
29 29 29 28 28 28 28 27 27 27 27 26 26 25 25 25
25 25 24 24 24 24 23 24 23 23 22 21 22 22 21 21
21 21 23 25 25 25 25 19 19 23 20 26 26 26 25 25
24 25 24 24 23 20 23 24 25 25 25 26 26 25 26 25
25 26 26 26 26 26 27 27 28 28 28 29 28 29 29 30
29 30 31 31 31 32 31 31 32 31 32 32 32 32 33 33
33 33 34 33 34 34 34 34 34 35 34 35 35 35 35 35
0 9 41 38 31 31 32 31 31 30 30 30 31 30 30 29
29 29 29 29 29 28 28 27 28 27 27 27 27 26 26 25
25 25 25 24 24 24 23 23 23 23 23 22 21 22 22 21
21 22 24 26 26 26 26 20 20 24 20 25 26 26 25 25
25 25 24 24 23 20 23 24 25 25 25 26 27 26 26 26
27 26 26 26 27 27 27 28 28 28 28 29 29 29 29 30
30 30 31 31 32 31 32 31 32 33 33 33 33 34 34 34
34 34 35 35 34 34 34 34 35 35 34 35 35 35 35 35
0 9 40 37 31 31 31 31 31 31 30 31 30 30 30 30
30 29 29 29 28 28 27 27 28 27 27 26 26 26 26 25
25 25 25 25 24 24 24 24 23 23 23 22 23 22 21 22
22 23 24 26 26 26 26 20 20 25 20 26 26 26 27 25
25 24 24 24 24 21 24 24 25 26 26 26 27 26 27 26
26 26 26 27 27 28 28 28 28 29 29 30 29 30 30 30
30 30 30 31 31 32 32 33 33 33 33 33 34 34 34 33
34 34 35 34 34 35 34 35 35 35 35 35 36 35 36 35
5 17 41 36 31 31 30 30 30 30 30 30 30 29 29 29
29 29 29 29 29 28 28 27 28 27 27 27 26 26 26 26
26 26 25 25 24 24 24 23 23 23 22 22 21 22 22 21
22 22 24 26 27 27 25 20 20 25 20 25 27 26 26 26
24 24 24 24 23 20 23 24 26 26 26 26 27 26 27 26
26 27 27 27 27 28 28 28 28 28 29 28 28 29 29 29
30 30 31 32 32 32 33 33 33 33 33 33 33 33 33 33
34 34 34 35 34 34 34 34 34 34 35 34 35 35 35 34
20 27 39 35 31 30 31 31 31 32 31 30 30 30 29 29
29 29 29 29 28 29 28 27 27 27 27 27 27 27 26 26
26 25 25 24 25 25 24 24 24 24 24 23 23 22 22 22
22 22 24 26 27 26 25 20 20 25 21 25 27 27 26 26
25 25 25 25 24 21 24 24 26 26 27 27 27 27 28 27
27 27 27 27 27 27 28 28 29 29 29 29 29 30 30 31
31 31 31 33 32 32 33 33 34 33 34 33 34 34 34 34
34 34 35 35 34 34 34 34 34 34 35 35 35 35 35 35
31 33 34 33 32 31 32 31 31 31 31 30 30 30 29 29
29 29 29 29 28 28 28 28 27 27 27 27 26 26 27 26
26 25 25 25 25 25 24 24 24 24 23 23 22 23 22 22
22 24 24 28 27 27 26 20 20 28 22 25 27 27 26 26
25 25 25 24 25 21 24 25 26 27 27 27 27 27 27 27
27 27 28 27 29 28 28 29 29 28 29 30 30 30 31 31
30 31 32 33 33 33 33 34 34 34 33 33 33 34 34 34
34 34 34 36 34 34 35 34 34 35 35 35 35 35 35 35
24 27 30 31 31 31 31 31 31 30 30 30 29 30 30 30
29 29 28 28 28 28 28 27 28 27 28 27 27 27 26 26
26 25 26 25 25 25 25 24 24 24 23 23 23 23 22 23
22 23 25 27 28 27 26 20 20 27 24 24 28 27 27 27
25 25 25 25 24 21 25 24 26 26 26 27 27 26 26 27
27 27 28 28 29 28 29 29 29 30 30 30 31 30 31 30
32 32 32 33 33 33 33 33 33 33 33 33 33 33 33 34
34 34 34 36 34 34 34 35 34 34 35 34 35 35 35 37
12 15 18 21 24 27 29 31 31 31 30 30 29 29 29 29
29 29 29 28 28 29 28 28 28 27 28 27 27 27 26 26
26 26 26 26 25 25 24 25 24 24 24 24 23 23 22 22
23 23 24 27 28 28 27 21 21 28 25 23 27 27 27 26
26 25 25 25 24 21 25 24 27 27 27 27 27 27 28 28
27 28 28 28 29 28 29 30 29 29 29 30 30 30 31 31
32 32 32 33 33 33 34 33 34 33 34 33 34 33 33 33
33 34 33 35 34 35 35 34 35 35 35 35 35 35 35 35
9 10 10 11 13 13 15 19 22 25 28 29 31 30 30 30
29 29 29 29 29 29 28 28 28 28 28 27 27 27 27 26
26 26 26 25 26 25 25 25 25 24 25 24 24 23 23 23
23 24 25 27 28 28 27 21 21 28 26 23 28 28 27 28
27 26 26 26 25 22 25 26 27 27 27 27 28 28 28 28
28 28 29 29 30 29 30 30 29 29 30 31 31 31 32 32
32 32 33 33 33 33 34 33 33 33 33 33 34 33 34 34
34 35 35 36 35 34 35 35 34 35 34 34 34 34 35 35
17 14 11 10 10 10 10 11 12 10 11 17 27 30 29 29
29 29 29 29 29 29 28 29 29 28 28 27 27 27 26 26
26 26 26 26 26 25 25 25 25 24 24 23 24 24 23 23
23 24 25 28 29 28 27 21 21 28 27 23 28 28 27 27
26 26 26 25 25 23 26 26 28 28 28 28 28 28 28 28
29 29 29 30 30 30 29 30 30 30 30 31 32 31 32 32
32 32 32 33 33 33 33 34 34 34 33 33 34 35 34 34
34 34 34 34 32 33 33 34 34 34 35 37 36 34 35 35
35 29 15 17 14 12 10 9 10 7 6 11 26 30 29 30
29 29 28 29 29 29 28 28 28 28 28 28 28 27 26 26
27 26 26 26 26 25 26 25 25 24 24 24 24 24 23 24
24 25 26 28 28 27 27 21 21 28 29 22 28 29 28 27
26 27 26 26 25 23 26 26 27 27 27 27 28 28 29 28
28 29 29 30 31 30 30 29 30 30 31 31 31 32 32 32
33 32 33 33 32 33 33 34 33 34 33 33 32 32 33 33
33 33 34 34 34 34 34 35 34 34 35 35 35 34 35 34
42 35 22 28 31 27 21 19 15 10 8 11 24 29 29 29
29 28 28 29 30 29 29 28 28 27 27 27 27 27 27 27
27 26 28 31 29 27 26 26 24 25 24 24 24 23 24 23
24 24 25 28 29 28 27 21 20 28 29 22 28 28 28 27
26 26 26 26 26 23 26 26 28 28 28 28 29 28 28 28
28 29 29 29 31 30 30 30 31 30 30 31 31 32 32 32
33 33 32 33 32 32 33 33 33 33 33 33 33 32 34 34
34 34 34 33 34 34 34 34 34 34 34 35 35 34 35 34
42 37 28 33 37 34 34 38 35 24 9 11 25 30 31 30
30 30 35 36 34 32 30 29 28 28 28 28 28 27 27 27
27 26 33 38 37 33 31 30 27 25 24 24 25 24 24 24
25 25 26 28 28 28 27 21 21 28 30 22 28 29 29 28
27 27 27 26 26 23 26 26 27 28 28 28 29 29 30 29
30 30 30 30 31 30 31 30 31 31 32 32 32 32 32 32
33 33 33 32 32 33 33 33 33 33 33 34 34 33 34 34
35 34 34 35 34 34 34 34 35 35 35 35 36 34 35 34
23 35 31 35 38 38 40 42 42 32 10 13 26 30 30 30
29 30 38 40 38 36 34 33 33 31 30 29 28 27 27 27
27 27 33 38 35 35 35 34 29 25 25 25 25 24 24 24
24 25 26 28 29 29 28 22 21 28 31 22 27 29 29 29
27 27 27 27 26 24 27 27 29 29 29 29 29 29 29 30
30 29 30 31 32 31 31 30 31 31 31 32 32 33 32 32
33 32 32 33 33 33 33 33 33 33 33 35 34 33 34 34
34 34 34 34 34 34 35 35 35 35 35 35 36 34 35 35
4 33 33 36 37 38 41 42 43 36 13 14 29 32 32 31
31 31 38 40 39 36 36 38 39 34 34 34 32 30 28 28
28 28 30 30 30 32 34 34 31 26 25 25 26 25 25 25
25 26 26 28 29 28 27 21 19 21 30 24 27 31 31 30
29 29 27 28 27 25 27 27 29 29 29 30 30 30 30 30
31 31 30 30 31 30 31 31 31 31 31 32 32 32 33 32
33 33 33 33 33 33 34 33 34 33 33 34 35 34 34 34
35 34 35 35 35 34 34 35 35 35 35 35 35 35 35 34
7 32 27 31 34 38 41 41 42 35 14 15 31 34 31 32
34 34 32 19 27 34 38 40 40 33 22 26 31 32 32 32
33 30 28 17 14 16 20 23 28 27 26 26 25 25 25 25
25 26 27 29 30 29 24 17 21 22 28 27 25 28 31 24
25 24 24 25 24 24 28 28 30 30 30 30 31 31 30 30
30 30 31 31 31 31 31 32 31 31 32 33 33 32 33 33
33 33 33 33 33 33 34 33 34 34 34 35 34 35 35 35
35 35 34 35 35 35 35 35 35 36 36 35 36 36 36 36
11 32 10 5 13 21 28 32 34 34 15 15 31 35 30 30
35 39 27 0 2 14 22 24 29 27 2 1 6 12 17 24
30 31 29 14 6 7 5 2 19 28 27 26 26 25 25 26
26 27 27 30 30 28 22 23 34 38 36 32 29 28 27 23
19 17 15 18 17 20 27 28 28 30 31 30 30 30 31 31
31 31 30 31 32 31 32 32 32 32 32 34 33 33 33 34
33 33 34 34 34 34 33 34 34 34 34 35 35 35 35 35
35 35 35 35 35 35 35 36 35 37 36 35 36 36 36 36
7 31 5 0 0 0 1 4 9 31 15 14 20 27 31 32
37 41 28 0 0 3 9 10 17 25 1 0 0 0 0 1
4 15 27 11 0 0 2 0 18 29 27 26 26 26 25 26
25 25 23 21 16 7 11 11 15 22 31 31 26 23 25 22
20 25 24 20 14 7 6 8 17 26 30 30 31 32 32 31
31 31 31 31 31 31 32 32 32 32 32 33 34 33 33 34
33 34 34 34 34 34 34 34 34 34 34 35 35 35 35 34
35 35 35 36 36 35 35 35 36 36 36 36 37 36 36 37
6 32 5 0 0 0 0 0 2 29 15 8 0 2 6 13
22 30 25 0 0 1 2 5 13 26 2 0 0 0 0 0
0 7 27 8 0 0 0 0 19 29 27 26 26 26 26 25
24 19 7 5 2 4 7 12 19 23 29 39 38 27 27 27
22 24 22 14 15 11 9 6 3 2 14 30 31 32 31 31
31 32 32 31 32 33 32 32 33 33 33 33 34 33 33 34
33 34 34 34 34 34 34 34 34 35 34 35 36 35 34 35
35 35 35 36 35 36 36 36 36 36 37 36 36 36 37 36
7 32 4 0 0 3 0 0 3 30 15 8 0 0 0 0
0 2 13 1 0 0 0 0 10 24 1 0 0 0 0 0
0 6 26 4 0 0 0 0 21 31 27 27 27 27 26 25
13 5 1 1 1 4 6 12 18 30 39 39 40 42 38 29
22 17 21 26 24 15 9 7 7 6 2 11 30 33 32 32
32 32 32 32 32 32 32 33 33 33 33 33 35 34 34 34
34 34 34 35 34 35 34 34 35 35 35 35 35 35 35 34
35 35 36 36 36 36 36 36 36 37 37 37 35 35 35 36
7 32 5 0 0 8 2 0 2 29 15 8 0 0 0 0
0 0 8 1 0 0 0 0 10 26 1 0 0 1 5 0
0 5 25 3 0 0 0 0 20 31 28 27 27 26 25 15
7 2 0 2 5 0 1 8 15 22 32 33 21 22 21 20
23 26 25 25 21 17 12 14 18 16 9 6 18 32 31 32
32 32 32 32 32 33 33 33 33 34 34 34 35 34 34 34
34 35 34 34 35 35 35 35 35 35 35 36 35 35 35 35
35 35 36 36 36 37 37 37 37 36 36 37 37 37 37 36
7 31 3 0 0 4 2 0 3 29 15 8 0 0 0 0
0 0 5 0 0 0 0 0 10 28 2 0 0 4 11 7
2 4 25 2 0 0 0 0 18 31 28 28 27 20 13 9
9 2 2 3 6 2 1 9 18 26 34 41 40 30 20 20
19 18 19 22 21 19 11 7 8 7 10 6 10 26 32 32
32 32 32 32 32 33 33 33 33 33 33 35 35 34 35 34
35 35 35 36 36 35 35 35 36 36 35 36 35 36 36 36
37 36 36 36 36 37 37 37 37 37 37 37 36 37 36 37
8 29 2 0 0 0 0 0 3 29 14 9 0 0 0 3
0 0 5 0 0 0 0 0 10 29 2 0 0 5 12 11
8 5 25 3 0 0 0 0 17 32 28 27 23 13 4 2
3 2 6 6 7 6 4 7 20 35 41 41 48 46 33 31
30 29 29 19 20 17 14 8 7 7 6 10 4 9 26 32
33 33 32 33 33 33 33 33 34 34 35 35 35 34 35 35
35 36 36 35 35 36 36 35 35 35 36 36 37 36 37 36
36 36 37 36 37 37 38 37 37 37 38 37 37 37 38 38
10 28 2 0 0 0 0 0 4 29 14 9 0 3 0 1
0 0 5 1 0 0 0 0 12 30 3 0 0 2 9 10
7 4 26 10 1 0 0 0 15 32 28 27 21 11 1 4
7 5 7 8 8 12 11 9 15 31 45 57 51 45 39 29
29 35 35 34 29 20 10 6 5 3 2 2 5 1 7 29
33 33 33 32 33 33 33 33 34 34 35 34 34 34 35 35
35 36 36 35 35 36 36 35 35 36 35 36 36 36 36 36
36 36 35 37 38 37 37 37 38 37 38 37 38 38 38 38
28 33 13 5 6 4 2 1 7 29 13 9 2 1 0 0
0 0 7 3 0 0 0 0 15 34 11 4 3 0 1 6
5 3 29 31 24 18 13 11 24 32 28 23 12 8 3 6
12 20 13 12 13 19 20 20 23 43 58 42 37 38 34 34
24 26 28 24 25 21 22 18 14 12 5 0 0 0 1 11
32 33 33 33 33 33 33 34 34 34 34 33 34 34 35 34
35 35 35 36 36 36 35 35 36 36 36 36 37 36 36 36
36 36 36 36 37 38 38 38 38 38 38 38 38 38 37 38
36 45 41 26 27 29 28 26 26 29 13 9 0 0 0 0
0 0 17 25 16 13 8 3 12 39 30 24 22 17 11 9
8 7 32 39 37 35 36 39 41 34 27 23 17 14 5 7
11 20 27 22 23 26 30 27 39 53 63 62 52 40 33 32
35 29 26 27 21 20 18 17 21 17 14 7 0 0 0 0
20 32 33 33 33 33 34 34 34 34 34 34 34 34 35 35
36 36 36 37 36 36 36 36 36 36 37 36 36 36 37 36
36 36 36 37 38 37 37 36 38 38 36 35 34 34 34 35
38 52 43 27 33 39 41 40 40 30 13 9 0 0 0 0
0 0 23 45 37 36 36 32 32 42 23 17 20 22 22 22
22 25 35 34 33 35 38 42 43 34 28 27 20 20 22 21
20 27 37 39 44 52 48 37 34 53 51 46 52 60 50 39
34 32 33 32 30 28 26 26 22 17 10 9 1 1 0 0
4 28 33 33 34 34 33 34 34 34 34 34 34 35 35 35
36 36 36 36 36 36 36 36 36 36 37 35 35 35 35 36
34 35 34 36 36 34 33 32 32 31 29 27 26 24 22 21
40 48 34 25 34 39 40 43 43 31 13 12 6 2 0 0
0 0 24 43 38 42 44 44 39 34 18 12 12 12 12 12
14 16 18 17 20 26 31 32 32 30 28 28 23 22 31 29
27 45 56 52 60 71 80 67 48 49 64 73 83 86 85 76
67 47 33 29 26 21 22 19 15 11 6 4 2 0 0 0
0 19 33 33 34 34 34 34 34 34 35 35 35 34 36 36
36 36 36 36 36 34 35 34 34 35 34 33 33 33 32 33
30 30 28 27 25 24 22 21 20 19 19 19 19 19 19 18
38 43 20 7 14 19 22 27 33 31 14 16 28 30 24 17
12 9 27 35 36 43 45 46 39 31 21 13 13 11 10 9
8 8 7 8 9 14 25 24 25 26 29 28 25 25 35 35
41 66 79 72 77 97 107 109 86 64 99 123 121 125 122 116
111 104 85 59 33 20 9 7 8 2 1 0 0 0 0 0
0 5 29 32 34 34 33 34 34 34 35 35 35 35 35 35
35 35 35 35 34 33 34 35 31 29 28 26 25 23 21 21
21 19 19 19 19 20 20 20 21 22 23 24 24 25 23 17
37 43 16 0 0 0 0 1 11 28 14 17 36 43 43 40
39 36 37 25 26 35 38 41 37 32 24 14 11 9 8 8
9 9 9 9 10 15 24 16 23 28 29 27 19 25 30 40
66 80 96 104 96 100 116 123 126 117 107 129 134 133 133 133
132 129 124 119 99 60 26 11 2 1 0 0 0 0 0 0
0 0 12 30 33 33 34 33 34 34 35 34 34 34 32 31
30 28 27 26 24 22 24 34 23 19 19 20 20 20 21 22
22 23 23 24 25 26 27 27 28 29 27 26 28 29 28 13
34 44 15 0 0 0 0 0 7 27 14 16 34 43 43 43
44 44 39 13 4 7 13 19 22 28 25 14 10 3 1 2
7 10 9 9 12 17 27 25 30 34 34 26 13 24 31 47
90 98 106 114 118 122 130 134 134 134 133 134 133 133 133 133
133 132 133 132 131 126 102 63 23 5 1 0 0 0 0 0
0 0 0 26 32 32 31 30 30 29 28 26 25 23 22 22
21 20 20 21 21 21 21 31 22 21 24 25 26 26 27 27
28 29 29 29 30 31 31 31 32 32 31 27 26 32 33 22
30 41 12 0 0 0 5 13 18 27 20 19 29 36 37 39
41 43 37 8 0 0 0 1 8 24 25 11 9 1 0 0
2 5 3 1 6 12 30 34 31 31 32 28 12 23 31 55
97 108 118 122 128 134 134 135 134 134 134 134 133 134 134 133
133 133 133 133 133 132 129 118 100 55 12 2 0 0 0 0
0 0 0 20 26 24 23 22 22 21 22 21 22 22 23 23
24 25 26 27 27 27 25 32 25 26 29 30 31 31 31 32
33 33 34 33 33 34 34 35 34 32 34 35 29 28 34 30
27 36 10 0 0 0 9 22 22 24 23 20 23 25 28 30
30 37 35 5 0 0 0 0 1 24 26 11 6 0 0 2
1 0 0 0 0 5 29 34 24 24 26 24 11 26 28 66
99 110 119 128 133 134 134 134 134 134 134 134 134 134 134 133
134 133 133 132 132 132 131 127 116 107 85 30 2 0 0 0
0 0 0 6 22 22 23 23 24 25 26 26 27 27 28 29
30 31 31 32 32 31 27 28 24 29 32 33 33 34 34 35
35 34 35 35 35 35 34 32 34 33 33 36 36 29 28 32
29 36 8 0 0 0 3 13 17 21 19 19 19 20 24 28
28 36 34 5 0 0 0 0 0 24 20 3 0 0 0 6
6 1 0 0 0 4 29 35 21 24 27 19 7 25 28 74
101 110 119 130 134 134 134 134 134 134 134 134 134 134 134 133
134 133 133 133 133 133 133 128 123 116 106 78 38 8 0 0
0 0 0 0 17 29 28 29 30 30 31 32 32 31 32 33
33 33 33 34 34 33 22 11 13 29 34 35 36 36 35 35
36 36 37 36 37 36 36 34 33 34 33 36 37 36 29 26
31 37 7 0 0 0 0 0 3 16 15 18 15 16 21 26
30 36 32 4 0 0 0 0 0 26 15 0 0 0 0 4
11 7 1 0 0 4 30 36 18 19 22 16 7 28 29 75
101 112 120 130 135 134 135 135 135 135 134 135 135 134 134 134
133 133 133 133 133 133 133 130 123 122 110 86 65 48 19 3
0 0 0 0 8 31 32 32 33 33 33 34 34 33 34 34
35 35 33 30 28 30 20 8 8 28 36 37 37 37 36 37
37 37 37 38 37 37 37 37 34 33 33 33 37 38 36 26
33 36 7 0 0 0 0 0 2 18 17 18 5 0 2 5
9 13 20 4 0 0 0 0 1 26 14 0 0 0 0 6
13 11 7 0 0 4 28 36 21 16 20 12 10 25 29 75
98 112 121 130 134 135 135 134 134 135 134 134 134 133 134 134
134 133 132 132 132 133 133 130 126 124 113 91 68 54 39 22
9 0 0 1 15 32 34 33 35 34 34 35 35 35 35 35
35 31 15 8 8 22 19 5 5 26 35 37 38 37 37 37
37 36 37 37 37 37 37 36 36 34 32 31 35 37 35 29
34 36 6 0 0 1 0 0 3 24 22 20 4 0 0 0
0 0 8 3 0 0 0 0 1 25 12 0 0 0 2 14
16 11 6 0 0 3 28 37 25 19 14 9 11 19 31 73
96 110 119 128 134 134 134 133 134 134 134 134 134 133 133 134
134 133 133 133 133 132 131 129 126 124 115 94 70 53 35 30
24 8 0 4 28 33 34 34 34 34 35 35 36 35 35 35
37 32 21 19 23 28 18 0 3 25 35 35 37 36 36 37
36 36 36 36 37 37 36 35 36 36 33 30 31 33 32 29
31 31 8 0 0 2 0 0 2 26 23 20 4 0 0 0
0 0 6 3 0 3 7 0 0 24 9 0 0 0 1 7
15 4 0 0 0 3 26 37 26 17 7 8 9 20 33 73
91 108 119 128 133 134 134 133 133 133 133 133 133 133 132 133
132 132 131 132 132 131 131 128 124 120 117 98 70 56 37 26
21 10 0 1 28 34 33 33 33 34 35 35 35 34 35 35
35 34 34 33 33 32 21 1 4 25 34 35 36 35 35 36
35 35 35 36 36 36 36 35 35 36 35 31 27 26 26 29
22 26 19 9 5 9 10 4 4 27 21 18 4 0 1 5
0 0 5 3 0 8 12 3 0 23 8 0 0 0 0 0
10 1 0 0 0 1 22 37 22 10 3 2 10 23 40 72
90 107 119 125 131 133 133 133 133 133 133 133 132 133 132 133
132 132 132 132 132 132 129 127 122 117 116 99 72 62 43 25
16 8 0 0 24 33 34 33 34 33 35 35 35 35 35 35
35 35 35 34 33 32 24 4 5 27 34 35 36 35 35 35
35 35 36 36 36 35 36 35 35 36 36 35 31 25 26 33
17 26 25 25 22 25 28 26 25 32 22 16 4 0 6 13
3 0 7 13 9 17 17 11 5 25 8 0 0 0 0 0
10 3 0 0 0 0 19 36 16 6 2 1 12 25 42 67
87 104 118 125 129 133 134 134 133 133 134 133 133 132 133 132
133 133 132 132 132 131 129 123 118 113 109 94 73 64 56 25
12 5 0 0 22 34 34 34 34 34 34 35 35 34 35 34
35 34 34 34 33 31 26 14 17 31 35 35 36 36 36 36
35 36 35 35 36 36 36 35 35 36 36 35 33 26 27 34
21 27 21 6 6 11 19 26 36 36 24 16 4 0 4 8
2 0 10 32 33 35 33 32 31 35 10 0 0 0 0 0
12 4 0 0 0 0 16 34 13 4 0 4 8 24 44 63
85 103 116 123 128 132 133 134 134 134 133 133 133 132 133 133
133 133 132 132 132 129 123 119 112 109 101 91 75 65 62 36
8 5 0 0 23 35 34 34 34 34 34 34 35 35 35 35
36 35 35 35 34 32 29 26 27 33 35 36 37 36 36 36
35 36 36 36 36 37 36 36 36 36 36 36 34 27 26 34
23 29 18 0 0 4 8 13 35 34 22 17 9 0 0 0
0 0 10 36 38 40 39 42 46 44 22 13 12 6 4 6
16 9 4 2 1 0 13 32 15 3 2 6 9 20 41 58
84 102 114 121 126 131 133 134 134 134 134 134 133 134 133 133
133 133 132 131 127 118 111 109 107 97 95 81 67 61 62 46
11 6 0 0 22 35 35 34 34 35 35 35 35 36 35 36
35 35 35 35 35 32 30 30 33 36 36 36 37 37 37 37
36 36 36 36 37 37 36 36 37 36 36 36 34 27 24 26
24 30 16 0 0 13 19 20 35 31 20 18 17 3 0 0
0 0 9 34 36 38 37 41 45 44 34 29 29 26 24 24
25 21 17 14 13 12 19 31 20 12 11 7 3 15 32 57
83 98 113 116 119 121 128 132 133 134 134 133 133 133 133 133
133 133 130 126 112 96 78 64 62 51 48 50 52 58 61 52
14 5 0 0 22 35 35 35 35 34 34 35 35 35 36 36
36 36 36 35 35 33 33 33 35 37 36 37 37 37 36 37
37 36 36 37 37 37 37 37 36 37 36 37 35 28 25 28
26 31 15 0 0 5 17 25 36 27 17 20 16 1 0 0
0 0 10 33 32 34 34 35 33 33 32 33 33 32 31 32
31 29 28 26 24 22 26 34 32 28 25 17 2 9 26 55
82 94 107 109 108 109 113 119 123 126 132 134 134 134 134 134
132 126 117 83 55 36 31 24 22 27 25 21 25 46 61 55
18 4 0 0 24 35 35 35 35 35 36 36 36 36 36 36
36 35 35 35 35 34 34 34 36 36 37 36 37 37 37 37
37 37 36 37 36 37 37 37 37 36 35 35 35 28 26 32
28 34 17 0 0 0 2 21 37 26 18 20 16 5 3 2
1 0 12 35 32 32 32 32 30 31 34 34 36 37 36 33
32 33 35 38 35 33 33 36 37 36 36 28 2 5 20 60
82 86 92 68 66 61 62 75 85 96 127 134 134 134 134 134
130 110 78 50 48 36 32 28 34 47 49 41 27 23 56 55
21 5 1 0 21 35 35 35 35 35 35 36 36 36 36 36
36 36 35 36 36 35 35 36 37 36 36 36 37 37 37 37
37 37 36 37 37 38 38 38 37 37 36 35 35 28 26 32
28 34 16 0 0 0 0 17 38 27 18 19 25 30 29 25
24 23 29 39 33 33 32 33 35 37 38 36 38 42 43 33
30 31 37 43 40 37 37 35 30 25 25 20 2 2 16 60
77 65 35 20 25 30 40 40 50 61 109 126 133 134 133 132
121 100 64 49 44 40 41 66 92 102 95 72 57 33 44 57
22 3 2 0 15 34 35 34 34 34 35 35 35 35 36 36
36 36 36 36 37 36 37 38 37 36 37 37 38 38 37 37
37 37 37 36 37 38 37 37 37 37 36 37 36 29 26 33
28 34 14 0 0 0 0 16 39 28 18 20 31 44 45 44
45 46 46 44 35 33 33 33 36 41 41 36 38 42 42 34
29 27 34 40 38 37 38 36 32 26 23 20 2 0 12 55
69 25 25 28 33 28 31 41 51 65 98 115 130 134 131 127
122 95 74 56 54 73 96 109 109 103 100 88 73 58 43 60
26 4 2 0 10 33 35 35 34 34 35 35 35 35 36 36
36 36 36 36 36 37 37 37 37 37 37 37 37 37 37 37
37 36 36 37 37 37 37 37 36 36 37 37 36 30 26 32
28 34 13 0 0 0 0 16 39 28 18 20 30 42 43 43
45 45 47 43 24 19 17 18 22 32 41 37 33 29 29 28
26 25 29 25 19 20 25 27 31 31 28 26 5 0 9 50
39 32 51 71 74 64 59 58 63 76 93 110 124 130 128 123
115 94 71 63 72 87 103 99 89 76 72 83 79 78 63 64
36 7 2 3 14 32 35 35 35 35 35 35 36 36 37 36
36 36 36 36 37 36 37 37 37 37 37 37 37 37 38 37
37 37 36 37 37 37 37 37 37 37 37 37 36 30 27 32
27 35 12 0 0 0 0 13 36 25 17 20 22 26 27 28
29 30 32 31 8 0 0 0 1 10 35 35 19 5 6 9
12 24 28 13 1 0 3 11 24 28 26 27 6 0 3 41
31 52 90 108 114 114 107 91 75 70 78 96 118 128 127 125
113 83 60 65 88 106 105 92 84 78 69 89 96 102 75 63
43 13 10 16 10 25 34 34 34 34 35 35 35 35 36 35
35 35 35 35 36 37 37 37 37 37 37 36 37 37 37 36
36 37 37 36 36 37 37 37 36 36 37 36 36 30 26 32
28 35 13 0 0 0 0 13 37 26 16 19 23 28 28 27
26 25 26 24 7 0 0 0 0 10 35 29 5 0 0 0
6 26 30 11 0 0 0 7 20 13 9 12 2 0 2 40
50 69 100 104 98 94 97 96 84 66 59 73 108 132 134 133
115 78 66 88 82 47 30 23 22 29 46 78 98 107 80 64
48 25 28 29 39 32 33 32 32 32 34 35 35 36 34 28
27 26 26 24 26 34 37 37 37 37 37 37 37 37 37 37
37 36 37 36 37 38 36 37 37 36 37 36 36 31 26 31
32 32 12 0 0 0 0 15 40 27 16 19 25 32 33 32
32 32 32 27 9 1 0 0 0 13 34 22 0 0 0 0
2 26 29 12 0 0 0 6 19 8 1 7 4 1 4 42
69 86 97 73 78 90 75 62 64 78 74 86 101 131 134 135
119 85 93 76 67 77 67 70 88 104 107 99 101 106 82 62
50 38 54 58 64 25 19 18 17 19 25 34 35 35 31 15
10 10 10 9 13 30 37 37 38 37 38 37 37 37 36 36
37 36 36 37 37 37 37 37 37 36 37 37 37 32 26 30
33 26 17 9 7 5 4 18 37 26 18 22 27 34 34 34
34 35 36 29 7 0 0 0 1 6 30 17 0 0 0 0
2 26 29 11 0 0 0 3 19 9 2 7 18 49 32 52
85 102 98 65 42 29 27 25 46 69 56 93 109 129 134 134
124 93 105 110 106 112 126 130 132 129 120 116 116 103 79 62
55 47 60 72 70 20 7 5 5 5 14 32 35 35 31 12
7 8 8 8 12 30 38 38 37 36 37 37 37 36 36 36
36 36 36 36 36 37 36 37 37 36 37 37 37 33 26 31
30 29 28 28 26 25 24 28 32 29 27 28 30 32 32 32
32 33 34 30 11 0 0 0 3 5 28 15 0 0 0 0
3 26 28 9 0 0 0 0 18 11 2 5 26 72 77 60
88 115 102 93 87 89 77 75 86 95 105 111 110 129 134 134
127 104 100 119 121 120 122 121 120 117 116 121 123 106 76 65
59 61 56 70 75 20 6 4 4 4 12 31 35 35 29 11
8 8 8 7 11 29 38 38 38 37 37 37 37 37 36 37
36 36 36 36 36 37 36 37 37 36 37 37 36 32 26 29
29 29 28 28 29 29 29 29 29 29 29 29 29 30 30 30
30 31 30 30 20 1 0 0 4 3 26 13 0 0 0 0
2 26 28 12 0 0 0 0 16 13 1 5 27 66 82 72
86 114 115 123 130 134 133 130 123 118 118 112 113 128 135 134
127 112 103 115 132 128 120 116 120 128 132 130 121 101 78 66
62 74 80 80 80 17 6 3 4 3 11 31 35 35 29 11
7 8 8 7 9 28 38 37 38 37 37 37 36 36 36 36
36 36 36 36 36 36 36 37 37 36 37 37 37 32 25 28
27 27 28 28 28 28 28 29 28 28 28 27 29 29 29 29
29 29 29 29 22 1 0 0 1 3 26 13 0 0 0 0
0 24 28 12 0 0 0 0 16 16 0 1 16 89 91 69
83 110 126 124 127 130 128 125 120 125 129 113 119 128 133 130
123 113 105 106 127 132 133 132 130 133 133 128 115 94 76 68
60 77 90 84 84 17 6 4 4 5 12 31 35 35 31 14
9 9 10 10 11 26 36 37 36 36 36 36 36 35 36 36
36 37 36 35 34 34 35 36 37 37 37 37 37 33 26 28
13 13 12 13 13 13 13 13 13 13 14 14 14 15 15 16
17 19 24 28 22 1 0 0 0 1 26 15 0 0 0 0
0 22 29 10 0 0 0 0 15 20 0 0 3 77 99 70
85 114 132 135 133 130 128 128 133 134 126 113 120 120 131 130
117 112 107 107 124 133 133 133 133 133 132 128 115 97 82 72
59 74 92 86 88 18 6 4 4 5 11 31 35 35 32 18
13 14 14 15 16 25 35 37 37 37 37 36 37 36 36 36
37 37 36 21 10 9 12 27 37 37 37 37 37 34 27 28
0 0 0 0 0 0 0 0 0 0 0 0 0 0 0 0
0 3 20 28 24 2 0 0 2 2 25 20 2 1 2 1
2 23 31 17 9 7 7 10 22 25 2 0 0 50 103 69
85 110 129 136 136 136 135 134 135 134 124 117 118 121 132 131
116 108 101 109 127 133 133 133 134 134 133 131 121 104 86 76
57 72 88 79 84 22 4 4 5 4 11 31 35 36 32 16
11 11 11 11 11 23 35 37 38 37 37 37 37 37 37 37
37 37 35 10 0 0 0 21 37 37 37 36 37 33 27 28
0 0 0 0 0 0 0 0 0 0 0 0 0 0 0 0
0 2 22 29 27 17 12 14 21 19 29 32 26 24 25 25
26 35 35 28 32 33 34 37 42 35 17 14 14 37 107 89
82 104 121 134 136 135 135 135 135 134 125 118 114 122 134 130
115 106 94 101 121 133 133 134 134 134 133 133 124 107 89 74
57 66 83 87 75 13 3 4 4 4 10 29 36 36 33 15
8 9 9 9 10 23 37 38 37 38 37 37 37 37 36 36
36 36 34 8 0 0 0 15 37 37 36 36 36 34 27 27
0 0 0 0 0 0 0 0 0 0 0 0 0 0 0 0
0 1 22 29 29 32 34 36 37 33 32 36 45 43 42 44
45 46 39 29 36 39 43 48 50 43 31 29 29 42 110 105
83 99 117 133 136 136 136 135 135 135 126 110 112 127 134 132
118 104 94 101 101 122 128 132 133 133 134 133 126 110 96 74
56 76 102 89 59 5 6 4 6 5 10 30 35 36 33 16
8 9 9 8 9 24 37 37 37 37 38 37 38 37 37 37
37 36 34 7 0 0 0 8 35 36 36 36 36 34 27 27
0 0 0 0 0 0 0 0 0 0 0 0 0 0 0 0
0 1 21 30 28 33 37 39 39 32 27 29 39 40 40 39
41 41 38 27 30 35 37 40 40 37 31 30 31 40 110 109
84 103 117 134 136 135 136 135 135 130 113 110 112 131 135 134
125 106 98 106 93 102 123 123 131 133 133 132 125 109 96 77
55 83 102 91 41 2 6 4 6 5 10 29 36 36 32 16
8 9 8 8 10 23 37 38 37 37 37 37 37 37 36 32
21 20 18 3 0 0 0 8 35 37 36 36 35 34 28 26
0 0 0 0 0 0 0 0 0 0 0 0 0 0 0 0
0 0 19 30 27 29 31 34 37 33 27 25 25 25 26 26
27 27 29 27 28 30 32 29 27 29 30 31 32 39 110 113
88 105 117 133 135 135 135 135 130 112 111 113 113 132 135 135
129 107 96 100 90 89 125 120 120 131 133 131 123 108 95 77
55 86 100 84 18 0 4 4 6 4 10 30 35 36 33 16
8 9 8 8 9 23 37 37 37 36 36 37 37 37 36 17
0 0 0 0 0 1 0 7 35 36 35 36 36 34 27 26
0 0 0 0 0 0 0 0 0 0 0 0 0 0 0 0
0 0 17 30 27 23 20 22 26 24 23 25 23 23 25 28
28 27 30 31 34 37 36 32 28 28 30 30 31 37 103 117
95 103 117 132 135 136 135 133 117 112 111 109 108 122 130 129
115 93 90 93 86 91 117 126 115 120 130 130 121 104 89 77
56 85 93 53 3 2 5 4 6 5 9 29 35 36 33 16
7 8 8 8 9 24 37 37 37 37 37 37 37 37 35 11
0 0 0 0 0 0 0 6 35 36 36 36 36 35 28 26
0 0 0 0 0 0 0 0 0 0 0 0 0 0 0 0
0 0 14 29 26 15 2 2 5 7 15 26 29 34 35 40
40 29 27 29 31 36 40 36 30 29 30 30 31 34 87 118
106 101 115 133 135 135 133 123 109 118 112 101 92 106 115 112
96 67 45 60 75 84 111 124 120 113 119 122 114 97 84 77
56 51 37 10 5 4 5 4 6 5 9 29 35 36 33 17
7 8 9 8 8 23 37 38 37 37 37 37 37 37 36 17
0 0 0 0 0 0 0 6 35 36 36 35 35 34 28 26
0 0 0 0 0 0 0 0 0 0 0 0 0 0 0 0
0 0 12 28 25 13 0 0 0 0 14 27 29 38 35 38
37 13 5 7 9 16 36 39 31 30 30 30 30 31 67 115
116 98 111 128 135 134 125 111 109 114 109 83 51 72 96 93
75 71 66 75 81 94 113 120 121 116 108 112 108 91 80 77
54 23 7 5 5 4 4 4 5 5 9 29 35 36 34 19
11 11 10 10 11 23 37 38 38 37 37 37 37 36 36 30
5 0 0 0 0 0 0 3 26 36 36 36 35 34 29 26
0 0 0 0 0 0 0 0 0 0 0 0 0 0 0 0
0 0 11 28 25 13 0 0 0 0 13 28 28 35 23 16
26 6 0 0 0 4 30 38 31 31 30 30 30 31 46 110
118 98 108 121 127 128 115 106 117 111 103 100 96 102 113 98
88 93 86 92 91 105 102 110 113 113 101 103 103 87 77 81
55 23 7 5 5 4 5 4 5 5 8 28 35 36 35 29
27 27 22 25 26 31 37 38 37 37 37 37 38 35 25 27
9 0 0 0 0 0 0 0 11 36 36 36 35 34 30 27
0 0 0 0 0 0 0 0 0 0 0 0 0 0 0 0
0 0 9 28 26 14 0 0 0 0 13 27 27 34 16 2
20 6 0 0 0 2 27 38 31 30 30 31 31 30 34 91
113 94 101 111 119 118 105 109 118 110 101 98 97 108 121 122
112 107 97 97 106 113 108 110 107 105 108 102 101 87 78 80
54 22 6 4 4 3 3 4 5 5 8 27 34 35 35 36
36 36 34 36 35 36 38 38 38 38 38 38 35 22 3 1
8 8 0 0 0 0 0 0 9 36 36 36 36 35 29 26
0 0 0 0 0 0 0 0 0 0 0 0 0 0 0 0
0 0 7 26 25 16 0 0 0 0 15 27 27 34 17 2
20 8 0 0 0 0 23 37 31 29 30 30 30 29 30 41
61 81 100 103 113 112 104 110 110 106 105 108 108 110 112 112
110 113 119 118 118 115 111 106 106 109 105 104 112 84 84 81
54 23 8 4 4 3 3 3 4 4 7 26 32 33 34 35
36 36 37 37 36 33 31 30 28 26 25 25 16 2 0 0
6 6 0 0 0 0 0 0 3 31 35 35 35 34 29 25
0 0 0 0 0 0 0 0 0 0 0 0 0 0 0 0
0 0 6 25 25 16 0 0 0 0 15 26 27 34 16 2
19 8 0 0 0 0 21 37 31 29 30 30 30 29 30 29
31 67 100 100 110 112 110 110 108 111 118 122 125 129 132 130
131 130 122 104 84 66 57 54 54 88 104 112 120 81 94 74
51 24 9 6 5 5 4 3 4 4 10 26 31 32 33 34
35 36 36 36 27 9 6 56 27 1 2 2 0 0 0 6
0 0 0 0 0 0 0 0 0 24 35 35 34 33 29 26
0 0 0 0 0 0 0 0 0 0 0 0 0 0 0 0
0 0 5 25 25 17 1 0 0 0 12 27 28 35 17 2
18 12 0 0 0 0 19 37 31 29 29 29 29 29 29 29
30 56 98 104 106 117 121 116 106 108 105 97 100 105 115 122
117 105 86 74 77 72 68 45 52 109 116 123 118 78 101 67
52 29 21 18 15 13 13 8 5 11 17 26 29 30 31 33
35 35 35 34 18 0 49 132 107 13 4 22 1 0 1 14
0 0 0 0 0 0 0 0 0 6 20 21 27 33 29 26
0 0 0 0 0 0 0 0 0 0 0 0 0 0 0 0
0 0 4 24 25 19 2 0 4 1 11 28 29 36 21 4
16 14 2 2 2 0 18 36 30 29 29 30 30 30 30 29
30 44 89 111 104 120 128 121 91 54 38 64 99 98 99 113
105 108 117 106 104 104 86 60 94 125 118 130 108 81 97 62
49 31 29 27 23 22 20 11 2 14 21 26 28 29 30 33
34 34 24 21 9 1 58 101 96 22 11 24 17 12 16 22
11 8 7 6 4 5 4 3 3 3 4 4 21 34 30 26
0 0 0 0 0 0 0 0 0 0 0 0 0 0 0 0
0 0 3 24 25 19 4 0 9 10 13 30 29 37 26 10
16 13 5 7 3 0 16 34 30 28 29 30 29 29 29 29
30 37 79 107 109 118 123 118 76 36 50 94 117 123 127 134
134 131 135 126 119 118 91 67 115 120 122 130 96 87 86 56
47 30 30 28 25 23 22 13 2 14 22 24 26 28 29 31
33 33 14 13 14 14 17 20 22 22 25 27 29 29 28 27
25 21 19 16 14 13 11 11 9 9 8 9 24 37 34 30
0 0 0 0 0 0 0 0 0 0 0 0 0 0 0 0
0 0 3 23 24 22 20 19 25 27 28 35 32 36 25 15
16 16 11 12 9 6 18 30 28 29 29 29 30 30 30 29
29 33 70 95 109 114 123 125 123 81 63 113 126 131 136 136
136 135 135 129 111 95 52 99 112 116 123 123 84 89 70 54
44 30 30 29 25 24 22 13 1 14 22 24 26 27 29 31
33 33 14 10 11 11 12 12 14 15 17 19 20 17 17 16
11 8 6 4 3 9 31 34 36 38 39 41 45 48 44 39
0 0 0 0 0 0 0 0 0 0 0 0 0 0 0 0
0 0 3 23 25 25 39 43 44 44 45 44 35 35 19 13
18 24 21 21 19 19 22 25 27 28 29 29 29 30 29 29
29 31 58 84 101 110 124 127 133 120 89 101 114 128 135 135
135 134 134 109 75 75 90 103 108 117 122 112 76 82 58 56
39 31 30 29 26 25 23 15 1 13 21 23 26 26 29 31
33 33 22 5 0 0 0 0 0 0 0 0 0 0 0 0
0 0 0 0 0 20 55 56 57 55 55 53 52 49 45 40
0 0 0 0 0 0 0 0 0 0 0 0 0 0 0 0
0 0 3 22 24 25 41 45 45 44 45 43 37 35 14 6
16 26 24 24 24 24 24 25 28 28 28 29 29 29 29 29
29 29 50 75 89 101 120 124 131 126 111 94 70 96 108 120
127 121 120 93 102 102 97 99 110 115 118 102 71 72 54 52
33 31 31 29 27 26 24 16 2 14 22 24 25 27 29 31
33 34 23 1 0 0 0 0 0 0 0 0 0 0 0 0
0 0 0 0 0 33 53 53 54 52 50 45 46 43 39 36
0 0 0 0 0 0 0 0 0 0 0 0 0 0 0 0
0 0 2 22 23 22 27 28 28 27 27 25 27 33 13 1
14 27 26 27 27 28 27 27 27 27 28 29 29 29 28 28
28 28 40 66 80 90 106 120 126 129 115 107 97 93 104 112
116 115 111 107 113 103 98 98 113 114 114 86 69 63 53 45
30 30 30 29 28 27 25 18 2 13 22 24 25 26 28 31
32 32 15 0 0 0 0 0 0 0 0 0 0 0 0 0
0 0 0 0 2 33 39 38 45 40 37 31 33 32 29 31
0 0 0 0 0 0 0 0 0 0 0 0 0 0 0 0
0 0 2 21 23 19 15 15 15 15 15 14 21 33 14 0
12 27 27 28 28 28 28 28 28 28 28 28 28 28 29 28
28 28 31 58 72 82 93 116 128 131 123 111 106 103 111 129
118 113 116 121 115 108 100 103 113 111 110 82 64 56 50 33
24 25 25 27 28 27 25 19 3 11 22 23 25 26 27 29
31 31 10 0 0 0 0 0 0 0 0 0 0 0 0 0
0 0 0 0 0 7 6 6 30 32 29 26 24 25 24 28
0 0 0 0 0 0 0 0 0 0 0 0 0 0 0 0
0 0 3 22 23 20 18 17 16 16 16 14 22 33 21 13
22 28 26 27 27 27 27 27 27 28 27 28 28 28 28 28
28 27 27 45 72 78 83 101 120 132 128 117 112 113 114 122
119 118 115 115 113 107 100 107 114 112 107 75 59 53 45 23
19 16 15 21 26 26 24 19 3 11 23 25 25 26 27 29
30 26 2 0 0 0 0 0 0 0 0 0 0 0 0 0
0 0 0 0 0 0 0 0 18 36 33 32 31 31 29 29
0 0 0 0 0 0 0 0 0 0 0 0 0 0 0 0
0 0 6 24 24 20 20 20 20 19 18 15 23 35 31 33
35 30 26 27 27 26 26 26 26 26 27 27 27 27 28 27
27 26 26 31 62 75 78 89 109 126 129 123 118 117 119 118
114 113 110 109 109 105 106 113 116 109 95 64 57 51 39 16
14 11 11 18 24 25 23 19 3 10 22 25 26 26 26 27
28 17 0 0 0 0 0 0 0 0 0 0 0 0 0 0
0 0 0 0 0 0 0 0 9 33 33 32 31 30 30 29
0 0 0 1 2 2 2 3 4 5 6 6 8 8 10 10
12 13 17 23 23 20 21 21 21 21 19 16 21 27 25 29
29 26 25 26 26 26 26 26 26 26 26 26 26 26 27 27
27 25 25 26 44 71 79 78 102 118 127 127 122 120 117 111
106 105 106 106 112 112 112 118 115 105 82 55 52 46 40 13
12 12 9 14 21 23 22 18 4 8 21 24 25 26 26 26
25 6 0 0 0 0 0 0 0 0 0 0 0 0 0 0
0 0 0 0 0 0 0 0 3 29 30 28 29 29 27 27
12 12 14 15 17 16 17 17 17 18 18 19 20 20 20 20
20 20 20 20 20 20 20 20 20 20 20 18 19 22 20 21
23 23 25 26 26 26 26 26 25 25 25 25 26 26 26 26
26 25 25 24 33 55 71 72 91 112 124 128 125 125 123 117
114 109 110 115 117 117 117 121 113 94 68 49 46 45 42 10
11 11 8 11 19 21 21 18 4 7 21 23 24 25 25 25
21 2 0 0 0 0 0 0 0 3 0 0 0 0 0 0
0 0 0 10 0 0 0 0 0 21 24 18 19 20 18 18
18 15 19 19 20 20 19 19 19 20 19 20 19 20 20 20
19 19 20 19 20 20 21 21 21 21 21 18 20 22 21 20
22 24 24 25 25 25 26 26 25 25 25 25 25 26 26 26
26 25 25 25 37 50 60 72 78 106 116 129 129 126 127 125
120 115 111 114 116 118 119 124 109 80 55 45 46 50 43 9
10 9 7 9 15 20 20 18 5 6 21 23 23 24 23 23
11 0 0 0 0 0 0 0 0 0 0 0 0 0 0 0
0 0 2 21 0 0 0 0 0 16 20 19 19 18 15 18
18 15 18 19 19 19 19 18 20 25 27 13 8 10 15 15
9 12 17 17 18 19 21 21 21 21 21 19 21 22 22 21
22 23 24 25 25 25 25 25 25 25 25 25 24 25 25 25
24 24 25 26 37 67 49 67 69 92 110 122 125 126 124 122
118 113 112 111 114 113 117 121 99 64 44 41 48 54 42 14
11 10 8 9 12 18 20 18 5 5 20 22 23 24 24 23
8 0 0 0 0 0 0 0 0 0 0 0 0 0 0 0
0 0 10 25 0 0 0 0 0 9 24 25 26 24 22 24
14 13 14 13 13 13 13 16 33 44 28 2 0 0 0 1
0 1 9 13 12 13 12 9 11 15 20 20 21 22 23 22
22 23 24 24 25 25 25 25 24 24 25 25 25 25 25 24
21 21 24 26 34 75 61 55 66 73 99 113 121 121 123 121
117 113 114 114 113 110 115 113 85 50 39 48 56 59 38 8
17 11 9 7 8 17 19 18 8 8 20 23 24 23 24 23
4 0 0 0 0 0 0 6 0 0 0 0 0 0 0 0
0 0 14 18 0 0 0 0 0 4 25 28 28 28 27 27
1 1 1 1 1 4 6 28 51 38 7 0 0 0 0 0
0 0 0 1 1 0 0 0 0 2 15 21 20 22 23 23
23 23 24 24 25 25 24 25 25 24 24 24 24 22 21 22
19 17 19 24 35 76 80 58 57 61 79 101 116 122 121 123
120 115 113 113 115 111 109 100 64 38 44 57 62 63 36 3
17 15 10 7 8 16 19 18 16 17 21 24 23 23 24 26
1 0 0 0 0 0 1 12 0 0 0 0 0 0 0 0
0 0 4 3 0 0 0 0 0 0 13 22 23 23 23 25
0 0 0 0 0 6 17 44 46 14 0 0 0 0 0 0
0 0 0 0 0 0 0 0 0 0 8 21 22 22 23 23
22 22 23 24 24 24 24 24 24 24 24 23 23 19 17 21
23 19 17 25 33 70 88 79 59 55 60 86 102 117 121 121
118 116 113 115 113 109 102 81 45 40 58 67 65 65 38 4
12 22 23 21 17 20 20 19 19 19 20 21 22 22 23 12
0 0 0 0 0 0 0 0 0 0 0 0 0 0 0 0
0 0 0 0 0 0 0 0 0 0 2 11 16 14 17 23
0 0 0 0 0 7 29 45 25 2 0 0 0 0 0 0
0 0 0 0 0 0 0 0 0 0 8 22 23 22 23 23
23 23 23 24 24 24 24 24 23 23 23 24 21 17 14 18
23 22 22 31 27 63 93 90 77 58 51 61 83 99 114 114
116 115 114 115 107 102 86 56 39 57 67 69 69 66 37 8
14 26 35 40 38 35 32 26 22 17 15 13 13 13 12 3
0 0 0 0 0 0 0 0 0 0 0 0 0 0 0 0
0 0 0 0 0 0 0 0 0 0 6 10 18 19 20 24
0 0 3 3 1 6 39 37 6 0 2 3 0 0 0 0
0 0 0 0 0 0 0 0 0 2 17 23 24 23 22 22
23 23 23 24 24 23 24 24 23 23 23 22 19 16 15 17
24 30 31 32 23 61 91 95 90 82 64 51 59 75 93 109
111 110 109 106 98 87 60 42 60 69 71 73 70 65 32 10
17 23 27 32 37 26 19 13 7 3 2 2 1 1 0 0
0 0 0 0 0 0 0 0 0 0 0 0 0 0 0 0
0 0 0 0 0 0 0 0 0 0 11 17 20 26 26 27
1 5 8 8 1 10 44 29 5 12 20 19 2 0 0 0
0 0 0 0 0 0 0 0 0 10 19 20 20 20 22 22
23 23 22 22 23 23 23 23 23 22 20 20 18 17 18 16
21 29 35 33 27 57 92 98 99 95 81 69 54 52 61 84
94 94 92 87 69 52 48 64 74 74 77 77 73 65 27 6
18 24 26 19 24 5 1 0 0 0 0 0 0 0 0 0
0 0 0 0 0 0 0 0 0 0 0 0 0 0 0 0
0 0 0 0 1 0 0 0 0 0 6 11 11 26 27 27
13 11 9 6 0 16 40 15 9 27 28 25 8 0 5 9
1 0 0 0 0 0 0 0 0 1 4 4 4 8 19 22
22 22 22 22 22 22 22 22 22 21 20 19 20 18 17 17
19 24 34 33 36 54 92 99 102 101 94 92 82 69 53 47
49 51 50 46 47 58 67 75 78 82 81 80 76 65 25 6
23 28 29 17 23 9 4 2 0 0 0 0 0 0 0 0
0 0 0 0 0 0 0 0 0 0 0 0 0 0 0 0
0 0 0 0 0 0 0 0 0 0 0 0 2 21 27 26
17 10 5 1 0 24 38 6 6 29 29 25 7 2 20 23
14 2 0 0 0 0 0 0 0 0 0 0 0 0 16 21
21 21 21 21 21 21 22 22 22 20 19 18 21 18 16 18
17 29 35 34 40 45 91 102 105 105 104 99 97 96 90 80
67 54 56 65 67 73 77 77 81 87 83 81 76 66 23 13
29 35 30 14 22 23 16 14 3 0 0 0 0 0 0 0
0 0 0 0 0 0 0 0 0 0 0 0 0 0 0 0
0 0 0 0 0 0 0 0 0 0 0 0 0 12 25 26
14 3 0 0 0 29 39 5 7 25 16 21 12 15 30 27
19 6 0 1 0 0 0 0 0 0 0 0 0 0 12 20
20 20 20 19 20 20 20 21 21 20 19 20 23 22 18 15
17 36 37 36 46 39 89 102 108 107 106 104 103 107 108 111
116 118 112 101 92 89 86 82 83 90 87 84 78 67 19 26
37 38 32 20 14 12 3 1 0 0 0 0 0 0 0 2
13 9 0 0 0 0 0 0 0 0 0 0 0 0 0 0
0 0 0 0 0 0 0 0 0 0 0 0 0 4 20 20
10 0 0 0 0 32 40 6 6 12 0 12 19 28 34 24
17 9 0 1 0 0 0 0 0 0 0 0 0 0 11 20
19 19 19 19 19 18 19 20 20 18 19 23 24 24 25 23
30 41 40 37 55 38 89 102 107 109 111 111 114 115 122 127
130 129 129 128 123 112 103 98 99 100 97 92 82 68 23 38
42 37 30 26 22 21 19 19 18 14 8 3 0 0 0 11
25 15 0 0 0 0 0 0 0 0 0 0 0 0 0 0
0 0 0 0 0 0 0 0 0 0 0 0 0 1 16 18
10 4 1 0 1 33 45 15 8 6 0 14 28 36 31 10
11 11 0 0 0 0 0 0 0 0 0 0 0 0 6 19
21 21 19 18 19 18 19 23 26 29 33 33 29 25 27 28
37 39 43 44 66 42 89 104 111 118 121 120 120 121 125 132
132 133 132 133 133 123 116 112 113 113 108 101 89 64 43 42
43 38 30 25 13 20 27 41 44 44 43 40 32 17 3 1
4 1 0 0 0 0 1 2 0 0 0 0 1 0 0 0
0 0 0 0 0 0 0 0 0 0 0 0 0 0 13 18
14 12 10 0 0 29 45 25 12 2 0 17 31 36 19 0
7 11 0 0 0 0 0 0 0 0 0 0 0 0 4 25
30 31 24 21 23 27 35 37 38 39 42 41 37 28 26 27
38 39 44 48 78 56 87 106 115 120 126 126 123 120 123 132
134 134 134 133 133 123 118 115 114 118 115 105 92 58 63 42
43 39 31 24 15 9 20 40 46 46 44 43 46 44 41 32
23 13 4 0 0 0 2 6 0 0 0 1 4 0 0 0
0 0 0 0 0 0 0 0 0 0 0 0 0 1 11 17
18 14 12 0 0 24 39 32 13 0 1 19 33 23 6 0
6 9 0 0 0 0 0 0 0 0 0 0 0 0 5 33
40 41 37 40 40 39 40 42 45 45 45 44 39 28 24 32
38 41 44 48 75 82 79 106 112 120 125 127 126 122 122 127
134 136 135 134 129 119 116 115 119 121 115 107 92 66 59 42
43 39 31 25 23 16 16 36 49 46 41 45 43 46 47 45
46 44 42 35 22 13 7 6 0 0 0 1 6 0 0 0
0 0 0 0 0 0 0 0 0 0 0 0 0 2 8 15
19 15 14 1 0 19 38 36 13 0 1 13 14 3 0 0
0 0 0 0 0 0 0 0 0 0 0 0 0 4 14 37
42 42 44 41 41 39 41 40 46 50 48 44 40 29 25 31
36 39 43 49 62 101 71 105 114 122 127 130 130 126 120 122
130 135 134 132 122 116 117 119 122 122 117 110 85 83 52 44
47 40 32 26 25 19 23 36 43 46 42 39 43 42 40 45
43 50 47 47 48 48 44 36 23 10 0 1 6 1 0 0
0 0 0 0 0 0 0 0 0 0 0 0 0 3 8 17
21 16 12 2 0 7 17 13 4 0 0 0 0 0 0 0
0 0 0 0 0 0 0 0 0 0 2 19 30 40 39 40
40 40 44 45 41 38 40 43 49 49 47 43 38 26 22 35
35 37 41 53 53 104 63 99 113 122 127 130 129 127 123 119
122 131 135 127 118 118 121 123 123 122 120 112 79 102 48 48
46 38 32 27 26 21 22 35 46 47 43 38 41 44 44 49
48 48 47 42 43 43 42 40 42 42 37 18 7 1 0 0
0 0 0 0 0 0 0 0 0 0 0 0 0 3 8 18
5 1 0 0 0 0 0 0 0 0 0 0 0 0 0 0
0 0 0 0 0 0 0 0 0 11 35 43 43 45 42 41
41 42 43 41 37 33 41 47 46 44 43 40 33 26 26 36
34 37 39 50 53 96 80 83 111 121 125 128 130 127 123 120
119 122 124 118 117 118 122 126 128 124 121 107 102 98 46 45
46 38 33 26 23 26 28 36 42 45 43 43 44 41 43 44
46 44 45 43 44 42 42 41 43 43 43 46 36 8 0 0
0 0 0 0 0 0 0 0 0 0 0 0 0 3 7 17
0 0 0 0 0 0 0 0 1 0 0 0 0 0 0 0
2 0 0 0 0 0 0 4 26 41 45 44 43 42 40 42
41 42 44 43 37 32 41 46 43 44 43 40 34 30 31 35
31 36 36 45 46 81 106 68 108 120 124 127 131 129 126 122
118 113 110 111 115 120 124 128 129 126 120 94 125 80 44 45
42 36 30 25 18 26 32 42 44 42 37 41 41 40 43 44
44 42 45 42 42 41 38 39 41 40 41 41 44 41 18 0
0 0 0 0 0 0 0 0 0 0 0 0 0 1 5 15
0 0 0 0 0 0 1 13 15 8 4 10 11 10 2 5
5 0 0 0 0 0 4 38 46 44 44 42 43 42 40 43
42 42 43 43 38 32 39 46 45 46 45 41 35 33 32 35
32 34 37 43 47 67 119 82 95 119 124 128 132 132 128 125
121 117 114 115 119 123 129 132 130 127 112 100 115 56 44 45
40 38 28 25 12 25 42 45 44 41 37 42 39 42 43 42
41 43 42 41 40 40 38 40 38 38 41 38 40 37 27 15
0 0 0 0 0 0 0 0 0 0 0 0 0 1 7 13
0 0 0 0 0 0 2 17 18 23 25 21 23 20 13 15
4 0 0 0 0 1 33 45 43 42 43 43 43 42 40 42
41 42 45 43 40 31 37 45 47 45 46 42 34 32 32 33
31 32 38 44 51 57 115 108 84 118 124 127 132 133 133 131
126 124 123 123 125 128 131 132 130 124 95 112 94 43 44 41
37 36 29 24 6 24 42 46 45 41 41 43 37 43 40 39
39 42 41 42 43 43 43 43 42 40 42 40 41 37 22 34
11 0 0 0 0 0 0 0 0 0 0 0 0 1 10 13
0 0 0 0 0 0 0 7 18 30 33 28 29 28 26 14
0 0 0 0 0 23 45 43 41 39 41 43 44 44 43 42
41 44 45 45 41 31 37 41 43 44 44 45 35 32 34 37
33 33 37 43 50 57 105 123 89 108 124 127 132 133 133 132
129 127 127 127 130 131 132 132 129 105 90 121 84 44 48 43
35 35 29 25 7 21 42 41 40 37 42 44 39 43 44 40
37 41 42 40 41 42 42 43 42 43 42 37 38 35 19 31
34 1 0 0 0 0 0 0 0 0 0 0 0 3 14 16
0 0 0 0 0 0 0 1 14 21 29 35 33 32 21 3
0 0 0 0 5 39 40 40 38 39 43 46 46 46 46 46
46 47 46 44 43 33 37 41 42 46 44 46 39 30 36 43
35 34 37 46 48 53 91 133 107 89 126 132 134 136 135 133
130 130 132 133 133 134 134 133 121 86 87 121 81 5 17 44
38 33 30 26 12 29 43 43 42 37 40 45 41 43 45 40
37 42 44 40 38 43 44 45 45 43 42 40 40 35 21 32
38 11 0 0 0 0 0 0 0 0 0 0 0 5 15 16
0 0 0 0 0 0 0 0 3 11 21 27 23 16 3 0
0 0 0 1 27 43 36 37 40 36 42 47 48 43 45 45
48 48 47 45 44 34 38 39 38 47 46 47 40 31 36 45
38 37 38 47 54 56 78 136 123 91 118 134 136 136 137 137
135 135 135 135 135 135 136 132 109 89 107 117 31 0 0 21
41 33 28 26 17 36 42 42 40 38 38 43 44 43 41 38
39 43 45 41 39 43 46 44 45 44 42 41 42 35 22 30
37 26 0 0 0 0 0 0 0 0 0 0 0 4 13 12
0 0 0 0 0 0 0 0 0 1 8 10 9 1 0 2
0 0 0 15 36 42 39 36 41 34 40 47 47 44 47 49
49 47 45 46 44 36 39 38 37 48 47 45 43 34 36 47
40 36 37 47 56 40 68 136 132 107 98 136 137 137 137 137
136 136 135 136 136 136 133 120 105 93 121 86 2 0 0 8
44 33 30 30 24 40 43 41 41 40 37 42 42 43 40 37
38 43 41 38 37 42 45 45 43 42 40 41 42 35 23 35
38 33 9 0 0 0 0 0 0 0 0 0 0 5 15 13
0 0 0 0 0 0 0 0 0 2 5 5 2 0 2 6
1 0 6 31 36 40 38 36 43 35 40 46 47 46 48 48
48 48 46 47 47 40 37 34 38 47 47 43 43 34 36 48
41 37 39 47 57 8 51 136 128 113 93 125 138 138 137 137
137 137 137 136 137 133 124 101 107 114 127 32 0 0 0 5
47 32 30 33 27 39 41 41 39 39 36 39 42 41 35 34
36 43 42 41 39 41 43 43 43 43 42 44 44 35 22 38
40 33 22 7 0 0 0 0 0 0 0 0 0 5 17 13
0 0 0 0 0 0 0 0 3 8 7 7 6 14 8 0
0 2 28 30 37 39 34 35 44 35 37 43 47 49 50 50
51 51 47 48 50 47 39 35 36 46 46 42 42 37 38 47
41 39 37 44 55 5 37 138 126 120 115 112 138 137 137 137
137 136 136 136 133 112 74 83 123 131 74 12 3 1 0 6
48 35 28 35 31 39 40 40 39 38 37 37 40 39 34 33
37 39 39 40 38 42 43 43 45 42 41 42 43 32 25 39
40 33 22 28 10 0 0 0 0 0 0 0 0 4 14 11
2 0 0 0 0 0 0 0 3 8 6 6 16 33 21 0
0 26 38 31 39 39 31 32 44 34 34 42 45 48 48 49
49 49 47 48 51 49 42 31 33 45 45 40 43 36 43 47
42 43 34 41 53 8 23 135 132 113 125 104 125 138 137 136
137 137 136 129 96 59 54 112 132 87 25 10 13 8 0 7
49 37 34 44 39 41 42 40 40 41 41 37 38 38 32 35
39 41 41 38 36 38 41 42 40 40 38 40 40 31 25 38
37 33 28 42 38 2 0 0 0 0 0 0 0 3 13 10
2 2 0 0 0 0 0 0 3 10 8 9 24 37 22 1
17 44 37 34 40 40 32 31 45 36 38 41 45 50 49 49
49 47 47 48 46 48 41 28 32 44 47 41 44 37 43 48
42 46 42 43 51 8 9 122 137 121 126 111 93 134 137 137
137 134 122 85 57 55 65 121 83 23 16 8 19 18 5 15
48 45 37 46 41 41 42 40 41 41 43 41 39 40 32 37
40 41 39 38 36 38 41 42 41 39 40 43 43 34 27 39
39 38 36 42 88 64 1 0 0 0 0 0 0 0 2 2
0 2 4 1 0 0 0 0 2 12 11 21 37 46 37 25
47 45 39 36 41 41 30 28 43 37 38 39 44 48 52 50
50 49 48 48 47 51 42 27 31 45 49 41 45 37 45 46
43 47 45 48 49 3 10 94 140 134 130 107 62 90 123 134
131 118 77 43 26 30 42 41 27 21 13 15 31 31 28 22
33 56 47 43 46 41 44 43 42 41 42 42 40 39 35 40
44 41 39 40 38 41 43 43 41 37 39 43 43 33 28 39
43 44 40 54 125 128 39 0 0 0 0 0 0 0 0 0
0 1 4 3 0 0 0 0 0 6 14 27 40 48 47 67
53 42 42 35 39 41 30 29 45 39 38 39 43 47 49 48
48 42 44 47 44 48 40 32 30 41 47 42 44 41 44 41
42 46 51 54 34 10 26 48 121 137 137 117 63 54 75 102
108 77 37 27 25 30 36 31 26 24 20 34 39 36 40 37
28 40 57 54 54 46 40 44 43 43 43 44 41 41 40 42
43 40 39 41 41 40 44 41 39 37 42 41 41 32 30 40
46 44 46 96 136 130 101 6 0 0 0 0 0 0 0 0
1 0 1 2 1 0 0 0 0 0 8 25 37 46 61 123
74 47 45 37 37 41 34 29 46 39 40 38 43 46 47 47
48 42 43 47 46 50 44 32 30 44 46 42 46 44 42 44
45 49 53 46 28 28 30 29 48 98 126 121 65 49 51 61
74 56 33 37 42 44 45 35 28 35 37 40 41 37 40 41
40 34 36 48 53 59 42 39 45 46 48 46 43 40 41 43
44 41 41 42 40 43 43 42 39 37 41 43 41 32 29 44
42 48 73 132 134 126 131 56 0 0 0 0 0 0 0 0
6 1 0 0 0 0 0 0 0 0 0 12 26 43 108 141
116 47 44 44 37 41 34 28 46 40 40 38 45 48 48 48
49 44 46 47 47 51 46 33 31 44 48 43 45 55 52 47
46 43 40 38 42 42 36 31 31 34 43 46 11 11 24 35
52 47 37 39 44 49 46 33 30 43 42 43 44 41 42 42
43 41 40 33 31 34 32 38 45 46 46 43 40 43 43 41
40 40 40 41 42 45 44 40 38 39 42 45 44 34 31 41
49 65 126 136 133 125 133 115 11 0 0 0 0 0 0 0
7 3 0 0 0 0 0 0 0 5 6 16 28 70 139 141
138 77 42 44 39 39 36 29 45 40 38 39 44 47 48 50
47 44 46 48 48 51 46 35 33 41 48 43 44 42 38 34
37 40 43 44 46 46 47 45 42 41 37 41 28 35 34 33
51 40 37 45 48 51 44 30 38 44 45 45 45 42 45 44
46 45 43 40 42 44 43 43 43 46 46 42 41 45 45 44
41 39 42 44 43 46 46 43 41 44 44 46 45 34 32 45
57 120 135 134 132 130 134 134 70 0 0 0 0 0 0 0
5 2 0 0 0 0 0 0 1 10 13 30 50 122 141 140
140 120 49 39 43 40 37 29 44 43 39 39 43 46 48 49
47 45 47 49 48 50 47 37 33 39 48 45 45 46 46 44
46 44 46 47 47 47 48 48 45 45 40 43 35 41 32 44
76 43 41 47 51 51 39 33 47 46 44 44 44 42 43 45
44 46 45 44 43 44 45 45 46 46 46 44 43 45 44 44
42 39 41 42 43 44 45 44 43 42 43 48 45 35 34 53
109 136 135 134 132 133 134 134 120 12 0 0 0 2 13 6
3 0 0 0 0 0 0 0 0 5 13 32 90 141 140 140
139 137 73 44 43 41 36 56 111 102 76 54 47 47 50 50
48 46 46 49 49 52 48 38 33 39 50 48 46 49 52 51
49 47 47 45 46 47 48 50 49 45 42 42 39 37 33 77
137 115 90 77 81 66 37 39 49 54 80 104 108 95 79 61
47 45 43 44 45 45 48 48 49 45 48 65 89 102 93 78
62 49 45 44 44 45 46 46 45 55 75 90 90 52 39 92
135 134 133 133 133 134 134 132 131 60 0 0 0 2 11 6
0 0 0 0 0 0 0 0 0 5 14 43 128 141 140 140
138 138 117 48 40 42 36 83 141 139 138 134 127 117 110 105
96 81 72 75 91 101 92 60 35 37 47 51 50 49 48 49
48 46 45 45 44 46 47 47 46 44 42 43 44 34 34 109
138 136 137 136 136 130 99 98 114 131 136 135 135 135 135 134
124 106 83 58 46 45 46 46 51 81 117 134 135 134 133 134
133 128 122 111 102 101 103 111 123 131 133 132 132 99 63 132
133 132 132 132 131 131 131 130 129 113 10 0 0 0 0 0
0 0 0 0 0 0 0 0 0 3 15 82 140 139 139 138
139 138 137 80 41 38 37 83 140 138 138 137 138 138 138 137
137 137 138 137 137 137 137 133 90 43 41 47 45 46 46 49
54 61 72 75 68 60 54 51 51 54 61 69 88 54 46 130
136 135 136 135 135 135 135 135 136 135 135 134 134 134 133 133
133 133 134 131 122 107 102 113 127 133 133 133 133 133 133 132
133 132 132 132 132 132 132 132 131 131 131 131 130 110 104 131
130 130 129 129 129 128 129 128 126 128 76 1 0 0 0 0
