P2
128 120
135
0 6 36 33 27 27 26 26 26 26 26 25 25 25 25 24
25 24 24 24 23 23 23 23 22 22 22 21 21 21 21 20
20 20 20 19 19 19 18 18 18 17 17 17 17 17 16 16
16 16 18 20 20 20 19 14 14 16 15 21 21 20 20 19
20 20 18 18 18 15 18 19 20 21 21 21 22 21 21 22
22 22 22 23 22 23 23 24 24 24 25 25 25 25 25 26
26 25 26 26 26 26 26 27 28 28 28 28 29 29 29 29
30 29 29 29 29 29 29 30 29 30 30 30 30 30 31 30
0 7 36 33 27 27 26 27 26 26 26 26 25 26 25 25
25 24 24 24 24 24 23 23 23 22 22 21 21 21 22 20
20 21 20 20 20 19 19 19 18 18 18 17 17 17 17 16
17 17 18 21 21 20 20 15 15 17 16 21 21 20 20 20
20 21 19 19 19 16 19 20 21 21 21 22 22 21 22 22
23 23 23 23 24 23 24 24 25 24 24 25 25 25 25 26
26 26 27 27 27 27 29 28 29 28 29 29 29 29 29 29
28 29 29 28 29 30 30 30 30 30 30 30 30 30 30 30
0 7 36 33 27 26 27 26 27 26 26 26 26 25 25 25
25 25 24 24 23 24 23 23 23 23 22 22 22 21 21 21
22 21 21 20 20 20 19 19 19 19 19 18 18 17 17 17
17 17 18 21 21 21 20 14 15 19 16 22 22 22 21 21
21 21 19 20 18 16 20 20 21 21 22 22 23 23 23 23
23 23 23 24 24 24 24 24 25 25 25 26 26 26 26 26
27 26 27 27 27 27 28 28 28 27 28 28 28 28 29 29
30 30 31 29 30 30 30 30 30 30 30 30 30 30 30 31
0 8 35 32 26 26 26 25 26 25 25 26 25 26 25 25
25 24 25 25 24 23 24 23 23 23 23 22 21 21 21 21
20 20 20 20 20 20 19 19 19 18 19 18 17 17 17 17
17 18 19 21 21 21 21 15 15 19 15 20 21 21 21 21
20 21 20 20 19 17 20 20 21 21 22 22 23 23 23 23
23 23 23 23 24 24 24 24 25 25 25 26 26 26 26 26
26 26 27 27 27 27 27 27 28 28 28 29 28 29 29 29
29 29 30 30 29 30 29 30 30 30 30 30 31 31 30 30
0 7 34 31 26 26 26 26 26 26 25 25 25 25 25 25
24 24 24 24 23 24 22 22 22 22 22 22 22 22 22 21
21 21 20 20 20 20 19 19 19 19 18 18 18 18 18 17
17 18 18 21 21 21 20 15 15 20 15 21 22 22 22 21
20 21 20 20 19 16 19 20 21 21 22 22 23 23 23 23
23 23 24 24 24 24 24 24 25 25 26 26 26 26 25 25
26 26 27 27 27 27 28 28 28 28 28 28 28 29 29 29
29 30 30 30 29 29 29 29 29 29 30 30 30 30 30 30
2 14 35 31 25 25 25 26 26 25 25 25 24 24 24 24
24 24 24 24 24 24 24 22 23 22 22 22 21 21 21 20
21 20 21 20 20 20 19 19 19 18 18 18 17 17 17 17
18 18 19 21 21 21 20 15 15 20 16 21 22 21 21 21
19 19 19 20 20 17 20 21 22 22 22 23 23 23 23 23
23 23 23 23 24 24 24 25 25 24 25 25 25 25 25 26
26 26 27 28 28 28 29 29 29 29 29 29 29 29 29 29
28 29 29 29 28 28 29 30 30 30 30 30 30 30 30 30
16 22 34 30 25 26 26 25 25 26 25 26 25 25 25 25
25 24 24 24 24 23 23 22 22 22 22 21 22 22 21 21
21 21 20 20 20 19 20 20 19 20 19 18 18 18 17 17
18 18 19 21 22 21 21 15 15 21 16 21 23 22 22 22
21 21 21 20 19 17 20 20 22 22 22 22 23 24 24 24
24 25 24 24 25 24 25 24 25 25 25 25 25 26 26 26
27 27 27 28 27 28 29 29 28 29 28 28 29 29 29 30
29 30 30 30 29 30 29 30 30 29 30 30 30 30 31 30
26 27 29 27 26 26 26 26 26 26 25 25 25 24 24 24
24 24 24 23 23 24 23 23 23 23 22 22 22 21 21 21
21 21 21 20 20 20 20 20 20 19 19 19 18 17 18 18
18 18 19 21 22 22 22 16 16 22 18 21 23 22 22 22
20 21 20 20 21 18 20 21 23 23 23 24 24 24 24 23
23 23 23 24 25 25 25 25 25 25 25 26 26 26 26 27
27 27 27 28 28 28 29 29 29 29 29 29 29 29 29 28
29 29 29 30 29 29 30 30 30 30 30 30 30 31 30 30
19 22 24 26 26 26 26 26 25 25 25 25 25 25 24 25
24 24 24 23 23 24 23 23 23 23 22 22 21 21 22 21
21 21 21 20 20 20 20 19 19 19 19 19 19 18 18 18
18 19 19 22 23 23 22 16 16 22 19 20 24 23 23 22
22 21 21 21 20 18 21 20 22 23 23 22 23 23 24 23
23 24 25 25 26 25 25 25 25 25 26 25 26 25 26 27
27 27 28 29 28 28 28 28 29 28 29 29 28 28 29 29
29 29 30 31 30 30 30 30 30 30 30 30 30 30 30 31
8 11 13 16 20 22 24 25 26 26 25 25 25 24 24 24
24 23 23 24 24 23 23 23 23 22 22 23 22 22 22 22
21 21 21 20 20 20 20 20 19 20 19 19 19 19 19 18
18 19 20 22 22 23 22 16 16 23 20 19 23 23 23 22
22 21 21 21 20 17 21 21 23 23 23 23 24 24 24 25
24 24 25 25 25 24 25 26 26 25 26 26 26 27 27 27
27 27 28 28 28 28 28 28 29 29 29 29 29 29 29 29
29 29 29 30 29 30 29 29 29 30 30 30 30 30 30 30
6 7 7 6 8 10 11 14 18 20 22 23 25 25 25 25
24 24 23 24 24 24 23 23 23 22 22 22 22 22 22 21
22 21 21 21 21 20 21 20 20 19 19 19 19 19 18 18
19 19 20 23 23 23 22 16 16 23 21 19 24 23 23 23
22 22 22 21 21 18 21 22 24 23 23 24 24 24 25 25
25 25 26 26 27 26 26 26 26 26 26 26 26 27 27 27
27 28 28 28 29 29 29 29 29 29 28 29 29 29 29 29
30 29 30 30 29 30 30 30 29 29 29 29 29 29 30 29
12 10 7 6 6 6 6 7 7 6 7 12 22 25 24 24
24 23 23 23 24 24 23 23 23 23 23 22 22 21 22 21
21 20 21 20 21 20 20 20 20 20 20 19 19 19 19 18
18 19 21 22 23 22 22 16 16 23 22 19 23 23 23 22
22 22 22 21 21 19 22 22 24 24 24 24 24 25 24 24
24 25 25 25 26 25 26 26 25 26 26 27 27 27 27 27
27 27 28 29 28 28 29 29 29 29 29 29 29 29 30 30
29 29 29 28 27 27 28 28 28 29 30 30 31 29 29 30
30 23 12 13 11 8 6 6 6 4 2 7 21 25 25 24
25 24 24 24 24 23 23 23 23 22 23 22 23 22 22 22
22 21 21 21 21 21 21 20 20 19 19 19 19 18 19 19
19 19 21 23 23 22 22 17 16 23 23 18 24 24 23 23
22 22 22 21 21 19 22 22 24 23 24 24 24 25 25 25
25 25 26 26 27 26 26 26 26 26 26 26 26 27 28 28
28 28 28 29 28 28 29 29 29 29 29 29 28 27 28 27
28 28 29 29 29 29 30 30 29 29 29 30 30 28 29 29
35 30 18 23 25 22 17 15 12 7 4 7 20 25 24 24
24 23 24 24 24 24 24 23 23 23 23 23 23 22 21 21
21 21 23 26 25 23 21 21 20 20 20 20 20 19 19 20
19 19 20 22 22 22 22 17 17 23 24 17 24 24 24 23
23 22 22 22 22 19 22 22 24 24 24 24 24 25 25 25
25 25 26 26 27 26 27 26 27 27 27 27 27 28 28 28
29 29 28 29 28 28 28 28 28 28 28 28 29 28 29 29
29 29 30 29 29 29 29 29 29 30 29 30 30 30 30 29
36 32 24 27 31 29 29 32 29 19 5 8 21 25 25 25
25 24 29 30 29 27 25 24 23 23 23 23 22 22 23 23
22 22 27 32 31 27 27 24 21 20 19 19 19 20 19 19
19 20 21 23 24 23 23 17 17 24 25 17 23 24 24 24
23 23 22 22 22 20 22 22 24 24 24 25 25 25 25 25
26 26 26 26 28 27 27 27 27 26 27 27 27 28 27 27
27 28 28 28 28 28 28 29 28 28 29 29 28 29 29 29
29 29 29 30 29 29 30 29 30 29 30 30 30 29 29 29
19 29 26 30 32 31 34 35 36 26 7 10 23 26 25 25
25 25 32 33 32 30 29 28 28 25 24 24 23 23 22 22
21 22 27 32 30 28 29 28 24 21 21 20 20 20 20 20
19 20 21 23 24 23 22 17 17 23 25 18 23 25 24 24
23 23 23 22 22 20 22 23 24 24 25 25 25 25 26 26
26 26 26 26 27 27 27 26 27 27 27 27 27 28 28 28
28 27 27 27 28 28 28 28 28 28 28 30 29 29 29 29
30 30 29 30 29 29 29 29 29 29 29 30 30 29 29 29
3 27 27 30 31 33 34 36 36 29 8 9 24 27 26 25
25 25 32 34 32 30 30 32 33 28 28 28 26 24 22 23
22 22 25 24 25 26 28 29 25 21 20 20 19 20 20 19
20 21 21 23 24 24 22 16 15 16 24 18 21 25 24 23
23 23 22 21 18 12 8 4 5 6 6 8 14 16 19 23
27 27 26 25 26 27 26 27 27 27 28 28 27 27 28 27
28 27 28 28 28 28 28 29 29 28 28 29 29 29 29 29
30 29 29 29 29 29 29 30 30 29 30 30 30 30 30 29
4 27 22 24 27 31 34 34 34 29 9 10 25 28 26 27
27 28 25 15 21 27 31 33 34 27 17 21 25 26 26 27
26 24 22 12 9 11 14 18 23 21 21 21 21 20 20 20
20 21 21 23 24 23 19 12 13 13 23 19 20 25 23 20
21 18 9 5 10 9 11 7 7 8 8 8 9 12 13 16
21 20 22 21 18 18 18 20 25 26 27 28 28 28 28 28
28 28 28 28 28 28 28 28 28 28 28 29 29 29 29 29
29 29 29 29 29 29 29 29 29 30 29 29 30 30 30 30
6 26 6 3 8 16 22 25 27 28 9 10 25 28 24 24
28 32 20 0 1 9 17 20 24 21 0 0 3 8 12 18
23 24 22 9 1 2 3 1 15 22 21 21 20 20 20 20
20 21 22 24 24 24 22 15 16 21 26 20 19 21 16 11
8 9 12 15 12 10 10 10 12 14 16 15 14 17 14 13
15 15 12 13 17 17 14 9 10 18 26 28 28 27 28 28
28 28 28 28 28 28 28 28 29 28 29 30 30 29 29 29
29 28 29 30 29 29 29 29 30 30 30 29 30 30 30 30
4 25 3 0 0 0 1 2 6 25 10 9 15 21 25 27
31 34 22 0 0 1 5 5 12 20 0 0 0 0 0 0
2 11 22 7 0 0 0 0 13 22 21 22 21 20 21 20
20 21 22 24 25 25 23 18 17 24 26 21 18 17 14 8
7 6 7 7 9 13 18 14 6 2 1 4 4 7 2 1
1 2 5 12 15 15 19 18 10 7 11 21 28 29 29 28
28 29 28 29 28 29 29 29 29 29 29 30 29 29 29 29
29 29 30 30 30 29 29 30 30 30 30 30 31 30 30 30
4 26 2 0 0 0 0 0 1 23 10 4 0 1 4 9
17 23 20 0 0 0 0 1 9 21 1 0 0 0 0 0
0 4 21 4 0 0 0 0 14 23 22 21 21 21 21 20
21 21 22 25 26 25 24 19 18 24 27 22 12 9 4 1
0 1 2 1 0 1 7 16 23 18 13 13 10 3 1 0
0 0 0 2 13 26 24 18 14 10 4 7 21 27 29 29
29 28 28 29 29 28 29 29 29 29 29 30 30 29 29 28
29 29 29 29 29 29 29 30 30 31 31 31 31 31 30 30
4 26 2 0 0 0 0 0 1 24 11 4 0 0 0 0
0 0 8 0 0 0 0 0 5 18 0 0 0 0 0 0
0 4 21 2 0 0 0 0 15 24 22 22 21 21 21 21
21 22 23 25 26 25 24 18 18 23 25 17 4 1 0 0
0 0 0 0 0 0 0 6 10 22 19 15 13 14 14 15
16 12 7 10 16 11 16 30 15 11 4 2 9 19 26 29
29 29 29 29 29 30 29 29 29 29 29 30 30 29 29 30
29 29 30 30 30 30 30 31 31 30 31 31 29 29 29 29
5 25 2 0 0 4 0 0 1 24 11 4 0 0 0 0
0 0 4 0 0 0 0 0 7 20 0 0 0 0 1 0
0 2 20 1 0 0 0 0 15 25 22 21 22 21 21 21
21 22 22 25 26 26 24 18 19 23 20 6 0 0 0 0
0 0 0 0 2 0 0 5 21 24 22 18 18 23 33 44
43 33 29 21 18 14 8 7 25 10 11 1 4 10 18 27
29 29 30 29 30 29 30 30 29 30 29 30 30 29 30 29
29 30 30 30 30 30 31 30 31 31 31 31 31 30 30 31
5 25 2 0 0 1 0 0 1 23 10 5 0 0 0 0
0 0 3 0 0 0 0 0 6 22 1 0 0 1 6 2
0 2 20 1 0 0 0 0 13 25 22 21 22 22 22 21
22 23 23 25 26 26 25 19 18 20 9 0 0 0 1 0
1 0 0 4 0 0 8 19 19 16 17 17 21 30 50 63
57 54 54 49 39 23 16 5 13 22 13 4 2 6 13 18
28 30 30 30 30 30 30 30 30 30 30 30 29 30 31 31
31 30 31 31 30 31 32 32 31 30 30 30 31 31 30 31
5 23 1 0 0 0 0 0 2 23 8 4 0 0 0 1
0 0 1 0 0 0 0 0 6 23 1 0 0 1 7 6
3 2 19 1 0 0 0 0 11 25 23 22 22 21 22 21
22 23 22 25 26 25 24 18 13 9 1 0 0 1 2 1
1 1 4 2 1 6 20 15 16 11 10 21 26 44 61 70
82 82 93 91 74 55 29 13 8 24 16 11 4 3 16 16
23 30 30 30 29 30 29 29 29 29 29 30 31 31 31 30
31 30 31 30 30 31 31 31 31 30 30 31 31 31 32 31
6 22 1 0 0 0 0 0 2 23 8 4 0 0 0 0
0 0 2 0 0 0 0 0 7 24 2 0 0 0 4 6
3 1 20 6 0 0 0 0 10 26 22 21 21 22 21 22
23 23 23 26 26 26 24 14 8 3 1 0 3 6 5 5
5 5 6 3 4 18 17 14 12 8 16 19 27 42 56 86
107 110 111 110 103 86 65 39 25 15 23 18 11 2 16 19
15 27 30 30 29 30 30 29 30 30 30 31 31 30 30 30
30 30 29 30 31 31 32 31 31 32 31 32 32 32 31 31
22 26 9 2 2 2 1 0 4 23 9 5 0 0 0 0
0 0 4 1 0 0 0 0 10 28 8 1 1 0 0 2
2 1 23 25 18 13 9 7 19 27 22 22 22 23 22 22
22 23 23 26 27 25 17 5 3 1 1 3 9 11 11 5
6 8 8 8 13 16 15 14 8 14 16 20 30 43 71 108
119 120 120 119 117 107 88 63 45 27 26 20 18 7 3 24
18 17 30 30 30 30 30 30 30 30 30 30 30 30 30 31
30 31 30 30 31 31 31 31 32 32 32 32 32 32 31 31
29 38 35 20 22 23 23 19 21 23 8 5 0 0 0 0
0 0 12 20 11 9 5 1 8 32 24 18 17 12 7 5
4 4 25 33 31 30 30 32 34 28 23 22 22 22 22 22
22 24 24 26 27 24 10 9 4 2 3 11 18 17 12 6
11 11 11 14 17 16 19 13 16 15 19 25 30 46 81 110
121 122 122 121 120 117 108 94 59 41 30 22 20 15 2 11
23 12 23 30 31 30 30 31 31 31 31 31 31 31 31 31
30 30 30 31 32 31 31 31 32 32 30 29 28 28 27 28
31 43 36 21 27 32 34 33 33 23 8 5 0 0 0 0
0 0 16 37 30 29 29 27 26 35 18 12 14 16 16 16
17 20 29 28 27 29 32 36 36 29 23 22 23 22 23 22
23 24 24 26 27 16 14 9 2 3 8 18 23 17 10 14
14 13 14 18 16 24 18 15 18 20 22 25 28 52 82 108
121 122 122 121 120 120 117 107 86 56 33 24 17 18 10 1
18 14 13 31 31 30 30 30 30 30 31 29 30 30 29 30
29 29 29 30 30 28 27 27 26 26 24 22 20 18 17 16
33 40 28 19 27 32 34 36 36 25 8 7 3 0 0 0
0 0 18 36 32 35 37 37 32 28 14 6 7 7 7 7
8 11 13 13 16 20 26 27 26 25 22 22 22 23 22 22
23 24 24 26 24 16 17 5 4 6 15 25 23 15 17 17
17 16 20 18 21 20 18 20 20 19 23 24 31 59 88 102
116 122 122 121 122 121 120 118 103 77 51 26 13 16 12 1
10 15 8 28 30 29 29 29 29 29 29 28 28 28 27 26
25 24 23 22 20 19 17 15 15 14 14 13 13 14 14 14
31 36 15 3 9 14 16 20 26 24 8 11 23 25 19 12
8 6 20 28 30 35 37 38 33 24 15 8 8 6 5 4
4 3 3 4 4 9 20 20 20 21 23 23 23 23 24 23
24 24 24 26 17 21 10 3 4 10 23 28 22 21 23 23
23 21 22 17 18 15 16 18 19 25 22 27 39 65 79 95
111 121 122 122 121 121 121 119 113 92 77 34 12 16 11 3
3 10 6 23 29 28 28 29 26 23 23 21 20 19 17 17
16 15 15 15 15 16 17 15 17 17 18 18 19 20 18 13
30 36 11 0 0 0 0 0 8 22 9 12 29 36 36 33
32 30 30 19 21 28 31 34 31 26 18 9 6 5 3 3
4 4 5 6 6 11 19 11 19 23 24 22 20 23 23 22
23 24 24 24 20 17 6 6 6 17 25 24 26 25 24 29
23 20 20 17 17 18 17 18 21 23 26 33 46 62 76 95
108 115 121 122 122 122 121 121 117 105 90 57 18 17 12 3
4 3 2 14 20 18 21 29 20 15 16 16 17 16 17 17
19 19 20 20 21 22 22 22 22 23 23 21 24 24 23 10
28 36 11 0 0 0 0 0 5 21 10 11 28 36 36 36
37 37 32 9 2 4 8 14 16 21 19 8 5 0 0 0
2 6 5 5 7 12 22 20 24 28 27 21 12 21 24 24
23 23 22 20 21 7 5 6 11 23 24 28 27 28 24 22
20 19 21 22 19 16 17 16 20 22 27 38 47 58 76 96
104 114 121 122 122 121 121 121 118 113 101 81 41 10 15 0
1 0 0 9 18 17 17 26 19 17 19 21 21 22 23 23
24 25 25 25 26 26 26 27 27 27 26 22 22 27 27 18
24 33 9 0 0 0 2 8 12 22 15 14 22 29 29 31
32 35 30 4 0 0 0 0 3 18 20 7 4 0 0 0
0 1 0 0 3 7 24 29 24 24 26 25 20 23 24 23
23 17 14 18 14 4 6 7 17 25 23 27 27 24 18 19
18 21 25 20 15 17 19 17 19 23 29 38 48 64 82 89
97 113 117 122 122 122 122 121 120 115 109 98 71 25 12 2
1 2 2 10 23 22 21 27 21 22 25 25 26 26 27 27
27 28 28 28 27 27 28 28 28 26 28 29 24 23 28 24
21 30 6 0 0 0 5 16 17 18 17 15 17 19 22 24
24 30 28 3 0 0 0 0 0 18 19 6 2 0 0 0
0 0 0 0 0 3 23 27 19 18 20 22 24 25 24 24
23 15 11 15 2 6 9 10 20 24 26 25 25 23 19 22
18 16 21 22 18 15 16 16 20 27 30 43 57 68 80 76
101 110 116 122 122 122 121 121 120 116 111 103 90 66 34 6
0 0 0 10 28 26 23 23 20 25 27 28 28 29 29 30
30 29 31 30 30 30 29 28 29 27 28 30 30 24 22 26
22 29 5 0 0 0 1 8 12 16 14 13 14 14 18 22
21 29 26 2 0 0 0 0 0 18 15 1 0 0 0 2
2 0 0 0 0 2 24 29 16 19 23 19 22 24 24 23
24 20 15 8 3 8 12 14 23 28 30 24 26 20 21 19
19 19 18 19 20 14 15 17 22 24 30 46 64 72 70 77
99 109 120 122 122 121 122 121 119 116 111 105 94 80 65 28
0 0 0 12 30 27 17 7 10 24 30 30 30 30 30 30
31 31 31 31 31 30 30 28 27 29 27 30 31 30 24 21
25 30 5 0 0 0 0 0 1 10 10 12 10 10 15 20
23 30 26 2 0 0 0 0 0 19 10 0 0 0 0 1
6 3 0 0 0 2 24 29 13 14 17 16 21 24 24 24
24 24 16 2 7 10 11 17 29 34 31 23 17 17 20 18
23 24 23 21 17 15 16 16 18 23 37 56 60 67 68 84
104 117 121 122 121 122 122 121 118 114 111 105 97 85 76 53
2 0 0 9 24 26 16 5 4 23 30 31 31 31 30 31
31 31 32 32 32 32 32 31 29 28 27 28 31 31 29 19
26 30 4 0 0 0 0 0 1 13 12 13 2 0 0 2
5 8 14 1 0 0 0 0 0 21 10 0 0 0 0 2
8 7 2 0 0 2 23 30 16 12 13 14 21 23 25 25
24 22 11 1 9 13 12 23 41 41 28 26 21 16 13 22
22 22 16 15 15 13 12 14 22 33 47 50 56 65 81 108
119 122 122 122 122 121 121 121 120 114 109 105 97 89 80 63
11 0 0 2 6 18 15 3 4 22 30 32 32 31 31 32
31 31 31 32 31 31 31 30 30 28 26 26 30 31 30 25
28 30 4 0 0 0 0 0 1 19 16 15 2 0 0 0
0 0 5 1 0 0 0 0 0 19 8 0 0 0 0 9
12 8 3 0 0 2 22 31 20 14 9 11 20 23 24 24
24 21 5 4 11 15 14 30 40 32 17 15 13 13 16 14
17 19 13 11 8 5 9 12 12 15 19 21 30 46 79 113
121 122 122 122 122 121 121 120 119 115 110 105 97 89 84 67
21 0 0 7 21 25 15 0 2 22 30 30 31 31 31 31
31 31 31 31 32 32 32 31 31 31 28 25 26 28 26 24
25 25 5 0 0 0 0 0 1 21 18 15 3 0 0 0
0 0 2 0 0 1 3 0 0 19 6 0 0 0 0 5
10 2 0 0 0 1 22 32 22 12 3 5 18 24 25 24
25 19 3 6 13 16 16 28 18 21 17 15 13 14 18 13
7 3 6 13 12 8 8 9 10 14 17 16 13 10 7 10
20 34 47 62 76 89 100 110 114 116 113 107 99 88 81 72
31 0 0 16 31 29 17 0 3 23 30 31 32 32 32 32
32 32 32 32 32 31 31 31 31 31 30 27 23 23 23 26
18 21 15 7 3 6 7 2 3 22 17 13 2 0 0 2
0 0 3 1 0 6 7 1 0 19 5 0 0 0 0 0
7 0 0 0 0 0 19 31 18 7 0 2 17 24 25 24
24 16 1 10 17 15 21 12 11 12 16 20 57 98 110 99
55 21 20 24 23 24 21 21 22 22 27 31 36 31 24 20
17 13 10 8 6 5 7 13 21 37 75 108 104 91 79 69
39 0 0 23 30 28 21 3 5 24 30 32 32 32 32 32
32 31 31 31 32 32 32 31 31 32 31 31 26 21 22 28
13 21 20 20 18 20 23 22 20 27 17 13 2 0 3 9
1 0 5 9 5 13 12 7 3 21 6 0 0 0 0 0
7 1 0 0 0 0 16 31 12 4 0 3 18 23 25 26
25 13 0 15 17 14 18 8 9 7 14 56 117 117 106 119
119 90 68 69 72 74 70 65 65 72 90 100 107 104 90 76
59 43 29 22 17 11 8 19 30 19 1 46 98 97 85 68
45 0 2 29 30 28 23 12 14 26 31 32 33 32 32 32
32 31 31 32 32 32 31 31 31 31 31 30 28 23 23 30
16 22 16 4 3 8 14 21 30 29 19 12 2 0 2 4
0 0 7 26 27 29 27 27 26 29 7 0 0 0 0 0
9 2 0 0 0 0 13 30 10 1 0 4 18 23 24 25
24 9 1 19 20 12 15 6 6 4 13 101 113 100 117 119
117 121 118 117 115 115 109 113 113 115 117 120 121 121 118 115
106 99 90 67 38 21 10 6 6 3 0 0 31 86 87 71
50 0 9 31 29 27 24 23 24 29 31 31 32 31 31 31
30 31 31 31 31 31 31 31 31 31 31 31 29 22 22 29
18 23 13 0 0 2 3 9 29 28 18 13 5 0 0 0
0 0 7 30 32 34 33 35 39 37 18 9 8 3 3 4
13 6 2 1 0 0 9 26 9 1 1 3 14 23 25 25
24 6 3 25 18 18 13 3 7 5 32 117 107 121 123 122
114 122 122 122 122 117 112 113 113 114 113 120 122 122 121 121
121 117 107 96 73 53 35 26 18 9 0 0 0 23 70 74
59 6 22 31 30 28 26 26 29 30 32 32 32 32 32 31
32 32 32 32 32 32 32 31 32 31 31 31 29 23 20 22
19 25 12 0 0 9 15 15 30 25 15 14 12 1 0 0
0 0 6 28 31 32 32 35 39 37 28 24 23 21 19 20
21 17 13 11 10 9 16 27 16 10 9 5 9 21 26 25
23 4 5 27 15 19 9 4 9 2 53 118 113 123 122 122
120 122 122 122 122 118 112 111 111 113 114 121 122 122 121 121
121 121 118 117 113 87 58 47 20 1 0 0 0 0 28 61
62 32 30 30 30 29 29 29 31 32 32 32 33 33 32 33
32 32 32 32 32 31 32 33 32 32 31 31 30 23 20 24
21 27 12 0 0 3 13 20 30 21 14 16 12 0 0 0
0 0 7 27 27 28 29 29 28 28 27 28 28 27 27 27
27 25 24 22 20 19 22 30 28 25 22 18 17 23 27 26
23 4 11 24 16 17 8 4 4 6 58 119 118 123 123 123
119 121 123 123 123 119 110 112 114 114 118 122 122 122 122 122
122 122 122 121 115 90 76 54 16 0 0 0 0 0 2 38
58 51 32 32 32 31 30 30 32 32 32 31 32 33 33 33
33 32 32 33 33 33 33 32 32 32 30 31 30 24 22 27
23 28 12 0 0 0 1 16 32 22 14 15 12 3 1 1
0 0 8 29 26 27 26 26 26 26 28 28 30 31 31 28
28 27 29 33 30 28 28 32 32 31 31 30 27 25 25 26
20 2 16 13 16 13 4 6 8 16 46 119 121 123 123 113
69 120 123 122 122 120 109 113 114 116 121 122 122 122 122 122
122 121 122 118 92 59 53 36 13 0 0 0 0 0 0 14
56 55 30 31 31 30 31 31 31 32 31 32 33 33 33 33
32 32 32 32 32 32 32 32 32 31 30 30 30 24 22 28
24 28 13 0 0 0 0 12 31 22 14 15 21 25 24 20
20 19 24 33 28 27 28 27 29 32 31 30 32 36 37 29
26 27 33 37 35 33 33 30 25 22 21 21 23 25 26 26
21 7 20 9 14 7 4 15 14 11 33 117 122 123 120 107
108 123 123 123 123 121 107 113 119 120 122 122 122 122 122 122
122 121 121 110 70 58 51 41 4 0 0 0 0 0 0 7
65 56 32 32 32 31 32 33 33 32 33 33 33 33 32 33
33 33 32 32 32 33 32 32 33 32 32 32 31 25 22 28
23 28 11 0 0 0 0 13 33 23 14 16 26 38 39 37
38 39 39 37 29 27 28 28 31 35 36 32 32 36 36 30
25 23 29 35 33 32 33 32 28 22 20 20 21 24 26 25
23 8 16 4 10 5 4 22 18 5 27 116 122 123 108 117
121 120 122 122 122 121 110 115 121 122 123 122 122 122 122 122
122 122 121 108 79 78 70 37 0 0 0 0 0 0 0 6
66 47 28 32 32 32 33 33 33 32 33 33 33 33 33 33
33 32 33 32 32 32 32 32 32 32 31 32 31 25 22 27
22 28 10 0 0 0 0 11 32 22 13 16 24 35 37 37
38 39 40 37 20 15 12 13 18 26 34 32 28 24 25 23
21 21 25 21 16 16 21 23 27 26 24 25 26 27 28 26
23 6 5 2 8 7 4 18 13 5 26 112 120 120 110 123
115 122 124 123 123 122 113 118 121 122 123 122 122 122 122 122
122 121 120 105 81 82 69 25 0 0 0 0 0 0 0 4
46 20 23 32 33 33 33 33 32 32 32 33 33 32 32 32
33 32 32 32 33 33 32 32 32 32 32 32 31 25 22 26
22 29 10 0 0 0 0 10 30 20 12 16 17 21 22 22
24 25 26 26 5 0 0 0 0 8 30 30 16 3 4 7
9 20 24 9 0 0 2 9 21 24 23 25 28 30 32 27
22 10 4 3 6 6 10 11 8 4 30 107 123 117 115 124
114 122 123 123 123 121 118 119 121 123 123 123 122 122 123 122
122 122 121 104 77 74 47 4 0 0 0 0 0 0 0 3
9 0 3 20 32 32 33 33 33 33 33 33 32 33 33 33
33 32 32 33 33 32 32 32 32 32 32 31 31 26 22 27
23 30 10 0 0 0 0 10 31 20 12 15 18 23 23 22
21 21 21 20 4 0 0 0 0 7 29 24 3 0 0 0
4 22 26 9 0 0 0 5 17 11 6 10 11 16 30 29
23 16 6 2 8 11 7 8 8 6 34 99 124 121 118 124
119 121 123 123 123 121 122 123 122 123 123 122 122 122 122 122
122 123 122 107 74 65 27 0 0 0 0 0 0 0 2 6
0 0 0 1 21 30 34 33 33 33 33 33 33 32 32 32
32 32 33 32 33 33 32 33 32 32 32 32 32 27 22 27
27 26 9 0 0 0 0 11 34 23 12 15 20 26 27 27
27 26 27 22 5 0 0 0 0 9 29 17 0 0 0 0
1 22 26 9 0 0 0 3 16 5 0 4 0 4 28 30
23 16 9 3 13 8 5 8 7 5 36 92 119 124 124 124
123 115 122 123 124 121 121 122 122 122 122 123 123 122 123 123
123 122 122 110 74 59 19 0 0 0 1 2 1 0 2 1
0 0 4 3 8 27 33 33 33 32 33 33 33 33 32 32
33 32 32 32 32 33 32 32 32 31 32 32 32 27 22 26
27 21 13 7 5 3 2 14 31 21 14 17 22 28 28 28
29 29 30 24 5 0 0 0 0 4 25 13 0 0 0 0
1 22 25 8 0 0 0 2 16 7 1 5 1 2 26 30
23 18 8 4 18 7 11 7 10 4 33 91 109 124 124 123
124 124 123 124 123 122 122 121 122 122 122 123 122 122 122 122
123 122 123 115 77 58 21 0 0 0 6 3 0 0 11 33
0 0 2 6 5 27 33 34 33 33 32 33 33 32 32 32
32 32 32 32 32 33 32 32 32 32 32 32 32 28 22 26
25 24 24 23 22 20 20 23 26 23 22 23 25 27 27 27
28 27 28 24 7 0 0 0 1 2 23 11 0 0 0 0
1 23 23 7 0 0 0 0 15 8 0 3 0 1 26 30
24 18 5 5 18 11 10 5 8 1 36 94 106 113 124 124
124 124 123 123 123 122 122 121 121 123 123 123 123 123 122 123
123 123 123 120 84 60 31 1 0 3 8 7 11 6 58 70
1 0 1 2 5 27 33 34 33 33 33 33 32 32 32 32
32 32 33 32 32 33 32 33 32 32 32 32 33 28 23 25
23 23 24 24 24 24 24 24 24 24 24 24 25 25 25 25
25 25 25 25 16 0 0 0 1 1 22 10 0 0 0 0
1 22 24 9 0 0 0 0 14 11 0 3 0 1 24 30
23 19 4 12 18 14 7 4 9 3 37 92 104 104 112 124
124 123 124 124 123 123 123 122 123 123 123 123 123 123 122 123
122 122 122 122 98 62 42 9 0 9 21 35 22 27 110 98
13 0 1 1 6 25 34 33 34 34 33 33 32 32 32 32
32 32 32 32 32 32 33 33 32 32 32 32 33 28 22 24
23 23 23 22 22 23 23 23 22 23 23 23 24 23 24 24
25 25 25 25 17 0 0 0 0 1 21 10 0 0 0 0
0 20 25 10 0 0 0 0 13 14 0 0 0 1 24 29
24 20 4 12 11 14 6 3 10 15 36 87 104 104 113 116
122 124 124 123 123 123 122 122 121 123 123 123 123 123 123 123
123 123 123 122 118 83 55 31 3 10 38 30 13 92 122 108
51 0 2 2 10 23 33 33 32 32 32 32 32 31 32 33
33 33 31 32 31 30 30 32 32 32 32 32 32 29 22 24
8 8 8 9 9 9 9 9 9 9 10 10 10 11 11 12
13 15 20 24 17 0 0 0 0 0 21 11 0 0 0 0
0 18 25 8 0 0 0 0 12 17 0 0 0 2 23 27
24 23 5 7 3 9 3 3 9 19 33 82 100 102 115 119
108 113 124 123 123 122 122 122 123 123 123 123 123 123 123 123
123 123 123 123 122 114 81 50 28 12 18 16 71 121 122 116
92 12 1 8 13 22 31 33 33 33 33 33 33 32 32 33
33 33 32 17 8 7 10 24 33 32 32 32 32 29 23 24
0 0 0 0 0 0 0 0 0 0 0 0 0 0 0 0
0 2 16 23 19 1 0 0 1 0 21 16 0 0 1 1
1 20 27 15 6 5 6 7 18 20 1 0 0 2 22 26
24 25 8 4 1 8 4 2 11 19 28 78 99 101 120 124
120 113 123 121 121 120 122 123 123 123 123 123 124 123 124 123
123 123 123 123 122 121 112 90 60 57 80 74 97 119 122 118
109 51 0 8 10 21 33 34 34 33 33 33 33 33 33 32
33 32 31 9 0 0 0 19 33 32 31 31 32 29 23 23
0 0 0 0 0 0 0 0 0 0 0 0 0 0 0 0
0 1 18 24 22 13 9 10 17 16 25 27 22 20 22 22
23 31 30 24 28 28 30 33 37 30 15 10 10 12 24 25
23 25 10 6 1 4 2 0 3 16 29 67 94 99 119 124
118 114 116 116 119 121 122 122 123 123 123 123 123 123 123 123
123 123 123 123 122 122 116 105 92 94 114 108 113 117 121 122
119 83 6 7 9 21 33 33 33 34 34 34 34 33 33 32
32 32 30 7 0 0 0 13 32 32 32 32 32 29 23 23
0 0 0 0 0 0 0 0 0 0 0 0 0 0 0 0
0 0 19 25 25 28 29 31 32 29 26 31 39 38 37 39
40 41 34 25 31 35 38 42 44 38 26 25 25 25 26 25
24 25 15 6 3 2 1 2 6 24 40 66 88 95 119 125
117 111 112 113 119 120 122 123 123 123 123 124 123 124 123 123
123 123 123 123 123 122 119 108 95 97 117 120 122 122 122 122
121 93 23 8 9 22 33 34 33 33 33 33 34 33 32 33
32 32 30 5 0 0 0 8 32 32 32 32 32 29 23 23
0 0 0 0 0 0 0 0 0 0 0 0 0 0 0 0
0 0 17 25 24 27 32 34 33 28 24 25 34 35 35 35
36 36 33 24 26 31 33 35 35 33 27 26 26 26 25 25
24 24 19 7 3 2 1 4 7 19 41 76 86 94 117 123
115 108 108 113 119 121 123 123 123 124 123 123 124 123 123 123
123 123 124 123 123 123 120 108 94 101 119 123 123 120 116 120
115 86 25 7 8 21 34 33 33 33 33 33 34 33 33 29
19 18 16 2 0 0 0 6 32 32 32 32 32 30 24 23
0 0 0 0 0 0 0 0 0 0 0 0 0 0 0 0
0 0 16 25 23 25 27 29 32 28 23 21 22 22 22 23
23 24 25 24 24 27 28 26 23 25 26 27 27 26 26 26
26 25 23 13 7 3 1 0 3 13 42 72 85 93 116 122
114 106 108 114 119 122 123 124 124 123 123 123 123 123 123 123
123 123 123 123 123 122 119 109 97 99 104 112 97 76 69 102
92 56 12 9 9 22 34 34 33 33 33 33 33 33 32 15
0 0 0 0 0 1 0 6 31 32 32 32 32 30 24 22
0 0 0 0 0 0 0 0 0 0 0 0 0 0 0 0
0 0 14 25 22 19 16 18 22 21 20 22 20 21 22 24
24 24 26 28 29 32 32 29 25 24 26 27 27 26 27 26
26 26 26 15 11 2 0 1 9 28 55 73 84 94 115 121
115 105 105 110 114 119 122 123 123 123 123 123 123 123 123 123
123 123 123 123 123 122 121 112 103 105 92 88 103 104 104 82
39 13 9 8 9 22 34 34 33 33 34 33 34 33 32 9
0 0 0 0 0 0 0 5 31 31 31 32 32 30 24 22
0 0 0 0 0 0 0 0 0 0 0 0 0 0 0 0
0 0 12 25 21 12 1 1 3 5 11 22 24 29 30 35
35 25 24 25 28 31 35 32 26 25 25 26 26 26 26 26
26 26 27 17 12 6 0 0 10 27 49 75 86 92 115 121
117 107 103 106 112 120 122 122 123 123 123 123 123 123 123 123
122 123 123 123 123 122 121 114 108 107 105 103 103 97 38 15
3 8 9 8 8 22 33 34 34 34 33 33 33 33 31 15
0 0 0 0 0 0 0 5 30 32 32 32 31 29 24 21
0 0 0 0 0 0 0 0 0 0 0 0 0 0 0 0
0 0 9 24 20 9 0 0 0 0 11 24 25 33 31 32
32 10 4 5 7 13 31 34 27 25 26 26 26 26 26 25
25 25 25 15 6 1 0 1 27 46 59 74 81 94 115 122
118 108 103 103 110 117 121 121 123 122 123 123 123 123 123 122
122 122 122 123 122 122 120 112 106 104 99 98 97 81 35 18
11 11 9 9 9 21 32 33 33 33 32 33 33 33 32 26
4 0 0 0 0 0 0 2 22 31 31 31 30 29 25 22
0 0 0 0 0 0 0 0 0 0 0 0 0 0 0 0
0 0 7 23 21 10 0 0 0 0 9 23 23 29 17 11
21 5 0 0 0 2 25 33 26 25 25 25 25 24 25 24
25 25 25 20 4 0 0 2 24 45 66 80 80 93 116 122
118 110 104 106 109 113 118 122 122 122 122 122 123 122 122 122
122 122 122 122 122 122 117 107 102 99 92 95 97 68 34 26
24 24 19 21 23 26 32 33 33 33 32 32 32 30 20 22
5 0 0 0 0 0 0 0 8 30 30 30 29 28 24 22
0 0 0 0 0 0 0 0 0 0 0 0 0 0 0 0
0 0 6 22 20 10 0 0 0 0 10 22 22 28 11 1
17 5 0 0 0 0 21 32 26 25 25 25 25 25 24 25
24 24 26 25 11 0 0 1 15 48 70 78 79 94 117 123
120 110 105 103 107 109 113 117 120 121 122 122 122 122 122 122
122 122 122 122 122 122 117 108 106 105 106 108 103 60 35 32
32 33 31 31 31 31 33 33 33 33 32 32 31 19 2 1
7 7 0 0 0 0 0 0 7 29 30 30 30 29 24 21
0 0 0 0 0 0 0 0 0 0 0 0 0 0 0 0
0 0 4 21 20 12 0 0 0 0 11 22 21 29 11 1
16 6 0 0 0 0 18 32 26 25 25 25 25 24 24 24
24 25 25 26 22 7 1 8 24 50 78 85 80 96 118 123
121 115 103 100 103 106 112 116 116 119 121 122 122 122 122 121
122 122 122 121 121 121 114 108 112 116 109 99 94 72 36 31
32 32 33 33 32 29 27 26 24 22 21 21 13 1 0 0
4 4 0 0 0 0 0 0 2 26 30 30 30 28 23 21
0 0 0 0 0 0 0 0 0 0 0 0 0 0 0 0
0 0 4 21 20 12 0 0 0 0 11 22 23 30 11 1
15 6 0 0 0 0 17 32 26 25 25 25 25 24 25 24
24 25 26 26 24 15 5 7 26 44 68 86 81 98 119 123
121 118 107 101 101 102 107 112 116 118 120 121 122 122 123 123
122 122 122 122 122 113 90 82 89 81 67 67 70 65 35 30
32 32 32 31 24 7 6 50 23 1 1 1 0 0 0 5
0 0 0 0 0 0 0 0 0 20 30 30 28 28 24 21
0 0 0 0 0 0 0 0 0 0 0 0 0 0 0 0
0 0 3 21 21 13 0 0 0 0 9 23 23 29 12 0
14 9 0 0 0 0 16 32 26 25 25 25 25 26 25 24
24 24 25 26 20 13 7 8 35 55 77 86 81 101 118 123
122 118 112 106 101 98 102 107 112 114 117 120 121 121 121 121
122 122 121 120 116 104 96 92 75 67 51 42 42 33 29 31
32 32 31 30 15 0 46 120 97 11 4 18 0 0 1 11
0 0 0 0 0 0 0 0 0 4 17 17 23 28 25 21
0 0 0 0 0 0 0 0 0 0 0 0 0 0 0 0
0 0 3 20 20 14 1 0 1 0 8 23 25 31 17 3
14 11 1 1 0 0 15 31 26 25 25 25 25 25 25 25
24 24 25 26 19 18 12 17 45 61 80 86 85 101 118 123
123 119 112 105 102 96 100 104 109 113 114 116 118 119 120 121
121 121 121 117 111 110 113 116 109 95 79 50 21 26 28 30
31 30 21 18 8 1 52 91 88 18 9 21 14 10 14 18
9 7 6 5 4 4 3 2 2 1 1 1 16 28 25 22
0 0 0 0 0 0 0 0 0 0 0 0 0 0 0 0
0 0 2 19 20 15 2 0 6 8 11 25 25 31 21 7
13 10 2 5 1 0 13 30 26 26 26 26 26 26 25 25
25 24 24 25 22 22 17 28 46 66 83 83 84 103 119 123
123 121 115 109 110 98 98 100 103 108 110 116 117 115 117 119
119 117 115 115 116 113 111 110 108 104 89 66 36 26 27 29
30 29 12 11 11 12 15 18 20 19 22 24 26 26 25 25
22 19 16 14 11 10 10 9 8 6 6 7 21 32 29 26
0 0 0 0 0 0 0 0 0 0 0 0 0 0 0 0
0 0 2 20 20 17 16 15 21 23 24 30 27 31 21 13
14 14 9 10 7 5 15 26 25 25 26 26 26 25 25 25
25 24 24 25 25 24 20 44 68 80 86 84 86 105 121 124
122 120 116 110 108 103 100 98 98 102 105 110 111 113 116 118
117 114 109 109 112 113 111 107 100 84 56 49 38 24 26 28
30 30 12 10 10 11 10 11 12 12 15 17 18 15 15 13
10 7 5 3 2 8 28 31 31 33 34 35 39 41 39 34
0 0 0 0 0 0 0 0 0 0 0 0 0 0 0 0
0 0 1 19 20 21 33 37 38 38 39 38 31 30 15 10
14 20 18 17 17 16 18 22 24 25 25 25 25 26 25 25
25 25 24 25 26 24 26 62 86 95 91 85 87 105 120 124
123 121 116 113 110 105 103 100 99 102 103 104 104 108 109 114
112 111 109 107 108 107 108 106 96 69 46 39 29 25 27 28
30 31 21 4 0 0 0 0 0 0 0 0 0 0 0 0
0 0 0 0 0 17 48 49 49 49 49 47 45 42 39 35
0 0 0 0 0 0 0 0 0 0 0 0 0 0 0 0
0 0 1 18 19 21 35 40 39 39 39 38 31 29 10 4
13 22 21 21 20 21 21 22 24 24 25 25 25 25 25 25
25 25 24 26 26 25 39 76 97 101 91 85 87 103 119 123
123 120 117 110 108 108 107 102 102 102 100 102 103 104 107 107
111 109 111 107 106 107 106 103 88 63 49 31 23 24 26 28
30 30 21 1 0 0 0 0 0 0 0 0 0 0 0 0
0 0 0 0 0 30 46 47 47 45 44 39 40 38 34 31
0 0 0 0 0 0 0 0 0 0 0 0 0 0 0 0
0 0 1 17 19 18 23 24 24 23 23 22 22 28 9 0
11 23 22 23 23 24 23 24 24 24 25 25 26 26 25 24
25 24 24 25 25 24 54 89 104 105 93 86 88 102 117 124
123 121 117 113 111 108 107 103 106 103 103 101 101 99 101 102
104 107 106 106 108 104 106 101 82 59 42 24 23 24 26 28
29 29 13 0 0 0 0 0 0 0 0 0 0 0 0 0
0 0 0 0 2 28 33 33 39 34 32 26 27 27 24 26
0 0 0 0 0 0 0 0 0 0 0 0 0 0 0 0
0 0 1 17 19 16 13 12 12 12 11 11 17 27 10 0
10 23 24 24 24 24 24 24 24 24 24 24 25 25 25 25
24 24 24 25 26 28 69 96 109 106 94 85 87 100 117 122
121 121 120 115 113 111 108 107 106 105 103 101 97 95 94 95
102 102 104 105 107 106 105 99 81 55 28 22 23 24 25 26
28 28 9 0 0 0 0 0 0 0 0 0 0 0 0 0
0 0 0 0 0 6 4 5 26 28 25 21 19 20 19 23
0 0 0 0 0 0 0 0 0 0 0 0 0 0 0 0
0 0 1 18 19 16 14 13 13 13 13 12 19 28 17 10
19 24 23 23 23 24 23 24 24 24 24 24 25 24 24 25
25 23 22 24 26 34 84 103 109 105 93 85 87 102 117 121
121 121 117 119 114 114 111 109 107 100 97 96 96 91 85 84
92 95 99 103 105 105 105 97 79 49 22 23 23 23 25 26
27 23 2 0 0 0 0 0 0 0 0 0 0 0 0 0
0 0 0 0 0 0 0 0 14 30 28 26 26 25 24 24
0 0 0 0 0 0 0 0 0 0 0 0 0 0 0 0
0 0 4 20 20 17 17 17 17 16 15 12 19 30 27 28
30 25 22 23 23 23 23 23 23 23 24 23 23 23 24 24
24 23 24 30 21 41 94 107 111 103 92 84 87 103 113 121
121 117 115 118 115 113 115 109 107 101 100 98 94 88 85 76
74 84 93 99 102 101 100 92 71 45 21 22 23 24 24 24
25 15 0 0 0 0 0 0 0 0 0 0 0 0 0 0
0 0 0 0 0 0 0 0 7 29 29 29 27 26 24 24
0 0 0 0 0 0 0 1 2 3 4 4 5 6 7 8
9 10 13 19 18 17 17 17 17 18 17 13 18 23 23 25
25 22 22 23 23 22 23 23 23 23 23 23 23 23 24 23
24 23 29 35 16 57 98 109 112 104 92 84 88 105 115 120
121 119 121 120 118 115 115 110 105 101 96 90 89 83 81 75
72 77 81 90 94 94 91 83 60 41 20 22 23 24 23 24
23 5 0 0 0 0 0 0 0 0 0 0 0 0 0 0
0 0 0 0 0 0 0 0 2 24 26 24 24 24 23 23
2 2 4 5 7 8 10 11 12 13 13 15 15 15 16 16
16 16 16 16 17 17 18 17 17 17 17 15 16 18 16 17
19 20 21 22 23 23 23 24 23 23 23 23 23 23 23 23
23 24 38 39 32 74 102 112 113 103 91 83 89 105 116 121
120 120 119 116 116 117 112 108 102 94 89 79 72 71 72 67
68 68 70 72 82 87 83 66 54 27 19 21 22 23 21 22
18 2 0 0 0 0 0 0 0 2 0 0 0 0 0 0
0 0 0 8 0 0 0 0 0 18 20 16 16 17 15 15
5 3 6 8 10 10 11 12 13 14 15 15 16 16 17 16
16 16 16 16 16 16 18 18 18 17 17 16 17 18 18 18
19 20 21 22 22 22 22 22 22 22 22 22 22 23 23 22
23 28 39 52 55 86 103 112 113 104 90 84 90 106 119 123
120 119 120 119 119 118 114 108 100 91 82 70 59 54 53 52
48 47 44 47 60 62 52 46 30 9 19 21 21 22 22 22
10 0 0 0 0 0 0 0 0 0 0 0 0 0 0 0
0 0 1 19 0 0 0 0 0 13 17 15 16 15 11 14
5 3 6 8 9 11 11 11 14 19 21 10 5 7 11 11
6 9 14 14 16 17 19 18 18 19 18 16 17 18 19 18
19 20 21 22 22 22 23 22 22 22 22 22 22 23 23 22
23 37 41 63 75 94 106 113 113 103 89 83 90 107 120 123
121 119 121 118 118 117 115 108 101 87 72 54 40 32 34 35
36 32 28 26 26 28 28 24 7 6 19 21 21 22 22 21
7 0 0 0 0 0 0 0 0 0 0 0 0 0 0 0
0 0 9 21 0 0 0 0 0 9 21 22 23 21 19 22
3 2 3 3 4 4 5 9 25 36 22 1 0 0 0 0
0 0 7 10 11 10 9 8 8 13 17 17 18 20 20 20
20 21 21 22 22 22 22 21 22 21 22 22 21 22 22 22
27 41 42 67 74 99 109 114 113 102 89 84 90 106 121 124
124 119 117 119 119 118 116 108 97 82 63 47 28 9 3 5
8 11 15 12 12 16 18 18 9 9 19 21 21 22 21 21
3 0 0 0 0 0 0 5 0 0 0 0 0 0 0 0
0 0 13 16 0 0 0 0 0 4 22 24 24 24 24 22
0 0 0 0 0 0 1 21 41 28 4 0 0 0 0 0
0 0 0 0 0 0 0 0 0 1 13 18 18 19 20 20
19 20 21 22 22 22 22 22 22 22 22 22 22 20 19 21
33 41 43 66 74 98 112 115 114 102 89 87 92 106 119 124
124 123 118 120 119 117 116 108 92 74 58 50 42 15 10 12
12 4 10 7 8 15 19 18 15 17 20 22 21 21 23 24
1 0 0 0 0 0 1 11 0 0 0 0 0 0 0 0
0 0 3 2 0 0 0 0 0 0 11 20 20 21 21 22
0 0 0 0 0 3 10 34 33 7 0 0 0 0 0 0
0 0 0 0 0 0 0 0 0 0 7 19 19 20 20 21
20 20 21 21 22 21 21 21 21 21 21 21 21 17 15 22
34 39 45 64 77 86 114 116 113 100 89 89 93 108 120 124
124 123 121 120 121 117 111 101 82 65 62 67 65 37 32 30
29 21 22 21 17 19 20 18 18 19 19 20 20 20 20 12
0 0 0 0 0 0 0 0 0 0 0 0 0 0 0 0
0 0 0 0 0 0 0 0 0 0 2 9 13 12 14 20
0 0 0 0 0 3 22 32 14 0 0 0 0 0 0 0
0 0 0 0 0 0 0 0 0 0 7 19 19 19 19 20
20 19 19 20 21 21 21 21 21 21 21 21 20 15 14 29
32 39 44 56 87 69 114 116 112 100 91 88 93 108 120 124
125 122 121 119 118 116 109 92 70 68 77 79 72 45 33 34
29 24 27 36 34 32 29 24 20 16 14 13 13 12 11 3
0 0 0 0 0 0 0 0 0 0 0 0 0 0 0 0
0 0 0 0 0 0 0 0 0 0 6 8 15 17 18 21
0 0 0 1 0 4 29 24 1 0 0 0 0 0 0 0
0 0 0 0 0 0 0 0 0 2 14 20 20 19 19 20
20 20 20 21 21 20 21 21 21 20 21 23 20 19 25 34
34 37 48 49 94 62 107 115 109 100 93 90 93 108 120 123
125 122 119 119 117 111 102 82 75 87 94 96 77 42 35 35
31 26 22 18 24 27 28 25 19 11 7 3 1 1 0 0
0 0 0 0 0 0 0 0 0 0 0 0 0 0 0 0
0 0 0 0 0 0 0 0 0 0 10 14 17 23 22 22
0 0 4 5 0 6 31 16 0 5 12 10 0 0 0 0
0 0 0 0 0 0 0 0 0 9 17 17 18 18 19 19
20 20 20 20 19 20 21 23 26 31 37 37 26 25 31 33
35 36 48 50 86 70 82 113 107 102 95 91 95 110 121 125
125 122 118 116 112 105 92 84 95 103 107 93 81 39 37 35
30 26 21 10 8 13 25 36 37 34 33 29 15 3 0 0
0 0 0 0 0 0 0 0 0 0 0 0 0 0 0 0
0 0 0 0 1 0 0 0 0 0 5 9 10 23 23 23
5 5 7 4 0 10 27 6 1 14 16 14 3 0 3 6
1 0 0 0 0 0 0 0 0 0 2 2 3 6 17 19
19 19 19 19 21 24 29 35 40 43 45 40 27 25 32 32
34 35 44 46 74 94 57 101 108 103 96 91 96 110 121 125
124 119 114 112 107 101 95 100 108 112 103 95 63 38 37 34
29 25 22 19 9 9 21 39 39 35 37 36 36 33 24 11
2 0 0 0 0 0 0 0 0 0 0 0 0 0 0 0
0 0 0 0 0 0 0 0 0 0 0 0 1 18 23 23
6 4 2 0 0 15 25 2 1 15 16 15 2 1 16 19
11 1 0 0 0 0 0 0 0 0 0 0 0 0 13 19
19 19 23 31 32 34 37 41 47 47 43 37 28 23 33 33
35 34 41 46 60 107 66 76 108 105 98 94 98 112 120 125
126 121 112 108 104 104 105 112 116 112 97 84 43 40 36 34
31 26 24 20 16 14 23 34 38 35 31 36 38 37 45 40
43 28 19 14 9 2 0 0 0 0 0 0 0 0 0 0
0 0 0 0 0 0 0 0 0 0 0 0 0 10 22 22
4 0 0 0 0 19 25 1 1 11 6 11 5 10 23 21
15 4 0 0 0 0 0 0 0 0 0 0 0 0 10 18
24 33 37 39 37 34 38 40 44 42 42 35 29 31 35 32
33 34 40 48 53 104 93 58 102 106 99 98 99 111 119 125
124 119 107 102 104 108 112 115 112 97 109 70 40 45 36 32
30 24 22 17 20 17 23 39 43 39 35 34 35 37 40 41
41 40 39 41 40 37 28 20 8 0 0 0 0 0 0 0
0 0 0 0 0 0 0 0 0 0 0 0 0 2 16 17
3 0 0 0 0 20 25 2 0 2 0 5 13 21 26 19
14 7 0 0 0 0 0 0 0 0 0 0 2 10 24 34
37 36 41 41 33 32 35 40 41 41 42 37 36 35 35 32
31 34 38 44 49 89 111 66 80 104 102 101 101 111 122 125
125 117 98 98 108 113 115 112 93 96 112 69 5 15 43 32
27 22 20 9 25 28 31 39 39 36 38 35 34 38 40 39
40 41 40 41 39 39 39 40 41 34 14 0 0 0 0 0
0 0 0 0 0 0 0 0 0 0 0 0 0 0 13 16
3 1 0 0 0 22 29 6 0 0 0 7 18 27 23 6
8 7 0 0 0 0 0 0 0 0 10 25 31 36 35 35
36 39 39 37 28 29 40 41 38 39 41 39 37 36 34 31
29 32 38 43 49 75 121 88 59 95 106 105 103 110 121 124
124 112 91 98 111 115 115 100 92 114 94 31 0 0 31 33
25 22 18 3 24 39 43 41 37 33 36 34 35 36 36 38
39 40 39 39 38 36 38 38 38 39 42 31 11 0 0 0
0 0 0 0 0 0 0 0 0 0 0 0 0 0 11 15
8 9 8 0 0 17 28 13 1 0 0 10 23 28 14 0
6 9 0 0 0 0 0 0 8 24 35 36 37 37 35 36
37 37 38 37 28 29 41 38 38 38 38 38 38 36 36 32
30 32 40 48 45 65 123 111 61 76 111 108 103 110 123 125
124 108 84 99 112 113 100 97 108 115 61 14 0 0 19 37
26 22 18 0 21 37 40 39 35 32 37 33 35 33 34 37
39 38 39 39 38 37 39 37 38 39 39 40 39 22 1 0
0 0 0 0 0 0 0 0 0 0 0 0 0 1 9 15
12 11 9 0 0 12 24 18 2 0 0 11 23 16 3 0
4 6 0 0 0 0 1 23 34 36 36 34 34 34 33 36
36 36 36 34 28 26 41 41 35 33 37 39 35 34 37 32
31 32 38 47 11 61 121 117 85 60 111 113 104 110 123 124
123 101 79 103 112 103 100 107 121 82 52 8 0 0 22 39
24 23 19 2 24 36 38 38 35 31 38 35 36 36 33 35
38 38 38 36 38 37 38 38 38 38 40 38 37 27 14 0
0 0 0 0 0 0 0 0 0 0 0 0 0 2 7 14
12 11 10 1 0 10 23 21 4 0 0 6 8 1 0 0
0 0 0 0 0 2 27 38 36 34 34 34 34 33 32 35
34 35 37 35 28 24 39 39 33 30 33 37 36 32 36 34
28 31 37 45 3 45 124 110 99 62 107 116 103 107 121 124
121 95 80 103 103 99 105 121 89 45 21 0 0 0 29 36
24 23 23 12 29 36 38 36 35 30 35 36 35 36 35 37
39 39 38 38 40 38 37 37 38 39 38 37 34 21 25 3
0 0 0 0 0 0 0 0 0 0 0 0 0 2 6 14
14 11 9 0 0 2 7 5 1 0 0 0 0 0 0 0
0 0 0 0 1 25 38 36 34 34 34 34 34 34 32 33
33 35 35 33 29 24 36 38 36 30 29 36 35 32 37 34
27 30 34 43 5 33 124 113 105 89 98 119 104 106 120 125
116 83 72 93 85 69 114 96 36 19 13 0 0 2 32 38
26 26 30 28 31 34 37 36 36 33 29 36 34 35 36 38
38 37 37 39 39 37 37 37 38 38 38 37 34 20 28 19
0 0 0 0 0 0 0 0 0 0 0 0 0 2 6 16
2 0 0 0 0 0 0 0 0 0 0 0 0 0 0 0
0 0 0 0 16 33 32 33 32 35 35 37 37 35 34 35
38 38 37 35 32 27 35 37 36 31 28 34 35 33 37 35
34 29 29 41 8 16 120 120 103 106 88 113 106 101 118 124
111 70 58 67 57 55 60 37 21 17 15 6 12 7 30 43
30 35 36 32 33 37 38 40 40 37 29 35 33 34 34 37
39 40 41 39 39 39 39 41 40 40 38 38 31 18 30 25
5 0 0 0 0 0 0 0 0 0 0 0 0 2 5 15
0 0 0 0 0 0 0 0 0 0 0 0 0 0 0 0
0 0 0 6 31 29 25 33 32 33 37 39 38 34 35 38
40 38 35 35 33 31 34 35 36 32 28 34 36 36 37 35
36 33 32 39 7 3 97 127 116 110 87 84 103 96 116 123
96 47 48 40 26 27 22 20 19 18 15 28 27 9 22 48
38 38 42 34 36 38 37 41 41 39 34 31 33 34 36 38
38 39 39 37 38 38 39 39 40 38 39 36 31 18 30 25
17 0 0 0 0 0 0 0 0 0 0 0 0 2 5 14
0 0 0 0 0 0 0 3 2 1 1 5 7 7 0 3
4 0 1 23 33 30 22 33 31 31 35 38 36 35 39 41
41 39 36 36 36 35 32 35 37 34 28 33 36 36 38 33
39 38 35 38 3 0 47 118 123 119 84 51 65 81 109 116
62 45 35 23 22 26 31 29 24 21 25 36 31 16 18 42
47 39 43 39 39 40 38 41 41 40 37 30 36 37 37 35
38 39 37 38 38 38 39 39 39 38 39 39 32 19 32 27
25 4 0 0 0 0 0 0 0 0 0 0 0 1 6 12
0 0 0 0 0 0 0 5 5 11 16 13 17 15 10 11
3 0 11 28 34 31 23 31 33 31 37 37 38 39 41 41
43 40 35 36 39 40 36 32 34 35 30 34 37 38 38 32
39 40 42 30 0 6 22 53 101 119 95 50 43 54 93 91
48 35 25 28 34 38 37 33 26 31 33 37 31 30 22 25
46 50 48 47 44 38 39 41 43 43 41 34 36 39 40 40
36 37 41 40 40 39 41 39 38 38 40 41 33 21 34 27
31 17 0 0 0 0 0 0 0 0 0 0 0 1 9 12
0 0 0 0 0 0 0 0 6 16 21 19 22 22 19 11
0 2 25 30 34 31 24 31 35 28 31 37 38 40 40 41
41 38 34 37 41 43 39 31 33 37 32 34 37 38 37 37
41 44 40 13 10 19 22 23 29 43 32 7 11 27 44 54
47 33 29 35 37 40 34 28 27 35 34 36 32 36 36 30
28 35 41 45 39 33 44 44 45 44 42 39 36 39 40 41
38 36 41 41 40 40 39 38 38 41 39 39 31 21 35 28
31 27 17 1 0 0 0 0 0 0 0 0 0 2 12 14
0 0 0 0 0 0 0 0 3 10 18 24 24 24 15 2
0 21 32 32 34 30 25 33 36 29 33 37 40 42 41 42
40 38 34 37 40 42 35 30 34 37 35 33 39 49 42 42
40 32 26 30 32 29 26 25 25 30 25 18 24 30 26 36
44 31 33 35 40 40 32 25 33 35 36 37 34 36 38 38
37 37 35 35 33 34 39 42 43 42 39 39 36 39 44 44
39 36 38 41 41 38 39 37 37 40 40 39 31 21 34 28
35 36 31 16 0 0 0 0 0 0 0 0 0 4 13 13
0 0 0 0 0 0 0 0 0 2 12 17 15 10 1 0
8 37 32 33 35 32 24 31 36 32 35 37 40 41 43 40
39 34 35 37 42 42 36 33 35 37 35 33 34 37 27 28
30 34 36 36 38 39 38 38 32 32 35 33 39 35 28 41
41 33 38 42 45 42 31 27 37 36 39 39 38 39 40 41
40 41 40 38 37 38 38 41 43 44 41 41 40 36 39 42
42 37 38 40 41 38 37 37 38 40 42 42 32 23 35 32
39 39 36 65 7 0 0 0 0 0 0 0 0 3 10 10
0 0 0 0 0 0 0 0 0 0 3 4 4 0 0 6
35 39 35 32 35 32 23 32 37 33 35 37 40 40 40 39
37 29 35 38 40 40 36 33 36 41 37 37 39 38 37 39
39 39 41 42 41 40 41 39 36 31 37 34 41 32 32 103
79 41 42 46 48 39 29 36 40 38 38 40 39 39 41 40
41 40 40 39 38 39 41 43 42 42 41 41 40 37 35 38
41 33 36 42 42 41 39 39 41 41 42 41 30 24 34 36
40 39 52 102 51 0 0 0 0 0 0 0 0 4 13 11
0 0 0 0 0 0 0 0 0 1 2 2 0 0 1 23
44 38 37 31 34 32 25 35 39 35 37 38 41 41 40 40
36 29 35 40 42 45 38 34 38 42 39 37 39 42 44 44
42 41 42 40 41 42 43 42 41 34 38 37 41 33 52 126
125 114 95 92 85 43 32 43 44 70 102 114 107 100 94 83
70 52 39 39 38 41 43 43 41 41 43 42 42 39 37 37
39 35 35 38 39 39 38 39 39 39 43 41 29 24 36 38
37 46 86 116 93 9 0 0 0 0 0 0 0 4 14 11
0 0 0 0 0 0 0 0 2 5 5 5 4 11 7 56
67 39 39 36 32 32 25 34 39 35 37 39 42 42 41 41
36 32 39 40 43 42 40 35 39 41 40 38 42 44 44 43
42 41 43 41 42 42 42 42 42 37 37 42 40 35 85 128
126 126 127 126 125 104 83 92 114 125 125 124 124 124 125 125
124 122 103 72 48 42 42 42 43 45 43 41 40 38 40 39
40 35 37 42 51 56 55 56 66 80 96 99 58 21 39 35
41 72 121 120 103 49 0 0 0 0 0 0 0 2 11 8
0 0 0 0 0 0 0 0 2 5 4 4 12 26 27 98
110 45 35 37 33 31 25 33 39 37 38 40 41 41 41 41
35 32 40 42 43 44 41 36 40 43 43 41 40 42 46 59
66 68 68 61 56 50 48 48 51 54 68 103 84 48 110 127
126 126 126 124 124 124 124 125 125 125 124 124 124 124 124 124
124 124 124 123 121 114 113 112 115 115 112 102 86 56 42 42
42 54 87 112 122 122 123 123 122 122 123 122 92 22 37 40
58 117 122 118 102 89 5 0 0 0 0 0 0 2 10 7
0 0 0 0 0 0 0 0 2 7 6 7 20 31 55 123
125 89 38 34 37 32 26 35 43 39 39 40 42 41 42 40
35 34 41 43 42 45 41 37 40 44 44 41 44 80 118 127
127 127 127 126 126 123 120 121 122 125 125 125 125 111 125 125
125 125 125 124 124 125 125 124 124 123 124 124 124 124 123 124
123 123 123 123 123 123 123 123 123 123 123 123 123 122 113 108
113 121 122 122 122 122 122 122 122 122 122 121 94 23 38 49
108 122 121 118 106 104 43 0 0 0 0 0 0 0 1 1
0 0 1 0 0 0 0 0 1 9 9 17 31 40 93 129
126 122 55 36 36 32 27 99 121 113 101 92 91 87 84 75
54 38 44 52 74 90 83 57 43 45 45 62 107 127 127 127
127 126 126 125 126 125 125 125 126 126 125 124 125 123 124 125
125 124 125 124 124 124 124 123 124 124 123 124 124 124 124 123
123 123 123 123 123 122 122 123 123 123 123 123 122 122 123 122
122 122 122 121 122 122 122 121 122 122 122 121 97 25 43 98
123 121 122 118 112 109 91 6 0 0 0 0 0 0 0 0
0 0 0 0 0 0 0 0 0 4 10 21 34 58 121 129
128 128 103 43 34 34 32 116 129 128 127 127 127 127 127 127
124 114 111 122 127 127 127 125 115 105 110 125 126 127 127 126
126 126 126 126 125 125 125 125 125 125 125 125 124 124 124 124
124 124 124 124 124 124 124 124 124 124 124 123 124 123 123 123
123 123 122 123 123 122 123 123 123 123 122 122 123 122 122 122
122 122 122 121 121 121 122 121 122 121 121 121 97 30 74 122
121 121 120 120 119 115 106 38 0 0 0 0 0 0 0 0
0 0 0 0 0 0 0 0 0 0 5 20 32 85 129 128
127 127 126 75 37 31 33 114 129 128 127 128 127 127 127 127
127 127 127 127 126 126 127 126 126 126 126 125 126 126 126 126
125 125 125 125 125 125 125 125 125 124 124 124 125 124 124 124
122 113 124 124 123 124 124 123 124 123 124 123 124 124 123 123
123 123 123 123 122 122 121 122 121 122 122 122 122 122 122 122
122 121 122 121 121 121 121 121 121 121 121 121 96 44 117 121
121 121 120 119 120 118 106 79 1 0 0 0 0 0 0 0
0 0 0 0 0 0 0 0 0 0 0 9 29 110 129 128
127 127 127 122 57 34 33 113 128 127 127 127 127 127 127 127
127 127 127 127 127 127 127 126 126 126 127 126 126 125 125 125
125 125 125 125 125 125 125 124 124 124 124 124 124 124 124 124
118 111 125 124 124 124 124 124 124 123 123 123 123 122 123 123
123 123 123 123 122 122 122 121 122 122 123 122 122 122 122 121
122 121 121 121 121 122 122 121 121 121 121 120 107 95 122 121
120 120 120 120 120 120 109 100 22 0 0 0 0 0 0 0
1 0 0 0 0 0 0 0 0 3 3 14 57 127 129 129
128 127 127 127 107 44 33 114 129 127 127 127 128 128 127 127
127 127 127 127 126 127 127 126 126 126 126 125 126 126 127 126
126 126 126 125 125 125 125 125 125 125 125 124 124 124 123 103
105 107 124 124 124 124 124 123 124 124 124 123 124 123 123 123
123 123 123 123 123 122 122 121 122 122 122 122 122 122 123 122
123 123 122 122 122 122 121 121 121 121 121 121 120 121 121 121
121 121 121 120 120 120 112 102 68 0 0 0 0 0 0 0
0 0 0 0 0 0 0 0 0 7 10 29 100 128 127 128
127 128 128 127 127 89 83 124 128 127 127 127 127 127 127 126
127 127 127 126 127 127 126 126 126 126 126 126 126 125 125 125
125 125 124 124 125 124 125 125 125 124 125 124 124 123 117 92
96 102 123 124 123 124 124 124 123 124 123 123 123 122 122 123
122 122 123 123 122 122 122 122 123 122 123 122 122 122 122 122
122 122 122 122 121 121 121 121 122 122 121 121 120 119 121 120
120 120 120 120 120 120 112 103 98 12 0 0 0 1 8 2
0 0 0 0 0 0 0 0 0 3 10 53 125 128 128 127
127 127 127 127 127 126 126 127 126 127 127 127 127 127 127 127
127 127 126 126 126 125 125 125 126 126 126 125 126 125 126 125
125 125 125 125 125 125 124 124 124 124 124 124 124 124 123 95
75 110 124 124 123 123 123 123 123 123 123 123 123 123 123 123
122 123 123 123 122 122 122 122 121 121 121 122 122 122 122 122
122 122 122 122 121 121 121 121 121 121 121 121 119 119 120 121
121 120 120 120 120 120 111 107 107 54 0 0 0 0 7 2
0 0 0 0 0 0 0 0 0 3 15 96 130 127 128 128
127 127 127 127 128 127 127 126 126 127 127 126 126 126 126 126
127 126 127 126 126 126 127 126 126 126 126 126 125 125 125 125
125 125 124 125 125 125 124 124 124 124 124 124 124 124 124 121
91 121 124 123 124 124 123 123 124 123 123 123 123 123 123 123
122 123 123 123 123 122 122 122 122 122 122 122 123 122 122 122
121 122 121 121 121 121 121 121 121 121 120 121 118 120 121 120
120 120 120 120 120 119 114 113 109 95 6 0 0 0 0 0
0 0 0 0 0 0 0 0 0 2 38 124 128 127 127 127
127 127 127 127 127 127 127 126 127 127 127 127 127 127 127 126
127 126 126 126 125 126 125 125 125 125 125 125 126 126 125 125
126 125 125 125 125 125 124 124 124 124 124 124 124 124 124 124
124 123 124 124 123 123 124 123 124 123 124 123 123 122 123 122
122 122 123 123 123 122 122 122 122 122 122 122 122 122 122 122
122 122 121 122 122 121 121 121 121 121 121 120 118 120 120 121
120 120 121 120 120 119 118 119 113 107 42 0 0 0 0 0
