P2
128 120
149
0 9 44 42 34 34 34 33 33 33 33 33 33 32 33 32
32 31 31 31 30 29 29 29 29 28 28 28 28 28 27 27
26 27 27 26 26 25 25 24 24 23 24 23 23 23 22 22
23 23 24 26 27 27 26 20 20 22 22 27 27 26 26 25
26 25 24 24 23 21 23 24 25 25 26 26 26 26 26 26
27 27 26 27 27 28 29 29 28 29 29 29 29 30 31 31
31 32 32 32 32 33 33 33 34 34 35 35 34 35 36 36
36 36 36 36 36 36 36 37 36 36 37 37 37 36 36 37
0 9 43 40 34 33 33 33 33 33 33 32 32 32 32 32
31 31 31 30 30 30 30 29 29 29 28 27 27 27 27 26
26 26 25 26 25 25 25 24 24 24 24 24 24 23 23 23
23 23 25 27 27 27 26 21 21 23 21 27 27 27 26 26
25 26 24 24 23 21 24 25 26 26 26 26 27 26 27 27
27 27 27 27 27 28 27 28 29 29 29 30 31 31 31 31
31 31 32 32 33 33 33 34 34 34 35 35 35 35 35 36
35 35 35 35 35 35 36 37 37 36 37 37 37 37 37 37
0 10 44 40 33 34 33 33 33 33 33 33 32 33 32 32
32 31 31 31 31 30 30 29 29 29 28 28 28 27 27 27
27 27 27 26 25 26 26 26 24 24 25 24 23 23 23 23
23 24 25 28 28 27 27 21 21 25 22 27 27 27 27 26
26 26 25 25 24 22 24 25 26 26 26 27 27 27 27 28
28 27 28 29 28 28 29 29 30 30 30 30 31 30 31 31
32 32 33 33 33 34 34 34 34 34 33 34 35 34 35 35
36 36 37 36 36 37 36 37 37 37 37 37 37 37 37 37
0 10 43 39 33 33 34 34 33 33 33 32 32 32 32 32
32 31 31 31 30 31 30 30 29 30 29 28 28 28 27 27
27 27 26 26 27 26 26 25 25 25 25 25 24 24 24 24
24 25 26 28 28 28 28 21 22 26 22 28 28 28 27 27
26 26 26 26 25 22 25 25 27 27 27 27 28 28 28 28
28 28 27 28 28 28 29 29 30 30 31 31 31 32 32 33
33 33 33 34 33 33 34 34 34 35 35 35 36 36 36 36
36 36 38 37 36 37 36 37 37 37 37 38 38 38 38 38
0 11 43 39 34 34 33 34 33 33 32 32 33 32 32 32
32 32 31 31 31 30 30 30 29 29 29 29 29 28 28 28
27 27 27 27 27 26 26 25 25 25 24 24 23 24 24 24
24 25 26 28 30 29 28 22 22 26 22 28 28 28 27 27
26 26 26 26 25 22 25 26 27 27 27 27 28 28 28 28
29 28 28 29 29 30 30 30 31 31 31 31 31 31 30 31
31 33 33 33 34 35 35 35 35 35 35 36 35 36 36 36
36 36 37 37 36 36 37 37 37 37 37 37 38 37 37 37
6 20 44 38 33 34 33 33 33 33 32 32 33 32 32 32
32 32 32 31 31 30 30 30 30 30 30 29 29 28 28 28
28 27 27 27 26 26 26 26 26 26 25 25 25 25 24 24
24 25 26 29 29 29 28 22 22 28 23 28 29 29 28 29
27 27 26 26 25 22 26 26 27 28 28 28 29 28 29 29
28 29 30 29 30 30 30 30 30 31 31 31 31 32 32 32
33 33 34 35 35 35 35 35 36 36 36 36 36 36 36 36
36 37 37 37 36 37 36 36 36 37 37 37 37 38 38 38
23 29 42 38 33 33 33 33 33 33 32 32 32 32 32 31
32 31 31 30 30 31 30 30 30 29 29 29 28 29 28 27
27 27 27 27 27 26 26 26 25 25 25 25 25 24 24 24
24 25 26 29 30 29 27 22 23 28 23 27 29 29 28 28
26 26 26 26 26 23 26 27 28 28 28 28 29 28 28 29
29 29 29 29 30 29 30 30 31 31 31 31 31 32 32 32
32 33 33 34 34 35 35 35 35 35 36 36 36 35 36 36
36 36 36 37 36 36 36 37 37 37 37 37 37 37 37 37
34 35 36 35 33 33 33 33 33 33 32 33 32 32 32 32
31 31 31 31 30 30 30 30 30 29 29 29 28 28 28 28
28 27 27 27 27 26 26 26 26 25 26 25 25 25 24 25
25 25 26 29 29 28 28 22 22 29 24 27 30 29 29 28
27 27 27 27 26 23 25 26 28 28 28 29 29 28 28 28
28 29 28 29 30 30 30 30 31 30 30 32 32 33 33 33
33 34 34 35 34 35 35 35 35 35 35 35 35 35 36 36
36 36 37 37 35 36 36 36 37 37 37 37 38 38 37 37
26 30 32 33 33 33 33 33 33 33 32 32 31 31 31 31
30 30 31 31 30 30 30 30 29 29 29 29 29 28 28 27
28 27 27 26 27 27 26 26 26 25 25 25 24 24 24 24
24 26 26 29 30 29 28 22 22 29 25 26 29 28 28 28
27 26 26 26 25 23 26 26 28 28 28 28 28 27 28 28
29 28 29 30 30 29 30 30 30 31 31 31 32 32 32 32
33 33 34 35 34 34 34 35 35 35 35 35 36 35 36 35
36 35 35 36 36 36 36 36 36 37 37 36 37 37 37 37
13 16 19 22 26 28 31 32 32 32 32 32 32 31 31 31
31 30 30 31 29 30 29 29 29 29 28 28 28 28 27 27
27 27 26 27 26 26 25 26 25 25 25 25 25 24 24 24
25 25 26 28 29 29 28 22 21 29 26 25 29 29 28 27
27 27 26 26 25 22 25 25 27 27 27 27 28 28 28 29
28 29 29 29 30 30 30 30 30 30 31 31 32 32 32 32
33 33 34 34 33 34 34 35 34 34 34 33 35 34 35 35
35 35 35 36 36 36 36 36 36 36 36 36 36 36 36 36
10 11 12 11 13 15 17 20 24 26 29 29 31 30 30 30
30 30 30 30 30 30 29 29 29 29 29 29 28 28 27 27
27 27 27 26 26 26 26 26 25 25 25 25 25 24 24 24
24 25 26 29 29 29 28 22 22 29 27 24 29 29 28 28
27 27 26 26 25 22 26 27 28 28 28 28 29 28 28 29
28 29 29 29 31 30 30 30 30 30 31 31 32 32 33 32
33 33 33 34 33 34 34 35 34 35 35 35 35 35 36 35
35 36 36 36 36 36 37 35 35 35 36 35 35 35 36 36
17 15 12 11 11 11 11 11 12 11 12 18 28 31 31 31
31 31 30 30 30 29 30 29 29 28 29 29 29 28 27 28
27 28 27 27 27 26 27 25 26 25 25 25 25 25 25 25
25 25 26 29 29 29 28 22 21 29 28 24 29 29 29 28
27 27 27 27 27 23 26 27 28 28 29 28 29 28 29 29
29 30 31 31 31 30 30 30 31 31 32 32 32 33 33 33
33 33 33 35 34 34 34 35 35 35 35 34 35 34 35 36
36 35 35 35 34 34 35 34 35 35 36 37 37 36 36 36
38 31 17 19 16 13 11 11 12 8 6 12 26 31 31 30
31 30 30 30 30 30 30 30 30 30 29 29 29 28 27 27
27 28 27 27 27 26 27 26 26 26 26 26 25 25 25 25
25 25 27 29 29 29 29 22 22 30 30 24 30 30 29 28
27 28 27 27 27 23 27 27 29 29 29 29 30 30 29 29
30 30 30 30 32 30 30 31 31 31 32 32 32 32 33 33
34 34 34 35 34 34 34 35 36 36 35 35 35 34 34 34
35 35 35 35 35 35 36 36 35 35 36 37 37 35 36 36
44 37 24 29 32 28 23 20 17 12 9 12 27 31 31 32
31 30 31 31 31 31 30 30 30 29 29 29 29 28 28 28
28 28 30 33 32 29 28 27 26 26 26 25 26 25 26 25
25 26 28 30 30 29 28 22 22 30 30 22 29 30 30 29
28 28 27 28 27 24 27 27 29 29 29 29 29 29 30 30
30 31 31 31 32 32 31 31 32 31 33 32 33 33 33 34
34 35 35 34 34 34 34 35 35 35 34 34 34 35 35 36
36 35 36 36 36 36 36 36 36 36 36 37 37 36 36 35
44 39 30 34 38 35 37 39 37 26 10 13 27 32 31 31
31 31 37 38 36 34 32 31 30 29 30 30 29 29 28 28
28 27 34 40 37 34 32 30 27 26 26 26 26 25 26 25
26 26 27 29 29 29 29 23 22 30 31 23 29 30 30 29
28 28 27 28 27 24 27 28 30 30 29 30 30 30 31 30
30 31 32 31 32 31 32 32 32 32 33 33 33 33 34 33
33 33 33 33 34 34 34 34 35 35 35 36 35 35 35 35
36 36 35 35 35 36 35 36 36 36 36 37 37 36 36 37
26 37 33 37 40 39 42 44 44 34 11 14 28 32 33 32
31 32 41 42 40 37 35 35 35 32 31 30 29 29 29 29
28 28 35 40 38 36 36 35 31 26 26 26 26 26 26 26
26 26 27 30 31 30 29 23 23 29 32 23 28 30 30 30
29 28 28 28 28 26 27 28 29 30 29 30 31 30 30 30
31 31 32 31 33 33 32 32 32 32 33 33 33 33 33 33
34 33 34 34 35 35 34 34 34 34 34 35 35 35 35 36
35 36 36 36 36 36 36 37 37 36 36 36 37 36 36 36
5 34 35 37 39 41 43 44 45 37 14 15 31 34 33 33
32 32 40 41 40 38 38 40 41 36 36 35 34 31 29 29
29 29 31 31 31 32 35 36 32 27 27 26 26 27 26 26
26 27 27 29 30 30 28 22 20 22 30 24 27 31 31 30
29 29 28 28 28 25 28 28 31 31 30 31 31 31 31 31
31 31 31 31 32 31 31 32 31 32 33 33 34 33 34 34
34 34 34 34 34 34 34 35 35 35 35 36 36 35 36 36
35 35 36 36 36 35 36 36 36 36 36 36 37 36 37 37
9 35 29 32 35 40 42 43 43 37 14 16 33 36 33 34
35 36 33 21 28 35 39 41 42 34 23 27 32 33 33 34
34 31 30 19 14 17 21 24 30 28 27 26 27 27 26 26
26 27 28 30 31 31 26 19 19 20 30 24 20 22 26 28
30 30 29 29 29 26 29 29 31 31 31 31 31 32 31 31
32 31 31 32 32 32 32 33 33 33 33 34 34 33 33 33
34 34 34 34 34 34 35 35 35 35 35 36 36 36 36 36
36 36 36 36 36 36 37 36 37 37 36 36 37 36 36 37
11 33 11 6 14 22 29 34 35 35 16 16 33 36 32 31
36 41 28 0 2 15 24 26 32 28 2 1 6 13 19 25
31 32 29 15 6 7 6 2 21 29 28 28 28 27 27 27
27 28 28 31 32 32 32 31 38 38 30 21 17 16 14 16
18 20 24 28 29 27 28 29 31 31 31 31 31 32 32 32
32 32 32 33 32 33 33 33 33 33 33 34 35 33 34 34
35 35 35 34 35 35 35 35 35 35 35 36 36 36 36 36
37 36 36 36 36 36 36 36 37 37 37 36 38 37 37 38
8 34 6 0 0 1 2 4 10 32 16 14 21 28 33 35
39 44 30 0 0 4 10 11 18 27 1 0 0 0 0 2
5 16 29 13 1 1 3 0 19 29 28 28 28 27 27 27
27 28 29 31 29 23 25 35 38 37 35 29 24 21 20 19
21 22 18 19 21 24 29 28 31 31 31 31 32 32 32 32
33 32 33 33 34 33 33 34 34 34 34 35 35 35 35 35
35 35 35 35 36 36 35 35 35 36 36 37 37 36 36 37
36 36 36 37 37 36 37 37 37 38 38 38 39 38 38 37
7 34 5 0 0 0 0 0 3 31 16 10 1 2 7 14
24 32 27 1 0 1 3 6 14 27 3 0 0 0 0 0
0 7 28 8 0 0 0 0 20 30 28 27 28 29 28 28
28 28 28 19 17 24 31 38 48 42 29 22 20 23 21 19
19 13 10 8 8 7 16 28 32 32 32 32 33 33 33 33
33 33 32 33 33 33 33 33 33 33 34 34 36 35 35 35
35 35 36 36 36 35 35 35 35 35 36 36 37 37 37 36
36 36 36 37 37 37 37 37 37 38 38 38 38 38 38 38
7 33 5 0 0 3 0 0 3 31 16 9 0 0 0 0
0 3 14 1 0 0 0 0 11 25 2 0 0 0 0 0
0 6 26 4 0 0 0 0 22 32 28 28 28 28 28 28
27 20 12 15 21 23 25 27 24 19 15 16 13 15 11 7
5 3 4 4 1 1 2 11 31 33 33 32 33 33 32 33
33 32 33 33 33 33 33 34 34 35 35 35 35 35 35 35
35 35 35 35 36 36 35 36 37 36 36 37 37 37 36 36
36 36 36 37 37 38 37 37 38 38 38 38 36 37 37 36
8 33 5 0 0 10 2 0 3 31 16 10 0 0 0 0
0 0 9 1 0 0 0 0 11 27 1 0 0 2 6 0
0 5 26 3 0 0 0 0 21 32 28 28 28 28 28 27
18 6 25 35 33 32 28 25 23 21 25 25 24 20 18 11
12 9 4 4 10 7 6 6 17 32 33 33 33 33 33 33
33 33 33 33 33 34 34 34 34 34 35 35 35 35 36 35
36 36 36 36 36 36 36 36 36 36 36 37 37 36 36 37
37 37 37 37 38 38 38 39 38 38 38 38 38 38 38 37
8 32 4 0 0 5 2 0 3 31 15 10 0 0 0 0
0 0 6 0 0 0 0 0 12 30 2 0 0 4 11 7
2 5 26 2 0 0 0 0 19 33 29 28 28 28 28 15
14 34 39 41 38 34 32 29 29 25 21 18 22 18 18 9
5 2 3 11 16 13 7 7 5 13 29 33 33 33 33 33
33 33 33 34 34 34 34 34 34 35 35 35 36 35 35 35
35 36 36 36 36 36 37 36 37 36 37 37 37 37 38 38
38 37 38 38 38 38 38 39 38 38 38 38 38 38 38 38
8 30 3 0 0 0 0 0 3 31 15 10 0 0 0 4
0 0 5 0 0 0 0 0 11 31 2 0 0 6 12 12
8 5 26 4 0 0 0 0 17 33 29 28 27 28 19 18
24 35 44 44 35 32 30 32 30 23 21 26 25 18 14 13
9 10 16 21 19 12 7 3 4 4 8 27 33 34 33 32
34 34 33 33 34 34 33 34 35 35 35 36 36 36 36 35
37 37 37 37 37 37 37 36 36 36 36 37 37 37 37 38
37 37 37 38 38 38 39 39 39 38 38 38 38 38 39 39
11 29 2 0 0 0 0 0 4 31 15 10 0 4 1 2
0 0 6 1 0 0 0 0 13 32 4 0 0 3 9 11
8 4 27 10 1 0 0 0 16 33 29 27 17 15 10 16
14 16 24 36 44 34 24 25 25 23 23 24 22 22 21 20
18 16 21 17 12 15 9 3 1 1 3 8 29 34 33 33
34 33 33 34 34 34 35 35 35 36 36 36 36 35 36 36
36 36 37 37 37 37 37 37 38 37 37 38 38 37 38 38
38 37 36 38 39 39 38 38 39 39 39 39 39 40 40 40
30 35 14 5 6 4 2 1 8 30 14 10 3 2 0 0
0 0 8 4 0 0 0 0 16 35 12 3 3 0 1 6
7 3 30 33 25 19 14 12 25 33 23 16 5 2 1 3
7 10 20 28 33 25 23 25 36 30 20 17 20 23 23 18
12 9 9 7 9 13 12 6 1 0 0 0 9 32 33 33
33 34 34 35 35 34 35 35 35 35 35 35 36 35 35 35
36 37 37 38 38 37 38 38 37 37 37 37 38 37 38 37
37 38 37 38 39 40 40 40 40 40 40 39 39 39 39 39
37 46 43 27 29 31 30 27 28 30 14 10 1 0 0 0
0 0 18 26 17 14 9 3 13 41 31 25 24 18 11 10
9 8 32 40 37 37 38 40 42 34 15 3 1 1 0 4
8 17 23 25 39 47 53 53 39 28 21 21 23 23 19 16
12 10 7 13 12 7 5 3 1 1 0 0 2 22 34 34
34 34 34 34 35 34 36 36 36 36 36 35 35 36 36 36
37 37 37 38 37 37 38 37 37 38 38 38 38 38 38 38
38 38 38 38 39 38 38 38 39 39 38 36 36 35 35 37
39 53 45 29 35 41 43 42 41 31 13 10 0 0 0 0
0 0 24 46 39 37 37 34 33 43 24 17 20 22 23 23
23 27 37 36 35 37 40 44 44 24 5 1 1 5 2 3
6 15 25 37 42 36 37 27 23 21 21 20 19 19 20 19
13 9 7 6 4 1 1 1 0 0 0 0 0 14 34 33
34 34 35 35 36 35 36 35 36 35 36 35 36 36 36 37
37 37 37 38 38 38 38 38 37 37 37 37 37 36 37 37
36 36 36 37 38 36 35 35 33 33 30 28 27 25 23 22
41 50 36 27 35 41 42 45 46 33 14 13 6 2 0 0
0 0 25 45 40 44 46 47 41 36 19 13 13 13 12 13
14 16 19 18 21 26 32 33 26 12 9 0 2 5 4 1
7 15 19 25 29 21 13 18 19 19 20 18 17 20 24 22
16 10 4 2 3 2 0 0 0 0 0 0 0 1 26 35
35 35 34 35 36 36 35 35 35 35 36 36 36 36 37 37
38 37 38 38 38 37 36 36 36 36 36 36 35 34 33 34
32 31 29 29 27 24 22 21 21 19 19 19 20 20 20 20
40 45 21 8 16 20 24 28 35 32 14 18 30 32 26 17
12 9 28 36 39 44 47 47 41 32 21 13 13 11 10 9
8 8 8 9 11 15 26 21 11 14 5 2 1 6 5 0
3 7 18 26 31 37 33 28 24 28 30 36 35 33 21 15
12 10 13 19 18 16 7 2 0 0 0 0 0 0 7 31
35 35 34 34 36 35 35 35 36 36 36 36 36 36 37 37
37 36 37 37 36 34 36 37 32 30 29 27 26 24 23 22
22 21 20 20 21 22 22 22 23 24 25 25 26 26 25 18
39 45 16 0 0 0 0 1 12 30 15 19 37 45 44 42
40 38 40 27 27 36 40 43 40 34 24 15 12 9 8 8
9 10 9 10 10 15 19 7 3 1 0 4 4 6 9 8
4 11 23 31 39 51 50 45 41 38 42 43 44 38 23 18
17 17 17 19 15 11 7 2 0 0 0 0 0 0 2 24
35 34 33 33 35 36 35 35 36 36 36 36 36 35 34 33
32 30 29 27 26 24 27 36 25 19 21 21 22 21 23 23
24 25 25 26 27 28 29 28 29 29 30 27 30 31 30 15
36 45 16 0 0 0 0 0 8 29 15 17 36 45 45 44
45 46 41 14 5 9 13 20 23 28 26 14 10 3 1 2
7 11 10 9 12 17 24 7 2 3 4 3 9 8 12 14
9 14 26 33 40 46 45 44 34 31 28 31 29 21 19 19
19 17 18 19 17 9 6 6 1 0 0 0 0 0 0 6
27 33 34 34 34 33 33 33 32 31 30 28 26 25 23 23
22 21 22 22 23 23 22 32 24 22 25 27 27 28 29 29
30 30 31 31 31 33 33 34 34 34 33 28 28 34 35 23
31 42 13 0 0 0 4 14 19 29 22 20 31 37 38 40
41 44 39 8 0 0 0 1 8 25 26 13 9 1 0 0
1 4 3 2 7 10 14 14 6 7 10 7 11 15 18 26
22 19 38 53 59 63 59 50 46 32 23 23 25 27 23 18
20 22 23 21 13 9 4 0 0 0 0 0 0 0 0 0
9 27 29 28 27 25 24 23 23 22 22 22 22 23 24 25
26 27 27 28 29 29 26 33 27 27 31 31 32 32 33 34
34 34 35 35 34 35 36 36 35 33 35 36 31 30 36 31
29 38 10 0 0 0 10 23 24 26 24 21 24 26 29 32
32 38 36 6 0 0 0 0 2 25 26 11 7 0 0 1
0 0 0 0 0 6 25 24 14 8 18 21 17 20 24 34
37 30 38 82 91 69 53 41 35 35 33 27 25 23 30 32
28 26 24 15 9 2 1 0 0 0 0 0 0 0 0 0
1 18 22 22 23 24 25 25 26 27 28 28 28 28 30 31
32 32 31 32 33 33 29 29 26 31 34 35 35 36 36 36
36 37 37 37 37 37 36 34 36 35 35 38 38 30 29 33
30 38 9 0 0 0 3 14 18 22 21 19 21 21 25 29
30 37 35 5 0 0 0 0 0 24 21 4 0 0 0 6
6 1 0 0 0 3 23 22 15 15 17 34 31 28 33 39
45 42 46 60 84 92 81 54 39 35 35 34 34 34 27 23
22 20 17 10 3 2 1 0 0 0 0 0 0 0 0 0
2 19 27 28 29 29 30 31 31 32 32 33 33 33 34 34
35 35 35 36 36 34 24 12 14 31 36 37 37 37 37 37
38 38 38 38 38 38 38 36 35 36 35 37 39 38 31 28
33 37 7 0 0 0 0 0 4 17 16 18 16 16 22 27
30 37 33 5 0 0 0 0 0 27 16 0 0 0 0 4
11 6 1 0 0 4 17 15 17 20 24 32 41 42 50 58
49 44 35 60 65 62 61 67 85 72 51 49 43 33 33 30
20 12 8 6 5 3 1 0 0 0 0 0 0 0 0 0
13 30 31 32 33 33 34 34 34 35 35 36 35 35 36 36
36 37 34 31 29 31 21 8 8 29 37 39 39 38 38 38
39 38 39 39 39 38 38 38 36 35 34 35 39 39 37 26
36 39 7 0 0 0 0 0 3 20 18 20 5 0 2 6
10 14 21 4 0 0 0 0 1 28 15 0 0 0 1 7
14 12 7 0 0 6 22 16 19 27 33 50 54 48 62 76
77 54 38 40 49 57 73 91 97 104 109 114 112 102 92 79
61 40 27 17 12 6 4 2 1 0 0 0 0 0 0 0
4 32 34 35 34 35 35 35 35 36 36 36 37 36 37 37
38 33 16 9 9 25 20 7 7 28 37 38 39 38 38 39
39 38 39 39 39 39 39 38 38 36 33 32 37 39 37 31
36 38 6 0 0 3 0 0 4 26 24 22 5 0 0 0
0 0 9 3 0 0 0 0 1 27 12 0 0 0 3 14
17 12 7 0 2 6 23 13 24 28 39 65 77 67 67 87
101 100 84 54 64 106 119 126 136 137 137 137 137 136 136 135
133 126 115 99 84 67 49 28 14 12 8 6 3 1 0 0
0 28 34 34 35 35 35 35 36 36 37 37 37 36 37 37
38 34 21 20 24 30 18 0 4 27 36 38 39 38 38 38
38 38 39 38 38 38 38 38 38 37 35 31 33 35 33 31
33 33 9 0 0 3 1 0 3 29 24 21 5 0 0 0
0 0 7 3 0 3 9 1 1 26 10 0 0 0 1 8
17 5 1 0 1 6 23 9 19 34 37 68 87 87 76 86
108 121 133 126 113 116 137 138 138 137 137 137 137 137 136 137
136 136 135 129 123 121 113 93 69 58 40 30 19 9 0 0
0 25 35 35 35 35 36 36 36 36 36 37 37 36 37 37
37 36 35 35 35 34 22 2 4 27 36 37 38 37 37 37
37 37 38 38 38 38 38 37 38 38 37 33 29 28 28 32
24 28 22 11 6 10 11 6 6 29 23 20 5 0 2 7
0 0 7 3 0 10 13 5 1 26 9 0 0 0 0 0
12 2 0 0 0 4 19 5 12 26 40 75 88 104 104 106
112 131 138 138 138 138 138 138 138 138 138 138 137 137 137 137
137 136 136 134 132 128 114 100 83 64 46 30 24 11 1 0
1 26 35 35 35 35 36 36 36 36 36 37 37 37 37 37
37 37 37 36 35 34 26 4 7 29 37 37 39 38 38 38
38 38 38 38 38 38 37 37 37 37 37 37 33 27 28 35
19 29 28 28 25 27 30 28 27 35 24 19 5 0 8 15
5 0 9 15 10 19 19 14 7 28 9 0 0 0 0 0
12 4 0 0 0 1 16 9 12 22 40 88 96 103 116 126
132 139 138 138 139 139 139 138 138 137 137 136 137 136 136 136
136 136 136 136 135 133 123 106 87 72 52 34 21 9 2 0
0 19 35 35 36 35 36 36 37 36 37 37 37 37 37 36
37 37 37 37 35 33 29 16 17 32 37 37 38 37 38 37
37 37 38 37 38 38 38 37 38 38 38 38 35 28 29 36
23 30 22 8 7 14 21 29 38 37 26 18 6 0 6 10
3 0 11 34 34 37 35 34 33 37 11 0 0 0 0 0
14 6 0 0 0 0 13 13 11 18 39 89 109 115 122 128
139 138 139 138 138 138 138 138 138 138 137 137 137 137 137 137
136 136 135 135 136 133 125 112 90 77 62 37 19 12 1 0
0 16 35 36 36 36 36 36 37 36 37 37 37 37 37 37
37 38 37 37 36 33 30 27 29 35 37 38 39 38 39 38
38 38 38 38 38 38 38 38 38 38 38 38 36 28 28 36
25 31 20 1 0 5 8 15 37 36 25 19 10 0 1 1
0 0 11 39 41 43 42 44 48 46 24 14 13 6 4 7
18 10 4 5 2 3 13 16 11 13 38 85 108 115 125 133
138 139 139 139 139 139 138 138 138 138 138 137 137 137 137 137
137 136 136 135 135 132 127 115 94 80 74 55 19 8 4 0
0 22 35 35 35 36 36 36 37 37 36 37 37 37 37 37
38 37 37 37 36 34 32 32 35 37 38 38 39 39 38 38
38 38 38 38 38 38 39 38 39 39 39 38 36 29 25 27
26 32 18 0 0 14 21 22 37 33 22 21 19 5 0 0
0 0 11 36 38 40 40 44 47 47 36 32 31 28 26 26
26 22 19 16 15 16 19 19 9 12 34 79 106 115 124 133
138 139 139 138 138 138 139 138 139 138 138 138 137 137 137 137
137 137 137 137 135 130 124 111 97 84 74 66 34 10 6 0
0 20 36 35 36 36 36 36 36 37 36 36 37 38 38 38
38 38 37 37 36 35 34 34 37 38 38 38 39 38 39 39
39 39 39 39 39 39 39 39 39 38 38 38 37 30 26 30
28 34 17 0 0 7 19 28 39 29 20 22 18 1 0 0
0 0 12 35 34 36 36 37 37 35 35 35 36 34 33 34
33 31 30 28 26 26 27 22 8 12 33 74 101 114 123 131
136 139 139 138 139 139 139 139 138 139 138 138 137 137 137 137
137 137 136 136 134 127 119 109 98 88 75 68 48 10 6 0
0 8 33 36 36 36 36 36 36 37 37 37 38 38 38 38
38 38 37 36 37 36 36 36 38 38 38 38 38 39 38 38
39 38 38 39 39 39 39 39 39 38 37 37 36 29 28 34
30 36 18 0 0 0 3 23 40 29 20 23 19 7 4 3
1 0 13 37 33 34 34 34 32 33 36 37 38 39 39 36
35 35 37 40 37 33 34 26 7 12 33 70 96 113 121 129
136 139 139 139 139 139 139 138 139 139 139 139 138 138 138 138
138 138 138 137 132 124 116 107 96 83 72 67 57 14 5 0
0 6 34 36 36 37 36 36 36 36 36 37 38 37 37 38
38 37 38 38 38 36 36 38 38 38 37 38 39 39 39 39
39 39 39 39 39 40 40 39 39 38 37 37 36 29 27 34
31 36 18 0 0 0 0 19 40 29 21 22 29 32 31 28
26 25 31 41 36 35 36 36 38 40 40 38 40 45 45 36
33 33 40 45 43 40 40 33 11 12 31 64 89 110 121 128
133 138 139 139 139 139 139 139 140 139 138 139 138 138 138 138
138 137 137 136 130 124 116 107 90 78 70 67 61 20 4 3
0 8 29 37 37 37 37 36 36 37 37 37 37 37 37 39
38 38 38 38 38 37 38 39 39 39 39 39 40 40 39 39
39 39 38 39 39 39 39 39 39 38 40 39 39 31 28 34
31 36 16 0 0 0 0 18 41 30 20 22 34 47 49 47
48 49 49 46 38 35 35 36 39 43 44 38 40 45 45 37
32 30 37 43 41 40 41 36 9 11 26 53 81 104 119 125
130 136 139 139 140 139 139 139 138 139 139 138 138 138 139 138
139 137 137 135 131 116 107 97 81 69 65 67 63 28 3 7
2 19 39 36 37 37 36 36 36 36 37 37 37 37 38 38
38 38 38 38 39 39 39 39 39 38 39 39 39 39 39 39
39 39 39 39 39 39 39 39 39 39 39 39 38 31 28 34
30 36 14 0 0 0 0 18 42 30 20 22 32 44 45 46
48 48 50 46 27 21 19 20 25 34 43 40 35 31 31 30
27 27 31 27 21 23 28 28 13 8 22 46 77 100 114 122
129 134 139 140 140 139 138 139 139 139 139 139 139 139 138 138
138 136 129 119 107 87 63 51 45 33 38 60 66 43 11 6
17 16 35 37 37 37 36 36 36 36 37 37 38 38 38 38
38 38 38 38 38 38 39 39 39 39 38 38 39 39 39 38
39 39 38 38 39 39 39 39 38 39 39 39 38 32 28 34
30 37 14 0 0 0 0 15 38 27 19 23 24 29 29 30
32 33 35 34 10 1 0 1 2 13 38 37 21 7 8 11
14 26 31 14 1 1 5 14 14 7 16 36 74 96 110 120
126 132 139 141 140 140 139 139 139 140 139 139 139 139 138 138
137 127 107 79 54 49 37 28 26 31 29 47 70 58 23 21
41 63 65 42 38 37 36 36 36 36 36 36 37 37 37 37
37 37 37 37 39 38 39 39 39 39 39 39 39 39 39 39
39 38 39 39 39 39 39 39 39 39 38 38 38 32 28 34
30 38 15 0 0 0 0 14 39 28 19 21 25 30 30 29
29 28 28 27 8 0 0 0 0 12 37 31 6 0 0 0
7 27 31 13 0 0 0 13 19 3 12 28 70 90 106 116
124 131 139 140 139 139 139 139 139 139 139 139 139 139 137 131
108 74 44 31 25 24 35 48 56 58 50 46 71 66 36 52
78 83 74 53 35 35 34 34 34 34 35 36 37 37 36 29
28 27 27 25 28 35 39 39 38 39 39 39 39 38 39 38
38 38 38 38 39 39 38 38 38 38 38 38 38 33 28 33
34 33 13 0 0 0 0 16 42 28 17 20 26 34 35 34
34 34 34 30 10 2 0 0 0 14 36 23 1 0 0 0
3 28 32 13 0 0 0 7 17 3 8 20 67 85 103 112
120 126 135 140 140 140 139 139 139 139 139 139 138 132 120 89
51 40 26 25 29 53 77 88 76 73 69 64 70 70 46 69
85 81 73 56 23 23 21 18 18 20 26 35 37 38 32 16
12 10 11 10 14 32 39 39 39 39 39 39 38 38 38 38
38 37 38 38 39 39 38 38 38 38 38 38 39 33 28 32
35 27 18 10 7 6 4 20 39 28 19 24 29 36 36 36
36 37 37 31 9 0 0 0 2 8 32 19 0 0 0 0
2 27 30 12 0 0 0 4 18 8 4 14 61 80 99 108
114 118 122 131 133 133 132 137 138 139 139 138 135 119 94 53
34 32 27 41 72 93 91 77 72 75 80 76 74 74 55 67
67 78 76 53 9 10 8 5 5 5 15 33 36 37 32 13
8 8 9 8 12 32 39 39 39 38 39 38 38 38 38 38
38 37 38 38 38 39 38 38 38 37 39 39 39 34 27 31
33 31 31 30 28 27 26 29 33 30 28 29 31 34 34 34
34 35 35 32 12 0 0 0 4 5 29 16 0 0 0 0
3 28 29 11 0 0 0 0 18 11 1 9 48 76 92 90
86 100 95 100 98 104 113 129 132 137 138 133 124 108 82 54
37 39 48 80 101 103 96 79 69 88 97 91 78 75 63 68
70 70 88 57 8 9 8 4 4 4 13 32 36 36 31 12
8 8 9 8 12 31 39 39 40 39 39 39 38 38 38 38
38 38 38 38 37 38 39 39 39 38 39 39 39 35 28 30
30 30 30 30 30 31 31 31 31 31 31 31 31 32 32 32
32 32 32 31 21 2 0 0 5 4 27 15 0 0 0 0
2 27 29 12 0 0 0 0 17 14 2 7 35 64 60 36
30 31 36 39 44 46 65 110 116 130 132 126 122 109 78 54
41 41 77 122 122 108 86 60 62 100 111 106 86 78 68 74
97 78 95 58 8 9 7 3 4 4 12 32 37 37 31 12
8 9 9 9 10 29 39 39 39 39 38 39 38 38 38 37
38 38 38 37 38 38 38 39 38 38 38 38 38 34 26 29
29 29 29 29 30 29 29 30 30 29 29 29 29 30 30 30
31 31 31 31 22 1 0 0 2 4 27 14 0 0 0 0
1 25 30 12 0 0 0 0 17 18 4 2 22 42 22 20
19 20 18 22 26 36 53 85 104 119 125 122 118 105 78 57
43 64 74 61 39 28 29 32 64 107 119 113 91 77 70 73
97 90 93 64 9 9 7 4 5 4 12 33 37 36 32 14
10 11 12 12 12 27 38 38 38 38 39 38 38 38 37 38
38 38 38 36 36 36 37 38 39 39 39 38 38 35 28 30
14 14 14 14 13 14 14 14 14 14 15 15 16 17 17 18
19 21 26 29 23 1 0 0 0 1 27 16 0 0 0 0
0 23 31 11 0 0 0 0 15 21 7 24 16 24 26 33
36 38 31 33 34 37 41 48 70 105 123 128 132 122 89 80
66 53 55 31 27 34 60 74 92 108 117 113 99 81 71 69
97 94 91 75 8 8 7 4 5 4 12 33 37 37 34 20
16 16 15 16 17 26 37 39 39 39 38 38 39 38 38 39
39 39 38 22 11 10 13 29 39 39 39 38 39 35 29 29
0 0 0 0 0 0 0 0 0 0 0 0 0 0 0 0
0 4 22 29 24 3 0 0 2 2 26 21 1 1 2 1
2 24 32 18 8 7 8 10 24 26 33 82 55 40 32 63
83 96 100 96 87 80 59 36 49 93 128 139 139 133 101 91
92 93 98 90 70 77 93 98 111 124 125 115 102 81 70 65
92 89 81 69 6 5 5 4 5 4 11 32 37 37 33 17
12 11 11 11 12 25 37 39 39 40 39 39 39 38 38 37
38 38 36 11 0 0 0 22 39 38 38 38 38 35 28 29
0 0 0 0 0 0 0 0 0 0 0 0 0 0 0 0
0 3 23 30 27 18 13 15 22 21 30 33 27 25 27 27
27 37 36 29 33 33 35 38 43 36 37 73 84 66 54 74
84 79 85 104 110 85 62 45 68 100 124 139 139 136 112 94
111 118 110 108 96 102 108 115 130 134 131 119 104 81 69 61
75 85 81 48 1 0 4 4 6 5 10 31 37 38 33 16
9 10 10 10 10 24 38 39 39 38 38 38 38 38 38 38
37 38 36 9 0 0 0 15 38 37 38 37 37 34 28 28
0 0 0 0 0 0 0 0 0 0 0 0 0 0 0 0
0 2 24 31 30 35 36 38 39 35 33 37 46 44 44 45
47 47 39 29 37 41 44 49 51 44 40 76 79 73 74 81
62 65 70 46 15 22 60 65 90 102 120 139 139 137 118 104
106 120 123 120 120 122 131 136 137 137 133 120 107 82 68 62
90 95 82 32 1 2 7 5 5 5 11 31 36 37 33 16
8 9 9 9 9 25 38 39 38 38 38 38 39 39 38 37
37 37 34 6 0 0 0 9 37 38 37 38 38 35 28 28
0 0 0 0 0 0 0 0 0 0 0 0 0 0 0 0
0 1 22 31 29 33 38 40 40 33 28 30 40 42 41 41
42 43 39 28 31 36 39 41 41 39 33 70 95 73 82 94
82 47 27 26 34 45 82 101 107 106 118 137 139 138 123 112
109 118 132 135 137 136 136 137 137 137 133 121 107 84 67 63
95 95 86 16 3 3 6 5 6 5 10 30 36 37 33 16
8 9 10 9 10 24 38 38 38 38 38 37 38 38 38 33
22 21 19 3 0 0 0 8 37 38 37 37 37 35 28 27
0 0 0 0 0 0 0 0 0 0 0 0 0 0 0 0
0 0 20 31 29 31 33 36 39 35 29 27 27 26 27 27
27 28 30 28 29 32 33 31 28 31 32 46 103 81 83 107
101 68 57 71 69 84 103 111 112 107 115 135 139 138 125 113
110 113 133 137 137 137 137 137 137 137 133 121 107 85 66 63
94 96 67 5 1 0 3 4 6 5 10 30 36 37 34 16
9 8 9 9 10 25 38 39 38 38 38 39 39 38 37 17
0 0 0 0 0 1 0 7 36 37 36 37 38 36 29 27
0 0 0 0 0 0 0 0 0 0 0 0 0 0 0 0
0 0 18 31 28 25 21 23 27 26 24 27 24 25 26 29
29 29 32 33 35 38 38 33 29 29 31 33 88 88 83 109
115 111 97 103 94 103 121 129 114 110 115 129 138 135 120 112
110 109 128 138 137 137 136 137 136 134 130 120 105 85 66 60
98 91 31 4 3 2 4 4 6 5 10 29 35 37 34 15
8 9 8 9 10 24 38 38 38 38 38 37 38 37 36 11
0 0 0 0 0 0 0 6 36 37 37 37 37 35 28 26
0 0 0 0 0 0 0 0 0 0 0 0 0 0 0 0
0 0 16 31 27 17 3 3 6 9 16 27 30 35 36 41
40 29 28 30 33 37 42 38 31 31 31 33 73 101 83 106
120 125 124 121 124 134 139 133 114 110 113 118 138 135 119 108
109 110 125 136 137 136 136 136 136 132 129 118 104 82 65 57
74 45 8 4 4 4 4 4 6 5 9 29 36 38 34 17
8 9 9 9 9 23 38 38 38 38 38 38 38 38 36 18
0 0 0 0 0 0 0 6 35 37 37 37 37 36 29 27
0 0 0 0 0 0 0 0 0 0 0 0 0 0 0 0
0 0 14 30 27 14 0 0 0 0 15 29 31 40 37 40
39 14 6 8 9 17 37 40 32 31 31 32 59 111 83 103
121 130 135 139 139 139 138 133 117 109 110 118 137 136 118 106
102 105 126 137 137 137 137 136 136 133 128 115 100 80 65 54
35 21 7 5 5 5 4 3 6 5 8 29 35 37 34 19
11 12 10 10 11 24 37 39 39 38 37 38 38 38 37 30
5 0 0 0 0 0 0 3 26 37 37 37 36 35 30 26
0 0 0 0 0 0 0 0 0 0 0 0 0 0 0 0
0 0 11 30 27 15 0 0 0 0 13 29 29 37 24 16
27 6 0 0 0 4 31 40 33 32 32 31 46 115 90 102
120 133 137 139 139 139 138 135 119 111 108 119 138 137 121 106
95 95 120 137 137 137 137 136 136 133 124 111 95 77 66 56
35 22 7 4 3 3 3 3 4 4 8 29 35 37 36 30
28 28 23 25 27 32 38 38 38 38 38 38 38 36 25 27
8 0 0 0 0 0 0 0 12 37 37 37 36 35 30 28
0 0 0 0 0 0 0 0 0 0 0 0 0 0 0 0
0 0 9 29 27 15 0 0 0 0 14 29 28 36 17 3
22 8 0 0 0 2 27 39 32 31 31 31 37 105 102 98
116 130 138 139 139 138 139 135 119 111 105 123 139 137 126 109
96 92 101 137 137 137 137 136 136 131 120 110 96 77 66 57
36 22 7 4 4 4 3 3 4 4 8 27 33 35 36 35
36 37 35 36 36 37 38 39 39 39 39 38 36 23 3 1
8 8 0 0 0 0 0 0 9 36 36 37 37 35 29 26
0 0 0 0 0 0 0 0 0 0 0 0 0 0 0 0
0 0 7 27 26 16 0 0 0 0 15 28 29 36 17 2
21 9 0 0 0 0 23 39 32 31 31 32 33 82 107 95
111 122 135 139 138 137 138 128 119 111 102 127 139 138 134 114
100 95 91 123 137 136 137 136 136 129 120 108 94 76 69 59
38 22 7 4 4 3 3 3 3 4 6 26 33 35 36 36
37 38 38 38 37 34 32 30 29 26 25 25 16 2 0 0
5 6 0 0 0 0 0 0 3 31 36 36 36 35 29 26
0 0 0 0 0 0 0 0 0 0 0 0 0 0 0 0
0 0 6 27 26 17 0 0 0 0 16 28 28 36 16 2
20 9 0 0 0 0 21 38 32 30 31 31 32 57 105 94
107 118 127 135 138 138 137 127 122 114 104 128 139 138 136 114
99 93 89 101 136 137 137 137 135 128 117 106 93 76 69 60
37 23 9 6 5 4 4 3 5 5 10 27 33 32 33 35
36 36 37 36 27 9 7 57 28 1 1 3 0 0 0 6
0 0 0 0 0 0 0 0 0 24 36 36 35 34 30 27
0 0 0 0 0 0 0 0 0 0 0 0 0 0 0 0
0 0 5 26 25 18 1 0 0 0 12 28 29 36 17 2
19 13 0 0 0 0 20 37 32 31 31 31 32 37 95 99
102 114 122 130 134 138 132 122 121 114 101 117 132 132 122 100
89 93 88 94 130 137 137 136 135 129 116 105 92 77 71 64
40 28 21 18 15 14 13 7 4 10 17 27 30 31 32 34
36 36 36 35 19 0 49 134 110 13 4 22 1 0 1 14
0 0 0 0 0 0 0 0 0 6 21 21 28 34 30 26
0 0 0 0 0 0 0 0 0 0 0 0 0 0 0 0
0 0 4 26 26 20 3 0 4 2 11 29 30 37 22 4
18 15 3 2 2 1 19 37 32 30 31 31 31 32 76 108
94 112 119 127 133 136 128 119 120 115 99 104 115 113 104 78
37 65 86 99 129 137 137 137 136 126 113 102 89 76 73 64
41 31 30 27 23 22 20 11 3 14 21 26 28 29 31 33
34 34 24 21 9 1 59 103 99 23 12 25 17 12 16 23
11 8 7 6 5 5 4 4 4 3 4 5 22 35 31 27
0 0 0 0 0 0 0 0 0 0 0 0 0 0 0 0
0 0 4 25 26 21 4 0 9 11 14 31 31 38 28 11
17 14 5 8 3 0 17 36 31 30 31 31 31 31 46 91
83 105 117 121 129 132 125 121 122 121 96 65 77 90 85 78
68 64 95 119 136 137 137 137 132 123 112 100 87 76 72 63
41 32 31 29 25 24 23 14 1 15 22 25 28 28 31 33
35 34 15 14 14 14 18 21 22 24 25 28 30 29 29 28
26 23 20 17 15 14 13 12 10 9 9 10 25 39 36 31
0 0 0 0 0 0 0 0 0 0 0 0 0 0 0 0
0 0 4 25 26 24 22 21 27 29 30 37 34 38 26 16
17 17 11 13 10 7 18 32 31 31 30 31 32 31 32 36
59 96 112 117 125 131 127 121 122 124 108 61 64 97 102 110
101 106 116 131 137 137 138 135 126 119 110 94 84 76 72 65
39 31 31 30 27 25 24 15 1 15 23 26 27 29 30 33
35 34 14 11 11 12 13 13 15 16 18 20 22 19 18 17
13 9 7 4 3 10 34 36 38 39 40 43 48 50 46 41
0 0 0 0 0 0 0 0 0 0 0 0 0 0 0 0
0 0 3 25 26 27 41 45 45 46 47 46 38 37 21 15
19 25 23 22 21 21 23 27 29 30 31 31 31 32 32 32
45 84 105 111 121 131 133 127 129 128 125 112 105 125 136 130
117 114 111 118 131 135 136 132 126 116 107 91 81 78 71 62
37 31 32 31 27 26 25 16 2 15 22 25 27 29 31 33
35 36 24 6 0 0 0 0 0 0 0 0 0 0 0 0
0 0 0 0 0 22 58 58 59 58 57 56 54 51 47 42
0 0 0 0 0 0 0 0 0 0 0 0 0 0 0 0
0 0 4 24 25 28 44 49 49 49 48 46 39 37 16 8
18 28 26 26 26 26 26 28 30 31 31 32 32 32 32 32
37 72 100 110 118 130 134 137 140 137 131 115 106 123 127 123
118 111 107 111 111 119 126 119 122 114 104 85 80 75 72 59
35 32 33 31 29 28 25 17 4 15 23 26 27 29 31 33
35 36 24 1 0 0 0 0 0 0 0 0 0 0 0 0
0 0 0 0 0 36 55 56 56 55 53 48 49 46 42 39
0 0 0 0 0 0 0 0 0 0 0 0 0 0 0 0
0 0 3 24 25 24 30 31 30 29 29 28 29 35 15 3
16 29 29 30 29 30 29 29 30 30 31 31 31 31 31 31
33 63 89 107 115 125 130 137 140 135 124 108 108 119 121 121
125 120 119 115 108 113 114 115 117 112 101 85 80 76 69 54
32 32 32 31 30 29 27 19 4 14 24 26 27 28 30 32
34 35 16 0 0 0 0 0 0 0 0 0 0 0 0 0
0 0 0 0 3 35 41 41 48 42 40 32 35 34 30 33
0 0 0 0 0 0 0 0 0 0 0 0 0 0 0 0
0 0 3 23 24 21 18 17 18 17 17 16 23 35 15 1
14 29 28 29 29 29 30 30 30 30 30 30 31 31 31 31
31 52 81 98 110 120 126 133 134 125 114 104 117 127 124 126
137 132 126 121 116 112 116 115 112 111 99 83 77 71 66 45
26 27 26 29 29 28 27 20 3 13 24 25 26 27 29 31
33 33 11 0 0 0 0 0 0 0 0 0 0 0 0 0
0 0 0 0 1 8 7 7 33 35 31 27 26 27 26 30
0 0 0 0 0 0 0 0 0 0 0 0 0 0 0 0
0 0 3 24 25 21 19 18 18 18 17 16 23 35 23 15
23 30 28 30 30 29 29 29 29 29 29 29 29 30 29 30
30 41 76 89 105 114 122 126 120 113 109 113 126 137 138 138
123 103 98 98 99 98 97 109 112 109 98 81 74 64 59 31
19 18 16 22 27 27 26 20 4 12 24 26 27 27 27 29
31 27 3 0 0 0 0 0 0 0 0 0 0 0 0 0
0 0 0 0 0 0 0 0 19 37 36 33 33 32 31 31
0 0 0 0 0 0 0 0 0 0 0 0 0 0 0 0
0 0 7 26 25 22 22 22 22 21 20 18 25 37 33 34
37 31 27 28 28 28 28 28 29 28 29 29 29 30 29 30
30 33 68 84 96 108 116 120 111 110 115 119 112 102 109 106
79 66 70 71 70 78 96 116 114 106 96 78 71 64 49 19
16 13 12 19 25 25 24 20 4 11 23 26 27 27 28 29
30 18 0 0 0 0 0 0 0 0 0 0 0 0 0 0
0 0 0 0 0 0 0 0 10 35 35 34 33 32 32 31
0 0 1 1 2 2 3 4 5 6 7 8 9 10 11 12
14 14 18 25 24 22 23 22 23 22 21 17 22 29 28 30
32 27 27 28 28 28 28 28 28 28 28 28 28 28 29 28
28 28 56 84 92 103 109 114 112 112 113 108 83 72 69 70
77 89 106 108 105 104 110 118 113 104 90 73 66 60 36 13
13 13 11 16 23 24 24 20 4 9 23 25 26 27 26 27
26 6 0 0 0 0 0 0 0 0 0 0 0 0 0 0
0 0 0 0 0 0 0 0 4 30 32 31 31 30 29 29
13 13 15 16 17 17 18 18 19 20 20 20 21 21 21 21
21 21 21 21 21 21 22 22 22 22 22 19 20 23 22 22
24 24 26 27 27 27 27 27 27 27 27 28 28 28 28 28
27 27 40 76 89 97 105 111 116 110 88 67 69 88 103 110
114 118 117 112 108 105 104 110 109 100 83 69 63 51 36 10
11 11 8 13 20 22 22 18 4 8 22 25 25 26 25 26
22 2 0 0 0 0 0 0 0 3 0 0 0 0 0 0
0 0 0 11 1 0 0 0 0 23 25 20 21 22 20 20
20 17 20 22 22 21 21 21 21 21 21 21 20 21 21 22
21 21 21 21 21 22 23 23 23 22 22 20 21 23 22 22
24 25 26 27 28 27 27 27 27 26 27 27 27 27 27 27
27 27 29 61 81 91 101 107 114 108 93 89 98 105 118 125
121 114 109 106 103 101 106 108 102 95 77 67 58 47 39 9
11 10 7 10 16 21 21 19 5 7 22 24 25 25 25 24
13 0 0 0 0 0 0 0 0 0 0 0 0 0 0 0
0 0 2 23 0 0 0 0 0 17 22 20 21 19 16 19
20 16 20 20 21 21 21 21 22 28 28 15 10 12 16 17
10 14 19 19 19 21 23 23 23 23 22 21 22 24 24 23
25 25 26 27 27 27 27 27 27 27 26 27 27 27 27 27
27 27 28 39 71 83 96 107 109 117 113 106 105 105 107 101
93 81 85 93 103 108 108 101 98 92 77 65 52 53 41 13
12 12 9 10 13 19 21 19 5 6 21 24 25 25 25 24
9 0 0 0 0 0 0 0 0 0 0 0 0 0 0 0
0 0 12 27 0 0 0 0 0 11 25 26 28 26 24 26
16 15 15 15 15 16 15 18 35 47 30 3 0 0 1 1
0 1 10 15 15 15 13 12 13 17 22 21 22 23 24 23
24 25 25 26 26 27 26 26 27 26 26 26 27 26 26 26
23 23 26 29 56 72 86 101 107 115 114 104 100 97 92 86
92 99 108 113 114 111 104 99 99 96 73 57 49 59 38 15
15 12 10 8 9 18 21 19 9 9 22 25 25 25 25 25
4 0 0 0 0 0 0 6 0 0 0 0 0 0 0 0
0 0 15 19 0 0 0 0 0 5 27 30 29 29 29 28
2 1 1 1 2 5 8 29 54 40 8 0 0 0 0 0
0 0 0 1 1 0 0 0 0 3 17 23 23 23 25 25
24 25 25 26 26 26 26 26 26 25 26 26 26 24 24 25
22 19 22 26 42 62 72 88 101 110 114 111 108 109 111 111
110 108 116 120 118 113 105 107 103 88 65 48 56 62 34 5
18 15 10 7 8 16 20 19 17 17 22 25 24 24 26 28
1 0 0 0 0 0 1 14 0 0 0 0 0 0 0 0
0 0 5 4 0 0 0 0 0 0 14 23 25 25 25 27
0 0 0 0 0 9 18 46 49 16 0 0 0 0 0 0
0 0 0 0 0 0 0 0 0 0 10 23 24 23 25 25
24 24 25 26 26 26 26 26 26 27 26 26 26 22 19 22
25 21 19 26 44 57 63 72 88 102 109 109 111 114 116 113
111 112 115 120 123 117 114 109 97 78 56 50 65 65 41 4
11 22 25 23 19 21 22 21 21 22 22 23 23 24 24 14
0 0 0 0 0 0 0 1 0 0 0 0 0 0 0 0
0 0 0 0 0 0 0 0 0 0 3 12 18 16 19 26
0 0 1 0 0 7 30 47 27 2 0 0 0 0 0 0
0 0 0 0 0 0 0 0 0 0 9 24 24 24 25 24
25 24 25 25 26 26 25 25 25 25 26 25 24 19 16 21
25 24 24 33 37 67 53 62 75 89 102 106 107 113 118 117
113 115 117 120 124 120 115 105 89 66 47 63 68 66 40 10
9 24 37 42 40 36 33 28 23 18 16 14 14 14 13 4
0 0 0 0 0 0 0 0 0 0 0 0 0 0 0 0
0 0 0 0 0 0 0 0 0 0 8 11 20 20 21 26
0 1 5 4 1 8 42 39 6 0 2 4 0 0 0 0
0 0 0 0 0 0 0 0 0 3 18 25 25 24 24 24
25 24 24 25 25 25 25 25 25 26 25 23 21 18 18 18
26 32 32 32 25 75 63 57 63 81 96 105 110 112 122 120
117 116 118 119 119 112 103 96 76 53 59 74 70 67 36 13
13 22 29 35 40 27 20 15 8 4 3 2 2 1 0 0
0 0 0 0 0 0 0 0 0 0 0 0 0 0 0 0
0 0 0 0 0 0 0 0 0 0 13 18 21 28 28 28
2 6 10 9 1 12 46 31 6 14 22 21 2 0 0 0
0 0 0 0 0 0 0 0 0 12 21 22 22 22 23 24
25 24 25 25 25 25 25 25 25 24 23 22 20 20 20 18
23 32 37 32 24 73 83 64 59 64 84 99 104 105 114 119
117 115 116 120 112 102 90 84 64 51 72 73 71 65 32 9
17 22 27 21 25 6 1 0 0 0 0 0 0 0 0 0
0 0 0 0 0 0 0 0 0 0 0 0 0 0 0 0
0 0 0 0 1 0 0 0 0 0 7 13 12 27 29 28
14 13 11 7 0 18 43 17 11 29 30 26 8 0 6 10
1 0 0 0 0 0 0 0 0 1 4 4 5 9 21 23
24 23 24 24 24 24 25 24 24 23 21 21 22 20 18 19
21 25 35 31 29 66 90 84 65 57 65 83 94 100 107 112
113 110 112 111 105 86 78 68 51 69 73 78 74 66 29 2
17 22 29 20 24 10 4 2 0 0 0 0 0 0 0 0
0 0 0 0 0 0 0 0 0 0 0 0 0 0 0 0
0 0 0 0 0 0 0 0 0 0 0 0 2 23 29 29
20 12 6 2 0 26 40 7 7 31 30 27 8 3 22 25
16 3 0 1 0 0 0 0 0 0 0 0 0 1 17 23
23 23 23 22 23 23 24 24 24 22 20 20 23 20 18 20
20 32 36 33 33 57 90 91 82 65 53 61 81 86 96 103
107 106 104 99 86 73 63 53 70 79 79 80 76 65 31 2
19 24 28 18 23 24 17 14 4 0 0 0 0 0 0 0
0 0 0 0 0 0 0 0 0 0 0 0 0 0 0 0
0 0 0 0 0 0 0 0 0 0 0 0 0 13 27 27
16 3 0 0 0 31 41 6 9 27 18 22 13 17 32 29
20 6 0 1 0 0 0 0 0 0 0 0 0 0 14 22
21 21 21 21 21 21 22 22 23 21 21 22 25 23 20 16
18 38 36 35 36 47 92 96 92 91 72 52 58 72 79 91
100 94 85 76 60 53 48 72 77 84 82 81 78 66 29 6
22 25 31 16 2 4 2 1 0 0 0 0 0 0 0 3
14 10 0 0 0 0 0 0 0 0 0 0 0 0 0 0
0 0 0 0 0 0 0 0 0 0 0 0 0 4 21 21
14 2 0 0 0 34 42 8 7 13 1 13 21 29 36 26
19 11 0 1 0 0 0 0 0 0 0 0 0 0 12 20
20 20 21 20 20 21 21 22 22 20 20 24 25 25 25 22
30 41 36 34 47 41 92 99 99 95 89 88 67 52 55 61
68 64 56 47 49 62 75 77 79 86 87 84 77 66 24 12
23 28 31 30 21 16 8 2 0 0 0 0 0 0 0 12
27 17 1 0 0 0 0 0 0 0 0 0 0 0 0 0
0 0 0 0 0 0 0 0 0 0 0 0 0 1 18 21
13 5 2 0 1 36 47 16 10 7 0 16 29 38 32 11
13 12 0 0 0 0 0 0 0 0 0 0 0 0 7 21
23 22 21 20 20 19 19 22 23 23 23 25 25 25 28 30
40 40 37 32 53 41 91 101 103 101 98 94 93 88 65 41
31 28 38 59 74 77 80 77 81 87 88 85 78 66 18 23
27 35 33 29 25 23 24 22 17 21 26 22 10 0 0 2
4 1 0 0 0 0 1 3 0 0 0 0 2 0 0 0
0 0 0 0 0 0 0 0 0 0 0 0 0 1 15 20
16 12 11 0 1 31 48 27 14 3 1 19 33 38 20 0
9 13 0 0 0 0 0 0 0 0 0 0 0 0 4 26
31 32 25 21 22 26 34 37 35 32 30 29 26 27 31 34
38 39 39 34 56 41 90 102 107 105 101 98 96 96 99 97
85 77 79 80 79 79 79 82 89 92 90 88 80 58 21 31
36 41 36 28 23 24 24 28 35 43 46 47 47 36 18 6
1 0 0 0 0 0 1 6 0 0 0 2 5 0 0 0
0 0 0 0 0 0 0 0 0 0 0 0 0 2 13 19
20 16 13 1 0 26 41 34 14 0 1 21 34 25 6 0
7 9 0 0 0 0 0 0 0 0 0 0 0 0 5 34
41 43 38 39 39 39 40 42 44 44 42 36 24 23 26 35
39 40 42 40 58 50 85 103 106 108 107 105 105 102 104 110
115 116 112 105 98 91 89 93 94 95 95 92 83 46 42 40
44 43 35 27 18 13 19 28 41 47 45 44 47 46 47 45
41 29 15 3 0 0 1 5 0 0 0 2 7 1 0 0
0 0 0 0 0 0 0 0 0 0 0 0 0 3 10 18
21 16 15 2 0 22 40 38 14 0 1 14 15 3 0 0
0 0 0 0 0 0 0 0 0 0 0 0 0 3 13 38
44 44 42 43 41 39 41 43 48 49 48 41 33 23 29 36
37 39 44 48 57 65 74 103 109 111 115 116 115 113 109 110
113 114 116 112 110 108 110 110 109 110 105 99 88 46 66 41
48 43 37 27 24 15 14 25 44 47 44 46 44 47 47 49
48 49 48 44 35 25 16 8 0 0 0 1 7 2 0 0
0 0 0 0 0 0 0 0 0 0 0 0 0 5 10 18
24 18 14 2 0 8 18 15 4 0 0 0 0 0 0 0
0 0 0 0 0 0 0 0 0 0 2 19 31 41 41 42
41 43 46 46 41 39 42 46 50 51 47 43 36 25 25 37
35 38 42 54 55 92 61 102 109 115 120 123 121 118 115 114
113 110 109 109 114 117 120 122 121 119 113 106 81 78 71 45
50 44 37 29 30 22 22 26 42 46 41 39 45 45 44 53
47 57 48 48 51 48 48 41 35 23 6 1 6 2 0 0
0 0 0 0 0 0 0 0 0 0 0 0 0 5 9 20
7 3 0 0 0 0 0 0 0 0 0 0 0 0 0 0
0 0 0 0 0 0 0 0 0 11 37 44 44 45 44 43
43 45 44 43 36 36 44 49 48 46 44 41 32 24 27 36
34 38 39 52 54 95 73 92 112 120 123 125 125 122 118 116
116 115 112 115 119 122 126 129 126 121 118 108 80 109 64 45
47 43 36 29 28 25 22 25 46 50 47 42 42 43 44 46
48 46 47 44 45 44 44 43 43 44 45 31 11 1 0 0
0 0 0 0 0 0 0 0 0 0 0 0 0 3 8 19
0 0 0 0 0 0 0 0 1 0 0 1 0 1 0 0
2 0 0 0 0 0 0 3 26 43 49 47 47 44 43 44
44 45 46 44 36 36 45 47 45 45 45 40 32 31 34 37
33 38 38 48 50 82 99 72 111 121 124 125 125 124 123 120
119 120 120 122 125 128 129 130 128 123 120 99 100 115 53 43
47 41 36 29 24 27 28 29 43 46 42 45 45 42 45 45
46 45 47 45 47 45 44 43 46 45 46 48 45 21 1 0
0 0 0 0 0 0 0 0 0 0 0 0 0 2 7 18
0 0 0 0 0 0 3 16 16 10 5 12 13 12 3 6
6 0 0 0 0 0 4 41 48 48 46 44 45 43 42 44
43 44 45 44 38 34 44 48 47 48 46 42 34 36 36 36
32 37 38 45 50 67 118 77 102 122 124 125 127 128 125 122
123 125 124 124 125 127 130 130 129 124 118 85 118 87 46 48
44 40 34 27 18 24 35 39 46 43 37 42 42 42 45 45
45 43 47 44 44 42 39 41 42 42 42 42 45 42 27 1
0 0 0 0 0 0 0 0 0 0 0 0 0 2 8 16
0 0 0 0 0 0 2 18 19 25 27 22 24 20 14 16
5 0 0 0 0 2 37 46 45 44 45 45 45 43 42 44
42 43 47 45 39 32 40 47 48 45 48 42 33 33 36 36
31 36 40 46 52 58 114 103 85 120 124 126 129 130 128 125
124 124 126 125 126 129 132 132 128 126 104 88 117 60 43 44
38 40 33 26 11 17 40 49 48 40 36 43 41 44 44 42
42 44 42 43 43 42 40 43 40 41 43 40 41 36 26 26
0 0 0 0 0 0 0 0 0 0 0 0 0 2 12 16
0 0 0 0 0 0 0 8 19 31 35 29 31 30 27 15
0 0 0 0 0 26 47 45 43 41 44 45 45 44 44 42
43 45 47 46 40 32 41 44 46 45 45 44 34 32 37 38
31 34 39 44 53 58 103 122 86 111 124 127 130 132 129 127
125 125 127 128 129 129 131 132 131 119 81 105 115 52 48 47
38 36 32 28 8 10 40 43 42 37 39 45 39 45 42 40
40 44 44 43 43 45 45 45 45 44 44 39 42 35 22 34
17 0 0 0 0 0 0 0 0 0 0 0 0 3 15 18
0 0 0 0 0 0 0 1 15 22 31 36 34 34 21 3
0 0 0 0 8 42 44 42 41 40 44 46 48 47 47 45
45 47 46 44 42 32 40 42 45 46 46 46 37 29 40 44
34 36 38 47 49 53 85 132 104 87 124 127 130 132 131 131
128 126 128 126 128 130 133 134 130 97 67 112 116 29 8 37
43 34 31 27 13 12 40 43 41 37 38 45 42 44 46 40
37 41 43 40 39 43 43 46 44 44 42 39 40 34 20 36
34 1 0 0 0 0 0 0 0 0 0 0 0 5 16 16
0 0 0 0 0 0 0 0 3 11 22 28 25 16 3 0
0 0 0 1 29 43 35 40 39 39 44 47 47 44 47 47
49 48 47 45 44 34 40 41 40 48 46 46 38 29 38 46
38 39 39 47 53 57 71 135 123 87 113 132 134 135 134 132
130 128 130 130 132 134 136 135 123 88 88 120 85 3 0 5
43 36 31 29 17 20 42 41 41 38 36 44 43 44 44 40
37 42 45 39 37 42 45 46 46 44 43 41 42 34 21 32
39 12 0 0 0 0 0 0 0 0 0 0 0 4 13 12
0 0 0 0 0 0 0 0 0 1 7 9 9 1 0 2
1 0 0 17 39 44 37 38 39 35 43 48 47 45 47 49
49 47 46 46 44 36 38 39 39 49 45 45 42 32 37 48
41 37 38 46 56 52 57 133 132 107 91 130 136 137 137 135
135 134 135 136 137 138 138 130 108 96 103 122 30 0 0 0
33 38 30 30 20 25 41 41 41 38 34 42 44 42 41 37
38 43 44 38 37 42 47 45 45 44 42 40 42 34 23 34
37 27 0 0 0 0 0 0 0 0 0 0 0 5 16 14
0 0 0 0 0 0 0 0 0 2 5 5 3 0 2 6
1 0 7 31 38 41 37 39 42 35 41 47 47 47 49 50
49 48 47 48 47 39 37 36 41 49 45 43 42 34 38 47
40 39 39 47 59 17 36 133 132 112 86 116 138 137 137 137
139 137 138 138 139 139 134 112 101 105 127 89 2 0 0 0
35 39 30 31 23 28 41 41 39 37 36 40 42 43 38 36
37 42 41 38 37 42 43 44 43 42 40 42 44 33 22 38
39 32 12 0 0 0 0 0 0 0 0 0 0 5 17 14
0 0 0 0 0 0 0 0 3 8 7 7 7 15 9 0
0 2 30 31 39 41 34 37 43 35 41 46 49 50 50 50
52 51 48 49 50 46 38 36 40 49 45 43 42 36 39 48
42 39 38 45 58 8 20 134 129 115 110 100 137 138 138 138
138 137 138 138 137 127 97 65 114 129 116 30 3 1 0 0
39 38 29 30 25 32 39 40 39 37 35 37 42 41 36 33
34 42 40 41 39 42 43 44 44 43 43 43 44 32 24 39
40 31 22 14 0 0 0 0 0 0 0 0 0 4 15 11
3 1 0 0 0 0 0 0 3 8 7 7 17 34 22 0
0 25 38 31 40 39 31 37 45 33 37 44 47 48 50 51
51 51 48 50 52 49 42 32 36 48 44 41 43 37 43 48
43 46 34 42 56 12 11 127 135 114 124 99 123 141 140 139
138 139 139 133 115 72 53 79 130 120 49 15 10 12 0 0
40 41 33 36 35 39 41 40 39 39 38 36 39 40 34 33
37 40 40 38 36 40 43 43 43 41 39 42 40 31 27 39
40 30 25 36 11 0 0 0 0 0 0 0 0 3 14 10
2 3 1 0 0 0 0 0 3 10 8 10 25 37 23 1
18 43 38 36 41 41 30 35 46 35 38 42 46 50 49 49
48 47 47 49 48 49 41 29 35 47 46 42 44 36 44 49
42 46 40 44 54 14 3 109 142 120 125 112 93 135 140 137
139 137 127 102 64 54 56 98 113 45 19 10 14 19 5 3
39 47 35 45 43 41 43 40 40 40 42 40 37 40 35 35
39 41 40 37 35 38 41 42 39 40 39 41 43 32 28 38
38 35 35 48 60 5 0 0 0 0 0 0 0 0 2 3
1 2 4 1 0 0 0 0 3 12 13 22 39 47 39 27
44 47 38 37 42 41 30 32 44 37 39 41 46 50 53 52
52 52 50 49 48 52 41 27 34 46 47 41 45 36 46 47
43 49 47 47 53 9 4 80 143 135 131 114 69 95 133 137
134 123 96 54 34 24 37 45 34 22 18 10 24 29 24 15
26 55 49 42 45 42 45 43 39 41 41 43 39 42 34 37
42 43 40 39 36 39 43 44 42 39 40 45 44 34 29 40
42 42 39 49 117 91 3 0 0 0 0 0 0 0 0 0
0 1 4 3 0 0 0 0 0 6 15 28 42 50 49 57
49 44 40 38 41 42 28 30 44 37 39 40 45 48 50 48
48 44 46 48 46 50 41 32 33 44 47 42 45 40 45 42
43 47 50 53 43 6 22 45 124 139 139 121 67 56 80 106
113 104 47 30 24 25 33 34 28 24 21 24 41 34 39 32
23 39 55 52 53 46 44 43 40 41 42 45 42 41 37 41
45 41 38 40 41 42 44 43 39 38 41 43 43 32 30 41
46 43 46 90 137 130 44 0 0 0 0 0 0 0 0 0
2 0 1 1 2 0 0 0 0 0 8 26 39 48 62 112
54 45 45 37 39 42 30 33 48 41 41 40 44 47 49 48
48 43 46 48 46 51 42 32 31 45 46 42 46 43 42 43
44 50 54 53 31 28 30 29 53 110 135 132 80 51 50 61
78 79 38 34 41 43 46 39 29 32 36 38 42 36 39 40
39 33 42 55 57 55 50 41 43 44 46 47 44 42 41 41
45 42 40 42 41 41 44 42 38 38 42 41 41 32 32 44
43 47 64 131 138 130 114 9 0 0 0 0 0 0 0 0
5 1 0 0 1 0 0 0 0 0 0 13 27 44 110 142
83 48 46 41 37 42 33 33 47 40 41 39 46 48 49 49
49 44 46 48 48 52 47 33 33 46 48 42 47 54 52 49
50 48 44 39 44 44 36 30 30 37 55 65 27 17 25 39
49 57 36 38 41 48 49 37 28 41 43 42 45 40 41 42
43 42 42 39 39 42 37 36 42 45 48 48 45 43 42 44
43 41 40 42 41 44 44 42 40 39 42 46 44 34 32 43
50 60 120 139 136 128 136 63 0 0 0 0 0 0 0 0
8 4 1 0 1 0 0 0 1 5 6 17 28 72 142 144
129 54 44 47 39 41 33 31 46 40 40 41 47 48 49 50
49 46 48 48 49 51 45 35 34 44 49 43 45 47 42 34
34 38 42 44 47 47 48 45 41 40 37 42 24 28 31 30
44 47 36 42 48 51 48 36 32 44 44 46 47 43 44 44
46 46 45 44 41 42 40 40 41 44 46 44 40 44 45 43
41 39 40 42 43 46 45 42 39 42 45 47 45 34 33 44
56 112 139 138 134 131 138 125 17 0 0 0 0 0 0 0
6 3 0 0 1 0 0 0 2 11 15 31 52 126 145 144
143 92 45 42 42 41 36 31 45 43 39 40 44 48 49 50
48 46 48 50 49 52 48 38 34 41 50 45 46 47 46 44
44 44 46 48 51 49 49 49 46 47 43 44 35 43 34 35
73 53 39 45 51 53 44 33 44 49 45 45 46 43 44 46
47 47 46 45 42 43 44 41 44 47 49 45 43 46 47 46
43 39 42 44 44 47 48 46 44 44 44 47 45 35 34 54
100 139 138 137 134 136 137 136 80 0 0 0 0 3 13 6
4 1 0 0 0 0 0 0 0 6 13 34 93 144 144 143
143 130 55 42 45 42 37 40 67 59 46 42 45 47 50 49
48 46 48 49 49 52 49 39 34 40 51 47 45 50 53 52
49 47 47 46 47 50 50 51 50 47 44 43 41 39 34 44
133 125 94 76 74 71 44 34 50 47 59 87 102 96 85 71
56 47 44 44 44 45 47 47 48 48 46 46 48 58 55 47
44 40 40 43 44 45 46 45 44 43 47 58 56 37 42 81
138 138 137 137 136 137 137 137 124 17 0 0 0 2 12 7
0 0 0 0 0 0 0 0 0 7 15 49 134 144 144 144
142 142 91 45 43 43 35 85 143 140 128 108 93 85 80 75
68 56 53 57 68 79 71 47 35 39 50 53 50 51 51 50
50 47 46 45 46 47 48 50 49 47 45 44 47 36 33 74
143 140 141 140 140 137 105 88 100 121 137 139 139 139 139 139
134 118 93 61 46 44 47 47 48 49 68 104 130 138 135 126
111 92 77 65 55 54 58 65 78 99 122 134 135 91 59 132
138 137 137 136 136 136 135 135 133 73 0 0 0 0 0 0
0 0 0 0 0 0 0 0 0 4 16 85 144 143 143 143
142 143 132 57 41 43 38 95 144 142 142 142 142 142 142 141
141 137 134 134 140 141 141 128 75 40 44 48 47 46 48 50
52 56 64 63 55 50 49 51 50 50 54 59 77 56 34 105
141 139 141 140 139 139 138 139 139 139 139 139 138 138 138 137
137 137 138 135 120 95 80 81 88 118 136 137 137 137 137 136
136 136 135 135 133 132 133 135 135 134 134 134 133 114 98 134
133 133 132 131 132 131 131 130 128 124 53 3 0 0 0 0
