P2
128 120
135
0 7 37 34 27 27 28 27 27 27 26 27 26 26 26 26
25 25 25 25 24 24 24 24 24 23 23 23 22 22 22 22
21 21 21 21 20 20 20 20 20 19 19 18 19 18 17 17
17 18 19 21 21 21 20 15 15 16 16 21 21 20 20 19
19 19 17 17 16 14 16 18 19 19 20 19 20 20 20 21
21 21 22 22 21 21 22 22 22 23 23 24 24 24 25 25
25 25 26 26 26 26 27 27 28 28 28 29 28 28 29 30
30 29 29 29 29 29 29 29 29 29 30 30 30 30 31 31
0 7 37 34 27 27 27 27 27 26 26 26 26 26 27 26
26 26 25 25 25 25 24 23 23 23 22 23 22 22 22 22
22 22 21 21 21 21 21 20 20 19 19 18 18 18 18 17
18 18 19 21 22 22 20 15 15 17 16 21 21 21 20 19
19 19 18 18 17 15 18 18 19 19 20 20 20 20 20 21
21 21 22 21 22 23 23 23 23 23 23 24 24 25 25 25
26 25 26 26 27 26 27 27 28 28 28 28 28 28 28 29
29 29 29 28 29 30 30 30 30 30 31 31 30 30 31 30
0 7 36 33 26 27 27 27 27 27 27 26 26 26 26 26
26 26 25 25 24 24 24 24 24 23 24 23 23 23 22 22
21 21 21 21 21 21 20 20 20 20 20 20 19 18 18 18
18 18 20 22 22 22 20 15 15 19 16 21 22 21 21 20
20 20 19 18 17 15 18 18 20 20 20 20 21 21 21 22
22 21 22 22 22 23 22 22 23 23 24 25 25 25 25 25
26 26 27 27 27 27 28 28 28 27 27 27 28 28 28 29
30 30 30 28 29 29 30 30 30 30 30 30 31 31 31 31
0 8 37 33 27 27 28 27 27 27 27 26 26 26 26 26
26 26 25 25 25 25 24 24 24 23 23 23 23 22 22 22
23 22 22 21 21 21 21 21 21 20 20 20 19 19 19 18
18 19 20 22 22 22 21 16 16 20 16 21 21 21 21 20
20 20 19 19 19 16 19 19 21 21 21 21 21 21 21 21
22 22 22 22 23 23 24 24 24 25 25 25 25 25 25 26
26 27 27 27 27 27 27 27 28 28 28 29 29 30 29 29
30 30 31 31 30 30 30 30 31 30 31 31 31 31 31 31
0 8 36 32 27 27 27 27 27 27 27 26 27 27 27 26
26 25 25 26 25 25 25 24 24 24 24 24 24 23 23 23
23 22 22 22 21 21 22 21 21 21 20 20 20 20 19 19
19 20 21 22 23 23 22 17 17 21 17 22 22 22 22 21
21 20 19 20 19 16 19 20 21 21 21 22 22 23 23 23
23 22 23 23 23 24 24 24 24 24 25 25 25 26 25 26
26 27 27 27 28 28 29 28 29 29 29 29 30 29 30 29
30 30 31 31 30 30 30 31 30 30 30 31 31 31 31 31
2 15 36 32 27 27 27 27 27 27 26 26 26 26 26 26
26 26 25 25 25 24 25 24 24 24 24 23 23 23 23 22
23 22 22 23 22 22 22 21 21 20 20 20 20 20 19 19
19 19 21 22 23 23 22 17 17 22 17 22 22 22 22 21
19 19 19 19 18 16 19 19 21 21 21 21 22 22 22 22
23 22 23 23 24 24 24 24 24 25 25 24 25 25 25 26
26 26 27 28 28 28 28 29 29 29 29 29 30 29 30 30
30 30 30 31 29 30 30 30 30 30 30 30 30 31 31 31
18 23 35 31 27 27 27 27 27 26 26 26 26 26 26 26
25 25 25 25 25 25 25 24 24 24 23 24 24 23 23 23
22 23 22 22 22 22 21 21 21 21 20 20 20 20 19 19
19 20 21 23 24 23 22 16 17 22 17 20 23 22 22 21
20 21 20 20 19 16 19 20 21 21 22 22 23 23 23 22
23 23 23 23 24 23 23 23 24 24 25 25 25 26 25 26
27 27 28 29 28 28 28 29 29 29 29 29 29 29 29 29
29 29 30 30 30 30 30 30 30 29 30 30 30 31 31 31
27 28 30 28 27 27 27 27 27 26 26 26 25 25 25 25
25 24 24 25 24 24 24 24 24 23 23 23 23 22 22 22
22 22 22 22 22 22 22 22 21 20 20 20 20 19 19 18
19 19 21 23 23 23 22 16 16 22 18 20 23 22 22 21
20 19 19 20 19 16 19 20 21 21 21 22 22 21 22 22
22 22 22 23 23 23 24 24 24 24 24 25 25 25 26 26
26 26 27 27 27 27 28 28 28 28 28 29 29 29 29 29
29 29 30 30 29 29 30 29 30 30 30 30 30 31 30 30
19 22 25 26 27 26 26 26 26 26 26 26 26 25 25 25
25 25 25 24 24 24 23 22 23 23 23 22 23 23 22 22
22 22 21 21 21 21 21 21 20 21 20 20 20 19 19 19
19 19 20 23 23 23 22 16 16 22 18 19 22 22 22 21
20 19 20 19 19 16 19 19 21 20 21 21 21 21 22 22
21 22 23 22 23 23 23 23 24 23 24 24 25 25 26 26
26 26 27 28 28 27 28 27 27 27 27 27 28 28 28 28
29 28 28 30 28 29 30 29 29 29 29 29 29 29 30 30
8 10 13 17 20 21 24 25 26 25 26 25 25 24 24 24
24 24 24 23 24 24 23 23 23 23 23 22 22 22 22 21
21 21 21 21 21 21 21 20 21 20 20 19 19 19 18 19
18 19 20 22 23 23 21 16 16 22 20 18 22 22 21 21
20 19 19 19 18 15 18 19 20 20 20 21 21 21 21 22
22 23 22 22 24 23 23 24 24 24 24 25 25 25 25 25
26 26 26 27 26 27 27 27 27 27 28 28 28 28 28 28
28 28 28 29 28 28 29 29 29 29 29 29 29 29 29 30
6 6 7 6 8 9 10 14 17 20 22 24 24 25 25 25
25 24 24 24 24 23 23 23 23 23 23 22 22 22 21 21
21 21 22 21 21 20 21 20 20 21 20 20 20 19 19 19
19 19 20 23 23 23 22 16 16 22 21 17 22 22 22 21
21 20 20 19 19 16 20 19 21 21 21 21 21 21 22 22
22 22 23 24 24 23 24 23 23 24 24 25 25 25 26 26
27 27 27 28 27 27 28 28 28 28 27 28 28 28 28 28
28 29 29 30 29 29 29 29 29 29 28 29 28 28 28 29
12 11 7 7 7 7 7 8 8 7 7 13 22 25 25 25
25 24 24 24 24 24 24 24 23 24 24 23 23 23 22 22
22 22 22 22 22 21 22 21 21 21 21 21 20 20 20 19
20 19 21 23 23 23 23 17 16 23 23 18 23 24 23 22
21 21 20 20 20 17 20 20 22 22 22 22 22 23 23 23
22 23 24 24 25 24 24 24 25 25 25 25 26 26 27 26
26 27 27 28 28 28 28 28 28 28 28 28 29 29 29 29
29 29 29 28 27 27 28 28 28 29 30 30 30 29 30 30
31 24 12 13 11 8 6 6 7 4 2 7 21 25 25 25
25 25 25 25 25 25 24 23 24 24 23 23 22 22 23 23
22 22 22 22 22 22 22 21 21 21 21 21 20 20 20 20
20 20 22 24 24 23 23 17 16 23 24 17 23 24 23 22
22 21 21 21 21 18 21 21 22 23 23 22 22 23 23 23
23 23 24 24 25 25 25 25 25 25 25 25 26 26 27 27
27 27 28 28 28 28 28 28 28 28 28 28 28 27 27 27
27 28 28 29 29 29 29 29 29 29 29 29 30 28 29 29
37 30 18 23 26 22 17 15 12 7 6 8 20 25 25 25
24 24 25 25 25 24 24 24 24 23 24 23 23 23 23 22
22 22 25 27 25 24 23 22 22 21 21 21 20 20 20 20
20 20 21 24 23 23 23 17 17 24 24 18 23 24 23 23
21 22 21 20 20 18 20 20 22 22 23 23 23 23 24 24
23 24 24 24 25 25 25 25 25 25 25 26 26 27 27 27
27 28 28 27 27 27 27 27 28 27 27 29 27 28 29 29
29 28 29 29 29 29 29 29 29 29 29 30 30 29 30 29
37 32 24 28 32 29 29 32 30 20 5 9 21 26 25 26
25 25 31 31 29 28 26 25 24 23 23 23 23 23 22 23
22 23 28 34 32 29 27 26 23 22 22 21 21 20 21 20
20 21 22 24 24 24 24 18 17 24 25 17 22 24 23 23
22 22 21 22 21 18 21 21 23 22 22 23 23 23 23 24
24 24 24 25 26 25 25 25 26 25 26 26 26 27 27 27
27 27 26 27 27 27 28 28 28 27 28 29 28 28 28 29
29 28 29 29 29 29 29 29 29 29 30 29 30 28 29 29
19 30 27 30 33 33 35 36 36 28 8 10 23 26 26 26
25 26 34 34 33 30 29 29 29 27 25 25 24 23 23 23
23 23 29 33 31 31 30 29 26 22 22 22 21 21 21 21
21 21 22 24 25 25 23 18 18 23 26 18 22 24 24 23
22 22 22 21 20 19 22 21 23 23 23 24 24 24 24 24
25 25 25 25 25 25 25 25 26 26 26 26 26 27 27 27
28 26 27 27 28 28 28 28 28 28 28 29 29 28 29 29
29 29 30 30 29 29 29 29 29 29 29 29 30 29 30 30
4 28 28 31 32 34 36 37 37 30 9 11 25 28 27 27
26 26 34 35 33 32 31 33 34 30 29 29 27 25 24 24
24 23 26 26 26 27 30 30 27 23 22 21 21 21 21 21
21 21 22 25 25 24 23 16 15 16 24 18 21 24 24 23
23 23 22 22 22 20 22 22 24 23 24 24 25 24 24 24
24 25 25 25 25 25 25 26 26 26 27 27 27 26 27 27
27 27 27 28 27 27 28 28 28 28 27 29 29 29 29 29
29 29 29 30 29 29 30 30 30 29 30 30 31 29 29 30
4 28 22 25 28 32 35 35 36 30 11 11 27 30 26 27
28 29 27 15 22 28 32 34 35 28 18 22 26 28 28 27
28 25 24 14 11 13 16 19 24 23 22 22 22 22 21 21
21 22 22 25 25 24 20 12 13 12 23 19 21 25 25 24
24 23 22 21 22 20 21 22 24 24 25 24 24 24 24 24
25 25 25 25 26 25 26 26 26 26 27 27 28 27 27 28
28 28 28 28 28 27 28 28 28 28 28 29 29 29 29 30
29 29 29 29 29 29 30 30 30 29 30 29 30 30 29 30
6 26 7 3 9 17 23 27 29 28 10 11 26 29 25 25
29 33 22 0 1 11 18 21 25 22 1 0 3 9 14 19
25 26 24 11 3 4 3 1 16 23 22 22 22 22 21 21
17 15 10 9 10 9 2 1 2 2 4 6 12 23 23 22
23 24 22 22 22 19 22 22 24 23 24 24 24 24 25 24
25 24 25 25 26 25 26 26 26 26 27 28 28 27 27 27
27 28 27 28 28 28 27 28 28 28 29 29 30 29 29 29
29 29 29 29 30 29 29 30 30 30 30 29 30 30 30 30
5 27 3 0 0 0 1 2 7 26 11 9 15 21 26 28
31 36 23 0 0 1 5 7 13 21 0 0 0 0 0 0
3 11 23 8 0 0 0 0 14 23 23 22 22 20 14 6
0 0 0 0 0 3 3 4 9 11 4 3 2 4 15 22
23 23 23 23 22 20 22 21 23 24 24 24 25 26 25 25
25 25 26 26 26 26 26 26 26 26 26 27 27 27 27 27
27 28 28 28 28 28 28 28 28 28 28 29 30 29 29 29
29 29 29 30 29 29 30 30 29 30 30 30 31 30 30 31
4 26 2 0 0 0 0 0 2 24 11 6 0 1 4 10
18 25 21 0 0 0 0 2 9 21 1 0 0 0 0 0
0 5 23 5 0 0 0 0 16 25 23 19 6 1 0 0
0 0 1 1 6 10 15 16 17 14 11 5 7 7 1 8
20 24 23 23 23 20 22 22 24 24 25 25 25 25 26 26
25 26 25 25 26 26 26 27 27 26 27 28 28 27 27 28
27 27 28 28 28 28 28 28 28 29 29 30 30 29 29 29
29 29 29 30 30 30 30 30 31 31 31 31 30 31 31 30
5 27 3 0 0 1 0 0 2 25 12 5 0 0 0 0
0 1 10 0 0 0 0 0 7 20 1 0 0 0 0 0
0 4 21 2 0 0 0 0 14 14 7 1 0 4 8 8
10 5 5 9 7 1 0 0 3 7 11 14 4 7 11 3
11 21 22 23 23 21 23 23 25 25 25 25 26 26 26 26
26 26 26 26 26 27 27 27 26 27 27 27 28 27 28 28
28 28 28 29 29 29 29 29 29 29 29 30 30 29 29 29
29 30 29 29 30 31 30 30 30 30 31 31 30 29 30 29
5 26 3 0 0 5 0 0 2 25 11 5 0 0 0 0
0 0 5 0 0 0 0 0 7 21 0 0 0 0 2 0
0 4 22 2 0 0 0 0 1 7 4 7 9 7 10 16
17 9 7 6 14 13 6 1 0 0 0 2 1 0 8 13
7 20 25 24 23 20 23 23 25 25 26 25 26 26 26 26
26 26 26 26 26 27 27 27 27 28 28 28 29 28 28 29
28 29 28 29 29 29 29 29 29 29 30 30 30 29 30 30
30 29 30 30 30 31 31 31 31 30 31 31 31 31 31 31
6 26 2 0 0 2 0 0 2 25 10 5 0 0 0 0
0 0 4 0 0 0 0 0 8 24 1 0 0 2 7 4
1 3 21 1 0 0 0 0 2 5 4 2 0 0 1 5
6 4 6 9 16 22 18 10 5 3 0 0 0 0 0 8
10 9 19 21 23 21 23 23 26 26 26 26 26 26 26 26
26 26 26 27 27 27 27 27 27 28 28 28 28 28 28 29
29 29 30 30 30 30 30 30 30 30 30 30 29 30 30 30
30 30 30 31 30 31 31 32 31 31 31 31 31 31 31 31
5 24 1 0 0 0 0 0 2 25 10 5 0 0 0 1
0 0 2 0 0 0 0 0 7 24 1 0 0 3 8 7
5 2 21 2 0 0 0 0 1 0 0 0 0 0 0 1
3 9 16 20 24 21 17 11 19 18 12 3 4 1 1 0
7 7 13 15 13 19 23 23 26 26 26 26 26 26 26 26
27 27 27 27 27 27 27 27 28 28 28 29 30 29 29 29
30 30 30 29 30 29 30 29 30 30 29 30 31 31 31 31
31 30 30 31 31 30 31 31 31 31 31 31 31 32 32 32
8 23 1 0 0 0 0 0 2 24 10 5 0 1 0 0
0 0 3 0 0 0 0 0 9 25 2 0 0 1 6 8
5 2 20 3 0 0 0 0 0 0 0 4 2 1 0 1
4 14 22 17 9 15 25 29 16 15 19 16 10 9 4 4
1 7 5 14 12 12 23 24 26 26 26 26 27 26 26 26
26 26 27 27 27 28 28 28 28 29 29 28 29 28 29 29
29 29 30 30 30 30 30 30 30 30 30 31 31 30 30 30
30 30 30 30 31 32 32 32 32 32 32 32 32 33 33 32
23 28 10 3 4 3 2 0 5 24 10 6 0 0 0 0
0 0 4 1 0 0 0 0 12 29 8 2 2 0 0 4
3 0 4 0 9 3 0 0 0 0 1 3 4 3 1 1
3 6 5 1 0 2 4 17 20 15 14 17 11 18 13 9
5 1 4 12 17 6 18 24 26 26 26 26 27 27 27 27
27 27 27 27 27 28 28 28 28 28 28 28 29 29 29 29
30 30 30 31 30 30 29 30 30 30 31 31 31 31 31 32
31 31 31 31 32 32 32 32 32 32 32 32 32 32 31 32
31 40 36 22 24 25 24 21 22 24 9 6 0 0 0 0
0 0 14 22 13 10 6 2 9 34 26 19 18 14 8 6
5 1 2 14 4 0 0 0 0 0 0 1 7 7 10 3
1 2 4 6 8 7 2 4 9 17 19 16 13 9 12 14
14 5 1 8 16 15 7 23 26 26 26 26 26 26 27 27
27 27 27 28 28 28 29 29 29 29 29 29 28 29 29 29
30 30 30 31 31 31 31 31 31 31 31 31 31 31 31 31
31 31 31 31 32 31 32 32 32 33 31 30 29 29 29 29
32 45 37 23 28 34 36 35 35 26 9 6 0 0 0 0
0 0 19 39 32 30 31 27 27 36 19 13 16 18 19 17
9 2 10 2 0 0 0 0 0 1 5 3 3 3 7 11
17 12 11 11 12 18 21 11 8 12 16 17 15 16 11 11
18 11 1 2 12 20 4 15 24 26 26 27 27 27 27 28
28 28 28 28 29 28 28 28 28 29 29 29 29 29 30 30
30 31 30 30 30 30 31 30 30 31 30 30 30 30 30 31
30 29 29 31 31 29 28 27 26 25 24 22 21 19 18 16
34 42 30 21 29 34 35 37 37 27 10 8 3 1 0 0
0 0 20 38 33 37 39 39 34 29 15 8 9 8 8 6
0 4 1 0 0 0 0 0 3 9 6 1 6 11 15 21
21 17 10 12 17 12 10 9 4 10 21 23 17 14 12 10
12 15 3 3 9 21 11 6 22 26 27 27 27 27 27 27
28 27 28 28 29 29 29 28 29 29 30 30 30 30 30 30
30 30 30 31 31 29 29 29 29 29 30 29 29 27 27 27
25 24 23 22 21 19 17 16 15 14 14 14 15 14 14 15
34 38 16 4 11 15 18 22 28 26 10 13 24 26 21 14
9 6 22 29 31 36 39 40 34 27 17 10 9 8 6 0
2 1 0 1 1 0 0 0 1 0 0 1 8 18 15 12
10 11 10 8 10 12 25 24 20 11 16 27 22 11 11 12
11 13 12 3 6 16 17 2 12 24 26 27 27 27 28 28
29 28 28 28 29 29 29 28 29 29 29 29 29 29 30 30
30 30 30 30 29 28 29 30 25 24 23 22 20 19 18 17
17 16 16 16 16 16 17 16 18 18 19 19 20 20 18 13
32 38 13 0 0 0 0 0 8 24 10 13 30 37 37 35
33 32 32 21 23 30 33 36 33 28 19 10 8 3 0 0
0 0 0 0 0 0 0 0 0 0 1 6 6 4 7 8
11 14 17 16 19 17 20 20 21 18 18 23 21 13 8 12
13 13 16 9 8 11 16 7 5 19 26 27 27 27 26 27
27 27 27 26 28 28 29 29 29 29 30 29 29 29 28 27
25 23 22 21 20 18 20 30 20 15 16 16 16 17 17 18
18 19 19 20 21 21 22 23 23 23 24 22 24 25 24 11
29 38 12 0 0 0 0 0 5 23 11 13 30 37 38 38
38 38 34 9 2 5 9 15 17 22 20 10 6 0 0 0
0 0 0 0 0 0 2 1 0 1 5 2 1 9 10 9
16 19 13 10 11 9 11 14 16 20 10 11 19 16 12 11
20 13 11 13 8 7 14 14 5 9 24 25 26 26 26 25
25 27 28 27 27 28 27 26 25 24 23 21 20 18 18 17
18 16 16 18 18 17 17 26 18 17 20 21 21 22 23 24
24 24 24 25 26 26 27 27 27 27 26 22 21 27 28 18
25 35 9 0 0 0 3 10 14 23 17 15 25 30 31 33
35 37 32 5 0 0 0 0 5 20 21 8 5 0 0 0
0 0 0 0 0 2 6 2 1 6 3 2 1 6 13 19
13 4 15 20 19 16 13 15 16 11 14 11 11 15 13 11
13 12 9 11 10 10 9 15 11 3 17 24 24 24 23 20
16 23 23 22 21 20 18 18 17 17 17 17 17 18 19 19
20 21 21 21 23 22 21 27 21 21 25 26 26 27 27 27
28 28 28 28 27 29 29 29 29 27 29 29 25 24 29 25
23 32 7 0 0 0 7 18 18 20 18 16 18 20 23 26
26 32 29 3 0 0 0 0 0 20 21 6 1 0 0 0
0 0 0 0 0 3 0 0 1 0 0 1 6 9 11 8
6 15 23 30 26 20 15 15 15 11 9 10 12 13 12 9
8 8 11 10 11 8 7 11 13 2 7 20 20 19 19 17
14 17 17 18 18 19 19 20 20 21 21 22 22 23 24 24
25 26 26 26 27 27 23 23 20 25 28 28 29 29 30 30
30 31 31 31 30 30 30 28 30 28 27 31 30 24 23 26
24 31 6 0 0 0 2 10 13 17 16 14 16 16 20 24
24 31 28 3 0 0 0 0 0 19 17 0 0 0 0 0
0 0 0 0 0 0 0 0 0 3 8 10 9 8 11 15
21 21 17 19 20 15 12 9 10 11 10 11 10 9 7 7
5 5 6 5 11 10 10 4 14 6 1 14 16 17 18 18
17 19 21 21 23 23 24 25 25 26 26 26 27 27 28 28
28 28 28 29 29 27 18 8 10 25 29 30 31 30 30 31
31 31 32 31 31 31 31 29 28 30 27 30 32 32 24 22
27 31 5 0 0 0 0 0 2 12 11 14 12 12 17 22
25 31 27 3 0 0 0 0 0 21 13 0 0 0 0 0
0 0 2 0 0 0 1 7 12 14 9 7 10 14 12 9
12 18 20 24 19 8 10 14 12 13 15 18 22 19 13 10
7 5 5 8 7 9 11 8 11 12 2 9 19 21 23 23
24 24 26 27 27 27 28 28 28 28 28 28 29 29 29 29
30 30 27 25 23 26 16 5 5 23 31 32 32 31 31 31
32 32 32 32 32 32 32 32 30 28 28 28 32 32 30 20
29 31 5 0 0 0 0 0 1 15 14 15 3 0 1 3
7 10 16 2 0 0 0 0 0 20 7 0 0 0 0 0
0 0 0 0 0 0 4 10 10 9 9 10 12 8 10 11
13 14 19 16 12 19 18 15 13 13 10 10 9 6 5 5
6 5 5 8 10 6 10 10 7 14 4 7 20 26 26 26
27 27 28 28 28 28 28 28 29 29 30 31 31 30 30 30
31 27 12 5 5 18 15 3 3 22 30 32 32 32 32 32
32 32 32 33 33 32 32 31 32 29 27 26 31 32 30 26
30 31 5 0 0 0 0 0 2 21 19 17 3 0 0 0
0 0 6 2 0 0 0 0 0 9 0 0 0 0 0 0
0 0 0 0 0 4 10 11 13 11 10 11 10 11 13 13
14 18 17 15 20 18 13 13 7 5 4 5 5 5 5 1
1 6 4 6 6 4 4 7 8 15 13 7 16 27 26 27
28 29 29 29 30 30 30 31 30 31 31 31 32 30 31 31
31 28 17 17 20 25 15 0 2 23 31 32 33 31 31 32
32 32 32 32 32 33 32 31 32 32 29 26 27 28 27 25
27 27 6 0 0 1 0 0 2 24 20 17 4 0 0 0
0 0 4 1 0 2 5 0 0 3 0 0 0 0 0 0
0 0 0 0 4 11 15 21 26 35 27 20 20 17 14 18
18 13 11 18 24 22 15 11 7 6 5 5 8 10 8 7
4 6 3 4 3 3 0 1 5 11 16 9 12 26 28 28
28 29 29 29 29 29 30 30 31 30 31 31 32 31 32 32
32 31 30 30 29 28 17 0 2 22 31 32 32 32 32 32
32 33 33 32 33 32 32 31 32 32 31 27 24 22 22 26
20 23 17 8 4 8 9 4 3 24 19 15 3 0 0 3
0 0 3 2 0 7 10 2 0 5 0 0 0 0 0 0
0 0 2 11 27 42 61 71 59 44 37 24 22 24 21 18
17 14 17 21 21 15 16 18 16 16 14 11 8 6 7 7
3 4 2 5 2 3 5 1 0 4 13 7 11 25 29 29
29 29 30 30 30 30 30 30 31 30 31 32 31 31 32 31
31 31 31 30 29 28 21 3 5 25 31 32 33 32 32 31
32 32 31 31 32 32 32 31 31 32 32 32 27 22 23 29
15 23 22 22 20 22 25 23 22 29 20 15 3 0 5 11
2 0 6 11 7 14 13 9 3 4 0 0 0 0 0 0
5 22 52 84 99 104 101 97 83 65 48 34 27 23 22 15
13 13 15 17 16 15 13 14 18 22 17 18 15 14 12 11
11 6 3 4 5 1 0 2 0 0 5 5 11 21 29 29
29 30 29 29 30 30 30 30 30 31 31 31 31 31 32 32
31 31 31 31 29 27 23 11 14 27 31 32 32 32 32 32
32 32 32 32 32 32 32 31 31 32 31 31 29 22 23 31
18 24 17 5 4 10 16 23 32 31 21 14 3 0 3 6
1 0 8 29 29 31 30 29 28 18 0 0 0 0 0 24
76 99 109 115 116 119 122 122 113 98 76 52 35 23 21 18
15 16 15 16 16 17 18 30 73 92 84 45 11 10 10 11
12 16 11 6 1 2 2 0 2 0 0 2 9 19 28 29
29 29 29 29 29 30 30 30 30 30 31 30 31 30 31 30
31 30 31 31 30 27 24 22 24 29 32 32 32 31 31 32
31 31 32 32 32 32 32 31 31 32 32 31 29 23 23 29
20 25 15 0 0 3 5 11 31 30 20 14 7 0 0 0
0 0 8 32 34 35 35 37 41 37 15 3 0 2 31 79
101 109 115 117 117 123 125 124 124 119 97 63 40 18 13 16
18 19 22 20 20 18 48 99 119 117 118 113 49 8 9 10
9 11 10 7 3 0 1 0 0 2 0 1 6 17 29 29
30 29 29 29 29 29 30 30 30 30 31 30 31 31 30 31
31 31 31 31 30 28 26 26 29 31 31 31 32 32 32 32
32 32 32 32 32 32 32 32 32 32 32 32 30 23 20 22
20 26 13 0 0 11 16 18 31 27 17 16 14 2 0 0
0 0 8 31 32 34 33 37 39 39 30 25 18 43 74 91
103 111 112 115 121 124 124 122 106 77 42 13 8 8 9 11
12 20 34 37 38 45 102 112 95 109 113 122 101 12 7 7
7 6 10 11 9 1 1 0 1 6 1 0 4 16 28 29
28 29 29 29 29 29 30 30 30 30 31 30 31 30 31 31
31 32 31 30 30 29 28 28 31 32 32 32 33 32 32 32
32 32 32 31 31 31 32 32 32 31 32 32 30 24 20 24
23 28 13 0 0 4 15 22 32 24 16 17 14 1 0 0
0 0 8 29 28 30 30 30 29 29 29 29 33 65 82 97
105 108 113 115 109 86 56 27 11 12 12 14 17 26 42 56
51 56 73 89 95 98 118 87 119 124 124 122 117 42 0 4
7 9 7 8 15 7 0 4 1 6 5 0 2 16 29 29
29 30 30 30 31 30 31 30 31 31 31 30 31 31 32 32
32 31 31 31 31 30 29 30 31 31 31 31 32 32 33 33
33 32 32 32 33 32 33 32 32 32 30 30 29 23 22 27
25 30 14 0 0 0 2 19 33 24 16 18 14 4 3 1
1 0 11 31 28 28 29 28 27 28 30 31 38 69 87 98
95 77 50 28 12 12 15 15 20 31 55 78 95 100 97 96
78 82 112 122 121 121 120 103 124 124 123 117 120 66 3 7
6 1 2 3 16 17 2 3 1 3 10 1 1 18 30 29
29 30 29 30 30 30 30 30 30 30 31 31 32 32 32 31
32 31 31 31 30 30 31 31 32 31 32 32 32 33 32 32
32 32 33 33 32 33 33 32 32 32 31 30 30 24 22 28
26 31 14 0 0 0 0 14 34 24 17 17 23 27 26 22
22 21 26 35 30 29 29 29 31 33 34 32 42 58 46 31
15 9 9 12 15 19 29 49 81 107 121 123 119 116 114 111
103 83 103 122 124 124 122 119 120 123 123 120 118 80 15 5
11 2 0 2 11 14 8 1 2 5 5 5 0 17 29 29
30 29 30 30 30 31 31 30 30 30 31 31 31 30 31 32
32 31 31 31 32 31 32 33 33 32 32 32 33 33 33 33
33 33 32 33 33 33 33 32 32 32 32 32 31 24 22 28
25 31 12 0 0 0 0 14 35 25 16 18 28 40 41 40
41 41 42 40 31 29 29 30 33 37 37 33 35 6 16 10
8 7 10 18 34 62 93 117 125 125 125 124 123 118 119 116
113 107 112 122 124 123 121 87 103 122 124 123 120 85 36 8
13 8 0 0 3 8 11 6 0 5 1 4 1 19 29 29
29 30 30 30 30 30 30 30 30 30 30 31 31 31 31 32
32 31 31 32 32 32 32 33 32 32 32 32 32 33 32 32
33 32 32 32 32 32 32 32 33 32 32 32 32 25 22 28
24 31 11 0 0 0 0 14 35 25 15 18 26 37 38 39
40 41 42 39 21 16 14 15 20 28 36 33 12 1 14 1
1 8 26 46 73 101 116 125 126 125 126 124 124 121 115 114
114 109 122 124 124 123 123 93 100 118 122 124 121 64 49 16
18 14 6 0 0 2 9 11 1 0 1 2 2 23 30 30
30 30 31 31 31 31 30 30 30 30 30 31 31 31 31 31
31 31 32 31 32 32 32 32 33 32 31 32 32 32 32 32
32 32 32 32 33 32 32 32 32 31 32 31 31 25 22 27
24 31 11 0 0 0 0 11 33 22 15 18 19 23 24 25
26 27 29 28 7 1 0 0 1 9 31 29 2 0 3 1
14 44 82 105 114 115 120 124 125 125 125 125 124 122 116 116
116 116 122 124 124 124 122 121 117 123 116 123 121 48 55 22
18 13 16 1 0 0 4 13 8 0 0 0 3 25 29 30
30 30 30 30 30 30 30 30 30 29 30 30 31 30 31 31
31 31 31 30 31 31 32 31 31 31 32 31 32 32 32 32
32 32 32 32 32 33 32 32 31 32 31 31 31 26 22 27
25 32 11 0 0 0 0 11 33 23 14 17 20 25 25 24
23 23 23 22 6 0 0 0 0 8 31 23 0 0 10 6
35 93 109 113 119 121 124 125 124 124 124 124 124 123 122 115
117 118 124 124 124 124 111 90 123 121 112 122 118 70 64 28
17 18 15 6 0 0 1 7 12 2 0 0 4 23 28 29
30 29 30 30 29 30 29 28 28 28 29 30 30 31 29 23
23 22 21 19 22 28 33 32 32 32 32 32 32 32 32 32
32 31 31 31 32 32 31 31 32 31 32 31 31 26 21 27
28 27 10 0 0 0 0 12 36 24 14 17 22 28 30 29
28 28 28 24 7 0 0 0 0 10 30 18 0 0 7 10
17 55 81 97 114 119 124 125 125 125 125 125 125 124 124 121
121 119 124 124 124 124 105 80 118 114 111 123 110 75 65 37
18 21 14 7 4 0 0 4 10 3 0 0 5 24 29 29
29 24 21 20 19 17 16 13 13 15 21 29 31 31 27 12
8 7 7 6 10 26 32 32 32 31 32 32 31 31 31 32
32 31 31 32 32 33 31 31 31 31 31 32 32 27 21 26
29 23 14 8 6 4 3 16 34 23 15 19 24 29 30 30
30 30 31 26 6 0 0 0 0 5 26 16 0 0 5 8
1 27 78 89 105 115 121 124 125 125 125 124 124 124 124 123
121 122 123 124 124 122 71 101 124 118 121 123 95 75 63 42
22 17 9 3 3 2 1 0 3 2 0 0 4 26 28 29
27 15 5 5 6 6 4 2 2 2 11 27 30 29 25 9
4 4 5 4 8 26 33 33 33 32 32 32 32 32 31 31
31 31 31 31 30 31 31 31 31 31 32 32 32 27 22 25
27 25 25 24 23 22 22 24 28 26 24 25 26 29 29 29
29 29 30 26 8 0 0 0 1 3 24 17 0 0 0 19
0 7 74 103 106 112 120 124 125 125 125 125 125 125 124 124
124 122 123 124 124 116 76 120 124 123 123 118 82 77 69 53
35 15 6 0 0 3 4 3 0 1 0 0 4 27 28 29
27 12 1 2 5 5 3 1 1 1 8 26 30 30 25 8
4 5 5 4 7 25 33 32 32 32 32 32 31 31 31 32
31 31 31 31 31 32 32 32 32 31 31 32 31 27 22 24
25 25 25 25 25 26 26 26 26 26 26 25 26 26 26 26
26 27 27 26 17 1 0 0 2 2 22 19 2 0 0 18
3 14 73 109 108 111 123 125 125 125 124 125 125 125 124 124
124 124 124 124 124 123 104 124 124 124 123 100 78 74 75 74
53 21 4 0 0 1 2 0 0 0 0 0 5 27 29 28
26 12 1 2 5 5 3 1 2 1 8 26 29 30 24 8
4 4 4 4 6 23 32 33 32 32 32 32 32 31 31 31
31 30 30 30 30 31 31 31 32 31 32 32 32 28 21 24
24 24 24 24 25 25 24 25 24 25 25 25 25 25 26 25
26 26 26 26 19 1 0 0 0 1 22 16 2 0 0 6
15 17 48 102 106 114 123 125 125 125 126 125 125 126 125 123
123 124 124 124 125 124 122 124 123 123 115 84 80 85 96 96
67 29 6 0 0 0 0 0 0 0 0 0 6 28 29 29
27 13 1 2 5 6 3 1 1 1 9 27 30 30 26 11
7 7 8 8 8 22 32 32 31 31 31 32 31 31 31 31
31 32 32 31 30 29 30 31 32 32 31 31 32 28 22 23
10 10 10 10 10 11 11 11 11 10 11 11 12 12 13 14
14 16 21 25 19 0 0 0 0 1 22 13 0 0 0 0
14 10 23 84 106 118 124 126 126 125 125 126 126 125 125 124
124 124 124 124 124 124 118 122 124 117 87 81 79 98 115 99
76 39 7 0 0 0 0 0 0 0 0 0 9 28 29 29
27 13 1 2 5 4 3 1 1 2 9 26 30 30 27 14
11 10 11 12 12 21 31 32 32 32 32 32 33 31 31 31
32 32 30 16 7 6 9 23 32 31 31 31 31 28 22 23
0 0 0 0 0 0 0 0 0 0 0 0 0 0 0 0
0 2 17 24 21 2 0 0 1 1 21 17 0 0 0 0
3 4 6 65 109 121 125 126 126 125 126 126 127 126 126 125
125 124 125 125 125 124 123 121 120 90 78 85 92 115 119 102
84 50 13 0 0 0 0 0 0 0 0 0 10 28 29 29
27 14 2 2 2 2 2 1 2 2 7 26 31 32 28 13
8 8 8 8 9 19 31 33 33 32 32 32 32 32 32 31
32 32 31 8 0 0 0 16 32 32 31 31 31 28 22 23
0 0 0 0 0 0 0 0 0 0 0 0 0 0 0 0
0 1 19 25 23 15 10 12 19 17 25 28 13 0 0 0
0 0 1 51 112 121 125 126 125 126 126 125 125 125 125 124
125 124 123 124 125 125 123 114 99 79 95 112 106 121 118 100
87 61 28 6 0 0 0 0 0 0 0 0 11 28 29 29
26 13 2 0 0 0 1 1 3 1 7 26 31 32 28 12
6 6 7 6 6 19 32 33 32 32 33 33 32 32 32 31
31 31 29 6 0 0 0 11 31 31 31 31 31 28 23 22
0 0 0 0 0 0 0 0 0 0 0 0 0 0 0 0
0 1 19 26 25 29 30 32 33 29 28 32 32 7 0 0
0 1 0 44 112 122 125 126 125 125 125 125 126 126 124 123
124 124 124 124 125 125 124 109 107 111 123 119 108 122 117 99
82 62 46 24 8 0 0 0 0 0 0 0 8 28 30 29
26 14 3 1 0 1 3 1 2 2 7 25 31 32 28 13
5 6 6 6 6 20 32 33 32 32 32 32 32 32 32 31
31 31 28 4 0 0 0 6 31 31 30 31 31 28 22 21
0 0 0 0 0 0 0 0 0 0 0 0 0 0 0 0
0 0 19 26 25 29 33 35 34 28 24 26 34 54 13 0
0 2 0 44 111 120 125 126 126 125 126 126 126 126 125 124
124 124 125 125 124 124 124 123 124 124 124 118 108 121 115 97
85 61 48 34 16 4 0 0 0 0 0 0 4 29 31 30
26 14 3 1 0 0 3 1 3 2 6 26 30 31 28 13
5 5 5 5 7 19 32 33 32 33 33 32 32 32 32 28
17 16 14 1 0 0 0 6 30 31 31 31 31 29 23 21
0 0 0 0 0 0 0 0 0 0 0 0 0 0 0 0
0 0 17 26 25 26 28 31 33 30 24 22 32 87 43 21
2 2 2 56 110 119 125 125 125 125 126 125 126 125 125 124
124 125 124 123 124 123 123 122 123 124 124 121 112 119 116 96
87 70 47 29 21 8 1 0 0 0 0 0 1 27 30 28
25 14 4 2 0 0 2 2 4 3 7 25 30 31 28 12
5 5 5 5 7 19 31 32 32 32 33 32 32 32 31 13
0 0 0 0 0 0 0 5 30 31 30 31 31 28 23 20
0 0 0 0 0 0 0 0 0 0 0 0 0 0 0 0
0 0 15 27 24 20 17 19 23 22 21 23 54 99 81 24
19 4 9 80 110 117 123 125 126 125 126 125 125 125 125 125
124 124 124 124 123 120 119 120 122 124 124 122 117 118 114 94
81 68 49 36 27 16 7 2 0 1 0 0 2 27 30 27
25 14 2 1 0 0 1 1 3 2 6 25 30 32 28 13
4 5 6 6 6 20 32 32 32 32 32 31 32 32 30 7
0 0 0 0 0 0 0 4 30 30 30 30 31 29 23 21
0 0 0 0 0 0 0 0 0 0 0 0 0 0 0 0
0 0 12 26 23 13 1 1 3 6 13 29 81 103 103 57
21 10 37 98 111 119 124 125 126 126 126 125 125 125 125 124
124 124 124 122 122 117 114 116 120 124 123 121 118 116 117 97
85 73 64 50 39 19 15 7 4 2 0 0 3 26 30 27
25 15 3 1 2 2 2 2 3 3 6 24 30 31 28 13
5 5 5 5 5 19 32 33 32 33 32 32 32 32 31 13
0 0 0 0 0 0 0 4 30 30 31 30 30 28 23 20
0 0 0 0 0 0 0 0 0 0 0 0 0 0 0 0
0 0 11 26 23 12 0 0 0 0 13 53 100 105 100 100
80 46 71 101 112 119 124 125 126 125 126 126 125 126 125 124
124 124 123 121 122 116 113 115 119 124 123 121 119 116 116 98
89 79 67 46 32 27 23 7 2 0 0 0 9 27 29 28
25 15 3 1 1 1 2 1 2 2 5 24 31 32 29 16
8 9 7 7 8 20 31 32 32 32 32 32 33 31 31 26
3 0 0 0 0 0 0 1 20 30 31 30 30 29 23 21
0 0 0 0 0 0 0 0 0 0 0 0 0 0 0 0
0 0 9 25 22 11 0 0 0 0 14 78 111 113 112 113
108 91 81 100 111 118 124 126 126 126 125 125 125 125 125 125
124 124 124 122 119 114 111 114 118 123 123 122 120 116 113 99
87 80 71 56 43 35 26 13 2 0 0 1 20 28 29 27
25 16 3 1 1 2 1 1 2 2 5 24 30 31 29 24
22 22 18 19 22 26 32 32 33 32 32 32 32 30 20 22
5 0 0 0 0 0 0 0 8 31 31 30 29 28 23 21
0 0 0 0 0 0 0 0 0 0 0 0 0 0 0 0
0 0 7 24 22 13 0 0 0 0 17 89 114 116 117 124
121 95 80 98 112 118 124 125 125 125 125 125 126 125 126 125
125 124 121 122 117 113 111 111 117 122 123 122 121 117 113 99
84 81 67 63 50 41 29 17 3 0 0 3 24 29 29 27
26 17 4 1 1 1 0 0 1 1 5 22 28 31 31 30
31 32 30 31 32 31 32 32 32 32 32 32 31 18 1 0
2 2 0 0 0 0 0 0 7 30 30 30 30 28 22 20
0 0 0 0 0 0 0 0 0 0 0 0 0 0 0 0
0 0 6 24 22 14 0 0 0 0 17 75 102 91 92 110
118 92 80 95 110 119 125 126 125 126 126 125 124 125 125 124
124 123 120 120 113 112 112 109 114 122 124 123 122 117 112 100
86 79 76 67 53 42 30 19 5 0 0 8 24 28 28 27
26 17 4 1 1 1 1 2 2 1 4 22 28 28 30 30
31 31 31 32 31 28 25 24 23 22 20 20 12 1 0 0
1 1 0 0 0 0 0 0 2 25 29 30 29 27 22 19
0 0 0 0 0 0 0 0 0 0 0 0 0 0 0 0
0 0 4 23 22 14 0 0 0 0 13 42 76 74 76 77
87 73 85 91 110 117 122 125 125 125 126 125 125 126 125 125
124 122 121 117 113 113 109 107 114 120 123 124 123 117 111 102
87 86 88 76 61 44 32 23 12 0 4 13 25 28 28 27
27 19 5 3 2 2 2 1 2 2 7 21 27 27 28 29
31 31 31 31 23 6 3 36 20 0 0 0 0 0 0 3
0 0 0 0 0 0 0 0 0 19 29 28 28 26 21 19
0 0 0 0 0 0 0 0 0 0 0 0 0 0 0 0
0 0 4 22 22 15 1 0 0 0 12 25 32 61 67 80
93 90 91 90 107 115 121 123 125 125 125 125 125 124 124 123
120 121 119 117 115 113 107 106 113 119 123 124 124 120 110 100
89 87 87 76 63 52 37 28 19 3 9 15 25 27 28 28
26 22 17 15 12 11 9 5 2 7 14 22 25 26 27 28
29 30 30 29 14 0 29 111 87 7 0 8 0 0 0 9
0 0 0 0 0 0 0 0 0 3 15 15 21 26 23 19
0 0 0 0 0 0 0 0 0 0 0 0 0 0 0 0
0 0 4 23 22 17 2 0 3 1 9 25 27 34 24 58
88 90 92 94 104 112 117 118 124 125 124 124 124 124 123 124
119 119 117 116 110 110 107 109 113 119 123 123 124 122 113 103
92 90 88 84 75 67 55 41 25 8 10 18 24 27 27 27
27 26 25 23 19 18 17 9 1 11 17 21 24 25 26 28
29 30 21 17 6 0 32 71 69 11 1 6 1 1 5 12
2 1 1 0 0 0 0 0 0 0 0 0 14 26 23 19
0 0 0 0 0 0 0 0 0 0 0 0 0 0 0 0
0 0 3 22 22 17 3 0 8 10 13 27 28 34 26 50
80 82 83 89 105 113 117 119 123 124 125 124 123 121 123 121
118 116 116 110 106 108 108 111 117 120 125 125 124 123 113 105
92 88 89 92 82 73 70 50 37 16 10 21 25 27 28 28
27 26 26 24 22 20 19 10 0 12 18 22 24 24 26 28
30 29 10 7 6 6 7 8 7 7 7 9 10 11 13 13
11 9 7 5 4 4 3 4 3 4 4 4 19 30 27 23
0 0 0 0 0 0 0 0 0 0 0 0 0 0 0 0
0 0 3 22 23 20 19 18 23 25 27 33 30 35 25 48
92 94 90 88 103 114 119 120 122 122 124 122 120 118 118 119
117 113 110 106 104 106 110 113 118 121 123 124 124 122 115 107
94 87 92 90 87 87 83 66 51 27 14 21 25 26 28 28
27 26 27 25 23 21 20 12 1 12 19 21 23 23 26 28
30 30 11 5 5 3 3 3 3 3 3 4 4 4 6 6
4 2 1 0 0 5 26 28 30 31 31 33 37 39 36 31
0 0 0 0 0 0 0 0 0 0 0 0 0 0 0 0
0 0 3 22 23 23 36 40 41 42 42 41 34 34 19 51
91 98 103 87 87 107 118 122 121 122 123 121 119 114 117 115
112 110 105 102 102 106 113 117 121 121 124 124 124 123 115 107
97 87 92 90 97 100 95 82 66 44 23 21 26 27 29 28
28 28 27 26 23 23 21 13 1 12 19 21 24 24 26 28
30 30 20 3 0 0 0 0 0 0 0 0 0 0 0 0
0 0 0 0 0 18 48 48 48 47 46 45 43 40 38 34
0 0 0 0 0 0 0 0 0 0 0 0 0 0 0 0
0 0 3 21 22 24 39 43 42 42 42 41 34 33 15 39
55 51 60 66 72 95 111 120 120 121 119 117 116 114 116 111
108 104 104 104 102 109 112 115 114 119 123 121 124 123 116 108
100 90 91 95 102 106 105 96 79 60 33 16 21 27 27 28
27 28 27 26 25 24 22 15 2 13 19 21 23 24 26 28
30 31 21 1 0 0 0 0 0 0 0 0 0 0 0 0
0 0 0 0 0 29 47 46 46 45 42 38 39 35 33 31
0 0 0 0 0 0 0 0 0 0 0 0 0 0 0 0
0 0 2 21 22 20 25 27 27 26 26 25 26 31 14 12
30 29 58 92 108 100 106 112 114 116 116 113 113 112 112 107
103 103 104 106 109 111 111 112 115 118 119 121 124 122 118 107
98 91 90 97 104 110 110 101 89 73 49 10 3 26 34 28
27 27 27 27 26 24 22 16 2 11 20 21 23 24 26 28
30 30 13 0 0 0 0 0 0 0 0 0 0 0 0 0
0 0 0 0 1 27 33 32 38 34 32 25 27 27 24 26
0 0 0 0 0 0 0 0 0 0 0 0 0 0 0 0
0 0 2 20 22 18 15 14 14 14 14 13 19 30 14 2
13 43 79 103 108 105 106 106 107 112 114 113 111 108 109 106
102 102 102 104 109 112 114 114 114 117 119 120 123 120 116 108
96 90 91 96 104 110 111 105 96 81 62 25 1 25 35 28
21 22 22 24 25 24 23 17 3 10 20 22 22 23 25 26
28 28 8 0 0 0 0 0 0 0 0 0 0 0 0 0
0 0 0 0 0 5 4 4 27 28 25 22 20 20 19 23
0 0 0 0 0 0 0 0 0 0 0 0 0 0 0 0
0 0 2 20 22 18 16 16 16 15 15 14 21 32 21 14
23 52 73 87 100 104 101 101 101 110 114 112 110 108 107 102
102 102 105 106 111 111 112 111 114 113 115 119 121 119 117 110
98 89 87 94 103 108 111 107 102 88 73 49 13 35 35 30
18 15 13 19 24 23 21 17 2 9 20 21 22 22 24 25
27 23 2 0 0 0 0 0 0 0 0 0 0 0 0 0
0 0 0 0 0 0 0 0 15 31 29 26 27 26 25 25
0 0 0 0 0 0 0 0 0 0 0 0 0 0 0 0
0 0 6 22 22 19 19 19 19 18 17 15 21 32 29 31
33 34 33 65 89 98 97 98 104 107 109 108 108 104 98 100
101 105 109 108 112 111 113 113 117 115 114 114 119 120 117 110
100 90 86 93 100 106 110 110 105 96 82 63 23 37 35 33
22 10 10 15 21 22 21 18 3 8 20 22 23 23 24 24
25 15 0 0 0 0 0 0 0 0 0 0 0 0 0 0
0 0 0 0 0 0 0 0 7 30 29 28 27 25 25 25
0 0 0 1 1 1 2 3 3 5 5 6 7 9 9 10
12 12 15 21 20 19 19 20 20 20 19 16 20 26 24 27
28 26 27 48 80 92 95 96 100 103 104 103 102 97 95 101
105 106 104 106 110 112 113 115 117 116 112 115 119 119 119 111
101 90 87 91 98 106 112 110 108 101 88 73 32 37 36 33
27 12 8 12 19 20 20 16 3 7 18 21 22 22 22 22
22 5 0 0 0 0 0 0 0 0 0 0 0 0 0 0
0 0 0 0 0 0 0 0 2 25 26 25 25 25 24 24
10 11 12 13 14 15 15 15 16 17 16 17 17 17 18 18
18 18 18 18 19 19 19 19 19 19 19 16 18 20 18 19
22 23 25 35 76 93 93 95 98 97 98 98 96 93 93 98
98 102 101 106 111 110 111 114 114 114 116 116 115 117 120 112
102 90 87 89 93 105 113 113 109 102 94 72 38 40 38 31
28 15 6 9 16 19 18 16 3 6 18 21 21 22 21 21
18 1 0 0 0 0 0 0 0 0 0 0 0 0 0 0
0 0 0 7 0 0 0 0 0 18 21 15 17 17 14 15
17 14 17 18 18 17 17 17 18 18 18 18 18 19 18 19
18 18 18 18 18 19 20 20 19 19 19 18 19 21 20 20
22 23 23 28 67 96 97 94 96 95 88 91 90 90 97 99
101 101 102 104 109 111 112 112 112 116 115 113 112 118 118 111
103 92 90 91 92 102 112 115 112 104 96 63 42 38 37 32
28 22 7 8 13 17 17 15 4 4 18 20 20 21 21 21
10 0 0 0 0 0 0 0 0 0 0 0 0 0 0 0
0 0 1 18 0 0 0 0 0 12 17 16 17 15 12 14
16 14 16 17 18 18 18 18 19 23 25 13 8 10 14 14
9 12 16 17 17 19 20 20 20 20 19 18 20 21 21 21
22 23 23 26 58 89 92 92 93 94 84 84 81 85 92 90
90 94 96 96 105 109 109 113 117 113 113 113 114 120 120 113
104 91 90 92 94 98 109 116 114 107 93 53 42 39 38 30
25 23 14 8 10 16 18 16 5 4 18 21 21 21 21 20
7 0 0 0 0 0 0 0 0 0 0 0 0 0 0 0
0 0 9 21 0 0 0 0 0 8 20 23 23 21 19 22
13 12 13 12 12 12 12 14 30 41 25 2 0 0 0 1
0 1 8 12 12 12 10 9 10 14 19 19 20 21 22 21
22 22 23 25 47 80 82 86 87 90 80 70 75 84 84 81
77 76 80 89 94 102 109 112 116 113 112 112 115 118 120 116
106 94 91 94 97 96 106 114 115 109 79 57 42 40 37 32
26 21 21 9 8 15 17 16 7 8 18 20 21 21 21 21
3 0 0 0 0 0 0 0 0 0 0 0 0 0 0 0
0 0 11 15 0 0 0 0 0 3 22 24 24 24 24 23
1 1 1 0 1 3 6 26 48 35 6 0 0 0 0 0
0 0 0 1 1 0 0 0 0 2 14 20 20 21 22 22
21 22 23 24 34 69 74 76 75 71 70 70 73 70 66 63
58 61 65 75 86 96 106 115 116 119 114 110 114 120 122 119
108 96 90 95 95 96 102 112 114 103 69 56 40 41 38 32
25 21 23 15 18 24 20 17 14 15 19 22 21 21 22 24
1 0 0 0 0 0 0 0 0 0 0 0 0 0 0 0
0 0 3 2 0 0 0 0 0 0 10 19 21 20 21 21
0 0 0 0 0 6 15 40 42 12 0 0 0 0 0 0
0 0 0 0 0 0 0 0 0 0 8 20 20 21 21 21
22 22 22 23 26 46 59 62 56 49 49 54 56 52 45 38
37 38 46 60 74 89 103 108 115 115 114 113 114 120 123 121
112 99 91 97 98 97 102 110 113 85 76 48 42 43 38 32
25 22 23 22 18 37 40 35 30 25 21 19 20 20 20 11
0 0 0 0 0 0 0 0 0 0 0 0 0 0 0 0
0 0 0 0 0 0 0 0 0 0 1 9 13 12 14 20
0 0 0 0 0 5 26 41 23 2 0 0 0 0 0 0
0 0 0 0 0 0 0 0 0 0 8 21 21 21 22 22
21 21 22 23 23 27 35 36 34 28 26 26 25 22 20 16
7 9 25 49 67 84 100 108 113 113 115 115 116 121 124 121
115 103 91 99 102 98 100 108 102 75 86 46 44 41 37 32
25 23 25 22 25 36 42 45 42 40 38 36 28 16 11 2
0 0 0 0 0 0 0 0 0 0 0 0 0 0 0 0
0 0 0 0 0 0 0 0 0 0 5 7 15 16 17 21
0 0 3 2 0 5 35 34 5 0 1 3 0 0 0 0
0 0 0 0 0 0 0 0 0 2 16 22 22 21 21 21
22 21 22 23 23 23 24 22 19 14 13 13 13 12 9 6
10 13 26 56 69 74 92 104 110 116 117 116 116 122 124 124
117 106 91 99 105 102 99 104 84 87 78 42 42 40 35 31
25 24 25 22 28 42 44 39 45 41 40 42 43 40 29 12
2 0 0 0 0 0 0 0 0 0 0 0 0 0 0 0
0 0 0 0 0 0 0 0 0 0 9 14 17 23 22 22
1 3 7 6 1 10 41 26 5 12 19 18 2 0 0 0
0 0 0 0 0 0 0 0 0 10 18 19 20 20 20 21
21 21 21 22 22 22 23 22 22 20 19 14 3 0 0 2
31 32 44 54 79 75 83 99 112 117 117 114 114 122 125 124
119 108 97 102 107 104 97 88 72 96 52 44 40 39 36 29
25 23 24 22 34 37 39 41 46 43 37 39 44 39 39 42
37 28 15 4 0 0 0 0 0 0 0 0 0 0 0 0
0 0 0 0 0 0 0 0 0 0 4 8 9 22 23 23
12 10 8 5 0 15 37 13 9 24 25 22 7 0 5 8
1 0 0 0 0 0 0 0 0 1 3 3 4 7 17 20
21 21 21 21 21 22 22 21 19 17 22 14 0 0 0 3
33 41 55 67 80 88 83 91 107 114 116 113 109 118 124 124
122 112 100 104 112 107 95 65 87 79 45 42 37 38 34 26
24 23 21 21 38 39 42 41 43 41 39 40 40 40 44 46
46 49 42 41 33 18 11 2 0 0 0 0 0 0 0 0
0 0 0 0 0 0 0 0 0 0 0 0 1 18 23 23
16 8 3 0 0 22 34 5 6 27 26 24 6 2 18 21
13 2 0 0 0 0 0 0 0 0 0 0 0 1 15 20
20 20 20 22 27 26 24 24 30 36 38 29 9 1 2 14
33 37 49 93 64 97 93 88 97 107 111 113 109 114 123 125
123 115 102 105 113 108 81 64 110 67 31 44 42 35 33 27
25 24 20 23 40 43 44 44 41 34 33 38 40 41 41 43
43 44 41 41 43 42 41 37 31 19 4 0 0 0 0 0
0 0 0 0 0 0 0 0 0 0 0 0 0 9 22 22
13 2 0 0 0 27 35 4 6 23 14 18 10 14 27 25
17 6 0 1 0 0 0 0 0 0 0 0 0 0 12 19
19 22 30 34 37 33 31 33 39 43 40 34 12 7 16 27
32 37 44 97 85 88 107 102 96 99 106 108 107 112 122 126
125 118 105 108 115 102 65 76 114 71 5 4 39 36 29 27
24 28 19 22 38 42 46 42 38 33 34 40 42 43 45 45
42 44 42 43 43 42 42 42 43 43 40 23 2 0 0 0
0 0 0 0 0 0 0 0 0 0 0 0 0 3 17 17
11 1 0 0 0 30 36 5 5 11 0 11 19 26 31 22
16 9 0 0 0 0 0 0 0 0 0 0 0 0 13 23
29 35 37 41 39 31 30 32 36 39 38 34 11 6 24 27
31 41 48 88 105 83 111 115 112 106 103 102 102 108 122 126
126 119 108 107 114 89 70 108 100 33 0 0 14 41 30 27
27 32 19 21 34 39 40 39 33 31 36 40 42 42 42 42
41 43 43 42 42 40 40 40 39 40 41 43 34 9 0 0
0 0 0 0 0 0 0 0 0 0 0 0 0 0 14 16
9 3 1 0 1 31 41 13 7 5 0 13 24 33 28 9
10 11 0 0 0 0 0 0 0 0 0 0 8 19 34 35
36 36 40 39 35 23 25 35 39 38 38 33 11 10 28 26
28 38 46 77 117 91 95 122 123 119 113 103 96 101 118 126
126 120 107 104 97 84 93 119 72 23 0 0 5 44 30 26
27 34 20 26 35 39 41 39 34 30 39 39 42 40 39 40
41 39 41 40 41 39 41 40 40 40 41 41 42 40 15 0
0 0 0 0 0 0 0 0 0 0 0 0 0 0 11 15
13 10 8 0 0 25 41 23 12 2 0 15 29 33 17 0
7 11 0 0 0 0 0 0 0 1 10 29 36 37 38 35
36 37 38 38 33 22 27 39 39 37 37 31 14 11 28 25
28 43 48 72 125 113 80 116 126 125 122 112 97 92 110 125
127 123 108 91 86 93 117 99 54 11 0 0 5 45 30 26
34 41 23 30 37 39 40 39 34 31 38 40 41 42 39 38
40 41 41 41 40 39 39 40 39 39 40 41 40 35 28 5
0 0 0 0 0 0 0 0 0 0 0 0 0 0 9 14
16 12 10 0 0 22 36 29 12 0 1 17 29 21 5 0
5 7 0 0 0 0 0 0 10 27 36 38 36 35 35 34
37 37 37 36 32 22 26 40 39 34 35 32 16 9 26 24
26 44 21 68 122 120 96 93 126 127 126 119 104 93 99 121
126 123 105 78 80 111 114 55 23 3 0 0 8 44 34 30
35 45 24 32 38 40 40 37 36 31 37 42 42 41 39 38
40 41 39 38 40 40 40 40 40 40 42 40 38 29 21 25
1 0 0 0 0 0 0 0 0 0 0 0 0 2 7 14
18 14 12 1 0 18 34 33 11 0 1 12 12 2 0 0
0 0 0 0 0 0 0 17 38 38 35 35 34 35 33 34
36 36 37 36 32 21 25 37 36 30 31 31 15 12 27 25
26 43 11 63 124 112 108 84 119 127 127 125 112 101 92 115
125 119 93 54 92 119 64 20 16 5 0 6 12 43 40 37
42 46 27 33 37 39 38 37 36 32 34 40 41 39 39 41
42 42 40 40 41 41 40 39 39 39 39 38 38 27 21 33
13 0 0 0 0 0 0 0 0 0 0 0 0 2 7 15
20 14 10 1 0 6 15 12 3 0 0 0 0 0 0 0
0 0 0 0 0 0 22 39 37 36 34 36 36 36 34 34
34 35 36 35 32 23 27 35 35 30 30 31 17 13 25 21
25 37 12 50 127 112 106 98 102 127 127 127 120 108 95 105
120 97 59 51 103 80 27 17 16 11 8 17 11 27 47 43
38 46 32 32 39 39 40 40 39 35 32 40 40 39 39 41
40 39 39 41 41 40 39 40 40 41 41 39 39 23 24 33
20 2 0 0 0 0 0 0 0 0 0 0 0 3 6 16
4 1 0 0 0 0 0 0 0 0 0 0 0 0 0 0
0 0 0 0 0 13 35 36 35 35 35 36 37 39 36 36
37 39 39 36 33 27 29 33 32 30 31 31 21 19 25 20
26 31 19 28 126 120 107 108 93 115 127 127 123 112 102 91
84 51 40 45 39 24 19 17 17 15 31 27 11 14 46 49
43 43 40 34 39 40 38 40 39 38 33 38 39 38 38 40
42 42 44 41 42 41 42 43 42 41 41 39 36 22 24 31
21 15 0 0 0 0 0 0 0 0 0 0 0 2 5 15
0 0 0 0 0 0 0 0 1 0 0 0 0 1 0 0
2 0 0 0 5 32 30 29 36 33 36 39 40 39 35 38
41 41 38 35 35 31 33 33 31 27 31 32 25 29 30 24
24 28 25 6 102 128 121 111 88 81 122 127 125 115 107 73
41 23 15 24 25 25 24 21 22 29 37 32 21 16 25 47
52 49 48 48 30 40 39 40 40 39 35 36 39 41 41 39
39 41 40 39 38 39 40 39 41 39 39 38 37 21 26 33
24 27 1 0 0 0 0 0 0 0 0 0 0 1 4 14
0 0 0 0 0 0 1 12 13 7 4 10 11 9 2 5
6 0 0 0 23 36 29 26 38 32 35 40 40 37 38 41
43 42 39 35 36 36 35 31 31 25 31 33 30 36 34 30
26 29 25 0 37 111 125 121 87 51 69 107 115 113 100 42
26 28 35 38 37 35 31 29 37 34 38 32 34 30 24 26
33 35 36 33 25 41 42 43 43 43 37 34 39 41 41 41
41 42 40 41 40 41 43 41 40 40 42 41 39 22 29 33
27 32 15 1 0 0 0 0 0 0 0 0 0 1 6 12
0 0 0 0 0 0 1 16 17 21 24 19 21 17 12 14
3 0 0 8 31 34 30 26 37 33 35 40 40 39 40 43
44 45 37 34 37 41 41 33 28 23 33 34 34 38 33 37
33 35 18 5 18 35 71 92 57 30 34 55 74 97 82 35
31 36 38 38 38 31 25 35 36 34 37 32 36 36 37 35
33 32 34 35 35 44 42 44 44 44 42 35 38 40 41 42
41 40 42 42 42 41 42 40 38 40 41 42 37 22 31 33
29 33 22 27 1 0 0 0 0 0 0 0 0 1 9 12
0 0 0 0 0 0 0 6 16 27 30 25 27 26 24 13
0 0 2 24 33 36 29 27 38 34 31 36 40 40 42 43
44 41 35 33 41 45 43 35 29 23 34 37 39 37 36 41
43 44 20 23 23 24 25 27 16 2 11 23 32 54 57 33
36 38 40 42 39 29 27 37 37 36 38 35 36 38 39 37
39 38 38 39 37 39 39 40 43 42 40 37 37 40 42 45
43 42 44 44 42 43 41 39 39 42 40 39 35 21 30 34
30 38 32 39 23 0 0 0 0 0 0 0 0 3 13 15
0 0 0 0 0 0 0 0 12 19 27 33 30 30 19 3
0 0 21 30 35 35 29 28 39 34 32 37 39 42 44 43
44 40 35 34 40 43 40 31 31 24 34 48 46 45 45 45
39 32 36 37 35 34 29 29 33 23 30 30 28 36 45 34
38 44 44 44 37 27 33 38 38 39 39 38 39 40 41 41
41 41 38 39 40 39 40 41 43 43 41 39 36 38 41 43
43 42 42 42 43 41 40 38 37 40 42 42 35 20 33 33
35 44 37 50 87 7 0 0 0 0 0 0 0 4 13 14
0 0 0 0 0 0 0 0 2 9 18 24 21 14 2 0
0 10 37 32 36 36 30 26 37 35 35 37 39 42 44 44
42 37 32 36 41 45 39 33 33 25 35 39 33 30 28 31
35 38 39 40 40 41 38 31 37 33 37 29 30 61 65 39
43 46 48 44 34 33 40 41 39 37 39 38 38 40 41 42
40 41 40 40 40 42 42 42 42 41 41 40 37 36 37 41
44 42 42 42 43 41 39 37 39 41 43 43 35 20 30 35
40 39 41 80 114 54 0 0 0 0 0 0 0 3 10 9
0 0 0 0 0 0 0 0 0 0 6 8 7 1 0 2
7 34 41 33 34 36 30 25 38 37 36 38 41 43 43 42
40 32 29 38 40 43 38 34 33 29 37 39 39 37 38 39
41 41 44 42 42 42 40 34 35 38 37 31 33 107 127 111
95 87 95 73 37 37 44 50 72 95 105 100 94 89 81 71
60 45 41 40 41 41 43 42 41 42 42 41 39 36 36 38
41 39 40 43 43 43 41 39 42 40 43 42 34 21 34 38
39 45 54 111 119 97 6 0 0 0 0 0 0 4 12 10
0 0 0 0 0 0 0 0 0 2 4 4 1 0 1 5
25 43 40 35 33 36 31 26 41 39 38 39 41 43 42 41
40 30 31 40 43 47 41 33 37 34 38 41 45 42 42 41
43 44 43 43 42 44 44 39 35 41 37 32 48 125 127 127
127 127 127 125 112 101 109 123 126 126 126 126 126 126 126 125
125 117 98 78 60 56 49 47 44 43 41 41 40 38 37 38
41 40 39 40 40 40 40 39 39 41 48 50 34 21 34 38
39 46 96 125 118 109 48 0 0 0 0 0 0 3 13 10
0 0 0 0 0 0 0 0 2 6 6 5 5 12 8 1
63 49 41 40 33 33 32 26 40 39 40 39 43 44 43 42
40 32 34 42 43 45 42 34 38 35 38 44 45 44 44 43
45 45 44 44 42 44 43 41 35 44 46 35 75 129 127 127
127 127 127 126 127 126 126 126 125 125 126 126 126 126 126 127
126 126 125 125 125 125 123 121 117 108 92 70 45 37 39 40
40 40 41 44 50 58 67 76 91 108 120 122 92 20 36 37
44 82 124 124 116 109 93 3 0 0 0 0 0 2 12 8
0 0 0 0 0 0 0 0 2 6 5 5 14 29 19 17
106 79 40 38 36 35 31 28 38 39 39 41 42 43 42 43
39 31 37 44 43 47 43 36 39 39 40 40 46 53 50 44
44 45 45 47 50 55 64 70 77 103 120 78 101 128 127 127
127 127 127 126 126 126 126 126 126 126 126 126 127 125 125 125
125 125 125 125 125 124 124 124 125 124 124 124 117 91 70 67
73 90 104 115 122 124 124 124 123 124 123 123 105 20 33 42
64 122 123 122 116 112 115 38 0 0 0 0 0 1 10 6
1 0 0 0 0 0 0 0 2 8 7 8 22 33 23 61
125 121 54 36 37 36 32 26 37 43 40 40 43 44 43 43
38 33 39 45 43 47 42 37 41 44 40 61 114 127 125 117
111 112 117 121 122 126 127 127 127 127 127 124 124 127 127 127
127 127 126 126 126 126 126 126 125 125 125 125 125 125 126 125
124 124 125 124 124 125 124 124 124 124 124 124 124 124 124 124
123 124 124 123 123 123 123 123 123 123 123 122 106 24 37 56
115 124 123 122 119 119 118 92 2 0 0 0 0 0 1 1
0 0 2 0 0 0 0 0 2 10 10 18 33 41 42 107
129 127 96 40 36 38 31 41 106 108 96 85 82 80 75 65
51 36 41 49 60 76 64 43 42 47 51 117 129 129 128 128
128 127 127 128 127 127 127 127 128 127 126 126 127 126 126 127
126 126 125 126 126 125 125 126 126 126 125 125 126 125 125 125
124 124 124 124 124 123 124 124 124 124 124 124 124 124 124 124
124 123 123 123 123 123 123 123 122 123 123 122 104 21 44 101
124 123 123 122 122 121 119 113 27 0 0 0 0 0 0 0
0 0 1 1 0 0 0 0 0 4 11 23 36 44 75 128
130 129 126 66 39 37 33 55 130 130 129 129 129 129 129 129
124 106 100 112 126 128 127 113 87 82 106 128 127 127 128 127
128 128 127 128 127 126 127 126 127 126 126 126 126 126 126 123
125 125 125 126 125 125 125 125 125 125 125 125 125 125 125 124
124 124 124 124 124 123 124 124 124 124 123 123 123 123 123 123
123 123 123 122 123 122 123 122 123 122 122 122 101 26 78 123
122 122 122 122 122 121 120 110 75 0 0 0 0 0 0 0
0 0 0 0 0 0 0 0 0 0 6 21 33 46 105 130
129 128 129 113 44 35 31 55 129 130 129 129 128 128 129 128
128 128 129 128 128 127 128 128 128 128 128 127 127 127 128 127
127 127 127 127 126 127 126 125 126 126 126 125 125 125 125 104
125 125 125 125 125 125 125 125 125 124 125 125 124 124 124 124
123 124 124 123 123 123 123 123 123 124 124 124 124 123 123 123
123 123 123 123 123 122 122 122 122 123 122 122 103 44 116 122
122 121 121 121 121 121 120 110 106 14 0 0 0 0 0 0
3 0 0 0 0 0 0 0 0 0 0 10 22 57 126 130
129 128 129 129 95 41 30 56 129 130 129 129 128 128 129 128
129 129 128 129 128 128 128 128 127 128 128 127 127 127 127 127
127 127 127 126 127 126 126 126 126 125 126 125 125 124 116 106
124 125 125 125 125 125 125 125 125 125 124 124 125 124 124 123
123 124 124 124 124 123 123 122 123 123 123 123 122 123 123 123
123 123 122 123 123 123 123 123 123 122 122 122 120 110 122 122
121 121 121 121 121 121 120 111 111 58 0 0 0 0 0 0
4 1 0 0 0 0 0 0 0 4 4 15 27 90 131 130
129 129 129 129 127 69 39 55 129 129 129 129 129 129 129 128
128 128 128 128 128 128 128 128 129 128 128 127 128 128 128 126
127 127 127 126 127 126 127 126 126 126 125 125 126 106 104 107
117 126 125 125 125 125 125 125 125 125 125 124 125 124 124 124
124 124 124 124 124 123 123 122 123 123 123 123 124 124 124 124
123 123 123 123 123 123 122 123 122 122 122 122 122 122 122 122
122 122 122 121 122 121 121 112 113 99 6 0 0 0 0 0
3 1 0 0 0 0 0 0 0 8 11 25 51 121 131 130
129 129 130 129 130 120 54 84 129 129 128 128 128 128 128 129
128 129 128 128 128 128 128 127 128 127 128 127 127 127 127 127
127 127 127 127 127 127 127 127 127 126 126 126 125 104 89 103
121 125 125 125 125 125 125 125 125 125 125 124 124 124 123 124
124 124 124 124 123 123 123 123 123 123 123 124 123 124 123 123
123 123 123 123 123 123 123 123 123 123 122 122 121 120 122 121
122 121 121 121 121 121 120 115 117 116 41 0 0 1 9 3
1 0 0 0 0 0 0 0 0 4 10 29 85 130 130 130
129 129 129 128 128 129 122 127 128 129 129 129 129 129 129 129
128 128 129 127 127 127 128 128 128 129 128 127 127 127 127 128
127 127 127 127 127 127 127 126 126 125 125 125 126 122 81 91
126 126 126 126 125 125 125 125 125 125 124 124 124 124 124 124
124 125 125 124 124 123 123 123 123 123 123 124 124 124 124 124
124 124 124 123 123 123 123 123 123 122 122 122 118 119 122 123
122 122 122 122 122 122 119 118 119 116 90 2 0 1 8 3
0 0 0 0 0 0 0 0 0 4 12 41 119 130 130 129
129 129 129 130 130 129 129 129 128 129 128 128 128 128 128 128
129 128 128 128 127 128 128 128 128 128 128 127 127 127 127 127
127 127 127 127 127 127 127 127 126 127 126 126 126 126 121 122
125 125 126 126 126 126 126 125 126 126 126 124 125 124 125 124
124 124 124 124 124 124 124 124 123 123 123 123 124 123 124 124
123 123 123 123 123 123 123 123 123 123 122 122 114 119 122 122
122 121 121 121 121 121 119 121 121 118 113 25 0 0 0 0
0 0 0 0 0 0 0 0 0 3 13 73 130 130 130 130
130 129 130 129 128 129 129 128 129 128 129 129 129 129 129 128
128 128 129 128 128 128 128 128 128 128 127 128 128 127 128 128
128 127 127 127 127 127 126 126 127 126 125 126 126 126 126 126
127 126 126 127 126 125 125 125 125 124 125 125 125 124 124 124
124 124 124 124 124 124 124 124 123 124 124 124 124 124 124 123
123 124 123 123 123 123 123 123 123 122 123 122 117 121 122 122
122 122 122 122 122 121 121 121 121 120 116 73 0 0 0 0
