P2
128 120
146
0 7 41 39 31 32 31 31 30 30 30 30 30 29 29 29
29 29 29 29 28 27 27 27 27 27 26 25 25 25 25 24
24 24 23 23 23 23 22 22 22 21 21 21 20 20 20 19
19 20 21 24 24 24 23 18 18 19 19 24 24 23 23 22
23 23 22 21 21 19 22 22 24 24 24 24 25 24 23 24
25 24 24 25 25 25 26 26 26 26 27 28 28 27 28 29
29 29 29 29 30 30 31 31 32 32 32 33 33 32 33 33
34 33 33 33 33 34 34 34 34 34 34 34 35 34 35 35
0 7 41 38 31 31 31 30 30 30 30 30 29 30 29 29
29 28 28 28 27 27 27 27 27 26 26 25 25 25 25 25
24 24 23 23 23 23 22 22 22 21 21 21 21 20 20 20
20 20 22 24 25 24 23 18 18 21 19 25 25 25 24 24
24 24 22 22 21 18 22 23 23 23 24 24 25 24 25 25
25 25 26 26 25 26 26 27 27 27 27 28 28 28 29 29
29 30 29 30 31 31 32 32 32 31 33 33 32 32 33 33
32 32 33 32 34 34 34 34 35 34 34 34 35 34 35 34
0 8 41 38 31 30 31 31 31 30 30 30 30 30 29 29
29 29 29 28 28 28 28 27 27 27 27 27 26 25 25 25
24 24 24 23 23 24 23 23 23 22 22 22 21 20 21 20
20 21 22 25 25 25 24 18 18 22 19 25 26 25 24 24
24 24 23 23 22 20 22 23 25 25 25 25 26 25 25 26
26 26 26 25 26 27 27 27 27 27 28 28 29 29 29 29
30 30 30 31 31 31 32 31 32 32 31 32 32 32 33 33
33 34 34 33 34 34 33 34 34 35 35 35 35 35 35 35
0 9 41 37 31 31 31 31 31 31 31 31 30 30 30 30
29 29 29 29 29 28 28 28 27 27 26 26 27 26 26 25
26 25 25 24 24 24 23 23 23 22 22 22 22 21 21 21
21 22 23 26 26 26 25 19 19 23 20 25 26 26 26 25
25 25 23 24 23 20 23 24 25 25 25 26 27 26 26 27
27 26 26 27 27 27 28 28 28 28 29 29 30 29 30 30
30 30 31 31 31 31 32 32 32 32 32 33 33 34 33 34
34 34 35 35 34 34 34 35 35 35 35 35 36 35 35 35
0 9 40 36 31 31 31 31 31 30 30 30 30 30 29 29
29 29 28 29 28 28 28 28 28 27 26 27 26 26 25 25
25 25 24 24 24 24 24 23 23 23 22 22 22 22 21 21
21 22 23 26 26 26 25 20 19 25 20 26 26 26 26 25
24 25 24 24 23 20 23 24 26 26 26 26 27 27 27 27
27 26 27 27 27 27 28 28 29 29 30 30 30 30 29 29
30 30 31 31 31 32 33 32 33 33 33 33 34 34 34 34
34 34 35 35 34 34 34 34 35 35 35 35 36 36 36 35
5 17 41 36 31 31 31 31 30 30 30 30 30 30 30 30
29 29 29 29 29 28 28 27 27 27 27 26 26 26 26 26
25 25 25 25 24 24 24 23 23 23 23 22 22 22 21 22
22 22 24 26 27 27 25 19 20 26 20 26 27 26 26 26
24 24 24 24 24 21 24 25 26 26 26 27 28 27 27 27
27 27 28 28 29 28 29 29 28 29 29 29 28 30 29 30
31 31 32 33 33 33 33 33 33 33 33 33 35 34 34 34
34 34 35 35 34 34 35 35 35 35 35 35 35 35 35 35
20 27 39 35 31 32 32 31 31 30 30 30 30 30 30 30
30 29 29 29 28 29 28 28 27 27 27 27 27 26 26 25
25 25 25 25 24 24 24 24 24 23 24 23 23 22 22 22
22 22 23 26 27 26 25 19 20 26 21 25 27 26 26 26
25 25 24 25 24 21 24 24 26 26 27 27 28 27 27 28
27 28 27 28 28 28 28 28 29 29 29 29 30 30 31 31
31 31 32 33 33 33 33 33 33 33 33 34 34 34 34 34
34 34 35 35 34 34 34 34 35 35 35 35 35 35 35 36
32 33 35 33 31 32 31 32 31 31 31 30 30 30 30 30
29 29 29 29 29 29 29 28 28 27 27 27 27 27 26 26
26 26 26 25 25 24 24 24 24 23 23 23 23 22 22 22
22 23 24 27 27 27 26 21 21 27 22 24 27 27 27 26
25 25 26 25 24 22 25 25 27 27 27 27 27 27 27 27
27 27 28 28 29 29 29 29 29 29 29 30 30 31 32 31
32 32 33 33 33 33 34 34 34 34 34 34 34 34 35 34
34 34 35 36 34 35 35 35 36 35 35 36 36 36 36 36
24 26 30 31 32 32 32 31 31 31 31 30 30 30 30 30
30 29 29 29 29 29 29 28 28 28 27 27 27 26 26 26
26 26 26 25 25 25 25 25 25 23 24 23 23 22 23 23
23 23 24 27 28 28 26 20 21 27 23 25 29 27 27 27
26 25 25 25 25 22 25 25 27 27 27 27 27 27 28 27
27 27 28 28 29 28 29 30 29 29 30 30 31 31 31 32
32 32 33 33 33 33 33 33 34 34 33 33 34 34 34 34
35 34 34 36 35 35 35 35 35 35 35 36 36 36 36 36
12 16 19 22 25 28 30 31 31 31 30 30 30 30 30 29
29 29 29 29 30 29 29 28 28 28 28 27 27 27 26 26
27 26 26 26 26 25 25 25 24 24 24 24 24 23 23 22
23 24 25 28 28 28 27 21 21 28 25 24 28 27 27 27
26 26 26 26 25 22 25 25 27 27 27 28 28 28 28 28
28 29 29 29 30 29 30 30 30 31 31 30 31 32 31 32
32 32 33 34 33 34 34 34 34 34 34 34 34 34 34 35
34 34 35 35 35 35 35 35 35 36 36 36 36 36 36 36
10 11 10 11 13 14 16 20 23 25 28 29 30 30 30 29
29 29 29 29 28 29 28 28 28 28 28 27 28 27 27 27
26 27 26 26 26 25 26 25 25 25 25 24 24 24 23 23
23 24 25 28 28 28 27 21 21 29 26 23 29 29 29 28
27 26 26 26 26 22 26 26 28 28 28 28 29 29 29 29
28 29 30 30 30 30 30 30 30 30 31 32 32 32 32 33
33 33 33 34 33 33 34 34 34 34 34 34 34 34 34 35
35 35 35 36 35 35 36 35 35 35 35 35 35 35 35 36
17 15 11 11 11 11 11 11 12 10 11 17 28 30 30 30
30 29 30 29 30 30 29 29 29 29 28 28 27 27 27 26
27 26 26 26 26 26 26 25 25 25 25 24 24 24 24 23
24 24 26 28 29 28 27 22 21 29 27 23 28 29 28 28
27 26 27 26 26 24 27 27 28 28 28 29 29 29 29 29
29 29 30 30 31 30 30 30 31 31 31 31 32 32 32 33
33 33 33 34 34 34 34 35 35 35 35 34 35 35 35 35
35 35 35 34 33 34 35 35 35 35 36 36 37 35 35 36
36 29 16 17 15 12 10 10 11 8 6 12 26 30 31 30
30 29 29 29 29 29 29 28 28 28 28 27 28 28 27 27
27 27 26 27 26 26 26 25 26 25 25 24 25 24 24 24
23 25 25 28 28 28 27 21 21 29 29 22 29 28 29 28
27 27 27 27 26 24 26 26 28 28 28 28 29 29 29 29
29 30 30 31 31 30 30 30 31 31 31 32 32 32 32 33
33 33 34 34 34 34 34 34 35 35 34 34 34 33 33 34
34 34 35 35 35 35 35 36 35 35 36 36 36 34 35 34
43 35 23 29 31 27 22 19 16 11 8 12 25 30 30 30
29 29 30 30 30 30 30 29 29 28 28 28 28 27 27 27
27 27 28 31 30 28 27 25 25 25 25 24 25 24 25 24
24 24 26 28 29 28 28 22 22 29 30 22 29 29 29 28
27 27 27 27 27 24 27 27 28 29 29 29 30 30 30 29
29 29 30 31 31 31 31 31 31 31 32 32 33 33 33 33
34 33 34 34 33 33 34 34 34 34 34 34 34 34 35 35
35 35 35 35 35 34 35 35 36 35 36 36 36 36 35 35
43 37 28 34 37 34 35 37 35 25 10 12 26 31 30 30
30 30 36 36 34 33 31 30 29 28 28 28 28 28 27 27
27 27 33 39 36 34 32 29 26 25 25 25 25 24 24 24
24 25 26 28 28 28 28 22 22 29 30 22 28 29 30 29
28 28 28 27 27 24 27 27 29 29 29 29 29 29 30 30
30 30 30 31 32 31 31 31 31 31 31 32 32 32 32 33
33 33 33 33 34 33 34 34 34 34 34 35 34 35 35 35
35 35 35 35 35 35 35 35 35 35 36 35 36 35 35 35
23 35 31 35 38 38 40 43 43 33 11 13 27 31 30 30
30 31 39 40 38 36 35 34 34 31 30 29 28 27 27 28
27 27 33 38 36 35 35 34 30 26 26 25 25 24 25 24
24 25 26 28 29 29 28 22 21 28 30 22 27 29 29 28
28 28 27 27 27 24 27 28 29 29 30 30 29 30 29 30
30 30 30 31 31 31 31 30 31 32 32 32 32 33 32 33
33 33 33 33 33 34 34 33 34 34 34 36 35 34 35 35
35 35 35 35 34 35 35 35 35 35 35 36 36 35 35 35
5 33 33 36 37 39 41 43 44 36 13 15 30 33 32 32
31 32 39 40 39 36 37 38 39 34 35 34 32 30 28 28
28 27 30 30 30 31 34 34 31 26 26 25 25 25 25 25
25 26 26 28 29 29 27 20 19 21 29 23 26 29 29 29
29 29 28 28 27 25 28 28 29 29 30 30 30 30 30 30
31 31 31 31 31 31 31 31 31 32 32 32 33 32 32 32
34 33 33 34 34 33 33 34 34 33 34 35 35 35 35 35
35 35 35 36 36 35 35 36 35 35 36 35 36 36 35 35
7 33 28 30 33 39 41 41 41 35 14 15 31 34 31 33
34 34 32 19 27 33 38 40 41 33 23 26 31 32 33 33
32 30 28 17 13 16 20 23 28 26 26 26 26 26 25 25
25 26 27 29 30 29 24 17 17 18 30 24 26 30 29 29
29 29 29 28 28 26 28 28 30 30 31 30 31 30 31 30
30 31 30 30 31 31 32 32 32 32 32 33 33 33 33 33
33 33 34 33 33 33 33 34 34 34 34 36 35 35 35 35
35 35 35 35 36 35 35 35 36 37 35 35 37 35 36 36
10 32 9 5 13 21 28 32 34 34 14 15 31 35 30 30
35 38 26 0 2 13 22 24 30 27 2 1 6 11 17 24
30 31 29 14 5 7 6 1 19 27 26 26 25 25 25 25
25 26 27 29 30 30 27 20 21 26 32 25 20 19 21 22
25 30 28 29 28 26 28 28 30 30 30 30 30 31 31 31
31 31 31 31 31 32 31 32 33 32 33 33 34 33 33 33
34 34 34 34 34 34 34 34 34 34 34 36 35 35 35 35
35 35 35 35 36 36 36 35 36 36 36 36 36 36 36 37
7 32 5 0 0 0 2 4 9 31 16 14 20 27 31 33
37 41 28 0 0 3 9 11 17 25 1 0 0 0 0 1
5 15 28 12 0 0 3 0 18 29 27 26 27 26 26 26
26 26 28 30 31 30 30 24 23 30 32 19 8 14 18 20
24 31 29 30 30 27 28 28 30 31 31 32 31 32 32 32
32 32 31 32 32 32 32 33 32 32 33 33 34 34 34 34
34 34 35 35 35 35 34 35 35 35 35 36 36 35 35 35
35 35 35 36 35 35 36 36 36 37 37 36 37 37 37 37
7 33 5 0 0 0 0 0 2 30 16 9 1 2 7 14
23 30 26 0 0 0 2 5 13 26 2 0 0 0 0 0
0 6 27 8 0 0 0 0 19 29 27 27 26 26 26 26
27 27 28 30 31 31 30 24 23 21 14 3 3 3 2 6
13 28 34 34 30 30 33 29 31 31 32 31 32 32 32 32
32 32 32 32 33 33 33 33 33 33 33 34 35 34 34 34
34 34 35 35 35 35 35 35 34 35 35 36 36 35 35 35
35 35 36 36 36 36 36 36 37 37 37 37 37 37 37 36
7 32 4 0 0 3 0 0 3 31 16 9 0 0 0 0
0 3 14 1 0 0 0 0 10 24 1 0 0 0 0 0
0 6 26 4 0 0 0 0 21 30 28 27 27 26 27 26
27 28 28 31 32 30 26 18 8 3 3 2 3 5 4 8
18 29 19 33 41 38 31 30 33 32 32 32 32 32 33 32
32 33 32 32 33 33 33 33 33 34 34 34 35 35 35 35
35 35 35 35 35 35 36 35 35 35 36 36 36 36 35 35
36 36 36 36 36 37 37 37 37 37 38 38 36 37 37 36
8 33 4 0 0 9 2 0 2 30 15 9 0 0 0 0
0 0 8 0 0 0 0 0 11 25 1 0 0 1 5 0
0 5 26 3 0 0 0 0 21 31 27 27 27 27 26 27
27 27 29 31 28 11 9 12 10 10 9 9 7 10 15 25
32 19 12 18 29 32 38 31 24 29 32 32 32 33 33 32
33 32 32 32 33 33 33 34 34 34 35 34 35 34 35 34
35 36 35 36 35 35 35 35 36 36 35 37 36 37 36 36
36 36 36 36 36 37 37 37 37 37 37 37 37 37 37 37
7 31 3 0 0 4 2 0 3 29 15 9 0 0 0 0
0 0 6 0 0 0 0 0 11 28 1 0 0 3 10 6
1 4 25 2 0 0 0 0 19 32 28 28 29 28 27 27
27 28 26 24 18 9 9 11 16 19 17 13 14 22 18 9
13 13 13 21 27 27 27 34 32 23 26 30 33 34 33 33
33 33 33 33 33 33 33 33 34 34 34 35 34 34 35 35
35 35 36 36 36 36 36 36 36 36 36 36 36 36 37 37
36 36 37 37 36 37 37 38 37 37 37 37 37 37 37 38
7 29 2 0 0 0 0 0 3 28 13 8 0 0 0 3
0 0 5 0 0 0 0 0 10 29 2 0 0 5 12 10
8 4 25 3 0 0 0 0 17 32 27 28 27 27 27 27
28 27 18 21 9 4 6 2 8 20 14 9 11 17 37 30
49 52 47 40 32 25 28 29 27 27 23 17 27 33 32 33
33 33 32 34 33 33 33 34 34 34 35 34 35 34 35 35
35 35 36 36 36 35 35 35 36 35 36 36 37 37 37 36
36 36 36 37 38 37 38 38 37 37 37 37 37 37 37 37
10 27 1 0 0 0 0 0 3 29 14 8 0 2 0 1
0 0 5 1 0 0 0 0 12 29 3 0 0 2 8 10
7 4 26 9 1 0 0 0 15 31 27 27 27 27 27 26
27 26 19 22 5 0 3 1 0 5 13 22 50 77 97 99
105 107 105 99 89 73 54 35 29 26 23 19 16 27 32 32
33 32 33 32 32 33 33 33 33 34 34 34 34 34 34 35
35 35 35 35 35 36 35 35 35 35 35 35 36 35 35 35
36 35 35 36 37 36 37 37 37 37 37 37 38 38 38 38
28 32 12 4 4 3 2 0 6 27 12 8 0 1 0 0
0 0 6 2 0 0 0 0 14 33 10 3 2 0 1 5
5 2 28 30 22 17 13 11 23 32 26 26 26 26 26 25
25 25 16 17 3 0 1 0 0 15 63 100 113 119 122 122
122 119 117 116 114 112 107 94 62 33 23 22 20 14 25 31
31 31 31 31 31 32 31 32 32 32 33 32 33 33 33 33
33 34 34 35 35 34 35 35 34 35 35 35 35 34 35 35
35 34 34 35 36 36 36 36 37 37 36 37 37 36 36 36
35 43 41 25 26 27 28 24 25 27 12 8 0 0 0 0
0 0 15 24 15 12 7 3 10 38 29 22 21 16 9 7
6 6 30 38 35 34 35 38 39 33 26 26 27 26 26 26
26 26 17 11 2 0 1 0 24 85 106 100 92 101 107 116
121 116 108 99 92 83 82 92 97 85 45 22 16 19 13 26
31 31 32 32 32 32 32 32 32 32 33 33 33 33 33 33
34 34 34 35 35 34 35 35 35 34 34 35 36 35 35 35
35 34 35 35 36 35 36 35 36 36 35 33 32 32 32 33
36 50 42 26 32 38 40 39 39 29 11 8 0 0 0 0
0 0 21 43 36 35 34 31 31 40 23 15 18 21 21 20
21 24 34 33 33 34 38 41 42 33 27 27 26 26 26 26
27 28 21 9 0 0 0 19 86 82 42 34 45 91 107 116
117 114 111 91 60 36 32 28 36 71 88 51 22 10 12 11
29 31 32 32 32 32 32 32 33 33 33 33 33 33 33 34
34 34 35 35 35 34 35 35 34 35 35 35 34 34 34 35
33 33 33 35 35 33 33 31 31 30 28 26 24 22 21 20
38 47 33 24 32 38 39 42 42 30 12 10 5 2 0 0
0 0 22 41 37 41 43 44 38 33 18 10 10 10 11 11
12 14 17 16 19 24 30 31 31 29 27 27 27 27 27 26
27 28 25 16 4 1 9 70 62 26 44 55 72 100 113 125
120 119 120 94 73 69 71 50 28 18 38 72 50 19 6 1
14 32 32 32 33 33 33 33 33 33 33 33 33 34 34 35
35 35 35 35 35 34 34 33 33 33 33 33 33 32 30 31
29 28 27 26 24 23 21 19 19 17 17 17 17 18 18 18
37 42 19 6 13 18 21 26 32 29 12 15 28 29 23 16
11 8 25 33 35 42 43 44 38 29 19 12 11 10 9 8
7 6 6 7 9 13 25 24 24 25 27 28 27 27 27 26
27 27 25 21 9 4 40 51 25 54 88 110 117 120 126 131
130 129 129 114 112 102 102 96 84 64 36 27 52 36 15 6
0 14 30 32 33 32 32 32 32 33 34 33 34 34 34 34
34 34 34 34 33 32 33 34 30 28 27 25 24 22 21 20
19 18 18 18 19 19 19 20 20 21 23 23 24 24 23 16
36 42 15 0 0 0 0 0 10 28 13 16 35 42 42 39
38 35 37 25 25 33 37 40 36 31 22 13 11 7 6 7
8 7 8 8 9 14 23 15 23 27 29 26 25 27 27 27
28 28 27 26 11 15 48 25 64 106 126 133 133 132 133 133
133 133 131 131 133 131 128 128 129 123 109 60 28 48 15 11
6 0 13 29 32 33 32 32 33 33 34 33 33 33 31 30
29 27 26 25 23 21 24 34 23 18 19 19 19 20 20 21
22 22 23 24 24 25 26 26 26 27 27 25 27 29 27 13
32 43 15 0 0 0 0 0 6 27 13 15 34 42 42 42
43 43 39 12 3 7 12 18 21 25 23 12 9 2 1 1
6 9 8 7 10 16 26 24 29 33 32 24 15 25 27 27
28 27 26 27 21 33 29 75 121 133 133 133 132 133 133 133
133 132 132 132 131 129 126 126 126 130 131 114 56 35 35 2
8 5 6 23 31 31 30 30 28 28 26 25 24 22 22 20
20 19 19 20 20 20 19 29 22 20 23 25 25 25 27 27
27 28 29 28 29 30 30 31 31 31 30 26 25 31 32 21
28 40 11 0 0 0 4 12 17 26 19 17 28 34 36 37
39 41 36 7 0 0 0 0 6 22 23 11 8 0 0 0
1 3 2 1 5 11 28 34 29 29 30 29 24 27 28 27
28 22 20 26 26 29 63 124 134 133 130 129 127 128 128 130
129 130 128 126 125 120 107 81 69 92 123 130 106 44 44 11
0 4 5 16 22 23 22 21 21 20 20 20 21 21 22 22
24 24 25 25 27 26 25 31 24 25 29 29 30 30 31 31
32 32 33 32 32 33 33 33 33 31 33 34 29 27 33 29
26 36 9 0 0 0 8 21 22 23 21 20 21 23 26 29
30 35 33 5 0 0 0 0 1 23 24 9 5 0 0 1
0 0 0 0 0 4 29 33 23 22 24 26 29 28 27 28
27 19 19 27 26 41 110 133 125 98 79 97 114 118 113 113
109 107 106 111 118 108 70 49 62 59 64 107 122 83 36 34
1 0 2 7 20 21 22 23 24 25 26 25 26 27 27 28
29 30 31 31 32 30 27 27 24 29 32 33 33 34 34 34
35 34 35 34 34 34 34 32 33 32 32 35 36 29 27 31
27 35 8 0 0 0 3 13 17 20 18 17 19 19 23 27
28 35 33 4 0 0 0 0 0 22 19 2 0 0 0 5
4 1 0 0 0 4 28 34 20 23 27 24 27 28 28 28
28 25 25 24 26 76 129 113 67 49 45 47 87 110 113 125
124 108 90 93 107 90 67 82 65 77 72 68 116 106 43 44
14 0 0 2 21 27 29 29 30 30 30 31 31 31 32 32
33 33 33 33 34 32 22 11 13 29 35 35 35 35 35 36
36 36 36 36 36 36 36 34 33 34 32 35 37 36 28 26
30 36 7 0 0 0 0 0 3 15 14 17 15 14 20 25
29 35 31 4 0 0 0 0 0 25 14 0 0 0 0 3
10 5 1 0 0 3 29 35 17 18 21 20 26 29 29 28
29 28 25 20 34 103 112 68 76 85 83 75 69 99 128 134
134 130 103 83 85 92 102 88 64 69 80 66 100 115 61 45
28 4 0 0 10 31 32 32 32 32 33 33 33 34 34 34
35 34 32 29 27 30 19 7 7 27 36 37 37 36 36 36
37 36 36 37 36 36 37 36 34 33 32 33 37 37 35 25
33 36 6 0 0 0 0 0 2 18 16 18 4 0 2 5
9 12 19 3 0 0 0 0 1 26 13 0 0 0 0 5
12 10 6 0 0 3 28 36 20 16 17 18 26 28 29 29
28 28 24 30 45 117 103 67 77 53 62 83 84 105 134 134
134 132 121 87 72 76 99 123 129 125 108 72 84 115 75 41
41 12 6 0 0 24 34 33 34 34 34 35 35 35 34 35
35 31 14 8 8 23 18 5 6 27 35 36 37 37 36 36
36 36 37 37 37 37 37 36 36 34 32 31 36 37 35 30
34 36 6 0 0 1 0 0 3 24 21 20 4 0 0 0
0 0 7 3 0 0 0 0 0 25 11 0 0 0 2 13
16 11 6 0 0 4 27 36 24 19 12 14 24 28 29 29
29 29 25 33 61 122 88 79 110 116 103 87 84 116 132 133
134 123 123 104 75 64 90 129 134 133 129 102 89 119 87 43
51 18 12 2 0 14 34 34 35 34 34 35 36 35 35 35
36 32 20 19 23 28 18 0 3 26 35 36 37 36 37 36
36 36 37 36 37 37 36 36 36 35 33 30 31 33 32 30
31 31 9 0 0 2 0 0 2 27 23 20 4 0 0 0
0 0 6 3 0 2 6 0 0 24 8 0 0 0 1 7
14 4 0 0 0 3 26 37 26 15 5 7 22 28 29 29
29 25 24 34 69 122 98 116 135 129 111 97 97 126 75 119
132 52 66 127 86 80 89 123 134 133 132 120 97 108 95 50
56 25 14 8 0 10 34 35 35 35 36 35 36 35 35 35
36 35 35 34 34 33 21 1 5 27 35 36 37 36 37 37
37 36 36 36 37 37 37 36 36 36 36 32 28 27 26 30
23 26 20 10 5 9 11 5 5 28 22 19 4 0 1 5
0 0 5 3 0 9 12 3 0 25 9 0 0 0 0 0
11 1 0 0 0 1 24 37 22 9 2 4 21 28 29 29
29 24 24 42 80 121 110 128 134 124 113 107 110 125 23 98
132 86 25 122 104 85 93 120 133 133 132 128 110 96 98 58
58 34 16 22 0 2 32 35 35 35 36 36 36 36 36 36
37 36 36 35 34 33 26 5 7 29 36 36 37 36 36 37
37 37 36 37 37 37 37 36 36 37 36 36 31 27 27 34
18 26 25 26 24 25 29 27 25 33 22 17 4 0 6 13
3 0 7 13 9 17 17 12 5 26 8 0 0 0 0 0
11 3 0 0 0 0 21 36 16 6 0 4 21 28 29 29
27 20 27 48 87 113 117 134 132 120 111 108 117 120 31 114
131 119 47 115 112 87 97 114 119 123 124 121 116 101 91 66
59 40 19 33 5 0 21 35 35 35 35 36 35 35 36 36
36 35 36 35 34 32 28 15 17 32 36 37 38 37 37 37
36 36 36 36 37 37 37 37 37 37 37 36 34 27 28 35
22 28 21 7 6 12 20 27 37 36 25 17 4 0 5 8
1 0 10 32 32 36 34 33 31 36 10 0 0 0 0 0
12 5 0 0 0 0 16 35 13 4 0 7 22 28 30 30
28 23 37 55 95 107 123 129 124 113 110 113 122 132 99 120
130 120 102 129 116 86 117 122 119 117 116 117 116 109 88 70
61 45 16 29 16 0 8 35 35 35 35 36 36 35 36 36
36 36 36 36 35 32 29 27 29 34 36 37 37 36 37 37
36 37 37 37 37 37 37 37 37 37 36 36 35 28 27 35
23 29 18 0 0 5 7 13 35 35 23 17 8 0 0 0
0 0 10 36 38 40 40 42 46 44 23 12 12 6 4 6
17 9 4 3 1 0 13 31 13 2 2 5 17 27 30 30
28 30 38 61 98 110 120 120 119 123 122 122 115 126 108 117
123 114 97 112 101 95 131 131 127 126 122 119 116 114 100 71
61 44 13 19 18 0 1 31 35 35 35 35 36 36 36 36
36 36 36 36 35 33 31 31 34 36 37 36 38 37 37 37
37 37 37 37 37 37 37 37 37 37 37 37 35 28 24 26
24 30 16 0 0 12 19 20 35 31 19 19 17 3 0 0
0 0 9 34 37 37 37 41 45 44 34 30 29 26 24 24
25 20 17 15 13 13 20 32 20 12 11 7 13 26 30 30
27 33 33 68 100 117 121 123 130 131 132 129 106 96 111 120
120 120 108 91 86 109 129 133 132 131 129 125 118 115 106 84
58 45 17 20 13 4 1 29 35 35 35 35 36 36 36 36
37 36 35 36 35 34 33 33 36 37 37 37 38 38 38 37
38 37 37 37 37 37 38 38 37 37 37 36 35 28 25 29
26 32 15 0 0 5 18 25 36 27 19 20 16 1 0 0
0 0 10 32 32 34 34 35 34 33 33 33 34 32 31 33
31 30 28 26 24 23 26 35 33 28 26 21 20 26 30 30
27 20 22 72 108 118 124 132 135 134 134 121 97 109 127 127
125 124 120 107 87 98 116 132 133 133 132 129 121 114 107 91
62 47 18 17 6 2 5 32 35 35 35 35 36 36 36 36
37 36 36 35 36 34 34 35 36 36 37 36 37 38 37 38
38 37 37 37 38 38 37 38 37 37 35 36 35 28 27 33
28 34 17 0 0 0 2 21 38 27 18 20 16 6 3 2
1 0 12 35 31 31 32 32 31 31 34 35 36 37 37 33
33 32 35 38 36 32 32 36 37 36 35 34 31 29 30 30
25 10 19 81 112 120 130 134 134 132 126 104 107 128 124 124
121 122 122 123 110 90 103 121 132 133 133 130 123 112 104 92
67 51 22 16 3 0 7 31 35 35 35 35 35 36 36 36
37 36 36 36 36 35 35 36 37 36 36 37 37 37 37 37
37 37 37 36 37 38 38 37 37 37 36 35 35 28 26 33
29 34 17 0 0 0 0 17 38 27 18 19 26 30 28 25
24 23 29 39 33 32 33 33 34 37 38 36 38 42 42 34
31 31 37 42 41 37 37 35 29 25 25 26 26 28 30 29
21 3 21 91 115 125 133 135 134 127 111 107 126 124 125 122
119 119 124 123 122 108 97 110 126 131 130 129 121 114 105 93
71 56 24 16 5 0 5 32 34 34 35 35 35 35 35 36
36 36 36 36 36 35 36 37 37 37 37 37 38 38 37 37
37 37 37 36 37 37 37 37 37 37 36 36 36 29 26 33
28 34 15 0 0 0 0 16 39 28 19 20 32 45 45 44
45 46 46 44 35 32 33 33 37 41 42 36 37 42 42 34
29 27 34 40 39 37 38 37 32 26 23 23 25 28 30 28
17 2 25 98 117 128 133 135 129 118 108 122 125 120 112 113
114 111 110 112 119 116 112 109 110 124 125 125 121 113 106 91
71 59 25 12 7 0 2 32 35 34 35 35 37 35 36 36
36 36 36 36 37 36 37 38 37 37 37 38 37 38 37 37
37 37 37 37 37 38 37 37 37 38 37 38 36 30 27 32
27 34 13 0 0 0 0 16 39 28 18 21 29 41 43 43
44 45 46 43 24 19 17 17 22 32 41 37 33 29 29 28
25 25 29 26 19 20 25 27 31 31 28 29 30 31 32 29
12 1 35 101 118 126 131 133 125 112 123 123 112 107 118 130
132 128 123 108 100 106 120 127 116 115 124 122 118 113 105 90
71 61 28 8 9 0 3 31 35 34 35 35 36 36 36 36
36 36 36 36 37 37 37 37 38 37 37 37 37 37 37 37
38 37 37 37 37 37 36 37 37 37 37 37 36 30 26 32
27 34 12 0 0 0 0 12 36 24 17 20 22 26 27 28
29 30 32 31 9 1 0 0 1 10 35 35 19 5 6 8
12 23 29 13 0 0 3 11 25 28 26 29 32 35 36 31
12 1 44 102 118 125 128 127 120 122 132 112 106 127 134 125
120 120 129 131 121 98 102 129 130 113 116 118 117 110 104 90
71 59 32 4 8 1 5 32 34 34 35 35 35 35 36 35
35 34 35 35 36 37 37 37 37 37 37 37 37 37 37 37
37 37 37 37 36 37 37 37 37 36 37 36 36 31 26 32
27 35 13 0 0 0 0 13 37 25 16 19 23 28 27 26
26 25 26 24 7 0 0 0 0 9 35 29 5 0 0 0
6 25 29 11 0 0 0 7 20 14 9 12 14 19 35 33
10 2 50 101 117 123 123 122 121 132 126 105 126 135 134 130
127 129 132 132 130 118 99 107 133 121 113 115 113 108 103 90
71 58 34 8 4 1 9 32 32 32 33 35 35 35 34 28
27 26 25 24 27 33 37 37 37 37 37 37 37 37 37 37
37 36 36 36 37 38 37 36 36 37 37 37 37 31 27 31
32 31 12 0 0 0 0 14 40 27 15 19 25 32 33 32
32 32 32 27 8 0 0 0 0 12 34 21 0 0 0 0
2 26 30 10 0 0 0 5 20 7 2 6 1 4 31 33
6 2 50 99 116 122 122 119 124 135 117 120 131 134 134 133
129 126 132 134 132 123 112 104 129 125 114 111 108 106 102 88
70 56 38 18 1 3 5 18 17 19 25 33 35 35 31 14
11 10 10 9 13 31 38 37 37 37 37 37 37 37 36 36
36 36 36 36 37 38 37 36 36 36 37 37 37 32 27 30
32 26 17 10 7 5 4 19 37 26 18 21 27 33 34 33
34 34 35 29 7 0 0 0 1 7 30 17 0 0 0 0
2 26 29 10 0 0 0 3 19 8 2 7 2 3 30 33
7 3 46 98 113 118 118 118 124 134 126 127 133 135 134 128
120 116 125 133 132 128 117 110 120 123 117 109 101 104 102 88
71 56 50 55 18 1 1 5 4 5 14 32 35 35 30 12
7 8 8 8 11 31 38 38 38 37 37 38 37 36 36 36
37 36 37 37 37 37 37 36 37 36 37 37 38 33 26 30
30 29 28 28 26 25 24 27 32 28 27 28 30 32 32 32
33 33 33 29 10 0 0 0 3 4 28 15 0 0 0 0
2 26 27 9 0 0 0 0 17 11 1 4 1 2 28 33
8 2 39 95 109 114 115 118 127 131 128 132 134 134 127 113
116 114 115 125 132 129 120 116 117 121 119 107 103 101 98 86
70 54 56 84 67 28 1 4 4 4 12 31 35 35 29 11
7 7 7 7 11 30 38 37 38 37 37 37 37 36 36 36
37 36 37 36 36 37 37 37 37 37 37 37 37 33 26 29
28 28 29 29 29 29 29 29 29 28 29 29 29 30 30 29
30 30 30 29 19 1 0 0 3 3 26 13 0 0 0 0
1 25 28 11 0 0 0 0 16 13 1 3 1 2 28 34
10 8 60 93 109 112 114 120 125 126 130 131 132 128 117 118
118 117 116 113 121 124 118 114 115 117 118 109 102 101 98 85
68 54 61 92 68 46 9 3 4 4 11 31 35 35 29 11
7 8 8 7 9 28 38 38 38 38 37 37 37 35 36 36
36 36 36 36 36 36 37 37 37 37 37 37 37 33 25 28
27 27 27 27 27 27 28 28 28 28 28 27 28 28 28 28
28 29 29 29 21 1 0 0 1 2 25 13 0 0 0 0
0 23 28 12 0 0 0 0 16 16 0 0 0 1 26 33
20 69 86 90 107 111 113 122 123 127 129 127 122 116 121 123
123 122 119 110 111 117 113 111 111 112 112 108 101 101 97 83
70 54 59 85 72 46 25 3 5 4 11 31 35 35 30 14
10 10 11 11 11 26 36 37 36 36 36 37 36 36 36 36
36 37 36 36 34 34 35 36 37 37 37 37 37 33 27 28
12 12 12 12 12 12 12 12 12 12 13 13 14 14 14 16
16 18 24 27 21 0 0 0 0 1 25 14 0 0 0 0
0 22 29 9 0 0 0 0 14 19 0 0 0 2 26 32
54 87 89 89 105 110 111 117 122 124 122 121 112 116 122 127
129 130 121 113 106 110 111 108 106 107 105 104 100 99 95 83
72 55 64 84 85 62 41 3 4 4 12 30 35 34 32 18
14 13 13 14 15 25 35 38 37 37 37 37 37 36 36 36
37 37 36 20 10 9 12 28 37 37 37 36 36 33 27 28
0 0 0 0 0 0 0 0 0 0 0 0 0 0 0 0
0 3 19 27 22 2 0 0 1 1 24 20 1 1 1 1
2 23 31 17 7 6 7 9 22 23 2 0 0 3 26 31
71 77 82 89 105 108 110 114 112 115 118 117 113 120 127 133
133 130 124 119 107 105 104 104 102 102 96 100 101 99 94 85
72 54 68 79 74 77 52 3 5 4 11 30 35 36 32 16
10 10 10 10 11 23 36 37 37 37 38 37 37 37 36 36
37 36 35 10 0 0 0 21 37 36 36 37 37 34 27 27
0 0 0 0 0 0 0 0 0 0 0 0 0 0 0 0
0 1 22 28 26 16 11 13 20 19 29 31 25 24 25 25
26 35 34 27 32 32 33 37 41 34 16 12 11 14 27 31
84 97 83 88 104 106 108 108 108 111 115 113 113 119 130 134
132 129 120 116 108 106 103 100 99 97 95 96 97 95 93 84
72 55 78 94 73 88 58 4 5 4 10 30 36 36 32 15
8 9 9 9 9 24 37 38 38 37 37 37 37 37 36 36
37 36 34 8 0 0 0 14 36 36 36 36 36 34 27 27
0 0 0 0 0 0 0 0 0 0 0 0 0 0 0 0
0 1 21 28 28 32 33 35 36 32 30 36 44 43 42 43
45 46 38 28 35 38 42 47 49 43 30 28 27 28 30 32
91 103 88 87 103 104 105 104 104 107 110 113 113 118 123 127
124 123 114 115 110 109 103 95 94 90 90 92 90 91 86 82
70 57 91 95 86 93 65 8 5 3 9 30 35 36 32 15
8 8 9 9 9 23 37 37 37 36 37 37 37 37 37 36
36 36 33 6 0 0 0 8 36 36 36 36 36 33 27 26
0 0 0 0 0 0 0 0 0 0 0 0 0 0 0 0
0 0 20 29 28 32 36 38 38 32 26 28 38 40 39 39
40 40 36 26 29 34 37 39 40 37 30 29 29 29 29 33
93 108 96 86 99 101 103 102 100 102 104 110 114 116 116 114
118 117 110 113 111 108 99 91 87 84 84 88 86 84 79 79
68 61 95 101 92 85 72 10 5 5 9 29 35 35 32 16
8 8 8 8 9 23 36 37 37 37 36 36 37 37 36 33
21 19 18 2 0 0 0 7 35 37 36 36 36 34 27 26
0 0 0 0 0 0 0 0 0 0 0 0 0 0 0 0
0 0 18 29 27 28 30 34 37 33 27 25 25 25 25 25
26 27 28 26 28 31 31 29 26 28 29 30 30 29 29 31
86 111 113 86 97 97 98 97 96 97 99 108 111 112 109 108
113 109 108 109 102 103 92 86 80 77 79 79 81 79 75 76
64 69 99 99 91 82 63 7 6 5 10 30 35 36 33 16
8 8 8 9 9 23 37 37 37 37 36 37 37 37 36 17
0 0 0 0 0 0 0 6 35 36 36 36 36 34 27 25
0 0 0 0 0 0 0 0 0 0 0 0 0 0 0 0
0 0 17 29 26 23 19 22 26 24 23 25 23 23 25 27
28 27 30 31 33 36 35 32 27 27 29 30 30 30 29 30
66 106 116 81 92 94 92 91 88 88 91 98 102 107 109 98
100 104 99 94 90 94 85 82 70 71 71 72 74 75 75 69
58 55 82 92 84 76 46 3 6 5 10 29 35 36 33 15
7 8 9 9 9 24 37 37 37 37 37 37 37 37 35 10
0 0 0 0 0 0 0 6 35 36 35 36 36 34 28 26
0 0 0 0 0 0 0 0 0 0 0 0 0 0 0 0
0 0 15 29 26 15 2 2 4 7 15 25 28 33 35 40
39 28 27 29 31 35 40 36 29 28 29 30 30 30 30 29
58 107 119 83 85 88 88 85 83 81 79 86 95 97 96 93
93 89 89 85 80 84 79 68 69 65 64 68 70 73 69 66
54 19 10 30 48 50 20 4 7 5 9 29 35 36 33 16
7 8 9 9 8 23 37 37 37 37 37 37 38 37 36 17
0 0 0 0 0 0 0 6 35 36 36 36 36 35 28 26
0 0 0 0 0 0 0 0 0 0 0 0 0 0 0 0
0 0 13 29 26 13 0 0 0 0 14 27 30 38 35 38
37 13 5 7 8 15 35 38 30 30 30 30 30 30 30 30
61 102 113 76 80 86 86 80 79 71 68 78 88 87 92 92
91 95 94 91 87 77 73 57 56 56 55 59 70 67 64 62
52 25 0 0 6 8 5 4 6 6 9 29 36 37 34 19
11 12 10 10 12 24 37 38 38 38 37 38 37 37 37 30
5 0 0 0 0 0 0 4 26 37 37 37 36 36 30 26
0 0 0 0 0 0 0 0 0 0 0 0 0 0 0 0
0 0 11 28 26 13 0 0 0 0 13 28 28 36 22 15
26 6 0 0 0 3 30 38 31 30 30 30 30 30 30 30
46 62 44 29 75 79 79 74 72 66 60 66 78 84 91 94
93 95 94 87 83 78 69 53 47 47 49 56 63 62 63 59
52 24 0 0 4 5 5 4 5 5 9 29 35 37 36 30
27 28 23 25 27 31 37 38 38 38 37 37 37 36 26 28
9 0 0 0 0 0 0 0 12 37 37 36 36 35 30 28
0 0 0 0 0 0 0 0 0 0 0 0 0 0 0 0
0 0 9 27 25 14 0 0 0 0 13 27 27 35 16 3
21 6 0 0 0 2 27 38 31 30 29 30 29 29 29 29
29 32 29 13 61 75 74 72 70 66 61 65 70 75 83 90
92 92 91 82 79 73 57 50 51 51 51 58 61 61 59 52
50 8 0 1 3 4 4 4 4 5 9 27 34 36 36 36
36 37 36 36 37 37 38 38 38 38 38 38 36 23 3 1
8 8 0 0 0 0 0 0 10 36 36 36 36 35 29 26
0 0 0 0 0 0 0 0 0 0 0 0 0 0 0 0
0 0 7 27 25 14 0 0 0 0 15 27 27 35 16 3
20 8 0 0 0 0 23 37 31 30 29 29 29 29 29 28
29 29 30 12 30 67 70 67 65 65 66 67 72 78 85 92
95 93 87 82 76 67 53 56 56 58 62 61 61 62 53 47
47 2 0 3 4 4 4 4 4 4 7 26 33 34 35 36
37 37 38 38 37 34 31 30 28 26 25 25 16 2 0 0
6 5 0 0 0 0 0 0 4 32 36 36 36 34 29 26
0 0 0 0 0 0 0 0 0 0 0 0 0 0 0 0
0 0 6 26 25 16 0 0 0 0 14 26 27 35 15 2
19 8 0 0 0 0 20 36 30 29 29 29 29 30 29 29
29 29 30 15 15 58 64 62 69 72 72 71 74 83 87 91
95 89 88 82 75 67 60 61 66 68 69 60 61 53 44 56
42 0 1 6 5 5 5 4 5 5 11 26 32 33 33 35
36 36 37 36 27 9 7 57 27 1 2 3 0 0 0 7
0 0 0 0 0 0 0 0 0 25 36 35 35 34 29 26
0 0 0 0 0 0 0 0 0 0 0 0 0 0 0 0
0 0 5 25 25 17 1 0 0 0 12 27 28 35 17 1
18 12 0 0 0 0 19 36 30 28 29 28 28 28 28 28
28 28 29 21 13 71 51 58 65 75 76 76 80 83 83 94
100 93 91 81 77 73 70 67 70 67 67 64 61 49 48 63
36 0 5 18 15 14 13 7 5 11 18 26 29 30 32 34
35 36 35 34 18 0 50 132 107 12 5 21 1 0 1 13
0 0 0 0 0 0 0 0 0 6 21 20 27 33 30 26
0 0 0 0 0 0 0 0 0 0 0 0 0 0 0 0
0 0 5 25 24 18 2 0 3 1 11 27 28 36 21 4
17 14 2 1 1 0 18 36 30 28 29 29 28 28 28 28
28 27 28 24 8 80 57 49 63 73 80 79 82 86 93 102
105 97 89 91 88 81 76 81 77 72 67 65 58 49 59 67
31 3 14 26 23 21 20 11 2 14 21 26 28 29 31 33
34 34 24 22 9 1 59 101 97 21 11 23 16 11 16 21
11 8 7 5 4 4 3 3 2 2 4 4 21 35 30 27
0 0 0 0 0 0 0 0 0 0 0 0 0 0 0 0
0 0 4 24 24 19 4 0 8 10 14 29 30 37 26 9
16 13 4 7 3 0 16 34 29 28 29 29 28 29 28 28
28 28 28 24 6 75 82 55 61 71 78 82 89 93 100 102
105 101 98 98 98 93 84 83 80 74 64 62 56 56 66 69
25 6 22 28 25 24 22 13 1 14 22 25 27 28 29 32
34 33 14 13 14 14 17 20 22 23 25 27 29 28 28 27
24 21 18 16 13 11 11 9 8 8 7 8 25 38 35 30
0 0 0 0 0 0 0 0 0 0 0 0 0 0 0 0
0 0 3 23 24 21 20 19 25 27 28 35 31 36 25 15
16 15 10 11 8 5 17 30 28 28 29 28 29 28 28 28
28 28 28 23 6 67 94 70 58 69 76 86 93 99 107 103
104 103 106 100 102 95 86 82 81 71 61 59 59 61 69 66
18 5 26 29 25 24 23 14 1 14 22 24 26 27 29 32
34 33 14 10 11 11 13 13 14 15 16 18 20 17 17 16
11 8 6 4 2 8 31 35 36 37 38 41 45 48 45 40
0 0 0 0 0 0 0 0 0 0 0 0 0 0 0 0
0 0 2 22 24 25 38 42 44 43 44 43 35 35 18 13
17 23 20 20 19 19 21 25 27 27 28 28 28 28 28 27
28 28 27 24 4 62 99 86 69 64 72 80 93 104 111 108
110 109 107 105 101 98 94 88 79 63 59 62 66 67 74 65
11 9 29 28 26 25 23 15 1 14 21 23 26 27 29 31
33 34 23 5 0 0 0 0 0 0 0 0 0 0 0 0
0 0 0 0 0 21 55 56 56 56 55 54 51 48 45 40
0 0 0 0 0 0 0 0 0 0 0 0 0 0 0 0
0 0 2 21 23 24 40 45 45 45 44 43 36 34 14 5
14 25 24 24 23 23 23 24 26 27 28 28 29 29 28 27
27 27 27 26 7 57 101 95 83 72 69 78 91 102 111 114
110 114 114 110 106 103 94 88 77 64 63 69 73 77 81 62
7 16 30 29 26 26 24 16 2 13 21 23 25 27 28 31
33 33 23 1 0 0 0 0 0 0 0 0 0 0 0 0
0 0 0 0 0 33 53 52 53 52 50 44 46 43 39 36
0 0 0 0 0 0 0 0 0 0 0 0 0 0 0 0
0 0 2 21 22 21 27 28 27 26 26 24 26 32 12 1
14 26 26 27 26 26 26 26 27 27 28 28 28 28 27 27
27 27 27 27 12 54 100 100 94 82 76 76 89 104 114 115
115 118 120 112 114 105 94 86 73 66 68 77 85 88 82 60
5 22 29 29 28 27 25 17 2 12 21 23 24 26 28 30
32 32 14 0 0 0 0 0 0 0 0 0 0 0 0 0
0 0 0 0 2 32 38 38 45 40 37 29 32 32 27 30
0 0 0 0 0 0 0 0 0 0 0 0 0 0 0 0
0 0 1 20 22 18 15 14 15 14 14 13 20 32 14 0
12 26 26 27 27 27 27 27 27 27 27 28 28 28 28 27
27 26 26 27 19 52 100 103 102 93 87 78 85 104 114 115
116 119 124 121 115 108 96 88 74 66 71 82 91 93 83 56
5 19 24 26 28 27 25 18 2 11 22 24 24 25 27 29
31 31 9 0 0 0 0 0 0 0 0 0 0 0 0 0
0 0 0 0 0 7 6 6 30 32 29 25 23 24 24 28
0 0 0 0 0 0 0 0 0 0 0 0 0 0 0 0
0 0 2 21 23 19 16 16 16 15 15 13 21 33 20 12
20 27 25 27 26 27 26 27 26 27 27 27 27 27 27 26
26 26 25 26 21 50 102 107 105 96 90 84 89 104 114 117
122 121 123 122 115 106 97 88 79 72 78 86 95 98 85 53
9 12 14 21 26 25 24 18 3 10 22 23 25 25 26 27
29 25 2 0 0 0 0 0 0 0 0 0 0 0 0 0
0 0 0 0 0 0 0 0 17 35 33 31 30 30 29 28
0 0 0 0 0 0 0 0 0 0 0 0 0 0 0 0
0 0 5 23 23 19 20 19 18 18 17 14 22 34 31 32
34 29 25 26 26 26 26 26 26 26 26 26 26 26 27 26
26 25 24 25 23 47 101 110 109 97 91 88 89 105 118 122
126 127 125 125 118 109 102 91 82 75 81 90 98 101 86 53
7 7 10 17 23 23 23 19 3 9 22 24 25 25 26 26
27 16 0 0 0 0 0 0 0 0 0 0 0 0 0 0
0 0 0 0 0 0 0 0 8 33 33 32 31 29 28 28
0 0 0 1 1 1 2 2 4 4 5 6 7 8 9 10
11 11 15 23 21 19 21 20 21 20 19 16 19 27 25 28
29 25 24 26 26 26 26 26 25 26 25 25 25 26 26 25
25 25 24 24 21 48 102 113 114 100 92 92 91 106 118 126
131 130 129 128 121 114 99 90 83 75 79 97 103 99 85 52
4 5 8 14 21 22 22 18 4 8 21 23 24 25 25 25
25 6 0 0 0 0 0 0 0 0 0 0 0 0 0 0
0 0 0 0 0 0 0 0 3 28 30 28 28 29 27 27
9 9 11 13 14 15 16 16 17 18 18 19 19 19 19 19
20 20 19 19 19 19 20 20 20 20 19 17 19 21 19 20
22 22 25 25 26 25 25 25 25 25 25 25 25 25 26 26
25 25 24 23 19 47 100 115 117 106 98 93 94 106 120 128
132 134 132 129 126 117 101 87 84 79 84 102 105 101 87 50
5 7 7 11 19 22 21 18 4 7 21 22 23 25 24 24
20 2 0 0 0 0 0 0 0 3 0 0 0 0 0 0
0 0 0 10 0 0 0 0 0 21 23 18 19 19 17 18
14 12 16 17 19 18 18 19 19 19 19 19 19 20 20 19
18 19 19 19 19 19 21 21 21 20 20 18 20 21 20 20
22 23 24 25 25 25 25 26 25 25 24 25 25 25 25 25
25 25 24 23 19 48 101 114 119 110 100 94 95 104 121 127
133 133 134 133 127 115 98 88 87 85 90 105 107 102 85 47
8 9 7 9 15 20 20 17 4 5 20 22 23 24 23 23
11 0 0 0 0 0 0 0 0 0 0 0 0 0 0 0
0 0 2 21 0 0 0 0 0 15 20 18 19 18 15 17
13 11 15 17 18 18 19 18 20 25 26 14 8 10 14 14
9 12 17 17 17 19 21 21 21 21 21 19 20 22 22 22
23 23 24 25 25 25 25 25 25 24 25 25 25 25 25 24
24 25 25 26 24 48 100 114 120 117 108 96 97 105 116 126
134 134 135 134 124 110 97 87 89 86 96 106 108 101 82 46
11 11 9 9 11 18 20 18 5 4 20 23 23 23 23 22
8 0 0 0 0 0 0 0 0 0 0 0 0 0 0 0
0 0 10 25 0 0 0 0 0 10 23 25 26 24 22 24
9 9 10 11 12 12 12 15 32 43 27 2 0 0 0 1
0 1 8 13 13 12 11 9 10 15 20 20 21 22 22 22
22 23 24 24 25 24 24 24 25 24 24 24 24 24 24 23
21 21 24 25 27 47 98 113 121 121 115 101 99 109 114 122
128 134 135 132 123 108 98 91 91 92 105 111 108 98 82 46
14 11 8 7 8 16 19 17 8 8 20 23 23 23 23 24
4 0 0 0 0 0 0 5 0 0 0 0 0 0 0 0
0 0 14 18 0 0 0 0 0 4 24 27 28 28 27 26
0 0 0 0 1 3 6 27 49 36 6 0 0 0 0 0
0 0 0 0 0 0 0 0 0 2 14 21 21 22 22 23
22 23 23 24 24 24 25 24 24 24 24 24 23 21 20 22
19 16 19 24 29 46 93 112 121 124 121 107 103 109 118 125
130 134 135 130 120 109 105 97 93 98 110 111 105 97 79 41
13 15 9 6 7 15 19 18 16 17 21 23 22 22 24 26
1 0 0 0 0 0 1 12 0 0 0 0 0 0 0 0
0 0 4 3 0 0 0 0 0 0 12 21 22 22 23 24
0 0 0 0 0 6 15 41 44 13 0 0 0 0 0 0
0 0 0 0 0 0 0 0 0 0 7 21 21 22 22 23
23 22 23 24 24 24 24 24 23 24 24 24 24 20 17 21
23 19 17 22 31 39 90 110 119 124 124 112 108 112 119 126
132 134 135 127 120 116 110 101 97 105 113 113 107 95 76 39
14 28 23 21 17 19 20 18 18 20 21 20 21 22 22 12
0 0 0 0 0 0 0 0 0 0 0 0 0 0 0 0
0 0 0 0 0 0 0 0 0 0 2 10 15 14 17 23
0 0 0 0 0 5 26 41 23 1 0 0 0 0 0 0
0 0 0 0 0 0 0 0 0 0 7 21 22 22 22 22
23 22 23 23 23 24 24 23 23 23 23 23 22 16 14 17
22 22 20 31 31 32 86 107 119 124 124 118 112 113 120 127
132 131 131 126 122 119 113 103 101 111 115 114 106 92 73 36
27 34 36 39 37 35 31 26 20 16 14 12 12 12 11 3
0 0 0 0 0 0 0 0 0 0 0 0 0 0 0 0
0 0 0 0 0 0 0 0 0 0 6 9 17 18 19 23
0 0 2 2 0 5 35 33 4 0 1 3 0 0 0 0
0 0 0 0 0 0 0 0 0 2 16 23 23 22 22 23
23 22 22 22 23 23 23 23 23 23 22 21 18 16 15 16
23 30 29 39 38 36 84 103 116 126 127 122 117 114 120 128
134 131 127 125 124 121 115 105 107 116 117 115 104 90 71 34
38 36 31 32 37 25 17 13 7 3 2 1 1 1 0 0
0 0 0 0 0 0 0 0 0 0 0 0 0 0 0 0
0 0 0 0 0 0 0 0 0 0 10 16 19 26 26 26
0 3 7 7 0 8 39 24 3 11 19 19 2 0 0 0
0 0 0 0 0 0 0 0 0 10 19 20 20 20 22 23
23 22 23 23 23 23 23 23 23 22 21 20 18 18 18 15
21 29 36 42 45 45 82 101 115 124 128 123 119 117 121 129
134 134 131 131 129 123 116 105 112 121 117 114 103 89 71 37
43 37 30 19 24 5 0 0 0 0 0 0 0 0 0 0
0 0 0 0 0 0 0 0 0 0 0 0 0 0 0 0
0 0 0 0 0 0 0 0 0 0 5 11 11 26 26 26
8 9 9 6 0 14 35 11 7 25 27 24 8 0 5 9
1 0 0 0 0 0 0 0 0 1 3 4 4 8 20 22
23 22 22 22 22 22 23 23 23 21 20 20 21 19 17 18
19 23 42 46 52 52 82 101 115 123 128 130 127 118 121 130
135 136 135 135 132 127 117 108 116 125 119 114 100 90 70 45
43 39 32 18 23 10 3 2 0 0 0 0 0 0 0 0
0 0 0 0 0 0 0 0 0 0 0 0 0 0 0 0
0 0 0 0 0 0 0 0 0 0 0 0 2 21 27 27
11 7 5 1 0 21 33 4 5 27 28 26 6 3 21 24
15 2 0 1 0 0 0 0 0 0 0 0 0 1 16 21
22 21 22 21 22 21 22 23 22 20 20 18 21 19 18 18
18 29 45 46 54 68 82 102 113 122 134 135 132 122 124 132
137 137 136 136 136 131 119 112 122 131 122 113 100 91 65 46
44 40 32 16 22 24 16 14 3 0 0 0 0 0 0 0
0 0 0 0 0 0 0 0 0 0 0 0 0 0 0 0
0 0 0 0 0 0 0 0 0 0 0 0 0 12 27 26
9 1 0 0 0 26 33 3 7 24 16 21 12 17 32 28
20 6 0 1 0 0 0 0 0 0 0 0 0 0 14 21
21 21 21 21 21 21 22 23 22 21 21 22 24 23 20 18
19 38 43 48 52 80 77 102 110 122 135 137 134 126 127 133
137 138 137 137 136 131 121 116 126 133 124 114 103 94 65 46
45 40 32 23 15 14 5 2 0 0 0 0 0 0 0 3
15 10 0 0 0 0 0 0 0 0 0 0 0 0 0 0
0 0 0 0 0 0 0 0 0 0 0 0 0 5 21 21
7 1 0 0 0 29 34 4 6 11 0 13 21 30 35 25
19 10 0 1 0 0 0 0 0 0 0 0 0 0 13 21
20 20 21 20 21 20 21 21 22 21 24 29 32 27 26 24
33 39 41 50 51 89 72 105 108 121 133 138 135 131 130 135
137 137 137 137 136 131 123 122 131 134 125 115 106 91 68 45
45 40 32 28 20 19 19 21 27 23 15 6 0 0 0 12
26 15 1 0 0 0 0 0 0 0 0 0 0 0 0 0
0 0 0 0 0 0 0 0 0 0 0 0 0 2 18 20
7 4 2 0 0 29 38 11 6 5 1 16 29 37 32 11
13 12 0 0 0 0 0 0 0 0 0 0 0 0 8 21
22 22 21 20 20 20 23 28 34 37 40 43 42 33 29 30
39 38 41 49 51 93 73 105 107 119 132 137 136 135 132 135
136 136 137 136 135 130 124 127 134 133 126 116 107 88 62 45
48 42 33 27 22 21 22 33 44 45 46 43 37 21 7 3
5 2 0 0 0 0 1 3 0 0 0 0 2 0 0 0
0 0 0 0 0 0 0 0 0 0 0 0 0 0 16 19
12 12 11 0 0 24 39 21 10 2 1 17 33 37 19 0
9 12 0 0 0 0 0 0 0 0 0 0 0 0 5 27
31 31 25 25 31 35 41 42 44 45 47 46 42 34 25 30
40 41 40 50 54 80 81 99 109 117 130 136 137 136 135 136
136 135 136 135 133 131 129 132 135 132 127 118 103 99 55 50
49 40 33 27 17 14 20 34 46 48 45 44 47 45 44 37
27 16 7 1 0 0 2 7 0 0 0 2 5 0 0 0
0 0 0 0 0 0 0 0 0 0 0 0 0 2 13 19
16 14 12 1 0 19 32 27 10 0 1 20 33 23 6 0
7 9 0 0 0 0 0 0 0 0 0 0 0 0 5 34
41 42 41 44 43 42 44 44 49 51 50 48 43 36 30 35
38 40 40 46 58 67 97 78 111 116 128 135 137 137 137 137
136 136 136 134 134 132 132 135 135 132 127 118 99 105 50 48
47 39 33 27 26 13 14 27 47 48 43 45 43 45 46 46
48 47 46 41 32 22 15 11 0 0 0 2 7 1 0 0
0 0 0 0 0 0 0 0 0 0 0 0 0 2 10 17
16 15 14 1 0 16 32 31 10 0 1 14 14 3 0 0
0 0 0 0 0 0 0 0 0 0 0 0 3 14 25 42
43 41 45 45 45 41 44 44 51 55 51 47 41 36 27 37
38 39 38 44 54 58 107 71 106 118 126 135 137 137 137 137
136 135 135 134 136 134 135 136 136 133 127 109 116 91 49 47
44 37 33 28 28 22 21 29 42 47 43 38 43 46 44 52
48 53 51 46 48 49 47 42 35 24 7 2 8 2 0 0
0 0 0 0 0 0 0 0 0 0 0 0 0 4 9 18
19 15 13 2 0 4 12 10 2 0 0 0 0 0 0 0
0 0 0 0 0 0 0 0 0 0 8 28 38 43 41 41
41 44 46 46 41 36 41 49 51 48 46 43 35 32 33 38
37 39 37 41 50 51 98 97 84 119 125 131 136 137 136 137
136 135 136 136 136 136 136 135 135 131 122 100 117 60 47 47
40 39 33 28 27 25 22 27 45 50 46 42 42 42 45 44
48 45 46 44 45 45 44 44 43 43 46 33 13 2 0 0
0 0 0 0 0 0 0 0 0 0 0 0 0 4 9 20
3 1 0 0 0 0 0 0 0 0 0 0 0 0 0 0
0 0 0 0 0 0 0 0 1 20 42 45 46 45 43 44
43 44 45 43 36 35 45 48 45 46 46 44 37 37 42 40
35 35 37 40 49 52 82 118 76 112 123 128 136 138 137 136
136 135 135 136 136 136 136 136 135 130 104 114 101 54 51 43
37 38 30 26 20 27 31 33 43 45 41 43 44 42 44 45
46 42 46 45 45 44 42 42 45 45 46 48 45 19 0 0
0 0 0 0 0 0 0 0 0 0 0 0 0 3 8 18
0 0 0 0 0 0 0 0 0 0 0 0 0 1 0 0
2 0 0 0 0 0 0 9 36 46 47 44 44 42 41 43
42 44 44 44 38 32 43 46 46 46 46 43 36 37 43 40
34 32 36 38 46 54 68 121 95 92 123 125 131 137 137 137
136 132 134 135 136 136 136 136 133 111 88 124 100 27 33 48
38 34 29 26 14 21 40 44 45 42 39 41 42 42 44 44
43 43 44 45 43 42 40 41 41 42 43 42 45 44 26 1
0 0 0 0 0 0 0 0 0 0 0 0 0 2 7 17
0 0 0 0 0 0 0 9 10 6 4 11 12 10 2 5
5 0 0 0 0 0 8 42 47 43 44 42 45 42 41 44
43 43 46 44 39 31 42 49 47 43 45 43 35 36 39 39
35 32 34 37 44 48 58 113 118 74 114 127 131 136 137 137
136 132 131 133 135 136 136 136 128 90 94 124 79 6 0 25
43 31 30 27 8 16 41 46 46 41 39 43 39 43 44 41
40 43 42 43 44 43 42 43 42 40 44 42 42 41 26 21
0 0 0 0 0 0 0 0 0 0 0 0 0 1 7 15
0 0 0 0 0 0 1 12 14 21 25 21 23 20 14 16
5 0 0 0 0 3 38 45 44 42 43 44 44 43 43 43
41 45 47 46 40 32 43 46 46 43 43 45 38 34 38 42
40 33 34 39 50 54 56 103 131 91 92 126 131 134 137 136
134 131 131 131 134 136 137 134 110 90 115 114 26 0 0 6
44 34 30 28 13 18 42 42 41 38 40 45 39 43 43 42
38 42 43 41 43 44 45 44 45 44 45 41 42 40 23 31
16 0 0 0 0 0 0 0 0 0 0 0 0 2 10 15
0 0 0 0 0 0 0 4 13 26 31 26 29 28 26 14
0 0 0 0 0 26 45 43 41 39 42 44 46 45 44 43
44 45 45 44 41 32 40 44 46 45 43 46 39 33 36 43
42 35 36 39 50 50 23 109 130 117 79 118 132 135 137 136
133 132 133 133 133 131 133 119 103 108 128 81 11 0 0 2
45 34 29 28 19 29 42 42 42 39 36 44 41 42 45 43
36 40 44 40 37 41 43 45 45 44 43 41 41 38 20 30
35 1 0 0 0 0 0 0 0 0 0 0 0 3 14 16
0 0 0 0 0 0 0 0 11 19 28 34 33 32 20 3
0 0 0 0 8 40 37 39 39 39 44 46 46 43 45 46
48 48 47 45 44 35 40 43 42 48 44 43 41 35 35 45
45 34 36 40 54 31 5 107 132 115 87 104 135 137 138 136
133 135 135 135 134 132 125 108 107 126 103 31 1 0 0 1
47 34 30 30 24 35 44 41 41 40 36 43 43 44 43 40
39 42 44 42 37 41 46 45 46 45 45 44 43 39 22 27
38 12 0 0 0 0 0 0 0 0 0 0 0 5 15 16
0 0 0 0 0 0 0 0 1 9 20 26 23 15 2 0
0 0 0 1 30 43 36 37 39 36 42 47 47 43 46 46
47 48 46 45 43 36 41 40 41 48 45 43 44 38 36 46
45 36 38 41 55 25 0 95 134 113 106 90 132 137 137 136
135 137 136 135 132 124 111 97 126 116 46 16 3 0 0 1
45 36 30 33 30 39 43 41 41 39 36 40 43 43 43 38
39 43 43 39 35 41 47 45 45 46 44 42 42 38 24 28
37 26 0 0 0 0 0 0 0 0 0 0 0 4 13 11
0 0 0 0 0 0 0 0 0 0 6 8 8 1 0 2
1 0 0 17 37 40 38 37 42 34 40 45 45 44 47 49
47 47 45 45 46 40 39 38 41 49 45 40 44 40 39 46
44 46 39 37 51 29 0 80 140 119 117 94 119 137 137 136
133 136 136 136 128 102 67 100 122 59 20 18 8 5 0 1
44 41 33 40 35 40 41 41 40 38 37 38 42 43 38 36
36 42 42 40 37 41 44 44 44 43 43 44 45 37 22 32
39 32 9 0 0 0 0 0 0 0 0 0 0 5 15 13
0 0 0 0 0 0 0 0 0 1 4 4 1 0 1 5
1 0 8 31 36 40 35 36 42 35 42 46 48 49 49 48
49 49 45 47 49 45 40 37 40 47 45 39 44 41 46 47
43 46 42 41 50 29 0 51 140 128 122 112 95 130 137 134
131 137 136 132 100 64 61 70 53 24 18 16 11 22 7 6
36 47 38 44 41 38 40 40 39 39 37 36 40 41 36 34
37 41 39 40 39 41 44 45 46 46 45 45 45 37 23 35
41 34 21 6 0 0 0 0 0 0 0 0 0 4 16 13
0 0 0 0 0 0 0 0 3 7 7 6 6 13 8 0
0 3 30 29 38 38 31 35 44 33 36 43 45 47 48 49
49 50 45 48 51 50 45 35 35 45 45 38 44 42 44 47
41 48 48 44 53 19 0 28 129 138 133 117 78 102 134 136
125 126 123 94 54 33 32 29 24 21 19 12 27 34 20 12
24 52 46 40 44 39 41 40 41 41 42 39 37 39 35 35
38 42 41 38 35 37 43 43 44 44 42 44 42 35 24 37
40 34 22 29 8 0 0 0 0 0 0 0 0 3 14 10
1 0 0 0 0 0 0 0 2 7 6 6 15 32 21 0
1 30 37 32 39 39 31 33 44 34 37 43 46 49 48 49
48 45 45 47 49 48 44 32 34 43 48 40 45 42 46 45
40 47 48 51 49 4 8 26 73 132 138 128 79 63 98 131
112 99 89 50 28 23 27 34 33 27 24 26 41 34 33 25
21 32 54 52 51 45 38 38 40 41 41 42 39 41 35 36
40 41 39 38 36 38 42 42 42 41 42 43 44 36 25 37
37 34 30 45 39 1 0 0 0 0 0 0 0 2 12 9
1 2 1 0 0 0 0 0 3 9 8 9 24 37 22 2
21 46 36 35 41 39 30 32 43 37 39 41 45 49 51 51
50 49 47 47 47 51 43 31 34 42 49 40 44 43 44 43
43 47 51 53 31 16 26 28 33 60 106 122 81 53 57 83
76 82 52 30 30 38 45 43 37 28 36 37 43 34 40 40
36 25 29 45 53 55 50 27 39 41 41 42 39 41 36 38
43 42 38 38 37 38 42 45 45 39 41 45 46 38 26 38
42 41 37 43 94 63 0 0 0 0 0 0 0 0 2 2
0 2 4 1 0 0 0 0 2 12 12 21 37 46 38 28
48 45 39 36 41 41 28 30 43 38 39 40 44 46 50 48
48 43 43 46 46 49 42 35 34 40 46 40 40 49 57 49
50 49 44 35 37 40 37 31 29 32 35 38 13 9 22 44
52 66 43 32 40 44 47 42 32 28 41 39 44 37 39 40
41 39 32 23 24 34 30 27 36 44 43 44 41 41 40 40
42 40 37 39 41 41 44 44 41 39 43 43 44 34 27 38
45 45 42 62 130 125 31 0 0 0 0 0 0 0 0 0
0 1 4 3 0 0 0 0 0 6 14 27 41 48 48 76
54 43 43 36 39 41 30 32 47 41 40 40 44 47 48 47
46 40 42 46 44 49 43 35 34 45 50 41 40 42 40 29
30 35 39 42 43 45 46 42 41 38 35 40 26 34 38 35
37 56 37 37 41 48 50 41 28 36 44 43 45 40 42 42
43 40 39 38 39 41 42 46 43 44 47 47 45 42 41 43
44 40 39 41 39 41 43 43 40 39 42 44 41 35 29 42
45 44 49 108 135 126 93 3 0 0 0 0 0 0 0 0
1 0 1 1 1 0 0 0 0 0 8 25 38 47 67 129
78 47 45 39 38 42 31 32 46 39 40 39 46 48 48 48
48 41 43 47 47 52 48 35 37 45 51 42 45 45 44 43
44 44 46 46 49 47 48 48 47 46 39 42 35 46 40 36
42 50 37 40 49 53 50 38 30 45 45 47 46 43 44 44
45 45 42 39 39 43 42 42 42 44 45 44 41 43 43 42
40 39 38 41 41 44 44 42 39 38 41 45 45 36 27 43
45 51 90 134 134 124 131 44 0 0 0 0 0 0 0 0
4 1 0 0 0 0 0 0 0 0 0 12 26 44 117 141
121 50 44 45 37 41 32 30 45 40 41 41 47 48 48 49
47 42 45 48 48 50 47 38 38 44 49 46 45 45 47 48
49 48 47 48 47 47 48 50 48 47 42 42 41 44 36 34
87 84 43 46 52 55 46 34 42 48 45 45 46 42 43 45
45 47 45 43 41 44 45 43 44 46 48 45 43 44 46 44
41 39 40 42 42 45 46 43 40 43 45 47 46 37 30 40
49 81 133 135 132 124 133 105 7 0 0 0 0 0 0 0
6 3 0 0 1 0 0 0 0 5 5 17 29 77 141 141
139 83 43 43 40 39 35 31 44 42 39 40 45 47 48 49
46 43 46 50 48 52 49 40 38 42 49 48 45 48 52 53
53 50 50 48 46 48 49 50 50 48 44 42 46 41 38 43
127 135 123 103 96 97 59 34 50 62 87 112 122 110 91 71
52 45 44 44 43 45 46 47 48 47 48 47 46 45 45 44
43 39 40 41 43 45 47 46 44 45 43 47 45 36 30 49
70 131 134 134 129 129 134 132 56 0 0 0 0 0 0 0
4 2 0 0 0 0 0 0 1 10 14 30 53 127 141 141
140 123 50 40 43 41 36 37 62 56 44 42 45 46 49 48
45 43 46 49 48 51 48 39 37 43 50 52 50 50 49 50
50 48 48 48 46 47 49 50 49 48 45 44 49 42 38 70
139 137 137 137 137 136 125 113 125 134 136 136 135 135 135 135
130 112 87 57 45 44 47 47 48 47 56 82 103 115 109 89
67 49 42 43 44 44 46 45 44 43 50 61 61 40 34 60
125 135 133 133 130 133 133 133 111 6 0 0 0 2 11 5
2 0 0 0 0 0 0 0 0 6 13 33 93 141 140 140
140 137 77 43 42 41 35 83 141 135 122 103 89 81 76 70
61 48 48 54 61 74 69 48 39 43 48 50 46 46 47 52
64 80 95 105 105 100 90 84 83 85 93 101 120 107 51 100
138 137 136 137 137 136 135 136 136 136 136 135 135 135 135 135
134 135 135 131 112 87 70 74 84 110 130 135 135 134 134 134
134 127 115 99 83 79 79 83 92 109 125 133 133 102 44 112
134 133 132 132 132 132 132 132 129 49 0 0 0 1 10 5
0 0 0 0 0 0 0 0 0 5 14 45 129 140 140 140
139 139 122 50 39 42 36 92 140 139 138 138 138 138 139 139
137 129 123 125 135 138 138 128 91 55 46 48 52 64 94 125
136 138 137 137 137 137 137 136 136 136 136 136 136 135 119 130
136 135 136 136 135 135 135 135 135 135 135 134 135 134 135 134
134 134 135 134 135 133 133 134 133 133 133 133 134 133 133 132
132 133 133 133 133 132 132 133 132 132 132 131 132 114 75 133
132 132 131 131 131 131 131 130 127 105 4 0 0 0 0 0
0 0 0 0 0 0 0 0 0 3 14 85 140 140 139 139
139 139 138 88 43 37 38 88 141 139 138 138 138 138 138 138
137 138 138 138 138 138 138 138 137 132 117 116 126 135 137 137
137 137 136 136 136 136 136 136 136 136 136 136 136 136 134 135
135 135 136 136 135 135 134 135 136 135 135 135 135 133 134 133
133 133 134 134 134 133 134 133 133 133 133 134 134 133 133 132
132 133 133 132 133 133 132 133 132 132 132 132 131 124 120 132
132 132 131 131 131 131 130 130 127 129 50 0 0 0 0 0
