P2
128 120
146
0 9 42 39 32 32 32 31 32 31 31 31 31 30 30 29
29 29 29 28 29 28 28 27 27 27 27 26 26 25 25 25
25 24 24 24 24 23 23 22 22 22 22 21 21 21 21 20
20 21 22 24 25 25 23 19 19 20 20 26 25 24 24 23
24 23 22 22 21 19 21 23 24 24 24 25 25 24 24 25
25 25 25 25 26 26 27 26 27 27 28 28 28 28 29 29
29 29 30 30 31 30 31 32 32 32 33 33 33 33 33 33
34 33 34 34 34 34 34 35 34 35 34 35 35 35 35 35
0 8 41 39 31 32 31 31 31 31 30 30 30 30 30 29
30 29 29 28 28 27 28 27 27 27 26 26 26 26 25 26
26 25 24 24 24 23 23 23 22 22 22 21 21 21 21 21
21 21 22 25 25 25 24 19 19 21 19 25 25 25 24 24
24 24 23 23 22 19 22 22 24 24 24 24 25 24 25 25
25 25 26 26 26 27 27 27 27 28 27 28 28 28 29 29
30 30 30 30 30 31 32 32 33 32 33 33 33 33 33 33
33 33 34 33 34 34 34 34 35 35 35 34 35 34 35 35
0 8 41 38 31 31 31 31 31 31 31 31 31 30 30 29
30 29 29 28 29 28 28 27 27 27 27 26 26 25 25 25
25 24 24 24 24 23 23 22 23 22 22 22 22 21 20 20
21 21 22 25 25 25 24 19 19 22 20 25 26 25 24 23
23 24 22 22 22 19 22 23 24 24 25 25 25 25 25 26
25 25 26 26 25 26 26 27 27 27 28 29 29 29 30 30
29 30 30 30 31 31 32 32 32 32 31 31 32 32 33 33
33 33 34 33 34 34 34 34 34 35 35 35 36 35 35 35
0 9 41 38 32 31 31 30 31 31 30 30 30 30 30 30
30 30 30 29 28 28 28 27 27 27 27 26 26 26 26 26
25 25 25 25 24 24 24 24 22 23 22 22 21 22 22 21
22 22 23 26 26 26 25 19 19 24 20 25 26 26 26 24
25 24 24 23 22 20 22 22 24 24 25 25 26 25 26 26
26 26 26 26 27 27 28 28 29 28 28 29 29 29 30 30
30 30 31 32 31 31 31 31 32 33 33 32 34 33 33 34
34 34 35 35 34 34 34 35 34 34 35 35 35 35 35 35
0 9 40 37 31 31 31 31 30 31 31 30 30 30 30 29
30 29 28 29 28 28 28 28 28 28 27 27 26 26 26 26
25 25 25 24 25 24 24 23 23 23 23 22 22 22 21 21
22 22 23 26 26 26 25 19 19 25 19 25 26 26 26 25
24 24 23 23 22 19 23 24 25 25 26 26 26 26 26 26
26 26 26 26 26 27 28 28 28 28 29 29 29 30 29 29
30 31 31 31 32 32 32 33 33 33 33 33 33 34 34 34
34 34 35 35 33 34 34 34 35 35 36 35 36 36 36 35
5 18 41 37 31 31 31 31 31 30 30 30 30 30 30 29
30 29 29 29 28 28 28 27 28 27 26 27 27 26 26 26
25 26 25 25 24 25 24 23 23 22 22 22 22 21 21 21
21 22 23 26 26 26 25 19 19 25 20 25 26 26 25 25
23 24 24 23 23 20 22 23 25 25 25 26 26 25 26 26
26 27 28 27 28 28 28 28 29 29 29 28 28 29 28 29
30 31 32 33 32 32 33 33 33 34 34 34 33 34 34 33
34 34 34 34 33 33 34 34 34 34 35 35 34 35 35 35
20 26 39 35 31 31 31 31 31 31 30 31 30 30 30 29
30 29 28 28 28 27 28 28 27 27 27 27 27 26 26 26
25 25 25 24 24 24 24 24 23 23 23 22 22 22 22 21
21 22 23 25 26 26 24 19 19 25 20 24 27 26 25 25
24 24 24 23 23 20 23 23 25 25 26 26 26 27 27 27
27 27 27 27 27 27 27 28 28 28 29 29 29 30 30 31
31 31 32 32 32 32 33 33 32 33 33 33 33 34 33 33
34 34 35 35 34 34 34 34 34 34 35 35 34 35 35 35
32 33 35 33 32 32 31 31 31 30 29 30 30 29 30 29
29 29 29 29 29 29 28 28 28 28 28 27 26 26 26 26
26 25 25 25 24 25 24 24 23 23 22 22 22 22 22 22
21 22 24 26 26 27 26 20 20 26 21 24 26 26 25 25
24 24 24 24 23 20 24 24 26 26 26 26 26 26 26 27
26 27 27 27 28 29 29 29 28 29 29 29 29 30 30 30
30 31 32 32 32 32 33 34 34 34 33 33 34 33 33 34
34 33 34 35 34 34 35 34 34 35 35 35 35 35 35 35
24 27 30 31 32 31 31 31 31 31 30 31 30 30 29 29
29 28 29 28 29 28 28 27 27 28 27 27 27 26 26 26
25 25 25 25 24 24 24 24 24 24 23 23 23 22 22 22
22 22 24 26 27 26 25 19 19 26 22 23 27 27 26 26
25 25 24 24 24 21 24 24 25 26 26 26 26 26 26 27
26 27 27 28 29 28 28 28 28 28 29 30 30 31 31 32
32 32 32 33 32 33 33 33 33 33 33 33 33 33 33 34
34 34 34 35 34 34 34 34 34 35 35 35 35 35 35 36
12 14 18 22 25 27 30 30 31 31 31 30 30 29 30 29
29 29 28 28 29 29 29 28 27 28 27 27 26 26 26 26
25 25 25 25 25 25 25 24 24 23 23 23 22 22 22 22
22 23 24 26 27 27 26 20 20 27 23 22 27 26 26 25
25 24 24 24 23 20 24 24 26 26 26 26 26 26 27 27
28 27 28 29 29 28 29 29 29 29 29 30 30 31 31 31
31 32 32 33 32 32 33 34 34 33 34 33 33 33 33 34
34 34 34 35 35 34 35 35 34 35 35 35 35 35 34 34
9 10 10 10 12 13 14 18 22 24 28 29 30 30 29 29
30 29 28 28 29 28 28 28 27 28 27 27 27 26 26 26
26 26 25 25 25 24 24 24 24 24 23 23 23 23 23 22
23 23 24 27 27 27 26 20 19 27 24 22 27 28 27 26
25 25 25 25 24 21 24 25 27 26 26 27 27 27 27 27
27 27 29 29 30 29 29 29 29 30 29 30 31 31 31 32
32 32 33 33 33 33 33 33 33 33 33 33 33 33 34 34
34 34 35 35 35 35 35 34 34 34 34 34 33 34 35 35
17 14 11 10 10 10 11 11 11 10 11 16 26 30 29 29
29 29 29 29 29 29 28 28 28 28 28 27 27 27 26 26
26 26 26 25 25 25 25 24 24 24 24 23 23 22 22 22
22 23 25 27 28 27 26 20 20 27 27 23 28 27 27 27
25 25 25 24 24 22 24 26 27 27 27 27 27 27 27 27
28 28 29 29 30 29 29 30 29 30 30 30 31 30 31 31
32 32 32 33 33 33 33 34 34 34 34 34 34 34 33 34
34 34 33 33 32 33 33 33 34 34 35 36 36 34 35 35
35 28 15 17 14 11 10 9 10 7 5 11 25 29 30 30
29 29 28 28 28 28 28 28 28 27 28 27 27 27 26 26
26 26 26 26 25 25 25 24 24 24 24 24 23 23 23 23
23 23 25 27 27 26 26 20 18 21 18 14 15 16 22 23
23 26 23 23 24 22 25 25 26 27 27 27 27 27 28 28
28 28 29 29 30 29 30 29 30 30 30 31 31 31 32 32
33 32 32 33 33 33 33 33 34 33 34 33 33 33 32 32
33 33 33 34 34 34 34 34 34 34 34 35 35 34 35 34
42 35 23 28 31 27 22 19 16 11 8 11 25 29 29 29
30 28 29 30 29 29 29 28 28 28 27 27 27 26 26 26
26 26 28 31 29 27 25 25 24 24 24 23 23 23 23 22
22 23 24 27 27 27 26 22 22 22 22 21 23 23 31 36
34 25 24 21 18 19 23 25 27 27 27 27 28 28 28 28
28 29 29 29 31 29 30 30 30 30 30 31 31 31 32 32
32 33 32 33 32 32 32 33 33 33 32 33 33 33 34 34
34 34 34 34 34 34 34 34 34 35 34 35 35 34 35 35
42 37 28 33 36 34 35 37 34 24 8 12 25 30 30 30
29 29 35 36 35 33 30 29 27 27 28 27 28 27 27 26
26 26 32 38 36 33 31 29 25 25 24 24 24 24 24 22
23 23 23 25 25 24 32 31 28 29 24 21 17 14 9 13
18 17 21 20 19 22 20 20 26 27 27 28 28 28 28 28
28 28 29 29 31 30 30 30 31 30 31 31 31 32 32 32
32 32 32 32 32 33 32 33 33 32 33 34 33 33 33 34
34 34 34 34 34 34 34 34 35 35 34 35 35 34 34 33
23 34 32 35 37 37 39 41 42 32 11 13 27 30 30 29
29 30 38 39 38 35 33 33 33 31 29 28 28 27 26 26
27 26 32 37 35 33 34 33 28 24 25 24 24 23 23 23
21 18 12 11 11 10 12 21 29 33 40 32 25 24 20 17
16 13 15 16 14 9 11 11 12 22 28 29 28 28 29 29
29 29 29 29 30 30 30 30 30 31 31 32 31 32 31 31
32 32 32 32 32 32 33 33 32 33 33 34 34 33 34 34
34 34 34 34 33 34 34 34 34 34 35 34 35 34 34 34
4 33 33 35 37 39 41 41 42 35 12 14 29 32 32 31
30 31 38 39 38 36 36 37 39 34 33 34 31 29 27 27
27 27 30 30 30 31 33 33 30 25 25 24 24 23 24 23
16 8 2 0 1 2 4 8 16 24 31 34 28 22 23 21
19 18 19 22 17 11 4 4 0 1 12 26 29 28 29 29
29 29 29 30 30 30 30 30 30 31 31 32 32 31 32 32
32 32 33 33 33 33 33 33 33 33 32 34 34 33 34 34
34 34 34 34 35 34 35 35 35 35 35 34 35 35 34 35
6 32 27 29 33 37 40 41 40 35 14 14 30 34 30 31
33 33 31 19 26 33 37 38 40 33 21 25 30 32 31 31
31 29 27 16 13 15 18 22 27 26 25 25 24 24 23 13
6 1 0 0 0 3 7 8 15 15 14 13 18 20 17 18
18 22 24 20 12 11 8 5 4 0 0 9 27 30 30 30
30 29 29 30 30 30 30 31 31 31 30 31 32 32 32 33
33 33 34 33 32 32 33 33 33 33 33 34 34 34 35 34
34 34 34 34 34 34 34 34 35 34 34 35 35 34 35 35
10 31 10 4 12 20 27 31 33 33 13 14 30 34 30 29
34 38 27 0 1 14 21 24 29 26 1 1 4 10 16 22
28 30 28 14 4 5 5 1 19 27 25 25 24 21 13 12
5 0 1 0 0 1 7 15 23 27 31 25 23 22 28 21
16 19 20 16 8 1 3 0 8 12 6 1 9 29 29 29
30 29 30 30 30 30 31 31 31 31 31 32 32 32 32 32
32 33 33 32 32 32 32 33 33 33 33 35 34 34 34 34
34 34 34 35 35 34 34 34 35 35 34 34 35 35 34 35
7 31 5 0 0 0 2 4 9 31 14 12 19 26 31 32
36 41 28 0 0 3 8 10 17 25 1 0 0 0 0 1
4 14 27 10 0 0 1 0 16 27 26 26 23 13 4 3
4 0 3 0 0 1 7 13 22 29 33 40 44 47 33 23
19 15 21 20 17 12 11 13 13 15 9 9 4 21 30 30
30 30 30 30 30 30 31 31 30 32 31 32 33 32 33 33
33 33 33 33 33 33 33 33 34 33 33 34 35 34 34 34
34 34 34 35 34 34 34 34 35 35 35 35 36 35 36 36
6 31 4 0 0 0 0 0 2 29 14 8 1 1 6 12
22 29 25 0 0 0 2 4 12 25 2 0 0 0 0 0
0 6 26 7 0 0 0 0 18 27 26 25 21 8 0 0
1 2 3 2 0 4 13 16 21 32 31 20 21 23 25 22
23 18 14 12 11 8 8 9 11 15 13 5 4 4 23 30
31 30 30 30 32 31 32 32 32 32 32 33 33 33 33 33
33 33 33 33 33 34 34 34 34 34 34 34 35 34 34 34
34 34 34 35 35 35 35 35 35 36 36 36 36 36 36 35
6 31 4 0 0 2 0 0 2 29 14 8 0 0 0 0
0 2 13 1 0 0 0 0 9 23 1 0 0 0 0 0
0 5 25 3 0 0 0 0 19 29 26 20 11 4 2 4
1 5 5 5 2 6 27 25 23 29 34 37 22 10 10 16
18 20 19 15 12 7 7 8 12 10 10 5 1 1 7 28
31 30 30 30 31 31 31 32 32 32 32 33 33 34 33 33
33 33 34 34 34 34 34 34 34 33 33 35 35 34 34 34
34 35 35 35 35 35 35 35 35 35 36 36 35 34 35 35
7 31 4 0 0 8 1 0 2 29 14 7 0 0 0 0
0 0 7 0 0 0 0 0 9 24 1 0 0 1 4 0
0 5 24 2 0 0 0 0 19 29 26 19 20 20 11 6
7 5 8 11 10 13 53 64 48 39 31 39 39 29 10 10
14 17 19 14 9 8 7 5 3 3 2 3 2 0 0 15
31 30 30 30 31 31 32 31 32 32 33 33 33 32 33 33
33 33 34 34 34 34 34 34 34 34 34 35 34 35 34 35
35 35 35 35 34 35 35 36 36 36 36 36 36 36 36 35
7 30 3 0 0 4 1 0 2 28 14 8 0 0 0 0
0 0 5 0 0 0 0 0 10 27 1 0 0 3 10 5
1 4 24 2 0 0 0 0 17 30 26 24 16 20 20 11
21 10 13 20 19 20 63 105 96 73 49 38 43 38 27 23
22 22 22 21 17 7 3 3 1 0 0 0 0 0 0 1
24 31 31 31 32 32 31 31 32 32 33 33 33 32 33 34
34 34 35 35 35 35 35 34 35 35 34 34 34 35 35 35
35 35 35 35 35 36 36 36 36 36 35 35 35 36 36 35
7 27 2 0 0 0 0 0 3 29 13 8 0 0 0 2
0 0 4 0 0 0 0 0 9 27 2 0 0 4 11 10
6 3 23 3 0 0 0 0 15 30 27 25 18 20 28 18
19 24 20 23 27 27 58 102 114 106 76 49 43 43 34 28
32 30 33 30 27 24 18 15 17 12 6 0 0 0 0 0
8 30 31 31 31 31 32 32 33 33 34 34 33 33 34 34
34 34 35 34 34 34 34 34 35 34 34 35 36 35 35 35
36 35 35 35 36 36 36 36 36 36 35 36 36 36 37 36
10 27 2 0 0 0 0 0 3 28 13 7 0 3 0 1
0 0 5 1 0 0 0 0 11 29 3 0 0 2 8 9
7 3 25 9 1 0 0 0 14 30 27 26 18 21 29 27
30 40 32 33 36 34 55 83 106 110 100 67 44 37 34 30
30 28 31 26 28 21 19 19 21 18 14 10 5 1 0 0
1 27 32 32 32 32 32 32 32 33 33 33 34 33 34 34
34 34 35 35 35 35 35 34 35 35 35 35 35 34 35 35
35 34 35 35 37 36 37 36 36 36 36 37 37 37 37 37
27 32 13 5 5 4 2 0 7 28 13 9 1 1 0 0
0 0 7 2 0 0 0 0 15 33 11 3 2 0 1 5
5 2 28 30 23 17 12 11 24 32 27 27 13 22 31 38
44 55 49 46 42 37 55 69 79 91 82 90 77 50 37 29
27 22 20 19 19 17 17 15 16 18 8 4 5 2 1 0
0 22 31 31 32 32 33 32 32 33 33 32 33 34 33 33
34 34 34 34 34 34 35 34 35 35 35 36 35 35 36 36
36 35 35 35 37 37 37 37 36 37 37 37 36 36 36 37
36 43 40 25 26 28 28 24 25 27 12 9 0 0 0 0
0 0 17 24 16 13 8 3 11 38 29 23 21 16 10 8
7 7 31 38 35 34 35 38 40 33 27 26 9 18 28 48
63 67 63 73 69 49 32 48 53 50 69 81 94 107 70 37
26 24 22 18 17 17 15 14 14 9 13 4 0 1 0 0
0 10 32 31 32 32 33 33 33 33 33 33 33 33 33 33
34 35 35 35 36 35 35 35 35 35 35 35 35 35 35 36
35 35 36 36 37 36 37 36 36 37 35 34 33 32 32 33
37 50 42 27 32 38 40 40 39 29 12 9 0 0 0 0
0 0 22 43 35 35 34 32 31 41 22 16 19 21 21 21
21 24 34 32 33 34 37 41 42 33 26 21 6 20 25 59
81 81 74 85 105 97 72 83 90 97 111 121 126 122 116 89
45 21 22 22 18 18 17 11 10 5 4 2 1 0 0 0
0 1 26 32 32 32 32 32 33 32 33 33 33 33 34 34
34 34 35 35 34 34 35 34 34 34 35 35 35 34 34 35
34 33 33 35 35 32 32 31 30 30 28 25 24 22 21 19
38 47 33 24 32 38 39 41 42 30 12 11 5 1 0 0
0 0 22 41 37 41 43 43 38 33 18 10 10 11 11 10
11 14 16 16 19 24 30 31 31 29 26 17 3 19 24 69
94 100 96 98 115 124 124 127 130 130 132 131 131 131 131 126
107 65 24 18 17 12 10 8 6 3 1 0 0 0 0 0
0 0 15 31 33 32 32 32 32 32 32 32 33 33 33 34
34 34 34 34 34 33 33 33 32 33 33 33 32 30 30 30
29 27 26 25 24 22 20 18 18 17 17 16 17 17 17 17
37 41 19 5 13 17 21 25 31 30 12 15 27 29 23 15
10 8 24 32 35 40 43 44 38 29 19 12 11 9 8 7
7 6 5 6 7 11 24 24 23 24 25 16 5 21 26 72
98 103 109 116 125 131 131 131 132 132 132 132 131 131 131 131
130 124 94 46 19 13 7 2 1 0 0 0 0 0 0 0
0 0 7 30 32 32 31 31 31 32 33 33 33 33 33 34
34 33 34 33 32 31 31 33 29 27 26 24 24 21 21 19
19 18 18 17 18 18 18 19 19 20 21 21 22 23 21 15
35 42 15 0 0 0 0 0 10 27 12 15 34 41 41 39
38 36 36 24 25 32 37 39 36 31 21 12 9 7 6 6
7 7 7 8 8 13 22 15 22 26 27 15 8 20 27 72
98 106 114 123 130 132 132 132 132 132 132 132 131 131 131 131
132 131 130 126 100 60 33 19 11 3 0 0 0 0 0 0
0 0 1 23 31 32 32 32 33 33 33 32 32 32 31 30
28 27 25 24 22 20 23 33 22 17 18 19 18 19 19 20
21 21 22 23 24 24 25 26 26 26 26 24 27 28 27 12
32 42 14 0 0 0 0 0 6 26 13 15 33 42 42 42
42 42 38 12 3 7 12 18 20 25 23 12 9 2 0 1
5 9 7 7 10 15 25 23 27 31 29 14 8 16 32 71
96 107 116 123 129 132 132 132 131 132 131 132 131 131 132 132
132 131 131 131 129 126 112 97 82 52 12 0 0 0 0 0
0 0 0 15 30 30 30 29 28 27 26 24 23 22 20 20
19 19 18 19 20 19 19 28 21 19 22 24 24 25 25 26
27 27 27 28 28 29 29 29 30 30 29 25 24 31 31 20
27 39 12 0 0 0 4 12 16 26 18 17 28 34 35 36
38 41 36 7 0 0 0 0 6 22 24 10 7 0 0 0
1 3 2 1 5 10 28 34 29 29 29 19 8 16 33 69
93 106 115 123 129 132 132 132 132 132 132 132 131 132 131 131
131 131 131 131 131 128 123 119 114 101 67 27 4 0 0 0
0 0 0 8 23 22 21 21 20 19 20 19 20 21 21 21
22 23 24 24 26 25 23 30 24 24 27 28 29 29 30 30
31 30 31 31 31 31 32 32 32 30 32 33 28 26 32 29
26 35 9 0 0 0 7 20 21 22 21 18 21 23 26 29
30 35 33 5 0 0 0 0 0 22 23 9 5 0 0 0
0 0 0 0 0 4 27 32 22 22 23 16 12 18 39 71
90 106 116 123 128 132 132 132 132 132 132 132 132 132 131 131
132 131 132 131 131 126 123 119 114 106 81 56 38 10 2 2
0 0 0 14 20 21 21 22 23 23 24 25 25 26 26 27
28 29 29 30 31 29 26 26 23 27 31 32 32 32 32 33
33 33 34 34 34 33 33 32 32 31 30 34 34 27 26 30
27 34 7 0 0 0 2 11 16 20 19 17 18 19 23 26
27 34 32 4 0 0 0 0 0 22 19 2 0 0 0 3
4 0 0 0 0 3 28 34 19 22 26 14 12 21 42 66
88 106 116 121 126 131 132 133 132 132 132 133 132 132 132 132
131 131 131 132 130 127 123 118 114 109 88 60 52 29 12 8
1 0 0 18 25 26 27 28 29 29 30 30 30 30 30 31
31 31 32 32 32 31 21 9 12 28 33 34 34 34 34 34
34 35 35 35 34 35 34 32 31 32 31 34 36 35 28 25
30 35 7 0 0 0 0 0 2 14 13 16 14 14 20 24
28 34 30 4 0 0 0 0 0 24 15 0 0 0 0 3
10 5 0 0 0 3 27 34 16 16 20 13 11 21 43 63
86 104 115 121 125 130 133 133 133 133 132 133 132 132 131 132
132 132 131 131 130 126 123 116 111 105 85 62 57 44 15 5
1 0 0 19 30 31 31 31 32 32 32 32 32 32 33 33
34 33 31 29 27 29 19 7 6 27 34 35 36 35 35 35
36 36 36 36 35 36 36 35 33 32 31 32 36 36 34 24
32 35 6 0 0 0 0 0 2 18 16 18 4 0 2 5
9 12 19 4 0 0 0 0 1 26 14 0 0 0 0 5
12 11 6 0 0 3 28 35 21 16 18 12 9 18 41 60
84 102 113 120 124 129 133 133 133 133 133 133 133 132 133 133
133 132 131 130 128 123 118 112 107 99 84 66 58 55 24 2
2 0 0 20 32 32 33 33 33 34 34 34 35 34 34 35
36 31 15 8 7 21 18 5 6 25 35 36 37 36 36 36
36 36 37 36 36 36 36 35 36 33 31 30 35 36 35 29
34 35 6 0 0 1 0 0 2 23 21 20 4 0 0 0
0 0 8 3 0 0 0 0 0 24 11 0 0 0 2 13
16 11 5 0 0 4 27 35 24 18 13 8 4 13 33 62
81 101 111 119 124 128 133 132 133 133 132 132 132 131 132 132
132 132 132 129 123 116 114 107 103 94 80 63 57 56 35 4
1 0 1 28 33 33 34 33 33 33 34 34 34 34 34 35
35 32 20 19 23 28 18 0 3 26 35 35 36 35 35 35
36 36 36 36 36 36 36 35 36 35 32 29 31 33 31 29
30 30 8 0 0 2 1 0 2 27 23 19 4 0 0 0
0 0 6 2 0 2 7 0 0 25 9 0 0 0 1 8
14 4 0 0 0 2 26 36 26 17 8 7 1 9 29 61
78 97 107 114 119 125 132 133 133 133 133 134 133 132 132 132
132 131 127 119 112 100 98 91 78 76 65 57 54 55 42 7
0 0 0 27 34 33 34 34 34 34 35 35 36 35 35 35
36 35 34 34 33 32 21 2 5 26 34 35 37 36 36 36
36 35 36 36 36 36 36 35 36 36 35 32 28 26 26 30
22 26 19 9 5 9 10 4 5 27 21 18 4 0 1 6
0 0 6 3 0 9 12 3 0 23 8 0 0 0 0 0
11 2 0 0 0 1 23 36 21 10 3 6 0 7 25 69
77 94 102 108 111 114 119 125 129 132 133 132 132 132 132 132
131 126 119 95 66 48 38 42 34 31 34 38 36 34 37 6
0 0 2 29 34 34 34 34 35 34 35 36 35 35 36 35
35 35 35 35 34 33 25 4 7 28 35 36 36 35 36 36
36 36 36 35 36 36 36 35 36 36 35 35 30 25 26 33
17 25 25 25 22 25 28 26 25 32 22 17 4 0 6 13
3 0 7 12 9 17 17 11 5 26 8 0 0 0 0 0
11 3 0 0 0 0 20 35 16 6 1 3 0 2 23 70
73 81 77 76 84 76 80 96 115 125 133 132 133 132 132 130
119 103 58 29 19 18 17 22 27 31 35 40 50 62 36 4
6 0 1 27 35 34 34 34 35 35 34 36 35 35 35 35
35 35 35 35 34 31 26 15 17 31 35 36 37 36 36 36
36 36 36 36 36 36 36 36 36 36 35 35 33 26 28 35
21 27 20 6 6 12 19 26 35 35 24 16 4 0 5 8
2 0 11 33 32 34 33 32 31 35 9 0 0 0 0 0
12 4 0 0 0 0 16 34 12 4 0 3 0 1 19 65
61 43 19 18 23 37 38 39 63 107 127 131 133 131 131 120
94 45 19 28 25 16 10 6 8 22 43 31 4 3 7 1
2 0 0 21 34 34 35 35 35 35 35 35 35 35 35 35
36 36 35 35 34 32 28 27 28 34 37 36 37 36 36 36
36 36 36 37 37 37 36 36 36 37 36 36 34 27 27 34
23 28 17 0 0 5 7 13 34 33 22 17 9 0 0 0
0 0 10 35 38 39 38 41 45 42 22 12 12 6 4 6
16 8 3 2 1 0 13 30 12 2 1 3 4 14 37 66
65 60 59 58 54 48 38 26 24 68 110 124 132 129 122 110
68 43 31 13 3 0 0 0 0 3 14 20 9 2 0 12
3 9 9 16 32 34 34 34 35 35 35 35 36 36 36 35
36 35 35 35 34 32 30 30 33 35 37 36 37 37 37 37
37 37 37 37 37 36 36 36 36 36 36 36 34 27 24 26
24 29 16 0 0 13 19 20 34 29 19 18 16 3 0 0
0 0 9 34 36 37 37 41 44 43 32 29 28 25 24 24
24 20 17 14 12 12 20 31 19 12 11 4 15 35 42 36
27 21 23 27 21 14 13 15 19 26 59 109 126 121 116 95
48 23 13 1 0 1 2 0 2 11 11 7 4 3 5 26
25 43 34 30 33 34 34 35 35 35 36 35 36 36 35 35
36 36 35 35 35 34 33 34 36 37 37 37 37 37 37 37
37 37 37 37 36 37 37 37 37 37 37 36 35 28 24 28
26 31 15 0 0 5 17 25 36 27 18 19 15 1 0 0
0 0 10 32 31 33 33 34 32 32 32 33 33 32 31 32
31 29 27 26 23 22 25 34 31 27 25 14 2 4 1 0
2 9 16 14 7 2 0 0 0 2 15 54 108 118 104 56
15 10 0 0 0 0 0 0 1 5 4 4 5 2 7 31
49 73 50 44 34 34 35 34 36 35 35 35 36 36 36 36
37 36 35 35 35 34 35 34 36 36 36 36 36 37 38 37
36 37 37 37 37 37 37 37 36 36 34 34 34 27 25 32
28 33 16 0 0 0 2 22 37 26 18 20 16 6 3 2
1 0 12 34 30 32 31 31 30 30 33 33 35 36 35 32
32 31 34 37 34 31 32 36 36 34 35 31 4 0 0 0
0 6 11 11 5 0 0 0 0 0 0 18 42 60 32 19
7 1 0 0 0 0 0 0 0 1 1 0 4 0 7 32
55 71 68 58 34 34 34 34 35 35 36 36 36 36 35 36
36 36 36 35 35 34 35 36 36 36 36 36 36 37 37 37
36 36 36 36 37 37 38 37 37 37 35 35 34 28 26 32
28 34 15 0 0 0 0 17 37 26 18 19 26 30 28 25
24 22 28 38 32 31 32 32 33 36 37 35 37 41 42 33
30 31 37 42 39 36 36 34 28 24 24 26 17 0 0 0
0 2 3 9 5 0 0 0 0 0 0 12 12 16 11 18
6 0 0 0 0 0 0 0 0 0 0 0 2 0 5 34
59 75 69 67 35 34 34 34 34 34 35 36 35 35 35 36
36 36 36 36 36 35 36 36 37 37 37 37 37 37 37 37
37 37 37 37 36 37 37 37 36 36 37 36 35 29 25 32
28 33 13 0 0 0 0 16 38 26 17 19 31 44 45 43
44 45 44 43 34 31 32 33 36 40 41 36 37 41 41 33
28 26 33 40 38 37 37 36 32 25 23 24 26 0 0 0
0 0 1 0 0 0 0 0 0 0 0 9 12 32 29 17
8 0 0 0 0 0 0 0 0 0 0 0 1 0 5 38
57 53 70 68 35 34 34 34 35 35 35 35 36 36 36 36
36 36 36 36 37 36 37 38 37 37 37 37 37 37 37 37
37 36 36 37 37 37 37 37 37 37 36 37 36 29 26 32
28 34 13 0 0 0 0 15 38 27 17 20 29 41 42 43
44 45 46 42 24 19 17 17 22 31 40 36 33 28 29 28
25 25 29 25 19 19 25 27 31 30 27 29 33 0 0 0
0 0 0 0 0 0 0 0 0 0 0 10 60 130 124 51
13 0 0 0 0 0 0 0 0 0 0 0 0 0 5 47
82 61 80 69 36 36 34 34 35 34 35 35 36 36 36 36
36 36 36 36 37 37 37 37 37 37 37 36 37 37 37 37
37 37 37 36 37 37 37 37 36 37 37 37 36 29 26 32
27 34 12 0 0 0 0 14 35 24 17 20 22 26 26 27
29 30 32 31 8 0 0 0 1 11 35 34 19 5 6 8
12 23 28 12 0 0 3 12 24 27 26 29 27 0 1 0
0 0 0 0 0 0 0 0 0 0 0 15 102 135 131 92
16 1 0 0 0 0 0 0 0 0 0 0 0 0 7 54
89 78 87 65 34 35 34 34 34 34 35 35 36 36 36 36
36 35 35 35 36 36 37 37 37 38 37 36 37 37 37 37
37 37 37 37 37 37 37 37 37 36 37 36 36 30 26 32
28 35 13 0 0 0 0 13 36 25 16 19 23 27 28 27
26 26 26 24 7 0 0 0 0 10 35 28 5 0 0 0
6 26 30 10 0 0 0 7 20 12 8 12 11 1 1 0
0 0 0 0 0 0 0 0 0 0 1 28 119 133 128 110
34 8 0 0 0 0 0 0 0 0 0 0 0 0 12 57
88 87 89 64 34 34 33 33 33 33 33 35 36 35 34 28
27 27 26 24 27 34 38 38 37 37 37 37 37 37 38 37
37 37 37 37 37 37 36 37 37 37 37 37 37 30 26 31
32 30 11 0 0 0 0 16 40 27 17 19 26 32 32 32
32 31 32 27 8 1 0 0 0 13 34 21 0 0 0 0
2 27 30 11 0 0 0 5 19 7 1 7 2 0 1 0
0 0 0 0 0 0 0 0 0 0 3 53 119 128 124 106
69 14 1 0 0 0 0 0 0 0 0 0 0 3 27 58
86 86 83 64 22 22 20 18 18 19 25 35 36 36 32 16
11 11 11 10 15 31 38 37 37 37 37 38 37 38 37 37
37 36 36 37 37 38 37 37 37 37 37 37 37 32 26 31
32 26 17 10 7 6 4 19 37 26 18 22 27 34 34 34
34 35 35 29 7 0 0 0 2 8 30 16 0 0 0 0
2 27 28 11 0 0 0 3 19 8 2 7 2 0 2 0
0 0 0 0 0 0 0 0 0 0 10 81 114 128 125 107
94 38 10 0 0 0 0 0 0 0 0 0 0 20 48 55
72 82 77 50 10 10 8 6 5 6 16 33 35 35 30 12
8 8 9 9 13 32 38 39 38 38 38 38 38 37 36 37
36 36 37 36 37 37 37 37 37 37 37 37 37 33 27 31
30 29 29 27 27 25 24 28 32 29 27 28 30 32 32 32
32 33 33 29 10 0 0 0 4 5 28 14 0 0 0 0
3 27 27 9 0 0 0 0 18 10 1 5 1 14 4 0
0 0 0 0 0 0 0 0 0 2 27 100 115 131 125 106
94 73 21 13 0 0 0 0 0 0 0 0 8 45 61 56
87 94 72 27 8 8 7 4 5 5 13 32 35 35 29 12
9 9 9 8 12 30 38 38 38 38 38 38 37 37 37 37
37 37 38 37 37 37 37 37 37 37 37 37 37 33 26 29
28 28 29 28 29 29 29 28 29 28 28 29 29 29 29 29
30 30 30 30 19 1 0 0 3 3 26 12 0 0 0 0
2 27 28 12 0 0 0 0 16 13 1 4 1 39 35 3
0 0 0 0 0 1 0 0 0 8 51 99 118 131 126 109
91 78 54 26 17 4 0 2 0 1 4 10 43 73 59 58
97 95 68 11 9 9 7 4 5 4 12 31 35 35 29 12
8 8 9 8 11 29 38 39 38 38 37 37 36 37 36 36
36 36 36 36 36 36 37 37 37 37 37 37 37 33 26 28
27 27 27 27 27 28 28 28 28 28 27 28 28 28 29 29
28 29 29 29 21 1 0 0 1 3 26 13 0 0 0 0
0 24 28 12 0 0 0 0 16 16 0 0 0 32 91 23
2 0 0 0 0 0 0 2 12 23 76 98 124 134 131 116
95 85 80 62 69 42 27 29 33 44 61 82 88 77 58 60
97 91 50 5 8 9 7 4 4 4 12 31 35 35 30 14
9 10 11 11 11 26 36 37 36 36 36 36 36 35 36 36
37 36 36 36 35 34 35 36 37 37 37 37 37 33 27 28
12 12 12 12 12 12 12 12 12 12 12 12 13 14 14 15
16 18 23 27 20 0 0 0 0 1 25 14 0 0 0 0
0 22 27 9 0 0 0 0 14 19 0 0 0 20 101 96
35 21 10 6 8 12 21 33 51 70 96 102 127 134 133 125
99 86 90 72 101 117 116 121 126 127 124 114 99 77 57 60
94 77 17 4 7 7 5 3 4 4 11 30 34 34 31 17
13 13 14 14 15 24 35 36 36 36 36 36 36 35 35 35
36 35 35 19 9 9 12 27 36 36 36 36 35 32 26 27
0 0 0 0 0 0 0 0 0 0 0 0 0 0 0 0
0 3 19 26 22 2 0 0 0 1 24 19 1 0 1 1
2 22 29 16 7 5 6 8 21 23 1 0 0 8 85 114
87 68 46 43 50 60 79 103 100 100 100 102 119 129 128 116
94 87 89 75 96 122 118 123 129 130 123 113 95 75 57 51
58 30 4 3 4 3 3 2 3 2 10 29 34 34 31 15
10 10 10 10 10 22 35 36 36 36 36 36 36 35 35 35
36 36 34 10 0 0 0 20 35 34 35 34 34 32 25 26
0 0 0 0 0 0 0 0 0 0 0 0 0 0 0 0
0 1 21 27 24 16 11 12 19 18 27 30 24 22 24 24
24 33 33 26 30 31 32 36 40 33 15 11 11 14 62 112
95 100 109 116 125 130 129 119 107 105 99 96 105 113 112 96
69 66 77 80 95 121 118 114 120 123 118 105 84 70 57 41
30 15 4 3 1 0 2 3 3 3 8 28 34 35 31 14
8 8 8 8 8 22 35 37 36 36 36 36 36 35 35 34
35 34 33 8 0 0 0 13 35 35 34 35 35 32 26 25
0 0 0 0 0 0 0 0 0 0 0 0 0 0 0 0
0 1 20 28 27 31 33 34 35 32 30 34 43 42 41 42
44 44 38 27 35 38 40 46 48 41 29 27 27 28 49 105
94 95 110 123 130 130 124 114 106 108 88 50 62 94 91 73
56 46 68 80 96 118 117 109 110 114 109 95 75 70 57 41
29 16 5 3 1 2 5 3 4 3 9 28 34 35 31 15
7 8 8 8 8 22 36 36 36 36 36 35 36 36 35 35
35 35 32 6 0 0 0 8 34 35 35 35 35 32 26 25
0 0 0 0 0 0 0 0 0 0 0 0 0 0 0 0
0 0 19 28 27 31 36 38 37 31 26 28 37 39 38 38
39 40 36 26 28 33 36 38 38 36 30 28 28 28 31 64
71 88 105 118 125 125 120 109 108 106 96 85 89 102 86 82
82 80 90 91 102 110 112 111 100 96 103 88 71 74 59 40
29 16 4 3 1 1 4 3 5 4 9 29 34 35 32 15
8 8 8 8 9 23 36 36 36 36 36 36 35 36 36 32
20 19 17 2 0 0 0 7 34 35 35 35 35 33 27 25
0 0 0 0 0 0 0 0 0 0 0 0 0 0 0 0
0 0 18 29 26 28 30 33 36 32 26 24 24 25 25 25
26 26 28 26 27 30 31 28 25 27 28 29 29 29 29 29
40 81 98 110 116 119 111 111 114 104 98 97 104 119 116 109
105 96 95 95 100 98 104 105 104 96 96 87 70 78 58 39
29 18 6 4 0 0 3 3 5 4 9 28 34 35 31 15
7 8 8 8 9 23 36 36 36 36 36 36 36 36 35 17
0 0 0 0 0 0 0 6 34 35 35 35 35 32 26 24
0 0 0 0 0 0 0 0 0 0 0 0 0 0 0 0
0 0 16 28 26 22 19 21 25 24 22 25 22 23 24 27
27 26 29 31 32 35 35 31 27 27 29 29 29 29 29 29
35 74 92 102 111 112 106 109 108 100 96 100 106 110 107 106
108 108 107 110 109 106 105 106 109 100 108 92 70 83 56 38
28 17 5 3 1 1 3 3 5 4 9 28 34 35 32 15
8 8 8 8 9 23 36 37 36 36 36 36 36 36 34 10
0 0 0 0 0 0 0 6 34 35 35 35 35 33 27 25
0 0 0 0 0 0 0 0 0 0 0 0 0 0 0 0
0 0 14 29 25 14 2 2 4 7 14 25 28 33 34 39
38 28 28 29 31 35 40 36 28 28 29 29 29 29 29 29
32 68 92 98 108 112 106 105 100 102 109 116 121 122 118 122
126 121 110 101 91 80 68 76 102 101 118 87 82 80 53 36
29 18 6 4 4 3 4 3 5 5 8 27 33 35 32 15
7 8 8 8 8 23 36 37 36 36 36 36 36 36 34 16
0 0 0 0 0 0 0 5 34 35 35 34 34 33 27 25
0 0 0 0 0 0 0 0 0 0 0 0 0 0 0 0
0 0 12 28 25 13 0 0 0 0 14 27 29 37 34 37
36 12 5 6 8 15 34 37 30 28 29 29 30 29 29 29
31 62 89 100 106 116 117 105 99 109 111 114 118 126 125 120
108 89 69 61 51 42 35 103 117 115 120 78 94 73 52 36
29 19 5 3 4 4 3 3 5 4 8 27 34 36 33 18
10 11 9 10 11 23 36 37 36 36 36 36 37 36 35 29
5 0 0 0 0 0 0 3 25 35 35 35 34 33 28 25
0 0 0 0 0 0 0 0 0 0 0 0 0 0 0 0
0 0 11 28 25 13 0 0 0 0 12 27 27 35 22 15
25 5 0 0 0 3 29 38 30 29 29 29 29 29 29 29
30 53 84 104 106 119 125 104 78 75 74 77 84 89 101 94
101 103 97 104 88 55 90 120 116 123 110 77 96 64 49 34
30 20 6 4 4 4 4 4 4 5 8 28 34 36 34 29
27 27 22 24 26 31 37 37 38 37 36 37 37 35 24 26
8 0 0 0 0 0 0 0 11 36 36 35 35 33 29 26
0 0 0 0 0 0 0 0 0 0 0 0 0 0 0 0
0 0 9 27 26 14 0 0 0 0 14 27 27 34 15 2
21 7 0 0 0 2 26 37 31 30 30 30 29 29 29 29
30 47 81 100 105 115 121 104 52 37 81 110 117 119 134 129
132 130 124 110 70 79 109 115 116 123 97 83 87 55 48 33
30 20 6 3 3 4 3 3 4 4 8 27 33 35 35 35
35 36 35 35 36 36 37 38 37 37 37 37 36 22 3 1
8 7 0 0 0 0 0 0 9 35 35 36 35 34 29 26
0 0 0 0 0 0 0 0 0 0 0 0 0 0 0 0
0 0 7 26 25 15 0 0 0 0 15 27 27 34 16 2
20 8 0 0 0 0 23 37 30 29 29 29 29 29 29 29
29 40 73 92 104 115 119 124 115 77 97 117 128 134 134 134
133 130 98 85 80 98 105 112 117 116 83 85 71 52 46 32
31 21 7 4 3 4 4 4 4 4 7 26 32 33 34 35
35 36 37 37 36 33 30 29 28 26 24 25 16 2 0 0
5 5 0 0 0 0 0 0 4 31 35 34 34 33 28 25
0 0 0 0 0 0 0 0 0 0 0 0 0 0 0 0
0 0 5 25 25 16 0 0 0 0 15 26 28 35 16 2
19 9 0 0 0 0 20 37 31 29 30 30 30 30 29 30
29 34 64 84 97 113 120 124 123 106 88 78 106 120 133 128
126 112 82 98 99 98 105 113 113 105 75 80 60 52 40 32
32 22 9 6 5 5 5 4 5 5 10 26 31 32 33 35
36 36 35 36 27 9 7 55 27 1 2 2 0 0 0 6
0 0 0 0 0 0 0 0 0 24 35 35 33 33 28 25
0 0 0 0 0 0 0 0 0 0 0 0 0 0 0 0
0 0 5 25 25 18 1 0 0 0 13 27 28 35 16 2
18 12 0 0 0 1 20 36 31 29 30 29 29 29 28 28
28 31 53 72 88 104 118 121 124 111 100 92 90 99 105 103
105 104 109 105 99 96 110 112 110 92 72 70 54 48 36 32
31 27 21 18 15 14 13 8 5 11 18 27 30 30 32 33
35 35 36 34 18 0 49 130 106 12 5 20 1 0 1 14
0 0 0 0 0 0 0 0 0 6 20 20 26 32 29 25
0 0 0 0 0 0 0 0 0 0 0 0 0 0 0 0
0 0 5 25 25 19 2 0 4 2 11 28 29 36 21 5
18 15 3 2 2 0 19 36 31 29 30 30 30 30 29 29
29 29 41 64 79 90 112 120 123 116 106 100 100 111 126 113
113 116 114 109 102 101 111 108 104 79 69 63 51 42 34 33
32 31 29 27 23 22 20 11 3 14 21 26 28 29 31 33
35 34 25 22 10 1 58 99 95 22 11 22 15 11 16 21
10 7 6 5 4 3 3 2 1 1 3 3 20 33 30 26
0 0 0 0 0 0 0 0 0 0 0 0 0 0 0 0
0 0 4 24 25 20 4 0 9 11 15 30 30 37 26 10
17 14 5 8 3 0 16 34 30 29 30 30 29 29 29 28
28 29 33 58 70 81 100 116 125 121 110 107 108 113 120 118
115 111 109 104 102 108 112 107 100 75 63 55 49 40 33 33
32 31 31 28 25 23 23 13 2 16 22 25 27 28 30 32
34 32 14 14 14 15 18 21 22 22 23 26 28 27 28 26
23 20 16 14 11 9 9 8 7 7 7 9 25 37 34 29
0 0 0 0 0 0 0 0 0 0 0 0 0 0 0 0
0 0 3 24 25 22 20 20 25 27 29 36 32 37 25 16
17 17 11 13 9 7 18 31 29 29 29 30 29 30 29 29
29 29 29 44 65 71 85 103 120 122 117 111 111 113 111 106
104 102 105 108 110 112 113 106 90 64 59 53 46 39 32 32
31 31 31 29 26 25 24 15 2 15 22 25 27 28 29 32
34 34 15 12 12 12 13 13 14 15 16 17 19 17 16 15
11 7 5 3 2 8 31 34 35 37 38 40 45 47 44 39
0 0 0 0 0 0 0 0 0 0 0 0 0 0 0 0
0 0 3 23 24 25 39 43 44 45 45 44 35 36 19 14
18 23 21 21 20 19 22 26 27 29 29 29 30 30 29 29
28 29 27 31 57 68 74 97 114 121 121 118 115 112 108 105
106 109 114 116 115 116 111 100 78 57 54 49 45 41 31 31
31 30 30 29 26 25 24 16 3 15 22 24 26 27 29 32
34 34 24 5 0 0 0 0 0 0 0 0 0 0 0 0
0 0 0 0 0 21 54 55 55 54 54 52 50 48 45 40
0 0 0 0 0 0 0 0 0 0 0 0 0 0 0 0
0 0 3 23 24 25 41 46 45 45 44 43 37 35 15 7
16 26 25 25 25 24 25 25 27 29 29 29 30 29 30 29
29 29 28 30 46 62 66 85 106 117 120 121 120 121 117 114
110 112 117 120 119 119 111 89 65 51 50 46 49 42 29 31
31 30 31 29 27 27 25 17 3 14 21 24 25 27 29 32
34 34 24 2 0 0 0 0 0 0 0 0 0 0 0 0
0 0 0 0 0 33 54 53 53 52 50 45 45 42 39 36
0 0 0 0 0 0 0 0 0 0 0 0 0 0 0 0
0 0 2 22 24 22 28 29 29 28 27 26 28 33 14 2
15 27 27 28 27 27 28 28 28 28 29 30 30 30 29 29
29 29 28 31 47 52 64 72 100 110 122 122 123 121 118 114
112 110 115 117 118 120 104 75 54 48 48 47 54 40 29 31
30 30 30 29 28 27 26 19 3 14 23 24 26 27 29 32
33 33 15 0 0 0 0 0 0 0 0 0 0 0 0 0
0 0 0 0 2 33 38 37 45 39 37 30 32 32 28 31
0 0 0 0 0 0 0 0 0 0 0 0 0 0 0 0
0 0 3 22 23 19 17 15 16 16 16 15 21 32 14 1
13 28 28 29 28 28 28 28 28 28 28 28 29 29 29 29
28 28 28 31 55 50 60 62 85 104 115 120 123 122 118 114
115 113 116 115 118 113 92 61 46 44 45 54 57 39 27 26
24 25 26 28 29 28 26 20 4 13 23 25 25 27 28 30
32 32 10 0 0 0 0 0 0 0 0 0 0 0 0 0
0 0 0 0 1 8 7 7 31 33 29 25 24 24 24 28
0 0 0 0 0 0 0 0 0 0 0 0 0 0 0 0
0 0 3 22 23 20 18 17 18 17 17 16 23 34 22 14
22 29 27 28 27 28 27 28 28 28 29 28 29 29 28 28
28 27 27 28 53 66 52 60 67 90 105 116 120 122 118 116
116 116 117 114 110 100 75 50 44 44 57 61 61 30 14 23
19 17 16 21 26 26 24 19 4 12 24 25 26 26 28 29
30 27 3 0 0 0 0 0 0 0 0 0 0 0 0 0
0 0 0 0 0 0 0 0 17 35 33 31 31 31 29 29
0 0 0 0 0 0 0 0 0 0 0 0 0 0 0 0
0 0 6 25 24 21 21 20 20 19 18 16 23 35 32 33
35 30 26 27 28 27 27 27 28 28 27 27 28 27 28 27
28 27 26 27 49 76 67 52 56 70 93 107 117 120 120 119
116 116 117 113 103 88 58 40 45 60 65 64 62 26 4 20
18 12 12 18 25 25 25 21 5 11 24 25 26 27 27 28
29 18 0 0 0 0 0 0 0 0 0 0 0 0 0 0
0 0 0 0 0 0 0 0 10 34 34 33 31 31 30 29
0 0 1 1 1 2 3 3 4 5 6 7 8 9 11 12
13 13 17 23 22 21 22 22 22 21 21 17 22 28 26 29
30 26 26 27 27 26 27 27 27 27 27 27 27 28 28 27
27 27 26 28 44 79 80 66 51 51 75 91 108 115 115 116
115 117 112 106 88 67 42 47 61 68 68 69 64 29 6 20
23 13 10 15 22 24 23 20 5 10 23 25 26 26 25 27
26 7 0 0 0 0 0 0 0 0 0 0 0 0 0 0
0 0 0 0 0 0 0 0 3 29 31 29 28 29 28 28
11 12 14 15 16 17 17 18 18 19 19 19 20 20 20 21
20 20 20 21 21 21 21 22 22 21 21 18 20 22 21 21
24 24 26 27 27 27 27 26 27 26 26 26 26 26 26 27
26 27 26 32 36 77 85 84 78 59 52 69 86 103 112 111
110 107 101 89 69 46 49 68 70 71 72 69 64 29 12 24
27 14 8 13 20 22 22 19 6 9 22 24 25 26 25 25
21 3 0 0 0 0 0 0 0 4 0 0 0 0 0 0
0 0 0 11 1 0 0 0 0 22 24 19 21 20 18 19
17 16 19 20 20 20 20 20 20 20 20 20 20 21 21 20
20 20 20 20 20 20 22 22 21 22 20 20 21 22 22 22
23 24 25 26 26 25 26 26 26 26 26 26 27 27 27 26
26 26 30 32 30 76 89 90 88 83 73 56 60 79 95 98
95 89 75 60 45 58 74 74 74 77 75 72 64 26 19 32
34 17 8 11 16 21 21 18 5 7 21 23 24 25 25 25
13 0 0 0 0 0 0 0 0 0 0 0 0 0 0 0
0 0 2 22 0 0 0 0 0 17 21 19 20 19 15 18
17 15 19 20 20 20 20 20 21 26 27 15 9 12 16 15
10 13 18 18 19 21 23 23 22 22 22 20 22 23 23 22
24 24 25 26 26 26 26 26 26 26 27 26 26 27 26 26
25 26 32 31 37 75 92 95 94 93 91 86 69 52 53 56
56 50 44 51 67 74 73 79 81 79 80 73 65 26 32 39
34 23 10 10 13 20 21 20 7 7 22 24 25 25 25 24
9 0 0 0 0 0 0 0 0 0 0 0 0 0 0 0
0 0 11 26 0 0 0 0 0 11 25 27 27 25 23 26
14 13 14 14 14 13 13 17 33 45 28 3 0 0 1 1
0 1 10 15 14 14 13 11 12 17 21 21 22 23 24 23
23 24 26 25 25 25 25 25 26 26 26 26 26 26 26 25
23 25 35 33 42 71 94 99 98 97 94 94 97 94 77 56
47 56 68 76 78 75 75 83 85 84 82 78 61 30 40 39
34 26 11 9 10 18 21 19 10 10 22 24 25 25 25 25
5 0 0 0 0 0 0 6 0 0 0 0 0 0 0 0
0 0 15 19 0 0 0 0 0 5 26 28 28 28 28 27
1 1 1 1 2 5 8 29 53 38 7 0 0 0 0 0
0 0 0 1 1 0 0 0 0 3 16 22 22 23 24 24
23 24 25 25 25 25 26 25 25 25 25 25 25 23 22 23
21 26 35 34 46 69 94 102 102 101 101 99 102 105 111 117
116 107 95 88 85 82 86 92 96 96 93 85 51 39 40 39
31 29 12 7 8 17 20 19 17 18 23 25 24 24 25 27
1 0 0 0 0 0 1 12 0 0 0 0 0 0 0 0
0 0 4 3 0 0 0 0 0 0 13 23 24 24 24 25
0 0 0 0 0 8 17 44 46 14 0 0 0 0 0 0
0 0 0 0 0 0 0 0 0 0 10 22 23 23 24 24
24 24 24 25 25 25 25 25 25 25 25 25 24 21 18 23
25 36 40 37 54 65 95 102 107 110 110 112 109 112 118 122
126 123 119 113 106 108 111 113 114 111 104 86 47 41 42 39
31 28 25 22 19 21 22 20 20 21 21 22 23 23 23 14
0 0 0 0 0 0 0 0 0 0 0 0 0 0 0 0
0 0 0 0 0 0 0 0 0 0 3 12 17 15 17 25
0 0 0 0 0 7 29 45 25 2 0 0 0 0 0 0
0 0 0 0 0 0 0 0 0 0 9 23 23 23 23 24
24 23 24 24 25 25 25 25 25 25 25 24 23 17 16 20
26 38 44 44 71 63 98 108 115 122 122 121 117 116 119 119
123 121 121 119 120 122 123 124 122 117 107 73 50 41 43 38
32 27 29 36 38 36 32 27 22 19 16 14 15 14 13 4
0 0 0 0 0 0 0 0 0 0 0 0 0 0 0 0
0 0 0 0 0 0 0 0 0 0 7 11 19 20 21 25
0 1 5 4 1 6 39 37 6 0 2 4 0 0 0 0
0 0 0 0 0 0 0 0 0 3 18 25 25 23 23 24
24 24 24 24 25 25 25 24 25 24 23 23 20 17 17 18
30 38 44 45 83 71 99 108 117 124 126 126 123 120 121 122
120 119 121 123 124 125 127 129 125 119 103 75 47 44 43 39
33 26 25 18 28 36 39 33 26 20 13 5 2 2 0 0
0 0 0 0 0 0 0 0 0 0 0 0 0 0 0 0
0 0 0 0 0 0 0 0 0 0 12 18 20 27 26 26
2 4 10 9 1 11 45 29 5 14 22 20 2 0 0 0
0 0 0 0 0 0 0 0 0 11 20 21 21 21 23 24
24 24 23 23 24 24 24 24 24 23 22 23 20 21 24 27
36 38 45 50 70 85 92 109 120 125 131 132 128 123 124 123
121 122 124 126 127 130 130 130 125 120 92 84 45 44 42 38
33 26 26 15 11 29 43 45 46 42 41 38 24 10 2 0
0 0 0 0 0 0 0 0 0 0 0 0 0 0 0 0
0 0 0 0 0 0 0 0 0 0 6 11 11 26 27 27
13 12 10 7 0 17 40 15 10 28 28 25 8 0 6 10
1 0 0 0 0 0 0 0 0 1 4 5 5 9 20 23
24 24 23 23 23 24 24 24 27 29 32 30 25 24 29 36
38 39 43 54 61 98 77 110 121 127 132 132 132 130 128 129
127 128 130 131 134 133 132 129 128 113 100 67 44 43 41 35
32 26 28 23 15 21 41 48 45 41 44 43 44 44 39 26
15 4 0 0 0 0 0 0 0 0 0 0 0 0 0 0
0 0 0 0 0 0 0 0 0 0 0 0 2 21 27 27
16 10 5 1 0 24 38 6 7 30 30 26 7 2 21 24
15 2 0 1 0 0 0 0 0 0 0 0 0 1 17 23
23 22 22 22 25 28 30 32 32 33 38 42 37 27 29 36
36 39 42 50 52 101 76 101 123 128 133 135 135 133 132 133
133 132 133 133 133 134 134 131 123 104 89 47 44 41 42 38
31 28 27 25 23 31 41 44 44 40 39 44 42 42 49 46
49 42 36 27 17 12 4 0 0 0 0 0 0 0 0 0
0 0 0 0 0 0 0 0 0 0 0 0 0 12 27 26
13 2 0 0 0 29 39 5 8 26 17 21 12 17 31 27
20 7 0 2 0 0 0 0 0 0 0 0 0 0 14 21
21 21 26 35 39 39 35 34 37 44 48 51 44 28 25 36
37 39 40 48 50 90 104 83 123 128 134 136 136 136 135 135
135 134 133 134 135 135 135 128 107 111 67 48 48 40 39 36
28 26 24 22 30 33 43 49 48 42 37 40 44 47 50 49
51 45 45 47 45 45 41 38 30 17 2 0 0 0 0 0
0 0 0 0 0 0 0 0 0 0 0 0 0 5 20 20
11 1 0 0 0 33 40 7 7 13 1 13 21 29 35 25
19 10 0 1 0 0 0 0 0 0 0 0 0 0 14 24
28 36 41 44 45 44 36 37 41 50 53 49 42 27 25 37
36 39 39 48 54 74 119 87 114 129 134 137 136 136 136 136
136 136 135 135 135 135 131 108 103 116 67 10 31 48 39 35
29 27 23 19 42 46 48 48 48 44 44 40 43 46 47 45
47 46 46 46 45 44 45 46 46 47 42 19 2 0 0 0
0 0 0 0 0 0 0 0 0 0 0 0 0 1 18 20
10 5 2 0 1 34 45 15 10 7 1 16 28 37 31 11
13 13 0 0 0 0 0 0 0 0 0 1 10 24 36 42
41 42 43 48 46 39 28 33 41 48 48 48 42 32 34 39
34 36 39 44 51 62 118 107 89 126 133 136 137 136 136 136
136 135 136 136 135 135 121 102 116 101 40 1 1 40 38 32
29 27 19 15 40 47 50 47 43 39 43 41 44 43 42 44
45 46 45 45 43 43 43 43 45 45 46 46 41 16 0 0
0 0 0 0 0 0 0 0 0 0 0 0 0 1 15 20
15 12 11 0 0 29 46 26 14 3 1 18 33 38 20 0
9 14 0 0 0 0 0 0 0 4 17 32 42 42 43 41
40 42 44 45 44 36 23 35 47 45 45 46 43 38 37 39
33 35 39 46 52 57 109 124 84 112 133 137 137 137 137 136
137 136 136 136 135 124 109 110 122 70 18 0 0 22 44 33
31 29 21 15 36 43 46 44 37 39 43 42 43 39 39 43
43 45 45 44 43 43 44 43 43 45 46 46 44 35 12 0
0 0 0 0 0 0 0 0 0 0 0 0 0 3 13 19
19 16 13 1 0 25 40 33 14 0 2 21 34 24 7 0
7 9 0 0 0 0 0 0 20 40 41 43 43 40 41 40
41 43 43 43 42 35 26 37 46 46 43 44 42 40 39 38
33 36 38 49 54 37 111 131 109 89 131 137 137 137 136 136
137 137 136 136 129 116 114 127 95 62 12 0 0 22 48 32
29 30 24 25 39 43 45 43 39 39 44 44 44 40 37 41
44 44 43 42 43 42 44 43 44 46 45 44 38 25 33 5
0 0 0 0 0 0 0 0 0 0 0 0 0 4 11 18
20 16 15 2 0 21 39 37 14 0 2 15 15 4 0 0
0 0 0 0 0 0 1 27 45 42 41 39 40 39 41 38
40 43 42 43 41 35 26 35 47 42 38 42 43 38 39 41
35 37 38 49 40 9 110 127 113 89 116 138 137 137 138 137
137 137 136 130 121 116 125 110 60 32 3 0 2 26 48 32
32 38 33 38 41 44 45 42 41 35 45 44 42 40 37 42
45 44 44 44 46 43 43 44 43 43 43 43 36 23 38 24
1 0 0 0 0 0 0 0 0 0 0 0 0 5 11 19
23 17 14 2 0 8 18 15 4 0 0 0 0 0 0 0
0 0 0 0 0 0 25 42 43 40 40 38 41 40 40 38
39 39 41 43 40 35 27 35 43 42 35 36 42 39 37 41
32 35 36 48 32 2 102 128 110 104 101 138 138 137 137 137
137 136 130 112 92 122 116 52 24 18 3 2 13 25 51 37
36 47 39 40 41 43 44 42 41 37 40 45 41 39 41 43
44 42 43 45 44 43 43 44 45 45 44 44 32 24 40 28
12 0 0 0 0 0 0 0 0 0 0 0 0 5 10 21
6 3 1 0 0 0 0 0 0 0 0 0 0 0 0 0
0 0 0 0 0 16 38 36 38 38 39 40 42 42 43 39
40 42 44 44 40 36 29 35 40 42 35 34 42 38 37 43
33 34 34 45 37 0 89 135 111 115 100 127 138 138 138 137
136 127 97 67 67 103 62 25 22 20 10 22 17 17 54 43
45 51 43 42 43 43 44 44 45 41 34 43 38 38 40 43
43 46 47 45 45 44 46 46 45 44 42 42 31 23 39 27
29 1 0 0 0 0 0 0 0 0 0 0 0 4 9 20
0 0 0 0 0 0 0 1 2 0 0 1 0 2 0 0
3 0 0 0 8 35 39 33 30 41 35 39 44 45 42 38
42 46 46 42 39 38 33 36 38 40 36 35 41 38 38 43
38 39 30 39 39 0 58 139 121 117 109 102 135 137 134 129
115 71 44 37 42 31 25 23 21 20 25 40 20 13 46 54
44 48 46 44 44 44 43 45 45 42 36 40 39 39 39 43
42 43 43 42 43 43 43 44 43 43 43 45 32 26 41 31
36 12 0 0 0 0 0 0 0 0 0 0 0 3 8 18
0 0 0 0 0 0 2 15 16 9 5 12 13 12 3 7
7 0 0 1 29 38 39 35 29 41 36 38 42 42 39 41
46 49 46 41 38 39 38 37 37 38 35 36 40 37 41 44
39 42 36 41 36 0 24 124 133 126 110 73 101 125 115 104
65 34 25 25 32 33 32 30 26 28 38 39 30 20 28 54
52 49 51 45 43 45 45 45 45 44 40 35 39 41 40 38
43 41 43 44 44 45 46 43 44 44 45 45 32 28 40 32
40 25 4 0 0 0 0 0 0 0 0 0 0 2 9 16
0 0 0 0 0 0 2 19 19 25 28 22 25 21 14 16
5 0 0 16 34 39 39 35 30 41 37 36 41 42 42 45
48 48 49 38 36 38 42 40 36 37 35 38 41 36 41 43
39 43 41 44 29 0 16 63 120 134 123 75 54 69 80 77
38 33 37 41 44 42 39 34 36 37 40 38 38 37 31 33
52 56 53 61 37 43 47 47 48 49 44 37 42 43 44 41
40 41 44 46 45 45 45 42 44 43 44 42 31 28 41 33
39 33 29 8 0 0 0 0 0 0 0 0 0 2 12 16
0 0 0 0 0 0 0 8 19 30 34 28 30 30 26 16
1 0 11 36 36 39 39 33 30 42 36 33 37 41 44 47
48 47 43 34 34 42 48 47 37 33 33 39 41 39 42 40
41 44 47 49 17 15 23 27 43 78 93 47 30 36 50 56
37 37 41 43 44 41 35 30 41 37 40 39 38 40 41 39
36 36 34 37 30 43 49 48 48 47 45 41 40 44 45 44
40 40 46 45 45 44 42 41 43 44 43 43 29 26 40 34
42 42 37 35 1 0 0 0 0 0 0 0 0 3 16 17
0 0 0 0 0 0 0 1 15 22 31 36 34 34 22 4
0 2 36 38 37 39 40 34 32 42 38 36 40 43 47 48
48 47 40 33 34 43 48 44 38 37 33 41 43 43 45 45
46 49 48 35 34 35 30 28 29 30 32 10 10 20 33 50
38 41 42 45 47 42 31 34 41 39 43 41 41 42 44 44
44 42 39 41 40 43 44 45 46 46 44 41 40 44 48 47
41 40 42 45 45 43 41 40 42 45 48 45 30 28 40 38
48 45 44 88 30 0 0 0 0 0 0 0 0 6 16 17
0 0 0 0 0 0 0 0 3 11 22 27 24 16 3 0
0 24 45 41 37 40 42 33 29 41 39 38 40 43 47 48
46 43 36 32 37 49 47 39 39 40 34 43 43 52 48 42
39 39 37 40 44 45 43 42 40 33 40 31 32 30 44 49
40 43 49 50 49 39 31 41 41 42 43 43 42 43 45 44
44 43 41 42 43 43 44 45 47 47 45 44 41 42 45 46
44 41 41 45 47 44 41 44 45 47 47 45 29 28 39 43
46 46 60 116 91 5 0 0 0 0 0 0 0 4 13 13
0 0 0 0 0 0 0 0 0 1 8 10 10 2 1 4
10 47 44 44 36 38 42 32 29 45 43 41 42 44 47 47
44 42 31 31 41 46 44 41 40 41 37 43 44 43 38 38
39 42 45 46 47 47 48 45 45 38 42 36 32 33 101 110
63 50 51 56 49 37 39 46 43 50 74 81 69 59 51 45
45 43 43 44 45 47 47 47 46 46 44 45 43 40 40 44
44 36 43 46 46 46 44 44 43 46 49 43 30 29 42 44
47 55 103 131 113 36 0 0 0 0 0 0 0 5 16 14
0 0 0 0 0 0 0 0 0 2 5 6 3 0 3 8
40 75 47 45 41 38 41 34 31 46 42 43 42 46 48 46
45 41 29 34 45 48 48 41 40 44 43 43 43 48 49 49
46 46 48 47 48 49 49 48 47 42 42 42 31 43 129 138
136 126 120 127 103 50 47 62 94 129 137 136 136 135 128 114
96 70 47 42 45 46 46 47 45 45 47 47 46 43 41 42
43 37 40 43 46 46 46 50 67 89 106 100 42 27 45 43
48 90 134 132 113 88 2 0 0 0 0 0 0 5 17 14
0 0 0 0 0 0 0 0 4 9 8 8 8 16 11 5
82 118 51 43 45 38 39 32 31 45 43 44 45 48 48 47
45 41 31 39 46 47 47 42 41 47 44 42 46 49 49 48
46 46 48 47 49 48 49 49 47 44 44 48 32 64 138 137
138 137 137 137 136 130 127 133 135 135 136 136 136 136 136 136
135 136 125 100 76 68 67 64 63 59 50 45 45 43 44 44
44 39 45 71 97 111 122 130 134 134 134 133 69 26 45 49
75 133 134 130 113 113 30 0 0 0 0 0 0 3 14 10
3 1 0 0 0 0 0 0 4 9 7 7 17 34 23 24
124 137 97 44 40 42 41 34 32 44 46 44 45 47 47 45
45 38 31 44 48 48 50 44 42 47 47 45 45 48 65 79
77 66 60 52 49 50 52 51 54 66 86 121 87 91 139 138
138 138 137 136 136 136 137 137 137 136 135 136 136 136 136 136
135 135 135 135 135 135 135 135 135 134 127 114 88 55 46 47
49 78 120 134 133 134 134 134 133 133 134 133 72 27 46 61
125 133 133 128 117 117 85 1 0 0 0 0 0 3 13 9
3 3 1 0 0 0 0 0 4 11 9 10 26 38 27 69
140 138 135 65 41 43 41 34 44 84 79 65 55 53 50 48
45 38 35 47 48 48 50 45 42 48 50 46 53 108 138 139
139 138 137 131 125 116 114 122 131 137 137 137 133 132 137 137
137 137 137 136 136 136 136 136 136 135 135 135 136 136 136 136
135 135 136 135 135 135 135 134 134 134 134 134 133 130 116 113
125 133 133 132 132 132 132 131 132 132 132 130 84 29 52 112
133 132 131 129 124 121 117 34 0 0 0 0 0 0 2 2
0 2 4 1 0 0 0 0 3 12 13 21 38 46 51 120
140 139 139 111 48 41 43 33 81 142 140 139 134 131 127 115
94 60 40 51 65 90 94 71 49 49 52 61 119 140 139 138
138 138 137 137 137 137 137 137 138 137 137 136 136 136 136 137
137 136 136 136 136 136 136 135 135 136 135 135 135 135 134 134
134 134 134 134 134 133 133 133 134 133 133 134 133 133 133 132
132 132 130 130 130 130 131 130 130 130 130 129 91 36 86 131
131 131 130 130 128 126 117 87 3 0 0 0 0 0 0 0
0 1 4 3 1 0 0 0 0 6 15 28 41 50 85 139
140 139 140 138 82 42 40 34 88 142 140 140 139 139 139 140
139 133 117 120 135 139 138 137 124 107 106 129 138 138 138 138
138 137 138 138 138 137 137 136 137 137 137 137 136 136 136 136
136 136 136 136 136 136 135 135 135 135 135 134 135 134 134 134
134 134 133 133 133 132 132 132 132 131 131 131 132 131 131 131
130 130 131 130 130 130 130 129 130 130 130 129 96 55 125 130
129 129 128 128 128 127 117 109 39 0 0 0 0 0 0 0
2 0 1 1 1 0 0 0 0 0 9 26 38 52 114 141
140 139 139 139 128 59 41 35 89 141 140 140 139 139 139 139
139 138 139 139 138 138 139 138 139 138 138 138 138 138 138 137
138 137 137 137 137 137 136 136 137 137 136 136 136 136 136 136
117 131 136 135 136 136 135 135 135 134 135 135 134 134 133 133
133 132 133 132 132 131 131 131 132 132 132 132 131 131 131 131
131 130 130 130 130 129 129 129 129 130 129 128 107 102 129 128
129 128 128 126 127 126 119 110 79 4 0 0 0 0 0 0
5 2 0 0 1 0 0 0 0 0 0 13 26 65 135 140
140 139 140 140 139 110 47 36 92 141 139 139 139 139 139 139
139 139 139 138 138 138 138 138 138 138 138 137 138 137 137 138
138 137 137 137 137 137 136 136 137 137 136 135 136 135 135 126
114 130 136 135 136 135 135 135 135 134 134 134 134 133 133 133
133 133 133 133 132 132 131 131 131 131 132 131 130 130 131 130
131 131 130 130 130 130 130 130 130 129 129 128 126 126 128 128
128 127 127 127 127 126 121 109 105 30 0 0 0 0 0 0
7 3 0 0 0 0 0 0 0 6 5 17 31 100 141 140
139 139 139 139 139 137 85 41 102 140 139 140 140 139 139 138
138 138 138 139 138 138 138 138 138 137 138 138 138 139 137 137
138 137 137 137 137 136 136 136 136 136 136 136 136 136 119 108
112 119 136 135 135 135 135 135 135 134 134 134 134 133 133 133
132 132 132 132 132 131 131 131 131 131 131 131 131 131 131 132
131 131 130 130 129 130 129 129 129 129 129 129 127 126 129 128
128 128 128 127 127 126 121 112 114 67 1 0 0 0 0 0
5 3 0 0 0 0 0 0 1 10 13 30 59 131 140 140
139 139 139 139 139 140 133 115 135 139 138 139 138 139 139 138
139 139 139 138 138 138 138 138 138 137 138 137 137 137 137 137
137 138 136 137 136 136 137 137 136 135 136 136 135 135 117 91
103 126 136 135 135 135 135 135 134 134 135 134 134 133 132 133
133 133 133 133 132 131 131 130 131 131 131 131 131 132 131 131
131 130 130 130 130 130 130 130 130 130 130 129 123 125 128 127
128 128 127 127 126 127 120 116 116 100 17 0 0 1 12 5
2 0 0 0 0 0 0 0 0 6 13 33 97 141 140 139
139 138 139 138 138 138 139 138 138 138 138 138 139 138 139 138
138 138 138 138 137 137 138 137 138 138 137 137 137 137 137 137
137 137 136 136 136 136 136 136 136 135 136 135 136 135 133 97
93 136 135 135 135 135 134 134 134 134 134 133 133 133 133 133
133 133 133 132 132 131 131 131 130 131 131 131 131 131 131 131
131 130 130 130 129 130 130 129 129 129 129 128 119 125 129 129
128 128 128 127 127 127 122 122 118 113 54 0 0 1 10 5
0 0 0 0 0 0 0 0 0 6 14 48 130 140 139 139
139 139 139 139 139 139 139 138 137 138 138 138 138 138 138 138
138 138 139 138 137 137 137 138 138 137 137 137 137 137 137 137
138 137 137 137 137 137 136 136 136 136 135 135 135 135 135 134
135 134 135 135 135 135 135 134 134 134 134 133 133 133 133 132
132 133 133 133 133 132 131 131 131 131 131 131 131 131 130 130
130 130 130 130 130 129 129 129 130 129 129 128 120 126 128 128
127 127 128 127 127 126 126 126 122 115 91 8 0 0 0 0
0 0 0 0 0 0 0 0 0 4 15 81 141 139 139 139
139 139 139 139 138 139 139 139 138 138 138 138 138 139 138 138
138 138 138 138 137 138 137 138 137 137 137 137 138 137 137 137
138 137 136 136 136 136 136 136 136 135 135 135 136 136 135 135
135 134 135 135 134 135 134 133 134 133 134 133 133 132 132 132
132 132 133 133 132 132 132 131 131 131 131 131 131 131 131 131
130 131 130 129 130 130 130 129 129 128 129 128 122 126 128 128
129 128 128 127 127 126 126 127 126 118 110 36 0 0 0 0
