P2
128 120
136
0 6 36 33 26 26 26 26 26 26 26 25 25 25 25 25
25 24 24 24 23 23 22 22 22 22 22 21 21 20 21 20
20 20 20 19 18 18 18 18 18 18 17 16 16 16 16 15
15 16 17 19 19 20 18 13 13 15 15 20 19 20 19 19
19 19 18 18 17 15 17 18 20 20 20 20 21 21 21 21
22 22 22 23 23 23 23 24 24 24 24 24 24 24 25 25
26 26 26 26 27 26 26 27 27 27 28 28 27 28 28 29
29 29 28 29 30 29 29 29 29 29 30 29 29 29 30 30
0 6 35 32 26 26 26 26 25 26 25 25 25 25 24 24
24 24 24 23 23 23 23 22 22 21 21 21 21 20 20 20
20 19 19 19 19 19 18 18 18 17 17 17 17 16 16 16
15 16 17 19 20 20 19 14 13 17 14 20 20 20 19 19
19 19 18 18 17 14 18 19 20 20 21 21 21 21 21 22
22 22 22 22 22 22 23 23 24 23 24 25 25 25 25 25
26 25 26 26 27 27 27 28 28 28 28 29 28 28 28 28
28 28 28 28 28 29 29 29 29 29 29 29 30 30 29 30
0 6 34 32 26 26 25 26 25 25 25 25 25 25 25 25
24 24 24 23 23 22 22 22 22 22 21 21 21 21 20 20
20 20 20 19 19 19 19 19 18 17 17 17 16 16 16 16
16 17 17 20 20 20 19 14 13 16 14 20 20 20 20 19
20 20 19 18 18 16 19 19 20 20 21 20 21 21 22 21
22 23 23 22 23 23 23 24 24 24 24 25 25 25 25 25
25 26 26 27 27 27 28 27 27 26 26 27 27 27 28 28
29 29 30 28 29 29 29 29 29 29 29 29 30 29 29 29
0 6 34 31 25 25 26 25 25 25 24 25 25 24 24 24
23 23 23 23 23 22 22 22 22 22 22 21 21 21 20 20
20 19 19 19 19 18 18 18 18 17 17 16 17 16 16 16
16 16 17 19 20 20 19 14 14 17 14 19 20 20 20 19
19 20 18 18 18 16 19 19 20 21 21 21 22 22 22 22
22 22 22 22 23 23 23 23 24 25 25 25 25 26 25 26
26 26 26 26 26 26 26 26 26 27 27 27 28 28 28 28
28 28 29 29 28 28 28 28 29 28 29 29 30 29 30 30
0 6 33 31 25 25 25 25 25 25 25 25 25 24 24 24
24 24 23 23 22 22 22 22 22 21 21 21 21 21 20 20
20 20 20 20 19 19 19 18 18 17 17 17 17 16 16 16
16 17 18 20 20 20 19 14 14 18 14 19 20 20 20 20
19 19 19 19 18 16 19 19 21 21 21 21 22 22 22 22
22 22 23 23 23 23 24 24 25 25 25 26 25 25 25 25
25 26 26 26 27 27 27 28 28 28 27 27 28 28 28 28
28 29 29 29 28 29 29 29 29 29 29 29 30 29 29 29
1 13 35 30 25 25 25 25 25 25 24 24 24 24 24 24
23 23 23 23 23 23 23 22 22 22 22 21 21 21 21 20
20 19 20 19 19 19 18 18 18 18 18 17 17 17 17 16
17 16 18 20 21 20 20 14 14 19 14 19 21 21 20 20
19 19 19 18 18 16 19 20 21 21 21 22 22 22 23 23
23 23 23 23 24 23 24 24 24 24 24 25 24 25 25 26
26 26 27 27 27 27 28 28 28 28 28 28 28 29 28 28
28 29 29 29 28 28 28 29 29 28 29 29 29 29 30 29
15 21 33 29 25 25 25 25 25 24 24 24 25 24 24 24
24 24 23 23 23 23 22 23 22 22 21 21 21 21 20 20
20 21 20 20 20 19 19 19 19 18 17 17 17 17 16 16
16 17 18 20 21 21 20 14 15 20 15 19 21 21 21 20
20 19 20 20 19 17 19 20 22 21 22 22 23 23 23 23
23 24 23 24 24 24 24 24 25 25 25 25 25 26 26 26
27 26 27 28 27 28 29 28 29 28 28 28 28 29 29 29
29 29 29 30 29 29 29 29 30 29 30 29 30 30 30 29
26 27 28 27 25 25 25 25 25 25 25 25 25 24 24 25
24 24 24 24 23 23 23 23 23 22 22 22 22 21 21 20
21 20 20 19 19 19 19 19 19 18 18 18 18 17 18 17
18 18 19 21 22 21 20 15 15 21 17 19 22 22 22 21
20 20 20 20 20 17 20 20 22 22 22 22 23 22 23 23
23 23 23 23 24 24 24 25 25 25 26 26 26 26 27 26
26 27 28 28 27 28 28 28 29 28 29 28 28 29 29 29
28 29 29 30 29 29 29 29 29 29 29 29 30 30 30 30
19 22 25 26 27 26 26 26 25 25 25 24 25 24 25 24
24 23 24 23 24 23 23 22 22 22 21 22 21 21 21 21
21 21 21 21 20 20 20 19 19 18 18 17 18 18 17 17
17 18 19 22 22 22 21 15 15 22 19 19 22 22 22 21
21 20 20 21 20 17 20 20 22 22 22 22 23 22 23 23
23 23 24 25 25 25 26 26 26 26 26 26 26 26 27 27
27 27 28 29 28 28 29 28 29 29 28 29 29 28 28 29
29 29 29 30 29 29 30 29 30 30 29 29 30 30 30 30
9 11 13 17 20 22 25 25 26 26 26 25 25 24 24 25
24 24 24 23 24 24 23 23 23 23 23 22 22 21 21 21
21 21 21 20 20 20 19 19 19 19 19 19 19 19 18 18
19 19 20 21 22 22 21 16 16 23 19 18 22 22 23 22
21 21 21 21 21 18 20 20 22 23 23 24 24 24 24 24
25 25 25 25 25 25 25 26 26 25 26 26 27 27 27 27
28 28 28 29 28 29 29 29 29 29 29 29 29 29 29 29
30 30 29 30 29 30 30 30 30 30 30 30 30 30 30 30
5 7 7 7 9 10 11 15 18 20 23 24 25 25 25 24
24 24 24 24 24 24 24 23 23 24 23 22 22 22 21 21
21 21 22 21 20 21 20 20 20 20 19 19 19 19 18 18
18 19 20 22 23 22 22 16 16 23 20 18 23 23 23 23
22 22 22 21 21 18 22 22 23 24 24 24 24 25 25 25
25 25 26 26 26 26 26 26 26 26 26 27 27 27 28 28
28 28 29 28 28 29 29 30 29 29 29 30 29 30 29 30
30 29 30 31 30 30 31 30 30 30 30 30 29 29 30 30
13 10 8 7 6 6 6 6 7 6 8 13 22 25 25 25
25 25 24 24 24 24 24 23 23 23 23 23 22 22 22 22
22 22 21 21 21 21 20 20 20 20 20 19 19 20 19 19
19 19 21 23 23 23 22 16 16 22 22 18 23 24 24 23
22 22 22 22 22 19 22 23 24 23 24 24 25 25 25 25
25 25 26 26 27 26 26 26 26 26 26 27 27 28 28 28
29 28 29 29 28 29 29 29 29 29 29 29 29 29 30 30
29 30 30 29 28 29 30 29 29 29 30 31 31 30 30 30
30 24 11 13 10 8 7 6 7 4 1 8 21 24 24 25
24 25 24 24 24 24 24 24 23 23 23 23 23 22 22 21
22 21 21 21 21 21 21 20 20 20 20 19 19 19 19 19
19 19 20 23 23 23 22 17 16 24 24 18 23 24 23 23
22 23 22 22 22 19 22 22 25 24 24 25 25 25 25 25
25 25 26 26 27 26 27 27 27 27 27 27 28 28 28 28
28 29 28 29 28 28 29 29 30 30 29 29 29 28 28 28
29 29 30 30 29 29 30 30 29 30 30 30 31 29 30 29
37 30 19 23 26 22 17 15 12 8 5 8 21 25 25 25
25 24 24 25 25 24 24 23 23 23 23 22 23 22 23 23
22 22 24 26 25 22 22 21 20 19 20 20 20 20 20 20
19 20 21 23 23 22 23 17 16 23 25 18 23 24 24 23
23 23 23 22 22 19 22 23 24 24 24 24 25 26 26 25
25 26 26 26 28 27 27 27 27 27 27 27 28 28 29 29
29 29 29 29 28 29 29 30 29 29 28 29 28 29 29 30
30 30 30 30 30 30 30 30 30 30 30 31 31 30 30 30
36 31 24 28 31 29 30 32 30 20 5 8 21 24 24 24
25 24 31 30 29 28 26 24 24 23 23 24 23 22 23 22
21 21 28 33 31 28 26 24 21 20 20 20 20 20 20 19
19 20 21 23 24 23 23 17 17 24 25 17 23 24 23 23
22 23 22 22 22 19 22 23 24 24 24 25 25 25 26 26
26 26 26 26 27 27 27 27 28 27 28 28 28 28 27 28
28 28 27 28 28 28 28 29 29 28 28 29 29 29 30 30
30 29 29 29 29 29 30 30 30 30 30 30 30 30 30 29
19 29 27 30 32 32 34 36 36 27 7 9 22 26 26 26
25 26 33 34 32 30 28 28 28 26 24 24 23 23 22 22
22 22 28 32 31 29 29 28 24 21 20 20 20 20 20 20
20 21 21 23 23 23 23 18 17 23 25 18 22 24 24 24
24 24 23 23 23 20 23 23 25 25 24 25 26 26 25 26
26 27 26 27 28 27 27 27 27 28 27 27 28 28 28 28
28 28 28 28 29 29 28 29 29 28 28 29 29 29 29 29
30 29 30 30 30 30 30 31 30 30 31 30 31 30 30 30
3 28 27 30 32 33 35 36 37 30 8 10 24 27 26 26
25 25 32 34 32 30 31 32 34 29 29 28 27 25 23 23
23 22 25 24 25 26 27 29 26 20 20 21 20 20 20 20
20 20 21 23 24 24 21 16 14 16 24 18 22 25 24 24
24 23 23 22 22 20 22 23 23 21 20 20 21 18 18 18
18 19 22 25 27 27 26 26 27 27 27 28 28 27 28 28
28 28 28 28 28 28 28 28 29 28 29 30 30 29 30 29
30 29 30 30 30 29 30 30 30 30 30 30 31 30 30 30
4 27 23 25 28 32 34 35 35 29 10 11 26 28 26 27
28 29 26 15 21 28 31 34 34 26 16 20 24 26 26 26
27 25 23 13 9 12 15 18 23 22 21 20 20 21 20 20
20 20 21 23 24 24 19 12 13 12 24 19 20 25 25 24
24 25 24 24 23 20 24 22 19 15 14 13 9 7 11 12
11 12 4 3 8 13 21 27 27 28 28 28 28 28 28 28
29 28 29 29 28 28 29 28 29 29 29 30 29 29 30 29
30 29 30 30 30 30 31 30 31 31 31 30 31 30 30 30
6 26 7 3 9 16 23 26 28 29 10 10 26 29 24 24
29 33 21 0 1 10 17 20 25 22 0 0 3 9 13 18
24 25 22 9 2 2 2 1 15 23 22 21 20 20 21 20
20 21 22 24 25 24 22 15 16 21 26 20 20 25 25 24
24 25 23 23 23 21 22 19 18 14 10 12 14 14 10 11
10 7 9 12 11 8 4 6 19 26 28 29 29 28 29 29
29 29 29 29 29 29 29 29 28 29 29 30 30 30 30 30
30 30 30 30 30 30 29 29 30 30 30 30 31 30 31 31
4 26 4 0 0 0 0 2 6 25 11 9 15 21 25 27
31 35 23 0 0 1 5 6 13 20 0 0 0 0 0 0
2 11 23 8 0 0 0 0 13 24 21 21 21 20 21 21
21 22 23 25 25 25 24 18 18 24 27 22 19 25 25 24
24 24 24 24 23 20 17 13 6 3 4 7 7 13 19 12
10 12 15 14 13 13 15 16 14 14 22 28 28 28 29 29
28 29 29 29 29 29 30 29 29 29 29 30 30 30 29 29
30 29 30 30 30 30 31 30 31 31 31 31 31 31 30 31
4 26 3 0 0 0 0 0 1 24 11 5 0 1 4 10
17 24 21 0 0 0 0 2 9 21 1 0 0 0 0 0
0 4 21 4 0 0 0 0 14 24 22 21 22 21 21 21
22 23 23 25 26 25 24 19 18 25 28 23 18 25 26 25
24 25 25 22 20 14 9 6 3 1 4 4 2 3 18 29
17 6 6 11 14 14 15 16 14 15 18 19 18 21 26 29
29 30 29 30 30 29 29 29 29 30 29 31 31 30 30 30
30 30 30 30 30 30 30 30 31 31 31 31 31 31 31 31
4 26 2 0 0 1 0 0 2 25 11 5 0 0 0 0
0 1 9 0 0 0 0 0 6 19 0 0 0 0 0 0
0 4 20 2 0 0 0 0 16 25 22 22 21 21 21 21
21 22 23 25 25 25 25 19 19 25 28 24 18 24 26 25
25 24 20 19 11 10 8 10 8 8 6 1 1 0 3 19
34 19 5 2 2 3 7 10 14 15 17 19 19 15 12 18
26 29 30 30 30 30 29 29 30 30 29 30 31 30 30 30
30 30 30 31 31 31 31 31 32 32 32 32 30 30 31 30
5 26 2 0 0 5 0 0 1 25 11 5 0 0 0 0
0 0 4 0 0 0 0 0 7 20 0 0 0 0 2 0
0 3 20 1 0 0 0 0 16 26 23 22 22 22 22 22
22 23 23 26 26 26 25 20 19 25 27 25 18 24 26 26
23 19 14 8 7 9 15 13 12 9 9 6 6 1 2 9
22 33 20 13 10 4 0 1 3 6 8 13 16 19 16 11
13 27 30 30 30 30 30 30 30 30 30 31 30 30 30 30
31 30 30 31 31 32 32 32 31 31 31 31 32 32 32 31
5 25 2 0 0 2 0 0 2 24 10 5 0 0 0 0
0 0 3 0 0 0 0 0 8 22 1 0 0 2 7 2
0 2 20 1 0 0 0 0 15 26 23 23 22 22 22 22
22 23 24 26 27 26 25 19 20 26 27 26 19 24 27 24
20 15 9 7 11 20 19 16 12 14 14 12 6 4 7 25
28 23 20 14 12 8 5 2 0 2 10 14 13 12 15 11
6 9 21 30 30 31 31 30 31 31 31 31 30 31 31 31
32 31 32 31 31 32 32 32 32 32 32 31 32 32 31 32
5 23 1 0 0 0 0 0 2 24 9 5 0 0 0 1
0 0 2 0 0 0 0 0 7 23 1 0 0 3 7 7
4 2 19 1 0 0 0 0 12 27 23 23 23 22 22 23
23 24 24 27 27 27 26 19 19 25 28 27 20 23 26 21
17 11 9 13 19 22 19 17 18 20 21 11 11 16 28 29
25 22 23 24 21 21 19 16 14 6 6 21 26 11 9 14
7 3 4 19 30 31 31 31 31 31 31 31 31 31 32 32
32 31 31 32 32 32 32 32 32 32 32 32 32 32 33 33
7 22 0 0 0 0 0 0 2 24 10 5 0 1 0 0
0 0 2 0 0 0 0 0 9 24 2 0 0 1 5 6
4 2 21 7 0 0 0 0 12 27 24 23 22 23 22 22
23 24 24 26 27 27 26 19 19 26 29 28 21 21 23 17
12 8 10 14 17 22 19 22 21 22 17 13 20 24 22 19
17 17 27 27 33 45 51 36 27 25 22 21 18 26 9 9
9 2 1 12 22 30 31 31 31 31 31 31 32 32 32 31
32 31 31 32 33 32 32 32 33 33 32 32 33 33 33 33
24 27 10 3 4 2 1 0 5 23 9 5 0 0 0 0
0 0 4 1 0 0 0 0 12 27 7 2 1 0 0 2
2 1 24 26 20 13 10 9 20 27 23 23 23 23 23 23
24 25 25 27 27 27 25 20 21 26 28 28 22 19 19 13
11 12 17 15 17 18 22 19 18 23 19 19 21 21 22 17
14 23 33 34 52 67 63 54 44 41 39 29 18 16 25 8
10 2 2 7 15 22 32 32 31 31 31 32 32 31 31 31
32 32 32 32 33 33 33 33 34 33 33 33 33 32 32 33
31 39 35 21 23 25 24 21 22 23 9 6 0 0 0 0
0 0 13 20 12 9 6 2 9 34 25 19 17 12 7 5
4 5 27 33 32 31 31 33 35 29 24 23 24 23 24 23
23 24 24 27 27 27 25 20 22 27 29 28 23 16 12 11
11 17 19 18 20 21 18 15 21 27 22 19 19 20 13 18
23 29 30 46 60 73 82 83 79 75 65 46 32 15 26 16
14 5 2 6 15 18 25 32 32 32 32 32 32 32 33 33
32 32 32 31 33 33 33 32 33 33 32 30 30 29 29 30
32 44 36 23 28 33 34 34 34 24 8 5 0 0 0 0
0 0 19 38 32 30 30 27 26 35 18 12 15 17 17 18
18 21 30 28 29 30 32 36 37 29 23 23 23 23 23 24
23 25 25 27 28 27 24 21 22 27 28 28 21 11 12 12
15 19 21 19 19 15 14 12 17 20 18 20 20 18 18 19
28 29 37 48 66 94 107 109 110 103 96 76 48 32 21 29
17 12 5 3 7 19 22 29 31 31 31 31 30 30 30 31
29 29 30 31 32 30 29 28 27 27 25 22 21 20 18 17
33 40 28 20 28 33 34 37 37 26 8 7 3 1 0 0
0 0 18 36 32 36 38 38 33 29 14 7 8 7 7 7
9 11 14 12 15 20 26 27 27 25 23 23 24 23 23 23
23 24 24 27 28 27 22 21 23 27 28 26 18 13 14 14
19 26 25 18 19 15 12 12 19 18 18 20 20 20 19 25
28 34 38 58 94 118 122 122 121 118 107 101 68 53 40 32
20 16 8 5 8 17 20 23 28 29 30 30 28 28 27 27
26 24 23 22 21 19 17 15 15 14 14 14 15 14 15 15
32 36 15 3 10 14 16 20 26 24 9 11 23 24 19 12
8 5 21 28 30 35 38 38 32 24 15 8 7 6 5 4
4 3 3 4 5 9 20 20 19 21 23 23 22 23 23 23
23 24 25 26 27 26 20 19 23 27 26 22 13 13 13 18
25 28 23 21 20 21 16 23 24 21 20 23 16 19 21 22
30 32 48 79 106 120 123 123 122 122 120 108 96 63 59 40
26 22 18 10 2 20 18 22 25 24 23 21 20 18 17 16
16 16 15 15 16 16 16 16 17 18 19 19 19 20 18 12
29 36 11 0 0 0 0 0 7 22 8 11 29 36 35 32
31 29 30 19 20 27 31 33 30 25 17 8 6 4 2 2
3 3 3 4 4 9 18 11 18 23 23 22 20 22 23 22
23 23 23 26 26 25 18 18 22 26 23 17 10 13 14 24
29 29 23 24 22 20 23 26 24 19 21 22 21 16 20 27
29 34 55 87 108 120 122 122 122 122 122 116 108 87 61 52
34 27 23 15 1 18 21 15 17 14 14 15 16 16 17 17
18 18 19 19 20 21 21 21 22 22 22 21 23 24 23 10
26 36 10 0 0 0 0 0 4 21 9 10 27 35 35 35
36 36 33 8 1 4 7 13 15 19 18 7 4 0 0 0
2 5 4 3 6 11 21 19 22 27 26 19 11 20 22 22
23 22 22 25 26 24 19 17 21 21 17 12 13 11 24 34
33 28 26 26 26 23 23 28 24 27 26 21 18 21 27 26
33 43 71 94 106 118 122 122 122 122 121 121 116 103 72 54
40 27 27 20 6 5 27 14 15 16 18 20 20 21 21 22
22 22 24 24 24 25 25 26 26 25 25 21 21 26 27 16
22 32 8 0 0 0 2 8 12 21 14 13 22 28 29 31
32 34 30 5 0 0 0 0 3 17 19 6 4 0 0 0
0 1 0 0 1 6 23 28 24 24 25 25 20 23 23 23
23 17 14 23 26 25 19 13 20 20 13 13 15 18 40 42
41 29 33 31 23 15 23 22 30 27 23 21 21 22 25 30
38 54 74 87 106 118 122 121 122 122 122 121 120 113 93 69
46 25 27 24 14 0 17 23 10 20 24 25 25 26 26 26
27 27 27 27 27 27 28 27 27 26 27 28 24 23 28 25
20 30 6 0 0 0 5 16 17 18 16 14 16 18 21 23
23 29 27 2 0 0 0 0 0 18 18 5 1 0 0 0
0 0 0 0 0 3 23 27 18 18 20 22 24 24 23 23
23 14 11 23 25 26 21 11 20 21 10 18 15 30 44 41
39 41 33 19 18 21 22 25 27 26 23 22 23 24 28 36
42 54 74 90 107 116 122 123 122 121 122 122 122 119 103 86
57 26 18 22 17 1 5 24 7 19 27 28 27 28 28 29
29 28 29 30 30 29 29 27 29 27 27 30 30 24 22 26
22 29 5 0 0 0 1 8 11 15 14 13 14 15 18 22
22 29 27 2 0 0 0 0 0 16 14 0 0 0 0 1
2 0 0 0 0 2 23 28 15 18 22 20 22 24 23 24
24 20 17 24 27 28 24 11 18 15 12 19 19 29 33 31
29 23 18 16 17 13 11 15 20 19 20 20 23 27 30 37
48 60 77 97 109 117 121 122 122 122 122 122 122 121 112 97
69 33 15 21 19 3 2 20 7 11 30 31 30 30 30 30
31 31 31 31 31 30 30 29 27 29 27 29 31 31 24 21
24 29 5 0 0 0 0 0 1 10 9 12 9 10 15 19
23 28 25 2 0 0 0 0 0 18 10 0 0 0 0 0
5 2 0 0 0 2 23 29 14 13 17 17 22 23 23 23
24 23 20 25 27 27 27 13 14 10 20 18 21 26 15 19
16 17 23 14 11 14 19 28 27 21 20 20 23 27 31 43
54 71 87 94 101 116 120 122 122 122 122 122 122 122 118 101
85 47 17 28 27 1 2 12 7 6 30 31 31 31 30 31
31 31 31 31 31 31 31 31 29 28 27 28 31 31 30 20
27 30 4 0 0 0 0 0 1 13 11 13 2 0 0 2
5 9 14 2 0 0 0 0 0 20 10 0 0 0 0 2
8 7 2 0 0 1 23 30 16 12 13 13 21 24 24 24
25 24 21 24 27 27 28 18 10 11 25 15 22 9 10 13
15 15 11 5 10 15 22 26 24 20 20 22 27 31 37 47
63 78 86 88 107 119 120 123 123 123 122 122 122 122 121 112
95 73 26 20 38 5 4 4 4 3 28 31 32 31 31 31
32 32 32 32 32 32 32 31 31 28 27 26 30 32 30 25
28 29 4 0 0 0 0 0 1 18 16 15 2 0 0 0
0 0 4 1 0 0 0 0 0 20 8 0 0 0 0 9
11 7 3 0 0 2 23 31 20 15 9 10 20 24 24 24
24 24 20 24 28 28 28 21 8 17 23 15 11 5 11 11
15 10 4 4 5 9 14 20 20 23 22 25 28 31 39 57
68 76 74 89 107 114 121 123 122 123 123 123 122 122 122 118
108 92 46 14 27 12 1 0 1 1 26 32 33 31 31 32
32 32 32 31 31 32 32 31 31 30 28 25 26 28 27 25
26 26 6 0 0 0 0 0 1 22 18 16 3 0 0 0
0 0 3 1 0 1 3 0 0 19 6 0 0 0 0 5
11 2 0 0 0 1 22 32 21 12 3 5 18 24 25 25
26 24 20 25 28 29 28 23 7 22 17 12 1 7 8 11
41 65 61 32 4 0 0 3 5 7 14 23 30 39 54 59
68 70 78 96 110 120 123 123 123 122 122 122 122 122 122 118
112 101 80 42 20 18 3 2 2 1 25 31 33 31 31 32
31 32 32 32 32 32 32 31 31 32 31 28 24 22 23 26
18 22 15 7 3 6 7 2 3 23 17 14 2 0 0 2
0 0 3 1 0 5 8 1 0 20 5 0 0 0 0 0
6 0 0 0 0 0 20 31 18 7 0 3 18 24 25 25
25 23 20 26 28 28 28 23 8 19 18 10 0 3 5 55
115 121 122 112 56 9 11 17 12 5 3 8 19 38 47 50
63 73 91 108 118 122 123 122 123 122 122 123 123 122 122 119
112 100 94 81 43 22 2 2 2 0 25 32 33 31 32 32
31 32 31 32 32 32 31 31 31 32 32 31 27 22 23 29
13 22 21 21 18 20 23 21 21 27 17 12 2 0 3 9
1 0 5 10 6 13 13 8 3 20 5 0 0 0 0 0
8 1 0 0 0 0 16 31 12 4 0 3 18 23 25 25
26 24 22 27 28 29 28 19 12 12 18 6 1 0 18 108
101 91 109 123 117 65 29 25 28 25 16 7 2 5 15 33
64 95 119 123 122 122 122 123 123 122 122 123 122 121 122 118
112 103 97 89 73 46 6 0 0 1 26 31 32 31 32 32
31 31 32 32 32 31 32 31 32 32 31 31 29 23 23 30
16 22 15 4 3 8 15 22 30 30 20 12 2 0 1 4
0 0 7 27 26 29 27 27 26 30 7 0 0 0 0 0
9 2 0 0 0 0 13 29 10 1 0 5 18 23 25 26
25 22 23 27 28 28 27 13 16 8 13 3 1 1 50 117
103 123 123 120 121 119 100 73 61 43 31 27 22 15 5 4
17 61 114 123 123 122 122 122 123 123 122 122 122 121 120 117
111 106 97 91 82 65 19 0 0 1 26 32 33 32 31 32
31 32 32 32 32 31 31 31 31 32 31 31 29 23 22 29
18 23 14 0 0 2 3 8 29 28 18 12 5 0 0 0
0 0 7 30 32 34 33 36 39 37 18 9 8 3 2 3
12 6 2 1 0 0 9 26 10 1 0 2 13 22 25 25
25 22 24 28 29 29 25 13 13 10 8 0 0 1 80 113
120 123 123 121 120 123 122 115 109 94 82 65 51 55 61 43
9 4 16 60 107 123 122 122 123 122 121 122 121 120 118 115
111 106 98 95 84 69 32 0 0 3 28 32 33 32 31 32
31 31 32 32 32 32 32 32 32 32 32 31 29 23 20 22
18 24 11 0 0 9 15 16 29 25 15 14 13 1 0 0
0 0 6 28 30 31 31 35 38 37 28 23 23 21 19 19
21 16 13 11 10 9 15 27 16 9 8 5 10 22 25 25
24 21 25 28 28 27 24 10 7 7 1 0 2 10 95 116
123 123 123 123 120 123 123 122 116 110 113 112 108 101 98 107
96 50 11 5 13 49 97 122 123 122 122 122 122 120 116 114
109 104 98 94 82 68 40 0 0 4 30 32 33 32 33 33
33 33 33 33 32 32 32 32 32 31 32 31 30 23 20 24
21 26 11 0 0 2 13 20 30 21 13 15 11 0 0 0
0 0 7 27 27 28 29 29 28 28 27 27 28 26 26 27
26 25 24 22 20 19 22 30 28 25 22 17 16 22 26 25
24 22 26 28 29 29 23 5 2 4 1 3 9 15 100 119
123 123 123 115 119 123 123 123 114 109 112 110 115 116 118 113
112 110 100 53 10 5 8 34 85 117 119 120 121 118 115 112
107 103 97 92 81 67 48 0 0 7 32 31 32 32 32 32
32 32 32 32 32 32 33 32 32 32 30 30 29 24 22 27
22 28 12 0 0 0 1 16 32 22 14 15 12 3 2 1
0 0 8 29 26 25 26 26 25 25 27 28 30 31 31 28
27 28 30 33 30 27 28 31 31 31 31 30 27 25 26 26
24 22 26 29 29 27 24 6 1 0 1 7 13 13 110 121
124 122 96 73 117 123 123 122 114 107 108 109 112 116 123 122
117 111 108 108 95 40 5 4 6 27 71 96 109 115 110 110
107 99 96 91 78 65 50 1 0 13 32 32 33 32 33 32
32 33 32 33 32 32 33 32 32 32 30 30 29 23 22 28
23 28 12 0 0 0 0 12 32 22 14 15 20 25 23 20
19 18 23 33 28 27 28 28 29 31 32 30 32 36 37 28
26 26 32 36 35 32 33 30 25 21 21 22 22 24 25 25
24 22 26 29 30 28 24 8 0 2 3 8 7 18 115 121
124 112 110 119 123 124 123 122 111 106 110 112 114 120 123 123
122 118 108 103 101 94 52 19 5 13 37 21 44 80 101 103
104 97 91 90 79 63 50 2 0 23 33 33 33 33 33 33
32 33 32 32 32 33 32 32 32 32 32 32 31 25 22 28
23 29 11 0 0 0 0 12 33 23 14 16 26 38 39 37
39 39 39 37 29 26 27 27 31 35 35 31 32 36 37 30
25 22 29 35 33 32 33 32 27 21 20 19 20 24 25 26
24 22 27 29 30 27 24 8 1 7 7 6 2 24 118 121
120 114 123 122 122 123 123 121 106 105 110 112 117 123 123 123
123 123 119 111 101 95 85 69 44 28 19 1 0 14 49 85
93 92 87 87 80 61 46 1 2 30 33 32 32 33 33 33
34 32 32 32 32 33 33 32 32 32 32 32 31 25 22 27
22 28 10 0 0 0 0 12 33 22 13 16 24 35 36 37
38 39 40 36 20 14 13 14 17 26 34 31 28 23 24 22
20 21 24 21 15 16 21 23 27 26 24 24 26 27 28 26
23 23 28 29 30 28 24 6 6 8 2 7 2 21 117 122
112 123 122 118 124 123 123 121 105 106 114 118 122 123 123 122
123 122 122 121 112 104 101 92 70 47 5 0 0 0 5 28
57 73 76 79 77 60 39 0 13 33 33 33 33 32 32 32
32 32 32 32 32 32 32 32 32 32 32 32 32 26 22 27
22 29 10 0 0 0 0 10 31 20 12 16 17 21 22 23
24 25 27 25 5 0 0 0 0 7 30 29 15 3 4 6
9 19 25 10 0 0 2 9 20 23 22 25 28 30 32 28
24 23 28 30 30 28 21 4 9 4 3 7 2 17 115 123
111 124 117 117 124 123 123 120 107 111 117 122 123 123 124 123
123 122 123 123 122 112 102 94 82 39 8 0 0 0 0 1
13 32 58 70 76 60 37 10 27 33 33 33 33 33 33 33
33 33 33 32 33 33 32 33 32 32 32 32 32 26 22 28
23 30 10 0 0 0 0 10 32 21 12 15 18 23 23 22
21 21 21 20 4 0 0 0 0 7 30 24 3 0 0 0
4 21 25 8 0 0 0 5 18 11 7 10 11 16 31 29
23 24 28 29 30 28 17 6 13 8 6 6 1 13 102 125
124 123 117 110 124 124 124 120 110 113 119 123 123 124 123 123
123 123 123 123 123 112 87 67 45 19 0 0 0 0 0 0
2 9 34 56 71 61 40 29 33 33 33 33 33 33 32 33
33 32 33 32 33 33 32 32 32 32 32 33 32 27 22 27
27 26 9 0 0 0 0 11 34 22 11 15 21 27 27 27
27 27 26 22 5 0 0 0 0 9 29 17 0 0 0 0
1 23 26 9 0 0 0 3 16 6 1 4 0 3 27 30
23 26 28 29 30 29 19 10 12 10 3 4 0 12 89 126
125 124 123 105 121 124 124 117 115 114 118 122 124 123 123 123
123 123 123 123 121 94 67 63 39 4 0 0 0 0 0 0
0 5 21 55 68 62 41 33 33 33 33 33 33 33 32 33
33 32 33 32 33 34 33 32 33 32 32 32 32 27 22 26
27 21 13 7 4 3 2 14 32 21 14 17 22 28 28 28
28 29 30 24 5 0 0 0 0 4 25 13 0 0 0 0
1 22 24 8 0 0 0 2 16 7 1 5 1 2 26 30
23 26 28 29 29 28 20 5 9 9 2 5 1 15 81 117
126 125 124 124 124 124 123 117 120 118 119 122 123 124 123 123
123 123 123 122 114 89 79 59 23 0 0 0 0 0 0 1
1 1 31 58 67 63 42 32 34 33 33 33 33 33 32 32
33 32 32 32 32 33 32 33 32 32 32 32 33 28 23 26
26 25 24 23 22 20 19 23 27 24 21 23 25 26 27 27
27 27 28 25 7 0 0 0 1 2 23 11 0 0 0 0
1 22 23 7 0 0 0 0 15 8 0 2 0 1 25 30
24 26 29 30 30 29 21 2 6 4 2 10 6 16 79 102
123 124 124 124 124 124 122 119 119 119 120 121 123 123 123 123
123 123 124 122 102 91 94 40 4 0 0 0 0 0 0 5
7 0 34 64 67 60 36 30 34 34 33 33 32 32 32 32
32 32 33 32 32 32 32 33 33 32 32 32 32 29 22 25
23 23 23 23 23 24 24 24 24 24 24 24 25 25 24 25
24 25 25 24 15 0 0 0 1 1 21 10 0 0 0 0
1 21 24 9 0 0 0 0 13 10 0 2 0 1 24 29
23 26 27 30 30 28 22 1 4 3 1 9 9 19 77 97
112 124 124 124 124 123 122 120 118 118 117 120 122 124 123 123
123 123 123 120 92 88 80 12 1 0 0 0 0 0 1 6
3 0 34 63 58 41 23 25 33 33 32 33 32 32 32 32
32 32 32 31 32 32 33 33 32 32 33 32 32 29 22 24
23 23 23 23 23 23 23 23 23 22 23 23 23 24 23 24
24 24 25 24 17 0 0 0 0 1 21 9 0 0 0 0
0 20 25 10 0 0 0 0 13 12 0 0 0 1 23 28
24 27 28 30 29 29 22 4 4 1 1 10 12 21 78 94
107 118 124 124 123 123 121 121 119 118 119 119 122 123 124 124
123 123 124 117 91 84 44 1 2 0 0 0 0 0 0 2
1 0 34 51 37 16 3 17 33 33 33 33 32 32 32 32
33 33 32 31 31 31 31 32 32 32 32 32 32 29 23 25
8 9 9 8 9 8 9 9 9 9 9 10 10 11 11 12
13 15 20 22 17 0 0 0 0 0 21 11 0 0 0 0
0 17 24 7 0 0 0 0 12 17 0 0 0 1 22 27
24 26 27 29 30 28 21 8 1 0 0 2 10 26 79 92
109 114 110 123 122 122 121 121 119 118 120 120 122 123 124 123
123 123 123 115 92 79 17 1 0 0 0 0 0 0 0 0
0 0 25 22 5 1 0 18 33 33 33 33 33 32 32 32
33 33 32 18 8 7 10 24 32 32 33 33 32 29 24 24
0 0 0 0 0 0 0 0 0 0 0 0 0 0 0 0
0 1 16 23 18 1 0 0 0 0 20 15 0 0 1 0
1 19 26 14 6 4 5 7 19 20 1 0 0 2 22 26
24 26 28 30 30 27 24 7 0 0 0 0 10 34 73 90
113 119 103 119 121 121 122 121 118 119 121 120 123 123 124 123
123 124 123 112 92 76 8 0 0 0 0 0 0 0 0 0
1 2 1 0 0 0 0 9 33 35 34 33 33 33 33 32
33 33 31 9 0 0 0 18 32 32 32 32 32 29 23 24
0 0 0 0 0 0 0 0 0 0 0 0 0 0 0 0
0 0 18 24 22 13 9 10 16 15 24 26 21 19 21 21
22 30 30 24 28 28 29 32 36 30 13 10 10 12 24 25
23 26 28 29 27 26 25 9 0 2 1 3 10 45 75 88
116 117 104 114 115 118 118 120 119 119 121 122 123 124 123 123
124 124 123 111 92 77 9 0 0 0 0 0 0 0 0 0
9 0 0 0 3 5 0 0 10 33 33 33 33 33 33 32
32 32 31 8 0 0 0 13 33 32 32 31 32 29 23 23
0 0 0 0 0 0 0 0 0 0 0 0 0 0 0 0
0 0 18 24 24 28 30 30 31 28 27 31 39 37 37 38
39 40 34 24 31 35 38 42 43 37 26 24 24 24 26 24
22 25 28 28 27 28 27 13 0 0 0 0 11 51 77 87
113 110 103 110 111 116 119 122 121 120 121 123 123 124 123 124
123 123 123 113 88 78 21 0 0 0 0 0 0 0 2 9
29 19 0 0 5 3 0 0 0 26 34 33 33 33 33 32
32 32 29 4 0 0 0 7 31 32 31 32 31 29 23 23
0 0 0 0 0 0 0 0 0 0 0 0 0 0 0 0
0 0 17 24 23 27 30 33 32 26 22 24 33 34 34 34
36 36 32 23 25 30 33 35 35 32 26 25 25 25 25 25
24 24 25 26 28 28 27 16 3 0 0 1 23 57 78 89
110 104 102 107 109 117 119 121 120 122 123 122 123 124 124 123
123 123 124 120 92 76 43 1 0 0 0 15 21 19 13 39
95 38 0 0 2 1 0 0 0 27 33 33 33 33 32 29
19 17 16 2 0 0 0 6 31 32 32 32 31 29 23 22
0 0 0 0 0 0 0 0 0 0 0 0 0 0 0 0
0 0 16 24 23 25 27 29 32 28 22 20 20 21 21 21
21 22 25 23 24 26 27 25 23 24 25 26 26 26 26 25
25 24 25 27 30 28 28 19 3 0 0 3 25 60 78 89
107 100 102 106 112 117 120 121 122 123 123 123 123 124 123 123
123 123 123 122 110 82 65 20 0 0 16 37 33 16 41 111
113 43 0 0 0 0 0 0 9 33 33 33 33 33 32 14
0 0 0 0 0 1 0 5 31 31 31 31 32 29 24 22
0 0 0 0 0 0 0 0 0 0 0 0 0 0 0 0
0 0 13 24 22 18 15 17 20 19 18 20 18 19 21 24
24 23 26 28 29 32 32 27 24 24 25 26 26 25 26 25
24 25 27 29 30 28 26 19 4 1 0 12 31 63 82 90
104 99 100 109 114 119 121 121 121 123 123 124 123 123 123 123
123 123 123 123 121 106 77 54 17 1 24 20 11 46 111 123
111 53 0 0 0 0 0 1 28 33 32 32 32 32 31 9
0 0 0 0 0 0 0 5 30 31 31 32 31 29 23 21
0 0 0 0 0 0 0 0 0 0 0 0 0 0 0 0
0 0 11 24 21 11 0 1 3 5 11 22 24 29 30 35
33 24 23 24 26 31 35 32 26 25 25 26 26 26 25 25
25 26 27 29 29 27 23 21 9 1 0 19 47 66 80 93
101 98 99 106 112 116 121 123 123 123 123 123 123 123 123 123
123 123 123 123 122 120 110 86 58 39 26 32 69 115 123 121
114 73 0 0 0 0 2 14 33 33 33 33 33 32 31 15
0 0 0 0 0 0 0 4 30 31 31 31 31 30 24 22
0 0 0 0 0 0 0 0 0 0 0 0 0 0 0 0
0 0 9 24 21 9 0 0 0 0 10 23 25 33 31 33
33 11 4 5 6 13 30 34 27 26 26 26 26 26 25 25
25 25 26 29 29 25 19 14 12 3 0 18 52 74 81 94
100 98 100 104 112 119 121 122 123 123 123 123 123 123 123 123
123 123 123 123 123 122 117 108 95 91 102 104 109 121 122 120
115 90 7 0 0 0 2 29 33 33 33 33 32 32 32 26
4 0 0 0 0 0 0 2 22 31 32 32 30 29 25 21
0 0 0 0 0 0 0 0 0 0 0 0 0 0 0 0
0 0 7 23 21 10 0 0 0 0 10 23 24 30 18 11
21 4 0 0 0 2 26 33 28 26 26 26 25 26 26 25
25 25 26 28 27 23 14 3 10 9 7 26 62 74 81 96
100 97 100 103 113 121 122 122 123 123 124 124 124 124 124 123
123 124 123 123 122 122 116 108 99 98 115 114 115 117 119 121
117 99 21 0 0 0 16 34 33 34 33 33 33 31 21 24
7 0 0 0 0 0 0 0 9 32 31 31 31 30 26 24
0 0 0 0 0 0 0 0 0 0 0 0 0 0 0 0
0 0 6 23 21 11 0 0 0 0 10 23 23 29 13 2
18 5 0 0 0 1 23 33 28 26 26 26 26 25 25 25
25 26 26 28 26 23 16 8 10 9 10 32 64 82 84 98
99 95 99 107 113 119 120 123 124 123 123 124 124 123 124 123
124 123 124 123 123 123 117 107 97 102 116 121 122 121 121 122
121 105 35 0 0 6 33 34 34 34 34 33 32 20 2 1
8 7 0 0 0 0 0 0 8 31 31 31 31 30 25 23
0 0 0 0 0 0 0 0 0 0 0 0 0 0 0 0
0 0 5 22 21 12 0 0 0 0 13 23 23 30 12 1
17 6 0 0 0 0 20 33 27 26 27 27 26 26 26 25
26 26 26 28 25 21 17 11 12 10 14 42 66 84 86 101
100 95 99 106 112 116 122 123 124 124 124 124 124 124 124 123
124 124 123 123 123 122 116 104 99 103 116 123 123 123 123 123
123 106 46 0 1 24 28 27 25 23 22 23 14 1 0 0
5 5 0 0 0 0 0 0 3 28 32 32 31 30 25 22
0 0 0 0 0 0 0 0 0 0 0 0 0 0 0 0
0 0 4 22 21 13 0 0 0 0 12 23 24 30 12 1
17 7 0 0 0 0 18 33 27 25 26 26 26 26 25 25
25 25 27 28 26 22 16 13 15 12 29 54 77 85 89 102
101 95 94 101 109 113 120 122 124 124 124 124 124 124 124 124
124 124 124 124 124 123 117 105 107 101 101 115 107 102 109 122
118 96 43 0 11 8 6 53 23 1 1 2 0 0 0 6
0 0 0 0 0 0 0 0 0 21 31 31 31 30 25 22
0 0 0 0 0 0 0 0 0 0 0 0 0 0 0 0
0 0 4 22 21 14 0 0 0 0 10 23 25 31 14 1
16 10 0 0 0 0 17 33 27 26 27 26 26 26 26 26
26 25 27 28 27 24 18 16 17 15 37 63 84 88 93 105
104 97 92 98 105 111 118 118 123 124 124 124 125 124 124 124
124 124 124 123 124 122 116 110 113 110 92 89 89 85 86 108
100 78 22 16 17 0 47 122 97 10 4 19 1 0 1 13
0 0 0 0 0 0 0 0 0 6 19 18 24 30 26 23
0 0 0 0 0 0 0 0 0 0 0 0 0 0 0 0
0 0 3 21 21 15 1 0 1 0 9 24 25 31 17 3
15 12 1 1 1 0 16 32 27 26 26 26 25 26 26 25
25 25 26 28 27 25 21 21 21 27 54 73 86 83 93 105
106 98 94 95 101 108 114 117 119 122 124 124 124 124 124 124
124 123 124 124 123 121 116 113 114 112 110 110 111 100 81 73
52 36 14 19 9 1 55 92 87 19 11 22 15 11 15 20
11 8 6 6 5 5 5 4 4 4 4 3 18 29 26 23
0 0 0 0 0 0 0 0 0 0 0 0 0 0 0 0
0 0 2 21 20 16 2 0 6 8 11 26 26 32 22 7
13 11 4 6 2 0 14 31 26 26 26 26 26 26 26 26
25 26 26 26 27 25 22 24 23 46 76 86 88 86 96 108
109 103 92 90 94 102 109 116 120 119 123 122 124 124 124 124
124 124 124 123 122 116 110 108 108 104 103 103 106 76 34 31
33 31 14 13 13 13 16 18 19 20 22 25 27 26 26 26
23 21 19 17 14 13 12 11 10 8 8 8 21 33 30 26
0 0 0 0 0 0 0 0 0 0 0 0 0 0 0 0
0 0 2 20 20 18 16 16 21 23 25 31 28 31 21 12
13 13 9 10 7 5 15 27 25 25 26 26 26 25 25 25
25 25 24 25 26 26 24 26 30 69 91 96 90 87 99 110
110 105 95 92 88 98 106 110 113 117 118 119 123 123 123 123
123 123 123 123 122 114 109 107 102 98 100 102 91 58 32 29
31 30 13 9 10 11 11 11 12 14 15 17 19 17 16 15
11 8 5 4 3 9 29 31 33 33 34 35 41 42 39 35
0 0 0 0 0 0 0 0 0 0 0 0 0 0 0 0
0 0 1 18 20 21 33 37 38 39 39 38 31 30 15 11
15 21 18 18 17 16 18 22 23 25 25 25 26 26 26 25
25 25 24 25 26 25 24 27 46 85 102 99 89 87 99 111
114 110 102 93 87 92 100 109 112 114 117 117 120 122 123 123
123 123 123 122 121 114 109 109 111 110 111 106 73 47 27 30
32 31 21 5 0 0 0 0 0 0 0 0 0 0 0 0
0 0 0 0 0 18 49 50 50 49 48 47 45 43 40 35
0 0 0 0 0 0 0 0 0 0 0 0 0 0 0 0
0 0 1 18 19 21 36 40 40 39 39 38 32 29 11 3
12 21 20 21 20 20 21 22 24 25 25 25 26 25 25 25
24 24 24 25 25 24 25 30 67 98 107 101 91 88 99 112
116 111 106 97 89 90 94 103 106 112 114 115 118 120 121 122
123 123 122 116 103 89 103 111 113 109 110 105 68 45 26 28
30 30 21 1 0 0 0 0 0 0 0 0 0 0 0 0
0 0 0 0 0 28 47 46 46 45 44 39 41 38 34 31
0 0 0 0 0 0 0 0 0 0 0 0 0 0 0 0
0 0 1 17 19 17 23 24 23 23 22 21 23 28 11 0
11 23 23 23 23 24 23 24 23 25 25 25 25 26 25 25
25 25 24 25 26 24 24 39 83 104 109 103 91 88 100 111
117 113 108 95 92 88 91 96 102 109 112 111 114 117 118 120
120 118 116 109 101 91 78 69 66 69 78 84 76 43 26 28
30 30 14 0 0 0 0 0 0 0 0 0 0 0 0 0
0 0 0 0 1 28 34 33 40 35 33 26 28 28 24 26
0 0 0 0 0 0 0 0 0 0 0 0 0 0 0 0
0 0 1 17 19 16 13 12 12 12 13 11 17 28 10 0
9 23 23 24 24 24 24 24 24 24 25 25 25 25 25 24
25 24 23 25 25 23 26 57 98 109 111 101 90 87 98 111
117 116 110 101 96 92 89 97 101 103 106 110 114 117 116 115
117 115 113 114 117 117 104 88 73 52 50 57 46 27 25 27
29 28 9 0 0 0 0 0 0 0 0 0 0 0 0 0
0 0 0 0 0 6 4 5 26 28 25 21 20 21 20 24
0 0 0 0 0 0 0 0 0 0 0 0 0 0 0 0
0 0 1 18 19 16 14 13 12 12 12 11 18 29 17 10
18 24 23 24 24 23 23 24 24 24 24 24 24 24 24 25
25 23 23 24 28 25 22 74 103 112 109 100 89 87 101 110
114 118 116 105 97 91 90 96 97 99 101 104 107 112 110 111
107 113 116 115 115 114 113 105 93 74 45 20 25 24 25 26
27 24 2 0 0 0 0 0 0 0 0 0 0 0 0 0
0 0 0 0 0 0 0 0 15 30 29 27 26 26 25 24
0 0 0 0 0 0 0 0 0 0 0 0 0 0 0 0
0 0 3 19 20 17 16 16 17 16 15 13 20 30 27 28
30 25 21 23 23 23 23 23 23 23 24 24 24 24 24 24
24 23 22 28 37 16 28 88 108 113 110 99 88 87 99 110
116 116 117 109 100 93 91 93 96 99 101 102 106 108 110 108
107 109 110 113 112 109 105 101 94 79 61 34 24 24 25 25
26 16 0 0 0 0 0 0 0 0 0 0 0 0 0 0
0 0 0 0 0 0 0 0 7 29 29 27 26 26 25 25
0 0 0 0 0 0 0 1 1 2 2 3 4 5 7 7
9 9 12 19 18 17 17 17 18 17 15 12 16 23 22 24
25 22 22 22 23 23 23 23 23 22 23 22 23 23 23 23
23 22 24 36 37 18 52 96 110 114 109 97 86 89 101 112
116 115 114 110 104 95 92 92 95 97 98 97 101 104 106 107
107 104 104 107 109 106 98 80 55 52 58 33 22 24 23 24
23 5 0 0 0 0 0 0 0 0 0 0 0 0 0 0
0 0 0 0 0 0 0 0 2 25 26 24 24 24 23 23
2 1 3 4 4 6 7 8 9 11 12 12 14 15 15 16
16 16 15 16 16 17 17 17 18 17 17 14 16 18 16 17
19 20 21 22 21 22 22 22 22 22 23 22 23 23 23 23
23 22 28 41 48 31 73 99 111 116 110 96 86 91 103 112
118 118 119 115 105 100 90 84 87 92 93 92 95 99 104 106
104 105 105 105 105 103 92 71 54 43 36 25 22 23 23 23
19 2 0 0 0 0 0 0 0 3 0 0 0 0 0 0
0 0 0 8 0 0 0 0 0 18 20 15 16 17 15 15
4 3 6 6 8 8 9 10 10 12 12 13 14 15 16 16
15 16 16 16 16 16 18 18 18 17 17 16 16 18 17 17
19 20 21 22 22 22 22 22 22 22 22 22 22 22 23 22
22 23 33 42 63 46 89 103 113 115 109 95 86 92 104 114
118 121 116 112 108 102 91 83 82 86 88 84 86 98 99 103
103 107 104 105 108 100 84 66 55 41 22 21 22 23 22 22
11 0 0 0 0 0 0 0 0 0 0 0 0 0 0 0
0 0 1 18 0 0 0 0 0 13 18 16 16 15 12 14
4 2 5 5 6 7 8 9 12 17 19 9 5 7 10 12
6 9 14 14 14 16 18 17 17 18 17 16 18 19 19 18
20 20 21 21 22 21 22 22 22 21 22 21 22 23 23 22
22 28 41 44 71 61 98 107 114 114 107 93 87 93 107 117
117 121 116 114 112 107 95 81 77 81 82 79 78 86 95 99
102 104 106 108 109 100 81 63 41 14 19 21 22 22 22 21
8 0 0 0 0 0 0 0 0 0 0 0 0 0 0 0
0 0 9 22 0 0 0 0 0 8 20 21 22 21 18 21
2 1 2 2 3 3 3 7 24 34 21 1 0 0 0 0
0 0 6 10 10 10 9 7 8 12 17 17 18 19 19 19
19 20 21 21 22 22 22 22 22 21 22 22 22 21 22 21
20 34 40 42 75 64 103 111 116 115 107 92 88 93 108 118
119 121 118 116 113 111 103 85 66 69 73 77 74 72 85 95
100 103 105 108 106 98 77 52 16 10 20 22 22 21 21 22
3 0 0 0 0 0 0 4 0 0 0 0 0 0 0 0
0 0 12 16 0 0 0 0 0 3 22 24 24 24 23 23
0 0 0 0 0 0 0 18 39 26 4 0 0 0 0 0
0 0 0 0 0 0 0 0 0 1 12 17 18 18 20 20
19 20 21 21 21 21 22 21 21 21 21 21 21 19 19 21
25 37 40 42 76 60 101 114 116 114 105 91 90 95 107 117
121 119 116 115 113 112 108 98 69 53 61 65 67 70 77 86
95 98 100 102 101 90 68 41 15 16 19 21 21 21 23 24
1 0 0 0 0 0 1 10 0 0 0 0 0 0 0 0
0 0 3 3 0 0 0 0 0 0 11 19 20 20 20 22
0 0 0 0 0 2 9 32 31 5 0 0 0 0 0 0
0 0 0 0 0 0 0 0 0 0 6 18 18 18 19 20
20 19 20 20 21 21 21 21 21 21 21 21 21 17 14 20
31 33 39 43 75 59 96 116 116 113 103 93 91 97 108 119
122 120 116 117 112 113 110 102 83 44 41 53 56 62 69 75
83 92 93 96 91 74 61 28 18 19 19 20 20 20 20 11
0 0 0 0 0 0 0 0 0 0 0 0 0 0 0 0
0 0 0 0 0 0 0 0 0 0 2 9 13 12 14 20
0 0 0 0 0 2 19 31 12 0 0 0 0 0 0 0
0 0 0 0 0 0 0 0 0 0 6 19 19 19 19 20
19 19 19 20 20 21 20 20 20 19 20 21 20 16 15 28
32 33 39 44 69 71 82 116 115 111 103 92 92 98 110 120
124 122 119 117 115 112 112 102 91 52 21 25 45 47 50 53
61 75 86 86 76 64 49 26 20 16 14 12 12 11 11 3
0 0 0 0 0 0 0 0 0 0 0 0 0 0 0 0
0 0 0 0 0 0 0 0 0 0 5 8 15 16 17 20
0 0 0 0 0 3 28 23 1 0 0 0 0 0 0 0
0 0 0 0 0 0 0 0 0 2 14 20 20 19 19 19
20 19 19 19 20 20 21 20 21 22 25 29 29 24 26 34
33 33 38 47 56 87 65 113 114 111 106 95 94 98 110 119
124 121 120 116 115 110 107 99 85 64 27 27 30 34 37 35
38 45 50 51 48 38 25 20 12 6 4 2 2 1 0 0
0 0 0 0 0 0 0 0 0 0 0 0 0 0 0 0
0 0 0 0 0 0 0 0 0 0 9 14 16 22 22 23
0 0 4 4 0 5 30 15 0 2 7 5 0 0 0 0
0 0 0 0 0 0 0 0 0 8 16 16 16 17 18 18
19 19 19 19 20 20 22 27 31 37 42 40 35 25 29 33
32 34 36 49 51 93 59 97 112 111 107 95 95 102 113 120
123 123 120 116 113 110 106 92 78 73 52 32 27 31 40 14
16 17 19 21 17 15 15 14 13 11 10 9 4 0 0 0
0 0 0 0 0 0 0 0 0 0 0 0 0 0 0 0
0 0 0 0 1 0 0 0 0 0 4 9 9 21 23 24
4 4 6 4 0 9 26 6 0 8 11 8 1 0 1 4
0 0 0 0 0 0 0 0 0 0 2 3 3 5 16 18
19 19 18 20 24 28 33 37 42 44 45 41 37 25 28 34
32 34 35 45 47 87 75 69 110 114 106 97 96 105 115 122
125 123 118 113 109 106 100 86 77 79 76 56 46 63 43 23
21 14 13 20 7 10 10 9 10 9 9 9 12 14 9 2
0 0 0 0 0 0 0 0 0 0 0 0 0 0 0 0
0 0 0 0 0 0 0 0 0 0 0 0 1 17 23 24
5 3 2 0 0 13 24 2 0 8 10 8 0 0 11 15
9 0 0 0 0 0 0 0 0 0 0 0 0 0 12 18
18 20 27 34 36 34 36 38 44 47 42 38 32 25 29 33
32 34 35 43 45 75 100 59 99 114 106 98 99 107 115 123
124 121 116 111 106 103 96 89 92 96 100 92 72 64 34 32
29 29 24 22 12 7 8 10 10 7 6 7 10 15 31 31
30 15 7 4 1 0 0 0 0 0 0 0 0 0 0 0
0 0 0 0 0 0 0 0 0 0 0 0 0 9 21 23
2 0 0 0 0 17 23 1 0 6 2 5 2 7 19 18
12 2 0 0 0 0 0 0 0 0 0 0 0 0 11 20
27 35 38 38 38 33 36 36 40 42 42 38 31 35 36 33
29 34 34 42 46 61 110 74 77 114 106 102 101 109 116 123
125 122 115 108 103 101 97 99 103 108 101 86 94 50 40 38
28 29 25 23 19 13 13 9 11 9 6 6 15 28 36 39
42 37 36 39 33 27 15 8 1 0 0 0 0 0 0 0
0 0 0 0 0 0 0 0 0 0 0 0 0 3 16 17
2 0 0 0 0 19 24 2 0 0 0 1 8 16 22 16
11 5 0 0 0 0 0 0 0 0 0 1 10 20 31 36
37 36 40 40 35 28 32 40 42 40 41 39 35 38 36 34
29 32 34 40 46 54 106 98 65 104 106 105 103 109 118 124
124 122 114 105 103 104 105 108 112 104 81 92 100 43 4 26
36 26 22 18 19 18 13 15 25 23 19 17 27 35 38 37
37 37 36 38 38 38 39 39 37 23 5 0 0 0 0 0
0 0 0 0 0 0 0 0 0 0 0 0 0 0 13 15
2 1 0 0 0 19 27 5 0 0 0 4 14 23 20 5
6 6 0 0 0 0 0 0 0 3 16 31 35 36 36 35
37 38 40 37 31 24 36 42 39 38 39 39 37 38 35 35
27 31 34 39 43 48 94 115 73 79 108 109 106 110 119 125
125 121 107 102 104 108 110 111 109 87 84 110 78 19 0 4
40 25 21 13 9 24 28 34 37 32 31 27 33 34 35 35
36 38 38 39 38 37 38 39 39 38 39 22 6 0 0 0
0 0 0 0 0 0 0 0 0 0 0 0 0 0 10 15
8 8 7 0 0 16 29 12 0 0 0 5 19 24 11 0
4 8 0 0 0 0 0 1 17 31 36 38 37 38 36 36
37 36 37 37 32 25 37 40 39 38 38 38 37 36 37 38
29 32 34 43 48 48 83 124 95 60 102 112 109 110 119 125
125 118 105 101 108 113 115 109 94 92 110 104 47 2 0 1
39 26 21 10 2 26 38 39 36 32 35 30 33 31 31 36
36 37 37 38 37 38 39 37 38 39 39 40 37 16 0 0
0 0 0 0 0 0 0 0 0 0 0 0 0 1 9 15
12 11 9 0 0 13 23 16 1 0 0 9 20 14 2 0
3 5 0 0 0 0 4 30 38 37 36 35 35 35 33 35
36 36 37 36 31 24 34 42 38 34 35 39 37 36 36 40
30 34 33 42 47 16 89 122 114 67 89 117 111 111 121 125
124 114 99 100 110 113 110 97 94 111 117 69 40 0 0 5
45 26 22 9 2 28 37 37 36 29 36 32 34 34 31 36
38 38 39 38 38 36 39 38 38 39 40 38 36 27 10 0
0 0 0 0 0 0 0 0 0 0 0 0 0 2 7 15
12 13 11 1 0 11 23 21 4 0 0 5 7 1 0 0
0 0 0 0 0 4 32 40 37 36 35 36 35 35 33 35
35 36 38 37 33 25 32 40 38 32 34 37 39 35 35 41
30 34 33 43 37 1 82 123 108 86 79 119 112 111 121 126
125 109 95 105 114 109 98 92 112 117 71 38 9 0 0 14
44 25 22 10 6 33 38 38 37 31 33 36 35 34 34 36
40 38 38 38 40 38 38 39 40 40 40 38 34 21 24 1
0 0 0 0 0 0 0 0 0 0 0 0 0 4 8 16
15 12 10 1 0 2 7 5 1 0 0 0 0 0 0 0
0 0 0 0 1 27 37 38 35 35 34 36 35 36 34 35
34 37 37 35 32 25 30 38 38 33 31 33 38 35 36 40
29 33 31 41 35 0 68 125 107 105 82 117 114 110 120 126
122 103 94 107 110 99 74 73 114 72 26 16 2 0 0 21
41 25 24 22 18 33 38 37 36 34 27 35 33 33 36 38
38 37 38 39 40 38 38 37 38 38 38 38 33 19 31 16
0 0 0 0 0 0 0 0 0 0 0 0 0 4 7 17
3 0 0 0 0 0 0 0 0 0 0 0 0 0 0 0
0 0 0 0 17 34 30 34 34 36 36 38 38 38 34 36
37 39 38 36 34 28 30 36 38 37 31 32 36 35 35 39
34 35 27 35 37 0 51 129 111 107 100 105 117 107 118 126
117 94 91 102 95 68 55 53 39 25 18 15 7 6 0 26
42 28 29 29 28 34 37 39 39 38 29 31 32 34 34 37
38 40 40 39 39 39 39 40 41 40 39 39 29 19 32 24
3 0 0 0 0 0 0 0 0 0 0 0 0 3 7 17
0 0 0 0 0 0 0 0 0 0 0 0 0 0 0 0
1 0 0 6 30 33 26 27 35 32 36 39 40 36 35 38
41 40 38 36 35 31 33 34 35 36 29 31 36 35 36 39
35 37 30 36 36 0 25 124 121 112 107 87 106 103 115 125
112 81 81 81 58 38 26 23 21 19 17 11 23 20 7 26
45 33 38 37 33 37 36 40 39 38 34 26 32 33 34 37
37 40 39 37 39 39 40 40 40 37 38 37 29 18 32 24
15 0 0 0 0 0 0 0 0 0 0 0 0 2 5 15
0 0 0 0 0 0 0 2 1 1 1 4 5 5 0 3
3 0 1 23 32 33 27 26 36 32 35 38 38 34 37 40
41 41 38 36 36 34 34 32 37 38 31 30 36 34 37 39
36 39 35 37 31 0 7 96 125 122 111 69 63 83 106 123
99 55 63 56 34 23 21 25 28 22 16 23 36 27 15 23
45 40 36 40 35 38 36 39 39 37 37 26 32 37 36 33
36 38 37 37 37 38 39 38 38 38 39 39 32 19 34 27
26 3 0 0 0 0 0 0 0 0 0 0 0 1 6 13
0 0 0 0 0 0 0 3 3 9 12 10 14 12 8 10
2 0 12 28 33 34 28 26 36 32 32 36 39 39 40 42
42 43 36 35 36 39 39 32 32 36 33 31 37 35 39 36
36 38 40 43 19 0 12 40 101 124 121 80 44 47 79 114
74 36 54 33 24 26 33 36 33 26 22 34 33 30 28 21
30 49 46 45 40 37 36 40 39 39 40 33 31 38 39 38
34 36 40 40 38 38 41 39 38 38 40 41 31 21 34 27
32 13 0 0 0 0 0 0 0 0 0 0 0 2 9 12
0 0 0 0 0 0 0 0 4 13 18 16 20 20 19 10
0 4 30 30 34 33 27 27 37 31 29 34 38 39 41 40
40 38 34 33 38 42 42 34 29 36 35 32 37 37 37 35
37 40 44 35 6 11 19 23 31 63 86 54 27 27 44 64
44 40 47 28 27 34 38 35 27 25 30 36 31 32 36 34
29 31 43 46 53 36 34 42 41 40 39 38 33 38 40 40
36 35 41 41 38 39 37 38 39 40 38 38 29 21 35 27
33 24 15 0 0 0 0 0 0 0 0 0 0 3 13 15
0 0 0 0 0 0 0 0 2 7 15 21 20 22 13 1
0 25 35 32 35 35 28 28 38 32 32 36 38 41 42 42
42 38 37 34 36 42 39 30 31 35 38 33 36 40 42 43
44 42 33 26 30 28 26 23 24 25 29 14 8 17 24 27
35 45 37 28 32 39 41 33 24 29 33 36 33 33 36 37
36 36 35 31 33 27 35 41 40 38 39 37 35 35 42 43
38 34 37 41 40 38 39 37 38 39 40 39 28 21 35 28
36 35 31 12 0 0 0 0 0 0 0 0 0 4 13 14
0 0 0 0 0 0 0 0 0 1 8 14 12 8 1 0
14 38 35 31 33 36 26 24 36 33 33 35 38 40 42 41
39 35 31 34 38 43 37 33 33 35 37 33 35 42 40 31
29 30 33 34 36 37 37 35 36 29 32 32 34 35 36 26
35 52 34 32 39 42 41 31 24 34 36 37 36 36 38 39
38 39 39 36 35 33 36 39 39 41 40 39 40 35 39 41
41 35 36 40 40 37 35 36 37 39 41 41 29 22 34 33
39 38 37 61 3 0 0 0 0 0 0 0 0 3 10 9
0 0 0 0 0 0 0 0 0 0 0 1 3 0 0 5
37 39 39 31 33 36 27 25 38 36 35 36 39 40 39 39
38 30 29 36 38 41 37 34 33 38 41 35 37 37 35 36
38 38 39 39 42 39 41 40 39 35 32 36 34 39 33 27
79 112 48 38 43 47 39 28 34 36 37 41 39 37 39 39
39 39 39 36 36 36 38 41 40 40 40 40 40 37 35 36
40 32 34 41 41 40 39 40 41 40 42 41 29 23 33 37
39 39 55 102 43 0 0 0 0 0 0 0 0 4 13 11
0 0 0 0 0 0 0 0 0 1 1 2 0 0 1 24
66 40 38 34 32 33 28 26 39 36 37 37 40 42 41 40
39 31 31 38 41 44 41 33 34 39 43 36 38 38 42 43
43 40 41 40 41 40 42 42 42 39 34 39 35 40 33 37
118 126 120 100 91 78 39 30 41 52 94 117 115 103 95 85
69 51 38 37 36 38 41 42 40 40 42 41 42 39 37 37
39 35 34 38 39 39 38 38 38 39 42 40 29 24 35 37
39 47 92 115 88 5 0 0 0 0 0 0 0 4 13 11
0 0 0 0 0 0 0 0 1 6 5 5 3 8 6 56
106 45 38 38 33 33 28 27 39 37 37 38 41 42 41 41
39 32 33 41 42 43 41 36 36 40 41 39 39 43 44 43
42 40 41 41 42 42 42 43 42 40 37 40 40 39 32 70
129 126 127 127 126 125 90 76 96 123 126 126 125 125 124 125
125 123 101 61 38 39 41 40 41 42 43 42 41 39 39 39
40 35 35 42 57 66 66 67 73 86 101 102 56 21 39 36
41 79 122 119 101 40 0 0 0 0 0 0 0 3 11 8
1 0 0 0 0 0 0 0 1 5 5 4 11 24 24 101
126 88 38 35 35 34 28 26 38 39 38 39 40 41 41 41
39 32 35 44 43 44 43 37 36 40 43 42 42 41 41 48
60 65 67 63 54 49 46 45 46 48 58 82 109 73 43 102
128 127 127 126 126 125 125 125 125 125 125 125 126 125 125 125
125 125 124 124 112 94 93 97 107 114 115 112 100 72 48 42
43 48 82 114 123 124 123 123 123 123 123 123 88 22 37 41
65 121 123 118 102 84 3 0 0 0 0 0 0 2 10 6
0 0 0 0 0 0 0 0 2 7 6 6 18 28 52 125
126 124 59 35 38 35 30 31 60 60 49 42 43 43 42 42
37 33 36 44 42 43 44 39 37 42 44 44 40 45 85 120
128 128 128 127 126 123 118 116 118 122 126 126 126 124 110 125
125 125 125 125 124 125 125 125 126 125 124 124 125 125 124 124
124 124 124 123 124 124 124 124 124 124 124 124 123 123 119 111
112 119 123 123 122 123 123 123 123 123 123 122 92 23 40 53
114 123 122 116 105 102 35 0 0 0 0 0 0 0 1 1
0 0 0 0 0 0 0 0 1 9 9 15 29 39 95 131
129 128 103 42 35 37 28 61 130 129 125 119 115 114 108 101
86 56 44 54 73 94 98 79 52 43 45 46 69 113 128 128
128 127 127 127 127 127 127 126 127 126 126 126 126 125 121 126
125 125 126 126 125 124 125 125 124 124 124 124 124 124 124 124
124 124 124 124 124 123 124 124 124 123 124 124 123 123 123 123
123 122 122 122 123 122 122 122 122 122 122 121 97 25 45 105
123 122 122 118 112 108 88 4 0 0 0 0 0 0 0 0
0 0 0 0 0 0 0 0 0 4 10 20 31 56 122 130
129 129 128 74 37 34 29 69 131 130 129 129 128 128 128 129
128 125 121 124 128 128 128 128 124 114 106 116 127 127 127 127
127 127 127 127 126 126 126 125 126 126 126 126 125 125 125 124
125 125 126 125 125 125 125 124 124 124 124 124 125 124 124 124
123 123 123 123 123 123 123 123 123 123 123 123 123 122 122 122
122 122 122 121 121 121 122 121 121 121 122 121 98 32 82 122
121 121 120 120 119 114 104 33 0 0 0 0 0 0 0 0
0 0 0 0 0 0 0 0 0 0 5 18 29 82 130 129
129 129 128 120 52 35 28 68 131 128 129 129 128 128 129 128
128 128 128 128 128 127 128 127 127 127 127 127 127 127 127 127
127 127 126 126 126 126 126 125 126 125 126 125 125 125 125 124
125 113 119 125 124 125 125 124 125 124 124 124 124 124 124 123
123 124 123 123 123 123 123 123 122 123 122 123 123 122 122 122
122 122 122 122 122 122 121 122 122 122 121 120 97 51 119 121
121 121 121 120 121 118 105 74 0 0 0 0 0 0 0 0
0 0 0 0 0 0 0 0 0 0 0 8 29 111 130 129
129 129 129 129 104 42 31 70 131 129 129 129 128 128 128 128
128 128 128 128 128 127 128 127 127 127 128 127 127 127 127 127
127 126 126 126 126 125 126 126 126 126 125 125 126 125 125 124
120 110 119 125 124 124 124 124 124 124 124 124 124 124 123 123
123 123 123 124 123 122 122 122 123 122 123 123 123 122 122 122
123 122 122 122 122 122 122 122 122 122 121 121 108 101 122 121
121 121 121 120 120 119 107 98 18 0 0 0 0 0 0 0
0 0 0 0 0 0 0 0 0 3 3 12 60 128 130 130
129 128 129 128 127 81 35 75 130 128 128 128 129 128 129 128
128 129 128 128 128 127 127 127 127 127 127 127 127 127 127 127
127 127 127 126 127 126 127 125 126 126 126 125 125 125 124 110
96 106 110 125 124 124 125 125 124 125 125 124 124 123 123 124
123 123 123 123 123 123 122 122 123 122 123 123 123 123 122 122
122 122 122 122 122 122 122 122 122 121 121 121 120 120 121 121
121 121 120 120 120 120 110 101 62 0 0 0 0 0 0 0
0 0 0 0 0 0 0 0 0 6 10 29 105 130 129 130
129 128 128 128 128 123 97 122 128 128 128 128 128 129 129 128
127 127 127 127 127 127 127 126 127 127 128 127 127 127 127 126
126 126 125 125 126 126 126 126 126 125 125 126 125 125 125 109
87 96 109 125 124 125 124 124 124 124 124 124 124 123 123 124
123 123 123 123 123 122 123 122 122 122 123 123 123 123 123 123
122 122 123 122 121 122 121 122 121 121 121 121 120 119 121 121
121 120 120 120 119 119 110 103 94 9 0 0 0 1 9 2
0 0 0 0 0 0 0 0 0 3 9 57 127 129 129 129
128 128 128 128 128 128 128 127 127 127 128 127 128 128 128 128
128 127 127 127 127 127 128 127 127 127 126 126 126 126 126 126
126 127 126 126 126 126 126 125 126 124 125 125 125 125 124 123
87 77 119 125 125 125 125 124 124 124 124 123 124 123 123 123
123 123 124 123 123 122 123 122 122 123 122 122 123 122 122 122
122 122 122 122 121 122 122 122 121 121 121 121 119 119 121 121
121 120 120 120 120 120 110 107 106 48 0 0 0 0 7 3
0 0 0 0 0 0 0 0 0 3 15 99 131 129 129 129
129 129 129 127 128 128 128 127 127 128 127 127 127 127 128 127
127 127 127 127 127 127 127 127 127 127 127 126 127 127 127 127
127 126 126 126 126 125 126 125 125 126 125 125 125 125 125 124
121 115 125 124 124 125 124 124 124 124 124 124 124 124 123 124
123 123 123 123 123 123 123 123 123 123 122 123 123 122 122 122
122 122 122 121 122 121 122 121 121 121 121 120 118 119 121 120
120 120 120 121 120 119 113 113 108 90 5 0 0 0 0 0
0 0 0 0 0 0 0 0 0 2 38 125 129 128 128 128
128 128 128 129 128 128 129 128 128 128 128 128 128 127 128 127
127 127 128 128 127 127 127 127 127 127 126 126 126 126 126 126
126 126 126 126 126 126 126 125 125 125 125 125 125 125 124 124
125 125 125 125 124 125 124 124 125 124 124 124 124 123 123 123
123 122 123 123 123 123 123 123 122 122 122 123 122 122 122 122
122 122 121 121 122 122 121 122 122 121 121 121 119 120 121 121
121 120 120 120 120 118 118 118 112 105 33 0 0 0 0 0
