P2
128 120
135
0 6 36 34 27 27 27 27 26 26 26 25 26 25 25 25
25 25 25 25 24 24 24 23 23 22 22 22 22 21 21 21
20 20 20 20 20 19 19 19 19 18 18 17 17 17 17 16
17 17 19 20 21 21 20 15 15 16 16 21 21 20 21 20
20 20 19 19 18 16 18 19 20 21 21 21 21 21 22 21
22 21 22 22 23 23 23 23 23 24 24 24 24 24 25 25
25 25 25 26 26 26 27 27 27 28 28 29 28 29 29 29
29 29 29 29 29 29 29 30 30 30 30 30 31 30 30 30
0 6 36 33 27 27 27 26 26 26 26 26 26 26 26 25
25 25 25 24 24 24 23 23 23 22 22 22 22 22 21 21
21 21 20 20 20 20 19 19 19 18 18 18 18 17 17 18
18 17 19 21 21 21 20 15 15 18 16 22 22 22 20 20
21 21 19 19 19 16 19 20 21 21 22 22 22 22 22 22
23 22 22 23 23 22 23 24 24 24 24 25 25 25 25 25
26 26 26 27 27 27 28 28 28 28 29 28 29 28 28 29
28 29 28 29 29 29 29 30 30 30 30 30 30 30 30 30
0 7 36 33 27 27 27 27 26 26 26 26 25 25 25 25
25 25 25 24 24 24 23 23 23 23 23 22 22 21 21 21
21 20 20 20 21 20 20 20 19 19 19 19 17 18 18 17
17 17 19 21 21 21 20 15 16 19 16 21 21 22 21 20
20 21 20 20 19 17 20 20 22 22 22 22 22 21 22 22
22 22 23 22 23 23 24 24 24 24 25 25 25 25 25 26
26 26 26 27 27 28 28 27 28 28 27 28 28 28 29 29
30 30 30 29 29 29 30 30 30 30 30 30 30 30 31 31
0 7 35 32 26 26 26 26 26 26 26 26 26 26 26 26
25 25 25 24 25 24 23 24 24 23 23 22 22 22 22 22
21 21 21 20 20 20 20 19 19 19 19 18 18 19 18 17
17 19 20 22 22 22 21 16 15 20 16 21 22 22 22 21
21 22 21 20 20 18 20 21 22 22 22 22 23 23 23 23
23 23 23 23 24 24 24 24 24 25 25 25 26 26 26 26
27 27 27 28 27 27 27 27 28 28 28 28 28 29 29 29
29 30 31 30 30 30 30 30 30 30 30 30 31 30 30 31
0 8 35 32 27 27 27 27 27 26 26 26 25 25 25 25
25 24 24 25 24 24 24 24 24 23 23 22 22 22 22 21
22 22 21 21 21 21 20 20 20 20 19 19 19 18 18 17
17 18 20 22 22 22 21 16 17 21 17 22 22 22 22 21
20 21 20 20 20 18 20 21 22 23 23 23 23 22 23 23
23 22 23 24 24 24 24 25 25 25 26 26 25 26 26 26
26 26 27 27 28 27 28 29 29 29 29 29 29 29 29 29
30 30 30 30 29 29 29 30 29 30 31 31 31 30 31 30
3 14 36 31 26 26 26 26 26 26 26 26 25 26 26 25
25 25 25 24 24 24 24 23 24 23 22 22 22 22 22 22
22 22 21 20 20 21 20 20 20 20 20 19 19 19 18 19
18 19 20 22 23 23 21 16 16 21 17 22 23 22 22 21
20 21 21 21 20 18 20 21 23 23 23 23 24 23 23 23
24 24 24 24 24 24 24 24 25 25 25 25 25 25 26 26
27 27 28 29 28 29 29 29 29 29 29 29 29 29 29 30
30 30 30 30 30 30 30 30 30 30 30 30 30 30 30 30
17 23 34 30 26 27 27 27 27 26 26 25 26 25 25 25
25 25 25 24 25 24 24 24 24 23 23 23 22 23 22 22
21 21 21 21 21 21 21 21 20 20 20 19 19 19 18 18
18 19 19 22 23 22 22 16 17 22 17 22 23 23 23 22
21 21 21 20 20 18 20 20 22 23 24 24 24 24 23 24
24 24 24 24 24 24 24 25 25 25 26 26 26 26 26 26
27 27 27 28 28 28 29 28 29 29 29 29 30 29 30 30
30 30 30 30 29 29 29 29 29 29 30 30 31 30 31 31
26 27 29 28 27 26 26 26 26 26 26 26 25 25 25 25
25 25 25 25 24 24 23 23 23 23 22 23 22 22 22 21
22 21 21 21 21 20 20 20 20 19 19 18 19 18 18 18
18 19 20 23 23 23 22 16 16 22 18 20 22 23 22 22
21 21 21 22 21 18 21 21 23 22 22 23 23 23 23 23
23 22 23 23 24 25 25 25 25 25 25 26 26 26 26 27
27 27 27 28 28 28 29 29 29 29 29 28 28 28 29 29
29 28 29 30 29 29 30 30 30 30 30 30 30 30 30 30
19 22 25 26 26 26 26 26 26 25 26 26 25 24 24 24
24 24 24 24 24 24 24 23 23 24 23 22 22 21 21 22
22 21 21 20 20 20 20 20 20 20 19 19 19 18 18 18
19 19 20 22 23 23 22 17 16 23 19 20 24 23 23 22
21 21 21 21 20 18 21 21 23 23 23 23 23 22 23 23
23 24 23 24 24 24 25 25 25 25 25 25 26 26 27 27
27 27 27 28 28 27 28 28 29 29 28 29 29 29 29 29
29 28 29 30 28 29 29 29 29 29 29 30 30 30 30 31
8 10 13 17 20 21 24 25 25 25 25 24 25 25 24 25
24 24 24 24 24 23 23 23 22 22 22 22 21 21 21 20
21 21 21 21 20 20 20 20 20 19 19 19 18 18 18 18
18 19 20 23 23 23 22 16 16 23 20 19 23 23 23 22
21 21 21 21 20 18 20 20 22 22 22 22 23 23 23 23
22 23 23 24 25 24 24 25 24 25 24 25 26 26 26 26
27 27 27 28 27 27 28 28 28 28 28 28 27 28 28 28
28 28 28 29 28 29 30 29 29 29 29 29 29 29 29 29
5 6 7 6 8 9 11 14 17 20 22 23 24 25 24 24
24 23 23 23 23 23 24 23 22 22 22 22 22 22 21 21
21 21 20 20 20 19 20 20 20 19 19 19 19 19 19 18
19 19 20 22 23 23 22 16 16 23 21 19 24 24 23 22
21 21 21 20 20 18 21 21 23 22 23 24 24 24 23 24
23 24 24 24 25 24 24 24 24 25 25 25 26 26 26 27
27 26 27 28 28 28 28 28 29 28 28 28 28 28 28 29
29 28 29 30 28 29 29 28 28 28 28 28 28 28 29 29
11 10 6 6 6 6 6 6 7 5 6 12 21 24 24 24
24 23 24 23 23 24 23 23 22 22 22 22 21 21 21 21
21 21 21 21 20 20 20 20 19 19 19 19 18 18 18 18
18 19 20 22 23 22 21 16 16 22 22 18 23 23 22 22
22 21 22 21 21 19 22 22 23 24 23 23 23 23 23 23
23 23 24 24 25 24 25 25 25 25 26 26 26 26 26 26
27 27 27 27 28 28 28 28 28 28 28 28 28 28 28 28
28 28 28 28 26 27 28 28 28 28 29 30 30 28 29 28
30 23 10 12 10 7 6 6 7 3 1 7 20 24 24 24
24 23 23 22 24 23 23 23 23 23 22 23 22 22 22 21
21 21 21 21 21 21 20 20 20 19 19 19 19 19 19 19
19 20 21 23 24 22 22 16 16 23 24 18 24 23 24 22
22 22 21 21 22 21 21 19 22 21 24 23 24 24 25 24
24 24 25 25 25 25 25 25 25 26 25 26 26 26 27 27
27 28 28 28 28 28 28 28 28 28 28 28 27 27 27 27
28 28 28 28 28 29 29 29 28 28 29 30 29 28 29 29
35 29 18 23 26 22 18 15 12 6 4 7 20 24 25 25
25 24 24 24 24 24 24 24 23 22 23 22 22 21 22 22
22 21 23 27 25 23 22 21 21 20 20 20 19 19 19 19
19 20 21 23 24 23 23 17 17 23 24 18 21 18 13 13
11 10 15 24 25 20 13 14 10 12 15 19 21 24 25 25
24 24 25 25 27 26 26 26 26 26 27 27 27 27 27 27
27 28 28 28 28 27 27 28 28 28 28 28 28 28 28 29
28 28 29 28 28 28 29 29 29 30 30 30 30 29 29 29
36 31 23 28 31 28 29 31 29 20 5 8 20 25 26 25
25 24 30 30 29 27 25 25 24 23 23 23 23 22 22 22
22 22 27 33 30 27 25 24 22 20 20 20 20 20 20 20
20 20 21 23 24 24 23 17 16 21 14 4 1 1 1 5
9 17 21 22 23 20 12 10 10 7 9 10 10 14 26 26
26 26 26 26 26 26 26 26 26 26 27 27 27 27 27 27
27 27 28 27 27 28 28 28 28 28 28 29 28 28 28 29
29 29 29 29 29 29 29 29 29 29 29 30 30 29 29 29
19 29 26 29 31 31 33 35 35 27 7 9 22 25 25 25
25 25 32 34 32 30 28 28 28 25 24 23 22 22 21 22
21 22 27 32 30 29 29 29 24 21 21 21 20 20 19 19
19 19 21 23 24 24 23 14 4 1 1 4 8 14 17 23
26 18 15 22 21 17 15 16 17 18 19 11 9 9 11 16
17 24 26 25 27 26 26 26 26 27 27 27 27 27 26 27
27 27 27 27 27 27 27 28 28 27 28 29 28 28 29 29
28 29 29 29 28 28 29 29 29 29 29 29 30 29 29 29
3 27 27 30 31 33 34 36 37 30 9 10 24 27 26 26
26 26 32 34 33 30 31 32 33 29 29 28 27 24 23 23
23 22 25 25 25 26 28 29 26 21 21 20 20 21 21 20
21 21 21 24 24 20 9 1 8 8 11 14 16 18 22 20
10 12 14 10 10 13 18 22 24 22 22 23 12 10 10 8
12 17 19 26 26 26 25 26 27 26 27 27 27 26 27 28
28 28 28 28 28 28 28 29 29 28 28 29 29 28 29 28
29 29 29 29 29 29 29 29 30 29 30 29 30 29 29 29
4 27 22 25 27 32 35 35 36 30 10 11 26 28 25 26
28 28 25 15 21 28 31 34 34 27 17 20 25 27 27 27
27 25 23 13 10 12 16 19 24 22 21 21 21 20 20 20
20 21 19 20 14 2 6 10 14 10 17 20 19 14 6 7
5 4 1 2 2 8 16 20 23 33 25 20 20 11 12 7
15 17 15 17 25 26 27 27 27 27 27 28 28 27 27 28
28 28 28 28 28 28 28 28 29 29 28 30 30 29 29 29
29 29 29 29 29 29 29 29 30 30 30 29 30 30 30 30
7 26 7 3 9 16 22 26 28 28 10 11 26 29 25 25
29 33 22 0 1 10 17 20 25 22 1 0 3 8 13 18
24 25 24 11 1 3 2 1 14 23 21 21 21 21 21 21
20 17 13 3 5 8 13 10 10 8 6 2 0 0 2 4
2 2 3 3 4 10 19 16 8 6 24 22 20 18 17 14
6 24 21 13 14 25 28 28 27 27 27 28 28 27 28 28
28 29 29 28 29 29 29 28 28 29 28 30 30 29 29 30
29 29 29 30 30 29 29 29 30 30 30 29 30 30 30 30
4 26 3 0 0 0 0 2 7 25 10 8 15 21 26 27
30 35 23 0 0 0 5 7 13 21 1 0 0 0 0 0
2 11 22 8 0 0 0 0 14 24 22 22 22 21 21 21
18 14 6 5 9 13 17 26 33 30 22 11 7 8 12 11
14 18 22 28 32 39 42 37 31 16 12 25 25 20 21 18
6 4 20 22 13 14 27 27 27 28 27 28 29 28 29 28
28 29 28 28 28 28 28 29 28 29 29 30 30 29 30 29
29 29 29 30 30 30 30 29 30 30 30 30 30 30 30 30
4 27 3 0 0 0 0 0 1 23 11 5 0 0 4 10
17 25 21 0 0 0 0 2 9 21 1 0 0 0 0 0
0 4 22 5 0 0 0 0 14 24 22 22 21 21 21 21
16 12 8 7 10 14 12 9 16 25 36 35 28 21 19 21
25 35 53 44 52 59 74 75 61 46 42 37 32 25 23 21
16 3 4 19 17 8 16 27 27 28 27 27 28 28 28 28
28 28 29 28 28 28 29 29 29 29 28 29 30 29 29 29
29 29 29 30 29 30 30 29 30 31 31 31 30 30 30 31
4 26 3 0 0 1 0 0 1 24 11 5 0 0 0 0
0 1 8 0 0 0 0 0 6 19 1 0 0 0 0 0
0 4 21 2 0 0 0 0 16 25 23 22 22 21 21 19
12 7 4 5 12 6 1 0 3 7 9 18 27 21 21 26
35 57 63 66 76 90 94 92 87 75 63 60 50 35 27 24
20 14 4 7 17 9 6 24 28 28 27 28 30 28 28 28
28 28 28 29 29 29 28 29 29 29 29 30 30 29 29 29
29 29 29 30 30 30 29 29 30 31 31 30 29 29 30 30
5 26 3 0 0 4 0 0 1 24 10 4 0 0 0 0
0 0 4 0 0 0 0 0 7 20 0 0 0 0 2 0
0 3 20 1 0 0 0 0 16 25 22 22 22 21 21 17
10 3 0 1 3 0 1 1 1 4 6 25 23 20 22 26
45 66 74 90 103 112 113 112 108 100 91 74 63 48 32 22
18 18 8 5 7 6 3 16 28 28 28 28 29 28 28 29
29 29 29 29 29 29 29 29 29 29 29 30 30 29 29 29
30 29 30 30 30 31 30 31 30 31 31 31 30 31 30 30
4 25 2 0 0 2 1 0 2 24 10 5 0 0 0 0
0 0 3 0 0 0 0 0 7 23 1 0 0 2 7 4
0 2 20 1 0 0 0 0 14 26 23 22 22 22 21 12
3 0 0 0 1 1 1 1 4 4 17 26 20 17 28 32
54 66 88 110 118 121 121 121 120 115 111 101 86 71 47 22
14 18 14 3 4 1 0 7 26 29 28 29 28 28 29 29
29 29 29 29 30 30 29 29 30 30 30 30 30 30 30 30
30 31 30 30 30 31 31 31 31 31 31 30 30 31 30 31
5 23 1 0 0 0 0 0 2 23 9 4 0 0 0 0
0 0 2 0 0 0 0 0 7 24 1 0 0 2 8 7
3 2 20 2 0 0 0 0 13 27 22 22 22 21 16 4
0 0 1 0 0 1 5 1 2 13 26 22 14 16 30 32
48 66 107 121 123 122 123 122 122 121 120 114 103 93 77 36
16 13 26 3 1 0 0 3 23 29 29 29 29 29 29 29
29 29 30 30 30 30 30 30 30 30 30 30 30 30 30 31
30 30 30 30 31 31 31 31 31 31 31 31 31 31 31 31
7 22 0 0 0 0 0 0 2 24 9 5 0 1 0 0
0 0 2 0 0 0 0 0 8 24 2 0 0 1 6 7
4 2 22 7 0 0 0 0 12 27 23 23 24 19 9 0
0 1 1 2 1 2 5 1 6 24 20 22 9 21 27 33
46 75 112 123 123 122 122 122 122 122 122 120 116 105 98 69
41 13 18 17 1 2 4 1 17 29 29 29 29 29 29 29
29 30 31 30 30 30 30 30 30 30 30 30 31 30 30 31
31 30 30 31 31 31 31 31 31 31 31 31 31 32 32 32
23 27 10 3 3 2 1 0 5 23 9 5 0 0 0 0
0 0 4 2 0 0 0 0 12 28 8 1 1 0 0 3
3 1 25 26 20 15 10 9 20 28 24 24 20 14 2 0
0 2 4 2 4 8 6 2 15 25 20 10 18 22 24 34
47 83 112 121 123 123 123 122 123 122 122 122 120 115 107 92
77 39 13 13 7 0 0 0 11 29 29 29 29 29 29 28
30 30 30 31 30 30 30 30 30 30 31 31 31 30 30 31
30 30 31 31 32 32 33 32 32 32 32 32 32 32 31 32
30 38 35 20 22 23 23 21 21 23 9 5 0 0 0 0
0 0 12 20 12 9 6 2 9 33 25 20 18 14 8 7
5 5 27 33 31 31 32 33 35 28 23 23 16 7 0 0
3 6 6 6 7 12 7 8 20 16 17 11 17 24 27 33
49 81 107 117 122 122 122 122 122 121 122 122 122 119 116 109
97 82 58 45 34 5 0 0 3 28 29 29 29 29 29 30
30 30 31 31 31 30 31 31 31 30 31 31 31 31 31 31
31 31 31 31 32 31 32 31 31 32 31 29 28 28 28 29
31 44 36 22 27 32 34 33 33 24 8 5 0 0 0 0
0 0 18 37 31 30 30 26 26 36 19 13 15 16 17 17
18 21 30 29 29 30 34 36 37 30 24 20 11 4 0 1
9 10 9 9 13 14 10 18 18 18 18 21 18 22 30 31
46 82 102 108 119 123 123 122 122 122 122 122 122 121 119 115
108 99 89 78 62 33 0 0 0 25 30 29 28 29 29 30
30 30 30 31 31 30 30 30 30 30 31 30 30 30 30 30
29 29 29 30 30 28 28 27 26 26 24 22 20 19 17 15
34 41 28 20 27 33 34 36 37 25 8 8 3 1 0 0
0 0 19 36 32 36 37 38 33 29 14 8 9 8 9 8
10 12 14 13 16 21 27 27 26 25 22 16 6 1 0 7
18 16 13 10 16 15 18 20 17 26 20 21 21 24 30 31
49 80 91 106 115 120 122 122 122 122 122 122 122 122 121 117
112 103 97 88 80 58 11 0 0 19 30 29 29 29 30 30
30 30 30 30 31 30 29 29 29 29 29 28 28 27 27 27
25 24 23 22 20 19 17 16 15 14 13 14 14 14 14 14
32 36 15 4 11 14 17 21 27 25 9 11 24 25 19 12
8 6 21 28 30 36 38 39 33 25 16 9 8 7 5 5
5 4 4 5 6 10 22 21 21 22 21 13 7 1 2 15
23 20 12 15 18 17 20 21 21 25 19 22 19 29 28 34
52 71 88 103 114 118 122 123 122 122 122 123 123 122 121 120
114 107 100 92 86 70 34 0 0 18 30 30 30 29 30 30
30 30 30 30 29 27 28 29 25 24 23 22 21 19 18 17
16 16 15 15 15 15 16 16 17 18 18 19 19 20 19 13
31 37 12 0 0 0 0 0 8 23 9 13 29 36 36 34
32 31 31 20 22 28 32 35 31 27 19 10 8 6 4 4
6 6 6 6 7 11 19 12 19 23 19 13 7 1 7 23
28 22 16 23 19 21 24 20 21 23 21 19 22 26 29 37
49 68 80 100 105 114 120 122 123 123 122 123 123 122 122 120
115 109 104 96 91 78 55 8 0 19 30 29 29 28 28 27
25 23 22 22 20 19 20 30 20 15 16 16 17 16 17 18
18 19 20 20 21 21 22 22 22 23 23 21 24 24 24 10
28 37 11 0 0 0 0 0 5 22 10 12 29 36 36 36
37 38 33 9 2 5 9 15 17 22 20 9 6 1 0 0
3 6 6 5 9 13 23 21 25 28 19 17 4 4 15 27
29 25 24 24 22 22 27 21 20 23 22 21 22 26 31 40
47 62 83 97 98 116 117 123 123 122 123 123 122 122 121 119
115 111 106 98 91 84 66 26 0 18 24 22 21 19 18 18
17 17 17 17 18 17 17 26 19 17 20 21 21 22 23 24
24 24 25 25 25 26 26 27 27 27 26 22 22 27 28 17
24 33 9 0 0 0 2 9 13 22 15 14 23 29 30 32
33 35 31 5 0 0 0 0 3 19 20 8 4 0 0 0
0 2 1 0 3 9 24 29 25 25 17 18 4 6 20 31
33 31 34 26 29 28 27 19 24 24 19 21 22 25 31 38
50 68 85 88 91 109 116 123 123 122 123 123 122 122 120 117
114 111 106 99 92 85 71 44 0 14 17 17 17 18 19 19
20 21 21 21 22 23 22 26 21 21 25 25 26 26 26 27
27 28 28 27 27 28 28 28 28 26 27 29 24 23 28 23
21 30 6 0 0 0 6 17 18 19 17 15 17 19 22 24
25 30 28 3 0 0 0 0 0 19 20 7 2 0 0 0
0 0 0 0 0 3 24 29 19 19 15 15 7 11 25 37
42 33 36 31 24 24 24 22 28 22 19 23 20 27 32 37
55 69 85 78 87 107 119 123 123 123 123 122 123 123 121 119
115 113 107 101 93 86 76 56 8 20 22 22 23 23 24 24
25 26 26 27 27 26 23 23 20 24 28 28 28 29 30 30
30 30 30 30 30 30 28 27 29 28 27 30 30 24 22 26
23 30 5 0 0 0 1 8 12 15 14 13 14 15 18 22
22 29 28 2 0 0 0 0 0 18 15 1 0 0 0 2
2 0 0 0 0 2 24 30 17 16 17 14 10 15 31 44
42 35 37 32 27 21 24 25 26 22 22 19 20 25 32 38
53 71 78 75 89 108 122 123 123 122 123 122 122 122 122 120
116 112 110 104 95 85 80 63 30 25 26 27 26 27 27 27
28 28 28 28 29 28 18 8 10 25 30 30 30 29 30 30
30 30 31 30 30 31 30 28 28 29 26 29 31 30 23 21
25 30 4 0 0 0 0 0 1 11 10 12 11 10 16 20
23 29 26 2 0 0 0 0 0 19 11 0 0 0 0 1
7 3 0 0 0 2 24 30 15 13 14 15 13 21 38 48
41 40 39 35 23 17 22 24 22 18 18 18 21 28 31 38
59 69 75 79 101 120 123 123 123 122 122 122 122 120 119 117
115 108 105 103 96 85 76 68 44 28 28 29 29 28 29 29
29 29 27 25 23 26 16 4 4 23 30 31 31 31 31 31
31 31 31 31 31 31 31 31 29 27 27 27 32 31 30 20
27 30 4 0 0 0 0 0 1 14 12 13 2 0 1 3
6 9 15 2 0 0 0 0 0 21 11 0 0 0 0 3
9 8 3 0 0 2 24 31 18 12 11 15 16 27 43 51
43 45 44 29 18 19 13 15 21 22 17 18 22 23 31 43
59 60 68 88 118 123 123 123 123 123 122 122 120 113 103 88
82 87 87 91 82 75 71 70 58 32 30 30 31 30 29 30
31 27 12 6 5 18 15 4 4 22 31 32 32 31 31 31
31 31 32 31 32 31 32 30 31 29 27 26 30 31 30 25
29 30 4 0 0 0 0 0 2 19 18 16 3 0 0 0
0 0 5 1 0 0 0 0 0 21 9 0 0 0 1 10
13 8 4 0 0 2 24 31 22 13 9 16 20 35 43 51
47 48 38 19 18 16 14 23 26 22 20 18 18 24 35 49
48 46 51 69 80 77 70 63 55 47 41 36 29 25 28 29
3 7 20 32 35 37 55 60 65 42 31 31 32 31 31 31
32 29 18 17 21 25 16 0 2 23 31 32 32 32 32 32
32 32 32 32 32 32 31 31 32 31 29 25 27 29 27 25
26 26 6 0 0 1 0 0 1 22 18 16 3 0 0 0
0 0 4 1 0 1 5 0 0 20 7 0 0 0 0 5
11 2 0 0 0 1 22 33 24 11 11 19 25 37 38 41
39 38 26 17 21 13 21 26 20 16 15 9 5 8 12 14
14 14 14 13 15 16 19 17 16 17 20 19 16 17 46 30
0 0 0 0 2 6 26 53 65 55 31 32 33 32 32 32
31 31 30 30 30 29 19 1 4 23 31 32 33 32 32 32
32 32 32 32 32 32 32 32 31 32 32 28 24 23 23 26
18 21 16 7 3 6 7 3 3 23 17 15 3 0 0 3
0 0 3 1 0 6 8 1 0 20 6 0 0 0 0 0
8 1 0 0 0 0 20 32 22 8 15 24 29 31 28 27
26 23 16 22 9 13 13 14 14 10 2 1 4 6 7 8
11 15 19 22 23 22 21 18 18 16 13 10 6 5 5 3
0 0 0 0 0 0 10 49 63 56 27 30 32 32 32 31
32 32 32 31 30 29 22 3 5 24 31 32 33 32 32 32
32 32 32 33 33 32 32 31 31 31 31 31 26 22 23 29
13 22 21 21 19 21 24 22 21 27 17 13 2 0 3 9
1 0 5 10 6 14 13 8 3 21 6 0 0 0 0 0
8 2 0 0 0 0 17 32 21 5 20 28 30 21 16 13
16 11 19 12 2 5 7 4 1 11 20 19 19 19 24 32
55 84 101 105 103 98 90 85 79 69 58 52 43 32 24 32
1 0 0 0 0 0 0 39 61 43 11 25 32 32 32 31
31 31 31 31 30 28 24 13 14 27 32 32 33 32 33 32
31 31 32 31 32 31 32 31 32 31 32 31 29 23 24 30
17 23 17 4 4 8 15 22 31 30 20 13 3 0 2 5
0 0 7 27 27 29 28 28 26 30 7 0 0 0 0 0
10 3 0 0 0 0 13 30 17 2 23 28 29 15 8 5
10 15 13 6 10 32 31 16 16 21 25 27 31 45 60 83
110 120 123 123 123 122 122 120 117 110 112 106 89 77 58 37
0 0 0 0 0 0 0 22 54 23 0 9 22 31 31 31
31 31 31 31 30 28 25 23 24 29 31 32 32 32 32 32
31 32 32 32 32 32 31 31 31 31 31 31 29 23 22 29
18 23 14 0 0 2 4 9 29 29 18 13 6 0 0 0
0 0 7 31 33 34 34 36 40 38 18 9 9 3 2 4
12 5 2 1 0 0 10 26 15 2 29 28 24 15 4 2
7 11 10 45 105 119 115 99 75 70 71 79 87 104 113 117
118 118 122 122 122 122 122 122 122 121 121 111 85 60 38 32
0 0 0 0 0 0 0 6 39 4 0 0 0 22 31 31
31 31 31 30 30 28 26 26 29 31 31 31 32 31 32 32
32 32 31 31 32 31 32 32 31 32 31 31 29 23 19 22
19 25 12 0 0 9 16 16 29 25 15 14 12 1 0 0
0 0 7 29 31 32 33 35 39 38 29 24 24 22 20 20
21 17 14 12 10 10 16 27 18 2 28 26 18 12 0 3
10 9 42 116 119 100 111 117 122 120 115 114 114 112 114 113
115 117 122 123 123 122 122 122 122 122 121 98 62 55 58 30
0 0 0 0 0 0 0 0 7 0 0 0 2 14 31 31
31 31 30 30 31 29 28 28 31 32 32 32 33 32 32 33
32 32 32 32 32 32 32 32 31 32 31 31 29 23 21 24
21 27 12 0 0 3 13 21 31 23 15 16 11 0 0 0
0 0 7 27 27 29 29 29 29 28 28 28 29 28 27 28
27 25 24 23 20 19 22 30 24 5 27 21 15 4 0 2
6 4 84 117 95 118 119 109 123 124 123 122 114 109 110 111
115 118 123 123 123 122 122 122 122 123 120 85 64 60 46 21
0 0 0 0 0 0 1 5 0 0 0 1 4 14 33 32
32 31 31 31 31 30 30 30 32 31 31 31 32 32 33 32
32 32 32 32 31 32 32 32 32 31 30 30 29 24 22 27
23 28 13 0 0 0 1 17 32 22 14 16 13 4 2 1
0 0 9 30 26 27 27 27 26 26 28 29 31 33 32 29
28 28 31 34 31 28 28 32 28 7 18 16 16 2 1 0
0 10 104 109 115 125 124 123 123 124 124 124 118 107 108 112
114 121 123 123 123 122 123 122 122 122 120 93 86 83 53 10
0 0 0 0 0 0 2 10 0 0 0 2 5 18 32 31
31 31 31 31 31 31 31 32 32 32 32 32 33 33 32 32
32 32 32 32 32 33 32 32 32 31 30 30 29 23 21 27
24 29 12 0 0 0 0 13 33 23 15 15 22 25 25 21
20 19 25 34 27 28 28 28 30 32 33 31 33 37 38 29
27 27 33 38 35 33 33 31 25 8 15 11 14 5 0 0
0 13 108 106 122 124 124 123 122 124 124 124 121 107 108 112
117 122 123 123 123 122 122 122 123 122 121 99 94 90 45 1
0 0 0 0 0 0 3 24 18 0 0 1 6 23 32 32
32 32 32 32 32 32 32 33 33 32 33 33 33 33 32 33
33 33 32 32 32 32 32 33 32 32 32 32 31 25 22 28
24 29 11 0 0 0 0 13 34 23 14 16 27 39 39 38
39 40 41 38 30 28 28 29 32 36 36 31 33 37 38 30
25 23 31 36 34 34 34 33 27 8 12 3 14 4 0 0
0 9 103 113 125 124 124 101 90 125 124 123 123 108 106 113
120 123 123 123 123 123 123 123 123 122 121 102 91 82 34 0
0 0 0 0 0 0 8 61 60 0 0 1 6 27 32 32
32 31 32 32 32 33 33 33 33 33 33 33 33 33 32 33
33 33 32 32 33 33 32 32 32 32 32 32 31 25 22 27
22 29 10 0 0 0 0 12 33 23 14 17 26 36 38 38
39 40 41 37 20 15 14 14 19 27 36 32 29 25 26 24
21 21 25 22 16 18 22 24 25 9 16 1 11 3 0 0
0 4 85 119 124 124 121 83 101 121 124 124 124 114 107 115
120 123 123 124 123 123 122 122 123 123 123 110 89 75 29 0
0 0 0 0 0 14 15 102 100 17 0 3 11 30 32 32
32 32 31 32 32 32 33 33 32 32 32 32 32 32 32 32
33 33 32 32 32 32 32 32 32 31 32 32 31 26 22 27
23 29 10 0 0 0 0 11 31 20 13 16 17 22 22 23
24 26 27 26 6 0 0 0 0 9 31 30 16 4 5 7
10 21 25 10 0 0 3 9 20 11 19 1 4 0 0 0
0 1 55 122 125 124 115 106 120 119 124 124 124 119 110 114
118 121 123 123 123 123 123 123 123 123 123 116 91 76 34 0
0 0 6 8 21 23 40 121 113 71 2 0 10 30 31 30
31 31 31 30 32 32 33 33 33 33 33 32 32 33 33 32
32 32 32 32 32 32 32 31 31 31 31 31 31 25 22 27
23 29 10 0 0 0 0 10 31 21 13 16 19 23 24 23
22 22 22 21 4 0 0 0 0 7 30 25 4 0 0 0
4 21 25 9 0 0 0 5 17 11 18 2 1 0 0 0
0 2 21 117 123 125 109 120 116 119 124 124 124 121 114 114
118 120 123 123 123 123 123 123 123 123 123 121 99 84 55 2
0 3 9 27 40 14 82 123 119 106 41 0 12 32 29 24
23 22 21 21 23 29 33 32 32 32 32 32 32 32 32 32
32 32 32 31 32 32 31 31 31 31 31 31 31 26 21 26
27 26 9 0 0 0 0 11 34 22 11 15 20 26 27 27
27 27 27 23 6 0 0 0 0 9 29 18 0 0 0 0
1 22 25 8 0 0 0 3 15 13 10 1 0 0 0 0
1 1 6 100 122 124 113 125 116 120 124 124 123 121 117 120
118 120 121 123 123 122 123 123 123 123 123 123 114 88 73 22
0 6 10 38 26 28 115 122 121 116 93 18 16 31 27 12
7 7 8 7 11 26 33 33 32 32 32 32 32 32 31 31
31 30 31 30 32 32 31 31 32 31 31 31 31 27 21 25
26 21 12 7 4 3 2 14 31 21 14 17 22 28 29 28
29 29 30 24 5 0 0 0 0 4 25 14 0 0 0 0
1 22 24 8 0 0 0 2 15 13 2 0 0 0 0 0
2 0 1 71 122 123 111 125 121 120 123 124 123 122 118 120
120 118 120 122 123 123 123 122 122 122 122 122 121 108 85 64
15 3 9 26 15 70 120 122 122 119 110 62 23 31 27 10
6 6 6 5 9 26 33 33 33 32 32 32 32 31 31 31
31 30 32 31 31 32 31 31 31 31 31 31 31 27 21 24
25 23 23 23 21 21 19 22 26 23 22 23 24 26 27 27
27 27 28 24 7 0 0 0 1 3 24 11 0 0 0 0
1 22 23 7 0 0 0 0 13 12 5 1 0 0 0 0
2 0 0 42 119 123 117 123 124 119 120 124 123 122 120 119
120 119 119 121 122 122 122 122 123 123 123 123 122 122 116 96
68 32 17 36 59 96 119 120 122 122 119 88 37 30 25 9
5 6 5 5 9 25 33 33 33 33 32 32 32 31 31 31
31 31 31 30 30 31 31 31 31 31 31 32 31 27 21 24
23 24 24 23 24 24 24 23 24 24 24 24 25 25 25 25
26 25 26 25 16 1 0 0 1 1 21 10 0 0 0 0
1 22 24 9 0 0 0 0 13 11 8 5 0 0 0 1
3 1 0 26 94 124 124 124 124 124 124 124 124 123 122 121
119 120 122 121 123 123 123 122 123 123 123 123 123 122 122 119
106 88 72 74 85 119 122 122 122 122 119 91 44 30 25 9
5 5 5 6 7 24 33 33 33 32 32 32 31 31 31 31
31 31 31 31 31 31 32 32 31 31 31 31 31 27 20 23
22 22 22 22 22 22 22 22 23 23 23 22 22 23 23 23
23 23 25 24 17 0 0 0 0 1 21 11 0 0 0 0
0 19 24 9 0 0 0 0 12 13 3 5 0 0 1 0
4 2 0 16 71 111 125 124 124 124 124 124 123 123 122 122
121 120 120 121 122 122 122 123 123 123 123 123 123 123 122 121
111 94 77 84 118 122 122 121 117 115 109 76 37 30 27 11
7 7 8 8 9 21 30 32 31 31 31 31 31 30 30 31
31 31 31 30 29 28 30 30 31 31 31 31 31 28 22 23
8 9 8 9 8 8 9 9 9 9 9 9 10 10 11 12
13 15 20 23 17 0 0 0 0 0 21 12 0 0 0 0
0 18 25 8 0 0 0 0 11 16 0 4 0 0 3 1
6 5 0 9 62 95 111 123 124 124 124 124 124 124 123 122
121 119 121 122 123 123 123 123 123 123 123 123 122 122 123 120
110 92 75 82 106 118 107 82 63 89 82 44 31 31 28 15
11 12 11 12 12 22 31 32 33 32 31 32 32 31 31 31
32 32 31 17 8 7 10 23 32 31 31 31 31 28 22 22
0 0 0 0 0 0 0 0 0 0 0 0 0 0 0 0
0 1 16 23 19 1 0 0 0 1 21 16 1 0 1 1
1 18 26 14 6 5 5 7 19 20 1 4 1 0 3 7
6 7 0 5 55 93 97 100 118 124 123 124 123 124 123 122
121 121 121 122 122 122 123 123 123 123 123 123 123 123 122 118
106 85 80 100 89 83 82 80 85 72 32 28 32 31 28 14
8 9 8 9 9 20 31 33 33 33 33 32 33 32 31 31
32 31 30 8 0 0 0 17 31 31 31 31 31 28 22 23
0 0 0 0 0 0 0 0 0 0 0 0 0 0 0 0
0 1 18 24 22 14 9 11 17 16 24 27 21 20 21 21
22 31 29 24 27 28 29 32 36 29 13 11 1 1 4 12
6 6 6 2 44 84 97 100 108 101 93 119 121 120 120 119
122 122 122 123 123 122 123 123 123 123 123 123 122 122 121 114
101 79 91 109 105 102 100 91 54 17 10 27 32 31 28 12
7 7 7 7 8 21 33 33 32 33 32 33 32 32 32 31
31 31 29 6 0 0 0 12 31 31 31 30 30 28 22 22
0 0 0 0 0 0 0 0 0 0 0 0 0 0 0 0
0 0 17 24 24 28 29 31 31 28 27 31 39 37 36 37
39 40 33 23 31 34 37 41 43 37 25 22 4 2 2 9
3 5 14 6 34 73 90 99 117 119 104 113 116 115 117 120
122 119 122 122 122 122 122 123 122 123 123 123 123 122 119 112
98 79 105 105 99 92 88 68 48 10 9 26 31 32 29 14
7 7 8 7 7 20 32 33 32 32 33 31 32 32 32 32
31 31 28 4 0 0 0 7 30 31 30 31 31 29 22 22
0 0 0 0 0 0 0 0 0 0 0 0 0 0 0 0
0 0 16 25 23 27 31 33 33 27 22 25 33 34 34 34
35 36 33 23 26 30 33 34 34 32 26 24 13 0 0 5
1 0 10 11 22 64 83 97 119 124 115 113 110 111 118 118
121 122 122 122 122 122 122 122 122 123 122 122 122 121 115 111
91 89 106 98 94 94 85 55 40 6 8 27 32 32 29 14
6 6 6 6 7 19 32 32 32 32 32 32 32 32 31 28
18 16 14 1 0 0 0 5 30 31 31 30 30 29 22 21
0 0 0 0 0 0 0 0 0 0 0 0 0 0 0 0
0 0 15 24 22 24 26 29 32 28 23 21 21 22 22 22
22 23 25 22 23 26 27 25 22 24 26 26 20 3 0 3
3 1 8 11 17 49 72 91 117 123 116 109 107 108 116 117
120 121 122 122 122 122 122 123 123 123 122 122 122 121 115 109
83 101 106 107 108 106 94 59 32 3 8 26 31 32 29 13
6 7 7 7 7 20 32 33 32 32 32 32 32 32 31 14
0 0 0 0 0 0 0 5 30 30 30 31 31 29 22 21
0 0 0 0 0 0 0 0 0 0 0 0 0 0 0 0
0 0 13 25 22 19 16 17 21 20 19 21 19 19 21 23
23 23 26 27 29 31 31 28 23 24 25 25 23 5 0 2
4 0 0 9 17 39 65 84 114 122 116 108 105 110 115 118
120 121 122 121 122 122 122 122 122 123 122 122 122 118 115 105
87 104 114 118 104 92 82 70 36 4 8 26 31 32 28 13
5 6 6 6 7 20 32 32 32 32 33 32 32 31 30 8
0 0 0 0 0 0 0 4 29 30 30 30 30 28 22 21
0 0 0 0 0 0 0 0 0 0 0 0 0 0 0 0
0 0 11 25 22 11 1 1 3 5 11 22 24 29 30 34
34 24 23 25 26 31 35 31 25 24 25 25 25 11 0 1
1 2 0 6 17 36 61 78 109 119 117 107 105 110 112 113
118 118 122 122 123 123 123 122 122 122 122 123 120 118 116 105
88 100 102 81 69 67 58 48 17 4 7 25 30 32 29 14
6 6 7 6 7 19 32 32 32 32 32 32 32 32 30 14
0 0 0 0 0 0 0 4 29 30 30 30 30 28 23 20
0 0 0 0 0 0 0 0 0 0 0 0 0 0 0 0
0 0 9 24 21 10 0 0 0 0 10 23 25 32 31 32
32 9 4 5 7 12 30 33 26 25 25 25 25 18 2 0
0 0 1 4 14 40 57 75 106 118 118 109 103 106 107 113
117 118 120 122 122 122 123 122 122 122 122 122 119 118 115 102
59 54 80 85 99 85 48 11 5 4 8 25 30 31 29 15
8 9 8 7 8 19 32 32 32 32 33 32 32 31 31 25
3 0 0 0 0 0 0 2 21 31 30 30 29 28 24 21
0 0 0 0 0 0 0 0 0 0 0 0 0 0 0 0
0 0 8 24 21 10 0 0 0 0 10 23 23 30 19 12
22 5 0 0 0 2 25 33 26 26 25 26 25 23 11 1
0 0 0 1 9 37 55 70 103 117 118 112 106 102 104 111
116 115 120 122 122 122 122 122 122 122 123 122 120 119 115 90
58 44 108 93 115 112 65 3 4 3 7 24 30 32 31 26
23 24 19 21 23 27 32 32 32 32 32 32 31 30 20 22
6 0 0 0 0 0 0 0 8 30 30 30 30 28 24 22
0 0 0 0 0 0 0 0 0 0 0 0 0 0 0 0
0 0 6 23 21 11 0 0 0 0 11 23 23 29 13 1
18 5 0 0 0 1 22 33 27 25 26 25 25 24 19 2
0 0 0 1 13 33 56 69 102 117 120 115 108 105 105 108
111 117 118 120 121 121 122 121 122 121 122 122 121 120 112 91
97 70 74 38 35 62 37 3 4 4 6 24 29 30 31 31
31 31 30 30 31 31 33 32 34 33 32 32 31 19 2 0
6 5 0 0 0 0 0 0 7 30 30 29 30 28 23 21
0 0 0 0 0 0 0 0 0 0 0 0 0 0 0 0
0 0 4 22 21 13 0 0 0 0 12 22 22 30 14 1
16 6 0 0 0 0 19 32 27 25 25 25 25 25 24 7
1 0 0 6 31 45 54 64 99 119 121 116 111 105 106 108
107 112 113 116 120 118 122 119 119 120 119 120 120 117 108 102
109 112 96 82 73 42 21 4 4 3 6 22 28 29 30 30
31 32 32 32 32 29 26 26 24 22 20 20 12 1 0 0
4 4 0 0 0 0 0 0 2 25 30 29 29 27 23 20
0 0 0 0 0 0 0 0 0 0 0 0 0 0 0 0
0 0 4 21 20 12 0 0 0 0 11 22 23 30 13 1
15 6 0 0 0 0 17 32 26 25 25 25 25 25 24 12
1 0 0 3 23 45 56 63 97 119 122 118 111 108 102 103
104 109 111 110 113 114 117 115 118 119 115 117 117 113 108 108
111 115 115 103 87 64 45 12 3 4 8 23 27 27 28 30
31 31 32 30 22 7 4 49 23 1 1 1 0 0 0 4
0 0 0 0 0 0 0 0 0 19 29 28 28 27 23 20
0 0 0 0 0 0 0 0 0 0 0 0 0 0 0 0
0 0 3 21 20 14 0 0 0 0 9 22 23 30 13 0
15 9 0 0 0 0 16 31 26 24 25 24 24 25 24 21
10 0 0 1 18 47 59 61 95 117 122 120 115 104 101 102
101 105 108 111 113 113 113 114 114 114 116 115 114 113 113 113
113 113 114 111 97 76 56 24 3 9 15 23 25 26 26 29
30 30 30 29 15 0 44 120 97 10 2 16 0 0 1 10
0 0 0 0 0 0 0 0 0 3 16 16 22 27 24 20
0 0 0 0 0 0 0 0 0 0 0 0 0 0 0 0
0 0 3 20 20 14 1 0 2 0 9 23 25 31 17 2
14 11 1 0 0 0 15 30 25 25 26 25 25 25 25 24
21 8 3 5 23 39 57 64 95 117 122 120 117 111 106 100
99 99 103 106 108 109 111 111 111 112 113 114 112 107 110 114
114 112 109 105 93 68 49 20 1 12 18 22 25 25 27 28
29 29 20 18 7 1 52 90 85 17 8 18 12 8 12 17
8 5 3 2 1 1 1 0 0 0 0 0 16 28 24 22
0 0 0 0 0 0 0 0 0 0 0 0 0 0 0 0
0 0 2 20 21 15 2 0 6 8 10 25 25 32 22 7
13 10 3 5 2 0 13 30 26 25 25 25 25 25 25 24
23 14 5 3 20 37 56 63 92 114 121 120 116 113 105 100
97 99 102 105 107 107 109 111 108 109 112 114 110 109 110 112
110 110 108 101 77 45 30 13 2 13 19 22 24 24 26 27
30 28 11 11 11 11 15 17 18 18 20 21 24 22 22 21
19 15 13 10 8 6 5 4 4 4 4 5 20 31 28 24
0 0 0 0 0 0 0 0 0 0 0 0 0 0 0 0
0 0 2 19 20 19 17 16 22 24 25 31 27 33 22 13
14 14 9 10 6 4 15 26 25 25 26 26 26 26 25 24
18 13 11 8 29 44 60 66 90 113 120 123 120 114 108 107
101 96 99 99 102 101 105 105 107 107 110 111 110 109 109 108
110 107 107 97 71 47 27 13 2 13 19 22 23 24 26 28
30 30 12 9 9 10 10 10 10 11 13 14 16 14 13 12
8 5 4 2 0 6 26 29 30 32 33 34 39 41 38 33
0 0 0 0 0 0 0 0 0 0 0 0 0 0 0 0
0 0 2 19 21 22 34 38 38 39 40 38 31 31 17 11
15 20 18 18 18 17 19 22 24 25 25 25 26 25 25 24
21 18 19 14 33 46 61 64 89 111 120 121 118 113 110 105
105 100 99 98 98 102 102 101 102 104 107 108 110 110 109 107
108 106 105 95 70 47 24 15 3 14 20 22 23 24 25 28
30 30 20 4 0 0 0 0 0 0 0 0 0 0 0 0
0 0 0 0 0 18 49 50 50 49 48 47 44 43 40 34
0 0 0 0 0 0 0 0 0 0 0 0 0 0 0 0
0 0 2 19 20 22 36 41 41 40 40 40 33 32 13 5
14 23 21 21 21 21 22 22 24 26 27 26 26 27 26 25
25 24 23 23 45 57 65 66 88 112 122 122 118 116 112 109
106 102 101 98 101 102 99 102 102 102 104 103 106 108 106 110
110 105 105 95 72 47 24 16 3 13 20 22 23 24 26 28
31 31 21 1 0 0 0 0 0 0 0 0 0 0 0 0
0 0 0 0 0 30 47 47 47 46 43 39 40 38 34 32
0 0 0 0 0 0 0 0 0 0 0 0 0 0 0 0
0 0 1 20 20 19 24 26 25 24 25 22 24 29 12 1
12 24 24 25 25 25 25 25 25 26 26 25 26 26 26 25
25 25 24 33 61 73 76 68 85 109 122 124 119 116 111 104
105 104 104 99 103 101 100 100 101 98 98 98 101 104 103 106
107 106 102 94 76 48 25 18 4 13 21 22 23 25 25 27
29 30 14 0 0 0 0 0 0 0 0 0 0 0 0 0
0 0 0 0 2 29 34 34 39 35 33 26 28 28 24 26
0 0 0 0 0 0 0 0 0 0 0 0 0 0 0 0
0 0 1 18 20 17 14 13 14 13 14 13 19 30 13 0
11 24 24 25 25 25 25 25 25 25 25 26 26 26 26 26
26 25 26 44 71 83 81 69 80 105 120 124 121 114 110 106
106 103 102 99 102 101 102 100 97 95 91 88 96 94 99 102
104 103 101 91 74 49 25 18 4 11 21 22 23 24 25 27
28 28 9 0 0 0 0 0 0 0 0 0 0 0 0 0
0 0 0 0 0 6 5 5 27 28 25 22 20 22 21 25
0 0 0 0 0 0 0 0 0 0 0 0 0 0 0 0
0 0 1 19 20 17 15 15 14 14 14 13 19 30 18 11
19 25 24 24 25 25 24 25 25 25 25 25 25 25 25 25
25 25 27 55 79 88 84 71 79 101 118 123 120 116 114 108
107 104 103 103 102 100 97 95 95 91 83 77 77 82 90 96
99 97 93 86 64 48 24 18 4 11 21 22 23 23 24 25
26 23 2 0 0 0 0 0 0 0 0 0 0 0 0 0
0 0 0 0 0 0 0 0 15 31 29 27 26 26 25 24
0 0 0 0 0 0 0 0 0 0 0 0 0 0 0 0
0 0 4 21 21 18 17 17 17 17 16 14 20 31 29 29
32 27 23 24 23 24 24 23 24 24 24 24 25 25 25 25
26 28 23 64 84 91 86 72 74 98 115 117 117 114 112 112
108 106 105 102 101 93 92 94 91 86 84 76 66 71 75 87
88 87 84 77 56 39 22 18 4 10 20 22 23 23 24 24
26 16 0 0 0 0 0 0 0 0 0 0 0 0 0 0
0 0 0 0 0 0 0 0 8 29 29 28 27 26 25 25
0 0 0 0 0 1 1 2 3 3 4 5 6 6 8 8
9 10 14 20 19 17 17 18 19 18 18 14 18 24 23 25
26 23 22 23 24 24 24 24 24 23 24 24 24 24 24 24
29 25 26 74 89 93 85 73 74 97 112 118 116 110 107 111
110 107 109 103 99 95 90 85 85 77 74 68 66 63 65 67
70 74 73 55 40 24 21 17 4 8 20 22 22 23 22 23
22 5 0 0 0 0 0 0 0 0 0 0 0 0 0 0
0 0 0 0 0 0 0 0 2 25 26 25 24 25 23 23
7 8 10 11 12 12 14 13 14 14 15 15 16 16 16 17
17 17 17 17 18 17 18 18 18 18 17 15 16 18 17 18
20 20 21 23 23 23 23 23 23 22 23 23 23 23 24 25
36 32 41 81 92 95 88 74 73 94 107 117 116 110 111 111
111 108 105 101 96 89 80 73 63 60 57 56 48 45 41 37
40 43 36 26 21 20 20 16 5 7 18 20 21 22 22 22
18 2 0 0 0 0 0 0 0 2 0 0 0 0 0 0
0 0 0 8 0 0 0 0 0 18 20 15 17 17 15 15
12 10 14 15 16 16 16 16 16 16 16 16 16 17 17 16
16 16 16 16 16 16 18 18 18 18 18 16 18 19 18 18
19 20 22 22 22 22 22 23 23 22 23 23 23 23 24 27
37 45 60 85 95 97 90 75 74 94 109 115 115 113 111 108
111 112 110 102 92 81 69 56 43 32 27 23 21 17 13 14
14 11 10 10 15 18 18 16 5 6 19 21 21 22 22 21
10 0 0 0 0 0 0 0 0 0 0 0 0 0 0 0
0 0 1 18 0 0 0 0 0 13 17 15 16 15 12 15
12 10 14 15 15 15 16 16 16 21 23 11 6 8 12 12
7 10 15 15 15 17 19 18 18 18 18 16 18 18 19 19
20 21 21 22 22 22 22 22 22 22 22 22 22 23 23 33
40 57 68 91 98 98 93 77 73 92 108 117 115 111 111 111
114 113 110 105 95 81 64 45 31 12 4 0 0 0 2 14
14 10 9 9 11 17 19 17 5 5 18 21 21 22 21 20
7 0 0 0 0 0 0 0 0 0 0 0 0 0 0 0
0 0 9 21 0 0 0 0 0 8 20 22 22 20 19 21
9 8 9 10 10 10 10 13 29 39 24 2 0 0 0 1
0 0 6 11 10 10 9 8 9 13 18 17 18 19 20 20
20 20 21 22 22 22 22 22 22 22 22 22 22 22 24 37
39 59 74 93 99 100 94 79 74 90 109 119 120 111 111 110
113 114 113 107 97 84 65 51 53 41 19 14 22 24 20 23
16 10 9 7 8 15 17 16 8 8 19 21 21 21 21 21
3 0 0 0 0 0 0 4 0 0 0 0 0 0 0 0
0 0 12 16 0 0 0 0 0 3 22 24 24 24 23 23
0 0 0 0 0 2 4 23 45 32 5 0 0 0 0 0
0 0 0 0 0 0 0 0 0 1 12 18 18 19 20 19
19 20 20 21 21 22 22 22 22 21 21 22 21 20 26 37
41 56 78 89 101 102 96 80 74 88 108 119 121 116 110 110
115 114 112 107 96 77 62 61 69 70 38 32 30 31 27 24
19 11 8 6 8 14 17 16 14 15 19 21 21 21 22 23
1 0 0 0 0 0 0 9 0 0 0 0 0 0 0 0
0 0 3 3 0 0 0 0 0 0 10 19 21 20 20 21
0 0 0 0 0 5 13 37 40 11 0 0 0 0 0 0
0 0 0 0 0 0 0 0 0 0 6 19 20 20 20 20
20 20 21 21 21 21 21 21 21 21 21 21 21 18 28 36
42 53 82 69 103 103 97 81 75 87 105 117 121 120 115 113
115 116 111 102 87 68 65 77 90 79 47 34 35 32 27 25
21 13 14 13 14 18 19 17 18 18 18 19 19 20 20 12
0 0 0 0 0 0 0 0 0 0 0 0 0 0 0 0
0 0 0 0 0 0 0 0 0 0 1 8 13 11 14 20
0 0 0 0 0 4 24 38 20 1 0 0 0 0 0 0
0 0 0 0 0 0 0 0 0 0 7 19 20 19 19 20
20 20 20 21 21 21 21 21 21 21 21 21 20 21 31 36
43 46 92 52 94 104 97 81 76 86 103 117 123 121 115 112
112 112 108 100 80 69 81 96 102 64 53 34 37 32 29 23
20 10 8 18 28 30 30 27 24 20 14 12 12 11 11 3
0 0 0 0 0 0 0 0 0 0 0 0 0 0 0 0
0 0 0 0 0 0 0 0 0 0 5 8 15 16 17 21
0 0 1 1 0 4 32 30 3 0 1 2 0 0 0 0
0 0 0 0 0 0 0 0 0 1 14 20 20 20 19 20
20 20 20 21 21 20 21 20 21 20 20 20 22 32 33 35
46 46 84 60 72 101 96 82 77 85 102 115 121 121 114 108
110 108 103 91 75 80 95 105 89 73 52 36 36 34 30 23
21 21 8 12 32 38 39 38 37 37 28 15 5 1 0 0
0 0 0 0 0 0 0 0 0 0 0 0 0 0 0 0
0 0 0 0 0 0 0 0 0 0 9 13 16 22 23 22
0 1 6 6 0 8 36 22 2 10 17 15 1 0 0 0
0 0 0 0 0 0 0 0 0 9 16 17 17 17 19 19
20 20 20 20 20 21 21 23 24 23 25 26 31 35 33 35
43 49 71 84 43 90 94 84 80 84 99 114 121 121 113 104
104 101 93 79 78 95 109 107 80 88 43 35 38 33 29 23
22 19 15 15 30 41 41 34 38 37 40 41 36 26 12 3
0 0 0 0 0 0 0 0 0 0 0 0 0 0 0 0
0 0 0 0 0 0 0 0 0 0 5 9 9 23 23 23
8 8 7 4 0 12 32 11 6 22 24 21 6 0 4 7
0 0 0 0 0 0 0 0 0 1 3 3 3 6 17 19
20 20 19 20 22 25 29 30 31 33 30 26 31 34 33 34
40 45 57 103 48 59 91 86 81 83 100 113 122 122 111 98
96 91 85 84 97 109 114 89 90 67 38 39 35 34 29 24
22 19 19 21 32 35 38 35 33 36 37 35 38 40 40 37
27 15 4 0 0 0 0 0 0 0 0 0 0 0 0 0
0 0 0 0 0 0 0 0 0 0 0 0 1 18 23 23
9 5 2 1 0 18 29 4 4 24 24 22 5 1 16 20
11 1 0 0 0 0 0 0 0 0 0 0 0 0 13 18
19 22 28 30 31 30 31 35 42 43 33 22 27 33 33 33
37 45 48 100 84 38 77 87 83 84 99 112 121 122 112 93
85 90 96 100 108 115 103 90 94 46 41 38 33 34 27 22
20 12 24 23 31 38 38 36 33 34 38 40 46 42 48 41
40 42 39 31 20 10 3 0 0 0 0 0 0 0 0 0
0 0 0 0 0 0 0 0 0 0 0 0 0 9 21 22
6 0 0 0 0 22 30 3 4 20 12 17 9 12 26 23
16 4 0 0 0 0 0 0 0 0 0 0 0 0 11 21
31 37 37 34 32 33 39 47 44 41 31 21 30 33 31 34
36 46 51 84 108 53 53 87 85 86 98 111 121 122 112 87
80 98 106 110 114 105 88 105 96 36 36 43 34 32 26 22
20 8 27 37 37 38 38 37 37 36 35 39 42 42 40 40
37 38 38 38 39 40 39 33 17 3 0 0 0 0 0 0
0 0 0 0 0 0 0 0 0 0 0 0 0 2 16 16
4 0 0 0 0 24 31 4 3 9 0 10 17 23 29 21
14 7 0 0 0 0 0 0 0 0 0 1 7 15 30 36
36 41 41 34 31 36 41 44 42 42 35 29 34 33 29 32
34 40 46 66 117 86 38 76 89 89 97 112 122 122 113 83
79 102 110 113 105 92 93 111 89 17 1 28 40 28 26 21
20 4 26 37 40 41 40 37 37 33 36 38 39 40 39 42
39 40 40 39 38 40 39 39 40 38 19 4 0 0 0 0
0 0 0 0 0 0 0 0 0 0 0 0 0 0 14 15
4 2 1 0 0 25 34 10 5 3 0 12 23 32 26 8
9 9 0 0 0 0 0 0 0 7 21 30 35 35 35 36
38 39 37 29 24 34 40 37 38 40 38 34 32 33 27 32
35 43 48 56 115 111 54 54 93 92 95 109 121 122 111 81
78 100 110 109 96 94 104 110 44 2 0 4 41 30 26 22
22 6 23 35 38 39 38 36 37 32 36 35 33 35 38 38
39 38 39 36 39 37 39 39 39 39 41 37 15 0 0 0
0 0 0 0 0 0 0 0 0 0 0 0 0 0 11 15
9 8 7 0 0 21 35 18 9 1 0 14 27 31 15 0
6 9 0 0 0 0 0 7 21 34 37 36 37 34 36 36
36 37 36 28 26 39 37 36 36 38 38 36 33 32 29 31
34 45 43 37 117 121 90 44 91 96 93 107 121 123 111 78
78 95 107 100 103 103 119 83 26 0 0 0 37 31 25 22
23 13 28 34 37 38 36 33 38 34 38 34 32 34 38 38
39 38 38 35 37 38 38 38 39 38 37 33 27 10 0 0
0 0 0 0 0 0 0 0 0 0 0 0 0 1 9 15
13 11 10 0 0 16 29 24 8 0 0 16 27 19 4 0
5 6 0 0 0 2 23 34 35 36 34 34 34 33 36 35
36 35 34 28 24 38 39 34 32 37 37 34 32 33 28 32
33 45 22 19 116 118 100 60 79 102 91 105 121 123 109 77
81 90 101 104 105 117 103 46 9 0 0 0 40 32 24 25
28 22 33 36 37 38 37 32 36 38 36 35 32 32 37 38
36 36 37 37 38 37 39 39 39 37 36 28 21 29 4 0
0 0 0 0 0 0 0 0 0 0 0 0 0 1 6 13
13 12 10 1 0 13 29 28 9 0 0 11 11 2 0 0
0 0 0 0 3 28 37 36 34 33 33 33 33 31 35 35
34 36 35 29 23 37 40 33 30 32 38 34 31 34 27 31
31 44 20 8 111 117 103 91 68 105 92 100 120 123 105 74
73 78 86 89 116 110 48 19 7 0 0 3 39 34 26 28
37 31 35 35 38 38 36 34 31 39 36 34 33 35 38 39
37 37 39 38 36 36 36 36 37 36 36 25 22 33 19 0
0 0 0 0 0 0 0 0 0 0 0 0 0 2 7 14
16 12 9 1 0 4 11 9 1 0 0 0 0 0 0 0
0 0 0 2 27 36 35 33 34 33 35 34 34 32 33 33
36 36 34 30 24 35 37 34 28 29 36 33 33 36 26 29
29 40 27 2 99 125 101 109 82 96 97 95 116 122 98 66
61 56 51 90 114 57 20 18 11 3 9 9 36 40 32 37
42 32 36 36 38 38 38 36 31 34 36 32 32 36 37 37
38 39 39 38 38 39 39 39 39 37 35 22 23 33 21 11
0 0 0 0 0 0 0 0 0 0 0 0 0 3 6 15
3 1 0 0 0 0 0 0 0 0 0 0 0 0 0 0
0 0 0 18 30 26 33 31 34 35 36 37 36 35 36 38
37 37 35 33 27 33 36 35 29 29 35 35 33 37 33 33
27 34 30 0 68 128 113 111 100 72 91 88 113 121 88 55
49 44 49 63 49 22 17 17 13 24 23 10 26 47 38 37
45 36 38 38 38 39 39 38 36 30 36 30 31 33 38 38
40 38 39 38 38 40 39 37 38 35 35 22 24 33 23 26
2 0 0 0 0 0 0 0 0 0 0 0 0 2 5 15
0 0 0 0 0 0 0 0 0 0 0 0 0 0 0 0
1 0 10 29 30 21 31 32 31 35 39 38 34 35 38 40
38 35 37 34 33 34 35 35 30 30 35 35 36 38 34 35
31 34 28 0 27 119 124 120 104 56 60 73 102 107 61 40
23 11 20 26 22 21 19 19 21 36 31 16 18 45 48 39
42 40 38 40 40 40 41 39 38 31 33 33 35 32 34 37
37 38 37 38 38 37 39 37 38 39 38 23 26 35 25 31
11 0 0 0 0 0 0 0 0 0 0 0 0 1 4 14
0 0 0 0 0 0 1 9 10 6 3 9 9 9 1 4
5 1 24 29 30 21 30 33 31 35 37 35 35 39 41 41
39 36 37 37 37 32 34 36 32 30 35 34 36 39 35 39
36 37 25 0 9 60 112 124 116 67 43 47 72 80 45 27
27 31 34 35 34 30 26 30 32 37 31 31 25 26 47 51
48 46 48 35 41 43 41 41 42 35 32 38 37 36 32 36
37 38 39 38 40 40 37 38 39 39 37 24 28 34 27 34
22 11 0 0 0 0 0 0 0 0 0 0 0 1 5 12
0 0 0 0 0 0 0 12 12 19 22 17 19 17 11 13
3 10 29 32 31 23 29 35 29 34 35 37 39 41 41 42
40 35 38 42 42 37 31 34 33 33 37 34 38 38 34 39
41 44 14 4 18 23 36 65 75 30 19 26 45 54 41 30
33 36 37 37 32 28 33 37 34 38 32 36 35 32 29 36
41 40 39 24 42 44 43 44 43 40 34 37 39 40 35 33
37 41 40 40 39 38 38 40 39 38 35 23 27 36 27 34
31 33 12 0 0 0 0 0 0 0 0 0 0 1 9 12
0 0 0 0 0 0 0 4 13 25 28 24 26 25 22 13
3 26 29 32 29 22 30 36 28 31 35 37 40 40 40 40
36 33 38 41 42 36 29 33 33 34 36 37 38 38 38 42
45 32 20 24 24 23 24 25 27 10 11 21 23 41 38 33
34 36 40 39 32 26 36 36 35 37 34 35 36 37 36 34
33 32 34 34 43 42 43 42 41 39 36 36 39 41 41 33
35 39 40 39 38 37 36 39 40 39 36 22 27 34 29 38
37 33 52 4 0 0 0 0 0 0 0 0 0 2 12 14
0 0 0 0 0 0 0 0 10 17 25 30 29 29 18 2
21 33 32 34 30 24 31 36 31 33 36 39 41 41 41 39
39 35 37 41 42 34 31 34 34 36 38 41 45 43 43 39
31 30 35 37 36 35 32 28 35 29 36 30 29 43 36 34
39 41 43 39 29 29 37 37 39 39 37 38 39 40 39 39
36 36 39 37 39 40 41 44 42 40 39 36 39 42 40 36
35 38 41 40 36 36 37 39 41 42 37 22 28 34 34 41
38 45 99 48 0 0 0 0 0 0 0 0 0 4 13 14
0 0 0 0 0 0 0 0 1 8 17 22 20 13 2 6
36 35 32 33 31 23 29 36 33 34 36 39 41 42 39 37
31 35 38 41 40 36 33 35 35 36 37 39 40 30 31 35
38 39 41 39 40 40 38 32 35 34 37 28 36 97 60 39
42 45 47 38 30 36 41 39 38 39 37 38 40 40 41 40
39 37 39 41 41 42 42 42 42 40 40 38 35 38 41 37
32 38 41 42 40 38 42 41 42 42 37 23 29 35 38 39
43 68 114 96 11 0 0 0 0 0 0 0 0 2 10 9
0 0 0 0 0 0 0 0 0 0 6 6 7 0 2 30
38 37 32 31 32 23 31 40 35 36 38 40 40 40 39 35
29 36 38 40 42 36 33 37 40 37 37 39 41 41 42 41
42 41 41 41 42 42 41 36 34 39 36 31 56 128 125 109
90 90 89 47 32 42 42 52 80 99 95 80 65 49 42 39
39 39 39 41 43 43 43 41 42 42 42 40 37 35 38 38
33 37 39 39 39 39 39 39 42 43 36 23 29 37 37 41
53 109 122 106 55 0 0 0 0 0 0 0 0 4 13 11
0 0 0 0 0 0 0 0 0 1 2 3 1 0 8 50
39 38 35 32 30 25 32 39 37 37 38 42 41 40 40 36
31 38 40 41 43 38 34 39 41 36 37 42 44 44 43 41
43 41 41 42 43 44 43 39 35 41 37 32 82 129 127 126
127 127 126 112 85 88 105 123 125 124 124 125 124 122 110 93
67 45 39 41 43 41 42 41 41 41 41 41 38 38 38 38
33 36 39 48 58 67 75 87 99 109 96 31 26 40 37 43
94 124 121 104 98 10 0 0 0 0 0 0 0 3 13 10
0 0 0 0 0 0 0 0 2 5 6 5 5 12 31 95
43 38 38 34 29 25 32 39 38 38 40 42 42 41 41 34
31 40 41 42 44 39 36 40 42 39 40 41 42 45 51 50
50 47 42 43 44 44 44 43 46 75 89 44 106 128 127 126
127 126 126 125 125 125 125 125 124 125 125 125 125 125 125 125
124 120 106 91 93 96 99 100 95 83 68 47 39 41 41 39
40 69 104 120 124 123 123 123 123 123 122 44 25 38 42 74
124 124 120 105 107 52 0 0 0 0 0 0 0 2 11 7
0 0 0 0 0 0 0 0 2 5 5 5 13 30 72 120
88 38 35 35 30 26 31 40 39 38 39 41 41 41 40 34
34 42 42 41 44 40 37 40 44 43 39 42 79 114 125 124
124 121 117 109 103 103 108 114 122 126 126 113 122 126 126 126
126 125 125 124 125 124 125 125 125 124 124 124 124 124 124 124
125 124 124 124 124 124 124 124 124 123 123 119 95 74 72 82
110 123 122 123 123 123 123 123 123 122 122 48 26 41 57 117
122 122 119 111 110 101 11 0 0 0 0 0 0 1 9 5
0 0 0 0 0 0 0 0 2 7 6 7 22 38 102 123
125 65 35 36 31 26 48 75 69 59 54 54 52 50 44 36
35 43 43 53 63 51 39 41 45 44 51 99 128 129 128 128
127 127 127 127 127 127 126 126 127 127 126 125 126 126 126 126
126 125 125 125 125 125 124 124 124 124 125 124 125 124 125 124
124 123 124 123 123 124 123 123 124 123 124 123 123 123 123 123
123 123 122 123 123 122 122 122 122 122 121 52 27 45 105 123
122 122 121 118 116 112 53 0 0 0 0 0 0 0 1 1
0 0 2 0 0 0 0 0 1 9 10 17 33 60 122 126
128 109 45 35 34 28 100 130 129 127 127 127 125 123 118 96
72 75 102 125 128 123 103 79 70 82 116 127 127 126 127 127
127 127 126 126 126 127 127 127 127 127 126 125 125 124 124 125
125 124 124 124 125 124 124 124 124 124 124 124 124 124 124 123
123 123 123 123 123 123 123 123 123 123 123 123 123 123 123 122
122 122 121 121 122 122 122 122 121 122 121 53 33 78 123 122
121 121 121 121 119 110 96 7 0 0 0 0 0 0 0 0
0 0 1 1 0 0 0 0 0 3 11 24 38 92 129 128
128 127 87 38 30 29 100 129 128 128 128 127 128 128 128 128
127 127 127 127 127 128 127 127 127 126 127 127 127 127 127 126
126 126 125 126 125 125 125 125 126 125 125 125 125 125 125 111
125 124 124 125 124 124 124 124 124 124 124 124 124 124 124 123
123 123 123 123 123 122 122 123 122 122 122 122 122 122 122 122
122 122 122 121 122 121 122 121 121 121 121 58 42 117 122 121
121 121 120 121 121 112 106 44 0 0 0 0 0 0 0 0
0 0 0 0 0 0 0 0 0 0 6 21 44 115 129 128
128 128 123 63 34 27 99 130 128 128 128 128 127 127 127 127
127 128 128 127 127 127 127 127 127 127 127 126 127 126 126 126
126 126 126 126 126 127 126 125 126 125 124 125 125 124 123 107
125 124 124 124 124 124 124 124 124 124 124 124 124 123 123 123
123 123 123 123 122 123 122 122 122 122 123 122 122 122 122 122
122 121 121 121 122 122 121 121 121 121 121 96 93 121 121 121
120 120 120 120 120 115 104 90 3 0 0 0 0 0 0 0
1 0 0 0 0 0 0 0 0 0 0 9 55 127 129 128
128 128 128 115 47 29 94 129 128 128 127 128 127 128 127 127
128 127 127 126 127 127 127 127 126 126 127 126 127 126 126 127
126 125 126 125 126 125 125 125 125 124 125 125 125 114 105 105
120 125 124 124 125 124 124 124 123 124 123 123 123 123 123 123
123 123 123 123 123 122 122 122 122 122 122 122 122 123 122 122
122 122 121 122 121 121 121 121 121 121 121 120 120 121 121 121
121 120 121 120 120 116 105 107 32 0 0 0 0 0 0 0
3 0 0 0 0 0 0 0 0 3 3 16 90 129 128 129
127 127 128 127 95 36 101 129 128 128 127 128 128 127 127 127
127 127 127 127 127 127 127 127 127 126 126 126 126 126 126 126
126 125 126 126 126 125 125 125 125 125 125 125 124 100 96 102
115 124 124 124 124 124 124 124 124 124 124 123 123 123 123 124
123 123 123 123 122 122 122 122 122 122 123 122 122 123 122 122
122 122 122 122 122 122 122 121 121 121 121 120 120 121 121 120
121 121 120 120 120 115 109 110 79 0 0 0 0 0 0 0
2 0 0 0 0 0 0 0 0 7 11 40 118 129 129 129
128 128 129 128 127 103 125 127 127 128 127 128 127 128 128 128
128 128 127 127 127 127 127 126 127 127 127 127 126 127 126 127
127 126 125 126 126 125 125 125 125 124 125 125 125 111 75 96
123 125 125 125 124 124 124 124 124 123 124 123 123 123 123 123
123 123 124 123 123 122 122 122 123 122 122 123 123 123 123 122
122 122 123 122 122 121 122 122 122 122 121 117 119 120 121 121
121 120 121 120 120 115 115 112 107 22 0 0 0 0 8 2
0 0 0 0 0 0 0 0 0 4 13 79 130 128 129 128
129 128 128 127 127 128 128 127 128 128 127 128 128 128 127 127
127 127 127 127 127 127 127 127 127 126 127 126 126 127 126 127
127 127 126 126 126 126 126 125 125 124 124 124 124 125 100 107
125 125 124 124 124 124 124 124 124 124 124 123 124 124 123 123
123 123 124 123 122 122 122 122 122 122 122 122 123 122 123 122
122 122 122 122 122 122 122 122 122 121 121 111 119 121 121 121
121 121 121 120 120 117 119 116 110 67 0 0 0 1 8 3
0 0 0 0 0 0 0 0 0 5 36 120 130 129 130 130
129 129 129 129 129 128 128 127 127 128 128 127 127 127 128 128
128 127 128 127 127 127 127 127 127 127 127 127 127 127 127 126
127 127 126 126 126 126 125 126 125 125 124 125 125 125 125 125
125 125 125 125 125 124 124 124 124 125 124 124 124 124 124 124
123 124 124 124 124 123 123 123 123 123 122 123 123 123 123 122
122 122 122 122 122 122 122 122 122 121 121 110 119 121 121 121
121 121 121 121 120 121 120 119 112 103 14 0 0 0 0 0
0 0 0 0 0 0 0 0 0 6 87 131 129 128 128 128
128 129 128 128 128 129 128 128 128 128 128 128 128 128 128 127
127 127 127 127 127 127 127 127 127 127 127 127 127 127 126 127
127 127 126 126 126 126 126 125 125 126 125 125 125 125 125 125
125 124 125 125 124 124 124 124 125 124 125 124 124 124 124 123
123 123 123 123 124 123 123 123 123 123 123 123 123 123 123 123
123 123 122 122 122 122 122 122 122 122 121 113 119 122 122 121
122 121 121 121 120 120 120 120 116 110 58 0 0 0 0 0
