P2
128 120
153
39 43 51 53 53 50 45 38 38 37 37 37 37 37 37 36
36 35 35 34 34 33 33 32 32 32 31 31 30 30 29 29
28 28 28 27 26 26 26 25 25 25 24 24 23 23 22 22
22 22 22 25 28 27 28 27 20 20 19 25 25 25 24 23
22 23 21 21 21 18 22 23 25 24 24 25 25 25 25 25
25 24 26 26 26 27 27 27 28 28 29 28 28 29 30 29
30 30 31 31 31 31 32 32 32 33 32 33 32 32 33 33
33 32 32 33 33 33 33 33 33 33 33 33 33 32 32 33
6 14 23 31 39 50 50 38 38 37 37 37 37 36 36 35
35 35 35 34 34 33 33 33 32 31 31 31 30 30 29 29
28 28 28 27 27 26 26 25 26 25 24 24 24 23 23 23
22 22 23 25 28 28 28 27 19 20 19 24 25 24 24 23
23 24 22 22 21 19 22 22 25 24 24 25 25 25 25 26
26 26 27 26 27 27 27 27 28 28 28 28 28 29 30 30
30 30 30 31 31 32 33 32 33 33 32 32 32 32 33 33
33 33 33 33 33 33 33 32 32 32 33 32 33 34 34 32
0 0 0 0 1 41 50 39 38 37 37 37 37 36 36 36
35 35 34 34 34 33 33 32 32 32 32 31 30 30 30 29
29 28 28 27 27 27 26 26 25 25 25 25 24 24 23 23
23 23 24 25 29 29 28 27 20 21 21 23 25 25 25 24
23 24 22 22 22 18 22 21 25 25 26 26 27 26 26 26
26 26 27 27 27 27 28 28 28 28 29 29 29 29 30 30
30 30 30 30 30 31 32 32 33 33 33 32 32 33 33 33
32 32 33 33 32 33 33 33 33 33 33 32 32 32 32 33
0 0 0 0 0 38 50 38 37 37 37 36 36 36 36 35
36 35 34 35 34 33 33 33 32 32 31 31 31 30 29 29
29 28 27 27 27 26 26 26 26 25 25 25 24 23 23 23
23 23 24 26 30 29 29 28 20 20 23 23 26 25 25 24
23 25 22 22 22 19 23 24 26 25 26 26 26 26 26 26
27 27 27 27 27 27 27 28 28 29 29 29 30 30 30 30
30 31 31 32 32 31 32 32 32 32 33 32 31 31 32 32
32 31 32 33 32 32 32 33 32 32 33 33 33 33 32 33
3 7 0 0 0 37 50 38 38 37 37 37 36 36 36 36
35 34 34 34 34 33 33 33 33 32 32 31 31 31 30 30
29 28 28 28 27 27 27 26 26 25 26 25 24 24 24 24
23 23 24 25 30 30 29 28 21 21 24 23 27 25 26 24
24 25 23 23 23 20 23 24 26 26 26 26 27 27 27 27
27 27 27 28 27 28 28 28 29 29 30 30 30 30 30 30
30 31 31 32 32 31 31 31 31 30 31 32 32 33 33 34
33 33 32 32 33 32 33 32 32 33 33 32 33 33 32 32
8 8 1 0 0 35 49 38 37 37 37 36 36 36 36 35
36 35 35 34 34 33 33 32 32 32 32 31 30 30 30 30
29 29 29 29 27 28 28 27 27 25 26 25 25 25 24 24
24 24 25 26 30 29 29 28 21 21 26 21 25 25 25 24
24 25 24 22 23 20 23 24 26 26 26 27 28 27 27 27
27 27 27 27 28 28 29 29 29 29 30 30 30 30 30 30
30 31 31 31 31 31 31 32 32 33 32 33 32 33 33 32
33 34 32 31 32 32 33 32 33 33 33 31 32 32 32 32
0 3 1 0 0 35 49 38 37 37 36 36 36 36 35 35
35 35 34 34 33 34 33 33 32 33 32 31 31 30 30 30
29 28 28 28 28 27 27 26 27 26 26 26 26 25 25 24
24 24 25 26 30 30 30 29 21 21 27 21 26 26 25 25
25 25 24 24 23 20 22 23 26 26 27 26 27 27 28 28
28 27 28 28 28 29 29 29 30 30 30 30 29 29 29 30
31 30 31 32 32 32 32 32 32 32 32 33 32 33 33 33
33 33 32 31 33 32 32 32 32 32 32 32 32 31 32 32
0 4 8 0 0 35 47 37 37 37 37 36 36 36 36 35
36 35 34 34 34 34 34 33 32 32 31 31 31 30 30 30
29 29 29 29 28 28 27 27 27 26 26 25 25 25 25 24
24 25 25 27 30 31 30 29 22 22 28 21 27 27 26 25
25 23 24 24 23 21 23 23 27 27 27 27 27 27 28 28
28 28 28 28 29 29 29 29 29 29 29 30 30 30 30 31
31 32 33 32 33 33 33 33 33 32 33 33 33 32 32 33
33 33 32 32 32 33 32 32 32 33 32 32 32 32 32 32
1 2 5 0 0 35 47 38 37 37 36 36 36 35 36 35
34 34 35 34 34 33 33 33 33 32 32 31 31 31 31 30
30 29 29 29 28 28 28 27 27 27 27 26 26 25 25 24
25 24 25 27 30 31 30 29 22 22 29 22 27 27 27 27
26 24 25 24 24 21 23 25 28 28 28 28 28 28 28 29
28 29 29 29 29 29 29 29 30 30 30 30 31 32 31 31
31 31 32 32 33 33 34 33 34 33 32 33 33 33 33 32
32 33 32 32 32 32 32 32 32 32 33 33 32 32 33 32
0 1 3 4 5 37 47 38 37 37 37 36 36 36 36 35
35 34 34 34 34 34 33 33 32 32 33 31 31 31 30 30
29 29 29 29 28 28 28 27 28 27 27 27 26 26 26 25
25 25 26 27 31 32 31 30 22 21 30 22 27 27 27 26
26 24 25 24 24 22 24 25 28 28 28 28 28 28 28 28
28 28 28 29 30 29 30 30 29 30 30 31 31 31 31 31
32 32 34 32 33 33 33 33 33 33 33 33 32 33 33 32
32 33 33 32 33 33 32 33 32 32 32 33 33 33 32 32
27 22 17 13 17 40 46 38 37 37 37 36 36 36 36 36
35 35 35 34 34 34 33 33 33 32 32 32 32 31 30 30
30 29 30 29 29 28 28 28 27 27 27 26 26 26 25 25
25 25 26 27 31 32 31 30 23 22 31 24 26 28 27 27
26 24 25 25 24 23 24 25 28 27 28 28 28 28 28 29
29 30 30 30 31 29 30 30 30 30 31 31 31 30 32 32
33 32 34 33 32 33 33 32 33 33 32 33 32 33 33 33
32 33 33 32 33 33 33 33 33 32 33 32 32 32 31 30
32 34 37 38 38 41 41 37 37 37 37 36 36 35 35 35
35 35 34 34 34 34 33 33 33 33 32 32 31 31 31 30
30 30 30 29 29 29 29 28 28 27 27 27 27 25 26 25
25 25 26 27 31 32 32 31 23 22 31 25 25 27 27 27
27 25 26 25 25 23 24 25 28 28 28 28 29 29 29 30
29 29 29 30 31 29 30 30 30 31 31 31 31 32 33 32
33 33 34 32 33 33 33 33 33 33 33 32 32 32 33 33
33 33 33 33 33 33 33 32 31 31 31 31 32 32 32 32
22 25 29 32 34 36 37 37 38 37 37 37 36 36 36 35
35 35 34 34 34 34 33 33 33 32 33 32 32 31 31 31
30 30 30 30 29 29 29 28 27 27 28 27 26 26 26 26
25 25 25 26 29 30 29 29 23 22 32 27 24 28 28 27
27 26 26 25 25 23 24 26 29 29 29 29 30 29 30 30
30 30 31 31 31 31 31 31 31 31 31 32 32 32 32 33
33 33 34 33 34 33 34 34 33 33 33 33 33 33 33 33
33 33 31 31 31 32 32 32 32 33 33 31 31 32 31 31
13 14 15 17 19 23 27 31 34 36 37 37 37 37 36 36
35 35 35 34 34 34 34 33 33 33 32 32 32 32 31 31
31 30 30 30 29 29 29 28 28 28 28 27 27 25 24 23
24 21 15 21 19 13 5 5 6 10 24 26 23 29 28 27
27 26 27 26 26 24 24 27 30 29 29 29 30 30 30 30
30 30 31 31 32 30 31 31 31 32 32 32 32 33 33 33
33 33 33 33 33 33 33 33 33 33 33 33 33 32 32 32
32 32 33 33 33 32 32 31 33 32 33 31 31 31 31 31
14 13 14 13 13 14 14 15 16 17 21 25 28 32 33 35
36 35 35 35 35 34 34 34 34 33 33 32 32 32 31 31
31 30 30 30 29 29 29 28 29 28 27 26 26 25 25 14
6 5 5 3 3 9 18 15 10 6 3 3 9 18 27 28
27 26 27 26 26 25 24 26 28 29 29 29 30 30 30 30
30 30 31 31 33 31 31 31 31 32 32 32 33 33 33 34
33 33 34 33 33 33 33 33 33 33 32 32 32 33 33 33
33 33 32 33 32 32 32 32 32 33 33 31 32 32 32 32
23 22 21 20 18 16 14 14 14 14 14 15 12 11 16 31
36 35 35 35 34 34 34 34 34 34 33 33 33 33 32 32
31 30 31 30 30 29 29 29 29 29 27 22 14 6 0 0
1 2 5 7 13 13 14 20 9 3 2 2 4 4 11 24
28 27 28 26 26 26 24 28 29 29 30 30 31 30 31 30
30 31 31 31 33 32 32 32 32 32 33 32 33 34 33 33
33 33 33 34 33 33 33 33 33 33 34 33 33 33 33 33
33 32 32 32 32 31 32 32 32 32 33 31 32 32 32 32
43 46 48 44 42 29 19 20 17 14 13 13 12 9 13 29
36 35 36 35 34 33 34 34 34 33 33 33 33 32 31 31
32 31 30 30 32 37 34 31 30 26 19 7 0 0 0 0
0 0 0 0 4 17 23 21 17 8 1 0 0 0 1 7
16 18 26 26 26 26 25 28 29 31 30 30 31 30 31 31
31 31 32 31 33 32 32 32 32 32 32 32 33 33 32 32
33 32 32 32 33 33 33 33 32 32 33 33 33 33 33 33
33 33 33 32 32 32 33 32 32 32 33 31 31 32 32 31
48 48 51 51 50 37 30 37 39 31 30 25 19 12 14 28
36 35 36 35 34 39 38 37 36 35 34 33 33 32 32 31
32 31 30 30 37 44 41 36 33 23 8 1 0 0 0 0
0 0 1 0 0 1 9 15 19 9 1 1 0 0 3 6
4 4 4 17 26 26 25 27 29 31 30 30 31 31 31 31
31 31 32 32 32 32 31 31 32 32 33 33 32 32 32 33
33 32 33 32 32 32 33 33 33 32 34 32 33 33 33 33
33 32 33 32 32 32 33 32 32 32 32 31 32 32 31 32
37 42 46 50 51 39 36 41 44 39 46 46 41 15 14 29
36 35 36 35 36 46 45 43 40 38 37 36 34 33 33 32
31 31 31 30 36 42 39 35 30 18 0 0 0 3 5 4
7 8 11 7 3 3 2 5 10 21 13 2 0 0 0 1
12 22 13 6 7 23 25 28 29 31 31 31 31 32 32 31
31 32 31 31 32 32 32 32 32 33 33 34 33 33 33 32
33 33 33 33 32 33 33 33 32 33 33 32 33 32 32 32
32 32 32 32 32 32 32 33 32 32 33 32 32 32 31 31
5 9 14 20 32 41 39 43 45 46 50 50 47 19 16 31
38 37 36 35 36 47 46 43 41 41 44 43 39 39 38 34
32 32 31 31 33 29 30 28 25 5 0 0 0 0 0 0
0 5 3 7 11 10 14 17 7 7 12 8 1 1 0 0
2 7 10 9 4 3 21 29 30 31 31 31 31 31 31 31
32 32 31 32 32 32 32 32 32 32 33 34 33 33 33 33
33 33 33 33 33 33 33 33 33 33 34 33 33 33 34 33
32 33 33 32 32 32 32 32 32 32 32 32 32 32 32 31
0 0 2 3 12 41 39 42 44 47 49 50 48 22 16 33
40 38 39 38 38 39 33 39 42 45 46 44 30 28 34 36
37 37 36 33 27 13 13 8 4 0 0 0 0 0 0 0
0 0 0 0 3 6 4 6 13 7 1 4 4 2 0 0
1 3 14 6 7 6 2 22 29 31 31 31 31 32 32 32
32 32 31 32 31 32 32 32 32 33 33 34 33 33 34 33
33 33 33 34 33 34 33 33 33 32 33 34 33 33 32 32
32 33 33 32 32 32 32 33 33 33 33 32 33 32 32 31
0 0 11 10 15 39 28 34 39 46 47 47 46 23 16 33
41 34 36 40 44 25 0 7 23 29 32 38 14 0 3 7
13 18 26 24 14 5 0 0 0 0 0 0 0 0 1 3
0 0 0 0 0 0 7 12 3 3 2 2 0 6 4 0
4 5 7 10 8 3 0 8 29 31 31 31 32 32 33 32
33 32 32 32 33 32 32 33 33 32 33 34 34 34 33 33
33 33 33 33 34 33 33 32 32 33 34 33 33 32 32 32
32 32 33 33 33 33 33 33 33 33 33 31 32 31 31 30
0 0 11 10 17 36 2 3 8 15 23 25 39 25 16 30
40 39 37 42 47 28 0 0 8 12 12 28 14 0 0 0
0 0 3 6 2 0 0 0 0 0 2 4 4 0 0 2
3 3 2 3 3 0 0 7 15 10 4 3 2 0 1 10
5 8 13 11 9 8 0 0 18 32 32 32 32 33 32 32
32 32 32 32 32 33 33 32 33 33 32 34 34 34 33 34
34 34 34 34 34 34 33 33 33 33 34 33 33 32 32 32
32 33 33 32 33 33 32 33 33 32 32 31 31 31 31 31
0 0 1 0 13 37 1 0 0 0 0 0 25 26 15 7
9 16 26 36 42 29 0 0 3 4 7 26 17 0 0 0
0 0 0 3 1 0 0 0 0 0 0 0 6 6 3 0
1 7 14 11 10 11 10 1 4 5 7 5 7 2 0 1
12 12 7 17 6 7 2 0 1 26 33 32 33 33 33 33
33 32 33 33 33 34 33 33 33 33 34 34 34 34 34 34
34 34 34 34 34 34 34 34 34 34 35 33 34 33 33 34
33 33 33 34 34 34 33 33 33 34 33 32 33 32 32 31
0 1 2 0 13 36 1 0 0 0 0 0 25 27 15 2
0 0 0 1 6 19 0 0 0 0 1 22 14 0 0 0
1 3 0 1 0 0 0 0 0 0 0 0 2 1 2 5
3 1 3 8 9 0 9 21 5 1 5 4 2 4 3 2
0 12 15 5 16 5 2 0 0 6 33 33 33 34 33 32
33 33 33 33 33 34 34 34 33 34 34 35 34 35 34 35
34 35 35 35 35 35 34 34 35 34 34 34 34 35 35 34
34 35 34 34 35 34 33 33 33 33 33 33 33 33 33 32
11 11 11 0 12 37 2 0 6 8 0 0 24 28 15 2
0 0 0 0 0 12 0 0 0 0 0 25 17 0 0 0
10 9 0 0 0 0 0 0 0 0 0 0 3 20 10 1
4 8 3 0 5 14 11 7 9 3 4 8 8 1 2 0
0 1 10 11 11 14 6 0 0 0 18 33 33 34 33 34
34 34 34 34 34 34 34 34 34 35 35 35 35 35 35 35
36 35 36 35 35 35 34 35 34 34 35 35 35 35 35 34
34 34 35 35 34 34 35 34 34 34 34 34 34 34 35 34
1 4 5 0 12 37 2 2 1 15 0 0 24 28 15 2
0 0 0 0 0 10 0 0 0 0 0 25 20 0 0 1
11 6 1 0 0 0 0 0 0 0 0 0 0 0 15 19
12 5 6 10 1 8 18 18 19 14 2 1 6 10 0 0
1 2 1 6 12 15 7 7 1 0 1 28 35 35 35 34
34 34 34 35 35 35 35 35 36 36 36 36 36 35 35 36
36 36 36 36 36 36 35 36 36 35 35 36 35 36 36 35
35 34 35 36 36 36 35 36 36 36 36 36 35 36 35 35
4 5 0 0 13 35 1 1 0 3 0 0 26 28 16 3
0 0 8 1 0 9 0 0 0 0 1 26 23 0 0 2
8 2 0 1 0 0 0 0 0 0 1 3 0 0 0 2
12 8 3 4 18 8 9 14 17 16 13 8 4 2 0 0
2 2 2 1 7 9 5 4 2 0 0 12 34 36 35 35
35 35 36 35 36 36 36 36 36 36 36 36 36 36 37 36
37 37 37 38 37 37 37 36 36 36 37 37 36 36 37 36
36 35 36 37 37 37 37 37 36 35 34 33 34 35 35 35
1 6 0 0 13 33 0 2 2 0 0 0 27 27 16 3
7 4 5 0 0 10 1 0 0 0 4 27 25 0 0 4
3 1 3 1 0 0 0 0 0 2 6 6 2 5 1 0
3 19 7 2 2 12 9 5 6 10 11 10 4 1 2 5
5 1 5 12 9 10 7 3 2 0 0 1 30 36 36 36
35 35 36 36 37 36 37 37 36 36 36 36 36 36 37 37
38 38 37 38 36 37 37 36 37 37 36 37 37 36 36 36
35 35 36 36 34 35 34 36 34 30 28 26 24 21 18 16
31 30 23 17 26 36 4 2 2 1 0 0 28 27 16 6
6 0 1 1 0 13 5 0 1 0 3 28 39 16 9 6
0 4 11 6 0 0 0 0 0 8 11 10 12 7 6 10
6 2 7 8 3 2 4 7 1 2 4 4 1 2 7 1
2 2 3 5 7 4 0 2 1 0 0 0 13 35 35 35
36 36 36 35 37 36 36 37 36 36 36 36 36 37 37 37
37 37 37 38 37 37 37 36 36 36 35 34 34 34 35 33
33 32 32 30 26 24 21 18 17 15 14 13 13 14 15 15
35 43 46 47 43 51 43 25 31 31 29 26 37 25 16 5
0 0 0 0 0 24 38 27 25 20 12 27 48 28 17 5
0 8 5 2 0 0 0 0 2 12 12 10 13 10 14 17
11 8 6 3 3 2 4 2 8 3 1 0 0 0 0 1
4 2 6 7 6 5 3 0 0 0 0 0 2 32 36 35
36 36 36 35 37 37 36 36 36 36 36 36 36 36 36 36
37 37 36 37 36 36 35 34 34 34 32 31 29 27 24 22
20 18 17 16 15 15 16 16 18 18 19 19 20 21 21 21
18 18 15 14 46 62 53 33 42 48 48 48 46 24 16 5
0 0 0 0 0 27 53 44 46 49 49 48 42 12 4 0
2 4 6 0 0 0 0 0 4 15 11 14 17 22 21 23
19 13 14 8 3 0 0 1 0 6 0 1 1 0 0 0
5 6 10 20 11 3 7 3 0 0 0 0 0 24 35 36
36 36 35 34 36 36 35 36 36 36 36 36 35 37 36 36
37 35 36 34 32 31 36 29 22 20 19 18 17 17 18 18
19 19 20 21 22 22 23 24 25 25 25 26 26 26 26 26
8 6 3 2 49 61 44 32 43 48 49 52 49 24 17 12
6 2 0 0 0 26 48 43 50 53 54 45 35 13 2 0
1 3 2 0 0 0 0 0 9 27 35 40 36 24 31 37
28 15 14 8 6 2 0 0 0 3 3 0 0 1 0 0
0 10 12 20 13 6 1 0 0 0 0 0 0 7 35 35
35 35 34 34 35 36 36 36 36 36 36 36 35 33 31 28
26 23 22 21 19 18 31 26 15 19 20 22 22 23 24 24
26 26 27 27 27 28 28 29 30 29 29 30 30 31 30 30
1 0 0 2 46 54 25 13 25 28 32 35 44 25 18 30
44 39 32 25 20 36 37 41 48 51 54 47 37 10 0 0
0 2 0 0 1 0 0 5 26 54 66 70 65 45 46 47
43 29 17 16 14 14 2 0 0 0 1 1 2 3 2 0
1 7 18 12 14 3 2 0 0 0 0 0 0 0 24 33
31 32 35 34 34 34 33 29 22 27 26 23 22 21 21 20
21 22 22 23 23 23 26 23 20 25 27 27 28 28 29 30
30 30 29 30 31 31 31 31 31 31 32 32 33 32 32 30
0 0 0 2 44 53 18 0 0 0 0 1 27 27 18 33
50 51 49 48 49 49 25 19 28 34 39 37 36 9 0 0
0 0 1 1 0 0 0 12 47 71 82 78 87 79 57 62
60 45 32 24 17 12 9 4 0 0 0 1 1 4 5 3
4 9 11 15 8 6 1 0 0 0 0 0 0 0 10 29
21 25 28 26 25 23 19 7 12 21 22 23 23 24 25 26
28 28 28 29 29 28 30 29 24 30 31 32 32 32 33 32
33 33 33 33 33 34 33 33 33 33 33 33 33 32 33 32
0 0 0 0 39 54 18 0 0 0 0 0 24 28 17 30
48 50 49 50 51 49 13 0 1 2 9 17 33 6 1 0
0 9 7 0 2 0 0 22 66 81 88 88 88 94 82 60
65 58 44 39 31 11 5 3 2 2 3 2 0 3 8 14
14 19 13 3 5 3 0 1 0 0 0 0 0 0 2 20
18 19 21 22 22 19 11 19 27 28 29 29 29 30 31 32
32 32 32 32 33 30 18 15 24 32 33 34 35 34 34 35
34 34 34 34 34 34 33 33 34 33 34 34 34 33 33 33
0 0 0 0 32 51 16 0 0 0 17 23 28 32 24 28
37 39 40 41 45 45 10 0 0 0 0 7 36 6 0 0
0 3 2 0 0 0 3 33 72 82 87 93 92 97 97 91
67 72 57 49 36 22 5 7 4 2 1 2 5 2 4 15
12 17 15 9 0 0 0 0 0 0 0 0 0 0 0 17
25 25 27 28 20 20 20 31 32 32 33 34 33 33 34 34
34 34 34 34 33 29 8 3 19 33 36 35 35 34 35 35
35 35 35 35 35 34 34 35 34 33 34 35 33 33 33 32
1 0 0 0 29 47 14 0 0 0 21 28 26 28 23 24
24 27 33 32 39 44 9 0 0 0 0 1 34 2 0 0
1 0 0 1 1 0 7 41 76 83 87 93 99 95 98 105
90 65 68 54 43 31 17 6 8 5 5 3 10 11 11 13
12 9 7 2 1 1 0 0 0 0 0 0 0 0 0 11
31 30 32 24 23 27 27 34 34 35 34 35 35 35 35 36
35 31 21 15 14 26 9 4 16 34 36 36 35 36 35 35
36 35 36 35 35 34 34 34 34 33 34 34 33 34 33 32
1 0 0 0 31 47 12 0 0 0 8 15 20 25 22 23
24 27 32 33 40 43 8 0 0 0 0 2 34 1 0 0
0 0 1 5 0 0 11 50 78 84 85 94 99 93 105 115
115 100 69 61 63 38 24 10 3 3 3 1 13 14 18 9
10 16 7 1 1 1 0 0 0 0 0 0 0 0 0 2
31 34 28 23 34 33 17 21 20 18 16 24 36 34 33 33
13 3 1 1 3 17 4 0 16 33 36 36 35 35 35 35
35 35 35 35 35 34 33 34 34 33 33 34 34 33 34 33
0 0 0 0 34 47 12 0 1 0 0 0 10 21 20 19
9 13 19 24 31 34 8 0 0 0 0 3 35 0 0 0
0 0 3 0 3 1 17 56 83 85 87 96 102 100 110 125
123 118 91 67 66 52 26 21 5 5 10 3 2 7 10 14
23 6 12 2 0 0 1 0 0 0 0 0 0 0 0 0
29 33 22 30 29 37 11 1 0 0 3 16 24 11 5 4
1 4 0 0 0 3 6 0 15 33 35 37 36 36 35 35
35 35 35 34 35 35 33 34 34 34 34 34 34 34 33 33
0 0 0 0 36 48 11 0 1 3 0 0 12 27 26 18
0 0 0 0 0 11 8 0 0 0 0 2 33 0 0 0
2 1 0 2 2 0 24 62 84 84 86 97 103 109 115 116
121 127 114 94 71 63 44 25 17 7 16 17 10 7 7 5
9 9 1 2 0 0 0 1 0 0 0 0 0 0 0 0
20 24 13 4 1 33 22 0 0 0 0 0 0 0 0 0
0 14 2 0 0 0 9 0 19 34 36 36 36 36 35 35
35 35 35 35 35 34 34 34 34 34 34 34 34 34 33 33
8 5 3 3 38 48 12 0 0 6 0 0 12 34 28 20
0 0 0 0 0 7 8 0 3 9 1 1 32 0 0 0
2 0 0 1 2 1 25 65 82 82 84 97 106 111 114 110
122 124 117 107 85 61 55 36 28 16 11 21 12 11 11 8
1 1 0 0 0 0 0 0 0 0 0 0 0 0 0 0
12 8 12 16 4 3 2 0 0 0 0 0 0 0 0 0
0 3 0 0 0 0 16 8 25 34 36 36 36 35 35 35
35 35 35 34 35 34 34 34 34 34 33 33 34 34 33 33
33 35 36 30 40 42 20 1 0 9 5 1 11 36 28 20
0 0 5 2 0 6 9 0 11 16 5 2 30 0 0 1
0 0 0 3 5 1 24 63 80 81 84 94 104 113 119 117
117 117 118 109 98 75 56 48 39 28 15 18 17 8 7 8
4 0 0 0 0 0 0 0 0 0 0 0 0 0 0 0
5 17 31 20 22 29 25 24 24 23 22 15 14 12 0 0
0 0 0 0 0 3 26 26 31 36 36 36 36 35 36 35
35 35 35 35 35 34 35 34 34 34 34 34 34 33 34 33
12 14 20 19 26 39 36 26 19 23 26 20 23 38 25 19
0 2 17 10 1 5 15 6 18 18 13 5 30 0 0 0
0 0 1 8 1 2 20 61 77 80 82 93 103 114 121 122
121 125 123 112 108 86 68 53 39 33 24 12 13 10 5 8
5 0 0 0 0 0 0 0 0 0 0 0 0 0 0 0
5 19 23 32 36 36 36 36 37 36 36 34 15 5 0 0
0 3 9 9 9 21 29 31 35 36 36 36 36 36 36 35
36 35 36 35 35 35 35 34 34 34 34 33 33 29 33 32
0 0 10 12 20 41 37 25 24 32 39 43 45 44 26 19
1 4 16 9 2 5 37 37 41 39 40 38 35 0 0 0
0 0 5 4 2 5 22 60 75 79 82 96 105 115 119 122
126 128 123 114 106 91 79 63 44 36 29 20 9 11 9 7
3 3 0 0 0 0 0 0 0 0 0 0 0 0 0 0
21 34 36 35 36 35 36 36 36 36 36 22 1 0 1 0
0 17 35 34 34 32 32 33 36 35 36 36 36 35 36 36
35 35 35 34 35 35 35 34 34 34 34 33 33 32 34 33
1 2 6 13 27 42 34 5 0 5 12 26 47 43 26 20
3 1 4 1 0 4 40 43 46 45 48 54 39 3 0 0
0 0 3 1 6 7 22 56 75 78 84 93 103 113 120 120
124 120 120 114 103 93 87 75 56 42 29 24 14 16 9 13
9 1 1 0 0 0 0 0 0 0 0 0 0 0 0 0
15 37 36 36 35 36 36 37 37 36 36 19 0 0 15 1
0 16 36 36 35 34 34 35 35 35 36 35 36 36 35 36
35 35 35 35 35 35 35 35 34 34 34 34 33 33 33 33
16 31 15 7 25 43 33 2 1 18 20 26 46 38 25 24
16 1 1 0 0 3 37 41 43 43 48 51 41 9 0 0
0 0 0 0 5 6 22 57 75 77 82 92 101 108 121 123
129 127 125 116 107 97 88 79 72 55 33 31 18 13 28 31
27 19 7 0 0 0 0 0 0 0 0 0 0 0 0 0
10 37 36 37 37 36 36 36 36 36 36 21 0 0 2 0
0 14 36 36 35 34 35 36 35 35 35 36 36 36 35 35
35 35 35 34 35 35 34 34 34 33 34 33 33 33 33 33
29 32 5 0 23 45 33 1 0 13 28 34 44 32 24 25
14 0 0 0 0 3 36 37 38 38 38 35 29 11 0 0
0 0 0 0 3 5 22 59 73 77 80 91 101 109 121 125
127 127 120 117 110 102 92 78 77 70 53 34 27 17 23 42
59 38 29 7 0 0 0 0 0 0 0 0 0 0 0 0
2 33 37 36 36 36 36 36 35 35 35 20 0 0 0 0
0 11 36 35 36 35 36 37 36 36 36 36 36 35 35 35
35 35 34 34 35 35 34 34 34 34 33 33 33 33 32 31
24 37 3 0 24 47 33 1 0 1 9 31 46 30 25 25
14 3 3 1 0 3 38 37 37 37 35 34 31 14 0 0
0 0 0 0 1 2 20 58 71 77 80 92 103 108 118 126
126 129 121 120 112 102 99 88 77 79 69 44 37 26 16 35
52 58 33 23 8 0 0 0 0 0 0 0 0 0 0 0
0 26 36 36 36 36 36 35 30 24 21 13 0 0 1 0
0 9 36 36 36 36 37 36 36 36 36 36 36 35 35 35
35 34 34 34 34 34 34 34 33 33 34 33 33 33 31 32
11 18 2 1 26 47 35 1 0 0 0 26 47 31 25 25
33 36 33 31 32 32 45 40 38 38 39 40 39 22 0 0
0 0 0 0 0 0 19 58 71 75 80 94 102 110 120 130
131 130 122 115 108 106 101 100 87 76 81 58 54 32 33 19
38 30 20 20 16 5 4 0 0 0 0 0 0 0 0 0
0 24 37 37 36 37 36 29 7 7 0 0 0 0 1 1
0 8 36 36 37 37 37 36 36 36 35 36 36 35 35 35
35 34 34 34 34 34 34 34 33 33 32 32 33 33 31 31
0 0 0 0 23 47 33 0 0 0 0 23 48 31 26 26
45 54 53 52 54 55 53 42 37 36 36 38 41 27 0 0
0 0 0 0 0 0 23 57 70 73 79 87 85 95 116 125
126 121 115 109 108 107 100 99 98 79 80 73 59 51 33 18
5 4 9 16 27 21 17 13 8 2 9 28 3 0 0 0
0 26 37 36 37 37 36 33 32 31 21 11 0 0 0 2
1 7 27 35 35 36 37 36 36 36 36 36 35 35 35 35
34 34 34 34 35 34 34 34 33 34 33 33 33 33 32 32
0 0 0 0 20 47 32 0 0 0 0 21 48 31 24 26
40 50 50 50 51 53 53 29 15 12 11 14 22 32 0 0
0 0 0 0 0 0 27 58 70 71 72 66 61 71 86 89
95 93 94 98 103 106 100 102 97 92 85 77 76 57 29 10
4 12 23 35 28 33 44 51 57 59 50 24 0 0 0 0
0 21 36 37 37 37 35 38 47 39 13 4 0 0 0 1
0 0 7 13 24 34 37 37 36 36 36 36 35 35 35 35
34 34 34 35 35 34 34 34 34 34 34 34 33 33 32 31
0 0 0 0 19 47 32 0 0 0 0 19 45 29 25 25
28 31 32 32 33 34 36 17 0 0 0 0 6 32 0 0
0 0 0 0 0 0 30 60 71 67 57 52 54 62 59 47
44 40 45 59 77 93 92 97 95 93 86 83 73 52 29 22
25 20 26 27 29 25 15 10 4 2 1 0 0 0 0 0
3 28 33 29 27 25 22 15 7 7 3 0 0 0 0 1
0 0 7 3 11 34 37 37 37 36 36 36 35 35 34 35
34 34 34 34 35 34 34 34 34 34 34 34 33 32 31 30
0 0 0 0 19 49 33 0 0 0 0 18 46 30 24 25
32 38 37 37 35 35 35 17 3 0 0 0 15 36 4 0
0 0 0 0 0 0 24 61 68 61 45 47 53 54 40 36
32 27 25 26 41 63 76 83 89 90 86 82 63 48 37 18
14 11 8 6 6 9 12 8 6 0 0 0 0 0 0 3
15 28 14 8 10 9 9 5 1 0 0 0 0 0 0 1
0 0 7 5 8 36 38 38 38 37 37 37 36 35 36 36
35 35 34 35 35 35 35 35 35 35 34 33 33 32 30 29
10 13 17 21 34 46 31 1 0 0 0 19 50 33 23 25
34 41 41 41 40 41 40 19 4 0 0 0 10 35 7 0
0 0 0 0 0 0 7 47 66 56 46 46 48 57 52 52
53 56 52 45 41 41 54 67 82 90 89 80 60 32 14 7
1 0 0 2 2 3 6 6 3 0 0 0 3 0 2 15
29 24 9 4 5 5 5 3 2 9 3 2 0 0 0 0
0 0 6 6 5 34 38 38 38 37 36 36 36 35 36 35
35 35 34 34 35 36 36 35 35 34 34 33 31 29 28 28
40 42 45 46 45 37 27 16 14 12 8 24 46 31 24 28
34 39 41 41 41 42 43 20 1 0 0 6 6 30 13 0
0 0 0 0 0 0 1 20 43 39 32 29 23 24 20 16
12 10 12 17 27 38 49 66 86 97 95 77 27 22 2 0
0 0 0 1 4 5 6 5 2 0 0 2 13 2 26 35
23 5 5 6 8 8 9 10 8 6 7 16 0 0 0 0
0 0 6 7 6 33 39 38 37 37 36 36 35 34 35 35
35 35 34 35 35 35 35 35 35 33 34 33 31 30 30 29
42 43 44 43 43 41 40 40 39 39 37 38 41 38 37 38
38 39 39 39 39 39 40 30 7 0 0 5 3 30 16 0
0 0 0 0 0 0 0 39 37 16 8 4 2 1 0 0
0 0 0 0 1 10 29 39 65 94 97 46 24 2 0 0
0 0 0 4 6 6 6 3 0 0 0 2 17 0 56 72
27 10 11 10 12 11 11 11 5 2 5 19 1 0 0 0
0 0 7 8 13 29 37 37 36 37 37 36 36 34 35 36
35 32 28 32 34 35 34 34 34 34 33 32 32 30 29 27
37 41 41 40 40 40 41 40 40 41 40 40 40 39 39 39
38 38 39 38 38 37 37 36 14 0 0 6 5 30 16 0
0 0 0 0 0 0 5 1 1 0 0 0 0 0 0 0
0 0 0 0 0 4 4 8 33 52 64 25 7 0 0 0
0 0 0 3 4 3 2 0 0 2 2 3 26 2 62 91
18 8 7 6 4 3 6 12 9 1 8 11 0 0 0 5
4 2 4 11 15 28 37 39 38 38 37 37 37 36 35 36
19 3 7 3 25 35 34 34 34 33 32 32 31 30 28 27
36 40 40 40 40 39 40 40 39 39 39 39 39 37 38 37
37 37 37 36 36 36 36 36 15 0 0 0 1 29 18 0
0 0 0 0 0 2 32 13 0 0 1 0 0 0 0 0
0 0 0 0 0 3 6 2 5 14 13 8 7 0 0 0
0 0 0 1 0 0 0 0 0 1 2 3 37 28 78 90
6 0 0 0 0 0 6 13 12 10 7 3 0 0 0 1
1 0 8 10 11 28 38 38 38 37 37 37 37 36 36 36
14 0 1 0 21 35 35 35 34 33 32 31 31 30 29 29
34 40 37 27 23 22 21 20 19 18 17 16 15 14 13 13
13 12 12 12 12 18 32 36 20 0 0 0 0 25 21 0
0 0 0 0 0 6 48 52 0 4 5 2 0 0 0 0
0 0 0 0 1 5 3 2 2 1 2 2 6 0 0 0
0 0 0 0 0 0 0 0 0 1 3 3 49 72 96 85
3 0 0 0 0 0 9 13 13 11 11 10 11 12 14 14
15 17 21 22 21 24 27 27 24 26 36 37 38 37 36 35
11 0 0 0 13 35 35 33 33 33 32 32 32 31 31 31
33 40 33 9 0 0 0 0 0 0 0 0 0 0 0 0
0 0 0 0 0 8 36 37 27 8 8 16 17 27 32 20
17 3 0 0 0 8 52 61 1 8 11 7 0 0 0 0
0 0 0 0 1 2 0 0 2 14 44 36 4 3 0 0
0 0 0 0 0 0 0 0 0 0 2 5 68 96 96 76
1 0 0 0 0 0 12 13 13 13 34 20 24 29 31 26
29 31 29 27 23 16 40 57 17 19 34 37 37 35 33 32
9 0 0 0 9 35 33 34 33 32 32 31 32 32 31 32
31 39 35 13 0 0 0 0 0 0 0 0 0 0 0 0
0 0 0 0 0 6 36 38 35 35 37 39 37 34 36 44
39 40 9 1 0 14 56 64 3 11 14 6 0 0 0 0
0 0 0 0 0 0 0 0 7 72 112 101 28 4 0 0
0 0 0 0 0 0 0 0 0 0 1 12 73 94 93 59
0 0 0 0 0 2 14 12 14 13 24 20 27 32 49 60
69 78 79 59 23 26 93 121 21 15 32 36 35 12 5 5
1 0 0 0 8 34 33 33 31 31 32 32 32 32 32 31
30 39 36 17 0 0 0 0 0 0 0 0 0 0 0 0
0 0 0 0 0 4 35 38 35 38 42 42 36 29 29 39
40 72 51 33 5 27 57 69 4 1 3 2 0 0 0 0
0 0 0 0 0 0 0 0 18 102 115 114 77 6 1 0
0 0 0 0 0 0 0 0 0 0 2 30 76 98 104 42
0 0 0 0 0 4 14 13 15 11 25 22 30 33 61 83
87 91 91 65 25 51 133 119 74 17 31 36 29 0 0 0
0 0 0 0 6 33 33 32 32 32 32 32 33 32 32 30
29 39 37 21 0 0 0 0 0 0 0 0 0 0 0 0
0 0 0 0 0 2 33 39 35 34 36 40 37 30 26 23
22 55 85 71 31 33 56 70 14 2 3 2 0 0 0 0
0 0 0 0 0 0 0 2 41 108 113 110 92 34 3 0
0 0 0 3 1 0 0 0 0 0 12 63 74 93 102 30
0 0 0 0 0 8 14 13 17 6 19 29 34 37 36 42
43 37 37 34 30 36 51 33 32 24 28 36 30 2 0 0
0 0 0 0 4 32 33 32 31 32 33 33 34 33 32 31
28 38 37 25 1 0 0 0 0 0 0 0 0 0 0 0
0 0 0 0 0 1 30 39 33 25 24 27 27 24 27 24
23 37 90 88 64 43 54 67 28 0 3 2 0 0 0 0
0 0 0 0 0 0 1 6 75 109 113 110 95 76 10 2
0 0 7 11 3 0 0 0 0 1 38 86 70 95 91 14
0 0 0 0 0 10 13 14 16 2 10 31 36 36 26 26
32 21 21 24 27 28 27 26 27 24 27 37 35 12 0 0
0 0 0 0 3 25 32 32 32 32 33 33 33 34 33 31
27 37 37 26 3 0 0 0 0 0 0 0 0 0 0 0
0 0 0 0 0 0 26 40 32 11 2 3 7 11 27 28
35 38 80 91 88 86 61 63 48 0 2 1 0 0 0 0
0 0 0 0 2 6 7 23 96 107 116 114 97 88 56 6
5 6 12 10 2 1 7 13 12 28 87 84 70 100 69 1
0 0 0 0 1 13 14 15 12 0 7 17 32 35 27 26
24 21 20 21 28 29 28 27 26 23 25 34 32 27 2 0
0 0 0 0 0 11 34 34 34 34 34 33 33 34 33 32
26 36 38 27 4 0 0 0 0 0 0 0 0 0 0 0
0 0 0 0 0 0 23 40 33 10 0 0 0 10 30 28
37 34 58 94 94 99 82 57 68 5 1 0 0 0 2 2
0 0 0 5 10 9 11 59 97 106 118 119 102 87 81 38
8 17 24 10 18 24 27 30 56 92 91 80 72 101 39 0
0 0 0 0 3 13 13 14 7 0 1 4 29 35 27 24
20 21 20 22 29 29 29 27 25 22 20 22 3 2 5 0
0 0 0 0 0 9 33 32 33 33 33 33 33 31 31 29
25 36 37 29 5 0 0 0 0 0 0 0 0 0 0 0
0 0 0 0 0 0 19 40 33 12 0 0 0 7 31 26
34 20 22 93 96 99 99 57 73 37 2 0 0 0 9 10
8 14 15 19 17 18 28 84 93 107 123 122 110 93 82 71
37 28 32 29 38 51 74 97 101 95 90 77 53 42 4 0
0 0 0 0 6 14 13 15 4 0 1 5 33 34 27 23
20 22 20 23 29 28 28 26 26 22 6 1 0 0 3 0
0 0 0 0 0 1 26 32 32 32 32 32 32 30 30 28
24 35 37 30 8 0 0 0 0 0 0 0 0 0 0 0
0 0 0 0 0 0 17 40 33 15 0 0 0 8 32 27
35 19 6 77 99 99 100 64 69 78 33 17 0 1 13 16
17 11 8 4 21 25 58 81 91 108 126 133 124 99 84 72
75 93 112 118 121 124 122 115 105 93 86 74 35 0 0 0
0 0 0 0 10 14 14 15 2 2 17 17 37 33 28 21
18 21 19 23 28 28 28 27 26 24 2 0 1 6 0 0
0 0 0 0 0 0 16 30 30 31 32 32 31 29 29 28
23 35 37 30 9 0 0 0 0 0 0 0 0 0 0 0
0 0 0 0 0 0 13 39 34 17 0 0 0 9 32 27
35 20 4 51 105 101 98 72 64 81 83 46 20 17 14 3
1 5 11 23 41 60 67 77 92 115 129 128 126 105 95 79
75 81 107 124 125 123 118 115 99 89 82 73 30 0 0 0
0 0 0 0 13 14 15 14 0 6 16 15 39 32 25 13
8 19 18 23 28 27 27 27 26 24 2 0 3 8 0 0
0 0 0 0 0 0 1 8 8 24 32 31 30 30 28 27
24 34 37 32 11 0 0 0 0 0 0 0 0 0 0 0
0 0 0 0 0 0 11 39 34 19 0 0 0 8 31 27
35 20 3 29 83 103 104 89 59 76 88 90 72 44 26 17
21 35 61 88 91 72 71 76 96 116 121 119 123 118 97 90
90 78 88 111 118 117 117 107 93 87 83 71 27 0 0 0
0 0 0 2 14 14 16 11 0 4 10 20 39 27 20 5
7 17 18 23 29 28 27 28 28 25 5 4 10 11 5 4
3 2 2 2 2 1 1 1 2 23 33 32 31 30 30 28
23 33 37 32 12 0 0 0 0 0 0 0 0 0 0 0
0 0 0 0 0 0 10 38 34 21 0 1 2 5 31 28
36 22 4 24 37 85 102 93 56 71 83 90 97 107 119 115
111 112 111 109 92 63 81 82 98 125 128 119 126 127 95 90
93 87 78 95 113 114 108 98 92 87 80 67 20 0 0 0
0 0 0 5 15 14 17 8 0 25 24 28 37 25 18 3
6 17 17 24 28 28 27 28 29 26 11 12 13 13 10 7
5 4 2 6 9 11 12 15 20 34 40 40 40 40 39 38
22 32 37 32 13 0 0 0 0 0 0 0 0 0 0 0
0 0 0 0 0 0 8 37 35 23 0 4 11 6 32 29
37 28 8 21 19 23 62 57 44 67 79 90 100 108 115 117
117 112 111 103 73 65 95 89 91 116 123 115 117 108 86 84
88 108 86 87 105 109 104 98 93 85 79 66 16 0 0 0
0 0 0 8 15 14 16 4 10 67 37 31 36 25 17 6
12 16 18 24 28 28 28 28 29 27 8 2 3 2 1 0
0 0 0 31 41 42 42 43 43 44 45 44 44 44 43 42
22 31 36 33 15 0 0 0 0 0 0 0 0 0 0 0
0 0 0 0 0 0 7 37 35 25 6 11 21 17 34 31
38 29 16 20 18 11 13 8 24 66 74 81 94 105 110 114
112 108 105 95 54 70 93 88 79 89 105 106 101 92 53 42
85 117 105 85 99 104 102 96 91 85 78 63 9 0 0 0
0 0 0 12 16 16 16 1 11 52 24 36 35 27 22 14
20 19 20 28 30 29 28 28 29 27 7 0 0 0 0 0
0 0 5 41 42 42 42 42 42 42 41 42 41 41 41 40
22 30 37 33 16 0 0 0 0 0 0 0 0 0 0 0
0 0 0 0 0 0 6 37 35 32 38 40 43 43 47 36
38 24 18 20 27 22 22 21 25 59 75 75 87 99 109 109
108 104 100 81 55 95 86 63 25 48 83 83 76 70 59 70
110 111 107 94 99 101 100 97 92 86 76 60 3 0 0 0
0 0 2 14 15 16 14 0 1 17 20 39 34 31 23 20
19 21 21 31 32 29 28 28 28 27 8 0 0 0 0 0
0 0 13 35 32 35 36 38 36 35 29 33 34 31 37 41
21 29 36 33 16 0 0 0 0 0 0 0 0 0 0 0
0 0 0 0 0 0 5 35 35 34 50 52 52 52 52 42
37 20 7 18 29 25 25 25 25 49 73 75 80 93 103 106
105 103 95 78 79 111 106 56 40 59 85 89 97 103 95 100
108 107 107 101 102 98 97 96 90 84 74 51 7 7 7 8
8 8 10 16 15 16 10 0 2 9 22 41 32 31 23 20
17 22 22 30 31 29 27 28 27 26 8 0 0 0 0 0
0 0 6 11 8 15 26 34 28 26 23 23 26 27 36 40
20 27 36 33 16 0 0 0 0 0 0 0 0 0 0 0
0 0 0 0 0 0 4 35 35 32 41 42 40 39 37 33
35 20 2 15 29 27 28 27 27 39 68 77 77 85 94 98
100 96 91 90 103 108 105 102 93 105 113 111 113 115 105 106
110 111 109 107 104 96 93 94 89 83 74 43 14 15 15 15
15 14 15 15 15 18 7 0 2 7 26 40 31 31 22 20
17 22 22 31 30 29 28 28 27 26 9 0 0 0 0 0
0 0 0 0 0 5 26 35 35 34 34 35 36 34 37 40
19 27 36 33 17 0 0 0 0 0 0 0 0 0 0 0
0 0 0 0 0 0 3 33 34 28 22 20 19 19 19 19
33 20 1 12 30 27 28 27 27 30 61 74 78 81 88 92
92 88 88 98 111 110 112 109 105 106 107 106 105 114 109 105
112 104 105 100 100 95 90 93 88 82 73 30 14 15 15 15
14 14 15 14 14 20 4 0 10 15 31 37 31 31 21 20
17 22 24 31 29 28 28 28 28 28 10 0 0 0 0 0
0 0 0 0 0 3 34 38 38 38 38 37 37 37 38 37
19 26 35 33 17 0 0 0 0 0 0 0 0 0 0 0
0 0 0 0 0 0 3 33 35 27 20 19 19 19 19 19
33 24 8 18 30 25 27 26 26 26 49 74 77 79 85 90
89 86 87 97 102 106 107 105 102 106 108 108 107 115 113 108
106 100 90 87 93 92 88 91 87 83 71 48 40 21 21 18
19 26 27 19 10 11 0 1 22 27 37 35 31 30 18 17
17 21 25 31 30 28 28 29 28 28 10 0 0 0 0 0
0 0 0 0 0 0 31 39 38 38 37 37 38 36 37 37
19 25 35 33 18 0 0 0 0 0 0 0 0 0 0 0
0 0 0 0 0 0 5 35 35 28 24 23 23 22 21 21
36 34 31 38 33 24 26 26 25 25 35 70 76 79 85 87
87 82 85 90 90 96 101 105 111 111 113 110 111 116 113 107
103 92 81 75 82 86 87 89 85 81 81 120 120 106 97 64
36 30 27 30 33 10 0 46 85 26 40 33 32 28 16 15
17 19 23 30 30 29 29 29 29 27 10 0 0 0 0 0
0 6 0 0 0 0 16 27 29 32 25 25 27 25 25 28
18 24 34 32 18 0 0 0 0 0 0 1 2 2 3 5
6 7 9 11 14 15 20 34 32 28 26 25 25 24 22 21
29 27 27 29 27 24 25 26 24 24 26 60 76 76 82 86
83 78 76 78 77 92 101 106 100 93 97 107 112 96 70 66
66 67 62 64 76 83 87 87 83 80 95 140 140 133 117 71
13 10 12 14 20 33 21 99 137 39 40 32 31 27 19 13
9 19 24 27 28 29 29 28 28 26 11 0 0 0 0 0
4 11 0 0 0 0 8 28 32 30 26 28 27 23 27 28
18 24 34 33 25 11 12 14 17 19 20 22 24 25 26 27
28 28 29 28 29 29 29 28 29 28 26 25 25 25 23 21
22 20 17 20 22 25 25 25 24 24 24 40 76 77 81 84
83 82 74 61 68 76 76 65 64 67 68 68 79 64 60 56
51 44 42 53 80 87 89 83 81 74 104 137 140 132 117 73
11 10 10 9 27 13 26 93 104 30 41 29 23 18 6 3
6 4 17 21 25 28 28 27 27 28 12 0 0 0 0 0
17 10 0 0 0 0 6 38 38 34 36 37 36 33 36 36
17 23 34 34 34 32 30 31 34 34 33 32 33 31 32 32
32 31 31 30 29 28 29 28 28 27 26 26 25 25 23 23
23 21 18 20 23 24 25 24 23 23 24 27 66 79 79 84
86 86 80 64 50 40 43 47 51 59 60 61 67 66 72 71
67 70 70 75 82 86 87 83 80 67 106 129 126 116 94 37
8 6 6 11 35 5 7 42 28 31 43 19 4 0 0 1
1 0 0 10 33 24 24 25 22 26 14 0 0 0 0 0
21 5 0 0 0 0 1 31 40 40 40 39 40 40 38 38
17 23 33 35 34 34 29 31 34 34 32 32 32 32 35 36
25 19 23 27 24 15 24 25 25 25 26 25 25 25 24 23
23 21 19 20 22 24 24 23 23 23 24 24 44 80 78 80
84 87 85 74 60 55 64 63 68 90 100 96 99 99 93 83
74 75 82 88 85 84 83 80 78 60 53 55 47 37 23 7
9 11 26 49 68 71 78 82 82 81 54 27 14 0 0 0
0 0 0 1 27 16 22 24 15 18 17 6 1 0 0 0
4 0 0 0 0 0 0 9 30 33 32 33 33 33 36 37
15 22 33 34 34 33 29 28 30 31 29 29 28 40 57 40
5 0 1 4 4 0 7 16 17 16 12 9 10 16 24 24
23 21 19 19 22 23 24 23 22 22 23 23 26 68 79 78
82 87 90 84 80 76 68 73 69 73 92 94 88 88 82 77
74 75 84 86 85 84 79 77 70 60 25 7 10 13 9 9
11 28 89 94 102 104 96 91 100 100 65 37 30 0 0 0
0 0 0 0 15 15 19 23 20 19 9 12 6 0 0 0
0 0 0 0 0 0 0 6 14 23 24 25 23 25 35 37
7 11 18 17 15 14 13 11 11 13 17 17 31 66 54 11
0 0 0 0 0 0 0 0 0 0 0 0 0 1 17 24
23 22 20 19 21 23 23 22 22 23 23 23 23 42 79 79
79 83 89 86 83 82 74 70 73 73 81 79 73 66 63 69
75 79 84 84 82 83 76 75 68 63 59 55 38 26 27 44
65 85 102 97 102 104 98 93 99 100 59 5 4 0 0 2
3 2 4 4 9 20 20 9 8 6 0 0 0 0 0 0
0 0 0 0 0 0 0 8 11 26 34 33 34 34 37 38
0 0 0 0 0 0 1 3 4 5 19 23 53 65 23 0
0 0 0 0 0 0 0 0 0 0 0 0 0 0 11 26
23 22 21 20 22 23 23 22 22 23 22 22 22 27 68 78
77 77 82 87 82 81 74 72 67 63 59 54 53 63 71 79
85 88 88 82 84 81 74 71 67 67 27 37 60 59 63 81
60 48 71 81 77 69 69 70 70 73 50 24 24 20 17 18
12 8 11 6 5 7 4 2 2 0 0 0 0 0 0 0
0 0 0 0 0 0 0 1 2 8 36 40 40 40 39 39
0 0 0 0 0 1 8 11 9 8 20 33 62 41 6 0
0 0 0 0 0 0 0 0 0 0 0 0 0 0 18 28
27 24 23 24 22 22 22 22 21 22 22 22 22 24 55 75
76 75 78 83 80 77 75 74 76 74 74 75 75 79 85 90
95 97 90 83 83 78 70 66 70 71 102 85 74 86 91 95
123 139 143 143 134 91 73 54 37 31 19 13 10 6 3 3
0 0 0 0 0 0 0 0 0 0 0 0 0 0 0 0
0 0 0 0 0 0 0 0 0 0 30 41 40 40 41 40
4 3 2 0 0 1 7 15 14 13 9 46 60 14 1 12
19 0 0 0 0 0 0 0 0 0 0 0 1 15 29 30
28 26 25 24 22 22 21 21 21 21 21 21 21 22 46 68
72 71 73 77 81 77 77 78 84 87 89 98 107 108 109 108
102 97 88 82 78 71 68 69 73 74 104 81 44 40 39 66
88 107 116 111 88 33 32 46 47 43 9 0 0 0 0 0
0 1 1 1 0 0 3 0 0 0 0 0 0 0 0 0
0 0 0 0 0 0 0 0 0 0 21 41 40 40 40 39
8 7 4 2 1 4 11 20 19 14 7 54 52 15 26 41
42 10 0 9 5 0 0 0 0 0 0 0 1 10 16 15
14 17 22 21 21 20 19 19 19 20 20 20 20 20 38 69
70 71 69 72 78 76 76 78 88 101 102 105 106 106 106 108
103 98 86 82 77 67 66 75 79 76 43 33 35 23 9 80
92 109 125 122 120 45 29 59 58 51 12 0 4 7 11 17
29 40 22 43 46 36 62 66 70 23 0 0 0 0 0 0
0 0 0 0 0 0 0 0 0 0 14 38 37 36 36 36
7 7 8 10 16 19 21 19 18 7 11 57 32 12 36 45
44 18 5 34 34 17 0 6 11 5 0 0 0 0 0 0
0 4 19 19 18 18 17 17 17 16 17 17 17 28 50 70
69 66 66 66 67 73 77 75 81 92 97 95 90 88 91 97
100 93 81 78 64 67 71 83 84 76 61 63 58 69 75 25
7 59 97 29 24 21 29 54 54 50 89 90 111 121 129 135
136 138 93 141 119 111 135 122 118 53 0 1 1 3 0 0
0 0 0 0 0 0 0 0 0 0 4 30 29 30 29 29
5 6 6 10 18 23 19 8 7 1 16 59 25 5 37 46
44 16 26 50 45 31 4 5 4 0 0 0 0 0 0 0
0 1 14 15 15 14 13 13 14 14 14 24 50 40 48 67
75 66 60 60 59 65 70 75 78 82 87 87 82 80 85 83
84 84 75 68 63 67 81 89 86 76 58 53 35 18 91 96
12 50 88 8 2 18 30 55 53 51 95 89 82 92 100 110
119 123 73 89 84 109 103 71 68 49 2 19 10 23 2 0
0 0 0 0 0 0 0 0 0 0 1 25 31 31 31 30
1 2 3 8 17 22 11 0 0 0 20 63 26 6 27 14
30 32 45 54 43 32 9 7 2 0 0 0 0 0 0 0
0 0 12 15 14 13 12 12 12 12 29 72 17 46 56 63
73 73 60 56 54 61 66 70 71 73 77 78 76 71 71 72
74 71 63 58 66 74 87 91 88 74 61 57 64 34 73 119
85 55 86 8 1 17 31 55 50 48 63 69 70 83 84 102
101 96 58 70 107 111 93 97 92 45 3 15 10 13 4 0
0 0 0 0 0 0 0 0 0 0 0 10 28 30 30 29
2 1 2 7 16 20 7 0 0 0 21 64 32 8 14 4
27 43 56 50 29 30 11 2 0 0 0 0 0 0 0 0
0 0 9 16 16 15 13 12 19 53 103 73 44 59 57 58
70 71 71 61 54 51 58 60 59 65 68 71 72 67 60 61
66 59 54 60 72 84 90 91 87 75 64 59 56 58 84 123
119 111 94 38 2 17 30 55 51 49 64 70 61 77 72 72
61 41 42 56 68 56 38 38 44 21 0 6 7 1 0 0
0 0 0 0 0 0 0 0 0 0 0 1 27 29 27 29
5 4 4 10 18 19 9 8 7 0 22 67 50 17 10 4
33 52 60 33 3 24 9 0 0 0 0 0 0 0 0 0
0 0 9 29 31 27 32 52 99 112 117 93 57 62 58 57
71 71 72 70 60 57 54 53 57 54 56 59 60 56 52 52
52 56 61 69 83 90 92 92 87 78 70 65 55 61 102 122
119 120 118 108 72 57 52 58 53 48 29 16 21 12 18 9
9 11 13 14 27 23 18 15 0 0 3 3 2 12 0 0
0 0 0 0 0 0 0 0 0 0 0 2 29 30 29 30
8 7 8 18 25 25 20 21 16 0 15 57 53 26 5 3
34 53 43 17 0 23 10 0 0 0 0 0 0 0 0 0
0 0 11 44 60 70 95 108 114 116 115 110 63 63 58 58
70 74 74 72 67 58 56 52 46 45 40 38 37 36 44 57
65 65 70 83 90 91 94 92 89 82 74 70 54 69 117 118
119 123 118 109 106 109 110 110 102 79 39 13 15 16 23 28
32 34 32 23 39 37 26 23 1 0 11 6 1 11 8 0
0 0 1 0 0 0 0 0 0 0 0 3 31 31 32 31
9 7 13 30 29 26 22 22 18 0 10 57 58 34 2 4
31 33 11 2 0 4 1 0 0 0 0 0 0 0 0 9
29 50 74 90 95 98 97 110 109 115 115 111 75 63 61 61
70 75 75 74 70 67 60 57 57 55 55 58 58 60 65 63
64 73 83 87 90 93 95 93 91 85 79 75 63 97 123 118
118 121 120 103 107 109 105 116 115 112 110 92 67 49 43 40
48 52 50 25 33 33 32 43 3 0 10 5 1 2 6 3
0 0 0 0 0 0 0 0 0 0 0 3 28 28 32 29
8 3 6 19 29 31 30 27 22 2 4 38 35 19 0 0
4 1 0 0 0 0 0 0 0 0 0 0 13 43 72 96
91 89 91 94 102 101 95 103 106 109 110 108 102 60 62 65
71 76 78 76 74 72 69 64 58 55 53 52 50 48 52 62
76 85 87 88 93 94 93 92 92 88 84 77 75 118 119 122
115 119 120 104 105 110 103 108 115 118 129 130 119 111 102 80
70 60 50 24 37 45 71 82 7 1 11 2 4 0 4 1
0 0 0 3 0 0 0 0 0 0 0 6 29 27 30 33
12 5 1 4 12 18 15 9 4 0 0 2 0 0 0 0
0 0 0 0 0 1 0 0 1 18 49 85 118 129 123 115
104 97 100 102 105 105 105 103 106 106 110 113 118 88 64 68
74 78 80 80 79 75 71 70 67 64 59 54 54 58 70 78
84 87 89 92 93 94 92 91 93 91 88 80 111 123 119 118
115 119 111 110 105 112 104 110 113 120 129 138 137 125 116 118
118 108 81 37 20 31 65 89 9 1 4 0 1 2 2 0
0 0 0 5 0 0 0 0 0 0 1 15 30 27 29 33
5 0 0 0 0 0 0 0 0 0 0 0 1 5 6 0
3 2 7 2 6 10 10 54 103 125 131 133 141 144 140 133
118 112 118 112 112 114 113 102 109 105 111 117 122 112 80 69
77 80 81 82 78 76 71 70 75 77 80 83 87 89 92 93
92 91 91 95 96 94 92 92 93 91 89 112 122 124 123 117
116 124 111 113 114 115 119 123 122 126 125 133 138 137 131 117
118 118 115 112 98 60 55 57 7 8 0 1 0 1 3 1
0 0 0 2 0 0 0 0 0 0 0 15 31 30 30 31
0 0 0 0 0 0 0 0 0 0 0 0 25 33 26 13
18 21 24 12 34 82 118 130 132 137 143 144 144 145 144 142
137 122 119 122 125 124 117 108 110 114 114 114 116 120 106 75
77 82 84 85 78 77 78 81 88 96 97 94 94 98 99 98
96 99 102 101 100 96 95 94 98 98 122 132 129 136 131 127
131 124 123 121 123 113 122 129 122 131 130 130 134 137 135 126
119 123 120 119 115 113 109 78 19 0 1 4 0 0 7 4
0 1 0 1 0 0 0 0 0 0 3 19 33 35 34 35
0 0 0 0 0 0 0 0 0 0 0 0 24 36 36 47
33 36 58 92 118 123 125 126 125 128 134 140 141 141 145 142
121 117 121 123 126 137 129 124 117 126 116 112 120 121 121 113
90 82 87 92 89 89 92 93 93 95 97 96 95 98 98 98
103 104 104 104 101 96 96 101 111 133 141 136 140 141 136 139
138 131 128 130 128 119 125 134 130 128 136 133 133 134 134 130
122 123 128 125 125 119 117 110 99 54 8 3 0 0 6 6
0 3 0 1 0 0 0 0 0 0 3 18 31 34 33 34
8 0 0 0 0 0 0 0 0 0 0 0 5 28 40 50
53 97 120 122 111 76 79 89 88 86 92 119 120 123 121 121
137 139 125 130 129 131 135 133 134 132 132 130 128 127 128 127
133 110 90 92 90 92 94 96 97 98 102 105 103 104 105 105
105 107 106 105 104 99 100 121 141 140 137 140 140 141 140 140
134 137 136 136 134 125 124 130 134 127 137 137 136 135 134 127
131 120 129 131 129 127 123 114 106 101 81 23 0 0 8 3
0 1 0 0 0 0 0 0 0 0 1 12 24 27 27 32
3 0 0 0 0 0 0 0 0 0 0 0 0 15 35 71
111 122 124 126 113 61 61 64 65 60 64 107 148 146 146 141
124 126 144 131 128 125 141 141 142 138 142 143 139 138 138 133
136 138 131 107 89 89 93 95 97 99 100 107 107 106 105 106
107 106 106 107 107 114 134 142 140 140 138 140 140 141 140 135
136 135 138 138 137 133 131 133 133 129 134 137 136 134 135 132
129 128 120 130 129 128 125 114 111 110 107 94 42 2 13 2
0 0 1 1 0 0 0 0 0 0 2 18 30 32 33 33
0 0 0 0 0 0 0 0 0 0 0 0 0 19 91 117
121 126 127 134 122 56 56 61 64 59 72 102 128 128 126 133
144 131 120 137 140 129 138 144 143 144 142 144 143 144 145 140
132 136 142 142 129 105 91 93 95 97 98 103 109 107 106 106
107 107 114 120 132 140 141 141 140 141 140 140 140 139 137 139
137 137 139 138 138 134 125 134 136 128 134 135 132 131 132 134
130 131 122 128 133 132 129 119 116 114 118 109 98 56 19 3
0 0 2 0 0 0 0 0 0 0 1 17 29 32 32 33
0 0 0 0 0 0 0 0 0 0 0 0 25 100 117 129
131 133 142 143 134 74 74 53 58 55 59 97 126 125 126 126
125 135 140 114 126 139 138 141 141 142 143 141 144 145 145 144
137 134 136 141 138 139 136 127 119 114 107 101 106 106 109 117
129 139 141 140 135 137 136 140 140 139 139 138 137 133 137 138
138 138 137 137 138 136 127 130 136 132 133 134 134 133 132 132
131 126 129 124 127 127 124 122 121 116 119 117 109 100 61 11
0 2 1 0 0 0 0 0 0 0 0 14 26 29 29 31
0 0 0 0 0 0 0 0 0 0 1 30 103 113 121 138
140 132 143 139 139 145 135 116 95 56 59 106 144 146 145 144
134 118 99 97 119 146 142 141 143 140 141 143 143 144 144 143
143 140 134 136 137 136 132 132 140 141 141 137 138 138 140 141
140 139 138 139 133 134 136 136 136 134 135 133 136 136 136 136
135 135 134 135 135 135 127 125 133 132 131 130 130 128 127 126
125 123 122 122 122 122 122 121 120 117 119 117 116 110 102 66
13 0 0 0 0 0 0 0 0 0 0 11 21 25 25 29
0 0 0 0 0 2 2 0 0 0 16 100 116 115 123 138
144 138 140 139 138 121 125 127 115 127 114 120 128 126 126 127
133 104 97 99 124 145 145 143 141 143 144 143 143 143 142 143
143 143 143 143 136 129 133 134 139 139 140 138 137 135 137 136
135 126 136 138 139 136 136 138 135 133 135 135 137 137 137 137
136 136 135 135 135 134 131 127 129 131 131 131 130 129 127 126
125 124 122 123 122 122 122 121 120 119 120 120 118 115 112 104
69 15 0 0 0 0 0 0 0 0 0 1 3 4 5 14
0 1 3 4 1 6 7 3 0 8 90 119 122 118 126 131
146 145 144 144 135 139 142 132 132 127 117 118 123 127 130 129
115 104 119 138 145 142 143 145 145 145 144 143 144 143 144 143
143 143 143 143 138 140 137 134 135 138 138 135 136 130 134 133
136 133 139 137 136 138 138 138 137 137 136 136 137 136 136 136
135 135 135 134 134 133 133 128 126 128 129 128 127 126 125 124
124 123 120 121 122 122 122 121 121 118 119 121 121 117 116 111
104 77 19 0 0 0 0 0 0 0 0 0 1 1 2 7
2 3 5 5 2 6 8 9 11 82 118 124 129 123 133 127
146 145 142 142 137 128 132 138 137 126 134 145 143 137 131 131
138 144 145 145 145 144 144 144 144 144 144 144 144 142 143 144
143 142 143 143 142 138 140 138 140 141 141 139 134 132 136 132
135 137 136 138 136 136 135 133 135 137 136 136 136 136 136 135
135 134 134 133 133 131 131 129 126 125 125 125 124 124 123 123
123 122 120 120 121 121 122 122 121 120 120 121 121 119 118 113
109 107 81 20 0 0 0 0 0 0 0 0 0 0 0 6
0 4 5 4 2 3 6 12 70 118 121 126 138 131 135 127
143 145 136 141 136 124 137 131 123 138 139 127 131 146 145 145
145 145 145 145 145 144 143 144 143 144 144 144 144 143 144 144
143 142 143 143 142 143 137 135 141 140 140 140 138 137 133 132
135 138 138 137 137 136 136 136 137 136 135 135 136 135 135 135
134 133 133 132 131 131 129 127 124 124 125 126 125 124 124 123
123 123 121 120 122 122 122 122 122 120 120 121 121 120 120 117
115 111 106 73 13 0 0 0 0 0 0 0 0 1 1 7
0 3 8 7 6 4 6 44 115 120 127 131 140 138 134 129
137 146 143 144 137 119 126 126 133 143 145 145 146 145 145 146
145 145 145 145 145 144 144 144 143 143 143 143 144 144 144 144
143 143 143 143 142 142 141 141 138 140 140 139 138 137 137 139
139 137 138 137 138 136 137 136 137 136 136 136 136 135 135 134
134 133 133 132 130 129 128 127 124 122 123 124 125 124 124 124
123 123 122 118 121 122 122 122 122 121 121 122 122 121 121 119
118 115 113 105 69 11 0 0 0 0 0 0 0 0 0 6
0 1 10 10 10 7 26 111 118 120 135 143 138 144 136 133
132 146 145 141 131 101 119 125 117 140 144 145 145 145 145 146
145 145 145 145 145 145 144 144 143 144 144 144 144 144 144 143
143 143 143 143 142 142 142 141 141 141 139 139 139 139 138 136
135 137 138 138 138 138 137 137 137 137 136 135 136 135 135 134
133 132 132 131 130 129 128 127 127 124 124 125 125 125 124 124
123 123 123 119 120 122 123 122 122 122 121 122 122 122 122 120
119 116 116 108 106 76 14 0 0 0 0 5 17 19 17 17
0 0 4 9 11 15 92 130 122 123 138 143 144 145 127 136
128 145 145 144 126 62 30 35 35 100 120 139 146 145 145 145
145 145 137 130 124 134 144 144 144 144 144 144 144 144 144 144
144 144 144 144 143 143 142 142 142 141 141 141 141 140 140 139
140 139 139 139 138 138 138 138 138 137 137 136 136 136 135 135
135 134 135 134 133 132 131 131 129 126 125 128 128 127 126 126
125 125 124 120 120 123 123 123 123 123 122 122 122 122 122 122
122 120 119 116 109 96 39 1 0 0 0 6 22 26 27 26
0 0 0 6 12 46 122 125 127 128 131 145 146 145 124 139
124 136 140 145 129 65 28 32 33 73 95 90 107 120 124 120
112 100 97 99 101 129 145 145 144 144 145 144 144 144 144 144
144 143 144 143 142 142 143 142 142 142 142 141 141 140 140 140
140 139 140 140 140 139 138 139 138 138 138 137 138 136 136 136
135 135 135 136 135 134 133 133 133 130 128 131 131 130 130 129
128 128 127 120 119 124 125 124 124 124 122 123 123 123 123 123
123 122 121 119 116 112 89 27 0 0 0 0 1 2 3 4
0 0 0 1 16 108 124 122 128 131 140 144 145 146 126 138
123 128 142 144 128 70 25 32 34 60 95 87 90 95 97 95
95 95 97 99 101 126 145 144 145 144 144 143 145 145 144 144
144 144 144 143 143 142 142 142 142 142 142 142 142 141 141 141
141 141 141 141 140 140 139 139 139 139 138 136 138 137 136 137
136 135 136 136 136 134 135 134 134 133 128 132 133 132 131 131
130 129 128 122 118 124 126 126 125 125 122 124 124 124 123 123
123 123 121 120 122 117 114 76 14 0 0 0 0 0 0 0
0 0 0 0 29 124 121 130 129 142 142 140 144 146 131 137
131 126 141 145 129 78 24 32 33 52 97 118 100 97 100 105
94 97 99 101 102 124 146 145 144 145 145 145 145 144 144 144
143 143 143 143 143 143 143 143 143 142 142 142 142 141 141 141
141 141 141 140 140 139 139 139 138 138 138 138 137 137 136 136
135 135 136 135 135 134 135 134 134 133 130 131 133 133 132 131
130 129 129 125 117 123 126 125 125 125 123 124 124 124 124 124
123 123 122 122 122 119 114 106 53 4 0 0 0 0 0 0
0 2 0 0 90 135 131 130 139 141 135 139 143 145 132 132
137 124 134 145 126 79 24 31 33 33 82 144 141 140 144 139
100 101 102 101 101 121 145 144 145 144 144 144 144 144 144 144
143 143 143 143 143 143 142 142 142 141 142 141 141 141 141 141
140 140 140 140 139 139 139 138 138 139 138 137 137 136 136 134
135 136 136 135 135 134 134 133 133 132 130 131 132 131 130 130
129 128 128 125 116 123 126 126 125 125 123 123 124 124 124 123
124 123 123 123 122 120 118 115 92 30 0 0 0 0 0 0
0 3 2 24 138 128 137 143 139 139 140 144 142 141 138 128
143 120 121 144 119 81 23 31 33 34 68 144 145 143 145 141
105 102 102 102 99 119 145 145 144 144 144 144 144 144 143 143
144 143 143 143 142 142 141 141 141 142 142 141 142 142 141 141
141 140 139 139 139 139 139 138 138 138 138 137 137 136 135 135
135 134 135 135 136 134 134 134 134 133 129 127 132 132 131 130
130 129 129 126 116 123 126 126 126 125 124 124 125 124 124 124
124 123 124 123 123 122 118 114 117 80 18 0 0 0 0 0
0 1 8 86 145 126 136 144 145 140 137 141 142 138 139 127
145 132 114 144 121 81 22 30 33 35 58 140 145 145 145 142
106 102 102 101 96 120 144 144 144 144 143 143 143 143 143 143
144 143 143 142 142 142 142 141 142 142 141 141 141 141 141 140
140 140 140 139 140 139 138 138 139 137 138 138 137 136 136 136
135 134 135 135 135 134 135 134 133 133 132 129 131 132 131 131
130 130 129 127 117 121 125 126 127 126 124 124 125 125 125 125
124 124 124 124 124 123 119 116 121 113 59 5 0 0 0 0
