P2
128 120
144
35 38 45 47 47 44 39 33 33 33 32 32 32 31 32 31
30 30 30 30 29 28 29 28 27 27 27 26 26 25 25 25
24 23 23 23 22 22 22 22 21 21 20 20 20 19 19 19
18 19 20 21 24 24 24 23 17 17 15 21 21 20 20 19
19 20 18 18 17 15 18 19 21 21 21 21 21 21 21 21
21 22 22 22 22 23 23 24 24 24 24 24 24 25 25 25
25 25 25 26 27 26 27 27 28 29 28 28 28 28 28 28
28 28 27 28 28 28 28 28 29 28 29 28 28 28 28 28
4 11 19 27 34 43 44 33 33 33 32 32 32 32 31 31
30 31 30 29 29 29 29 28 27 27 27 26 26 25 25 25
24 24 23 23 23 22 22 22 21 21 21 20 20 20 19 19
19 19 19 21 25 24 24 23 16 17 16 21 22 22 21 20
20 21 19 19 18 16 19 19 21 20 21 21 22 22 22 22
23 23 23 23 23 24 24 24 24 24 25 25 25 25 25 26
26 25 26 26 27 27 27 28 28 28 27 27 27 27 28 28
28 28 29 28 28 28 28 28 28 28 29 28 28 29 28 28
0 0 0 0 1 35 44 34 32 32 32 32 32 32 31 30
30 30 30 29 29 29 29 28 28 27 27 27 26 26 25 25
25 24 24 23 23 23 22 22 22 21 21 21 21 20 19 19
19 19 20 21 24 25 25 24 17 18 18 21 23 22 21 20
20 21 19 19 19 16 19 18 21 21 22 22 22 22 23 22
23 23 23 23 23 23 24 24 24 24 25 25 25 25 25 25
26 26 27 27 27 27 27 27 27 28 28 28 29 28 29 28
28 27 28 27 28 28 28 28 28 28 29 28 28 28 28 28
0 0 0 0 0 34 45 33 33 32 32 32 31 32 31 31
31 31 31 30 30 29 29 28 28 27 27 27 27 26 26 25
25 24 24 24 23 23 23 23 22 22 21 21 21 20 20 19
20 20 21 22 26 25 26 24 18 18 20 20 23 22 21 22
21 23 21 20 20 17 21 21 23 22 22 22 23 23 23 23
23 23 23 24 24 24 25 25 25 25 25 25 26 26 26 26
26 26 27 27 27 28 28 28 28 28 28 27 27 28 27 27
28 28 28 28 28 28 28 29 28 28 28 28 28 28 28 28
1 4 0 0 0 32 44 34 33 32 32 32 31 32 31 31
31 31 31 30 30 29 29 28 28 28 27 27 27 27 26 26
25 24 24 24 24 24 23 23 22 22 22 21 21 20 21 20
20 20 20 22 26 26 25 25 18 18 21 20 23 23 23 22
21 22 20 20 20 17 20 21 22 23 23 23 24 23 24 24
24 23 24 24 23 24 25 25 25 25 25 25 25 26 26 26
26 27 27 27 27 28 28 27 27 26 27 28 28 28 29 29
29 29 27 28 28 28 29 28 28 29 29 28 28 28 27 28
5 5 0 0 0 30 43 33 32 32 32 32 32 31 32 31
31 31 30 29 30 29 29 28 29 28 27 27 27 26 26 26
26 25 25 24 23 24 23 23 22 21 22 21 21 21 21 20
20 20 21 22 26 26 26 25 18 18 22 19 23 23 23 22
21 22 21 20 21 18 20 21 23 23 23 23 24 23 24 24
23 23 24 24 25 25 25 25 25 26 26 25 26 26 26 27
26 27 27 27 27 27 27 28 28 28 28 28 28 28 28 28
28 29 28 28 28 28 28 28 28 28 28 27 28 28 27 28
0 1 0 0 0 32 43 33 32 32 32 32 32 31 32 31
31 30 30 29 29 29 29 28 28 28 28 27 27 27 26 26
26 25 25 24 24 24 24 23 22 22 22 22 22 21 21 21
20 20 22 23 26 26 26 25 18 18 24 18 23 23 23 22
22 22 21 21 20 18 20 21 24 24 23 24 24 24 24 24
24 24 24 24 24 25 25 25 26 25 26 25 25 25 26 26
27 27 27 28 28 28 28 28 28 28 28 29 29 28 28 28
29 29 28 27 28 28 28 28 28 28 28 28 28 27 27 27
0 2 5 0 0 31 43 33 32 32 32 32 32 31 31 31
31 31 30 30 29 29 29 28 28 27 27 27 27 26 26 26
26 25 25 25 24 24 24 24 23 23 22 21 22 22 21 20
21 21 21 23 27 27 27 26 19 19 25 18 24 24 23 22
22 20 21 21 21 19 21 21 24 24 24 24 25 24 24 25
24 25 25 25 25 25 25 26 26 26 26 26 26 26 26 27
27 27 28 28 28 28 28 28 29 29 28 28 29 28 29 28
29 29 28 28 28 27 28 28 28 28 28 28 28 28 27 27
0 0 2 0 0 29 42 33 32 32 32 32 32 31 32 31
30 30 30 29 30 29 29 28 28 28 28 27 27 27 26 26
26 25 26 25 25 24 24 24 23 22 22 22 22 22 22 21
21 21 22 24 27 28 27 26 19 19 26 18 24 24 24 23
22 20 22 21 21 19 21 22 24 24 24 25 25 25 25 25
25 25 24 25 25 25 25 25 26 26 26 26 26 27 27 27
27 27 28 28 29 29 29 28 28 28 28 28 28 28 29 28
28 29 28 28 28 28 28 28 28 28 28 28 28 27 28 28
0 0 0 2 3 31 42 33 33 32 32 31 31 31 31 31
29 30 30 30 30 29 29 29 28 28 28 27 27 27 27 26
26 26 25 25 25 24 24 24 23 23 23 22 22 22 22 22
22 22 22 23 27 27 27 26 19 19 27 19 23 24 24 24
23 22 22 22 22 20 21 22 24 25 25 24 25 24 24 24
24 24 24 25 25 25 26 26 26 26 26 26 26 27 27 28
27 28 29 28 28 28 29 28 28 28 28 28 28 28 28 28
27 29 28 28 28 28 27 28 28 28 28 28 28 28 28 27
23 18 13 9 14 35 41 32 32 32 32 32 32 31 31 31
31 30 30 29 29 29 29 29 29 28 28 27 27 27 26 26
26 26 26 25 25 25 24 24 23 24 23 23 23 22 22 22
22 22 22 23 27 27 28 27 20 19 27 20 23 25 24 24
23 22 22 22 22 20 21 22 24 25 25 25 25 24 25 25
24 25 25 25 26 25 25 26 26 26 26 27 27 27 28 27
28 28 29 28 28 29 28 29 29 28 28 28 28 28 28 28
27 28 29 28 28 28 28 27 27 28 28 28 27 27 26 26
27 30 32 33 33 37 37 33 33 32 32 32 31 32 31 30
30 30 30 29 30 29 29 29 28 28 28 28 27 27 27 26
26 26 26 26 25 24 25 24 24 24 24 23 23 23 22 22
22 22 23 24 27 29 28 28 21 19 28 22 22 25 25 24
24 22 22 22 22 19 20 21 24 24 25 25 25 25 26 25
25 26 26 26 27 27 27 27 26 27 27 27 27 27 28 28
28 28 29 28 29 29 29 29 28 28 29 28 29 28 29 28
28 29 28 29 29 28 28 27 27 27 26 26 27 28 28 28
17 21 24 27 29 31 33 33 32 33 32 32 32 32 31 31
31 31 30 31 30 30 29 29 29 29 28 27 28 27 27 27
26 26 26 26 25 25 24 25 24 24 24 23 23 23 23 22
22 23 23 24 28 29 29 28 21 19 28 24 22 26 25 25
24 24 24 22 23 21 21 24 25 26 25 26 25 26 25 26
26 26 27 27 27 27 26 27 27 27 27 28 28 28 28 28
28 29 29 29 29 29 29 28 29 28 28 28 29 28 28 29
29 28 27 26 26 27 27 27 28 29 29 27 28 28 27 27
11 11 12 14 16 20 23 27 30 31 33 33 33 32 32 31
31 31 30 30 30 30 30 29 29 28 29 28 28 27 28 27
27 27 26 26 26 25 25 25 25 24 24 24 24 23 23 23
23 23 23 24 28 29 29 28 21 19 28 27 21 26 27 25
25 24 24 23 23 22 22 24 26 26 26 26 26 26 27 26
27 27 27 27 28 27 27 27 27 27 28 28 28 28 28 28
28 29 30 29 30 29 29 30 30 29 29 29 28 28 27 27
28 28 28 28 28 28 28 27 28 28 29 27 28 27 27 27
10 10 10 10 10 11 11 12 13 14 18 21 25 27 29 30
32 31 31 30 31 30 30 30 29 29 28 28 28 28 27 27
27 26 26 26 26 26 26 26 25 25 25 24 24 24 23 23
23 23 23 25 29 29 28 28 22 19 28 28 21 26 26 25
25 23 25 23 23 22 22 24 26 26 27 26 27 27 27 27
27 27 27 27 28 27 27 27 28 28 28 28 28 29 29 29
29 30 30 29 30 29 29 29 29 28 28 27 28 29 29 29
29 28 29 28 28 28 28 28 28 28 29 27 28 27 28 28
20 18 18 16 14 12 11 11 11 11 11 11 10 7 13 27
32 31 31 31 30 30 30 30 30 29 29 29 28 29 28 27
27 27 27 26 26 26 26 25 25 25 25 25 24 24 24 24
23 23 24 25 29 29 29 28 22 20 29 30 20 26 27 26
25 24 25 23 23 22 21 24 25 26 27 27 27 27 28 27
28 28 28 28 28 28 27 28 28 28 28 28 29 29 29 28
29 29 28 29 28 28 29 29 29 28 30 28 28 29 29 29
29 29 28 28 28 29 28 29 28 28 28 28 27 27 28 28
38 41 43 40 37 25 17 16 14 11 11 11 9 7 10 26
32 31 31 31 30 29 31 30 30 29 29 29 29 28 28 28
28 27 27 27 29 32 31 28 27 26 25 25 25 24 24 24
24 24 24 26 29 29 29 29 23 20 29 31 19 26 27 26
26 25 25 24 24 23 22 25 26 27 27 27 28 28 27 27
27 27 28 28 29 28 28 28 29 28 28 29 29 29 29 29
29 29 29 29 29 28 28 28 28 29 29 28 28 28 29 28
29 28 29 28 28 28 29 28 28 28 29 27 27 27 28 28
43 43 46 46 44 32 25 32 34 28 26 22 16 9 10 25
32 32 31 30 30 34 35 33 32 31 29 29 29 28 29 28
28 27 28 27 33 40 36 34 33 31 26 25 25 24 24 24
24 24 25 25 29 30 30 29 23 20 28 31 19 26 27 27
26 25 25 24 24 24 23 25 26 27 28 27 28 28 28 28
28 28 28 28 28 27 28 28 28 28 28 29 29 29 29 29
29 29 29 29 29 29 29 28 29 29 30 29 29 29 28 28
29 29 29 28 28 28 28 28 28 27 28 27 27 28 27 28
33 38 42 46 46 35 32 37 39 35 43 42 37 13 13 27
32 32 32 31 32 41 40 39 35 34 33 31 30 29 29 28
28 28 28 28 33 39 36 34 35 34 29 25 25 24 25 24
24 24 26 26 29 30 29 29 23 19 22 30 21 25 28 28
27 26 26 25 25 25 23 26 27 28 29 28 28 28 29 28
29 28 27 28 28 29 28 29 29 29 29 30 29 29 29 29
30 30 29 29 28 29 30 29 29 29 30 29 30 29 29 29
29 28 29 30 29 29 28 29 29 28 29 28 28 28 28 27
4 7 12 17 28 37 35 38 40 42 45 44 41 16 12 27
33 33 32 32 33 42 41 39 36 37 39 39 34 35 33 31
29 28 28 27 30 26 26 28 32 33 29 25 23 24 23 21
21 21 20 24 28 30 30 27 17 17 14 29 22 23 27 27
26 26 27 25 24 25 22 26 27 28 28 28 29 28 28 28
28 28 28 28 29 29 29 29 29 29 29 31 29 30 30 29
30 29 29 29 29 29 29 28 29 29 30 29 30 29 29 29
29 29 29 28 28 28 28 29 28 28 28 28 28 28 27 27
0 0 1 2 10 36 35 38 40 42 43 44 43 18 13 30
36 34 34 34 34 34 29 34 37 40 41 39 26 25 31 32
33 32 33 31 28 15 9 10 11 12 26 24 23 20 13 9
5 7 10 10 17 28 30 28 20 19 25 31 23 22 28 26
25 25 27 25 25 25 22 25 26 27 27 28 28 28 27 28
28 28 28 28 28 29 29 29 29 29 29 30 30 29 29 29
29 29 29 29 29 29 29 29 28 28 29 30 29 29 29 28
28 28 29 28 28 28 28 28 29 28 29 28 29 28 28 28
0 0 10 8 14 35 24 30 34 41 43 43 41 20 13 30
37 30 32 36 39 21 0 7 21 26 29 35 12 0 2 6
12 17 25 28 29 14 2 4 6 0 20 22 19 6 2 1
0 0 0 0 1 6 16 28 25 20 29 32 25 21 28 27
26 26 27 25 26 25 23 26 27 28 29 29 29 29 29 29
29 29 29 28 29 29 29 29 29 29 29 30 29 30 30 29
30 30 30 30 30 29 30 29 29 29 29 30 29 28 29 29
29 28 28 29 29 29 29 29 29 29 28 28 28 27 27 27
0 0 9 9 16 32 2 2 7 13 20 21 35 21 13 26
35 34 33 37 43 24 0 0 6 10 10 25 12 0 0 0
0 0 0 6 28 11 0 0 2 0 21 21 7 3 0 0
0 0 0 0 0 0 0 3 14 19 28 33 27 19 28 28
27 26 27 26 25 26 23 27 27 29 29 29 29 29 29 29
30 29 29 29 29 30 29 29 29 30 29 30 30 30 30 29
29 29 29 30 30 29 29 29 30 29 30 30 30 29 28 29
29 29 29 29 28 29 29 28 29 28 28 27 28 28 28 27
0 0 0 0 11 32 1 0 0 0 0 0 22 23 12 5
7 14 22 31 38 27 0 0 2 3 5 22 15 0 0 0
0 0 0 2 27 6 0 0 0 0 19 10 0 0 0 0
0 0 0 0 0 0 0 0 0 1 14 27 27 18 28 29
28 26 27 25 26 26 24 27 28 29 29 29 28 30 29 29
29 29 29 29 30 30 30 30 30 30 30 31 30 30 30 30
30 30 31 31 30 30 31 30 30 30 30 29 30 29 30 29
29 29 29 29 30 30 29 30 29 29 29 29 29 28 28 27
0 0 1 0 11 32 0 0 0 0 0 0 22 23 11 1
0 0 0 1 4 16 0 0 0 0 0 19 13 0 0 0
0 0 0 1 27 4 0 0 0 0 12 3 0 0 0 0
0 0 0 0 0 0 0 0 0 0 0 2 12 16 27 29
28 27 27 26 26 26 23 27 27 29 29 30 29 29 29 29
29 29 29 29 30 30 30 29 29 30 30 31 30 30 30 30
30 30 31 31 30 30 30 30 30 30 29 29 31 30 30 30
30 30 29 30 30 30 30 29 29 28 28 29 29 29 28 28
8 9 9 0 10 32 1 0 4 6 0 0 20 24 12 1
0 0 0 0 0 9 0 0 0 0 0 22 15 0 0 0
8 3 0 0 26 4 0 0 0 0 4 1 0 0 0 0
0 0 0 0 0 0 0 0 0 0 0 0 0 1 13 27
28 26 27 26 26 26 23 27 28 30 30 29 29 30 30 30
30 30 29 29 29 30 29 30 30 30 30 31 31 30 30 31
31 31 31 31 31 31 31 30 30 30 30 30 30 30 30 29
29 29 29 30 30 30 30 30 30 29 29 29 29 29 29 29
1 2 4 0 10 32 1 0 0 11 0 0 21 23 12 1
0 0 0 0 0 7 0 0 0 0 0 21 17 0 0 1
9 10 6 0 25 5 0 0 0 0 3 2 0 0 0 0
0 0 0 0 0 3 3 2 0 0 0 0 0 1 0 9
26 26 26 25 26 26 23 27 28 29 30 30 30 30 30 29
29 30 30 30 30 30 30 30 30 31 31 30 31 30 31 30
31 31 31 31 31 31 30 30 31 30 30 30 30 30 30 29
29 29 30 31 30 30 30 30 31 30 30 30 30 30 29 29
1 2 0 0 9 31 0 0 0 0 0 0 21 22 12 1
0 0 5 0 0 6 0 0 0 0 0 20 20 0 0 1
10 10 9 1 24 7 0 0 0 1 7 1 0 0 0 0
0 5 20 33 39 36 32 19 8 8 1 0 0 0 0 0
4 22 27 26 27 26 24 28 28 30 30 30 30 30 30 29
30 29 30 30 30 30 31 30 30 30 31 30 31 31 31 31
31 31 31 32 31 31 31 30 31 31 31 30 30 30 30 30
30 29 30 31 32 31 31 30 30 29 28 27 27 29 29 29
0 2 0 0 10 28 0 0 0 0 0 0 21 22 12 2
4 2 1 0 0 6 0 0 0 0 2 22 22 0 0 0
3 8 9 0 23 23 14 6 4 3 7 2 0 0 0 5
33 55 60 61 58 56 51 38 28 16 11 4 1 0 0 0
0 2 20 26 26 26 24 27 28 30 30 30 31 30 30 30
30 30 30 31 31 30 31 31 31 30 31 30 31 30 31 31
32 32 31 32 31 31 31 30 31 31 30 30 31 30 31 30
29 29 30 30 28 29 28 29 27 24 23 20 18 16 13 11
26 24 18 13 20 30 2 0 1 0 0 0 22 23 13 3
3 0 0 0 0 9 2 0 0 0 2 23 34 14 11 7
2 1 5 0 23 38 34 19 27 18 11 2 0 0 12 49
65 68 69 67 67 63 62 54 43 39 38 25 13 11 6 1
1 0 1 16 27 26 24 28 28 30 30 29 29 29 30 31
30 30 30 30 31 31 31 30 31 30 31 31 31 31 31 31
31 31 31 32 31 30 31 30 30 30 29 29 29 29 30 27
28 27 27 25 21 19 16 13 12 10 9 9 9 9 9 10
29 37 39 40 37 43 37 21 25 26 24 22 31 20 12 3
0 0 0 0 0 18 33 23 21 16 9 23 42 26 25 26
25 21 19 17 32 37 31 20 29 20 13 0 0 16 53 63
66 71 72 76 80 80 80 79 75 69 67 53 30 8 11 17
12 12 8 7 10 8 13 24 27 30 30 29 30 30 30 30
30 30 30 30 31 31 31 30 30 30 31 31 30 30 31 30
30 30 30 31 29 29 29 28 28 28 27 25 24 22 19 17
15 13 12 11 11 11 11 12 13 13 13 14 15 15 15 16
14 13 10 10 39 54 46 27 36 42 43 42 39 19 12 2
0 0 0 0 0 21 48 38 40 43 43 42 37 12 11 12
13 13 14 18 22 20 18 15 18 17 4 0 13 52 60 61
59 60 60 68 79 87 94 94 94 90 75 34 16 20 12 2
2 1 1 0 1 2 5 5 19 31 30 30 30 29 30 29
30 30 29 29 30 31 30 30 30 30 31 31 31 31 31 32
31 30 29 28 26 25 30 24 17 15 14 13 13 12 13 13
14 15 15 16 17 18 18 18 19 19 20 20 20 20 21 21
5 4 1 1 42 54 38 27 37 42 42 45 43 20 13 9
4 1 0 0 0 22 43 37 44 47 48 40 31 14 11 11
9 8 7 7 7 5 7 9 13 5 0 6 40 37 24 12
5 2 2 5 19 42 80 100 95 82 26 1 0 0 0 0
0 0 0 0 0 0 1 3 13 31 30 30 30 30 30 30
31 30 30 29 30 31 31 30 31 31 31 30 30 28 26 24
21 18 17 16 15 14 26 23 11 15 17 17 19 19 20 20
21 20 22 22 23 23 23 23 24 24 24 25 25 25 25 25
0 0 0 1 40 48 21 11 20 24 27 30 38 21 14 25
38 35 28 21 17 31 32 36 43 45 48 42 34 18 12 10
8 7 6 6 6 8 4 5 13 7 7 9 5 2 0 0
0 0 0 0 0 1 10 25 9 6 4 0 0 0 0 0
0 0 0 0 0 0 35 26 7 31 30 30 28 29 28 27
27 28 30 30 30 29 29 25 18 23 21 20 18 17 16 16
17 17 18 18 19 18 22 20 16 21 23 24 24 25 25 25
26 26 25 25 26 26 27 27 26 26 27 28 28 27 27 26
0 0 0 1 37 46 15 0 0 0 0 0 22 22 14 27
44 44 43 43 43 44 22 16 25 29 35 33 35 20 11 7
2 2 3 6 5 5 5 2 13 12 28 3 17 62 9 0
0 0 0 0 0 0 8 10 9 9 7 0 0 0 0 0
0 0 0 0 0 0 10 30 5 28 27 27 26 26 26 26
18 21 25 22 21 19 15 5 9 18 19 19 19 20 21 22
23 23 23 25 25 24 26 24 20 25 26 27 27 27 28 28
28 28 28 28 28 28 27 28 28 28 29 28 28 27 27 27
0 0 0 0 32 47 16 0 0 0 0 0 18 24 14 25
43 44 44 44 45 44 11 0 0 1 6 13 31 19 9 4
0 0 0 2 4 3 1 0 8 6 6 7 110 66 0 0
0 0 0 0 1 0 6 16 38 41 21 3 0 0 0 3
49 43 0 0 0 0 0 0 2 23 24 23 23 21 20 19
14 16 18 18 18 16 7 15 23 24 24 24 25 26 25 26
28 28 28 28 28 26 14 11 19 27 28 28 29 29 29 29
29 30 29 29 28 28 28 29 29 29 29 29 28 29 28 27
0 0 0 0 27 44 13 0 0 0 13 19 24 26 19 23
32 33 35 36 39 40 8 0 0 0 0 6 33 18 8 3
0 0 0 0 1 0 0 0 2 1 0 68 91 1 0 0
0 0 3 51 60 2 5 34 82 86 91 70 8 0 3 72
76 10 0 0 0 0 0 0 1 12 18 18 19 19 20 21
21 21 23 23 16 17 16 27 28 28 28 28 28 29 29 29
29 30 30 29 29 25 5 1 15 29 31 31 30 29 29 29
30 29 30 29 29 29 29 29 29 28 29 29 28 28 27 27
0 0 0 0 23 41 11 0 0 0 17 24 22 24 20 20
20 23 28 27 33 39 7 0 0 0 0 1 31 13 2 0
0 0 2 0 0 0 0 0 1 0 12 98 15 0 0 0
0 10 70 61 7 0 17 85 109 111 112 100 67 9 70 102
11 0 0 0 0 0 0 0 1 3 20 22 23 23 25 25
26 26 28 20 20 24 23 29 30 29 29 30 30 30 30 31
30 26 17 12 11 22 6 2 12 28 31 31 31 30 30 29
30 30 30 30 30 29 29 29 29 28 28 28 28 28 27 27
0 0 0 0 25 40 9 0 0 0 5 11 16 20 18 19
20 23 28 28 35 38 7 0 0 0 0 1 32 7 0 0
0 0 0 0 0 0 0 0 1 1 26 34 0 0 0 0
11 88 53 1 0 3 57 96 115 119 117 97 92 74 66 17
0 0 0 0 0 0 0 0 0 0 16 26 27 28 28 27
28 29 24 19 29 28 14 17 16 14 12 20 31 30 29 28
10 2 0 0 1 14 3 0 11 28 30 31 30 30 30 29
29 30 30 29 30 29 29 28 29 28 28 28 29 28 28 28
0 0 0 0 28 42 9 0 0 0 0 0 7 17 16 15
6 10 15 20 26 30 7 0 0 0 0 2 31 7 0 0
0 0 0 0 0 0 0 0 4 4 63 18 0 0 0 0
16 50 1 0 0 16 99 90 65 99 98 31 35 116 56 1
3 3 2 1 0 0 0 0 0 0 2 27 29 29 29 28
30 29 19 26 25 32 9 0 0 0 2 13 19 10 3 3
0 2 0 0 0 1 4 0 12 29 30 31 31 30 30 30
30 30 30 30 30 30 28 29 28 28 28 29 29 28 28 28
0 0 0 0 30 42 9 0 0 1 0 0 9 23 22 15
0 0 0 0 0 8 6 0 0 0 0 1 31 5 0 0
0 2 0 0 0 0 0 0 10 14 82 4 0 0 0 0
0 0 0 0 2 65 118 24 2 84 94 26 0 75 108 21
6 5 11 16 22 20 27 31 0 0 0 16 31 30 30 30
31 20 10 3 1 28 19 0 0 0 0 0 0 0 0 0
0 12 2 0 0 0 6 0 15 29 31 31 31 30 31 30
30 30 30 30 30 29 29 29 29 29 29 29 29 29 28 28
6 3 2 1 33 42 9 0 0 3 0 0 10 30 23 16
0 0 0 0 0 5 6 0 1 6 0 1 30 4 0 0
0 0 0 0 0 0 0 0 17 18 23 0 0 0 0 0
0 2 12 7 32 111 90 6 49 101 101 93 26 67 115 65
54 52 66 74 80 80 79 66 15 0 0 2 28 31 31 31
29 5 10 13 3 2 1 0 0 0 0 0 0 0 0 0
0 2 0 0 0 0 13 6 21 29 31 31 31 31 31 30
31 30 29 29 30 30 29 29 29 29 28 29 28 29 29 28
28 29 31 25 34 37 17 0 0 5 3 0 9 31 24 16
0 0 3 1 0 4 6 0 8 13 3 1 29 4 0 0
0 0 0 0 0 0 0 0 19 33 27 6 15 13 6 5
9 19 30 42 68 114 74 24 105 105 102 96 102 117 102 70
71 84 94 95 95 95 95 87 65 6 0 0 14 31 31 31
21 13 27 17 19 25 21 20 20 20 19 14 11 10 0 0
0 0 0 0 0 2 22 21 26 31 31 32 31 30 30 29
30 30 30 30 30 29 29 30 29 29 29 29 29 29 29 28
9 12 16 16 22 34 31 22 16 20 22 16 19 33 20 15
0 1 14 7 0 4 13 4 15 16 11 4 30 3 0 0
0 0 0 0 0 0 0 0 19 45 60 38 24 20 28 45
67 84 88 69 68 102 111 96 84 91 96 85 78 85 76 67
86 97 99 101 99 99 95 91 81 39 0 0 6 28 32 26
10 17 20 29 32 32 32 32 32 32 31 30 12 4 0 0
0 2 7 8 7 18 26 27 30 31 32 32 32 31 31 31
31 31 31 31 30 30 30 29 29 29 28 29 28 25 28 28
0 0 9 10 17 36 32 22 22 29 35 39 41 39 23 16
0 3 14 7 1 5 33 34 38 36 35 35 38 5 0 0
0 0 0 0 0 0 0 0 20 54 54 53 71 76 88 97
102 103 104 96 70 80 94 83 79 85 91 85 76 71 68 71
78 92 99 102 104 101 95 90 88 68 6 0 1 24 31 13
26 31 32 32 33 33 33 33 33 33 33 19 1 0 1 0
0 16 33 31 30 29 29 31 34 33 32 33 33 32 32 32
32 31 32 31 31 32 31 31 31 31 31 30 30 29 30 29
0 2 5 12 24 37 30 3 0 4 10 22 43 39 23 18
2 0 3 0 0 4 36 40 43 42 45 50 46 23 19 15
5 0 0 0 0 0 0 0 23 55 57 78 89 95 106 109
108 108 107 105 87 76 79 74 77 83 85 84 79 77 77 71
73 84 95 98 103 106 101 93 88 78 26 0 0 18 19 19
33 34 33 33 33 33 33 33 33 33 33 17 0 0 13 1
0 14 33 32 32 31 30 32 32 32 32 32 32 32 33 32
31 31 32 32 32 31 31 31 30 31 31 30 30 30 31 30
13 27 12 4 21 39 29 2 0 15 17 23 41 34 22 21
14 1 1 0 0 3 34 37 40 40 43 48 46 35 32 31
20 0 0 0 0 0 0 0 34 55 70 88 96 104 108 111
110 108 106 99 83 75 71 80 87 94 99 102 92 92 86 85
80 77 92 98 100 104 103 95 88 80 47 0 0 5 13 31
33 33 33 32 33 33 33 33 32 33 33 19 0 0 2 0
0 12 33 33 32 31 32 32 33 32 32 32 33 32 32 32
31 31 31 31 31 30 30 31 30 30 31 31 30 29 29 29
26 29 4 0 20 41 30 1 0 11 25 30 40 29 21 22
12 0 0 0 0 3 34 33 36 36 36 33 32 34 35 35
25 0 0 0 0 0 0 0 38 57 79 90 98 106 111 114
113 109 104 89 76 75 83 92 102 100 98 89 90 93 96 87
92 85 83 94 96 101 103 96 88 82 62 3 0 1 24 33
33 32 33 33 33 33 33 32 32 32 32 18 0 0 0 0
0 9 33 32 33 32 33 33 33 32 33 33 32 32 33 32
31 31 31 30 31 31 31 30 30 30 30 29 29 29 28 28
21 32 2 0 20 42 30 0 0 0 7 27 42 27 23 23
12 2 2 1 0 3 35 34 33 33 33 33 34 36 36 39
29 0 0 0 0 0 0 0 45 62 82 91 96 104 114 118
112 106 97 82 78 90 94 99 91 88 91 89 91 79 77 85
81 96 90 89 94 96 101 96 89 83 70 9 0 0 13 32
32 32 32 33 34 33 33 32 27 21 19 11 0 0 0 0
0 9 33 33 33 33 33 33 33 32 32 32 32 32 32 31
31 31 31 31 31 31 31 30 31 30 30 29 30 30 28 28
9 15 1 0 22 43 31 0 0 0 0 22 42 27 22 22
30 32 30 28 28 29 41 36 35 35 35 37 41 41 38 41
36 0 0 0 0 0 0 3 49 65 81 89 93 104 114 120
110 102 93 81 91 96 95 87 86 96 99 90 87 78 66 62
66 89 101 94 90 92 98 93 89 83 73 17 0 0 3 31
33 33 33 33 34 33 33 26 6 6 0 0 0 0 0 1
0 7 32 32 33 33 33 32 32 32 32 32 32 32 32 31
31 30 31 30 30 30 30 30 29 29 29 29 29 29 28 27
0 0 0 0 20 42 29 0 0 0 0 20 43 28 22 23
40 49 48 48 50 50 48 38 34 33 33 36 42 44 39 40
32 0 0 0 0 0 0 6 51 67 80 86 92 101 112 119
109 99 89 89 95 84 84 73 76 92 105 106 110 112 100 80
66 74 92 104 94 90 95 90 87 82 74 24 0 0 0 20
33 33 33 34 34 33 32 30 28 27 18 10 0 0 0 2
1 6 24 31 32 32 32 32 32 32 32 32 31 32 31 30
30 31 30 30 31 29 30 29 29 30 29 30 28 29 28 28
0 0 0 0 19 42 28 0 0 0 0 19 44 27 21 23
37 45 45 46 47 48 48 26 14 10 9 13 23 42 38 28
12 0 0 0 0 0 0 10 52 65 79 86 89 98 109 118
108 98 86 96 96 79 66 80 106 118 114 106 109 109 104 96
89 85 92 105 103 92 91 91 87 80 74 32 0 0 0 15
33 33 33 33 33 33 31 34 42 34 11 3 0 0 0 0
0 0 5 12 21 31 33 33 32 32 32 32 32 32 31 31
30 30 30 30 31 30 30 30 29 30 30 29 29 29 27 27
0 0 0 0 17 42 28 0 0 0 0 16 41 26 22 22
25 28 29 28 29 30 32 14 0 0 0 0 6 37 34 9
0 0 0 0 0 0 0 11 52 64 78 86 90 97 107 111
108 100 95 102 91 77 85 103 112 114 113 107 105 106 101 98
91 93 93 99 106 97 90 91 87 79 72 37 0 0 0 10
33 32 29 26 24 22 19 13 6 6 1 0 0 0 0 0
0 0 5 1 9 30 33 32 32 32 32 32 32 31 31 31
30 30 30 30 31 30 30 30 30 30 30 29 29 28 27 26
0 0 0 0 16 42 29 0 0 0 0 15 41 26 20 21
28 33 33 32 31 30 32 15 3 0 0 0 13 38 25 1
0 0 0 0 0 0 0 8 50 62 77 86 90 96 102 109
109 103 104 104 98 94 97 106 107 112 107 102 99 100 98 94
91 91 96 100 104 102 89 89 88 83 73 41 0 0 0 5
32 29 11 6 7 8 7 2 0 0 0 0 0 0 0 0
0 0 5 4 6 31 34 33 33 33 33 32 31 30 30 30
30 30 30 29 30 29 30 30 29 30 30 29 29 28 26 25
8 10 14 18 30 41 27 0 0 0 0 16 45 29 19 21
30 36 36 35 36 36 36 16 2 0 0 0 9 34 19 0
0 0 0 0 0 0 0 5 48 60 76 86 92 96 102 107
108 106 111 108 102 98 102 104 104 103 97 91 86 85 87 89
90 90 91 97 103 103 95 91 89 84 75 51 2 4 1 0
22 22 6 2 4 3 3 1 1 6 2 1 0 0 0 0
0 0 4 5 4 29 34 34 33 32 32 32 31 31 31 31
30 30 30 29 30 30 31 29 29 29 28 29 27 25 24 23
35 37 40 41 40 32 23 13 11 9 6 20 41 27 21 24
30 35 36 37 37 38 39 17 0 0 0 4 4 30 15 0
0 0 0 0 3 0 0 2 46 57 75 85 93 93 99 107
108 108 116 111 105 103 102 99 98 92 87 89 92 89 89 91
91 87 86 90 99 99 97 94 87 86 78 57 15 20 9 0
3 4 4 5 5 6 7 7 6 4 5 13 0 0 0 0
0 0 5 5 4 28 33 33 33 33 32 32 31 30 30 30
30 29 30 29 30 30 30 30 30 29 29 28 27 26 25 24
37 38 39 38 39 36 36 36 35 34 31 33 36 34 33 34
33 34 34 35 35 35 35 27 6 0 0 3 1 28 14 0
0 0 0 0 1 0 0 1 40 54 71 84 91 93 99 105
109 113 117 113 107 103 99 96 94 89 93 96 99 96 97 89
90 88 83 87 93 96 95 93 88 86 81 63 55 46 23 3
4 9 9 9 9 10 9 9 3 1 3 16 1 0 0 0
0 0 6 6 11 25 32 32 32 32 32 31 31 30 31 31
30 27 24 28 29 30 29 30 30 29 28 27 27 25 25 23
32 36 36 35 35 35 35 35 35 35 35 34 34 34 34 34
34 35 34 34 34 34 33 32 12 0 0 3 3 26 15 0
0 0 0 0 1 0 0 5 37 53 66 82 91 94 98 102
107 113 115 113 104 99 95 89 92 94 101 102 105 103 99 98
96 92 86 86 88 91 89 93 90 89 84 68 67 72 42 19
2 6 5 3 3 2 4 9 7 1 6 8 0 0 0 3
2 0 2 8 12 23 32 34 32 33 32 32 31 31 30 30
16 2 4 2 20 30 29 29 28 28 27 27 27 25 24 23
31 36 35 35 35 35 35 34 35 34 34 34 33 33 33 32
33 33 32 32 31 31 31 31 13 0 0 0 0 25 16 0
0 0 0 0 2 0 2 14 37 51 63 78 89 95 96 100
105 111 112 112 105 98 93 89 96 102 106 110 114 108 107 109
110 99 89 86 84 87 85 89 90 90 84 69 64 68 49 40
3 0 0 0 0 0 4 11 9 7 5 2 0 0 0 0
0 0 5 8 9 23 33 33 33 32 32 32 32 32 30 30
11 0 1 0 17 30 29 29 28 27 27 26 26 25 24 24
29 35 32 23 19 18 17 16 15 14 14 13 12 11 11 11
11 10 10 10 10 15 28 31 17 0 0 0 0 20 19 0
0 0 0 0 1 0 5 29 39 50 62 75 88 95 96 101
104 108 109 108 104 98 95 95 97 108 112 114 113 111 103 107
107 100 83 81 80 83 82 86 88 89 83 70 49 44 58 50
11 0 0 0 0 0 7 10 10 9 8 7 9 10 11 11
12 14 17 19 17 20 22 23 20 22 31 32 32 31 31 30
8 0 0 0 10 30 30 28 28 28 27 26 26 26 26 25
28 35 29 7 0 0 0 0 0 0 0 0 0 0 0 0
0 0 0 0 0 6 32 33 24 7 6 13 14 23 29 20
20 10 0 0 0 3 15 35 47 50 60 74 86 95 96 99
101 105 108 103 101 97 95 98 102 107 109 105 106 100 99 98
95 87 77 74 71 76 80 83 86 86 80 68 56 55 85 63
11 0 0 0 0 0 10 10 11 10 30 17 21 25 27 23
25 27 24 23 19 13 35 51 13 15 29 32 32 30 28 27
7 0 0 0 7 30 29 28 28 27 27 27 27 27 26 27
26 34 30 10 0 0 0 0 0 0 0 0 0 0 0 0
0 0 0 0 0 4 32 33 31 31 32 35 33 31 32 41
38 25 0 0 0 6 42 63 45 51 57 71 85 93 97 100
101 102 103 101 87 94 93 96 100 103 96 94 97 90 94 90
81 77 68 65 68 74 76 81 84 83 76 65 73 74 69 69
10 0 0 0 0 1 11 9 10 10 21 17 23 28 44 54
63 70 73 53 20 22 85 114 18 12 27 31 30 10 3 3
0 0 0 0 6 29 29 28 27 27 27 26 27 27 27 27
25 34 31 14 0 0 0 0 0 0 0 0 0 0 0 0
0 0 0 0 0 3 30 34 31 34 37 37 32 26 25 35
37 26 0 0 1 9 52 60 51 55 55 67 81 89 94 98
99 98 100 97 89 89 86 91 96 92 91 87 80 76 80 72
72 68 66 61 63 68 74 79 81 77 72 61 78 101 83 65
3 0 0 0 0 3 11 10 12 8 21 19 25 29 55 75
80 83 84 58 21 46 124 111 69 14 27 31 25 0 0 0
0 0 0 0 4 28 28 28 26 27 27 27 28 27 27 26
24 33 32 17 0 0 0 0 0 0 0 0 0 0 0 0
0 0 0 0 0 1 28 34 30 30 31 35 33 27 22 20
19 14 0 0 13 33 58 52 45 58 54 63 76 84 91 95
96 95 94 94 86 82 80 79 78 85 80 74 70 70 74 71
70 66 65 61 64 67 72 74 77 74 68 54 41 84 79 29
0 0 0 0 0 6 11 11 14 4 16 25 30 32 32 37
38 33 32 30 26 30 46 28 27 20 23 31 26 1 0 0
0 0 0 0 3 28 28 28 27 27 28 27 28 28 27 26
23 33 32 20 1 0 0 0 0 0 0 0 0 0 0 0
0 0 0 0 0 0 26 35 30 22 21 24 24 21 24 21
19 17 0 1 25 54 54 42 48 70 55 57 70 80 86 88
92 92 90 88 83 78 76 73 73 78 79 78 82 86 85 78
75 67 65 64 66 69 69 72 71 68 65 38 0 10 10 0
0 0 0 0 0 9 11 11 14 1 8 28 31 32 22 23
28 18 18 20 23 23 23 22 23 20 23 32 31 11 0 0
0 0 0 0 2 21 28 28 29 28 28 28 28 29 28 27
22 32 32 22 2 0 0 0 0 0 0 0 0 0 0 0
0 0 0 0 0 0 23 35 29 10 1 2 5 10 24 26
32 29 3 4 47 62 71 49 73 70 62 54 63 73 80 82
85 89 88 85 82 75 71 66 68 75 83 86 93 94 92 92
84 74 62 64 64 66 66 66 63 62 60 22 0 0 0 0
0 0 0 0 0 11 10 12 10 0 6 16 28 31 23 22
21 18 16 19 24 24 24 23 22 19 21 31 27 23 1 0
0 0 0 0 0 9 29 28 28 28 29 28 28 29 28 27
22 32 33 24 3 0 0 0 0 0 0 0 0 0 0 0
0 0 0 0 0 0 20 35 29 8 0 0 0 7 26 25
32 29 5 0 39 72 85 76 83 74 70 52 56 67 75 77
76 84 84 74 73 67 70 69 68 78 87 92 94 90 92 85
79 72 65 67 67 65 64 62 63 61 51 4 0 0 0 0
0 0 0 0 2 12 11 12 6 0 1 2 25 31 24 21
17 18 17 20 26 26 25 23 22 18 17 19 2 1 3 0
0 0 0 0 0 7 29 28 29 29 30 29 29 28 27 25
21 31 33 25 4 0 0 0 0 0 0 0 0 0 0 0
0 0 0 0 0 0 16 35 29 10 0 0 0 5 27 23
30 16 1 0 8 66 78 80 84 94 73 50 49 57 68 71
73 76 76 72 68 65 68 73 73 81 86 91 89 85 89 88
81 74 68 65 65 65 65 62 61 58 34 0 0 0 0 0
0 0 0 0 5 12 11 13 4 0 0 4 29 30 24 20
17 19 16 20 25 25 24 23 22 19 4 1 0 0 3 0
0 0 0 0 0 0 22 28 28 28 28 29 27 26 26 24
21 31 33 26 6 0 0 0 0 0 0 0 0 0 0 0
0 0 0 0 0 0 14 35 29 12 0 0 0 6 27 22
30 14 0 0 0 27 82 91 98 97 54 14 41 50 59 67
71 71 68 67 63 60 63 67 71 78 86 90 91 90 88 87
80 75 70 71 66 67 65 63 62 55 17 0 0 0 0 0
0 0 0 0 8 12 11 13 2 1 14 13 33 30 25 18
14 18 16 20 25 24 25 23 22 20 2 0 0 4 0 0
0 0 0 0 0 0 13 26 26 27 28 27 27 25 25 23
20 30 32 26 6 0 0 0 0 0 0 0 0 0 0 0
0 0 0 0 0 0 11 34 30 14 0 0 0 7 28 24
31 15 1 3 1 1 25 69 79 53 8 0 19 45 54 62
65 64 65 62 59 61 63 65 67 78 84 88 92 92 90 86
77 77 73 75 71 68 68 67 61 50 8 0 0 0 0 0
0 0 0 0 10 12 13 12 0 5 13 13 35 28 22 11
6 17 16 20 26 24 24 23 23 20 1 0 2 7 0 0
0 0 0 0 0 0 1 6 6 21 27 27 26 25 25 23
20 29 32 27 8 0 0 0 0 0 0 0 0 0 0 0
0 0 0 0 0 0 9 34 29 16 0 0 0 6 27 23
31 15 1 15 6 0 0 1 4 0 0 0 9 45 44 55
59 60 60 60 60 61 64 63 72 78 86 91 92 90 87 83
79 77 76 73 73 68 70 71 64 53 6 0 0 0 0 0
0 0 0 1 12 12 13 9 0 3 8 17 35 24 17 3
5 15 16 20 25 24 24 24 24 22 4 3 8 8 3 2
2 1 1 0 1 0 0 0 0 20 28 28 28 27 26 24
19 28 32 28 9 0 0 0 0 0 0 0 0 0 0 0
0 0 0 0 0 0 8 34 31 18 0 0 1 4 28 24
32 19 2 17 11 3 0 0 0 0 0 0 8 41 47 44
53 54 57 61 64 66 68 68 72 80 85 93 95 88 88 85
86 81 82 75 74 73 75 74 69 57 12 0 0 0 0 0
0 0 0 4 13 12 14 6 0 23 21 25 33 23 16 1
5 14 16 21 26 25 24 24 24 23 8 10 11 10 8 6
4 2 1 4 7 8 10 12 17 30 35 35 35 36 35 34
18 27 32 28 10 0 0 0 0 0 0 0 0 0 0 0
0 0 0 0 0 0 6 33 30 19 0 3 8 4 28 26
33 25 7 16 14 1 0 0 0 0 0 0 1 34 52 52
47 53 59 61 66 70 72 68 71 82 86 97 97 94 93 90
90 86 83 79 76 74 79 79 77 61 22 0 0 0 0 0
0 0 0 6 12 12 13 3 9 61 33 28 33 23 15 5
11 15 15 22 26 25 23 24 25 23 6 1 2 1 0 0
0 0 0 28 37 37 38 39 39 39 40 39 40 39 38 38
18 26 32 28 12 0 0 0 0 0 0 0 0 0 0 0
0 0 0 0 0 0 5 32 30 21 5 8 17 15 30 28
34 25 12 16 14 3 0 0 0 0 0 0 0 16 51 61
57 58 62 67 69 73 75 71 71 82 91 97 99 98 97 95
92 90 84 80 74 78 82 84 81 64 38 0 0 0 0 0
0 0 0 9 12 13 13 1 10 46 21 32 31 23 19 11
16 16 17 25 26 25 24 24 24 23 5 0 0 0 0 0
0 0 3 36 37 37 37 38 37 37 36 37 36 36 35 36
17 26 31 28 12 0 0 0 0 0 0 0 0 0 0 0
0 0 0 0 0 0 4 31 30 28 33 35 38 38 42 31
34 20 14 16 23 14 5 0 0 0 0 0 0 4 50 63
64 64 66 69 72 72 73 75 79 84 93 100 102 101 98 97
96 92 86 78 77 80 85 87 82 69 52 4 0 0 0 0
0 0 0 11 12 14 11 0 1 14 16 34 30 27 20 17
15 18 18 26 28 25 23 24 24 22 6 0 0 0 0 0
0 0 10 31 28 31 33 34 32 31 25 28 29 27 32 36
17 24 31 28 13 0 0 0 0 0 0 0 0 0 0 0
0 0 0 0 0 0 4 31 30 30 45 47 47 47 47 38
32 15 5 14 25 18 12 1 0 0 0 0 0 0 47 64
67 69 70 72 73 73 75 78 83 88 99 103 102 104 100 101
100 96 87 79 78 80 86 87 83 72 60 10 0 3 5 6
6 5 7 13 12 14 8 0 1 7 18 36 28 27 20 17
15 18 19 26 26 24 23 24 23 22 6 0 0 0 0 0
0 0 4 9 6 12 22 29 24 22 19 19 22 24 32 36
16 23 31 28 13 0 0 0 0 0 0 0 0 0 0 0
0 0 0 0 0 0 3 30 30 28 36 36 36 34 33 29
31 15 0 11 25 21 20 9 0 0 0 0 0 0 43 66
69 72 76 74 74 75 75 83 85 90 99 105 110 109 104 103
101 96 89 80 76 83 86 86 83 74 64 17 1 10 12 12
12 12 13 13 12 15 6 0 1 5 23 35 28 27 19 17
15 19 19 27 26 25 23 24 23 21 6 0 0 0 0 0
0 0 0 0 0 4 23 30 31 30 29 30 31 30 32 35
16 23 31 29 13 0 0 0 0 0 0 0 0 0 0 0
0 0 0 0 0 0 3 30 30 24 18 17 16 16 16 16
29 16 0 9 25 22 23 18 10 0 0 0 0 0 41 67
70 75 80 79 77 76 78 85 83 89 99 105 111 111 107 102
101 98 89 81 79 80 85 86 80 76 67 22 5 12 13 12
12 12 13 12 13 17 3 0 9 12 28 33 27 27 18 16
14 19 20 26 25 24 24 24 24 23 7 0 0 0 0 0
0 0 0 0 0 2 29 34 34 34 34 33 33 33 33 34
15 22 31 28 14 0 0 0 0 0 0 0 0 0 0 0
0 0 0 0 0 0 2 29 30 24 17 16 15 16 16 16
29 20 5 15 26 21 22 21 19 4 0 0 0 0 36 67
73 78 83 84 79 78 78 82 84 92 98 106 110 111 106 102
100 97 92 81 80 82 85 84 80 77 71 34 27 19 18 15
16 22 23 15 7 9 0 1 20 24 34 31 27 27 15 14
14 18 21 26 26 24 25 24 23 21 7 0 0 0 0 0
0 0 0 0 0 0 27 35 34 34 33 32 33 31 33 32
15 21 30 28 14 0 0 0 0 0 0 0 0 0 0 0
0 0 0 0 0 0 3 30 30 24 21 20 19 18 17 17
31 29 27 32 28 20 22 21 20 14 0 0 0 0 26 68
74 79 85 86 81 76 78 80 87 91 100 108 111 111 109 105
98 97 92 83 81 82 85 84 83 80 73 59 107 99 91 59
32 26 23 26 28 9 0 40 79 23 35 29 27 24 12 11
14 16 20 25 26 25 24 24 23 21 7 0 0 0 0 0
0 4 0 0 0 0 12 23 25 28 21 22 23 21 22 25
14 20 29 27 14 0 0 0 0 0 0 0 0 1 2 3
4 5 7 9 10 12 16 29 27 24 22 21 21 21 18 17
25 23 22 25 23 20 22 21 20 18 8 0 0 0 15 64
74 81 88 87 82 78 78 82 90 93 97 107 113 114 110 104
98 96 93 85 79 83 85 85 85 82 73 77 129 123 109 65
10 8 9 11 16 29 18 92 128 35 35 27 26 23 15 10
7 15 20 24 24 24 24 23 22 21 8 0 0 0 0 0
3 8 0 0 0 0 6 24 27 25 22 24 23 18 23 23
13 19 29 27 20 8 8 10 12 14 15 17 20 21 22 23
24 25 25 24 25 25 24 24 24 24 22 21 21 21 19 17
18 16 14 16 19 20 21 20 19 18 17 7 0 0 5 57
71 81 87 87 83 80 76 78 88 94 98 102 111 114 106 99
97 95 90 85 83 85 85 85 84 87 79 73 123 123 109 68
9 7 8 6 23 11 22 84 96 24 36 24 19 14 4 2
4 3 12 16 20 22 21 21 20 22 9 0 0 0 0 0
13 8 0 0 0 0 4 32 33 29 32 32 31 28 31 31
13 18 28 29 28 26 25 26 29 29 28 27 27 27 27 27
27 26 26 25 25 25 25 24 24 23 22 22 21 21 19 19
19 17 15 16 19 20 20 19 19 18 18 14 2 0 0 49
75 83 89 86 81 78 81 82 88 91 95 100 109 115 106 95
98 100 95 88 85 83 86 94 92 91 85 74 114 109 86 32
5 4 4 8 31 4 5 37 24 26 37 17 2 0 0 0
0 0 0 7 26 18 18 17 16 21 10 0 0 0 0 0
17 3 0 0 0 0 0 27 35 35 35 35 35 33 33 32
12 18 28 29 29 28 23 25 28 28 28 27 27 27 29 30
21 15 18 22 20 12 20 21 20 21 22 21 21 21 20 19
20 18 15 16 18 19 19 19 18 18 18 18 9 2 0 36
74 85 92 91 86 79 78 83 90 93 96 98 104 109 101 94
100 100 96 91 88 86 92 99 98 95 88 70 44 32 19 5
6 7 21 44 60 63 70 73 74 73 49 22 11 0 0 0
0 0 0 0 21 12 16 17 10 14 13 4 1 0 0 0
2 0 0 0 0 0 0 7 26 28 27 28 28 28 31 32
11 16 27 28 28 27 24 24 25 25 25 23 23 34 50 35
3 0 0 2 2 0 4 13 13 11 9 7 7 12 19 20
20 18 15 15 17 19 19 18 19 18 18 18 15 8 0 25
71 85 94 95 90 82 84 86 89 90 90 91 94 99 95 95
102 105 102 98 92 90 96 101 101 96 89 71 16 10 6 6
7 23 80 85 93 96 88 82 92 93 59 31 27 0 0 0
0 0 0 0 10 10 13 16 14 14 5 9 4 0 0 0
0 0 0 0 0 0 0 3 9 18 19 19 18 21 29 32
4 7 13 13 12 11 9 7 8 9 13 14 26 58 49 9
0 0 0 0 0 0 0 0 0 0 0 0 0 0 13 21
19 18 17 15 17 19 19 18 19 18 18 18 17 12 3 19
70 83 96 98 88 83 85 90 94 95 97 96 97 100 100 101
107 107 105 99 93 92 98 104 103 98 89 73 36 22 24 39
58 77 93 89 93 96 90 84 91 92 55 4 2 0 0 1
1 1 2 2 4 14 14 5 3 3 0 0 0 0 0 0
0 0 0 0 0 0 0 5 8 20 29 29 28 29 32 32
0 0 0 0 0 0 0 1 1 1 15 18 45 58 20 0
0 0 0 0 0 0 0 0 0 0 0 0 0 0 9 22
20 18 17 16 18 18 18 18 17 18 18 17 18 15 10 19
65 80 94 96 91 85 85 91 96 98 100 101 100 103 103 103
108 108 106 99 93 93 101 104 104 98 88 73 55 51 55 73
54 42 64 74 70 62 62 64 62 65 45 20 20 16 13 14
8 4 7 3 2 4 2 0 0 0 0 0 0 0 0 0
0 0 0 0 0 0 0 0 1 6 30 35 34 34 34 33
0 0 0 0 0 0 3 7 5 4 16 27 54 36 4 0
0 0 0 0 0 0 0 0 0 0 0 0 0 0 13 24
22 20 19 19 18 18 18 18 17 18 18 18 18 18 16 16
62 79 90 95 92 87 87 92 97 99 100 104 102 104 105 105
108 109 108 99 94 94 103 105 105 97 87 72 63 77 82 86
113 129 133 132 125 84 66 48 32 26 15 10 8 4 2 2
0 0 0 0 0 0 0 0 0 0 0 0 0 0 0 0
0 0 0 0 0 0 0 0 0 0 24 35 35 35 34 34
1 2 0 0 0 0 4 10 10 9 5 39 53 12 0 9
14 0 0 0 0 0 0 0 0 0 0 0 0 12 24 25
24 22 21 20 18 18 18 17 17 18 18 18 17 18 17 17
58 76 90 97 97 92 88 90 93 99 104 106 104 105 108 106
110 110 107 101 98 96 104 108 108 100 87 70 41 34 34 60
80 99 108 103 81 31 27 40 42 38 7 0 0 0 0 0
0 0 0 0 0 0 1 0 0 0 0 0 0 0 0 0
0 0 0 0 0 0 0 0 0 0 17 35 35 34 35 34
4 3 2 0 0 1 7 15 15 11 3 46 46 11 22 35
35 8 0 6 4 0 0 0 0 0 0 0 0 7 12 12
10 14 19 18 16 16 16 16 16 16 17 16 16 16 17 16
52 73 90 97 100 98 95 93 89 93 104 108 105 106 111 111
111 108 105 102 97 99 107 111 109 101 89 72 24 0 6 72
84 101 116 113 111 42 25 53 53 46 10 0 2 6 9 14
24 36 17 38 41 31 55 60 62 19 0 0 0 0 0 0
0 0 0 0 0 0 0 0 0 0 10 34 32 32 31 31
4 4 5 7 11 16 18 15 14 5 7 48 28 9 30 39
39 15 4 29 29 13 0 4 8 4 0 0 0 0 0 0
0 2 15 16 15 14 14 13 14 13 14 14 13 14 14 15
44 67 87 98 100 99 96 89 84 92 102 107 107 107 112 113
110 108 108 104 100 101 108 111 110 103 92 74 50 51 51 61
22 52 90 26 21 18 25 48 48 45 81 83 103 113 120 125
126 128 85 131 111 101 125 113 108 47 0 0 0 1 0 0
0 0 0 0 0 0 0 0 0 0 2 26 26 26 25 25
3 3 5 7 15 20 16 6 5 0 13 53 22 4 33 40
39 13 21 44 40 27 3 3 2 0 0 0 0 0 0 0
0 0 12 14 13 13 12 11 12 12 11 12 12 14 28 33
46 64 82 95 99 99 96 86 82 87 96 107 109 109 112 114
113 113 111 103 99 104 110 112 112 106 98 78 57 40 28 43
96 79 80 6 1 16 27 49 47 45 88 82 76 85 93 102
112 116 67 82 76 100 93 60 58 42 0 12 5 15 1 0
0 0 0 0 0 0 0 0 0 0 0 21 26 28 27 25
0 1 1 5 14 19 8 0 0 0 17 57 23 5 24 12
27 28 40 49 39 28 7 5 1 0 0 0 0 0 0 0
0 0 11 13 13 12 11 10 11 11 11 12 14 53 31 32
49 63 81 93 99 102 96 86 83 88 97 106 114 116 117 117
114 111 108 101 99 105 112 113 111 108 102 86 64 50 52 35
100 109 80 7 1 15 28 50 45 44 58 64 65 76 78 96
94 89 52 66 101 103 82 88 83 38 2 11 5 9 1 0
0 0 0 0 0 0 0 0 0 0 0 8 26 28 26 26
0 0 0 5 13 17 6 0 0 0 19 58 30 6 12 2
23 39 51 45 25 26 10 1 0 0 0 0 0 0 0 0
0 0 8 14 14 13 11 10 10 10 12 24 67 101 39 40
52 63 81 92 97 100 100 89 84 86 94 100 111 115 115 115
112 111 107 101 99 106 114 112 111 109 105 91 71 58 47 57
112 114 104 59 35 29 27 51 48 45 60 66 56 72 67 67
57 38 39 50 62 51 34 34 38 18 0 3 2 0 0 0
0 0 0 0 0 0 0 0 0 0 0 0 24 27 25 26
4 2 2 7 14 16 7 6 4 0 19 60 45 15 9 3
29 46 54 30 2 21 8 0 0 0 0 0 0 0 0 0
0 0 8 27 28 25 13 11 27 49 69 97 107 107 57 38
54 62 80 89 96 100 100 90 83 85 93 98 107 112 111 112
114 111 108 102 103 110 112 110 110 109 108 97 78 59 55 108
123 119 121 120 115 95 61 65 54 45 27 15 19 11 17 7
8 10 10 11 25 19 15 13 0 0 1 2 0 6 0 0
0 0 0 0 0 0 0 0 0 0 0 1 26 27 25 26
6 5 5 15 22 22 17 19 14 0 13 51 48 23 3 2
30 48 38 14 0 21 8 0 0 0 0 0 0 0 0 0
0 0 10 38 48 59 72 88 93 110 118 121 115 108 96 42
53 63 79 88 93 98 98 91 85 84 91 97 103 110 111 113
113 110 107 104 106 111 112 109 109 112 112 101 82 54 99 126
126 125 129 129 118 105 106 115 125 115 88 47 22 14 20 25
29 30 28 19 34 33 22 20 0 0 8 3 1 7 5 0
0 0 0 0 0 0 0 0 0 0 0 2 26 27 28 27
5 4 9 26 24 22 19 18 14 0 9 51 52 31 1 3
27 30 9 1 0 3 0 0 0 0 0 0 0 0 0 0
12 42 83 109 123 127 122 109 111 113 125 131 122 114 122 90
52 63 78 86 93 98 99 94 89 87 92 98 99 109 112 112
112 111 107 106 110 112 111 109 111 116 115 102 75 90 130 124
127 128 129 130 118 107 107 104 116 129 128 123 108 81 60 43
43 47 45 21 29 28 28 38 2 0 6 3 0 0 2 1
0 0 0 0 0 0 0 0 0 0 0 2 25 24 28 26
6 1 3 16 24 26 26 23 18 1 3 33 30 15 0 0
2 1 0 0 0 0 0 0 0 0 0 0 1 20 51 88
109 115 119 122 123 118 111 109 119 120 127 129 129 123 120 122
90 63 79 85 92 96 99 96 94 91 94 99 101 111 114 114
114 111 109 108 110 111 110 109 111 118 114 73 94 130 128 128
131 131 129 125 113 110 108 105 109 110 120 126 130 123 111 102
94 79 62 25 32 41 65 75 5 1 7 1 2 0 1 0
0 0 0 0 0 0 0 0 0 0 0 5 25 23 26 29
9 2 0 2 10 14 12 6 3 0 0 1 0 0 0 0
0 0 0 0 0 0 0 0 0 0 21 59 92 109 118 127
131 130 127 122 117 114 115 114 120 120 125 136 135 128 118 123
125 93 81 90 95 98 101 102 98 96 97 100 103 113 117 118
117 114 110 111 114 111 110 111 115 125 124 111 131 129 130 132
130 128 127 119 113 111 108 109 119 112 109 117 121 128 126 119
109 107 107 98 78 56 64 83 7 1 2 0 0 1 0 0
0 0 0 0 0 0 0 0 0 0 0 12 25 24 26 29
4 0 0 0 0 0 0 0 0 0 0 0 1 4 4 0
1 2 5 0 4 7 0 11 48 87 108 112 118 125 130 134
132 121 118 116 114 116 121 121 122 123 125 136 136 131 128 120
121 127 111 96 101 99 101 104 105 101 102 105 110 118 121 119
119 116 114 116 117 112 111 110 119 127 130 132 130 131 133 131
131 131 126 121 119 121 114 108 120 120 111 119 116 119 123 124
121 109 113 111 107 103 98 79 16 6 0 1 0 1 0 0
0 0 0 0 0 0 0 0 0 0 0 13 27 26 26 28
0 0 0 0 0 0 0 0 0 0 0 0 20 29 23 11
15 18 21 9 17 35 67 102 107 103 100 97 110 127 128 127
124 124 113 112 118 121 121 123 123 125 128 133 136 136 132 125
124 121 128 123 113 105 102 104 108 110 109 109 117 120 122 121
121 120 117 118 116 113 107 98 119 133 132 130 129 132 132 132
132 128 124 123 120 124 116 113 121 129 114 120 122 119 121 124
119 118 113 118 115 114 111 107 97 60 13 3 0 0 4 2
0 0 0 0 0 0 0 0 0 0 2 16 30 31 30 31
0 0 0 0 0 0 0 0 0 0 0 0 19 31 31 41
28 31 31 46 87 108 108 65 57 56 53 55 57 96 117 120
119 122 133 126 120 124 124 123 129 131 134 132 135 136 135 131
129 125 125 132 133 127 114 107 108 112 113 115 118 122 124 122
124 122 121 121 117 115 121 131 133 132 132 132 131 132 132 132
131 127 125 127 129 127 124 115 120 128 121 122 128 125 124 126
120 118 118 119 125 124 121 117 111 104 90 45 2 0 4 4
0 1 0 0 0 0 0 0 0 0 2 17 29 30 30 31
5 0 0 0 0 0 0 0 0 0 0 0 4 24 35 44
37 48 77 108 114 116 109 59 54 56 65 57 59 96 127 122
120 123 121 130 126 120 125 125 134 135 135 135 134 136 135 135
135 129 122 128 135 133 132 130 124 122 121 120 119 122 121 120
122 124 126 129 130 128 130 132 132 132 133 133 132 132 132 130
131 131 125 129 129 126 128 120 124 128 124 122 127 127 123 124
124 116 121 116 123 125 121 122 115 108 101 100 68 11 6 2
0 0 0 0 0 0 0 0 0 0 1 10 21 23 24 27
1 0 0 0 0 0 0 0 0 0 0 0 0 13 28 34
68 100 110 117 119 126 114 56 53 47 55 49 64 108 135 137
137 131 122 119 129 126 124 130 134 135 134 135 136 134 136 136
135 135 129 127 127 133 131 129 126 132 134 135 130 128 129 129
131 133 132 133 133 130 128 130 133 132 132 132 132 131 129 129
132 131 130 130 130 129 129 122 118 128 128 122 126 126 125 123
125 121 120 119 117 125 126 125 116 112 112 113 105 86 33 1
0 0 0 0 0 0 0 0 0 0 1 16 27 29 29 30
0 0 0 0 0 0 0 0 0 0 0 0 0 1 17 71
107 118 122 124 133 131 126 94 98 73 49 49 55 95 120 119
120 128 135 123 101 88 114 135 134 135 136 135 135 136 136 136
136 135 134 134 135 134 126 128 130 131 133 134 133 130 128 133
133 132 129 128 132 132 132 130 131 131 127 131 130 131 132 132
131 131 131 130 130 130 130 124 119 127 129 124 128 129 129 126
125 126 116 126 121 126 127 125 121 120 114 119 114 105 92 38
1 0 1 0 0 0 0 0 0 0 1 15 26 29 29 30
0 0 0 0 0 0 0 0 0 0 0 0 0 5 71 102
113 127 131 123 131 126 129 122 112 110 118 81 52 95 121 121
120 119 116 90 88 91 122 136 134 133 133 135 136 136 137 136
135 135 135 135 135 133 130 131 130 130 130 131 130 133 129 125
127 127 125 130 133 131 132 133 133 132 130 132 131 132 131 131
131 132 131 130 131 130 130 126 119 124 129 127 127 128 128 127
127 127 118 121 123 125 126 126 124 124 117 122 121 114 104 93
36 1 0 0 0 0 0 0 0 0 0 12 23 26 26 28
0 0 0 0 0 0 0 0 0 0 0 0 2 65 105 106
116 127 135 132 132 129 128 127 133 136 114 110 127 134 138 138
138 134 111 94 113 132 135 132 134 135 136 135 135 135 135 136
136 135 135 135 135 135 131 131 132 130 133 134 131 131 125 129
131 129 130 131 131 130 132 132 132 131 132 131 131 131 130 130
130 130 130 129 129 128 128 129 125 120 127 126 126 127 127 126
126 126 122 115 125 124 126 125 125 123 118 124 123 118 113 104
93 42 1 0 0 0 0 0 0 0 0 8 18 21 22 25
0 0 0 0 0 0 0 0 0 0 0 4 59 107 111 109
118 123 137 137 137 132 124 120 120 118 119 130 119 116 113 112
112 113 123 135 136 136 136 135 135 135 135 136 135 136 135 134
136 135 135 135 134 135 134 131 126 131 133 134 133 131 130 130
127 128 132 131 132 131 131 131 129 130 131 131 130 131 131 130
130 130 130 129 129 129 129 128 126 123 125 127 126 127 127 126
127 126 125 113 124 124 125 125 124 124 115 123 124 122 116 111
106 93 47 2 0 0 0 0 0 0 0 1 2 3 4 12
0 0 0 0 0 4 4 1 0 0 0 52 104 112 120 115
126 119 137 135 131 130 128 132 138 138 136 123 120 121 131 137
137 136 136 136 136 135 135 134 134 135 135 135 135 135 135 134
135 134 134 134 134 134 134 133 132 131 132 133 133 131 131 128
128 130 132 132 132 131 131 131 130 129 130 130 130 130 129 129
129 129 128 127 128 128 128 127 122 121 123 126 126 127 127 126
125 125 125 115 119 124 124 125 124 124 119 123 124 124 121 113
109 102 95 54 3 0 0 0 0 0 0 0 0 0 0 5
0 1 2 2 0 3 4 5 2 0 33 103 111 116 124 120
122 117 135 135 130 133 127 105 112 108 105 129 136 135 134 136
136 136 135 136 135 135 135 134 134 135 134 134 135 135 135 134
135 134 134 134 134 134 134 133 133 133 133 131 130 131 132 131
130 131 129 131 131 131 130 130 130 130 130 129 130 129 129 129
128 128 128 128 128 127 127 127 127 122 121 124 126 125 125 125
125 125 125 119 117 124 123 124 124 124 119 122 124 123 122 121
114 105 102 98 54 2 0 0 0 0 0 0 0 0 0 4
0 0 2 1 0 0 3 6 5 17 95 106 117 120 126 126
124 119 130 135 134 134 124 116 134 134 135 135 135 135 136 135
136 135 135 135 135 135 134 134 133 135 134 134 134 134 134 134
134 133 133 133 133 134 132 132 133 133 132 131 132 132 131 131
131 130 130 130 130 130 130 129 130 128 128 128 128 128 128 128
127 127 126 126 127 127 127 126 126 124 120 121 124 125 125 124
124 125 124 118 108 123 124 123 124 124 120 119 124 124 122 121
118 115 112 101 96 48 1 0 0 0 0 0 0 0 0 4
0 0 4 3 2 0 1 5 13 87 107 108 124 132 127 132
123 121 127 136 135 133 115 59 61 66 63 124 134 135 136 135
135 135 135 129 113 103 101 133 134 135 134 134 134 134 134 134
134 134 134 134 133 133 132 132 133 132 132 131 132 131 131 132
131 131 130 131 131 130 130 130 130 130 130 129 129 130 129 128
128 127 128 128 127 127 127 127 127 125 120 120 125 126 126 125
126 125 125 122 109 120 124 124 124 124 123 122 124 124 123 124
119 117 113 109 103 96 39 0 0 0 0 0 0 0 0 4
0 0 5 5 6 3 1 2 60 116 111 113 124 130 135 131
116 124 121 134 134 134 117 43 26 29 30 84 94 115 128 131
127 117 101 87 89 93 98 133 135 134 135 134 134 134 134 134
134 134 133 134 134 133 133 132 133 133 133 133 132 132 132 132
132 131 131 132 132 132 131 131 131 130 130 130 129 129 130 129
129 129 127 128 129 127 127 128 127 127 125 122 124 127 126 126
126 126 126 124 109 119 125 124 125 125 124 123 125 124 124 124
123 120 117 114 109 99 100 43 0 0 0 3 13 14 13 13
0 0 2 5 7 8 6 30 106 111 116 115 125 137 136 132
114 130 115 131 132 135 116 44 26 27 29 72 87 81 89 91
89 87 86 88 92 95 96 131 136 135 135 134 134 135 135 135
135 134 134 134 134 134 133 133 133 133 133 133 133 133 132 132
133 132 132 132 132 132 132 132 132 131 131 131 131 131 130 130
129 129 130 128 127 128 127 127 128 127 127 122 122 126 126 127
127 127 127 126 109 116 126 126 125 125 125 121 125 124 125 124
124 124 122 120 117 108 100 79 5 0 0 4 18 22 23 21
0 0 0 2 7 9 10 84 113 112 117 125 128 131 136 135
117 130 114 132 133 135 116 46 25 28 29 64 90 85 85 87
89 92 89 93 96 98 94 131 135 135 136 135 135 135 135 135
134 134 133 134 133 133 133 134 134 134 134 133 134 133 133 133
132 132 132 132 132 132 131 131 132 131 131 131 131 131 130 130
129 129 129 129 129 128 128 127 127 127 127 123 121 127 127 126
127 127 126 126 110 112 125 124 125 125 126 122 125 124 125 125
124 124 124 121 120 115 109 106 51 0 0 0 0 1 2 3
0 0 0 0 7 9 28 112 111 117 123 128 125 130 134 135
115 132 118 126 130 135 117 50 23 28 29 38 106 131 119 119
130 120 93 96 97 94 90 131 135 135 134 134 134 135 135 134
134 134 134 134 133 133 134 133 133 133 132 132 133 132 133 133
132 132 132 132 132 131 131 131 132 131 131 130 130 130 129 129
128 127 127 127 129 128 127 127 127 127 127 125 122 123 127 127
127 127 126 126 114 110 124 126 125 124 125 120 124 124 125 124
124 124 124 123 119 123 118 109 102 26 0 0 0 0 0 0
0 0 0 0 1 8 87 119 121 120 128 125 125 133 136 136
116 130 123 124 129 134 108 48 23 28 28 29 93 136 135 135
136 126 96 96 96 91 90 134 135 135 135 134 134 134 134 134
134 134 133 134 134 133 134 133 133 133 133 133 133 133 133 132
132 132 132 132 131 132 132 132 131 131 131 131 130 130 129 129
129 129 129 128 127 128 127 127 127 128 128 126 123 124 127 127
127 127 127 127 115 108 124 126 126 126 126 121 124 125 125 125
125 125 124 123 123 122 121 108 110 82 7 0 0 0 0 0
0 0 0 0 0 26 129 115 125 135 128 127 132 132 129 132
121 130 130 118 129 131 107 49 22 28 29 30 84 137 136 136
136 130 97 95 92 86 90 133 135 135 135 135 134 134 134 134
135 135 134 135 134 134 134 133 133 133 133 133 133 133 132 132
133 132 132 132 132 132 132 132 132 132 132 130 130 130 130 129
128 129 129 127 128 128 128 128 127 127 127 127 124 120 127 127
127 127 126 126 116 106 124 126 126 126 125 121 124 125 125 125
125 125 124 124 124 123 119 116 113 109 53 0 0 0 0 0
0 0 0 0 0 77 132 116 126 136 136 124 124 132 131 134
117 129 131 121 121 131 110 49 22 28 29 30 79 137 136 135
136 132 97 91 87 83 92 134 135 134 135 134 134 135 134 134
134 134 134 134 134 133 134 134 133 134 133 133 134 133 133 132
132 132 133 132 132 132 131 131 131 131 131 130 131 130 130 130
129 129 130 128 128 128 128 129 129 127 127 128 126 122 127 127
127 127 127 127 118 105 122 125 127 126 125 121 125 126 126 125
125 125 125 125 124 124 123 115 110 113 106 26 0 0 0 0
0 0 2 0 14 127 126 118 129 136 136 133 129 131 135 136
119 124 133 121 107 134 114 49 22 28 30 30 74 135 135 135
135 132 95 87 85 82 95 135 134 135 134 134 134 134 134 135
134 134 133 133 133 133 133 133 133 133 132 132 132 133 132 132
132 132 132 132 132 132 132 131 131 130 131 131 130 130 129 128
128 128 129 128 127 127 127 128 128 128 127 128 127 121 124 127
127 127 126 126 119 101 118 126 126 126 126 122 124 125 125 125
125 124 124 124 124 124 124 118 109 116 122 78 3 0 0 0
