P2
128 120
151
38 42 50 51 51 49 43 36 36 37 36 36 36 35 35 34
33 33 33 33 32 32 31 31 31 30 29 29 29 29 28 28
28 27 27 26 26 24 24 24 24 24 23 23 22 22 22 21
21 21 22 24 27 26 27 25 19 19 17 24 23 23 23 22
22 22 20 20 20 17 21 21 23 23 23 23 23 23 23 23
23 24 25 25 25 26 26 26 27 27 27 27 27 27 28 28
29 29 29 29 30 30 30 30 30 31 31 31 31 31 31 31
31 31 31 31 31 31 32 32 32 31 32 31 31 31 30 31
5 13 21 30 37 48 48 37 36 36 36 35 35 35 35 34
34 33 33 32 32 32 31 31 31 30 30 29 29 29 27 27
27 27 26 26 25 25 25 24 24 24 23 23 23 22 22 22
21 22 22 23 27 27 27 26 18 19 18 23 24 23 23 23
22 22 21 21 21 18 21 21 23 23 23 24 24 24 24 25
24 24 25 25 25 26 26 26 27 27 28 27 28 28 28 29
29 29 29 29 29 30 30 31 30 32 31 31 31 31 32 32
31 31 32 31 31 32 31 31 31 30 31 32 32 32 32 31
0 0 0 0 1 40 49 38 36 36 36 36 36 36 35 35
34 34 34 33 32 32 32 31 31 30 31 30 29 29 28 28
28 27 27 27 26 25 26 25 25 24 24 23 23 22 22 22
22 22 23 24 28 28 28 26 19 20 20 23 25 24 24 23
22 23 21 21 21 17 21 21 24 24 24 25 26 25 25 25
25 26 26 26 26 26 27 27 27 27 28 28 28 28 29 29
30 29 30 30 30 30 31 30 31 32 31 32 31 32 32 32
31 31 31 31 32 32 32 32 32 32 31 31 31 32 31 32
0 0 0 0 0 37 48 37 36 36 36 35 35 35 35 34
35 34 33 33 33 32 33 32 32 31 31 31 29 29 29 28
28 27 27 27 26 26 25 25 25 25 24 24 23 23 22 22
23 23 23 24 28 28 28 27 19 20 21 22 25 25 24 23
23 25 22 21 21 18 22 23 25 25 25 25 25 25 25 26
26 26 26 26 27 27 27 27 28 28 28 29 29 28 29 29
29 30 30 30 30 30 31 31 31 32 32 31 31 30 30 30
31 31 32 31 31 31 32 32 32 31 32 31 32 31 32 32
3 7 0 0 0 36 48 37 36 36 36 35 36 35 34 34
34 33 33 33 33 32 32 31 31 31 31 30 30 30 29 28
28 28 28 28 27 27 26 25 25 25 24 25 24 23 23 22
22 22 23 25 28 29 28 27 20 21 23 22 26 25 25 24
23 24 22 22 22 19 22 22 25 25 25 26 26 26 26 26
27 27 26 27 26 27 28 28 28 28 29 29 29 29 30 29
29 30 30 31 31 31 31 31 30 30 30 31 31 32 32 32
32 32 31 31 31 31 32 31 31 31 32 31 31 32 31 32
7 7 0 0 0 34 48 37 36 36 37 36 36 35 35 34
34 34 34 33 32 32 32 32 32 31 31 30 30 29 29 28
28 28 28 28 27 27 26 26 26 25 25 25 24 24 23 23
23 23 24 25 29 28 28 28 20 20 25 21 26 26 25 24
24 24 23 22 23 20 23 24 25 25 26 26 27 26 27 26
27 26 26 27 27 28 28 28 28 28 29 29 29 29 29 30
30 30 30 30 30 30 31 31 32 32 31 32 31 31 31 32
32 33 32 32 32 32 32 32 31 32 32 31 32 32 31 32
0 3 1 0 0 35 47 37 36 36 36 36 35 35 35 34
34 34 34 34 33 32 32 32 32 32 31 31 30 29 29 29
29 28 28 27 27 26 27 26 26 25 25 24 24 24 23 23
23 23 24 26 30 29 30 28 21 21 27 20 25 25 25 24
24 24 23 22 22 20 22 23 26 26 26 27 27 27 27 27
27 27 27 28 28 28 29 28 29 29 30 28 29 28 29 29
29 30 31 31 32 32 33 32 32 31 32 32 32 32 32 32
32 33 31 31 32 31 31 32 32 32 32 32 32 32 31 31
0 4 7 0 0 34 47 37 36 36 36 36 36 35 35 35
35 34 34 34 33 33 33 32 32 31 31 30 30 30 30 29
28 28 28 28 28 27 27 27 26 26 26 25 25 24 24 23
23 23 24 25 29 30 30 29 22 22 28 20 26 27 26 25
25 24 24 24 24 21 23 23 26 26 27 27 27 28 27 28
28 28 28 28 28 29 30 29 29 29 29 29 29 29 30 30
30 31 32 32 32 32 32 32 32 32 32 32 32 32 32 32
32 33 32 32 32 32 32 32 32 32 31 31 32 32 31 32
1 2 5 0 0 34 46 37 36 36 35 35 35 35 35 34
34 34 34 33 33 33 33 32 33 32 32 31 31 30 30 29
29 29 29 28 28 28 27 27 26 26 26 25 25 25 24 24
24 23 25 26 30 30 31 29 22 21 29 21 27 27 26 25
25 23 25 24 23 21 23 24 27 27 27 28 28 28 28 28
28 29 28 29 28 28 29 29 29 29 30 30 30 30 31 31
31 31 33 32 32 32 33 33 32 32 32 32 32 32 33 32
32 33 32 32 32 31 32 32 31 32 32 31 31 31 32 32
0 1 3 4 5 36 46 37 36 36 36 36 36 35 35 35
34 34 34 33 33 33 32 32 32 31 31 31 31 30 30 29
29 29 29 28 28 28 27 27 27 26 26 26 25 25 24 24
24 24 25 26 30 30 30 29 21 21 30 21 27 27 26 26
26 23 25 24 24 22 24 24 28 28 28 28 28 28 28 28
27 28 28 28 29 29 29 29 29 29 30 30 30 31 31 31
32 32 33 32 32 32 32 32 33 32 32 32 32 32 32 33
32 33 32 32 32 33 32 32 31 32 32 32 33 32 32 32
27 21 16 13 17 39 45 37 36 36 36 36 35 36 35 35
34 34 34 33 33 33 33 33 33 32 32 31 31 31 30 30
30 29 29 29 28 28 28 27 27 27 27 26 26 25 25 25
25 25 26 27 31 32 30 30 22 21 31 23 26 28 27 26
26 24 25 24 25 23 24 25 28 28 28 27 28 27 28 28
29 29 29 29 30 29 29 30 30 30 31 31 31 31 32 33
32 33 33 32 32 33 33 33 33 32 32 32 32 32 32 32
32 33 33 32 32 33 33 32 32 32 32 32 32 32 31 30
32 34 35 37 37 41 41 36 37 36 36 36 36 35 35 34
35 34 34 34 33 33 33 33 33 32 31 31 31 30 30 30
30 29 29 29 28 28 28 27 27 27 27 26 25 25 26 24
25 25 26 27 31 31 31 30 23 21 31 25 25 28 27 26
26 24 26 25 25 22 23 24 27 28 28 28 28 29 29 29
28 29 29 30 30 29 30 30 30 31 31 31 32 31 32 32
33 32 33 32 33 33 33 33 32 32 33 32 32 32 32 33
33 33 33 32 33 32 32 32 31 31 30 30 31 32 31 32
21 24 28 31 34 35 38 37 37 37 37 36 35 35 35 35
35 35 34 33 33 34 33 33 33 32 32 32 32 31 31 30
30 29 29 29 29 28 28 28 27 27 27 27 26 26 25 25
25 25 26 26 29 29 29 29 22 21 30 25 23 28 28 27
26 27 26 25 26 24 24 27 29 28 29 29 29 29 29 30
29 29 30 30 31 30 30 30 30 30 31 31 32 32 32 32
33 33 33 33 33 33 33 33 33 33 32 33 33 32 33 33
33 32 31 30 31 31 31 31 32 33 33 31 31 32 31 31
14 14 14 17 19 23 27 31 34 35 37 37 37 36 35 35
35 34 34 34 33 33 33 33 32 32 32 32 32 31 31 31
30 30 30 30 29 29 28 28 28 27 27 27 27 26 26 25
25 26 24 17 18 16 13 12 9 10 16 20 21 28 28 28
27 26 27 25 26 24 24 26 29 29 29 29 30 29 30 30
30 30 31 30 31 30 31 31 32 31 31 31 32 32 33 32
33 33 33 33 33 33 33 33 33 33 33 33 32 31 31 31
32 32 32 32 32 32 33 31 32 32 33 30 31 31 31 31
13 13 14 13 13 14 14 15 16 17 21 24 28 30 33 35
35 34 35 34 34 34 34 34 33 33 32 32 32 31 31 31
30 30 30 30 29 29 28 28 28 28 27 26 25 23 18 12
10 4 4 2 4 4 7 11 15 14 11 5 4 11 19 27
28 27 27 26 26 25 25 27 29 29 30 29 30 30 30 30
30 31 31 31 32 31 31 31 31 32 32 32 32 33 33 33
33 33 33 33 33 33 33 33 33 32 33 31 32 33 33 32
32 32 32 32 32 32 32 32 32 32 33 31 32 32 32 32
23 22 21 20 17 16 15 14 15 14 14 14 12 10 16 30
35 34 34 34 34 34 34 33 33 33 33 32 32 32 32 31
31 30 30 30 29 29 30 29 28 27 27 22 19 7 0 0
0 0 0 0 0 0 5 15 23 27 11 4 2 2 1 7
24 28 27 26 26 25 24 27 29 29 30 29 30 30 30 30
30 30 31 32 32 32 32 31 31 31 32 32 33 33 33 33
32 32 32 32 32 32 33 33 33 33 33 33 32 32 33 32
32 32 32 32 32 32 32 31 32 31 32 31 31 31 32 32
43 46 47 44 41 28 19 19 16 13 13 14 12 8 13 29
35 35 35 35 34 33 34 34 34 33 32 32 32 32 31 31
31 30 30 29 32 36 34 31 29 28 22 20 4 0 0 0
0 1 3 5 10 5 2 2 6 16 17 12 2 0 0 4
7 9 16 25 27 25 24 28 29 30 30 30 30 31 31 31
31 31 31 31 32 32 32 32 32 32 33 32 33 33 33 32
32 32 33 33 33 33 33 32 32 32 33 32 32 33 32 32
32 32 32 32 32 32 32 32 32 32 33 32 31 32 31 31
48 47 50 50 49 36 29 36 38 31 29 25 19 12 13 27
36 35 35 34 34 38 38 36 35 34 33 32 33 32 31 31
31 31 30 30 36 43 41 36 35 29 19 4 0 0 0 0
0 0 0 0 3 8 10 8 3 2 16 20 7 1 0 0
2 11 12 10 19 26 25 28 29 30 30 30 31 31 31 31
31 32 32 32 32 31 31 31 32 32 32 32 32 32 33 32
32 32 33 32 32 32 33 32 32 32 33 32 33 33 32 33
33 32 33 32 31 32 32 32 32 32 32 31 31 31 31 31
36 40 46 50 49 38 35 40 43 38 46 46 40 15 14 28
36 35 35 35 36 45 44 43 40 38 36 35 34 33 32 31
30 31 31 30 36 41 38 36 35 24 3 0 0 0 0 0
0 0 0 0 0 0 3 7 12 16 5 4 9 4 0 0
0 1 7 15 12 11 23 28 29 30 31 31 31 31 31 31
31 31 31 31 31 31 32 32 32 32 32 34 32 32 33 33
33 33 33 33 32 32 33 32 32 32 33 32 32 32 32 32
32 32 32 32 32 32 33 33 32 32 32 32 32 32 31 31
5 8 15 20 31 40 38 43 45 46 49 49 46 18 16 31
37 36 36 35 36 45 44 43 40 41 43 42 38 38 36 34
32 31 31 30 33 29 27 29 27 2 0 0 0 0 0 0
0 0 0 0 0 0 0 3 2 2 7 5 0 1 0 0
0 0 3 11 7 8 10 25 29 31 31 31 31 31 31 31
31 31 31 32 32 32 32 32 32 32 32 34 33 33 32 33
33 33 32 33 33 32 33 32 33 32 34 33 33 32 33 33
31 32 32 32 32 32 32 32 32 32 32 32 31 32 31 31
0 0 1 2 13 40 39 42 44 46 48 48 47 22 16 33
39 38 38 37 38 38 33 38 41 44 46 42 29 27 33 35
37 36 35 32 30 16 9 8 2 0 0 0 3 3 2 0
0 2 2 3 1 3 0 0 3 9 6 1 3 1 0 3
5 2 6 7 10 7 6 11 29 30 31 31 31 31 31 32
32 32 32 31 32 32 32 32 32 33 33 34 33 33 33 33
33 34 33 33 33 32 33 32 32 32 33 34 33 32 32 32
32 32 33 33 32 32 33 33 33 33 33 32 32 32 32 31
0 0 12 10 16 38 27 34 38 45 47 46 45 23 16 33
40 34 36 40 44 24 0 8 24 29 32 38 13 0 2 7
14 19 26 29 25 10 1 0 0 0 0 0 0 0 4 11
7 1 2 11 11 8 2 3 1 2 6 10 5 2 2 0
4 14 5 11 6 10 7 2 19 31 31 31 32 32 32 32
32 32 32 32 32 32 33 32 32 33 33 33 34 33 33 32
33 33 33 33 34 33 33 32 33 33 33 33 33 33 32 33
33 33 33 33 33 32 32 34 33 33 32 31 32 31 31 30
0 0 11 10 18 36 2 3 9 16 23 25 39 25 16 29
39 38 37 42 47 27 0 0 8 12 12 29 14 0 0 0
0 0 1 9 22 4 0 0 0 0 0 0 0 3 11 9
2 7 6 0 1 7 4 6 18 6 2 5 6 4 5 6
0 1 11 5 14 9 10 5 2 25 32 32 31 33 33 32
32 32 32 32 32 32 32 33 33 33 33 34 34 34 34 34
33 33 34 33 33 33 34 34 33 33 34 33 32 32 32 33
33 33 33 33 33 33 33 33 33 33 32 31 32 32 32 31
0 0 1 0 14 36 1 0 0 0 0 0 25 25 14 7
9 16 25 35 42 29 0 0 4 5 7 26 17 0 0 0
0 0 0 2 6 0 0 0 0 0 0 0 0 0 2 14
18 4 1 6 6 1 8 10 9 14 7 1 4 9 1 0
3 1 2 10 9 11 7 5 0 3 29 33 32 33 33 33
33 32 33 32 33 33 33 33 34 33 34 35 34 34 34 33
33 34 34 34 34 34 34 34 33 34 34 33 34 33 33 33
33 33 33 33 34 34 33 33 33 33 33 33 33 32 32 31
0 1 2 0 12 36 1 0 0 0 0 0 25 26 14 2
0 0 0 1 6 19 0 0 0 0 1 22 15 0 0 0
1 0 0 1 0 0 0 0 0 0 0 0 0 0 0 0
4 14 13 2 1 5 5 8 15 16 12 5 1 3 5 0
2 3 5 1 7 10 15 9 4 0 10 32 33 33 32 32
33 32 33 33 33 33 33 33 33 34 34 34 34 34 34 34
34 35 34 34 34 34 34 34 34 34 34 33 34 34 34 35
34 34 34 34 34 34 33 33 33 32 32 33 33 33 33 32
11 12 12 0 12 36 1 0 6 7 0 0 24 27 14 2
0 0 0 0 0 12 0 0 0 0 0 24 17 0 0 0
8 6 3 0 0 0 0 0 0 0 0 0 0 0 0 0
0 0 9 9 9 3 5 9 8 11 15 16 8 0 1 1
2 2 3 3 2 8 7 12 7 0 0 22 33 33 32 32
33 33 33 33 33 33 33 33 34 34 34 35 34 34 35 35
35 35 35 34 34 34 34 34 33 34 34 35 34 35 34 33
33 33 33 34 34 34 34 33 33 33 33 34 33 34 34 34
1 4 6 0 12 36 2 1 1 14 0 0 23 27 15 2
0 0 0 0 0 9 0 0 0 0 0 25 19 0 0 1
8 11 6 1 0 0 0 0 0 0 0 2 4 6 3 2
0 0 1 2 8 13 2 5 10 7 6 17 9 4 5 4
1 1 0 4 1 5 7 7 8 3 0 3 30 34 34 33
33 34 33 33 33 33 34 34 34 34 35 35 35 34 35 34
35 35 35 35 35 35 34 35 34 34 34 34 34 34 34 34
34 32 34 35 35 34 34 34 35 35 35 35 34 34 34 34
3 4 0 0 11 34 1 0 0 2 0 0 24 25 14 2
0 0 6 0 0 8 0 0 0 0 0 23 21 0 0 1
6 10 1 1 2 0 0 0 0 0 1 2 6 7 13 13
13 5 10 6 3 8 12 2 5 9 3 3 8 2 1 0
2 1 0 1 7 4 7 9 4 2 0 0 14 34 33 33
33 34 34 34 35 34 34 34 34 34 34 34 34 34 34 34
34 35 36 36 35 35 35 35 35 35 35 35 35 34 34 34
34 34 34 35 35 35 35 35 35 34 32 32 32 33 33 33
1 5 0 0 11 32 0 1 1 0 0 0 23 26 15 3
6 4 4 0 0 8 1 0 0 0 3 25 26 0 0 0
3 9 3 9 3 0 0 0 0 0 2 7 15 11 11 19
19 9 8 4 7 6 4 4 2 7 7 0 0 0 0 0
1 6 1 6 13 6 11 4 5 2 0 0 2 31 34 35
35 34 35 34 35 35 35 35 35 35 35 34 34 34 35 35
35 36 35 36 35 35 35 35 35 35 35 35 34 35 35 34
34 34 35 35 33 34 33 34 33 29 27 25 23 20 17 14
30 28 22 16 24 34 3 1 2 1 0 0 26 25 16 5
6 0 1 0 0 12 4 0 0 0 3 27 38 17 12 7
2 3 5 7 0 0 0 0 0 3 18 26 28 23 20 32
30 19 12 14 8 11 5 0 2 0 2 4 0 0 0 0
0 4 9 10 18 9 6 18 2 0 0 0 0 18 35 35
35 35 35 34 35 35 35 35 35 35 36 35 35 35 36 36
36 36 37 37 35 35 35 34 34 35 34 33 33 33 34 32
32 31 31 28 25 22 20 17 16 14 14 13 13 13 14 13
34 41 44 45 42 49 42 24 29 29 28 25 35 24 15 5
0 0 0 0 0 23 36 26 24 19 11 27 46 29 28 21
12 5 2 4 0 0 0 0 0 13 39 49 60 52 41 44
48 38 22 17 14 6 6 4 1 0 0 1 4 2 1 0
0 0 7 9 6 12 5 12 3 0 0 0 0 8 34 35
35 35 35 35 36 35 35 35 35 34 35 35 35 35 36 36
35 35 36 36 34 34 34 32 33 33 32 31 28 26 23 21
19 17 16 15 15 14 15 16 16 17 18 19 19 19 19 20
17 17 14 13 44 61 51 31 41 47 47 47 45 23 16 4
0 0 0 0 0 27 52 43 45 48 47 47 41 14 12 5
3 1 3 1 0 0 0 0 4 30 59 74 73 78 73 48
52 53 36 27 18 16 6 2 1 5 0 0 0 0 3 3
2 3 8 16 12 10 11 10 1 0 0 0 0 0 26 35
35 35 34 34 35 35 35 35 35 35 35 35 35 35 36 36
35 35 34 33 30 30 34 28 21 20 18 17 16 16 17 17
18 19 19 20 21 21 22 23 24 23 25 24 25 25 25 25
7 5 3 2 47 59 42 31 42 47 48 51 47 24 16 11
6 2 0 0 0 26 47 42 48 52 53 44 34 17 11 5
3 0 0 0 1 0 0 0 11 51 74 82 84 81 82 80
57 59 57 39 26 21 8 8 3 0 0 0 0 0 0 6
9 11 13 5 10 9 5 10 2 0 0 0 0 0 8 33
34 34 33 33 34 35 34 34 35 35 35 35 34 32 29 27
25 22 20 20 18 17 30 25 14 18 20 21 21 22 23 24
25 25 26 27 27 27 28 28 28 28 28 28 29 29 29 29
1 0 0 2 45 52 24 13 24 27 31 35 42 24 16 29
42 38 31 25 19 34 36 40 47 50 52 46 38 19 11 2
0 0 6 6 1 0 0 0 22 67 77 84 87 89 88 89
80 56 60 51 42 27 20 6 9 8 2 1 2 1 1 6
9 8 15 14 4 1 3 5 4 0 0 0 0 0 1 24
30 32 32 33 33 33 32 29 22 26 25 23 21 20 20 20
20 21 22 22 23 22 25 23 18 24 26 26 27 28 29 29
29 29 29 28 30 29 30 31 30 31 31 31 31 31 31 29
0 0 0 2 42 52 18 0 0 0 0 1 25 26 17 31
49 49 48 47 48 48 24 18 27 33 38 37 38 21 10 0
0 0 3 4 0 0 0 3 34 72 77 82 88 92 88 94
92 85 65 58 55 44 25 11 4 5 3 2 7 4 1 1
10 6 9 12 7 2 0 0 3 0 0 0 0 0 0 13
21 25 28 25 24 22 18 6 11 21 21 22 23 23 24 25
26 27 27 29 28 28 29 28 23 29 31 30 31 32 32 32
32 32 32 32 32 33 32 32 32 32 32 32 32 32 32 32
0 0 0 0 37 53 18 0 0 0 0 0 22 27 16 29
47 49 48 49 49 48 13 0 0 2 8 16 33 22 7 0
0 0 1 2 0 0 0 5 42 74 78 82 89 91 90 99
108 107 90 66 63 56 30 19 2 6 3 0 2 11 9 10
7 8 14 5 3 6 4 0 0 0 0 0 0 0 0 4
18 19 21 21 22 18 10 18 26 27 28 28 29 29 29 30
31 31 32 32 32 29 17 14 23 31 32 33 33 33 33 34
33 33 33 33 33 33 32 33 33 32 33 32 33 32 32 31
0 0 0 0 31 49 16 0 0 0 16 21 27 30 22 26
36 38 39 40 43 44 10 0 0 0 0 7 34 22 6 0
0 0 0 1 0 0 0 9 49 75 79 82 91 95 99 110
112 120 114 95 74 62 49 27 19 5 7 5 0 2 5 13
24 18 5 9 2 1 3 0 0 0 0 0 0 0 0 0
19 24 27 27 20 20 19 31 31 31 31 32 32 32 32 33
33 33 33 33 31 28 7 3 18 32 35 35 34 33 33 34
33 34 34 33 33 33 33 33 33 33 33 33 32 32 32 31
1 0 0 0 28 45 13 0 0 0 21 28 25 27 22 23
23 26 32 31 37 42 8 0 0 0 0 1 34 17 2 0
0 0 0 3 2 3 0 16 57 77 79 84 95 101 108 111
113 121 117 112 102 67 54 37 30 11 7 13 10 7 8 3
11 13 7 1 1 0 0 0 0 0 0 0 0 0 0 0
11 30 31 23 23 26 26 33 33 33 33 33 34 34 34 34
35 29 20 14 13 26 9 4 16 32 35 35 34 34 34 34
34 34 35 34 34 34 33 33 32 32 32 33 33 33 32 31
1 0 0 0 29 45 12 0 0 0 7 14 20 24 20 22
23 26 32 33 40 42 8 0 0 0 0 2 35 8 0 0
0 0 0 0 1 1 0 21 61 76 78 83 97 105 114 109
114 121 121 107 103 90 63 50 35 26 14 15 21 13 10 8
12 5 1 0 0 0 0 0 0 0 0 0 0 0 0 0
6 33 28 22 34 31 16 20 20 16 14 24 35 33 32 31
11 3 0 1 3 17 4 0 14 32 35 35 34 34 35 34
34 34 34 34 33 33 33 33 33 32 32 33 33 33 32 32
0 0 0 0 32 46 11 0 0 0 0 0 10 19 19 18
8 12 18 24 30 33 8 0 0 0 0 2 36 8 0 0
0 2 1 0 0 3 0 24 61 76 77 81 93 105 112 112
116 121 125 118 115 95 80 68 46 32 28 17 20 17 6 7
8 6 2 0 0 0 0 0 0 0 0 0 0 0 0 0
1 30 22 29 28 36 11 0 0 0 3 15 22 12 4 4
1 4 0 0 0 2 6 0 14 31 34 35 34 34 34 35
35 34 34 34 34 33 33 33 33 33 33 33 33 32 32 32
0 0 0 0 34 46 11 0 0 2 0 0 11 26 25 17
0 0 0 0 0 10 7 0 0 0 0 2 35 6 0 0
0 0 0 0 4 2 0 20 60 74 76 81 94 106 116 116
120 126 121 121 116 99 86 73 52 44 32 26 22 21 18 9
7 2 0 1 2 0 0 0 0 0 0 0 0 0 0 0
0 17 12 4 1 31 21 0 0 0 0 0 0 0 0 0
0 15 2 0 0 0 9 0 17 32 34 35 35 34 34 33
34 33 33 34 33 33 32 33 33 33 33 33 33 33 32 32
7 4 3 2 37 47 11 0 0 6 0 0 13 33 27 19
0 0 0 0 0 7 7 0 2 8 1 1 33 5 0 0
0 0 0 3 6 1 1 18 58 73 76 82 97 104 117 118
121 123 124 121 111 99 92 82 69 54 37 34 16 25 20 20
17 5 1 0 2 0 0 0 0 0 0 0 0 0 0 0
0 4 12 15 3 4 2 0 0 0 0 0 0 0 0 0
0 3 0 0 0 0 16 7 24 33 35 35 35 34 34 34
33 34 34 34 34 34 33 33 33 33 32 33 33 33 32 33
32 33 36 30 38 40 19 1 0 9 5 1 11 35 27 19
0 0 5 1 0 6 8 0 10 15 5 1 32 4 0 0
0 0 0 2 3 1 3 19 57 72 76 82 96 105 117 117
121 124 125 123 115 107 98 83 78 68 48 34 24 15 31 37
40 29 12 1 0 2 0 0 0 0 0 0 0 0 0 0
0 14 30 19 22 28 24 23 23 23 22 15 14 12 0 0
0 0 0 0 0 3 25 25 30 35 35 36 35 34 34 33
34 33 34 34 34 34 33 33 34 33 33 33 33 33 33 32
10 14 20 18 25 37 34 25 19 22 25 18 21 36 24 19
0 2 16 9 0 4 15 5 17 17 12 4 32 6 0 0
0 0 0 4 1 4 5 17 53 71 74 80 92 99 112 121
125 128 127 123 121 110 102 86 80 80 67 43 30 29 19 43
60 54 38 19 2 0 0 0 0 0 0 0 0 0 0 0
0 16 23 32 35 35 35 35 35 35 35 34 15 5 0 0
0 2 8 9 9 20 29 30 33 35 34 35 35 35 35 34
35 34 35 35 34 34 33 33 33 33 32 31 32 28 32 32
0 0 10 11 19 38 34 24 23 31 38 42 45 42 25 17
0 4 15 8 1 4 36 35 40 38 39 38 41 7 0 0
0 0 0 0 1 3 9 20 54 71 74 78 92 103 109 119
123 126 125 124 121 111 105 100 92 80 79 55 51 32 32 27
61 82 53 38 12 3 2 0 0 0 0 0 0 0 0 0
0 23 35 34 34 34 35 35 35 35 35 21 1 0 1 0
0 16 35 33 33 32 31 33 36 35 34 35 35 34 35 35
34 34 34 33 34 34 34 33 32 33 33 33 32 31 32 32
0 2 5 12 26 40 33 5 0 5 11 24 46 41 24 19
3 0 3 1 0 4 38 42 45 44 47 51 46 23 12 0
0 0 0 0 0 4 7 20 55 69 74 78 94 103 109 119
129 129 127 125 118 113 108 108 102 82 87 80 67 49 43 30
40 50 45 38 27 13 11 1 0 0 0 5 0 0 0 0
0 17 36 35 35 34 35 35 35 35 35 19 0 0 14 1
0 14 35 35 34 32 33 34 34 35 34 34 35 35 34 35
34 34 34 34 34 33 34 33 33 32 33 32 32 32 32 32
15 29 14 6 24 42 32 2 0 16 19 24 45 37 24 23
16 1 2 0 0 3 36 40 42 42 44 48 49 36 24 1
0 0 0 0 0 3 3 21 55 66 72 78 94 96 106 119
129 131 130 122 112 112 106 103 103 96 90 83 76 71 54 37
12 10 12 19 24 24 17 9 5 17 26 30 5 0 0 0
0 5 34 35 36 36 35 35 35 35 35 20 0 0 2 0
0 13 35 35 34 33 34 34 35 34 34 35 35 35 34 34
33 33 34 33 34 34 33 33 32 33 33 33 32 32 32 32
28 31 5 0 22 44 32 1 0 12 27 33 43 31 22 23
13 0 0 0 0 3 35 36 38 38 38 35 34 33 28 2
0 0 0 0 0 0 0 19 53 66 69 75 76 69 89 104
114 117 113 107 108 109 107 102 105 100 95 86 85 69 49 23
5 5 17 19 31 42 47 58 66 65 62 35 3 0 0 0
0 2 30 36 36 35 35 35 33 34 34 19 0 0 0 0
0 10 35 35 35 34 35 35 35 35 35 35 35 34 34 34
34 34 33 33 34 33 33 33 32 32 32 32 32 32 31 31
24 35 2 0 24 46 32 1 0 1 8 30 45 29 24 24
13 3 2 1 0 3 38 36 36 36 35 34 36 36 33 6
0 0 0 0 0 0 0 21 54 67 68 64 54 52 65 69
69 63 58 67 81 94 97 98 102 99 93 92 85 61 38 27
18 12 17 22 21 23 44 28 10 1 0 3 0 0 0 0
0 3 31 36 36 35 36 34 29 23 20 12 0 0 0 0
0 10 36 36 36 36 36 36 35 35 35 35 35 35 34 34
34 33 34 33 33 33 33 33 34 33 33 32 32 33 31 31
10 17 2 1 24 46 33 1 0 0 0 24 45 30 24 24
32 35 32 30 31 31 44 39 38 37 38 39 42 42 35 13
0 0 0 0 0 0 0 22 55 66 62 48 47 57 58 44
33 26 22 26 37 62 78 86 90 95 91 88 77 55 38 17
12 8 2 5 6 8 8 19 19 10 2 0 0 0 0 0
0 0 28 37 37 36 35 29 6 7 0 0 0 0 1 1
0 7 35 35 36 36 36 36 35 35 35 35 35 35 34 35
35 34 33 33 34 33 33 33 32 33 32 32 32 32 31 31
0 0 0 0 22 46 31 0 0 0 0 23 47 29 25 25
43 53 51 51 53 53 52 41 35 35 34 38 45 46 36 14
0 0 0 0 0 0 0 21 56 64 55 40 45 45 49 43
37 38 41 36 36 38 50 70 81 91 92 86 70 36 15 5
1 0 0 2 4 7 14 14 9 4 0 1 2 0 0 0
0 2 27 36 36 36 35 32 31 30 21 11 0 0 0 2
1 7 26 34 35 35 36 35 35 35 35 35 34 35 34 34
33 34 34 34 34 33 33 33 33 33 32 32 32 32 31 30
0 0 0 0 20 45 30 0 0 0 0 21 46 30 23 25
39 49 48 49 50 51 51 28 14 11 10 13 24 44 35 16
0 0 0 0 0 0 0 14 51 52 37 29 28 28 22 12
9 9 8 9 11 20 41 52 78 94 97 91 42 22 3 0
0 0 0 2 5 8 10 9 8 4 0 2 18 0 0 0
1 6 32 35 35 35 34 37 46 38 12 4 0 0 0 0
0 0 7 13 23 34 36 36 35 35 36 35 35 34 34 34
33 32 33 33 34 33 33 33 32 33 33 32 31 31 30 30
0 0 0 0 19 45 31 0 0 0 0 17 43 28 23 24
27 31 31 31 31 32 34 15 0 0 0 0 5 39 35 9
0 0 0 0 0 0 0 2 53 47 25 14 7 4 2 0
0 0 0 0 0 0 8 34 46 80 101 73 24 7 0 0
0 0 0 1 8 7 4 4 2 1 0 2 27 1 0 1
7 24 28 28 26 24 21 14 7 6 2 0 0 0 0 0
0 0 6 2 11 33 36 37 35 35 35 34 35 34 34 34
33 33 33 33 35 33 33 33 32 33 33 32 32 31 30 29
0 0 0 0 18 46 31 0 0 0 0 16 44 29 22 23
30 35 35 34 33 32 34 17 2 0 0 0 14 40 27 1
0 0 0 0 0 0 0 0 11 5 2 0 1 0 0 0
0 0 0 0 0 0 2 2 23 43 54 33 14 5 0 0
0 0 0 0 1 1 2 0 0 0 2 2 31 10 2 20
27 41 12 7 9 9 8 3 0 0 0 0 0 0 0 0
0 0 7 5 7 34 37 37 36 35 36 35 35 34 34 33
34 34 33 33 34 34 34 33 33 33 33 32 32 30 29 27
9 12 16 20 33 43 29 0 0 0 0 18 48 31 21 23
32 39 39 39 39 39 39 17 3 0 0 0 9 36 19 0
0 0 0 0 0 0 0 4 2 0 0 4 2 0 0 0
0 0 0 0 0 0 0 1 3 10 10 13 11 8 0 0
0 0 0 0 0 0 0 0 0 0 3 2 33 19 1 48
56 41 7 3 4 4 4 3 2 8 3 1 0 0 0 0
0 0 6 6 5 32 37 37 37 35 35 35 35 34 35 34
34 33 33 33 34 34 34 33 34 33 32 32 30 28 27 26
39 41 43 44 43 35 26 16 12 10 7 22 44 29 23 27
34 38 39 40 40 42 41 19 0 0 0 6 6 33 18 0
0 0 0 0 0 0 0 14 26 0 4 3 1 0 0 0
0 0 0 0 0 0 0 0 3 8 3 5 8 12 0 0
0 0 0 0 0 0 0 0 0 0 2 2 36 28 1 56
83 31 4 6 7 7 9 9 7 6 7 16 0 0 0 0
0 0 6 7 6 32 38 37 36 36 36 35 34 34 34 35
34 34 34 34 34 34 34 34 34 33 33 32 31 30 28 28
40 42 43 42 42 41 39 40 38 38 35 36 40 37 36 36
36 37 38 38 38 38 38 29 6 0 0 5 3 30 16 0
0 0 0 0 0 0 0 19 42 0 6 5 8 0 0 0
0 0 0 0 0 0 0 0 3 11 51 69 21 14 0 0
0 0 0 0 0 0 0 0 0 0 1 3 44 42 18 76
91 26 10 11 12 11 11 11 5 2 5 19 1 0 0 0
0 0 8 8 12 29 36 36 35 36 36 36 36 34 35 35
34 31 28 31 33 34 34 33 34 33 32 31 30 29 28 27
36 40 39 39 39 39 39 39 39 39 40 39 39 38 38 38
39 38 38 37 37 37 37 35 14 0 0 5 5 30 16 0
0 0 0 0 0 0 0 29 52 0 7 6 6 0 0 0
0 0 0 0 0 0 0 0 7 33 102 106 79 12 7 0
0 0 0 0 0 0 0 0 0 0 1 4 58 57 51 91
94 18 7 6 5 3 6 12 9 2 9 11 0 0 0 5
4 2 5 11 15 28 37 38 38 38 37 37 37 36 35 36
19 3 7 3 25 35 35 34 34 33 32 32 31 30 29 27
36 40 40 40 39 39 39 39 39 39 38 38 37 37 37 36
37 36 36 36 36 35 36 36 16 0 0 0 1 30 18 0
0 0 0 0 0 0 0 35 56 2 6 6 5 0 0 0
0 0 0 0 0 0 0 0 8 61 110 111 104 44 13 0
0 0 0 0 0 0 0 0 0 0 0 16 76 65 79 97
92 7 0 0 0 0 7 14 13 10 8 4 0 0 0 2
1 0 9 11 12 28 38 38 38 37 37 37 37 36 36 36
14 0 1 0 22 36 35 34 33 33 32 31 31 31 29 29
35 40 36 26 23 22 20 20 19 18 16 16 15 13 13 13
13 12 12 12 12 18 32 36 19 0 0 0 0 25 22 0
0 0 3 0 0 0 0 39 64 6 7 8 3 0 0 0
0 0 0 0 0 0 0 0 14 85 107 108 101 82 16 7
0 0 0 1 0 0 0 0 0 0 4 45 83 78 98 95
81 2 0 0 0 0 10 14 13 11 11 10 11 12 14 15
16 18 21 23 21 25 27 28 24 27 36 37 37 36 36 35
10 0 0 0 13 35 35 34 33 33 32 31 31 31 30 31
32 39 32 9 0 0 0 0 0 0 0 0 0 0 0 0
0 0 0 0 0 8 35 36 26 8 8 16 17 28 33 23
23 24 27 19 4 3 1 39 67 17 2 3 1 0 0 0
0 0 0 0 0 0 0 4 30 100 108 112 103 94 54 11
3 0 0 10 4 0 0 0 0 0 15 81 83 80 96 94
67 0 0 0 0 0 13 14 14 13 34 20 25 29 30 26
29 31 28 27 22 17 41 56 16 19 34 37 37 35 33 32
9 0 0 0 10 35 34 33 33 32 32 31 31 32 31 31
31 39 34 12 0 0 0 0 0 0 0 0 0 0 0 0
0 0 0 0 0 6 36 37 35 35 36 39 37 34 36 45
43 44 49 66 38 26 6 49 64 34 1 3 0 0 0 0
0 0 0 0 0 4 3 12 57 101 108 114 107 94 86 37
19 6 3 14 7 0 0 0 1 15 72 95 81 77 97 103
49 0 0 0 0 2 13 13 14 13 25 21 27 32 49 59
70 77 79 58 24 26 92 120 21 15 32 36 34 12 5 5
1 0 0 0 8 34 34 33 32 32 32 32 32 32 32 30
29 38 36 17 0 0 0 0 0 0 0 0 0 0 0 0
0 0 0 0 0 4 35 38 35 38 41 41 36 29 28 39
41 40 43 78 79 62 29 59 59 55 0 2 0 0 0 2
0 0 0 0 2 12 14 22 84 99 109 115 111 95 86 77
28 20 26 23 11 10 17 23 54 87 98 93 79 73 92 100
34 0 0 0 0 5 14 13 15 11 24 22 29 33 62 82
88 91 91 63 24 54 132 117 72 17 31 35 28 0 0 0
0 0 0 0 7 33 32 32 31 31 32 31 32 33 32 30
28 38 36 20 0 0 0 0 0 0 0 0 0 0 0 0
0 0 0 0 0 3 34 38 34 33 35 40 37 29 25 23
23 23 27 61 91 86 51 57 55 72 20 1 0 0 0 10
5 0 0 0 6 14 22 56 85 96 110 120 119 103 88 80
72 58 48 40 45 53 72 109 118 107 99 91 77 70 95 89
12 0 0 0 0 8 14 13 17 6 20 30 34 36 36 41
43 36 36 34 29 37 51 33 32 24 28 37 29 1 0 0
0 0 0 0 5 32 33 32 31 32 32 32 33 33 32 30
27 38 36 24 1 0 0 0 0 0 0 0 0 0 0 0
0 0 0 0 0 1 30 39 33 26 24 27 28 24 27 23
23 25 32 45 93 93 83 69 54 69 68 28 5 0 1 14
9 1 0 2 12 27 32 75 81 96 113 124 125 107 96 78
74 89 117 123 121 126 130 126 118 107 96 88 76 78 102 62
0 0 0 0 0 11 13 15 17 1 11 31 36 36 26 26
32 21 21 24 27 27 27 25 27 24 27 37 35 12 0 0
0 0 0 0 3 26 32 32 32 32 33 32 33 34 32 31
26 36 36 26 2 0 0 0 0 0 0 0 0 0 0 0
0 0 0 0 0 0 26 39 32 12 2 3 7 12 27 29
35 37 45 48 77 94 95 98 65 64 81 69 26 6 2 15
15 8 11 16 25 52 75 70 78 99 118 119 120 112 102 89
79 76 95 122 128 127 128 122 117 100 92 85 75 67 90 26
0 0 0 0 1 13 13 14 13 0 7 17 31 35 26 25
23 19 20 22 27 28 28 26 25 23 24 34 31 27 2 0
0 0 0 0 0 10 33 33 33 33 33 32 33 32 32 31
25 35 37 27 4 0 0 0 0 0 0 0 0 0 0 0
0 0 0 0 0 0 23 39 32 10 0 0 0 10 29 28
36 33 35 41 49 95 94 101 85 60 79 90 85 50 27 12
11 17 34 63 93 94 68 71 81 101 118 117 116 123 108 94
90 87 76 103 118 124 124 125 111 95 89 84 75 35 8 0
0 0 0 0 3 13 12 15 7 0 2 5 29 33 26 23
20 21 19 23 29 29 28 26 25 22 20 22 3 2 5 0
0 0 0 0 0 9 32 31 32 33 33 33 32 31 30 29
24 35 36 28 5 0 0 0 0 0 0 0 0 0 0 0
0 0 0 0 0 0 19 39 33 12 0 0 0 7 30 26
34 19 8 31 18 92 96 99 95 58 74 87 94 100 110 122
118 114 114 113 109 84 66 82 84 104 135 122 117 131 107 89
91 92 81 82 108 121 119 113 102 94 89 85 72 30 0 0
0 0 0 0 6 14 13 15 5 0 1 6 32 33 27 22
20 21 19 23 28 28 28 25 25 22 6 1 0 0 3 0
0 0 0 0 0 1 26 31 32 31 32 32 31 30 29 28
23 34 36 29 8 0 0 0 0 0 0 0 0 0 0 0
0 0 0 0 0 0 16 39 33 14 0 0 0 8 31 25
34 17 3 28 8 64 104 97 92 61 69 82 93 104 111 127
125 119 114 112 104 63 75 93 85 90 114 114 112 108 92 75
86 92 101 80 100 113 114 108 102 97 89 83 71 27 0 0
0 0 0 0 10 14 13 15 2 2 15 17 36 32 27 20
17 20 18 22 28 28 27 26 25 23 2 0 1 5 0 0
0 0 0 0 0 0 16 30 29 30 31 31 30 29 28 27
23 33 36 30 9 0 0 0 0 0 0 0 0 0 0 0
0 0 0 0 0 0 13 38 33 17 0 0 0 9 31 25
34 18 2 27 10 18 95 101 99 75 62 77 88 100 108 115
124 115 110 108 91 49 75 91 82 70 89 102 96 92 71 28
48 96 116 99 94 111 110 106 102 96 88 84 69 24 0 0
0 0 0 0 13 14 15 14 0 6 15 15 38 31 24 13
8 19 18 23 28 27 27 27 26 24 2 0 3 8 0 0
0 0 0 0 0 0 1 8 8 24 32 31 31 29 28 27
22 33 36 30 10 0 0 0 0 0 0 0 0 0 0 0
0 0 0 0 0 0 11 38 33 18 0 0 0 7 31 26
34 18 2 24 12 0 38 92 101 80 60 72 78 92 103 109
112 109 105 100 74 56 94 78 41 12 48 72 67 68 66 64
85 111 109 108 105 109 107 105 101 96 89 83 69 21 0 0
0 0 0 2 14 13 16 11 0 5 10 20 39 27 19 5
7 17 18 23 28 28 28 28 28 25 5 4 10 10 5 3
3 2 2 1 1 1 1 0 2 23 31 31 31 30 30 27
23 32 36 31 11 0 0 0 0 0 0 0 0 0 0 0
0 0 0 0 0 0 9 37 32 20 0 1 1 5 31 27
35 21 3 23 18 3 3 30 62 54 55 72 73 85 99 108
109 106 103 96 75 87 114 93 46 51 77 101 106 113 111 96
102 108 111 115 114 111 104 102 101 94 90 81 68 17 0 0
0 0 0 5 15 13 16 8 0 25 23 27 37 25 18 3
6 16 17 23 28 28 27 27 28 26 10 11 13 12 10 8
6 4 2 6 9 10 13 15 19 34 39 39 39 39 38 37
21 30 35 31 12 0 0 0 0 0 0 0 0 0 0 0
0 0 0 0 0 0 7 37 33 22 0 3 10 5 31 28
36 27 8 20 17 7 9 5 3 28 49 70 74 77 90 100
104 103 97 91 92 107 108 110 105 101 115 117 112 117 117 110
109 114 114 114 113 109 100 99 100 93 88 80 68 9 0 0
0 0 0 8 14 14 15 4 10 66 36 31 35 25 17 6
12 17 17 25 28 28 27 27 28 26 7 2 3 2 0 0
0 0 0 30 41 41 41 42 43 44 44 44 43 42 42 41
21 29 35 32 14 0 0 0 0 0 0 0 0 0 0 0
0 0 0 0 0 0 6 35 33 24 6 10 20 16 34 31
36 28 15 18 17 10 12 6 4 24 40 64 75 76 83 91
97 95 91 89 100 110 111 114 110 105 109 108 110 109 118 109
106 109 106 108 104 103 99 97 97 90 87 81 61 3 0 0
0 0 0 11 14 15 16 1 11 51 23 34 34 25 22 13
19 18 20 27 29 28 27 27 28 26 6 0 0 0 0 0
0 0 4 40 41 40 41 41 41 40 40 40 40 40 39 40
20 29 36 32 14 0 0 0 0 0 0 0 0 0 0 0
0 0 0 0 0 0 5 35 33 30 36 38 41 41 45 35
37 23 17 19 26 21 21 19 19 24 28 56 72 75 79 87
94 93 88 88 98 100 104 107 104 102 109 111 110 112 116 112
111 108 103 95 92 98 97 93 95 91 88 80 51 0 0 0
0 0 1 13 14 15 12 0 1 15 18 37 32 30 22 19
18 20 20 30 31 28 27 27 27 26 7 0 0 0 0 0
0 0 12 34 31 34 35 36 35 33 27 31 31 29 36 39
20 27 35 32 16 0 0 0 0 0 0 0 0 0 0 0
0 0 0 0 0 0 4 34 33 33 48 51 51 51 51 41
36 18 7 17 28 24 24 24 24 24 26 45 71 74 78 86
91 89 84 88 91 91 97 104 104 107 108 108 106 109 112 100
101 104 97 84 80 88 92 93 94 90 87 80 37 6 7 7
8 7 9 16 15 16 10 0 1 8 20 40 31 30 22 19
17 21 21 29 30 27 27 27 27 26 8 0 0 0 0 0
0 0 6 11 7 15 25 32 27 25 22 22 25 26 35 39
19 25 34 32 15 0 0 0 0 0 0 0 0 0 0 0
0 0 0 0 0 0 4 33 33 30 40 40 38 37 35 31
33 17 1 13 28 26 27 27 25 25 26 32 66 75 77 85
91 88 82 82 80 79 95 102 102 90 86 89 97 106 82 68
65 61 67 67 71 84 89 92 91 87 84 75 27 13 14 14
15 13 14 15 14 18 6 0 2 7 26 39 30 29 21 19
16 20 21 30 29 28 26 27 26 25 8 0 0 0 0 0
0 0 0 0 0 5 25 33 34 33 32 33 34 33 36 38
18 25 33 31 16 0 0 0 0 0 0 0 0 0 0 0
0 0 0 0 0 0 3 32 32 27 20 18 18 18 18 18
31 18 0 11 28 25 26 26 25 25 25 26 54 74 73 81
88 87 83 75 66 72 82 77 65 68 72 70 70 74 63 62
55 50 40 39 62 86 92 92 87 86 84 68 17 14 15 14
14 14 14 14 14 18 3 0 10 15 31 36 30 29 21 18
16 21 23 30 29 27 27 27 27 27 9 0 0 0 0 0
0 0 0 0 0 2 32 37 37 37 37 36 35 36 36 36
18 25 34 32 16 0 0 0 0 0 0 0 0 0 0 0
0 0 0 0 0 0 3 31 33 26 19 18 18 18 18 19
32 23 7 17 29 25 26 25 24 24 25 25 37 73 76 80
87 89 89 81 66 55 50 52 56 52 59 60 61 64 65 75
75 70 74 74 80 86 92 92 84 84 82 62 40 21 20 18
18 25 25 17 9 11 0 1 22 27 37 34 30 29 17 17
16 21 24 30 29 28 28 28 28 27 9 0 0 0 0 0
0 0 0 0 0 0 30 38 37 37 35 36 36 35 36 35
18 24 33 32 17 0 0 0 0 0 0 0 0 0 0 0
0 0 0 0 0 0 4 33 33 27 24 22 21 21 19 20
34 33 31 36 31 23 25 24 23 23 24 25 27 62 78 77
86 92 93 88 77 58 49 56 57 68 94 104 104 109 109 101
86 78 77 85 93 91 90 89 85 82 78 92 120 105 96 63
35 30 26 29 32 10 0 44 84 26 38 32 30 27 15 13
16 18 22 29 29 29 28 28 27 25 10 0 0 0 0 0
0 6 0 0 0 0 15 26 28 31 24 25 26 24 25 27
16 23 32 31 17 0 0 0 0 0 0 0 1 2 3 4
5 7 8 10 12 14 18 32 30 27 25 24 24 23 21 19
27 26 25 28 25 23 24 23 23 23 23 23 24 39 77 77
79 87 92 94 89 80 76 74 75 68 73 92 100 96 95 91
86 80 80 89 93 90 90 85 81 80 69 106 139 131 115 71
12 10 11 13 20 33 20 96 136 40 39 30 29 26 17 13
9 18 23 25 27 28 28 27 27 25 11 0 0 0 0 0
3 10 0 0 0 0 7 27 30 28 25 26 26 22 26 26
16 22 32 31 24 10 10 13 16 17 19 21 22 24 25 26
27 27 28 28 28 28 28 28 27 27 24 24 24 24 22 20
21 19 16 19 21 23 24 23 22 23 23 22 23 25 62 80
77 82 90 96 92 90 84 76 75 77 78 85 87 83 79 73
78 80 82 89 91 88 89 82 78 76 61 109 138 130 115 73
11 9 9 8 26 13 25 89 103 28 40 27 22 17 6 3
6 4 16 20 24 26 27 26 25 27 12 0 0 0 0 0
15 10 0 0 0 0 5 36 37 33 35 36 35 32 35 35
16 22 32 33 32 29 28 30 32 33 31 31 30 30 30 30
30 30 30 29 28 27 27 27 27 26 25 24 24 23 22 21
22 20 17 19 21 23 23 23 22 22 23 22 22 22 37 76
78 78 83 91 93 87 85 78 75 73 72 71 64 59 62 72
81 86 90 92 89 86 89 80 74 72 59 104 125 114 92 36
7 6 5 10 34 5 6 41 27 30 41 19 3 0 0 0
0 0 0 9 32 24 24 24 22 26 13 0 0 0 0 0
20 4 0 0 0 0 0 30 39 39 38 38 39 37 37 36
16 21 32 33 33 32 27 29 32 32 32 32 31 31 33 34
24 18 21 25 23 14 23 23 23 24 25 24 24 24 22 22
22 21 18 18 21 23 22 22 21 21 22 22 22 22 24 59
78 77 76 84 90 87 83 78 76 75 73 74 75 73 78 85
91 94 95 96 87 86 86 76 72 65 64 56 46 36 22 6
8 10 25 48 66 69 76 80 80 79 53 26 14 0 0 0
0 0 0 1 26 16 21 23 15 17 17 6 1 0 0 0
3 0 0 0 0 0 0 9 30 33 32 32 32 32 35 35
13 20 31 32 32 31 28 27 28 28 28 27 27 38 55 38
4 0 1 3 3 0 5 15 15 14 11 9 9 15 21 22
22 21 18 18 20 22 22 21 21 21 21 21 21 21 22 44
71 75 75 80 86 85 81 79 79 82 84 87 90 94 96 100
102 103 105 96 86 85 82 72 66 63 67 31 8 12 8 9
10 27 87 92 99 102 93 89 99 98 63 35 29 0 0 0
0 0 0 0 14 14 18 22 18 18 8 11 5 0 0 0
0 0 0 0 0 0 0 5 12 22 22 23 21 24 34 36
6 9 16 16 14 13 11 10 9 11 16 16 29 64 52 10
0 0 0 0 0 0 0 0 0 0 0 0 0 0 16 23
22 20 19 18 20 22 22 21 21 21 21 21 21 21 22 36
62 73 73 74 80 87 82 81 85 91 100 101 108 112 112 113
117 109 104 94 85 81 74 68 63 68 71 56 37 25 27 43
63 83 100 96 99 102 96 90 97 98 58 4 3 0 0 2
2 1 3 4 8 18 18 8 6 5 0 0 0 0 0 0
0 0 0 0 0 0 0 7 10 24 32 32 32 33 35 36
0 0 0 0 0 0 1 2 2 4 18 21 51 63 22 0
0 0 0 0 0 0 0 0 0 0 0 0 0 0 10 24
22 20 20 19 20 21 21 21 21 20 21 20 20 21 21 30
60 65 72 71 75 83 83 82 83 93 104 108 108 106 107 108
113 109 104 92 83 80 67 67 66 72 75 56 57 56 61 78
59 47 68 80 75 66 67 69 68 71 48 23 23 19 16 17
11 6 10 5 4 6 3 2 1 0 0 0 0 0 0 0
0 0 0 0 0 0 0 1 1 7 34 39 38 38 38 37
0 0 0 0 0 1 5 10 9 6 18 30 60 40 5 0
0 0 0 0 0 0 0 0 0 0 0 0 0 0 16 27
25 23 22 22 21 21 21 20 20 21 20 20 20 21 20 22
60 63 68 70 71 72 76 82 82 85 95 101 100 98 93 94
98 101 99 86 80 68 63 64 69 78 79 66 73 84 88 92
120 136 141 140 132 89 71 53 36 29 17 12 10 6 3 2
0 0 0 0 0 0 0 0 0 0 0 0 0 0 0 0
0 0 0 0 0 0 0 0 0 0 27 39 39 38 38 38
3 3 1 0 0 0 6 12 13 12 7 43 58 13 0 11
17 0 0 0 0 0 0 0 0 0 0 0 1 14 28 29
27 25 23 22 21 20 20 20 20 20 19 20 20 19 20 20
56 69 64 66 64 63 66 75 80 83 88 93 92 89 85 85
88 85 86 76 71 60 65 66 80 83 81 65 44 39 38 66
86 105 114 109 86 33 30 44 46 42 9 0 0 0 0 0
0 1 1 1 0 0 2 0 0 0 0 0 0 0 0 0
0 0 0 0 0 0 0 0 0 0 20 40 38 38 38 38
6 5 3 1 0 3 10 19 18 13 5 51 51 14 25 40
40 9 0 8 5 0 0 0 0 0 0 0 1 9 14 13
13 16 20 20 19 19 18 18 18 18 19 18 18 19 19 18
49 75 69 63 60 58 62 68 72 73 79 80 85 83 81 73
74 77 74 66 59 65 64 76 86 88 83 58 11 8 22 87
91 107 123 120 117 45 28 58 57 50 12 0 3 7 10 16
27 39 21 42 45 36 60 64 69 22 0 0 0 0 0 0
0 0 0 0 0 0 0 0 0 0 12 36 35 35 35 35
6 6 7 9 14 19 21 18 17 7 10 53 31 10 34 43
43 17 5 32 32 15 0 5 10 4 0 0 0 0 0 0
0 3 17 17 16 16 15 15 15 16 16 15 15 16 16 17
43 75 77 65 61 56 53 56 61 61 65 70 73 76 72 65
64 68 63 52 60 64 68 84 92 90 82 66 53 62 67 62
78 67 96 29 24 21 28 52 52 49 87 88 108 119 127 132
133 135 91 138 118 108 133 121 117 55 0 1 1 3 0 0
0 0 0 0 0 0 0 0 0 0 3 29 29 29 28 29
4 5 6 9 17 22 18 7 6 0 15 58 25 5 36 44
43 16 23 48 43 30 4 5 4 0 0 0 0 0 0 0
0 1 14 15 14 13 13 13 12 13 13 13 13 16 35 46
54 73 79 74 62 61 57 54 52 57 55 54 58 59 59 54
53 50 52 60 64 65 79 91 93 92 82 68 55 54 40 13
75 110 85 7 3 18 30 54 52 49 93 87 81 91 98 108
118 122 72 88 82 107 101 70 67 48 3 19 10 23 2 0
0 0 0 0 0 0 0 0 0 0 0 24 30 30 30 29
1 3 4 8 16 21 10 0 0 0 20 62 26 6 26 14
30 31 44 53 43 31 8 6 2 0 0 0 0 0 0 0
0 0 13 15 14 13 12 12 12 12 12 12 15 58 30 33
52 69 74 76 74 60 58 60 51 44 45 42 39 39 39 42
53 64 65 65 63 76 89 94 96 92 82 71 59 60 66 38
62 117 102 21 2 18 31 55 50 47 63 69 70 82 84 102
100 94 57 72 107 111 93 97 92 43 3 16 11 13 4 1
0 0 0 0 0 0 0 0 0 0 0 10 29 30 29 29
1 1 3 7 16 19 8 0 0 0 21 64 33 7 14 4
26 43 55 50 28 30 11 2 0 0 0 0 0 0 0 0
0 0 9 15 16 14 12 12 12 12 12 24 70 93 29 56
53 66 74 73 75 70 55 53 55 56 54 55 61 63 64 69
70 66 63 61 74 88 94 95 96 92 85 73 64 58 67 60
79 123 121 106 53 40 32 55 51 49 64 69 60 76 71 73
61 42 43 55 68 57 38 39 44 21 0 6 8 1 0 0
0 0 0 0 0 0 0 0 0 0 0 1 28 30 27 28
5 4 4 9 16 18 9 8 6 0 21 65 50 16 10 4
32 51 59 33 3 24 9 0 0 0 0 0 0 0 0 0
0 0 8 29 30 26 13 11 15 27 63 101 112 103 50 62
53 64 74 75 75 72 69 59 52 55 56 60 61 61 61 62
60 57 62 74 88 93 94 96 96 93 87 78 71 65 57 62
104 122 118 120 117 111 84 70 61 52 30 17 21 13 18 9
9 11 13 15 27 23 17 15 1 1 3 3 3 12 0 0
0 0 0 0 0 0 0 0 0 0 0 2 29 29 28 30
7 6 7 18 24 25 19 20 15 0 15 56 51 25 4 3
34 52 42 15 0 23 9 0 0 0 0 0 0 0 0 0
0 0 11 37 39 36 32 42 78 96 111 114 115 112 60 59
55 62 73 75 76 73 71 69 63 55 51 50 51 49 49 50
54 64 76 87 91 93 97 98 97 94 90 83 75 64 61 74
118 117 118 122 117 109 105 107 108 108 100 73 40 19 23 29
32 34 32 23 39 37 25 22 0 0 12 6 2 11 8 0
0 0 0 0 0 0 0 0 0 0 0 3 30 30 31 30
8 6 12 30 28 25 22 21 17 0 10 56 57 33 1 4
31 33 11 2 0 3 1 0 0 0 0 0 0 0 0 0
0 9 35 62 75 85 90 95 97 103 107 114 114 111 72 58
58 64 72 77 77 75 74 72 69 66 60 55 53 49 51 57
69 83 90 92 93 96 99 98 97 95 93 88 81 75 69 106
123 116 116 121 120 106 108 109 108 119 130 127 122 104 74 56
49 51 50 24 32 32 32 43 3 0 10 4 1 2 6 3
0 0 0 0 0 0 0 0 0 0 0 3 27 27 31 29
7 3 5 18 27 29 28 26 21 1 4 37 34 19 0 0
4 1 0 0 0 0 0 0 0 0 0 0 0 0 14 46
75 99 101 94 91 88 94 99 97 96 104 109 109 108 101 59
61 67 73 77 78 80 78 77 76 76 79 82 79 78 79 86
95 99 98 99 101 102 103 100 96 97 96 92 87 68 97 123
127 124 124 128 125 111 113 113 114 115 126 134 136 132 119 111
106 90 68 30 36 44 70 80 6 1 11 2 3 0 3 1
0 0 0 3 0 0 0 0 0 0 0 6 28 26 29 32
12 4 0 3 12 17 14 8 4 0 0 1 0 0 0 0
0 0 0 0 0 1 0 0 0 0 2 24 56 90 116 127
125 118 114 109 102 102 98 104 104 99 105 103 109 114 117 81
61 69 77 80 85 87 89 90 87 93 95 96 93 93 94 97
101 101 101 100 105 108 106 101 98 99 100 98 90 93 133 129
131 134 134 133 124 118 114 115 117 115 117 125 133 137 135 123
114 116 116 111 93 76 75 89 9 1 4 0 1 2 2 0
0 0 0 5 0 0 0 0 0 0 0 14 29 27 28 32
5 0 0 0 0 0 0 0 0 0 0 0 1 5 5 0
2 2 6 1 5 8 0 0 17 58 103 121 128 130 135 141
139 131 121 114 118 116 110 114 114 105 112 110 113 117 119 111
76 72 79 86 90 91 90 89 90 94 99 100 98 97 101 101
102 101 100 106 108 107 104 100 98 102 105 105 109 138 137 138
138 137 137 133 121 119 119 117 125 125 123 127 125 130 135 134
127 118 116 116 113 111 107 95 39 10 0 2 0 2 3 1
0 0 0 1 0 0 0 0 0 0 0 15 31 29 29 30
0 0 0 0 0 0 0 0 0 0 0 0 23 33 25 12
17 20 23 10 17 14 34 85 118 123 123 128 135 140 141 141
142 140 136 124 117 120 124 123 121 118 122 132 130 126 122 129
122 84 81 87 93 95 91 93 92 91 94 98 97 97 100 100
100 103 108 109 107 107 101 100 99 107 109 118 138 137 138 139
138 136 135 127 124 122 119 118 129 130 122 133 130 128 130 133
132 125 118 122 119 118 115 112 110 89 41 7 0 0 8 5
0 1 0 1 0 0 0 0 0 0 3 18 33 34 34 34
0 0 0 0 0 0 0 0 0 0 0 0 22 34 34 45
31 33 33 30 62 103 118 116 118 120 121 121 128 135 135 137
142 141 121 115 121 121 124 132 130 130 130 143 140 136 134 129
134 132 96 87 92 94 91 95 95 97 98 102 105 102 101 105
107 109 109 109 108 107 103 99 103 112 123 139 138 139 140 138
138 138 134 133 128 132 125 121 128 135 125 132 133 131 131 131
131 127 121 121 126 123 124 119 116 110 103 79 20 0 6 6
0 3 0 1 0 0 0 0 0 0 3 17 31 33 33 34
7 0 0 0 0 0 0 0 0 0 0 0 4 27 39 48
40 44 57 101 118 120 114 62 60 63 65 65 75 104 121 122
120 120 135 137 124 127 127 129 133 133 138 140 143 142 140 133
132 132 135 105 92 94 91 94 95 97 99 99 108 109 108 109
109 111 111 110 110 109 105 102 110 133 141 137 138 140 139 139
139 137 135 135 134 135 129 124 133 136 130 132 135 135 135 133
132 126 129 121 126 130 128 125 123 112 107 104 94 39 9 4
0 1 0 0 0 0 0 0 0 0 1 13 24 27 27 31
2 0 0 0 0 0 0 0 0 0 0 0 0 14 31 35
54 81 109 120 124 125 116 62 56 64 67 62 65 93 138 135
136 135 124 125 140 129 129 127 139 140 142 139 142 142 142 139
133 134 137 138 127 102 90 92 94 97 99 101 106 111 110 109
111 111 111 110 111 110 107 122 139 139 139 138 139 139 139 138
137 135 136 136 137 136 133 128 130 134 132 132 134 135 134 132
133 129 129 126 118 129 130 128 126 113 113 111 110 100 69 10
0 0 1 1 0 0 0 0 0 0 2 18 30 33 32 33
0 0 0 0 0 0 0 0 0 0 0 0 0 1 13 40
97 118 121 126 129 136 125 58 58 52 63 56 70 107 136 137
134 136 143 128 119 137 138 132 139 142 142 142 140 143 142 143
142 134 130 140 141 139 122 103 95 96 100 100 101 110 111 110
112 111 111 112 116 125 137 140 139 139 139 139 139 139 139 138
138 137 135 138 137 136 135 128 132 135 133 132 134 134 130 130
130 132 130 131 122 127 132 132 129 118 117 116 120 111 103 75
16 0 3 0 0 0 0 0 0 0 1 17 28 31 31 32
0 0 0 0 0 0 0 0 0 0 0 0 0 0 23 96
116 129 131 131 141 139 135 95 98 62 57 54 58 95 123 123
124 125 125 136 136 109 131 139 140 141 140 140 142 140 143 143
142 141 135 133 138 139 138 137 134 122 117 109 102 108 109 110
118 123 132 137 139 134 136 134 139 138 138 138 137 137 135 135
137 138 137 136 136 136 135 130 126 134 134 132 133 132 132 130
131 132 131 127 131 126 129 128 125 123 122 117 122 118 110 103
76 18 1 0 0 0 0 0 0 0 1 14 26 29 28 30
0 0 0 0 0 0 0 0 0 0 0 0 0 19 95 111
122 135 139 130 137 136 137 132 117 114 109 78 56 95 128 135
137 135 126 112 95 93 128 143 141 143 142 140 140 142 142 142
142 142 140 138 136 138 137 135 132 139 141 141 136 138 137 139
140 139 139 139 139 135 133 137 135 136 133 135 133 135 135 136
135 135 135 134 135 134 134 130 123 132 133 132 132 132 131 130
129 128 128 126 124 124 124 124 123 122 121 118 121 119 118 111
104 80 20 0 0 0 0 0 0 0 0 10 21 24 25 29
0 0 0 0 0 1 1 0 0 0 0 2 7 86 113 113
121 132 142 139 137 139 135 132 137 140 117 120 136 142 140 134
133 134 134 98 95 99 133 143 142 140 141 143 141 141 142 141
142 142 141 142 141 139 131 133 135 138 138 140 139 137 135 138
136 136 128 134 137 137 135 134 137 135 130 134 133 136 136 135
136 135 135 134 134 134 134 131 125 129 133 132 132 131 131 130
129 128 127 125 122 124 123 123 123 122 121 120 121 121 119 116
113 106 81 24 0 0 0 0 0 0 0 1 3 3 5 14
0 1 2 3 0 5 6 2 0 0 0 6 80 116 118 115
124 127 144 143 142 141 130 129 126 123 127 136 123 118 117 117
120 119 109 110 125 141 141 140 142 143 143 142 142 143 142 143
142 142 142 142 142 138 138 139 135 135 137 137 136 138 132 135
133 136 131 137 137 135 137 138 137 136 136 136 136 136 136 135
135 135 135 134 134 134 134 133 130 126 132 132 131 131 130 129
129 127 126 125 122 123 123 123 123 122 121 118 121 122 121 118
116 112 106 89 31 0 0 0 0 0 0 0 1 1 2 7
1 3 4 4 1 5 6 8 3 0 1 69 115 118 129 122
133 124 143 140 134 139 134 139 145 145 143 128 126 132 141 144
140 138 143 143 143 143 143 142 142 142 142 142 142 143 142 141
142 142 141 142 142 141 138 138 136 138 140 140 138 137 132 136
134 134 135 135 136 135 135 135 135 134 136 135 135 135 135 135
135 134 133 134 133 133 133 131 131 128 128 129 129 127 127 126
125 124 124 123 120 120 122 122 122 122 122 120 121 121 121 120
118 114 110 108 90 29 0 0 0 0 0 0 0 0 0 6
0 3 4 3 1 2 6 9 8 4 47 113 118 124 131 127
129 124 139 142 138 140 131 116 119 113 110 139 144 137 138 144
144 143 143 143 143 142 143 141 141 142 142 142 143 142 142 142
142 142 142 141 141 141 140 136 133 139 139 139 138 137 137 134
132 135 138 136 137 136 136 134 133 135 135 135 135 135 135 134
134 133 134 132 133 133 132 132 128 127 127 129 130 129 128 127
126 126 125 124 122 121 123 122 123 122 122 120 121 122 122 121
121 117 116 111 107 83 23 0 0 0 0 0 1 1 1 7
0 3 7 6 5 2 4 7 8 30 107 114 124 133 133 134
133 128 134 144 140 141 129 127 141 139 142 144 143 144 144 144
144 144 143 144 143 144 142 141 142 142 141 141 142 142 142 142
142 142 141 142 141 141 140 139 140 138 138 138 138 138 137 136
136 137 136 137 137 136 136 135 135 135 136 135 135 134 134 134
134 133 132 132 132 132 131 131 130 128 124 126 127 127 127 126
126 125 124 123 121 119 122 123 123 123 123 121 121 122 122 122
121 119 119 115 113 106 79 17 0 0 0 0 0 0 0 6
0 0 9 8 9 6 4 4 18 106 117 116 129 142 138 140
128 131 132 144 140 135 119 73 77 80 77 140 142 143 143 144
143 143 143 143 143 144 143 143 141 142 141 143 142 143 142 142
142 142 141 141 141 141 140 140 141 140 139 138 138 138 138 138
136 135 136 137 137 137 137 136 136 136 136 135 135 135 135 134
134 134 133 133 133 132 132 131 131 130 126 126 129 129 128 127
127 126 126 125 123 118 122 124 124 124 124 122 123 123 123 123
122 121 120 117 117 109 108 84 22 0 0 5 17 19 17 18
0 0 4 9 10 11 8 6 63 126 119 121 126 139 144 141
123 133 124 139 140 138 118 51 32 33 35 94 102 127 142 144
143 143 143 136 125 117 117 143 143 143 143 142 142 143 142 142
142 142 142 142 142 142 141 141 141 140 140 140 140 140 139 139
139 138 138 138 138 138 138 138 137 136 137 137 136 136 135 135
134 135 134 134 133 133 133 132 132 132 128 127 131 131 130 130
130 128 128 127 126 118 123 126 126 125 125 124 123 124 123 123
123 123 122 120 119 115 108 103 51 1 0 7 22 27 28 26
0 0 0 5 10 12 11 35 117 118 124 123 129 143 144 142
120 138 119 124 141 139 117 53 30 32 34 80 90 87 96 108
113 109 101 95 97 99 109 144 143 143 144 143 143 142 142 143
143 142 142 142 141 141 141 141 141 141 141 141 140 140 140 140
139 140 138 139 139 139 138 138 138 137 137 137 137 136 136 136
135 135 135 135 135 134 133 133 134 133 132 130 132 133 132 132
132 131 130 131 128 115 124 128 129 128 127 126 124 126 126 125
124 124 124 123 122 120 114 111 91 28 0 0 1 2 4 4
0 0 0 0 9 11 11 73 123 121 122 134 139 137 142 144
125 138 122 124 141 140 117 55 28 32 32 68 94 87 89 95
96 94 94 94 97 99 107 143 143 143 143 142 143 143 143 142
143 142 142 143 142 142 141 140 141 141 141 140 140 140 140 139
139 139 140 139 139 139 138 139 138 138 138 137 135 136 136 136
136 135 136 135 135 134 133 134 133 134 133 130 132 133 133 132
133 132 131 131 130 114 122 129 130 129 129 127 124 127 127 126
126 125 125 124 122 121 122 116 116 77 14 0 0 0 0 0
0 0 0 0 3 10 23 121 122 124 132 137 134 134 141 145
126 137 128 113 140 142 120 62 27 32 33 42 120 131 111 103
108 100 94 98 100 101 107 143 143 143 143 143 143 143 143 143
142 143 141 142 142 142 142 142 142 141 142 141 141 141 141 140
140 140 140 139 139 139 139 138 138 138 137 138 136 136 136 136
135 136 135 135 135 134 134 134 134 134 133 131 130 133 133 132
132 132 131 131 130 117 118 128 129 129 129 127 124 126 126 126
125 125 125 124 123 123 123 119 114 108 52 3 0 0 0 0
0 1 0 0 0 2 74 133 127 137 133 135 132 141 142 143
130 133 136 109 132 139 110 60 27 33 33 32 104 143 140 142
143 114 97 100 100 99 106 143 144 143 143 143 142 143 143 143
143 142 141 141 142 142 141 141 141 141 141 141 140 141 140 140
140 139 139 139 139 139 139 138 138 138 137 137 137 136 136 135
134 135 135 135 135 135 134 134 133 133 132 132 132 133 133 133
132 132 131 131 130 118 117 128 129 129 128 127 124 126 125 126
125 125 125 124 124 124 123 120 118 118 93 29 0 0 0 0
0 1 1 0 0 13 128 128 128 144 143 135 138 139 140 134
134 133 142 109 123 136 109 61 26 32 34 34 93 145 144 143
144 120 100 101 100 98 105 144 143 143 143 143 142 142 142 141
142 142 142 142 142 142 142 141 141 141 141 141 141 140 140 140
140 140 139 139 139 139 139 138 138 138 138 137 137 137 136 136
135 135 135 134 135 135 135 135 134 134 133 130 128 132 133 133
132 132 132 131 130 120 117 128 130 129 129 128 125 127 127 126
126 125 125 125 125 124 124 122 118 117 117 71 11 0 0 0
0 0 4 0 0 59 143 126 130 144 144 140 130 139 141 144
127 129 141 118 108 137 112 59 27 31 33 34 80 140 144 143
143 121 99 100 99 96 105 143 143 143 142 142 143 143 142 142
142 141 142 142 142 142 141 141 141 140 140 141 141 141 140 139
140 139 139 139 139 139 138 138 138 138 138 137 137 136 136 135
135 135 134 135 135 134 134 134 133 133 133 133 130 132 133 132
132 132 131 130 130 122 116 125 127 129 129 128 125 127 127 127
126 126 126 125 125 125 125 122 118 119 124 107 46 1 0 0
