P2
128 120
144
20 19 19 20 19 18 18 17 17 17 16 17 16 16 16 16
16 16 15 15 15 15 15 14 14 14 14 13 13 13 13 13
12 12 11 12 12 11 11 11 10 10 10 10 9 10 10 9
10 9 10 10 12 12 12 11 8 7 8 10 11 10 10 10
10 10 9 9 9 8 10 10 11 10 11 11 11 11 11 11
13 16 16 17 17 17 17 18 18 18 19 18 19 19 19 19
20 20 21 20 20 20 21 21 21 21 21 21 21 21 22 22
22 21 21 21 22 21 22 22 22 22 22 22 23 22 23 22
18 21 23 25 24 22 18 17 16 16 16 16 16 16 16 15
15 15 15 15 14 14 14 14 14 13 13 13 13 12 12 12
12 12 12 11 11 11 11 10 10 10 10 9 10 9 9 9
9 9 10 12 12 12 11 8 8 8 10 10 10 10 10 10
10 9 9 9 8 9 10 11 11 10 11 11 10 11 11 11
11 11 11 11 12 12 12 12 12 12 11 12 12 12 12 13
13 13 13 13 14 13 14 14 15 14 14 14 14 14 14 14
14 14 14 14 14 14 14 14 14 14 14 14 14 13 14 14
3 6 10 14 21 22 17 16 16 16 16 16 16 16 16 16
15 15 15 15 15 14 14 14 14 13 13 13 12 13 12 12
12 12 12 11 11 11 10 10 11 11 10 10 10 9 9 9
9 10 11 12 12 12 11 8 9 8 11 11 11 11 10 10
10 9 10 9 7 9 10 10 11 11 11 11 11 12 11 11
12 12 12 12 12 12 12 12 12 13 12 12 13 13 13 13
13 13 14 14 14 14 14 14 14 13 14 14 14 14 14 14
14 14 15 14 14 14 14 14 14 14 14 14 14 14 14 15
0 0 0 0 11 24 18 16 16 16 16 16 15 16 16 15
15 15 15 15 15 15 14 14 14 14 14 13 13 13 13 13
12 12 12 12 12 11 11 11 11 11 10 10 10 9 10 9
9 10 10 12 12 13 12 9 8 10 10 11 11 11 10 10
11 10 10 10 8 10 10 11 11 11 11 12 12 11 11 12
12 12 12 12 12 12 12 12 13 13 13 13 13 13 13 13
13 14 14 14 14 14 14 14 15 15 15 14 15 14 14 14
14 14 14 14 14 15 15 14 15 14 15 14 14 14 15 15
0 0 0 0 3 23 21 17 17 17 17 16 17 16 16 16
16 16 16 15 15 15 15 15 14 14 14 14 13 14 14 13
12 12 13 12 12 12 12 11 11 11 11 11 11 10 10 10
10 10 11 12 13 13 13 11 8 11 8 12 12 12 11 11
11 12 10 11 10 9 11 12 12 12 12 12 12 12 12 13
13 13 12 12 12 12 12 13 13 13 14 13 13 13 14 14
14 14 14 14 15 14 15 14 14 14 14 14 14 14 14 15
15 14 15 15 15 15 15 15 15 15 14 15 15 14 14 15
2 3 0 0 0 20 22 17 17 17 17 16 16 17 16 16
16 16 16 16 16 15 15 15 15 14 14 14 14 14 13 13
13 13 13 13 13 13 12 12 12 12 12 11 11 11 11 10
11 10 11 12 13 14 13 13 9 11 10 11 12 12 11 11
11 12 11 11 11 9 12 12 12 12 12 13 13 13 13 13
13 13 13 13 13 13 13 13 13 14 14 13 14 14 14 14
14 14 14 15 15 14 15 14 15 15 14 15 15 15 15 15
16 15 15 15 15 15 15 15 15 15 15 15 15 15 14 15
3 2 0 0 0 18 22 18 17 17 17 17 17 17 17 16
16 16 16 16 15 15 15 15 15 15 15 14 14 14 14 14
14 13 13 13 13 13 12 12 12 11 12 12 11 11 11 11
11 11 11 12 14 14 14 13 9 10 11 10 12 12 12 12
12 12 12 11 11 10 11 11 12 12 13 13 13 13 13 13
13 13 13 13 13 13 14 14 13 14 14 14 14 14 14 15
14 15 15 15 15 14 15 15 15 15 15 15 15 15 15 15
15 16 15 15 15 15 16 15 15 15 15 15 15 15 15 15
0 1 0 0 0 18 22 18 17 17 17 17 17 16 16 16
16 16 16 16 16 16 15 15 15 15 15 14 14 14 14 14
13 14 13 13 13 13 12 12 12 12 12 12 11 11 11 11
10 11 11 12 14 14 14 14 10 10 13 10 12 12 12 12
12 11 11 11 11 10 11 11 12 13 13 13 13 13 13 13
13 13 13 13 13 13 14 13 14 14 14 14 14 14 14 14
14 15 15 15 16 15 15 15 15 15 16 15 15 15 15 15
15 15 15 14 15 15 15 15 15 15 15 15 15 15 15 15
0 2 3 0 0 17 22 17 17 17 17 17 17 16 16 16
16 16 16 16 15 15 15 15 15 15 14 14 15 14 14 14
14 14 14 13 13 13 13 12 12 12 12 12 11 11 11 11
11 11 12 12 14 15 14 14 10 10 13 9 12 12 12 12
12 11 12 11 12 10 12 12 13 13 13 13 13 13 13 13
13 13 13 13 14 14 14 14 14 14 13 14 14 14 15 14
15 15 15 15 15 16 15 15 15 15 15 15 15 15 15 15
15 16 15 15 15 15 15 15 15 15 15 14 15 15 15 15
0 0 2 0 0 17 22 18 17 17 17 17 17 16 17 16
16 16 16 16 16 16 16 15 15 15 15 15 15 14 14 14
14 13 13 13 13 13 13 12 12 12 12 12 12 11 11 11
11 11 11 13 14 15 14 13 10 10 13 9 13 13 13 12
12 11 12 12 11 10 11 12 13 13 13 13 14 14 13 13
13 13 14 14 13 13 14 14 14 14 14 14 14 15 15 14
15 15 16 15 15 15 15 15 15 15 15 15 15 15 15 15
15 16 15 15 15 15 15 15 15 15 15 15 15 15 15 15
0 0 1 1 3 18 22 17 17 17 17 17 17 16 16 16
16 16 16 16 15 15 15 15 15 15 15 14 14 14 14 14
14 13 13 13 13 12 12 12 12 12 12 11 11 12 11 11
11 12 12 12 15 14 14 14 10 10 14 10 12 13 13 12
12 12 12 12 12 10 11 12 13 13 13 13 13 13 13 13
13 12 13 13 13 14 14 14 15 14 14 14 14 14 14 15
15 15 15 15 15 15 15 15 15 15 15 15 15 15 15 15
15 15 15 15 15 15 15 15 15 15 15 14 15 15 15 15
14 11 9 7 9 19 21 17 17 17 17 16 17 17 16 16
16 16 15 16 16 16 15 15 15 15 15 15 15 14 14 14
13 13 14 13 13 13 13 13 12 12 12 12 12 12 12 11
11 11 12 12 14 14 13 14 9 10 14 10 12 13 13 13
12 11 12 12 12 11 11 12 13 13 13 13 13 14 13 13
13 14 14 14 14 13 14 14 14 14 14 14 15 14 15 15
15 15 15 15 15 15 15 15 15 15 15 15 15 15 15 15
15 15 15 15 15 15 15 15 15 15 15 14 15 15 14 14
14 16 17 18 18 19 19 17 17 17 17 17 16 16 16 16
16 16 16 16 16 15 15 15 15 15 15 14 14 14 14 14
14 13 14 14 13 13 13 12 13 12 12 12 12 12 11 11
11 11 12 12 13 13 14 14 7 6 13 11 12 13 13 12
12 12 12 12 12 11 12 11 13 13 13 13 13 13 13 13
13 14 14 14 15 14 14 14 14 14 14 15 15 14 15 15
15 15 15 15 15 15 15 15 15 15 15 15 15 15 15 15
15 15 15 15 15 15 14 15 14 14 14 14 15 15 15 15
9 10 12 13 15 16 17 17 17 17 17 17 17 17 17 16
16 16 16 16 15 15 15 15 16 15 15 15 15 14 14 13
14 13 14 13 13 13 13 13 13 13 13 12 12 12 11 10
11 10 7 5 3 2 4 2 2 3 8 9 10 13 13 13
12 12 12 12 12 11 11 12 13 13 14 14 14 14 14 14
14 14 14 14 14 14 14 14 14 14 15 15 15 15 15 16
15 15 15 15 15 15 15 15 16 15 15 15 15 15 15 15
15 15 14 14 15 14 15 14 15 15 15 14 14 14 14 14
6 5 6 7 8 9 11 13 15 16 16 17 17 17 17 16
16 16 16 16 16 16 16 16 15 15 15 14 14 14 14 14
14 14 14 14 14 13 13 13 12 12 12 10 11 8 5 4
3 1 2 1 3 1 1 1 0 0 0 0 2 7 10 13
13 12 12 12 12 12 12 12 13 13 13 13 14 14 13 14
14 14 14 14 15 14 14 15 15 14 15 15 15 15 15 15
15 15 16 16 15 15 16 16 15 15 16 15 15 14 15 14
15 15 15 15 15 15 15 14 15 15 15 14 14 14 14 14
6 6 6 6 5 6 6 6 7 7 8 10 12 14 15 16
16 16 16 16 16 16 16 15 15 15 15 15 15 15 15 14
14 14 14 13 13 13 13 13 13 13 9 6 3 1 0 0
0 2 0 1 2 2 6 5 3 3 2 0 0 0 0 0
1 6 10 12 12 12 12 12 13 14 14 14 14 14 14 14
14 15 14 14 15 14 14 14 14 15 15 15 15 15 16 15
16 16 16 16 16 16 16 15 15 14 15 15 15 15 15 15
15 15 15 15 15 15 15 15 15 15 15 14 14 14 14 15
12 11 11 10 8 7 6 6 7 6 6 6 5 3 6 14
17 16 16 16 16 16 16 16 15 15 15 15 15 14 14 14
14 14 14 14 13 13 13 13 12 8 3 0 0 0 0 0
2 0 0 0 4 0 0 2 2 2 1 0 0 1 2 2
6 4 2 4 12 11 9 12 13 14 14 14 14 14 14 14
14 14 15 15 15 15 15 15 15 15 15 15 15 15 15 15
15 15 15 15 15 15 15 15 15 15 16 15 15 15 16 15
15 15 15 15 15 15 15 15 15 15 15 14 14 14 14 15
20 22 23 21 20 14 9 10 8 6 6 6 5 4 6 14
17 17 17 16 15 15 15 16 16 16 15 15 15 14 15 14
15 14 14 14 15 17 14 7 4 0 0 0 0 0 0 1
3 1 2 0 2 0 0 0 1 1 0 0 0 1 0 0
0 0 4 4 2 5 6 5 9 13 14 14 14 15 14 14
14 15 15 15 15 15 15 15 15 15 15 15 15 15 16 15
15 15 15 15 15 15 15 15 15 15 15 15 15 15 15 15
15 15 15 15 15 15 15 15 15 15 15 14 15 15 14 14
22 22 24 24 23 17 14 17 18 15 15 13 9 5 5 13
16 16 16 16 16 19 19 18 17 15 15 15 15 15 15 14
14 14 14 13 16 13 2 5 0 0 0 0 0 0 0 1
0 0 0 0 0 0 2 0 1 0 0 2 1 0 0 0
1 1 3 3 1 3 3 10 7 6 12 14 14 14 14 14
14 15 15 15 15 15 14 15 15 15 15 16 15 15 15 16
15 15 15 15 15 15 15 15 15 15 15 15 15 15 15 15
15 15 15 15 14 14 15 15 15 14 15 15 14 15 14 15
16 19 21 23 24 18 17 19 21 18 22 22 20 7 7 13
17 17 16 16 17 21 21 20 19 18 17 17 16 16 15 14
14 13 14 14 9 1 0 0 0 0 0 0 0 0 0 0
0 0 0 0 0 0 0 0 0 1 1 0 0 1 0 0
0 1 2 2 1 1 1 1 3 3 4 12 15 15 14 15
15 14 15 14 15 15 15 15 15 15 15 16 16 15 15 15
15 15 15 15 15 15 15 15 15 15 16 15 15 15 15 15
15 14 15 15 15 15 15 15 15 15 15 15 15 15 15 14
0 2 4 6 13 18 18 20 21 22 23 23 22 8 7 15
17 17 17 16 17 21 21 20 19 19 21 20 17 18 18 16
15 14 14 7 0 0 0 0 0 0 0 0 0 0 0 0
0 0 0 0 0 1 1 0 0 0 0 0 0 1 4 3
2 1 0 0 0 3 2 2 0 0 0 2 12 15 14 14
14 15 15 15 15 15 15 15 15 15 15 16 15 16 15 15
15 16 15 15 15 15 15 15 15 15 16 16 15 15 15 15
15 15 15 15 15 14 15 15 15 15 15 15 14 14 14 15
0 0 1 1 6 19 18 19 21 22 22 22 22 10 7 16
19 18 18 18 18 17 13 17 19 21 21 19 12 11 15 16
17 17 12 1 0 1 0 0 0 0 0 0 0 0 0 0
0 0 1 0 0 0 2 0 0 0 2 0 0 0 0 0
1 0 0 1 1 1 0 0 1 4 3 0 4 13 15 15
14 14 14 14 14 15 15 15 15 15 15 16 15 15 15 16
16 15 15 15 15 15 15 15 15 15 15 15 15 14 15 15
15 15 15 15 15 15 15 16 15 15 15 15 15 15 15 14
0 0 6 4 7 18 11 14 17 20 22 22 21 10 7 15
19 15 16 19 21 11 0 2 9 12 13 17 6 0 0 2
4 6 3 0 1 3 0 0 0 0 0 0 0 0 0 0
1 1 0 0 0 0 2 6 6 3 5 2 0 0 0 0
0 0 0 0 2 0 0 0 2 0 0 0 0 5 12 15
13 14 15 15 15 15 15 15 15 15 15 15 16 15 16 16
15 15 16 16 16 15 15 15 15 15 15 15 15 15 15 15
15 15 15 15 15 15 15 15 15 16 14 15 14 14 14 14
0 0 5 4 8 17 0 0 2 4 8 9 17 11 7 13
18 18 18 20 22 13 0 0 3 5 5 13 6 0 0 0
0 0 0 0 2 0 0 0 0 0 0 0 0 0 0 0
0 0 0 0 0 0 0 1 1 2 6 3 1 5 5 2
0 0 0 0 0 0 0 0 0 1 3 0 1 1 5 13
15 15 15 15 15 16 16 15 16 16 15 16 16 16 16 15
15 15 16 16 16 16 16 16 16 16 16 16 16 15 15 15
15 15 15 15 16 15 15 15 15 15 15 14 15 15 15 15
0 0 0 0 6 17 0 0 0 0 0 0 11 11 6 2
2 5 10 15 18 13 0 0 1 1 2 12 7 0 0 0
0 0 0 0 0 0 0 0 0 0 0 0 0 0 0 0
0 0 0 0 0 0 0 0 0 0 1 2 5 12 12 6
5 10 5 3 1 0 0 0 0 0 3 4 2 0 1 6
14 16 15 15 15 15 15 15 16 16 16 16 16 16 16 16
16 16 16 16 16 16 16 16 16 16 16 15 15 15 15 16
15 15 15 15 16 16 16 15 15 15 15 15 15 15 15 15
0 0 1 0 6 17 0 0 0 0 0 0 12 12 6 0
0 0 0 0 1 8 0 0 0 0 0 10 6 0 0 0
0 0 0 0 0 0 0 0 0 0 0 0 0 0 0 0
0 0 0 0 0 0 0 0 0 0 2 3 4 6 15 18
16 17 16 15 11 5 1 0 0 2 4 0 6 6 2 3
8 15 15 15 16 15 15 15 16 16 16 16 15 16 16 15
16 16 16 16 16 16 16 16 16 16 16 15 16 16 15 16
15 15 16 16 16 15 15 15 15 15 15 15 15 15 15 14
5 5 5 0 5 16 0 0 2 4 0 0 11 12 6 0
0 0 0 0 0 5 0 0 0 0 0 11 8 0 0 0
0 0 0 0 0 0 0 0 0 0 0 0 0 0 0 0
0 2 0 0 0 0 0 0 0 0 0 1 1 4 9 16
17 21 21 21 18 11 7 6 2 0 0 0 0 0 3 2
3 11 16 15 16 15 15 16 16 16 16 16 16 16 16 16
17 16 17 16 16 16 16 16 15 15 16 16 16 15 16 15
15 15 16 16 15 16 15 15 15 15 15 15 16 16 16 15
0 0 1 0 6 16 0 0 0 6 0 0 11 11 6 0
0 0 0 0 0 4 0 0 0 0 0 11 9 0 0 2
0 0 0 0 1 0 0 0 0 0 0 0 0 0 0 0
0 0 0 0 0 1 0 0 1 0 0 1 2 4 8 10
23 29 31 32 28 18 18 14 13 3 0 0 0 0 0 1
2 7 14 16 16 16 16 16 16 16 16 16 16 16 16 16
16 16 16 16 16 16 16 16 16 16 16 16 16 16 16 16
16 15 16 16 16 16 16 17 16 16 16 16 16 16 15 16
0 2 0 0 5 15 0 0 0 0 0 0 11 12 6 1
0 0 3 0 0 3 0 0 0 0 0 11 10 0 0 0
0 0 0 0 1 0 0 0 0 0 0 0 0 0 2 1
0 0 0 0 0 0 0 0 1 1 0 0 1 2 7 13
16 33 39 42 40 37 36 32 21 14 3 0 0 0 0 0
0 1 10 15 16 16 16 16 16 16 16 15 16 16 16 16
16 17 17 17 16 16 16 16 16 16 16 16 16 16 16 16
16 16 16 16 17 16 16 16 16 15 14 14 14 15 15 14
0 1 0 0 5 15 0 0 0 0 0 0 11 11 6 0
2 1 0 0 0 3 0 0 0 0 1 12 11 0 1 0
0 0 0 1 1 0 0 0 0 0 0 0 1 0 4 1
0 0 0 0 0 0 0 2 2 0 0 0 0 2 5 14
26 30 37 44 44 46 45 42 37 25 13 2 0 0 0 0
0 0 6 12 16 16 16 16 16 16 16 16 16 16 16 16
16 16 16 17 16 16 16 16 17 16 16 16 16 16 16 16
15 15 16 16 15 15 15 15 14 12 11 10 9 7 6 5
16 15 12 9 12 16 2 0 1 0 0 0 12 11 7 2
1 0 0 0 0 5 2 0 0 0 1 12 18 8 0 0
0 0 0 1 0 0 0 0 0 0 0 0 0 2 4 0
0 0 0 2 0 0 1 2 0 1 0 0 0 3 4 16
36 39 44 43 44 47 47 46 43 38 26 12 1 0 0 1
0 0 3 10 15 16 16 16 16 16 16 16 16 16 17 17
17 17 17 17 17 16 16 16 15 16 15 15 15 15 15 14
14 14 13 12 11 9 7 6 6 5 5 5 5 6 6 6
14 18 19 21 19 24 22 13 15 16 16 14 17 10 7 1
0 0 0 0 0 11 19 14 13 11 7 14 21 9 0 0
0 0 0 5 0 0 3 0 0 0 0 1 3 2 1 0
0 0 0 0 0 1 1 0 0 0 0 1 2 4 8 20
32 39 47 47 48 46 45 45 45 42 35 22 9 0 0 0
1 0 0 10 12 15 16 16 16 16 16 16 16 16 17 17
16 16 16 16 16 15 16 15 15 14 14 13 12 10 10 8
8 6 6 6 6 6 6 7 8 8 8 8 9 9 9 9
7 6 5 4 21 29 23 14 19 22 22 23 21 10 7 2
0 0 0 0 0 12 25 20 21 23 23 21 17 6 0 0
1 0 0 3 1 2 3 0 0 0 0 3 1 2 0 0
0 0 3 0 0 1 0 0 0 0 2 4 2 2 7 18
29 42 47 48 51 50 48 46 43 43 40 34 19 3 0 0
0 0 0 4 11 13 16 16 16 16 16 16 16 17 17 16
16 16 15 15 13 12 15 12 8 7 7 6 7 7 7 8
8 8 9 9 10 9 10 10 11 11 11 11 11 11 12 11
2 1 0 1 22 27 19 15 20 22 22 24 22 10 7 6
4 2 0 0 0 12 21 20 23 25 25 20 15 2 0 0
1 0 0 1 0 2 0 1 0 0 0 3 0 1 0 0
0 0 0 0 0 2 0 0 0 2 2 2 1 2 7 15
27 44 48 50 49 51 50 48 46 45 43 40 30 11 0 0
0 0 0 1 10 14 15 16 16 16 16 16 15 14 13 12
10 9 9 9 8 8 14 11 7 8 9 10 10 11 11 11
11 12 12 12 12 12 13 13 12 13 13 13 13 13 13 13
0 0 0 1 21 25 10 3 9 10 11 13 19 11 8 14
21 20 17 14 12 18 16 18 22 23 23 21 15 1 0 0
1 0 0 2 0 1 0 1 0 0 2 1 0 0 1 0
0 1 0 0 1 0 0 0 4 2 1 3 0 1 6 14
27 46 54 54 52 53 52 50 49 47 45 41 35 24 2 0
3 0 0 1 7 14 14 14 9 12 11 10 9 9 9 9
10 10 10 10 11 11 12 11 10 12 13 13 13 13 14 14
13 14 13 13 15 14 14 14 14 14 14 15 15 15 14 13
0 0 0 1 20 25 8 0 0 0 0 0 12 12 8 15
23 23 23 23 23 23 10 7 11 13 17 16 13 0 0 1
1 1 0 5 1 0 1 6 1 1 0 0 1 0 2 0
1 3 0 0 0 0 0 0 1 0 1 1 1 0 6 16
34 45 55 56 56 55 53 51 47 46 45 43 39 32 9 0
0 0 0 0 2 8 7 2 7 10 10 11 11 11 12 12
13 13 13 13 14 13 14 12 11 14 14 14 15 15 14 15
15 15 15 15 15 15 15 15 15 14 15 15 15 14 15 15
0 0 0 0 18 25 8 0 0 0 0 0 10 12 7 13
22 23 23 23 24 23 6 0 0 0 2 6 9 0 1 2
5 2 4 7 2 2 2 6 0 3 1 0 2 5 2 0
5 3 0 0 1 0 0 0 0 0 0 1 2 1 6 18
29 41 60 57 60 58 55 51 47 44 45 43 38 34 19 0
0 0 0 0 2 6 5 9 13 13 13 13 13 14 14 15
15 15 15 15 15 13 7 5 11 15 15 15 15 15 15 15
15 16 16 15 15 15 15 15 16 15 16 16 15 15 15 14
0 0 0 0 14 23 7 0 0 0 9 11 13 14 11 12
16 17 18 18 20 21 4 0 0 0 0 4 6 0 0 2
4 4 4 9 4 2 1 2 1 6 0 1 4 5 1 0
1 0 0 1 1 0 0 0 0 0 0 1 1 4 6 19
28 45 51 59 59 59 56 52 48 44 45 44 39 34 27 3
0 0 0 1 2 5 9 14 14 14 15 15 15 15 15 16
16 16 16 16 15 13 3 1 9 15 16 16 16 16 16 16
16 16 16 16 15 15 15 15 15 15 15 15 15 15 15 15
0 0 0 0 13 22 6 0 0 0 9 13 11 12 10 10
10 11 15 14 18 20 4 0 0 0 0 0 5 0 0 3
0 7 6 6 3 6 1 0 2 3 0 7 1 0 3 0
4 0 0 2 0 0 0 0 0 0 0 1 5 3 7 12
23 42 51 58 59 60 56 54 50 46 45 44 40 37 31 10
0 0 0 0 7 8 12 16 16 16 16 16 16 16 16 16
15 13 7 4 4 12 3 1 7 15 16 17 16 17 16 16
16 16 16 16 16 16 15 16 15 15 15 15 15 15 15 14
0 0 0 0 13 21 5 0 0 0 2 4 9 11 9 11
11 13 15 16 19 20 4 0 0 0 0 0 5 2 1 1
4 7 5 9 1 3 0 0 1 4 2 8 0 0 0 1
9 0 2 3 0 1 3 1 0 0 2 5 5 6 3 11
23 46 53 61 60 60 58 55 52 45 44 43 40 36 31 15
0 0 0 0 6 13 7 8 7 6 5 10 17 16 15 14
4 0 0 0 1 7 2 0 6 15 16 17 16 15 16 16
16 16 16 16 16 15 15 15 15 15 15 15 15 15 15 16
0 0 0 0 16 22 5 0 0 0 0 0 4 9 9 8
2 4 6 9 12 14 4 0 0 0 0 0 4 2 2 3
7 2 2 9 3 1 0 0 4 1 2 1 0 0 0 3
3 0 2 2 1 3 3 0 0 2 4 3 8 1 4 13
26 40 52 58 62 59 58 57 52 47 44 43 40 37 32 21
0 0 0 2 7 14 4 0 0 0 1 6 8 3 0 0
0 1 0 0 0 0 2 0 7 15 16 16 16 16 16 16
16 16 16 15 16 15 15 15 15 15 15 16 15 15 15 15
0 0 0 0 17 22 4 0 0 1 0 0 5 13 12 8
0 0 0 0 0 4 3 0 0 0 0 0 4 5 1 2
3 1 2 3 1 1 1 0 3 2 4 1 1 2 1 2
0 0 2 0 2 0 2 3 0 4 2 3 2 0 6 14
21 38 57 57 62 62 60 57 52 48 47 44 43 39 34 25
4 0 0 0 0 12 9 0 0 0 0 0 0 0 0 0
0 9 1 0 0 0 4 0 8 15 16 16 16 16 16 16
16 16 16 16 16 15 15 15 15 15 15 15 15 15 15 15
5 3 2 2 17 22 5 0 0 3 0 0 6 16 13 8
0 0 0 0 0 2 3 0 1 4 0 0 3 8 0 0
5 0 0 1 0 8 1 2 2 5 4 6 2 5 1 0
0 1 4 1 1 0 3 1 0 2 2 2 2 2 7 14
20 38 58 58 59 60 59 58 55 51 48 43 42 39 35 27
9 0 0 0 1 1 0 0 0 0 0 0 0 0 0 0
0 0 0 0 0 0 8 4 11 15 16 16 17 16 16 16
16 16 16 16 16 16 15 15 15 15 15 15 15 15 15 15
14 16 17 15 18 19 10 0 0 3 2 0 4 16 12 9
0 0 2 1 0 2 3 0 5 7 2 0 7 6 0 0
2 0 0 0 2 3 1 3 0 6 1 2 4 5 2 0
1 2 1 0 4 0 4 0 1 1 2 1 3 1 5 14
21 36 55 60 61 63 61 58 53 50 47 43 41 38 35 28
15 0 0 2 10 15 14 13 14 13 13 9 7 6 0 0
0 0 0 0 0 1 12 12 14 16 16 16 16 16 16 15
16 16 16 16 16 16 15 15 15 15 15 15 15 15 15 15
3 4 7 7 11 18 16 14 10 12 13 11 12 17 11 8
0 1 8 4 0 2 8 3 9 9 6 1 8 9 0 0
1 0 0 0 0 0 4 1 1 3 0 1 1 1 0 0
1 4 3 0 3 0 1 0 2 0 1 1 3 2 9 15
23 42 54 60 61 62 58 58 53 46 41 37 37 37 33 29
20 0 0 6 13 16 17 17 16 16 16 16 5 1 0 0
0 2 6 5 5 10 13 14 15 16 16 16 17 16 16 16
16 15 16 16 16 15 15 15 15 14 14 15 14 13 14 15
0 0 4 5 9 19 17 10 9 13 17 19 21 20 12 8
0 1 6 3 0 1 17 18 20 19 18 11 7 5 0 0
0 0 0 0 0 0 0 0 0 0 0 0 5 7 0 0
0 6 3 2 3 0 0 0 0 0 1 2 3 4 10 16
24 45 55 59 61 61 58 56 52 40 34 27 28 32 31 29
23 1 2 7 15 17 17 17 17 17 17 9 0 0 1 0
0 8 16 16 15 15 15 15 17 16 16 16 17 16 16 16
16 15 16 15 16 16 16 15 16 15 15 15 15 15 15 15
0 1 2 5 12 19 15 2 0 1 4 10 22 20 11 9
1 0 0 0 0 1 18 20 22 20 22 13 9 2 0 0
0 0 0 0 0 0 0 0 0 0 0 1 4 4 0 0
2 6 2 0 1 0 1 2 0 0 3 4 3 4 13 20
29 44 54 60 60 61 59 55 47 39 31 24 18 18 25 27
22 0 6 13 16 16 16 17 17 16 16 9 0 0 7 0
0 7 17 16 16 15 15 16 16 16 16 16 16 17 16 16
16 16 16 16 16 16 16 15 15 15 15 15 15 15 15 15
8 15 7 2 11 20 15 0 0 8 10 12 21 17 11 11
8 0 0 0 0 2 17 19 20 19 20 10 7 0 0 0
0 0 0 0 0 0 0 0 0 0 0 0 2 1 0 1
4 4 0 0 1 0 3 1 0 0 3 2 4 7 15 26
33 47 56 61 61 60 58 52 44 38 26 18 14 9 12 21
17 0 9 13 17 17 17 17 17 17 17 10 0 0 0 0
0 6 17 17 16 16 16 17 17 16 16 17 17 16 16 16
16 16 16 16 16 16 16 16 15 16 16 16 15 15 15 15
14 15 1 0 11 21 15 0 0 5 12 16 21 14 11 11
5 0 0 0 0 1 17 17 18 18 17 7 8 0 1 0
0 0 0 0 0 0 0 0 0 0 0 0 0 2 0 0
4 2 0 0 1 1 3 0 0 0 1 1 4 9 18 27
38 54 57 59 61 60 56 52 46 33 36 17 7 6 6 12
7 0 1 5 17 17 17 17 17 16 16 9 0 0 0 0
0 5 17 17 17 16 17 17 17 17 17 17 17 16 16 17
16 16 16 16 16 16 16 16 16 16 15 15 16 15 15 15
11 17 1 0 12 22 16 0 0 0 2 14 22 14 12 11
6 2 1 1 0 2 19 17 17 17 17 7 3 0 0 0
0 0 0 0 0 0 0 0 0 0 0 0 0 2 0 0
3 3 1 2 1 3 3 0 0 1 0 0 0 2 4 6
6 6 8 10 10 10 8 9 12 17 9 13 0 0 0 0
1 0 1 3 18 17 17 17 13 9 8 4 0 0 0 0
0 5 17 17 18 17 17 17 17 17 17 17 17 17 17 16
16 16 16 16 16 16 16 16 16 15 16 15 15 16 15 15
4 6 1 0 12 22 16 0 0 0 0 11 22 14 12 11
17 19 18 17 17 18 22 19 18 18 18 8 1 0 0 0
0 0 0 0 0 0 0 0 0 0 0 0 0 3 0 3
3 1 0 2 0 3 0 0 0 0 0 0 0 0 1 2
3 5 9 11 13 12 10 16 22 18 8 3 0 0 1 2
2 2 2 8 18 18 17 14 4 4 0 0 0 0 0 1
0 4 17 17 17 17 17 17 17 17 16 17 17 17 16 17
17 16 16 16 16 16 16 16 16 16 15 15 15 15 15 15
0 0 0 0 11 22 15 0 0 0 0 11 23 15 12 12
22 26 25 25 26 26 25 20 17 17 15 7 4 0 0 0
0 0 0 0 0 0 0 0 0 0 0 0 0 3 2 0
6 0 1 0 1 2 0 0 0 1 2 0 5 6 10 12
12 10 8 7 4 3 1 0 0 0 0 0 0 0 1 3
0 0 2 11 18 18 17 17 18 16 12 5 0 0 0 1
0 3 12 16 17 17 17 17 17 17 17 17 17 17 16 16
16 16 16 16 16 16 16 15 16 16 16 16 16 16 15 14
0 0 0 0 10 22 14 0 0 0 0 11 23 14 11 12
19 22 22 23 23 24 24 12 6 3 3 2 4 0 0 0
0 0 0 0 0 0 0 0 0 0 0 0 9 11 3 0
4 0 0 0 1 0 0 0 0 3 1 6 20 27 35 45
52 54 45 42 36 24 14 7 2 0 0 3 0 0 0 3
0 0 2 12 17 17 16 17 21 17 5 1 0 0 0 0
0 0 3 5 10 16 18 17 17 17 17 17 16 16 16 16
16 16 16 16 16 16 16 16 15 16 16 15 15 15 15 14
0 0 0 0 10 23 15 0 0 0 0 9 20 13 11 11
13 14 15 15 14 15 16 7 0 0 0 0 2 0 0 0
0 0 0 0 0 0 0 0 0 0 0 1 27 10 2 0
1 0 0 0 0 0 0 0 1 3 3 13 25 40 38 50
58 61 60 59 54 49 41 18 1 1 3 7 0 0 0 3
1 0 1 9 12 10 9 6 3 2 1 0 0 0 0 0
0 0 3 1 5 16 18 18 17 17 17 17 17 16 16 16
16 16 16 16 16 16 16 16 16 16 16 15 15 15 14 14
0 0 0 0 9 22 15 0 0 0 0 8 22 14 11 11
15 18 17 17 17 16 17 8 1 0 0 0 0 2 0 0
0 0 0 0 0 0 0 0 0 0 0 13 32 6 1 0
0 0 2 0 1 0 0 0 1 2 5 22 37 45 46 55
61 64 64 61 55 51 44 10 0 0 6 5 0 0 0 2
8 0 0 3 4 4 3 1 0 0 0 0 0 0 0 0
0 0 2 2 3 16 18 17 17 17 17 16 16 16 16 16
16 16 16 16 16 16 16 16 16 16 16 15 15 14 13 12
6 7 10 12 17 21 14 0 0 0 0 9 23 14 10 11
16 19 19 19 19 19 19 9 2 0 0 0 0 0 0 0
0 0 0 0 0 0 0 0 0 0 0 23 25 2 0 1
0 3 1 1 2 1 0 3 1 2 10 35 50 52 46 58
62 66 66 64 56 49 31 4 7 4 5 3 0 0 0 2
7 0 0 2 2 2 1 0 0 4 2 1 0 0 0 0
0 0 2 2 2 15 18 17 18 17 17 17 17 16 16 16
16 16 16 15 16 16 16 16 16 15 15 15 15 13 13 12
20 20 21 22 21 17 13 10 8 6 5 11 21 14 12 13
16 18 19 19 19 20 21 10 0 0 0 2 0 0 0 0
0 0 0 0 0 0 0 0 0 0 0 23 12 1 7 3
1 3 4 4 6 1 3 3 1 4 21 48 55 54 51 58
62 61 65 64 57 49 38 12 8 5 5 1 0 0 0 6
27 6 0 4 4 4 4 5 3 2 3 8 0 0 0 0
0 0 2 3 2 15 18 17 17 17 17 17 16 16 16 16
16 16 16 16 16 16 16 16 16 15 15 15 15 14 14 13
19 20 20 20 20 19 19 19 19 19 18 18 19 18 17 18
18 18 18 18 18 18 18 15 4 0 0 1 0 0 0 0
0 0 0 0 0 0 0 0 0 0 0 20 9 8 14 3
1 2 10 6 4 1 3 3 4 10 35 55 58 54 57 60
61 62 65 64 59 50 43 16 9 5 3 0 0 0 0 14
33 28 2 6 5 5 5 5 2 0 2 8 0 0 0 0
0 0 3 4 6 13 16 17 17 17 17 17 16 16 16 17
16 14 12 13 15 15 15 15 16 15 15 14 14 13 13 13
17 19 19 19 18 18 18 18 18 19 19 18 18 18 18 18
18 18 18 18 18 18 18 17 7 0 0 1 0 0 0 0
0 0 0 0 0 0 0 0 0 0 0 19 12 21 17 6
2 4 18 8 5 5 4 3 3 13 44 58 58 55 58 61
61 62 65 65 62 54 47 20 8 3 2 0 0 0 1 19
43 43 18 1 1 1 2 5 4 0 4 4 0 0 0 2
1 0 2 5 6 13 17 17 17 17 17 17 17 16 16 16
7 0 3 0 10 16 15 15 16 15 15 15 14 13 13 12
17 19 18 18 18 18 18 18 18 18 18 17 17 17 17 17
16 16 16 16 16 16 17 16 7 0 0 0 0 0 0 0
0 0 0 0 0 0 0 0 0 0 0 16 27 34 24 7
1 11 18 12 7 7 7 3 8 28 51 58 59 58 58 60
61 61 63 66 64 60 52 29 7 2 0 0 0 0 10 21
51 48 40 5 0 0 3 6 5 3 2 1 0 0 0 0
0 0 3 5 5 12 17 17 17 16 17 17 17 16 16 16
6 0 0 0 9 16 16 15 15 14 14 14 14 13 13 13
16 19 16 11 9 8 8 7 6 6 5 5 4 4 4 4
4 4 3 4 4 7 15 17 10 0 0 0 0 0 0 0
0 0 0 0 0 0 0 0 0 0 0 16 44 45 35 13
7 13 16 17 21 18 10 8 17 39 52 57 57 56 57 59
60 61 63 66 66 64 57 42 10 3 1 0 1 5 18 26
52 48 45 24 0 0 4 6 6 4 6 5 6 6 8 7
9 9 10 10 10 10 11 12 9 11 16 17 17 17 17 16
4 0 0 0 5 16 15 15 15 15 15 14 14 14 14 14
15 18 15 3 0 0 0 0 0 0 0 0 0 0 0 0
0 0 0 0 0 3 17 17 13 5 5 9 9 4 0 0
0 0 0 0 0 0 0 0 0 0 0 6 51 48 54 35
18 12 7 34 35 29 18 20 33 49 53 56 56 54 57 58
59 60 61 65 66 65 62 53 18 6 2 2 3 17 12 40
56 52 48 41 6 0 5 6 6 6 16 8 11 13 15 13
14 15 14 13 10 6 22 32 7 8 15 17 17 15 14 14
3 0 0 0 4 16 15 15 15 14 15 14 14 14 14 14
14 18 16 6 0 0 0 0 0 0 0 0 0 0 0 0
0 0 0 0 0 3 17 18 17 17 18 19 17 9 0 0
0 0 0 0 0 0 0 0 0 0 0 1 43 53 60 41
21 12 18 55 51 43 40 41 47 53 53 56 55 53 56 57
58 59 60 62 64 65 65 59 33 8 4 2 9 19 11 51
56 53 47 43 20 1 6 6 6 6 11 10 13 15 25 30
36 39 41 29 10 14 48 59 12 7 15 17 16 3 0 0
0 0 0 0 3 15 15 15 14 14 15 15 14 15 14 14
14 18 17 8 0 0 0 0 0 0 0 0 0 0 0 0
0 0 0 0 0 1 16 18 17 18 20 20 17 11 0 0
0 0 0 0 0 0 0 0 0 0 0 1 27 57 58 52
32 15 27 61 55 51 53 51 51 53 53 54 54 53 54 57
59 59 60 61 63 65 66 64 53 15 6 3 13 7 30 48
52 47 47 46 35 4 6 6 7 5 12 11 14 15 29 38
41 42 41 28 12 26 62 52 33 8 14 16 12 0 0 0
0 0 0 0 3 15 15 15 14 14 14 14 15 15 15 14
13 18 17 10 0 0 0 0 0 0 0 0 0 0 0 0
0 0 0 0 0 1 16 19 16 16 17 18 18 13 1 0
0 0 0 0 0 0 0 0 0 0 0 2 13 55 55 53
39 14 14 45 55 53 55 54 53 54 54 54 54 55 55 55
56 58 58 59 61 64 65 66 59 44 19 7 7 24 41 40
41 42 47 49 42 18 6 6 8 2 8 14 16 18 15 17
17 14 14 14 13 14 18 13 13 11 13 17 14 1 0 0
0 0 0 0 2 15 15 15 15 15 15 15 15 15 15 14
13 18 18 12 0 0 0 0 0 0 0 0 0 0 0 0
0 0 0 0 0 0 14 19 16 12 10 12 12 10 4 0
0 0 0 0 0 0 0 0 0 0 0 0 7 42 57 51
50 42 16 29 56 52 54 53 53 53 53 54 52 54 53 55
57 57 57 58 60 61 63 64 62 56 49 38 35 38 36 39
43 45 60 61 47 28 6 7 8 0 5 15 17 16 12 12
15 10 9 11 13 13 13 12 12 11 12 17 16 6 0 0
0 0 0 0 1 11 15 15 15 15 15 15 15 16 15 14
12 18 18 12 1 0 0 0 0 0 0 0 0 0 0 0
0 0 0 0 0 0 13 19 16 5 0 1 2 6 9 0
0 0 0 0 0 0 0 0 0 0 0 0 3 25 58 52
53 61 39 32 54 51 54 53 53 52 53 54 53 53 53 54
56 56 57 58 59 58 61 63 62 58 50 44 39 38 33 46
56 61 58 50 46 26 5 7 6 0 3 7 15 17 13 12
10 9 9 10 13 13 13 13 12 10 11 16 14 12 0 0
0 0 0 0 0 5 15 15 16 16 16 15 16 15 16 15
13 17 18 14 2 0 0 0 0 0 0 0 0 0 0 0
0 0 0 0 0 0 11 19 16 5 0 0 0 5 13 4
0 0 0 0 0 0 0 0 0 0 0 1 0 10 53 60
53 57 57 50 53 49 53 53 53 52 53 53 55 53 53 54
56 55 56 56 59 60 60 62 62 58 52 46 39 33 31 47
62 54 40 39 39 16 6 7 3 0 1 2 14 16 13 11
9 9 9 11 14 13 13 12 12 10 9 9 0 0 2 0
0 0 0 0 0 4 15 15 15 15 16 16 15 15 14 13
12 17 17 14 3 0 0 0 0 0 0 0 0 0 0 0
0 0 0 0 0 0 10 19 16 6 0 0 0 4 14 8
2 0 0 0 1 0 0 0 0 0 0 2 6 5 36 63
61 53 56 53 52 50 52 53 53 54 52 52 53 53 52 54
56 55 56 57 58 57 57 57 58 57 51 44 36 30 28 39
45 25 9 18 16 7 6 7 2 0 1 3 16 16 13 10
10 10 9 10 13 13 13 12 12 10 2 0 0 0 1 0
0 0 0 0 0 0 12 15 15 15 15 15 15 14 14 13
11 17 18 14 3 0 0 0 0 0 0 0 0 0 0 0
0 0 0 0 0 0 8 19 16 7 0 0 0 4 14 11
9 1 0 0 1 0 0 0 0 0 0 1 6 16 22 53
62 55 54 54 51 49 52 51 52 52 52 52 51 52 52 54
56 57 58 58 57 56 55 56 57 54 51 43 34 36 21 26
30 17 0 0 5 7 7 7 1 1 8 8 17 15 12 9
7 9 8 10 13 13 13 12 12 11 1 0 0 3 0 0
0 0 0 0 0 0 6 13 13 14 15 15 14 13 13 12
11 16 17 14 4 0 0 0 0 0 0 0 0 0 0 0
0 0 0 0 0 0 6 18 16 8 0 0 0 5 14 12
14 4 1 0 2 0 0 0 0 0 0 1 5 12 23 37
57 57 55 54 46 46 51 51 51 51 52 51 51 51 53 53
55 57 59 58 56 55 55 55 55 53 48 39 34 42 40 38
38 22 0 0 6 6 6 6 0 3 7 7 18 14 11 5
3 9 9 11 13 13 13 12 12 10 0 0 1 3 0 0
0 0 0 0 0 0 0 2 1 10 14 14 13 13 13 12
11 15 17 15 5 0 0 0 0 0 0 0 0 0 0 0
0 0 0 0 0 0 5 18 15 8 0 0 0 3 14 11
15 6 0 0 2 2 0 0 0 0 0 0 4 8 13 27
46 55 55 54 40 37 50 50 49 50 51 51 51 51 53 53
55 56 57 57 55 57 55 55 53 50 44 35 34 40 41 40
36 25 0 1 6 6 7 5 0 1 3 9 17 12 8 1
2 7 7 10 13 12 12 12 12 11 2 1 4 4 2 1
0 0 0 0 0 0 0 0 0 10 14 14 14 14 13 12
10 15 17 15 5 0 0 0 0 0 0 0 0 0 0 0
0 0 0 0 0 0 3 17 16 9 0 0 0 2 14 12
16 9 0 0 0 0 0 0 0 0 0 1 0 4 11 22
32 44 49 48 26 31 49 50 51 51 51 52 52 53 54 54
55 57 56 56 57 56 56 55 51 47 38 30 37 39 39 36
34 28 1 2 6 6 7 3 0 14 12 13 17 11 8 1
2 7 7 10 13 12 12 12 12 11 4 4 4 5 3 2
1 0 0 2 4 6 7 8 10 16 18 19 18 18 18 17
10 14 17 15 5 0 0 0 0 0 0 0 0 0 0 0
0 0 0 0 0 0 3 17 16 10 0 1 5 2 14 13
16 11 1 0 0 1 0 0 0 0 2 1 3 5 17 33
36 39 39 36 21 35 49 50 51 52 52 52 52 53 55 55
55 56 56 56 57 56 54 51 49 42 34 31 37 36 34 36
37 31 6 3 6 7 6 1 5 32 16 14 16 12 7 3
6 7 7 11 13 12 12 12 13 12 2 0 0 0 0 0
0 0 0 15 19 19 19 20 20 20 20 20 20 20 19 19
10 14 17 15 6 0 0 0 0 0 0 0 0 0 0 0
0 0 0 0 0 0 3 16 16 11 4 5 10 8 16 15
17 11 3 0 0 0 0 0 0 0 0 1 4 11 23 35
43 46 43 41 42 45 48 50 51 50 52 53 54 54 54 54
55 56 56 57 56 56 53 52 48 39 32 34 36 37 42 44
36 30 13 5 6 7 7 0 4 21 9 16 15 12 10 6
8 8 9 13 14 13 12 12 13 12 2 0 0 0 0 0
0 0 2 19 19 18 18 19 18 18 18 18 18 18 18 18
9 13 17 15 7 0 0 0 0 0 0 0 0 0 0 0
0 0 0 0 0 0 2 17 16 15 19 20 21 21 22 17
16 9 3 0 0 0 1 1 0 0 0 4 6 13 27 39
47 48 44 41 44 45 48 50 50 51 52 53 55 55 55 56
56 56 56 55 55 54 53 51 46 36 31 32 38 45 45 33
25 23 12 5 6 7 5 0 0 6 9 17 15 14 10 8
8 9 9 14 14 12 12 12 12 11 3 0 0 0 0 0
0 0 5 15 13 15 16 17 15 14 12 13 14 13 16 18
9 13 17 15 7 0 0 0 0 0 0 0 0 0 0 0
0 0 0 0 0 0 2 16 16 15 24 25 24 24 24 20
16 7 2 0 0 0 0 0 0 0 2 4 12 20 32 42
48 48 47 44 43 45 48 49 50 51 51 52 54 55 56 56
57 57 56 55 54 53 51 50 43 34 32 29 35 35 28 27
28 25 8 7 7 8 4 0 0 3 10 19 14 14 10 8
7 9 9 13 13 12 12 12 12 11 3 0 0 0 0 0
0 0 1 3 2 5 11 15 12 11 10 10 11 12 16 18
9 12 16 15 7 0 0 0 0 0 0 0 0 0 0 0
0 0 0 0 0 0 2 16 16 14 18 18 17 16 15 14
15 8 0 2 0 0 0 0 0 0 0 4 10 16 29 41
47 49 48 44 42 44 46 48 50 51 50 52 54 55 56 57
57 56 56 55 54 52 52 50 40 36 32 25 19 22 32 27
20 7 7 6 6 8 2 0 0 3 12 18 15 14 9 9
7 10 10 14 13 12 12 12 12 12 3 0 0 0 0 0
0 0 0 0 0 2 11 15 16 15 15 16 16 16 17 18
9 12 17 15 8 0 0 0 0 0 0 0 0 0 0 0
0 0 0 0 0 0 1 15 16 12 9 8 9 8 8 8
15 8 1 4 2 1 0 0 0 0 1 4 8 16 35 41
47 50 50 47 43 43 45 47 48 50 50 51 53 54 57 57
57 57 56 55 54 53 52 49 42 37 30 27 33 37 41 38
30 8 7 6 6 8 1 0 5 7 14 17 14 14 9 8
7 9 10 14 13 13 13 13 13 13 4 0 0 0 0 0
0 0 0 0 0 0 15 18 17 17 17 16 16 17 17 17
9 12 16 15 8 0 0 0 0 0 0 0 0 0 0 0
0 0 0 0 0 0 1 15 16 12 9 9 9 9 9 9
15 11 4 6 2 0 0 0 0 2 8 9 17 26 36 41
47 50 51 48 44 42 43 46 48 49 50 50 52 54 56 56
56 57 56 55 52 51 50 47 42 37 32 36 42 42 35 32
29 14 14 9 4 4 0 1 10 12 17 16 14 14 7 7
8 9 11 13 13 13 12 13 12 12 4 0 0 0 0 0
0 0 0 0 0 0 13 17 17 17 16 16 17 16 16 16
8 12 16 15 8 0 0 0 0 0 0 0 0 0 0 0
0 0 0 0 0 0 3 17 16 13 11 11 10 10 9 10
16 16 14 10 3 0 0 0 0 2 8 14 21 30 35 40
46 51 53 50 46 42 41 45 46 48 48 48 51 53 54 55
55 55 56 54 52 51 50 47 43 37 36 41 47 46 44 35
22 12 10 13 16 6 0 26 47 13 19 15 14 12 7 6
7 8 10 14 14 13 13 13 13 12 4 0 0 0 0 0
0 3 0 0 0 0 6 11 12 14 11 11 11 10 11 12
8 11 16 14 8 0 0 0 0 0 0 0 1 2 2 3
3 4 5 6 7 8 10 15 14 13 12 11 11 11 10 9
13 11 10 9 5 0 0 0 0 2 6 17 29 32 35 40
47 51 53 52 48 44 42 43 43 45 45 46 49 52 53 54
55 55 55 53 51 50 50 46 41 36 39 44 45 41 38 26
7 5 6 6 9 15 11 49 65 18 18 14 14 12 8 5
3 9 11 12 12 13 13 13 12 12 4 0 0 0 0 0
2 4 0 0 0 0 3 13 15 13 11 13 12 10 12 13
8 11 16 15 12 6 7 8 8 10 10 11 12 12 13 13
13 14 14 13 14 13 13 13 13 13 12 11 12 11 10 9
10 9 7 7 4 0 0 0 2 8 14 24 31 33 34 39
47 52 54 53 51 47 43 41 41 41 44 48 48 51 52 53
54 54 53 53 51 50 47 44 39 38 43 43 42 37 30 22
5 4 4 3 13 4 10 41 43 12 19 12 9 6 1 0
2 0 6 8 12 12 12 11 12 13 5 0 0 0 0 0
8 3 0 0 0 0 2 17 17 16 17 17 16 15 17 17
8 10 15 16 15 15 14 15 16 16 15 15 15 15 15 14
14 14 14 13 13 13 13 13 13 12 12 12 11 11 10 10
10 9 8 8 5 0 0 0 3 12 23 32 34 34 34 39
46 51 54 54 52 49 45 41 41 39 42 47 46 49 51 52
53 53 52 51 50 48 44 43 38 39 43 43 40 35 29 17
3 2 2 5 17 4 4 19 13 16 20 8 1 0 0 0
0 0 0 3 14 9 10 11 9 11 6 0 0 0 0 0
9 1 0 0 0 0 0 13 18 18 17 17 18 17 17 16
7 10 15 16 16 15 12 14 15 15 15 15 15 15 16 17
10 7 9 11 10 6 10 11 11 11 12 11 11 11 10 10
10 9 8 8 7 1 3 5 12 24 33 35 35 35 34 37
46 51 54 53 52 51 47 44 41 39 41 44 46 46 49 51
52 51 50 50 49 47 46 44 40 44 45 44 42 35 32 15
2 4 15 27 34 38 41 41 42 41 26 13 8 0 0 0
0 0 0 0 12 7 9 11 6 7 7 3 1 0 0 0
0 0 0 0 0 0 0 3 12 14 14 14 14 14 16 17
6 10 15 16 15 14 13 13 13 13 12 12 12 20 28 17
1 0 0 0 0 0 1 6 6 6 4 2 3 7 11 11
11 10 9 9 9 7 8 11 23 29 34 37 37 36 34 37
45 51 54 54 54 51 47 44 42 39 41 42 43 45 48 49
49 50 49 49 49 46 46 43 44 45 46 47 45 38 32 16
4 15 45 45 49 50 44 42 47 47 30 15 14 0 0 0
0 0 0 0 6 6 8 10 8 8 2 4 1 0 0 0
0 0 0 0 0 0 0 2 5 9 10 10 9 11 15 16
2 3 6 5 5 4 4 3 3 4 7 7 16 32 23 3
0 0 0 0 0 0 0 0 0 0 0 0 0 0 8 11
10 10 9 9 9 10 10 15 27 32 35 38 37 36 34 37
43 50 53 54 53 52 49 46 43 41 39 37 40 43 45 46
47 46 46 48 46 44 46 46 47 47 49 48 45 39 30 25
35 41 46 45 47 49 47 44 47 47 27 1 1 0 0 1
1 0 2 2 3 8 7 2 1 1 0 0 0 0 0 0
0 0 0 0 0 0 0 3 4 10 16 16 16 16 17 17
0 0 0 0 0 0 0 1 2 2 9 10 26 29 9 0
0 0 0 0 0 0 0 0 0 0 0 0 0 0 5 12
11 10 9 9 10 10 10 18 29 34 37 38 38 37 35 37
43 48 52 53 52 52 49 46 45 42 40 39 39 40 41 41
45 45 46 46 45 44 45 44 41 47 49 48 45 39 29 27
27 26 41 45 38 30 31 32 30 30 21 12 12 10 8 8
5 2 3 2 1 1 0 0 0 0 0 0 0 0 0 0
0 0 0 0 0 0 0 0 0 2 15 18 18 18 18 18
0 0 0 0 0 0 3 5 4 3 8 15 28 17 1 0
0 0 0 0 0 0 0 0 0 0 0 0 0 0 9 13
12 11 10 10 10 10 11 23 30 35 38 38 37 37 36 36
42 47 51 52 52 51 49 47 45 43 41 39 36 36 37 38
39 40 40 42 41 41 42 41 43 47 48 46 43 36 27 39
63 68 67 67 63 42 32 23 15 12 6 4 3 1 0 0
0 0 0 0 0 0 0 0 0 0 0 0 0 0 0 0
0 0 0 0 0 0 0 0 0 0 12 19 18 18 18 18
2 2 1 0 0 0 3 6 6 6 3 22 28 6 0 7
11 0 0 0 0 0 0 0 0 0 0 0 0 7 13 14
12 12 11 11 10 10 16 27 32 36 38 38 37 37 36 36
41 46 50 53 52 51 50 48 45 45 41 39 36 34 35 34
36 35 36 36 37 39 39 40 43 45 45 40 36 32 24 29
40 49 55 52 43 16 14 23 24 22 4 0 0 0 0 0
0 0 0 0 0 0 1 0 0 0 0 0 0 0 0 0
0 0 0 0 0 0 0 0 0 0 8 18 18 17 18 17
2 2 1 0 0 2 5 8 8 6 2 24 24 7 13 19
20 5 0 5 3 0 0 0 0 0 0 0 0 3 5 5
5 7 10 10 13 20 24 30 33 36 38 38 37 36 36 35
39 45 49 51 53 52 50 49 46 45 43 39 37 36 35 33
33 32 32 33 31 33 35 36 38 39 38 34 30 27 11 33
37 49 59 56 54 20 12 27 27 23 5 0 2 6 9 14
20 26 13 26 28 22 37 40 42 14 0 0 0 0 0 0
0 0 0 0 0 0 0 0 0 0 4 16 16 16 16 15
3 3 3 5 7 10 10 8 8 2 5 26 14 5 16 21
21 8 3 17 17 9 0 3 5 2 0 0 0 0 0 0
0 1 15 22 18 23 29 31 34 36 38 36 36 35 35 34
38 44 50 51 53 53 51 49 48 46 43 38 37 34 35 33
31 31 32 31 30 29 30 30 31 32 33 28 22 6 1 6
1 26 45 9 7 9 13 25 25 23 48 49 58 63 65 67
67 66 45 67 54 53 62 54 54 26 0 0 1 2 0 0
0 0 0 0 0 0 0 0 0 0 1 14 14 14 13 13
2 2 3 4 8 11 8 2 2 0 8 28 12 3 18 20
20 8 13 24 21 14 2 2 1 0 0 0 0 0 0 0
0 13 51 15 25 24 31 33 35 37 38 38 36 34 33 34
35 44 51 53 53 53 52 49 45 46 44 41 38 36 32 30
31 28 29 30 30 29 26 22 23 21 15 9 2 1 2 6
0 24 41 3 1 8 14 26 24 23 41 38 35 41 45 49
54 58 34 38 40 52 48 34 30 21 1 9 5 12 1 0
0 0 0 0 0 0 0 0 0 0 0 10 13 14 14 13
0 1 1 3 8 10 5 0 0 0 10 30 12 3 12 5
13 16 22 26 21 15 5 4 1 0 0 0 0 0 0 5
27 58 63 34 33 28 31 35 37 39 39 39 37 34 33 32
36 43 50 53 54 51 50 50 46 45 43 42 40 37 32 28
25 24 25 26 24 25 28 38 45 31 11 12 9 5 5 6
0 23 41 3 0 8 15 26 24 22 31 33 34 39 39 50
48 42 26 37 53 54 44 47 46 20 1 6 4 3 1 0
0 0 0 0 0 0 0 0 0 0 0 4 13 14 14 14
1 1 1 3 8 9 4 0 0 0 11 31 17 4 6 2
14 21 28 23 12 14 5 0 0 0 0 0 0 7 32 61
62 64 67 52 39 38 30 38 38 39 40 40 37 35 33 32
35 42 48 52 54 53 51 49 46 41 42 42 40 37 33 29
23 17 15 22 25 43 56 55 56 52 49 46 39 29 20 7
0 19 37 3 0 8 14 26 24 23 29 32 27 34 32 30
23 16 17 22 27 21 13 13 14 6 0 2 3 0 0 0
0 0 0 0 0 0 0 0 0 0 0 0 13 14 12 13
3 3 2 5 8 9 5 4 3 0 10 31 24 9 5 2
15 25 29 15 1 12 5 0 0 0 0 11 39 60 66 68
67 67 68 68 47 45 35 40 39 40 41 41 39 36 34 32
35 39 45 50 51 53 52 48 43 42 40 40 39 37 34 27
12 8 8 17 26 43 55 56 57 53 51 52 54 55 54 47
32 27 32 2 0 8 13 25 24 22 11 4 7 3 5 3
4 5 6 6 13 12 9 7 0 0 1 1 1 6 0 0
0 0 0 0 0 0 0 0 0 0 0 1 13 14 13 14
4 3 3 9 12 12 10 10 8 0 7 27 25 13 2 2
16 25 19 7 0 11 4 0 0 9 49 61 59 60 67 68
69 69 69 68 60 47 44 40 38 39 42 43 40 38 36 34
36 39 43 49 51 53 52 49 44 39 39 37 36 34 30 16
12 11 14 18 25 44 56 55 57 53 48 52 53 55 57 55
53 50 46 34 19 12 13 25 23 22 13 6 7 8 11 14
15 16 15 10 18 18 11 10 0 0 5 2 0 4 4 0
0 0 0 0 0 0 0 0 0 0 0 1 14 13 14 14
3 3 6 14 13 12 11 10 9 0 4 27 28 16 0 2
13 13 4 0 0 8 34 53 62 64 62 62 62 66 64 67
68 68 68 66 67 52 47 43 33 41 44 45 43 40 37 36
36 39 43 47 52 53 50 47 44 40 35 31 29 28 31 30
27 25 25 25 24 51 56 55 56 55 47 50 53 52 53 53
54 54 51 48 49 48 44 38 29 22 16 14 18 19 21 18
23 24 23 10 14 14 15 23 1 0 3 1 0 0 1 1
0 0 0 0 0 0 0 0 0 0 0 1 13 13 14 13
4 1 2 8 13 15 14 12 9 0 1 15 13 7 0 0
1 0 0 3 29 55 59 61 66 65 63 63 65 67 66 67
69 69 69 67 65 67 49 47 43 37 47 48 46 42 39 40
38 39 43 48 50 51 50 47 43 40 37 32 29 33 38 39
38 35 33 31 29 54 56 55 54 55 47 47 51 48 49 52
54 54 55 51 50 51 50 49 49 45 34 32 35 31 30 22
27 26 22 9 16 22 35 39 2 0 4 0 1 0 1 0
0 0 0 1 0 0 0 0 0 0 0 3 13 12 13 15
6 1 0 1 4 7 5 2 1 0 0 0 0 0 0 0
0 9 39 61 66 64 60 61 64 68 68 68 68 68 68 68
68 68 69 68 67 68 65 47 49 43 44 50 50 46 42 41
40 40 43 47 52 51 50 47 43 40 37 33 34 36 39 42
40 36 35 31 40 57 55 54 54 55 47 48 51 51 51 54
54 53 53 52 53 53 52 52 51 50 49 49 42 32 21 12
11 6 2 0 5 9 28 41 2 0 0 0 0 0 0 0
0 0 0 1 0 0 0 0 0 0 0 6 13 13 13 15
2 0 0 0 0 0 0 0 0 0 0 0 1 4 4 7
35 59 69 69 69 69 66 61 61 67 69 68 69 69 69 68
69 68 68 68 68 69 68 66 51 52 48 54 51 49 46 43
43 42 41 46 51 53 52 45 39 39 36 34 35 38 42 41
39 37 38 33 54 57 57 54 52 54 48 48 50 52 53 54
56 55 57 58 60 60 57 54 55 54 54 54 53 51 36 4
0 0 0 0 2 2 19 23 2 2 0 0 0 0 0 0
0 0 0 0 0 0 0 0 0 0 0 6 14 14 13 14
0 0 0 0 0 0 0 0 0 0 0 0 13 28 48 65
67 65 63 67 69 69 69 69 67 62 65 68 68 69 68 68
66 67 68 68 68 66 67 68 66 57 55 49 54 52 49 46
44 44 42 45 49 50 47 43 37 36 34 34 38 41 40 39
36 37 37 52 60 60 63 60 62 59 56 55 55 52 57 58
57 60 59 60 62 64 62 60 57 61 62 60 59 57 55 41
11 0 0 0 0 0 0 0 0 0 0 1 0 0 2 1
0 0 0 0 0 0 0 0 0 0 1 8 15 16 16 16
0 0 0 0 0 0 0 0 0 0 0 17 48 63 61 62
63 67 69 69 67 69 69 69 69 68 59 60 66 69 69 68
68 67 69 68 68 68 68 67 68 68 62 52 59 53 51 47
45 46 44 46 47 48 48 43 37 37 39 38 38 40 40 38
39 38 53 67 61 66 67 66 66 59 58 57 56 55 58 61
58 62 64 65 65 65 66 65 61 57 64 61 61 61 57 51
47 23 0 0 0 0 0 0 0 0 0 1 0 0 2 2
0 1 0 0 0 0 0 0 0 0 1 8 14 15 15 15
4 0 0 0 0 0 0 0 0 20 50 60 60 60 61 60
59 61 66 69 67 68 69 69 65 55 60 65 63 65 68 69
69 68 68 68 68 68 68 68 68 68 67 65 64 56 52 48
46 48 44 45 46 49 48 43 37 36 37 36 37 38 40 40
40 58 66 62 62 67 67 67 64 62 61 61 59 57 58 59
59 61 66 66 64 65 65 65 66 61 58 64 65 64 60 56
52 50 32 1 0 0 0 0 5 8 0 0 0 0 3 1
0 0 0 0 0 0 0 0 0 0 0 5 10 12 12 14
0 0 0 0 0 0 0 4 43 61 62 60 59 43 36 36
40 45 51 57 59 61 59 57 60 69 66 58 59 60 62 67
68 69 68 68 69 68 69 68 68 67 67 68 67 63 55 48
47 49 46 43 45 48 48 43 36 35 36 36 38 39 41 47
63 67 64 64 64 66 67 66 64 63 62 65 60 59 59 63
60 60 65 64 64 64 66 66 66 66 61 62 65 64 63 63
53 53 51 31 2 0 10 16 2 0 0 1 0 0 5 0
0 0 0 0 0 0 0 0 0 0 1 8 14 15 15 15
0 0 0 0 0 0 7 47 59 60 62 62 65 49 24 30
28 28 27 32 64 69 70 69 68 60 60 70 66 60 66 66
68 69 69 68 68 69 68 68 68 68 68 66 68 68 68 63
55 49 47 42 45 48 48 45 34 32 35 37 39 48 57 63
66 64 65 66 66 67 67 64 65 63 62 65 64 59 57 61
63 61 65 66 66 65 64 66 66 65 65 62 65 66 65 65
58 55 55 52 36 4 19 31 9 0 0 1 0 3 5 0
0 0 0 0 0 0 0 0 0 0 0 7 12 14 14 15
0 0 0 0 0 18 54 59 58 61 62 63 64 64 30 27
30 31 29 33 55 62 61 61 61 69 67 58 61 69 68 68
69 69 69 69 68 68 68 68 68 68 67 65 67 68 68 67
67 65 57 45 44 48 50 45 32 33 44 55 65 66 63 62
62 65 66 66 66 66 64 63 66 65 63 64 66 64 56 59
62 62 65 66 66 66 66 66 66 65 65 64 63 65 65 65
60 56 57 55 51 43 39 42 13 0 0 2 3 5 2 0
0 0 0 0 0 0 0 0 0 0 0 5 12 13 13 13
0 0 0 0 20 55 57 58 66 66 62 67 69 69 40 21
22 25 24 30 46 61 62 63 61 59 60 68 67 57 65 69
69 69 69 69 69 69 68 68 68 69 69 67 67 65 68 68
67 64 63 66 65 58 56 53 56 62 66 65 65 66 65 62
63 63 65 64 66 64 66 67 66 66 66 65 66 66 59 57
60 62 64 65 66 66 66 65 65 65 65 65 63 64 65 65
63 57 61 59 53 51 46 32 6 4 5 5 5 3 1 0
0 0 0 0 0 0 0 0 0 0 0 3 8 10 11 12
0 0 0 15 55 59 60 59 68 69 63 66 69 68 57 64
61 25 26 28 43 69 65 63 69 70 66 58 51 50 61 69
69 69 69 69 68 69 69 68 68 69 69 69 68 68 68 68
64 65 65 64 64 66 65 63 61 63 64 62 59 64 65 65
64 67 66 65 66 66 67 66 66 66 66 65 66 66 65 59
58 60 64 65 65 66 65 65 65 65 65 64 65 63 65 64
65 60 61 61 57 55 50 45 13 2 10 7 5 1 0 0
0 0 0 0 0 0 0 0 0 0 0 0 0 0 1 4
0 1 7 51 62 63 61 62 64 69 67 62 68 69 65 57
53 56 47 45 46 59 58 58 58 59 57 49 50 50 57 70
69 69 68 69 68 68 68 69 68 68 68 68 68 68 68 66
67 65 64 64 63 63 63 63 63 59 60 61 61 65 63 65
67 67 67 67 67 66 66 67 66 65 63 65 65 65 65 63
59 60 61 65 66 65 66 65 65 65 65 64 65 64 64 64
64 61 59 62 59 59 54 52 45 17 7 9 8 2 0 0
0 0 0 0 0 0 0 0 0 0 0 0 0 0 0 2
1 3 36 63 64 68 62 64 60 68 69 64 65 69 63 68
70 69 55 55 59 63 68 69 69 67 53 49 54 63 69 68
69 69 69 69 68 68 68 68 68 68 68 68 68 68 69 68
66 66 65 63 64 64 63 63 60 60 63 61 63 64 66 66
67 65 64 66 67 65 66 66 66 65 64 65 66 66 66 62
57 59 60 64 65 65 65 65 65 65 65 64 64 64 64 65
65 62 59 64 62 60 55 54 51 47 25 14 9 0 0 0
0 0 0 0 0 0 0 0 0 0 0 0 0 0 0 2
0 24 61 62 66 66 65 63 63 62 70 69 66 69 64 60
59 60 59 64 64 58 57 57 56 58 60 68 69 69 69 69
69 69 69 69 69 68 69 68 68 69 68 68 68 68 68 68
68 66 63 64 66 66 67 64 61 62 62 63 67 67 66 67
67 66 67 67 67 66 66 66 66 65 64 63 66 66 66 66
63 59 58 60 65 66 65 65 65 65 65 64 63 64 64 64
64 63 61 64 64 64 58 57 55 53 47 16 0 0 0 0
0 0 0 0 0 0 0 0 0 0 0 0 0 0 0 2
8 58 63 64 66 68 69 66 68 59 67 69 63 67 66 65
70 69 67 61 59 58 64 69 69 68 69 69 69 69 69 68
68 68 68 68 68 68 68 68 68 68 68 68 68 68 68 68
68 67 65 66 64 66 66 66 63 62 64 66 66 67 66 66
66 66 66 66 66 66 64 63 65 66 64 63 65 66 65 65
64 62 60 59 64 64 65 65 65 64 65 64 62 63 64 64
63 63 61 63 63 62 62 62 58 56 53 38 4 0 0 0
0 0 0 0 0 0 0 0 0 0 0 0 0 0 0 2
44 63 64 65 67 68 69 68 67 63 60 70 67 65 66 54
54 53 55 61 66 69 69 69 69 68 68 68 68 68 69 69
68 68 68 68 69 68 68 68 68 68 68 67 68 68 68 68
68 68 67 68 67 67 63 63 65 66 65 66 65 67 66 66
67 66 66 66 66 66 65 62 65 65 64 61 64 65 65 65
65 63 59 59 63 64 64 65 65 64 64 64 63 62 64 64
64 63 60 62 63 63 62 63 60 58 56 56 37 2 0 0
0 0 0 0 0 0 0 0 0 0 0 2 8 9 8 8
64 63 65 66 68 69 69 69 67 67 58 68 69 65 66 57
63 69 69 69 64 66 69 69 69 69 69 69 68 69 69 69
68 69 68 68 68 68 68 68 68 68 68 68 68 68 68 68
68 68 67 67 67 67 67 66 67 67 66 66 67 67 66 66
66 66 66 66 66 66 66 65 62 65 65 63 64 65 65 65
65 65 62 59 59 63 63 63 63 64 64 65 63 62 63 64
64 63 61 61 64 63 63 62 61 60 59 61 53 28 0 0
0 0 0 0 0 0 0 0 0 0 0 1 8 10 11 10
67 64 63 66 69 70 69 69 67 67 61 63 69 65 62 49
31 39 30 35 64 62 68 68 68 69 68 68 68 68 67 62
68 68 68 68 68 68 68 68 68 68 69 68 68 67 67 67
67 67 67 67 67 67 67 66 67 67 67 66 66 66 67 66
66 66 66 66 66 66 65 64 61 64 65 62 63 65 65 65
65 64 64 61 61 65 64 64 64 64 64 64 64 61 63 63
64 62 62 61 63 64 64 63 63 61 63 61 56 53 17 0
0 0 0 0 0 0 0 0 0 0 0 0 0 0 0 0
66 66 68 68 69 68 69 69 66 64 63 59 67 68 61 49
10 14 15 19 48 43 54 67 68 69 68 63 58 50 48 50
68 69 68 68 68 68 68 68 68 68 68 68 68 68 68 68
68 68 68 67 67 67 67 67 67 67 66 67 67 67 67 67
67 67 67 67 66 66 66 66 64 63 65 64 63 65 65 65
65 65 65 62 60 61 65 64 64 65 65 65 65 62 64 65
64 62 64 61 64 64 64 64 63 62 63 62 59 53 49 8
0 0 0 0 0 0 0 0 0 0 0 0 0 0 0 0
66 67 69 69 68 69 69 69 67 59 67 56 56 68 64 51
13 12 15 16 41 43 36 42 46 48 47 47 47 47 48 49
65 69 68 69 68 68 68 68 68 68 68 68 68 68 68 68
68 67 67 68 67 67 67 67 68 67 68 67 67 67 67 67
67 67 67 67 67 67 67 66 64 61 65 65 61 65 65 65
66 66 65 63 61 63 65 64 65 65 65 65 65 63 63 65
65 62 63 62 64 64 64 64 63 64 64 64 63 55 56 41
2 0 0 0 0 0 0 0 0 0 0 0 0 0 0 0
63 67 67 66 69 69 68 69 69 58 67 58 51 68 67 55
19 11 14 15 33 47 40 38 44 45 46 46 46 47 48 49
61 68 68 68 68 68 68 68 68 68 68 68 68 68 68 68
68 68 67 67 67 66 67 67 65 65 67 67 66 67 67 67
67 67 67 67 67 67 67 66 66 61 59 62 61 65 66 65
65 66 66 65 61 60 64 65 64 65 64 65 65 64 62 63
62 63 64 62 64 64 64 64 64 64 64 64 63 59 55 55
30 0 0 0 0 0 0 0 0 0 0 0 0 0 0 0
67 68 65 68 69 69 68 68 69 60 65 63 48 62 68 57
26 9 14 15 17 46 67 53 49 54 53 46 47 48 48 49
58 68 68 68 68 68 68 68 68 68 68 68 67 68 68 68
68 68 66 67 67 68 67 67 66 66 66 67 67 67 65 67
67 66 67 67 66 66 66 66 66 65 62 65 64 64 66 65
65 65 65 65 64 60 63 65 65 65 64 65 65 64 61 62
64 63 64 62 64 64 64 64 64 62 62 63 63 61 56 57
57 18 0 0 0 0 0 0 0 0 0 0 0 0 0 0
