P2
128 120
149
38 42 49 51 51 48 43 36 36 36 36 35 35 35 35 35
33 33 33 32 32 31 31 31 30 30 30 29 28 28 27 27
27 26 26 25 25 25 24 24 24 24 23 22 22 21 21 20
20 20 21 23 27 26 26 24 17 18 17 23 22 22 21 21
20 21 19 20 20 17 20 21 23 22 22 23 23 23 23 24
24 24 24 25 25 25 25 26 26 26 27 27 27 27 28 28
29 28 29 29 29 30 30 30 30 31 31 30 30 31 31 31
31 31 31 31 31 31 32 32 32 31 32 31 31 31 30 31
5 12 21 29 36 47 47 35 36 35 35 35 35 35 34 33
33 33 32 32 32 31 31 30 30 29 29 29 28 28 28 27
27 27 26 26 25 24 24 24 23 22 22 22 21 21 21 20
20 21 21 23 27 26 26 25 18 18 17 22 23 23 22 21
21 21 20 20 20 16 20 20 22 22 22 22 24 24 24 24
25 24 25 25 25 25 25 26 26 26 27 26 27 27 27 28
29 29 29 29 30 30 31 30 30 31 30 30 31 30 31 31
31 31 31 31 31 31 31 31 31 31 31 31 31 31 31 31
0 0 0 0 1 39 48 37 36 36 35 35 34 34 34 34
33 33 33 32 31 31 32 31 30 30 30 29 29 29 28 28
27 26 26 26 25 25 25 25 24 23 23 23 22 21 21 21
21 21 21 23 27 27 27 25 18 19 19 22 24 23 23 22
22 23 21 20 20 17 20 20 23 24 24 24 24 24 25 25
25 24 25 25 24 25 26 27 27 26 28 28 28 28 29 29
29 29 29 29 30 30 30 30 31 31 31 31 31 32 32 32
31 31 31 31 31 31 31 31 31 31 31 31 31 31 31 32
0 0 0 0 0 37 48 37 36 35 35 34 34 34 34 34
34 33 33 33 33 32 31 31 31 30 29 29 29 28 28 28
27 27 27 26 26 25 25 25 25 24 23 23 22 22 22 21
21 21 22 24 27 27 27 26 18 19 20 21 24 23 23 22
22 24 22 21 21 18 22 22 24 24 24 25 25 25 25 25
25 26 26 25 26 26 26 27 27 27 28 27 28 27 28 28
28 29 30 30 30 30 30 31 31 31 31 31 30 30 30 31
31 30 31 31 32 31 31 31 31 31 31 30 31 31 31 32
2 6 0 0 0 35 48 37 36 36 36 34 35 34 35 33
34 33 33 32 32 32 32 31 31 30 30 30 30 28 28 28
27 27 26 26 26 26 25 25 24 24 24 23 23 23 22 21
21 21 22 24 27 28 27 26 19 19 22 21 25 24 24 22
22 24 21 21 21 18 22 21 24 24 25 25 25 25 25 25
25 26 25 26 26 27 27 27 28 27 28 28 29 29 29 29
29 29 30 30 30 30 30 30 29 29 30 31 31 31 31 32
32 32 31 31 31 31 31 31 31 31 32 31 31 31 30 31
7 7 0 0 0 34 47 36 35 35 34 35 34 34 34 34
33 33 33 32 32 32 31 31 31 30 29 29 30 28 28 28
28 27 27 27 26 26 25 25 24 24 23 23 23 22 23 22
22 22 23 24 29 28 28 27 19 20 24 20 24 24 23 23
23 24 22 22 22 19 21 22 24 24 25 25 26 25 26 26
26 26 26 26 26 27 27 27 28 28 28 28 29 28 28 29
29 29 30 30 30 30 31 31 31 31 31 31 31 31 30 31
31 32 30 31 31 31 31 31 31 32 31 31 31 31 31 31
0 3 0 0 0 35 47 36 36 35 35 35 34 34 34 34
33 32 33 32 32 32 31 31 31 30 30 29 29 29 29 28
28 27 27 27 26 26 25 25 25 25 24 24 24 23 23 22
22 22 23 24 28 27 27 27 20 20 25 19 25 25 25 24
24 24 22 22 21 19 22 22 25 25 25 25 26 26 26 26
26 26 26 26 26 27 28 28 28 28 29 28 28 28 28 29
29 30 31 30 31 31 31 31 31 31 31 32 31 31 32 32
31 32 31 30 31 30 31 30 30 30 31 31 31 30 30 30
0 4 7 0 0 34 46 36 35 35 35 34 34 34 34 34
34 33 33 32 32 32 32 31 31 30 30 30 29 29 28 28
28 27 28 27 27 26 26 26 25 25 24 24 23 23 23 22
23 23 23 24 28 29 28 28 20 20 26 19 25 25 25 24
23 22 22 22 23 20 22 23 26 26 26 26 26 26 26 27
27 27 27 27 27 28 28 28 28 28 28 28 29 29 29 28
30 30 32 31 31 32 32 32 32 32 32 32 32 31 31 31
32 32 31 31 31 30 31 31 31 31 31 31 31 31 31 30
0 1 3 0 0 33 45 36 35 35 35 35 34 34 34 33
33 33 33 33 32 32 32 31 31 31 30 30 29 29 29 29
28 28 28 27 27 27 26 26 25 25 25 24 24 23 23 23
23 23 24 25 29 29 28 27 20 20 28 20 26 26 25 25
24 22 23 23 23 20 22 22 25 26 26 26 27 27 27 27
27 28 28 27 28 28 28 28 28 29 29 28 29 29 29 30
30 30 32 31 31 32 31 31 31 32 31 31 31 31 32 31
31 32 31 31 31 31 31 31 31 30 31 31 31 31 31 30
0 0 2 2 4 35 45 35 36 35 35 34 34 34 34 33
34 33 32 33 32 32 32 31 31 31 30 30 30 29 29 28
28 28 28 28 28 27 26 26 26 25 26 25 24 24 24 22
23 23 24 25 30 29 29 28 21 20 29 21 25 26 25 24
24 23 24 23 23 21 22 22 26 26 27 26 27 26 27 27
26 26 26 27 28 28 28 28 28 28 29 30 30 30 30 30
30 30 32 32 32 32 31 32 32 31 31 32 31 31 31 31
30 31 30 31 32 31 31 31 30 31 32 31 31 32 31 31
25 20 15 12 16 38 45 35 35 35 35 35 35 34 34 34
33 33 32 32 32 32 31 31 31 30 30 30 30 29 29 29
28 28 28 27 28 27 27 26 26 25 25 25 24 24 24 23
24 23 24 25 29 29 29 29 21 20 29 21 24 26 26 25
25 23 25 24 23 21 22 23 26 26 26 26 26 27 27 27
27 27 27 28 29 28 29 29 29 29 28 29 29 30 30 30
31 31 32 31 32 31 31 32 31 32 31 31 31 31 31 31
31 32 32 31 32 31 32 31 31 31 31 31 30 30 29 29
30 33 35 36 36 40 40 36 35 35 35 35 34 34 34 33
33 33 33 32 32 32 32 32 32 31 31 30 29 29 29 28
28 28 28 28 28 27 26 27 26 26 25 25 25 25 24 24
24 24 25 26 29 30 30 29 22 20 30 24 24 26 26 25
25 24 24 23 23 21 22 23 26 27 27 27 28 27 28 27
27 28 28 28 28 29 29 29 28 29 29 30 31 30 31 31
31 30 32 31 31 31 31 32 31 31 31 31 31 31 32 32
31 32 32 31 32 32 31 31 30 30 29 30 31 31 31 31
20 23 26 30 32 34 36 35 35 35 35 35 35 34 34 34
33 33 33 33 32 32 32 32 31 30 31 30 30 30 29 29
29 29 29 28 28 27 26 26 26 25 25 25 24 25 24 24
24 24 25 26 30 30 30 30 22 20 30 26 23 27 26 26
25 25 24 23 24 22 22 24 27 27 27 27 27 28 28 28
28 28 29 29 30 29 29 29 29 29 30 30 31 31 31 31
32 32 32 32 32 31 32 32 32 31 31 31 31 31 31 31
32 31 30 29 30 30 30 30 31 32 32 30 30 31 30 30
12 12 13 15 18 21 25 29 32 34 34 35 35 35 34 33
33 33 32 32 32 32 32 32 31 31 31 31 30 30 30 29
28 28 28 28 27 27 27 26 27 26 26 26 25 25 24 24
24 24 25 26 30 30 30 29 23 20 30 28 21 27 26 26
25 24 25 24 24 23 23 25 27 27 27 27 28 28 28 28
27 28 28 28 29 28 29 29 29 30 30 31 31 31 31 31
31 31 32 32 31 32 32 32 32 31 31 31 30 30 30 30
30 30 30 31 31 30 31 29 31 31 31 30 30 30 30 30
12 12 13 12 12 13 12 13 15 16 19 23 26 29 31 33
33 33 33 32 32 32 32 31 31 30 31 31 30 30 30 30
29 29 28 29 28 27 28 28 27 27 26 25 25 25 25 24
24 24 25 26 29 30 30 29 23 20 30 29 21 27 27 27
26 24 26 24 25 23 23 26 27 27 27 27 28 28 29 28
28 29 28 29 31 29 30 30 30 30 30 30 30 31 31 31
31 31 32 32 32 31 31 32 32 31 30 30 31 31 31 31
31 31 31 31 31 31 31 31 30 30 31 29 29 29 30 30
21 20 19 18 16 14 13 12 13 13 13 13 11 9 14 29
34 33 34 33 32 33 32 32 32 32 31 30 30 30 30 29
29 29 29 29 28 28 28 28 27 27 26 26 26 26 25 25
24 21 20 18 19 22 24 26 22 20 30 30 21 27 27 26
26 25 26 24 25 24 23 26 28 28 28 28 29 29 29 28
29 29 29 29 30 30 30 30 30 30 31 31 31 32 32 31
31 31 31 31 31 31 31 31 31 31 32 31 31 31 32 32
31 31 31 31 31 31 31 31 30 30 31 30 30 30 30 30
42 44 46 43 39 27 17 17 15 12 12 12 10 7 11 27
34 33 34 33 32 31 32 32 32 32 31 31 31 30 30 29
29 29 29 29 31 34 33 29 28 26 26 26 25 25 23 14
5 0 0 0 0 0 0 0 4 9 19 28 19 26 27 27
26 26 26 24 25 24 23 26 27 29 28 29 28 29 29 29
29 29 30 30 31 30 31 31 31 30 31 31 31 31 31 31
31 31 31 31 31 31 31 31 31 31 32 31 31 31 31 31
31 31 31 30 31 31 31 31 31 30 31 30 30 30 30 30
46 46 50 50 48 35 28 34 36 30 28 24 18 10 12 27
34 34 34 33 32 37 37 36 34 33 32 30 31 31 30 30
30 30 29 29 36 43 39 36 35 32 28 27 21 15 6 0
0 0 0 0 0 0 0 0 0 0 0 2 8 21 27 27
27 26 26 25 26 25 23 26 28 29 28 29 29 30 29 30
30 30 31 30 31 30 29 29 30 31 31 32 31 32 32 31
31 31 32 31 31 31 31 31 31 31 32 32 32 32 32 32
32 31 32 31 31 31 31 31 30 30 31 30 31 31 30 31
35 40 46 49 49 38 35 40 42 37 45 45 38 14 13 28
34 34 34 34 35 44 43 42 38 36 35 34 32 31 30 30
29 29 30 29 36 41 38 35 37 36 30 18 3 0 0 0
0 0 0 0 0 0 0 0 0 0 0 0 0 1 10 21
27 27 27 25 26 25 24 27 29 29 30 30 30 30 30 30
30 30 30 30 30 31 31 31 31 31 31 32 32 31 32 31
31 32 32 32 31 32 32 32 32 31 33 32 32 32 32 31
31 31 32 32 31 31 31 32 31 31 31 31 31 31 30 30
4 8 13 18 30 39 38 41 44 45 48 48 46 18 15 30
36 35 35 34 35 44 44 41 39 40 42 41 37 37 36 33
31 30 30 29 32 29 28 29 28 23 5 0 0 0 0 0
0 0 0 0 0 0 0 0 0 0 0 0 0 0 2 3
8 21 28 26 26 25 24 26 28 29 29 29 30 30 30 30
30 31 31 31 31 31 31 31 31 31 31 33 32 32 32 32
32 32 32 31 32 31 32 31 31 32 32 32 32 32 32 31
32 32 32 32 31 31 32 32 31 30 31 31 31 31 30 30
0 0 2 2 12 40 38 41 42 45 47 47 46 20 15 32
38 36 37 36 37 37 32 38 41 43 44 42 28 26 33 35
35 35 36 33 31 16 8 4 0 0 0 0 0 0 0 0
0 0 0 0 0 0 0 0 0 0 0 0 0 0 0 0
1 1 13 25 26 26 24 27 28 29 30 30 30 31 31 30
31 31 30 31 31 31 32 31 32 31 32 33 32 32 32 32
32 32 32 32 33 32 32 32 31 31 33 33 32 31 31 31
31 31 32 31 31 32 31 32 32 32 32 32 32 31 31 30
0 0 11 10 15 38 26 32 37 43 45 45 44 22 15 32
40 32 34 39 42 24 0 7 22 28 30 37 13 0 2 7
13 19 27 31 31 14 2 2 0 2 0 0 0 0 0 0
0 0 0 0 0 0 0 0 0 0 0 0 0 0 0 0
0 0 0 6 24 27 24 27 28 30 30 31 31 31 32 31
32 31 31 31 32 32 31 31 32 31 32 32 33 32 32 32
32 32 33 32 33 32 32 32 32 32 33 32 32 32 31 31
31 31 32 32 32 32 32 33 32 33 31 31 30 30 30 30
0 0 11 10 18 35 2 3 8 15 22 24 38 24 15 29
39 37 36 40 46 26 0 0 8 11 12 28 13 0 0 0
0 0 0 7 23 4 0 0 0 0 0 0 0 0 0 0
0 0 0 0 0 0 0 0 0 0 0 0 0 0 0 0
0 1 2 0 3 22 25 28 30 31 31 31 31 32 31 32
31 31 31 31 31 32 32 32 32 32 32 33 33 32 33 33
33 33 33 33 33 32 33 33 33 33 33 33 33 32 32 33
32 32 32 32 32 32 32 32 32 32 32 31 31 31 31 31
0 0 0 0 13 35 1 0 0 0 0 0 25 25 14 6
8 15 25 34 40 28 0 0 3 4 7 25 16 0 0 0
0 0 0 0 0 0 0 0 0 0 0 0 0 0 0 0
0 0 0 0 0 0 0 0 0 0 0 0 0 0 0 0
0 0 0 0 0 2 20 29 29 31 31 31 31 32 31 31
32 32 31 32 32 32 32 32 33 33 33 34 33 33 33 33
33 33 34 33 34 33 34 33 33 33 34 33 33 33 33 33
33 33 33 34 33 34 34 33 33 33 33 32 32 31 31 31
0 1 1 0 13 35 1 0 0 0 0 0 25 25 13 1
0 0 0 1 5 18 0 0 0 0 1 21 13 0 0 0
0 0 0 0 0 0 0 0 0 0 0 0 0 0 0 0
0 0 0 0 0 0 0 0 0 0 0 0 0 0 0 0
0 0 0 0 0 0 3 25 30 32 32 32 32 32 32 31
32 32 32 31 32 32 32 32 32 33 34 34 33 33 33 34
33 34 33 34 34 33 33 34 34 34 33 33 34 34 34 34
34 33 33 33 33 33 33 32 32 32 32 32 32 32 32 31
10 11 11 0 12 35 1 0 5 7 0 0 23 25 13 1
0 0 0 0 0 10 0 0 0 0 0 24 16 0 0 0
1 0 0 0 0 0 0 0 0 0 0 0 0 0 0 0
0 0 0 1 0 0 0 0 0 0 0 0 0 0 0 1
0 0 0 0 0 0 0 8 28 32 31 32 32 32 31 31
32 33 32 33 32 33 33 32 33 33 34 34 33 33 34 34
34 34 34 34 34 34 34 33 33 33 34 34 34 33 34 33
33 32 33 34 34 34 33 33 33 33 33 33 33 33 33 33
1 3 4 0 12 35 1 1 1 13 0 0 23 26 14 1
0 0 0 0 0 9 0 0 0 0 0 24 19 0 0 0
0 0 0 0 0 0 0 0 0 0 0 0 0 0 0 0
0 0 0 0 0 0 0 0 0 0 0 0 1 0 0 0
0 0 0 0 0 0 0 1 23 31 32 32 32 33 32 32
32 32 32 32 32 33 33 33 34 34 34 34 34 33 34 34
34 35 34 34 34 34 33 34 34 33 34 34 33 33 34 33
33 32 33 34 34 33 34 34 33 34 34 34 33 33 33 33
2 4 0 0 11 33 1 0 0 1 0 0 23 25 13 2
0 0 6 0 0 6 0 0 0 0 0 22 21 0 0 0
0 0 0 0 0 0 0 0 0 0 0 0 0 0 0 0
0 0 0 0 0 0 0 0 0 2 0 0 1 2 0 0
0 0 0 0 0 0 0 0 10 29 32 32 32 33 32 32
32 32 33 33 33 33 33 34 33 33 33 33 34 33 33 33
34 35 34 35 34 34 34 34 34 34 35 34 33 34 34 33
34 33 33 34 34 35 34 34 34 33 32 31 31 32 32 32
0 3 0 0 11 31 0 0 1 0 0 0 23 24 14 2
5 2 2 0 0 7 1 0 0 0 3 23 24 0 0 0
0 0 0 0 0 0 0 0 0 0 0 0 0 0 0 0
0 0 0 0 0 0 0 0 0 5 5 0 1 9 4 1
0 0 0 0 0 0 0 0 1 20 32 32 33 32 33 33
32 33 33 33 34 33 33 33 33 33 34 33 34 34 34 35
35 35 35 35 34 35 35 34 35 34 34 34 34 34 34 33
33 33 34 34 32 33 32 33 31 27 26 24 21 20 17 14
29 28 21 15 22 34 3 1 1 1 0 0 24 24 14 4
4 0 0 0 0 10 3 0 0 0 2 25 33 2 0 0
0 0 0 0 0 0 0 0 0 0 0 0 0 0 0 0
0 0 0 0 0 0 0 3 0 4 5 3 1 5 5 0
0 0 0 0 0 0 0 1 1 6 28 32 32 32 33 33
33 34 34 33 34 34 34 34 33 33 34 34 34 33 34 34
34 34 34 35 34 34 34 34 33 33 33 33 32 32 33 31
31 30 30 28 25 22 19 16 14 13 12 12 11 12 13 13
32 40 42 43 40 47 40 23 28 29 27 24 34 23 14 4
0 0 0 0 0 20 33 24 16 6 0 8 18 0 0 0
0 0 0 0 0 0 0 0 0 0 0 0 0 0 0 0
0 0 0 2 0 0 1 4 5 1 2 0 0 5 6 1
0 0 1 0 0 0 0 0 2 1 21 32 33 33 33 33
33 34 34 33 34 34 33 34 33 33 34 34 34 34 34 35
34 34 34 34 33 33 33 31 31 31 31 29 27 24 22 19
18 16 15 13 14 13 14 15 16 16 17 17 17 18 19 19
15 15 12 12 43 59 50 30 39 45 45 45 42 21 13 3
0 0 0 0 0 24 49 38 26 26 16 2 0 0 0 0
0 0 0 0 0 0 0 0 0 0 0 0 0 0 0 0
0 0 0 1 2 0 1 4 14 11 5 3 0 0 5 0
0 0 2 0 0 0 0 0 0 5 3 28 33 33 32 32
32 33 32 32 34 33 33 33 34 34 34 34 34 34 34 35
34 33 33 32 29 29 33 27 20 18 17 15 15 15 16 16
16 17 17 18 19 19 21 21 22 22 24 23 23 24 24 24
7 4 2 1 44 57 41 29 40 45 46 49 47 23 15 10
5 2 0 0 0 22 45 33 14 7 4 0 0 0 0 0
0 0 0 0 0 0 0 0 0 0 0 0 0 0 0 0
0 0 0 1 2 0 3 5 11 8 10 2 0 3 1 2
0 1 1 1 0 0 0 0 3 2 8 8 30 32 32 32
33 33 32 31 33 34 33 33 34 33 33 33 32 31 29 26
24 22 20 19 17 16 29 24 13 17 18 19 20 20 22 22
24 24 25 25 26 26 26 27 27 26 27 27 27 28 27 28
0 0 0 2 43 51 23 12 22 26 29 33 41 23 15 28
40 37 30 23 18 33 34 25 6 0 0 0 0 0 0 0
0 0 0 0 0 0 0 0 0 0 0 0 0 0 0 0
0 0 0 0 1 4 3 1 6 7 4 1 0 0 0 0
0 1 3 3 0 0 1 0 5 6 13 12 19 31 31 29
28 30 32 32 32 31 31 28 20 25 23 21 20 18 18 18
19 19 20 21 21 20 25 22 18 23 25 26 26 27 28 28
28 28 28 27 29 29 29 30 29 30 30 30 30 30 30 28
0 0 0 1 40 50 17 0 0 0 0 1 24 25 16 29
48 48 46 46 46 47 21 5 0 0 0 0 0 0 0 0
0 0 0 0 0 0 0 0 0 0 0 0 0 0 0 0
0 0 0 8 5 3 7 8 1 3 1 4 2 3 2 1
1 0 3 2 0 1 2 1 8 5 6 16 11 27 28 27
20 23 27 24 23 21 18 6 11 20 21 22 22 23 24 24
26 27 27 27 28 26 27 27 23 28 29 29 30 31 31 31
31 31 31 31 31 32 31 32 32 32 32 31 32 31 31 31
0 0 0 0 37 52 17 0 0 0 0 0 21 26 15 28
45 47 47 48 49 45 9 0 0 0 0 0 0 0 0 0
0 0 0 0 0 0 0 0 0 0 0 0 0 0 0 0
0 0 0 5 15 20 11 3 6 0 5 4 2 4 2 0
0 0 0 5 1 2 8 9 7 8 7 16 16 18 22 21
16 18 20 20 21 17 9 18 25 27 27 28 28 29 30 30
31 31 31 32 31 28 17 14 23 31 33 33 32 33 33 33
33 33 32 33 33 32 32 32 32 32 32 33 32 32 32 31
0 0 0 0 31 48 14 0 0 0 16 21 26 30 23 26
35 36 38 39 42 37 4 0 0 0 0 0 0 0 0 0
0 0 0 0 0 0 0 0 0 0 0 0 0 0 0 0
0 0 3 0 0 5 9 6 4 4 1 7 3 0 0 0
0 0 1 9 15 11 9 15 11 16 4 14 10 13 21 22
23 24 26 26 19 19 19 30 30 31 32 31 32 31 32 32
32 33 33 33 32 28 7 3 18 32 34 35 34 33 34 34
34 34 34 33 34 33 33 33 33 33 33 33 31 31 31 31
1 0 0 0 27 45 13 0 0 0 20 27 24 26 21 22
23 25 31 31 35 24 0 0 0 0 0 0 0 0 0 0
0 0 0 0 0 0 0 0 0 0 0 0 0 0 0 2
0 1 2 1 1 1 9 2 7 6 2 2 4 1 0 0
0 0 4 10 11 16 9 16 16 20 7 11 7 8 26 28
29 29 30 23 23 26 26 33 33 34 34 34 34 34 34 34
34 29 20 14 13 26 9 4 16 32 34 35 35 35 35 35
34 34 34 34 34 34 32 33 33 33 32 34 33 33 32 32
1 0 0 0 30 45 10 0 0 0 6 14 19 23 20 22
22 24 30 31 35 13 1 0 0 0 0 0 0 0 0 0
0 0 0 0 0 0 0 0 0 0 0 0 0 0 4 5
4 3 11 10 5 5 4 7 5 14 10 3 2 2 0 0
0 0 2 10 12 10 11 6 16 10 12 2 5 2 22 31
32 32 27 22 33 32 16 20 20 18 15 24 35 34 33 31
12 3 1 1 3 17 4 0 15 33 35 36 34 34 34 34
34 34 33 34 34 33 33 33 33 33 33 34 33 32 33 33
0 0 0 0 32 45 10 0 0 0 0 0 9 18 18 16
7 11 18 22 22 3 0 0 0 0 0 0 0 0 0 0
0 0 0 0 0 0 0 0 0 0 0 0 0 3 1 4
8 7 10 17 15 13 15 5 7 5 8 2 0 1 0 0
0 0 1 5 7 2 1 0 5 3 3 2 3 0 9 32
33 32 21 29 27 36 10 0 0 0 3 15 23 11 4 4
1 4 0 0 0 2 6 0 15 32 34 35 34 34 34 34
35 34 34 34 34 34 32 33 33 33 33 34 33 32 33 32
0 0 0 0 36 46 10 0 1 2 0 0 12 26 25 16
0 0 0 0 0 0 2 0 0 0 0 0 0 0 0 0
0 0 0 0 0 0 0 0 0 0 0 0 4 4 8 10
8 10 11 15 16 10 7 8 3 6 6 2 1 0 0 0
0 0 3 15 10 2 1 0 0 0 1 0 0 0 0 29
34 22 12 4 1 33 20 0 0 0 0 0 0 0 0 0
0 14 2 0 0 0 9 0 19 34 35 36 36 35 35 35
35 34 35 34 34 34 33 34 33 34 33 34 33 33 33 32
7 4 3 2 37 46 10 0 0 5 0 0 12 33 27 19
0 0 0 0 0 0 3 0 0 0 0 0 0 0 0 0
0 0 0 0 0 0 0 0 0 0 1 0 5 13 11 13
11 6 6 12 12 9 8 6 2 2 4 4 2 0 0 0
1 0 0 3 10 8 4 0 0 0 0 0 0 0 0 17
32 7 12 16 4 4 2 0 0 0 0 0 0 0 0 0
0 3 0 0 0 0 16 8 25 34 35 36 35 35 35 34
34 34 35 34 34 34 34 34 34 34 33 33 33 33 33 33
31 33 35 29 38 40 19 1 0 7 4 0 10 34 26 18
0 0 3 1 0 2 4 0 0 0 0 0 0 0 0 0
0 0 0 0 0 0 0 0 0 0 0 0 3 4 2 2
5 9 4 5 12 6 6 6 3 0 0 0 0 0 0 0
0 3 3 2 9 16 4 1 0 0 0 0 0 0 0 5
23 16 31 19 22 28 24 23 24 23 23 15 14 12 0 0
0 0 0 0 0 2 25 24 30 34 35 36 35 34 34 34
34 34 34 34 34 33 34 33 33 33 33 33 34 33 34 33
11 13 19 19 26 37 34 25 18 22 25 18 23 36 23 18
0 2 15 7 0 1 7 0 0 0 0 0 0 0 0 0
0 0 0 0 0 0 0 0 0 0 0 0 0 1 4 4
6 8 8 7 12 8 3 1 1 0 0 0 0 0 0 0
0 0 4 7 5 9 6 0 0 0 0 0 0 0 0 0
9 20 24 32 35 35 36 36 35 35 35 33 14 5 0 0
0 3 9 9 9 22 30 31 34 35 35 36 35 35 35 35
35 35 35 35 35 35 35 34 33 33 33 33 33 29 32 32
0 0 10 11 20 39 35 24 24 31 38 42 44 42 24 18
0 3 14 7 1 2 20 0 0 0 0 0 0 0 0 0
0 0 0 0 0 0 0 0 0 0 0 2 3 3 5 7
10 10 15 14 18 17 4 1 0 0 0 0 0 0 0 0
0 0 0 3 2 5 5 2 0 0 0 0 0 0 0 0
11 33 35 35 35 35 36 35 36 35 36 21 1 0 1 0
0 17 35 34 33 32 32 33 36 36 36 36 36 36 36 36
35 35 35 34 35 34 34 33 34 34 34 33 33 32 33 32
0 2 6 12 26 40 32 4 0 4 10 24 46 41 25 19
3 0 3 1 0 1 26 3 0 0 0 0 0 0 0 0
0 0 0 0 0 0 0 0 0 0 0 0 3 8 10 12
12 12 16 14 14 10 9 3 0 0 0 0 0 0 0 0
0 0 2 1 3 3 6 3 2 0 1 0 0 0 0 0
1 28 36 36 36 36 36 36 36 36 36 19 0 0 15 2
0 16 36 35 35 33 33 34 35 35 34 34 35 35 35 35
34 35 35 35 35 34 34 34 34 34 34 34 32 33 34 33
16 29 14 5 24 41 32 2 0 17 19 25 44 36 23 21
15 0 2 0 0 0 19 7 0 0 0 0 0 0 0 0
0 0 0 0 0 0 0 0 0 0 0 2 6 8 13 13
11 14 13 12 10 11 8 2 1 1 0 0 0 0 0 0
0 0 3 7 4 4 6 7 2 2 0 0 0 0 0 0
0 12 35 36 36 35 36 36 35 35 36 21 0 0 2 0
0 14 36 35 35 34 35 35 35 35 35 36 36 35 35 35
35 35 35 33 35 34 34 34 34 34 34 34 33 33 33 33
29 31 5 0 23 44 31 0 0 13 27 34 44 31 23 23
13 0 1 0 0 1 15 8 0 0 0 0 0 0 0 0
0 0 0 0 0 1 0 0 0 0 1 6 8 9 15 10
12 17 12 3 5 8 5 5 0 0 0 0 0 0 0 0
0 0 2 7 7 4 5 4 4 0 0 1 0 0 0 0
0 6 32 37 36 36 36 35 35 35 36 19 0 0 0 0
0 11 36 36 36 36 37 37 36 36 37 37 36 36 36 35
35 35 35 34 35 35 35 34 34 34 33 33 33 33 32 32
25 36 2 0 25 45 32 0 0 1 8 31 45 29 24 25
12 3 3 1 0 1 22 13 0 0 0 0 0 0 0 0
0 0 0 0 0 1 0 1 0 0 0 4 10 12 13 14
12 16 11 5 3 0 1 0 0 0 0 0 0 0 0 0
0 0 0 2 7 4 1 2 4 5 0 0 0 0 0 0
0 14 34 36 36 36 36 35 30 23 22 12 0 0 1 0
0 11 36 36 37 36 37 37 36 36 37 36 36 36 36 35
35 35 35 35 35 34 34 34 34 34 33 33 34 33 32 32
11 16 2 1 26 47 33 1 0 0 0 25 46 30 24 24
33 36 30 31 29 23 29 20 4 1 0 0 0 0 0 0
0 0 0 0 0 1 1 6 1 0 1 2 8 10 13 14
17 14 13 7 8 2 0 0 4 0 0 0 0 0 0 0
0 0 3 4 8 8 3 5 7 6 0 0 0 0 0 0
0 6 34 38 38 38 36 29 8 8 1 1 0 0 1 1
0 9 36 36 37 37 37 37 36 36 36 36 36 36 35 35
35 35 34 34 35 34 34 34 34 35 33 34 33 33 32 32
0 0 1 0 24 46 31 0 0 0 0 24 47 30 25 25
44 52 48 51 51 39 37 23 5 2 0 0 0 0 0 0
0 0 0 0 2 1 5 8 6 3 1 6 5 10 14 20
16 10 8 11 4 2 0 0 0 0 0 0 0 0 0 0
0 1 3 3 8 7 4 3 2 2 8 3 0 0 0 0
0 4 26 35 37 37 36 34 32 30 22 11 0 0 0 3
1 8 28 35 37 36 37 36 36 37 36 36 36 36 36 36
35 35 34 35 35 33 34 34 33 34 33 34 33 33 32 32
0 0 0 0 21 46 30 0 0 0 0 22 47 31 24 26
41 48 47 50 50 44 38 22 4 1 0 0 2 0 0 0
0 0 0 0 1 0 1 4 6 7 9 8 8 10 12 13
10 9 11 7 7 3 0 0 2 0 0 0 0 0 0 0
0 1 1 5 3 5 6 4 7 4 1 5 2 0 0 0
0 4 30 37 36 37 35 38 47 38 13 5 0 0 0 1
0 0 7 14 24 35 37 37 37 36 37 36 36 36 35 35
35 34 34 35 35 35 35 34 34 34 34 34 33 33 32 30
0 0 0 0 20 47 30 0 0 0 0 19 44 28 25 25
28 31 32 32 32 31 30 15 2 0 0 0 2 3 0 0
0 0 0 0 0 0 2 5 6 2 8 12 13 16 9 8
13 10 15 12 5 5 1 0 0 1 2 0 0 0 0 0
0 1 1 2 3 8 3 5 1 8 4 0 0 0 0 0
0 3 24 30 27 25 23 15 8 7 3 0 0 0 0 1
0 0 8 4 13 35 38 38 37 36 37 37 36 35 36 35
35 34 34 35 35 35 35 35 34 35 34 35 34 33 32 30
0 0 0 0 19 47 32 0 0 0 0 17 45 29 23 24
31 36 36 35 34 32 31 16 5 0 0 1 5 3 6 2
1 0 0 0 1 5 2 7 7 6 5 6 10 8 7 8
7 9 5 3 6 7 6 0 0 0 0 0 0 0 0 2
1 0 3 5 4 6 7 2 7 1 0 5 1 0 0 0
0 2 9 8 10 11 9 5 1 0 0 0 0 0 0 1
0 0 8 6 8 36 38 38 37 37 37 36 36 35 35 35
35 35 34 34 35 34 35 35 34 34 35 34 33 31 30 29
10 13 17 21 34 45 29 0 0 0 0 20 49 31 22 25
34 41 40 40 39 39 36 18 6 3 0 7 6 11 8 13
9 0 0 2 1 3 6 4 8 11 6 7 9 11 6 6
7 7 8 7 2 1 2 1 0 0 0 0 0 0 0 0
0 1 1 7 8 2 9 6 6 6 2 0 0 0 0 0
2 0 5 4 6 5 5 4 2 9 3 2 0 0 0 1
0 0 8 7 7 34 39 38 38 36 37 36 36 36 35 35
34 35 34 34 35 35 35 35 35 34 33 33 31 29 29 27
39 41 44 45 44 36 27 16 13 11 8 24 45 30 24 28
34 38 39 39 40 41 41 20 0 1 2 11 21 10 15 18
20 15 0 0 0 1 6 9 9 13 14 12 13 15 14 8
5 9 8 2 1 1 2 0 0 0 0 0 0 0 0 0
0 1 4 1 6 5 1 5 1 4 5 0 2 0 0 0
0 0 4 7 7 9 9 9 8 6 7 17 0 0 0 0
0 0 7 7 6 33 38 37 37 37 37 35 34 34 35 36
35 35 35 34 35 35 34 35 34 34 34 32 32 30 29 29
41 43 42 43 42 40 40 39 39 37 35 37 40 37 37 38
37 37 38 39 39 39 37 30 7 0 4 6 29 22 16 14
26 23 4 0 1 0 2 12 14 12 14 15 16 17 13 10
8 4 5 8 0 0 0 0 1 0 1 0 0 0 0 0
0 0 7 9 3 7 0 2 2 0 0 0 0 0 0 0
0 4 9 11 12 11 11 11 6 2 5 19 2 0 0 0
0 0 8 9 14 29 36 36 36 36 36 36 35 34 35 35
35 31 28 31 34 34 34 34 34 33 32 32 31 30 28 27
36 39 39 39 39 39 39 39 39 39 39 38 38 38 37 38
37 37 37 36 36 36 36 33 14 0 2 5 31 33 24 20
16 15 7 0 9 5 2 12 16 13 11 17 16 20 20 12
14 5 5 1 0 0 0 0 1 2 0 0 1 0 0 1
8 2 0 12 7 3 3 0 0 0 1 0 0 0 0 0
0 0 6 5 4 3 6 11 8 1 8 11 0 0 0 5
3 1 5 11 15 27 36 37 36 37 36 36 36 35 35 35
19 3 7 3 24 34 33 33 33 32 32 31 30 29 28 27
34 39 39 39 38 38 38 37 38 37 36 37 37 36 36 35
35 35 35 35 35 34 35 34 14 0 0 0 12 39 38 26
14 8 10 10 8 14 21 20 35 38 43 37 46 55 37 28
29 10 3 2 3 0 0 1 3 2 5 0 0 0 0 3
6 15 6 19 23 4 4 0 0 0 0 0 0 0 0 0
0 0 0 0 0 0 6 12 11 8 7 3 0 0 0 1
0 0 7 10 11 26 37 37 36 36 36 36 36 35 34 34
13 0 1 0 20 34 33 33 32 31 31 29 29 29 28 27
31 38 35 25 21 20 19 18 17 16 15 15 14 12 12 11
10 11 10 10 10 15 29 34 18 0 0 0 5 19 39 28
22 20 24 29 20 25 42 62 66 82 96 93 89 86 72 56
52 35 14 2 2 0 0 0 4 1 2 6 0 2 0 6
11 25 30 38 49 0 0 0 0 0 0 0 0 0 0 0
0 0 0 0 0 0 7 12 11 10 9 8 10 10 13 13
13 15 19 20 19 22 24 25 21 24 34 35 35 34 34 33
10 0 0 0 11 33 32 31 31 30 30 29 29 29 29 29
31 37 31 7 0 0 0 0 0 0 0 0 0 0 0 0
0 0 0 0 0 6 34 34 25 7 7 14 18 28 30 41
36 33 31 47 55 52 56 76 83 91 101 107 109 105 94 82
78 60 46 13 3 1 0 0 1 1 0 3 1 4 3 5
14 39 59 67 71 0 0 0 0 0 0 0 0 0 0 0
0 0 0 0 0 0 10 11 11 10 32 18 22 27 29 24
27 29 26 25 20 14 38 54 14 17 32 34 34 32 30 29
8 0 0 0 8 33 32 31 31 30 30 29 30 30 29 29
29 37 33 11 0 0 0 0 0 0 0 0 0 0 0 0
0 0 0 0 0 5 34 36 33 33 35 38 35 32 29 46
51 41 33 44 63 80 87 89 92 93 96 101 105 110 107 105
104 95 77 48 27 5 1 0 0 0 0 3 7 13 15 10
7 45 74 78 66 0 0 0 0 0 0 0 0 0 0 0
0 0 0 0 0 1 12 11 12 11 23 19 25 30 46 58
67 75 77 57 22 24 90 120 20 14 30 34 33 11 4 4
0 0 0 0 7 32 31 31 30 29 30 30 30 31 30 29
28 38 35 16 0 0 0 0 0 0 0 0 0 0 0 0
0 0 0 0 0 3 33 36 33 36 39 40 34 23 16 41
59 53 38 41 59 78 85 85 93 96 96 99 109 117 121 118
116 118 106 84 61 39 13 2 0 2 2 7 6 30 17 9
7 37 87 90 72 0 0 0 0 0 0 0 0 0 0 0
0 0 0 0 0 4 12 11 13 10 23 21 27 32 59 80
85 88 88 62 23 50 130 116 71 15 29 34 26 0 0 0
0 0 0 0 6 31 31 31 30 30 31 31 31 31 30 29
27 37 35 19 0 0 0 0 0 0 0 0 0 0 0 0
0 0 0 0 0 2 31 37 32 32 34 38 35 20 17 46
60 66 54 17 29 47 55 64 72 87 96 104 110 121 128 124
121 122 120 107 99 71 40 13 3 1 4 10 5 17 14 8
9 44 108 100 69 0 0 0 0 0 0 0 0 0 0 1
0 0 0 0 0 6 12 12 16 5 18 28 32 34 34 41
41 35 35 32 28 34 49 31 30 23 27 35 28 1 0 0
0 0 0 0 5 31 31 31 30 30 31 31 31 32 30 30
26 36 36 23 1 0 0 0 0 0 0 0 0 0 0 0
0 0 0 0 0 1 28 37 32 24 23 25 26 23 24 33
69 91 82 41 30 52 51 54 65 62 81 106 119 129 129 123
123 125 126 119 117 107 74 35 21 10 9 15 28 30 24 9
9 44 111 109 65 2 0 0 0 0 0 0 0 0 0 0
0 0 0 0 0 10 12 13 16 1 10 30 34 34 25 24
31 19 19 22 25 25 26 24 25 23 26 35 34 11 0 0
0 0 0 0 3 25 32 31 32 31 32 32 32 32 31 30
26 36 36 25 2 0 0 0 0 0 0 0 0 0 0 0
0 0 0 0 0 0 25 38 31 10 1 2 6 11 25 31
75 103 99 69 37 48 52 73 84 87 90 109 124 132 131 124
124 126 128 126 123 121 102 66 42 37 29 32 67 72 56 9
11 45 103 115 60 5 0 0 0 0 0 0 0 0 0 0
0 0 0 0 1 12 11 13 11 0 7 17 30 34 26 24
22 19 19 21 27 27 27 26 25 22 24 34 30 26 1 0
0 0 0 0 0 11 32 31 32 32 32 32 32 32 32 30
25 35 37 27 4 0 0 0 0 0 0 0 0 0 0 0
0 0 0 0 0 0 22 38 31 10 0 0 0 9 30 41
94 113 105 74 36 39 59 73 84 94 101 112 127 136 133 125
123 127 129 126 122 119 112 97 82 78 78 84 93 93 62 13
37 76 95 116 59 11 0 0 0 0 0 0 1 0 0 0
0 0 0 0 3 13 12 14 7 0 2 4 28 33 26 23
19 20 18 22 28 28 27 25 24 20 19 21 3 2 4 0
0 0 0 0 0 8 32 32 32 32 33 32 32 31 30 28
24 35 36 28 5 0 0 0 0 0 0 0 0 0 0 0
0 0 0 0 0 0 18 38 31 12 0 0 0 7 31 58
109 118 106 80 52 46 57 70 87 94 103 117 130 138 131 122
123 128 127 124 120 116 113 112 106 102 107 108 104 105 80 37
97 100 102 114 51 11 0 0 0 0 0 0 0 0 0 0
0 2 0 0 6 13 12 14 4 0 1 5 31 32 26 21
19 20 19 22 27 27 27 25 24 21 5 1 0 0 3 0
0 0 0 0 0 1 25 31 31 31 32 32 30 29 28 27
23 34 36 29 7 0 0 0 0 0 0 0 0 0 0 0
0 0 0 0 0 0 15 38 32 14 0 0 0 9 35 84
124 121 113 91 66 48 55 69 84 93 109 125 139 137 128 121
122 125 127 121 119 118 114 113 111 109 110 108 106 107 95 86
117 102 123 108 49 11 0 0 0 0 0 0 0 0 0 0
0 0 0 0 8 12 12 13 2 2 15 16 35 31 26 20
16 20 17 22 27 27 27 25 25 23 2 0 0 5 0 0
0 0 0 0 0 0 15 29 28 30 31 30 30 28 28 26
23 33 36 30 9 0 0 0 0 0 0 0 0 0 0 0
0 0 0 0 0 0 12 37 32 16 0 0 0 10 47 107
129 126 129 105 74 60 51 63 79 97 116 135 139 133 126 122
121 123 122 117 118 118 114 113 113 110 109 107 107 106 108 109
104 110 128 90 49 14 2 0 0 0 0 0 0 0 0 0
0 0 0 0 11 13 14 12 0 6 14 14 37 30 23 12
7 18 18 22 28 26 26 26 25 23 2 0 3 8 0 0
0 0 0 0 0 0 1 7 7 24 31 30 29 28 27 26
23 32 35 29 9 0 0 0 0 0 0 0 0 0 0 0
0 0 0 0 0 0 11 37 33 18 0 0 0 8 65 122
141 136 133 116 80 69 59 62 80 102 122 139 136 128 123 119
117 119 118 117 118 118 115 115 114 108 108 107 108 107 115 106
103 114 118 77 53 24 6 0 0 0 0 0 0 0 0 0
0 0 0 2 13 12 15 10 0 4 9 19 37 26 18 4
6 16 16 21 27 26 26 26 27 24 5 4 9 10 4 3
3 2 2 2 2 1 0 0 2 23 31 31 30 29 28 27
22 31 36 30 11 0 0 0 0 0 0 0 0 0 0 0
0 0 0 0 0 0 9 37 33 19 0 1 1 8 84 128
139 138 133 119 88 71 66 67 81 102 118 129 126 123 119 117
116 113 115 115 115 115 116 115 112 109 109 108 109 102 114 103
116 117 103 76 62 33 15 0 0 0 0 0 0 0 0 1
0 0 0 4 13 13 15 7 0 24 22 26 35 25 17 2
5 15 16 23 27 26 26 26 27 26 9 10 12 11 9 7
5 3 2 5 8 10 12 14 19 33 39 39 39 39 38 37
21 31 35 31 12 0 0 0 0 0 0 0 0 0 0 0
0 0 0 0 0 0 7 36 33 22 0 4 11 19 95 124
137 138 134 114 91 74 71 69 82 101 114 119 118 120 119 114
112 109 110 111 113 110 114 113 112 110 108 108 110 98 104 114
122 113 87 78 69 41 16 2 0 0 0 0 0 0 0 0
0 0 0 7 14 13 14 3 10 65 35 29 34 24 17 6
12 15 17 24 28 27 26 26 27 26 8 1 2 1 0 0
0 0 0 30 40 40 41 41 42 42 43 43 43 42 41 41
21 29 36 31 14 0 0 0 0 0 0 0 0 0 0 0
0 0 0 0 0 0 6 35 33 24 6 10 20 43 102 128
127 124 122 107 81 77 77 75 82 94 106 114 115 116 113 112
110 108 109 109 109 110 113 114 114 108 107 109 108 94 75 112
113 98 81 78 70 48 26 11 0 0 0 0 0 0 0 0
0 0 0 11 14 14 15 1 11 50 23 34 33 25 21 12
18 18 19 27 29 28 26 27 28 26 6 0 0 0 0 0
0 0 5 40 41 41 41 41 41 41 40 41 39 39 39 39
21 29 35 31 14 0 0 0 0 0 0 0 0 0 0 0
0 0 0 0 0 0 5 35 33 31 36 39 42 65 101 113
117 117 112 103 77 77 79 77 84 97 104 108 111 113 111 111
110 110 108 105 107 110 112 113 113 111 108 109 108 99 43 69
92 86 81 76 74 66 40 18 1 0 0 0 0 0 0 0
0 0 1 13 14 15 13 0 1 15 18 37 32 29 21 19
17 20 19 29 30 27 26 27 27 25 7 0 0 0 0 0
0 0 11 34 31 34 36 37 35 33 28 31 32 30 36 40
19 27 34 31 15 0 0 0 0 0 0 0 0 0 0 0
0 0 0 0 0 0 4 34 34 33 48 51 52 71 99 122
123 114 112 107 77 71 78 77 85 94 102 105 108 108 110 107
108 108 106 104 106 110 112 110 112 111 109 110 108 102 83 87
89 86 82 77 75 74 47 19 2 4 0 0 0 1 2 6
6 5 8 14 13 15 9 0 1 8 20 39 31 30 21 18
17 20 21 29 29 27 26 26 26 25 7 0 0 0 0 0
0 0 6 10 7 15 25 33 27 25 22 22 25 26 36 38
19 27 34 32 16 0 0 0 0 0 0 0 0 0 0 0
0 0 0 0 0 0 4 33 33 30 40 40 42 73 109 135
134 125 120 123 88 64 75 77 81 93 101 103 106 106 105 106
110 108 106 104 105 108 113 112 112 111 109 111 108 103 100 96
90 84 83 82 78 72 48 20 14 8 0 0 0 0 7 13
13 13 14 14 14 17 6 0 1 6 25 37 30 30 21 19
17 21 21 30 30 28 27 27 26 26 8 0 0 0 0 0
0 0 0 0 0 5 25 33 34 33 32 34 34 33 36 38
18 25 34 32 16 0 0 0 0 0 0 0 0 0 0 0
0 0 0 0 0 0 3 32 32 26 20 18 23 71 103 114
117 130 126 130 98 52 68 72 82 91 100 102 103 104 103 107
109 108 107 104 105 110 113 112 113 111 112 111 107 102 99 96
90 86 85 84 81 73 49 25 29 12 0 0 1 1 10 14
13 12 14 14 13 18 3 0 10 15 30 36 30 29 20 18
16 20 22 29 29 28 27 27 27 27 8 0 0 0 0 0
0 0 0 0 0 2 33 37 37 37 38 36 36 36 37 37
17 25 34 31 16 0 0 0 0 0 0 0 0 0 0 0
0 0 0 0 0 0 3 31 32 25 19 18 19 53 86 90
81 90 104 111 87 49 70 67 75 87 95 101 102 104 105 105
107 108 106 104 106 110 112 113 114 113 111 111 107 103 100 96
90 87 87 87 85 79 56 40 36 7 21 8 0 6 18 18
18 25 26 18 9 11 0 1 22 26 36 34 30 29 17 16
16 21 23 29 28 28 27 28 27 26 10 0 0 0 0 0
0 0 0 0 0 0 29 38 36 37 37 36 36 34 36 36
17 24 34 32 17 0 0 0 0 0 0 0 0 0 0 0
0 0 0 0 0 0 3 33 34 27 24 23 22 30 58 63
27 24 52 67 52 61 77 65 71 80 94 102 103 103 101 105
106 107 106 106 108 110 111 113 113 113 108 108 107 103 99 94
89 88 89 91 88 80 67 50 28 32 34 14 20 58 93 63
34 29 26 29 31 10 0 44 85 26 39 33 30 27 15 13
16 18 22 28 29 28 27 28 27 25 10 0 0 0 0 0
0 6 0 0 0 0 15 26 28 32 24 25 26 24 25 28
17 23 33 31 17 0 0 0 0 0 0 0 1 2 3 4
6 7 9 11 13 14 19 32 31 26 25 24 25 24 23 22
28 27 61 73 76 78 77 67 67 77 89 99 103 103 102 103
107 107 106 108 109 109 111 111 110 109 106 105 105 102 98 92
87 89 92 93 90 81 74 66 64 70 39 17 70 109 114 69
12 10 11 13 19 32 20 98 135 39 39 30 29 25 18 13
8 18 23 26 27 27 28 28 27 25 10 0 0 0 0 0
4 10 0 0 0 0 7 27 31 28 25 26 25 21 26 27
16 22 33 31 23 10 11 13 15 17 20 22 23 24 25 26
27 27 28 27 28 28 27 28 27 26 24 24 24 24 22 21
22 23 60 84 88 82 79 72 66 74 85 95 101 103 104 104
105 106 107 109 109 109 111 112 110 106 102 104 103 100 96 92
89 90 94 97 92 82 77 78 83 80 63 53 95 119 114 70
10 9 9 8 26 12 25 91 101 28 40 26 22 17 5 3
6 4 15 19 24 26 26 25 24 26 12 0 0 0 0 0
16 9 0 0 0 0 5 36 37 32 35 36 35 32 35 35
16 22 32 32 31 30 28 29 31 32 31 31 30 30 30 30
29 30 29 29 28 28 27 27 27 26 24 24 24 23 22 22
22 22 50 79 84 86 86 81 69 72 81 91 97 102 102 103
103 105 106 109 109 109 109 109 108 107 104 102 100 97 93 88
90 92 98 101 93 84 79 83 86 85 78 67 81 108 91 35
6 5 5 9 34 5 6 40 26 29 41 18 3 0 0 0
1 0 0 9 31 23 23 23 21 25 13 0 0 0 0 0
20 4 0 0 0 0 0 29 39 39 39 38 38 38 37 36
15 21 32 33 33 32 27 29 32 32 32 31 30 30 33 34
23 17 21 25 23 14 23 24 24 24 25 24 24 24 23 22
22 22 52 75 88 83 85 87 79 71 79 88 97 100 101 104
104 108 107 108 108 110 109 107 105 104 101 98 97 93 90 90
91 97 102 103 95 85 82 84 89 86 82 75 58 35 20 6
7 9 24 48 66 69 76 80 80 78 53 26 14 0 0 0
0 0 0 1 26 15 20 23 14 17 16 6 1 0 0 0
3 0 0 0 0 0 0 8 29 32 31 32 32 32 35 35
14 20 31 32 33 31 27 27 28 28 28 27 27 38 55 38
4 0 0 3 3 0 6 15 15 14 10 8 8 15 22 22
22 24 59 81 101 90 82 80 77 76 79 85 93 97 102 103
106 107 109 108 108 109 108 105 102 99 97 97 93 87 84 89
94 100 104 105 95 87 82 87 89 88 88 82 64 19 8 9
10 26 86 91 99 101 93 88 98 98 62 35 28 0 0 0
0 0 0 0 15 13 18 22 19 18 8 11 5 0 0 0
0 0 0 0 0 0 0 5 12 22 22 23 22 24 33 36
6 10 16 16 14 13 11 10 10 12 15 16 29 64 52 10
0 0 0 0 0 0 0 0 0 0 0 0 0 1 16 23
22 21 45 48 58 74 82 74 67 69 74 83 91 95 101 102
106 108 110 109 108 107 106 104 97 95 93 87 87 88 87 91
98 103 106 105 96 86 82 86 87 90 90 86 73 41 25 42
63 82 99 95 99 101 95 90 96 97 57 4 3 0 0 1
2 1 3 3 8 17 18 7 6 4 0 0 0 0 0 0
0 0 0 0 0 0 0 7 9 24 32 32 32 32 35 35
0 0 0 0 0 0 1 2 3 3 17 21 50 63 22 0
0 0 0 0 0 0 0 0 0 0 0 0 0 0 10 24
22 20 27 45 43 44 49 51 51 53 68 78 87 95 100 101
102 104 107 109 108 104 106 104 99 96 91 87 88 86 89 95
101 105 107 104 97 87 81 84 88 91 93 89 78 61 59 78
58 46 68 79 75 66 67 69 68 70 48 23 23 18 16 17
11 6 10 5 4 6 3 2 1 0 0 0 0 0 0 0
0 0 0 0 0 0 0 1 1 7 34 39 38 39 38 38
0 0 0 0 0 1 5 9 8 7 18 30 59 39 5 0
0 0 0 0 0 0 0 0 0 0 0 0 0 0 16 27
26 24 23 28 36 46 52 40 38 42 55 75 86 94 97 101
98 101 104 107 106 105 102 100 97 93 89 85 87 87 87 98
102 105 108 104 97 86 81 84 87 91 93 90 82 70 77 93
120 136 140 140 132 88 71 53 36 29 17 12 9 6 3 2
0 0 0 0 0 0 0 0 0 0 0 0 0 0 0 0
0 0 0 0 0 0 0 0 0 0 27 39 39 38 39 37
2 2 1 0 0 0 5 13 12 12 8 43 57 13 0 11
17 0 0 0 0 0 0 0 0 0 0 0 1 14 27 28
26 24 23 22 32 58 67 57 58 56 52 60 79 87 94 97
99 99 101 103 102 100 100 96 93 90 88 85 86 89 91 97
102 104 104 101 96 86 83 84 89 91 93 90 82 74 61 74
84 100 110 101 82 33 30 44 45 42 8 0 0 0 0 0
0 1 1 1 0 0 2 0 0 0 0 0 0 0 0 0
0 0 0 0 0 0 0 0 0 0 19 38 38 37 38 37
6 5 3 1 0 2 9 18 17 13 5 50 51 14 24 38
39 10 0 8 5 0 0 0 0 0 0 0 1 8 14 13
12 16 21 20 21 44 59 64 73 69 60 57 65 80 90 94
92 96 98 99 100 94 95 93 87 83 82 86 89 91 94 100
102 104 103 102 97 86 82 84 88 90 93 89 84 76 65 53
51 49 49 49 107 55 28 57 57 49 12 0 3 6 10 16
26 38 20 41 44 35 60 64 68 23 0 0 0 0 0 0
0 0 0 0 0 0 0 0 0 0 11 35 35 35 34 34
6 6 6 9 14 18 20 17 17 6 9 54 31 10 33 42
42 17 4 32 32 15 0 4 9 4 0 0 0 0 0 0
0 3 17 17 17 21 38 55 65 70 67 64 62 72 82 89
92 93 93 94 95 94 89 85 85 86 83 87 89 91 95 99
101 102 103 102 93 86 81 83 88 92 93 90 87 79 73 63
58 49 24 13 104 117 49 51 51 49 85 89 108 119 126 131
132 135 90 137 117 106 132 119 115 54 0 1 1 3 0 0
0 0 0 0 0 0 0 0 0 0 3 28 28 28 27 28
4 5 6 9 18 22 17 7 5 0 15 57 23 4 35 43
42 15 23 47 43 29 3 4 3 0 0 0 0 0 0 0
0 0 14 14 15 14 15 40 51 62 68 68 64 65 75 82
85 88 89 90 91 89 85 82 82 85 87 83 89 91 95 98
102 103 104 101 92 86 81 84 88 93 93 92 90 83 77 73
65 65 63 33 122 131 110 68 51 48 92 86 80 90 97 107
117 121 71 86 81 106 101 69 66 48 2 18 10 22 2 0
0 0 0 0 0 0 0 0 0 0 0 23 28 30 29 27
1 1 2 6 15 20 9 0 0 0 19 61 25 6 26 13
29 30 43 52 41 30 8 6 1 0 0 0 0 0 0 0
0 0 12 13 13 12 12 24 50 57 67 74 72 68 71 78
80 82 84 86 87 84 81 80 81 83 86 87 88 90 94 98
102 106 107 101 98 86 80 83 87 92 96 96 92 88 82 79
78 97 75 76 138 136 131 129 96 75 64 68 69 81 83 100
99 94 57 69 106 109 90 95 91 43 3 15 11 12 4 0
0 0 0 0 0 0 0 0 0 0 0 9 28 30 29 28
1 1 2 6 15 20 7 0 0 0 21 63 31 7 13 3
26 42 54 49 28 29 11 1 0 0 0 0 0 0 0 0
0 0 8 15 15 14 12 17 50 60 71 79 79 75 74 77
79 77 78 78 77 75 75 77 80 78 81 84 88 89 90 95
102 106 108 107 103 88 80 84 89 93 98 100 96 92 86 85
84 80 78 118 138 136 138 138 138 129 107 90 68 77 72 72
60 41 42 55 68 56 38 38 43 21 0 6 8 1 0 0
0 0 0 0 0 0 0 0 0 0 0 1 27 29 27 29
5 3 4 9 16 18 9 8 6 0 21 65 49 16 10 4
32 50 58 32 3 24 9 0 0 0 0 0 0 0 0 0
0 0 8 29 30 26 14 17 44 62 74 80 84 83 80 80
77 76 72 73 74 77 77 74 77 78 80 85 85 87 91 97
102 104 107 111 103 91 80 84 90 94 100 101 100 96 93 89
88 84 96 136 134 138 139 138 136 126 119 128 130 106 94 51
15 12 13 14 28 23 18 15 1 1 3 3 2 12 0 0
0 0 0 0 0 0 0 0 0 0 0 2 28 29 28 30
8 6 7 18 24 25 19 21 16 0 15 56 51 25 4 3
33 51 41 16 0 23 9 0 0 0 0 0 0 0 0 0
0 0 10 38 40 50 62 79 56 53 74 81 86 85 85 81
74 70 68 73 72 71 70 72 73 75 74 79 80 84 89 95
100 103 110 108 103 90 81 86 92 97 101 103 104 101 96 72
88 97 132 139 134 137 138 138 131 129 123 122 132 133 132 127
112 78 44 24 38 37 26 23 1 0 12 6 2 11 8 0
0 0 1 0 0 0 0 0 0 0 0 2 30 31 32 30
7 6 12 29 28 25 21 21 18 0 10 56 57 35 1 4
31 33 12 2 0 3 1 0 0 0 0 0 0 0 0 0
0 0 15 54 73 79 77 81 78 51 61 76 84 86 81 74
68 63 66 68 70 69 67 65 68 72 74 76 77 81 85 93
98 106 110 111 102 90 84 89 95 100 104 105 106 104 84 88
103 131 137 139 136 139 139 137 125 126 127 128 130 128 122 123
128 130 124 99 55 35 32 43 4 0 10 6 1 3 6 4
0 0 1 0 0 0 0 0 0 0 0 3 28 27 31 29
8 3 5 19 28 30 29 26 21 1 4 37 33 18 0 0
4 1 0 0 0 0 0 0 0 0 0 0 0 0 0 4
28 59 83 87 81 80 82 90 96 64 52 64 70 72 72 64
58 57 62 64 63 62 62 60 63 65 71 73 75 81 87 95
102 107 111 109 99 89 86 92 98 106 109 110 110 104 75 105
128 134 129 139 136 138 139 131 125 125 124 126 123 117 125 135
137 138 135 137 134 113 92 85 11 2 12 3 5 0 5 2
0 0 0 4 0 0 0 0 0 0 0 6 29 27 30 33
12 4 0 3 12 18 14 8 4 0 0 2 0 0 0 0
0 0 0 0 0 0 0 0 0 0 0 0 0 16 49 80
90 85 82 80 80 86 93 98 95 87 67 55 58 56 56 53
50 53 54 56 56 50 41 41 47 57 61 65 71 82 94 100
104 108 110 108 101 90 87 92 100 108 114 115 112 81 96 129
138 135 138 139 138 139 133 127 125 122 125 123 124 131 136 137
138 138 129 124 128 127 126 121 109 73 28 0 2 4 3 0
1 0 0 5 0 0 0 0 0 0 1 14 29 28 29 33
4 0 0 0 0 0 0 0 0 0 0 0 1 5 5 0
3 2 7 1 5 8 0 0 0 0 5 38 74 90 90 90
84 79 76 85 93 98 99 96 99 93 104 95 79 65 75 66
57 56 46 37 25 17 16 16 17 26 50 63 75 87 93 97
103 108 111 109 100 89 85 92 99 111 117 118 115 103 131 138
136 139 139 137 135 136 127 126 123 124 124 127 133 133 138 137
134 132 133 128 126 120 120 119 117 114 110 80 22 4 5 1
1 0 0 3 0 0 0 0 0 0 1 16 31 31 30 31
0 0 0 0 0 0 0 0 0 0 0 0 22 32 25 12
17 20 22 9 16 8 0 0 11 55 91 87 71 61 50 44
51 66 77 94 102 101 91 84 88 84 102 106 100 92 111 106
106 96 34 10 18 18 19 26 34 45 63 67 72 81 91 96
102 108 110 109 101 87 84 88 99 112 118 132 125 132 139 137
139 140 139 138 137 132 131 128 130 124 124 135 137 135 137 134
134 134 136 135 132 126 126 125 123 122 116 116 112 82 31 4
0 2 0 2 0 0 0 0 0 0 3 19 33 34 34 34
0 0 0 0 0 0 0 0 0 0 0 0 21 33 33 44
30 33 32 25 23 3 9 62 106 112 84 56 46 43 34 20
28 62 81 89 86 100 125 124 107 98 95 105 102 97 105 104
106 111 85 55 29 26 44 65 85 91 84 75 72 74 81 89
99 105 111 109 99 86 80 91 103 116 117 124 137 140 138 139
139 138 138 139 135 135 131 134 130 131 138 137 138 136 136 136
136 135 134 134 131 125 126 130 128 128 124 119 114 109 103 52
2 4 0 1 0 0 0 0 0 0 3 18 31 33 34 34
6 0 0 0 0 0 0 0 0 0 0 0 4 26 38 47
39 42 43 37 20 43 98 116 118 113 68 57 48 47 32 22
39 109 116 112 119 111 102 118 126 102 91 110 107 109 102 117
114 111 113 108 109 77 65 82 93 99 103 99 92 86 87 90
96 101 109 110 101 84 80 95 108 117 123 140 139 135 139 139
139 138 138 136 138 138 137 138 136 135 136 136 136 135 135 135
135 135 132 131 129 130 127 126 131 133 130 128 113 111 109 105
71 9 0 1 0 0 0 0 0 0 1 12 23 26 26 30
2 0 0 0 0 0 0 0 0 0 0 0 0 13 29 34
48 42 41 37 84 113 120 123 122 115 66 51 49 48 33 23
63 110 119 109 118 128 121 103 108 98 100 117 121 129 129 137
136 131 119 114 118 125 122 93 85 93 99 101 97 93 93 93
95 101 108 109 100 81 80 98 120 136 139 138 140 137 138 139
139 138 136 137 137 138 137 137 137 136 136 135 135 135 135 135
135 132 129 127 130 132 127 120 126 131 130 127 112 115 114 114
107 85 21 1 0 0 0 0 0 0 2 18 29 32 32 32
0 0 0 0 0 0 0 0 0 0 0 0 0 0 11 21
29 26 47 97 116 128 127 131 129 124 120 125 101 62 38 34
61 88 83 91 102 108 126 128 104 113 124 132 136 137 138 134
139 140 139 121 111 122 130 133 125 112 97 98 100 94 91 90
92 99 108 111 102 86 106 132 138 138 138 138 139 137 138 138
138 137 137 137 136 137 137 136 136 135 136 135 135 134 134 134
132 130 130 132 133 132 132 124 125 131 131 126 116 116 120 124
115 106 90 27 0 0 0 0 0 0 2 17 28 31 31 32
0 0 0 0 0 0 0 0 0 0 0 0 0 0 0 7
11 48 104 108 120 136 130 128 122 126 115 109 108 125 100 46
89 126 134 136 130 115 96 86 89 129 138 137 141 138 134 137
136 142 141 139 122 113 119 125 128 129 133 132 125 116 103 98
96 102 112 118 129 137 135 131 133 134 138 138 138 137 136 135
133 136 136 136 136 135 135 135 134 132 134 134 134 133 133 132
132 132 131 131 131 131 130 130 127 129 127 122 121 121 118 124
121 113 107 88 26 0 0 0 0 0 0 13 24 28 28 29
0 0 0 0 0 0 0 0 0 0 0 0 0 3 8 10
45 106 115 111 119 136 136 133 125 123 136 144 143 125 107 130
134 130 122 122 129 125 90 92 102 137 138 137 136 137 137 136
136 137 138 140 137 129 126 124 124 129 131 138 139 138 135 135
135 136 134 133 133 134 136 129 132 134 133 134 133 134 132 134
135 135 135 134 134 134 134 133 132 126 128 132 132 132 132 131
131 130 130 130 129 128 127 126 125 124 124 122 121 120 119 121
121 119 113 107 84 23 0 0 0 0 0 11 20 23 24 27
0 0 0 0 0 0 0 0 0 0 0 1 0 5 12 42
105 116 120 117 123 132 140 141 130 122 119 125 120 120 135 119
115 115 120 123 120 103 112 132 140 133 135 139 141 139 137 135
136 137 137 140 138 139 137 128 124 125 127 135 134 136 134 131
131 135 130 127 120 129 133 136 131 135 136 133 134 134 135 136
136 135 135 135 134 134 134 134 133 129 128 132 132 132 132 131
131 131 131 130 129 128 127 125 125 124 124 123 121 121 119 121
122 120 117 113 106 74 14 0 0 0 0 1 3 3 5 13
0 0 1 1 0 4 5 2 0 0 0 0 0 5 31 101
114 123 128 119 128 128 138 132 127 123 130 145 144 142 124 124
136 142 140 133 135 140 142 143 141 138 142 141 142 141 141 139
136 134 140 139 138 141 141 136 133 134 131 129 135 133 131 128
123 126 124 125 124 130 129 133 136 136 136 136 136 136 136 135
135 135 134 134 134 133 133 133 132 132 130 129 132 132 131 130
130 129 128 128 127 126 125 123 124 123 123 122 122 120 117 121
121 120 118 117 113 105 72 13 0 0 0 0 1 2 1 7
0 2 3 3 0 4 4 5 2 0 0 0 0 13 91 113
123 126 133 122 124 128 141 133 132 124 107 112 110 111 136 142
131 138 143 143 143 142 142 142 141 136 140 141 142 141 142 141
140 137 140 140 138 139 139 140 136 132 130 135 136 139 135 128
126 128 123 128 129 131 135 135 135 135 134 135 136 136 135 135
135 134 134 134 134 133 133 133 133 132 131 130 131 131 130 130
130 129 128 128 127 126 125 122 123 123 123 123 122 121 120 122
122 121 119 119 115 111 105 63 7 0 0 0 0 0 0 6
0 1 3 2 0 1 4 7 6 2 0 0 2 69 108 118
132 129 138 126 128 127 141 132 129 119 109 137 142 142 137 141
143 142 142 142 142 142 142 142 141 135 142 142 141 139 141 141
141 140 140 140 140 140 140 139 139 133 131 136 138 136 136 134
130 125 125 131 135 136 136 135 135 133 134 136 135 134 135 135
135 134 134 132 132 133 132 132 132 131 129 128 130 131 130 129
129 128 128 126 125 125 124 122 123 123 123 122 122 121 119 122
122 122 122 119 116 114 111 100 46 1 0 0 1 1 1 6
0 1 5 4 3 0 2 6 5 4 2 0 50 112 112 125
139 134 141 124 128 127 142 134 130 108 39 48 61 72 138 138
143 143 144 143 143 142 142 142 141 136 140 141 138 140 142 142
141 141 141 141 140 141 140 140 140 139 139 137 138 136 136 136
134 134 134 136 134 137 137 136 135 136 136 135 135 135 135 135
134 134 134 134 133 133 133 132 133 133 132 129 128 131 130 130
130 129 128 128 127 126 126 122 122 124 124 123 123 122 119 122
123 122 122 121 120 118 114 109 89 26 0 0 0 0 0 6
0 0 6 6 7 5 1 2 4 4 3 13 105 116 116 119
138 141 141 119 129 120 131 134 136 111 34 27 31 41 98 107
140 143 143 142 143 142 136 126 114 125 143 141 140 141 141 141
141 141 141 141 141 140 140 140 140 140 140 140 139 137 138 138
137 135 134 133 136 138 136 137 137 136 137 136 136 136 135 135
134 134 133 133 133 132 132 133 132 132 132 130 129 131 132 131
131 131 131 130 129 128 128 123 121 125 125 125 125 124 123 124
124 123 123 121 121 118 117 112 106 68 9 5 17 18 17 17
0 0 2 7 8 9 6 2 3 4 6 84 112 120 120 123
138 142 141 119 130 114 127 139 137 111 31 26 28 38 90 81
91 107 113 116 113 102 93 95 95 122 142 141 141 141 141 141
141 141 141 141 141 141 140 140 140 140 140 139 139 139 139 139
139 139 138 138 138 138 138 138 138 137 137 137 136 137 136 135
135 135 134 134 133 134 133 132 133 133 133 132 128 131 132 132
131 131 131 131 131 130 130 123 121 128 129 128 128 126 124 125
125 125 124 124 123 120 120 114 106 106 54 12 21 26 26 24
0 0 0 3 8 10 8 4 4 6 27 112 117 120 133 126
129 140 142 122 133 121 130 139 138 110 30 27 29 35 82 90
81 91 95 96 92 90 92 96 96 118 143 142 142 142 141 141
141 140 140 140 140 140 140 140 140 139 139 139 139 138 137 139
138 138 138 138 137 138 138 138 136 137 137 137 137 136 136 136
135 135 135 135 134 133 133 133 133 133 133 132 131 132 133 132
132 132 131 131 131 130 130 122 118 129 129 128 128 126 125 128
127 126 125 125 125 124 123 121 110 107 88 20 1 3 4 4
0 0 0 0 6 8 6 3 6 11 91 121 121 130 132 126
130 134 142 121 136 125 127 139 136 105 28 26 28 31 51 133
107 97 97 97 90 91 95 98 96 120 142 141 141 141 140 140
141 140 141 140 141 140 141 140 139 139 140 139 139 139 139 139
138 137 138 138 138 137 138 137 137 136 137 136 136 134 134 135
134 134 134 134 134 133 133 133 133 133 133 133 131 131 132 132
132 132 131 130 131 131 130 121 118 125 129 129 129 125 125 126
126 126 126 125 125 124 124 121 117 109 100 39 0 0 0 0
0 0 0 0 1 6 3 0 1 45 125 120 139 133 130 131
136 134 139 124 137 126 118 139 128 98 27 26 29 29 40 128
132 135 140 135 94 95 98 98 97 120 142 141 141 142 141 141
140 141 139 139 139 140 140 140 140 138 139 139 138 139 140 138
139 139 139 138 138 138 138 137 137 137 137 136 136 135 135 135
134 135 135 134 133 133 133 133 133 133 133 133 132 132 132 132
132 132 132 132 131 131 131 123 115 124 130 129 129 126 126 128
127 127 127 125 125 125 123 123 123 115 118 88 21 0 0 0
0 0 0 0 0 0 0 0 3 105 123 121 141 141 130 129
137 132 134 127 137 134 123 136 123 97 24 25 29 29 37 126
140 134 141 138 99 96 98 99 96 121 142 141 141 141 140 140
141 136 138 140 140 140 140 140 140 139 139 139 139 139 139 138
138 138 137 137 137 138 137 137 137 137 136 135 136 136 135 135
134 134 134 134 133 133 133 133 133 132 132 132 132 131 132 132
131 131 131 131 131 131 130 123 114 125 130 130 130 127 127 129
128 128 127 126 126 125 125 124 123 115 115 107 47 1 0 0
0 0 0 0 0 0 0 0 36 126 122 126 142 142 135 130
134 142 136 121 135 134 118 130 127 96 22 27 27 29 34 116
140 139 142 137 99 96 97 98 95 119 140 141 141 142 140 139
139 138 136 140 140 140 140 140 139 139 139 139 139 139 139 138
138 138 138 138 136 136 138 137 137 137 137 136 136 135 136 135
135 135 135 134 133 133 133 134 133 133 132 133 133 128 129 132
132 132 132 131 131 131 131 126 115 124 130 129 128 128 129 129
129 128 128 128 127 126 126 125 122 117 119 120 85 16 0 0
0 0 1 0 0 0 0 0 91 128 121 124 139 142 140 138
140 142 140 119 133 137 114 123 128 95 20 26 28 30 34 113
137 139 142 135 96 94 96 97 95 116 140 140 141 141 140 140
140 137 138 140 140 140 139 140 140 139 139 139 139 139 139 138
138 138 139 138 137 137 137 137 137 136 137 137 137 136 135 134
134 134 134 134 134 133 134 133 133 133 132 132 132 131 130 132
132 132 131 131 131 131 131 124 114 121 126 129 129 126 128 129
129 129 129 127 127 127 127 126 125 120 118 120 107 39 0 0
