P2
128 120
145
35 38 46 48 48 45 40 34 34 33 33 32 32 32 32 32
31 31 30 30 30 29 29 29 28 28 28 27 26 25 25 25
24 24 24 23 23 22 22 21 21 21 20 20 20 19 19 18
18 19 19 20 24 24 24 22 16 17 16 22 21 21 21 20
19 20 19 19 19 16 20 20 22 22 23 22 23 23 23 22
23 23 23 24 24 24 24 24 25 25 26 26 26 26 26 26
27 27 26 27 27 28 27 28 28 29 28 28 29 29 29 29
29 29 28 29 28 29 30 29 29 29 29 29 29 28 29 29
5 11 20 28 35 45 45 34 33 33 33 32 33 32 32 32
31 31 31 30 29 30 29 28 28 28 27 27 26 27 26 25
25 25 24 24 23 23 22 22 21 21 21 20 20 19 19 19
19 19 20 22 25 25 25 23 17 17 16 21 22 21 21 21
20 20 20 20 19 17 20 20 22 22 22 23 23 23 24 24
24 24 25 24 24 25 25 25 25 25 25 26 25 26 27 26
27 27 27 28 28 28 28 29 29 30 29 29 29 29 29 29
28 29 29 29 29 29 29 29 29 28 29 29 29 29 29 29
0 0 0 0 1 36 45 34 34 34 33 33 33 32 32 31
31 31 30 30 30 30 29 29 28 28 28 27 27 26 26 26
25 25 24 24 24 23 23 23 22 21 21 21 21 20 20 19
19 19 20 22 25 25 25 24 16 18 18 20 23 22 22 21
21 22 19 20 20 17 20 19 23 23 23 24 25 24 24 24
25 24 25 25 24 25 26 26 26 26 27 26 26 26 27 27
27 27 28 28 27 28 29 29 29 30 29 29 29 29 30 30
29 29 29 29 29 30 30 30 30 29 29 29 29 29 29 29
0 0 0 0 0 35 45 35 33 34 33 33 32 32 32 32
31 31 31 31 30 30 30 28 28 28 27 27 28 27 26 26
26 25 24 24 24 23 23 23 22 22 22 21 21 20 20 20
20 20 21 22 26 26 25 25 17 18 19 20 23 23 22 21
21 23 20 20 20 17 21 21 24 24 24 24 25 25 25 25
25 25 25 25 26 26 26 27 27 26 27 27 27 26 27 27
28 27 28 29 29 29 30 29 29 29 29 28 28 28 28 29
29 29 29 29 29 29 30 29 29 29 30 29 29 29 29 29
2 5 0 0 0 33 45 34 33 33 33 32 33 32 32 32
31 31 30 31 30 29 29 29 28 28 28 28 28 27 26 26
25 24 25 24 25 24 23 23 22 23 22 22 21 21 20 19
20 20 20 22 25 26 25 25 17 18 21 20 24 24 23 22
21 22 21 21 21 18 21 22 24 24 24 25 25 25 25 25
25 25 25 26 25 26 26 26 26 27 27 28 27 27 28 28
27 28 29 28 28 28 28 27 27 27 27 29 29 29 29 30
29 30 28 28 29 29 29 29 29 29 29 29 29 29 28 29
6 5 0 0 0 32 44 35 34 34 33 33 32 32 32 32
32 31 31 31 31 30 30 29 29 29 28 27 27 27 27 26
26 25 26 25 25 24 24 24 23 23 22 21 21 21 21 21
20 20 21 23 26 26 26 26 18 19 23 19 23 24 23 23
22 23 21 21 21 19 21 22 25 24 25 26 26 26 26 26
25 26 25 26 26 26 27 27 27 27 27 27 27 27 28 28
28 28 29 29 28 28 29 29 30 30 30 29 30 29 30 30
29 30 29 28 29 29 30 30 30 29 30 29 29 30 29 29
0 2 0 0 0 32 44 35 34 33 33 33 33 33 32 33
32 31 30 31 30 30 30 29 29 28 28 28 28 27 27 26
26 25 26 25 25 24 24 24 23 23 23 22 22 21 21 21
21 21 21 23 26 26 27 26 18 18 24 18 23 24 24 23
22 22 22 22 21 19 21 22 25 25 25 26 26 26 26 26
26 26 26 26 26 27 27 27 27 27 27 27 27 27 27 27
28 28 29 29 30 30 30 29 30 29 29 30 30 30 30 30
30 31 30 29 29 30 29 29 29 29 29 29 29 28 28 29
0 2 6 0 0 32 44 34 34 33 32 32 32 32 32 32
32 31 31 30 30 30 30 29 29 29 28 28 28 27 27 26
26 26 25 25 25 25 24 24 24 23 22 22 22 21 21 21
21 21 22 24 27 27 28 27 20 20 25 18 24 24 23 23
23 21 22 21 22 20 21 23 26 26 26 26 26 26 26 26
26 26 27 27 27 27 27 27 28 27 27 27 27 27 28 28
28 29 30 30 30 30 30 30 30 29 30 30 30 30 30 29
30 30 29 29 29 29 29 29 29 30 29 28 30 29 29 29
0 1 3 0 0 31 43 34 33 33 33 33 33 33 32 32
31 31 31 30 30 30 30 29 29 29 29 28 28 28 28 27
27 27 27 26 26 25 24 24 24 23 23 23 22 22 22 21
21 22 23 23 27 28 28 26 19 19 26 19 25 25 25 24
24 21 22 22 22 20 22 22 25 26 26 26 27 26 26 27
27 27 27 27 27 27 27 27 28 28 28 28 28 28 29 29
29 29 30 30 30 30 30 30 30 30 30 29 30 30 30 30
30 31 30 30 29 29 30 29 29 29 29 29 29 29 29 29
0 0 1 2 4 33 43 35 34 33 33 33 32 32 32 31
31 31 31 31 31 30 30 30 30 29 28 29 28 27 27 27
27 26 26 26 25 26 25 25 24 24 24 23 23 22 22 22
22 22 23 24 27 28 28 27 20 20 28 20 24 25 25 24
24 22 23 22 23 20 22 24 26 27 27 27 27 27 27 27
26 27 26 27 28 27 28 28 28 28 29 28 28 29 29 29
29 29 31 30 30 30 30 30 31 30 31 30 30 30 30 29
30 30 30 29 30 29 29 29 29 29 30 29 29 30 29 29
24 18 14 11 14 36 42 34 33 33 33 32 33 32 32 32
31 31 30 31 30 30 30 29 29 29 28 28 28 28 28 27
27 26 26 26 26 25 25 24 24 24 23 23 23 23 22 22
22 22 23 24 28 28 28 28 20 19 27 21 23 25 25 25
24 22 23 22 22 21 23 23 25 26 26 26 26 26 27 27
27 27 28 28 29 27 28 28 28 28 28 28 29 28 29 29
30 30 30 30 29 30 30 30 30 30 30 30 30 30 29 30
29 31 30 30 30 30 30 29 29 30 29 29 29 29 28 28
29 31 33 34 34 37 37 33 33 34 33 32 32 32 32 32
31 31 31 30 30 30 29 30 29 29 29 29 28 27 27 27
26 26 27 26 26 25 25 25 25 24 24 24 23 23 23 22
22 23 24 24 28 28 28 27 20 19 28 22 23 25 25 24
24 22 23 22 22 21 22 23 25 26 26 27 28 27 27 27
27 27 27 27 28 28 28 28 28 28 28 29 29 29 30 30
30 29 30 30 30 31 30 30 30 30 30 30 30 30 29 30
29 30 30 29 30 29 29 29 28 28 27 28 29 29 29 29
19 22 25 28 30 32 34 34 34 33 33 32 33 32 32 32
32 32 31 31 30 30 30 30 30 29 29 28 28 28 27 27
27 27 26 26 27 26 25 25 25 24 24 23 23 23 23 22
23 23 23 25 28 29 29 28 21 18 28 24 20 19 16 12
13 11 12 15 19 19 21 23 26 27 27 27 27 27 27 27
27 28 29 28 29 28 29 28 28 28 29 29 29 29 29 29
30 30 30 30 30 30 30 30 30 30 30 30 30 30 30 30
30 30 28 28 28 28 28 28 29 30 30 28 28 29 28 28
11 11 12 14 17 20 24 27 30 32 34 34 33 33 32 32
31 31 31 30 31 30 31 30 30 30 29 29 28 28 28 27
27 27 27 26 26 25 25 25 25 24 25 25 25 24 23 23
23 23 24 25 28 28 28 28 21 18 24 14 3 0 3 8
1 4 7 9 5 5 11 17 25 27 27 27 27 28 28 27
28 28 28 29 29 28 28 28 29 29 29 29 30 30 30 30
30 30 31 30 30 31 31 31 31 30 30 30 29 28 28 29
29 29 29 29 29 29 29 28 30 29 30 28 29 28 28 28
11 11 11 11 11 12 11 12 14 15 18 22 24 27 30 32
32 31 31 31 31 30 31 30 30 30 29 29 29 28 28 28
27 27 27 27 26 26 26 26 25 25 25 24 24 24 24 23
23 23 24 25 29 29 28 26 12 12 6 0 0 3 5 2
1 1 5 4 11 17 14 10 5 14 25 27 27 27 28 27
28 28 29 29 30 29 29 30 30 29 29 29 30 30 30 30
31 31 31 30 30 30 31 31 30 30 30 29 29 30 30 30
30 30 29 30 29 29 29 30 30 30 30 29 29 28 29 29
20 19 18 17 14 13 11 10 11 11 12 12 10 8 14 28
32 32 31 31 31 30 30 30 30 30 30 29 29 28 28 28
28 27 27 27 26 26 26 26 26 25 25 25 25 24 23 23
23 23 23 24 21 12 10 10 0 0 0 0 0 3 1 2
0 1 1 0 0 3 3 10 10 4 4 19 28 28 29 29
29 29 29 29 30 29 29 29 30 29 30 30 30 30 30 30
30 30 30 30 30 30 31 30 30 30 31 30 30 29 30 30
30 30 29 29 29 29 29 29 30 29 30 28 29 28 29 29
39 42 43 40 37 25 17 17 14 11 11 11 10 6 10 26
32 32 32 31 31 29 30 30 30 30 29 29 28 29 28 28
27 27 27 27 29 33 31 28 27 25 25 24 24 24 23 23
23 24 22 16 3 1 3 0 0 0 0 0 1 2 0 1
0 0 0 0 3 5 8 11 14 13 14 3 11 27 29 30
29 29 29 29 30 30 30 29 30 30 30 30 30 30 30 30
29 29 29 29 29 29 30 30 30 30 31 30 30 30 30 30
30 30 29 29 30 30 30 29 29 29 29 28 28 28 29 29
43 43 47 47 45 32 26 32 34 28 26 21 16 10 11 25
32 32 32 32 30 35 35 33 32 31 30 29 29 29 29 28
28 27 27 27 34 40 37 34 33 30 26 25 25 24 24 24
23 21 15 8 0 0 0 0 0 1 6 2 0 0 1 1
4 2 0 0 4 1 2 2 5 15 17 12 4 6 26 29
29 30 29 30 31 30 29 29 29 30 30 30 30 30 30 31
31 30 30 30 30 30 30 30 29 29 31 30 30 30 30 30
30 30 30 30 29 30 29 29 29 29 29 28 29 29 29 28
33 38 42 46 46 35 32 37 40 34 42 42 37 13 12 26
32 32 32 31 32 42 40 39 36 34 33 32 31 29 29 28
27 27 27 27 33 38 36 35 35 34 28 25 24 24 25 24
19 11 5 0 0 0 0 0 0 0 0 0 0 0 0 0
0 3 3 1 0 0 1 8 12 2 1 1 2 0 4 24
29 29 29 29 29 29 29 30 30 29 30 31 30 30 30 30
31 30 31 30 30 30 30 30 30 30 31 30 30 30 30 29
29 29 29 29 29 30 29 30 29 28 29 28 29 29 28 28
4 7 12 17 29 37 35 39 41 43 46 46 43 16 13 29
34 34 33 32 33 42 42 39 37 37 39 39 35 35 34 31
29 29 29 28 30 27 27 29 33 34 30 25 26 25 23 18
7 2 5 2 0 0 0 0 0 0 0 0 0 0 0 0
0 0 0 0 1 1 2 0 0 0 0 2 4 12 8 0
11 26 30 30 30 30 29 30 30 30 31 31 30 31 30 31
31 31 31 30 30 30 31 30 30 30 31 30 30 30 30 31
30 29 30 30 29 29 29 30 29 29 29 29 29 29 29 28
0 0 1 2 11 37 36 39 41 43 45 45 44 19 13 31
36 34 35 34 35 35 30 35 38 41 43 40 27 25 30 33
33 33 34 31 29 15 9 9 10 12 26 26 25 23 16 5
0 4 7 0 0 3 0 0 0 0 1 1 1 0 1 0
0 0 0 0 4 8 0 1 1 0 2 2 4 6 10 12
2 5 22 30 30 30 30 30 30 30 30 31 30 31 31 30
30 30 30 31 31 31 31 30 30 30 31 31 31 30 30 30
30 30 31 30 30 30 29 30 30 30 30 30 29 29 30 29
0 0 10 8 14 36 24 31 36 41 43 43 42 20 14 31
37 31 33 37 40 22 0 6 21 26 29 35 11 0 1 6
12 17 25 29 30 13 1 4 3 0 23 26 25 18 5 0
1 3 0 0 1 2 0 0 0 1 6 1 1 7 17 11
8 2 0 0 0 0 0 0 7 1 0 0 2 6 12 7
4 1 4 21 31 31 31 30 30 31 31 31 31 31 31 31
31 31 31 31 31 31 30 31 31 30 31 31 31 30 29 30
30 30 30 30 30 31 30 31 30 31 30 29 30 28 28 28
0 0 9 9 16 32 1 3 7 14 20 22 35 21 13 26
36 35 34 38 43 25 0 0 7 10 11 27 12 0 0 0
0 0 0 6 29 11 0 0 1 0 23 27 23 6 3 0
2 0 0 0 2 0 0 0 0 7 2 4 4 9 8 15
16 5 5 3 1 1 0 1 1 2 4 0 0 0 4 8
3 1 0 1 21 31 31 30 31 31 31 31 32 32 32 32
31 31 32 31 31 31 31 31 31 31 31 31 31 31 31 30
30 30 30 30 30 30 31 30 30 30 29 29 30 30 30 29
0 0 0 0 13 33 1 0 0 0 0 0 23 23 13 5
8 15 24 32 39 26 0 0 2 3 6 24 15 0 0 0
0 0 0 3 30 7 0 0 0 0 25 27 13 6 1 0
7 0 0 2 1 0 0 0 8 4 0 0 0 1 0 5
12 8 17 18 15 5 0 0 4 5 1 0 0 2 0 0
1 0 2 0 2 26 32 32 32 33 32 32 32 32 32 31
32 32 32 32 32 32 32 32 32 32 33 32 32 32 32 32
31 32 31 31 32 32 32 31 31 31 30 30 30 30 30 29
0 0 1 0 12 33 0 0 0 0 0 0 23 24 12 1
0 0 0 1 5 17 0 0 0 0 1 20 12 0 0 0
0 0 0 2 28 4 0 0 0 0 25 24 4 3 0 4
4 0 0 5 0 0 2 2 12 0 3 2 0 0 0 4
18 16 18 24 25 6 0 0 0 0 0 2 3 1 5 4
11 5 0 0 0 7 31 32 32 32 32 33 32 32 33 32
32 32 33 33 32 32 32 32 32 32 31 31 32 32 33 32
32 32 31 31 32 32 32 31 31 31 30 31 31 31 31 30
9 10 10 0 12 33 1 0 5 6 0 0 23 25 12 1
0 0 0 0 0 11 0 0 0 0 0 23 15 0 0 0
8 3 0 1 27 4 0 0 0 0 22 14 7 0 0 8
1 1 3 6 0 2 1 8 3 0 5 0 0 0 0 1
1 3 11 22 17 7 6 7 5 1 0 3 1 0 0 0
0 0 4 3 0 0 19 33 33 33 33 33 33 32 33 32
33 33 33 33 32 32 33 32 32 32 32 33 33 32 32 32
31 31 32 33 32 32 32 32 32 32 31 32 32 32 32 32
1 3 4 0 11 33 1 0 1 12 0 0 22 24 13 1
0 0 0 0 0 8 0 0 0 0 0 23 18 0 0 1
10 11 7 1 26 4 0 0 0 0 18 4 5 0 0 2
2 0 10 0 0 2 0 6 2 1 3 0 0 0 1 0
0 2 6 9 15 27 18 21 16 3 0 0 0 0 0 5
1 1 1 4 0 0 1 26 33 32 33 33 33 32 33 33
33 34 34 33 33 33 33 33 33 33 33 33 32 32 33 32
31 31 32 32 32 32 32 32 32 33 32 32 32 32 32 32
1 2 0 0 10 31 1 0 0 1 0 0 22 23 12 1
0 0 5 0 0 6 0 0 0 0 0 21 19 0 0 1
10 10 10 1 25 7 0 0 0 0 7 4 1 0 3 4
3 0 6 0 0 0 2 5 1 3 0 0 2 2 0 0
0 2 4 8 11 31 19 30 23 13 12 7 0 0 0 0
0 1 4 3 7 2 0 5 30 31 32 31 32 32 32 32
33 33 33 34 33 33 32 32 32 33 33 32 32 32 32 31
32 31 32 33 33 33 32 33 33 30 29 29 29 30 30 30
0 3 0 0 10 29 0 0 0 0 0 0 22 24 13 2
4 2 2 0 0 6 1 0 0 0 2 22 23 0 0 0
3 8 9 0 24 26 15 9 6 4 2 0 1 1 4 0
0 5 8 0 0 0 1 3 3 5 0 2 10 3 1 3
6 2 5 9 11 22 22 33 35 41 29 24 10 4 0 0
0 0 2 4 1 2 4 0 12 33 33 32 32 32 33 33
33 34 33 34 33 33 33 33 33 32 33 32 33 32 32 31
31 31 32 32 30 31 30 32 30 26 24 22 21 17 15 13
27 25 19 14 21 31 3 0 1 0 0 0 23 22 13 3
3 0 0 0 0 9 2 0 0 0 2 24 35 14 11 8
2 1 4 0 24 40 37 34 34 32 11 0 3 1 8 2
0 8 3 0 0 0 3 2 1 0 0 5 0 0 8 1
4 4 2 5 9 22 26 44 46 44 37 42 41 21 9 8
0 1 1 1 2 0 3 5 1 26 32 33 33 32 33 33
33 33 33 34 33 32 32 31 31 32 31 30 30 30 31 29
29 28 28 26 23 20 17 15 13 12 11 10 10 10 11 11
31 38 40 41 38 45 38 21 27 26 25 22 32 21 13 3
0 0 0 0 0 19 33 23 21 16 10 23 43 26 26 27
25 22 20 19 34 38 35 36 39 31 4 0 2 6 0 5
0 8 0 0 0 2 2 3 1 0 2 0 0 1 3 2
1 1 0 4 10 15 21 40 56 57 59 56 45 37 28 16
10 8 3 3 3 0 2 3 1 10 32 32 32 33 33 32
33 32 33 33 32 31 31 30 30 29 29 28 25 22 21 19
17 15 14 13 13 12 12 13 14 15 15 16 16 17 17 18
14 14 11 11 41 56 47 28 37 43 43 43 41 19 12 3
0 0 0 0 0 23 49 38 41 44 44 43 37 12 12 12
13 15 16 19 24 21 22 27 29 15 0 8 7 5 0 1
1 1 1 0 0 2 1 4 0 1 0 0 0 1 0 0
2 0 0 1 8 15 27 47 64 70 74 76 62 54 40 49
38 18 2 1 9 5 1 3 1 0 24 33 33 32 33 33
32 31 31 30 28 27 31 25 19 18 16 15 15 15 15 16
16 16 17 17 18 19 20 20 21 21 21 22 23 22 22 23
5 4 1 1 43 54 39 28 39 43 44 47 44 20 13 9
4 2 0 0 0 22 43 38 44 48 48 40 31 15 12 11
10 8 7 6 6 6 7 10 19 7 5 12 6 3 3 0
0 0 9 0 4 2 3 5 0 0 0 0 5 0 0 7
2 2 1 3 8 18 35 57 79 89 91 91 74 70 66 68
65 42 13 0 2 2 3 1 9 0 11 35 30 29 27 24
22 20 18 18 16 15 27 23 13 16 17 19 19 20 21 21
22 22 23 23 25 24 25 25 25 25 25 25 26 26 26 27
0 0 0 1 41 48 21 11 21 24 27 31 39 21 14 26
38 35 27 21 17 31 33 37 43 47 49 43 34 18 12 10
8 7 8 7 7 7 8 11 18 6 4 9 5 10 0 0
0 10 9 4 9 0 5 1 0 0 0 1 4 1 1 3
2 7 3 2 9 23 52 67 90 98 104 101 97 93 79 71
67 66 39 8 0 0 1 7 2 3 1 19 19 17 17 17
18 18 19 20 20 20 23 21 17 23 24 25 26 26 26 27
27 27 26 26 27 27 27 28 27 28 28 28 29 29 28 27
0 0 0 1 39 48 16 0 0 0 0 0 23 23 15 28
45 46 44 44 44 45 21 16 24 29 35 34 34 21 12 8
2 2 4 9 10 7 10 13 12 6 7 5 11 3 1 0
1 15 2 4 4 0 2 0 0 0 3 2 1 3 1 2
5 5 7 7 13 33 65 90 96 107 108 109 111 111 102 91
77 68 56 27 5 0 0 5 8 1 0 10 21 22 22 23
24 25 25 26 26 26 27 27 22 27 28 28 29 29 29 29
29 30 29 29 29 29 29 30 29 29 30 30 29 28 29 29
0 0 0 0 35 49 16 0 0 0 0 0 20 25 14 26
44 45 44 45 46 45 12 0 0 2 7 14 32 20 10 4
0 0 0 4 3 0 6 6 8 3 5 2 13 2 0 0
10 6 0 12 1 0 0 1 0 3 4 1 3 0 0 2
3 3 4 5 18 35 72 96 102 110 113 115 116 115 111 103
90 74 72 55 25 2 0 0 5 6 0 4 25 27 28 28
28 29 29 29 30 27 16 13 22 30 31 30 31 31 31 31
31 31 31 30 30 30 29 30 30 30 31 30 30 30 31 29
0 0 0 0 28 46 14 0 0 0 14 19 24 27 20 24
33 34 36 37 41 41 8 0 0 0 0 6 33 19 9 4
0 0 1 0 0 0 0 0 7 2 3 3 4 2 3 1
8 0 2 6 0 0 0 1 0 9 1 2 0 2 4 3
2 4 2 3 19 44 74 96 110 112 117 123 123 118 113 109
106 94 74 67 48 14 0 0 0 3 0 0 22 31 30 31
31 31 31 31 30 26 7 2 17 31 32 33 31 31 31 31
32 32 32 31 32 31 31 31 31 30 31 31 30 30 30 29
0 0 0 0 25 42 11 0 0 0 18 24 22 25 19 20
21 23 29 28 34 40 7 0 0 0 0 1 33 15 3 0
0 1 6 1 0 0 0 0 6 0 0 2 0 1 7 8
0 4 4 1 0 2 2 1 2 6 2 0 2 5 1 0
2 1 1 7 22 51 72 98 114 116 119 121 124 122 116 109
111 103 87 67 60 35 3 0 0 1 0 0 14 32 31 32
32 27 18 12 12 24 8 4 15 30 32 33 32 33 32 32
32 32 32 31 31 31 30 30 30 30 31 31 30 30 29 29
0 0 0 0 26 41 10 0 0 0 5 12 17 21 18 19
21 24 29 30 36 39 7 0 0 0 0 1 33 7 0 0
0 0 7 9 2 0 0 2 2 0 0 0 0 6 9 4
1 9 4 1 1 5 6 0 6 1 0 3 2 1 0 0
3 0 9 11 24 50 77 104 116 117 120 123 125 125 122 120
116 109 101 83 63 51 17 0 0 0 1 0 6 32 30 29
11 2 0 1 3 16 4 0 13 31 33 33 32 32 33 32
32 32 31 32 31 31 30 31 31 30 30 30 30 30 30 29
0 0 0 0 29 42 9 0 0 0 0 0 8 17 16 16
6 10 16 21 26 30 7 0 0 0 0 2 33 7 0 0
0 1 8 12 9 1 0 1 0 0 0 0 1 6 6 0
0 7 2 2 7 9 3 2 1 1 2 3 4 4 2 0
2 10 14 14 28 50 77 106 113 117 122 124 128 127 128 125
124 115 105 92 69 54 32 3 0 0 0 0 0 6 3 3
0 3 0 0 0 2 5 0 14 30 32 33 32 32 32 32
32 32 32 32 32 31 30 31 30 30 30 30 30 29 30 29
0 0 0 0 32 43 9 0 0 1 0 0 10 24 23 15
0 0 0 0 0 8 6 0 0 0 0 2 32 5 0 0
0 8 16 15 9 0 0 0 0 0 0 0 0 2 3 0
0 8 0 4 7 9 0 2 0 0 2 2 3 3 3 2
5 12 8 17 33 50 80 108 111 118 119 122 128 130 128 122
119 116 106 97 84 58 44 15 0 0 1 0 0 0 0 0
0 13 2 0 0 0 7 0 17 31 33 33 33 32 32 32
32 32 32 32 31 31 30 31 31 31 30 31 30 30 29 30
6 3 2 1 34 42 10 0 0 4 0 0 11 30 25 16
0 0 0 0 0 5 6 0 1 6 0 1 31 4 0 0
0 3 10 10 0 0 0 0 0 0 0 0 0 0 0 0
1 0 0 0 5 5 3 2 2 1 0 0 1 3 3 0
2 4 10 15 25 46 80 106 111 116 116 118 125 126 123 115
114 115 106 96 89 69 49 25 1 0 0 0 0 0 0 0
0 2 0 0 0 0 14 7 23 31 33 33 33 32 32 32
31 32 31 31 31 32 31 31 31 30 30 31 31 30 30 30
29 31 33 27 35 38 17 0 0 6 4 0 9 32 24 16
0 0 3 1 0 4 6 0 8 13 3 1 30 3 0 0
0 0 4 8 0 0 0 0 0 0 0 0 0 0 0 0
0 0 0 0 3 5 3 0 7 3 1 1 1 4 0 4
2 3 11 14 25 45 87 108 109 114 115 117 120 122 121 113
113 110 105 95 86 74 53 31 4 0 0 0 0 0 0 0
0 0 0 0 0 2 23 23 28 33 33 33 33 32 33 32
32 32 32 32 32 31 31 31 31 30 30 31 30 30 31 30
9 11 16 16 22 34 31 22 15 19 21 16 19 33 20 16
0 2 14 7 0 3 12 4 15 16 11 4 30 3 0 0
0 0 3 11 0 0 0 0 0 0 0 0 0 0 0 0
0 0 0 0 5 3 4 0 9 0 1 0 1 1 1 4
2 6 13 14 24 46 85 104 108 111 111 113 117 120 120 115
112 111 102 96 86 79 61 38 11 0 0 0 0 0 0 0
0 2 8 8 8 19 27 28 32 32 32 33 33 32 32 32
32 32 33 32 32 31 31 32 31 30 30 29 29 26 29 30
0 0 7 8 17 36 32 21 21 28 34 38 40 38 21 14
0 2 13 6 0 3 33 33 37 35 35 35 39 5 0 0
0 0 4 13 0 0 0 0 0 0 0 0 0 0 0 0
0 0 0 1 1 4 3 0 0 0 4 0 1 2 3 0
3 8 12 17 26 43 83 105 113 112 111 110 117 119 118 110
109 111 103 92 88 81 66 44 17 0 0 0 0 0 0 0
0 15 32 31 30 29 29 30 33 33 33 34 33 33 33 33
32 32 32 31 31 31 32 31 30 30 30 30 30 28 30 29
0 1 4 10 23 37 29 3 0 3 8 21 42 38 21 16
2 0 1 0 0 3 35 38 42 40 44 49 46 21 17 14
9 8 13 19 8 6 4 0 0 0 0 0 0 0 0 0
0 0 0 0 0 2 1 0 0 2 2 1 4 0 2 2
7 8 16 20 23 47 89 110 113 111 110 110 115 115 115 109
105 106 98 93 86 77 66 47 22 1 0 0 0 0 6 1
0 14 33 32 32 31 31 32 32 32 32 32 32 32 33 32
31 32 32 32 32 32 31 31 30 30 31 30 29 29 30 29
13 26 11 3 21 38 29 1 0 13 16 22 41 34 21 19
13 0 0 0 0 2 33 37 39 39 43 48 46 35 32 32
29 29 29 28 24 21 13 0 0 0 0 0 0 0 0 0
0 0 0 0 0 1 0 0 0 2 2 3 4 1 2 1
5 7 13 16 27 52 95 110 112 114 110 109 115 115 113 112
110 107 101 94 88 81 70 56 30 5 0 0 0 0 0 0
0 12 33 33 31 30 31 32 32 32 33 33 33 33 33 32
32 31 32 31 31 31 31 30 30 30 30 31 30 29 30 29
26 28 4 0 19 40 29 0 0 9 24 29 40 28 20 20
10 0 0 0 0 2 33 33 35 35 34 32 31 33 34 35
34 33 33 33 31 32 23 1 0 0 0 0 0 0 0 0
0 0 0 0 0 2 0 0 0 1 2 8 0 0 1 6
5 8 13 18 39 68 97 109 113 115 113 111 114 115 117 120
112 108 104 97 90 83 71 62 38 15 4 0 1 0 0 0
0 10 34 33 33 32 34 33 33 33 33 33 33 33 32 32
32 31 32 32 32 31 32 31 31 31 31 30 30 30 29 28
21 32 2 0 21 42 29 0 0 0 6 27 41 26 21 21
10 2 2 1 0 3 35 33 33 33 33 33 34 35 36 39
43 39 34 33 34 40 30 4 0 0 0 0 0 0 0 0
0 0 0 0 0 1 0 0 0 0 3 3 0 4 2 4
4 11 14 26 48 82 100 111 114 115 113 115 118 120 121 121
113 107 105 96 90 83 72 66 45 24 6 0 0 0 0 0
0 9 34 33 34 34 34 34 34 33 33 33 33 32 33 32
32 32 32 31 32 31 31 30 31 30 30 30 30 30 29 29
9 15 1 0 22 42 30 0 0 0 0 21 42 27 22 21
30 33 30 28 28 28 42 36 35 35 35 37 40 41 38 41
47 43 34 31 32 40 38 8 0 0 0 0 0 0 0 0
0 0 0 0 0 0 0 0 0 0 0 0 0 3 1 1
11 12 26 41 61 91 106 115 114 114 116 118 122 125 121 117
111 110 106 96 88 82 73 67 53 34 14 1 0 0 1 0
0 7 33 33 34 34 34 34 33 33 33 33 33 33 32 32
32 32 32 32 32 31 31 32 31 31 30 30 30 30 29 28
0 0 0 0 21 43 29 0 0 0 0 21 44 28 23 23
41 50 48 49 50 50 49 39 33 33 33 37 44 45 40 40
41 38 35 32 29 33 28 8 0 0 0 0 0 0 0 0
0 0 0 0 1 0 0 0 0 0 1 0 2 2 1 7
14 19 39 43 81 95 114 118 114 116 115 119 122 118 109 106
96 97 99 92 86 80 74 72 58 41 19 0 0 0 0 2
1 7 25 33 34 33 34 33 34 34 34 34 33 33 33 33
33 33 32 32 33 32 32 32 31 31 31 31 31 30 30 30
0 0 0 0 19 43 28 0 0 0 0 21 44 28 23 23
38 46 46 47 47 48 49 26 14 10 9 13 23 43 40 29
15 18 20 22 31 26 7 0 0 0 0 0 0 0 0 0
1 19 0 0 0 0 0 0 0 0 0 3 2 4 4 13
23 28 50 61 94 103 117 117 118 117 113 111 105 101 101 84
72 71 81 83 81 79 75 73 60 44 13 0 0 0 0 1
0 0 8 14 23 33 36 35 35 35 35 34 34 34 34 33
33 32 33 33 34 32 33 33 32 33 33 32 31 31 30 29
0 0 0 0 19 44 28 0 0 0 0 18 42 27 22 23
26 29 29 30 30 31 33 14 0 0 0 0 6 39 36 10
0 1 3 14 34 27 3 0 0 0 0 0 0 0 0 0
33 27 0 0 0 0 0 0 0 0 3 0 0 2 5 21
21 34 49 83 98 111 115 116 119 118 105 99 88 92 83 71
51 42 45 57 69 72 73 69 56 28 2 0 0 0 0 1
0 0 7 4 13 34 36 36 35 35 35 35 35 34 34 34
33 33 33 33 34 33 33 32 32 33 32 32 32 31 30 29
0 0 0 0 18 44 29 0 0 0 0 16 43 28 21 22
29 34 34 33 32 32 33 15 2 0 0 0 14 39 27 1
0 0 0 10 35 28 3 0 0 0 0 0 0 0 0 9
58 8 0 0 0 0 0 0 0 1 0 0 0 1 6 22
24 45 47 94 100 111 114 116 114 111 102 85 79 78 67 51
40 33 27 31 45 62 68 64 41 13 20 2 0 0 0 1
0 0 7 5 7 34 36 36 36 35 35 35 34 34 34 33
34 34 33 32 33 32 33 33 33 32 32 32 31 29 28 27
9 11 15 19 31 42 28 0 0 0 0 17 46 29 20 22
32 37 38 37 37 37 37 17 3 0 0 0 9 35 19 0
0 0 0 8 34 26 2 0 0 0 0 0 0 0 0 31
42 0 0 0 0 0 0 0 0 0 0 0 0 0 9 27
34 43 69 88 106 110 115 113 112 101 94 83 80 70 61 57
48 46 46 40 36 46 60 53 29 43 38 2 0 0 0 0
0 0 7 7 5 32 36 36 36 35 35 34 34 34 34 33
33 32 32 32 33 33 33 32 32 32 31 32 29 27 27 25
37 38 41 42 42 34 25 15 12 10 7 21 42 28 21 25
31 35 37 37 38 39 39 18 0 0 0 5 5 32 17 0
0 0 0 8 33 26 3 0 0 0 0 0 0 0 0 47
13 0 1 0 0 0 0 0 0 0 0 0 0 1 18 25
38 39 89 101 109 108 113 111 104 100 93 91 82 81 83 76
67 57 47 47 46 54 59 41 47 50 39 15 0 0 0 0
0 0 6 6 5 30 36 35 35 34 34 34 33 33 33 33
33 32 32 32 32 32 32 32 32 31 31 30 30 28 27 27
38 40 40 39 39 37 37 37 36 35 33 34 37 34 34 34
35 34 36 36 36 36 36 28 6 0 0 4 2 28 15 0
0 0 0 7 34 26 5 0 0 0 0 0 0 0 0 36
6 3 13 1 1 0 0 1 0 0 0 0 0 4 22 27
36 49 96 114 112 106 110 107 104 98 93 93 92 98 99 85
66 51 40 47 57 68 56 41 46 42 35 18 2 0 0 0
0 0 7 8 12 27 35 35 34 35 34 34 34 33 33 34
32 29 27 30 32 32 31 32 31 31 30 29 29 27 26 25
33 37 37 36 36 36 37 37 36 36 36 36 36 35 35 35
35 35 35 35 34 34 34 33 13 0 0 4 3 28 14 0
0 0 0 3 32 27 5 0 0 0 0 0 0 0 0 35
9 28 22 12 4 0 1 0 0 0 0 0 0 12 34 43
40 76 114 117 116 113 107 102 97 91 92 95 93 83 71 60
43 33 38 50 65 71 51 42 41 14 13 10 0 0 0 4
3 1 4 10 13 25 34 35 35 34 35 34 34 33 33 33
17 2 6 3 23 32 31 31 31 30 30 29 28 27 26 25
32 37 36 36 35 35 35 35 35 35 34 34 34 34 33 33
33 34 33 32 33 32 33 32 14 0 0 0 0 26 16 0
0 0 0 1 31 27 4 0 0 0 0 0 0 0 0 37
36 60 46 20 2 1 17 6 0 0 0 0 2 27 45 62
75 104 117 121 120 113 106 100 95 95 90 72 58 52 51 39
10 18 47 65 74 73 54 52 48 3 7 3 0 0 0 1
0 0 7 10 10 26 35 35 34 34 34 34 34 33 33 32
13 0 1 0 18 32 32 31 31 30 29 28 28 27 26 26
31 36 33 24 20 19 18 16 16 15 13 13 12 11 11 10
10 10 10 9 9 15 28 32 17 0 0 0 0 23 19 0
0 0 0 3 31 29 15 9 9 1 0 0 0 0 0 61
75 92 58 15 0 14 29 11 2 3 0 0 12 46 71 87
96 112 118 119 117 115 113 106 96 83 62 54 47 52 59 36
14 26 67 89 96 89 61 55 36 10 12 9 10 10 12 12
13 15 19 20 19 22 23 25 21 23 32 34 34 33 33 32
9 0 0 0 11 32 31 30 29 29 29 29 28 28 27 28
28 35 29 6 0 0 0 0 0 0 0 0 0 0 0 0
0 0 0 0 0 6 32 33 24 7 7 14 14 24 30 21
20 24 26 29 40 33 32 36 35 17 1 0 0 0 0 51
99 102 61 14 3 14 25 9 12 11 0 5 32 72 99 101
108 116 116 117 115 118 120 117 102 80 84 93 82 63 54 44
40 47 88 104 113 106 67 40 29 16 32 19 22 27 28 23
26 28 26 24 19 14 38 51 14 17 31 34 34 31 30 29
8 0 0 0 9 32 31 30 29 29 30 28 28 28 28 28
27 35 31 10 0 0 0 0 0 0 0 0 0 0 0 0
0 0 0 0 0 5 33 35 32 32 33 36 34 31 34 43
41 41 45 48 48 36 29 37 39 35 4 0 0 0 0 30
107 107 83 21 8 9 39 20 36 15 8 22 52 93 105 106
108 117 119 120 118 118 123 126 119 108 101 94 90 82 61 45
44 58 93 108 115 117 88 46 43 31 22 19 25 29 46 55
65 72 74 55 21 23 87 115 19 14 30 33 31 11 4 4
1 0 0 0 7 31 30 29 29 28 29 28 29 29 29 28
26 35 32 14 0 0 0 0 0 0 0 0 0 0 0 0
0 0 0 0 0 3 32 35 32 35 38 39 33 26 26 36
38 38 40 42 42 35 26 31 33 30 8 0 0 0 0 10
103 111 105 33 11 11 56 58 66 27 31 45 70 95 103 104
106 114 118 121 120 119 123 128 123 116 105 97 83 73 64 52
55 77 99 110 116 119 105 59 48 44 23 21 28 31 58 77
83 86 86 60 23 50 126 112 69 16 28 33 25 0 0 0
0 0 0 0 6 30 30 30 29 28 29 29 30 29 29 28
26 35 33 18 0 0 0 0 0 0 0 0 0 0 0 0
0 0 0 0 0 1 30 36 31 30 33 36 34 27 23 21
21 21 23 26 27 29 28 31 31 29 17 1 0 0 0 0
80 112 110 62 13 11 68 89 86 66 61 67 82 95 97 98
104 111 115 120 121 119 123 126 128 120 108 97 86 69 58 62
77 94 106 119 118 121 116 77 55 56 20 27 31 34 33 39
40 34 34 31 27 33 48 31 29 22 26 33 27 1 0 0
0 0 0 0 4 29 29 29 29 28 30 30 30 30 29 27
24 35 33 20 1 0 0 0 0 0 0 0 0 0 0 0
0 0 0 0 0 0 27 36 30 23 21 25 25 22 24 21
21 23 29 33 31 34 35 38 40 37 27 7 0 0 0 0
48 113 105 96 68 24 76 96 88 90 82 80 85 92 95 95
101 106 114 119 121 120 122 127 132 124 111 100 90 80 73 79
95 103 113 122 124 123 119 96 64 62 15 30 34 33 25 24
30 19 19 22 25 25 25 23 25 22 25 34 33 11 0 0
0 0 0 0 3 23 31 30 30 30 31 30 30 31 29 28
23 33 33 23 2 0 0 0 0 0 0 0 0 0 0 0
0 0 0 0 0 0 24 36 30 10 1 2 5 10 25 26
32 34 42 43 25 23 24 26 33 40 32 20 2 0 0 0
21 108 106 110 122 84 41 89 87 91 86 82 86 89 91 90
97 103 109 116 120 121 122 127 131 130 120 105 95 85 81 88
97 100 120 125 129 122 119 108 74 63 14 17 30 33 25 23
22 19 18 20 26 26 25 24 23 21 22 32 29 25 1 0
0 0 0 0 0 10 31 30 30 30 31 30 30 30 30 28
23 33 34 24 3 0 0 0 0 0 0 0 0 0 0 0
0 0 0 0 0 0 20 36 30 9 0 0 0 9 27 26
33 31 32 37 5 1 1 1 13 40 35 27 9 0 0 0
4 92 117 110 119 123 81 86 87 90 87 85 86 88 90 92
95 101 106 112 119 123 122 124 129 132 128 111 98 89 85 89
93 96 119 125 123 120 117 116 87 61 6 4 27 33 26 22
18 19 18 21 27 26 26 24 23 19 18 20 3 2 4 0
0 0 0 0 0 8 30 30 30 30 31 31 30 29 28 27
22 32 34 26 5 0 0 0 0 0 0 0 0 0 0 0
0 0 0 0 0 0 16 36 29 10 0 0 0 6 28 23
31 17 6 28 5 0 0 0 8 37 35 29 14 0 0 0
1 54 121 118 112 121 115 101 85 89 86 84 84 88 88 91
91 98 102 108 114 121 121 122 126 131 131 116 103 94 89 89
90 98 115 121 121 122 123 123 98 58 3 5 31 31 24 21
19 20 18 21 27 27 26 25 24 20 5 1 0 0 3 0
0 0 0 0 0 1 23 29 29 29 29 30 29 27 27 25
21 31 33 26 6 0 0 0 0 0 0 0 0 0 0 0
0 0 0 0 0 0 14 36 30 12 0 0 0 7 28 23
31 14 2 25 6 0 0 0 4 34 35 28 18 2 0 0
0 12 102 123 113 119 116 109 86 87 87 85 85 88 85 89
88 93 98 103 110 114 119 119 122 126 124 117 108 100 94 91
89 94 103 113 121 121 122 118 103 62 15 16 34 31 26 19
16 19 16 20 26 25 25 24 24 21 2 0 1 5 0 0
0 0 0 0 0 0 14 27 27 28 28 28 28 26 25 24
20 30 33 27 7 0 0 0 0 0 0 0 0 0 0 0
0 0 0 0 0 0 11 35 30 14 0 0 0 7 28 23
31 15 1 24 8 0 0 0 2 32 34 29 19 2 0 1
0 0 52 116 119 118 117 114 84 87 86 87 85 85 87 89
89 92 98 99 105 111 115 116 120 120 122 123 115 102 95 89
85 85 98 114 118 117 118 126 104 70 15 14 36 30 23 12
7 18 17 21 26 25 25 25 24 22 1 0 2 7 0 0
0 0 0 0 0 0 1 7 6 22 29 28 28 27 26 24
20 29 33 27 8 0 0 0 0 0 0 0 0 0 0 0
0 0 0 0 0 0 9 34 30 16 0 0 0 6 28 23
32 16 1 22 10 0 0 0 2 30 36 30 23 4 0 0
0 0 11 92 114 122 119 108 78 86 83 86 85 82 86 87
87 92 96 100 104 107 110 113 116 117 121 124 119 101 92 88
81 81 104 106 105 113 119 121 102 81 28 18 36 25 17 4
6 15 16 21 26 26 25 25 25 23 4 3 8 9 4 3
2 2 1 1 1 0 0 0 1 21 29 28 28 27 26 25
19 29 33 28 9 0 0 0 0 0 0 0 0 0 0 0
0 0 0 0 0 0 7 34 31 18 0 1 1 3 27 24
32 19 1 20 15 1 0 1 1 28 35 28 26 9 0 0
0 0 2 39 95 109 113 86 62 83 81 85 84 82 84 86
86 91 94 96 99 105 111 112 114 114 115 118 112 100 91 84
75 73 105 112 110 117 119 124 105 85 46 26 34 24 16 3
5 14 16 22 26 26 25 25 26 24 9 9 11 11 8 6
4 3 2 5 7 9 11 13 18 31 36 37 36 36 35 34
19 28 32 28 10 0 0 0 0 0 0 0 0 0 0 0
0 0 0 0 0 0 6 34 31 19 0 3 8 4 28 26
33 25 6 18 15 6 7 2 0 23 33 28 26 16 0 0
0 0 4 24 58 80 79 34 60 79 81 82 82 82 81 84
86 92 98 101 103 105 106 108 110 111 112 113 108 102 88 77
67 66 116 121 124 119 111 113 104 85 44 28 33 24 16 5
12 15 16 22 26 26 25 25 26 24 6 1 2 1 0 0
0 0 0 29 38 39 39 39 40 40 41 40 40 40 39 38
18 26 32 28 11 0 0 0 0 0 0 0 0 0 0 0
0 0 0 0 0 0 5 33 31 22 5 8 18 14 31 28
34 26 13 16 15 7 10 4 3 21 31 27 25 14 0 0
0 0 5 29 58 71 69 57 73 79 82 83 84 82 84 84
88 91 99 104 106 106 103 103 106 108 109 111 106 96 82 69
62 60 109 115 109 100 90 94 92 73 26 33 32 24 20 12
18 17 18 26 28 26 25 25 26 24 6 0 0 0 0 0
0 0 4 38 38 38 38 38 38 38 37 38 37 37 37 37
18 26 32 29 12 0 0 0 0 0 0 0 0 0 0 0
0 0 0 0 0 0 4 32 31 28 33 35 38 39 42 32
34 20 14 17 23 18 18 16 17 20 24 25 26 14 0 0
0 0 4 24 56 70 68 70 76 78 82 85 85 84 86 87
91 92 98 102 106 105 101 102 106 108 107 108 104 91 74 70
77 50 88 88 60 32 36 70 69 34 18 35 31 28 21 18
16 19 19 28 29 26 25 25 25 23 6 0 0 0 0 0
0 0 11 32 30 32 33 34 33 31 26 30 30 28 33 37
16 25 32 29 13 0 0 0 0 0 0 0 0 0 0 0
0 0 0 0 0 0 4 31 31 30 46 48 47 47 48 38
33 16 5 15 25 21 21 21 21 20 23 25 24 18 3 0
0 0 10 28 56 69 70 73 75 79 83 83 84 86 85 89
92 94 100 102 105 105 107 106 103 104 103 104 97 84 70 76
91 71 65 61 62 22 26 59 22 9 20 38 30 29 21 18
16 19 19 27 27 25 24 25 25 24 7 0 0 0 0 0
0 0 5 9 6 14 23 31 25 24 21 20 23 25 33 37
16 23 31 29 13 0 0 0 0 0 0 0 0 0 0 0
0 0 0 0 0 0 3 30 31 28 37 37 36 34 33 29
30 16 0 11 25 23 24 23 23 23 23 24 24 21 6 0
0 1 20 41 58 69 72 73 75 78 80 82 84 87 89 90
92 94 100 103 104 107 108 109 107 103 101 97 88 75 67 83
95 104 107 100 96 66 48 50 5 7 25 37 29 28 20 18
16 19 20 27 27 26 25 26 25 24 8 0 0 0 0 0
0 0 0 0 0 5 24 31 32 31 30 31 32 31 34 36
15 23 31 29 14 0 0 0 0 0 0 0 0 0 0 0
0 0 0 0 0 0 2 30 30 24 18 17 16 16 16 16
28 15 0 9 26 24 24 24 23 23 23 23 23 23 13 0
0 2 24 47 57 70 73 74 75 77 80 82 85 87 91 91
94 94 100 103 104 106 107 106 105 100 98 91 80 67 74 92
99 102 102 97 84 67 53 29 10 14 30 34 29 28 20 18
15 19 21 27 27 26 26 25 25 25 8 0 0 0 0 0
0 0 0 0 0 2 31 35 35 35 35 35 34 33 34 34
16 22 31 29 14 0 0 0 0 0 0 0 0 0 0 0
0 0 0 0 0 0 2 29 30 24 18 16 16 15 16 16
30 20 6 15 26 22 23 22 22 22 22 22 23 22 18 0
0 3 29 51 55 70 76 76 75 75 79 82 84 85 91 93
95 98 100 102 104 105 106 102 100 99 93 85 73 68 88 95
97 96 95 91 79 69 59 14 21 25 34 32 28 27 15 15
15 19 22 28 27 26 26 27 26 25 8 0 0 0 0 0
0 0 0 0 0 0 27 35 34 35 33 33 34 32 34 33
15 21 30 28 15 0 0 0 0 0 0 0 0 0 0 0
0 0 0 0 0 0 3 31 31 24 21 20 19 19 17 18
32 30 28 33 29 21 22 22 21 21 21 22 22 22 19 1
0 8 41 54 56 69 77 78 75 74 78 80 83 85 89 94
97 102 104 104 104 103 103 103 101 98 90 79 69 83 91 93
91 98 101 101 87 72 65 48 81 25 37 31 29 26 14 13
15 17 21 26 27 27 26 26 26 23 9 0 0 0 0 0
0 5 0 0 0 0 14 24 27 29 22 23 24 21 22 25
15 21 30 28 15 0 0 0 0 0 0 0 1 1 2 3
5 6 7 9 11 13 17 30 28 24 23 22 22 21 19 17
25 23 23 25 23 21 22 21 21 21 21 20 21 21 19 13
14 23 54 59 56 70 79 80 76 74 76 77 81 83 85 93
98 101 102 104 103 101 99 99 100 94 84 72 73 78 84 87
95 109 105 82 69 70 47 95 130 36 37 29 28 24 17 12
8 17 22 25 26 27 27 26 26 24 9 0 0 0 0 0
3 9 0 0 0 0 6 25 29 26 24 25 24 20 25 25
14 20 30 28 21 8 9 11 13 15 17 18 20 21 23 23
24 24 25 25 25 25 25 25 25 24 22 21 21 21 19 17
20 16 14 18 19 21 22 21 20 20 21 20 20 20 20 19
20 29 55 61 56 68 80 81 77 76 76 75 78 80 86 93
97 100 103 105 103 100 98 100 99 90 79 75 73 65 73 81
82 69 57 56 55 55 39 88 97 27 38 26 21 16 5 3
5 4 15 18 23 25 26 24 23 25 10 0 0 0 0 0
15 8 0 0 0 0 5 34 35 31 33 34 33 30 33 33
14 20 29 30 29 28 25 27 29 30 28 28 27 27 28 27
27 27 27 26 26 25 25 24 25 23 22 22 21 21 19 19
19 17 15 17 19 21 21 20 20 20 20 19 19 20 19 20
20 33 58 64 59 66 80 82 78 76 74 72 72 74 82 88
94 97 102 103 103 99 99 98 97 89 82 79 68 52 34 41
50 55 52 46 49 52 9 39 25 28 40 17 2 0 0 0
0 0 0 9 29 21 21 22 20 23 12 0 0 0 0 0
18 3 0 0 0 0 0 28 37 36 36 35 35 35 34 33
13 19 29 30 30 29 24 27 30 30 29 28 28 28 30 31
21 16 19 22 20 12 20 21 21 22 23 22 21 21 20 20
20 18 15 16 19 20 21 20 19 19 19 19 19 19 19 19
20 37 60 66 61 64 80 83 80 78 75 72 72 80 81 87
91 96 100 102 101 98 96 95 93 88 82 76 58 56 70 77
85 98 87 73 59 68 74 76 77 76 51 24 13 0 0 0
0 0 0 1 24 14 19 22 12 16 15 5 1 0 0 0
3 0 0 0 0 0 0 8 27 30 29 30 28 29 32 33
11 18 29 29 29 29 25 24 26 26 25 24 24 35 52 35
3 0 0 2 2 0 5 13 14 12 9 7 7 13 20 20
20 18 17 17 19 20 20 19 19 19 19 18 19 19 19 19
19 41 62 69 64 63 80 86 84 80 78 73 69 76 80 86
89 93 97 100 101 97 95 94 94 90 85 72 65 78 89 91
85 74 75 69 62 97 91 85 95 95 60 34 27 0 0 0
0 0 0 0 13 12 17 21 17 16 7 10 5 0 0 0
0 0 0 0 0 0 0 4 11 20 21 22 20 22 31 33
4 7 13 14 12 11 9 8 8 10 13 14 27 60 48 8
0 0 0 0 0 0 0 0 0 0 0 0 0 0 14 21
20 18 17 16 18 19 19 19 19 18 19 18 18 19 19 19
20 44 65 69 67 63 77 86 87 81 75 74 73 76 78 80
88 92 95 97 98 95 94 94 91 89 80 70 81 88 90 87
89 81 71 61 78 99 92 87 93 94 55 4 3 0 0 1
1 1 3 2 7 16 17 7 5 4 0 0 0 0 0 0
0 0 0 0 0 0 0 6 8 22 30 29 29 30 33 34
0 0 0 0 0 0 0 1 1 2 16 19 47 59 20 0
0 0 0 0 0 0 0 0 0 0 0 0 0 0 8 22
20 18 17 17 18 19 19 18 18 19 18 18 18 18 18 20
26 50 65 70 68 64 75 85 88 84 78 75 71 74 75 78
84 88 90 93 93 93 91 89 88 83 75 78 86 85 86 80
73 65 56 57 71 63 63 65 65 67 45 21 21 17 14 15
9 5 8 5 4 5 2 1 1 0 0 0 0 0 0 0
0 0 0 0 0 0 0 1 1 6 31 36 36 35 35 35
0 0 0 0 0 0 3 8 6 4 16 27 55 36 4 0
0 0 0 0 0 0 0 0 0 0 0 0 0 0 14 25
22 21 20 19 19 18 18 18 17 17 18 17 18 18 18 16
20 53 66 70 69 64 73 85 88 87 78 74 73 71 69 74
81 84 87 89 90 89 88 86 85 79 74 78 83 83 80 75
64 57 59 81 129 85 68 50 34 28 16 11 9 5 3 2
0 0 0 0 0 0 0 0 0 0 0 0 0 0 0 0
0 0 0 0 0 0 0 0 0 0 25 36 35 35 35 35
1 1 1 0 0 0 4 10 10 9 5 39 54 12 0 8
15 0 0 0 0 0 0 0 0 0 0 0 0 12 25 25
24 22 21 20 18 18 18 17 18 18 17 17 17 18 18 15
25 58 67 69 69 63 71 81 90 88 83 75 72 71 71 72
74 77 80 82 87 88 85 86 86 79 80 82 83 83 82 75
68 68 65 74 83 31 28 42 42 38 8 0 0 0 0 0
0 0 0 1 0 0 2 0 0 0 0 0 0 0 0 0
0 0 0 0 0 0 0 0 0 0 17 36 35 35 36 35
4 3 2 0 0 1 7 15 15 10 3 46 47 11 22 36
36 7 0 6 3 0 0 0 0 0 0 0 0 7 12 11
10 14 18 18 17 16 16 16 15 15 16 15 15 16 16 18
41 63 69 70 68 64 69 80 90 92 86 77 70 70 69 66
68 71 76 78 81 82 79 83 80 81 84 85 89 92 93 87
81 72 62 84 114 42 26 54 54 47 10 0 2 5 9 15
25 36 18 39 43 33 57 61 65 21 0 0 0 0 0 0
0 0 0 0 0 0 0 0 0 0 10 33 32 32 31 31
4 3 4 6 11 16 17 15 14 4 8 50 28 8 31 40
39 15 3 29 30 13 0 3 7 3 0 0 0 0 0 0
0 2 14 14 14 13 13 12 13 13 14 13 14 27 41 42
54 66 69 71 69 64 66 80 88 94 88 82 71 69 68 64
65 67 67 69 76 76 76 80 79 82 87 91 92 91 93 90
77 64 54 37 20 19 25 49 49 46 82 84 104 114 121 126
128 130 86 132 112 103 127 115 111 51 0 0 0 1 0 0
0 0 0 0 0 0 0 0 0 0 2 26 26 26 26 25
2 3 4 7 14 19 15 5 4 0 13 53 21 4 32 40
39 12 21 44 40 27 3 3 2 0 0 0 0 0 0 0
0 0 11 13 12 11 11 11 11 11 11 12 40 79 39 50
61 68 70 72 69 62 65 78 90 93 93 84 74 66 64 63
64 62 64 65 68 67 71 73 73 71 83 90 93 91 91 85
71 60 55 18 2 17 28 50 48 45 88 82 76 86 93 102
112 117 67 83 78 103 97 66 63 46 2 16 7 20 1 0
0 0 0 0 0 0 0 0 0 0 0 22 26 28 27 26
0 0 1 5 14 19 8 0 0 0 17 57 23 5 24 12
27 28 40 50 38 28 6 5 1 0 0 0 0 0 0 0
0 0 11 13 12 12 11 11 12 13 29 69 109 92 53 60
65 69 69 70 68 62 62 75 89 94 92 89 75 68 61 60
60 63 61 60 60 61 63 67 68 78 85 89 90 88 85 76
66 57 65 89 44 33 29 52 47 44 59 65 66 78 79 97
96 90 54 68 103 107 88 93 87 40 2 14 9 11 3 0
0 0 0 0 0 0 0 0 0 0 0 8 26 28 27 26
0 0 1 5 14 18 6 0 0 0 21 59 28 6 12 2
25 40 51 46 26 27 9 1 0 0 0 0 0 0 0 0
0 0 9 15 15 14 13 22 75 85 107 112 114 104 61 63
64 68 70 72 70 63 61 70 85 96 94 90 83 69 61 57
56 60 59 59 60 58 57 58 60 67 75 80 77 74 75 68
64 58 98 115 113 103 70 62 53 46 61 65 57 73 67 68
56 39 40 53 64 53 36 37 42 19 0 6 7 1 0 0
0 0 0 0 0 0 0 0 0 0 0 1 26 27 25 27
3 2 2 7 14 16 7 6 5 0 19 61 46 15 9 3
30 47 55 30 2 21 7 0 0 0 0 0 0 0 0 0
0 0 8 31 41 62 90 101 108 116 116 116 112 107 70 66
61 65 70 71 70 64 62 67 78 91 99 94 84 73 62 57
55 53 53 58 57 59 58 56 52 54 60 67 67 60 60 60
62 94 112 115 112 103 101 103 102 93 80 46 23 11 17 8
8 10 11 12 25 21 16 14 0 0 2 3 2 11 0 0
0 0 0 0 0 0 0 0 0 0 0 1 27 27 26 28
6 5 6 16 22 23 17 19 13 0 13 53 48 23 3 2
31 48 39 14 0 21 8 0 0 0 0 0 0 0 0 0
6 47 92 119 129 124 113 115 120 118 124 121 112 106 92 63
63 60 71 73 72 67 63 68 76 89 98 99 89 76 67 59
52 48 48 49 50 54 55 54 50 41 46 50 50 48 50 74
111 110 108 114 112 102 101 105 108 111 107 103 88 51 28 27
30 32 30 21 36 36 23 21 0 0 11 5 1 10 7 0
0 0 0 0 0 0 0 0 0 0 0 2 28 29 29 29
6 4 10 27 26 23 19 19 15 0 9 53 54 31 1 4
28 30 10 1 0 3 0 0 0 0 0 0 0 0 21 69
103 114 119 123 124 120 120 120 125 124 131 131 119 111 113 72
66 57 71 73 71 68 66 67 73 88 95 96 95 87 74 63
53 47 44 42 39 37 40 45 48 45 42 52 63 56 57 106
115 107 108 111 110 95 101 107 106 109 111 107 104 100 92 78
58 50 47 22 30 30 30 40 3 0 8 4 1 1 5 2
0 0 0 0 0 0 0 0 0 0 0 3 25 25 29 27
6 2 4 17 26 27 27 24 19 1 4 35 31 16 0 0
3 1 0 0 0 0 0 0 0 0 0 13 46 85 116 129
125 120 120 127 130 128 127 126 136 131 132 131 128 122 121 111
65 63 62 74 73 72 70 68 75 83 94 98 96 90 83 70
53 42 36 29 19 17 17 18 16 22 45 76 72 61 88 111
114 105 104 112 102 99 99 106 101 102 105 106 106 104 99 96
98 94 78 47 38 43 68 76 5 2 10 2 4 0 4 1
0 0 0 2 0 0 0 0 0 0 0 6 26 25 27 31
10 3 0 2 10 16 12 6 3 0 0 1 0 0 0 0
0 0 0 0 0 0 0 0 0 28 80 118 128 131 135 138
136 133 125 123 133 132 134 127 132 131 129 136 136 128 120 121
104 74 59 72 75 77 73 72 73 86 95 98 100 93 87 80
70 50 31 23 21 21 22 23 30 47 73 82 73 77 113 111
108 102 104 108 97 98 100 105 96 100 103 106 107 104 102 99
101 102 102 103 99 83 77 84 7 1 3 0 1 2 2 0
0 0 0 4 0 0 0 0 0 0 0 13 27 25 27 30
3 0 0 0 0 0 0 0 0 0 0 0 1 4 4 0
1 1 5 0 4 7 2 39 97 127 131 130 137 138 138 138
138 137 135 128 121 128 134 132 130 133 126 137 137 134 124 123
130 106 73 71 80 78 77 76 74 82 96 101 98 90 90 86
80 68 57 46 39 44 55 63 71 79 87 86 93 118 118 117
108 99 104 100 96 95 105 106 102 104 112 109 105 105 101 98
106 110 108 111 109 109 105 93 37 10 0 1 0 1 2 1
0 0 0 1 0 0 0 0 0 0 0 13 28 27 27 29
0 0 0 0 0 0 0 0 0 0 0 0 21 30 23 11
15 18 21 8 20 52 88 114 119 124 125 127 128 134 137 137
138 137 119 111 119 122 124 133 134 132 130 135 137 135 132 124
126 132 113 85 86 81 78 79 77 78 87 93 93 90 87 84
79 76 75 73 80 85 88 88 86 88 93 107 131 127 128 130
118 115 114 106 107 110 110 101 106 110 110 112 109 110 111 112
114 120 114 117 118 117 112 109 108 85 35 5 0 0 7 4
0 0 0 1 0 0 0 0 0 0 2 17 30 31 31 32
0 0 0 0 0 0 0 0 0 0 0 0 20 32 31 42
28 31 31 54 102 116 115 79 74 90 98 91 84 109 121 122
119 114 125 136 121 121 124 125 133 131 134 134 137 138 137 129
126 125 129 123 93 84 78 81 80 77 84 94 95 91 84 85
87 87 91 93 95 97 96 94 92 94 113 133 131 132 135 131
128 131 118 118 116 118 111 114 120 125 119 119 120 120 120 121
126 122 122 116 123 123 123 117 113 107 100 70 11 0 5 5
0 2 0 0 0 0 0 0 0 0 2 16 29 31 31 32
6 0 0 0 0 0 0 0 0 0 0 0 4 24 36 45
38 48 79 111 117 118 117 78 55 56 62 62 57 74 131 135
139 136 123 115 133 132 125 125 131 136 135 136 134 137 136 133
132 125 127 131 128 102 79 82 82 73 83 94 97 93 87 87
92 89 90 94 97 98 97 96 100 127 134 130 130 134 133 132
132 123 127 127 130 125 118 118 121 127 124 127 129 128 128 127
128 122 124 118 117 127 125 123 120 109 105 102 87 25 7 3
0 0 0 0 0 0 0 0 0 0 1 11 22 24 24 28
2 0 0 0 0 0 0 0 0 0 0 0 0 12 27 33
67 102 112 119 121 123 121 82 54 53 57 57 62 79 125 124
122 124 135 132 113 120 135 132 132 136 137 137 136 136 137 137
137 132 124 124 135 133 120 92 82 73 80 92 97 95 88 85
92 91 93 96 99 100 106 117 133 133 133 132 131 132 132 133
130 128 126 131 133 131 127 122 126 129 123 128 129 132 130 127
129 127 123 126 115 122 126 126 118 109 109 110 108 95 53 2
0 0 0 0 0 0 0 0 0 0 2 16 28 30 30 31
0 0 0 0 0 0 0 0 0 0 0 0 0 0 14 64
103 114 125 124 130 137 125 112 93 90 53 51 52 75 122 121
121 121 120 124 137 123 114 137 136 137 136 136 137 135 136 137
137 137 131 125 126 134 130 130 117 84 77 90 98 96 85 79
90 93 98 105 112 118 128 134 133 133 134 134 133 133 132 127
132 132 128 132 133 132 131 121 120 131 129 128 130 128 127 127
126 129 126 123 124 119 127 128 123 118 112 116 117 108 98 56
3 0 2 0 0 0 0 0 0 0 1 15 26 29 28 29
0 0 0 0 0 0 0 0 0 0 0 0 0 2 63 107
108 118 133 128 126 132 126 126 118 107 115 89 54 80 140 139
137 138 131 118 100 91 100 138 137 137 137 137 135 137 137 138
137 137 135 131 124 125 127 124 120 126 119 103 101 96 89 90
105 118 130 134 135 130 129 128 133 132 134 132 131 129 126 128
133 133 131 129 133 132 131 125 118 128 129 129 129 130 130 128
127 128 129 121 127 124 125 125 121 123 117 116 123 117 106 98
55 5 0 0 0 0 0 0 0 0 0 12 23 26 27 28
0 0 0 0 0 0 0 0 0 0 0 0 0 49 110 115
110 117 130 135 130 133 132 122 131 137 127 108 116 108 123 121
120 122 126 107 91 92 104 138 138 138 135 134 136 137 137 137
135 137 136 136 135 135 126 119 121 121 125 131 132 127 131 132
135 134 133 133 132 132 127 129 129 129 127 128 126 129 131 132
131 131 131 128 130 131 131 125 116 124 129 129 129 130 129 127
128 128 127 121 123 126 125 126 124 124 118 119 123 121 114 104
96 54 2 0 0 0 0 0 0 0 0 9 19 22 23 26
0 0 0 0 0 1 1 0 0 0 0 2 36 106 115 120
117 122 124 138 137 137 130 119 123 119 118 127 116 115 118 123
129 128 117 97 108 125 138 136 136 136 137 138 137 136 137 137
137 137 137 136 136 135 126 125 120 117 118 122 130 128 128 128
131 127 125 122 132 132 132 130 133 133 127 130 128 132 133 132
132 132 131 129 130 131 131 131 126 120 128 128 129 129 130 128
128 128 128 125 120 127 126 125 126 122 120 120 125 124 116 112
108 94 52 2 0 0 0 0 0 0 0 0 2 3 4 12
0 0 1 1 0 4 5 1 0 0 0 24 102 112 121 127
123 126 119 137 132 134 128 123 138 140 139 130 122 135 138 131
125 122 129 136 138 137 138 137 137 138 137 138 138 137 137 136
136 137 137 137 137 137 133 129 128 120 117 120 121 125 125 121
128 125 127 126 131 129 131 133 132 132 132 132 132 132 132 132
131 131 129 128 130 130 130 130 128 122 124 128 128 129 129 128
127 127 127 126 115 125 126 126 126 125 121 116 125 126 121 114
111 104 96 50 1 0 0 0 0 0 0 0 1 1 1 6
0 2 3 3 0 3 5 6 3 0 5 86 113 119 123 131
129 125 118 135 133 132 132 119 107 115 105 115 137 127 122 139
140 139 138 139 138 138 138 137 136 137 137 138 138 137 138 137
137 137 137 136 137 136 136 134 124 121 128 127 132 129 122 122
126 124 129 131 131 132 131 131 130 128 130 132 132 132 132 132
132 131 130 129 131 131 130 130 128 123 123 128 128 128 128 128
129 128 128 128 117 123 128 126 126 125 124 120 126 125 122 119
114 106 102 95 41 0 0 0 0 0 0 0 0 0 0 5
0 2 4 2 0 1 4 8 6 3 61 108 115 128 127 133
135 124 122 131 136 130 133 117 121 133 136 138 135 139 139 138
139 138 138 138 138 138 138 137 137 138 138 137 137 137 137 137
137 137 137 137 137 137 136 135 132 130 127 130 129 130 129 125
124 127 132 133 133 132 132 131 130 132 132 132 131 132 132 131
130 130 130 126 130 130 129 129 126 123 121 126 129 129 128 128
128 128 128 127 120 120 126 126 125 126 125 116 124 125 122 123
118 114 108 103 88 25 0 0 0 0 0 0 0 1 0 6
0 2 6 5 4 1 3 6 6 39 109 109 118 136 134 136
138 123 125 129 138 127 127 100 52 75 73 97 136 137 139 139
138 139 139 139 139 138 138 137 137 137 136 137 137 137 138 137
138 137 136 137 137 137 136 136 136 135 133 132 127 128 130 131
133 133 132 132 134 133 133 132 133 133 132 132 132 132 131 131
132 130 130 129 131 130 130 130 130 127 120 123 126 128 129 128
129 128 127 127 118 116 125 127 126 126 126 120 124 126 125 124
118 118 114 109 102 77 11 0 0 0 0 0 0 0 0 5
0 0 7 7 7 5 2 3 13 103 114 117 118 130 138 139
136 119 126 117 132 129 130 101 25 28 30 52 97 111 137 140
138 138 138 138 136 130 121 129 138 138 138 138 138 138 138 138
138 137 137 137 137 136 137 135 136 136 136 136 132 133 135 134
133 132 132 134 134 134 133 133 133 133 133 133 133 132 133 132
132 131 130 128 131 130 130 130 130 128 122 123 130 130 129 129
129 128 128 127 123 114 121 126 127 127 126 119 126 126 127 126
121 120 114 114 105 99 62 4 0 0 0 4 16 17 15 16
0 0 3 7 8 10 7 4 51 114 117 120 118 133 139 139
137 120 129 107 128 136 132 101 24 26 29 42 89 79 91 113
122 122 118 107 94 94 96 124 139 138 137 137 137 138 137 137
137 137 137 137 137 137 136 136 136 136 136 136 136 136 135 135
135 135 135 135 134 134 134 134 135 133 133 133 133 133 132 132
132 131 130 130 130 131 130 129 130 130 124 124 129 129 129 129
129 128 128 128 125 113 122 128 127 128 127 121 126 126 126 126
126 125 118 117 111 99 101 48 0 0 0 5 20 24 25 22
0 0 0 4 8 10 9 16 108 112 118 123 131 128 133 140
138 121 131 114 125 138 132 103 25 27 29 35 81 87 78 87
92 94 92 90 91 94 96 119 138 138 138 138 138 138 137 137
137 136 137 136 136 136 136 136 136 136 135 135 136 134 135 134
134 134 134 134 134 134 133 133 134 133 133 133 133 133 133 132
132 132 131 129 130 130 129 129 130 130 128 123 128 129 128 129
130 129 128 129 126 108 120 127 126 126 127 121 126 126 127 126
126 126 123 121 118 108 102 72 5 0 0 0 1 1 3 3
0 0 0 0 7 9 8 46 115 115 122 131 133 124 130 136
139 120 134 120 117 137 132 105 25 25 27 31 58 133 107 90
90 92 90 91 93 96 97 117 139 137 137 137 137 137 137 136
137 137 136 136 136 136 136 135 135 136 135 135 135 135 134 134
134 134 134 135 134 134 133 133 134 133 133 133 132 131 131 132
131 131 131 128 129 130 130 130 130 129 128 123 125 129 129 128
128 128 128 128 126 108 115 125 127 127 127 120 126 127 126 126
126 125 124 122 118 119 108 107 44 0 0 0 0 0 0 0
0 0 0 0 1 6 13 105 118 127 126 133 127 131 136 134
138 122 132 123 106 136 124 96 26 25 28 28 38 124 132 129
131 129 92 93 96 96 96 114 138 136 137 137 137 137 136 137
136 136 135 135 135 135 135 135 135 134 135 135 134 135 135 133
134 134 134 134 133 132 133 133 132 133 132 132 132 131 131 131
131 131 131 126 129 129 129 128 129 129 128 124 126 128 128 128
128 128 128 127 127 111 111 125 127 126 127 121 125 125 125 125
126 125 125 123 121 122 110 112 87 13 0 0 0 0 0 0
0 0 0 0 0 0 50 125 116 132 137 132 130 132 135 127
133 125 131 130 108 133 121 96 25 23 27 28 33 118 137 128
137 134 98 94 95 96 94 110 137 136 136 136 136 136 136 136
135 135 135 135 136 136 135 135 135 134 134 134 134 134 133 132
134 133 132 132 133 133 133 132 132 133 133 131 131 131 131 130
130 129 129 126 129 129 129 129 127 128 128 124 122 128 128 127
128 128 127 127 127 113 111 124 126 126 126 123 126 126 126 126
125 125 123 123 124 119 110 110 107 51 0 0 0 0 0 0
0 0 0 0 0 2 104 123 117 132 138 137 126 129 133 136
132 125 129 131 108 124 122 96 22 24 26 28 32 103 137 133
137 135 101 94 95 96 92 110 136 137 136 136 136 136 136 135
135 134 135 135 135 135 134 134 134 134 133 134 134 134 132 134
134 134 133 133 133 133 133 133 133 133 133 131 132 131 132 131
131 130 130 128 126 129 130 130 129 129 128 128 121 126 128 128
127 128 128 128 127 115 109 121 124 126 125 123 125 126 125 126
125 124 125 125 124 122 115 113 110 90 13 0 0 0 0 0
0 0 1 0 0 27 131 121 121 132 137 138 136 133 135 137
135 124 127 135 109 115 126 97 22 24 27 29 31 96 131 134
137 135 100 92 94 93 93 106 136 137 136 136 136 136 136 136
136 134 135 135 135 135 135 134 135 134 134 134 134 134 134 133
133 133 133 133 133 133 133 133 133 132 133 132 132 131 131 130
130 130 130 127 128 130 129 130 129 129 129 129 124 123 129 128
127 128 126 127 128 116 108 118 125 126 127 124 126 126 126 127
125 124 125 125 125 124 117 110 109 117 58 1 0 0 0 0
