P2
128 120
144
35 38 46 47 47 44 40 34 33 33 33 32 32 32 32 31
31 30 30 30 29 28 28 28 28 27 27 26 26 26 25 25
24 24 23 23 23 22 22 21 21 20 20 20 20 19 19 19
18 18 19 21 24 24 24 23 16 17 16 22 22 21 21 20
19 20 19 19 19 17 20 21 22 21 22 22 22 22 22 21
22 22 22 22 23 23 24 24 24 25 25 25 25 25 26 25
26 26 26 26 27 27 28 28 28 28 28 28 29 29 28 28
28 28 28 28 28 28 29 28 29 28 29 28 28 28 27 27
5 11 19 26 34 44 44 33 33 33 32 31 32 31 32 31
31 30 30 30 30 29 28 28 27 27 27 26 26 25 25 25
24 24 23 23 23 22 23 22 21 21 20 21 20 19 20 19
19 19 19 21 25 24 24 23 17 17 17 21 22 21 21 21
20 20 19 19 19 16 20 19 21 21 22 22 23 23 23 23
23 23 23 23 23 24 24 24 25 25 25 25 25 25 26 26
26 26 26 27 27 27 28 28 28 29 28 28 28 28 28 29
28 29 28 29 29 28 29 29 28 28 29 28 28 29 28 28
0 0 0 0 1 36 44 34 33 32 32 32 32 32 31 31
30 30 29 29 30 29 29 28 28 27 28 27 26 25 25 25
24 24 23 23 23 23 22 22 22 21 20 21 19 20 19 18
19 19 20 21 25 24 24 24 17 18 17 20 23 22 21 21
21 22 20 19 19 16 19 19 21 22 22 23 22 23 23 23
23 23 23 24 24 24 24 25 25 25 26 25 25 25 26 26
27 27 26 27 26 27 28 28 28 29 28 28 29 29 28 28
28 27 27 28 29 28 29 28 28 28 28 27 28 28 28 29
0 0 0 0 0 33 44 33 32 32 32 32 31 31 32 31
31 30 30 29 29 29 29 28 28 28 26 26 26 25 26 25
25 25 24 23 23 23 23 22 22 21 21 21 21 20 20 19
20 19 20 21 25 25 25 24 17 17 19 20 23 22 22 22
21 23 20 21 20 17 21 21 22 23 23 23 23 23 23 23
24 23 24 24 24 24 25 25 25 25 26 25 26 26 26 26
26 27 28 28 28 28 28 28 28 28 28 28 28 27 27 27
28 27 28 28 28 28 28 28 28 28 28 28 29 28 28 28
1 4 0 0 0 32 44 34 33 32 32 32 32 31 31 30
30 30 30 29 30 29 29 28 28 27 28 26 26 26 26 25
25 25 24 24 24 23 23 23 22 22 21 21 20 20 20 19
19 20 20 21 25 25 25 24 17 18 21 19 23 23 22 22
21 22 20 20 19 17 20 21 23 23 23 23 24 24 25 24
23 24 24 24 25 25 24 25 25 25 26 26 26 26 27 26
26 27 27 27 28 27 27 27 27 26 27 28 28 29 28 29
28 29 28 29 28 28 28 28 28 28 28 28 28 29 28 28
5 5 0 0 0 31 43 34 32 32 32 31 32 31 31 31
31 31 30 29 30 30 29 29 27 27 27 26 26 26 26 26
26 25 25 24 24 23 24 22 23 22 22 21 21 20 20 20
20 20 21 22 26 26 26 25 18 18 22 18 23 23 23 22
22 22 21 21 21 18 20 21 23 23 24 23 24 24 24 24
24 24 25 24 26 25 25 25 25 26 26 26 26 26 26 27
27 28 27 27 27 28 29 28 28 28 28 28 28 28 28 28
28 29 28 27 28 28 28 29 29 29 28 28 28 28 28 28
0 1 0 0 0 31 43 33 33 32 32 32 32 31 31 31
31 30 30 29 29 29 29 28 28 28 28 27 26 26 26 25
25 25 25 24 24 24 23 23 23 22 22 22 21 20 20 20
20 20 20 22 26 26 26 25 18 18 23 18 23 23 23 22
21 22 21 20 21 18 20 21 23 23 24 24 24 25 24 24
24 24 25 24 24 25 25 25 26 26 26 26 26 26 26 27
27 27 27 28 29 29 28 28 29 28 29 29 29 29 29 28
28 29 28 27 28 28 28 28 28 27 27 28 28 27 27 27
0 2 5 0 0 31 42 33 32 33 32 31 32 31 31 31
31 31 31 30 30 29 29 28 28 27 28 27 27 26 26 26
25 25 25 25 25 25 24 24 23 23 22 22 21 21 21 20
20 21 21 23 27 27 26 25 19 19 25 18 23 24 24 23
22 21 22 21 21 19 21 21 24 24 24 24 25 25 25 25
25 25 25 25 26 26 26 26 26 26 26 26 27 27 27 27
27 28 30 28 28 29 29 29 29 29 29 29 29 28 29 28
29 29 28 28 28 28 28 28 28 28 28 28 28 28 28 27
0 0 2 0 0 30 42 33 32 33 32 32 32 31 32 31
30 30 30 29 30 29 29 28 28 28 28 27 28 27 27 26
26 26 25 25 25 24 24 24 23 22 23 22 22 22 21 21
21 21 22 23 26 27 27 26 19 19 27 19 25 24 24 23
23 21 22 21 21 19 20 21 24 24 25 25 25 26 26 26
25 26 25 26 25 25 26 26 26 26 27 27 27 27 28 27
28 28 30 29 29 29 28 29 29 28 29 28 29 29 29 28
29 30 28 29 28 29 29 28 29 28 28 28 28 28 29 28
0 0 0 2 4 32 42 33 32 32 33 32 32 31 31 30
31 30 30 30 30 30 29 29 28 28 28 27 27 27 26 27
27 26 26 25 25 25 25 24 24 23 23 22 22 21 22 21
21 21 22 23 27 28 27 27 20 19 27 18 23 24 24 24
23 21 23 21 21 20 21 22 25 25 25 25 26 25 25 25
25 25 25 26 26 26 27 27 27 27 27 28 27 28 28 28
29 28 30 29 29 30 29 29 29 28 28 29 28 28 29 29
28 29 29 28 29 29 28 28 29 28 29 29 29 29 29 28
23 18 14 10 14 36 41 33 33 33 33 32 33 32 31 31
31 30 30 30 29 30 29 29 29 29 29 27 27 27 28 26
27 26 26 26 25 25 24 24 24 24 24 23 23 23 22 22
22 22 23 24 27 28 25 25 19 17 26 20 24 25 25 24
23 22 23 22 22 20 21 23 25 25 25 25 25 25 25 25
26 26 26 27 27 26 27 27 27 27 27 27 28 28 29 29
29 29 31 30 29 29 30 30 29 29 29 29 29 29 29 29
28 30 29 28 29 29 29 28 29 29 29 28 28 28 28 27
28 30 32 33 34 37 37 33 33 33 33 32 32 32 32 31
31 30 31 30 30 30 30 29 29 29 28 28 27 27 27 27
26 26 26 26 26 25 25 25 25 24 24 23 23 22 22 22
22 22 23 25 28 27 28 26 21 22 29 23 22 24 24 24
24 22 23 22 23 20 21 22 25 25 25 26 26 26 26 26
26 26 27 27 27 27 28 28 28 28 28 29 28 28 28 29
29 28 30 29 29 29 30 30 29 29 29 29 29 29 29 30
30 30 30 29 29 29 29 29 28 27 27 27 28 28 29 28
19 21 24 28 29 31 34 33 33 33 33 32 33 32 32 31
31 31 31 31 30 29 30 29 29 29 29 29 28 28 27 27
27 26 26 26 25 25 25 25 24 24 24 23 24 23 23 23
23 23 23 24 26 20 12 7 2 4 7 9 11 17 22 24
24 23 23 23 23 21 21 23 26 26 26 26 26 27 27 27
27 27 27 28 28 28 28 27 27 28 28 29 29 29 29 29
30 29 30 30 30 30 30 30 29 29 29 29 29 30 30 30
30 29 27 27 28 28 28 28 29 30 30 28 28 28 28 27
11 11 12 14 17 20 24 27 30 32 33 33 33 32 32 31
31 31 31 30 29 30 30 30 30 29 29 29 29 28 28 27
27 26 26 27 26 26 26 26 25 24 25 24 24 23 23 23
23 21 14 7 4 0 0 0 0 3 2 2 2 8 8 10
22 27 24 23 23 22 22 24 26 27 26 27 27 27 27 27
27 27 28 28 28 27 28 28 28 29 29 29 29 29 30 30
30 30 30 29 29 29 30 30 30 30 30 30 29 28 28 28
29 29 29 29 29 29 28 27 29 29 30 28 28 27 27 28
11 11 11 11 11 11 11 12 14 14 18 22 25 28 30 31
32 31 31 30 30 30 30 30 30 29 29 29 28 28 28 28
27 27 27 27 26 26 25 25 26 24 25 25 25 24 23 22
17 6 0 2 2 0 1 1 1 1 0 1 2 1 1 0
1 9 13 16 18 21 22 24 26 27 26 27 27 27 27 27
28 28 28 28 29 28 28 29 28 29 28 29 30 29 30 30
30 30 31 30 30 30 30 30 29 29 29 28 29 29 30 30
29 29 29 29 29 29 29 29 29 28 30 28 28 28 29 28
20 19 18 17 15 13 12 11 12 11 13 12 10 8 13 27
32 31 31 31 31 30 30 30 30 29 29 29 29 28 29 28
27 28 27 26 26 26 26 26 26 25 25 25 25 24 20 15
5 0 1 2 2 1 3 3 1 1 2 2 2 4 2 2
0 1 2 11 14 5 13 24 27 27 27 27 28 28 28 28
28 29 28 29 29 29 29 29 29 29 29 29 30 29 29 30
30 29 29 29 29 29 30 30 30 30 30 29 30 30 31 30
30 29 29 29 29 29 29 29 29 29 29 28 29 28 29 28
38 41 43 40 37 25 16 17 14 11 11 11 10 6 10 26
32 32 32 31 30 29 30 30 30 29 29 29 29 29 29 28
29 27 27 27 29 33 31 28 27 26 24 25 23 22 10 4
1 1 0 1 0 0 2 0 0 4 0 0 1 4 2 1
1 0 0 1 3 3 5 11 21 27 27 27 27 27 28 28
28 28 29 29 30 29 29 28 29 29 30 30 30 29 29 30
30 29 30 29 30 29 30 29 29 29 30 28 28 29 29 29
29 29 29 28 29 29 29 29 30 28 29 28 28 28 28 28
43 43 46 46 44 32 26 32 34 28 26 22 16 9 10 25
31 31 31 30 30 34 34 33 32 30 30 29 29 28 28 28
28 28 27 27 33 40 37 34 32 29 25 19 10 9 2 0
1 0 0 0 0 0 0 0 0 0 0 0 3 1 6 5
3 1 0 0 2 8 6 6 6 18 27 28 29 28 28 29
29 28 29 28 30 29 28 28 29 29 29 29 29 29 29 30
30 29 29 29 29 29 29 30 29 29 30 30 30 30 30 29
30 29 29 29 28 28 29 29 29 28 29 28 28 29 28 28
32 37 42 45 46 34 32 37 39 35 42 42 36 13 12 26
33 32 31 32 33 41 40 38 35 34 32 31 30 29 28 28
27 28 28 27 33 38 36 33 30 25 11 0 0 0 0 0
0 0 0 0 0 0 0 0 0 0 0 0 0 1 0 0
2 0 0 0 0 0 0 4 16 5 14 28 28 28 28 28
28 28 29 28 28 29 29 29 29 29 29 31 29 29 30 29
29 30 30 30 30 30 29 29 29 29 30 30 29 29 29 29
28 29 29 29 29 29 29 30 29 28 28 28 28 28 28 27
3 7 12 17 28 36 35 38 41 42 44 44 42 16 13 27
33 32 32 31 33 41 41 38 36 37 39 39 34 34 33 30
28 28 28 27 29 25 26 22 18 8 0 0 0 0 0 0
0 0 0 0 0 0 0 0 0 0 0 0 0 0 0 0
0 0 0 1 1 0 0 1 0 1 0 11 28 28 28 29
29 29 29 29 29 29 29 29 29 29 30 31 30 30 30 30
30 30 29 29 29 29 29 29 29 29 30 30 29 30 30 29
29 29 30 29 29 28 28 29 29 28 28 29 28 28 29 27
0 0 1 1 11 36 35 38 39 41 43 44 42 19 13 30
36 34 34 33 34 35 30 35 38 40 41 39 26 24 31 33
33 33 33 31 29 14 8 6 11 0 0 0 0 0 0 0
0 0 0 0 0 1 2 2 3 3 0 0 0 0 0 0
0 0 0 0 0 1 1 4 2 3 1 1 11 28 29 28
29 29 29 28 29 29 28 29 30 30 30 31 30 30 30 30
30 30 30 30 30 29 29 30 29 28 30 30 29 29 29 29
28 29 29 29 29 29 29 30 30 29 29 29 29 29 28 28
0 0 9 8 13 35 24 29 35 41 43 42 41 20 13 30
36 30 31 35 39 22 0 6 20 25 28 34 11 0 1 6
12 17 24 28 29 13 0 4 1 0 0 0 1 0 0 0
0 0 0 0 2 9 4 5 6 9 4 5 9 7 2 2
2 0 0 0 0 0 0 1 7 2 0 1 1 11 29 29
30 30 29 29 29 29 29 29 29 29 29 30 30 30 30 30
30 30 30 31 30 29 29 29 29 29 30 30 29 29 29 29
29 29 29 29 29 29 29 30 29 29 28 28 28 28 27 26
0 0 9 8 15 32 1 2 7 14 20 21 35 21 13 26
35 34 33 37 42 24 0 0 5 9 10 25 12 0 0 0
0 0 0 5 28 9 2 0 0 0 0 0 3 0 0 0
0 0 0 0 0 0 1 5 7 12 14 18 27 23 17 19
16 11 5 0 0 4 3 2 4 3 1 0 4 5 13 29
29 29 29 29 29 29 29 29 29 29 30 30 31 30 30 30
29 30 30 30 30 30 29 29 29 29 30 30 30 29 29 29
28 29 29 29 29 29 29 29 29 29 28 27 28 28 27 27
0 0 0 0 11 32 1 0 0 0 0 0 22 23 12 5
7 13 23 31 37 25 0 0 2 2 5 23 15 0 0 0
0 0 0 2 26 5 3 0 0 0 0 2 4 0 0 4
0 0 1 0 0 3 1 4 3 10 20 27 39 35 31 34
35 37 22 16 12 8 1 0 8 7 1 0 0 3 1 19
29 30 30 29 30 30 30 29 30 30 30 31 31 30 30 30
31 30 30 31 30 30 30 30 30 29 30 29 29 29 29 30
29 30 29 30 30 30 29 30 29 30 29 28 29 28 28 28
0 0 1 0 11 32 0 0 0 0 0 0 21 23 11 1
0 0 0 1 4 16 0 0 0 0 0 19 13 0 0 0
0 0 0 1 23 2 3 0 0 0 0 6 0 0 2 0
0 2 2 0 3 0 0 2 5 14 21 23 41 42 44 42
39 38 31 34 41 34 15 2 0 0 1 1 0 1 7 1
24 29 29 30 30 30 30 30 30 30 31 31 30 30 31 31
31 31 31 31 32 30 31 31 31 30 30 30 31 31 30 30
30 30 30 30 30 30 30 29 29 29 29 29 29 29 29 28
9 9 9 0 11 32 1 0 4 5 0 0 21 23 11 1
0 0 0 0 0 9 0 0 0 0 0 22 15 0 0 0
8 3 0 0 9 3 0 0 0 0 0 3 0 2 2 0
0 2 0 1 0 0 0 0 1 9 12 19 41 53 61 67
68 62 53 55 54 54 40 21 4 0 0 0 6 5 5 4
5 28 31 30 30 29 30 30 31 30 31 31 30 31 31 31
31 31 32 31 31 31 31 31 30 30 31 31 30 30 30 30
29 29 30 31 30 31 30 30 30 29 29 30 29 30 30 30
1 3 4 0 10 32 1 0 0 11 0 0 21 23 12 1
0 0 0 0 0 7 0 0 0 0 0 21 18 0 0 0
9 9 6 0 2 3 0 0 0 0 3 1 0 6 0 0
0 1 3 0 0 0 0 0 0 7 15 25 43 68 88 87
95 92 92 83 74 67 67 52 28 7 0 0 2 9 7 8
2 20 30 30 30 30 30 31 31 32 31 31 31 31 31 30
31 31 31 31 30 31 31 31 31 31 31 31 30 30 31 31
30 29 30 31 31 31 30 30 30 31 31 31 31 30 30 29
1 2 0 0 9 30 1 0 0 0 0 0 20 23 12 1
0 0 4 0 0 6 0 0 0 0 0 20 20 0 0 1
10 10 9 3 2 1 0 0 0 0 3 0 0 1 0 0
1 2 0 0 0 0 0 2 1 4 16 33 62 81 96 103
105 106 106 102 96 88 79 74 57 30 9 0 0 4 7 13
10 6 32 30 31 31 31 31 31 31 31 30 31 31 31 31
31 32 31 33 32 32 31 31 31 31 31 31 30 30 31 30
30 31 30 31 32 32 31 32 30 29 28 28 28 29 29 29
0 2 0 0 9 28 0 0 0 0 0 0 21 22 12 2
3 1 1 0 0 6 0 0 0 0 1 22 23 0 0 0
3 8 9 3 4 0 0 0 0 0 1 0 0 0 0 1
0 0 0 1 0 1 6 7 7 9 21 49 81 92 98 103
106 108 109 107 104 100 90 74 69 54 31 8 0 0 6 7
9 1 17 30 30 30 31 31 31 31 31 30 31 31 31 32
32 32 32 33 32 32 31 31 31 32 31 31 31 31 31 30
30 30 31 30 29 29 28 29 28 25 23 21 19 17 14 12
26 25 18 13 21 30 2 0 1 0 0 0 22 22 13 3
3 0 0 0 0 9 3 0 0 0 2 24 34 14 10 7
2 1 6 2 3 0 0 0 0 1 0 0 3 0 0 0
2 0 1 1 4 1 3 5 5 11 27 55 81 97 101 105
108 108 109 108 107 105 102 94 71 65 52 25 4 0 3 8
3 5 8 29 31 31 31 31 31 31 31 31 30 31 32 32
32 33 32 33 32 31 31 31 31 31 30 29 28 29 30 28
27 27 27 25 22 19 16 14 13 11 10 9 9 9 10 10
29 37 39 40 38 44 37 21 26 26 24 22 31 20 12 3
0 0 0 0 0 19 33 23 21 16 9 23 42 25 26 27
24 20 16 2 4 0 0 0 0 4 0 4 0 0 0 0
2 0 0 0 4 1 1 0 3 11 31 53 83 101 105 103
109 110 110 110 104 103 105 101 93 74 62 47 20 0 0 7
2 8 3 22 32 32 31 31 31 30 31 31 31 31 31 31
31 31 31 32 30 30 30 28 29 28 28 27 24 22 20 18
16 14 13 11 11 11 11 12 13 13 15 15 15 16 16 16
14 14 10 10 39 55 46 27 36 42 42 42 39 19 12 2
0 0 0 0 0 22 47 38 41 43 43 42 37 12 11 13
14 14 11 4 1 0 0 0 5 9 0 1 0 0 0 0
0 1 0 0 1 0 0 1 4 10 29 48 85 101 108 108
108 111 111 112 110 112 113 109 103 91 68 59 36 10 0 2
5 2 9 12 29 31 30 31 31 31 32 31 32 32 32 32
31 30 30 29 27 26 30 24 18 16 15 13 13 13 13 14
14 15 15 16 17 18 18 19 20 19 21 21 21 21 21 21
5 3 1 1 42 54 38 27 37 42 43 46 43 20 13 8
4 1 0 0 0 22 42 38 43 46 48 40 32 15 12 11
10 9 6 4 0 1 0 0 16 3 0 0 0 0 0 0
0 0 1 2 0 0 0 2 3 10 29 55 86 104 110 112
110 113 116 117 119 121 122 118 106 101 87 67 53 24 2 0
9 3 5 4 25 31 30 30 31 30 31 30 30 28 26 23
22 19 17 16 15 14 25 22 12 15 16 17 18 18 19 20
21 21 21 22 23 23 23 24 24 23 23 24 24 24 25 25
0 0 0 1 40 47 20 10 19 23 26 29 37 20 13 25
37 34 27 21 16 31 32 36 42 45 47 41 34 17 12 10
7 7 6 7 3 0 0 5 20 1 0 0 0 0 0 1
3 1 1 0 0 0 1 10 6 15 30 53 85 103 111 113
113 113 115 121 120 121 121 119 109 105 98 81 61 38 10 0
1 2 0 3 21 29 28 25 18 23 21 19 18 16 16 16
17 17 17 19 19 18 22 20 16 20 23 23 23 24 25 25
25 25 25 25 26 26 26 26 26 27 27 27 27 27 26 25
0 0 0 1 37 47 15 0 0 0 0 0 21 23 14 26
44 45 44 43 43 43 21 15 23 28 35 34 34 20 11 8
2 4 11 6 5 0 0 9 15 0 0 3 0 0 3 0
2 1 3 0 0 0 8 6 7 20 31 53 86 107 110 114
114 112 116 121 122 119 119 120 115 108 98 88 73 49 21 0
2 3 0 1 12 19 15 4 9 17 18 19 19 20 21 22
23 24 24 25 25 24 25 24 20 25 26 26 27 27 28 28
28 28 28 28 28 28 28 28 28 28 28 28 28 27 27 27
0 0 0 0 31 48 16 0 0 0 0 0 18 23 12 24
42 43 43 44 44 43 11 0 0 1 6 13 30 20 9 4
0 4 6 6 5 0 0 10 6 0 0 6 0 0 1 0
2 4 6 1 0 1 9 7 9 13 26 53 86 105 110 113
114 114 115 120 121 118 121 122 119 110 102 95 84 61 32 6
3 4 0 0 4 15 8 15 22 23 24 24 25 25 26 26
27 28 27 28 27 25 13 11 19 28 28 29 29 28 29 28
29 29 28 28 29 29 28 28 29 28 28 29 28 28 28 27
0 0 0 0 27 45 13 0 0 0 13 18 23 27 20 23
31 33 34 35 39 40 8 0 0 0 0 5 32 19 8 4
0 5 7 6 3 0 1 3 2 1 2 1 0 5 1 0
2 3 3 2 2 2 3 7 8 13 26 51 88 106 110 115
115 114 116 121 123 120 118 121 116 110 101 98 90 72 43 18
3 5 0 0 0 13 17 27 27 28 28 28 28 28 29 29
29 30 30 29 29 25 6 1 15 29 31 31 30 29 30 29
29 29 29 29 29 29 29 29 29 28 28 29 28 28 27 27
0 0 0 0 24 41 11 0 0 0 16 24 22 24 18 19
20 21 28 27 34 39 7 0 0 0 0 0 31 14 3 0
0 3 5 7 0 2 3 0 4 6 0 10 0 3 0 0
0 0 0 0 1 1 2 7 7 12 26 45 83 108 114 114
114 113 117 120 120 118 116 116 114 108 99 96 87 78 53 27
8 6 0 0 1 16 22 29 30 30 30 30 31 30 30 30
30 26 17 11 11 22 6 2 12 28 31 31 30 30 30 29
30 30 30 30 29 29 28 29 29 28 28 29 28 28 28 27
0 0 0 0 25 40 9 0 0 0 5 11 17 20 17 19
20 23 28 29 35 39 7 0 0 0 0 1 33 8 0 0
0 2 3 2 0 2 4 0 4 2 1 6 0 3 0 1
1 0 1 2 4 2 1 8 10 14 27 42 80 113 117 115
113 114 115 119 120 118 117 114 113 108 103 98 91 83 63 40
19 7 0 0 0 17 13 18 17 15 13 21 32 31 29 28
11 2 0 0 2 15 4 0 12 29 31 32 31 30 30 30
30 31 31 30 30 29 29 29 29 29 29 29 29 29 28 28
0 0 0 0 29 42 10 0 0 0 0 0 7 17 16 15
6 10 16 20 26 30 7 0 0 0 0 2 33 7 0 0
0 3 0 0 2 2 3 0 0 0 2 2 9 3 1 2
4 0 1 6 1 2 5 13 7 20 27 43 83 116 119 118
114 114 117 117 121 124 121 116 114 109 103 97 93 83 70 51
31 9 3 0 0 20 9 0 0 0 3 14 20 10 4 3
1 3 0 0 0 2 4 0 13 29 31 32 31 32 32 31
31 31 32 30 31 30 29 30 30 29 29 30 29 29 29 29
0 0 0 0 32 43 9 0 0 1 0 0 10 24 23 15
0 0 0 0 0 9 6 0 0 0 0 2 33 6 0 0
0 1 0 1 1 8 0 0 0 0 4 2 14 0 3 0
5 0 5 0 1 1 5 4 12 18 28 50 95 120 121 120
116 116 116 119 122 122 119 115 114 109 102 99 94 84 75 58
43 18 3 0 0 21 19 0 0 0 0 0 0 0 0 0
0 14 2 0 0 0 9 0 17 31 32 33 32 32 32 32
32 31 32 32 32 31 31 31 31 31 31 31 30 30 30 30
7 4 2 2 35 43 9 0 0 5 0 0 12 31 25 17
0 0 0 0 0 6 6 0 2 7 1 1 32 4 0 0
0 2 0 0 4 3 0 0 0 0 4 1 11 0 0 2
9 1 5 1 2 2 6 7 16 18 30 55 98 118 118 120
118 115 116 119 119 115 112 111 111 109 104 98 92 85 76 64
48 36 10 3 0 2 1 0 0 0 0 0 0 0 0 0
0 2 0 0 0 0 14 7 23 31 33 33 33 33 33 32
32 32 32 32 32 31 32 31 32 31 30 31 30 31 31 30
29 31 32 27 35 37 17 0 0 6 3 0 10 32 25 17
0 0 3 1 0 5 7 0 9 14 4 1 30 4 0 0
2 1 0 0 0 2 0 0 0 0 0 1 14 0 0 2
6 3 7 0 2 6 6 7 14 20 36 67 105 119 120 119
116 112 112 113 105 96 98 99 104 108 105 97 89 85 79 71
55 47 15 4 0 9 23 23 22 21 21 15 13 11 0 0
0 0 0 0 0 2 23 23 28 32 32 33 32 32 31 31
32 32 32 32 32 31 31 31 31 30 31 31 31 30 31 30
9 12 17 16 23 34 31 22 16 20 23 17 20 33 20 16
0 2 14 7 0 4 13 5 16 17 12 5 30 3 0 0
3 1 0 0 0 0 0 0 0 0 1 4 8 0 0 4
0 4 0 0 3 4 4 11 13 21 47 77 106 122 120 119
117 113 108 97 84 83 80 77 73 87 86 89 87 84 80 74
59 53 23 6 0 9 31 33 33 33 32 31 13 4 0 0
0 2 8 8 8 19 27 28 32 33 32 33 33 33 32 32
32 32 32 32 31 31 32 31 31 30 30 30 29 26 29 29
0 0 8 9 17 36 32 22 21 28 34 38 41 39 22 16
0 3 14 7 1 4 33 33 38 36 36 35 39 6 0 0
3 0 0 0 0 0 0 0 0 2 1 2 7 0 2 0
0 5 0 1 5 2 3 10 10 31 60 75 102 119 117 117
113 105 99 82 82 87 89 58 45 34 41 60 73 76 78 74
59 53 19 0 0 5 31 33 33 33 33 19 0 0 1 0
0 15 33 31 30 29 29 31 34 33 33 33 33 33 33 33
32 31 31 30 31 31 31 31 31 30 31 30 30 28 30 29
0 2 4 10 23 37 30 4 0 4 9 21 42 38 21 17
2 0 2 0 0 3 35 39 42 41 44 49 47 22 18 16
11 0 0 0 0 0 0 0 0 1 0 5 5 0 0 0
5 1 0 3 1 0 6 7 15 34 71 87 108 118 120 118
112 101 89 73 82 80 64 44 33 31 25 31 50 64 70 69
58 37 6 2 1 2 18 19 19 29 33 17 0 0 14 1
0 14 33 33 32 31 31 32 32 32 32 32 33 32 33 32
31 31 32 32 32 31 32 31 30 30 30 30 29 29 30 29
13 26 12 4 21 38 29 1 0 14 16 21 41 34 21 20
13 0 0 0 0 3 34 38 40 39 43 47 46 34 32 31
25 0 0 0 0 0 0 0 0 0 0 7 4 0 0 0
3 0 0 0 1 2 4 4 14 37 59 79 86 88 83 79
69 60 47 54 26 8 4 3 2 3 7 10 21 48 62 63
47 21 19 7 0 0 0 0 0 18 34 20 0 0 2 0
0 12 34 33 32 31 31 32 32 32 33 33 33 33 32 32
32 31 31 31 32 31 31 31 31 31 31 30 30 30 30 30
26 28 3 0 20 40 28 0 0 10 25 30 40 28 20 22
11 0 0 0 0 3 33 34 36 36 35 33 32 34 35 35
27 2 0 0 0 0 0 0 0 0 0 5 3 0 0 0
0 0 0 0 2 5 0 0 0 0 0 2 3 4 5 4
6 6 22 29 15 0 0 0 0 0 0 0 0 5 51 57
38 18 2 0 0 0 0 0 0 18 34 18 0 0 0 0
0 11 34 33 33 33 34 35 34 34 34 33 33 33 33 32
32 32 32 31 32 31 32 31 30 31 30 30 30 30 29 28
22 32 2 0 22 42 29 0 0 1 7 28 41 26 22 22
11 2 2 1 0 3 35 33 33 33 33 32 34 36 36 38
29 1 0 0 0 0 0 0 0 0 0 4 1 0 0 1
0 0 0 0 0 5 0 0 0 0 1 2 2 3 3 2
3 2 4 7 5 0 0 0 0 0 0 0 0 0 9 50
19 0 0 0 0 0 0 0 0 15 21 11 0 0 1 0
0 9 34 33 34 33 34 34 34 33 33 33 33 32 32 32
32 32 32 32 32 31 31 31 31 31 31 30 30 30 29 28
9 15 1 0 22 42 30 0 0 0 0 22 41 27 22 21
30 32 29 27 28 29 42 36 35 35 35 37 40 41 38 40
31 2 0 0 0 0 0 0 0 0 0 1 1 0 0 0
0 0 1 0 0 2 0 13 42 46 48 60 56 51 47 37
24 11 6 2 1 0 0 0 0 0 0 0 0 0 0 17
1 0 0 0 0 0 0 0 0 4 0 0 0 0 1 1
0 7 33 33 34 34 34 33 33 33 33 32 32 32 32 31
32 31 31 31 31 31 31 30 30 30 29 30 29 29 28 28
0 0 0 0 20 42 28 0 0 0 0 21 43 27 22 22
40 48 48 47 49 50 48 38 33 33 33 37 42 43 39 39
30 5 0 0 0 0 0 0 0 6 2 0 0 0 0 0
0 0 0 0 0 1 3 44 71 68 93 106 97 91 88 69
56 47 44 24 5 0 0 0 0 0 0 0 0 0 0 4
4 0 0 0 0 0 0 0 1 25 20 9 0 0 0 2
1 6 25 32 33 33 33 33 33 33 33 32 32 32 32 32
31 31 30 31 32 30 30 30 30 30 30 30 29 30 29 28
0 0 0 0 18 42 27 0 0 0 0 19 43 27 21 23
37 45 45 46 47 47 48 25 13 10 9 12 23 41 38 28
11 3 0 0 0 0 0 0 0 23 1 0 0 0 0 0
0 0 0 0 0 1 19 57 82 81 103 120 120 114 99 69
54 52 41 28 4 0 0 0 0 0 0 0 0 0 2 2
2 0 0 0 0 0 0 0 2 33 11 4 0 0 0 0
0 0 6 12 21 32 34 33 33 33 33 33 32 32 31 32
31 30 31 31 32 31 31 30 30 31 31 29 29 29 28 27
0 0 0 0 17 42 27 0 0 0 0 16 40 25 21 22
24 28 29 28 29 29 32 14 0 0 0 0 5 38 34 9
0 1 0 0 0 0 0 0 10 21 0 0 0 0 0 0
0 0 0 0 1 8 36 75 92 89 113 126 126 117 108 73
53 44 22 21 3 0 0 0 0 0 0 0 0 0 4 7
0 0 0 0 0 0 0 0 0 5 2 0 0 0 0 1
0 0 6 2 10 31 34 34 33 33 33 33 32 31 31 31
31 31 31 31 32 31 31 31 30 31 30 30 30 29 28 27
0 0 0 0 16 42 28 0 0 0 0 15 41 27 21 21
28 33 33 32 31 31 31 15 1 0 0 0 13 38 25 0
0 0 0 0 0 0 0 0 15 11 0 3 0 0 0 3
0 0 0 1 10 15 56 93 101 94 115 124 126 120 111 75
48 34 30 16 1 0 0 0 0 0 0 0 0 0 11 53
24 0 0 0 0 0 0 0 3 0 0 0 0 0 0 0
0 0 5 4 6 32 34 34 34 33 33 33 32 32 31 31
31 30 30 30 31 30 31 31 31 31 30 30 29 28 27 25
8 11 14 18 30 40 26 0 0 0 0 16 45 28 19 21
30 36 36 36 36 37 36 16 1 0 0 0 8 34 18 0
0 0 1 0 0 0 0 0 7 6 6 11 3 0 11 2
2 1 2 10 10 25 75 98 96 106 117 124 122 121 113 80
52 45 44 11 0 0 0 0 0 0 0 0 0 1 21 83
70 4 0 0 0 0 0 0 2 7 2 1 0 0 0 0
0 0 5 5 5 31 34 34 34 33 33 32 32 31 32 32
31 30 30 30 31 31 31 31 30 30 29 29 27 25 25 24
35 37 40 41 40 33 24 14 11 9 6 20 41 26 20 24
29 35 36 36 37 38 38 17 0 0 0 4 4 30 15 0
0 0 0 0 0 0 0 0 10 9 18 27 4 5 11 2
8 6 16 9 9 38 88 102 101 114 116 124 126 120 114 89
55 52 47 9 0 0 0 0 0 0 0 0 1 11 44 104
94 29 0 0 0 0 0 0 9 5 5 13 0 0 0 0
0 0 5 5 5 29 34 34 33 32 32 32 31 31 31 31
31 31 30 30 31 30 31 31 30 30 30 28 28 26 25 24
37 38 38 38 38 36 36 35 35 33 32 33 37 33 33 34
33 34 35 35 35 35 35 26 6 0 0 3 1 27 15 0
0 0 0 0 0 0 0 0 8 22 32 51 4 9 10 11
12 9 20 4 13 53 91 102 101 110 117 124 128 123 118 101
64 57 48 9 0 0 0 0 0 0 0 0 19 21 73 114
105 70 2 0 0 0 0 3 8 1 3 16 1 0 0 0
0 0 6 6 11 26 33 32 32 32 32 32 32 30 32 31
31 28 25 28 30 30 29 30 30 29 28 27 27 26 25 23
32 35 35 35 35 35 36 35 35 35 35 34 34 34 34 34
34 34 34 33 33 33 33 31 12 0 0 4 2 26 14 0
0 0 0 0 0 0 0 0 8 65 54 78 18 10 12 27
17 26 26 4 18 62 92 97 100 105 112 120 127 126 120 111
77 62 52 13 0 0 0 0 0 0 0 26 35 30 101 115
110 98 28 0 0 3 0 6 7 1 6 9 0 0 0 3
2 0 3 8 12 23 33 33 33 33 32 32 32 31 31 30
16 2 4 2 21 30 30 30 29 28 28 27 27 26 24 24
31 35 36 35 35 34 35 34 34 34 34 34 34 33 33 32
33 32 32 31 31 31 31 31 13 0 0 0 0 25 16 0
0 0 0 0 0 0 0 0 2 81 83 100 51 22 19 36
27 49 40 14 40 71 86 91 95 101 108 115 125 129 126 119
97 69 60 21 0 0 0 0 0 0 28 49 26 60 112 113
110 107 71 1 3 5 1 4 10 7 5 2 0 0 0 1
0 0 6 8 9 24 34 33 33 32 32 32 32 31 31 31
12 0 1 0 17 30 30 29 29 28 27 27 26 26 25 25
29 35 31 23 19 18 17 16 15 14 13 13 11 11 10 11
10 10 10 10 10 15 28 32 17 0 0 0 0 20 19 0
0 0 0 1 1 0 0 0 0 55 110 118 97 41 24 29
55 80 69 49 60 78 85 88 91 97 100 109 119 128 129 124
114 80 63 39 0 0 0 0 0 5 40 28 30 98 115 115
113 111 96 25 4 2 0 7 10 9 9 8 9 10 11 11
12 14 17 19 18 20 23 23 20 22 32 32 33 32 32 30
9 0 0 0 10 30 30 28 28 28 27 26 26 26 25 26
28 35 28 6 0 0 0 0 0 0 0 0 0 0 0 0
0 0 0 0 0 6 32 32 23 6 6 13 14 24 29 21
20 23 25 27 13 0 0 0 0 20 111 117 118 71 27 25
83 104 89 82 72 80 83 87 85 93 97 103 113 122 130 128
123 110 72 55 14 0 0 0 0 22 29 15 74 112 117 116
113 109 102 61 1 0 5 11 11 10 30 17 20 25 27 22
25 27 24 23 19 13 35 52 13 15 29 32 32 30 28 27
8 0 0 0 7 30 29 29 28 28 28 27 27 27 27 27
26 34 30 9 0 0 0 0 0 0 0 0 0 0 0 0
0 0 0 0 0 5 32 33 31 31 33 35 33 31 32 41
39 39 43 46 38 1 0 0 0 2 86 119 121 94 42 21
85 102 88 88 78 79 82 84 86 88 93 98 107 114 125 126
124 123 110 72 42 11 0 0 0 12 21 75 88 111 115 111
112 112 100 83 43 30 10 10 11 11 21 17 23 27 43 54
63 70 72 53 20 22 86 113 18 12 28 31 30 9 3 3
0 0 0 0 6 29 28 28 27 27 27 27 27 27 27 26
26 34 32 14 0 0 0 0 0 0 0 0 0 0 0 0
0 0 0 0 0 2 30 34 31 34 37 37 32 25 25 35
37 37 38 41 39 11 0 0 0 0 41 118 116 112 94 58
74 99 87 86 82 79 83 83 85 86 90 95 100 111 116 122
122 123 123 125 109 79 49 33 35 54 80 83 88 103 101 108
112 111 104 90 76 37 10 11 13 8 22 19 25 30 55 75
80 83 83 58 21 47 124 110 68 14 27 32 25 0 0 0
0 0 0 0 4 29 28 28 27 27 27 27 28 28 27 26
24 34 32 17 0 0 0 0 0 0 0 0 0 0 0 0
0 0 0 0 0 1 29 34 30 29 31 35 33 26 23 20
19 19 22 25 25 19 1 0 0 1 9 101 118 116 122 123
56 73 87 86 82 80 82 83 83 87 87 93 97 104 110 113
118 122 121 125 129 129 111 97 89 84 81 85 89 104 107 114
116 119 117 94 81 35 11 11 14 4 17 26 30 32 32 37
38 33 32 29 25 31 46 29 27 20 24 31 25 1 0 0
0 0 0 0 4 28 28 28 27 27 28 28 29 29 27 26
23 33 32 20 0 0 0 0 0 0 0 0 0 0 0 0
0 0 0 0 0 0 27 35 29 22 20 24 24 21 23 20
20 22 28 31 29 28 11 0 0 0 0 62 124 116 119 129
114 94 86 84 83 81 82 83 83 87 87 92 98 102 106 111
116 119 118 120 126 128 117 101 92 82 79 83 99 114 119 119
107 105 109 90 75 33 10 12 14 1 9 28 32 32 23 23
28 18 18 20 24 24 23 22 23 20 23 32 31 10 0 0
0 0 0 0 2 22 28 28 28 29 29 28 29 29 28 27
22 32 32 22 2 0 0 0 0 0 0 0 0 0 0 0
0 0 0 0 0 0 23 35 29 10 1 2 5 10 24 26
31 33 41 42 24 20 15 7 0 0 1 20 111 129 117 122
126 114 92 82 83 83 81 80 83 85 87 92 95 100 104 110
114 117 117 117 120 122 120 104 88 79 76 72 104 122 114 100
76 83 92 76 65 28 11 13 11 0 6 17 29 31 23 23
21 18 17 19 24 25 24 23 23 20 21 31 28 24 1 0
0 0 0 0 0 9 29 29 29 29 29 29 29 29 29 27
22 33 32 24 3 0 0 0 0 0 0 0 0 0 0 0
0 0 0 0 0 0 20 35 29 8 0 0 0 8 27 25
33 30 32 36 5 0 1 4 0 0 0 0 52 125 127 121
120 116 101 82 83 83 82 79 83 85 86 94 101 103 106 107
107 110 112 114 116 122 112 99 84 75 80 65 94 99 85 37
12 43 62 61 67 22 12 13 6 0 1 4 26 31 23 20
17 18 17 20 26 26 25 23 23 19 18 19 3 1 4 0
0 0 0 0 0 8 29 29 29 29 30 29 29 28 27 25
21 31 32 25 4 0 0 0 0 0 0 0 0 0 0 0
0 0 0 0 0 0 16 35 29 10 0 0 0 6 27 22
30 16 5 26 4 0 0 0 1 0 1 0 5 88 127 128
124 120 104 77 81 81 81 79 80 84 86 95 103 107 109 107
105 106 112 111 114 117 112 96 80 73 91 87 71 68 71 71
44 33 59 72 62 17 12 13 4 0 1 4 29 30 24 20
17 18 16 20 25 25 24 24 22 20 5 1 0 0 2 0
0 0 0 0 0 1 23 28 28 28 28 29 28 26 25 24
20 30 33 26 6 0 0 0 0 0 0 0 0 0 0 0
0 0 0 0 0 0 13 36 30 12 0 0 0 7 27 23
30 15 1 25 6 0 0 0 3 2 0 0 0 22 104 120
128 124 96 68 80 78 80 79 82 84 88 93 101 106 109 106
108 108 109 109 110 109 102 90 76 77 105 123 112 103 102 112
88 66 62 68 53 12 12 13 2 2 14 15 33 30 24 18
14 17 16 20 25 25 24 24 23 21 2 0 0 4 0 0
0 0 0 0 0 0 13 26 26 26 28 28 27 26 25 24
20 30 32 27 7 0 0 0 0 0 0 0 0 0 0 0
0 0 0 0 0 0 11 35 29 14 0 0 0 8 27 23
31 15 1 24 8 0 0 0 2 8 0 0 0 0 25 88
109 105 52 58 77 79 80 80 83 86 91 93 101 106 110 112
112 111 110 107 107 103 96 82 72 88 118 116 120 121 112 104
84 71 58 65 42 12 13 12 0 5 14 13 35 28 23 12
6 17 16 20 26 24 25 24 23 21 1 0 2 7 0 0
0 0 0 0 0 0 1 6 6 21 27 27 27 26 25 23
19 29 32 27 8 0 0 0 0 0 0 0 0 0 0 0
0 0 0 0 0 0 9 34 30 16 0 0 0 6 27 23
31 16 1 20 10 0 0 0 1 13 1 0 0 0 1 24
65 65 29 60 76 79 83 82 85 89 93 95 102 106 108 110
112 112 111 106 105 99 89 77 76 106 116 113 114 109 105 95
80 78 53 59 31 12 15 10 0 4 8 18 36 24 17 3
5 15 15 20 25 25 24 24 25 23 4 3 8 9 4 2
2 1 1 1 0 0 0 0 0 20 29 28 28 26 26 24
19 28 33 28 9 0 0 0 0 0 0 0 0 0 0 0
0 0 0 0 0 0 7 33 30 17 0 1 1 4 28 25
32 19 2 19 15 1 1 1 1 18 4 0 0 0 0 22
58 68 60 67 74 78 80 83 86 90 94 95 101 106 108 110
111 108 106 106 103 96 86 77 92 108 110 108 104 104 104 96
77 89 61 52 23 13 15 7 0 23 21 25 34 23 16 2
5 14 15 21 25 25 24 25 25 23 8 9 10 10 8 6
4 2 1 5 7 9 11 13 18 30 36 36 36 36 35 34
19 27 32 28 10 0 0 0 0 0 0 0 0 0 0 0
0 0 0 0 0 0 6 33 30 19 0 3 9 5 28 25
32 24 5 18 15 5 6 2 0 18 9 0 0 0 0 22
57 69 66 67 73 78 78 83 87 91 95 97 103 104 109 109
110 109 106 106 103 94 85 84 102 103 106 108 113 110 101 91
82 79 57 46 16 13 14 3 9 62 33 29 32 23 16 5
10 15 15 22 26 25 25 24 26 24 7 1 2 1 0 0
0 0 0 28 36 37 38 38 39 40 41 40 40 39 38 38
18 26 32 28 11 0 0 0 0 0 0 0 0 0 0 0
0 0 0 0 0 0 5 32 30 21 5 8 17 14 30 28
34 25 13 16 14 7 9 3 2 17 16 0 0 0 0 21
54 67 67 67 71 76 79 81 86 92 95 99 103 106 107 108
107 106 106 105 100 91 81 86 93 96 103 112 108 89 69 65
62 61 42 41 13 14 13 1 10 47 21 32 30 23 19 11
17 16 17 25 27 25 25 24 26 23 5 0 0 0 0 0
0 0 4 37 38 37 37 38 37 37 36 37 35 36 35 36
17 25 31 28 12 0 0 0 0 0 0 0 0 0 0 0
0 0 0 0 0 0 5 32 31 28 33 35 38 38 42 31
33 20 14 17 22 18 18 15 15 17 12 0 0 0 0 10
48 67 69 68 70 74 77 80 83 90 95 100 105 107 108 107
106 102 105 105 97 88 85 85 81 87 91 84 68 66 66 66
65 56 46 36 13 14 11 0 1 14 17 34 30 27 19 17
16 18 17 26 27 25 24 24 25 23 6 0 0 0 0 0
0 0 10 31 28 31 32 33 32 30 25 29 29 27 32 36
17 24 31 28 13 0 0 0 0 0 0 0 0 0 0 0
0 0 0 0 0 0 4 31 30 30 45 47 47 47 47 37
33 16 6 15 25 21 20 20 19 18 13 1 0 0 0 11
47 66 72 70 69 72 76 79 82 87 94 101 104 106 108 108
105 104 106 105 96 92 90 83 71 58 47 49 61 73 67 58
58 50 55 32 13 15 9 0 1 7 18 37 29 28 20 17
15 18 18 27 27 26 24 25 24 23 6 0 0 0 0 0
0 0 5 9 6 13 23 29 25 23 19 19 22 24 32 35
16 22 31 28 13 0 0 0 0 0 0 0 0 0 0 0
0 0 0 0 0 0 3 30 30 28 37 36 35 34 33 28
30 15 0 11 25 23 23 22 22 21 17 3 0 0 0 18
48 65 73 73 69 70 74 76 80 84 93 99 102 106 108 107
106 105 105 104 99 96 91 80 60 58 70 87 95 103 102 87
71 55 58 22 13 16 5 0 1 6 23 36 28 27 19 17
14 19 19 27 26 25 24 25 23 23 7 0 0 0 0 0
0 0 0 0 0 4 22 29 30 30 29 30 31 30 32 35
15 23 31 28 13 0 0 0 0 0 0 0 0 0 0 0
0 0 0 0 0 0 2 29 29 23 18 16 16 15 15 15
28 15 0 8 25 23 23 23 22 21 17 9 0 0 0 20
46 63 74 76 71 69 72 75 77 82 91 97 99 104 107 107
105 102 101 102 100 96 93 79 73 89 96 96 92 83 86 82
65 55 52 13 13 17 3 0 9 13 28 33 27 27 17 16
14 18 20 27 25 25 24 25 24 24 7 0 0 0 0 0
0 0 0 0 0 2 29 33 34 33 33 33 32 33 33 33
15 21 30 27 13 0 0 0 0 0 0 0 0 0 0 0
0 0 0 0 0 0 2 28 29 23 17 15 15 16 15 15
29 20 6 14 25 21 22 22 22 21 20 14 3 0 0 19
46 61 74 76 74 70 70 71 72 78 87 93 98 102 106 107
104 102 102 103 101 100 92 84 90 95 98 97 96 92 84 73
56 55 42 16 8 9 0 1 19 24 33 31 27 26 15 14
14 18 21 27 26 25 24 25 24 23 8 0 0 0 0 0
0 0 0 0 0 0 26 34 33 33 32 32 32 31 33 32
15 21 29 28 14 0 0 0 0 0 0 0 0 0 0 0
0 0 0 0 0 0 3 30 30 24 20 20 19 18 17 17
30 29 26 32 28 20 21 21 21 20 20 18 10 0 0 20
47 57 75 79 77 73 71 69 71 77 84 90 95 100 104 104
103 101 102 100 99 97 91 87 95 96 96 91 87 78 64 55
55 53 28 27 29 9 0 42 80 23 35 30 28 25 12 11
13 16 20 25 25 26 25 25 24 23 8 0 0 0 0 0
0 4 0 0 0 0 12 23 25 28 20 22 23 20 21 24
14 20 29 28 14 0 0 0 0 0 0 0 0 1 2 3
4 5 7 8 10 11 16 29 27 23 22 21 21 21 18 17
25 23 23 25 23 20 21 21 20 20 19 19 17 3 0 25
54 55 72 81 77 74 73 69 68 74 79 86 92 97 101 103
103 102 101 98 96 93 91 92 94 94 93 88 82 70 61 62
61 45 11 11 18 30 18 93 129 36 35 27 27 23 15 11
7 16 20 23 24 25 25 25 24 22 8 0 0 0 0 0
3 9 0 0 0 0 5 24 28 26 22 24 23 18 23 24
14 19 29 28 21 8 9 10 13 15 17 18 20 21 22 23
23 24 24 24 25 25 25 24 25 24 21 21 21 20 18 16
18 15 14 16 18 20 20 20 20 20 20 19 18 7 0 27
55 54 71 81 80 78 76 73 67 72 76 80 89 94 97 98
99 99 97 95 95 91 90 91 93 95 92 92 85 75 68 67
63 32 8 7 24 11 23 85 97 26 37 24 20 14 4 2
4 2 13 17 21 23 24 23 23 24 10 0 0 0 0 0
13 8 0 0 0 0 4 32 33 30 31 32 31 28 32 32
14 19 29 29 28 27 25 26 29 29 28 27 27 27 27 27
26 27 27 25 25 24 24 23 24 23 22 22 21 21 19 19
19 17 15 17 19 20 21 20 20 19 19 19 19 14 9 31
57 55 67 83 85 80 76 72 71 71 73 76 83 89 93 94
97 98 97 97 98 93 93 95 96 97 99 100 92 90 84 74
64 20 4 9 31 5 6 38 24 26 38 17 3 0 0 0
0 0 0 7 28 21 21 21 18 22 11 0 0 0 0 0
17 4 0 0 0 0 0 27 36 36 35 34 36 34 33 33
13 19 28 29 29 29 24 26 28 29 28 28 28 28 30 31
21 15 19 22 20 12 20 21 21 22 23 21 21 21 20 19
19 18 15 16 18 20 20 19 19 19 19 19 19 18 18 35
59 58 63 80 88 86 79 74 73 71 66 72 78 82 85 89
94 94 93 93 93 92 97 95 98 101 105 107 105 93 82 67
63 19 22 44 61 64 71 74 75 74 49 23 12 0 0 0
0 0 0 0 23 13 18 21 12 15 15 5 1 0 0 0
3 0 0 0 0 0 0 7 26 29 28 29 28 28 31 32
11 18 28 29 29 28 25 24 25 26 24 23 24 35 51 35
3 0 0 2 2 0 4 12 12 11 9 6 7 12 20 20
19 18 16 16 18 20 20 19 18 18 18 19 18 18 19 36
60 61 62 77 89 89 83 76 73 72 71 69 70 72 78 82
87 90 90 93 94 94 97 99 102 102 102 106 104 90 74 61
58 34 81 86 94 97 88 83 93 93 59 32 27 0 0 0
0 0 0 0 12 12 16 20 16 15 6 9 4 0 0 0
0 0 0 0 0 0 0 4 10 19 19 20 18 21 30 32
4 8 13 14 12 11 9 7 8 10 14 14 27 59 48 9
0 0 0 0 0 0 0 0 0 0 0 0 0 0 14 21
19 17 17 16 17 19 19 19 19 19 19 19 19 19 20 38
61 64 61 75 90 93 88 81 76 73 72 68 66 67 72 75
80 85 85 87 88 89 83 98 102 104 102 103 98 84 68 61
56 77 95 90 94 97 91 85 92 93 55 4 3 0 0 2
1 1 2 3 6 16 16 6 5 3 0 0 0 0 0 0
0 0 0 0 0 0 0 5 8 21 29 29 29 30 33 33
0 0 0 0 0 0 0 1 1 1 15 18 46 58 19 0
0 0 0 0 0 0 0 0 0 0 0 0 0 0 9 22
21 19 18 17 18 19 19 18 18 18 18 17 18 18 19 40
61 64 61 73 86 97 94 89 80 74 73 71 65 65 64 66
70 73 76 82 81 82 89 96 100 101 98 94 86 77 63 56
51 43 65 75 71 63 63 64 63 66 45 21 21 17 14 15
9 5 7 4 3 5 2 1 1 0 0 0 0 0 0 0
0 0 0 0 0 0 0 1 1 6 32 35 35 35 35 34
0 0 0 0 0 0 4 8 6 5 16 28 55 36 4 0
0 0 0 0 0 0 0 0 0 0 0 0 0 0 15 25
23 21 20 19 18 18 19 18 18 18 18 18 19 19 20 43
62 65 62 70 84 94 98 95 88 82 77 72 68 66 64 63
61 63 65 69 74 75 82 88 91 88 83 82 78 68 61 55
104 131 135 133 125 84 66 49 33 27 15 11 8 5 3 2
0 0 0 0 0 0 0 0 0 0 0 0 0 0 0 0
0 0 0 0 0 0 0 0 0 0 25 36 36 35 35 34
1 2 1 0 0 0 4 11 10 9 6 39 53 12 0 8
15 0 0 0 0 0 0 0 0 0 0 0 0 12 25 26
24 22 21 20 19 18 18 18 17 17 18 18 18 18 19 48
63 65 63 68 83 95 100 99 94 87 83 76 70 67 66 61
59 60 58 58 61 63 69 72 79 76 69 66 63 59 55 55
80 99 108 104 82 31 28 42 43 39 8 0 0 0 0 0
0 0 1 0 0 0 2 0 0 0 0 0 0 0 0 0
0 0 0 0 0 0 0 0 0 0 17 36 35 35 35 34
3 3 1 0 0 1 7 16 15 11 3 46 47 12 22 36
36 8 0 6 4 0 0 0 0 0 0 0 0 8 13 11
10 14 19 18 17 16 16 16 15 16 17 16 20 31 35 54
64 66 64 63 80 96 100 101 98 90 84 81 72 66 67 63
61 58 59 59 59 55 51 52 57 60 54 50 45 39 70 100
87 102 118 114 112 42 24 53 53 46 11 0 2 5 9 14
24 36 18 38 41 32 56 60 64 21 0 0 0 0 0 0
0 0 0 0 0 0 0 0 0 0 10 33 32 32 32 31
5 4 5 7 13 16 18 15 14 5 8 49 28 9 31 39
39 15 4 29 29 13 0 4 8 3 0 0 0 0 0 0
0 3 15 16 15 14 14 14 13 13 14 31 45 28 44 60
65 68 64 62 77 94 102 100 98 95 88 83 77 75 68 59
57 53 53 55 51 51 45 42 43 44 44 45 31 5 51 107
56 53 91 26 22 19 26 49 48 45 82 83 103 113 120 126
127 129 85 131 111 103 127 114 111 50 0 0 1 2 0 0
0 0 0 0 0 0 0 0 0 0 3 26 26 26 25 26
3 4 5 8 15 20 16 6 4 0 14 53 21 4 33 41
39 13 21 45 40 27 3 3 2 0 0 0 0 0 0 0
0 1 12 13 13 13 12 12 12 12 36 94 30 47 54 64
66 69 65 59 72 88 100 103 99 96 88 82 77 76 71 67
60 51 49 47 46 47 42 35 44 64 58 52 55 28 44 114
110 88 80 8 2 17 28 49 47 45 89 81 75 86 93 102
112 117 67 83 78 102 96 65 63 44 2 17 8 20 1 0
0 0 0 0 0 0 0 0 0 0 0 22 27 27 27 26
0 1 1 5 14 19 8 0 0 0 18 57 22 6 24 12
27 28 41 49 39 28 7 5 1 0 0 0 0 0 0 0
0 0 12 13 13 12 12 13 32 71 104 108 52 57 59 65
66 68 66 59 66 80 92 100 103 98 87 79 77 77 74 70
67 59 49 40 35 24 19 35 66 75 61 47 58 49 68 118
114 115 108 87 28 19 30 51 46 44 59 63 66 76 79 97
94 89 52 68 102 106 86 92 87 39 3 14 9 12 2 0
0 0 0 0 0 0 0 0 0 0 0 9 26 27 27 26
0 1 0 5 13 17 5 0 0 0 19 59 29 6 12 2
23 39 51 46 26 27 9 1 0 0 0 0 0 0 0 0
0 0 8 14 15 18 67 84 107 111 111 114 76 58 59 65
66 69 67 60 64 74 90 97 101 101 91 82 78 74 74 72
71 67 58 41 36 43 53 70 80 76 64 47 50 50 89 114
113 114 113 105 101 94 87 82 74 58 62 65 56 72 66 68
57 38 39 52 64 52 35 36 40 18 0 4 5 1 0 0
0 0 0 0 0 0 0 0 0 0 0 1 24 26 24 26
3 2 2 7 14 16 7 6 4 0 19 60 45 14 8 3
29 47 54 30 3 21 8 0 0 0 0 0 0 0 0 0
0 1 19 56 88 103 108 117 119 119 114 110 92 57 56 61
66 69 68 62 62 71 84 98 101 99 96 90 80 74 71 68
66 63 57 59 69 77 82 86 84 78 68 54 49 55 108 110
111 115 112 103 101 104 103 103 106 101 95 70 41 16 17 8
7 10 11 13 25 20 15 13 0 0 2 3 2 10 0 0
0 0 0 0 0 0 0 0 0 0 0 1 26 27 25 27
6 5 5 16 22 22 17 19 14 0 13 52 48 23 4 3
30 48 38 14 0 21 8 0 0 0 0 0 0 0 1 31
73 105 124 124 119 111 119 119 125 126 119 110 108 65 59 55
68 72 69 65 64 70 81 93 100 99 97 94 88 80 70 63
59 63 74 80 84 88 90 89 83 79 73 59 47 84 114 110
109 113 113 97 100 106 103 106 106 102 104 101 95 87 63 44
33 32 30 21 36 34 23 21 0 0 10 5 1 9 7 0
0 0 0 0 0 0 0 0 0 0 0 2 27 27 28 27
6 4 10 26 25 22 19 19 15 0 9 52 53 31 1 4
28 30 9 1 0 3 0 0 0 0 0 0 7 47 90 114
119 120 122 119 118 115 121 121 127 134 127 117 111 107 59 56
68 72 70 68 66 68 79 94 98 100 101 96 93 87 82 76
72 74 79 86 89 95 95 92 85 82 75 67 71 114 114 119
113 118 117 101 102 105 106 104 101 103 111 114 109 102 101 102
98 87 73 43 32 30 29 38 2 0 9 4 0 1 4 2
0 0 0 0 0 0 0 0 0 0 0 3 25 24 29 26
6 2 4 16 25 27 26 23 19 1 3 34 31 16 0 0
3 1 0 0 0 0 0 0 0 0 20 62 107 122 120 116
117 120 124 125 125 123 128 131 128 130 133 127 121 125 99 61
59 72 72 71 71 69 76 91 102 104 101 95 97 94 90 83
82 84 86 89 99 104 99 92 86 85 79 75 116 123 121 125
126 124 115 109 105 108 105 106 105 108 114 119 123 116 111 111
109 107 107 106 95 69 68 75 5 1 9 1 3 0 3 1
0 0 0 3 0 0 0 0 0 0 0 5 26 24 27 30
10 3 0 2 10 16 13 7 3 0 0 1 0 0 0 0
0 0 0 0 0 0 0 14 57 103 119 120 125 134 132 125
120 116 121 126 124 126 127 132 126 132 136 134 124 122 126 97
59 70 74 76 74 73 74 87 98 99 98 95 96 96 91 86
87 86 88 99 104 102 98 91 89 88 87 119 126 126 131 130
125 127 113 112 111 110 113 115 119 121 120 122 122 125 125 120
116 118 114 113 109 108 106 92 23 1 3 0 1 1 1 0
0 0 0 3 0 0 0 0 0 0 0 12 26 24 26 30
4 0 0 0 0 0 0 0 0 0 0 0 1 4 4 0
2 2 6 1 7 35 77 116 126 129 135 135 134 133 136 135
131 126 117 118 124 130 129 127 126 132 137 136 133 121 128 132
101 74 82 79 77 76 76 82 91 98 98 95 91 92 90 87
88 93 99 102 103 101 95 89 90 95 119 130 126 131 132 128
128 120 116 114 114 109 117 118 116 119 122 126 128 129 129 127
118 117 120 117 117 113 113 107 95 40 1 1 0 1 2 1
0 0 0 1 0 0 0 0 0 0 0 13 28 27 26 28
0 0 0 0 0 0 0 0 0 0 0 0 21 30 24 12
17 20 26 50 92 115 118 119 118 121 130 136 137 136 135 137
132 110 111 115 119 124 133 130 129 129 136 137 135 132 125 126
131 121 93 86 79 78 78 81 90 99 101 99 96 96 100 99
97 98 101 105 104 100 96 91 97 122 133 128 133 134 130 132
129 120 117 120 117 113 116 122 121 120 122 126 125 125 129 128
124 120 121 126 125 121 119 110 105 97 57 7 0 0 7 4
0 1 0 1 0 0 0 0 0 0 2 17 31 32 31 32
0 0 0 0 0 0 0 0 0 0 0 0 20 32 31 42
30 56 103 117 115 98 88 88 100 102 112 121 126 126 122 112
115 134 132 119 122 121 124 129 130 133 134 137 136 135 129 129
124 129 122 98 82 81 80 77 86 98 102 100 97 95 101 98
96 99 102 104 104 103 96 107 131 132 125 129 133 133 132 131
122 128 125 122 118 114 117 120 123 123 124 129 128 126 126 127
128 123 115 120 125 119 122 113 109 103 98 73 10 0 5 5
0 3 0 0 0 0 0 0 0 0 2 17 29 30 31 31
6 0 0 0 0 0 0 0 0 0 0 0 4 26 36 48
72 110 117 117 118 80 54 55 52 56 57 65 116 127 133 139
132 115 122 137 129 126 124 131 134 135 134 135 137 136 133 132
128 128 132 131 117 89 80 75 83 95 101 101 97 93 99 98
97 100 104 105 106 110 123 133 131 132 129 131 132 133 133 127
127 125 131 126 123 123 122 124 123 123 124 130 129 124 124 126
129 129 124 116 125 128 128 117 114 107 108 103 81 15 7 3
0 0 0 0 0 0 0 0 0 0 1 11 21 24 24 27
2 0 0 0 0 0 0 0 0 0 0 0 0 13 41 90
108 115 120 122 122 89 56 52 65 63 59 66 114 122 119 119
126 137 124 112 125 133 134 134 136 136 137 135 136 135 136 137
131 123 126 135 134 130 113 84 79 92 101 101 96 87 94 96
99 103 110 117 122 129 132 132 132 133 133 133 133 132 128 132
129 127 133 129 126 123 120 126 129 128 125 127 126 126 126 128
129 129 127 121 125 127 125 120 123 111 113 110 102 85 25 1
0 0 0 0 0 0 0 0 0 0 1 15 28 30 29 30
0 0 0 0 0 0 0 0 0 0 0 0 0 21 96 112
119 121 122 131 131 105 49 45 51 52 54 60 119 125 122 120
119 118 128 135 116 126 136 136 136 135 135 136 134 136 136 136
136 130 127 124 129 127 124 125 118 110 109 107 99 94 101 110
121 131 133 133 128 128 126 133 131 133 131 131 130 125 130 132
130 129 131 132 130 126 122 128 130 127 125 129 129 129 127 128
128 128 128 128 127 127 127 124 125 116 114 115 110 101 85 23
0 0 1 0 0 0 0 0 0 0 1 14 25 28 28 28
0 0 0 0 0 0 0 0 0 0 0 0 16 91 110 115
129 125 121 133 131 128 118 124 69 50 50 57 124 131 132 135
135 125 112 94 91 116 138 136 136 136 134 133 135 136 135 135
135 134 131 130 130 124 122 118 122 127 132 132 130 131 132 134
133 131 131 130 130 126 128 127 129 126 128 126 129 131 132 130
131 130 129 130 130 125 119 124 129 124 125 127 128 127 127 127
127 127 127 126 125 125 125 125 122 117 116 119 113 108 101 85
24 0 0 0 0 0 0 0 0 0 0 11 22 25 25 26
0 0 0 0 0 0 0 0 0 0 0 6 84 107 110 117
131 130 123 127 130 127 109 103 109 113 87 80 112 116 117 117
119 120 91 91 90 116 136 135 135 133 134 134 135 134 134 134
134 134 133 134 130 122 120 119 121 122 125 129 128 127 124 127
126 122 124 131 130 130 129 132 130 126 129 127 131 131 130 130
130 129 129 129 129 127 123 124 125 124 121 127 128 127 127 127
126 127 127 126 126 125 125 124 123 119 117 124 120 111 107 101
90 29 0 0 0 0 0 0 0 0 0 7 16 20 21 24
0 0 0 0 0 0 0 0 0 0 3 71 110 112 111 117
124 134 132 128 134 124 136 137 133 116 110 117 120 123 125 123
117 99 96 111 126 134 132 133 133 135 135 134 133 134 135 135
134 134 133 134 132 125 129 123 120 120 127 123 127 124 122 127
126 125 127 129 127 130 130 131 130 130 130 131 130 131 130 130
128 126 129 129 128 128 128 126 127 126 122 126 128 127 127 127
126 126 126 124 125 125 124 124 125 123 119 124 122 116 110 105
100 91 30 0 0 0 0 0 0 0 0 0 1 2 3 10
0 0 0 0 0 3 3 1 0 0 56 110 115 116 113 122
117 136 134 128 131 120 120 115 117 118 128 131 126 125 123 120
125 132 136 136 135 134 134 135 135 135 135 135 135 134 133 134
134 134 134 133 134 132 125 125 122 128 130 131 128 122 125 124
124 129 128 130 130 130 130 128 127 130 130 129 129 130 130 129
128 125 129 129 129 128 127 126 126 126 123 126 127 127 127 126
126 126 126 123 125 125 124 124 125 123 116 124 122 120 117 109
108 99 90 25 0 0 0 0 0 0 0 0 0 0 0 4
0 0 1 2 0 3 4 5 3 41 112 113 115 127 121 126
118 129 132 123 126 122 129 137 132 127 128 119 118 131 137 136
137 136 136 136 135 135 135 133 135 135 134 135 135 135 134 134
135 134 133 133 133 133 130 121 126 127 128 130 129 131 126 123
127 131 132 131 131 130 129 129 131 130 130 129 130 129 129 130
130 124 125 129 128 128 124 122 126 124 121 126 127 127 127 127
127 126 126 126 122 126 125 124 124 124 116 124 124 123 120 116
115 106 99 86 16 0 0 0 0 0 0 0 0 0 0 4
0 1 3 1 0 1 4 7 27 107 113 116 121 127 127 123
121 122 136 131 131 124 105 108 103 114 136 137 137 136 136 137
136 136 136 135 136 135 134 135 135 135 134 134 135 135 135 134
134 134 135 134 134 134 134 133 131 128 129 129 128 130 130 131
132 130 131 132 132 131 130 131 132 130 131 130 130 129 130 130
128 125 128 129 128 128 128 127 126 124 121 124 127 127 127 126
126 126 126 125 120 125 125 125 125 125 122 125 125 125 122 117
116 109 105 99 87 18 0 0 0 0 0 0 0 0 0 4
0 1 5 3 2 0 2 13 90 113 113 119 129 130 133 127
127 117 135 131 127 120 110 134 134 131 136 137 136 136 136 136
136 136 136 136 135 135 135 134 135 133 134 135 134 135 135 136
135 134 134 134 134 134 133 133 134 133 131 128 131 132 132 131
130 130 132 132 132 131 130 130 130 131 130 130 129 130 130 129
127 125 124 128 129 128 128 127 127 124 123 126 127 127 127 126
127 126 126 126 122 121 125 125 124 125 122 125 125 125 124 123
119 117 113 102 98 74 1 0 0 0 0 0 0 0 0 4
0 0 6 6 7 4 4 72 126 113 116 124 133 134 135 121
126 117 129 134 127 110 50 42 46 50 123 128 136 136 136 136
136 136 134 125 118 115 133 135 135 135 135 135 134 135 135 134
134 134 134 134 134 134 134 133 134 133 133 134 133 133 132 133
132 132 132 132 132 132 131 132 131 131 131 130 131 130 130 129
128 125 126 128 129 129 128 128 127 125 124 126 127 127 127 127
126 126 127 126 120 120 126 126 126 125 121 125 125 125 124 125
125 121 118 114 102 98 27 0 0 0 0 3 14 16 13 14
0 0 3 7 8 9 26 115 121 117 119 121 133 137 137 120
126 119 112 130 131 113 51 24 29 29 83 87 98 113 118 117
112 102 91 89 93 95 131 136 135 135 135 135 135 136 136 135
136 135 134 135 135 134 134 133 133 133 132 132 131 133 132 132
133 132 133 133 133 133 132 132 132 131 132 131 131 131 131 131
131 129 125 129 129 129 128 128 128 127 124 127 127 127 128 128
128 128 128 128 124 121 126 125 126 127 122 125 126 125 125 125
124 122 119 117 117 108 89 7 0 0 0 4 19 23 24 21
0 0 0 3 7 14 92 119 114 120 119 127 135 135 137 120
124 120 97 128 134 116 56 22 27 28 65 85 81 85 89 89
88 87 87 90 93 96 129 136 136 136 136 136 136 135 135 135
134 134 135 134 134 134 133 134 133 134 134 134 134 133 133 132
133 132 133 133 133 133 132 133 132 132 131 131 131 131 131 131
130 129 124 129 130 130 129 129 129 128 125 128 129 128 127 128
128 128 127 128 126 116 124 126 127 126 123 126 126 126 126 126
126 125 122 124 121 107 107 51 0 0 0 0 0 1 2 2
0 0 0 0 7 24 114 117 119 116 129 132 131 135 137 126
120 126 103 122 135 118 61 20 27 28 54 94 95 88 89 92
93 87 91 93 96 96 128 136 136 135 135 135 135 136 135 135
135 135 135 134 135 134 134 134 134 134 133 134 134 133 133 134
133 134 133 133 132 132 132 132 132 132 132 131 131 131 130 131
129 128 124 130 130 129 128 128 128 127 126 128 126 129 128 129
129 129 128 128 126 116 125 127 126 125 124 125 126 126 126 125
126 124 125 124 120 112 112 99 17 0 0 0 0 0 0 0
0 0 0 0 3 72 131 118 121 126 130 128 127 135 137 130
113 131 105 109 136 116 66 18 27 28 29 103 136 131 131 135
118 91 94 95 95 95 126 135 136 135 135 136 135 135 135 135
134 134 133 134 134 134 134 134 134 133 134 134 134 133 134 134
133 133 133 133 132 132 132 132 131 132 131 132 131 131 131 130
129 126 123 128 130 129 129 128 129 128 123 126 129 129 129 128
129 128 128 128 127 118 124 126 127 123 125 127 127 126 127 126
125 125 126 125 121 117 111 109 75 2 0 0 0 0 0 0
0 0 0 0 18 124 123 128 131 127 129 126 135 135 134 134
111 135 114 92 133 109 66 18 27 28 28 78 135 136 135 136
125 95 95 95 96 92 124 136 136 135 135 135 135 135 135 135
135 135 134 135 135 135 134 133 134 133 133 133 133 133 133 133
133 133 132 133 132 132 132 132 133 133 132 131 131 131 131 130
130 129 126 124 130 129 130 129 129 129 125 124 129 129 129 129
129 128 128 128 127 122 123 123 126 123 123 126 126 126 127 126
126 126 125 125 125 117 110 114 117 37 0 0 0 0 0 0
0 0 0 0 75 134 119 127 137 136 129 129 131 134 129 134
113 135 123 88 131 111 67 16 26 29 29 66 130 136 136 136
127 96 96 95 94 89 124 135 135 135 136 135 135 135 135 135
135 135 134 134 134 134 134 134 133 134 134 134 133 134 133 133
133 133 132 132 132 132 132 131 132 132 132 132 132 131 131 131
130 130 125 126 130 130 130 130 129 129 128 124 128 129 129 128
128 128 128 127 128 122 118 123 127 124 123 125 127 126 126 125
126 126 126 126 124 121 109 117 121 92 5 0 0 0 0 0
0 0 2 24 122 132 122 126 136 136 136 125 131 133 136 131
111 134 123 85 122 115 70 17 25 28 29 56 126 136 136 136
129 97 94 94 92 89 120 135 134 135 135 135 135 135 134 134
135 134 134 135 134 134 134 133 134 133 133 133 133 133 133 132
133 132 133 132 132 132 132 132 133 131 132 131 131 131 130 129
128 127 125 119 126 129 130 130 129 129 129 125 126 128 129 129
128 128 128 128 128 121 116 122 127 121 124 125 125 126 125 126
125 124 125 125 124 123 115 119 121 118 39 0 0 0 0 0
