P2
128 120
140
33 36 43 44 45 42 37 31 31 31 31 31 31 30 30 29
29 29 28 29 27 27 27 26 26 26 25 25 25 24 24 23
22 22 22 22 21 20 21 20 20 19 19 18 18 18 17 17
17 17 18 20 23 23 22 21 15 15 14 20 20 19 19 19
18 19 17 17 17 15 18 19 21 21 22 22 21 21 21 22
21 21 22 22 22 22 23 23 23 24 25 24 24 24 24 25
25 25 25 26 26 26 26 26 26 27 26 27 26 26 27 28
27 27 26 27 27 27 27 27 27 27 28 27 27 27 26 27
4 10 18 25 32 42 41 31 30 30 30 30 30 30 29 29
29 28 28 27 28 27 27 26 26 25 25 24 24 24 24 23
23 22 22 22 22 21 20 20 20 19 19 18 18 17 17 16
17 17 17 19 22 23 22 21 15 16 15 19 20 20 20 19
18 19 18 18 17 15 18 18 21 21 21 21 21 21 21 22
22 21 22 22 23 22 23 23 24 24 25 24 24 24 24 25
25 25 25 26 26 25 26 27 27 27 27 26 26 27 26 27
27 27 27 27 27 27 27 26 27 26 27 27 27 27 27 27
0 0 0 0 0 33 42 32 31 31 31 30 30 29 29 29
29 28 28 28 27 26 27 26 26 26 25 25 25 25 24 24
23 22 22 22 21 21 21 20 20 19 19 19 19 18 18 18
17 18 18 20 23 23 23 22 15 16 16 19 21 20 20 19
19 21 18 18 18 15 19 19 21 21 22 22 22 22 22 23
23 22 22 23 23 23 24 24 24 24 25 24 25 25 25 26
26 25 25 26 26 26 27 26 26 27 27 27 27 28 27 27
27 27 26 26 27 27 27 27 27 27 27 26 27 27 27 27
0 0 0 0 0 32 43 32 30 31 30 30 30 30 29 29
29 28 28 28 27 27 27 26 26 26 25 26 25 25 24 24
23 23 22 23 22 22 21 21 20 20 20 19 18 18 18 18
18 18 19 20 24 24 23 23 16 17 18 18 21 20 20 19
20 21 19 19 19 16 19 20 22 22 23 23 23 22 23 22
23 23 23 23 23 23 24 24 24 24 25 24 25 25 25 25
25 25 26 26 27 26 27 27 27 27 27 26 27 27 26 26
27 26 27 27 27 27 27 27 26 26 27 26 27 26 26 26
1 3 0 0 0 30 42 32 30 31 30 30 30 30 30 30
29 29 28 27 27 27 27 27 26 26 26 25 25 25 24 23
23 22 22 22 22 22 21 21 21 20 20 20 20 19 19 18
19 18 19 21 24 24 24 22 17 17 19 17 21 21 21 20
20 22 20 20 19 17 20 20 22 21 23 23 23 23 23 23
23 23 24 24 23 24 24 24 25 24 25 25 25 26 25 25
26 26 27 26 26 26 26 26 26 25 25 27 26 27 27 28
27 28 26 27 27 27 28 27 26 27 27 27 26 27 27 27
4 4 0 0 0 30 41 31 30 31 30 29 29 29 29 28
29 28 28 28 27 27 27 27 27 26 26 26 25 25 24 24
23 23 23 22 22 22 22 21 21 20 20 19 19 19 19 18
18 18 19 20 24 24 25 24 17 17 21 17 21 21 21 20
21 20 20 19 20 16 20 20 23 22 23 23 24 23 23 23
23 23 23 24 24 25 24 24 25 24 25 25 25 26 26 26
26 26 26 26 26 26 26 27 27 27 27 27 27 27 27 26
27 28 27 26 27 26 26 25 26 26 27 27 27 27 27 27
0 0 0 0 0 30 41 31 31 30 30 29 30 29 30 29
29 29 28 28 28 28 27 27 27 26 25 25 25 25 24 24
24 23 23 23 22 22 22 22 21 21 21 20 19 19 20 19
19 19 20 22 24 24 24 23 16 17 22 16 21 22 22 21
21 21 20 20 20 17 20 20 23 23 23 24 23 23 24 24
24 23 24 24 24 25 25 25 25 25 26 25 26 25 24 25
26 26 26 27 27 27 28 28 27 27 27 27 27 27 27 27
27 28 27 27 27 26 27 27 26 26 27 26 27 26 26 26
0 2 4 0 0 29 41 31 30 30 31 30 30 29 29 29
29 28 27 28 28 28 27 27 27 26 26 25 25 25 24 24
23 23 23 22 23 22 22 22 22 21 21 20 20 20 19 19
19 19 20 21 24 25 25 24 17 17 23 16 22 22 22 21
20 19 20 19 20 18 20 20 23 23 23 24 25 24 24 25
25 24 24 25 25 25 25 25 25 25 25 25 26 26 26 26
26 26 27 27 27 27 27 28 27 27 27 28 27 27 27 27
28 28 27 27 26 27 27 26 27 27 26 26 27 27 26 26
0 0 1 0 0 28 40 31 30 30 30 30 30 29 29 30
30 29 29 28 28 28 27 27 27 26 26 26 25 25 25 24
24 24 23 23 23 23 22 22 21 21 21 20 20 20 20 20
19 20 20 21 25 25 25 24 18 17 24 16 22 22 22 22
21 20 21 21 20 18 20 21 23 23 24 24 24 24 24 25
25 25 25 25 25 25 25 25 26 26 25 26 26 26 26 26
27 27 27 27 28 28 28 27 28 27 27 27 27 27 27 27
26 28 27 27 27 27 27 27 27 27 27 27 27 26 27 26
0 0 0 1 3 29 40 31 31 30 30 30 30 29 29 29
29 28 29 28 28 27 27 27 27 26 26 26 26 25 25 24
25 24 24 24 23 23 23 22 22 21 21 21 21 21 20 20
19 20 20 22 25 26 26 25 19 18 26 18 22 23 22 22
20 21 21 21 20 19 20 21 24 24 25 25 24 25 25 24
24 24 24 25 25 25 25 26 25 25 26 26 26 27 27 27
27 27 28 28 28 28 28 28 28 27 27 27 28 27 27 27
27 28 28 27 27 26 26 27 27 27 27 27 27 27 27 27
22 16 12 9 13 34 39 31 31 31 30 30 30 30 30 29
29 29 29 28 28 28 28 27 27 26 26 26 25 25 25 24
24 24 24 24 24 24 23 23 23 22 22 22 21 21 20 20
20 21 21 22 26 26 26 26 19 17 25 19 21 23 20 21
22 19 20 20 22 20 21 22 24 25 25 24 24 24 24 25
25 25 25 25 26 26 26 26 26 26 27 26 27 27 27 27
28 28 29 28 28 28 29 28 28 28 28 27 27 27 28 28
27 27 28 28 28 28 28 27 27 27 27 27 27 26 26 26
26 28 30 31 31 34 35 31 30 30 31 30 30 30 30 30
29 29 29 28 28 28 28 28 28 27 27 26 26 25 25 25
24 24 24 24 24 24 23 23 23 22 22 22 22 21 21 21
21 21 22 23 26 27 27 26 19 18 26 20 21 22 22 22
18 17 15 15 18 18 20 21 24 25 25 24 25 25 26 26
26 26 26 27 26 26 26 26 26 26 27 27 27 27 28 28
28 28 29 28 28 28 28 28 28 28 28 27 28 28 28 29
28 28 28 28 28 28 27 27 26 26 25 26 26 27 26 26
17 20 23 26 29 30 31 31 31 31 31 30 30 30 30 29
29 29 29 28 28 28 28 28 28 27 27 26 26 26 26 25
25 25 25 25 25 24 24 23 23 23 23 22 22 21 21 21
21 21 22 23 26 27 27 26 20 18 26 21 18 17 17 13
12 8 11 15 18 20 14 16 20 21 21 23 26 26 26 26
26 26 27 27 27 27 27 27 27 27 27 28 28 28 28 28
28 28 29 29 29 28 29 28 29 28 28 28 28 28 28 28
28 28 26 26 27 26 26 27 28 28 28 27 26 27 27 26
10 10 11 13 15 18 22 25 28 30 31 31 31 31 30 30
29 30 29 28 28 28 28 28 28 27 27 27 27 27 26 26
26 25 25 25 25 23 24 24 23 23 23 22 23 22 22 22
22 22 23 24 27 27 27 27 20 17 20 9 3 3 4 0
0 1 3 4 3 0 0 2 7 5 9 17 17 20 26 27
26 27 27 27 28 26 27 27 27 27 27 27 28 28 28 29
29 29 30 29 29 29 29 29 29 29 28 28 28 27 27 27
28 27 27 27 28 28 28 26 28 27 28 26 26 26 26 27
10 10 10 9 10 11 11 11 12 13 17 19 23 26 27 29
30 29 29 29 29 28 28 28 28 27 27 27 27 27 26 26
26 25 25 25 25 25 25 24 24 24 24 23 23 22 22 22
22 22 22 23 27 27 25 25 17 8 1 0 1 1 0 1
0 0 1 2 1 2 1 1 0 0 2 7 5 7 13 23
27 27 27 28 28 28 28 28 28 28 28 28 28 29 29 29
29 29 30 29 29 29 29 28 29 28 28 28 28 28 29 29
28 28 28 27 27 28 27 28 28 28 28 27 27 27 27 27
19 17 17 15 13 12 11 10 10 10 10 10 9 7 12 25
31 30 30 29 29 29 29 28 28 28 28 27 27 27 26 26
26 25 26 25 25 25 25 24 24 23 23 23 23 23 23 23
23 22 22 24 27 26 25 24 7 0 0 0 0 0 1 4
0 7 8 0 0 2 1 2 1 0 1 6 8 8 7 11
18 27 28 28 29 28 28 28 28 28 28 28 29 28 28 28
29 29 28 28 28 28 29 28 28 28 30 28 28 28 28 28
28 27 28 27 28 27 27 27 28 27 28 27 27 27 27 28
36 39 41 38 35 23 15 15 13 10 9 10 8 5 9 24
30 29 29 29 28 27 28 29 29 28 28 27 27 26 26 26
26 25 26 25 27 31 29 27 26 24 23 23 23 22 22 22
22 22 22 21 23 18 13 4 0 0 0 0 0 0 0 0
0 1 0 0 1 1 2 2 1 0 0 0 0 0 2 4
9 15 27 28 28 28 28 28 29 28 29 28 28 28 28 28
28 27 28 28 28 28 28 27 27 28 29 28 28 27 28 28
27 28 28 27 27 27 27 27 27 27 27 26 26 27 27 27
41 40 44 43 42 30 24 30 32 26 24 20 14 8 9 23
30 29 30 29 29 32 32 31 29 28 27 26 27 26 27 26
25 25 26 25 31 37 35 32 31 29 24 23 23 23 22 22
21 21 13 3 1 0 0 0 0 0 0 0 0 0 0 0
0 0 0 0 0 0 0 0 0 0 0 0 2 0 0 1
2 2 11 27 28 29 28 27 27 27 28 29 28 28 28 28
28 28 29 28 28 28 29 28 28 27 28 28 28 27 28 28
28 27 28 28 27 27 27 27 27 27 27 26 27 26 26 27
30 35 40 43 44 33 30 35 37 33 40 40 34 12 11 24
30 30 30 29 30 39 38 37 34 32 31 30 28 27 27 26
26 26 26 25 31 36 34 32 33 33 27 24 24 23 23 22
15 9 0 0 0 0 0 0 0 0 0 0 0 0 0 0
0 0 0 0 0 0 0 0 0 0 0 0 0 0 0 0
2 3 3 12 28 28 29 28 28 28 28 30 29 28 28 28
28 28 28 28 28 28 28 28 28 28 29 28 28 28 28 28
28 28 28 28 27 27 28 28 27 27 28 27 27 27 26 26
3 6 10 16 26 34 33 36 38 38 42 42 40 13 11 25
32 31 31 30 31 39 39 36 35 35 36 36 32 32 31 28
26 26 26 26 28 25 25 27 30 31 28 23 23 23 22 13
10 1 0 0 0 0 0 0 0 0 1 1 0 1 5 0
3 3 1 0 0 1 0 0 0 0 0 0 0 0 0 1
3 2 1 2 18 28 29 28 28 28 28 30 28 28 28 28
28 29 29 28 28 28 28 29 28 28 28 28 28 28 28 28
27 27 27 27 28 28 27 28 27 27 28 27 27 27 27 26
0 0 1 1 10 35 33 36 38 40 42 42 41 17 12 28
33 31 32 32 32 32 28 33 36 38 40 37 24 23 29 30
31 31 32 29 27 14 8 8 9 11 24 24 23 23 17 3
1 0 0 0 0 0 0 0 0 0 0 0 0 1 1 2
7 6 8 7 11 15 11 6 12 3 3 0 0 1 3 1
2 14 7 0 2 15 28 29 29 28 28 29 29 29 29 29
29 29 29 29 29 28 29 28 28 28 29 29 29 28 28 28
28 27 28 28 27 27 27 27 27 28 28 27 27 27 27 27
0 0 9 7 12 33 22 28 32 38 40 40 39 18 12 28
34 29 30 34 37 20 0 5 19 24 26 32 10 0 1 5
10 15 23 27 28 13 1 3 2 0 21 25 24 22 6 2
0 0 0 0 0 1 0 0 0 0 0 0 0 0 0 2
3 2 12 18 21 31 26 23 26 27 23 8 6 0 0 0
0 0 3 2 2 2 20 29 29 28 29 29 29 28 29 29
28 29 29 29 29 28 28 28 28 29 29 29 29 28 28 28
28 27 28 28 29 28 28 29 28 28 27 27 27 26 26 26
0 0 8 6 13 30 1 2 6 12 18 20 33 20 11 24
33 32 31 35 40 22 0 0 5 8 9 24 10 0 0 0
0 0 0 4 27 10 0 0 0 0 21 25 23 15 3 0
0 0 0 0 0 0 0 0 0 0 0 0 1 3 1 0
1 8 17 23 23 38 38 38 34 29 27 18 26 22 7 0
0 0 0 0 0 2 4 24 28 29 28 29 30 29 29 29
29 29 29 29 28 28 28 29 28 28 29 29 29 28 27 28
28 28 28 28 28 28 28 28 28 27 27 26 27 27 27 27
0 0 0 0 10 30 0 0 0 0 0 0 20 21 10 4
7 13 20 29 35 25 0 0 0 2 3 21 13 0 0 0
0 0 0 2 27 6 0 0 0 0 22 26 23 8 1 0
0 0 0 0 1 2 0 0 0 1 0 3 2 0 0 0
0 3 9 13 26 45 54 61 59 59 50 44 41 37 36 20
2 0 0 0 0 6 6 12 29 30 30 30 30 29 29 29
30 29 29 30 29 29 29 29 29 29 30 28 29 29 29 29
28 28 28 29 29 29 29 28 28 28 28 28 27 27 27 26
0 0 1 0 10 30 0 0 0 0 0 0 20 22 10 0
0 0 0 0 4 14 0 0 0 0 0 17 11 0 0 0
0 0 0 1 25 3 0 0 0 0 23 26 20 3 0 0
0 0 0 0 1 0 0 0 1 0 0 4 0 0 0 0
0 1 6 16 26 48 72 84 88 89 89 86 79 65 51 47
31 6 0 0 0 1 7 12 22 29 29 30 29 29 29 30
30 30 30 30 29 29 30 29 29 29 29 28 29 30 30 29
29 29 28 29 29 28 28 28 28 27 27 28 27 27 27 26
7 8 8 0 10 30 0 0 3 5 0 0 20 22 10 1
0 0 0 0 0 8 0 0 0 0 0 20 14 0 0 0
6 2 0 0 25 3 0 0 0 0 20 26 12 1 0 0
0 0 0 1 4 0 0 1 1 0 6 0 0 0 0 2
2 3 8 20 46 67 80 92 96 100 100 99 94 91 80 64
49 36 7 0 0 0 4 5 15 28 30 30 30 29 30 30
30 30 30 29 29 29 29 29 29 29 29 30 30 29 30 29
28 28 28 29 29 29 29 28 28 29 29 28 28 28 28 28
0 2 3 0 9 30 0 0 0 10 0 0 19 21 10 1
0 0 0 0 0 6 0 0 0 0 0 19 16 0 0 0
8 8 5 0 23 4 0 0 0 0 18 26 4 1 0 0
0 0 0 1 2 0 0 2 0 0 1 0 0 0 2 5
3 6 10 28 61 83 89 95 98 100 101 101 98 96 92 82
64 46 34 5 0 0 1 2 4 16 30 29 30 29 29 29
30 30 30 30 30 30 30 30 30 29 30 30 29 29 30 29
29 28 29 30 29 29 29 29 29 29 29 29 29 29 28 29
1 1 0 0 9 28 0 0 0 0 0 0 19 20 11 1
0 0 3 0 0 5 0 0 0 0 0 19 18 0 0 0
8 9 8 1 23 6 0 0 0 0 16 21 1 1 0 0
0 0 1 3 0 0 1 4 0 0 0 0 0 6 0 0
1 2 14 34 61 84 98 101 101 103 103 101 99 99 97 93
81 63 47 28 2 0 0 3 0 5 24 29 30 30 30 29
30 30 30 30 30 30 30 30 30 30 29 29 29 30 30 29
29 29 29 30 30 31 29 29 29 28 27 26 26 27 28 27
0 1 0 0 9 27 0 0 0 0 0 0 19 21 10 1
2 0 0 0 0 5 0 0 0 0 1 20 21 0 0 0
2 7 8 0 23 24 13 8 5 4 19 16 3 0 0 0
0 0 2 5 0 0 6 0 0 0 1 0 0 4 1 1
0 2 13 36 55 88 99 102 102 104 106 106 100 95 97 98
92 82 64 45 21 0 0 3 6 0 13 27 29 30 30 30
30 30 31 32 31 31 31 31 31 30 30 30 30 30 30 29
29 29 29 29 27 28 27 28 27 25 22 20 18 15 13 10
24 23 16 12 19 29 2 0 0 0 0 0 20 21 11 1
2 0 0 0 0 7 2 0 0 0 1 21 32 12 9 6
2 0 3 0 21 37 34 33 33 35 36 12 2 0 0 0
0 1 0 2 0 0 5 0 1 0 0 0 1 0 1 0
2 2 13 36 54 87 101 105 106 105 107 108 105 102 104 102
99 93 81 58 39 10 0 0 6 0 4 24 30 29 30 30
30 31 30 31 30 30 30 29 29 30 29 28 28 28 29 27
27 26 25 24 21 18 16 13 12 10 9 9 8 9 10 9
27 35 37 38 35 41 34 19 23 23 23 19 28 18 10 2
0 0 0 0 0 16 31 21 19 15 8 21 40 24 23 25
22 19 18 17 31 36 33 34 37 41 35 4 0 0 0 0
1 0 1 2 1 0 1 0 1 1 0 3 0 2 0 3
3 3 15 34 57 90 101 106 108 107 108 109 108 107 110 108
102 95 89 76 50 27 2 0 3 3 0 17 28 30 29 30
30 30 30 30 29 29 29 28 27 27 26 25 23 21 19 16
14 12 12 11 11 10 10 12 12 13 14 14 14 15 15 15
12 12 9 9 37 52 44 25 34 40 40 40 38 18 10 2
0 0 0 0 0 20 45 36 38 41 41 40 35 11 10 11
12 12 14 18 22 19 21 25 30 31 22 0 0 1 0 0
3 0 1 5 0 3 0 0 4 0 3 0 0 0 3 6
7 10 22 32 55 87 102 107 109 109 109 113 112 108 107 108
102 97 95 88 68 41 15 0 1 4 0 4 25 30 31 31
30 30 29 28 26 24 29 23 17 16 14 14 12 13 13 14
14 14 15 16 17 17 18 18 18 19 19 19 20 20 21 20
4 3 1 1 40 51 36 26 35 40 40 43 41 19 11 8
4 1 0 0 0 20 40 35 41 45 45 37 28 13 10 9
8 7 7 5 5 5 7 9 22 23 13 0 0 1 0 0
8 3 0 5 1 5 0 4 0 2 4 0 0 0 1 7
8 7 18 35 62 91 102 105 111 111 111 114 117 107 107 110
111 99 95 90 80 57 29 3 0 5 0 0 18 26 25 22
21 18 17 16 15 14 25 21 11 14 16 17 17 18 19 19
20 20 21 22 22 23 23 23 23 23 23 23 23 23 24 24
0 0 0 1 38 45 19 10 18 22 25 28 36 19 11 23
35 32 25 19 15 28 30 33 40 43 45 40 31 17 10 8
6 5 5 5 5 6 6 9 21 11 10 2 1 3 0 4
9 5 0 2 0 4 0 5 2 6 3 0 0 2 1 2
8 7 15 29 59 91 104 105 109 110 110 113 114 110 107 110
110 101 97 89 85 72 40 13 0 5 2 0 7 16 16 16
16 16 17 18 18 17 20 19 15 20 22 23 23 24 25 25
25 25 24 24 25 25 25 25 25 25 26 26 26 25 25 24
0 0 0 0 34 44 14 0 0 0 0 0 19 21 12 25
42 42 41 41 41 42 20 14 22 27 32 32 32 18 10 6
2 1 3 7 8 6 9 12 23 18 8 2 2 1 0 6
2 7 0 0 2 1 2 3 0 0 1 1 0 3 1 1
4 9 17 27 56 84 106 107 108 110 110 118 115 114 107 108
106 102 95 93 88 78 56 24 0 1 4 0 4 17 21 21
22 23 22 24 24 23 24 24 19 24 25 25 26 26 27 27
27 27 27 27 26 27 26 27 27 27 27 27 27 26 27 26
0 0 0 0 31 45 14 0 0 0 0 0 17 22 11 22
40 41 40 41 42 41 10 0 0 1 5 12 29 18 8 3
0 0 0 3 3 0 3 5 23 23 5 2 5 0 0 9
6 2 0 1 5 0 1 4 2 3 0 3 0 2 1 0
8 8 17 28 53 88 108 110 108 110 112 116 117 116 108 105
104 98 95 91 85 77 65 35 7 0 2 0 3 18 26 26
27 27 27 27 27 24 14 11 20 27 28 28 28 28 28 28
29 28 28 28 28 27 27 27 27 27 28 27 27 27 27 27
0 0 0 0 25 42 12 0 0 0 12 17 22 24 18 21
30 31 33 33 37 37 7 0 0 0 0 4 30 17 6 2
0 0 0 0 0 0 0 0 22 17 5 9 4 0 0 3
8 0 1 1 9 0 5 4 5 7 0 0 1 1 0 4
7 9 18 24 50 88 111 113 112 111 111 116 117 115 112 106
105 101 97 93 88 78 70 45 19 1 2 0 4 21 28 28
28 28 29 28 27 24 5 1 15 28 30 30 29 28 29 29
29 29 29 29 28 28 29 28 28 28 28 29 27 27 27 26
0 0 0 0 22 39 10 0 0 0 15 22 20 22 17 18
18 20 26 25 31 36 6 0 0 0 0 0 29 13 2 0
0 0 4 0 0 0 0 0 19 13 6 9 0 3 0 6
4 0 1 0 8 0 8 2 0 3 0 2 0 2 3 6
4 12 14 23 51 92 110 113 114 110 111 114 118 118 118 108
106 103 97 93 89 80 72 56 33 6 2 0 4 24 29 30
29 25 17 11 11 22 6 2 12 27 30 31 30 29 29 29
29 29 30 30 29 29 28 28 28 27 27 28 27 27 26 26
0 0 0 0 23 39 9 0 0 0 4 10 15 19 16 17
19 21 26 27 33 35 6 0 0 0 0 0 30 6 0 0
0 0 5 7 1 0 0 0 17 8 2 6 2 7 0 1
2 2 3 4 15 1 3 2 2 7 3 0 1 0 7 4
7 10 19 29 65 100 110 110 113 112 111 115 117 113 111 105
105 103 97 93 88 80 72 64 42 20 2 1 7 27 29 27
10 2 0 0 2 14 3 0 12 28 30 30 30 29 29 29
29 29 29 29 29 28 28 28 28 28 28 28 28 28 28 27
0 0 0 0 27 40 8 0 0 0 0 0 7 16 15 13
5 9 14 19 24 28 6 0 0 0 0 2 31 6 0 0
0 1 7 12 8 0 0 0 15 8 4 1 3 6 0 0
0 0 1 12 13 1 4 0 1 7 1 0 1 0 2 2
10 11 23 40 81 101 113 113 113 111 109 112 108 101 101 96
99 101 98 92 87 81 72 67 48 33 6 2 3 8 3 3
0 2 0 0 0 2 5 0 13 28 30 31 31 31 31 31
30 30 30 30 30 29 28 29 29 29 28 29 29 28 28 28
0 0 0 0 30 40 8 0 0 1 0 0 9 22 21 13
0 0 0 0 0 7 5 0 0 0 0 1 31 4 0 0
0 7 15 13 8 0 0 0 15 6 2 2 0 2 0 0
0 0 1 6 13 4 3 0 5 8 1 0 1 1 2 2
12 14 30 46 89 103 115 114 110 108 108 104 92 81 79 76
80 93 95 92 86 81 75 72 58 47 18 3 0 0 0 0
0 13 1 0 0 0 7 0 16 30 32 32 31 31 31 31
31 31 30 30 30 30 29 29 29 29 29 31 30 29 28 28
6 3 2 1 33 41 8 0 0 3 0 0 11 29 23 15
0 0 0 0 0 5 6 0 1 6 0 1 29 3 0 0
0 2 10 10 0 0 0 0 9 4 0 0 0 0 0 0
0 0 1 2 16 9 0 6 3 3 1 1 5 1 3 10
10 24 39 54 90 106 113 114 110 105 102 90 81 83 78 72
53 59 70 80 85 83 79 77 65 52 30 3 0 0 0 0
0 3 0 0 0 0 15 7 22 31 32 32 32 32 32 31
31 31 31 31 31 31 31 30 30 30 30 30 29 30 29 29
27 29 31 26 34 36 15 0 0 6 3 0 9 30 22 16
0 0 2 0 0 4 6 0 8 12 3 1 29 3 0 0
0 0 4 8 0 0 0 0 7 1 0 0 0 0 0 0
0 0 3 2 13 4 1 7 0 4 1 1 4 1 5 12
15 31 51 75 87 110 114 113 108 101 90 78 80 93 83 61
42 33 25 44 62 76 79 77 67 53 26 1 1 10 0 0
0 0 0 0 0 3 23 23 28 32 32 33 32 31 32 31
32 31 31 31 31 30 31 31 30 30 30 30 30 30 31 29
8 11 16 16 22 33 29 20 15 19 20 15 19 31 19 14
0 1 13 6 0 4 12 4 14 14 9 4 29 3 0 0
0 0 3 11 0 0 0 0 4 1 0 0 0 0 0 0
0 0 0 0 8 6 0 1 2 7 0 3 1 2 4 16
17 37 52 89 94 110 111 110 106 99 90 80 82 88 77 63
49 42 45 35 41 60 70 73 64 39 8 0 0 3 0 0
0 3 7 8 8 19 27 28 32 32 32 32 32 31 31 31
31 31 31 31 31 31 31 31 30 30 30 29 29 26 28 29
0 0 7 7 16 34 30 20 20 27 33 37 39 37 21 14
0 2 12 5 0 4 31 31 36 34 34 33 37 4 0 0
0 0 3 12 0 0 0 0 1 2 0 0 0 0 0 0
0 0 4 1 5 5 0 0 4 0 1 1 3 1 6 23
20 43 57 89 100 107 111 110 108 103 93 92 99 100 90 75
64 57 54 54 47 53 64 68 54 21 20 11 0 0 1 0
0 15 31 30 30 28 28 30 32 32 32 32 32 31 32 32
32 32 32 30 31 31 30 30 30 30 30 29 29 27 29 29
0 1 4 8 22 35 28 3 0 2 7 21 40 36 20 15
1 0 1 0 0 3 34 37 40 40 42 47 44 21 16 14
8 8 13 18 7 6 5 3 4 0 0 0 0 0 0 0
0 0 1 0 9 6 0 1 7 0 0 6 1 2 11 19
25 46 67 85 108 107 111 110 110 103 98 98 99 103 104 88
67 56 50 60 64 61 67 61 46 39 44 31 0 0 13 1
0 15 32 32 31 30 30 31 31 32 32 31 32 32 31 31
31 31 31 31 31 30 30 30 30 29 30 30 29 29 29 29
12 25 10 3 20 37 27 1 0 13 15 21 39 32 20 18
12 0 0 0 0 2 32 36 37 38 42 46 44 34 32 31
29 28 28 26 23 20 19 18 14 2 0 0 0 0 0 0
0 0 3 0 14 5 0 2 6 0 0 3 1 2 14 19
35 44 74 91 107 107 110 112 109 104 99 100 99 103 83 59
46 37 40 51 63 72 74 55 44 47 46 36 0 0 2 0
0 12 32 32 31 30 31 31 31 31 32 32 32 32 32 31
31 31 31 30 31 30 30 30 29 29 29 29 29 28 28 29
24 26 3 0 20 38 27 0 0 9 23 28 38 26 19 20
9 0 0 0 0 2 31 32 34 33 33 30 30 32 33 33
32 32 32 32 30 31 31 27 23 1 0 0 0 0 0 0
0 4 12 0 1 2 0 3 1 0 1 0 0 5 12 22
43 41 83 107 112 106 110 112 105 100 96 95 83 63 61 48
28 16 34 46 67 82 75 47 45 45 40 30 0 0 0 0
0 10 32 32 32 31 32 32 32 32 32 32 32 31 31 31
31 31 31 30 31 30 30 30 30 29 29 29 29 28 28 27
19 30 1 0 19 40 28 0 0 0 5 26 40 25 21 20
9 2 1 0 0 2 33 31 31 31 32 31 32 35 34 37
40 37 32 32 32 39 39 37 32 3 1 0 0 0 0 0
0 24 14 0 1 0 1 2 0 5 2 0 1 9 14 25
41 50 96 114 116 114 112 106 103 99 96 81 56 51 95 87
30 2 30 49 76 92 74 44 44 41 24 21 0 0 1 0
0 9 32 32 32 32 33 33 32 31 31 32 32 31 31 31
31 31 31 30 30 30 30 30 29 29 29 28 29 29 27 27
8 13 1 0 20 40 28 0 0 0 0 20 39 25 20 19
28 30 28 26 26 27 40 35 33 33 33 35 37 38 36 38
44 40 31 28 30 40 41 38 34 4 0 0 0 0 0 0
2 44 6 0 0 1 1 1 3 1 1 0 5 8 17 32
51 69 108 117 120 115 111 108 103 98 84 60 48 79 94 104
32 11 33 68 97 106 83 49 49 65 16 1 0 0 1 1
0 7 32 31 32 32 32 32 32 32 31 31 31 31 30 30
30 30 30 29 30 30 29 29 29 29 29 29 28 28 27 27
0 0 0 0 19 40 27 0 0 0 0 18 40 25 20 20
38 46 45 45 47 47 46 36 31 31 30 34 40 42 37 38
39 36 33 29 27 31 28 26 26 5 0 0 0 0 0 0
10 34 1 3 1 2 1 1 1 0 3 1 8 6 25 50
68 97 110 116 120 117 113 113 109 98 77 81 83 91 81 77
43 32 37 87 103 109 93 63 65 92 16 2 0 0 0 2
1 6 24 30 32 32 32 32 32 32 31 31 31 31 31 30
30 30 30 30 31 29 29 29 29 29 29 28 28 28 27 27
0 0 0 0 17 40 25 0 0 0 0 18 41 25 20 21
34 42 43 44 45 45 45 24 12 8 7 10 20 39 36 25
12 15 17 18 28 24 5 1 2 3 0 0 0 0 0 0
10 22 6 16 11 7 1 1 1 0 0 2 5 6 36 75
89 103 113 115 117 115 113 116 116 109 98 95 93 93 87 70
51 43 49 76 98 107 102 74 53 68 21 3 0 0 0 0
0 0 6 11 20 30 32 32 32 32 32 31 31 31 30 31
30 30 29 30 30 29 29 29 29 30 29 29 28 28 27 26
0 0 0 0 15 41 26 0 0 0 0 14 38 23 20 20
23 26 27 27 28 27 30 12 0 0 0 0 4 36 33 8
0 0 2 12 30 24 2 0 0 2 0 0 0 0 0 0
13 24 22 32 42 13 0 6 8 2 5 5 3 16 63 95
99 110 115 118 121 117 114 115 116 112 107 104 99 90 81 73
58 49 60 77 96 106 109 95 57 40 25 1 0 0 0 1
0 0 6 2 10 30 33 33 32 31 32 31 31 31 30 29
29 29 30 29 30 29 30 29 29 30 30 28 28 28 27 25
0 0 0 0 14 40 27 0 0 0 0 13 39 25 18 19
25 30 30 29 29 28 29 13 0 0 0 0 11 36 23 0
0 0 0 8 31 26 2 0 0 1 2 0 0 0 0 0
9 31 47 67 55 11 0 8 10 4 18 2 8 35 82 101
102 106 114 118 121 119 114 116 116 114 110 105 99 90 75 61
56 62 78 87 99 108 111 103 80 43 40 6 0 0 0 0
0 0 6 4 6 30 33 33 33 32 32 32 31 30 30 30
30 30 29 29 30 29 29 29 29 29 29 28 28 26 25 24
7 9 13 17 28 38 25 0 0 0 0 15 42 26 17 20
28 34 34 34 34 34 34 14 1 0 0 0 7 32 17 0
0 0 0 6 31 25 2 0 0 0 2 0 0 0 0 0
8 66 70 95 59 11 0 24 20 15 28 6 15 48 89 99
100 104 112 115 122 121 116 117 118 120 113 105 99 91 84 74
70 77 92 98 104 111 114 108 97 60 43 20 0 0 0 0
0 0 4 4 4 29 34 33 33 33 32 31 31 30 30 30
30 30 29 29 30 30 30 29 29 29 28 28 26 24 23 22
33 34 37 38 37 30 22 12 10 7 5 18 39 26 19 22
28 32 33 34 35 36 36 15 0 0 0 3 3 28 14 0
0 0 0 7 30 24 2 0 0 0 0 0 0 0 0 0
1 81 93 109 67 16 4 51 29 37 42 17 36 64 86 94
94 103 105 113 120 122 119 117 120 122 120 112 102 93 87 80
81 88 98 105 111 116 114 111 105 87 54 43 0 0 0 0
0 0 5 4 3 27 33 32 31 31 31 30 29 29 29 29
30 29 30 29 30 29 29 29 29 28 28 27 26 25 25 23
35 37 36 36 36 34 34 33 33 31 29 31 33 31 30 31
31 32 32 33 33 33 33 25 5 0 0 1 0 25 13 0
0 0 0 5 30 23 4 0 0 0 1 0 0 0 0 0
0 52 107 116 95 26 18 49 54 74 72 53 54 76 83 90
92 98 101 107 117 124 123 119 119 122 125 119 108 99 92 85
87 90 96 105 116 116 113 110 108 100 67 58 8 0 0 0
0 0 6 6 10 25 31 32 31 31 31 30 30 28 30 30
29 26 23 26 29 28 28 28 28 28 27 27 26 25 24 23
30 33 33 33 33 33 33 33 34 33 33 33 32 32 32 32
32 31 32 31 31 31 30 29 11 0 0 2 1 25 14 0
0 0 0 2 29 25 5 0 0 0 1 1 0 0 0 0
0 19 109 113 114 55 25 33 83 108 91 89 73 79 81 89
87 93 99 103 112 121 125 125 122 123 126 125 118 107 99 91
90 92 94 106 116 114 113 111 110 105 87 63 24 0 0 3
3 0 3 8 11 23 31 32 32 31 31 31 31 30 30 30
16 2 4 2 20 29 28 28 27 27 26 26 25 24 23 22
28 33 33 33 33 33 33 32 32 32 32 31 31 31 30 31
30 30 30 30 29 29 30 29 12 0 0 0 0 23 14 0
0 0 0 1 28 25 4 0 0 0 1 5 0 0 0 0
0 4 83 116 120 86 31 24 87 111 91 92 83 81 83 86
88 90 95 100 107 116 123 126 123 124 126 126 124 114 104 98
93 92 94 105 112 113 112 110 110 107 95 67 37 0 0 1
0 0 5 8 8 23 33 33 32 32 31 31 31 30 30 30
12 0 1 0 16 29 29 29 28 27 26 25 25 24 24 23
27 33 30 21 17 16 15 14 13 12 12 11 11 10 9 9
8 8 8 8 8 13 25 29 15 0 0 0 0 19 18 0
0 0 0 2 27 27 13 7 7 9 13 16 0 0 0 0
1 0 40 117 115 107 67 33 80 104 88 91 86 82 85 86
87 89 93 96 102 109 118 123 122 123 124 126 126 123 109 99
93 89 89 98 106 113 103 105 109 105 94 75 49 10 12 11
12 14 17 18 17 19 21 22 19 21 30 31 32 31 30 29
9 0 0 0 9 30 29 28 27 26 26 25 25 25 24 25
26 32 26 5 0 0 0 0 0 0 0 0 0 0 0 0
0 0 0 0 0 5 30 31 21 6 5 11 12 21 27 18
17 21 23 27 37 31 29 33 34 37 41 36 3 0 0 0
0 0 10 101 114 113 117 104 44 85 90 88 86 84 85 87
85 90 88 95 100 107 113 119 120 122 122 124 126 126 115 101
92 86 83 94 98 97 96 106 111 113 99 83 58 24 27 22
24 26 24 23 18 13 34 50 13 15 29 31 31 29 27 26
7 0 0 0 7 29 28 27 27 27 27 25 26 26 26 26
25 32 28 9 0 0 0 0 0 0 0 0 0 0 0 0
0 0 0 0 0 3 29 31 29 29 30 33 31 29 30 39
37 37 42 45 45 33 27 34 37 42 46 43 13 0 0 0
0 1 1 66 119 108 115 125 79 71 88 85 85 84 85 85
86 90 88 93 99 104 108 114 120 122 120 119 125 126 120 102
91 83 79 87 96 105 110 114 115 121 110 86 64 27 42 52
61 68 70 52 20 21 83 111 18 12 27 30 29 9 3 3
0 0 0 0 6 28 28 27 26 26 26 25 26 26 26 25
23 32 29 11 0 0 0 0 0 0 0 0 0 0 0 0
0 0 0 0 0 2 29 32 29 32 35 35 30 24 23 33
35 34 36 38 38 32 24 29 32 33 32 30 21 0 0 0
0 0 0 24 113 120 111 121 120 104 87 82 85 86 84 83
85 87 89 94 95 102 106 112 116 119 118 118 120 126 122 104
88 78 77 75 107 119 120 114 100 99 101 83 63 30 54 74
78 82 82 57 20 45 122 108 67 13 26 31 24 0 0 0
0 0 0 0 5 28 28 28 26 26 27 27 27 27 27 25
22 31 30 16 0 0 0 0 0 0 0 0 0 0 0 0
0 0 0 0 0 1 27 32 28 28 30 34 32 24 21 19
18 19 21 23 25 26 25 28 29 28 24 23 24 11 0 0
0 0 0 2 67 123 117 115 117 109 91 82 82 86 86 81
85 88 88 95 101 105 108 110 110 112 116 114 115 121 116 100
82 72 73 66 102 110 100 62 44 76 86 66 60 33 31 37
37 32 32 29 26 31 46 29 27 20 23 31 25 1 0 0
0 0 0 0 3 28 28 27 27 27 27 27 27 28 27 26
22 31 30 18 0 0 0 0 0 0 0 0 0 0 0 0
0 0 0 0 0 0 25 33 28 21 19 23 23 20 21 19
18 21 27 30 28 31 32 35 37 36 29 26 25 20 7 0
0 0 0 0 14 102 124 119 115 113 93 82 82 85 84 82
83 86 88 96 102 107 110 108 108 110 115 114 113 117 113 95
77 70 85 64 84 81 72 43 24 48 54 64 59 32 24 23
29 19 18 21 23 24 23 22 23 20 23 33 30 10 0 0
0 0 0 0 3 22 28 27 28 28 29 28 28 29 27 26
21 31 32 21 1 0 0 0 0 0 0 0 0 0 0 0
0 0 0 0 0 0 22 33 27 8 1 1 3 8 22 24
29 32 39 40 23 22 22 25 31 39 31 27 26 25 20 2
0 1 0 0 0 48 112 121 122 115 85 77 79 81 82 82
84 85 89 94 101 105 108 106 110 110 110 110 110 107 101 86
70 74 95 97 71 71 76 76 43 42 70 69 55 30 23 22
20 18 17 19 25 25 24 23 23 20 21 30 27 23 1 0
0 0 0 0 0 9 29 28 28 28 28 28 29 29 28 26
20 30 30 22 2 0 0 0 0 0 0 0 0 0 0 0
0 0 0 0 0 0 18 33 27 7 0 0 0 6 25 23
31 28 30 34 4 0 1 1 13 37 33 29 28 27 25 14
0 0 0 0 0 6 64 104 113 108 63 71 76 81 83 82
84 88 92 94 101 104 108 109 110 112 114 109 106 101 93 77
67 85 108 112 119 117 102 96 74 57 67 64 46 30 24 21
18 18 17 20 25 25 24 22 21 18 16 18 2 1 3 0
0 0 0 0 0 7 29 28 28 28 29 28 28 27 26 25
19 29 30 23 4 0 0 0 0 0 0 0 0 0 0 0
0 0 0 0 0 0 15 34 27 9 0 0 0 5 25 21
29 16 5 25 4 0 0 0 7 35 33 29 29 28 27 22
4 0 0 0 0 0 13 55 76 61 28 70 76 80 84 84
87 90 94 96 102 105 106 109 109 110 110 105 103 95 83 67
75 103 110 108 111 109 101 87 72 56 63 59 38 30 24 20
18 19 16 20 25 25 24 23 22 19 5 1 0 0 3 0
0 0 0 0 0 1 22 27 27 27 28 28 27 26 25 23
18 29 31 24 4 0 0 0 0 0 0 0 0 0 0 0
0 0 0 0 0 0 12 33 27 11 0 0 0 6 26 22
29 15 1 23 5 0 0 0 3 32 33 28 29 28 27 24
10 0 0 0 0 0 8 45 63 60 52 70 75 81 83 85
87 91 95 95 100 106 107 107 108 105 104 104 99 91 76 70
96 105 108 104 102 99 95 81 71 56 57 51 34 29 25 18
15 18 16 20 25 25 24 23 22 20 1 0 0 5 0 0
0 0 0 0 0 0 13 26 25 25 26 27 26 24 24 22
17 28 30 24 6 0 0 0 0 0 0 0 0 0 0 0
0 0 0 0 0 0 9 32 28 13 0 0 0 6 26 21
29 15 0 22 7 0 0 0 1 30 34 28 28 28 26 24
14 0 0 0 0 0 13 45 65 64 63 69 74 79 82 87
91 94 97 97 103 104 107 106 108 107 105 106 99 87 72 86
98 102 104 105 101 101 96 85 71 65 52 37 34 28 21 11
7 16 15 20 25 24 24 24 23 21 1 0 2 7 0 0
0 0 0 0 0 0 1 6 6 21 27 26 26 25 24 23
17 27 30 25 7 0 0 0 0 0 0 0 0 0 0 0
0 0 0 0 0 0 7 32 28 13 0 0 0 5 26 22
29 15 0 19 9 0 0 0 1 28 34 27 28 27 25 24
17 1 0 0 0 0 15 47 64 66 63 67 73 77 82 85
92 94 98 101 104 105 106 105 104 104 105 103 94 78 74 85
95 100 110 110 107 96 79 75 75 61 52 28 35 24 17 4
5 15 15 19 25 24 23 24 24 22 4 3 8 9 3 3
2 2 1 1 0 1 0 0 0 19 27 27 27 26 25 23
17 26 31 25 8 0 0 0 0 0 0 0 0 0 0 0
0 0 0 0 0 0 7 32 29 16 0 0 0 3 26 22
30 17 0 18 14 1 0 1 1 26 33 28 28 27 26 25
18 4 0 0 0 0 19 48 65 65 66 66 71 77 82 82
89 95 98 102 106 107 108 105 102 102 105 103 91 80 83 78
89 100 103 89 72 67 66 62 58 48 45 26 33 23 16 3
5 14 14 21 25 24 24 25 24 23 8 9 10 10 8 6
4 2 2 5 6 8 10 13 16 29 35 35 35 34 34 33
17 26 30 26 9 0 0 0 0 0 0 0 0 0 0 0
0 0 0 0 0 0 5 30 28 17 0 2 6 3 26 24
31 23 5 16 13 4 5 1 0 23 32 27 27 27 26 23
19 9 0 0 0 0 12 43 64 68 67 65 68 75 80 83
89 94 101 104 107 107 108 106 104 104 106 102 90 86 85 75
74 65 63 63 62 58 57 57 55 45 36 28 32 22 15 5
11 14 15 22 25 25 24 24 25 23 7 1 2 1 0 0
0 0 0 27 36 36 37 37 38 38 39 38 38 38 37 36
16 24 30 26 10 0 0 0 0 0 0 0 0 0 0 0
0 0 0 0 0 0 4 30 28 20 4 7 15 12 28 25
31 24 10 14 12 6 8 3 2 20 29 26 27 26 24 23
20 9 0 0 0 0 8 41 63 70 70 67 66 73 77 82
84 92 100 103 105 109 108 107 104 104 105 103 97 92 87 70
61 47 65 76 92 88 70 52 51 57 25 31 30 23 18 11
16 16 17 24 26 25 24 24 25 22 5 0 0 0 0 0
0 0 3 35 37 36 36 37 36 36 35 36 35 35 35 35
15 23 30 26 10 0 0 0 0 0 0 0 0 0 0 0
0 0 0 0 0 0 3 29 28 25 30 33 35 36 40 30
31 19 12 15 22 17 17 15 15 19 22 24 25 24 24 23
21 11 0 0 0 0 15 45 63 72 72 69 65 71 74 79
85 91 98 103 105 108 109 108 104 102 103 103 98 95 88 82
87 92 93 95 97 99 95 72 65 58 20 33 29 26 19 16
15 17 17 26 27 25 22 24 24 22 5 0 0 0 0 0
0 0 9 30 28 30 31 33 31 29 24 28 28 25 31 34
15 22 29 26 11 0 0 0 0 0 0 0 0 0 0 0
0 0 0 0 0 0 3 29 28 28 42 44 44 44 44 35
30 15 4 12 23 19 19 18 18 18 21 24 24 24 23 22
20 15 1 0 0 2 21 45 62 74 76 71 66 68 72 74
76 88 94 100 104 107 110 109 105 103 104 103 102 98 91 94
98 99 102 98 88 81 82 65 56 44 17 36 28 27 19 17
15 18 18 25 26 24 23 23 23 22 6 0 0 0 0 0
0 0 4 8 6 12 21 28 23 22 18 19 22 22 30 33
14 21 29 26 11 0 0 0 0 0 0 0 0 0 0 0
0 0 0 0 0 0 2 28 28 25 33 34 33 31 30 26
28 14 0 10 24 21 22 21 21 21 21 22 23 23 22 21
21 16 7 0 0 1 26 46 61 76 77 75 67 67 68 71
77 84 93 98 103 106 107 107 103 104 104 101 100 96 94 99
104 104 101 98 96 83 69 54 52 24 22 34 27 26 18 16
14 18 18 26 25 24 23 24 23 22 7 0 0 0 0 0
0 0 0 0 0 4 22 29 29 29 29 29 30 29 31 33
13 20 28 26 11 0 0 0 0 0 0 0 0 0 0 0
0 0 0 0 0 0 2 27 28 21 16 14 14 13 14 13
25 15 0 7 23 21 22 21 21 20 21 21 22 22 22 21
20 19 13 1 0 1 28 45 60 77 82 77 71 68 67 68
78 82 91 96 100 104 107 107 105 104 102 100 99 96 95 101
101 99 97 93 87 72 55 51 50 15 27 32 27 27 18 16
14 18 19 25 25 24 24 24 23 23 7 0 0 0 0 0
0 0 0 0 0 2 29 33 32 32 32 31 31 32 32 31
13 20 28 26 11 0 0 0 0 0 0 0 0 0 0 0
0 0 0 0 0 0 2 26 27 21 15 14 14 14 14 13
27 19 4 13 24 20 21 20 20 19 19 20 20 20 20 20
19 19 18 5 0 2 37 49 57 77 86 80 74 72 67 64
70 77 83 93 99 102 104 104 104 102 99 98 97 93 94 98
98 97 91 87 78 65 60 58 40 23 33 30 27 26 14 13
13 17 20 26 25 24 24 24 24 23 8 0 0 0 0 0
0 0 0 0 0 0 26 33 32 32 31 31 31 30 31 31
12 18 27 25 11 0 0 0 0 0 0 0 0 0 0 0
0 0 0 0 0 0 2 27 27 21 18 17 17 15 15 15
28 27 25 30 26 18 20 19 18 18 18 19 19 19 20 20
19 19 18 12 0 2 42 51 54 75 89 85 78 74 71 66
70 75 80 88 94 98 100 102 102 102 101 101 99 93 95 96
95 94 91 86 77 67 61 59 72 23 34 29 27 24 12 12
14 15 19 24 25 24 23 24 23 21 8 0 0 0 0 0
0 4 0 0 0 0 12 22 23 26 20 20 22 19 20 23
12 17 27 25 12 0 0 0 0 0 0 0 0 0 1 2
3 4 6 7 8 9 14 26 25 21 19 19 19 18 16 14
22 21 20 23 21 18 20 19 18 18 18 17 17 18 18 18
19 18 18 15 1 3 45 54 52 73 90 92 85 74 70 68
67 69 75 84 89 93 97 100 101 101 97 101 96 97 98 97
98 97 97 91 86 78 66 66 121 34 35 26 25 22 14 10
6 15 19 22 24 24 23 23 23 22 8 0 0 0 0 0
3 8 0 0 0 0 5 22 26 24 21 22 21 17 21 22
11 17 26 25 18 6 7 9 10 12 13 16 18 19 20 20
21 22 22 22 22 23 22 22 22 21 19 19 19 18 17 15
17 14 12 14 17 18 18 18 18 17 18 17 18 18 18 19
18 18 17 16 7 7 47 57 53 69 87 94 91 81 73 71
69 65 71 78 83 88 88 94 98 97 96 99 98 101 99 99
100 102 102 101 91 81 62 64 92 25 36 24 19 14 4 2
4 3 13 16 20 22 23 22 21 22 10 0 0 0 0 0
13 8 0 0 0 0 4 32 32 29 30 31 30 27 31 30
11 16 27 27 26 25 23 24 26 27 25 25 24 25 25 24
24 24 24 23 22 22 22 22 23 21 20 20 19 18 18 16
17 16 13 14 16 18 19 18 17 17 17 17 17 17 18 18
17 17 13 13 12 18 49 59 54 66 86 94 94 87 76 72
70 68 67 70 73 84 87 92 95 94 95 99 99 100 102 104
104 102 102 102 89 72 56 50 23 27 37 16 2 0 0 0
0 0 0 7 28 20 21 20 19 22 11 0 0 0 0 0
17 3 0 0 0 0 0 26 34 34 33 33 33 33 32 31
11 17 26 27 27 26 21 23 26 27 26 26 26 26 27 28
18 13 17 20 18 10 18 19 19 20 20 19 19 19 18 17
18 16 14 14 17 18 18 18 18 17 17 17 18 17 17 17
17 16 7 6 7 16 51 61 57 64 81 95 96 91 83 75
72 69 65 63 67 73 76 82 90 89 91 95 93 85 99 102
106 105 105 102 88 68 57 55 73 72 48 23 11 0 0 0
0 0 0 0 22 13 18 19 12 14 13 4 1 0 0 0
3 0 0 0 0 0 0 7 26 28 27 28 27 27 30 30
9 16 26 27 27 26 22 22 23 23 22 21 21 32 48 32
2 0 0 1 2 0 3 11 12 10 7 5 6 11 17 18
17 16 14 13 16 17 18 17 17 17 16 17 17 17 17 17
17 15 8 7 9 18 53 61 58 64 80 93 99 95 90 80
73 71 68 62 64 64 67 73 78 79 88 88 87 93 99 102
104 102 100 95 82 64 52 59 92 91 57 31 26 0 0 0
0 0 0 0 12 11 16 19 16 15 6 9 4 0 0 0
0 0 0 0 0 0 0 3 9 18 19 19 18 21 29 31
3 6 12 12 11 9 7 6 6 8 12 12 25 56 46 8
0 0 0 0 0 0 0 0 0 0 0 0 0 0 12 19
18 16 15 15 16 18 18 17 17 17 17 17 17 16 17 17
18 18 11 9 10 22 55 63 61 62 78 91 101 101 97 90
82 78 71 67 65 62 63 63 67 70 75 82 83 86 91 95
94 89 88 84 71 61 50 69 91 91 53 4 2 0 0 1
1 1 2 2 6 16 16 7 5 3 0 0 0 0 0 0
0 0 0 0 0 0 0 6 8 21 29 28 28 29 31 31
0 0 0 0 0 0 0 0 0 1 13 17 44 56 18 0
0 0 0 0 0 0 0 0 0 0 0 0 0 0 8 19
18 16 15 15 17 18 17 16 16 17 17 16 16 17 17 18
22 24 17 11 9 24 58 63 62 59 75 92 100 104 100 95
88 83 76 71 67 66 60 60 63 62 64 69 72 79 81 85
82 74 72 70 63 55 50 60 62 64 44 20 20 16 13 15
9 5 8 4 3 5 2 1 1 0 0 0 0 0 0 0
0 0 0 0 0 0 0 0 1 6 30 35 34 34 34 33
0 0 0 0 0 0 3 7 5 3 14 25 52 34 3 0
0 0 0 0 0 0 0 0 0 0 0 0 0 0 12 23
21 19 18 18 17 16 17 16 16 16 17 16 16 16 16 14
15 16 15 16 16 33 59 62 61 58 73 94 102 105 104 97
90 88 81 75 69 68 63 61 58 59 61 63 64 64 66 68
72 66 61 56 54 49 57 49 33 26 15 11 8 5 2 2
0 0 0 0 0 0 0 0 0 0 0 0 0 0 0 0
0 0 0 0 0 0 0 0 0 0 24 35 33 34 34 33
0 1 0 0 0 0 2 9 8 8 4 37 51 10 0 8
13 0 0 0 0 0 0 0 0 0 0 0 0 11 24 24
22 20 19 18 16 16 16 15 15 16 16 16 16 16 16 13
15 13 11 9 11 40 61 65 63 58 71 92 104 105 103 100
93 88 83 83 79 69 62 59 54 55 57 56 54 50 50 51
52 47 45 59 69 28 27 40 41 37 7 0 0 0 0 0
0 1 0 1 0 0 1 0 0 0 0 0 0 0 0 0
0 0 0 0 0 0 0 0 0 0 17 34 33 34 34 34
2 2 0 0 0 0 6 14 13 9 3 44 44 10 20 33
34 6 0 6 3 0 0 0 0 0 0 0 0 6 11 10
9 13 18 16 16 14 15 14 13 14 14 14 14 14 14 13
14 15 14 12 25 51 63 66 65 58 69 88 103 107 102 100
94 87 83 82 82 76 69 59 50 49 48 48 48 47 45 43
45 55 87 97 96 52 26 52 52 45 10 0 2 5 9 14
23 34 18 38 41 31 55 59 62 20 0 0 0 0 0 0
0 0 0 0 0 0 0 0 0 0 9 31 31 31 30 30
2 3 3 5 10 14 16 13 12 4 7 47 26 7 29 37
36 14 3 27 27 11 0 3 6 2 0 0 0 0 0 0
0 2 14 13 13 12 12 12 12 12 12 12 12 12 13 13
12 15 29 40 44 59 64 67 65 57 64 82 96 104 107 100
93 82 80 84 81 79 75 68 56 44 39 35 28 24 22 46
59 50 43 37 23 75 66 47 47 44 79 82 100 110 117 123
124 126 84 128 108 100 123 111 109 49 0 0 1 2 0 0
0 0 0 0 0 0 0 0 0 0 2 25 24 25 24 24
1 2 3 5 14 18 14 5 3 0 12 50 19 3 30 38
36 11 19 41 37 24 2 2 1 0 0 0 0 0 0 0
0 0 10 11 11 10 10 10 9 9 9 9 10 11 14 16
17 40 68 31 50 64 65 67 66 59 61 74 91 100 105 104
90 83 80 80 81 78 78 72 62 44 29 21 18 19 39 67
61 45 51 43 12 57 105 74 46 45 87 79 74 83 91 99
110 113 65 81 75 101 94 62 61 42 2 16 8 19 1 0
0 0 0 0 0 0 0 0 0 0 0 21 25 26 26 24
0 0 0 3 11 16 6 0 0 0 16 53 20 4 21 10
25 26 38 46 36 25 5 4 1 0 0 0 0 0 0 0
0 0 9 11 10 9 9 8 8 8 9 9 10 13 21 36
69 102 81 51 57 64 66 68 68 60 60 71 87 99 102 101
97 88 81 78 76 76 74 73 60 39 35 39 47 58 72 75
63 48 54 57 41 69 112 109 74 43 58 62 64 75 76 94
93 88 51 65 100 104 84 89 84 38 2 13 8 11 3 0
0 0 0 0 0 0 0 0 0 0 0 7 25 27 26 25
0 0 0 3 11 15 4 0 0 0 18 56 26 4 10 1
21 36 48 42 23 25 8 0 0 0 0 0 0 0 0 0
0 0 6 12 12 11 9 9 8 8 8 9 16 58 82 102
108 110 92 57 59 59 66 68 68 60 59 68 81 97 101 100
96 93 86 75 70 67 62 59 61 65 70 77 80 83 82 77
65 52 58 59 49 100 113 112 110 94 85 67 55 70 65 66
55 37 38 50 62 51 34 34 40 19 0 5 6 1 0 0
0 0 0 0 0 0 0 0 0 0 0 1 23 25 23 25
2 1 1 6 12 14 5 4 3 0 17 57 43 13 7 2
27 44 52 28 2 19 7 0 0 0 0 0 0 0 0 0
0 0 6 24 25 22 11 9 15 33 59 86 96 100 109 113
112 107 104 63 63 54 65 68 67 61 60 66 80 92 99 100
100 95 91 85 76 67 61 67 79 83 87 90 90 90 84 79
69 57 45 60 64 109 112 110 112 110 102 93 70 51 34 11
8 10 11 12 24 20 15 13 0 1 2 2 2 9 0 0
0 0 0 0 0 0 0 0 0 0 0 1 25 25 24 25
4 3 4 14 20 20 15 17 12 0 12 49 44 21 3 1
27 45 36 12 0 19 7 0 0 0 0 0 0 0 0 0
0 0 8 33 35 38 51 87 111 123 121 107 106 112 113 121
116 107 105 87 59 56 63 68 66 62 63 64 75 94 100 101
99 98 94 89 85 77 75 78 85 90 96 99 98 94 86 82
74 61 50 64 104 117 116 115 121 117 105 101 103 107 109 99
73 45 29 20 34 33 22 20 0 0 10 4 1 9 7 0
0 0 0 0 0 0 0 0 0 0 0 2 26 26 27 26
4 2 8 24 23 20 16 16 12 0 8 49 50 29 0 2
25 28 9 1 0 2 0 0 0 0 0 0 0 0 0 0
0 0 16 57 91 105 108 112 115 117 114 110 113 123 121 124
123 117 113 116 69 62 52 66 66 65 66 65 71 89 101 103
97 93 96 94 88 82 83 86 89 93 99 103 100 92 87 87
78 65 56 102 124 125 122 125 126 118 106 108 105 110 120 122
116 109 88 49 34 29 29 38 2 0 8 4 0 1 4 2
0 0 0 0 0 0 0 0 0 0 0 2 24 23 27 25
4 0 2 14 23 25 24 21 16 0 2 32 28 14 0 0
2 0 0 0 0 0 0 0 0 0 0 0 0 0 0 11
47 82 105 116 123 121 115 112 117 119 116 116 116 124 120 126
130 125 115 117 112 70 58 62 68 68 68 68 70 82 94 96
96 94 94 91 86 84 88 86 92 101 105 102 98 91 91 91
83 63 91 123 121 127 122 125 126 114 109 109 109 111 114 121
125 124 119 106 98 76 70 73 5 1 10 2 3 0 3 1
0 0 0 2 0 0 0 0 0 0 0 5 25 23 26 29
8 1 0 1 9 14 10 5 2 0 0 1 0 0 0 0
0 0 0 0 0 0 0 0 0 0 0 0 3 33 76 111
118 123 124 123 127 127 124 120 114 117 120 123 118 120 120 124
132 129 120 114 123 110 71 62 72 71 70 70 72 76 91 98
97 92 88 89 87 85 89 96 102 104 102 100 95 93 93 94
85 91 124 125 124 126 125 124 118 110 107 108 108 109 106 112
118 123 125 121 109 105 106 99 61 23 6 0 1 2 1 0
0 0 0 4 0 0 0 0 0 0 0 11 25 24 25 28
3 0 0 0 0 0 0 0 0 0 0 0 1 3 3 0
1 1 4 0 3 5 0 0 0 0 7 46 94 115 118 117
121 127 133 130 126 131 125 106 107 112 115 121 125 123 123 125
132 131 125 119 119 124 116 82 79 73 71 74 72 75 92 100
99 97 93 98 98 97 98 98 102 103 101 99 94 94 100 99
106 127 125 127 127 124 121 121 110 109 108 109 113 119 114 116
117 117 123 125 122 115 107 107 107 105 85 42 5 2 2 1
0 0 0 1 0 0 0 0 0 0 0 13 27 26 25 27
0 0 0 0 0 0 0 0 0 0 0 0 18 27 21 9
13 16 19 7 13 6 0 0 9 54 99 105 84 91 99 97
90 94 119 117 114 110 114 130 124 117 122 119 122 123 124 128
131 132 131 126 120 120 122 120 92 76 75 77 72 72 89 99
101 98 94 99 99 95 96 100 102 102 102 99 96 100 102 116
129 127 128 129 124 125 126 117 116 115 119 109 113 121 117 120
123 120 120 122 124 122 115 111 113 108 106 102 92 50 14 3
0 1 0 1 0 0 0 0 0 0 2 16 29 31 30 30
0 0 0 0 0 0 0 0 0 0 0 0 18 29 28 39
25 28 27 21 20 2 3 41 97 110 113 99 54 55 56 58
53 59 100 132 128 126 119 113 124 129 119 121 119 128 129 131
128 133 132 129 125 120 122 124 125 107 81 81 73 72 88 98
101 98 93 97 97 95 97 100 102 104 104 99 99 113 126 130
128 128 129 128 124 127 120 120 117 123 119 112 120 126 123 122
125 123 122 122 124 123 120 113 113 114 114 111 108 104 91 43
1 3 0 0 0 0 0 0 0 0 2 16 27 29 30 30
4 0 0 0 0 0 0 0 0 0 0 0 3 22 33 42
34 37 37 32 14 21 79 108 115 116 120 103 49 48 56 57
55 67 100 121 123 125 132 123 113 118 131 126 123 127 132 132
131 131 132 132 132 128 120 120 130 130 124 103 74 68 84 99
103 98 86 91 95 96 99 102 103 105 104 110 124 130 130 127
127 128 127 128 128 122 126 124 127 127 125 114 118 126 126 124
126 126 126 125 124 125 119 122 114 122 123 121 116 108 103 98
70 13 0 0 0 0 0 0 0 0 1 10 20 22 22 27
1 0 0 0 0 0 0 0 0 0 0 0 0 9 25 29
43 36 36 19 48 100 116 119 123 130 122 116 75 80 48 51
47 56 103 115 113 115 117 126 129 109 94 127 129 131 132 131
132 131 131 132 132 132 127 121 121 127 124 123 120 101 92 96
103 96 83 91 96 100 104 109 114 116 125 129 130 130 130 130
127 128 127 128 127 127 123 126 129 128 129 123 118 125 124 126
127 127 127 125 123 124 121 117 116 113 124 120 120 107 105 105
102 84 23 0 0 0 0 0 0 0 1 15 26 29 28 29
0 0 0 0 0 0 0 0 0 0 0 0 0 0 8 18
24 21 16 65 99 114 126 125 123 128 121 124 121 108 107 85
50 56 122 132 130 124 115 105 85 84 88 128 132 132 132 132
128 130 131 132 132 131 131 127 124 126 123 121 116 120 127 127
120 113 111 114 120 125 129 129 129 126 127 126 129 129 129 129
127 127 126 122 128 128 125 127 128 128 128 125 116 125 127 124
127 126 125 123 123 123 124 118 120 113 120 125 123 108 111 111
115 105 90 33 0 0 0 0 0 0 1 14 25 27 27 28
0 0 0 0 0 0 0 0 0 0 0 0 0 0 0 4
7 9 64 105 103 114 128 130 130 128 125 118 120 127 121 107
115 97 117 119 120 124 131 104 83 92 110 131 132 130 128 129
131 131 131 131 129 130 130 129 129 127 120 116 118 118 119 125
128 129 127 129 130 129 129 128 128 127 125 128 128 127 127 126
125 125 125 128 128 128 127 125 127 127 128 126 118 122 127 126
127 126 126 125 125 126 126 120 121 123 122 124 120 114 118 111
120 116 105 93 34 0 0 0 0 0 0 11 21 24 24 25
0 0 0 0 0 0 0 0 0 0 0 0 0 1 4 5
9 61 104 110 109 117 126 132 132 131 122 114 120 114 114 123
113 111 111 112 112 109 104 106 121 132 132 127 128 130 131 131
130 129 130 130 130 131 130 129 130 128 122 124 118 116 116 121
122 126 126 123 124 124 120 124 128 127 128 126 127 128 121 124
123 126 128 127 127 127 126 125 126 127 127 126 119 121 126 126
125 125 125 124 123 124 124 123 116 124 123 124 122 119 120 114
123 120 112 102 91 23 0 0 0 0 0 6 16 19 20 23
0 0 0 0 0 0 0 0 0 0 0 0 0 3 7 9
53 101 112 118 112 122 125 133 131 127 119 119 130 133 133 125
118 125 131 133 130 128 132 132 131 131 132 131 130 131 132 132
131 131 130 129 129 130 130 129 129 129 127 122 124 120 124 125
122 122 119 122 126 124 124 126 126 125 127 127 128 127 127 127
127 127 128 127 127 127 127 125 126 127 127 127 125 120 124 126
125 126 126 126 125 125 125 124 113 123 123 124 123 120 118 117
124 121 118 110 101 87 18 0 0 0 0 0 1 2 3 10
0 0 0 0 0 1 1 0 0 0 0 0 0 2 6 36
98 110 116 122 114 119 124 132 127 125 123 116 106 110 100 112
133 125 119 131 132 132 132 132 132 132 131 129 129 131 131 131
130 130 131 130 130 131 131 130 130 129 129 127 118 123 124 125
126 123 121 123 121 123 126 126 127 126 127 127 127 127 128 128
127 128 128 127 127 127 126 126 126 127 127 126 126 123 122 126
126 125 125 125 125 125 124 125 114 121 124 124 124 122 121 116
124 123 120 113 111 101 82 10 0 0 0 0 0 1 0 4
0 0 0 0 0 1 1 2 0 0 0 0 0 1 20 89
107 118 120 128 117 122 124 133 130 124 123 112 122 126 129 132
132 133 133 133 132 132 132 132 132 132 131 130 131 132 130 130
131 131 131 131 131 130 130 130 130 130 129 129 129 125 124 127
128 128 125 124 123 126 128 128 128 128 127 126 125 127 128 128
127 127 127 127 127 127 126 125 127 127 127 127 126 123 123 125
126 126 125 126 126 126 126 125 112 118 125 124 124 124 123 119
124 124 124 115 116 108 101 79 8 0 0 0 0 0 0 4
0 0 0 0 0 0 0 4 2 0 0 0 0 5 76 101
114 128 122 131 117 122 124 133 130 123 116 90 50 68 66 97
131 132 133 132 132 131 132 131 130 123 115 130 131 131 131 131
131 131 131 131 130 131 131 130 130 130 130 130 129 129 129 126
124 128 127 127 126 127 127 128 129 128 128 127 128 128 129 128
127 128 128 127 127 127 127 125 127 127 127 126 125 123 122 124
126 126 125 125 126 125 125 125 116 116 125 124 124 125 124 117
125 125 123 122 116 109 106 98 69 2 0 0 0 0 0 4
0 0 2 1 1 0 0 2 2 0 0 0 0 45 104 105
114 127 130 132 113 122 120 131 126 125 119 87 23 25 26 55
92 106 128 133 133 132 129 113 89 84 93 131 132 132 131 131
132 131 131 131 131 131 131 130 131 130 130 130 130 130 130 129
129 129 129 129 129 127 128 128 128 128 128 129 128 128 128 128
128 127 128 128 128 127 127 127 128 127 127 128 127 125 120 122
126 126 126 126 126 126 126 125 115 113 125 125 124 125 124 116
124 125 123 123 121 117 113 103 99 47 0 0 0 0 0 4
0 0 4 3 4 1 0 0 0 1 1 0 17 95 108 108
115 133 132 130 114 124 113 128 130 129 122 86 22 25 25 45
84 76 83 93 99 97 87 78 81 85 97 132 132 132 131 131
132 131 131 132 131 131 131 130 131 130 130 131 130 130 130 129
128 128 129 129 130 129 128 129 128 128 129 128 129 129 128 128
128 128 127 127 127 126 126 126 127 127 127 126 128 126 122 123
127 126 127 126 126 126 126 126 116 110 122 126 125 126 126 122
125 125 125 124 121 120 117 108 104 96 21 2 14 15 14 13
0 0 1 3 5 5 4 0 0 0 0 1 75 106 110 118
117 125 132 132 117 125 117 131 131 131 121 88 21 25 24 40
82 85 79 84 88 86 79 80 86 89 102 132 131 132 131 131
131 130 131 132 131 131 130 130 130 130 130 130 130 129 129 129
130 130 129 129 129 129 129 129 130 128 128 128 128 128 128 127
128 127 128 128 127 127 126 126 127 128 128 127 127 126 124 123
127 126 126 127 127 126 126 126 118 107 122 126 126 125 125 121
126 125 125 124 122 121 116 113 108 100 84 7 19 22 23 21
0 0 0 1 5 6 5 0 1 2 1 24 104 110 117 123
115 123 130 132 115 129 119 130 130 132 118 90 21 26 25 29
71 132 115 102 101 96 78 84 88 91 103 133 132 132 132 132
131 131 132 131 131 131 131 131 130 130 130 130 130 129 129 130
129 129 130 129 129 129 129 129 129 129 128 128 128 128 128 127
127 127 128 128 127 127 126 126 126 127 127 127 127 127 126 122
127 126 125 126 126 126 126 126 120 104 122 125 125 125 125 120
126 125 125 125 125 124 120 119 115 101 101 66 0 1 2 3
0 0 0 0 4 5 4 1 3 4 5 83 112 117 121 119
120 128 130 133 116 129 119 126 131 127 105 83 21 25 26 26
59 130 132 132 131 103 81 87 92 93 101 132 132 132 132 131
131 131 131 130 131 130 129 130 130 131 130 130 130 130 130 129
129 128 130 129 129 129 129 129 129 129 129 128 128 127 127 128
127 127 128 127 127 126 126 125 127 127 127 127 127 127 126 122
126 127 126 126 126 126 126 125 120 102 116 124 125 126 125 119
126 125 125 125 125 124 124 123 121 112 100 96 10 0 0 0
0 0 0 0 0 3 1 0 0 0 38 117 112 131 127 120
123 128 122 131 118 131 125 129 130 124 105 79 21 25 28 27
52 132 133 132 130 98 85 89 90 91 101 133 132 132 131 132
132 131 130 130 130 131 131 130 131 130 130 130 130 130 130 130
130 130 130 129 129 129 129 128 128 128 128 129 128 128 128 128
127 127 128 128 127 126 126 125 127 127 128 127 127 127 127 125
126 126 127 127 127 127 126 126 122 102 115 126 126 125 125 119
126 126 125 126 125 124 124 122 119 117 108 108 53 0 0 0
0 0 0 0 0 0 0 0 0 3 93 115 114 133 132 116
122 127 131 128 118 130 124 127 125 123 105 75 22 26 26 27
48 127 132 132 130 96 86 89 91 91 100 132 131 131 131 131
131 131 130 130 130 131 130 131 130 130 130 130 130 130 130 130
129 129 129 129 129 129 129 129 129 129 129 128 128 128 128 128
128 128 128 127 126 126 126 125 126 127 126 127 127 127 127 123
125 127 126 127 127 126 126 127 124 100 115 126 126 125 125 121
126 125 125 125 125 125 124 123 121 123 112 111 101 7 0 0
0 0 0 0 0 0 0 0 0 38 120 113 118 133 134 125
126 132 133 129 118 130 127 120 122 125 108 69 22 25 27 28
48 122 131 131 127 94 89 90 92 91 100 131 131 132 132 132
132 132 131 131 131 131 130 131 129 131 130 130 130 130 130 129
129 129 129 130 130 129 129 128 128 129 129 128 129 128 128 128
128 129 129 128 128 128 127 127 127 127 127 127 128 127 127 125
123 127 127 127 127 126 127 127 125 102 114 125 126 126 124 123
126 125 125 125 125 125 124 123 124 118 112 109 110 51 0 0
0 0 0 0 0 0 0 0 1 96 121 113 118 133 132 126
131 130 132 131 114 128 126 117 120 122 103 65 22 25 25 27
51 127 129 132 126 94 89 89 91 91 102 132 131 131 131 131
131 130 130 130 130 131 130 130 131 130 130 130 130 130 130 129
130 129 130 130 129 129 128 129 129 129 130 129 129 128 128 127
127 127 128 128 128 128 127 126 127 127 127 127 127 127 127 126
122 126 126 126 127 127 126 126 125 100 113 120 125 126 125 123
127 126 125 125 125 124 124 125 124 121 117 116 113 100 3 0
