P2
128 120
151
38 42 49 52 52 48 43 36 36 36 36 35 35 35 35 34
33 33 33 32 32 31 31 31 30 29 28 28 28 28 27 27
26 26 26 26 26 25 25 24 23 23 22 21 21 21 20 20
21 20 21 22 26 26 26 24 17 17 16 23 22 22 21 21
20 21 19 20 20 16 20 21 23 22 23 23 23 22 23 23
24 23 24 25 25 25 25 26 27 26 27 27 27 27 27 27
28 28 28 29 29 30 30 30 31 31 31 31 31 31 31 31
31 30 30 31 31 32 32 31 32 31 32 31 31 31 30 30
5 12 21 29 36 46 47 36 35 36 35 35 34 34 34 33
34 33 32 31 32 31 31 30 30 29 29 28 28 28 28 27
26 26 25 25 25 24 24 24 23 23 23 22 21 21 21 20
20 20 21 22 26 26 26 25 17 18 17 22 23 23 22 21
21 21 19 19 19 16 19 19 22 22 23 23 23 23 24 24
25 25 25 25 25 25 25 25 26 26 27 27 27 27 28 28
29 28 29 29 30 29 30 30 30 31 30 30 30 30 31 31
31 32 31 31 31 31 31 30 30 30 31 31 31 31 31 31
0 0 0 0 1 38 48 36 35 35 35 34 34 35 34 34
33 33 33 32 32 32 31 31 31 30 30 29 28 28 27 27
26 27 26 26 25 25 25 25 24 23 22 22 21 21 21 21
21 21 21 23 26 27 27 25 18 19 19 22 24 23 22 22
21 23 20 20 20 17 20 20 23 23 23 24 25 24 24 25
25 25 25 26 26 26 26 26 27 27 27 28 27 28 28 28
29 29 29 30 29 30 31 30 31 31 31 31 31 31 31 31
30 29 30 31 31 31 32 31 32 31 32 31 32 31 31 31
0 0 0 0 0 36 48 37 36 36 35 35 35 35 35 35
33 34 33 32 32 32 31 31 31 30 30 29 29 29 29 28
28 28 27 27 26 25 25 25 25 24 23 23 23 22 22 22
22 22 22 24 27 27 27 26 19 19 21 21 25 24 24 24
23 24 21 21 21 18 21 22 24 24 24 25 26 26 25 26
26 26 26 26 26 26 26 27 27 27 28 28 28 29 29 29
30 30 31 31 31 31 31 31 31 31 31 31 30 30 30 31
32 31 31 32 32 31 32 31 32 32 32 31 32 31 31 31
2 6 0 0 0 36 48 37 36 36 36 35 35 35 35 34
34 34 34 33 33 32 33 31 31 31 30 29 29 29 28 28
28 28 28 27 27 27 26 26 26 25 25 24 23 23 22 22
22 22 22 24 28 28 28 27 19 20 22 21 25 24 24 23
23 24 22 22 22 19 22 23 25 25 25 26 27 26 26 25
26 26 26 27 26 27 27 28 28 28 28 29 29 29 29 29
29 30 31 30 30 31 30 30 30 29 31 32 31 31 32 32
32 32 31 31 31 31 32 31 32 32 33 32 31 32 31 31
7 7 0 0 0 34 46 37 36 36 36 35 35 35 35 34
34 33 33 33 33 32 32 31 31 30 30 30 30 29 29 29
28 28 27 26 27 26 26 25 25 25 24 24 24 23 23 22
22 23 23 25 29 28 28 27 20 20 24 20 25 25 24 23
23 23 22 22 22 19 22 23 25 25 25 26 26 26 26 27
26 27 27 27 27 27 28 28 28 28 28 28 30 30 30 30
29 31 31 30 30 30 31 31 32 31 32 32 32 31 32 32
32 34 32 32 31 32 32 32 32 32 32 31 31 31 31 31
0 3 0 0 0 36 47 37 36 36 36 36 35 35 34 34
34 34 33 33 33 33 32 32 31 31 30 30 30 30 29 28
28 27 28 27 27 27 26 26 26 25 25 24 23 23 23 22
22 22 23 25 29 28 29 28 20 21 26 20 25 25 25 24
24 24 23 22 22 20 23 23 26 25 26 26 27 27 27 27
27 26 27 27 27 28 28 28 29 29 30 29 29 29 29 29
30 30 31 31 31 31 31 32 32 32 32 32 32 32 32 32
32 33 31 31 31 31 31 32 32 32 32 32 32 32 31 31
0 4 8 0 0 35 46 37 36 36 36 35 35 35 35 34
34 33 34 33 33 33 33 31 31 31 31 30 30 30 30 29
29 28 28 28 27 27 27 26 26 25 25 25 24 24 23 23
23 23 24 25 30 29 30 28 20 20 27 19 25 25 25 24
24 22 23 23 23 20 23 23 27 26 27 27 27 27 27 27
27 28 28 28 28 28 29 28 29 29 29 28 29 29 30 30
31 31 32 32 32 32 33 32 32 32 32 32 33 33 32 32
33 33 32 32 32 31 31 32 32 31 31 31 32 31 31 31
0 1 4 0 0 35 46 37 37 36 36 35 35 35 34 34
34 34 33 33 33 33 33 32 32 32 31 31 30 30 30 29
29 28 28 28 27 27 27 27 26 26 25 25 25 25 24 24
23 23 24 25 29 30 30 28 21 22 29 20 26 26 26 25
24 23 23 23 23 21 23 24 27 27 27 27 28 28 28 28
28 28 28 28 29 28 28 29 29 29 30 30 30 30 30 30
31 31 32 32 32 32 33 32 32 33 32 32 32 33 33 33
33 33 32 32 32 32 32 32 32 32 32 32 32 32 32 32
0 0 3 4 5 36 46 37 36 35 35 35 35 34 34 34
34 34 34 34 34 33 33 32 32 32 31 31 30 30 30 29
29 29 28 28 28 27 27 27 27 26 26 25 25 25 24 24
24 24 25 27 30 31 30 29 21 21 29 21 25 27 26 25
25 24 25 24 23 22 23 24 27 27 27 28 27 27 27 27
27 27 28 28 29 29 29 30 30 30 30 30 30 31 31 31
32 31 33 32 33 33 33 33 33 32 32 32 32 32 32 32
32 33 32 32 33 32 32 32 32 31 33 32 32 33 32 32
26 21 16 12 17 39 45 36 35 36 35 35 35 34 35 34
34 33 32 32 33 32 32 32 32 32 31 31 31 30 30 29
29 28 28 28 28 28 27 27 27 27 26 25 26 25 24 24
24 24 24 26 30 30 30 29 21 21 29 23 26 27 26 26
26 24 25 24 24 22 23 24 27 27 27 27 27 27 27 28
28 28 28 28 29 28 29 29 29 29 30 30 31 31 32 32
32 32 33 32 32 32 32 32 32 32 33 32 32 32 32 32
32 33 33 31 32 32 32 32 32 32 32 32 31 31 31 30
31 34 36 37 37 41 40 36 36 36 35 35 35 35 34 34
34 34 33 33 33 32 33 32 32 31 31 30 30 30 29 29
29 29 28 29 29 28 27 26 27 26 26 26 26 25 25 24
24 25 25 26 30 31 31 29 22 21 30 24 24 27 26 26
26 24 25 25 25 22 23 24 27 27 27 27 28 28 28 28
28 29 29 29 30 30 30 30 29 29 30 30 30 30 31 32
32 32 32 32 33 33 33 33 32 33 33 32 32 32 32 32
32 32 33 32 33 33 32 32 31 31 30 30 31 32 32 31
21 24 28 31 33 35 37 37 37 36 36 36 36 35 35 34
34 34 33 33 33 32 32 32 32 32 32 32 31 30 30 29
29 29 29 29 28 28 27 28 27 27 26 26 26 26 25 25
25 25 26 27 30 31 30 30 23 21 31 27 23 28 27 26
26 26 26 25 24 22 22 25 27 28 28 28 28 29 29 29
29 30 30 30 31 30 30 30 30 30 30 31 31 31 32 32
32 32 33 33 33 32 33 32 33 32 32 32 33 32 33 33
33 32 30 30 31 31 31 31 32 33 34 31 31 32 31 30
13 13 15 16 18 22 26 30 33 34 35 36 35 35 35 35
35 33 34 33 33 33 33 32 32 32 32 31 30 30 29 30
29 29 28 28 29 29 28 28 27 27 27 26 26 25 25 25
25 25 25 26 30 31 31 30 23 21 31 29 23 28 27 26
26 25 26 25 24 24 24 26 28 29 29 29 28 29 29 29
29 28 29 29 30 29 30 30 30 31 31 31 32 32 32 32
32 32 33 32 32 32 33 33 33 33 32 31 32 30 30 31
31 31 31 32 32 32 32 31 32 32 33 31 32 30 30 31
13 13 13 12 12 14 13 14 16 17 21 24 27 30 33 34
34 34 34 33 33 33 32 32 33 32 32 32 31 31 31 30
30 29 29 29 29 28 28 28 27 27 27 26 26 26 26 25
25 25 26 26 31 31 31 30 24 21 30 31 22 28 28 27
27 26 27 25 26 24 24 26 28 29 29 28 29 29 29 29
29 30 30 30 31 31 31 30 31 30 31 31 31 32 33 32
33 33 34 33 33 32 33 33 32 31 31 31 31 32 33 32
32 32 32 32 32 32 32 31 32 31 32 31 30 30 31 31
22 21 21 19 17 15 14 13 14 13 14 13 12 9 15 30
35 35 35 34 34 33 33 33 32 32 32 32 31 31 30 30
30 30 30 29 29 29 28 29 29 28 27 27 27 27 26 26
25 25 25 27 31 31 30 30 24 21 32 31 21 28 28 28
27 26 27 25 26 25 24 26 29 30 30 29 30 30 30 30
30 30 31 31 31 31 32 31 31 31 32 32 33 32 33 32
33 32 32 32 32 32 33 33 32 32 33 33 32 33 33 32
33 32 32 32 32 31 32 32 32 32 33 31 31 31 31 32
43 45 47 43 40 28 18 19 16 14 13 13 12 9 13 29
35 34 34 34 33 32 33 33 33 32 32 32 32 32 31 31
31 30 30 29 32 35 33 30 29 28 27 27 27 27 26 25
22 16 13 13 12 13 17 18 20 19 29 31 21 27 29 28
28 27 28 26 26 25 24 26 28 29 29 29 30 30 30 30
30 31 31 31 32 31 31 32 32 31 32 32 32 33 32 33
32 32 32 33 33 33 33 32 32 32 33 32 32 32 32 33
33 33 33 32 32 32 32 32 32 31 32 31 31 31 32 31
47 46 50 50 49 35 29 36 38 31 29 25 19 11 13 27
35 35 34 34 34 38 38 36 35 34 32 31 32 32 31 31
31 31 30 30 37 43 41 37 37 33 29 27 27 26 22 11
2 0 0 0 0 0 0 0 0 2 12 23 19 27 28 29
27 27 28 26 26 26 25 27 29 30 30 31 30 30 30 30
30 31 31 31 31 31 31 31 31 32 33 33 32 33 33 33
33 32 33 32 32 32 33 33 32 32 34 33 33 33 33 33
33 33 32 32 32 32 32 32 32 31 32 31 31 32 32 32
36 41 46 50 50 39 35 40 43 38 46 46 40 15 14 28
35 35 35 34 36 45 44 42 39 37 36 35 34 32 32 32
30 31 31 30 37 42 39 37 38 37 31 27 20 12 4 0
0 0 0 0 0 0 0 0 0 0 0 0 3 15 27 27
28 28 28 27 27 27 25 27 29 30 30 31 31 31 32 31
31 32 31 31 32 32 32 32 32 32 32 34 32 33 33 33
33 33 33 33 33 33 33 33 33 32 34 33 33 33 33 32
32 32 33 32 32 32 33 33 32 31 32 32 32 32 31 32
5 8 13 19 31 40 38 42 45 46 49 49 46 18 15 30
37 36 36 34 36 46 45 43 40 40 43 42 37 38 36 34
31 31 30 30 33 29 29 30 35 37 27 9 0 0 0 0
0 0 0 0 0 0 0 0 0 0 0 0 0 0 6 17
29 28 29 27 26 26 24 28 29 30 31 30 31 31 30 31
31 31 31 31 31 32 32 32 32 32 33 34 33 33 33 33
33 33 33 33 33 32 32 32 33 33 34 33 33 33 34 33
32 33 33 33 32 32 32 32 32 32 32 32 32 32 32 31
0 0 2 3 12 41 39 42 44 46 48 48 47 21 16 33
39 38 37 37 37 38 34 39 41 44 45 43 30 27 34 36
37 37 37 34 31 17 11 11 10 10 1 0 0 0 0 0
0 0 0 0 0 0 0 0 0 0 0 0 0 0 1 2
7 24 29 27 28 27 25 28 29 30 30 31 31 31 32 31
31 31 32 32 33 33 32 32 33 33 33 34 33 33 33 33
34 33 34 33 33 34 34 33 33 33 34 34 34 33 32 32
33 33 33 32 33 32 33 33 33 33 33 33 32 32 33 32
0 0 12 10 16 39 27 34 38 45 47 47 45 23 15 33
40 33 35 40 43 24 0 8 24 29 32 38 13 0 2 8
14 19 28 32 33 15 1 2 0 0 0 0 0 0 0 0
0 0 0 0 0 0 0 0 0 0 0 0 0 0 0 1
2 1 16 27 28 28 25 28 29 31 31 31 32 33 32 32
33 32 32 33 33 33 32 33 33 33 33 34 34 34 34 34
34 34 34 34 34 33 33 33 33 33 34 34 34 33 33 33
34 33 33 33 33 33 34 34 34 34 33 33 33 32 32 32
0 0 12 11 19 36 2 3 9 16 23 25 39 24 15 30
40 39 37 42 48 27 0 0 9 12 13 28 13 0 0 0
0 0 0 8 31 11 0 1 0 1 0 0 0 0 0 0
0 0 0 0 0 0 0 0 0 0 0 0 0 0 0 0
0 0 0 9 27 28 26 29 31 32 32 32 32 33 33 32
33 33 33 33 34 33 34 33 33 33 33 34 34 34 34 34
34 34 34 34 34 34 34 34 34 34 35 34 34 33 33 34
33 33 34 34 34 33 34 33 34 33 33 32 32 32 32 32
0 0 1 0 14 36 1 0 0 0 0 0 25 26 14 7
9 16 26 35 41 28 0 0 4 4 7 26 17 0 0 0
0 0 0 3 22 3 0 0 0 0 0 0 0 0 0 0
0 0 0 0 0 0 0 0 0 0 0 0 0 0 0 0
0 0 1 0 6 25 25 30 30 32 33 32 32 34 33 33
33 33 33 33 33 33 33 33 33 34 34 35 34 34 34 34
35 35 35 35 35 34 35 34 34 34 34 34 34 33 34 34
34 34 34 34 35 34 34 34 34 34 34 34 33 33 32 32
0 1 2 0 14 36 1 0 0 0 0 0 25 25 14 1
0 0 0 2 6 19 0 0 0 0 1 22 14 0 0 0
0 0 0 0 0 0 0 0 0 0 0 0 0 0 0 0
0 0 0 0 0 0 0 0 0 0 0 0 0 0 0 0
0 0 0 0 0 7 23 30 30 33 33 32 33 34 33 33
33 33 33 33 33 33 34 34 34 34 34 35 34 34 35 34
35 35 35 35 35 35 35 35 35 35 35 34 35 35 34 34
34 34 33 34 35 35 34 34 34 34 34 33 34 33 34 33
11 11 11 0 12 36 1 0 5 7 0 0 24 27 15 2
0 0 0 0 0 11 0 0 0 0 0 24 17 0 0 0
9 1 0 0 0 0 0 0 0 0 0 0 0 0 0 0
0 0 0 0 0 0 0 0 0 0 0 0 0 0 0 0
0 0 0 0 0 0 7 25 30 33 32 32 33 33 33 33
33 33 33 33 33 33 33 34 34 34 34 34 35 34 35 34
35 35 35 35 35 34 34 34 34 34 34 35 34 34 35 34
34 33 35 35 35 35 34 34 34 33 34 33 33 34 34 33
1 4 5 0 12 35 1 0 1 13 0 0 23 25 15 1
0 0 0 0 0 9 0 0 0 0 0 24 19 0 0 0
3 0 0 0 0 0 0 0 0 0 0 0 0 0 0 0
0 0 0 0 0 0 0 0 0 0 0 0 0 0 0 0
0 0 0 0 0 0 0 18 29 33 33 32 33 33 33 33
32 32 33 33 33 33 33 34 34 35 35 34 34 34 34 34
35 35 35 35 35 35 34 34 35 34 35 35 34 35 34 34
33 32 34 35 34 34 34 35 35 35 35 35 34 34 34 34
2 3 0 0 10 33 1 0 0 1 0 0 22 25 13 2
0 0 5 0 0 6 0 0 0 0 0 22 22 0 0 0
0 0 0 0 0 0 0 0 0 0 0 0 0 0 0 0
0 0 0 0 0 0 0 0 0 0 0 0 0 0 0 0
0 0 0 0 0 0 0 5 27 31 31 31 31 32 32 32
32 32 32 33 33 33 33 33 34 33 33 32 34 34 34 34
34 34 34 35 34 34 34 33 34 33 33 33 33 33 34 33
34 33 34 35 35 35 35 34 34 32 31 30 30 31 32 32
0 3 0 0 10 31 0 0 1 0 0 0 22 24 13 2
4 2 1 0 0 7 1 0 0 0 2 22 24 0 0 0
0 0 0 0 0 0 0 0 0 0 0 0 0 0 0 0
0 0 0 0 0 0 0 0 0 0 0 0 1 2 3 0
0 0 0 0 0 0 0 0 17 31 32 32 32 32 32 33
32 31 32 32 33 32 33 33 33 33 34 33 34 33 34 34
35 34 34 35 33 34 34 34 34 34 34 34 33 34 33 33
32 32 33 33 31 32 31 33 31 28 26 23 21 19 16 13
29 27 20 15 22 33 3 0 1 0 0 0 24 24 13 4
4 0 0 0 0 8 3 0 0 0 2 24 35 3 0 0
0 0 0 0 0 0 0 0 0 0 0 0 0 0 0 0
0 0 0 0 0 0 0 0 0 3 3 2 1 5 4 1
0 0 0 0 0 0 0 0 5 26 32 31 31 32 33 33
33 33 34 34 34 33 34 34 34 34 33 33 33 34 34 35
34 35 35 35 35 35 34 33 33 34 33 32 32 32 33 31
31 30 30 27 24 22 18 17 14 13 12 11 11 11 12 12
31 40 42 43 40 47 40 23 28 28 27 24 34 22 13 4
0 0 0 0 0 21 33 24 21 9 7 24 36 3 0 0
0 0 0 0 0 0 0 0 0 0 0 0 0 0 0 0
0 0 0 0 0 0 0 0 0 3 2 8 4 6 3 0
0 0 0 0 0 0 0 0 2 16 31 32 32 33 33 33
33 33 33 32 34 34 34 33 33 33 34 34 34 34 34 34
34 34 34 35 33 33 32 31 31 31 30 29 27 24 22 20
18 16 14 14 13 13 14 14 15 16 17 17 18 19 19 19
16 16 13 12 42 59 50 30 39 45 45 45 44 21 13 3
0 0 0 0 0 24 50 40 32 25 10 10 9 0 0 0
0 0 0 0 0 0 0 0 0 0 0 0 0 0 0 0
0 0 0 0 0 0 1 2 2 1 3 1 5 6 3 1
0 0 0 0 0 0 0 0 1 10 21 32 33 33 32 32
33 33 33 32 34 34 34 34 35 34 34 34 34 34 35 35
34 33 33 32 30 29 33 28 20 19 18 16 15 16 16 16
18 18 19 20 20 21 21 22 23 23 23 24 24 24 24 24
6 4 2 2 45 58 41 30 41 46 47 50 47 22 15 10
5 2 0 0 0 24 46 38 26 32 26 3 0 0 0 0
0 0 0 0 0 0 0 0 0 0 0 0 0 0 0 0
0 0 0 0 0 0 1 8 14 9 7 0 1 6 5 0
0 1 3 0 0 0 0 0 7 8 11 28 32 32 32 32
33 33 32 32 33 34 33 33 34 34 34 34 33 32 29 27
25 22 20 19 17 17 30 25 14 17 19 20 21 21 22 23
24 24 25 26 26 26 27 27 27 27 27 28 28 28 28 29
1 0 0 2 44 52 24 12 23 26 29 33 41 23 16 28
41 37 30 23 18 33 35 35 13 14 3 0 0 0 0 0
0 0 0 0 0 0 0 0 0 0 0 0 0 0 0 0
0 0 1 0 0 2 4 6 9 10 7 3 0 2 1 0
0 0 2 0 0 0 0 0 3 12 7 14 31 31 31 30
29 32 33 33 33 33 32 29 21 26 24 21 20 19 18 18
20 20 21 21 22 22 25 23 19 24 26 27 28 27 28 29
29 29 29 28 29 29 29 30 30 31 31 31 31 31 31 29
0 0 0 1 41 51 17 0 0 0 0 1 25 26 17 30
48 48 47 47 47 48 23 11 1 0 0 0 0 0 0 0
0 0 0 0 0 0 0 0 0 0 0 0 0 0 0 0
0 0 1 0 1 3 3 6 6 8 3 1 0 0 0 0
0 4 2 1 0 0 2 2 7 11 15 9 22 29 29 29
21 24 27 25 24 21 18 6 11 20 21 22 23 23 24 26
26 27 27 28 28 27 29 28 23 29 29 30 31 31 31 31
32 32 33 32 32 33 32 32 33 32 32 33 33 32 32 32
0 0 0 0 37 52 17 0 0 0 0 0 21 26 14 28
46 48 48 48 49 48 13 0 0 0 0 0 0 0 0 0
0 0 0 0 0 0 0 0 0 0 0 0 0 0 0 0
0 0 0 1 2 2 2 7 9 9 3 1 3 1 0 0
0 1 5 0 2 2 4 14 8 8 17 14 15 22 22 21
16 18 20 21 22 18 10 18 26 27 28 28 28 29 30 30
31 31 31 32 32 29 17 14 24 32 33 32 33 33 33 33
33 33 33 33 33 33 32 33 33 33 34 34 33 32 33 32
0 0 0 0 30 49 15 0 0 0 16 22 26 30 23 26
35 37 38 39 42 42 7 0 0 0 0 0 0 0 0 0
0 0 0 0 0 0 0 0 0 0 0 0 0 0 0 0
0 0 4 1 1 5 9 4 3 5 6 5 2 0 0 0
0 0 4 2 3 7 7 7 11 7 13 11 14 19 22 23
24 24 26 26 19 19 19 30 31 31 32 33 32 32 33 33
34 34 34 33 32 29 7 2 18 32 34 34 34 34 34 34
35 35 34 34 34 33 33 33 33 32 33 33 32 32 32 32
1 0 0 0 28 45 12 0 0 0 19 27 25 26 21 22
23 25 31 31 37 35 4 0 0 0 0 0 0 0 0 0
0 0 0 0 0 0 0 0 0 0 0 0 0 0 0 0
0 0 3 18 9 3 1 9 4 8 7 0 0 0 0 0
0 0 4 5 4 7 16 12 11 8 12 9 13 19 26 29
30 29 31 22 23 27 27 33 33 33 34 34 34 34 34 35
34 29 20 14 14 26 9 4 17 33 35 36 35 35 35 34
34 34 35 34 34 34 33 33 33 33 32 33 32 33 32 31
0 0 0 0 29 45 11 0 0 0 7 14 19 23 20 22
23 26 31 32 38 24 0 0 0 0 0 0 0 0 0 0
0 0 0 0 0 0 0 0 0 0 0 0 0 0 0 1
0 0 0 2 7 11 9 8 8 8 5 1 0 0 0 0
0 3 7 12 12 8 13 14 19 10 13 5 2 13 30 31
32 32 28 22 33 31 17 20 20 17 15 24 36 35 33 32
12 3 1 1 2 17 4 0 14 32 34 35 35 34 35 35
35 35 34 34 35 34 33 33 33 33 33 33 33 32 32 32
0 0 0 0 32 46 11 0 0 0 0 0 9 18 18 16
7 12 18 22 23 6 0 0 0 0 0 0 0 0 0 0
0 0 0 0 0 0 0 0 0 0 0 0 0 0 0 0
0 0 0 0 4 5 5 10 11 8 10 1 0 0 0 0
0 3 12 15 13 19 9 15 13 17 6 5 0 1 21 32
33 32 20 29 27 35 10 0 0 0 3 16 23 11 4 4
1 4 0 0 0 2 6 0 15 32 34 36 34 35 35 34
34 34 34 34 34 34 33 33 34 33 33 34 33 33 33 33
0 0 0 0 34 47 10 0 1 2 0 0 11 27 24 16
0 0 0 0 0 0 0 0 0 0 0 0 0 0 0 0
0 0 0 0 0 0 0 0 0 0 0 0 0 0 0 0
5 1 1 3 2 13 10 16 17 6 5 5 0 0 0 0
0 1 3 11 6 5 0 8 2 2 5 2 1 0 8 33
34 23 12 4 1 32 21 0 0 0 0 0 0 0 0 0
0 15 2 0 0 0 9 0 18 33 35 36 35 35 35 35
35 35 35 35 34 34 33 34 33 33 33 33 33 33 32 33
7 4 2 2 37 46 11 0 0 6 0 0 12 32 27 18
0 0 0 0 0 0 0 0 0 0 0 0 0 0 0 0
0 0 0 0 0 0 0 0 0 0 0 0 0 0 2 0
5 15 6 9 14 6 8 9 13 8 2 0 1 0 0 0
1 3 5 5 5 3 0 0 1 1 1 0 0 0 0 26
31 6 11 15 3 3 2 0 0 0 0 0 0 0 0 0
0 3 0 0 0 0 16 8 25 34 35 36 36 35 36 35
34 35 35 35 35 34 34 33 34 33 33 34 34 34 34 33
32 33 35 30 39 41 19 0 0 8 5 1 11 35 26 19
0 0 4 1 0 0 0 0 0 0 0 0 0 0 0 0
0 0 0 0 0 0 0 0 0 0 0 0 1 1 2 6
5 11 13 13 17 14 7 9 17 5 3 0 0 0 0 0
0 1 7 12 13 3 0 0 0 0 0 0 0 0 0 11
24 15 31 20 23 29 25 24 24 24 23 15 14 13 0 0
0 0 0 0 0 3 25 26 31 35 36 36 35 35 35 34
35 34 35 35 35 34 34 34 34 34 33 34 34 34 34 33
11 13 19 18 26 37 34 25 18 22 25 18 22 36 23 17
0 2 14 7 0 0 0 0 0 0 0 0 0 0 0 0
0 0 0 0 0 0 0 0 0 0 1 2 3 8 6 1
5 8 10 11 10 14 12 4 8 8 4 1 0 0 0 0
0 0 9 6 12 8 3 0 0 0 0 0 0 0 0 1
11 19 23 32 35 36 36 36 36 36 36 34 14 5 0 0
0 3 9 9 9 21 30 31 34 35 36 36 36 35 35 35
35 35 35 35 35 35 34 35 34 34 33 33 33 30 34 33
0 0 10 11 20 40 35 24 24 31 37 41 44 42 24 18
0 3 14 6 0 0 0 0 0 0 0 0 0 0 0 0
0 0 0 0 0 0 0 0 0 0 1 2 5 1 5 4
3 6 11 6 8 9 5 2 1 4 0 0 0 0 0 0
0 2 1 5 8 3 3 2 0 0 0 0 0 0 0 0
16 34 35 35 36 36 36 36 36 35 36 21 1 0 1 0
0 17 35 35 34 32 33 34 37 37 36 37 37 36 36 36
36 35 35 34 35 35 35 34 34 35 34 33 34 32 33 33
0 2 5 12 26 40 33 4 0 5 11 25 46 42 24 19
2 0 2 1 0 0 0 0 0 0 0 0 0 0 0 0
0 0 0 0 0 0 0 0 0 0 0 0 0 0 2 3
2 12 18 16 8 10 4 3 2 0 0 0 0 0 0 0
0 0 3 1 4 3 1 0 1 0 0 0 0 0 0 0
4 32 36 36 36 36 36 35 36 36 36 19 0 0 15 1
0 17 37 36 35 33 34 35 35 35 35 35 36 36 36 36
36 35 36 36 36 35 35 35 35 34 34 34 34 33 34 33
15 29 14 7 25 42 32 2 0 16 18 25 45 37 24 22
14 1 2 0 0 0 0 0 0 0 0 0 0 0 0 0
0 0 0 0 0 0 0 0 0 0 0 1 0 0 0 5
6 7 17 14 11 9 3 3 2 1 0 0 0 0 0 0
0 0 0 3 1 4 5 3 6 2 0 0 0 0 0 0
0 15 35 37 37 36 36 37 36 36 36 21 0 0 2 0
0 14 36 36 36 34 35 36 36 36 36 37 37 36 35 35
34 35 35 34 35 35 35 35 35 35 35 34 34 33 34 33
29 31 4 0 24 44 32 1 0 13 28 33 44 32 23 24
13 0 0 0 0 0 0 0 0 0 0 0 0 0 0 0
0 0 0 0 0 0 0 0 0 0 0 0 1 4 2 6
13 12 12 16 10 13 6 1 1 0 0 0 0 0 0 0
0 1 0 1 5 4 6 1 1 6 1 0 0 0 0 0
0 3 30 37 37 36 36 35 36 35 36 20 0 0 0 0
0 12 37 37 36 36 37 37 36 37 37 37 36 36 36 36
36 35 36 35 36 35 35 35 35 34 34 34 34 33 32 32
25 36 2 0 25 46 32 0 0 1 8 31 45 29 25 24
12 3 3 1 0 1 1 0 0 0 0 0 0 0 0 0
0 0 0 0 0 0 0 0 0 0 0 0 0 3 6 8
12 10 12 13 14 6 5 0 0 0 0 0 0 0 0 0
0 0 0 0 3 6 6 0 0 0 0 0 0 0 0 0
0 9 33 36 37 37 36 35 30 25 23 13 0 0 1 0
0 10 37 37 37 37 37 37 37 36 37 37 36 36 36 36
35 35 35 35 35 34 34 34 34 34 34 34 34 33 32 32
11 17 2 1 25 46 33 1 0 0 0 25 46 30 24 24
33 33 33 26 15 17 7 0 0 0 0 0 0 0 0 0
0 0 0 0 0 0 0 0 0 0 0 0 0 4 10 8
15 8 8 9 5 6 2 1 0 0 0 0 0 0 0 0
0 1 1 0 1 2 2 2 0 0 0 0 0 0 0 0
0 7 34 37 38 37 37 30 8 8 0 1 0 0 1 1
0 9 36 36 38 37 37 37 36 36 36 36 36 36 35 35
36 35 35 35 35 35 35 35 34 34 33 34 33 33 32 32
0 0 0 0 24 46 32 0 0 0 0 23 47 30 24 25
42 48 52 46 33 33 9 0 0 0 0 0 0 0 0 0
0 0 0 0 0 0 0 0 0 0 0 0 0 3 8 9
6 11 10 9 6 3 10 2 0 0 0 0 0 0 0 0
0 0 0 0 0 2 5 8 3 0 0 0 0 0 0 0
0 5 31 36 37 37 37 34 32 31 21 11 0 0 0 3
1 7 27 35 36 37 37 37 36 37 36 36 36 36 36 35
35 35 34 34 35 34 34 34 34 34 33 34 33 34 32 32
0 0 0 0 21 46 30 0 0 0 0 22 47 30 23 25
39 46 49 46 34 34 15 0 0 0 0 0 0 0 0 0
0 0 0 0 0 0 0 0 0 0 1 1 0 8 5 8
10 11 10 7 9 5 0 0 0 0 0 0 0 0 0 0
0 0 0 0 0 0 1 9 8 6 0 0 0 0 0 0
0 2 27 35 37 36 35 38 47 39 13 5 0 0 0 1
0 0 7 14 24 34 38 37 36 36 36 36 35 36 35 35
35 34 34 35 36 35 34 34 34 34 34 33 33 33 31 30
0 0 0 0 20 47 31 0 0 0 0 19 44 28 24 25
27 29 32 29 24 23 16 0 0 0 0 0 0 0 0 0
0 0 0 0 0 0 0 0 0 0 0 0 4 4 5 7
7 9 7 5 7 6 5 0 0 0 0 0 0 0 0 0
0 0 0 0 1 2 4 0 5 2 4 2 0 0 0 0
0 3 19 29 27 24 22 15 7 7 3 0 0 0 0 1
0 0 7 3 12 35 38 37 37 36 37 36 37 36 35 35
35 34 34 35 35 34 35 34 34 35 34 34 34 33 32 30
0 0 0 0 19 47 32 0 0 0 0 17 45 30 23 24
31 35 36 34 30 28 22 1 0 0 0 0 0 0 0 0
0 0 0 0 0 0 0 0 0 0 0 0 0 3 5 2
5 6 11 13 7 7 2 0 0 0 0 0 0 0 0 0
0 0 0 5 4 3 5 10 0 1 0 0 0 0 2 0
0 6 9 7 10 10 9 4 1 0 0 0 0 0 0 1
0 0 7 5 8 36 38 38 37 37 37 36 36 35 35 35
34 35 35 34 35 35 35 35 34 35 34 33 33 31 30 28
10 13 17 21 34 45 29 0 0 0 0 19 49 31 22 24
33 39 39 39 37 34 32 4 0 0 0 0 0 0 0 0
0 0 0 0 0 0 0 0 2 1 1 0 0 2 2 1
4 9 14 14 9 8 1 0 0 0 0 0 0 0 0 0
1 0 0 2 6 4 2 1 7 3 0 0 0 0 0 0
0 2 5 4 5 5 5 3 2 8 3 2 0 0 0 0
0 0 7 7 6 34 39 38 39 37 37 36 36 36 35 35
35 34 34 34 34 35 35 35 34 34 33 34 31 29 29 27
39 41 44 45 44 36 27 16 13 11 8 23 44 29 24 27
33 38 40 39 38 39 38 11 0 0 0 4 4 0 0 0
0 0 0 0 0 0 0 0 3 3 1 4 4 2 5 4
2 4 4 3 7 7 1 0 0 0 1 0 0 0 0 0
0 2 0 1 3 7 4 1 0 0 0 0 0 0 0 0
0 0 4 7 8 8 8 9 8 6 7 15 0 0 0 0
0 0 7 7 6 32 38 37 37 36 36 35 35 34 35 34
35 34 34 34 34 35 35 34 35 34 33 32 32 30 29 28
41 43 43 42 41 40 40 39 38 37 35 37 41 37 36 36
36 38 37 37 37 37 37 22 2 0 0 2 12 7 9 0
0 0 0 0 0 0 2 2 0 2 4 2 9 11 6 6
8 4 7 11 5 4 9 1 0 0 0 1 0 3 1 0
2 4 0 1 5 4 7 8 2 4 1 0 0 0 0 0
0 3 8 11 11 11 11 11 4 1 5 19 2 0 0 0
0 0 8 8 13 29 36 36 36 35 36 35 35 34 35 35
35 31 28 32 33 34 34 34 34 33 33 31 31 29 29 28
36 40 40 39 39 39 39 39 39 39 38 38 38 37 37 37
37 37 37 36 37 35 35 27 8 0 0 3 15 18 14 4
0 0 0 0 1 0 3 2 5 6 2 2 8 7 11 6
6 12 3 3 2 8 13 11 2 0 0 0 0 0 2 2
2 1 2 0 8 4 3 7 5 1 3 0 0 0 0 0
1 2 6 4 4 3 5 11 9 2 8 10 0 0 0 4
4 1 5 11 14 27 37 38 37 37 36 36 36 35 35 35
19 3 6 3 24 35 34 34 33 32 32 31 31 30 28 27
35 40 40 39 39 38 38 38 38 38 37 38 37 37 36 36
36 36 36 35 34 33 34 31 14 0 0 0 14 17 27 22
0 0 0 0 4 1 1 4 4 9 11 12 13 11 10 10
3 2 7 3 2 2 7 5 7 1 0 0 1 0 1 3
12 8 3 5 0 1 0 0 5 1 0 0 0 0 0 0
0 1 0 0 0 0 6 12 11 9 7 3 0 0 0 1
1 0 8 11 12 27 38 38 37 36 36 36 36 36 35 35
15 0 1 0 20 35 35 33 33 32 31 31 30 30 28 28
33 39 36 26 22 21 20 19 18 17 16 16 15 13 12 12
12 12 11 11 11 16 31 33 19 1 0 1 11 18 21 18
3 0 2 0 3 11 4 4 8 11 16 17 26 21 9 9
4 0 1 4 4 5 5 6 2 2 1 2 3 6 1 6
12 18 3 1 4 0 0 0 0 0 0 0 0 0 0 0
0 0 0 0 0 0 9 13 12 11 11 9 11 11 13 13
14 17 20 21 20 23 26 26 23 26 36 37 37 36 36 35
10 0 0 0 13 35 34 33 32 32 32 30 31 30 30 30
31 39 32 8 0 0 0 0 0 0 0 0 0 0 0 0
0 0 0 0 0 7 35 35 26 8 7 14 11 19 10 5
3 2 11 7 7 21 29 17 23 33 39 26 31 38 16 8
4 1 2 5 6 5 7 3 2 2 3 1 1 7 13 6
14 40 3 4 0 0 0 0 0 0 0 0 0 0 0 0
0 0 0 0 0 0 11 13 13 12 34 20 24 29 31 25
28 30 28 27 22 16 40 55 15 18 33 36 36 34 32 31
9 0 0 0 10 35 34 33 33 32 32 31 31 31 30 31
30 38 34 12 0 0 0 0 0 0 0 0 0 0 0 0
0 0 0 0 0 5 35 36 33 32 34 36 28 18 16 10
11 15 15 29 38 40 66 79 73 79 77 63 50 61 40 15
3 2 0 0 2 3 2 4 1 1 5 2 3 10 21 31
29 65 11 0 2 0 0 0 0 0 0 0 0 0 0 0
0 0 0 0 0 2 12 12 13 13 24 20 26 32 48 59
69 77 79 58 23 25 92 120 21 15 32 36 34 12 5 4
0 0 0 0 8 33 33 32 32 30 31 31 31 31 31 31
29 39 35 16 0 0 0 0 0 0 0 0 0 0 0 0
0 0 0 0 0 3 34 37 34 37 40 39 34 25 31 33
27 38 39 43 56 70 79 97 103 108 100 92 75 81 69 51
17 2 0 0 0 2 1 3 3 0 4 7 4 6 24 57
55 102 18 0 0 1 0 0 0 0 0 0 0 0 0 0
0 0 0 0 0 4 13 13 14 11 25 22 28 33 61 81
87 90 90 63 24 53 132 118 72 16 30 35 28 0 0 0
0 0 0 0 6 33 32 32 31 32 31 32 31 32 31 30
29 37 36 20 0 0 0 0 0 0 0 0 0 0 0 0
0 0 0 0 0 2 32 38 34 34 35 39 37 29 22 50
43 41 58 74 81 84 85 90 96 105 108 103 101 102 92 83
50 25 5 0 0 2 0 0 0 4 14 22 7 8 21 74
66 99 17 0 0 0 0 0 0 0 0 0 0 0 0 0
0 0 0 0 0 7 13 14 17 6 20 29 34 36 36 41
43 37 36 33 30 36 50 33 32 24 28 36 30 2 0 0
0 0 0 0 5 33 32 33 32 32 33 33 33 33 33 31
28 38 37 23 1 0 0 0 0 0 0 0 0 0 0 0
0 0 0 0 0 1 30 39 33 26 23 26 27 22 20 51
56 45 53 71 81 89 96 93 91 98 112 119 118 117 115 101
82 58 39 15 1 1 2 1 5 4 27 43 11 11 15 72
86 108 19 0 0 0 0 0 0 0 0 0 0 0 0 1
0 0 0 0 0 11 14 15 17 1 12 32 36 36 27 27
32 21 21 24 28 28 28 26 27 24 28 37 35 12 0 0
0 0 0 0 4 27 33 32 33 33 33 33 34 34 33 31
27 37 37 25 3 0 0 0 0 0 0 0 0 0 0 0
0 0 0 0 0 0 26 39 32 11 2 3 6 12 27 51
72 54 27 44 53 61 78 91 95 99 110 126 130 126 122 113
101 92 67 48 17 4 0 1 10 6 9 53 9 12 14 81
102 106 23 2 0 0 0 0 0 0 0 0 0 0 0 0
0 0 0 0 1 13 13 14 11 0 8 18 32 35 27 26
24 21 20 22 29 28 28 27 26 24 25 35 32 27 1 0
0 0 0 0 0 11 33 33 33 34 34 33 33 34 34 32
26 37 38 28 4 0 0 0 0 0 0 0 0 0 0 0
0 0 0 0 0 0 23 40 32 10 0 0 0 10 30 54
89 76 43 42 42 51 59 66 90 104 114 129 133 126 124 120
115 110 101 76 44 24 10 6 12 22 30 48 34 12 20 81
104 108 28 6 0 0 0 0 0 0 0 0 0 0 0 0
0 0 0 0 4 14 13 15 8 0 3 5 29 34 27 24
21 21 20 23 30 30 29 27 26 22 21 22 4 2 5 0
0 0 0 0 0 10 34 34 34 34 34 34 33 33 31 30
25 36 37 29 5 0 0 0 0 0 0 0 0 0 0 0
0 0 0 0 0 0 20 39 33 12 0 0 0 8 33 67
99 99 57 33 49 68 79 79 88 108 117 130 135 128 124 122
122 119 117 104 74 47 41 25 28 50 72 71 55 12 24 77
104 108 36 14 0 0 0 0 0 0 0 0 0 0 0 0
0 2 1 0 7 14 14 15 5 0 1 6 33 33 28 23
21 22 20 24 29 29 28 26 25 22 7 1 0 0 4 0
0 0 0 0 0 1 27 32 33 33 33 33 32 31 30 28
24 34 37 29 8 0 0 0 0 0 0 0 0 0 0 0
0 0 0 0 0 0 16 39 32 14 0 0 0 8 40 82
105 102 68 45 54 63 76 87 96 110 122 137 137 126 122 122
121 119 117 113 100 82 77 74 82 87 99 90 37 17 59 85
106 105 41 19 1 0 0 0 0 1 0 0 0 0 0 0
0 0 0 0 9 13 13 15 2 2 16 17 36 32 27 21
17 20 19 23 28 28 28 27 25 24 2 0 1 6 0 0
0 0 0 0 0 0 16 31 30 31 32 32 31 30 29 28
24 34 36 30 8 0 0 0 0 0 0 0 0 0 0 0
0 0 0 0 0 0 12 37 32 16 0 0 0 9 52 94
110 100 80 57 47 60 75 87 101 113 127 138 132 123 122 122
121 118 115 113 110 107 102 104 109 109 106 107 63 51 101 93
112 101 52 24 2 0 0 0 0 0 0 0 0 0 0 0
0 0 0 0 12 13 14 13 0 6 15 14 38 30 24 13
8 19 18 23 28 27 27 26 26 24 2 0 3 8 0 0
0 0 0 0 0 0 1 8 8 24 31 31 30 29 28 27
23 33 36 30 10 0 0 0 0 0 0 0 0 0 0 0
0 0 0 0 0 0 11 37 32 18 0 0 0 9 72 104
106 101 86 66 51 58 74 88 107 123 138 137 126 120 119 120
120 117 117 114 112 112 110 109 112 112 111 112 100 95 106 108
123 92 62 24 5 0 0 0 0 0 0 0 0 0 0 0
0 0 0 2 13 13 15 10 0 5 10 19 38 27 18 4
6 16 17 22 27 27 26 27 27 25 5 3 10 11 5 4
3 2 3 2 2 1 1 1 3 24 32 31 31 30 29 27
22 32 36 30 11 0 0 0 0 0 0 0 0 0 0 0
0 0 0 0 0 0 9 36 33 20 0 1 1 13 95 120
110 103 90 71 59 56 73 93 111 128 139 133 123 117 117 119
117 116 116 115 113 115 111 109 110 111 111 112 110 101 99 119
120 84 68 32 15 2 0 0 0 0 0 0 0 0 0 0
0 0 0 4 13 13 15 7 0 24 23 27 36 25 17 2
6 16 17 23 28 27 26 26 27 25 10 10 12 12 9 8
6 4 3 6 9 11 13 15 19 34 40 39 40 39 38 37
21 31 36 31 12 0 0 0 0 0 0 0 0 0 0 0
0 0 0 0 0 0 7 37 34 21 0 4 11 37 111 134
129 107 93 75 65 62 77 95 112 129 134 124 118 115 113 115
114 114 114 113 115 114 111 110 110 113 113 109 114 98 103 118
108 83 77 50 27 12 0 0 0 0 0 0 0 0 0 0
0 0 0 7 14 13 14 4 10 66 36 30 35 25 17 5
12 16 17 24 28 28 26 27 27 26 8 2 2 1 0 0
0 0 0 30 40 40 41 42 43 43 44 43 43 43 42 42
21 30 35 31 13 0 0 0 0 0 0 0 0 0 0 0
0 0 0 0 0 0 6 35 33 24 6 10 21 63 112 136
138 114 90 75 69 66 78 98 111 121 123 118 116 115 110 112
112 112 113 114 115 114 111 111 111 112 113 101 110 103 114 113
97 85 81 64 35 17 3 1 1 0 0 0 0 0 0 0
0 0 0 10 14 14 15 1 11 50 23 34 33 25 21 13
18 18 20 27 29 28 27 27 27 26 6 0 0 0 0 0
0 0 4 40 41 41 41 41 42 41 39 40 39 39 39 39
20 28 35 31 14 0 0 0 0 0 0 0 0 0 0 0
0 0 0 0 0 0 5 35 33 31 36 39 44 79 113 137
137 122 83 73 72 70 77 93 107 113 116 116 114 112 109 108
110 109 110 113 115 113 112 110 110 112 113 93 100 113 117 107
90 88 83 70 41 24 13 2 0 0 0 0 0 0 0 0
0 0 1 13 13 15 13 0 1 15 18 36 32 29 21 19
17 20 20 29 30 27 26 26 27 26 7 0 0 0 0 0
0 0 12 34 32 34 35 37 35 33 27 32 32 30 36 39
19 27 35 32 15 0 0 0 0 0 0 0 0 0 0 0
0 0 0 0 0 0 4 34 34 33 48 51 53 86 107 122
123 116 87 70 73 74 79 87 101 109 112 112 110 109 108 108
106 108 108 112 114 116 114 110 110 113 112 89 67 106 108 96
91 88 83 75 65 43 25 4 1 0 0 0 0 0 1 0
4 6 8 14 14 16 10 0 2 9 20 40 31 30 22 19
16 20 20 29 29 28 26 27 27 25 8 0 0 0 0 0
0 0 5 10 7 15 25 33 27 26 23 23 26 27 36 39
19 26 35 32 16 0 0 0 0 0 0 0 0 0 0 0
0 0 0 0 0 0 3 33 33 31 40 41 47 86 109 122
113 99 78 68 71 74 79 90 99 104 107 108 108 108 109 109
106 105 110 113 113 114 113 112 113 112 112 95 49 80 97 97
92 88 83 76 75 54 27 7 9 1 0 0 0 0 0 3
11 13 14 15 14 17 6 0 1 6 25 38 30 29 21 19
17 21 21 30 29 27 27 27 26 26 8 0 0 0 0 0
0 0 0 0 0 5 25 33 33 33 32 33 34 33 36 39
19 26 34 32 16 0 0 0 0 0 0 0 0 0 0 0
0 0 0 0 0 0 3 32 33 27 20 18 36 92 113 130
124 114 90 64 68 74 78 88 97 102 104 107 106 107 108 107
105 105 108 113 114 113 115 113 113 114 112 107 97 102 100 97
97 96 90 80 78 57 29 14 20 7 1 4 0 0 1 9
12 13 14 14 14 19 3 0 10 15 30 36 30 29 20 19
16 21 22 30 29 28 28 27 27 27 9 0 0 0 0 0
0 0 0 0 0 2 32 38 37 38 38 37 37 37 36 36
19 25 34 31 16 0 0 0 0 0 0 0 0 0 0 0
0 0 0 0 0 0 3 31 33 26 20 19 37 92 107 121
132 135 107 59 58 67 75 86 96 98 103 102 103 108 110 109
107 106 109 112 116 114 115 113 115 114 111 107 106 104 101 97
99 103 99 88 78 57 31 30 31 8 12 21 2 4 7 16
18 25 26 17 9 11 0 1 21 26 36 34 30 29 17 16
17 20 24 30 29 28 27 28 27 26 10 0 0 0 0 0
0 0 0 0 0 0 29 38 37 37 36 36 36 34 36 36
17 24 33 31 17 0 0 0 0 0 0 0 0 0 0 0
0 0 0 0 0 0 3 33 34 27 23 22 31 76 89 86
96 109 102 55 50 65 72 83 95 99 101 103 103 108 110 110
108 105 110 114 116 115 116 116 117 114 111 107 105 102 99 97
101 106 105 94 84 66 44 36 21 23 42 30 2 38 46 61
35 29 26 29 31 10 0 44 84 26 39 33 30 27 15 13
16 18 22 28 29 28 28 28 28 25 10 0 0 0 0 0
0 6 0 0 0 0 15 27 29 32 23 25 26 24 25 27
17 24 33 31 17 0 0 0 0 0 0 0 1 2 3 4
6 7 8 10 12 14 18 32 31 26 25 24 25 44 67 37
30 59 72 39 55 67 65 77 91 98 101 103 105 107 109 111
110 108 110 114 114 116 117 114 113 112 110 107 104 101 98 96
102 109 108 98 86 75 61 42 43 64 44 24 11 71 93 70
12 10 11 13 20 32 20 98 135 39 39 30 29 25 18 13
9 18 23 26 27 28 28 28 27 25 10 0 0 0 0 0
4 10 0 0 0 0 7 27 31 28 26 27 26 22 26 27
16 21 32 31 24 10 10 13 15 17 19 21 22 23 25 26
27 27 27 27 28 28 27 27 28 27 24 24 24 24 23 21
22 35 61 60 71 70 61 73 88 100 101 102 102 106 109 110
110 111 112 113 115 114 115 114 110 111 110 107 104 99 96 98
106 112 108 100 87 77 73 75 85 85 59 35 49 75 105 72
10 9 9 7 26 12 25 90 102 29 40 27 23 17 6 3
6 4 15 19 23 25 26 25 25 26 12 0 0 0 0 0
16 9 0 0 0 0 5 36 37 33 35 36 35 32 36 36
16 22 32 33 31 29 28 29 31 32 31 31 30 30 30 30
30 29 29 29 28 27 27 27 27 26 24 24 24 24 22 22
22 31 66 72 72 69 61 68 80 92 100 102 103 105 109 109
111 113 113 112 115 115 113 110 107 108 107 103 101 98 97 100
107 112 111 103 91 79 78 85 90 90 84 76 67 59 83 35
6 5 4 8 33 5 6 41 26 30 41 18 2 0 0 0
1 0 0 9 31 22 23 23 21 25 12 0 0 0 0 0
19 4 0 0 0 0 0 30 39 39 39 38 38 37 37 36
15 21 32 33 32 32 27 29 32 32 32 31 30 31 33 34
23 17 21 24 22 14 22 23 23 23 25 23 24 23 23 22
22 25 58 67 70 72 66 65 76 89 97 101 105 105 106 108
110 112 112 112 114 115 112 110 106 106 105 101 98 95 96 104
109 114 113 104 92 82 81 88 91 92 90 86 76 58 23 5
7 8 24 48 65 68 76 79 80 79 53 25 14 0 0 0
0 0 0 1 25 15 20 22 14 17 16 6 1 0 0 0
3 0 0 0 0 0 0 8 29 31 31 32 31 32 35 35
13 20 31 33 32 31 28 27 29 28 28 26 26 38 55 39
4 0 0 3 3 0 5 15 15 13 10 8 8 15 22 22
22 28 58 72 67 68 68 65 71 83 93 99 102 104 105 107
109 112 113 112 111 110 109 109 106 102 100 96 94 93 97 106
113 117 114 108 95 84 83 88 92 91 93 92 83 69 28 7
9 25 85 91 99 102 94 88 98 98 64 34 29 0 0 0
0 0 0 0 14 14 18 22 18 17 8 11 5 0 0 0
0 0 0 0 0 0 0 4 12 21 22 23 21 23 33 35
5 8 16 15 14 13 11 9 10 11 15 15 29 63 52 10
0 0 0 0 0 0 0 0 0 0 0 0 0 0 15 23
22 32 61 87 82 69 65 63 71 78 89 94 99 102 105 108
108 109 109 112 112 110 106 104 101 100 99 93 85 93 101 110
115 117 114 108 96 84 81 88 89 91 96 95 88 77 54 42
63 82 99 95 99 101 96 90 97 98 59 5 3 0 0 2
1 1 3 3 8 17 17 7 6 4 0 0 0 0 0 0
0 0 0 0 0 0 0 6 10 23 32 31 32 32 35 36
0 0 0 0 0 0 0 2 2 3 17 20 50 63 22 0
0 0 0 0 0 0 0 0 0 0 0 0 0 0 9 24
22 24 42 51 68 73 61 56 65 76 84 90 96 99 103 104
107 108 109 110 109 106 101 97 97 95 86 89 88 95 104 112
115 116 115 109 98 87 82 87 89 92 95 97 92 82 68 72
58 45 68 79 75 66 67 68 68 70 48 22 22 18 15 16
9 6 9 5 4 6 3 2 1 0 0 0 0 0 0 0
0 0 0 0 0 0 0 1 1 7 33 38 38 38 37 37
0 0 0 0 0 1 5 10 8 7 18 29 59 40 5 0
0 0 0 0 0 0 0 0 0 0 0 0 0 0 15 26
25 23 32 41 38 39 38 40 55 72 81 86 93 94 98 101
105 106 106 103 105 103 102 97 90 89 86 89 92 99 107 112
114 117 114 108 99 87 80 86 89 91 96 97 92 85 75 58
110 136 140 140 132 89 71 53 35 29 17 12 9 6 3 2
0 0 0 0 0 0 0 0 0 0 0 0 0 0 0 0
0 0 0 0 0 0 0 0 0 0 26 39 38 37 38 37
2 2 1 0 0 0 5 12 11 11 7 42 58 13 0 10
16 0 0 0 0 0 0 0 0 0 0 0 0 13 26 27
26 23 22 23 45 56 52 46 48 61 77 84 88 91 90 93
98 103 103 102 103 100 95 95 88 87 84 90 93 94 105 111
112 113 114 109 100 87 80 85 91 92 95 97 91 87 79 64
69 107 113 106 88 68 47 44 46 42 9 0 0 0 0 0
0 0 1 1 0 0 2 0 0 0 0 0 0 0 0 0
0 0 0 0 0 0 0 0 0 0 19 39 38 37 38 37
5 4 2 0 0 2 9 17 17 12 4 50 51 13 24 38
39 9 0 7 4 0 0 0 0 0 0 0 1 8 14 12
12 15 20 20 39 53 49 54 57 52 66 79 84 87 88 89
93 97 99 97 96 93 92 90 86 84 85 91 95 100 103 108
110 111 111 106 99 87 81 84 89 90 94 97 91 89 81 73
58 52 45 34 28 46 115 74 56 50 12 0 3 6 10 16
26 39 20 41 45 34 59 63 67 23 0 0 0 0 0 0
0 0 0 0 0 0 0 0 0 0 10 35 34 34 34 33
6 6 6 8 13 18 20 17 16 6 9 53 31 10 34 43
42 17 4 32 32 15 0 4 8 4 0 0 0 0 0 0
0 3 17 17 21 43 50 55 56 56 55 66 79 84 82 85
88 91 93 93 90 91 87 79 79 81 89 92 97 100 103 105
107 108 108 106 101 88 82 83 88 92 94 95 95 91 84 79
72 61 62 54 22 31 135 125 65 49 86 89 108 119 126 132
133 136 90 137 118 107 132 120 116 55 0 1 1 2 0 0
0 0 0 0 0 0 0 0 0 0 3 29 28 29 27 28
5 5 6 9 17 22 17 7 6 0 15 58 24 5 36 44
43 15 23 48 43 29 4 4 3 0 0 0 0 0 0 0
0 1 13 15 14 16 25 49 54 57 58 57 66 76 81 83
84 86 88 90 86 84 79 81 80 83 85 92 96 98 101 103
105 106 108 108 99 88 82 84 88 93 94 96 97 94 88 84
81 79 79 71 65 71 139 134 116 74 93 87 81 92 98 108
118 122 72 88 83 107 101 70 67 48 2 18 10 23 2 0
0 0 0 0 0 0 0 0 0 0 1 24 29 30 30 28
1 1 3 7 16 21 10 0 0 0 20 62 26 6 26 14
30 31 44 53 43 31 8 7 1 0 0 0 0 0 0 0
0 0 13 14 14 13 14 38 53 61 65 59 61 71 76 79
81 83 84 84 82 77 76 78 81 86 90 94 96 98 101 103
104 107 109 108 97 88 82 84 88 92 97 99 99 96 93 88
87 91 91 81 76 124 140 137 137 136 109 89 72 82 85 103
101 95 58 71 107 111 92 97 92 44 4 17 12 13 4 1
0 0 0 0 0 0 0 0 0 0 0 11 30 31 30 30
2 3 3 8 17 20 8 0 0 0 23 65 33 8 14 5
27 44 56 50 29 31 11 2 0 0 0 0 0 0 0 0
0 0 10 16 16 15 14 32 54 63 74 72 66 67 74 76
78 80 82 80 75 73 76 78 80 86 89 95 95 96 96 100
104 109 113 109 105 92 82 85 89 94 97 100 102 100 96 92
93 95 81 87 103 141 139 139 140 140 138 127 107 100 79 74
62 44 45 58 69 59 40 41 46 22 0 8 9 1 0 1
0 0 0 0 0 0 0 0 0 0 0 1 29 31 28 30
5 4 4 10 17 19 10 9 7 0 23 66 49 17 10 5
33 52 59 33 4 25 8 0 0 0 0 0 0 0 0 0
0 0 10 29 31 27 14 27 55 66 77 81 76 73 76 75
72 72 69 69 70 72 73 76 79 83 89 92 91 94 95 98
102 107 111 112 109 95 84 84 91 94 98 102 104 104 100 99
97 93 91 97 136 137 138 139 140 139 135 126 123 134 128 97
76 37 15 16 29 24 19 16 1 1 5 5 3 13 0 0
0 1 0 0 0 0 0 0 0 0 0 2 30 31 29 30
8 7 8 19 25 26 20 22 16 0 16 57 52 26 4 3
34 53 42 16 0 23 9 0 0 0 0 0 0 0 0 0
0 0 11 38 40 38 36 54 49 67 78 83 81 80 77 72
71 68 70 68 70 67 71 73 76 78 82 86 86 88 91 94
99 104 106 114 108 96 84 85 91 96 99 104 108 108 105 100
88 97 101 134 139 138 139 138 140 137 129 131 124 127 133 135
135 129 105 63 45 39 27 24 1 0 14 7 4 13 9 0
0 0 1 0 0 0 0 0 0 0 0 3 31 31 32 31
8 6 12 29 28 25 22 21 17 0 11 57 58 34 1 5
30 33 11 2 0 3 1 0 0 0 0 0 0 0 0 0
0 0 7 35 60 80 82 79 53 62 74 83 84 81 73 67
61 62 65 66 65 64 63 66 72 75 78 78 79 81 83 89
94 100 109 113 107 94 84 87 93 98 102 106 110 110 108 80
98 109 132 136 140 139 139 139 139 132 129 129 129 132 132 130
124 123 128 126 117 80 39 43 3 0 11 6 2 3 7 4
0 0 1 0 0 0 0 0 0 0 0 3 29 28 32 30
8 3 6 20 29 30 29 26 20 1 4 38 33 18 0 0
4 1 0 0 0 0 0 0 0 0 0 0 0 0 0 0
8 36 69 85 86 84 83 88 77 53 66 75 75 70 61 55
53 58 59 58 59 57 55 58 63 68 72 74 74 76 80 86
95 103 109 112 106 92 86 90 96 102 105 110 114 113 100 84
111 132 138 133 140 139 140 139 136 130 124 128 126 126 120 121
126 135 138 137 134 137 122 101 46 12 14 4 6 1 5 2
0 0 0 4 0 0 0 0 0 0 0 7 30 29 31 33
12 4 0 3 12 18 14 8 4 0 0 2 0 0 0 0
0 0 0 0 0 1 0 0 0 0 0 0 0 1 19 53
83 90 88 83 79 85 89 93 95 75 59 59 58 59 52 48
48 49 52 49 38 30 28 35 49 60 64 65 68 74 83 92
97 104 109 111 106 94 86 91 97 102 109 116 118 112 84 111
134 139 139 140 140 140 140 136 129 127 127 126 125 125 127 137
138 137 139 138 126 124 125 124 124 116 87 37 6 4 4 0
1 0 0 6 0 0 0 0 0 0 1 15 30 28 30 34
5 0 0 0 0 0 0 0 0 0 0 0 1 4 5 0
2 2 6 1 5 8 0 0 0 0 0 3 31 72 85 77
68 71 71 71 80 94 101 100 93 85 76 63 67 70 78 81
78 43 26 33 11 15 17 16 22 38 50 54 62 73 80 86
93 104 109 112 106 94 85 90 95 103 113 118 121 122 114 137
139 139 140 140 139 136 137 128 129 124 125 122 127 132 134 136
138 135 132 136 136 134 132 129 125 120 119 115 96 43 7 2
1 0 0 2 0 0 0 0 0 0 1 17 31 30 29 31
0 0 0 0 0 0 0 0 0 0 0 0 23 33 26 13
18 21 23 9 16 8 0 0 0 3 39 85 69 49 39 34
30 23 40 66 86 82 82 93 113 118 113 93 99 100 100 90
100 54 22 38 21 7 18 31 50 67 70 65 63 64 70 80
89 103 109 112 105 92 84 86 92 104 115 120 132 120 140 141
140 141 140 139 140 140 136 137 133 132 127 129 137 139 139 138
138 136 136 137 138 136 132 131 131 125 123 119 118 119 95 47
3 2 0 2 0 0 0 0 0 0 3 20 34 36 35 35
0 0 0 0 0 0 0 0 0 0 0 0 22 34 33 44
31 33 32 26 24 3 0 2 37 94 111 107 60 47 37 36
27 22 70 119 124 131 133 119 103 109 115 86 97 105 105 94
98 85 57 49 43 44 53 59 77 89 94 92 81 71 66 69
80 97 107 112 105 92 80 85 95 105 116 113 127 141 140 138
140 140 139 139 139 136 138 134 139 135 134 138 139 140 139 138
139 139 138 137 138 136 130 126 133 134 130 131 124 122 113 110
80 18 0 1 0 0 0 0 0 0 3 20 32 35 34 35
7 0 0 0 0 0 0 0 0 0 0 0 5 27 38 48
40 42 43 36 15 0 23 82 114 120 121 96 55 51 36 31
21 28 72 100 101 97 112 127 125 104 104 92 108 119 120 119
112 120 106 95 90 102 122 117 89 83 90 95 96 89 79 74
78 91 104 111 107 96 79 87 99 109 123 137 141 141 137 140
141 140 139 139 137 139 139 140 139 139 138 139 138 138 139 138
138 139 138 139 137 136 134 133 131 138 138 137 134 123 117 113
115 97 21 2 0 0 0 0 0 0 1 13 24 27 27 31
2 0 0 0 0 0 0 0 0 0 0 0 0 13 30 35
49 42 41 20 4 53 111 121 127 134 127 115 77 74 44 37
20 24 80 102 99 106 104 107 125 131 117 122 131 134 133 138
131 138 135 138 126 114 121 134 136 118 95 86 89 90 78 70
74 87 103 110 106 93 77 88 114 134 141 141 140 141 139 140
140 140 140 138 139 138 139 139 140 139 139 139 139 139 138 138
139 138 138 136 134 135 136 133 126 130 137 135 136 120 119 120
119 115 103 35 0 0 0 0 0 0 2 18 31 33 33 33
0 0 0 0 0 0 0 0 0 0 0 0 0 0 11 22
29 26 13 13 75 110 125 135 132 136 121 130 133 126 128 91
36 39 121 135 133 137 133 116 97 86 105 138 138 139 138 131
136 131 140 143 141 129 117 123 133 133 134 126 108 98 84 70
68 79 102 110 108 99 110 129 133 139 138 139 141 140 140 140
140 139 138 140 139 139 139 140 140 139 139 137 138 139 139 138
138 137 134 133 133 136 136 137 131 125 135 137 136 121 124 122
133 127 116 108 39 0 0 0 0 0 1 17 29 32 32 32
0 0 0 0 0 0 0 0 0 0 0 0 0 0 0 7
10 9 17 88 107 115 127 141 137 133 124 126 126 128 119 113
123 91 113 114 117 121 128 102 89 92 119 140 138 136 134 131
131 136 134 141 140 139 130 122 127 131 130 127 137 140 134 115
107 99 113 121 131 138 139 136 135 134 139 140 140 139 139 138
138 137 139 139 140 138 139 140 139 139 139 137 138 138 138 138
137 137 137 136 135 137 136 136 136 133 135 136 132 124 131 123
134 132 124 114 107 32 0 0 0 0 1 15 26 29 29 31
0 0 0 0 0 0 0 0 0 0 0 0 0 3 7 10
11 24 92 114 112 118 125 143 142 134 124 121 133 130 128 137
114 118 128 134 135 132 116 101 121 138 137 134 136 137 136 135
132 132 136 134 139 141 138 140 137 127 126 131 134 136 137 135
132 139 138 135 133 133 135 138 136 135 137 138 135 136 137 136
139 139 140 139 139 139 138 138 139 138 138 136 137 138 137 137
137 137 137 137 137 137 136 136 136 135 135 136 133 130 131 126
134 134 131 120 115 102 21 0 0 0 0 11 21 25 26 28
0 0 0 0 0 1 0 0 0 0 0 0 0 5 11 11
22 90 114 121 117 127 126 144 144 134 126 128 137 138 137 123
132 142 134 130 125 125 134 143 143 143 139 142 142 141 141 139
138 135 133 138 139 140 141 141 138 130 134 128 131 131 132 131
133 126 129 125 125 123 135 135 136 138 139 139 138 139 138 139
140 139 139 139 138 139 138 138 138 138 138 137 137 137 138 137
137 137 137 136 137 136 136 135 135 136 135 135 135 131 131 127
135 135 134 128 120 114 93 14 0 0 0 1 4 4 5 14
0 0 1 2 0 4 5 2 0 0 0 0 0 4 10 14
79 114 120 127 123 125 125 143 143 128 129 114 121 126 121 133
136 125 128 143 143 143 143 143 143 143 138 139 141 142 141 141
141 140 136 139 142 141 139 141 142 138 135 135 133 138 137 131
123 120 127 126 129 129 134 135 138 139 139 139 139 139 139 139
139 140 139 139 139 138 138 139 138 137 138 137 137 138 137 137
137 136 136 137 137 136 136 136 132 135 136 135 134 134 132 124
134 135 133 127 129 125 111 87 9 0 0 0 2 2 2 7
0 1 3 3 0 3 5 6 3 0 0 0 0 3 11 62
108 124 124 132 127 129 125 143 138 129 128 116 130 131 132 137
144 143 143 143 143 143 143 143 143 143 138 140 143 143 141 139
141 141 140 141 141 141 140 139 140 141 137 129 135 137 139 137
131 127 125 124 132 134 136 138 137 137 136 136 139 139 139 139
139 139 139 138 139 138 138 138 138 138 138 137 136 137 137 137
136 137 136 136 136 136 136 135 128 134 135 135 135 135 134 128
135 134 134 130 130 123 121 112 80 3 0 0 0 0 0 6
0 2 3 2 0 0 4 7 6 1 0 0 0 1 50 107
113 135 133 136 130 130 126 142 138 131 119 77 84 105 108 138
142 144 143 143 143 143 143 143 143 143 139 140 143 140 140 141
142 142 141 141 141 142 141 142 141 141 140 139 136 138 140 139
137 133 127 129 137 139 140 139 139 138 139 139 139 139 139 139
138 138 139 138 138 137 137 138 138 138 136 136 135 136 137 136
136 137 137 136 136 136 136 135 132 134 136 135 135 135 134 126
134 135 133 134 132 123 123 115 115 59 0 0 1 2 1 7
0 2 6 5 3 0 2 5 5 4 2 0 0 15 106 112
116 132 137 143 123 127 122 138 136 135 120 54 28 32 36 103
123 144 144 144 144 143 143 137 122 116 116 142 143 142 142 143
142 142 142 142 142 141 141 140 141 142 141 140 141 141 137 137
140 138 137 134 134 135 139 139 139 139 139 139 140 140 139 139
140 139 139 139 139 137 138 138 138 138 138 138 136 135 138 137
137 137 137 136 137 136 136 135 126 131 136 135 135 136 133 124
135 135 135 135 134 132 131 118 115 108 29 0 0 0 0 6
0 0 8 7 7 4 2 2 3 3 2 0 3 81 115 118
116 138 144 141 122 132 119 128 138 139 120 50 27 29 33 83
90 101 120 124 125 122 109 92 94 98 113 143 142 142 142 142
142 142 141 142 142 142 142 141 142 141 142 142 141 140 140 140
140 139 140 139 139 140 140 139 140 139 140 139 140 140 139 139
139 139 138 138 138 137 137 138 138 138 138 137 138 136 137 137
137 137 137 136 136 136 137 136 129 128 135 136 136 136 134 131
135 135 135 135 132 133 127 126 121 111 91 9 18 19 18 18
0 0 2 6 7 8 6 2 2 3 2 2 37 115 116 124
126 130 139 143 123 131 119 133 139 142 117 46 27 29 32 78
92 85 93 97 97 94 89 90 96 99 114 142 142 143 142 141
141 142 141 140 140 141 142 141 141 141 141 141 140 138 140 138
140 141 140 140 139 139 140 140 140 139 140 140 140 139 139 139
139 139 139 139 137 137 137 137 137 138 138 138 137 136 138 138
138 136 138 137 137 137 136 136 129 125 135 136 136 135 134 131
136 136 135 135 135 133 129 128 124 111 116 58 22 27 27 25
0 0 0 3 8 9 8 3 3 5 4 13 100 117 124 132
128 125 134 143 122 136 125 133 139 142 116 43 27 30 31 60
116 104 94 94 96 90 90 96 101 101 119 143 143 142 143 142
141 142 141 141 140 141 141 141 141 141 141 141 141 140 140 139
140 138 138 140 140 139 140 140 140 139 140 140 140 139 139 139
139 138 138 139 138 137 137 137 137 138 138 137 137 137 137 137
138 136 136 137 136 136 136 136 128 123 135 135 136 136 134 130
136 136 135 135 135 135 133 133 130 117 111 114 20 3 4 4
0 0 0 0 6 9 6 3 6 7 5 64 121 131 131 130
126 134 137 142 124 137 128 129 138 134 104 37 28 31 30 35
122 139 135 135 133 95 94 98 99 100 121 142 143 143 142 142
142 142 142 142 140 140 141 141 141 141 140 140 140 139 140 140
140 140 140 140 139 140 139 139 139 139 139 139 139 138 138 139
138 138 139 139 138 137 137 137 138 137 138 137 137 137 137 137
137 137 136 137 136 136 136 136 127 122 130 136 136 135 135 128
136 136 136 135 135 135 134 134 132 125 113 113 46 0 0 0
0 0 0 0 1 6 3 1 1 0 18 115 121 139 143 131
131 135 132 134 127 139 132 130 139 129 104 34 28 31 31 34
118 144 141 142 134 96 95 99 101 99 123 143 143 143 142 142
142 141 140 138 141 140 141 141 141 140 141 141 141 140 141 140
139 139 139 140 139 140 140 140 139 140 140 139 139 139 139 138
138 138 138 138 138 136 137 137 138 137 138 138 138 138 137 138
137 137 137 137 137 137 137 137 129 119 130 136 136 135 134 131
136 135 135 135 135 135 135 132 130 132 122 119 103 4 0 0
0 0 0 0 0 0 0 0 0 0 71 119 123 142 144 134
127 135 139 135 121 138 134 130 135 127 102 29 29 30 30 33
117 143 143 142 134 96 97 98 99 97 125 142 142 142 142 142
142 141 139 136 140 142 141 141 140 139 139 140 140 141 140 140
139 139 139 137 136 137 139 140 140 140 140 139 138 139 138 138
138 139 139 139 139 136 138 138 137 138 137 137 138 137 136 137
137 137 137 137 137 137 137 137 129 118 132 137 136 136 134 133
136 136 135 135 135 135 135 134 133 133 124 120 122 39 0 0
0 0 0 0 0 0 0 0 0 16 120 120 123 142 144 141
136 139 144 139 117 139 137 122 130 130 98 25 29 30 32 33
115 141 143 141 129 96 97 99 99 97 125 143 142 142 142 142
142 142 141 138 141 141 140 141 141 141 140 140 141 141 140 140
140 140 140 140 140 139 139 140 140 140 140 139 140 139 140 139
139 139 139 138 139 138 137 138 138 138 138 138 138 138 136 135
137 137 137 137 137 136 137 137 130 120 132 136 136 136 134 135
136 135 135 135 135 134 133 134 134 129 123 124 124 96 0 0
0 0 1 0 0 0 0 0 0 70 127 123 126 142 142 140
141 139 143 142 119 135 136 117 123 125 93 25 29 29 29 35
119 138 143 139 125 95 97 98 99 96 130 142 142 141 142 142
142 141 138 136 140 141 141 141 141 140 140 141 140 141 140 140
140 140 141 140 140 139 140 139 140 139 140 139 139 138 138 138
138 138 139 139 139 137 138 138 138 138 138 138 137 137 137 136
137 136 137 137 137 137 137 137 129 119 129 132 135 135 133 135
136 135 135 135 134 134 134 135 134 134 128 126 126 125 22 0
