P2
128 120
151
0 0 0 0 0 0 1 14 51 54 46 59 59 12 0 0
6 12 6 0 0 1 22 70 72 50 27 30 30 30 25 8
3 5 7 12 17 31 38 36 35 31 26 26 35 33 34 40
62 25 0 3 9 23 16 11 8 35 65 66 53 53 55 50
56 59 63 63 61 44 47 50 53 46 51 54 53 47 20 20
26 40 40 39 38 38 38 44 48 45 44 40 37 36 34 32
32 31 30 29 28 28 28 27 26 35 38 35 32 33 33 29
22 21 21 21 21 20 19 18 19 19 19 22 24 24 23 20
0 0 0 0 0 0 0 3 37 63 53 63 61 13 0 0
0 0 0 0 0 0 20 72 73 55 32 32 32 33 34 22
4 3 8 13 13 15 15 19 21 10 10 7 19 19 22 29
61 27 0 5 13 32 19 6 9 30 67 65 23 9 31 14
22 29 36 41 56 48 50 52 55 54 57 58 57 54 24 20
27 42 41 40 39 38 37 45 49 47 44 41 40 41 43 37
36 34 32 30 27 28 28 28 27 33 34 34 32 33 33 31
24 22 22 21 21 21 20 20 19 20 20 23 25 25 23 19
1 0 0 0 0 0 0 0 22 67 58 64 62 14 0 0
0 0 0 0 0 0 20 72 74 58 35 35 36 35 29 20
5 0 1 15 18 8 2 4 5 3 3 0 6 9 11 23
62 29 7 22 15 53 46 12 3 32 67 67 23 2 12 1
0 4 13 5 44 50 51 53 55 55 57 57 57 56 28 19
30 45 44 42 41 40 39 45 47 47 44 44 45 46 46 39
37 39 39 36 33 32 31 29 28 29 14 14 16 22 25 29
25 22 22 21 21 21 21 20 20 20 20 23 25 25 24 10
0 0 0 0 0 0 0 0 12 67 63 65 63 14 0 0
0 0 0 0 0 0 18 71 74 60 24 15 27 17 6 1
1 4 3 18 26 19 13 8 11 0 1 1 0 2 8 21
65 31 12 27 33 50 41 41 10 24 69 67 24 0 3 5
0 16 24 14 44 49 47 50 50 55 57 57 56 54 30 20
30 47 43 41 42 44 44 43 12 13 26 37 42 43 45 36
7 9 17 24 30 30 36 35 32 29 12 5 6 4 1 6
26 22 22 22 21 21 20 20 20 20 20 23 26 25 24 19
0 0 0 0 0 3 12 26 45 70 66 66 66 15 0 0
0 0 0 0 0 0 18 71 74 64 24 1 3 3 4 2
4 5 5 12 23 25 18 10 10 6 5 1 0 0 2 20
66 34 7 25 38 48 30 34 15 19 67 69 30 0 6 2
0 21 27 19 46 42 12 20 28 39 46 49 49 52 31 21
29 46 45 38 36 42 48 48 6 0 2 14 18 17 24 35
1 0 0 0 1 5 9 15 24 30 11 0 2 3 1 2
27 23 23 22 21 21 21 20 21 21 21 24 26 25 25 23
5 10 19 27 41 55 65 70 72 73 68 65 68 39 24 18
12 11 8 6 5 4 20 71 74 67 42 12 0 3 2 3
5 5 8 3 11 29 29 23 16 16 7 5 8 5 7 25
68 37 0 7 23 39 34 22 4 17 67 69 34 0 9 3
1 13 15 13 44 40 2 2 5 6 5 11 9 41 33 21
23 30 37 43 45 46 50 50 8 0 1 8 12 13 16 35
2 0 0 0 0 0 0 0 7 31 8 0 0 0 0 2
28 23 23 22 22 21 21 20 21 21 22 24 27 26 25 23
47 51 48 49 51 60 71 72 73 73 68 55 61 64 62 65
56 59 60 59 57 54 57 70 72 67 41 10 0 0 0 1
2 2 6 16 19 29 32 23 27 24 5 2 6 6 2 19
66 41 0 0 0 7 6 0 0 14 67 72 37 0 5 2
3 7 0 3 43 40 3 2 0 0 0 0 0 34 33 20
15 0 2 6 13 22 31 40 11 0 0 4 2 6 11 36
5 0 0 0 0 0 0 0 6 30 3 0 0 0 0 1
28 22 23 23 22 21 21 21 21 21 22 24 27 26 25 23
58 62 59 63 67 70 72 73 72 69 63 52 56 61 56 55
63 68 68 66 61 58 48 30 38 43 43 7 0 0 0 1
1 4 7 34 32 35 34 24 32 28 1 0 0 4 2 18
58 43 0 0 0 0 0 0 0 13 66 72 42 0 3 10
10 19 1 1 42 41 7 9 2 11 0 0 0 35 36 21
14 0 0 0 0 0 0 12 12 0 0 0 0 1 9 33
2 0 0 0 2 0 0 0 4 31 2 0 0 0 0 2
30 23 23 23 22 21 21 21 21 21 22 24 27 26 26 24
70 69 69 69 69 67 61 60 37 26 35 28 10 15 29 31
43 50 53 48 53 57 45 24 31 42 47 7 0 0 0 0
0 0 4 37 34 41 40 20 24 20 1 0 4 9 8 20
60 47 1 0 0 0 0 0 0 11 65 73 49 1 8 26
24 32 6 3 41 42 10 11 6 23 9 0 0 33 37 21
15 0 0 0 0 0 0 7 11 0 0 0 0 0 10 37
5 0 0 0 8 7 1 0 2 31 2 0 0 0 0 0
29 24 23 22 22 22 21 21 21 21 22 23 27 26 26 24
63 62 61 59 54 42 39 46 20 18 35 20 0 3 3 4
15 23 17 4 12 36 44 54 55 51 38 3 0 0 0 2
7 3 3 12 11 37 31 2 6 7 6 3 6 7 8 22
61 57 36 31 30 29 26 23 21 26 67 73 54 6 10 7
6 9 7 4 39 42 9 11 3 19 16 0 0 33 36 21
16 0 0 0 1 0 0 6 11 0 0 0 0 0 8 39
6 0 0 0 8 10 9 4 1 31 3 0 0 0 0 0
27 24 23 23 22 22 21 21 22 22 22 23 27 27 26 24
43 50 54 56 58 57 56 54 46 40 50 19 0 0 0 0
1 8 1 4 15 35 66 66 56 34 13 0 1 13 3 1
8 6 7 5 0 27 24 0 0 5 3 2 6 2 4 19
57 71 70 67 64 62 59 54 51 49 54 58 38 5 7 15
18 9 5 1 38 39 7 9 6 3 7 0 0 33 35 20
16 0 1 1 14 5 0 4 10 1 1 0 0 0 7 40
7 0 0 0 10 11 10 7 0 29 4 0 0 0 0 0
26 24 23 23 23 22 22 22 21 22 23 24 28 27 26 24
35 36 37 41 42 43 46 51 60 53 63 20 0 0 0 0
0 2 0 5 6 33 72 70 57 10 3 0 4 12 2 8
4 6 5 2 6 30 33 2 2 3 0 0 0 0 0 15
66 69 54 55 55 54 58 59 57 50 41 41 18 5 4 10
17 9 5 2 39 37 3 8 12 1 0 0 0 35 35 21
16 3 13 8 7 1 0 4 11 0 0 0 0 1 10 41
9 0 0 0 4 9 9 7 0 30 15 5 1 0 0 0
25 25 23 23 22 23 21 21 21 22 23 23 28 27 27 24
5 2 0 1 3 2 3 16 60 67 66 27 5 9 3 0
0 0 0 1 1 36 75 72 60 12 9 4 3 2 6 6
3 4 4 6 3 25 35 7 4 1 0 0 0 0 0 16
71 57 6 5 9 13 19 28 35 48 56 48 56 53 47 43
40 33 25 22 45 40 5 7 9 1 1 0 0 36 35 23
18 8 10 0 5 5 0 4 14 0 0 0 0 1 18 43
19 5 3 2 0 1 6 6 0 29 37 34 30 26 23 22
33 25 24 24 23 22 22 22 22 22 24 24 29 27 27 23
0 0 0 5 25 19 0 12 62 67 67 39 43 53 31 13
0 2 7 1 1 38 75 70 60 9 7 8 14 19 23 20
17 12 9 8 17 31 38 6 10 6 11 3 0 0 0 15
69 57 8 0 1 6 3 0 1 17 63 60 45 44 48 51
60 61 61 60 53 62 46 29 35 35 34 29 25 43 33 22
19 7 2 0 0 1 1 6 35 24 16 16 9 2 4 44
40 34 32 29 22 14 9 7 4 31 38 36 35 34 39 42
40 26 24 24 23 23 23 23 22 22 24 24 28 28 27 22
0 0 0 8 37 33 4 11 64 69 69 51 40 38 44 11
8 20 41 13 2 38 73 68 59 8 0 0 0 14 10 16
34 28 41 48 48 46 42 21 20 18 14 8 3 0 2 26
69 59 20 0 7 7 11 7 3 13 64 67 31 21 23 30
31 31 29 42 63 74 59 39 49 53 57 55 54 52 32 22
19 2 0 0 0 0 0 7 50 52 42 43 44 42 38 51
30 15 16 19 21 23 24 28 32 40 31 31 33 34 39 41
41 27 24 24 24 23 22 22 22 23 23 25 28 28 27 21
0 0 0 7 32 31 10 11 64 70 69 40 10 20 24 12
22 29 48 26 4 39 73 69 59 8 2 0 1 6 9 24
52 43 50 59 61 53 26 1 4 13 25 29 21 10 17 39
69 58 23 9 10 12 32 26 8 12 62 66 33 24 19 25
22 20 9 32 71 74 52 40 49 56 58 58 60 57 32 22
20 3 0 0 0 0 0 6 52 47 45 50 52 55 47 43
27 12 13 13 12 11 9 9 9 10 9 13 16 22 27 24
24 24 24 25 23 23 22 22 22 23 24 24 29 28 27 19
0 0 0 5 28 31 15 14 67 72 69 21 1 7 13 16
20 20 25 8 1 40 73 70 61 8 1 0 4 8 11 29
49 42 54 65 70 59 29 0 0 2 17 30 24 15 23 56
71 57 31 46 30 26 30 10 3 10 61 66 26 7 17 13
10 9 11 28 64 66 41 35 47 53 54 56 58 59 34 23
26 35 33 24 15 9 5 9 47 40 46 50 52 56 50 40
29 14 14 12 11 9 8 7 6 5 5 6 5 16 26 24
22 23 25 25 24 23 23 23 22 23 24 24 28 28 27 17
4 0 8 5 21 35 37 19 67 71 68 16 8 33 10 5
10 6 1 2 1 42 74 70 63 10 3 6 5 1 3 23
41 40 59 74 76 66 34 0 0 0 9 16 13 18 28 64
72 54 29 36 24 18 29 30 10 9 58 58 25 11 14 17
10 9 10 17 28 28 19 11 13 15 12 15 22 44 36 25
29 51 60 58 53 50 46 45 48 34 42 47 50 52 51 43
34 16 15 11 8 7 8 7 7 6 7 8 8 19 15 6
24 25 25 23 22 23 24 23 23 24 25 25 29 28 26 17
8 3 12 10 20 30 41 22 66 71 67 15 1 5 0 0
0 0 0 0 2 42 75 72 64 10 4 8 6 1 9 11
17 34 59 75 76 70 39 0 0 15 39 40 37 41 43 70
74 56 22 19 14 15 39 35 17 16 39 24 13 12 13 8
6 7 9 6 2 4 7 11 9 5 6 8 6 34 39 25
32 92 129 122 84 60 56 57 45 11 12 17 23 30 32 34
37 17 13 8 1 2 1 7 10 9 6 10 11 20 28 23
30 32 30 22 2 18 23 23 23 24 22 22 28 28 26 18
0 3 13 7 10 16 16 15 67 71 66 14 0 0 0 1
0 0 0 0 1 43 75 72 65 11 0 1 7 1 11 8
4 30 56 74 74 70 40 0 0 11 41 45 55 66 53 50
71 70 56 46 48 51 43 24 22 18 14 10 9 7 5 7
6 7 10 11 14 11 10 7 2 3 4 8 13 32 41 27
90 146 144 144 144 133 107 63 42 4 0 0 0 3 12 23
38 16 11 6 0 0 0 1 4 2 0 3 4 14 32 30
25 27 28 30 25 24 24 23 23 22 6 13 26 27 27 17
0 2 31 18 0 3 3 13 69 72 69 28 16 14 11 9
7 4 2 1 1 44 73 71 64 11 1 5 7 4 11 13
11 24 51 70 72 68 40 0 0 11 40 43 50 57 30 10
60 69 58 28 49 63 46 26 20 21 13 8 5 8 9 8
12 15 12 12 7 4 6 5 3 3 5 3 5 22 37 56
131 145 144 144 144 144 144 128 43 1 0 0 0 0 2 22
39 14 11 7 0 0 1 0 0 0 0 0 0 10 33 28
20 18 19 22 24 25 23 24 24 22 5 14 25 27 27 20
0 4 41 27 0 0 0 13 69 64 65 69 73 68 63 58
52 48 47 43 39 58 73 69 64 13 0 1 2 1 2 4
4 6 48 69 70 69 42 0 0 18 55 57 49 40 29 3
46 65 56 22 39 44 21 24 20 19 11 9 12 13 12 16
16 7 9 9 4 7 6 4 2 1 0 3 10 15 17 48
118 133 141 144 144 143 143 143 69 0 0 0 0 1 0 15
39 10 4 0 0 0 6 3 0 0 0 0 0 8 33 30
13 22 26 20 22 24 24 24 24 24 17 18 26 28 29 25
0 10 39 29 0 0 0 11 52 50 60 67 81 79 76 73
70 68 72 72 73 73 71 68 62 13 4 4 6 5 6 5
6 4 49 69 70 71 50 16 14 18 35 61 58 54 43 10
37 62 47 12 24 15 25 22 24 15 13 7 13 12 14 16
9 7 10 6 5 5 11 6 2 2 2 4 12 11 13 19
54 107 116 138 140 143 143 143 95 1 0 0 0 0 0 17
35 0 0 0 0 0 4 9 4 0 0 0 0 8 33 32
9 17 18 16 21 23 24 24 23 24 22 18 28 28 29 28
0 14 35 27 2 0 0 14 41 53 63 72 81 78 75 76
73 73 75 74 76 75 73 70 64 31 49 50 51 52 50 46
44 41 61 70 73 73 62 62 64 56 29 28 49 60 57 32
26 39 40 21 14 18 23 22 25 17 11 12 16 15 19 11
9 14 10 5 7 14 12 8 7 3 6 6 10 7 15 9
15 30 71 130 130 135 143 143 122 5 0 0 0 0 0 19
37 0 0 0 0 0 2 12 10 6 0 0 0 7 33 33
12 11 14 11 21 24 25 24 24 24 23 19 27 28 28 29
6 20 34 24 6 1 7 33 43 54 63 71 69 69 71 66
68 67 60 64 72 74 74 74 74 67 67 72 73 77 65 56
60 66 72 66 76 76 70 71 66 54 63 36 10 14 17 7
7 4 22 31 16 28 26 20 25 23 21 18 21 26 18 14
21 21 12 12 10 13 12 10 9 8 8 10 9 9 12 9
9 14 31 117 144 144 142 134 136 10 0 0 0 0 0 20
33 0 0 0 0 3 13 14 12 11 0 0 0 6 33 34
21 17 12 11 19 23 24 24 24 23 23 18 27 29 29 29
54 55 57 54 49 41 25 27 34 43 48 52 52 54 56 56
68 49 15 20 27 41 47 45 67 73 69 73 74 78 62 58
64 71 77 76 80 78 77 74 59 30 69 69 34 2 0 1
8 2 11 20 18 26 31 27 37 32 29 37 37 34 28 28
26 18 19 17 18 17 15 11 12 7 8 10 10 14 6 5
4 9 15 67 139 144 142 136 124 5 0 1 7 2 0 17
30 0 0 0 0 2 12 18 7 2 0 0 0 5 31 36
22 13 1 0 16 22 25 24 23 23 22 16 27 28 28 28
63 49 51 60 64 55 13 0 4 5 4 4 7 3 5 6
56 50 8 12 1 19 36 13 57 75 78 71 69 67 62 64
69 75 80 82 82 82 81 79 61 19 65 72 38 15 5 0
14 6 17 14 25 33 40 49 61 58 60 63 52 52 48 49
39 35 34 29 26 21 19 17 13 13 14 14 19 12 7 4
5 6 7 19 111 144 143 137 69 1 0 11 18 8 0 17
29 0 0 0 0 0 0 12 2 0 0 0 0 2 30 37
20 8 2 0 13 21 24 24 24 24 21 17 27 28 28 28
57 10 8 10 13 22 5 0 1 0 0 0 3 0 2 3
52 55 12 23 1 11 24 21 59 75 75 47 46 51 60 63
69 74 78 79 78 80 80 79 66 11 59 72 30 5 2 0
24 31 21 16 29 50 62 81 91 94 91 85 84 78 77 65
57 58 51 39 43 35 34 31 29 17 17 22 18 10 7 3
4 5 5 7 53 142 141 54 20 2 1 17 19 12 1 16
27 0 1 0 0 0 0 12 4 0 0 0 0 0 29 37
11 5 0 0 13 21 24 24 24 24 21 19 28 29 28 27
65 19 3 0 3 21 2 0 0 0 0 0 5 0 3 5
48 61 11 15 13 18 36 56 68 77 70 13 4 25 40 26
29 34 38 41 43 45 47 56 68 14 52 74 54 19 10 10
35 25 23 32 50 74 93 107 115 118 121 112 114 111 104 93
84 76 66 62 56 51 49 45 33 28 29 21 17 10 5 1
4 3 5 3 11 102 144 37 23 26 22 30 27 25 15 24
28 0 0 0 0 0 0 11 6 0 0 0 0 0 25 35
7 3 0 1 18 19 24 24 24 24 19 22 28 29 28 27
65 41 12 5 13 28 0 0 0 4 4 0 4 0 0 7
47 64 5 0 21 46 40 68 72 77 69 12 1 23 35 9
7 9 12 13 11 8 7 22 69 36 49 73 70 64 57 56
47 28 49 66 87 102 119 123 130 132 135 132 128 122 117 106
104 86 82 72 65 68 63 57 45 39 28 19 18 10 3 4
7 2 4 2 2 28 114 15 26 45 45 48 47 45 48 50
33 2 2 1 0 0 0 12 6 0 0 0 0 0 20 35
4 0 0 0 14 19 25 25 24 24 19 24 29 29 28 24
68 59 24 9 10 27 0 0 2 10 3 0 0 0 0 1
39 67 10 4 12 31 40 64 70 76 69 12 0 21 37 6
4 7 7 14 11 9 11 23 69 52 47 73 72 72 72 69
45 62 85 102 117 125 134 141 141 141 139 139 133 127 129 122
109 96 87 80 77 78 69 66 59 44 25 25 21 12 4 5
6 5 2 5 3 6 18 3 26 46 47 47 45 48 53 55
43 25 25 20 14 11 12 18 13 7 5 4 2 3 15 33
7 3 3 2 3 16 25 25 24 23 18 23 28 29 28 21
63 67 30 2 9 31 6 8 10 17 0 0 0 0 0 0
29 71 18 10 6 12 32 54 69 78 70 14 0 20 40 8
6 9 4 14 14 12 24 34 69 55 39 72 72 73 72 61
58 98 106 116 129 139 142 143 142 142 143 140 135 129 128 121
113 101 94 92 93 89 86 80 68 47 35 32 22 13 8 13
9 5 3 4 0 1 4 6 24 43 43 44 43 46 51 51
46 35 35 34 33 31 31 30 27 24 20 19 16 16 22 36
20 16 13 8 5 14 25 25 25 22 19 25 29 29 28 22
51 69 40 0 9 35 15 19 25 28 2 2 6 0 0 2
28 73 15 0 0 5 18 46 69 78 70 14 0 22 42 13
16 10 7 13 15 16 22 24 65 47 27 71 74 73 71 54
98 119 125 129 137 143 143 143 143 143 142 141 136 138 129 119
117 109 97 102 98 98 97 92 74 49 39 31 30 17 15 14
9 4 4 0 2 3 2 7 25 41 40 41 40 40 38 33
35 37 37 37 35 34 34 34 33 31 31 29 25 23 26 38
37 34 32 29 25 20 25 25 25 22 19 26 30 30 29 24
43 62 56 4 11 36 15 22 31 29 2 8 15 8 8 7
31 74 20 0 0 1 15 46 65 77 69 15 0 18 42 14
24 5 9 7 7 4 20 29 58 49 8 29 33 37 39 55
117 128 135 137 140 143 143 144 144 143 143 143 141 140 137 131
124 120 112 114 109 106 100 92 68 48 39 31 31 23 20 15
11 6 4 2 3 4 2 2 18 40 39 38 38 38 38 37
38 39 39 41 43 41 36 34 34 33 42 40 38 35 34 35
32 30 31 31 31 25 25 25 24 23 20 25 30 30 28 25
35 56 68 18 14 39 15 22 30 31 3 1 5 5 4 7
36 77 26 0 1 3 18 33 61 76 66 12 1 14 45 12
18 3 7 5 8 12 23 40 56 53 1 0 0 1 10 78
124 137 140 142 143 143 143 143 144 144 143 144 142 142 139 137
127 117 113 112 114 108 95 81 59 52 41 40 29 24 19 11
6 6 3 3 6 3 1 4 9 39 41 41 40 41 40 43
45 43 41 44 50 46 37 33 32 35 45 42 40 37 37 33
26 18 17 16 17 21 26 26 25 24 19 26 30 31 28 26
43 50 68 38 15 42 15 22 28 32 5 1 16 6 0 10
33 76 39 5 12 7 20 26 62 75 65 12 1 10 50 12
10 2 3 3 5 5 17 34 49 59 4 1 0 3 14 101
129 140 143 143 144 144 144 144 144 143 144 144 143 143 137 134
134 124 118 120 113 107 96 77 67 55 48 33 29 26 18 9
9 4 4 7 3 2 6 4 5 22 40 40 41 40 42 46
50 45 43 44 47 43 37 35 30 30 41 40 37 38 38 36
33 24 22 20 20 22 25 26 25 22 20 27 30 31 28 26
55 55 71 56 20 44 17 21 26 32 5 0 6 1 0 6
22 73 49 12 14 8 13 13 60 73 62 10 0 7 55 19
1 2 7 16 13 5 5 12 35 64 7 3 3 5 24 113
132 142 143 144 144 144 143 144 145 144 144 144 144 144 143 144
142 140 133 122 112 101 90 81 72 59 43 39 28 22 15 13
6 2 6 4 1 3 6 5 3 8 26 28 23 22 24 31
43 47 43 35 26 30 31 28 29 29 26 12 10 13 19 21
29 29 26 26 28 28 30 28 25 21 22 27 31 31 28 25
74 73 73 67 33 46 15 17 19 20 2 0 2 3 6 9
20 72 53 2 5 4 8 10 61 73 61 8 0 5 53 19
1 3 12 30 25 9 1 3 26 69 25 20 17 20 41 123
133 138 143 144 144 145 145 144 145 144 144 144 144 144 144 144
143 142 142 131 116 104 92 88 69 54 45 35 31 24 20 11
5 7 6 4 0 3 4 7 6 3 17 4 0 0 0 2
24 47 38 13 2 4 7 9 21 33 24 1 0 0 1 6
22 25 23 25 28 31 34 32 25 19 24 27 31 30 29 25
73 71 67 47 24 54 29 32 35 38 41 46 51 58 62 68
74 84 64 15 16 14 14 19 64 74 60 6 0 2 49 18
2 2 9 28 25 10 2 2 21 73 58 59 50 58 72 123
134 138 144 145 144 145 145 144 144 144 144 143 143 143 143 143
143 143 143 136 122 109 98 83 68 59 52 43 43 30 20 13
9 8 5 1 3 2 6 9 9 6 14 6 0 0 0 4
22 46 27 1 0 0 0 2 23 33 26 0 0 0 0 7
21 7 2 3 4 4 19 34 26 20 25 27 31 30 29 24
68 54 27 5 9 68 76 78 79 81 83 84 85 85 87 86
87 87 79 55 64 64 62 62 74 65 60 15 6 7 46 26
6 5 7 14 14 9 6 5 18 71 60 58 64 66 76 122
133 139 144 144 144 144 144 144 144 144 143 144 143 143 143 143
143 143 142 137 126 114 103 82 66 67 59 59 40 35 27 21
11 9 3 2 1 4 6 10 5 7 13 9 0 0 0 8
27 44 17 0 0 0 0 0 20 33 26 0 0 0 0 3
19 6 0 6 2 0 11 35 26 20 26 27 30 31 29 24
42 17 8 6 14 72 83 84 84 85 86 87 87 86 87 86
85 85 77 51 58 60 61 64 73 64 70 58 56 53 62 65
54 52 55 54 52 50 53 56 58 78 57 39 47 50 67 121
134 138 143 142 143 144 144 145 145 144 144 144 143 143 143 144
143 142 143 141 127 110 94 87 88 85 82 62 46 41 31 15
8 8 4 2 2 3 10 7 5 7 19 22 1 0 2 4
17 41 11 0 0 0 0 0 19 33 25 0 0 0 0 2
20 7 0 4 3 0 10 35 26 21 26 27 30 31 30 25
55 55 54 52 53 78 85 85 85 84 84 82 79 76 66 51
44 38 27 10 12 11 14 21 63 75 79 70 76 72 69 87
83 79 84 83 81 77 83 86 86 86 54 6 5 9 45 121
131 139 142 143 144 144 144 144 143 143 143 143 143 142 143 143
143 144 143 142 136 116 106 108 108 102 84 65 68 47 24 14
10 8 4 3 5 1 9 4 4 7 14 27 3 0 6 7
13 41 9 0 0 0 0 0 20 32 23 0 0 0 0 0
18 9 0 1 0 0 9 35 26 21 26 27 30 31 30 27
68 67 66 65 65 72 73 64 69 67 66 63 60 58 36 2
1 0 1 5 10 2 4 12 61 78 82 80 79 74 67 87
89 87 88 81 79 78 82 88 87 87 65 8 0 4 46 123
131 136 141 143 144 145 145 144 145 144 144 144 144 143 143 143
143 143 143 143 143 137 123 113 111 100 93 96 68 48 32 19
15 9 4 6 3 5 10 4 5 11 14 32 5 2 6 5
10 40 6 0 0 0 0 0 19 34 23 2 0 0 0 0
17 12 0 2 0 0 9 34 25 22 27 28 31 30 30 29
59 61 64 60 62 65 62 56 63 64 64 63 60 59 37 0
0 0 2 12 22 5 6 13 61 78 81 81 77 72 61 75
78 77 78 74 72 71 72 71 66 64 53 11 1 9 54 122
129 134 138 140 144 145 145 144 145 144 145 144 144 144 144 143
143 144 143 143 143 142 138 131 121 112 110 100 80 63 35 23
13 10 11 4 3 8 11 3 8 15 12 24 10 2 8 8
10 39 7 0 0 0 0 0 13 36 25 3 0 0 0 0
15 15 0 0 0 0 7 34 24 23 27 28 31 32 30 29
58 58 60 56 58 61 60 60 60 61 63 63 60 59 37 0
0 0 0 4 9 4 7 14 60 79 75 70 67 60 52 49
52 49 52 51 46 47 56 39 16 16 10 7 5 9 63 123
131 133 137 140 142 144 145 144 145 145 145 145 143 144 143 143
143 144 143 144 144 143 143 142 141 137 123 107 86 57 36 26
22 14 7 5 8 11 9 1 16 20 15 19 7 2 0 0
9 40 8 0 0 0 0 0 10 36 23 1 0 0 0 0
12 20 0 0 0 0 6 31 23 24 27 28 31 31 30 28
55 55 54 54 54 53 53 51 51 53 56 60 63 61 38 0
0 0 1 2 5 5 8 15 58 79 74 58 31 16 10 12
26 30 35 26 16 25 55 36 10 11 6 8 6 8 77 125
132 136 137 138 143 144 145 144 144 144 139 136 138 144 144 144
144 144 145 144 144 143 143 144 143 141 125 111 89 59 38 28
21 10 10 10 12 15 11 8 14 24 19 18 14 5 1 1
6 40 11 0 0 0 0 0 9 37 24 4 1 0 1 1
13 25 0 0 0 0 8 31 22 24 27 27 30 31 28 25
55 54 54 53 53 52 52 51 50 38 12 40 66 63 39 0
0 0 2 8 15 20 11 16 58 79 73 55 15 2 1 4
11 26 26 8 1 22 56 37 10 10 6 8 6 6 69 105
125 134 136 138 144 144 132 101 79 73 82 88 96 110 130 140
144 144 144 143 144 144 144 144 144 143 136 119 94 70 48 31
21 14 16 21 16 24 21 23 21 25 26 22 24 13 12 12
10 38 26 14 13 16 15 15 21 40 28 30 29 29 29 32
37 31 6 4 4 3 11 29 22 23 26 28 31 29 26 28
50 50 50 49 49 49 49 49 50 34 1 28 64 63 40 0
0 3 24 20 31 39 15 17 58 80 74 54 20 10 10 15
14 18 25 6 0 22 58 37 9 8 3 11 30 37 35 45
94 126 135 139 144 140 121 78 72 75 82 90 115 119 121 130
133 140 144 144 144 145 143 144 144 143 136 119 102 75 39 28
23 25 32 26 33 26 34 28 28 34 36 23 30 27 30 33
33 36 47 50 45 46 47 48 48 47 29 35 38 40 43 47
50 42 29 27 26 26 27 27 23 23 27 28 30 27 29 29
12 13 14 15 18 19 23 39 50 35 1 19 59 59 42 14
12 23 51 45 56 59 28 20 58 79 73 54 28 23 24 23
15 20 28 7 1 23 58 40 12 5 19 40 46 29 38 57
63 111 133 135 144 144 108 104 87 101 116 123 105 104 127 140
145 144 144 144 144 144 143 144 144 143 137 118 92 65 55 35
36 32 34 45 43 30 30 33 31 33 40 20 31 34 34 32
30 30 43 53 50 48 47 51 49 48 31 30 35 38 43 46
47 41 26 26 25 25 25 25 24 22 25 26 27 28 29 28
0 0 0 0 0 0 0 28 51 37 1 16 58 53 49 47
50 46 56 61 69 68 58 54 65 75 70 51 28 23 26 17
6 18 29 10 3 25 60 43 28 24 47 29 34 21 74 94
77 90 122 139 143 136 123 108 113 124 134 139 138 119 128 142
141 144 145 145 144 144 144 144 145 144 137 111 89 63 36 31
30 29 69 129 121 46 20 22 22 23 36 23 20 37 37 32
27 28 32 35 36 36 34 34 33 34 29 24 28 30 31 29
26 28 28 27 27 26 26 25 26 24 23 24 27 31 29 28
0 0 0 0 0 0 0 25 51 38 2 16 56 55 54 55
59 52 58 66 71 72 70 68 69 74 69 50 26 20 24 13
6 14 22 15 4 23 58 44 35 41 51 43 32 23 67 101
102 95 78 120 134 107 134 119 121 129 140 146 145 144 131 142
143 144 144 144 144 144 144 140 129 120 102 72 52 50 22 19
23 59 139 144 135 124 29 24 24 25 37 25 16 27 31 31
28 28 29 23 25 24 25 25 24 27 29 29 31 33 32 29
25 26 27 27 27 27 27 26 26 24 26 27 30 32 30 28
0 0 0 0 0 0 0 24 51 39 2 15 53 58 55 52
61 58 61 69 74 75 73 71 70 74 70 50 20 5 9 7
10 18 14 8 7 21 57 45 37 59 63 53 61 68 40 100
126 103 104 137 146 123 126 119 119 120 130 145 146 145 118 130
133 123 127 109 102 84 77 87 98 113 108 94 67 66 25 57
53 124 145 144 114 90 68 19 25 23 29 17 24 25 30 24
18 24 30 28 30 30 36 36 32 33 35 36 39 42 41 33
28 26 28 28 28 28 27 27 25 25 26 28 31 31 29 26
0 0 0 0 0 0 0 23 52 39 2 13 49 59 55 48
50 48 56 68 75 77 75 73 70 75 70 49 14 0 0 3
10 19 10 1 4 21 56 47 43 74 67 43 38 33 26 81
117 86 91 137 146 117 127 110 108 110 117 140 143 144 110 79
92 78 97 106 114 134 143 145 145 144 129 96 74 50 63 57
86 140 134 144 142 113 97 24 24 22 19 13 13 29 29 30
15 25 33 38 42 37 49 51 27 21 22 23 27 32 42 35
29 28 28 28 27 27 27 26 25 25 26 27 30 31 27 22
0 0 0 0 0 0 0 23 52 42 5 10 43 52 40 40
46 48 45 46 51 57 68 74 71 77 70 51 15 6 3 2
9 19 8 2 1 20 52 53 67 88 68 49 39 27 9 65
90 74 81 132 144 127 115 89 118 97 86 92 98 100 101 102
109 126 141 143 144 145 145 144 145 144 134 103 88 72 69 65
119 142 132 144 143 126 105 26 23 21 14 15 14 16 32 37
24 29 29 38 41 27 36 45 10 0 0 0 0 10 40 37
30 29 28 28 27 27 27 26 26 25 25 26 30 31 25 15
0 0 0 0 0 0 0 22 52 45 26 8 32 42 11 17
27 31 25 19 14 21 39 71 73 77 72 57 26 16 13 2
5 10 6 0 0 19 53 55 73 91 80 46 37 30 43 29
25 39 87 136 128 118 134 81 124 79 57 37 49 76 101 99
142 145 143 145 144 144 142 144 144 144 137 99 78 70 67 88
126 126 144 143 141 117 97 26 27 13 15 14 16 10 21 32
31 29 27 35 36 3 4 29 9 0 0 0 0 5 36 37
29 28 28 27 27 26 26 25 25 25 26 26 29 28 24 9
0 0 0 0 0 0 0 20 51 46 29 5 25 39 1 0
2 7 10 7 11 21 40 72 74 73 71 64 37 13 11 2
3 1 1 0 0 21 60 55 74 80 93 65 43 61 31 37
66 60 110 140 125 108 112 84 111 104 94 95 111 122 131 97
146 144 143 144 144 143 144 143 144 143 137 114 89 75 95 122
120 60 100 141 138 105 72 15 32 13 20 18 16 8 17 28
36 31 27 34 36 2 1 26 12 0 0 0 0 1 31 36
28 28 27 27 27 26 25 24 24 24 25 25 29 25 22 16
0 0 0 0 0 0 0 18 50 43 7 0 21 40 2 0
0 4 10 0 0 4 25 69 73 73 70 72 38 3 5 3
2 2 4 5 14 45 66 51 44 48 94 64 60 47 26 59
84 80 128 140 131 105 101 96 118 126 124 118 131 131 135 101
145 144 143 143 143 142 142 143 142 142 137 119 113 114 136 142
141 109 82 126 139 106 36 12 32 11 21 17 11 8 11 26
31 39 25 33 35 2 1 23 14 0 0 0 0 0 27 35
27 26 26 25 25 24 24 23 23 23 23 24 26 25 20 16
0 0 0 0 0 0 0 17 50 42 5 0 15 42 3 0
0 0 10 0 0 0 11 66 66 65 64 70 49 30 36 38
40 43 47 50 58 61 69 57 28 21 81 66 47 48 47 93
99 104 138 144 138 105 125 129 138 137 132 138 137 136 115 111
144 143 142 142 142 142 142 142 143 142 135 124 123 132 142 138
140 138 111 126 138 88 18 17 23 10 20 23 12 11 11 29
28 44 29 33 32 2 2 21 14 0 0 0 0 0 26 35
26 26 25 26 25 24 23 23 23 22 23 23 26 26 18 9
0 0 0 0 0 0 0 15 50 43 10 7 21 46 7 0
0 4 13 0 0 0 10 64 56 49 51 67 65 65 68 69
70 72 74 74 73 70 73 68 37 20 41 80 39 40 67 99
99 118 144 144 144 123 119 127 143 140 136 133 129 139 102 133
143 143 142 142 142 142 142 142 142 141 132 122 120 136 142 137
134 141 135 133 132 61 21 17 7 11 21 21 19 15 13 24
23 39 28 35 33 3 2 19 17 0 0 0 0 0 24 35
25 26 26 26 25 24 24 23 22 22 22 23 25 27 22 13
0 0 0 0 0 0 0 15 50 48 40 45 50 51 13 0
0 3 9 0 6 5 9 59 26 6 15 54 68 70 71 71
74 73 73 75 74 74 70 59 46 24 17 64 40 50 93 111
108 129 145 144 144 141 110 113 144 140 142 140 140 139 99 144
143 143 143 142 142 142 141 139 140 141 129 116 124 139 141 141
132 130 140 138 117 35 23 11 1 13 26 28 24 15 10 5
9 22 29 33 30 13 4 19 18 3 2 1 0 0 23 34
26 26 26 25 25 25 23 22 23 22 22 23 25 26 23 16
0 0 0 0 0 0 0 14 50 50 54 56 57 55 17 0
0 0 1 0 14 18 14 58 19 0 2 48 68 71 73 74
73 69 71 75 74 67 39 25 46 33 16 18 53 50 106 110
113 136 145 145 145 145 134 115 133 140 140 140 142 113 129 144
143 143 143 143 143 142 139 140 142 142 132 114 129 140 141 134
138 139 141 140 98 25 19 7 4 21 31 39 31 20 9 8
2 11 26 34 30 19 10 18 16 1 7 5 0 0 20 33
25 25 25 25 25 24 25 24 23 23 22 22 24 26 23 19
0 0 0 0 0 0 0 13 50 51 54 57 60 59 24 4
2 0 0 0 5 15 28 61 31 18 21 35 41 45 54 60
63 61 62 65 63 45 8 3 29 38 16 10 20 51 87 84
122 139 144 144 145 144 138 132 128 123 142 143 119 121 140 141
143 143 142 142 142 141 141 141 141 142 136 119 135 142 137 128
142 141 143 138 58 24 13 8 9 20 38 44 36 20 16 15
4 14 31 33 28 17 20 17 17 5 11 8 4 3 20 29
25 26 26 25 24 24 24 24 23 22 22 21 23 27 21 20
0 0 0 0 0 0 0 12 50 48 44 51 49 48 35 29
32 24 25 27 31 36 46 61 49 45 51 46 45 46 46 47
56 50 50 46 39 30 20 18 27 34 26 27 33 55 111 111
138 145 145 145 144 144 142 123 142 128 113 114 128 139 144 144
143 142 143 143 142 142 142 142 142 142 138 130 137 142 141 141
142 142 141 117 21 23 14 6 10 23 26 39 39 31 22 21
8 20 34 34 27 11 21 18 27 22 21 21 20 19 20 22
25 25 26 25 25 24 24 24 23 23 21 21 22 26 19 20
0 0 0 0 0 0 0 11 50 48 37 34 26 24 25 26
33 48 64 70 71 72 74 75 74 74 74 74 75 74 73 69
65 57 50 42 37 36 34 35 38 39 41 46 49 65 114 114
141 144 143 145 144 144 144 127 140 141 142 143 143 143 144 143
143 143 143 143 142 142 141 142 142 142 141 136 139 141 135 129
141 142 134 44 13 23 17 19 18 26 20 25 31 35 32 16
16 34 43 45 26 3 9 16 27 22 23 23 22 22 22 22
25 25 25 25 24 23 23 24 23 22 22 21 22 24 20 21
0 0 0 0 0 0 0 11 50 48 33 23 15 12 15 23
25 29 42 61 76 80 80 79 78 76 76 75 73 72 71 70
69 66 57 46 46 41 42 41 42 44 47 51 51 63 115 113
120 117 104 115 141 145 143 128 140 136 142 144 144 144 143 144
143 144 143 143 142 142 142 142 142 142 142 138 139 140 139 119
142 136 53 8 11 23 10 29 30 31 26 29 32 33 27 13
22 28 33 41 27 5 6 14 28 25 27 27 27 25 26 25
25 25 26 24 24 24 24 23 23 23 23 21 23 21 21 21
0 0 0 0 0 0 0 11 50 47 20 15 19 24 24 22
27 31 33 38 56 71 65 60 58 55 57 60 60 61 62 61
61 62 60 54 54 53 54 54 54 54 53 50 46 55 110 117
103 104 97 92 114 131 129 135 144 136 139 143 141 144 144 144
144 144 143 142 142 142 142 142 142 141 142 140 139 119 141 142
136 60 12 12 8 21 12 25 31 33 28 37 35 27 25 16
26 22 25 36 27 9 6 14 29 27 28 28 27 27 26 26
26 25 25 25 25 24 24 23 22 22 22 20 21 21 23 22
0 0 0 0 0 0 0 9 49 47 13 4 8 22 25 17
20 25 32 36 44 54 52 51 50 49 49 49 49 49 49 48
47 46 45 45 44 43 43 41 41 41 40 39 38 41 94 114
113 98 99 137 143 133 140 145 145 139 139 143 144 144 144 144
143 143 144 143 143 142 143 142 142 143 142 139 136 70 115 104
57 14 13 13 10 15 17 22 36 38 27 31 34 27 26 21
33 20 21 35 26 14 12 18 29 26 28 28 27 27 27 26
26 26 25 24 25 24 23 23 23 23 21 20 20 23 24 22
0 0 0 0 0 0 0 8 48 47 13 0 0 8 18 19
21 23 28 37 36 38 38 39 38 38 37 37 37 40 40 40
41 39 38 37 40 47 45 37 36 35 34 34 34 33 67 104
104 106 112 129 146 143 145 145 145 143 140 141 143 144 144 144
144 143 144 144 143 142 142 142 142 142 137 136 126 96 103 47
23 13 15 19 16 26 25 27 32 41 30 31 25 30 25 23
27 22 22 35 29 30 36 40 33 25 27 28 27 26 26 26
26 25 25 24 24 24 24 23 22 22 20 19 20 25 24 23
0 0 0 0 0 0 0 7 47 48 16 0 2 9 16 19
21 24 29 46 42 36 34 32 39 37 29 30 32 40 36 39
47 35 28 28 36 52 49 31 27 27 29 28 28 31 42 96
97 113 124 132 146 144 145 145 145 145 141 143 144 143 144 144
143 143 143 142 142 143 143 143 142 142 140 135 123 114 79 41
11 14 16 26 19 33 26 15 21 29 23 29 31 32 33 25
23 11 21 38 31 29 36 40 29 25 27 26 26 27 26 25
25 25 24 24 24 24 24 23 22 22 20 19 20 26 24 23
0 0 0 0 0 0 0 6 46 48 17 0 6 8 15 18
20 23 28 46 38 29 26 23 35 33 21 24 30 41 43 47
50 37 29 30 38 53 50 35 32 34 34 33 31 32 28 85
101 113 123 136 145 145 145 145 145 145 144 136 144 144 145 144
144 143 143 143 143 143 143 142 143 142 138 131 120 100 73 30
12 14 15 23 19 26 14 11 11 17 19 31 40 27 30 32
28 24 27 32 30 24 27 26 24 25 27 26 26 26 26 25
25 24 24 24 24 23 23 22 22 21 20 18 21 25 25 23
0 0 0 0 0 0 0 6 46 48 17 2 7 6 14 18
20 23 28 46 37 28 26 23 34 33 21 24 29 43 49 50
51 47 46 46 48 52 51 49 47 46 44 36 34 30 21 60
112 89 107 112 125 135 140 144 145 144 136 130 138 145 145 145
144 144 144 144 144 142 143 142 143 142 136 129 111 97 59 19
19 15 13 22 24 24 12 10 10 8 16 24 43 28 24 30
23 25 25 27 23 23 24 25 24 26 26 27 26 26 26 26
25 24 23 23 23 23 23 22 22 21 20 16 22 25 27 23
0 0 0 0 0 0 0 6 46 48 18 3 7 6 14 17
20 22 28 46 37 27 25 21 34 33 20 23 29 45 54 55
55 55 55 55 54 54 54 54 52 50 42 35 35 23 16 37
123 90 87 97 100 98 104 110 111 114 105 113 134 145 144 145
144 143 144 143 143 141 143 143 143 141 134 124 102 91 48 23
19 17 19 24 28 16 17 11 12 4 15 16 33 18 14 21
25 22 20 29 24 22 23 26 26 26 26 26 26 25 25 24
24 24 24 23 23 22 22 22 21 20 19 17 23 25 27 24
9 10 10 11 13 14 15 22 47 47 20 3 5 5 14 17
20 23 28 45 38 28 24 20 33 35 21 23 29 44 55 55
56 55 55 55 55 54 55 54 51 48 41 33 33 23 16 23
96 103 108 105 120 128 127 130 125 131 143 139 135 145 145 144
144 144 144 144 143 143 143 143 143 139 129 118 93 90 44 18
19 17 21 18 13 11 19 14 7 5 12 16 24 15 11 14
25 21 23 28 23 22 26 26 25 25 26 26 26 25 25 24
24 24 24 23 23 22 22 22 20 19 17 20 22 26 26 23
49 49 48 48 48 47 48 47 48 47 21 2 4 5 12 17
19 22 27 45 38 27 23 19 32 34 21 22 29 44 54 54
54 54 54 54 53 53 53 51 47 45 36 35 31 23 16 16
48 103 114 119 141 145 141 143 145 145 144 144 140 143 145 144
144 144 144 143 143 142 142 143 139 135 123 111 86 69 37 18
17 13 24 13 9 14 17 14 5 7 9 17 16 15 13 14
25 21 13 17 21 26 28 27 25 25 25 25 25 24 25 24
23 23 23 22 22 22 21 19 18 19 16 21 21 27 26 23
52 52 51 51 50 50 49 47 47 46 21 2 2 3 12 16
19 21 27 43 38 27 25 24 34 36 25 27 33 45 52 53
53 52 52 52 50 49 48 46 43 40 29 27 26 19 18 15
17 86 106 115 132 144 145 145 144 145 145 145 144 144 144 144
145 144 143 144 144 144 142 140 136 127 121 102 70 48 37 24
24 19 26 24 17 14 22 14 8 11 16 22 15 12 16 19
18 20 12 15 9 17 24 27 28 26 25 25 24 24 24 24
23 22 23 22 21 20 20 16 10 12 15 19 21 27 25 21
52 52 51 51 51 50 50 48 48 48 22 2 1 2 9 14
17 20 24 41 44 39 38 37 40 40 39 39 41 44 46 45
45 44 44 44 44 43 42 42 38 32 26 22 25 21 17 14
20 49 95 102 119 138 143 144 145 145 145 145 145 144 144 145
144 144 144 144 144 142 140 134 125 119 120 97 50 36 38 27
25 26 29 30 21 13 22 13 13 15 19 22 24 16 10 19
23 10 14 14 5 7 15 25 27 25 25 25 23 24 23 23
23 22 22 21 19 19 20 20 15 12 20 23 27 27 20 23
50 49 49 48 48 46 46 46 45 43 20 2 2 2 9 14
16 17 22 37 42 41 40 39 39 39 39 39 40 41 42 49
53 54 57 59 62 64 64 50 33 26 22 25 26 20 14 12
18 25 101 106 111 122 141 146 146 145 146 145 144 145 144 144
144 144 144 143 142 137 130 124 119 116 121 83 40 32 36 26
24 31 19 19 20 14 23 14 23 26 27 23 30 18 12 17
32 18 12 21 17 4 11 20 20 25 26 24 24 24 23 23
23 22 22 21 19 18 22 24 22 19 19 19 20 19 24 30
43 43 42 42 41 41 40 39 41 39 15 2 2 3 12 16
18 20 28 44 41 38 37 36 42 36 32 33 34 41 39 71
85 86 86 88 89 89 87 67 29 20 20 23 24 21 14 9
10 14 107 120 122 130 144 145 146 145 145 145 146 145 145 144
143 142 141 135 131 126 119 114 114 121 117 70 40 38 41 25
30 30 15 16 20 13 23 16 32 48 36 24 24 20 18 23
34 25 14 14 18 14 10 24 19 22 25 22 23 23 22 22
22 21 21 19 18 17 19 24 28 24 15 9 0 1 3 3
50 49 49 48 48 46 42 43 44 45 19 2 2 4 13 16
18 22 29 46 35 29 27 25 39 29 23 26 32 44 43 70
94 94 93 93 93 91 90 79 37 24 24 25 29 24 14 8
7 13 102 131 138 144 146 145 145 145 146 145 145 145 145 144
142 139 131 124 118 112 109 109 118 123 110 65 51 60 47 29
34 29 15 28 21 9 27 27 33 42 38 20 19 18 25 23
34 28 21 12 14 19 13 18 16 18 24 23 24 23 22 21
21 21 21 18 17 17 17 17 25 29 16 10 3 1 0 0
43 43 41 39 38 34 30 27 29 28 11 2 2 3 12 16
18 21 29 45 32 26 24 23 38 28 22 25 31 45 46 55
87 88 85 83 82 78 75 71 48 32 30 31 41 31 16 10
6 12 88 132 141 145 145 146 145 145 145 145 144 144 143 140
135 125 115 109 103 101 105 114 123 119 101 76 78 72 48 34
33 22 11 21 10 8 29 29 32 28 28 16 12 13 23 21
26 25 30 11 13 8 10 13 14 14 24 23 23 22 22 22
21 21 20 19 17 16 17 16 15 19 13 13 4 3 0 0
18 18 13 4 9 2 3 1 1 1 0 2 2 3 12 15
18 20 29 46 31 25 24 23 38 28 19 23 31 47 51 49
57 55 53 51 50 50 50 49 47 39 34 34 41 35 20 9
8 12 71 129 139 145 146 145 146 145 145 145 145 143 136 127
119 106 100 95 96 103 112 120 119 116 104 98 93 72 46 35
32 17 20 16 5 12 30 30 30 16 20 10 9 15 16 17
23 29 42 24 13 12 9 5 9 14 20 22 22 22 21 21
20 20 19 19 18 16 17 14 15 14 14 14 2 0 0 0
9 11 9 0 10 0 0 0 0 0 1 5 6 9 13 15
17 20 28 46 33 25 24 23 38 28 20 23 30 47 53 52
50 50 49 48 48 48 50 50 48 44 33 33 28 22 16 11
9 9 42 120 127 139 146 146 146 146 146 144 138 128 117 104
96 89 93 100 106 113 119 122 126 122 113 109 92 69 39 36
31 21 34 11 6 14 25 35 25 14 17 11 5 16 21 24
22 28 35 19 21 10 6 3 2 8 23 24 22 22 21 21
21 20 19 19 18 17 16 13 14 12 15 16 3 0 0 0
16 13 7 1 13 1 0 0 0 1 5 9 9 11 12 15
16 20 28 44 32 24 22 21 37 29 19 23 29 46 53 52
50 49 48 47 47 49 49 51 49 45 34 31 20 13 12 16
13 8 14 87 117 127 136 141 141 140 133 119 105 96 91 89
91 96 100 105 112 118 124 128 134 127 119 112 92 65 36 34
26 32 26 5 12 24 30 28 35 19 12 4 8 11 24 33
28 34 31 17 21 19 7 6 0 0 17 28 23 22 21 20
20 19 19 19 18 16 13 15 13 12 14 14 2 0 0 0
35 26 8 2 16 2 1 0 1 3 6 8 7 10 12 13
16 19 27 44 32 24 23 23 37 30 22 25 31 45 51 50
50 49 48 48 47 46 46 45 42 40 30 26 13 8 14 18
17 9 13 18 67 92 100 103 106 101 88 75 71 75 82 89
94 98 103 108 118 126 135 136 135 128 122 110 88 52 37 32
35 25 6 9 20 34 32 35 49 35 18 8 7 12 10 21
29 41 28 17 16 12 5 5 2 0 12 29 23 21 19 20
19 18 18 18 16 14 13 16 22 18 8 7 0 0 0 0
37 27 9 4 17 4 0 0 2 4 4 8 6 8 9 11
15 18 25 43 38 33 33 34 40 37 35 36 39 45 46 46
44 43 41 39 39 38 39 37 34 34 26 19 11 11 18 20
19 8 10 7 4 18 30 30 34 33 36 43 52 63 73 80
91 101 113 123 129 137 141 138 130 126 119 102 65 46 38 26
30 17 6 17 22 32 22 39 52 43 15 3 2 6 1 6
7 21 16 14 14 13 3 2 6 2 10 24 21 20 17 17
16 18 31 31 28 25 24 23 33 40 24 20 16 18 14 11
24 17 13 15 21 16 13 2 1 3 6 9 5 8 9 10
12 14 20 38 41 41 39 38 39 39 38 39 38 40 40 39
38 37 35 35 36 39 38 34 31 30 26 20 10 11 16 15
13 7 5 7 4 17 19 7 13 8 13 12 25 35 49 71
98 118 132 139 140 143 141 130 127 124 114 81 59 47 27 19
23 18 8 11 20 24 14 29 33 32 7 1 0 7 3 0
0 3 13 13 20 12 7 7 3 10 15 23 32 31 23 8
4 15 40 42 39 38 37 37 39 34 36 31 29 34 31 28
36 36 37 38 37 37 39 10 0 1 3 9 5 10 11 13
15 16 19 35 43 40 39 37 38 39 34 32 32 36 35 34
41 33 27 26 31 46 43 27 24 24 24 24 18 16 19 16
11 8 4 6 3 13 11 7 16 5 11 6 6 30 52 84
115 135 144 145 145 142 133 129 127 121 103 77 56 42 27 19
28 21 9 7 13 13 15 23 20 14 2 2 8 15 8 8
6 3 14 15 11 5 3 5 16 24 12 19 36 36 34 10
0 0 5 6 6 7 8 8 8 6 6 7 12 6 4 3
26 22 20 16 12 12 34 12 0 0 0 8 4 9 11 13
16 18 22 36 43 31 30 26 32 37 24 23 26 34 37 38
45 33 23 24 32 48 46 31 28 29 30 28 23 23 27 18
8 6 1 6 5 12 5 6 9 3 8 7 1 37 84 105
127 143 146 145 144 137 131 127 123 114 87 72 48 40 27 24
34 33 12 9 9 16 22 19 13 3 1 3 13 17 21 32
26 6 5 11 8 1 4 9 6 25 12 18 30 28 28 14
0 0 0 0 0 0 0 0 0 0 0 0 0 0 0 0
1 0 0 0 1 3 25 13 0 0 0 7 3 9 11 13
16 19 22 37 42 26 24 21 28 36 21 22 25 35 41 43
44 38 35 37 41 48 48 43 43 42 39 29 28 28 26 17
11 5 4 8 5 9 4 1 8 3 9 7 1 23 104 114
130 144 145 145 140 134 125 121 118 99 80 51 55 42 30 29
37 31 18 12 9 23 19 14 8 1 3 5 17 23 22 31
24 8 11 2 4 3 1 2 2 18 21 19 23 22 21 17
0 2 0 0 0 0 0 0 0 0 0 0 0 0 0 0
3 3 3 4 3 3 15 11 0 0 0 6 2 9 11 12
16 17 21 36 41 26 24 21 27 35 19 20 25 35 47 48
48 49 49 50 50 50 50 49 49 47 43 33 34 26 11 11
12 6 7 8 11 16 8 2 8 4 9 11 5 11 89 118
127 141 143 140 132 121 118 115 114 92 63 61 51 37 27 27
25 27 19 13 6 20 19 9 4 5 10 3 19 23 24 24
19 19 19 15 13 4 0 0 1 3 13 18 22 22 21 11
0 7 1 1 7 6 6 5 4 3 3 2 2 3 1 0
0 0 0 0 0 0 15 13 0 0 0 4 2 9 10 13
16 18 22 35 42 27 23 22 26 35 19 19 23 35 49 50
50 52 52 48 45 44 43 43 46 54 53 43 40 14 5 7
9 8 14 10 11 12 4 4 13 6 11 10 9 8 48 115
122 131 133 126 117 111 110 114 114 85 64 58 50 36 28 19
15 25 17 11 14 37 26 9 3 24 23 4 23 19 22 18
12 17 21 21 19 16 3 0 0 12 14 15 24 22 20 8
0 9 0 4 9 9 11 11 11 10 9 7 5 6 6 3
0 0 0 0 0 0 12 10 0 0 0 1 2 8 9 11
15 17 21 35 41 26 22 19 27 40 30 27 34 46 58 59
60 61 60 48 43 45 46 48 52 61 62 56 46 5 8 20
15 16 22 12 6 5 3 6 18 14 13 7 11 12 15 92
112 115 114 112 106 105 111 115 113 68 66 50 52 36 25 18
18 24 13 24 23 31 25 2 9 34 26 2 24 16 22 15
14 17 23 23 21 22 18 5 9 20 18 18 23 22 19 4
1 8 0 6 10 11 12 12 11 9 8 7 4 0 0 0
0 0 0 0 0 0 0 0 0 0 0 4 6 8 10 12
14 17 20 33 40 25 22 15 26 44 47 47 52 56 61 62
63 63 62 60 59 62 63 63 64 64 64 64 51 11 25 26
22 23 23 13 6 7 9 9 13 11 12 5 10 13 7 65
98 106 107 106 106 110 113 115 98 62 63 55 51 38 24 18
20 22 20 31 29 30 11 6 22 27 15 1 14 23 12 13
19 25 28 27 27 27 25 24 24 26 24 24 23 22 18 2
0 3 1 7 10 12 10 9 6 5 4 3 3 0 0 0
0 0 0 0 0 1 3 2 2 3 10 18 20 23 25 22
15 15 19 31 40 28 25 17 23 38 45 50 53 47 42 48
53 56 54 50 53 64 63 60 58 61 68 67 63 48 42 38
36 29 28 25 14 9 7 6 9 4 7 2 14 18 5 40
95 104 108 114 115 113 115 111 77 87 59 56 54 37 23 21
23 17 10 17 25 28 17 13 18 7 2 0 2 18 17 14
22 29 29 32 31 30 32 29 26 26 26 24 24 22 16 1
0 0 0 5 8 6 3 1 0 1 4 2 1 0 0 0
19 21 24 27 27 31 34 36 39 36 38 40 42 43 43 45
36 19 17 24 31 29 29 22 17 26 38 43 47 46 38 35
36 35 31 26 26 27 25 21 20 20 32 50 54 52 46 43
40 30 25 32 22 6 0 2 2 2 5 0 10 22 5 15
88 104 112 115 116 116 117 105 89 88 62 55 48 35 19 21
23 17 5 13 25 31 5 8 3 2 2 0 0 10 15 19
26 30 31 30 30 32 33 30 30 27 25 25 24 22 14 0
0 0 0 0 0 1 0 0 0 0 1 0 0 0 0 0
50 50 49 52 49 51 51 52 52 50 46 47 47 48 49 49
49 33 8 8 20 24 23 19 12 14 25 30 30 29 26 22
21 20 20 19 18 17 17 16 15 14 16 19 23 24 20 20
16 14 13 19 13 1 1 2 6 7 6 0 3 9 7 4
68 99 111 116 118 118 117 105 96 72 74 53 46 34 19 15
17 18 5 12 27 17 0 0 1 0 0 1 14 21 22 22
23 27 32 30 31 33 33 32 30 30 28 26 24 21 11 0
0 0 0 0 0 0 0 0 0 0 0 0 0 0 0 0
48 48 50 52 50 46 54 53 54 56 49 46 51 53 54 53
53 48 31 19 28 29 25 21 17 18 22 23 23 22 23 22
22 21 20 21 20 19 19 19 17 16 15 13 12 11 5 5
11 11 10 12 9 9 11 12 13 3 1 0 1 2 4 4
41 96 106 111 114 116 115 107 102 83 75 61 46 30 20 13
12 12 5 13 26 9 2 1 0 0 0 8 20 24 25 23
26 20 28 31 34 34 34 34 33 31 29 27 24 22 8 0
0 0 0 0 0 0 0 0 0 0 0 0 0 0 0 0
50 52 53 58 56 56 55 53 56 58 55 52 51 61 61 55
47 40 31 20 22 22 23 23 24 24 25 24 24 23 22 22
21 21 20 19 19 19 18 16 16 14 13 11 9 8 3 8
15 10 12 10 10 6 8 7 1 0 0 1 0 2 2 4
23 99 97 107 108 109 115 114 108 99 70 62 42 28 26 12
3 9 4 7 15 15 15 3 3 0 5 8 20 26 27 21
19 23 23 30 35 35 33 34 34 32 30 28 25 19 4 0
0 0 0 0 0 0 0 0 0 0 0 0 0 0 0 0
57 59 57 60 57 59 56 54 57 56 55 54 51 49 37 25
19 19 20 21 22 23 24 24 24 24 23 24 23 22 22 21
21 20 20 19 20 18 18 16 16 14 13 10 8 7 5 12
8 9 13 12 10 8 5 6 3 1 2 5 2 1 2 4
20 99 102 101 106 111 116 115 110 102 75 44 34 39 33 15
3 7 3 4 11 24 20 11 1 4 8 9 22 28 27 18
19 23 24 32 35 36 35 33 33 31 32 28 27 20 2 0
0 0 0 0 0 0 0 0 0 0 0 0 0 0 0 0
50 49 48 47 45 43 41 40 37 35 33 32 29 20 15 16
18 19 20 21 22 23 23 24 24 23 23 23 23 22 22 21
20 20 20 20 19 18 17 16 14 14 12 9 8 6 10 12
7 10 13 10 11 6 6 9 2 7 9 6 1 4 5 6
31 100 110 106 108 111 116 117 116 115 87 38 24 41 47 17
7 4 4 0 3 24 19 10 0 11 8 12 26 26 17 19
24 21 27 32 32 35 34 34 34 33 31 28 26 23 4 0
0 0 0 0 0 0 0 0 0 0 0 0 0 0 0 0
23 19 18 15 12 11 8 6 5 3 3 3 12 13 15 18
19 20 21 21 21 22 23 24 23 23 23 23 23 23 22 21
21 20 20 19 19 18 16 15 15 13 12 10 8 7 11 9
5 11 12 12 12 7 6 10 1 0 5 5 6 8 14 19
64 105 116 113 111 114 118 118 119 123 96 38 22 35 38 22
12 8 5 1 0 9 24 4 2 11 8 17 27 16 16 22
20 23 31 29 32 34 34 33 32 31 31 28 26 24 12 0
0 0 0 0 0 0 0 0 0 0 0 0 0 0 0 0
0 0 0 0 0 0 0 0 0 0 0 5 11 14 17 18
18 19 20 21 22 23 23 23 24 23 24 23 23 22 21 21
21 20 19 19 18 17 16 16 14 13 11 9 9 11 9 10
4 11 11 11 12 8 7 11 1 7 10 11 12 10 36 63
96 108 119 122 119 117 119 119 126 129 115 75 50 32 33 26
14 5 5 0 0 0 14 3 9 7 12 22 18 11 19 16
18 29 27 28 31 32 33 32 32 31 30 28 27 23 22 2
0 0 0 0 0 0 0 0 0 0 0 0 0 0 0 0
0 0 0 0 0 0 0 0 0 0 2 9 10 14 16 17
17 18 20 20 21 21 22 23 23 23 23 22 23 23 21 22
20 20 19 18 18 17 17 16 14 12 11 9 9 11 8 9
2 11 10 10 12 9 8 10 1 11 12 11 13 22 76 91
106 115 126 131 127 123 121 122 130 135 125 99 99 93 62 27
15 9 4 0 0 7 20 12 14 4 14 20 13 14 14 14
26 29 22 26 33 30 32 31 33 31 30 28 26 24 23 14
0 0 0 0 0 0 0 0 0 0 0 0 0 0 0 0
0 0 0 0 0 0 0 0 0 0 6 7 11 13 15 16
17 18 19 20 20 20 21 22 22 23 23 23 22 22 22 21
20 19 19 18 18 17 17 16 14 12 11 9 9 10 8 9
4 9 12 11 13 9 8 9 1 12 12 11 12 52 104 107
111 120 133 137 136 130 128 128 134 139 129 117 116 114 82 16
12 9 5 1 0 12 16 17 10 7 14 14 13 15 11 20
32 25 21 27 33 32 31 32 33 32 30 27 24 23 23 22
4 0 0 0 0 0 0 0 0 0 0 0 0 0 0 0
0 0 0 0 0 0 0 0 0 1 6 8 12 13 15 16
17 17 19 20 20 21 22 22 23 23 23 23 24 23 22 22
21 20 19 19 18 17 15 15 13 12 10 9 9 10 8 9
4 8 11 12 13 11 9 10 1 13 13 12 15 73 115 116
106 126 138 139 138 131 130 129 135 137 128 135 126 116 40 22
17 11 9 6 6 15 14 19 6 9 16 12 14 11 14 27
29 18 23 28 32 32 32 32 34 32 30 28 26 24 21 24
15 0 0 0 0 0 0 0 0 0 0 0 0 0 0 0
0 0 0 0 0 0 0 0 0 2 5 8 11 13 15 15
17 18 19 19 20 21 22 22 23 23 23 22 23 22 22 21
21 20 20 19 18 17 15 14 12 12 10 9 8 10 9 9
6 8 12 12 13 12 9 9 2 13 12 12 18 73 120 120
121 133 140 139 138 132 130 130 136 131 141 138 130 68 23 24
17 10 10 9 11 16 17 14 7 11 15 14 12 11 20 28
20 19 28 29 29 30 30 33 33 30 29 27 27 24 21 23
19 5 0 0 0 0 0 0 0 0 0 0 0 0 0 0
0 0 0 0 0 0 0 0 0 2 5 9 11 13 13 15
16 17 18 19 20 21 22 23 23 23 23 23 23 23 22 22
21 20 19 19 17 16 15 14 12 11 11 7 9 11 9 9
6 8 10 10 13 12 8 8 3 14 14 12 20 65 122 123
125 136 140 137 135 129 127 130 131 139 141 139 95 26 24 22
14 10 11 9 12 15 21 7 7 11 13 13 12 13 26 23
13 23 30 32 29 27 31 32 32 30 29 28 26 25 22 20
22 14 0 0 0 0 0 0 0 0 0 0 0 0 0 0
0 0 0 0 0 0 0 0 0 2 5 8 10 11 13 15
16 17 18 19 20 20 21 22 23 23 22 22 22 22 22 22
20 20 20 18 17 16 15 13 13 11 10 7 9 10 9 9
7 6 11 10 13 12 9 6 4 14 13 12 17 52 123 125
128 137 142 138 133 129 129 130 129 141 139 119 32 24 23 17
11 10 10 8 13 17 19 3 9 12 13 13 12 16 31 11
16 28 32 32 25 24 30 31 31 29 28 27 27 27 22 18
21 18 7 3 4 3 2 2 0 1 0 0 0 0 0 0
0 0 0 0 0 0 0 0 0 2 6 8 10 11 13 15
15 16 18 19 20 20 21 22 22 23 23 23 24 22 22 21
21 19 19 18 17 16 15 14 12 10 9 7 10 11 10 8
8 6 10 11 13 12 10 5 6 15 13 13 17 35 120 129
130 132 138 138 133 132 134 125 139 140 132 53 22 23 21 15
11 10 9 8 16 20 13 3 9 12 12 11 12 21 26 7
20 30 32 31 23 22 29 30 30 30 28 27 27 27 23 17
18 20 16 9 7 6 6 6 5 5 5 4 4 3 3 1
0 0 0 0 0 0 0 0 0 1 5 8 10 11 13 14
16 17 18 19 20 20 21 22 23 23 22 23 22 22 22 21
20 18 18 17 17 16 15 14 12 10 9 6 10 10 8 7
9 6 10 10 13 10 8 4 8 14 14 13 16 24 104 128
131 133 137 137 137 133 129 132 140 136 73 22 23 22 18 12
10 11 9 7 17 22 7 4 9 12 12 11 13 25 18 7
25 30 31 29 22 21 28 29 28 27 27 27 28 27 23 19
18 18 16 14 12 12 10 10 7 6 6 8 12 14 13 11
0 0 0 0 0 0 0 0 0 1 5 8 9 11 12 13
14 15 17 18 19 20 21 22 22 22 23 22 23 22 22 21
20 19 18 17 16 15 14 13 11 10 8 7 11 10 6 8
9 6 9 10 14 11 8 4 11 14 14 13 16 19 66 127
132 133 136 136 137 134 129 138 137 74 20 20 22 19 14 11
10 10 9 7 19 19 3 4 9 12 12 11 15 27 9 10
29 29 30 27 21 20 28 29 26 26 27 27 28 28 24 20
17 17 15 15 10 10 10 11 11 11 11 12 15 18 19 19
0 0 0 0 0 0 0 0 0 1 6 7 9 10 12 13
14 14 16 18 18 19 21 21 22 22 22 22 23 22 22 21
20 20 19 18 16 16 14 13 11 10 8 7 11 9 4 8
10 6 8 10 13 10 7 4 11 14 14 14 16 14 33 98
130 131 132 133 134 129 133 132 68 21 20 21 20 15 12 10
11 10 4 10 21 14 1 4 11 12 10 11 18 26 6 17
30 29 28 27 22 19 26 27 26 25 26 27 29 27 28 21
17 16 16 14 10 8 9 9 7 13 11 11 14 14 17 17
0 0 0 0 0 0 0 0 0 1 6 7 9 10 11 13
14 15 16 18 19 20 21 22 22 21 22 23 22 22 22 21
20 20 18 17 16 15 14 12 11 10 8 8 11 9 4 8
12 8 8 11 15 9 7 5 11 14 14 13 16 13 21 49
118 129 130 133 137 124 112 45 21 22 23 20 17 13 12 12
12 7 3 14 21 8 1 4 12 10 9 10 22 24 6 23
29 28 28 24 20 19 24 25 24 26 26 27 27 29 27 22
17 17 15 13 14 8 9 9 10 10 10 11 11 12 13 15
0 0 0 0 0 0 0 0 0 2 6 7 9 10 12 13
14 14 16 18 18 19 20 21 21 22 22 23 22 22 21 21
20 19 18 17 15 14 13 11 10 10 8 8 11 9 2 8
12 7 7 12 16 9 7 6 12 14 12 13 16 13 13 24
61 104 125 129 111 67 27 19 21 23 22 19 14 12 11 13
10 2 6 17 18 6 0 5 11 10 9 12 24 21 12 28
28 28 26 22 21 16 24 24 24 25 25 27 27 27 27 23
18 16 15 12 13 9 6 7 7 8 10 9 10 12 12 13
0 0 0 0 0 0 0 0 0 1 5 7 7 9 11 11
13 14 15 17 18 19 21 21 22 22 22 23 23 22 21 20
20 19 17 16 15 15 13 11 9 10 9 8 11 11 3 7
12 9 7 14 17 9 7 7 12 13 12 12 15 13 12 16
20 23 49 52 26 23 22 21 23 21 20 16 13 11 14 11
5 2 10 18 15 4 0 8 11 8 9 14 23 13 18 27
29 29 24 20 21 16 25 24 23 25 26 28 26 27 26 23
18 16 14 14 11 10 7 6 8 7 7 10 10 10 13 15
0 0 0 0 0 0 0 0 0 1 5 7 8 9 10 11
13 14 16 16 18 19 20 20 21 22 23 22 22 21 21 20
20 19 17 16 15 14 12 10 9 11 11 8 11 13 4 8
11 8 7 14 17 9 5 7 12 13 12 12 16 14 12 12
14 13 23 15 17 21 22 22 22 20 19 14 11 12 14 8
2 5 14 18 11 0 0 10 9 7 9 15 13 4 23 26
28 27 24 20 19 17 24 25 23 23 27 26 27 26 26 24
19 15 14 14 11 11 5 6 6 6 7 9 8 9 9 13
0 0 0 0 0 0 0 0 0 1 5 6 7 9 10 11
13 13 15 16 17 19 19 20 21 22 22 21 22 21 20 19
19 18 17 15 14 14 12 10 9 12 14 9 11 15 5 8
10 8 6 16 15 8 6 7 11 13 11 12 16 14 11 10
11 14 18 12 13 20 22 20 21 18 17 12 10 15 12 5
1 10 14 17 6 0 1 9 7 8 10 16 1 10 25 27
27 26 24 18 16 15 25 24 21 24 26 27 25 26 25 25
21 15 14 13 9 11 5 3 4 4 7 6 9 8 9 10
0 0 0 0 0 0 0 0 0 1 4 5 7 8 9 11
12 13 15 16 17 19 19 20 20 21 21 21 21 21 20 20
19 18 16 14 13 12 11 9 9 13 14 9 10 16 5 6
9 8 6 17 13 7 6 8 11 13 12 12 15 13 11 11
12 17 14 12 12 16 21 19 19 16 12 9 10 16 8 3
3 11 15 16 4 0 3 8 5 7 11 9 0 17 25 27
26 26 22 17 14 15 25 25 22 23 25 26 25 25 26 24
21 15 13 12 7 8 8 2 3 3 4 4 9 7 9 11
0 0 0 0 0 0 0 0 0 1 5 6 6 8 8 10
12 13 15 17 17 18 20 20 21 21 22 22 22 21 20 19
18 17 16 15 13 11 11 9 8 15 17 12 10 16 6 4
10 9 6 17 13 6 6 8 11 12 12 12 16 16 13 13
12 14 13 12 13 15 19 19 18 14 10 8 17 13 5 0
7 13 16 13 2 0 5 6 6 8 10 2 4 22 27 27
25 26 23 16 13 16 26 24 20 23 25 26 26 25 24 25
21 15 13 10 8 4 10 3 2 4 6 5 6 8 6 9
0 0 0 0 0 0 0 0 0 1 4 5 6 7 8 11
11 13 15 15 18 19 19 20 21 22 22 21 21 20 20 19
19 17 16 14 13 12 10 8 8 16 17 14 10 16 10 2
11 8 6 16 13 6 6 8 11 12 11 12 15 20 10 12
13 12 13 12 14 15 17 18 16 9 8 13 18 9 2 2
11 13 16 10 0 0 6 4 5 9 8 0 12 24 25 25
24 27 21 15 13 17 26 24 20 25 26 24 23 22 27 25
22 16 13 11 7 3 8 5 1 1 4 6 5 5 5 9
