P2
128 120
156
23 13 0 0 0 0 0 0 2 4 48 59 57 65 64 10
0 0 0 0 0 0 0 0 11 73 75 64 32 33 33 33
35 29 3 3 8 12 12 12 23 15 24 17 10 6 17 24
21 22 48 60 3 0 5 18 21 12 7 3 48 68 63 7
15 33 24 34 41 49 55 62 46 51 53 56 54 58 59 58
56 22 21 28 42 42 41 39 39 39 45 50 47 46 42 41
40 41 37 35 33 32 31 29 28 29 28 27 31 38 36 33
34 34 32 26 22 22 21 22 21 21 20 20 20 21 22 25
22 14 0 0 0 0 0 0 0 0 31 69 57 66 65 11
0 0 0 0 0 0 0 0 10 73 75 67 33 37 38 37
35 28 10 0 0 9 19 11 2 0 2 6 4 2 3 8
10 7 46 60 4 13 12 25 59 29 0 7 48 67 65 6
8 13 0 0 4 8 2 51 49 52 55 56 57 59 59 59
58 26 20 29 47 44 43 42 40 38 44 50 48 44 44 44
45 48 41 41 41 40 35 32 30 29 28 27 30 24 22 25
31 33 34 29 23 22 22 22 21 20 20 20 20 21 20 26
3 2 0 0 0 0 0 0 0 0 18 73 63 68 67 11
0 0 0 0 0 0 0 0 9 73 76 70 29 14 31 25
7 2 0 2 5 6 32 19 17 7 13 4 0 2 1 0
5 9 45 64 6 21 27 35 50 44 29 1 43 70 65 7
0 6 4 0 16 22 10 52 49 53 54 54 57 58 59 58
57 30 21 29 48 46 44 43 44 43 45 24 27 39 45 47
48 48 42 20 23 32 37 39 36 37 37 32 31 19 9 7
5 6 11 25 24 23 23 22 22 21 21 21 20 21 22 25
5 2 0 0 0 0 0 0 7 23 44 74 67 69 71 13
0 0 0 0 0 0 0 0 8 72 76 72 31 0 5 3
6 2 2 3 6 8 23 27 20 9 10 8 2 5 0 0
0 3 46 67 9 19 29 45 48 22 41 4 37 71 69 12
0 7 0 0 29 25 17 52 39 20 33 41 52 57 58 56
56 32 21 29 48 46 37 37 44 48 52 9 0 2 18 25
25 31 42 7 0 0 1 9 14 22 30 34 31 19 3 4
6 3 0 21 25 24 23 22 23 21 21 20 21 21 22 27
14 1 1 6 17 26 42 60 71 74 75 75 70 69 71 32
16 10 6 3 2 0 1 1 9 73 77 74 48 18 0 4
4 1 8 5 11 3 8 23 33 21 19 10 11 2 7 4
5 7 50 69 10 3 18 38 44 31 26 1 34 71 71 15
1 11 1 0 22 21 17 53 37 0 6 9 11 13 23 20
49 33 22 26 44 48 48 46 45 52 55 12 0 1 10 15
14 13 40 6 0 0 0 0 0 0 0 2 30 18 1 1
0 3 0 22 25 24 23 23 22 22 22 22 22 22 22 27
54 45 55 54 52 48 52 64 74 74 75 76 67 58 65 68
68 69 53 62 62 58 56 51 51 74 77 75 50 16 1 0
0 1 4 2 2 15 15 24 41 23 25 26 14 1 9 10
4 4 52 68 13 0 0 4 15 5 0 0 31 74 72 18
0 7 1 3 6 1 4 53 36 1 0 0 0 0 0 0
38 34 22 17 2 8 18 30 40 49 53 16 0 0 7 6
10 9 38 12 1 0 0 0 0 0 0 0 31 16 0 0
0 1 0 22 25 24 24 23 22 22 21 21 21 22 22 27
68 58 59 60 60 66 71 73 74 75 76 76 70 57 64 68
59 58 66 70 70 69 62 61 56 36 40 49 47 13 0 0
0 0 2 6 2 27 31 31 31 31 22 39 10 0 0 2
5 1 40 65 16 0 0 0 0 0 0 0 29 73 73 21
0 4 3 10 11 0 1 52 35 7 8 1 4 0 0 2
37 35 21 16 0 0 0 0 0 2 14 19 0 0 1 1
2 6 35 8 0 0 0 0 0 0 0 0 30 11 0 0
0 0 0 21 26 23 23 23 22 22 22 21 21 22 22 27
58 72 71 71 71 71 74 74 70 63 41 27 40 25 14 20
38 38 51 58 61 60 63 62 51 18 22 41 50 16 0 0
0 0 0 0 0 34 38 38 44 29 21 30 7 0 1 7
6 6 42 66 18 0 0 0 0 0 0 0 27 74 74 27
0 13 29 26 26 1 1 51 35 8 11 8 27 4 0 0
37 36 22 16 0 0 0 0 0 0 3 17 0 0 0 0
0 4 37 9 0 0 0 5 7 0 0 0 28 10 0 0
0 0 0 20 27 24 24 22 22 22 22 22 22 22 22 27
57 72 68 68 65 62 55 35 39 45 16 19 40 16 1 5
5 6 20 26 23 2 9 35 38 55 54 55 50 8 0 0
0 2 6 5 0 14 16 25 56 6 9 11 6 2 3 5
7 10 47 67 33 16 12 11 9 6 4 4 26 75 76 34
5 7 4 13 20 9 3 50 36 8 12 2 24 18 0 0
37 36 22 17 0 0 0 0 0 0 2 16 0 0 0 0
0 5 40 12 0 0 0 5 12 7 3 0 26 11 0 0
0 0 0 17 28 24 24 23 23 22 22 22 22 23 23 28
59 49 46 54 56 58 60 59 58 53 40 38 50 13 0 1
0 0 1 10 3 4 19 30 66 67 61 44 25 0 0 7
7 0 7 4 9 6 1 6 43 0 0 3 7 5 8 8
1 5 42 66 70 68 65 65 62 60 58 57 61 70 71 37
7 9 19 14 4 3 1 48 35 7 11 4 10 8 0 0
36 35 21 18 0 0 0 10 4 0 1 14 0 1 0 0
0 1 37 15 0 0 0 8 12 11 10 1 23 14 0 0
0 0 0 14 28 24 23 23 23 22 22 22 22 23 23 27
35 35 39 42 49 54 53 56 57 60 62 47 67 13 0 1
0 0 0 3 0 5 8 26 74 72 65 10 7 0 1 20
6 4 7 3 6 3 5 11 51 4 0 4 1 0 0 0
0 0 39 74 73 70 68 61 61 59 55 47 36 31 36 3
0 2 11 16 10 7 2 48 32 3 9 9 2 5 0 0
36 36 22 18 0 8 6 10 6 0 0 14 0 3 0 0
0 5 36 18 0 0 0 6 11 10 10 1 22 16 0 0
0 0 0 12 30 24 24 23 23 22 23 21 22 23 23 27
5 6 10 4 1 1 2 3 4 23 65 69 69 23 1 2
0 0 0 1 0 3 2 27 78 73 68 11 6 1 0 0
1 7 4 3 6 6 5 3 54 8 2 2 2 0 0 0
0 0 47 77 32 11 17 22 28 39 49 56 63 51 52 43
35 28 24 22 12 3 4 49 32 1 8 12 0 0 0 0
38 35 23 19 5 16 4 9 4 0 1 15 1 0 0 0
0 13 36 21 0 2 1 0 4 9 10 0 19 34 26 17
11 6 3 12 31 24 24 24 24 23 23 23 23 24 24 28
1 0 0 0 0 7 24 11 0 19 69 70 69 30 37 53
21 9 0 0 1 0 1 31 79 73 68 13 12 14 15 19
25 21 13 4 2 0 9 11 56 4 11 4 9 4 0 0
0 0 43 77 29 0 0 0 4 1 2 2 33 62 58 58
63 61 62 67 64 61 56 55 50 23 17 21 20 16 10 7
42 36 24 21 10 7 0 0 4 2 1 24 5 2 5 1
0 7 39 41 28 20 13 6 0 0 4 0 17 38 38 35
35 38 40 40 32 25 25 24 24 23 23 23 24 24 24 28
0 0 0 0 0 14 47 26 2 17 70 72 71 50 47 44
50 12 3 14 39 9 0 31 77 71 67 13 0 0 1 8
9 8 29 27 34 41 43 32 60 24 19 14 12 7 4 0
0 3 49 75 41 8 1 10 6 3 0 1 27 73 64 19
20 29 37 41 45 49 59 56 77 62 39 51 50 56 53 50
51 33 24 21 3 0 0 0 0 0 1 46 51 38 34 32
23 14 39 43 23 26 31 33 34 29 27 23 32 41 38 36
36 39 43 43 33 24 25 24 24 24 23 23 23 24 23 28
0 0 0 0 0 14 39 28 6 16 71 72 72 45 12 31
32 7 25 30 53 30 4 32 76 70 66 13 2 0 0 8
12 11 50 45 41 56 61 55 43 5 10 17 25 26 22 11
9 15 54 74 40 11 1 4 13 34 16 5 26 72 65 30
24 22 31 27 20 6 36 76 78 53 41 53 60 61 60 61
59 34 24 22 1 0 0 0 0 0 1 49 56 43 50 51
55 51 53 39 12 14 14 13 13 13 14 19 26 24 22 28
31 34 36 37 33 24 25 24 24 23 24 23 23 24 24 28
0 0 0 0 0 11 34 28 10 19 74 73 71 16 0 2
11 20 18 23 37 13 1 35 76 72 68 12 2 0 2 8
9 20 50 49 48 62 67 63 49 1 0 0 14 29 33 14
12 37 66 72 39 27 41 10 35 22 11 2 25 72 65 14
12 16 12 10 11 3 40 76 73 47 46 56 60 62 62 63
62 34 25 24 16 7 2 0 0 0 1 51 46 47 53 54
58 51 42 32 14 14 13 12 11 8 8 7 6 4 6 7
11 26 24 20 23 26 26 25 25 24 24 24 24 26 25 29
0 3 1 0 11 4 31 38 30 19 74 74 70 8 10 36
14 9 17 10 3 3 1 35 76 72 70 14 1 1 6 2
2 15 43 42 49 73 78 69 54 2 0 0 3 18 23 13
23 41 71 73 34 44 43 27 26 25 19 1 23 71 64 6
2 17 5 0 1 3 37 72 64 23 15 27 33 35 40 44
57 35 26 28 50 57 52 42 33 24 18 47 36 45 51 52
56 54 46 38 17 16 14 11 9 8 7 7 7 7 7 6
9 26 18 25 24 26 26 26 25 25 25 24 24 25 25 29
0 12 10 4 13 10 25 39 43 20 74 74 69 8 5 12
0 0 1 1 0 1 1 36 78 74 71 15 3 12 9 0
4 15 25 36 51 77 80 75 63 3 0 2 20 23 20 20
25 52 76 75 24 25 16 4 20 45 29 3 25 71 62 4
0 2 9 4 2 7 36 73 66 16 1 8 1 0 1 6
38 37 26 28 51 59 58 55 54 55 56 53 22 30 40 44
50 51 45 41 19 14 13 8 7 6 9 8 9 9 10 10
14 28 6 16 31 28 26 16 20 25 25 24 25 25 24 29
0 0 0 8 13 7 18 23 25 20 74 73 68 6 0 0
0 1 1 0 0 0 0 37 79 74 72 16 0 0 9 0
8 10 0 23 49 77 78 74 64 4 0 5 36 58 55 66
65 64 74 76 53 40 33 31 35 37 24 9 29 71 62 6
19 15 2 2 5 3 30 72 66 14 1 8 2 0 0 4
35 38 25 27 50 60 60 56 57 57 57 50 5 1 1 4
9 16 21 43 19 13 10 0 0 0 2 11 11 5 7 12
14 31 38 35 36 35 34 14 12 26 25 25 25 24 18 26
0 0 0 10 28 7 3 7 3 19 75 74 68 7 0 0
0 1 0 0 0 0 0 38 77 73 72 16 0 2 9 4
11 17 7 25 42 73 75 72 63 4 0 3 16 57 35 63
61 12 41 75 67 54 34 65 67 41 18 3 30 75 66 11
51 25 1 0 3 3 22 69 64 16 8 8 3 11 30 27
36 42 31 29 42 49 49 50 52 53 56 46 3 0 0 0
0 7 18 45 17 12 10 1 0 0 0 0 1 0 0 0
2 31 35 21 23 20 28 30 30 25 25 25 25 12 4 23
0 0 0 11 50 14 0 1 1 20 78 73 71 65 63 57
51 43 36 30 26 19 15 45 76 71 71 18 0 5 6 1
4 9 8 12 32 73 73 71 65 5 0 3 44 54 41 49
41 7 19 71 62 49 15 61 67 38 17 0 30 76 69 9
33 23 8 4 5 5 21 63 58 19 12 14 11 19 37 36
33 41 33 31 34 35 38 41 40 39 49 44 2 0 0 0
4 0 9 47 16 12 6 1 0 3 2 0 0 0 0 0
0 29 38 22 19 25 22 23 26 26 25 24 25 18 9 23
1 0 0 17 46 20 0 0 0 19 62 52 64 75 83 80
77 73 70 68 74 73 73 73 74 72 70 21 0 0 0 0
0 0 1 0 29 71 73 72 65 6 0 1 31 69 65 45
43 13 10 65 56 40 3 48 56 20 28 0 28 76 71 11
14 28 12 10 6 5 23 54 51 22 23 23 15 17 37 38
37 36 31 30 31 29 30 38 37 37 50 45 1 0 0 0
1 0 4 47 7 4 0 0 0 5 8 2 0 0 0 0
0 29 39 19 12 28 25 20 24 25 26 25 25 24 18 26
57 6 0 25 37 22 0 0 0 15 44 56 64 70 85 83
81 80 76 75 78 76 77 76 74 70 69 20 28 30 29 28
26 25 24 16 38 70 72 75 74 53 51 48 25 33 60 69
64 44 18 55 49 32 0 36 53 9 15 0 27 77 71 13
0 4 3 8 21 28 38 45 50 38 36 34 28 19 9 14
27 31 28 29 28 33 38 41 42 46 50 45 1 0 0 0
0 0 6 48 2 0 0 0 0 0 8 12 4 0 0 0
0 29 41 19 8 15 13 20 24 26 26 25 26 24 21 24
69 23 0 26 33 22 0 0 7 35 44 58 67 77 78 73
73 70 71 74 72 74 79 79 77 77 76 56 70 71 72 76
72 60 64 66 71 72 76 78 71 64 73 70 60 26 12 32
45 32 9 12 19 40 19 12 37 5 9 2 26 74 67 12
3 5 19 44 71 89 96 99 101 99 91 69 43 32 22 14
30 31 30 31 15 2 4 10 14 20 26 36 1 0 0 0
0 0 8 46 3 0 0 0 0 4 9 13 11 4 0 0
0 27 41 23 12 15 15 17 24 26 26 26 26 25 23 22
60 58 36 46 47 36 24 17 27 42 46 58 64 69 66 71
74 71 74 57 34 41 55 65 67 69 75 77 62 76 77 82
68 58 63 70 77 70 78 80 78 77 71 43 60 72 32 0
0 0 1 1 0 9 28 19 8 4 43 39 48 71 65 12
15 49 90 117 130 135 139 139 141 139 134 130 114 82 46 23
25 38 37 33 16 0 0 2 0 0 0 21 1 0 0 1
0 0 8 43 0 0 0 0 0 17 17 17 10 4 0 0
0 27 41 25 19 12 6 15 22 26 25 25 25 25 21 21
35 76 65 65 65 74 76 58 11 4 12 16 14 17 19 16
17 17 64 48 3 6 0 17 37 12 55 77 81 75 72 77
65 65 69 75 80 84 85 85 83 82 75 28 53 78 67 18
8 0 6 8 0 0 0 11 23 6 59 68 68 68 59 36
77 120 136 143 144 144 145 145 145 145 144 145 142 133 116 63
34 36 34 31 19 5 2 2 0 0 0 20 1 0 2 14
5 0 6 42 0 0 0 0 0 7 14 13 0 0 0 0
0 23 42 27 18 6 3 7 21 25 26 25 25 25 19 20
12 74 40 19 23 29 33 33 1 0 3 1 0 1 2 0
1 2 59 54 9 22 2 14 32 9 55 77 82 72 68 68
66 69 74 79 83 85 85 86 84 84 80 26 41 79 50 11
8 0 6 13 5 14 27 55 68 48 64 72 72 68 48 86
125 139 145 146 145 145 145 145 145 145 145 145 145 144 143 131
82 43 37 32 21 1 7 14 7 1 0 20 2 0 12 22
11 1 8 40 0 0 0 0 0 0 5 9 0 0 0 0
0 21 41 25 10 1 0 5 21 26 25 25 25 25 18 24
0 59 50 1 2 0 3 23 0 0 1 1 0 2 5 0
6 4 54 62 14 28 4 12 28 40 63 78 79 24 11 24
55 51 57 63 68 71 71 75 76 79 81 33 30 79 60 5
2 0 8 58 54 56 67 60 72 70 69 70 66 49 78 121
136 146 146 146 147 146 145 145 145 145 145 145 145 145 145 144
135 81 42 34 19 4 10 25 17 7 0 18 4 0 17 18
16 4 6 39 0 4 0 0 0 0 5 13 0 0 0 0
0 18 41 21 4 5 0 7 18 25 25 26 26 24 18 26
2 34 69 17 6 2 17 26 0 0 0 2 1 1 6 0
1 6 50 68 2 1 23 37 35 73 72 80 80 19 0 17
46 10 9 10 14 16 16 17 16 19 62 46 23 78 72 52
30 24 35 63 71 67 60 43 68 67 48 50 47 60 115 128
137 146 146 147 146 146 146 146 146 146 146 146 146 145 145 145
141 126 65 43 24 4 15 26 20 12 0 21 42 36 41 38
35 30 27 41 0 0 0 0 0 0 4 15 0 0 0 0
0 12 42 16 1 2 0 14 19 25 26 26 26 23 20 27
33 31 76 41 21 5 17 23 0 0 3 13 7 0 2 0
0 6 49 71 3 0 13 47 37 71 74 79 79 20 0 9
49 11 6 9 7 15 14 6 10 8 53 70 39 76 73 74
72 72 73 73 71 60 27 5 37 36 16 18 52 99 122 127
138 146 147 147 146 146 146 145 146 145 146 145 145 145 145 145
144 135 109 54 30 12 12 12 13 7 0 19 47 45 51 49
48 53 56 47 7 3 7 0 0 0 5 18 0 1 0 0
0 5 40 15 1 0 0 4 19 24 26 26 26 22 22 26
43 46 76 55 20 5 18 23 1 2 10 9 0 0 0 0
0 0 32 76 12 12 10 16 36 63 70 80 79 20 0 7
53 10 2 11 4 15 17 9 17 20 54 74 35 73 74 74
74 74 74 73 71 60 35 1 0 12 16 31 81 116 120 129
139 142 141 146 147 146 146 146 146 146 146 146 146 144 144 141
144 138 126 84 39 21 11 13 8 7 0 18 49 48 50 48
49 56 58 53 34 33 33 26 23 22 21 23 14 11 9 8
7 12 34 19 8 6 9 0 10 25 26 26 26 20 24 29
40 48 70 72 19 0 19 31 14 14 21 23 0 0 0 0
0 0 26 79 13 7 4 7 23 50 68 80 79 20 0 8
56 11 11 12 6 12 17 16 26 25 55 77 27 70 75 75
76 74 71 36 27 26 16 5 0 8 21 30 54 55 51 55
60 61 81 123 147 147 146 147 147 147 146 144 115 88 86 97
102 111 117 109 52 30 14 12 6 5 0 17 42 41 44 44
45 49 49 48 38 38 38 37 34 36 34 32 30 25 23 21
19 22 35 31 21 17 13 8 10 25 27 27 26 20 26 29
23 39 46 76 29 0 22 33 17 24 39 28 0 13 16 4
3 6 28 82 14 0 0 4 10 47 67 80 79 20 1 7
56 9 32 8 10 11 14 8 19 17 44 77 12 63 73 73
74 74 73 54 52 52 32 21 17 17 18 16 13 9 6 4
5 12 31 38 60 135 148 148 147 147 120 74 40 24 16 14
13 11 12 19 22 19 12 8 7 3 0 18 47 41 43 42
42 40 35 35 40 40 42 40 37 38 37 36 35 37 37 33
30 29 37 45 42 41 39 35 29 25 27 27 27 21 26 30
19 28 47 69 54 2 26 34 17 25 37 28 0 5 9 9
11 8 35 84 19 0 0 1 13 48 63 79 76 18 2 3
54 10 30 4 5 6 8 6 12 39 41 77 11 5 7 10
13 18 26 54 65 58 22 23 18 5 2 2 2 3 2 0
0 2 2 4 9 36 89 80 92 67 26 19 5 1 0 0
0 0 0 3 4 5 7 5 10 4 2 20 50 42 42 41
41 42 41 43 44 42 45 49 48 42 37 37 36 43 47 44
40 39 38 31 28 29 30 31 29 27 29 28 27 24 25 30
22 28 43 65 70 10 29 35 17 27 36 30 1 2 11 4
1 9 38 85 27 0 3 4 18 25 59 78 76 16 2 1
54 14 20 3 7 6 9 14 13 40 43 78 17 0 0 0
0 0 2 42 61 49 12 29 10 2 1 3 58 97 14 0
1 1 1 2 6 19 25 24 20 15 12 3 1 1 1 0
1 1 0 0 4 1 11 16 12 31 51 50 55 45 45 45
45 45 47 50 49 44 47 52 55 41 38 32 35 46 46 43
41 40 39 33 24 20 19 19 20 28 29 29 28 23 28 32
46 62 44 52 76 30 29 36 17 26 32 31 3 3 20 2
0 14 29 83 42 14 20 7 18 20 62 77 73 14 0 0
51 26 6 4 3 4 6 4 5 27 30 73 24 1 0 0
0 1 6 46 68 51 8 8 3 0 3 68 121 39 1 0
0 0 1 2 8 21 51 77 44 17 64 4 0 0 0 0
0 0 0 0 0 2 0 4 8 32 62 62 58 48 41 44
42 43 50 53 52 45 47 49 44 42 40 36 29 40 43 41
41 43 41 38 31 26 25 24 26 28 29 28 28 21 29 31
74 78 69 77 77 54 29 38 18 26 29 31 2 0 0 0
0 3 13 80 47 5 7 5 10 4 59 75 71 11 0 0
47 37 3 3 7 27 25 16 2 4 10 69 35 3 5 6
6 8 6 46 67 50 6 2 0 1 50 91 16 1 1 0
0 0 1 2 14 44 122 139 120 38 8 2 1 0 0 0
0 0 0 0 0 3 0 0 6 25 62 63 59 20 25 16
15 17 24 37 54 45 39 20 26 29 27 29 34 31 9 3
6 12 17 23 35 30 29 31 32 34 34 29 27 21 30 31
77 79 77 75 75 65 32 40 10 13 11 8 4 6 9 13
19 24 35 81 55 1 5 2 7 5 60 74 71 8 0 0
38 33 2 2 5 27 30 19 1 1 5 60 58 32 33 26
34 34 34 57 69 56 6 0 0 23 83 16 0 0 0 0
1 5 21 3 38 135 148 147 147 128 22 0 0 0 0 0
0 0 0 0 0 15 31 11 7 13 37 39 44 8 0 0
0 0 0 10 51 42 15 0 1 3 7 13 35 32 4 0
0 0 7 15 28 22 25 28 31 35 37 30 26 21 28 30
77 76 72 70 50 14 22 67 55 61 64 69 73 77 80 82
85 87 87 88 71 27 30 28 25 24 66 75 72 7 0 0
26 41 2 1 2 17 25 16 1 1 3 49 75 59 64 57
68 65 69 74 67 46 5 0 2 46 22 0 0 0 0 6
51 113 91 16 106 147 146 146 146 146 89 2 0 0 1 10
2 0 0 0 0 11 51 65 16 11 36 37 40 15 8 0
0 0 4 15 49 33 1 0 0 0 1 13 37 33 4 0
0 0 3 13 18 0 0 0 0 3 36 31 24 22 28 30
75 71 59 23 1 0 17 82 84 84 84 85 86 87 87 87
87 87 88 87 83 61 74 75 75 75 78 60 60 27 14 13
25 56 14 13 13 14 14 14 15 13 14 43 79 52 64 67
67 67 73 78 62 27 3 0 44 74 0 0 0 0 14 99
134 65 9 40 141 140 143 146 143 144 132 17 1 6 73 131
35 0 0 0 0 2 0 0 6 10 39 42 41 12 5 0
0 0 3 20 47 23 0 0 0 0 0 8 37 32 5 0
0 0 1 9 19 0 5 6 0 0 32 30 22 22 27 28
70 53 25 18 18 16 27 83 86 86 86 87 88 89 88 88
88 87 86 84 75 35 40 41 44 48 67 70 77 71 73 70
61 83 82 75 79 82 78 71 71 81 82 84 81 27 28 34
40 47 56 69 67 43 3 3 106 34 3 0 0 3 90 109
19 3 16 106 136 45 104 147 70 72 145 65 10 99 132 52
2 0 0 0 2 5 1 1 6 8 37 42 44 13 6 1
0 3 4 4 43 17 0 0 0 0 0 7 35 30 6 0
0 0 0 8 21 0 2 4 0 0 29 30 21 24 27 29
63 65 73 73 72 70 67 84 86 85 83 81 78 75 71 65
48 25 20 13 7 0 2 0 2 6 57 76 82 73 78 75
65 82 90 84 85 87 83 84 84 88 88 88 86 23 0 1
4 15 17 51 74 58 3 21 94 6 5 0 0 1 14 7
7 17 85 142 97 49 135 146 115 43 138 131 33 50 21 0
0 0 0 0 6 9 3 5 5 5 25 38 51 14 0 0
0 3 9 2 43 14 0 0 0 0 0 7 36 29 5 0
0 0 0 4 24 0 2 2 0 0 30 30 21 26 28 29
70 67 62 61 62 63 64 66 62 50 64 63 64 63 59 59
31 0 0 0 0 6 15 1 2 6 57 79 84 84 81 75
66 76 94 91 91 88 78 79 80 86 90 88 87 40 0 2
6 15 18 52 75 60 4 9 15 23 30 20 17 15 19 21
42 100 137 143 134 137 146 145 145 123 144 145 126 50 22 16
11 6 3 3 11 10 7 18 14 7 23 25 50 28 8 0
0 5 6 1 42 13 0 0 0 0 0 6 39 28 7 0
0 0 0 3 28 0 2 2 1 0 29 30 21 26 27 29
71 68 59 62 66 54 66 67 64 62 65 65 64 63 60 59
32 0 0 0 0 9 22 4 4 8 56 79 82 79 78 73
64 58 65 64 64 64 63 63 63 57 42 38 35 21 2 4
11 13 17 55 74 57 4 26 80 77 60 28 19 36 69 106
127 137 134 134 135 145 146 145 146 145 144 141 143 135 107 69
33 22 18 17 29 31 42 64 28 9 33 23 47 24 4 0
0 3 8 3 41 13 0 0 0 0 0 2 39 29 10 0
0 0 0 1 30 0 0 0 0 0 28 30 20 26 27 29
57 57 56 56 57 56 57 57 57 57 57 63 65 65 62 62
32 0 0 0 0 0 2 3 5 11 55 81 78 66 62 53
45 41 49 43 48 48 42 34 57 46 14 8 9 4 8 2
7 10 19 54 64 38 3 41 102 104 88 86 99 114 138 145
146 145 127 118 134 145 145 145 145 143 133 134 144 146 145 143
133 105 72 60 86 110 121 86 34 7 36 25 45 14 0 0
0 0 0 1 41 15 0 0 0 0 0 0 37 28 7 0
0 0 0 0 33 1 0 0 0 0 25 28 20 26 27 29
57 57 56 56 56 54 54 53 53 51 50 51 48 61 65 63
34 0 0 0 0 3 5 5 6 13 53 81 78 60 21 7
0 0 14 25 32 27 10 7 55 47 15 7 9 3 7 2
6 6 17 56 56 10 2 54 108 97 98 109 122 140 146 146
145 133 120 138 147 146 145 146 146 145 140 135 143 145 146 145
145 143 135 127 120 109 118 102 32 4 34 26 44 12 0 0
0 0 3 0 38 20 0 0 0 0 0 0 37 29 10 0
0 0 0 0 35 2 0 0 0 0 26 27 21 27 28 29
57 56 56 55 55 54 53 52 52 50 49 15 0 42 68 65
35 0 0 0 2 7 16 28 8 15 52 80 78 59 20 3
1 3 9 21 29 7 0 4 56 48 17 7 8 5 7 1
1 3 8 58 60 10 2 76 106 104 115 122 138 147 147 146
135 122 141 146 144 140 142 144 143 144 146 142 141 145 146 145
146 145 145 139 131 119 116 112 35 1 34 27 40 17 5 3
3 4 15 4 34 35 17 15 17 18 15 17 41 31 32 34
34 33 36 38 44 10 6 4 3 3 25 26 21 26 27 29
44 44 45 45 46 46 47 48 48 50 50 15 0 33 65 64
35 0 0 3 35 24 33 49 12 14 51 82 80 57 26 12
14 17 19 10 30 10 1 3 57 48 17 5 5 0 0 0
1 3 13 62 58 9 6 91 104 115 123 133 145 147 147 142
128 136 146 142 130 128 140 138 136 133 142 146 145 145 146 146
145 145 145 144 137 128 117 116 49 0 31 26 37 40 41 35
35 37 37 37 37 45 54 49 48 50 51 50 51 34 32 39
40 42 47 51 50 32 29 28 28 28 29 24 21 25 27 28
1 2 3 4 4 5 7 9 15 49 51 16 0 23 63 59
45 22 21 31 59 52 63 67 32 18 50 80 78 56 32 22
25 24 15 12 33 11 0 4 58 48 22 6 1 1 2 2
3 3 6 58 56 12 18 100 109 121 127 140 147 147 147 138
135 145 142 136 133 147 146 147 146 131 130 145 146 146 146 146
145 145 146 145 140 132 119 118 69 0 26 28 36 45 43 38
40 40 35 27 29 37 55 52 50 47 51 52 51 40 27 35
38 42 49 51 49 31 27 26 26 25 25 25 23 22 26 26
0 0 0 0 0 0 0 0 3 49 51 17 0 20 63 52
51 52 56 46 56 63 70 70 66 64 68 76 74 54 31 21
27 20 3 8 27 14 3 6 61 47 33 30 8 1 0 1
6 3 8 49 38 7 31 101 112 122 128 143 147 147 147 144
144 144 130 142 142 142 142 145 146 143 128 135 147 146 147 146
146 146 145 145 143 135 124 119 78 2 22 31 36 43 37 35
38 40 37 29 28 31 31 34 34 33 32 31 32 33 24 26
30 31 28 24 25 27 28 28 28 27 26 26 25 24 23 24
0 0 0 0 0 0 0 0 2 48 51 19 1 19 62 56
56 57 61 55 63 67 72 73 71 70 69 75 74 53 30 18
24 15 4 10 22 22 6 5 59 46 40 31 9 0 0 0
1 2 9 43 22 4 38 104 113 123 135 145 147 147 147 147
140 124 123 139 147 146 147 146 146 146 139 128 137 145 146 146
145 145 146 145 144 140 128 116 84 7 19 33 34 35 28 31
29 34 37 30 29 32 22 25 24 25 24 24 25 29 28 30
32 32 30 27 25 27 29 28 28 27 27 26 25 25 27 28
0 0 0 0 0 0 0 0 2 48 52 20 1 17 59 59
55 50 63 60 61 69 75 76 74 73 70 75 74 52 23 2
3 7 7 18 14 5 7 5 56 45 39 14 3 0 0 0
3 7 11 32 11 3 43 104 114 126 137 145 147 147 147 146
127 137 146 147 147 147 147 147 147 146 147 146 143 145 146 146
146 146 145 145 145 140 127 116 78 13 20 36 37 34 9 10
12 13 16 14 19 33 27 30 28 36 37 35 33 37 37 38
44 43 39 30 27 27 28 28 27 27 26 25 25 25 26 28
0 0 0 0 0 0 0 0 1 48 52 21 1 16 56 60
58 47 49 45 55 69 76 78 77 75 69 77 74 52 18 0
0 0 4 19 15 0 1 3 55 45 48 33 31 24 18 18
19 18 22 22 6 6 48 105 113 128 143 145 147 147 146 143
145 147 147 147 147 147 147 147 147 146 146 146 146 146 145 146
146 146 145 146 144 137 127 116 79 19 19 39 45 35 1 0
0 0 1 5 16 33 36 45 36 47 56 36 21 22 24 26
31 41 41 30 29 27 28 28 27 27 27 26 26 25 27 28
0 0 0 0 0 0 0 0 1 48 52 23 3 9 50 47
34 36 45 47 41 39 43 49 66 75 69 79 75 53 19 6
4 2 3 18 12 1 0 4 49 44 68 73 72 71 60 61
60 49 24 8 8 5 45 100 114 130 142 144 147 148 147 144
147 147 146 147 147 146 147 146 147 147 146 146 146 147 146 146
147 146 146 146 145 138 126 119 79 20 14 34 48 40 1 0
0 0 0 0 20 32 34 44 27 36 45 22 0 0 0 0
1 31 43 30 29 29 29 28 27 27 26 26 26 25 26 27
0 0 0 0 0 0 0 0 1 48 53 34 31 2 41 36
6 14 26 30 26 20 9 17 30 74 75 80 76 62 33 14
18 2 3 8 7 1 0 4 54 46 71 76 76 62 54 54
29 8 0 0 3 6 44 96 112 133 140 145 147 148 148 146
148 148 147 147 147 147 147 147 147 147 147 146 146 146 146 146
146 146 147 146 145 139 125 119 73 20 10 29 45 44 3 0
0 0 0 0 19 30 33 43 7 2 17 24 0 0 0 0
0 27 42 30 29 29 29 28 28 27 27 26 26 25 27 29
0 0 0 0 0 0 0 0 1 48 53 39 24 0 37 35
0 0 0 4 6 5 12 23 43 76 77 76 74 68 46 14
12 2 2 0 1 0 0 5 60 50 73 78 74 50 31 26
8 2 0 0 3 17 43 93 115 134 144 146 148 148 148 147
147 147 147 148 147 147 147 146 147 147 147 147 146 147 146 147
146 146 146 146 145 141 125 118 72 22 14 30 32 23 1 0
0 0 0 0 22 29 34 43 7 1 16 26 0 0 0 0
0 21 42 30 30 29 28 28 28 27 26 25 25 26 26 28
0 0 0 0 0 0 0 0 0 48 52 28 0 0 32 36
0 0 0 6 12 0 0 1 16 75 76 76 73 74 47 1
6 2 1 0 2 3 7 39 70 58 39 41 40 31 27 19
7 2 0 0 39 113 83 92 116 136 142 146 148 148 147 146
145 146 146 146 147 146 147 147 147 147 147 146 146 146 147 147
147 147 147 146 145 139 126 117 89 84 65 34 25 10 0 0
0 0 0 0 24 27 34 43 7 1 15 27 0 0 0 0
0 18 41 29 29 28 28 28 27 27 26 26 25 26 27 27
0 0 0 0 0 0 0 0 0 47 53 25 1 0 26 42
0 0 0 0 11 0 0 0 7 72 68 67 66 71 57 33
39 43 45 50 54 56 62 65 66 68 34 25 24 21 17 13
6 0 0 0 78 113 115 91 117 136 140 145 148 147 147 145
143 144 147 146 147 147 146 146 147 147 147 147 147 147 146 146
146 147 146 146 145 141 128 110 110 139 135 76 24 8 0 0
0 0 1 0 24 26 34 43 6 1 13 29 0 0 0 0
0 15 41 29 29 28 28 28 27 27 27 26 26 25 26 27
0 0 0 0 0 0 0 0 0 46 53 26 4 6 30 47
2 0 0 8 17 0 0 0 7 71 61 53 54 69 69 70
71 72 73 75 77 77 76 74 76 73 49 22 20 15 8 7
0 2 3 1 77 97 120 94 118 135 137 144 146 147 146 142
141 143 147 147 147 147 147 148 148 147 147 147 147 147 147 147
146 146 146 146 144 136 127 103 121 127 78 79 22 9 0 0
0 2 2 0 21 28 36 43 6 2 13 28 3 0 0 0
0 14 41 30 29 28 28 28 27 26 27 26 26 25 26 27
0 0 0 0 0 0 0 0 0 45 54 48 48 53 57 53
7 0 0 4 12 0 9 6 6 66 23 1 9 49 70 72
73 73 75 77 74 79 78 75 76 64 52 21 21 15 7 10
2 2 4 3 94 128 124 108 119 132 139 144 145 145 145 142
143 142 146 147 147 146 147 147 147 147 147 146 146 146 146 146
146 146 146 146 145 129 124 106 128 139 116 82 24 12 5 4
0 3 9 0 18 29 36 44 18 4 11 29 5 3 1 2
0 12 41 29 29 29 29 28 27 27 27 26 26 25 25 26
0 0 0 0 0 0 0 0 0 44 53 54 57 59 61 57
9 0 0 0 1 0 16 20 9 66 18 0 0 40 72 74
76 76 76 70 73 77 76 74 54 22 26 21 15 14 15 14
3 2 8 1 99 133 136 111 118 131 141 141 144 142 139 138
140 137 138 145 146 146 147 147 147 147 146 147 147 147 146 146
147 146 146 146 144 133 121 116 124 135 125 83 28 19 15 7
0 3 16 10 16 33 37 42 18 15 9 28 1 8 9 2
0 10 39 29 29 28 28 28 27 27 26 26 25 25 25 25
0 0 0 0 0 0 0 0 0 42 53 54 58 60 63 60
14 3 0 0 0 0 4 13 28 66 34 21 21 35 41 43
55 61 63 65 65 68 68 59 17 18 23 24 14 16 20 10
4 6 9 6 93 135 135 111 118 131 137 139 138 135 134 129
131 130 125 125 136 138 142 143 142 143 145 145 145 146 146 146
146 146 146 146 141 131 118 123 115 140 124 72 18 22 19 17
10 14 22 23 23 40 37 42 13 27 10 27 1 9 9 2
1 10 35 28 28 28 28 28 27 26 26 25 25 25 24 23
0 0 0 0 0 0 0 0 0 41 53 46 46 56 52 50
36 35 37 21 25 27 30 36 45 63 48 43 53 45 44 44
43 45 60 53 52 50 41 35 28 27 21 19 11 13 9 2
2 9 7 5 84 133 130 124 115 130 133 133 131 129 124 123
120 115 112 104 102 105 108 110 112 112 117 124 131 142 145 145
146 146 145 145 140 132 116 137 126 133 126 56 10 25 31 34
29 45 45 47 49 48 38 40 4 26 14 33 25 26 25 24
23 23 24 26 29 28 28 27 26 26 26 25 25 24 23 23
0 0 0 0 0 0 0 0 0 40 52 46 35 32 24 24
26 26 38 61 75 76 76 76 78 79 78 78 78 78 78 78
77 74 67 57 50 45 37 38 35 31 24 15 8 6 1 1
5 10 1 1 69 128 122 123 113 123 128 127 124 120 114 114
110 103 99 96 93 87 88 90 95 99 104 111 119 130 135 138
143 143 143 142 139 127 119 130 127 120 123 38 8 20 34 36
35 39 42 50 50 53 44 40 1 8 11 32 22 24 24 23
23 22 24 26 28 27 28 27 26 26 27 25 25 24 24 23
0 0 0 0 0 0 0 0 0 39 53 44 30 20 11 11
18 24 26 28 47 72 82 83 83 83 83 82 83 81 79 77
77 75 73 70 59 45 44 39 33 26 22 12 4 0 1 0
9 14 0 0 44 119 111 126 115 118 121 119 116 111 105 100
97 97 105 110 117 117 118 119 119 119 114 106 103 109 117 125
136 138 137 137 136 126 125 126 116 123 110 10 3 18 23 28
27 27 32 35 33 31 37 38 1 4 7 32 26 29 29 28
27 27 27 27 28 27 27 26 26 26 26 25 25 24 24 22
0 0 0 0 0 0 0 0 0 37 53 39 13 17 22 25
23 24 29 34 35 39 64 74 66 59 57 53 57 60 60 62
62 62 64 64 61 51 47 48 35 25 24 8 0 1 2 2
8 8 2 0 21 108 121 134 109 108 115 115 111 103 94 87
83 91 102 112 120 124 128 131 129 123 116 104 94 94 101 113
119 125 130 135 131 119 123 142 132 124 80 0 0 10 11 10
17 16 14 13 12 11 27 39 2 3 6 33 26 30 31 29
29 30 28 28 28 28 27 27 26 25 25 25 25 24 23 22
0 0 0 0 0 0 0 0 0 36 53 35 3 8 13 29
23 17 21 28 35 39 53 59 57 57 56 56 56 56 55 55
53 52 51 48 47 43 43 37 22 18 18 9 2 2 2 3
6 0 0 0 5 80 101 85 26 81 108 108 103 97 90 87
93 101 106 108 116 121 127 131 130 126 123 114 107 97 94 100
113 121 126 126 123 88 63 114 125 112 45 0 0 3 15 11
12 12 15 14 14 13 29 39 4 2 6 33 25 30 29 29
29 28 28 28 27 27 27 26 26 26 25 24 25 23 22 21
0 0 0 0 0 0 0 0 0 33 52 38 0 0 0 13
19 20 22 23 30 37 35 37 38 40 36 36 37 37 38 41
41 41 41 39 39 38 34 25 21 13 14 9 6 1 4 7
1 0 0 0 1 10 11 0 0 49 94 100 96 90 92 97
105 109 110 109 114 122 126 133 133 130 126 123 121 118 110 107
110 114 117 119 112 57 7 5 16 30 6 0 0 1 11 15
14 15 17 15 15 12 31 42 23 35 38 39 24 30 29 28
29 28 28 27 27 27 27 26 26 25 25 24 24 23 21 20
0 0 0 0 0 0 0 0 0 31 52 40 2 0 4 10
19 20 23 26 33 52 43 38 37 36 44 37 32 33 33 42
35 38 46 36 31 28 25 22 10 12 18 13 5 2 7 7
0 0 0 0 1 0 0 0 2 59 81 88 93 93 100 105
111 112 112 111 115 123 128 134 134 131 128 132 136 135 124 116
109 109 111 108 106 98 12 0 4 1 0 0 0 0 2 13
15 19 25 19 19 15 33 41 33 47 48 39 24 29 29 29
27 28 28 27 26 26 27 26 26 25 25 24 24 22 20 19
0 0 0 0 0 0 0 0 0 30 52 40 3 1 8 9
18 20 22 25 33 52 34 30 27 23 41 31 23 26 32 44
44 46 49 37 30 27 24 14 6 20 16 12 2 3 3 1
0 0 0 0 2 1 0 0 1 55 96 78 88 96 104 107
112 114 114 113 116 122 131 136 137 136 137 141 144 140 130 119
111 106 100 99 116 92 5 6 1 0 0 0 0 0 0 3
14 15 27 23 21 18 25 28 22 25 28 27 27 29 28 28
28 28 27 27 26 26 26 25 25 25 25 24 23 22 20 17
0 0 0 0 0 0 0 0 0 30 52 41 3 5 8 9
17 20 22 25 33 52 32 29 26 23 40 30 23 26 32 45
46 48 50 43 37 32 26 8 10 21 11 9 1 2 0 0
0 0 0 0 0 0 0 0 4 49 101 93 88 99 106 108
111 115 115 114 119 127 136 140 142 142 144 146 145 140 131 121
112 104 97 113 118 59 2 11 1 0 0 1 0 0 0 2
7 17 26 24 22 22 25 27 25 22 26 26 27 28 29 28
28 28 27 27 27 25 26 25 24 25 23 24 23 21 20 17
0 0 0 0 0 0 0 0 0 28 51 42 2 6 6 7
17 18 22 25 32 52 33 28 25 21 40 29 21 23 30 45
52 55 52 51 46 40 27 13 14 17 5 6 1 2 0 0
0 1 0 0 0 0 1 2 9 46 101 103 101 100 106 108
108 112 117 118 125 132 139 144 146 146 146 146 142 135 128 122
112 108 114 117 115 30 10 13 5 0 0 4 1 0 0 0
7 14 23 25 20 23 26 29 27 23 26 26 27 28 27 27
26 26 26 25 25 25 25 25 23 24 24 23 22 21 19 21
1 2 2 2 3 4 4 5 6 34 52 42 3 6 4 8
16 18 21 24 30 52 34 28 23 20 39 31 22 23 30 42
52 55 54 53 47 39 31 29 20 12 9 5 3 7 0 0
0 0 0 0 0 1 2 8 16 47 103 104 110 108 108 109
110 114 118 123 130 138 145 147 146 147 146 145 141 132 128 122
118 120 123 120 103 16 12 17 10 0 0 3 2 2 0 1
6 15 20 25 20 21 25 27 29 25 26 26 27 27 27 27
27 26 26 26 26 25 25 24 24 23 23 23 21 20 18 23
51 51 51 51 51 51 51 51 50 50 50 43 4 5 3 7
16 18 21 23 31 51 34 29 23 19 37 32 22 23 29 44
54 55 54 50 43 35 31 22 15 15 10 5 5 11 2 3
1 0 0 0 0 1 6 15 11 52 105 104 113 116 114 113
111 115 119 125 133 143 147 147 147 146 147 145 139 132 129 128
130 131 125 123 89 8 22 27 13 0 2 1 2 1 3 1
5 13 17 18 17 19 21 25 28 27 27 26 27 27 28 27
27 26 26 25 25 24 24 23 23 23 23 21 21 18 19 22
54 54 54 53 52 52 52 51 50 49 50 44 4 5 3 6
16 18 21 24 31 51 33 26 23 23 38 33 23 26 30 44
54 52 51 47 35 32 23 14 13 19 16 6 8 10 5 3
0 1 1 0 0 0 4 9 7 51 106 107 114 119 121 118
114 118 121 128 138 145 147 146 147 147 146 145 136 132 133 136
141 136 127 128 76 6 24 28 17 1 2 1 1 0 0 2
5 9 15 17 17 19 24 26 26 28 26 26 27 27 27 26
26 26 26 25 25 24 24 23 22 23 21 12 15 15 21 22
56 55 55 54 54 53 53 52 51 46 51 44 4 4 1 4
14 16 19 23 29 50 42 37 37 37 42 40 40 39 40 44
47 47 42 35 30 26 20 14 17 21 14 15 12 6 9 8
2 5 1 0 1 1 2 7 4 45 111 113 116 123 128 126
123 123 126 134 143 146 147 147 147 147 147 146 141 138 138 143
141 137 130 130 72 2 24 38 13 2 2 3 0 1 1 1
2 7 13 13 17 19 26 28 28 30 29 26 26 27 27 27
26 26 25 25 24 23 24 22 20 21 22 17 11 14 19 22
56 56 55 54 54 53 53 52 52 51 51 44 5 5 3 4
12 14 16 19 25 44 44 43 42 41 40 41 41 41 40 41
40 38 37 32 27 25 19 19 21 13 18 16 5 6 8 4
4 8 2 2 0 5 3 8 11 46 111 119 117 124 133 133
130 129 131 140 147 148 148 147 148 147 147 147 142 143 145 145
143 137 133 130 62 1 27 45 10 6 3 3 1 2 0 0
0 4 10 12 16 20 27 30 29 31 30 28 26 27 27 26
26 26 25 24 25 24 24 21 20 20 25 25 21 22 26 31
45 45 44 44 43 42 41 41 41 40 41 32 2 5 3 6
16 18 20 23 31 47 43 42 41 41 41 39 37 36 36 38
35 43 37 25 27 24 22 21 16 11 24 11 9 8 12 4
11 14 2 2 0 8 2 8 16 47 116 122 121 126 137 137
135 131 132 142 148 148 148 148 147 147 147 146 144 146 147 146
140 138 139 130 49 1 31 36 8 2 4 2 1 0 0 0
0 0 6 10 16 20 24 30 27 32 29 28 26 26 26 27
26 25 25 24 24 23 23 21 19 20 27 27 25 19 14 6
50 50 50 49 49 49 49 44 46 46 49 41 2 4 2 7
15 17 21 24 36 50 35 31 30 28 43 26 25 27 30 32
27 39 38 23 27 26 28 21 13 14 16 11 10 14 13 3
14 8 4 5 4 8 4 6 12 44 119 124 122 129 134 135
137 133 135 142 147 147 146 146 147 146 146 145 144 146 146 145
142 142 139 118 37 6 25 34 11 3 4 5 4 1 0 0
0 0 2 7 10 14 14 16 16 24 29 29 27 26 26 27
25 24 23 24 23 23 20 19 19 19 20 27 35 26 13 6
54 53 52 52 51 50 50 43 40 40 44 35 2 4 2 7
16 17 21 24 36 48 29 27 25 23 42 23 23 27 28 25
26 34 30 17 31 30 31 20 11 15 21 17 17 23 6 9
10 3 13 6 6 3 2 6 12 43 119 127 124 128 136 139
136 133 135 141 147 147 147 147 148 147 147 146 146 147 147 146
143 146 140 106 34 10 24 27 9 6 6 7 6 10 2 0
0 0 1 5 11 12 14 14 18 18 28 30 26 25 27 25
24 24 23 23 23 23 21 19 19 18 19 14 24 20 16 9
27 26 25 22 14 12 14 6 7 3 4 3 0 3 2 6
14 17 20 23 35 48 28 27 24 23 43 24 23 26 26 29
34 25 18 15 30 25 21 15 9 11 21 20 21 14 5 8
4 3 8 9 6 1 2 10 5 36 117 127 127 128 133 137
135 133 135 141 147 147 148 147 148 147 147 147 147 147 146 146
145 146 140 91 23 14 20 18 11 8 6 7 5 22 3 0
0 2 3 7 8 16 13 19 20 20 26 36 28 28 25 25
23 23 23 22 23 22 22 20 18 19 18 15 16 15 17 10
13 12 14 18 6 4 9 0 1 0 0 0 1 6 5 10
16 17 20 23 34 49 28 25 24 25 42 23 22 24 28 33
32 25 14 20 27 18 14 9 9 11 15 26 21 5 5 6
7 3 4 4 4 3 9 12 6 34 113 133 127 128 134 134
138 132 132 140 146 147 147 148 147 147 147 146 146 146 146 146
147 146 132 57 24 23 19 15 11 10 5 6 8 28 7 0
0 5 6 12 9 9 6 9 17 20 25 33 28 30 26 24
24 22 23 22 22 21 21 20 19 19 15 16 15 15 17 10
8 9 6 9 6 6 13 0 1 0 0 2 6 10 10 13
14 16 19 22 32 49 30 24 24 23 42 24 20 26 30 35
34 33 21 23 20 15 6 8 5 8 16 21 11 2 6 9
9 16 7 4 12 9 10 12 14 27 109 133 133 131 132 137
140 134 133 138 145 147 147 146 147 146 147 145 146 146 146 146
146 145 111 36 25 29 8 17 11 11 6 1 8 21 7 0
1 5 12 22 21 14 5 15 18 9 20 22 28 27 26 23
22 22 21 21 20 20 19 19 19 17 14 16 13 14 17 10
36 33 29 16 5 7 15 0 1 0 2 5 8 11 9 12
13 15 18 20 32 48 28 24 23 23 42 24 21 30 31 36
35 27 23 20 16 7 5 4 6 12 14 15 1 0 9 9
17 11 2 3 12 15 19 27 15 23 102 131 135 132 130 136
137 135 135 142 147 147 148 147 147 147 146 146 147 146 146 146
146 142 84 31 25 27 11 18 12 11 4 2 3 10 3 1
3 6 13 25 27 19 14 21 12 6 18 20 22 24 24 23
22 20 21 21 20 19 19 19 18 13 16 16 14 14 15 7
45 42 35 16 3 8 18 1 0 0 4 3 5 8 5 9
11 13 18 20 31 48 30 26 27 30 43 29 28 31 32 31
36 25 17 12 10 4 7 5 17 11 9 8 1 5 8 11
19 12 6 2 16 19 27 29 19 14 95 134 137 133 131 133
139 138 135 143 147 147 147 147 147 148 147 147 147 146 145 146
146 130 78 33 17 26 12 18 11 10 3 1 4 3 0 1
2 17 16 25 28 20 19 19 9 8 18 22 19 24 25 21
21 20 20 20 19 19 20 18 16 13 16 19 41 11 4 3
39 33 26 13 6 12 15 3 0 0 5 5 8 10 5 8
10 10 14 17 26 46 43 42 41 39 40 38 36 29 24 32
32 27 13 9 6 7 4 14 15 13 11 6 2 5 13 11
14 12 7 11 19 26 26 31 19 13 83 129 137 135 130 133
138 142 137 142 147 147 147 147 147 148 147 147 146 146 145 146
146 118 70 27 18 18 8 12 8 6 5 3 5 3 0 0
0 11 22 22 34 25 15 19 15 17 23 23 21 22 26 23
20 17 13 11 11 40 50 47 44 37 37 37 48 46 44 32
22 24 24 26 31 35 36 37 21 0 1 3 7 9 5 12
13 13 14 15 21 41 41 41 40 39 38 37 35 24 19 19
20 21 16 10 8 14 10 7 18 27 9 10 5 5 15 10
14 11 2 9 13 30 19 18 19 20 71 124 137 140 138 133
135 141 139 141 147 148 148 147 147 147 146 146 147 146 146 146
143 107 55 21 19 14 8 12 9 4 8 4 5 4 0 0
5 14 21 23 33 23 12 15 13 11 19 25 28 30 30 36
40 36 17 1 2 16 25 23 24 27 27 26 22 15 20 23
47 45 42 39 35 31 27 33 30 0 0 0 5 10 4 12
12 14 17 19 23 43 45 37 36 34 38 37 28 27 20 12
13 19 22 13 11 19 9 9 24 23 2 12 8 7 8 6
10 9 5 4 11 33 30 11 24 13 54 116 137 142 139 132
135 140 137 141 145 148 148 147 147 148 148 146 147 145 146 146
135 85 40 25 24 11 5 12 9 4 2 4 9 8 3 0
5 22 23 20 15 13 12 12 16 12 17 20 9 6 19 26
38 36 32 2 0 0 0 0 0 0 0 0 2 1 1 2
10 7 5 3 2 1 0 15 32 0 0 0 1 8 3 11
13 14 17 20 25 45 38 28 25 23 32 34 22 23 20 14
12 25 25 14 12 16 8 22 24 11 4 12 1 2 2 4
14 13 5 12 11 23 39 8 17 17 41 103 135 143 140 130
131 139 142 143 145 148 148 148 148 147 147 147 146 145 147 141
102 52 32 29 24 11 6 9 7 6 7 7 6 16 17 2
6 29 20 13 7 5 7 12 14 14 16 24 19 8 6 27
30 27 25 5 0 0 0 0 0 0 0 0 0 0 0 0
1 1 2 3 4 5 7 11 26 0 0 0 2 7 3 11
12 14 17 20 25 44 37 27 25 22 30 34 24 28 25 19
20 30 26 17 15 16 22 26 19 5 3 4 1 4 0 6
22 20 12 9 15 21 41 19 17 22 30 93 128 139 141 134
130 134 139 142 145 148 148 147 148 147 147 146 143 144 145 121
78 41 39 41 20 13 16 9 5 8 16 9 5 24 26 11
2 19 18 14 4 4 4 7 10 12 17 19 17 18 5 20
25 22 22 8 5 3 0 4 5 3 3 2 1 1 0 0
2 2 2 2 1 1 1 2 22 0 0 0 2 5 4 10
12 14 17 20 25 43 38 26 24 22 29 32 25 24 28 21
21 35 27 17 17 18 24 27 11 7 8 7 1 4 6 16
36 32 12 20 7 22 31 28 17 18 22 81 113 134 143 138
131 128 136 138 145 146 147 147 147 148 147 146 141 145 132 106
66 42 47 36 13 16 20 12 4 12 25 16 6 23 27 18
1 12 16 11 3 1 2 3 7 11 19 21 19 19 11 13
24 23 20 4 8 4 1 8 10 10 9 10 9 7 8 5
0 0 0 0 0 0 0 5 32 0 0 0 2 2 5 9
11 14 17 19 24 42 38 27 24 23 26 29 19 20 20 18
15 19 21 21 23 30 26 24 17 14 5 6 7 10 16 20
39 24 12 19 7 16 32 33 27 19 23 64 103 122 137 140
131 128 135 135 144 147 148 148 147 148 148 145 141 136 117 89
49 50 40 20 19 20 17 18 16 16 29 30 8 19 21 23
0 2 10 4 1 0 0 1 6 11 19 24 22 21 18 16
24 22 18 1 9 3 4 9 10 13 11 14 13 11 10 8
1 0 1 1 0 0 0 1 9 1 0 0 1 1 6 9
10 13 15 19 23 42 38 25 22 18 28 32 22 17 18 17
12 19 17 18 27 27 19 23 21 10 1 8 15 13 18 30
34 20 14 18 10 27 33 31 32 25 19 53 98 118 133 142
133 126 133 137 141 147 148 146 148 147 148 143 136 123 97 63
50 43 28 21 27 24 18 19 18 21 32 30 14 19 22 21
3 0 3 14 8 2 0 1 7 10 17 23 19 21 18 19
25 22 15 0 8 1 6 10 12 13 12 11 7 6 5 4
0 0 0 0 0 0 0 0 0 0 0 0 5 10 11 12
14 13 16 18 22 39 36 25 21 12 30 36 30 26 15 9
17 19 16 19 28 22 18 22 17 5 5 7 10 19 13 24
26 16 15 29 13 35 35 30 30 25 19 49 93 112 127 143
139 125 128 134 138 143 147 147 148 147 146 140 127 115 85 53
51 38 26 28 30 20 22 23 22 25 30 26 14 14 12 14
3 3 13 25 10 0 3 2 9 13 18 20 20 16 20 18
20 22 10 0 1 0 4 9 10 7 5 4 2 2 2 2
0 0 1 1 3 4 6 7 12 10 11 14 25 30 32 34
35 28 14 15 22 36 39 32 30 17 22 35 36 29 10 11
16 13 15 19 27 17 11 10 13 2 6 4 6 17 10 18
12 9 23 30 19 33 29 35 25 36 18 38 102 118 123 143
145 131 127 134 140 143 146 147 146 143 144 135 118 103 63 47
54 38 31 29 22 20 18 28 20 29 31 24 14 11 8 7
2 6 21 22 4 2 19 9 14 15 17 19 19 9 22 18
17 20 7 0 0 0 1 5 3 1 0 0 0 2 1 0
30 34 37 39 44 42 46 46 51 52 50 45 45 46 46 47
49 50 38 12 13 21 26 27 27 22 14 21 30 15 15 15
18 12 17 18 16 12 11 3 5 1 4 1 6 10 12 10
6 2 20 14 23 29 21 26 26 48 28 32 98 120 124 137
146 137 129 133 139 137 144 146 146 146 138 118 107 83 51 51
52 35 33 26 20 14 14 25 30 29 35 29 5 11 4 1
4 10 25 23 4 9 29 22 15 10 15 21 19 6 18 18
18 17 5 0 0 0 0 0 0 0 0 0 0 0 0 0
51 53 52 51 54 52 51 51 51 52 52 50 47 50 51 50
52 52 52 28 3 10 19 24 23 21 16 17 16 16 15 15
16 13 13 15 10 10 11 7 3 6 0 8 11 19 29 22
7 1 13 9 11 23 21 22 21 39 27 26 79 129 125 128
145 145 134 134 140 144 145 146 146 143 123 111 104 80 53 53
38 35 30 23 19 14 8 20 26 38 37 26 2 3 4 1
2 13 23 22 12 14 37 33 11 8 12 20 19 10 11 19
18 17 6 0 0 0 0 0 0 0 0 0 0 0 0 0
46 47 48 50 53 55 49 53 58 58 56 58 44 50 55 57
56 56 53 52 32 31 40 39 34 27 22 17 14 16 14 15
13 9 8 10 8 12 12 8 11 2 2 12 19 26 42 36
17 4 12 17 9 12 20 25 22 28 34 24 62 134 136 131
138 146 142 138 141 145 145 146 145 138 127 118 101 84 60 51
34 33 34 28 21 13 11 10 16 37 24 18 2 0 9 10
4 5 17 23 15 11 23 12 11 7 10 20 19 12 6 19
14 19 12 0 0 0 0 0 0 0 0 0 0 0 0 0
53 51 57 53 64 58 63 57 49 59 58 59 62 50 61 65
64 57 50 41 26 19 18 18 21 22 21 16 17 15 13 15
15 3 1 4 3 11 12 9 0 0 0 12 28 32 41 44
13 2 3 19 22 10 11 14 18 21 29 33 45 114 141 136
136 146 145 143 144 146 146 146 144 134 133 116 102 80 63 52
37 31 36 32 14 12 6 8 17 31 20 11 4 3 19 25
11 3 14 26 19 3 7 11 10 4 9 19 19 15 4 20
15 20 18 5 0 0 0 0 0 0 0 0 0 0 0 0
63 58 63 58 61 58 60 58 55 57 56 55 54 52 50 38
23 15 14 15 17 19 20 21 22 22 16 17 17 16 15 20
18 7 3 3 7 11 9 3 2 2 5 11 24 28 33 33
9 1 2 10 19 13 14 10 15 17 14 29 38 95 135 137
131 140 147 146 146 146 146 147 141 138 133 120 97 69 50 37
38 29 41 23 12 19 7 9 11 29 32 2 1 7 37 45
25 4 6 21 24 5 10 14 8 3 6 20 20 16 3 19
16 18 19 11 1 0 0 0 0 0 0 0 0 0 0 0
47 47 46 45 44 42 40 39 36 33 31 29 27 25 16 10
11 12 14 14 15 17 18 19 20 18 16 18 15 17 14 20
16 13 6 16 11 7 11 11 2 0 0 8 8 16 19 22
9 9 11 17 18 20 15 5 9 11 9 21 44 86 127 141
140 140 146 147 147 147 147 145 141 136 130 118 83 54 29 31
27 22 37 27 16 14 11 12 4 26 40 2 0 10 34 37
19 2 3 12 19 16 15 15 8 0 7 19 18 15 3 19
15 18 21 17 6 0 0 0 0 0 0 0 0 0 0 0
17 14 11 10 8 7 5 3 2 1 0 0 0 7 10 11
13 12 13 14 15 15 17 19 20 16 19 18 13 18 16 23
15 18 11 17 13 13 12 10 4 2 1 5 0 4 16 15
8 5 3 15 25 17 6 5 6 13 14 38 68 106 135 148
147 146 147 147 147 147 146 146 144 141 139 116 63 34 33 55
35 31 38 33 17 20 21 16 4 29 43 10 2 10 21 16
4 0 1 2 11 24 30 23 9 0 8 17 19 16 3 18
16 16 23 19 12 2 0 0 0 0 0 0 0 0 0 0
0 0 0 0 0 0 0 0 0 0 0 0 7 9 10 11
11 12 13 14 15 15 17 19 17 19 19 17 14 20 18 24
14 21 13 19 15 13 13 12 5 6 1 0 2 2 5 12
8 1 2 13 18 11 5 6 19 42 51 77 96 130 149 149
148 147 149 148 149 148 147 147 147 146 138 103 48 40 49 56
25 29 30 25 20 23 30 18 8 19 39 26 10 10 5 5
2 0 1 1 5 15 23 19 9 0 9 14 19 13 4 21
17 18 24 21 17 10 0 0 0 0 0 0 0 0 0 0
0 0 0 0 0 0 0 0 0 0 0 4 9 8 11 11
11 11 12 13 14 16 18 19 19 22 20 16 16 21 21 24
11 21 14 19 17 13 14 14 6 7 3 0 0 1 4 2
0 6 9 19 17 11 5 10 22 65 88 110 120 144 150 147
139 149 148 149 148 148 148 148 148 146 128 86 49 36 40 18
12 16 17 12 17 15 21 21 14 20 17 24 16 13 11 0
0 0 7 6 2 7 21 18 10 0 10 14 17 8 4 21
17 15 25 23 20 14 4 0 0 0 0 0 0 0 0 0
0 0 0 0 0 0 0 0 0 0 2 8 7 10 10 10
11 12 13 13 14 16 18 18 21 21 19 16 15 21 25 23
9 21 18 19 19 14 14 16 8 7 8 3 9 0 3 4
3 5 5 13 25 21 13 13 14 35 105 137 145 150 150 149
149 149 149 149 149 150 148 148 148 140 112 75 74 57 16 8
13 12 9 7 5 6 8 15 13 13 8 16 14 13 10 2
1 9 17 10 0 6 22 20 11 0 14 14 16 4 6 21
18 17 24 24 21 16 10 0 0 0 0 0 0 0 0 0
0 0 0 1 1 1 0 0 0 1 5 7 9 9 10 11
11 11 12 14 14 15 17 21 22 21 20 16 16 23 26 24
9 20 21 21 22 18 14 19 12 15 18 16 14 4 11 15
10 6 7 10 17 19 23 14 4 28 47 130 152 150 150 150
150 150 150 149 150 150 150 149 149 139 106 79 72 27 7 10
14 17 9 8 5 4 10 11 2 7 9 19 18 9 4 8
12 20 20 12 0 8 24 21 12 3 19 13 19 5 9 21
18 17 24 24 23 17 13 3 0 0 0 0 0 0 0 0
0 0 0 0 0 0 0 0 0 0 6 6 9 10 10 10
10 12 12 12 13 16 19 23 23 20 18 15 16 23 26 23
7 18 23 22 26 23 19 20 22 23 25 22 21 9 9 18
18 18 13 12 15 17 15 11 15 39 29 40 110 150 150 151
150 151 149 151 150 150 150 150 150 142 111 69 23 12 10 11
12 13 14 13 8 8 12 3 0 3 11 15 16 4 10 17
22 22 22 15 1 9 25 22 13 8 20 11 16 6 11 22
19 18 23 24 23 20 15 10 0 0 0 0 0 0 0 0
0 0 0 0 0 0 0 0 0 0 6 6 9 9 9 9
10 10 12 11 13 16 23 23 21 21 18 14 17 23 27 22
6 15 24 22 28 27 23 21 25 25 28 26 27 18 11 19
19 20 19 23 27 25 23 23 28 26 40 24 32 67 127 151
150 150 150 150 150 150 150 150 149 132 65 29 21 18 19 15
11 13 18 19 11 13 8 2 0 8 16 16 17 9 11 18
22 23 24 19 7 12 25 23 13 8 18 10 11 5 14 21
18 18 23 23 22 22 16 12 4 0 0 0 0 0 0 0
0 0 0 0 0 0 0 1 0 1 5 7 8 9 8 9
10 10 11 12 14 19 22 22 21 19 17 12 17 23 25 21
5 13 25 21 28 29 25 19 27 25 28 26 26 23 21 26
23 21 29 27 26 28 28 28 29 30 38 27 28 29 36 74
123 149 150 150 150 150 149 128 96 40 31 27 27 26 24 22
19 19 21 21 17 19 6 8 16 19 23 22 22 11 10 23
25 24 25 24 12 13 25 24 13 9 16 8 5 6 16 22
18 18 22 21 23 23 16 12 12 8 6 5 3 2 2 1
0 0 0 0 0 0 0 0 0 1 4 7 8 8 8 9
9 9 10 11 15 20 21 22 20 18 15 13 17 24 26 22
4 12 27 22 28 28 25 18 24 26 27 27 26 24 24 29
26 23 28 29 24 26 28 29 30 29 29 38 27 28 29 30
36 43 68 93 106 100 59 35 61 28 29 28 31 30 29 29
28 26 25 23 22 22 10 16 23 29 27 23 21 17 21 28
27 25 27 27 15 14 24 24 14 10 12 6 1 6 19 23
17 18 22 22 21 24 19 12 11 10 9 9 9 9 9 8
0 0 0 0 0 0 0 0 0 1 4 7 8 7 8 8
9 9 10 12 18 22 21 21 20 17 13 13 18 24 24 17
4 10 25 21 29 28 27 19 23 25 28 26 25 23 22 29
27 21 26 29 24 22 25 28 29 28 29 35 30 28 28 28
31 35 35 35 35 30 32 36 65 28 29 31 31 28 30 29
30 28 26 28 22 28 22 22 26 29 27 23 21 24 25 28
28 25 26 27 16 15 24 26 14 11 15 5 1 7 21 24
18 17 22 22 19 23 20 13 9 10 8 7 6 7 9 12
0 0 0 0 0 0 0 0 0 1 3 7 8 8 9 9
9 10 11 14 21 22 21 21 20 17 12 13 19 25 23 14
4 8 25 22 27 27 27 17 21 25 27 27 24 24 22 28
29 23 24 28 27 23 22 21 28 28 29 28 37 28 28 29
30 31 34 35 33 28 30 36 43 27 29 31 30 30 30 30
29 24 29 23 25 29 25 22 27 28 27 24 22 25 26 27
26 26 26 28 16 16 23 26 17 10 17 5 1 8 21 24
18 18 21 22 19 20 22 15 10 10 10 7 6 7 9 13
0 0 0 0 0 0 0 0 0 1 4 7 7 8 8 9
9 9 11 17 20 21 22 21 19 14 11 12 20 26 23 15
3 7 26 23 25 27 26 17 18 25 25 28 26 24 21 27
30 24 22 27 26 25 22 22 22 27 29 31 37 34 30 28
29 31 33 34 30 26 29 36 33 29 30 29 30 31 30 29
25 28 27 19 26 28 24 21 30 28 27 24 21 22 27 28
27 26 26 28 16 15 24 26 19 8 19 5 2 9 21 23
18 17 20 21 20 18 22 16 11 10 9 8 7 7 10 15
0 0 0 0 0 0 0 0 0 1 3 7 7 7 8 8
9 9 13 18 20 20 21 20 19 11 11 13 20 26 23 15
3 5 24 26 24 28 27 18 19 24 26 28 25 25 22 24
28 26 21 27 27 26 21 18 23 21 25 28 28 39 29 29
30 31 34 34 33 28 29 43 29 29 30 30 30 29 27 25
30 28 26 18 27 28 24 21 29 28 27 25 23 21 27 28
28 25 26 28 17 14 24 26 20 7 20 5 4 10 21 22
17 17 20 21 20 19 22 20 14 11 9 8 6 7 11 17
0 0 0 0 0 0 0 0 0 1 4 6 7 7 8 8
8 11 15 20 20 19 20 21 17 11 12 15 22 26 22 14
3 5 22 26 24 29 29 20 18 21 26 28 25 24 21 24
26 27 21 23 26 27 25 18 18 24 24 23 27 33 38 31
31 31 30 30 31 29 28 40 28 29 30 30 30 27 29 31
27 29 23 20 28 26 23 23 28 28 26 25 23 20 25 28
27 26 25 28 19 15 22 27 22 9 16 3 5 11 21 22
17 17 19 21 20 19 20 22 16 12 15 12 6 8 11 18
0 0 0 0 0 0 0 0 0 0 4 7 7 7 8 8
9 13 17 19 19 20 20 19 15 10 11 16 23 25 21 13
3 5 20 25 25 28 29 21 17 20 25 27 26 24 21 24
28 28 23 21 28 28 28 23 18 17 21 25 24 23 39 31
31 30 30 29 30 30 27 45 27 28 28 26 26 32 30 28
27 27 18 24 28 26 22 26 31 29 26 25 23 20 27 28
28 26 24 28 19 16 22 26 23 13 10 2 3 11 20 22
18 17 19 21 19 20 20 23 19 15 15 14 8 8 13 19
0 0 0 0 0 0 0 0 0 0 4 6 7 7 8 8
10 17 19 19 20 20 19 17 11 9 12 16 23 25 19 12
2 3 17 26 24 25 26 22 16 20 24 26 25 23 21 24
28 29 26 24 26 27 30 26 24 18 16 19 24 28 27 33
22 25 28 28 27 27 26 40 23 25 28 32 32 29 28 27
28 25 17 24 27 26 20 28 30 28 26 24 24 20 26 27
27 26 24 28 19 14 20 24 23 17 8 1 2 13 21 23
17 17 19 19 19 18 20 18 21 17 15 15 11 10 15 19
0 0 0 0 0 0 0 0 0 1 4 6 7 7 8 8
14 19 19 18 19 19 19 14 9 10 14 17 23 24 20 13
3 3 14 26 25 27 28 23 16 19 24 26 24 23 21 25
26 28 26 21 23 27 30 28 26 22 18 18 20 24 28 38
32 29 27 25 25 26 25 33 28 31 32 30 29 26 27 27
27 22 19 26 27 25 20 28 28 28 25 24 23 22 25 27
26 25 23 27 21 15 20 25 22 19 9 0 2 13 21 22
18 16 19 19 17 18 19 19 23 17 14 14 13 11 17 20
0 0 0 0 0 0 0 0 0 0 4 6 6 7 8 10
17 19 18 19 18 19 20 14 9 11 14 17 23 25 19 11
2 2 12 26 25 26 27 24 16 19 24 26 23 23 21 23
26 27 27 22 21 26 27 27 27 24 22 18 17 20 24 28
38 30 31 31 31 30 34 33 29 29 29 29 29 26 26 27
28 18 21 26 27 22 20 28 28 29 26 24 23 22 25 27
25 25 22 26 21 15 20 24 23 19 9 0 1 13 22 22
19 16 19 19 14 16 20 17 22 19 15 14 14 12 17 21
0 0 0 0 0 0 0 0 0 1 4 6 6 6 9 14
20 20 19 19 18 18 19 12 10 11 14 18 23 23 19 11
2 1 10 25 26 23 27 24 16 19 23 26 25 22 20 21
26 28 28 24 23 26 27 27 27 26 25 21 16 17 23 27
37 29 29 29 30 30 39 29 29 28 29 28 25 25 26 27
27 15 22 27 27 22 22 29 29 29 27 23 24 23 25 25
26 25 22 25 22 15 20 23 22 19 11 0 2 15 22 22
18 16 19 18 11 16 20 18 22 20 15 14 13 15 18 19
