P2
128 120
156
20 12 0 0 0 0 0 0 1 3 44 58 52 63 60 11
0 0 0 0 0 0 0 0 8 69 71 63 29 31 31 31
32 27 3 2 7 10 10 11 20 14 23 15 9 5 15 23
20 22 45 59 4 0 5 17 21 11 7 3 44 66 61 8
14 33 23 33 40 48 53 59 43 48 51 53 51 55 56 55
53 21 19 25 40 40 38 38 37 35 42 47 45 43 40 39
38 38 36 32 30 29 28 27 26 26 26 25 29 36 34 31
30 30 30 24 20 20 20 19 18 18 17 17 17 18 19 22
20 13 0 0 0 0 0 0 0 0 28 67 55 64 62 12
0 0 0 0 0 0 0 0 8 70 72 65 31 35 36 35
32 27 9 0 0 7 18 10 2 0 2 5 4 3 3 8
11 8 44 60 5 13 13 25 57 29 1 7 46 65 62 6
8 12 0 0 4 8 2 48 47 50 53 54 54 57 57 56
57 25 19 28 45 42 42 40 38 37 42 49 46 43 41 42
43 45 39 39 38 37 33 30 28 27 26 27 28 23 20 23
29 31 32 26 22 21 20 20 19 20 19 19 19 19 20 24
2 1 0 0 0 0 0 0 0 0 17 71 61 65 65 11
0 0 0 0 0 0 0 0 8 71 73 66 28 14 30 25
7 2 0 2 5 6 31 18 16 7 13 5 0 2 1 0
7 10 44 63 6 22 27 35 49 44 29 0 43 69 64 7
0 7 5 0 16 22 11 51 46 50 52 51 55 56 57 57
56 29 20 29 48 45 43 43 43 42 44 25 27 38 43 45
46 46 40 20 22 31 35 37 34 35 35 30 29 17 9 6
4 7 11 25 22 22 21 21 21 20 20 19 20 20 21 25
5 2 0 0 0 0 0 0 8 23 44 72 65 67 68 11
0 0 0 0 0 0 0 0 10 72 75 70 30 0 5 3
6 2 3 3 6 9 24 27 20 9 11 8 3 6 0 0
1 4 48 66 8 21 30 46 48 23 40 5 39 70 68 12
0 9 1 1 30 25 17 53 38 21 33 41 52 56 57 55
55 30 22 29 48 45 36 36 44 48 51 8 0 3 19 25
26 31 42 6 0 0 1 9 14 22 31 33 31 19 4 4
6 4 0 21 24 23 23 23 22 21 21 21 22 22 22 27
13 2 1 5 16 26 43 59 69 72 73 73 67 68 69 30
15 10 6 4 2 1 1 1 10 72 75 72 46 18 0 5
5 2 9 6 12 3 8 23 33 21 19 12 12 4 8 5
6 9 52 68 10 4 20 39 45 32 25 0 35 71 70 15
2 12 3 1 23 21 17 52 34 0 6 9 12 14 24 21
49 32 23 27 45 48 48 45 44 50 53 12 0 1 10 14
15 14 40 6 0 0 0 0 0 0 0 2 31 18 2 2
0 3 0 22 24 23 23 23 22 22 22 22 21 22 22 27
53 44 54 53 51 47 50 64 72 73 73 75 66 57 64 66
67 68 52 61 60 57 54 51 50 74 75 74 49 16 2 0
0 2 4 3 3 15 16 25 42 24 26 27 15 3 10 12
6 7 53 68 14 0 0 5 15 6 0 0 32 72 71 18
1 8 1 3 6 1 4 52 35 1 1 0 0 0 0 0
38 35 22 18 2 9 18 30 40 48 51 16 0 0 8 6
11 9 38 12 1 0 0 0 0 0 0 0 30 16 0 0
0 1 0 21 25 24 23 23 23 22 22 22 22 23 22 27
66 58 58 59 59 65 69 71 72 73 74 74 68 55 63 66
58 56 63 68 68 67 61 59 54 35 40 48 46 11 0 0
0 1 3 7 4 28 30 31 31 32 23 39 11 0 1 3
7 2 40 64 15 0 0 0 0 0 0 0 30 71 72 21
0 5 4 10 11 0 2 51 32 7 7 1 3 0 0 3
38 35 21 17 0 0 0 0 0 2 14 18 0 0 1 1
2 6 34 8 0 0 0 0 0 0 0 0 30 10 0 0
0 0 0 21 26 24 23 22 22 22 21 21 21 22 22 27
56 71 70 69 69 69 72 72 69 61 39 26 39 24 14 20
37 38 50 56 59 58 62 60 50 17 23 40 50 14 0 0
0 0 0 0 0 35 38 38 44 29 22 31 8 0 2 8
8 8 42 65 18 0 0 0 0 0 0 0 27 73 74 27
0 14 29 26 25 0 2 51 33 8 11 8 27 4 0 0
37 35 22 16 0 0 0 0 0 0 4 17 0 0 0 0
0 5 37 9 0 0 0 5 7 0 0 0 28 10 0 0
0 0 0 21 26 24 23 23 22 22 22 21 21 22 22 27
54 69 66 65 63 60 53 34 39 43 16 19 39 15 1 5
5 7 20 26 23 2 10 35 37 54 53 53 48 7 0 0
0 2 6 5 1 14 16 27 54 7 10 11 6 2 3 6
9 11 48 66 33 16 12 11 9 6 4 5 26 73 74 34
6 7 4 13 20 10 3 50 34 8 11 2 24 17 0 0
36 34 22 17 0 0 0 0 0 0 2 15 0 0 0 0
0 5 40 12 0 0 0 6 12 7 4 0 26 11 0 0
0 0 0 17 27 23 23 23 22 21 22 21 21 22 22 27
58 48 45 52 53 56 58 58 56 52 39 37 49 13 0 0
0 0 1 10 3 4 19 30 64 65 59 44 24 0 0 7
7 0 9 4 10 7 1 8 42 0 0 3 7 6 9 9
2 7 43 66 69 67 64 63 60 59 57 55 59 68 70 36
8 9 19 14 4 2 1 48 32 6 11 4 10 7 0 0
36 34 21 18 0 0 0 10 5 0 1 14 0 1 0 0
0 2 36 15 0 0 0 7 12 10 9 1 23 13 0 0
0 0 0 15 28 23 24 23 22 22 22 21 22 23 22 27
34 34 38 42 47 52 52 54 55 59 60 45 65 12 0 1
0 0 1 4 0 5 8 25 72 70 64 9 6 0 2 20
6 5 7 4 7 3 6 12 50 4 1 5 2 0 0 0
0 0 39 73 72 68 67 60 61 58 53 46 35 30 35 3
0 3 12 15 9 7 1 47 30 3 8 8 2 5 0 0
36 35 22 19 2 10 7 10 6 0 0 13 0 3 0 0
0 6 35 17 0 0 0 6 11 10 9 1 21 16 0 0
0 0 0 12 30 23 23 23 22 22 22 21 22 22 22 27
5 5 9 4 1 1 1 3 4 22 64 67 66 22 1 1
0 0 0 1 0 3 3 27 76 72 66 12 6 0 0 0
1 8 4 4 7 7 5 3 53 8 3 2 2 0 0 0
0 0 47 75 32 11 17 23 28 39 48 55 61 49 50 41
33 29 22 22 11 4 4 47 30 1 7 11 1 0 0 0
37 34 22 18 5 15 4 8 3 0 0 15 1 0 0 0
0 13 35 20 0 2 1 0 4 9 9 0 19 34 25 16
10 5 3 12 30 24 24 23 22 22 21 21 22 23 23 27
1 0 0 0 0 7 23 10 0 18 66 67 67 28 35 52
20 8 0 0 1 0 1 31 77 71 66 13 13 15 15 19
25 20 13 4 2 0 9 11 54 4 11 4 9 4 0 0
1 0 43 76 30 0 0 0 3 2 2 4 32 59 56 56
61 58 58 64 62 59 54 52 47 21 15 19 19 14 10 6
39 34 23 19 9 7 0 0 4 1 1 23 4 2 5 1
0 7 37 39 27 19 13 6 0 0 4 0 16 36 37 34
34 37 38 39 30 23 24 23 23 22 22 21 22 23 23 27
0 0 0 0 0 14 44 24 2 17 68 69 69 49 45 43
47 11 3 13 38 8 0 30 74 68 64 12 0 0 1 9
9 9 29 27 33 38 42 31 58 23 19 13 12 7 4 0
0 4 50 73 39 8 1 11 8 4 0 4 26 70 60 19
20 28 36 40 43 47 55 50 69 56 37 48 46 53 50 47
48 31 22 19 2 0 0 0 0 0 1 45 49 37 33 30
22 12 37 42 22 25 30 32 32 27 25 21 30 40 36 35
34 38 41 42 32 23 23 23 22 22 22 21 22 23 22 26
0 0 0 0 0 12 37 26 5 16 69 69 69 44 11 30
30 6 23 28 52 28 4 32 73 68 64 12 2 0 0 9
11 11 48 44 40 55 59 54 42 5 10 16 25 25 22 11
8 15 53 72 39 11 1 4 12 32 17 9 28 66 60 29
24 22 26 26 21 11 34 64 63 48 38 50 57 57 55 56
56 32 22 20 1 0 0 0 0 0 1 46 54 41 47 48
53 49 51 37 11 13 13 12 12 12 14 19 25 23 20 27
29 33 34 36 32 23 24 23 22 22 23 22 22 23 22 27
0 0 0 0 0 9 32 27 9 16 71 71 69 16 0 1
11 19 17 22 37 14 0 32 73 69 67 13 2 0 2 7
8 20 49 47 46 60 65 61 48 1 0 0 13 28 32 14
11 35 64 69 40 25 39 10 33 22 12 7 29 62 50 18
16 14 9 14 15 13 25 49 54 38 41 52 56 57 56 59
58 31 22 22 15 7 2 0 0 0 1 47 44 44 50 51
55 49 40 31 13 13 12 12 10 8 7 6 5 4 5 6
10 25 23 17 20 24 24 24 23 23 22 21 22 23 22 26
0 2 1 0 9 3 28 35 29 17 71 71 68 8 8 35
13 8 16 9 2 3 1 33 74 69 67 14 1 1 6 2
2 15 41 40 46 70 76 67 52 2 0 0 2 16 21 12
23 39 70 70 33 42 42 26 25 25 20 5 19 27 13 10
5 7 6 5 10 11 15 10 18 20 19 27 31 36 37 41
53 32 23 25 47 53 49 39 29 22 16 45 34 43 49 50
53 52 44 36 16 15 12 10 7 7 6 6 5 5 6 5
8 25 17 23 22 24 24 23 23 22 23 22 22 24 22 27
0 10 9 5 12 8 23 36 41 18 71 70 67 8 4 11
0 0 0 0 0 0 1 35 75 71 69 15 2 12 8 0
4 14 24 35 48 74 78 72 60 3 0 2 19 21 19 19
23 48 73 72 24 24 15 5 19 41 24 11 11 20 16 10
8 7 10 6 14 18 17 11 12 13 9 9 11 10 7 11
35 33 22 25 47 55 54 53 52 52 53 50 20 28 38 42
48 48 43 39 18 14 12 7 7 5 7 7 8 7 8 8
13 25 6 14 29 26 26 16 18 24 22 22 22 24 22 25
0 0 0 7 12 5 16 21 23 18 71 70 66 7 0 0
0 1 1 0 0 0 0 34 75 71 69 16 0 0 8 0
7 9 0 22 46 74 75 71 61 4 0 4 35 56 52 63
62 61 71 73 51 37 31 30 25 16 10 9 8 10 20 9
9 8 10 7 16 15 15 17 11 13 10 12 17 11 12 13
31 35 22 23 47 57 56 54 54 52 54 47 3 0 1 4
8 16 19 41 18 12 9 0 0 0 2 10 9 4 6 10
13 29 35 32 33 32 31 13 10 24 22 22 23 21 16 23
0 0 0 8 26 7 2 6 2 17 72 71 66 7 1 0
0 0 0 0 0 0 0 36 74 70 69 17 0 2 8 3
11 16 6 23 40 70 71 69 62 4 0 2 14 54 33 60
59 12 38 72 65 50 34 55 21 4 8 8 10 7 15 14
9 7 14 10 16 17 18 18 8 13 10 13 11 11 20 24
32 38 26 25 39 46 47 47 49 50 54 44 2 0 0 0
0 7 17 42 17 10 9 1 0 0 0 0 0 0 0 0
2 29 33 19 21 18 25 29 28 23 23 22 23 11 3 21
0 0 0 9 46 13 0 0 0 19 75 69 68 61 60 55
48 42 34 28 24 18 14 42 72 69 69 17 0 4 5 1
3 8 7 10 30 69 69 68 61 5 0 3 41 52 40 48
40 7 18 67 60 47 16 35 10 8 7 5 13 7 11 17
12 10 17 16 21 24 28 27 12 16 11 14 10 15 15 19
28 36 30 29 32 32 35 37 36 37 47 42 1 0 0 0
4 0 8 45 15 11 5 0 0 3 2 0 0 0 0 0
0 27 35 20 17 23 20 21 24 23 23 23 23 16 7 22
1 0 0 17 42 19 0 0 0 18 59 48 61 72 79 77
73 69 66 65 71 70 69 71 71 68 67 19 0 0 0 0
1 0 1 0 28 68 69 69 61 5 0 1 30 65 62 43
42 12 10 62 53 37 13 13 8 8 8 9 12 11 17 21
20 23 22 29 37 47 49 43 26 27 21 15 14 16 12 11
23 32 28 27 27 25 27 36 34 35 48 42 0 0 0 0
1 0 4 45 6 3 0 0 0 5 7 2 0 0 0 0
0 27 37 17 12 26 22 18 22 23 22 23 23 23 15 24
53 5 0 23 36 21 0 0 0 13 41 54 61 67 81 79
77 76 72 71 74 73 73 73 71 67 65 18 26 28 27 26
25 24 23 14 35 67 69 72 70 49 49 45 23 30 57 65
61 42 16 50 42 28 13 5 6 10 14 15 19 25 32 34
36 44 40 49 60 71 77 74 56 49 37 28 19 17 13 14
17 24 24 26 26 31 34 38 38 43 47 41 1 0 0 0
0 0 5 45 2 0 0 0 0 0 7 9 2 0 0 0
0 26 38 17 7 14 11 17 21 23 22 23 23 22 19 21
66 22 0 24 30 20 0 0 5 33 42 55 63 74 73 71
70 67 67 71 69 72 75 75 75 74 73 54 67 68 68 72
69 58 60 63 67 68 72 74 67 60 70 65 57 26 10 30
42 32 9 17 23 20 9 6 5 8 17 30 46 56 68 69
64 73 77 76 91 100 101 102 97 83 68 53 38 25 17 11
11 18 25 26 12 2 5 8 13 19 24 33 1 0 0 0
0 0 7 44 3 0 0 0 0 3 7 11 8 3 0 0
0 25 38 20 9 14 13 14 21 23 23 23 24 22 20 20
56 56 34 44 45 34 22 15 25 40 44 55 60 66 63 67
71 68 70 54 33 39 52 61 64 65 71 73 59 72 74 79
65 56 60 67 74 68 75 77 75 74 69 42 56 71 34 1
0 0 6 13 14 11 5 5 10 23 46 73 96 104 103 106
104 104 109 113 118 123 123 120 117 111 102 90 70 47 27 20
14 16 19 27 13 0 0 4 2 0 0 20 1 0 0 0
0 0 6 41 0 0 0 0 0 15 15 14 8 4 0 0
0 23 38 23 16 10 5 12 20 23 23 23 23 23 19 18
33 74 64 63 62 72 73 56 11 4 11 15 14 16 18 15
16 17 61 44 3 5 0 16 35 11 52 74 78 72 69 74
63 62 66 72 78 81 81 82 79 78 73 29 49 75 65 19
10 3 13 16 11 8 8 13 31 63 88 111 125 131 135 130
128 127 131 134 138 139 138 137 136 131 126 115 96 71 45 30
18 12 13 20 17 1 0 2 0 0 0 19 1 0 1 13
4 0 6 39 0 0 0 0 0 6 12 12 0 0 0 0
0 21 39 24 16 4 3 6 19 23 23 23 23 22 17 19
11 71 38 18 21 27 32 31 1 0 2 0 0 1 2 0
1 2 56 51 7 21 1 12 31 9 51 73 79 70 66 65
62 66 70 76 80 83 81 83 81 81 77 26 36 76 51 11
13 10 14 12 7 11 19 38 62 92 119 132 139 142 142 141
142 140 140 140 141 141 141 140 140 138 133 127 111 91 71 54
30 16 13 14 18 3 2 12 7 1 0 18 2 0 11 20
10 0 6 38 0 0 0 0 0 0 4 9 0 0 0 0
0 18 39 24 8 1 0 4 19 24 23 23 23 22 16 22
0 56 49 1 1 0 2 22 0 0 0 1 0 1 5 0
5 3 52 59 13 27 4 11 27 39 60 75 77 23 10 24
52 49 55 61 65 68 69 73 73 76 78 32 25 75 58 9
12 14 11 11 12 17 37 67 89 108 129 141 143 142 142 141
142 142 142 141 142 142 140 141 140 140 140 138 120 104 90 68
45 28 15 12 16 7 8 22 15 7 0 17 4 0 15 16
14 3 5 37 0 4 0 0 0 0 4 13 0 0 0 0
0 15 39 19 3 4 0 6 17 23 24 24 24 22 17 24
1 32 67 17 5 1 16 25 0 0 0 1 1 1 5 0
1 6 48 64 2 1 23 36 33 70 70 77 77 18 1 18
43 9 8 10 14 15 15 15 15 18 59 45 22 74 68 49
30 17 11 8 11 22 56 82 103 121 136 142 141 141 142 142
143 143 142 143 142 142 142 142 141 141 142 141 133 115 99 84
56 35 20 14 12 10 16 24 17 11 0 19 40 33 39 35
33 28 26 39 0 0 0 0 0 0 3 14 0 0 0 0
0 12 39 14 0 1 0 13 17 23 24 24 24 21 19 25
32 31 72 39 20 5 16 22 0 0 3 12 6 0 2 0
0 5 48 66 2 0 13 45 36 69 71 76 76 18 0 11
46 10 6 9 7 15 13 6 10 8 52 67 37 72 68 63
45 18 13 11 17 31 66 98 116 128 140 142 143 142 143 143
142 143 143 142 143 142 143 141 142 141 142 141 140 127 111 93
68 43 28 14 13 11 14 10 7 5 0 18 45 43 48 46
46 50 53 44 6 3 6 0 0 0 5 16 0 0 0 0
0 5 38 12 0 0 0 3 17 23 24 24 23 20 21 25
40 43 72 51 18 4 16 22 1 2 9 9 0 0 0 0
0 0 33 71 11 11 9 15 34 60 67 77 76 18 0 8
50 9 2 11 3 14 17 8 17 18 51 70 33 66 65 58
47 25 11 11 17 39 78 105 121 131 141 143 142 143 142 143
143 143 142 142 143 141 142 141 141 142 142 141 141 133 121 103
84 62 40 19 15 10 11 10 5 2 0 17 47 45 47 45
45 53 55 50 32 30 30 24 20 20 19 21 13 11 8 7
7 11 32 17 7 5 8 0 9 23 24 24 24 17 22 26
38 45 67 69 18 0 17 30 13 13 18 21 0 0 0 0
0 0 26 76 12 7 4 6 23 48 65 77 76 21 0 8
55 10 10 12 6 11 16 14 25 24 52 75 27 63 65 58
51 34 13 14 24 54 87 115 128 138 142 143 142 142 143 143
144 143 142 143 142 142 142 142 143 142 142 142 142 141 128 110
92 78 55 33 16 7 10 13 5 2 0 14 40 39 41 41
41 46 46 45 35 35 35 34 32 33 32 30 27 23 21 18
17 20 32 29 19 17 11 7 8 22 25 25 24 17 23 27
21 35 44 72 28 0 18 31 14 22 36 25 0 10 14 3
2 5 25 78 12 0 0 2 8 44 63 78 76 21 1 6
55 9 31 7 11 10 13 8 17 16 40 74 11 53 60 59
46 17 11 11 30 64 100 120 133 141 143 143 143 143 143 143
143 142 142 143 142 142 142 143 143 142 142 142 142 142 137 114
93 77 65 34 13 6 14 14 7 1 0 16 44 38 40 39
39 36 31 31 35 37 37 37 33 34 33 33 32 33 33 30
26 25 32 41 39 37 36 32 26 22 24 24 23 18 23 26
17 24 43 65 52 1 22 31 15 22 33 26 0 4 8 8
8 7 32 80 18 0 0 1 11 47 58 75 74 19 1 3
52 8 28 4 5 5 6 6 10 36 40 72 14 5 7 15
14 7 7 17 41 80 112 126 135 140 143 143 143 143 143 144
142 143 143 143 143 143 143 143 142 142 143 143 142 142 141 134
109 86 68 31 14 6 17 17 10 2 0 16 47 37 38 37
37 36 36 39 40 38 41 44 45 37 34 34 32 40 42 40
35 36 34 28 25 25 25 26 26 23 25 24 24 21 21 27
19 24 39 60 67 10 24 33 14 24 31 28 0 1 8 3
0 7 35 80 26 0 3 4 16 24 55 74 73 16 0 0
51 13 18 3 5 5 8 13 12 37 41 72 19 1 2 9
10 4 8 25 51 92 120 130 136 142 143 143 143 144 143 143
143 142 143 143 142 143 143 142 143 142 143 142 142 141 141 141
127 102 64 31 17 15 25 37 41 47 45 45 50 40 41 40
39 41 42 45 44 39 43 46 50 37 34 30 31 41 43 39
37 36 35 29 20 16 15 15 15 23 25 23 24 19 22 27
41 57 40 46 71 31 22 35 14 22 26 29 1 1 18 2
0 12 26 78 42 12 18 6 17 18 56 73 71 15 0 0
47 26 5 2 1 3 4 3 2 24 30 66 29 3 8 11
8 3 8 29 56 98 122 132 137 142 143 143 143 144 144 143
142 143 143 143 142 142 143 142 143 142 143 142 142 142 142 141
129 110 71 36 21 22 30 45 54 56 58 57 54 44 38 40
38 39 45 48 47 40 42 45 40 38 36 31 26 35 38 37
36 38 36 33 28 23 21 20 22 23 25 24 23 16 25 27
69 73 64 71 72 53 23 37 15 22 25 28 1 0 0 0
0 2 10 74 45 4 6 3 10 3 53 71 69 12 0 0
42 38 2 1 5 24 24 15 1 6 11 59 36 6 13 10
6 3 8 33 64 102 122 133 138 143 142 143 143 143 144 144
143 143 143 143 142 143 143 143 142 143 143 142 142 142 141 141
133 113 75 44 17 14 24 45 54 57 58 58 55 18 22 14
13 15 20 31 49 41 35 17 22 26 23 24 30 28 7 2
4 9 13 18 31 26 25 27 28 29 30 25 23 17 25 27
73 75 72 71 71 62 29 37 8 11 9 7 3 4 7 11
16 22 31 76 54 0 4 1 6 4 56 72 68 9 0 0
36 32 2 2 5 25 29 19 1 5 6 48 52 25 13 8
5 6 18 37 69 106 125 132 139 142 143 143 143 143 144 143
143 142 142 142 142 142 143 143 143 143 143 143 142 142 141 141
135 113 76 43 19 12 15 32 33 34 34 35 41 8 0 0
0 0 0 8 47 40 15 0 0 1 6 11 32 30 3 0
0 0 4 12 26 19 22 24 28 31 34 27 22 18 25 26
73 71 69 66 48 13 19 63 51 57 60 64 67 72 75 78
82 83 84 84 68 25 29 27 24 23 63 72 69 7 0 0
25 38 1 1 1 17 25 15 2 4 6 42 61 36 9 8
6 10 18 39 77 111 125 131 138 142 142 143 143 143 143 142
143 142 142 141 142 141 142 142 142 142 142 142 141 141 141 140
136 115 77 42 19 12 12 39 39 37 36 35 37 13 7 0
0 0 4 13 46 31 1 0 0 0 0 11 34 31 4 0
0 0 2 10 16 0 0 0 0 2 32 27 22 19 25 26
71 67 56 23 1 0 15 79 79 80 81 82 84 84 85 84
85 85 85 85 80 59 72 73 73 73 75 59 58 26 13 12
25 54 14 14 13 14 15 16 16 17 16 38 55 20 6 6
4 8 24 49 91 115 125 130 139 142 142 143 142 143 142 143
142 142 141 141 142 142 142 142 141 142 142 142 141 141 140 140
137 117 86 50 27 13 7 38 43 43 42 42 40 13 6 0
0 0 3 19 44 23 0 0 0 0 0 7 34 31 5 0
0 0 0 7 18 0 5 5 0 0 30 28 20 20 25 26
67 50 23 18 16 15 26 80 82 81 83 84 85 85 85 85
84 84 83 82 72 34 39 41 43 46 66 68 75 70 71 68
59 81 80 73 77 79 75 68 62 71 67 66 51 10 7 4
4 11 37 69 104 119 124 129 136 142 142 141 142 142 142 142
142 141 141 142 141 142 142 142 141 142 141 141 141 141 140 141
136 124 99 57 43 18 6 39 43 44 44 44 43 12 6 0
0 3 5 4 41 16 0 0 0 0 0 7 34 29 5 0
0 0 0 7 19 0 2 3 0 0 27 28 19 22 24 26
60 63 70 70 69 66 65 81 83 82 81 79 77 73 69 64
47 26 19 13 7 0 2 0 2 6 55 74 79 70 76 73
62 80 88 82 83 85 79 81 74 73 72 44 17 8 8 3
4 17 34 73 93 99 106 111 126 138 142 141 142 142 142 142
142 142 142 142 142 142 142 142 142 142 142 141 141 141 141 140
136 126 111 79 51 18 5 20 28 28 31 40 48 14 0 0
0 3 9 2 41 14 0 0 0 0 0 6 35 26 5 0
0 0 0 3 23 0 1 1 0 0 27 29 18 22 25 26
67 63 60 58 59 60 61 64 60 48 62 62 62 61 57 57
31 0 0 0 0 6 15 2 3 7 54 76 81 82 78 73
63 74 91 88 88 85 74 77 70 72 49 26 5 7 8 7
31 56 63 63 62 64 57 45 39 42 51 64 82 116 142 142
143 142 143 142 143 142 142 142 139 136 136 131 119 110 108 110
110 109 109 91 54 25 4 26 37 34 30 24 52 27 8 0
0 4 6 0 40 13 0 0 0 0 0 6 37 27 6 0
0 0 0 3 26 0 1 2 0 0 27 28 19 24 26 27
68 64 56 60 63 52 63 64 62 60 62 63 63 62 58 58
31 0 0 0 0 10 22 4 4 8 54 76 79 77 76 70
62 56 63 62 61 61 58 58 54 49 28 12 6 5 11 11
90 117 80 59 46 22 14 10 8 9 10 16 19 28 70 131
143 143 143 143 143 142 142 120 68 39 31 26 26 28 33 42
53 57 58 56 44 29 9 29 41 41 40 25 52 25 4 0
0 3 8 3 39 13 0 0 0 0 0 2 37 27 9 0
0 0 0 1 29 0 0 0 0 0 26 29 19 26 26 28
55 54 54 54 54 53 55 55 55 55 56 60 63 62 60 59
31 0 0 0 0 0 3 3 5 10 54 78 77 64 61 53
44 40 47 43 46 46 40 34 51 35 22 9 4 3 13 10
87 56 44 27 18 10 11 7 5 4 4 8 13 12 16 46
125 145 143 144 144 140 87 29 17 16 15 15 13 10 11 13
18 21 35 69 122 111 31 26 39 39 40 27 51 14 0 0
0 0 0 1 40 15 0 0 0 0 0 0 36 27 7 0
0 0 0 0 32 1 0 0 0 0 24 28 20 25 26 28
54 54 53 53 53 52 52 52 51 50 49 49 47 60 62 61
32 0 0 0 0 2 5 5 7 12 52 78 76 58 20 7
0 0 14 25 30 26 12 12 40 30 21 8 3 2 11 10
58 33 22 28 42 32 20 9 6 6 8 7 9 9 9 17
56 131 145 144 139 74 22 13 11 10 14 13 12 8 9 10
11 17 32 26 49 127 34 19 34 40 40 27 45 11 0 0
0 0 3 0 37 19 0 0 0 0 0 0 36 28 10 0
0 0 0 0 34 2 0 0 0 0 25 26 20 25 26 28
55 54 54 53 52 52 52 51 50 50 48 14 0 44 66 63
33 0 0 0 3 6 17 27 9 15 52 78 75 56 18 3
1 4 8 20 28 8 3 16 31 24 16 4 0 1 5 18
48 21 21 53 83 61 26 18 11 9 10 7 6 3 1 8
43 65 106 111 73 31 16 6 6 8 11 9 11 9 10 16
20 29 41 50 33 63 11 15 33 43 41 28 40 15 5 3
3 4 15 3 33 33 15 15 16 17 15 16 40 29 31 32
32 32 35 36 41 10 5 4 3 2 25 25 20 26 26 28
43 43 44 45 45 45 46 46 47 49 48 13 0 33 63 62
33 0 0 3 34 23 33 46 12 14 51 79 77 54 23 13
14 17 19 10 29 12 8 20 24 25 24 2 2 6 2 13
52 16 34 88 143 115 49 24 18 10 4 2 0 0 0 7
56 54 66 61 56 49 14 3 4 5 7 7 9 12 12 17
27 53 104 110 59 51 8 11 31 42 39 26 38 40 40 34
34 36 36 36 35 44 53 48 47 48 50 49 49 33 31 37
39 41 45 48 47 31 28 27 27 27 28 24 20 25 26 28
1 2 2 3 4 5 6 9 15 47 49 15 0 24 61 56
43 21 21 30 57 50 61 65 31 19 50 77 74 53 30 21
24 23 15 13 31 13 13 18 20 16 23 1 4 9 0 8
50 15 46 120 153 139 45 18 12 5 0 0 0 0 0 9
58 46 45 48 59 62 12 3 1 1 1 1 3 8 12 15
26 86 151 149 81 51 9 12 30 35 38 27 36 44 42 37
39 39 33 26 29 37 53 51 49 46 49 50 49 38 26 35
37 40 47 48 48 29 26 25 24 24 24 24 23 22 26 25
0 0 0 0 0 0 0 0 3 47 50 16 0 21 60 50
50 51 55 45 55 62 68 69 64 62 66 73 72 51 29 20
26 19 3 9 26 17 16 16 17 5 7 1 13 12 14 55
44 15 33 90 139 102 23 12 6 2 0 0 0 0 0 14
50 56 110 101 46 53 8 1 0 0 0 0 1 4 9 14
21 80 150 148 77 49 13 16 26 36 38 30 36 42 36 34
38 38 36 28 27 30 31 34 33 32 31 30 31 32 23 25
29 29 27 23 24 26 27 27 27 27 25 25 24 23 23 23
0 0 0 0 0 0 0 0 3 47 50 18 1 20 60 54
55 56 60 54 61 65 71 71 69 68 68 72 71 51 28 18
23 14 6 10 23 23 16 16 15 2 6 4 8 9 53 112
45 13 27 45 56 34 20 11 7 3 0 0 0 0 0 25
43 105 143 144 81 51 10 1 0 0 0 0 0 1 4 10
19 46 86 88 41 54 17 15 22 33 35 31 33 35 28 31
29 34 37 30 28 31 21 24 23 24 24 23 24 27 28 29
31 31 30 26 24 26 28 27 27 26 26 25 25 25 27 28
0 0 0 0 0 0 0 0 2 46 49 18 2 18 58 57
53 49 61 59 60 67 74 74 73 71 67 72 71 51 23 2
3 7 8 18 19 23 16 20 16 4 6 7 6 8 42 114
43 11 22 32 34 24 18 8 6 4 1 0 0 0 0 37
48 121 142 143 114 46 18 1 0 0 0 0 0 0 1 5
16 35 37 36 35 50 22 38 31 33 34 33 37 34 10 10
12 14 16 14 18 32 26 29 27 34 36 33 32 35 36 37
42 42 37 28 26 26 27 27 27 26 26 25 25 24 26 27
0 0 0 0 0 0 0 0 2 47 50 19 1 16 55 57
56 45 47 44 53 67 74 76 74 73 66 74 71 50 17 0
0 0 4 19 26 29 17 12 7 12 16 11 5 9 28 71
51 9 18 24 22 12 8 4 3 2 1 0 0 0 4 43
72 126 144 142 130 53 31 0 0 0 0 0 0 0 2 3
15 28 30 27 32 43 59 83 49 36 36 26 39 34 3 0
0 0 1 6 16 32 35 44 35 46 53 34 20 22 23 25
30 40 40 29 28 27 27 27 26 26 25 25 25 24 26 27
0 0 0 0 0 0 0 0 1 46 50 21 2 9 51 42
34 36 44 46 40 38 41 48 64 73 67 76 72 50 17 6
3 3 5 20 31 31 19 11 8 17 13 9 6 14 26 56
52 13 14 18 15 9 6 2 1 0 0 0 0 0 25 42
108 128 143 143 137 79 41 2 0 0 0 0 0 0 1 3
13 27 26 24 32 41 56 85 47 34 36 28 27 37 1 0
0 0 0 0 20 30 35 43 26 35 44 20 0 0 0 0
1 31 41 29 28 27 27 27 26 26 26 25 25 24 25 26
0 0 0 0 0 0 0 0 1 47 51 32 27 1 43 28
6 13 26 29 25 19 9 16 29 71 72 76 73 59 31 14
18 2 3 16 28 32 19 15 10 8 7 5 7 23 28 67
61 24 12 15 14 10 7 1 0 0 0 0 0 3 46 72
120 133 144 144 138 112 42 16 0 0 0 0 0 0 1 3
10 23 25 23 34 37 45 88 40 31 36 29 29 38 3 0
0 0 0 0 19 28 31 41 6 1 16 22 0 0 0 0
0 26 41 29 29 28 27 27 27 26 26 25 25 25 25 27
0 0 0 0 0 0 0 0 0 46 50 37 22 0 37 27
0 0 0 4 7 4 11 21 42 74 74 73 71 65 44 14
13 2 5 16 23 25 23 14 11 7 4 2 13 19 30 75
90 23 12 15 16 18 10 1 0 0 0 0 0 33 48 121
125 134 143 144 141 137 69 40 1 0 0 0 0 0 0 3
12 19 24 23 36 46 61 102 27 28 31 27 25 18 2 0
0 0 0 0 21 27 33 41 7 1 15 24 0 0 0 0
0 21 40 29 28 27 27 27 26 26 25 24 24 24 26 26
0 0 0 0 0 0 0 0 0 45 51 26 0 0 33 29
0 0 0 5 12 0 0 1 14 71 73 73 71 71 46 2
7 4 10 17 18 23 21 14 11 3 3 0 9 12 15 79
106 42 19 13 13 11 8 1 0 0 0 0 17 43 102 136
127 130 142 140 135 136 121 41 26 0 0 0 0 0 0 4
12 18 23 24 45 89 107 100 18 26 25 26 20 15 7 0
0 0 0 0 22 26 33 41 7 0 13 27 0 0 0 0
0 16 40 28 28 28 27 26 26 25 24 24 24 23 24 26
0 0 0 0 0 0 0 0 0 44 50 24 0 0 29 33
0 0 0 0 11 0 0 0 6 69 66 64 64 68 55 31
36 41 40 35 28 24 18 17 5 2 0 0 11 14 6 75
125 76 55 26 14 11 9 1 0 0 2 15 36 86 133 135
129 131 139 134 131 131 137 83 39 13 0 0 0 0 0 6
11 16 21 30 78 101 130 82 8 25 26 27 22 12 12 0
0 0 1 0 24 25 33 41 6 1 12 27 0 0 0 0
0 14 39 28 27 27 27 27 26 25 25 24 24 24 25 25
0 0 0 0 0 0 0 0 0 43 51 26 3 5 31 39
0 0 0 7 16 1 0 0 5 67 59 50 52 65 67 67
67 66 54 42 28 22 20 12 4 2 2 0 9 14 3 57
131 85 100 82 51 27 21 16 13 17 28 55 105 134 127 133
134 139 143 143 142 134 133 137 67 32 16 2 1 0 0 9
12 18 26 67 92 108 136 61 6 15 22 24 23 10 7 4
0 1 2 0 19 26 33 41 6 1 11 27 2 0 0 0
0 12 39 28 27 27 27 26 26 26 25 24 24 24 25 26
0 0 0 0 0 0 0 0 0 43 51 45 44 48 54 45
5 0 0 3 12 0 8 7 4 63 24 1 9 47 67 67
67 66 46 40 29 22 16 8 8 5 2 0 9 11 1 47
123 91 98 119 124 103 77 74 85 108 128 137 131 124 129 127
137 143 143 143 143 138 136 134 135 97 60 38 27 20 18 19
21 40 84 104 88 114 135 31 5 7 17 22 22 9 6 9
0 3 7 0 17 28 34 42 17 4 10 28 4 2 1 1
0 11 39 27 27 27 26 26 25 25 24 24 24 23 23 24
0 0 0 0 0 0 0 0 0 41 51 50 53 55 57 50
5 0 0 0 1 0 15 21 8 63 18 0 0 38 67 67
70 58 39 33 26 20 18 7 15 14 7 3 8 3 1 35
125 104 97 118 126 129 133 143 144 144 139 123 121 127 126 122
115 126 141 141 129 124 136 133 127 135 141 136 118 95 81 81
108 125 120 104 97 118 123 9 5 2 14 22 22 13 10 10
0 3 14 9 15 31 35 40 17 14 9 26 1 8 8 1
0 9 37 26 27 26 25 26 24 25 24 24 23 23 23 23
0 0 0 0 0 0 0 0 0 40 51 51 54 56 59 53
9 4 1 0 0 0 4 13 26 64 34 21 20 33 38 40
50 46 35 32 20 18 10 8 16 11 7 1 7 0 0 15
116 124 98 114 124 129 140 145 145 144 133 118 121 132 121 96
70 113 125 126 90 92 137 133 125 132 143 142 143 142 142 139
134 124 118 101 101 113 105 7 3 0 10 24 25 19 15 18
11 14 22 22 21 38 36 40 12 25 9 25 1 7 7 2
0 9 33 26 27 26 26 25 25 24 25 25 24 24 23 21
0 0 0 0 0 0 0 0 0 40 50 44 43 53 50 47
33 33 36 20 24 25 29 35 43 60 46 41 51 44 42 41
41 37 35 27 19 17 3 3 12 11 8 9 4 1 2 5
96 126 101 113 123 130 142 145 145 144 133 117 128 137 124 100
124 123 110 119 116 76 126 137 135 132 143 144 143 143 143 142
135 126 117 101 120 130 83 10 1 1 8 23 27 32 37 44
42 44 46 46 48 47 37 39 3 25 12 31 23 24 23 22
21 21 22 24 26 26 26 25 24 25 25 24 23 23 22 21
0 0 0 0 0 0 0 0 0 39 51 44 34 32 24 23
26 25 38 60 72 74 74 74 75 76 76 76 76 75 74 70
60 49 35 31 25 10 4 1 15 10 8 10 1 3 1 1
66 104 95 111 122 131 140 145 145 144 139 126 138 137 133 126
132 133 121 134 143 127 129 143 142 141 143 144 143 142 142 142
135 127 116 110 137 123 60 8 0 2 10 23 30 36 43 49
49 47 48 48 50 53 42 39 1 8 10 31 21 23 23 22
22 22 23 26 27 26 26 25 24 24 24 24 24 23 22 21
0 0 0 0 0 0 0 0 0 38 52 42 29 20 12 12
18 25 26 29 46 71 81 81 81 81 81 79 79 78 74 63
60 45 33 25 26 14 4 3 8 8 4 7 2 3 3 0
25 117 103 109 120 127 137 145 145 145 144 141 141 136 138 136
143 144 143 143 143 136 141 143 142 143 143 143 143 143 143 142
137 126 112 107 129 127 36 8 2 3 11 26 28 32 37 40
41 38 36 35 33 32 35 37 1 4 7 32 25 28 28 27
27 26 26 26 26 25 26 25 25 24 24 24 23 23 23 22
0 0 0 0 0 0 0 0 0 38 52 38 13 19 23 25
23 24 29 33 35 39 62 73 64 58 55 52 55 59 56 49
45 40 29 27 23 14 4 2 9 7 9 11 5 3 3 2
3 69 104 105 117 123 133 142 145 145 145 141 136 136 142 142
144 144 144 144 143 143 143 143 144 143 144 143 143 143 142 142
137 125 114 109 121 117 15 13 17 5 11 26 21 20 20 16
18 18 13 13 13 10 26 37 1 3 6 32 25 29 29 28
28 28 28 27 26 26 26 25 26 25 24 24 24 23 23 21
0 0 0 0 0 0 0 0 0 36 51 35 3 7 13 28
23 17 21 28 34 38 52 57 55 55 56 55 54 54 50 43
36 31 22 30 18 9 3 2 11 5 2 10 7 4 1 3
0 7 64 105 116 121 131 140 145 144 138 132 129 134 142 144
144 144 144 144 143 143 143 143 143 143 143 144 143 143 143 141
137 124 114 131 132 51 9 15 19 4 14 24 17 20 20 18
17 19 15 14 14 11 27 37 3 1 5 32 25 29 29 28
27 26 27 26 25 25 25 25 24 25 24 23 23 22 21 20
0 0 0 0 0 0 0 0 0 33 51 36 0 0 0 13
18 20 22 22 29 35 33 34 36 38 35 35 35 34 33 34
31 28 23 27 12 6 2 3 9 2 0 3 5 3 2 0
0 6 48 101 113 120 127 139 144 138 130 126 122 118 116 121
130 137 142 141 143 143 143 142 142 142 142 142 143 143 142 140
134 121 114 112 68 5 5 13 6 10 19 21 21 24 20 21
21 19 17 15 14 12 29 38 21 32 36 37 22 27 28 27
26 26 25 26 24 25 24 24 23 22 23 22 22 20 18 18
0 0 0 0 0 0 0 0 0 29 49 38 1 0 3 9
17 18 21 24 32 50 41 36 35 34 41 35 30 31 31 35
27 25 30 26 9 4 3 3 6 0 0 5 7 3 2 0
0 4 40 102 113 117 124 140 144 131 121 114 94 84 85 87
104 98 102 101 110 124 138 141 141 141 141 142 142 142 141 139
129 119 107 22 4 6 1 3 4 18 24 18 17 21 20 22
22 22 24 19 17 12 30 37 31 44 45 36 21 26 26 26
25 24 24 25 23 23 24 23 23 22 22 22 21 20 18 17
0 0 0 0 0 0 0 0 0 28 49 38 2 0 6 7
16 17 20 22 30 48 32 28 24 21 37 28 22 27 33 30
28 26 24 21 10 5 4 1 7 0 6 7 8 6 1 0
0 2 24 98 112 117 126 139 142 128 109 92 69 85 135 138
142 139 126 133 128 100 97 120 137 141 141 142 141 141 141 136
125 121 92 11 3 10 3 0 4 18 25 19 19 19 19 22
24 22 23 21 17 11 20 24 18 21 24 23 23 25 24 25
24 24 24 23 23 23 22 22 22 21 21 20 20 18 17 14
0 0 0 0 0 0 0 0 0 27 48 39 2 2 6 6
15 17 19 22 29 48 30 27 24 21 36 28 23 24 34 29
24 21 18 15 6 6 2 1 3 0 3 2 8 2 4 2
0 2 13 94 112 119 127 140 143 135 128 106 45 85 136 140
142 142 140 143 142 135 107 86 112 126 141 142 142 142 141 134
130 119 76 8 8 16 5 2 5 15 25 22 21 21 16 19
25 22 22 21 16 15 21 24 23 19 23 23 24 25 25 25
25 24 24 23 22 23 22 22 21 22 21 20 19 18 17 14
0 0 0 0 0 0 0 0 0 26 48 39 1 4 5 6
15 17 20 22 29 48 31 26 23 19 36 29 19 23 32 25
23 25 16 11 4 5 0 1 2 2 1 1 6 5 3 1
1 1 6 86 112 121 129 141 144 134 129 128 115 114 117 129
135 141 137 141 140 120 69 59 105 122 141 142 141 140 140 135
126 113 58 7 8 12 4 4 10 7 14 22 18 22 16 16
20 24 23 20 17 16 21 24 24 22 23 24 24 25 25 25
25 24 23 23 22 22 22 22 21 20 21 20 19 18 16 17
1 1 1 2 3 3 4 5 5 31 48 40 2 5 3 6
15 17 20 22 29 49 32 26 22 18 35 28 21 26 28 22
28 30 19 7 2 0 0 1 7 5 0 2 4 10 3 0
1 0 3 65 111 119 129 143 144 137 132 129 124 130 124 129
131 139 138 137 137 131 122 126 140 141 141 142 142 142 140 136
129 112 42 9 6 7 5 12 3 4 5 14 16 19 17 17
19 21 25 20 17 17 22 25 24 22 23 23 24 24 25 24
23 23 23 23 22 22 22 21 21 21 21 20 19 19 15 20
48 48 48 48 48 48 48 48 48 48 47 41 3 4 2 5
14 16 19 21 29 48 33 26 22 17 30 27 24 24 25 20
28 29 20 2 0 3 0 4 3 1 2 3 5 8 3 0
4 1 2 33 107 115 128 141 144 139 134 131 129 129 138 142
141 139 139 140 142 140 139 138 141 141 141 142 141 141 140 134
124 89 26 10 2 1 5 7 4 4 0 6 13 14 21 16
17 23 21 20 18 18 22 25 24 23 24 22 24 24 24 24
23 23 23 22 22 21 22 20 20 20 20 18 18 16 16 20
52 51 51 50 49 49 49 48 47 46 47 41 4 3 1 5
13 16 19 22 28 48 30 24 21 22 30 26 25 23 25 26
26 26 22 4 2 5 1 9 2 8 10 7 8 10 6 0
4 0 3 8 88 114 123 136 143 138 137 130 131 133 135 142
143 142 142 143 143 142 141 139 141 142 142 142 142 141 139 131
118 56 18 5 1 0 3 5 13 4 0 0 8 11 17 19
21 22 20 20 18 19 23 25 26 24 24 24 24 24 24 23
24 23 23 22 22 21 22 20 20 20 18 10 12 12 18 19
52 52 51 51 51 50 49 49 48 43 47 41 4 3 0 2
12 14 18 20 27 47 39 35 34 34 33 28 30 21 30 29
25 23 20 8 4 8 2 7 3 7 7 9 12 10 6 4
3 1 1 2 46 108 119 127 141 140 137 135 131 133 140 131
126 126 130 138 141 142 140 139 142 142 142 141 142 140 136 125
100 29 19 6 3 1 6 8 13 1 0 0 3 10 14 22
22 23 23 20 19 20 24 25 24 25 24 23 23 24 24 23
23 23 22 21 21 21 21 19 17 19 19 14 8 11 15 18
52 52 51 50 50 50 49 48 49 48 47 42 5 4 2 3
10 12 15 17 22 41 42 40 40 36 33 31 28 22 26 29
25 19 12 7 13 16 7 9 6 4 8 9 9 8 8 7
5 1 2 0 7 79 114 125 136 141 139 139 139 135 140 141
139 138 136 138 141 140 141 143 143 142 142 142 141 136 129 116
58 22 21 4 5 4 12 27 13 2 2 4 6 8 12 18
23 27 25 23 21 23 25 26 25 25 25 23 24 23 23 23
23 23 22 21 22 22 21 18 17 18 22 23 18 19 23 28
43 42 41 41 40 39 39 38 38 38 38 29 1 3 1 4
13 16 18 20 28 43 40 39 40 36 29 36 27 21 25 31
29 16 13 22 16 10 9 3 1 4 6 8 9 6 5 8
4 0 0 0 0 22 97 118 128 138 139 143 144 143 144 144
143 144 143 143 143 143 143 142 142 142 142 142 138 125 117 88
22 20 15 7 10 1 13 24 12 3 4 9 12 10 13 19
23 27 20 26 25 28 27 25 25 25 25 23 23 24 23 23
22 22 22 21 21 20 20 17 17 17 25 24 22 17 12 4
47 46 46 46 47 46 46 41 44 43 46 39 2 3 1 5
14 15 19 21 33 47 32 29 28 25 31 28 24 24 22 31
24 19 22 21 12 10 9 2 1 7 5 7 6 2 1 8
5 3 3 0 1 6 43 101 119 132 135 141 144 144 143 144
144 144 144 144 144 143 143 143 142 142 142 140 128 117 101 51
18 19 13 7 13 1 7 11 6 4 5 12 20 21 18 22
20 21 19 25 28 26 27 25 25 24 25 25 23 23 23 23
22 21 22 21 21 20 18 16 17 16 16 24 32 23 10 4
50 50 49 48 47 47 46 40 37 38 41 33 2 3 1 5
14 15 19 21 33 46 27 25 23 24 35 24 21 22 25 35
33 26 28 7 12 14 5 2 0 1 3 4 0 0 2 7
9 2 2 4 2 10 20 75 102 120 130 136 143 144 144 144
144 144 144 144 143 143 143 142 142 142 139 126 115 98 105 46
20 20 12 12 14 1 8 12 10 0 4 19 28 38 29 24
23 23 25 27 27 27 27 25 25 24 24 24 24 23 22 22
22 21 21 20 20 20 18 16 16 16 16 11 21 18 13 7
24 23 22 20 13 11 11 5 6 3 3 2 0 2 1 5
13 15 18 21 32 46 25 25 24 24 35 26 23 17 26 32
38 30 13 5 21 23 8 1 0 0 3 2 1 0 3 15
15 2 3 3 8 7 18 72 99 98 118 127 139 144 145 145
145 144 144 144 143 143 143 142 141 137 123 108 93 109 105 35
18 13 15 16 15 2 10 25 9 1 10 24 34 39 28 23
25 25 27 26 27 26 26 25 24 24 24 24 24 22 22 22
21 20 20 20 20 19 19 17 16 16 16 13 14 13 15 9
12 11 13 17 5 3 8 0 1 0 0 0 0 4 3 9
13 15 17 20 32 46 27 24 24 28 34 27 23 22 28 32
35 28 12 13 33 34 9 0 0 1 5 4 0 3 7 9
13 5 4 2 10 10 12 61 110 100 94 116 126 142 145 145
144 145 144 144 144 143 142 139 132 118 98 88 109 122 100 24
18 11 18 17 11 0 8 12 7 4 21 28 34 26 21 19
24 21 24 29 21 22 23 23 23 24 25 24 24 23 22 22
21 21 20 20 19 19 18 18 16 16 13 14 14 13 15 9
8 8 5 8 5 5 11 0 1 0 0 1 5 9 8 12
13 15 17 20 31 46 28 24 23 24 30 27 19 18 26 32
31 20 16 20 35 37 15 2 1 4 6 7 0 5 6 10
14 4 4 4 12 11 6 46 108 118 103 93 110 129 143 145
144 145 145 144 144 141 129 124 104 88 91 108 124 128 97 21
18 15 16 15 8 0 3 2 4 6 19 30 25 20 16 20
19 24 26 31 20 18 19 19 21 24 24 24 23 23 22 22
21 21 20 20 19 19 18 18 16 15 13 14 10 13 16 8
34 31 26 14 5 7 14 0 0 0 1 5 7 10 7 11
13 14 17 20 31 46 27 24 23 24 30 24 21 18 17 21
23 21 22 30 29 46 18 1 3 7 13 11 7 5 4 9
10 4 3 5 19 20 9 35 103 122 118 107 94 103 126 140
144 144 144 142 137 122 110 93 91 98 109 122 133 129 89 15
16 15 13 14 5 2 5 5 2 9 15 20 16 20 14 18
21 18 24 25 21 18 17 18 21 24 24 23 23 22 21 21
20 19 19 19 18 17 18 17 16 11 15 14 12 12 13 6
43 40 33 15 4 7 16 1 0 0 3 3 4 8 5 8
11 13 17 20 30 46 29 26 25 25 31 20 19 14 10 17
24 27 20 36 24 26 23 6 10 7 14 15 10 5 2 0
6 15 2 5 14 17 11 27 91 124 122 117 111 102 95 101
117 125 125 116 100 89 90 98 104 110 124 135 138 128 67 16
14 11 12 8 2 6 12 8 2 17 33 14 18 28 10 8
8 11 19 22 19 17 18 19 20 24 24 23 22 22 22 20
19 18 18 18 18 18 19 17 14 12 15 18 38 10 3 2
38 32 25 12 5 12 13 3 0 0 4 3 7 9 4 8
9 10 13 16 26 44 41 38 37 35 32 28 21 17 14 12
21 25 14 27 24 15 21 11 16 8 12 24 8 1 1 2
5 11 12 3 6 7 8 24 79 123 126 122 119 114 109 97
86 83 79 76 85 97 109 113 118 126 137 141 140 125 46 14
10 8 10 3 5 10 16 10 7 29 29 17 29 30 6 0
3 1 12 22 18 21 18 20 21 24 24 23 23 24 24 22
20 15 11 10 9 38 48 44 43 35 35 35 45 43 41 31
21 22 22 25 29 32 34 35 21 0 1 3 6 9 5 11
12 13 13 14 21 40 40 39 36 35 31 32 27 16 19 21
10 14 5 19 27 15 24 7 15 12 9 17 7 1 0 6
9 13 6 6 16 8 9 21 62 121 128 122 122 121 119 116
111 109 110 110 113 119 123 126 129 136 140 141 136 104 27 16
9 4 9 4 8 11 20 11 15 26 16 23 35 21 6 1
2 2 8 20 20 19 16 20 23 36 39 40 41 42 42 41
38 35 16 1 2 15 23 22 23 25 26 24 19 13 19 20
44 43 39 36 34 29 25 32 29 0 0 0 4 9 4 11
12 14 17 19 22 42 43 37 35 32 34 35 25 17 12 14
4 2 3 13 23 14 23 8 20 14 13 13 5 4 1 6
16 20 8 0 9 7 10 11 44 112 128 128 128 123 124 124
124 126 129 133 137 138 137 136 137 136 142 142 127 65 24 15
11 12 6 9 12 18 28 19 17 11 8 18 23 14 13 2
2 4 8 19 20 21 18 20 21 26 41 41 40 39 38 37
36 35 31 2 0 0 0 0 0 0 0 0 1 1 1 1
9 6 5 3 1 1 0 14 31 0 0 0 1 8 4 11
12 14 16 18 23 43 37 26 24 22 28 36 28 20 14 9
4 5 18 14 23 13 24 7 22 19 11 11 8 7 9 17
19 15 7 0 3 2 12 10 36 88 123 126 126 123 122 126
130 138 143 143 144 143 141 138 133 138 141 139 108 56 24 21
9 15 8 11 22 23 32 34 12 8 10 10 11 14 20 8
12 12 9 17 18 20 19 22 21 21 24 34 33 32 30 30
28 25 24 5 0 0 0 0 0 0 0 0 0 0 0 0
1 1 2 3 4 5 5 11 25 0 0 0 1 8 4 10
11 14 17 19 24 43 36 26 24 22 26 33 29 20 12 11
10 14 24 14 33 20 17 11 17 18 17 11 7 8 13 18
18 16 7 4 4 4 17 12 32 76 106 123 124 121 122 122
128 136 142 143 142 142 138 135 135 137 140 133 92 49 31 23
17 18 9 15 32 35 28 29 13 14 20 12 6 9 24 24
30 18 8 15 19 23 22 23 23 22 21 22 28 26 25 24
22 21 20 6 5 3 0 3 4 3 2 1 1 0 0 0
2 2 1 1 1 1 1 3 21 0 0 0 2 5 4 10
11 13 16 19 24 42 36 25 23 22 28 30 22 17 9 15
21 11 24 18 28 15 9 17 18 18 15 11 0 8 4 2
15 14 9 8 9 15 21 16 30 82 100 111 121 120 118 122
125 126 128 131 132 138 140 135 132 134 140 116 78 46 28 20
24 18 15 17 33 37 24 17 14 24 12 5 4 3 15 14
10 4 10 18 22 24 23 25 23 24 23 18 25 25 23 23
22 21 18 3 7 3 0 6 8 9 8 8 7 7 6 3
0 0 0 0 0 0 0 5 30 0 0 0 1 2 5 9
10 14 16 18 23 40 37 26 23 23 27 24 15 15 3 8
20 10 19 22 17 11 3 16 22 18 19 11 2 4 8 5
24 19 17 15 16 24 22 19 26 81 105 106 116 121 118 120
125 131 133 133 137 139 138 134 135 139 129 97 60 45 29 22
28 19 17 24 29 27 22 23 15 16 2 0 5 0 4 8
9 3 15 23 23 25 25 25 25 24 24 18 17 25 24 23
22 20 17 1 8 2 3 8 8 12 10 13 12 10 9 6
0 0 1 0 0 0 0 1 9 1 0 0 1 0 6 8
10 13 15 17 21 39 36 24 20 17 21 13 11 9 0 2
13 7 21 20 11 6 3 21 27 21 21 6 5 2 12 8
20 16 23 21 23 27 24 26 29 71 103 111 108 122 117 119
125 132 136 137 139 138 136 134 139 135 112 82 67 39 31 25
28 22 16 30 26 16 21 30 12 11 0 3 2 0 4 8
12 0 15 21 24 24 26 27 26 24 26 20 18 20 25 23
23 21 13 0 6 1 6 10 11 12 11 10 7 5 4 4
0 0 0 0 0 0 0 0 0 0 0 0 4 9 10 11
12 12 15 17 21 38 35 23 21 14 13 11 11 4 0 6
11 8 18 15 8 2 11 22 25 27 18 4 8 4 11 8
15 16 27 18 35 29 23 23 36 48 97 114 110 118 121 120
124 130 137 138 139 141 141 138 139 123 98 77 57 40 31 27
23 24 16 20 23 13 20 39 9 5 1 10 14 8 11 10
7 0 14 19 22 25 26 27 26 24 25 21 19 16 23 23
22 20 9 0 1 0 3 7 9 6 5 4 1 2 1 1
0 0 1 1 2 3 5 7 11 9 11 14 24 28 31 32
33 27 13 14 20 34 38 30 28 14 10 11 11 10 5 12
15 12 15 6 2 2 13 18 20 25 13 4 13 6 14 11
16 16 24 12 31 35 23 17 28 31 91 110 115 114 116 117
126 136 140 142 143 143 140 138 134 107 80 60 51 38 33 25
25 23 25 19 20 15 14 32 2 1 4 25 30 19 15 10
6 0 16 19 18 24 25 26 25 23 22 23 18 19 16 24
21 19 6 0 0 0 1 4 3 1 0 0 0 1 1 0
29 33 35 38 42 39 44 44 49 50 48 43 43 44 44 46
47 48 36 11 12 20 25 26 20 11 12 13 13 12 10 13
16 13 3 0 3 4 12 12 16 20 5 4 16 10 24 17
19 18 15 12 19 28 22 17 22 28 69 112 114 115 118 117
120 128 136 139 140 139 137 136 114 87 70 60 42 28 32 21
29 27 30 25 22 18 12 20 2 3 16 23 26 28 19 12
7 0 17 16 16 22 24 27 26 23 15 24 15 20 16 20
22 18 4 0 0 0 0 0 0 0 0 0 0 0 0 0
50 52 50 50 53 50 49 50 49 50 50 48 44 48 49 48
49 50 49 26 2 9 19 20 13 14 16 14 14 16 14 16
18 15 11 6 8 4 9 7 20 10 1 10 14 9 20 21
34 26 12 14 15 19 19 19 21 23 49 96 112 117 117 119
119 121 128 133 133 136 138 126 100 83 73 59 36 29 28 22
33 24 26 25 15 10 8 8 1 15 22 20 17 21 19 14
5 0 16 16 16 21 23 27 27 24 13 21 17 20 20 15
21 17 1 0 0 0 0 0 0 0 0 0 0 0 0 0
44 44 46 48 50 52 46 51 56 56 54 56 43 48 53 55
53 55 51 50 31 31 35 14 17 18 17 15 14 22 18 17
20 16 10 12 13 9 9 13 16 3 2 5 9 7 13 31
42 34 13 10 11 14 14 17 23 21 38 83 103 115 116 118
120 122 126 130 133 134 134 119 104 79 75 52 37 35 33 21
22 36 24 17 9 3 7 8 9 10 17 14 8 16 18 16
6 0 17 17 16 20 22 25 26 24 14 17 18 17 22 16
17 16 0 0 0 0 0 0 0 0 0 0 0 0 0 0
52 49 55 51 61 55 60 55 47 57 56 56 59 48 59 63
61 55 49 42 27 20 14 15 19 19 16 14 19 22 20 12
19 17 13 11 15 15 10 4 7 2 1 3 1 1 5 32
37 32 6 9 10 14 14 11 14 17 33 70 92 113 118 120
125 125 127 132 136 137 132 116 98 84 66 50 48 36 32 25
12 31 29 19 5 2 15 16 8 5 19 11 5 14 18 16
5 0 19 17 17 19 20 24 26 23 12 14 19 16 23 20
14 11 0 0 0 0 0 0 0 0 0 0 0 0 0 0
63 57 61 57 59 56 57 56 54 55 54 53 52 51 49 38
26 20 20 20 23 20 12 15 19 18 17 14 21 19 20 12
20 18 15 16 19 20 9 2 9 2 0 2 0 0 5 21
21 19 9 8 10 10 18 10 14 11 33 79 102 113 120 120
124 127 130 134 139 139 127 114 95 84 61 59 42 33 37 25
12 19 32 23 8 6 25 22 7 0 5 5 6 14 19 17
5 0 20 17 17 18 19 24 26 23 10 13 19 15 22 21
14 9 0 0 0 0 0 0 0 0 0 0 0 0 0 0
48 47 46 44 43 41 40 38 35 33 30 28 26 25 19 16
18 19 20 22 21 14 13 17 19 18 17 14 21 18 18 15
19 21 18 20 19 20 12 0 8 5 0 1 2 2 2 10
14 18 17 12 21 27 13 16 22 34 65 103 127 120 126 127
128 130 132 133 138 136 125 113 97 78 51 36 28 29 32 27
18 21 29 35 15 9 38 36 10 0 2 2 7 15 18 18
5 1 21 19 16 19 19 25 25 22 9 14 19 16 23 22
19 11 2 0 0 0 0 0 0 0 0 0 0 0 0 0
18 14 11 9 8 6 4 3 2 0 0 0 1 11 15 17
19 21 22 23 17 14 12 18 17 16 17 17 21 17 15 17
20 22 21 22 17 20 14 3 4 7 3 10 6 3 2 5
11 8 11 16 18 13 23 43 56 68 100 115 142 133 135 138
137 137 137 136 140 138 129 116 105 81 33 26 20 36 35 20
16 20 24 34 16 8 34 31 4 0 0 2 9 16 19 18
6 3 19 22 15 17 17 24 25 21 7 12 18 15 21 22
19 15 10 0 0 0 0 0 0 0 0 0 0 0 0 0
0 0 0 0 0 0 0 0 0 0 0 0 9 14 15 19
20 21 22 20 16 15 13 20 14 16 18 19 21 15 14 19
19 25 22 22 18 22 18 7 2 8 7 17 13 10 5 5
8 9 8 15 18 21 50 85 89 101 119 125 145 143 143 144
142 143 144 143 144 142 134 118 99 68 40 40 19 20 19 19
11 15 20 25 16 10 16 12 2 0 0 2 10 17 20 20
10 7 19 22 16 16 18 24 24 18 6 14 19 15 20 22
20 17 12 3 0 0 0 0 0 0 0 0 0 0 0 0
0 0 0 0 0 0 0 0 0 0 0 5 11 11 16 18
19 19 20 17 19 14 14 20 13 16 16 20 22 15 12 20
18 25 24 21 17 22 21 11 4 13 9 17 16 16 10 8
5 7 9 11 12 17 50 107 115 132 141 145 146 145 146 145
145 145 145 144 144 143 142 132 99 68 77 81 38 7 10 6
12 7 14 13 11 13 10 9 3 1 0 5 12 19 19 21
13 8 21 22 14 11 21 24 21 16 4 14 18 15 19 22
21 18 13 8 0 0 0 0 0 0 0 0 0 0 0 0
0 0 0 0 0 0 0 0 0 0 1 8 9 13 16 18
18 19 18 18 18 14 16 20 11 16 17 19 22 16 10 19
18 25 25 22 16 23 23 17 7 14 15 22 22 20 21 15
13 14 14 18 17 20 20 65 133 146 146 146 145 143 146 145
146 145 145 145 145 145 144 141 109 89 99 84 23 6 6 6
3 5 9 12 7 7 9 9 9 0 0 11 15 20 21 23
16 10 19 23 10 10 23 23 19 14 4 16 19 17 20 21
20 20 15 11 4 0 0 0 0 0 0 0 0 0 0 0
0 0 0 0 0 0 0 0 0 0 4 7 11 13 15 17
17 19 17 19 18 14 17 19 10 16 17 21 24 15 9 20
19 24 24 22 16 22 23 22 13 16 18 26 27 23 24 23
25 22 24 26 25 23 25 26 67 140 147 147 145 143 146 146
146 146 145 145 145 144 145 141 135 124 101 32 10 9 11 8
6 12 18 19 16 17 16 17 11 6 3 11 16 21 23 22
17 11 19 24 7 10 24 22 15 12 4 15 18 17 20 21
20 19 16 12 9 0 0 0 0 0 0 0 0 0 0 0
0 0 0 0 0 0 0 0 0 0 6 6 11 14 14 16
18 17 18 19 18 14 18 19 9 16 18 22 21 16 6 19
21 23 26 21 15 23 24 26 20 21 21 25 28 23 23 27
25 26 26 26 27 24 29 27 29 51 121 149 147 147 146 147
146 146 146 146 146 145 144 145 142 95 33 17 19 18 12 12
16 20 22 24 24 23 23 24 17 11 10 16 23 25 24 25
18 12 17 25 4 11 23 20 16 11 4 18 18 17 21 19
19 20 20 14 10 3 0 0 0 0 0 0 0 0 0 0
0 0 0 0 0 0 0 0 0 0 5 7 11 12 14 14
16 16 18 19 17 14 18 18 7 13 17 23 23 16 5 17
22 22 26 20 16 21 25 25 21 20 22 27 27 25 21 27
26 26 26 25 27 26 34 24 25 28 33 77 136 147 146 147
146 146 146 145 145 144 145 134 72 29 23 22 24 24 20 17
18 23 23 23 25 24 23 25 19 16 15 18 26 26 24 25
20 11 17 23 1 14 19 17 15 8 6 20 16 17 22 20
19 19 21 16 12 8 0 0 0 0 0 0 0 0 0 0
0 0 0 0 0 0 0 0 0 1 4 8 10 12 13 15
16 16 19 19 17 14 18 19 6 13 18 23 23 15 4 15
22 22 26 21 16 19 25 25 23 18 22 28 28 24 22 27
28 24 25 26 27 28 35 29 26 27 28 30 38 83 124 146
146 146 147 146 144 126 84 37 29 26 26 27 26 26 25 24
25 26 20 27 28 24 26 26 20 19 19 20 26 26 24 24
21 11 15 24 3 16 17 13 14 6 7 21 17 17 23 20
17 17 22 18 11 10 8 8 7 5 4 2 2 1 0 0
0 0 0 0 0 0 0 0 0 1 4 8 10 12 12 15
15 17 19 20 19 15 18 18 5 11 18 23 24 18 3 13
22 20 24 20 14 17 23 24 23 16 20 24 27 26 21 25
27 27 22 27 28 29 28 33 30 27 28 28 26 31 36 50
81 106 119 106 56 32 27 27 27 27 28 29 27 28 26 26
26 22 21 27 26 25 27 27 22 19 20 21 26 27 24 23
23 12 15 25 8 13 17 12 10 5 10 22 18 17 22 21
16 14 21 20 12 9 9 6 6 6 6 7 6 6 6 6
0 0 0 0 0 0 0 0 0 1 4 8 10 10 12 14
15 19 18 19 18 17 18 20 4 8 17 22 22 18 5 11
24 21 24 19 14 16 23 24 24 17 19 23 27 27 20 24
26 26 26 22 25 27 26 34 28 28 28 27 26 28 31 33
34 34 31 39 27 27 26 26 27 28 29 27 27 28 27 25
24 22 23 26 26 22 28 26 23 18 20 24 26 26 25 23
23 12 14 24 11 9 16 7 8 5 12 23 17 17 20 20
17 12 17 21 13 9 8 7 5 6 5 4 5 5 7 11
0 0 0 0 0 0 0 0 0 1 3 8 9 10 12 13
17 19 19 17 17 17 18 19 4 6 16 21 22 18 7 7
25 21 23 19 14 16 22 24 23 19 19 22 27 28 22 21
26 27 25 26 22 24 27 29 28 28 27 25 26 28 29 32
31 34 30 36 28 26 26 24 27 28 27 27 27 27 28 24
26 17 25 25 24 23 27 25 23 19 20 25 26 25 24 22
24 12 14 23 15 1 14 3 2 5 13 23 18 17 21 21
18 13 13 20 16 9 8 8 6 5 4 4 4 4 7 12
0 0 0 0 0 0 0 0 0 1 3 7 9 9 12 14
18 19 19 18 16 17 19 19 6 4 16 22 21 18 8 4
23 22 23 21 15 16 20 26 24 19 20 22 26 28 24 20
26 29 25 23 24 23 22 30 29 28 27 28 28 28 29 30
31 30 34 27 28 27 26 26 27 28 27 27 28 27 23 26
20 17 27 26 25 24 27 25 23 21 21 24 27 25 23 22
24 12 13 24 21 0 9 1 1 6 13 23 19 17 21 21
17 14 13 19 18 11 9 9 8 5 5 5 4 5 7 13
0 0 0 0 0 0 0 0 0 0 3 7 9 10 15 17
19 20 19 17 16 17 18 20 8 2 15 22 23 16 10 3
22 23 24 22 14 15 17 23 23 19 19 20 25 26 25 21
23 28 27 24 23 25 26 23 36 26 26 27 27 28 28 30
31 29 35 26 27 27 26 27 27 27 27 28 26 23 27 22
16 21 27 26 23 24 27 25 23 21 21 24 27 26 24 22
25 12 13 23 23 3 9 1 0 6 13 22 18 17 20 21
17 12 12 16 21 14 9 8 8 5 4 4 4 5 9 15
0 0 0 0 0 0 0 0 0 0 3 6 8 11 15 18
17 18 19 18 16 16 18 19 8 0 15 21 22 17 12 0
21 25 23 21 14 15 17 23 23 21 19 19 23 26 25 19
21 25 27 24 22 22 24 26 35 23 26 26 27 29 28 28
27 29 32 25 26 25 25 25 27 26 27 23 24 28 25 23
14 22 26 25 24 27 26 24 23 23 22 23 25 26 23 21
25 14 12 20 25 7 8 1 0 5 14 21 18 17 19 21
16 12 12 15 20 18 10 8 12 6 4 4 5 5 10 16
0 0 0 0 0 0 0 0 0 0 4 6 8 13 17 19
19 17 19 20 17 16 18 19 10 0 14 21 21 17 13 0
17 24 24 21 14 14 18 22 23 21 19 19 25 27 28 22
21 25 26 29 23 23 22 22 40 28 22 22 26 28 28 26
27 30 27 25 26 26 27 25 27 25 26 27 29 25 24 20
15 25 27 25 25 28 26 24 22 22 22 22 26 25 23 21
25 17 12 18 25 13 6 3 0 4 14 21 19 17 20 21
17 13 12 14 19 19 13 13 14 8 5 5 5 6 11 17
0 0 0 0 0 0 0 0 0 0 3 7 11 14 17 18
18 17 18 20 17 16 18 19 11 0 12 21 20 16 13 0
14 25 23 22 14 15 16 22 24 21 19 19 22 26 27 23
19 22 26 26 25 24 23 21 30 35 25 27 22 21 22 25
26 32 26 25 24 23 24 23 25 27 28 26 24 23 24 16
19 25 27 24 25 28 27 24 22 22 23 24 25 24 23 21
25 18 10 15 24 18 6 6 0 3 14 21 20 16 19 21
17 11 13 16 14 19 16 13 13 11 8 7 6 7 12 17
0 0 0 0 0 0 0 0 0 0 4 7 14 15 19 18
18 17 17 19 18 16 18 19 12 0 12 21 21 15 13 1
9 25 23 20 13 14 16 22 24 20 19 18 21 25 27 22
18 21 27 25 26 24 23 21 20 37 23 26 27 27 28 25
25 25 22 21 21 22 24 27 29 27 25 23 23 25 22 13
20 25 26 23 26 28 27 24 22 23 24 25 26 23 23 20
25 21 11 16 23 22 15 9 0 2 15 21 19 17 16 20
17 8 12 15 15 21 19 14 13 12 13 11 8 8 15 18
0 0 0 0 0 0 0 0 0 0 4 10 18 16 15 17
18 17 17 17 18 15 17 19 13 0 9 21 20 16 14 1
5 24 23 19 14 15 16 21 23 22 19 18 20 24 26 24
21 20 25 26 25 24 24 24 22 33 22 24 25 25 27 29
38 28 28 27 28 27 26 27 26 25 23 22 24 25 19 15
22 26 24 24 26 26 25 25 22 22 25 25 26 23 22 21
25 22 11 15 21 23 17 14 1 3 16 20 20 16 18 22
20 8 9 17 15 20 20 14 14 12 13 12 8 9 15 18
0 0 0 0 0 0 0 0 0 0 4 11 12 11 14 13
16 16 18 19 17 14 18 19 14 0 9 20 19 15 15 2
2 21 21 19 14 13 16 20 25 23 19 18 19 23 26 23
21 19 24 25 24 23 23 24 22 24 23 22 25 23 23 25
43 27 27 28 27 27 26 25 25 24 20 23 24 26 15 17
23 26 23 25 27 26 26 26 24 22 25 25 25 22 22 21
24 22 12 14 20 22 17 14 3 5 17 20 20 16 18 21
19 7 8 18 16 20 19 15 14 13 12 12 8 10 16 17
