P2
128 120
149
0 0 0 0 0 0 0 12 47 50 42 55 55 12 0 0
4 10 5 0 0 0 19 67 68 47 25 27 27 27 22 6
0 3 4 9 14 28 34 32 32 28 23 22 31 29 30 36
58 23 0 2 6 20 13 8 6 32 61 61 49 49 51 46
52 54 58 59 57 42 43 46 50 43 48 51 49 43 19 17
24 37 37 37 36 35 34 41 44 42 41 36 34 32 31 29
29 28 27 27 25 25 25 24 25 33 34 32 29 30 30 26
20 19 19 18 17 18 17 17 17 17 17 20 21 22 20 18
0 0 0 0 0 0 0 1 33 58 49 59 56 12 0 0
0 0 0 0 0 0 17 66 68 52 30 30 29 30 30 20
2 1 6 11 10 12 12 15 18 8 7 5 16 16 20 25
57 25 0 2 10 28 17 3 6 25 62 61 21 7 29 12
19 25 33 38 51 44 46 48 51 50 53 54 54 51 22 17
25 38 39 38 36 35 35 42 46 44 41 38 38 39 40 34
33 32 30 27 25 25 26 25 24 29 31 30 29 29 29 28
21 20 19 19 18 18 18 17 17 17 18 21 23 22 21 17
0 0 0 0 0 0 0 0 20 63 53 60 58 13 0 0
0 0 0 0 0 0 17 66 69 55 32 33 34 32 26 18
3 0 0 13 16 6 1 3 3 2 2 0 4 7 9 20
58 27 5 20 12 49 43 10 1 28 62 62 21 1 11 0
0 3 12 2 39 47 48 50 51 52 54 54 54 53 27 18
28 42 41 40 39 37 36 41 43 43 41 40 42 42 43 36
35 36 37 33 31 30 29 26 25 26 13 12 13 19 23 27
23 20 20 19 19 19 18 18 18 18 18 21 23 22 22 8
0 0 0 0 0 0 0 0 11 63 59 61 60 13 0 0
0 0 0 0 0 0 16 67 69 56 22 13 24 15 4 0
0 1 2 15 23 17 11 6 9 0 0 0 0 0 5 18
61 29 9 24 29 45 37 36 8 21 64 63 21 0 3 3
0 14 22 12 41 46 44 47 48 52 53 54 53 52 28 18
27 44 41 39 40 41 41 41 11 12 24 35 39 40 42 33
6 9 15 22 28 28 33 33 30 27 10 3 5 2 1 5
24 20 20 19 19 19 19 18 18 18 18 21 24 23 22 17
0 0 0 0 0 2 10 23 41 65 62 62 62 14 0 0
0 0 0 0 0 0 16 67 70 60 23 0 2 2 3 1
2 3 4 10 20 22 16 7 7 5 2 0 0 0 0 18
63 32 5 23 35 45 28 31 13 17 63 65 28 0 5 1
0 19 25 17 42 39 11 18 26 35 43 46 47 50 29 19
27 43 42 36 34 40 45 45 5 0 2 13 17 15 22 33
1 0 0 0 1 4 8 14 22 27 9 0 1 2 0 2
25 21 21 20 19 19 19 18 19 18 19 22 24 23 23 21
4 9 17 25 38 51 61 65 68 68 63 61 64 36 21 16
11 9 7 5 3 3 18 67 70 62 39 11 0 2 1 2
4 3 6 2 9 26 27 20 13 13 4 3 6 2 5 23
64 33 0 5 20 36 31 19 3 15 63 66 31 0 8 2
1 11 14 10 41 38 1 1 4 5 5 9 8 39 30 20
21 28 35 40 42 44 47 47 7 0 1 7 10 12 15 33
2 0 0 0 0 0 0 0 7 28 7 0 0 0 0 2
25 21 21 20 20 19 19 19 19 19 20 22 24 24 24 21
44 48 45 45 48 57 67 67 68 69 63 52 58 60 59 61
51 55 56 55 53 51 54 66 68 62 39 9 0 0 0 1
1 1 4 14 17 26 29 21 24 21 3 1 5 4 1 18
62 36 0 0 0 5 4 0 0 13 63 67 32 0 3 1
2 5 0 2 40 37 2 2 0 0 0 0 0 33 31 19
13 0 1 5 11 20 29 38 10 0 0 3 1 4 10 33
4 0 0 0 0 0 0 0 5 27 3 0 0 0 0 1
26 22 21 20 20 19 19 19 18 19 19 22 24 24 23 21
54 58 55 59 63 66 67 68 68 65 60 49 53 56 52 53
59 63 64 62 57 54 45 26 34 38 40 7 0 0 0 0
0 2 6 32 30 33 32 22 29 25 1 0 0 3 1 16
54 39 0 0 0 0 0 0 0 11 63 68 38 0 2 9
8 17 0 1 40 37 6 7 2 10 0 0 0 33 32 18
12 0 0 0 0 0 0 10 10 0 0 0 0 0 7 30
2 0 0 0 1 0 0 0 4 29 1 0 0 0 0 1
28 21 21 20 20 19 20 19 19 19 20 22 24 24 23 22
66 64 65 64 65 63 58 56 34 24 33 25 9 14 27 28
41 47 49 45 49 52 41 21 29 38 45 7 0 0 0 0
0 0 3 32 30 37 35 17 21 17 0 0 2 7 6 19
56 42 0 0 0 0 0 0 0 10 62 69 44 0 7 24
22 29 5 1 39 38 7 9 4 20 8 0 0 32 33 19
13 0 0 0 0 0 0 6 10 0 0 0 0 0 9 34
3 0 0 0 6 5 0 0 2 29 1 0 0 0 0 0
27 22 21 21 20 20 20 19 20 19 20 22 25 24 24 22
60 59 57 56 51 38 37 43 16 17 32 18 0 2 2 2
13 20 14 3 10 35 40 51 51 48 36 2 0 0 0 1
5 2 2 10 10 34 29 2 4 5 4 2 4 5 5 21
58 53 32 28 27 26 24 21 19 25 63 70 49 5 8 6
5 9 6 3 39 37 7 10 2 18 13 0 0 32 32 19
14 0 0 0 0 0 0 5 9 0 0 0 0 0 7 37
4 0 0 0 7 9 8 3 1 28 2 0 0 0 0 0
26 22 22 20 20 20 20 20 19 20 21 22 25 25 24 22
40 46 51 53 54 54 53 51 43 37 47 16 0 0 0 0
0 5 0 3 14 32 62 61 53 31 13 0 0 12 3 0
6 4 6 3 0 24 22 0 0 3 2 0 5 1 2 17
54 67 66 63 60 57 55 50 47 46 50 53 35 4 5 14
16 8 4 1 36 37 6 9 5 3 7 0 0 32 33 18
14 0 0 0 11 3 0 3 9 0 0 0 0 0 6 37
6 0 0 0 9 9 9 6 0 28 3 0 0 0 0 0
25 22 21 21 21 21 20 19 20 20 21 22 25 24 25 23
31 33 35 39 39 41 43 48 56 50 59 18 0 0 0 0
0 1 0 4 4 30 69 66 53 6 3 0 2 9 1 6
2 3 3 1 5 26 30 2 1 2 0 0 0 0 0 14
63 66 51 52 52 52 55 56 54 47 39 38 16 4 4 8
15 8 4 1 37 36 2 7 10 1 0 0 0 33 33 19
14 2 12 6 6 1 0 3 10 0 0 0 0 0 8 37
8 0 0 0 3 8 9 5 0 28 14 5 0 0 0 0
23 23 22 22 21 21 21 20 19 20 21 22 25 25 24 22
4 2 0 0 2 2 2 15 56 63 62 25 4 8 2 0
0 0 0 0 0 33 71 67 55 9 8 4 3 1 5 5
2 2 2 3 1 22 33 5 1 0 0 0 0 0 0 16
68 54 5 4 8 12 18 26 33 44 53 46 53 50 45 40
37 31 23 20 42 37 4 5 8 1 1 0 0 34 33 20
16 7 9 0 4 4 0 3 12 0 0 0 0 0 16 40
18 4 2 1 0 0 5 4 0 27 35 32 28 23 20 19
30 24 22 22 21 21 21 20 20 21 22 23 26 26 25 21
0 0 0 4 24 18 0 11 59 64 63 36 39 49 29 10
0 0 6 0 0 35 71 66 55 6 5 6 11 16 20 18
16 10 9 7 15 27 36 5 8 4 9 1 0 0 0 15
65 54 6 0 0 5 2 0 0 14 61 58 43 42 45 48
57 58 58 57 49 59 43 27 33 33 33 27 24 40 31 20
17 6 1 0 0 1 0 5 33 22 15 15 9 2 4 42
37 31 30 27 20 13 8 6 3 29 36 34 32 32 37 39
38 24 22 21 21 21 21 21 20 21 22 22 27 26 25 20
0 0 0 7 36 30 3 11 61 65 66 49 38 36 41 8
7 19 38 11 1 37 69 64 54 6 0 0 0 12 7 14
32 25 38 45 45 43 40 18 18 17 13 7 2 0 1 25
66 55 17 0 6 5 9 5 1 12 61 63 29 20 21 29
30 29 27 41 61 71 56 38 47 51 55 53 51 49 29 20
16 1 0 0 0 0 0 6 47 48 38 40 41 39 36 49
27 13 16 18 20 21 23 27 31 38 28 29 31 33 37 39
38 25 22 22 22 21 21 21 20 20 22 22 27 26 25 19
0 0 0 6 29 29 8 10 62 67 65 37 8 19 22 11
20 27 45 25 3 37 69 65 55 6 1 0 0 4 7 22
47 39 46 55 58 49 23 1 2 12 22 27 19 9 15 37
66 54 21 7 9 11 30 24 7 11 60 64 31 20 18 23
20 18 5 27 69 72 50 39 48 53 56 55 57 54 30 20
18 2 0 0 0 0 0 5 49 44 42 47 49 51 44 41
25 11 12 11 11 10 8 8 8 8 9 12 16 22 25 22
23 22 22 23 22 22 21 20 21 21 22 22 27 26 25 18
0 0 0 4 25 28 12 12 64 67 65 19 0 6 11 15
18 18 23 7 0 38 69 65 56 7 0 0 3 6 9 25
44 39 50 61 65 55 26 0 0 1 15 27 22 14 22 53
66 54 29 42 27 24 28 9 1 9 60 64 23 3 13 9
3 4 2 28 66 64 38 33 45 51 51 54 55 55 30 21
23 32 29 21 13 7 4 8 44 37 43 48 50 53 47 38
27 13 13 10 10 7 6 5 5 4 3 3 3 14 24 21
20 21 23 22 22 22 21 21 21 22 22 22 26 26 25 15
4 0 7 4 20 33 35 18 64 68 63 14 7 30 8 3
8 4 0 1 1 40 70 66 58 8 2 4 3 0 1 20
37 35 55 70 71 62 32 0 0 0 7 14 11 17 26 62
69 50 27 33 22 17 27 28 8 9 59 62 17 0 6 6
1 0 2 27 65 60 22 3 9 10 11 14 19 42 33 22
26 46 53 51 48 45 41 40 44 30 40 45 47 50 47 41
31 15 13 10 8 7 6 6 6 6 6 6 7 18 14 5
23 23 23 21 20 22 21 22 21 23 23 23 27 26 25 15
7 2 10 8 18 28 38 20 63 67 63 13 1 4 0 0
0 0 0 0 1 41 71 68 60 8 2 6 4 0 8 10
15 32 56 72 73 66 35 0 0 15 37 38 35 39 41 67
70 52 20 17 12 15 38 33 14 10 60 61 17 2 6 5
4 2 4 24 65 62 20 0 6 0 0 1 3 33 34 22
26 46 54 53 51 51 51 52 41 8 10 15 21 28 31 32
34 15 12 7 1 1 1 5 9 8 5 8 10 19 27 22
29 31 29 21 1 18 23 22 22 22 21 20 26 26 25 16
0 3 12 5 9 15 15 14 64 67 63 12 0 0 0 0
0 0 0 0 1 42 71 68 61 9 0 1 5 1 10 7
3 28 54 69 70 66 36 0 0 11 39 42 53 63 50 48
68 66 53 44 46 48 41 20 11 13 62 63 21 25 28 2
0 2 2 18 63 62 18 0 1 0 1 9 9 31 35 22
24 42 51 50 51 51 52 52 37 2 0 0 0 3 12 22
36 14 10 5 0 0 0 1 4 2 0 3 4 13 31 28
24 25 27 29 24 23 22 22 22 21 6 13 25 26 25 16
0 2 28 16 0 2 2 11 65 69 65 26 14 12 10 7
6 3 2 1 0 41 69 67 60 10 0 3 6 2 8 11
10 21 48 67 67 66 37 0 0 10 38 40 48 53 28 8
56 65 56 27 47 62 51 22 4 13 65 67 24 31 28 3
0 1 1 13 57 57 17 0 0 0 10 35 33 33 38 32
30 34 38 38 40 40 41 48 35 0 0 0 0 0 1 20
37 13 10 6 0 0 0 0 0 0 0 0 0 9 30 26
18 16 17 19 22 23 22 22 22 21 4 13 23 25 25 19
0 3 39 24 0 0 0 11 65 61 60 64 67 64 59 54
48 44 44 39 36 54 67 65 59 12 0 0 1 0 1 2
1 5 44 65 65 65 38 0 0 15 51 53 46 38 27 2
42 60 52 18 34 56 40 24 4 11 63 67 27 15 24 8
0 0 1 12 52 50 16 1 2 0 9 33 33 29 33 26
25 26 25 28 34 33 35 46 34 0 0 0 0 0 0 13
36 8 4 0 0 0 5 2 0 0 0 0 0 7 31 28
11 19 24 18 20 22 21 21 21 21 16 15 24 25 26 22
0 8 36 25 0 0 0 10 50 45 55 62 75 73 71 68
65 64 67 67 67 68 66 64 58 11 3 3 4 3 3 3
3 2 44 64 66 66 46 13 11 15 32 57 54 49 38 7
33 56 41 7 18 53 24 21 3 10 63 68 29 10 14 6
1 1 3 17 44 41 17 7 9 0 3 17 19 25 30 25
25 26 28 29 33 33 37 44 33 0 0 0 0 0 0 14
33 0 0 0 0 0 2 7 3 0 0 0 0 6 30 29
6 14 15 13 18 21 21 20 21 21 19 15 24 24 25 24
0 11 31 23 1 0 0 9 35 47 57 65 75 72 69 69
66 67 69 69 70 70 67 64 59 26 45 46 46 47 44 42
39 36 55 65 67 68 57 57 59 51 25 24 43 55 52 27
20 34 37 13 7 43 15 8 0 9 61 65 27 3 7 1
1 9 4 22 40 39 17 8 11 3 3 1 0 16 24 23
24 14 11 16 22 27 33 37 29 0 0 0 0 0 0 15
32 0 0 0 0 0 0 9 6 3 0 0 0 5 29 29
9 8 10 8 17 20 21 20 20 20 19 15 24 25 25 25
5 16 30 21 3 0 3 27 38 49 57 65 63 64 65 59
62 61 55 60 65 68 68 68 68 62 61 65 67 71 58 51
56 62 67 61 71 70 65 66 61 50 57 31 7 11 13 4
1 1 13 33 18 17 5 14 14 20 60 63 26 2 11 12
12 16 20 28 40 38 29 15 11 14 9 1 2 17 31 29
28 8 0 0 0 0 1 3 21 0 0 0 0 0 0 16
29 0 0 0 0 1 10 11 8 7 0 0 0 5 29 31
16 13 9 8 16 19 21 21 21 21 19 14 23 25 26 25
50 51 52 50 45 38 21 23 29 39 44 47 48 49 51 51
63 41 12 16 25 37 42 41 62 68 63 67 70 72 57 55
60 67 71 71 74 74 72 69 55 26 64 64 30 1 0 0
4 0 0 4 8 15 1 31 55 55 61 59 30 21 36 53
60 60 60 58 55 44 32 28 16 18 18 6 3 20 37 31
28 11 0 0 2 0 0 0 17 0 0 0 4 0 0 15
26 0 0 0 0 1 10 16 5 1 0 0 0 3 28 33
19 10 0 0 13 19 21 21 21 20 19 13 23 25 25 25
58 46 48 55 59 52 13 0 2 3 2 3 5 3 3 6
52 41 5 10 0 17 33 10 53 71 74 66 64 63 58 60
65 71 75 78 77 78 76 74 57 15 62 67 34 12 2 0
11 1 1 4 16 45 31 40 63 63 52 42 56 85 106 116
120 120 120 119 116 106 79 49 30 22 16 13 7 17 38 32
28 12 0 0 3 1 0 0 16 0 0 8 15 5 0 15
26 0 0 0 0 0 0 10 1 0 0 0 0 2 27 33
17 6 0 0 11 19 22 21 21 22 19 14 24 25 25 24
53 8 6 8 10 18 5 0 0 0 0 0 1 0 0 2
50 47 10 20 1 9 21 18 56 70 70 44 42 48 57 59
65 70 73 73 74 75 75 75 61 9 56 67 26 3 0 0
20 31 27 46 51 64 62 60 62 47 43 92 116 125 135 133
136 137 135 136 134 134 126 116 85 35 24 24 17 23 38 28
26 12 0 2 14 8 2 0 15 1 0 13 15 9 0 15
24 0 0 0 0 0 0 10 3 0 0 0 0 0 25 33
8 3 0 0 10 18 21 21 22 21 18 16 25 25 24 24
60 17 1 0 2 18 2 0 0 0 0 0 3 0 1 3
46 54 8 12 11 15 34 52 64 72 65 11 3 23 38 24
27 31 35 37 40 42 43 52 64 13 48 69 49 16 8 8
37 63 61 62 51 57 64 58 46 52 104 125 136 138 137 137
137 137 137 137 136 136 137 136 130 110 52 35 34 38 44 28
26 11 0 9 22 14 6 0 20 22 19 26 24 23 12 22
25 0 0 0 0 0 0 9 4 0 0 0 0 0 23 33
5 1 0 1 15 17 22 22 21 21 16 20 25 26 25 25
59 37 9 3 10 25 0 0 0 3 3 0 1 0 0 5
45 56 3 0 18 43 36 63 67 72 64 10 0 21 33 7
5 7 10 11 8 7 5 20 64 34 47 69 65 58 52 52
59 63 60 45 24 33 53 42 47 98 122 134 137 137 138 138
137 137 138 137 137 137 137 136 136 133 116 57 38 46 46 30
25 13 0 5 12 8 3 0 21 41 41 44 41 42 44 46
29 1 1 0 0 0 0 11 5 0 0 0 0 0 17 32
3 0 0 0 11 16 22 22 22 21 16 21 25 26 25 21
63 55 22 6 6 23 0 0 1 7 1 0 0 0 0 1
38 59 6 3 9 28 37 60 67 72 66 11 0 19 36 6
3 6 5 12 10 5 9 19 64 49 43 68 67 67 67 67
66 67 63 49 13 6 28 38 86 119 130 138 137 137 137 138
138 138 137 138 137 138 136 137 137 136 136 107 51 39 41 28
26 19 6 2 5 2 1 0 21 42 42 44 43 44 50 51
40 22 22 19 12 9 10 17 11 5 4 3 1 2 13 30
5 2 2 1 2 14 22 22 22 20 16 21 26 26 26 19
60 63 26 1 6 28 5 5 8 15 0 0 0 0 0 0
29 64 13 9 4 10 28 50 65 73 65 12 0 19 40 7
4 8 4 12 13 10 22 31 65 52 37 67 67 68 68 67
61 45 38 26 9 4 36 67 111 120 126 138 138 138 138 138
139 138 138 138 137 137 137 137 137 136 135 127 86 45 34 28
28 27 16 3 5 1 0 0 19 39 39 41 40 43 48 48
42 32 33 31 30 29 29 27 24 21 18 16 14 14 20 32
18 14 11 6 3 12 22 22 22 20 17 23 27 27 25 21
48 65 38 0 7 31 12 17 21 24 1 1 4 0 0 0
27 67 10 0 0 3 15 42 64 73 65 12 0 18 41 11
15 7 6 12 13 13 20 21 60 47 25 66 68 69 68 67
54 31 35 30 25 25 52 99 116 122 135 138 138 138 137 138
138 137 137 137 137 137 137 137 137 136 137 131 116 63 34 24
29 26 11 0 2 0 0 0 20 38 35 37 37 36 34 30
32 33 34 34 32 31 31 31 30 28 29 26 23 21 23 35
34 32 29 25 23 18 22 22 23 20 17 23 27 27 25 22
39 57 52 4 8 33 12 19 28 26 1 6 12 5 5 5
28 68 14 0 0 0 12 43 60 72 64 12 0 14 41 11
22 3 6 6 5 3 17 26 52 48 7 27 30 33 36 40
49 59 61 53 43 30 73 106 104 108 116 114 118 135 138 138
138 137 137 138 138 137 134 132 137 134 137 135 123 93 42 25
27 26 13 6 6 4 0 0 21 41 35 35 35 34 34 33
35 35 36 38 39 38 33 31 31 30 38 38 35 32 32 32
29 27 28 28 28 22 22 23 22 21 17 23 27 27 25 22
31 51 62 16 9 35 12 18 26 27 2 0 2 3 2 4
33 71 20 0 0 1 14 30 56 70 63 11 0 9 43 10
16 0 4 3 5 9 18 37 50 53 2 0 0 0 0 1
17 51 54 32 25 81 97 92 106 84 82 118 115 116 139 138
138 138 138 138 137 137 117 88 86 103 109 116 110 110 63 31
23 33 40 40 34 31 31 28 36 44 37 37 37 37 37 39
42 39 38 41 46 43 34 30 29 31 41 39 36 34 34 30
23 16 15 14 14 18 22 22 22 21 17 24 27 28 25 22
39 46 64 34 11 38 12 19 24 28 3 0 12 3 0 8
31 71 30 4 9 4 17 22 56 69 61 9 0 5 48 13
8 0 2 1 4 3 13 31 43 58 4 0 0 0 0 0
16 54 57 49 112 80 55 95 74 91 125 136 138 130 115 139
136 118 122 136 137 130 124 127 107 87 65 95 117 104 93 49
19 34 54 55 53 52 55 54 53 48 40 37 38 36 38 43
46 42 39 40 43 39 34 32 26 26 37 37 34 34 35 32
29 21 19 18 18 20 22 23 22 20 18 23 27 27 25 23
52 51 66 52 16 40 13 18 22 28 4 0 4 0 0 5
22 69 39 9 10 4 10 10 55 67 58 8 0 3 49 21
0 0 4 14 11 4 2 8 28 62 9 1 0 0 1 2
18 58 69 107 75 44 75 77 119 139 139 138 138 138 116 112
129 131 128 129 119 133 138 138 138 138 127 78 105 111 95 66
28 26 54 56 55 54 54 54 54 48 24 24 19 18 21 28
39 43 39 32 23 27 28 25 26 26 24 10 8 12 17 19
26 26 23 23 25 24 27 25 23 18 20 24 27 28 25 23
69 67 68 62 27 41 12 14 15 16 1 0 0 1 2 4
14 67 43 0 2 1 4 7 56 67 56 6 0 1 46 21
0 0 7 27 24 8 0 0 18 65 25 15 13 14 16 17
27 54 85 82 44 52 83 114 140 139 139 138 138 138 133 118
137 137 138 125 121 138 138 138 138 138 138 127 89 108 90 69
41 24 36 38 37 37 38 39 40 39 5 1 0 0 0 1
19 43 34 11 1 2 5 7 18 30 21 0 0 0 0 4
19 22 20 22 26 28 31 29 22 17 21 24 27 27 25 22
67 65 62 42 20 48 24 27 30 31 33 38 42 47 52 56
63 77 54 11 13 11 11 16 60 69 56 4 0 0 40 21
0 0 5 23 21 9 0 0 13 66 55 53 45 52 56 56
56 48 66 67 40 61 88 134 127 119 114 121 126 134 124 101
129 127 136 104 126 138 137 136 126 130 136 137 121 97 102 66
84 69 35 38 36 35 33 31 32 32 9 2 0 0 0 2
20 42 24 1 0 0 0 1 21 30 22 0 0 0 0 4
18 5 0 2 3 3 16 31 23 17 22 25 28 28 26 22
62 49 24 3 8 64 71 72 73 75 77 77 79 79 80 80
81 81 71 52 60 59 57 57 69 61 55 12 4 4 35 33
7 6 6 13 12 9 6 6 14 64 57 53 59 60 61 60
62 41 63 42 25 74 117 115 95 91 88 91 97 130 106 101
111 114 117 108 119 138 121 98 98 99 107 136 113 110 101 68
47 32 31 40 42 41 41 40 39 35 10 5 0 0 0 6
25 40 14 0 0 0 0 0 19 31 23 0 0 0 0 2
17 5 0 4 1 0 10 32 23 18 23 24 28 27 26 22
39 14 5 5 12 66 78 78 78 79 80 81 81 81 81 81
82 81 73 48 54 55 57 59 68 58 65 53 52 48 52 67
57 54 57 57 54 50 54 57 59 74 58 35 43 46 50 54
55 40 35 49 33 97 123 102 99 60 60 98 91 103 84 113
129 135 128 109 107 129 90 75 37 82 111 111 112 96 98 74
45 63 30 37 43 42 42 42 43 37 10 5 0 0 1 3
14 38 9 0 0 0 0 0 17 30 22 0 0 0 0 1
17 6 0 3 1 0 8 32 23 18 24 24 27 28 26 22
52 51 50 49 49 73 80 80 80 79 80 78 77 74 68 59
54 49 37 9 9 9 11 18 58 70 75 65 71 67 60 81
81 75 80 80 78 73 77 82 82 82 59 6 3 5 14 21
33 40 20 49 54 120 125 104 123 128 120 99 84 92 102 138
138 138 138 126 77 104 100 101 105 124 133 106 128 107 90 91
45 32 36 28 30 32 32 35 41 41 8 0 0 0 5 6
10 37 7 0 0 0 0 0 18 30 21 0 0 0 0 0
16 8 0 0 0 0 8 31 23 19 24 25 27 28 27 24
63 62 61 60 60 67 68 60 65 64 62 61 57 54 35 5
3 2 0 3 7 0 1 9 56 73 77 75 73 68 58 77
85 83 84 78 74 73 75 81 82 81 69 11 0 1 11 16
26 36 16 57 87 125 116 100 130 134 110 89 83 99 136 137
138 138 138 138 95 79 80 93 115 135 136 112 120 132 84 87
65 14 34 23 28 29 27 24 29 46 20 3 0 0 3 4
7 37 6 0 0 0 0 0 16 31 20 1 0 0 0 0
14 10 0 1 0 0 7 31 23 20 24 25 28 28 28 26
54 55 59 56 58 61 58 52 59 59 59 59 55 55 33 0
0 0 0 9 18 3 3 10 56 73 76 76 72 67 56 62
68 68 67 66 64 63 63 60 53 52 45 11 0 7 12 15
26 31 31 90 79 118 108 103 126 123 106 88 95 128 128 90
137 138 110 134 132 74 93 99 110 132 137 118 124 138 105 77
91 26 22 30 36 40 39 34 28 47 20 2 0 0 5 6
8 37 6 0 0 0 0 0 12 33 23 3 0 0 0 0
14 14 0 0 0 0 6 31 21 21 25 25 28 29 28 27
54 54 56 52 54 57 57 56 56 57 60 59 56 55 33 0
0 0 0 2 7 2 4 12 56 74 71 65 62 55 48 44
48 46 49 47 43 43 51 35 10 10 5 5 2 8 8 15
24 29 56 105 120 91 105 87 101 90 80 99 130 135 48 31
129 135 29 65 140 125 95 100 107 120 130 111 119 133 109 97
106 46 15 33 38 39 39 36 28 46 10 0 0 0 0 0
8 38 6 0 0 0 0 0 10 33 21 1 0 0 0 0
12 18 0 0 0 0 6 30 21 22 24 25 28 29 28 26
51 50 50 49 49 49 49 48 48 49 53 57 59 56 34 0
0 0 0 1 2 3 6 13 56 74 69 53 28 13 7 9
23 27 31 23 13 23 51 33 7 9 4 6 4 6 5 13
22 27 77 113 116 106 102 108 119 111 120 130 131 137 84 124
139 139 116 65 139 137 127 96 98 99 98 91 95 115 137 119
97 69 14 24 32 36 38 36 26 39 7 0 0 0 0 0
5 37 9 0 0 0 0 0 8 35 22 3 0 0 0 1
11 21 0 0 0 0 6 28 19 21 24 25 28 29 25 22
51 51 50 49 49 48 48 47 46 35 10 37 62 59 36 0
0 0 0 4 13 17 8 14 54 74 68 50 13 0 0 2
9 23 23 5 0 18 52 34 7 7 3 6 5 0 2 8
13 31 91 109 104 112 123 136 140 140 134 130 127 126 133 139
139 139 139 138 138 136 135 135 135 128 124 123 120 113 117 125
96 84 16 2 11 34 39 37 26 35 11 3 2 2 5 10
7 34 23 12 11 14 12 12 18 37 25 27 26 25 25 28
33 28 4 3 2 2 9 26 19 21 24 25 28 26 23 26
46 46 46 46 46 45 45 46 46 31 0 25 60 57 36 0
0 1 20 16 27 36 11 13 53 75 69 49 16 8 8 12
11 15 22 3 0 19 53 35 7 5 2 0 0 0 1 7
8 35 102 103 112 125 139 139 140 140 140 137 122 118 134 139
139 138 138 136 130 135 137 138 139 138 138 137 134 130 115 118
110 88 18 0 7 38 41 36 23 35 33 32 27 27 30 30
29 32 43 46 41 42 43 43 44 43 26 32 35 37 39 44
45 38 24 23 23 22 23 24 20 19 23 24 27 24 25 26
11 11 12 14 15 17 19 35 46 32 0 18 55 53 39 12
11 20 48 42 52 55 25 17 52 75 68 48 24 19 20 20
13 17 25 5 0 20 53 36 9 2 0 0 0 0 3 5
12 43 103 108 124 136 139 140 140 140 139 131 121 133 139 139
139 138 138 138 134 137 138 139 139 138 138 138 138 132 125 112
114 86 17 0 6 37 42 37 22 34 40 38 34 36 35 29
26 27 39 48 46 44 44 46 46 45 28 27 32 35 39 43
43 38 24 23 23 22 23 22 21 19 21 23 23 25 26 25
0 0 0 0 0 0 0 23 46 33 0 13 53 49 46 42
45 42 52 57 64 64 54 50 61 70 65 47 24 19 22 14
2 13 24 7 0 19 54 39 24 16 1 0 2 3 4 5
10 54 103 116 131 140 140 140 139 138 134 126 135 135 136 136
138 138 138 138 137 134 137 137 139 138 138 137 138 137 129 117
113 88 14 0 4 35 42 36 24 33 38 32 31 34 35 31
25 24 28 31 32 32 31 30 30 31 26 22 25 27 28 26
23 25 24 24 24 23 22 22 22 21 20 20 24 27 26 25
0 0 0 0 0 0 0 22 47 34 1 13 52 50 49 50
54 47 54 60 65 66 64 64 64 68 64 46 23 16 20 10
3 11 19 13 2 20 54 40 32 19 5 0 0 2 4 5
7 66 105 121 138 141 140 140 136 128 129 130 130 120 116 135
136 133 136 135 138 138 138 138 138 138 138 137 137 137 132 120
112 96 15 0 3 34 44 37 26 34 30 25 26 26 31 31
25 25 25 19 21 21 21 21 21 23 25 26 28 29 28 25
21 22 24 24 24 24 23 23 23 21 22 24 27 28 26 24
0 0 0 0 0 0 0 20 47 35 1 13 49 53 50 47
56 53 55 63 68 69 67 66 64 69 65 46 17 3 6 5
7 15 12 6 4 18 52 39 28 10 3 0 0 4 6 0
8 74 108 125 138 140 140 140 124 132 122 117 115 133 133 140
137 139 138 130 131 136 138 138 138 138 138 138 138 138 137 125
113 99 18 0 3 32 43 35 30 35 25 8 10 11 14 15
13 21 27 24 27 26 33 33 29 29 31 32 35 38 36 30
25 23 24 24 24 24 23 23 22 21 23 24 27 28 26 21
0 0 0 0 0 0 0 20 47 36 1 12 46 54 51 43
46 44 50 63 69 71 69 67 64 70 64 45 11 0 0 0
7 16 7 0 1 17 51 42 35 24 22 18 17 13 5 0
10 80 109 128 138 139 140 139 131 130 108 117 135 139 139 139
136 139 139 139 133 126 137 138 138 139 138 139 138 137 136 129
113 98 23 0 3 29 44 36 34 41 25 0 0 0 0 0
3 18 28 34 38 32 44 47 23 18 19 20 23 29 39 31
25 24 24 25 24 23 22 22 22 22 22 23 26 27 23 18
0 0 0 0 0 0 0 20 47 37 3 7 42 47 35 37
41 43 41 42 47 52 62 68 65 72 65 45 12 3 1 0
5 15 5 0 0 16 46 44 59 58 57 45 39 28 5 0
13 85 110 131 139 140 140 140 139 123 85 121 127 96 83 65
47 73 99 97 135 134 123 137 138 138 138 138 137 138 137 130
113 93 25 0 2 26 43 36 37 46 29 0 0 0 0 0
1 23 26 33 37 22 32 41 8 0 0 0 0 7 35 33
26 26 25 25 23 23 23 22 22 21 21 22 26 27 21 12
0 0 0 0 0 0 0 19 48 41 22 4 31 36 7 13
23 27 23 16 12 18 36 66 68 72 67 52 23 12 10 0
2 7 3 0 0 16 48 46 65 65 61 45 19 2 1 5
19 83 110 135 140 139 140 139 138 92 83 135 112 119 132 131
136 138 136 112 114 130 100 130 139 139 139 138 138 138 136 125
113 93 30 2 5 23 43 36 35 46 35 1 0 0 0 0
0 23 24 32 32 2 3 25 8 0 0 0 0 3 33 34
26 25 25 24 24 24 23 22 22 22 23 23 26 25 20 7
0 0 0 0 0 0 0 18 47 43 25 3 26 32 0 0
1 6 8 6 9 18 38 68 70 69 67 59 33 11 8 0
0 0 0 0 0 19 54 48 62 58 43 14 2 0 0 6
22 78 110 136 140 139 140 139 138 117 106 122 132 139 140 139
140 139 139 138 132 123 117 125 139 139 139 139 138 138 137 126
115 94 29 4 6 20 40 36 33 27 14 0 0 0 0 0
0 24 23 33 33 2 0 24 10 0 0 0 0 1 29 34
25 25 24 24 24 24 23 22 21 22 22 23 25 23 20 14
0 0 0 0 0 0 0 17 47 40 6 0 22 33 0 0
0 3 8 0 0 3 24 67 69 69 67 68 35 2 3 1
1 1 3 3 12 42 61 44 37 36 23 5 1 0 0 64
74 76 111 136 139 140 140 137 134 135 136 138 139 139 139 140
139 140 139 139 138 137 138 138 138 139 138 138 138 137 137 128
114 88 29 9 8 18 39 36 31 18 3 0 0 0 0 0
0 25 22 32 33 1 0 22 12 0 0 0 0 0 27 33
25 25 25 24 24 23 23 21 21 21 22 22 25 22 18 14
0 0 0 0 0 0 0 15 47 39 5 0 18 36 1 0
0 0 8 0 0 0 11 64 64 62 62 67 46 28 33 35
37 40 44 46 53 56 62 47 25 22 22 3 3 0 7 89
95 83 114 137 139 140 141 134 134 135 134 137 140 139 140 139
140 139 139 139 139 138 137 138 138 139 139 139 138 138 136 127
114 89 63 86 60 15 40 36 31 20 3 0 0 0 0 0
0 26 22 33 32 2 0 20 13 0 0 0 0 0 24 33
25 25 25 24 24 23 23 22 21 21 22 22 24 25 16 8
0 0 0 0 0 0 0 16 48 40 9 5 22 40 3 0
0 4 12 0 0 0 11 62 53 47 48 64 61 61 63 64
65 67 69 68 67 62 60 41 20 6 9 4 1 1 13 84
105 92 115 137 139 140 140 138 137 135 135 139 139 139 139 139
139 139 138 138 138 138 138 138 138 138 138 138 138 138 137 125
113 92 119 114 93 18 38 36 31 22 4 0 0 0 1 0
0 24 22 34 32 3 2 19 16 0 0 0 0 0 24 33
25 25 24 24 24 23 23 22 22 21 21 22 25 27 22 13
0 0 0 0 0 0 0 14 48 45 37 41 47 45 9 0
0 3 9 0 6 5 10 57 23 6 14 52 64 66 67 67
70 69 68 71 69 66 40 27 15 8 8 0 3 0 18 116
117 101 115 137 138 140 141 140 138 133 136 138 139 139 140 139
139 139 140 139 139 139 138 138 138 139 139 138 138 138 138 127
109 100 129 109 85 18 34 36 32 23 3 1 1 0 3 5
0 23 25 35 34 13 3 18 18 2 1 1 0 0 23 33
25 25 25 25 24 23 24 23 22 22 22 22 25 26 22 15
0 0 0 0 0 0 0 15 49 48 51 52 54 49 11 0
0 0 0 0 14 16 14 56 16 0 3 47 64 67 69 69
68 64 68 71 69 50 18 16 17 9 6 2 3 2 22 126
130 108 116 136 136 141 141 140 139 134 137 135 138 140 140 140
140 139 139 138 138 138 138 138 139 139 139 139 139 139 137 127
104 107 129 124 101 16 28 31 32 25 5 6 2 0 4 13
5 22 28 37 32 18 9 17 15 2 7 6 0 0 21 33
25 25 25 25 24 24 23 22 22 22 21 22 23 25 22 19
0 0 0 0 0 0 0 13 48 47 50 53 55 52 17 3
1 0 0 0 5 13 26 57 28 17 19 34 39 42 50 56
58 58 59 62 57 30 12 16 20 17 9 3 5 3 19 117
137 110 116 132 136 139 140 140 138 134 133 135 139 140 139 140
139 139 138 138 138 138 137 137 138 138 138 138 138 137 130 122
107 109 122 127 104 18 28 29 30 26 16 16 18 15 19 24
22 30 32 37 30 15 18 16 16 5 9 7 3 2 18 26
23 24 24 24 23 22 23 22 21 21 21 20 20 24 20 18
0 0 0 0 0 0 0 11 47 46 41 48 46 44 31 27
30 22 23 25 29 35 43 57 46 42 49 44 42 43 44 45
52 48 47 44 37 25 21 12 12 14 8 3 7 5 21 112
132 109 114 128 137 137 139 138 135 132 133 136 139 140 140 140
139 139 139 139 138 138 137 138 139 139 138 139 138 138 133 122
111 120 116 133 97 12 28 32 29 23 35 39 42 42 42 43
43 45 41 38 28 5 20 17 26 21 21 20 18 18 20 21
24 25 25 24 23 23 22 22 22 21 20 19 21 24 18 19
0 0 0 0 0 0 0 10 47 46 34 31 24 22 23 25
31 45 61 66 68 68 70 71 70 70 71 71 70 71 70 66
60 53 47 39 34 27 21 10 5 4 3 3 8 3 15 109
124 124 112 126 133 134 136 134 131 131 129 133 139 139 139 139
138 139 139 139 138 138 137 139 137 138 138 138 138 137 136 119
118 127 112 127 96 10 20 30 24 18 32 45 46 45 45 44
45 45 46 39 27 0 7 14 25 20 22 21 21 20 21 21
24 24 24 23 23 23 22 21 21 20 21 19 20 22 18 19
0 0 0 0 0 0 0 10 46 44 30 21 12 11 12 21
23 27 39 58 72 76 76 75 74 72 72 71 70 68 67 65
64 61 53 36 31 25 16 5 1 1 4 10 8 1 7 98
115 116 109 122 126 127 127 125 123 123 124 122 133 139 139 139
138 139 139 138 138 138 137 137 137 137 137 138 137 137 134 118
126 133 120 112 76 6 13 24 24 16 27 31 31 30 29 28
27 26 24 33 26 0 2 12 26 23 25 25 24 23 24 23
23 23 23 22 22 22 21 21 21 20 20 19 20 20 19 19
0 0 0 0 0 0 0 9 46 44 19 13 16 21 21 19
24 28 30 35 52 66 61 56 53 51 54 56 56 56 56 56
57 57 52 37 28 23 14 1 0 1 1 10 5 0 1 83
114 118 112 112 119 121 120 117 116 116 116 113 112 120 124 131
134 135 137 138 137 137 137 137 137 137 137 137 137 137 131 116
129 106 127 124 45 1 13 20 26 17 17 13 12 12 11 10
11 9 9 28 26 0 1 11 27 23 26 25 25 25 24 23
22 23 23 22 21 21 21 21 21 20 19 19 19 19 20 19
0 0 0 0 0 0 0 8 45 43 11 3 6 19 23 14
17 22 27 32 40 50 48 46 46 46 46 45 46 46 45 45
43 42 38 32 21 18 11 2 0 0 1 5 3 0 3 54
112 122 103 105 111 111 111 109 108 108 105 102 97 93 96 99
104 111 117 122 125 128 134 137 137 137 137 137 137 137 127 115
136 127 126 110 19 0 6 17 19 19 19 15 14 13 13 12
12 11 11 29 27 4 5 14 27 24 26 25 25 24 24 23
24 23 22 22 22 21 21 21 21 20 19 17 17 20 21 21
0 0 0 0 0 0 0 7 45 43 10 0 0 6 15 16
19 20 25 34 33 35 35 36 35 34 33 33 34 37 36 36
38 34 30 21 15 11 9 4 0 0 4 1 0 0 0 7
39 49 22 88 105 106 105 101 99 98 95 90 86 84 84 85
87 90 93 99 107 114 122 127 129 134 136 133 133 130 118 79
118 131 122 83 3 0 2 19 18 18 23 18 18 16 16 15
13 12 12 32 31 26 35 38 29 23 26 25 25 24 24 23
23 22 22 22 22 21 21 21 20 19 18 17 17 23 21 20
0 0 0 0 0 0 0 6 44 44 13 0 0 6 13 17
19 22 26 42 39 33 31 29 36 34 26 27 29 36 33 35
42 31 19 17 9 16 11 6 0 1 3 0 0 0 2 2
0 0 0 48 97 100 97 92 87 85 86 89 95 102 107 111
112 111 114 113 110 105 103 109 113 120 120 125 126 121 98 16
22 47 26 10 0 0 0 12 18 14 20 21 19 19 19 19
18 15 14 31 30 30 38 37 26 22 25 24 24 23 23 23
22 22 22 22 22 21 21 21 20 19 18 17 18 23 22 21
0 0 0 0 0 0 0 5 43 44 15 0 3 5 12 15
18 20 26 43 35 26 23 21 32 31 20 22 27 38 40 42
41 29 18 10 8 22 13 8 0 5 1 0 0 0 0 3
0 0 0 16 79 91 90 89 86 85 87 91 101 108 115 120
124 123 123 118 112 104 101 99 101 109 115 118 119 112 96 29
1 1 0 2 0 0 0 4 19 16 16 22 20 19 19 19
18 15 14 22 22 19 22 24 23 23 25 25 24 24 24 23
23 22 22 21 20 21 21 20 20 19 18 15 18 23 24 22
0 0 0 0 0 0 0 5 43 44 15 1 5 5 12 15
18 20 26 42 33 24 23 20 31 30 18 21 26 39 44 44
41 26 20 4 13 18 10 8 2 2 0 0 0 0 0 2
0 0 0 4 61 81 87 87 91 95 97 99 102 105 113 120
126 126 125 121 116 112 109 104 101 106 109 111 110 102 102 23
0 0 0 2 0 1 0 0 9 17 19 23 21 19 19 19
18 16 17 21 24 21 20 22 23 23 24 24 24 23 23 23
22 22 22 21 21 21 21 20 20 18 17 14 19 22 24 20
0 0 0 0 0 0 0 4 42 44 16 1 4 3 11 14
18 20 25 42 33 24 22 18 30 30 17 20 26 41 49 45
41 30 19 7 12 6 8 3 2 0 0 0 0 0 0 2
0 2 1 3 55 74 85 93 100 104 106 107 108 108 115 121
127 128 128 124 119 117 116 112 110 106 105 104 98 106 81 7
1 1 3 0 0 2 0 0 1 13 20 24 25 21 19 17
18 16 17 21 23 22 21 23 23 23 24 24 24 23 22 22
22 21 21 21 21 21 20 19 19 18 16 15 20 22 24 21
8 9 9 10 11 11 12 19 43 43 17 1 3 2 12 14
17 20 24 42 35 25 21 16 29 32 17 19 26 40 50 45
42 33 23 16 11 2 9 3 1 0 0 0 0 0 0 2
4 7 9 2 44 89 85 99 105 107 111 111 112 112 119 124
129 132 129 123 121 121 122 118 113 107 105 98 104 109 53 2
2 3 7 0 0 4 1 0 0 6 18 26 31 22 20 19
18 17 18 22 24 23 21 22 23 22 23 23 22 22 22 21
21 21 21 20 20 19 20 19 18 17 15 16 20 23 24 21
45 44 45 45 45 44 44 44 45 43 18 1 2 3 10 14
16 19 24 41 34 24 20 16 29 31 18 19 27 39 49 45
40 27 23 17 4 7 4 1 7 0 1 0 0 0 0 5
14 13 9 0 41 101 98 101 107 106 112 114 114 115 121 125
131 134 130 127 125 126 124 120 114 109 105 104 113 104 22 0
5 5 9 2 0 7 6 4 0 2 13 24 28 26 20 21
18 17 18 22 23 24 23 22 23 23 23 23 22 22 22 21
21 20 20 20 20 18 18 16 14 16 12 18 20 25 23 21
48 47 47 47 46 46 45 43 43 43 19 1 1 1 10 13
17 19 24 40 35 24 22 21 30 33 22 24 30 39 46 44
34 25 17 9 9 10 4 1 7 3 4 0 0 0 0 5
16 3 2 0 45 103 107 108 108 108 110 114 114 116 122 130
133 134 133 132 132 130 124 119 116 112 109 116 117 93 7 1
8 7 9 6 0 5 5 13 1 0 6 17 22 28 21 20
20 17 19 21 23 23 23 22 22 22 23 22 22 21 21 21
20 20 20 19 19 18 18 13 8 10 13 17 19 25 22 18
48 48 47 47 47 46 45 43 44 44 20 0 0 0 7 11
14 17 21 37 41 35 34 34 36 37 35 34 36 38 41 36
24 20 14 6 11 9 4 1 4 3 0 3 0 0 1 1
7 4 1 0 37 104 111 115 112 108 107 112 115 120 125 127
135 136 136 136 133 128 121 117 117 117 120 120 117 76 2 1
12 9 12 9 0 3 4 5 1 0 6 14 24 22 23 22
19 18 19 22 23 23 23 23 22 21 22 22 22 21 21 20
20 19 20 19 17 16 17 18 13 11 17 20 24 24 17 19
46 46 45 45 44 43 43 42 42 39 17 0 1 0 7 11
13 15 19 33 38 37 37 36 36 35 36 35 35 34 33 27
16 14 12 14 11 7 3 4 4 4 2 2 0 2 3 0
4 3 3 0 31 108 114 118 118 113 109 113 117 121 126 134
138 138 138 137 134 125 120 118 120 125 128 123 119 63 1 4
13 14 16 7 0 5 7 2 1 4 10 13 23 22 23 24
23 23 23 24 23 23 23 23 22 22 22 22 22 21 20 20
19 19 19 18 15 14 19 22 19 16 16 15 17 17 22 28
39 39 38 38 39 38 36 37 38 36 14 0 0 1 9 13
16 18 24 40 38 34 34 32 37 33 30 30 30 30 29 22
14 15 11 15 7 5 7 6 5 2 2 1 0 3 1 0
1 8 8 4 30 110 116 119 123 117 111 113 116 120 127 136
139 139 138 138 133 124 119 121 125 132 132 126 116 51 0 3
14 20 13 6 2 6 10 4 1 4 7 12 19 18 24 23
28 26 25 24 23 23 23 23 22 21 21 21 21 20 20 20
20 19 19 17 15 15 16 22 26 21 13 6 0 0 2 2
45 45 45 45 44 42 39 39 41 42 16 0 0 2 10 13
15 18 27 42 31 26 24 23 35 26 22 24 26 29 31 16
18 19 13 9 5 5 9 3 4 0 4 1 0 0 1 2
0 6 11 3 32 113 117 119 125 123 117 115 117 121 127 136
139 139 138 138 133 127 121 122 131 135 134 128 120 48 0 2
17 35 16 1 3 7 6 8 0 1 6 16 18 21 23 26
27 27 26 24 23 22 22 23 22 21 21 21 20 20 20 19
19 18 18 16 14 14 14 15 22 26 13 8 1 0 0 0
40 39 36 34 34 29 27 24 25 24 8 0 0 1 9 13
15 18 25 42 28 23 21 20 33 25 20 21 19 25 23 12
18 19 12 7 4 4 7 6 10 1 4 1 1 0 3 4
0 5 5 0 37 115 120 121 126 128 123 120 119 123 129 136
138 139 138 138 136 129 125 130 135 135 132 130 119 48 0 0
18 37 23 3 3 1 1 4 1 0 1 10 17 21 22 26
27 27 26 24 24 22 22 23 22 21 21 20 20 19 18 18
19 18 18 16 14 13 14 13 12 16 11 12 2 1 0 0
16 16 10 3 8 1 2 0 0 0 0 0 0 1 9 13
15 18 25 41 28 22 21 21 34 26 19 16 17 26 20 11
18 19 18 5 2 11 12 16 13 3 1 1 0 0 1 0
0 2 3 0 43 117 121 123 127 130 127 121 122 126 132 137
139 139 139 139 137 131 131 136 137 136 133 130 118 51 2 2
13 39 26 5 2 1 3 8 2 1 0 5 12 20 23 26
26 26 23 23 22 22 22 22 22 22 21 20 20 19 19 18
17 17 17 16 15 13 14 12 12 11 12 12 1 0 0 0
6 8 6 0 7 0 0 0 0 0 0 2 4 6 10 12
14 17 24 41 29 21 20 20 33 26 17 14 23 24 19 9
19 20 11 1 5 14 18 21 7 5 3 1 0 3 0 0
3 2 1 0 48 118 122 124 127 128 128 122 122 126 134 139
139 139 139 139 137 131 135 137 138 136 136 131 120 50 8 8
14 37 25 3 5 3 5 19 6 0 0 0 5 12 19 22
21 21 21 19 19 21 22 22 22 21 20 20 19 19 18 17
17 17 17 16 15 14 13 11 11 10 11 12 1 0 0 0
13 11 4 0 11 0 0 0 0 0 2 6 6 8 10 12
14 17 23 41 29 21 20 20 34 26 17 19 28 27 18 12
21 12 3 0 6 16 23 15 6 7 6 7 1 2 0 1
7 6 3 0 49 119 124 124 127 131 127 123 124 129 137 138
139 139 139 138 137 135 137 138 138 137 137 132 121 51 16 14
19 35 19 5 7 6 11 26 14 1 0 0 2 5 10 15
19 29 22 18 17 19 21 21 21 21 20 19 18 18 17 17
16 15 15 15 14 14 10 11 10 9 11 11 1 0 0 0
31 22 5 1 12 1 0 0 0 0 3 5 4 7 9 10
14 16 23 40 30 21 20 21 33 26 20 24 28 30 23 14
16 10 0 1 7 17 17 7 5 9 13 13 0 3 6 5
13 14 7 1 49 121 125 124 127 128 126 124 124 129 137 140
139 140 139 138 137 136 137 137 137 137 136 133 122 45 23 20
20 32 13 10 11 4 10 21 20 0 0 1 6 6 4 8
14 17 17 17 19 19 21 21 21 20 19 18 17 16 16 15
16 15 15 15 13 10 9 12 18 15 5 4 0 0 0 0
33 24 6 1 13 2 0 0 1 1 2 5 3 4 6 8
11 14 21 38 34 29 29 29 34 32 29 31 31 30 22 15
10 2 0 4 8 13 11 2 5 12 18 6 1 3 12 13
20 14 9 0 48 121 126 127 128 126 130 123 125 131 138 139
139 139 139 138 138 136 136 138 137 138 137 133 118 38 25 16
21 23 16 12 12 4 5 27 20 1 0 0 8 11 9 5
5 11 15 21 17 21 21 22 21 20 19 19 19 16 14 13
12 14 26 26 24 21 19 18 29 35 20 16 13 14 11 8
20 15 10 12 17 13 12 1 0 1 3 7 3 6 7 8
9 11 17 34 37 35 35 35 35 34 31 31 34 29 12 14
6 2 8 6 11 8 1 2 10 14 16 8 5 6 21 19
23 20 5 0 46 120 128 128 125 127 129 122 122 128 139 139
140 140 139 139 138 134 137 138 138 138 138 134 110 36 21 13
32 24 17 13 13 8 1 13 9 2 0 2 12 17 19 9
9 11 20 29 25 26 30 29 31 32 33 34 32 29 20 6
3 11 35 37 35 34 33 33 34 31 32 29 25 30 27 24
32 33 33 34 34 33 35 9 0 0 2 6 3 8 9 10
12 13 17 31 39 37 35 35 34 34 24 22 22 21 12 11
6 7 8 9 9 3 1 7 14 10 11 6 4 11 28 24
21 12 8 0 43 120 127 127 125 125 124 122 123 128 138 140
140 140 139 139 137 135 138 138 138 138 138 134 94 38 18 12
33 21 19 12 14 5 3 3 2 1 2 12 14 25 31 9
12 17 25 36 36 39 40 38 40 38 38 37 35 33 32 9
0 0 4 5 5 6 7 7 6 4 4 5 9 4 3 2
23 20 17 14 11 10 31 10 0 0 0 6 3 8 10 11
14 17 20 34 40 30 27 25 28 33 20 16 12 14 11 11
11 6 6 14 7 6 2 5 10 10 8 7 1 11 33 26
9 18 15 1 40 117 126 124 125 126 123 119 120 126 137 141
141 141 140 140 137 133 137 138 139 139 138 133 82 41 17 12
27 20 18 7 9 1 4 4 0 0 0 11 21 28 29 10
9 18 26 26 34 38 36 33 34 31 31 30 30 27 25 12
0 0 0 0 0 0 0 0 0 0 0 0 0 0 0 0
0 0 0 0 0 3 24 11 0 0 0 6 2 9 10 11
14 17 21 35 39 25 22 20 26 34 24 16 12 17 16 13
19 10 12 21 20 8 4 4 8 7 12 9 5 14 22 34
5 18 19 8 34 114 125 127 127 126 124 121 119 127 136 141
142 141 141 140 138 134 138 140 140 140 140 130 71 45 18 17
19 12 18 8 4 3 5 6 2 1 4 14 27 29 29 9
16 20 25 22 27 31 31 30 28 27 25 25 23 21 20 15
0 1 0 0 1 0 0 0 0 0 0 0 0 0 0 0
3 2 3 3 3 3 15 10 0 0 0 6 2 9 10 13
15 17 22 35 38 25 22 19 26 34 27 22 16 20 18 14
27 12 11 19 25 4 5 1 8 9 20 13 6 15 14 39
7 14 20 9 27 107 124 128 129 129 123 122 118 127 137 142
142 141 141 141 138 136 139 140 140 140 139 119 69 38 22 20
15 9 16 10 5 8 10 9 4 2 8 25 31 26 23 11
21 22 24 24 23 25 26 27 25 26 23 23 22 21 20 11
0 7 0 1 7 6 6 4 4 3 3 2 1 2 1 0
0 0 0 0 0 0 15 12 0 0 0 4 1 8 9 12
15 17 21 34 40 26 23 20 25 31 26 27 20 23 16 14
25 12 6 12 16 1 4 7 9 18 35 17 10 13 12 32
19 12 19 12 22 93 122 127 129 126 123 122 118 126 135 142
141 141 141 141 139 136 136 140 141 140 135 107 54 30 18 20
12 7 14 7 5 6 10 16 12 8 16 30 29 19 13 6
17 23 20 27 24 26 29 26 25 25 24 23 23 21 19 6
1 8 0 3 8 8 10 9 10 10 8 7 4 4 5 3
0 0 0 0 0 0 11 9 0 0 0 1 2 7 9 11
13 16 20 33 40 25 22 19 24 31 24 25 19 27 21 14
19 10 7 9 8 5 6 9 17 27 33 16 16 10 14 26
28 20 18 18 20 80 115 125 127 124 122 120 119 124 135 139
141 141 141 141 140 134 133 138 140 140 129 85 35 23 19 22
15 9 10 4 8 8 6 21 26 15 19 25 19 7 3 4
5 8 10 6 10 21 29 28 26 24 24 22 22 20 18 3
0 7 0 6 9 10 11 11 10 9 7 6 4 0 0 0
0 0 0 0 0 0 0 0 0 0 0 3 5 7 9 10
13 16 19 31 38 23 20 15 22 24 26 23 21 29 25 14
16 7 12 9 2 10 11 12 26 34 32 15 15 14 18 28
28 26 25 17 18 63 102 117 125 125 122 118 116 121 133 140
142 141 141 140 137 128 129 138 140 138 117 57 29 24 30 26
13 14 9 6 13 16 7 18 34 21 13 23 10 4 0 0
0 5 2 0 0 4 25 28 26 24 22 22 22 20 16 1
0 2 0 6 8 10 8 8 5 3 2 2 1 0 0 0
0 0 0 0 0 1 2 2 2 3 9 16 19 21 23 21
15 13 17 29 37 26 24 15 19 23 25 27 20 28 25 11
16 9 17 9 2 12 16 17 17 30 22 11 20 14 28 27
25 24 26 24 14 50 92 109 122 124 122 116 115 115 125 134
139 140 140 137 129 125 130 139 139 131 96 44 26 27 40 18
17 17 13 9 17 27 16 19 28 19 16 23 7 4 0 0
2 18 5 0 0 1 16 26 25 25 25 23 21 19 14 0
0 0 0 3 5 5 1 1 0 0 2 1 0 0 0 0
16 18 21 24 24 28 31 33 35 33 35 37 39 40 41 41
33 17 15 22 29 27 27 20 15 19 26 25 20 26 21 14
16 15 19 2 1 11 13 15 14 17 12 13 26 16 29 19
29 20 28 33 17 34 87 103 115 121 121 117 115 114 119 126
133 136 134 130 127 124 131 138 137 119 73 34 28 39 32 16
19 18 14 14 20 36 31 16 28 26 14 6 1 2 4 0
5 21 3 0 4 2 10 23 25 24 24 22 21 19 11 0
0 0 0 0 0 0 0 0 0 0 0 0 0 0 0 0
46 46 46 48 45 47 48 48 49 46 42 44 44 45 46 46
46 31 6 7 18 21 21 18 11 12 11 9 13 21 14 15
12 18 9 0 1 5 10 12 8 9 3 12 21 22 31 21
32 13 29 42 17 19 76 102 112 121 121 116 115 116 118 124
128 127 130 130 127 124 132 137 131 95 57 34 33 36 24 17
25 20 17 17 24 33 23 16 24 18 6 0 5 14 7 0
1 3 2 7 10 11 21 23 25 25 24 23 21 18 8 0
0 0 0 0 0 0 0 0 0 0 0 0 0 0 0 0
45 44 46 48 47 42 50 49 50 52 45 43 47 50 50 49
50 45 29 17 25 26 23 19 15 3 0 0 5 16 14 13
10 11 5 1 1 6 8 18 19 11 0 10 13 14 24 21
23 10 23 38 29 13 51 99 108 118 123 118 114 115 119 122
127 131 129 129 126 126 134 135 115 77 54 40 38 33 26 24
24 19 22 20 26 28 16 15 14 5 0 1 16 19 6 0
1 0 8 14 20 22 19 22 25 24 23 22 20 18 6 0
0 0 0 0 0 0 0 0 0 0 0 0 0 0 0 0
46 48 49 55 52 53 50 49 53 54 51 49 47 57 58 51
45 37 29 19 20 21 21 22 23 10 3 4 4 11 6 9
6 7 5 0 2 12 14 30 32 22 6 4 13 7 13 19
19 9 16 26 33 24 33 91 109 118 124 119 115 115 119 121
126 126 126 127 124 127 133 128 97 71 55 45 37 34 31 28
22 21 24 26 23 27 14 9 7 0 0 9 24 16 6 8
1 1 13 22 24 26 20 18 23 25 23 21 21 17 3 0
0 0 0 0 0 0 0 0 0 0 0 0 0 0 0 0
53 56 53 56 53 55 52 50 52 52 51 50 48 46 36 24
18 19 19 20 21 22 23 23 23 22 18 14 10 10 8 10
8 13 7 0 2 15 16 33 41 25 7 1 15 14 8 13
15 14 16 14 26 33 26 65 109 114 124 123 115 115 118 119
123 125 126 127 124 129 136 116 85 70 57 46 38 34 31 22
21 25 22 28 28 24 6 2 3 1 5 16 23 8 19 19
0 0 13 18 25 22 22 17 17 23 22 21 20 15 1 0
0 0 0 0 0 0 0 0 0 0 0 0 0 0 0 0
47 47 45 43 42 40 39 37 35 33 32 30 27 19 14 16
17 18 19 20 22 22 22 22 23 22 20 16 9 8 7 9
8 7 0 0 5 19 14 30 40 15 0 0 5 17 10 7
9 10 18 13 19 21 29 52 100 116 121 126 121 117 118 120
122 124 123 124 125 130 126 99 81 81 66 50 39 31 29 24
18 21 34 23 31 19 3 8 3 1 3 10 16 6 22 17
0 0 5 9 17 19 20 18 15 16 21 20 19 14 0 0
0 0 0 0 0 0 0 0 0 0 0 0 0 0 0 0
20 17 16 14 11 9 7 5 3 2 2 3 10 13 15 18
18 19 21 21 21 21 22 22 22 22 21 17 8 7 9 6
6 2 0 0 7 15 10 18 22 10 5 7 11 13 20 9
4 2 6 13 11 16 25 49 95 120 124 129 128 121 121 122
123 125 126 126 131 129 115 101 87 99 79 53 51 40 35 25
19 12 27 26 18 8 7 12 11 16 3 9 19 3 17 7
0 0 2 4 5 14 17 17 16 14 18 20 19 15 1 0
0 0 0 0 0 0 0 0 0 0 0 0 0 0 0 0
0 0 0 0 0 0 0 0 0 0 0 6 10 12 15 17
18 19 20 20 21 21 21 22 22 22 18 10 12 12 9 5
5 3 0 4 8 5 1 11 16 10 4 6 16 26 20 3
5 2 2 15 13 12 25 53 100 127 128 130 133 128 126 126
127 129 131 132 136 130 122 100 102 108 92 61 62 49 45 27
12 13 15 32 19 2 3 14 30 33 5 10 26 9 21 11
1 0 0 2 6 17 20 22 19 15 14 20 19 20 1 0
0 0 0 0 0 0 0 0 0 0 0 0 0 0 0 0
0 0 0 0 0 0 0 0 0 0 1 8 9 12 15 16
17 18 19 20 20 21 21 22 22 17 10 12 16 16 13 8
2 5 7 6 5 0 0 2 9 7 1 0 4 15 8 0
7 3 5 16 15 15 39 76 124 138 134 135 136 134 132 134
133 135 136 137 137 133 122 105 110 110 83 71 62 46 48 26
13 15 10 31 25 3 0 17 43 37 2 1 8 7 17 11
8 9 14 13 16 21 22 22 21 16 13 17 18 9 0 0
0 0 0 0 0 0 0 0 0 0 0 0 0 0 0 0
0 0 0 0 0 0 0 0 0 0 5 6 10 12 13 14
16 17 18 19 19 19 21 21 19 11 12 17 20 16 13 12
2 3 7 8 6 0 0 0 0 0 2 0 9 11 4 2
9 4 11 17 20 34 76 121 140 142 140 140 140 139 138 139
138 139 139 140 139 136 125 113 117 104 80 57 48 44 41 26
17 17 17 30 40 9 0 13 24 12 0 0 1 2 13 12
6 12 18 12 20 19 21 22 21 16 15 14 19 8 0 0
0 0 0 0 0 0 0 0 0 0 0 0 0 0 0 0
0 0 0 0 0 0 0 0 0 0 5 7 10 11 13 14
16 16 18 19 20 20 20 20 12 10 16 21 21 16 12 15
6 3 7 9 11 11 5 0 1 0 6 4 7 5 12 15
10 12 19 21 49 59 114 140 142 141 142 141 141 140 140 140
140 140 141 140 141 139 133 128 118 84 54 43 46 56 41 21
17 21 26 29 37 20 1 7 11 5 0 0 0 5 15 13
6 13 19 11 22 18 19 23 19 19 17 13 20 6 0 0
0 0 0 0 0 0 0 0 0 0 0 0 0 0 0 0
0 0 0 0 0 0 0 0 0 1 3 7 9 10 12 13
15 15 17 18 19 20 21 15 10 15 20 20 21 19 13 13
15 4 11 14 16 17 16 9 8 9 12 5 2 7 11 17
13 16 7 14 66 102 139 141 141 141 138 140 141 140 140 140
140 141 140 140 140 139 140 134 114 81 48 57 70 39 25 19
14 18 16 19 21 24 3 5 7 7 4 0 0 13 17 12
7 16 19 14 23 16 18 20 18 23 16 12 17 3 0 0
0 0 0 0 0 0 0 0 0 0 0 0 0 0 0 0
0 0 0 0 0 0 0 0 0 2 4 7 9 10 11 13
14 16 16 18 19 20 19 10 11 18 20 20 20 20 16 11
18 12 17 19 19 19 21 20 15 13 11 3 0 11 16 16
13 8 5 15 58 127 143 142 142 142 142 142 142 141 141 141
141 141 141 141 140 141 140 131 113 98 69 63 40 12 9 8
8 10 9 11 13 9 2 0 6 12 15 4 1 18 20 13
13 19 14 17 21 13 21 19 19 24 18 12 12 1 0 0
0 0 0 0 0 0 0 0 0 0 0 0 0 0 0 0
0 0 0 0 0 0 0 0 0 1 4 7 9 9 11 13
14 14 16 17 18 19 15 9 14 19 20 20 21 21 20 11
16 14 17 22 22 20 21 23 22 21 18 9 0 14 20 22
17 17 20 21 32 109 143 142 142 142 141 141 141 141 141 141
141 141 141 140 140 140 139 129 125 116 103 100 84 26 6 1
3 2 1 4 2 2 0 0 1 13 15 4 4 20 20 17
18 19 10 21 20 9 21 17 22 23 20 13 9 0 0 0
0 0 0 1 2 2 1 0 0 0 0 0 0 0 0 0
0 0 0 0 0 0 0 0 0 1 4 7 8 9 10 12
13 14 16 17 18 19 11 10 18 18 19 21 23 23 22 12
11 17 17 24 23 23 24 22 23 23 23 17 6 16 21 23
23 23 23 22 23 66 139 143 143 142 142 142 141 141 141 141
141 140 141 140 140 140 140 140 137 128 120 116 94 12 6 2
2 0 5 10 4 0 2 3 5 13 16 2 8 21 20 21
22 14 11 24 15 9 20 17 23 23 21 14 9 0 0 0
0 0 1 4 5 4 4 4 3 4 3 2 2 2 1 0
0 0 0 0 0 0 0 0 0 1 4 7 8 9 10 12
14 14 16 17 18 17 10 13 17 18 20 21 22 22 22 17
10 19 15 24 23 22 22 21 21 21 22 20 11 14 21 22
24 24 23 23 23 57 95 143 142 142 142 142 142 141 141 141
141 141 141 141 141 140 139 140 139 138 129 111 47 4 6 11
14 11 15 14 7 1 7 10 15 14 14 0 17 23 21 21
21 11 15 23 10 13 18 18 24 22 21 16 9 3 0 0
0 0 1 3 3 3 3 3 3 3 4 6 10 12 11 9
0 0 0 0 0 0 0 0 0 0 4 6 7 7 10 11
12 14 16 17 18 15 11 15 16 18 20 21 22 23 23 21
9 18 19 23 25 23 20 21 22 20 20 21 12 12 21 21
24 24 24 24 23 57 49 107 144 143 142 142 142 142 142 141
142 142 141 141 141 140 140 140 140 139 129 64 16 14 14 19
21 20 19 19 7 2 10 17 22 16 12 1 22 24 25 22
17 10 18 23 6 18 17 20 25 22 20 17 9 6 0 0
0 0 0 3 3 3 3 2 2 2 4 7 12 16 17 16
0 0 0 0 0 0 0 0 0 0 4 5 7 8 10 11
12 13 15 17 17 13 12 18 14 16 20 20 22 24 23 23
12 15 22 23 24 23 19 22 23 22 22 24 14 12 18 22
23 26 25 24 23 25 37 37 113 143 142 142 142 142 141 142
142 141 142 142 141 141 141 140 140 134 80 21 19 21 20 23
23 21 20 22 9 4 11 17 21 16 5 5 22 24 25 23
11 12 22 22 9 20 17 22 23 22 20 17 11 9 0 0
0 0 1 3 3 3 3 3 3 3 4 8 14 17 18 17
0 0 0 0 0 0 0 0 0 0 5 6 7 7 9 10
12 13 15 17 17 12 14 19 13 15 20 20 22 22 23 23
18 10 22 22 25 25 19 23 23 21 20 24 14 12 16 23
22 24 25 23 24 21 33 20 34 100 142 142 142 142 142 141
141 141 141 141 141 140 140 140 136 81 25 20 25 23 23 24
23 22 23 24 6 6 12 18 22 17 1 9 24 23 25 17
9 16 23 20 16 18 19 22 22 22 21 19 12 11 1 0
0 0 0 3 3 3 3 3 3 3 5 9 16 17 17 18
0 0 0 0 0 0 0 0 0 0 4 5 7 8 9 11
12 13 15 17 18 12 16 19 12 15 20 17 22 23 23 23
21 9 20 22 24 25 19 22 23 20 18 23 14 11 15 22
25 20 25 25 24 23 37 20 20 27 65 127 143 142 142 142
142 142 142 141 141 142 141 130 67 23 20 23 25 23 24 24
24 20 25 21 5 8 12 18 22 14 0 10 23 25 23 10
11 19 14 16 20 17 22 22 22 22 21 18 12 10 4 0
0 0 1 3 3 3 3 3 2 3 6 12 16 17 18 18
0 0 0 0 0 0 0 0 0 1 5 5 7 7 9 10
11 13 15 16 16 11 17 18 12 12 19 17 21 22 22 23
23 12 16 24 24 24 19 21 21 20 16 24 16 11 15 20
26 22 21 26 26 26 30 32 20 23 24 40 93 138 142 141
142 142 141 141 141 140 109 46 24 22 25 26 24 23 25 24
18 21 26 21 6 10 13 18 23 10 0 13 25 24 18 9
13 16 9 16 21 18 24 22 22 23 21 19 12 10 7 0
0 0 1 3 2 3 3 3 3 4 6 12 17 18 18 18
0 0 0 0 0 0 0 0 0 0 4 6 7 8 9 10
12 13 15 16 16 12 18 17 13 12 18 18 18 22 22 23
23 15 11 24 25 24 20 23 23 18 17 24 15 12 17 19
26 24 19 21 26 26 25 37 23 22 22 22 26 43 75 98
119 129 132 117 89 57 29 25 22 25 26 25 24 25 25 21
16 25 24 20 10 11 13 19 23 7 0 15 25 23 11 10
15 8 8 18 19 21 24 22 23 23 21 18 12 9 7 0
0 0 1 4 4 5 6 6 6 5 9 15 17 17 18 18
0 0 0 0 0 0 0 0 0 1 4 6 6 8 9 10
11 12 14 15 15 12 18 17 13 11 17 19 16 23 23 23
23 18 7 22 24 22 19 21 22 15 16 22 15 12 18 17
23 25 21 17 20 24 25 39 25 23 23 22 23 25 28 31
32 32 40 26 25 22 22 23 24 25 24 25 26 25 23 16
20 26 22 18 14 11 14 19 22 3 0 16 25 20 8 10
17 2 8 21 19 22 23 21 21 22 22 19 13 9 8 2
0 0 2 6 6 8 10 10 8 6 10 15 17 17 18 17
0 0 0 0 0 0 0 0 0 1 4 5 6 7 8 9
10 11 14 15 13 12 19 18 14 11 14 20 14 21 22 24
24 22 8 17 23 22 20 20 21 12 17 23 15 12 20 15
22 24 23 19 17 20 25 37 31 24 24 23 23 22 26 27
27 31 29 24 22 21 21 23 25 23 24 25 25 23 20 15
22 24 20 17 16 11 14 21 22 2 0 19 25 16 10 12
17 0 14 22 20 22 23 23 21 22 21 19 14 9 9 4
0 0 2 7 9 11 13 12 10 6 10 15 17 17 18 17
0 0 0 0 0 0 0 0 0 1 4 5 5 6 7 8
10 11 13 14 12 14 18 18 16 12 13 19 16 16 23 21
23 22 12 13 23 22 19 19 20 13 19 22 16 12 22 16
19 25 24 21 17 18 18 30 48 24 25 24 22 23 24 27
26 35 21 24 22 20 20 22 24 24 25 26 23 21 19 14
24 23 19 18 16 11 14 22 22 1 1 20 24 11 10 14
12 1 22 22 20 21 22 21 21 21 22 20 13 10 9 5
0 0 2 7 11 14 14 13 9 6 11 16 17 17 18 17
0 0 0 0 0 0 0 0 0 1 4 4 5 5 7 8
9 10 13 14 11 14 17 17 17 13 12 16 18 11 21 21
22 22 16 10 21 21 22 19 18 12 19 23 16 14 22 17
18 24 24 23 18 17 19 19 65 23 24 24 23 23 25 27
30 30 21 23 22 23 23 24 25 25 25 22 22 24 12 18
25 23 17 19 18 11 12 21 24 2 2 20 22 8 8 14
7 7 23 22 21 21 20 21 21 22 22 21 13 7 9 9
0 0 2 5 9 13 14 12 8 7 13 16 17 17 17 17
