P2
128 120
156
22 13 0 0 0 0 0 0 1 3 45 59 54 63 61 10
0 0 0 0 0 0 0 0 10 71 72 63 31 32 32 32
34 28 3 3 9 12 12 12 22 14 24 17 11 6 16 25
20 23 47 59 4 0 7 18 22 13 9 4 47 66 62 8
16 33 24 34 41 48 55 60 44 49 51 54 52 55 57 56
54 20 19 25 40 40 39 38 37 36 43 48 45 44 40 39
38 40 36 33 31 30 28 27 27 26 26 25 30 36 35 31
31 32 30 25 21 21 20 20 20 19 19 18 19 19 20 24
20 13 0 0 0 0 0 0 0 0 28 67 54 64 62 11
0 0 0 0 0 0 0 0 9 70 72 66 32 36 37 36
34 27 10 0 0 8 19 10 2 1 3 6 4 3 3 9
11 8 44 60 5 14 13 25 57 28 0 8 48 66 63 7
9 12 0 0 4 8 3 50 47 51 53 55 54 57 56 56
56 25 19 27 44 41 41 39 38 36 42 49 46 43 42 42
43 45 39 38 39 37 34 31 28 28 27 26 28 23 20 23
29 31 32 27 21 21 21 20 20 18 19 18 18 19 20 24
2 1 0 0 0 0 0 0 0 0 16 71 60 65 64 12
0 0 0 0 0 0 0 0 8 70 73 66 28 14 30 24
6 2 0 2 5 6 31 18 16 7 13 5 0 2 1 0
6 10 43 63 6 21 27 34 49 44 29 1 43 69 64 8
0 6 5 0 16 22 9 49 46 50 51 51 55 56 56 56
55 29 20 28 46 43 42 42 41 41 43 24 26 37 43 45
45 46 39 19 22 30 35 36 34 34 34 31 28 18 8 5
3 6 11 24 22 21 20 20 20 19 19 19 18 19 19 24
4 1 0 0 0 0 0 0 6 21 42 71 64 66 67 13
0 0 0 0 0 0 0 0 7 70 74 69 30 0 5 2
5 2 1 2 6 8 22 26 20 8 10 7 2 5 0 0
0 3 44 66 9 19 29 44 47 22 40 5 36 69 68 13
0 8 0 0 27 25 16 51 38 20 31 39 50 55 56 53
54 30 20 27 46 44 34 34 42 46 50 8 0 2 16 23
24 29 40 6 0 0 1 8 13 20 29 32 30 17 3 3
5 3 0 20 22 21 21 21 20 20 20 20 20 20 20 25
13 1 1 5 15 25 41 57 68 71 72 72 66 66 68 31
15 9 5 3 1 0 0 0 8 69 74 71 46 17 0 4
4 1 9 4 11 3 7 22 32 20 19 10 11 3 7 4
5 7 48 67 10 2 18 37 44 31 26 1 33 70 70 16
2 11 2 0 20 20 16 51 35 0 4 7 10 12 23 20
47 33 20 25 41 46 46 44 42 49 51 12 0 1 8 12
14 11 38 6 0 0 0 0 0 0 0 1 29 17 1 1
0 2 0 20 23 22 22 21 21 20 20 20 20 20 20 25
52 42 52 51 49 46 49 61 71 71 72 73 65 55 62 65
65 67 50 59 59 56 53 48 48 72 74 73 48 15 1 0
0 1 3 2 2 14 15 23 41 22 25 26 15 2 9 11
4 5 49 66 13 0 0 4 15 6 0 0 30 71 71 19
0 8 1 3 5 1 3 50 35 0 0 0 0 0 0 0
35 33 19 16 1 7 17 27 38 46 49 16 0 0 5 5
9 8 37 10 0 0 0 0 0 0 0 0 29 15 0 0
0 0 0 20 23 22 21 21 21 20 20 19 19 20 20 25
64 57 56 58 58 64 68 70 72 72 73 73 68 54 61 65
58 55 63 67 67 66 61 58 53 35 38 48 46 12 0 0
0 1 2 5 2 25 29 30 30 31 22 38 11 0 0 2
6 2 38 64 17 0 0 0 0 0 0 0 27 71 72 23
0 4 3 8 11 0 0 48 34 6 6 0 3 0 0 2
33 34 20 15 0 0 0 0 0 2 12 18 0 0 1 1
1 5 31 8 0 0 0 0 0 0 0 0 27 11 0 0
0 0 0 19 24 22 22 21 20 20 19 19 20 20 20 25
54 70 69 68 68 68 70 71 68 61 39 26 37 25 13 19
37 36 48 56 58 58 61 59 50 17 21 40 48 14 0 0
0 0 0 0 0 33 37 36 43 28 21 30 8 0 1 7
7 6 40 64 19 0 0 0 0 0 0 0 25 73 73 28
0 12 28 24 25 0 1 48 34 7 9 6 25 3 0 0
34 34 20 15 0 0 0 0 0 0 3 17 0 0 0 0
0 4 35 9 0 0 0 4 6 0 0 0 26 10 0 0
0 0 0 18 25 22 22 21 21 21 20 20 20 21 21 26
53 69 66 65 62 60 52 33 37 43 15 18 38 15 0 4
4 6 19 25 22 2 8 34 37 53 52 52 47 7 0 0
0 1 5 5 0 13 16 26 54 6 9 11 6 2 3 6
8 10 46 65 33 15 12 10 9 8 5 5 25 73 74 34
5 6 5 12 20 8 2 49 33 7 10 1 22 16 0 0
35 33 20 15 0 0 0 0 0 0 2 15 0 0 0 0
0 4 38 11 0 0 0 5 10 6 2 0 24 10 0 0
0 0 0 16 26 22 23 21 21 20 20 20 20 21 21 26
56 47 45 51 53 55 57 56 56 51 38 36 49 14 0 0
0 0 1 10 3 4 18 28 64 64 59 43 23 0 0 6
6 0 7 4 9 6 1 7 42 0 0 4 7 6 8 8
2 7 42 65 68 67 64 63 60 58 57 55 59 68 70 37
9 9 19 14 3 2 0 46 32 6 10 3 9 7 0 0
34 32 20 16 0 0 0 9 4 0 1 13 0 1 0 0
0 1 35 15 0 0 0 7 11 9 8 1 22 14 0 0
0 0 0 13 27 22 22 22 21 21 20 21 21 22 22 25
33 33 37 41 47 52 52 53 56 58 60 45 65 13 0 1
0 0 0 4 0 4 7 24 73 69 63 9 6 0 2 19
5 5 7 3 6 3 5 11 49 5 0 5 1 0 0 0
0 0 38 72 71 69 67 60 61 58 53 46 36 31 35 3
0 2 11 16 8 6 1 45 29 2 7 7 1 4 0 0
35 33 20 17 0 7 5 9 5 0 0 12 0 2 0 0
0 4 35 17 0 0 0 6 10 8 9 1 20 15 0 0
0 0 0 11 29 22 22 22 21 21 21 20 21 21 22 26
5 5 9 4 1 0 1 2 4 21 63 66 65 22 1 1
0 0 0 1 0 2 2 25 75 71 65 12 5 0 0 0
1 8 4 3 7 7 5 3 52 8 3 2 2 0 0 0
0 0 45 75 32 11 17 23 29 39 48 54 61 50 50 42
36 28 22 22 10 3 3 44 30 0 6 10 0 0 0 0
35 34 21 17 4 13 3 8 3 0 0 14 1 0 0 0
0 12 33 20 0 1 0 0 3 8 8 0 17 33 24 15
10 5 2 10 29 23 22 22 22 20 21 20 21 22 22 26
1 0 0 0 0 6 22 10 0 17 65 66 66 27 35 51
20 8 0 0 1 0 0 29 75 70 65 13 13 15 15 18
24 20 12 4 2 0 8 10 54 4 11 4 8 4 0 0
0 0 42 74 30 1 1 2 6 5 8 9 32 56 54 55
59 56 57 61 58 53 49 51 47 20 14 19 18 14 8 6
37 33 21 17 7 5 0 0 3 1 0 22 4 1 4 1
0 6 35 38 26 19 12 5 0 0 3 0 15 36 36 33
33 36 38 38 29 22 22 22 21 21 21 20 21 22 22 26
0 0 0 0 0 13 43 24 2 16 67 68 69 48 44 42
48 10 3 12 37 8 0 29 74 68 64 12 0 0 1 8
9 8 28 26 32 38 41 30 58 23 19 13 12 8 5 0
0 5 47 68 40 20 15 20 24 21 16 13 21 37 41 28
28 32 36 41 45 47 52 49 71 58 36 47 45 53 50 47
47 30 20 18 1 0 0 0 0 0 0 44 48 36 32 30
21 13 36 40 21 24 29 30 31 26 24 21 29 39 36 34
34 37 40 41 31 22 23 23 21 21 20 20 21 21 22 25
0 0 0 0 0 12 37 27 5 15 69 69 70 43 11 28
30 5 23 28 51 29 4 30 73 67 64 13 2 0 0 8
11 10 47 43 39 54 59 53 42 5 10 16 25 25 22 11
12 22 38 32 25 21 19 21 21 22 23 21 24 23 22 19
21 23 27 25 23 12 32 59 67 51 37 48 55 58 57 57
55 31 20 19 0 0 0 0 0 0 0 46 53 40 47 48
52 48 50 36 11 12 12 11 11 11 12 18 24 22 20 26
29 32 34 34 30 22 23 23 22 21 22 21 22 22 22 26
0 0 0 0 0 10 33 28 9 17 71 71 69 16 0 1
10 19 17 22 37 13 1 31 73 69 66 13 2 0 3 8
8 20 49 48 46 61 67 61 49 1 0 1 14 28 32 20
17 17 16 12 13 13 16 20 19 18 20 18 25 29 28 29
24 31 21 19 21 19 34 57 58 43 43 52 55 58 59 61
59 32 22 23 14 7 1 0 0 0 1 48 44 44 50 51
55 50 40 31 13 13 12 12 10 8 7 6 4 4 5 6
10 26 23 18 20 24 25 24 24 23 23 22 23 23 22 26
0 2 1 0 10 4 30 36 29 19 72 71 68 8 9 35
14 8 17 10 2 4 1 35 75 70 68 14 1 1 7 3
2 16 42 41 48 71 78 68 54 3 0 0 11 21 16 9
11 9 8 11 12 13 16 21 24 26 27 24 20 20 30 37
30 35 33 19 22 23 31 46 46 30 21 29 34 34 38 43
55 34 24 27 48 54 50 40 31 23 17 46 35 44 49 50
54 52 44 37 16 15 14 10 9 9 8 7 6 6 7 6
9 25 18 24 23 25 25 24 24 23 23 23 23 24 24 28
0 11 10 5 14 10 25 39 42 21 72 72 67 8 5 12
0 0 1 1 1 2 2 37 76 72 71 15 4 13 10 1
5 16 26 37 51 76 80 74 62 5 0 4 12 7 11 13
12 8 6 4 9 17 20 21 25 26 27 30 29 30 33 40
46 39 39 30 24 24 25 37 40 30 17 15 13 3 1 6
38 36 25 27 49 58 57 54 53 53 55 51 22 30 40 44
49 50 45 40 19 15 13 9 8 7 9 9 9 8 9 10
14 27 6 15 30 28 26 16 20 24 24 23 24 24 24 28
0 0 0 8 13 7 18 23 24 20 73 72 67 7 0 0
0 2 2 1 0 1 1 37 77 73 71 16 0 0 11 0
8 12 1 24 49 75 77 73 64 7 1 10 5 9 10 15
17 13 9 13 17 18 25 27 26 30 36 39 50 52 43 41
46 44 44 42 30 28 28 30 31 32 26 19 10 4 2 4
33 40 26 25 48 58 58 55 55 54 56 49 5 1 1 4
10 17 20 42 19 14 10 0 0 0 3 11 11 5 7 11
14 29 36 34 35 34 33 14 11 26 25 24 24 23 18 25
0 0 0 9 28 7 2 7 3 19 73 71 67 8 1 0
0 1 1 1 1 1 1 39 75 72 70 17 1 3 10 4
13 18 9 26 42 73 74 71 63 5 8 6 11 11 12 13
12 12 17 18 19 25 33 35 38 38 30 36 51 63 55 46
45 41 37 41 36 27 30 29 34 38 34 24 14 16 29 26
35 43 29 27 40 48 48 48 50 52 55 45 2 0 0 0
0 8 18 44 17 12 10 1 0 0 0 0 1 0 0 1
3 30 35 20 22 19 27 30 29 24 24 24 24 12 4 22
0 0 0 10 48 13 0 1 1 20 77 70 69 63 61 56
49 42 35 30 26 19 15 44 73 70 70 18 1 5 6 3
5 10 9 13 32 71 71 70 64 16 13 15 14 19 15 13
14 14 14 14 14 21 23 27 35 49 51 47 52 59 54 55
44 49 40 40 43 36 31 36 41 44 41 28 20 23 35 36
34 39 32 30 32 33 36 39 38 38 48 42 1 0 0 0
4 0 9 45 16 11 7 1 0 3 2 0 0 0 0 0
1 28 36 21 18 24 21 22 24 24 24 24 24 16 8 22
1 0 0 17 44 19 0 0 0 20 62 50 62 73 81 78
74 70 67 67 72 71 70 72 73 69 68 19 0 0 0 1
2 1 2 2 30 69 71 70 58 15 15 21 17 20 17 18
18 18 18 19 22 26 32 36 39 46 54 52 52 50 53 55
54 55 57 54 50 52 46 47 53 48 40 33 28 20 34 38
34 36 30 28 29 27 28 37 35 36 49 42 1 0 0 0
1 0 4 45 5 3 0 0 0 5 7 1 0 0 0 0
0 29 37 18 12 27 23 19 23 25 24 24 24 23 17 25
55 5 0 24 36 21 0 0 0 14 43 54 61 68 82 81
78 77 73 72 75 74 75 74 72 69 66 20 27 29 29 28
26 25 24 17 40 77 93 93 78 15 15 11 11 14 17 18
18 20 21 22 23 20 18 24 40 57 61 48 41 36 41 52
63 76 85 88 86 80 74 70 68 74 54 37 29 19 10 7
19 27 25 27 27 32 35 38 40 43 49 42 1 0 0 0
0 0 7 45 2 0 0 0 0 0 8 10 3 0 0 0
0 28 38 17 8 14 12 19 23 24 23 24 24 23 20 22
67 22 0 26 31 21 0 0 5 33 43 56 64 74 75 71
70 67 67 71 70 72 76 76 76 75 73 55 69 69 70 74
71 60 63 66 85 135 108 102 95 19 14 18 18 13 14 16
17 23 25 26 25 27 27 30 37 43 49 46 43 56 74 85
102 112 119 123 121 113 109 100 97 99 93 60 36 27 9 2
20 28 28 28 11 2 4 9 13 20 24 34 1 0 0 0
0 0 8 44 2 0 0 0 0 4 8 11 9 3 0 0
0 26 39 21 11 15 14 15 22 23 23 23 23 23 20 20
58 56 34 45 46 35 22 16 25 40 44 56 61 67 64 69
72 69 71 55 34 41 54 63 65 67 73 75 61 74 76 80
68 57 61 76 128 137 122 121 43 12 16 20 18 20 16 18
20 17 22 29 35 38 40 44 52 64 61 65 72 79 95 112
121 129 137 141 142 140 136 126 118 114 113 103 60 30 13 5
21 37 36 31 12 0 0 1 0 0 0 20 1 0 0 0
0 0 7 41 0 0 0 0 0 15 16 15 8 4 0 0
0 25 39 24 17 11 5 14 21 24 24 23 23 23 20 19
34 74 64 63 63 72 73 57 12 4 12 16 14 16 19 16
17 18 63 43 3 6 1 17 36 12 54 75 79 74 71 76
64 63 67 107 145 139 125 91 18 11 13 12 18 22 24 23
21 20 28 35 37 45 53 58 68 74 79 86 93 98 108 117
134 142 142 142 141 141 141 140 138 129 125 122 104 49 21 7
22 43 35 30 14 0 0 2 0 0 0 19 1 0 1 13
4 0 6 39 0 0 0 0 0 6 13 12 0 0 0 0
0 21 39 25 16 5 3 6 20 23 23 24 23 22 17 19
11 72 40 18 22 27 32 31 2 0 2 0 0 1 2 0
1 2 58 51 8 21 2 13 32 10 52 75 80 71 67 67
64 67 74 120 146 124 37 17 12 14 16 11 15 20 22 30
34 33 39 46 54 63 69 74 80 81 85 94 107 112 121 128
140 143 142 142 142 142 142 141 141 140 137 134 126 97 42 15
20 45 35 31 15 0 2 10 5 1 0 18 2 0 11 21
11 1 6 39 0 0 0 0 0 0 4 9 0 0 0 0
0 18 39 24 9 1 1 4 19 24 23 24 24 22 16 22
0 57 49 1 2 0 3 22 0 0 0 1 0 2 5 0
5 4 54 57 14 28 4 12 28 40 62 77 78 24 12 25
53 51 84 145 145 131 18 4 8 11 15 17 20 20 24 37
43 45 47 53 57 64 69 71 75 84 97 103 111 120 126 137
142 143 142 142 143 142 142 141 141 142 141 140 135 121 84 38
31 46 30 29 14 0 6 20 14 6 0 18 3 0 16 17
15 3 6 37 0 4 0 0 0 0 5 13 0 0 0 0
0 16 39 19 4 4 0 6 17 24 24 24 24 23 17 25
1 33 67 17 6 1 17 25 0 0 0 3 1 1 6 0
1 6 50 63 1 2 23 36 35 71 71 78 77 18 1 20
47 18 86 147 129 39 7 5 9 9 11 18 19 27 33 40
50 53 58 61 66 71 74 77 84 95 100 106 119 130 138 141
143 142 143 144 143 143 142 142 142 142 142 142 140 134 117 68
53 53 33 28 15 0 11 24 16 10 0 20 40 34 39 35
33 29 27 39 0 0 0 0 0 0 4 14 0 0 0 0
0 11 40 14 0 1 0 13 17 23 25 24 24 21 18 24
32 30 73 39 20 5 16 22 0 0 3 12 7 0 2 0
0 6 49 65 2 1 14 47 37 70 72 77 78 19 1 50
127 107 118 138 32 5 4 7 13 14 11 13 17 28 41 46
51 49 47 49 57 66 70 73 84 95 102 118 126 136 141 142
143 143 143 142 142 142 142 141 141 141 141 141 140 140 129 86
49 52 32 27 17 0 5 8 5 4 0 18 45 43 49 46
46 50 53 44 6 3 6 0 0 0 5 16 0 0 0 0
0 5 38 12 0 0 0 3 17 23 24 24 24 20 21 25
41 44 73 53 18 4 16 22 1 2 9 9 0 0 0 0
0 0 34 71 11 12 10 16 35 61 67 78 78 21 13 125
141 128 117 118 9 10 6 10 11 16 16 15 15 18 22 32
38 46 53 50 53 62 70 81 93 99 110 122 134 141 143 142
143 144 143 143 143 143 142 142 142 141 142 141 141 140 136 110
50 48 32 28 25 16 3 7 3 3 0 16 47 46 47 46
46 54 55 51 32 31 31 25 21 21 19 20 12 10 8 7
7 11 31 17 6 5 8 0 9 23 25 24 24 18 22 26
38 45 68 69 19 0 17 30 13 13 19 22 0 0 0 0
0 0 28 76 12 7 4 7 23 49 66 79 78 24 59 144
114 101 77 67 5 7 9 12 12 14 12 10 12 15 18 22
32 38 43 43 49 54 63 82 96 104 113 128 138 143 143 143
144 143 143 143 143 143 143 143 143 142 141 142 142 141 140 126
58 42 32 30 30 14 1 7 1 1 0 14 40 39 42 41
42 46 46 46 35 35 36 34 32 33 32 30 28 24 20 18
18 20 32 28 19 16 11 6 8 22 24 24 24 17 23 26
21 37 44 72 29 0 18 31 15 23 36 25 0 12 15 4
2 5 27 78 12 0 0 3 9 45 65 79 78 56 137 142
125 116 48 15 6 11 13 13 16 13 11 15 15 14 12 17
26 33 44 58 64 61 75 93 105 113 128 139 143 143 142 143
143 142 142 143 143 143 143 142 142 142 142 142 141 142 141 133
71 38 31 31 27 7 0 4 2 0 0 16 44 39 39 40
39 37 31 32 36 37 38 37 34 34 34 33 32 33 34 30
26 25 33 41 38 37 35 32 26 22 24 23 23 17 23 26
17 24 44 65 53 1 21 32 14 22 33 26 0 4 9 8
10 8 32 80 18 0 0 2 11 48 59 77 77 106 145 119
107 124 53 12 2 2 7 11 18 11 15 14 12 9 8 11
17 30 48 60 76 89 89 108 114 121 134 143 143 143 143 143
142 143 142 142 143 142 142 143 142 142 142 142 142 141 141 136
81 37 33 31 30 18 11 8 6 2 0 15 47 38 38 37
37 37 37 38 40 38 40 44 44 38 33 33 31 38 42 39
35 34 34 28 24 24 26 26 26 23 24 24 24 21 21 27
19 25 39 60 67 11 24 33 14 24 32 27 1 1 8 3
0 7 35 80 25 0 3 4 16 24 55 75 76 119 137 115
138 104 59 13 5 7 7 11 15 16 12 10 9 15 15 13
20 25 41 60 75 89 99 103 106 117 137 143 142 143 143 143
143 142 143 142 143 143 142 142 143 142 141 142 142 141 141 137
88 36 33 30 36 50 51 47 45 47 46 46 51 40 41 40
40 40 42 45 44 40 43 46 50 36 33 29 31 41 42 39
36 36 34 29 20 16 15 14 15 22 24 24 24 18 22 27
42 57 42 47 72 30 25 34 15 23 28 29 1 2 18 2
0 13 27 79 39 12 19 6 17 19 57 72 72 116 146 141
114 98 32 5 10 20 18 12 12 15 16 14 12 15 25 28
30 35 40 52 71 83 98 108 117 130 140 141 143 143 143 142
142 142 142 142 142 143 143 142 142 142 142 141 142 142 142 139
100 37 32 31 37 60 60 59 58 58 57 56 54 43 38 40
37 38 45 48 48 40 43 45 39 38 35 32 26 34 38 37
36 38 36 33 27 22 21 19 22 23 25 24 23 16 25 27
69 73 64 71 73 53 24 37 17 23 25 30 1 0 0 0
0 3 12 77 44 4 7 4 10 3 54 71 71 93 147 138
87 66 7 10 16 21 22 12 10 18 15 17 19 16 22 30
38 41 45 52 68 80 90 105 115 124 135 142 143 143 142 143
142 142 142 142 142 143 142 142 143 142 142 142 142 141 141 140
110 38 30 32 35 56 57 57 58 57 58 58 56 18 21 14
12 14 19 31 49 41 35 17 22 25 23 24 30 28 6 2
4 9 13 18 31 25 25 27 27 29 29 24 23 17 25 27
74 75 72 72 71 63 29 37 8 11 9 7 2 4 6 9
14 19 29 77 53 1 5 2 6 5 57 71 68 69 145 131
76 38 13 13 15 19 20 20 10 13 14 19 20 20 25 34
40 52 57 63 74 89 94 102 109 120 132 143 142 143 143 143
143 142 142 142 142 142 143 142 143 142 142 142 142 142 141 140
120 39 30 33 29 34 35 34 34 34 35 36 41 9 0 0
0 0 0 8 47 39 14 0 0 2 6 10 33 29 3 0
0 0 4 11 26 19 22 25 28 31 34 27 23 18 25 27
74 73 70 68 49 14 21 64 51 56 60 63 68 72 75 78
81 83 83 85 67 26 29 27 26 24 64 72 68 41 137 121
59 26 13 10 10 13 23 18 11 14 17 22 23 26 26 35
44 48 56 64 70 80 90 95 107 118 136 143 143 143 142 143
143 143 143 142 143 142 142 142 142 142 142 142 142 141 141 140
127 50 29 32 31 43 43 41 39 38 36 35 38 13 7 0
0 0 4 14 47 32 1 0 0 0 0 12 34 32 4 0
0 0 2 11 16 0 0 0 0 1 33 28 22 20 25 27
72 69 56 23 2 0 17 80 81 81 81 82 84 84 84 84
85 85 85 85 79 61 73 74 73 73 74 58 46 27 95 96
35 14 15 12 9 11 16 26 13 9 12 18 20 28 32 33
39 48 59 73 84 90 100 110 119 136 143 143 143 143 143 143
142 142 142 142 142 142 143 143 143 143 142 142 142 141 141 141
131 66 26 30 30 44 45 45 44 44 43 42 41 13 6 0
0 0 4 19 44 23 0 0 0 0 0 7 35 31 4 0
0 0 1 8 17 0 5 6 0 0 30 29 22 21 26 27
68 51 24 18 18 15 28 81 83 83 84 85 86 86 87 86
86 85 86 84 75 35 41 41 44 48 65 57 45 22 40 62
18 14 14 7 10 22 18 18 19 14 10 17 24 30 38 49
50 53 60 72 91 106 111 121 132 143 143 143 142 142 143 143
142 142 142 142 142 142 142 143 142 142 142 142 142 141 141 141
133 82 25 30 30 45 46 46 45 45 44 45 44 14 6 1
0 3 5 5 43 17 0 0 0 0 0 7 34 29 5 0
0 0 0 8 20 0 2 3 0 0 28 29 20 22 26 27
60 63 71 71 70 68 66 83 84 83 83 81 78 76 72 67
51 32 25 18 11 1 3 1 3 9 46 48 31 22 24 22
17 13 8 4 11 24 28 25 27 22 25 17 21 27 34 44
48 60 74 86 94 104 115 129 143 143 144 143 143 132 92 78
67 55 50 50 50 48 56 72 89 132 143 142 142 142 142 130
82 43 11 6 3 3 9 21 28 29 32 41 50 14 0 0
0 3 9 2 42 14 0 0 0 0 0 6 35 27 4 0
0 0 0 4 23 0 1 1 0 0 28 30 20 24 26 28
68 65 60 60 61 62 63 66 61 49 63 63 62 61 58 58
30 0 0 0 0 7 16 3 5 16 38 38 21 20 21 15
17 14 9 6 7 10 17 32 37 28 26 21 19 26 27 39
46 63 82 92 110 129 142 143 144 143 141 112 63 40 77 95
70 44 29 22 18 15 13 10 12 24 88 143 143 143 136 73
14 4 2 1 1 0 0 16 39 35 30 25 53 27 8 0
0 5 6 1 40 12 0 0 0 0 0 7 37 27 6 0
0 0 0 3 26 0 2 2 0 0 28 29 20 26 26 27
68 65 58 62 65 53 65 66 63 61 64 64 64 62 59 59
31 0 0 0 1 10 23 5 6 23 37 33 13 19 23 16
20 24 8 14 2 4 8 24 40 34 29 30 26 33 44 53
55 73 88 103 132 144 144 143 131 83 31 8 11 38 88 96
36 19 17 14 12 10 8 3 5 7 12 89 145 143 103 18
7 1 1 0 2 3 0 12 44 41 40 25 53 24 4 0
0 4 8 3 40 13 0 0 0 0 0 2 38 28 9 0
0 0 0 1 30 0 0 0 0 0 26 28 19 25 26 28
55 55 55 54 55 53 55 56 55 55 56 62 64 63 60 59
30 0 0 0 0 1 5 6 14 20 30 17 14 19 21 18
37 34 12 16 5 4 5 5 24 25 27 31 33 34 48 61
82 84 97 114 133 142 110 54 9 5 6 8 16 26 48 63
36 32 26 17 12 6 1 1 4 5 5 22 127 136 43 8
0 0 1 1 2 5 2 16 43 42 40 26 52 13 0 0
0 0 0 1 41 14 0 0 0 0 0 1 37 27 6 0
0 0 0 0 32 1 0 0 0 0 25 27 20 26 27 28
55 55 55 54 54 53 53 52 52 50 50 49 47 60 63 62
33 0 0 0 0 4 6 7 13 14 19 12 22 22 18 18
40 33 27 23 13 9 6 0 10 14 22 27 33 29 37 59
71 84 88 87 67 26 3 3 4 9 18 27 30 31 50 89
74 53 42 24 21 12 5 1 3 4 5 16 55 79 13 5
0 0 1 2 3 5 3 16 37 40 41 26 45 11 0 0
0 0 2 0 37 19 0 0 0 0 0 0 36 28 10 0
0 0 0 0 33 2 0 0 0 0 24 26 20 26 26 28
55 55 55 53 53 52 52 51 51 50 48 14 0 43 65 63
33 0 0 0 3 7 17 27 13 16 12 15 25 22 18 21
40 28 28 25 17 11 12 1 8 12 9 17 24 29 33 39
43 42 24 4 1 2 8 17 28 33 35 44 53 64 78 143
147 91 48 29 20 10 7 1 1 0 1 38 49 73 9 5
0 0 0 1 1 2 4 11 36 41 40 27 39 14 4 3
3 4 14 3 34 33 15 14 16 17 15 16 39 29 31 33
33 31 35 36 42 8 5 3 3 2 25 25 20 25 27 28
43 43 44 44 45 45 46 46 47 49 48 14 0 32 64 61
34 0 0 3 34 23 32 39 15 15 12 17 27 21 17 24
30 25 23 26 17 20 17 6 13 17 6 7 13 16 27 20
7 1 1 3 15 38 61 82 99 114 119 124 118 117 96 147
151 119 49 27 15 8 6 0 0 0 1 54 40 48 10 4
0 0 0 0 0 1 2 13 40 44 39 25 37 40 40 34
33 36 37 35 35 44 53 48 46 49 49 49 49 33 31 37
39 41 45 49 47 31 28 27 26 27 28 23 20 24 25 27
1 2 2 3 4 5 7 8 15 47 50 15 0 22 61 56
43 22 21 30 56 46 51 49 25 18 16 21 25 15 24 27
18 23 25 23 17 32 32 11 12 18 1 7 16 12 4 1
1 1 15 51 96 132 139 140 140 140 137 125 119 115 83 127
136 101 46 24 8 4 3 0 0 0 0 48 59 127 53 6
0 0 0 0 0 0 1 18 37 45 38 26 36 43 42 37
38 39 33 26 28 37 53 50 48 46 49 49 50 37 25 34
36 39 46 47 46 28 25 24 24 23 23 24 22 21 25 25
0 0 0 0 0 0 0 0 3 47 50 17 0 19 61 50
50 51 55 45 51 54 54 47 27 23 18 24 19 18 29 17
18 27 24 23 21 41 41 17 21 45 32 4 5 1 1 1
3 15 47 93 126 143 143 144 142 139 130 117 113 111 75 63
49 56 44 23 7 2 1 0 0 0 0 37 83 141 107 15
0 0 0 0 0 0 1 20 36 46 40 29 34 42 35 33
37 37 36 28 27 30 30 33 33 32 31 30 30 31 22 24
29 29 27 22 23 26 27 26 25 26 24 25 23 23 22 22
0 0 0 0 0 0 0 0 3 47 49 18 1 18 60 54
54 56 60 52 55 60 58 40 28 24 24 26 22 26 25 16
22 23 18 23 22 32 27 15 40 86 128 96 36 12 3 9
36 41 70 99 124 143 143 143 144 140 125 114 108 106 72 45
33 36 31 20 10 4 2 0 0 0 3 45 100 144 135 58
0 0 0 0 0 0 1 20 34 47 39 30 32 34 26 29
28 33 35 29 27 30 21 23 23 23 23 23 24 27 27 29
31 30 28 25 22 26 26 26 26 26 25 24 24 24 26 26
0 0 0 0 0 0 0 0 2 46 49 19 1 16 57 57
53 48 62 56 53 58 55 38 28 25 27 28 26 26 27 16
21 16 15 22 19 21 27 25 30 81 136 145 131 78 25 12
21 36 66 97 122 142 144 144 143 140 128 117 113 112 79 32
26 26 23 16 9 2 1 0 0 0 22 47 116 143 142 114
13 0 0 0 0 0 2 20 29 47 38 34 35 32 7 9
11 13 15 13 17 30 26 28 26 34 34 32 30 34 35 36
41 39 36 27 24 25 26 25 26 24 24 23 23 23 24 26
0 0 0 0 0 0 0 0 1 46 50 20 1 15 54 58
56 45 48 43 43 56 48 37 28 20 23 32 25 25 28 22
13 14 20 24 27 15 21 23 21 35 83 136 137 106 64 38
32 41 69 100 124 140 142 143 142 141 133 123 120 115 92 25
19 18 15 13 6 1 0 0 0 8 42 60 135 142 141 138
68 0 0 0 0 0 4 20 24 46 38 37 44 34 0 0
0 0 0 4 13 31 34 43 33 44 53 33 19 20 21 23
28 38 39 27 26 24 26 25 25 25 24 24 23 23 24 26
0 0 0 0 0 0 0 0 1 45 50 21 2 7 47 47
32 34 42 42 32 33 32 26 25 20 22 27 26 27 27 18
14 21 26 33 29 24 22 42 26 40 70 80 109 112 97 69
66 71 92 101 126 139 139 142 141 140 132 128 125 119 107 20
17 16 13 9 4 1 0 0 6 52 50 86 143 142 141 141
125 24 0 0 0 0 4 13 21 47 38 36 48 39 0 0
0 0 0 0 17 29 32 42 25 33 43 21 0 0 0 0
0 28 40 27 26 25 25 25 25 25 24 23 23 22 23 24
0 0 0 0 0 0 0 0 1 45 50 32 31 3 38 36
6 12 25 28 24 20 18 25 23 23 24 19 32 33 24 21
18 30 32 32 29 26 30 65 36 54 100 89 111 108 111 102
87 83 89 105 126 140 138 137 142 138 137 135 132 125 120 33
17 17 14 8 1 0 0 4 72 83 45 115 143 142 141 140
139 104 9 0 0 0 4 5 18 46 38 35 48 45 2 0
0 0 0 0 17 28 30 39 7 0 14 21 0 0 0 0
0 24 39 27 26 26 25 25 24 24 23 23 23 23 23 25
0 0 0 0 0 0 0 0 1 45 51 37 23 1 33 35
0 0 0 7 11 9 19 24 22 26 21 17 35 34 26 22
26 33 40 41 31 24 32 64 41 56 98 88 57 77 110 114
110 98 100 109 128 138 138 135 135 133 142 138 140 138 126 72
12 21 17 9 1 0 0 18 84 47 69 140 142 142 141 141
139 132 86 7 0 0 0 1 16 46 38 35 29 18 0 0
0 0 0 0 20 27 31 40 7 0 14 24 0 0 0 0
0 18 38 27 26 26 26 25 25 24 24 23 23 23 24 25
0 0 0 0 0 0 0 0 0 45 51 27 0 0 28 37
0 0 0 8 14 9 20 19 21 17 19 19 27 36 32 25
32 41 43 37 36 26 34 63 40 60 99 60 31 76 110 116
121 117 104 107 127 140 134 130 138 140 141 142 140 140 138 121
30 20 20 5 0 0 0 19 62 42 124 143 142 142 141 141
141 140 132 82 3 1 2 2 14 46 39 35 21 6 0 0
0 0 0 0 22 25 31 40 6 0 12 26 0 0 0 0
0 14 38 27 26 26 26 25 25 24 23 23 23 23 24 24
0 0 0 0 0 0 0 0 0 44 51 24 1 0 22 42
0 0 0 1 15 15 17 19 16 15 20 19 28 41 35 27
38 39 40 31 27 28 32 43 40 68 110 52 38 79 109 129
128 118 106 111 125 138 140 138 139 140 141 142 142 142 140 137
108 28 18 6 1 1 1 15 44 119 144 143 142 142 142 142
141 142 142 133 33 1 3 2 11 45 38 34 22 6 0 0
0 0 0 0 22 23 32 41 6 0 11 27 0 0 0 0
0 13 39 27 26 26 26 25 25 24 23 24 23 23 24 25
0 0 0 0 0 0 0 0 0 44 51 26 3 7 26 48
3 0 0 9 16 17 21 20 14 16 21 20 31 36 30 27
38 41 36 27 19 26 31 37 47 72 118 51 48 87 94 135
140 136 121 113 127 136 140 141 141 141 141 142 142 142 143 142
137 116 66 35 21 22 38 76 128 143 142 142 142 142 142 142
141 141 142 135 54 2 3 2 10 45 39 34 25 6 0 0
0 0 2 0 18 25 32 40 6 1 10 26 2 0 0 0
0 12 39 27 26 26 26 26 25 24 24 23 23 22 23 24
0 0 0 0 0 0 0 0 0 42 50 46 47 51 54 51
8 0 1 7 23 20 23 21 15 22 19 26 32 30 27 32
36 38 27 22 20 23 38 32 44 65 127 61 57 82 95 130
136 139 127 113 131 137 142 139 138 143 142 143 144 143 143 143
142 142 138 131 129 131 137 140 140 141 140 140 142 141 142 133
122 132 136 123 69 2 4 1 9 45 39 34 26 6 2 3
0 1 7 0 17 27 33 41 16 3 8 26 3 1 0 0
0 10 38 26 26 25 25 24 25 24 23 23 23 22 23 24
0 0 0 0 0 0 0 0 0 42 51 52 55 57 58 55
10 0 0 6 21 19 25 20 17 24 18 27 30 32 32 38
36 30 26 20 24 27 35 34 43 54 120 89 60 72 101 118
136 139 130 115 135 138 140 142 143 143 144 144 143 143 143 144
144 143 143 143 142 142 142 141 142 141 135 135 142 140 123 94
93 126 117 129 75 3 4 2 8 44 40 35 28 8 6 4
0 3 15 9 14 30 34 40 17 14 8 26 0 7 7 2
0 9 36 26 25 26 25 25 25 25 24 23 23 23 22 23
0 0 0 0 0 0 0 0 0 41 51 52 56 58 61 59
18 5 3 9 16 21 24 24 24 22 22 21 30 34 36 35
30 30 28 25 26 28 32 44 37 54 95 113 86 112 107 110
130 137 134 122 132 137 142 144 143 143 142 143 143 143 142 143
143 143 142 142 142 141 142 142 142 143 140 126 127 135 141 142
130 111 136 134 74 2 4 2 7 44 40 34 28 15 11 14
10 12 21 20 20 38 35 40 11 25 8 25 1 7 7 1
0 9 32 25 26 26 26 25 24 24 24 24 23 23 21 20
0 0 0 0 0 0 0 0 0 40 51 45 45 54 51 49
35 33 33 22 26 26 32 25 24 19 27 22 26 33 42 30
34 31 33 26 27 29 32 46 34 46 88 103 86 126 144 136
131 135 133 129 133 139 142 143 144 143 144 143 144 143 144 144
143 142 143 142 142 142 142 142 142 142 142 143 142 142 142 140
132 124 139 133 64 2 3 2 6 44 40 34 27 37 41 44
45 44 45 45 46 46 35 38 3 24 12 31 22 23 22 21
21 20 22 23 26 25 25 25 24 24 24 23 23 22 22 21
0 0 0 0 0 0 0 0 0 39 51 44 34 33 24 24
26 28 36 35 36 37 33 30 25 21 26 23 25 33 40 21
26 29 32 27 29 30 28 36 33 23 60 98 96 124 146 145
134 135 137 134 131 139 142 143 142 142 138 142 143 143 144 143
143 143 142 143 143 142 142 142 142 142 142 142 142 141 142 141
141 133 130 129 42 2 3 2 6 43 40 33 26 41 49 49
48 48 48 48 49 52 41 38 1 7 10 29 20 22 21 21
20 20 21 24 25 25 25 24 24 24 24 23 23 23 22 20
0 0 0 0 0 0 0 0 0 38 51 43 30 20 12 13
21 25 27 27 34 37 31 25 20 19 26 21 20 23 30 18
23 30 28 29 32 32 26 32 27 12 16 50 95 135 137 121
134 129 132 132 131 134 138 142 141 141 137 141 144 144 143 144
143 144 143 143 142 142 142 142 142 143 142 142 142 142 142 142
141 140 124 123 20 3 3 2 6 42 39 33 25 30 41 40
38 36 34 33 32 31 34 37 1 3 6 31 24 27 27 26
25 26 24 25 25 25 25 24 24 23 24 23 23 22 22 21
0 0 0 0 0 0 0 0 0 36 51 38 12 18 23 25
24 24 29 27 29 27 28 25 20 19 29 18 22 20 29 19
27 33 23 34 37 33 31 30 30 10 6 9 47 113 137 123
142 116 119 123 128 134 135 139 139 140 142 140 142 142 143 143
143 143 143 142 143 143 142 142 142 142 142 143 142 143 142 142
141 131 119 101 5 3 2 0 5 42 39 33 25 15 13 12
12 11 12 11 11 9 24 36 1 2 5 31 24 28 28 28
27 27 26 26 25 25 25 24 24 24 23 23 22 22 21 20
0 0 0 0 0 0 0 0 0 34 52 35 3 7 15 28
25 21 27 26 30 29 26 27 23 19 27 19 20 20 25 20
24 38 26 32 44 38 33 32 28 9 3 7 5 46 115 140
140 79 92 118 120 127 132 138 140 140 140 141 141 143 144 143
142 142 142 142 142 141 140 142 142 142 142 139 134 135 140 134
124 113 103 73 1 1 0 0 5 42 39 32 25 18 15 14
13 13 13 13 12 10 25 37 3 0 4 31 23 28 28 27
27 26 26 25 25 25 25 24 24 24 23 23 22 21 20 19
0 0 0 0 0 0 0 0 0 34 51 36 0 0 2 16
22 26 28 27 28 30 24 21 26 24 25 13 19 24 17 17
25 35 35 29 40 45 31 33 30 11 5 5 7 1 25 64
72 28 67 111 118 124 129 134 139 138 140 140 142 144 144 143
144 144 143 143 143 142 139 136 135 123 113 109 106 106 118 117
108 86 109 47 0 1 0 0 6 42 38 31 28 23 21 20
18 17 16 14 14 11 29 39 20 32 35 36 22 27 27 27
26 25 25 25 24 24 24 24 24 24 23 22 22 21 19 19
0 0 0 0 0 0 0 0 0 33 50 38 2 0 5 16
22 24 28 27 29 28 24 24 25 20 22 13 17 20 12 15
35 32 31 30 44 47 30 31 26 16 7 3 10 10 7 11
37 56 82 106 116 122 127 133 137 139 139 142 141 143 143 144
144 143 144 143 143 141 137 123 113 113 119 128 122 128 131 126
122 117 123 23 0 0 0 0 7 42 39 31 27 24 22 21
21 21 21 19 17 12 31 38 31 45 45 36 22 27 26 26
26 25 25 25 24 24 24 23 23 23 23 23 22 21 20 17
0 0 0 0 0 0 0 0 0 31 50 39 3 1 11 15
20 25 29 26 24 28 29 24 17 14 15 14 17 13 13 14
40 29 18 28 50 45 29 30 18 13 9 8 11 15 10 10
31 69 92 99 111 120 126 131 137 139 141 141 142 144 144 143
143 143 144 143 143 140 142 142 142 143 142 142 142 142 142 141
137 133 107 11 5 7 8 9 17 44 38 32 27 23 21 21
21 20 20 19 18 13 21 25 19 23 25 24 25 26 26 26
26 25 25 25 24 24 24 24 23 22 22 22 21 20 18 16
0 0 0 0 0 0 0 0 0 29 50 40 3 8 13 16
21 22 26 21 24 22 23 22 14 16 16 17 20 16 12 12
32 25 16 25 52 42 34 27 17 11 8 14 9 10 12 8
23 63 91 98 107 118 126 131 138 140 140 142 144 144 144 143
144 143 143 143 143 141 142 142 142 142 142 143 143 142 142 139
132 120 87 34 35 35 35 34 33 34 33 31 27 24 23 22
21 20 19 19 18 16 22 24 23 20 24 24 24 25 26 26
25 25 25 24 23 23 23 22 22 22 22 21 21 19 18 15
0 0 0 0 0 0 0 0 0 28 50 40 6 11 11 15
22 26 25 22 22 17 14 17 16 19 21 22 21 22 23 15
26 25 17 24 48 46 38 32 20 12 12 18 16 8 9 7
17 51 91 102 105 115 125 130 138 142 142 140 144 144 145 144
144 143 144 143 143 142 143 143 142 142 142 142 142 142 138 122
114 110 66 38 38 37 36 35 33 33 33 31 27 25 24 23
21 21 20 19 18 18 22 24 24 21 24 24 24 25 25 25
25 24 24 23 23 23 23 22 22 22 21 21 20 19 17 18
1 1 2 2 3 4 4 5 6 33 49 41 6 11 13 17
21 27 25 23 20 13 13 17 19 22 22 21 20 28 25 16
26 22 16 22 37 42 35 25 17 13 15 19 19 14 12 7
14 42 82 104 105 108 121 128 137 141 143 142 144 145 144 144
144 144 144 144 143 143 143 143 143 143 143 142 142 137 128 123
119 108 49 39 38 37 36 34 34 32 32 31 25 24 24 23
22 22 20 19 18 18 22 26 25 23 24 24 24 25 25 25
24 24 24 24 23 22 22 22 21 21 21 20 20 19 16 21
49 48 49 49 49 49 50 49 49 49 48 41 7 14 16 14
22 26 24 22 19 8 18 22 17 20 21 21 21 23 26 25
28 18 14 17 29 33 29 15 14 5 14 19 18 15 19 11
10 37 82 103 106 105 116 123 130 137 139 143 144 144 143 144
144 144 144 143 143 143 143 143 143 143 143 143 143 142 140 135
131 114 42 38 36 34 32 30 28 27 26 25 24 23 23 23
22 22 21 20 19 19 22 26 25 25 24 24 25 25 25 25
24 24 24 23 22 23 22 21 21 21 21 19 18 17 16 21
52 52 51 51 50 50 49 49 49 47 46 42 8 15 12 18
22 26 27 28 17 12 24 26 15 21 27 15 25 28 35 20
26 15 18 17 29 26 18 11 13 5 10 19 17 16 22 14
14 27 71 101 107 104 109 119 123 131 134 139 143 144 144 144
145 144 143 143 143 143 143 142 143 143 143 143 143 143 142 142
141 115 20 13 12 14 15 19 22 21 24 23 24 24 23 23
22 22 21 20 19 20 23 26 26 25 24 23 24 24 24 24
23 23 23 23 22 21 21 21 20 21 19 10 12 13 19 20
54 53 52 52 52 51 51 50 49 43 48 43 9 13 10 21
24 34 38 31 16 19 30 30 20 26 15 10 32 34 25 22
19 17 25 27 26 20 16 16 12 9 12 21 24 20 22 19
17 27 59 94 107 109 105 112 117 122 127 135 137 141 144 144
144 144 144 144 143 144 143 143 144 143 143 143 143 142 143 142
142 114 22 9 11 13 14 20 23 23 24 24 24 23 23 23
22 22 21 20 20 21 24 26 25 26 25 24 24 24 24 24
24 23 22 22 22 21 21 20 18 19 20 15 9 12 17 19
53 54 53 52 52 51 51 49 49 49 48 40 14 17 14 17
22 32 38 40 24 22 23 27 28 16 9 15 40 27 25 21
14 22 42 40 25 17 14 14 12 8 15 20 29 24 17 18
17 25 47 81 103 112 108 105 107 113 119 122 126 130 139 144
145 145 144 144 144 144 144 144 144 143 143 143 143 143 143 143
142 117 48 24 15 14 14 18 23 23 23 24 24 24 24 23
23 23 23 22 22 24 25 26 25 25 26 24 24 24 25 24
23 23 23 22 22 22 21 19 18 18 22 22 19 20 23 28
44 43 43 42 41 41 40 40 39 39 38 31 14 14 10 18
23 23 25 33 24 22 32 39 17 13 12 24 41 24 30 15
14 30 50 41 27 20 14 9 12 10 15 23 32 28 18 18
16 24 38 64 94 112 115 111 105 106 109 110 116 121 127 132
139 143 143 144 144 144 143 144 144 143 143 143 143 143 143 143
142 113 55 35 19 21 19 18 22 24 25 26 27 27 28 27
27 27 27 27 27 27 27 26 25 25 26 25 24 25 25 23
23 23 22 21 22 22 20 18 17 17 25 25 23 17 12 5
48 48 48 48 48 48 47 43 44 45 45 35 13 12 11 18
25 15 14 15 16 23 25 19 11 15 18 39 29 27 29 19
13 24 41 33 29 20 13 9 14 10 17 27 25 28 24 16
18 20 29 47 77 105 117 118 112 105 103 102 105 108 113 119
126 132 140 144 144 143 143 143 144 143 143 143 142 143 143 143
138 101 60 51 30 28 23 17 21 24 28 29 33 32 32 31
31 31 30 30 29 29 28 26 25 25 26 25 24 23 24 23
22 22 22 21 21 21 19 17 17 17 18 25 33 25 12 5
53 52 51 50 50 48 47 42 39 38 40 30 12 10 12 14
22 16 6 7 15 23 20 17 16 18 19 38 24 34 23 15
13 21 43 39 33 24 17 10 14 15 18 27 26 20 20 18
16 23 35 44 58 87 112 117 120 114 108 103 99 99 99 103
108 116 122 130 134 141 142 143 144 144 144 143 143 144 144 141
130 65 45 41 33 33 33 31 30 28 25 25 41 32 30 31
31 31 30 30 29 29 28 26 25 25 26 25 24 24 23 23
22 22 22 21 22 21 19 17 17 17 17 12 23 19 14 8
25 25 24 21 14 12 13 6 9 9 16 11 9 10 12 15
14 9 1 3 14 23 19 17 18 12 14 40 18 40 17 15
18 22 42 43 35 25 19 14 11 13 22 21 28 20 15 13
15 27 43 58 65 73 96 112 120 118 115 108 104 100 95 94
94 95 101 109 116 123 127 129 136 139 140 139 138 136 129 120
86 31 32 32 22 21 19 18 19 17 17 18 40 33 27 24
25 26 26 27 27 26 27 25 25 25 24 24 24 23 22 22
22 21 21 21 20 20 20 17 15 16 17 13 15 13 15 9
12 12 13 17 6 3 9 0 2 3 4 7 5 12 12 19
11 8 2 2 16 27 18 17 17 10 15 46 26 41 13 13
21 27 35 39 32 26 18 13 9 13 20 21 20 17 15 17
19 22 33 52 73 83 94 107 121 122 117 113 108 105 99 95
92 88 88 88 90 97 100 100 100 105 107 103 96 88 73 56
34 32 31 33 21 20 18 18 17 16 16 17 38 33 24 20
20 21 21 21 22 22 22 21 23 24 24 24 23 22 22 21
20 20 19 19 19 18 18 18 16 16 13 13 13 12 14 9
8 8 5 8 6 5 12 1 2 0 4 8 12 12 13 21
13 5 1 1 23 29 19 18 11 12 12 41 30 37 17 14
23 26 24 35 24 25 22 12 5 12 18 18 16 14 19 27
24 20 27 34 58 81 103 111 123 130 126 119 113 107 101 93
93 89 87 84 80 74 71 66 58 50 44 38 28 21 23 21
24 30 31 30 20 19 18 17 16 16 14 16 37 33 24 19
19 19 18 18 17 17 17 17 19 22 22 23 22 22 20 20
19 18 18 17 17 17 17 17 15 15 12 13 10 12 14 8
34 31 26 14 5 6 15 0 1 0 4 9 9 11 12 13
12 7 4 10 25 28 28 17 10 10 15 30 23 35 22 15
20 24 9 23 23 20 23 14 2 7 15 16 16 14 18 33
26 21 34 36 41 67 96 115 125 134 136 128 121 112 107 101
94 89 84 80 73 65 56 48 41 34 20 9 12 17 22 12
14 14 25 26 16 16 15 13 13 12 12 11 31 32 23 18
18 18 18 17 17 16 15 16 18 22 22 22 21 21 20 19
19 17 17 17 17 16 16 16 14 10 13 13 11 12 12 6
43 40 33 15 4 6 16 2 0 1 8 6 8 11 10 10
11 6 4 13 25 26 32 15 7 7 19 25 18 38 27 12
15 15 11 17 20 23 26 19 3 5 15 20 13 20 18 26
30 30 35 44 48 61 96 110 131 136 139 139 132 128 124 114
106 96 85 73 62 51 41 30 17 3 2 4 13 16 22 12
14 8 12 15 16 22 25 28 31 32 23 15 29 32 23 17
18 18 17 17 16 16 16 16 19 22 23 22 21 21 21 18
18 17 17 17 16 17 18 15 14 10 14 17 37 9 2 2
37 32 25 12 5 10 14 4 3 3 8 5 10 11 11 14
10 6 12 21 22 21 17 12 6 4 17 27 15 37 27 14
16 4 9 14 23 31 27 29 11 3 11 20 11 22 22 25
30 32 32 44 58 53 101 110 117 139 140 140 142 141 140 137
128 117 105 90 73 63 34 7 8 1 1 7 15 17 11 8
13 8 10 12 14 20 36 34 32 32 31 34 30 31 23 18
18 18 17 17 18 16 15 16 19 22 23 22 22 22 22 20
18 14 10 8 8 36 46 43 41 34 34 34 44 42 40 29
20 21 23 25 30 32 34 32 20 3 6 4 10 10 11 14
13 13 7 13 19 18 8 8 7 2 17 21 19 37 29 11
14 7 13 14 28 29 31 29 25 7 8 19 11 17 20 29
28 34 36 42 53 44 80 110 118 126 139 144 144 144 144 143
142 140 128 108 97 83 15 13 9 3 4 8 22 18 13 8
6 8 4 9 13 15 22 37 40 41 42 43 40 31 23 18
18 22 30 35 37 36 30 31 34 36 37 38 40 41 41 40
37 33 15 0 1 14 23 22 23 24 25 23 19 12 17 20
45 43 39 37 33 29 25 30 27 4 3 1 7 9 8 13
8 13 3 15 13 12 7 5 5 6 14 21 21 30 30 18
12 14 15 21 36 31 32 24 32 13 5 19 13 10 18 30
26 24 34 39 47 44 62 106 116 121 131 141 144 144 144 144
144 144 141 131 119 71 12 24 9 4 4 9 17 22 16 7
1 3 0 3 12 15 13 23 38 43 44 45 45 45 40 39
43 46 49 49 48 47 46 45 44 42 41 40 38 37 37 36
35 34 29 2 0 0 0 0 0 0 0 0 1 0 1 1
8 6 4 3 2 1 0 14 28 11 1 0 4 12 9 11
14 14 2 9 11 9 5 2 2 8 13 18 19 23 26 24
20 15 17 30 40 34 22 15 22 22 8 21 12 10 13 23
30 23 28 35 40 46 49 102 113 117 131 140 140 144 144 144
144 144 143 137 120 45 18 24 17 7 2 10 16 20 28 9
1 3 2 5 11 16 15 14 38 46 48 48 48 48 47 46
45 45 43 43 42 41 41 39 38 36 35 33 32 31 29 28
26 24 22 4 0 0 0 0 0 0 0 0 0 0 0 0
0 1 2 3 4 6 6 11 24 7 1 1 7 9 9 9
15 15 5 6 5 6 1 1 3 1 8 14 18 21 20 21
22 30 21 39 40 28 17 14 5 20 11 21 18 8 14 23
27 23 31 40 30 33 46 84 105 115 123 130 139 140 143 144
145 145 142 131 98 17 15 19 13 7 7 7 19 25 26 9
1 5 4 8 14 16 17 15 25 48 49 46 45 44 44 44
43 42 42 40 37 36 35 33 31 30 29 26 26 24 23 23
20 20 18 6 4 2 0 3 3 2 2 1 0 0 0 0
2 2 1 1 1 1 1 3 22 6 0 0 3 5 7 15
14 10 12 5 6 2 3 3 4 4 7 10 18 19 21 20
17 24 31 38 33 10 21 13 10 18 7 17 21 5 15 19
29 28 22 40 32 34 47 74 95 109 114 120 130 136 141 143
140 136 127 113 58 14 15 14 12 6 15 20 17 25 17 5
4 4 12 21 19 16 17 16 18 41 45 43 41 41 39 38
38 36 35 34 33 31 31 30 28 26 26 26 25 23 23 22
21 20 17 2 7 3 0 6 8 8 7 8 7 6 5 3
0 0 0 0 0 0 0 6 30 3 0 0 3 4 7 8
8 3 5 10 9 8 1 0 11 10 16 14 18 25 17 16
19 24 35 43 24 4 21 19 15 22 6 10 26 10 10 24
31 38 20 32 30 32 56 80 86 99 103 112 123 128 132 135
135 129 116 97 24 17 15 12 12 5 12 34 30 26 12 3
3 5 28 30 19 15 16 16 15 28 40 39 38 37 37 36
35 35 34 34 33 32 32 30 30 27 27 26 25 24 23 22
21 20 16 1 7 2 3 6 8 11 10 12 11 10 8 6
1 0 0 0 0 0 0 1 11 4 0 0 2 4 6 8
8 0 0 6 12 17 10 8 15 16 13 14 11 24 16 9
19 24 36 38 22 13 21 13 20 23 13 13 13 18 13 21
31 29 18 31 28 33 60 89 91 101 101 106 115 124 129 131
129 121 111 71 7 15 21 14 15 4 7 16 28 22 11 3
6 8 28 18 15 17 15 17 12 17 39 39 39 38 38 36
36 35 34 35 35 33 33 31 30 28 28 27 26 24 23 23
22 20 13 0 6 1 5 8 10 11 11 9 6 4 3 2
0 0 0 0 0 0 0 0 0 1 0 0 4 11 9 8
9 0 5 14 15 14 14 14 19 19 15 15 11 16 21 14
18 14 44 25 15 25 20 13 15 26 19 10 11 17 18 26
28 21 15 33 30 35 65 75 88 98 99 109 109 119 128 128
126 119 110 42 6 19 15 14 20 5 4 10 16 30 12 2
10 10 9 11 16 17 17 17 14 7 31 40 40 40 39 38
37 36 35 35 34 34 32 31 30 28 28 27 25 24 23 22
21 19 8 0 0 0 2 6 8 6 4 2 1 1 1 1
0 0 1 2 2 4 6 8 11 9 11 14 22 23 22 22
15 5 14 14 16 18 19 17 17 17 14 14 12 15 20 17
15 15 34 21 14 20 30 13 17 32 21 9 8 20 18 30
22 20 17 31 32 42 70 79 87 103 99 102 109 121 127 126
123 118 104 19 6 14 20 12 32 10 10 14 19 18 17 10
17 19 12 9 17 16 16 16 15 3 17 40 41 40 40 38
38 37 36 35 34 34 32 31 29 29 28 26 26 24 23 22
21 19 6 0 0 0 0 3 2 0 0 0 0 1 1 0
29 33 35 38 41 39 44 42 41 43 43 39 38 37 28 30
18 14 16 17 20 22 21 20 24 21 16 13 11 13 21 16
17 20 22 21 8 11 23 13 18 30 21 12 7 19 18 24
17 23 19 24 28 36 73 81 87 102 101 101 103 111 122 127
123 116 79 4 7 10 13 14 30 16 15 17 24 30 17 23
25 35 11 3 16 15 12 17 15 2 12 28 41 39 39 37
37 37 36 34 34 33 31 31 30 28 27 26 25 24 23 23
21 18 3 0 0 0 0 0 0 0 0 0 0 0 0 0
50 53 50 50 52 48 46 46 45 46 48 44 40 39 35 18
14 15 18 21 23 24 22 24 24 23 18 14 13 13 16 21
21 19 18 22 3 7 16 11 11 26 16 8 10 16 20 15
18 22 22 20 27 36 57 78 84 97 99 102 103 109 118 121
117 107 50 5 6 9 8 9 20 10 21 19 14 33 22 22
22 30 15 3 14 16 12 16 16 2 11 14 39 39 39 38
37 36 36 35 34 32 32 30 30 28 27 26 25 24 23 23
20 16 1 0 0 0 0 0 0 0 0 0 0 0 0 0
44 45 47 47 51 51 46 50 53 55 51 54 40 43 29 13
16 17 21 22 24 25 24 28 27 25 21 15 13 13 16 18
13 19 14 21 6 7 15 7 10 22 5 7 11 14 25 16
19 24 20 18 25 42 50 79 83 84 102 104 107 106 110 112
108 99 27 7 6 5 0 5 15 8 22 20 13 21 36 12
7 12 10 2 12 15 11 16 16 3 7 14 28 41 39 38
37 37 36 35 34 33 32 31 30 28 26 26 25 24 23 22
21 15 0 0 0 0 0 0 0 0 0 0 0 0 0 0
54 50 56 51 62 56 61 55 48 58 56 56 57 35 13 16
16 18 22 23 25 24 27 28 25 24 22 20 14 14 15 13
8 14 12 13 5 12 24 13 13 18 1 6 13 11 25 24
12 17 16 11 22 29 44 65 93 90 91 102 104 104 107 108
105 89 22 15 15 1 0 4 21 18 14 13 10 13 30 19
12 9 11 2 9 15 9 13 15 3 6 13 16 38 39 37
37 36 36 34 34 33 32 31 30 29 28 26 26 24 23 22
20 10 0 0 0 0 0 0 0 0 0 0 0 0 0 0
63 58 61 57 59 57 58 57 54 55 54 54 48 15 15 15
17 20 22 24 26 24 27 27 27 25 25 22 19 15 12 11
0 7 5 2 4 15 39 24 16 10 1 7 17 14 19 25
12 17 17 9 19 26 43 56 67 84 93 99 107 107 109 110
106 62 15 16 14 2 3 19 30 15 9 8 8 14 25 19
14 12 17 3 7 14 7 11 15 3 5 12 12 31 38 37
37 35 35 34 33 33 32 30 29 28 26 25 25 23 23 21
20 9 0 0 0 0 0 0 0 0 0 0 0 0 0 0
48 47 46 45 43 41 40 38 36 33 31 29 19 12 16 16
20 22 21 24 25 26 27 27 28 27 27 25 24 20 10 6
0 1 4 4 0 13 26 18 17 4 0 7 10 12 15 26
10 15 19 13 23 36 47 57 68 100 102 103 109 110 111 110
105 36 20 16 12 13 15 15 12 4 3 3 7 13 18 13
17 18 16 5 5 14 4 11 14 3 4 13 13 21 37 36
36 34 34 32 33 32 30 29 28 26 25 25 24 23 21 21
19 6 0 0 0 0 0 0 0 0 0 0 0 0 0 0
18 15 12 10 8 7 5 3 2 1 0 5 14 14 18 19
22 21 21 27 24 28 26 25 29 29 28 27 27 25 18 2
0 1 8 11 4 0 2 3 3 0 1 3 4 6 10 21
18 11 20 21 33 51 61 60 60 98 107 107 109 112 112 111
103 33 20 10 5 7 7 7 1 1 1 5 10 13 15 13
17 18 18 7 4 14 3 11 15 2 5 14 12 13 34 36
35 34 33 33 31 30 29 28 27 26 25 24 23 23 22 21
18 6 0 0 0 0 0 0 0 0 0 0 0 0 0 0
0 0 0 0 0 0 0 0 0 0 0 10 14 17 17 20
21 20 22 27 25 26 25 24 30 29 28 29 30 28 27 8
1 1 5 16 14 0 0 0 0 1 7 1 1 2 8 13
14 16 19 23 41 50 45 57 50 81 111 112 112 111 115 117
106 65 41 12 6 8 7 5 7 5 10 11 12 12 13 14
17 19 18 9 6 14 3 12 15 1 6 13 13 12 24 35
34 33 33 32 31 30 28 27 27 25 24 24 23 22 22 21
22 8 0 0 0 0 0 0 0 0 0 0 0 0 0 0
0 0 0 0 0 0 0 0 0 0 3 14 16 18 18 21
21 18 27 27 27 26 25 20 29 27 28 29 31 25 28 18
10 9 12 22 22 2 0 4 2 0 1 1 2 5 10 7
5 9 18 26 53 56 49 59 84 113 116 120 120 120 122 129
113 117 75 15 13 13 12 9 12 11 16 14 12 12 14 16
20 20 18 11 8 16 4 9 13 0 8 13 12 10 16 34
34 33 32 30 30 29 28 27 25 24 24 23 23 22 21 20
17 1 0 0 0 0 0 0 0 0 0 0 0 0 0 0
1 0 0 0 0 0 0 0 0 0 7 14 17 17 21 20
18 20 28 27 27 26 25 17 30 29 28 30 30 21 26 24
14 14 16 22 26 10 0 4 0 0 0 1 1 9 14 16
9 8 15 33 67 84 71 75 120 128 125 125 128 129 135 139
117 125 72 14 17 16 15 14 14 11 17 14 13 15 17 19
21 21 19 11 10 17 7 9 12 0 9 14 12 10 12 28
35 33 32 31 30 29 28 26 26 24 24 23 23 21 21 20
18 0 0 0 0 0 0 0 0 0 0 0 0 0 0 0
0 0 0 0 0 0 0 0 0 0 10 13 19 18 20 18
18 23 25 27 27 25 24 14 27 28 28 29 29 19 21 25
14 14 15 20 27 20 8 5 0 0 0 2 6 7 13 14
15 10 20 78 112 113 72 108 133 139 135 135 136 139 141 137
126 132 47 16 19 18 16 16 14 13 18 15 15 16 19 19
22 22 20 13 10 18 12 6 9 0 12 14 11 9 10 18
35 33 32 31 30 29 28 26 26 25 24 23 22 22 21 20
17 0 0 0 0 0 0 0 0 0 0 0 0 0 0 0
0 0 0 0 0 0 0 0 0 1 12 15 18 19 18 18
20 27 26 29 26 25 24 12 27 30 29 28 27 19 14 23
18 14 13 17 25 25 13 8 5 0 0 0 2 3 1 3
3 7 40 116 129 129 127 129 145 144 140 141 139 142 144 136
130 112 28 18 19 18 17 17 14 14 18 16 16 18 19 20
22 22 20 14 7 17 17 4 7 0 12 13 12 10 9 14
31 34 33 32 31 30 28 27 26 25 25 24 24 22 22 22
13 0 0 0 0 0 0 0 0 0 0 0 0 0 0 0
0 0 0 0 0 0 0 0 0 2 11 16 17 18 18 18
22 27 27 27 27 26 26 13 21 30 30 31 27 20 11 17
20 15 13 14 22 27 17 11 11 6 4 3 1 2 0 0
8 16 26 91 138 138 141 129 144 145 144 144 144 144 142 136
128 67 22 17 19 18 17 17 11 15 19 17 16 18 19 20
21 22 20 15 6 15 20 6 5 0 10 14 11 10 9 16
21 34 33 32 30 29 28 27 27 26 25 24 23 23 22 21
8 0 0 0 0 0 0 0 0 0 0 0 0 0 0 0
0 0 0 0 0 0 0 0 0 4 14 16 17 18 17 19
26 26 28 28 27 26 26 15 15 29 29 31 27 19 11 13
20 15 12 11 20 27 24 12 12 13 12 13 11 7 3 8
19 24 33 23 55 112 144 142 145 144 144 142 143 143 134 136
107 29 23 19 18 17 16 17 10 15 19 17 16 17 18 20
22 23 21 16 6 13 21 13 3 0 10 13 12 9 10 17
17 30 33 33 31 30 29 27 27 26 25 24 23 22 22 19
3 0 0 0 0 0 5 6 5 4 3 1 1 0 0 0
0 0 0 0 0 0 0 0 0 6 14 16 16 17 17 20
27 26 28 27 26 25 26 14 10 27 27 28 27 21 12 6
20 15 13 12 18 27 27 15 13 15 13 11 14 13 9 12
19 24 37 28 28 27 65 118 145 145 145 143 141 139 132 124
57 25 21 19 18 18 18 16 13 15 19 16 16 19 19 22
22 25 21 17 8 8 22 16 1 0 10 14 11 9 10 17
19 23 33 32 31 29 28 27 26 25 25 24 23 22 21 16
1 0 0 0 0 0 5 4 5 5 6 5 5 6 6 5
0 0 0 0 0 0 0 0 0 8 14 15 15 17 18 22
26 28 27 25 25 25 27 16 7 22 28 27 27 20 11 2
17 16 13 13 17 27 28 19 15 14 14 9 13 16 14 13
18 22 25 34 26 28 29 31 50 86 116 140 143 135 112 62
25 22 19 20 18 18 18 18 12 17 19 17 16 19 21 21
23 25 24 18 10 5 20 17 0 0 8 13 11 8 10 18
17 18 32 32 29 28 27 27 27 25 24 23 22 20 18 10
0 0 0 0 0 0 5 4 4 4 4 4 4 4 5 9
0 0 0 0 0 0 0 0 0 11 14 13 15 17 18 25
25 26 25 23 26 26 26 19 8 18 27 28 27 20 13 2
13 18 13 12 15 24 24 22 15 13 15 10 9 16 15 18
17 20 23 31 29 28 30 29 29 29 32 45 75 65 34 35
26 21 18 19 17 17 17 19 10 19 21 17 17 20 22 24
25 25 23 18 11 5 18 20 0 0 9 12 12 8 9 16
19 19 27 30 30 29 28 26 25 23 21 20 17 14 8 3
0 0 0 0 0 0 5 4 4 4 4 4 4 4 6 10
0 0 0 0 0 0 0 0 2 12 13 14 15 17 18 25
26 26 24 24 24 25 26 21 9 11 26 28 26 20 11 1
8 19 12 12 13 25 26 25 17 16 13 11 8 15 16 18
21 19 21 25 34 25 30 27 30 28 29 27 25 25 31 40
27 22 18 20 19 19 18 19 10 22 23 17 17 22 23 24
25 24 24 19 12 5 14 22 3 1 9 11 12 9 6 16
20 19 23 28 27 25 22 17 12 8 6 4 3 0 1 2
0 0 0 0 0 0 4 4 4 4 4 3 4 4 7 12
0 0 0 0 0 0 0 0 7 14 14 15 16 17 20 25
26 25 24 26 23 25 25 20 11 8 22 26 26 22 13 1
6 20 14 13 15 24 24 27 20 16 15 14 9 12 16 18
20 21 23 22 27 30 25 30 27 29 26 25 24 24 31 39
27 23 19 20 20 19 19 18 13 23 24 19 17 24 24 24
26 26 27 20 14 6 10 21 10 0 9 11 11 10 5 13
21 19 17 18 15 15 14 8 0 0 0 0 0 0 4 0
0 0 0 0 0 0 4 3 3 3 3 3 4 4 7 14
0 0 0 0 0 0 0 0 12 13 14 16 16 16 21 25
26 25 25 24 24 24 25 21 9 5 19 27 27 22 13 0
4 20 13 12 15 22 24 24 25 16 15 14 10 9 15 16
20 21 22 23 22 28 22 26 26 28 27 27 24 24 28 35
26 23 22 22 22 16 21 16 13 25 25 19 18 25 25 25
24 26 26 20 14 7 7 19 14 2 9 11 11 10 5 9
19 19 17 18 20 22 24 24 10 0 0 0 0 0 5 0
0 0 0 0 0 0 4 3 3 3 3 3 4 5 9 16
0 0 0 0 0 0 0 3 12 12 15 16 16 17 22 24
26 24 23 23 25 23 24 22 13 8 14 26 27 22 13 0
3 20 13 11 14 22 23 23 24 18 15 15 10 8 12 15
20 23 23 22 22 26 26 24 25 28 27 27 24 27 28 27
27 24 22 23 19 18 21 15 13 25 25 19 18 26 26 25
25 26 25 19 14 9 5 17 18 4 11 11 10 11 7 5
17 19 18 23 34 34 32 29 26 10 0 0 0 0 3 0
0 0 0 0 0 0 4 3 3 3 4 3 3 5 10 16
0 0 0 0 0 0 0 8 10 12 15 16 17 17 23 24
25 23 20 22 24 23 24 22 16 7 9 24 26 20 14 1
2 20 14 10 15 23 24 23 24 22 15 15 12 8 11 14
18 19 23 26 25 23 32 24 22 25 25 26 25 25 31 26
25 24 23 21 17 21 20 14 12 25 25 19 16 24 27 26
27 25 24 20 14 10 5 14 18 9 10 11 10 10 9 3
16 18 19 20 36 31 29 29 28 25 9 0 0 0 2 0
0 0 0 0 0 0 4 3 4 6 7 7 6 7 12 17
0 0 0 0 0 0 0 12 13 13 16 15 15 19 24 27
24 22 20 23 24 23 24 21 17 6 5 24 26 23 14 1
1 21 16 11 16 25 24 23 25 25 18 15 14 9 10 12
17 18 20 23 25 26 26 27 22 24 24 24 24 25 33 25
25 22 18 20 24 20 20 12 12 27 25 19 16 24 27 28
27 27 24 21 14 10 7 10 18 12 10 11 10 9 10 2
15 18 18 16 29 30 30 30 29 28 23 3 0 0 0 0
0 0 0 0 0 1 6 7 8 10 11 10 7 7 14 17
0 0 0 0 0 0 3 12 12 15 16 14 16 23 24 26
21 21 20 23 24 24 23 22 18 8 1 20 25 22 14 1
0 19 18 12 16 25 24 23 25 28 22 16 15 11 8 10
17 17 20 22 25 24 27 31 23 24 23 22 22 24 30 22
20 17 23 26 22 20 19 10 14 26 26 19 17 24 26 27
27 27 23 21 16 11 7 6 16 15 10 11 10 8 11 4
12 15 18 17 27 33 32 32 32 31 30 15 0 0 0 0
0 0 0 0 0 1 7 10 12 14 15 12 8 9 15 17
0 0 0 0 0 5 12 13 13 15 17 14 18 23 24 26
21 21 20 23 25 25 24 24 19 10 0 18 25 22 14 2
0 17 19 13 16 26 25 22 23 25 27 19 15 13 10 9
16 17 20 22 25 26 25 28 26 26 25 23 22 20 26 21
22 26 28 25 21 19 19 9 14 27 27 20 17 25 26 25
26 27 25 20 17 10 7 8 14 16 11 11 10 9 11 5
11 16 18 18 21 32 30 30 30 28 28 22 0 0 0 0
0 0 0 0 0 1 7 10 14 16 15 12 7 10 16 18
