P2
128 120
158
1 0 0 0 0 0 1 13 50 55 46 59 60 13 0 0
5 12 7 0 0 1 21 71 73 52 27 30 30 30 26 8
2 5 6 11 16 32 38 36 36 31 27 26 35 34 33 39
62 27 0 3 8 22 16 11 8 34 66 66 54 54 57 51
56 59 64 64 62 46 48 51 54 47 52 55 54 48 21 20
27 41 41 41 40 39 38 45 49 45 45 40 38 35 34 32
31 31 30 30 28 28 28 27 27 35 38 35 33 33 33 30
23 22 21 21 20 20 19 19 19 19 20 23 24 24 23 21
0 0 0 0 0 0 0 2 36 63 53 64 61 14 0 0
0 0 0 0 0 0 19 72 74 56 32 33 32 33 34 22
3 2 7 13 12 14 15 17 20 9 9 7 19 19 22 28
62 28 0 4 12 31 19 4 8 28 67 66 24 8 31 14
22 29 37 42 57 49 51 53 56 55 57 59 58 55 25 20
28 42 42 41 41 39 38 45 50 47 44 41 41 41 44 38
36 34 32 30 28 28 27 27 27 32 33 33 32 33 32 31
24 22 21 21 21 20 20 20 20 19 20 23 25 24 23 19
1 0 0 0 0 0 0 0 22 67 57 65 62 14 0 0
0 0 0 0 0 0 19 72 74 58 35 36 37 35 30 20
4 0 0 15 17 8 1 4 4 3 2 0 5 8 10 22
62 29 6 22 14 53 46 11 2 32 68 66 23 2 12 1
0 3 13 5 43 51 52 53 55 56 58 59 58 57 29 20
30 45 44 43 42 39 38 44 47 46 44 44 44 46 47 39
37 39 40 36 34 32 32 29 28 29 14 14 17 22 26 29
25 22 22 21 20 20 20 19 19 19 20 23 25 25 23 10
0 0 0 0 0 0 0 0 11 67 63 66 65 15 0 0
0 0 0 0 0 0 17 72 75 61 24 15 27 17 5 0
0 3 3 16 26 19 13 7 11 1 0 1 0 2 6 19
65 32 11 27 32 49 41 40 9 22 68 67 25 0 3 6
0 16 24 14 44 49 48 51 51 56 57 58 57 56 31 21
30 47 45 41 43 44 45 44 12 13 26 38 42 43 45 36
7 10 17 24 31 30 36 35 33 29 12 4 6 3 1 5
26 22 22 21 21 20 20 20 19 20 20 23 25 25 24 20
0 0 0 0 0 3 11 25 45 70 67 67 66 16 0 0
0 0 0 0 0 0 17 71 75 64 24 0 3 2 4 1
3 4 5 12 22 25 18 9 9 5 4 0 0 0 1 19
67 35 6 24 37 49 30 33 15 18 67 70 32 0 6 1
0 20 27 20 45 42 12 20 28 38 46 50 50 54 33 21
30 47 46 39 37 42 48 49 6 0 2 13 18 17 24 36
1 0 0 0 1 4 9 15 24 29 11 0 2 3 0 2
27 23 22 22 21 21 20 21 20 20 21 24 27 26 25 22
5 10 18 26 40 55 65 70 72 73 68 66 68 40 23 18
12 10 8 6 4 4 19 71 75 68 42 13 0 2 1 3
5 4 7 3 11 29 29 22 15 14 6 4 7 5 6 24
69 38 0 7 22 39 33 21 3 16 68 71 35 0 9 4
1 13 16 12 44 42 2 2 6 6 5 11 9 41 34 21
22 30 38 43 45 47 50 50 9 0 1 8 12 13 16 36
3 0 0 0 0 0 0 0 7 32 9 0 0 0 0 1
28 23 23 23 22 21 21 21 20 20 21 24 26 25 25 23
47 51 48 50 52 61 72 72 74 75 68 56 62 65 64 66
57 60 62 60 58 55 57 71 73 68 42 11 0 0 0 1
2 2 7 16 18 28 32 23 28 23 5 2 6 7 3 20
67 41 0 0 0 6 5 0 0 15 68 72 38 0 5 2
3 7 0 2 44 41 4 2 0 0 0 0 0 36 35 22
15 0 1 5 13 22 32 41 11 0 0 5 2 6 12 37
5 0 0 0 0 0 0 0 6 31 4 0 0 0 0 2
29 24 23 23 22 21 22 21 21 21 21 24 27 26 26 24
59 63 61 65 69 72 74 75 74 71 65 54 59 62 58 58
65 70 70 68 63 60 50 31 39 44 44 8 0 0 0 1
1 4 8 36 33 36 36 25 32 28 1 0 0 5 3 19
60 45 0 0 0 0 0 0 0 14 68 73 42 0 3 11
10 20 1 1 44 41 8 9 3 12 0 0 1 37 36 22
16 0 0 0 0 0 0 12 12 0 0 0 0 1 11 35
2 0 0 0 2 0 0 0 5 32 2 0 0 0 0 2
31 25 24 23 23 23 22 22 22 22 23 25 28 28 27 25
72 71 71 71 72 69 65 62 39 28 38 29 10 17 31 33
46 52 55 51 55 59 47 26 34 44 49 7 0 0 0 0
0 0 6 38 35 42 40 21 26 21 1 0 6 11 10 24
63 48 2 0 0 0 0 0 0 13 68 75 49 1 10 28
26 33 8 3 44 42 11 12 7 25 11 0 0 38 37 24
17 0 0 0 0 0 0 9 12 0 0 0 0 0 14 40
5 0 0 0 10 9 2 0 4 33 2 0 0 0 0 1
32 26 26 25 25 24 24 23 24 23 25 26 30 29 28 27
65 65 64 62 57 44 43 47 21 20 38 19 0 5 4 5
17 25 19 5 14 40 46 58 57 53 39 3 0 0 0 3
9 5 5 14 13 41 31 3 8 8 6 4 7 9 9 27
64 59 37 33 32 31 28 25 23 30 71 77 54 8 11 9
8 11 9 5 45 42 10 13 4 22 16 0 0 38 36 23
18 0 0 0 1 0 0 8 11 0 0 0 0 0 11 42
6 0 0 1 12 13 11 5 3 33 2 0 0 0 0 0
31 26 26 25 25 24 24 24 23 24 25 26 30 29 29 26
45 52 57 59 61 59 59 57 48 42 53 19 0 0 0 0
2 9 1 6 17 39 69 69 59 36 14 0 1 15 5 2
10 8 9 6 1 31 23 0 2 6 4 3 8 3 6 22
61 75 73 69 67 64 61 56 53 52 56 60 39 7 8 17
19 11 7 2 42 40 8 11 7 5 8 0 0 37 37 23
18 1 2 3 16 5 0 6 11 1 2 0 0 0 11 42
7 0 0 1 12 13 12 10 2 33 4 0 0 0 0 0
30 26 26 25 25 24 24 24 24 24 25 26 30 30 30 27
37 38 40 44 45 46 48 55 62 56 66 21 0 1 0 0
0 4 0 6 8 36 76 72 59 11 4 0 5 13 3 9
5 7 6 4 8 32 35 3 4 4 0 0 0 0 0 18
70 73 58 59 58 57 61 62 59 52 43 43 18 6 6 11
18 10 6 3 41 39 4 9 12 1 1 0 0 37 36 23
18 5 15 9 9 2 0 5 13 1 0 0 0 2 12 43
10 0 1 1 6 11 11 8 1 33 17 6 1 0 0 0
28 26 25 25 24 25 24 23 24 24 26 26 31 29 29 27
6 4 1 2 4 4 3 18 63 69 69 29 6 11 3 0
0 0 0 1 1 38 77 74 62 13 10 4 4 2 6 8
5 5 4 7 4 27 36 8 5 2 1 0 0 0 0 19
74 59 7 6 10 14 21 29 36 49 59 50 58 55 48 45
42 36 26 24 46 42 5 7 10 2 1 0 0 39 37 25
20 11 12 1 7 6 0 5 15 0 0 0 0 1 20 45
21 6 4 3 0 1 6 7 0 31 39 35 32 27 24 23
34 28 26 26 25 25 25 24 24 24 26 27 31 30 29 25
0 0 0 5 26 22 1 14 65 70 70 41 45 55 33 13
0 2 9 1 2 40 78 73 61 9 8 9 14 20 23 21
19 13 11 9 18 32 40 8 11 7 12 3 0 0 0 18
71 60 9 0 1 7 4 1 2 16 66 63 47 47 50 53
61 64 64 63 54 63 47 30 37 37 36 31 27 44 35 24
20 9 3 0 0 2 1 7 37 26 18 18 10 3 5 47
42 36 34 31 24 16 11 8 5 33 40 38 37 36 41 43
42 28 26 25 25 25 25 24 24 25 25 26 31 30 29 24
0 0 0 10 40 35 6 13 67 72 72 54 42 40 46 11
9 22 42 14 3 41 75 70 61 8 0 0 1 15 10 17
36 29 43 49 50 48 44 23 21 20 16 10 3 0 3 29
72 62 21 1 8 7 12 7 2 14 66 69 32 22 24 32
33 32 30 44 65 77 61 41 50 56 59 57 56 54 34 24
20 4 0 0 0 0 0 7 52 53 43 45 46 43 40 54
31 16 19 20 23 25 27 30 34 42 33 33 35 36 41 43
43 28 26 25 25 25 24 24 24 25 26 27 30 30 29 23
0 0 0 8 34 33 11 13 68 72 72 41 10 23 26 13
24 31 50 28 4 41 74 71 60 8 2 0 2 7 10 25
53 44 52 61 63 55 27 2 4 14 26 31 23 12 19 41
72 60 24 10 12 13 34 26 9 13 65 69 33 22 23 26
23 19 6 29 73 76 53 41 51 60 61 60 62 59 34 23
21 4 0 0 0 0 0 7 54 49 47 52 54 57 49 45
28 13 14 13 13 12 10 9 10 11 10 14 18 24 28 25
25 25 26 26 25 25 24 24 23 25 25 26 30 29 28 21
0 0 0 6 29 32 15 14 69 73 71 23 1 8 14 17
20 21 25 8 2 41 75 71 62 9 1 0 5 8 12 30
50 44 56 68 71 61 31 0 0 2 19 32 25 16 25 58
72 58 32 47 31 26 30 10 2 11 63 68 26 6 17 12
5 5 4 30 70 67 42 36 48 56 55 57 59 59 34 24
26 36 32 23 15 8 4 9 48 40 47 52 54 57 52 41
31 16 16 13 12 10 9 8 7 6 6 6 5 16 27 24
23 23 26 26 26 25 25 24 24 25 26 25 30 30 28 18
5 1 9 6 23 36 39 20 68 74 69 17 8 33 10 5
9 6 2 2 1 43 76 72 65 10 4 6 5 2 3 23
41 40 61 77 79 68 36 0 0 0 9 17 14 19 28 66
73 55 29 36 25 19 29 31 9 13 62 66 21 0 9 10
6 2 4 29 65 56 24 4 10 11 11 17 21 44 37 24
28 49 57 56 52 48 45 44 48 33 44 48 51 55 52 44
35 17 15 13 9 8 8 8 8 8 8 8 9 20 16 6
25 26 26 25 23 24 25 24 25 25 25 25 30 30 28 18
9 4 12 10 20 31 42 22 68 73 67 15 1 5 0 0
0 1 0 0 2 44 76 74 65 10 3 9 6 1 10 12
18 34 62 78 79 72 40 0 0 17 40 41 38 41 44 72
76 56 22 19 13 16 40 35 17 14 62 62 23 12 11 12
12 10 11 27 58 53 21 0 7 3 0 3 6 35 38 24
28 49 58 57 55 55 55 56 45 10 11 17 23 31 33 35
37 18 14 9 2 2 2 7 11 9 7 10 12 21 29 26
32 33 32 23 1 20 25 24 24 25 24 22 29 29 28 19
0 4 15 8 11 16 17 16 69 73 68 13 0 0 0 1
1 0 0 0 1 44 77 73 66 11 0 1 7 1 12 9
5 30 59 76 76 72 41 0 0 12 42 46 56 67 54 52
72 70 57 46 49 50 44 23 14 14 51 34 18 9 11 7
7 13 9 17 16 26 18 4 4 1 6 14 12 32 38 24
26 44 54 54 54 55 55 57 41 3 0 0 0 4 13 25
39 16 11 7 0 0 0 2 4 3 0 4 5 16 34 31
27 27 30 31 27 25 25 24 24 23 7 14 27 28 28 17
0 2 32 18 0 3 3 13 70 73 70 29 16 14 12 9
7 5 3 2 2 46 75 72 66 11 0 5 8 4 10 14
12 25 53 73 73 71 42 0 0 11 41 43 51 57 30 9
60 69 59 28 50 66 54 25 11 10 14 22 11 10 6 9
5 10 13 21 12 11 13 10 7 4 21 35 36 33 39 33
32 38 42 43 43 43 45 52 39 1 0 0 0 0 2 23
40 15 12 8 0 0 2 0 0 0 0 0 0 10 34 30
21 20 21 23 25 26 25 25 25 24 6 15 26 28 29 21
0 5 42 27 0 0 0 13 71 66 66 70 73 69 64 58
52 49 49 43 39 59 74 71 66 13 0 1 2 1 3 5
3 7 49 71 72 71 42 0 0 17 56 57 49 40 28 2
48 65 57 19 38 60 44 23 11 9 10 20 18 10 10 10
10 8 17 17 13 14 13 14 11 14 20 30 33 32 32 28
28 28 28 31 38 36 38 50 37 1 0 0 0 2 0 16
40 10 5 0 0 0 8 4 0 0 0 0 0 9 35 32
15 23 28 21 23 25 25 25 25 24 18 18 27 29 29 26
0 11 41 29 0 0 0 12 54 50 62 68 83 80 78 75
71 70 74 73 74 74 73 70 63 14 4 5 5 5 5 6
6 5 50 71 72 72 49 15 14 18 37 63 58 53 41 9
39 61 45 9 23 54 19 7 7 10 8 10 21 10 9 11
11 13 18 18 15 15 14 12 11 14 12 21 26 29 32 27
29 29 32 33 38 38 42 50 36 0 0 0 0 0 0 17
35 0 0 0 0 0 4 10 5 0 0 0 0 9 35 33
9 18 18 17 22 25 25 25 24 25 23 19 29 28 29 28
0 15 36 27 1 0 0 14 42 54 64 73 83 80 77 77
74 74 76 76 77 77 74 72 65 32 51 52 52 53 50 47
45 42 62 71 74 75 63 63 66 57 28 30 51 61 57 30
27 41 41 17 15 40 9 5 8 8 13 7 14 16 12 10
16 14 20 26 26 15 13 12 17 12 14 16 16 23 28 26
28 18 15 20 27 32 37 42 34 0 0 0 0 0 0 20
36 0 0 0 0 0 3 13 10 7 0 0 0 8 34 34
13 13 15 12 22 24 25 26 25 25 24 20 29 30 30 30
7 21 35 24 5 1 7 34 43 54 63 72 70 70 72 67
70 68 62 66 74 76 76 76 75 69 67 73 75 78 65 58
62 68 74 68 78 77 72 73 68 57 62 33 9 14 16 6
4 4 18 36 23 14 9 8 8 7 12 10 14 18 17 17
22 27 37 43 45 28 25 19 20 14 15 14 15 24 33 34
31 9 0 0 1 1 2 4 25 0 0 0 0 0 0 20
33 0 0 0 0 3 13 15 13 12 0 0 0 8 34 36
21 17 13 12 20 23 25 25 25 25 23 18 29 30 29 30
56 57 58 56 51 42 26 28 34 45 49 52 54 55 57 57
70 48 15 21 29 43 48 47 69 75 71 75 77 79 64 62
67 74 79 78 82 80 79 76 60 32 71 69 31 2 0 0
7 0 3 12 18 7 7 10 9 13 16 18 24 28 33 37
34 48 58 72 77 59 53 40 29 20 21 16 15 22 31 35
33 13 0 0 3 0 0 0 20 1 0 1 7 2 0 19
32 0 0 0 0 3 15 21 8 3 0 0 0 6 34 37
24 14 1 0 17 23 26 25 25 25 24 17 27 29 30 30
64 51 52 62 65 57 13 0 4 6 4 5 7 4 5 9
60 47 8 13 1 22 38 13 60 77 81 72 70 69 64 67
72 77 83 84 85 84 83 81 62 21 70 72 36 13 3 0
14 6 14 18 12 7 6 9 18 21 29 39 55 54 54 68
67 76 90 98 101 99 90 75 62 44 30 21 14 15 22 31
31 13 0 0 7 4 0 0 20 1 0 10 18 8 0 19
29 0 0 0 0 0 1 14 2 0 0 0 0 3 32 38
21 9 2 1 15 23 26 25 26 25 23 18 29 29 29 28
57 11 8 10 13 22 5 0 1 0 0 0 3 0 2 4
55 53 13 23 2 12 24 22 62 77 76 49 47 53 63 66
71 76 80 80 80 82 82 82 68 13 64 72 26 5 0 0
24 29 21 16 7 4 7 11 25 47 77 88 93 99 94 99
105 109 119 124 124 122 117 109 98 81 55 31 24 19 18 21
27 16 2 8 18 12 3 0 19 2 1 16 19 12 0 17
28 0 1 0 0 0 0 13 4 0 0 0 0 1 30 38
11 6 0 0 14 21 26 26 25 25 22 20 29 30 29 28
67 19 3 0 4 23 3 0 0 2 0 0 6 0 3 5
51 61 11 16 14 19 38 57 69 79 72 13 5 27 43 27
31 36 40 42 43 46 48 57 70 16 56 74 50 16 8 12
33 33 21 8 8 6 16 38 66 100 117 126 132 127 128 127
131 136 141 143 141 142 137 133 124 106 81 55 37 19 16 14
25 18 0 13 27 16 9 0 23 25 22 30 26 26 15 25
29 0 0 0 0 0 0 12 6 0 0 0 0 0 27 37
7 3 0 1 19 20 25 25 25 25 20 23 29 30 29 29
65 41 12 5 13 29 1 0 0 5 5 0 4 0 0 7
49 63 4 0 21 48 41 70 74 79 71 12 1 24 38 10
8 10 12 14 12 10 8 22 70 39 53 74 70 62 52 46
39 20 9 8 13 20 40 74 104 123 135 142 144 144 142 140
143 144 145 145 145 145 142 138 131 119 100 82 62 34 22 12
16 19 4 11 17 11 6 0 26 46 45 49 46 47 49 51
34 2 3 1 0 0 0 14 7 0 0 0 0 0 21 36
5 0 0 0 14 19 25 25 25 24 19 24 29 30 29 25
70 60 25 10 9 28 0 0 3 10 4 0 0 0 0 2
42 67 9 5 13 32 41 66 73 79 71 13 0 21 41 8
5 8 6 15 13 8 11 22 70 54 51 74 72 70 65 49
21 10 12 12 23 46 76 98 120 139 146 146 145 145 145 145
145 145 144 145 145 144 143 143 143 132 111 95 76 51 29 15
17 17 15 9 8 5 2 0 24 47 47 49 47 49 55 57
45 25 25 22 15 12 13 20 14 8 6 5 3 4 16 35
8 3 4 2 4 18 25 25 25 23 19 25 29 30 29 22
66 69 31 3 9 32 6 8 10 18 0 0 0 0 0 0
32 71 17 11 7 13 33 55 71 79 71 15 0 20 45 9
6 10 6 15 16 14 25 34 70 58 44 73 72 70 63 35
19 8 10 17 30 69 90 109 127 142 146 141 146 146 146 146
146 145 145 145 145 145 144 144 144 141 125 108 90 65 37 21
16 14 19 12 9 4 1 0 22 43 44 45 44 46 53 52
47 36 37 36 34 32 33 31 28 25 21 19 17 17 24 37
21 17 14 8 6 15 26 25 25 24 20 26 30 30 30 24
52 71 42 0 9 36 15 20 25 28 2 3 5 0 0 2
30 73 14 1 0 5 19 47 70 80 72 16 0 19 48 14
20 11 8 14 15 15 23 23 64 53 34 72 70 70 60 34
16 12 13 23 43 80 105 123 137 146 145 146 145 146 146 146
146 145 145 145 145 145 144 145 144 144 136 122 101 79 55 33
19 14 11 10 8 3 0 0 24 42 40 41 41 41 37 33
36 38 38 38 36 35 35 35 34 32 32 30 27 24 27 39
38 36 34 29 26 21 25 26 25 24 20 26 31 30 29 25
43 62 58 5 10 38 16 23 31 30 2 8 15 8 8 7
32 75 18 0 0 1 15 48 66 79 70 15 0 14 46 13
26 6 8 8 8 5 20 31 56 56 13 38 39 42 38 31
17 12 15 22 51 90 113 129 137 145 146 146 145 146 146 146
145 145 145 146 146 145 145 146 145 144 143 128 110 90 74 48
26 14 10 16 11 6 1 0 24 45 39 40 39 39 38 37
39 40 40 43 45 42 37 35 36 34 43 43 39 35 36 35
33 31 32 33 31 26 25 26 26 25 21 26 31 31 28 26
35 56 69 19 12 40 15 23 30 32 3 1 5 5 5 7
36 77 24 0 1 2 17 34 62 77 68 14 1 10 48 13
20 3 6 5 8 13 20 41 53 62 6 2 6 12 20 22
19 15 18 33 67 97 121 135 143 146 146 146 146 146 146 145
146 145 145 145 145 146 145 144 145 144 145 142 114 92 78 61
24 10 17 37 35 34 35 32 41 49 42 42 41 41 41 42
46 43 42 45 50 48 38 33 33 35 45 43 40 38 38 34
26 19 17 16 17 21 26 26 26 24 20 27 31 32 29 26
44 52 70 40 14 43 17 22 28 32 5 1 16 5 0 11
34 78 36 5 13 8 20 26 62 76 67 12 0 5 52 17
11 2 4 4 6 5 14 34 48 65 7 1 4 4 11 13
10 12 14 42 77 110 126 138 145 146 146 147 147 146 147 146
146 145 146 145 145 145 146 145 145 145 145 144 135 108 84 62
24 13 16 43 51 57 59 60 59 54 44 41 42 41 43 47
51 46 43 45 48 44 38 36 31 30 42 41 38 39 38 37
32 25 22 21 21 23 27 27 26 23 21 28 31 32 29 27
57 56 73 58 20 45 17 22 26 33 6 0 6 1 0 8
25 75 46 12 13 7 12 13 61 74 64 9 0 3 53 27
3 3 6 19 15 7 5 12 32 69 15 6 5 8 12 12
6 11 22 52 91 119 131 141 146 146 146 147 146 146 146 146
146 145 146 146 145 146 146 146 145 146 145 145 144 130 102 59
26 16 24 43 51 60 60 60 60 52 28 28 23 22 25 32
44 47 43 36 27 31 33 29 31 30 27 13 10 14 21 22
30 30 27 26 28 28 30 29 26 22 23 27 31 32 30 26
75 74 75 68 32 47 15 18 19 20 2 0 1 2 4 6
18 74 50 1 5 4 7 9 61 73 62 7 0 2 49 27
2 3 10 31 28 13 2 3 24 72 31 20 19 19 14 7
5 13 31 61 101 126 136 141 147 147 147 148 147 146 147 146
147 146 145 145 145 146 146 145 146 146 146 145 144 133 110 67
31 20 24 35 39 41 43 43 45 43 8 3 0 0 1 2
24 48 39 13 2 4 7 10 21 34 25 1 0 0 1 6
23 25 24 26 29 32 35 33 27 20 25 28 32 32 30 26
74 73 68 49 23 54 28 31 34 36 39 43 49 53 59 64
70 85 61 15 16 14 15 18 65 75 61 7 0 1 42 28
2 2 7 26 26 13 2 4 14 70 59 55 45 30 11 6
4 14 39 70 107 128 136 141 146 147 146 146 147 146 146 146
145 146 146 146 146 145 146 145 146 145 145 145 144 137 115 73
41 16 18 33 39 39 38 36 35 37 13 3 0 0 0 3
23 46 28 1 0 0 0 3 23 34 26 0 0 0 0 7
21 7 1 3 4 4 20 35 27 21 26 28 31 32 30 25
69 55 27 5 10 69 78 78 80 81 83 84 85 86 87 87
87 87 78 57 66 64 62 63 75 67 60 15 5 5 38 40
10 10 10 17 16 13 11 11 17 65 60 52 38 15 7 7
4 13 42 74 109 128 137 142 147 146 146 147 146 147 146 146
146 146 146 145 145 146 146 147 145 145 145 145 145 138 117 73
41 16 12 37 47 45 45 44 43 39 13 7 0 0 0 8
28 45 16 0 0 0 0 0 21 35 27 1 0 0 0 4
21 6 0 6 2 0 11 36 27 21 27 28 31 31 30 25
44 17 7 6 14 72 84 84 85 85 87 87 88 88 87 87
88 88 80 53 59 60 62 66 74 64 71 59 57 53 56 74
63 61 64 63 61 58 61 64 62 73 59 38 27 9 8 6
10 26 43 76 111 128 136 143 146 145 146 146 145 146 145 146
146 146 146 146 145 146 145 146 145 145 145 145 145 140 117 82
39 23 13 30 46 46 46 46 47 41 12 7 0 0 2 4
17 42 10 0 0 0 0 0 20 34 26 1 0 0 0 2
21 7 0 5 2 0 10 35 27 21 27 28 30 32 30 25
57 56 56 54 54 79 87 86 86 86 86 85 83 80 73 62
57 51 39 11 11 11 13 21 63 76 81 71 77 73 66 87
88 82 87 87 85 81 84 87 81 81 60 19 12 9 7 6
13 24 47 86 116 128 136 142 146 146 146 146 146 145 146 145
146 146 145 145 145 146 146 146 146 145 145 144 143 141 125 94
56 38 15 19 34 35 36 39 45 45 10 0 0 0 7 8
12 41 9 0 0 0 0 0 21 34 24 0 0 0 0 0
19 10 0 1 0 0 9 36 26 22 27 28 31 31 31 28
69 68 66 66 66 72 73 65 70 69 67 65 62 59 38 5
2 1 1 5 10 2 4 11 62 79 83 81 79 74 64 83
91 90 90 85 79 80 80 82 83 73 63 22 10 9 5 6
14 37 65 103 120 129 135 144 146 145 146 146 147 145 145 146
145 146 145 145 146 146 146 146 145 145 145 144 144 140 131 112
78 50 15 15 34 32 31 26 33 50 23 4 0 0 6 6
9 41 7 0 0 0 0 0 19 34 23 1 0 0 0 0
17 12 0 2 1 0 8 35 26 23 28 28 32 32 30 29
59 60 63 60 62 66 62 56 64 64 64 64 60 59 35 0
0 0 1 11 21 3 5 12 60 79 82 82 77 72 60 67
75 73 74 71 69 68 66 63 52 49 39 17 11 8 4 5
16 43 83 113 122 127 131 138 146 145 146 146 145 145 145 145
145 145 145 145 145 144 145 145 145 145 144 144 143 138 130 121
95 53 17 13 41 42 42 38 30 50 22 3 0 0 5 7
8 39 6 0 0 0 0 0 13 35 24 3 0 0 0 0
15 16 0 0 0 0 6 33 24 23 26 27 31 30 30 29
58 58 59 55 57 61 60 60 60 62 63 63 59 58 37 0
0 0 0 3 9 4 5 13 59 79 76 69 66 60 52 47
51 49 52 51 46 47 53 37 16 18 16 7 7 8 5 4
19 38 66 71 72 74 74 79 88 99 111 124 140 146 146 146
146 146 146 146 146 144 140 127 114 92 80 68 66 67 69 67
62 42 23 17 39 40 42 40 30 49 12 0 0 0 0 0
8 41 8 0 0 0 0 0 10 36 23 1 0 0 0 0
12 21 0 0 0 0 6 32 23 23 27 28 30 31 30 28
55 55 54 54 54 53 52 52 52 53 56 60 63 61 38 0
0 0 0 2 3 5 8 15 59 80 74 57 31 16 9 11
25 30 34 26 16 26 53 36 18 22 14 4 9 10 8 20
81 96 88 71 57 49 35 28 21 19 20 25 50 109 146 147
147 146 146 146 145 113 52 25 20 23 25 23 28 37 44 55
84 122 105 37 31 39 42 40 29 44 9 0 0 0 0 0
5 40 11 0 0 0 0 0 9 38 25 4 0 0 0 1
13 25 0 0 0 0 7 31 23 24 27 28 31 31 28 26
56 55 54 54 53 52 52 51 50 38 12 40 66 63 40 0
0 0 1 6 15 19 11 17 58 79 74 54 14 1 0 3
11 27 26 7 2 22 55 37 24 23 8 3 4 13 7 38
117 66 31 33 20 16 8 5 6 8 12 10 13 20 75 144
147 147 146 144 86 24 18 15 16 14 11 10 10 13 18 30
33 39 127 44 18 38 42 40 28 40 13 5 3 2 7 12
9 39 27 15 13 17 15 15 22 41 29 30 30 29 29 33
38 32 7 5 4 3 11 30 22 24 27 28 31 30 26 29
50 51 50 49 49 50 50 50 50 33 0 29 64 63 39 0
0 2 23 19 31 39 15 16 59 81 74 54 19 11 10 15
13 17 25 7 1 22 56 39 24 19 8 1 1 11 12 21
65 37 36 49 39 25 11 6 8 7 8 9 8 8 23 80
145 147 145 82 23 12 9 10 10 11 11 10 14 21 27 40
49 36 56 15 20 39 43 41 26 40 38 36 31 31 33 34
33 36 48 51 47 46 48 48 48 47 30 36 40 41 44 49
51 43 29 27 26 26 27 28 23 22 26 28 30 27 29 28
12 13 15 16 17 19 22 39 51 36 1 20 60 58 43 13
12 24 52 46 57 60 28 19 57 80 73 53 27 21 22 22
15 19 28 8 1 23 54 36 23 17 6 0 0 3 19 20
49 29 58 111 96 35 20 13 8 8 5 1 0 2 14 39
83 87 86 37 26 6 5 6 8 7 8 12 15 25 48 99
116 64 48 13 19 31 40 41 27 39 44 42 38 40 39 33
30 31 44 53 51 50 48 50 51 50 32 31 36 39 43 48
48 43 28 26 26 25 26 25 25 22 25 26 27 29 30 28
0 0 0 0 0 0 0 27 51 37 1 17 59 53 50 47
50 47 57 62 70 70 59 54 66 76 70 51 27 22 25 17
5 15 27 10 2 24 50 22 18 20 9 1 5 3 12 25
50 29 94 153 136 60 27 19 9 5 1 0 0 0 15 49
69 46 71 51 28 2 2 1 1 1 6 13 19 26 65 149
151 87 49 16 20 32 37 41 29 40 43 37 36 39 40 35
28 28 33 35 37 36 35 35 34 35 29 25 29 32 32 29
27 28 28 28 28 27 26 26 26 25 23 24 27 30 29 28
0 0 0 0 0 0 0 24 51 38 2 16 57 56 55 56
59 52 59 66 71 72 70 69 69 73 70 51 25 20 24 14
5 13 23 16 4 23 36 19 17 31 16 0 8 2 4 27
45 38 110 153 132 43 16 9 7 1 0 0 0 0 19 48
43 43 56 52 28 2 0 0 0 0 2 7 16 21 50 138
142 70 43 20 19 27 38 38 31 38 34 29 31 31 35 36
29 29 29 23 25 25 26 25 24 27 29 30 32 33 32 29
25 26 28 28 29 28 27 27 26 25 26 27 30 32 29 28
0 0 0 0 0 0 0 23 51 39 2 16 54 59 55 53
61 60 62 69 75 75 74 72 70 74 70 50 19 5 8 8
10 17 15 9 7 21 28 17 13 10 7 1 18 22 83 46
42 27 58 96 61 19 10 6 3 0 0 0 0 0 23 42
104 144 115 40 32 0 0 0 0 0 1 4 8 15 33 56
59 39 46 33 35 30 38 38 34 41 30 12 14 15 18 19
17 25 31 30 31 31 38 38 33 33 36 36 41 43 42 35
29 27 28 29 28 28 26 27 26 25 26 27 31 32 30 26
0 0 0 0 0 0 0 24 52 41 3 16 52 61 57 48
52 49 56 69 76 77 76 74 71 76 70 49 13 0 0 1
9 19 10 2 7 21 22 14 10 1 4 6 14 39 120 90
42 22 35 43 27 15 9 6 4 0 0 0 0 1 33 49
127 146 142 56 41 1 0 0 0 0 0 2 4 10 30 35
33 29 45 65 78 34 42 32 30 45 30 5 0 0 0 2
6 23 32 40 43 38 50 53 28 21 23 23 27 33 44 37
30 29 28 29 28 28 27 27 26 25 27 28 31 32 28 22
0 0 0 0 0 0 0 23 53 42 5 10 46 52 40 41
47 49 46 47 52 58 68 75 71 78 70 50 15 4 3 1
7 18 8 3 8 26 20 15 9 3 8 9 5 24 94 87
32 19 27 31 19 13 7 4 4 2 0 0 0 2 40 69
133 146 144 90 44 2 0 0 0 0 1 1 3 8 23 30
28 26 45 56 83 33 40 37 23 45 35 1 0 0 0 0
2 28 31 39 43 27 37 46 11 0 0 0 1 9 40 39
30 30 29 28 28 28 27 26 26 25 25 27 31 31 25 16
0 0 0 0 0 0 0 23 53 46 26 7 37 40 10 16
27 31 26 19 14 21 40 72 75 78 72 57 27 16 13 2
5 10 7 3 15 31 22 11 5 12 14 7 10 19 52 61
39 15 22 24 13 7 3 2 1 1 0 0 0 9 42 97
135 146 144 124 46 19 0 0 0 0 0 2 2 7 18 29
25 23 44 45 87 30 33 37 26 41 35 2 0 0 0 0
0 27 29 37 38 4 5 31 10 0 0 0 0 5 39 39
31 30 29 29 29 28 28 27 27 26 27 27 31 29 25 10
0 0 0 0 0 0 0 21 53 48 31 4 30 38 0 0
2 8 11 8 13 24 43 74 76 75 73 65 38 14 11 2
3 2 2 6 22 35 23 13 6 13 12 4 15 19 62 80
43 15 16 19 10 5 1 0 0 0 0 0 0 33 56 122
135 148 146 135 64 37 0 0 0 0 0 0 1 8 14 24
24 24 46 64 89 23 34 30 30 25 17 0 0 0 0 0
1 29 28 38 37 3 2 29 13 0 0 0 0 2 35 38
30 30 29 29 29 27 27 27 26 26 27 27 30 28 24 19
0 0 0 0 0 0 0 21 54 45 8 0 27 38 1 0
0 6 11 0 0 5 28 73 76 75 73 73 38 4 6 4
4 4 5 13 30 37 22 16 12 9 8 6 9 25 66 104
49 24 15 19 10 7 1 0 0 0 0 0 7 45 101 125
135 147 146 140 119 42 18 0 0 0 0 0 1 11 13 23
25 30 66 109 78 17 33 26 30 22 14 0 0 0 0 0
1 30 26 38 37 3 3 27 15 0 0 0 0 0 31 38
30 29 28 29 28 28 27 26 26 26 26 27 30 28 24 19
0 0 0 0 0 0 0 20 53 45 6 0 21 42 3 0
0 1 11 1 0 0 14 70 69 68 67 73 49 32 36 39
42 44 44 40 38 30 19 17 8 9 5 4 7 18 60 107
59 26 14 18 15 12 1 0 0 0 0 1 40 64 139 132
134 144 142 134 140 71 44 6 0 0 0 0 1 13 13 20
23 37 92 132 56 9 27 25 28 23 16 0 0 0 0 0
1 30 26 39 37 2 3 25 16 0 0 0 0 0 29 38
29 29 28 29 28 27 27 26 26 26 26 27 30 30 21 12
0 0 0 0 0 0 0 18 53 46 11 7 25 46 5 0
0 6 14 1 0 0 13 68 59 52 54 70 66 67 68 69
70 70 65 49 37 25 18 18 9 8 2 1 11 11 51 114
75 63 21 16 13 10 1 0 0 1 0 24 46 124 136 131
130 139 135 128 133 127 43 39 4 0 0 0 4 12 14 20
26 70 103 138 35 8 13 24 24 23 14 5 0 0 2 1
0 28 27 38 37 4 4 23 19 2 0 0 1 0 28 38
29 29 29 28 28 27 27 26 26 26 26 26 29 31 25 17
0 0 0 0 0 0 0 17 53 50 42 46 53 52 12 0
0 5 12 0 7 6 11 62 26 7 16 57 68 71 72 72
74 72 61 46 39 26 17 16 11 4 1 1 10 11 40 125
93 93 74 32 22 14 5 1 4 12 23 57 122 131 132 134
139 145 145 144 134 132 128 54 32 18 12 8 11 15 20 30
77 99 110 132 15 6 6 15 21 24 12 10 2 0 4 7
0 27 28 40 38 15 6 21 20 5 3 3 0 0 26 37
29 29 29 28 28 28 27 26 26 25 25 26 28 30 26 18
0 0 0 0 0 0 0 17 53 52 55 58 60 55 14 0
0 0 1 0 16 18 16 61 18 0 3 50 69 71 73 74
71 67 57 41 35 27 18 14 7 8 0 1 7 10 22 116
103 89 110 114 83 53 36 39 57 83 116 136 128 126 129 136
147 146 146 145 137 133 137 132 119 95 76 61 54 60 85 121
117 96 111 116 5 4 2 9 21 24 14 15 4 0 8 17
7 25 31 40 35 20 12 20 17 3 10 8 0 0 24 36
28 28 28 28 27 26 27 26 25 25 25 25 27 29 25 21
0 0 0 0 0 0 0 15 52 52 56 59 61 59 21 5
3 0 0 0 6 15 29 61 32 19 22 37 43 45 55 60
60 59 48 35 28 29 17 12 8 17 4 4 6 4 11 111
114 92 110 125 130 128 129 142 147 147 134 122 127 127 126 120
124 141 145 129 123 136 132 128 140 146 146 145 145 141 136 125
115 96 118 103 7 1 1 6 18 26 22 21 21 17 22 27
26 34 37 41 33 17 21 19 18 7 11 9 5 4 21 30
27 28 27 27 27 27 26 26 25 25 25 23 25 28 23 22
0 0 0 0 0 0 0 13 52 51 45 52 51 49 34 31
33 24 26 28 32 38 47 62 50 46 53 47 46 47 48 47
54 49 41 30 24 25 14 12 8 18 8 5 4 1 2 94
123 115 104 119 128 133 143 147 147 145 127 120 131 126 111 63
101 122 126 85 81 136 138 128 139 146 146 146 145 146 140 131
116 118 132 83 9 0 2 6 19 29 34 42 45 45 46 47
47 49 45 43 30 7 23 19 28 24 24 23 22 20 22 24
26 27 27 27 26 26 26 25 25 24 24 23 25 28 21 22
0 0 0 0 0 0 0 12 52 50 39 35 28 26 26 28
35 51 66 72 73 73 76 77 76 76 77 76 77 76 73 70
62 52 37 29 26 18 12 6 8 15 7 8 1 1 0 63
127 120 102 117 123 131 144 147 147 147 130 121 137 128 100 113
127 109 117 130 95 126 144 139 141 146 146 145 145 145 140 131
115 127 133 66 9 1 2 8 23 28 36 44 50 50 49 50
49 51 51 43 30 1 10 18 28 24 25 24 24 23 24 25
27 27 27 27 27 26 26 25 24 24 24 23 24 25 21 23
0 0 0 0 0 0 0 12 51 50 34 25 16 14 16 24
27 30 44 63 78 83 82 81 80 79 78 78 75 74 71 69
66 55 40 31 25 21 13 2 4 14 7 6 0 0 0 23
120 109 99 114 122 129 140 147 148 147 144 138 137 131 125 127
141 127 137 146 133 140 145 146 145 146 145 145 146 145 141 129
113 106 138 46 9 12 4 8 27 21 28 32 39 35 33 32
31 30 28 37 29 0 5 15 29 27 29 29 28 28 27 27
27 27 27 26 26 26 26 25 25 24 24 23 24 24 23 23
0 0 0 0 0 0 0 11 51 49 23 16 20 25 24 23
28 32 34 40 58 72 67 62 60 57 59 61 62 62 61 58
58 49 39 33 24 25 20 6 1 10 6 2 1 0 0 2
85 123 98 109 118 124 136 146 147 147 147 145 141 140 136 139
147 146 146 146 142 145 146 145 146 145 146 146 145 145 142 128
115 129 118 13 13 21 5 10 24 21 20 20 21 17 15 14
13 12 12 32 29 1 3 15 30 28 30 29 29 29 28 27
28 27 27 27 26 26 26 25 25 24 24 22 23 22 23 23
0 0 0 0 0 0 0 10 50 48 14 5 9 22 26 18
21 26 32 37 45 55 53 52 51 51 51 51 52 51 48 47
43 38 36 28 21 26 26 9 0 5 6 2 1 0 0 0
20 97 96 106 116 121 132 143 147 147 146 142 140 142 144 144
147 147 147 146 146 146 146 146 146 147 146 146 146 145 140 128
117 127 44 2 11 10 9 18 20 26 25 18 20 20 16 16
15 14 14 34 31 7 8 19 32 28 30 30 29 29 28 28
28 27 28 27 26 25 25 25 24 25 23 22 22 25 26 25
0 0 0 0 0 0 0 9 50 49 13 0 0 10 19 20
22 24 29 39 38 39 39 40 40 38 37 38 39 41 40 38
37 32 29 27 25 27 21 13 0 3 5 1 3 0 1 0
3 12 72 108 117 122 132 142 148 148 143 135 134 140 144 147
148 148 147 147 147 146 146 146 146 145 146 146 146 145 139 125
101 29 3 4 3 3 15 26 22 24 23 23 23 22 21 18
18 16 16 37 36 30 40 43 34 27 30 30 29 29 28 28
28 27 27 26 26 26 26 25 24 25 22 21 22 27 26 25
0 0 0 0 0 0 0 9 49 48 16 0 2 10 18 20
23 25 31 48 44 37 35 34 41 38 31 32 34 40 37 37
35 25 29 27 22 29 18 11 0 3 1 0 4 2 1 0
5 10 57 106 116 122 130 141 148 146 133 128 127 121 120 127
132 140 136 137 142 144 146 146 146 146 147 147 146 146 134 125
83 5 9 9 0 4 15 26 26 24 23 19 25 27 27 22
23 19 17 37 34 35 43 42 31 27 29 29 29 28 28 28
28 27 27 27 26 25 25 25 24 23 23 21 23 28 27 26
0 0 0 0 0 0 0 8 49 49 18 1 7 9 16 20
22 25 30 48 40 31 28 25 38 35 24 27 32 41 41 42
38 27 30 29 29 31 18 11 0 4 1 0 4 2 0 2
2 6 43 106 118 121 127 144 149 140 117 104 90 93 87 100
113 118 121 110 105 113 118 131 138 147 147 147 147 144 137 127
63 5 16 13 4 7 9 16 25 24 26 23 27 30 29 23
23 19 18 26 26 24 26 28 28 28 30 29 29 29 28 28
27 27 27 26 26 26 26 26 25 24 23 20 23 27 28 27
0 0 0 0 0 0 0 7 48 50 18 3 9 8 17 20
23 25 31 49 38 30 27 25 37 35 23 26 32 42 44 44
35 37 28 27 29 28 21 5 0 5 0 3 7 5 2 3
3 1 28 104 118 123 133 145 149 140 114 91 87 97 105 119
120 118 124 128 109 110 104 107 120 144 147 147 147 145 136 120
44 6 13 12 9 13 5 7 18 23 25 26 28 27 30 26
22 20 22 27 29 26 25 28 27 28 29 29 28 29 28 28
28 26 26 26 26 25 26 25 24 23 22 19 24 27 28 26
0 0 0 0 0 0 0 7 49 49 19 4 8 7 16 20
22 25 30 49 39 29 27 23 36 35 22 24 32 41 46 44
38 34 28 22 24 22 19 2 0 3 0 2 7 5 4 2
1 3 15 94 119 126 133 144 150 144 137 126 118 119 125 143
146 144 146 147 141 134 131 140 146 147 147 147 146 144 137 116
21 4 7 8 12 4 5 1 7 17 19 27 28 29 30 25
23 19 21 26 28 26 25 27 27 27 28 28 28 27 28 27
27 25 26 25 25 24 24 24 23 22 21 20 24 26 29 25
10 10 11 12 13 15 15 22 48 48 21 4 6 6 14 18
21 24 29 47 39 28 25 19 34 35 21 23 30 39 42 42
38 28 28 18 23 18 7 0 0 2 0 1 8 6 1 1
0 6 6 70 115 123 130 141 148 144 136 133 130 124 124 140
145 145 144 145 143 139 142 145 145 145 146 146 145 143 134 99
16 2 0 1 5 5 6 0 1 6 14 21 26 30 25 25
23 19 21 25 28 27 26 26 26 26 26 26 26 26 25 25
24 25 25 24 24 23 24 23 21 21 18 20 23 27 27 25
50 50 49 49 49 48 49 48 49 49 22 3 3 4 13 16
19 22 27 45 39 28 23 19 32 35 20 23 29 35 33 39
27 25 21 21 28 17 3 0 2 0 1 1 8 6 0 2
0 3 2 34 107 117 125 139 147 146 137 132 127 127 130 126
121 122 128 139 142 141 142 145 145 145 146 145 144 139 125 66
13 0 0 1 6 8 9 0 0 3 9 14 21 26 27 26
22 20 21 24 27 26 26 25 25 26 26 26 26 25 25 25
24 24 24 22 22 21 21 19 17 18 16 22 22 27 27 24
52 52 51 50 50 49 49 47 47 47 22 2 2 2 12 16
19 21 26 44 39 28 25 24 33 36 24 27 30 31 28 27
25 20 23 33 34 19 0 0 1 2 4 3 7 6 2 3
0 1 3 8 83 113 120 129 142 145 143 137 131 127 125 127
129 132 132 136 141 143 145 144 145 145 145 144 141 130 112 37
10 1 0 3 16 11 6 0 2 8 6 11 13 22 27 28
26 20 22 24 26 26 26 25 24 25 25 25 25 24 24 23
23 22 22 22 20 20 20 15 10 12 15 19 21 27 25 20
53 52 51 50 51 50 49 48 47 47 23 1 1 1 8 13
16 19 24 40 44 38 37 37 39 40 37 38 36 31 26 22
25 20 28 35 31 17 1 1 1 3 6 7 6 4 4 1
0 0 2 5 38 103 113 121 133 145 146 144 142 143 143 144
143 142 144 145 145 144 144 144 145 144 144 142 132 121 74 25
6 6 2 6 25 24 3 0 4 10 11 13 16 23 25 22
21 21 22 25 26 25 26 25 24 24 25 25 24 24 23 22
22 22 22 21 19 17 19 20 15 12 19 23 27 27 19 22
51 50 50 49 48 47 46 46 46 43 20 2 2 2 9 13
15 17 22 37 42 40 40 39 39 39 38 36 35 30 26 20
25 26 31 26 22 20 7 9 4 4 7 7 7 6 5 2
2 0 0 0 6 64 107 116 125 138 144 145 145 146 146 146
146 146 146 145 145 145 145 145 144 144 141 128 119 99 25 20
3 13 4 5 12 15 4 2 8 17 22 21 23 25 24 24
21 26 25 26 26 26 26 25 24 24 24 24 23 23 23 22
21 21 22 20 18 17 22 25 22 19 18 19 20 20 24 30
43 43 42 42 42 41 40 40 41 40 16 1 2 3 11 16
18 21 27 44 41 38 37 36 41 36 32 32 33 36 29 23
32 32 28 20 22 19 16 12 10 6 5 5 8 4 6 1
1 1 0 0 6 29 86 106 115 126 138 142 145 146 147 147
147 147 146 146 146 146 145 145 145 142 129 119 103 51 17 16
7 19 4 3 11 18 3 1 9 23 30 34 28 23 19 29
31 29 29 28 26 26 26 26 25 25 24 24 24 24 23 23
23 22 21 19 18 17 20 24 28 24 16 9 1 1 3 4
50 50 49 49 49 46 43 44 46 47 20 2 2 4 12 17
18 22 30 47 35 30 27 26 39 29 22 25 30 44 31 25
27 23 16 16 21 14 14 10 12 4 2 5 5 0 4 3
5 1 2 2 10 23 90 87 102 112 126 134 138 144 147 146
147 147 146 146 146 146 145 145 141 127 115 101 86 34 17 13
12 19 7 2 14 19 2 2 15 29 35 37 25 18 15 21
28 31 27 28 27 26 26 26 25 25 24 24 24 22 23 22
22 21 21 18 17 17 18 18 26 30 16 10 3 1 0 0
45 43 42 39 38 34 31 27 29 28 11 2 3 4 13 16
19 22 30 47 31 26 25 24 37 28 23 25 29 39 31 26
21 17 11 17 20 16 13 12 15 3 0 5 1 1 8 7
2 1 5 6 13 20 91 100 82 96 110 126 130 135 146 146
146 147 145 146 145 144 144 140 126 109 95 108 87 31 11 12
18 17 5 1 6 7 4 4 24 29 28 26 21 13 18 21
32 41 26 27 27 26 25 25 25 25 24 24 23 23 22 21
22 21 21 19 18 17 18 16 15 19 15 14 4 4 1 0
19 19 13 5 11 1 4 1 1 1 0 2 2 4 12 16
18 21 29 47 31 25 24 23 38 28 20 24 30 36 34 22
21 13 12 19 25 23 20 15 12 1 1 5 3 4 15 8
5 3 5 10 12 16 83 114 99 79 90 107 121 125 138 146
147 147 147 146 146 143 137 122 100 87 109 123 83 23 18 14
15 11 1 2 2 3 3 6 18 31 25 21 13 14 23 21
27 34 26 25 26 26 26 26 26 24 25 24 23 23 22 22
22 21 20 20 18 17 18 15 15 14 15 15 2 0 0 0
9 12 9 0 10 0 0 0 0 0 1 5 6 10 13 15
18 21 29 46 33 24 24 23 38 29 20 27 30 34 33 21
18 13 15 30 33 37 28 24 12 0 2 5 5 6 10 8
7 7 7 13 11 11 71 117 117 100 85 85 95 108 118 129
140 144 144 141 133 124 108 88 89 106 129 126 75 17 16 13
13 7 4 5 11 4 5 12 26 20 30 33 9 6 5 3
6 23 28 23 23 25 25 25 26 26 24 24 22 22 22 22
21 21 20 20 19 18 17 15 16 14 15 16 2 0 0 0
16 14 7 1 14 1 1 0 0 2 6 9 9 12 13 15
18 20 29 46 33 25 23 22 36 29 21 25 32 37 30 26
19 12 15 38 38 45 30 28 11 2 6 11 7 2 14 7
1 9 7 24 9 10 57 115 125 118 101 90 82 78 82 89
96 107 107 100 91 85 84 94 105 127 138 128 62 14 13 12
8 2 5 10 16 5 6 25 38 29 40 31 3 3 2 1
1 11 22 22 22 23 26 25 26 24 24 24 23 22 22 21
21 19 19 20 19 18 15 16 14 13 16 15 3 1 0 0
36 27 8 2 16 3 1 0 1 4 6 8 7 10 13 14
17 20 27 45 33 25 24 24 38 31 22 27 32 37 30 32
18 9 22 31 35 38 25 25 17 2 5 18 14 9 5 10
4 7 10 25 9 14 44 111 127 126 115 103 96 88 79 69
60 55 57 65 77 88 98 106 125 141 142 125 43 15 11 10
6 5 9 14 18 12 6 33 28 35 34 19 3 5 2 5
6 12 15 21 19 23 26 26 25 24 24 23 22 21 20 20
20 19 19 19 18 15 14 17 23 20 10 8 2 1 0 0
39 29 10 4 18 5 0 0 3 5 6 8 6 8 10 11
14 18 26 43 39 33 34 34 40 37 34 35 37 34 23 28
21 11 25 28 27 27 19 21 18 7 7 21 21 9 6 9
12 7 8 8 10 14 37 101 128 129 124 116 108 99 89 80
69 61 64 75 89 101 112 124 141 145 141 107 24 16 9 12
6 10 14 16 25 19 12 22 14 18 18 9 10 15 13 22
22 13 16 18 21 23 25 25 24 24 24 24 23 21 19 17
17 18 31 33 30 26 25 23 34 41 25 20 18 18 15 11
25 19 14 16 21 17 14 2 2 4 7 10 6 9 10 11
13 15 21 39 42 41 40 40 39 39 37 37 36 28 25 26
20 9 19 17 18 19 20 14 14 13 7 20 22 8 10 12
14 9 11 11 10 12 32 91 128 131 130 126 119 111 102 92
80 71 75 87 103 118 129 141 146 146 134 68 19 15 12 11
7 18 19 20 32 19 8 15 17 15 9 6 15 27 24 27
20 12 14 20 23 26 34 36 36 37 38 39 37 33 24 9
6 16 42 43 41 39 39 39 39 35 37 33 30 35 32 29
38 37 39 39 38 38 38 10 0 1 5 9 5 10 13 14
16 17 20 36 44 42 40 39 39 40 33 31 28 24 25 22
15 17 19 18 15 11 18 15 11 15 10 16 17 10 12 20
15 6 8 11 10 9 23 76 126 134 129 131 130 125 117 107
102 100 102 110 124 136 143 146 146 144 113 52 23 15 17 11
12 20 28 22 32 26 5 13 30 17 7 4 7 12 7 9
9 11 15 20 22 23 32 44 45 43 43 41 41 38 35 11
0 0 6 7 7 8 9 9 9 7 7 8 12 6 4 4
27 23 20 16 13 13 35 13 0 0 1 8 5 10 12 14
16 20 22 38 44 34 31 28 32 37 24 24 22 25 32 21
14 27 30 22 13 6 11 19 14 20 20 13 15 12 12 24
18 6 5 4 11 9 15 60 114 131 135 138 136 136 134 128
123 124 129 136 144 147 147 146 146 138 88 47 28 20 24 15
14 25 35 31 28 20 13 19 16 9 4 0 3 2 4 12
11 17 20 20 22 22 22 31 38 36 35 34 33 30 30 14
0 0 0 0 0 0 0 0 0 0 0 0 0 0 0 0
1 0 0 0 1 4 26 13 0 0 0 7 3 9 12 14
15 19 22 37 42 28 25 22 29 36 23 21 24 26 22 19
23 34 35 24 15 3 6 23 16 27 15 14 18 20 13 22
21 11 5 6 17 12 19 48 94 118 132 136 136 140 146 146
146 145 147 147 147 147 147 146 144 123 76 47 31 27 25 20
17 30 35 29 23 19 16 10 2 4 2 0 2 3 7 9
12 17 23 23 24 24 23 23 27 28 27 27 25 23 22 17
1 2 0 0 1 1 0 0 0 0 0 0 0 0 0 0
3 3 4 4 4 4 15 11 0 0 0 6 3 9 11 13
17 19 23 37 42 27 24 22 28 38 25 26 24 19 18 14
21 28 33 26 21 10 9 26 23 32 18 18 20 11 14 25
19 20 11 19 23 17 22 46 96 110 122 131 133 137 144 148
148 148 147 148 148 147 146 144 140 100 58 42 28 24 28 20
21 30 24 17 27 33 12 8 1 11 15 9 8 10 7 10
13 16 22 24 27 26 23 24 21 25 26 25 24 23 22 13
1 9 1 1 8 7 7 6 5 4 3 3 2 3 2 0
0 0 0 0 0 0 17 14 0 0 0 4 3 10 12 13
16 19 23 36 43 28 25 23 27 36 21 24 25 22 11 8
19 25 27 25 18 15 9 25 20 26 19 21 14 6 18 34
21 23 19 26 24 21 26 39 92 115 116 125 125 127 137 147
148 148 148 148 147 142 138 136 129 79 63 39 26 29 31 24
18 29 20 9 22 38 6 3 3 26 28 21 17 13 12 11
15 15 22 25 27 28 25 22 22 20 26 25 25 23 21 8
1 9 0 3 10 10 12 11 13 11 9 8 6 6 7 4
0 0 0 0 0 0 13 11 0 0 0 2 3 9 10 13
16 19 22 35 43 27 23 21 27 41 32 27 21 11 9 7
17 21 21 24 18 15 12 21 20 22 25 17 11 9 18 23
24 25 26 29 25 27 35 28 88 115 111 120 121 119 121 130
142 147 146 141 135 132 133 137 112 74 64 36 32 30 26 27
18 24 18 11 17 26 3 2 14 27 22 24 29 12 10 10
18 16 21 26 28 28 24 25 21 21 20 26 25 23 20 4
1 9 1 8 11 12 13 13 13 10 9 7 5 0 0 0
0 0 0 0 0 0 0 0 0 0 0 5 7 10 11 12
15 17 21 34 42 25 23 16 27 46 47 26 14 13 9 6
15 15 13 20 16 15 16 17 17 23 29 12 12 8 11 13
26 22 32 32 26 25 33 23 74 108 115 117 120 115 117 120
125 131 132 131 131 133 138 136 87 65 54 43 36 28 28 32
28 24 23 15 15 12 1 11 21 22 14 18 17 14 7 14
19 18 24 27 29 27 26 28 23 22 19 22 25 23 18 2
0 3 1 9 11 12 10 10 7 5 5 4 2 0 0 0
0 0 0 0 1 2 3 3 2 4 11 19 22 24 25 24
17 16 20 32 41 30 27 18 23 38 29 16 16 13 11 7
14 6 2 10 8 14 18 14 14 24 22 15 9 13 12 18
21 18 24 36 26 20 24 24 52 107 116 118 120 118 122 123
124 129 134 137 142 141 139 117 77 64 53 31 32 25 32 25
34 20 17 9 13 7 11 7 17 20 10 14 11 11 4 14
19 20 24 27 28 28 25 25 26 21 21 18 23 23 17 1
0 0 0 5 8 7 2 2 1 1 3 2 1 0 0 0
19 21 23 27 27 31 35 37 39 37 39 41 43 44 45 46
37 20 17 25 33 31 30 23 18 22 16 15 13 13 12 10
9 1 3 7 9 15 11 10 11 20 17 15 13 22 23 22
14 18 16 26 24 20 17 28 34 91 114 120 119 117 121 130
135 139 143 145 145 143 135 95 86 65 49 29 31 21 37 29
29 15 9 8 12 15 24 11 13 29 9 17 11 11 2 12
21 24 26 27 28 28 25 19 26 20 23 19 18 22 14 0
0 0 0 0 0 1 0 0 0 0 0 0 0 0 0 0
51 51 51 53 49 52 53 52 54 51 46 48 48 49 50 50
51 35 8 10 21 23 24 21 16 16 14 15 12 12 12 11
10 8 8 8 7 6 5 7 14 14 14 17 14 19 38 37
16 13 17 18 18 19 20 17 25 69 108 122 119 119 119 128
137 140 144 146 146 141 122 99 88 67 44 28 38 24 23 38
26 20 7 12 17 17 21 10 4 20 14 18 11 10 1 14
23 23 24 27 28 28 25 18 21 21 23 23 17 19 12 0
0 0 0 0 0 0 0 0 0 0 0 0 0 0 0 0
50 48 50 53 52 47 55 55 55 57 50 48 52 55 54 54
55 50 32 19 28 30 27 21 15 15 15 14 14 14 13 13
14 13 9 2 5 3 5 8 11 12 9 14 8 25 41 41
12 9 13 15 14 13 19 19 19 55 96 121 122 117 120 123
134 141 141 143 141 134 109 102 87 59 43 32 36 29 19 24
33 23 11 12 29 25 13 9 0 6 14 19 11 8 0 15
24 21 24 25 28 27 27 20 16 22 20 24 21 16 9 0
0 0 0 0 0 0 0 0 0 0 0 0 0 0 0 0
51 53 54 60 58 59 55 54 58 60 56 54 52 63 64 57
50 42 32 22 24 24 23 18 16 18 16 15 16 17 18 15
19 18 13 11 9 9 7 4 3 5 8 5 2 19 24 33
10 9 11 10 18 10 15 10 15 44 83 115 126 124 119 120
123 130 136 134 129 127 106 102 83 53 40 25 33 34 19 13
36 31 21 11 41 35 3 1 0 3 13 20 14 6 0 20
25 20 23 23 26 23 26 20 11 23 20 25 24 16 11 0
0 0 0 0 0 0 0 0 0 0 0 0 0 0 0 0
58 61 59 62 58 61 57 55 58 58 56 56 53 52 40 27
22 22 23 24 25 25 22 15 18 21 19 20 18 20 23 17
21 21 17 13 15 14 4 3 6 3 0 2 3 10 15 22
18 14 20 27 15 16 24 24 32 50 97 112 124 128 124 123
121 123 127 131 135 128 109 100 80 49 28 21 24 32 20 17
29 31 20 14 26 20 5 0 1 3 14 20 16 7 0 22
25 20 22 22 24 22 27 20 8 21 19 24 25 19 12 5
0 0 0 0 0 0 0 0 0 0 0 0 0 0 0 0
52 51 50 48 47 45 44 41 39 37 35 34 31 22 18 20
21 22 23 24 25 24 17 15 21 22 20 21 19 23 24 19
20 22 19 19 21 15 7 4 8 8 3 8 4 5 12 12
10 14 23 15 16 41 60 53 71 71 106 119 126 132 129 128
129 130 132 136 138 130 114 100 82 48 26 19 25 28 16 17
21 23 16 21 15 12 7 3 10 14 18 21 17 6 0 21
24 19 20 22 21 21 27 20 8 22 18 23 25 23 17 13
2 0 0 0 0 0 0 0 0 0 0 0 0 0 0 0
24 21 18 16 14 12 9 7 5 3 3 4 14 16 18 21
23 24 24 24 25 17 16 17 22 22 21 22 19 24 20 19
19 23 22 22 21 17 10 5 9 13 9 8 6 6 10 11
10 13 18 19 16 63 96 88 105 98 113 126 135 140 136 135
134 133 136 140 139 130 120 103 78 57 39 36 22 13 14 13
15 15 7 11 12 9 5 5 12 16 22 21 18 7 5 21
23 19 19 20 19 24 25 21 5 21 18 22 26 22 19 15
9 0 0 0 0 0 0 0 0 0 0 0 0 0 0 0
0 0 0 0 0 0 0 0 0 0 0 8 14 17 20 21
22 23 23 24 20 18 15 20 22 21 21 22 21 22 17 21
19 25 24 25 24 19 13 10 8 16 14 11 11 10 10 7
7 9 14 13 10 30 103 117 135 131 137 140 142 144 144 141
142 142 141 142 141 138 131 111 81 72 87 75 39 7 6 9
7 8 11 13 21 9 0 2 12 22 24 22 21 10 7 19
25 19 20 19 20 24 24 18 5 21 18 20 24 24 21 16
13 3 0 0 0 0 0 0 0 0 0 0 0 0 0 0
0 0 0 0 0 0 0 0 0 0 4 11 14 17 19 20
21 22 23 21 18 18 15 21 18 21 20 23 22 21 14 21
20 26 26 26 25 22 14 15 15 20 20 20 20 17 20 20
18 22 22 21 18 16 61 134 149 149 149 149 148 148 148 147
147 146 145 146 145 146 145 125 104 108 108 93 23 3 14 15
13 16 22 24 22 12 6 5 13 24 26 23 22 12 7 18
25 20 21 15 21 24 21 16 5 21 18 20 23 24 22 18
12 10 0 0 0 0 0 0 0 0 0 0 0 0 0 0
0 0 0 0 0 0 0 0 0 1 8 10 14 16 17 18
20 21 21 17 21 15 16 21 18 22 19 22 22 20 13 22
21 26 27 27 26 25 20 17 17 22 26 25 28 26 27 25
26 27 28 27 24 21 32 81 147 149 149 148 148 148 148 147
148 148 147 147 147 147 146 141 141 135 119 52 9 9 21 24
23 23 25 27 24 19 12 8 16 27 26 24 26 16 9 17
24 19 16 15 22 23 18 12 6 22 18 20 23 24 22 19
14 12 5 0 0 0 0 0 0 0 0 0 0 0 0 0
0 0 0 0 0 0 0 0 0 2 8 10 14 16 18 19
19 21 19 19 19 14 18 20 17 22 19 20 24 20 11 21
21 27 27 25 25 26 23 24 23 24 26 26 29 29 28 28
26 27 29 29 28 26 30 32 92 148 149 147 147 148 148 148
148 148 147 148 147 148 147 147 146 134 78 20 19 20 23 26
25 25 25 26 24 21 16 11 18 26 27 26 28 20 11 17
25 20 10 16 23 20 16 8 8 21 18 21 22 22 22 22
17 13 10 0 0 0 0 0 0 0 0 0 0 0 0 0
0 0 0 0 0 0 0 0 0 3 6 11 14 15 16 18
20 19 18 18 18 13 19 19 18 22 19 21 24 19 9 20
21 26 27 26 24 24 24 25 26 27 28 25 30 31 26 26
27 28 29 29 29 28 37 28 32 87 146 149 149 148 148 148
148 149 148 147 147 147 148 147 139 85 26 23 27 25 26 27
27 25 28 26 24 23 17 15 18 26 27 26 29 21 11 14
26 19 5 18 22 19 14 6 9 20 17 23 23 22 23 22
18 13 12 4 0 0 0 0 0 0 0 0 0 0 0 0
0 0 0 0 0 0 0 0 0 4 6 11 13 14 15 17
18 17 20 19 18 14 20 17 17 22 18 21 23 19 8 19
22 25 26 27 25 25 25 26 29 28 28 25 28 29 26 24
28 26 29 29 28 28 46 65 22 29 63 129 150 149 148 149
148 148 148 148 148 148 147 137 79 27 22 27 28 26 28 27
28 25 29 25 24 24 19 16 18 27 28 27 28 24 11 13
26 13 3 21 20 14 13 5 14 20 17 23 23 22 21 22
20 13 10 9 1 0 0 0 0 0 0 0 0 0 0 0
0 0 0 0 0 0 0 0 0 4 7 10 12 13 15 16
16 17 20 19 16 14 20 17 15 19 18 23 24 20 6 17
25 25 26 27 24 21 26 25 29 26 27 26 29 28 27 23
29 28 25 29 29 28 38 80 24 25 28 40 93 142 149 148
148 148 148 148 150 147 126 60 28 24 28 29 27 26 28 29
23 27 29 25 27 25 18 17 17 25 27 26 28 24 12 13
25 11 5 20 17 12 10 5 16 22 19 22 23 22 20 22
23 15 12 10 8 5 4 3 1 1 1 0 0 0 0 0
0 0 0 0 0 0 0 0 0 4 7 11 11 12 15 16
15 18 20 21 17 16 20 16 15 19 18 23 24 19 6 17
24 24 28 28 25 22 25 25 28 27 27 27 30 29 28 24
28 28 26 25 30 30 31 55 30 26 27 27 29 49 88 119
141 149 149 147 114 74 39 29 25 28 29 27 27 28 29 25
24 28 27 24 27 27 19 18 19 24 29 26 26 26 14 13
24 14 7 16 14 14 7 6 18 24 18 22 23 23 21 19
24 18 13 9 11 10 8 7 7 7 6 6 5 5 3 2
0 0 0 0 0 0 0 0 0 3 8 10 11 13 14 15
17 19 19 20 18 17 21 16 15 18 18 23 24 20 6 16
23 24 26 27 25 20 24 25 28 27 27 27 28 29 29 25
27 27 27 24 24 30 30 43 39 28 28 27 27 29 33 37
43 55 79 66 30 28 27 26 27 29 29 28 29 29 27 28
23 29 25 23 27 26 20 18 21 24 29 27 27 26 14 13
24 19 4 16 10 11 6 6 20 24 20 21 23 22 21 18
21 21 14 12 11 10 8 7 7 7 8 10 14 15 15 13
0 0 0 0 0 0 0 0 0 3 7 10 11 13 14 15
19 20 20 18 19 18 22 16 12 17 18 24 24 20 8 14
26 25 26 27 25 20 24 25 29 28 27 28 28 29 29 25
25 27 27 24 22 23 29 31 45 29 29 27 28 28 30 34
34 34 50 31 29 26 25 26 30 27 27 29 29 27 26 25
24 29 25 23 29 28 21 18 22 26 29 27 28 27 16 12
22 24 1 13 7 3 6 8 22 23 21 21 24 23 21 20
20 23 17 15 11 13 9 6 7 7 7 11 17 21 21 20
0 0 0 0 0 0 0 0 0 4 7 10 11 13 18 18
21 20 20 18 19 20 22 16 10 18 19 23 24 21 8 10
27 25 27 27 25 22 24 26 27 29 28 29 28 29 31 27
25 28 27 26 21 22 24 28 45 31 29 29 29 29 30 32
33 33 42 28 30 27 26 27 29 28 30 30 28 25 29 22
27 29 25 23 30 26 23 17 21 27 28 27 27 28 17 12
22 27 5 11 6 0 7 9 22 24 21 23 24 24 21 21
21 23 21 16 14 18 13 8 7 7 8 12 19 22 21 22
0 0 0 0 0 0 0 0 0 3 8 9 11 15 19 20
20 20 20 19 18 20 21 16 7 17 18 23 23 21 10 8
26 26 26 28 26 21 23 27 26 28 27 28 27 28 29 27
23 27 28 28 23 20 25 24 39 35 29 30 30 29 29 32
33 35 35 28 28 27 27 28 28 29 29 27 25 27 26 20
28 28 24 24 28 26 22 19 19 28 29 28 25 28 19 11
19 27 11 8 7 0 7 10 22 24 22 22 23 22 20 20
20 21 25 18 16 15 15 8 6 6 8 14 19 22 22 21
0 0 0 0 0 0 0 0 0 3 7 9 14 18 20 20
20 20 21 19 18 20 23 16 4 16 19 24 24 19 12 7
25 27 27 27 27 21 23 27 25 28 28 28 28 28 28 28
23 26 28 28 27 20 19 26 27 40 28 30 30 32 31 30
33 38 31 29 29 27 28 29 29 28 25 26 28 27 26 20
29 28 23 25 29 27 22 20 18 26 29 28 26 28 24 12
18 27 19 2 10 0 4 11 21 23 23 21 24 22 20 19
20 20 22 22 18 17 16 11 7 7 10 16 21 22 22 21
0 0 0 0 0 0 0 0 0 3 8 11 16 17 19 21
19 20 22 19 19 20 21 15 3 15 19 23 23 20 15 4
25 26 26 26 26 22 22 27 27 26 28 27 26 29 29 30
25 25 28 28 30 25 20 18 23 51 23 26 29 32 30 29
30 35 30 27 27 28 27 28 27 26 29 29 26 28 22 23
29 26 22 28 28 26 23 20 18 26 28 28 27 28 24 11
14 25 24 11 8 3 2 11 20 23 21 19 23 22 19 18
19 20 19 23 18 16 16 14 8 8 11 17 21 21 22 21
0 0 0 0 0 0 0 0 0 3 8 13 18 18 20 19
19 19 20 20 19 19 21 15 2 15 19 24 21 20 15 2
20 27 25 25 26 22 21 25 28 25 25 26 26 28 28 29
25 23 26 28 29 28 24 19 18 37 29 26 23 23 26 28
29 34 28 27 26 25 25 25 27 30 26 25 26 28 20 25
28 26 20 28 29 25 21 21 17 23 27 26 25 26 27 14
13 22 25 19 15 10 0 11 20 23 22 19 23 23 19 16
18 23 19 24 19 16 16 15 11 8 11 17 20 20 21 20
0 0 0 0 0 0 0 1 0 3 8 15 14 13 16 18
19 19 21 19 19 19 21 14 1 15 20 24 20 20 15 1
16 27 25 25 25 22 19 25 27 26 24 25 25 27 28 26
25 22 24 28 28 28 26 22 18 23 32 26 28 29 28 25
27 27 23 21 22 23 28 30 28 25 22 24 28 25 18 26
28 24 19 28 27 25 21 20 18 24 27 26 25 26 25 15
13 18 25 19 18 15 0 11 21 22 22 18 24 24 21 12
16 21 20 22 19 13 16 14 13 9 12 18 20 21 20 20
0 0 0 0 0 0 0 0 0 3 10 13 12 8 8 15
18 20 20 21 19 20 20 12 0 13 19 23 19 19 17 1
12 26 25 25 25 22 18 24 27 26 22 23 24 25 27 28
26 22 24 28 27 27 28 25 22 17 35 21 25 26 29 31
39 30 29 29 30 28 29 26 25 22 21 24 27 22 19 26
27 22 19 28 27 26 23 21 20 22 27 25 25 26 26 17
12 18 24 21 18 19 0 13 21 21 20 19 22 21 18 13
16 21 20 23 21 14 15 16 14 11 14 18 20 21 21 20
0 0 0 0 0 0 0 0 0 4 11 17 17 11 3 9
15 18 19 20 20 21 20 13 0 14 20 23 19 19 18 1
9 25 24 24 26 22 17 22 27 25 23 23 25 25 27 27
25 23 23 27 27 26 26 26 24 16 30 21 24 24 23 27
41 28 29 29 29 27 27 25 24 20 23 27 28 17 21 27
27 21 20 27 27 27 23 20 21 24 26 26 25 25 25 18
11 15 21 22 21 22 3 15 21 22 20 19 20 17 24 14
13 18 21 23 21 16 12 15 15 12 14 18 19 20 20 20
0 0 0 0 0 0 0 0 0 3 9 16 19 13 4 7
8 14 20 19 20 20 20 13 0 11 18 22 18 18 17 1
4 23 24 23 25 22 18 22 25 25 25 22 24 24 27 27
27 22 21 26 27 27 27 27 26 21 25 28 22 25 23 27
29 25 27 28 28 27 25 23 21 21 24 27 26 15 22 27
25 18 21 28 26 24 23 21 19 23 25 24 23 24 25 19
12 14 20 22 21 21 5 15 20 22 20 16 15 19 21 15
12 15 18 22 20 19 12 14 15 13 16 19 19 19 19 18
