P2
128 120
148
0 0 0 0 0 0 0 11 48 49 43 54 55 11 0 0
4 10 5 0 0 0 20 67 67 47 25 27 27 27 23 6
1 4 5 10 15 28 34 32 32 28 23 23 31 29 30 35
58 23 0 2 6 19 13 9 6 31 60 61 49 49 51 47
52 55 59 59 58 42 45 48 51 44 49 52 50 45 20 18
26 38 39 38 37 36 35 42 45 43 42 37 35 34 31 30
30 29 28 27 26 26 26 25 24 33 34 32 30 30 30 26
20 19 19 18 18 18 18 17 17 17 18 21 23 23 22 19
0 0 0 0 0 0 0 2 34 58 49 59 56 12 0 0
0 0 0 0 0 0 18 67 68 51 30 30 30 30 31 19
2 2 6 11 11 12 13 15 18 7 7 5 16 16 20 25
57 25 0 2 10 28 15 3 5 26 62 60 20 7 28 12
20 26 33 39 53 45 48 49 52 52 54 55 54 52 23 19
27 40 40 38 38 37 35 42 46 44 41 39 38 39 41 35
34 32 30 28 25 26 25 25 25 30 31 31 29 30 30 29
22 20 19 19 19 18 17 17 17 17 17 21 22 22 21 17
0 0 0 0 0 0 0 0 20 62 53 60 58 13 0 0
0 0 0 0 0 0 18 66 69 54 31 31 33 32 26 18
3 0 0 13 16 6 1 2 2 1 2 0 4 6 8 20
58 25 4 19 12 49 41 9 2 28 62 60 20 2 9 0
0 3 11 4 40 47 48 50 52 52 55 55 55 54 27 19
29 43 42 41 40 38 37 41 44 43 41 41 41 42 43 36
34 36 36 33 31 29 29 27 25 26 13 12 14 19 23 27
23 20 20 20 19 19 18 18 18 18 18 21 23 22 21 8
0 0 0 0 0 0 0 0 12 63 58 61 59 13 0 0
0 0 0 0 0 0 16 66 70 56 22 13 24 14 4 0
0 1 2 14 23 16 10 6 9 0 0 0 0 0 5 18
60 28 9 24 29 44 37 35 7 21 63 62 21 0 2 4
0 14 23 12 41 46 45 47 48 52 53 54 53 52 29 20
28 45 42 39 40 42 42 42 11 12 24 35 40 40 42 33
6 8 15 21 28 27 34 33 29 26 11 3 5 3 0 5
24 21 20 20 19 18 18 18 18 18 18 21 23 24 22 17
0 0 0 0 0 3 10 22 40 65 60 61 61 13 0 0
0 0 0 0 0 0 15 66 68 59 23 0 2 1 3 0
2 3 3 9 20 22 15 7 7 4 2 0 0 0 0 16
61 30 4 21 34 44 26 30 13 16 62 64 28 0 5 1
0 18 25 17 42 39 11 19 26 35 43 46 46 50 30 19
27 44 43 37 34 40 45 46 6 0 2 13 16 16 22 32
1 0 0 0 1 3 8 14 22 27 9 0 1 2 0 1
24 20 20 19 19 19 18 18 18 18 19 22 24 23 22 20
4 9 17 24 37 51 60 65 67 67 63 60 63 35 21 16
10 8 7 5 3 3 18 66 70 62 39 11 0 1 0 2
3 2 6 2 8 26 26 19 13 13 4 3 6 3 4 22
64 32 0 5 19 35 29 18 2 15 62 65 30 0 8 2
1 12 14 11 41 38 1 1 5 6 5 10 8 38 31 19
21 29 35 40 42 43 46 46 7 0 0 7 10 11 14 32
2 0 0 0 0 0 0 0 7 29 7 0 0 0 0 1
25 21 20 19 19 19 18 18 17 18 19 21 23 23 23 20
43 47 44 45 47 56 66 67 68 68 62 51 57 59 58 60
51 55 56 55 53 50 53 66 67 62 38 8 0 0 0 0
0 0 4 13 16 26 29 20 24 21 3 1 4 4 1 17
61 36 0 0 0 4 4 0 0 12 62 66 33 0 3 0
2 5 0 2 40 37 3 2 0 0 0 0 0 33 32 19
14 0 1 5 12 21 29 38 10 0 0 3 1 4 9 32
4 0 0 0 0 0 0 0 5 27 3 0 0 0 0 1
26 20 21 20 19 19 18 18 18 18 19 21 24 23 23 20
53 57 54 59 62 65 66 67 67 64 58 48 52 56 52 51
58 63 63 61 56 53 45 27 34 38 39 7 0 0 0 0
0 2 5 31 29 31 31 21 27 24 0 0 0 2 0 15
53 39 0 0 0 0 0 0 0 11 61 67 37 0 1 8
8 17 0 0 39 37 6 7 1 9 0 0 0 33 33 20
14 0 0 0 0 0 0 10 11 0 0 0 0 0 7 30
2 0 0 0 1 0 0 0 3 28 2 0 0 0 0 1
27 20 20 20 19 19 19 18 18 18 20 21 24 24 23 21
65 64 64 63 65 62 57 55 34 22 32 24 8 12 25 28
39 45 48 44 48 52 41 20 28 37 43 6 0 0 0 0
0 0 3 32 30 36 35 16 21 17 0 0 1 6 4 17
55 42 0 0 0 0 0 0 0 9 60 68 44 0 6 24
22 29 5 1 38 38 8 9 4 21 8 0 0 31 33 19
13 0 0 0 0 0 0 6 11 0 0 0 0 0 9 34
4 0 0 0 7 6 0 0 2 29 2 0 0 0 0 0
26 21 21 20 20 19 19 18 19 19 19 21 24 23 23 21
59 58 57 54 50 38 36 42 16 16 32 17 0 2 1 2
13 20 14 2 9 33 39 50 49 47 35 2 0 0 0 1
5 1 2 10 8 33 28 1 4 4 3 2 4 5 5 20
57 52 32 27 26 26 23 20 18 24 62 68 49 5 8 6
6 8 6 2 38 38 7 10 2 18 14 0 0 32 33 20
14 0 0 0 0 0 0 5 9 0 0 0 0 0 7 37
5 0 0 0 8 9 8 3 1 28 2 0 0 0 0 0
25 22 21 21 20 20 19 19 19 19 20 21 25 24 23 22
39 45 49 52 54 54 52 51 42 37 47 16 0 0 0 0
0 5 0 2 13 32 60 60 52 30 12 0 0 11 2 0
6 3 5 2 0 24 22 0 0 3 2 0 5 1 2 16
54 67 65 62 59 57 54 50 47 46 49 53 35 3 5 12
16 7 3 0 36 36 5 8 5 3 6 0 0 32 32 19
15 0 1 0 12 4 0 4 8 0 1 0 0 0 6 37
6 0 0 0 9 9 8 6 0 28 3 0 0 0 0 0
24 22 22 21 21 20 19 19 19 19 20 22 25 24 23 21
31 32 34 38 38 39 42 47 55 49 59 18 0 0 0 0
0 1 0 4 4 30 68 65 52 6 2 0 2 9 1 5
2 3 3 0 4 24 30 1 0 1 0 0 0 0 0 13
62 66 51 51 51 51 54 54 53 46 38 38 15 4 3 8
14 7 4 1 35 34 2 6 10 1 1 0 0 32 33 19
15 2 12 7 6 1 0 3 10 0 0 0 0 0 8 38
9 0 0 0 4 8 8 5 0 27 14 5 1 0 0 0
22 22 21 21 21 20 20 19 19 20 21 21 25 25 25 22
4 2 0 0 2 1 2 14 56 62 62 25 3 7 2 0
0 0 0 0 0 31 70 66 55 8 7 3 2 1 4 5
1 2 2 3 1 20 33 4 1 0 0 0 0 0 0 14
66 53 5 4 7 11 17 25 32 43 52 45 52 49 44 39
37 31 22 19 41 38 4 5 8 1 1 0 0 33 33 20
16 7 9 0 4 4 0 3 12 0 0 0 0 0 17 40
18 4 2 1 0 0 5 5 0 26 35 31 28 23 20 19
30 23 21 21 21 20 20 20 20 20 21 22 26 25 25 20
0 0 0 3 22 17 0 11 58 63 62 36 38 48 28 10
0 0 6 0 0 34 70 65 54 6 4 6 10 15 19 17
15 10 8 7 14 26 36 4 8 4 9 1 0 0 0 14
64 53 6 0 0 3 0 0 0 12 58 56 41 41 45 47
55 57 57 56 49 58 42 26 32 33 31 26 23 40 31 20
16 6 2 0 0 0 0 5 32 22 14 15 8 2 3 41
38 32 30 27 20 13 8 6 3 29 36 33 32 32 36 38
37 24 22 21 20 20 20 19 19 20 21 21 25 25 24 20
0 0 0 6 35 30 4 10 60 65 65 48 36 34 40 8
6 18 37 10 0 35 67 63 54 6 0 0 0 10 6 12
30 23 37 43 44 41 38 18 16 16 12 6 2 0 1 24
65 55 17 0 5 4 8 4 0 10 60 62 27 19 19 27
28 27 25 39 59 69 56 36 46 50 54 52 50 48 30 20
16 1 0 0 0 0 0 5 46 48 39 40 40 38 35 48
27 12 14 16 18 20 22 26 30 37 28 28 30 32 36 38
38 24 21 21 21 20 20 19 20 21 21 21 25 25 24 19
0 0 0 5 28 28 7 9 60 65 64 36 8 18 21 10
20 26 44 23 2 35 67 63 54 7 0 0 0 4 6 20
47 39 45 54 56 49 23 1 2 10 21 26 19 8 14 35
64 54 20 7 8 9 29 23 7 10 58 62 30 20 17 23
21 18 7 26 67 70 49 37 45 53 55 54 56 53 30 19
18 3 0 0 0 0 0 4 47 44 41 46 48 51 44 40
25 11 11 11 11 9 8 7 7 9 8 11 15 20 24 22
21 21 22 22 22 21 20 20 20 21 22 21 26 25 24 17
0 0 0 4 24 28 12 11 62 66 64 19 0 4 10 13
16 16 21 5 0 37 68 64 55 7 0 0 2 4 8 24
43 37 48 59 63 55 26 0 0 1 15 27 21 13 20 52
64 52 27 41 26 22 26 8 1 9 57 60 26 13 20 18
11 9 8 27 62 60 37 33 44 50 52 52 54 54 31 20
23 32 29 20 13 7 3 7 43 36 42 47 49 51 46 37
26 12 12 11 9 7 6 5 4 4 4 4 4 13 22 21
19 20 21 21 21 20 20 20 20 20 21 22 25 25 24 15
3 0 6 3 19 32 34 16 62 66 63 14 6 29 8 3
7 4 0 0 0 38 68 65 57 8 1 2 2 0 1 18
35 35 54 69 70 60 32 0 0 0 6 13 11 16 24 59
67 50 26 32 21 15 26 27 13 13 41 39 24 18 19 19
20 20 24 28 43 44 22 8 11 12 13 14 19 41 32 21
25 45 53 51 47 44 41 39 43 30 38 44 46 48 46 40
31 15 12 9 7 6 6 6 6 5 5 5 6 16 13 4
20 21 22 20 19 20 21 20 20 21 21 21 25 25 23 14
6 1 9 7 16 27 37 18 61 66 62 13 0 3 0 0
0 0 0 0 0 39 69 67 59 8 2 4 3 0 6 9
14 30 54 70 71 65 35 0 0 13 36 37 34 38 40 66
69 52 19 18 11 12 25 21 13 8 10 10 13 11 14 16
20 18 19 24 22 19 16 9 14 11 6 6 12 36 34 22
25 45 54 53 50 50 50 51 40 7 9 14 19 27 29 30
34 15 11 7 1 1 1 5 8 7 4 8 9 18 25 22
27 29 27 20 1 16 21 21 21 21 20 19 25 25 24 16
0 2 11 5 7 13 13 12 61 66 62 12 0 0 0 0
0 0 0 0 0 39 69 66 60 9 0 0 3 0 8 6
2 26 52 68 69 65 37 0 0 9 37 41 50 61 48 46
66 64 51 43 44 36 9 5 11 11 10 5 7 10 11 10
18 18 16 16 17 21 19 16 12 12 13 16 15 33 35 25
24 41 50 49 49 51 50 51 37 2 0 0 0 2 10 21
35 13 9 5 0 0 0 1 3 1 0 1 2 12 29 26
22 23 26 27 23 21 21 21 21 20 5 11 23 24 24 15
0 1 26 15 0 1 0 10 63 67 63 24 14 11 9 7
5 3 2 0 0 38 67 65 59 9 0 2 4 1 6 10
8 20 47 65 66 64 37 0 0 8 36 39 46 52 26 7
55 64 55 26 39 13 3 6 7 9 8 3 3 7 13 17
18 15 20 19 15 11 17 19 16 15 20 13 20 28 32 30
30 34 38 38 39 39 41 46 34 1 0 0 0 0 1 19
36 12 9 5 0 0 0 0 0 0 0 0 0 8 30 26
17 15 17 19 21 22 21 20 20 19 3 11 22 24 25 18
0 3 37 23 0 0 0 11 63 59 59 63 67 63 58 53
47 43 43 38 34 52 66 63 58 10 0 0 0 0 0 2
1 4 43 65 65 63 37 0 0 15 50 51 44 36 25 2
42 60 51 24 15 8 12 11 9 9 10 7 9 12 9 16
14 18 17 15 18 16 17 25 28 20 23 17 12 18 23 26
26 26 26 29 34 32 35 45 33 0 0 0 0 1 0 13
35 7 3 0 0 0 4 2 0 0 0 0 0 7 30 27
11 19 24 17 19 22 22 21 20 21 15 15 23 24 25 21
0 7 35 24 0 0 0 9 47 45 55 61 75 73 70 67
64 63 66 66 66 66 65 62 57 11 2 2 3 3 2 3
3 2 44 63 64 64 45 13 12 15 32 56 53 48 38 11
48 67 45 12 12 14 12 13 12 11 9 13 15 20 27 23
22 18 21 25 24 26 26 25 32 33 23 28 15 18 17 24
29 27 29 30 34 34 36 44 32 0 0 0 0 0 0 14
32 0 0 0 0 0 1 7 2 0 0 0 0 6 30 29
7 14 15 13 18 20 21 20 20 21 19 15 24 25 25 24
0 12 31 22 1 0 0 11 36 48 57 66 75 71 69 69
66 67 68 68 69 69 67 64 58 26 44 46 46 47 44 41
39 36 55 64 67 67 57 56 60 51 25 25 45 55 59 108
112 94 92 10 17 18 16 14 12 13 12 10 13 13 17 20
26 30 29 20 32 40 40 33 31 36 34 36 20 17 17 21
21 24 21 21 27 28 33 38 31 0 0 0 0 0 0 16
32 0 0 0 0 0 0 9 7 5 0 0 0 6 30 30
10 9 11 8 18 20 21 20 20 21 20 15 24 25 25 25
5 17 30 20 4 0 5 29 38 48 57 65 63 63 65 60
62 61 55 58 65 67 68 68 68 63 60 66 68 71 58 51
55 61 66 61 71 70 65 66 61 50 58 31 8 20 104 131
110 106 58 12 9 7 10 15 16 14 13 14 15 17 21 25
25 29 39 33 34 42 49 40 33 32 29 35 29 21 21 24
24 28 20 8 10 2 1 3 21 0 0 0 0 0 0 17
30 0 0 0 0 2 10 12 9 8 0 0 0 5 29 32
18 15 9 8 16 19 20 20 21 20 19 14 23 25 25 26
50 51 53 51 45 38 22 24 31 40 44 48 48 49 51 51
63 43 12 17 24 37 42 41 62 68 64 68 69 72 56 55
60 67 72 71 75 74 73 70 55 28 66 65 31 49 140 133
119 91 15 12 15 17 14 11 15 12 15 20 18 18 14 18
28 35 45 48 44 52 49 47 40 43 35 34 39 28 28 26
33 37 27 19 10 3 0 0 20 0 0 1 5 1 0 16
27 0 0 0 0 2 12 17 6 2 0 0 0 5 30 34
20 12 1 0 15 20 22 22 21 21 20 15 25 26 26 26
58 46 48 56 60 50 10 0 3 4 3 4 5 3 4 6
54 44 6 11 0 18 33 10 54 71 73 66 64 63 59 61
66 71 76 78 78 77 77 75 59 19 64 69 42 104 140 109
64 34 14 11 14 12 20 13 15 17 17 20 20 23 22 21
21 36 54 52 43 35 40 47 50 52 54 47 44 45 35 41
43 42 31 27 23 5 1 0 19 4 0 9 17 7 0 17
26 0 0 0 0 0 0 12 2 0 0 0 0 3 29 35
19 8 1 0 13 20 23 23 23 22 21 15 26 26 27 26
52 9 7 9 12 21 4 0 0 0 0 0 2 0 1 3
51 49 11 20 1 10 22 20 58 72 71 44 43 50 58 61
66 71 75 76 76 76 77 77 63 13 61 69 77 140 140 76
8 15 10 14 14 14 18 22 18 17 22 22 26 31 34 34
38 42 47 48 41 50 57 62 74 86 87 86 74 67 59 57
60 48 40 30 26 15 7 2 23 2 1 16 17 11 0 17
24 0 1 0 0 0 0 13 3 0 0 0 0 1 30 36
10 6 0 0 13 20 24 24 23 23 21 19 27 28 27 27
61 16 2 0 3 21 2 0 0 0 0 0 4 0 2 5
48 56 10 13 13 17 36 53 65 73 65 10 4 25 39 25
28 33 38 38 41 43 45 55 67 36 103 99 112 140 92 22
7 7 8 13 15 13 17 20 26 25 26 31 36 38 44 47
59 63 63 66 71 73 92 104 111 120 122 121 111 103 92 81
83 79 45 37 33 21 14 3 23 24 21 28 25 24 13 25
26 0 0 0 0 0 0 12 5 0 0 0 0 0 26 34
6 3 0 2 18 19 24 24 24 24 19 21 28 28 28 26
62 37 11 4 12 26 0 0 0 4 3 0 2 0 0 6
46 58 3 0 20 44 38 65 69 73 65 10 1 24 32 8
6 8 10 13 11 9 8 23 71 122 139 116 119 88 7 3
6 9 6 11 20 21 23 24 32 35 34 45 50 59 60 69
74 80 82 87 91 96 104 117 129 133 137 137 136 131 122 114
107 106 86 42 33 21 9 0 26 43 43 46 43 43 46 48
30 1 2 1 0 0 0 13 6 0 0 0 0 0 21 34
4 0 0 0 14 18 24 24 23 23 18 23 28 28 27 24
65 55 23 8 8 24 0 0 2 7 2 0 0 0 0 1
38 62 8 4 10 28 37 60 67 72 65 11 0 21 36 5
3 7 6 14 12 8 12 23 92 137 108 102 94 38 10 2
8 11 9 9 10 18 24 33 42 47 53 53 56 62 67 71
72 75 86 98 107 110 120 129 136 137 138 137 137 137 135 129
123 119 114 79 33 17 8 0 25 43 43 45 43 45 50 52
42 24 24 20 13 11 12 18 13 7 5 4 2 3 14 31
7 2 3 2 3 16 24 24 24 22 17 22 27 28 28 20
60 63 27 2 8 28 5 6 9 16 0 0 0 0 0 0
28 66 15 9 5 10 29 50 65 73 66 12 0 20 40 7
5 8 5 13 14 12 25 68 139 135 113 93 36 11 6 6
10 11 15 10 6 10 18 32 43 46 50 61 67 69 77 75
85 95 95 101 113 119 125 134 138 138 137 138 138 137 137 137
135 131 128 114 56 21 10 0 23 41 41 42 41 44 49 49
43 33 34 33 31 31 30 29 26 23 20 18 16 16 22 34
19 15 12 7 5 13 23 22 23 21 18 23 28 27 27 21
49 65 37 0 8 32 13 17 22 25 1 2 4 0 0 1
27 68 12 0 0 4 15 42 64 73 65 12 0 19 42 12
16 9 8 13 14 15 25 109 137 107 111 106 20 4 7 9
9 12 13 12 11 11 15 16 26 42 49 51 57 65 68 73
80 91 98 109 121 129 136 138 138 138 138 137 136 137 137 137
136 136 135 127 99 37 14 3 25 39 38 38 38 38 35 31
33 35 35 36 34 32 33 32 31 29 29 28 24 22 24 37
35 33 31 27 23 19 23 24 23 21 18 24 27 27 26 22
39 57 52 4 9 34 13 20 28 27 1 6 13 6 6 4
28 70 17 0 0 0 13 43 60 72 65 13 0 13 42 13
22 4 7 7 8 5 25 125 122 119 126 77 22 3 4 9
13 13 15 11 12 13 14 23 27 35 41 43 53 63 72 82
92 97 108 118 127 132 136 138 137 137 137 138 138 137 137 137
136 136 136 133 123 76 22 5 23 42 37 37 36 35 36 34
36 37 37 38 40 39 34 32 31 31 39 39 35 33 33 33
30 29 29 29 29 24 22 23 23 21 18 24 28 28 26 24
30 51 63 17 10 36 13 19 26 28 2 0 2 3 2 4
31 71 24 0 0 0 13 29 56 70 63 12 0 9 44 10
17 2 5 4 7 12 25 126 140 130 101 80 12 2 4 6
10 10 9 12 14 16 17 27 32 36 44 53 51 57 69 88
90 98 114 128 133 137 138 137 138 137 137 137 137 137 137 136
136 136 136 135 132 111 45 32 37 46 39 39 38 38 38 39
42 40 38 40 46 44 34 31 29 32 41 40 37 35 35 31
24 17 15 15 15 18 23 23 23 21 17 24 28 28 25 23
40 46 64 35 11 40 13 19 24 29 3 0 13 5 0 8
30 71 34 3 9 4 16 22 56 70 61 10 0 5 47 13
8 1 3 3 5 4 17 113 140 111 77 16 3 8 15 8
10 18 16 14 11 10 9 9 17 29 40 53 67 58 80 92
99 110 121 131 137 138 137 137 138 138 137 137 138 138 137 137
137 136 136 136 135 124 58 52 54 49 41 38 39 37 39 43
46 43 39 41 44 40 35 33 29 27 39 38 36 35 36 33
30 23 19 18 18 21 23 23 23 20 18 24 28 28 26 24
52 51 66 53 17 41 14 18 22 29 4 0 4 0 0 5
20 68 43 9 10 4 10 10 54 67 58 8 0 3 49 21
0 1 5 16 13 7 9 98 137 97 47 13 10 17 23 15
15 12 13 12 11 14 17 13 16 23 39 55 74 87 91 106
110 124 135 137 137 138 138 138 137 137 138 137 137 137 137 137
136 137 137 136 136 132 68 52 55 49 27 26 21 20 22 29
40 44 39 33 23 27 29 26 27 28 25 11 9 12 18 20
27 27 24 23 26 26 27 26 23 19 21 25 28 29 26 23
69 67 68 62 28 42 12 15 15 16 1 0 1 1 3 4
14 67 47 0 2 1 4 7 56 67 56 6 0 1 45 21
0 1 8 27 24 11 8 70 130 75 29 13 8 14 21 22
10 10 9 12 14 16 22 23 25 29 35 56 76 89 103 103
108 126 137 137 137 138 137 137 138 137 137 138 137 137 137 137
137 137 137 137 137 135 76 40 42 40 7 2 0 0 0 2
21 44 35 11 1 3 6 8 19 30 22 1 0 0 0 5
20 22 21 23 27 28 31 30 23 18 22 25 28 28 27 23
68 65 62 43 20 49 25 27 31 32 36 40 44 49 54 59
65 77 57 11 12 11 11 16 59 68 56 4 0 0 40 21
0 1 5 23 25 13 10 33 95 40 13 9 11 12 18 17
10 9 12 13 17 18 21 28 38 36 41 48 67 86 98 109
122 132 136 138 138 138 138 137 137 137 138 137 137 138 137 137
137 137 136 137 136 135 80 34 34 34 11 3 0 0 0 3
20 42 25 1 0 0 0 2 21 31 23 0 0 0 0 5
19 6 1 2 3 3 17 32 24 18 23 25 28 28 27 22
63 50 24 4 8 64 71 72 74 75 77 78 80 80 81 81
81 81 72 51 59 58 57 57 69 60 54 12 4 4 36 32
6 6 8 16 17 14 16 20 42 15 8 13 8 13 14 13
8 9 12 17 20 21 24 31 36 48 52 63 82 90 98 109
117 126 136 137 138 137 138 138 138 138 137 138 137 138 137 137
138 137 137 137 136 134 85 40 40 36 11 6 0 0 0 7
26 41 15 0 0 0 0 0 19 32 24 0 0 0 0 2
18 5 0 5 2 0 10 33 24 18 23 25 27 28 27 22
39 14 6 4 12 66 78 78 78 80 80 81 81 81 81 81
81 81 73 47 54 55 57 59 67 58 64 52 52 48 53 67
57 52 49 40 35 29 19 21 17 12 13 6 2 16 16 11
11 9 9 13 20 28 27 32 43 50 53 63 69 85 95 105
115 126 137 138 137 138 137 137 137 138 137 138 138 138 137 138
137 137 138 137 137 135 87 44 45 39 12 6 0 0 2 3
16 39 9 0 0 0 0 0 18 31 23 0 0 0 0 1
18 7 0 4 2 0 9 33 24 19 24 25 28 28 27 23
51 50 50 48 49 72 80 79 79 79 79 78 76 73 66 55
49 43 32 8 9 9 11 18 58 69 74 64 70 68 60 81
81 72 57 33 43 31 17 17 12 14 11 8 5 14 24 18
16 13 13 16 29 29 37 37 38 50 66 75 78 90 100 106
121 136 137 138 137 138 138 138 138 137 137 137 137 138 137 137
137 137 137 136 136 135 90 35 43 42 9 0 0 0 5 7
11 38 8 0 0 0 0 0 18 31 21 0 0 0 0 0
16 8 0 0 0 0 8 32 24 20 25 26 28 28 27 25
64 62 61 61 60 66 67 59 64 63 61 59 55 53 33 3
1 0 0 2 6 0 2 9 56 72 76 75 73 69 59 79
85 77 37 43 38 16 18 20 13 16 18 10 3 4 16 20
18 22 19 13 18 24 33 42 49 57 67 88 103 109 119 125
135 138 138 137 138 137 138 137 138 138 138 138 138 138 138 138
137 137 137 136 136 135 97 24 32 47 21 4 0 0 5 4
8 37 6 0 0 0 0 0 18 32 21 1 0 0 0 0
15 10 0 1 0 0 7 32 23 20 25 26 28 28 27 26
54 56 58 55 57 60 57 51 58 59 59 58 55 54 33 0
0 0 0 8 18 2 2 9 55 72 75 75 71 66 55 63
68 57 34 45 20 18 20 17 12 23 33 7 6 0 7 21
24 22 29 20 22 26 28 39 54 68 78 89 101 109 121 135
137 137 137 138 138 137 138 138 137 138 137 138 137 138 138 137
137 137 137 137 136 135 107 36 30 48 21 3 0 0 5 6
8 37 6 0 0 0 0 0 12 32 22 3 0 0 0 0
14 14 0 0 0 0 6 32 22 21 24 25 28 28 27 26
52 53 54 50 53 56 55 55 56 56 59 58 56 54 33 0
0 0 0 2 6 2 3 11 55 73 70 63 62 55 48 43
47 33 31 24 13 19 18 15 13 35 32 14 10 3 3 8
31 25 27 29 26 37 43 44 61 81 93 112 126 135 138 137
137 138 137 138 138 137 137 137 137 137 137 138 138 138 138 138
137 137 137 137 136 136 113 40 28 47 12 0 0 0 0 0
7 37 6 0 0 0 0 0 10 33 21 1 0 0 0 0
11 19 0 0 0 0 5 30 21 21 24 25 28 28 28 26
50 50 49 49 49 48 48 47 46 47 51 55 58 56 33 0
0 0 0 0 1 1 5 11 54 73 68 53 27 13 7 10
23 20 21 14 13 17 22 11 18 35 24 24 17 4 3 3
21 28 26 27 29 42 58 71 73 87 107 131 139 138 139 138
138 138 138 138 138 138 138 137 137 135 132 121 124 130 137 136
136 137 136 136 137 135 117 44 27 41 8 0 0 0 0 1
5 37 10 0 0 0 0 0 8 34 22 3 0 0 0 1
11 21 0 0 0 0 6 28 20 21 24 25 28 28 24 22
50 50 50 49 48 47 47 46 45 34 10 35 60 58 34 0
0 0 0 3 12 16 7 13 54 73 67 50 12 0 0 4
14 21 18 14 14 20 16 11 26 28 23 28 20 12 8 3
10 25 26 28 30 36 60 74 92 99 117 136 139 138 138 138
138 138 137 138 138 131 127 113 98 94 76 67 72 80 102 136
137 137 137 136 135 115 91 41 26 36 11 3 2 2 5 10
8 35 23 13 12 15 13 13 19 38 26 27 26 26 27 29
33 28 5 3 3 2 9 26 19 21 24 25 28 26 22 25
45 46 45 45 45 45 45 45 45 30 0 23 59 58 34 0
0 1 20 16 27 35 11 13 52 74 68 48 16 8 8 13
15 18 18 16 17 22 15 21 26 14 26 28 21 13 17 7
11 15 28 24 26 34 41 58 73 92 115 138 138 138 138 138
138 137 138 137 130 120 118 105 109 121 116 99 95 82 82 105
138 137 137 136 117 63 32 28 23 35 34 33 27 28 31 30
30 32 43 46 42 42 43 43 44 43 27 32 36 37 40 44
45 38 25 24 23 22 24 24 20 19 23 24 27 24 26 25
10 10 12 13 15 16 18 33 45 31 0 15 53 52 38 11
10 19 46 40 51 54 24 15 51 74 68 48 23 17 19 19
16 17 22 19 20 18 19 24 14 12 27 23 23 18 34 18
14 9 14 27 23 41 47 56 72 92 114 139 139 138 138 138
138 137 137 135 134 136 133 115 136 136 137 133 126 119 87 95
130 137 137 134 98 59 47 25 19 17 32 36 35 36 35 29
26 27 39 48 46 44 44 46 46 45 29 27 32 34 39 42
43 38 24 23 23 22 22 22 21 19 22 23 24 25 26 25
0 0 0 0 0 0 0 22 45 33 0 11 52 47 44 42
44 41 51 57 63 63 53 49 60 69 65 47 24 19 21 14
11 17 21 22 24 20 21 23 9 19 26 20 25 20 45 31
12 6 2 25 22 38 51 55 70 84 115 138 139 139 138 138
138 138 138 137 136 132 125 132 138 137 137 133 127 127 103 117
110 137 129 102 91 80 88 13 10 6 16 31 31 34 35 31
24 25 29 31 33 32 31 31 29 32 26 22 25 28 28 25
23 25 24 25 25 23 23 22 22 22 21 21 24 27 26 25
0 0 0 0 0 0 0 21 46 33 0 12 50 50 49 50
54 47 53 60 65 66 64 63 63 67 64 46 23 17 20 14
12 22 19 21 28 22 30 24 13 19 19 16 29 21 30 28
33 27 2 8 21 23 30 42 44 56 75 86 82 77 74 73
69 93 77 67 65 90 99 119 140 138 137 133 122 124 109 97
91 127 109 86 98 112 87 23 22 16 14 32 28 27 32 32
26 26 26 21 23 22 23 22 22 24 26 27 28 29 28 26
22 22 25 25 24 24 24 23 23 22 23 24 26 28 26 25
0 0 0 0 0 0 0 21 46 34 1 12 48 54 50 46
55 54 56 63 69 69 67 65 63 67 64 44 16 5 9 9
11 17 22 22 30 23 27 27 17 19 14 15 26 26 23 29
44 85 47 13 18 8 8 28 50 80 98 124 128 129 125 124
117 107 103 101 97 102 108 121 126 126 116 110 111 119 108 92
107 139 136 112 119 118 68 36 34 39 38 34 31 12 14 16
14 22 28 26 27 27 33 33 30 30 32 33 36 38 37 30
25 24 25 25 25 24 24 23 22 21 23 25 27 27 26 22
0 0 0 0 0 0 0 20 46 36 1 10 45 54 51 43
47 44 50 63 69 71 70 68 65 69 63 43 11 1 1 4
15 18 21 25 21 27 29 28 19 15 12 19 31 33 21 21
31 93 107 87 67 27 12 22 52 87 118 138 139 138 138 138
138 138 135 132 125 106 109 92 77 80 49 31 76 106 99 91
110 139 138 110 117 102 59 20 21 27 32 47 53 10 0 1
4 20 28 36 39 34 45 48 25 18 19 20 23 29 39 33
26 25 24 25 25 25 24 23 23 23 23 24 26 28 24 18
0 0 0 0 0 0 0 18 47 37 3 5 38 48 35 36
41 43 41 42 46 52 62 68 65 71 64 44 13 5 4 4
15 19 25 23 16 25 34 26 19 15 23 30 37 36 27 23
23 42 103 105 86 56 39 32 58 92 120 138 138 138 138 138
138 138 137 135 128 127 101 122 121 118 31 49 91 117 83 100
107 136 135 92 71 20 23 31 34 37 42 89 90 19 0 0
1 23 27 34 37 23 33 41 10 0 0 0 0 7 35 34
26 25 25 25 25 23 23 23 22 22 21 23 26 27 21 12
0 0 0 0 0 0 0 18 47 40 23 5 29 39 8 13
24 27 22 16 11 17 34 65 68 71 66 50 23 13 12 10
17 19 21 20 16 28 37 29 21 20 26 30 42 35 36 28
45 46 44 100 94 80 63 62 87 99 126 138 138 139 138 139
138 138 138 138 137 136 97 134 137 135 79 101 118 129 86 108
104 137 133 111 32 22 31 8 5 24 15 48 72 0 0 0
0 24 25 33 33 3 4 27 9 0 0 0 0 3 33 34
26 25 25 24 24 24 23 23 22 22 22 23 26 25 20 7
0 0 0 0 0 0 0 18 48 43 26 4 23 37 0 0
1 5 8 6 9 18 36 67 69 69 66 59 33 12 11 11
22 21 19 17 19 27 39 33 23 29 32 37 52 38 39 34
51 62 44 62 102 94 92 79 87 103 129 139 139 139 139 139
139 138 138 138 137 137 96 130 137 135 123 113 127 111 84 95
114 136 136 112 48 52 20 2 5 23 17 54 63 0 0 0
0 25 24 33 33 2 1 24 11 0 0 0 0 1 31 34
26 26 26 25 25 24 23 22 22 22 22 23 26 23 20 15
0 0 0 0 0 0 0 17 47 40 6 0 19 38 1 0
0 3 8 0 0 3 22 66 69 68 65 67 34 4 9 16
23 19 18 16 18 25 41 32 23 33 35 41 41 45 35 39
50 59 30 30 89 103 103 98 95 111 132 139 136 139 138 138
138 138 137 137 137 137 106 119 137 134 129 130 131 105 82 90
126 135 137 127 89 55 1 0 8 25 19 55 47 0 0 0
0 26 23 34 33 2 1 23 12 0 0 0 0 0 27 34
25 26 25 25 25 24 23 22 22 22 22 23 25 24 19 16
0 0 0 0 0 0 0 16 47 39 4 0 15 40 3 0
0 0 8 0 0 0 10 62 62 62 60 66 44 28 26 27
25 21 14 19 23 30 29 31 21 24 38 35 34 41 30 43
64 50 31 32 84 106 107 105 98 111 132 139 137 138 138 138
139 138 138 138 134 137 125 100 138 137 137 136 134 117 102 115
136 137 137 136 111 77 3 2 14 27 21 63 18 0 0 0
0 26 23 34 33 2 1 21 14 0 0 0 0 0 26 34
26 25 25 24 25 24 23 22 22 21 22 23 26 26 18 9
0 0 0 0 0 0 0 15 48 41 9 6 20 44 7 0
0 3 11 0 0 0 9 60 53 46 48 63 58 49 39 34
30 22 17 23 25 30 26 22 15 29 41 32 22 34 28 41
72 46 34 42 74 116 114 106 101 111 130 137 133 138 138 139
138 138 138 138 137 138 137 90 135 137 137 137 136 121 103 127
137 137 136 136 126 102 25 10 17 24 24 55 1 0 1 0
0 25 24 34 33 3 2 20 17 0 0 0 0 0 24 33
25 24 25 25 24 23 23 23 22 21 22 22 25 26 22 14
0 0 0 0 0 0 0 14 47 45 39 42 47 50 12 0
0 2 9 0 5 5 8 55 24 5 13 50 60 48 39 36
33 24 21 18 25 30 26 25 24 37 36 30 23 27 30 42
91 47 35 37 57 119 127 121 109 111 131 136 138 138 138 138
137 138 137 137 137 137 137 122 107 138 137 138 135 114 111 137
137 137 137 137 135 119 73 24 24 25 32 34 1 0 3 6
0 23 25 35 34 12 4 18 17 3 1 1 0 0 23 33
25 25 25 24 23 23 23 22 22 21 21 22 25 26 22 15
0 0 0 0 0 0 0 13 47 47 51 53 54 53 17 0
0 0 0 0 12 16 11 55 18 0 2 43 58 40 40 37
35 26 23 18 26 27 27 30 30 35 26 31 25 25 35 42
86 59 38 33 43 104 127 125 110 115 127 134 138 139 138 139
139 138 138 137 137 137 137 137 114 116 137 137 123 114 133 136
137 137 137 137 135 130 98 38 33 29 44 10 3 0 4 14
6 22 28 36 32 18 10 17 15 1 7 5 0 0 19 32
25 25 24 24 24 23 23 22 22 22 22 21 23 25 22 17
0 0 0 0 0 0 0 12 47 47 51 53 55 54 23 2
1 0 0 0 4 12 25 56 29 16 19 32 37 27 31 33
33 29 20 21 33 28 31 35 41 32 27 29 32 33 37 43
72 93 51 52 40 90 121 124 109 120 129 134 135 135 138 138
137 137 137 137 136 137 135 134 132 118 107 110 123 136 137 137
137 136 137 136 136 134 120 54 39 43 26 16 18 15 19 24
22 30 33 37 30 15 18 16 17 5 10 8 3 3 18 27
23 23 24 23 23 23 22 22 22 21 21 20 21 24 20 19
0 0 0 0 0 0 0 11 46 45 40 48 46 44 32 26
29 21 22 23 28 34 42 56 45 40 46 39 37 28 31 33
29 28 22 19 25 25 31 32 35 22 31 31 37 34 36 41
58 90 59 88 101 98 119 119 112 121 127 131 135 136 138 138
137 137 137 137 136 137 136 136 137 136 137 137 136 137 136 136
136 136 136 136 136 135 134 83 31 28 36 40 42 41 41 42
42 44 41 37 27 6 20 16 25 20 20 19 18 17 18 20
23 23 24 23 22 22 22 21 21 20 20 19 21 23 17 18
0 0 0 0 0 0 0 10 46 44 33 30 23 21 22 24
30 44 60 65 66 67 68 69 68 68 68 61 55 40 35 30
28 22 17 18 22 27 27 28 26 14 27 30 40 37 33 39
42 84 79 90 111 106 113 119 116 120 126 131 135 133 137 136
136 137 136 136 136 136 136 136 137 137 137 138 137 137 136 135
136 136 136 135 134 135 135 83 30 25 39 46 46 46 45 44
45 45 46 39 27 0 7 14 25 20 22 21 20 20 20 21
23 23 23 23 22 22 22 21 21 21 20 19 20 22 18 19
0 0 0 0 0 0 0 9 45 44 29 20 12 10 12 20
22 26 38 57 71 75 74 74 72 71 68 59 56 43 32 32
26 24 23 19 28 24 22 29 20 14 33 39 37 37 40 34
29 52 91 113 98 102 110 117 117 119 125 128 131 134 135 137
137 138 137 137 137 137 137 137 136 137 137 137 137 136 133 134
136 133 102 83 123 132 120 54 32 24 28 33 32 31 31 28
28 26 25 33 26 0 3 12 26 24 25 25 24 23 24 23
23 23 24 23 23 22 22 22 21 21 20 20 21 20 19 19
0 0 0 0 0 0 0 8 46 43 18 11 16 21 21 19
24 27 30 35 52 65 60 55 53 51 51 50 45 37 32 30
24 24 23 18 30 16 20 31 15 16 35 41 32 31 40 37
27 22 52 105 101 93 101 106 112 119 123 131 131 133 134 135
137 137 137 137 136 137 137 137 137 137 137 137 137 137 132 123
134 125 121 116 117 107 120 51 30 23 17 14 13 12 12 12
12 11 10 29 26 0 2 12 27 24 26 25 25 24 25 24
24 23 24 23 23 22 22 21 21 20 19 18 20 18 21 19
0 0 0 0 0 0 0 8 45 43 11 2 6 19 22 14
17 21 27 32 39 49 47 46 45 44 44 43 36 33 31 25
22 18 23 23 24 14 18 26 12 21 27 35 30 26 40 39
27 22 17 54 112 112 76 83 105 118 123 128 132 131 127 132
133 137 137 137 137 136 137 136 137 137 138 137 137 137 137 132
130 137 136 132 119 129 127 45 30 24 18 15 14 13 13 12
12 11 11 30 26 5 5 15 27 23 26 26 25 24 24 24
24 23 23 23 22 22 22 21 21 20 20 17 18 20 21 20
0 0 0 0 0 0 0 7 44 43 11 0 0 6 15 16
18 20 25 33 33 34 34 35 35 32 32 35 28 24 29 27
22 17 26 21 22 13 20 21 7 26 25 39 31 28 29 37
24 21 14 3 36 61 32 56 101 112 122 127 133 133 135 136
135 138 137 138 138 137 137 136 137 137 138 137 137 137 137 137
137 136 138 137 133 133 128 44 30 26 22 20 19 18 17 16
15 13 13 33 32 26 35 38 30 22 25 25 25 25 24 24
23 23 23 23 23 22 21 21 21 20 19 17 18 23 22 21
0 0 0 0 0 0 0 6 43 44 13 0 0 6 14 16
19 21 26 42 38 32 30 29 35 31 26 28 24 27 29 27
25 25 28 21 18 16 23 18 7 24 32 38 24 24 32 34
25 26 15 2 4 13 20 54 97 109 121 127 133 135 137 137
138 137 138 137 137 137 137 137 137 137 137 137 138 137 137 137
136 137 137 137 135 126 123 41 31 26 23 21 20 20 20 19
17 15 14 31 30 30 38 37 27 23 25 25 24 24 24 24
23 23 23 22 22 21 22 21 21 19 18 17 18 23 21 21
0 0 0 0 0 0 0 6 42 44 15 0 3 5 13 15
18 20 26 42 34 26 23 20 31 28 20 23 26 26 28 23
21 27 28 17 19 25 27 24 8 18 44 35 24 27 44 39
25 27 20 3 4 14 24 49 93 105 123 129 136 137 138 138
137 138 138 138 138 138 138 137 138 137 138 138 138 137 138 137
137 137 137 137 135 121 111 34 31 26 23 21 20 20 19 19
19 16 15 23 23 20 22 24 23 24 26 25 25 24 24 23
24 23 23 23 22 22 21 21 20 19 17 15 19 23 23 22
0 0 0 0 0 0 0 5 43 44 15 1 5 4 12 15
18 20 26 43 33 25 24 20 30 27 19 22 27 27 25 22
21 23 24 21 22 37 31 28 10 27 44 28 22 34 48 44
28 22 19 3 3 14 28 40 85 106 122 130 137 138 138 138
138 138 138 138 138 138 138 137 138 139 138 138 138 138 138 137
138 137 137 137 135 122 92 30 32 26 24 23 22 20 20 19
18 17 17 22 24 22 21 23 23 24 25 25 25 24 24 23
23 23 22 22 22 21 21 20 20 19 18 15 20 23 25 21
0 0 0 0 0 0 0 4 41 43 16 1 4 4 12 15
18 20 25 42 34 25 22 18 28 28 20 21 28 32 28 27
22 21 18 19 24 44 34 29 13 33 36 26 23 33 45 50
35 22 17 7 2 14 30 39 77 102 121 130 138 139 139 139
139 139 139 138 138 137 137 138 138 138 137 138 138 137 137 137
134 129 131 130 119 116 74 27 30 26 24 23 22 21 20 19
18 17 19 23 25 23 22 24 24 24 25 24 24 24 24 23
23 22 22 21 22 21 21 20 20 18 18 16 21 23 25 21
8 8 9 10 11 12 13 19 44 44 17 1 3 3 11 15
17 20 25 42 35 25 21 18 28 31 21 22 28 30 27 29
17 24 21 19 26 39 36 30 23 34 28 16 16 26 40 46
37 20 19 6 1 12 28 39 76 96 117 130 138 139 139 138
139 139 139 138 138 138 138 138 138 138 138 138 138 137 129 117
107 107 115 107 101 103 52 28 29 25 25 24 22 22 20 20
19 17 19 22 25 24 23 23 24 24 26 24 24 24 23 23
22 22 22 21 20 21 20 20 19 18 16 18 21 24 25 22
46 45 45 45 45 44 43 44 44 43 19 1 2 3 11 15
18 20 25 42 35 24 21 19 25 31 24 24 25 32 34 34
20 26 26 19 26 30 32 24 29 34 24 13 19 21 38 41
41 27 20 3 4 12 24 37 73 86 110 123 135 139 139 138
139 139 138 138 138 137 138 138 138 138 138 137 123 109 100 102
105 100 99 100 84 95 31 21 23 24 23 23 22 21 21 20
20 18 20 23 25 25 24 23 24 24 24 24 23 23 23 22
22 21 22 21 21 20 20 17 16 17 14 19 20 24 24 21
48 48 47 46 46 46 45 43 44 44 19 1 0 1 10 14
17 19 24 41 36 25 24 23 28 31 26 24 25 33 36 39
24 37 33 17 27 21 22 26 25 39 22 16 20 28 35 31
32 27 20 5 7 10 21 34 70 83 101 119 130 137 139 139
139 138 138 138 138 137 138 137 138 138 138 138 138 135 137 136
137 136 130 130 110 99 19 20 22 24 23 22 23 21 21 20
20 19 20 23 25 25 24 23 23 23 23 24 23 23 23 22
21 21 21 21 20 19 20 14 9 11 14 17 20 25 23 19
49 49 47 48 47 46 46 43 43 43 20 0 0 0 7 12
15 18 23 38 41 36 34 33 34 32 28 26 30 29 26 34
29 33 30 25 29 20 17 33 34 30 26 22 21 52 38 28
27 30 21 9 3 8 21 30 63 82 90 111 123 129 137 139
139 138 139 139 139 138 138 138 138 137 138 137 137 137 138 137
137 136 137 131 114 79 19 26 21 24 22 22 22 21 21 20
20 19 21 24 25 24 24 24 23 23 23 23 22 22 22 20
21 20 21 20 18 17 18 19 14 12 18 20 25 25 18 20
46 45 45 44 44 43 43 42 42 40 17 1 1 1 8 11
13 15 19 33 38 36 35 35 34 32 26 27 31 24 23 25
30 27 33 36 21 19 26 38 30 14 26 28 22 52 30 28
26 31 22 11 6 8 18 27 50 79 89 98 115 123 131 136
138 139 139 138 137 138 138 138 138 138 138 137 138 138 138 137
137 131 117 114 111 44 22 28 22 23 24 24 23 23 24 23
23 23 24 25 24 24 24 24 23 22 23 23 22 22 22 21
21 21 21 19 17 16 20 22 20 17 16 17 18 17 22 27
40 39 38 38 38 37 36 36 37 36 13 1 1 1 10 14
16 19 25 40 37 34 33 33 31 28 24 23 24 20 19 14
22 28 29 23 18 19 29 43 21 8 22 27 17 31 21 30
28 29 21 14 7 11 16 28 39 69 95 88 99 113 123 128
133 138 138 138 139 139 138 138 138 138 138 137 137 137 137 136
127 117 111 107 92 28 27 27 28 26 26 27 28 27 27 27
27 26 26 26 24 24 25 24 24 23 23 22 22 21 21 21
20 20 20 18 16 16 18 23 26 22 14 7 0 0 2 2
45 45 44 44 44 43 39 39 42 43 17 1 1 2 10 13
16 19 26 43 31 26 25 23 30 25 20 22 22 17 12 7
16 24 23 20 22 25 32 34 18 10 17 26 20 20 22 32
32 29 25 16 5 8 16 28 32 59 91 99 87 101 110 117
122 131 137 138 138 138 137 137 138 138 137 138 137 137 138 137
128 120 118 110 63 12 19 24 28 30 28 28 29 29 29 29
28 27 27 26 24 23 24 24 23 22 22 21 22 22 21 21
20 20 19 17 15 16 15 16 23 27 14 9 2 1 0 0
40 39 37 36 35 31 27 24 26 25 9 0 0 2 10 13
16 18 26 42 28 24 22 23 30 24 22 20 22 12 9 4
14 17 27 22 23 23 27 27 13 16 16 29 18 17 28 37
33 28 24 17 7 9 17 24 31 50 75 101 98 86 94 106
114 120 128 134 137 138 138 138 138 138 138 137 137 138 138 137
136 135 132 117 30 12 15 28 26 29 28 26 28 27 28 28
27 27 27 26 24 23 24 24 23 22 22 22 21 21 20 20
20 19 19 18 15 15 16 14 13 18 12 12 3 3 0 0
16 17 11 3 9 1 2 0 1 1 0 1 1 3 10 13
15 19 26 41 29 23 21 25 34 24 23 20 21 18 10 7
14 16 29 24 29 26 27 20 13 19 18 28 22 22 42 44
35 29 22 19 10 12 16 20 28 42 65 90 106 93 91 93
100 109 115 122 129 133 137 138 139 138 138 138 138 138 139 138
138 137 134 106 10 18 25 22 19 28 27 23 23 22 24 24
25 24 25 24 23 23 24 23 24 22 22 21 21 20 20 19
20 19 18 17 16 15 15 13 13 11 13 13 1 0 0 0
7 9 6 0 9 0 0 0 0 0 0 3 4 7 11 12
15 18 25 41 29 23 23 25 29 22 20 18 19 21 11 7
19 14 20 24 31 25 32 23 11 20 27 20 22 29 43 35
38 32 24 24 14 15 21 21 26 36 58 76 100 103 94 94
90 93 100 108 116 124 128 133 138 138 138 137 138 138 137 137
138 138 134 85 6 24 25 14 16 25 28 23 20 19 19 20
19 19 20 20 20 22 23 23 24 23 22 21 21 21 20 19
19 18 18 18 16 16 14 12 13 11 13 14 2 0 0 0
14 11 5 1 11 0 0 0 0 1 4 7 7 10 11 13
15 18 25 40 29 23 21 22 25 25 20 17 20 23 16 13
16 15 10 22 27 17 26 30 9 16 26 27 26 38 38 34
39 36 27 23 23 19 17 26 26 32 51 68 89 102 98 96
96 91 89 92 101 110 115 123 129 136 139 138 139 138 138 138
138 137 131 61 13 19 20 9 8 20 27 21 21 18 19 19
18 18 18 17 18 21 24 24 23 22 21 21 20 20 19 19
19 18 17 17 16 15 13 14 12 11 14 14 2 0 0 0
33 23 6 1 14 1 0 0 0 2 4 6 5 8 10 12
14 16 24 40 30 21 18 20 27 25 16 15 17 21 25 13
15 15 7 23 21 15 29 31 11 14 19 31 33 40 37 35
37 39 34 26 21 21 15 22 25 28 43 60 77 97 101 98
95 91 88 86 86 93 101 108 114 122 135 138 139 138 138 138
137 133 121 29 24 24 18 5 4 6 20 20 19 18 19 19
18 17 17 16 17 20 24 23 23 22 22 21 20 18 18 18
17 17 17 17 16 12 12 15 21 17 8 6 1 0 0 0
35 25 8 3 15 3 0 0 2 2 4 7 4 6 8 10
13 16 24 40 36 30 23 25 30 21 16 16 17 20 29 20
19 20 17 29 18 24 23 30 18 14 13 33 32 31 36 27
35 47 33 28 19 17 20 20 23 26 34 49 66 91 104 106
103 100 94 88 86 85 85 91 95 100 112 124 127 131 135 133
126 120 82 12 17 25 17 2 2 1 8 17 17 19 18 18
18 18 18 16 18 21 24 24 23 23 23 22 21 19 17 16
15 17 29 29 27 23 22 21 32 37 22 18 16 16 12 10
22 16 12 14 19 15 12 2 1 2 5 8 5 8 8 9
10 13 18 35 37 35 29 25 26 22 17 16 18 21 23 23
20 22 21 30 16 33 18 22 25 15 12 17 26 15 24 25
33 43 29 26 19 21 33 23 25 29 32 39 56 82 105 112
112 111 106 97 86 75 70 71 73 73 76 81 87 91 95 94
94 70 23 23 15 16 11 0 0 0 2 8 17 19 22 26
27 28 26 24 26 30 31 32 34 35 36 36 34 31 22 8
5 15 39 40 37 36 36 36 36 33 35 31 28 33 30 26
35 34 35 36 35 34 35 8 0 0 3 7 4 9 11 13
14 15 18 33 40 35 30 27 21 19 14 15 21 21 24 22
23 22 18 23 23 40 13 14 26 11 8 12 18 10 20 28
38 40 26 30 17 19 28 28 34 34 38 38 45 74 101 113
117 114 110 102 89 70 50 41 44 88 39 29 34 32 27 25
19 8 17 25 15 17 10 1 0 0 2 12 26 33 38 44
45 45 45 44 45 44 44 42 41 40 39 39 37 35 32 9
0 0 5 6 6 7 9 9 9 6 6 7 11 6 4 3
24 21 18 14 12 11 32 11 0 0 0 6 3 8 10 12
15 17 22 34 40 28 26 21 16 20 10 14 21 19 13 16
19 23 15 15 24 34 8 10 18 16 8 9 9 8 25 28
44 36 24 29 18 21 14 29 45 49 49 46 43 63 93 110
116 114 109 103 85 59 35 25 64 97 23 17 27 16 13 10
5 7 15 18 12 24 7 0 0 1 10 27 37 41 45 45
45 43 43 42 41 39 38 36 35 34 33 32 32 29 28 14
0 0 0 0 0 0 0 0 0 0 0 0 0 0 0 0
0 0 0 0 1 3 24 11 0 0 0 7 3 9 11 12
15 18 21 35 38 23 21 18 14 18 11 14 20 20 7 14
22 25 15 14 22 26 12 9 12 14 15 8 10 9 19 30
47 29 25 27 20 23 14 27 50 62 61 55 49 63 88 108
115 114 110 100 80 52 29 34 103 77 19 17 26 14 15 11
6 9 15 16 14 17 4 0 0 7 29 29 34 38 39 41
41 39 38 36 35 34 32 30 29 28 26 26 25 23 21 16
0 2 0 0 1 1 0 0 0 0 0 0 0 0 0 0
1 2 2 2 2 3 14 10 0 0 0 6 2 8 11 12
14 17 21 34 38 23 21 22 13 16 13 11 19 21 12 13
14 16 14 16 16 15 22 6 9 6 15 10 16 14 23 36
42 17 27 25 21 21 16 27 48 63 71 69 61 66 89 106
116 117 111 100 83 55 45 81 117 69 19 17 28 17 19 15
9 17 23 18 13 10 2 1 0 11 25 16 20 24 32 36
35 34 33 32 30 28 27 27 26 25 24 23 23 22 21 13
1 8 1 2 7 6 7 5 5 4 3 2 2 2 2 0
0 0 0 0 0 0 14 12 0 0 0 3 1 8 9 11
14 16 20 33 39 25 23 24 15 15 12 10 6 10 17 15
13 9 12 16 13 12 22 6 3 10 9 17 14 17 26 38
32 12 21 24 24 19 15 26 41 58 72 78 71 67 85 109
122 120 114 108 95 81 91 114 112 61 17 20 24 24 15 16
19 25 33 21 7 5 1 2 4 9 20 16 17 15 17 21
27 31 31 30 30 28 27 26 26 25 24 23 23 21 19 7
0 8 0 3 9 9 10 9 11 10 9 7 4 5 5 2
0 0 0 0 0 0 11 8 0 0 0 0 1 6 8 10
12 14 18 30 37 24 19 20 16 14 13 6 0 6 30 12
10 3 12 14 10 13 12 4 1 10 10 12 12 21 28 36
28 17 15 21 24 16 17 28 39 55 71 81 74 73 83 104
122 128 125 116 106 107 114 123 103 52 21 27 22 21 9 11
27 25 28 23 13 2 3 8 8 8 23 13 16 14 15 14
16 19 27 30 30 28 27 26 26 24 23 22 22 21 18 3
0 7 0 6 8 10 11 10 10 7 6 5 2 0 0 0
0 0 0 0 0 0 0 0 0 0 0 2 4 6 8 9
11 14 17 29 36 21 19 16 16 16 14 6 0 10 35 12
10 8 5 5 14 6 11 5 1 6 11 8 15 20 28 30
17 15 18 25 23 15 20 28 39 51 69 83 80 73 84 103
119 129 128 124 117 117 120 120 90 48 26 22 18 22 14 13
11 28 26 19 7 3 12 18 14 10 22 11 12 13 13 11
13 15 16 20 28 28 27 26 25 24 23 21 21 19 15 1
0 1 0 6 8 9 7 7 4 3 2 1 0 0 0 0
0 0 0 0 0 0 1 1 1 2 7 14 17 19 20 19
12 11 15 26 35 23 22 14 15 16 13 8 0 3 19 14
6 4 6 1 1 0 5 5 4 5 10 18 19 24 32 28
13 14 24 25 19 17 21 29 37 47 61 75 78 78 82 97
116 124 127 124 119 120 123 111 87 51 32 20 16 31 19 10
16 18 34 22 8 3 20 32 17 2 7 12 14 14 15 13
14 15 16 19 17 24 26 25 24 24 22 21 20 18 13 0
0 0 0 1 4 3 0 0 0 0 0 0 0 0 0 0
14 17 19 22 22 26 28 31 33 31 33 35 36 37 38 39
31 15 13 20 27 25 25 19 12 11 12 12 4 0 5 8
2 0 12 5 0 4 2 3 10 3 10 16 18 29 34 24
13 13 27 26 22 23 24 29 37 45 57 76 77 78 82 95
110 119 121 121 120 122 123 109 88 55 27 21 11 28 22 12
19 22 21 32 16 1 24 41 29 0 2 10 14 17 15 14
18 20 19 22 17 15 24 25 24 23 22 21 20 18 11 0
0 0 0 0 0 0 0 0 0 0 0 0 0 0 0 0
45 46 45 47 44 45 46 46 47 44 40 42 42 43 44 44
45 30 5 6 17 19 20 16 9 9 14 14 13 6 7 8
1 2 20 10 2 8 6 11 5 0 11 12 14 26 32 19
16 19 28 26 21 27 24 28 35 45 56 76 80 78 82 90
106 118 120 119 119 122 123 108 91 53 26 16 11 15 27 18
14 21 14 29 30 1 12 28 16 1 0 4 14 16 15 16
21 23 21 23 22 16 16 25 25 24 22 22 20 18 9 0
0 0 0 0 0 0 0 0 0 0 0 0 0 0 0 0
43 43 45 47 46 42 49 49 49 51 44 42 46 48 49 48
49 44 27 16 25 25 23 17 12 14 18 17 15 14 12 7
0 0 13 19 7 15 11 2 0 1 12 8 9 22 29 12
18 23 20 21 23 32 25 31 38 44 54 73 80 84 89 92
101 110 114 117 121 124 125 106 90 47 26 14 14 12 31 25
16 16 15 22 35 9 8 13 10 13 1 1 15 16 16 17
22 23 20 21 24 19 14 18 25 24 23 21 20 17 6 0
0 0 0 0 0 0 0 0 0 0 0 0 0 0 0 0
45 46 48 54 51 52 49 48 51 53 50 48 46 56 57 51
44 37 29 19 20 20 20 20 21 21 21 19 16 9 3 0
0 3 6 18 20 16 4 0 0 4 22 17 14 18 18 10
20 20 18 24 22 29 28 32 42 43 55 70 79 86 94 98
102 110 115 117 123 125 126 107 84 25 22 22 15 25 26 19
10 12 15 13 24 17 14 12 10 16 3 2 20 18 17 17
25 23 18 20 22 23 16 13 24 24 22 21 20 17 3 0
0 0 0 0 0 0 0 0 0 0 0 0 0 0 0 0
52 55 52 55 52 54 51 49 52 51 50 50 47 46 35 24
20 20 20 20 21 21 21 22 21 22 20 14 7 4 5 3
4 4 3 7 19 13 1 0 0 7 30 25 16 14 10 7
12 20 18 28 30 30 26 34 44 45 55 71 80 90 96 100
104 112 118 120 123 128 128 106 67 25 22 25 24 25 11 13
11 14 12 11 14 12 17 15 17 18 3 4 23 19 16 20
26 24 17 21 23 22 17 12 18 22 22 21 19 15 1 0
0 0 0 0 0 0 0 0 0 0 0 0 0 0 0 0
46 45 44 43 41 40 38 37 34 33 31 29 28 20 18 19
20 20 21 22 22 22 21 22 21 18 11 6 5 6 7 9
7 4 0 3 13 8 3 0 1 10 28 25 23 11 3 5
10 16 18 24 38 31 30 35 43 47 56 70 85 95 99 103
104 112 118 123 128 133 134 107 71 38 35 38 28 27 7 5
7 8 14 16 11 14 20 18 17 15 2 6 22 19 20 24
26 21 19 21 23 23 18 14 15 23 21 21 20 14 1 0
0 0 0 0 0 0 0 0 0 0 0 0 0 0 0 0
20 17 15 12 11 10 8 5 4 3 2 3 14 17 19 21
22 22 22 22 22 22 21 21 15 7 6 7 7 9 7 7
7 8 2 3 10 7 5 0 0 1 14 17 20 12 2 2
8 16 18 20 36 38 30 39 58 58 59 74 92 100 103 105
109 115 120 125 132 138 139 122 92 64 62 70 56 35 11 5
8 10 16 18 13 17 22 21 19 16 2 11 24 23 24 25
26 17 21 20 22 24 17 16 14 21 21 21 20 15 1 0
0 0 0 0 0 0 0 0 0 0 0 0 0 0 0 0
0 0 0 0 0 0 0 0 0 0 0 8 15 17 21 22
22 22 23 23 22 22 21 14 8 8 9 8 7 7 8 6
8 10 3 0 6 8 3 0 0 0 4 5 3 1 5 5
8 13 12 16 35 35 32 45 81 77 69 78 102 109 110 112
114 120 126 131 138 140 140 138 126 115 108 102 100 51 18 17
20 23 23 21 14 18 25 23 23 16 2 16 25 24 25 25
25 14 22 20 20 22 16 21 15 19 21 20 19 20 1 0
0 0 0 0 0 0 0 0 0 0 0 0 0 0 0 0
0 0 0 0 0 0 0 0 0 0 3 12 14 20 21 21
21 22 22 22 23 22 15 10 9 10 9 8 6 7 9 9
11 11 9 0 2 7 5 0 0 0 4 3 6 1 2 11
9 9 7 18 32 36 32 63 96 91 80 85 112 119 120 121
123 128 135 138 140 139 140 138 136 138 137 136 121 39 21 22
25 26 25 23 14 17 25 25 24 15 2 17 25 23 25 26
24 13 22 19 16 21 16 21 18 18 21 20 19 9 0 0
0 0 0 0 0 0 0 0 0 0 0 0 0 0 0 0
0 0 0 0 0 0 0 0 0 1 8 12 17 19 20 21
22 22 22 22 22 16 9 9 11 11 11 10 9 5 8 11
11 10 10 3 0 4 8 2 0 4 6 11 13 6 1 4
8 10 10 21 33 41 48 78 103 105 98 96 115 131 130 133
133 138 139 140 139 139 139 136 138 139 139 139 116 30 22 24
26 25 25 25 15 16 23 24 24 14 2 18 25 24 26 26
20 13 23 20 13 21 17 22 20 16 21 20 19 8 0 0
0 0 0 0 0 0 0 0 0 0 0 0 0 0 0 0
0 0 0 0 0 0 0 0 0 2 10 14 19 20 20 20
22 21 22 22 20 12 10 11 12 14 13 14 13 5 7 10
12 10 9 8 1 1 7 6 0 5 5 5 12 10 7 4
6 7 18 24 36 66 88 103 113 117 113 112 123 139 140 139
139 139 140 140 140 139 139 137 139 138 139 139 94 22 23 24
26 28 24 24 15 16 23 26 25 14 1 20 26 23 26 25
15 16 23 19 12 19 17 22 20 16 20 21 20 6 0 0
0 0 0 0 0 0 0 0 0 0 0 0 0 0 0 0
0 0 0 0 0 0 0 0 0 4 9 15 18 20 20 20
21 21 21 22 15 9 13 15 14 14 13 12 15 10 7 14
14 12 11 13 6 0 4 9 1 2 10 9 9 5 4 2
2 1 11 22 57 90 104 113 117 121 125 127 133 140 140 140
140 140 140 139 139 139 139 139 139 139 139 133 62 19 22 25
27 26 23 26 17 15 21 25 25 12 1 20 25 23 25 23
12 18 22 13 15 17 17 23 20 17 16 21 19 3 0 0
0 0 0 0 0 0 0 0 0 0 0 0 0 0 0 0
0 0 0 0 0 0 0 0 0 5 9 15 18 19 20 20
21 21 21 19 10 12 16 18 16 15 15 14 13 16 10 18
19 17 16 17 13 3 1 9 4 0 12 13 13 11 9 5
2 1 14 58 97 109 123 132 128 127 120 140 140 140 140 141
140 140 140 140 139 139 139 139 139 139 139 114 36 19 23 25
26 26 22 25 18 15 19 24 24 11 0 21 25 22 25 23
11 20 22 9 17 15 18 22 19 17 14 20 17 1 0 0
0 0 0 0 0 0 0 0 0 0 0 0 0 0 0 0
0 0 0 0 0 0 0 0 0 5 11 16 18 19 20 21
21 21 21 15 10 15 19 19 18 18 18 18 13 17 16 16
22 20 20 21 19 15 4 7 8 0 9 13 15 13 12 12
11 13 20 79 115 120 137 141 140 140 138 141 141 140 140 140
140 140 140 139 140 140 139 140 139 139 136 82 23 20 24 26
26 26 24 24 20 15 19 23 25 9 0 20 25 22 25 19
12 21 23 8 19 15 20 21 19 18 12 16 13 0 0 0
0 0 0 2 3 3 2 1 0 0 0 0 0 0 0 0
0 0 0 0 0 0 0 0 0 5 12 17 18 19 21 21
21 22 21 12 12 18 20 21 20 21 21 22 18 14 21 14
23 22 22 22 21 20 14 9 12 2 3 15 16 17 19 22
23 21 22 46 121 140 142 142 142 141 141 141 140 141 140 140
141 140 141 140 140 140 140 140 139 139 119 48 19 22 26 26
27 24 25 22 24 16 16 22 26 9 0 20 26 23 25 14
13 22 23 15 19 17 22 19 20 19 12 11 8 0 0 0
0 0 2 5 5 5 5 5 4 4 4 4 3 2 1 0
0 0 0 0 0 0 0 0 0 4 12 17 18 20 20 21
21 21 19 10 15 19 20 21 23 23 23 22 22 12 18 15
20 22 23 22 22 22 19 13 14 9 3 17 19 22 23 24
25 23 22 24 80 141 142 142 141 142 141 141 141 141 141 140
141 140 140 140 140 140 140 140 141 134 74 23 19 22 25 26
26 24 25 21 25 19 15 20 25 9 0 20 24 23 23 11
15 24 22 19 16 20 22 19 20 19 11 8 3 0 0 0
0 0 1 5 3 4 4 4 4 4 5 7 11 12 12 10
0 0 0 0 0 0 0 0 0 5 13 16 17 19 20 20
21 21 17 11 16 18 20 21 23 23 24 24 24 16 12 18
17 23 22 22 19 22 20 18 15 17 10 21 23 22 25 25
25 24 23 23 49 95 142 142 141 142 141 141 141 141 141 141
140 141 140 141 140 140 141 140 139 100 29 20 24 23 26 26
25 23 24 19 25 22 15 18 24 10 0 20 24 22 19 11
16 23 13 19 16 23 21 19 21 19 13 8 3 0 0 0
0 0 1 4 4 3 4 4 4 4 4 7 13 17 17 16
0 0 0 0 0 0 0 0 0 5 13 16 18 19 20 21
20 21 15 12 16 17 20 22 23 22 24 24 25 20 7 18
14 23 22 21 18 22 22 21 17 19 14 19 24 24 24 25
25 25 23 22 60 51 98 142 142 141 142 141 141 141 141 141
141 141 141 141 141 140 140 139 114 44 20 25 25 25 27 26
23 26 24 19 26 23 17 16 24 13 0 20 23 21 17 12
17 20 6 20 19 22 19 18 22 20 14 9 7 0 0 0
0 0 1 4 4 4 4 4 4 4 5 9 15 18 18 18
0 0 0 0 0 0 0 0 0 5 13 16 18 19 19 20
21 20 14 15 16 16 19 22 22 24 24 23 25 23 9 16
16 21 22 18 17 21 23 23 19 17 15 18 25 24 22 26
26 25 24 23 27 44 29 89 141 142 141 142 141 141 141 141
141 140 141 141 141 141 140 118 49 21 22 26 24 26 27 26
23 27 24 21 27 24 19 16 24 16 0 20 24 19 13 13
19 12 13 20 22 22 19 19 23 21 15 10 8 0 0 0
0 0 1 4 4 4 4 4 3 4 5 10 16 18 18 18
0 0 0 0 0 0 0 0 0 5 13 15 17 18 20 19
20 18 13 16 16 14 20 20 22 23 23 24 25 23 13 9
18 17 23 20 17 21 23 23 21 18 16 17 23 22 24 23
26 25 24 23 22 32 21 25 62 123 142 141 141 142 141 140
141 141 141 140 140 140 117 49 22 23 26 25 24 27 27 19
24 26 24 22 27 24 21 17 22 19 0 21 24 14 10 14
19 5 20 21 23 22 18 20 22 22 17 10 9 2 0 0
0 0 1 3 3 4 3 3 3 3 6 12 16 17 18 18
0 0 0 0 0 0 0 0 0 5 13 15 17 17 19 20
20 17 13 18 15 13 19 20 20 23 23 23 24 23 16 5
19 15 21 22 17 19 23 23 25 17 16 15 23 20 25 23
23 25 24 24 25 29 31 19 23 32 75 128 142 141 141 141
141 141 141 141 138 103 42 23 21 25 25 24 25 27 24 18
25 26 21 23 27 24 20 18 21 22 0 21 23 9 11 17
17 8 24 23 23 20 18 21 22 22 17 10 9 5 0 0
0 0 1 4 4 4 4 4 4 5 8 13 17 18 18 18
0 0 0 0 0 0 0 0 0 5 13 15 16 17 19 19
20 14 13 19 14 12 17 20 19 23 24 21 23 21 15 2
18 16 18 22 16 16 22 23 25 17 16 14 23 20 23 25
20 23 25 25 25 24 42 22 23 23 25 36 74 107 120 130
135 131 119 87 49 28 22 21 24 25 24 25 26 25 22 19
25 23 19 24 28 25 21 19 22 23 1 20 22 4 13 18
8 16 23 24 22 19 18 21 22 22 18 10 9 7 0 0
0 0 1 4 4 5 6 6 6 5 8 15 18 18 18 18
0 0 0 0 0 0 0 0 0 5 13 15 16 18 18 19
20 13 14 20 15 12 16 21 19 21 23 20 22 21 15 2
15 19 17 22 17 15 21 23 24 20 16 14 22 21 22 25
23 19 23 26 26 25 36 32 22 22 24 22 26 29 32 36
37 35 38 26 25 22 22 24 25 23 25 26 25 22 21 21
26 24 20 26 27 26 21 19 23 23 4 18 20 3 13 19
5 21 24 25 22 18 20 21 21 22 19 12 8 9 2 0
0 0 2 6 7 9 10 11 9 6 10 15 17 18 18 18
0 0 0 0 0 0 0 0 0 5 12 14 14 16 17 18
19 12 15 19 16 11 14 19 19 19 23 22 22 21 11 3
11 20 16 21 18 13 19 22 25 21 15 13 20 23 20 24
22 18 17 19 24 25 25 43 24 24 24 22 24 25 28 27
28 29 30 25 23 20 20 24 24 25 26 26 21 25 15 22
25 23 18 26 25 25 21 17 23 24 6 15 19 3 13 16
6 22 22 22 20 17 21 21 22 21 19 13 8 9 5 0
0 0 2 7 10 12 13 13 9 7 11 16 17 18 18 17
0 0 0 0 0 0 0 0 0 5 12 13 14 16 17 18
19 11 15 19 16 10 12 18 19 17 23 23 21 22 13 4
8 20 15 18 19 12 15 22 24 21 16 14 18 24 19 22
25 21 18 18 19 24 25 54 37 24 24 23 22 23 25 26
27 32 25 25 23 21 22 24 24 25 25 21 24 21 14 24
25 22 19 26 25 25 24 17 21 24 10 11 19 2 13 10
12 22 22 22 20 18 21 21 21 21 20 14 8 9 7 1
0 0 2 7 11 14 16 14 9 7 12 16 17 17 18 17
0 0 0 0 0 0 0 0 0 5 11 12 13 15 16 17
18 10 15 19 17 11 11 15 20 16 21 22 22 22 16 5
4 19 17 16 19 11 13 19 22 21 15 14 16 24 19 20
23 24 18 14 17 18 23 37 73 23 25 25 24 24 26 28
28 36 24 23 23 23 24 25 24 24 20 24 24 18 16 24
25 21 20 27 26 24 23 17 20 24 12 10 21 2 14 7
17 22 21 22 17 18 20 20 21 22 21 16 8 7 10 2
0 0 1 5 9 13 14 12 7 7 13 15 16 17 18 17
