P2
128 120
152
1 0 0 0 0 0 1 13 50 53 45 59 59 12 0 0
5 11 6 0 0 1 22 71 72 51 26 30 29 29 25 7
2 4 6 11 17 30 36 34 34 31 26 26 34 32 32 38
61 24 0 3 9 22 16 11 8 35 65 65 52 53 55 50
55 58 62 62 61 44 47 50 53 47 51 54 52 46 19 19
26 39 39 39 38 37 37 44 47 45 44 39 37 35 33 32
31 31 30 29 28 27 27 26 26 34 37 34 32 32 32 28
22 21 21 20 20 20 19 19 19 18 19 22 24 24 23 19
0 0 0 0 0 0 0 2 38 62 53 62 60 12 0 0
0 0 0 0 0 0 21 71 73 55 32 33 33 33 35 21
3 3 8 12 12 14 14 17 20 9 9 7 18 18 21 28
61 26 0 4 12 31 18 5 8 30 67 65 23 9 31 14
22 28 36 42 56 47 50 52 54 54 56 57 56 53 23 19
27 41 41 39 39 38 37 45 48 46 42 40 41 41 43 36
37 34 32 29 28 28 28 27 26 32 33 33 31 32 32 31
23 22 21 20 20 20 19 19 19 19 19 23 24 24 23 18
0 0 0 0 0 0 0 0 24 65 57 64 61 13 0 0
0 0 0 0 0 0 20 71 73 58 35 35 36 34 29 20
4 0 1 15 18 8 2 4 4 3 3 0 5 8 11 23
62 27 6 22 15 53 45 11 3 32 67 65 21 3 12 1
0 4 13 5 44 50 51 53 55 55 57 57 57 56 27 19
29 45 43 42 41 39 38 44 46 46 43 43 44 45 45 38
36 38 38 36 33 32 31 29 28 29 14 14 16 22 26 28
25 22 22 21 21 21 20 19 20 20 20 23 25 25 23 9
0 0 0 0 0 0 0 0 13 67 62 65 63 14 0 0
0 0 0 0 0 0 18 71 74 60 24 15 26 16 5 1
1 3 3 17 25 18 12 7 11 1 0 0 0 2 7 21
65 31 12 26 32 49 41 39 9 24 68 66 23 0 4 5
0 16 24 14 45 48 47 50 50 54 56 56 56 55 30 20
30 47 44 40 42 43 44 44 12 13 26 36 41 43 44 35
7 10 17 24 30 30 36 35 32 28 12 4 6 3 1 6
26 22 22 21 21 20 20 19 19 20 20 24 25 25 24 19
0 0 0 0 0 3 11 25 44 70 65 66 65 15 0 0
0 0 0 0 0 0 18 72 75 64 24 0 3 4 4 1
3 5 5 12 23 25 17 10 9 6 4 0 0 0 1 20
66 34 7 25 38 48 30 35 15 20 67 68 30 0 7 2
0 22 27 19 46 41 11 20 28 38 45 48 49 52 30 20
29 46 44 38 36 42 49 48 5 0 3 15 18 17 24 35
1 0 0 0 1 5 9 15 25 29 10 0 2 3 0 3
27 22 22 22 21 21 21 21 20 20 21 24 27 25 25 23
5 10 19 27 40 55 64 70 71 72 67 64 67 39 23 18
12 11 8 6 5 4 20 71 74 67 42 13 0 2 1 3
5 5 8 3 11 29 28 22 14 14 6 5 7 5 7 25
68 35 0 7 23 40 33 21 3 18 67 70 33 0 10 4
2 13 15 13 45 40 1 2 5 6 5 10 9 41 33 21
22 29 37 43 45 47 50 50 7 0 1 8 12 13 17 35
2 0 0 0 0 0 0 0 8 31 8 0 0 0 0 2
27 23 23 22 22 21 21 20 20 20 21 24 26 26 25 23
47 51 47 49 51 60 71 71 73 73 67 55 62 65 63 65
55 58 60 60 57 55 58 71 72 67 41 10 0 0 0 2
2 3 6 16 19 29 31 23 27 24 5 2 6 5 2 20
66 39 0 0 0 6 5 0 0 15 67 71 36 0 4 2
3 6 0 3 44 40 3 2 0 0 0 0 0 36 33 21
14 0 2 6 12 22 31 41 10 0 0 4 2 5 12 36
5 0 0 0 0 0 0 0 6 30 3 0 0 0 0 2
29 23 22 22 21 21 21 20 20 20 22 24 26 26 25 23
58 61 59 63 68 70 72 72 72 69 63 53 57 61 56 56
63 68 68 66 60 57 48 29 37 42 43 7 0 0 0 1
1 3 8 35 32 35 34 24 31 27 1 0 0 4 2 18
58 43 0 0 0 0 0 0 0 14 67 72 41 0 3 10
10 19 1 1 43 39 7 8 3 11 0 0 0 36 35 21
15 0 0 0 0 0 0 12 11 0 0 0 0 0 9 33
2 0 0 0 2 0 0 0 5 31 2 0 0 0 0 2
30 24 23 23 22 21 21 21 21 21 22 24 26 26 26 23
70 68 68 68 69 66 62 60 37 26 36 27 10 15 29 31
44 50 52 48 52 56 44 24 32 41 47 7 0 0 0 0
0 0 4 35 32 40 38 19 24 19 0 0 3 9 8 21
60 45 1 0 0 0 0 0 0 12 66 73 47 1 8 26
24 31 7 2 42 40 9 10 6 23 8 0 0 35 35 21
14 0 0 0 0 0 0 7 11 0 0 0 0 0 11 37
4 0 0 0 8 6 0 0 3 31 2 0 0 0 0 0
29 23 23 22 22 22 21 21 21 21 22 23 27 26 26 24
63 62 61 59 54 41 39 46 19 19 35 19 0 3 3 4
14 22 17 3 12 36 42 54 54 51 37 2 0 0 0 2
6 3 3 11 11 37 30 2 6 6 5 3 5 7 7 23
62 57 36 31 29 28 26 23 21 27 67 74 52 6 9 7
6 9 7 3 41 40 9 11 3 20 14 0 0 34 34 21
15 0 0 0 0 0 0 6 10 0 0 0 0 0 8 39
5 0 0 0 10 11 9 3 2 31 2 0 0 0 0 0
28 24 23 23 22 22 22 21 21 21 23 23 27 27 26 24
43 50 54 56 58 58 57 55 46 39 50 18 0 0 0 0
1 7 1 4 15 35 65 64 56 33 13 0 1 13 4 1
8 6 8 5 1 28 23 0 1 5 3 1 7 2 4 19
58 71 70 67 65 62 59 54 51 50 53 57 38 5 9 15
18 10 5 1 39 38 6 10 6 4 8 0 0 35 35 20
16 0 0 1 14 4 0 5 10 1 1 0 0 0 8 40
7 0 0 0 10 10 10 7 1 30 3 0 0 0 0 0
27 25 23 23 22 21 22 21 21 22 23 23 28 27 26 25
34 35 37 41 42 44 46 51 59 53 63 20 0 0 0 0
0 3 0 6 6 33 72 69 56 9 3 0 3 11 2 8
4 5 5 2 5 29 33 2 2 3 0 0 0 0 0 15
66 70 55 56 55 55 58 59 57 49 41 40 17 5 4 10
16 9 5 2 39 37 3 8 12 1 1 0 0 34 34 21
16 3 14 8 7 2 0 4 11 0 0 0 0 1 10 40
8 0 0 0 4 9 9 6 0 29 15 5 1 0 0 0
25 25 24 23 23 22 22 22 22 22 23 24 27 26 27 24
5 3 0 1 3 3 3 16 60 66 66 26 4 9 2 0
0 0 0 1 0 35 75 72 59 11 8 4 3 2 5 6
2 3 2 5 2 24 34 6 3 0 0 0 0 0 0 16
69 56 5 5 9 13 19 28 35 47 56 48 56 52 46 42
39 32 24 20 44 39 4 6 8 2 1 0 0 35 34 22
17 8 9 0 6 5 0 5 13 0 0 0 0 1 18 42
18 4 3 1 0 0 5 5 0 29 37 33 29 25 22 21
32 24 24 22 23 22 21 22 22 22 23 23 28 28 27 22
0 0 0 4 24 19 0 12 62 67 66 38 41 51 31 12
0 1 7 1 0 37 75 70 59 8 6 8 13 17 21 19
16 11 9 7 16 29 37 5 9 5 10 1 0 0 0 15
68 57 8 0 0 5 2 0 1 14 62 60 44 44 47 50
58 60 60 60 51 61 45 28 34 34 33 27 25 41 32 22
18 7 2 0 0 1 0 6 35 25 16 16 9 3 3 44
40 33 32 28 21 13 8 6 4 30 38 35 34 33 39 40
40 25 22 23 22 22 21 21 21 22 23 23 28 27 26 21
0 0 0 7 37 33 4 11 64 69 69 52 40 37 43 10
7 20 40 13 1 37 72 67 58 7 0 0 0 13 8 15
33 27 40 47 47 45 42 21 19 18 14 8 3 0 2 26
69 59 19 0 7 6 10 6 2 12 64 66 30 19 21 29
32 30 27 42 62 74 59 39 48 52 57 56 53 51 31 21
18 1 0 0 0 0 0 6 50 52 42 43 43 40 37 51
29 14 17 18 20 22 24 27 32 39 30 30 33 34 38 40
40 26 23 23 23 22 22 21 21 22 23 23 28 27 27 21
0 0 0 6 31 32 9 11 64 69 69 40 9 20 24 11
22 29 48 27 3 38 72 68 59 8 1 0 1 5 9 22
50 43 49 58 61 52 25 1 3 12 24 29 21 10 16 39
69 58 22 8 10 11 32 25 8 12 62 66 32 21 18 25
21 19 7 27 70 74 52 40 49 57 58 57 59 56 32 22
19 3 0 0 0 0 0 6 52 48 45 49 52 54 47 43
27 12 13 12 11 11 9 8 8 9 10 12 16 22 26 23
23 23 24 24 23 23 23 22 22 23 24 23 29 28 26 19
0 0 0 4 27 30 14 13 66 71 68 21 1 7 13 16
18 19 24 7 1 39 73 69 60 9 0 0 4 7 10 28
48 42 53 65 69 59 29 0 0 1 17 30 24 14 23 56
69 56 29 45 30 25 30 9 2 10 61 66 24 4 15 12
7 8 8 28 61 59 39 35 45 53 54 55 57 57 33 23
26 34 32 24 15 10 6 10 48 40 47 51 53 56 50 41
29 15 14 12 10 8 8 5 6 4 4 5 4 14 25 23
21 22 25 24 24 24 23 23 22 23 23 24 28 28 27 17
5 1 9 6 22 36 37 19 67 72 67 15 9 32 9 4
9 6 1 2 2 43 73 70 63 9 3 5 4 1 2 23
40 39 60 75 76 66 34 0 0 0 9 17 13 19 28 65
72 53 29 35 24 19 29 30 10 10 61 65 20 5 15 16
14 15 14 11 13 16 14 10 17 20 18 18 24 45 35 25
28 50 59 56 54 51 47 46 49 35 44 49 51 54 51 44
34 18 14 11 9 9 8 8 8 7 7 8 8 19 15 6
24 25 26 24 22 24 24 24 24 24 24 25 29 29 27 17
9 5 12 11 20 32 41 22 67 71 67 14 1 5 0 0
0 0 0 1 2 44 76 72 64 9 4 9 6 1 10 13
18 35 61 76 78 72 39 0 0 18 41 41 38 42 45 72
76 55 22 19 14 17 41 36 18 13 61 62 29 10 17 12
11 13 4 6 6 6 7 8 10 9 12 11 12 33 38 27
31 52 60 60 82 115 114 72 48 14 14 20 25 32 34 36
38 18 15 10 3 3 2 8 11 10 7 11 12 22 30 25
32 34 32 23 2 20 25 25 25 25 24 23 29 29 28 19
0 5 14 7 11 17 17 18 69 72 67 13 0 0 0 1
2 1 1 1 3 46 76 73 65 10 0 2 7 2 14 9
6 32 59 75 76 71 39 0 0 13 43 46 57 67 53 52
72 70 56 47 50 51 44 25 15 19 57 34 16 15 12 13
8 7 9 7 7 7 7 11 9 11 7 1 4 10 21 24
30 49 57 94 146 145 145 144 110 42 3 0 2 6 15 26
39 16 13 8 0 0 0 2 5 3 0 4 5 17 35 31
28 28 31 32 27 26 25 25 25 24 8 15 28 28 28 18
0 3 32 18 0 4 3 15 71 73 69 28 17 14 12 10
8 5 4 2 3 47 74 72 64 11 1 6 8 5 12 14
12 24 54 72 72 70 39 0 0 13 42 42 52 57 28 11
62 69 59 28 52 67 55 27 13 22 24 20 17 11 7 9
8 8 11 10 15 15 17 12 12 9 3 7 4 6 6 13
33 43 64 137 145 146 145 145 144 142 86 3 1 1 4 25
40 15 13 8 0 0 2 0 0 0 0 0 0 13 35 28
21 19 20 23 25 27 25 25 25 24 5 16 26 28 29 20
0 5 43 26 0 0 0 15 70 65 65 70 72 69 64 58
53 48 48 43 40 60 73 70 64 12 0 1 3 1 4 5
4 8 51 70 71 70 41 0 0 19 56 56 49 40 28 4
49 65 57 21 41 62 48 27 15 25 20 22 15 10 8 14
12 13 14 14 10 12 8 7 7 8 4 3 4 2 4 16
20 36 70 128 140 145 145 144 144 144 142 45 0 3 0 18
39 11 6 0 0 0 7 5 0 0 0 0 0 10 34 30
14 24 26 22 23 25 25 24 25 25 18 20 27 28 29 25
0 10 40 28 0 0 0 12 52 50 62 68 82 79 76 73
70 69 72 72 73 74 72 69 63 14 5 5 6 6 6 6
7 5 51 69 71 71 50 16 15 19 37 62 57 53 41 10
40 60 45 17 32 58 32 15 27 23 24 15 15 8 15 16
12 20 16 10 12 9 8 7 11 7 4 3 3 3 7 13
11 16 42 105 125 129 143 144 144 143 142 84 0 1 0 19
36 0 0 0 0 0 3 10 5 0 0 0 0 10 34 32
9 19 18 17 22 25 25 24 25 24 23 19 28 29 30 28
0 15 35 27 1 0 0 15 41 54 63 72 81 79 76 76
72 73 75 75 76 76 73 71 64 31 50 52 52 52 50 47
44 42 62 71 73 74 62 62 65 55 28 30 50 60 57 29
26 40 42 17 21 47 21 18 24 24 25 16 12 11 16 13
20 17 9 11 14 6 6 10 13 9 5 5 4 8 10 11
12 14 17 38 72 97 127 129 141 144 144 119 2 0 0 21
36 0 0 0 0 0 2 13 11 7 0 0 0 8 35 34
13 13 15 11 22 25 25 24 25 24 23 20 28 30 30 30
6 21 34 24 5 1 7 34 43 54 63 71 69 69 71 65
69 67 61 65 72 75 74 75 74 68 67 72 74 77 64 56
61 67 72 66 77 76 70 71 67 55 61 32 10 15 16 7
5 4 19 38 28 26 19 30 25 23 26 20 15 18 19 25
18 12 16 20 11 11 10 15 14 11 10 6 9 8 11 6
12 9 11 15 27 56 140 142 139 142 140 137 16 0 0 22
33 0 0 0 0 3 14 15 12 11 0 0 0 8 34 35
20 17 13 11 20 23 25 25 24 25 23 18 28 29 29 29
55 56 57 54 50 41 25 28 34 44 48 52 53 54 56 56
68 47 15 21 28 42 48 46 68 74 70 73 75 78 62 61
65 72 77 77 80 79 78 75 60 31 71 69 31 2 0 0
7 3 0 8 21 22 21 28 31 29 34 30 25 30 31 31
23 22 31 20 16 16 14 16 16 11 12 11 9 11 8 10
14 8 8 7 16 35 128 144 144 142 129 139 27 4 0 19
31 0 0 0 0 3 14 20 8 3 0 0 0 5 33 36
23 14 1 0 17 23 25 25 25 24 23 17 27 29 29 29
63 50 52 61 65 55 13 0 4 5 4 4 7 4 5 7
58 48 8 13 1 21 37 14 59 76 79 71 69 68 63 66
70 76 81 82 83 83 81 79 62 21 69 71 36 15 4 0
16 3 2 9 23 17 26 35 41 44 53 49 50 51 46 42
39 39 32 23 29 23 24 21 18 16 15 11 10 14 13 18
9 8 4 8 9 19 80 143 143 144 141 106 19 11 0 20
30 0 0 0 0 0 0 13 2 0 0 0 0 3 31 38
21 9 2 1 15 23 26 25 25 25 22 17 28 29 29 28
56 10 8 10 14 23 5 0 1 0 0 1 3 0 2 4
56 52 13 22 1 13 24 23 62 76 75 47 46 52 62 65
70 75 79 79 80 81 80 80 65 13 64 71 24 5 1 0
25 32 31 41 24 18 31 48 57 76 86 81 82 71 67 67
64 57 49 45 41 35 33 27 25 22 20 17 17 17 19 14
8 5 6 8 7 9 29 131 144 142 92 33 20 14 1 20
27 0 2 0 0 0 0 13 4 0 0 0 0 1 30 37
10 6 0 0 15 22 26 25 25 25 21 21 29 30 29 28
65 19 4 1 5 22 2 0 0 1 1 0 5 1 3 6
52 59 11 16 14 20 39 57 69 78 70 12 5 27 42 27
30 35 39 41 44 46 48 57 68 16 57 73 49 16 9 10
45 68 56 27 24 33 50 73 87 102 110 113 107 101 102 93
89 74 72 65 60 50 49 42 42 37 33 21 22 26 23 14
8 5 4 6 6 4 11 70 145 142 50 30 29 27 16 28
28 0 0 0 0 0 0 13 6 0 0 0 0 0 27 36
7 3 0 2 19 21 25 25 25 25 20 24 29 29 30 28
65 40 12 6 14 29 0 0 0 6 4 0 4 0 0 8
49 62 4 0 22 48 41 70 73 77 70 11 1 25 35 10
7 10 12 14 12 10 8 24 70 37 55 74 69 62 54 56
64 67 50 31 49 64 81 101 114 120 124 129 127 125 119 119
110 99 94 80 72 68 63 62 59 52 41 37 34 23 21 15
9 3 6 4 5 5 3 21 114 140 57 49 47 47 49 52
33 1 3 1 0 0 0 14 7 0 0 0 0 0 22 35
5 0 0 0 14 20 25 25 25 25 20 24 30 30 29 25
69 60 25 10 10 28 0 0 3 10 4 0 0 0 0 2
41 66 9 5 12 31 41 65 71 77 70 13 0 22 38 7
5 8 7 15 13 9 11 23 69 54 51 73 72 71 72 72
71 67 45 61 83 101 115 123 133 139 140 140 138 137 130 127
121 113 104 90 86 75 70 71 66 62 57 47 31 23 22 14
7 4 10 3 5 4 2 6 44 91 46 50 47 49 55 56
45 26 26 23 15 12 13 20 13 8 5 5 3 3 15 34
8 3 4 3 4 18 25 25 25 24 20 24 29 30 29 22
65 67 30 3 9 31 6 8 11 18 0 0 0 0 0 0
33 70 16 12 7 12 32 54 70 78 69 14 0 23 42 9
6 9 6 15 15 13 24 35 70 55 45 73 72 72 73 72
64 47 61 97 108 116 129 138 143 143 142 142 142 136 132 130
130 123 108 96 91 84 86 84 73 72 66 48 29 31 25 15
8 8 9 7 4 2 7 5 8 28 43 46 45 47 53 53
46 36 36 36 33 32 32 31 27 25 21 19 17 17 24 36
20 16 14 8 6 15 26 25 25 23 19 26 30 30 29 23
51 69 41 0 9 35 15 19 25 28 2 3 6 0 0 2
30 72 14 1 0 6 19 46 69 78 70 15 0 22 44 14
18 11 9 14 14 16 23 25 66 48 34 72 73 73 74 72
56 38 103 118 122 128 139 143 144 144 143 143 142 137 135 130
126 119 111 101 96 100 98 93 90 85 72 50 42 37 27 18
12 17 13 8 3 5 1 1 4 9 34 41 41 41 38 34
36 37 38 38 36 34 35 34 34 31 31 30 26 23 26 39
37 35 33 29 26 21 25 25 25 23 20 27 30 30 29 24
43 61 56 5 11 37 16 23 31 30 3 8 15 8 8 7
32 73 17 0 0 2 15 47 66 78 69 14 0 18 44 14
24 5 8 8 7 5 20 30 58 49 12 34 36 41 44 48
50 67 119 128 134 134 142 144 144 143 143 143 143 141 138 135
128 121 120 107 101 106 101 99 101 95 73 52 44 36 35 21
20 19 13 7 7 1 3 4 4 3 14 34 39 39 39 37
39 39 40 42 44 42 37 34 34 34 41 42 38 35 35 35
32 31 32 31 31 25 25 25 25 23 20 25 30 30 28 25
34 56 67 19 12 40 15 23 30 31 3 0 5 5 4 7
36 76 24 0 0 2 17 33 61 75 67 13 0 12 46 12
19 3 6 5 8 12 22 40 55 55 2 0 0 0 2 5
22 92 126 136 139 141 143 143 144 143 143 143 143 142 142 141
138 130 128 120 117 117 115 110 98 91 66 53 41 37 34 27
25 17 14 9 7 5 4 6 5 4 5 26 42 41 41 43
46 43 41 44 50 47 37 33 32 35 44 43 39 36 37 33
26 19 17 17 17 21 26 25 26 24 19 26 31 31 28 26
43 51 68 37 13 42 16 22 28 32 4 1 15 6 0 11
34 76 35 6 12 7 19 25 61 75 65 11 1 8 51 14
11 2 4 3 5 5 16 35 48 60 4 0 0 0 1 5
26 113 132 141 141 143 143 143 143 143 144 144 143 143 143 140
140 134 124 117 113 116 116 108 93 78 63 53 47 39 32 29
23 15 11 9 5 4 8 4 3 4 4 15 42 39 42 46
50 46 43 44 47 43 38 35 30 29 41 40 38 38 38 36
32 24 22 20 20 22 25 25 25 22 21 27 31 31 28 26
55 55 71 56 19 44 16 21 25 33 5 0 6 1 0 7
23 73 46 11 12 7 12 13 59 72 62 9 0 5 54 22
2 1 6 16 13 5 5 11 34 64 8 2 2 3 5 7
41 119 135 142 143 143 144 144 144 143 143 144 143 143 142 141
136 138 131 124 122 120 114 107 91 78 69 60 47 39 34 29
21 12 12 7 4 9 5 3 6 8 4 7 25 23 25 31
43 47 42 35 26 29 31 28 29 29 27 12 10 14 19 21
29 30 26 26 28 28 29 28 25 21 23 27 30 30 28 25
73 72 73 66 31 46 14 18 18 20 2 0 1 2 4 6
17 72 50 2 4 4 6 10 60 72 61 7 0 3 50 21
1 2 11 30 26 10 1 2 25 69 24 19 16 18 21 22
60 126 135 143 143 144 144 143 144 144 144 144 143 143 143 143
143 142 142 138 130 119 110 95 92 81 71 56 49 46 35 26
22 19 8 3 8 5 1 3 7 6 5 0 20 11 2 2
23 46 38 12 2 3 7 9 21 33 23 1 0 0 1 6
22 24 23 25 29 31 34 32 25 19 24 27 31 31 29 25
71 70 66 47 22 53 28 30 33 36 39 43 48 52 58 63
69 83 61 14 15 13 14 18 64 73 60 6 0 1 44 23
1 1 8 27 25 10 0 1 18 73 58 58 50 56 61 61
84 127 132 141 143 143 143 143 144 144 144 144 143 142 143 143
143 143 141 142 138 125 112 101 94 85 63 55 51 41 36 31
26 15 8 9 8 5 1 4 7 8 7 4 18 14 1 4
22 45 26 1 0 0 0 3 22 34 26 0 0 0 0 5
20 6 1 3 4 4 19 34 26 19 25 27 30 30 30 24
67 54 26 4 9 68 75 76 79 80 82 83 84 84 85 85
86 86 77 55 64 63 61 61 74 65 59 14 5 5 40 33
8 7 8 14 14 10 7 6 17 70 61 58 64 66 66 68
92 128 135 141 143 144 143 143 143 143 144 143 143 143 142 143
142 142 142 141 141 132 118 107 91 78 60 61 53 53 47 34
23 15 12 11 8 2 5 2 7 9 9 11 9 13 0 8
27 43 15 0 0 0 0 0 21 33 25 0 0 0 0 3
19 6 0 6 2 0 11 35 26 20 26 27 30 30 29 24
42 17 7 6 13 70 83 83 84 85 86 86 87 87 86 86
86 86 78 52 58 60 61 64 72 62 69 57 56 51 57 70
60 57 59 59 56 53 55 59 61 78 59 40 47 51 56 62
88 126 135 142 143 143 143 143 144 143 143 143 143 142 142 143
142 142 142 142 141 133 122 111 96 69 69 66 67 60 46 38
29 23 15 13 6 6 3 4 7 12 5 12 10 16 4 5
16 41 10 0 0 0 0 0 19 32 24 0 0 0 0 1
20 7 0 4 2 0 9 35 26 20 26 27 30 30 29 25
56 55 54 52 53 76 85 84 84 85 84 83 81 78 71 60
54 48 37 12 12 11 14 21 62 74 79 70 76 72 66 86
85 80 84 84 82 78 83 86 86 86 58 8 5 8 16 25
74 126 137 139 143 143 144 144 143 144 143 143 143 142 143 142
143 143 142 142 142 136 120 103 92 90 87 86 85 63 52 46
34 19 14 10 8 5 4 6 11 9 5 9 12 33 12 8
12 40 8 0 0 0 0 0 20 32 23 0 0 0 0 0
18 9 0 1 0 0 9 35 26 21 26 27 31 30 30 27
67 66 65 64 64 70 71 63 68 67 65 63 60 58 37 4
2 1 1 4 9 2 3 11 60 77 82 80 78 73 64 83
89 87 88 82 78 79 81 86 87 86 69 10 0 2 10 18
73 126 135 141 142 143 144 144 144 144 144 144 144 143 143 143
142 143 143 143 143 141 130 117 108 110 108 98 79 73 71 47
26 17 15 13 9 6 8 4 12 6 5 7 11 34 16 6
8 39 7 0 0 0 0 0 18 33 23 1 0 0 0 0
16 12 0 2 1 0 8 35 25 22 26 27 31 31 30 28
58 60 62 60 61 64 62 55 63 63 63 62 59 59 35 0
0 0 1 11 21 4 5 12 60 78 81 81 76 71 60 68
74 73 73 72 69 69 69 67 61 59 50 10 0 7 14 19
85 127 131 137 142 143 144 143 144 144 144 144 143 143 143 143
143 143 143 143 143 143 140 131 118 114 104 94 96 94 69 51
32 20 20 12 9 9 5 8 14 4 7 10 12 31 18 10
10 40 7 0 0 0 0 0 14 35 24 4 0 0 0 0
16 15 0 0 0 0 8 33 23 23 26 27 31 31 29 28
57 58 59 54 57 60 60 60 60 61 63 63 60 59 35 0
0 0 0 4 9 4 6 14 60 78 75 69 67 59 52 47
51 49 52 50 46 47 54 37 13 13 9 7 5 8 10 20
97 127 131 135 137 142 144 144 144 145 145 144 143 143 143 143
143 144 143 144 143 143 143 141 137 129 114 112 107 95 83 60
38 28 16 13 14 8 8 13 15 5 9 16 11 24 18 6
12 39 6 0 0 0 0 0 11 36 23 1 0 0 0 0
13 19 0 0 0 0 7 32 23 24 26 28 31 31 30 28
55 53 53 53 52 52 52 51 51 52 56 60 63 61 37 0
0 0 0 2 4 6 8 14 59 78 73 57 31 16 9 11
25 30 34 26 16 25 55 35 9 10 5 8 5 6 7 22
105 128 134 135 137 139 143 144 144 145 145 144 144 144 144 144
144 144 144 144 143 143 143 143 143 142 141 133 118 106 83 61
40 30 24 19 10 9 15 17 13 4 16 20 14 19 8 12
10 39 10 0 0 0 0 0 9 37 25 4 0 0 0 1
13 24 0 0 0 0 8 30 22 23 26 27 30 31 27 25
54 54 53 53 52 51 51 50 50 38 12 39 66 63 38 0
0 0 2 6 15 19 11 16 57 78 74 54 15 3 1 4
12 26 26 6 1 20 55 37 9 10 6 6 4 1 3 22
105 126 133 135 135 141 143 144 144 144 144 143 142 142 144 145
144 144 144 144 144 143 143 143 143 143 143 134 121 105 83 54
37 32 25 14 13 15 16 20 12 12 17 27 21 17 16 11
15 37 25 14 13 17 15 14 21 41 28 29 29 28 28 33
36 31 5 4 3 2 10 27 22 23 26 28 30 29 25 28
49 49 49 49 49 49 50 49 50 34 0 28 64 62 39 0
0 2 24 19 30 39 14 17 57 79 73 53 19 10 11 15
14 18 25 6 0 21 57 38 9 7 3 1 2 18 29 36
48 87 123 134 136 142 143 131 107 82 79 89 93 98 114 134
143 144 144 144 144 145 144 144 144 144 144 141 132 108 86 66
44 33 24 18 19 24 20 27 22 24 24 27 26 20 24 20
31 36 46 49 46 45 47 47 48 47 29 35 39 40 42 48
49 41 28 26 25 24 26 27 22 22 25 27 29 26 28 28
12 13 14 15 17 19 22 39 49 36 1 20 60 58 43 13
12 23 52 45 56 59 28 19 57 79 73 53 27 22 23 23
15 20 28 7 0 21 59 39 11 3 1 3 33 54 53 36
43 56 100 129 136 141 140 125 78 64 60 74 76 98 109 113
125 131 141 145 144 144 144 144 144 143 144 142 129 115 94 67
40 32 28 28 36 28 34 25 32 28 26 33 32 21 26 22
28 28 43 51 50 49 47 50 50 49 32 30 35 38 43 47
47 41 26 26 25 26 24 25 24 21 25 26 26 27 29 28
0 0 0 0 0 0 0 26 50 35 1 15 57 52 49 47
49 47 56 62 69 68 58 53 65 75 70 51 27 23 25 16
4 15 27 8 3 23 58 42 27 18 2 25 42 37 23 37
77 71 79 122 134 143 144 113 100 79 96 109 116 96 100 122
137 145 144 143 144 143 143 143 144 144 143 143 133 113 86 59
51 33 34 36 37 39 32 22 31 35 32 36 42 21 28 33
29 28 32 34 36 36 34 34 33 34 29 24 28 30 31 28
25 28 27 27 27 26 26 25 25 24 23 24 26 30 29 27
0 0 0 0 0 0 0 23 50 37 1 16 54 54 53 54
58 50 58 64 70 70 68 67 68 73 69 50 26 19 23 12
5 13 20 15 3 21 58 43 34 21 5 43 44 33 19 39
80 95 87 94 119 141 137 122 111 112 117 122 126 128 105 126
138 137 144 143 144 144 143 143 143 144 143 143 127 107 94 69
40 41 39 31 41 61 42 23 23 22 25 28 40 21 21 37
32 30 27 24 24 24 25 24 24 27 28 29 31 31 31 27
25 25 27 27 26 26 25 26 25 24 25 27 29 30 29 26
0 0 0 0 0 0 0 24 51 38 2 15 53 57 54 51
60 57 60 67 73 73 72 70 69 73 68 48 18 5 8 7
9 17 14 8 6 21 56 44 30 11 30 65 60 50 52 43
59 98 108 83 116 139 110 128 120 118 112 109 125 139 135 122
132 140 143 143 143 143 144 144 144 144 143 142 117 88 60 44
29 20 24 40 116 142 130 47 21 24 21 28 35 26 14 26
25 25 27 27 29 29 36 36 32 32 35 35 39 40 40 32
27 26 27 27 27 26 26 25 24 24 25 27 30 30 29 25
0 0 0 0 0 0 0 22 50 39 2 14 50 58 55 46
50 47 55 67 74 75 73 72 69 75 69 48 13 0 0 1
9 18 9 0 2 19 55 46 38 28 40 77 55 37 31 25
32 39 58 85 126 145 129 127 115 109 97 70 61 92 129 126
135 139 140 139 134 132 125 110 102 89 90 88 78 66 50 44
16 46 39 111 144 142 116 114 18 23 26 24 32 20 17 22
27 25 28 37 40 37 48 51 27 20 22 22 26 31 42 35
28 27 27 27 27 27 26 25 25 24 25 25 29 30 27 21
0 0 0 0 0 0 0 21 51 40 4 8 43 49 38 39
45 46 45 46 50 56 66 72 70 76 69 49 15 4 2 1
7 17 7 0 0 17 50 50 65 68 68 82 60 51 23 16
23 36 40 51 124 145 123 114 92 100 81 77 29 30 75 87
98 104 82 92 96 88 91 106 123 135 143 137 108 86 68 43
56 51 92 140 142 142 101 93 55 24 21 20 21 12 20 27
25 29 27 37 41 25 35 43 10 0 0 0 0 7 38 37
28 28 27 27 27 26 26 25 24 24 23 25 28 30 23 15
0 0 0 0 0 0 0 20 51 43 24 5 33 38 8 15
26 30 25 18 13 19 38 69 72 76 70 55 26 14 12 1
4 8 5 0 0 17 51 52 71 74 75 93 72 37 21 41
39 62 32 67 129 142 129 100 79 118 98 113 36 34 110 121
81 86 104 121 130 132 143 142 142 143 143 139 112 91 59 70
69 65 125 132 127 143 138 114 75 25 22 19 13 12 10 20
29 36 27 36 35 4 4 28 9 0 0 0 0 4 35 36
28 27 27 26 26 25 25 24 23 24 23 25 29 27 22 8
0 0 0 0 0 0 0 21 51 46 28 4 29 34 0 0
1 6 9 7 11 21 40 72 74 73 71 62 36 13 10 1
1 1 1 0 0 21 59 53 73 75 67 88 84 39 55 39
32 83 75 80 132 130 123 129 100 126 116 112 93 102 127 121
107 136 141 143 143 142 141 142 143 143 143 141 111 87 77 69
63 93 136 137 137 142 135 118 70 29 16 15 12 16 12 12
21 37 28 35 33 2 1 26 11 0 0 0 0 1 32 36
28 27 27 26 26 26 25 24 24 23 24 25 28 24 21 16
0 0 0 0 0 0 0 18 51 43 7 0 25 35 0 0
0 5 9 0 0 5 27 71 73 72 70 71 38 3 5 3
2 2 4 5 14 46 66 49 44 45 39 65 82 59 58 28
25 85 81 109 135 128 113 108 99 105 113 110 114 130 141 133
114 145 143 143 142 142 143 143 143 143 143 140 119 86 72 69
89 116 88 109 141 143 128 116 49 31 20 13 20 14 14 8
19 30 36 31 36 5 1 25 14 0 0 0 0 0 29 35
27 27 27 27 27 25 25 24 24 23 24 25 27 25 20 17
0 0 0 0 0 0 0 18 52 43 6 0 20 38 1 0
0 1 10 0 0 0 14 67 67 67 65 71 49 31 36 38
41 44 47 50 58 61 68 56 27 20 20 27 89 60 50 42
68 103 99 127 142 130 110 103 105 120 126 131 123 134 141 125
107 144 143 143 143 142 142 143 143 143 143 139 120 107 89 101
126 136 99 59 111 142 120 104 24 23 25 16 23 17 11 6
19 27 40 32 31 6 3 23 15 0 0 0 0 0 27 36
27 27 27 26 26 26 25 24 23 23 23 24 27 27 20 10
0 0 0 0 0 0 0 16 51 43 10 5 24 42 4 0
0 5 13 0 0 0 12 66 56 50 52 67 64 65 68 68
69 72 73 74 73 69 73 67 36 19 16 10 81 55 39 48
94 103 112 143 145 136 108 126 130 141 139 136 141 141 144 113
120 144 143 142 143 143 143 142 143 142 142 134 123 116 118 137
142 140 140 93 102 138 116 76 15 22 20 15 27 15 14 7
14 33 37 42 35 9 4 21 18 1 0 0 0 0 25 35
26 26 26 26 25 25 24 24 23 23 23 24 27 27 23 15
0 0 0 0 0 0 0 16 51 48 39 43 49 48 9 0
0 3 9 0 6 5 11 60 24 6 15 55 67 69 70 71
74 73 72 75 74 74 71 59 46 23 18 10 39 64 46 68
113 110 121 145 145 144 126 118 128 144 142 141 141 139 142 95
137 144 143 143 143 142 143 142 143 142 142 132 122 119 129 141
141 130 142 131 120 138 106 39 21 18 12 19 30 18 17 10
18 30 33 45 35 20 10 20 19 4 1 2 0 0 24 36
26 26 26 26 26 25 24 24 24 23 23 24 26 28 23 17
0 0 0 0 0 0 0 14 51 50 52 54 56 51 12 0
0 0 1 0 16 16 16 59 17 0 3 48 67 69 72 72
72 68 71 75 74 68 39 24 46 31 20 11 12 48 44 82
114 112 135 145 145 145 142 114 116 144 144 143 141 139 139 97
145 144 143 143 143 143 142 142 142 141 142 129 119 121 136 142
142 134 131 142 135 139 84 24 20 8 12 20 27 24 20 13
15 13 22 42 32 25 15 19 17 2 8 7 0 0 21 34
26 26 26 26 25 25 25 25 24 23 23 23 25 27 23 19
0 0 0 0 0 0 0 13 50 50 53 56 58 54 18 4
2 0 0 0 6 15 29 60 29 19 22 36 42 45 54 59
63 62 62 66 65 46 9 4 32 38 20 8 12 13 40 80
91 121 138 145 145 145 145 133 119 135 142 144 143 144 110 131
144 144 144 143 143 142 142 141 142 141 142 131 116 125 140 143
142 142 129 140 139 129 52 22 16 2 17 27 38 31 28 14
10 5 8 20 28 23 21 19 18 8 11 9 4 4 21 29
26 27 26 27 25 25 25 24 24 24 23 22 23 27 22 20
0 0 0 0 0 0 0 13 51 49 44 51 50 47 33 30
32 24 25 28 31 38 47 61 49 45 52 46 45 46 47 48
56 52 51 47 40 31 21 19 28 34 28 28 33 40 42 89
107 129 143 145 145 145 144 131 135 132 127 143 143 120 122 144
142 143 143 144 143 143 143 142 143 142 143 135 118 132 143 142
133 140 143 143 142 111 33 20 13 8 17 35 43 42 25 20
14 10 5 16 26 16 22 20 28 24 24 21 21 20 22 23
25 26 26 26 26 25 25 25 24 23 23 22 24 27 20 21
0 0 0 0 0 0 0 12 51 49 38 34 27 25 25 27
34 49 65 71 71 72 74 75 74 74 75 75 76 76 74 70
66 58 50 43 39 37 35 35 39 39 41 47 52 57 55 101
117 144 146 145 145 145 145 135 119 144 134 123 114 123 138 141
143 144 144 144 144 143 143 142 143 142 142 139 126 137 143 143
143 143 144 143 141 72 24 18 8 12 19 31 37 43 31 31
19 14 5 16 33 16 16 21 28 23 24 23 23 23 23 25
26 27 26 26 25 25 25 24 23 23 23 22 24 25 20 23
0 0 0 0 0 0 0 11 50 49 33 23 15 13 15 23
26 29 43 62 77 81 80 80 79 77 76 76 74 73 72 70
70 67 58 47 47 42 42 42 43 45 48 52 61 65 57 99
116 135 135 138 144 145 145 141 116 141 143 145 144 145 143 144
144 144 144 143 143 143 142 143 142 143 142 141 135 140 143 142
136 142 142 142 121 20 27 18 19 14 26 23 27 36 32 39
27 8 17 21 42 15 16 19 28 26 28 28 27 26 26 26
26 26 26 25 25 25 25 24 24 24 23 22 23 23 21 22
0 0 0 0 0 0 0 10 50 48 21 15 19 24 24 22
27 31 34 39 56 71 65 60 58 55 57 60 61 61 62 62
63 64 60 55 55 54 55 54 54 54 54 53 53 51 47 87
110 107 105 82 114 143 145 139 127 141 140 144 144 145 144 144
144 143 144 143 143 143 142 142 142 142 143 141 137 141 143 139
113 140 143 130 37 9 25 11 26 23 34 26 24 30 34 33
26 7 27 34 46 22 14 18 28 26 29 28 28 28 27 26
27 26 26 25 25 25 25 24 24 23 22 21 22 21 23 22
0 0 0 0 0 0 0 10 49 47 12 4 9 22 25 16
20 25 31 36 44 54 52 50 50 49 50 50 50 50 50 49
48 47 46 45 45 43 42 42 41 41 41 41 40 40 39 66
107 98 98 94 117 122 130 126 141 142 137 143 145 145 145 144
144 144 144 143 143 143 143 143 143 143 143 143 141 139 131 142
143 143 124 38 11 8 21 14 21 30 32 32 34 32 29 31
18 13 30 29 36 28 16 22 29 25 29 28 28 27 27 27
26 26 26 25 25 24 25 24 23 23 21 20 21 24 25 24
0 0 0 0 0 0 0 9 48 46 13 0 0 9 18 20
22 23 28 37 37 37 39 39 39 37 37 38 37 41 40 40
42 40 39 37 40 47 46 38 36 35 34 34 35 38 37 44
94 95 99 104 133 137 137 144 145 144 140 144 144 143 144 144
144 144 144 143 143 143 143 143 143 143 143 142 140 137 81 129
136 111 35 11 12 11 15 19 18 33 34 31 35 38 26 26
21 19 31 19 29 34 32 36 32 27 28 28 28 27 27 26
27 25 26 26 25 25 24 24 23 23 20 19 20 26 23 24
0 0 0 0 0 0 0 8 48 48 16 0 1 9 16 19
22 24 29 46 43 36 34 32 39 37 30 31 32 40 36 40
48 36 29 29 36 52 48 31 27 27 28 28 30 37 33 33
84 96 113 117 138 145 144 146 146 145 143 145 145 145 145 145
145 144 144 143 143 142 143 143 143 143 143 137 137 126 61 98
62 30 13 12 12 16 19 26 25 34 45 30 29 32 26 27
22 20 32 20 23 36 32 38 30 25 28 27 27 27 27 26
25 25 26 25 24 24 24 23 23 22 20 19 21 26 25 24
0 0 0 0 0 0 0 7 46 47 16 0 6 7 15 18
21 23 29 46 38 30 26 24 36 34 22 25 31 42 43 47
50 37 30 30 38 54 50 35 33 33 35 35 34 35 33 31
69 106 120 125 144 146 146 146 145 145 145 145 144 145 145 144
144 144 144 144 143 143 143 143 143 143 143 140 133 123 114 82
49 17 15 13 21 23 26 32 24 27 36 25 31 30 29 33
21 22 18 15 23 33 25 28 25 26 28 28 27 27 27 26
26 25 25 24 24 24 24 22 23 21 20 17 20 25 26 24
0 0 0 0 0 0 0 6 46 48 18 2 8 6 15 17
20 23 28 46 37 28 26 23 35 33 21 25 31 44 49 49
51 47 46 46 49 52 51 49 49 49 48 47 42 35 34 25
51 115 106 121 142 146 145 145 145 145 144 144 145 144 145 144
145 144 144 144 143 143 143 143 143 144 142 140 130 123 101 73
36 12 14 10 22 19 26 20 12 15 23 23 31 40 28 32
27 24 30 17 30 38 25 24 25 26 26 27 27 27 26 26
25 24 25 24 24 23 23 22 22 21 20 16 22 24 27 23
0 0 0 0 0 0 0 6 46 47 18 3 7 6 14 18
20 23 28 46 38 28 25 21 34 34 21 23 30 45 55 55
55 55 55 54 55 54 54 55 54 53 52 49 41 33 34 21
35 121 110 91 103 133 145 146 146 145 144 144 144 145 145 145
145 144 144 144 144 143 143 143 143 143 141 136 128 113 98 61
21 18 16 13 21 23 24 11 12 12 13 16 24 42 30 28
29 32 22 24 32 29 25 25 27 26 27 27 26 26 26 25
25 24 24 23 22 23 22 22 22 20 20 18 23 25 28 24
9 10 11 12 13 14 15 22 47 48 20 3 5 5 14 17
20 23 28 46 38 28 24 20 33 35 22 22 30 45 55 55
56 56 55 56 55 54 54 54 54 52 48 47 37 34 30 22
21 111 117 111 111 118 120 135 145 145 145 145 145 146 145 145
145 144 144 144 144 142 143 143 143 143 141 135 126 103 93 53
23 19 20 14 25 29 22 15 13 14 7 13 17 38 28 17
24 27 19 24 24 28 22 22 27 24 25 26 26 26 25 25
24 24 24 23 23 22 22 21 21 20 17 20 23 26 26 24
49 49 49 48 48 48 47 47 48 47 20 3 5 4 14 17
20 22 28 46 38 27 23 19 32 34 20 23 29 44 55 55
56 55 54 54 53 54 54 54 53 50 46 44 33 32 29 19
17 87 107 98 124 131 125 76 116 131 130 141 145 145 145 144
145 145 144 143 144 142 144 143 144 143 139 129 118 94 89 44
19 19 22 19 21 21 12 18 14 12 6 16 18 32 20 10
17 23 26 16 25 30 24 22 27 27 26 26 25 25 25 24
23 22 23 22 22 22 22 19 17 19 16 21 22 27 26 24
52 52 52 51 50 50 49 47 47 47 22 3 3 4 13 17
20 22 27 45 39 28 25 24 34 36 25 28 32 45 53 53
52 52 52 52 51 49 49 48 46 46 42 35 28 23 26 18
16 49 101 100 107 116 106 94 106 91 109 127 143 144 144 145
145 145 144 145 144 143 143 143 143 142 134 125 109 91 73 37
22 20 19 27 14 11 13 20 15 7 8 10 18 21 15 14
12 23 21 17 18 22 25 26 28 27 25 26 25 26 25 24
24 23 23 23 21 21 21 16 11 12 16 20 22 28 26 21
52 53 52 51 50 50 50 47 47 47 22 2 2 1 10 14
17 20 25 41 44 39 38 38 40 41 38 40 41 44 46 46
46 45 45 44 44 43 43 42 40 40 37 28 25 29 28 17
13 25 100 109 114 126 132 130 131 135 139 129 134 145 145 145
144 145 144 145 144 143 143 143 142 135 132 123 98 70 51 39
24 25 18 25 18 15 16 21 16 7 10 14 22 19 15 12
14 21 24 15 14 14 20 24 30 28 25 25 24 24 24 23
22 22 22 22 19 19 20 21 17 14 21 24 28 28 20 23
51 50 50 48 48 47 47 46 46 43 20 3 3 3 10 14
16 18 22 37 42 41 40 40 40 39 39 40 40 42 42 50
54 55 58 60 62 65 67 51 36 35 32 22 22 33 28 18
12 16 89 109 119 139 141 143 144 145 144 142 135 142 145 145
145 144 145 144 144 143 143 141 136 127 124 119 89 46 38 39
26 26 29 29 34 18 16 23 15 10 13 19 24 23 14 18
21 19 16 13 12 8 11 19 25 31 29 25 24 24 24 23
23 23 22 21 19 18 23 25 23 20 19 19 20 20 25 30
44 43 43 42 43 41 40 41 41 40 16 2 3 4 13 17
19 22 29 45 41 38 37 36 42 37 33 33 35 41 40 72
86 87 87 89 90 91 91 68 30 29 28 20 20 30 28 19
12 11 61 100 110 128 138 145 144 145 145 146 143 142 145 146
145 145 144 144 144 143 140 135 129 124 123 116 72 37 36 41
25 25 33 22 24 22 18 23 13 18 19 24 28 33 21 13
23 27 16 17 18 15 8 12 12 25 25 26 24 24 23 23
23 22 22 20 18 19 20 26 29 24 16 10 1 1 3 4
49 49 50 49 49 47 43 43 46 46 19 2 3 4 13 17
19 22 30 47 35 29 28 26 40 29 23 26 33 44 43 70
95 95 94 94 95 93 94 79 37 33 33 25 23 34 35 23
13 9 49 110 109 117 129 138 145 145 146 146 145 146 145 145
145 144 144 143 140 138 131 127 122 122 124 108 55 40 48 41
27 30 30 14 19 15 17 23 16 30 36 29 26 34 24 13
21 36 22 13 16 24 15 10 15 13 21 24 24 23 23 22
23 21 21 19 18 18 19 18 26 30 16 11 4 1 0 0
45 43 42 40 39 34 31 28 29 29 12 2 3 4 13 16
19 22 30 46 32 27 25 23 39 28 23 26 33 46 46 57
88 88 87 85 82 81 78 70 48 45 46 35 32 37 42 30
18 9 54 120 118 120 134 144 146 146 146 146 146 145 146 144
142 141 139 135 131 127 122 119 120 124 123 99 58 62 63 44
26 35 30 14 31 16 16 27 24 42 48 33 23 23 25 24
25 37 33 18 13 13 16 16 15 25 16 24 24 23 23 22
22 21 21 20 18 18 18 16 16 20 15 14 4 5 1 0
20 20 13 5 12 2 4 1 1 1 1 3 3 5 12 16
18 22 30 46 32 26 25 24 39 28 21 24 32 49 52 50
59 56 54 53 51 52 53 52 51 52 50 42 32 36 33 27
15 9 59 127 127 128 143 147 147 146 146 146 146 146 145 144
141 137 130 124 121 117 116 116 122 127 117 94 81 82 66 43
31 34 23 13 28 13 13 33 32 35 39 30 14 16 18 27
25 31 31 25 18 11 13 17 15 21 12 22 24 23 23 22
22 21 21 20 19 17 18 15 16 15 16 15 2 0 0 0
10 12 10 0 11 0 1 0 0 0 2 6 7 9 14 16
18 21 30 46 33 25 25 23 39 29 20 24 32 48 54 53
51 50 50 49 48 51 51 50 53 53 50 44 35 30 22 14
12 13 58 127 130 136 146 146 146 146 146 146 146 146 142 136
132 125 117 114 112 111 113 118 125 123 118 105 98 87 64 41
33 33 16 18 16 9 14 36 30 32 26 25 10 13 14 23
23 26 33 37 25 13 8 6 11 13 8 20 25 23 22 22
21 21 20 20 19 19 17 15 15 13 16 16 3 1 0 0
17 14 7 1 14 1 1 0 0 2 5 9 9 11 13 15
17 20 28 45 32 25 23 22 37 29 20 23 31 47 53 53
51 49 49 49 48 50 51 49 51 51 49 44 32 25 14 10
16 18 50 125 131 138 147 146 146 146 146 145 145 141 130 123
117 108 105 104 105 108 113 122 129 132 120 109 100 82 55 37
35 29 23 28 9 9 15 34 32 23 15 17 12 10 16 18
20 22 33 33 23 21 13 11 4 7 9 14 22 22 22 21
20 20 19 19 18 17 14 15 14 13 16 15 2 0 0 0
35 26 7 2 16 2 0 0 1 3 6 8 6 9 12 13
16 19 27 44 32 24 23 23 37 30 22 26 30 45 51 51
50 49 48 47 47 47 45 45 43 43 41 37 25 19 9 9
17 18 28 111 126 131 143 146 144 144 145 143 134 122 112 103
98 93 91 93 98 106 118 130 135 134 119 112 100 80 49 36
35 25 31 26 4 12 20 32 34 22 12 14 7 7 14 26
30 23 39 29 15 18 19 11 5 0 3 17 23 22 19 19
19 19 18 17 16 13 13 16 22 18 8 6 1 1 0 0
37 27 9 3 16 4 0 0 2 2 3 7 5 6 8 10
14 17 24 42 38 32 32 32 39 37 33 36 39 43 46 45
44 42 40 39 39 39 37 35 35 34 34 32 25 15 7 11
17 15 13 63 114 120 132 137 135 134 126 109 95 92 90 86
79 72 73 82 97 114 128 136 136 129 119 113 99 73 40 37
28 37 19 6 8 17 30 32 35 28 19 10 2 5 10 19
30 30 42 29 14 17 17 8 5 0 0 5 22 23 18 15
14 16 30 30 27 24 22 22 31 38 22 18 16 16 12 10
23 17 13 14 20 16 13 2 1 3 5 8 4 7 9 9
11 13 19 37 41 39 38 38 38 37 38 37 38 38 39 37
37 37 35 34 35 39 38 32 31 29 29 27 24 20 11 13
15 14 9 12 58 95 102 104 100 88 70 58 61 65 59 54
55 63 76 98 114 127 136 138 133 124 122 110 83 51 40 34
27 31 7 5 21 25 28 30 46 44 32 12 3 5 11 3
18 23 35 28 14 13 11 3 0 2 0 6 24 32 23 7
4 14 39 40 38 37 36 37 37 33 35 31 28 33 30 27
35 35 36 37 36 36 37 10 0 0 3 7 4 9 11 12
13 15 18 34 42 40 38 36 38 38 33 31 31 35 33 33
40 32 27 26 30 45 43 27 23 24 24 23 26 27 17 17
19 11 9 7 7 17 29 28 25 19 16 21 19 24 31 42
63 90 112 125 128 131 134 132 125 124 116 101 62 52 41 21
22 26 9 6 19 28 21 19 48 47 31 6 1 2 0 5
2 4 16 14 12 14 14 1 1 6 2 7 20 30 31 9
0 0 4 6 6 7 8 8 8 6 5 6 11 5 3 3
26 22 18 15 12 12 33 12 0 0 0 7 3 9 11 12
15 17 21 36 43 31 29 26 31 37 23 23 26 35 36 37
44 33 23 23 31 48 46 30 27 29 29 29 28 25 24 24
19 14 6 4 5 6 10 6 5 8 5 9 4 3 18 38
82 116 131 136 133 130 126 123 127 121 112 88 65 49 36 21
21 25 12 7 11 24 12 17 32 32 16 3 0 6 8 4
0 0 11 7 14 17 8 4 4 4 13 15 14 25 26 13
0 0 0 0 0 0 0 0 0 0 0 0 0 0 0 0
0 0 0 0 1 3 25 12 0 0 0 6 3 8 11 13
15 18 22 36 41 26 23 21 27 36 20 22 25 35 42 43
44 38 35 37 41 48 47 43 42 43 44 40 36 27 30 19
13 13 10 5 7 6 9 5 1 6 5 9 3 3 19 57
95 117 132 138 133 122 118 123 123 121 99 83 56 45 33 22
28 36 14 7 10 13 16 24 21 18 3 2 2 15 15 15
17 11 10 10 14 7 1 1 4 8 23 17 13 20 20 15
0 2 0 0 1 0 0 0 0 0 0 0 0 0 0 0
1 2 3 3 3 3 15 10 0 0 0 6 1 8 11 13
16 18 21 35 41 26 22 20 26 35 19 19 24 35 47 47
48 48 48 49 50 49 50 50 49 49 49 46 42 31 27 8
7 9 10 8 8 11 19 9 5 9 3 13 4 5 21 81
104 113 127 132 129 120 115 118 121 115 89 61 51 46 33 27
34 41 22 17 9 8 24 20 12 7 2 1 8 18 19 23
36 26 8 9 9 3 0 5 2 0 19 15 20 18 20 12
0 7 0 1 6 6 6 4 4 3 3 2 1 2 1 0
0 0 0 0 0 0 15 13 0 0 0 4 1 8 10 12
14 17 21 35 41 26 24 21 26 35 18 19 23 35 48 49
50 51 52 47 45 43 44 41 46 54 57 56 50 45 18 2
6 10 11 15 12 9 8 4 5 16 8 13 6 10 12 83
109 113 122 130 125 115 112 115 119 106 77 55 54 44 31 26
28 37 17 16 6 14 23 15 10 2 4 6 6 23 20 22
31 21 10 13 12 8 1 0 0 1 6 22 20 20 20 7
1 9 0 3 9 9 11 10 11 10 9 8 5 5 5 3
0 0 0 0 0 0 11 10 0 0 0 1 2 7 9 11
13 17 21 33 41 26 23 19 26 40 31 27 34 46 58 59
60 60 60 47 43 44 45 47 52 61 62 61 58 49 14 11
22 17 16 20 12 5 5 5 8 19 13 12 4 11 9 62
106 113 117 121 117 112 113 119 119 100 63 62 50 41 32 17
18 23 16 17 6 17 28 13 6 4 15 8 5 21 22 16
20 15 18 20 18 18 10 0 0 0 0 13 18 21 19 4
1 8 0 7 9 11 12 11 11 9 8 6 3 0 0 0
0 0 0 0 0 0 0 0 0 0 1 3 5 9 9 11
13 16 20 32 40 24 21 15 26 44 46 46 51 56 61 62
62 63 63 59 59 61 62 63 63 64 64 65 64 50 29 28
27 25 24 22 13 5 5 9 12 9 7 11 4 12 9 30
95 109 112 114 112 112 118 118 117 89 57 54 51 42 29 19
13 24 16 13 17 30 37 13 2 17 37 8 7 18 11 20
12 12 14 21 21 19 22 8 0 0 5 13 15 21 17 2
0 2 1 7 10 11 9 9 6 4 3 2 1 0 0 0
0 0 0 0 0 1 2 2 2 3 9 18 20 23 24 22
16 14 19 31 39 27 25 17 22 37 44 49 52 46 42 47
52 54 54 49 52 64 62 59 58 61 68 68 65 56 45 43
39 40 29 30 27 8 3 3 4 5 3 5 2 19 15 7
77 99 107 111 115 115 118 118 109 68 68 50 55 45 28 18
17 26 19 27 25 27 24 2 8 19 40 7 6 21 13 19
11 15 19 26 25 24 24 23 13 11 18 18 17 21 15 0
0 0 0 4 7 6 2 1 0 0 2 2 0 0 0 0
17 20 22 26 27 30 33 36 38 35 38 39 41 42 43 44
35 18 16 24 31 29 29 22 16 25 37 42 46 45 37 34
35 33 29 24 24 25 23 19 18 20 31 50 53 52 48 43
43 38 28 14 22 8 1 0 2 2 5 3 1 12 13 2
45 93 104 109 113 116 118 116 94 76 71 51 56 43 25 18
21 21 15 22 25 35 20 7 21 17 17 0 1 21 18 11
14 20 26 27 29 29 28 26 26 23 25 23 23 21 13 0
0 0 0 0 0 1 0 0 0 0 0 0 0 0 0 0
49 49 49 52 47 50 50 50 52 49 45 46 46 47 48 49
49 32 7 8 20 23 22 19 12 14 25 29 29 28 25 22
20 20 19 18 17 16 16 15 14 14 14 19 22 22 19 17
16 14 12 9 13 9 4 4 8 9 6 2 0 3 6 5
23 91 101 107 111 116 119 113 99 81 76 54 49 39 25 20
22 19 5 10 18 27 21 9 11 9 0 0 0 7 21 15
17 25 32 30 29 30 29 32 30 27 24 25 23 20 10 0
0 0 0 0 0 0 0 0 0 0 0 0 0 0 0 0
47 47 48 52 50 46 53 52 54 55 49 46 50 53 52 52
53 48 30 18 27 28 25 20 16 18 21 22 23 22 22 21
21 20 20 19 19 18 18 17 17 15 14 12 11 9 2 3
9 11 6 6 10 9 12 13 14 3 1 0 0 1 3 3
12 87 100 104 109 115 118 113 101 75 81 62 43 41 16 15
18 19 4 11 19 28 4 3 2 0 0 0 0 6 17 18
22 23 32 31 29 30 32 32 31 28 26 24 23 21 8 0
0 0 0 0 0 0 0 0 0 0 0 0 0 0 0 0
49 52 53 58 56 56 54 53 55 58 54 52 50 60 62 54
48 39 30 20 22 22 22 23 24 24 24 23 23 22 22 21
21 21 20 20 19 18 18 16 16 14 13 11 8 7 2 9
16 10 4 8 10 11 5 2 2 2 0 1 2 0 2 1
7 82 102 104 108 110 118 117 106 92 73 70 45 36 22 13
13 17 5 13 27 18 0 0 0 0 0 0 7 22 23 23
25 26 23 32 31 32 33 32 32 30 31 27 24 19 4 0
0 0 0 0 0 0 0 0 0 0 0 0 0 0 0 0
57 59 57 60 57 59 55 54 56 56 55 53 52 50 38 25
19 19 20 21 22 23 24 24 24 24 24 24 24 22 22 22
21 21 20 20 19 18 18 17 16 14 12 10 8 7 4 12
12 9 2 11 13 11 8 4 5 2 8 7 7 1 2 1
7 86 102 107 109 111 118 118 111 106 76 72 49 31 23 15
4 6 7 7 21 11 6 3 3 1 0 7 9 22 27 27
23 22 23 24 33 34 35 33 33 33 31 29 26 19 2 0
0 0 0 0 0 0 0 0 0 0 0 0 0 0 0 0
51 50 48 47 45 44 42 40 38 36 34 32 30 20 15 17
19 19 20 21 22 23 23 23 23 23 24 23 23 23 22 21
21 21 20 20 19 19 18 17 15 14 12 10 8 6 5 11
10 8 1 13 13 13 6 6 7 0 2 8 4 3 6 8
18 99 105 110 110 111 117 119 113 109 88 51 35 36 32 16
3 5 7 6 10 23 21 11 8 0 9 9 11 24 30 27
19 20 25 25 31 37 35 34 33 34 32 30 28 24 4 0
0 0 0 0 0 0 0 0 0 0 0 0 0 0 0 0
22 20 17 16 14 11 9 7 5 4 3 4 11 13 15 18
19 20 21 21 21 22 23 24 24 23 23 23 23 22 22 21
21 20 20 19 19 18 17 16 15 14 12 10 8 6 8 10
8 8 1 13 12 12 7 7 9 1 2 10 10 11 12 20
64 108 107 113 114 112 115 117 119 120 100 44 31 38 45 21
7 5 6 2 6 22 17 15 6 3 16 8 15 27 28 22
19 24 23 25 33 35 37 36 36 34 33 31 28 27 14 0
0 0 0 0 0 0 0 0 0 0 0 0 0 0 0 0
0 0 0 0 0 0 0 0 0 0 0 6 12 13 17 18
19 20 21 21 22 23 23 24 24 24 24 23 23 23 22 21
21 21 20 20 18 18 17 16 15 13 12 10 9 8 10 11
8 8 2 13 13 14 9 9 10 1 10 15 12 12 17 59
97 113 112 118 119 118 115 116 119 124 115 51 29 32 44 26
12 3 10 1 0 18 28 14 0 14 12 11 20 29 21 17
24 25 23 29 32 32 37 35 34 34 33 31 28 26 23 1
0 0 0 0 0 0 0 0 0 0 0 0 0 0 0 0
0 0 0 0 0 0 0 0 0 0 2 9 10 14 16 17
18 19 20 21 21 22 23 24 24 24 24 24 24 23 22 22
21 20 20 19 19 18 17 17 15 13 11 9 8 9 9 10
8 7 1 13 14 14 10 9 10 1 13 14 13 13 42 96
107 115 120 127 124 122 118 115 122 129 122 86 62 35 34 28
15 6 6 1 0 2 15 10 0 16 8 14 26 22 15 22
24 20 28 32 30 31 35 34 33 33 32 31 28 26 25 9
0 0 0 0 0 0 0 0 0 0 0 0 0 0 0 0
0 0 0 0 0 0 0 0 0 0 6 8 11 14 15 17
18 19 20 21 20 21 22 23 24 24 24 24 24 23 22 22
21 20 21 19 18 18 17 16 14 13 11 9 9 9 9 10
8 8 0 10 14 15 11 9 9 2 13 14 12 15 63 111
112 111 125 135 132 128 122 120 128 133 124 102 107 97 63 29
20 7 7 1 0 0 16 11 15 11 8 17 25 14 17 20
15 24 30 26 28 32 34 33 33 33 31 30 28 26 24 19
0 0 0 0 0 0 0 0 0 0 0 0 0 0 0 0
0 0 0 0 0 0 0 0 0 2 6 8 11 14 15 16
18 18 19 20 21 21 22 23 24 24 23 24 23 23 23 22
21 21 20 20 19 18 16 16 14 12 11 9 9 8 10 12
9 9 2 7 13 14 11 8 7 3 14 14 13 20 71 117
117 114 132 139 137 131 124 124 131 137 128 118 123 119 99 24
14 9 8 2 0 3 21 14 22 7 10 19 17 16 18 14
21 31 29 22 28 34 31 32 33 33 32 31 29 26 23 24
6 0 0 0 0 0 0 0 0 0 0 0 0 0 0 0
0 0 0 0 0 0 0 0 0 2 5 9 12 12 14 15
17 18 19 20 21 22 23 23 23 24 24 23 24 23 23 23
21 20 19 19 19 18 17 15 14 12 11 8 8 7 10 11
9 9 3 7 10 14 11 8 6 5 14 14 13 21 75 120
119 127 136 140 139 132 127 126 133 133 129 139 129 121 54 20
17 14 11 6 4 8 17 19 17 7 13 19 14 17 14 15
28 32 22 22 30 34 33 32 32 33 32 30 28 25 23 24
18 0 0 0 0 0 0 0 0 0 0 0 0 0 0 0
0 0 0 0 0 0 0 0 0 2 5 9 12 13 14 15
16 18 19 19 20 22 22 23 24 24 25 24 24 23 23 23
22 20 20 19 18 17 16 15 14 11 11 9 9 7 10 10
10 10 4 7 12 14 11 9 5 7 15 14 14 19 71 123
123 132 138 139 135 130 125 124 133 132 143 140 134 79 24 26
22 14 11 9 10 14 15 23 12 9 14 18 15 14 12 21
32 25 21 27 31 32 32 32 33 35 32 29 28 26 24 22
24 9 0 0 0 0 0 0 0 0 0 0 0 0 0 0
0 0 0 0 0 0 0 0 0 2 5 9 11 12 13 16
16 18 18 19 19 21 22 23 24 24 23 23 23 23 23 22
21 20 20 19 17 17 16 14 13 11 10 9 8 6 10 10
8 11 5 6 11 14 9 8 3 10 15 13 15 18 63 125
126 133 138 138 133 126 124 127 126 140 142 140 100 27 26 25
19 12 10 10 10 15 19 22 6 9 15 15 14 12 14 27
26 15 25 28 31 29 31 32 35 33 31 29 28 26 23 22
25 18 2 4 5 5 3 2 1 0 0 0 0 0 0 0
0 0 0 0 0 0 0 0 0 3 6 9 11 12 13 15
16 17 19 19 20 20 22 23 23 23 23 23 24 22 23 22
21 21 20 19 18 17 15 14 13 11 10 9 8 7 11 9
5 11 7 7 12 13 9 8 4 12 15 14 15 17 46 126
129 132 133 137 132 126 129 130 131 140 140 120 35 25 26 23
16 12 11 11 10 17 23 13 7 9 15 15 13 12 20 31
15 17 28 32 33 28 29 31 33 32 30 29 28 26 23 21
21 23 14 11 8 7 7 7 6 6 5 5 5 4 3 1
0 0 0 0 0 0 0 0 0 2 6 9 10 12 14 15
16 17 18 19 20 21 22 23 24 23 23 23 23 23 22 21
21 19 19 18 18 17 16 14 13 11 10 9 8 7 11 8
4 12 7 8 13 12 9 7 6 14 15 15 15 17 28 110
129 132 133 137 131 131 134 130 137 138 127 46 22 25 24 19
13 11 12 7 13 19 25 5 8 11 14 14 12 15 27 25
10 23 31 33 30 24 27 31 30 31 29 28 28 27 26 21
19 22 21 14 13 13 12 10 8 7 7 9 13 15 15 13
0 0 0 0 0 0 0 0 0 1 5 8 10 11 13 13
15 16 17 19 19 20 22 22 22 22 23 23 23 22 22 22
21 20 19 18 17 16 15 14 12 10 9 9 7 7 11 5
4 12 9 8 14 11 7 6 7 14 15 15 16 15 20 68
129 131 132 133 135 135 138 133 138 122 47 21 23 24 22 16
12 11 11 7 13 22 20 3 7 11 13 12 11 16 30 14
13 27 31 33 29 23 25 30 31 30 29 28 26 27 25 21
16 19 21 13 10 11 10 12 11 12 12 12 15 19 19 19
0 0 0 0 0 0 0 0 0 2 7 8 10 11 12 13
14 16 18 19 19 21 21 22 22 22 23 22 23 23 23 22
21 20 19 18 17 16 15 13 11 10 9 9 7 8 10 4
6 13 9 9 15 10 6 6 8 14 15 15 16 15 17 32
106 129 131 132 135 142 129 138 113 37 20 21 24 22 17 13
11 11 10 6 16 24 13 3 7 13 13 12 12 21 30 5
18 30 31 32 27 22 25 29 30 29 28 28 26 27 28 22
18 19 17 17 9 9 9 10 9 13 12 11 14 14 17 18
0 0 0 0 0 0 0 0 0 2 7 8 9 11 12 13
15 15 17 19 19 20 21 22 23 23 23 23 23 22 23 22
21 20 19 18 17 15 14 12 11 9 8 9 7 7 11 5
4 13 12 10 15 9 8 6 10 14 14 14 16 15 14 23
59 121 127 132 143 128 125 77 27 22 23 23 23 18 15 12
12 11 7 7 19 24 5 3 8 13 12 11 14 25 22 5
24 31 29 28 26 21 23 30 29 27 27 27 27 29 29 23
19 17 17 17 13 8 10 9 10 10 10 11 12 12 13 15
0 0 0 0 0 0 0 0 0 2 6 7 9 10 12 13
14 15 17 18 19 20 21 22 23 23 23 24 23 22 22 21
21 20 19 17 16 15 14 12 11 9 8 9 7 8 11 6
3 12 11 11 15 10 7 7 10 14 13 13 16 15 15 16
28 58 104 126 118 78 37 21 20 24 24 23 20 15 12 12
13 9 3 10 21 18 3 3 10 13 10 11 16 28 15 9
28 29 28 28 25 22 21 27 27 26 26 27 28 28 29 24
20 17 17 15 13 8 8 8 8 9 11 10 11 12 13 15
0 0 0 0 0 0 0 0 0 1 7 8 9 10 11 12
13 15 16 18 20 20 21 22 22 23 23 23 23 23 22 21
20 20 18 17 16 15 13 11 10 9 7 11 8 8 11 9
1 12 12 13 16 11 7 6 11 14 14 13 16 16 14 14
19 19 28 43 28 24 22 22 25 25 24 22 17 14 12 13
12 5 4 13 23 13 1 3 11 12 10 11 19 29 12 19
30 28 27 26 23 21 21 26 27 26 27 27 27 29 28 25
20 16 16 15 14 11 8 7 8 8 9 10 10 10 13 16
0 0 0 0 0 0 0 0 0 1 6 8 9 10 11 12
14 14 17 17 19 20 21 22 22 23 23 23 22 22 21 20
20 19 18 17 16 14 13 11 9 8 9 11 10 9 11 13
0 11 11 13 17 10 7 8 12 14 12 14 16 17 14 12
14 14 23 16 18 22 22 23 24 23 23 19 15 12 14 14
7 2 8 17 20 9 1 5 12 10 10 12 22 26 12 26
27 28 26 25 24 20 19 27 24 25 26 26 28 28 28 26
21 18 16 15 13 12 5 5 7 6 7 10 8 10 10 14
0 0 0 0 0 0 0 0 0 2 6 7 8 9 11 12
13 15 17 17 19 19 21 21 22 22 23 22 22 21 21 21
20 19 17 16 15 14 11 10 10 7 9 12 12 12 10 14
4 7 12 13 16 9 6 9 12 14 13 14 17 15 13 12
13 16 18 14 15 21 25 23 23 22 21 17 13 11 16 10
4 3 12 18 18 3 0 8 12 8 9 14 21 12 16 26
27 27 27 22 23 20 21 26 24 24 26 27 29 27 27 25
22 17 15 13 13 12 5 4 5 5 7 6 10 8 10 11
0 0 0 0 0 0 0 0 0 1 5 6 8 9 10 12
13 14 16 17 18 18 20 21 21 22 22 22 22 21 22 20
19 18 17 16 15 13 12 10 9 7 8 13 14 14 10 13
7 3 10 14 16 8 5 10 12 13 13 13 19 17 13 14
14 17 14 14 13 17 22 21 22 21 20 14 10 14 14 6
1 8 14 20 12 0 1 10 9 9 10 14 13 2 23 26
27 27 25 23 21 19 20 27 24 23 25 27 27 28 26 25
22 16 15 12 12 10 7 3 5 4 5 5 10 7 10 11
0 0 0 0 0 0 0 0 0 1 6 6 7 8 10 11
13 14 16 16 18 19 20 21 22 22 23 22 22 22 21 20
19 18 17 15 14 13 11 10 8 8 9 16 16 16 13 14
12 0 10 16 17 8 6 9 13 13 12 14 20 21 13 14
14 15 16 14 14 17 22 22 21 19 16 9 13 18 9 5
2 10 15 19 7 0 1 10 8 8 12 16 2 10 25 27
27 28 24 21 21 16 23 27 23 23 26 27 28 26 27 24
24 17 15 12 12 8 11 3 3 5 7 6 7 8 7 10
0 0 0 0 0 0 0 0 0 2 5 7 7 8 10 12
14 14 16 17 18 19 20 21 22 22 22 23 22 21 21 20
19 18 17 15 14 13 11 10 8 8 9 17 18 18 15 14
15 0 9 17 17 8 7 10 13 13 12 14 18 22 12 13
15 12 13 13 15 17 21 21 22 17 9 11 18 16 7 1
7 13 17 18 4 0 4 8 7 8 12 9 0 20 26 27
26 27 24 21 20 16 24 28 24 23 28 26 28 27 26 25
24 18 14 13 11 8 10 5 2 3 5 7 6 6 7 10
