P2
128 120
153
23 13 0 0 0 0 0 0 1 4 48 60 57 65 62 9
0 0 0 0 0 0 0 0 12 72 74 62 31 33 32 33
34 29 4 3 9 12 12 12 22 15 24 16 11 6 17 25
21 23 47 59 3 0 6 18 22 12 8 4 48 67 62 6
16 33 24 35 41 49 55 61 45 51 53 55 54 57 58 56
55 21 20 26 42 41 40 39 39 38 44 49 47 45 41 41
40 41 37 34 32 31 30 28 28 29 27 27 30 38 37 32
32 33 32 26 22 22 21 20 19 20 18 19 19 19 21 24
20 13 0 0 0 0 0 0 0 1 29 68 56 65 64 11
0 0 0 0 0 0 0 0 9 71 73 65 32 36 36 36
33 26 10 0 0 8 18 10 2 0 2 5 3 2 2 8
10 7 44 60 5 13 12 24 58 29 0 7 47 67 63 6
7 12 0 0 4 7 2 49 48 51 54 55 55 57 57 57
56 25 19 27 45 42 42 40 39 38 42 49 47 44 42 43
44 46 40 39 39 38 34 31 28 28 28 26 28 23 20 24
30 32 32 27 22 21 20 20 20 19 19 19 19 19 20 25
2 1 0 0 0 0 0 0 0 0 16 71 62 67 65 12
0 0 0 0 0 0 0 0 7 70 73 67 28 13 29 24
6 2 0 2 4 5 31 17 15 7 12 5 0 1 1 0
6 9 42 63 7 21 26 34 49 43 30 1 40 68 64 8
0 5 4 0 14 21 9 49 47 51 52 51 55 56 56 57
56 30 20 28 48 44 43 43 43 42 44 25 26 37 44 45
46 46 41 20 22 30 34 37 35 34 34 31 28 19 8 6
4 6 11 24 22 22 20 21 20 20 20 18 20 20 21 25
5 1 0 0 0 0 0 0 6 21 42 72 65 67 68 13
0 0 0 0 0 0 0 0 7 71 75 70 30 0 5 2
4 1 1 2 5 7 22 25 19 8 9 6 2 5 0 0
0 1 43 66 9 18 28 44 47 20 39 4 35 69 67 12
0 7 0 0 27 24 16 50 39 19 31 40 50 56 56 54
54 31 20 27 47 44 35 36 42 47 51 9 0 2 17 24
24 29 40 7 0 0 1 8 13 21 28 33 30 18 3 3
5 3 0 20 23 22 22 21 20 20 20 20 21 21 21 26
14 1 1 6 16 26 41 58 69 72 73 73 67 67 69 31
15 9 5 3 1 0 0 0 8 71 75 72 45 18 0 4
4 1 8 4 10 3 7 22 33 20 20 10 11 2 7 4
5 7 48 68 11 2 18 36 43 30 24 0 32 70 70 15
1 10 1 0 20 20 17 50 36 0 5 8 10 13 22 19
47 33 21 25 43 47 47 45 43 50 53 13 0 1 9 13
14 13 39 6 0 0 0 0 0 0 0 2 29 18 2 1
0 2 0 21 23 22 22 21 21 21 20 20 20 21 21 26
54 43 53 52 51 47 50 63 73 73 74 74 66 57 63 66
67 68 52 61 60 57 54 49 49 73 75 73 48 15 1 0
0 1 3 2 2 14 15 23 41 22 25 25 14 1 9 10
4 5 49 68 14 0 0 4 14 6 0 0 29 72 73 18
0 6 1 2 4 0 3 50 36 1 0 0 0 0 0 0
36 35 21 17 2 8 17 28 39 48 52 17 0 0 6 5
10 8 38 11 0 0 0 0 0 0 0 0 30 16 0 0
0 0 0 20 24 23 22 23 21 21 21 21 21 21 22 26
65 58 58 60 59 66 70 71 73 74 75 74 69 55 63 66
59 57 65 69 68 68 62 60 55 36 39 48 47 11 0 0
0 1 2 6 2 27 30 31 31 31 21 39 11 0 0 2
5 2 37 64 17 0 0 0 0 0 0 0 27 72 72 23
0 3 2 8 10 0 0 49 34 6 7 1 4 0 0 3
35 36 22 17 0 0 0 0 0 2 13 20 0 0 1 1
2 5 33 10 0 0 0 0 0 0 0 0 28 11 0 0
0 0 0 20 26 23 23 23 22 21 22 21 21 22 23 27
54 71 70 70 70 70 72 72 69 62 40 26 38 25 13 19
37 38 50 56 59 59 62 62 51 17 22 41 50 15 0 0
0 0 0 0 0 35 38 38 44 29 21 31 8 0 1 7
6 6 40 64 19 0 0 0 0 0 0 0 25 73 74 28
0 12 28 24 25 1 1 50 35 8 11 7 27 4 0 0
35 36 22 17 0 0 0 0 0 0 3 18 0 0 0 0
0 5 37 10 0 0 0 5 7 0 0 0 27 10 0 0
0 0 0 20 27 24 23 23 23 22 22 22 22 22 22 27
54 70 68 66 64 62 55 35 38 44 16 19 40 16 0 5
5 7 21 26 22 2 10 35 38 55 53 54 48 7 0 0
0 2 6 5 1 14 16 27 55 7 10 11 6 2 3 5
7 10 47 67 33 15 12 11 9 6 4 4 26 74 75 34
5 6 4 13 21 10 5 50 34 10 13 3 24 18 0 0
37 35 22 17 0 0 0 0 0 0 3 16 0 0 0 0
0 5 41 12 0 0 0 6 12 7 3 0 26 11 0 0
0 0 0 17 28 24 24 23 23 22 22 22 21 23 22 27
58 48 46 53 54 57 59 59 58 53 41 38 50 14 0 1
0 0 1 11 3 4 19 30 65 66 60 45 23 0 0 7
7 0 8 4 10 7 1 8 42 0 0 4 7 5 9 8
2 7 43 66 71 69 65 65 62 60 58 56 60 69 70 36
7 8 19 13 3 3 1 47 33 8 12 5 10 8 0 0
36 35 22 18 0 0 0 10 5 0 2 15 0 2 0 0
0 2 38 16 0 0 0 8 12 10 10 1 24 14 0 0
0 0 0 15 29 24 25 24 23 23 22 22 23 23 24 28
35 35 39 43 48 53 53 56 57 60 62 48 67 14 0 1
0 0 1 3 0 5 7 25 74 72 65 10 6 0 2 21
6 5 8 4 7 3 6 12 50 5 1 5 1 0 0 0
1 0 39 74 72 70 68 62 63 59 54 47 36 30 35 2
0 2 11 15 10 9 2 47 32 5 8 9 2 6 0 0
36 36 22 18 1 10 8 10 7 0 1 14 1 3 0 0
1 6 36 19 0 0 0 6 12 10 10 1 21 17 0 0
0 0 0 12 31 25 24 24 24 23 23 23 23 24 23 28
5 6 10 4 1 1 1 2 4 22 65 68 68 23 1 2
0 0 0 1 0 3 3 26 77 73 69 13 7 1 1 0
1 9 5 4 7 8 5 3 54 9 2 2 2 0 0 0
0 0 45 77 33 11 17 23 28 39 48 56 62 50 51 42
35 27 24 25 16 8 9 46 33 2 9 12 0 0 0 0
36 36 22 19 5 16 4 10 4 0 0 16 2 0 0 0
0 14 36 22 0 2 1 0 4 10 10 1 19 35 26 17
11 6 4 12 32 24 24 24 23 23 23 22 23 24 24 28
1 0 0 0 0 8 24 11 0 18 67 69 68 29 36 52
21 8 0 0 1 0 1 30 78 72 67 14 15 15 16 19
25 20 13 4 2 0 9 11 54 4 11 4 9 4 0 0
0 0 42 76 30 0 0 0 4 2 2 2 32 61 57 57
62 57 59 62 59 55 52 53 46 23 16 20 20 18 11 8
40 36 23 20 9 8 0 0 5 2 1 24 5 3 5 1
0 7 38 41 28 20 14 6 0 0 5 0 17 38 38 35
35 38 40 41 31 24 24 23 23 23 23 22 22 24 24 28
0 0 0 0 0 14 46 26 2 18 71 71 71 50 46 44
49 11 3 14 39 8 1 32 76 70 66 13 0 0 1 10
11 9 30 28 34 40 43 31 59 23 20 14 13 8 4 0
0 4 50 75 40 8 0 11 8 3 0 0 27 71 62 21
26 35 39 41 44 44 51 43 47 39 31 39 37 40 46 47
50 32 23 20 5 1 0 1 0 1 2 47 52 39 35 32
24 13 40 43 23 27 31 34 33 29 26 23 32 41 38 36
35 39 43 43 34 24 25 25 23 23 23 23 23 24 24 28
0 0 0 0 0 13 39 28 6 16 71 71 71 45 12 30
31 6 24 29 53 31 5 32 75 70 66 14 3 0 0 9
13 12 50 46 41 56 61 54 44 6 10 17 25 25 23 11
8 14 52 74 41 12 1 5 13 33 17 7 25 69 59 35
35 29 30 26 25 23 20 16 15 12 9 10 9 8 17 27
36 27 23 22 2 0 0 0 0 0 1 49 57 43 50 51
55 52 53 40 13 14 15 13 13 13 15 20 26 24 23 29
31 34 36 37 33 24 25 24 24 24 24 23 24 24 24 28
0 0 0 0 0 10 33 28 10 16 72 72 70 17 0 1
10 19 17 22 37 14 1 32 74 71 68 14 2 0 3 9
8 20 50 48 47 62 68 63 50 1 0 0 13 28 33 14
11 35 64 71 40 26 41 11 34 22 12 3 24 64 57 29
24 20 16 17 20 14 13 11 9 8 10 11 6 6 9 7
1 3 8 15 17 9 4 1 0 0 1 49 47 47 52 54
58 53 42 34 15 16 14 13 12 10 9 7 5 5 6 8
11 26 24 19 22 25 25 24 24 24 24 23 24 24 24 28
0 3 1 0 10 3 30 37 29 18 73 72 69 9 9 36
14 9 17 11 3 4 1 34 76 71 70 15 1 1 6 3
2 16 43 42 49 73 78 69 55 3 0 0 2 18 23 14
24 40 71 72 34 43 43 28 27 25 21 3 29 62 51 22
18 18 15 19 16 15 11 8 10 11 12 8 6 10 11 4
3 2 4 3 11 29 44 41 32 24 19 48 37 47 53 54
58 55 48 39 19 18 15 12 10 10 8 8 7 6 7 6
9 26 18 24 24 25 26 25 25 24 24 24 24 25 25 29
0 11 10 5 13 10 24 38 42 20 73 73 69 8 5 13
0 0 0 1 1 0 1 35 76 73 71 15 3 12 8 0
4 14 24 36 49 77 80 74 62 3 0 2 19 23 20 20
26 50 76 74 26 26 17 6 23 47 31 14 36 51 32 20
16 14 19 18 18 14 9 13 16 9 7 7 8 12 8 4
4 3 1 0 4 11 18 38 52 55 57 55 25 36 52 62
57 54 48 44 22 17 14 9 8 7 8 8 9 8 9 9
13 27 6 15 30 27 27 16 19 25 25 24 24 26 24 28
0 1 0 8 12 6 17 22 24 18 72 72 68 7 0 0
0 1 1 1 0 0 0 36 78 74 72 17 0 0 9 0
8 11 0 22 48 76 78 73 63 4 0 5 36 58 54 65
64 62 73 76 53 40 33 32 36 38 30 31 32 28 25 20
13 22 21 19 16 13 19 18 13 7 11 13 17 13 9 9
6 4 5 6 15 15 11 15 29 50 56 51 20 96 142 145
122 78 45 45 21 15 11 1 0 0 2 11 11 6 7 11
14 30 36 34 35 34 33 14 11 25 24 24 24 23 18 25
0 0 0 8 27 7 2 6 3 18 74 73 68 8 0 0
0 1 1 1 0 1 0 37 75 72 71 17 0 2 8 4
12 17 8 25 42 73 74 71 63 4 0 2 15 56 34 62
61 12 39 75 68 54 37 66 66 44 31 33 28 21 27 22
22 29 25 23 21 25 24 13 12 16 13 15 13 13 13 12
9 12 15 14 9 12 12 9 15 26 45 48 72 145 145 145
145 144 138 92 24 14 12 2 0 0 0 1 1 0 0 0
2 30 35 21 22 19 26 30 29 25 24 24 24 12 4 22
0 0 0 10 48 13 0 1 1 20 78 72 70 64 63 57
50 43 36 30 25 19 15 43 75 71 70 18 0 4 6 2
4 9 8 12 32 72 72 70 64 5 0 3 43 54 42 50
42 8 19 71 63 52 16 62 67 44 32 30 27 24 35 36
38 40 35 36 37 36 23 18 27 24 22 19 19 13 15 14
14 15 13 11 15 13 7 5 10 11 23 48 109 138 140 144
145 144 144 143 76 14 8 1 0 4 3 0 0 0 0 0
0 28 37 21 18 25 21 23 25 25 25 24 24 17 9 23
1 0 0 17 45 20 0 0 0 20 64 50 63 75 82 79
75 72 69 68 72 72 71 72 73 70 69 19 0 0 0 1
1 1 2 1 29 70 72 71 64 6 0 1 31 67 65 44
44 14 11 65 56 41 4 50 58 30 27 31 34 47 65 66
65 61 56 60 59 46 42 40 40 30 30 26 23 21 23 19
12 14 19 21 14 9 6 2 7 9 9 23 70 93 112 134
144 144 143 143 124 11 0 0 0 6 8 2 0 0 0 0
0 29 38 19 12 28 24 20 24 24 25 24 24 24 17 25
55 5 0 24 36 22 0 0 0 14 44 54 62 69 83 82
78 77 74 73 76 75 76 76 73 70 67 19 28 30 29 28
26 25 24 15 38 69 70 75 71 51 50 46 25 32 59 68
64 46 18 54 50 33 0 37 55 21 25 41 66 85 99 98
93 93 94 89 80 65 64 56 52 46 45 41 37 31 31 22
18 25 25 16 14 9 3 4 9 5 8 14 30 58 104 116
128 142 144 144 140 29 0 0 0 0 9 11 3 0 0 0
0 28 40 19 8 14 13 18 22 25 24 24 24 23 20 23
68 22 0 26 32 20 0 0 4 32 43 57 65 76 76 72
72 68 69 73 71 73 77 78 77 76 75 56 69 70 71 74
71 61 62 66 70 71 74 76 68 62 72 67 58 26 10 31
43 32 10 13 19 41 21 15 38 22 47 83 102 110 116 118
117 112 114 106 98 96 84 71 68 64 56 51 51 47 40 33
35 25 20 20 11 6 4 5 8 4 7 12 18 33 111 134
130 132 141 143 143 63 0 0 0 5 9 13 10 4 0 0
0 27 40 22 12 14 14 16 22 24 24 24 24 23 21 21
58 56 35 46 47 35 23 17 24 41 45 57 62 68 65 69
73 69 71 55 34 41 54 64 66 68 74 76 61 74 76 81
67 56 60 68 75 68 77 78 77 76 70 43 57 73 36 1
0 0 2 2 0 8 30 23 27 59 94 113 124 129 127 130
129 123 123 122 113 104 94 84 75 74 68 67 64 61 61 50
31 24 22 19 14 12 8 9 10 10 10 6 10 25 124 138
142 143 142 133 142 92 0 0 0 17 17 17 9 5 0 0
0 25 40 25 17 11 5 14 21 24 24 24 25 24 21 20
34 75 66 65 64 74 76 61 13 4 12 16 14 17 19 17
17 18 64 43 3 6 0 17 37 12 55 76 80 75 72 77
64 63 67 73 79 83 83 83 81 80 73 29 49 78 68 20
8 0 5 10 0 0 0 23 63 98 117 130 137 136 136 141
129 127 126 123 119 108 99 91 87 84 81 76 70 71 63 49
33 31 31 19 14 13 13 11 11 6 3 4 5 16 81 144
140 143 143 132 138 91 0 0 0 8 15 13 0 0 0 0
0 23 40 27 18 6 3 7 22 25 25 25 24 24 19 21
11 73 39 18 22 28 33 32 2 0 2 1 0 1 2 0
1 2 60 49 8 22 1 13 33 9 53 76 81 72 68 67
65 67 71 77 82 85 83 85 83 83 78 26 36 79 53 12
10 0 4 17 7 15 30 59 100 118 133 144 145 144 144 143
132 131 125 117 115 110 98 92 97 96 92 87 84 78 67 49
42 35 31 25 22 14 12 14 8 5 2 3 3 9 30 117
144 143 143 142 140 53 0 2 1 0 6 9 0 0 0 0
0 19 40 25 9 1 1 5 20 25 25 25 25 24 18 24
0 57 50 1 2 0 2 22 0 0 1 1 0 2 5 0
5 4 55 59 14 28 4 12 28 40 62 77 79 24 11 24
53 49 56 63 67 69 71 74 76 78 80 32 26 79 63 8
2 0 7 58 57 56 69 102 119 126 138 145 145 145 145 144
137 134 135 128 124 123 111 104 105 104 100 96 96 85 66 54
44 41 37 36 23 21 23 17 14 9 3 7 6 3 12 59
139 143 144 129 81 12 0 0 0 0 5 14 0 0 0 0
0 17 40 20 4 4 0 7 18 25 25 25 25 23 18 26
2 32 69 18 6 2 17 26 0 0 0 2 1 1 7 1
1 6 51 64 2 1 23 38 34 71 72 79 78 18 0 17
44 10 9 10 14 16 17 16 16 19 62 45 19 77 73 56
33 26 37 63 72 69 85 122 127 136 144 145 145 145 145 144
142 139 136 135 125 123 114 114 115 115 109 103 92 82 65 52
42 39 38 36 27 29 26 19 15 11 8 5 2 1 9 14
77 144 144 97 2 0 0 0 0 0 4 16 0 0 0 0
0 11 41 16 1 2 0 14 19 24 26 26 26 24 20 27
34 30 75 40 21 5 16 24 0 0 4 13 7 0 2 0
0 7 50 67 2 0 13 47 38 70 73 78 78 19 0 10
47 11 7 10 8 15 14 7 10 9 55 69 36 75 73 73
73 72 74 73 72 67 111 130 134 141 145 144 145 144 145 144
144 144 137 137 133 123 115 113 117 115 109 99 82 72 57 55
47 40 35 30 35 31 26 18 13 9 4 3 3 3 6 5
19 117 145 92 9 5 9 0 0 1 6 18 1 1 0 0
0 5 40 15 1 0 0 4 19 24 26 25 26 22 22 27
42 45 75 54 19 4 16 23 1 2 9 9 0 0 0 0
0 0 36 72 11 11 10 15 35 62 68 79 78 21 0 8
52 10 2 11 4 15 17 9 17 19 55 72 33 71 74 73
74 74 73 73 71 81 125 134 141 144 145 145 145 145 144 145
144 145 144 143 141 135 128 123 118 113 106 94 75 69 66 59
48 40 40 37 32 30 21 20 12 10 8 4 8 6 7 2
6 52 137 89 33 33 33 27 23 22 21 22 14 11 9 9
8 13 33 19 7 6 9 0 9 24 26 25 25 20 24 27
39 46 69 70 19 0 17 31 13 13 20 22 0 0 0 0
0 0 29 76 12 9 5 7 23 50 67 80 78 21 0 8
55 11 10 12 6 12 16 15 26 26 56 75 24 67 75 75
76 75 73 39 29 87 131 136 144 144 145 145 145 145 144 144
145 144 144 144 144 143 140 129 119 109 96 90 82 72 61 51
48 46 39 36 31 23 19 18 15 8 5 9 10 6 5 2
5 9 103 68 36 38 38 36 34 34 34 32 29 25 22 19
19 21 34 30 21 18 12 8 10 24 26 26 25 19 25 28
22 37 45 73 29 0 18 32 16 23 37 26 0 11 14 3
2 6 27 79 10 0 0 3 9 45 65 79 78 21 1 7
55 9 31 8 11 11 14 8 19 16 43 74 8 56 70 71
72 73 74 58 57 108 129 138 143 145 144 145 145 144 144 144
144 144 144 144 143 143 143 138 128 111 105 99 90 65 51 50
48 47 45 39 32 27 23 15 10 12 12 10 5 4 4 5
5 2 23 36 37 39 39 39 34 36 35 34 33 34 36 31
27 26 34 43 40 40 38 34 28 23 26 26 26 20 24 28
18 26 44 67 54 2 22 32 15 23 34 26 0 4 9 8
9 8 33 80 16 0 0 1 11 48 61 78 75 20 2 3
52 8 29 4 5 5 7 5 11 37 41 75 11 3 5 7
11 14 23 50 66 116 133 142 141 144 145 145 145 144 145 145
144 144 144 144 145 144 144 139 128 118 106 96 79 59 52 52
53 56 55 46 40 29 19 16 16 14 8 4 1 2 4 4
5 4 7 20 34 39 43 45 46 40 35 35 34 41 44 42
38 37 35 29 26 26 28 28 28 24 26 26 25 22 23 28
20 26 40 62 68 11 24 34 15 25 34 28 0 1 8 3
0 7 37 82 24 0 3 4 17 24 56 76 75 18 1 1
53 14 19 3 6 5 8 14 13 39 41 75 14 0 0 0
0 0 3 40 68 119 135 142 142 144 144 145 145 145 146 145
144 145 145 144 145 145 144 140 129 117 105 88 68 66 65 59
65 65 57 51 38 29 24 21 20 14 6 4 2 2 6 4
8 5 1 10 23 33 41 49 53 39 36 32 33 44 44 41
39 39 37 31 22 18 17 16 18 24 26 26 25 20 24 29
43 59 43 49 74 31 25 34 16 24 30 29 1 2 20 2
0 14 29 81 38 13 20 7 18 19 59 75 72 15 1 0
50 24 6 2 1 3 5 3 4 27 30 73 22 1 1 1
1 2 5 44 76 123 136 139 142 145 145 145 145 146 145 145
145 144 145 144 145 144 144 143 133 116 103 92 88 86 78 81
84 66 65 51 50 40 25 25 19 9 6 6 3 3 5 8
8 7 3 7 21 27 39 46 42 40 38 33 27 37 41 39
39 40 38 35 29 25 23 22 24 25 27 26 25 19 27 29
72 76 67 73 74 55 24 37 17 23 27 30 1 0 1 0
0 3 14 79 43 5 7 4 10 3 55 73 71 13 0 0
46 37 2 2 6 26 23 14 1 3 10 67 32 2 4 4
4 7 6 45 80 123 137 140 141 145 145 146 145 145 145 145
145 144 144 145 145 144 144 144 139 120 111 108 111 106 100 88
79 74 69 67 54 38 29 29 17 13 9 5 3 6 5 9
11 9 6 8 39 27 37 35 24 28 25 27 32 29 8 2
5 11 15 21 34 28 27 29 30 31 32 27 25 19 28 29
76 78 75 74 73 64 31 38 9 12 10 8 3 3 6 9
14 19 29 80 52 1 5 3 7 5 59 74 70 9 0 0
39 32 2 2 6 27 29 18 1 2 6 62 54 33 33 27
35 33 33 57 85 124 133 138 140 144 146 145 146 145 146 147
146 145 145 144 145 145 145 145 145 144 134 120 117 107 97 84
87 92 81 66 50 41 29 24 17 16 9 5 5 5 9 13
7 7 8 7 29 27 34 26 6 3 8 13 35 32 4 0
0 0 6 13 27 21 24 27 30 34 36 30 26 20 28 30
76 74 72 69 50 14 23 64 52 57 61 64 68 73 77 80
83 85 85 87 67 27 31 28 26 24 66 75 72 8 0 0
30 36 2 2 4 20 26 16 2 2 5 55 73 61 65 56
69 67 68 75 87 123 132 135 140 143 146 146 145 145 145 145
145 145 145 145 144 144 144 144 145 144 143 137 128 115 106 106
101 86 76 72 61 40 33 32 22 15 12 10 9 6 13 11
6 7 7 9 19 16 25 24 6 0 1 14 37 34 5 0
0 0 4 13 18 0 0 0 0 3 35 30 24 21 28 29
74 70 58 23 2 0 19 82 83 83 83 84 85 87 87 86
88 88 87 88 82 63 75 76 76 76 78 61 61 27 14 13
29 53 14 13 13 14 14 14 14 12 13 48 77 52 64 67
67 67 73 78 91 124 131 135 136 142 144 145 144 144 144 145
144 144 137 137 139 144 145 144 145 144 144 143 143 139 135 125
111 100 94 71 61 50 41 28 19 22 14 11 14 9 15 7
5 4 8 11 29 24 13 16 6 0 0 8 36 33 5 0
0 0 2 10 19 0 7 7 0 0 33 31 23 23 28 29
70 53 25 19 18 17 29 83 85 85 85 86 87 88 89 88
88 87 87 85 76 35 42 43 46 49 68 71 78 71 74 71
62 85 82 75 79 81 78 70 71 81 80 83 79 25 28 35
41 48 56 70 95 125 131 133 137 140 141 138 122 86 58 41
29 22 20 33 53 73 118 143 145 145 144 145 145 144 140 125
113 103 83 71 60 48 44 30 26 18 16 19 13 15 12 5
4 8 7 9 25 39 20 13 7 0 0 8 36 31 6 0
0 0 0 9 22 0 3 5 0 0 31 32 22 26 28 30
63 65 73 73 71 69 68 85 86 85 84 83 81 77 74 68
53 32 25 19 11 1 3 1 2 7 58 77 82 73 79 76
65 85 91 84 86 88 84 84 84 88 88 88 84 18 1 0
3 13 17 53 94 121 131 134 140 131 94 34 9 6 5 4
4 5 15 61 86 48 31 45 79 117 143 145 145 145 144 138
124 105 82 65 59 57 43 37 26 21 22 18 13 18 15 4
6 12 8 8 20 32 23 16 9 0 0 7 37 29 5 0
0 0 0 5 25 0 2 2 0 0 31 31 21 27 27 30
69 67 62 62 63 63 64 67 63 50 65 64 64 62 59 59
30 0 0 0 1 7 16 2 4 8 58 78 83 84 80 75
65 79 93 90 90 87 77 78 79 86 90 88 87 34 0 0
6 14 15 42 46 100 125 134 138 94 11 3 3 0 0 0
0 2 10 54 27 27 19 32 30 28 41 81 125 145 144 141
128 109 94 80 62 51 47 31 29 30 26 17 22 23 11 7
13 17 14 8 14 22 20 16 10 0 0 8 40 28 8 0
0 0 0 3 28 0 2 3 1 0 29 31 22 26 28 29
69 66 61 63 66 54 66 67 65 63 65 65 64 64 60 60
32 0 0 0 0 10 23 4 5 8 56 79 81 79 78 72
63 59 66 64 64 64 63 63 63 58 44 39 38 19 1 5
9 5 2 3 10 48 114 127 126 19 4 4 2 0 0 0
0 1 8 39 19 18 17 17 20 23 24 27 28 44 80 110
125 116 98 76 64 54 49 40 37 39 28 27 33 21 13 16
19 21 20 10 10 11 11 21 8 0 0 2 39 29 10 0
0 0 0 2 31 0 0 0 0 0 28 30 21 27 28 29
57 56 56 55 56 54 56 57 56 56 57 62 65 63 61 60
32 0 0 0 0 0 3 4 5 12 55 80 78 65 63 53
46 41 48 43 48 47 42 34 57 47 14 8 8 4 8 7
2 6 6 2 1 11 70 129 67 0 5 1 1 0 0 0
0 1 7 52 39 40 37 29 30 52 56 40 27 21 21 21
33 63 73 69 72 57 47 47 48 45 35 38 29 29 25 25
23 25 27 20 10 17 10 23 8 0 0 0 37 29 7 0
0 0 0 0 33 1 0 0 0 0 26 29 21 27 28 29
56 55 55 55 54 53 53 53 52 51 51 50 48 60 63 62
34 0 0 0 0 3 5 5 6 13 53 80 78 60 21 7
0 0 14 25 32 26 10 7 53 47 13 8 8 4 7 3
5 11 5 1 0 3 23 79 12 4 5 2 0 0 0 0
4 6 8 53 89 106 114 110 113 129 132 125 111 89 50 22
15 16 18 32 40 40 49 50 47 41 38 34 29 26 28 27
24 26 29 26 13 21 18 21 14 2 0 0 37 29 11 0
0 0 0 0 35 2 0 0 0 0 26 27 20 26 27 29
55 56 55 55 53 53 53 52 51 50 48 15 0 44 66 64
34 0 0 0 1 6 16 28 8 15 52 79 77 57 19 2
0 2 9 20 27 7 0 4 55 46 16 7 9 5 6 1
12 10 4 1 0 1 7 43 14 12 4 1 0 0 0 1
5 10 11 54 87 107 116 119 131 145 145 145 145 145 141 109
61 24 10 10 11 14 30 37 33 33 42 36 26 25 23 22
27 31 33 30 16 16 23 24 21 20 16 17 41 30 32 34
34 33 36 37 43 9 5 4 3 3 25 26 20 26 27 29
42 43 45 45 46 45 46 46 48 50 49 15 0 33 63 63
34 0 0 2 34 23 32 48 13 14 50 81 78 56 25 12
13 17 18 9 29 10 1 3 56 47 17 4 4 0 0 0
16 9 4 0 0 1 5 29 17 11 2 0 0 0 0 0
2 8 14 59 92 102 111 116 125 145 145 144 144 145 145 138
117 76 41 29 9 8 27 40 52 118 135 101 36 27 26 25
21 28 43 32 22 17 29 27 24 38 45 48 50 33 31 38
40 41 47 50 49 32 29 29 28 28 28 25 22 25 27 28
2 2 3 3 4 5 7 9 15 48 49 15 0 24 61 55
43 21 20 30 58 51 62 67 31 18 50 79 76 55 31 22
23 23 14 12 32 11 0 4 57 47 20 6 1 0 1 10
17 6 1 0 0 0 24 67 14 3 0 0 0 0 0 0
3 7 10 54 92 104 105 103 124 144 145 144 144 144 144 128
103 84 77 50 16 17 59 73 129 145 144 142 97 23 23 30
25 34 33 37 20 12 29 36 24 35 45 49 50 39 27 35
38 41 46 49 48 29 25 25 25 24 25 25 24 23 26 26
0 0 0 0 0 0 0 0 3 47 50 16 0 20 61 50
51 51 55 45 56 63 70 70 65 64 67 75 72 52 29 21
26 19 2 7 28 14 4 6 60 47 32 29 7 0 0 14
16 3 0 0 0 3 82 118 26 2 0 0 0 0 0 0
6 9 15 43 91 104 108 110 125 144 145 145 145 145 144 134
109 88 59 47 44 51 119 136 144 144 135 89 131 37 19 27
22 29 25 24 25 10 20 33 30 32 28 30 32 32 23 25
29 30 27 23 24 27 27 27 27 26 25 25 24 24 22 22
0 0 0 0 0 0 0 0 2 47 50 19 1 18 60 55
56 57 61 55 62 67 73 72 71 70 68 74 72 51 29 16
23 14 3 9 21 21 5 5 58 46 39 31 9 0 0 15
8 2 0 0 0 31 120 126 45 6 2 0 0 0 0 1
6 9 12 34 97 105 108 117 134 145 145 145 144 145 145 128
103 97 76 68 64 99 142 144 129 138 145 138 128 76 21 24
22 18 21 15 23 22 15 22 26 28 23 24 25 28 28 30
31 31 30 26 25 27 28 27 27 27 27 26 25 25 26 28
0 0 0 0 0 0 0 0 1 46 50 20 1 16 58 58
54 49 62 60 60 69 75 77 75 73 69 73 73 51 24 1
2 7 6 18 14 5 7 5 55 45 38 14 3 0 0 18
8 1 0 0 1 84 138 131 67 10 9 1 0 0 0 1
3 6 9 30 98 112 119 125 141 145 145 145 145 145 144 138
105 83 72 72 98 126 144 143 127 143 144 143 133 102 24 23
21 15 16 11 19 19 26 19 27 30 30 31 31 35 36 37
42 41 38 28 27 27 28 28 27 27 26 26 25 24 26 28
0 0 0 0 0 0 0 0 1 46 51 20 1 15 55 59
57 46 48 45 54 68 75 78 76 75 71 75 73 51 18 0
0 0 4 19 14 0 1 3 54 45 47 32 30 23 17 18
8 2 0 0 27 131 145 139 83 12 22 4 1 0 0 0
1 4 8 34 106 117 125 130 144 145 144 145 145 145 144 137
121 99 90 111 131 137 136 128 144 144 144 140 131 101 29 23
14 14 17 10 13 14 21 29 21 29 38 32 24 22 23 25
30 39 41 29 28 27 28 28 27 27 26 25 25 25 26 28
0 0 0 0 0 0 0 0 1 46 51 22 2 8 50 44
33 36 44 47 41 38 42 48 65 75 71 78 73 51 18 6
3 2 3 18 12 1 0 3 48 44 67 71 74 72 69 36
4 3 2 5 83 144 146 146 116 26 37 32 5 0 0 0
0 5 8 48 114 122 128 138 145 145 145 145 145 145 143 142
135 127 127 141 144 144 117 65 117 145 144 134 134 73 33 26
15 20 10 15 15 13 15 37 25 28 31 20 1 0 0 0
1 31 42 30 29 28 28 27 27 26 26 25 25 24 25 26
0 0 0 0 0 0 0 0 1 47 52 33 31 2 41 32
5 13 25 30 25 19 9 15 28 70 73 78 74 61 32 14
17 1 3 7 7 0 0 4 53 46 70 75 79 68 57 46
2 6 6 37 131 147 146 145 140 66 28 72 33 0 0 0
1 4 11 84 118 130 140 145 144 145 145 144 145 145 143 144
142 137 143 144 145 144 143 103 113 140 144 129 130 34 24 33
16 20 12 16 12 9 7 24 34 23 28 23 3 0 0 0
0 26 41 30 29 29 28 28 27 26 26 25 25 25 26 27
0 0 0 0 0 0 0 0 0 46 52 37 23 0 35 31
0 0 0 3 7 4 11 22 41 74 74 74 72 66 44 13
12 2 1 0 1 0 0 4 59 50 73 77 77 52 30 21
2 8 28 107 140 146 146 145 145 126 36 53 61 0 0 0
1 6 39 117 128 138 145 145 145 145 145 144 144 145 144 143
143 140 144 143 144 138 143 139 139 141 143 131 106 14 23 27
20 20 12 13 12 6 4 14 43 21 31 26 9 0 0 0
0 21 41 29 29 28 28 28 27 26 25 25 25 25 25 27
0 0 0 0 0 0 0 0 0 45 51 27 0 0 31 33
0 0 0 5 12 0 0 0 12 70 74 74 72 73 48 1
5 2 1 0 2 2 6 37 68 57 38 40 38 27 12 16
5 10 103 141 146 146 146 146 145 144 121 38 35 5 9 5
6 33 101 122 136 144 145 145 145 145 145 144 145 144 144 141
141 143 143 144 144 135 138 144 142 142 143 129 55 18 22 18
23 24 11 14 14 8 4 11 35 31 28 27 13 4 0 0
0 16 41 29 29 27 27 27 26 25 25 25 24 24 25 26
0 0 0 0 0 0 0 0 0 44 52 24 0 0 26 37
0 0 0 0 11 0 0 0 4 68 67 65 65 69 56 32
37 42 44 48 52 55 60 64 64 67 34 23 21 9 12 14
10 37 139 146 146 146 146 146 145 137 142 126 76 53 47 58
80 110 125 137 144 144 144 144 144 144 144 144 144 144 143 140
140 143 144 143 143 143 136 142 143 141 140 116 20 19 20 14
26 19 19 13 11 10 5 5 23 44 32 25 21 3 1 0
0 14 40 28 27 27 27 26 26 25 24 24 24 25 25 26
0 0 0 0 0 0 0 0 0 42 51 27 3 5 27 44
1 0 0 6 17 1 0 0 3 64 60 50 52 65 68 68
70 70 71 72 75 74 74 72 73 72 52 21 23 4 13 1
0 30 136 142 140 145 145 145 145 137 134 142 136 138 142 144
144 144 144 144 144 143 144 144 144 144 143 143 143 143 143 142
138 143 143 143 142 143 141 142 142 141 139 81 19 16 13 20
20 24 22 17 12 9 7 4 15 42 19 30 21 6 2 1
0 12 39 28 27 27 27 26 26 26 25 24 24 23 24 25
0 0 0 0 0 0 0 0 0 41 51 46 45 50 54 49
6 0 0 2 12 0 6 9 2 61 31 1 8 45 69 69
70 71 73 74 70 75 76 74 76 64 60 23 25 6 14 1
0 7 85 137 121 102 142 146 145 141 138 144 145 144 145 145
144 144 144 144 143 143 143 143 144 144 144 143 143 143 144 142
141 143 143 143 138 141 142 142 142 141 130 30 18 16 9 27
24 29 30 22 14 12 11 4 8 34 16 11 18 8 5 6
0 10 38 28 27 26 26 26 25 26 24 24 24 23 24 25
0 0 0 0 0 0 0 0 0 39 50 51 55 55 57 54
7 0 0 0 0 0 11 24 5 60 26 0 0 36 70 71
75 74 73 67 69 74 75 73 53 17 43 34 30 7 16 7
7 4 25 88 129 118 127 143 145 142 144 144 144 145 144 145
145 144 144 144 144 143 144 143 144 144 143 143 143 143 142 142
142 143 143 143 143 142 143 142 142 140 69 14 18 9 12 32
27 34 38 25 17 14 14 7 2 26 16 5 9 15 13 5
0 8 37 27 27 27 26 26 26 25 25 24 24 23 23 23
0 0 0 0 0 0 0 0 0 38 50 50 55 57 59 56
12 3 1 0 0 0 3 12 24 62 39 20 19 33 39 41
51 58 60 61 62 65 65 58 11 0 16 42 33 3 11 3
4 3 14 46 113 138 146 142 137 141 145 144 144 144 144 144
144 143 143 143 143 142 142 143 143 143 143 143 143 143 143 142
142 142 143 142 133 141 142 141 141 94 8 20 17 8 14 24
23 34 38 28 17 13 17 9 0 13 19 8 8 12 11 8
1 8 32 25 26 25 26 25 25 24 24 23 23 23 22 20
0 0 0 0 0 0 0 0 0 37 50 44 43 53 50 48
33 33 36 19 22 25 27 34 42 60 47 40 51 43 42 42
41 42 58 51 50 48 38 33 20 16 20 32 30 24 30 37
44 18 3 49 123 135 146 144 145 145 144 144 145 144 144 144
143 143 144 143 143 143 143 142 143 143 143 144 143 144 143 142
143 142 141 143 124 139 142 137 83 11 5 21 14 20 19 24
23 26 41 28 16 16 21 20 3 9 19 15 17 22 19 22
21 21 22 24 27 26 26 25 25 24 24 23 23 22 22 20
0 0 0 0 0 0 0 0 0 36 51 43 33 30 23 23
25 25 36 59 72 74 74 73 75 77 76 76 76 76 76 77
76 72 65 56 49 44 36 37 36 36 39 41 39 45 48 52
54 53 18 54 129 139 145 145 144 145 145 144 144 144 144 144
143 144 144 144 144 143 143 143 143 143 143 144 144 142 143 142
142 142 130 142 142 141 135 64 11 6 5 20 8 25 29 34
31 25 34 25 14 21 23 25 15 8 21 28 29 32 23 22
21 20 22 25 26 26 26 25 25 24 24 23 23 22 21 20
0 0 0 0 0 0 0 0 0 36 51 42 28 20 10 11
16 24 26 28 45 71 80 81 81 81 81 80 80 79 77 75
74 72 71 68 59 45 46 41 39 40 38 41 45 47 57 69
68 66 52 71 134 141 146 145 145 145 145 145 145 144 144 144
145 145 144 144 143 143 143 143 144 144 143 143 143 143 143 141
142 140 96 122 134 124 87 24 13 4 7 19 10 19 28 34
38 33 32 23 17 20 21 22 20 10 23 30 25 29 27 28
26 25 25 26 26 26 26 25 25 25 24 24 23 23 22 21
0 0 0 0 0 0 0 0 0 36 51 38 12 17 23 25
23 24 30 33 35 39 63 73 64 58 55 52 56 59 59 61
62 62 64 65 63 57 57 57 57 58 58 58 59 58 58 59
58 57 54 84 121 133 144 146 146 146 146 146 145 146 145 145
146 145 145 144 144 144 145 144 144 144 144 144 144 144 144 142
141 135 92 77 98 92 65 21 12 10 9 15 15 20 28 31
33 37 30 22 21 19 20 25 22 16 31 28 21 29 28 28
28 28 27 27 27 27 27 26 26 25 25 24 24 23 23 21
0 0 0 0 0 0 0 0 0 36 52 36 3 8 13 28
24 17 21 28 34 38 52 58 56 56 56 56 55 56 55 54
53 52 51 49 48 47 46 44 43 41 41 40 40 41 39 39
39 35 27 69 100 105 111 131 147 147 146 146 147 146 146 146
146 146 145 145 145 145 145 145 145 145 145 145 145 145 145 144
139 135 124 104 102 106 61 31 15 22 15 26 21 25 33 32
32 32 27 23 25 20 21 24 23 28 41 34 31 23 29 26
30 30 28 27 28 27 26 27 26 26 25 24 24 24 23 22
0 0 0 0 0 0 0 0 0 35 52 37 0 0 1 14
19 20 23 24 30 36 35 37 38 40 37 37 37 38 39 42
41 42 42 42 43 40 42 47 48 42 41 40 39 39 38 41
47 37 11 52 75 90 87 91 114 140 143 146 148 147 147 147
147 147 146 146 147 146 146 145 145 145 146 145 146 145 145 144
137 135 120 115 107 96 50 23 16 30 16 33 25 31 35 40
36 38 31 31 24 21 25 19 22 31 39 26 12 15 25 26
31 29 29 28 27 28 27 26 27 26 25 25 25 23 21 21
0 0 0 0 0 0 0 0 0 33 53 39 2 0 5 11
19 21 23 26 34 53 43 39 37 36 44 38 33 33 33 43
35 38 49 35 30 29 33 54 52 32 27 28 28 28 29 36
38 35 34 45 72 81 96 100 97 102 112 128 147 147 147 147
147 147 147 146 145 145 146 145 145 144 145 146 145 146 144 144
139 135 109 119 103 82 42 17 19 26 19 27 21 23 23 32
38 43 34 30 30 20 20 22 19 24 36 22 3 9 23 25
28 27 27 27 27 26 26 25 26 26 25 25 23 23 21 21
0 0 0 0 0 0 0 0 0 31 52 40 2 1 8 10
18 20 23 25 33 52 34 30 27 23 41 30 23 26 32 44
44 47 52 38 29 29 34 56 54 35 31 32 34 34 34 40
49 41 18 22 92 108 127 138 131 119 122 125 136 146 147 146
146 146 146 146 146 145 146 145 145 145 145 146 145 144 144 141
138 128 104 115 93 67 33 18 20 26 25 21 13 16 15 21
35 34 31 30 33 27 18 19 18 18 22 27 9 9 23 24
26 27 26 26 26 26 26 25 25 25 25 24 24 22 21 17
0 0 0 0 0 0 0 0 0 30 51 40 3 4 8 8
16 19 22 25 32 51 32 28 27 23 40 30 23 25 31 45
48 49 51 45 43 44 47 53 52 48 48 49 50 51 51 53
52 45 16 17 93 110 126 138 143 145 145 143 137 142 146 146
147 146 146 145 146 145 145 145 145 145 145 145 145 144 143 135
134 122 102 109 83 55 32 18 23 25 27 17 16 15 16 18
30 27 30 31 29 26 17 14 16 15 15 19 20 16 23 25
23 26 29 26 26 25 25 25 24 24 24 24 23 21 20 18
0 0 0 0 0 0 0 0 0 28 51 40 2 6 6 8
16 19 22 24 32 51 33 29 26 22 40 30 21 23 31 47
56 56 55 56 56 56 56 55 55 55 55 56 55 55 55 55
52 44 17 14 71 90 112 130 143 140 144 143 146 144 146 147
146 146 146 146 145 145 145 146 145 145 145 144 144 143 138 131
129 116 95 101 72 50 31 22 23 27 26 12 19 16 16 10
28 18 26 18 23 17 10 7 9 14 17 15 23 21 23 26
23 25 29 27 25 25 25 24 24 24 24 23 23 20 18 20
1 1 2 2 3 4 4 5 6 33 50 41 3 6 4 8
16 19 22 24 31 51 33 29 23 20 39 31 21 23 30 46
56 56 57 56 57 56 56 55 55 55 55 55 55 55 55 53
54 46 16 11 30 88 98 108 122 132 142 145 146 146 145 146
146 146 146 146 144 144 144 144 145 144 145 144 143 136 134 126
129 114 88 82 66 45 24 24 22 21 12 15 17 12 12 5
20 16 24 11 18 9 7 8 11 12 13 12 20 18 28 21
20 23 26 26 26 25 24 24 24 23 23 22 21 21 18 23
50 50 50 50 50 50 50 50 49 50 49 42 4 5 3 6
16 18 21 23 31 51 33 28 23 18 36 31 20 22 29 45
56 56 57 56 57 56 55 54 55 55 55 54 54 55 54 52
53 45 15 11 12 79 110 111 128 141 145 145 146 146 146 146
146 146 145 144 145 144 145 144 145 144 144 141 134 124 122 128
134 107 83 73 60 42 27 28 17 16 8 17 15 9 9 7
12 18 17 10 8 7 10 8 4 4 14 12 14 10 25 20
21 28 28 28 27 23 24 23 23 23 22 21 20 18 18 22
52 53 52 52 51 51 50 50 49 47 49 43 4 4 2 6
15 18 21 23 30 50 32 26 22 22 37 31 22 24 30 45
54 54 54 54 54 54 54 52 52 52 51 50 49 48 46 42
43 35 14 10 12 68 121 125 140 147 146 146 146 146 146 146
145 145 145 145 145 144 144 144 144 141 135 130 122 119 120 133
132 101 84 74 57 39 29 28 21 23 14 18 18 9 9 13
17 22 16 13 10 5 10 5 2 1 7 12 12 8 20 23
24 30 29 24 25 23 23 22 22 23 20 12 14 15 21 21
52 52 52 52 52 51 51 50 50 45 50 43 4 3 0 3
12 15 19 21 28 48 40 37 35 36 41 40 38 40 43 47
50 50 48 48 47 46 46 44 43 42 43 41 40 39 38 36
38 29 11 9 15 74 126 135 147 146 146 146 146 146 146 146
146 145 145 145 145 143 142 139 133 126 119 113 111 115 124 136
123 98 86 77 57 36 30 28 27 27 15 22 17 13 13 14
22 30 21 25 16 10 14 11 10 6 20 19 11 5 12 21
23 29 25 22 23 24 22 21 20 20 20 16 10 12 17 20
52 52 52 51 52 51 51 50 50 49 49 43 5 4 2 3
11 13 15 18 23 42 42 41 40 40 40 39 40 40 41 41
41 42 43 43 45 46 48 50 52 47 38 38 37 37 36 41
44 33 11 13 20 86 129 140 147 146 146 146 145 145 146 144
145 144 144 143 140 132 124 120 111 106 104 104 109 119 132 135
123 105 88 81 54 34 32 25 15 17 18 23 15 18 17 16
28 32 28 24 23 16 18 14 19 11 21 14 15 8 9 18
17 23 23 23 22 24 22 19 18 19 24 24 19 21 25 29
42 42 42 41 41 41 40 39 40 39 40 31 1 4 1 5
14 17 18 20 28 44 41 40 40 39 42 38 37 36 36 43
40 71 80 81 83 86 87 88 90 75 27 26 26 26 26 38
32 28 15 17 29 77 126 135 145 146 146 146 146 145 146 145
144 141 137 131 120 109 102 93 91 93 100 107 117 129 138 141
129 106 93 79 48 32 34 23 12 18 19 26 17 28 31 24
32 21 32 20 21 29 24 20 23 10 14 9 15 12 15 19
11 15 20 20 22 21 21 19 18 19 27 26 24 18 13 5
46 46 47 48 48 48 48 42 44 45 47 39 2 3 1 5
14 16 19 22 34 48 33 30 29 27 44 26 24 27 32 44
38 74 95 94 94 94 94 94 94 88 33 30 31 30 29 39
40 33 19 14 26 53 117 125 143 145 146 145 146 146 145 141
133 122 110 99 86 80 81 86 94 103 110 119 130 139 143 141
122 101 93 72 46 33 36 19 16 26 17 24 23 41 36 36
26 17 28 16 21 33 26 21 20 7 6 10 22 19 16 12
11 18 20 17 22 21 19 17 17 18 18 24 34 25 11 5
50 50 50 50 49 49 47 41 39 39 42 34 2 3 1 5
14 16 19 22 34 47 28 26 23 23 43 23 23 25 32 46
46 59 95 96 95 94 94 93 92 89 51 41 45 45 44 48
48 37 17 11 13 24 93 115 127 139 141 141 138 132 120 108
97 84 76 74 78 81 90 100 108 116 123 135 141 144 144 134
114 105 93 70 45 34 32 15 20 22 13 32 30 39 34 31
14 17 24 14 30 37 26 18 15 2 5 13 21 32 12 8
13 15 18 14 21 20 19 18 17 17 18 13 23 19 15 8
23 23 23 20 13 11 12 5 6 3 3 2 0 2 1 5
14 16 19 21 33 47 27 25 24 23 43 23 21 25 31 48
49 45 69 65 63 60 57 56 55 54 51 53 53 52 52 53
51 37 8 7 8 14 33 75 93 99 101 102 96 82 67 59
63 68 79 82 88 94 102 112 119 127 137 143 145 145 144 131
116 106 98 72 44 36 28 11 18 12 11 36 33 29 20 18
10 11 15 11 25 37 29 16 9 1 1 10 19 25 8 4
9 9 12 14 19 21 21 19 17 18 18 14 16 15 16 10
11 11 13 17 6 3 9 0 1 0 0 0 0 4 4 9
14 15 18 22 32 48 28 24 24 23 43 24 20 23 31 50
54 52 51 49 49 48 49 50 52 51 53 53 54 54 53 52
50 34 9 4 6 14 18 20 24 28 26 26 26 28 33 42
54 63 72 82 92 103 113 122 130 140 144 145 144 145 140 125
119 111 99 67 42 36 23 25 18 7 11 34 28 24 14 11
8 7 8 19 26 42 28 22 19 5 1 3 8 16 18 14
9 10 10 7 9 16 20 20 19 18 14 15 15 14 17 11
7 8 5 8 6 5 12 0 1 0 0 1 5 9 8 12
12 15 17 21 31 47 29 25 24 22 42 25 19 23 29 49
54 53 51 50 49 49 48 50 51 51 52 52 54 53 52 52
50 32 7 3 5 16 17 13 19 13 9 4 6 8 9 17
26 32 48 75 101 118 131 140 145 145 146 145 145 144 135 124
119 108 93 56 40 32 27 28 16 5 15 26 30 18 11 6
5 5 6 23 30 44 35 35 29 16 11 0 4 8 14 24
19 7 4 3 2 6 15 20 20 16 14 16 12 14 17 10
33 31 27 14 4 6 14 0 1 0 1 4 7 10 8 12
13 14 17 20 31 46 27 23 21 22 41 24 19 24 28 46
52 51 50 49 48 48 49 50 51 50 49 50 49 47 47 45
41 27 8 4 6 15 15 11 17 16 8 2 6 7 3 5
15 7 40 81 110 130 143 145 145 145 145 145 145 138 128 124
114 103 76 44 40 35 26 13 5 12 25 26 32 21 10 7
8 1 4 15 32 38 28 31 34 24 9 1 3 8 9 13
21 13 2 1 0 0 3 18 19 13 16 15 13 13 14 6
42 39 33 15 3 7 17 1 0 0 3 3 5 8 5 9
11 13 17 20 30 47 30 26 25 27 42 29 27 32 36 48
51 50 49 48 46 46 45 43 42 40 40 39 39 39 38 36
35 24 13 8 12 17 18 11 8 13 6 2 12 15 3 7
11 6 25 90 112 134 144 145 146 146 145 145 139 129 126 117
110 88 56 43 36 42 20 7 5 20 30 26 34 26 18 15
7 0 1 7 23 27 18 18 20 18 9 3 5 6 9 19
19 7 3 3 6 1 0 13 17 13 16 19 40 11 4 2
36 31 25 12 5 11 14 2 0 0 4 3 7 9 5 7
9 10 12 16 26 46 42 41 40 39 40 39 40 41 41 42
42 41 41 39 37 37 37 38 38 36 35 35 33 34 33 35
37 31 22 16 18 17 18 11 8 11 3 4 15 18 3 10
10 6 12 82 112 128 142 145 146 145 144 138 129 125 119 113
100 71 56 39 28 32 15 5 10 20 25 21 42 37 29 19
7 4 7 3 12 13 8 5 8 15 19 20 16 15 13 12
14 8 1 1 12 6 2 29 44 36 37 37 46 44 42 31
19 20 22 24 30 33 35 36 21 0 1 2 6 9 5 11
12 13 13 15 21 40 40 39 39 38 39 39 39 37 37 39
39 37 38 36 34 32 33 45 45 32 26 26 24 23 23 30
31 24 20 23 25 24 16 6 8 6 4 5 15 9 4 5
10 7 12 43 106 119 131 139 144 141 135 127 123 116 116 108
83 66 52 30 24 27 17 6 8 25 16 18 46 40 27 19
21 21 13 4 11 10 5 0 4 12 19 23 25 26 27 24
15 2 0 0 5 9 9 17 24 26 27 25 20 14 19 22
42 41 38 37 33 29 25 33 29 0 0 0 4 9 4 11
12 14 17 19 23 42 43 37 36 33 37 37 27 26 27 35
31 31 45 33 24 22 28 49 48 29 25 24 26 25 25 34
37 24 17 17 19 20 18 5 10 2 6 6 17 10 1 8
8 12 11 9 83 106 118 126 130 131 128 121 116 114 115 91
80 61 45 30 26 34 19 5 7 17 10 19 34 32 14 22
25 22 9 11 20 19 10 3 0 6 17 26 28 29 28 27
27 21 5 0 2 17 13 0 0 0 0 0 1 1 1 1
6 5 4 2 2 1 0 14 31 0 0 0 1 9 4 11
12 13 17 19 23 44 37 26 24 21 31 34 20 22 26 37
41 43 46 35 25 27 31 49 50 36 33 35 37 39 40 43
43 31 9 3 9 18 12 13 12 3 8 11 16 7 1 13
9 10 14 4 44 100 107 119 126 125 121 115 111 112 105 83
65 51 45 35 30 37 29 8 16 7 13 25 24 19 7 26
20 18 17 22 32 33 19 7 4 10 20 22 26 30 30 30
32 31 25 9 1 13 13 1 0 0 0 0 0 0 0 0
0 1 2 2 4 4 5 10 25 0 0 0 1 7 3 9
11 13 16 19 23 43 35 26 23 20 30 34 20 21 25 36
43 45 45 44 44 46 48 48 49 48 48 49 48 49 48 47
47 24 0 3 7 12 14 13 12 6 10 8 8 2 4 12
12 11 17 6 17 90 109 116 120 121 116 111 111 112 92 74
54 51 41 32 29 39 27 14 12 6 23 22 17 10 8 22
13 18 22 17 25 34 28 7 7 18 25 26 24 24 32 31
33 32 31 26 5 8 11 6 5 4 3 1 1 0 0 0
1 1 1 1 0 1 1 2 21 0 0 0 2 5 4 10
10 13 16 19 22 42 36 25 23 21 29 34 18 19 24 37
50 50 50 50 51 51 52 50 50 50 50 50 51 51 52 51
49 28 11 13 13 8 10 9 10 5 7 2 2 2 5 10
16 11 14 8 17 59 108 114 118 117 111 110 113 112 87 65
66 48 40 29 25 26 17 14 10 10 29 20 12 6 12 16
21 17 23 12 10 9 8 8 20 25 25 27 28 26 26 33
34 34 32 32 24 18 5 7 9 9 9 9 8 8 7 5
0 0 0 0 0 0 0 5 31 0 0 0 2 2 4 9
11 13 16 19 23 41 37 26 23 21 27 33 18 21 24 36
52 51 53 54 55 45 40 39 37 37 42 58 63 63 63 61
55 41 17 14 9 8 13 12 11 15 13 6 1 2 7 7
11 10 11 4 13 23 98 110 115 117 115 114 113 109 72 68
64 46 39 27 20 19 18 13 9 24 29 16 9 9 10 8
16 8 8 3 5 1 5 19 22 24 26 28 29 27 29 35
35 35 32 31 29 21 7 9 9 13 11 14 13 11 10 8
0 0 0 0 0 0 0 1 9 1 0 0 1 0 5 8
9 12 15 18 21 40 36 24 20 16 31 46 38 33 44 52
65 64 63 64 65 52 50 52 55 56 58 62 63 63 61 53
47 34 10 14 7 9 15 15 13 30 23 5 5 3 5 8
4 7 4 5 18 7 69 108 113 115 113 110 111 98 58 64
49 47 40 28 17 20 22 11 19 30 35 16 10 34 11 3
4 2 2 1 5 3 14 23 19 22 26 29 28 27 30 33
33 35 34 32 29 27 16 11 12 13 12 11 8 6 5 4
0 0 0 0 0 0 0 0 0 0 0 0 4 9 10 11
13 11 14 18 21 39 35 24 21 11 31 43 49 54 56 56
57 61 60 62 63 61 61 64 67 67 67 68 69 70 70 63
43 15 10 13 6 12 12 11 12 32 25 6 2 1 2 3
2 4 2 4 18 12 33 97 107 110 111 109 109 72 67 59
45 46 36 23 18 22 23 29 23 28 28 9 17 40 18 2
8 1 2 10 6 11 24 22 20 22 27 29 26 28 32 33
31 33 32 33 31 28 25 15 11 7 7 4 2 3 3 2
0 0 1 1 3 4 5 8 11 10 10 14 24 29 32 33
33 27 13 14 20 35 38 31 29 16 21 36 42 48 50 40
33 41 48 52 49 46 50 72 70 66 66 68 69 67 65 60
40 9 12 11 7 14 11 10 10 22 15 1 0 0 2 1
2 4 0 2 6 6 10 81 103 108 110 111 104 69 84 53
52 44 36 24 22 18 16 26 17 28 26 18 17 24 11 2
17 17 8 10 10 17 26 18 19 23 28 24 27 26 31 34
31 34 33 30 29 28 25 21 8 2 0 0 0 2 1 0
27 32 34 37 41 39 45 44 50 51 49 44 45 46 46 46
48 48 37 11 13 21 25 26 26 21 13 23 36 42 46 49
46 42 40 37 31 27 23 24 20 17 16 18 39 56 53 51
24 7 12 12 7 12 11 10 9 13 9 3 8 5 7 11
6 5 1 0 2 2 5 54 98 105 111 111 95 75 84 63
52 40 32 21 22 14 5 14 13 26 20 15 13 3 6 0
9 22 12 7 13 24 21 17 18 22 27 20 26 26 31 30
30 32 33 31 31 28 27 23 15 1 0 0 0 0 0 0
46 49 48 48 52 49 49 50 49 51 50 49 46 49 50 48
51 51 50 26 2 10 18 23 22 20 14 15 20 27 29 25
23 21 19 19 19 18 18 16 15 15 14 14 15 19 17 13
9 7 10 12 6 12 13 11 8 12 10 3 6 15 13 7
2 1 1 1 2 2 4 26 95 104 109 105 95 80 72 69
47 39 27 18 21 11 8 11 16 20 3 1 2 0 4 0
0 9 5 5 15 26 18 17 19 23 24 22 24 24 30 28
32 31 32 32 31 30 28 25 22 7 0 0 0 0 0 0
40 41 44 45 49 50 46 51 55 57 55 57 43 48 54 56
54 55 51 51 31 30 38 37 31 24 19 16 18 19 20 22
22 21 21 20 19 19 19 18 18 17 16 15 14 12 11 12
5 9 7 9 6 12 12 10 7 9 14 6 4 3 0 4
1 1 0 1 5 5 3 19 87 99 108 109 102 92 65 73
45 43 23 12 12 6 7 10 23 8 0 0 0 0 1 0
3 10 7 11 21 28 16 16 17 23 22 26 20 22 30 26
30 30 32 32 31 30 29 25 22 18 1 0 0 0 0 0
45 45 50 48 58 53 59 54 48 58 58 58 60 49 60 64
63 57 48 39 23 14 14 13 15 17 19 20 20 21 21 21
21 21 21 19 20 19 19 18 17 16 16 13 13 11 10 11
2 10 7 9 7 11 12 9 7 6 8 12 10 10 4 2
1 1 5 3 8 10 28 70 94 99 105 109 105 93 80 69
54 43 24 16 3 1 7 9 16 2 0 0 0 0 0 0
9 9 8 11 23 24 15 15 14 22 21 26 15 26 29 26
26 32 33 32 32 30 28 26 22 21 7 0 0 0 0 0
54 52 54 53 56 53 55 55 54 56 54 54 53 52 51 38
22 12 9 9 11 13 14 15 16 16 17 17 18 20 20 21
21 21 20 20 19 19 19 18 17 16 16 13 12 10 11 9
1 11 7 8 7 11 13 10 8 6 8 10 8 13 8 3
9 8 8 6 12 62 86 101 99 100 105 106 106 98 88 59
43 40 34 21 2 1 6 7 10 8 1 2 0 0 0 1
12 8 10 13 26 21 13 12 15 23 22 22 13 27 28 24
25 32 32 34 32 31 28 27 24 20 17 0 0 0 0 0
39 39 39 39 38 37 37 36 34 32 30 28 26 24 14 6
8 7 9 9 9 10 12 13 13 16 16 18 19 20 20 19
20 21 20 20 20 19 18 17 17 15 14 13 11 10 11 6
2 10 6 8 7 10 13 9 8 6 8 10 9 13 11 9
8 8 7 9 39 107 108 107 104 103 108 110 110 106 98 51
34 36 43 21 6 1 5 6 8 22 11 7 1 0 0 8
11 8 10 15 28 18 10 9 15 24 23 17 13 28 27 23
22 30 31 33 31 30 28 29 26 21 21 6 0 0 0 0
12 10 8 7 6 5 4 2 1 0 0 0 0 5 7 8
10 8 8 8 9 10 10 12 14 15 17 18 19 19 20 19
19 19 20 19 20 18 17 17 16 15 14 12 11 10 10 5
2 11 5 8 7 9 12 10 10 5 10 9 11 14 12 10
10 12 13 17 33 112 114 112 109 110 114 114 112 113 104 44
20 23 36 24 8 1 7 1 3 26 24 18 0 0 1 16
10 9 10 19 29 14 9 10 14 23 24 13 16 29 27 24
22 28 32 32 29 29 29 29 26 23 20 14 0 0 0 0
0 0 0 0 0 0 0 0 0 0 0 0 5 6 7 8
7 8 7 9 8 9 11 12 14 15 17 17 18 18 19 20
19 20 20 19 19 17 17 16 15 15 13 12 11 9 11 3
3 10 6 7 7 10 12 11 8 4 9 8 12 13 12 10
12 12 13 13 23 107 118 116 107 114 121 118 120 122 111 73
43 20 27 25 11 5 1 3 0 3 16 8 0 0 6 17
13 9 10 20 28 11 8 9 14 22 25 8 17 28 27 24
18 25 30 29 27 29 29 28 26 25 21 18 6 0 0 0
0 0 0 0 0 0 0 0 0 0 0 2 5 5 7 7
7 7 7 7 9 9 11 12 13 15 16 17 18 18 19 19
19 20 19 19 19 17 18 16 16 14 13 12 11 9 11 3
4 9 6 8 7 10 11 10 8 5 9 9 12 13 13 12
13 12 13 14 15 84 121 119 107 119 124 122 122 126 117 115
81 40 26 18 21 8 0 1 0 0 0 0 0 0 13 18
7 9 11 23 27 7 8 9 16 21 21 7 17 29 28 26
16 22 29 29 27 29 30 28 28 25 22 19 15 0 0 0
0 0 0 0 0 0 0 0 0 0 0 4 4 6 6 6
6 6 7 7 8 9 10 11 13 15 16 18 18 19 19 19
19 19 19 18 18 17 17 16 15 14 12 11 9 10 10 3
4 9 6 8 8 9 13 12 8 5 7 8 13 12 13 12
12 12 15 13 14 44 119 120 120 122 129 129 128 129 134 118
104 57 13 11 15 8 5 0 1 0 0 0 0 7 18 15
7 9 12 25 25 6 9 10 17 22 17 6 19 28 27 26
16 20 28 27 27 29 30 28 28 27 24 20 18 3 0 0
0 0 0 0 0 0 0 0 0 0 2 4 5 6 7 6
6 6 7 8 8 9 10 11 13 15 17 18 19 19 20 20
20 19 19 20 19 19 18 16 15 14 13 11 9 10 8 2
5 8 7 7 9 10 12 12 8 6 8 10 13 14 14 13
13 14 17 14 13 19 83 122 121 124 128 132 129 136 123 110
44 11 10 12 10 6 8 2 1 0 1 2 7 13 21 13
9 9 15 28 21 6 9 12 20 21 11 7 23 27 26 25
16 18 25 27 27 27 29 30 29 28 25 22 18 9 0 0
0 0 0 0 0 0 0 0 0 0 3 3 6 6 7 6
7 8 8 8 8 10 11 12 13 15 17 17 18 19 19 20
20 20 19 18 18 18 17 16 15 14 13 9 9 9 9 2
7 8 6 7 10 11 12 11 8 6 8 10 13 14 12 13
12 14 14 14 14 16 33 108 122 127 128 131 131 109 67 20
15 14 13 13 12 8 8 6 7 6 5 7 10 15 23 10
8 9 16 28 16 6 10 14 21 17 4 9 26 26 27 24
16 16 22 27 26 27 30 29 28 29 28 23 21 15 0 0
0 0 0 0 0 0 0 0 0 0 3 3 6 6 6 6
6 7 7 7 8 9 11 12 14 15 16 17 18 19 20 20
21 20 20 20 20 18 18 16 15 13 12 8 9 10 8 2
8 10 6 8 10 11 12 11 8 7 8 10 14 14 13 13
13 14 14 14 14 14 16 39 97 122 124 92 54 24 18 18
20 20 20 19 17 12 10 11 10 6 6 10 13 19 22 9
8 9 17 28 11 8 12 17 20 11 4 11 27 27 27 21
15 16 21 26 26 27 30 29 29 29 29 25 22 16 5 0
0 0 0 0 0 0 0 0 0 0 3 5 6 7 7 7
7 7 7 8 8 8 11 12 13 15 17 17 18 20 19 20
20 20 20 20 20 18 17 16 15 13 9 8 9 10 8 2
9 8 6 8 11 12 12 10 8 7 8 10 13 15 15 13
13 14 15 16 15 15 15 16 22 59 30 21 23 23 22 23
23 23 23 20 15 12 14 15 10 5 8 12 15 22 21 9
8 10 20 28 7 7 13 18 19 4 5 15 28 27 28 21
15 16 20 28 26 28 30 29 31 30 28 25 23 19 11 1
0 0 0 0 0 0 0 0 0 1 3 5 6 6 6 7
8 7 8 9 9 9 11 11 13 15 15 16 17 19 19 20
20 20 20 19 19 17 17 16 15 11 8 8 9 11 7 2
10 8 8 8 12 13 12 10 8 8 9 11 13 14 14 14
15 15 14 15 14 14 15 15 16 25 16 20 25 25 24 25
24 24 22 17 13 14 21 15 7 6 10 13 17 25 19 9
9 10 21 26 6 8 15 19 11 1 7 19 29 29 28 19
13 15 18 28 26 27 29 31 30 29 30 26 23 21 14 9
0 0 0 0 0 0 0 0 0 1 2 5 6 6 6 7
7 7 8 9 8 10 11 11 13 14 16 16 17 18 18 20
20 19 19 18 18 17 16 15 13 7 8 8 9 11 8 2
10 7 7 8 13 13 12 9 8 7 9 12 13 15 13 14
14 19 15 14 14 14 14 14 21 19 16 19 25 26 23 24
24 23 20 14 12 20 22 13 6 8 12 13 21 27 18 8
9 11 24 26 4 8 17 17 3 1 7 23 28 29 25 20
12 12 16 27 27 27 29 29 30 30 30 27 24 21 15 14
0 0 0 0 0 0 0 0 0 1 2 5 6 7 6 7
6 7 7 8 8 9 10 11 13 14 16 17 18 19 18 19
20 20 19 19 17 18 16 16 13 5 6 9 10 11 7 5
9 6 7 7 12 14 13 9 10 9 11 11 14 16 15 15
14 15 13 15 14 15 15 15 22 17 16 19 23 26 24 24
23 21 16 11 14 24 18 9 7 12 13 15 23 26 16 8
9 11 25 27 2 8 18 8 0 3 9 25 28 29 26 19
12 10 14 28 29 26 29 30 30 29 29 27 25 23 18 15
0 0 0 0 0 0 0 0 0 0 2 6 6 7 7 7
7 7 7 8 9 8 10 11 13 13 15 16 17 18 18 18
19 19 19 19 18 17 17 15 8 7 4 7 10 11 7 5
9 6 8 7 12 15 13 10 10 9 12 13 13 14 14 16
14 18 14 15 18 16 15 20 17 18 18 18 21 24 23 22
22 20 13 12 20 23 16 6 8 12 14 16 26 26 13 8
10 12 26 27 2 10 13 2 1 5 10 27 29 29 25 19
10 10 13 27 29 26 28 31 29 31 29 27 27 24 19 18
0 0 0 0 0 0 0 0 0 0 3 6 7 6 6 6
6 7 7 8 8 9 10 10 12 13 14 15 17 17 18 19
19 19 18 18 18 16 16 15 7 4 3 6 10 11 6 7
9 6 8 7 12 16 16 13 13 12 13 12 13 15 15 14
15 18 15 13 17 18 15 21 16 17 19 18 21 22 23 23
22 15 12 14 24 21 12 6 11 13 15 18 27 26 11 8
8 13 27 30 4 11 7 2 3 6 12 26 29 29 24 17
10 9 13 25 28 25 28 30 31 29 28 28 28 26 21 19
0 0 0 0 0 0 0 0 0 0 2 5 6 5 6 6
6 6 7 8 8 9 10 11 12 13 13 15 16 18 17 19
19 18 19 18 18 16 15 15 7 3 5 8 8 8 5 8
8 6 8 7 12 17 18 17 15 16 13 12 13 15 15 14
14 20 15 16 14 14 20 17 16 17 17 18 20 21 22 21
20 12 9 18 25 19 9 8 14 14 16 21 27 26 10 7
9 14 26 29 6 10 6 1 5 6 13 26 28 28 22 17
10 9 11 22 30 26 28 31 31 28 28 29 30 27 23 19
0 0 0 0 0 0 0 0 0 0 3 5 6 6 7 6
7 7 7 8 8 9 9 11 11 12 14 15 16 17 18 18
18 18 18 18 17 16 15 14 7 7 7 7 7 6 3 7
7 6 7 6 12 18 20 20 18 18 15 12 13 15 14 14
14 24 15 15 17 15 19 14 14 15 18 19 22 23 25 23
14 8 12 22 24 14 6 10 14 14 16 22 28 24 9 7
9 15 27 31 8 6 8 0 4 7 15 28 29 28 20 16
9 8 11 21 30 26 27 31 31 30 28 28 28 27 23 21
0 0 0 0 0 0 0 0 0 0 3 5 6 6 6 6
6 7 7 8 8 9 9 10 11 12 13 15 16 17 18 17
18 17 17 17 17 16 15 13 7 8 8 6 6 6 3 8
7 5 7 5 13 20 22 22 20 20 16 12 13 14 13 14
13 16 13 13 15 25 19 16 13 13 17 22 25 24 22 17
9 9 17 24 21 10 8 12 13 14 18 23 28 23 8 7
9 16 26 31 13 2 9 0 2 6 17 28 29 27 18 13
9 7 11 19 30 26 27 31 30 29 28 28 28 27 23 21
0 0 0 0 0 0 0 0 0 0 3 5 6 7 7 7
7 7 7 8 9 9 9 10 11 11 13 14 15 16 16 17
17 17 17 17 16 16 16 11 7 7 7 6 7 7 5 10
7 5 6 6 15 22 23 23 23 23 17 13 12 14 13 13
13 15 20 13 12 22 19 21 19 18 20 19 21 20 17 10
10 11 23 25 17 8 12 14 14 14 20 24 29 21 7 7
10 15 25 32 20 1 5 0 0 7 19 28 29 26 18 10
8 7 11 19 27 26 26 30 30 29 29 29 30 29 25 22
0 0 0 0 0 0 0 0 0 0 4 5 6 6 6 7
7 7 8 8 8 7 8 9 11 11 12 14 15 16 16 17
17 18 18 17 16 15 14 9 5 7 7 6 7 7 6 9
7 4 5 4 16 22 24 24 26 23 18 12 12 15 13 13
13 16 23 12 15 15 17 18 17 16 18 19 20 17 12 10
11 13 24 23 11 9 14 14 15 15 22 25 29 19 7 7
11 15 25 31 22 0 5 1 0 4 20 27 29 25 16 9
8 8 11 20 27 27 26 29 28 28 29 31 30 28 26 21
0 0 0 0 0 0 0 0 0 0 3 5 5 5 6 6
7 6 7 7 8 7 9 9 10 11 13 14 15 16 16 17
18 18 18 17 17 15 14 7 6 6 6 6 6 6 6 10
7 4 3 4 17 23 24 25 26 22 18 11 12 14 12 12
12 15 22 12 14 12 15 16 18 18 17 18 16 12 9 10
11 18 25 18 8 11 14 14 15 16 24 24 27 18 7 8
11 14 27 32 24 0 6 3 0 2 19 27 29 24 14 8
8 7 10 19 27 27 25 29 29 29 28 29 29 28 27 24
