P2
128 120
157
22 13 0 0 0 0 0 0 2 3 47 59 55 63 61 10
0 0 0 0 0 0 0 0 11 71 73 64 31 33 32 33
34 28 4 3 9 12 12 12 23 15 25 17 11 6 17 25
21 23 47 59 4 0 6 18 22 13 8 4 48 67 62 8
15 33 24 34 42 48 55 61 45 50 52 55 53 57 57 57
54 21 19 26 41 41 39 38 38 37 43 48 46 45 41 39
39 40 36 33 31 30 29 28 27 27 27 26 30 37 35 32
32 32 31 25 21 21 21 20 20 19 19 19 19 20 20 24
21 13 0 0 0 0 0 0 0 0 30 67 55 64 63 11
0 0 0 0 0 0 0 0 10 71 73 66 33 36 37 36
34 27 10 0 0 9 19 11 2 1 3 6 4 3 3 9
11 9 46 61 5 14 13 26 58 28 0 8 48 67 63 6
8 13 0 0 5 8 3 50 47 51 54 55 55 58 57 57
57 26 20 28 45 43 42 40 38 37 43 49 47 43 42 42
43 45 39 39 39 38 34 30 29 28 28 27 28 23 21 24
30 32 32 28 22 21 21 21 20 20 19 19 19 19 20 24
2 1 0 0 0 0 0 0 0 0 17 71 61 66 65 10
0 0 0 0 0 0 0 0 8 71 74 67 28 14 31 24
6 3 0 2 5 6 30 18 16 7 14 5 0 2 1 0
7 11 44 63 6 22 28 35 50 44 29 1 43 69 64 7
0 6 5 0 16 23 10 51 47 52 51 52 56 56 57 56
56 29 20 29 47 44 43 43 43 42 44 24 26 38 43 46
46 46 40 19 23 31 35 37 34 35 34 31 29 18 9 7
4 6 11 25 23 21 21 21 20 20 19 19 19 20 21 25
5 1 0 0 0 0 0 0 6 22 42 71 65 66 68 12
0 0 0 0 0 0 0 0 7 71 75 70 30 0 5 3
6 2 2 3 6 9 22 26 20 9 10 8 2 5 0 0
1 3 44 67 10 20 28 45 48 23 40 4 36 69 68 13
0 8 1 0 28 25 16 51 39 20 32 39 51 55 56 54
54 32 21 28 47 44 36 35 43 46 50 9 0 2 16 23
24 29 41 7 0 0 1 9 13 21 29 32 30 18 3 4
5 3 0 20 23 22 21 21 20 20 20 20 20 21 21 26
14 1 1 5 16 26 41 57 68 71 72 72 67 67 69 31
15 10 5 3 1 0 0 0 8 71 74 72 47 18 0 4
4 1 8 4 10 3 7 22 32 20 19 11 11 3 7 4
5 8 49 68 10 3 19 38 43 31 25 1 33 71 70 16
1 12 2 1 22 20 17 50 36 0 5 8 11 13 23 20
47 33 21 25 43 47 46 44 43 49 52 13 0 0 9 13
14 12 38 6 0 0 0 0 0 0 0 2 29 18 2 2
0 3 0 21 23 22 22 21 21 21 21 20 20 21 21 26
53 42 53 52 49 46 49 63 71 72 73 73 65 56 62 66
66 68 51 60 59 57 54 50 49 73 75 74 48 15 1 0
0 1 4 2 3 14 15 24 41 22 25 26 14 2 9 11
4 6 50 68 13 0 0 4 15 6 0 0 31 72 71 17
0 7 1 3 5 1 4 51 35 1 0 0 0 0 0 0
37 33 21 17 2 8 18 28 39 47 50 16 0 0 6 5
9 8 37 11 0 0 0 0 0 0 0 0 30 15 0 0
0 0 0 21 24 23 22 21 21 20 20 20 20 21 20 26
65 57 57 58 58 65 69 70 71 73 73 74 67 55 63 65
58 56 63 68 68 67 61 58 53 34 38 47 46 11 0 0
0 0 2 6 2 27 29 31 30 31 23 38 10 0 1 2
6 2 39 64 16 0 0 0 0 0 0 0 29 72 72 21
0 4 3 9 10 0 1 50 33 6 6 1 3 0 0 2
36 34 21 16 0 0 0 0 0 2 13 18 0 0 1 1
2 6 33 7 0 0 0 0 0 0 0 0 28 10 0 0
0 0 0 20 24 22 22 22 21 21 20 20 20 21 21 26
54 71 70 69 69 69 71 72 68 61 39 26 38 24 14 20
37 38 49 56 59 59 62 59 50 17 22 40 49 14 0 0
0 0 0 0 0 35 38 38 44 29 22 31 8 0 2 8
8 6 41 65 19 0 0 0 0 0 0 0 25 72 73 28
0 13 28 25 25 1 1 49 34 8 10 7 26 3 0 0
35 36 21 16 0 0 0 0 0 0 3 17 0 0 0 0
0 4 35 9 0 0 0 4 6 0 0 0 27 10 0 0
0 0 0 19 26 23 23 22 22 21 22 21 21 22 21 27
53 69 66 65 62 60 52 33 37 42 15 18 39 15 1 5
4 6 19 25 21 2 9 34 37 54 53 53 48 7 0 0
0 2 6 5 1 14 16 26 54 6 9 10 5 2 3 6
9 11 47 66 33 16 12 11 9 6 4 4 26 73 74 35
5 7 4 13 20 8 2 49 34 8 11 2 23 17 0 0
34 34 21 16 0 0 0 0 0 0 2 15 0 0 0 0
0 4 39 12 0 0 0 5 11 6 3 0 25 11 0 0
0 0 0 16 27 23 22 22 21 21 21 21 21 22 21 27
57 48 45 52 53 56 58 56 56 52 39 37 49 13 0 1
0 0 1 11 3 4 19 29 64 65 59 43 23 0 0 7
6 0 8 4 9 7 1 8 42 0 0 3 8 5 9 9
2 8 42 66 70 67 65 64 61 59 57 56 59 68 69 36
7 9 19 14 3 2 0 46 33 7 11 4 9 7 0 0
34 34 21 17 0 0 0 10 4 0 1 13 0 1 0 0
0 2 35 15 0 0 0 7 12 10 9 1 23 13 0 0
0 0 0 14 28 23 23 22 21 22 21 21 21 22 22 26
34 34 38 41 47 51 52 54 56 59 60 46 65 13 0 1
0 0 1 3 0 5 7 25 72 70 63 9 6 0 2 20
5 5 7 4 6 3 6 12 49 4 0 4 1 0 0 0
1 1 40 73 72 69 68 60 61 58 53 46 35 30 35 3
0 2 11 14 8 7 1 46 30 3 7 8 1 4 0 0
36 34 22 18 0 9 6 8 6 0 0 13 0 3 0 0
0 5 36 17 0 0 0 6 10 9 9 1 21 15 0 0
0 0 0 12 29 23 23 22 22 22 21 21 21 22 22 26
5 5 9 4 1 1 1 3 4 22 64 67 67 22 0 2
0 0 0 1 0 3 3 26 76 72 66 12 6 0 1 0
1 9 4 4 6 7 5 3 53 9 3 2 2 0 0 0
0 0 46 76 33 12 17 22 28 39 47 55 61 49 51 41
33 27 22 21 11 3 3 46 31 2 7 11 0 0 0 0
35 34 21 18 5 14 3 7 4 0 0 15 1 0 0 0
0 12 34 20 0 1 0 0 4 9 9 0 18 34 25 16
11 6 3 11 30 23 23 23 23 21 22 21 22 23 22 27
1 0 0 0 0 7 22 10 0 18 66 67 67 29 36 53
21 9 0 0 2 0 1 30 76 71 67 13 14 15 16 19
25 19 13 4 2 0 8 11 53 4 10 3 9 3 0 0
1 0 43 77 29 0 0 0 4 1 2 3 32 60 58 56
61 58 60 65 62 58 54 52 48 22 14 20 18 15 8 6
39 34 23 18 9 6 0 0 3 1 0 23 4 2 5 1
0 7 37 39 26 19 13 6 0 0 4 0 16 37 37 34
34 37 38 40 31 23 23 22 23 21 21 22 21 22 23 27
0 0 0 0 0 13 44 25 2 17 69 69 69 49 45 43
48 11 3 13 38 9 0 31 75 69 65 13 0 0 1 8
10 8 28 27 32 38 42 30 58 23 19 13 12 7 4 0
0 4 49 74 40 8 1 10 8 2 0 0 26 70 61 20
20 28 35 38 42 47 55 53 72 58 36 47 46 52 51 48
48 31 21 18 2 0 0 0 0 0 1 45 49 38 33 30
22 13 37 41 22 25 29 32 31 27 25 21 30 40 36 35
34 36 41 41 32 22 23 23 22 22 22 21 22 23 22 26
0 0 0 0 0 13 38 28 6 15 69 70 70 44 12 30
31 6 24 29 52 29 4 31 74 68 65 13 2 0 0 9
12 12 48 44 40 55 60 54 43 5 10 17 25 26 23 12
10 16 53 73 41 12 1 5 15 34 16 6 25 66 62 29
23 21 29 27 21 11 36 71 75 50 38 47 55 58 58 58
56 32 22 20 1 0 0 0 0 0 1 47 54 41 48 49
53 49 52 37 11 13 13 12 12 12 14 19 25 23 21 27
29 33 35 36 31 23 23 23 23 22 23 22 22 23 23 27
0 0 0 0 0 11 32 28 10 17 72 72 70 17 0 1
10 19 17 22 36 13 0 32 73 70 67 13 2 0 3 8
8 19 49 47 47 61 67 62 49 1 0 0 14 28 33 15
12 36 64 71 40 26 40 13 35 24 11 4 23 60 52 18
17 19 17 17 16 10 37 68 70 44 43 51 56 57 58 60
59 32 22 22 15 7 2 0 0 0 1 48 45 44 50 52
55 50 39 31 13 14 12 11 11 8 7 7 5 4 5 7
10 26 23 18 20 24 24 24 23 22 23 22 23 24 23 27
0 3 1 0 10 3 29 37 29 18 73 72 68 9 9 36
14 9 17 10 3 4 1 35 75 70 69 15 1 1 7 2
3 16 43 41 48 72 77 68 54 2 0 0 3 17 23 14
24 41 71 72 35 43 43 28 27 29 19 10 16 21 15 7
9 14 11 16 14 12 25 47 56 23 20 29 31 34 38 41
55 33 23 26 47 55 50 40 31 23 17 45 35 44 49 51
54 53 45 37 17 15 14 11 9 9 7 7 6 5 6 6
9 25 18 24 23 24 25 25 25 24 23 23 23 24 24 27
0 11 9 5 13 9 24 37 42 19 72 72 68 7 5 12
0 0 1 1 1 1 2 37 76 73 70 15 3 12 9 0
4 15 24 36 49 76 79 73 62 3 0 2 19 23 20 21
24 50 74 73 24 25 17 11 20 32 24 13 12 5 8 9
5 11 13 18 12 11 14 12 23 18 16 12 7 6 4 4
35 36 24 26 48 57 56 53 53 53 54 51 21 29 39 43
49 49 44 40 19 15 11 8 7 6 8 8 8 8 8 8
13 26 5 14 29 27 25 16 19 24 24 23 24 24 24 27
0 1 0 8 13 7 18 22 24 19 72 71 67 6 0 0
0 1 1 1 0 0 0 36 77 73 71 16 0 0 9 0
8 11 0 24 48 75 77 73 62 4 0 5 36 58 55 65
64 62 73 75 52 39 33 26 17 11 17 19 11 10 7 10
8 10 18 18 14 15 12 14 11 17 15 15 13 2 2 3
32 38 23 25 47 58 57 55 55 54 55 48 5 0 1 4
10 17 19 42 18 13 10 0 0 0 2 11 10 4 6 10
13 29 36 33 34 34 32 14 11 25 25 24 24 23 17 25
0 0 0 9 27 7 2 7 3 18 73 72 67 8 0 0
0 1 1 1 0 0 0 37 75 71 70 17 0 2 9 4
11 17 8 24 41 72 74 71 63 4 0 3 16 57 34 62
61 12 39 73 66 51 32 20 8 8 7 21 13 11 8 11
10 12 17 17 14 15 13 13 11 16 11 14 18 13 28 25
33 39 28 27 40 48 47 48 49 51 54 45 2 0 0 0
0 7 17 44 17 11 10 1 0 0 0 0 1 0 0 0
2 30 34 21 22 20 26 30 29 24 24 23 23 11 3 21
0 0 0 10 48 14 0 1 0 19 76 71 70 62 62 56
49 42 36 29 26 19 15 43 74 70 69 18 1 4 6 2
4 8 8 11 32 71 71 69 63 5 0 2 44 54 41 49
41 8 17 69 61 34 6 7 8 10 7 13 18 10 9 12
14 14 20 23 23 18 13 13 17 12 14 18 16 21 32 35
30 38 32 30 32 33 36 39 38 38 48 43 1 0 0 0
4 0 10 46 16 11 6 1 0 3 2 0 0 0 0 0
0 28 36 20 18 24 21 22 25 24 25 24 24 17 7 22
1 0 0 17 44 19 0 0 0 19 59 51 63 73 81 78
75 71 68 66 72 71 70 72 72 69 69 20 0 0 0 0
1 1 2 0 28 69 70 70 63 5 0 1 30 66 65 44
43 15 11 59 49 21 3 7 7 10 10 7 16 15 12 14
20 21 30 37 39 28 20 20 22 13 15 16 12 16 29 36
33 36 29 28 29 27 28 37 36 36 48 43 1 0 0 0
1 0 4 45 6 3 0 0 0 4 7 1 0 0 0 0
0 27 38 18 12 27 23 19 23 24 24 24 24 23 17 25
55 5 0 24 36 22 0 0 0 16 43 56 62 69 82 81
78 78 74 72 75 74 74 74 71 68 66 19 27 29 28 27
26 25 23 15 37 68 70 73 71 51 50 45 25 30 57 66
63 46 20 45 32 9 7 7 7 7 11 10 20 20 24 23
27 38 49 61 63 55 44 39 31 23 19 17 15 17 17 15
20 27 24 26 27 31 35 39 40 44 48 42 1 0 0 0
0 0 6 45 2 0 0 0 0 0 8 10 3 0 0 0
0 27 38 18 7 14 12 19 22 25 24 23 24 23 19 22
66 22 0 25 31 20 0 0 8 36 43 57 64 75 75 71
71 68 67 72 70 72 76 76 76 75 73 54 68 69 69 73
69 58 61 64 69 70 73 75 68 62 70 66 58 29 10 28
41 33 13 18 10 5 7 8 11 13 18 23 33 33 44 49
45 62 73 86 91 88 83 69 58 46 34 23 17 12 15 17
22 28 28 27 12 3 4 9 13 19 23 33 1 0 0 0
0 0 8 44 2 0 0 0 0 3 8 11 9 3 0 0
0 26 39 22 10 15 14 15 21 23 23 22 23 22 20 19
56 56 33 44 46 34 22 15 28 40 44 57 61 67 63 69
71 68 71 55 33 40 53 63 65 67 72 74 59 73 74 79
66 56 61 68 74 67 74 77 75 74 68 41 54 73 39 2
0 4 10 14 8 3 5 14 17 27 38 53 68 65 68 79
84 88 104 111 114 115 111 104 94 81 63 42 24 20 17 16
20 28 34 32 13 0 0 1 0 0 0 20 1 0 0 0
0 0 6 41 0 0 0 0 0 15 15 15 8 4 0 0
0 24 38 23 16 10 5 13 20 23 23 23 23 23 20 19
33 74 64 63 63 72 73 54 10 4 11 15 14 15 18 15
16 16 61 47 3 5 0 16 35 11 53 75 78 72 70 74
63 63 67 72 78 81 81 82 80 78 73 27 45 76 68 21
10 12 13 8 4 4 7 15 36 64 89 96 101 104 105 108
117 123 129 133 132 132 128 124 121 108 90 63 44 29 16 14
14 25 32 30 15 0 0 2 1 0 0 18 1 0 1 13
3 0 6 39 0 0 0 0 0 6 12 12 0 0 0 0
0 20 39 25 17 4 2 6 19 23 23 23 23 23 17 19
9 71 40 18 21 27 32 32 1 0 3 0 0 1 2 0
1 1 54 56 7 22 1 12 32 9 50 74 80 70 67 66
64 67 71 76 80 83 83 83 81 82 78 28 29 78 57 13
17 13 11 7 4 7 22 48 81 108 121 131 132 129 130 130
136 138 141 142 141 141 141 136 130 123 108 87 70 54 29 19
13 16 29 30 15 0 1 8 6 1 0 17 2 0 9 20
10 1 5 39 0 0 0 0 0 0 4 9 0 0 0 0
0 18 38 24 9 1 0 4 18 24 23 23 24 23 16 22
0 56 50 1 1 0 2 22 0 0 0 0 0 1 5 0
5 3 50 62 13 28 4 11 26 39 60 76 77 24 10 24
53 49 55 61 65 67 68 73 74 76 78 33 20 76 63 18
16 13 8 9 10 23 50 87 111 126 137 141 143 143 142 141
140 142 142 142 142 142 141 140 140 135 118 103 88 66 46 27
14 15 20 27 14 0 7 20 14 5 0 16 4 0 14 15
14 3 5 37 0 4 0 0 0 0 4 13 0 0 0 0
0 15 38 19 3 4 0 6 17 23 24 23 23 22 16 24
1 31 67 17 6 1 17 24 0 0 0 2 1 1 6 0
1 6 47 66 2 2 22 36 33 70 70 77 77 18 0 16
45 9 8 9 13 15 15 15 14 18 59 45 14 72 59 37
15 8 6 13 27 56 81 106 129 140 143 143 143 143 143 142
142 142 142 142 142 142 142 141 141 140 130 114 98 83 57 34
20 15 13 23 16 0 11 23 16 10 0 19 40 33 39 35
33 28 26 39 0 0 0 0 0 0 3 13 0 0 0 0
0 11 39 14 0 1 0 12 17 23 23 23 24 21 19 25
32 29 73 39 20 5 17 21 0 0 3 12 6 0 2 0
0 5 46 69 3 0 12 45 36 69 71 76 76 18 0 9
49 10 6 10 7 14 13 5 9 6 51 66 30 65 52 23
8 11 12 21 48 77 96 114 132 143 142 141 143 143 143 143
142 143 143 142 143 142 142 141 142 141 141 126 111 92 71 47
30 16 15 16 18 1 6 8 5 3 0 17 44 43 48 46
45 50 53 44 6 3 6 0 0 0 4 16 0 0 0 0
0 5 38 12 0 0 0 3 17 22 24 24 24 19 21 25
41 43 73 53 18 4 17 22 1 2 9 9 0 0 0 0
0 0 30 75 11 10 8 15 34 60 66 77 77 20 0 6
53 11 2 10 3 14 17 9 16 19 51 72 30 55 39 18
9 7 12 26 62 88 111 125 139 143 143 143 143 143 143 143
143 143 143 142 143 143 142 143 142 142 142 136 121 106 87 69
45 24 17 8 21 18 4 7 3 2 0 16 47 45 47 45
46 53 55 51 32 31 31 25 20 20 19 21 12 10 7 7
7 11 31 18 6 5 8 0 8 23 25 23 23 18 22 26
37 45 67 68 18 0 18 29 13 13 18 22 0 0 0 0
0 0 26 78 14 7 5 6 23 48 66 78 77 20 0 6
55 11 12 11 6 11 16 16 24 24 51 74 23 49 39 14
11 11 18 34 70 103 118 129 139 144 143 143 143 143 143 143
144 143 143 143 143 143 142 142 143 142 141 142 131 111 94 77
62 34 14 7 23 19 6 7 1 1 0 14 40 38 42 41
41 46 46 46 36 36 35 34 32 33 32 29 27 23 20 18
17 20 33 28 18 15 11 6 8 22 24 24 23 18 22 26
20 36 43 72 27 0 20 30 15 23 36 26 0 11 16 4
3 5 24 79 15 0 0 2 9 44 64 78 76 21 0 5
54 9 30 7 9 10 13 8 16 16 39 71 14 39 36 17
10 11 18 41 78 105 123 134 141 144 143 143 143 143 144 144
143 142 143 143 142 142 142 142 142 142 142 142 140 121 98 76
67 34 13 7 20 17 4 3 1 0 0 16 44 38 40 39
39 37 31 31 35 36 37 36 33 34 33 32 31 32 33 29
26 25 32 41 38 37 35 32 25 22 24 23 23 18 23 26
17 25 43 65 53 1 23 31 15 23 33 26 0 4 8 7
9 6 31 80 21 0 0 0 10 47 58 75 74 19 1 2
51 11 28 5 4 5 7 5 9 36 39 69 21 15 21 18
12 13 23 55 87 115 129 140 143 143 143 143 143 143 143 143
142 143 143 143 143 143 143 143 143 142 142 142 142 139 121 96
72 34 14 12 20 23 13 7 6 2 0 14 47 38 38 37
36 37 37 38 39 38 41 44 44 37 33 33 32 39 42 39
36 35 33 27 24 25 25 26 26 22 24 24 23 20 21 26
18 25 39 60 68 10 25 34 14 24 31 29 1 1 9 4
0 7 33 80 29 0 3 4 16 23 55 75 73 17 1 0
48 18 17 3 5 5 6 11 11 35 40 68 24 11 15 13
11 10 29 63 99 120 133 140 143 143 143 143 144 144 144 143
143 143 143 143 143 143 143 142 143 143 142 142 142 141 134 111
75 37 19 18 29 39 47 45 45 48 46 45 51 40 40 40
39 40 42 45 44 39 42 46 51 37 34 28 32 41 42 40
36 37 34 30 20 15 15 14 15 22 24 24 23 18 22 27
42 56 41 46 72 31 24 36 15 23 27 30 2 1 18 2
0 11 26 78 45 12 19 6 17 19 56 74 71 15 0 0
40 33 4 2 1 3 4 2 3 23 28 61 29 9 12 7
7 16 37 74 109 125 134 141 143 143 143 144 144 144 143 143
143 143 143 143 143 143 143 143 143 143 142 142 142 142 137 117
85 43 22 16 24 45 57 57 59 58 58 57 54 44 38 40
38 38 44 48 48 40 42 45 40 38 36 32 25 35 39 37
36 38 36 33 27 22 21 19 21 22 24 24 23 16 24 27
69 73 65 72 72 54 23 39 17 23 25 30 2 0 0 0
0 1 9 73 50 3 6 4 10 3 53 71 69 12 0 0
34 44 2 1 5 23 24 16 4 5 9 56 43 10 10 4
6 23 43 83 114 129 135 142 143 144 143 144 143 144 143 144
143 143 143 142 143 143 143 143 143 142 143 142 141 141 138 123
89 55 23 12 18 46 55 56 58 58 59 58 55 18 21 14
13 15 20 31 49 41 36 17 21 25 23 24 30 28 7 2
4 9 13 18 31 25 24 26 27 28 29 24 23 17 26 27
74 76 73 72 71 64 28 40 8 11 9 7 3 5 8 13
18 24 34 75 59 1 4 2 6 3 56 72 69 9 0 0
25 41 2 1 4 22 30 22 6 4 7 45 54 17 8 3
6 25 50 91 116 129 135 142 143 144 144 144 144 144 144 144
144 143 143 143 143 143 143 143 144 143 142 143 142 142 140 126
92 55 26 11 11 33 35 34 34 34 35 35 41 8 0 0
0 0 0 8 47 39 15 0 0 2 6 11 32 30 3 0
0 0 3 10 26 18 22 24 28 31 34 27 23 18 25 27
74 73 70 68 49 14 18 65 53 58 63 66 70 74 78 80
82 84 84 85 71 25 29 26 25 23 63 72 70 8 0 0
17 48 2 1 1 14 24 18 7 2 6 36 50 14 6 4
5 26 54 91 116 130 136 141 143 143 143 143 144 144 143 143
143 143 143 142 142 143 143 142 142 142 142 142 142 141 141 127
100 57 30 17 8 31 40 40 38 37 35 34 37 13 7 0
0 0 4 13 46 31 1 0 0 0 0 11 34 31 4 0
0 0 2 10 16 0 0 0 0 1 32 27 22 19 25 26
71 68 56 23 2 0 14 80 81 82 81 82 84 84 85 85
85 85 85 86 82 60 72 73 74 73 75 59 58 26 13 12
17 59 20 18 17 18 18 20 21 17 19 29 25 8 5 4
12 30 53 92 118 129 135 142 143 142 143 144 143 143 142 143
143 143 141 142 142 142 142 143 142 142 142 141 141 141 140 131
108 71 44 29 7 29 44 44 44 43 43 43 41 13 5 0
0 0 3 19 45 23 0 0 0 0 0 6 34 30 4 0
0 0 0 7 18 0 4 6 0 0 29 29 21 20 25 26
69 51 24 17 17 15 25 81 83 83 84 85 86 86 86 86
86 85 84 81 73 34 39 41 43 47 66 69 75 69 71 68
59 79 83 75 78 79 77 71 67 68 68 58 15 7 4 6
14 29 58 98 120 128 134 141 143 143 143 143 142 143 142 143
142 142 141 142 142 142 142 142 142 142 141 141 141 141 140 134
120 94 61 33 8 24 45 46 45 43 44 44 43 13 6 1
0 2 4 3 41 17 0 0 0 0 0 6 33 27 5 0
0 0 0 7 20 0 2 2 0 0 27 28 20 22 25 27
60 62 70 70 70 67 65 82 83 82 79 78 75 72 68 62
46 23 17 12 6 0 2 0 1 5 54 74 79 70 75 73
63 74 89 84 83 85 80 78 75 71 69 42 8 7 4 5
17 33 72 107 122 127 135 142 142 142 143 143 143 142 142 142
142 142 142 142 141 141 143 143 143 142 141 142 141 141 140 132
122 109 74 36 10 9 22 24 26 28 31 39 47 13 0 0
0 3 8 1 40 13 0 0 0 0 0 5 34 26 4 0
0 0 0 3 22 0 0 0 0 0 27 29 18 23 24 26
67 64 60 58 59 60 61 63 58 46 61 61 61 60 57 57
31 0 0 0 0 5 15 2 2 6 54 76 81 82 78 72
64 66 90 87 87 86 72 68 68 68 62 22 6 6 2 5
25 53 87 113 122 129 131 140 142 143 143 143 143 142 143 142
142 142 142 142 142 142 142 142 141 143 142 136 127 118 108 98
91 88 70 44 16 15 36 37 36 33 28 23 50 26 7 0
0 3 5 0 39 12 0 0 0 0 0 5 36 25 6 0
0 0 0 2 26 0 1 1 0 0 25 28 18 23 24 27
67 64 57 60 63 52 63 64 62 60 63 62 62 61 58 58
31 0 0 0 0 9 22 4 4 8 54 77 79 76 74 70
62 53 60 59 59 59 55 54 53 42 26 11 7 4 3 8
26 61 105 112 114 116 118 125 127 130 128 130 139 143 143 142
142 142 142 142 143 142 139 114 86 68 53 38 33 35 45 55
62 68 73 65 47 23 38 40 40 41 39 23 51 23 4 0
0 2 8 2 39 12 0 0 0 0 0 2 36 26 8 0
0 0 0 1 29 0 0 0 0 0 25 27 19 25 25 27
56 55 55 55 55 53 55 55 55 55 55 61 63 62 60 60
31 0 0 0 0 0 4 4 5 11 54 78 77 64 60 52
44 41 48 44 47 47 41 33 44 27 12 7 10 8 5 14
32 51 57 58 61 57 45 37 31 30 31 39 69 120 143 144
143 144 143 144 145 137 83 31 20 18 17 14 11 11 12 15
15 22 46 112 126 36 36 42 42 42 41 26 51 14 0 0
0 0 0 1 41 15 0 0 0 0 0 0 36 27 6 0
0 0 0 0 32 1 0 0 0 0 24 28 20 26 27 28
55 55 55 54 54 53 52 52 52 52 50 50 48 60 64 62
33 0 0 0 0 4 7 6 8 13 54 79 77 59 21 8
0 1 15 26 32 26 14 13 37 23 6 6 10 10 14 84
113 99 71 53 33 19 10 8 6 7 12 14 18 27 80 141
146 145 145 145 136 61 21 17 16 16 15 12 9 9 9 10
14 24 27 27 102 23 28 34 38 40 42 27 45 12 0 0
0 0 3 0 38 19 0 0 0 0 0 0 37 29 11 0
0 0 0 0 35 2 0 0 0 0 26 27 21 26 28 29
56 56 55 55 54 53 53 52 51 51 50 14 0 46 67 64
34 0 1 0 3 8 19 29 10 16 54 80 77 58 19 4
2 4 10 22 28 9 7 16 31 14 8 3 14 13 22 109
78 32 47 34 20 19 9 7 7 7 10 11 11 11 22 73
140 146 146 139 64 20 13 9 10 13 12 12 9 10 14 17
24 33 35 33 55 8 15 14 37 43 41 28 41 15 5 3
3 4 15 4 35 34 16 15 17 17 16 18 41 31 33 35
34 33 36 38 43 9 5 4 3 3 27 27 21 27 28 30
43 44 45 46 46 47 47 47 49 50 50 14 0 36 64 63
33 0 0 4 36 24 36 47 13 14 54 82 78 55 24 14
15 19 20 12 31 11 9 25 31 16 8 2 6 13 13 69
35 45 42 61 44 27 14 8 10 9 9 9 7 6 9 37
73 115 112 72 36 20 7 6 7 9 9 9 12 12 17 24
43 83 78 41 52 11 17 16 36 45 41 26 39 41 42 35
35 38 37 37 37 46 54 49 48 50 50 50 50 33 33 39
40 43 48 50 49 31 30 28 29 28 28 24 21 26 27 29
1 2 3 4 4 6 8 9 16 49 50 15 0 25 61 56
44 22 22 32 58 51 63 65 32 19 53 79 75 53 31 22
24 23 16 15 32 15 18 28 25 12 5 2 3 16 16 51
34 30 84 127 96 38 26 16 10 9 5 2 0 0 4 45
51 72 57 65 56 22 5 3 4 3 4 4 10 11 17 25
80 148 146 64 50 13 18 16 34 45 40 27 38 44 43 38
39 40 34 28 29 38 54 52 50 47 51 51 51 39 27 35
38 41 47 49 48 30 26 26 25 25 25 25 24 23 26 26
0 0 0 0 0 0 0 0 3 48 50 16 0 20 61 51
50 52 56 46 56 63 70 70 65 63 67 75 72 52 30 21
26 20 5 9 27 21 25 25 25 12 1 4 3 7 20 50
27 39 118 152 139 66 26 21 11 5 1 1 0 0 4 54
42 52 43 68 60 22 4 0 0 0 0 1 5 9 16 21
81 152 148 64 46 18 17 20 32 41 40 30 36 43 36 34
38 38 37 29 28 31 31 34 34 33 32 31 31 32 24 26
30 31 27 23 24 27 27 27 28 27 26 26 24 24 22 23
0 0 0 0 0 0 0 0 2 47 50 17 1 20 61 55
55 57 61 54 63 67 73 72 71 69 68 74 72 52 29 18
24 15 5 10 23 23 22 21 31 20 0 6 7 1 13 51
23 54 130 153 131 43 16 9 6 0 0 0 0 0 3 53
38 88 107 63 48 18 0 0 0 0 0 0 2 4 11 20
53 104 95 39 48 20 29 24 32 39 38 32 34 33 29 31
29 34 37 30 28 31 22 24 24 24 24 23 24 28 28 29
31 31 30 26 24 26 28 27 27 27 26 26 25 25 26 27
0 0 0 0 0 0 0 0 2 47 51 19 2 18 59 59
54 50 62 60 61 69 76 76 73 72 68 73 72 50 22 2
3 8 7 18 18 17 18 18 8 10 0 14 6 3 14 48
18 35 79 112 68 19 11 7 4 0 0 0 0 0 5 48
71 141 145 118 44 30 0 0 0 0 0 0 1 3 5 15
37 39 35 30 48 57 79 35 34 36 28 30 37 33 9 10
13 14 16 14 19 32 27 29 28 35 35 33 31 35 36 37
42 42 37 28 27 26 28 27 27 26 26 25 25 24 26 28
0 0 0 0 0 0 0 0 2 48 51 20 1 16 55 58
57 46 48 45 54 69 76 77 75 74 68 74 72 49 16 0
0 1 4 20 19 17 17 14 2 5 3 15 9 61 106 55
14 28 40 46 28 16 10 6 4 0 0 0 0 0 12 46
94 139 144 140 60 39 1 0 0 0 0 0 1 1 4 12
28 31 26 27 49 61 85 32 31 40 23 28 44 33 2 0
0 0 1 5 16 32 36 44 35 47 55 34 21 23 24 25
30 40 40 29 28 26 27 27 27 26 26 25 25 24 26 27
0 0 0 0 0 0 0 0 1 47 50 22 2 8 50 45
33 36 44 46 41 39 42 49 65 74 69 77 73 51 18 6
3 4 6 21 21 15 19 8 1 5 6 3 10 71 130 69
15 21 30 32 20 14 7 4 3 2 0 0 0 0 25 46
112 139 144 138 98 42 7 0 0 0 0 0 0 1 3 10
24 29 25 24 47 46 82 29 25 39 26 28 44 38 1 0
0 0 0 0 19 30 34 43 26 34 43 22 0 0 0 0
1 31 42 29 29 27 28 27 26 26 25 24 24 23 24 26
0 0 0 0 0 0 0 0 1 46 51 33 30 2 40 34
6 13 26 30 25 19 10 16 29 70 73 76 73 59 32 13
17 2 6 20 24 15 20 9 6 8 11 3 8 37 105 69
18 17 23 24 12 7 2 2 1 0 0 0 0 0 35 59
121 138 144 143 127 49 30 0 0 0 0 0 0 1 2 7
18 25 22 23 42 45 90 23 22 34 31 29 37 44 3 0
0 0 0 0 18 29 31 41 7 1 14 23 0 0 0 0
0 25 41 29 28 28 27 27 26 26 26 24 24 25 25 28
0 0 0 0 0 0 0 0 0 46 51 38 22 0 35 32
0 0 0 4 7 4 12 22 41 73 73 74 72 65 44 13
12 4 8 27 28 15 7 5 14 14 9 5 11 25 62 54
27 13 17 20 9 4 1 0 0 0 0 0 0 10 46 95
125 139 144 143 134 86 40 5 0 0 0 0 0 0 3 11
15 24 24 28 53 88 96 19 23 28 31 30 27 20 1 0
0 0 0 0 21 28 32 41 7 0 15 25 0 0 0 0
0 20 40 29 29 28 27 27 27 26 25 25 24 24 25 26
0 0 0 0 0 0 0 0 0 46 52 27 0 0 32 34
0 0 0 6 13 0 0 1 15 71 74 73 71 72 46 1
7 3 12 32 29 17 11 7 17 9 8 9 18 26 61 64
38 11 13 17 8 5 1 0 0 0 0 0 0 35 51 125
124 139 145 144 138 134 50 36 0 0 0 0 0 0 5 12
14 21 23 33 79 126 86 10 25 28 30 31 21 14 0 0
0 0 0 0 23 25 32 42 6 0 13 27 0 0 0 0
0 17 41 28 28 28 27 26 26 26 25 25 24 24 25 26
0 0 0 0 0 0 0 0 0 45 51 24 0 0 26 39
0 0 0 1 12 0 0 0 6 69 66 64 63 69 56 32
37 38 37 40 35 17 14 7 9 6 5 7 20 26 68 99
33 13 13 17 12 11 0 0 0 0 0 0 12 44 99 136
126 133 143 138 131 139 107 38 25 0 0 0 0 0 5 12
13 20 21 57 95 133 70 7 15 24 27 29 22 15 0 0
0 0 1 0 23 25 33 42 6 0 11 28 0 0 0 0
0 14 39 28 28 27 26 26 26 25 25 24 24 23 24 25
0 0 0 0 0 0 0 0 0 44 51 26 3 6 29 44
1 0 0 8 17 1 0 0 5 67 58 50 52 65 66 66
67 57 41 33 28 20 14 10 5 2 1 8 12 18 72 111
45 20 12 16 11 9 1 0 0 0 0 4 38 60 132 132
127 131 141 133 131 132 134 76 34 21 1 0 0 0 7 12
14 21 47 96 100 138 51 5 8 21 25 28 23 13 1 0
0 1 2 0 19 25 33 41 5 1 11 27 2 0 0 0
0 12 39 28 27 26 26 26 26 25 25 25 24 24 24 25
0 0 0 0 0 0 0 0 0 43 51 46 45 50 55 49
7 0 1 3 13 0 8 6 4 64 24 1 8 46 67 67
67 57 40 27 25 20 12 9 3 1 0 8 12 4 62 123
78 56 24 17 12 9 2 0 0 1 8 26 49 125 127 133
133 138 145 144 143 137 133 140 87 42 28 21 20 17 21 22
31 69 107 101 105 133 36 5 4 20 25 28 26 8 7 3
0 2 7 0 17 28 35 42 17 4 9 28 5 2 0 1
0 11 39 27 26 26 27 26 25 25 24 24 23 24 24 25
0 0 0 0 0 0 0 0 0 42 52 52 55 56 58 54
8 0 0 0 0 0 15 21 8 63 20 0 0 38 68 68
70 57 38 29 22 17 16 5 1 1 0 11 14 5 37 130
98 88 78 44 28 21 15 12 14 22 37 74 132 137 126 128
139 144 144 143 143 138 136 140 141 128 117 102 83 74 76 98
125 127 117 99 106 125 26 3 0 12 27 27 26 14 14 5
0 3 15 9 15 31 34 41 17 14 8 26 0 7 8 2
0 9 37 27 27 27 26 26 25 25 24 24 24 23 23 23
0 0 0 0 0 0 0 0 0 41 51 51 55 58 60 57
13 3 1 0 0 0 4 13 25 64 34 21 19 33 38 40
48 44 36 25 20 19 8 5 3 2 0 6 11 1 21 123
107 86 105 117 104 70 51 54 77 108 128 136 141 134 126 123
122 128 141 142 128 122 137 136 140 141 143 142 143 143 142 137
130 121 113 98 115 122 18 1 2 10 25 28 25 20 22 14
11 13 20 21 20 38 35 40 11 24 8 25 1 7 5 1
0 8 33 25 26 25 26 26 25 24 24 23 23 23 22 20
0 0 0 0 0 0 0 0 0 39 51 45 44 53 50 48
34 34 36 20 24 25 29 34 42 60 46 40 50 43 41 41
39 37 33 27 21 16 7 10 7 3 1 9 6 1 8 110
114 90 103 118 125 126 128 135 143 144 142 137 138 138 129 117
72 107 126 128 86 78 138 136 138 142 143 142 143 143 142 139
131 125 114 112 128 108 13 0 2 8 23 30 27 35 46 44
44 45 45 45 46 46 36 38 3 23 12 30 21 22 22 20
20 20 21 23 26 25 25 24 24 24 24 23 23 22 21 21
0 0 0 0 0 0 0 0 0 38 51 44 34 31 24 23
25 26 37 60 73 73 73 74 75 76 75 75 75 74 71 71
56 37 28 25 20 17 8 16 15 7 2 6 2 0 1 86
122 116 99 114 121 127 132 142 144 144 142 139 138 139 123 95
89 124 113 122 123 91 131 138 141 143 143 143 143 142 142 140
132 125 113 115 134 93 9 2 2 9 26 27 27 36 46 47
47 48 48 47 49 52 41 37 1 7 9 29 20 21 21 21
21 20 21 24 25 25 25 24 24 24 24 23 23 22 22 21
0 0 0 0 0 0 0 0 0 36 51 42 29 20 11 12
17 24 26 27 44 70 79 80 80 80 79 79 78 76 72 67
52 35 28 20 16 10 5 13 9 8 3 7 0 1 0 51
119 123 98 110 116 120 127 141 145 145 144 143 140 138 124 108
127 141 127 137 143 136 131 141 143 143 143 143 143 143 143 141
134 123 115 100 125 85 10 17 4 8 24 22 22 28 36 35
37 36 34 34 31 30 34 36 1 3 5 30 23 27 26 26
26 26 25 25 25 25 25 24 23 24 24 23 22 21 21 21
0 0 0 0 0 0 0 0 0 35 51 37 12 17 22 24
22 24 29 32 34 38 61 72 63 58 55 50 55 56 52 55
41 31 26 18 14 2 2 10 10 5 9 3 0 1 0 16
115 101 95 105 114 118 126 138 144 145 144 144 143 143 138 133
134 143 143 143 143 139 142 142 143 142 143 143 142 142 142 140
135 124 116 120 129 43 12 18 4 10 24 20 22 19 17 16
17 13 12 11 11 9 23 35 1 1 3 30 24 28 28 28
27 26 26 25 25 25 24 24 24 24 23 23 23 22 21 20
0 0 0 0 0 0 0 0 0 34 50 35 2 6 12 26
23 16 20 27 32 37 49 56 54 55 54 53 54 51 49 47
38 31 29 23 10 3 1 7 8 7 10 0 2 2 0 1
73 108 98 98 111 115 122 136 145 144 144 144 144 143 142 139
138 143 143 143 143 143 142 143 142 143 143 142 143 142 142 141
137 125 119 125 84 3 13 8 7 18 21 21 26 17 18 17
17 15 13 12 12 9 25 36 2 0 3 30 23 27 28 26
26 26 25 25 25 25 24 24 23 23 23 22 22 21 20 19
0 0 0 0 0 0 0 0 0 33 50 35 0 0 0 13
18 19 21 22 28 35 33 34 36 37 35 34 35 34 34 35
32 28 23 27 14 4 1 6 5 3 9 1 3 1 1 0
14 102 100 99 107 115 120 131 142 144 145 143 144 142 142 143
143 144 144 143 144 143 143 142 143 143 143 143 143 143 143 140
135 124 117 61 10 2 5 5 15 24 20 17 23 21 21 20
20 21 16 13 13 10 28 38 20 31 36 37 23 27 27 26
26 25 25 25 25 25 24 23 23 23 23 22 22 20 19 18
0 0 0 0 0 0 0 0 0 31 50 37 1 0 4 10
17 19 22 24 32 50 41 36 35 34 41 35 33 31 30 36
32 25 23 23 15 3 0 5 6 2 16 2 4 1 1 1
0 17 59 99 106 113 119 127 138 144 145 143 143 140 140 144
144 144 144 143 143 142 143 143 143 143 143 143 143 143 142 140
132 126 116 21 8 8 0 2 16 27 21 22 20 19 22 24
23 25 22 19 16 12 31 38 31 44 46 36 22 26 27 26
25 25 25 24 25 24 24 23 23 22 23 22 21 19 18 17
0 0 0 0 0 0 0 0 0 29 50 39 2 1 7 8
17 18 22 23 31 50 32 29 25 22 40 29 23 25 28 30
31 20 28 17 7 3 1 6 5 0 4 1 4 1 0 0
1 6 26 96 107 114 118 125 132 141 144 145 143 139 140 132
130 130 137 137 137 139 142 143 143 143 143 143 143 142 142 138
131 129 105 10 15 12 2 4 15 25 27 23 24 19 20 25
23 25 22 19 17 12 22 24 20 22 25 24 24 26 26 25
26 25 25 24 24 23 24 23 23 22 22 22 21 20 19 16
0 0 0 0 0 0 0 0 0 28 50 39 2 3 7 7
16 18 20 23 30 50 31 27 25 22 39 27 22 25 30 31
30 25 31 14 6 2 3 7 2 0 1 4 3 2 1 0
3 2 18 93 106 111 118 124 130 139 139 140 138 134 118 108
105 114 118 122 117 114 119 131 142 142 143 143 143 143 142 138
134 125 91 8 12 12 3 9 9 15 24 22 23 19 19 20
26 24 21 19 18 17 22 25 24 21 24 24 25 26 26 26
25 25 25 24 23 23 23 23 23 22 22 21 21 19 18 16
0 0 0 0 0 0 0 0 0 28 49 39 2 5 5 7
15 18 20 23 30 49 32 27 25 20 38 28 21 28 34 30
28 32 33 14 6 5 3 6 1 1 9 7 7 4 0 0
3 0 6 83 107 116 117 120 130 136 136 131 120 107 100 95
98 107 109 117 116 112 111 108 117 123 142 144 144 141 142 139
133 124 74 7 6 8 11 9 5 5 12 19 18 18 20 20
23 24 21 20 18 18 22 25 25 22 25 25 25 26 26 26
26 25 25 25 24 23 23 23 22 22 22 21 21 19 17 18
1 1 1 2 2 3 4 5 5 31 49 40 2 6 3 6
15 18 21 23 30 50 33 28 22 20 38 32 27 31 32 30
30 32 30 18 8 4 3 9 0 5 9 4 8 4 3 3
5 0 3 66 110 116 119 124 128 136 132 126 113 110 112 125
132 140 140 142 144 143 140 129 133 138 142 144 143 143 142 139
135 125 53 7 4 2 12 4 7 1 5 11 16 19 17 18
23 22 21 20 18 18 24 26 25 24 25 25 25 26 26 25
25 25 25 24 23 23 23 23 22 22 22 21 20 19 17 21
49 49 49 48 49 49 49 49 48 49 47 41 3 5 4 6
15 17 20 23 30 50 33 28 22 19 35 33 25 33 33 27
26 25 20 13 8 6 0 4 0 2 2 7 7 3 4 1
3 0 5 40 109 116 120 123 126 134 129 123 128 132 133 135
142 144 144 143 143 142 143 143 143 141 142 143 143 143 142 138
133 115 30 5 0 0 8 8 12 0 0 6 13 16 18 23
21 22 22 20 19 19 23 26 25 25 24 24 25 25 25 25
24 23 24 23 23 23 21 22 21 21 21 19 19 16 17 21
53 51 52 51 51 49 49 49 48 47 48 41 4 4 3 5
14 17 20 23 29 49 31 25 22 22 35 29 22 31 27 23
29 26 15 10 10 0 1 3 10 3 0 4 10 5 3 0
1 0 7 15 97 114 118 121 124 130 127 119 123 129 130 133
140 140 140 140 143 143 143 141 139 136 142 143 142 142 141 136
128 93 14 3 2 1 9 11 7 0 1 3 7 12 16 22
21 25 22 19 20 21 23 26 26 26 25 24 24 24 25 24
24 23 23 23 22 22 22 22 20 20 19 10 13 14 20 20
52 52 52 51 51 51 50 49 48 44 48 42 4 3 0 3
12 15 18 21 28 47 40 35 34 34 36 28 27 27 26 25
34 30 13 5 3 0 4 5 9 0 5 5 13 8 2 1
5 1 3 4 63 111 115 117 124 127 125 121 118 119 119 122
126 118 111 111 121 130 132 135 139 140 143 143 142 141 139 133
123 59 15 5 2 5 19 18 6 1 3 5 7 10 16 21
28 25 24 20 21 21 25 25 26 25 25 23 24 24 25 24
24 23 24 23 22 21 21 20 18 18 19 14 8 11 16 18
53 52 51 51 51 50 50 49 49 48 48 42 4 4 1 4
11 13 16 18 23 42 42 41 40 38 32 27 27 24 20 33
31 33 9 2 5 3 4 6 4 8 6 4 8 9 4 2
5 1 3 3 19 99 114 118 121 123 124 125 122 120 121 120
123 130 135 136 133 137 140 142 142 142 142 142 141 138 133 126
98 31 9 8 5 6 24 22 5 3 5 11 11 11 17 22
28 20 25 23 23 25 26 26 25 26 25 24 24 24 24 24
23 23 23 21 22 21 21 19 17 18 23 23 18 20 23 28
43 42 42 41 40 40 39 39 38 39 39 30 1 3 2 5
15 16 19 21 28 44 40 39 38 36 30 24 25 27 26 29
30 32 10 2 6 3 6 6 5 12 8 10 12 7 6 5
2 2 0 2 7 55 106 114 118 121 126 129 126 126 135 141
144 144 143 143 143 144 143 143 143 141 142 142 140 130 122 110
41 24 8 12 8 6 10 10 5 4 6 15 17 17 24 23
20 20 24 26 26 28 27 25 24 25 25 24 24 23 24 24
23 23 22 22 21 21 20 18 17 17 25 24 22 16 11 5
47 47 47 47 47 47 47 42 44 44 47 39 2 3 1 6
14 17 20 23 34 48 32 30 29 27 27 26 22 27 34 27
25 25 12 8 15 7 13 4 4 6 8 10 11 10 6 7
4 1 0 1 1 9 72 107 115 120 126 131 132 134 142 144
145 145 144 145 144 144 144 144 143 143 142 142 134 124 112 68
15 20 9 13 7 4 9 13 2 2 7 20 30 33 26 20
19 26 25 29 29 28 27 26 25 25 25 24 24 24 23 23
22 22 21 21 20 20 18 17 17 16 17 24 32 24 11 4
51 50 50 49 48 48 46 40 38 38 42 33 2 3 2 6
14 15 19 22 33 46 28 26 23 23 28 26 19 22 32 29
24 18 9 15 22 9 13 5 5 6 7 8 8 8 7 7
2 0 2 0 0 3 23 83 105 115 121 127 132 136 143 145
145 145 145 145 144 144 143 143 144 143 140 136 122 111 88 39
17 17 12 19 9 3 17 21 0 2 10 26 34 34 22 22
27 27 28 29 28 27 27 26 25 24 24 25 24 23 23 23
22 22 21 21 21 20 19 16 16 16 17 11 21 18 13 7
23 23 22 20 13 10 12 5 6 2 3 2 0 2 1 5
13 16 18 21 32 46 27 26 24 26 31 26 14 18 29 29
22 11 18 23 10 15 3 2 4 8 4 8 7 3 2 5
4 3 2 0 1 6 18 80 86 100 111 121 127 129 135 142
145 145 144 144 144 144 144 144 143 140 134 122 107 102 92 29
9 13 16 18 7 2 12 10 1 4 15 30 29 21 21 22
21 23 34 27 24 27 26 24 24 24 24 24 24 22 22 22
21 20 20 20 20 18 18 17 15 15 15 12 14 13 15 9
11 11 12 16 5 2 8 0 1 0 0 0 0 4 3 8
13 15 17 20 31 46 27 24 24 22 30 23 15 20 27 29
24 15 24 15 9 18 5 1 4 2 4 6 1 0 1 5
8 2 2 7 3 10 18 76 109 85 93 107 118 124 125 135
143 145 145 144 144 143 142 140 139 133 118 100 106 122 90 22
16 15 14 16 4 1 4 1 1 5 22 24 20 16 21 21
23 22 33 24 22 23 23 22 22 23 24 23 23 22 22 21
21 20 19 19 19 19 17 18 16 16 13 13 13 12 15 9
8 7 5 8 6 4 11 0 1 0 0 1 4 9 8 11
13 14 17 20 31 46 29 24 22 25 27 24 20 23 32 33
31 30 15 7 15 16 4 0 0 1 4 3 1 1 2 14
14 2 4 3 8 6 12 64 114 110 86 85 100 115 118 124
137 144 145 144 144 143 141 134 129 110 93 106 127 128 89 18
13 16 13 13 2 1 2 1 2 8 13 19 19 15 17 21
19 20 24 21 19 18 18 18 21 23 23 23 23 23 21 21
20 20 19 19 18 18 17 17 16 16 13 13 11 13 15 9
34 31 27 14 5 6 13 0 1 0 1 5 7 9 8 11
13 14 17 20 31 45 26 23 21 26 28 29 19 22 30 37
37 22 6 16 27 20 2 0 0 1 5 4 0 2 7 11
15 5 4 2 10 9 7 49 109 120 111 93 80 86 100 106
120 128 136 138 137 130 120 111 97 90 107 126 134 129 77 14
12 13 11 7 1 5 8 2 5 20 21 9 23 24 15 16
16 17 22 19 19 17 18 18 20 24 24 23 22 22 21 21
19 18 18 18 18 17 18 16 16 11 15 13 11 12 12 6
43 40 33 15 3 7 16 1 0 0 3 2 4 7 4 8
11 13 16 19 29 46 29 26 26 29 30 28 20 23 32 32
34 17 11 23 35 25 4 0 0 4 7 5 1 7 7 9
16 6 3 4 12 16 7 35 103 124 122 113 99 87 76 73
78 84 91 96 94 85 80 85 99 113 127 137 137 128 55 15
10 10 9 2 2 6 14 3 7 28 24 14 36 17 6 2
8 11 21 22 20 16 17 17 20 23 23 23 22 22 21 19
19 18 18 17 17 17 18 16 14 11 14 18 39 11 3 2
37 33 25 13 5 12 15 3 0 0 4 4 7 9 5 8
8 10 13 16 25 44 41 40 38 34 31 28 25 21 31 30
24 12 23 23 39 37 6 0 3 7 10 12 3 5 5 10
9 7 1 7 16 28 9 25 89 123 124 119 115 111 103 90
74 62 57 58 61 75 97 116 123 128 137 141 139 122 34 15
7 7 8 2 5 10 16 5 16 22 17 30 33 13 2 0
6 3 18 20 22 21 19 19 20 24 23 23 23 23 24 21
20 15 10 10 9 39 47 45 43 35 36 36 46 43 42 30
21 21 23 25 29 32 35 35 21 0 1 2 6 8 4 11
12 12 13 15 20 40 40 38 36 32 29 25 25 17 13 19
18 15 31 27 35 42 11 4 8 3 17 15 11 7 2 2
6 16 5 4 8 12 10 23 70 120 125 123 122 120 118 115
106 94 82 79 90 110 125 132 133 135 140 142 137 89 23 15
5 9 5 6 9 14 21 10 20 10 9 25 19 10 5 0
3 4 15 21 21 18 16 22 27 38 39 39 41 41 42 41
37 35 16 1 2 15 23 22 23 25 26 24 20 13 19 21
45 43 40 37 34 29 25 32 29 0 0 0 4 8 3 11
12 14 17 19 22 41 42 36 32 30 25 20 17 11 10 10
12 9 24 33 23 34 15 10 13 6 13 26 14 4 2 3
5 10 14 5 10 6 10 20 56 116 127 120 120 122 123 125
127 125 124 128 132 138 141 138 137 138 140 142 122 61 19 17
8 11 4 10 14 19 30 27 9 7 9 11 8 14 11 2
4 4 13 19 18 20 20 21 21 34 43 42 39 39 38 38
36 35 30 2 0 0 0 0 0 0 0 0 1 1 0 1
8 6 4 3 1 0 0 15 30 0 0 0 2 8 4 11
12 13 16 19 24 43 35 27 23 22 22 23 15 10 8 5
1 2 14 33 18 23 24 15 21 8 13 25 17 4 0 6
10 15 10 4 15 11 10 15 42 104 126 124 125 121 123 128
134 138 143 143 145 143 142 137 137 136 141 137 100 54 29 17
11 13 8 12 23 25 26 25 10 15 13 10 7 16 19 15
18 12 11 17 22 20 21 20 20 20 31 35 33 32 29 29
28 25 24 4 0 0 0 0 0 0 0 0 0 0 0 0
1 1 2 3 4 4 6 10 25 0 0 0 1 7 4 9
11 14 16 19 24 43 35 24 23 20 26 28 23 11 10 6
2 7 5 24 19 21 24 8 18 13 12 21 11 6 2 8
17 23 13 1 7 4 12 12 27 82 122 125 125 121 120 123
128 136 143 144 143 140 136 136 134 139 141 127 88 47 28 20
20 12 9 17 34 36 21 16 18 18 8 4 4 10 22 27
20 4 10 19 23 22 22 23 23 22 20 25 27 25 25 24
21 21 20 6 5 2 0 3 4 3 2 2 1 0 0 0
3 2 2 1 1 1 1 2 21 0 0 0 2 5 4 10
11 14 16 19 23 42 36 25 23 21 29 33 23 11 10 9
2 4 4 15 21 21 26 8 17 23 19 16 13 11 9 16
21 23 15 6 5 5 14 16 22 60 107 122 123 121 120 120
121 129 135 139 135 131 132 133 136 139 138 109 66 47 25 22
23 17 16 24 35 29 24 18 17 12 0 2 3 1 12 6
9 3 18 22 23 23 22 24 23 24 19 19 27 24 24 23
23 22 19 3 7 4 1 7 9 9 8 8 7 7 6 4
0 0 0 0 0 0 0 5 31 0 0 0 2 2 5 9
10 13 16 19 23 42 37 27 25 23 30 34 21 14 10 5
3 7 15 10 23 17 24 9 19 23 19 13 11 12 14 24
21 24 19 14 9 9 19 19 25 57 93 111 121 122 119 121
123 125 124 127 130 136 139 136 138 138 130 87 59 42 25 21
27 19 16 27 28 18 25 26 12 7 0 2 3 0 7 9
10 1 20 22 23 24 26 27 24 25 22 18 22 25 24 24
22 21 17 1 8 2 3 7 9 12 11 13 12 11 9 7
1 1 1 1 0 0 0 1 9 1 0 0 1 1 6 8
10 12 16 18 22 40 36 25 20 19 28 31 23 14 9 3
6 19 22 15 33 16 18 14 16 21 21 15 7 7 11 11
18 28 18 18 15 15 29 21 26 49 92 103 116 123 121 121
126 131 136 138 139 138 140 136 138 140 115 77 66 33 28 26
25 22 16 26 25 15 24 36 6 4 1 10 10 7 11 11
8 1 19 19 24 24 26 27 22 26 23 19 17 24 25 24
22 21 13 0 7 1 6 10 11 12 11 10 6 5 5 4
0 0 0 0 0 0 0 0 0 0 0 0 5 8 10 11
12 11 15 17 21 39 35 24 23 14 23 24 24 14 5 11
19 12 25 19 24 14 7 15 25 23 18 17 5 4 6 6
17 36 23 26 18 27 27 20 26 38 90 108 108 122 121 121
126 133 139 142 142 142 139 138 142 134 99 72 54 36 34 26
21 24 19 20 20 12 20 30 2 1 4 26 29 16 13 10
5 2 21 17 22 27 27 27 23 25 25 19 19 18 24 24
22 20 8 0 1 0 3 8 9 6 5 3 1 2 2 2
0 0 1 2 2 4 5 7 11 10 11 14 24 28 31 33
33 27 13 15 21 35 38 31 30 19 17 19 16 15 4 10
19 10 23 22 15 10 4 13 28 21 26 18 6 4 13 7
19 26 26 27 23 28 28 26 33 29 80 105 111 117 122 121
125 131 137 141 142 143 144 141 139 114 74 59 49 34 34 22
26 26 28 22 22 18 12 20 2 3 15 25 29 23 16 10
5 3 19 16 19 24 25 26 24 22 25 19 19 17 21 24
22 20 6 0 0 0 1 5 3 1 0 0 0 1 1 0
28 33 35 38 42 39 44 44 49 50 48 43 44 45 45 46
48 48 36 12 13 20 26 26 26 16 14 14 13 9 0 4
14 7 22 20 12 4 3 23 31 24 28 7 11 7 13 6
14 15 25 23 24 37 24 22 26 25 62 102 114 111 118 117
124 134 138 142 144 143 139 138 126 91 68 62 42 27 26 21
29 22 30 28 17 13 8 7 0 14 22 21 24 20 17 12
2 5 19 17 18 24 25 27 25 20 20 20 17 20 16 23
21 19 4 0 0 0 0 0 0 0 0 0 0 0 0 0
51 54 51 50 53 50 50 49 49 50 49 48 45 48 49 48
50 50 50 27 2 10 19 23 16 11 11 14 11 4 0 5
9 11 18 14 8 0 11 21 26 25 24 2 11 10 11 17
12 17 20 20 13 37 26 20 19 23 36 98 112 112 116 118
118 123 130 134 137 136 137 133 112 92 68 64 34 30 26 20
32 27 25 23 10 6 6 10 6 12 17 10 12 17 19 14
3 3 19 17 20 22 26 28 26 21 14 22 18 22 17 18
22 18 2 0 0 0 0 0 0 0 0 0 0 0 0 0
45 45 47 48 51 52 47 52 56 57 55 57 43 49 53 55
54 55 52 50 31 31 40 28 12 10 10 13 12 9 5 10
13 12 15 8 3 2 10 14 19 23 18 0 13 13 13 22
19 20 16 18 12 24 25 20 19 18 27 72 109 112 114 120
120 120 124 129 129 136 137 128 109 87 68 54 33 28 32 21
15 37 24 18 5 3 14 15 9 6 22 7 5 15 18 14
2 4 21 18 20 20 24 26 27 22 10 21 14 22 20 15
21 17 0 0 0 0 0 0 0 0 0 0 0 0 0 0
53 50 55 51 62 56 61 56 48 58 57 58 59 49 60 64
62 57 51 42 28 22 20 14 12 8 11 13 14 16 17 11
13 12 4 1 5 6 10 12 14 21 7 3 12 12 15 18
23 33 21 12 14 18 20 18 22 20 19 51 93 108 114 116
119 122 126 130 135 136 132 120 105 82 61 51 34 34 32 25
11 25 35 20 5 4 24 22 6 1 9 4 4 16 19 14
2 5 24 17 21 19 24 25 26 20 8 20 16 20 24 17
16 12 0 0 0 0 0 0 0 0 0 0 0 0 0 0
63 57 60 57 59 56 58 56 53 56 55 54 53 51 50 39
27 21 20 22 24 24 16 12 13 10 14 14 15 18 17 15
13 15 10 5 6 4 6 6 17 10 6 4 9 8 8 16
37 40 31 12 11 13 17 14 19 23 21 38 80 102 111 115
120 124 124 130 134 135 130 113 97 83 60 52 38 28 35 27
12 18 31 29 11 7 36 34 8 0 2 0 6 17 19 16
1 6 24 16 21 18 23 26 27 21 6 19 17 18 23 19
13 9 0 0 0 0 0 0 0 0 0 0 0 0 0 0
49 48 47 45 44 41 41 38 36 33 30 28 26 25 19 16
19 21 21 22 23 19 13 13 19 14 16 15 17 20 15 18
13 17 11 11 12 13 16 10 10 1 4 0 5 1 2 13
36 39 27 9 11 8 14 15 14 18 21 30 63 93 114 116
118 123 124 130 134 134 126 110 97 81 59 48 32 29 33 27
18 21 27 38 19 7 38 37 5 0 0 1 9 17 20 18
2 9 25 17 20 19 22 26 26 19 6 19 17 18 24 22
16 10 0 0 0 0 0 0 0 0 0 0 0 0 0 0
18 14 12 10 9 7 5 3 2 1 0 0 1 13 17 18
20 22 22 24 23 15 14 15 22 14 17 17 17 19 14 19
13 17 13 12 15 18 17 6 4 6 1 2 4 0 0 8
19 24 20 13 10 13 20 18 29 51 56 54 68 109 118 122
123 125 127 128 132 133 126 117 104 84 45 23 18 30 33 21
14 20 23 30 17 7 20 13 3 0 0 2 12 18 19 19
5 10 25 19 19 17 21 26 24 17 6 19 17 17 24 22
19 14 5 0 0 0 0 0 0 0 0 0 0 0 0 0
0 0 0 0 0 0 0 0 0 0 0 0 10 15 15 20
21 21 23 24 18 18 14 17 20 14 16 19 20 19 12 18
12 18 16 17 19 19 19 8 1 6 1 1 0 4 1 4
11 17 22 16 16 23 27 28 64 90 98 94 92 120 127 134
134 135 136 136 139 139 131 121 105 78 32 28 17 18 19 17
13 15 17 19 16 16 11 9 3 0 0 2 13 20 21 21
8 11 24 20 18 16 22 25 23 15 5 19 16 16 23 22
21 15 11 0 0 0 0 0 0 0 0 0 0 0 0 0
0 0 0 0 0 0 0 0 0 0 0 6 13 13 17 20
20 21 22 20 16 19 14 18 18 14 17 19 22 19 11 16
16 18 20 21 18 18 20 10 0 6 5 9 7 6 4 3
9 12 11 14 20 18 23 56 93 109 116 116 112 132 141 145
145 144 145 145 145 144 140 130 107 71 54 61 33 14 8 6
9 8 13 12 8 8 9 7 8 0 0 10 16 20 21 23
10 12 25 21 14 13 23 24 20 12 6 20 17 16 21 22
21 17 13 4 0 0 0 0 0 0 0 0 0 0 0 0
0 0 0 0 0 0 0 0 0 0 3 10 10 14 17 18
20 20 21 17 21 17 14 20 16 13 17 18 22 19 12 15
19 18 24 22 16 19 22 16 4 3 8 14 15 13 11 3
4 8 13 11 14 19 24 75 113 120 128 134 132 145 147 146
146 146 146 146 146 146 145 144 118 81 91 91 55 9 6 5
3 6 11 16 14 8 13 16 9 1 2 14 18 21 21 23
11 13 24 21 7 15 25 24 18 9 7 20 18 18 21 22
20 19 12 9 0 0 0 0 0 0 0 0 0 0 0 0
0 0 0 0 0 0 0 0 0 0 4 8 12 15 17 18
19 19 19 17 20 16 14 20 16 13 17 19 24 20 9 13
20 18 25 24 16 20 23 20 9 3 13 14 20 17 17 12
9 7 6 8 10 11 16 22 85 132 146 147 147 138 147 147
147 147 147 146 146 146 146 144 133 115 109 73 16 9 11 8
10 16 19 23 21 22 21 21 14 5 5 15 22 24 24 25
13 13 23 22 3 16 25 21 15 7 7 20 18 17 20 21
19 19 14 11 6 0 0 0 0 0 0 0 0 0 0 0
0 0 0 0 0 0 0 0 0 0 6 7 12 14 16 17
18 20 17 19 20 18 15 21 15 12 17 19 23 18 9 12
22 18 24 24 16 20 26 24 17 7 17 19 26 23 19 25
23 22 21 23 23 23 25 18 26 85 147 149 148 145 147 147
147 147 146 147 146 146 146 145 145 136 84 25 19 23 19 14
17 22 23 25 24 24 23 25 19 12 11 19 26 25 25 25
13 12 22 21 1 18 23 18 14 7 10 21 17 19 21 19
18 21 17 12 9 0 0 0 0 0 0 0 0 0 0 0
0 0 0 0 0 0 0 0 0 0 7 8 12 14 15 16
18 18 19 19 20 18 16 20 15 9 16 20 25 21 10 9
23 20 26 24 17 17 26 25 23 9 17 21 27 25 19 27
25 26 25 27 26 27 31 23 26 29 60 129 149 148 148 148
148 148 148 147 147 147 146 146 138 73 27 22 24 27 26 22
24 25 26 24 28 25 24 27 20 17 15 21 27 27 25 26
16 13 22 20 0 20 21 16 13 6 12 20 18 19 22 19
18 21 20 14 11 4 0 0 0 0 0 0 0 0 0 0
0 0 0 0 0 0 0 1 0 1 6 9 11 13 15 16
17 17 20 21 20 16 16 21 16 6 17 21 24 19 11 7
22 21 26 25 17 18 25 26 25 18 21 26 30 27 20 27
29 25 27 26 28 28 33 31 26 28 29 36 86 139 148 148
148 147 147 147 147 146 144 112 49 30 27 29 29 28 28 27
27 27 21 27 29 26 25 27 22 20 19 22 27 27 25 26
16 12 21 20 1 20 18 13 11 6 15 21 17 21 23 20
16 20 21 15 12 11 8 9 8 7 5 3 3 2 1 1
0 0 0 0 0 0 0 0 0 1 4 9 10 12 13 15
16 16 20 20 20 17 16 20 13 4 16 20 24 21 11 4
22 21 24 24 16 16 23 26 25 19 20 24 29 26 20 24
28 28 24 27 28 28 27 35 29 27 28 29 28 39 80 118
144 147 147 146 137 101 58 32 29 26 28 30 29 28 27 27
27 25 20 28 27 25 28 26 21 19 20 22 26 26 23 24
18 12 20 24 2 18 16 10 8 5 16 22 16 20 22 19
15 17 22 16 10 10 8 7 7 7 7 7 7 7 6 6
0 0 0 0 0 0 0 0 0 1 3 8 10 11 12 14
14 17 19 19 20 17 16 20 14 1 15 19 23 19 13 2
20 21 22 22 15 15 20 24 25 18 18 23 27 27 21 22
27 26 25 23 26 27 27 33 28 28 27 28 26 28 31 34
43 69 87 82 38 27 27 27 27 27 28 28 28 27 27 26
25 23 22 26 26 22 26 25 22 18 21 23 27 26 23 23
19 12 17 24 5 15 13 6 6 5 17 23 17 18 21 20
15 14 22 18 12 8 9 6 6 6 5 5 4 5 7 11
0 0 0 0 0 0 0 0 0 1 3 7 9 10 12 13
14 18 19 18 17 17 17 19 15 0 14 17 22 19 14 1
18 23 22 23 14 14 19 24 24 20 17 22 25 28 22 22
25 27 25 25 20 25 27 30 27 27 27 26 25 27 28 32
32 33 29 41 27 26 25 25 26 27 27 26 26 27 27 25
25 19 24 26 24 22 26 25 22 18 21 25 26 24 23 21
19 10 16 23 7 6 12 0 3 5 17 21 16 17 22 18
15 11 16 20 12 8 8 8 4 5 4 4 3 4 7 11
0 0 0 0 0 0 0 0 0 0 2 6 8 8 10 11
15 17 17 18 15 16 16 19 15 0 10 18 21 19 14 1
14 22 21 22 14 14 16 23 23 20 18 19 24 27 23 18
23 26 24 23 23 20 23 26 28 27 26 26 26 26 27 28
29 30 28 35 25 26 24 23 25 27 26 27 26 26 26 23
24 14 24 25 23 22 25 24 21 18 19 24 26 23 22 20
20 9 14 23 11 1 8 0 1 6 17 20 17 16 20 19
14 12 13 20 14 8 8 6 5 3 3 3 3 3 6 12
0 0 0 0 0 0 0 0 0 0 3 7 8 8 11 14
16 18 18 17 16 15 17 18 16 1 9 18 22 19 14 2
13 22 24 22 15 14 16 22 23 22 17 18 23 26 25 18
20 30 26 23 22 24 22 22 33 26 26 26 26 27 26 29
30 29 31 26 27 26 25 25 26 26 26 27 26 25 22 24
17 17 25 24 23 22 26 23 21 20 19 24 26 24 22 21
20 9 14 24 16 1 9 0 1 6 17 20 17 17 21 20
14 13 13 18 17 12 8 6 7 5 4 4 3 4 8 14
0 0 0 0 0 0 0 0 0 0 3 6 7 9 12 17
17 17 20 18 16 14 16 19 16 1 6 18 23 19 14 4
10 23 24 22 15 13 15 20 23 21 19 18 22 25 25 19
19 26 26 24 20 21 25 23 36 25 25 26 26 28 29 29
30 31 33 24 26 26 25 25 27 26 25 25 23 23 25 21
14 20 27 25 22 25 25 23 21 21 21 22 25 25 24 20
22 10 12 21 22 2 8 0 1 7 17 20 16 17 20 20
14 11 12 16 21 15 7 9 10 4 4 4 4 5 9 15
0 0 0 0 0 0 0 0 0 0 3 6 7 10 16 17
19 17 17 20 18 16 16 18 16 2 5 18 22 19 15 6
6 24 24 22 15 14 15 20 23 21 19 17 21 27 27 21
18 25 26 26 23 20 20 23 34 24 22 25 26 28 27 26
27 26 30 25 25 26 25 25 26 26 25 23 26 26 22 22
13 22 27 24 23 27 25 24 21 22 21 23 26 23 23 19
23 11 12 21 24 5 8 0 0 7 17 20 17 16 21 19
14 11 12 15 21 16 12 14 13 6 5 5 5 6 11 17
0 0 0 0 0 0 0 0 0 0 3 6 7 13 15 17
18 17 17 20 19 16 16 18 17 3 4 18 22 18 15 6
3 22 24 23 16 13 15 20 25 21 19 17 21 25 27 23
19 20 25 28 22 22 19 19 29 38 24 21 22 26 27 27
26 29 27 25 25 24 25 25 25 22 24 28 27 23 23 17
16 24 25 23 23 28 26 23 21 22 22 22 25 23 23 20
24 12 10 19 23 12 6 2 0 7 17 21 19 16 21 20
14 11 13 15 16 20 14 12 12 9 7 7 6 7 12 17
0 0 0 0 0 0 0 0 0 0 3 5 10 14 17 19
18 17 18 18 18 16 17 19 17 4 3 18 22 17 15 6
1 22 24 22 16 13 15 18 23 22 19 17 20 24 26 24
18 18 24 26 24 23 21 20 21 37 24 27 26 22 21 21
23 30 25 24 23 22 21 22 25 28 27 24 23 23 24 14
18 24 25 22 25 27 26 23 21 22 23 24 25 21 22 19
25 15 11 17 24 19 11 5 0 7 18 21 18 15 19 19
12 9 13 16 15 21 16 13 13 11 12 11 8 8 14 18
0 0 0 0 0 0 0 0 0 0 4 7 15 18 15 16
18 17 18 18 19 15 16 18 17 4 2 18 22 18 15 8
0 19 26 21 16 14 15 18 23 24 18 17 19 23 25 25
20 18 23 25 23 24 22 21 19 31 22 24 26 27 28 29
25 28 23 22 23 24 26 28 27 25 23 22 22 25 21 13
21 25 25 21 26 28 26 24 22 22 24 26 26 22 22 20
25 17 11 16 23 21 16 9 0 8 18 20 20 16 19 21
15 8 12 18 16 21 18 14 14 12 15 13 8 9 15 18
0 0 0 0 0 0 0 0 0 0 3 7 14 12 14 15
16 17 18 19 18 17 16 19 19 6 1 18 21 16 15 9
0 14 23 20 14 13 15 19 24 24 21 17 18 21 25 26
21 18 22 25 25 24 24 24 22 24 24 22 24 25 25 28
35 27 27 27 28 27 26 27 26 25 22 21 23 25 18 14
22 26 23 22 26 27 24 25 22 21 25 25 24 22 22 20
24 18 10 16 23 21 16 13 0 9 19 21 19 15 20 22
17 5 12 17 17 21 18 13 13 13 13 12 8 10 16 17
