P2
128 120
151
1 0 0 0 0 0 2 16 53 53 48 60 60 12 0 0
6 14 8 0 0 2 25 72 73 51 28 31 31 32 26 8
4 7 9 13 19 33 39 37 37 32 27 27 37 34 35 42
63 25 0 5 11 24 16 12 10 38 67 67 53 54 56 51
56 60 64 64 62 46 48 51 54 46 52 55 53 47 21 20
27 41 41 41 40 39 38 46 48 46 45 41 38 36 35 33
32 31 31 31 29 29 28 28 28 37 38 36 34 35 34 30
24 23 22 22 21 21 21 20 20 20 21 24 25 25 24 21
0 0 0 0 0 0 0 3 39 62 53 63 61 13 0 0
0 0 0 0 0 0 22 72 73 55 33 33 32 33 34 22
4 3 8 13 12 15 15 19 22 10 11 8 19 20 24 30
62 27 0 5 14 32 19 6 9 31 67 65 22 9 31 14
22 28 36 42 56 48 50 52 55 53 56 58 56 53 23 20
27 42 41 40 39 38 37 45 49 47 44 40 41 41 43 37
36 34 32 30 27 28 27 27 27 32 34 33 32 33 32 31
24 22 22 21 21 20 20 20 20 19 20 23 24 24 22 18
1 0 0 0 0 0 0 0 22 66 56 63 61 14 0 0
0 0 0 0 0 0 19 71 73 58 35 34 36 34 29 20
4 0 0 14 17 8 2 4 4 3 2 0 5 9 10 23
62 29 5 22 15 52 46 11 3 32 66 65 23 2 12 0
0 4 12 4 42 49 50 52 53 54 56 56 56 55 28 19
29 44 43 41 41 39 38 44 46 45 43 43 44 45 45 38
36 38 39 35 33 31 30 29 27 29 14 13 16 21 26 28
24 22 21 21 20 20 20 19 19 20 20 22 25 24 23 10
0 0 0 0 0 0 0 0 11 66 62 64 63 14 0 0
0 0 0 0 0 0 16 70 72 60 24 14 26 17 5 0
0 3 3 16 25 18 12 8 11 1 0 0 0 2 6 20
64 32 11 26 32 48 40 39 9 22 67 66 24 0 2 5
0 14 23 13 42 48 46 49 49 54 56 55 54 53 29 19
28 46 43 40 41 42 43 42 12 13 26 36 40 41 44 35
6 9 16 23 29 29 34 35 31 28 12 4 5 3 1 5
25 21 21 20 20 19 19 18 19 18 20 23 25 24 24 18
0 0 0 0 0 3 11 24 42 68 65 65 65 16 0 0
0 0 0 0 0 0 15 70 73 63 25 0 2 2 3 1
3 4 4 11 22 24 17 9 8 5 3 1 0 0 1 17
65 36 6 24 36 47 30 32 16 17 65 68 32 0 5 2
0 19 26 18 42 41 11 18 26 36 44 47 47 51 31 19
26 44 44 37 35 40 47 47 6 0 1 12 16 15 22 34
1 0 0 0 1 4 8 15 23 29 10 0 2 2 0 1
25 22 21 21 20 20 19 19 19 19 20 22 25 25 23 21
5 9 18 26 39 54 63 68 71 71 66 63 67 40 23 18
11 10 8 5 4 3 18 70 74 66 41 12 0 2 1 2
4 3 7 3 11 28 29 21 15 14 6 4 7 4 6 22
67 38 0 6 22 38 32 21 4 14 65 69 35 0 8 3
1 12 15 11 42 41 2 1 4 5 4 9 8 38 33 19
21 28 36 41 44 45 49 49 9 0 0 6 10 12 14 35
2 0 0 0 0 0 0 0 6 29 8 0 0 0 0 1
26 21 22 21 20 20 20 19 19 19 20 23 25 25 24 22
46 51 46 48 50 59 70 71 71 72 66 54 60 63 62 63
55 58 60 58 56 54 56 70 72 66 41 9 0 0 0 1
1 2 5 15 18 27 31 22 26 23 5 1 5 6 2 18
65 40 0 0 0 6 5 1 0 14 66 71 37 0 4 1
2 6 0 1 41 39 2 1 0 0 0 0 0 33 33 19
13 0 1 6 12 21 29 40 10 0 0 3 1 4 10 35
4 0 0 0 0 0 0 0 5 29 3 0 0 0 0 1
28 22 21 21 21 20 20 19 20 20 20 23 25 25 24 22
58 61 59 63 67 70 71 72 72 68 63 52 56 60 56 55
62 67 67 65 60 57 48 29 37 42 42 7 0 0 0 1
1 3 7 34 31 34 34 25 31 27 1 0 0 4 2 17
57 43 0 0 0 0 0 0 0 13 66 71 41 0 2 9
9 19 1 1 41 40 7 7 2 11 0 0 0 34 35 20
13 0 0 0 0 0 0 11 11 0 0 0 0 0 8 32
2 0 0 0 1 0 0 0 3 29 2 0 0 0 0 2
29 23 22 21 21 21 21 20 19 20 21 22 26 25 25 23
69 68 69 68 69 66 62 59 36 26 35 27 9 15 29 31
43 49 51 48 52 56 45 23 31 41 46 7 0 0 0 0
0 0 4 35 34 39 38 19 24 19 0 0 3 9 8 21
60 46 1 0 0 0 0 0 0 11 65 73 48 1 8 26
23 31 6 2 42 40 9 10 4 22 9 0 0 34 35 21
14 0 0 0 0 0 0 7 11 0 0 0 0 0 10 36
4 0 0 0 8 7 0 0 3 30 1 0 0 0 0 0
29 23 23 22 21 21 20 20 20 20 22 23 26 26 26 23
63 62 60 59 54 41 39 45 19 18 35 19 0 3 3 3
15 23 17 4 12 36 43 55 54 51 37 2 0 0 0 2
6 3 3 11 11 37 30 2 5 6 5 3 5 7 8 23
61 57 35 31 30 28 27 23 21 27 67 74 53 7 10 7
7 9 7 3 41 40 8 11 3 19 14 0 0 34 34 21
15 0 0 0 0 0 0 5 10 0 0 0 0 0 8 39
5 0 0 0 9 10 8 4 2 30 2 0 0 0 0 0
27 24 23 23 22 21 21 20 21 21 22 24 27 26 26 24
43 49 54 57 58 57 56 54 45 40 51 18 0 0 0 0
1 7 1 4 16 35 66 65 57 33 14 0 1 14 3 1
8 6 7 5 1 28 23 0 0 5 2 1 7 2 4 18
57 71 71 67 64 62 58 55 51 49 53 57 38 5 7 15
18 9 4 1 39 39 6 9 6 3 6 0 0 34 34 20
16 0 0 0 14 4 0 4 10 1 1 0 0 0 8 40
7 0 0 0 10 11 10 8 1 30 4 0 0 0 0 0
27 24 24 22 23 21 22 21 21 22 23 23 27 26 26 25
34 36 37 41 43 44 46 51 60 53 63 20 0 1 0 0
0 2 0 5 6 33 73 70 58 10 3 0 4 12 2 8
4 6 5 2 6 30 34 2 2 3 0 0 0 0 0 15
66 70 55 57 55 55 58 59 56 49 42 41 17 5 5 10
17 9 5 2 39 37 3 9 11 1 1 0 0 34 34 21
16 3 14 7 8 2 0 4 12 0 0 0 0 1 10 40
9 0 0 0 4 9 10 6 0 30 15 5 1 0 0 0
26 24 24 23 22 22 22 22 22 22 22 24 28 27 27 24
5 3 1 1 2 3 3 17 60 66 67 27 4 10 3 0
0 0 0 1 1 36 75 71 60 11 8 4 3 2 5 7
3 4 3 5 3 25 35 7 3 1 1 0 0 0 0 16
71 57 7 6 9 13 20 27 35 47 56 49 56 53 47 42
40 33 25 21 44 40 5 6 9 1 1 0 0 36 35 21
17 9 10 0 5 5 0 4 13 0 0 0 0 1 18 42
19 5 2 1 0 1 6 5 0 29 37 33 29 25 23 21
32 25 24 23 23 23 23 22 22 22 23 24 28 27 27 23
0 0 0 5 25 20 0 12 63 68 67 39 42 52 32 13
0 2 8 1 1 39 75 70 60 9 7 9 13 19 22 20
17 12 10 8 16 30 40 6 10 6 11 3 0 0 0 15
68 58 9 0 1 6 4 1 1 15 63 61 45 45 49 51
60 61 61 61 52 61 45 28 35 35 34 29 25 42 33 22
19 7 2 0 0 1 1 6 36 25 17 16 9 3 3 44
40 33 31 29 21 14 9 6 4 31 39 36 35 34 39 42
40 26 24 24 23 23 22 22 23 22 24 24 28 28 27 22
0 0 0 8 38 33 5 11 64 69 69 52 40 38 44 10
7 21 41 13 2 39 73 68 60 8 0 0 0 14 9 15
35 28 41 47 48 46 42 21 20 18 15 9 3 0 2 26
70 59 20 0 8 7 12 6 2 13 64 67 30 20 21 31
32 31 29 43 64 74 60 39 49 53 57 55 53 52 32 22
18 2 0 0 0 0 0 6 49 52 42 43 43 42 38 52
29 14 17 18 21 23 24 28 33 40 31 30 33 34 39 41
40 27 24 23 23 23 23 22 22 23 24 24 28 28 27 21
0 0 0 7 32 32 10 11 65 70 69 40 10 21 24 12
23 29 48 27 4 39 72 69 59 8 2 0 1 6 9 23
52 43 50 59 61 54 25 1 3 13 25 30 23 11 17 39
70 59 23 9 11 13 33 26 8 12 63 66 34 21 19 24
21 19 7 29 72 75 52 40 49 56 58 58 60 57 33 23
20 4 0 0 0 0 0 6 51 47 44 50 52 55 47 43
27 12 13 12 12 11 9 8 8 10 9 13 17 23 26 24
24 24 24 24 23 23 22 22 22 23 24 24 29 28 27 20
0 0 0 6 28 30 15 13 67 71 69 22 1 7 13 17
20 20 25 8 1 40 73 69 61 8 1 0 5 7 11 28
48 42 53 65 69 60 30 0 0 1 18 31 25 15 23 57
70 57 31 45 30 26 30 10 2 11 62 65 25 5 15 12
4 9 7 30 69 67 41 35 47 54 54 56 58 58 34 24
27 35 33 25 15 9 4 9 46 39 46 50 52 55 50 40
29 14 14 12 10 8 7 6 6 5 5 6 5 15 25 23
22 22 25 24 24 23 23 23 22 24 24 25 28 28 27 17
5 0 8 5 22 35 38 19 66 71 67 16 9 33 10 5
10 6 1 2 1 42 74 70 63 9 3 6 5 1 3 23
40 39 59 75 76 66 35 0 0 0 9 16 13 18 27 64
73 55 29 36 26 20 29 30 9 9 61 61 21 4 14 13
7 8 7 27 62 60 24 3 10 11 12 16 20 45 37 25
29 51 59 57 53 49 45 43 47 33 42 47 49 52 50 43
34 16 14 11 8 8 7 7 7 7 7 7 7 19 15 5
24 25 25 24 21 23 24 23 23 24 25 24 29 28 27 17
8 3 12 10 19 30 40 21 66 71 67 15 1 5 0 0
0 0 0 0 2 42 75 72 64 10 3 8 5 1 9 11
17 33 59 76 77 70 39 0 0 16 39 41 37 41 43 70
74 57 22 19 14 17 39 36 19 16 53 45 21 16 11 8
8 9 9 15 21 28 17 7 11 1 0 2 6 35 38 26
32 67 88 64 57 56 55 56 45 10 12 18 23 30 32 34
37 17 13 9 2 1 2 6 9 8 6 9 11 20 28 24
30 32 31 23 2 19 24 24 23 24 23 21 28 28 26 18
0 4 14 7 10 16 16 15 67 71 67 13 0 0 0 0
1 1 0 0 1 43 75 71 64 10 0 1 6 1 12 9
4 30 57 74 75 70 40 0 0 12 41 45 56 66 53 51
71 69 56 46 48 50 43 25 23 15 18 14 13 9 5 6
8 8 6 5 10 11 10 3 5 9 10 11 13 35 39 33
103 145 144 134 105 72 56 57 41 4 0 0 0 4 13 23
38 16 12 6 0 0 0 1 4 2 0 3 3 15 32 30
25 27 29 30 26 24 24 23 23 22 6 13 26 27 27 17
0 2 31 18 0 3 3 13 69 72 68 28 16 14 12 9
6 4 2 1 2 45 73 70 64 11 1 4 7 4 10 13
11 23 52 71 71 69 40 0 0 11 41 42 50 57 30 10
59 69 58 29 49 63 48 25 16 11 11 9 4 7 6 6
6 10 16 11 10 8 2 2 3 7 7 16 34 36 42 97
145 144 144 144 144 143 107 56 37 1 0 0 0 1 2 22
39 13 11 6 0 0 1 0 0 0 0 0 0 10 34 28
20 19 20 22 24 25 24 23 24 22 4 14 24 26 27 19
0 5 42 26 0 0 0 14 69 64 64 69 72 68 63 57
51 48 47 43 39 58 72 69 63 12 0 1 2 1 3 4
3 7 49 69 71 69 41 0 0 17 55 56 49 41 31 4
47 65 58 23 38 47 29 21 14 10 6 7 9 7 11 16
14 12 7 4 9 6 4 3 4 2 4 12 24 32 62 118
145 143 144 144 143 144 143 100 36 1 0 0 0 2 0 15
38 9 5 0 0 0 7 3 0 0 0 0 0 9 33 30
13 22 27 20 22 24 25 24 24 24 17 18 26 28 29 24
0 10 39 28 0 0 0 12 54 49 60 67 80 79 76 73
69 68 72 71 72 73 71 69 63 14 5 5 6 5 5 6
5 5 50 69 70 71 49 15 14 18 36 62 58 54 44 13
38 61 48 18 20 28 20 19 13 8 12 15 12 18 18 10
11 11 6 7 7 6 2 1 2 1 7 14 11 17 41 102
126 135 143 144 144 143 143 128 38 1 0 0 0 0 0 17
35 0 0 0 0 0 3 10 4 0 0 0 0 9 34 32
8 18 18 16 21 24 24 24 23 23 22 18 28 28 29 28
0 15 35 26 1 0 0 13 41 52 62 71 81 78 75 75
72 73 75 75 76 75 73 71 64 31 50 51 51 52 49 47
44 41 62 70 73 73 62 62 65 56 29 29 49 60 57 35
30 41 42 20 26 23 23 13 15 9 14 12 15 17 9 9
11 6 5 7 12 7 5 4 4 5 10 12 12 13 19 42
84 94 128 135 143 143 143 142 51 1 0 0 0 0 0 19
36 0 0 0 0 0 2 12 10 7 0 0 0 7 34 33
13 11 14 11 21 24 24 24 25 24 23 18 28 28 29 28
7 20 34 24 5 1 5 31 42 53 62 71 69 69 71 65
67 67 60 64 72 74 74 74 74 68 67 72 73 77 64 56
61 67 73 66 76 76 71 71 67 55 63 36 11 14 18 11
15 7 21 20 25 23 22 17 11 13 16 17 19 12 10 16
11 7 8 14 13 8 7 5 8 7 11 7 13 8 11 15
27 57 129 138 137 143 141 143 75 0 0 0 0 0 0 20
33 0 0 0 0 3 12 15 11 11 0 0 0 7 34 35
21 18 13 11 20 23 25 24 24 24 23 18 27 29 29 29
55 55 57 55 50 42 24 27 33 43 48 51 53 54 56 56
68 46 15 21 29 42 48 47 68 74 69 73 75 78 62 60
65 71 77 76 80 79 77 74 59 30 70 70 34 3 1 0
14 12 20 30 25 23 26 21 15 19 22 26 17 15 25 19
14 13 12 13 13 11 10 10 10 11 9 9 14 9 8 7
15 31 111 143 144 144 134 140 81 0 0 2 7 2 0 18
30 0 0 0 0 2 13 18 8 2 0 0 0 5 32 36
22 14 1 0 16 23 25 24 25 25 23 16 28 29 29 29
63 50 52 61 65 56 15 0 4 6 4 4 7 4 5 8
58 46 8 13 1 20 37 13 57 76 79 71 69 68 63 66
70 76 81 83 83 82 81 78 62 19 67 73 39 17 6 1
20 22 21 28 31 28 34 29 26 36 38 30 26 31 27 16
21 19 20 20 17 13 13 9 9 12 13 16 9 8 3 8
9 16 60 141 143 144 143 139 50 1 0 10 19 8 0 18
30 0 0 0 0 0 0 13 2 0 0 0 0 2 31 38
21 9 1 0 14 22 26 24 25 24 21 17 28 29 28 27
57 10 8 10 14 21 6 0 0 0 0 0 3 0 2 4
55 50 12 23 1 12 24 22 60 76 75 48 46 52 61 64
69 74 78 79 79 80 79 80 66 12 61 73 30 9 1 1
23 21 27 31 37 42 56 55 57 54 48 49 47 46 38 32
36 31 29 23 21 19 18 14 16 19 19 15 9 4 5 8
6 7 21 112 145 143 132 68 20 2 1 18 19 13 1 18
28 0 1 0 0 0 0 12 4 0 0 0 0 1 30 37
11 6 0 0 13 21 25 25 25 25 21 20 29 29 29 28
65 19 3 1 3 22 3 0 0 0 0 0 5 0 3 6
52 58 11 15 14 19 38 56 69 77 70 12 5 26 40 26
30 35 40 42 44 46 48 58 68 14 53 74 54 19 11 14
26 17 30 44 56 76 90 89 89 79 76 77 75 62 59 55
53 41 42 35 37 31 32 19 21 25 20 13 8 3 4 6
6 5 8 44 138 144 99 1 26 26 23 31 27 25 15 25
27 0 0 0 0 0 0 12 6 0 0 0 0 0 27 36
7 3 0 1 19 20 25 25 25 24 20 23 29 29 28 28
65 41 13 6 13 28 1 0 0 5 4 0 3 0 0 8
51 60 3 0 22 48 41 69 73 77 70 12 1 25 35 9
8 9 11 13 11 9 8 24 69 36 50 75 71 64 56 39
23 24 43 69 88 103 114 116 110 110 109 106 97 89 84 74
67 63 57 56 53 49 36 35 33 22 19 13 9 3 7 4
4 4 1 14 82 145 95 0 27 46 46 49 47 46 49 51
33 2 3 1 0 0 0 14 7 0 0 0 0 0 21 36
6 0 0 0 15 20 25 25 25 24 19 24 29 30 28 25
68 60 25 9 10 27 0 0 3 10 4 0 0 0 0 2
43 64 8 5 12 31 40 65 72 77 69 13 0 22 38 7
4 8 7 15 12 9 11 23 70 52 47 74 72 73 67 33
34 55 76 97 113 120 124 130 131 127 121 121 113 107 102 83
81 71 67 68 64 57 53 46 29 22 22 14 6 5 9 3
6 4 5 5 19 108 42 0 25 47 46 49 47 48 54 55
45 25 25 21 14 12 12 19 14 8 5 5 3 3 16 34
8 3 4 2 3 17 25 25 24 24 19 25 29 29 29 22
64 67 30 2 8 30 6 7 10 17 0 0 0 0 0 0
34 68 15 11 7 12 32 54 69 78 70 14 0 23 41 8
6 9 6 14 14 12 24 35 70 55 39 73 73 72 61 43
71 93 112 122 133 141 141 141 138 136 131 130 128 117 105 93
85 79 79 80 70 69 65 48 27 29 24 16 8 8 9 7
3 2 7 2 7 22 15 0 23 43 43 44 44 46 52 52
46 36 35 35 33 31 31 30 27 24 20 19 17 17 23 36
20 16 13 8 6 15 25 24 25 22 20 25 29 29 28 23
51 69 41 0 8 34 14 19 24 27 1 2 5 0 0 1
31 71 12 1 0 6 18 45 68 78 70 15 0 22 42 13
17 10 8 14 14 15 23 24 65 47 27 71 73 71 51 78
100 113 126 135 143 143 142 142 142 138 134 129 126 121 109 100
96 96 95 88 85 82 69 49 39 36 26 18 13 17 14 9
4 4 0 0 3 4 11 1 24 42 40 41 41 40 37 33
36 37 37 37 36 34 34 34 33 31 31 29 25 23 25 39
37 35 33 29 25 20 25 25 25 22 19 26 30 29 28 24
43 61 56 5 9 36 15 21 30 29 2 8 15 7 8 7
33 73 15 0 0 2 15 47 65 76 69 15 0 17 43 14
24 4 8 8 7 5 20 29 59 48 8 31 34 38 64 112
118 123 136 143 143 143 143 143 143 137 136 134 124 119 115 103
97 103 99 99 99 92 74 51 42 36 34 22 18 17 12 7
7 2 2 4 5 2 6 11 28 45 39 39 39 38 37 37
38 39 39 41 43 41 36 34 33 33 41 41 37 34 34 34
32 30 31 31 31 25 24 24 24 23 20 25 30 30 28 25
34 55 67 19 11 39 15 22 30 30 3 1 5 5 4 7
36 76 22 0 1 3 17 33 61 75 67 13 1 12 46 12
19 2 5 5 7 12 22 40 55 53 1 0 1 14 99 123
131 133 139 144 143 144 143 143 144 142 139 139 135 127 127 119
112 113 110 107 97 92 69 53 41 38 34 28 24 20 15 10
7 5 4 6 5 3 1 11 35 47 41 40 40 40 41 42
45 43 41 44 49 46 36 32 31 34 43 42 39 37 36 33
25 18 17 16 17 20 25 25 24 23 19 26 30 30 28 25
43 51 69 37 13 41 15 22 28 31 4 2 15 5 0 11
35 76 33 6 13 7 19 26 61 74 65 12 1 8 50 14
10 2 3 3 6 5 17 34 49 58 3 1 3 37 115 132
137 140 143 144 144 144 144 143 143 143 141 141 141 131 123 116
114 114 114 108 92 80 62 52 44 39 30 29 23 15 10 10
4 3 8 4 4 4 5 6 29 47 44 40 41 40 42 46
49 45 42 43 46 42 37 36 29 28 40 40 37 37 38 35
32 24 22 20 19 22 25 25 25 22 20 26 30 30 28 26
56 55 71 57 19 43 16 21 26 31 5 0 6 1 0 8
26 74 42 13 13 8 12 13 60 72 62 10 0 6 54 21
2 2 6 16 13 4 5 12 36 63 7 4 7 62 125 138
142 142 142 143 144 143 144 143 144 143 142 138 133 138 130 119
117 118 112 106 93 74 68 58 46 37 35 29 23 12 11 7
4 9 7 1 4 7 6 4 17 36 28 28 23 21 24 30
42 47 42 35 25 29 31 28 29 28 26 11 10 13 19 21
28 29 25 25 27 28 29 28 25 21 22 26 30 31 28 26
73 72 73 66 32 45 15 18 18 20 2 0 0 1 3 5
18 74 47 1 4 4 7 9 59 72 60 7 0 3 51 20
1 3 11 30 25 9 1 3 27 68 24 21 20 86 127 141
143 144 144 144 144 145 144 144 144 144 144 143 142 141 140 135
127 121 112 97 89 80 70 57 47 45 33 26 21 20 10 3
8 6 3 1 7 6 8 1 8 29 14 4 0 0 1 2
22 47 38 13 2 3 7 9 20 33 24 1 0 0 0 6
21 24 23 24 28 30 34 32 25 19 24 27 31 31 28 25
73 71 67 47 23 53 28 30 32 34 36 41 46 50 55 60
67 83 58 14 15 14 14 19 65 74 61 6 0 2 46 21
1 1 8 28 25 10 1 2 22 74 59 59 53 104 131 140
143 145 144 145 144 145 144 144 144 144 144 143 143 143 142 142
138 124 112 100 91 87 65 55 50 41 37 31 26 16 10 10
9 6 2 2 8 7 9 9 4 32 15 5 0 0 0 4
23 45 27 1 0 0 0 3 23 34 25 0 0 0 0 6
21 6 2 3 4 4 19 35 26 20 25 27 30 30 29 25
68 54 27 4 11 70 75 76 78 79 81 83 84 85 86 86
86 86 76 58 65 64 62 62 74 65 59 14 6 7 44 30
8 7 8 16 14 9 7 6 20 72 59 59 67 109 131 137
143 145 144 145 145 145 144 144 145 144 144 144 143 143 143 143
141 133 119 109 97 81 64 57 54 51 50 37 26 19 13 12
10 3 5 3 6 8 9 11 7 18 16 9 0 0 0 8
29 44 16 0 0 0 0 0 21 34 26 0 0 0 0 4
20 6 0 6 2 0 12 35 26 21 27 28 31 31 30 25
43 17 8 7 16 72 83 83 84 84 86 86 87 87 87 87
86 87 78 53 60 61 62 65 73 63 70 58 56 52 60 69
58 56 58 56 54 52 54 57 59 80 55 41 52 111 133 140
144 144 144 144 145 144 145 145 144 144 144 144 143 143 143 144
142 134 123 111 101 74 67 66 65 62 47 41 34 27 16 14
7 7 2 4 6 12 6 9 7 22 19 9 0 0 2 5
18 41 10 0 0 0 0 0 21 32 25 0 0 0 0 2
20 7 0 5 3 0 10 35 26 21 27 28 31 31 30 26
56 56 55 53 54 79 85 85 85 85 85 84 83 80 73 64
59 53 40 13 12 12 13 22 63 75 80 70 77 72 67 87
85 80 85 85 82 78 83 87 87 86 52 8 12 104 133 139
144 143 144 145 145 145 145 144 144 144 144 143 143 143 143 143
143 138 120 104 93 89 84 84 85 67 54 48 38 22 15 14
8 7 4 6 9 14 4 6 8 26 29 3 0 0 7 8
13 40 8 0 0 0 0 0 21 32 23 0 0 0 0 0
18 9 0 1 0 0 10 35 26 21 26 28 30 31 30 28
68 67 67 66 65 73 73 65 70 69 68 65 62 59 38 7
4 3 3 6 11 3 5 12 62 78 82 81 79 74 65 85
89 88 89 82 79 79 82 88 88 87 65 9 5 100 132 138
143 143 144 145 145 145 144 145 145 144 143 144 144 143 143 143
143 142 132 119 109 108 108 101 84 72 74 55 32 21 16 14
10 7 9 4 10 10 4 9 8 17 33 13 1 0 7 6
9 40 7 0 0 0 0 0 19 35 23 1 0 0 0 0
17 12 0 2 1 0 9 35 25 23 27 28 31 31 30 29
60 61 64 60 63 66 63 56 64 65 64 64 61 60 36 0
0 0 2 13 22 6 7 14 62 78 82 81 77 72 61 70
75 75 75 73 70 70 71 69 65 63 51 10 7 103 130 138
143 143 145 145 145 146 145 145 145 144 145 144 144 144 144 143
143 143 141 131 119 114 108 96 94 100 78 58 42 25 22 17
8 11 7 8 14 9 3 11 10 14 31 13 1 0 7 8
10 40 6 0 0 0 0 0 14 35 24 3 0 0 0 0
15 15 0 0 0 0 8 34 24 23 27 28 31 31 30 30
58 58 59 55 58 61 61 60 60 62 64 64 61 59 35 0
0 0 1 4 10 4 7 14 61 79 76 69 66 59 52 48
51 49 52 51 46 47 55 37 16 16 11 9 16 110 129 135
139 143 144 144 145 145 145 145 145 144 144 144 143 144 143 144
143 144 143 142 138 130 120 111 110 102 87 72 44 33 21 15
16 8 7 11 15 9 4 16 15 11 24 11 4 0 0 0
9 40 7 0 0 0 0 0 11 36 23 1 0 0 0 0
13 20 0 0 0 0 6 32 23 23 26 27 30 31 30 29
55 54 54 54 54 53 52 52 51 53 57 61 63 61 38 0
0 0 1 2 5 5 8 15 59 79 73 58 30 16 10 12
26 30 35 27 15 25 55 36 10 12 6 9 21 114 129 132
137 140 143 144 145 145 145 144 144 145 144 144 144 144 143 144
144 143 144 143 143 142 141 137 123 109 92 68 46 35 31 20
13 10 12 14 17 4 10 20 22 15 17 9 8 0 0 1
6 40 10 0 0 0 0 0 9 37 24 4 0 0 0 1
13 24 0 0 0 0 7 30 22 24 26 28 30 30 26 25
54 54 53 53 52 52 51 50 50 39 12 40 66 63 39 0
0 0 2 7 15 20 10 16 57 78 73 54 15 3 1 3
11 25 26 8 0 21 56 36 9 10 7 8 28 116 130 133
136 138 142 144 144 145 145 144 144 145 144 144 144 143 144 144
145 144 143 143 144 143 143 139 127 114 95 65 45 36 28 18
14 13 17 18 17 12 14 18 26 17 19 16 13 7 7 11
8 37 25 14 13 16 14 13 20 40 27 30 29 27 29 31
36 30 6 4 3 2 10 28 22 23 25 27 30 29 25 27
49 49 49 48 48 48 49 49 49 34 1 27 64 61 39 0
0 3 23 19 30 40 15 16 57 80 74 54 20 11 10 14
13 17 24 6 0 20 57 37 9 6 3 1 31 115 127 134
135 137 143 143 141 132 124 122 119 116 125 137 144 144 144 144
144 143 144 143 143 143 143 142 137 121 99 77 55 39 29 20
19 27 19 27 24 28 26 20 32 24 19 26 23 26 31 31
31 34 46 48 44 44 46 47 46 46 28 33 38 39 42 47
49 41 27 25 25 24 25 26 22 21 25 27 29 25 27 27
12 12 14 15 16 18 22 37 50 35 1 18 59 58 43 14
12 23 52 45 56 59 28 19 56 79 73 53 27 22 23 22
14 19 28 6 0 21 57 39 11 5 4 7 25 55 104 126
134 139 142 136 114 74 57 65 69 88 104 107 122 130 135 143
144 144 143 144 144 143 143 143 137 124 107 83 48 35 29 28
40 31 34 27 28 28 26 27 38 29 19 28 27 34 34 31
29 29 41 52 49 47 47 49 49 47 30 29 35 37 41 46
46 41 25 25 25 24 24 23 23 21 24 25 26 27 29 27
0 0 0 0 0 0 0 26 50 36 1 14 56 53 48 46
49 46 56 61 68 68 58 54 65 74 69 51 27 22 25 16
4 16 27 9 3 23 58 42 27 25 36 42 29 44 61 114
131 136 142 137 101 80 72 76 92 92 102 118 132 142 144 143
143 144 143 143 144 143 143 143 140 124 99 72 62 41 36 39
34 42 38 25 27 32 32 28 36 37 14 28 36 32 35 32
27 27 30 33 35 35 34 33 33 34 28 23 27 30 31 27
25 26 26 27 27 25 24 24 24 23 22 22 26 29 28 27
0 0 0 0 0 0 0 23 50 37 1 15 54 54 53 54
58 51 57 65 70 70 68 67 68 72 69 50 25 19 23 11
4 12 20 15 3 21 57 42 35 43 31 27 30 66 63 84
128 136 145 135 112 98 100 115 122 127 108 110 130 136 142 144
144 143 143 143 143 143 143 143 139 117 103 83 48 40 43 31
36 63 84 41 15 18 20 18 31 34 20 18 31 32 32 29
28 27 28 21 23 22 24 23 22 25 27 28 30 31 30 27
23 24 26 26 26 26 26 25 24 24 24 26 29 30 28 26
0 0 0 0 0 0 0 22 50 38 2 14 51 57 53 50
59 58 60 68 73 74 72 70 68 73 69 49 19 5 8 7
9 16 13 8 5 19 55 42 47 44 32 21 32 84 84 86
96 130 142 123 132 113 116 123 130 141 140 112 133 138 141 143
143 143 143 143 143 143 143 143 135 102 72 55 37 22 21 27
76 142 143 132 44 19 24 22 32 28 20 12 23 25 22 17
17 22 29 27 29 28 34 35 31 31 33 34 38 40 39 32
27 25 26 27 26 26 25 24 24 23 25 26 29 29 28 24
0 0 0 0 0 0 0 21 50 39 2 14 49 59 55 47
50 47 55 67 74 75 74 72 68 74 69 48 13 0 0 1
9 19 9 0 2 19 55 45 56 53 54 60 58 61 107 101
82 124 135 118 125 120 114 107 114 136 144 135 129 138 140 142
139 134 129 117 107 99 88 89 83 77 56 61 20 31 41 64
138 143 134 90 100 13 23 23 21 25 16 22 19 27 20 9
7 22 30 38 41 35 47 50 26 19 20 21 25 30 40 34
28 26 26 26 26 26 25 24 24 23 24 25 29 29 25 20
0 0 0 0 0 0 0 21 50 40 5 9 42 51 38 40
45 47 45 46 51 57 67 72 69 76 69 49 15 4 2 1
7 18 8 0 0 17 50 48 72 66 34 44 36 43 82 86
96 135 145 124 125 106 104 84 57 55 93 112 90 113 93 85
91 93 87 99 116 130 141 143 126 98 77 60 42 65 57 124
144 141 142 104 109 36 25 22 18 14 11 14 27 24 28 12
7 26 28 36 40 25 35 43 10 0 0 0 0 8 38 37
28 27 27 27 26 26 25 25 24 24 23 24 28 29 23 14
0 0 0 0 0 0 0 20 50 44 26 8 31 42 10 15
27 30 25 18 14 20 39 70 73 77 71 56 26 14 12 1
4 9 5 0 0 17 52 43 77 60 47 24 23 15 21 38
63 134 145 122 106 88 101 71 51 28 45 107 84 70 90 110
127 125 141 144 143 143 143 142 134 104 86 57 76 63 88 138
127 135 144 135 122 47 24 18 18 11 15 12 15 28 34 23
10 24 26 35 35 3 3 28 10 0 0 0 0 4 35 36
28 27 27 26 26 26 25 24 24 24 24 24 28 26 22 8
0 0 0 0 0 0 0 20 51 46 29 5 26 39 1 0
2 7 10 7 12 22 41 72 74 74 70 63 37 13 10 1
2 1 1 0 0 21 60 52 85 70 36 22 37 28 36 30
72 133 141 117 103 87 127 107 84 26 52 119 101 128 134 141
145 144 139 142 143 143 143 143 136 98 84 72 66 69 116 140
138 142 142 128 121 47 30 13 17 15 16 13 10 19 36 25
18 29 27 35 35 2 1 25 11 0 0 0 0 1 32 35
27 26 27 26 26 25 25 24 24 24 24 25 28 25 21 16
0 0 0 0 0 0 0 19 51 43 8 0 22 39 1 0
0 5 10 0 0 4 28 71 73 73 70 71 37 3 5 3
3 3 4 5 15 46 65 49 91 85 38 48 53 38 68 46
95 134 128 119 115 92 122 112 109 95 128 144 109 142 144 143
142 144 144 143 142 142 143 143 137 111 82 73 79 103 127 73
107 142 143 117 114 24 33 19 16 20 15 11 8 18 26 35
19 27 25 35 34 2 1 25 13 0 0 0 0 0 29 35
27 27 26 25 26 25 25 23 24 23 24 24 27 25 20 17
0 0 0 0 0 0 0 18 52 43 5 0 17 42 3 0
0 2 10 0 0 0 14 68 67 67 65 70 50 32 36 38
41 44 47 51 58 61 68 57 78 87 51 60 41 18 54 73
119 132 126 109 115 90 114 116 111 118 135 142 97 141 144 144
145 144 143 143 144 143 142 143 138 118 105 94 117 136 139 105
65 116 143 111 89 14 27 21 14 22 15 12 5 13 29 38
30 30 24 34 35 2 1 22 15 0 0 0 0 0 27 36
27 26 26 26 25 25 24 24 23 23 23 24 26 27 19 10
0 0 0 0 0 0 0 17 50 44 11 8 22 46 6 0
0 5 14 1 0 0 12 66 57 50 52 68 66 66 68 69
70 72 73 74 73 70 73 67 61 86 59 50 43 33 65 96
132 141 128 115 119 122 131 132 135 131 138 142 89 143 144 144
143 143 143 143 142 142 142 142 134 122 121 125 141 141 141 141
102 109 141 111 56 19 24 14 17 28 16 15 10 11 28 31
34 36 26 36 34 3 2 20 17 0 0 0 0 0 25 35
26 26 26 25 25 25 24 24 23 23 23 24 26 28 23 14
0 0 0 0 0 0 0 15 51 48 41 45 50 52 13 0
0 3 11 0 6 5 11 61 26 7 15 55 67 69 70 71
73 72 72 75 75 74 71 59 52 87 59 37 40 48 96 115
144 144 135 112 135 134 143 141 134 141 142 139 91 145 144 144
143 143 143 143 143 142 142 141 132 125 121 134 142 141 130 142
135 126 140 98 27 23 15 9 18 24 22 19 13 14 23 27
39 27 28 35 36 13 5 18 19 2 1 1 0 0 23 35
26 26 26 25 24 25 24 24 23 23 22 23 26 27 23 16
0 0 0 0 0 0 0 15 50 50 54 56 58 55 15 0
0 0 1 0 15 17 15 59 18 0 2 48 67 70 72 73
71 68 71 74 74 68 40 25 48 64 60 42 52 58 100 123
145 145 144 126 111 130 145 143 142 137 138 122 111 145 144 144
144 144 143 142 142 142 141 141 129 123 124 137 142 142 136 130
142 137 137 70 24 18 4 13 22 31 26 21 15 11 5 11
21 29 30 34 32 19 11 18 16 2 7 6 0 0 21 34
25 26 26 25 24 24 24 23 24 23 22 22 24 27 23 19
0 0 0 0 0 0 0 13 49 50 54 56 59 57 23 4
2 0 0 0 6 15 28 60 30 18 20 36 41 45 54 59
63 60 62 64 64 46 9 4 33 40 68 37 49 76 112 135
145 145 145 139 113 119 145 143 144 139 140 100 139 144 144 144
143 143 143 142 141 141 141 141 132 117 127 139 142 142 141 132
141 140 126 49 23 15 3 14 30 38 39 27 16 9 5 2
11 27 27 35 29 16 20 17 17 5 10 8 3 2 19 28
25 26 25 25 25 24 24 23 23 22 22 21 23 26 21 19
0 0 0 0 0 0 0 12 50 48 44 50 49 47 35 30
32 24 25 27 31 37 46 60 49 44 51 46 45 46 46 47
55 51 50 46 38 30 20 19 28 33 36 49 62 84 118 136
145 145 145 142 124 126 126 141 143 140 122 119 144 142 143 143
143 143 143 141 141 141 141 142 135 121 134 141 141 130 136 141
142 142 114 29 18 12 10 15 38 39 43 31 26 18 13 6
9 35 32 37 26 7 21 18 26 22 22 21 19 19 20 22
24 25 25 24 24 24 24 23 23 23 21 20 22 25 19 20
0 0 0 0 0 0 0 11 50 48 37 33 26 24 25 26
33 48 64 70 71 71 73 74 73 73 74 74 74 74 72 69
65 57 49 42 38 36 35 35 38 38 40 44 49 75 123 141
144 144 143 143 121 133 137 116 115 109 119 136 136 142 143 143
142 142 142 142 141 141 140 142 140 130 136 141 142 141 142 142
141 140 70 20 18 13 7 19 27 27 42 28 31 31 13 8
18 36 33 37 25 1 8 15 26 22 22 21 21 21 21 22
24 25 25 25 23 23 23 23 22 22 21 20 22 24 19 20
0 0 0 0 0 0 0 10 48 48 32 22 14 12 14 22
25 29 42 61 75 79 79 78 77 76 75 74 72 71 70 69
68 65 56 45 45 40 41 40 42 43 47 51 54 100 138 145
144 144 144 144 133 121 144 142 142 137 138 141 143 142 142 143
142 143 142 142 141 142 141 141 141 139 138 141 141 134 140 141
141 119 18 23 16 22 16 28 26 18 30 31 30 36 10 13
31 34 40 29 26 2 4 13 28 25 26 26 25 24 24 23
24 24 24 24 23 23 23 22 22 21 21 20 21 21 20 20
0 0 0 0 0 0 0 9 48 47 21 15 18 23 24 22
26 30 32 36 55 69 64 59 57 54 57 59 59 60 61 60
61 61 59 54 53 53 53 53 53 53 53 52 46 95 133 132
132 142 144 144 142 128 143 143 143 144 144 143 143 143 143 142
143 143 142 141 141 141 141 141 141 139 140 142 140 117 135 142
125 31 9 20 14 16 26 31 32 29 25 31 29 25 10 18
28 29 36 28 26 5 2 11 28 25 27 27 26 26 25 25
25 24 24 24 24 23 23 23 22 22 21 20 20 20 21 20
0 0 0 0 0 0 0 9 48 46 12 3 8 22 24 16
20 24 31 35 43 53 51 50 49 49 49 49 49 49 48 48
47 46 45 44 44 43 42 40 40 40 40 39 37 86 109 111
82 92 137 145 141 134 144 144 144 144 143 143 143 144 143 143
143 142 142 143 143 141 142 142 142 142 140 136 137 142 142 125
34 9 10 15 20 13 30 29 31 32 33 28 25 25 9 26
24 24 32 29 26 12 9 16 28 25 27 27 26 26 25 25
25 25 24 24 24 23 23 22 22 21 20 19 19 23 23 22
0 0 0 0 0 0 0 8 48 47 12 0 0 8 18 18
21 23 28 37 36 38 38 39 38 37 37 37 38 40 40 40
42 40 38 38 41 47 45 37 36 35 35 34 35 83 112 101
109 122 122 134 131 142 143 144 145 144 144 144 144 144 145 143
143 144 144 143 143 143 142 142 142 141 141 117 107 137 114 42
13 12 12 10 21 15 28 38 32 27 38 31 25 28 15 31
27 24 31 30 29 30 37 40 32 25 28 27 27 27 26 26
26 25 25 24 24 24 24 23 23 22 20 19 19 25 24 23
0 0 0 0 0 0 0 8 48 47 16 0 2 9 17 20
22 25 30 47 43 37 34 32 40 37 30 30 32 41 36 39
48 36 29 29 37 53 48 31 28 28 30 30 31 72 119 111
114 145 145 138 145 145 145 145 145 145 145 145 145 145 145 145
144 144 144 144 143 143 144 143 141 139 136 109 93 95 37 18
15 12 19 16 33 19 31 39 34 26 32 26 31 25 20 25
21 21 31 29 28 32 38 40 30 26 28 27 27 26 27 26
25 26 25 25 24 24 24 24 23 22 20 19 21 26 24 24
0 0 0 0 0 0 0 8 48 48 17 1 7 9 16 20
22 25 30 47 39 30 28 24 37 34 23 27 31 43 45 48
52 38 31 31 40 55 51 36 34 35 37 35 34 60 117 114
134 147 146 146 147 147 146 146 146 146 146 146 146 146 146 145
145 145 145 145 145 144 145 143 143 141 130 125 115 68 34 16
15 17 26 21 40 20 23 28 28 23 39 29 33 30 25 22
24 21 37 32 24 24 25 27 26 27 28 28 28 28 27 27
26 26 26 25 25 24 24 24 24 22 21 19 22 26 27 25
0 0 0 0 0 0 0 7 47 48 18 3 8 7 16 19
22 24 30 47 37 29 27 24 36 34 23 25 31 45 49 50
52 48 46 47 50 53 53 49 50 48 48 46 38 46 108 117
139 146 147 146 146 146 146 146 146 145 145 146 146 146 146 145
145 144 145 145 145 144 144 144 143 141 130 122 94 60 24 14
12 17 24 21 28 14 15 15 21 17 41 35 30 30 32 23
28 24 31 26 26 24 25 25 26 26 27 28 27 26 26 26
25 25 25 25 24 23 24 23 23 21 20 17 23 25 27 25
0 0 0 0 0 0 0 6 47 49 19 4 8 7 15 18
21 23 29 47 38 28 25 22 35 34 21 23 30 46 56 56
56 56 56 56 56 55 55 55 54 50 48 39 37 33 88 121
137 147 147 146 147 146 147 146 146 146 145 146 145 146 145 145
145 145 145 144 144 143 144 144 140 138 128 110 92 48 17 21
11 17 27 24 20 13 13 12 15 15 30 39 28 25 26 25
19 24 26 26 23 24 26 24 26 27 27 27 26 26 26 25
25 24 24 24 24 23 23 23 22 21 20 18 23 25 28 24
10 10 11 12 13 14 14 22 47 48 21 3 6 6 15 18
21 23 28 47 39 29 25 20 34 35 22 23 30 45 56 56
55 56 56 56 55 54 55 54 52 50 42 36 36 23 63 110
125 138 146 146 146 146 146 146 146 146 146 146 146 146 146 145
145 145 144 145 144 144 144 143 142 135 126 101 85 43 21 20
15 20 29 29 17 19 15 12 9 13 21 32 19 12 21 23
24 18 27 30 23 23 27 26 26 26 26 26 26 26 26 25
24 24 24 23 23 23 23 23 21 21 18 21 23 27 26 24
50 49 49 49 48 48 48 47 49 47 22 3 5 5 14 17
20 22 28 46 39 28 24 20 33 35 20 23 29 44 55 56
56 55 55 55 54 54 54 53 51 48 38 34 33 23 39 89
104 111 121 134 144 146 146 146 146 145 145 145 146 145 145 145
145 145 144 144 144 143 144 143 140 131 118 92 78 36 20 21
21 23 23 17 17 19 16 8 8 13 18 24 16 9 18 25
21 18 18 25 24 27 29 27 24 25 26 26 26 25 25 25
24 23 23 23 22 22 22 19 18 19 16 22 22 27 26 24
52 52 51 51 50 49 49 47 47 47 22 3 3 4 12 17
20 23 28 45 39 28 26 25 34 37 26 28 33 44 53 53
53 53 52 52 51 49 49 47 42 41 33 33 30 23 24 79
81 99 96 98 105 117 120 124 143 146 146 146 145 146 145 146
145 145 145 145 144 144 144 142 136 127 107 85 67 34 22 20
22 22 14 9 17 18 11 4 12 9 20 16 15 13 12 23
24 13 14 15 21 23 29 30 26 25 25 25 25 25 25 25
23 23 23 22 22 21 21 16 10 13 15 20 22 27 25 21
53 52 52 51 51 51 50 48 47 48 23 3 2 1 9 14
17 20 25 41 44 39 38 38 40 41 39 40 42 45 47 46
45 45 45 44 44 43 43 39 37 35 26 27 25 20 21 79
96 97 109 123 126 118 121 126 131 145 145 145 145 145 145 145
144 144 145 144 144 144 142 138 133 123 95 66 45 35 23 23
19 23 18 11 20 22 14 6 13 18 24 21 15 16 19 16
18 11 10 9 8 16 20 28 27 25 25 25 24 25 24 23
23 22 22 22 19 19 19 21 16 12 20 23 28 27 20 23
50 50 49 49 48 47 46 45 46 43 20 3 3 3 11 14
15 18 22 38 43 41 40 40 40 39 38 38 40 41 42 50
53 55 57 59 62 64 65 51 32 26 22 20 24 21 17 50
110 118 133 143 143 144 145 145 143 142 146 145 145 144 145 144
144 144 144 144 144 143 140 130 125 119 86 44 34 38 27 26
26 28 32 13 20 21 15 11 15 19 27 27 15 14 22 22
13 16 13 14 8 9 9 20 23 23 24 23 23 23 24 22
22 22 22 21 18 18 22 24 22 19 18 19 19 19 24 29
43 42 42 42 41 41 39 40 41 40 15 2 2 3 12 16
18 21 28 44 41 38 37 36 41 36 33 33 34 41 39 71
85 85 87 88 89 88 89 68 28 21 20 24 24 18 13 25
103 117 136 146 146 146 145 145 146 145 145 145 145 145 145 145
145 144 143 143 143 140 132 123 121 115 73 33 34 42 27 25
34 19 22 17 20 22 14 19 20 25 25 32 22 13 19 33
23 15 12 26 15 9 14 15 20 25 24 23 23 23 23 22
22 20 21 19 17 17 19 24 28 23 15 8 0 1 3 3
49 49 48 48 48 46 42 43 46 46 19 2 2 4 12 16
19 22 30 46 35 29 27 25 39 28 23 26 32 44 42 70
95 94 94 93 93 92 89 80 38 23 23 28 28 20 12 13
79 105 113 138 144 145 145 145 145 144 145 145 145 145 145 144
144 144 144 144 138 131 122 119 119 110 55 33 40 44 28 27
32 13 17 15 17 24 19 37 38 31 27 25 26 17 23 31
31 20 11 15 15 17 14 23 13 21 24 22 24 22 22 21
21 21 21 17 17 17 17 17 25 29 16 10 3 1 0 0
44 42 41 38 38 34 31 27 29 28 11 2 2 4 12 16
18 21 29 46 32 26 24 23 38 28 22 24 31 45 45 55
86 88 85 84 81 78 74 72 48 28 30 33 35 23 12 10
57 103 108 115 130 142 146 146 145 145 145 145 145 144 144 144
144 143 139 134 125 118 113 116 121 98 50 44 60 48 29 33
33 14 25 17 14 30 24 39 45 35 19 16 18 22 25 28
31 27 20 11 13 13 15 17 14 19 24 23 23 22 22 21
21 20 20 18 16 16 17 15 15 19 13 13 3 3 0 0
18 19 13 4 10 2 3 1 1 1 0 2 3 4 13 15
18 20 29 46 32 25 24 23 38 28 20 24 31 46 51 49
58 56 54 52 51 49 51 50 48 34 31 35 41 28 15 9
37 109 110 112 127 145 146 145 146 146 145 145 145 145 144 144
141 133 128 119 112 108 111 121 114 88 58 70 76 52 32 34
28 11 30 17 11 32 30 30 33 29 15 14 15 19 24 22
29 33 28 14 8 7 7 9 9 13 23 23 23 22 21 20
21 21 19 19 17 16 17 15 14 13 14 14 2 0 0 0
9 10 9 0 10 0 0 0 0 0 0 4 6 9 13 15
18 20 27 45 32 25 23 23 38 30 19 23 30 47 53 52
50 48 48 48 48 48 49 49 48 38 33 35 41 33 19 9
21 111 124 124 136 145 146 146 146 146 146 145 144 143 142 137
126 119 111 104 103 107 117 118 106 86 85 90 80 53 34 35
20 12 18 6 11 35 29 30 21 22 11 9 14 13 18 21
26 36 29 22 15 14 6 1 8 13 23 25 22 21 20 20
20 19 18 18 18 17 16 13 14 12 15 15 2 0 0 0
16 13 7 1 14 1 1 0 0 1 5 9 9 12 13 15
17 20 27 45 33 24 22 22 37 29 19 24 30 46 53 52
51 49 49 48 48 49 50 49 47 43 31 32 28 22 14 10
15 98 126 129 142 146 146 146 146 146 145 144 141 137 132 121
110 103 97 98 106 114 119 115 107 102 102 96 75 47 35 34
18 27 12 8 15 30 30 22 13 19 10 5 14 18 27 22
31 39 17 16 23 12 8 1 0 8 22 26 24 21 20 20
19 19 18 19 18 16 13 15 13 12 14 14 2 1 0 0
35 26 8 2 16 2 1 0 1 4 6 8 8 10 12 14
17 19 27 44 32 24 23 24 37 30 22 25 31 46 51 50
51 49 48 47 47 46 46 46 43 39 30 26 18 12 13 15
14 79 126 130 141 147 146 146 144 145 145 140 129 119 108 99
90 90 96 103 112 119 119 120 118 113 109 93 73 41 38 29
28 35 8 11 20 29 30 26 14 17 6 5 8 19 30 30
38 38 16 19 17 14 4 4 0 0 19 28 24 20 19 18
19 18 18 17 17 14 13 16 22 18 9 7 1 1 0 0
37 27 9 3 17 4 0 0 3 4 5 8 6 8 10 11
14 17 25 43 39 34 33 34 40 37 35 37 40 45 47 46
44 43 41 40 39 38 38 37 35 32 24 22 12 10 17 20
18 49 121 125 134 146 145 145 144 142 130 116 107 99 91 83
82 88 97 108 118 125 127 128 121 116 110 94 69 37 36 29
31 15 6 16 29 32 30 36 23 20 10 3 12 8 15 28
32 34 22 14 15 7 1 2 2 2 10 23 23 19 17 16
16 17 31 31 28 25 24 22 33 39 24 19 17 17 14 11
24 18 14 16 20 16 14 2 2 4 6 9 5 9 10 11
12 14 21 39 42 40 39 39 39 39 39 39 39 40 39 40
39 37 37 35 36 39 39 34 30 30 21 16 9 11 20 21
19 15 93 116 124 134 137 134 128 112 94 83 80 74 68 70
78 91 105 118 131 139 135 127 121 118 109 89 55 39 34 37
20 7 13 22 29 25 41 52 40 21 9 4 8 0 8 4
12 15 17 8 17 14 3 3 5 5 14 25 32 31 23 8
4 15 39 41 38 37 37 37 38 35 36 32 28 34 31 28
36 37 37 38 37 37 38 10 0 0 4 9 4 9 12 13
15 16 19 35 43 40 39 37 37 39 34 33 33 36 35 34
41 33 28 26 31 45 43 28 24 24 22 16 8 13 19 17
14 7 24 79 99 101 100 91 73 55 47 41 39 39 52 73
91 108 126 137 143 140 131 120 120 116 104 66 49 39 27 28
14 7 12 22 26 14 36 46 40 14 4 0 7 4 3 0
2 11 11 13 16 9 5 3 9 18 16 22 35 36 33 10
0 0 5 6 6 7 9 9 8 6 5 6 12 5 4 3
26 22 19 15 12 13 34 12 0 0 1 8 4 10 13 14
16 19 22 37 44 32 29 27 31 37 24 23 26 34 37 38
45 34 24 25 32 48 46 31 28 29 28 25 16 18 23 16
10 9 6 10 22 31 26 23 17 8 11 4 12 20 42 78
108 131 144 143 141 132 118 119 118 113 90 64 52 31 22 23
19 10 9 18 15 10 27 29 24 3 6 1 11 11 3 4
5 13 9 16 7 1 0 5 13 25 14 21 28 28 28 14
0 0 0 0 0 0 0 0 0 0 0 0 0 0 0 0
0 0 0 0 1 3 26 12 0 0 0 7 3 9 12 13
16 19 22 37 41 27 24 22 28 36 21 22 26 36 42 43
45 39 35 38 42 48 47 43 43 43 40 33 23 26 30 17
8 6 4 6 9 11 8 8 9 5 8 1 6 16 38 91
128 142 142 139 130 118 117 118 117 104 80 60 47 30 21 28
27 10 6 13 12 18 26 17 10 0 2 9 14 15 20 32
21 7 10 8 4 1 5 2 3 20 18 21 23 22 21 16
0 1 0 0 1 0 0 0 0 0 0 0 0 0 0 0
2 3 3 3 3 4 14 11 0 0 0 6 2 9 11 13
16 18 21 35 40 26 23 20 27 36 20 19 24 36 47 48
48 49 49 49 50 49 50 50 49 47 42 30 29 30 26 16
10 3 4 7 9 6 4 3 5 5 8 1 4 20 61 107
127 133 133 127 118 115 114 115 112 89 75 52 46 32 27 35
35 16 12 9 13 23 18 13 1 2 1 6 18 21 22 35
23 10 14 10 6 2 0 0 1 5 19 18 22 22 21 12
0 7 0 1 7 6 6 4 4 3 3 2 1 2 1 0
0 0 0 0 0 0 15 13 0 0 0 4 2 9 10 12
15 17 21 35 41 26 24 22 26 35 19 19 23 35 49 50
51 51 52 47 45 44 43 42 46 51 49 35 40 26 14 11
14 5 8 8 12 13 4 4 4 4 11 3 5 17 75 102
116 121 122 121 114 110 112 112 106 80 54 55 48 33 29 31
35 16 14 6 19 23 13 8 1 5 8 5 23 22 19 24
23 19 20 17 17 10 0 0 0 2 11 16 23 22 20 8
0 8 0 3 9 9 11 9 12 10 8 7 4 5 5 3
0 0 0 0 0 0 12 10 0 0 0 1 2 7 9 12
15 17 21 33 41 26 22 19 26 40 30 27 34 45 58 59
60 60 60 47 43 44 45 47 52 59 57 41 39 11 6 6
10 8 11 9 15 14 3 8 9 4 12 5 8 5 67 98
107 116 120 114 109 107 109 114 101 69 59 52 41 30 24 19
28 17 17 3 22 25 11 3 6 18 8 3 20 14 21 15
11 13 18 22 18 18 5 0 1 11 16 15 23 22 19 4
0 8 0 6 9 11 12 12 11 10 7 6 4 0 0 0
0 0 0 0 0 0 0 0 0 0 0 3 5 7 10 11
14 16 20 33 40 24 21 15 26 45 47 46 52 56 61 62
62 62 62 59 58 60 62 63 63 64 62 56 43 3 9 15
14 17 21 9 7 7 3 9 20 10 12 4 13 5 42 98
106 111 114 111 106 108 112 115 99 62 64 49 41 33 18 13
20 16 12 14 32 34 11 1 17 38 9 5 16 9 19 9
11 15 23 25 23 22 22 12 17 24 23 22 23 21 17 2
0 2 1 6 9 11 9 8 6 4 4 2 1 0 0 0
0 0 0 0 1 2 2 3 2 4 10 17 20 22 24 22
15 14 19 30 38 27 25 16 22 37 44 49 52 47 42 47
52 55 54 50 52 63 61 58 58 60 64 66 45 9 27 25
24 26 21 9 3 7 8 10 15 9 11 3 12 8 17 88
106 110 110 108 108 112 111 115 92 58 56 52 41 33 19 15
24 14 23 24 29 25 2 9 19 39 8 2 17 9 11 12
16 23 25 27 29 28 26 25 24 26 24 24 23 21 15 0
0 0 0 4 6 6 2 1 0 0 2 1 0 0 0 0
17 21 22 26 27 30 33 35 38 35 38 39 40 42 43 44
35 18 16 24 31 29 29 21 16 25 36 43 46 45 38 35
35 33 30 24 25 26 24 20 19 20 32 49 48 38 41 34
32 22 24 15 7 6 8 8 6 4 7 2 18 11 4 63
98 107 110 112 110 111 111 108 69 67 51 53 46 29 20 19
24 18 25 27 36 21 7 16 17 14 0 0 8 22 12 12
19 28 28 27 29 29 31 30 28 24 25 24 23 21 13 0
0 0 0 0 0 0 0 0 0 0 0 0 0 0 0 0
49 50 49 51 48 50 50 51 51 48 44 46 46 47 48 49
49 33 8 8 19 23 22 19 11 14 24 29 30 27 25 22
20 20 19 18 18 17 17 16 15 14 16 19 22 23 19 18
17 15 21 29 9 3 0 2 2 3 3 1 15 17 2 29
88 101 107 108 108 110 111 95 68 75 50 54 42 28 19 25
21 6 10 18 26 25 7 9 9 0 0 0 0 12 16 17
22 27 31 28 29 31 32 30 28 27 25 25 23 21 10 0
0 0 0 0 0 0 0 0 0 0 0 0 0 0 0 0
48 47 49 52 50 46 53 53 53 56 48 46 50 52 53 52
53 48 31 19 27 29 25 20 17 19 22 22 23 22 22 22
22 21 20 20 19 19 19 18 17 16 14 12 10 10 7 6
13 15 13 19 6 1 1 4 6 6 3 0 5 8 5 7
79 92 102 106 109 111 110 95 74 82 55 48 39 25 17 23
19 4 10 18 28 6 2 2 0 0 0 0 11 19 22 22
25 21 31 30 31 33 32 33 30 31 28 25 23 20 8 0
0 0 0 0 0 0 0 0 0 0 0 0 0 0 0 0
49 51 52 58 56 57 54 53 56 58 55 52 51 61 61 55
48 41 31 20 22 23 23 24 25 24 24 23 24 22 22 22
22 21 20 19 20 19 18 17 16 15 13 11 10 9 4 11
22 13 10 11 6 11 7 13 10 2 0 0 0 2 4 4
59 93 97 102 108 111 110 95 73 77 68 44 44 22 15 15
21 4 9 21 22 1 0 0 0 0 0 3 15 24 26 24
24 23 22 31 32 34 34 33 33 31 31 27 25 19 4 0
0 0 0 0 0 0 0 0 0 0 0 0 0 0 0 0
57 60 56 60 57 59 55 53 56 55 55 54 51 50 38 26
19 19 20 21 23 24 24 24 24 24 24 23 23 23 22 21
21 20 19 19 19 19 18 16 16 14 13 10 9 9 6 13
12 8 11 10 9 9 10 8 0 0 0 1 0 3 2 5
43 98 98 102 106 108 112 100 96 73 75 51 41 22 17 8
4 6 6 16 13 3 7 1 2 0 6 6 16 26 29 22
18 23 25 26 36 35 34 32 34 32 31 28 26 20 2 0
0 0 0 0 0 0 0 0 0 0 0 0 0 0 0 0
50 48 48 46 45 44 42 39 37 35 33 32 30 20 16 18
19 20 21 22 23 23 23 24 24 24 24 23 24 23 22 21
21 20 20 20 19 17 17 16 15 14 12 9 9 7 6 12
7 10 13 10 11 8 4 6 3 0 3 4 1 2 1 4
46 102 103 101 106 109 112 108 103 86 66 49 34 28 22 4
2 7 6 7 18 21 16 10 1 5 11 8 17 27 27 19
19 23 24 31 33 35 35 35 35 33 32 30 27 24 4 0
0 0 0 0 0 0 0 0 0 0 0 0 0 0 0 0
22 19 17 15 13 11 8 6 5 3 2 4 13 15 17 20
20 21 22 22 23 23 24 24 24 24 24 24 22 23 22 21
21 20 20 19 19 18 17 15 15 14 12 10 8 6 10 11
7 11 12 11 12 8 7 7 1 8 9 6 0 5 5 7
59 105 113 108 106 109 113 112 106 100 63 37 33 41 26 9
2 8 2 4 18 18 13 6 0 14 8 11 24 26 17 19
26 21 27 31 31 34 34 33 33 33 32 28 27 25 12 0
0 0 0 0 0 0 0 0 0 0 0 0 0 0 0 0
0 0 0 0 0 0 0 0 0 0 0 6 12 14 17 19
20 20 21 22 22 23 24 24 24 24 24 23 23 22 22 22
22 21 20 20 18 18 17 16 15 13 12 10 9 9 11 10
5 13 12 13 13 7 9 10 0 0 7 5 8 9 17 32
89 109 119 119 113 112 114 117 118 120 71 32 28 44 38 12
3 7 2 0 7 30 21 1 6 14 9 15 26 16 15 23
19 23 30 30 32 32 34 33 32 32 31 29 26 25 22 2
0 0 0 0 0 0 0 0 0 0 0 0 0 0 0 0
0 0 0 0 0 0 0 0 0 0 3 9 12 15 18 18
19 20 20 21 22 22 23 23 24 24 24 23 23 23 22 22
21 20 19 19 19 18 17 16 15 13 12 9 9 11 10 10
4 12 12 11 13 9 8 10 1 7 11 11 12 13 52 76
105 113 121 129 125 120 119 119 124 130 94 48 30 35 35 17
10 7 2 0 0 5 12 0 11 7 11 20 19 12 19 16
17 29 26 25 31 32 33 32 32 31 30 29 27 23 24 14
0 0 0 0 0 0 0 0 0 0 0 0 0 0 0 0
0 0 0 0 0 0 0 0 0 0 6 9 12 14 16 17
19 19 20 21 21 21 23 24 25 23 23 23 23 22 22 21
21 20 20 19 18 17 17 15 15 13 11 9 10 11 9 10
4 11 11 12 13 10 9 9 1 13 13 12 13 39 88 99
109 118 128 136 135 129 124 122 128 134 112 87 75 49 29 24
8 4 4 0 0 4 16 10 19 4 11 19 13 15 15 13
26 29 23 23 32 32 31 31 33 32 30 29 25 24 24 22
4 0 0 0 0 0 0 0 0 0 0 0 0 0 0 0
0 0 0 0 0 0 0 0 0 1 6 8 13 14 16 16
18 19 19 20 21 21 22 22 23 24 23 23 23 22 22 21
20 20 19 18 18 17 16 15 13 12 10 9 9 10 8 9
4 9 12 12 12 10 9 8 1 13 12 11 13 70 108 109
108 122 133 139 139 133 128 126 133 131 110 101 112 106 53 17
12 6 1 0 0 9 16 19 14 5 12 15 14 15 12 18
30 26 20 24 31 33 31 31 32 32 30 27 26 23 20 23
16 0 0 0 0 0 0 0 0 0 0 0 0 0 0 0
0 0 0 0 0 0 0 0 0 2 5 9 12 13 15 15
17 18 18 20 21 21 22 23 23 23 23 22 23 22 22 21
21 19 20 19 17 17 15 14 12 11 10 9 9 10 10 9
5 9 12 11 12 11 8 8 1 12 13 11 17 79 115 116
109 129 137 138 139 133 129 127 131 128 125 127 122 112 32 17
12 10 4 0 0 13 14 23 8 7 13 13 14 10 12 24
30 18 21 26 32 32 31 31 34 32 30 27 27 24 20 21
19 6 0 0 0 0 0 0 0 0 0 0 0 0 0 0
0 0 0 0 0 0 0 0 0 3 5 10 12 13 14 16
17 17 18 19 20 21 21 23 23 23 23 22 23 22 22 22
21 20 18 19 17 16 15 14 13 11 11 8 9 11 8 9
5 9 11 11 13 12 8 7 3 13 13 12 20 80 119 119
122 133 138 138 136 131 128 126 131 131 141 137 126 55 22 22
13 8 7 7 6 14 18 19 6 8 14 13 12 10 16 28
19 16 26 28 29 28 29 32 32 29 28 27 28 25 22 21
21 13 0 0 0 0 0 0 0 0 0 0 0 0 0 0
0 0 0 0 0 0 0 0 0 3 6 10 12 13 15 16
17 17 19 19 21 21 22 23 23 23 23 23 23 22 22 22
21 20 20 19 18 16 15 14 13 11 10 8 9 11 9 9
6 8 11 10 13 12 9 6 5 14 13 12 19 72 122 123
127 137 139 135 134 128 127 128 127 141 141 138 81 24 23 20
13 10 9 9 10 14 22 10 7 9 13 13 12 13 23 26
11 20 29 31 31 25 30 33 32 30 29 27 27 25 22 20
21 19 8 3 4 3 2 1 0 0 0 0 0 0 0 0
0 0 0 0 0 0 0 0 0 2 6 10 11 12 14 15
16 17 18 19 20 21 21 22 22 22 22 22 23 22 22 21
20 19 19 18 17 16 14 14 13 11 9 7 10 11 9 9
7 6 11 10 13 13 9 5 6 14 13 13 18 58 123 125
129 136 141 137 132 129 130 126 133 141 139 110 27 24 23 17
12 9 11 7 12 17 22 3 7 10 12 13 11 14 28 15
12 26 30 32 26 22 28 30 30 30 27 26 27 27 24 19
18 19 16 8 7 6 6 6 5 5 5 4 3 3 2 1
0 0 0 0 0 0 0 0 0 1 7 10 11 12 13 15
16 17 18 19 20 21 22 23 23 23 23 23 23 22 22 20
21 19 18 18 17 16 15 13 13 11 10 6 10 10 10 9
8 6 9 11 14 11 9 3 8 15 13 13 16 38 120 126
130 131 136 137 134 132 132 127 139 139 125 40 22 23 20 13
11 10 9 7 14 21 18 2 7 11 12 11 12 17 30 7
15 29 31 32 25 20 27 30 30 28 27 26 27 28 24 19
17 19 15 15 11 13 11 10 7 6 6 9 12 14 14 11
0 0 0 0 0 0 0 0 0 1 6 9 11 12 13 14
15 16 18 19 19 20 22 22 23 22 23 23 22 23 22 21
20 19 19 18 17 16 15 13 12 11 8 6 11 10 6 8
9 7 9 11 13 11 8 3 11 14 14 13 16 23 103 128
130 134 138 137 136 133 132 135 140 130 51 21 23 22 17 12
10 11 9 6 17 24 10 2 7 12 13 10 12 21 25 3
22 29 30 30 23 22 26 27 28 26 26 27 29 27 26 21
18 19 16 16 10 11 10 11 10 11 12 11 15 18 19 18
0 0 0 0 0 0 0 0 0 2 6 9 10 12 13 14
15 16 17 18 20 20 22 22 23 23 22 23 23 23 22 22
21 20 20 19 17 16 15 13 12 11 8 8 11 10 4 8
9 7 10 11 13 10 7 4 14 15 14 14 16 17 59 125
131 134 135 135 138 137 131 138 129 51 20 21 22 18 13 11
10 11 8 6 19 22 5 3 8 13 12 10 14 25 17 6
27 31 29 28 24 19 27 28 28 25 27 28 29 28 27 22
18 17 16 14 12 9 9 10 9 13 12 12 14 15 17 17
0 0 0 0 0 0 0 0 0 2 7 9 11 12 12 14
15 16 18 18 20 21 22 23 23 23 22 23 23 23 23 22
22 20 20 18 17 16 14 13 11 11 8 8 11 9 4 9
10 6 9 11 14 9 6 5 12 15 14 14 16 14 29 90
130 131 133 135 140 130 135 114 43 21 21 21 20 14 13 10
12 10 4 10 23 19 3 3 10 12 10 10 15 27 11 12
29 29 29 28 23 20 24 26 27 26 27 27 29 28 28 23
19 17 17 13 14 9 11 9 10 11 9 12 11 13 13 16
0 0 0 0 0 0 0 0 0 2 7 9 10 11 13 13
15 16 18 19 20 21 22 23 23 23 23 23 23 23 22 21
20 20 19 18 17 15 15 12 11 10 8 9 12 8 3 8
12 7 8 13 14 9 7 6 12 15 13 14 16 14 20 42
111 127 130 133 137 121 81 28 21 22 23 21 17 13 12 12
12 7 4 14 23 14 1 3 11 11 10 10 19 28 10 19
30 28 28 25 23 19 22 25 25 25 26 28 27 29 28 25
19 17 17 14 15 10 7 8 9 9 12 11 11 13 14 14
0 0 0 0 0 0 0 0 0 3 7 8 10 11 13 14
15 17 18 20 20 21 22 22 23 24 24 24 24 24 23 21
21 20 19 17 16 15 14 12 11 10 9 9 12 8 2 9
13 8 9 14 14 10 8 8 13 15 14 14 17 14 13 22
41 74 110 112 79 40 24 21 22 24 22 20 14 12 13 15
10 3 8 18 22 10 0 4 12 10 9 12 21 27 11 26
29 29 28 24 24 18 22 27 25 26 26 28 29 28 28 26
21 18 16 15 13 12 8 7 9 9 9 11 11 11 14 16
0 0 0 0 0 0 0 0 0 2 7 8 9 10 12 13
15 16 17 18 20 21 22 22 23 24 24 24 23 23 22 22
20 20 19 17 17 15 13 12 11 11 10 9 12 9 1 10
13 9 8 15 15 9 6 7 12 15 14 14 16 14 13 16
19 18 28 25 22 24 22 23 24 22 20 16 13 11 15 12
5 3 10 19 20 5 0 7 13 8 8 13 21 15 15 27
28 28 27 22 22 19 22 26 25 25 27 29 27 28 27 26
22 17 15 16 11 12 7 7 8 7 9 10 10 11 10 14
0 0 0 0 0 0 0 0 0 2 6 8 9 10 12 14
15 16 18 18 19 20 21 22 23 24 23 23 23 22 22 21
20 20 18 17 16 14 13 12 11 12 11 10 12 12 3 10
13 10 8 16 15 9 7 9 13 14 13 13 17 14 13 12
14 14 23 15 17 22 24 22 23 22 19 14 12 14 15 9
3 8 15 21 16 1 0 10 11 8 9 13 16 1 20 26
28 29 26 22 21 17 23 28 25 24 27 27 28 27 26 27
23 17 15 14 10 11 8 4 6 6 8 7 10 9 11 12
0 0 0 0 0 0 0 0 0 3 6 8 9 10 12 12
14 15 17 18 18 20 20 22 23 23 23 23 23 22 22 20
20 19 18 16 15 13 12 11 10 12 13 9 12 14 2 9
11 9 8 17 13 8 7 9 12 15 13 13 19 14 13 12
13 17 16 14 14 18 24 21 21 19 16 12 10 16 12 6
3 11 15 21 12 0 1 10 8 8 11 16 5 5 25 28
28 27 26 20 18 14 24 27 22 23 27 27 27 26 27 25
24 17 14 13 10 9 10 3 5 4 5 6 10 8 10 12
0 0 0 0 0 0 0 0 0 1 6 7 9 9 10 12
14 15 16 18 19 20 21 21 23 23 24 23 23 22 21 20
20 18 18 16 15 13 12 10 9 14 14 11 11 16 3 7
12 9 9 18 13 8 7 11 13 14 15 14 19 14 13 13
13 17 15 14 14 17 22 21 20 17 14 10 13 17 8 2
5 12 16 21 8 0 1 9 6 7 11 12 0 13 27 27
27 27 25 20 18 15 25 28 23 23 26 27 28 26 25 26
23 18 15 12 10 6 12 4 3 6 8 6 7 9 8 10
0 0 0 0 0 0 0 0 0 2 6 7 8 9 11 12
13 16 17 18 19 20 21 22 22 23 23 23 22 22 21 21
19 19 17 16 14 13 11 10 10 16 16 12 12 17 5 6
12 9 7 18 14 7 7 10 13 14 13 13 21 16 14 14
15 15 16 14 16 16 19 20 20 14 9 10 19 14 6 1
9 14 18 19 4 0 4 7 5 7 11 5 1 21 27 27
26 27 26 19 16 16 25 26 21 24 27 26 27 24 26 26
25 18 15 12 8 4 10 6 2 3 5 7 6 7 7 9
