P2
128 120
148
0 0 0 0 0 0 0 11 47 49 42 54 55 11 0 0
4 10 5 0 0 0 20 66 67 47 24 27 27 27 23 6
1 3 5 10 15 28 34 31 31 27 23 22 31 29 29 34
56 22 0 1 6 18 12 8 5 32 60 61 49 49 52 46
52 54 59 59 58 42 45 47 50 43 48 51 50 44 19 18
25 38 38 37 36 36 36 42 45 43 41 37 34 33 31 30
30 28 27 27 26 26 25 25 24 32 35 32 30 30 29 26
20 20 18 18 18 18 17 16 16 17 17 20 22 21 21 18
0 0 0 0 0 0 0 1 34 58 49 58 56 12 0 0
0 0 0 0 0 0 17 66 68 52 30 30 29 30 31 19
2 1 6 11 10 12 13 15 18 8 7 5 17 16 20 25
56 24 0 2 9 28 15 3 5 26 61 61 21 7 28 12
19 26 33 38 53 45 47 49 51 51 54 54 53 51 23 19
26 39 39 38 37 35 34 42 46 44 41 38 38 38 40 35
34 32 30 28 26 26 26 25 25 30 31 31 29 31 29 28
22 19 20 19 18 17 17 17 17 17 18 20 23 22 21 17
0 0 0 0 0 0 0 0 20 62 53 60 57 13 0 0
0 0 0 0 0 0 18 66 69 54 31 32 33 31 26 18
3 0 0 12 16 6 1 2 2 1 1 0 4 7 9 20
57 26 5 19 12 48 42 9 1 28 61 60 20 1 10 0
0 3 11 3 39 47 48 50 52 52 54 55 54 53 27 19
28 43 42 40 39 37 36 41 43 43 40 40 42 42 43 36
34 35 36 33 31 30 29 27 25 27 13 12 14 19 23 27
24 20 19 19 19 18 19 18 17 17 18 21 22 22 21 8
0 0 0 0 0 0 0 0 11 62 58 61 59 13 0 0
0 0 0 0 0 0 16 66 69 55 22 13 24 14 4 0
0 2 1 15 23 16 9 5 9 0 0 0 0 1 5 18
60 28 9 24 29 45 37 35 7 21 63 62 21 0 3 4
0 14 22 12 41 45 44 47 47 52 53 53 53 51 29 19
29 45 41 40 40 42 41 41 11 12 24 35 39 40 41 34
6 9 15 21 28 28 33 33 29 26 11 3 5 2 1 5
23 20 20 19 19 18 18 18 18 18 19 21 24 23 23 17
0 0 0 0 0 2 10 23 41 64 61 61 61 13 0 0
0 0 0 0 0 0 16 67 69 59 22 0 2 2 3 0
2 3 2 10 20 22 16 7 7 4 2 0 0 0 0 17
62 31 5 22 34 44 27 31 13 17 63 64 28 0 5 1
0 20 25 18 43 39 10 19 27 36 43 46 47 50 30 20
27 44 42 37 34 40 46 45 5 0 2 13 17 16 22 32
1 0 0 0 1 4 9 14 23 27 9 0 1 2 0 2
24 20 20 19 19 19 18 18 18 18 19 22 24 23 22 20
4 9 17 24 38 51 60 65 67 68 63 61 63 36 22 17
11 10 7 5 4 3 18 66 70 62 39 11 0 1 0 2
3 3 6 3 10 26 26 20 13 13 4 3 6 3 5 22
64 33 0 5 19 35 30 19 3 15 63 66 31 0 8 3
1 13 15 12 41 38 2 1 5 6 5 10 9 40 32 20
22 29 36 41 42 44 47 47 7 0 1 7 11 12 15 34
2 0 0 0 0 0 0 0 7 29 7 0 0 0 0 1
26 21 21 20 19 19 18 19 19 19 20 22 24 24 23 21
43 47 45 46 48 57 67 67 68 69 63 52 57 60 59 60
51 55 57 55 53 51 53 66 68 62 38 8 0 0 0 1
0 1 4 13 17 26 29 21 25 22 3 1 5 5 1 19
62 37 0 0 0 5 4 0 0 14 63 67 33 0 4 1
3 5 0 2 41 37 2 1 0 0 0 0 0 34 32 20
14 0 2 5 12 21 30 39 10 0 0 4 1 5 10 34
4 0 0 0 0 0 0 0 6 29 3 0 0 0 0 2
27 21 20 20 21 20 20 19 19 19 20 22 24 24 23 21
54 57 55 59 63 66 67 68 68 64 59 49 54 57 53 52
60 64 64 61 56 54 45 27 34 38 39 6 0 0 0 0
0 2 6 32 30 33 32 22 29 25 1 0 0 3 1 17
55 39 0 0 0 0 0 0 0 12 63 67 37 0 2 9
8 18 1 1 40 37 6 8 3 10 0 0 1 34 33 20
14 0 0 0 0 0 0 11 11 0 0 0 0 0 8 31
2 0 0 0 1 0 0 0 4 28 1 0 0 0 0 2
28 22 22 21 21 20 20 19 19 20 20 23 25 25 24 22
66 65 65 64 65 62 58 56 34 24 34 24 9 13 27 28
40 46 49 45 50 53 41 21 29 38 43 6 0 0 0 0
0 0 4 33 31 38 35 18 22 17 0 0 2 7 6 19
57 42 0 0 0 0 0 0 0 10 62 69 44 1 7 24
23 28 5 2 41 37 9 11 6 22 9 0 0 34 33 20
14 0 0 0 0 0 0 7 10 0 0 0 0 0 10 35
4 0 0 0 8 6 1 0 3 29 1 0 0 0 0 0
28 22 22 21 20 21 20 19 19 20 21 23 26 25 25 23
60 59 57 56 51 39 37 42 17 18 34 17 0 2 2 3
13 21 15 3 10 35 40 51 50 47 34 2 0 0 0 2
6 3 2 11 10 36 28 2 5 6 4 2 4 6 7 22
58 53 32 28 27 26 25 21 19 26 64 70 49 6 9 6
6 9 7 4 40 38 9 11 4 20 15 0 0 34 34 21
15 0 0 0 1 0 0 6 9 0 0 0 0 0 8 37
5 0 0 0 9 10 8 3 2 29 2 0 0 0 0 0
27 23 22 22 21 21 21 20 20 20 21 22 26 25 24 23
40 46 50 53 54 54 54 52 43 38 48 16 0 0 0 0
1 7 0 4 13 33 62 61 53 30 12 0 0 12 2 0
7 5 6 3 0 26 21 0 0 4 2 1 6 1 4 19
55 68 67 63 61 58 54 51 48 47 50 53 35 4 5 14
16 8 4 1 38 36 6 10 6 3 6 0 0 34 33 21
15 0 2 1 14 4 0 5 10 1 1 0 0 0 8 38
6 0 0 0 10 10 9 7 1 29 3 0 0 0 0 0
26 23 22 22 21 22 21 21 20 21 22 23 27 25 25 23
32 33 35 39 40 41 44 49 56 50 59 18 0 0 0 0
0 2 0 4 5 31 68 65 54 7 3 0 3 10 1 6
4 5 4 1 5 27 31 1 2 2 0 0 0 0 0 15
63 66 52 53 52 51 55 56 54 47 39 38 16 4 4 9
15 9 6 2 37 35 3 8 12 1 1 0 0 33 33 21
16 3 14 8 8 2 0 4 11 0 0 0 0 1 9 38
8 0 1 0 4 9 9 6 0 29 15 5 1 0 0 0
24 24 22 22 22 22 21 20 20 22 22 23 26 26 26 23
4 2 1 1 2 2 2 16 57 63 62 25 4 8 2 0
0 0 0 0 0 35 71 68 55 9 8 4 2 2 5 6
2 3 2 4 1 24 32 6 3 0 0 0 0 0 0 17
68 53 5 5 9 12 18 25 33 44 53 46 53 51 44 41
38 32 25 21 44 38 5 7 9 2 1 0 0 36 33 22
17 9 9 1 5 5 0 4 13 0 0 0 0 1 18 41
18 5 3 2 0 1 5 6 0 29 36 32 29 25 21 21
31 24 23 22 22 22 21 21 21 21 23 23 27 27 26 22
0 0 0 4 24 18 0 12 60 65 64 37 40 49 29 10
0 1 7 0 0 37 71 66 55 6 6 7 12 16 21 18
15 11 8 7 15 29 36 5 8 6 10 2 0 0 0 16
66 53 6 0 0 4 2 0 0 16 59 57 43 42 46 48
57 58 59 57 49 58 43 28 33 33 34 28 25 41 31 21
17 7 3 0 0 1 1 6 34 23 15 15 8 2 3 43
37 31 31 27 21 13 9 6 4 30 37 34 33 33 38 39
39 24 23 22 22 21 21 21 21 21 23 23 27 27 26 21
0 0 0 7 35 30 4 10 60 65 64 48 37 35 40 7
6 19 38 12 1 36 68 64 54 6 0 0 0 11 6 13
31 25 38 44 44 43 39 19 18 16 13 7 2 0 1 25
66 56 17 0 6 4 9 6 2 12 60 61 28 19 21 29
31 28 27 41 59 71 56 37 47 51 55 52 51 49 29 20
17 1 0 0 0 0 0 6 46 48 39 41 41 39 35 48
27 13 15 17 19 21 22 26 31 37 28 29 31 32 37 38
37 24 22 21 21 21 20 20 21 21 21 22 26 26 25 19
0 0 0 5 28 29 7 9 60 65 65 36 8 17 21 9
19 26 44 24 2 35 67 63 54 7 0 0 0 3 6 20
47 39 45 54 56 49 23 0 2 11 22 26 19 8 14 35
65 53 20 6 8 10 29 23 6 11 57 59 33 25 24 27
21 21 13 27 62 66 47 37 45 53 54 55 56 53 30 20
19 3 0 0 0 0 0 5 48 44 40 46 48 50 43 40
25 10 11 10 10 9 8 7 7 8 8 10 15 20 24 21
21 22 22 22 21 20 20 20 20 20 21 21 25 25 24 17
0 0 0 3 23 27 11 9 61 65 63 18 0 4 10 13
15 16 21 5 0 35 67 63 56 7 0 0 1 3 7 23
43 37 48 59 63 54 27 0 0 0 14 26 21 12 19 50
64 51 25 40 25 22 25 9 9 14 36 32 20 18 17 17
19 20 21 24 33 31 28 31 42 48 47 49 52 51 29 21
22 31 28 20 12 7 3 7 42 34 41 45 47 50 45 37
26 12 12 10 7 7 6 4 4 2 3 3 2 12 22 19
18 19 21 20 20 20 19 19 19 20 20 21 24 24 23 13
2 0 6 3 17 30 33 14 60 65 61 13 5 28 7 2
6 3 0 0 0 37 67 64 57 8 1 2 2 0 0 17
34 34 53 68 70 60 31 0 0 0 5 12 11 14 23 58
66 49 24 32 21 15 18 15 7 7 6 9 7 9 9 16
16 16 19 21 20 20 11 12 17 18 18 20 27 42 32 22
25 44 51 50 46 43 39 37 42 28 37 42 45 47 45 39
30 13 11 9 6 5 5 5 5 5 5 5 5 15 13 4
20 21 21 19 17 20 20 19 19 20 20 20 24 24 23 13
5 1 8 6 15 25 36 17 60 65 61 13 0 3 0 0
0 0 0 0 0 37 68 65 58 8 2 4 2 0 4 8
13 28 53 69 71 65 35 0 0 12 35 36 33 37 38 64
68 52 18 17 11 9 6 7 10 10 5 4 9 10 10 14
16 18 15 12 15 18 16 12 12 15 11 10 10 29 33 23
24 44 52 51 49 48 48 49 41 7 10 14 19 26 28 29
32 14 10 6 1 1 0 4 7 6 3 7 8 16 25 21
27 29 27 19 0 15 20 20 20 20 19 18 24 24 23 15
0 2 10 3 7 13 13 12 61 65 61 11 0 0 0 0
0 0 0 0 0 38 69 66 59 9 0 0 3 0 8 6
2 26 52 68 68 64 35 0 0 8 37 41 49 60 48 45
65 64 51 41 29 3 7 5 8 10 5 3 3 6 14 17
16 15 18 17 13 10 21 20 14 24 12 10 15 25 31 25
24 40 49 48 47 48 49 50 36 2 0 0 0 3 10 20
35 12 9 4 0 0 0 1 2 1 0 2 2 11 28 26
22 23 25 27 22 20 21 20 20 19 5 10 23 23 23 15
0 1 26 14 0 1 0 10 63 66 63 25 13 11 9 6
4 3 2 1 0 39 67 64 58 9 0 2 3 1 7 10
8 19 46 65 66 63 36 0 0 8 36 38 46 51 26 8
55 63 52 25 10 8 11 9 9 7 9 8 15 14 15 15
17 19 16 16 18 19 22 28 26 24 25 14 14 20 27 28
28 33 37 37 38 38 40 46 33 0 0 0 0 0 1 19
36 12 9 5 0 0 0 0 0 0 0 0 0 8 29 25
17 15 17 19 20 22 20 20 20 19 3 11 22 24 23 17
0 3 37 22 0 0 0 11 64 59 59 63 66 63 57 53
47 42 43 37 34 53 67 64 58 10 0 0 0 0 0 2
1 4 44 64 65 63 36 0 0 15 51 51 44 36 26 4
48 62 38 9 16 12 12 10 12 11 11 13 16 20 26 26
24 22 25 26 28 28 26 30 37 31 32 18 19 14 21 25
26 26 26 30 33 31 34 45 32 0 0 0 0 0 0 14
35 7 3 0 0 0 5 2 0 0 0 0 0 7 30 27
11 20 22 17 19 21 22 20 20 20 14 15 23 24 25 21
0 8 35 24 0 0 0 9 46 46 56 62 75 74 71 68
65 63 66 66 66 67 65 63 57 11 3 3 4 3 3 3
4 2 45 64 65 65 45 13 12 15 33 56 54 48 46 90
109 96 53 12 15 16 16 16 15 11 12 12 13 15 18 18
25 33 26 23 35 44 38 31 33 30 37 26 19 23 22 20
28 32 30 27 34 33 37 45 32 0 0 0 0 0 0 15
32 0 0 0 0 0 2 7 2 0 0 0 0 7 31 29
6 16 16 14 19 21 21 21 20 21 19 16 24 25 26 25
0 12 32 22 1 0 0 13 37 49 57 66 75 72 70 69
67 68 69 69 70 69 67 65 59 27 45 47 47 47 44 41
39 37 55 65 67 67 56 57 60 51 26 26 46 58 104 131
101 93 30 9 8 9 12 14 14 16 14 15 15 20 24 28
28 34 40 40 45 45 46 35 38 33 34 34 22 24 23 25
33 35 26 19 25 26 34 39 32 1 0 0 0 0 0 16
32 0 0 0 0 0 1 10 8 5 0 0 0 6 30 30
10 9 12 8 17 20 21 21 21 21 19 15 25 25 26 26
5 17 31 20 4 0 7 32 39 50 58 66 64 64 66 60
63 62 55 59 67 68 68 69 69 62 61 66 68 71 59 52
55 62 68 61 71 70 65 66 62 52 57 32 9 58 140 131
112 62 10 12 16 17 10 13 13 12 17 19 20 14 14 20
33 47 54 46 41 47 48 49 45 43 38 37 37 27 34 38
42 30 26 13 8 2 2 5 25 1 0 0 0 0 0 17
30 0 0 0 0 2 11 13 10 9 0 0 0 6 30 31
18 15 10 9 16 20 21 21 21 21 20 15 24 26 26 26
50 52 53 51 45 37 22 24 31 40 44 47 48 49 51 50
63 45 13 18 25 39 43 41 62 68 64 68 70 72 56 55
60 66 72 71 75 73 72 70 55 28 66 65 35 88 137 87
55 19 11 11 10 15 16 12 16 15 21 22 21 23 24 25
27 41 44 38 37 40 47 54 65 70 66 59 56 50 47 52
43 37 30 17 8 1 0 1 19 0 0 1 5 1 0 16
27 0 0 0 0 2 11 17 6 2 0 0 0 4 30 33
20 12 0 0 14 20 21 22 22 21 20 14 24 25 26 26
59 46 47 55 59 49 10 0 2 4 3 4 5 3 3 5
52 47 6 10 0 17 33 10 53 70 73 66 63 63 58 60
65 70 75 77 78 78 76 75 58 18 64 69 76 138 137 42
9 10 10 13 13 14 20 19 16 18 21 24 28 33 37 40
48 53 54 53 59 75 84 96 104 108 106 97 87 82 71 69
72 41 37 26 14 8 3 0 18 1 0 8 16 6 0 16
27 0 0 0 0 0 0 12 2 0 0 0 0 2 28 34
18 7 1 0 12 19 22 22 22 22 20 15 25 25 26 25
52 9 7 8 11 20 3 0 0 0 0 0 2 0 1 2
49 51 11 20 0 9 21 18 56 71 70 43 42 47 57 59
65 70 74 74 74 75 76 76 61 17 86 87 102 135 68 12
4 7 8 14 14 14 17 25 27 24 32 37 41 45 51 61
65 70 78 81 83 92 110 120 127 134 133 130 123 113 104 98
98 82 42 32 25 14 4 0 18 2 1 15 17 10 0 16
25 0 1 0 0 0 0 10 3 0 0 0 0 0 27 34
8 4 0 0 11 19 23 22 22 22 18 17 26 26 26 25
61 16 1 0 3 20 2 0 0 0 0 0 3 0 2 3
45 57 10 12 11 15 34 52 63 72 65 10 3 22 38 23
26 32 36 38 40 43 44 54 66 94 138 115 118 51 3 5
6 8 7 13 20 21 21 27 34 33 40 45 55 64 69 74
78 80 84 95 104 111 120 134 136 136 136 136 136 133 126 118
116 110 80 36 28 18 11 0 22 22 21 27 24 22 13 23
25 0 0 0 0 0 0 10 5 0 0 0 0 0 25 33
5 2 0 1 16 18 22 22 22 22 18 20 26 26 26 25
60 38 10 4 11 26 0 0 0 3 4 0 2 0 0 5
42 61 4 0 18 44 37 63 67 72 65 10 0 19 34 8
5 8 10 12 10 8 7 21 81 135 116 107 87 14 7 4
10 10 8 7 11 17 31 37 46 52 60 57 62 68 66 68
78 92 100 108 112 119 128 135 137 136 137 137 136 137 136 132
127 126 114 65 28 16 9 0 24 42 41 45 43 43 45 47
31 2 2 1 0 0 0 11 6 0 0 0 0 0 17 33
4 0 0 0 12 18 23 22 23 22 17 22 27 27 27 23
63 55 22 7 8 24 0 0 1 7 2 0 0 0 0 0
34 63 8 3 9 26 36 60 66 71 64 11 0 18 38 5
3 6 6 14 11 7 11 43 130 134 109 87 28 5 6 9
9 12 11 7 8 11 18 32 44 49 49 62 68 73 79 84
90 92 101 113 120 130 136 136 136 136 137 136 137 136 136 136
135 134 127 105 42 19 7 1 24 43 43 45 43 44 51 52
41 23 23 19 13 10 11 17 12 7 4 4 2 3 14 31
7 2 3 2 3 15 23 23 23 21 17 22 27 27 27 20
60 63 27 2 8 28 4 6 8 16 0 0 0 0 0 0
26 66 17 8 4 10 29 50 64 73 64 12 0 17 42 8
6 8 5 13 14 13 25 100 138 111 110 95 11 2 9 9
9 14 10 10 13 12 18 18 26 39 48 53 59 65 73 82
91 99 113 120 132 136 137 138 138 138 137 137 137 137 137 136
136 135 132 123 81 30 10 0 22 40 41 41 41 44 48 48
43 33 34 33 31 29 29 28 26 23 19 17 15 15 21 34
19 15 12 7 5 13 23 23 23 21 18 23 27 27 26 21
48 64 36 0 9 32 13 17 22 25 1 2 5 0 0 1
24 67 14 0 0 3 15 42 64 73 65 12 0 16 43 11
17 9 6 13 15 15 27 118 118 114 124 61 9 2 6 10
13 14 13 13 14 17 23 34 35 41 37 42 54 66 82 90
96 108 121 129 134 137 137 137 137 137 137 137 137 137 136 136
136 136 135 131 116 51 12 0 23 39 37 38 37 37 34 30
32 34 34 34 33 31 32 31 30 28 29 27 23 21 24 36
35 33 30 27 23 19 23 23 22 20 17 23 27 27 25 22
38 57 51 4 9 33 13 20 28 27 1 6 13 5 7 5
27 70 18 0 0 0 12 42 60 71 63 12 0 11 42 11
23 4 6 6 6 4 24 122 138 129 91 39 3 6 6 4
12 10 12 13 10 8 13 17 27 34 49 54 49 66 83 93
100 115 126 135 137 136 137 137 137 136 137 137 137 136 136 136
136 136 135 134 126 68 9 0 23 42 36 36 35 35 35 34
35 35 36 38 40 38 33 31 31 31 38 38 35 31 32 31
29 28 29 29 28 23 22 23 23 22 18 23 27 27 25 23
30 51 62 17 11 36 13 19 26 28 2 0 3 2 1 3
30 71 24 0 0 0 14 29 56 70 62 11 0 7 44 11
17 1 5 4 6 12 22 111 139 101 38 4 5 15 13 8
15 14 10 7 9 11 6 10 18 33 47 64 71 78 98 103
116 128 136 137 137 137 137 136 138 137 137 137 137 137 136 136
136 136 136 135 132 88 30 29 38 45 39 37 37 37 37 38
42 39 38 40 46 43 34 30 29 32 41 39 37 34 34 30
23 16 14 14 14 18 23 23 22 21 17 24 27 28 25 23
40 47 63 34 12 39 13 20 24 29 3 0 12 5 0 7
28 70 35 3 9 4 16 22 56 69 60 9 0 3 46 15
8 1 2 3 6 6 16 99 135 89 30 10 14 20 22 11
10 10 10 11 10 17 16 15 22 28 48 70 82 93 96 107
120 135 138 137 137 137 138 137 137 137 138 137 137 137 137 136
136 136 136 136 135 103 48 55 54 49 41 37 39 36 39 42
46 42 39 40 44 39 35 33 28 27 38 37 35 35 36 33
29 22 20 18 18 20 23 23 22 20 18 24 28 28 25 23
51 51 66 52 17 40 14 18 23 28 3 0 3 0 0 4
19 67 44 8 9 4 10 10 55 67 58 8 0 1 47 24
1 0 4 16 13 6 7 68 125 59 19 7 10 13 18 12
7 9 9 13 15 15 24 28 27 33 39 61 84 98 105 114
130 135 137 137 137 137 137 137 137 137 138 137 137 137 137 137
137 137 136 136 136 109 55 55 55 49 26 24 20 19 21 29
39 43 39 32 23 27 29 26 27 27 24 11 8 12 18 19
27 27 24 24 26 25 27 25 23 19 20 25 28 28 26 23
68 67 67 62 28 42 12 14 15 17 1 0 1 2 3 6
15 66 49 1 2 1 4 6 55 67 57 6 0 0 41 26
0 1 7 26 25 13 9 28 76 27 8 14 13 12 15 9
8 8 14 15 17 19 27 31 42 43 51 67 79 95 112 116
125 132 137 137 137 137 138 137 138 137 138 137 137 137 137 137
137 137 136 136 135 114 42 41 42 40 7 2 0 0 0 2
20 44 36 11 1 3 6 8 18 30 22 1 0 0 0 5
20 22 21 23 26 28 32 30 24 18 22 25 28 28 26 22
67 66 62 43 20 49 25 28 31 34 37 41 46 51 57 61
66 78 58 12 12 10 11 15 58 69 56 5 0 0 33 27
0 0 4 22 24 14 14 21 25 11 13 7 10 10 12 8
8 7 9 17 18 21 26 36 40 48 55 66 83 93 101 110
123 137 138 138 138 137 138 137 138 137 138 137 138 137 137 137
137 137 136 136 135 117 38 34 33 34 11 3 0 0 0 3
19 43 26 1 0 0 0 2 21 32 23 0 0 0 0 5
18 6 1 3 3 3 16 31 24 18 23 25 27 27 27 22
63 49 23 4 8 64 70 72 74 75 77 78 79 79 79 80
80 80 72 51 59 58 56 56 69 60 54 12 4 4 29 38
8 7 8 16 30 28 21 20 14 12 10 4 7 20 15 10
11 8 11 16 25 29 28 32 45 53 63 69 81 92 100 110
127 137 137 137 137 137 138 138 137 137 137 137 138 138 137 136
137 137 136 136 136 119 44 41 40 36 12 5 0 0 0 6
25 41 15 0 0 0 0 0 19 32 24 0 0 0 0 3
18 5 0 5 1 0 10 32 24 18 23 25 27 28 26 21
38 14 5 5 11 65 78 77 78 79 80 81 81 80 81 81
80 80 73 47 52 55 56 58 66 58 64 53 51 48 48 69
60 55 47 28 37 32 17 16 12 14 10 7 4 18 20 16
17 16 11 17 24 26 38 39 45 57 76 91 99 108 113 127
136 137 137 137 137 136 136 137 137 137 136 137 138 137 136 136
136 137 137 137 135 123 51 43 44 38 11 6 0 0 1 3
14 39 10 0 0 0 0 0 18 30 23 0 0 0 0 0
17 7 0 3 2 0 8 32 24 18 23 25 27 27 27 22
51 50 49 48 49 71 80 79 79 79 78 77 74 71 64 52
47 40 30 9 8 8 11 18 57 69 74 65 70 67 59 78
81 73 46 36 41 22 17 18 14 21 11 5 0 4 16 21
15 25 17 15 18 25 34 45 56 66 82 96 105 113 126 137
138 137 137 137 137 137 138 137 137 137 137 137 137 137 137 136
136 136 136 136 135 125 53 35 43 42 9 0 0 0 6 7
11 38 7 0 0 0 0 0 18 30 21 0 0 0 0 0
16 8 0 0 0 0 8 32 23 19 24 24 28 28 27 24
62 61 61 60 59 65 65 59 63 61 60 57 55 53 32 2
0 0 0 3 6 0 2 8 56 72 76 74 72 68 58 73
84 77 36 53 30 17 19 14 17 42 11 9 1 3 6 26
17 24 29 20 27 29 34 47 65 79 92 105 116 130 137 138
137 138 137 137 138 138 137 138 137 138 137 137 137 137 136 137
136 136 136 135 136 127 55 24 31 46 20 4 0 0 4 4
8 37 6 0 0 0 0 0 17 31 20 1 0 0 0 0
15 11 0 1 0 0 7 32 23 20 24 25 27 28 26 26
54 56 58 55 57 60 57 50 58 59 59 58 55 54 31 0
0 0 0 9 18 2 3 10 56 72 75 75 70 66 55 59
66 56 34 38 18 18 18 11 23 36 21 18 5 3 2 21
25 24 27 25 34 48 55 62 76 92 117 134 138 137 138 137
137 137 136 137 138 137 137 136 128 109 110 109 116 134 136 136
137 136 137 136 135 128 71 35 29 48 20 2 0 0 5 6
8 37 5 0 0 0 0 0 12 32 22 2 0 0 0 0
14 14 0 0 0 0 7 30 21 20 23 25 27 28 27 26
52 53 53 51 53 55 55 55 55 56 58 57 54 54 32 0
0 0 0 1 6 1 3 11 55 73 69 63 61 54 47 42
46 36 26 19 12 18 15 11 29 28 23 22 10 5 3 7
23 26 22 28 32 48 69 79 89 107 127 138 137 137 137 137
137 136 137 138 136 126 111 95 98 89 62 64 76 84 129 137
137 136 136 136 115 79 49 37 28 46 11 0 0 0 0 0
8 37 6 0 0 0 0 0 10 33 21 1 0 0 0 0
12 18 0 0 0 0 6 29 20 21 24 25 28 27 27 25
50 50 50 48 49 48 48 48 46 48 50 55 56 56 33 0
0 0 0 0 1 2 5 12 54 73 68 52 27 13 7 10
24 25 19 16 16 21 11 20 26 21 27 22 16 12 9 5
17 28 24 23 30 38 56 70 84 101 129 139 138 138 138 138
138 138 138 131 117 120 108 120 125 127 116 114 100 72 85 134
137 137 136 128 80 47 29 30 31 37 8 0 0 0 0 0
5 38 10 0 0 0 0 0 8 34 22 3 0 0 0 1
12 22 0 0 0 0 6 27 20 21 24 25 28 28 25 23
50 49 49 48 48 48 47 46 46 34 10 36 60 58 35 0
0 0 0 3 12 16 7 13 53 73 68 49 11 0 0 5
12 21 22 16 20 15 18 29 10 20 25 25 19 19 17 9
17 11 27 18 33 39 46 64 83 101 131 138 138 138 138 138
138 138 133 132 137 132 124 136 137 136 137 134 125 105 92 112
137 136 136 112 66 65 50 6 17 23 15 3 2 2 5 11
8 34 24 12 12 15 13 13 19 37 26 27 26 25 26 29
33 28 5 3 2 3 9 25 19 20 24 25 28 26 22 25
45 45 45 45 44 44 44 45 45 30 0 24 58 58 35 0
0 1 20 16 27 35 11 13 53 74 68 49 16 8 8 13
14 17 22 21 20 16 21 21 10 21 26 22 22 38 35 11
14 1 22 22 29 44 48 57 69 93 129 138 138 138 135 128
126 120 121 119 115 122 124 137 137 136 134 135 128 118 104 102
124 116 92 96 92 108 58 3 15 9 23 30 28 27 30 30
30 32 43 46 41 42 43 43 44 43 26 32 35 36 39 44
45 38 24 23 22 22 23 23 20 19 23 25 26 24 25 25
10 11 12 13 14 16 19 34 45 32 0 17 54 53 39 11
10 20 47 41 52 54 25 16 52 73 67 48 23 18 19 18
15 18 21 22 21 20 27 16 17 22 18 24 20 35 36 24
35 16 2 18 24 26 30 36 38 58 66 67 64 64 65 64
83 83 79 72 96 87 118 139 138 136 130 119 121 116 88 91
137 134 100 100 116 111 47 0 13 8 16 38 35 37 36 30
27 28 40 49 46 44 43 46 46 45 28 27 32 35 38 43
43 38 24 23 23 23 23 23 22 20 22 24 24 25 27 25
0 0 0 0 0 0 0 23 46 32 0 13 52 48 44 43
45 42 51 58 64 63 53 49 61 70 64 46 25 19 20 16
13 21 22 22 26 23 29 19 16 20 10 23 24 25 30 25
56 67 51 38 14 3 17 42 83 104 131 139 139 138 135 131
127 124 117 112 109 119 110 116 113 108 98 104 112 109 90 100
137 136 117 120 123 100 44 28 30 28 25 45 32 35 35 31
25 26 30 32 33 33 32 31 30 32 27 22 26 27 29 25
23 24 25 24 25 24 23 22 22 22 20 21 24 28 26 25
0 0 0 0 0 0 0 21 46 34 1 12 50 50 49 51
54 47 53 60 66 65 63 63 64 67 63 45 22 17 18 13
9 19 21 24 26 25 27 25 18 11 14 25 34 17 25 14
42 98 107 97 50 19 18 39 76 104 133 138 138 137 137 138
138 137 137 136 125 106 102 87 83 69 30 60 99 93 86 103
136 137 113 112 99 73 38 35 33 39 47 82 53 26 31 32
26 27 26 21 22 22 22 22 21 24 26 26 29 29 29 25
22 23 24 25 25 24 23 23 23 22 23 24 27 28 26 24
0 0 0 0 0 0 0 21 47 34 1 12 48 54 50 47
56 54 56 63 69 69 68 65 64 67 63 44 15 5 8 9
15 22 21 22 23 30 30 23 16 15 22 31 33 25 25 22
32 45 95 98 79 51 36 48 80 108 132 138 138 138 138 138
137 137 137 132 130 102 119 124 133 67 38 77 124 87 103 91
131 137 111 85 33 23 24 24 31 41 48 91 40 12 14 17
14 21 28 26 27 27 34 33 30 30 32 32 35 38 37 30
25 24 24 25 25 24 24 23 23 22 23 24 27 28 26 22
0 0 0 0 0 0 0 20 47 36 1 11 45 55 52 43
47 44 51 62 70 71 70 68 65 70 64 43 12 0 4 6
17 21 23 19 17 36 30 23 16 23 31 37 34 33 35 31
56 44 71 102 97 78 61 79 91 115 137 139 139 139 138 138
138 138 137 138 136 102 132 137 137 128 105 111 127 87 108 101
134 134 123 66 28 33 25 5 16 23 26 79 15 0 0 1
5 20 29 35 39 34 46 47 25 18 20 20 23 29 38 33
27 25 25 25 25 25 24 24 23 23 23 24 28 29 25 19
0 0 0 0 0 0 0 20 47 36 3 6 39 48 36 37
42 43 41 42 45 52 61 69 67 71 64 44 13 5 8 9
18 20 22 19 22 39 35 28 22 31 32 46 37 35 37 33
60 54 48 91 105 103 90 90 97 120 136 139 138 138 138 137
139 138 138 134 136 103 121 131 134 131 120 121 102 77 87 109
135 137 129 80 87 57 14 1 17 17 29 83 4 0 0 0
1 24 27 35 38 24 33 41 9 0 0 0 0 7 37 34
27 26 25 25 25 24 24 24 24 22 22 24 27 28 22 13
0 0 0 0 0 0 0 20 48 41 24 6 29 38 9 14
24 27 22 16 11 17 34 66 69 72 67 52 23 13 12 12
23 22 16 19 19 35 37 29 28 34 39 44 41 35 40 34
64 41 24 68 107 109 107 97 103 125 138 135 137 138 138 138
138 138 137 138 137 122 109 138 137 134 132 129 115 95 98 127
137 137 136 105 105 69 1 0 16 16 33 67 0 0 0 0
0 24 25 33 33 3 3 27 9 0 0 0 0 4 34 34
27 27 26 25 25 24 23 23 22 22 22 24 27 25 21 7
0 0 0 0 0 0 0 18 47 44 27 4 23 36 0 0
1 5 8 5 9 18 36 65 69 69 65 58 33 12 13 17
20 17 16 20 21 34 32 26 29 34 42 35 41 33 38 43
67 34 25 60 104 109 107 98 103 124 137 133 134 136 138 138
138 138 138 138 138 136 93 137 135 136 136 131 121 106 116 137
137 137 137 127 107 103 29 0 13 17 34 44 0 0 0 0
0 25 24 34 33 2 1 25 10 0 0 0 0 1 31 34
26 26 26 26 25 24 24 23 23 23 23 23 26 23 20 15
0 0 0 0 0 0 0 18 48 40 6 0 20 37 1 0
0 3 9 0 0 2 22 65 69 68 65 67 35 6 12 18
20 18 17 21 27 34 28 15 25 38 36 25 35 25 38 51
80 36 33 59 98 122 117 106 110 125 137 138 137 138 138 139
138 138 138 137 138 137 111 122 138 137 136 131 129 105 129 138
137 136 137 133 112 109 85 3 10 19 45 14 0 0 0 0
0 26 23 33 33 1 1 23 13 0 0 0 0 0 28 34
26 26 25 25 24 24 23 22 23 22 22 22 26 23 19 16
0 0 0 0 0 0 0 16 47 39 4 0 15 39 3 0
0 0 8 0 0 0 8 61 63 63 61 65 44 28 24 25
27 18 24 19 31 27 26 19 32 37 32 21 27 25 34 55
85 36 36 44 98 129 125 116 110 125 132 137 138 138 139 138
138 138 137 137 138 137 136 102 134 137 137 137 129 120 138 136
136 136 136 134 125 111 107 23 9 23 43 0 0 0 0 0
0 26 22 33 32 1 1 22 14 0 0 0 0 0 25 33
25 25 25 24 24 24 23 22 22 22 22 23 25 26 18 10
0 0 0 0 0 0 0 15 47 41 9 6 19 43 6 0
0 3 11 0 0 0 8 60 53 46 48 62 57 49 32 32
31 21 23 20 30 29 30 26 37 34 30 25 21 31 35 56
92 45 35 34 82 125 127 116 111 126 133 136 134 137 138 138
138 138 137 137 137 135 134 127 101 117 130 116 123 137 137 137
137 137 137 134 128 114 109 54 9 36 13 0 0 0 0 0
0 23 22 33 32 3 2 19 16 0 0 0 0 0 24 34
25 25 25 25 24 23 22 22 22 21 21 22 25 26 21 13
0 0 0 0 0 0 0 13 47 45 39 42 47 49 13 0
0 1 8 0 5 6 6 55 27 5 12 49 57 48 33 34
36 26 19 26 29 29 35 40 36 29 29 29 29 34 38 53
87 77 61 53 70 116 124 119 115 130 133 135 136 137 137 138
137 138 137 137 137 137 137 137 136 129 120 131 137 136 136 136
136 136 136 136 134 131 117 81 26 31 4 1 1 0 2 5
0 22 24 34 33 12 3 17 17 2 1 1 0 0 21 33
25 25 25 24 23 22 22 22 22 21 21 22 24 25 21 15
0 0 0 0 0 0 0 12 46 46 51 52 54 52 16 0
0 0 0 0 10 16 10 54 20 0 2 42 56 45 32 38
32 32 23 24 28 28 35 43 27 31 29 35 34 36 40 50
83 75 70 117 99 116 120 120 119 128 134 136 137 137 137 138
138 137 137 137 136 136 136 136 137 136 136 135 136 135 136 136
137 136 137 136 136 135 121 68 30 25 5 5 2 0 4 13
5 21 27 35 32 17 10 16 15 1 7 5 0 0 19 31
24 24 24 23 23 23 22 22 21 21 20 20 22 24 21 17
0 0 0 0 0 0 0 12 46 46 50 53 55 54 23 3
1 0 0 0 3 12 23 55 31 16 18 31 35 34 32 36
29 25 20 23 23 28 31 35 17 27 30 38 37 35 40 35
66 87 93 115 117 115 122 120 122 130 134 137 136 137 137 137
137 137 137 137 136 136 136 137 137 136 136 136 135 127 135 136
136 133 123 125 133 135 120 108 32 26 17 16 17 14 18 24
22 30 33 37 30 15 18 16 15 5 9 7 3 3 19 27
23 23 24 24 23 22 22 22 21 21 21 19 21 25 19 18
0 0 0 0 0 0 0 11 46 45 40 47 46 44 33 26
29 21 22 24 28 33 42 55 45 41 46 38 37 34 29 31
26 22 19 26 25 24 24 28 14 33 34 36 36 38 36 29
29 62 113 108 106 110 123 121 123 130 135 135 136 136 138 137
137 137 137 137 137 137 136 136 137 137 136 136 136 123 118 127
124 97 75 113 126 112 127 107 32 26 36 40 41 41 42 42
42 44 41 38 27 6 20 17 25 20 21 20 18 18 19 20
23 24 24 23 23 22 22 22 20 20 20 19 21 23 16 18
0 0 0 0 0 0 0 10 46 45 33 30 23 20 22 23
30 44 59 65 65 66 68 70 69 68 65 60 54 45 30 30
24 27 23 28 22 20 23 26 11 31 44 32 31 40 37 28
21 22 81 113 95 109 109 116 123 126 130 134 134 127 135 136
136 137 137 137 136 136 135 137 136 136 135 137 137 136 134 132
136 136 130 107 102 123 131 94 31 25 39 46 46 45 45 44
44 45 46 39 26 0 7 14 25 20 21 21 21 20 20 21
23 23 23 23 22 22 22 21 21 20 20 19 20 22 17 18
0 0 0 0 0 0 0 9 46 44 29 20 13 10 12 20
22 26 38 57 70 75 75 73 73 70 66 60 53 42 33 28
22 21 23 25 16 18 25 17 16 25 37 29 28 36 38 28
26 11 19 93 117 96 77 108 116 124 126 130 130 134 136 136
136 136 137 137 136 137 136 137 135 133 135 136 137 137 137 136
137 136 132 118 122 133 125 77 30 23 28 33 32 30 29 28
27 25 25 33 25 0 3 13 26 23 25 25 24 23 24 23
23 23 23 23 22 22 21 21 21 21 20 19 20 19 19 18
0 0 0 0 0 0 0 9 46 43 18 12 16 21 21 19
23 27 29 35 51 65 60 55 52 48 48 48 40 36 32 25
20 21 23 25 13 15 25 8 18 21 34 28 28 30 39 30
24 9 0 14 51 46 33 99 107 117 123 127 129 133 135 136
137 137 137 136 137 137 136 132 127 132 137 137 136 137 137 136
136 136 136 133 122 124 114 55 30 23 16 13 12 12 11 11
11 10 10 29 26 0 2 11 26 24 26 26 26 25 25 25
24 23 24 23 22 22 22 21 21 20 19 19 18 17 20 18
0 0 0 0 0 0 0 8 45 43 11 2 6 19 22 14
17 22 27 33 40 49 47 46 45 41 41 43 32 29 28 23
22 24 21 20 14 16 18 7 18 31 36 23 24 29 33 29
26 15 5 0 5 15 41 92 103 115 120 124 125 131 133 136
137 137 137 137 136 136 135 126 122 135 137 137 137 137 137 137
136 137 136 136 122 119 100 37 31 24 18 15 14 13 13 12
13 11 11 31 27 4 6 15 27 23 26 26 25 25 24 24
23 23 23 23 22 22 21 21 21 20 19 17 18 21 22 21
0 0 0 0 0 0 0 7 44 43 10 0 0 6 14 16
18 20 25 34 32 33 34 35 33 29 31 32 27 28 26 23
22 30 22 15 19 21 20 8 12 36 33 16 20 39 34 29
21 17 6 0 4 16 38 82 97 112 118 122 125 127 133 136
137 137 137 137 137 136 135 116 113 127 123 121 121 119 120 127
133 134 132 125 120 119 70 35 30 26 22 20 19 18 17 16
14 14 12 32 31 26 35 38 29 22 25 25 25 24 24 23
23 23 23 23 21 21 21 21 20 19 18 16 17 23 21 21
0 0 0 0 0 0 0 6 43 43 13 0 0 6 13 16
18 21 26 41 38 32 30 28 32 29 26 26 28 26 20 19
19 25 22 16 25 29 28 12 13 38 29 18 24 44 47 31
25 11 8 0 5 17 31 70 94 110 117 122 124 129 132 136
138 137 137 137 136 136 133 111 72 86 116 109 119 114 119 106
110 108 104 89 95 115 43 35 30 25 22 21 20 20 19 18
18 15 13 31 29 30 38 37 26 23 25 24 24 23 24 23
23 22 22 21 22 21 21 20 20 19 17 17 19 23 22 21
0 0 0 0 0 0 0 6 43 44 14 0 3 5 12 15
18 20 26 42 34 26 23 20 28 28 20 23 27 28 24 23
18 21 20 20 30 37 27 12 23 36 24 19 27 44 51 36
24 12 6 0 3 20 32 63 87 106 118 122 125 126 134 137
138 137 137 137 137 137 133 125 132 119 131 121 138 136 138 137
137 129 133 118 128 88 31 32 30 26 23 21 20 20 19 19
18 16 14 22 22 20 22 24 23 25 25 25 25 24 24 23
23 22 22 22 22 20 21 20 19 19 17 15 18 23 23 21
0 0 0 0 0 0 0 5 42 44 15 0 5 4 12 15
17 20 25 42 33 25 23 20 28 29 21 22 29 26 26 25
17 21 19 23 29 41 29 19 25 30 15 16 24 35 47 40
23 15 8 1 2 19 29 64 86 100 115 122 125 127 132 138
138 138 137 137 138 137 134 133 137 136 124 103 100 91 137 133
137 137 135 132 134 55 25 28 30 25 24 21 21 19 19 18
17 16 17 22 23 21 20 22 23 23 24 24 24 24 23 22
22 22 21 21 21 20 20 20 19 18 17 14 19 22 24 21
0 0 0 0 0 0 0 4 41 43 15 1 4 3 11 15
17 20 24 42 34 24 23 19 25 31 21 23 27 29 30 26
20 24 22 19 30 33 26 25 31 26 10 16 20 31 37 38
27 17 5 0 3 16 26 63 86 96 113 122 125 126 132 137
137 138 138 137 136 136 136 137 137 137 137 136 135 125 105 104
118 102 110 123 125 23 21 28 28 25 24 23 21 20 19 18
18 16 17 22 24 23 22 23 23 23 24 24 24 22 22 22
22 21 22 21 20 20 20 20 19 18 17 15 20 22 25 21
8 8 9 10 10 11 12 18 43 43 17 1 2 3 11 15
17 19 24 41 34 25 20 17 26 32 22 22 25 33 35 32
25 30 20 19 26 25 27 27 37 19 12 18 24 32 30 33
26 15 9 2 3 13 25 61 86 90 107 118 122 125 130 135
137 138 137 137 137 137 137 137 137 137 137 137 137 137 137 133
124 126 114 118 95 12 16 21 27 24 23 22 22 21 20 19
18 17 17 23 24 24 22 22 22 23 23 23 23 23 22 22
21 21 21 20 20 20 19 19 18 17 15 17 20 23 24 21
45 45 44 43 43 43 43 43 44 42 18 1 2 2 10 14
16 19 23 40 34 25 19 16 24 28 21 21 26 29 33 35
27 35 20 30 21 17 33 35 25 21 20 19 41 38 25 28
26 18 8 4 3 10 22 53 83 90 97 113 119 121 125 133
137 138 137 136 137 136 137 137 137 137 137 137 137 137 136 136
131 129 117 118 57 11 18 22 23 23 22 21 21 20 20 19
18 17 18 22 23 23 22 23 22 22 23 22 23 22 22 21
21 20 20 20 20 19 19 16 15 16 13 18 19 23 23 21
48 47 46 46 45 44 44 42 43 42 19 1 0 1 10 13
16 18 23 39 35 24 21 21 27 29 21 23 25 22 25 28
27 31 31 27 18 19 37 29 13 22 27 21 53 35 24 27
24 20 11 6 5 8 20 41 76 96 90 103 112 119 121 125
134 136 137 137 136 137 137 136 137 137 137 137 137 136 136 134
125 120 115 115 19 14 19 28 21 23 22 22 21 20 20 20
18 18 19 21 24 23 23 22 22 21 22 22 21 21 21 21
21 20 20 19 19 18 18 13 8 10 13 17 19 24 22 18
48 47 47 46 46 45 45 43 43 43 20 0 0 0 6 10
13 16 21 36 38 34 33 33 30 31 26 27 25 21 22 20
23 24 34 17 14 26 39 24 10 14 26 19 31 22 26 29
22 20 17 9 6 7 20 30 63 95 96 90 104 109 114 117
126 135 137 137 137 137 137 137 137 137 137 136 136 136 136 136
131 129 120 82 5 20 24 26 23 20 23 21 20 20 20 19
19 19 19 22 23 23 23 23 21 21 21 22 21 21 21 20
20 19 19 18 16 16 17 18 13 10 16 19 24 24 18 19
45 45 44 44 43 42 42 41 41 38 17 0 0 0 6 10
12 14 17 31 38 36 35 33 32 27 24 26 22 17 11 10
21 22 22 16 26 31 35 14 17 11 25 19 19 21 31 30
27 19 18 6 5 8 18 25 50 87 104 94 93 100 106 112
118 126 136 137 137 137 137 137 137 136 137 136 136 136 136 136
135 132 119 42 2 18 21 26 27 22 22 21 22 21 21 21
21 22 22 23 22 22 22 22 21 21 21 21 21 21 20 19
19 18 18 18 15 15 19 21 19 16 15 15 16 16 20 25
38 37 37 37 37 36 35 35 36 35 12 0 0 0 8 12
14 17 23 38 35 32 32 30 29 24 23 22 18 15 8 3
19 18 22 16 21 24 21 10 15 15 24 20 18 31 36 35
28 22 20 6 6 8 16 23 45 72 99 104 95 94 97 103
108 117 125 133 136 136 137 137 137 136 137 136 136 136 136 135
135 132 122 22 1 8 14 23 26 23 24 24 26 24 25 26
25 24 24 23 22 22 22 22 21 21 21 20 21 20 20 19
19 19 18 16 15 14 16 21 25 20 12 6 0 0 2 2
44 44 44 43 44 41 37 38 40 40 15 0 0 1 8 12
15 17 24 41 30 25 24 27 30 24 21 19 21 12 5 5
13 20 24 19 28 29 19 7 17 22 18 20 24 42 39 34
26 22 17 9 8 10 15 19 35 62 86 106 101 99 97 95
99 105 114 124 134 136 137 136 136 136 136 136 135 136 136 135
135 134 123 17 2 14 19 24 21 26 25 26 27 26 28 26
25 25 25 24 23 21 22 22 21 20 20 21 20 19 19 18
18 18 17 15 14 14 14 14 21 25 13 7 1 0 0 0
40 38 37 35 34 29 26 23 24 23 8 0 0 1 8 11
14 17 24 39 27 23 23 25 29 21 19 18 19 15 5 10
13 19 20 25 34 29 23 6 17 25 23 18 29 38 34 34
32 21 22 16 11 14 20 21 30 52 74 98 105 102 102 99
95 96 100 108 118 125 134 137 138 137 137 137 137 137 137 137
136 136 121 10 3 18 28 17 16 25 25 25 26 26 27 27
26 25 25 24 23 22 23 23 22 22 21 21 20 20 19 19
18 18 18 16 14 14 14 12 12 16 11 11 2 2 0 0
16 16 11 3 8 1 2 0 1 1 0 0 0 2 10 12
15 18 25 41 28 22 23 23 27 22 20 19 23 18 10 15
17 14 18 25 25 21 34 7 20 22 26 28 35 34 34 33
37 27 25 17 20 18 20 26 27 45 64 89 105 104 103 104
100 96 91 94 102 110 119 126 135 138 138 138 138 138 137 137
137 137 106 8 11 21 22 11 13 23 27 22 22 22 23 23
23 24 24 23 23 23 23 24 23 23 22 21 21 20 20 20
19 19 18 18 16 15 16 13 13 13 13 14 1 0 0 0
7 9 6 0 8 0 0 0 0 0 0 3 4 7 11 12
15 18 25 41 30 21 20 20 30 24 18 16 20 20 20 11
20 9 15 25 17 19 33 7 15 16 29 33 35 37 33 34
40 33 26 19 20 19 18 27 28 38 58 79 99 105 103 103
102 97 97 94 91 95 101 107 115 130 135 137 138 138 138 138
138 135 71 11 20 23 18 8 7 15 24 22 20 19 20 19
20 20 20 20 21 22 24 24 23 23 22 22 21 20 20 19
19 18 19 18 17 16 15 13 13 12 14 14 2 0 0 0
14 11 6 1 13 0 0 0 0 1 4 8 8 10 11 14
16 18 26 42 30 21 20 21 28 21 14 16 17 21 25 15
23 15 23 26 24 22 35 13 15 19 31 31 28 34 36 33
45 35 27 22 17 18 21 28 31 33 49 69 96 104 104 104
105 104 101 100 98 94 89 89 91 102 111 120 136 138 138 138
138 117 21 10 21 28 18 4 4 5 15 19 18 19 20 19
19 19 18 18 19 22 23 24 24 23 22 22 21 20 20 20
20 18 19 18 17 16 13 15 13 12 14 14 2 1 0 0
32 23 7 2 14 1 0 0 0 2 5 7 6 9 11 12
15 18 25 40 29 21 20 19 29 22 13 15 15 22 28 27
25 19 31 20 30 26 23 22 19 14 15 27 19 23 30 35
46 33 26 23 18 25 35 31 38 39 44 59 85 101 109 109
111 109 106 102 98 93 88 82 77 73 77 86 101 116 120 120
108 39 12 21 15 19 12 0 0 0 4 10 18 19 20 19
18 18 17 17 18 21 24 24 24 23 22 21 20 20 19 19
19 19 18 18 16 13 13 16 22 17 8 6 1 1 0 0
35 25 8 3 15 3 0 0 2 3 4 7 4 6 8 10
13 16 23 39 35 29 27 24 29 21 15 15 19 25 27 27
26 19 25 20 36 25 13 26 18 12 12 19 10 20 28 40
39 25 30 23 19 24 36 36 48 50 51 53 76 97 110 114
115 114 108 101 93 83 75 69 62 55 46 36 40 45 48 45
17 6 16 26 16 15 9 0 0 0 2 9 16 19 18 19
19 18 17 17 18 21 24 23 24 23 23 23 21 20 18 16
16 18 30 30 27 24 23 21 32 38 23 19 15 17 13 10
22 16 12 13 19 14 12 1 1 3 6 9 5 8 9 10
11 13 19 36 37 35 33 26 25 21 14 14 24 24 19 20
25 18 15 20 32 19 6 21 14 11 9 11 7 20 28 45
34 20 28 27 20 19 20 37 55 62 63 63 73 95 111 118
120 114 109 100 87 70 55 46 55 98 35 15 27 16 12 9
5 6 13 21 13 23 7 0 0 0 5 14 17 20 21 25
27 28 27 24 26 30 32 32 33 35 36 36 34 31 23 8
5 15 39 40 38 37 36 36 37 34 35 30 27 33 29 26
33 33 34 34 34 34 35 8 0 0 4 7 4 8 10 11
14 15 18 33 37 34 33 25 20 21 10 15 24 15 8 16
26 18 11 16 26 17 7 9 13 14 11 6 7 18 26 46
27 20 26 23 23 19 15 36 62 72 75 71 73 98 112 122
123 119 111 100 80 57 36 35 96 97 27 16 24 13 13 9
4 5 13 16 12 16 4 0 0 5 23 30 27 31 38 43
45 45 45 43 43 43 42 42 41 39 39 38 37 35 33 9
0 0 5 6 6 7 8 9 8 5 5 6 10 5 3 3
24 20 16 14 10 10 31 10 0 0 0 6 2 8 10 12
14 17 20 34 37 29 27 21 15 20 10 12 23 18 5 15
21 13 11 13 17 22 7 4 6 9 15 10 15 19 33 42
16 15 23 22 22 19 18 30 57 73 80 75 77 101 115 126
129 125 119 107 88 62 50 80 120 85 26 14 23 13 15 11
6 12 19 18 12 9 1 0 0 10 27 31 38 42 43 44
44 42 41 41 40 39 37 36 34 33 32 31 30 28 26 13
0 0 0 0 0 0 0 0 0 0 0 0 0 0 0 0
0 0 0 0 0 2 23 11 0 0 0 5 2 8 10 12
14 16 20 33 36 25 24 18 14 17 11 10 11 19 10 17
14 10 10 15 12 18 12 2 8 5 16 18 14 22 38 33
8 13 24 22 23 19 17 29 49 66 80 78 75 91 114 123
129 132 130 123 112 98 96 112 121 79 24 17 22 21 15 15
18 22 31 22 7 5 0 0 2 10 21 16 22 31 39 41
39 37 36 35 33 31 31 29 27 27 25 25 23 21 21 15
0 1 0 0 1 0 0 0 0 0 0 0 0 0 0 0
0 1 1 1 1 2 12 9 0 0 0 5 1 7 8 11
14 16 19 32 37 24 23 17 14 14 12 5 0 10 22 16
8 6 10 11 8 14 7 0 9 9 14 12 19 26 40 25
15 11 22 22 25 18 22 31 45 60 76 80 76 84 104 121
133 132 131 130 121 110 112 120 117 67 22 24 21 21 9 12
26 25 29 26 13 2 2 7 7 7 22 16 15 15 19 26
32 32 32 30 29 28 26 26 24 24 22 22 21 20 19 11
0 6 1 0 5 4 4 3 3 2 2 2 1 1 1 0
0 0 0 0 0 0 13 11 0 0 0 2 1 7 8 10
13 15 18 31 38 25 22 19 16 13 11 3 0 12 31 15
10 5 7 10 11 13 5 0 3 9 12 16 21 28 32 17
17 11 24 23 23 17 21 31 41 59 75 84 75 84 102 115
127 132 133 126 116 114 116 125 102 61 28 22 19 22 11 13
10 26 27 22 10 2 10 16 15 13 27 14 17 13 16 15
17 24 30 30 29 28 27 26 26 24 23 21 21 20 18 6
0 7 0 2 7 7 9 9 10 8 8 6 4 3 4 2
0 0 0 0 0 0 10 8 0 0 0 0 1 7 8 10
12 15 19 31 37 23 19 17 18 18 13 3 0 14 30 16
8 8 3 0 5 8 9 4 3 8 21 23 20 33 31 13
10 16 27 24 22 19 23 33 41 53 69 80 79 83 99 114
125 130 129 123 116 117 122 122 98 62 35 22 17 31 19 13
15 17 33 23 10 4 19 31 18 5 12 13 13 13 13 13
16 17 19 26 30 29 28 26 26 25 23 22 21 21 18 3
0 7 0 6 8 9 11 10 10 8 7 5 2 0 0 0
0 0 0 0 0 0 0 0 0 0 0 3 4 7 9 10
12 15 19 29 36 23 19 12 17 23 19 9 0 2 18 9
3 6 7 1 1 6 4 6 5 6 23 21 25 36 29 16
11 18 27 27 23 24 26 34 39 50 66 76 75 81 95 109
123 127 126 122 119 122 126 118 99 61 35 24 14 31 24 14
20 24 23 34 18 4 25 41 31 1 7 14 13 14 16 14
16 19 20 20 23 28 28 27 26 24 23 23 22 20 15 1
0 2 0 6 8 9 8 7 4 3 3 2 1 0 0 0
0 0 0 0 0 1 2 2 1 2 8 16 19 20 22 20
14 13 17 28 36 26 22 14 18 21 22 13 9 4 7 12
4 4 21 5 4 4 8 13 1 5 18 15 25 30 28 17
13 22 28 29 24 27 25 31 38 49 64 79 79 78 90 108
122 125 124 122 123 124 128 115 99 61 34 17 13 18 29 19
15 24 16 30 31 4 14 32 20 0 4 12 15 18 17 17
21 22 22 24 19 19 27 26 25 24 23 22 21 19 13 0
0 0 0 3 5 5 1 0 0 0 2 0 0 0 0 0
16 18 21 24 24 28 31 32 35 32 34 36 38 39 40 41
32 16 14 21 29 26 25 19 13 20 25 25 17 17 12 10
0 4 20 9 7 13 12 1 0 6 14 10 20 30 22 18
18 20 21 23 31 29 26 32 38 49 63 81 82 79 86 100
117 124 125 123 122 125 129 115 100 60 34 15 13 11 29 26
19 19 15 24 38 10 8 15 11 6 0 7 15 18 16 17
21 24 22 24 22 16 19 25 25 24 23 22 21 19 11 0
0 0 0 0 0 0 0 0 0 0 0 0 0 0 0 0
45 45 45 47 44 47 47 47 49 46 42 43 43 45 45 45
45 30 6 7 18 20 20 17 10 12 20 23 23 16 10 0
0 3 11 18 14 14 2 0 1 11 21 12 18 23 12 18
19 18 19 23 25 28 27 32 40 44 63 80 86 88 92 97
109 117 120 120 123 128 131 115 102 50 27 24 15 18 30 23
12 12 16 15 26 19 14 11 10 14 0 4 19 19 18 18
22 24 21 22 24 19 15 20 25 24 23 22 21 18 9 0
0 0 0 0 0 0 0 0 0 0 0 0 0 0 0 0
44 43 45 48 47 43 50 49 50 52 44 42 47 49 50 49
49 45 29 17 25 26 23 18 15 16 19 20 16 10 5 2
5 5 6 15 19 14 0 0 1 18 33 18 15 11 8 11
16 21 16 29 26 31 27 32 40 44 61 78 85 90 98 102
107 114 118 120 126 132 134 117 87 28 18 25 19 25 16 16
13 16 13 13 17 16 17 16 17 19 3 3 21 19 17 18
25 25 20 22 24 24 15 15 25 24 24 22 21 19 6 0
0 0 0 0 0 0 0 0 0 0 0 0 0 0 0 0
46 48 49 54 52 52 50 49 52 54 51 49 47 56 58 51
45 38 30 19 21 21 21 21 22 22 20 14 7 6 6 8
8 4 1 8 13 6 0 0 3 19 29 22 17 5 5 7
13 19 13 28 36 30 25 34 40 46 60 76 87 93 100 106
110 117 121 123 130 134 135 116 71 34 28 34 20 23 10 8
10 12 14 12 12 15 20 16 20 18 4 5 23 19 18 22
26 25 18 21 23 23 18 13 20 24 22 21 20 17 3 0
0 0 0 0 0 0 0 0 0 0 0 0 0 0 0 0
53 55 52 55 53 55 51 50 53 52 51 50 48 46 36 25
20 19 20 20 22 22 22 22 21 17 10 6 6 8 8 8
7 7 2 8 10 4 2 0 0 8 18 18 19 4 4 4
12 18 15 23 37 34 26 35 48 52 58 74 88 97 102 107
110 118 123 128 135 136 137 121 74 50 45 62 41 30 10 6
7 8 11 14 11 18 22 19 19 16 5 8 23 22 23 24
26 23 19 21 24 23 19 14 15 23 22 21 19 15 1 0
0 0 0 0 0 0 0 0 0 0 0 0 0 0 0 0
47 45 44 43 42 40 39 37 35 33 31 29 28 21 17 18
19 20 21 22 22 22 21 21 14 8 8 8 8 7 8 7
8 9 4 3 6 6 4 0 0 3 5 5 4 0 5 5
8 12 12 20 39 33 32 39 63 64 61 76 88 97 105 108
114 119 125 130 137 138 139 135 116 90 79 95 74 44 18 13
17 20 19 17 12 21 24 23 22 16 6 13 24 23 24 25
25 19 20 20 23 23 17 15 14 22 22 21 20 14 1 0
0 0 0 0 0 0 0 0 0 0 0 0 0 0 0 0
20 17 15 13 12 9 7 5 3 2 2 3 13 16 18 21
21 22 22 22 22 22 22 14 8 8 9 8 7 7 8 8
8 10 8 1 1 5 5 1 0 0 3 0 5 0 6 9
7 8 9 20 36 33 27 48 83 77 70 80 99 105 109 113
117 122 129 135 138 139 139 139 135 135 132 126 106 53 21 23
25 24 24 20 12 20 25 24 23 14 6 17 24 24 24 24
25 15 22 20 21 23 16 19 14 19 21 21 19 14 1 0
0 0 0 0 0 0 0 0 0 0 0 0 0 0 0 0
0 0 0 0 0 0 0 0 0 0 0 6 14 17 20 21
21 22 21 22 22 21 13 8 10 11 10 10 9 6 8 9
9 10 12 4 0 3 7 2 0 2 4 12 12 4 0 5
8 8 11 24 33 33 33 68 92 90 84 88 108 115 117 120
123 129 135 138 139 139 139 138 138 138 138 138 124 44 22 23
25 26 25 21 11 18 25 24 23 14 6 19 24 22 23 25
24 13 22 19 18 22 16 20 17 17 22 20 19 20 1 0
0 0 0 0 0 0 0 0 0 0 0 0 0 0 0 0
0 0 0 0 0 0 0 0 0 0 3 12 14 19 20 21
21 21 21 21 21 15 10 10 12 13 12 12 11 7 5 9
10 9 10 9 1 0 6 5 0 2 4 6 14 9 5 2
4 12 17 24 32 45 71 93 104 104 96 95 110 124 124 129
132 137 139 139 139 139 139 138 138 138 139 139 118 32 23 24
26 26 25 23 12 16 23 23 23 12 6 18 24 23 25 25
21 13 23 20 13 21 16 20 20 15 21 20 18 10 0 0
0 0 0 0 0 0 0 0 0 0 0 0 0 0 0 0
0 0 0 0 0 0 0 0 0 0 8 11 16 19 20 20
21 20 22 22 20 11 10 15 15 14 15 13 15 11 7 12
13 11 9 11 6 0 3 8 2 1 6 5 5 5 5 1
1 1 15 19 46 77 94 104 110 116 108 105 118 133 134 136
137 139 139 139 139 139 139 138 139 138 138 138 97 23 24 24
26 27 25 22 11 15 23 25 23 10 4 21 25 23 25 24
15 17 23 21 12 19 16 22 20 15 19 20 20 7 0 0
0 0 0 0 0 0 0 0 0 0 0 0 0 0 0 0
0 0 0 0 0 0 0 0 0 2 9 12 18 19 21 21
21 21 22 22 13 10 14 19 19 18 16 16 14 17 12 14
18 15 15 16 14 3 0 9 6 0 10 11 11 9 6 2
0 1 10 40 82 99 109 122 123 126 125 122 127 140 140 139
139 140 140 139 139 139 139 139 139 139 138 135 66 19 23 25
27 26 23 24 12 15 22 24 23 10 3 21 23 22 24 23
12 19 23 16 13 18 18 23 19 16 16 20 20 6 0 0
0 0 0 0 0 0 0 0 0 0 0 0 0 0 0 0
0 0 0 0 0 0 0 0 0 3 8 14 18 19 19 20
21 21 21 19 11 13 19 20 20 20 20 20 17 15 20 14
21 20 19 18 20 14 3 5 9 0 6 13 12 11 10 7
7 7 21 82 108 114 123 139 140 138 127 139 139 139 139 140
140 139 139 139 139 138 139 139 139 139 139 118 40 19 22 25
26 26 22 24 13 14 19 24 23 8 3 21 23 22 25 22
10 20 22 12 16 15 18 22 19 16 14 21 19 3 0 0
0 0 0 0 0 0 0 0 0 0 0 0 0 0 0 0
0 0 0 0 0 0 0 0 0 4 9 15 18 19 20 20
21 20 21 14 10 17 20 20 19 21 21 22 21 15 20 15
20 23 21 22 22 18 13 7 13 3 1 11 13 14 14 16
19 19 22 73 128 128 137 140 141 140 139 140 139 139 139 140
140 140 139 139 139 139 139 139 139 139 137 89 24 19 23 25
26 26 23 22 15 15 17 23 23 6 1 22 24 21 24 18
11 21 22 7 18 15 20 20 19 18 12 17 16 1 0 0
0 0 0 0 0 0 0 0 0 0 0 0 0 0 0 0
0 0 0 0 0 0 0 0 0 5 10 15 17 19 20 20
21 21 21 10 12 18 20 21 22 23 23 24 23 19 14 19
16 23 23 23 23 21 15 11 13 11 1 10 16 21 22 25
25 22 22 34 114 142 142 141 141 141 140 141 140 140 140 140
140 140 140 139 140 139 139 139 140 139 121 55 18 21 25 25
26 24 24 21 18 14 15 21 24 5 1 22 24 23 24 14
12 23 23 13 19 16 21 20 20 19 11 13 12 0 0 0
0 0 0 2 3 2 1 1 0 0 0 0 0 0 0 0
0 0 0 0 0 0 0 0 0 5 11 16 18 19 20 20
21 22 18 10 14 19 19 20 23 23 25 24 24 22 10 19
13 23 22 23 24 22 17 15 12 18 9 13 23 23 24 25
25 24 23 23 61 136 142 141 141 141 141 140 140 140 140 140
140 140 140 139 140 139 138 140 139 135 85 25 18 21 24 25
25 23 24 20 23 14 14 21 25 4 1 22 23 23 22 10
15 23 23 18 16 19 22 18 19 18 12 9 7 0 0 0
0 0 1 4 5 5 4 4 3 3 3 3 3 2 1 0
0 0 0 0 0 0 0 0 0 4 11 15 17 19 19 20
20 21 16 11 17 17 19 21 23 22 23 24 24 23 11 15
14 19 22 22 22 20 20 16 14 20 15 12 22 22 25 25
25 23 23 22 38 80 140 142 141 141 140 141 140 140 140 140
140 140 140 140 140 139 139 139 139 109 37 19 23 23 25 25
24 22 24 19 23 18 13 18 23 4 1 21 22 21 18 10
16 24 13 20 16 22 22 19 21 19 12 9 3 0 0 0
0 0 1 3 3 3 3 2 3 3 3 6 9 12 11 10
0 0 0 0 0 0 0 0 0 5 12 15 17 18 19 20
20 20 14 14 17 15 18 21 22 23 24 25 24 24 16 11
18 17 23 19 18 19 21 18 17 16 17 12 22 26 22 25
25 25 24 22 42 70 85 141 142 141 141 141 141 141 141 141
141 141 141 140 140 140 139 139 122 58 20 23 24 24 26 26
23 24 23 19 25 21 13 16 24 5 1 21 21 20 15 11
17 18 6 20 19 24 20 18 21 19 13 8 5 0 0 0
0 0 1 4 3 3 3 3 3 3 4 7 12 16 17 16
0 0 0 0 0 0 0 0 0 5 13 15 17 18 19 20
20 19 13 15 18 14 18 21 22 23 24 24 25 24 20 7
19 16 23 19 17 19 22 19 18 17 18 14 19 24 24 24
25 25 24 22 23 51 26 83 139 141 141 140 141 140 140 140
140 140 141 140 140 140 140 129 69 24 21 25 24 25 26 25
22 25 22 20 26 22 16 16 25 9 1 21 22 18 12 12
19 10 13 19 21 22 18 19 22 20 14 9 8 0 0 0
0 0 1 3 3 3 3 3 3 3 4 8 15 17 18 17
0 0 0 0 0 0 0 0 0 5 13 15 17 18 18 20
20 18 12 16 18 13 18 21 20 22 23 23 24 24 21 9
16 15 20 23 22 18 22 19 21 18 18 16 16 22 24 22
26 25 24 23 23 30 23 23 61 124 142 142 141 141 141 140
141 140 140 140 140 140 130 70 24 20 24 24 23 25 27 19
24 26 22 22 26 24 18 15 22 13 1 22 22 12 10 14
19 4 20 20 23 22 18 20 22 21 16 10 7 1 0 0
0 0 1 3 4 3 3 3 3 3 5 10 16 18 18 18
0 0 0 0 0 0 0 0 0 5 13 15 17 18 20 20
20 16 13 18 18 11 16 21 20 22 24 22 24 22 19 9
14 17 17 23 21 16 21 21 23 20 16 15 16 21 25 25
21 26 24 24 24 25 36 18 22 33 79 132 142 141 141 140
141 140 140 141 140 124 64 25 20 24 25 24 25 26 24 18
25 25 21 24 27 23 19 16 21 18 1 23 23 7 12 18
16 8 23 23 23 21 18 21 22 22 17 10 9 4 0 0
0 0 0 3 3 3 3 3 3 4 6 11 17 18 18 18
0 0 0 0 0 0 0 0 0 5 13 15 16 17 19 19
20 13 12 19 18 12 14 20 19 20 24 21 23 21 19 11
10 21 16 22 22 16 17 22 21 21 17 15 14 21 23 25
22 21 26 24 25 24 46 23 21 22 24 39 85 121 134 140
141 140 137 118 79 40 24 21 22 24 24 24 26 25 20 19
25 23 19 25 27 24 19 18 21 20 1 21 20 4 14 18
8 16 23 22 22 19 18 21 22 22 18 10 9 7 0 0
0 0 1 4 3 3 3 4 4 4 7 13 17 18 18 18
0 0 0 0 0 0 0 0 0 5 13 15 16 17 18 18
19 12 13 19 18 12 13 19 20 18 22 22 22 21 14 12
6 20 16 22 23 16 16 21 20 22 17 15 15 21 23 25
23 19 20 26 25 25 32 38 22 22 23 22 25 30 36 43
50 47 44 28 25 22 20 22 24 22 23 25 25 22 19 21
26 23 19 26 27 25 20 18 21 23 2 22 18 3 14 18
4 21 23 24 21 18 19 21 21 21 18 10 7 7 1 0
0 0 1 4 4 5 6 6 6 5 8 14 17 18 18 18
0 0 0 0 0 0 0 0 0 5 12 13 15 17 18 19
19 12 13 19 18 11 11 17 20 16 22 23 21 22 14 12
6 19 17 18 22 15 13 20 20 22 16 14 13 19 21 23
23 20 17 18 24 25 24 51 24 23 23 22 23 25 27 27
27 27 31 25 22 20 18 22 22 22 25 25 21 24 14 22
24 21 18 26 25 26 20 16 22 23 4 19 16 3 13 14
7 22 22 22 20 17 21 20 21 20 18 10 7 7 3 0
0 0 1 5 6 7 9 9 8 6 8 14 17 17 17 17
0 0 0 0 0 0 0 0 0 4 11 13 14 16 17 18
19 10 13 19 19 12 11 13 19 17 19 23 22 23 17 10
7 14 18 16 21 17 12 15 21 21 17 15 13 18 21 22
24 22 18 16 17 22 24 51 41 23 22 23 22 22 25 25
27 30 25 24 21 20 20 22 23 25 25 21 23 19 14 23
24 21 19 26 25 25 22 16 21 23 8 14 16 3 13 8
13 22 21 22 19 17 20 20 21 20 19 12 7 8 6 0
0 0 2 6 9 11 12 12 8 6 10 15 17 17 17 17
0 0 0 0 0 0 0 0 0 5 11 12 14 15 16 17
17 8 13 18 19 14 11 11 18 18 16 22 20 21 20 10
6 11 21 16 20 19 11 14 21 19 17 15 13 17 21 22
23 24 21 15 17 17 21 31 81 22 24 23 23 23 24 26
28 35 22 22 22 22 23 24 24 23 20 22 23 15 16 24
24 20 21 26 25 24 23 15 20 23 11 12 17 2 14 5
17 21 22 21 18 19 20 19 20 21 20 14 7 7 6 1
0 0 1 6 11 13 14 13 8 6 11 15 16 17 17 16
0 0 0 0 0 0 0 0 0 4 11 11 13 14 15 17
16 9 15 19 19 15 10 11 15 19 13 20 22 20 20 12
6 6 20 17 20 21 12 13 19 20 17 14 13 14 22 20
23 23 23 18 15 17 18 21 70 34 23 24 24 24 24 26
29 39 22 23 22 23 24 24 24 20 22 22 21 13 18 23
22 18 22 27 24 24 22 16 19 25 13 12 19 1 13 7
19 20 20 21 16 19 19 20 20 20 19 16 7 8 12 3
0 0 1 5 8 12 14 12 7 7 12 15 16 16 16 16
