P2
128 120
154
22 13 0 0 0 0 0 0 1 3 46 58 54 64 62 10
0 0 0 0 0 0 0 0 11 71 73 62 31 31 32 33
34 29 3 3 9 11 12 12 22 15 24 17 10 6 17 25
21 23 46 59 4 0 7 18 22 12 9 4 47 67 62 8
15 33 23 34 41 49 54 60 45 49 52 54 52 55 56 56
54 21 19 26 40 40 39 38 37 37 43 48 46 43 40 39
39 39 36 34 31 30 29 28 27 27 26 25 30 36 35 31
32 32 30 25 20 21 21 20 20 19 18 19 18 19 20 23
20 13 0 0 0 0 0 0 0 0 30 67 55 65 63 11
0 0 0 0 0 0 0 0 10 71 73 65 32 37 36 37
34 28 10 0 0 9 19 11 3 1 3 6 4 2 3 10
12 9 45 60 5 14 13 25 58 29 0 8 48 67 63 6
8 13 0 0 5 8 3 50 47 51 54 55 54 58 57 57
57 26 20 28 44 42 41 40 39 37 42 48 47 43 42 42
43 45 39 38 39 38 35 30 29 27 27 26 29 23 20 25
30 32 32 27 21 22 21 20 20 19 19 18 19 19 20 24
2 1 0 0 0 0 0 0 0 0 17 71 61 66 65 11
0 0 0 0 0 0 0 0 8 71 73 67 28 14 30 24
6 2 0 2 5 6 31 18 16 7 13 5 0 2 2 0
7 10 44 63 7 22 28 35 50 44 29 1 42 69 64 7
0 7 5 0 16 22 10 50 47 50 51 51 55 57 57 57
55 29 20 28 47 44 43 42 42 42 43 24 27 37 43 45
46 47 40 19 22 31 35 37 34 35 35 31 29 18 9 7
4 6 11 24 23 22 21 21 20 20 19 19 19 20 20 25
4 1 0 0 0 0 0 0 6 22 43 72 65 67 68 12
0 0 0 0 0 0 0 0 8 71 74 70 31 0 5 3
6 2 2 3 6 9 22 26 20 8 10 7 2 5 0 0
1 4 46 66 9 20 29 45 48 22 40 5 37 69 67 12
0 8 0 0 28 24 16 51 38 20 32 39 51 55 55 53
54 31 21 27 47 44 35 36 42 47 50 8 0 2 18 24
24 30 40 6 0 0 1 8 13 21 29 33 30 18 3 3
5 2 0 20 23 21 22 21 21 20 20 20 20 21 21 26
14 1 1 6 16 26 42 58 68 71 73 72 66 67 69 31
15 10 6 3 1 1 0 1 8 71 75 71 46 18 0 4
4 1 9 5 11 3 7 22 32 19 19 10 12 3 7 4
6 8 49 68 10 3 19 37 44 31 25 1 33 70 70 15
1 12 2 0 21 20 16 52 35 0 6 8 10 13 23 19
47 32 21 25 43 47 46 45 43 50 52 12 0 1 9 13
14 12 39 6 0 0 0 0 0 0 0 2 30 17 1 1
0 2 0 21 23 22 22 21 20 21 20 20 20 21 21 26
52 43 53 51 50 46 49 62 72 72 72 74 65 56 62 65
65 67 50 60 59 56 54 49 49 73 75 72 48 16 1 0
0 1 4 2 3 14 16 24 40 22 25 26 14 2 9 11
5 6 51 67 13 0 0 4 14 6 0 0 31 71 71 17
0 7 1 3 5 0 4 51 34 1 0 0 0 0 0 0
37 33 21 16 2 8 17 28 38 46 50 16 0 0 6 5
9 8 37 11 0 0 0 0 0 0 0 0 29 14 0 0
0 0 0 21 23 22 22 22 21 21 20 19 20 21 20 26
65 56 57 58 58 64 69 70 72 73 74 74 68 55 62 65
57 56 64 68 68 66 61 59 54 34 39 47 46 11 0 0
0 1 2 6 3 27 30 31 31 31 22 38 10 0 1 2
6 2 40 64 15 0 0 0 0 0 0 0 30 72 71 20
0 4 3 9 10 0 1 50 32 6 6 0 3 0 0 2
36 34 20 15 0 0 0 0 0 2 14 17 0 0 1 1
2 5 34 7 0 0 0 0 0 0 0 0 29 10 0 0
0 0 0 21 24 22 22 22 21 21 21 21 21 21 21 26
55 70 69 68 68 68 70 71 68 61 38 27 39 24 13 19
38 37 49 56 59 58 61 60 49 17 22 40 49 15 0 0
0 0 0 0 0 34 37 37 43 28 22 31 8 0 2 8
8 7 42 65 18 0 0 0 0 0 0 0 26 72 72 26
0 13 28 26 25 0 1 50 33 7 9 8 25 3 0 0
35 34 21 15 0 0 0 0 0 0 3 16 0 0 0 0
0 5 36 9 0 0 0 5 6 0 0 0 27 10 0 0
0 0 0 20 26 22 23 22 22 21 21 21 21 22 22 27
54 70 66 65 63 61 54 34 38 43 16 18 39 15 1 5
5 7 20 26 22 2 9 35 38 55 52 52 48 8 0 0
0 1 6 6 1 14 16 26 55 7 10 10 5 2 3 6
9 11 47 66 33 15 13 11 9 7 4 4 25 73 73 34
6 6 4 13 20 8 4 49 33 8 11 1 23 17 0 0
35 35 22 16 0 0 0 0 0 0 2 15 0 0 0 0
0 4 39 12 0 0 0 5 11 7 3 0 25 11 0 0
0 0 0 16 27 23 23 22 21 22 21 21 21 22 22 27
57 48 45 52 53 56 58 57 57 52 39 37 49 14 0 1
0 0 1 10 3 4 19 30 64 65 60 43 24 0 0 7
6 1 8 4 9 7 1 8 42 0 0 5 8 5 10 9
3 8 43 66 69 67 64 63 61 59 57 55 60 68 69 36
8 9 19 13 3 2 1 47 32 6 11 4 10 8 0 0
35 34 21 17 0 0 0 9 4 0 1 13 0 1 0 0
0 1 36 15 0 0 0 7 11 10 9 1 23 14 0 0
0 0 0 14 28 24 23 22 22 21 21 21 22 23 22 26
34 34 38 42 47 52 53 54 56 59 60 47 66 13 0 1
0 0 1 4 0 5 8 25 73 70 64 10 7 0 2 20
5 5 7 4 6 3 6 12 50 4 1 5 1 0 0 0
0 1 39 73 72 69 67 61 62 59 54 46 35 30 36 3
0 2 10 14 8 6 1 46 30 3 7 8 2 5 0 0
35 35 23 18 1 8 7 9 6 0 0 13 0 3 0 0
0 5 36 17 0 0 0 7 11 9 9 1 22 15 0 0
0 0 0 12 29 23 23 23 22 22 22 21 22 22 22 27
5 5 10 4 1 1 1 3 4 22 65 67 67 22 1 2
0 0 0 1 0 2 3 26 76 72 66 12 7 1 1 0
1 9 4 4 7 7 5 3 53 9 4 3 3 0 0 0
0 0 47 76 33 11 17 23 29 38 48 54 62 52 51 42
34 28 23 22 11 4 4 46 32 0 7 12 0 0 0 0
36 35 22 19 5 15 4 8 3 0 0 15 2 0 0 0
0 13 35 21 0 2 1 0 4 9 9 0 18 34 25 16
11 5 3 11 31 24 23 23 23 22 22 22 23 23 24 27
1 0 0 0 0 8 23 11 0 19 66 68 67 28 36 52
21 8 0 0 2 0 1 31 76 71 66 13 13 15 16 20
25 20 13 5 3 0 9 12 54 4 11 4 9 4 0 0
1 0 44 76 30 0 0 0 4 2 3 3 32 61 55 56
61 58 60 63 60 57 54 53 48 21 16 20 18 15 9 7
40 34 23 19 8 7 0 0 4 1 1 24 4 2 4 1
0 7 37 40 27 19 13 6 0 0 4 0 17 37 37 34
34 37 39 40 31 23 24 23 23 22 22 22 22 23 23 27
0 0 0 0 0 14 45 25 2 17 69 69 69 49 46 44
49 11 4 14 39 9 0 31 75 69 64 12 0 0 1 9
10 9 29 28 34 40 43 31 59 24 19 14 13 8 5 0
0 4 50 74 40 9 1 12 11 3 0 2 26 67 61 21
20 29 37 40 40 45 55 54 73 59 37 47 47 54 51 48
49 31 22 19 2 0 0 0 0 0 1 45 49 37 34 31
23 13 38 42 23 26 30 32 32 28 25 22 30 40 37 36
35 38 42 42 33 24 24 24 23 23 22 22 22 23 23 27
0 0 0 0 0 13 38 28 6 16 70 70 70 43 12 30
30 7 24 29 52 29 4 33 73 68 65 13 3 0 0 9
13 12 49 44 41 56 60 54 43 5 10 17 26 26 23 11
9 16 54 73 39 12 2 7 16 34 16 9 27 63 50 27
26 23 28 25 21 15 36 71 74 50 39 48 57 57 57 57
56 31 21 19 1 0 0 0 0 0 1 48 54 41 48 49
53 49 52 37 12 13 12 12 12 12 13 19 25 23 21 28
29 33 35 36 32 23 24 23 23 23 23 22 23 24 23 28
0 0 0 0 0 10 33 28 10 16 72 72 70 17 0 2
10 20 17 22 37 14 1 32 73 69 67 13 2 0 3 9
9 20 49 49 47 62 66 61 49 1 0 0 13 29 34 15
12 36 65 71 40 26 40 11 36 26 14 12 19 24 15 8
12 13 15 18 14 14 32 64 67 45 44 50 54 56 56 59
60 32 22 22 15 7 2 0 0 0 1 48 45 44 51 51
56 51 40 32 14 14 13 12 10 9 8 6 5 4 6 7
11 26 23 18 21 25 25 24 24 23 23 23 23 24 23 26
0 3 0 0 10 3 30 37 29 18 72 72 68 9 9 36
13 8 17 10 3 4 1 35 75 71 68 15 1 1 7 3
3 16 43 41 48 71 77 68 53 2 0 0 3 18 23 14
23 40 70 71 34 42 43 26 25 26 21 13 8 5 8 7
6 13 17 16 10 14 16 24 46 29 21 28 33 31 36 40
54 33 23 25 47 54 49 40 31 23 17 45 36 43 49 50
54 53 44 36 16 16 13 11 8 8 7 7 6 6 7 6
10 26 18 23 23 24 24 24 24 23 23 23 23 24 24 27
0 11 9 5 13 9 24 37 42 20 72 72 67 7 4 11
0 0 0 1 1 1 2 36 76 72 70 15 3 13 9 1
5 15 24 36 50 75 79 73 62 3 0 2 19 23 19 20
25 49 75 72 26 27 18 13 13 11 23 15 11 9 8 10
8 17 18 16 16 12 15 11 16 20 13 15 9 0 1 3
36 37 23 26 49 56 55 53 53 53 55 51 21 29 39 43
48 49 43 40 19 15 12 8 7 6 8 8 8 8 9 9
13 26 6 15 30 27 25 16 19 24 24 24 24 24 24 27
0 1 0 8 12 7 18 24 24 19 72 71 67 7 0 0
1 1 1 1 0 0 0 37 77 73 71 16 0 0 10 0
8 11 0 24 48 75 77 72 61 4 0 6 35 57 55 64
64 62 73 75 52 34 22 11 10 7 13 22 11 11 10 13
10 17 18 17 19 10 15 12 16 12 14 20 13 2 0 3
33 36 23 24 48 58 58 54 55 54 56 49 5 0 1 4
10 16 20 42 19 13 10 0 0 0 3 11 10 5 8 11
14 29 36 33 34 34 33 14 11 25 24 24 24 23 18 25
0 0 0 10 28 7 3 8 4 20 74 71 67 7 0 0
0 1 1 2 1 1 0 39 75 71 70 16 0 2 10 4
12 17 8 26 42 72 74 71 62 4 0 3 17 56 35 62
60 12 42 73 59 19 7 8 10 10 8 17 15 11 9 16
14 18 22 25 25 12 18 14 18 13 19 17 15 15 28 26
35 39 29 28 41 48 48 49 50 52 55 44 2 0 0 0
0 8 18 44 17 12 10 1 0 0 0 0 1 0 0 0
3 30 34 20 22 20 26 30 29 25 24 24 24 11 4 23
0 0 0 11 47 13 0 1 0 20 76 71 70 63 61 56
49 42 36 29 25 19 15 44 74 70 69 17 1 5 6 2
4 9 8 11 32 71 71 69 62 4 0 3 43 52 42 49
40 8 19 63 45 8 6 6 5 12 7 12 18 13 13 19
21 28 36 40 39 21 25 20 17 15 17 14 13 20 32 34
30 37 31 30 33 33 35 38 36 37 47 42 1 0 0 0
4 0 10 45 15 12 6 1 0 3 2 0 0 0 0 0
0 28 35 21 18 24 21 22 24 24 23 23 24 16 8 21
1 0 0 17 43 18 0 0 0 18 60 49 61 72 79 77
73 69 66 65 71 70 70 71 72 69 67 19 0 0 0 0
0 0 1 0 28 68 69 69 62 5 0 0 29 65 62 42
41 13 11 49 21 7 7 7 7 11 11 17 22 24 28 25
37 47 58 67 63 47 43 34 25 19 18 14 15 18 26 33
31 34 28 28 27 26 27 35 34 34 47 42 0 0 0 0
1 0 4 45 5 2 0 0 0 4 6 1 0 0 0 0
0 26 37 17 11 26 23 18 22 23 23 23 23 22 16 23
54 5 0 22 35 21 0 0 0 13 41 53 61 66 80 79
77 75 72 71 74 73 73 73 70 68 65 19 25 28 27 26
25 24 22 14 35 67 68 71 69 50 48 45 23 30 56 64
60 42 18 29 6 6 8 11 13 17 24 33 38 40 53 52
57 73 84 91 93 88 77 64 53 38 26 18 13 11 17 15
19 27 22 25 26 32 34 37 39 42 47 41 1 0 0 0
0 0 5 44 2 0 0 0 0 0 7 9 2 0 0 0
0 25 37 16 6 13 10 16 20 22 22 21 22 21 18 21
65 22 0 23 30 20 0 0 4 32 41 54 62 73 73 70
69 66 66 70 68 70 74 74 74 73 72 54 66 67 68 71
68 58 60 63 67 68 72 74 66 60 68 65 56 25 9 28
40 31 16 12 4 2 6 15 24 42 55 69 76 71 79 88
91 102 112 115 115 113 109 99 90 72 49 29 20 16 17 15
20 24 27 27 13 1 3 7 12 18 23 32 1 0 0 0
0 0 6 43 3 0 0 0 0 2 6 10 7 3 0 0
0 23 37 20 9 13 12 13 20 22 22 22 22 21 18 18
55 55 32 43 44 33 21 15 24 39 42 54 60 66 62 67
70 67 69 53 33 39 52 61 64 65 71 73 59 72 73 78
65 54 59 65 72 67 73 76 74 73 67 41 54 70 34 1
7 13 12 5 4 6 13 32 61 90 105 107 110 111 112 117
124 130 134 135 133 133 128 124 115 99 76 50 35 19 13 13
18 28 33 30 13 0 0 2 0 0 0 18 1 0 0 1
0 0 6 40 0 0 0 0 0 14 14 14 6 3 0 0
0 22 37 23 16 10 4 12 19 22 22 22 21 21 19 17
32 72 63 62 62 71 72 55 11 4 10 15 13 15 17 16
17 17 61 42 2 5 0 16 35 11 53 75 77 72 70 73
62 61 66 71 76 80 80 80 79 76 71 27 46 74 65 20
13 12 8 4 6 17 45 74 104 122 131 137 135 134 133 135
137 140 141 140 140 139 137 132 125 115 95 75 60 38 19 15
12 27 31 28 16 0 0 1 0 0 0 18 1 0 1 12
3 0 5 39 0 0 0 0 0 6 11 11 0 0 0 0
0 19 37 24 15 4 2 5 18 22 22 22 22 22 17 18
10 71 38 17 21 26 31 31 1 0 2 0 0 0 1 0
1 2 57 49 7 21 1 12 31 8 50 74 79 69 65 65
62 65 69 75 80 82 81 81 81 80 76 26 34 74 50 18
16 9 7 10 19 43 77 109 127 137 141 142 142 141 142 141
141 141 141 141 141 140 141 139 138 126 109 92 75 52 34 19
11 18 28 30 15 0 1 8 5 0 0 17 2 0 10 20
10 1 6 38 0 0 0 0 0 0 4 9 0 0 0 0
0 17 38 23 8 1 0 4 18 22 23 23 23 22 15 21
0 55 49 0 1 0 2 22 0 0 0 0 0 1 4 0
4 3 52 57 12 27 4 11 27 39 60 75 77 23 10 24
51 48 55 60 65 67 68 73 73 76 77 32 23 68 46 18
11 6 9 20 48 77 99 120 138 142 142 142 142 142 142 141
141 142 142 141 142 142 140 140 141 138 121 106 90 68 43 24
15 16 21 28 14 0 7 19 14 5 0 16 4 0 14 16
14 3 5 36 0 3 0 0 0 0 4 13 0 0 0 0
0 15 38 19 3 4 0 5 17 23 23 23 23 22 15 23
1 31 66 16 4 1 16 25 0 0 0 1 1 1 6 0
1 6 49 63 2 2 22 36 33 70 70 77 76 18 0 17
43 8 8 9 13 14 15 15 15 17 59 44 20 60 40 12
9 10 17 35 70 90 111 128 141 143 139 142 142 143 143 142
142 142 142 142 142 142 142 141 141 140 134 119 100 80 55 37
18 15 14 24 15 0 11 23 15 10 0 18 39 33 38 34
33 28 26 39 0 0 0 0 0 0 3 14 0 0 0 0
0 11 39 14 0 1 0 12 17 22 24 23 23 22 17 24
32 29 72 39 20 5 15 23 0 0 3 11 7 0 2 0
0 5 48 65 2 0 13 45 36 69 71 77 76 18 0 9
45 9 5 9 6 13 13 5 10 7 52 65 35 53 24 15
8 10 20 49 83 106 123 135 143 143 143 142 143 142 143 143
142 142 142 142 142 141 141 141 141 141 140 126 112 94 74 55
28 18 12 15 18 0 5 8 5 4 0 17 45 43 48 46
46 50 53 43 6 3 6 0 0 0 4 16 0 0 0 0
0 4 37 12 0 0 0 3 16 22 23 23 23 19 20 25
40 43 73 52 18 3 15 22 1 1 9 8 0 0 0 0
0 0 33 70 10 11 9 15 33 61 66 77 76 20 0 8
50 10 2 10 3 14 17 9 17 18 52 68 34 47 23 14
10 14 24 54 94 113 127 135 143 143 143 142 142 143 142 142
142 143 142 143 143 142 142 142 141 141 141 138 118 101 79 69
48 20 10 13 24 17 4 7 3 2 0 15 47 44 47 45
46 53 55 50 32 31 30 25 21 20 19 21 12 10 8 8
6 11 30 17 6 5 7 0 8 23 24 24 23 18 22 25
37 45 67 68 19 0 17 30 13 13 18 21 0 0 0 0
0 0 28 74 11 7 4 7 23 48 66 77 76 20 0 8
53 9 9 11 5 11 16 15 25 26 53 66 29 44 30 14
12 14 32 69 98 120 133 140 143 143 143 143 143 142 143 143
144 142 142 143 143 142 142 142 142 142 141 141 134 106 85 71
53 17 10 12 29 18 3 6 1 1 0 14 40 38 42 41
41 46 45 45 35 36 35 34 31 33 32 30 28 23 21 18
17 20 33 29 18 16 10 6 8 22 24 24 24 17 23 26
20 35 43 71 27 0 18 30 15 22 35 25 0 11 14 3
2 5 27 77 11 0 0 2 9 44 63 78 75 20 0 7
53 8 30 7 10 10 13 7 18 17 40 67 19 43 39 16
11 17 40 76 109 125 137 143 143 143 143 143 143 143 143 143
143 143 142 142 142 142 142 142 142 141 142 141 140 131 106 84
50 20 11 13 24 13 1 3 2 0 0 15 44 38 39 39
38 36 31 31 36 36 37 36 33 34 33 32 31 33 33 29
25 25 32 42 38 37 35 32 25 21 24 24 23 17 23 26
17 25 43 64 52 1 21 32 14 22 33 26 0 4 9 8
9 7 32 79 17 0 0 1 11 47 58 76 74 19 1 3
51 8 28 3 5 4 6 7 13 35 38 69 13 12 15 8
10 20 52 90 117 130 139 143 143 143 143 143 144 143 143 143
143 142 142 142 142 142 142 142 142 142 141 141 141 139 120 93
51 25 16 21 29 20 11 8 6 2 0 15 47 38 38 37
37 37 37 38 39 38 41 43 44 37 33 33 32 39 42 40
35 35 33 27 24 25 26 26 26 23 24 24 23 21 21 27
19 25 39 60 67 10 23 34 15 24 32 28 0 1 7 3
0 7 35 80 25 0 3 4 15 23 54 74 73 17 1 1
52 12 18 3 6 6 8 16 14 36 40 69 19 9 10 4
13 26 62 102 123 133 140 143 143 143 143 144 143 144 143 143
143 142 143 143 143 143 143 142 143 143 142 142 141 141 124 103
58 28 19 21 30 43 49 46 45 47 46 45 51 40 40 40
39 40 42 45 45 39 43 46 51 37 33 28 30 41 42 40
36 36 35 29 20 16 15 14 15 23 24 24 23 18 23 26
41 57 41 47 72 29 23 34 14 22 27 29 2 1 18 2
0 13 27 79 38 12 19 6 17 18 56 72 70 14 0 0
51 22 5 2 1 3 8 6 5 25 29 66 26 12 5 4
16 33 68 108 127 134 140 142 143 143 143 143 143 144 143 143
143 143 143 143 142 143 143 143 143 142 142 142 142 140 132 105
67 37 14 15 28 54 58 58 58 57 58 57 54 43 37 39
37 38 45 48 48 40 42 45 40 38 35 32 25 34 39 36
36 38 36 34 27 22 20 20 22 23 24 23 23 16 25 26
69 73 65 71 72 53 23 38 16 23 25 29 1 0 0 0
0 3 12 76 43 4 7 5 10 3 54 71 69 12 0 0
45 34 1 1 5 24 23 14 3 4 11 56 30 9 4 3
18 42 80 110 128 135 141 144 144 144 144 144 144 143 143 144
143 142 142 143 143 143 143 143 143 142 143 142 142 141 133 107
67 37 14 9 26 54 57 57 58 58 58 58 55 18 22 14
12 15 20 31 49 41 36 17 22 25 23 24 30 27 6 3
5 10 13 19 32 26 25 26 28 30 30 25 24 18 25 27
73 75 73 72 70 62 29 38 8 11 9 7 3 4 6 9
13 18 28 78 51 1 5 2 7 5 57 72 68 8 0 0
41 28 2 2 6 27 27 21 0 5 8 43 25 8 5 5
17 45 81 113 129 137 142 143 144 144 144 144 144 143 144 144
144 143 143 143 143 142 144 143 143 142 143 143 142 141 134 110
71 35 19 11 18 34 35 34 35 35 35 36 41 8 0 0
0 0 0 9 47 40 14 0 1 2 6 11 33 30 3 0
0 0 4 12 26 19 23 25 29 32 35 27 23 19 25 28
74 72 70 68 49 14 20 64 51 56 60 64 67 71 74 77
80 82 83 85 66 26 30 27 25 23 63 73 70 8 0 0
32 34 2 3 3 20 25 17 1 6 8 23 12 6 5 9
27 45 82 115 128 134 141 142 143 143 143 143 143 143 142 143
143 143 143 142 143 142 143 143 143 142 142 142 142 141 136 116
84 50 32 13 13 41 42 41 39 37 36 35 38 13 8 0
0 0 4 14 46 31 1 0 0 0 0 12 35 32 4 0
0 0 2 10 17 0 0 0 0 1 32 28 22 19 26 27
72 69 56 22 1 0 16 80 81 81 81 82 84 84 85 84
85 86 85 85 80 62 73 74 73 74 76 59 60 26 14 12
30 49 12 11 14 13 13 14 15 15 17 17 8 5 5 12
22 48 90 116 128 133 141 143 143 143 144 144 143 143 143 143
143 142 142 142 142 143 143 143 143 143 142 142 142 141 136 124
102 64 43 14 11 42 44 45 44 43 43 42 40 13 6 0
0 0 3 19 45 23 0 0 0 0 0 7 35 31 5 0
0 0 1 8 18 0 5 5 0 0 30 29 21 21 26 27
68 51 24 17 17 16 27 82 83 83 84 85 86 85 86 86
85 85 85 85 76 35 41 42 44 48 68 69 76 70 72 69
61 83 78 71 76 75 67 63 59 64 44 12 8 4 4 13
31 62 102 120 128 134 141 143 144 143 143 143 143 143 143 143
142 142 142 142 142 142 142 142 142 142 141 142 141 140 133 123
111 81 49 19 6 39 44 46 44 44 44 45 43 13 7 1
0 3 5 4 42 16 0 0 0 0 0 7 34 29 5 0
0 0 0 7 19 0 2 2 0 0 28 29 20 22 25 27
60 63 70 70 69 68 65 82 84 83 82 81 79 76 73 67
53 34 29 22 14 2 3 1 3 6 55 75 80 71 77 74
64 84 88 81 84 82 72 75 73 67 36 10 6 4 6 17
44 78 109 118 121 123 133 142 144 143 143 143 143 142 143 142
143 143 143 143 143 143 143 140 134 109 86 73 61 60 58 57
53 45 32 24 9 19 23 25 28 29 32 40 49 14 0 0
0 3 9 2 41 14 0 0 0 0 0 6 35 27 4 0
0 0 0 3 22 0 1 1 0 0 28 30 19 24 26 28
67 65 61 60 61 62 62 65 60 49 62 62 62 61 57 57
30 0 0 0 0 8 16 2 4 8 57 77 82 83 79 74
63 79 90 88 88 81 71 69 64 53 18 9 6 4 11 24
37 48 52 55 55 47 41 38 41 54 70 92 135 143 143 144
143 143 143 143 143 129 74 38 24 20 22 22 21 26 33 38
49 76 107 101 43 29 38 37 38 35 30 24 51 27 8 0
0 5 6 1 41 13 0 0 0 0 0 7 37 28 7 0
0 0 0 3 26 0 1 2 0 0 28 29 20 25 27 28
68 65 60 62 65 53 65 66 63 61 64 63 63 62 59 58
31 0 0 0 1 11 23 4 5 9 56 77 80 78 76 71
61 60 66 64 64 63 57 52 38 17 8 9 9 6 66 107
103 77 57 41 24 13 9 6 8 12 16 19 32 90 142 144
144 144 143 143 110 37 18 16 14 15 12 8 7 6 9 10
18 16 41 131 61 23 41 41 42 42 39 24 52 23 4 0
0 4 9 4 40 13 0 0 0 0 0 2 38 28 9 0
0 0 0 2 30 0 0 0 0 0 27 28 20 25 26 28
56 54 55 55 55 54 55 56 55 56 56 61 64 62 59 60
31 0 0 0 0 1 4 4 6 11 55 78 77 65 62 52
44 40 47 41 46 45 38 34 28 10 7 9 9 12 96 96
37 43 38 14 13 7 5 4 5 8 12 12 11 21 74 140
144 144 143 110 30 13 12 10 13 13 12 8 7 8 10 11
18 26 23 66 24 19 39 44 42 42 40 26 51 13 0 0
0 0 0 1 41 14 0 0 0 0 0 0 36 27 6 0
0 0 0 0 32 0 0 0 0 0 25 28 20 26 27 28
55 55 54 54 53 53 53 52 51 50 49 49 47 60 63 61
32 0 0 0 0 3 6 6 7 13 54 78 76 59 20 7
0 1 15 25 31 27 17 29 18 9 4 10 11 6 63 40
53 28 43 34 24 12 7 7 9 7 9 8 8 9 33 74
138 141 110 37 23 9 5 7 10 9 9 9 9 12 15 24
38 44 42 51 15 11 30 33 37 40 41 27 45 11 0 0
0 0 3 0 38 19 0 0 0 0 0 0 36 28 10 0
0 0 0 0 34 2 0 0 0 0 25 27 20 26 27 28
54 54 54 54 53 52 52 50 50 49 47 14 0 44 65 63
32 0 0 0 2 7 18 27 8 15 53 78 76 56 18 3
0 3 9 21 28 10 18 29 17 8 4 5 12 10 47 36
21 52 89 77 32 19 14 7 11 7 4 2 0 2 40 46
72 47 72 46 32 4 3 4 7 6 7 9 10 13 19 33
83 111 70 47 17 7 13 12 36 41 40 26 39 14 5 3
3 4 14 3 33 32 15 14 16 17 15 16 39 30 31 33
33 32 34 36 41 9 5 3 3 2 25 24 19 25 26 28
42 43 44 44 45 45 46 46 47 48 48 14 0 33 64 61
33 0 0 3 34 23 34 47 12 13 51 80 76 55 24 12
13 17 19 11 29 19 28 27 12 2 0 0 11 18 44 30
25 80 144 131 58 28 21 12 5 2 0 0 0 1 49 41
65 43 71 54 33 4 2 1 0 0 0 5 8 14 13 44
139 149 107 42 19 10 16 13 36 43 40 25 37 39 40 33
33 35 36 35 35 44 52 47 46 48 49 48 49 32 31 37
39 41 45 49 47 31 28 27 27 26 27 23 19 24 26 27
1 2 2 3 4 5 6 9 14 47 48 15 0 22 61 55
42 21 21 31 57 51 62 65 30 18 50 77 75 53 30 21
23 22 15 14 31 23 25 24 14 1 4 3 2 14 47 27
44 116 152 145 63 19 12 7 1 0 0 0 0 0 48 36
58 77 61 46 27 1 0 0 0 0 0 1 3 7 15 38
132 148 95 42 29 11 16 18 34 44 38 26 35 43 41 37
38 38 33 27 29 36 53 50 48 46 49 50 49 38 25 33
37 40 46 48 47 28 25 23 23 23 24 23 22 21 25 25
0 0 0 0 0 0 0 0 3 47 49 16 0 19 61 50
49 51 55 45 56 63 69 69 64 63 66 73 72 52 29 21
26 20 4 12 25 21 20 26 22 0 6 5 0 7 48 20
32 87 141 116 28 13 7 3 0 0 0 0 0 2 46 50
134 144 118 42 32 0 0 0 0 0 0 0 1 6 12 32
56 65 40 44 29 24 29 22 32 41 39 29 35 42 36 33
37 38 36 28 26 30 30 33 33 31 30 30 31 31 22 24
28 30 27 22 23 26 27 26 26 25 24 25 23 22 22 23
0 0 0 0 0 0 0 0 3 47 49 18 1 18 60 54
55 56 61 54 62 68 73 72 70 70 67 72 71 51 28 17
23 15 6 12 19 19 18 7 9 0 15 7 19 76 53 16
27 41 59 38 21 10 7 3 0 0 0 0 0 6 47 72
131 143 137 58 41 2 0 0 0 0 0 0 1 2 7 26
32 31 28 44 49 64 69 19 31 36 39 31 32 33 27 30
28 33 36 29 27 31 21 23 23 24 24 23 24 27 28 30
31 30 29 25 23 26 27 27 26 26 25 25 24 24 26 27
0 0 0 0 0 0 0 0 2 46 49 19 1 17 58 57
53 49 62 59 61 69 76 76 74 72 68 72 71 50 21 1
5 8 8 18 16 16 14 0 5 2 9 8 52 126 73 15
21 30 36 22 18 8 6 4 1 0 0 0 0 15 43 92
134 142 139 92 42 6 0 0 0 0 0 0 0 2 7 21
28 26 25 42 58 60 73 18 33 29 22 33 34 32 7 9
11 13 15 13 18 31 26 29 27 34 35 32 31 34 35 37
41 40 36 27 25 25 26 26 26 25 25 24 24 23 25 27
0 0 0 0 0 0 0 0 1 46 50 20 1 15 55 59
56 46 48 45 53 68 76 77 75 74 70 74 71 50 17 0
1 1 10 22 14 18 11 1 3 6 4 9 33 113 81 19
17 23 25 14 9 4 3 1 1 0 0 0 0 30 43 110
135 142 140 122 46 25 0 0 0 0 0 0 0 1 6 16
27 24 23 41 46 56 73 17 29 38 20 35 43 34 2 0
0 0 1 5 15 31 35 44 34 45 53 33 21 21 22 25
29 39 39 28 27 26 27 26 26 26 25 25 24 24 25 27
0 0 0 0 0 0 0 0 1 46 50 21 3 7 48 48
32 35 44 47 42 38 42 48 65 75 71 76 71 50 18 6
4 4 16 25 14 23 11 8 10 10 4 8 27 68 62 29
12 17 17 9 5 1 0 0 0 0 0 0 3 45 73 123
135 145 142 130 71 39 3 0 0 0 0 0 0 1 7 11
21 24 23 40 43 74 73 14 27 34 26 29 45 38 0 0
0 0 0 0 19 30 33 42 25 34 44 21 0 0 0 0
0 29 41 28 28 27 27 27 26 25 24 24 24 24 24 25
0 0 0 0 0 0 0 0 1 46 50 32 33 4 37 39
6 13 26 30 25 20 10 16 28 68 73 76 73 60 32 14
18 6 25 29 15 9 9 16 15 7 4 11 18 62 61 38
11 13 14 8 7 1 0 0 0 0 0 0 26 43 111 121
136 144 142 137 122 44 28 0 0 0 0 0 0 0 11 13
20 25 27 53 88 102 64 14 28 33 31 26 41 45 3 0
0 0 0 0 18 29 31 40 7 1 14 22 0 0 0 0
0 25 41 29 27 28 27 26 26 25 25 24 25 24 25 27
0 0 0 0 0 0 0 0 0 46 50 37 23 1 32 39
0 0 0 4 8 4 12 21 40 72 73 73 70 65 44 13
12 11 30 27 17 15 10 16 8 6 6 18 17 60 85 33
12 12 14 12 12 2 0 0 0 0 0 6 46 82 136 128
136 143 142 133 136 95 40 13 0 0 0 0 0 1 13 11
16 23 35 80 120 121 43 17 27 29 32 30 31 19 1 0
0 0 0 0 21 27 32 41 7 0 14 24 0 0 0 0
0 19 39 28 27 27 26 26 26 25 25 23 24 24 25 26
0 0 0 0 0 0 0 0 0 45 51 27 0 0 27 41
0 0 0 5 13 1 0 1 12 69 72 73 69 72 46 1
6 14 30 27 18 15 10 6 5 3 9 23 16 65 104 56
20 12 13 12 11 1 0 0 0 0 1 35 53 133 133 126
127 141 134 130 133 138 68 39 9 0 0 0 0 3 11 12
17 25 68 93 122 132 23 12 23 27 30 30 24 10 0 0
0 0 0 0 23 25 32 40 7 0 13 26 0 0 0 0
0 16 39 28 28 27 27 26 26 25 24 24 23 24 25 25
0 0 0 0 0 0 0 0 0 45 51 25 1 0 21 45
1 0 0 0 12 0 0 0 3 66 66 65 64 68 56 31
34 32 29 32 20 16 11 2 1 1 12 12 14 60 117 75
60 25 13 11 9 2 0 0 0 4 24 48 123 130 138 130
135 142 138 139 134 135 136 67 33 18 7 7 4 8 13 15
27 72 106 93 125 126 7 10 14 22 28 29 25 12 0 0
0 0 1 0 23 24 33 42 6 0 12 27 0 0 0 0
0 14 39 28 27 26 27 26 26 26 25 24 24 24 24 25
0 0 0 0 0 0 0 0 0 43 51 27 4 9 25 52
4 0 0 8 18 1 0 0 3 64 60 50 52 65 66 66
61 41 30 28 20 14 6 1 0 0 10 14 6 41 125 96
90 79 41 30 20 12 9 13 19 34 74 125 128 131 132 138
143 144 143 143 139 138 136 138 115 80 62 49 43 42 51 69
109 124 108 99 122 109 3 6 10 24 27 29 23 14 0 0
0 0 2 0 19 26 33 41 6 2 11 27 1 0 0 0
0 12 40 27 27 27 27 26 26 26 25 24 24 23 24 25
0 0 0 0 0 0 0 0 0 44 51 48 50 54 58 56
10 0 1 3 14 0 8 8 3 62 30 1 9 47 67 66
58 39 30 25 21 10 2 1 2 0 10 16 4 23 127 107
85 110 120 94 65 64 73 88 114 132 130 121 122 130 126 132
139 144 143 139 132 136 135 126 133 142 143 142 142 143 141 137
127 119 105 102 117 90 3 2 6 25 26 30 24 15 3 4
0 2 7 0 17 27 34 41 16 4 10 27 4 2 1 1
0 11 38 27 27 27 25 26 25 25 24 24 24 23 24 25
0 0 0 0 0 0 0 0 0 43 52 53 58 59 61 59
13 0 0 0 1 0 14 24 6 61 25 0 0 39 67 68
54 43 31 23 18 4 5 3 2 0 7 13 2 10 114 112
91 109 122 128 135 144 145 145 144 127 112 115 123 126 115 102
117 135 136 111 107 135 135 128 122 140 143 143 143 143 142 140
131 121 104 110 128 74 7 0 4 22 28 30 26 15 13 6
0 3 15 9 15 30 35 40 17 14 8 26 1 8 8 1
0 9 37 26 27 27 27 26 25 25 25 24 23 23 24 24
0 0 0 0 0 0 0 0 0 40 51 52 58 59 62 61
21 4 1 0 0 0 4 13 25 63 40 20 20 32 38 41
40 36 25 19 16 5 10 10 5 2 10 6 3 3 95 124
100 104 119 126 137 145 145 145 143 119 102 117 128 116 81 81
113 115 118 99 56 115 135 138 120 137 144 143 143 143 143 141
131 120 109 135 126 61 3 1 4 18 29 29 27 23 23 14
10 12 21 21 20 38 35 40 12 25 8 25 1 7 6 2
1 9 33 25 27 26 26 26 25 25 24 24 23 23 23 21
0 0 0 0 0 0 0 0 0 39 51 45 45 55 51 50
39 34 36 21 24 25 29 36 43 60 47 41 50 43 41 38
33 27 21 21 13 8 19 15 9 3 7 2 0 0 68 121
124 104 119 128 139 144 144 145 143 117 100 133 135 126 113 129
126 107 119 142 129 117 140 142 133 142 143 143 142 142 142 140
132 118 109 137 126 47 3 1 4 17 32 31 28 37 44 44
45 44 45 45 47 47 36 38 3 25 12 30 22 23 23 22
21 20 22 23 26 26 25 25 25 25 25 23 24 23 22 21
0 0 0 0 0 0 0 0 0 37 51 45 34 31 23 23
25 26 38 59 72 73 73 74 75 76 75 74 74 73 70 54
36 29 18 16 8 5 13 11 7 3 8 0 2 0 34 122
121 100 117 123 132 142 145 144 141 113 121 137 134 135 135 140
139 131 138 142 139 134 142 143 142 142 142 143 143 141 142 141
133 119 105 107 129 27 8 2 3 18 28 24 27 36 45 46
48 48 48 48 49 52 41 38 1 7 10 29 20 22 22 21
20 20 21 24 25 25 25 25 24 23 24 23 23 22 22 20
0 0 0 0 0 0 0 0 0 37 51 42 28 19 11 11
16 24 26 27 45 69 79 79 79 80 80 78 77 74 68 48
36 29 17 12 3 0 10 14 8 9 2 1 2 0 7 104
90 97 113 120 125 136 143 143 138 116 133 133 135 141 140 142
143 142 143 143 142 142 142 142 142 142 142 142 142 142 141 138
132 121 114 128 98 12 17 12 3 18 24 21 25 29 35 33
36 36 35 34 31 29 34 36 1 3 6 31 23 27 27 26
26 25 24 24 25 25 25 24 24 24 23 23 22 22 22 20
0 0 0 0 0 0 0 0 0 35 50 37 12 17 23 24
22 23 29 32 33 38 61 71 63 57 54 50 54 53 50 42
34 30 16 7 5 1 9 9 7 8 0 2 2 0 0 51
122 99 109 115 120 128 133 136 120 127 131 127 134 142 143 143
143 143 143 142 142 142 142 141 142 141 142 142 142 142 141 138
133 122 119 120 27 10 14 7 6 19 25 21 22 18 17 17
15 11 11 11 10 8 24 35 1 1 4 31 23 27 27 27
27 26 26 25 25 25 25 24 24 23 23 22 21 22 21 20
0 0 0 0 0 0 0 0 0 33 50 34 2 6 12 27
23 16 20 27 33 37 50 56 55 54 53 53 53 46 43 37
32 24 21 10 2 1 6 7 2 11 1 4 0 1 1 4
79 97 110 116 119 129 133 132 113 127 125 124 124 127 135 141
142 143 143 143 142 142 142 141 141 142 141 142 142 142 142 139
130 121 90 31 3 6 7 5 17 22 22 27 22 18 18 16
16 14 13 12 12 9 25 36 3 1 3 30 23 27 27 26
26 25 25 24 24 24 24 24 23 23 22 22 22 21 20 19
0 0 0 0 0 0 0 0 0 32 50 35 0 0 0 12
18 19 21 22 29 35 32 34 36 37 35 35 36 34 34 36
27 22 19 11 2 1 9 9 1 15 2 5 2 3 3 0
6 63 109 116 120 133 142 124 112 118 108 93 90 91 99 110
116 122 123 122 121 128 132 135 140 140 140 140 142 142 142 138
130 124 56 3 7 0 0 9 24 21 21 18 20 23 21 20
20 20 15 14 14 11 30 38 19 31 35 35 22 26 26 26
25 25 25 24 24 24 24 23 23 23 23 22 22 21 19 18
0 0 0 0 0 0 0 0 0 31 50 37 1 0 3 9
18 19 22 24 32 49 41 37 35 34 41 36 31 31 31 30
19 24 16 5 2 6 7 5 0 4 2 4 1 1 0 0
8 50 109 114 119 134 144 124 108 95 54 74 107 118 131 119
124 119 124 137 127 123 102 94 110 120 125 142 143 143 142 140
135 123 40 7 14 2 0 8 23 28 23 23 19 19 24 24
22 25 20 18 17 12 31 38 31 44 46 36 22 27 27 26
25 25 25 25 23 23 24 23 23 23 22 22 21 20 18 17
0 0 0 0 0 0 0 0 0 29 49 38 2 0 7 8
17 19 21 24 32 50 33 28 25 22 38 29 26 28 25 29
21 25 9 3 2 5 8 2 0 1 4 4 2 2 0 2
2 37 107 115 120 138 145 139 119 116 86 91 124 138 145 143
145 144 144 144 143 144 134 97 67 104 136 142 143 142 142 140
131 114 25 10 15 3 5 8 15 24 25 24 21 20 19 25
23 24 21 19 18 13 21 24 19 22 25 24 25 26 26 26
25 25 25 24 24 23 23 23 22 22 22 21 21 19 18 15
0 0 0 0 0 0 0 0 0 28 49 39 2 3 8 7
15 18 21 23 31 50 30 27 25 22 37 30 26 30 29 25
30 25 9 4 5 3 6 1 0 8 5 6 4 0 0 2
0 16 99 116 120 135 145 144 133 128 117 101 94 116 135 130
145 141 142 143 134 133 112 101 126 142 141 142 142 142 141 140
135 107 14 8 11 5 10 7 4 13 22 17 22 18 19 23
26 23 19 18 18 16 22 25 23 20 23 24 24 25 26 25
25 24 24 23 22 23 23 22 22 22 21 21 20 19 17 15
0 0 0 0 0 0 0 0 0 26 49 40 2 5 5 7
15 18 20 23 30 49 32 27 24 20 38 31 32 30 25 23
24 20 13 7 8 1 9 0 2 11 2 7 3 3 2 3
2 4 82 115 120 131 145 144 142 133 130 118 118 123 116 118
122 122 125 131 129 133 135 133 140 142 142 142 142 142 141 139
131 86 11 6 5 8 8 2 3 5 15 14 17 16 18 20
26 23 19 19 17 17 22 25 25 22 24 24 24 25 25 24
24 24 23 23 23 23 22 22 22 21 21 20 21 19 16 18
1 1 1 2 3 3 4 4 5 32 49 41 3 5 4 6
15 17 20 22 29 50 33 27 23 21 35 30 31 30 23 25
23 18 10 12 8 0 4 0 2 1 5 8 3 5 1 3
0 3 53 111 118 126 144 145 144 138 133 131 124 124 139 142
142 141 142 143 143 142 140 139 143 143 142 143 143 142 142 139
125 58 9 2 1 7 3 8 1 0 6 13 16 18 17 20
21 22 20 19 18 18 22 26 25 23 24 24 24 25 25 25
25 25 24 23 23 23 22 22 21 21 21 20 19 18 16 20
48 48 48 48 48 48 48 48 47 49 47 41 3 5 2 6
15 17 20 23 30 50 33 27 21 20 28 28 33 27 19 29
26 15 7 10 1 1 2 10 3 0 3 7 6 3 0 0
0 5 23 100 115 121 138 145 143 141 135 132 135 132 139 144
144 144 143 142 143 142 142 142 140 142 142 142 142 141 140 133
108 26 6 1 0 5 7 14 0 0 1 7 11 15 20 19
23 21 20 20 19 19 23 25 25 24 24 23 24 25 24 24
24 23 23 23 22 22 21 21 21 20 20 19 18 16 16 20
52 51 51 50 49 49 48 48 47 46 47 41 4 4 2 5
14 17 20 22 29 48 31 25 23 24 28 28 26 21 26 32
29 7 8 4 2 3 3 7 0 4 4 11 9 3 0 5
1 3 5 68 113 118 127 143 144 142 137 132 134 140 144 141
138 137 139 142 143 142 142 141 142 142 142 142 142 141 138 126
76 18 7 1 2 10 10 10 0 1 2 3 9 14 21 24
24 23 20 20 20 20 23 25 25 25 23 23 23 24 24 23
22 22 23 22 21 20 21 20 20 19 18 10 11 13 19 20
52 52 52 51 51 51 50 49 48 44 48 42 3 2 0 2
12 15 18 21 27 47 39 34 32 29 28 26 21 20 28 31
29 9 4 9 4 8 3 4 7 8 6 7 8 5 0 5
0 3 2 22 98 115 122 135 145 143 138 135 134 136 144 144
143 142 143 143 143 142 142 142 143 142 143 141 142 137 129 107
35 18 6 5 4 17 31 9 1 2 6 8 8 11 17 27
27 25 22 20 20 20 23 25 25 25 24 23 23 23 23 23
23 22 22 21 21 20 21 19 17 18 19 14 8 11 15 17
52 52 51 51 50 49 49 49 48 48 47 41 4 3 1 3
10 12 14 17 22 41 41 40 38 31 27 25 22 31 26 27
27 14 8 12 5 10 3 5 13 8 10 13 10 6 5 4
1 1 3 6 47 107 119 128 141 143 139 141 141 141 144 143
144 143 144 143 143 143 143 142 143 142 142 142 141 131 116 57
20 14 7 9 3 15 16 6 3 3 10 12 11 13 17 25
22 21 22 22 22 23 25 25 24 24 25 23 23 23 23 23
23 22 22 21 21 21 20 18 16 17 22 21 17 19 23 27
42 41 41 40 40 39 39 38 38 37 38 30 1 3 1 5
14 17 19 20 29 44 39 39 36 26 29 17 28 23 20 23
22 17 8 24 10 12 4 7 7 6 8 9 8 7 9 5
1 0 1 0 5 63 110 121 133 142 140 144 144 144 144 144
144 143 143 143 143 143 142 143 143 142 143 140 133 120 82 21
20 11 8 13 2 8 11 6 2 5 17 23 23 19 23 21
22 21 24 26 26 26 26 25 24 25 25 24 23 23 23 23
23 22 22 21 20 20 20 17 16 16 24 24 22 16 12 4
47 47 47 46 47 46 46 41 43 43 46 38 2 3 1 5
14 15 19 21 33 47 32 28 28 24 31 15 17 22 26 18
14 11 22 22 12 9 3 9 5 9 9 10 5 6 7 3
1 2 0 0 2 20 82 109 120 135 137 141 144 144 144 144
144 144 143 144 143 143 142 142 142 141 142 133 119 99 53 18
20 11 15 13 2 9 18 4 1 7 21 31 41 26 23 20
23 29 28 29 28 27 27 25 24 23 24 23 23 23 22 22
21 21 20 20 21 20 18 16 16 16 17 23 32 23 10 4
51 49 49 48 48 47 46 40 37 38 41 33 2 2 1 5
13 15 19 21 33 45 27 25 27 28 33 15 14 28 22 16
9 25 21 11 17 4 1 5 10 6 8 8 5 2 6 5
2 3 0 1 5 14 73 89 107 119 131 134 143 143 144 144
144 143 143 144 143 143 143 142 143 142 133 116 99 104 46 16
12 14 17 11 2 11 21 2 1 12 30 34 33 23 22 26
25 33 27 26 26 27 27 24 24 24 24 24 24 23 22 21
21 21 20 20 19 19 18 15 16 15 16 11 22 18 13 6
24 23 22 19 13 10 11 5 6 2 3 2 0 2 1 4
13 15 18 21 32 45 26 23 24 25 28 19 19 27 24 20
21 22 15 11 16 6 1 4 5 5 6 3 1 0 6 10
3 3 4 4 8 15 66 101 80 99 116 128 135 144 144 144
144 144 143 143 144 143 143 142 139 129 107 90 108 108 37 19
11 17 18 8 0 6 5 2 3 18 27 27 22 21 23 26
23 31 31 25 26 27 26 25 24 23 23 23 23 23 22 22
21 21 20 20 20 19 19 17 15 16 16 13 13 12 14 9
10 10 11 16 5 2 8 0 0 0 0 0 0 4 3 8
13 14 17 20 31 46 27 23 26 24 27 18 22 33 31 29
30 9 10 19 16 4 0 0 1 3 6 0 0 1 10 18
3 6 2 9 6 12 56 107 96 78 91 112 121 137 144 144
143 143 144 143 143 142 138 132 120 93 84 102 118 106 29 18
15 16 15 5 0 1 0 2 5 18 27 21 20 20 21 21
24 26 27 21 21 21 23 21 22 24 23 24 22 22 22 21
20 19 19 19 18 18 17 17 15 15 12 13 12 12 15 9
7 7 5 8 5 5 12 0 1 0 0 1 5 9 8 11
12 15 17 20 31 46 28 26 26 23 30 19 25 30 36 37
19 6 19 28 18 6 0 1 1 4 6 0 2 5 9 17
6 6 2 7 11 8 38 100 111 96 82 81 101 114 135 144
144 144 143 144 143 138 125 109 82 86 102 116 124 103 17 16
14 12 11 2 2 5 3 2 13 15 15 20 22 15 19 19
20 20 20 19 18 17 18 17 20 23 22 23 22 21 21 20
20 18 19 19 18 18 17 17 16 15 12 13 11 12 15 8
33 31 26 14 4 6 13 0 0 0 1 4 6 9 7 10
11 13 16 18 28 45 26 24 29 25 30 23 27 30 34 30
15 14 23 33 25 4 0 0 3 5 8 1 4 7 6 14
7 4 5 8 15 9 24 90 118 112 99 87 80 84 104 125
137 142 142 139 127 109 92 81 92 102 115 127 126 83 16 12
10 11 4 1 5 11 5 5 23 33 11 27 26 11 7 9
13 19 21 19 17 16 17 17 19 22 23 22 22 21 20 20
19 18 18 17 16 16 16 16 15 10 14 12 11 11 12 6
43 39 32 14 3 6 16 0 0 0 3 2 4 6 3 8
10 12 16 19 29 45 29 25 25 25 24 23 20 25 28 20
19 26 21 41 33 7 0 1 5 10 12 6 5 4 6 10
9 2 5 10 30 10 23 75 117 118 111 102 93 84 75 77
88 102 105 93 80 77 83 96 105 117 128 133 129 59 15 10
8 9 1 3 9 15 5 9 29 21 22 39 22 2 0 5
3 12 20 21 19 18 17 16 20 22 23 22 21 21 20 19
18 17 18 17 17 17 18 16 13 11 14 17 37 9 2 2
36 31 24 11 5 10 13 2 0 0 4 3 7 9 4 7
7 10 13 15 24 43 41 37 34 29 25 23 16 12 17 19
19 29 31 34 42 11 1 5 4 9 18 8 8 2 1 4
13 10 1 6 13 10 20 55 114 121 119 115 109 101 89 77
65 56 55 58 69 84 101 112 120 131 136 136 115 34 15 7
7 7 4 7 12 19 8 15 19 11 26 26 11 4 0 3
1 8 19 21 22 19 19 19 20 23 23 22 22 23 23 21
18 14 10 9 9 37 47 43 41 34 34 35 44 42 41 29
21 22 23 25 29 32 34 36 20 0 1 2 6 8 4 11
12 12 14 15 20 39 39 36 33 26 23 18 9 8 11 18
17 23 30 25 32 20 12 14 4 10 22 17 6 0 3 2
8 13 9 6 5 10 19 43 109 124 121 120 118 114 109 98
87 77 72 75 89 107 121 128 136 138 140 132 78 25 15 11
12 4 10 13 19 27 22 14 8 6 15 13 10 9 0 3
2 9 19 19 19 17 20 22 23 35 39 40 41 41 42 40
38 34 16 1 2 15 24 22 24 26 26 25 21 13 19 22
46 43 39 37 33 29 26 32 29 0 0 0 4 9 5 11
12 15 17 19 23 41 42 33 32 26 24 17 11 10 8 4
3 11 31 18 22 24 13 16 12 10 22 17 5 0 2 8
14 12 4 12 12 9 13 37 94 124 122 123 123 124 122 117
111 108 109 112 121 130 136 139 140 142 141 116 61 27 19 11
13 6 13 20 20 29 29 9 11 13 10 6 11 16 9 9
11 8 16 19 20 21 20 20 22 26 41 41 41 40 39 38
36 35 31 2 0 0 0 0 0 0 0 0 2 1 0 1
9 6 5 4 3 1 1 16 30 0 0 0 2 9 4 13
13 15 18 21 25 45 37 27 24 24 29 25 11 13 9 1
9 11 25 20 21 26 14 12 19 11 20 13 11 1 5 9
22 18 3 4 9 7 10 25 72 122 124 127 124 126 129 132
132 135 137 140 143 143 144 141 141 143 135 96 54 28 20 19
14 9 16 30 31 24 23 13 16 19 8 5 9 22 23 29
19 9 13 23 24 21 23 24 23 23 24 35 35 33 31 31
29 26 25 4 0 0 0 0 0 0 0 0 0 0 0 0
1 2 2 4 4 5 7 12 25 0 0 0 2 8 5 12
13 15 18 20 25 45 36 26 24 27 35 25 13 9 12 2
5 7 18 23 21 25 11 14 27 18 18 13 12 10 13 22
25 15 6 3 5 9 15 19 52 104 123 123 123 122 126 131
139 143 145 145 145 143 139 138 142 141 121 81 48 26 23 23
16 14 23 35 36 24 17 19 18 6 7 3 5 16 23 15
11 5 18 23 25 24 25 25 24 25 22 23 28 26 26 25
23 22 21 6 6 2 0 4 5 3 3 2 1 1 0 0
3 2 2 2 2 2 1 3 22 0 0 0 2 5 6 11
12 14 17 20 24 44 37 26 26 27 35 25 16 11 5 0
7 20 10 26 18 19 11 14 26 22 15 12 11 11 21 21
22 20 12 7 6 12 19 18 49 88 108 122 121 121 122 123
131 138 142 139 135 138 137 136 138 137 100 59 48 27 22 24
19 18 28 29 26 23 23 14 10 1 1 2 0 8 9 10
8 8 23 24 25 25 27 27 25 26 22 18 24 26 25 23
22 21 20 3 8 4 1 8 9 10 8 9 9 7 7 5
0 0 0 0 0 0 0 6 30 0 0 0 2 2 6 9
12 14 16 19 23 42 38 26 24 27 31 26 17 12 3 4
19 25 18 36 17 15 10 20 20 21 15 11 7 13 8 10
25 19 15 14 13 25 21 21 42 88 101 113 121 119 118 122
128 130 131 134 137 137 134 135 138 125 81 68 44 30 24 27
22 17 30 26 17 23 34 8 6 1 7 6 3 9 12 9
7 5 23 24 24 27 27 28 26 27 23 20 18 25 25 24
23 21 18 1 9 2 3 9 10 12 11 13 12 11 9 7
0 0 0 0 0 0 0 1 9 1 0 0 1 0 6 9
10 13 16 19 23 41 36 24 22 24 20 24 13 6 8 19
10 27 25 22 16 8 8 24 23 21 19 10 2 10 10 10
36 24 24 17 22 29 22 21 34 86 109 106 118 118 117 120
125 130 132 131 134 135 132 136 137 108 74 63 36 30 30 24
25 16 22 22 12 25 36 5 2 3 20 22 10 13 13 8
6 6 21 23 27 27 27 28 25 27 25 20 19 19 25 24
23 21 13 0 7 1 7 10 11 12 12 11 7 5 4 4
0 0 0 0 0 0 0 0 0 0 0 0 5 10 11 12
13 12 15 18 22 38 34 24 21 17 16 14 15 4 7 18
11 23 22 15 14 4 11 31 23 24 19 7 10 8 11 12
25 21 31 24 28 29 25 29 28 80 102 109 112 118 116 120
125 129 135 136 136 137 139 140 127 85 65 53 38 33 26 25
25 25 22 19 17 15 24 1 2 14 29 30 19 16 14 10
4 8 20 21 25 27 27 27 26 25 27 21 21 16 21 23
22 19 9 0 1 0 3 8 9 7 5 3 2 2 2 1
0 0 0 2 2 3 5 7 11 10 11 15 25 28 32 33
34 27 12 15 21 35 38 31 19 14 14 11 8 0 2 11
6 22 19 12 4 4 21 30 21 28 11 6 8 8 12 11
12 21 28 23 36 27 23 27 24 58 100 112 109 116 117 122
125 128 132 137 141 143 139 135 100 70 62 51 35 33 23 27
26 30 24 21 16 10 14 0 11 21 22 24 23 17 13 8
3 7 21 22 25 26 27 27 27 23 24 22 19 19 16 23
22 19 6 0 0 0 1 4 4 1 0 0 0 1 1 0
29 33 35 37 42 40 44 44 49 50 49 43 44 44 44 46
47 48 37 12 13 21 25 23 13 11 13 10 3 0 6 9
11 18 13 6 0 7 20 21 25 28 9 6 13 5 15 11
17 21 24 12 33 30 21 18 22 36 94 111 110 111 112 115
126 134 139 141 140 138 134 118 87 71 68 40 31 24 22 33
24 28 23 13 11 7 5 4 16 18 15 17 9 20 15 10
3 8 22 21 23 26 26 28 26 22 18 24 16 22 16 18
22 18 4 0 0 0 0 0 0 0 0 0 0 0 0 0
50 52 50 50 52 49 48 49 49 49 49 48 45 48 49 48
49 50 49 26 2 10 20 14 11 11 12 12 11 7 9 9
10 11 10 3 2 5 13 15 24 21 2 8 16 8 22 15
22 18 19 12 21 28 22 17 22 29 76 111 113 113 116 115
118 126 132 136 135 135 130 109 92 73 61 37 32 30 20 26
35 25 19 7 4 9 12 8 7 22 8 8 6 19 17 12
1 9 22 21 23 24 26 28 26 23 13 22 18 21 19 14
19 17 2 0 0 0 0 0 0 0 0 0 0 0 0 0
45 45 47 48 51 53 47 51 56 56 54 56 43 48 53 54
53 54 51 50 31 30 19 12 8 12 14 13 15 17 14 12
10 5 2 3 5 8 10 11 22 11 1 11 16 9 23 18
31 28 18 16 14 20 17 20 21 20 53 95 109 114 115 115
117 122 128 128 133 133 124 108 89 72 53 37 35 30 23 13
35 28 18 5 3 19 15 6 4 17 6 2 6 18 17 12
0 11 23 19 22 22 24 26 27 24 12 20 17 18 22 16
15 16 0 0 0 0 0 0 0 0 0 0 0 0 0 0
52 50 55 52 62 56 62 55 48 58 57 57 60 49 59 63
62 56 50 41 28 18 12 14 12 15 16 15 19 18 17 14
17 12 8 9 6 5 6 13 15 4 3 8 12 6 11 28
45 37 19 11 10 14 17 16 25 21 37 80 100 112 114 115
120 122 127 130 133 129 117 103 86 66 55 39 34 34 27 15
23 35 22 6 9 29 27 6 0 6 4 0 9 19 18 13
0 14 25 18 22 20 24 25 26 23 12 17 20 17 25 20
13 11 0 0 0 0 0 0 0 0 0 0 0 0 0 0
63 57 61 57 59 56 58 56 53 55 54 54 53 51 49 39
27 20 20 22 22 14 13 19 17 16 19 16 21 16 18 13
17 13 10 12 12 14 11 7 7 0 2 6 2 3 6 31
36 37 12 10 8 13 15 12 12 17 26 60 89 110 117 117
123 122 127 132 134 131 115 96 86 67 57 42 32 34 30 19
21 30 35 13 12 40 40 9 0 0 0 0 10 19 18 15
2 14 24 17 21 18 22 26 27 24 10 15 19 16 24 21
15 11 1 0 0 0 0 0 0 0 0 0 0 0 0 0
49 47 46 44 42 41 40 38 35 33 31 28 27 25 19 17
20 21 22 23 16 13 14 20 17 17 20 17 20 14 19 13
21 15 13 14 17 16 8 1 8 1 1 4 1 0 3 19
19 28 15 8 10 11 21 13 17 21 28 53 101 112 116 119
120 124 127 131 132 125 114 98 86 61 40 27 27 31 23 17
19 27 36 15 9 32 23 3 0 0 1 3 12 19 21 19
7 16 25 16 21 18 21 26 26 21 9 16 18 16 24 22
19 11 5 0 0 0 0 0 0 0 0 0 0 0 0 0
18 15 11 10 8 6 5 3 2 0 0 0 1 13 17 18
21 22 23 22 14 13 15 20 14 16 20 18 19 13 18 14
20 19 17 19 20 19 9 1 8 2 0 1 4 1 2 10
14 21 20 12 19 27 20 27 50 59 62 63 108 120 123 124
124 125 127 129 131 126 114 102 89 54 25 16 26 29 21 12
17 22 26 19 11 14 10 2 0 0 0 4 15 20 22 23
8 14 26 18 19 17 20 26 26 21 7 16 18 16 22 22
19 15 11 1 0 0 0 0 0 0 0 0 0 0 0 0
0 0 0 0 0 0 0 0 0 0 0 0 10 15 16 20
21 21 23 16 17 12 17 18 16 16 21 20 21 11 18 17
21 20 22 22 18 19 12 1 3 6 7 5 5 3 4 5
11 14 15 18 19 17 31 65 81 91 94 86 108 126 134 134
133 135 136 137 137 131 119 102 86 43 28 18 15 15 11 17
11 18 14 12 13 8 9 4 1 0 2 7 18 22 25 24
9 13 25 20 19 15 20 24 23 18 4 17 18 16 21 22
21 18 13 6 0 0 0 0 0 0 0 0 0 0 0 0
0 0 0 0 0 0 0 0 0 0 0 6 12 12 18 20
21 21 19 18 17 13 18 15 15 17 18 21 20 11 13 19
19 24 21 20 18 21 15 3 2 7 10 16 11 7 2 3
7 10 12 15 19 27 70 97 106 108 109 108 115 135 142 143
142 143 144 143 142 139 129 108 79 50 64 54 29 9 6 4
7 9 9 7 5 7 9 13 1 0 7 10 19 22 25 25
9 13 25 19 16 13 22 24 20 16 3 16 18 14 20 22
20 19 13 11 1 0 0 0 0 0 0 0 0 0 0 0
0 0 0 0 0 0 0 0 0 0 1 9 10 15 17 19
20 21 16 20 15 13 19 15 16 16 18 22 20 9 12 19
19 24 25 19 17 22 18 8 1 10 11 17 16 15 8 4
4 4 6 9 12 18 64 116 122 122 133 138 142 144 145 145
144 145 144 144 145 144 143 122 81 76 95 82 29 8 5 4
5 8 15 14 9 15 17 13 1 0 8 13 22 23 24 25
11 12 25 21 9 13 23 23 18 13 3 16 18 16 19 21
19 19 14 10 6 0 0 0 0 0 0 0 0 0 0 0
0 0 0 0 0 0 0 0 0 0 4 8 12 15 16 17
18 17 17 18 14 12 19 14 14 15 18 23 21 8 10 19
19 23 24 20 18 25 20 15 3 14 16 24 22 19 19 13
12 10 13 19 17 21 23 79 135 142 146 146 140 143 145 145
145 145 145 144 145 144 145 131 109 111 103 45 9 6 12 16
17 18 20 21 22 23 23 17 8 4 13 19 26 24 25 24
10 13 23 21 3 14 24 21 16 10 4 17 18 17 20 20
19 19 17 11 10 2 0 0 0 0 0 0 0 0 0 0
0 0 0 0 0 0 0 0 0 0 6 7 12 14 16 17
18 16 18 18 16 13 18 13 12 15 20 22 20 10 7 20
19 24 24 19 15 23 22 22 8 14 18 27 26 20 26 24
24 22 24 25 26 25 25 25 73 142 147 146 144 145 145 145
146 145 145 145 144 145 143 142 140 124 62 19 19 17 17 21
25 22 22 21 25 23 25 20 14 10 14 20 26 24 24 24
10 12 23 20 1 14 23 19 14 9 3 18 17 17 21 19
18 18 19 14 10 5 0 0 0 0 0 0 0 0 0 0
0 0 0 0 0 0 0 0 0 0 5 7 11 13 14 15
16 17 18 19 14 13 19 14 8 14 19 23 20 11 4 21
19 24 24 17 15 22 23 22 14 18 20 26 26 19 23 25
24 24 24 25 26 26 29 28 28 55 127 148 146 145 146 145
145 145 145 144 144 144 144 143 122 53 22 20 25 24 22 25
23 23 21 25 26 22 25 21 16 14 16 23 26 26 25 24
11 11 21 17 0 16 19 16 13 6 5 19 16 16 21 20
17 17 19 16 11 8 0 0 0 0 0 0 0 0 0 0
0 0 0 0 0 0 0 0 0 0 4 8 11 12 14 15
15 18 18 18 15 14 19 14 5 15 19 23 20 12 3 19
20 22 24 19 15 20 22 23 18 18 22 29 26 21 23 28
27 26 25 25 25 26 34 26 26 27 35 86 141 146 146 146
145 145 145 145 145 144 142 108 43 24 24 26 27 26 26 25
23 24 21 26 25 22 26 22 18 16 16 24 27 25 24 25
13 11 21 17 0 18 16 13 12 4 8 21 16 17 21 19
16 16 20 16 11 9 9 7 6 5 3 2 1 1 0 0
0 0 0 0 0 0 0 0 0 1 4 8 10 12 14 15
15 19 20 18 17 14 18 14 2 16 19 22 21 13 1 17
21 21 22 19 15 19 23 24 20 16 21 27 27 22 22 28
27 24 26 26 27 27 37 29 27 28 28 30 42 93 134 147
146 146 146 144 143 116 64 30 26 25 28 28 28 26 26 25
26 17 26 27 26 26 28 22 18 18 19 23 26 24 22 24
15 12 19 21 0 17 16 11 9 4 10 21 17 17 21 21
15 14 20 19 12 9 9 7 6 6 6 6 6 6 6 5
0 0 0 0 0 0 0 0 0 1 3 8 10 12 13 12
17 19 18 19 17 16 19 16 0 15 18 22 19 15 1 16
23 22 23 18 15 17 24 23 20 15 20 25 28 23 21 26
28 26 22 26 26 27 32 27 27 28 28 28 27 31 38 65
103 128 133 95 46 30 27 27 26 28 28 28 27 27 27 26
22 18 26 27 25 27 26 23 17 17 21 24 27 25 22 25
15 11 19 24 2 15 14 9 7 5 12 23 18 18 21 20
17 12 18 21 14 9 9 9 5 5 5 4 4 4 6 10
0 0 0 0 0 0 0 0 0 1 3 9 11 12 13 15
19 19 19 18 18 17 19 16 0 14 19 22 21 17 2 12
23 23 22 17 14 17 24 21 21 16 19 24 28 25 20 25
27 25 26 22 25 27 28 31 29 28 28 27 28 29 33 33
35 34 33 33 26 26 25 26 27 29 28 27 28 28 26 25
21 20 27 26 25 26 26 24 18 18 23 25 26 26 24 25
17 11 18 24 5 7 13 3 4 4 14 23 19 18 21 21
17 13 13 21 16 10 9 8 7 5 4 4 4 5 6 12
0 0 0 0 0 0 0 0 0 1 4 7 10 12 13 17
19 18 18 17 17 17 19 16 1 10 18 22 20 16 4 11
23 24 24 18 15 16 23 24 21 18 19 23 28 26 20 23
27 25 24 25 21 25 25 31 29 28 27 27 27 29 30 32
31 32 37 27 27 25 24 25 28 26 27 28 28 28 24 25
16 22 27 25 24 26 25 24 20 18 23 26 27 24 24 25
17 11 18 25 9 2 11 1 2 6 15 23 18 17 20 20
16 14 12 19 18 12 10 9 9 6 5 4 4 5 7 13
0 0 0 0 0 0 0 0 0 0 4 8 10 13 16 18
19 19 19 17 16 17 19 18 2 9 18 22 21 15 6 9
24 26 24 19 15 16 21 24 22 18 18 22 26 27 21 20
27 26 24 22 25 24 23 34 27 27 28 28 28 29 30 32
32 25 35 26 27 26 25 27 28 27 28 27 28 25 26 21
15 25 28 26 23 27 24 22 22 19 22 27 27 24 24 25
18 10 17 26 13 2 12 0 2 7 16 22 18 18 21 21
17 14 13 17 21 14 11 9 8 7 5 4 4 5 9 15
0 0 0 0 0 0 0 0 0 0 4 7 9 14 19 19
18 19 20 17 16 17 19 18 2 6 18 22 20 16 8 4
24 23 23 18 14 17 20 24 20 18 18 20 25 26 22 19
25 26 25 20 22 24 25 35 28 26 26 27 27 28 29 31
31 30 27 26 26 26 26 27 27 27 27 27 23 25 24 15
17 26 26 25 25 26 24 21 21 21 20 26 26 25 23 25
20 10 16 24 20 1 11 0 2 6 15 22 18 18 20 21
17 13 12 15 22 18 12 9 14 8 5 5 5 6 10 17
0 0 0 0 0 0 0 0 0 0 3 7 11 15 19 19
19 18 20 19 16 17 19 18 4 5 19 22 20 15 8 2
21 25 22 17 15 15 20 24 22 18 18 20 26 27 24 18
24 26 28 23 20 20 23 29 35 23 26 27 29 29 28 28
29 35 23 27 26 26 26 27 26 26 24 23 27 25 22 13
20 26 27 25 27 26 25 22 21 21 20 26 26 24 23 24
23 10 15 24 23 4 8 0 1 6 15 21 19 17 20 21
17 12 12 14 20 20 14 13 15 10 5 5 5 6 11 17
0 0 0 0 0 0 0 0 0 0 4 8 15 16 19 19
18 19 19 19 17 16 18 18 5 3 18 22 17 16 8 0
20 25 24 18 14 15 19 25 23 18 17 19 23 27 26 20
20 25 26 25 23 21 19 22 45 24 23 24 28 28 27 26
26 32 25 24 26 26 26 26 26 24 25 29 26 23 19 13
22 27 26 24 28 28 25 23 21 22 22 26 26 24 24 25
24 11 12 21 23 12 6 3 0 6 15 21 20 18 19 21
16 11 12 16 15 20 17 14 13 13 9 8 7 8 13 17
0 0 0 0 0 0 0 0 0 0 5 10 16 17 19 19
17 18 18 19 16 16 19 19 6 2 17 22 18 15 10 0
17 25 23 18 14 16 19 24 25 18 18 18 23 26 27 21
18 24 27 26 24 22 21 20 41 23 27 26 22 22 24 26
29 28 27 26 25 24 24 25 26 29 27 24 22 23 16 15
22 27 25 25 27 27 25 22 21 23 22 24 24 22 22 24
24 13 12 20 24 19 9 6 0 5 15 21 21 17 18 20
17 9 13 15 15 22 20 14 14 14 13 11 8 8 15 18
0 0 0 0 0 0 0 0 0 0 5 15 18 14 16 18
18 18 18 19 17 17 19 19 7 1 17 23 17 15 12 0
11 24 21 17 15 15 18 23 25 20 16 16 20 24 25 21
18 23 25 24 24 22 21 19 28 26 24 28 29 29 27 23
29 20 21 19 21 22 25 28 28 25 22 20 22 23 13 16
23 27 22 25 27 26 26 21 22 23 24 27 23 22 22 24
24 13 12 17 24 19 15 11 0 3 16 20 20 17 18 22
18 8 9 17 15 21 19 14 15 13 13 12 9 9 15 18
0 0 0 0 0 0 0 0 0 0 6 14 12 14 15 15
17 18 20 19 18 16 20 19 9 0 15 21 17 14 12 0
7 22 22 15 14 14 17 23 24 23 17 17 17 24 27 24
20 22 25 25 25 25 23 22 19 30 22 24 25 26 28 29
33 28 27 28 29 27 28 26 25 23 20 22 23 21 12 19
25 24 23 26 26 26 24 23 20 25 25 25 24 21 23 22
25 15 11 17 23 21 17 14 1 4 17 20 20 16 18 22
19 7 8 17 16 20 20 15 15 13 12 13 8 11 16 18
