P2
128 120
153
47 46 46 45 45 45 44 44 44 43 43 43 42 42 41 40
40 39 39 38 37 37 36 36 36 35 34 33 33 32 32 31
30 30 29 29 28 28 27 27 26 26 25 25 25 24 23 23
22 21 21 21 20 19 20 19 19 18 18 20 25 24 25 24
18 9 19 25 20 19 19 18 17 17 15 13 14 14 13 9
9 11 14 16 18 18 19 20 20 21 22 21 22 21 21 21
22 23 23 23 24 24 25 25 25 26 26 27 27 27 30 27
29 28 29 29 30 30 31 31 31 31 32 33 32 33 33 34
46 45 45 45 44 44 44 43 43 42 42 42 41 41 41 40
40 39 38 38 37 37 36 35 35 34 34 33 33 32 31 31
31 30 29 28 28 28 28 27 26 25 25 25 24 24 23 23
22 22 22 21 21 21 20 20 19 19 19 20 24 25 25 25
19 11 18 25 21 20 19 19 18 17 16 15 14 14 13 10
11 11 15 17 19 19 19 19 20 20 21 20 21 21 22 23
23 23 23 24 24 24 25 25 25 26 26 26 26 26 28 27
28 29 29 30 30 29 30 31 31 31 32 32 32 32 32 34
45 44 45 44 44 44 43 43 43 42 42 41 41 40 40 39
38 39 38 37 37 36 36 35 34 34 34 33 33 32 31 31
30 29 29 28 29 27 27 26 26 26 25 25 24 24 23 22
22 21 22 21 20 20 20 20 19 19 20 20 25 26 26 24
18 12 15 25 21 19 19 19 18 17 16 16 15 15 14 11
10 12 16 17 18 19 18 19 20 21 21 21 22 22 22 22
23 23 24 24 24 24 25 25 26 25 26 27 27 27 29 28
28 29 29 29 29 30 30 30 31 31 32 32 32 32 31 30
45 44 44 43 42 43 42 42 42 41 41 40 40 39 39 38
38 38 37 37 36 35 34 34 33 33 33 32 32 30 31 30
30 29 29 28 27 27 27 26 26 25 24 24 23 23 23 22
22 21 21 21 21 19 19 19 19 19 19 21 24 24 24 24
18 14 13 25 21 20 19 19 18 17 17 17 15 13 14 11
10 12 16 16 18 18 19 20 20 20 21 22 21 22 22 22
23 23 23 24 24 24 24 24 25 25 25 26 26 26 28 28
27 28 29 29 29 30 28 30 30 30 29 29 29 30 31 31
43 43 43 43 43 42 42 42 42 42 41 40 40 39 39 38
38 38 37 36 35 35 35 34 34 33 33 32 32 31 31 31
30 29 29 28 28 27 27 26 26 25 24 24 24 23 23 23
22 21 21 21 20 20 19 19 19 19 20 21 25 25 26 25
19 14 12 25 21 20 19 19 18 17 17 17 15 15 14 13
12 12 16 19 19 19 20 20 20 21 21 21 22 22 23 22
23 23 24 24 24 24 24 25 25 25 25 26 27 27 28 28
28 29 30 29 30 29 28 27 29 29 31 31 31 31 32 31
44 44 43 43 43 43 42 41 41 41 41 41 40 39 39 39
38 37 38 36 36 36 35 34 34 33 33 32 32 31 31 31
30 29 29 29 29 28 27 27 26 25 25 24 24 24 23 23
22 22 22 22 21 21 21 20 19 20 20 22 26 25 26 26
19 15 13 26 22 20 19 20 19 18 17 18 15 16 16 14
13 14 17 19 20 20 21 21 21 21 22 22 22 22 23 23
23 23 24 24 24 25 25 25 25 26 26 27 27 27 28 28
28 28 27 26 28 29 31 32 30 30 31 31 32 31 31 31
44 43 43 43 44 43 42 42 42 42 41 40 41 39 39 38
38 37 37 36 36 36 35 35 34 34 33 32 33 32 32 31
30 30 29 29 28 27 28 27 26 26 26 25 25 25 24 24
23 22 22 22 21 21 21 20 20 20 21 23 27 26 27 27
21 15 11 23 22 20 20 19 19 19 18 19 17 16 17 15
14 16 19 21 21 21 21 21 21 22 23 23 23 23 23 24
24 24 24 25 25 25 25 25 26 26 27 27 28 27 26 26
27 28 29 30 31 30 30 31 31 31 31 31 32 32 32 32
45 44 43 43 43 43 43 42 42 41 40 40 40 39 39 38
38 37 37 36 36 36 35 35 34 33 34 32 32 32 31 31
30 31 29 29 28 28 28 27 27 26 26 25 24 24 24 24
23 23 22 22 22 22 22 21 20 20 21 22 27 27 28 27
21 13 7 22 24 22 22 20 20 19 19 20 17 17 17 16
15 17 20 21 21 22 22 22 23 22 23 23 23 23 24 24
24 24 24 24 25 26 26 27 27 26 26 25 26 26 28 29
29 29 30 30 30 30 31 32 31 31 31 31 32 32 32 32
44 43 43 43 43 43 43 42 42 42 42 40 40 40 39 39
38 37 37 37 37 36 36 35 35 34 33 33 33 32 32 32
30 30 30 28 29 28 27 28 27 26 26 26 25 25 25 24
24 24 23 22 22 22 21 21 21 20 22 23 28 28 28 27
21 15 14 24 24 22 22 21 21 20 19 20 17 18 18 17
16 18 21 22 22 22 22 22 22 23 23 23 24 24 24 25
25 26 26 26 26 26 25 25 25 25 27 28 28 29 28 29
30 30 30 31 31 31 31 33 31 31 31 31 33 32 33 32
47 44 44 44 43 43 42 42 42 41 41 41 40 40 39 39
38 38 38 37 37 36 36 35 35 34 34 33 33 32 32 31
32 30 30 30 30 29 29 28 28 27 27 27 26 25 25 25
24 24 23 24 23 23 22 22 22 22 23 24 29 28 29 28
22 16 17 23 25 23 23 22 22 21 20 21 18 18 18 18
15 18 22 23 23 23 23 24 24 23 24 24 24 25 25 25
25 25 25 26 27 27 27 28 28 28 28 28 29 29 30 30
30 30 30 31 30 31 32 33 33 33 33 32 33 33 33 32
59 61 62 58 52 46 42 42 42 41 41 41 41 40 40 39
39 38 37 37 37 36 36 36 35 34 34 34 33 32 32 31
31 31 30 29 29 29 28 28 28 27 27 27 26 26 26 25
25 24 24 24 23 23 22 22 22 22 23 24 29 29 29 28
23 17 21 22 26 23 23 23 22 21 20 21 18 19 19 18
16 19 23 23 23 23 23 24 24 24 24 24 25 25 24 25
25 25 26 26 27 27 28 28 28 28 28 28 29 29 29 30
30 30 31 31 31 31 32 33 32 32 32 32 33 33 32 33
35 45 53 57 58 52 42 42 42 41 41 41 40 40 40 39
39 38 38 37 37 37 37 36 36 35 34 33 33 32 32 32
32 32 31 31 30 30 30 29 28 28 27 27 26 26 26 25
25 25 24 24 24 24 23 23 23 22 23 24 29 30 30 29
23 18 22 20 26 24 24 23 22 22 21 22 19 20 19 19
17 20 22 24 24 24 25 25 25 25 25 25 24 24 25 26
26 26 26 27 28 28 28 29 29 29 29 29 29 29 30 29
30 30 31 32 31 32 32 33 33 33 33 33 32 33 33 33
0 0 1 25 58 52 42 42 42 42 41 41 41 40 40 39
39 38 38 38 37 37 36 36 35 35 34 34 34 33 33 32
32 31 31 32 31 30 30 29 29 29 28 28 27 27 27 26
26 25 25 25 25 24 24 23 23 23 24 24 30 30 31 30
24 20 24 20 26 25 24 23 23 22 22 23 20 21 21 20
17 22 24 25 24 24 25 24 24 24 25 25 26 26 27 26
26 27 28 28 28 28 28 29 29 29 29 30 30 30 30 29
31 31 32 32 32 33 33 34 33 33 33 33 34 34 33 33
0 0 0 22 59 53 42 42 42 42 42 41 40 40 40 40
39 39 39 38 37 36 37 36 36 35 35 34 34 33 33 33
33 32 32 31 31 31 30 30 29 29 28 27 27 27 27 26
26 26 25 25 25 25 24 24 24 24 25 25 31 31 31 30
24 20 26 19 27 25 25 23 24 23 23 24 20 21 21 20
18 22 23 24 25 24 25 25 26 26 27 27 26 26 26 27
27 27 27 27 28 29 29 29 28 29 30 30 31 30 30 30
31 31 32 31 33 33 33 34 33 33 33 33 34 34 34 33
0 0 0 21 59 52 42 42 42 42 41 41 41 41 40 40
40 39 39 38 37 37 36 36 36 35 35 35 34 34 34 33
33 32 32 31 31 30 30 30 29 28 28 28 28 28 28 27
27 26 26 25 25 25 24 24 24 24 24 26 31 31 31 31
25 20 27 18 27 26 25 25 24 23 23 25 20 21 21 21
17 21 23 25 25 26 26 26 26 26 26 27 26 26 27 27
27 27 29 29 29 29 29 28 29 29 29 29 30 31 31 32
31 32 32 33 33 32 33 34 33 34 33 34 34 33 32 32
0 0 0 22 58 52 42 42 42 41 41 41 41 40 40 40
39 39 39 38 38 37 37 36 36 36 35 35 34 34 34 33
33 32 32 31 31 31 31 30 30 29 29 29 28 28 27 27
27 26 26 25 24 24 25 24 24 25 25 26 31 32 31 31
24 20 28 18 27 26 26 25 24 24 23 26 21 22 21 21
18 23 24 25 26 26 26 26 27 26 26 27 28 27 27 28
27 28 28 29 29 29 29 29 30 30 30 31 31 30 31 31
32 31 33 32 33 33 32 34 33 32 32 32 33 34 34 34
2 0 0 22 57 51 42 42 42 42 42 41 41 40 40 40
39 39 39 38 38 37 37 37 36 35 35 35 35 34 34 34
33 33 32 32 31 31 31 30 30 29 29 28 29 28 28 28
27 26 26 24 25 24 23 23 24 24 25 26 32 32 32 31
25 21 29 20 28 26 26 26 24 24 24 26 22 22 22 21
18 24 24 26 26 26 27 27 28 27 27 27 27 28 28 27
28 28 28 29 29 30 29 29 30 30 30 31 30 30 31 32
33 32 32 33 32 31 32 32 32 34 33 33 33 34 34 35
5 0 0 25 58 49 43 43 43 42 42 41 41 41 41 39
39 39 38 38 37 38 37 37 37 36 36 35 35 34 34 33
33 33 32 32 31 31 31 30 31 30 30 28 28 29 28 28
26 24 25 22 24 24 24 24 24 25 25 27 31 32 32 31
25 21 29 20 27 25 27 26 25 24 24 25 22 23 23 22
19 23 24 26 26 27 27 27 28 28 28 27 27 27 27 28
28 28 28 28 29 29 30 30 30 31 30 31 31 32 32 31
31 31 31 32 33 33 33 33 33 34 34 34 34 34 34 34
14 0 0 25 57 49 42 43 42 42 42 41 41 41 40 40
39 39 39 39 38 38 37 36 36 36 35 36 35 35 34 34
34 33 33 32 32 32 32 31 31 30 30 29 28 29 28 25
23 21 19 18 17 16 19 19 21 23 24 27 32 32 33 33
26 22 30 23 27 26 26 26 25 24 24 26 23 23 23 23
18 24 25 27 27 27 28 27 28 27 28 28 28 28 28 28
29 30 30 30 30 30 31 31 31 31 31 30 30 30 31 32
33 33 33 34 34 34 34 34 34 34 35 35 35 34 35 34
10 0 0 26 56 49 42 43 42 42 42 41 41 40 40 39
39 39 39 38 38 38 38 37 37 36 36 35 35 35 34 33
33 34 33 32 31 32 31 32 31 30 29 27 26 25 21 15
10 6 5 6 11 7 7 9 12 12 13 18 25 29 34 32
26 21 30 23 26 27 27 26 25 25 25 25 23 23 23 23
18 25 25 27 27 27 27 28 29 28 28 29 28 29 29 29
29 29 29 30 30 30 30 30 30 30 30 31 32 32 32 34
33 33 33 34 34 33 34 34 35 35 34 34 35 34 35 34
9 10 9 28 56 48 42 42 42 42 42 41 41 41 40 40
40 40 39 39 38 38 37 37 36 36 36 36 35 35 34 34
34 34 33 33 33 32 32 31 32 30 29 25 24 19 8 3
0 0 0 0 0 4 3 1 1 0 2 1 4 11 23 33
28 22 31 27 25 28 27 27 26 26 25 24 23 24 24 23
19 25 25 28 28 28 28 28 30 29 29 29 28 29 29 29
30 30 30 30 30 30 31 31 31 31 31 32 32 32 32 34
33 33 34 34 34 34 35 34 34 34 35 34 34 34 34 34
11 7 18 39 56 48 42 43 43 42 42 41 40 41 41 40
40 39 39 39 38 38 38 38 37 37 36 36 35 35 34 34
34 33 33 33 32 32 32 32 30 29 28 21 15 2 0 1
0 0 0 0 0 1 4 2 3 1 2 3 1 1 4 12
24 22 30 29 23 28 27 27 27 26 25 24 24 24 24 24
20 26 25 27 28 28 29 29 29 28 29 29 30 30 29 30
30 30 30 30 31 31 31 31 31 32 32 32 32 33 33 34
34 34 34 34 34 34 34 34 34 34 34 35 35 35 34 35
48 46 41 46 53 46 43 42 43 42 42 41 42 41 41 41
40 40 40 39 39 38 37 37 37 36 36 36 36 35 35 35
35 34 34 34 33 33 32 31 29 26 19 16 2 0 0 0
0 0 0 0 0 0 0 2 2 1 1 5 4 1 1 1
6 18 29 32 22 29 28 27 27 26 26 24 24 25 25 24
20 27 25 29 28 29 29 29 29 28 29 28 28 29 29 30
31 30 31 31 31 31 31 32 31 32 32 32 32 33 33 35
34 34 34 34 34 35 35 35 35 35 34 34 35 35 34 33
40 43 44 45 45 44 43 43 43 42 43 42 42 41 41 40
40 40 39 39 39 39 38 37 37 37 36 36 36 35 35 35
34 34 33 33 31 30 30 27 24 14 8 3 0 0 0 0
0 0 0 0 0 1 0 1 2 3 1 2 4 6 2 0
3 6 19 26 23 29 29 28 27 26 26 25 25 25 25 24
21 27 25 29 29 28 28 29 28 29 28 29 30 30 30 31
31 30 31 31 31 31 31 32 32 32 32 33 33 33 34 35
33 34 34 34 35 34 34 34 35 34 35 34 34 34 35 34
26 31 36 41 45 45 44 43 44 43 42 42 42 42 41 41
40 40 40 40 39 38 38 38 37 36 36 36 36 36 36 35
35 34 34 32 28 30 27 24 13 1 0 0 0 0 0 0
0 0 0 0 3 6 6 8 7 5 3 4 6 5 4 3
0 3 5 15 21 31 29 28 28 27 27 24 25 24 25 25
21 28 24 28 29 28 29 29 29 30 30 29 30 30 30 31
32 31 32 32 31 32 32 32 33 33 33 33 34 33 34 34
34 34 34 35 35 34 35 34 35 34 35 35 35 35 35 35
19 18 18 19 22 27 32 37 41 43 44 43 43 42 41 40
41 40 40 39 38 38 38 37 37 38 37 37 36 36 36 35
35 34 34 28 30 29 22 7 0 0 1 0 0 0 0 0
0 0 0 0 1 5 2 5 4 10 5 4 3 8 5 5
3 1 4 4 8 24 31 30 28 27 27 27 26 25 26 25
20 27 25 30 30 29 29 30 30 30 30 30 30 31 32 31
32 32 31 32 31 32 33 32 33 33 33 33 34 35 34 34
35 35 34 34 35 34 35 34 34 34 35 35 35 36 36 35
19 18 18 19 19 19 19 19 18 21 26 30 34 39 42 40
40 40 40 40 39 38 38 38 37 36 37 36 36 36 35 35
35 34 31 29 28 24 11 2 0 0 0 0 0 0 0 0
0 0 0 0 0 2 5 8 8 13 5 3 5 8 13 8
4 4 3 9 9 14 26 29 29 27 27 25 27 26 25 25
22 27 26 30 30 30 30 30 30 30 31 30 31 31 31 31
31 31 32 31 32 32 33 32 33 33 34 34 34 34 34 35
34 34 35 35 35 35 35 35 35 35 34 33 32 32 33 33
30 25 22 20 19 18 19 19 18 19 19 19 14 16 20 32
41 40 40 39 39 38 38 39 38 37 37 37 37 37 36 36
35 33 33 27 23 13 2 0 0 0 0 0 0 1 0 0
0 0 0 0 0 0 0 6 16 6 11 17 4 8 6 12
8 11 6 7 10 3 11 26 28 28 27 26 27 26 26 25
23 28 26 29 30 29 29 30 30 30 31 31 31 31 32 31
32 32 32 32 33 32 32 32 34 33 34 34 34 34 34 35
35 34 35 35 35 35 33 33 33 32 33 34 36 35 35 35
58 56 53 35 23 25 19 18 17 18 18 20 12 8 16 30
41 40 40 40 39 39 38 38 38 38 38 37 36 36 36 35
36 32 33 25 7 0 0 0 0 0 0 0 0 0 1 2
0 0 0 0 0 0 4 7 4 6 3 9 14 12 7 2
7 8 11 8 6 5 2 14 28 28 27 26 27 25 26 25
23 27 25 30 30 30 31 31 31 31 31 31 31 30 31 32
33 32 32 32 32 32 34 33 33 33 34 35 35 34 35 34
34 33 32 34 34 34 35 35 36 34 34 34 35 34 35 34
60 59 58 41 35 40 46 41 31 26 21 17 16 16 18 29
41 40 40 39 39 38 37 37 38 37 38 36 37 37 36 35
34 31 33 22 6 0 0 0 0 0 0 0 0 1 0 3
4 0 0 0 0 0 6 10 3 2 2 1 6 7 8 11
10 5 13 12 9 9 3 2 22 28 28 26 27 25 26 26
23 28 26 30 30 30 30 30 30 30 31 31 31 31 32 32
33 32 33 32 33 32 34 33 33 34 34 33 33 32 33 34
33 33 34 34 34 33 33 34 35 33 34 34 34 35 35 34
59 61 60 43 42 45 49 49 41 52 51 48 31 14 17 29
41 41 40 39 39 38 44 48 45 43 40 38 36 36 35 35
34 31 30 17 1 0 0 0 0 0 0 0 0 0 0 5
9 6 2 6 4 8 3 4 3 2 6 5 6 8 4 8
10 14 12 10 11 9 6 2 8 25 27 26 27 26 26 26
23 28 25 30 31 30 31 31 31 31 31 31 31 32 32 32
33 33 33 33 33 33 33 33 33 34 34 33 34 34 33 33
33 33 33 34 33 33 33 34 36 34 34 35 34 34 34 34
36 45 55 45 45 47 51 51 51 56 55 56 40 15 20 31
41 41 41 40 39 39 46 51 49 49 45 42 41 40 38 36
33 30 19 7 0 0 0 0 0 0 0 0 4 5 3 4
3 3 11 14 8 7 5 1 1 0 5 3 5 7 6 5
7 12 19 16 11 17 14 9 4 14 27 28 27 26 27 26
25 29 26 30 30 30 31 31 31 31 31 32 32 32 32 32
33 31 31 31 32 33 33 34 34 32 33 33 34 33 34 33
34 33 33 34 34 34 33 33 35 34 34 34 35 34 34 34
8 0 32 48 47 49 53 52 54 57 56 57 44 16 20 36
44 43 42 41 40 39 48 52 50 47 44 45 45 48 44 39
36 27 15 3 0 0 0 0 0 0 2 2 2 3 5 4
4 3 6 8 8 6 9 6 5 1 0 4 5 4 2 3
9 8 16 21 12 7 15 4 5 2 21 29 27 27 27 27
25 29 26 31 31 31 31 32 32 32 32 32 32 31 31 31
32 33 32 33 32 32 33 34 35 34 34 33 33 34 34 33
33 33 33 33 34 34 34 34 35 34 35 34 35 35 34 34
18 7 35 46 47 48 47 52 54 55 56 56 47 18 20 38
48 44 44 43 42 41 45 40 45 47 47 49 50 51 45 36
34 29 13 0 0 0 0 0 0 2 8 15 17 13 5 6
4 5 6 7 5 1 1 2 1 2 0 2 0 1 4 5
8 13 14 15 16 8 11 12 4 6 8 25 27 27 28 27
25 29 26 31 31 31 31 31 31 30 31 31 31 32 33 33
32 33 34 33 33 33 34 33 34 33 33 33 34 33 34 34
33 34 34 33 34 34 34 34 35 34 34 34 34 34 34 32
21 11 38 43 17 28 37 48 54 55 54 52 45 17 19 37
48 38 38 42 46 48 50 3 1 14 32 39 42 47 36 10
2 4 2 0 0 0 0 0 2 3 5 13 20 22 18 12
12 6 3 3 0 0 0 0 0 1 4 1 1 2 3 2
5 9 14 17 11 9 11 15 8 6 4 24 26 27 27 27
25 28 25 30 30 31 32 32 32 32 32 32 32 31 32 32
32 33 32 32 33 33 33 33 34 34 34 34 33 34 34 34
33 34 34 33 34 34 34 33 35 35 35 34 34 34 34 34
15 11 39 40 1 1 5 8 14 24 25 38 48 19 20 36
49 47 44 37 44 51 53 4 0 2 13 18 16 16 31 11
0 0 1 0 0 0 0 4 15 11 12 13 15 20 26 20
14 10 8 0 0 2 4 2 1 4 7 10 10 5 1 4
10 9 8 12 14 13 12 10 11 4 6 16 24 27 28 28
26 28 25 31 32 31 32 32 33 33 32 33 32 32 32 33
33 33 33 34 33 33 33 33 34 33 33 33 33 33 34 34
34 34 34 34 34 34 35 34 34 35 34 33 34 34 33 34
0 0 39 40 0 0 0 1 0 0 0 12 48 19 19 11
15 25 37 46 51 53 53 5 0 1 9 11 16 16 32 14
0 0 0 3 1 0 1 6 19 27 35 30 29 26 30 27
22 17 8 2 2 1 4 4 3 3 1 8 5 1 0 2
4 5 8 8 9 18 19 16 17 9 5 7 24 26 28 27
26 27 26 31 32 32 31 32 33 33 32 33 33 32 32 32
33 33 33 33 32 33 33 33 35 34 34 34 34 33 34 34
34 34 34 33 34 34 34 34 35 35 35 34 34 34 35 34
0 0 40 38 2 5 0 0 0 0 0 14 48 18 20 4
0 0 0 2 10 20 37 7 0 0 5 2 8 8 29 17
0 0 0 1 3 0 0 7 14 29 45 59 56 62 61 45
39 27 14 7 3 1 2 2 2 2 1 1 4 6 2 3
6 5 12 17 19 12 10 15 13 13 6 5 18 27 27 27
26 28 27 32 33 33 32 32 33 33 33 32 33 32 33 33
33 33 33 34 34 34 33 34 35 34 34 34 34 34 34 35
34 34 34 34 34 34 34 34 36 35 34 35 34 35 35 34
0 0 42 36 2 7 1 26 3 0 0 14 48 18 19 3
0 0 0 0 0 0 16 8 0 0 0 0 0 7 27 9
0 0 0 1 4 1 0 6 16 14 26 46 57 75 92 89
69 50 29 6 2 4 2 3 7 2 5 0 0 1 2 3
7 2 7 16 23 18 11 7 13 10 11 9 14 29 27 28
26 28 27 32 33 33 32 33 33 33 33 33 33 33 33 32
33 32 33 33 33 34 34 34 35 34 35 35 35 36 35 34
35 35 35 35 35 35 35 35 35 33 35 35 35 36 35 35
4 0 42 36 2 7 1 14 20 0 0 14 48 18 20 4
0 0 0 0 0 0 13 7 0 0 0 0 0 8 33 9
2 0 0 4 9 4 5 7 17 22 15 20 36 43 59 73
73 60 43 16 7 6 8 7 2 4 2 0 0 1 2 2
7 17 12 11 14 18 15 8 7 11 11 12 13 22 28 29
27 27 28 32 33 34 33 33 33 33 32 32 33 33 33 34
34 33 34 34 34 34 34 35 34 34 34 35 34 35 35 36
35 35 35 36 35 35 35 35 34 36 36 36 37 35 36 35
0 0 42 33 2 6 2 9 9 0 0 16 46 18 20 4
0 0 0 3 0 0 12 5 0 0 0 0 0 6 32 12
0 1 0 4 14 11 6 10 18 38 43 28 21 43 55 59
68 57 44 25 8 3 5 7 5 3 4 4 4 1 2 5
12 16 18 22 16 14 10 11 11 12 9 10 18 16 28 28
28 28 28 33 34 33 33 33 33 33 32 33 33 34 34 34
33 34 34 34 35 35 35 34 36 35 35 35 36 36 36 36
34 34 34 35 34 35 35 36 36 36 35 36 36 36 35 33
2 0 43 29 0 3 3 0 5 0 0 17 45 19 20 4
0 3 4 20 0 0 11 5 2 3 0 0 1 10 36 11
1 5 2 5 10 15 12 11 11 18 27 34 38 29 36 41
47 47 36 24 14 6 3 7 9 4 4 2 3 3 1 3
6 9 12 13 15 11 11 8 3 2 9 9 13 17 25 28
27 28 29 33 34 33 33 33 33 33 33 33 33 33 33 33
34 34 34 34 34 35 35 35 35 34 34 35 35 35 35 35
36 36 35 35 36 37 35 35 35 36 35 35 36 35 35 35
0 0 43 28 0 3 11 0 0 0 0 19 43 19 20 3
11 12 6 5 0 0 10 6 2 0 0 0 2 12 34 12
1 1 7 12 11 12 13 19 19 17 21 30 32 34 28 32
40 44 44 27 21 15 7 8 8 5 2 2 3 3 5 5
3 4 10 14 10 7 10 11 7 5 4 2 8 10 21 29
28 29 29 33 33 32 33 33 33 33 33 33 33 34 34 34
34 35 35 34 35 35 35 34 35 36 35 35 35 35 36 36
37 36 36 36 36 35 36 36 36 36 36 35 37 36 35 35
48 43 50 37 7 5 7 5 3 0 0 21 43 20 21 6
13 1 1 7 4 0 11 7 0 0 0 0 0 21 37 17
1 0 12 14 11 9 13 16 20 23 28 37 41 38 46 54
73 82 81 60 41 30 16 8 9 5 1 4 0 2 1 2
3 3 5 6 12 10 15 14 13 15 9 2 0 6 13 27
28 28 28 33 34 33 33 34 35 33 34 33 33 33 34 34
34 34 35 35 35 35 35 35 35 35 34 35 36 35 36 36
37 34 36 35 36 36 37 36 36 36 35 36 36 35 36 35
51 55 45 69 54 30 42 41 45 42 37 41 36 20 21 6
2 0 0 0 2 0 15 38 26 16 17 9 1 2 38 26
5 3 15 24 24 18 13 8 12 13 15 15 20 27 37 57
66 78 79 72 48 43 30 14 8 5 2 2 1 0 1 2
0 7 11 10 8 10 11 14 19 14 21 10 3 1 10 26
28 28 28 32 34 33 33 31 33 33 34 34 34 34 34 34
35 34 35 34 34 34 35 34 34 34 34 35 35 35 35 36
37 34 35 36 36 35 36 36 35 34 34 32 36 33 35 33
2 35 70 73 46 34 47 54 57 55 54 53 36 20 20 4
0 0 0 0 0 0 17 58 52 44 47 47 45 37 45 24
7 3 18 23 21 16 7 2 3 12 15 21 29 36 41 57
75 84 82 78 74 60 47 35 16 6 1 1 1 0 0 3
6 3 6 9 8 10 10 13 17 24 23 21 10 1 4 20
28 27 29 32 33 32 32 33 34 34 34 33 34 34 34 33
35 34 34 34 34 34 35 34 34 35 35 35 36 36 35 35
36 35 34 33 33 32 32 34 34 34 33 32 30 27 23 20
0 38 69 68 39 36 46 52 56 54 58 56 37 19 20 5
0 0 0 0 0 0 17 60 43 49 53 56 60 47 44 21
5 3 14 17 21 18 9 10 12 10 15 28 47 65 73 77
86 93 100 90 90 89 72 57 33 9 1 0 0 1 1 4
5 10 9 5 5 5 3 5 10 18 17 20 20 12 5 17
25 25 29 32 33 33 32 33 33 33 33 33 34 33 33 34
35 34 34 33 34 33 34 34 34 34 34 34 34 33 35 35
36 35 34 36 34 29 28 24 21 18 15 14 13 14 13 14
0 37 64 56 22 23 37 45 49 53 54 57 36 19 21 33
37 28 18 9 3 0 17 50 38 49 53 55 59 51 40 23
6 3 35 29 21 14 15 19 30 33 37 58 90 105 112 114
115 116 120 113 103 106 105 96 63 32 7 1 1 3 3 2
3 10 19 18 14 14 13 10 11 14 20 20 14 15 5 7
25 25 29 32 33 33 33 33 33 33 32 33 32 33 31 31
34 33 33 33 34 33 34 34 35 36 36 36 35 33 31 29
26 21 20 26 33 14 10 13 14 15 16 16 18 18 19 19
0 36 64 55 8 0 0 0 0 2 5 30 38 20 21 39
55 55 53 51 49 43 47 44 37 48 51 53 56 52 44 28
8 4 38 64 51 40 42 44 43 54 75 94 103 107 113 117
120 123 128 123 114 114 114 102 100 60 22 4 2 3 3 2
5 8 4 12 15 11 11 12 13 14 9 16 24 17 10 3
22 25 29 31 32 32 32 31 31 32 32 32 32 33 32 31
33 34 33 34 35 35 34 32 30 27 24 20 17 16 15 14
15 16 16 21 31 11 14 18 20 20 21 23 24 24 24 26
0 32 64 57 6 0 2 0 0 0 0 22 39 19 21 38
55 56 54 53 54 54 57 31 7 15 23 30 38 39 38 30
10 2 10 47 60 63 69 68 61 57 71 79 95 102 112 122
126 123 121 125 118 112 123 117 104 90 47 17 10 8 6 5
7 9 5 16 16 13 15 10 8 11 16 22 17 25 23 6
15 25 29 30 32 32 31 31 30 30 29 27 29 32 33 33
32 30 28 26 23 20 19 16 16 15 16 17 18 19 19 19
21 20 20 22 29 13 19 24 26 27 28 28 29 29 29 30
0 27 63 54 4 0 0 0 1 7 6 22 39 19 20 34
52 54 53 55 55 56 56 25 0 0 0 1 8 15 23 34
9 1 3 41 75 81 78 73 62 42 7 52 122 83 94 101
113 120 120 126 131 116 117 128 122 104 79 38 25 17 24 36
22 12 16 37 43 29 22 15 7 7 11 12 19 20 26 22
21 25 27 28 27 28 28 27 28 28 29 20 18 25 22 20
18 17 16 17 17 18 19 20 20 21 22 22 23 24 25 25
26 27 27 27 35 18 25 28 29 30 30 30 31 31 31 31
0 25 57 49 2 0 0 0 10 37 34 32 38 34 29 34
39 40 41 43 44 49 54 20 0 0 0 0 1 5 25 39
5 1 12 50 69 85 90 84 66 31 16 60 91 112 112 117
118 116 122 131 133 129 115 119 130 121 110 68 34 27 51 76
50 32 24 48 63 74 43 24 1 0 0 0 5 10 23 27
15 22 27 29 28 28 26 24 21 18 18 15 13 16 17 18
20 20 22 23 24 24 26 26 27 27 28 28 29 29 29 29
30 30 28 20 15 11 28 31 31 31 33 33 33 33 32 33
0 25 55 45 1 0 0 0 8 34 32 26 32 25 24 26
24 27 35 38 35 45 51 18 0 0 0 1 5 0 18 40
6 2 23 64 61 79 95 92 73 39 36 72 109 119 121 118
116 117 123 130 134 136 133 127 125 127 122 93 43 37 67 96
75 61 56 52 67 93 73 33 0 0 0 0 3 11 16 15
17 16 19 19 16 17 17 16 18 19 20 21 21 22 23 25
26 26 28 29 29 29 30 30 30 30 30 31 30 30 31 31
31 31 30 12 3 1 26 32 33 34 33 32 33 33 33 33
0 29 56 44 0 1 3 0 1 16 18 24 30 26 25 28
30 29 34 36 34 45 51 15 0 0 0 0 2 0 18 37
0 0 24 72 65 71 99 99 84 53 54 78 101 114 115 112
114 120 124 132 136 139 138 141 139 136 129 116 54 47 88 105
104 92 80 77 83 103 93 35 1 0 2 2 4 4 17 17
19 11 15 14 18 20 21 21 23 24 25 27 26 27 29 29
30 31 31 31 31 32 32 32 32 32 33 32 33 33 32 29
23 19 28 11 9 1 24 32 33 34 33 34 34 33 33 33
0 32 57 43 0 1 4 0 0 0 0 12 25 20 23 19
16 24 32 38 43 48 49 15 0 0 0 0 0 0 23 39
0 0 34 73 71 71 103 97 86 64 58 68 89 103 108 113
121 127 137 138 140 141 142 142 143 138 134 120 73 62 103 117
126 120 100 95 81 108 93 25 0 0 5 3 16 9 12 10
15 14 20 17 23 25 26 27 27 28 28 29 30 30 30 31
31 32 32 33 34 34 33 33 34 33 33 32 33 33 14 0
0 3 25 8 2 0 24 32 33 34 34 32 33 33 33 33
0 37 57 42 0 0 5 8 1 0 0 14 31 30 27 13
0 0 0 0 3 6 18 16 0 0 0 0 0 1 26 36
0 0 44 49 56 77 116 116 92 74 72 72 86 96 104 118
126 134 141 139 141 142 142 142 141 142 138 121 86 102 111 126
139 130 95 63 95 122 94 20 2 3 8 8 7 13 13 11
16 14 21 20 28 28 28 29 30 30 29 30 32 33 33 33
32 33 33 33 34 33 33 34 34 34 34 33 34 34 28 22
27 30 30 14 0 0 23 31 33 34 33 33 33 34 33 33
0 41 58 41 0 0 0 10 5 0 0 15 39 34 30 16
0 0 0 1 0 0 6 15 0 0 1 3 1 0 22 34
0 0 10 5 68 91 120 126 114 92 84 81 83 91 105 121
136 139 142 140 142 140 142 143 141 139 134 124 108 116 122 139
142 107 83 108 132 121 100 15 2 7 9 8 4 5 8 13
15 16 25 23 29 30 30 31 31 31 30 32 33 33 33 33
33 34 34 34 34 34 34 34 34 34 33 34 34 34 33 33
32 31 29 16 0 1 23 32 33 34 33 33 33 33 33 33
33 46 52 40 0 0 0 10 9 3 0 15 43 34 28 15
0 0 0 2 0 0 6 14 0 0 13 14 5 0 25 29
0 0 1 11 67 109 129 131 125 110 94 89 90 92 107 122
135 141 139 140 141 141 141 142 139 139 134 134 122 126 130 134
139 54 102 139 134 117 90 2 2 9 9 6 0 4 7 11
13 15 25 26 30 30 30 31 31 31 31 32 33 32 32 32
32 33 33 33 33 33 33 33 34 34 34 34 34 33 33 33
32 30 28 21 0 3 24 32 33 34 33 33 33 34 33 33
35 41 45 42 19 11 5 12 19 12 3 12 44 30 27 16
0 0 8 13 1 0 5 15 0 4 22 18 9 0 25 28
0 3 0 28 76 122 134 134 133 120 101 92 93 98 111 124
134 138 137 140 141 141 139 137 139 139 135 141 141 138 138 135
138 120 136 141 136 116 46 0 3 7 8 5 0 0 9 7
9 18 27 27 32 31 31 31 31 30 32 32 32 32 33 33
33 33 33 33 34 33 34 34 35 34 34 33 33 33 33 33
32 30 28 22 9 11 27 33 33 33 33 33 33 32 32 32
9 23 46 44 42 48 43 38 47 43 38 39 47 27 25 15
0 5 19 22 10 2 4 23 5 11 20 18 16 1 23 27
1 3 2 39 91 124 131 135 133 123 104 96 94 102 115 123
137 136 134 133 142 140 139 138 141 136 138 140 139 139 133 136
140 141 135 136 129 100 13 0 6 5 6 7 1 0 3 6
11 14 28 27 31 32 32 30 30 31 33 32 33 32 32 32
33 33 33 33 32 32 33 33 34 33 33 33 33 33 33 33
32 29 27 23 22 22 29 33 33 33 33 32 33 33 32 33
18 30 48 44 15 9 13 24 33 44 51 53 51 30 24 15
0 5 16 19 8 2 4 46 42 45 46 42 42 39 46 28
0 0 0 31 105 125 136 134 131 126 102 96 96 104 116 129
135 137 128 125 133 140 143 143 141 139 139 139 137 139 136 137
139 138 129 130 117 53 8 0 5 6 5 12 1 4 0 4
12 16 28 28 32 32 32 31 32 32 32 32 32 32 32 32
32 33 33 33 33 33 33 33 34 33 32 33 33 32 33 31
32 30 28 26 26 28 32 33 32 34 33 32 33 32 33 32
13 36 49 45 11 1 0 2 8 2 38 53 47 28 24 17
0 1 6 1 3 0 4 45 43 49 49 47 50 55 57 35
11 14 12 43 114 128 134 125 124 126 103 93 96 107 117 128
136 137 132 129 131 142 144 143 140 138 141 140 139 137 129 131
130 133 127 116 91 46 12 0 6 8 6 16 2 5 0 7
15 19 26 27 31 31 31 31 32 32 32 32 32 33 32 32
33 32 33 32 32 32 33 33 32 33 33 33 33 33 33 31
31 30 29 27 27 32 32 33 33 33 33 33 33 34 33 33
10 31 51 45 7 0 3 22 36 12 44 51 42 28 26 24
20 1 7 2 1 0 3 44 45 48 47 46 51 58 59 48
36 37 36 73 113 128 125 125 131 131 110 86 90 102 116 128
136 138 135 130 132 142 143 143 140 140 142 138 136 132 124 125
122 115 107 114 100 51 13 4 7 3 7 13 4 5 1 8
13 18 30 28 32 32 32 31 31 32 31 32 32 31 32 32
32 32 32 32 33 33 33 32 32 33 32 33 32 33 32 32
31 31 29 29 30 33 33 34 33 32 32 32 32 33 32 32
0 32 53 47 7 0 3 8 39 29 47 48 34 26 26 26
13 0 4 0 1 0 3 42 36 41 42 42 44 43 42 41
38 39 41 78 112 129 130 136 141 142 126 82 80 90 111 125
134 135 136 134 138 141 141 143 140 139 138 135 134 126 121 120
120 113 113 120 106 60 16 5 7 3 6 9 3 2 0 5
9 19 27 25 31 31 30 31 31 31 31 31 32 33 33 32
32 32 33 33 32 32 32 32 32 33 33 33 33 33 31 31
31 31 29 30 30 30 30 30 30 31 32 32 32 32 32 31
0 33 55 49 10 0 2 2 8 19 48 50 30 28 30 25
4 0 1 1 0 0 3 46 37 38 39 40 39 37 33 36
40 41 44 78 114 138 133 128 132 136 116 84 75 77 99 116
126 134 137 133 134 141 141 143 141 138 139 135 131 125 119 118
120 119 115 122 119 72 19 5 6 5 5 8 7 0 1 5
6 17 24 27 31 31 31 31 31 32 32 31 32 32 32 32
32 32 32 32 32 32 32 32 31 31 32 32 31 30 31 32
32 32 30 31 33 32 32 32 32 32 33 32 32 32 32 32
0 35 55 50 11 0 0 0 0 10 48 51 30 29 26 27
26 21 15 13 8 5 5 48 40 39 39 38 39 39 40 43
41 42 46 68 103 123 90 55 81 105 104 101 90 81 89 112
123 127 133 135 136 140 142 143 142 136 136 132 128 124 114 113
115 115 118 124 129 72 19 6 4 3 4 10 7 2 1 7
4 16 25 25 31 30 30 31 31 32 32 31 31 31 31 32
32 32 32 31 31 31 31 31 32 32 31 32 32 33 32 32
31 32 31 32 33 32 32 32 32 33 33 32 32 32 33 32
0 33 55 51 11 0 0 0 0 3 45 52 29 29 27 34
51 52 51 48 52 55 53 55 43 42 42 41 42 43 46 50
45 44 47 57 87 117 95 108 109 107 104 104 100 99 94 103
117 126 129 131 135 143 144 143 140 135 134 126 124 120 113 108
109 116 122 128 135 80 22 7 4 1 2 6 7 4 7 13
3 11 27 26 32 31 30 30 31 30 30 31 31 32 33 33
33 33 32 31 32 32 32 32 33 32 33 33 32 32 32 32
32 33 32 32 33 33 32 32 32 32 32 32 31 31 32 31
0 31 55 49 5 0 0 0 0 7 49 55 30 29 28 35
60 61 60 60 59 59 59 59 46 42 37 40 39 42 49 53
47 45 46 47 58 82 81 77 83 90 99 98 99 101 107 109
115 123 124 132 138 142 144 144 143 140 136 128 120 115 110 104
109 120 126 132 132 88 25 5 7 1 3 6 7 7 6 12
4 11 29 26 31 31 31 31 31 31 32 32 33 33 33 34
33 33 32 32 32 31 32 32 33 32 32 32 32 32 32 32
32 33 32 33 33 33 33 32 32 32 32 33 32 32 33 32
0 31 56 50 4 0 0 0 0 6 48 53 28 28 29 31
49 51 53 54 56 58 59 60 28 12 16 8 10 13 21 42
49 46 31 16 52 78 52 52 70 81 86 82 87 91 108 119
120 125 129 135 139 142 144 145 144 142 134 128 117 112 109 109
113 124 132 137 134 98 31 4 7 1 0 7 6 6 9 11
10 17 27 27 33 32 32 33 33 33 33 33 34 33 33 34
34 34 33 33 32 33 32 33 33 33 33 32 32 31 32 33
33 33 33 34 33 32 33 33 33 33 33 33 33 33 32 32
0 31 57 50 4 0 0 0 0 3 47 49 26 29 30 26
33 34 34 33 33 33 33 38 22 1 0 0 0 0 1 30
50 39 7 1 33 77 51 47 79 96 92 88 86 88 105 122
126 128 134 137 138 143 143 144 142 139 130 122 114 110 111 112
113 126 139 142 135 108 43 5 7 2 1 4 7 11 7 8
8 19 30 28 33 33 33 33 34 33 33 33 34 33 33 34
34 34 33 34 32 32 33 33 33 34 33 31 30 29 26 24
21 26 31 34 34 33 33 34 33 33 33 33 33 33 32 32
0 30 57 52 5 0 0 0 0 2 47 53 27 28 29 29
42 43 42 41 39 37 36 39 24 10 3 0 0 0 13 33
48 23 0 0 10 67 54 57 100 113 115 104 87 70 93 116
128 129 130 137 140 140 143 145 144 140 131 117 111 108 109 114
119 127 139 141 136 118 57 11 4 2 2 2 5 16 12 10
6 21 28 28 33 32 32 33 33 33 33 33 33 33 32 31
29 27 24 22 21 23 25 32 33 33 33 21 6 6 5 5
5 9 30 34 34 34 33 33 33 33 33 33 32 33 33 32
43 51 54 48 5 0 0 0 0 3 51 57 29 26 29 29
44 45 46 44 44 44 45 45 24 7 4 0 0 0 13 33
45 13 0 0 0 50 65 75 85 83 82 77 71 51 66 101
122 122 128 136 143 145 143 143 140 136 123 115 108 108 113 116
122 132 139 143 138 119 76 22 1 0 0 2 5 13 18 6
6 19 28 28 33 32 32 32 33 32 33 33 32 13 8 8
8 8 3 3 2 0 3 28 33 32 33 19 5 5 5 6
5 9 32 34 33 34 33 33 33 33 32 32 33 32 32 32
54 51 39 29 23 19 11 10 4 6 50 51 24 25 29 31
45 46 47 46 45 45 46 46 24 5 4 0 0 8 5 23
43 7 0 0 0 22 55 59 58 35 42 77 87 99 85 85
110 122 132 136 140 141 142 138 131 125 116 111 104 109 116 120
123 133 139 143 137 120 91 39 3 0 0 0 2 6 9 3
7 19 26 28 32 31 32 32 33 32 32 32 31 5 2 7
8 9 3 2 2 1 2 26 32 32 32 18 5 5 6 5
5 8 31 33 33 34 33 33 34 32 32 32 32 32 31 32
51 51 49 45 49 50 47 48 45 44 48 44 37 35 35 28
18 19 20 22 21 24 35 50 28 1 0 0 0 10 7 18
42 5 0 0 0 2 40 30 24 43 84 102 113 119 106 96
95 114 125 134 138 137 132 131 124 119 111 111 108 113 116 117
129 133 137 142 136 121 101 72 7 0 1 0 2 5 8 3
10 21 29 28 32 31 31 32 32 32 32 31 30 6 2 6
7 9 4 2 2 0 1 22 31 31 31 15 4 5 5 5
4 6 27 33 34 34 34 32 33 32 32 31 32 32 32 31
48 47 47 47 47 46 46 46 45 45 44 44 44 43 43 42
42 41 40 35 2 1 16 52 38 14 1 0 2 7 5 16
42 4 0 0 0 0 19 43 53 69 97 113 115 111 114 112
99 108 124 128 132 129 125 123 120 109 107 99 111 116 116 123
132 133 137 140 136 122 108 89 25 0 0 0 3 1 6 2
13 21 28 27 31 31 31 32 32 32 32 32 30 7 2 6
8 9 4 1 1 0 0 24 31 31 31 17 5 4 5 5
4 4 27 33 34 32 32 32 32 31 29 29 30 31 30 31
48 48 47 47 46 45 46 45 45 45 45 44 44 44 43 43
42 41 41 40 7 0 11 49 35 6 0 0 0 8 7 16
42 3 0 0 0 0 2 46 63 67 82 86 104 114 118 117
113 111 118 122 121 121 116 115 109 108 106 107 118 117 116 124
135 138 141 142 137 122 109 97 48 0 0 1 0 3 2 6
21 22 28 28 31 30 31 31 31 31 31 32 30 8 2 5
10 8 3 1 2 0 1 23 30 30 30 21 8 8 9 10
11 10 23 31 31 31 31 32 32 32 33 30 31 31 31 31
47 46 46 46 46 45 45 45 44 43 44 43 43 43 42 42
41 41 41 40 10 0 8 44 27 0 0 0 0 0 0 15
43 3 0 1 0 0 0 27 52 33 44 80 107 115 121 120
121 119 102 113 116 113 105 102 99 102 102 113 119 120 125 126
131 136 141 143 137 124 109 100 69 4 0 0 3 5 9 17
22 24 25 25 31 30 31 31 31 32 32 31 29 8 2 5
6 7 3 1 2 0 1 22 31 31 31 24 11 12 10 9
11 11 21 31 32 33 33 32 32 31 32 31 31 31 32 31
15 16 15 15 15 15 15 15 15 16 16 17 18 18 20 20
23 33 39 40 13 0 5 37 23 0 0 0 0 1 1 13
46 6 0 0 0 0 0 12 43 49 70 91 108 119 123 124
122 119 110 106 105 102 94 88 93 99 100 111 114 118 125 127
128 136 141 143 138 125 110 103 86 9 0 0 3 4 12 24
23 25 26 26 29 29 29 30 31 30 31 31 29 9 2 2
3 2 2 1 2 0 0 21 30 31 30 22 4 5 6 5
6 6 21 32 33 33 32 32 32 32 32 31 30 30 31 31
0 0 0 0 0 0 0 0 0 0 0 0 0 0 0 0
4 38 42 39 18 0 3 34 26 5 4 3 3 10 10 14
45 25 16 15 19 18 18 21 48 59 76 96 110 122 124 126
121 112 106 96 88 88 83 91 91 97 103 110 111 113 121 130
133 136 140 141 139 125 111 105 97 29 0 0 3 5 14 23
24 25 25 26 30 30 30 31 31 32 32 31 29 9 2 2
0 0 1 1 2 0 0 21 31 32 31 22 5 5 5 5
9 5 15 25 32 32 32 31 32 31 32 31 31 31 31 31
0 0 0 0 0 0 0 0 0 0 0 0 0 0 0 0
3 41 43 38 21 0 0 29 41 41 36 33 36 38 39 42
41 54 54 49 50 52 53 53 52 55 76 91 104 117 118 111
114 103 91 82 84 77 84 92 93 94 96 102 111 117 124 126
131 138 141 143 139 125 111 103 101 54 0 0 6 5 14 23
24 24 25 26 29 29 29 30 31 32 31 30 27 9 2 1
1 4 5 2 3 0 0 20 30 31 30 24 5 4 1 0
1 0 2 0 30 32 31 32 31 32 32 30 31 30 30 31
0 0 0 0 0 1 0 0 0 0 0 0 0 0 0 0
1 39 44 38 23 0 0 26 44 45 38 38 40 37 31 33
34 49 55 52 51 50 54 55 55 53 70 76 90 101 102 98
100 93 79 72 77 75 84 87 84 90 93 100 112 119 120 123
133 141 142 141 138 124 111 103 103 72 1 5 17 7 12 22
23 24 25 26 28 29 29 30 31 31 32 30 26 10 2 2
2 3 2 1 2 0 0 19 30 32 30 24 4 5 8 1
4 3 5 0 29 31 31 31 31 31 32 31 31 31 31 31
0 0 0 0 1 1 0 0 0 0 0 0 0 0 0 0
0 38 45 38 27 0 0 21 44 39 32 35 38 39 34 32
35 32 37 38 37 36 36 35 35 39 57 65 66 79 83 86
79 71 66 63 63 67 64 64 76 84 99 109 114 120 126 132
135 144 144 142 136 125 110 103 104 86 13 16 19 7 10 20
23 24 24 26 28 29 29 30 31 32 32 28 26 11 2 1
0 0 2 2 3 0 0 19 30 31 30 24 5 5 6 2
3 1 0 1 29 32 31 32 31 31 32 31 31 31 30 30
0 1 0 0 1 1 1 0 0 0 0 0 0 0 0 0
0 36 46 38 29 0 0 18 42 25 30 29 30 37 35 32
36 27 23 24 24 25 25 25 26 32 42 53 55 57 62 61
54 49 46 45 40 37 38 47 63 81 99 106 107 120 124 132
141 144 144 143 134 123 109 103 106 94 35 24 19 13 13 21
23 23 22 24 26 27 29 29 31 31 31 28 26 12 2 1
0 1 2 2 3 0 0 17 29 31 30 24 3 4 5 9
12 8 0 0 27 31 30 30 31 31 31 30 30 30 30 30
0 1 0 0 0 0 0 0 0 0 0 0 0 0 0 0
0 33 46 38 31 3 11 28 41 9 10 11 14 17 18 18
34 30 29 30 29 37 37 35 35 38 39 40 44 44 37 35
29 30 29 26 23 30 47 52 64 78 95 98 106 121 129 140
143 145 146 142 131 120 108 103 105 97 55 44 41 40 39 38
37 35 33 29 25 26 28 29 31 31 31 28 26 12 2 1
2 2 2 2 3 0 0 17 29 31 31 24 4 2 2 5
0 0 0 0 20 10 6 5 22 31 32 30 30 30 30 31
0 0 1 0 0 0 0 0 0 0 0 0 0 0 0 0
0 29 46 37 35 29 37 41 43 3 0 0 0 0 3 7
33 33 42 47 36 50 56 34 26 27 28 27 24 25 31 29
24 14 16 18 22 40 53 56 60 77 95 108 116 125 133 140
144 145 145 144 131 118 107 102 107 101 61 38 44 43 42 40
38 37 36 34 25 24 27 29 30 30 31 27 26 14 2 2
1 1 1 1 2 0 0 17 29 30 30 25 3 1 38 51
8 0 0 0 11 26 31 26 4 29 31 30 30 30 31 30
0 0 0 0 1 1 0 0 0 0 0 0 0 0 0 0
0 26 46 37 36 45 48 50 47 4 0 0 0 0 0 5
38 32 42 46 28 43 50 16 0 0 0 0 1 25 46 35
32 22 10 22 39 50 58 64 72 82 96 107 120 129 137 141
144 145 145 144 133 117 106 102 107 104 79 22 51 43 42 40
38 36 36 34 26 21 26 29 30 30 30 27 26 13 1 1
1 1 1 1 1 0 0 15 29 30 30 27 14 12 41 46
18 0 0 12 31 31 31 30 14 21 31 30 30 30 30 30
0 0 0 0 0 0 0 0 0 0 0 0 0 0 0 0
0 23 46 36 35 46 50 52 51 9 0 0 0 0 0 1
39 29 39 42 3 4 24 16 0 0 0 0 0 21 44 35
31 43 38 42 48 53 61 68 73 87 101 111 123 134 141 141
143 145 144 144 135 116 105 101 106 106 93 15 59 47 43 41
36 36 36 34 28 19 25 27 30 30 30 28 26 15 1 1
1 1 1 0 1 0 0 15 29 30 31 30 30 14 17 8
8 0 0 13 32 31 31 30 17 15 30 28 29 29 30 30
0 0 1 0 0 0 0 0 0 0 0 0 0 0 0 0
0 20 46 37 35 33 31 30 26 3 0 0 0 0 0 2
40 30 40 42 2 3 22 18 0 0 0 0 0 15 44 35
29 42 61 58 62 65 66 73 74 86 102 112 125 137 141 138
140 143 144 144 134 117 106 102 106 109 100 20 66 60 41 40
38 35 36 34 30 16 25 27 29 29 29 28 26 15 0 0
1 0 0 1 1 0 0 14 28 28 31 30 30 17 0 0
0 0 2 13 33 32 32 31 18 17 31 31 31 30 30 30
0 0 0 0 0 0 0 0 0 0 0 0 0 0 0 0
0 17 45 36 34 16 12 15 11 0 0 0 0 0 0 2
39 29 40 42 2 2 20 20 0 0 0 0 0 11 43 36
32 38 67 72 73 72 69 70 75 86 103 115 127 136 136 135
140 144 145 143 134 118 105 101 106 109 102 20 53 71 44 37
39 36 36 33 31 14 22 24 26 28 29 28 26 16 1 1
1 1 0 0 0 0 0 14 30 30 31 20 4 16 1 0
0 0 0 8 30 30 30 29 12 23 30 29 29 29 30 29
0 0 0 0 0 0 0 0 0 0 0 0 0 0 0 0
0 13 45 37 33 19 14 16 11 0 0 0 0 0 0 3
39 28 41 41 2 2 18 23 0 0 0 0 0 8 42 42
44 33 69 77 84 82 79 78 77 79 94 113 126 131 134 137
139 143 144 144 133 120 108 101 106 109 96 12 42 70 66 40
38 34 35 33 31 15 21 25 27 29 29 27 25 16 2 2
1 0 0 0 1 0 3 17 28 29 29 17 32 48 16 0
0 0 0 8 30 29 29 25 7 29 29 29 30 29 28 29
0 0 0 0 0 0 0 0 0 0 0 0 0 0 0 0
0 11 44 36 32 22 16 19 13 0 0 0 0 2 0 0
38 28 40 40 2 2 16 22 2 0 0 1 0 6 43 51
51 32 71 78 86 92 87 84 84 81 80 100 119 128 133 135
136 141 145 145 135 118 111 102 105 110 77 10 47 94 82 65
46 36 34 34 32 17 18 24 26 27 27 27 26 25 21 19
14 12 11 6 2 2 10 16 20 19 18 11 25 24 10 0
0 0 0 2 12 12 14 5 21 14 9 18 30 29 29 29
0 0 0 0 0 0 0 0 0 0 0 0 0 0 0 0
0 11 44 36 32 25 22 22 14 0 2 0 0 6 2 0
37 29 42 42 12 5 15 25 7 3 1 4 1 6 48 55
66 43 65 85 95 97 99 94 89 86 80 82 102 117 128 135
134 138 144 145 136 119 114 105 104 109 53 15 54 97 81 73
44 53 40 34 32 22 16 23 26 27 28 27 26 24 24 22
10 2 1 0 0 0 0 0 0 0 0 0 0 0 0 0
0 0 0 0 0 0 0 0 11 7 22 14 32 31 30 30
0 0 0 0 0 0 0 0 0 0 0 0 0 0 0 0
0 9 43 36 32 25 23 23 15 2 7 0 0 9 16 2
36 30 42 39 18 11 13 23 3 9 10 5 0 5 57 58
62 50 44 89 98 106 110 108 100 93 88 83 94 112 124 131
132 138 145 145 136 118 115 109 101 102 33 22 57 74 82 89
38 32 62 50 43 25 13 22 24 26 27 26 26 25 25 23
9 0 1 3 5 7 8 9 10 10 11 12 13 14 15 17
19 21 22 21 14 0 0 21 6 4 60 41 30 31 30 35
0 0 0 0 0 0 0 0 0 0 0 0 0 0 0 0
0 8 43 37 32 27 23 23 21 4 9 5 5 13 18 13
35 33 43 37 15 22 13 22 1 9 10 3 6 36 64 62
46 56 24 83 102 108 115 119 118 110 101 96 97 111 121 124
127 139 145 146 136 116 117 116 101 84 25 33 60 88 83 96
64 15 49 52 70 51 15 21 24 26 27 26 25 24 24 23
9 0 6 17 20 21 23 23 24 24 24 24 24 24 25 26
27 28 27 24 14 0 0 7 4 0 7 5 3 2 5 49
0 0 0 0 0 0 0 0 0 0 0 0 0 0 0 0
0 7 42 36 32 27 24 22 32 37 41 43 43 44 45 47
53 42 43 35 5 27 14 29 21 23 22 28 39 39 69 67
54 84 23 55 105 112 118 122 122 119 111 101 100 110 120 123
126 136 146 145 135 115 120 121 105 65 23 40 60 91 87 98
74 64 37 34 71 80 63 27 22 25 25 26 22 6 4 3
4 0 8 18 21 23 25 25 25 26 26 26 26 26 28 29
30 30 29 26 15 0 0 0 0 0 0 0 0 0 4 48
0 0 0 0 0 0 0 0 0 0 0 0 0 0 0 0
0 6 43 37 32 27 26 24 32 48 48 49 49 49 50 50
55 51 41 35 0 12 13 28 22 23 37 40 26 50 69 70
53 91 38 33 90 114 120 126 130 129 120 107 103 110 117 119
121 134 144 145 133 115 123 125 110 49 25 52 68 99 88 101
93 72 87 28 51 85 89 71 32 24 25 25 22 0 0 0
0 0 8 17 21 25 26 26 27 27 27 27 28 28 30 31
31 31 29 27 17 0 0 0 0 0 0 0 0 0 5 44
0 0 0 0 0 0 0 0 0 0 0 0 0 0 0 0
0 5 42 37 31 27 25 23 25 48 47 46 45 44 44 43
45 45 39 35 0 5 9 30 25 39 43 30 52 65 70 68
52 63 51 31 58 111 121 130 136 136 132 119 108 109 115 116
118 130 143 145 130 116 124 131 111 36 27 65 73 79 86 107
103 83 91 73 32 72 89 84 74 36 24 33 31 0 0 0
0 0 8 17 21 25 26 27 27 28 28 28 30 30 32 32
33 32 30 28 18 0 0 0 0 0 0 0 0 29 42 43
0 0 0 0 0 0 0 0 0 0 0 0 0 0 0 0
0 5 42 37 31 28 26 25 17 15 14 13 12 12 13 14
17 17 34 35 0 3 7 31 36 44 28 49 57 63 69 70
53 71 66 36 47 84 123 132 136 141 140 133 117 110 112 110
113 129 144 144 129 117 128 140 103 27 31 72 79 78 83 109
106 78 84 88 62 39 68 82 88 65 6 6 30 42 18 0
0 1 10 17 20 23 25 27 28 29 29 29 31 32 32 33
33 33 31 29 18 0 0 0 0 0 0 0 0 36 41 40
0 0 0 0 0 0 0 0 0 0 0 0 0 0 0 0
0 4 41 37 31 27 25 24 18 14 13 13 13 13 14 15
18 17 36 36 2 2 6 37 50 31 18 57 59 65 75 72
59 77 75 48 48 63 108 130 138 142 142 139 132 120 110 102
102 125 143 143 128 119 130 142 95 28 40 69 83 91 86 111
108 80 79 91 94 41 44 59 89 89 66 23 3 16 37 48
23 5 11 17 20 23 26 27 28 29 30 31 31 32 34 34
34 33 32 31 18 0 0 0 0 0 0 0 0 36 38 37
0 0 0 0 0 0 0 0 0 0 0 0 0 0 0 0
0 4 40 37 29 27 25 25 23 20 19 17 17 16 15 15
18 19 37 38 16 24 29 51 49 18 30 60 51 59 76 73
71 64 82 63 53 62 83 126 137 141 145 145 142 136 125 104
97 121 141 141 127 122 129 140 70 39 61 86 89 84 87 112
111 83 104 89 99 86 17 49 83 94 93 87 76 69 68 46
54 57 38 24 20 22 24 26 27 29 30 31 32 33 34 34
34 33 32 32 18 0 0 0 0 0 0 0 1 36 35 34
0 0 0 0 0 0 0 0 0 0 0 0 0 0 0 0
0 5 41 36 30 26 25 24 23 21 21 21 20 21 21 20
21 20 40 42 34 46 49 68 40 10 58 50 62 60 76 75
74 54 69 70 71 68 74 99 134 141 143 144 145 142 135 110
99 118 144 141 133 122 132 118 61 62 70 84 92 87 91 109
110 82 102 78 97 101 39 27 61 91 91 90 87 81 78 79
39 53 65 61 47 26 24 26 27 28 29 30 32 32 33 33
33 33 33 32 18 0 0 10 30 10 0 0 4 33 32 32
0 0 0 0 0 0 0 0 0 0 0 0 0 0 1 1
2 10 43 37 30 26 24 24 24 23 21 21 21 21 20 21
20 18 31 37 46 39 68 75 34 28 64 51 64 58 76 79
79 57 85 70 84 76 79 85 112 139 143 145 146 145 142 117
100 112 142 144 135 124 130 85 66 80 70 83 95 78 87 108
107 82 90 73 104 108 60 18 50 74 91 89 89 88 82 83
73 29 63 69 70 60 46 30 26 27 29 30 32 32 33 32
32 33 33 32 18 0 0 16 37 10 0 0 6 33 32 32
11 12 13 15 16 17 19 20 22 23 24 26 27 28 29 29
30 30 33 31 30 27 24 21 15 22 23 31 30 26 21 21
22 32 47 58 56 48 83 72 32 38 58 53 53 69 74 77
80 65 98 77 89 85 84 91 94 122 143 145 145 145 144 124
100 111 140 145 134 126 99 67 75 90 61 77 72 84 85 109
113 94 82 78 107 107 81 57 47 67 85 88 86 86 85 81
78 63 33 78 74 73 63 63 50 39 32 30 30 31 32 32
32 32 33 33 17 0 0 0 0 0 0 0 8 33 31 31
38 37 29 17 19 24 18 15 26 34 34 33 32 32 32 31
31 30 30 30 30 25 23 8 18 17 40 35 34 35 34 29
39 52 56 62 53 68 86 74 26 59 58 56 45 50 57 79
79 70 73 81 84 74 89 96 99 102 129 146 146 145 145 129
102 108 139 145 136 113 63 65 84 96 84 91 21 43 98 107
114 96 106 82 107 104 85 92 42 73 77 88 83 84 81 80
82 80 47 62 77 73 73 65 66 60 60 54 42 32 31 31
32 32 32 32 17 0 0 1 2 0 0 0 11 32 31 30
38 15 18 33 36 35 35 32 19 14 31 33 33 32 32 31
31 30 30 30 29 25 20 8 29 41 41 26 21 44 60 58
52 52 57 60 60 79 85 67 21 71 59 59 45 61 63 76
80 79 62 77 14 32 89 97 98 100 106 134 146 145 144 138
106 105 137 145 135 87 58 76 98 97 88 81 19 4 79 104
112 89 98 80 106 102 77 74 47 64 80 83 86 82 84 83
83 81 74 36 82 72 73 69 65 64 60 61 61 57 48 33
31 31 31 32 16 0 0 0 0 0 0 0 13 31 30 29
11 31 38 37 36 36 36 35 34 30 14 29 33 32 31 30
29 27 26 23 18 30 42 17 38 41 35 9 42 57 60 60
62 54 64 68 71 85 82 59 34 71 56 75 43 43 71 61
83 81 61 31 2 9 60 97 97 101 104 115 139 146 145 143
116 104 135 144 114 56 68 91 103 79 91 88 6 0 56 105
107 94 96 82 105 100 82 94 53 56 77 78 90 82 83 85
84 83 82 52 68 77 76 71 67 71 71 65 66 64 54 45
31 31 31 32 16 0 0 0 0 0 0 0 11 31 30 30
34 35 34 33 31 30 28 26 24 21 14 7 12 10 7 6
7 9 8 1 0 21 59 38 42 46 26 24 53 57 60 65
65 61 68 64 75 81 66 56 49 47 39 57 13 28 77 55
81 82 75 5 0 14 47 91 92 99 104 113 124 141 144 143
122 104 130 129 69 74 97 99 104 80 74 25 0 0 25 106
110 97 84 77 103 101 86 108 67 56 60 77 87 86 78 85
82 81 81 77 42 83 68 73 74 67 69 74 66 68 59 49
32 31 32 33 16 0 0 0 0 0 0 0 3 28 30 29
6 10 18 21 21 21 21 21 15 7 6 6 0 0 1 3
4 1 0 0 0 15 43 43 47 51 22 29 57 62 62 66
68 65 67 63 80 63 46 57 52 45 37 58 12 29 54 53
75 84 81 4 0 5 52 79 88 101 103 114 120 133 141 143
127 101 114 85 93 102 107 109 103 82 32 0 0 0 3 90
111 98 100 91 103 101 85 110 76 54 65 60 82 87 78 82
82 81 83 83 41 80 72 81 73 82 70 76 72 70 66 57
34 33 34 35 16 0 0 0 0 0 0 0 14 14 30 30
6 13 34 39 42 43 43 47 46 45 44 38 7 2 6 3
4 0 0 0 9 41 43 43 46 54 22 24 58 63 61 68
71 67 60 70 74 50 47 35 36 36 36 56 13 38 54 77
61 83 79 4 0 5 43 82 73 99 99 116 129 130 133 136
120 99 100 95 84 64 92 64 68 73 62 25 5 1 9 31
108 99 102 91 105 101 82 104 78 58 69 58 70 87 82 80
80 78 84 84 61 51 84 84 31 40 70 69 75 68 67 63
40 33 35 38 17 0 0 6 2 0 0 0 23 10 25 29
17 24 62 62 62 60 59 55 53 49 48 40 15 0 2 5
2 0 0 3 39 49 44 43 45 58 28 22 56 65 64 66
73 68 60 77 69 50 70 60 59 48 49 49 8 42 60 78
56 82 81 5 0 8 25 74 80 73 99 107 124 129 116 100
99 99 105 91 68 86 92 67 76 95 85 97 83 52 53 14
49 98 96 94 102 100 72 78 81 73 77 78 57 74 85 81
81 80 82 84 79 33 90 77 32 24 43 67 71 71 71 68
46 37 38 42 17 0 44 114 58 0 0 0 26 24 10 29
17 19 57 50 52 54 51 49 47 42 48 45 29 2 4 0
0 0 0 23 47 52 45 46 44 56 42 28 53 67 65 61
71 69 75 84 55 60 72 63 66 51 66 51 11 55 74 67
61 76 79 2 0 30 33 55 73 62 56 80 72 98 74 42
64 94 114 94 105 99 100 88 82 99 90 109 107 96 97 43
23 49 85 85 106 101 78 106 77 77 72 70 44 51 82 89
81 79 82 86 85 43 74 84 43 26 39 67 80 81 75 68
18 3 4 3 1 0 78 146 74 0 0 0 28 28 12 22
43 42 52 66 69 67 65 63 54 44 41 35 10 0 8 12
6 0 8 39 48 55 44 47 44 53 57 36 54 64 68 63
67 72 75 72 45 41 53 55 61 60 85 85 35 68 96 60
59 70 73 13 8 45 45 43 70 59 56 44 71 85 82 29
29 84 112 88 109 115 105 98 89 96 91 109 109 99 105 79
55 41 52 78 101 100 79 112 61 59 60 47 71 74 66 91
85 78 83 88 83 67 53 86 37 24 43 67 82 84 78 66
8 0 0 0 0 0 15 29 11 0 0 2 28 28 24 6
32 32 37 46 44 41 40 37 30 25 23 10 0 19 68 70
9 5 36 40 52 60 46 46 45 49 66 42 56 64 63 62
71 73 80 66 55 35 26 30 56 91 110 110 78 61 105 75
76 75 91 69 53 86 79 88 78 100 57 51 42 69 78 47
38 108 103 86 116 118 101 101 74 82 93 108 105 104 108 74
78 90 66 63 105 100 81 111 58 52 48 58 74 81 63 75
87 76 88 91 88 86 66 91 53 23 44 67 82 82 75 65
28 0 0 0 0 5 0 0 0 0 0 3 24 18 3 4
33 35 35 36 36 36 36 31 23 21 21 8 1 7 16 26
3 34 41 42 55 61 51 45 47 47 70 68 58 64 68 72
76 76 69 64 62 59 48 51 64 98 107 113 83 60 105 90
83 92 93 98 90 97 91 90 105 83 92 75 60 57 60 54
71 106 84 83 121 114 113 97 72 80 96 110 103 108 111 90
87 110 116 93 80 105 78 87 51 56 64 69 77 26 45 63
87 76 88 91 91 89 74 79 50 29 41 59 78 82 76 64
64 37 3 0 0 5 0 0 0 0 0 0 4 6 21 23
20 19 16 14 11 8 25 28 22 21 21 18 23 0 2 4
23 43 41 45 61 65 62 45 46 47 71 77 78 76 79 87
84 67 66 62 65 61 53 56 81 103 113 116 86 63 111 100
72 72 109 105 94 82 101 87 117 93 74 76 73 48 67 57
105 96 90 86 118 119 118 89 94 95 102 114 101 109 110 96
91 114 122 121 105 108 73 53 52 54 68 76 52 17 36 58
86 74 91 88 93 91 78 65 44 30 42 53 70 78 75 57
59 65 49 0 0 0 0 0 0 0 0 0 0 0 11 13
0 0 0 0 0 0 9 9 3 7 9 4 5 2 13 9
39 42 41 50 62 64 63 51 45 48 70 80 81 86 78 77
68 65 64 59 64 61 51 56 79 105 110 112 81 69 108 108
61 80 116 108 100 83 113 83 119 113 90 67 73 38 63 70
110 94 92 93 122 117 119 86 94 92 104 113 99 110 110 97
91 117 123 123 119 115 68 53 28 68 88 42 58 44 35 67
83 78 95 85 92 94 77 47 40 31 46 49 68 76 72 26
27 66 76 25 0 0 0 0 0 0 0 0 0 0 0 0
0 0 0 0 0 0 0 0 0 0 0 0 0 0 25 46
39 41 40 52 67 70 66 58 41 46 67 80 79 82 69 62
72 74 64 55 66 60 51 57 77 106 113 106 80 87 113 71
71 94 112 116 110 76 91 82 116 114 113 81 64 55 37 88
114 102 85 104 118 116 107 85 107 105 101 110 98 115 109 105
96 117 120 121 122 116 86 99 66 114 103 50 63 62 37 72
71 86 96 86 85 84 83 36 36 32 51 51 62 75 66 12
0 6 48 71 10 0 0 0 0 0 0 0 0 0 0 0
0 0 0 0 0 0 0 0 0 0 8 15 27 53 49 43
41 41 42 56 67 63 59 61 47 42 67 77 74 66 64 78
86 81 70 54 64 58 51 58 72 104 112 99 77 101 81 46
96 96 114 120 118 83 96 75 110 113 120 104 67 56 46 78
119 103 92 112 112 106 105 83 107 97 108 113 97 118 109 95
90 121 122 123 124 118 86 116 80 115 105 48 64 68 39 72
56 88 94 94 80 84 63 21 34 35 53 53 58 74 61 25
2 0 2 50 60 4 0 0 0 0 0 0 0 0 0 0
0 0 0 0 0 0 2 5 10 16 24 30 61 16 26 44
41 40 45 58 66 65 73 71 50 43 62 65 65 73 74 84
77 77 65 54 64 61 54 63 65 94 114 108 104 100 81 86
86 97 106 117 121 84 109 84 104 116 122 109 60 59 79 92
114 93 78 117 118 106 109 84 92 91 112 111 99 117 101 97
91 124 119 122 126 119 89 115 86 122 107 53 66 73 50 63
54 76 89 85 88 89 48 11 23 37 52 57 56 71 58 37
33 3 0 4 57 35 0 0 0 0 0 0 0 0 0 0
0 0 3 9 15 26 35 27 25 27 33 67 22 1 46 42
46 40 50 58 67 71 74 70 57 49 50 70 78 72 78 83
71 70 68 61 63 62 54 67 56 80 115 117 117 112 86 116
82 98 103 120 119 90 97 90 90 111 113 108 60 60 68 105
108 83 80 123 126 113 112 82 109 95 109 107 104 118 101 112
93 125 122 125 125 120 85 88 87 121 111 61 67 75 63 52
70 80 81 81 94 96 80 14 7 35 52 55 52 68 56 47
45 31 1 0 18 63 3 0 0 0 0 0 0 0 0 0
