P2
128 120
154
47 46 46 46 45 45 45 44 44 43 43 43 42 42 41 41
41 39 39 38 37 37 36 36 35 35 34 33 33 32 32 31
30 30 30 29 28 27 27 26 26 25 24 24 24 23 23 22
22 22 21 21 21 20 20 19 19 19 18 19 24 24 24 23
18 9 19 25 21 20 19 19 17 16 15 13 14 13 12 8
9 11 14 15 18 18 19 20 20 21 21 21 21 21 21 21
22 23 23 24 24 24 25 25 26 26 26 26 27 27 30 28
29 29 29 30 30 31 30 30 31 31 32 32 32 32 32 34
46 46 46 45 45 45 44 44 44 43 43 43 43 42 42 40
40 39 38 38 37 36 36 36 35 35 34 33 34 33 32 31
30 30 30 28 28 27 27 27 27 26 25 25 25 24 24 22
22 22 21 21 20 20 20 19 19 19 20 21 25 25 26 25
20 11 18 26 21 20 19 18 18 17 16 15 14 14 14 11
10 11 15 17 19 19 20 20 20 21 21 21 22 23 24 23
24 24 24 24 24 25 25 25 26 27 26 27 28 28 30 28
29 30 31 30 31 31 31 31 31 32 32 32 33 33 33 35
47 46 46 46 46 45 45 45 44 43 43 42 42 41 40 40
40 39 38 38 38 38 37 36 35 35 34 34 33 33 32 31
31 30 30 29 29 28 28 27 27 26 25 25 25 24 24 24
23 23 22 22 21 21 21 20 20 19 20 21 26 26 26 26
20 13 17 27 22 21 21 20 20 18 17 17 15 15 15 11
11 13 17 19 19 20 20 21 21 22 23 22 23 23 23 24
23 24 25 25 25 26 27 27 26 27 27 28 28 28 30 28
29 30 30 31 31 31 31 31 33 33 33 33 34 34 32 31
46 46 46 46 45 45 45 44 44 44 43 43 42 42 40 40
40 39 39 38 38 37 36 35 35 35 35 34 33 33 33 32
31 31 30 29 29 28 28 27 27 27 26 25 26 25 24 24
23 23 22 22 22 21 20 20 20 20 21 22 27 26 27 27
20 16 16 27 23 21 21 19 19 18 19 18 16 15 15 13
13 14 17 19 19 20 21 22 22 22 23 24 23 24 24 24
24 25 25 25 25 25 26 26 26 27 27 28 28 29 30 29
30 30 31 31 31 31 29 32 33 32 31 31 31 32 34 34
46 45 46 45 45 45 45 44 44 43 43 42 41 41 41 40
40 40 39 38 38 37 37 37 36 35 35 33 33 33 32 32
31 30 30 29 29 28 28 27 27 26 26 25 25 25 24 24
24 23 23 23 22 21 22 21 21 21 21 23 27 27 27 26
20 16 15 27 23 21 21 21 20 19 18 18 16 16 16 14
14 15 18 21 22 22 22 22 22 23 23 23 23 23 24 24
24 25 25 25 26 26 27 27 27 28 28 28 29 29 30 29
30 30 31 31 32 31 30 30 31 32 34 33 34 34 34 33
45 45 45 45 44 44 44 44 44 43 43 42 42 42 41 41
40 40 39 38 38 37 36 36 35 35 35 34 33 33 33 32
32 32 30 30 30 29 29 28 27 27 27 26 25 26 25 24
24 23 23 22 22 21 21 21 21 21 22 24 28 28 28 28
21 17 15 27 22 20 20 21 20 19 18 19 17 18 17 15
15 16 20 22 22 22 22 22 22 23 24 24 24 24 24 24
25 25 26 26 26 27 26 27 27 28 28 28 28 29 30 30
30 29 29 28 29 31 32 34 32 32 32 33 34 33 33 33
45 45 45 45 45 44 44 43 43 42 42 41 41 41 41 40
40 39 39 39 37 37 36 36 35 35 35 34 33 32 32 32
31 30 30 30 29 29 28 28 27 27 27 26 26 26 24 24
24 24 23 23 22 22 22 21 21 21 22 23 28 28 28 27
22 16 11 24 23 21 21 21 21 20 19 20 17 18 17 16
15 17 20 21 22 22 22 23 23 23 24 24 24 24 24 25
25 25 26 26 26 27 27 28 28 28 28 29 28 29 27 26
28 28 30 31 31 32 32 33 33 32 33 33 33 33 33 33
44 45 45 45 44 44 43 43 43 43 42 42 42 41 41 40
40 39 39 38 37 37 37 36 35 35 34 34 34 33 33 33
32 31 31 30 30 29 29 28 27 27 26 26 26 25 25 24
24 24 23 23 23 22 22 22 22 22 23 24 29 28 29 28
21 14 7 23 25 23 22 22 21 20 20 20 18 19 18 18
16 19 22 23 22 22 22 23 24 24 23 23 24 25 25 26
26 26 26 27 27 27 27 27 28 27 26 26 27 27 29 30
30 31 32 32 33 32 33 34 33 33 32 32 34 33 33 33
45 44 44 45 44 44 43 43 43 43 42 42 41 41 40 40
39 39 39 38 37 37 37 36 36 35 35 34 34 33 33 32
32 31 31 30 30 29 28 28 28 27 27 27 26 26 25 24
25 24 23 23 22 23 23 22 22 22 23 25 29 29 29 27
22 15 14 26 25 23 23 23 22 21 21 22 19 19 18 18
16 19 22 23 23 23 23 24 24 24 25 25 24 24 25 26
26 26 26 27 27 27 27 26 26 27 28 29 29 30 30 30
30 31 31 32 32 32 33 34 33 33 34 33 33 33 34 33
48 45 45 44 44 44 43 43 43 42 42 42 41 41 40 40
39 39 38 37 37 37 37 36 36 35 35 34 34 34 34 33
33 32 31 31 30 29 29 29 28 27 27 26 26 26 26 25
25 25 24 24 23 23 23 23 23 23 24 25 29 30 29 28
23 16 18 24 26 24 24 23 22 21 21 22 19 19 19 18
16 20 23 23 24 23 23 25 24 24 25 25 25 25 26 27
26 26 27 27 27 27 27 28 28 28 29 29 29 30 30 31
31 31 32 32 32 33 33 34 33 33 34 33 33 34 34 33
61 62 63 60 54 47 44 43 43 43 42 41 41 40 40 40
39 38 38 38 38 37 37 36 36 36 35 34 34 33 33 32
32 31 30 31 30 30 29 29 28 28 28 26 26 26 26 25
25 25 25 24 24 23 23 22 22 23 24 24 30 29 29 29
23 17 21 22 26 24 24 23 23 22 22 23 19 20 19 19
16 20 23 23 24 24 25 24 24 25 26 26 25 25 25 25
25 26 27 27 27 28 29 29 29 29 29 30 30 30 30 31
31 31 32 32 31 32 33 34 32 33 33 33 34 34 33 33
34 45 54 58 59 53 43 43 42 43 42 42 42 41 41 40
39 39 38 38 37 37 37 36 36 35 35 35 34 34 33 33
32 32 32 31 30 30 29 29 28 28 27 27 27 26 26 26
26 25 25 25 24 24 24 23 23 23 23 25 30 30 30 29
24 19 23 21 27 25 25 24 23 22 21 23 20 21 20 20
17 21 24 24 24 25 25 25 25 25 25 25 24 25 26 26
26 27 27 28 28 29 28 29 29 29 29 29 30 30 31 31
31 32 32 33 33 33 33 33 33 34 33 33 33 34 33 33
0 0 1 26 60 53 44 43 43 42 42 42 41 41 41 40
39 39 39 39 38 38 38 36 37 36 36 35 34 34 33 33
32 32 32 31 30 30 30 29 29 28 29 28 28 27 27 26
26 25 25 25 24 24 24 24 24 24 25 26 31 31 30 31
24 20 25 20 27 25 25 24 24 23 23 24 20 21 21 20
18 21 23 25 25 25 25 25 25 25 26 26 26 27 27 27
28 28 28 28 28 29 29 30 29 30 30 30 30 31 31 31
32 32 33 33 33 33 34 34 34 34 34 34 34 35 35 34
0 0 0 23 60 53 43 43 43 43 42 42 42 41 41 40
40 40 39 39 38 38 38 37 37 36 36 35 35 35 34 34
33 33 33 31 31 31 30 30 29 29 29 28 28 27 27 27
26 26 26 26 25 25 25 24 24 24 25 26 32 32 32 31
25 20 27 20 28 26 26 25 24 23 22 24 21 21 21 21
18 22 24 25 25 26 26 26 27 27 27 27 27 27 27 27
27 28 29 28 29 30 30 30 29 30 31 30 31 32 31 32
32 33 33 33 33 33 33 34 34 34 35 34 35 34 35 34
0 0 0 23 60 53 43 43 43 43 42 42 42 41 41 40
40 40 40 39 38 38 38 38 37 37 36 35 35 34 34 34
33 32 32 32 31 31 31 31 31 30 29 29 29 28 28 27
27 26 26 25 25 25 25 25 24 24 26 27 32 33 32 32
26 21 29 19 28 27 26 25 25 24 24 25 22 22 22 22
18 21 23 25 26 26 27 27 27 27 27 28 28 28 28 28
28 28 29 29 29 29 30 30 31 30 31 31 32 31 32 32
32 33 33 33 34 33 34 34 35 35 35 35 35 34 34 33
0 0 0 23 59 53 43 43 43 42 43 42 42 41 41 41
41 40 40 39 39 38 38 37 37 37 36 36 35 35 35 33
34 33 33 32 32 32 31 31 31 30 30 29 30 28 28 28
28 27 27 26 26 25 26 25 25 26 27 28 32 33 33 32
26 21 30 20 29 28 26 26 25 24 25 26 22 23 22 22
19 24 26 27 27 27 28 28 28 27 27 27 28 28 28 28
28 29 29 30 30 30 31 31 31 31 31 31 32 31 32 32
33 33 33 34 34 34 33 35 34 33 33 34 34 35 36 35
2 0 0 23 59 52 43 44 44 44 43 43 42 42 42 41
41 41 40 39 39 39 38 38 37 38 37 36 36 35 34 34
34 33 33 33 32 32 32 32 31 31 31 30 30 29 29 28
28 28 27 27 26 26 26 26 26 27 27 29 34 34 33 33
27 23 30 21 29 27 28 26 25 25 25 27 23 23 23 23
20 25 26 27 27 28 28 28 28 28 28 28 29 29 29 29
28 29 29 30 31 31 30 31 31 32 32 32 33 32 33 33
34 33 34 34 33 33 33 33 34 36 35 35 36 35 35 36
7 0 0 26 60 51 43 44 43 43 42 42 42 42 42 41
41 40 40 40 39 39 39 38 38 37 37 37 36 35 35 35
34 34 33 33 33 32 32 32 31 31 30 30 29 29 28 29
29 28 28 28 27 27 26 26 26 27 27 28 33 34 33 33
27 22 31 22 30 27 27 26 26 26 25 26 23 24 24 23
20 25 26 27 28 28 28 28 30 29 29 29 29 29 28 29
30 31 31 31 31 32 31 33 32 32 32 32 33 32 33 32
32 32 33 33 34 35 35 35 35 36 36 35 35 36 35 35
14 0 0 26 58 50 43 44 43 44 43 43 43 42 41 41
41 40 41 40 39 39 39 38 38 37 36 36 36 36 35 35
34 34 34 33 32 33 32 32 32 31 31 31 30 30 29 29
28 28 28 27 27 27 27 26 27 27 28 29 35 34 34 34
27 22 31 23 28 26 27 27 27 26 25 27 23 25 25 24
20 25 25 28 27 28 28 28 29 29 29 29 29 30 30 30
30 31 31 31 31 31 32 32 32 32 31 31 32 32 32 33
35 35 34 36 35 35 35 35 35 36 36 35 36 35 36 35
11 1 0 27 58 50 44 44 44 43 44 43 42 42 42 41
41 41 41 40 40 39 39 39 38 37 37 36 36 36 35 35
34 34 34 33 33 33 33 32 32 31 31 30 30 30 29 29
29 29 29 28 28 28 28 27 27 27 28 29 34 34 34 33
27 22 31 25 27 28 28 28 27 26 26 26 24 24 24 24
19 26 26 28 29 28 29 29 30 29 30 29 29 30 30 30
30 31 31 31 32 32 32 31 31 32 31 33 33 33 33 35
34 34 35 35 35 35 35 36 35 36 36 35 35 35 36 36
9 10 8 29 57 49 43 44 43 44 44 43 42 41 42 41
41 40 40 39 39 38 38 38 37 37 38 37 36 36 36 35
35 34 34 33 33 33 32 32 32 31 31 31 30 30 29 30
29 29 28 28 28 27 27 26 27 27 28 29 35 35 35 34
28 22 31 27 26 29 28 27 27 26 26 25 24 25 25 24
20 27 26 28 29 29 29 30 30 29 30 30 30 30 31 31
31 31 31 30 31 31 32 32 32 32 32 33 32 33 33 36
35 35 35 35 36 35 36 35 35 34 35 35 36 36 35 36
12 7 18 40 58 49 44 44 44 43 43 42 42 42 42 41
41 40 40 40 40 40 39 38 38 38 37 36 36 36 35 35
35 34 34 33 33 32 32 32 32 32 31 30 30 30 30 29
29 29 29 28 28 27 28 27 27 27 27 28 33 34 34 33
27 21 31 30 24 30 29 28 28 27 26 25 24 24 25 24
20 26 25 29 29 29 30 30 31 30 30 30 30 29 30 30
30 31 31 32 32 32 32 33 31 33 34 33 33 33 33 35
34 34 34 35 35 35 35 35 35 36 35 35 35 36 36 35
49 47 42 46 54 48 44 44 43 43 43 42 43 42 42 41
40 40 39 39 38 39 38 38 37 37 37 37 36 36 36 35
35 35 34 33 33 32 33 32 32 31 31 31 31 31 30 30
29 29 28 27 27 25 25 23 24 25 25 27 32 34 34 33
28 21 31 32 22 29 28 27 27 26 26 25 25 25 26 24
21 27 25 29 29 30 29 29 29 30 29 29 29 29 30 31
31 31 31 31 31 31 32 32 32 32 33 34 33 34 33 35
34 35 35 35 35 35 35 35 35 35 35 35 35 35 35 34
42 44 45 46 46 45 44 44 44 43 43 42 42 42 41 41
40 41 40 39 39 39 39 38 38 38 37 37 37 35 35 35
34 35 34 34 34 33 32 32 33 32 32 31 31 31 30 29
29 29 29 28 26 25 25 26 25 24 26 27 32 33 34 33
28 21 31 34 22 30 29 29 28 27 26 25 26 25 25 25
21 28 26 30 29 30 29 29 29 30 30 30 30 31 30 31
31 31 31 32 32 32 33 33 33 33 33 34 34 34 34 35
33 34 34 34 35 35 35 35 35 35 36 35 36 35 36 36
28 32 37 42 46 46 45 45 44 44 43 43 43 42 42 41
41 40 40 39 39 39 39 38 38 38 38 37 36 36 36 35
35 35 35 34 34 33 33 33 33 32 32 32 31 31 31 30
30 32 25 23 19 19 18 20 23 22 23 25 27 27 28 31
26 21 30 34 21 29 29 28 28 27 27 25 26 26 26 25
22 28 25 29 30 30 30 30 31 31 31 31 30 31 32 31
32 32 32 32 32 32 32 33 33 34 34 34 34 34 34 35
35 34 35 35 35 35 35 34 35 35 35 36 35 36 36 36
19 19 19 20 22 27 32 37 42 44 44 43 43 43 42 41
41 41 40 41 40 39 39 39 39 38 38 37 37 36 36 35
35 35 35 34 34 34 33 33 33 33 32 32 32 31 31 31
31 28 25 17 12 10 13 11 6 7 5 7 7 10 13 16
20 20 29 34 22 30 30 29 28 28 27 27 26 26 26 26
21 28 26 30 31 30 31 31 31 31 30 31 31 32 31 32
32 32 32 32 33 33 33 34 34 34 34 34 35 34 34 35
35 34 35 35 35 35 35 35 35 35 36 36 37 37 37 36
20 19 19 20 19 19 20 20 18 22 26 30 35 40 42 42
42 41 41 40 40 40 39 39 39 39 38 38 38 37 37 36
36 36 35 34 35 34 34 33 33 33 33 32 32 32 32 32
29 27 18 3 1 3 1 3 6 6 2 0 1 5 8 11
11 11 25 33 23 28 30 29 29 27 27 26 28 26 27 27
23 29 27 31 31 31 31 31 31 31 32 31 31 32 32 32
34 32 33 33 33 33 33 33 34 34 34 34 35 35 35 36
36 35 36 36 37 36 36 36 36 36 35 34 33 33 34 35
31 27 23 21 20 19 20 19 19 20 19 19 15 17 20 34
42 42 42 41 40 40 40 39 39 39 38 37 37 37 37 36
36 36 36 35 35 34 35 34 34 33 33 32 32 32 32 29
28 22 9 1 1 0 0 2 0 4 7 4 1 0 0 2
8 10 12 21 20 28 31 30 29 29 28 27 28 26 27 27
23 29 27 31 31 31 31 31 31 31 31 32 32 32 32 32
34 33 33 34 33 34 34 34 35 35 35 35 36 36 35 36
35 35 35 36 36 36 35 34 35 34 35 36 37 37 36 35
61 57 54 36 25 26 20 19 18 19 19 21 13 9 18 31
43 41 41 41 40 40 40 39 39 39 39 38 38 37 38 37
37 36 36 36 35 34 34 34 34 33 33 31 31 32 28 28
26 17 1 1 3 0 0 0 7 5 5 9 8 2 1 0
0 5 9 11 13 23 29 29 30 29 28 27 29 27 27 27
24 29 27 32 32 32 31 31 32 32 32 32 32 33 33 33
34 33 34 34 33 34 34 34 34 35 35 35 36 36 36 35
36 35 35 35 35 35 36 36 37 35 35 36 36 36 35 35
63 61 59 41 36 42 47 43 33 27 22 18 16 17 18 30
42 41 41 41 40 39 37 38 39 39 39 38 38 37 37 37
37 36 36 36 35 35 35 34 33 37 40 34 30 30 29 24
19 7 0 0 0 2 7 0 1 9 9 11 9 8 8 2
0 0 1 6 10 14 25 29 30 29 28 28 28 27 28 27
23 29 27 31 31 31 32 32 32 32 32 33 33 33 34 34
35 34 33 34 34 33 35 34 35 35 34 34 34 34 35 35
34 35 35 35 35 34 35 35 38 35 36 36 36 36 36 36
62 62 61 44 43 47 52 50 42 54 53 50 32 16 19 30
43 42 41 41 40 39 46 50 47 45 43 40 39 37 37 37
37 37 37 35 35 34 35 34 32 42 43 39 33 28 22 18
10 2 0 0 3 13 21 18 12 8 10 11 13 9 14 12
5 3 0 2 8 10 15 26 30 29 29 29 28 27 28 27
25 30 27 31 32 32 32 32 32 33 32 33 33 33 33 34
35 34 35 34 34 34 35 34 34 35 35 35 36 35 34 35
35 35 35 35 35 35 35 35 37 35 35 35 35 35 35 36
37 46 56 47 47 49 53 54 53 58 58 58 41 16 21 33
43 42 42 42 41 40 49 53 51 51 46 45 43 43 40 38
37 37 37 36 34 35 35 34 33 40 37 28 23 21 20 14
3 0 11 30 42 45 51 38 27 20 18 20 12 13 17 16
10 8 6 0 3 7 10 15 29 30 29 29 29 27 28 27
25 29 27 31 32 32 33 33 33 33 34 34 34 34 34 33
34 33 32 33 34 34 35 36 35 33 35 35 36 35 35 35
36 35 35 35 36 35 35 35 37 36 36 37 36 36 35 36
9 0 34 49 49 51 55 54 57 58 58 59 45 17 21 38
46 44 44 42 41 40 49 54 52 48 46 46 48 51 48 44
44 42 39 36 35 35 34 32 30 30 22 13 1 0 0 4
6 33 67 72 71 68 69 65 52 34 21 19 23 14 14 18
16 7 8 9 2 3 7 6 19 29 29 29 28 28 28 28
26 30 28 32 33 33 34 33 33 33 33 33 33 33 32 32
33 34 34 34 34 34 35 35 36 35 35 35 35 36 36 35
35 35 35 35 36 36 36 36 37 35 36 36 36 36 35 36
19 7 38 48 49 50 49 54 56 57 58 58 47 18 21 40
48 45 45 45 45 43 47 41 47 49 49 51 52 53 48 40
43 46 45 43 42 41 38 32 25 18 4 1 0 0 0 5
44 69 79 85 85 76 73 76 68 62 44 26 15 18 15 20
18 19 9 9 6 1 2 6 11 27 30 31 29 28 28 28
26 30 27 33 33 32 33 33 33 33 33 33 33 33 34 34
34 34 34 34 34 34 35 35 36 35 35 35 36 36 36 36
35 36 35 35 35 35 36 36 37 36 35 36 36 35 35 35
22 13 40 44 17 28 38 49 55 56 56 54 46 18 21 39
51 40 39 44 48 49 51 3 1 15 34 40 44 49 48 14
2 9 18 29 34 37 40 32 23 10 0 0 0 0 5 45
68 79 90 96 93 87 77 72 69 64 59 49 30 16 15 19
17 18 24 11 4 1 0 4 13 18 28 30 29 28 29 28
27 29 27 32 32 32 33 32 33 33 33 33 32 32 33 33
33 34 34 34 35 35 35 34 36 35 35 35 34 35 35 35
35 35 35 35 36 34 35 34 36 37 35 35 35 34 35 35
15 12 41 40 0 1 5 8 14 24 25 38 48 19 20 36
49 47 45 38 46 53 54 3 0 3 14 18 16 16 44 11
0 0 0 0 1 4 10 14 11 0 0 0 0 3 45 65
75 87 89 86 86 87 93 93 86 84 85 80 58 29 14 10
14 15 17 25 14 5 0 1 7 13 23 29 29 28 28 28
26 28 26 31 32 31 32 32 33 33 33 33 33 33 33 33
34 33 33 33 34 33 33 33 36 34 34 34 34 34 35 35
35 35 35 35 34 34 35 35 35 36 36 35 35 34 34 35
0 0 40 40 0 0 0 0 0 0 0 11 49 19 20 11
16 25 37 47 51 54 54 5 0 1 8 11 15 15 42 12
0 0 0 0 0 0 0 0 0 0 0 0 0 33 61 68
80 82 80 70 68 93 110 113 107 106 109 89 58 29 14 11
7 13 10 13 26 14 6 0 1 4 18 29 27 28 28 27
26 28 26 32 32 32 32 32 32 32 32 32 31 32 32 31
33 33 33 33 33 33 34 33 36 34 34 34 33 33 34 33
33 34 33 33 34 34 34 34 35 35 35 33 34 34 34 33
0 0 40 38 1 4 0 0 0 0 0 12 48 18 19 4
0 0 0 2 10 20 38 7 0 0 4 1 6 7 39 14
1 0 0 0 0 0 0 0 0 0 0 0 7 55 63 69
76 65 36 20 30 57 98 118 120 113 117 101 60 30 13 7
9 7 5 3 3 3 8 11 1 0 7 28 28 28 28 28
26 27 27 31 32 32 32 31 32 33 32 32 32 32 32 32
33 33 32 33 33 34 33 33 34 33 34 34 33 34 33 34
34 34 34 33 34 34 34 34 35 34 35 34 34 35 34 34
0 0 41 37 1 6 0 25 2 0 0 13 49 18 19 3
0 0 0 0 0 0 15 8 0 0 0 0 0 7 36 11
0 0 0 2 5 0 0 0 0 0 0 0 18 37 30 20
11 4 3 4 8 23 59 113 124 121 111 51 20 8 0 0
0 0 0 0 6 27 17 4 5 1 2 20 27 27 28 27
26 27 26 32 33 33 32 32 32 32 32 32 32 32 32 32
33 34 34 34 34 34 34 34 35 33 34 34 34 34 34 34
34 35 34 35 35 35 35 35 36 33 35 34 35 35 35 34
3 0 41 35 2 6 0 13 20 0 0 14 48 19 20 3
0 0 0 0 0 0 13 7 0 0 0 0 0 8 43 14
0 0 0 6 16 3 0 0 0 0 6 10 7 7 35 11
0 0 0 0 0 1 8 32 71 57 30 6 0 0 0 0
0 0 0 0 48 133 95 2 3 4 0 7 26 28 29 28
27 27 27 32 32 33 33 32 33 33 33 33 33 33 33 33
33 33 34 34 34 34 34 35 34 34 34 35 34 35 35 36
36 36 35 35 35 35 34 34 34 36 36 36 36 35 35 35
0 0 41 33 1 6 2 9 8 0 0 15 46 18 20 4
0 0 1 2 0 0 11 5 0 0 0 0 0 5 44 15
0 0 1 8 15 8 1 0 0 0 9 15 3 56 128 6
0 0 0 0 0 0 0 8 12 12 10 3 0 0 0 0
0 0 0 0 0 2 1 2 1 4 0 0 19 29 29 28
27 27 28 32 33 33 33 33 34 33 33 33 33 33 33 33
34 34 34 35 35 35 35 35 36 34 35 36 35 36 36 36
34 34 35 36 35 36 36 35 36 36 35 35 35 35 35 33
1 0 42 29 0 2 3 0 5 0 0 17 46 18 20 4
0 2 4 19 0 0 10 5 2 3 0 0 0 7 44 16
0 0 0 9 13 7 0 0 0 0 4 13 8 125 46 0
0 0 0 22 51 1 0 8 18 38 20 5 0 0 22 62
7 0 0 0 0 0 0 1 0 0 0 0 7 25 28 29
28 27 28 32 33 32 33 33 34 34 33 33 34 33 34 33
34 34 35 35 35 35 35 35 35 34 34 35 35 36 36 36
37 37 36 35 35 36 35 35 36 36 35 36 35 35 35 35
0 0 41 28 0 2 12 0 0 0 0 17 43 18 20 4
11 13 6 4 0 0 9 6 2 0 0 0 2 8 43 18
0 3 2 6 11 3 0 0 0 0 2 0 46 105 2 0
0 0 29 72 22 0 0 10 46 83 70 11 1 17 72 23
0 0 0 0 0 0 0 1 1 0 0 0 3 23 29 29
28 28 28 32 33 33 34 33 35 34 34 33 33 34 34 33
34 34 35 35 34 35 35 34 34 36 35 35 35 35 35 35
36 35 36 36 36 35 36 35 36 36 35 35 36 36 36 35
49 43 50 38 8 4 8 6 3 0 0 20 43 19 20 5
12 0 0 5 3 0 10 7 0 0 1 0 0 23 46 24
4 1 3 0 0 0 0 0 0 0 2 0 55 24 0 0
0 21 55 6 0 0 1 17 75 96 93 45 6 51 22 0
0 0 0 0 0 2 0 1 1 0 0 1 2 20 29 29
28 27 29 33 34 33 33 34 34 33 34 34 33 34 34 34
35 34 35 35 35 34 35 35 35 35 35 36 36 36 37 36
38 36 36 36 36 35 36 36 36 35 35 36 36 36 36 36
52 56 46 71 56 31 42 41 46 42 37 40 36 19 19 5
3 0 0 0 2 0 14 39 26 15 17 9 1 1 45 48
43 39 34 23 9 0 0 0 0 0 1 2 66 2 0 0
0 11 3 0 0 0 3 40 91 113 115 87 17 4 0 0
0 0 0 0 0 2 1 2 0 0 0 0 4 14 29 28
28 27 29 32 34 33 33 33 34 34 34 34 35 34 34 34
34 34 35 35 34 35 35 35 35 35 35 37 36 36 36 36
37 36 36 36 36 35 37 36 36 35 34 33 37 34 35 33
2 35 71 73 46 34 48 55 58 55 55 54 36 19 20 4
0 0 0 0 0 0 17 59 53 44 48 48 47 40 57 37
17 19 23 21 13 0 0 0 0 0 1 10 49 0 0 0
0 0 0 4 3 0 14 76 113 129 134 113 69 12 3 19
10 0 0 0 0 1 4 5 0 0 0 2 7 8 28 30
28 27 29 32 34 33 33 33 34 34 33 33 34 35 35 34
36 34 35 35 34 35 35 35 35 35 35 35 36 36 36 36
37 36 35 33 33 32 33 34 35 35 34 33 31 28 25 21
0 39 71 69 40 37 47 53 56 55 58 57 37 19 20 5
0 0 0 0 0 0 18 62 44 49 54 56 60 49 49 32
15 16 16 12 5 0 0 0 0 0 0 4 8 0 0 16
0 0 22 95 22 3 45 99 122 139 142 135 106 50 15 58
9 0 0 0 0 2 6 29 4 4 1 4 8 5 24 29
27 26 29 32 34 33 33 33 34 34 34 34 34 34 34 33
36 34 35 34 34 35 36 35 35 34 35 35 35 34 36 35
36 35 34 37 35 29 29 25 22 19 16 15 15 14 14 15
0 39 66 57 22 24 38 46 49 53 55 58 37 20 21 34
38 29 19 10 3 0 19 51 39 51 54 56 61 54 44 32
16 17 16 13 3 0 3 0 0 0 5 6 0 0 17 66
0 0 48 12 4 17 94 112 129 144 145 140 137 109 54 24
20 15 16 18 24 34 48 75 16 3 4 6 4 5 20 29
29 27 31 32 34 33 33 33 33 33 32 33 33 33 32 32
35 34 35 34 36 35 35 35 36 36 37 37 36 34 31 30
27 23 21 27 34 15 11 13 15 16 17 17 19 19 20 21
0 37 66 56 8 0 0 0 0 2 4 30 38 20 22 40
57 56 55 53 50 45 49 45 38 49 53 54 58 55 47 37
19 17 15 11 1 0 4 2 0 0 5 36 7 2 18 18
0 3 8 14 23 70 108 72 108 138 142 88 92 133 106 104
106 88 76 75 87 109 104 86 35 1 8 4 6 1 14 28
28 25 30 32 33 33 32 32 33 33 33 33 34 33 32 32
33 34 35 35 36 36 35 34 31 28 25 21 18 16 15 15
15 16 16 21 32 12 16 20 21 22 23 24 25 26 26 26
0 34 66 57 5 0 2 0 0 0 0 25 40 21 22 41
57 57 56 55 55 55 58 30 7 15 23 30 39 42 41 41
19 15 14 6 1 2 1 0 0 0 10 59 50 35 27 18
20 40 71 77 75 93 84 3 70 115 118 54 43 130 112 116
133 129 125 122 121 120 116 95 53 2 8 5 14 0 11 28
28 26 31 31 33 33 32 31 30 31 29 27 29 34 34 35
34 32 30 26 23 21 18 17 16 16 16 17 18 19 20 20
22 22 22 23 31 14 21 25 27 28 28 28 29 30 30 31
0 29 64 55 3 0 0 0 1 7 6 23 39 19 20 36
54 55 54 56 57 57 58 25 0 0 0 0 7 16 25 42
17 14 11 2 2 4 0 0 1 0 24 67 69 82 82 80
97 116 128 125 85 92 107 87 104 105 119 129 130 118 111 124
138 138 136 134 128 123 116 102 70 4 2 2 12 4 7 26
27 25 27 27 28 28 29 28 29 29 31 21 18 26 22 20
18 17 17 17 18 18 20 21 21 22 22 23 24 26 26 26
27 28 28 27 35 18 26 29 31 31 31 31 32 32 32 32
0 26 58 49 2 0 0 0 11 38 35 32 39 35 30 35
40 41 42 43 44 49 54 20 0 0 0 0 1 6 28 44
16 12 10 3 5 0 0 0 1 0 36 67 78 89 92 103
116 130 143 142 108 90 92 93 106 117 109 103 107 111 115 120
131 139 142 142 137 128 118 105 80 9 0 1 5 6 3 21
25 24 28 30 29 28 26 23 20 19 17 15 14 17 18 19
20 21 23 23 24 25 26 27 27 27 28 29 30 30 30 31
32 31 30 21 15 11 29 32 32 32 33 33 33 33 33 34
0 26 56 46 0 0 0 0 9 35 33 26 32 25 24 27
24 27 35 37 34 46 53 17 0 0 0 1 3 0 20 44
13 10 6 1 1 0 0 1 0 0 47 70 85 92 97 110
128 141 145 131 107 90 83 94 102 102 104 110 102 102 112 120
126 138 143 144 144 138 119 104 84 12 0 0 2 4 1 13
14 16 18 19 16 17 17 18 19 20 21 21 21 23 24 25
26 27 28 29 29 30 31 31 31 31 32 32 32 32 32 32
32 32 31 12 3 2 27 32 34 35 34 33 34 34 34 34
0 30 57 44 0 1 3 0 2 16 18 25 31 27 27 29
30 29 34 37 35 46 52 15 0 0 0 0 2 0 21 39
1 1 2 0 0 0 1 0 0 0 52 73 86 93 100 117
135 142 143 119 98 83 88 105 110 102 109 120 115 106 100 111
125 132 142 145 144 139 127 110 86 11 0 0 1 1 2 14
15 13 16 16 19 21 22 23 23 24 26 27 27 28 30 31
32 31 32 33 33 33 33 33 33 33 33 34 34 35 33 30
24 19 30 12 11 1 26 34 35 35 34 34 34 34 35 34
0 34 58 43 0 1 4 0 0 0 0 12 25 21 23 19
16 24 32 37 44 50 51 15 0 0 0 0 0 0 24 39
0 1 0 0 0 0 2 0 0 0 52 73 84 95 105 121
138 142 127 107 84 88 100 113 119 122 124 129 132 125 109 98
110 124 139 144 145 142 130 110 89 11 0 0 1 4 5 17
18 15 19 18 24 26 27 28 29 30 29 30 31 31 31 31
31 32 33 33 34 34 35 35 35 35 34 34 35 35 15 0
0 4 25 8 2 0 24 33 34 35 34 34 36 35 35 34
0 39 59 42 0 0 5 8 1 0 0 15 31 30 28 13
0 0 0 0 2 5 18 16 0 0 0 0 0 0 27 37
0 0 0 0 0 2 1 0 0 0 48 71 85 96 109 127
140 136 109 98 93 99 102 92 88 87 86 86 100 117 124 114
117 118 134 144 145 144 134 118 98 13 0 0 1 9 11 23
24 19 25 21 29 29 29 30 31 31 29 31 32 33 33 33
33 34 34 35 35 35 35 35 35 36 35 35 35 35 29 23
30 31 31 14 0 0 24 33 34 35 34 34 34 35 34 34
0 43 60 41 0 0 0 12 5 0 0 16 39 35 30 15
0 0 1 1 0 0 8 15 0 0 2 4 1 0 24 32
0 0 0 0 0 1 0 0 0 0 42 72 87 99 113 128
140 128 97 106 106 99 73 62 75 101 101 99 76 71 101 115
118 121 131 141 143 143 136 120 101 30 2 1 0 6 19 26
27 22 27 24 31 31 31 32 32 32 32 33 34 35 34 34
34 35 35 35 35 34 35 37 36 35 35 36 36 36 35 35
33 32 30 17 0 1 25 33 34 36 35 35 35 35 35 35
35 48 54 41 0 0 0 9 9 3 0 15 44 36 30 16
0 0 0 3 0 0 7 15 0 0 14 15 6 0 25 29
0 0 0 0 0 0 0 0 0 0 34 71 85 102 116 129
133 119 102 115 108 71 57 83 95 104 107 109 109 100 88 94
107 121 135 139 141 143 136 121 103 56 8 3 0 4 9 25
29 23 29 28 32 32 33 33 32 32 33 34 34 34 34 33
35 35 35 35 36 35 36 36 36 36 35 35 36 35 34 34
33 32 30 24 1 3 27 34 35 36 35 35 35 35 34 34
35 42 47 44 20 11 5 13 19 13 3 14 45 31 28 16
0 1 9 14 2 0 6 15 0 5 23 19 9 0 26 26
0 1 0 0 0 0 0 0 0 0 27 67 86 104 116 123
124 117 109 113 86 68 91 107 120 119 117 124 130 126 119 115
109 119 140 135 135 141 136 124 105 77 24 8 0 8 6 13
27 23 31 29 33 33 33 33 33 32 34 35 34 34 35 35
35 35 35 35 35 35 35 35 36 35 36 35 36 35 35 35
34 32 30 24 10 13 29 34 34 35 35 34 34 34 34 34
9 26 49 45 43 50 43 39 48 44 39 41 48 29 27 15
0 7 20 23 11 2 5 24 5 12 21 18 16 0 26 26
2 3 0 0 0 0 0 0 4 7 16 64 86 105 114 114
118 119 116 106 89 93 103 105 112 106 106 109 121 122 123 120
117 122 138 136 129 137 133 122 103 79 46 16 0 0 6 3
25 23 31 29 33 33 33 33 32 33 34 34 35 34 34 34
35 35 35 36 35 35 35 36 35 34 35 34 34 34 34 34
34 32 30 25 23 25 32 34 35 36 35 34 34 34 33 35
18 32 50 45 14 9 14 26 35 47 53 55 53 31 24 16
0 6 16 18 8 2 5 47 44 47 48 45 44 40 48 27
0 0 0 0 0 0 0 1 12 28 20 61 87 104 114 105
109 116 126 105 99 101 113 117 121 123 126 126 134 133 130 128
125 122 130 139 132 130 127 119 101 103 73 25 0 0 2 7
14 24 32 29 33 33 33 32 32 33 33 34 34 34 34 34
34 35 34 35 34 35 34 34 35 35 34 34 35 35 35 34
34 33 30 26 27 30 33 34 33 35 34 34 35 34 34 34
14 37 51 46 11 2 0 2 9 2 40 54 49 29 25 18
0 1 6 2 4 0 4 46 45 50 50 49 51 57 59 37
11 12 4 0 0 0 0 8 22 38 20 59 87 102 112 100
105 116 117 103 107 107 115 117 123 125 126 125 130 127 126 126
126 123 126 136 132 133 123 115 99 106 89 42 0 0 0 3
13 21 31 29 33 33 33 33 33 34 34 33 34 34 33 34
33 34 35 34 34 34 35 35 34 35 35 35 35 35 34 34
33 32 31 29 29 33 35 35 35 35 35 35 35 35 34 35
9 33 52 46 7 0 4 24 37 13 46 52 44 29 27 25
21 1 6 1 2 0 3 46 47 49 49 48 54 61 61 49
37 34 12 0 0 0 3 30 53 64 46 56 80 101 109 94
104 116 106 100 107 104 111 116 124 126 129 130 134 132 128 127
128 127 126 134 128 128 120 113 97 94 90 24 0 0 0 0
11 23 31 29 33 33 33 33 34 34 33 34 34 33 33 34
34 34 33 34 34 34 34 34 34 34 34 34 34 35 34 33
32 33 32 31 32 34 35 34 33 33 34 34 34 34 34 34
0 33 55 48 7 0 4 10 40 31 49 50 34 27 27 27
14 0 5 0 1 0 3 43 37 43 43 43 45 44 43 42
39 38 26 1 0 0 11 52 71 86 61 54 76 96 106 95
101 108 104 100 102 101 109 115 119 120 123 124 128 130 130 126
129 128 124 120 123 125 116 109 96 103 75 6 0 0 0 0
7 22 31 29 33 33 32 33 33 34 33 33 33 34 34 34
33 34 34 34 34 34 34 34 34 35 34 35 35 35 33 32
33 32 31 31 32 33 33 33 32 33 35 34 35 34 34 33
0 35 57 50 9 0 2 3 9 21 50 52 31 30 31 26
4 0 1 1 0 0 3 48 39 41 41 41 41 38 34 38
40 41 36 6 0 0 3 57 64 71 73 59 68 90 98 93
97 100 95 93 95 97 102 107 113 118 123 122 121 129 123 116
121 117 114 108 115 116 109 100 102 110 71 0 0 0 0 0
5 21 32 29 34 32 32 32 33 34 33 33 33 34 34 34
34 34 34 34 34 34 34 34 34 34 34 34 34 33 33 33
33 33 32 33 34 34 33 33 33 34 34 34 34 34 33 34
0 38 57 52 12 0 0 0 0 10 49 52 31 29 27 28
28 23 17 14 10 6 6 50 41 40 40 39 39 39 41 44
42 43 43 14 0 0 0 35 59 57 74 65 57 78 87 90
91 89 89 86 81 82 87 100 114 112 116 118 116 116 108 105
106 99 100 106 109 108 100 89 109 104 70 0 0 0 0 0
7 19 31 28 33 33 33 33 33 34 33 33 33 33 33 33
33 33 34 33 33 33 33 34 34 34 33 34 35 34 34 34
33 33 32 34 35 34 34 34 35 35 35 34 35 34 34 33
0 35 57 53 11 0 0 0 0 4 48 54 31 30 28 34
52 54 53 50 54 57 55 57 46 44 44 43 43 45 48 51
46 45 46 20 0 0 0 5 56 73 81 82 54 67 77 80
81 78 77 69 64 65 74 87 98 106 110 105 103 103 100 91
80 81 93 103 103 100 85 40 26 80 48 0 0 0 5 3
6 16 24 28 34 32 32 31 32 32 32 32 32 33 34 34
34 34 34 33 34 33 33 34 34 34 34 34 34 34 34 34
34 34 33 34 34 34 34 33 34 35 34 33 33 33 34 33
0 32 56 50 5 0 0 0 0 7 50 55 30 29 29 35
62 63 61 62 61 61 61 60 47 43 38 41 40 43 50 54
47 46 45 21 0 0 0 0 41 68 82 69 51 53 66 71
71 69 63 53 49 48 52 67 71 89 97 92 83 81 67 64
68 79 86 93 93 81 59 4 0 2 1 0 0 0 12 11
17 22 30 28 33 32 32 33 33 33 34 33 34 34 35 35
35 34 33 33 34 33 34 34 35 34 34 34 34 33 33 33
33 33 33 34 34 34 34 34 34 35 34 35 34 34 34 33
0 32 58 50 4 0 0 0 0 6 49 54 29 28 30 32
50 53 53 55 57 59 59 61 29 12 16 8 9 13 21 42
49 44 29 5 0 0 0 0 16 65 57 6 36 41 56 63
63 62 60 50 45 40 37 41 52 58 74 70 65 58 55 66
72 69 76 82 83 69 46 0 0 0 0 0 0 0 14 16
25 24 31 28 34 33 32 32 33 33 34 34 34 34 34 35
35 35 34 34 34 33 34 34 34 33 34 33 32 33 34 33
32 34 34 34 34 34 34 35 34 33 33 34 34 34 33 32
0 31 57 50 4 0 0 0 0 2 46 50 26 29 30 27
33 33 33 33 32 32 32 37 21 0 0 0 0 0 0 29
46 32 7 0 0 0 0 0 0 13 2 0 25 40 41 53
58 57 52 46 42 42 37 33 33 37 38 43 46 57 63 68
67 72 77 79 75 60 54 0 0 0 0 0 0 3 16 22
28 26 31 29 33 33 33 33 34 34 34 34 35 34 34 35
34 34 33 34 33 32 33 33 34 34 33 31 30 28 26 24
21 26 32 35 34 34 34 34 34 34 34 34 34 34 33 32
0 31 57 52 5 0 0 0 0 2 47 54 28 28 29 29
42 43 42 40 39 38 36 39 23 10 3 0 0 0 12 31
46 21 2 0 0 0 0 0 0 0 0 0 29 43 37 45
52 52 50 45 41 42 42 44 44 44 43 47 52 57 65 75
80 83 84 81 77 65 61 0 0 0 0 0 0 5 18 25
28 27 31 29 34 33 32 33 33 33 33 33 33 34 32 32
29 28 26 23 21 23 25 32 33 33 33 19 6 6 5 6
5 10 31 35 35 34 34 34 34 33 34 33 32 33 33 32
44 52 54 49 5 0 0 0 0 3 52 57 27 26 28 29
44 45 46 44 44 44 45 45 23 6 3 0 0 0 12 33
43 10 0 0 0 0 0 0 0 0 0 0 25 45 43 43
48 49 52 53 53 53 55 60 56 51 52 52 52 61 70 76
82 86 90 90 81 67 67 0 0 0 0 0 0 4 14 25
28 27 31 28 32 32 32 33 33 33 34 35 32 12 8 8
8 8 3 2 2 1 3 29 33 33 33 19 5 5 5 6
5 9 32 35 34 35 35 33 33 34 34 33 33 33 33 32
55 52 39 30 23 19 12 10 4 6 51 51 25 25 29 31
45 46 47 45 45 46 46 46 23 5 4 0 0 8 5 23
39 7 0 0 0 0 0 0 0 0 0 0 21 51 49 47
51 53 61 66 59 52 61 69 70 70 69 69 68 71 80 91
90 87 90 92 81 77 70 0 0 0 0 0 0 5 18 25
27 27 31 29 32 32 32 32 33 33 33 34 31 6 2 7
8 9 3 2 3 1 2 26 32 32 32 17 4 5 6 5
6 9 32 34 35 35 34 33 34 33 33 32 33 32 32 32
52 52 50 46 51 51 48 49 47 46 49 45 38 35 35 28
18 19 19 22 20 25 35 52 28 1 0 0 0 9 6 19
39 4 0 0 1 0 0 0 0 0 0 0 19 57 55 54
55 56 66 71 70 75 84 90 99 103 107 105 99 91 97 99
98 92 95 89 83 84 72 0 0 0 0 0 3 8 18 26
27 27 30 29 32 32 33 33 33 33 33 33 32 7 2 7
7 9 3 1 1 0 1 24 32 32 33 15 5 6 6 5
5 7 30 35 35 35 35 33 34 33 33 33 33 33 32 32
49 49 48 48 48 47 47 47 46 46 45 45 45 44 44 44
44 42 41 36 2 1 16 52 39 14 1 0 2 9 5 16
42 3 0 0 1 2 0 0 0 0 0 0 17 63 61 60
63 64 69 79 76 83 102 112 116 117 119 120 115 114 109 109
107 103 103 96 84 92 75 0 0 0 1 0 2 9 18 26
27 27 30 29 33 32 32 33 33 33 33 33 31 7 2 6
9 9 4 2 1 0 1 25 32 32 33 19 5 5 5 6
5 5 28 35 34 33 33 33 32 31 30 31 32 32 31 31
49 48 49 48 47 47 47 46 46 45 46 44 44 44 43 43
43 41 42 40 7 0 11 50 37 7 0 0 0 8 6 15
42 3 0 0 1 4 0 0 0 0 0 0 11 67 68 67
69 66 69 82 79 82 101 114 121 120 122 120 118 109 118 116
104 105 105 97 87 100 80 0 0 0 1 0 2 9 18 25
26 26 29 29 33 31 32 32 33 32 33 33 31 9 2 5
10 8 3 2 2 0 0 24 32 32 33 22 9 10 10 11
12 10 23 31 32 32 32 32 33 33 34 31 32 32 33 32
49 49 48 47 47 46 46 46 45 44 44 44 43 43 43 43
43 42 42 42 11 0 8 44 28 0 0 0 0 0 0 15
44 4 0 1 2 4 1 0 0 0 0 0 7 69 72 73
74 71 81 85 79 83 97 113 118 127 124 124 129 127 125 114
100 105 110 99 94 106 85 1 0 0 3 0 4 9 18 25
27 25 26 27 32 32 32 32 33 33 32 32 30 9 2 5
7 7 4 1 2 1 2 23 32 33 32 24 11 12 10 10
11 11 21 33 34 34 34 34 33 33 33 33 33 33 33 32
15 15 15 15 15 15 15 15 16 16 17 17 18 19 20 21
23 34 40 41 13 0 5 39 24 0 0 0 0 2 1 13
47 6 0 0 2 1 1 0 0 0 0 0 5 68 77 77
77 79 89 88 84 82 94 116 124 133 130 133 135 137 129 119
111 108 111 106 99 108 88 2 0 1 3 1 9 10 18 25
26 26 27 27 31 31 31 32 32 32 32 32 31 10 2 3
3 2 2 2 2 0 1 21 31 33 32 24 5 7 7 6
6 6 21 33 34 34 33 33 33 33 34 32 32 32 32 31
0 0 0 0 0 0 0 0 0 0 0 0 0 0 0 0
5 40 44 41 18 0 3 35 27 5 4 3 3 10 11 15
47 26 18 17 17 4 2 0 0 0 0 0 3 67 82 82
80 84 94 93 88 79 97 113 127 136 131 133 138 138 125 119
115 118 118 114 103 110 91 4 0 4 2 4 14 10 16 24
25 25 27 28 31 32 32 32 32 33 32 32 30 9 2 3
1 0 3 2 3 1 1 22 32 33 31 23 5 5 4 4
6 4 15 25 33 34 34 33 33 33 34 33 32 32 31 31
0 0 0 0 0 0 0 0 0 0 0 0 0 0 0 0
4 42 44 40 21 0 0 30 41 43 37 34 37 39 40 43
41 55 55 50 40 20 7 0 0 0 0 0 2 67 86 86
86 92 102 103 90 83 103 117 129 137 138 135 139 141 128 121
118 119 123 122 105 109 93 5 0 2 2 12 18 7 15 24
24 25 26 27 30 30 30 31 31 33 33 32 28 10 2 2
2 5 6 2 3 0 0 21 31 33 31 25 5 5 0 0
0 0 0 0 31 33 32 32 32 32 33 32 32 31 31 31
0 0 0 0 0 0 0 0 0 0 0 0 0 0 0 0
1 41 45 40 24 0 0 25 44 45 38 38 40 38 32 33
35 50 57 52 48 30 18 1 0 0 0 0 0 62 86 87
95 98 106 104 88 86 106 116 127 136 139 141 142 140 130 119
119 122 127 128 110 108 97 8 0 0 5 17 19 8 12 22
23 25 25 26 29 30 29 30 32 32 33 31 27 11 2 2
2 4 3 2 3 0 0 20 31 32 30 24 4 4 0 1
3 3 2 0 30 33 32 32 32 32 33 31 31 32 30 30
0 0 0 0 0 1 0 0 0 0 0 0 0 0 0 0
0 39 45 39 26 0 0 23 45 39 33 36 39 39 35 33
35 33 36 37 37 28 20 0 0 0 0 0 0 56 86 91
101 105 113 108 90 88 107 113 120 133 143 145 146 143 133 121
118 122 129 132 116 106 96 11 0 3 10 18 19 8 10 21
23 24 24 25 28 28 29 31 31 32 32 30 26 11 2 2
0 0 2 2 2 0 0 20 30 32 31 24 4 4 0 0
0 0 0 0 29 32 31 31 32 31 32 31 32 32 30 29
0 0 0 0 1 1 1 0 0 0 0 0 0 0 0 0
0 38 46 39 30 0 0 19 42 25 31 29 30 38 36 33
38 28 23 25 24 23 23 3 0 1 0 0 0 54 86 94
104 109 117 110 92 92 109 117 123 131 142 144 146 141 131 122
119 123 131 135 123 105 98 14 0 6 19 24 18 12 12 20
23 23 23 24 26 28 30 31 32 32 32 28 26 12 2 1
0 0 2 1 2 0 0 18 30 31 31 24 3 4 0 0
0 0 0 0 29 32 30 31 31 32 32 31 30 31 30 29
0 0 0 0 0 0 0 0 0 0 0 0 0 0 0 0
0 34 46 38 31 3 12 29 42 10 9 12 14 17 18 18
35 30 28 30 29 36 36 15 1 0 0 0 0 53 86 96
107 113 120 111 94 94 109 117 121 129 142 146 145 136 130 124
122 126 134 138 129 108 97 18 0 7 40 45 42 41 40 38
36 34 32 30 25 26 27 30 31 32 32 28 27 12 2 2
2 1 2 1 2 0 0 17 30 31 31 24 4 1 0 2
0 0 0 0 20 9 6 5 21 31 32 30 31 30 30 30
0 0 0 0 0 0 0 0 0 0 0 0 0 0 0 0
0 30 47 38 35 30 38 43 44 3 0 0 0 0 4 7
34 34 43 47 36 51 56 24 0 0 0 0 0 49 85 98
109 116 121 114 95 98 108 117 122 124 128 139 140 134 133 128
126 129 137 138 135 113 98 24 0 13 46 47 44 43 42 40
38 37 36 34 26 24 27 30 31 32 32 28 26 13 1 1
1 1 1 1 2 0 0 16 30 31 31 26 3 0 26 36
3 0 0 0 12 28 32 27 4 30 31 31 31 31 30 29
0 0 0 0 0 0 0 0 0 0 0 0 0 0 0 0
0 26 47 37 37 46 49 51 48 4 0 0 0 0 0 5
38 32 42 46 27 42 49 16 0 0 0 0 0 51 83 97
110 120 124 118 100 101 107 118 123 125 128 134 139 138 134 129
128 134 140 135 133 117 100 46 5 25 47 47 45 44 42 41
39 37 36 34 26 22 26 29 30 31 31 28 26 14 1 1
1 1 0 0 1 1 0 16 30 31 31 28 15 8 21 23
7 0 0 13 32 31 31 30 13 20 31 31 31 30 31 30
0 0 0 0 0 0 0 0 0 0 0 0 0 0 0 0
0 24 47 38 36 48 52 52 51 10 0 0 0 0 0 1
39 30 40 42 2 4 24 16 0 0 0 0 1 56 85 96
113 121 124 124 111 105 108 118 124 129 134 139 145 143 138 129
127 139 141 138 135 121 103 62 40 37 47 46 45 44 42 40
36 37 36 35 29 19 26 28 31 31 31 29 27 15 1 1
0 0 0 0 1 1 0 16 30 30 31 30 30 12 6 1
2 0 0 13 32 31 32 31 18 15 32 29 30 30 29 29
0 0 0 0 0 0 0 0 0 0 0 0 0 0 0 0
0 20 47 38 36 34 31 31 27 3 0 0 0 0 0 2
40 30 40 42 2 2 22 19 0 0 0 0 22 63 87 98
118 121 125 128 120 111 109 118 126 133 141 145 147 145 139 129
131 144 144 140 135 123 107 59 59 42 46 45 46 44 41 40
38 36 37 34 31 16 25 27 29 30 29 28 27 15 0 0
1 1 1 0 1 1 0 13 28 28 31 31 30 16 0 0
0 0 2 13 33 32 33 32 18 17 32 32 32 31 30 29
0 0 0 0 0 0 0 0 0 0 0 0 0 0 0 0
0 18 47 37 35 18 13 16 12 0 0 0 0 0 0 2
40 29 41 42 2 2 20 21 0 0 0 14 39 68 87 100
118 121 126 131 128 117 111 119 130 139 145 146 147 147 140 129
137 146 145 141 136 124 105 57 84 56 46 47 46 44 40 38
39 36 36 35 32 14 22 25 28 29 30 28 27 16 1 1
1 1 0 0 1 0 0 14 31 30 31 20 3 11 0 0
0 0 0 8 31 31 31 30 11 23 31 31 31 30 30 28
0 0 0 0 0 0 0 0 0 0 0 0 0 0 0 0
0 13 46 38 34 20 16 17 12 0 0 0 0 0 0 3
40 28 41 41 2 2 18 23 0 0 0 40 51 61 88 103
117 122 126 132 135 127 112 115 128 139 142 145 147 147 143 132
143 147 146 143 139 127 86 54 85 77 56 46 46 44 41 40
39 34 36 34 32 16 21 25 27 28 29 28 26 17 3 2
2 1 2 1 0 0 3 19 29 29 30 18 26 40 9 0
0 0 0 9 31 30 30 25 5 29 30 30 30 30 29 29
0 0 0 0 0 0 0 0 0 0 0 0 0 0 0 0
0 12 46 38 33 23 18 20 13 0 0 0 0 3 0 1
38 29 42 41 2 3 17 23 3 0 18 55 72 39 87 103
115 121 125 135 140 133 118 116 124 137 143 146 147 147 143 135
145 147 145 142 138 125 52 58 75 84 75 46 46 44 42 39
39 36 35 34 32 18 19 24 27 28 29 28 26 24 22 20
14 11 11 6 2 2 10 17 20 20 18 10 17 14 4 0
0 0 0 3 12 12 14 5 22 14 9 18 32 30 29 29
0 0 0 0 0 0 0 0 0 0 0 0 0 0 0 0
0 11 45 37 33 26 23 22 14 0 2 0 0 6 2 0
38 29 43 41 12 5 15 25 7 7 56 54 73 23 77 102
115 122 125 134 140 139 126 118 123 134 143 147 147 147 144 139
147 147 146 143 138 104 37 62 87 85 86 52 48 43 42 39
39 37 36 35 32 22 16 23 26 27 28 27 26 25 25 23
11 2 1 0 0 0 0 0 0 0 0 0 0 0 0 0
0 0 0 0 0 0 0 0 10 6 7 14 32 31 29 30
0 0 0 0 0 0 0 0 0 0 0 0 0 0 0 0
0 9 43 37 32 26 23 23 15 2 7 0 0 9 16 2
36 30 43 39 18 12 13 23 3 31 69 55 74 36 47 99
115 120 124 132 140 144 138 125 123 132 142 146 146 146 144 141
147 147 146 143 134 64 44 65 90 89 94 56 51 50 46 39
38 37 35 33 30 25 13 22 25 27 28 27 26 25 24 22
9 0 1 3 5 6 8 9 10 10 12 13 13 14 15 16
18 20 21 20 12 0 0 21 6 2 28 27 31 31 30 35
0 0 0 0 0 0 0 0 0 0 0 0 0 0 0 0
0 8 43 36 32 27 24 23 21 4 10 5 4 13 19 13
35 34 44 38 14 23 12 21 2 55 71 60 77 63 26 76
116 122 124 127 139 145 144 136 130 132 134 140 145 145 146 146
147 147 146 140 107 46 60 70 69 85 99 78 41 52 53 57
50 36 34 33 29 27 11 21 24 26 26 26 25 25 24 24
9 0 6 17 20 21 22 23 23 24 24 24 24 24 25 26
27 28 27 24 14 0 0 6 2 0 2 1 3 2 5 48
0 0 0 0 0 0 0 0 0 0 0 0 0 0 0 0
0 7 43 37 32 28 25 24 33 39 43 44 44 44 46 46
53 40 43 34 5 26 13 29 28 70 74 64 63 69 29 43
107 127 125 125 134 144 146 142 137 136 135 134 141 145 146 147
146 146 145 135 69 46 70 73 87 85 103 97 75 63 36 59
75 66 38 34 32 30 11 21 23 25 27 27 22 5 3 3
3 0 7 17 20 23 24 25 26 26 26 26 26 27 28 29
29 29 28 25 14 0 0 0 0 0 0 0 0 0 4 48
0 0 0 0 0 0 0 0 0 0 0 0 0 0 0 0
0 6 43 38 32 28 26 24 32 49 49 50 49 50 50 51
55 52 42 34 0 11 13 38 47 73 74 68 54 85 47 32
73 127 129 124 131 144 147 147 145 145 144 144 146 147 147 146
147 147 146 110 50 51 76 83 81 86 103 102 72 78 60 44
78 87 72 43 31 28 13 17 22 24 25 25 22 0 0 0
0 0 8 17 21 24 26 27 27 27 27 26 28 28 29 30
31 30 29 26 16 0 0 0 0 0 0 0 0 0 5 44
0 0 0 0 0 0 0 0 0 0 0 0 0 0 0 0
0 6 43 37 32 28 26 25 25 48 47 46 46 45 43 43
44 44 39 34 0 11 41 39 53 72 76 73 54 88 66 36
53 106 129 125 131 142 147 147 147 147 147 147 146 147 146 146
147 147 139 69 52 71 74 89 81 90 106 104 75 76 83 65
51 71 86 77 46 27 22 29 24 23 24 24 21 0 0 0
0 0 7 17 21 24 26 27 28 28 29 29 30 30 31 32
32 30 29 27 16 0 0 0 0 0 0 0 0 29 42 42
0 0 0 0 0 0 0 0 0 0 0 0 0 0 0 0
0 5 42 38 31 27 25 24 16 14 13 12 12 12 13 13
16 16 34 35 9 41 39 59 56 75 74 75 60 74 64 58
50 87 119 128 128 141 147 147 147 147 147 147 146 146 147 146
146 146 110 54 61 69 71 79 75 85 104 105 77 89 89 84
71 46 71 90 83 44 17 19 38 45 42 27 23 13 3 0
0 0 9 17 20 24 26 27 28 29 28 29 30 30 32 32
32 32 30 28 17 0 0 0 0 0 0 0 0 36 40 38
0 0 0 0 0 0 0 0 0 0 0 0 0 0 0 0
0 4 42 38 31 28 25 24 19 15 13 13 13 12 13 13
16 17 35 41 45 33 48 58 46 74 77 78 68 56 79 75
64 82 106 120 125 135 146 148 148 148 148 147 147 147 145 146
147 130 70 58 77 74 75 13 59 89 104 102 76 90 80 94
94 35 55 89 93 90 87 75 67 60 47 52 62 46 28 14
0 0 10 17 20 22 25 27 28 29 29 30 31 32 33 33
33 32 31 30 17 0 0 0 0 0 0 0 0 36 38 37
0 0 0 0 0 0 0 0 0 0 0 0 0 0 0 0
0 5 40 37 31 27 25 25 23 19 18 17 16 16 16 16
18 19 38 49 38 15 58 57 67 65 77 79 76 65 95 72
86 80 105 108 116 131 141 147 148 148 148 147 147 147 145 146
141 86 59 67 91 81 75 7 11 86 103 107 88 72 74 98
95 65 29 67 91 88 89 87 83 79 81 50 35 73 67 59
29 9 11 18 20 22 24 26 27 28 29 30 31 32 32 33
32 32 32 31 17 0 0 0 0 0 0 0 1 34 35 35
0 0 0 0 0 0 0 0 0 0 0 0 0 0 0 0
0 5 41 38 31 27 25 25 24 22 22 22 21 21 20 20
21 21 52 51 22 30 56 54 73 60 79 78 79 62 88 72
64 80 104 115 102 116 134 146 149 148 148 147 148 146 144 147
122 70 61 85 77 85 51 0 0 68 104 108 89 96 80 101
100 75 62 44 78 91 87 88 86 83 79 76 47 47 77 74
72 64 53 34 23 22 24 26 27 28 29 31 32 32 33 33
33 33 32 32 17 0 0 4 16 5 0 0 4 34 33 33
0 0 0 0 0 0 0 0 0 0 0 0 0 0 1 2
3 11 45 38 30 27 25 25 25 22 21 21 21 21 21 22
23 40 74 49 19 58 56 55 61 51 77 77 79 69 69 37
7 52 99 122 108 99 112 139 149 149 148 148 148 143 142 134
90 66 81 97 84 42 1 0 0 38 106 104 90 95 82 103
100 73 96 52 74 85 88 84 86 81 81 82 79 38 72 75
72 73 67 68 66 61 54 44 36 29 30 31 32 33 33 33
33 33 34 33 18 0 0 6 18 4 0 0 6 34 33 33
12 13 15 16 18 18 20 23 25 26 27 29 30 30 31 32
32 33 34 33 32 28 26 23 16 23 23 23 22 23 31 43
41 72 74 46 30 66 61 55 47 63 63 82 82 79 51 1
3 27 77 114 114 105 94 112 146 149 149 149 148 141 132 109
87 98 103 100 72 16 2 0 0 8 99 109 97 81 74 104
103 77 74 61 69 83 89 86 86 86 85 86 84 72 39 86
77 77 74 71 70 69 65 66 63 52 35 31 33 34 34 34
34 34 35 33 16 0 0 0 0 0 0 0 10 35 34 34
40 40 31 18 21 26 20 17 28 37 36 36 35 34 34 34
33 32 33 33 32 28 33 33 29 21 25 24 29 47 57 54
59 81 76 38 50 71 74 56 47 76 58 77 82 83 54 0
9 29 59 87 111 111 101 90 120 149 148 149 142 126 115 109
101 85 108 94 61 75 25 0 1 4 53 113 98 96 89 102
104 84 92 87 47 82 83 90 85 87 90 88 89 86 53 63
79 70 76 77 69 67 71 62 65 56 44 29 31 32 33 33
33 33 34 34 16 0 0 0 0 0 0 0 13 34 33 33
39 15 20 35 38 38 37 34 21 18 34 36 35 35 34 33
33 32 31 32 35 40 40 28 31 36 35 35 44 51 60 58
75 83 70 32 59 55 77 49 45 58 72 61 85 84 55 0
5 32 72 58 86 110 105 98 108 138 145 135 118 109 109 89
58 80 109 91 56 75 54 24 29 31 49 73 103 99 95 104
103 92 88 96 53 63 80 91 88 83 90 87 86 87 80 34
86 73 83 38 55 66 67 68 60 60 55 32 30 31 32 32
33 33 33 33 15 0 0 0 0 0 0 0 16 34 33 33
13 35 40 40 38 39 38 38 37 32 16 32 35 34 33 31
31 29 29 35 40 40 31 16 41 57 57 58 54 57 66 65
72 67 63 49 48 39 60 20 28 53 55 55 81 82 54 0
0 22 84 75 65 102 97 108 110 120 114 98 102 107 112 89
101 103 105 91 82 107 81 93 73 44 56 25 70 93 94 105
102 100 84 106 73 53 67 85 90 83 87 86 87 89 87 44
54 81 74 18 28 44 61 66 68 66 64 35 30 31 31 32
33 32 33 33 15 0 0 0 0 0 0 0 13 33 32 32
37 37 36 34 33 32 30 28 26 23 17 9 14 11 7 7
8 14 33 42 48 40 12 30 55 57 59 62 59 61 63 71
64 42 52 51 40 35 55 20 20 62 63 72 67 85 60 0
2 6 71 83 74 76 89 106 105 80 57 77 98 109 117 92
113 109 113 96 91 106 82 108 113 96 77 31 34 51 86 106
106 103 78 83 79 70 63 72 90 86 85 85 83 87 85 66
31 84 74 33 28 37 63 77 78 72 67 33 29 30 31 31
33 33 34 34 15 0 0 0 0 0 0 0 4 31 32 32
8 13 20 23 23 23 22 22 17 8 7 6 0 1 2 4
9 32 42 43 51 37 15 38 60 58 60 65 64 61 60 74
54 44 36 39 39 45 72 24 37 81 58 81 58 84 53 0
7 30 49 74 70 62 52 77 75 90 46 43 69 116 116 91
113 125 112 113 85 106 85 110 114 109 102 79 57 32 60 107
106 105 73 83 71 80 82 64 69 88 85 83 82 80 85 79
33 58 80 32 26 40 64 80 82 76 67 32 29 30 31 31
32 33 34 36 15 0 0 0 0 0 0 0 16 14 32 31
8 16 36 42 45 45 46 50 49 48 47 42 8 3 9 6
31 41 42 42 52 41 14 35 62 60 61 67 66 56 69 68
47 68 59 59 45 63 78 40 57 88 77 69 57 84 68 24
29 65 54 78 92 63 61 50 83 95 83 37 66 118 112 94
119 129 106 117 84 96 87 116 115 109 111 86 93 55 54 88
109 105 81 109 65 68 61 50 63 71 88 81 78 81 85 80
54 39 87 49 27 41 63 81 83 77 67 30 30 30 31 31
33 34 36 39 16 0 0 5 2 0 0 0 25 11 27 31
19 26 64 64 65 63 62 57 55 50 50 42 17 0 3 20
45 40 43 42 49 51 19 33 62 61 58 65 65 64 78 60
52 68 59 61 53 81 77 56 61 85 97 59 71 76 76 56
56 87 80 101 93 99 67 50 50 64 73 48 88 110 89 88
125 125 109 118 70 78 90 117 115 108 117 88 94 89 101 71
108 102 77 87 56 52 49 63 76 73 73 81 74 82 84 77
76 72 73 47 34 38 55 72 83 80 67 40 33 34 34 33
35 37 39 43 16 0 44 116 58 0 0 0 28 25 10 30
18 21 59 51 53 56 53 51 49 45 50 47 32 4 10 40
49 40 45 44 46 61 33 40 60 62 60 62 66 71 72 49
34 38 48 47 56 77 90 90 54 71 106 72 89 93 80 79
75 112 78 112 95 92 92 91 63 66 60 62 109 105 93 92
129 127 120 112 78 102 92 121 114 114 118 89 118 91 122 113
112 105 77 62 49 55 60 69 58 35 60 78 72 81 86 86
90 90 66 47 33 41 53 65 79 78 66 56 13 4 4 3
3 3 3 3 0 0 77 148 76 0 0 0 29 29 13 22
45 43 54 67 71 69 67 65 56 45 42 37 11 1 26 43
52 40 43 46 45 64 54 46 61 61 59 66 70 77 65 55
39 30 44 47 80 102 107 101 53 73 107 90 81 87 94 107
79 102 81 106 116 90 80 78 67 54 70 68 117 101 98 96
127 126 120 104 89 106 97 121 111 115 123 88 113 87 121 114
117 108 66 48 54 57 69 60 8 37 45 79 71 84 86 91
95 93 62 41 35 46 56 56 78 77 63 61 59 16 0 0
0 0 0 0 0 0 13 28 10 0 0 2 30 29 25 5
33 33 38 46 45 42 41 39 31 26 25 11 1 30 42 47
56 48 41 48 45 67 75 68 63 69 76 74 74 68 64 59
61 50 54 50 87 103 110 106 57 88 104 105 66 92 110 108
88 105 97 101 122 114 96 77 74 46 66 91 119 109 92 106
124 120 118 98 97 117 97 122 108 113 120 89 119 88 123 118
121 110 59 41 23 70 78 43 41 25 53 82 70 90 86 93
90 88 57 35 36 46 62 50 77 76 54 53 69 70 12 0
0 0 0 0 0 1 0 0 0 0 0 3 23 18 2 4
35 36 37 37 37 37 38 33 24 22 23 9 21 43 42 51
60 56 42 46 48 68 79 81 85 77 84 81 65 61 61 64
62 53 57 58 95 107 112 107 59 77 110 88 82 112 115 109
92 87 99 88 116 118 114 93 64 57 37 90 123 108 97 117
125 117 108 96 105 107 101 120 107 114 118 87 106 89 125 118
120 113 75 86 72 102 96 52 60 36 67 72 76 95 92 84
82 83 32 26 40 46 64 49 72 75 31 9 59 80 50 1
0 0 0 0 0 0 0 0 0 0 0 0 5 5 22 23
21 19 17 14 11 8 26 29 22 22 23 30 42 42 45 55
61 59 48 42 47 65 80 79 83 75 67 63 64 64 56 64
65 52 58 60 95 107 112 103 64 83 81 59 111 116 120 117
112 77 90 86 120 118 125 112 72 59 72 89 120 102 90 119
118 113 112 97 90 90 103 116 108 112 116 83 89 88 120 116
117 118 87 102 79 106 110 54 64 52 56 60 80 95 93 87
87 76 19 19 31 48 64 52 67 73 24 0 2 46 78 42
1 0 0 0 0 0 0 0 0 0 0 0 0 0 10 13
0 0 0 0 0 0 10 9 3 7 17 40 41 39 47 59
65 59 55 45 40 66 77 78 72 64 65 80 77 66 50 69
62 52 58 56 94 107 112 102 90 80 82 83 119 115 121 120
122 85 110 83 117 123 127 114 74 62 84 105 113 89 83 121
123 116 117 92 102 96 102 111 111 115 118 85 112 86 120 118
119 121 98 97 86 111 118 63 67 67 51 57 68 86 88 81
99 86 34 12 28 51 61 50 64 72 33 0 0 2 50 77
28 0 0 0 0 0 0 0 0 0 0 0 0 0 0 0
1 0 0 0 0 0 0 0 0 0 28 40 41 42 50 62
59 61 69 56 40 63 70 64 67 71 82 84 78 67 52 68
61 52 59 52 91 104 114 113 109 78 98 82 121 120 118 120
123 86 107 86 102 118 119 107 69 66 56 108 97 104 90 128
124 116 118 93 114 100 106 116 112 116 118 87 120 88 125 124
123 125 113 72 84 114 121 78 69 71 53 60 82 79 78 84
97 90 55 35 37 33 67 54 62 69 47 28 2 0 2 58
72 7 0 0 0 0 0 0 0 0 0 0 0 0 0 0
0 0 0 0 0 0 0 0 0 7 46 41 39 44 55 60
66 76 70 56 46 54 65 75 73 78 82 72 68 64 54 64
62 54 60 53 75 105 118 116 116 88 125 85 118 121 120 124
123 95 105 104 88 113 109 98 71 61 55 109 80 108 93 125
124 114 114 89 109 94 105 121 114 120 117 90 119 91 123 125
121 125 119 85 87 110 122 94 67 71 61 62 80 84 88 74
76 86 47 45 39 15 35 72 55 68 52 41 33 4 0 25
77 36 0 0 0 0 0 0 0 0 0 0 0 0 0 0
0 0 0 0 0 0 3 5 10 41 42 48 40 45 57 64
71 72 70 64 48 49 79 72 71 82 79 70 76 71 59 61
64 53 61 53 59 104 118 119 120 90 110 85 111 120 121 122
128 105 89 98 82 113 108 111 86 73 77 108 82 98 99 123
126 117 112 90 115 104 105 127 111 122 118 93 124 92 124 124
119 120 122 86 92 113 126 111 64 72 65 60 76 79 85 82
87 61 37 51 38 33 2 50 68 56 55 45 42 33 8 4
68 52 0 0 0 0 0 0 0 0 0 0 0 0 0 0
0 0 3 9 16 26 35 28 43 51 47 49 44 50 63 68
73 69 66 58 39 56 75 74 75 83 79 68 77 69 64 51
66 53 62 35 58 103 120 120 118 95 112 99 102 125 116 117
129 112 77 84 79 110 108 103 96 64 86 109 86 79 77 122
121 113 110 91 99 97 100 124 109 123 118 92 98 89 122 126
123 119 123 89 94 109 124 118 68 73 64 68 80 87 78 78
88 71 27 40 40 65 13 13 62 67 55 51 40 48 29 5
47 24 0 0 0 0 0 0 0 0 0 0 0 0 0 0
