P2
128 120
155
47 47 47 47 46 46 45 45 45 44 44 43 42 42 42 41
41 40 40 39 38 37 37 36 36 35 34 34 34 33 32 32
32 31 30 29 28 28 28 27 26 25 25 25 24 23 24 23
23 22 22 22 21 20 20 19 19 18 18 19 25 24 25 24
19 10 20 26 21 20 20 19 17 16 15 14 14 13 13 9
10 11 15 17 18 20 20 20 21 21 21 21 21 22 22 22
22 23 23 24 25 24 25 26 26 26 26 27 28 27 30 29
29 29 30 30 31 31 31 31 32 32 32 33 33 33 33 34
47 47 46 45 46 45 45 45 44 44 43 43 43 42 41 41
40 40 39 38 38 38 37 36 35 35 35 34 33 33 32 31
31 30 30 29 29 28 28 27 27 27 26 25 25 25 24 23
23 22 22 21 21 20 20 20 19 19 20 21 25 25 26 25
20 11 18 26 21 20 20 19 18 17 16 15 15 15 15 11
11 12 16 17 18 19 20 20 21 21 21 21 21 22 23 23
24 24 24 24 24 25 25 26 26 26 26 27 28 29 30 29
29 30 30 30 31 30 31 31 32 32 33 33 33 33 33 36
47 47 47 46 46 46 45 45 44 43 43 43 43 42 42 41
41 41 40 39 38 37 37 36 36 35 34 34 34 33 33 32
32 31 31 30 30 29 29 28 27 26 26 25 25 24 24 24
24 22 22 22 22 21 21 21 20 20 21 22 26 26 27 26
20 14 18 27 22 20 21 20 19 18 16 16 16 15 14 12
11 13 17 19 21 20 20 20 21 22 22 23 23 24 24 24
24 24 25 25 25 26 27 27 27 27 28 28 28 29 30 29
30 30 31 31 31 31 32 32 33 34 33 33 34 33 32 32
47 47 46 46 46 46 45 45 44 44 43 43 43 42 42 41
40 40 40 39 38 38 37 37 37 35 35 35 35 34 33 32
31 31 30 30 30 30 29 28 28 27 27 26 26 26 25 24
24 23 23 22 23 21 21 21 21 21 22 23 27 27 28 27
21 16 16 27 23 22 21 20 20 19 20 19 17 17 16 14
12 13 17 20 20 21 21 22 22 23 23 24 24 25 25 25
25 25 26 26 26 27 27 27 27 27 28 28 29 29 31 30
31 31 32 32 32 32 31 32 33 33 32 32 32 33 35 34
47 46 46 46 46 45 45 44 44 43 43 43 42 42 42 41
41 40 40 39 38 38 37 36 36 36 35 35 34 33 34 32
32 32 31 31 30 29 29 28 28 27 27 26 25 25 25 25
24 24 23 23 23 22 22 21 22 22 22 24 28 28 28 27
21 17 15 28 23 22 22 21 20 19 18 19 16 17 17 15
15 16 19 21 22 23 22 22 23 24 24 24 24 24 25 24
25 25 26 26 27 27 27 27 27 28 28 29 30 29 31 30
30 31 31 32 32 32 31 30 32 32 34 34 35 35 34 33
46 46 46 46 45 45 44 44 44 44 44 43 43 42 42 41
41 40 40 39 38 37 37 37 36 36 36 34 34 34 33 33
32 31 31 30 30 29 29 29 28 28 27 27 26 26 26 25
24 24 24 23 23 22 22 22 21 22 23 25 29 28 29 28
22 17 16 28 24 21 21 22 21 20 19 20 18 18 18 16
16 17 20 22 22 22 23 23 23 23 24 24 25 25 26 26
26 26 27 27 27 27 27 27 27 28 29 29 30 30 32 31
32 31 30 29 30 32 33 34 33 33 34 34 34 34 34 34
47 47 46 46 45 45 45 45 44 43 43 42 42 42 41 41
41 40 40 40 39 38 37 37 36 35 35 35 34 33 33 33
32 31 31 31 30 30 29 28 28 28 27 27 26 25 25 25
24 24 24 24 24 23 23 23 22 22 23 24 28 29 29 28
23 16 12 25 24 22 22 22 21 20 20 21 18 18 18 16
16 18 21 23 23 23 24 23 24 24 25 25 25 25 25 26
25 26 26 27 27 27 28 29 28 29 29 30 30 29 28 28
29 30 31 33 32 33 33 34 34 34 34 34 34 34 34 33
46 46 45 45 45 45 44 44 44 44 44 43 42 42 42 41
41 40 39 38 38 38 37 36 37 36 36 35 35 34 33 33
32 32 32 30 30 29 29 29 28 28 27 27 26 26 26 25
25 24 24 24 24 23 22 22 23 23 23 25 29 29 30 29
22 14 8 24 25 24 24 22 22 21 21 22 19 20 19 18
18 19 22 23 24 23 23 24 24 25 25 25 25 25 26 27
27 27 27 27 27 28 28 28 29 28 28 27 28 28 30 32
31 32 32 33 33 33 33 34 33 34 34 33 34 35 35 34
46 46 46 45 45 45 45 45 44 44 43 43 42 41 41 40
40 40 40 39 39 38 38 36 36 36 35 35 35 34 33 33
32 32 32 31 31 30 30 29 29 28 28 27 26 26 26 25
25 25 25 25 24 24 23 23 23 23 24 25 30 30 30 29
22 16 15 27 26 24 24 23 23 22 21 22 20 20 20 18
17 19 23 23 24 24 24 24 24 25 25 26 26 25 26 26
26 26 27 27 28 28 28 27 28 28 29 30 30 31 31 31
32 32 32 32 33 34 33 35 34 33 34 34 35 34 34 34
48 46 46 45 45 45 45 44 44 43 43 43 42 42 42 41
40 40 39 38 39 38 37 37 37 36 35 35 34 34 34 34
33 32 31 31 31 30 29 29 29 28 28 28 28 27 27 25
25 25 25 24 24 24 23 22 23 23 24 26 30 30 31 30
23 18 19 25 27 24 24 24 23 23 22 23 20 20 20 19
17 20 23 25 24 24 25 25 26 25 26 26 26 27 27 27
27 27 27 27 28 28 28 29 29 29 30 31 30 31 31 32
33 32 33 33 33 34 34 35 34 34 35 34 34 35 35 34
61 63 64 60 55 49 44 44 44 44 43 42 42 41 41 41
40 39 39 39 39 39 38 37 37 36 36 35 35 34 34 33
32 32 32 31 31 30 30 30 29 29 28 27 27 27 26 26
26 26 26 25 25 24 24 24 24 24 24 26 31 31 30 30
23 18 21 23 27 25 25 25 24 23 22 23 21 20 20 20
18 21 24 24 25 25 25 25 26 26 26 26 26 27 26 26
26 26 27 28 28 29 30 29 30 30 30 31 30 31 32 32
32 33 33 33 33 33 33 35 34 34 34 34 35 35 34 35
35 46 55 59 60 54 44 43 43 43 43 42 42 41 41 41
41 40 40 39 38 37 38 37 37 35 36 36 35 34 34 33
34 32 32 31 31 30 30 29 29 28 28 28 28 27 27 26
27 26 26 25 24 24 23 23 23 24 25 26 31 31 31 31
24 20 24 22 27 26 25 24 24 23 22 24 20 21 21 20
18 22 25 25 25 25 26 26 25 26 26 26 26 26 27 27
28 28 28 29 29 29 29 30 29 30 31 31 30 32 32 31
32 33 33 33 33 34 34 35 34 34 34 34 35 35 35 34
0 0 1 27 61 54 44 44 44 43 43 42 42 41 41 41
40 40 39 39 39 38 38 38 37 36 37 36 35 34 34 34
33 33 32 32 31 31 31 30 30 29 29 28 27 28 28 27
26 26 26 26 25 24 24 25 24 24 25 26 32 31 31 31
26 21 26 21 27 26 26 25 24 23 23 24 21 21 22 21
18 22 25 26 25 26 26 26 26 26 26 27 27 27 28 27
28 28 28 28 29 29 30 31 30 31 30 31 31 32 32 31
32 32 33 33 34 34 34 35 34 34 35 35 35 35 36 35
0 0 0 23 61 54 44 44 44 43 43 42 42 41 42 41
41 40 40 39 38 38 38 37 37 37 37 35 36 35 35 34
33 33 32 32 31 31 31 30 31 29 29 29 29 28 28 28
28 27 26 26 26 25 25 25 25 25 25 26 32 32 33 32
26 21 28 20 29 27 26 25 24 23 23 25 21 22 22 21
19 23 24 25 25 26 26 26 27 27 27 27 27 27 28 28
28 29 29 29 29 30 30 30 29 31 31 31 32 32 31 32
33 33 33 33 34 34 34 36 34 35 34 35 35 35 35 34
0 0 0 23 60 54 44 44 43 43 43 42 43 42 41 41
41 40 40 39 39 39 38 38 38 38 36 36 36 35 34 34
34 33 33 33 31 32 31 31 30 30 29 29 29 29 28 27
28 27 26 26 26 25 26 25 25 25 26 27 33 32 32 32
26 21 29 19 28 27 26 25 26 25 24 26 22 23 22 22
18 22 24 26 26 27 27 27 27 27 27 28 28 28 28 28
29 28 29 30 30 30 30 31 31 31 31 32 32 32 32 32
33 33 33 33 34 34 34 35 35 35 35 36 35 35 34 34
0 0 0 22 60 53 43 43 44 43 43 42 42 42 42 41
41 41 40 40 39 39 38 38 37 37 36 36 35 35 35 35
34 33 33 32 32 31 31 31 31 30 29 29 29 29 29 28
28 27 27 27 26 26 25 26 25 25 26 27 33 33 33 32
26 21 30 20 28 27 27 26 25 24 25 26 22 23 22 22
19 25 26 27 27 27 28 28 28 27 28 28 28 28 28 29
29 29 30 31 31 30 31 31 31 31 31 32 32 32 32 33
33 33 33 35 34 34 34 35 35 34 33 34 34 35 36 36
2 0 0 23 59 52 44 44 44 43 43 42 42 42 42 41
41 40 40 40 40 39 39 39 38 37 37 36 36 35 35 34
34 33 33 32 32 32 32 31 31 31 31 30 29 29 28 28
28 28 28 27 27 26 26 26 26 26 27 28 33 33 33 33
26 22 30 20 29 27 27 26 25 25 25 27 23 24 24 23
19 25 26 27 27 27 27 28 28 28 29 28 29 29 30 29
29 29 30 30 31 30 30 31 31 31 32 32 33 32 33 33
33 33 34 34 33 32 33 33 34 36 35 36 35 36 35 36
6 0 0 26 60 51 44 44 43 43 43 43 43 42 42 42
41 41 40 40 39 39 39 38 37 36 37 36 35 35 35 35
35 34 34 33 33 32 32 32 31 30 30 30 30 29 29 28
29 28 28 27 27 27 26 26 26 26 27 28 34 33 33 33
27 22 31 22 29 27 27 26 25 24 25 26 23 24 23 23
19 25 26 28 27 28 29 28 29 28 29 29 29 28 28 29
29 30 30 31 31 31 32 32 32 32 32 33 33 32 33 33
32 33 33 33 34 35 35 35 35 36 35 35 35 35 35 35
14 0 0 27 59 50 44 44 44 44 43 43 43 42 42 41
41 41 40 40 39 38 38 38 38 37 37 37 36 35 35 35
34 34 34 33 32 32 32 32 31 31 31 31 30 30 30 29
29 29 29 27 27 27 27 26 27 27 28 29 34 33 34 34
27 21 31 23 28 27 28 27 26 26 26 27 23 24 24 24
19 25 26 28 27 27 28 28 29 29 30 30 30 29 30 30
30 31 31 31 31 31 32 32 32 32 32 31 31 32 32 33
35 35 34 35 35 34 35 35 36 36 36 36 36 36 36 36
11 1 0 28 58 50 44 44 44 43 43 43 43 42 42 42
42 41 40 39 40 39 38 38 37 37 37 37 36 36 36 35
35 34 34 33 33 33 32 32 32 31 31 30 30 30 30 29
30 28 29 28 28 27 27 27 27 27 28 29 34 34 35 34
27 22 31 24 27 28 28 28 27 26 26 26 24 25 24 24
20 26 26 28 29 29 29 30 30 29 30 30 29 29 30 30
30 31 31 32 32 32 32 31 31 31 31 33 33 32 33 35
34 34 36 35 36 35 36 36 36 36 36 35 35 35 36 36
10 10 9 30 59 50 44 44 44 44 44 43 42 43 42 41
41 41 40 40 39 39 39 38 38 39 38 37 37 36 36 35
35 35 34 34 33 33 33 32 32 32 32 31 31 30 30 29
30 29 28 28 28 28 27 27 27 28 28 29 35 35 36 35
28 22 31 27 26 29 28 28 27 27 26 25 25 25 25 25
21 26 26 29 29 29 29 29 30 30 31 30 31 31 31 31
32 31 32 31 31 31 33 33 32 33 33 33 33 34 34 35
35 35 35 36 36 35 36 35 36 36 36 36 36 36 37 37
12 9 19 41 58 50 45 44 44 44 43 43 43 43 42 42
41 41 41 40 40 39 39 39 38 37 37 37 37 36 36 36
36 35 34 34 34 33 34 34 32 32 32 31 31 30 29 30
30 30 29 29 29 28 28 28 28 28 29 29 34 35 35 34
28 22 32 30 25 30 29 29 28 27 27 25 26 25 25 25
21 27 26 30 29 30 30 30 31 31 31 30 31 30 30 31
31 31 31 32 32 32 32 33 33 33 34 34 34 34 35 35
34 35 36 35 36 36 36 36 36 36 36 36 35 36 36 36
50 47 42 47 54 48 45 44 44 44 44 43 43 43 42 42
42 41 41 40 40 40 39 39 39 38 38 38 37 36 36 35
35 35 34 34 34 33 33 33 33 32 32 32 32 31 31 30
30 29 29 28 28 27 26 25 27 27 28 29 35 35 35 34
28 21 32 33 23 30 29 28 28 27 27 25 25 26 26 26
21 28 26 30 30 30 30 31 30 29 30 29 30 29 31 32
32 32 32 32 32 32 32 33 33 33 33 34 34 34 35 36
35 35 35 35 36 35 36 36 36 36 35 36 36 36 36 36
42 44 46 47 48 45 45 45 44 44 43 43 42 43 42 42
41 41 41 40 40 40 39 39 38 38 37 37 36 36 36 36
35 36 35 34 34 34 33 33 33 32 32 32 31 31 30 29
29 29 29 30 27 25 26 26 25 25 25 27 32 35 34 34
28 22 31 34 22 30 30 29 28 28 27 25 26 26 25 25
22 28 26 30 30 30 30 30 30 30 30 30 31 31 31 31
32 31 31 33 32 32 33 33 33 33 34 34 34 35 35 36
34 35 35 35 35 36 36 36 36 36 37 35 36 36 36 36
29 32 38 42 46 46 46 45 45 44 44 43 44 43 42 42
42 41 41 40 40 39 39 39 39 39 38 38 37 37 36 36
35 35 35 34 34 34 34 33 33 33 33 32 32 31 31 30
31 31 28 26 24 23 24 26 26 26 26 28 33 33 35 34
29 21 32 35 22 31 30 29 28 28 28 25 27 26 26 26
22 28 24 29 29 30 30 30 30 31 31 31 31 32 32 33
33 32 32 33 32 33 33 34 34 34 34 35 34 34 35 36
35 35 35 35 36 35 35 35 36 35 36 36 36 36 36 37
20 19 19 21 23 28 33 38 42 45 45 44 44 43 43 42
41 41 41 40 40 39 39 39 39 39 38 38 37 37 37 36
36 36 35 35 35 34 34 34 33 33 33 32 31 31 31 31
32 29 25 22 21 21 22 18 22 22 23 24 26 25 27 31
28 19 30 36 22 29 30 30 29 28 28 28 27 26 26 26
21 28 26 30 31 31 30 31 31 31 31 31 31 32 32 32
33 32 32 32 33 34 34 34 34 34 35 35 35 35 35 35
35 36 36 36 36 36 36 35 36 36 36 36 36 37 36 36
20 18 20 20 19 19 20 20 19 22 27 31 36 41 43 42
42 41 41 40 39 40 39 39 39 39 38 38 38 37 37 36
36 36 35 35 35 34 35 34 34 33 33 33 32 32 31 34
29 28 24 15 10 8 10 8 7 4 3 5 7 11 12 15
17 21 29 35 24 30 30 30 29 28 28 26 27 26 26 26
23 29 27 31 31 30 31 31 31 31 32 31 32 32 33 33
33 32 33 33 33 33 34 33 34 34 34 34 35 36 35 36
36 35 36 36 37 36 36 36 36 36 35 34 33 33 34 35
31 27 22 21 20 19 19 19 19 20 19 19 14 16 21 33
42 41 40 41 41 40 39 39 39 39 39 38 38 37 37 36
37 36 36 35 35 34 34 34 33 33 33 32 32 32 32 29
29 25 16 4 1 2 2 1 3 6 4 1 0 2 5 8
10 10 25 32 25 29 31 30 30 29 28 27 29 26 27 26
23 29 27 31 31 31 31 31 32 31 32 31 31 32 32 32
33 32 33 33 33 33 34 34 34 35 35 36 36 35 35 36
36 36 35 36 36 36 35 34 34 34 35 36 38 36 35 35
60 57 54 35 25 26 20 19 18 19 20 20 13 9 17 32
42 41 41 40 40 40 39 39 39 39 38 38 38 37 37 37
37 37 35 35 35 35 34 34 33 33 33 31 31 33 31 30
28 22 5 2 2 0 0 2 3 1 5 6 3 0 0 0
6 9 13 21 21 27 31 29 29 29 28 27 28 27 27 27
24 29 27 31 31 32 31 32 31 31 32 32 32 33 33 33
34 33 33 34 33 33 33 34 34 34 35 35 35 36 36 35
36 35 34 35 36 35 36 36 37 35 35 35 36 36 36 35
62 61 60 41 37 42 47 42 32 27 22 17 16 16 17 29
41 42 41 41 40 39 37 38 39 39 39 38 38 37 37 37
36 36 35 36 34 34 34 34 33 36 40 35 33 31 28 28
24 14 0 0 0 2 2 0 2 7 7 10 5 3 3 0
0 3 7 13 15 22 30 30 30 28 29 27 28 27 27 27
24 28 26 31 30 31 31 32 32 31 32 32 32 32 33 33
34 33 33 33 33 33 34 34 35 35 35 34 34 33 34 34
34 34 35 34 35 35 34 35 36 35 35 35 35 36 35 35
60 62 61 44 43 46 51 50 42 53 53 49 31 15 18 30
42 41 41 40 40 39 45 49 47 44 42 40 38 37 36 37
36 36 36 35 35 34 34 33 32 44 48 42 37 35 34 25
17 7 0 0 0 1 6 7 2 2 6 11 11 7 13 5
1 0 0 5 9 14 26 30 30 29 28 27 27 27 27 26
24 29 26 30 31 31 32 32 32 32 31 32 32 32 33 33
34 33 34 33 33 33 34 33 34 34 34 34 34 34 33 34
35 35 35 35 35 35 35 34 36 35 35 34 35 35 34 35
36 46 57 46 47 49 53 53 53 57 57 57 40 16 20 32
42 42 41 41 40 40 48 53 51 50 46 44 42 42 40 37
37 36 36 35 33 35 34 33 33 43 40 36 32 28 23 21
9 1 0 2 11 24 32 23 18 13 16 15 8 13 9 10
5 4 0 0 4 9 18 28 30 29 29 28 28 27 27 27
25 29 26 31 31 31 32 32 32 33 33 33 32 33 33 33
33 31 31 32 32 34 35 34 35 33 34 35 35 34 34 34
34 33 34 34 35 35 34 34 36 35 35 35 35 35 35 35
8 0 31 49 48 50 54 53 56 57 58 59 46 17 20 37
45 44 43 41 40 39 49 53 51 48 45 45 47 50 47 43
44 41 38 35 34 35 34 33 33 35 31 26 18 18 19 16
5 5 32 54 56 55 56 51 41 26 16 19 20 9 18 15
9 6 5 1 1 5 9 20 28 29 28 29 28 27 27 27
25 30 27 31 32 32 32 32 33 33 32 32 33 32 32 32
33 34 34 34 33 33 34 34 35 34 34 35 35 35 35 34
35 34 34 34 34 35 35 35 36 34 35 35 35 35 34 34
18 6 36 47 48 50 48 53 55 56 57 57 47 17 20 39
48 44 45 44 43 42 47 41 46 49 48 50 51 52 47 39
41 45 44 42 41 40 38 34 30 25 8 4 2 0 0 1
17 54 73 81 74 68 70 69 65 53 35 19 13 15 13 18
17 12 5 8 1 1 5 9 24 28 29 29 28 27 27 27
25 29 27 31 32 32 32 32 32 31 32 32 32 32 33 33
32 33 34 34 33 33 34 34 36 34 34 35 35 35 35 34
34 34 34 34 34 34 35 34 36 35 35 35 35 35 35 34
22 12 39 44 17 28 38 48 55 56 55 54 47 18 21 39
50 40 39 43 47 48 51 3 1 14 33 40 43 49 47 14
2 9 17 28 34 37 43 38 26 18 2 0 0 0 0 22
59 73 85 91 89 88 80 76 70 65 62 44 22 9 13 15
16 19 15 4 2 0 2 5 12 26 29 29 28 27 28 28
26 29 26 32 32 32 32 32 32 32 33 32 32 32 33 33
33 33 34 34 34 34 33 34 35 35 35 34 34 34 35 34
34 35 35 35 35 35 35 34 36 36 35 35 34 34 34 34
16 12 40 41 1 1 4 8 13 24 25 37 49 19 20 37
49 47 45 38 46 53 55 4 0 3 13 18 16 16 44 11
0 0 0 0 1 4 11 15 19 9 0 0 0 0 23 60
71 75 77 90 98 104 104 95 88 87 76 50 26 15 9 8
15 13 21 18 7 1 0 2 12 19 29 30 28 28 28 28
26 29 26 31 32 31 32 32 33 33 33 33 33 33 33 33
33 33 34 33 34 33 34 34 36 35 35 34 34 34 35 34
34 35 35 34 34 34 35 34 35 36 36 35 35 35 35 35
0 0 41 41 0 0 0 0 0 0 0 12 49 19 20 11
15 25 38 47 52 54 55 5 0 1 9 11 16 15 42 13
0 0 0 0 1 0 0 0 2 0 0 0 0 14 55 65
67 54 36 37 57 96 115 112 102 108 99 80 68 42 14 9
9 9 9 13 12 10 2 1 5 17 27 30 28 28 29 28
27 28 27 32 33 33 33 33 34 33 33 33 32 33 33 33
34 34 34 33 34 34 34 34 36 35 34 34 34 34 34 34
35 35 34 34 35 35 35 35 36 36 36 34 35 35 34 35
0 0 42 38 2 4 0 0 0 0 0 14 49 19 20 4
0 0 0 2 11 21 39 7 0 1 5 2 7 8 40 15
1 0 0 0 0 0 0 0 0 0 0 0 2 49 59 59
42 14 12 26 42 82 117 120 116 120 116 82 46 21 9 5
6 2 1 1 1 3 11 8 1 4 22 29 29 29 30 28
27 28 27 32 32 33 33 32 34 33 33 33 33 33 33 33
34 34 34 35 34 35 35 34 36 34 35 35 35 35 35 35
36 35 35 35 35 35 35 35 36 35 35 35 35 36 35 36
0 0 43 37 2 6 0 26 3 0 0 14 50 19 20 4
0 0 0 0 0 0 15 8 0 0 0 0 0 8 38 11
0 0 0 2 5 0 0 0 0 0 0 2 11 25 16 7
4 3 3 4 9 23 55 109 122 112 64 17 8 0 0 0
0 0 0 0 0 4 8 5 2 0 13 29 28 29 29 29
27 28 28 33 34 34 33 33 34 34 33 33 33 33 33 34
34 34 34 35 35 35 35 35 36 34 35 35 36 35 36 35
35 36 36 37 36 36 36 36 37 34 36 35 35 36 36 35
3 0 43 35 2 6 1 14 20 0 0 15 48 19 21 4
0 0 0 0 0 0 13 7 0 0 0 0 0 8 44 14
0 0 0 5 16 4 0 0 0 1 11 10 5 2 0 0
0 0 0 0 0 1 4 22 26 15 8 2 0 0 0 0
0 0 0 0 66 107 64 1 6 0 4 26 29 29 30 29
27 28 27 32 34 34 33 33 33 34 34 33 34 34 34 34
34 34 34 34 34 34 35 35 35 35 35 35 35 35 35 36
36 36 36 36 35 35 35 35 35 37 37 37 37 36 37 36
0 0 42 33 2 6 2 9 8 0 0 16 46 18 20 4
0 0 0 2 0 0 12 5 0 0 0 0 0 5 44 15
0 0 1 9 15 8 3 0 0 1 11 19 0 34 99 5
0 0 0 0 0 0 2 10 14 13 8 1 0 0 0 0
0 0 0 0 16 41 38 2 5 2 0 14 27 28 29 28
27 28 28 33 34 34 33 33 34 33 33 34 34 33 34 33
34 35 35 34 35 34 36 36 36 35 36 35 36 36 36 36
35 35 35 35 35 35 36 36 36 37 35 36 36 35 35 34
1 0 42 30 0 2 3 0 5 0 0 17 46 18 20 4
0 3 4 19 0 0 10 5 2 3 0 0 0 7 44 17
0 0 0 9 14 8 0 0 0 0 6 2 4 112 62 0
0 0 0 2 3 0 3 10 44 60 19 3 0 0 5 26
1 0 0 0 0 0 0 2 0 0 1 3 25 29 29 29
28 28 28 33 34 33 33 33 34 34 33 34 34 34 34 34
34 34 35 35 35 35 36 35 36 34 34 35 35 35 36 36
35 35 36 35 35 36 36 36 35 36 35 35 36 36 36 35
0 0 43 29 0 2 11 0 0 0 0 18 43 19 20 4
11 12 6 4 0 0 9 6 1 0 0 0 1 8 44 18
0 3 1 4 11 5 0 0 0 0 2 0 35 101 2 0
0 0 15 66 23 0 3 25 79 88 67 8 0 5 70 44
0 0 0 0 0 0 0 2 0 0 0 0 12 27 29 29
28 29 29 33 34 34 34 34 34 34 34 33 33 34 34 34
34 34 34 35 34 34 35 35 35 36 35 35 35 36 36 36
37 36 36 36 36 35 36 36 36 36 36 35 36 35 35 36
49 44 50 38 8 4 7 5 3 0 0 20 43 19 20 5
13 0 0 6 4 0 10 7 0 0 1 0 0 23 46 26
4 1 3 0 1 1 0 0 0 0 2 0 52 26 0 0
0 16 66 18 0 0 4 53 100 113 100 35 4 74 61 0
0 0 0 0 0 1 0 1 0 0 0 0 6 26 29 29
28 27 28 32 33 32 33 34 34 33 34 34 33 33 34 35
35 34 35 35 35 35 35 34 35 35 35 35 35 35 36 36
37 35 36 35 36 36 36 36 36 35 35 36 36 36 36 35
51 57 46 70 56 31 42 41 46 41 37 40 36 19 19 5
2 0 0 0 1 0 14 40 26 16 17 8 1 0 46 50
43 41 35 26 11 0 0 0 0 0 1 3 52 1 0 0
1 56 16 0 0 1 21 89 120 131 125 87 14 53 4 0
0 0 0 0 0 1 0 2 0 0 0 1 5 22 29 28
28 26 29 32 34 33 33 32 34 33 34 34 34 34 34 33
34 34 34 34 35 34 35 34 35 35 35 36 35 36 36 35
36 35 35 36 36 35 35 36 35 34 33 33 36 32 35 32
2 35 69 73 47 34 48 55 58 55 55 54 36 18 19 4
0 0 0 0 0 0 17 59 52 44 48 48 46 40 56 36
15 18 22 23 15 0 0 0 0 0 1 13 55 0 0 0
0 0 0 0 0 4 62 109 130 141 140 122 63 9 8 0
0 0 0 0 0 1 4 4 0 0 0 0 5 18 29 28
28 26 29 31 33 32 32 33 33 33 34 33 33 33 34 34
35 34 35 34 34 34 34 34 34 34 34 35 35 36 35 35
36 35 35 33 33 32 32 34 34 34 33 32 30 27 24 20
0 39 70 69 40 37 47 53 56 55 59 57 36 19 20 5
0 0 0 0 0 0 17 62 43 49 54 56 60 50 47 33
15 16 16 13 7 0 0 0 0 0 1 20 38 0 0 0
0 0 4 56 9 32 107 115 138 145 143 137 122 48 9 10
9 9 11 10 18 16 42 34 0 1 0 1 7 11 29 28
27 26 29 32 33 33 33 33 33 33 33 34 34 33 33 33
35 34 34 34 34 34 35 36 35 34 35 35 35 34 35 35
36 35 34 36 35 29 28 25 22 18 16 15 14 14 14 15
0 38 65 57 22 23 37 46 49 53 56 59 38 20 21 34
38 29 19 9 3 0 18 51 39 51 54 57 61 54 44 32
17 18 16 11 4 0 0 0 0 0 7 6 1 0 12 48
0 1 49 38 14 83 101 65 122 139 114 55 134 110 83 72
63 49 45 50 70 89 82 56 1 4 0 2 7 6 28 29
28 26 30 32 34 33 33 33 33 32 32 33 33 33 32 32
34 34 34 34 36 34 35 34 36 36 36 36 36 34 32 30
27 23 21 27 34 14 11 14 15 16 17 17 18 19 20 20
0 38 67 57 8 0 0 0 0 2 4 31 38 20 22 40
57 57 55 53 50 45 49 45 38 49 53 54 59 54 48 37
19 17 15 11 2 0 1 1 0 0 11 48 20 12 27 25
11 22 38 45 69 106 57 20 94 117 100 23 111 121 105 121
120 114 117 119 120 117 100 73 11 5 4 4 3 8 24 29
28 26 31 32 34 33 33 33 33 33 33 34 33 34 33 32
34 35 35 36 36 37 36 34 32 29 25 22 19 17 16 16
16 16 16 22 32 13 17 20 22 23 24 24 25 25 26 27
0 35 66 58 6 0 2 0 0 0 0 26 40 22 23 42
58 57 56 55 56 56 59 31 8 16 26 32 41 42 42 42
20 16 15 8 0 1 2 0 0 0 19 60 63 72 63 58
77 100 114 98 82 105 100 96 110 116 127 126 128 115 115 133
134 131 129 125 123 121 110 85 26 4 8 6 7 2 20 29
28 26 31 32 34 34 33 32 32 31 30 29 31 35 36 36
35 33 31 27 25 22 20 18 17 16 17 18 19 20 21 21
23 23 23 24 32 15 22 26 28 28 29 29 30 31 31 31
0 32 66 55 3 0 0 0 1 8 7 26 39 20 21 38
55 56 55 58 58 59 60 25 1 0 0 1 8 17 27 43
18 15 12 3 1 5 0 0 0 0 35 66 77 91 95 100
109 122 135 132 97 88 94 93 107 111 98 102 107 110 117 129
138 138 137 135 127 123 114 94 43 1 9 6 12 0 17 28
28 26 29 29 29 30 30 30 30 31 32 21 20 27 24 21
19 18 18 19 19 20 21 22 23 24 24 25 25 27 27 27
29 29 29 28 36 20 28 31 32 32 32 33 34 33 34 33
0 28 60 49 2 0 0 0 12 39 37 34 41 36 32 37
42 43 43 44 45 50 55 20 0 0 0 1 1 7 30 44
17 14 13 6 3 1 0 0 0 0 50 69 86 93 98 109
121 135 144 127 98 82 79 94 96 94 101 103 96 102 113 121
135 142 144 142 136 125 112 98 55 1 2 5 14 4 11 23
26 26 29 31 30 29 27 25 22 20 19 17 15 18 19 20
22 22 23 25 25 26 27 28 28 28 29 30 31 32 32 33
33 33 31 23 18 12 30 33 33 34 35 35 35 35 35 35
0 28 57 46 0 0 0 0 9 36 34 27 33 26 25 28
26 28 37 39 36 47 55 17 0 0 0 2 5 0 22 44
15 10 8 5 4 0 0 1 0 1 58 74 89 96 100 112
128 140 140 109 85 76 91 102 110 111 120 123 115 97 96 115
127 140 146 145 142 129 111 103 60 0 0 4 7 5 6 16
14 18 20 20 16 17 18 18 20 21 22 22 23 25 26 26
28 28 30 31 31 31 33 33 33 33 34 33 33 33 33 33
33 33 32 13 4 2 29 34 36 37 36 35 35 35 36 35
0 31 58 45 0 1 4 0 2 16 19 26 32 28 27 29
32 30 36 37 36 46 53 16 0 0 0 0 3 0 21 41
2 1 6 1 1 0 1 0 0 2 61 77 88 96 102 117
131 138 123 92 78 92 103 102 105 106 112 121 129 121 104 101
115 132 145 147 142 130 115 103 63 0 0 0 3 7 5 16
16 14 17 16 20 22 22 23 24 25 27 28 28 29 31 31
32 32 33 34 33 34 34 34 34 34 35 35 35 36 35 30
24 20 31 12 11 1 26 34 35 36 36 35 35 35 35 35
0 35 59 44 0 1 5 0 0 0 0 13 25 21 23 20
17 25 33 39 45 50 51 16 0 0 0 0 0 0 25 39
0 0 2 0 0 0 2 0 0 3 63 77 85 96 104 118
132 131 99 83 95 104 93 89 81 63 78 100 105 120 123 115
110 123 140 145 144 134 119 108 65 0 0 0 4 4 6 20
19 16 21 18 25 27 28 28 30 30 30 30 32 32 32 32
32 33 34 34 36 36 36 36 36 36 35 35 36 36 15 0
0 4 26 8 2 1 26 34 35 37 36 36 36 35 35 35
0 40 60 42 0 0 6 8 1 0 0 16 32 31 29 13
0 0 0 0 2 6 19 16 0 0 0 0 0 0 28 37
0 0 1 0 0 1 0 0 0 2 62 76 87 93 105 120
131 118 84 100 106 95 73 80 94 100 101 104 97 92 113 122
121 120 136 143 142 135 121 111 68 0 0 0 5 10 10 25
25 19 25 22 30 30 30 31 32 32 30 32 33 34 34 34
34 35 35 36 36 35 36 36 36 36 36 36 36 36 30 25
30 33 32 14 0 0 25 33 35 36 35 35 35 36 35 35
0 44 60 41 0 0 0 12 5 0 0 17 39 35 30 15
0 0 1 2 0 0 8 14 0 0 2 3 1 0 25 32
0 0 0 0 0 5 1 0 0 2 59 79 86 96 106 118
126 108 89 108 100 62 76 103 117 116 116 124 122 110 96 103
119 126 133 137 138 134 122 110 71 16 0 0 0 14 22 26
27 22 26 24 31 32 32 32 33 32 32 34 34 35 35 34
35 35 36 35 35 35 36 37 36 36 35 36 35 36 35 34
34 33 30 17 0 1 26 34 35 36 35 35 35 35 36 36
36 49 55 41 0 0 0 10 9 3 0 17 44 36 30 16
0 0 0 3 0 0 7 15 0 0 14 15 6 0 26 30
0 0 0 0 0 1 0 0 0 0 54 77 84 97 105 117
118 105 99 109 88 85 104 109 110 98 98 109 119 123 120 115
115 133 136 132 138 136 122 110 73 35 2 2 0 4 16 29
29 23 30 28 33 33 33 33 33 33 33 34 34 35 35 33
35 35 35 35 36 35 36 36 37 36 36 36 36 35 35 35
33 32 31 23 1 4 27 34 35 36 34 34 35 34 34 34
36 42 46 44 19 12 5 13 19 13 4 14 45 31 28 16
0 1 10 14 2 0 6 15 0 5 23 19 9 0 27 27
0 1 0 0 0 0 0 0 0 0 49 73 84 97 105 111
113 108 107 103 101 102 112 116 119 119 119 124 131 132 128 123
124 132 137 124 131 132 126 112 84 60 9 3 0 9 8 22
27 23 30 28 33 33 33 33 33 32 34 35 34 35 35 35
35 35 35 35 35 35 36 36 36 36 35 35 36 35 35 34
35 32 30 24 10 13 29 35 35 36 35 34 35 35 35 34
10 26 48 45 43 50 44 40 48 45 40 42 49 29 27 15
0 7 20 23 11 2 5 24 5 12 20 18 16 1 26 26
1 2 0 0 0 0 0 1 3 4 38 71 82 94 104 105
103 108 118 107 112 113 120 121 124 126 129 132 134 132 131 130
129 126 139 131 126 127 122 110 76 76 27 11 0 1 6 11
28 24 31 29 34 33 33 33 32 33 34 34 34 34 34 34
35 35 35 35 35 35 35 36 36 35 35 35 35 34 34 34
34 32 29 25 24 24 32 34 35 36 35 34 35 34 34 35
18 32 49 45 14 9 14 26 34 46 53 55 53 31 25 16
0 5 17 18 9 2 5 48 44 47 48 45 44 41 48 26
0 0 0 0 0 0 0 2 10 17 32 69 85 95 102 103
98 106 111 101 114 113 117 120 125 128 132 134 134 131 131 132
127 126 133 130 128 125 118 109 83 92 51 14 0 0 4 5
22 24 31 29 34 33 33 33 33 34 34 35 34 35 34 34
34 35 35 35 35 34 35 34 36 35 35 35 35 34 35 34
34 33 30 27 27 30 34 34 34 35 34 34 35 34 34 34
14 38 51 46 11 2 0 2 9 3 41 55 49 30 25 17
1 1 6 2 4 0 4 47 45 50 51 49 52 58 60 37
12 12 2 0 0 0 0 5 19 36 29 66 82 92 99 100
97 108 103 100 112 112 114 117 121 122 128 128 129 131 129 132
131 129 131 130 126 123 116 106 84 111 72 25 0 0 0 8
15 24 32 30 34 33 33 33 34 34 33 34 34 34 33 34
35 34 35 35 34 35 35 35 35 35 35 35 35 35 35 34
33 33 31 29 29 34 35 34 34 35 35 35 35 35 35 35
10 33 53 47 8 0 4 24 38 13 47 53 44 29 26 25
21 1 6 2 1 0 4 47 47 49 50 48 54 61 61 48
37 33 7 0 0 0 2 19 37 44 37 62 80 90 96 94
97 103 101 100 107 108 112 112 115 121 130 127 127 128 126 128
130 126 120 123 126 119 115 102 89 104 85 16 0 0 0 0
18 23 32 29 33 33 33 33 33 34 33 34 34 33 34 34
34 34 34 34 34 34 34 34 34 35 35 35 35 35 34 34
33 33 32 32 32 34 35 34 34 34 34 34 34 34 35 34
0 35 55 49 7 0 4 10 41 31 49 50 35 27 28 27
13 0 5 0 1 0 3 44 37 43 44 43 46 44 44 42
39 37 15 0 0 0 11 46 69 81 53 59 76 89 96 94
95 99 95 93 96 102 104 108 119 118 122 123 121 119 116 114
119 116 107 116 120 115 110 93 94 93 73 2 0 0 0 1
11 24 33 29 34 33 32 33 33 34 33 33 34 34 34 34
33 34 35 35 35 35 35 35 34 35 36 36 36 35 34 34
34 33 32 31 32 33 34 33 33 34 35 35 35 34 34 32
0 35 57 51 10 0 2 3 9 21 51 52 32 30 31 26
5 0 1 2 0 0 3 48 39 41 42 41 42 39 35 38
41 41 31 1 0 0 13 55 70 86 69 57 70 83 89 90
92 91 89 88 85 87 95 103 109 112 115 112 110 114 111 110
103 103 107 109 112 107 104 84 104 106 56 0 0 0 0 0
11 23 32 29 33 32 34 34 33 34 33 34 34 34 34 34
34 34 35 34 34 34 34 34 34 34 35 34 34 34 33 34
34 34 33 33 35 35 34 34 35 34 35 34 34 34 34 34
0 39 58 53 11 0 0 0 0 11 50 52 30 30 27 28
28 23 17 15 10 6 7 51 41 41 41 40 40 41 41 44
43 43 40 6 0 0 2 57 60 60 71 60 63 76 81 83
85 80 80 73 68 74 81 92 88 98 103 99 91 97 95 95
85 93 102 106 106 100 88 83 114 103 50 0 0 0 0 0
9 23 32 29 34 33 33 33 34 34 33 33 33 33 33 33
33 33 33 33 34 34 34 34 35 35 34 34 34 34 34 34
33 33 33 34 35 34 34 35 35 35 34 34 35 35 34 34
0 35 58 53 11 0 0 0 0 5 48 54 31 30 28 35
53 54 52 50 55 57 55 57 45 44 43 43 43 45 48 51
46 45 45 14 0 0 0 22 62 70 82 69 55 67 75 73
73 71 66 57 53 55 62 73 77 73 82 75 77 81 77 76
74 83 95 98 99 87 70 55 43 92 42 0 0 0 1 0
5 17 28 28 34 32 32 32 33 32 32 32 34 34 35 35
34 35 33 34 33 33 34 34 35 34 35 35 35 34 34 34
34 35 34 35 35 35 34 34 34 34 35 34 34 34 34 34
0 34 57 50 5 0 0 0 0 7 50 56 30 30 29 36
63 64 62 63 62 62 60 60 47 44 38 40 40 44 51 55
48 46 46 18 0 0 0 1 54 70 82 71 45 54 64 67
67 62 62 53 47 44 48 54 60 60 58 64 62 65 65 67
73 79 84 89 84 72 60 15 0 14 5 0 0 0 6 6
14 21 30 29 34 33 33 33 33 33 34 34 34 35 35 35
36 35 34 34 34 34 34 34 35 34 34 34 34 33 33 33
33 34 33 34 35 35 35 34 34 35 35 35 34 33 34 33
0 32 57 50 4 0 0 0 0 6 49 55 29 28 30 32
50 53 54 55 57 58 60 62 28 12 16 8 10 13 21 42
50 45 29 4 0 0 0 0 34 71 53 14 47 43 53 58
61 58 56 49 42 42 40 44 52 59 57 56 61 66 65 69
69 76 81 84 77 62 46 0 0 0 0 0 0 0 13 14
20 22 31 28 34 33 32 33 33 33 34 34 34 34 34 35
35 34 34 34 33 33 33 33 33 33 33 33 33 33 34 34
33 35 34 35 34 34 34 34 34 34 34 34 34 33 32 32
0 30 57 51 4 0 0 0 0 2 46 49 26 29 30 26
33 34 33 33 33 32 32 37 21 1 0 0 0 0 0 28
49 37 6 0 0 0 0 0 6 26 4 0 38 41 43 49
56 56 53 47 45 42 42 51 59 63 64 64 67 68 70 78
82 88 87 80 71 65 42 0 0 0 0 0 0 0 15 18
26 26 31 28 33 32 33 33 33 33 34 34 34 34 34 34
34 33 33 33 33 32 33 33 33 34 33 31 30 28 26 23
20 25 31 34 34 34 34 34 34 33 34 34 34 33 32 31
0 30 57 52 5 0 0 0 0 2 47 54 28 28 28 29
42 42 41 40 39 37 36 39 23 9 3 0 0 0 12 32
45 19 1 0 0 0 0 0 0 0 0 0 35 46 40 46
51 51 52 51 48 52 54 60 63 65 69 70 71 71 79 85
91 91 89 85 77 67 44 0 0 0 0 0 0 3 17 23
28 27 31 29 33 32 32 33 33 33 33 33 33 33 32 32
29 27 25 22 19 23 26 32 33 33 33 20 5 6 5 6
5 10 31 35 35 33 33 34 34 33 33 32 32 33 33 31
44 52 55 49 5 0 0 0 0 2 52 57 29 26 29 30
44 45 46 45 44 44 45 45 24 6 3 0 0 0 11 32
44 12 0 0 0 0 0 0 0 0 0 0 32 48 48 45
49 51 57 61 57 59 67 73 71 70 71 72 75 76 80 85
92 94 95 89 76 72 49 0 0 0 0 0 0 7 15 24
27 27 31 28 33 33 32 33 33 33 34 34 32 12 8 7
8 8 3 3 2 0 3 28 33 33 33 20 5 5 4 6
5 9 32 34 35 35 34 34 34 34 34 33 32 32 33 31
55 53 39 30 23 19 12 10 4 6 51 51 25 25 29 30
45 47 47 45 45 46 47 47 24 4 4 0 0 8 6 23
39 6 0 0 0 0 0 0 0 0 0 0 26 51 54 53
54 55 63 69 64 62 73 79 84 87 86 92 91 94 96 99
94 93 95 89 81 81 52 0 0 0 0 0 0 4 16 25
28 27 31 29 33 32 33 32 33 33 33 34 31 6 2 7
7 9 3 2 2 1 2 26 32 32 32 17 5 5 6 6
6 8 32 35 34 35 34 33 34 32 33 33 32 32 31 31
52 52 50 46 51 50 49 49 47 46 48 45 38 35 35 27
18 19 20 22 21 24 36 51 28 1 0 0 0 9 6 18
37 5 0 0 0 0 0 0 0 0 0 0 28 55 58 59
60 60 65 72 74 84 91 96 104 108 108 107 108 104 105 102
100 95 96 90 88 86 54 0 0 0 0 0 0 6 19 25
26 26 30 28 31 32 32 32 32 33 33 32 31 6 2 6
7 9 3 1 1 0 1 23 31 32 32 15 5 5 5 4
5 6 28 34 35 34 34 32 34 33 33 33 33 32 32 32
50 49 48 48 47 46 46 46 46 45 45 45 45 44 44 44
43 41 41 35 2 1 16 52 38 14 1 0 2 8 4 15
40 3 0 0 0 0 0 0 0 0 0 0 28 62 64 66
69 66 66 78 77 91 106 112 116 116 123 120 118 119 115 110
106 103 103 94 91 93 59 0 0 0 1 0 2 9 17 26
27 27 30 28 32 31 32 32 32 32 33 32 30 6 1 6
8 9 3 1 1 0 1 24 31 32 32 18 5 5 6 5
5 4 29 35 34 33 33 32 32 31 29 30 31 31 31 30
49 49 48 48 48 47 47 46 46 45 44 45 44 44 44 43
43 42 42 40 6 0 12 51 35 6 0 0 0 8 6 16
41 2 0 0 0 0 0 0 0 0 0 0 23 68 67 74
75 69 67 78 80 89 105 115 117 119 120 120 120 115 118 116
106 106 103 97 96 99 66 0 0 0 2 0 2 7 18 25
26 25 29 29 32 32 31 32 33 32 33 33 31 8 2 5
9 8 3 1 1 0 1 24 32 31 32 22 10 9 9 10
12 10 23 31 32 32 32 32 34 33 34 31 32 32 32 31
48 48 47 46 47 46 46 45 44 44 44 44 44 44 43 43
43 42 42 41 10 0 8 45 27 0 0 0 0 0 0 16
43 3 0 1 2 1 0 0 0 0 0 0 18 71 73 80
80 75 79 81 78 85 102 112 122 125 123 122 127 120 122 109
100 108 106 100 102 104 74 0 0 0 2 0 2 9 18 26
26 25 26 26 31 32 31 32 32 32 32 31 30 8 1 5
7 7 3 1 2 0 1 23 32 32 32 23 11 12 10 10
11 10 22 32 34 34 34 33 33 32 32 32 33 32 33 31
15 15 15 15 15 15 15 15 16 16 16 17 18 19 19 20
23 34 40 42 13 0 5 39 23 0 0 0 0 1 1 13
46 6 0 0 3 3 0 0 0 0 0 0 17 74 77 82
83 84 86 83 82 84 97 118 123 130 127 130 136 135 127 115
109 109 111 106 105 108 79 0 0 0 2 1 7 8 17 25
26 25 27 26 31 30 30 31 32 32 31 32 31 10 2 2
3 2 1 1 2 0 0 22 31 33 31 23 5 7 6 6
5 6 21 33 34 34 33 33 33 33 33 33 32 32 32 32
0 0 0 0 0 0 0 0 0 0 0 0 0 0 0 0
5 40 43 41 18 0 3 35 26 5 4 3 3 11 11 15
47 26 17 16 12 3 1 0 0 0 0 0 13 74 82 85
87 90 94 91 80 80 96 117 127 136 130 133 138 136 124 117
114 118 116 113 109 110 82 0 0 3 3 3 12 10 16 25
26 26 27 27 31 31 31 31 32 33 32 32 30 9 1 2
1 0 3 2 4 1 1 22 31 33 31 23 5 5 5 5
6 4 16 25 33 34 33 33 33 32 33 32 32 32 30 31
0 0 0 0 0 0 0 0 0 0 0 0 0 0 0 0
4 43 45 40 21 0 0 31 42 43 38 34 37 39 40 43
42 55 55 49 37 8 2 0 0 0 0 0 8 75 86 90
92 98 102 99 84 82 104 120 132 139 136 135 140 140 126 119
117 120 122 119 111 110 84 0 0 2 0 9 17 8 14 23
24 25 26 26 30 30 30 31 32 33 34 31 29 10 2 3
2 5 7 2 3 0 0 21 30 33 32 25 5 5 0 0
0 0 1 0 32 33 33 33 32 33 33 32 32 31 32 31
0 0 0 0 1 1 0 0 0 0 0 0 0 0 0 0
2 41 46 39 23 0 0 27 45 46 38 39 41 39 33 34
35 50 57 52 41 19 5 0 0 0 0 0 5 76 87 94
100 102 107 101 84 89 108 119 131 137 139 138 141 138 126 121
118 123 126 125 116 111 89 3 0 1 3 15 18 9 15 22
24 24 26 27 30 30 30 31 32 32 33 31 27 11 3 2
3 4 4 3 3 0 1 21 31 32 31 24 5 4 0 1
4 3 2 0 31 33 33 33 33 32 33 32 31 31 31 30
0 0 0 1 1 0 0 0 0 0 0 0 0 0 0 0
0 40 46 39 26 0 0 23 45 40 34 37 40 40 35 33
35 33 37 37 35 25 10 0 0 0 0 0 4 73 88 99
106 106 112 101 85 89 108 116 127 137 144 146 146 142 131 121
117 123 129 131 120 110 91 6 0 1 6 16 19 10 11 21
23 24 24 26 28 29 30 31 32 33 33 30 27 11 3 2
0 0 3 2 3 0 0 20 31 32 31 24 5 5 0 0
0 0 0 0 30 33 32 32 32 31 32 31 32 31 31 30
1 0 1 1 0 0 0 0 0 0 0 0 0 0 0 0
0 38 46 39 29 0 0 21 42 25 32 30 32 38 36 34
38 29 24 25 25 20 14 0 0 1 0 0 2 69 89 102
108 113 118 102 88 95 110 118 123 138 145 145 147 141 132 123
119 124 131 132 124 110 95 9 0 4 10 24 18 13 12 22
23 23 24 24 27 28 29 31 32 32 33 29 27 12 2 2
0 1 2 2 3 1 0 19 31 32 32 24 3 4 0 0
0 0 0 0 30 33 31 31 32 33 33 32 31 31 31 30
0 0 0 0 1 1 1 0 0 0 0 0 0 0 0 0
0 34 47 39 31 3 12 29 43 10 10 12 15 17 18 18
35 31 29 30 29 36 33 3 0 0 0 0 1 68 90 103
110 115 119 102 91 96 111 119 125 137 147 148 146 136 132 125
121 124 133 136 129 111 96 12 0 4 31 45 43 41 40 38
37 35 33 30 25 26 28 30 31 32 32 29 27 13 2 2
2 2 1 1 2 0 0 17 30 31 32 25 4 2 0 2
0 0 0 0 20 9 7 5 22 32 32 31 31 31 31 30
0 1 0 0 0 0 0 0 0 0 0 0 0 0 0 0
0 30 48 39 36 31 38 42 44 3 0 0 0 0 4 8
34 34 43 47 36 50 55 16 0 0 0 0 0 64 88 105
113 118 121 105 93 98 111 119 121 126 138 145 141 135 134 129
125 128 136 138 132 115 98 17 1 5 44 48 44 43 43 41
39 37 36 35 26 25 27 31 31 32 32 28 27 14 1 1
1 2 1 1 2 0 0 17 31 31 31 25 4 0 24 35
3 0 0 0 12 28 33 27 4 30 32 31 31 30 30 29
0 0 0 0 0 1 0 0 0 0 0 0 0 0 0 0
0 26 48 38 37 46 49 52 48 4 0 0 0 0 0 5
39 32 42 47 28 42 49 16 0 0 0 0 1 65 86 104
113 122 124 108 94 101 111 119 124 124 129 137 141 139 135 130
128 133 139 136 133 118 99 32 0 13 43 47 45 44 43 41
39 37 37 35 27 23 26 29 31 32 31 29 26 14 1 2
1 1 1 0 1 0 0 16 30 31 31 28 15 7 20 22
7 0 0 13 32 31 32 31 14 21 32 31 32 31 31 30
0 1 0 0 0 1 0 0 0 0 0 0 0 0 0 0
0 24 48 38 37 48 52 54 52 10 0 0 0 0 0 1
39 31 40 43 3 4 24 18 0 0 0 0 2 67 85 103
115 123 125 117 101 101 111 119 125 128 133 139 144 142 138 129
128 138 141 139 134 121 103 61 19 24 46 47 46 44 43 41
36 37 36 35 29 20 26 29 31 31 31 29 27 15 1 2
1 1 1 1 1 1 0 15 30 31 31 30 30 13 6 1
2 0 0 13 33 32 32 31 19 15 32 29 30 30 30 29
0 0 1 0 0 0 0 0 0 0 0 0 0 0 0 0
0 21 47 38 36 34 32 31 27 3 0 0 0 0 0 2
40 31 40 42 2 2 22 19 0 0 0 0 18 72 87 104
120 121 126 125 112 106 111 120 127 133 140 145 147 145 139 130
130 143 144 141 134 121 104 60 48 35 47 46 46 44 42 40
38 36 36 35 31 16 25 28 29 29 29 28 27 15 0 1
1 0 1 0 0 0 0 13 28 28 31 31 30 16 0 0
0 0 3 13 33 32 32 32 17 17 33 31 31 30 29 29
0 0 0 0 0 0 0 0 0 0 0 0 0 0 0 0
0 17 47 38 35 18 13 16 12 0 0 0 0 0 0 2
40 30 41 42 2 2 20 22 0 0 0 8 36 76 88 104
120 124 128 129 122 110 111 121 133 140 145 146 147 147 139 129
138 146 145 143 136 122 103 62 73 45 47 46 46 44 40 38
39 36 36 34 32 14 23 25 28 29 30 28 27 16 1 1
1 1 0 0 1 0 0 15 31 31 32 20 3 10 0 0
0 0 0 8 32 31 31 31 12 23 31 31 31 30 29 28
0 0 0 0 0 0 0 0 0 0 0 0 0 0 0 0
0 14 46 38 34 20 15 17 12 0 0 0 0 0 0 4
41 29 42 42 2 2 18 23 0 0 0 35 50 73 89 107
119 123 128 132 130 118 110 119 133 140 145 148 148 147 142 132
143 147 145 143 138 123 82 66 79 77 50 47 47 45 41 40
40 36 36 34 32 16 22 25 27 29 29 28 27 17 3 2
1 1 1 1 0 0 4 18 29 30 30 17 25 39 8 0
0 0 0 9 31 31 31 25 6 30 31 30 31 30 29 28
0 0 0 0 0 0 0 0 0 0 0 0 0 0 0 0
0 12 45 38 34 23 18 20 14 0 0 0 0 2 0 0
38 29 42 42 2 3 16 24 3 0 9 51 59 53 88 106
118 123 127 135 136 127 113 118 129 141 145 148 148 147 142 135
146 147 146 143 139 124 51 63 71 92 68 47 46 44 41 39
39 36 35 34 32 17 19 25 27 29 29 28 27 25 21 20
14 12 12 6 2 2 11 17 20 20 18 9 15 12 4 0
0 0 0 3 12 12 14 5 22 14 8 18 31 30 29 28
0 0 0 0 0 0 0 0 0 0 0 0 0 0 0 0
0 12 46 37 33 26 23 22 14 0 3 0 0 7 2 0
39 30 43 42 13 5 16 25 7 6 46 54 75 28 87 107
116 123 129 138 139 134 120 119 126 137 145 148 148 148 143 139
148 148 147 144 138 105 38 68 83 95 80 50 47 44 43 40
40 38 37 35 33 22 17 24 26 28 29 28 26 26 25 23
11 2 1 0 0 0 0 0 0 0 0 0 0 0 0 0
0 0 0 0 0 0 0 0 11 6 7 14 33 31 30 30
0 0 0 0 0 0 0 0 0 0 0 0 0 0 0 0
0 10 45 37 33 27 24 24 16 2 8 0 0 9 16 2
37 31 44 39 19 12 14 23 3 25 69 54 67 27 63 104
118 123 126 135 141 142 131 122 124 136 144 147 148 148 144 143
148 148 147 144 135 67 48 71 88 96 91 52 55 46 44 39
38 37 36 34 31 26 14 23 26 28 29 28 27 25 25 23
9 0 1 4 6 7 8 10 10 11 12 13 14 15 16 17
19 21 22 21 13 0 0 23 7 3 29 28 32 32 31 35
0 0 0 0 0 0 0 0 0 0 0 0 0 0 0 0
0 9 44 38 33 27 24 24 22 4 10 6 5 14 20 13
37 35 45 38 14 22 12 21 2 51 71 57 84 50 33 94
118 123 125 132 141 145 143 131 128 133 138 146 148 147 146 148
148 148 147 142 110 44 65 68 74 96 96 66 39 54 54 54
43 36 35 34 31 28 12 22 25 27 27 27 25 25 25 24
9 0 7 18 21 22 23 24 25 25 25 24 25 26 27 27
29 29 28 25 14 0 0 6 3 0 2 2 3 2 6 49
0 0 0 0 0 0 0 0 0 0 0 0 0 0 0 0
0 8 44 37 33 29 26 25 34 39 43 44 45 45 46 47
54 42 44 34 5 28 14 30 28 69 74 63 72 69 25 59
117 126 123 128 140 145 146 141 137 135 133 137 144 147 148 148
148 148 146 136 71 49 75 74 80 96 102 92 66 51 44 65
73 53 35 35 33 30 11 21 24 25 27 28 23 6 4 3
4 0 8 18 21 24 26 27 27 27 27 27 28 28 30 30
31 30 29 26 15 0 0 0 0 0 0 0 0 0 5 49
0 0 0 0 0 0 0 0 0 0 0 0 0 0 0 0
0 7 44 39 33 29 27 24 34 51 51 51 51 51 51 52
57 52 43 35 0 12 13 33 45 73 73 66 54 79 38 37
94 130 129 124 135 147 148 147 144 145 143 144 147 148 148 148
149 148 147 111 53 54 79 79 85 97 105 101 74 82 46 52
85 85 62 36 32 30 13 19 23 26 26 26 22 0 0 0
0 0 9 18 22 26 27 28 28 28 29 28 29 30 30 31
32 31 30 27 17 0 0 0 0 0 0 0 0 0 6 46
0 0 0 0 0 0 0 0 0 0 0 0 0 0 0 0
0 6 45 39 33 29 28 26 27 50 48 47 48 45 45 44
46 46 40 34 0 7 31 40 54 72 75 72 58 88 57 34
65 120 130 126 136 145 148 149 148 148 149 148 148 148 148 148
148 148 140 70 53 73 76 87 88 98 110 103 71 74 76 57
69 77 86 70 39 33 24 19 21 23 25 25 22 0 0 0
0 0 9 18 21 25 26 28 30 29 29 30 30 31 32 33
32 32 30 28 17 0 0 0 0 0 0 0 0 32 43 43
0 0 0 0 0 0 0 0 0 0 0 0 0 0 0 0
0 6 44 39 33 29 26 25 18 17 15 14 14 14 14 15
18 19 36 35 3 33 43 52 58 76 78 76 58 81 68 51
59 98 126 127 134 145 149 149 149 149 148 149 148 148 148 148
148 148 111 54 64 76 73 93 74 94 108 107 76 95 91 85
55 59 80 89 75 28 12 33 44 43 36 24 24 13 4 0
0 0 11 18 22 25 27 28 29 30 30 30 31 32 33 33
34 32 31 29 18 0 0 0 0 0 0 0 0 38 42 41
0 0 0 0 0 0 0 0 0 0 0 0 0 0 0 0
0 6 43 39 32 29 27 26 20 15 14 14 14 14 14 15
18 19 37 39 39 40 46 61 50 78 76 78 64 59 72 76
62 90 110 124 127 141 148 149 150 149 150 149 149 149 148 148
148 133 71 58 74 75 64 23 88 90 105 102 74 96 88 96
95 30 67 92 94 89 77 60 56 52 46 56 52 37 17 14
0 1 12 18 21 23 26 28 29 30 31 31 32 33 34 34
34 33 32 31 17 0 0 0 0 0 0 0 1 38 40 38
0 0 0 0 0 0 0 0 0 0 0 0 0 0 0 0
0 5 42 38 32 29 27 26 25 20 19 19 17 17 17 17
19 20 39 49 41 21 59 58 62 70 78 81 73 70 93 78
79 85 107 109 123 136 144 149 149 149 149 149 149 148 147 148
140 87 62 68 89 87 58 0 51 95 106 107 79 71 82 98
99 55 35 79 95 90 91 87 81 80 77 40 48 72 68 51
15 3 13 19 21 24 26 28 28 29 30 31 32 33 34 34
34 34 33 32 18 0 0 0 0 0 0 0 2 36 36 35
0 0 0 0 0 0 0 0 0 0 0 0 0 0 0 0
0 6 42 38 31 27 26 26 25 23 22 22 22 22 21 21
22 21 46 51 27 23 61 57 71 64 79 79 78 63 94 71
77 85 107 111 103 126 137 148 150 149 149 149 149 148 146 148
118 70 65 86 81 92 37 0 12 95 106 110 86 100 78 102
100 74 44 54 86 91 89 89 88 83 80 74 36 62 74 74
70 55 41 24 21 23 25 27 28 29 31 32 33 34 35 34
35 34 34 33 18 0 0 5 17 5 0 0 5 35 34 34
0 0 0 0 0 0 0 0 0 0 0 0 0 1 2 2
3 12 46 39 32 28 26 26 26 23 22 22 22 22 22 23
22 31 69 46 17 51 57 51 68 55 80 78 81 67 76 42
14 65 107 120 103 103 122 145 150 149 149 149 148 144 145 133
90 68 83 95 76 45 0 0 1 77 106 106 84 102 80 105
101 77 96 47 76 91 88 86 87 83 81 82 74 35 80 74
74 73 68 68 60 52 45 35 30 29 31 32 33 33 33 34
34 34 34 34 18 0 0 6 18 5 0 0 7 35 34 33
11 13 14 17 17 18 20 23 24 26 27 28 29 30 31 31
32 32 33 32 31 28 26 22 16 23 23 22 23 22 23 33
35 67 72 45 27 65 59 53 48 55 68 80 81 76 53 2
3 32 85 117 111 102 96 124 149 149 149 149 148 142 133 107
84 91 102 102 55 4 0 0 0 37 110 109 91 86 79 105
102 74 78 54 75 83 89 85 86 86 84 86 84 62 47 84
76 77 71 71 71 68 65 66 61 46 32 31 33 33 34 34
35 34 35 34 17 0 0 0 0 0 0 0 9 34 34 34
41 39 30 18 21 24 19 17 28 36 36 36 35 34 34 33
33 32 32 32 31 27 27 25 24 12 24 22 25 39 53 53
52 79 73 38 45 66 66 54 46 77 54 79 81 81 46 0
9 32 62 95 114 109 96 92 129 149 148 149 145 127 115 104
100 96 101 92 48 62 8 0 1 6 89 111 92 96 83 104
103 77 86 73 55 83 84 89 85 87 88 87 88 84 44 73
77 70 76 73 66 67 69 62 63 54 42 30 31 31 32 32
33 34 33 33 17 0 0 0 0 0 0 0 13 34 33 33
39 15 20 35 38 38 37 34 21 17 34 36 35 34 34 33
32 32 31 32 32 36 40 31 34 33 25 26 41 51 57 56
72 83 68 29 62 66 78 53 52 64 68 67 85 84 51 0
8 37 63 61 92 111 104 95 110 144 146 138 121 113 108 87
60 85 110 88 54 72 36 13 23 29 55 103 94 105 91 107
102 86 98 90 47 71 81 92 86 86 91 87 86 87 73 39
87 73 81 49 61 65 68 67 60 59 53 30 30 31 32 32
33 33 33 33 15 0 0 0 0 0 0 0 16 34 33 32
13 34 39 39 39 38 38 37 37 32 15 31 35 34 34 32
31 29 29 32 40 40 34 21 38 55 58 55 51 56 65 66
79 77 64 44 51 42 63 24 32 53 60 57 82 82 46 0
0 33 86 66 73 108 99 105 110 126 120 103 103 107 114 79
94 103 104 84 81 96 75 78 54 42 52 38 88 103 93 107
104 91 90 93 66 53 73 89 89 83 89 87 87 89 86 35
66 77 74 16 31 50 61 66 67 64 63 32 29 30 30 31
32 32 33 32 15 0 0 0 0 0 0 0 13 33 32 32
37 38 36 35 34 32 30 29 27 23 16 9 13 11 7 7
8 12 27 41 45 39 15 27 54 57 60 63 58 63 63 69
61 45 51 46 42 39 54 17 27 58 65 64 73 84 50 0
2 13 79 85 67 78 100 115 111 78 69 84 101 112 115 90
116 108 113 95 100 101 87 112 105 71 63 23 42 74 90 111
104 98 86 90 78 64 60 79 92 85 86 84 84 88 86 58
36 87 70 27 30 39 66 76 78 71 66 31 29 30 30 32
32 33 33 34 15 0 0 0 0 0 0 0 4 31 32 32
8 13 20 23 23 23 23 23 17 8 7 7 0 1 2 5
7 26 42 43 52 35 17 40 61 59 60 64 64 62 61 75
56 41 38 40 35 41 63 20 36 76 60 79 61 85 49 0
7 21 64 74 72 68 60 75 77 81 39 51 84 116 114 91
112 123 103 112 90 100 92 117 114 104 100 63 38 36 76 110
105 101 72 78 81 80 81 65 79 89 84 84 82 83 86 75
31 68 78 28 28 41 67 81 83 76 66 30 30 30 31 31
32 33 34 36 16 0 0 0 0 0 0 0 16 15 32 32
8 16 38 42 46 46 47 51 49 50 47 42 9 3 9 6
26 41 42 42 54 37 16 41 62 59 63 68 66 57 69 70
49 62 55 56 46 61 73 28 64 85 69 73 57 88 53 14
31 55 54 80 80 57 57 67 93 95 65 37 78 120 113 95
121 131 105 111 91 98 94 118 117 106 111 85 86 43 58 106
107 103 84 103 67 72 68 49 59 79 88 81 78 83 85 79
46 42 87 43 29 44 67 83 83 77 65 31 31 32 32 33
34 35 37 40 17 0 0 5 2 0 0 0 26 11 28 32
20 28 66 65 66 65 63 58 56 51 51 43 17 0 3 17
44 41 44 44 53 44 18 39 64 62 60 68 67 64 75 59
57 67 62 61 49 79 77 45 68 97 92 59 67 78 71 44
58 80 87 93 106 82 65 44 60 71 82 39 100 111 95 96
128 128 108 107 70 80 99 121 115 107 114 83 89 90 76 76
113 102 81 88 57 57 49 68 77 70 81 82 75 83 85 77
75 66 79 43 34 41 57 78 85 80 65 38 34 35 35 35
37 38 41 44 16 0 46 118 58 0 0 0 29 26 11 31
20 23 60 53 55 57 55 53 50 46 51 48 32 5 10 38
48 40 45 45 49 57 29 41 63 65 60 66 67 70 78 53
48 55 57 55 54 76 81 69 60 82 106 66 95 86 75 71
74 105 83 111 88 104 85 85 55 70 60 65 115 97 94 103
129 125 124 104 79 89 102 120 112 110 119 92 110 98 121 101
109 103 80 68 51 52 60 69 64 46 65 82 72 85 87 85
90 89 68 42 34 45 55 72 81 79 66 53 10 5 5 4
4 4 3 3 0 0 81 149 73 0 0 1 31 31 13 24
46 45 55 69 72 70 68 66 57 46 44 38 11 1 25 45
52 39 46 46 47 65 43 50 63 62 60 66 70 79 67 45
24 25 44 46 82 105 108 96 51 76 108 82 87 91 89 103
80 114 75 114 107 79 92 81 61 65 69 77 118 97 97 103
128 123 126 92 104 99 108 124 110 112 122 91 111 95 127 121
117 105 59 51 58 68 76 63 7 44 53 83 72 86 87 93
95 94 60 39 36 50 54 64 79 78 64 63 53 9 0 0
0 0 0 0 0 0 14 29 10 0 0 2 31 30 26 6
35 34 39 47 46 43 42 39 32 27 26 11 2 29 44 47
56 45 44 49 47 70 72 60 62 66 69 73 73 70 64 61
59 46 52 52 87 103 108 98 51 92 106 102 71 93 107 110
81 110 86 110 120 107 81 74 74 44 73 95 122 102 95 115
128 121 123 90 106 100 112 120 109 113 121 93 109 97 127 122
120 106 49 46 27 66 61 41 31 26 54 85 71 90 88 95
91 90 53 39 36 50 59 56 80 76 56 59 68 65 8 0
0 0 0 0 0 1 0 0 0 0 0 3 24 19 3 4
35 36 38 38 38 38 38 33 25 24 24 9 16 42 43 52
60 55 43 47 48 72 79 80 78 79 84 82 67 65 62 62
62 52 59 61 95 109 113 102 52 89 111 93 75 115 112 107
82 103 94 103 118 118 110 84 63 49 48 106 123 104 95 123
121 116 111 89 117 103 111 118 108 114 118 88 109 95 124 120
120 107 61 76 65 109 83 54 57 34 68 76 76 97 90 86
85 82 31 30 40 51 60 52 76 75 29 16 68 79 42 0
0 0 0 0 0 0 0 0 0 0 0 0 5 5 22 23
22 20 17 14 11 8 26 29 22 23 22 26 41 42 46 56
60 57 44 44 49 69 81 80 85 79 74 65 63 63 59 63
63 51 59 65 95 107 109 96 58 93 81 65 107 115 118 115
98 81 88 93 120 120 124 102 68 60 52 99 121 101 92 128
117 105 115 88 94 90 111 114 109 115 118 83 89 94 119 118
115 111 79 105 75 111 97 51 64 45 63 61 83 95 95 87
87 70 18 21 34 54 63 53 72 73 20 0 7 58 77 33
1 0 0 0 0 0 0 0 0 0 0 0 0 0 10 13
0 0 0 0 0 0 9 9 3 7 15 39 40 39 46 57
66 60 52 39 44 66 77 77 77 66 60 76 70 60 55 67
61 49 58 61 96 110 114 94 80 89 79 86 118 114 120 117
113 82 106 80 120 120 126 106 72 61 87 108 115 88 84 120
123 106 120 85 99 88 108 111 110 117 114 85 102 91 122 120
118 117 86 110 81 114 110 54 68 63 52 53 70 90 85 83
97 81 27 11 31 54 59 50 66 71 28 0 0 5 58 74
21 0 0 0 0 0 0 0 0 0 0 0 0 0 0 0
1 0 0 0 0 0 0 0 0 0 23 39 41 40 48 63
59 57 64 51 40 66 74 68 64 67 79 83 77 65 53 67
59 49 60 59 92 105 112 110 101 78 86 85 121 119 120 121
120 83 121 79 111 116 120 100 67 60 71 111 97 100 91 126
124 112 118 87 121 93 111 115 110 119 113 92 116 93 126 123
122 121 99 78 81 117 116 63 69 71 51 57 81 75 79 84
96 90 48 34 36 36 68 52 64 68 45 21 1 0 6 65
67 5 0 0 0 0 0 0 0 0 0 0 0 0 0 0
0 0 0 0 0 0 0 0 0 4 45 41 39 43 55 59
64 74 71 50 45 58 61 70 72 78 81 76 69 65 52 65
61 52 62 53 85 107 115 112 110 84 120 85 119 119 121 123
126 85 112 90 100 114 111 95 70 62 61 107 79 110 96 128
124 115 117 84 114 87 109 118 111 119 111 91 115 94 126 125
120 124 112 81 82 115 118 81 68 72 57 66 79 86 85 74
81 85 44 43 37 11 47 66 58 69 51 40 28 2 0 29
77 33 0 0 0 0 0 0 0 0 0 0 0 0 0 0
0 0 0 0 0 0 2 4 10 39 42 46 39 46 55 65
70 73 70 57 50 51 80 72 71 82 78 67 73 69 53 65
61 52 63 51 68 108 118 117 115 83 123 80 119 118 117 127
123 93 103 96 90 113 109 106 76 71 80 104 75 94 111 125
124 112 116 86 123 92 111 121 107 123 113 99 123 95 127 124
117 120 121 86 87 119 123 99 66 71 62 66 74 79 86 85
83 57 41 49 39 24 5 63 62 57 55 43 41 29 5 8
71 49 0 0 0 0 0 0 0 0 0 0 0 0 0 0
0 0 3 9 16 27 36 28 42 52 45 48 43 49 63 67
72 70 67 60 43 58 76 71 78 84 79 69 77 69 56 61
65 52 65 39 60 107 117 121 120 90 117 88 113 123 119 119
125 100 81 81 86 113 108 102 82 66 91 109 78 82 89 124
123 113 113 85 112 93 113 122 105 123 114 91 103 91 127 127
120 120 123 87 89 117 122 111 65 73 61 74 80 85 77 79
88 65 27 40 41 59 5 20 70 62 54 50 40 47 25 3
51 27 0 0 0 0 0 0 0 0 0 0 0 0 0 0
