P2
128 120
155
47 47 46 46 46 45 45 45 44 44 44 43 43 42 42 41
41 40 39 38 38 37 37 36 35 35 34 34 33 33 32 31
32 31 30 29 29 28 28 28 26 26 26 25 25 24 24 23
23 22 22 21 21 20 20 19 18 18 17 20 24 24 25 24
18 9 19 25 20 19 19 18 17 16 15 13 14 14 13 8
9 12 15 16 18 19 19 20 20 20 21 21 21 21 22 22
22 23 24 25 25 24 25 25 26 26 26 27 27 27 30 28
30 30 30 30 31 31 31 31 31 32 32 32 32 33 32 34
47 46 46 45 45 45 45 44 44 44 43 43 42 42 42 41
40 40 39 39 38 37 37 36 36 35 35 34 33 33 32 32
31 30 30 30 29 29 28 28 27 26 26 26 25 24 24 23
23 22 22 21 21 21 20 20 19 20 20 21 25 25 26 24
19 10 18 26 22 21 19 20 18 17 16 15 15 14 14 10
11 12 16 17 19 19 20 20 21 21 21 21 21 22 23 23
23 24 24 24 24 26 26 26 26 26 27 28 28 28 30 29
29 30 30 30 31 31 31 32 32 32 33 33 33 33 33 35
46 46 46 45 45 45 44 44 44 43 43 43 42 42 41 41
40 40 39 38 38 37 37 36 35 35 34 34 34 34 33 33
32 31 31 30 29 28 28 28 27 27 26 26 25 25 24 24
23 23 23 22 22 21 21 20 20 20 20 22 26 26 26 25
20 13 17 27 22 20 20 19 19 18 17 17 16 16 15 12
12 13 17 18 20 19 20 20 21 21 22 22 23 23 24 24
24 24 25 25 26 26 26 27 27 27 27 28 28 28 30 29
30 30 30 31 31 31 32 31 32 33 33 33 33 34 32 31
46 46 46 46 45 45 45 45 44 43 43 42 42 41 41 41
40 39 39 38 38 38 37 36 35 35 34 35 34 33 33 32
32 31 31 30 30 29 29 28 28 27 26 26 26 25 24 24
24 23 22 22 22 21 21 21 20 21 21 22 27 26 27 26
20 15 15 26 22 21 21 20 19 19 19 19 16 16 15 13
12 13 17 19 20 21 21 21 22 23 23 23 23 24 25 24
25 24 25 25 25 26 26 27 27 28 28 29 29 29 31 30
30 31 31 31 31 32 30 32 33 33 32 31 31 32 34 34
46 46 46 46 45 44 45 44 44 44 44 43 42 42 42 41
41 40 40 38 38 37 37 36 36 35 35 34 34 33 33 33
32 32 31 30 30 29 29 29 28 27 27 26 26 26 25 25
25 24 24 23 23 22 21 21 21 20 21 23 27 27 28 27
21 16 14 27 22 21 21 20 20 19 18 18 16 17 16 14
14 15 18 21 21 22 22 22 22 23 24 24 24 24 25 24
25 25 26 26 26 26 26 27 27 28 28 28 29 29 31 30
31 31 31 32 33 32 31 30 31 32 34 34 34 34 34 34
46 46 46 45 46 45 45 44 44 44 43 43 42 42 41 41
40 40 39 39 38 38 38 36 36 35 35 34 34 34 33 32
32 32 31 30 30 29 29 29 28 27 27 26 26 25 25 24
24 23 23 23 23 22 22 21 21 21 22 24 28 28 28 27
20 16 14 26 23 21 20 21 20 19 18 19 17 17 17 15
15 15 19 21 22 22 23 23 23 24 24 24 24 25 25 24
25 26 26 26 27 27 27 27 27 28 29 29 29 30 31 31
30 30 29 29 30 31 32 34 32 33 33 34 34 34 34 34
46 46 45 45 45 45 44 44 44 43 43 42 42 42 41 41
40 40 40 39 39 38 37 37 36 36 35 35 34 34 34 33
32 32 31 30 30 29 29 28 28 28 27 26 27 26 26 25
25 24 24 24 23 22 22 21 21 21 22 24 28 28 28 28
23 16 12 25 23 22 21 21 21 20 19 20 17 18 18 17
15 17 20 22 22 22 23 23 24 24 24 24 25 25 25 26
26 26 27 27 27 27 27 27 28 28 29 29 29 28 28 27
28 30 31 32 32 32 33 34 33 33 33 33 34 34 33 34
46 45 46 46 45 45 45 44 44 44 43 43 42 42 41 41
40 39 39 39 39 38 37 37 36 36 36 35 35 34 34 33
32 31 32 31 31 30 29 29 29 28 27 27 27 26 26 25
25 24 24 23 23 22 22 22 22 22 23 25 29 29 29 29
22 13 7 23 24 23 23 22 21 20 20 21 18 19 18 17
17 18 21 22 23 23 24 24 24 24 25 24 25 25 25 26
26 26 27 26 27 28 28 28 29 28 28 27 28 28 30 31
31 31 31 32 32 33 33 34 33 33 34 33 34 34 34 34
46 46 46 45 44 44 44 44 44 43 43 42 42 42 41 41
40 40 39 39 38 37 37 37 36 36 35 35 35 34 33 32
33 32 32 31 31 30 30 29 29 28 28 28 27 26 26 26
26 25 25 24 24 23 23 22 22 22 23 24 29 29 30 29
22 15 15 26 25 24 23 22 22 21 21 21 19 19 19 18
17 19 23 24 24 24 24 25 24 25 25 25 25 25 25 26
26 27 27 27 28 27 27 27 27 27 29 30 30 30 30 30
31 31 33 32 33 33 34 35 34 33 34 34 34 34 34 33
48 46 46 45 45 45 43 44 44 43 43 42 43 41 41 40
40 39 39 38 38 37 38 37 36 35 35 34 34 33 33 33
33 32 31 31 30 30 30 30 29 28 28 27 27 27 27 26
25 25 25 24 24 24 23 23 23 23 24 25 29 30 30 29
22 16 17 23 25 23 23 23 22 21 21 22 19 20 20 19
17 20 23 23 24 23 24 24 24 25 25 26 26 26 26 27
26 27 27 27 27 27 28 28 28 29 29 29 30 30 31 31
31 31 32 32 32 33 33 34 33 34 34 34 34 35 35 34
62 62 63 60 55 48 43 44 43 43 43 42 42 42 41 41
40 39 39 38 38 38 37 37 37 36 35 35 35 34 33 34
33 33 32 32 31 31 30 30 29 29 28 28 28 27 27 26
26 26 26 25 25 24 24 23 23 23 24 25 31 29 30 29
23 17 21 23 26 25 24 24 23 22 21 22 20 19 20 19
17 20 23 24 24 24 25 26 26 26 26 26 26 26 26 26
26 27 27 28 28 29 29 30 30 29 30 30 30 30 31 31
32 32 33 33 33 33 34 35 34 34 34 34 35 34 33 34
35 46 55 59 59 54 44 44 44 44 43 43 42 41 41 40
40 39 39 39 38 38 37 37 37 37 37 35 35 34 34 34
33 32 32 32 31 31 30 30 30 29 29 29 28 27 27 27
26 26 26 25 25 25 24 25 24 24 25 26 31 30 30 30
23 19 23 20 26 25 24 24 23 22 22 24 21 21 21 20
18 21 24 25 24 24 25 25 25 26 25 26 26 25 27 27
27 28 28 28 29 29 29 30 29 29 30 30 31 32 32 32
32 32 32 33 33 33 34 34 33 34 34 34 34 35 35 34
0 0 1 27 60 54 44 44 43 43 43 42 42 42 41 41
41 41 40 39 39 39 38 38 37 36 36 35 35 35 34 34
34 33 33 32 32 32 31 31 30 29 29 29 29 28 28 27
27 27 26 26 25 25 25 24 24 24 25 26 31 31 31 30
25 20 25 20 26 25 25 24 24 23 23 24 20 21 22 21
18 22 24 25 25 26 26 26 26 26 26 27 27 27 27 27
28 28 28 28 30 29 29 30 30 31 30 31 31 31 32 31
32 33 33 33 34 34 34 36 34 35 35 34 35 35 34 34
0 0 0 22 61 54 44 44 43 44 43 43 42 42 41 42
40 40 39 39 38 38 38 37 37 37 36 36 35 35 35 34
34 33 32 32 32 31 31 31 30 29 30 29 29 29 28 28
28 27 26 26 26 26 25 25 24 25 25 26 32 32 32 31
24 20 26 18 27 25 25 24 25 24 23 25 22 22 22 21
19 23 24 25 25 25 26 26 27 27 28 28 28 27 28 28
28 28 29 29 29 30 30 30 30 30 31 31 32 32 31 32
33 33 33 33 34 34 34 35 34 34 35 35 35 35 35 34
0 0 0 24 61 53 44 44 43 43 43 42 42 42 42 42
41 40 40 40 39 39 38 38 37 36 37 36 36 35 35 35
34 33 33 33 33 32 32 31 31 30 30 29 29 29 29 28
27 27 27 26 26 25 25 26 25 25 26 26 32 32 32 31
25 21 28 19 28 26 26 25 24 24 23 25 21 22 22 21
18 21 23 26 27 27 27 27 28 27 27 28 28 27 28 28
28 28 29 30 29 29 30 31 31 31 31 31 32 32 32 32
32 33 33 33 34 34 34 35 36 35 35 36 36 35 34 33
0 0 0 23 60 53 44 44 43 43 43 43 43 42 42 41
41 40 40 39 38 38 38 38 37 37 37 36 36 36 35 35
34 34 33 33 32 31 31 31 31 30 30 30 30 30 29 28
28 27 27 27 26 26 25 25 25 25 26 28 33 33 32 32
25 20 28 19 28 26 26 25 25 24 24 26 22 22 22 22
19 24 25 26 27 26 26 27 27 27 28 28 28 28 28 29
29 29 29 30 30 30 31 30 30 30 31 32 32 32 33 33
33 33 34 35 34 34 33 34 34 33 32 33 34 35 36 36
2 0 0 24 60 52 43 44 44 43 42 42 42 41 41 41
40 40 40 39 39 39 38 37 37 36 36 36 36 35 35 34
34 33 33 33 33 32 32 32 31 31 30 30 29 29 28 28
27 27 27 27 26 26 26 25 25 25 26 27 32 32 32 31
26 21 29 20 28 27 27 25 24 24 24 26 22 22 22 22
19 25 25 26 27 27 28 28 28 28 28 28 28 28 28 27
28 28 29 30 30 30 30 31 31 31 31 32 32 31 32 33
33 33 33 33 32 33 33 33 33 36 35 35 35 35 34 35
7 0 0 25 59 51 44 44 43 43 43 43 42 41 41 41
41 40 40 39 39 39 38 38 38 38 37 37 36 35 36 35
35 34 33 33 32 32 30 31 31 31 31 31 30 30 30 29
28 27 27 27 27 26 26 26 26 26 27 28 33 33 33 33
26 21 29 20 28 25 26 26 25 24 24 25 23 24 24 23
20 25 25 27 27 28 28 28 28 28 28 28 29 28 29 29
30 30 30 30 30 31 31 31 31 31 32 32 32 32 33 33
33 32 33 34 34 35 35 35 35 35 35 35 35 35 35 35
15 0 0 27 59 50 44 44 43 44 42 42 42 42 41 41
41 40 40 40 40 39 39 39 38 37 36 36 36 35 34 35
34 35 34 33 33 33 33 32 31 31 30 30 29 28 28 27
25 26 27 26 26 26 26 26 26 26 27 28 34 33 33 33
27 21 30 23 26 26 27 26 26 25 25 26 23 24 23 23
18 24 25 27 27 28 28 28 29 29 29 29 29 28 29 28
30 30 30 31 31 31 32 32 32 33 32 31 31 31 32 32
34 34 34 35 35 35 35 35 36 36 36 35 36 35 36 35
11 1 0 27 58 50 43 44 43 43 43 43 42 42 42 41
41 40 40 40 39 39 39 38 38 37 37 37 37 36 36 35
35 35 34 33 33 32 33 33 32 31 32 30 28 26 25 24
23 20 22 24 25 25 26 26 26 26 27 29 35 34 35 34
27 21 31 24 25 27 27 27 26 26 25 26 23 24 24 23
20 26 26 28 28 28 28 29 29 29 29 29 29 29 30 30
30 31 32 32 32 31 32 30 30 31 31 33 33 32 33 35
34 35 35 35 35 35 36 35 36 36 36 35 35 35 36 36
10 11 9 31 58 50 44 44 44 44 43 42 43 42 41 41
40 41 40 40 40 39 39 38 38 38 37 36 36 36 36 35
35 35 34 34 34 33 32 32 29 28 28 23 18 11 8 7
8 14 12 14 16 17 22 24 25 27 28 29 35 35 35 34
27 21 31 27 25 29 28 27 27 26 26 25 24 24 25 24
20 26 26 28 29 29 29 30 30 30 30 30 30 30 30 31
31 30 30 30 31 31 33 33 33 33 33 33 33 34 33 35
34 35 35 35 35 36 36 36 36 36 36 36 36 36 35 36
12 8 19 40 58 49 44 44 44 44 44 42 43 43 42 42
41 41 41 40 39 39 39 38 38 38 37 38 37 37 36 36
35 35 34 34 34 33 32 29 29 28 19 9 6 2 0 1
1 4 8 2 2 6 7 7 10 19 28 30 34 35 36 34
28 22 31 29 23 29 28 28 27 27 26 25 25 25 25 24
20 27 26 29 29 29 29 29 30 30 30 30 30 31 31 31
31 32 32 33 33 32 32 33 32 32 33 33 34 34 34 35
34 35 35 36 36 36 36 36 36 36 35 36 36 36 36 36
49 47 42 47 55 48 44 44 44 43 43 43 43 42 42 42
41 41 40 39 40 39 39 38 38 38 38 37 37 36 36 36
35 35 35 34 33 32 30 29 23 10 2 0 1 0 0 0
0 0 1 5 1 0 3 2 1 3 11 25 35 35 35 34
28 21 31 31 22 29 28 28 28 26 27 25 25 25 25 24
21 26 25 29 30 30 30 30 30 30 29 30 29 30 30 31
32 31 31 32 31 32 32 33 32 33 33 34 34 34 34 35
35 35 35 35 35 36 35 36 36 36 36 36 36 36 35 35
42 44 47 47 47 45 44 44 44 44 43 43 43 43 42 42
42 42 41 40 40 39 39 39 39 39 38 38 37 37 37 36
36 35 35 34 30 30 25 19 11 0 0 0 0 0 0 0
1 0 0 0 2 4 1 5 1 1 0 4 19 34 36 35
29 22 32 34 23 30 29 29 28 27 27 26 26 25 26 25
22 28 26 30 30 29 29 29 30 30 30 31 30 31 31 32
32 31 33 33 32 33 32 33 33 33 34 34 34 35 35 36
35 35 36 36 36 36 36 36 36 36 36 35 36 36 36 35
28 32 38 42 46 46 46 45 45 44 44 44 43 42 42 41
41 40 41 40 40 39 39 39 39 38 38 37 37 37 36 35
34 33 35 33 26 20 8 6 1 0 0 0 0 0 0 0
0 3 3 3 3 3 4 3 4 5 1 2 4 14 25 33
29 22 31 35 21 30 30 29 28 27 27 25 26 25 25 25
20 27 24 29 29 29 30 31 30 31 31 31 31 32 32 32
32 32 32 32 32 33 33 34 34 34 34 35 35 35 35 36
35 35 35 35 36 35 36 35 36 35 36 36 36 36 36 36
19 19 19 20 23 27 32 37 42 45 45 44 44 43 43 42
41 41 41 41 40 39 39 39 39 38 38 37 37 37 37 35
32 34 31 26 19 4 0 0 0 0 0 0 0 0 1 1
1 2 5 5 11 8 7 4 5 5 3 1 2 1 12 22
29 22 32 36 22 29 30 29 28 27 27 27 26 26 25 25
21 28 26 30 30 30 30 30 31 30 31 31 30 32 32 32
33 32 32 33 33 33 33 33 34 34 34 34 34 35 35 35
35 35 35 35 36 35 35 35 35 36 36 36 36 36 36 36
19 18 19 21 19 19 20 20 18 22 26 30 35 40 42 42
41 40 40 39 39 40 40 39 39 38 38 38 38 37 36 33
31 30 26 11 3 0 0 0 0 0 0 0 0 0 0 0
0 0 1 4 7 10 8 7 4 9 4 5 0 3 2 7
19 22 33 37 23 29 30 29 28 28 27 26 26 26 26 26
22 28 26 30 30 30 30 30 31 31 31 31 31 31 32 32
32 31 32 32 32 33 33 33 34 34 34 34 35 35 36 36
36 35 35 35 36 36 35 36 35 35 35 34 33 33 34 35
31 26 22 21 20 19 19 19 18 19 19 19 14 17 20 33
43 42 41 40 40 39 39 39 39 38 38 37 37 37 34 31
30 26 13 4 0 0 0 0 0 0 0 0 0 0 0 0
0 0 0 0 7 13 10 6 2 9 13 6 5 1 7 4
8 15 31 38 25 29 29 29 29 28 27 26 26 25 27 26
23 28 27 30 30 30 30 30 31 31 30 30 31 31 32 31
33 33 33 33 33 33 34 34 34 34 34 35 35 35 35 36
35 35 35 35 35 36 35 34 33 33 34 35 36 36 35 35
59 57 54 35 25 26 20 19 18 19 19 20 12 9 17 31
42 41 41 41 40 39 39 38 39 39 39 38 37 36 36 31
27 17 5 0 0 1 2 0 0 0 2 4 2 0 0 0
0 2 8 6 7 6 4 11 13 12 7 11 11 10 3 8
8 5 22 36 26 26 30 29 29 29 28 27 28 26 26 26
23 28 26 30 30 31 30 31 31 31 31 31 31 32 32 32
33 32 32 33 33 33 33 33 33 35 35 35 35 36 35 35
35 34 34 35 34 35 35 35 36 34 35 35 35 36 35 35
61 61 60 41 36 41 47 42 32 27 21 18 16 17 18 30
42 42 41 41 40 39 38 38 38 39 38 38 36 36 35 31
17 1 1 0 0 0 0 0 0 0 0 3 6 2 2 4
3 5 5 5 5 3 4 3 7 7 11 6 7 9 10 6
7 2 4 28 28 24 31 29 29 29 27 26 27 26 27 26
23 28 26 31 31 31 31 31 31 31 31 31 31 32 32 32
33 32 34 33 33 33 34 34 34 34 34 34 33 33 34 34
33 34 34 34 35 35 35 34 37 35 35 35 34 35 35 35
60 61 61 43 43 46 51 50 41 53 53 49 31 15 18 30
42 41 40 40 40 39 45 49 46 44 42 39 37 35 34 30
13 0 0 0 0 0 0 0 0 1 3 4 2 6 12 12
8 9 7 2 4 1 5 4 3 4 4 6 11 7 8 12
9 5 2 8 27 22 30 29 29 28 28 27 27 26 27 26
24 29 26 30 31 30 31 31 32 31 31 32 32 32 32 33
34 33 33 33 33 33 33 33 34 34 34 34 35 35 33 33
34 34 34 34 34 34 34 33 36 35 35 35 35 35 35 35
37 46 56 46 46 49 53 53 53 57 57 57 41 16 20 32
43 42 42 41 40 40 48 52 50 48 45 41 40 40 33 23
3 0 0 0 0 0 0 1 3 4 2 2 1 0 3 7
10 5 6 3 1 0 0 1 3 6 10 12 7 12 9 10
10 7 6 2 11 20 32 30 30 28 28 28 27 26 27 27
24 29 26 31 31 31 32 31 32 32 32 32 32 33 33 32
33 32 31 32 33 33 35 35 35 33 34 34 34 34 33 34
34 34 33 34 35 35 34 35 36 35 35 35 35 34 34 35
8 0 32 49 48 50 54 54 56 58 58 59 45 17 21 37
45 43 43 42 41 39 48 53 51 47 44 43 45 44 30 13
0 0 0 0 0 0 0 1 0 1 4 1 1 0 5 7
4 1 1 2 3 4 0 1 0 0 1 5 9 12 16 9
9 14 7 3 5 16 31 31 30 29 29 29 28 27 28 28
25 30 27 31 32 31 32 32 33 32 32 32 33 32 31 32
33 34 33 34 34 34 33 34 35 34 35 35 34 35 35 35
35 34 34 35 35 35 35 34 36 34 35 35 35 35 35 35
19 7 36 48 48 50 49 54 56 57 58 57 48 18 20 39
49 45 45 44 43 42 46 40 46 47 46 46 46 36 18 3
0 0 0 0 1 2 8 16 15 7 8 10 3 0 0 0
0 0 0 0 2 4 3 3 1 2 2 6 7 13 16 23
9 12 11 7 2 5 28 31 30 29 29 30 28 27 28 27
25 29 27 32 33 32 32 32 33 32 32 33 32 32 33 32
33 33 34 34 34 34 34 34 35 34 34 34 35 35 35 34
34 34 35 34 35 35 35 35 36 36 35 35 35 34 35 33
21 12 39 43 17 28 38 49 55 57 55 54 47 19 21 38
50 39 38 43 47 48 51 3 1 13 27 36 35 30 18 0
0 0 0 0 5 16 16 18 25 25 16 11 6 0 0 0
0 0 1 1 1 7 6 4 4 2 3 4 6 13 16 20
12 9 10 4 6 0 18 29 31 28 29 29 28 27 28 28
26 29 26 31 31 31 32 32 32 33 33 32 33 32 33 33
33 34 34 33 34 33 34 34 35 34 34 35 35 34 35 35
35 35 36 35 35 34 34 34 35 36 35 34 35 35 35 35
16 12 41 41 0 1 5 9 14 24 25 38 48 19 21 38
49 48 45 38 46 53 54 3 0 2 10 11 9 5 2 0
0 0 0 7 9 19 24 22 23 26 34 21 13 2 0 0
0 1 5 4 3 2 3 6 8 2 3 7 9 9 10 9
13 18 18 10 2 4 5 26 29 29 29 29 28 28 28 28
26 28 25 31 32 32 33 33 33 33 33 33 33 33 33 33
34 33 34 33 34 34 33 34 36 34 35 34 35 34 35 35
35 35 35 35 35 34 35 35 35 36 36 34 35 34 34 34
0 0 41 41 0 0 0 0 0 0 0 12 49 19 20 11
16 25 38 47 52 53 54 5 0 3 10 14 6 3 0 1
0 0 4 13 22 28 39 47 59 55 41 29 16 8 5 3
2 3 7 2 0 0 1 4 3 1 4 7 5 5 6 12
20 18 15 18 5 3 2 19 27 30 30 30 28 28 29 29
26 28 27 32 33 33 32 32 33 33 33 33 32 33 33 33
33 33 34 34 34 34 34 34 36 35 35 34 34 34 34 35
35 35 35 34 34 35 35 34 36 35 35 34 34 35 35 35
0 0 42 38 2 5 0 1 0 0 0 14 48 18 20 4
0 0 0 2 11 21 39 7 0 0 5 5 1 0 0 1
0 0 6 9 25 49 62 68 77 77 61 54 30 8 0 0
1 2 0 0 1 3 4 7 11 3 0 3 4 7 11 6
13 22 20 17 7 1 3 8 27 28 29 30 28 29 28 28
27 28 27 32 33 33 33 32 33 33 33 33 33 32 33 32
32 33 34 34 34 34 35 34 36 35 35 34 35 35 34 35
35 35 35 35 35 35 35 35 36 35 35 35 35 35 35 35
0 0 42 37 2 6 0 26 3 0 0 13 50 18 19 4
0 0 0 0 0 0 15 8 0 0 0 2 0 0 3 0
1 0 5 15 12 30 52 61 82 85 77 59 43 15 5 2
0 0 0 0 2 5 5 4 6 6 3 1 0 3 13 25
20 11 14 17 13 4 4 4 23 29 29 29 28 29 29 29
27 28 27 32 33 33 33 32 33 33 33 33 33 33 33 33
33 34 34 34 33 34 35 34 35 34 35 35 35 35 35 35
35 35 35 35 35 36 35 35 36 33 36 36 35 36 36 36
4 0 43 36 2 7 1 14 20 0 0 14 48 18 20 4
0 0 0 0 0 0 13 8 0 0 0 1 0 0 7 1
1 2 5 14 15 9 17 32 42 54 68 57 42 17 6 1
0 0 0 0 2 5 6 2 3 1 3 7 8 6 5 8
16 14 10 15 11 14 3 4 16 31 30 29 29 28 29 29
27 27 28 33 34 34 34 33 34 34 33 33 32 33 33 33
33 33 33 34 34 34 35 35 35 35 35 35 35 36 35 36
36 36 36 36 35 35 35 34 35 37 37 36 37 36 36 36
0 0 42 33 2 6 2 9 8 0 0 16 46 18 21 4
0 0 0 3 0 0 12 6 0 0 0 2 0 0 9 3
4 0 5 13 19 24 17 20 26 37 34 32 29 25 7 1
0 2 3 1 2 3 2 2 1 1 2 4 10 21 17 9
13 14 11 11 17 12 8 10 9 28 28 28 29 28 29 28
28 28 28 33 34 34 33 33 33 32 32 33 33 33 33 33
33 34 34 34 35 35 36 35 36 35 35 35 35 36 35 36
35 35 35 35 35 36 36 36 36 36 35 35 35 35 35 33
2 0 43 31 0 3 3 0 5 0 0 16 46 18 19 4
0 3 4 20 0 0 11 6 2 4 0 1 2 0 5 10
12 5 7 12 13 19 26 33 34 38 50 47 37 25 13 3
3 2 3 2 4 5 5 3 4 1 0 1 5 7 13 17
11 13 10 11 12 13 16 13 12 21 30 29 30 29 29 28
28 28 28 33 33 33 33 33 34 34 33 33 33 33 33 33
34 33 34 34 35 35 35 35 36 34 35 35 35 35 36 36
36 36 35 35 35 36 35 36 36 36 35 35 36 35 36 35
0 0 42 29 0 2 11 0 0 0 0 17 44 19 20 4
12 12 6 4 0 0 9 6 2 0 0 0 2 2 6 14
10 10 11 14 23 31 35 33 38 43 46 51 47 31 27 13
4 4 7 6 6 6 2 3 3 2 2 0 1 7 6 8
11 20 15 4 2 7 12 14 15 14 29 27 29 29 29 28
28 28 29 32 33 32 32 32 33 33 33 32 32 33 33 33
34 34 34 35 34 34 34 34 34 36 34 34 34 35 35 35
37 35 35 36 36 35 35 36 35 36 36 35 36 35 35 35
49 44 49 38 8 5 8 6 2 0 0 20 43 19 20 5
13 0 0 6 4 0 10 7 0 0 1 0 0 5 6 14
16 12 18 29 23 19 18 17 16 18 27 30 49 37 33 28
12 6 6 9 4 5 7 5 6 4 3 5 5 4 4 3
6 11 13 14 6 7 3 10 19 12 28 28 30 28 29 28
28 27 28 32 32 32 33 33 34 33 34 33 33 33 33 34
33 33 35 34 34 34 34 34 34 35 34 35 36 36 36 35
37 35 35 36 35 35 35 35 35 35 36 36 36 36 36 35
52 56 46 69 55 30 42 41 46 42 37 40 37 19 20 5
2 0 0 0 2 0 14 39 26 16 15 5 0 2 10 17
16 13 12 16 17 9 2 8 10 6 2 0 1 2 5 8
9 4 5 5 6 2 5 4 3 4 4 3 5 6 3 7
4 10 10 14 18 10 4 0 13 9 20 28 30 28 29 29
28 27 29 32 34 32 32 32 33 33 33 33 33 34 34 34
35 34 35 35 35 35 35 34 34 34 35 35 35 36 36 36
36 35 35 36 35 35 36 36 36 34 33 32 36 33 34 32
2 35 70 73 47 35 48 55 59 55 55 54 36 19 20 4
0 0 0 0 0 0 17 59 51 40 39 25 17 10 13 17
20 16 10 3 3 0 0 14 16 30 37 36 29 32 40 42
27 7 6 7 4 5 1 2 2 6 7 4 2 7 5 6
5 7 10 13 15 16 11 4 3 6 15 28 31 28 29 29
27 26 28 30 33 32 32 33 33 33 34 34 34 34 34 33
35 34 34 34 33 34 35 35 35 35 35 36 36 36 36 35
37 35 34 32 33 31 32 34 34 34 34 32 30 27 24 20
0 39 69 69 40 37 47 53 56 55 59 57 37 19 21 6
0 0 0 0 0 0 18 61 43 45 49 35 22 10 8 13
12 3 1 0 0 0 0 20 20 32 49 77 87 75 71 89
70 45 17 5 2 1 0 0 3 4 6 10 4 4 2 4
3 6 8 12 23 24 22 12 6 4 10 26 30 28 28 28
27 26 29 32 34 33 33 33 33 33 34 34 34 33 33 34
35 34 34 34 34 34 35 35 35 34 35 35 35 34 35 36
37 35 35 37 36 29 29 25 22 18 15 14 14 14 13 14
0 40 66 57 22 22 38 46 49 54 55 58 37 20 21 34
38 29 19 9 3 0 20 51 40 50 49 48 41 16 18 17
13 3 0 0 0 0 0 6 52 77 87 118 124 109 92 108
110 95 54 14 3 3 5 3 0 1 6 15 20 15 12 14
8 5 11 15 15 13 15 18 13 4 7 20 31 29 29 28
28 26 30 32 34 33 33 33 33 34 33 34 34 33 32 32
34 34 34 34 35 35 36 35 36 37 37 37 37 34 32 29
26 22 20 27 33 14 11 13 14 16 17 17 19 19 20 21
0 38 66 56 8 0 0 0 0 2 5 32 39 20 23 41
57 57 55 53 51 45 49 44 39 49 52 49 45 27 47 50
30 13 0 2 1 0 0 4 48 90 87 114 127 121 103 105
113 112 99 46 11 2 7 7 5 1 5 11 9 17 15 14
11 13 14 10 9 17 22 16 15 6 1 20 32 28 29 28
28 26 31 32 34 33 33 33 32 32 33 33 34 33 33 32
34 35 36 36 37 37 36 34 31 29 26 21 19 17 16 15
16 17 17 22 33 13 17 19 22 22 23 24 25 26 26 27
0 37 67 58 6 0 3 0 0 0 0 27 40 21 23 42
58 58 56 56 57 57 60 32 9 17 26 30 33 27 66 68
45 5 2 0 0 0 0 2 40 96 87 100 120 125 112 107
113 114 112 84 37 14 11 13 8 6 9 16 13 17 17 18
15 10 7 13 19 15 13 23 25 13 2 12 31 28 30 30
29 27 31 33 34 34 33 32 32 32 30 29 31 35 36 36
35 33 31 28 25 22 20 18 18 18 18 19 20 21 21 21
23 23 23 24 31 15 22 27 28 29 30 31 31 32 32 32
0 32 66 55 3 0 0 0 2 8 8 27 40 22 22 38
55 56 56 58 58 59 60 24 1 0 1 1 7 18 67 79
42 1 6 0 0 0 0 0 27 56 67 86 118 127 130 111
117 118 114 104 74 34 26 22 31 24 24 18 18 39 37 28
25 16 11 10 13 11 22 22 30 25 13 6 24 28 28 29
29 27 30 30 30 30 31 31 31 31 32 21 20 27 24 21
20 19 18 18 20 21 22 22 22 23 24 25 26 27 28 28
29 30 30 29 37 20 28 31 32 32 33 33 34 33 34 34
0 29 60 49 2 0 0 0 13 39 36 34 41 36 32 37
42 43 44 45 45 51 56 21 0 0 0 1 2 10 45 73
26 4 4 0 0 0 0 0 24 65 67 85 120 130 132 130
110 119 124 116 104 60 33 34 59 67 44 48 29 49 71 82
41 27 1 0 1 2 6 9 22 27 27 5 15 21 23 24
25 26 29 31 30 29 27 25 22 20 19 17 15 18 19 20
22 22 23 25 26 27 28 28 28 28 29 30 31 31 31 32
33 32 31 22 17 13 30 33 33 34 35 35 35 35 36 36
0 29 58 47 0 0 0 0 9 36 35 28 34 27 25 29
26 29 37 39 36 47 54 18 0 0 0 2 4 0 18 55
11 6 3 0 0 0 0 0 20 58 64 89 119 128 133 134
132 124 123 128 120 87 40 48 75 97 78 65 64 65 78 92
77 45 0 0 0 0 2 13 14 18 19 15 8 15 17 17
15 17 20 20 17 18 18 18 20 21 21 22 22 24 25 26
27 28 29 30 31 31 32 32 32 32 33 32 32 33 33 33
33 33 32 13 4 2 29 34 36 36 35 35 34 35 35 36
0 31 58 45 0 2 4 0 2 17 19 27 33 28 28 30
32 31 36 38 36 47 53 15 0 0 0 0 3 0 13 31
6 8 0 0 0 0 0 0 15 49 61 100 124 135 136 136
138 140 139 129 131 108 49 60 95 103 107 91 86 90 91 99
103 53 0 0 1 1 6 3 15 20 22 20 13 18 19 18
16 14 17 16 20 21 22 23 24 25 27 28 28 29 31 31
33 33 33 33 34 34 34 33 34 34 34 35 35 36 35 30
24 19 31 12 11 2 27 34 35 36 36 36 35 36 35 36
0 35 59 44 0 1 5 0 0 0 0 13 26 22 24 20
17 25 34 39 45 50 51 16 0 0 0 0 0 0 1 5
1 2 0 0 0 0 0 0 5 40 70 117 135 135 138 139
138 139 144 140 139 112 71 76 108 119 129 117 105 112 86 104
101 45 0 0 3 2 14 6 13 14 10 18 17 18 21 20
19 15 21 19 25 27 28 29 30 30 30 31 31 31 32 32
32 32 34 34 34 35 35 35 35 35 34 34 35 35 15 0
0 4 26 9 2 0 26 34 36 36 35 35 35 35 35 35
0 40 60 42 0 0 6 9 1 0 0 16 33 32 29 14
0 0 0 0 2 6 19 16 0 0 0 0 5 4 0 1
0 0 0 0 0 0 0 0 2 41 80 129 137 136 138 135
139 136 140 142 135 112 98 113 114 133 142 133 114 85 97 128
101 38 1 1 4 9 5 15 12 12 16 19 17 23 27 26
24 18 24 21 29 29 29 30 31 32 31 32 33 34 34 34
34 35 34 35 34 34 35 35 36 35 35 35 35 36 29 24
30 32 32 14 0 0 24 33 35 35 35 34 35 36 35 35
0 44 60 41 0 0 0 12 5 0 0 17 40 35 31 15
0 0 1 1 0 0 8 15 0 0 0 0 10 3 0 1
31 0 0 0 0 0 0 0 3 49 98 136 139 137 135 134
140 138 137 138 132 120 120 124 129 142 145 105 91 110 135 134
113 28 1 5 7 10 9 10 14 13 15 18 19 21 27 27
27 22 27 24 31 32 32 32 32 32 32 34 34 34 34 34
34 35 34 34 35 35 36 36 36 35 35 36 35 35 35 34
33 32 30 17 0 1 25 33 35 35 35 35 35 35 35 34
36 49 55 41 0 0 0 11 10 4 0 16 45 37 30 16
0 0 0 3 0 0 7 14 0 0 0 3 12 1 0 30
79 10 0 0 1 0 0 0 13 61 123 136 139 139 136 135
134 138 136 136 136 135 133 135 136 138 141 56 102 142 138 121
104 8 1 7 7 10 6 3 9 11 16 16 14 22 28 27
27 23 29 27 32 32 32 32 32 32 33 34 34 34 34 33
34 35 35 35 35 34 35 35 36 35 36 35 36 35 34 34
33 32 31 23 1 3 26 33 34 35 35 35 35 34 34 34
37 42 48 44 20 12 6 13 19 14 4 14 46 32 29 16
0 1 10 15 3 0 6 16 0 4 1 2 10 0 0 69
97 47 3 4 0 2 0 3 35 96 128 135 138 139 137 134
131 134 137 138 139 142 145 142 142 140 141 130 136 142 138 122
64 0 3 9 8 8 3 0 9 10 13 16 16 21 27 27
27 23 30 28 33 33 34 33 33 32 34 35 34 34 34 34
34 34 35 34 35 35 35 36 36 35 35 35 35 35 34 34
34 31 30 24 10 12 29 35 35 36 35 35 34 34 34 34
10 25 49 45 43 50 45 41 49 45 40 42 49 29 28 16
0 7 20 24 11 2 5 24 5 12 3 3 6 0 8 99
113 89 21 12 2 1 3 32 90 116 130 138 125 136 137 136
140 140 141 135 136 138 141 143 139 139 142 139 134 137 138 105
22 0 5 7 6 9 2 2 2 8 6 9 18 22 27 27
27 23 31 29 33 33 33 32 32 33 33 34 34 34 34 34
35 35 35 35 34 34 34 35 35 34 35 35 35 34 34 34
34 31 29 25 23 24 31 34 35 35 35 34 34 34 34 35
19 32 51 46 15 10 14 26 34 47 53 55 53 31 25 17
0 6 17 19 10 2 5 48 44 47 22 2 0 0 34 111
126 115 83 47 16 17 44 87 107 119 131 139 129 132 136 143
145 143 140 138 138 141 142 144 138 140 141 134 128 134 117 54
24 0 4 7 7 12 7 4 0 5 5 11 15 18 27 27
27 23 31 29 33 33 33 33 33 33 34 33 34 33 33 33
33 34 34 34 34 34 35 35 36 36 35 35 35 34 34 34
33 32 30 26 27 30 34 35 34 35 34 35 35 34 34 34
14 37 52 46 12 2 0 3 10 3 41 55 50 30 26 18
1 2 7 2 4 0 4 47 45 50 38 4 0 0 68 118
129 123 104 108 84 75 84 97 111 123 141 141 136 130 137 144
146 144 141 141 140 139 140 139 130 134 130 130 125 116 98 56
34 1 5 11 5 16 4 3 0 1 5 11 13 18 28 27
28 24 32 29 33 33 33 32 33 33 32 34 33 34 33 34
34 34 35 34 34 34 35 34 34 35 34 34 34 35 34 34
33 32 31 30 29 33 35 34 34 35 35 34 34 35 35 35
11 34 53 47 8 0 4 23 38 13 46 52 44 29 27 27
22 2 8 3 2 0 4 47 47 49 41 0 0 8 93 120
125 120 125 127 96 78 82 93 110 124 141 143 139 137 139 142
144 145 145 142 140 137 137 132 126 128 124 112 113 117 112 67
39 4 7 4 7 16 7 3 8 5 10 16 16 20 25 27
28 25 32 29 34 33 33 33 33 34 33 33 33 33 33 33
34 33 33 34 34 34 34 34 34 35 34 35 35 35 34 33
33 33 31 31 31 34 35 35 35 34 35 35 34 35 34 34
0 34 55 49 7 0 4 10 40 31 50 51 35 28 28 28
15 0 5 1 1 0 3 43 37 43 42 5 0 16 99 120
127 131 139 142 119 76 74 84 103 117 133 142 141 136 141 141
140 146 144 142 139 137 135 125 121 123 125 119 122 124 128 92
54 13 10 4 10 11 4 1 7 1 9 11 14 17 25 27
28 25 32 29 33 33 32 32 32 33 33 33 34 34 34 34
33 34 35 34 34 34 33 33 33 35 34 34 35 35 33 33
34 32 32 32 33 33 32 33 32 33 34 34 35 34 33 32
0 36 58 52 10 0 3 4 9 21 51 52 32 30 31 26
5 0 2 2 0 0 3 49 39 41 41 13 1 19 98 129
134 132 131 135 110 78 76 75 91 110 122 136 138 135 135 140
143 146 146 143 139 133 134 126 119 121 126 123 125 130 133 102
53 14 11 4 7 10 9 3 2 1 7 18 14 11 22 27
28 26 32 28 33 32 33 33 33 33 33 33 33 33 34 33
34 34 34 33 33 34 34 34 34 34 34 34 34 34 33 33
33 33 32 33 34 34 34 34 35 34 35 34 34 34 34 34
0 39 58 52 12 0 0 0 0 12 50 53 32 31 28 29
29 24 18 14 10 6 6 51 41 41 41 27 0 15 88 119
120 58 67 96 101 93 82 79 82 100 115 127 134 133 134 143
144 147 144 138 136 132 129 122 114 114 122 123 128 131 139 111
50 13 8 5 7 9 8 6 1 3 10 11 7 7 19 27
28 26 32 28 33 32 32 33 33 33 33 33 33 33 33 33
33 33 33 33 33 33 33 33 34 34 33 33 34 34 33 34
33 33 33 35 36 35 34 34 35 35 34 34 34 34 34 33
0 35 58 53 11 0 0 0 0 5 48 54 31 31 29 36
52 54 52 50 55 57 55 58 46 44 44 40 5 5 64 108
109 90 107 105 98 100 88 86 92 94 107 119 128 129 136 144
145 146 145 140 134 128 124 118 112 109 118 125 130 135 144 115
50 13 4 4 4 8 6 8 3 9 11 7 6 6 18 26
28 26 32 28 33 31 32 31 33 32 32 32 33 33 34 34
34 33 32 33 32 33 33 33 34 34 34 34 34 33 33 34
34 34 33 34 34 34 33 33 33 33 34 33 33 33 33 33
0 33 57 51 5 0 0 0 0 7 50 56 32 31 30 36
62 63 62 62 61 61 61 60 47 44 38 41 26 1 21 73
98 82 76 80 91 91 82 72 94 104 106 116 128 132 136 140
146 147 146 142 135 126 117 113 109 107 119 129 133 140 144 122
55 15 6 4 4 7 7 11 6 7 12 7 2 7 19 26
28 26 31 28 33 32 32 32 32 33 33 33 34 34 34 34
34 34 33 33 33 32 33 33 34 33 33 33 33 33 33 33
33 33 34 34 34 34 34 34 33 33 34 33 33 33 33 33
0 32 57 50 4 0 0 0 0 6 49 54 28 28 30 31
50 52 53 55 57 59 60 61 28 12 16 8 9 6 18 45
69 49 52 71 77 78 69 62 80 105 108 117 127 130 134 140
144 144 143 139 129 123 113 110 111 111 120 131 139 144 144 126
66 12 6 4 0 6 4 6 11 8 8 8 2 8 18 25
27 26 30 27 32 32 32 32 33 32 33 33 33 33 33 34
33 33 33 32 32 32 33 33 33 32 33 33 32 32 32 32
32 33 32 33 32 32 32 33 33 32 33 33 33 33 32 32
0 31 58 51 4 0 0 0 0 3 46 49 27 30 30 27
33 34 33 33 32 32 33 37 21 1 0 0 0 0 1 31
71 44 51 76 90 87 83 59 61 96 110 117 128 130 135 135
146 143 142 136 126 118 108 107 111 112 118 133 143 145 142 127
81 19 6 5 0 4 5 6 6 5 7 6 4 8 17 26
27 25 31 28 32 32 33 32 33 33 33 33 33 33 33 33
34 33 32 33 32 32 32 32 32 33 32 30 29 27 25 23
20 25 31 34 33 33 33 33 33 33 33 33 33 33 31 31
0 30 58 52 5 0 0 0 0 2 48 55 29 28 29 29
42 43 42 41 39 38 37 40 24 10 3 0 0 0 13 33
62 45 54 92 105 103 86 42 46 74 105 112 123 130 141 143
143 142 142 136 124 111 108 110 113 116 122 134 143 146 144 132
90 31 5 4 1 3 2 8 11 7 6 1 4 9 19 25
27 26 30 28 32 31 31 32 32 33 33 33 33 33 32 31
28 26 23 21 19 21 24 31 32 33 32 19 6 5 5 5
4 9 29 34 33 33 32 33 34 32 32 32 32 33 33 31
45 52 56 49 5 0 0 0 0 3 52 57 29 26 30 30
45 46 46 45 44 44 45 46 24 7 3 0 0 0 13 33
57 54 63 78 69 46 41 69 77 66 94 115 126 132 137 141
140 136 134 123 117 111 102 110 114 118 124 137 143 146 145 132
104 49 9 2 1 0 5 5 18 13 9 0 5 10 18 25
27 26 31 28 32 32 31 32 32 33 33 33 32 12 7 7
7 7 3 2 1 0 3 28 33 32 32 19 3 4 3 5
4 8 32 34 34 35 34 33 33 33 33 32 32 32 32 31
55 52 40 30 23 19 12 11 4 6 50 52 25 25 30 31
46 47 47 46 45 46 47 47 25 5 5 0 0 8 6 23
49 56 53 42 25 71 97 114 108 86 82 107 124 131 134 133
135 129 125 118 110 109 104 113 117 122 127 134 143 146 145 134
110 68 19 2 0 0 2 6 7 12 7 0 4 8 20 25
27 26 30 28 31 31 31 32 32 33 32 32 31 6 2 7
7 9 3 1 1 0 1 25 32 32 31 17 5 5 6 5
5 8 31 34 34 33 33 33 34 33 32 32 32 32 32 31
53 53 51 47 51 51 49 49 47 46 49 46 39 36 36 29
19 20 21 23 21 24 35 51 29 1 0 0 0 10 7 19
44 39 29 20 66 103 114 115 114 109 88 102 121 128 133 128
126 126 118 108 107 108 112 119 115 123 131 132 141 146 145 133
116 91 48 3 0 0 0 3 7 9 3 2 2 7 18 26
27 26 30 28 32 31 32 32 32 32 33 32 30 6 1 5
6 8 2 1 1 0 0 23 31 32 31 15 4 5 5 4
5 6 28 34 34 34 34 33 33 33 33 32 32 32 31 31
49 48 48 48 47 47 47 47 46 46 46 46 45 44 44 44
43 42 41 36 2 1 16 52 39 14 1 0 2 9 5 16
43 10 47 54 82 103 110 117 118 112 104 106 122 123 123 122
120 119 111 106 99 105 117 115 119 128 134 136 142 145 143 132
116 101 72 12 0 0 0 3 2 8 1 2 4 6 18 24
25 26 29 28 31 31 31 32 32 33 32 32 30 7 1 6
8 8 2 1 1 0 0 23 31 31 32 17 4 4 5 5
4 4 28 34 34 33 33 32 32 30 30 30 31 31 32 31
50 49 48 48 47 47 47 46 46 45 45 45 45 44 44 43
44 43 42 41 7 0 12 51 37 7 0 0 0 8 7 16
43 3 31 61 70 82 105 114 116 114 112 108 108 119 116 115
111 107 105 104 107 116 121 123 123 129 135 139 143 145 144 133
118 104 90 31 0 1 0 1 1 3 0 0 7 6 18 24
26 26 28 29 32 31 31 32 32 32 32 32 30 8 1 4
8 8 3 1 1 0 1 23 31 31 31 22 9 8 9 10
11 9 22 31 32 32 32 32 33 32 33 30 32 31 32 31
48 48 47 47 47 47 46 46 45 45 46 45 44 43 44 43
43 42 42 40 10 0 8 44 27 0 0 0 0 0 0 16
46 4 15 45 50 86 106 113 118 118 118 115 103 111 109 104
99 93 95 96 106 113 120 125 129 127 130 137 143 145 145 135
119 104 98 52 2 0 0 2 1 3 4 6 15 7 18 25
25 25 25 25 31 31 31 31 32 32 32 31 30 8 1 4
6 6 3 1 1 0 0 22 31 31 32 23 11 12 10 10
11 11 21 32 33 33 33 32 32 32 32 32 32 31 33 32
16 16 15 15 16 16 16 16 17 16 17 17 18 19 20 20
24 34 40 41 13 0 6 39 24 0 0 0 0 2 1 13
47 7 1 42 64 87 103 116 121 121 117 110 98 96 92 88
84 81 92 96 103 111 112 118 127 128 129 136 142 145 145 135
120 107 103 71 7 0 0 2 4 3 10 15 16 7 17 24
25 25 27 26 30 30 30 31 31 31 31 31 29 9 1 2
2 2 2 1 2 0 0 22 31 33 31 23 5 6 6 6
6 5 21 33 33 33 33 33 33 33 33 32 32 31 32 31
0 0 0 0 0 0 0 0 0 0 0 0 0 0 0 0
5 39 43 40 18 0 3 35 27 6 4 3 3 11 11 15
46 27 18 45 72 85 104 118 122 121 112 103 92 85 83 76
81 85 85 95 96 103 108 115 124 128 133 137 143 145 145 134
121 108 104 92 25 0 0 2 2 4 16 19 17 7 17 24
25 25 26 27 31 31 31 31 31 33 32 32 30 10 2 2
0 0 2 1 2 0 0 21 31 33 31 23 4 5 6 5
7 5 15 24 33 33 33 32 32 32 33 33 32 32 32 31
0 0 0 0 0 0 0 0 0 0 0 0 0 0 0 0
3 42 44 41 22 0 0 30 43 43 38 34 36 39 40 43
42 55 56 54 71 83 98 114 110 108 105 87 75 82 74 77
84 83 85 86 91 101 113 119 119 123 132 140 142 145 145 134
120 107 103 101 54 0 1 0 1 10 22 20 19 7 14 23
25 25 26 27 30 30 30 31 32 33 33 31 28 10 1 2
1 4 5 2 2 0 0 21 31 33 31 25 5 4 0 0
0 0 1 0 31 33 32 33 32 33 33 32 33 32 32 31
0 0 0 0 1 1 1 0 0 0 0 0 0 0 0 0
2 41 45 40 24 0 0 27 45 47 38 40 42 39 33 34
36 51 57 55 67 72 85 102 100 96 90 74 69 72 72 72
71 70 77 85 97 107 114 120 124 131 138 144 144 144 143 134
120 107 103 102 74 1 0 0 8 22 25 21 20 7 12 22
24 25 25 27 30 30 29 30 32 32 33 31 27 11 3 2
2 4 3 2 2 0 0 19 30 32 31 25 4 4 4 1
4 3 3 0 30 33 33 33 32 32 33 31 32 32 31 31
0 1 1 1 2 2 2 1 0 0 0 0 0 0 0 0
1 40 46 39 27 0 0 24 46 40 34 37 40 40 35 33
36 34 37 40 61 63 72 85 84 84 70 60 60 58 49 40
30 39 55 77 97 103 110 118 123 132 139 146 146 146 141 133
118 105 103 103 85 8 0 2 24 27 27 21 19 7 10 21
23 23 25 26 29 29 30 31 32 33 32 30 26 11 2 1
0 0 2 1 2 0 0 20 31 32 31 24 4 4 2 0
0 0 0 0 29 33 32 32 32 32 33 32 32 32 31 31
0 1 1 1 1 1 1 0 0 1 0 0 0 0 0 0
0 38 47 39 30 0 0 20 43 26 32 30 31 38 37 34
39 29 24 27 46 57 58 67 72 65 58 50 44 34 25 18
24 45 47 62 83 88 105 118 128 138 142 146 147 145 140 130
119 105 102 104 93 21 1 18 29 28 28 25 19 13 13 22
24 24 24 25 27 29 29 30 32 32 32 28 26 12 2 2
1 0 2 2 3 0 0 18 30 31 31 24 3 4 1 1
1 0 0 0 30 32 31 32 31 32 32 31 31 31 31 30
1 1 1 1 1 1 1 0 0 0 0 0 0 0 0 0
0 35 47 39 31 4 13 30 43 10 10 13 15 17 19 19
35 32 29 31 34 46 47 49 48 51 39 28 27 25 19 17
46 58 58 64 81 95 109 121 131 138 143 145 146 146 139 127
118 104 102 104 97 44 22 44 47 48 46 46 43 42 40 39
37 35 33 29 25 27 28 30 32 32 32 28 27 12 2 2
1 2 1 1 2 0 0 18 30 31 31 25 4 2 1 3
0 0 0 0 21 9 6 5 22 33 33 31 32 31 31 31
0 0 0 0 0 0 0 0 0 0 0 0 0 0 0 0
0 30 48 39 36 30 38 43 44 4 0 0 0 0 4 8
35 34 44 48 36 44 36 30 27 24 22 13 10 12 14 29
58 65 69 71 82 99 111 123 133 140 142 144 147 146 142 128
119 106 101 107 101 63 22 45 51 51 48 47 44 43 42 41
39 37 36 34 26 24 27 29 31 31 31 28 26 13 1 1
2 1 1 1 1 0 0 16 30 30 30 25 3 0 33 43
5 0 0 0 12 28 32 27 4 29 31 30 31 30 31 29
0 0 0 0 0 0 1 0 0 0 0 0 0 0 0 0
0 27 47 38 37 47 49 52 48 4 0 0 0 0 0 5
38 32 42 46 28 42 50 16 0 0 0 0 4 7 17 44
60 69 70 75 90 101 117 128 136 137 140 143 144 145 144 130
115 106 99 106 103 80 9 57 53 51 47 47 44 43 43 40
38 36 36 34 27 22 26 29 31 31 30 28 26 14 1 1
1 0 0 0 1 0 0 16 30 30 30 27 15 10 34 36
12 0 0 13 32 31 31 31 14 21 31 31 31 30 30 30
0 1 1 0 0 0 0 0 0 0 0 0 0 0 0 0
0 24 47 38 36 48 51 53 52 10 0 0 0 0 0 1
39 31 40 43 3 4 24 17 0 0 0 0 12 27 43 58
65 69 74 75 91 106 119 131 137 134 136 139 144 146 143 132
117 109 99 106 107 91 13 72 53 51 46 46 45 44 43 41
36 36 36 34 29 19 26 28 30 31 31 28 27 15 1 0
1 0 0 0 1 1 0 14 29 30 31 30 30 13 12 4
5 0 0 13 32 31 32 31 18 14 31 29 29 29 30 30
0 0 0 0 0 1 0 0 0 0 0 0 0 0 0 0
0 20 47 38 36 34 32 31 27 4 0 0 0 0 0 1
40 30 40 42 2 2 22 19 0 0 0 4 21 56 60 64
69 69 70 77 91 108 121 131 136 132 133 139 144 146 144 132
119 107 99 104 108 96 14 59 60 51 46 46 46 44 41 40
38 36 36 34 30 15 25 27 30 30 30 28 27 16 1 1
0 0 0 0 0 0 0 13 28 29 31 31 31 17 0 0
0 0 3 13 33 32 32 31 18 17 32 32 31 31 31 31
1 0 0 0 0 1 0 0 0 0 0 0 0 0 0 0
0 17 47 38 35 18 13 15 12 0 0 0 0 0 0 2
40 30 41 43 2 2 20 22 0 0 0 15 14 55 72 76
78 79 78 77 81 103 119 129 136 137 131 135 143 147 144 133
121 109 100 102 111 86 9 74 74 66 45 46 46 44 41 38
39 36 37 35 31 14 22 25 28 29 29 28 27 16 1 0
1 0 0 0 0 0 0 14 31 30 30 20 4 15 1 0
0 0 0 8 31 30 30 30 11 22 31 30 30 30 30 28
0 0 0 1 1 0 0 0 0 0 0 0 0 0 0 0
0 14 46 38 35 21 16 18 13 0 0 0 0 0 0 3
40 28 41 41 2 2 18 23 0 0 2 40 16 57 71 79
84 84 83 83 77 87 111 124 132 133 129 131 139 146 145 131
122 114 101 100 109 57 14 80 81 90 57 46 46 44 41 39
39 35 35 34 32 15 21 26 27 29 29 28 27 17 3 2
2 1 0 0 0 0 3 18 30 29 30 18 31 47 14 0
0 0 0 9 30 30 30 25 6 30 30 30 31 31 30 30
0 0 0 0 1 0 0 0 0 0 0 0 0 0 0 0
0 12 46 38 33 24 18 20 13 0 0 0 0 3 0 0
39 30 42 42 2 4 17 24 3 0 21 52 23 53 75 82
90 93 90 87 83 76 88 110 122 131 129 128 140 147 145 132
123 119 105 100 97 25 26 71 75 95 68 50 48 44 42 39
39 36 35 35 34 18 19 25 27 28 29 28 26 25 21 20
14 12 12 7 3 3 11 17 21 21 18 11 24 22 8 0
0 0 0 3 12 12 14 5 22 14 9 18 31 30 30 29
0 0 0 0 0 0 0 0 0 0 0 0 0 0 0 0
0 12 45 38 34 26 23 23 15 0 4 0 0 7 2 0
38 30 43 41 12 5 16 25 7 10 53 64 37 42 79 89
99 106 102 92 87 83 81 99 117 125 124 128 141 147 145 131
120 122 110 98 75 16 38 75 77 98 80 41 48 51 44 39
40 38 37 35 32 22 16 24 26 28 29 28 27 25 25 23
11 2 2 0 0 0 0 0 0 0 0 0 0 0 0 0
0 0 0 0 0 0 0 0 11 6 12 15 33 32 31 31
0 0 0 0 0 0 0 0 0 0 0 0 0 0 0 0
0 11 45 38 34 27 24 24 15 2 8 0 0 10 17 2
38 31 44 39 19 12 14 24 4 31 59 56 39 23 81 93
104 116 122 114 101 92 87 95 112 119 118 126 142 147 146 129
120 126 119 98 50 17 46 75 89 98 93 55 18 56 56 60
43 38 36 34 32 26 15 23 25 27 28 27 26 25 25 23
9 0 1 4 6 7 9 10 11 11 12 13 14 15 16 17
20 21 22 21 13 0 0 23 7 4 39 31 32 32 31 36
0 0 0 0 0 0 0 0 0 0 0 0 0 0 0 0
0 10 44 38 33 28 25 24 21 5 10 6 5 14 20 13
36 34 45 38 15 23 14 22 6 54 63 54 56 14 62 97
108 118 126 125 118 100 89 93 107 115 111 120 141 148 146 128
120 129 125 99 31 20 63 78 92 100 99 66 62 45 44 74
73 50 35 34 31 27 12 22 25 27 28 27 26 25 25 24
9 0 7 18 21 22 23 24 25 25 25 25 25 26 27 27
29 29 28 25 14 0 0 7 3 0 3 3 3 2 6 50
0 0 0 0 0 0 0 0 0 0 0 0 0 0 0 0
0 8 45 38 33 29 26 24 33 40 43 44 45 46 47 48
54 42 45 35 6 28 15 34 40 64 66 55 77 16 34 93
110 121 130 133 131 117 98 95 103 109 106 114 137 148 145 127
120 133 132 100 22 30 72 70 77 102 103 92 76 84 34 66
86 87 58 36 33 30 12 21 24 26 26 27 22 6 4 3
3 0 8 19 23 25 26 27 27 27 27 26 27 28 29 30
31 31 30 27 16 0 0 0 0 0 0 0 0 0 5 49
0 0 0 0 0 0 0 0 0 0 0 0 0 0 0 0
0 7 45 39 33 29 27 25 35 51 51 51 51 51 51 52
57 53 43 35 0 14 31 39 40 69 68 55 75 29 26 65
112 124 133 139 140 133 115 100 103 106 101 108 136 148 143 124
121 135 137 86 19 46 74 77 80 103 107 99 76 91 71 45
81 88 82 60 34 31 21 21 23 25 26 26 23 0 0 0
0 0 9 18 22 26 27 28 29 28 28 29 29 30 32 32
33 32 31 28 17 0 0 0 0 0 0 0 0 0 6 47
0 0 0 0 0 0 0 0 0 0 0 0 0 0 0 0
0 6 45 39 33 29 27 25 27 50 49 48 47 46 45 45
46 46 41 35 0 27 43 29 55 69 70 48 69 44 26 44
95 124 135 139 144 141 132 112 103 102 95 103 136 146 141 125
121 137 140 68 26 59 81 81 89 106 110 101 66 83 87 65
45 69 85 85 49 7 14 41 44 37 26 25 22 0 0 0
0 0 9 18 22 25 27 28 29 29 29 29 30 31 32 32
33 32 31 28 17 0 0 0 0 0 0 0 0 31 44 44
0 0 0 0 0 0 0 0 0 0 0 0 0 0 0 0
0 6 44 39 33 28 27 25 18 16 15 15 14 14 15 16
18 18 36 36 24 43 29 56 60 69 72 52 82 62 31 46
71 117 132 140 144 145 143 132 114 99 93 98 132 146 138 128
123 140 130 53 52 75 82 86 91 104 113 105 87 93 97 104
52 42 67 92 89 51 18 13 31 38 52 48 35 17 4 0
0 1 10 18 21 24 27 27 29 30 30 30 31 33 33 34
34 33 31 30 18 0 0 0 0 0 0 0 0 38 42 42
0 0 0 0 0 0 0 0 0 0 0 0 0 0 0 0
0 6 43 38 32 28 27 26 20 16 14 14 14 14 15 15
18 19 37 45 47 28 34 59 61 73 71 59 79 67 51 51
66 94 131 140 144 146 146 143 126 107 99 97 131 146 139 132
123 136 95 57 73 82 82 88 85 104 110 104 81 92 94 104
90 18 54 86 96 93 91 81 75 78 58 45 67 59 44 17
0 1 11 18 21 24 26 28 29 30 30 30 32 33 34 34
34 34 32 31 17 0 0 0 0 0 0 0 0 37 39 38
0 0 0 0 0 0 0 0 0 0 0 0 0 0 0 0
0 5 42 38 31 28 27 26 25 21 20 19 17 17 17 17
20 20 39 47 37 10 46 50 54 75 73 67 59 65 74 60
70 78 109 138 143 145 146 146 135 114 105 95 127 147 145 131
123 109 72 70 70 72 73 83 79 102 109 101 76 87 89 105
107 43 26 64 92 90 91 91 87 82 84 54 31 74 68 67
49 28 16 18 20 23 25 27 28 29 30 32 33 34 34 34
34 34 33 33 18 0 0 0 0 0 0 0 2 36 36 35
0 0 0 0 0 0 0 0 0 0 0 0 0 0 0 0
0 6 42 39 32 28 26 27 26 23 23 22 22 22 21 21
22 22 46 47 26 16 58 56 61 75 77 72 61 85 79 76
75 83 88 120 143 146 148 148 143 119 110 95 122 146 145 128
110 67 70 82 81 90 42 20 95 100 110 110 81 80 89 104
106 75 30 57 78 94 90 90 89 87 81 78 47 43 77 73
72 66 64 48 39 34 29 26 28 29 31 31 33 34 34 34
34 34 34 32 18 0 0 7 22 7 0 0 4 35 34 34
0 0 0 0 0 0 0 0 0 0 0 0 0 1 1 2
3 12 45 39 31 28 26 26 25 23 23 22 22 22 22 24
30 39 61 44 20 50 53 57 67 72 76 78 67 92 77 86
81 85 91 98 128 146 146 147 146 124 111 95 117 146 145 130
72 57 75 93 87 87 34 0 58 102 110 109 86 106 88 105
105 82 79 48 80 85 90 85 89 83 82 83 78 34 70 74
70 74 68 67 65 64 65 55 47 38 30 31 33 33 34 33
34 34 34 34 18 0 0 11 26 6 0 0 7 34 33 33
11 13 14 16 18 18 20 22 24 25 26 27 29 30 31 31
31 33 34 32 32 28 27 31 29 26 23 22 22 26 39 54
43 59 62 41 18 61 50 55 63 64 78 79 60 89 69 61
83 88 96 99 105 132 147 148 147 131 114 98 111 145 145 104
50 65 93 88 78 90 13 0 29 105 107 107 83 103 87 105
108 75 74 40 78 84 91 86 86 86 85 85 83 66 35 84
75 75 72 70 70 70 65 66 63 53 40 31 32 33 33 33
33 34 34 34 17 0 0 0 0 0 0 0 9 34 33 32
40 39 31 18 21 25 19 16 28 37 37 35 35 34 34 33
33 32 32 31 32 32 41 35 33 36 31 23 36 51 57 59
51 74 62 38 23 67 53 54 49 59 78 80 69 72 26 4
57 94 96 97 99 107 133 147 148 141 115 101 107 144 137 62
62 88 99 89 78 21 0 0 5 96 108 111 85 89 87 106
108 80 101 57 57 83 82 89 83 86 88 86 87 84 45 63
79 69 75 76 68 65 71 62 64 57 46 29 31 32 33 33
33 35 34 34 17 0 0 0 0 0 0 0 12 33 33 32
39 15 20 35 38 38 37 34 21 17 34 36 35 34 34 33
32 33 32 33 38 43 41 26 24 43 56 54 48 50 58 60
70 80 58 30 38 67 68 55 52 71 69 81 76 47 7 3
26 90 92 91 96 101 116 134 145 145 124 102 102 131 90 73
108 103 105 82 74 12 0 0 0 58 113 116 87 95 89 107
108 82 113 68 52 70 82 91 88 84 90 86 86 86 73 30
85 72 82 47 60 68 68 69 61 61 55 33 30 31 31 32
33 33 33 33 16 0 0 0 0 0 0 0 16 34 33 32
13 34 40 39 38 38 38 37 37 32 16 31 35 34 33 33
31 30 30 39 40 42 28 11 45 59 60 61 59 55 68 67
82 80 55 38 49 48 65 36 28 78 57 83 83 39 0 1
22 73 88 92 94 102 112 123 138 139 128 101 94 105 100 89
67 107 79 54 69 41 2 1 3 26 102 114 87 115 94 109
109 85 112 81 60 63 69 87 90 82 87 87 86 87 85 34
58 79 76 18 29 47 61 67 67 65 64 37 29 30 31 32
33 32 33 33 16 0 0 0 0 0 0 0 13 32 32 32
37 37 36 35 34 33 30 29 26 23 17 9 14 11 8 7
9 18 39 44 48 45 18 30 55 58 62 66 61 60 68 67
74 55 51 49 47 41 57 18 27 60 54 79 82 43 0 0
11 76 79 91 96 102 117 118 127 129 119 102 92 108 83 69
95 102 71 73 102 76 58 43 37 54 39 105 92 118 90 111
108 89 96 77 72 70 64 75 92 86 85 84 82 86 84 56
31 87 72 29 28 38 65 76 78 73 70 35 30 31 31 31
32 32 33 34 15 0 0 0 0 0 0 0 4 31 32 32
8 13 20 23 23 23 23 23 17 8 7 6 0 1 3 5
13 37 43 44 50 45 15 34 61 60 62 67 68 64 63 74
67 43 44 43 37 32 54 17 36 54 67 67 82 48 0 0
9 54 83 83 106 89 121 121 105 91 95 99 100 115 88 110
106 102 86 93 108 82 104 108 86 69 31 37 79 101 99 113
110 92 79 75 90 77 83 64 75 88 84 82 81 81 85 74
28 66 81 32 27 41 65 81 84 78 70 33 30 31 31 32
33 34 35 36 16 0 0 0 0 0 0 0 16 15 31 31
7 15 37 42 45 45 46 50 49 49 47 41 8 3 8 8
36 43 43 44 51 49 15 33 63 64 62 69 69 60 64 75
53 58 49 49 49 43 58 17 39 61 78 59 83 53 0 0
36 36 72 83 74 92 99 95 71 46 69 91 109 115 92 109
117 111 106 86 109 87 113 110 106 102 76 44 33 76 96 111
110 98 104 89 67 72 65 49 59 76 88 81 77 81 84 79
43 39 87 43 27 42 66 83 85 78 70 35 30 31 31 32
34 35 37 39 17 0 0 5 2 0 0 0 26 12 27 32
20 28 66 66 65 64 62 58 55 51 50 43 17 0 3 25
48 42 44 45 50 55 21 31 63 65 62 68 69 62 77 71
48 72 61 63 49 61 45 9 48 69 72 57 84 48 2 4
50 40 46 75 63 55 58 74 89 53 33 61 116 113 92 118
129 103 113 85 101 86 117 111 108 110 86 84 48 51 88 113
110 99 99 80 57 56 49 69 78 68 80 82 74 82 84 76
74 63 81 45 34 40 59 76 85 81 70 58 34 34 35 35
37 38 40 44 16 0 47 117 57 0 0 0 29 26 12 32
19 22 60 53 55 58 54 53 50 46 51 48 31 4 14 42
50 42 44 45 47 62 35 39 62 67 62 64 67 70 78 65
51 73 65 66 59 81 72 28 58 86 58 59 81 66 33 32
62 61 69 77 82 46 46 50 76 82 33 84 116 98 87 128
128 105 112 71 79 89 119 111 109 116 91 95 88 105 75 104
110 97 96 65 51 53 60 70 65 47 64 82 72 84 86 84
89 88 69 45 35 43 54 69 81 81 68 66 46 9 5 4
4 3 3 3 1 0 80 149 74 0 0 1 30 30 13 24
46 44 55 69 72 70 68 66 57 46 43 38 11 4 35 45
54 44 45 47 46 63 51 45 63 63 62 64 69 77 71 51
24 19 33 37 63 97 104 80 57 101 66 77 81 92 85 88
90 100 90 98 95 83 60 52 58 58 57 107 102 91 93 129
125 118 113 77 97 91 119 111 112 117 91 116 88 126 115 103
111 102 57 52 60 68 76 65 8 43 51 82 70 85 87 93
95 94 61 40 38 47 56 60 80 78 66 60 67 54 4 0
0 0 0 0 0 0 14 28 10 0 0 2 30 30 26 6
34 35 40 47 45 43 42 40 32 27 25 11 6 39 42 47
57 52 43 49 47 67 75 61 62 66 69 71 74 74 66 60
56 41 47 43 82 106 112 87 58 103 83 88 80 92 104 100
78 102 82 115 87 82 75 63 48 68 68 115 104 96 94 126
126 120 102 91 106 95 122 110 112 122 91 110 84 123 115 116
113 101 43 42 28 69 45 45 32 26 55 85 69 90 87 95
93 90 55 39 37 48 62 53 79 77 55 54 73 79 41 0
0 0 0 0 0 2 0 0 0 0 0 3 25 18 2 4
36 37 38 37 38 37 37 32 24 22 23 11 33 43 43 51
61 59 44 46 48 67 78 78 78 75 84 83 71 64 65 62
64 53 57 51 95 109 114 87 68 107 93 75 57 111 107 104
80 113 82 121 115 84 69 64 38 64 88 120 108 100 99 128
125 118 98 88 108 96 122 110 108 119 91 118 86 123 118 118
113 104 59 73 76 114 65 56 59 35 69 75 74 96 89 87
85 85 34 31 40 48 65 50 75 76 30 7 55 81 73 17
0 0 0 0 0 0 0 0 0 0 0 0 5 6 21 23
21 19 17 14 11 8 26 29 23 22 23 32 39 43 44 55
62 59 48 44 47 65 80 81 85 77 76 69 62 63 59 63
63 53 57 57 98 112 110 89 75 107 102 60 82 112 111 108
75 106 81 110 117 113 77 63 55 38 98 123 110 97 108 126
121 109 97 98 115 96 119 106 109 116 91 101 85 123 117 119
116 107 81 101 81 116 77 53 65 43 67 61 83 94 95 86
86 70 18 21 36 49 66 52 70 73 23 0 1 41 80 64
8 0 0 0 0 0 0 0 0 0 0 0 0 1 10 13
0 0 0 0 0 0 9 8 3 7 15 40 40 40 44 59
68 62 56 41 40 64 77 78 79 68 62 68 73 66 49 66
63 50 57 55 98 109 107 81 90 108 63 76 102 108 116 115
85 84 83 108 120 124 100 64 57 59 88 120 102 97 117 118
113 104 99 87 95 97 120 102 108 113 88 90 84 121 117 121
121 110 88 115 85 121 96 50 69 62 56 52 70 91 84 84
98 76 22 9 30 51 61 50 64 71 32 1 0 1 43 79
52 0 0 0 0 0 0 0 0 0 0 0 0 0 0 0
1 0 0 0 0 0 0 0 0 0 27 41 41 41 49 63
61 58 63 54 38 62 74 69 64 63 79 85 78 69 48 68
61 50 58 51 96 109 105 76 102 73 52 91 104 107 119 121
97 101 93 100 125 124 105 64 64 81 110 122 94 81 111 119
119 105 96 87 95 95 111 103 108 119 92 109 86 119 118 119
123 113 79 92 84 119 108 52 71 72 52 57 82 75 81 85
96 91 42 28 32 48 67 51 60 67 45 28 3 0 1 55
77 25 0 0 0 0 0 0 0 0 0 0 0 0 0 0
0 0 0 0 0 0 0 0 0 3 46 41 40 43 54 60
64 75 73 56 42 55 61 66 74 74 80 76 75 64 51 65
60 52 60 48 89 107 110 102 107 73 89 83 112 101 116 123
104 97 103 86 116 119 99 65 69 58 108 110 90 85 115 122
120 106 96 101 112 98 115 112 110 122 96 113 88 123 124 124
127 120 79 90 86 120 120 70 70 74 54 69 78 90 83 74
87 88 45 46 40 18 58 58 61 69 52 42 34 6 0 22
76 54 0 0 0 0 0 0 0 0 0 0 0 0 0 0
0 0 0 0 0 0 3 5 11 45 42 47 41 44 56 64
69 74 67 61 47 47 75 75 70 81 81 69 70 68 54 62
61 52 62 51 70 107 115 115 114 83 116 84 113 104 113 123
110 90 112 77 111 109 93 66 63 57 106 86 109 89 119 125
119 113 94 97 104 92 119 113 112 123 97 115 92 120 122 123
125 123 90 112 89 125 125 87 68 72 59 69 74 80 86 87
76 59 42 52 36 16 15 73 53 60 56 46 44 35 9 4
68 59 0 0 0 0 0 0 0 0 0 0 0 0 0 0
0 0 3 9 15 27 36 28 41 53 43 49 43 47 62 65
72 69 67 63 40 54 77 72 76 82 78 71 76 69 59 55
64 51 63 38 58 105 119 115 115 83 111 84 110 102 110 125
118 81 106 77 109 104 104 80 68 71 108 81 110 109 116 120
116 108 96 101 112 89 124 108 116 123 100 113 96 120 127 127
126 128 94 103 87 127 125 103 68 74 57 76 78 84 78 80
89 63 26 46 40 50 1 27 76 56 56 54 45 53 31 5
46 26 0 0 0 0 0 0 0 0 0 0 0 0 0 0
