P2
128 120
152
45 45 45 44 44 44 43 43 42 43 42 42 41 41 40 40
39 39 38 37 36 36 35 35 34 34 34 32 33 32 31 31
30 29 29 28 27 27 26 26 25 25 24 24 24 23 22 22
21 21 21 21 21 20 19 19 18 18 18 19 24 24 25 24
19 9 19 25 21 20 19 19 18 16 15 13 14 14 12 8
9 11 14 15 17 18 19 19 20 21 21 20 21 21 21 21
22 22 22 22 23 23 24 25 25 25 25 26 27 26 29 27
28 28 29 29 30 30 30 30 30 31 31 31 31 31 32 33
45 45 45 44 44 44 43 43 43 42 42 41 40 40 39 39
38 38 38 37 36 36 35 35 35 34 34 33 32 32 31 30
30 29 28 28 27 27 27 26 26 25 25 24 24 23 23 22
22 21 21 21 20 20 19 20 19 19 20 20 25 25 25 25
19 11 17 26 21 20 20 19 19 17 16 15 14 14 13 10
10 11 14 16 18 19 19 20 20 20 20 20 21 21 22 22
22 22 23 23 23 24 25 24 25 26 26 27 27 27 29 28
29 28 30 29 30 29 30 30 30 31 32 31 32 32 32 34
45 44 45 44 44 44 44 43 42 43 42 42 41 41 41 40
39 39 38 37 36 36 36 35 34 34 34 33 33 31 31 31
31 30 29 29 28 27 27 26 26 26 24 24 24 24 23 23
23 22 22 22 21 21 20 20 20 19 20 20 25 26 26 26
20 13 16 26 22 21 20 19 19 18 17 16 15 15 15 12
11 13 17 18 19 19 20 19 21 21 21 22 22 23 23 23
23 23 24 24 25 25 25 26 26 26 26 27 27 28 29 28
29 29 30 30 30 31 31 30 31 32 32 32 32 32 31 30
45 44 45 44 45 44 43 43 43 42 42 41 41 40 40 39
39 39 38 37 37 36 36 36 35 35 34 33 33 32 32 31
30 30 29 28 28 28 27 27 27 25 26 25 24 24 23 23
23 22 22 22 21 21 20 21 20 20 21 23 27 26 27 26
20 15 16 27 22 21 21 20 20 19 20 19 16 16 15 13
12 13 17 19 20 20 21 21 22 22 23 23 23 23 24 24
24 24 24 24 25 25 25 26 26 27 27 27 27 28 30 29
30 29 29 30 30 31 29 31 32 32 31 30 31 31 33 33
45 45 45 44 44 44 43 43 43 43 42 42 41 41 40 40
39 38 38 37 36 36 36 36 35 34 34 33 33 32 32 31
31 30 30 29 29 28 28 27 27 26 26 25 24 24 24 23
23 22 22 22 21 21 21 20 20 21 21 23 27 27 28 27
21 16 15 27 24 22 21 20 20 19 17 18 16 17 16 15
14 14 18 20 21 21 21 22 22 23 23 23 23 23 24 24
24 25 25 25 25 26 26 27 27 27 27 28 28 28 29 29
29 30 30 30 31 30 29 29 31 31 33 32 33 33 33 33
44 45 44 44 44 44 43 43 42 42 42 41 41 40 40 39
39 39 38 38 37 36 36 35 35 35 34 33 33 33 32 31
30 30 30 29 29 28 28 28 27 27 26 26 25 25 24 24
24 22 22 22 22 21 22 21 21 21 22 23 28 28 28 28
20 16 15 27 23 21 20 21 21 20 19 20 17 18 17 16
15 16 19 21 21 21 22 21 22 22 23 23 24 24 24 24
24 25 25 25 26 26 26 27 27 27 28 28 28 29 30 29
29 28 28 28 29 29 31 32 32 31 32 33 33 32 32 33
45 45 44 43 44 43 43 42 42 42 42 41 41 40 41 39
39 39 38 38 37 36 36 35 34 34 34 33 33 32 32 31
31 30 30 29 29 29 28 28 27 27 26 26 26 25 24 24
24 24 23 22 23 22 22 21 21 21 22 24 28 28 28 27
22 16 12 25 23 21 21 22 21 20 19 20 18 17 18 16
15 17 21 21 22 22 22 22 22 23 23 23 24 24 24 25
25 25 26 26 26 26 27 27 27 28 28 28 28 28 27 26
28 29 30 31 32 32 32 33 32 33 33 33 33 33 33 32
45 44 44 44 43 43 43 43 42 42 42 42 41 40 40 39
39 39 38 37 37 36 37 36 35 34 35 34 33 32 33 32
31 31 30 29 29 29 28 28 28 27 26 26 26 25 25 24
24 24 24 23 23 23 22 22 22 22 24 25 29 29 29 28
23 14 8 23 25 23 23 22 21 21 20 21 18 19 19 18
17 19 22 23 23 22 23 23 23 24 24 24 25 25 25 26
25 26 26 26 27 27 27 27 28 28 27 25 26 27 29 31
30 30 31 31 32 32 32 33 32 32 32 32 33 34 33 33
45 44 44 44 44 43 43 42 42 42 41 41 41 40 40 39
39 38 39 37 37 37 36 35 35 35 34 33 33 32 32 32
32 31 31 30 30 29 28 28 27 27 26 25 26 25 25 24
25 24 24 23 23 23 23 23 22 23 23 25 29 29 29 28
23 16 15 26 25 24 24 23 22 21 21 22 19 19 19 18
17 19 22 23 23 23 23 23 23 24 24 25 25 25 25 26
25 26 27 27 27 27 26 26 27 27 27 29 29 30 30 30
30 31 32 32 32 33 33 34 33 32 33 32 33 33 33 33
47 45 44 44 43 43 43 43 43 41 42 41 41 40 40 39
38 38 37 37 37 37 36 35 35 34 34 34 33 33 33 32
32 31 30 31 29 29 29 28 27 27 27 27 27 26 25 25
25 24 24 24 23 23 22 22 22 22 23 25 30 29 30 28
23 17 19 24 26 24 24 23 23 22 21 22 20 20 20 18
17 19 22 23 23 23 23 24 24 25 24 25 25 25 26 27
26 26 26 26 26 27 27 27 28 27 29 29 29 30 31 30
31 31 32 31 31 32 32 33 33 33 33 33 33 34 34 33
59 61 61 58 53 47 42 42 42 42 42 41 41 40 40 39
39 38 38 37 37 36 36 36 35 35 34 34 34 33 32 32
31 32 31 31 30 29 29 28 28 27 27 26 26 25 26 25
24 25 24 24 24 24 23 23 22 22 23 24 30 29 29 28
23 18 22 23 27 25 24 24 23 22 22 23 20 20 20 19
16 20 23 24 24 24 24 25 25 25 26 25 25 25 25 25
25 25 26 26 27 27 28 28 28 28 29 29 30 30 30 30
31 31 31 32 32 32 33 34 32 32 33 33 33 33 33 33
35 45 54 57 58 52 42 42 42 42 42 41 40 40 40 39
39 39 37 37 37 37 36 36 36 35 35 34 34 34 33 32
31 31 31 30 30 29 29 28 28 27 27 26 26 26 26 26
25 25 24 24 24 23 23 23 23 23 24 25 30 30 30 30
23 19 23 21 26 25 24 24 24 23 22 23 20 21 20 19
18 21 23 24 24 25 25 25 25 25 25 25 25 25 26 26
26 27 27 27 28 28 28 29 28 29 29 29 29 31 31 31
31 31 31 32 32 32 32 33 33 33 33 33 33 34 34 33
0 0 1 26 59 52 42 42 42 41 41 41 40 40 40 39
39 39 38 37 37 37 36 36 36 35 35 34 34 33 32 33
32 32 31 30 30 30 30 28 28 28 28 27 27 26 26 25
25 25 24 25 24 24 23 23 23 23 24 25 31 31 31 30
24 20 25 20 27 25 26 25 24 24 22 24 20 21 21 20
18 22 24 24 25 25 25 25 25 25 26 26 26 26 27 26
26 26 27 27 28 29 29 29 29 29 29 30 30 30 30 30
31 31 32 32 32 32 33 34 33 33 33 33 33 34 34 34
0 0 0 21 59 53 42 42 42 42 42 41 40 40 40 39
39 39 38 38 37 37 36 36 36 35 35 34 34 34 34 33
32 32 31 31 30 30 30 29 29 29 28 28 28 27 26 26
26 26 25 24 24 24 24 23 24 24 25 26 31 31 31 31
25 20 27 20 27 26 26 25 25 23 22 24 21 22 21 21
19 23 24 25 25 25 26 25 26 26 26 26 26 26 27 27
28 27 28 28 28 29 29 30 29 29 30 31 31 31 31 31
31 32 32 32 33 33 33 34 33 33 33 33 34 34 34 34
0 0 0 22 59 52 42 42 42 42 41 41 41 40 40 39
39 39 39 38 38 38 37 37 37 35 35 34 34 33 34 33
33 32 32 31 31 30 30 29 29 29 28 28 28 28 27 27
26 26 25 25 25 24 24 25 24 24 25 26 31 32 31 31
25 21 28 19 28 27 26 25 24 24 24 26 21 22 22 21
18 21 23 25 26 26 26 26 27 26 27 28 27 27 27 27
27 28 28 29 29 29 29 29 30 30 30 31 31 31 31 32
32 32 32 33 33 32 33 34 34 34 34 35 35 34 33 32
0 0 0 21 57 50 42 42 42 41 42 41 41 40 40 40
39 39 39 38 38 38 37 36 36 35 35 35 34 34 34 33
33 32 31 31 31 30 30 30 30 29 29 28 28 28 27 27
27 26 26 25 25 24 24 24 24 25 25 26 32 32 32 32
25 21 29 19 27 26 26 25 24 24 23 26 22 22 22 22
18 24 25 26 26 26 26 26 26 26 26 27 28 27 27 28
28 29 29 29 29 28 29 30 30 30 30 30 31 30 31 31
31 31 32 33 32 34 33 34 33 32 31 32 32 33 34 34
2 0 0 22 58 51 43 42 43 42 41 41 41 41 40 40
40 39 39 38 38 38 38 37 37 36 36 35 35 34 34 33
33 33 32 32 32 31 31 30 30 29 29 29 28 28 27 27
27 26 26 26 25 25 25 25 25 25 26 27 32 32 33 32
26 22 29 20 28 27 27 26 25 25 25 27 22 23 23 22
19 24 25 26 26 27 28 27 27 27 28 28 28 28 28 28
28 28 29 30 30 30 29 30 30 31 31 31 31 30 32 32
32 32 32 33 33 31 32 31 33 35 34 34 34 34 35 34
6 0 0 23 58 50 42 43 42 41 42 42 42 41 41 41
40 39 39 39 38 38 38 36 37 36 36 35 35 35 34 33
34 33 33 32 32 31 30 30 30 30 30 29 29 28 28 28
27 27 27 26 26 25 25 25 25 25 26 27 32 31 32 32
25 21 29 21 27 26 27 27 27 25 25 26 23 24 23 23
20 25 26 28 27 27 27 27 28 28 28 27 28 28 28 29
29 29 30 30 30 30 30 31 31 31 31 32 31 32 32 32
32 32 32 33 34 35 35 34 34 34 34 34 34 34 34 34
14 0 0 24 57 49 42 43 42 42 42 41 41 41 40 40
40 39 39 39 39 38 37 37 37 37 36 35 35 35 34 34
33 33 33 32 32 32 31 31 31 30 30 29 29 29 29 28
27 27 27 27 26 26 26 24 25 24 22 24 27 24 23 23
19 16 26 20 24 23 25 27 26 26 25 27 24 24 24 23
19 25 25 27 27 28 28 28 29 29 29 29 29 29 28 29
29 30 30 31 30 31 31 32 31 32 31 31 31 31 32 32
34 34 34 34 35 34 34 34 34 35 36 35 35 35 35 35
10 1 0 25 56 49 43 43 42 42 42 42 42 41 41 40
40 40 40 39 38 38 37 37 37 36 36 36 36 36 35 35
34 33 33 33 32 32 31 31 31 30 30 29 29 28 27 25
25 26 27 27 27 27 26 23 17 15 10 7 8 6 5 6
6 7 11 14 18 22 23 24 25 25 25 26 24 24 24 24
19 26 26 28 28 28 28 28 29 29 30 29 29 29 30 30
30 31 31 31 32 31 31 30 30 30 31 32 32 32 33 34
34 34 35 35 35 35 35 35 35 35 35 35 35 34 34 35
9 10 8 27 57 49 43 43 43 42 43 42 41 41 41 40
40 40 39 39 38 38 38 38 37 37 37 36 35 35 35 34
34 34 33 33 33 33 32 32 31 31 31 29 30 27 25 27
27 25 25 25 26 26 23 13 3 0 1 2 0 1 3 4
2 4 4 5 10 13 19 23 24 25 25 25 24 25 24 24
20 26 26 29 29 28 29 29 30 29 30 29 30 30 30 31
31 31 30 31 31 31 31 32 32 32 32 33 32 33 33 34
34 35 34 34 35 34 35 35 34 35 36 35 35 35 35 35
10 7 18 39 57 47 43 43 44 43 42 42 42 41 41 41
40 39 40 39 38 37 38 37 37 36 37 36 36 36 35 35
34 34 34 33 33 32 32 32 31 31 30 30 28 24 26 27
26 24 23 22 20 22 12 0 0 0 0 0 1 2 5 7
7 4 5 5 8 9 8 13 18 25 25 24 25 25 25 25
21 26 26 29 29 29 30 29 30 29 30 30 30 30 30 31
31 31 31 31 31 32 32 32 31 32 33 33 33 33 34 35
34 33 34 35 35 34 35 35 34 35 35 35 35 35 35 35
47 45 41 45 53 47 43 43 42 43 42 41 42 41 41 39
40 39 39 39 38 39 38 38 37 37 36 36 36 35 35 34
34 34 33 33 33 32 32 32 31 31 31 31 28 26 25 24
23 21 19 18 16 14 3 0 0 0 0 0 1 5 6 5
4 3 5 6 7 7 5 5 7 13 23 25 25 25 25 24
21 27 26 29 29 29 29 30 29 29 30 29 29 29 30 30
30 31 31 31 31 31 32 32 32 33 32 33 33 34 33 34
34 34 35 34 34 34 35 34 35 35 35 35 35 35 34 34
41 43 45 45 46 44 42 43 42 42 42 41 41 40 40 40
40 39 39 38 38 38 37 37 37 37 36 36 35 35 35 35
34 34 33 33 33 32 32 31 31 33 32 28 26 24 22 17
13 9 4 1 5 3 0 0 0 0 0 0 0 2 4 6
7 7 3 5 7 6 6 5 4 3 10 17 23 25 24 24
21 27 26 29 29 29 29 29 29 29 29 29 29 30 30 31
31 30 31 31 31 31 31 32 32 32 31 33 33 33 33 34
33 33 34 34 35 35 34 35 35 35 35 34 34 34 35 34
27 32 37 41 45 45 45 44 44 43 42 42 41 41 41 40
41 40 40 39 39 38 39 38 37 37 37 36 36 36 35 34
35 34 34 34 33 33 33 32 33 32 30 29 23 18 12 6
1 1 0 0 0 0 0 0 0 0 0 0 0 0 0 1
3 4 4 4 6 8 7 7 6 3 2 13 20 24 26 25
21 27 23 28 29 29 29 30 30 30 31 30 30 31 31 31
32 31 32 32 32 32 32 33 33 33 33 34 35 34 34 35
34 33 35 34 35 35 35 34 35 34 35 35 35 35 35 36
19 18 18 20 22 27 32 37 40 43 43 43 42 41 41 41
40 40 40 39 39 38 38 38 37 37 37 36 36 36 36 35
35 34 34 34 34 33 32 33 32 31 29 28 21 9 1 4
3 1 0 0 0 0 0 0 0 2 2 0 0 0 0 2
0 2 6 6 5 6 9 7 3 4 3 11 13 20 25 25
21 28 26 30 30 29 30 30 31 30 30 30 31 31 31 31
31 32 31 32 32 33 33 33 33 33 34 34 34 34 33 34
34 34 35 34 35 35 35 35 35 35 35 35 35 35 35 35
18 18 18 19 18 18 19 19 17 21 26 30 34 39 41 40
40 39 40 39 38 39 38 38 38 37 37 37 36 35 35 34
34 34 34 34 33 33 33 32 32 31 29 26 12 0 0 0
0 0 0 0 0 0 1 3 1 1 3 2 5 3 0 1
1 0 0 5 7 2 5 7 11 4 5 6 15 13 22 26
23 28 26 30 30 30 30 30 30 31 31 31 31 31 31 32
32 31 32 32 32 32 33 33 33 33 34 33 34 34 34 35
35 34 35 35 35 35 35 35 35 36 35 34 32 32 33 34
29 25 22 20 19 17 18 18 18 18 18 18 14 16 19 31
41 41 40 40 39 38 38 37 38 37 37 36 36 36 36 35
35 35 35 34 34 33 33 32 32 29 25 18 2 0 0 0
0 0 0 0 0 3 9 5 7 6 6 5 7 4 5 2
4 1 3 0 1 3 1 5 5 10 5 5 5 4 16 26
23 28 26 30 30 30 30 30 31 31 31 31 31 31 31 31
32 31 32 32 32 33 33 33 33 33 33 34 34 35 34 34
34 34 34 35 35 35 34 33 33 32 33 34 36 36 34 34
58 55 52 34 23 25 18 18 17 18 18 19 12 8 16 29
41 40 39 39 39 39 38 37 38 37 37 36 36 36 36 35
35 35 34 34 34 33 33 32 32 28 24 6 0 1 1 0
0 0 0 0 4 14 19 15 11 10 9 9 5 4 4 7
3 3 1 1 0 0 1 5 7 8 14 9 5 0 4 22
23 27 26 30 30 30 30 30 31 31 31 31 31 31 32 32
33 32 32 33 32 32 33 33 33 34 34 34 34 34 34 34
35 33 33 34 34 34 34 35 35 34 34 35 34 35 34 34
60 59 57 40 35 39 45 40 30 25 20 17 15 16 17 28
40 40 40 39 39 37 36 36 38 38 37 36 37 37 35 35
35 35 35 34 34 33 33 33 31 28 19 0 0 1 0 0
0 0 0 4 17 33 28 24 23 22 14 10 6 6 5 8
7 3 4 2 2 8 0 4 9 13 13 15 10 6 0 11
23 27 26 30 30 30 31 31 31 31 31 31 31 31 32 32
33 32 32 33 33 32 33 33 34 34 33 33 33 32 33 33
32 34 34 34 33 33 34 34 35 34 34 34 34 34 34 34
58 59 59 42 41 45 50 49 40 52 51 47 30 14 17 29
40 40 39 39 38 38 44 48 45 43 40 39 37 35 35 36
35 35 34 34 33 33 33 33 30 35 9 0 1 0 0 0
0 0 4 18 39 49 46 43 45 37 28 11 7 4 9 9
12 12 6 5 5 12 7 3 5 11 11 13 11 8 1 1
17 28 26 30 30 29 30 31 31 31 31 31 32 32 32 32
34 32 33 32 33 32 33 32 33 33 33 33 34 34 32 33
33 34 33 34 33 33 34 33 35 34 34 34 34 34 33 34
37 45 55 45 46 47 51 52 50 56 55 55 39 14 19 31
41 40 40 39 38 38 47 50 48 48 44 42 41 40 39 36
35 35 35 34 33 33 33 32 29 25 0 0 0 0 0 0
0 1 23 38 55 63 66 62 59 54 53 30 11 11 7 7
13 15 14 10 8 11 14 8 0 1 3 5 9 4 1 0
11 27 26 30 30 31 31 31 32 32 31 31 31 31 31 31
32 31 30 31 32 33 33 33 34 32 33 33 33 33 33 33
33 32 32 33 33 34 33 33 35 33 34 34 34 33 34 33
7 0 31 47 47 49 52 52 55 56 56 57 44 16 19 35
44 42 41 40 39 38 47 52 49 47 44 45 46 48 46 42
42 40 36 33 31 32 31 31 27 8 0 0 0 0 1 0
0 9 38 60 65 71 75 77 71 71 69 56 25 23 20 13
8 17 17 20 17 13 20 18 8 0 0 2 3 4 3 0
4 25 26 31 31 31 31 32 32 32 32 31 32 32 31 31
31 32 32 33 32 32 32 33 34 33 33 33 33 34 34 33
34 33 33 34 34 33 33 33 34 33 34 34 34 34 33 33
17 6 34 46 46 48 46 51 53 54 55 55 46 16 19 38
46 43 43 43 42 40 45 40 46 47 46 48 50 51 46 38
41 43 43 41 40 38 37 34 23 1 0 0 0 0 0 0
1 28 55 74 79 83 88 92 86 79 77 69 43 28 24 23
14 11 11 18 25 21 19 20 17 5 0 3 3 1 4 4
1 19 26 31 31 31 31 31 31 31 31 31 31 31 31 31
32 32 32 32 32 33 33 34 34 33 33 34 34 33 34 33
33 33 33 32 33 33 34 33 35 35 34 34 34 34 33 32
20 11 36 42 17 28 37 47 54 55 53 52 44 17 19 37
48 38 38 42 45 46 49 3 2 14 33 39 42 47 46 13
2 9 17 28 34 36 43 40 16 0 1 0 0 0 0 1
13 44 67 81 84 93 95 98 95 91 87 72 61 35 29 27
25 15 12 18 23 28 19 22 19 10 1 0 0 0 2 4
0 17 26 31 30 31 31 30 31 32 32 32 31 31 32 32
32 32 33 32 33 33 33 33 34 32 34 33 33 33 34 33
33 33 34 34 34 34 33 33 34 35 34 34 33 33 34 33
15 11 39 40 0 1 4 7 14 23 25 37 47 18 19 36
48 46 43 37 44 51 52 4 0 2 13 18 15 15 43 11
0 0 0 0 1 4 11 17 8 0 0 0 0 0 0 5
24 50 74 85 89 96 101 104 102 100 95 88 65 44 32 32
28 21 18 18 23 28 28 23 23 19 4 0 0 0 0 4
0 10 24 31 31 31 32 31 32 32 32 32 32 33 32 32
32 32 33 32 32 32 33 33 35 33 34 34 33 33 34 33
34 33 34 33 33 33 34 34 34 35 34 33 34 34 33 34
0 0 38 39 0 0 0 0 0 0 0 11 48 18 20 11
15 25 38 46 50 52 53 5 0 1 9 11 16 15 40 12
0 0 0 0 0 0 0 1 3 1 0 0 0 3 3 6
31 55 75 85 89 97 104 109 108 106 101 97 81 59 41 36
35 32 25 15 18 24 34 25 30 31 14 2 0 0 0 0
0 5 24 31 32 31 31 31 32 32 31 32 32 32 31 32
32 33 32 33 33 33 33 32 34 33 33 33 33 33 33 34
34 34 33 33 34 34 34 34 35 34 35 33 33 33 34 33
0 0 39 38 1 4 0 0 0 0 0 12 47 18 19 4
0 0 0 3 12 21 38 8 0 0 4 1 7 7 38 15
1 0 0 0 0 0 0 3 1 0 0 0 0 6 6 8
37 55 73 83 88 99 107 112 114 108 103 98 95 76 54 40
31 33 29 24 20 27 31 32 25 31 22 5 3 0 0 0
0 0 21 31 32 32 32 31 33 32 32 32 32 32 32 32
33 32 33 34 33 33 33 33 34 33 34 34 33 33 33 34
34 34 34 33 34 34 33 34 35 34 34 34 34 34 34 33
0 0 40 36 1 5 0 24 2 0 0 12 48 18 19 4
0 0 0 0 0 0 14 8 0 0 0 0 0 7 36 11
0 0 0 2 4 0 0 6 3 0 0 0 1 10 10 9
40 57 72 82 92 101 107 110 116 110 105 102 102 97 70 53
41 29 36 28 22 23 34 32 29 24 18 5 1 0 0 0
0 0 18 32 32 32 32 32 33 32 32 32 32 32 32 32
33 33 33 34 33 34 34 33 34 33 33 33 34 34 34 34
34 34 34 35 34 35 35 35 34 32 34 34 34 35 35 34
3 0 40 35 2 6 0 13 19 0 0 14 47 18 19 3
0 0 0 0 0 0 12 7 0 0 0 0 0 7 42 14
0 0 0 5 16 6 2 8 3 1 0 1 4 6 5 6
40 60 74 82 96 102 106 109 112 116 110 105 102 106 96 64
50 42 37 37 29 24 26 32 34 32 23 9 2 0 0 0
0 0 15 30 33 33 32 32 33 32 32 32 33 32 32 32
33 32 32 33 33 33 34 34 34 34 34 34 34 34 34 34
34 34 34 34 34 34 34 33 33 35 35 35 35 34 34 34
0 0 39 33 1 5 1 8 8 0 0 14 46 18 19 4
0 0 0 2 0 0 11 6 0 0 0 0 0 5 43 16
0 0 1 7 15 14 9 4 7 4 1 2 8 6 4 6
39 63 76 83 99 103 105 109 115 122 120 118 104 102 104 96
68 46 37 36 40 31 31 25 22 23 28 8 3 1 0 0
0 0 12 30 33 32 31 32 32 32 32 32 32 33 33 32
32 32 33 34 33 34 34 33 34 33 33 33 34 34 35 35
34 33 34 35 34 34 35 34 35 35 33 34 34 34 34 32
1 0 39 30 0 2 2 0 4 0 0 15 46 17 18 4
0 1 3 19 0 0 9 5 2 3 0 0 0 6 42 17
0 0 0 9 16 13 6 7 13 6 4 4 10 5 2 4
35 64 73 85 98 103 107 111 117 123 130 134 126 111 102 101
95 76 55 44 32 37 34 36 29 28 25 15 1 3 0 0
0 0 7 30 32 31 32 32 33 32 32 32 32 32 33 32
32 33 33 33 33 34 34 34 34 33 33 34 34 34 34 34
34 34 34 33 33 34 34 34 34 35 34 34 34 34 34 34
0 0 39 28 0 1 10 0 0 0 0 16 43 18 19 4
9 11 5 4 0 0 8 6 1 0 0 0 2 8 42 19
0 2 1 5 13 11 4 7 13 6 8 5 9 3 0 5
40 67 73 82 93 97 97 100 106 121 132 138 140 130 119 117
106 91 72 43 29 20 29 29 33 24 21 17 2 0 3 0
0 0 5 30 32 31 32 32 32 32 32 32 32 32 32 33
34 32 33 34 33 33 33 33 33 34 33 33 33 33 33 34
35 34 34 34 34 33 34 34 34 34 34 33 34 33 33 33
45 41 48 37 7 4 6 5 2 0 0 18 42 18 18 4
11 1 0 5 3 0 9 7 0 0 1 0 0 22 43 25
3 1 3 0 1 4 4 5 8 6 11 6 3 2 1 8
46 69 70 76 76 59 43 36 39 59 94 127 141 141 134 126
121 86 48 27 24 17 13 14 17 17 17 13 4 0 0 0
0 0 3 30 32 31 32 32 33 31 32 32 32 32 33 33
33 33 33 34 33 33 33 33 33 33 33 34 35 34 35 34
36 34 34 34 34 34 34 34 34 34 34 35 34 35 34 34
51 55 44 68 54 29 39 39 43 40 35 38 36 18 19 5
2 0 0 0 1 0 12 37 24 14 16 8 1 1 43 49
43 40 34 26 15 5 4 0 2 4 7 4 0 1 0 10
54 68 66 57 37 32 38 47 49 55 70 103 136 142 141 137
122 107 85 61 53 58 41 17 13 7 10 18 3 0 1 0
0 0 0 27 33 32 32 31 32 32 33 33 33 33 33 33
33 33 34 33 34 33 34 33 33 33 34 34 34 34 35 34
35 34 34 34 34 34 35 35 34 33 32 31 34 31 33 31
2 33 68 71 46 33 46 53 56 54 52 51 34 17 18 4
0 0 0 0 0 0 15 57 52 43 47 47 43 39 55 37
16 19 23 26 27 17 1 1 0 0 4 3 0 3 0 14
61 60 40 28 47 79 109 113 106 98 97 111 128 140 141 140
134 110 107 114 113 104 100 85 49 28 17 18 9 0 0 0
0 0 0 18 32 31 32 32 33 32 33 32 33 33 33 32
34 33 33 33 33 33 33 33 34 34 34 34 34 34 34 34
35 33 33 31 31 31 31 33 33 33 33 31 31 28 24 20
0 37 68 67 39 36 45 51 54 53 57 56 36 19 20 6
0 0 0 0 0 0 16 60 43 48 53 55 59 51 49 33
16 17 16 15 13 4 0 0 0 0 2 1 0 7 0 21
63 47 45 65 83 106 124 129 128 125 118 117 125 134 137 141
139 128 122 122 123 122 122 115 97 76 55 39 20 0 0 0
0 0 0 16 33 33 32 32 33 32 32 32 33 33 33 32
34 34 34 33 34 34 35 35 34 33 34 34 34 33 34 35
35 34 34 35 35 29 30 25 22 18 15 15 14 13 13 13
0 37 64 56 23 23 38 46 49 53 55 57 37 19 20 33
36 27 18 8 3 0 18 51 39 49 53 56 60 53 43 31
16 18 17 15 13 3 0 0 0 0 2 0 0 6 0 30
66 66 72 80 88 108 126 133 135 137 128 122 124 130 140 142
139 132 126 128 125 123 125 122 109 95 87 67 35 3 0 0
0 0 0 18 33 33 33 32 33 33 32 33 33 33 32 32
35 34 33 34 34 34 35 35 36 36 36 36 36 34 32 30
27 22 21 27 34 14 11 13 15 16 17 17 18 19 20 21
0 37 64 55 9 0 0 0 0 2 5 31 38 20 22 40
56 56 55 52 49 44 47 45 38 49 53 54 58 55 47 37
19 19 16 14 10 2 0 0 0 0 1 0 0 3 2 41
73 78 78 79 90 111 125 133 138 139 131 124 122 130 141 143
140 130 124 119 118 118 124 125 106 99 98 87 63 11 0 0
0 0 0 20 34 33 33 33 32 32 33 33 34 33 33 32
34 35 35 35 36 36 36 34 32 29 26 22 19 17 15 15
16 16 17 22 33 13 17 20 22 22 23 24 25 26 26 27
0 34 65 57 6 0 3 0 0 0 0 25 39 20 22 40
56 56 55 54 55 56 58 31 9 17 26 32 41 42 42 40
20 17 15 8 6 0 0 0 0 0 0 0 0 1 9 53
75 78 82 79 91 97 93 81 95 121 126 127 120 124 139 142
134 131 120 101 83 61 43 47 73 99 103 102 83 21 0 0
0 0 0 26 33 33 32 32 31 31 30 30 31 34 35 35
35 33 31 27 25 22 20 18 17 17 17 18 20 20 20 21
22 23 23 23 31 14 21 26 27 28 28 29 30 30 31 32
0 29 63 54 3 0 0 0 1 7 6 23 39 20 20 36
53 55 54 56 57 56 58 25 1 0 0 1 8 16 26 43
18 16 13 0 0 0 0 0 0 0 0 0 0 0 21 66
81 82 80 68 44 47 26 21 58 57 111 124 113 112 131 136
129 132 115 77 98 70 36 60 54 66 101 109 92 30 0 0
0 0 2 26 29 29 30 29 29 30 31 21 20 27 24 21
20 18 18 19 19 20 20 21 22 23 23 23 25 26 27 26
28 28 29 28 36 19 26 30 31 31 31 32 32 32 32 32
0 26 57 48 2 0 0 0 12 38 35 32 38 34 30 34
40 41 42 43 44 49 54 19 0 0 0 0 1 7 28 44
16 14 12 2 0 0 0 0 0 0 0 0 0 0 32 70
84 86 74 50 56 86 82 85 102 97 101 122 104 106 124 131
124 126 116 104 98 102 110 116 103 92 99 109 99 41 0 0
0 0 1 25 30 29 27 25 22 20 19 16 14 17 19 19
21 22 22 23 24 25 26 27 27 27 28 29 30 31 31 31
32 32 30 21 17 12 29 31 31 32 33 33 34 34 34 33
0 25 55 45 1 0 0 0 8 33 32 26 31 25 24 27
24 27 36 37 35 45 52 18 0 0 0 2 4 0 20 44
14 12 3 0 0 0 0 0 0 0 0 0 0 0 42 76
90 93 82 78 88 110 118 109 105 107 115 109 95 102 120 126
119 118 123 115 108 108 120 125 117 110 108 113 102 47 0 0
0 0 0 17 17 17 18 18 19 19 21 21 22 23 24 25
26 27 28 30 30 30 31 31 31 31 32 32 32 31 32 32
32 32 31 13 4 2 26 32 34 35 34 33 33 33 34 34
0 28 56 44 0 1 3 0 1 16 18 25 30 27 25 27
30 28 33 36 34 45 52 15 0 0 0 0 2 0 19 39
2 1 0 0 0 0 0 0 0 0 0 0 0 2 52 83
94 95 91 98 105 109 113 112 113 120 123 102 95 101 123 130
121 120 127 129 119 119 118 124 127 120 114 113 104 53 0 0
0 0 1 11 19 21 22 22 23 24 26 26 27 28 30 30
31 31 31 32 32 32 32 32 33 33 33 34 34 34 33 30
24 20 30 12 9 1 25 32 34 34 34 34 34 34 34 34
0 32 57 44 0 0 4 0 0 0 0 11 23 19 22 19
16 24 33 38 44 48 50 15 0 0 0 0 0 0 23 39
0 0 0 0 1 1 0 0 0 0 0 0 0 6 60 84
91 93 99 108 119 121 123 126 125 130 121 100 95 104 127 133
126 121 124 141 134 126 129 134 138 131 120 110 102 57 0 0
0 0 4 12 23 25 26 27 28 29 29 29 30 30 30 30
31 32 33 33 34 34 34 34 34 34 34 33 34 34 16 0
0 3 24 8 2 0 24 32 34 34 33 33 35 33 34 34
0 37 58 42 0 0 5 7 0 0 0 14 31 29 27 12
0 0 0 0 3 7 19 17 0 0 0 0 0 0 26 36
0 0 0 0 0 8 0 0 0 0 0 0 0 9 63 83
86 93 107 116 124 126 128 132 137 134 112 98 97 107 127 135
128 122 124 138 143 138 138 140 142 140 132 116 103 60 1 0
0 0 0 7 26 29 29 29 30 30 30 30 32 33 33 33
33 33 33 34 34 34 34 34 35 35 35 35 35 35 28 22
28 30 31 14 0 0 23 32 33 34 33 33 34 34 34 34
0 40 58 41 0 0 0 11 5 0 0 15 38 33 29 15
0 0 0 1 0 0 7 16 0 0 1 3 0 0 23 32
0 0 0 0 1 21 1 0 0 0 0 0 0 7 64 79
84 96 113 125 134 135 134 134 138 132 106 94 97 109 127 138
131 121 122 133 143 142 142 143 143 142 137 122 105 64 2 0
0 1 2 0 20 30 31 31 32 31 31 32 33 33 33 33
33 35 35 34 34 34 35 35 35 34 34 35 35 35 34 33
33 31 30 17 0 1 24 33 34 35 35 34 34 34 33 34
33 46 53 41 0 0 0 9 9 2 0 14 43 34 28 15
0 0 0 2 0 0 6 15 0 0 13 14 5 0 24 29
0 0 0 0 0 6 0 0 0 0 0 0 3 8 63 77
85 97 117 129 137 136 135 134 137 126 100 90 98 113 132 142
137 123 118 129 142 142 142 143 143 142 139 125 106 74 10 0
0 0 2 2 12 28 31 31 32 31 32 33 33 33 33 33
34 34 35 34 34 34 35 35 36 35 34 34 35 34 34 33
32 31 30 22 1 3 25 32 34 35 33 34 33 34 33 34
35 40 45 42 19 11 4 12 18 12 3 12 44 30 27 15
0 0 8 13 1 0 5 15 0 4 22 18 8 0 25 27
0 2 0 1 2 0 0 0 0 2 10 25 18 5 59 78
85 100 114 127 133 132 133 137 136 119 95 89 98 116 133 142
141 126 116 127 142 143 142 142 143 142 139 127 104 77 15 0
0 0 0 2 17 29 31 32 32 31 33 34 33 34 34 34
34 34 34 34 35 34 35 35 35 35 35 34 34 34 34 33
33 31 29 23 9 12 28 33 34 35 34 34 33 33 32 33
9 24 47 43 41 48 42 38 46 42 37 40 47 28 26 15
0 6 18 21 10 2 5 23 4 11 19 17 15 0 25 25
1 3 1 0 1 0 0 0 0 1 38 54 41 14 53 76
85 99 111 121 130 135 136 137 136 106 90 98 103 125 143 144
143 130 122 122 136 143 142 143 143 142 133 119 101 65 10 0
0 1 0 0 10 25 30 31 31 32 33 33 34 34 34 34
34 34 34 34 34 34 34 35 35 33 34 34 34 33 34 33
34 31 29 24 23 23 30 34 34 35 33 33 34 33 32 33
17 30 48 44 14 10 14 25 34 45 51 53 51 29 24 15
0 5 17 18 9 2 4 46 43 45 46 42 42 38 46 26
0 0 0 0 0 0 1 1 0 0 34 65 51 37 45 73
83 94 105 113 126 135 141 142 128 90 89 100 109 121 142 143
143 136 130 120 122 141 143 143 143 138 129 113 98 71 13 0
2 13 11 1 17 26 31 32 32 33 33 33 33 33 33 34
33 33 34 33 34 34 33 33 35 35 33 34 34 33 33 33
33 31 29 26 26 29 33 34 34 35 34 34 34 33 34 33
13 35 49 44 10 1 0 1 8 3 39 53 48 28 24 17
0 1 5 1 3 0 4 45 44 49 49 48 50 56 58 36
11 13 10 2 0 3 2 0 0 0 14 66 55 48 47 70
76 86 100 109 120 132 140 142 116 85 88 90 77 101 128 139
135 109 119 120 118 136 143 142 142 135 121 103 96 84 11 0
3 19 21 12 17 24 32 32 33 32 32 32 33 34 33 33
33 33 34 34 34 33 34 34 34 34 34 34 34 34 34 33
33 31 30 29 28 33 34 33 33 33 34 33 34 34 33 34
10 31 51 45 8 0 3 22 36 12 44 50 42 27 25 24
19 0 6 2 2 0 3 45 46 48 48 46 52 59 59 47
36 36 35 28 17 7 0 0 2 0 2 66 72 55 45 67
76 82 95 102 114 132 142 144 120 93 87 66 58 83 106 121
116 77 93 121 125 136 142 142 142 134 119 106 95 81 6 0
4 21 28 26 29 29 31 32 32 32 32 33 33 33 33 33
33 33 33 32 33 33 33 33 34 34 34 34 34 35 33 33
32 32 30 30 31 33 33 34 33 33 33 34 33 33 33 34
0 32 53 47 7 0 3 9 39 29 47 49 34 26 27 26
13 0 4 0 0 0 3 41 36 42 42 42 44 44 43 42
39 39 36 28 18 12 8 13 3 0 0 52 74 84 63 63
76 82 89 97 112 126 137 142 130 105 94 79 79 82 83 99
116 113 115 125 137 140 142 143 142 134 118 105 99 79 0 0
6 23 29 28 32 32 31 32 32 32 32 32 32 33 32 33
33 33 34 34 34 33 33 33 33 34 34 33 35 34 32 32
33 32 30 30 31 32 32 31 31 31 33 33 33 33 32 31
0 32 55 49 9 0 2 3 9 19 48 50 31 28 30 25
4 0 1 1 0 0 3 47 38 40 40 40 40 36 33 37
39 40 39 36 28 24 20 21 3 0 0 25 71 86 67 63
72 76 83 92 107 121 127 132 126 114 104 92 87 102 116 108
110 107 117 126 137 141 142 143 140 132 120 110 97 87 0 2
9 23 30 28 32 31 31 32 33 33 32 33 32 33 33 32
33 32 33 32 32 33 33 34 33 33 33 33 33 32 32 32
33 32 30 31 33 32 32 32 33 33 34 33 33 32 32 33
0 35 56 51 12 0 0 0 0 9 47 50 30 28 25 26
25 21 15 12 8 4 5 48 40 39 39 38 39 39 40 43
41 42 45 47 42 31 29 22 0 0 0 6 73 76 72 59
68 74 85 89 104 118 125 124 116 106 94 91 95 107 104 101
112 108 107 117 131 137 141 141 139 130 119 108 94 71 0 3
14 23 31 28 33 31 32 32 32 33 32 32 32 32 32 32
32 32 33 32 33 32 32 32 33 32 32 32 33 33 33 32
32 32 31 33 34 33 33 33 34 34 33 33 33 33 33 33
0 33 55 51 11 0 0 0 0 3 45 51 29 28 26 33
50 51 50 48 53 55 52 55 44 41 41 41 42 43 46 49
44 43 46 52 50 36 32 15 1 0 0 0 52 78 77 57
65 71 81 85 99 114 119 110 101 85 84 90 104 114 103 100
123 118 108 99 109 122 135 138 136 130 119 106 65 13 0 4
18 24 31 28 32 31 31 31 31 30 31 31 31 32 33 33
33 33 32 32 32 32 32 33 33 33 33 33 33 33 32 32
32 32 32 32 32 32 32 33 33 32 33 32 32 32 32 32
0 31 55 49 5 0 0 0 0 6 48 53 29 29 28 34
60 61 60 60 59 59 58 58 45 42 36 40 38 42 49 53
46 44 46 45 41 41 36 19 1 0 0 0 2 22 15 51
63 71 79 85 99 113 117 96 87 82 87 92 100 112 118 118
120 122 118 105 107 112 128 138 133 123 114 105 32 1 2 9
22 26 31 28 33 31 31 32 32 31 32 32 32 33 33 33
33 33 32 32 33 32 33 33 33 32 32 33 32 32 32 33
32 33 32 33 33 33 33 33 33 32 32 32 31 32 33 32
0 30 55 49 4 0 0 0 0 5 47 52 28 26 28 30
48 51 52 53 56 58 58 60 28 12 16 8 9 12 20 41
47 44 30 15 22 25 21 17 1 0 0 0 0 0 0 35
62 73 77 81 97 110 110 88 88 86 79 73 64 74 88 93
90 91 104 106 109 116 124 137 130 122 114 98 13 1 5 14
26 27 31 27 32 32 31 31 32 32 33 33 33 32 33 34
34 34 32 32 32 32 32 33 32 32 33 32 32 32 32 32
32 33 32 33 32 33 32 33 33 32 32 33 33 32 32 31
0 29 56 49 4 0 0 0 0 2 43 47 25 27 29 25
31 32 31 31 31 31 31 36 21 0 0 0 0 0 0 27
48 38 6 0 1 4 9 11 4 1 0 0 0 0 0 18
58 69 76 82 90 105 109 90 98 85 54 43 48 62 72 83
83 75 74 84 105 119 127 134 127 119 112 81 2 1 6 19
27 27 31 28 32 31 31 32 32 32 33 33 33 32 32 33
33 33 32 33 32 31 32 31 32 32 32 30 29 27 25 24
20 25 30 33 33 33 33 33 32 33 32 32 32 32 31 30
0 29 55 50 5 0 0 0 0 2 46 52 26 26 27 27
40 40 40 39 37 36 35 38 22 9 3 0 0 0 11 31
46 22 0 0 0 0 1 14 21 4 0 0 0 0 0 9
49 68 78 80 88 98 107 102 100 101 76 67 83 101 102 106
111 102 96 111 108 114 130 126 119 114 106 45 4 1 11 23
27 26 30 28 32 31 31 31 32 32 32 32 32 32 32 31
28 27 24 22 20 23 25 30 31 32 32 19 5 5 5 5
5 9 30 33 33 33 32 32 32 31 32 32 32 32 32 31
41 49 53 47 5 0 0 0 0 2 49 55 27 24 27 27
43 43 43 43 42 42 42 43 22 5 2 0 0 0 11 32
45 12 0 0 0 0 0 10 31 12 0 0 0 0 0 5
41 62 79 82 85 90 98 110 100 99 82 82 96 106 109 110
123 116 110 118 116 120 131 121 114 112 96 12 4 2 14 25
27 26 30 27 31 31 31 31 32 31 32 32 31 12 8 7
7 7 3 2 1 1 3 27 32 31 31 19 4 4 4 5
4 8 31 33 34 34 33 33 33 32 31 31 31 30 31 30
52 49 38 28 20 17 11 9 3 5 48 49 24 23 27 29
43 44 45 44 43 44 45 45 24 4 4 0 0 7 5 20
42 7 0 0 0 0 0 11 36 23 2 0 0 0 0 3
43 51 75 83 80 85 97 111 103 107 83 75 76 79 72 70
83 94 104 119 128 121 123 120 113 109 66 2 2 8 19 24
27 26 30 28 32 31 31 32 32 32 32 33 31 6 2 7
7 9 3 2 1 0 2 25 31 31 31 18 4 5 6 5
5 7 30 33 33 33 33 32 33 32 32 31 32 32 31 31
51 50 49 44 49 49 47 47 44 43 46 43 35 33 33 27
18 18 19 21 21 23 34 49 28 0 0 0 0 8 6 17
41 5 0 0 0 0 0 10 38 28 6 0 0 0 0 2
47 44 64 78 81 83 96 97 95 112 109 99 94 103 108 107
111 115 125 134 135 119 118 114 108 95 19 3 5 9 18 25
26 25 29 28 31 31 31 31 31 32 32 32 30 6 1 6
7 8 3 1 1 0 0 22 31 31 31 15 5 5 5 4
4 6 27 33 34 33 33 32 32 32 32 32 31 32 31 31
47 46 46 46 46 45 44 44 44 44 43 43 43 42 41 41
40 39 39 33 2 1 14 50 37 13 1 0 1 7 4 15
41 3 0 0 0 0 0 11 40 31 11 0 0 0 0 0
47 51 48 68 77 82 86 92 93 110 115 118 118 124 127 129
135 137 135 133 130 121 115 107 100 59 0 2 14 9 20 25
26 25 28 27 30 30 31 31 31 31 32 32 30 7 1 5
8 8 2 1 1 0 1 23 31 31 31 18 5 4 5 4
4 4 27 33 33 31 31 30 30 29 29 29 30 30 30 30
48 46 46 45 46 45 45 44 44 43 43 42 43 42 42 41
41 41 41 39 7 0 11 48 35 6 0 0 0 8 6 14
40 3 0 0 0 0 0 5 41 30 13 0 1 1 0 0
48 58 46 54 68 76 79 81 92 107 112 117 121 128 132 139
143 142 136 133 129 121 100 94 83 31 0 11 17 8 18 24
25 25 29 29 32 31 31 31 31 31 31 31 30 8 1 4
9 8 3 1 2 0 1 23 31 30 31 21 8 8 9 10
11 9 22 30 30 30 31 31 32 31 33 29 32 31 32 31
46 46 45 45 45 44 44 43 43 43 43 42 42 41 41 41
41 41 40 39 10 0 7 43 27 0 0 0 0 0 0 14
42 3 0 0 0 0 0 3 41 30 11 0 2 2 0 0
46 65 56 48 60 64 69 74 84 102 110 118 125 129 130 135
140 142 135 131 126 110 87 80 61 38 8 19 18 7 18 25
26 25 25 26 31 31 30 31 31 32 32 31 29 8 1 4
6 6 3 1 2 0 0 22 31 31 31 23 11 12 11 10
10 11 21 31 33 33 33 32 32 32 31 31 31 31 33 32
15 15 15 15 15 15 15 15 16 16 17 18 18 18 19 20
23 33 38 40 13 0 4 37 23 0 0 0 0 1 0 12
45 6 0 0 0 0 0 2 41 31 14 1 2 1 0 0
39 69 68 54 46 54 61 64 73 87 104 113 116 119 119 122
124 130 127 119 112 88 74 62 68 45 16 20 18 7 16 25
25 25 26 27 30 30 30 31 32 31 31 31 30 9 2 2
3 2 2 2 3 0 1 21 31 33 31 23 5 6 5 5
6 6 20 32 33 33 32 33 32 32 33 32 31 31 32 31
0 0 0 0 0 0 0 0 0 0 0 0 0 0 0 0
4 38 41 38 17 0 3 34 26 4 4 2 2 9 9 13
45 24 15 14 18 16 15 18 43 32 34 35 32 22 1 0
35 74 76 68 48 45 51 54 55 68 84 93 100 106 108 113
105 112 107 98 88 65 55 58 83 56 26 21 19 8 17 24
25 25 26 27 31 31 30 31 31 32 31 32 30 10 2 3
1 0 2 2 3 0 0 21 31 32 31 23 5 5 5 5
10 6 15 26 33 33 32 32 32 31 32 31 32 32 31 31
0 0 0 0 0 0 0 0 0 0 0 0 0 0 0 0
3 41 42 39 21 0 0 29 40 40 36 32 34 37 38 41
41 53 53 48 49 51 52 52 52 35 33 40 41 39 14 0
31 78 79 77 59 45 44 43 44 50 61 73 84 93 96 96
92 91 88 79 61 50 52 75 94 61 28 22 19 7 15 23
24 24 26 26 30 30 30 31 31 32 32 31 28 10 2 2
1 4 6 2 3 0 0 21 31 32 31 24 5 5 1 0
1 0 1 0 31 33 32 33 32 32 32 31 31 30 31 31
0 0 0 0 0 0 0 0 0 0 0 0 0 0 0 0
1 39 44 38 23 0 0 25 43 44 37 38 40 37 31 33
34 49 55 52 51 49 53 54 53 39 27 37 41 43 36 6
24 79 83 78 68 51 46 43 40 41 43 50 61 64 75 74
67 64 59 49 47 50 68 90 100 62 27 22 20 7 12 22
24 24 25 26 29 29 29 31 31 32 32 31 27 11 3 2
3 4 4 2 3 0 0 19 30 32 30 25 5 5 8 1
4 4 5 0 30 33 32 32 32 31 32 31 31 31 31 31
0 0 0 0 0 0 0 0 0 0 0 0 0 0 0 0
0 38 44 38 25 0 0 23 43 38 32 35 39 38 33 31
34 33 37 37 38 36 36 35 36 34 24 27 32 32 29 9
19 79 85 84 79 68 54 46 39 37 35 35 36 35 38 38
34 36 35 43 57 73 91 103 103 62 26 22 19 7 10 21
23 24 25 26 28 29 29 31 32 32 32 30 26 11 2 2
0 0 3 2 4 0 0 20 30 32 31 24 4 5 6 1
2 1 0 0 29 31 31 32 32 30 32 31 31 31 30 31
0 0 0 0 0 0 0 0 0 0 0 0 0 0 0 0
0 36 45 36 28 0 0 18 40 24 30 28 30 37 34 32
36 27 22 24 24 24 24 23 24 29 29 31 34 34 33 18
20 78 86 88 86 75 63 52 50 45 41 40 36 35 38 45
57 69 77 83 78 90 104 109 104 64 25 25 18 12 12 21
23 23 23 23 26 28 29 30 31 32 32 28 26 12 3 2
1 0 2 2 3 0 0 18 29 31 31 24 3 4 5 8
10 6 0 0 28 31 30 30 30 31 31 30 29 31 30 30
0 0 0 0 0 0 0 0 0 0 0 0 0 0 0 0
0 31 44 36 29 2 10 26 41 9 9 11 14 16 17 17
33 29 27 28 29 36 36 34 32 37 38 38 44 44 42 30
29 77 86 91 87 85 78 66 61 61 69 77 84 93 101 107
113 107 108 100 98 109 114 114 104 71 44 44 41 40 38 37
35 32 31 28 24 26 27 29 31 31 31 27 25 12 1 1
2 1 1 0 2 0 0 16 28 30 30 24 3 1 1 4
0 0 0 0 20 10 6 5 21 31 31 30 29 30 30 30
0 0 0 0 0 0 0 0 0 0 0 0 0 0 0 0
0 28 44 36 33 28 35 40 42 3 0 0 0 0 2 6
32 32 42 45 34 49 55 33 24 26 28 29 34 41 46 34
36 73 86 92 96 96 92 84 79 84 94 109 113 120 116 122
126 124 113 109 110 117 121 117 105 73 47 45 43 42 42 40
37 36 35 34 25 24 26 29 30 30 30 27 25 13 1 0
1 1 1 1 2 0 0 16 29 29 29 24 3 1 36 49
7 0 0 0 10 25 31 25 3 28 30 30 29 29 30 29
0 0 0 0 0 0 0 0 0 0 0 0 0 0 0 0
0 24 46 36 35 43 47 49 46 4 0 0 0 0 0 3
35 30 40 45 27 41 49 16 0 0 0 0 0 24 46 34
31 73 87 98 107 112 112 105 93 95 105 116 123 129 127 127
130 124 113 112 117 123 124 119 107 73 40 48 43 43 41 39
37 36 35 34 26 21 26 28 30 31 30 27 26 14 0 1
0 0 0 0 1 0 0 15 29 30 30 27 13 10 40 44
16 0 0 11 31 30 30 29 14 20 30 30 30 30 30 29
0 0 0 0 0 0 0 0 0 0 0 0 0 0 0 0
0 21 46 36 34 45 49 51 50 9 0 0 0 0 0 0
36 29 38 41 3 3 21 17 0 0 0 0 0 20 45 34
27 72 86 102 112 118 118 113 104 101 104 109 120 127 134 136
132 122 118 118 123 127 126 121 108 75 48 57 44 43 42 40
36 36 36 34 29 19 25 27 30 30 30 27 25 15 1 0
0 1 1 1 1 0 0 14 28 30 30 29 29 14 17 6
8 0 0 12 31 31 30 30 18 14 30 28 28 29 29 30
0 0 0 0 0 0 0 0 0 0 0 0 0 0 0 0
0 19 45 36 34 33 31 30 26 4 0 0 0 0 0 1
38 29 39 41 2 1 21 18 0 0 0 0 0 15 43 47
25 76 85 101 113 118 122 120 110 106 111 111 111 120 132 134
127 122 120 122 129 135 129 122 110 74 43 62 46 43 41 39
37 35 35 34 29 15 24 26 29 29 29 27 26 15 1 1
0 0 0 0 0 0 0 12 27 27 30 30 30 17 0 1
0 0 1 13 32 31 32 31 18 16 31 31 30 30 30 30
0 0 0 0 0 0 0 0 0 0 0 0 0 0 0 0
0 16 45 37 34 16 12 14 10 0 0 0 0 0 0 2
38 28 39 42 2 1 18 21 0 0 0 0 0 10 46 59
22 75 87 101 113 121 123 123 119 112 114 118 118 122 127 130
129 129 129 132 139 138 133 123 111 59 39 82 55 44 40 37
39 36 35 33 31 14 22 24 27 28 28 27 26 16 1 1
1 0 0 0 1 0 0 13 30 30 31 20 4 14 1 0
0 0 0 8 31 30 30 29 11 22 29 30 30 29 30 29
0 0 0 0 0 0 0 0 0 0 0 0 0 0 0 0
0 12 44 36 32 19 14 16 12 0 0 0 0 0 0 3
39 27 39 40 1 1 18 22 0 0 0 0 0 9 51 73
23 61 90 102 112 120 126 128 126 119 119 122 125 125 129 134
136 133 133 137 141 140 134 126 113 35 44 87 76 51 40 39
38 34 34 33 32 15 21 25 27 29 28 28 26 16 2 2
1 0 0 0 0 0 3 17 29 29 29 17 31 47 15 0
0 0 0 8 30 29 29 25 6 29 29 30 31 29 28 28
0 0 0 0 0 0 0 0 0 0 0 0 0 0 0 0
0 12 44 36 32 22 16 18 13 0 0 0 0 2 0 0
38 28 40 39 2 2 16 22 2 0 0 0 0 31 58 72
35 36 89 102 114 122 126 131 135 127 122 124 128 133 137 139
140 138 137 140 141 140 138 130 102 15 51 73 83 70 43 39
39 36 34 34 32 17 19 24 26 27 28 28 25 24 21 19
13 12 12 6 2 3 11 17 21 20 19 11 25 25 9 0
0 0 0 3 13 13 15 5 21 15 9 18 30 29 29 29
0 0 0 0 0 0 0 0 0 0 0 0 0 0 0 0
0 11 43 36 32 25 21 21 14 0 3 0 0 5 2 0
37 29 41 40 12 4 15 24 6 3 1 4 5 61 63 55
46 20 70 102 113 121 127 133 137 134 130 129 133 137 141 142
143 142 141 143 144 142 138 131 69 18 57 87 84 79 49 50
41 37 36 34 31 21 16 23 26 28 28 28 25 25 25 22
11 3 2 0 0 0 0 0 0 0 0 0 0 0 0 0
0 0 0 0 0 0 0 0 11 6 12 14 32 31 30 30
0 0 0 0 0 0 0 0 0 0 0 0 0 0 0 0
0 9 43 36 31 25 22 22 15 2 7 0 0 8 15 1
35 30 42 38 18 11 12 22 2 9 9 4 22 72 68 62
79 17 39 97 113 121 127 134 139 140 134 135 139 141 143 144
145 144 144 144 144 143 140 120 39 29 62 88 86 90 49 33
56 50 48 35 30 25 13 22 24 26 27 27 26 25 24 23
10 0 1 3 5 6 7 9 10 10 11 12 13 13 15 17
18 19 20 19 12 0 0 21 7 2 39 30 31 31 30 34
0 0 0 0 0 0 0 0 0 0 0 0 0 0 0 0
0 8 42 36 31 26 23 23 20 3 8 4 4 13 19 11
34 33 42 37 14 21 11 20 0 9 10 13 53 75 72 57
86 31 26 69 112 120 128 136 139 141 138 137 140 143 143 145
145 145 145 145 145 144 138 83 31 46 69 82 90 95 68 31
45 45 62 64 40 27 11 22 24 26 27 27 26 25 25 23
9 0 7 17 20 21 22 24 24 24 25 24 24 25 26 27
28 28 28 25 15 0 0 7 4 0 5 3 3 3 6 48
0 0 0 0 0 0 0 0 0 0 0 0 0 0 0 0
0 7 42 37 31 27 25 22 31 36 40 42 42 43 44 45
52 40 43 33 4 26 12 28 20 23 32 39 66 74 70 51
68 49 22 41 95 120 126 135 141 144 143 141 140 142 144 145
145 145 145 145 144 144 121 49 31 62 71 70 81 100 90 73
65 28 54 81 81 53 13 21 23 25 26 26 22 7 4 4
4 0 8 18 20 23 25 25 26 26 26 26 26 27 28 28
30 29 29 25 15 0 0 0 0 0 0 0 0 0 4 48
0 0 0 0 0 0 0 0 0 0 0 0 0 0 0 0
0 6 42 37 32 28 25 24 33 48 49 49 49 49 49 50
54 50 41 33 0 12 12 28 23 44 40 45 67 71 72 55
85 65 25 36 64 112 126 135 143 145 145 144 143 144 144 145
146 146 145 145 144 140 83 42 38 67 77 82 83 102 98 72
83 57 37 69 86 78 59 25 23 25 26 25 22 0 0 0
0 0 8 18 21 25 26 27 28 27 28 28 28 29 30 31
31 31 29 26 16 0 0 0 0 0 0 0 0 0 5 45
0 0 0 0 0 0 0 0 0 0 0 0 0 0 0 0
0 6 42 37 31 27 25 24 26 48 47 46 45 45 44 43
45 45 39 32 0 4 8 32 43 38 45 60 68 74 74 62
77 74 46 34 53 88 122 134 141 144 146 145 144 142 142 144
145 146 145 145 145 116 54 43 57 76 81 82 85 104 100 66
75 90 69 35 67 80 84 69 30 24 34 34 23 0 0 0
0 0 8 17 21 24 26 27 28 28 28 28 29 30 31 32
32 31 29 27 17 0 0 0 0 0 0 0 0 28 42 42
0 0 0 0 0 0 0 0 0 0 0 0 0 0 0 0
0 5 42 37 31 27 25 24 17 15 14 13 13 13 13 14
17 17 34 33 0 3 9 48 41 26 57 49 65 76 76 70
53 65 66 44 52 70 101 129 140 146 146 146 146 145 145 145
145 145 145 145 137 76 49 55 70 77 84 80 86 107 106 75
89 94 101 70 33 56 87 89 81 51 31 38 45 37 12 0
0 2 10 18 20 24 26 27 28 28 28 29 30 31 32 32
33 32 30 28 18 0 0 0 0 0 0 0 0 36 40 40
0 0 0 0 0 0 0 0 0 0 0 0 0 0 0 0
0 4 41 37 31 27 25 24 18 13 13 12 12 13 13 14
17 17 36 35 1 1 32 48 23 25 58 64 59 74 76 75
58 94 73 72 53 71 80 112 138 145 146 146 146 145 145 145
146 145 145 144 108 56 52 74 60 71 72 77 81 104 103 74
93 79 96 99 30 36 72 91 87 86 80 69 64 43 46 57
38 19 11 17 20 23 25 26 28 28 29 30 31 32 33 33
33 32 31 30 18 0 0 0 0 0 0 0 0 37 38 37
0 0 0 0 0 0 0 0 0 0 0 0 0 0 0 0
0 5 40 36 30 27 25 25 23 19 18 17 16 15 15 16
18 18 38 37 14 31 61 39 12 52 52 65 57 78 76 77
62 89 67 89 70 73 81 89 121 144 146 146 147 146 146 146
146 146 145 125 71 55 60 89 79 79 19 46 89 105 104 79
70 74 96 106 64 16 50 77 88 83 85 81 73 76 49 28
66 63 54 30 21 22 24 26 27 28 29 30 32 32 34 33
33 33 32 31 18 0 0 0 0 0 0 0 1 35 35 35
0 0 0 0 0 0 0 0 0 0 0 0 0 0 0 0
0 4 40 36 29 26 24 25 24 21 20 21 20 20 20 20
21 20 41 46 38 67 66 33 27 62 53 56 60 71 76 78
65 77 73 36 70 82 91 89 94 126 145 146 146 145 146 146
146 145 136 91 66 62 85 91 83 83 12 6 83 103 108 89
87 74 101 107 81 56 39 67 84 84 80 82 79 74 71 50
32 73 68 66 53 39 26 26 27 28 29 31 32 32 33 33
33 33 32 32 18 0 0 7 23 7 0 0 4 33 33 32
0 0 0 0 0 0 0 0 0 0 0 0 0 0 1 1
2 10 44 38 30 26 24 24 24 26 34 30 24 21 21 21
28 42 57 53 52 79 62 29 44 58 58 43 53 59 78 78
76 62 26 1 29 83 98 99 94 102 131 146 147 146 146 146
146 142 113 83 73 82 97 76 84 52 0 0 59 102 107 87
91 78 102 106 84 85 38 68 78 85 79 79 77 75 75 75
48 51 75 68 69 63 60 50 45 38 31 30 32 33 34 34
34 34 34 34 18 0 0 13 30 7 0 0 6 34 33 33
10 11 12 14 16 17 18 20 22 23 24 25 27 28 29 30
29 31 32 31 30 26 24 24 35 41 32 29 34 30 27 36
49 54 58 52 73 80 62 18 64 64 70 39 62 59 74 79
78 60 2 3 20 65 96 102 101 100 112 136 145 145 146 145
143 118 94 87 93 98 106 92 33 1 0 0 28 105 104 94
90 80 101 106 82 75 56 49 81 78 85 77 79 78 78 78
74 36 74 70 71 67 62 62 60 59 58 50 40 32 32 32
33 34 33 33 17 0 0 0 0 0 0 0 8 33 32 32
39 37 30 17 19 23 18 16 27 35 35 34 33 32 32 32
31 30 30 30 30 26 26 36 41 38 25 23 48 60 58 54
49 57 61 64 78 79 53 28 57 43 66 28 33 75 58 82
82 70 3 4 25 60 72 94 96 103 110 117 135 145 146 142
121 100 101 98 98 103 79 65 50 1 0 0 4 90 107 98
78 72 102 105 85 106 80 47 63 73 83 84 76 81 79 82
81 70 43 82 68 67 69 63 63 61 59 58 50 39 31 32
33 33 33 33 17 0 0 0 0 0 0 0 11 32 32 31
38 15 18 33 36 37 36 32 19 16 32 34 33 32 32 31
31 29 30 29 30 30 38 43 46 29 15 39 56 57 59 60
54 64 61 71 63 52 52 47 43 38 51 15 30 60 53 79
79 63 0 0 16 75 67 76 103 105 112 115 121 131 133 111
98 102 76 47 93 102 57 61 60 15 10 9 18 49 109 97
93 91 101 105 85 100 84 53 58 63 77 85 76 79 80 79
79 79 43 71 67 75 64 63 61 67 61 61 57 47 31 31
31 32 32 32 15 0 0 0 0 0 0 0 15 32 31 31
12 32 39 37 37 37 37 36 36 30 15 30 33 32 32 30
29 28 27 24 29 40 42 45 51 26 25 44 59 58 60 62
61 63 60 75 56 42 49 41 35 36 50 14 37 55 66 66
82 63 0 0 7 66 77 64 92 94 114 119 115 99 95 95
102 109 79 102 102 95 56 98 78 72 64 47 48 33 51 104
95 96 100 103 89 98 85 67 59 59 63 83 83 75 79 76
80 79 67 36 81 72 37 25 50 58 67 60 61 58 36 30
32 31 32 32 16 0 0 0 0 0 0 0 12 32 31 31
35 36 35 34 32 31 30 28 26 23 16 8 14 10 7 6
8 10 9 10 43 41 43 43 54 29 22 46 61 57 62 65
62 56 68 67 46 51 47 50 42 54 50 15 51 57 78 56
81 64 0 1 19 36 78 78 72 78 94 92 83 48 66 87
110 111 92 110 108 91 87 115 85 93 98 97 76 54 17 45
84 91 102 104 91 75 74 86 65 75 66 57 79 79 74 76
75 76 78 38 68 74 45 16 33 54 65 69 69 65 41 30
32 32 32 33 16 0 0 0 0 0 0 0 3 30 31 30
8 12 19 21 22 22 21 21 15 6 5 5 0 0 1 4
6 2 3 38 48 43 44 42 53 38 20 42 62 60 60 68
63 62 72 56 58 66 61 60 46 77 65 21 59 67 73 55
82 52 4 5 44 32 53 72 60 50 68 81 90 51 37 72
118 103 96 113 127 99 88 104 81 97 102 104 93 88 59 25
51 79 98 104 98 92 93 69 63 59 47 61 62 79 75 72
73 76 77 60 40 85 55 18 35 55 76 79 74 67 37 30
32 32 34 35 16 0 0 0 0 0 0 0 15 15 30 30
7 14 35 40 43 44 45 48 47 47 45 40 7 2 7 5
4 0 25 46 52 42 46 43 51 53 30 41 63 61 57 64
65 72 79 46 61 68 63 61 59 81 81 47 68 90 57 60
77 72 42 36 62 58 71 87 74 53 43 65 86 81 36 103
113 99 101 124 120 103 87 107 81 104 103 106 100 94 81 55
49 58 102 104 102 90 89 51 48 46 56 71 70 62 74 72
72 82 79 74 52 77 64 24 34 59 76 82 76 67 34 32
33 34 35 38 16 0 0 5 1 0 0 0 25 10 27 30
19 26 63 63 63 62 60 56 53 49 49 41 16 0 2 7
3 10 40 49 54 43 45 44 47 63 42 50 60 61 59 64
68 75 62 39 16 20 28 55 84 100 105 81 66 104 64 84
81 88 80 72 89 82 89 82 104 68 60 46 63 61 63 112
90 86 108 124 112 115 82 77 77 105 106 101 106 95 83 83
109 68 79 107 101 90 81 46 53 59 70 45 19 51 73 75
73 87 88 87 86 68 73 27 34 55 72 81 74 63 34 34
36 37 40 43 17 0 44 111 54 0 0 0 28 24 11 29
17 20 58 50 52 54 52 50 48 43 49 46 30 3 5 0
8 37 41 53 57 47 45 47 47 71 70 59 60 66 67 70
70 69 61 56 50 42 43 70 93 101 105 82 64 106 81 89
78 101 100 87 74 89 80 104 73 91 74 58 59 63 86 116
87 89 112 126 112 124 80 89 80 108 104 100 107 97 105 84
121 112 86 104 105 63 49 48 48 47 44 19 19 43 75 76
74 83 88 91 89 60 75 27 33 51 63 79 77 62 22 6
6 5 5 4 1 0 77 146 75 0 0 0 29 29 13 22
44 42 53 65 69 67 65 63 54 44 41 36 12 0 7 16
39 40 44 57 60 57 43 45 47 71 77 79 74 77 83 77
65 62 58 59 53 47 49 86 100 108 111 90 72 107 97 68
76 108 102 93 72 100 74 112 101 67 72 55 44 71 102 115
91 93 114 127 112 119 79 111 84 114 106 95 107 95 97 79
116 110 111 110 107 52 54 34 83 53 42 46 24 53 71 76
79 84 82 92 93 56 59 24 35 53 56 75 74 61 58 35
3 0 0 0 0 0 16 32 12 0 0 2 28 28 24 6
32 32 37 45 44 41 40 38 30 25 24 10 0 19 67 46
41 41 48 59 60 58 47 44 48 68 80 78 81 76 72 63
60 58 56 58 54 48 52 88 100 107 108 88 80 111 88 80
94 111 108 102 69 74 69 111 114 99 72 56 40 60 115 120
93 89 121 120 110 113 78 112 85 114 107 93 109 97 103 83
119 114 115 112 107 78 99 65 104 79 42 55 41 48 62 74
88 90 78 83 85 64 39 29 37 58 51 71 72 41 42 68
49 1 0 0 0 2 0 0 0 0 0 3 24 18 3 3
32 34 34 35 36 35 35 31 23 20 20 8 0 7 32 37
40 40 50 63 65 60 53 39 45 66 75 74 74 61 59 77
70 51 56 58 52 47 45 85 99 108 110 83 94 82 50 106
99 106 112 115 81 91 72 105 114 117 82 60 57 43 111 120
98 94 119 116 105 106 82 125 89 111 103 89 110 97 85 81
119 113 114 113 109 74 102 72 105 87 41 56 57 34 66 59
89 92 86 72 79 53 19 36 35 61 48 68 69 21 0 17
61 36 0 0 0 0 0 0 0 0 0 0 4 6 18 21
19 18 16 13 11 8 24 27 21 20 20 17 22 10 41 39
39 41 54 63 57 57 61 43 43 63 69 63 63 67 79 83
71 59 53 56 52 48 48 80 96 108 107 88 82 67 73 101
104 105 114 115 84 106 81 97 113 118 95 55 60 91 116 116
91 90 114 113 98 111 82 99 83 115 100 93 108 91 81 81
118 114 116 118 114 82 105 75 112 92 44 61 64 38 60 54
73 88 83 88 78 21 14 29 36 61 50 62 67 23 0 0
7 55 24 0 0 0 0 0 0 0 0 0 0 1 10 13
0 0 0 0 0 0 9 8 3 6 8 5 21 45 40 40
38 46 56 62 64 73 69 46 44 54 63 72 69 77 77 71
66 63 48 58 54 50 58 63 92 111 113 111 89 93 97 95
109 103 112 119 91 97 94 87 112 108 97 53 55 89 114 95
88 89 119 126 106 115 79 98 81 112 95 97 108 92 99 83
116 114 120 119 114 76 73 77 113 101 53 62 66 53 51 68
76 79 81 96 92 60 3 15 37 56 52 57 63 39 19 1
0 9 56 21 0 0 0 0 0 0 0 0 0 0 0 0
1 0 0 0 0 0 0 0 0 0 0 30 23 47 44 43
39 48 56 64 70 69 69 53 48 52 79 70 71 82 76 64
71 66 47 59 53 51 51 54 88 112 114 114 98 85 102 91
113 102 113 118 96 86 97 85 115 107 99 59 49 78 107 85
104 93 124 123 105 115 81 119 82 108 99 99 112 96 102 85
118 117 119 122 119 83 101 81 115 116 76 59 66 63 41 79
73 86 74 83 88 89 23 12 37 59 49 52 61 46 36 22
0 0 14 50 0 0 0 0 0 0 0 0 0 0 0 0
0 0 0 0 0 0 0 0 0 1 35 16 37 43 52 45
41 53 62 67 69 70 66 55 39 58 72 70 76 82 76 64
74 64 53 58 55 51 37 50 87 114 114 110 103 81 117 82
112 96 108 121 105 75 80 79 115 112 114 81 57 89 96 88
104 100 123 122 107 111 79 112 71 99 104 98 119 96 108 86
116 119 121 120 121 89 104 85 112 119 92 57 67 65 41 82
73 77 79 79 75 81 32 38 33 32 65 50 54 49 41 42
19 1 0 51 9 0 0 0 0 0 0 0 0 0 0 0
0 0 0 0 0 0 2 3 8 31 11 7 55 41 52 44
44 59 65 72 65 65 57 38 38 60 76 77 77 78 72 60
72 64 65 53 54 55 45 49 91 113 112 112 109 73 85 77
109 96 108 121 111 81 110 84 118 117 112 74 67 101 105 80
94 101 121 121 105 110 80 114 74 103 108 99 120 95 104 90
119 121 125 121 125 95 108 86 113 122 104 56 70 67 48 80
82 78 72 79 82 56 33 41 28 18 46 69 48 48 46 42
34 17 0 29 37 0 0 0 0 0 0 0 0 0 0 0
0 0 2 8 14 24 33 26 26 30 0 33 46 44 56 45
47 65 69 59 52 50 52 33 46 59 76 75 78 81 72 57
65 64 71 49 54 58 47 50 96 116 115 112 114 78 91 76
105 93 110 115 110 81 114 84 117 115 115 85 54 103 107 75
83 84 119 117 100 106 80 95 79 111 106 103 119 94 86 87
119 125 126 124 124 95 98 90 108 122 117 59 70 68 58 81
80 81 71 82 81 54 26 40 46 21 9 53 66 46 49 45
50 43 19 29 20 0 0 0 0 0 0 0 0 0 0 0
