P2
128 120
157
49 49 49 48 48 48 47 47 46 46 45 45 44 44 43 42
41 42 42 41 39 39 39 38 37 37 35 35 34 34 33 33
32 31 30 30 29 29 29 28 28 26 26 25 25 25 24 23
23 22 23 22 22 21 21 20 20 19 19 20 25 26 26 25
20 10 20 26 21 21 21 20 19 18 16 14 14 14 13 9
9 12 15 17 18 19 20 20 21 22 22 22 22 22 22 22
23 24 24 25 25 25 26 26 27 27 28 28 28 29 31 29
29 30 31 31 32 32 32 32 33 34 34 35 35 34 34 36
49 49 49 48 47 47 46 46 46 46 45 45 45 43 44 43
42 42 41 40 39 39 39 38 37 36 36 36 35 35 34 34
33 32 32 31 30 29 29 28 28 27 27 27 26 25 25 25
24 23 23 22 22 21 21 21 21 21 21 22 26 27 28 27
22 12 19 27 23 21 20 20 20 18 17 16 16 16 15 12
11 13 17 19 20 21 20 21 22 22 22 22 23 23 24 24
25 25 26 26 27 27 27 27 27 28 28 29 29 30 31 30
31 32 32 33 32 33 33 34 33 33 35 35 35 34 35 37
49 49 49 48 48 48 47 46 46 45 45 45 44 44 43 43
42 42 41 41 40 40 39 38 37 37 37 35 35 34 34 33
33 32 32 32 31 31 30 29 28 27 27 26 26 25 25 25
24 24 23 23 23 22 22 22 21 21 22 23 28 27 28 27
21 14 18 28 23 22 22 21 20 20 18 18 17 17 16 13
12 14 18 20 21 21 22 21 22 23 24 24 24 24 25 25
25 26 27 26 27 27 28 28 28 29 29 29 30 30 32 30
31 32 31 32 33 33 34 33 34 35 35 35 35 35 34 33
49 49 48 48 48 48 47 46 46 46 46 45 45 44 44 44
43 42 41 41 40 39 39 38 37 37 37 36 36 35 34 34
34 33 33 31 31 31 30 29 29 28 28 27 27 26 26 26
25 24 24 24 23 23 22 22 22 22 23 24 28 29 29 29
21 17 17 29 24 23 22 22 21 20 21 20 18 18 17 15
14 15 19 21 22 22 23 23 23 24 25 25 25 25 26 26
26 27 27 28 27 28 28 28 29 29 29 30 30 31 33 32
32 32 33 34 34 34 32 34 35 34 33 33 33 35 36 36
49 48 48 48 48 48 48 47 46 46 46 45 45 44 44 43
43 42 41 41 41 40 39 39 38 38 37 36 35 35 35 34
34 32 32 32 32 31 31 30 29 28 28 28 27 27 26 26
25 24 24 24 24 24 23 23 22 23 23 25 29 29 29 28
22 17 16 29 25 23 23 22 22 22 20 21 19 18 18 16
15 15 20 22 23 23 23 24 25 24 25 25 25 26 26 26
27 27 28 27 28 28 28 29 29 30 30 30 31 31 32 32
32 34 33 33 34 34 33 31 33 34 36 36 37 36 36 36
49 48 48 47 48 47 47 47 47 46 46 45 45 44 44 43
43 42 42 41 40 40 39 39 38 38 37 36 37 36 35 34
34 33 33 32 31 31 31 30 29 29 28 28 27 27 27 26
25 26 25 25 25 24 23 24 23 23 24 26 30 29 30 29
23 18 16 29 25 23 22 23 22 22 21 21 19 19 19 18
18 18 22 24 23 24 24 25 25 25 25 26 26 26 26 27
27 28 28 28 29 29 29 30 29 30 30 31 31 32 33 33
33 32 32 31 33 33 35 36 34 35 35 35 36 36 36 36
49 48 48 48 47 47 47 47 47 46 46 46 44 44 44 43
42 42 41 40 40 40 39 39 39 38 37 37 37 36 35 35
34 33 33 32 32 32 31 30 29 29 29 28 27 27 26 26
26 25 25 25 25 24 24 23 23 23 24 26 30 30 30 29
24 17 13 27 26 24 23 24 23 23 22 23 20 20 19 18
17 18 22 24 24 24 24 25 25 26 26 26 27 27 27 27
27 27 28 28 29 29 30 30 30 31 31 31 31 31 29 29
31 31 33 34 34 35 35 36 36 36 35 35 36 36 36 36
49 49 48 48 48 48 47 47 46 46 45 45 45 44 44 43
43 42 41 41 41 40 39 39 38 38 37 37 37 36 35 35
35 34 33 33 32 31 31 30 29 29 29 28 27 27 27 27
26 26 26 26 25 24 24 24 24 24 24 26 31 30 31 31
23 16 9 25 27 25 25 25 23 23 22 23 20 21 21 19
18 20 24 25 25 25 25 26 26 26 26 27 27 27 28 28
28 28 29 29 29 30 30 30 31 30 30 29 29 30 32 33
34 34 34 34 35 35 35 36 35 35 36 35 36 35 36 36
48 48 48 48 48 47 47 47 47 46 46 45 44 44 44 43
43 42 42 41 41 40 40 40 39 38 38 37 37 36 36 35
34 34 33 33 32 31 31 31 31 30 30 29 28 29 28 27
27 27 26 26 25 25 25 24 24 24 25 27 32 32 32 31
25 17 16 28 28 26 25 25 25 24 23 24 21 21 21 20
19 21 24 25 26 26 26 26 26 27 27 28 27 27 28 28
28 28 29 29 29 29 30 29 30 30 31 32 32 33 33 33
33 34 35 34 35 35 35 37 36 36 36 36 37 37 37 36
51 49 48 48 48 47 47 46 46 46 45 45 45 44 44 43
42 42 42 42 41 40 39 39 38 38 38 37 37 36 36 35
35 34 33 33 32 32 32 31 30 30 30 29 29 28 28 28
27 27 26 26 26 25 25 24 24 24 25 26 32 32 32 31
25 19 21 27 28 27 26 25 24 24 23 24 21 22 21 21
19 22 25 26 26 26 27 27 27 27 27 27 28 28 28 29
28 29 29 30 30 30 31 31 31 31 32 32 33 33 33 33
34 34 35 35 35 36 36 37 36 36 36 36 37 37 37 37
65 66 66 63 58 51 46 46 46 45 45 45 44 44 44 43
42 42 41 41 41 40 40 40 39 39 39 37 36 36 36 35
35 34 33 33 32 32 32 32 31 31 30 29 29 28 28 28
27 27 26 25 25 25 25 24 25 25 26 27 32 32 32 32
25 19 23 25 29 27 26 25 26 25 24 25 22 22 22 21
19 23 25 26 27 27 27 27 28 27 28 28 28 28 28 28
28 28 28 30 30 31 32 31 31 31 32 32 32 33 33 34
34 34 34 34 35 35 36 37 35 36 36 37 38 37 36 36
38 49 58 62 63 57 46 47 46 45 45 45 44 44 44 43
43 42 42 41 41 40 40 40 39 39 38 37 37 37 36 36
35 35 34 33 33 32 32 32 32 30 30 30 29 29 28 28
28 28 27 26 26 26 26 24 25 25 26 27 32 32 33 32
27 21 26 23 29 27 27 26 26 25 24 25 22 23 23 22
20 23 26 27 27 27 28 28 28 28 28 27 27 27 29 28
28 29 30 31 32 32 32 33 32 32 32 33 33 33 34 33
34 34 35 36 35 36 36 37 36 37 36 37 37 37 37 37
0 0 1 28 64 57 47 47 46 46 46 45 44 44 44 44
43 43 42 41 41 41 40 40 40 39 39 37 38 37 36 36
35 35 34 34 33 33 33 32 32 31 31 30 30 30 30 28
28 27 27 27 26 26 26 25 26 25 27 28 33 34 33 33
26 22 27 22 29 27 27 26 26 25 25 26 23 25 24 22
20 24 27 28 27 27 28 27 28 27 28 29 29 30 30 30
30 30 31 30 31 31 32 32 33 32 33 33 33 34 34 34
35 35 35 36 36 36 37 38 37 37 37 37 37 37 37 38
0 0 0 25 64 57 46 46 46 45 46 45 45 44 44 44
44 43 43 42 41 41 40 40 39 39 38 38 37 37 36 36
36 35 35 34 34 33 33 32 32 31 31 30 30 29 29 29
28 29 29 27 27 26 27 25 25 26 26 28 34 34 34 33
27 22 29 21 30 28 28 27 27 26 25 27 23 24 24 23
21 25 26 28 27 27 28 29 29 29 29 29 29 29 29 30
30 30 31 32 32 32 32 33 32 33 33 33 34 34 34 34
35 35 35 35 36 37 36 38 37 36 37 37 38 38 38 37
0 0 0 24 64 57 46 46 46 46 46 45 45 45 44 44
43 43 42 42 41 41 40 40 40 39 38 38 38 37 37 37
36 35 35 34 34 33 34 32 33 32 32 31 31 30 30 29
29 28 28 27 27 27 26 26 27 27 28 29 34 34 34 34
28 23 30 20 30 28 28 28 27 26 26 28 25 25 25 24
20 24 25 28 28 28 29 29 30 29 29 30 30 31 31 31
31 31 32 32 32 32 32 32 33 32 34 34 34 35 34 35
35 36 36 36 37 36 37 38 37 37 37 38 38 37 36 36
0 0 0 25 63 55 46 46 46 46 45 45 45 44 44 44
43 43 43 42 42 41 41 40 39 39 38 38 38 37 37 37
36 36 35 35 34 34 33 33 33 32 32 31 31 31 30 30
30 28 29 28 28 27 27 27 27 26 27 29 34 35 34 34
27 22 31 21 30 29 29 28 27 27 27 29 24 25 25 24
21 26 27 28 29 30 29 30 30 29 30 30 31 31 30 31
31 31 31 33 32 32 33 34 34 33 33 34 34 34 34 35
35 35 35 37 37 37 37 37 37 36 35 36 36 37 38 38
3 0 0 26 63 55 47 47 47 46 46 46 46 45 44 44
44 43 43 42 41 41 40 40 40 39 40 39 38 38 38 37
36 36 36 35 34 34 34 33 32 32 33 32 32 30 30 30
30 29 29 29 28 27 27 28 27 27 28 30 35 35 35 34
28 24 32 22 30 29 29 28 28 27 27 29 25 26 26 25
22 27 27 29 29 30 30 30 30 30 31 31 31 32 32 32
32 32 32 33 33 33 33 33 33 33 34 34 34 35 36 36
36 36 37 36 35 35 35 35 36 38 38 38 37 38 38 39
8 0 0 28 63 54 46 47 46 45 46 45 45 44 44 43
44 43 43 43 42 41 41 40 40 40 39 39 38 38 38 36
37 36 36 35 35 34 34 34 33 32 32 31 32 31 31 30
30 29 29 29 29 28 27 27 27 27 29 30 35 35 35 34
28 23 32 23 30 28 29 29 28 27 27 28 25 25 25 24
21 26 27 29 29 30 30 30 31 31 31 31 31 30 31 31
32 32 32 33 33 33 34 34 34 34 34 35 35 35 36 35
35 34 35 36 36 37 37 38 37 38 37 38 38 38 38 38
16 0 0 28 62 53 46 46 46 47 46 45 45 44 44 43
43 43 42 42 41 41 41 40 40 39 39 39 39 39 38 37
36 36 36 35 34 34 34 33 33 32 33 32 32 32 31 31
30 30 29 29 29 28 28 28 27 27 29 30 36 34 35 35
28 23 31 25 28 28 29 29 28 27 27 29 25 26 26 25
21 28 27 30 30 30 31 31 31 31 31 32 31 31 32 32
32 33 33 33 33 33 34 34 34 34 34 34 33 35 35 35
37 37 37 38 37 37 37 37 38 37 38 38 38 38 38 38
12 1 0 29 61 53 47 46 46 46 46 45 45 44 44 44
43 43 43 42 42 42 42 41 40 39 40 39 38 38 37 37
37 36 36 36 35 35 34 34 33 33 33 32 32 31 31 31
30 29 30 29 29 29 28 28 28 27 27 29 35 34 33 33
27 22 32 27 28 29 30 29 29 28 27 27 25 26 26 25
20 27 28 30 30 31 31 31 32 31 32 32 32 32 32 32
32 33 33 33 34 34 34 33 33 34 34 35 35 35 35 36
36 36 37 37 37 37 37 38 38 38 38 38 38 38 38 38
11 12 9 31 61 53 46 47 46 46 46 46 45 45 44 43
43 42 43 42 42 41 41 41 41 40 40 39 38 38 38 37
37 37 36 36 35 34 35 34 34 33 33 33 32 32 31 30
27 28 29 30 29 27 28 26 24 22 18 15 18 18 15 15
14 13 23 24 23 26 27 28 29 27 27 27 26 27 27 26
22 28 28 31 31 31 32 31 33 31 32 32 32 33 32 33
33 33 33 33 33 34 35 35 34 34 35 35 35 35 36 38
37 37 37 38 38 38 38 38 38 37 38 38 38 38 38 38
13 10 21 43 61 52 47 47 46 46 46 45 45 44 44 44
44 43 44 43 43 42 41 41 40 40 39 38 39 38 37 37
37 36 36 36 35 35 35 35 35 33 34 33 33 31 28 27
27 28 26 26 28 28 27 24 10 5 3 3 1 2 3 5
5 5 7 10 17 22 25 25 27 28 27 27 27 27 27 27
22 29 28 31 31 32 32 32 33 33 33 33 33 32 32 33
33 33 33 34 34 34 35 35 34 36 36 36 36 36 36 37
36 36 38 37 38 37 38 39 38 38 38 38 39 39 38 38
52 50 44 50 57 50 47 46 46 46 46 46 46 45 44 44
44 43 43 43 42 42 42 41 40 40 39 39 40 39 39 38
37 37 36 36 36 35 35 35 34 34 33 33 32 29 27 29
29 27 24 23 23 24 21 6 1 0 0 0 1 2 4 6
7 4 6 7 9 9 15 22 26 27 27 27 27 27 27 27
23 30 28 32 32 32 33 32 32 32 32 31 32 32 32 33
34 33 34 34 34 34 35 36 35 35 36 36 36 37 36 38
37 37 38 38 38 37 38 38 38 38 38 38 38 38 38 38
44 47 49 50 50 48 47 47 46 47 46 46 45 44 45 44
44 44 43 43 43 42 41 41 41 40 39 40 39 39 38 37
37 37 37 37 36 36 35 35 35 34 35 34 31 28 27 26
25 24 20 20 20 15 12 0 0 0 0 0 1 4 7 6
7 5 6 6 9 8 8 9 15 22 27 28 28 27 27 27
23 30 28 31 31 31 31 31 31 32 33 33 33 33 33 34
34 34 34 35 34 34 35 36 35 35 36 37 37 37 37 38
37 37 38 37 38 38 38 38 38 38 38 38 38 38 38 37
30 35 40 44 48 48 48 47 47 46 46 46 46 45 44 44
44 44 43 43 42 42 41 41 41 40 40 40 39 39 39 39
38 38 37 37 36 35 35 34 34 36 35 32 31 24 24 19
16 11 6 1 4 5 1 0 0 0 0 0 0 3 3 6
9 7 7 8 7 6 7 5 7 11 22 25 27 27 28 28
23 30 26 31 32 31 32 32 33 33 33 33 33 33 33 34
35 35 35 35 34 34 35 36 36 36 36 36 37 37 37 38
37 38 38 38 39 38 38 38 39 38 38 38 38 38 38 39
21 20 20 22 24 30 34 39 45 47 47 46 46 46 45 44
44 44 43 43 42 42 42 41 41 40 40 39 39 39 38 38
38 37 37 36 36 36 36 35 36 35 33 31 28 20 15 8
3 2 0 0 0 0 0 0 0 0 0 0 0 0 0 2
3 4 5 10 9 6 9 7 5 7 10 20 27 28 28 27
23 30 28 32 32 32 33 33 34 33 34 34 34 34 35 35
35 34 35 34 35 35 35 36 36 36 36 37 37 38 37 38
38 38 38 38 39 38 38 37 38 38 38 39 39 39 38 38
21 21 21 22 21 21 22 21 20 23 28 33 38 42 45 44
44 44 44 42 42 42 41 41 41 40 40 40 40 39 39 38
38 38 37 37 37 36 35 35 35 34 32 32 27 12 3 4
4 2 0 0 0 0 0 0 0 1 4 2 0 0 2 0
1 4 4 4 7 10 10 6 5 7 3 15 20 25 28 28
25 30 29 33 33 33 33 33 33 33 34 33 33 34 35 34
35 35 36 36 35 35 36 36 36 36 37 37 37 37 38 38
38 38 38 38 39 39 39 38 39 38 38 36 35 35 36 37
33 27 25 22 21 21 21 21 21 22 21 21 16 18 22 35
44 44 43 43 42 42 42 41 41 40 41 40 39 39 39 39
38 37 37 37 37 36 36 35 35 34 31 28 18 1 0 2
1 0 0 0 0 0 0 2 0 3 2 4 4 3 1 1
0 0 3 9 5 5 9 11 8 5 5 9 15 19 28 28
25 30 28 32 33 32 33 33 34 34 34 34 34 35 35 34
36 35 35 35 35 36 36 36 37 36 37 38 38 38 37 38
38 39 37 38 38 38 37 37 36 36 36 38 40 39 38 38
64 61 58 39 27 28 21 21 19 21 21 21 13 10 19 33
44 44 43 43 43 42 41 41 41 41 40 40 39 39 40 39
38 38 38 38 36 36 36 36 35 32 29 22 4 1 2 0
0 0 0 0 0 1 8 6 6 5 4 2 2 5 6 4
1 0 1 1 7 4 1 9 10 11 8 8 9 12 22 28
25 31 28 33 33 33 33 34 34 34 34 33 34 34 34 34
36 35 35 36 36 36 37 36 37 38 37 38 38 38 37 37
38 37 36 37 38 37 38 39 39 37 38 37 38 38 37 38
65 64 63 43 38 44 50 45 34 28 23 20 17 18 19 32
44 43 44 43 42 41 40 39 41 41 41 41 40 39 39 39
39 37 37 37 37 36 36 35 34 35 31 12 0 3 1 0
0 0 0 0 4 15 20 12 12 10 7 6 5 2 7 7
5 5 3 3 0 1 3 4 8 10 16 6 5 1 13 27
25 30 28 32 33 33 33 34 34 34 34 34 35 35 35 35
36 36 36 35 35 34 36 37 36 37 37 37 37 36 37 37
36 37 38 37 37 37 37 37 39 37 37 38 37 38 38 38
65 65 65 47 46 49 54 53 43 56 56 51 33 16 20 32
45 43 44 43 43 42 48 52 49 47 44 42 41 39 38 39
39 38 38 37 37 36 36 36 34 38 29 1 0 4 0 0
0 0 0 4 21 33 27 23 24 21 15 7 6 3 6 9
7 6 4 2 2 0 0 8 7 14 13 17 8 3 1 20
26 31 29 33 34 33 34 35 34 34 34 34 34 34 35 35
36 36 36 36 36 36 36 36 36 37 37 37 37 37 36 36
37 37 37 37 37 37 37 36 39 37 37 38 38 37 37 38
39 49 60 49 49 51 56 56 56 61 61 60 43 18 21 34
45 44 44 43 42 42 50 55 53 52 48 46 45 44 42 40
39 38 38 37 34 36 37 36 34 39 11 0 2 2 0 0
0 0 7 20 42 50 46 46 46 32 24 11 7 7 5 10
13 9 9 6 7 8 1 5 11 14 14 12 15 9 1 9
25 31 28 33 33 33 34 34 34 34 35 35 34 35 35 35
35 35 34 34 36 36 37 37 37 35 37 37 37 37 38 38
37 36 36 37 37 36 36 36 38 37 37 38 38 37 37 37
9 0 34 52 51 53 57 56 59 61 60 61 48 18 22 39
48 46 46 45 43 42 52 56 54 50 48 48 50 52 49 46
46 43 40 37 36 36 35 35 33 24 0 1 0 0 0 0
0 3 24 43 60 62 66 63 64 52 43 27 13 11 9 9
10 18 13 13 10 12 15 3 3 5 10 8 11 4 2 1
22 32 29 34 35 34 34 35 35 35 34 34 34 34 33 34
35 36 37 37 36 36 37 37 38 37 37 37 37 37 37 36
37 36 37 36 36 37 37 38 39 38 38 38 38 38 37 37
20 8 39 50 50 52 51 57 58 60 61 61 50 19 22 42
51 47 47 46 46 45 50 43 49 51 51 53 55 55 50 41
45 47 47 45 44 42 41 37 32 5 0 1 0 0 0 0
0 15 44 65 67 68 80 80 76 67 59 46 21 19 16 11
12 17 20 21 14 19 21 15 2 0 1 6 6 3 1 1
15 31 29 34 34 35 35 34 33 34 34 34 35 35 36 35
36 36 36 36 36 36 37 36 37 37 37 37 37 37 38 37
37 38 37 37 37 37 38 37 39 38 38 37 38 37 38 36
23 14 42 46 18 30 40 52 58 59 58 57 49 20 22 41
53 42 42 46 50 52 54 3 2 16 35 42 45 51 50 14
2 10 19 31 37 40 48 44 24 1 3 1 0 0 1 2
6 39 65 79 82 87 91 93 84 78 70 57 29 27 21 18
11 17 22 22 25 27 28 26 16 2 0 3 2 2 5 5
8 28 28 34 34 34 34 34 35 35 35 35 35 34 35 35
36 35 36 36 36 36 37 37 38 37 37 36 36 37 37 36
37 37 38 36 37 37 38 37 39 39 38 37 37 37 37 37
17 13 44 42 1 2 6 9 15 26 28 41 51 21 23 40
52 50 47 40 49 56 57 3 0 3 15 20 18 18 47 12
0 0 0 0 2 5 13 19 12 2 3 0 0 3 2 5
19 53 78 85 90 94 99 98 95 87 73 62 43 31 32 26
20 18 20 26 27 23 32 30 26 11 1 0 0 0 5 7
4 27 27 34 34 34 34 35 36 36 35 36 36 36 36 36
36 37 36 36 37 36 36 36 38 37 37 37 38 37 38 37
38 37 38 38 38 37 37 37 37 38 38 37 37 37 38 37
0 0 44 43 0 0 0 1 0 0 0 14 52 22 22 13
17 28 42 50 56 57 58 5 0 2 11 14 18 17 46 13
0 0 0 0 1 0 0 2 6 3 0 0 0 1 4 5
33 60 81 87 92 97 103 106 104 100 87 68 49 39 37 32
27 20 18 23 28 27 24 37 30 14 6 1 0 0 0 7
1 27 29 35 36 35 36 36 37 36 36 36 35 36 36 36
36 36 37 37 37 37 37 37 39 38 38 38 37 37 37 37
38 38 37 37 38 39 38 38 40 39 39 38 37 38 38 37
0 0 45 41 3 6 0 1 0 0 0 17 52 22 23 5
0 0 0 2 12 23 41 7 0 1 7 2 9 11 44 17
2 0 0 0 0 0 0 3 4 0 0 0 1 6 7 10
40 61 81 88 92 99 107 109 111 106 101 80 59 52 35 40
37 32 21 21 28 28 33 37 41 29 10 3 0 0 0 0
2 20 28 35 35 36 36 35 37 36 36 36 37 36 36 36
36 37 37 37 37 37 37 37 38 37 38 38 37 38 39 39
39 39 38 38 38 38 38 38 39 38 38 38 38 38 39 38
0 0 46 40 3 8 1 29 4 0 0 15 53 21 22 5
0 0 0 0 0 0 17 9 0 0 0 0 0 10 41 11
0 0 0 3 5 1 0 8 4 0 0 3 2 8 9 12
42 64 79 85 95 103 110 113 115 108 102 96 75 56 47 34
52 35 32 26 30 27 40 35 42 40 15 8 3 0 0 0
0 15 28 34 36 36 36 35 36 37 36 36 36 35 36 35
36 36 36 37 37 37 37 38 39 37 38 38 38 38 38 38
38 38 38 38 38 39 38 38 39 36 39 39 38 39 39 39
5 0 46 38 3 8 1 16 23 0 0 16 52 21 22 4
0 0 0 0 0 0 14 8 0 0 0 0 0 10 47 16
0 0 0 6 18 8 2 9 8 3 1 5 6 9 9 14
45 71 78 86 98 102 108 112 113 112 105 102 97 71 66 46
41 44 37 31 30 39 30 39 37 34 20 3 7 0 0 0
0 5 26 36 36 36 36 36 37 36 36 36 36 36 36 36
36 37 36 37 37 37 37 38 38 38 38 38 38 39 38 39
39 39 39 39 38 38 37 37 37 39 39 39 40 40 39 38
0 0 45 35 2 9 3 10 10 0 0 18 48 20 22 5
0 0 1 3 0 0 13 6 0 0 0 0 0 6 48 16
0 0 1 10 18 16 10 8 12 5 2 5 6 7 4 15
47 76 75 89 99 102 106 111 113 110 111 103 104 86 61 56
41 48 43 39 32 33 39 31 39 33 17 6 3 1 0 0
0 2 21 35 36 36 35 35 36 36 35 35 36 36 36 36
36 36 37 37 37 37 38 37 39 37 38 38 38 38 38 38
37 37 38 38 38 38 38 38 39 39 38 39 38 38 38 36
3 0 45 32 0 4 4 0 6 0 0 18 49 20 22 5
0 3 5 21 0 0 12 6 3 3 0 0 1 9 48 18
0 0 1 11 18 16 8 11 17 6 5 7 9 6 2 15
51 73 79 92 101 104 109 112 118 118 115 108 106 102 85 64
50 42 50 43 37 32 35 27 23 31 20 6 1 1 1 0
0 4 24 34 36 36 36 35 37 36 35 35 36 36 36 36
36 36 36 37 38 38 38 38 39 37 37 37 38 38 39 38
38 38 38 38 38 38 38 39 38 39 38 38 38 38 38 38
0 0 45 31 0 3 13 0 0 0 0 19 47 19 21 4
12 14 7 6 0 0 10 7 2 0 0 0 3 9 46 20
0 3 3 6 15 13 8 13 19 7 9 10 8 4 1 17
60 71 78 88 98 105 111 112 121 126 131 121 105 102 104 93
64 49 45 47 43 36 39 31 31 27 31 4 7 2 1 0
0 3 23 35 36 35 35 35 36 36 36 36 35 35 36 36
36 37 37 36 36 37 37 36 37 39 37 37 37 38 38 38
39 37 38 38 38 38 38 38 39 39 38 38 38 38 38 38
52 47 52 41 9 6 8 6 3 0 0 21 46 21 22 6
15 1 0 7 5 0 11 8 0 0 1 0 1 25 49 28
4 2 5 0 1 5 8 9 11 6 10 12 3 4 1 23
64 71 73 82 80 72 59 63 81 111 134 140 126 112 106 102
93 61 36 25 27 34 35 38 28 24 25 11 2 7 3 0
0 1 21 35 35 35 35 36 36 35 36 36 35 36 36 37
37 36 38 38 38 37 37 37 37 37 37 37 38 38 39 38
40 38 39 38 39 38 39 39 38 39 38 38 39 39 39 37
54 60 49 74 59 33 45 44 49 44 39 43 39 20 21 6
3 0 0 0 2 0 16 42 28 18 19 10 1 1 49 52
47 44 38 29 17 5 7 4 6 9 10 7 2 1 3 37
67 67 69 55 34 25 28 33 43 60 101 138 144 134 121 112
87 48 35 24 14 14 17 22 20 18 16 4 1 2 3 0
0 0 15 35 36 35 35 34 36 36 36 36 37 37 36 37
37 36 38 37 37 37 38 37 37 38 37 39 38 38 39 38
39 37 38 39 38 38 39 39 38 37 36 35 39 36 37 35
3 37 73 77 49 36 50 58 61 58 57 56 38 21 22 5
0 0 0 0 0 0 18 62 56 47 51 51 49 43 61 40
19 22 25 28 28 13 2 3 0 2 7 1 0 0 6 53
67 57 37 31 50 82 95 92 83 81 97 128 144 142 138 128
107 86 69 53 44 26 10 10 10 17 22 9 0 3 1 0
0 0 9 34 35 35 35 35 36 36 35 35 36 36 35 36
38 37 37 37 37 37 37 37 37 37 38 38 38 38 38 38
39 38 37 35 35 35 35 37 37 37 36 34 33 30 26 22
0 41 73 72 42 39 50 56 59 58 62 60 39 21 22 5
0 0 0 0 0 0 19 65 46 52 57 60 63 53 52 35
16 18 17 17 13 2 2 0 0 0 4 0 0 0 10 32
33 21 19 27 36 51 61 74 88 104 113 125 141 142 138 139
117 111 97 68 44 35 32 38 47 48 40 24 10 1 0 0
0 0 7 32 36 35 34 35 35 35 36 36 36 36 36 35
37 36 36 36 36 36 37 36 36 36 38 37 37 36 38 38
38 37 37 39 37 31 31 27 24 20 17 16 16 15 16 16
0 41 69 60 24 24 40 48 52 56 58 61 39 21 22 36
40 31 20 10 3 0 20 54 42 53 57 60 63 57 47 34
18 20 18 17 11 0 0 0 0 0 0 0 0 0 51 59
35 21 15 11 6 4 4 9 10 22 60 106 132 139 139 133
100 47 20 15 15 12 11 12 21 51 59 107 83 7 0 0
0 0 5 33 36 35 35 35 35 35 34 36 35 35 34 35
37 36 37 37 38 37 38 37 39 39 39 39 39 36 33 31
29 24 22 29 36 17 13 16 17 18 19 19 20 20 22 22
0 40 69 59 9 0 0 0 0 3 5 34 40 21 23 43
59 59 58 55 53 46 51 47 40 52 55 58 62 58 50 39
20 20 17 13 8 0 0 0 0 0 0 0 0 1 64 31
2 1 0 0 0 0 2 7 9 10 15 47 102 140 135 81
26 11 6 10 8 6 3 3 4 6 21 28 81 7 0 0
0 0 3 31 36 35 35 35 34 35 36 36 36 36 35 34
36 37 37 37 38 39 38 36 34 31 28 23 21 19 17 17
18 18 18 24 34 13 18 21 23 24 25 26 27 28 28 29
0 37 69 60 6 0 3 0 0 0 0 26 41 22 23 42
60 60 58 58 58 58 61 33 8 16 26 33 42 44 44 43
21 18 16 8 2 0 0 0 0 0 0 0 0 1 36 8
3 6 2 1 0 0 2 3 3 2 5 23 50 92 80 36
24 1 2 6 5 6 9 11 13 12 9 8 40 0 0 0
0 0 6 31 35 35 35 34 34 33 32 31 32 36 37 37
37 34 33 30 27 23 21 19 19 18 19 20 20 22 22 22
23 24 24 25 32 16 23 28 30 30 31 31 32 32 33 33
0 32 67 57 4 0 0 0 1 9 7 26 41 21 21 37
56 58 57 60 60 60 62 25 1 0 0 1 9 18 28 45
19 16 12 0 0 0 0 0 0 0 0 0 0 1 30 6
4 12 9 2 1 1 1 0 0 0 1 28 40 50 61 51
28 0 0 1 1 2 12 22 27 32 23 8 31 0 0 0
0 0 5 28 30 31 32 31 31 32 33 23 20 29 25 22
21 19 19 20 20 21 22 24 23 24 25 26 27 29 29 29
31 31 31 30 38 20 28 31 33 34 34 35 35 35 36 35
0 28 62 53 2 0 0 0 12 40 37 34 42 37 32 37
43 44 46 47 47 52 57 22 0 0 0 0 1 7 29 47
18 15 14 2 0 0 0 0 0 0 0 0 0 11 40 9
26 62 19 4 1 1 0 0 0 0 0 25 40 35 45 52
22 0 0 0 0 2 16 42 120 126 28 13 27 1 0 0
0 0 8 30 32 31 29 26 23 21 20 18 15 18 20 21
23 23 25 26 28 28 29 30 30 30 31 31 32 33 33 34
34 34 33 24 18 13 31 35 35 35 37 36 37 37 37 36
0 28 59 49 1 0 0 0 9 37 35 29 34 27 25 29
26 29 38 39 37 49 56 19 0 0 0 2 5 0 21 46
15 12 3 0 0 0 0 0 0 0 0 0 0 29 44 12
65 151 46 0 0 0 0 0 0 0 0 25 48 101 102 41
25 0 0 0 0 1 8 33 127 136 29 14 27 2 0 0
0 0 11 21 18 19 19 19 21 21 22 23 23 25 27 27
28 30 31 32 32 33 34 34 35 34 35 35 35 34 35 35
35 35 34 15 5 2 29 35 37 38 38 36 37 37 37 37
0 32 60 48 0 1 4 0 1 16 19 27 33 29 29 30
33 31 37 39 37 49 55 17 0 0 0 0 3 0 22 42
2 1 0 0 2 0 0 0 0 0 0 0 0 40 48 12
40 95 20 3 0 0 0 0 0 0 1 32 65 120 124 64
33 0 0 0 0 1 3 10 29 34 18 12 28 2 0 0
0 0 9 17 20 23 24 24 25 27 28 30 29 30 32 33
34 34 35 35 36 36 36 37 37 37 37 37 37 37 37 32
26 22 32 13 13 2 28 36 38 39 38 37 37 38 37 37
0 36 62 46 0 1 5 0 0 0 0 13 27 23 25 20
17 26 35 40 47 52 53 17 0 0 0 0 0 0 26 41
0 0 0 0 1 0 0 0 0 0 0 0 0 49 52 11
12 11 9 4 0 0 0 0 0 0 4 37 89 126 130 95
38 2 0 0 0 0 1 6 10 13 16 13 27 1 0 0
0 0 14 20 26 29 30 30 31 32 32 32 34 34 34 35
35 35 36 37 37 37 38 38 38 37 37 36 38 38 16 0
0 5 28 10 3 1 28 36 38 38 37 37 38 37 38 37
0 41 63 45 0 0 6 9 1 0 0 16 33 32 30 14
0 0 0 0 3 7 20 17 0 0 0 0 0 1 28 39
0 0 0 0 1 2 0 0 0 0 0 0 0 54 61 20
7 2 4 0 0 0 0 0 0 0 14 46 103 129 132 119
44 22 0 0 0 0 1 4 5 8 11 11 25 1 0 0
0 2 15 23 31 32 32 32 33 34 32 34 35 36 36 36
37 36 37 37 38 38 38 38 38 38 38 38 38 38 32 25
31 34 35 16 0 1 27 36 37 38 37 37 37 37 36 36
0 45 62 43 0 0 0 12 6 0 0 17 42 37 32 16
0 0 1 1 0 0 8 16 0 0 2 3 1 0 26 35
0 0 0 0 0 7 0 0 0 0 0 0 0 56 65 31
6 4 4 0 0 0 0 0 0 0 27 72 111 132 136 126
71 38 3 0 0 0 3 10 12 10 13 12 29 1 0 0
0 2 13 24 33 33 34 34 34 34 34 36 36 37 37 37
37 38 38 37 37 38 38 39 38 38 38 38 38 38 38 37
36 34 33 19 1 2 27 36 37 38 38 38 37 37 37 37
37 50 57 44 0 0 0 11 10 4 0 16 47 38 31 17
0 0 0 3 0 0 8 15 0 0 15 15 6 0 27 31
0 0 0 0 0 2 0 0 0 0 0 0 0 54 75 35
10 8 11 2 0 0 0 0 0 12 43 102 115 133 140 133
112 32 31 0 0 0 5 11 13 11 11 24 43 1 0 0
0 0 5 27 34 34 35 35 35 34 36 36 36 36 36 36
36 37 38 37 37 37 37 38 39 38 38 39 39 37 37 36
36 34 33 25 1 4 28 36 37 37 37 37 37 36 36 36
37 43 48 45 20 12 5 14 20 15 4 14 48 33 29 17
0 0 9 15 2 0 6 16 0 5 24 20 9 0 27 28
0 3 0 0 2 0 0 0 0 7 17 25 4 49 77 71
22 12 12 4 0 0 0 0 5 20 74 111 120 139 147 138
124 65 30 24 0 0 6 11 12 10 19 65 64 4 0 0
0 2 0 19 34 34 35 35 35 34 36 37 36 37 37 36
36 37 37 37 37 37 37 38 38 37 37 37 37 37 37 36
36 34 32 26 11 13 31 36 37 37 36 37 36 36 35 36
10 27 51 47 45 52 46 42 51 46 41 43 49 29 28 15
0 7 21 24 11 2 5 25 5 13 21 18 17 1 27 26
2 3 1 0 0 1 0 0 0 25 49 56 17 46 75 85
77 29 17 7 2 4 7 19 29 58 103 109 126 143 148 142
124 101 61 52 28 20 21 23 29 40 80 101 76 9 0 0
0 0 1 12 32 34 35 34 34 35 36 36 36 37 35 36
36 36 37 37 36 37 36 38 38 37 37 37 37 37 36 36
36 33 30 25 25 26 33 36 37 37 36 36 36 36 35 36
20 33 52 46 15 10 14 27 35 48 54 57 54 32 25 16
0 6 17 19 9 2 5 49 46 49 50 47 45 42 49 28
0 0 0 0 0 0 1 0 0 12 64 62 39 42 74 84
93 90 73 61 61 70 91 103 74 86 109 111 138 149 149 146
130 121 109 112 114 98 88 86 95 115 115 99 65 10 0 0
0 0 2 17 33 34 34 34 33 34 34 34 34 35 35 35
35 36 36 36 36 36 36 36 37 36 36 36 36 35 36 35
35 33 31 27 28 31 35 36 35 36 35 36 36 35 36 35
15 38 53 48 12 2 0 2 9 3 42 57 50 31 26 18
0 1 6 2 3 0 4 49 47 52 52 51 53 59 61 37
12 15 11 4 3 2 0 0 0 0 56 64 51 45 71 78
91 99 108 125 138 139 137 90 82 91 100 104 124 142 147 142
133 125 111 106 132 144 148 146 139 127 112 98 62 17 0 0
2 0 0 8 27 33 34 33 34 35 34 35 34 35 34 35
35 35 35 35 36 35 35 35 35 37 36 36 37 36 35 35
34 33 32 30 29 35 35 36 35 36 37 36 36 36 36 37
10 34 55 49 8 0 4 24 40 13 47 55 46 30 28 27
22 1 7 2 1 0 3 48 49 51 51 50 56 63 63 51
38 38 33 16 8 0 1 3 0 0 44 75 58 49 71 81
90 96 109 128 140 142 128 86 90 77 59 74 105 129 136 118
83 112 117 108 120 138 147 146 137 124 105 97 80 15 0 0
14 12 1 16 28 32 33 34 35 35 35 35 35 34 35 36
36 36 36 36 36 36 36 36 36 36 36 37 36 37 35 35
34 34 33 34 33 36 37 37 36 36 36 36 36 37 36 36
0 37 58 52 8 0 5 11 42 32 51 53 36 29 29 29
15 0 6 1 2 0 4 46 40 45 46 45 47 47 47 45
42 39 33 26 17 10 16 5 0 0 30 77 83 65 68 83
87 94 110 123 132 133 123 106 94 85 78 86 83 102 114 115
99 111 127 134 125 129 144 147 139 124 108 97 86 7 0 2
21 20 14 14 26 33 35 36 36 36 35 35 36 37 36 36
35 36 36 37 37 37 37 37 37 38 37 38 37 38 35 35
35 35 34 33 35 35 35 35 35 36 37 37 38 37 36 35
1 38 60 54 10 0 3 4 10 23 53 55 34 32 34 29
5 0 3 3 0 0 4 51 42 44 44 44 44 41 38 41
44 44 43 38 29 25 26 8 1 0 10 70 87 70 68 79
87 94 107 121 126 124 124 119 100 89 82 85 92 104 114 119
116 124 133 145 138 129 139 138 136 122 107 101 79 1 1 5
26 26 32 28 32 34 35 35 35 36 35 36 36 37 37 37
36 37 37 37 37 37 37 37 37 36 37 37 36 36 36 37
37 36 35 37 38 37 37 37 38 38 38 37 37 37 37 37
0 43 62 56 12 0 0 0 0 14 54 57 33 32 30 32
31 25 19 16 11 6 8 55 45 44 44 43 44 44 44 48
47 47 49 51 44 37 24 2 0 0 2 71 81 73 66 78
87 90 105 118 122 118 118 107 96 95 98 104 107 110 108 119
111 117 127 139 140 131 136 139 134 125 114 104 70 0 2 8
28 28 35 32 36 35 36 36 36 37 36 36 36 37 37 36
36 36 38 37 36 36 37 37 38 37 37 38 39 38 38 38
37 37 36 37 39 38 38 39 38 39 38 38 38 38 38 37
0 39 61 56 12 0 0 0 0 6 52 57 33 34 32 38
56 58 56 54 58 61 58 61 49 47 47 46 47 49 52 56
49 49 51 59 55 38 22 2 0 0 0 50 83 83 63 75
85 88 101 118 124 109 100 88 87 93 104 113 108 105 112 122
115 110 109 115 125 132 131 136 133 125 112 100 73 0 5 12
30 29 36 32 36 35 35 35 35 34 35 35 36 37 38 38
38 38 37 37 37 37 37 37 38 38 38 38 38 38 37 37
37 37 37 38 38 38 38 38 37 37 38 37 36 37 37 37
0 35 60 53 6 0 0 0 0 9 54 60 34 32 31 39
66 67 66 66 65 65 64 64 51 47 41 44 43 47 53 58
51 50 51 50 45 41 25 2 0 0 0 2 26 23 59 74
82 84 97 116 122 98 92 81 81 92 109 120 124 117 127 137
127 111 95 100 113 128 136 135 130 123 112 93 33 2 5 16
29 29 34 31 36 35 35 35 36 36 36 36 37 37 38 38
37 37 36 36 36 36 36 37 37 37 36 36 36 36 37 36
36 37 36 37 37 37 37 36 36 37 37 37 37 36 37 36
0 35 61 53 5 0 0 0 0 7 52 58 32 31 33 35
53 56 57 59 60 63 64 65 31 14 18 9 10 15 24 46
53 49 33 17 25 25 17 1 0 0 0 0 0 0 47 75
85 86 87 110 121 100 101 71 61 64 68 80 98 109 108 107
107 108 94 91 114 127 138 134 127 119 111 44 1 1 8 21
30 30 34 30 37 36 35 36 36 37 37 37 37 37 37 38
37 37 37 37 36 36 36 36 36 36 37 36 36 36 36 36
36 38 37 37 37 37 37 38 37 37 37 37 36 36 36 36
0 33 61 55 5 0 0 0 0 4 49 53 29 32 33 29
35 36 36 35 35 35 35 40 23 1 0 0 0 0 1 32
53 41 7 1 3 6 8 6 2 0 0 0 0 0 29 71
85 93 80 100 119 111 107 82 32 35 40 46 58 61 61 48
60 58 76 89 115 133 140 134 128 120 106 20 3 6 13 26
31 30 34 31 36 36 35 36 36 36 37 36 38 37 36 37
37 37 36 36 36 36 36 36 36 37 36 33 33 31 29 27
23 29 34 38 37 37 37 37 36 37 37 37 37 37 36 35
0 33 61 56 6 0 0 0 0 2 50 57 30 31 30 31
45 46 45 44 42 40 39 42 26 11 4 0 0 0 13 35
51 25 0 0 0 0 1 10 8 0 0 0 0 0 15 65
86 99 84 90 109 119 108 103 84 68 81 94 99 99 102 99
97 94 116 109 117 138 134 128 123 116 88 3 4 5 17 28
31 29 34 31 36 35 35 36 36 36 36 36 36 35 35 34
32 30 28 25 23 25 29 35 36 36 36 23 8 8 7 8
7 11 33 38 37 37 36 37 37 36 36 35 35 36 36 35
47 55 58 52 6 0 0 0 0 3 55 61 30 29 30 32
47 48 48 47 47 47 48 48 25 8 4 0 0 0 14 36
49 14 0 0 0 0 0 8 16 1 0 0 0 0 10 52
83 101 87 84 101 125 114 109 87 84 92 108 111 111 118 126
106 110 121 122 124 137 124 121 118 109 50 3 2 9 21 28
30 30 34 30 35 34 34 35 36 35 36 36 34 14 9 9
9 10 5 3 3 2 5 31 35 35 36 22 7 6 6 8
7 11 34 37 37 37 36 36 36 36 36 35 35 35 36 35
58 55 43 32 25 21 13 11 4 6 53 54 27 27 31 33
48 50 50 48 48 48 49 50 26 5 5 0 0 9 6 24
46 8 0 0 0 0 0 10 30 3 0 0 0 0 7 46
72 93 96 86 105 117 109 117 99 83 87 96 102 105 110 114
110 111 125 133 125 133 128 122 119 99 15 4 2 9 22 28
30 29 33 31 35 35 34 34 35 35 35 36 33 7 3 8
9 11 5 3 3 2 4 28 35 35 34 20 6 6 8 7
6 9 34 37 37 36 37 36 37 36 36 35 36 36 34 34
55 55 53 50 53 54 51 52 49 48 52 48 40 37 37 30
20 21 22 23 23 27 38 54 30 1 0 0 0 10 7 21
45 6 0 0 0 0 0 12 40 14 0 0 0 0 7 48
56 84 91 86 98 110 102 116 117 108 94 91 91 85 88 102
109 128 138 136 124 128 121 117 110 56 5 2 8 12 23 28
30 29 33 31 35 34 34 35 35 36 35 35 33 8 4 8
9 10 5 3 3 1 2 26 34 34 35 18 7 7 7 7
7 9 31 36 37 38 37 36 36 36 36 35 35 36 35 35
52 52 51 51 51 50 49 49 48 48 48 47 48 47 46 46
45 45 43 38 3 2 18 55 41 16 1 0 3 9 5 17
44 4 0 0 0 0 0 13 44 24 2 0 0 0 6 55
47 66 84 89 91 103 104 112 117 121 121 124 124 123 126 135
137 138 139 132 128 126 116 112 88 9 6 7 15 10 22 28
29 29 32 31 35 35 35 34 34 35 35 35 32 8 3 8
10 11 4 2 4 1 2 27 34 35 35 21 6 5 7 7
6 6 31 37 37 36 36 35 35 34 33 33 34 34 34 33
52 51 51 50 50 49 49 49 48 48 48 48 48 46 46 46
46 45 45 42 7 0 13 54 39 8 0 0 1 9 8 18
45 3 0 0 0 0 0 6 45 30 12 3 1 0 4 57
56 49 72 79 84 90 97 108 113 122 126 132 135 137 139 145
142 140 137 133 122 112 103 97 35 0 10 16 19 10 21 28
28 28 31 32 35 33 33 34 35 34 35 35 33 9 3 6
10 10 5 3 3 1 1 26 34 35 35 24 10 11 11 12
13 12 26 34 34 34 35 35 36 36 36 33 35 35 35 35
51 51 50 50 50 49 49 48 48 47 47 47 46 45 45 45
45 45 45 43 11 0 9 47 29 0 0 0 0 0 0 16
47 4 0 1 0 0 0 4 44 34 11 3 1 0 1 60
63 52 58 67 74 81 91 102 112 122 132 138 137 141 145 148
145 139 135 128 112 93 92 72 11 3 19 22 19 9 20 26
28 27 28 28 34 34 34 34 35 35 35 34 32 10 3 6
9 8 5 3 3 1 2 25 34 35 35 26 13 14 12 12
13 13 23 35 36 37 37 36 35 36 36 35 35 35 37 35
16 16 17 16 17 17 17 17 18 18 18 19 20 20 21 22
25 36 42 43 14 0 6 41 26 0 0 0 0 2 1 14
50 7 0 0 1 0 0 3 45 34 16 4 0 0 0 60
70 63 51 55 63 66 74 87 103 118 127 133 133 135 136 144
144 134 129 114 94 89 73 60 11 14 30 23 20 9 19 27
28 28 29 29 33 33 33 33 34 34 34 34 33 11 4 5
4 4 4 3 4 2 2 24 33 35 34 26 7 8 9 8
8 8 24 36 36 37 35 36 35 35 36 35 34 34 36 35
0 0 0 0 0 0 0 0 0 0 0 0 0 0 0 0
5 43 46 43 19 0 4 38 28 6 5 3 3 12 12 16
49 28 18 17 21 19 20 22 48 36 37 35 8 0 0 62
76 73 58 48 54 59 58 68 84 98 110 116 122 127 123 129
127 116 108 91 77 68 61 72 13 26 32 24 21 9 18 27
28 28 29 30 33 34 34 34 35 36 35 35 33 12 4 4
1 0 4 4 4 1 2 24 35 36 34 26 7 8 7 7
10 7 17 28 37 36 36 36 36 36 37 35 35 35 34 35
0 0 0 0 0 0 0 0 0 0 0 0 0 0 0 0
4 45 47 42 23 0 0 33 44 45 40 37 39 42 42 46
44 58 58 52 53 56 56 57 58 38 36 44 30 3 0 61
79 78 65 52 48 47 47 50 63 77 92 106 108 114 111 109
105 96 87 63 58 58 68 82 21 30 32 24 22 9 17 26
27 27 29 29 33 33 33 34 34 35 35 34 31 12 4 4
3 6 8 4 4 1 1 23 33 35 34 27 6 6 1 0
1 1 2 0 34 36 35 36 35 35 36 35 35 35 35 35
0 1 1 1 2 1 1 0 0 0 0 0 0 0 0 0
2 43 48 42 25 0 0 29 47 48 41 41 43 41 34 36
37 53 60 57 56 54 59 59 58 43 31 40 39 13 0 58
81 78 68 55 51 49 46 45 45 53 70 80 93 96 90 88
86 71 56 53 54 62 82 88 29 32 31 24 22 8 14 24
26 26 27 29 32 33 32 33 35 36 36 34 29 13 4 4
3 5 4 3 4 1 2 23 34 35 34 27 6 7 8 2
6 4 4 0 33 35 36 36 35 35 36 34 35 35 34 34
1 1 1 2 2 1 2 1 1 0 0 0 0 0 0 0
0 41 48 41 29 0 0 25 48 43 37 39 42 42 38 35
37 36 39 40 40 39 39 37 39 37 28 29 34 22 0 53
86 83 79 70 57 50 43 42 39 39 43 46 61 66 58 54
50 44 48 53 65 79 95 91 31 31 29 23 21 9 12 24
26 27 28 28 31 32 33 34 34 35 36 33 29 14 4 4
0 0 4 4 4 1 1 22 33 35 34 28 6 7 7 2
2 0 0 0 33 35 35 35 34 34 35 34 35 34 34 35
1 1 2 2 2 2 2 1 1 1 0 0 0 0 0 0
0 40 49 41 31 1 0 22 45 27 33 31 33 40 38 35
40 29 25 27 27 27 27 28 29 33 33 35 37 30 9 53
86 88 86 78 65 54 50 45 40 38 36 35 34 32 30 34
37 48 62 74 87 98 104 92 32 31 31 27 21 14 15 24
26 25 26 27 29 31 32 33 35 35 35 31 29 14 4 3
1 2 4 3 5 1 1 21 33 35 34 27 5 6 5 7
7 2 0 0 32 35 33 34 35 35 36 35 34 35 35 34
1 1 1 2 2 2 1 1 0 0 0 0 0 0 0 0
0 37 50 41 33 4 13 31 45 11 11 14 16 19 20 20
37 33 31 32 32 41 40 37 36 41 42 43 49 48 37 58
87 92 90 87 79 68 63 57 58 61 61 64 71 80 91 90
92 91 82 90 103 109 107 90 49 51 49 48 45 45 43 42
40 38 36 32 28 29 31 33 34 34 34 30 29 14 3 3
3 3 3 3 5 2 1 19 33 34 34 27 6 3 2 4
0 0 0 0 23 10 7 5 24 35 35 33 35 34 34 34
1 1 1 1 1 2 1 1 0 0 0 0 0 0 0 0
0 32 50 41 38 33 41 45 47 4 0 0 0 0 4 9
36 36 46 50 38 54 61 36 28 29 31 32 36 45 50 63
86 92 95 94 90 84 78 79 85 101 108 118 116 120 123 122
115 110 106 113 118 118 110 87 54 55 52 50 47 46 46 43
42 40 38 37 28 27 30 33 34 34 33 30 29 15 3 3
3 2 2 2 3 1 0 18 32 33 33 28 5 1 38 49
6 0 0 0 13 30 34 30 4 32 35 34 34 33 34 33
1 1 1 1 1 1 1 0 0 0 0 0 0 0 0 0
0 28 49 39 39 49 52 54 50 4 0 0 0 0 0 5
41 34 45 49 29 45 53 17 0 0 0 0 1 27 51 66
86 96 104 109 109 105 97 100 107 119 126 131 126 127 135 132
119 116 116 123 127 122 110 83 52 54 50 50 47 47 46 44
41 39 39 37 29 24 28 31 33 33 33 30 28 16 2 2
2 2 2 2 3 1 0 18 32 33 33 30 16 12 39 41
15 0 0 14 34 34 34 34 16 22 34 34 34 33 34 33
1 2 2 1 2 2 1 1 0 0 0 0 0 0 0 0
0 26 50 40 38 51 54 57 55 10 0 0 0 0 0 1
42 33 43 45 3 5 27 18 0 0 0 0 0 24 42 66
84 99 111 119 121 119 112 106 110 119 130 135 136 137 139 132
122 120 124 130 132 124 112 79 63 54 50 51 49 48 46 44
39 39 38 37 30 22 28 31 33 34 33 31 30 16 2 2
2 2 2 1 2 1 0 17 32 33 34 33 33 16 16 6
7 0 0 15 35 34 35 34 19 17 34 32 32 33 33 33
1 1 2 2 2 2 1 1 0 0 0 0 0 0 0 0
0 22 50 40 38 36 34 33 29 4 0 0 0 0 0 2
43 33 43 45 3 3 23 20 0 0 0 0 0 16 29 70
85 100 113 120 126 124 115 112 114 116 119 133 143 147 141 129
125 125 131 135 134 127 113 77 75 55 50 49 50 47 44 43
42 39 39 37 33 18 27 30 32 32 32 31 29 18 3 3
2 2 2 2 3 1 0 15 31 30 34 34 33 19 1 0
0 0 3 15 37 36 36 35 20 19 35 35 34 34 33 33
1 1 1 1 2 2 2 1 1 0 0 0 0 0 0 0
0 19 49 40 37 19 15 17 14 0 0 0 0 0 0 3
43 32 44 45 3 2 21 23 0 0 0 0 0 33 30 76
88 100 114 122 125 127 123 117 119 122 123 130 141 142 136 130
130 131 138 142 134 127 112 56 82 63 50 50 50 47 43 41
42 38 38 37 35 16 25 27 30 31 32 32 30 19 2 3
2 2 2 2 2 1 0 16 33 34 34 22 5 17 1 0
0 0 0 9 34 33 34 33 13 25 34 34 34 33 34 32
2 1 1 2 2 1 0 0 0 0 0 0 0 0 0 0
0 15 49 40 36 22 17 19 13 0 0 0 0 0 0 4
43 31 44 45 2 3 20 24 0 0 0 0 5 59 33 76
91 101 113 121 128 131 129 123 124 125 128 129 133 139 137 136
138 141 146 144 136 128 90 53 93 80 65 50 50 47 44 43
42 38 39 37 35 18 23 28 31 32 32 31 28 19 5 4
3 2 2 2 2 0 5 20 31 32 33 20 35 50 16 0
0 0 0 10 34 34 33 28 7 33 32 33 34 33 33 33
1 1 1 1 2 1 1 0 1 0 0 0 0 0 0 0
0 13 48 40 36 25 20 22 15 0 0 0 0 3 0 1
41 31 45 44 2 4 18 24 3 0 0 3 31 74 27 59
92 101 114 122 128 135 138 130 127 129 133 135 138 141 142 141
142 142 145 145 138 126 51 59 77 85 89 50 49 47 44 42
42 39 37 36 35 19 21 27 29 30 32 30 29 27 24 22
16 14 13 7 3 4 13 19 23 23 21 12 27 25 10 0
0 0 0 3 13 13 16 6 24 16 10 20 34 33 33 33
1 1 0 1 1 1 1 0 0 0 0 0 0 0 0 0
0 13 49 39 35 28 25 24 16 0 4 0 0 7 2 0
40 32 45 44 14 6 16 26 8 4 2 16 63 75 36 36
92 101 113 122 129 135 140 139 134 132 135 140 141 146 146 145
145 146 147 145 141 100 32 66 91 87 95 59 51 46 45 41
41 40 39 38 35 25 18 26 28 30 31 30 29 27 27 25
12 3 2 0 0 0 0 0 0 0 0 0 0 0 0 0
0 0 0 0 0 0 0 1 12 7 8 16 35 35 34 34
1 0 0 1 1 1 0 0 0 0 0 0 0 0 0 0
0 11 48 40 35 29 25 26 18 3 9 0 0 11 18 2
39 33 47 42 21 13 15 25 4 11 12 48 70 62 45 22
72 101 113 121 130 138 143 143 139 139 142 146 148 148 150 148
147 149 149 145 129 54 42 70 94 95 99 72 47 55 46 42
42 40 38 37 33 28 16 25 27 30 31 30 29 28 27 25
10 0 1 5 7 8 9 10 12 13 14 14 16 16 18 19
21 23 24 23 14 0 0 25 7 4 33 31 35 35 34 39
1 0 0 0 0 0 0 0 0 0 0 0 0 0 0 0
0 10 47 40 35 29 26 26 23 5 11 6 5 15 21 14
39 37 47 40 16 25 14 22 2 11 18 71 71 71 72 19
41 97 113 121 130 139 143 145 143 142 146 145 147 149 150 150
150 150 150 146 92 40 60 68 88 98 99 79 40 54 53 65
49 39 37 36 33 30 13 24 26 29 29 29 28 27 27 26
10 0 8 20 23 24 26 27 27 27 27 27 27 28 29 29
30 31 30 27 17 0 0 8 4 0 3 2 4 2 7 53
0 0 0 0 0 0 0 0 0 0 0 0 0 0 0 0
0 8 46 40 35 30 27 25 36 41 46 47 47 48 49 50
56 43 46 37 6 29 15 31 24 27 47 78 72 66 80 25
28 69 111 120 128 138 145 148 146 145 146 147 150 151 151 150
150 150 149 124 54 43 71 72 78 98 105 95 65 42 38 71
78 62 39 37 34 32 13 23 25 27 28 28 25 7 4 4
4 0 10 20 24 26 27 28 28 29 30 29 30 30 32 32
33 33 32 28 17 0 0 0 0 0 0 0 0 0 6 53
1 0 1 0 0 0 0 0 0 0 0 0 0 0 0 0
0 8 48 41 36 31 28 27 36 53 53 53 53 53 54 55
60 55 45 37 1 14 15 32 32 41 61 79 74 55 77 40
26 40 98 121 127 138 147 150 150 148 148 149 149 151 151 151
151 151 144 82 49 52 77 80 87 100 110 104 79 79 32 55
86 91 69 38 35 31 15 21 24 27 28 28 25 0 0 0
0 1 10 20 25 27 29 30 31 31 31 31 31 32 33 34
35 34 33 30 19 0 0 0 0 0 0 0 0 0 7 49
0 0 0 0 0 0 0 0 0 0 0 0 0 0 0 0
0 7 47 41 34 30 28 27 29 53 51 51 49 48 48 47
49 48 42 37 0 6 11 45 45 43 69 78 77 59 89 59
27 33 68 118 127 137 146 150 151 151 150 149 150 151 151 151
151 150 112 55 50 71 77 84 88 102 112 107 72 75 73 57
75 83 86 73 40 29 29 35 29 25 27 27 24 0 0 0
0 2 11 20 24 27 29 30 32 32 32 32 33 34 35 36
36 35 33 31 19 0 0 0 0 0 0 0 0 33 47 47
0 0 0 0 0 0 0 0 0 0 0 0 0 0 0 0
0 7 46 41 35 30 28 27 19 18 16 15 14 15 16 16
19 20 38 38 0 6 34 45 44 63 69 80 79 60 84 67
46 33 53 102 126 132 146 152 152 151 150 150 150 150 151 150
151 136 74 51 60 77 81 88 80 103 114 110 82 97 75 91
58 61 82 91 66 9 5 22 39 48 48 33 27 15 4 0
0 2 12 21 24 27 29 31 31 32 33 33 33 35 36 36
37 36 34 33 20 0 0 0 0 0 0 0 0 40 45 44
0 0 0 0 0 0 0 0 0 0 0 0 0 0 0 0
0 6 46 40 34 30 29 27 21 17 15 15 15 15 16 17
20 19 39 39 3 29 47 28 52 53 66 80 81 67 62 69
77 38 51 81 114 132 143 151 152 152 151 151 151 151 151 151
144 98 59 51 69 76 53 62 84 103 109 106 80 102 87 94
106 39 65 95 95 82 62 54 59 59 45 59 67 54 37 14
0 2 13 20 24 26 29 30 31 33 33 34 35 36 38 37
38 37 36 34 20 0 0 0 0 0 0 0 0 41 42 42
0 0 0 0 0 0 0 0 0 0 0 0 0 0 0 0
0 5 44 40 33 30 27 27 26 22 21 19 18 17 18 17
21 21 41 41 26 50 32 16 58 61 64 78 81 72 78 86
84 59 49 81 96 121 140 149 151 151 151 151 150 151 150 143
110 73 58 68 87 83 33 9 92 103 110 107 75 79 83 99
108 72 35 82 97 93 94 90 84 85 81 39 43 75 68 67
45 26 17 20 23 25 28 28 29 32 33 34 35 36 37 37
36 36 36 34 19 0 0 0 0 0 0 0 2 38 38 37
0 0 0 0 0 0 0 0 0 0 0 0 0 0 0 0
0 5 45 40 33 29 27 27 27 24 24 23 23 23 23 22
23 23 44 48 59 44 17 38 51 64 64 81 79 78 68 88
82 80 62 83 99 99 125 146 151 151 151 151 151 150 148 119
91 72 68 86 80 89 9 0 48 105 111 113 87 98 82 106
109 89 46 51 90 93 92 93 92 86 83 73 35 57 77 73
73 66 66 52 45 41 37 30 29 31 32 33 35 36 37 36
36 36 37 35 20 0 0 7 22 7 0 0 5 37 36 36
0 0 0 0 0 0 0 0 0 0 0 0 0 0 1 2
3 12 47 40 32 29 27 27 26 24 23 23 23 22 23 23
23 30 40 63 66 41 21 63 52 58 62 73 78 80 64 82
26 31 76 82 106 101 100 131 150 151 151 150 151 149 130 103
90 80 91 85 76 20 0 0 27 108 108 108 85 104 86 107
108 93 87 47 76 93 89 89 91 86 82 82 72 32 76 73
70 74 66 66 66 65 64 65 59 48 34 33 34 35 36 36
36 36 36 36 19 0 0 10 26 7 0 0 7 36 36 35
12 13 14 17 19 19 21 24 25 26 28 29 30 31 33 33
33 34 35 34 33 29 26 25 31 37 32 26 23 23 26 40
55 57 51 79 65 35 31 66 61 46 60 61 81 82 69 41
0 5 57 95 110 108 100 105 140 150 150 150 149 135 110 99
100 98 107 104 28 1 0 0 3 91 109 112 89 98 87 110
109 101 74 63 71 85 91 87 88 86 85 86 84 59 41 85
77 72 74 73 70 69 65 63 63 54 42 32 34 34 35 35
35 36 36 36 20 0 0 0 0 0 0 0 9 36 35 35
43 42 32 20 22 26 21 18 30 38 38 37 36 35 35 34
33 33 34 34 33 29 34 42 42 30 31 35 32 32 43 53
60 59 75 82 60 26 51 62 70 44 59 62 78 83 83 22
0 7 46 85 101 107 103 103 118 142 150 149 134 112 105 108
92 103 100 96 38 31 0 0 1 52 115 117 86 88 89 110
109 106 80 89 59 83 87 89 87 88 88 88 88 83 39 69
72 71 77 73 70 67 71 63 63 57 50 31 32 34 34 35
35 36 36 36 19 0 0 0 0 0 0 0 13 36 35 34
42 17 21 36 40 40 39 36 22 18 35 37 36 36 36 35
35 33 33 34 34 39 45 44 33 20 40 60 62 59 53 58
69 69 78 74 54 42 48 42 59 22 42 74 65 86 89 20
2 7 53 62 84 101 102 108 112 121 133 123 106 104 105 71
61 100 109 93 58 73 17 11 27 39 97 114 88 115 94 112
112 109 84 113 47 71 82 93 87 88 91 87 86 87 67 34
85 74 71 25 46 61 64 67 63 62 61 32 31 33 33 34
35 35 35 35 18 0 0 0 0 0 0 0 15 36 34 34
13 35 42 42 41 40 40 39 38 33 17 32 36 35 35 33
32 31 30 32 41 44 52 44 14 32 55 59 61 64 60 64
64 74 66 46 54 49 43 39 48 17 36 57 58 85 85 16
0 0 47 87 72 100 103 111 115 100 84 92 100 111 109 83
100 111 110 87 84 93 48 43 52 45 58 94 93 117 91 112
113 111 81 114 68 49 77 89 89 84 89 88 86 88 83 31
63 78 61 18 32 44 69 72 76 69 64 31 31 32 33 34
35 35 35 36 17 0 0 0 0 0 0 0 14 35 34 34
38 39 38 37 35 33 32 30 28 24 17 10 15 12 8 8
10 13 19 38 42 44 53 44 17 38 62 61 63 67 66 63
64 75 55 43 39 43 35 51 47 18 51 63 65 77 87 20
0 3 17 80 83 73 96 106 112 63 48 78 101 118 112 100
116 113 115 95 100 110 82 91 76 53 56 28 73 97 102 113
113 114 84 101 77 64 57 82 93 85 86 85 83 87 86 51
37 87 67 23 34 44 72 81 81 75 63 30 32 33 33 34
35 35 36 36 17 0 0 0 0 0 0 0 4 32 34 33
9 14 21 24 24 24 24 23 18 9 8 7 0 1 2 5
7 7 39 42 44 44 52 48 16 36 64 62 64 68 66 56
71 66 53 68 61 59 47 70 28 13 66 60 74 68 90 11
1 13 46 47 82 79 62 78 71 92 50 45 95 123 110 95
118 130 104 110 89 101 90 113 110 97 85 35 33 64 99 113
113 118 86 76 75 84 79 65 84 89 85 85 82 82 87 67
30 68 71 27 31 47 73 84 83 78 64 33 32 33 34 35
36 36 37 39 17 0 0 0 0 0 0 0 17 16 34 33
9 16 39 43 46 47 48 53 52 51 49 44 9 3 10 7
7 29 49 40 46 45 49 58 27 35 64 64 60 67 66 72
81 53 66 67 63 60 61 90 58 19 78 66 71 62 91 21
11 29 51 39 70 75 59 50 73 91 89 43 111 124 114 97
131 132 104 113 93 105 90 113 110 105 107 76 53 39 95 115
111 121 93 104 77 74 66 50 61 84 88 80 76 83 84 77
49 50 83 34 33 47 64 84 86 80 69 58 34 33 34 34
36 37 39 43 19 0 1 6 2 0 0 0 27 12 28 33
21 29 68 68 68 67 65 61 58 53 53 44 17 1 3 8
19 44 52 40 45 47 47 67 47 48 64 65 62 64 68 73
72 45 31 40 49 48 69 93 93 46 86 84 59 72 91 69
56 59 84 73 92 100 73 54 42 64 69 72 120 104 95 101
132 131 106 111 74 83 90 116 109 106 113 79 79 63 67 109
113 118 93 80 57 56 51 74 78 68 86 83 72 85 83 78
81 70 74 33 36 47 57 79 83 81 68 69 55 37 37 37
38 40 42 45 17 0 47 119 59 0 0 0 31 26 12 33
20 23 64 55 58 60 57 55 52 48 53 50 33 5 7 7
38 50 57 44 45 49 48 72 75 62 61 65 66 72 71 75
64 54 39 32 45 54 94 108 111 64 86 103 67 94 82 93
99 73 106 73 107 86 100 73 66 51 68 90 120 95 101 102
130 131 115 109 74 94 92 117 107 109 115 87 107 93 107 97
114 114 90 59 51 52 61 75 54 49 70 87 70 85 87 90
95 91 57 35 41 55 51 73 82 80 65 64 66 55 11 5
5 4 4 3 1 0 82 152 77 0 0 1 32 32 14 25
48 46 58 71 75 73 71 69 60 48 45 40 12 1 13 39
44 54 61 55 42 48 51 74 82 84 78 80 84 79 68 67
62 61 60 49 51 65 100 109 106 62 88 109 76 73 88 108
105 79 101 84 106 111 75 83 55 40 73 111 121 94 107 103
131 124 117 100 92 108 98 120 107 111 121 85 112 91 128 118
119 114 73 51 62 69 79 48 6 47 62 86 68 87 88 96
96 87 45 43 41 57 55 64 82 78 61 56 67 80 57 1
0 0 0 0 0 0 16 30 10 0 0 3 33 32 27 7
36 37 41 49 48 46 44 41 33 28 27 12 1 26 51 44
49 58 63 59 47 45 52 74 83 83 85 80 75 67 62 64
61 64 61 52 54 76 106 113 112 71 90 109 88 56 103 113
106 81 97 94 101 120 109 73 64 49 50 116 125 98 103 108
126 120 113 98 94 110 100 120 108 111 121 89 112 89 127 119
118 110 63 49 31 67 74 39 29 28 64 85 70 92 88 95
86 84 32 41 41 58 61 56 80 78 37 48 82 81 79 34
0 0 0 0 0 2 0 0 0 0 0 3 26 20 3 4
37 39 39 40 41 40 39 35 26 25 25 10 6 38 44 42
50 63 67 60 55 43 48 72 81 78 75 65 63 82 71 52
61 67 59 51 54 81 105 111 101 82 102 104 57 99 105 117
113 97 80 85 100 125 124 92 65 57 51 120 132 101 107 121
123 118 107 92 104 113 100 118 105 112 117 89 102 90 126 117
120 112 72 73 79 92 96 51 57 36 72 75 80 97 94 86
89 61 24 31 40 59 65 55 78 75 19 1 34 84 80 76
17 0 0 0 0 1 0 0 0 0 0 0 5 7 24 26
24 22 19 16 12 9 29 31 25 24 25 21 42 42 43 45
56 65 62 68 72 49 47 69 70 67 67 77 85 88 74 55
63 66 59 52 57 80 103 111 92 91 99 59 71 110 101 117
125 112 90 104 90 123 122 109 63 64 83 122 127 98 98 122
120 119 108 95 89 92 102 116 103 108 115 87 84 87 125 117
117 114 94 94 89 92 109 55 67 45 67 59 85 97 93 88
94 60 21 18 38 59 65 53 74 74 22 0 0 28 81 76
68 7 0 0 0 0 0 0 0 0 0 0 1 1 13 15
0 0 0 0 0 0 11 10 3 9 12 18 48 44 42 50
58 64 71 79 74 49 52 60 75 80 72 85 82 77 68 64
59 65 59 53 58 71 100 115 106 111 79 82 79 117 106 117
126 117 90 118 89 129 128 108 66 75 78 121 118 90 86 120
128 125 115 94 97 98 100 111 106 110 120 93 108 87 125 119
120 121 101 96 95 99 116 65 70 63 55 54 76 86 88 87
101 85 31 30 38 61 66 53 69 72 39 5 0 0 31 86
82 41 0 0 0 0 0 0 0 0 0 0 0 0 1 0
2 0 0 0 0 0 0 0 0 1 8 46 46 47 43 52
63 69 76 73 77 58 51 65 82 73 78 85 80 70 72 75
51 66 59 53 63 57 97 116 116 119 90 111 91 111 106 112
122 121 85 121 87 125 119 98 69 71 75 118 101 115 94 128
132 125 116 94 113 106 103 116 110 113 124 96 105 92 125 124
122 126 112 74 86 99 121 83 70 73 51 65 84 86 78 86
97 84 43 55 41 22 71 57 70 72 50 38 11 1 0 56
81 73 4 0 0 0 0 0 0 0 0 0 0 0 0 0
0 0 0 0 0 0 0 0 0 4 52 48 52 47 46 61
67 76 73 75 69 49 45 72 79 74 85 85 79 70 79 74
46 68 60 55 57 51 90 119 117 116 94 108 95 107 110 111
127 124 87 122 88 114 111 100 74 66 86 116 86 121 111 124
129 122 112 91 103 104 98 120 110 116 126 101 114 94 121 124
123 128 119 82 98 100 123 101 67 72 57 70 78 87 91 81
75 63 47 57 38 13 29 77 55 68 56 46 46 21 1 23
81 77 10 0 0 0 0 0 0 0 0 0 0 0 0 0
0 0 0 0 0 0 3 6 16 40 55 42 54 48 49 68
71 75 63 61 57 33 49 70 83 77 86 80 75 72 76 71
51 65 60 58 55 44 93 116 117 115 100 101 109 94 106 107
124 123 85 86 79 105 110 110 80 72 101 117 84 115 97 122
125 121 110 91 108 113 99 125 105 120 126 105 97 90 119 127
123 126 122 86 104 99 124 114 66 72 60 69 77 81 84 84
91 49 35 51 45 42 1 43 76 60 59 52 48 47 18 3
68 50 1 0 0 0 0 0 0 0 0 0 0 0 0 0
0 0 3 10 18 29 39 31 40 31 49 47 61 51 53 75
72 59 52 58 47 40 57 70 81 81 84 84 73 68 72 69
63 58 59 60 56 39 97 117 118 119 109 81 94 89 105 108
124 127 90 104 86 100 112 112 100 62 96 116 97 95 81 119
123 116 104 96 92 99 99 129 102 116 123 106 92 93 107 130
126 122 122 91 110 99 128 124 74 74 62 76 83 90 79 81
89 55 36 49 52 78 18 15 55 75 60 58 43 61 52 23
55 50 15 0 0 0 0 0 0 0 0 0 0 0 0 0
