P2
128 120
155
46 47 46 46 45 45 45 44 44 43 43 43 42 41 41 40
39 40 39 38 37 37 37 36 36 35 35 34 33 32 32 32
31 30 29 29 28 28 28 27 27 26 26 25 25 24 24 23
22 22 22 21 20 20 19 19 19 17 18 19 24 24 24 24
18 9 18 25 19 19 18 18 17 16 14 13 14 13 13 8
8 11 14 15 17 18 18 19 20 21 21 21 21 21 21 21
21 23 23 24 24 24 24 25 25 26 26 26 28 27 29 28
29 29 29 29 30 30 30 31 31 31 32 32 32 33 32 34
46 46 46 46 46 45 45 44 44 43 42 42 41 41 41 40
40 39 38 38 38 37 36 36 35 35 34 33 33 32 32 31
31 30 29 29 29 28 27 27 27 26 26 24 25 25 24 22
23 23 21 21 21 20 20 19 18 18 19 20 25 25 25 25
19 10 16 25 20 20 19 18 17 16 15 15 14 14 13 10
10 11 15 17 19 19 20 20 20 21 21 21 21 22 23 22
23 23 23 24 24 25 25 26 26 26 26 27 27 27 29 28
29 29 30 30 30 31 31 31 31 31 32 32 33 32 33 35
46 46 46 45 44 45 44 44 44 43 43 42 42 42 41 40
40 39 39 39 37 36 36 36 35 35 34 34 33 33 32 31
30 30 29 29 29 29 28 28 27 27 26 26 26 25 24 24
23 23 22 21 21 21 20 19 20 19 20 21 26 26 26 25
18 12 15 26 21 20 20 18 18 17 16 16 15 15 15 12
10 12 16 18 19 19 19 20 20 21 22 22 22 23 24 23
23 24 25 25 25 25 25 26 26 26 27 28 28 28 30 29
29 29 30 30 30 31 31 31 32 32 33 33 34 33 32 31
47 46 46 46 45 44 45 44 43 43 43 42 41 41 40 41
40 39 39 39 38 37 37 36 35 35 34 34 33 33 33 32
31 31 30 29 29 29 28 27 27 27 26 26 25 24 24 24
23 23 22 22 22 21 20 20 20 20 20 22 26 26 26 26
20 14 15 26 22 21 20 20 19 18 19 18 16 15 15 12
12 13 17 19 20 20 20 21 22 22 23 23 23 23 23 23
24 25 24 25 25 25 26 26 27 27 27 28 28 28 29 29
29 30 31 31 31 31 30 32 33 33 32 31 31 32 33 33
45 45 45 45 45 45 44 43 43 43 43 42 42 42 41 40
40 39 39 38 37 37 36 36 35 34 35 34 33 33 33 32
31 31 30 30 29 29 29 28 27 27 26 26 26 25 24 24
24 22 22 22 21 21 21 20 20 21 21 22 27 27 26 26
20 15 13 25 22 21 20 19 19 18 16 18 16 17 16 14
14 14 18 20 20 21 21 21 22 22 23 23 23 24 24 24
25 25 25 25 26 26 26 26 27 27 27 27 28 28 30 29
29 30 31 31 31 30 30 28 31 31 33 33 33 33 33 33
46 45 46 45 45 44 44 44 43 43 42 43 42 41 41 40
40 39 39 38 37 37 36 36 36 35 34 34 34 33 33 32
32 31 31 30 29 29 30 28 28 27 27 26 25 25 25 24
23 23 23 22 22 22 21 21 21 21 22 24 27 27 27 26
20 15 14 26 23 21 19 21 21 20 18 19 16 17 17 15
15 16 20 21 22 22 22 22 23 24 23 23 24 24 24 25
25 25 25 26 26 26 27 27 27 28 29 28 29 29 30 30
30 29 28 28 29 30 33 33 32 32 32 33 34 33 33 33
46 46 45 45 45 44 44 43 43 44 43 43 42 42 42 41
41 40 39 38 38 37 37 37 36 35 35 34 34 33 33 33
32 32 31 31 30 29 30 29 29 27 27 27 26 26 25 25
24 24 24 23 23 22 22 22 21 21 22 24 28 28 28 28
22 15 11 24 23 21 21 21 20 20 19 21 18 18 18 17
16 17 21 22 22 22 23 23 23 24 24 25 24 25 25 26
26 26 26 26 26 27 27 27 27 28 29 29 29 28 28 28
29 29 31 33 32 33 33 34 33 34 33 33 33 33 34 33
46 46 45 46 45 44 44 44 44 43 43 42 41 41 41 40
40 39 39 39 38 37 37 37 36 36 35 34 34 33 34 33
33 32 32 31 31 30 30 29 29 28 27 27 26 26 25 25
25 24 24 24 24 24 22 22 22 22 23 24 28 28 29 28
21 12 7 23 24 23 23 22 22 21 20 21 18 18 19 17
17 18 22 22 23 23 24 24 24 25 24 25 26 25 26 26
26 25 26 26 27 27 28 28 28 28 28 27 28 28 30 31
31 31 32 32 32 32 33 34 33 33 33 34 34 34 34 34
46 45 45 45 45 44 44 44 44 43 43 43 42 42 41 41
40 39 40 38 38 37 37 36 36 36 35 35 35 35 34 33
33 32 32 32 31 30 30 30 29 28 28 28 27 27 27 26
26 25 25 24 24 23 23 22 23 22 23 25 29 30 30 29
22 15 15 26 26 23 23 22 22 21 21 22 19 20 20 18
17 19 22 23 24 23 24 24 25 25 25 26 26 26 27 26
27 27 27 27 28 28 27 27 27 27 29 30 30 31 31 31
32 32 33 33 33 33 34 34 34 33 34 33 34 34 35 34
48 46 46 46 45 45 45 44 44 43 43 42 42 41 42 41
40 40 39 39 38 38 39 37 37 37 36 35 35 34 34 34
33 32 32 31 31 30 30 30 30 29 29 28 28 28 27 27
26 26 25 25 25 24 24 23 24 23 24 25 30 30 30 29
23 17 18 24 26 25 24 23 22 22 22 23 20 20 19 19
17 20 23 24 24 24 25 25 25 25 26 26 26 26 27 27
27 27 27 27 28 28 28 29 29 29 30 30 31 31 32 31
32 32 33 33 32 33 34 35 34 34 35 34 35 35 35 35
62 62 64 60 55 49 44 44 44 43 43 43 42 42 42 41
41 40 39 39 39 38 37 37 36 36 36 35 35 34 34 33
33 33 32 31 31 30 30 30 29 29 29 28 27 28 27 27
26 26 26 25 24 24 24 23 23 23 24 25 30 30 30 29
23 17 21 23 27 24 24 23 23 22 22 23 20 19 20 19
17 21 24 24 25 25 25 26 26 26 26 26 26 26 26 26
26 26 27 28 28 29 29 29 29 29 29 30 31 31 31 32
32 33 33 33 33 33 33 35 33 33 34 34 35 35 34 34
35 45 55 59 60 54 44 44 43 43 43 42 41 41 41 40
40 40 39 39 38 38 38 38 37 37 36 35 35 34 34 34
33 32 32 31 31 30 31 31 30 30 29 29 28 28 27 27
26 26 26 25 25 24 24 24 24 24 25 26 31 30 30 30
24 18 23 21 26 25 24 24 23 22 23 23 20 21 21 20
17 22 24 24 25 25 25 26 26 26 26 25 25 25 26 26
27 27 28 28 29 29 29 30 30 31 31 30 31 31 32 31
32 32 32 33 33 34 33 34 33 34 35 35 35 35 35 35
0 0 1 26 61 53 43 43 43 43 43 42 42 41 41 40
40 40 40 39 39 38 38 37 37 36 36 35 35 35 34 34
34 33 33 32 32 31 32 31 30 30 30 29 28 28 28 27
27 26 26 25 25 25 25 24 24 23 25 26 31 31 31 31
24 20 25 20 27 25 25 24 23 22 23 24 20 21 21 21
18 22 24 26 26 25 25 25 25 25 26 26 27 27 28 28
27 28 28 29 29 29 30 30 29 30 30 30 31 31 31 31
32 33 33 34 33 34 34 35 35 35 34 34 34 35 35 35
0 0 0 22 60 54 44 44 43 43 43 43 42 41 41 41
40 39 39 39 39 39 38 38 37 37 37 36 36 35 34 34
34 33 33 32 32 32 32 31 31 30 30 29 29 29 28 27
27 26 26 26 25 25 25 24 25 25 25 26 31 32 32 31
24 20 26 19 27 25 26 25 24 23 23 25 21 22 21 21
19 23 24 25 25 25 26 26 27 26 28 28 27 27 27 28
28 28 28 28 29 29 30 30 30 31 31 31 32 32 31 31
32 32 33 32 33 33 34 35 34 34 35 35 35 35 35 34
0 0 0 22 61 53 43 43 43 42 42 42 42 41 42 41
40 40 40 39 39 38 38 37 37 36 36 35 35 34 34 34
33 33 34 33 32 31 31 31 31 30 29 29 29 28 28 28
27 27 26 26 26 25 25 25 24 25 25 26 32 31 31 31
25 20 27 18 27 26 25 25 24 23 23 25 21 22 22 21
17 21 24 26 26 26 27 27 28 27 27 28 27 27 27 28
28 28 28 29 30 30 30 30 31 30 31 31 31 31 31 32
32 33 33 34 34 34 35 35 34 35 35 34 35 34 33 33
0 0 0 22 59 52 43 44 43 43 42 42 42 41 41 41
40 40 39 39 38 38 38 38 37 36 37 36 35 35 35 33
34 33 32 33 31 32 31 31 31 30 31 29 30 29 28 28
27 27 26 26 25 25 25 25 25 25 26 27 33 32 32 32
25 19 28 18 27 26 25 25 24 24 24 26 22 23 22 22
19 24 25 26 26 26 26 27 27 27 27 27 28 28 28 28
29 29 28 30 29 30 30 30 30 30 30 31 31 32 32 32
32 32 33 34 33 34 33 34 34 33 32 33 33 34 35 35
2 0 0 23 59 52 43 43 43 43 43 41 41 41 41 41
41 40 39 39 39 39 38 37 37 37 36 35 35 35 34 34
34 33 33 33 32 32 31 31 30 30 30 29 30 29 29 28
28 27 27 26 26 25 25 25 25 25 26 27 32 32 33 31
25 21 29 20 27 26 26 25 24 23 24 26 21 22 22 21
18 24 25 26 26 27 27 28 27 27 28 28 28 27 28 28
28 29 29 30 30 30 30 30 31 31 31 31 30 30 32 32
33 33 33 33 33 32 32 32 33 35 34 35 34 34 34 35
6 0 0 25 58 50 43 43 43 43 43 42 42 42 41 41
40 40 39 39 39 38 38 38 38 37 36 36 36 35 35 34
34 33 33 33 32 32 32 32 32 31 31 29 30 29 27 27
27 27 27 26 26 26 26 25 26 26 26 28 33 32 32 32
25 20 29 20 27 25 26 26 25 24 24 26 23 23 23 22
19 24 24 26 26 27 27 27 28 28 28 27 28 29 29 29
29 29 30 30 30 30 30 31 31 31 31 32 32 32 33 33
31 32 33 33 34 34 34 34 34 34 34 34 34 35 35 35
14 0 0 25 57 49 43 43 43 42 42 42 43 41 41 41
40 40 40 39 39 38 37 37 36 37 36 36 36 35 35 35
35 34 34 34 33 32 31 31 31 31 31 28 28 27 25 26
28 27 27 27 27 25 26 26 26 26 26 28 33 32 33 32
25 21 30 21 27 25 27 26 25 25 24 25 22 23 23 22
18 25 25 27 27 27 28 28 29 27 28 28 29 28 28 28
28 29 30 31 30 31 31 32 32 31 31 30 31 31 31 33
34 34 34 35 34 34 35 34 35 35 35 35 34 35 34 34
10 1 0 26 57 49 43 43 43 43 43 43 43 41 41 41
41 40 39 39 39 38 38 38 37 37 37 36 36 36 35 34
34 34 33 33 32 32 32 31 31 31 29 26 25 23 22 18
20 21 24 26 26 26 25 26 27 26 27 28 33 33 34 33
26 21 29 24 25 27 27 26 26 25 25 25 23 23 23 22
19 25 25 27 27 28 28 28 29 29 29 29 29 29 30 30
30 30 30 30 31 31 30 30 30 30 31 33 32 32 33 34
34 34 34 34 34 35 35 34 35 35 35 34 35 35 35 35
9 10 9 28 57 49 43 43 43 42 42 42 41 41 41 40
40 40 39 39 39 39 38 38 38 37 36 36 36 35 35 35
35 34 34 33 33 32 29 27 27 24 18 12 7 6 7 11
8 10 14 16 16 19 23 24 27 26 27 28 33 34 33 33
27 21 30 27 24 28 27 26 26 25 24 23 23 23 24 23
20 25 25 28 28 29 29 29 29 28 29 29 29 29 30 30
30 29 30 30 30 31 32 32 31 32 31 32 32 32 33 34
33 34 34 34 35 35 35 36 35 35 35 35 35 35 35 34
11 7 18 40 57 49 43 43 43 43 42 42 42 42 40 41
40 40 40 39 38 38 38 38 38 37 37 36 36 36 35 35
34 34 34 33 32 29 29 28 22 11 6 2 0 0 0 1
7 1 1 3 5 2 3 9 19 27 27 28 34 35 35 33
27 21 30 28 22 28 27 27 26 25 25 24 24 24 23 23
19 26 25 28 28 28 29 29 30 29 30 30 30 30 29 30
30 30 30 31 31 31 31 31 31 32 32 33 33 33 33 34
34 34 34 35 35 34 35 34 35 35 35 35 34 35 35 35
49 47 42 47 54 47 44 43 43 43 43 42 42 41 41 41
41 40 40 40 40 39 38 38 37 37 37 36 36 36 36 34
35 34 34 32 31 28 26 15 4 0 1 0 0 0 0 0
1 4 0 0 1 4 1 2 2 10 24 29 34 34 34 33
28 21 30 31 21 28 28 27 27 26 25 24 24 24 25 24
20 27 25 29 29 30 29 29 29 29 29 29 28 29 29 29
30 30 31 31 31 31 32 32 31 33 33 33 33 33 33 34
34 33 34 35 35 34 35 35 34 34 35 35 35 35 34 34
41 43 44 45 46 44 43 43 44 43 43 42 42 42 41 40
41 40 40 40 39 39 38 38 38 37 37 37 36 36 36 35
34 34 32 30 27 22 17 1 0 0 0 0 0 0 0 0
0 0 1 2 0 3 2 1 0 1 5 20 28 34 35 34
28 20 30 33 21 29 27 27 27 26 26 24 25 25 25 25
21 28 26 29 29 28 28 29 28 29 29 29 30 31 30 30
31 31 31 32 31 32 31 32 32 32 33 33 33 34 34 35
34 34 35 35 34 35 35 35 35 35 35 35 35 35 35 35
28 31 37 41 46 46 44 44 43 43 43 42 42 41 42 41
41 41 41 40 39 39 39 38 38 38 37 37 37 36 34 33
34 33 28 26 14 10 3 0 0 0 0 0 0 0 0 1
2 2 1 1 4 2 4 5 1 0 2 3 17 23 32 34
28 20 31 34 20 29 28 28 28 27 26 24 25 25 25 24
21 27 24 28 29 29 29 30 30 30 30 30 29 30 30 31
31 31 31 32 32 32 33 33 33 33 34 34 34 34 34 35
35 34 35 35 35 35 35 35 35 35 35 35 35 36 35 36
19 18 18 20 22 27 32 37 42 44 44 43 44 43 42 41
41 40 40 40 39 38 39 38 38 38 37 37 37 36 32 34
33 29 22 11 0 0 0 0 0 0 0 0 1 1 0 1
5 5 11 8 7 3 3 5 2 2 0 2 4 7 23 34
30 21 31 35 21 28 29 28 27 27 26 26 26 25 25 25
20 27 25 29 30 29 29 30 30 30 30 30 30 31 32 31
32 31 32 32 32 32 32 33 33 33 33 34 34 35 34 35
35 35 35 35 35 34 35 34 35 35 35 35 36 36 36 35
19 19 19 20 19 19 20 20 18 21 26 30 35 40 42 42
41 40 40 40 40 39 39 38 39 37 37 37 37 35 32 32
30 20 8 1 0 0 0 0 0 0 0 0 0 0 0 0
1 5 7 12 8 6 4 6 8 3 1 1 3 1 4 18
28 21 30 35 23 29 30 29 29 28 27 25 27 26 25 25
22 28 27 30 30 30 30 30 30 30 31 31 30 30 31 31
32 31 32 32 32 33 34 33 34 34 34 34 34 34 34 35
35 35 35 35 36 36 36 36 35 35 35 34 32 32 33 34
31 26 22 20 19 18 18 19 19 19 19 19 14 17 21 33
42 41 40 39 39 38 39 38 38 38 38 37 36 33 31 31
20 7 1 0 0 0 0 0 0 0 0 0 0 0 0 0
0 0 6 12 10 6 1 7 13 9 5 1 5 5 7 7
17 22 30 37 25 27 30 29 28 27 27 26 27 25 26 26
23 29 26 30 30 30 30 30 31 30 31 31 31 32 32 32
33 32 32 32 32 32 32 33 33 33 34 34 35 34 35 35
35 35 35 35 36 36 34 33 33 33 34 34 36 36 35 34
59 56 54 35 24 25 19 18 18 18 19 20 12 8 16 30
41 40 40 40 40 39 39 38 38 38 38 37 36 33 28 23
7 2 0 0 0 0 0 0 1 1 0 0 0 1 0 0
7 5 6 7 6 9 13 11 7 8 13 10 4 8 5 3
2 13 30 36 26 26 29 29 28 28 27 27 27 26 26 26
22 28 25 29 30 30 30 30 31 31 31 32 31 31 31 31
32 32 32 33 33 33 34 33 34 33 34 34 35 35 35 34
34 34 33 34 34 34 35 35 36 34 35 34 35 35 34 35
61 60 58 41 35 40 46 42 32 27 21 18 16 16 18 29
41 40 40 40 39 38 36 37 39 38 37 37 36 33 24 10
4 3 0 0 1 0 0 0 0 3 4 1 1 2 2 3
4 5 6 2 3 4 5 5 8 7 7 8 10 6 6 4
0 2 25 38 27 23 30 29 29 28 27 26 27 26 26 26
23 28 25 30 30 30 30 31 31 30 31 31 31 31 32 32
33 33 33 33 33 32 33 33 33 34 33 33 33 32 33 34
33 34 34 34 34 33 34 34 35 33 34 33 33 34 34 35
60 61 61 43 43 46 50 50 41 52 51 48 31 14 17 28
41 40 40 40 39 38 45 48 46 44 40 38 36 32 20 2
0 0 0 0 0 0 0 0 2 4 4 7 12 10 6 9
8 1 3 1 5 5 2 3 3 2 8 8 7 11 9 6
4 1 7 32 30 22 30 29 29 29 28 27 27 26 26 25
23 27 25 30 30 29 30 31 31 32 31 32 32 31 31 32
33 32 32 32 32 33 32 33 33 33 34 33 34 34 33 33
34 33 33 34 33 33 33 33 36 35 34 34 34 34 34 35
36 45 55 46 46 48 52 53 51 56 56 56 40 16 19 31
42 42 41 40 39 39 47 50 49 48 43 42 39 32 17 1
0 0 0 0 0 1 2 3 1 1 1 0 3 8 10 8
7 3 1 0 0 0 2 4 7 12 7 10 10 12 9 9
6 3 1 16 31 19 30 29 29 28 27 27 27 26 26 26
24 28 26 30 30 31 31 31 31 32 31 31 32 32 32 32
33 32 31 31 32 33 34 33 33 31 33 34 34 33 34 34
34 33 33 33 34 34 34 33 35 34 34 34 34 34 34 34
7 0 30 48 47 50 53 52 55 57 57 57 44 16 19 36
44 42 43 41 40 39 48 52 49 45 42 42 37 27 6 0
0 0 0 0 0 0 0 0 2 2 0 0 2 3 7 2
1 3 3 3 0 0 0 0 0 2 6 7 13 11 8 12
10 4 3 2 21 18 31 30 29 28 28 28 27 26 26 26
24 28 25 30 31 30 30 31 31 32 32 31 31 31 30 31
32 32 33 33 32 32 33 34 35 33 34 34 34 34 33 33
34 33 32 33 34 34 34 33 35 34 35 34 35 35 34 34
18 7 35 47 47 49 47 52 54 55 56 56 47 17 20 39
47 44 44 43 43 41 46 39 44 45 43 43 31 9 0 0
0 0 0 0 3 8 10 3 7 7 1 0 1 2 0 0
0 0 2 5 3 2 2 2 0 3 4 8 13 20 17 9
12 7 6 0 7 17 30 30 29 28 28 28 27 26 27 27
25 28 26 32 32 31 31 31 31 30 31 30 31 31 32 32
32 32 33 33 32 33 33 33 35 33 33 34 34 34 34 33
33 34 33 33 33 34 34 34 36 35 34 34 34 33 34 33
21 12 39 43 17 28 37 48 55 56 55 53 45 18 20 38
49 39 38 43 47 48 51 3 1 13 30 29 21 6 0 0
0 0 1 8 10 16 22 21 12 11 6 0 0 0 0 0
0 1 1 6 6 3 4 3 2 4 3 8 16 19 21 9
9 4 4 4 0 11 26 30 30 27 29 29 28 27 28 27
25 28 26 31 30 31 31 31 32 32 33 32 32 32 32 32
32 32 33 32 33 33 33 34 35 34 34 34 34 34 34 35
34 34 34 34 35 34 34 34 36 36 35 34 35 34 35 34
16 12 41 41 1 1 5 8 13 24 25 38 48 19 21 38
50 47 45 39 46 52 54 4 0 1 10 12 5 0 0 0
0 0 4 16 23 18 20 27 32 20 13 2 0 0 0 2
8 4 3 3 3 5 9 3 3 5 8 11 10 11 14 20
16 15 5 2 2 4 25 28 30 28 29 30 28 28 29 28
27 29 26 32 32 32 33 32 33 33 32 33 33 33 32 33
33 33 34 34 35 34 34 34 36 34 35 34 35 34 34 35
35 35 35 35 35 35 35 36 36 36 35 34 35 35 34 34
0 0 42 40 0 0 0 0 0 0 0 14 49 20 21 11
16 26 39 48 53 54 55 4 0 4 5 0 1 0 0 0
1 8 16 19 31 42 50 41 34 26 17 10 3 3 5 9
4 2 1 0 2 5 6 2 3 7 5 3 5 8 21 20
20 19 14 1 5 3 17 29 31 31 30 31 29 29 29 28
27 29 28 33 33 33 33 33 34 34 33 34 34 34 34 34
34 34 35 35 35 34 34 35 37 36 35 35 35 35 35 35
36 35 35 35 35 36 36 35 37 36 36 36 36 36 36 36
0 0 44 39 3 5 0 1 0 0 0 16 49 20 21 5
0 0 0 3 11 22 39 8 0 3 3 1 2 2 0 0
4 10 22 44 54 54 65 71 57 48 28 10 2 4 2 1
0 0 2 3 4 9 11 6 1 3 6 7 10 10 11 22
21 19 12 2 4 4 9 29 31 31 31 32 30 30 30 29
29 30 29 34 34 34 35 34 35 34 34 35 34 34 34 34
35 35 35 35 35 36 36 36 37 35 36 36 36 36 36 36
37 37 36 36 37 37 37 36 37 37 36 36 35 36 36 36
0 0 44 37 2 7 1 28 3 0 0 15 51 20 21 4
0 0 0 0 0 0 17 8 0 1 0 0 1 0 3 0
4 14 13 34 57 64 82 84 72 55 41 17 5 1 0 0
0 0 2 6 6 6 9 10 3 2 0 2 11 23 24 15
12 16 14 11 5 6 5 24 31 31 32 31 30 30 30 29
28 28 28 33 34 34 33 33 34 34 34 34 35 34 34 34
35 35 35 36 35 36 35 35 36 35 36 36 36 37 37 37
37 37 36 36 36 37 36 36 37 35 38 37 37 38 38 37
4 0 44 37 3 8 1 15 22 0 0 15 49 20 22 4
0 0 0 0 0 0 14 7 0 1 0 0 4 0 1 2
3 12 14 9 20 33 43 53 63 56 46 18 6 2 1 0
0 1 3 5 8 5 6 2 3 7 7 5 6 6 13 18
10 14 13 19 9 5 6 20 32 31 31 30 30 29 29 29
28 28 28 33 34 34 34 34 34 34 34 34 34 34 34 34
34 34 34 35 35 35 36 36 35 36 36 36 36 36 36 36
37 37 37 36 36 36 35 36 36 38 37 37 37 37 37 36
0 0 42 34 2 7 3 9 9 0 0 17 47 19 21 5
0 0 1 3 0 0 13 6 0 1 1 0 2 4 1 1
6 14 19 20 15 19 28 38 35 31 28 21 7 2 0 1
3 2 2 4 4 4 2 1 2 4 10 21 20 9 11 14
14 10 19 13 10 8 11 8 29 30 31 29 29 29 30 29
28 28 29 33 34 34 34 33 34 33 34 34 34 34 34 34
34 34 35 35 35 35 35 35 36 35 36 35 36 37 37 37
36 36 36 36 36 36 36 36 36 37 36 36 37 36 36 34
2 0 44 30 0 4 4 0 6 0 0 17 46 19 20 4
0 3 5 21 0 0 11 5 3 2 2 0 1 5 9 4
4 8 9 21 25 29 32 33 42 42 32 23 9 2 3 3
2 2 5 7 7 4 4 2 0 1 5 5 13 19 15 13
14 13 12 15 17 14 18 9 21 32 31 29 30 29 30 29
28 28 29 34 34 34 34 34 35 35 34 34 34 34 34 34
34 34 34 35 36 37 36 36 37 35 35 36 36 36 36 36
36 35 36 36 36 37 37 37 37 38 36 36 37 36 36 36
0 0 44 29 0 3 12 0 0 0 0 19 44 20 21 4
12 12 6 5 0 0 11 7 2 0 1 1 2 10 13 11
11 16 18 23 24 30 37 45 51 52 48 30 25 10 6 3
8 5 5 7 3 4 3 2 3 0 0 6 6 8 9 22
22 9 4 8 9 15 16 16 17 31 30 29 30 30 29 29
28 29 29 33 34 34 34 33 34 34 34 34 34 34 34 35
35 35 35 35 34 35 35 34 35 36 36 36 36 36 37 36
38 36 36 36 37 35 36 36 36 37 37 36 37 36 36 36
50 45 51 39 9 5 8 6 4 0 0 21 42 20 21 5
14 1 1 7 5 0 11 10 0 1 0 0 1 9 14 10
12 17 17 19 26 25 25 31 40 39 49 37 35 22 9 8
7 12 6 6 10 8 9 4 4 5 4 5 4 4 6 8
13 12 10 8 7 2 17 16 8 29 32 28 31 29 29 29
29 28 29 33 34 34 34 35 35 34 35 34 34 33 34 35
35 34 36 36 36 36 36 36 35 36 35 36 36 36 37 36
37 35 36 36 37 36 37 37 36 36 36 37 37 37 37 36
52 57 46 70 56 32 43 42 47 43 38 41 37 20 21 6
3 0 0 0 2 0 14 37 22 10 4 5 1 13 15 13
15 19 24 19 13 7 3 8 13 20 36 25 24 30 18 8
8 7 5 4 7 6 5 7 6 5 6 6 3 7 5 9
8 12 16 17 10 2 2 18 5 21 30 28 31 29 30 29
29 28 29 33 34 33 33 33 34 34 35 35 35 35 35 34
35 34 35 35 35 35 36 35 34 35 35 36 36 36 36 36
38 36 36 36 36 35 37 36 36 35 34 33 36 34 35 33
3 37 71 74 48 35 49 55 58 56 55 53 36 19 21 5
0 0 0 0 0 0 18 53 44 29 18 16 14 15 17 18
13 7 7 3 0 13 28 44 37 26 20 23 28 24 17 4
3 7 7 4 2 5 4 8 7 4 4 8 6 7 7 8
9 11 16 18 17 12 3 4 8 16 31 28 32 29 29 29
28 27 29 32 33 34 33 34 34 34 34 34 35 35 34 34
36 35 36 36 35 36 36 36 36 36 36 36 36 37 36 36
37 35 35 33 34 33 33 36 35 36 35 33 31 28 25 21
0 41 71 69 40 37 48 54 57 55 60 58 38 21 21 6
0 0 0 0 0 0 18 58 41 36 24 19 14 18 16 9
3 0 0 0 0 13 5 7 15 27 36 37 45 56 44 21
14 12 5 4 0 0 3 4 9 9 6 4 3 7 6 8
10 9 18 25 20 22 11 6 6 8 28 29 31 29 30 30
29 27 31 34 34 33 34 34 33 33 35 34 35 34 34 35
36 35 35 35 35 35 36 35 36 35 36 36 36 35 37 37
37 36 36 38 36 30 30 26 23 19 17 15 15 14 15 14
0 41 66 57 23 23 39 46 49 54 56 59 37 21 22 35
38 29 19 10 3 0 20 50 37 43 30 20 9 10 11 2
0 0 0 0 0 18 37 52 74 109 117 102 91 105 98 79
37 11 2 3 4 2 0 2 6 15 17 14 11 13 12 6
9 15 16 15 14 16 17 9 2 8 26 31 32 29 29 29
28 27 30 32 34 33 33 33 34 34 33 34 34 34 32 32
35 35 35 35 35 35 36 36 37 37 37 37 36 34 31 30
27 23 20 28 34 15 11 14 16 16 17 18 19 19 20 21
0 38 66 56 9 0 0 0 0 2 5 32 39 21 23 41
56 56 55 52 50 44 48 44 36 46 43 37 26 38 23 17
4 0 2 0 0 6 52 78 86 120 127 116 99 105 116 107
86 38 7 1 8 6 3 0 3 13 9 16 17 14 11 13
13 11 8 13 21 17 15 12 4 2 22 31 31 28 29 29
28 26 31 32 34 33 33 32 32 33 33 33 34 34 33 32
34 35 35 35 36 36 35 33 31 28 26 20 18 16 16 16
16 16 17 22 32 13 16 19 22 22 23 24 25 26 26 27
0 35 66 57 6 0 3 0 0 0 0 26 39 21 22 41
57 58 55 55 56 56 58 31 7 15 21 24 35 65 52 27
0 1 0 0 0 3 47 90 86 112 126 124 110 106 111 118
110 76 27 7 9 12 6 4 6 15 10 14 14 17 14 11
6 11 14 15 11 19 23 19 10 2 7 29 27 27 29 28
27 26 30 32 33 33 33 32 32 31 30 28 30 34 35 35
33 31 30 27 24 21 19 17 17 16 17 18 19 20 20 20
21 22 22 23 31 14 22 26 27 28 29 30 31 31 31 31
0 30 64 54 3 0 0 0 1 8 7 25 40 20 21 37
54 55 54 56 57 57 58 24 0 0 0 1 31 72 67 12
4 2 0 0 0 0 33 77 78 93 117 123 120 105 119 112
114 97 63 24 18 20 16 13 15 19 16 33 32 27 25 18
12 9 13 8 17 20 23 26 22 12 2 21 27 27 28 27
27 25 27 28 28 29 30 29 29 30 30 20 18 25 22 20
18 18 17 18 18 19 20 21 21 22 22 23 24 26 27 27
28 28 28 28 35 18 26 29 30 31 31 31 32 32 33 33
0 27 59 50 2 0 0 0 12 38 35 33 39 35 31 35
40 42 42 44 44 50 54 20 0 0 0 0 12 52 59 1
8 0 0 0 0 0 27 50 59 81 117 127 132 122 110 125
121 107 95 52 33 25 42 51 36 43 22 43 68 83 47 31
5 0 0 1 4 6 14 21 30 22 3 11 19 20 21 23
25 25 28 30 29 29 27 24 22 19 19 16 14 17 18 19
21 21 22 24 24 25 27 27 28 27 28 29 31 31 31 31
32 31 29 20 16 11 29 32 33 32 34 33 34 35 34 35
0 27 57 47 1 0 0 0 8 35 34 28 32 26 25 28
25 28 36 38 35 46 53 18 0 0 0 1 1 32 39 2
8 0 0 0 0 0 22 59 64 81 119 129 134 134 122 115
124 123 114 81 43 36 63 91 69 65 53 52 69 85 94 60
8 0 0 0 0 7 11 13 16 21 15 7 18 15 16 15
15 17 20 20 17 17 18 17 19 19 20 21 22 23 24 25
27 27 29 29 30 30 31 31 32 31 32 32 32 32 32 33
33 33 32 14 4 2 27 33 35 35 35 34 34 34 35 34
0 30 58 45 0 1 4 0 1 16 19 25 32 27 27 28
31 29 35 37 35 46 52 17 0 0 0 0 0 31 22 5
5 0 0 0 0 0 18 53 59 87 119 128 133 137 135 133
129 129 130 106 47 49 81 100 99 88 83 80 86 88 119 82
10 0 0 0 4 4 9 21 17 19 18 11 20 17 17 17
14 12 16 15 19 21 22 22 23 25 26 27 27 28 30 30
31 31 32 32 33 33 33 33 33 34 34 34 34 35 33 30
24 19 29 11 10 1 24 33 34 36 35 35 35 35 35 35
0 34 59 45 0 1 5 0 0 0 0 13 25 21 24 20
16 25 33 38 44 49 51 16 0 0 0 0 3 27 8 7
2 0 0 0 0 0 9 43 58 98 126 136 137 138 141 142
143 136 136 119 68 64 100 111 121 121 100 105 90 92 120 77
7 1 1 3 7 13 8 14 14 10 17 14 21 21 21 20
18 15 21 18 24 26 27 27 29 29 29 29 30 31 31 31
32 32 33 34 35 35 35 35 36 35 34 34 35 35 15 0
0 4 25 9 2 0 25 33 35 35 34 34 35 34 34 34
0 39 59 42 0 0 6 9 1 0 0 16 32 31 28 13
0 0 0 0 3 6 18 16 0 0 0 2 1 0 2 0
0 0 0 0 0 0 2 33 65 114 138 138 140 141 141 140
144 144 140 121 80 89 111 127 140 134 113 93 94 105 119 74
3 1 2 9 6 12 12 11 14 14 20 16 21 26 27 26
24 18 24 21 28 28 29 30 30 31 30 31 32 33 33 33
33 34 33 34 34 34 34 35 35 35 35 34 35 35 28 23
29 31 31 14 0 0 24 33 35 35 35 34 34 35 34 34
0 43 59 42 0 0 0 12 5 0 0 16 40 36 30 16
0 0 1 2 0 0 7 15 0 0 0 9 2 0 2 0
0 0 0 0 0 0 1 34 72 128 140 139 140 137 142 141
142 143 137 120 109 118 121 136 144 133 108 75 106 135 119 77
0 4 6 6 11 6 14 8 15 15 19 17 21 26 28 27
26 22 27 23 31 31 31 31 31 31 31 33 33 33 33 33
34 34 35 35 35 34 35 36 36 35 34 35 34 35 34 33
32 32 30 17 0 1 25 33 34 35 34 34 34 34 34 34
35 48 54 41 0 0 0 10 10 4 0 16 45 36 30 16
0 0 0 3 0 0 7 15 0 0 4 9 1 0 44 16
0 0 0 0 0 0 2 40 90 136 142 139 137 137 143 143
140 142 136 131 120 130 133 141 146 100 61 126 144 135 118 55
0 6 6 12 6 4 7 9 11 14 15 15 21 27 27 27
27 22 28 27 31 31 32 32 32 32 32 33 34 34 34 33
34 34 35 34 34 34 35 35 35 35 35 34 35 34 34 34
33 32 30 22 0 3 26 33 34 35 34 34 34 34 33 34
36 42 47 44 20 12 5 13 19 14 4 14 45 32 28 16
0 1 9 14 3 0 6 15 0 0 4 8 0 11 84 54
0 2 0 0 2 0 11 49 115 136 139 139 138 139 138 142
142 142 139 145 141 142 143 137 140 107 107 141 139 125 113 21
0 9 8 6 8 1 3 9 11 11 16 18 20 25 27 27
27 22 29 28 33 32 32 32 32 31 33 34 33 34 34 34
33 34 34 34 35 35 35 35 35 35 35 34 34 34 34 33
33 32 29 24 10 12 29 34 34 35 34 34 34 33 33 33
10 25 48 45 43 50 44 40 49 45 40 42 49 29 27 15
0 6 20 23 10 1 5 24 5 0 4 5 0 38 101 85
14 10 3 0 3 3 27 88 125 135 138 139 138 136 133 138
142 142 142 143 144 144 141 142 142 141 135 137 139 134 72 5
0 11 5 7 6 1 1 4 7 7 11 16 20 26 27 27
27 22 30 28 32 32 33 32 31 32 33 34 33 34 33 34
34 35 34 34 33 34 33 34 35 34 34 34 34 34 34 34
34 31 28 24 23 24 31 34 34 34 34 33 34 33 32 35
20 32 50 45 15 9 14 26 34 46 53 55 53 31 25 16
0 6 17 19 9 2 5 48 43 9 3 0 1 72 113 99
66 10 10 0 4 25 83 113 128 135 125 134 138 137 140 144
146 142 143 144 144 145 144 143 141 139 131 127 132 101 39 8
0 8 4 11 11 5 4 0 9 6 13 13 17 26 26 26
27 23 31 28 33 33 33 32 33 33 33 33 33 33 33 33
33 34 33 34 34 34 34 34 35 35 34 35 34 34 34 33
33 32 29 26 27 29 33 34 34 35 34 34 34 34 34 34
14 37 51 45 11 2 0 2 10 3 41 55 49 30 25 18
1 2 7 2 3 0 4 47 45 26 3 0 12 99 122 117
92 88 55 32 48 82 103 117 126 137 126 130 133 140 145 144
144 144 144 144 144 144 140 139 136 127 131 128 113 65 48 14
0 7 8 11 12 4 2 0 3 10 13 16 18 26 28 27
28 24 31 29 33 32 32 32 33 33 33 33 33 34 33 34
33 33 33 34 34 33 33 34 34 34 34 34 34 35 34 34
33 32 30 29 28 33 35 33 33 35 34 34 34 34 34 35
11 34 53 47 8 0 4 24 37 13 46 52 44 28 27 25
22 1 8 3 2 0 3 47 47 36 1 0 39 112 127 125
111 114 102 82 83 94 107 118 133 136 132 127 133 142 144 144
143 144 145 144 144 141 133 131 128 118 111 110 109 80 58 17
3 6 4 11 14 5 4 8 5 11 15 17 20 25 28 26
27 25 32 29 32 33 33 33 33 33 32 33 33 33 33 33
33 33 33 34 33 33 34 34 34 35 34 35 34 35 33 33
32 32 31 31 31 34 34 35 34 34 34 34 34 34 34 34
0 34 55 49 7 0 5 10 41 31 50 51 36 27 28 28
14 0 5 1 1 0 3 43 37 36 1 1 63 112 124 119
126 130 115 81 80 90 106 121 135 137 134 133 136 141 143 144
144 144 145 143 141 136 130 128 126 113 113 116 120 102 77 30
10 10 4 11 8 4 0 5 2 9 17 15 16 13 28 27
27 24 31 29 33 33 32 32 32 33 33 33 34 34 33 34
33 34 34 33 34 34 33 33 33 35 34 34 35 34 33 33
34 32 31 31 32 32 32 32 32 33 34 34 34 34 33 32
0 36 57 51 10 0 2 3 9 21 50 52 32 31 32 26
5 0 2 3 0 0 3 49 39 39 6 4 73 112 126 129
138 142 136 82 75 84 104 117 132 137 139 135 139 140 138 144
143 144 143 144 140 133 127 123 124 126 122 122 129 119 91 39
12 9 6 7 10 7 3 1 1 7 16 11 9 11 23 26
28 26 32 28 33 32 31 33 33 33 32 33 33 33 33 33
33 33 33 33 33 33 34 34 34 33 33 33 33 33 33 33
33 33 31 33 34 33 33 33 34 34 34 34 34 34 33 33
0 39 57 52 12 0 0 0 0 12 50 53 32 30 28 30
28 23 17 14 10 6 6 51 41 41 16 4 72 116 130 121
116 126 117 76 76 77 96 114 125 136 137 133 135 139 140 143
144 143 143 139 137 132 122 119 119 122 122 128 130 129 91 37
11 7 5 7 8 8 5 0 6 8 9 7 6 8 20 27
29 27 32 28 33 32 32 32 32 33 32 32 32 33 33 33
33 33 34 33 33 33 33 33 33 33 33 34 34 34 34 34
34 33 33 34 35 34 34 34 34 35 35 33 33 34 34 33
0 36 58 54 12 0 0 0 0 5 48 54 31 31 29 35
53 54 53 51 55 58 55 58 46 44 33 1 54 104 118 51
70 87 96 89 83 83 93 111 121 131 137 136 135 141 142 145
142 140 141 137 133 130 120 114 112 120 126 131 132 138 96 40
11 4 6 3 9 7 7 4 8 9 8 4 10 7 19 27
28 26 32 28 33 32 32 32 32 31 32 32 33 33 34 34
34 34 33 33 34 33 33 33 35 34 34 35 34 33 33 34
33 33 33 34 34 34 34 33 34 34 34 34 33 34 33 33
0 33 57 51 5 0 0 0 0 7 51 57 32 32 30 36
63 63 62 62 61 61 61 60 47 44 37 13 22 85 115 101
96 96 93 95 90 96 100 106 117 126 131 131 138 145 144 145
145 142 140 135 130 123 119 110 109 119 131 134 137 141 109 41
14 5 3 3 8 9 10 6 7 11 11 0 5 10 19 26
28 26 31 28 33 32 32 32 32 32 33 33 34 34 34 34
35 34 33 33 33 33 33 33 34 33 33 34 33 33 32 33
33 34 33 34 34 34 34 33 33 33 34 34 33 33 33 32
0 32 57 51 5 0 0 0 0 6 49 55 29 28 31 33
50 53 54 56 58 60 60 62 29 13 16 5 0 25 64 62
59 69 85 85 84 95 109 113 118 123 130 134 138 140 145 146
146 145 140 134 122 119 114 112 109 123 135 140 142 141 117 52
11 6 4 1 5 5 6 10 10 6 11 4 7 8 19 26
28 26 31 28 33 32 32 32 33 33 33 33 34 34 34 34
34 33 33 32 33 32 33 33 33 33 33 33 32 32 32 33
33 33 33 34 33 34 33 34 34 34 34 33 34 33 32 32
0 31 58 51 5 0 0 0 0 3 47 50 27 30 31 27
33 35 33 33 32 32 32 37 22 1 0 0 0 0 21 60
49 68 72 70 77 87 111 119 121 129 133 134 137 139 143 146
146 144 134 130 120 114 111 111 112 120 135 143 145 142 122 68
16 7 3 0 4 5 4 9 7 7 6 4 10 9 19 27
28 26 31 28 32 32 32 32 33 33 33 33 33 33 33 34
34 34 32 32 32 32 32 32 32 33 32 29 29 28 26 23
20 25 31 34 34 34 34 34 33 33 33 33 32 33 31 31
0 31 57 53 5 0 0 0 0 3 48 54 28 29 29 29
43 43 42 41 39 38 37 39 23 10 3 0 0 0 21 51
56 87 90 83 75 84 108 123 124 130 134 133 135 132 144 145
145 141 134 123 118 110 107 111 116 124 137 144 145 140 125 79
28 6 6 1 3 2 7 12 10 8 4 3 8 10 18 25
27 26 30 27 32 31 31 32 33 33 34 33 33 33 31 30
28 26 24 21 19 22 24 31 32 33 32 20 5 5 5 5
4 9 29 34 34 33 33 33 33 33 33 33 32 32 32 31
44 52 55 49 5 0 0 0 0 3 52 57 29 26 29 30
44 45 46 44 44 44 45 45 23 6 3 0 0 0 15 45
71 91 99 89 64 60 97 120 124 122 129 134 142 142 143 144
145 142 130 120 112 107 109 112 117 127 140 144 145 143 128 96
47 10 4 0 2 4 6 13 19 12 2 1 6 10 20 25
27 26 30 27 32 31 31 32 32 32 32 33 31 11 7 6
7 7 2 2 2 0 2 27 32 31 32 19 4 4 4 5
4 8 31 34 34 33 33 32 33 33 32 32 32 32 31 30
54 52 40 31 23 19 12 10 4 6 51 51 25 25 29 31
45 46 47 45 45 45 46 47 24 5 4 0 0 8 6 38
62 61 58 53 50 61 77 114 119 125 130 136 140 142 142 138
137 129 121 115 110 101 112 117 123 127 139 143 145 144 130 108
71 23 3 0 0 0 5 5 14 9 1 1 5 8 19 24
26 25 29 28 31 31 31 31 32 32 32 33 31 5 1 6
6 8 2 0 1 0 1 25 31 32 32 17 4 4 5 4
4 7 31 34 34 33 33 33 33 32 32 32 32 31 31 30
53 52 51 46 50 51 48 48 47 45 49 45 38 35 35 29
19 19 20 22 22 25 35 51 30 1 0 0 0 9 7 18
46 44 65 86 97 97 84 98 116 121 129 133 136 137 137 134
128 124 115 110 110 108 114 113 122 133 138 139 145 143 131 113
91 58 8 0 0 0 0 7 8 6 1 0 4 6 18 24
26 26 29 28 32 31 31 32 31 32 31 32 30 5 1 5
7 8 2 0 0 0 1 22 31 31 31 16 4 4 4 4
5 6 27 33 33 34 33 32 33 32 32 32 32 31 32 31
49 48 48 48 48 47 47 46 46 45 45 44 45 44 43 43
42 41 41 36 2 1 15 52 39 14 1 0 2 8 5 15
41 56 86 105 109 102 100 97 108 119 126 131 135 132 126 128
121 110 105 102 106 113 115 118 129 136 138 141 144 142 131 116
104 85 27 0 0 0 3 0 5 4 1 1 5 6 18 24
25 25 28 27 31 30 31 31 31 31 32 31 30 6 1 5
7 7 2 0 0 0 0 23 31 31 31 17 4 4 5 4
3 3 27 34 33 32 32 31 31 30 29 29 30 31 30 30
49 49 48 47 48 46 47 45 45 45 45 44 44 43 43 43
43 42 42 41 7 0 11 50 36 7 0 0 0 8 7 16
54 62 84 94 99 103 108 104 108 117 124 122 126 125 122 119
112 107 104 101 112 117 115 118 129 138 140 143 145 144 133 117
108 100 56 7 0 0 0 0 2 2 1 3 12 6 18 24
25 25 28 28 31 30 30 31 31 31 32 31 29 7 0 4
8 7 3 0 1 0 0 22 31 31 31 21 8 8 8 9
11 9 22 30 31 31 31 32 32 32 34 30 31 30 31 30
47 47 47 47 46 46 46 45 45 45 45 44 43 43 43 42
43 42 42 40 10 0 8 44 27 0 0 0 0 0 0 16
51 40 38 68 98 104 109 109 114 110 110 120 118 120 112 108
102 100 101 106 114 117 123 126 130 136 140 145 145 144 135 117
107 106 78 17 0 0 0 3 5 4 12 11 18 6 18 24
25 24 25 25 30 30 30 31 31 32 32 31 29 8 1 4
6 5 2 0 1 0 0 22 31 31 31 23 11 11 10 10
11 11 20 32 33 33 33 32 32 32 32 32 31 31 32 30
16 15 15 15 15 15 15 15 15 16 17 17 18 19 20 21
24 34 40 41 14 0 5 38 24 0 0 0 0 1 1 12
48 32 53 77 97 106 111 114 119 116 107 116 115 112 103 94
92 98 98 107 112 113 117 125 131 133 139 144 145 144 137 118
108 109 99 35 0 0 0 4 3 3 16 15 16 6 16 24
25 25 26 26 30 30 30 31 31 30 30 30 30 9 1 2
2 2 1 1 2 0 0 20 31 32 30 22 4 5 5 5
5 6 20 33 33 33 33 33 33 32 33 32 31 31 31 30
0 0 0 0 0 0 0 0 0 0 0 0 0 0 0 0
5 40 43 40 19 0 3 35 27 5 4 3 3 11 12 15
47 34 61 81 98 110 114 118 116 113 106 107 100 95 83 88
88 92 100 103 107 109 113 121 129 134 141 143 145 145 138 118
108 110 108 70 8 0 0 3 1 7 21 20 18 7 15 23
24 25 26 26 30 30 31 30 31 33 32 32 30 10 2 2
0 0 1 1 2 0 0 21 30 32 30 23 5 5 5 5
6 4 14 25 33 33 32 32 32 32 33 32 31 31 31 31
0 0 0 0 0 0 0 0 0 0 0 0 0 0 0 0
4 43 44 40 22 0 0 30 42 42 37 34 37 39 40 43
42 56 62 82 96 110 115 116 112 106 102 94 88 79 78 86
90 89 90 95 101 112 119 121 122 130 139 143 145 145 137 118
107 109 111 97 31 0 0 0 7 16 25 20 19 6 14 23
24 24 25 26 30 30 30 31 31 32 32 31 28 9 2 2
1 4 6 1 3 0 0 21 31 32 31 24 5 4 0 0
0 0 1 0 31 32 32 33 32 32 32 31 32 31 31 30
0 0 0 1 1 1 1 1 0 0 0 0 0 0 0 0
2 41 45 39 24 0 0 26 45 46 39 40 41 39 33 34
36 51 59 69 83 100 103 100 107 100 89 79 80 72 77 83
81 79 83 94 103 112 118 124 128 136 141 145 146 144 135 118
107 108 111 103 57 0 0 1 15 26 27 21 19 7 12 22
23 25 25 26 29 29 29 31 32 32 32 31 26 10 2 2
2 4 3 1 2 0 0 19 30 32 30 24 5 5 3 1
4 4 3 0 31 33 32 32 31 31 32 31 32 32 31 30
1 1 1 2 3 2 1 1 1 0 0 0 0 0 0 0
1 40 46 39 27 0 0 23 46 39 34 37 40 40 35 33
35 34 40 59 65 79 84 89 90 85 77 67 65 63 62 53
54 67 78 96 108 111 119 125 130 134 139 144 146 143 131 117
106 107 112 106 78 1 0 9 28 28 27 21 19 7 10 21
22 24 24 26 28 29 30 31 32 33 33 30 26 11 3 1
0 0 2 2 3 0 0 20 30 32 31 25 5 4 2 0
0 0 0 0 30 33 33 32 32 32 33 32 32 31 31 30
1 1 2 2 2 2 2 2 1 0 0 0 0 0 0 0
0 38 47 38 29 0 0 20 43 26 32 30 32 39 36 34
38 29 25 44 55 57 68 72 66 62 55 48 44 36 30 27
36 49 69 91 101 102 117 123 136 140 141 145 146 144 129 115
106 107 113 109 91 14 4 25 29 28 27 25 18 12 13 22
24 24 24 24 27 28 29 31 32 32 32 29 26 12 3 2
0 0 2 1 2 0 0 18 30 32 31 24 4 4 0 0
0 0 0 0 29 32 31 31 31 32 33 31 30 31 31 30
1 2 1 1 2 2 1 1 0 0 0 0 0 0 0 0
0 35 47 39 32 4 13 29 43 10 10 12 15 17 18 18
35 32 30 36 46 46 45 45 43 37 33 30 25 22 18 30
50 52 63 87 103 110 123 128 138 140 142 144 147 145 128 112
104 107 111 110 97 41 29 46 47 47 46 45 43 41 40 38
37 34 32 30 25 27 28 30 31 32 32 29 26 13 2 2
1 1 1 1 3 1 0 18 30 32 31 25 4 1 1 3
0 0 0 0 20 9 7 4 22 32 32 31 32 31 31 30
1 1 1 1 1 1 1 1 1 1 0 0 0 0 0 0
0 31 48 39 36 30 39 44 45 4 0 0 0 0 4 8
35 34 45 47 33 32 30 27 24 23 20 19 13 14 22 48
59 61 68 86 103 117 123 134 140 141 143 143 147 146 130 111
103 106 111 112 103 59 24 48 51 51 48 48 44 43 42 41
40 38 37 35 26 25 28 30 31 32 31 28 27 13 2 2
2 1 1 1 3 0 0 17 31 31 31 25 4 1 32 42
5 0 0 0 13 28 32 27 4 30 32 31 31 31 31 31
1 1 1 1 2 2 1 1 0 0 0 0 0 0 0 0
0 28 48 39 38 47 50 52 48 5 0 0 0 0 0 5
39 32 43 48 29 38 39 15 0 0 0 0 3 9 33 53
62 69 73 87 102 116 129 139 142 140 141 143 146 145 133 109
101 104 111 114 106 81 11 59 53 50 47 47 45 44 43 41
39 37 37 35 27 23 27 30 32 32 31 28 26 14 1 1
1 2 1 0 2 1 0 17 30 31 31 28 15 10 32 33
11 0 0 13 33 32 32 32 14 22 32 32 32 31 32 31
1 2 1 1 2 1 1 1 0 0 0 0 0 0 0 0
0 25 48 39 37 48 52 54 52 10 0 0 0 0 0 1
40 31 40 43 3 5 25 17 0 0 0 0 12 31 52 56
66 72 74 89 103 113 128 140 141 136 136 139 144 146 134 110
102 104 110 114 111 93 14 73 54 50 47 47 46 45 43 41
37 37 37 35 29 20 26 28 31 31 31 28 27 15 1 1
1 1 1 1 1 1 0 16 30 31 31 30 31 14 12 4
4 0 0 13 33 32 33 32 18 16 31 29 30 30 30 30
0 1 2 1 1 1 1 0 0 0 0 0 0 0 0 0
0 21 48 38 36 34 33 32 27 4 0 0 0 0 0 2
40 31 41 43 2 3 23 19 0 0 0 9 28 60 59 64
67 72 72 86 106 118 130 138 136 133 131 138 145 145 135 111
101 103 109 115 113 97 13 60 61 52 46 46 46 44 42 40
39 36 36 34 31 16 25 28 30 30 30 29 27 15 1 1
1 1 0 1 1 1 0 14 29 29 32 32 31 17 0 0
0 0 3 14 34 33 33 33 18 18 32 32 32 32 31 29
1 0 1 1 0 1 1 0 0 0 0 0 0 0 0 0
0 18 47 39 35 18 13 16 12 0 0 0 0 0 0 3
41 31 42 43 2 2 21 21 0 0 0 22 22 66 72 72
71 71 74 80 99 118 129 135 136 133 133 139 144 147 136 114
102 103 110 114 116 84 9 73 73 66 47 47 47 45 41 38
40 37 37 34 32 14 23 25 28 29 29 29 27 16 1 2
1 1 1 0 1 0 0 15 31 31 32 20 4 14 0 0
0 0 0 9 32 32 32 30 11 24 31 31 30 30 31 29
0 0 1 1 1 0 0 0 1 0 0 0 0 0 0 0
0 15 47 38 35 21 16 18 13 0 0 0 0 0 0 4
40 29 42 43 2 3 19 24 0 0 9 37 18 66 75 78
78 80 82 80 82 106 123 134 139 135 132 136 145 148 136 113
104 102 109 116 115 57 19 81 81 92 58 47 47 45 42 40
40 35 35 34 32 16 22 26 28 30 30 29 27 17 4 3
2 1 1 0 1 0 4 19 29 30 31 18 32 46 13 0
0 0 0 9 32 31 31 25 7 30 31 31 31 31 30 29
1 0 0 0 0 0 0 0 0 0 0 0 0 0 0 0
0 13 46 38 34 24 19 21 14 0 0 0 0 4 0 1
40 30 42 41 2 4 17 23 3 0 30 54 13 67 76 82
85 85 87 86 79 86 109 124 134 135 128 132 144 148 139 115
108 102 107 117 104 34 32 76 80 95 71 50 49 44 43 40
40 37 35 35 33 18 20 25 28 29 30 28 27 25 22 20
15 13 12 7 2 3 11 18 21 20 19 11 23 21 8 0
0 0 0 3 12 12 14 5 22 14 8 18 32 30 30 30
0 0 0 0 1 1 0 0 0 0 0 0 0 0 0 0
0 12 46 38 33 26 23 23 15 0 3 0 0 7 2 0
39 30 43 42 13 6 17 26 8 18 52 75 13 64 82 90
95 96 94 91 88 82 98 118 129 131 127 133 145 148 139 114
110 105 106 117 77 31 41 74 75 99 83 41 48 52 44 39
39 38 37 35 33 23 17 24 27 28 29 29 27 26 25 23
11 2 1 0 0 0 0 0 0 0 0 0 0 0 0 0
0 0 0 0 0 0 0 0 11 6 11 15 33 32 31 31
0 0 0 0 0 0 0 0 0 0 0 0 0 0 0 0
0 11 45 38 33 27 25 24 16 2 8 0 0 10 16 2
38 32 44 39 19 12 15 24 4 42 53 69 17 47 87 96
104 110 112 106 98 92 97 113 123 125 121 132 145 148 141 115
112 112 102 107 47 34 50 78 88 100 93 58 19 57 56 62
43 37 37 35 32 26 14 23 26 28 28 27 26 26 25 23
9 0 1 4 6 7 9 10 11 11 12 13 15 15 16 17
19 21 23 22 14 0 0 23 7 3 38 31 32 32 31 36
0 0 0 0 0 0 0 0 0 0 0 0 0 0 0 0
0 9 44 37 33 28 24 24 22 4 11 6 5 14 20 13
36 34 45 38 15 23 13 22 12 61 55 62 27 25 84 99
107 115 117 117 109 98 98 109 120 121 116 128 145 148 139 114
114 118 103 81 36 37 61 84 90 101 99 65 60 43 43 75
73 51 35 33 31 28 12 23 25 27 28 27 26 25 24 24
9 0 7 17 20 22 24 24 24 25 25 25 25 26 27 27
29 29 28 25 14 0 0 7 3 0 3 2 3 2 6 49
0 0 0 0 0 0 0 0 0 0 0 0 0 0 0 0
0 8 45 38 33 29 26 24 34 40 43 44 45 46 47 48
55 42 45 35 6 28 15 36 45 65 57 70 51 17 61 103
110 118 123 123 116 104 100 108 116 117 110 125 144 148 138 114
117 125 106 51 35 43 72 70 85 103 103 90 75 84 34 66
87 86 60 36 33 30 12 21 24 25 27 27 22 6 4 3
4 0 8 19 22 25 26 26 26 27 27 27 27 28 29 30
30 30 30 26 15 0 0 0 0 0 0 0 0 0 5 50
0 0 0 0 0 0 0 0 0 0 0 0 0 0 0 0
0 7 44 39 34 30 27 25 35 50 51 51 51 51 51 52
57 52 43 34 1 17 37 35 50 69 59 69 68 19 33 92
112 120 127 130 127 116 106 107 114 112 105 120 144 148 136 115
120 133 109 35 35 52 78 74 77 105 108 99 78 92 72 45
79 89 82 61 35 32 20 20 23 25 26 26 22 0 0 0
0 0 9 17 21 25 27 28 28 28 28 29 29 30 31 32
33 31 30 28 16 0 0 0 0 0 0 0 0 0 7 47
0 0 0 0 0 0 0 0 0 0 0 0 0 0 0 0
0 7 45 40 34 29 27 25 27 50 49 48 47 46 45 45
46 47 41 35 2 37 38 33 61 70 63 50 66 27 28 59
110 121 130 136 137 128 117 109 112 107 98 117 144 148 135 116
123 140 103 28 37 59 83 81 87 107 110 102 68 85 89 64
46 70 86 85 51 8 16 42 43 36 25 25 22 0 0 0
0 1 9 18 23 26 28 28 29 30 30 30 31 31 33 34
34 33 31 28 18 0 0 0 0 0 0 0 0 32 44 44
0 0 0 0 0 0 0 0 0 0 0 0 0 0 0 0
0 7 44 39 33 29 28 26 19 17 16 14 15 14 15 15
18 18 37 37 35 38 33 60 63 70 67 56 81 44 28 45
91 122 131 136 139 137 130 121 111 100 95 114 143 148 135 119
125 143 89 27 51 74 85 85 85 107 113 105 87 95 98 105
49 46 66 92 89 46 12 6 28 38 52 45 33 15 4 0
0 1 11 19 22 25 27 28 30 30 31 31 32 33 34 34
35 34 32 30 18 0 0 0 0 0 0 0 0 39 42 41
0 0 0 0 0 0 0 0 0 0 0 0 0 0 0 0
0 6 44 39 33 29 28 26 20 16 15 14 15 15 15 16
20 19 39 49 42 24 46 58 68 72 70 58 86 63 31 47
67 114 134 138 141 142 140 136 124 106 97 110 141 147 134 123
127 138 72 37 68 83 83 87 92 106 113 105 83 91 96 102
88 17 55 87 96 93 89 80 73 76 55 48 68 59 40 14
0 2 12 19 22 25 27 29 30 30 31 32 33 34 35 35
35 35 33 32 18 0 0 0 0 0 0 0 1 39 39 39
0 0 0 0 0 0 0 0 0 0 0 0 0 0 0 0
0 6 42 39 32 29 27 27 25 22 20 19 18 18 17 18
21 21 41 48 29 9 57 48 63 73 73 59 72 67 58 52
63 87 129 139 139 141 143 143 131 113 103 107 142 147 139 124
127 111 65 61 68 75 90 88 79 106 109 101 82 95 88 106
107 39 28 63 91 91 92 90 85 81 85 54 33 74 69 67
44 23 14 19 21 23 26 28 28 30 31 31 33 34 35 35
35 34 33 33 18 0 0 0 0 0 0 0 2 36 37 36
0 0 0 0 0 0 0 0 0 0 0 0 0 0 0 0
0 6 43 38 32 28 26 26 25 23 22 23 22 22 22 22
23 23 50 42 16 32 53 63 59 75 76 60 66 70 82 62
72 77 102 134 140 142 145 145 136 116 104 103 138 147 142 124
113 75 69 82 73 83 39 52 91 105 110 107 78 77 89 104
107 72 26 55 76 93 89 90 90 85 82 77 45 44 76 73
72 65 60 42 33 28 25 26 27 29 30 31 32 33 33 33
33 34 34 33 18 0 0 7 21 7 0 0 4 34 33 33
0 0 0 0 0 0 0 0 0 0 0 0 0 0 1 2
3 11 44 38 31 28 26 25 26 23 22 22 22 22 22 24
30 45 57 35 17 58 48 61 61 77 77 69 79 80 86 80
73 81 88 111 139 143 143 145 141 118 107 100 135 148 139 124
75 63 76 92 86 84 26 7 87 104 111 110 90 101 88 104
105 82 75 46 76 85 89 85 88 84 81 81 77 34 69 74
71 73 68 67 65 63 61 49 40 32 29 31 32 33 33 33
34 34 34 33 18 0 0 10 25 6 0 0 6 33 33 33
10 12 13 16 16 17 19 21 23 24 26 26 28 29 30 30
30 31 33 32 30 26 26 29 24 23 22 21 21 26 39 50
39 65 54 33 22 62 47 58 61 73 77 74 65 88 79 75
79 84 94 97 118 141 146 146 142 123 107 98 131 147 142 107
55 66 91 91 81 91 16 0 47 103 109 105 80 100 87 105
108 76 79 36 76 82 89 85 85 85 84 84 83 67 32 82
72 73 70 67 71 68 63 64 62 54 39 29 31 31 31 31
32 32 32 32 17 0 0 0 0 0 0 0 7 33 31 31
39 38 30 17 19 24 19 15 26 35 35 34 34 33 33 32
31 30 30 30 30 32 39 33 35 36 27 24 38 52 57 53
58 74 54 27 39 59 53 48 53 61 76 79 61 79 22 23
82 90 97 97 98 118 143 146 145 128 110 98 125 147 134 64
59 83 97 78 82 46 0 0 21 105 106 107 84 98 87 104
109 76 89 55 54 83 81 88 82 84 86 85 85 84 43 59
81 70 74 73 66 65 70 61 63 55 45 28 29 30 30 31
31 31 32 32 16 0 0 0 0 0 0 0 11 32 31 31
38 15 19 34 37 37 36 33 20 16 32 34 34 33 32 32
31 30 31 32 38 42 38 22 27 43 52 47 45 51 58 57
74 74 49 22 53 69 58 48 67 58 78 80 65 47 3 3
50 97 94 93 93 100 124 141 146 139 113 100 120 142 95 62
99 100 108 93 65 2 0 0 1 86 110 114 82 83 86 107
109 81 115 68 49 69 80 89 87 82 89 85 86 85 76 28
84 68 79 65 66 67 69 68 61 60 53 34 28 29 30 30
31 31 32 32 16 0 0 0 0 0 0 0 14 32 31 30
12 33 39 38 37 37 37 36 36 31 15 30 34 33 32 31
30 28 30 38 40 41 20 16 52 58 59 59 52 58 67 70
83 70 44 35 52 56 56 33 45 69 68 82 81 15 1 5
34 86 86 88 92 102 115 130 141 140 121 100 110 105 93 98
86 104 77 55 64 22 0 0 0 42 113 112 88 113 93 109
110 82 108 78 56 61 69 84 89 80 86 85 84 85 85 35
56 79 79 27 29 52 59 69 63 63 61 43 28 30 30 31
32 31 32 32 15 0 0 0 0 0 0 0 11 31 31 31
36 37 36 34 33 31 30 28 26 23 16 9 13 10 8 6
9 18 38 44 48 36 16 40 57 58 62 63 57 63 62 72
67 52 50 48 44 46 41 15 39 67 57 84 85 18 0 0
27 76 83 96 92 101 113 120 137 137 122 98 98 105 79 55
89 103 59 73 86 55 22 18 25 47 70 114 92 113 89 110
108 88 107 79 67 67 61 74 91 84 83 83 81 85 83 58
27 84 72 33 23 34 61 70 74 73 68 42 28 29 29 30
32 32 32 33 15 0 0 0 0 0 0 0 3 29 30 31
7 12 19 21 22 22 22 22 16 7 6 6 0 1 2 4
14 38 43 44 52 26 19 46 61 59 62 66 64 64 61 76
52 41 47 41 35 43 37 15 46 55 59 79 82 21 0 1
14 78 76 93 98 92 120 120 116 109 105 102 101 110 82 109
100 92 79 98 105 82 99 87 63 58 23 69 88 111 97 111
110 92 74 73 86 75 79 65 75 86 82 82 80 80 83 76
28 63 83 43 23 38 59 80 82 77 72 38 29 29 30 31
32 32 33 35 16 0 0 0 0 0 0 0 14 13 31 30
7 15 36 41 44 44 45 49 48 48 46 41 8 3 8 9
38 40 42 43 56 28 18 48 63 60 65 68 66 56 69 70
48 51 43 46 37 57 37 14 57 57 71 67 84 27 0 1
30 45 80 78 90 107 115 110 69 65 90 100 111 115 89 111
107 99 105 91 100 90 109 108 104 100 52 31 48 91 96 113
111 98 98 89 73 72 74 49 53 76 87 78 76 79 83 81
43 36 86 46 26 38 63 81 84 78 72 38 30 31 31 31
32 34 35 39 16 0 0 5 2 0 0 0 24 11 26 30
19 25 64 64 64 62 60 57 54 50 50 42 16 0 3 30
45 42 43 43 55 35 18 45 64 63 63 70 65 61 76 59
58 66 61 57 43 67 18 13 68 61 75 60 86 25 1 8
57 33 64 75 57 55 60 76 80 35 43 79 115 109 91 113
129 98 109 95 100 90 111 112 109 111 84 72 33 55 98 112
112 101 100 86 58 60 47 63 74 64 80 81 74 79 84 78
69 52 78 57 29 37 58 75 85 79 72 60 33 33 33 34
35 37 39 43 16 0 44 115 59 0 0 0 26 24 10 30
18 21 58 51 54 55 53 52 49 44 50 47 31 4 18 44
46 39 45 44 54 47 29 46 65 63 59 67 66 73 81 47
68 66 63 59 61 82 46 23 73 71 65 56 90 29 11 25
57 48 59 80 59 49 45 68 85 67 29 84 116 103 89 126
126 101 106 75 85 93 116 113 111 115 86 87 79 72 74 113
109 98 99 74 52 46 54 64 75 59 63 80 73 81 86 81
83 84 68 55 32 36 53 66 80 81 69 66 50 11 4 4
3 3 3 3 0 0 79 148 74 0 0 0 28 29 12 22
45 44 54 67 70 69 67 65 56 45 42 37 11 5 37 45
49 40 45 44 51 61 36 54 61 62 61 65 70 75 66 35
21 34 48 48 70 92 88 59 72 93 55 68 84 79 69 67
94 77 104 83 101 57 54 44 62 65 42 104 96 88 95 129
119 114 105 74 88 96 118 112 112 117 91 110 89 120 97 94
111 100 70 57 51 65 67 75 24 38 53 78 73 82 85 90
94 94 66 49 34 40 56 58 79 78 66 59 65 58 7 0
0 0 0 0 0 0 14 28 10 0 0 2 29 28 25 5
33 33 38 46 45 42 42 39 31 26 25 11 7 39 40 49
55 40 45 47 49 71 54 55 64 64 63 72 73 73 62 57
42 33 46 52 95 108 113 70 73 105 67 93 82 92 103 86
103 84 98 109 80 89 70 60 56 59 73 118 93 97 97 123
123 116 96 93 98 101 119 108 110 119 90 111 86 124 121 115
113 102 45 52 37 59 56 46 26 24 45 85 70 86 87 93
95 91 65 40 35 42 62 50 77 77 61 56 66 77 49 0
0 0 0 0 0 2 0 0 0 0 0 3 24 18 3 4
35 36 37 37 37 38 37 33 24 23 22 12 35 42 43 54
60 48 44 48 49 73 77 74 67 77 82 80 70 66 62 61
61 49 53 61 99 111 113 71 72 109 78 82 71 110 105 92
89 99 90 117 99 73 72 57 44 70 85 117 99 100 104 126
120 120 91 95 99 101 118 109 106 120 90 113 86 123 121 119
112 105 49 50 60 110 57 54 56 30 66 77 71 94 88 90
86 89 53 30 39 42 66 49 73 76 42 11 59 80 75 24
0 0 0 0 0 1 0 0 0 0 0 0 5 6 22 23
21 19 17 14 11 9 26 29 23 22 22 34 41 42 46 57
60 54 42 45 52 75 80 85 82 80 80 70 62 64 59 63
60 51 56 72 105 112 110 81 81 107 93 58 91 116 110 97
84 108 85 116 115 102 68 60 42 57 105 123 100 92 117 123
118 111 86 110 106 101 119 109 109 119 87 108 86 121 118 117
113 108 81 99 82 117 73 54 66 42 66 65 80 95 96 88
84 81 25 22 39 45 66 50 69 75 32 0 4 46 81 69
12 0 0 0 0 0 0 0 0 0 0 0 0 0 10 13
0 0 0 0 0 0 10 9 3 7 20 39 41 41 49 63
68 61 46 41 50 73 81 78 82 70 60 71 68 53 61 65
61 49 58 74 104 112 101 84 92 112 63 87 102 116 118 112
76 89 83 117 113 116 83 65 57 38 102 127 104 97 121 120
113 108 90 102 95 103 120 106 111 121 89 88 84 120 119 116
117 110 88 114 84 119 90 48 69 62 54 59 69 95 88 86
94 79 23 12 27 46 64 53 62 72 37 0 0 1 48 79
56 2 0 0 0 0 0 0 0 0 0 0 0 0 0 0
1 0 0 0 0 0 0 0 0 0 31 41 42 41 52 65
62 56 57 40 48 70 79 71 64 65 74 87 74 52 63 67
58 49 59 74 102 111 94 86 104 71 48 110 103 110 119 123
84 100 81 113 117 118 91 64 59 81 108 120 95 86 119 119
108 110 89 93 88 105 115 105 114 118 89 102 85 126 123 123
123 114 85 107 85 122 107 49 71 73 52 56 80 76 86 81
98 92 45 18 25 49 66 51 58 71 48 23 1 0 3 57
79 29 0 0 0 0 0 0 0 0 0 0 0 0 0 0
0 0 0 0 0 0 0 0 0 7 46 42 40 45 56 64
62 71 71 41 49 66 64 67 68 81 84 80 70 60 60 65
59 51 61 65 99 113 97 101 91 73 75 101 108 112 120 120
87 115 89 103 118 122 93 68 64 78 111 109 86 84 125 125
116 112 86 109 98 105 113 115 115 121 93 117 89 125 122 122
127 119 76 85 89 123 117 62 72 74 55 65 81 88 80 77
95 91 58 38 41 30 62 56 61 69 52 41 31 4 0 19
78 61 0 0 0 0 0 0 0 0 0 0 0 0 0 0
0 0 0 0 0 0 3 5 14 44 42 46 41 50 57 65
72 72 71 46 49 56 76 76 69 84 78 68 62 69 51 66
59 51 66 55 87 114 114 117 97 91 100 94 109 108 117 126
93 104 94 92 114 111 88 67 67 64 111 91 107 90 127 122
116 116 87 114 96 100 117 114 116 120 98 111 90 127 121 122
127 121 86 110 88 123 124 82 70 74 63 66 77 83 90 83
72 76 45 49 39 17 28 74 53 66 57 46 45 34 7 3
66 67 2 0 0 0 0 0 0 0 0 0 0 0 0 0
0 0 3 10 16 27 36 28 46 52 45 46 42 50 62 69
73 70 71 52 46 64 77 69 79 81 76 68 77 73 46 67
60 52 65 48 76 113 115 115 109 88 114 86 116 103 119 122
100 99 105 84 110 104 96 69 62 69 105 77 110 101 122 122
114 114 88 110 100 101 120 110 116 125 102 116 96 123 122 123
127 124 90 109 88 125 123 100 69 75 63 69 79 82 82 82
92 67 32 52 39 39 2 44 70 56 56 53 48 47 30 3
41 41 0 0 0 0 0 0 0 0 0 0 0 0 0 0
