P2
128 120
151
46 45 45 45 45 44 44 44 43 43 42 41 41 41 40 39
38 38 38 37 37 36 36 35 34 34 33 32 32 31 30 30
29 29 28 28 27 26 26 26 25 25 24 24 23 23 22 21
21 21 20 20 19 19 19 18 18 18 17 19 24 23 24 24
18 9 18 24 20 19 18 18 17 16 14 13 13 13 12 7
8 10 14 15 17 17 18 19 19 19 20 20 20 20 21 21
21 22 22 22 23 23 24 25 25 25 26 26 26 27 29 27
28 27 28 28 28 29 29 30 30 30 31 32 32 32 31 33
45 46 45 44 44 44 43 42 42 42 41 41 41 40 40 39
40 38 38 37 36 36 35 34 34 33 33 32 32 31 31 30
29 29 28 28 27 26 27 26 25 25 24 23 23 23 23 22
22 21 21 21 20 20 19 19 19 18 19 20 24 24 25 24
19 10 17 26 21 20 19 18 18 17 15 14 14 14 13 10
10 11 15 17 18 18 19 19 19 20 19 19 20 21 22 22
23 22 23 23 24 24 24 25 25 26 25 26 26 26 28 27
27 28 29 29 30 30 30 31 30 30 31 31 32 31 31 33
45 44 44 44 44 43 43 43 43 42 41 41 41 40 39 39
39 38 38 37 37 36 35 35 34 34 33 33 32 32 31 30
29 29 28 27 27 27 26 26 26 25 25 24 24 23 23 21
21 21 21 20 20 20 20 19 19 19 20 21 25 25 26 25
19 13 16 26 21 20 20 19 18 17 16 16 14 15 14 11
11 12 15 18 18 18 19 19 19 20 21 22 22 22 22 22
23 23 23 23 24 24 25 25 25 25 26 27 27 27 28 27
28 28 29 29 30 30 30 30 30 32 32 31 32 32 31 30
45 45 44 44 44 43 43 43 43 42 41 41 41 40 40 40
39 39 38 37 36 36 35 35 35 34 33 33 33 31 32 31
31 30 29 29 28 27 27 26 26 25 24 24 24 23 23 23
23 22 22 21 21 21 21 20 21 20 21 22 27 26 27 26
19 15 15 26 22 22 21 20 18 18 19 18 16 15 15 12
11 13 17 18 19 19 20 20 21 22 22 22 22 23 23 23
24 24 24 25 25 25 26 26 26 26 26 27 27 28 28 28
28 29 30 31 31 31 29 31 32 32 31 30 30 31 32 32
45 44 44 44 44 44 43 43 43 43 42 41 41 40 40 39
38 38 38 38 36 36 35 35 34 34 33 33 32 31 31 31
30 30 29 29 28 27 27 27 26 25 25 24 25 24 23 23
22 22 22 21 21 20 21 20 20 20 21 23 27 27 26 26
20 15 14 26 22 21 20 20 20 19 17 18 16 16 16 13
13 13 17 19 20 20 20 21 22 21 22 23 23 24 23 24
24 24 24 24 25 25 25 25 25 26 27 27 28 28 29 28
28 29 29 30 31 30 29 28 29 30 32 32 33 32 32 32
45 45 45 44 44 43 43 43 43 42 42 41 41 40 40 40
39 38 39 37 36 36 36 35 35 34 33 33 32 32 32 32
31 30 29 29 28 28 28 27 27 26 26 25 25 24 24 23
23 23 22 22 22 22 21 21 21 20 21 24 27 27 27 27
20 16 15 26 23 21 21 21 20 19 18 19 16 17 17 15
14 15 19 20 21 21 21 22 22 22 23 22 23 23 24 24
24 24 25 25 25 26 26 26 26 27 27 28 28 28 29 29
29 29 29 28 29 29 31 33 31 31 31 32 32 32 32 32
44 44 44 44 43 44 43 42 43 42 42 41 41 40 40 40
39 38 38 37 37 36 36 35 34 34 33 33 33 33 31 31
31 29 29 29 28 28 27 27 26 27 26 26 25 24 24 24
23 22 23 23 22 21 22 21 21 21 22 23 28 27 29 28
22 15 12 24 22 21 21 21 21 20 20 20 17 17 17 16
15 16 19 21 21 21 22 22 23 23 23 24 24 24 24 25
24 25 26 25 25 26 26 26 27 27 28 28 28 28 27 27
27 28 30 30 31 31 31 32 32 31 32 32 33 33 32 32
45 44 44 44 44 43 43 43 43 42 42 41 41 40 40 40
39 39 38 37 37 36 36 35 35 35 34 34 33 33 33 32
31 31 31 30 29 29 28 27 27 26 26 25 25 26 25 25
24 24 24 23 23 23 22 22 21 21 22 23 28 28 28 28
21 14 8 23 25 23 23 22 21 20 20 21 18 18 18 17
16 18 21 22 22 23 23 23 23 24 23 24 24 24 25 25
25 25 26 26 27 26 27 27 28 28 27 26 27 27 28 30
30 30 31 31 32 32 32 33 32 33 32 32 34 33 33 33
44 45 45 44 44 43 43 43 42 42 41 42 41 40 40 40
39 39 37 37 36 37 36 36 35 35 34 34 33 33 32 32
31 31 30 30 29 28 29 28 27 27 26 26 26 25 25 25
25 24 23 23 23 22 22 22 22 22 23 24 29 29 29 29
23 15 15 26 26 23 23 23 23 21 21 21 18 19 19 18
17 19 22 23 23 23 23 23 24 24 24 24 25 25 25 26
26 26 26 26 26 26 26 26 26 27 28 29 29 30 30 30
31 31 32 31 31 32 32 34 32 32 33 33 34 33 33 33
47 46 45 44 44 44 43 43 42 42 42 41 41 40 40 39
39 39 38 38 38 37 37 36 36 35 35 34 33 32 33 32
32 31 31 30 30 29 29 28 28 28 27 26 26 26 26 26
24 25 25 24 23 23 22 22 22 22 23 24 29 30 29 29
23 17 18 24 26 24 24 24 23 22 21 22 19 20 19 18
17 20 23 24 24 24 25 25 25 24 25 25 26 25 25 26
26 26 26 27 26 27 27 28 28 28 29 30 30 29 30 30
31 31 32 32 31 33 33 34 33 34 34 34 34 33 34 33
60 61 62 59 53 47 43 43 43 43 42 42 41 41 40 40
39 39 38 38 37 37 37 37 35 36 35 34 34 33 33 32
32 32 31 30 30 29 29 29 29 28 28 27 27 26 26 26
25 25 25 24 23 23 23 23 23 23 24 26 30 30 30 29
23 18 21 23 26 25 25 24 23 23 22 23 20 20 20 20
17 21 23 24 24 25 24 25 25 25 26 25 25 26 26 25
26 26 27 27 28 28 28 29 29 28 30 29 30 30 30 31
31 32 32 32 33 33 32 34 33 33 33 34 34 35 33 34
36 46 55 59 59 53 43 43 43 42 42 41 41 40 41 40
39 40 39 38 38 37 37 36 36 36 35 34 34 33 33 33
33 32 32 31 31 30 30 29 29 28 28 27 27 26 26 26
26 25 25 25 25 24 23 23 24 23 24 25 31 30 30 30
24 19 24 21 28 26 25 25 24 23 22 24 20 21 21 20
17 22 24 25 25 25 26 26 26 25 25 25 25 25 26 26
26 27 28 28 29 29 29 30 29 29 30 30 30 31 31 30
31 31 32 32 32 33 33 34 33 34 34 34 33 34 34 34
0 0 1 26 59 53 42 42 43 43 42 42 41 41 41 40
39 39 39 38 37 37 37 36 37 36 36 35 35 34 34 33
33 32 32 31 31 30 30 30 29 28 28 27 27 28 27 26
26 25 25 25 24 23 24 23 24 25 25 26 32 31 31 31
25 20 25 20 27 26 25 25 25 24 23 25 22 23 22 21
19 22 24 25 25 25 25 25 25 25 25 26 26 26 27 27
27 28 28 28 29 29 29 29 29 30 30 30 31 31 31 31
33 32 32 33 33 33 33 34 34 34 34 34 34 34 35 34
0 0 0 22 60 54 43 43 43 42 42 41 42 41 41 40
40 40 39 39 39 38 38 36 37 36 36 35 35 34 34 33
33 33 32 32 32 31 31 30 30 29 29 27 28 27 27 27
27 26 26 26 25 24 24 24 24 25 25 26 31 31 32 31
25 20 27 20 28 27 26 25 25 25 24 25 22 22 22 22
19 23 24 25 26 25 26 26 27 26 27 27 26 27 27 28
27 28 29 28 29 29 30 30 29 30 31 30 31 31 31 32
32 32 32 32 33 34 34 36 34 34 34 35 35 35 35 34
0 0 0 21 59 53 43 42 42 42 42 41 41 41 41 41
40 40 39 38 38 37 37 37 36 36 36 35 35 34 34 34
33 33 32 31 31 31 30 30 29 29 29 29 28 28 27 27
26 26 26 26 25 25 24 24 25 25 26 27 32 32 32 31
26 21 28 18 28 27 26 25 25 24 24 26 22 23 23 22
19 22 23 25 26 26 26 26 27 26 27 27 27 28 28 28
28 28 29 29 29 30 29 30 30 30 31 31 31 31 31 32
32 33 33 34 34 34 34 34 34 34 34 35 35 34 32 32
0 0 0 22 59 52 43 43 43 42 42 41 41 41 41 41
40 39 40 39 38 38 38 37 37 37 36 35 35 34 34 33
34 33 32 33 32 32 31 31 30 29 29 28 28 28 28 28
27 27 26 26 25 25 25 25 25 25 26 27 32 32 32 32
26 21 29 19 28 27 27 26 26 25 25 26 22 23 23 22
19 24 25 26 26 27 27 27 27 27 28 27 27 28 28 28
28 28 28 29 29 29 30 31 30 31 31 31 31 31 31 32
33 33 33 34 33 33 33 35 34 33 32 33 33 34 35 34
2 0 0 22 58 51 43 43 43 43 43 42 41 41 40 41
40 40 39 38 38 38 37 37 36 36 36 35 36 35 35 34
34 33 32 32 32 31 31 30 30 30 29 29 29 28 28 28
27 27 27 26 26 25 25 25 25 26 26 27 32 32 33 32
26 22 30 21 28 27 27 27 26 25 25 27 23 24 23 22
19 24 25 27 26 27 27 27 28 27 28 28 28 28 29 29
29 29 29 30 30 30 30 30 30 31 31 31 31 31 33 33
33 33 33 33 32 32 32 32 33 35 34 34 34 34 35 35
6 0 0 24 58 51 43 43 43 43 42 41 41 41 41 40
39 39 39 39 38 38 38 37 37 37 36 35 35 34 34 34
34 33 33 32 32 31 31 30 30 30 29 29 29 28 28 28
27 27 27 27 26 25 25 25 25 25 26 27 32 31 31 31
25 20 29 21 27 26 27 27 27 25 25 26 23 24 24 23
19 25 25 27 27 27 28 28 29 28 28 27 28 28 28 29
28 29 29 29 30 30 30 31 31 31 32 32 32 32 32 33
32 32 32 32 33 34 34 34 34 34 34 34 35 35 34 34
14 0 0 26 58 50 43 44 43 43 42 42 42 42 41 41
40 39 39 39 38 38 38 38 37 37 37 36 36 35 35 35
34 34 33 32 32 31 31 31 31 30 30 30 29 29 28 27
28 27 28 27 26 26 26 24 25 22 22 24 26 23 22 22
18 15 25 20 25 24 25 26 26 25 26 28 24 25 24 23
19 25 25 27 28 28 28 29 29 28 29 29 29 29 29 30
30 30 31 31 31 31 31 32 32 32 31 31 31 31 32 33
34 35 34 35 34 35 35 34 34 35 35 35 35 35 35 35
11 0 0 26 57 50 43 43 43 43 43 41 41 41 41 40
40 40 39 39 39 39 39 38 37 37 37 36 36 35 35 34
34 33 33 33 33 31 32 32 31 30 30 29 29 28 26 24
25 25 27 27 26 26 25 22 17 13 9 7 7 5 4 5
6 6 11 14 18 22 22 23 25 25 25 26 23 24 25 23
19 25 25 28 28 28 28 29 30 29 29 29 29 29 30 30
30 30 30 31 31 31 31 30 31 32 31 33 33 33 33 34
34 34 34 34 34 34 35 35 35 35 36 35 35 35 35 35
9 10 8 29 57 49 43 43 43 42 42 42 42 41 41 41
40 40 40 39 39 39 38 37 37 37 36 36 36 36 35 34
34 34 33 33 32 32 32 32 31 31 30 30 29 27 26 27
27 25 24 25 25 25 22 10 2 0 1 2 0 2 3 4
2 6 6 6 10 11 18 24 24 24 24 25 24 24 25 24
21 26 25 29 29 29 29 29 29 29 29 29 29 30 30 31
30 31 30 31 31 31 32 32 32 32 32 32 32 32 33 35
34 34 34 35 35 35 35 35 35 35 35 34 35 35 35 35
11 7 18 40 56 48 43 43 43 43 42 42 41 41 41 40
40 40 40 39 39 38 39 37 37 37 37 36 36 35 35 34
34 34 33 33 33 32 33 32 32 31 31 30 28 24 27 26
25 22 22 21 20 21 10 0 0 0 0 0 1 3 5 7
6 4 4 5 8 9 8 12 19 25 25 24 25 25 25 24
20 26 26 29 29 29 29 30 30 30 30 30 30 30 30 31
30 31 31 31 32 31 32 32 32 33 33 33 33 33 34 35
33 34 34 34 35 34 35 35 35 35 35 36 35 35 34 35
49 46 41 46 54 47 43 43 43 43 43 42 42 42 41 41
41 40 41 40 39 39 38 38 38 37 37 36 36 35 35 35
35 35 34 34 33 33 32 32 32 32 33 31 27 26 26 24
23 21 19 19 15 13 1 0 0 0 0 0 2 5 6 5
5 3 6 5 8 7 5 5 6 12 21 25 26 25 25 25
21 28 26 30 29 30 30 30 29 30 29 29 29 29 29 31
31 31 31 32 31 32 32 33 33 33 33 33 34 33 33 35
35 34 34 35 35 35 35 35 35 35 35 35 35 35 35 35
41 43 45 46 47 45 44 43 43 43 43 42 42 42 41 41
41 41 40 39 39 39 39 38 38 38 37 37 36 36 35 35
35 34 34 34 33 33 33 32 33 34 32 29 25 24 21 15
11 8 2 1 4 2 0 0 0 0 0 0 0 2 6 8
8 7 2 5 7 7 8 5 5 3 11 18 24 25 25 25
21 28 25 29 29 30 29 29 30 30 30 30 30 31 31 31
32 31 32 32 32 32 32 33 33 33 34 34 35 34 34 35
34 34 35 35 36 36 35 36 36 36 36 35 36 36 36 35
28 32 38 42 45 45 45 44 44 44 43 43 43 43 42 41
42 41 41 40 40 39 39 39 38 37 37 37 36 36 36 36
36 35 35 35 34 33 34 33 35 32 30 29 22 18 11 4
2 2 0 0 0 0 0 0 0 0 0 0 0 0 0 2
4 6 5 4 7 8 8 7 7 3 4 16 19 25 27 26
22 29 25 30 30 30 31 31 31 31 31 31 31 31 32 33
33 32 33 33 33 33 33 34 34 35 34 34 34 35 35 36
35 35 36 36 37 36 36 36 36 36 36 36 36 36 36 37
20 19 18 21 23 28 33 38 42 45 45 44 44 43 42 41
41 40 40 40 40 39 39 39 39 38 38 37 37 37 37 36
36 35 35 35 35 34 34 34 34 32 30 29 18 7 2 3
5 1 0 0 0 0 0 0 0 2 2 1 0 0 0 2
0 3 6 6 5 6 11 8 5 5 5 14 14 21 26 26
21 28 27 31 31 30 30 32 31 31 31 32 32 33 33 33
33 33 33 33 33 33 33 34 35 34 34 35 35 36 36 35
36 36 35 35 36 36 36 35 36 36 36 36 37 37 37 36
20 19 20 21 19 19 20 20 19 23 27 31 36 41 43 42
42 42 41 40 40 39 40 39 38 38 39 37 38 37 37 36
36 36 36 35 35 34 34 33 33 31 31 24 7 0 0 2
0 0 0 0 0 0 1 4 3 2 4 3 4 2 0 1
1 0 1 7 7 3 7 9 10 5 7 8 14 14 24 27
24 29 28 31 31 31 31 31 31 31 31 32 32 32 33 33
33 33 33 34 34 34 34 34 34 35 35 35 35 35 36 36
36 36 37 36 37 36 36 36 36 36 36 35 33 33 34 35
30 26 22 21 20 19 20 20 19 20 19 20 15 17 20 33
42 40 40 40 40 40 39 39 39 39 38 38 37 38 37 36
36 35 35 35 35 34 34 33 33 29 27 14 2 0 0 0
0 0 0 0 0 4 9 4 5 7 6 6 7 6 5 2
4 1 2 0 2 3 1 6 7 11 7 6 6 4 16 26
23 29 27 31 30 31 31 31 32 32 32 32 33 32 33 32
34 33 33 33 33 33 34 33 34 34 35 35 35 36 35 36
36 36 35 35 36 36 35 34 34 33 34 35 37 36 36 36
59 56 54 35 24 25 19 19 18 19 19 20 12 8 17 30
41 40 40 40 39 39 39 38 38 38 37 38 37 37 36 36
36 36 35 34 34 34 34 33 31 27 22 2 0 1 0 0
0 0 0 0 4 13 16 15 11 7 8 8 6 3 6 6
5 4 2 2 1 0 2 5 7 9 15 10 6 0 4 21
23 28 27 31 31 31 31 31 31 31 32 32 31 32 32 32
33 32 32 33 33 33 34 34 34 35 35 34 35 35 35 34
35 33 33 34 34 35 35 36 36 34 34 35 35 35 35 34
61 59 58 41 36 40 46 42 31 26 20 17 16 16 17 28
41 40 40 39 39 38 37 36 38 38 38 38 37 36 36 36
36 35 34 34 34 33 33 33 30 27 12 0 2 1 0 0
0 0 0 4 15 30 25 21 20 20 12 11 6 6 5 9
7 4 4 2 3 5 0 6 10 14 13 15 12 7 0 10
22 28 26 30 30 30 30 31 31 31 31 32 32 32 32 32
34 33 33 33 32 32 33 33 33 35 33 34 33 33 33 34
33 34 34 34 34 33 33 34 35 34 34 34 34 34 34 34
60 60 60 43 42 45 49 48 40 52 51 47 30 14 17 28
40 40 39 39 39 38 43 47 45 43 41 38 37 36 35 35
35 35 35 34 34 33 33 33 29 31 2 0 2 0 0 0
0 0 4 15 36 45 41 38 39 33 23 8 7 3 8 9
11 10 6 5 4 12 6 2 7 12 12 11 11 6 1 1
16 28 25 30 30 30 30 31 31 31 31 31 31 31 31 32
33 32 32 32 32 32 33 33 33 33 33 33 33 33 32 32
33 33 32 33 33 33 34 33 35 34 34 33 34 34 33 34
36 45 55 45 45 47 51 51 50 56 56 55 40 15 18 30
41 40 40 39 38 38 46 52 49 48 44 42 41 40 38 36
35 35 35 33 32 33 33 32 28 16 0 0 0 0 0 0
0 1 20 34 50 60 62 57 56 46 47 25 8 8 8 7
13 15 12 9 6 10 14 6 0 1 5 7 9 4 0 0
10 27 25 30 30 30 30 30 31 31 31 31 31 31 32 31
32 31 30 30 32 32 33 33 33 32 33 33 33 33 33 33
32 33 33 33 34 33 32 33 34 33 33 34 34 33 33 33
8 0 29 48 47 49 52 52 54 56 55 56 44 15 19 35
44 42 42 40 39 38 47 52 50 46 44 44 45 48 45 41
42 39 36 34 32 32 31 31 25 3 0 1 0 0 0 0
0 9 37 55 63 68 70 70 65 66 64 49 20 20 16 11
7 15 17 18 15 12 19 17 7 0 0 2 4 4 2 0
3 24 25 30 31 31 31 31 32 31 31 31 31 31 30 31
31 32 33 33 32 33 33 34 34 33 33 33 33 33 33 33
33 33 32 33 33 34 34 33 35 34 34 34 34 34 33 33
18 6 34 47 46 49 47 51 53 55 56 56 46 17 19 38
47 44 43 43 41 40 45 40 46 47 46 48 50 52 47 39
41 44 44 42 40 38 37 33 16 0 0 0 0 0 1 0
2 27 53 70 72 78 86 88 80 73 72 65 39 26 23 22
13 13 12 17 23 20 19 21 17 5 0 2 2 1 3 3
2 20 26 31 31 31 31 31 31 30 30 31 31 32 32 32
32 33 33 33 32 33 33 33 34 33 33 33 33 33 33 34
33 33 33 33 34 33 34 33 35 34 33 33 34 33 34 33
21 11 36 44 17 28 37 48 53 55 53 52 45 16 19 36
49 39 38 42 46 47 50 3 1 14 32 39 41 47 46 14
2 10 18 28 34 36 44 38 9 0 0 0 0 0 0 1
11 43 65 79 81 89 91 95 90 85 82 70 55 31 26 28
22 13 12 17 24 29 18 23 19 10 2 0 0 0 2 5
0 17 25 30 30 30 31 31 31 32 32 31 31 31 31 31
32 32 32 32 33 33 32 33 35 34 33 33 33 34 33 33
33 34 33 34 34 33 34 33 35 35 34 34 33 33 34 33
15 11 37 40 0 0 4 7 13 23 25 37 48 18 20 36
48 46 43 37 44 51 53 4 0 2 14 18 16 16 43 12
0 0 0 0 1 4 11 14 4 0 0 0 0 0 0 5
25 50 72 81 86 93 98 102 98 96 91 81 63 42 30 30
28 21 17 18 23 29 29 22 22 18 4 0 0 0 0 4
1 11 23 30 31 30 31 32 32 32 32 32 32 32 32 32
33 33 32 33 32 33 32 32 34 33 34 33 34 33 34 35
34 34 34 34 34 34 34 34 34 34 35 33 34 34 33 33
0 0 38 40 0 0 0 1 0 0 0 11 48 18 20 12
16 25 38 46 51 53 53 5 0 1 8 12 16 15 42 13
0 0 0 0 0 0 0 3 2 1 0 0 0 3 3 7
32 53 74 83 86 95 102 109 107 102 96 92 73 53 35 34
32 32 22 16 22 24 33 28 29 29 13 2 0 0 0 0
0 5 24 31 32 32 32 32 33 33 33 32 33 32 33 32
33 33 33 33 33 33 33 33 35 34 34 34 34 33 34 34
34 34 33 33 34 34 35 33 35 35 35 34 34 34 34 33
0 0 39 38 1 4 0 0 0 0 0 12 48 18 19 4
0 0 0 2 11 21 38 7 0 0 5 2 7 7 39 15
1 0 0 0 0 0 0 3 0 0 0 0 0 7 6 9
38 54 72 82 86 97 105 110 113 106 98 94 90 70 50 38
33 34 31 24 19 27 35 31 25 34 22 4 3 0 0 0
0 1 21 32 32 32 31 31 33 32 32 32 33 32 33 32
33 33 33 33 33 33 34 34 35 33 34 34 33 34 34 35
35 35 35 34 34 34 34 33 35 34 34 34 33 34 34 34
0 0 41 36 1 6 0 26 3 0 0 13 48 18 19 4
0 0 0 0 0 0 15 8 0 0 0 0 0 7 36 10
0 0 0 2 4 0 0 7 2 0 0 0 2 9 9 11
42 55 71 80 89 100 105 109 116 108 102 98 100 89 62 45
35 29 34 28 24 26 33 33 30 22 22 6 1 0 0 0
0 0 18 32 32 33 32 32 33 33 32 32 33 32 32 33
33 33 33 33 33 34 34 34 35 34 35 35 34 35 35 35
35 34 34 34 34 35 35 35 35 33 35 34 35 35 36 35
3 0 42 35 2 6 0 12 20 0 0 14 47 18 20 4
0 0 0 0 0 0 12 7 0 0 0 0 0 8 43 15
0 0 0 5 16 6 3 7 8 1 1 0 5 7 8 9
42 59 72 81 93 101 103 106 111 114 107 102 100 104 90 63
52 40 37 37 29 23 27 32 34 31 22 7 1 0 0 0
0 0 17 32 33 33 33 32 33 33 32 32 32 33 32 33
33 33 33 34 34 33 35 34 35 34 34 34 35 35 35 35
35 35 35 36 35 34 34 34 34 35 35 35 36 35 35 35
0 0 40 33 1 6 2 9 8 0 0 14 46 17 20 4
0 0 0 2 0 0 11 6 0 0 0 0 0 5 43 15
0 0 0 8 16 13 9 3 7 4 2 2 8 7 4 8
41 62 73 81 97 102 104 108 114 119 117 112 103 103 105 90
59 46 42 40 40 31 31 26 23 23 27 10 4 1 0 0
0 0 11 31 32 33 32 32 33 32 32 33 33 33 33 33
33 33 33 34 33 34 35 34 35 35 34 35 35 35 35 35
33 34 34 34 34 35 35 35 36 36 35 35 35 35 35 33
2 0 40 30 0 2 2 0 5 0 0 15 45 18 19 4
0 2 4 20 0 0 10 6 3 3 0 0 0 7 43 17
0 0 0 9 16 13 5 10 9 5 7 4 9 6 3 7
36 63 73 83 97 103 107 109 115 122 128 130 118 104 101 101
91 67 48 41 37 37 32 34 27 27 24 17 1 3 0 0
0 0 8 32 33 32 32 33 33 33 32 32 33 33 33 33
33 34 34 34 35 35 35 34 36 34 34 34 35 35 35 35
35 35 35 34 34 35 34 35 35 36 35 35 35 35 35 35
0 0 41 29 0 2 12 0 0 0 0 17 44 18 20 4
10 12 5 4 0 0 9 7 1 0 0 0 2 9 43 18
0 3 2 5 14 10 6 8 14 8 9 7 10 3 1 6
39 65 71 82 92 96 98 99 101 115 127 136 137 123 113 109
102 87 67 39 25 23 30 31 34 27 22 22 2 2 4 0
0 0 5 32 33 32 32 32 33 33 33 32 33 33 33 33
34 34 34 34 34 34 34 34 34 35 35 34 35 35 35 35
36 35 35 35 35 34 35 35 35 35 35 35 36 35 34 35
47 43 49 38 7 4 7 5 2 0 0 18 43 19 21 5
13 1 0 5 4 0 10 8 0 0 0 0 0 23 45 26
4 1 3 0 1 4 4 4 9 6 11 7 5 2 1 9
45 67 69 78 75 63 45 33 33 47 80 117 142 141 128 123
114 77 47 32 27 20 15 18 19 20 18 13 8 0 0 0
0 0 3 30 33 32 33 33 33 32 34 33 33 33 34 34
34 34 35 35 35 35 35 34 35 34 34 35 35 35 36 35
37 34 35 35 37 36 36 36 35 36 35 35 35 36 35 35
51 56 45 69 55 30 41 40 45 41 35 39 37 19 19 5
2 0 0 0 2 0 14 38 25 15 17 8 1 1 45 49
43 40 35 27 15 3 5 1 4 4 9 5 1 2 1 12
52 66 65 65 42 30 37 51 56 63 71 98 133 143 141 131
123 105 74 56 57 57 31 14 13 8 12 21 5 0 3 0
0 0 0 27 33 33 32 32 33 34 34 34 34 34 34 34
34 34 35 34 34 34 35 34 34 35 35 35 35 35 35 35
36 35 35 35 35 35 36 35 35 34 33 33 35 33 35 32
3 35 69 73 47 33 47 54 57 55 54 53 35 19 19 4
0 0 0 0 0 0 16 58 52 44 47 47 45 40 56 38
17 20 24 27 27 12 2 1 0 1 6 3 0 3 0 16
59 61 48 30 44 71 105 115 111 103 101 113 126 141 143 141
130 111 112 111 100 96 92 70 36 22 13 16 10 0 0 0
0 0 0 19 33 33 33 33 33 33 33 34 34 35 33 34
36 34 35 34 34 35 34 35 35 35 35 35 35 35 35 35
36 35 34 33 33 32 33 34 34 34 34 32 30 27 25 21
0 38 70 68 40 37 47 53 56 55 58 57 37 19 20 6
0 0 0 0 0 0 17 61 44 50 54 56 60 51 49 33
15 17 16 15 13 2 0 0 0 0 3 1 0 6 0 21
62 48 37 57 80 103 122 127 128 126 120 117 123 133 138 142
139 125 117 120 122 119 118 111 91 65 46 33 19 1 0 0
0 0 0 16 33 33 32 33 33 33 34 34 34 33 33 33
35 34 34 34 34 34 35 34 34 33 35 35 35 34 35 36
36 34 35 36 34 29 28 25 22 19 16 14 14 13 13 14
0 37 64 56 22 23 38 46 48 53 55 57 36 20 21 33
37 27 18 9 3 0 18 50 39 50 54 56 60 54 44 32
16 18 17 14 11 1 0 0 0 0 1 0 0 6 0 29
64 58 67 79 86 106 122 128 133 137 128 121 120 125 136 140
138 130 123 123 122 121 123 120 108 92 83 61 38 2 0 0
0 0 0 18 33 33 32 33 33 32 32 33 33 33 32 31
34 33 34 34 34 34 35 35 35 36 36 36 36 34 32 29
27 22 20 27 34 15 11 13 15 15 16 16 18 18 18 20
0 36 65 55 8 0 0 0 0 2 5 31 37 19 21 40
56 55 54 52 49 43 47 44 37 49 53 54 58 55 47 37
18 19 16 13 8 0 0 0 0 0 1 0 0 2 1 39
69 74 74 76 85 109 124 130 137 139 133 122 118 125 138 141
138 128 122 117 116 116 123 121 108 98 95 83 59 12 0 0
0 0 0 18 32 32 32 32 31 32 33 33 33 33 32 31
33 34 34 34 35 35 35 33 31 28 25 21 18 17 15 15
15 16 16 21 32 11 15 18 21 21 22 23 24 25 25 26
0 34 65 57 6 0 2 0 0 0 0 23 38 21 22 40
56 56 55 54 54 55 58 31 8 16 25 32 40 42 42 41
20 17 14 8 4 0 0 0 0 0 0 0 0 1 7 50
71 74 78 77 89 106 111 108 111 122 126 126 117 119 136 142
133 128 118 101 75 66 49 62 81 100 100 99 81 25 0 0
0 0 0 25 33 33 32 32 31 31 30 28 30 33 34 35
34 32 30 27 24 21 19 17 17 16 16 17 19 19 20 20
21 21 22 22 30 14 22 25 27 27 28 28 29 30 29 30
0 29 64 54 3 0 0 0 1 7 6 23 39 19 19 36
53 54 53 56 57 57 58 24 1 0 0 1 8 17 26 43
18 15 11 0 0 0 0 0 0 0 0 0 0 0 19 63
76 78 78 73 55 34 22 21 63 63 108 125 115 110 130 136
130 131 116 71 72 44 36 57 50 59 92 104 93 40 0 0
0 0 1 25 28 29 29 29 29 30 31 21 19 27 23 20
19 18 18 18 18 19 20 21 21 23 23 24 24 26 26 27
28 28 28 27 35 18 26 29 30 30 31 31 32 32 32 32
0 26 58 49 2 0 0 0 11 38 35 32 39 34 30 34
40 41 42 44 44 49 55 20 0 0 0 0 1 7 27 43
16 15 12 2 0 0 0 0 0 0 0 0 0 0 29 65
78 81 71 45 43 72 78 85 103 94 92 123 108 103 121 130
124 128 116 100 94 100 111 121 107 89 94 104 98 49 0 0
0 0 1 24 30 29 28 25 22 20 18 16 14 17 18 19
21 21 23 23 24 25 27 28 28 27 29 29 30 31 30 31
31 31 30 22 17 12 29 32 33 33 34 33 34 34 33 33
0 26 55 46 1 0 0 0 8 34 32 26 32 25 24 27
24 27 35 38 35 45 53 18 0 0 0 2 4 0 19 44
14 12 3 0 0 0 0 0 0 0 0 0 0 0 40 71
84 85 77 73 80 106 113 106 102 104 110 112 99 99 117 125
121 119 121 110 97 95 102 112 114 109 109 107 102 58 1 0
0 0 0 16 17 17 17 18 19 19 20 21 21 23 24 25
27 27 29 29 30 30 31 31 31 31 32 32 32 32 32 32
32 32 31 13 4 1 26 33 34 35 34 33 34 34 34 35
0 29 57 45 0 1 3 0 1 15 18 25 30 26 26 27
30 29 34 37 35 46 52 16 0 0 0 0 2 0 19 40
2 1 0 0 0 0 0 0 0 0 0 0 0 2 48 76
85 87 91 100 101 100 102 104 107 114 120 104 95 98 117 128
120 118 124 132 123 117 114 116 123 125 117 107 103 64 1 0
0 0 1 10 19 21 21 23 23 24 25 27 27 27 29 30
31 31 31 32 33 32 33 33 33 33 33 33 33 34 33 29
24 20 30 12 10 1 25 33 34 36 34 34 35 34 34 34
0 32 57 43 0 0 4 0 0 0 0 11 24 20 22 19
16 24 33 38 44 49 50 16 0 0 0 0 0 0 24 39
0 0 0 0 1 1 0 0 0 0 0 0 0 6 57 78
84 85 99 111 120 120 121 124 125 128 121 103 93 100 122 132
127 119 121 137 138 134 132 133 135 136 132 116 99 67 2 0
0 0 2 11 23 25 26 27 28 28 29 29 31 30 31 31
32 32 33 33 35 34 34 34 34 34 34 33 34 35 15 0
0 4 26 9 2 0 25 33 34 35 34 33 34 34 34 34
0 37 58 41 0 0 5 8 1 0 0 14 31 29 27 13
0 0 0 0 3 6 18 16 0 0 0 0 0 0 26 37
0 0 0 0 0 4 0 0 0 0 0 0 0 10 60 78
79 90 109 120 125 126 126 130 135 132 115 99 95 103 123 132
127 120 121 132 140 138 138 135 134 140 141 124 107 71 2 0
0 0 0 6 25 29 29 29 30 31 29 31 32 33 33 33
33 33 33 34 33 34 35 35 35 35 35 35 35 35 28 22
28 31 31 14 0 0 24 32 34 35 34 34 34 34 33 33
0 40 58 41 0 0 0 10 5 0 0 15 38 34 29 15
0 0 1 1 0 0 7 15 0 0 1 3 1 0 23 33
0 0 0 0 0 15 0 0 0 0 0 0 0 9 60 73
81 95 115 127 131 129 129 128 132 126 114 97 94 104 122 135
132 121 119 130 138 139 138 137 139 143 143 131 113 75 5 0
0 0 2 0 17 30 31 30 31 31 30 32 32 33 34 33
34 34 34 34 35 34 35 35 35 35 34 34 34 35 34 33
33 32 30 17 0 1 24 32 33 34 34 34 34 33 34 34
33 47 53 40 0 0 0 9 8 2 0 15 43 35 28 14
0 0 0 2 0 0 6 14 0 0 13 14 6 0 25 29
0 0 0 0 0 5 0 0 0 0 0 0 1 10 60 74
82 99 117 126 127 127 131 130 132 129 115 89 95 107 127 139
137 123 118 125 141 142 140 138 142 144 143 135 117 86 16 0
0 0 1 2 12 27 31 32 32 32 33 33 33 34 34 33
33 33 34 34 34 33 34 35 35 35 35 34 35 35 34 33
32 31 30 22 1 3 26 33 34 34 34 34 34 34 33 33
35 41 45 42 18 10 4 12 18 12 3 13 44 31 27 15
0 0 8 13 1 0 5 15 0 4 22 18 9 0 25 28
0 2 0 0 1 0 0 0 0 1 5 18 11 7 58 75
86 100 113 122 127 130 132 137 138 132 98 92 97 112 127 141
141 129 118 119 130 141 143 141 144 144 142 130 114 88 16 0
0 0 0 1 15 30 31 31 31 31 33 34 34 34 34 34
34 34 34 34 35 35 34 35 35 34 35 34 34 34 34 33
33 31 28 23 10 11 28 33 34 35 34 34 33 33 33 33
9 24 47 43 42 49 43 38 47 42 37 39 47 27 25 15
0 5 18 22 10 2 5 23 4 11 20 18 16 1 24 26
1 3 1 0 0 0 0 0 0 1 30 48 32 12 53 74
85 98 108 119 131 136 138 140 140 108 92 103 105 117 139 143
145 135 125 121 112 123 138 144 144 144 139 127 110 79 12 0
0 2 0 0 10 25 31 31 30 32 33 33 33 33 32 33
33 34 34 34 34 34 34 35 35 34 34 34 34 34 34 34
33 30 28 23 22 23 30 33 33 35 33 33 34 33 32 33
18 30 48 43 15 9 13 25 33 45 51 54 51 30 24 16
0 5 16 18 8 2 4 46 43 46 47 44 43 39 46 28
0 0 0 0 0 0 0 0 0 0 36 61 47 33 46 71
82 94 103 115 133 142 141 140 120 79 92 102 109 118 142 144
145 138 134 123 104 95 121 137 144 144 135 121 101 87 18 0
1 14 15 2 17 26 31 32 32 33 33 33 33 33 33 33
33 34 34 34 34 34 35 34 35 35 34 34 34 33 33 33
33 31 29 26 26 29 33 34 33 35 34 34 34 33 34 33
13 36 49 44 11 1 0 2 9 2 39 53 47 28 23 16
0 1 6 2 3 0 4 46 45 49 50 48 50 55 58 36
11 13 10 2 0 2 2 0 0 0 20 66 52 44 46 67
76 90 99 111 129 138 137 134 90 82 82 86 87 102 125 138
140 126 114 114 117 102 106 124 140 141 134 120 102 90 16 0
3 19 22 15 18 24 31 32 33 33 33 33 33 34 33 33
33 33 34 34 33 34 34 34 34 35 35 34 34 34 34 33
32 31 29 28 28 33 34 34 34 34 34 33 34 34 34 34
10 32 51 45 8 0 3 21 36 11 44 51 43 27 26 24
21 1 7 1 1 0 3 45 45 48 48 47 52 59 59 47
36 35 34 27 15 5 0 0 0 0 7 69 70 53 45 69
78 86 93 107 123 133 135 122 90 89 84 62 67 81 107 124
123 101 85 115 123 130 113 112 130 136 132 118 101 90 10 0
4 22 29 28 31 31 31 32 33 32 32 32 33 33 33 33
33 33 33 33 34 33 34 34 34 34 34 34 34 34 33 32
31 32 31 31 31 33 34 34 33 33 33 34 34 33 33 33
0 32 53 47 7 0 3 9 39 29 47 48 33 26 26 26
13 0 4 0 1 0 3 42 36 42 43 42 44 44 43 42
38 38 36 26 14 9 7 12 2 0 0 61 72 84 55 65
76 80 88 105 118 123 122 117 115 97 81 75 69 72 75 94
106 107 105 112 122 139 132 108 122 129 128 118 106 90 7 1
6 22 30 28 32 33 31 32 32 33 33 32 33 33 33 33
33 33 33 33 34 33 33 33 33 35 34 34 35 35 33 33
33 32 30 30 32 32 31 31 31 32 34 33 34 33 32 31
0 33 55 49 9 0 1 3 9 20 48 50 31 29 31 26
4 0 1 2 0 0 3 47 39 40 40 41 40 38 34 37
41 41 39 34 26 21 20 17 4 0 0 33 73 85 61 63
73 79 86 99 113 119 116 119 117 98 88 80 83 87 100 108
104 113 103 108 113 124 130 119 114 125 126 119 106 93 12 3
11 23 31 29 33 32 32 32 32 33 33 33 32 33 34 33
34 34 34 34 33 34 33 33 33 33 33 33 33 33 33 33
33 33 32 33 34 34 33 33 34 33 35 33 33 33 33 33
0 37 56 51 11 0 0 0 0 10 49 52 30 29 26 27
26 21 16 13 8 5 6 49 40 39 39 39 39 39 40 43
42 42 45 47 42 30 30 16 0 0 0 17 77 74 66 58
69 78 81 95 110 115 110 108 94 85 86 91 97 104 96 100
108 116 109 102 95 100 115 124 120 123 124 118 105 73 3 5
15 23 31 28 33 32 32 32 32 32 32 33 33 33 33 33
33 32 34 33 32 32 33 33 34 33 33 33 34 34 33 33
33 33 32 33 34 34 34 34 34 34 34 34 33 34 34 33
0 34 56 52 11 0 0 0 0 4 47 52 30 29 27 34
52 53 51 49 54 56 53 56 44 42 42 42 43 44 47 50
45 45 47 53 52 36 31 11 0 0 0 4 62 77 74 55
67 75 78 91 109 119 106 96 81 74 82 97 111 115 110 107
123 130 122 107 91 96 111 124 130 126 120 114 104 33 0 6
18 24 32 29 33 32 32 31 32 31 31 32 32 33 34 34
34 33 33 33 33 33 33 33 34 33 34 34 33 33 33 33
33 34 34 34 34 34 34 33 34 33 34 33 32 33 33 32
0 33 55 49 4 0 0 0 0 7 50 55 30 29 28 35
61 62 60 61 60 60 59 59 46 43 38 40 40 43 49 53
47 45 47 46 42 42 34 18 0 0 0 0 6 23 22 52
67 74 78 86 107 119 105 95 81 62 76 85 93 103 112 113
111 105 101 97 80 86 115 129 138 128 123 114 99 15 4 10
23 27 32 29 33 32 32 32 33 33 34 34 34 34 35 34
34 34 33 33 33 32 33 33 34 34 33 33 33 33 33 33
32 33 33 34 34 33 33 33 33 33 33 33 33 33 34 33
0 31 56 49 4 0 0 0 0 5 48 53 28 27 29 32
50 52 53 55 57 58 59 60 28 12 17 8 10 13 21 42
49 45 31 16 24 26 20 11 2 0 0 0 0 0 0 41
67 77 84 75 97 118 110 107 87 31 39 47 79 70 72 78
85 77 67 60 86 99 116 133 135 127 119 111 81 3 5 15
26 27 32 28 34 33 33 33 33 34 34 34 34 34 34 35
35 34 33 33 33 33 33 33 33 33 34 33 33 33 33 33
33 34 33 34 33 33 33 34 33 33 33 34 33 33 32 33
0 31 56 49 4 0 0 0 0 3 45 48 25 28 29 26
32 32 32 32 32 31 32 37 21 0 0 0 0 0 1 29
49 38 6 0 1 4 9 11 6 0 0 0 0 0 0 23
63 77 93 76 81 109 120 111 105 84 56 61 73 90 99 101
103 96 96 98 119 111 122 136 123 118 115 106 47 0 7 19
28 27 32 29 34 32 32 32 33 33 34 33 34 34 34 34
34 33 32 33 32 32 32 33 33 34 33 30 30 29 26 24
21 25 31 34 33 33 33 33 33 33 32 33 33 33 33 32
0 30 56 51 5 0 0 0 0 2 46 53 27 27 27 28
41 42 41 39 38 37 36 38 23 10 3 0 0 0 11 32
48 23 0 0 0 0 1 13 15 3 0 0 0 0 0 12
54 77 99 88 76 93 117 120 106 93 77 83 96 105 106 110
116 114 106 113 119 124 123 131 120 116 113 96 15 1 11 24
27 27 31 29 33 32 33 33 33 33 33 33 33 33 32 31
29 28 25 23 20 24 26 32 33 33 33 20 6 6 5 6
5 10 30 34 33 33 33 34 33 33 33 33 33 33 32 32
43 50 54 48 5 0 0 0 0 2 51 56 27 25 28 29
43 43 45 43 43 43 43 44 23 5 3 0 0 0 12 33
45 13 0 0 0 0 0 11 25 9 0 0 0 0 0 8
44 71 95 99 75 84 111 121 112 100 76 86 102 110 113 115
126 128 110 110 127 131 122 124 116 116 109 59 4 2 15 26
28 27 31 28 33 32 32 32 32 32 33 34 32 13 8 8
8 8 4 3 2 1 3 27 33 32 32 19 5 5 4 5
5 9 31 34 34 34 33 32 33 33 33 32 32 32 32 31
53 51 39 29 21 17 11 9 3 5 48 50 23 24 27 30
44 46 46 44 44 45 46 46 24 4 4 0 0 7 4 21
42 7 0 0 0 0 0 12 34 19 0 0 0 0 0 5
42 58 83 98 84 83 107 107 107 114 92 74 78 92 90 88
93 99 104 127 137 130 121 121 113 111 92 13 2 7 19 26
27 27 31 29 32 32 31 32 33 32 32 33 31 6 2 7
7 8 3 2 1 1 2 26 32 32 31 18 5 5 6 5
5 8 31 33 33 33 33 33 33 32 32 32 32 32 31 32
51 51 49 45 49 49 47 48 45 43 47 44 36 34 33 27
18 18 19 21 21 24 34 49 28 0 0 0 0 8 6 18
43 5 0 0 0 0 0 11 38 29 7 0 0 0 0 3
47 44 70 86 85 81 94 103 102 117 115 108 97 99 102 99
109 123 131 136 136 130 123 115 107 101 44 2 7 10 20 26
26 26 30 28 32 30 31 32 32 32 32 32 30 6 2 6
7 9 3 1 1 0 1 22 31 31 31 16 4 4 5 5
5 6 28 33 33 34 34 32 33 32 32 31 32 32 31 32
48 48 47 47 46 45 46 45 45 44 43 43 43 42 43 42
41 40 40 34 2 1 15 51 37 13 1 0 1 7 4 14
41 3 0 0 0 0 0 11 40 30 11 0 0 0 0 1
48 49 50 71 80 81 84 96 101 113 116 119 118 122 123 124
127 136 137 137 135 132 116 100 98 77 6 3 14 10 19 25
26 26 29 27 31 31 32 32 31 32 32 31 30 7 2 6
8 8 3 1 2 0 0 23 31 32 31 17 5 4 5 5
4 3 27 34 33 32 32 32 31 31 29 29 30 31 31 30
48 47 47 45 45 44 45 44 44 44 44 43 43 42 42 42
42 41 41 39 7 0 10 48 36 7 0 0 0 8 7 14
42 3 0 0 0 0 0 5 41 31 14 1 1 0 0 0
48 56 44 54 70 72 75 80 93 109 113 120 122 127 131 134
138 142 139 136 134 126 105 91 87 43 0 12 17 8 20 25
26 26 29 28 31 31 30 31 31 32 32 32 31 8 2 4
9 8 3 1 2 0 0 23 31 30 31 21 8 9 8 9
11 10 22 30 31 31 31 31 32 31 33 29 31 31 31 31
47 46 45 45 45 44 44 43 44 43 43 42 42 41 41 42
41 40 40 39 10 0 7 43 26 0 0 0 0 0 0 14
42 3 0 1 0 0 0 3 41 30 10 0 2 1 0 0
48 63 54 45 58 64 68 73 86 100 110 121 127 130 129 134
137 142 139 134 129 114 91 85 64 38 7 20 18 7 18 25
25 25 25 26 31 31 31 31 31 32 31 31 29 9 2 4
6 6 3 0 2 0 0 21 31 31 31 23 11 11 10 9
10 10 21 31 33 33 32 33 32 32 32 32 31 31 32 31
15 15 15 15 15 15 15 15 15 16 17 17 18 19 19 20
23 32 38 39 13 0 4 37 23 0 0 0 0 1 1 12
46 6 0 0 0 0 0 2 40 31 13 1 2 2 0 0
44 67 65 52 46 54 58 60 68 83 102 114 121 125 124 128
128 132 133 121 110 95 77 64 62 51 17 20 18 7 17 25
25 25 26 26 30 29 29 30 30 31 30 31 29 9 2 2
2 2 2 1 2 0 0 20 30 32 30 22 4 6 6 6
5 6 21 33 33 33 32 32 32 32 32 31 31 31 31 31
0 0 0 0 0 0 0 0 0 0 0 0 0 0 0 0
4 38 41 39 17 0 3 33 26 4 3 2 2 10 10 14
46 25 15 14 18 16 16 18 45 32 34 35 31 14 0 0
38 72 72 64 48 46 51 54 53 64 79 93 105 110 116 121
116 115 114 103 96 71 59 57 73 60 27 22 19 7 16 24
24 25 26 27 30 30 31 31 31 32 32 32 29 10 2 2
0 0 2 1 2 0 0 21 31 32 30 23 5 5 5 4
9 6 15 25 32 33 32 32 32 32 32 32 31 31 31 31
0 0 0 0 0 0 0 0 0 0 0 0 0 0 0 0
3 40 43 38 20 0 0 28 41 41 36 33 35 38 38 42
40 53 54 49 49 51 52 52 52 34 33 40 40 37 8 0
35 76 76 73 56 45 45 44 44 47 59 73 87 100 104 107
104 100 96 88 69 53 52 64 88 65 28 22 19 7 14 23
24 25 26 26 29 29 29 30 30 32 32 31 28 9 2 3
2 3 6 2 3 0 0 20 30 32 30 24 4 4 1 0
1 0 2 0 31 32 32 33 32 31 32 31 31 31 31 31
0 0 0 0 0 0 0 0 0 0 0 0 0 0 0 0
1 39 43 38 23 0 0 25 43 44 37 38 39 37 31 33
34 49 55 52 51 50 54 54 54 39 27 37 41 41 28 1
32 79 79 76 62 48 46 44 41 42 43 50 66 73 85 88
81 73 70 53 49 49 60 82 96 65 27 22 20 7 12 22
23 24 25 26 29 30 30 31 31 32 32 30 26 10 2 2
2 4 3 2 2 0 0 19 31 32 31 25 5 5 8 1
4 3 5 0 29 32 31 32 31 31 32 31 31 31 30 30
0 0 0 0 0 0 0 0 0 0 0 0 0 0 0 0
0 38 45 38 26 0 0 22 44 39 33 35 39 39 34 32
34 32 36 38 37 36 36 34 35 34 25 26 32 33 28 5
26 78 83 81 76 62 51 45 39 39 36 35 39 41 49 53
46 42 41 42 51 66 83 97 101 66 25 21 19 8 10 21
23 24 24 26 29 29 30 31 31 32 32 29 26 11 3 2
0 0 3 3 3 0 0 19 30 31 30 25 4 5 7 1
3 1 0 0 29 32 32 31 31 30 32 31 31 31 30 31
0 0 0 0 0 0 0 0 0 0 0 0 0 0 0 0
0 36 45 37 29 0 0 19 41 24 31 28 30 37 35 32
36 27 22 24 23 24 24 24 25 30 29 31 33 33 32 14
22 78 83 85 82 72 58 48 45 40 37 34 34 32 31 33
35 43 49 65 71 82 99 107 104 67 26 25 18 12 12 21
23 23 23 24 26 28 29 30 31 31 32 28 26 12 3 2
0 0 2 1 3 0 0 18 29 32 31 24 3 4 5 8
11 6 0 0 28 31 30 31 31 31 32 31 30 31 31 30
0 0 0 0 0 0 0 0 0 0 0 0 0 0 0 0
0 32 46 37 31 2 11 27 41 9 9 12 14 17 18 17
33 30 28 28 28 36 36 34 33 37 38 38 44 45 42 29
31 77 85 88 86 80 70 61 57 52 53 56 60 68 80 90
96 93 97 93 91 103 112 113 105 74 44 44 42 41 40 38
36 34 32 28 24 26 27 29 31 31 31 27 26 12 1 1
2 2 2 1 3 0 0 17 30 30 31 24 4 1 1 4
0 0 0 0 20 10 6 5 21 31 31 30 30 30 30 30
0 0 0 0 0 0 0 0 0 0 0 0 0 0 0 0
0 28 46 37 34 28 36 41 43 3 0 0 0 0 3 6
32 32 41 45 35 50 56 34 25 26 27 29 34 41 46 34
39 76 86 90 90 88 83 76 71 76 85 100 105 113 110 116
120 121 113 108 108 115 120 116 105 76 46 47 44 43 42 40
38 36 35 33 25 24 26 29 30 30 30 27 26 13 1 2
2 1 1 0 1 0 0 15 29 30 30 24 3 1 37 49
7 0 0 0 11 26 31 26 4 29 30 30 30 30 30 29
0 0 0 0 0 0 0 0 0 0 0 0 0 0 0 0
0 25 46 37 35 45 47 50 46 4 0 0 0 0 0 4
37 31 41 46 27 42 49 15 0 0 0 0 1 25 46 35
39 74 86 94 102 106 103 95 87 94 105 115 120 126 122 123
131 128 116 112 115 123 124 119 106 76 45 46 44 44 43 40
38 37 36 34 27 22 26 29 30 31 30 27 26 14 1 1
1 1 1 1 1 0 0 15 29 30 30 27 12 11 40 44
16 0 0 12 32 31 31 30 14 20 31 30 30 30 30 30
0 0 0 0 0 0 0 0 0 0 0 0 0 0 0 0
0 22 45 36 35 47 50 52 50 9 0 0 0 0 0 0
37 29 39 42 3 4 22 16 0 0 0 0 0 20 44 34
36 73 87 100 110 115 115 110 101 98 105 115 126 130 131 132
134 126 118 116 121 126 126 120 108 75 54 49 46 44 42 40
35 36 35 34 28 19 25 27 29 30 30 28 26 15 1 1
1 0 0 0 1 0 0 15 28 29 30 29 29 14 16 7
7 0 0 13 31 31 30 30 18 15 30 28 29 29 30 30
0 0 0 0 0 0 0 0 0 0 0 0 0 0 0 0
0 19 46 37 35 33 31 30 26 3 0 0 0 0 0 2
39 30 39 43 3 1 20 18 0 0 0 0 0 15 43 37
38 76 87 102 112 118 121 116 105 103 107 109 116 129 137 141
135 124 119 120 125 131 128 121 109 75 62 60 45 43 41 39
38 35 35 34 30 16 24 26 29 29 29 27 26 15 0 1
1 0 0 0 1 0 0 13 28 27 31 30 30 17 0 0
0 0 2 12 33 32 32 31 18 16 31 31 31 30 29 29
0 0 0 0 0 0 0 0 0 0 0 0 0 0 0 0
0 16 45 36 33 16 12 14 11 0 0 0 0 0 0 2
38 29 39 42 2 0 18 20 0 0 0 0 0 10 45 55
43 79 86 102 114 119 121 119 112 106 110 112 115 123 134 135
127 124 122 125 132 136 130 122 110 65 50 61 49 43 40 37
38 35 35 33 31 13 21 23 27 28 29 28 26 16 1 1
0 0 0 0 1 0 0 14 29 29 30 20 4 14 0 0
0 0 0 8 30 29 29 29 11 22 30 30 30 29 30 29
0 0 0 0 0 0 0 0 0 0 0 0 0 0 0 0
0 12 44 37 33 19 13 15 11 0 0 0 0 0 0 3
39 27 39 41 2 1 16 22 0 0 0 0 0 8 51 55
37 71 90 103 113 120 123 123 119 112 113 116 117 120 127 130
130 130 129 133 137 137 131 124 113 49 60 82 68 44 39 39
38 33 35 33 32 15 21 25 27 28 28 28 25 16 2 2
1 1 0 0 0 0 2 17 28 29 29 17 31 47 14 0
0 0 0 8 30 30 29 24 6 29 29 29 29 29 28 29
0 0 0 0 0 0 0 0 0 0 0 0 0 0 0 0
0 11 43 35 31 21 16 18 13 0 0 0 0 2 0 0
37 27 39 40 1 1 15 22 1 0 0 0 0 19 64 63
52 47 89 102 112 119 124 128 125 117 118 120 122 123 127 131
136 134 133 133 139 138 134 126 111 26 62 87 82 56 41 38
38 34 33 32 31 17 18 23 26 27 27 26 25 24 20 18
13 11 10 5 2 2 10 16 21 20 19 11 25 24 9 0
0 0 0 3 12 12 14 5 20 13 9 17 30 29 29 29
0 0 0 0 0 0 0 0 0 0 0 0 0 0 0 0
0 10 43 35 31 25 21 21 13 0 2 0 0 5 1 0
36 28 41 41 12 3 13 23 6 2 1 3 1 49 67 55
58 24 82 102 113 121 125 127 130 126 121 121 124 129 133 137
139 138 137 139 141 140 136 130 90 18 58 69 83 66 50 48
38 36 36 34 31 21 16 23 25 26 27 26 25 24 23 20
10 2 1 0 0 0 0 0 0 0 0 0 0 0 0 0
0 0 0 0 0 0 0 0 11 6 12 13 31 30 29 29
0 0 0 0 0 0 0 0 0 0 0 0 0 0 0 0
0 8 43 35 31 25 22 22 15 2 6 0 0 7 15 1
35 29 42 38 17 10 12 22 2 8 9 5 10 70 70 53
75 19 53 101 111 119 125 130 134 132 127 127 131 136 140 141
143 142 141 142 143 141 137 128 57 29 62 88 86 78 37 45
53 49 42 33 29 25 12 21 23 26 27 26 25 24 24 22
8 0 1 3 4 5 7 8 10 10 10 12 12 14 15 16
18 19 20 20 12 0 0 20 6 3 39 29 31 32 31 35
0 0 0 0 0 0 0 0 0 0 0 0 0 0 0 0
0 7 42 36 31 26 22 22 20 3 8 4 3 11 17 11
34 33 43 37 14 22 11 20 0 8 9 11 48 75 71 55
91 33 29 86 111 120 126 133 137 135 129 131 136 138 140 143
144 144 144 144 144 143 139 111 32 42 64 90 89 90 57 19
50 55 65 54 31 27 11 22 24 26 26 26 24 24 24 22
9 0 6 16 20 21 22 23 24 24 24 24 23 24 25 26
28 28 28 24 14 0 0 7 3 0 4 2 3 3 5 48
0 0 0 0 0 0 0 0 0 0 0 0 0 0 0 0
0 7 42 37 32 27 25 22 32 38 41 42 43 44 45 46
52 40 42 34 4 26 13 28 21 23 32 38 58 77 74 57
82 53 23 54 108 120 127 135 138 140 137 135 138 141 143 145
146 145 145 145 145 144 136 72 28 58 66 86 90 97 69 65
42 38 71 80 69 36 11 20 23 25 26 26 22 7 5 4
4 0 8 18 21 24 25 26 26 26 26 26 27 27 28 29
30 30 29 25 16 0 0 0 0 0 0 0 0 0 5 49
0 0 0 0 0 0 0 0 0 0 0 0 0 0 0 0
0 7 44 38 33 28 26 24 34 49 49 49 50 50 50 51
55 51 42 35 0 12 13 29 23 43 40 39 69 76 74 56
65 69 24 39 82 120 128 136 142 144 143 139 139 142 144 146
147 147 146 146 146 145 116 46 34 70 72 75 89 103 94 77
79 31 57 85 89 73 30 18 23 26 26 26 23 0 0 0
0 0 9 19 22 26 27 28 28 28 29 28 29 30 31 31
32 32 30 27 17 0 0 0 0 0 0 0 0 0 5 46
0 0 0 0 0 0 0 0 0 0 0 0 0 0 0 0
0 6 44 38 32 28 26 24 26 49 48 48 46 46 46 45
46 46 40 34 0 5 9 32 43 41 41 64 70 76 75 64
75 78 37 37 59 107 126 136 143 146 147 144 143 143 144 146
146 147 147 147 146 139 76 42 44 72 77 88 90 108 99 72
87 77 40 65 75 86 78 41 23 32 38 29 22 0 0 0
0 1 10 18 22 25 27 28 29 29 29 30 30 31 32 33
34 33 31 28 18 0 0 0 0 0 0 0 0 31 43 44
0 0 0 0 0 0 0 0 0 0 0 0 0 0 0 0
0 6 43 38 32 29 26 26 18 16 15 13 14 14 14 14
18 18 35 35 0 4 9 47 44 27 55 57 65 76 76 73
64 87 58 37 55 82 122 135 142 146 147 147 145 142 142 146
146 147 147 146 147 112 53 49 64 78 86 85 91 110 102 71
82 98 89 36 57 73 90 82 41 13 19 41 47 28 4 0
0 2 11 18 22 25 26 27 29 30 30 31 31 32 33 34
34 32 31 29 19 0 0 0 0 0 0 0 0 37 42 41
0 0 0 0 0 0 0 0 0 0 0 0 0 0 0 0
0 5 42 37 31 27 25 25 19 14 14 13 13 13 14 15
18 18 36 37 1 1 27 55 29 15 60 50 60 78 77 77
55 66 68 58 55 71 96 129 140 146 148 147 147 146 146 147
147 147 147 146 137 72 51 61 73 76 92 84 92 108 106 77
93 95 102 80 19 59 89 93 89 83 71 63 53 42 55 39
22 5 11 18 21 23 26 27 28 29 30 31 31 33 34 34
35 34 33 31 19 0 0 0 0 0 0 0 0 37 38 39
0 0 0 0 0 0 0 0 0 0 0 0 0 0 0 0
0 5 41 37 30 28 26 25 23 20 19 17 16 16 16 16
19 19 38 39 16 25 64 52 16 42 51 63 60 77 77 79
59 83 75 82 61 73 80 108 138 145 147 147 147 147 147 146
147 147 146 145 106 56 55 75 60 74 90 76 90 105 103 74
95 79 100 105 36 29 68 92 86 88 85 79 78 68 31 51
66 59 37 20 20 23 25 27 28 30 30 31 33 33 34 34
34 33 33 32 18 0 0 0 0 0 0 0 1 35 36 35
0 0 0 0 0 0 0 0 0 0 0 0 0 0 0 0
0 4 41 37 30 26 25 25 25 22 21 21 21 22 21 20
21 21 42 47 36 57 80 45 18 62 47 57 68 75 77 79
67 86 81 85 78 78 85 89 116 144 146 147 147 147 147 147
147 147 146 127 71 57 66 90 79 76 14 73 92 106 107 79
72 78 105 110 65 22 51 78 88 85 87 84 79 77 67 26
61 67 68 59 42 28 24 26 28 29 29 31 32 33 34 34
34 34 34 33 18 0 0 8 23 8 0 0 4 34 34 33
0 0 0 0 0 0 0 0 0 0 0 0 0 0 0 1
2 10 44 38 30 27 25 25 25 23 27 26 21 21 21 21
24 35 54 57 41 77 81 44 28 61 49 51 59 62 78 79
74 68 88 63 65 86 94 92 95 124 146 147 147 147 147 147
147 147 137 92 68 66 87 93 87 71 6 26 93 107 110 87
98 77 107 108 80 73 44 72 86 87 81 84 80 76 75 63
31 77 71 70 64 63 51 42 37 30 30 31 33 33 34 34
34 34 34 33 18 0 0 13 31 7 0 0 6 34 33 33
11 11 12 14 16 17 18 20 22 24 25 26 27 28 29 30
30 31 33 31 30 26 24 21 20 38 37 33 35 28 24 33
50 55 60 56 60 81 80 36 44 63 53 46 55 59 77 78
80 60 63 5 19 78 99 101 97 102 129 147 147 147 147 147
146 144 115 83 75 84 98 72 89 60 0 1 79 106 107 83
98 79 105 110 78 82 38 73 78 86 82 81 80 79 80 78
54 49 77 69 72 63 64 61 58 58 48 41 34 32 33 33
34 34 34 34 18 0 0 0 0 0 0 0 8 34 32 32
39 38 30 17 20 24 18 16 27 35 35 33 33 32 32 31
31 30 31 31 30 26 24 18 39 40 32 22 43 55 57 52
52 56 60 60 75 84 75 27 63 64 69 49 51 66 64 79
80 67 21 1 9 52 97 103 102 102 113 136 146 147 147 146
145 122 96 86 87 95 104 80 49 3 0 0 51 105 105 91
92 81 104 107 77 84 50 55 80 79 86 79 82 82 81 82
78 39 77 75 73 69 65 66 65 59 61 56 47 34 32 32
32 32 33 33 16 0 0 0 0 0 0 0 12 33 32 32
39 15 19 33 36 36 35 32 20 16 32 35 34 33 33 32
31 31 30 30 29 26 29 38 42 40 16 32 56 59 59 62
57 62 67 67 81 78 67 40 57 46 56 39 20 76 54 80
83 83 10 1 15 54 74 94 100 105 111 118 136 147 147 145
127 100 93 99 107 106 89 82 35 0 0 0 13 103 111 95
83 77 103 105 81 114 69 50 67 76 88 83 80 86 82 82
81 69 46 79 64 71 71 63 62 65 58 60 52 39 31 31
32 32 32 32 16 0 0 0 0 0 0 0 14 32 31 31
12 32 38 38 37 36 36 37 36 31 15 30 33 32 32 31
30 28 27 25 20 33 43 44 48 40 22 39 59 58 61 63
61 64 65 71 79 57 55 52 47 41 52 30 17 53 53 72
81 84 6 0 7 58 70 73 102 107 114 117 123 132 139 118
100 98 96 59 94 99 57 65 54 7 2 3 11 63 112 95
102 91 104 104 78 110 73 53 57 67 83 87 78 82 82 80
82 80 36 76 69 78 41 58 64 67 65 61 58 50 30 31
32 31 33 32 16 0 0 0 0 0 0 0 12 32 31 31
35 36 35 33 32 31 29 27 25 22 16 8 13 11 8 7
9 10 9 1 22 42 45 44 49 41 20 41 62 59 63 68
68 65 61 76 67 45 42 48 41 33 50 27 19 51 72 59
83 79 6 0 4 51 80 68 92 98 110 120 122 109 100 98
99 106 68 83 104 94 52 90 74 59 49 37 48 29 68 101
101 91 103 103 82 108 80 59 67 56 72 88 81 79 79 78
81 79 59 45 80 73 20 27 48 59 68 63 64 60 33 31
32 32 33 33 16 0 0 0 0 0 0 0 3 29 31 31
7 11 18 21 22 22 21 21 16 6 5 5 0 0 1 3
5 2 0 15 48 46 45 42 49 51 19 36 62 62 63 68
68 59 68 73 51 62 54 53 55 43 64 28 26 60 74 54
79 84 6 0 8 25 77 81 71 87 109 114 96 56 69 90
111 105 92 109 101 89 85 118 82 96 102 95 73 41 20 56
91 89 105 102 80 76 77 79 72 76 60 73 83 79 77 77
77 80 75 32 80 73 31 26 38 66 72 76 70 65 33 31
32 32 33 34 16 0 0 0 0 0 0 0 14 14 31 30
6 14 35 39 42 42 44 48 47 47 45 40 8 2 7 4
5 0 5 41 52 49 46 44 47 56 26 34 63 64 61 67
68 64 79 71 44 74 63 66 57 49 78 25 30 78 63 64
72 76 3 1 32 35 50 73 61 52 66 64 89 49 37 68
114 102 96 110 125 96 87 105 82 101 103 104 94 85 43 27
56 80 104 104 80 104 78 75 67 65 45 54 73 84 76 73
76 80 77 50 56 82 35 24 41 66 80 80 73 63 31 31
33 34 36 39 17 0 0 5 2 0 0 0 24 10 26 29
18 25 62 63 63 61 61 56 54 49 48 41 16 0 2 6
2 0 28 43 54 50 46 44 44 60 42 38 59 65 63 63
66 71 77 66 47 64 65 68 64 70 90 51 41 98 61 58
68 81 31 17 48 52 50 74 72 55 44 69 88 84 34 88
115 100 99 119 119 103 89 110 81 102 100 105 103 92 86 50
47 63 105 104 81 107 70 52 54 45 65 73 64 77 80 72
78 83 80 76 53 86 49 24 42 66 80 81 74 58 34 35
35 37 39 43 17 0 42 112 56 0 0 0 27 24 10 30
16 20 58 51 53 54 52 49 46 43 48 45 30 3 5 0
0 20 38 45 56 55 45 45 44 56 60 38 62 63 60 64
68 76 71 53 29 19 22 40 70 97 101 85 51 103 77 75
78 91 78 67 75 87 84 79 105 64 55 42 62 64 53 110
100 87 105 127 113 112 83 80 77 105 101 102 107 92 83 87
101 68 79 106 81 105 64 47 46 55 67 59 43 62 83 71
81 88 89 87 76 76 50 28 40 59 78 81 74 55 11 5
5 4 4 4 1 0 77 147 74 0 0 0 28 28 12 22
44 42 53 66 69 68 66 64 54 44 41 36 11 0 7 11
23 39 39 49 57 58 47 47 46 57 75 64 61 63 69 70
73 69 64 59 57 48 50 50 85 104 109 92 53 101 94 75
88 93 98 93 72 90 75 104 74 93 77 61 57 61 80 114
85 88 111 125 110 123 79 84 79 108 104 101 111 91 102 89
119 110 80 102 82 72 49 53 64 73 60 5 43 53 82 71
83 85 90 90 84 61 49 30 41 54 71 78 74 60 55 19
0 0 0 0 0 0 16 32 12 0 0 2 29 29 25 6
33 33 38 46 44 42 40 38 29 25 24 10 0 19 68 74
41 39 43 53 63 62 56 43 47 56 77 77 83 73 82 83
72 61 63 61 61 53 57 60 96 108 109 94 63 105 104 76
53 110 105 97 70 103 75 112 98 65 74 52 44 69 91 112
89 92 112 125 111 121 79 111 83 112 103 97 113 92 98 86
118 114 114 109 85 47 45 36 67 36 39 30 22 56 81 69
87 83 89 93 87 45 45 29 45 50 67 76 72 48 59 68
33 0 0 0 0 2 0 0 0 0 0 3 24 18 3 3
33 34 35 36 36 36 36 32 23 22 21 9 1 7 18 40
40 40 46 56 64 61 62 47 45 54 77 82 83 79 76 66
61 63 54 64 60 53 57 62 98 109 111 91 77 106 106 64
74 106 108 102 69 89 70 109 110 94 71 61 38 62 109 120
92 91 119 124 112 114 76 109 83 114 104 94 111 91 102 88
119 114 118 110 87 70 51 83 103 49 56 54 30 67 71 75
93 84 83 82 83 45 36 29 49 53 60 75 67 11 14 52
73 15 0 0 0 1 0 0 0 0 0 0 5 6 21 22
21 20 17 14 11 8 26 28 22 21 20 18 23 0 35 39
41 39 47 62 69 64 61 51 38 54 73 79 76 72 61 61
80 71 43 65 60 53 58 57 98 108 109 81 86 102 61 75
93 104 115 112 84 78 66 100 119 117 81 59 52 38 115 124
99 92 124 122 107 107 80 122 89 111 101 92 111 92 99 88
120 114 119 114 94 92 83 92 109 59 53 62 37 62 59 80
93 93 79 78 74 28 29 36 48 56 56 74 63 8 0 2
34 66 8 0 0 0 0 0 0 0 0 0 1 1 10 13
0 0 0 0 0 0 10 9 3 7 9 4 15 33 50 40
39 40 50 64 64 58 64 64 39 52 70 73 63 63 74 82
83 70 53 65 59 52 58 55 97 107 107 81 101 73 66 84
98 102 115 119 91 98 89 97 117 118 98 58 58 74 115 117
93 94 121 113 98 110 83 105 82 112 97 94 110 88 86 91
121 117 122 117 100 100 95 94 107 62 53 67 55 49 54 68
89 87 84 92 63 12 17 34 48 59 54 72 61 28 5 0
0 35 60 5 0 0 0 0 0 0 0 0 0 0 0 0
0 0 0 0 0 0 0 0 0 0 0 26 42 38 47 47
40 43 56 60 65 73 74 67 43 50 61 63 73 68 84 79
74 63 61 58 61 56 60 52 89 105 114 113 109 75 101 79
100 97 116 120 99 92 92 89 115 115 105 53 59 88 112 111
84 86 115 120 101 112 83 97 82 116 98 97 116 92 103 89
119 117 121 120 106 81 89 96 113 67 54 68 66 39 56 80
75 81 86 99 88 37 2 30 51 55 50 67 56 41 34 8
0 0 40 36 0 0 0 0 0 0 0 0 0 0 0 0
0 0 0 0 0 0 0 0 0 0 29 46 3 50 43 53
41 44 57 62 68 73 67 71 52 48 60 82 73 74 83 75
67 67 72 52 65 55 61 57 63 102 115 115 115 83 115 83
104 96 109 119 104 89 111 83 115 109 103 55 54 74 113 88
99 90 121 119 103 111 82 117 87 112 100 99 117 95 109 92
122 122 123 124 111 72 86 93 116 89 52 68 70 42 68 76
86 83 76 90 92 64 17 32 41 61 47 63 55 48 42 37
5 0 10 59 2 0 0 0 0 0 0 0 0 0 0 0
0 0 0 0 0 0 2 4 9 29 43 1 26 51 49 55
44 45 62 64 74 68 70 68 47 40 68 76 70 82 80 74
68 78 71 49 67 55 61 39 54 99 116 118 114 84 101 84
93 94 105 120 108 74 82 77 115 111 111 80 47 74 103 81
110 96 125 121 109 113 83 118 81 106 102 98 118 93 107 93
122 124 121 122 118 85 106 95 124 110 56 68 69 47 67 73
76 83 83 74 81 57 33 36 22 52 62 56 51 55 45 45
30 6 0 53 22 0 0 0 0 0 0 0 0 0 0 0
0 0 2 8 14 24 34 27 25 53 4 1 55 46 53 54
45 49 66 67 74 63 62 55 36 45 67 80 77 81 75 73
67 77 68 60 63 56 62 28 60 93 115 113 112 94 97 100
84 92 108 121 114 71 87 78 113 113 110 81 68 93 98 77
96 113 122 124 109 111 83 116 83 106 108 95 121 93 113 97
123 124 122 120 122 83 102 92 125 116 63 69 70 49 74 77
83 74 76 84 81 33 39 35 21 13 62 65 45 54 50 47
48 27 4 37 19 0 0 0 0 0 0 0 0 0 0 0
