P2
128 120
153
47 47 46 46 46 45 45 44 45 44 44 43 43 42 42 42
40 40 39 38 38 38 37 36 36 35 35 34 33 33 33 32
31 31 29 29 29 28 28 27 27 26 26 26 25 25 24 23
23 22 22 21 21 20 20 19 18 18 18 19 24 24 25 24
19 9 19 25 20 19 19 18 18 16 15 13 14 14 13 8
9 11 14 16 18 18 19 20 20 20 21 21 21 21 21 22
22 23 23 24 24 25 25 25 25 26 26 27 27 27 30 28
29 29 30 30 31 31 31 30 31 32 33 33 32 33 32 34
47 46 46 45 45 45 45 44 44 44 43 43 42 42 41 40
39 39 39 38 38 37 37 36 35 35 35 34 34 33 32 31
31 30 29 29 29 28 28 27 27 27 26 25 25 24 24 23
23 22 22 21 21 20 20 20 19 19 20 21 25 26 25 25
19 11 17 26 21 20 19 19 18 17 16 16 15 15 14 10
10 11 15 17 19 19 19 20 21 21 21 21 21 22 23 23
23 24 23 25 25 24 26 27 26 27 27 27 28 28 30 28
28 29 30 30 31 30 31 32 32 32 33 34 34 33 33 35
47 47 46 46 45 45 45 44 44 43 43 43 43 42 42 41
41 40 39 38 38 37 37 36 36 35 35 34 34 33 33 33
32 31 31 30 29 29 28 28 27 26 26 26 26 25 24 24
23 23 22 22 22 21 21 20 19 20 20 21 26 26 27 26
20 13 17 26 22 20 20 19 19 18 17 17 15 15 15 12
12 13 16 19 20 20 19 20 21 21 23 23 23 23 24 24
25 25 26 26 25 26 27 27 27 27 27 28 28 28 30 28
30 31 30 31 32 31 33 32 32 33 33 33 33 33 32 31
46 46 46 46 46 45 44 45 44 44 43 42 42 42 41 41
41 40 40 39 38 37 37 37 36 35 35 34 34 33 33 32
32 31 31 31 29 29 29 29 28 27 27 26 26 25 25 24
24 23 23 22 22 22 22 21 20 20 21 23 27 26 26 26
20 15 15 26 22 21 21 20 19 19 19 19 17 16 15 13
13 13 17 19 19 20 21 21 22 22 23 23 23 24 24 24
25 25 26 26 26 26 26 26 27 28 28 28 28 29 30 30
30 30 31 31 32 32 29 32 33 33 32 31 31 33 34 34
46 46 46 46 45 45 44 44 44 43 43 43 42 42 42 41
41 40 40 38 38 37 37 36 36 35 35 34 34 33 33 32
32 32 31 31 30 29 29 28 27 27 27 27 25 25 25 24
25 24 23 23 22 22 22 21 21 20 21 22 27 27 27 27
20 16 14 26 22 21 20 20 20 19 17 18 16 17 16 15
15 15 19 21 21 22 22 23 22 23 23 23 24 24 24 24
25 25 26 26 27 27 26 27 27 28 28 28 28 29 30 29
30 31 32 32 33 32 31 29 32 32 33 33 33 33 34 33
46 46 46 45 45 45 45 44 44 43 43 42 42 42 41 41
40 40 39 39 38 38 37 37 36 36 36 34 35 33 33 33
32 31 31 31 30 30 29 29 29 27 27 27 26 26 25 24
24 24 23 23 22 23 22 22 22 22 23 24 28 28 28 27
21 16 14 27 22 21 20 21 21 20 19 20 18 18 17 15
16 16 20 22 21 22 22 23 23 24 24 25 25 24 25 25
25 25 26 26 27 27 27 27 27 29 28 29 29 29 30 31
30 30 29 28 30 31 32 33 32 32 33 34 34 34 34 34
46 46 46 45 45 45 45 44 44 43 44 43 43 42 41 41
41 40 40 38 37 37 37 36 36 35 35 35 34 34 34 33
33 32 31 31 30 30 29 30 29 28 27 27 27 26 25 26
25 25 24 24 23 23 23 22 22 21 23 24 28 28 28 27
23 17 11 25 24 22 21 21 21 20 20 20 18 18 18 16
15 17 21 22 22 22 23 23 24 24 24 24 24 25 25 26
26 26 26 27 27 27 28 28 28 29 28 29 29 29 28 28
29 30 32 32 33 33 33 34 33 33 33 33 34 34 34 33
45 45 46 45 45 45 44 44 44 44 43 43 42 41 41 41
40 39 39 38 38 38 37 37 37 36 36 35 35 34 34 33
33 32 31 31 31 30 30 29 29 28 28 27 27 27 26 26
26 25 25 24 24 23 23 23 22 22 24 24 29 28 29 28
21 13 7 23 24 23 23 22 21 21 20 22 19 19 19 18
17 19 22 23 22 22 23 24 24 24 25 25 25 25 26 26
26 26 27 27 27 27 28 28 29 29 28 27 28 28 30 31
31 31 32 32 33 33 33 34 33 33 33 33 34 34 34 34
46 46 46 45 45 44 44 43 43 44 43 42 42 41 42 41
40 39 39 38 38 37 37 37 36 36 35 34 34 34 33 33
33 32 31 31 31 30 30 29 28 28 28 27 27 26 26 25
26 25 25 24 24 24 24 22 22 22 23 24 29 29 29 29
22 16 14 26 26 23 23 23 22 20 20 21 19 19 19 18
17 19 23 23 24 24 24 24 24 25 25 25 25 25 25 26
26 26 26 27 27 28 27 27 27 27 28 30 30 30 30 31
31 32 32 32 32 33 33 35 33 33 34 33 34 34 34 34
48 46 45 45 44 45 44 44 44 43 43 42 42 42 41 40
40 39 39 38 38 38 38 37 36 36 36 35 35 34 34 33
33 32 32 31 30 30 30 30 29 29 29 28 28 28 27 26
26 25 25 24 25 23 23 23 23 23 23 25 29 30 30 29
23 16 18 24 25 23 23 22 22 22 21 22 19 20 20 19
17 20 23 24 24 23 25 25 25 25 25 26 26 26 26 27
27 26 27 27 28 27 28 28 29 29 29 29 30 31 31 32
32 32 32 32 32 33 34 34 34 34 34 34 34 34 35 35
62 63 63 60 55 49 44 44 43 43 42 42 42 41 40 40
40 40 39 39 38 38 37 37 36 36 36 35 35 34 34 33
33 32 32 32 31 31 31 30 30 29 29 28 28 27 27 26
26 26 25 25 24 24 24 23 23 23 24 25 30 30 30 29
24 18 22 23 27 25 24 23 23 21 21 22 20 19 20 19
17 21 24 25 25 25 25 25 26 25 26 26 26 26 26 25
26 26 28 27 28 29 29 30 30 29 30 30 31 30 31 31
31 32 33 32 33 33 34 35 34 34 34 34 35 35 34 34
35 46 55 59 60 53 44 44 43 44 43 42 42 41 41 41
40 39 39 39 38 38 38 38 37 37 36 36 35 35 34 33
33 33 32 32 32 31 31 30 30 29 29 28 29 28 28 27
27 27 26 25 24 25 24 24 23 24 24 26 31 30 31 30
24 19 23 21 26 24 24 24 24 23 22 23 21 21 21 20
18 22 24 25 25 25 25 25 26 25 26 26 25 25 27 27
27 28 28 29 29 29 29 29 30 30 30 30 31 32 31 31
32 32 33 33 34 34 34 34 34 35 34 34 35 35 35 35
0 0 1 28 61 54 44 44 44 43 43 43 42 42 42 41
41 40 40 39 39 39 38 38 37 37 37 35 35 34 35 34
34 33 33 33 33 32 32 31 31 30 30 30 29 28 28 28
28 26 27 26 26 25 25 25 25 25 25 26 32 31 31 31
25 20 25 21 27 25 25 24 24 24 23 24 21 21 22 20
19 22 25 26 26 26 27 26 26 26 26 27 27 27 28 27
28 28 29 29 29 30 30 31 31 31 31 31 31 32 32 31
33 33 33 34 35 35 35 36 35 35 35 35 35 35 35 35
0 0 0 24 61 54 44 44 44 44 43 43 43 42 42 42
41 40 40 39 39 39 38 38 38 37 37 37 36 35 35 35
34 34 33 33 33 31 32 31 31 31 30 30 30 29 29 28
28 28 27 26 25 25 26 25 25 25 25 27 32 32 33 32
25 20 27 20 28 26 25 25 25 24 24 25 22 23 22 22
20 24 25 26 26 26 26 27 27 27 28 28 28 28 29 29
29 29 30 30 30 30 31 31 30 31 31 31 32 32 32 33
33 33 34 35 35 35 35 36 35 35 35 35 36 36 36 35
0 0 0 23 61 54 44 44 44 43 43 42 42 42 42 42
41 40 40 40 40 40 39 38 38 37 37 36 36 36 35 35
34 34 34 33 33 32 33 32 31 31 31 30 30 29 29 29
28 28 27 27 27 26 26 25 26 26 26 27 33 33 32 32
26 21 28 19 28 27 26 26 25 24 24 26 22 22 22 22
18 22 24 26 27 28 27 27 28 28 28 28 28 28 29 28
28 30 30 30 30 30 31 31 31 31 32 32 33 33 32 33
33 33 34 34 35 34 35 36 36 35 36 36 36 35 34 34
0 0 0 23 60 52 44 45 44 44 44 43 43 43 42 42
41 41 41 40 39 39 39 38 37 38 37 37 36 36 36 35
34 34 34 33 33 33 33 32 32 32 31 31 31 29 30 29
28 28 28 27 27 26 26 26 26 26 27 28 33 33 33 32
26 22 30 19 29 27 26 26 26 25 25 27 23 24 23 23
19 25 26 27 27 27 27 28 27 27 28 28 28 29 29 30
30 30 30 31 30 30 32 32 31 31 32 32 33 33 33 34
33 34 34 35 34 35 35 35 34 33 34 35 34 35 37 36
3 0 0 25 60 52 45 44 44 44 43 43 43 42 42 42
41 41 40 40 40 39 39 38 38 37 37 37 37 36 35 35
35 35 34 34 33 33 32 33 32 31 31 30 30 30 29 29
29 29 28 27 27 27 27 26 27 27 27 28 33 34 33 33
26 22 30 20 29 27 27 27 26 25 25 28 23 24 23 23
20 25 26 28 28 29 28 28 29 28 28 29 29 29 28 29
29 30 30 31 31 31 32 32 32 32 33 33 33 32 33 34
34 34 34 35 34 33 34 34 34 36 36 36 35 36 36 37
6 0 0 27 59 51 44 44 44 43 44 44 43 42 42 42
42 41 41 39 40 39 39 38 38 38 38 37 37 36 36 35
35 35 34 34 33 32 32 32 32 32 32 31 31 30 29 28
28 28 28 28 27 27 27 26 26 27 27 29 34 34 33 33
27 22 30 21 29 27 27 26 26 26 25 27 23 24 24 24
20 25 26 28 27 28 28 28 29 29 29 29 30 29 30 30
31 30 31 31 31 31 31 32 32 32 32 32 33 33 34 33
34 33 34 34 35 36 36 36 35 35 35 35 35 36 35 36
15 0 0 27 59 50 44 44 43 43 43 42 42 42 42 41
41 40 40 39 39 39 38 38 38 38 37 36 36 36 36 35
35 34 34 34 33 33 32 32 32 32 31 30 29 29 27 24
26 27 26 27 27 26 26 27 26 27 27 29 33 33 33 33
26 21 30 23 27 26 27 26 26 25 25 26 22 24 23 22
19 25 25 27 27 28 28 28 29 29 30 30 29 28 29 29
30 30 30 30 31 31 31 32 32 32 32 31 31 32 32 33
34 34 34 35 35 35 35 35 35 36 36 36 35 35 35 35
11 1 0 26 57 50 43 44 43 43 43 42 42 41 41 41
40 39 40 39 38 39 38 38 37 37 37 36 36 36 36 35
34 34 33 33 33 32 32 31 30 31 31 28 26 25 24 23
20 22 23 26 26 26 26 26 25 26 27 28 34 34 34 33
27 21 30 24 25 27 27 26 26 25 25 25 23 24 24 23
18 25 25 28 28 28 28 28 28 28 29 29 29 29 29 29
30 30 30 31 31 31 31 30 30 30 30 32 32 32 33 34
34 34 34 35 34 34 34 34 35 35 35 34 35 34 34 35
8 10 8 28 57 49 43 43 43 42 42 42 41 40 40 40
39 39 39 39 38 38 38 37 37 37 36 35 36 35 35 34
34 33 34 33 32 31 31 28 27 26 24 17 13 8 6 7
12 10 11 14 17 20 23 23 24 26 27 28 33 33 33 32
26 20 29 26 24 27 27 26 26 25 24 23 22 23 23 23
18 24 24 27 27 27 28 28 28 28 29 28 28 29 29 29
29 29 29 29 29 30 31 31 30 31 31 32 32 32 32 34
33 33 33 33 34 33 35 34 34 34 34 34 35 34 34 34
11 6 17 39 57 48 42 42 42 42 42 42 42 41 41 41
40 40 39 38 39 38 38 37 37 36 36 36 36 35 35 35
34 33 32 33 32 31 28 27 28 21 11 5 2 0 0 0
2 8 1 1 4 7 5 8 15 24 27 28 33 34 34 33
27 20 30 28 21 28 26 26 26 24 24 23 23 23 23 23
19 26 24 27 28 28 28 29 29 28 29 29 29 29 29 29
29 30 30 30 31 30 31 31 30 31 32 32 32 32 33 33
33 33 34 34 34 35 35 34 34 34 34 34 34 35 34 34
47 45 41 46 54 47 43 43 43 42 42 41 41 41 40 40
40 39 40 39 39 39 38 38 37 37 36 36 36 35 34 34
34 34 32 32 31 29 28 25 13 3 0 0 0 0 0 0
0 0 2 0 0 1 2 0 2 7 20 29 34 33 33 33
26 20 29 30 20 28 27 26 26 25 25 23 23 24 24 24
19 26 24 28 28 28 28 28 28 28 28 28 28 28 29 29
29 30 30 30 30 30 31 32 31 32 32 32 33 33 33 34
33 33 33 34 33 34 34 33 34 34 34 34 34 35 34 33
41 43 45 45 46 44 44 43 43 43 42 42 42 42 42 41
41 40 39 40 39 38 38 38 37 37 37 37 36 36 35 35
34 33 33 30 30 25 20 13 0 0 0 0 0 0 0 0
0 0 0 1 2 0 3 2 1 0 2 11 30 35 35 34
28 20 30 33 21 28 27 27 26 25 25 24 24 24 24 24
20 27 25 28 29 28 28 28 28 28 29 29 29 29 29 30
31 31 31 31 32 31 32 32 32 32 32 32 33 33 33 34
33 33 34 34 35 35 34 34 35 34 35 34 35 35 34 34
27 31 36 41 45 45 44 44 44 43 43 42 42 42 41 41
40 40 40 40 39 39 38 38 38 37 37 36 36 36 36 33
32 33 32 26 22 11 7 2 0 0 0 0 0 0 0 0
2 4 4 2 1 4 3 3 5 1 1 3 9 23 30 34
29 20 30 33 20 28 28 27 27 26 26 24 25 25 25 24
20 26 23 28 29 28 29 29 30 29 30 30 30 30 31 31
32 31 31 31 31 32 32 32 33 33 33 33 34 34 34 35
34 33 34 34 35 35 34 34 35 35 35 35 35 35 35 36
20 19 18 20 22 27 32 37 41 44 44 44 43 43 43 41
41 41 40 40 39 38 38 38 38 37 37 37 36 36 35 32
34 32 28 21 8 0 0 0 0 0 0 0 0 0 1 0
1 5 4 11 9 7 6 4 5 2 2 1 1 8 18 31
30 21 31 35 21 28 29 28 27 26 26 26 25 25 25 25
20 28 26 29 30 30 30 31 30 30 30 30 30 31 31 31
32 32 31 32 31 32 32 33 33 33 33 33 34 34 34 34
35 35 35 35 36 35 35 35 35 35 35 35 36 36 36 35
19 18 18 20 19 19 20 20 18 21 26 30 35 39 42 41
41 41 40 40 40 39 39 39 39 38 38 36 37 36 34 32
31 27 15 6 0 0 0 0 0 0 0 0 0 0 0 0
0 0 3 7 12 7 4 4 7 7 3 1 2 2 4 15
25 23 31 35 22 28 29 29 28 28 27 25 27 26 26 25
22 28 26 29 29 29 30 29 30 30 31 30 31 31 32 32
32 31 32 32 32 32 33 33 33 33 34 34 34 34 34 36
36 35 35 35 36 35 35 35 35 36 35 34 33 33 33 35
30 27 23 21 20 18 19 19 19 20 20 19 14 17 20 33
42 41 40 40 39 39 39 38 39 38 38 37 36 35 32 31
29 16 5 0 0 0 0 0 0 0 0 0 0 0 0 0
0 1 1 6 12 10 9 2 9 12 8 6 1 6 3 7
14 21 31 37 25 28 30 29 28 28 27 26 27 26 26 25
23 28 26 30 30 30 30 30 31 31 30 31 31 31 32 32
33 32 33 32 33 33 33 33 33 34 34 34 35 35 35 35
36 35 35 35 35 35 35 34 34 33 34 35 36 36 35 35
59 57 54 35 24 26 20 18 18 19 20 20 12 9 17 30
41 41 41 40 40 39 39 38 39 38 38 38 37 35 32 27
19 8 2 0 1 2 0 0 0 2 4 1 0 1 1 0
4 8 7 7 4 3 8 14 13 8 9 12 11 4 8 5
4 11 29 35 25 26 30 29 29 28 28 27 27 25 26 26
23 28 26 30 30 30 30 31 31 31 32 31 31 31 32 32
33 33 33 33 33 33 34 33 33 34 34 35 36 35 35 35
35 34 33 34 35 35 35 35 36 34 34 35 35 35 35 35
62 61 59 41 36 41 47 42 32 27 21 18 16 17 18 29
41 41 41 41 40 39 37 36 39 39 38 37 37 36 32 21
4 2 0 0 0 0 0 0 0 1 4 6 5 2 5 5
7 6 4 5 4 8 5 3 4 6 7 8 8 12 7 8
2 1 16 38 29 25 30 30 29 28 28 26 27 26 26 26
23 28 26 30 31 31 31 32 31 31 31 31 31 32 32 32
34 33 33 32 33 33 34 34 34 35 34 34 34 33 34 35
34 34 35 34 34 34 34 35 36 34 35 35 34 35 35 35
60 61 60 44 42 46 51 50 41 53 52 49 31 16 17 29
42 41 40 40 40 39 46 49 46 44 42 39 37 35 31 18
1 0 0 0 0 0 0 1 1 2 1 0 3 11 13 9
10 8 4 4 0 2 2 4 5 5 7 9 8 7 12 8
5 3 2 27 31 22 30 30 30 29 28 27 28 26 27 26
24 29 26 30 31 30 30 31 31 31 32 32 32 33 33 33
34 33 33 33 33 33 33 33 33 34 34 34 35 34 33 34
34 34 34 34 34 34 34 34 36 34 35 35 35 35 34 35
37 46 57 46 47 49 53 53 52 57 57 57 40 16 20 32
42 42 41 41 40 40 48 52 49 49 44 42 41 37 29 11
0 0 0 0 0 0 0 2 3 2 2 1 0 2 4 8
4 5 4 2 1 0 0 1 3 6 11 8 9 8 13 11
10 6 2 7 28 20 31 30 29 29 28 28 28 27 27 26
24 29 26 31 31 31 32 32 32 32 31 32 32 32 32 32
33 32 31 32 33 34 34 35 35 33 34 35 35 34 34 34
34 33 34 34 35 34 35 34 36 35 35 35 35 34 34 35
8 0 32 49 48 50 54 53 56 58 57 58 45 17 20 37
44 43 43 42 40 40 48 53 50 47 42 44 42 37 23 1
0 0 0 0 0 0 1 1 1 4 1 1 0 4 5 3
0 0 0 2 4 0 1 1 0 1 2 6 11 16 11 6
14 9 4 3 13 19 30 30 30 29 29 29 28 27 27 27
25 29 26 31 31 32 32 32 32 32 32 32 32 32 31 32
32 33 33 34 33 33 34 34 36 35 34 34 35 35 35 34
34 34 34 34 34 34 34 35 36 35 35 35 36 36 35 35
19 7 36 47 48 50 48 53 55 56 57 57 47 17 20 40
48 45 45 44 44 42 47 40 46 46 45 45 40 25 5 0
0 0 0 0 1 7 15 15 8 7 10 2 0 0 0 0
0 0 1 3 6 6 4 3 2 2 6 6 10 12 23 12
9 12 7 4 1 16 30 31 30 30 29 30 28 27 28 27
25 30 27 32 33 32 32 32 32 31 31 32 32 32 32 32
32 33 34 34 33 33 35 34 35 33 35 35 35 34 34 34
34 35 35 34 35 34 35 35 36 36 35 35 36 34 35 34
21 12 40 43 17 28 38 49 55 57 55 54 46 18 21 39
50 39 39 44 48 49 51 3 1 14 31 36 29 19 2 0
0 0 0 3 14 16 17 26 26 19 13 6 0 0 0 0
1 4 2 4 5 5 4 6 4 3 3 6 12 13 22 16
13 13 3 8 1 8 26 30 30 27 28 30 28 28 28 29
26 29 27 32 31 32 32 31 32 32 33 33 32 32 33 33
33 33 33 33 34 34 34 34 35 34 34 35 34 34 34 35
35 35 35 35 35 35 34 34 36 36 35 35 35 35 35 35
16 12 41 40 0 1 5 9 14 24 25 38 48 19 21 38
49 47 45 39 46 53 54 3 0 2 9 13 8 3 0 0
0 0 4 10 19 25 26 28 25 32 21 12 2 0 0 1
9 5 2 0 0 2 7 8 3 4 6 6 7 9 10 15
19 14 13 3 2 0 18 28 30 29 30 30 28 28 29 28
26 29 25 32 32 31 32 32 33 33 33 33 33 32 33 33
33 33 33 34 34 34 34 34 36 35 35 35 35 34 35 35
34 34 35 35 34 34 36 35 36 36 36 35 35 34 34 34
0 0 41 39 0 0 0 0 0 0 0 13 49 20 21 11
16 26 38 48 52 54 54 4 0 3 11 4 1 0 1 0
0 2 11 23 33 42 49 63 59 42 30 18 9 3 5 5
2 0 0 0 0 1 5 5 1 2 9 6 6 4 9 22
19 17 24 9 2 4 8 27 30 30 30 30 29 29 29 29
27 29 27 33 33 32 33 34 34 33 33 33 34 33 33 33
34 34 34 34 34 34 34 34 36 35 35 35 35 34 35 35
35 35 35 35 36 36 36 35 37 36 36 35 35 35 35 35
0 0 43 38 2 5 0 0 0 0 0 14 48 19 20 4
0 0 0 2 11 21 40 8 0 1 7 0 1 1 2 0
0 5 8 22 47 61 66 77 77 64 49 30 8 4 0 0
0 0 0 2 4 4 8 15 6 1 1 2 7 12 15 10
16 18 17 7 1 4 3 21 29 30 30 31 29 28 29 29
27 28 27 32 33 33 32 32 34 33 33 33 33 32 33 33
33 34 34 34 34 34 35 35 36 35 35 35 35 35 36 35
36 36 36 35 35 35 35 35 36 36 35 35 34 35 35 35
0 0 43 36 2 6 0 26 3 0 0 15 50 19 20 4
0 0 0 0 0 0 16 8 0 0 2 0 0 2 0 2
0 5 14 8 21 36 45 56 66 67 56 41 10 2 1 0
0 0 0 2 5 7 7 3 5 5 3 1 2 10 19 21
14 13 15 11 8 3 3 11 29 29 30 30 29 29 29 29
27 28 28 33 33 33 33 32 33 33 33 34 33 33 33 33
34 34 34 34 34 34 35 35 36 34 34 35 35 35 36 36
36 36 36 36 36 36 36 35 36 34 36 36 35 36 37 36
4 0 43 35 3 7 1 14 21 0 0 15 47 19 20 4
0 0 0 0 0 0 13 7 0 0 1 0 0 5 2 0
2 6 14 17 11 12 21 37 47 43 38 29 15 6 0 0
0 1 1 2 4 4 4 2 2 2 6 11 13 6 7 14
14 7 17 12 17 4 5 7 30 30 31 30 29 28 29 28
27 28 27 32 33 34 33 33 34 34 33 33 34 34 34 34
34 34 34 34 34 34 34 35 35 35 36 36 35 36 36 36
36 36 36 36 35 35 34 35 35 37 37 37 37 37 36 36
0 0 43 34 2 7 2 10 9 0 0 16 46 19 21 4
0 0 0 3 0 0 12 5 0 0 1 0 0 4 7 3
1 4 10 18 24 21 26 30 26 29 30 27 19 3 0 1
3 1 1 4 4 4 3 2 0 1 3 11 15 17 12 12
14 16 13 21 12 9 9 6 24 29 31 29 30 29 29 29
28 28 28 33 34 33 33 33 34 34 33 33 34 34 34 34
34 34 35 35 35 35 36 35 37 35 35 36 36 37 37 36
35 35 36 36 36 36 36 36 36 37 36 35 36 35 35 34
2 0 42 30 0 4 4 0 6 0 0 17 45 19 20 4
0 3 5 21 0 0 11 5 3 2 1 1 0 1 9 13
7 9 13 15 17 23 31 34 50 57 51 38 27 15 6 4
1 5 2 6 7 5 4 2 4 1 0 2 9 9 15 11
17 13 8 10 16 20 11 16 13 30 31 29 30 29 29 28
28 28 29 33 33 34 34 34 35 34 34 34 34 34 34 34
34 35 35 34 35 36 36 36 36 35 35 36 36 36 36 36
35 36 36 35 35 36 36 36 36 37 36 37 36 36 36 36
0 0 43 29 0 2 12 0 0 0 0 19 44 20 21 4
12 13 7 5 0 0 10 7 3 0 0 0 1 5 13 10
10 10 13 15 26 33 29 30 34 39 38 41 33 28 12 5
5 8 8 5 6 4 6 5 3 3 1 2 6 5 5 13
22 18 8 3 10 10 15 15 11 26 30 29 29 29 30 29
29 29 29 33 34 34 34 33 34 34 34 34 33 34 34 35
35 35 35 35 34 35 35 35 35 36 35 36 36 36 36 36
38 36 36 37 37 36 37 36 37 36 36 35 36 36 36 36
49 45 51 39 8 6 8 6 3 0 0 21 43 20 21 5
14 1 1 6 4 0 11 8 2 1 1 0 2 4 12 14
12 16 24 25 17 10 7 5 10 18 28 45 28 32 27 14
7 7 7 4 5 8 6 6 8 6 6 6 5 5 5 7
10 11 16 9 10 4 6 21 13 23 31 28 30 29 29 29
29 28 29 33 33 33 34 34 34 33 35 35 34 34 35 34
34 34 35 35 36 35 35 35 36 36 36 36 36 36 37 36
38 35 36 36 36 36 37 36 36 36 36 37 37 37 37 36
52 57 47 71 56 31 43 42 47 43 38 41 37 20 21 6
3 0 0 0 2 0 14 39 23 15 10 2 1 7 17 17
14 11 10 9 3 0 15 25 32 23 13 6 6 7 7 9
4 6 7 8 3 7 5 7 7 5 4 7 8 5 8 4
7 9 12 16 16 7 3 8 15 12 29 28 31 29 30 29
29 28 30 33 34 34 33 33 34 33 34 34 34 34 35 34
35 35 35 35 35 35 36 35 35 35 35 36 36 36 37 36
37 36 36 36 37 36 37 37 36 35 34 33 36 33 35 33
3 36 70 74 46 35 49 56 58 56 55 54 36 20 20 4
0 0 0 0 0 0 19 59 48 37 28 20 16 10 17 17
12 3 0 0 0 0 18 4 11 23 33 35 40 49 51 23
12 8 10 5 5 0 3 4 8 9 6 4 5 4 8 7
7 10 15 25 21 17 10 3 7 8 29 29 31 29 30 29
28 27 29 32 33 33 34 33 34 34 34 34 35 35 35 35
36 35 35 36 35 35 35 35 35 36 35 36 37 37 36 36
37 36 35 33 33 32 33 35 35 35 35 33 31 28 25 21
0 40 71 69 41 38 48 54 56 56 60 59 38 20 22 6
0 0 0 0 0 0 18 62 41 46 37 20 16 5 11 10
2 0 0 0 0 0 20 35 49 74 104 106 88 85 100 79
52 19 6 3 3 2 0 2 6 8 15 10 9 7 9 4
8 10 13 15 20 19 17 11 8 8 20 29 32 29 30 29
28 27 30 33 34 34 34 34 34 34 34 34 35 35 34 34
37 35 35 35 35 35 36 36 35 34 35 36 35 35 36 36
37 37 36 38 36 30 29 26 23 19 16 15 14 14 14 15
0 39 66 57 23 24 38 46 50 54 56 59 37 21 22 35
38 29 19 9 4 0 20 51 39 47 47 40 26 15 21 15
10 1 0 2 0 0 9 64 77 93 123 125 108 96 110 111
97 56 17 2 4 7 3 1 0 6 12 17 16 15 14 11
10 12 13 14 14 16 19 16 6 4 16 29 32 29 29 29
28 26 29 32 34 33 33 33 34 33 33 34 34 34 32 33
35 34 35 34 35 35 35 35 36 36 37 36 36 34 31 29
26 22 20 28 34 15 11 13 15 16 17 18 19 20 20 21
1 38 66 57 8 0 0 0 0 2 4 31 39 21 22 40
56 56 55 53 50 45 48 45 37 47 48 43 39 38 54 40
18 0 2 1 0 0 6 60 88 86 117 125 120 102 106 113
114 98 47 12 4 9 7 4 3 8 14 7 16 15 18 12
9 11 12 11 13 20 20 14 10 0 13 29 31 28 29 28
28 26 31 32 34 33 33 33 33 32 33 32 33 33 32 32
33 34 35 36 36 36 36 33 32 28 25 21 18 17 14 15
16 16 17 22 32 12 16 19 21 22 22 24 25 25 26 27
0 34 66 57 6 0 3 0 0 0 0 26 40 21 23 41
57 57 55 55 55 55 58 31 7 16 24 26 31 53 71 57
4 3 1 0 0 0 3 46 87 79 103 119 124 112 109 114
111 110 84 36 15 15 15 8 7 12 18 13 21 21 18 19
11 11 15 16 13 13 20 29 17 7 4 23 28 28 29 28
28 26 30 31 33 33 33 31 31 31 30 29 30 34 35 35
34 32 30 27 24 21 19 17 17 16 17 17 19 19 21 21
22 22 22 23 31 14 21 25 27 28 29 30 30 30 31 32
0 29 64 55 4 0 0 0 1 8 7 24 39 20 20 36
53 55 54 57 57 57 58 25 0 0 0 1 8 41 70 47
2 6 0 0 0 0 1 31 52 59 92 118 127 128 112 117
120 114 102 72 35 25 24 38 26 28 21 23 58 64 44 26
17 1 1 4 6 11 17 24 26 18 6 11 27 27 27 27
27 25 28 28 29 29 30 29 29 30 31 20 18 26 22 20
18 18 17 17 18 19 20 21 21 23 23 24 25 26 26 26
28 28 28 28 35 18 27 30 31 31 31 31 32 32 32 32
0 26 58 49 2 0 0 0 12 38 36 33 39 35 31 35
41 42 42 43 44 49 54 20 0 0 0 0 1 11 57 27
4 5 0 0 0 0 0 31 65 62 95 120 130 132 129 111
118 123 116 101 59 33 39 65 68 51 55 32 53 81 95 54
37 0 0 0 0 3 11 15 19 29 10 5 18 19 22 23
24 25 28 30 29 28 26 24 21 19 18 16 14 17 18 19
20 20 22 23 25 26 26 27 27 27 28 29 30 31 30 31
31 31 30 21 16 11 29 32 32 32 33 34 34 35 34 34
0 28 57 47 1 0 0 0 9 35 34 27 32 26 24 27
25 28 37 38 36 46 54 18 0 0 0 1 3 6 45 12
7 2 0 0 0 0 0 32 54 60 99 118 128 133 133 134
125 124 128 121 84 38 57 79 96 88 75 68 68 81 100 95
52 0 0 0 1 3 6 18 17 26 20 5 16 14 16 16
14 17 20 20 16 18 18 17 19 19 20 21 21 22 24 25
26 27 29 30 30 30 31 32 32 31 33 32 32 32 32 32
32 32 32 13 3 2 27 33 34 35 34 34 34 34 35 34
0 30 57 45 0 2 4 0 2 16 19 26 32 28 27 28
31 29 35 37 35 46 52 16 0 0 0 0 2 14 37 7
9 0 0 0 0 0 0 22 47 65 113 129 136 137 136 138
140 139 130 132 99 51 70 101 105 114 98 94 91 91 104 107
54 0 0 1 1 11 2 12 23 15 22 13 17 18 18 18
15 13 16 15 19 21 21 22 23 24 26 27 27 28 30 31
31 32 32 33 32 32 33 33 33 33 33 34 34 35 34 29
24 19 30 11 10 1 25 34 34 35 35 35 35 35 34 35
0 34 60 44 0 1 5 0 0 0 0 13 25 21 23 20
17 25 33 38 45 50 51 16 0 0 0 0 0 1 4 1
2 0 0 0 0 0 0 9 46 77 128 135 135 139 139 137
138 142 140 136 106 70 86 114 125 133 121 106 106 85 110 102
44 1 0 2 4 10 9 12 13 14 17 19 17 21 21 20
19 16 21 18 24 26 28 28 28 29 29 30 32 31 31 31
31 32 33 34 34 34 35 35 35 35 34 34 34 34 15 0
0 4 25 8 2 0 25 33 35 36 34 35 35 35 35 35
0 39 59 42 0 0 6 8 1 0 0 16 33 31 29 14
0 0 0 0 3 6 18 16 0 0 0 3 7 0 0 0
0 0 0 0 0 0 0 6 52 96 134 139 139 138 136 140
135 141 140 133 109 105 114 120 137 141 133 106 74 101 133 104
38 0 1 4 10 5 15 10 13 18 17 21 16 25 27 26
24 19 25 22 29 30 29 30 30 31 30 31 33 34 34 34
34 34 34 35 35 35 34 35 35 35 35 35 35 36 29 24
29 32 32 15 0 0 24 33 35 35 34 34 34 35 35 34
0 45 59 41 0 0 0 12 5 0 0 17 39 35 30 15
0 0 1 2 0 0 8 15 0 0 0 7 6 0 1 35
0 0 0 0 0 0 0 11 59 118 137 140 138 136 136 139
139 138 140 133 120 121 126 132 144 145 98 85 117 138 131 113
26 1 5 7 9 10 10 11 10 17 18 21 20 23 28 27
26 22 27 24 31 31 32 32 33 32 31 33 33 34 34 34
34 34 35 35 35 35 36 37 37 35 35 36 35 36 35 34
33 32 30 17 1 1 25 34 35 35 35 35 35 35 35 34
36 49 55 41 0 0 0 11 9 3 0 17 45 37 30 16
0 0 1 3 0 0 7 15 0 0 0 11 5 0 30 83
15 1 1 1 0 0 0 26 82 130 138 141 140 137 137 136
139 140 140 141 140 135 139 138 139 140 55 112 143 137 120 102
6 1 8 7 11 7 4 8 12 12 19 16 18 26 28 27
27 23 29 28 32 32 33 32 32 33 33 34 34 34 35 34
35 35 35 35 35 35 35 36 36 35 35 35 36 36 35 34
34 33 31 23 1 4 27 34 35 36 34 35 35 35 34 35
36 43 47 44 20 12 5 14 19 14 4 15 45 33 28 16
0 1 10 15 3 0 7 15 0 0 0 9 3 0 70 98
53 3 6 0 2 1 12 60 113 131 139 136 142 138 136 133
139 141 142 143 144 145 143 144 142 144 131 137 142 137 123 56
0 3 8 7 8 4 2 7 10 12 13 16 22 25 28 28
27 22 30 28 33 33 32 33 33 32 34 35 34 35 35 34
34 34 34 34 35 35 35 35 36 35 35 35 35 35 35 34
34 32 30 24 10 13 29 34 35 35 35 35 34 34 34 33
10 26 48 45 43 50 44 41 49 45 41 43 49 29 27 15
0 7 20 23 11 2 6 23 5 3 0 7 0 9 99 110
88 28 10 2 1 10 59 107 120 134 137 123 137 138 140 144
145 144 141 141 143 144 144 143 143 144 140 132 135 135 100 23
1 6 7 6 9 5 3 1 7 6 11 16 19 25 27 27
27 23 31 29 33 33 33 32 31 33 34 34 34 34 34 34
34 35 34 34 34 35 34 35 35 34 34 35 35 35 34 34
34 31 30 25 24 24 32 34 35 36 34 34 35 34 33 35
19 33 51 45 14 10 14 27 35 48 53 55 53 31 25 16
0 6 18 19 9 2 5 48 45 36 2 3 0 37 113 123
109 84 58 27 35 69 99 112 124 140 138 133 133 141 145 146
145 143 143 142 144 144 145 142 142 138 134 127 132 112 53 28
1 3 8 6 14 10 5 1 3 9 11 14 14 23 26 27
28 24 32 29 33 33 33 32 33 34 33 34 33 33 34 34
34 34 34 34 35 35 34 35 36 35 35 35 34 35 35 33
34 32 29 26 27 30 34 34 34 35 34 35 35 34 35 34
14 38 52 46 11 2 0 3 10 3 41 55 49 30 26 18
1 2 7 2 4 0 4 46 45 47 10 0 1 73 120 130
121 108 108 82 79 87 100 114 131 145 143 135 130 141 145 146
145 144 145 144 144 143 140 134 136 128 128 123 114 95 57 39
3 5 11 7 18 8 4 2 0 7 16 15 14 23 29 27
28 24 32 29 33 33 32 32 33 33 33 33 34 34 33 34
34 33 34 34 34 34 34 34 34 35 34 34 34 35 34 34
33 32 31 30 29 33 34 34 34 34 34 33 34 34 34 35
10 34 53 47 8 0 4 23 37 14 46 53 44 28 27 25
22 1 7 2 3 0 4 47 48 49 13 0 9 94 121 123
120 129 130 94 77 80 95 114 129 142 142 139 140 141 143 145
144 145 143 143 141 140 134 130 131 124 111 110 114 110 71 43
8 7 5 7 15 8 3 9 6 10 15 12 17 23 27 27
28 24 32 29 33 33 33 32 33 33 33 33 33 33 33 33
33 33 33 33 34 34 33 33 34 34 34 35 34 35 33 33
32 32 31 31 32 34 34 35 34 34 34 35 34 34 34 34
0 35 55 49 7 0 4 10 40 31 49 51 35 28 28 28
15 0 5 1 1 0 3 43 37 43 17 0 18 100 121 126
134 142 145 112 74 73 80 101 118 135 142 138 135 141 139 143
145 144 145 142 141 138 129 126 126 125 123 120 120 125 96 63
20 10 4 9 11 5 3 3 1 8 12 15 15 14 27 26
27 24 32 28 33 33 33 32 32 33 32 32 33 33 33 34
33 33 34 34 34 33 33 34 34 35 34 34 35 34 33 33
33 32 31 31 32 32 32 32 32 33 34 34 34 33 33 32
1 36 57 50 9 0 2 4 9 21 51 52 32 31 31 26
4 0 2 2 0 0 4 49 39 41 26 1 23 97 129 132
124 121 125 95 81 79 75 87 110 123 135 137 137 138 141 144
145 145 142 139 135 137 129 123 124 124 126 121 126 130 105 64
20 11 3 7 11 10 7 1 1 7 11 16 8 11 23 26
27 25 31 28 32 31 32 32 32 32 33 33 33 33 34 33
34 33 34 33 33 33 33 33 33 33 33 33 33 33 32 33
33 33 31 32 34 33 33 33 34 34 35 34 33 33 33 34
0 39 58 53 12 0 0 0 0 11 51 53 31 31 28 29
28 23 17 15 10 5 6 50 42 40 36 2 14 86 118 113
51 77 98 99 96 85 85 81 91 114 126 133 132 139 145 145
146 142 141 137 134 132 126 118 116 119 123 124 129 132 116 61
19 11 6 7 7 8 9 3 2 7 9 10 3 8 20 27
28 27 32 28 33 32 32 32 33 32 32 32 32 32 33 33
33 32 33 33 32 32 33 33 34 33 33 34 34 33 33 33
33 33 32 34 35 34 34 34 34 34 34 33 33 34 34 33
0 35 57 53 11 0 0 0 0 5 48 54 31 31 29 36
53 54 52 50 55 57 54 57 45 43 43 16 1 57 105 109
98 98 97 96 97 88 85 98 93 103 117 127 133 140 145 146
146 145 141 137 131 127 121 117 112 113 123 128 131 138 125 62
19 7 4 3 6 7 11 6 8 7 11 5 5 6 18 27
28 26 31 28 31 31 31 31 31 31 32 32 32 33 33 34
34 34 32 32 33 32 33 32 34 34 34 34 34 34 33 33
32 34 33 34 34 34 33 33 34 33 34 33 33 33 32 33
0 33 57 51 5 0 0 0 0 7 50 56 32 31 30 37
63 64 62 62 61 61 60 60 47 43 37 35 2 11 64 86
64 66 73 85 84 76 70 93 109 102 115 126 132 138 143 146
146 146 143 136 128 120 118 114 109 114 126 133 135 141 130 72
20 7 6 4 6 7 11 10 9 10 12 3 3 8 19 26
27 26 31 28 33 31 32 33 33 32 33 33 33 33 34 34
34 34 33 32 33 32 33 33 34 33 33 33 33 32 33 33
32 33 33 33 33 34 33 33 33 33 33 33 32 32 33 32
0 31 57 50 5 0 0 0 0 7 50 55 30 28 30 32
50 52 54 55 57 58 60 61 29 12 16 8 4 7 33 71
51 51 73 76 79 80 61 75 111 110 118 125 130 135 139 144
145 143 140 130 126 118 113 114 111 115 128 138 142 143 134 86
23 6 5 1 3 6 5 9 10 5 12 4 3 9 18 26
27 25 30 27 32 32 31 32 32 33 33 34 33 34 34 35
35 34 33 32 32 32 32 32 32 32 33 32 32 32 33 32
32 34 33 33 32 33 33 34 33 33 33 33 34 33 32 32
0 31 58 52 5 0 0 0 0 3 46 50 26 29 31 26
33 34 33 33 33 32 32 37 22 0 0 0 0 0 9 69
47 52 84 105 103 96 55 49 98 116 116 125 128 135 135 146
144 143 138 129 121 112 111 110 115 116 128 140 145 143 131 97
35 7 7 1 1 4 5 10 7 7 9 3 7 8 17 26
27 26 30 28 32 32 32 33 33 32 33 33 33 32 33 33
33 33 32 32 31 31 32 32 33 33 33 30 28 27 25 23
20 24 30 34 33 33 34 33 32 33 33 33 33 33 31 31
0 30 57 52 5 0 0 0 0 2 47 55 28 28 28 29
42 42 42 40 39 37 37 39 24 10 3 0 0 0 15 54
50 59 90 92 81 49 26 53 82 111 116 124 133 143 140 144
142 144 136 128 116 111 111 112 115 120 129 141 145 144 136 107
52 11 8 1 3 2 7 11 11 9 6 2 4 9 19 25
27 26 30 27 32 31 31 32 32 33 33 32 33 32 32 31
28 26 23 21 18 21 24 31 32 32 32 19 5 6 5 5
4 9 30 34 34 33 32 33 32 32 33 32 32 32 32 31
44 52 55 49 5 0 0 0 0 3 51 57 28 26 29 30
44 45 45 44 45 44 44 45 24 6 3 0 0 0 12 38
61 62 59 41 34 57 86 83 75 104 119 128 132 136 141 140
135 134 126 120 116 106 109 114 118 124 134 142 144 145 137 115
73 23 5 1 1 2 7 9 20 14 7 0 6 10 18 25
26 26 30 27 32 31 31 31 32 33 33 32 31 11 7 6
6 6 1 1 1 0 2 27 32 32 32 19 4 4 3 4
3 8 31 33 33 34 33 33 33 33 32 31 32 32 32 30
55 52 39 31 23 19 12 10 4 6 51 51 25 25 29 31
45 46 46 45 45 45 46 46 25 5 4 0 0 8 6 23
51 35 26 39 77 105 117 102 87 95 113 127 133 135 133 134
133 128 121 114 113 105 112 117 119 127 135 139 145 146 138 121
92 44 7 0 0 0 3 4 14 11 3 0 4 7 20 25
26 26 30 28 31 31 31 32 32 32 31 32 31 6 1 6
7 8 2 1 1 0 1 25 31 31 31 17 4 4 5 5
5 7 30 34 34 33 33 33 33 32 32 32 32 32 31 31
52 52 51 47 51 51 49 49 47 45 48 45 37 35 36 28
19 19 21 22 21 24 35 52 29 1 0 0 0 10 6 19
49 35 30 70 103 119 113 111 105 97 115 125 130 131 128 128
129 121 111 109 108 111 117 119 119 132 137 137 145 144 139 123
103 81 17 0 0 0 0 5 9 6 1 0 3 7 18 25
26 26 29 29 32 32 31 32 32 32 32 32 30 5 1 5
6 8 3 0 1 0 1 23 31 31 31 15 4 4 5 4
4 5 28 33 34 34 34 32 33 33 33 32 32 32 32 31
49 48 48 48 47 47 47 46 46 46 45 45 45 44 44 43
43 42 40 36 3 1 15 51 39 14 1 0 2 8 5 16
44 34 57 79 99 106 113 112 111 111 112 123 123 124 125 122
120 113 110 105 103 116 116 116 122 136 139 140 145 145 139 124
110 97 45 3 0 0 2 1 3 7 0 0 3 5 17 25
26 26 29 27 31 31 31 31 32 31 32 31 29 7 1 5
8 8 2 0 0 0 0 23 30 31 31 18 4 3 5 5
4 4 27 35 34 32 32 31 31 30 29 30 31 31 30 30
48 48 48 48 48 46 46 46 45 44 45 44 44 43 43 43
43 43 42 41 7 0 12 50 37 7 0 0 0 8 7 16
43 14 58 58 71 100 110 115 116 118 112 105 122 119 119 112
109 106 107 107 113 121 121 126 127 136 141 144 145 145 139 124
112 103 71 12 0 1 0 1 1 2 0 1 7 6 18 25
26 25 28 28 32 31 31 31 31 31 32 32 30 7 1 4
8 7 2 0 1 0 0 23 31 31 31 21 8 8 8 9
11 9 21 30 31 31 31 32 33 32 33 30 32 31 31 31
48 47 47 47 46 45 46 46 45 45 44 44 44 44 43 42
43 42 42 40 10 0 8 44 27 0 0 0 0 0 0 15
45 6 36 44 76 100 109 117 120 120 119 112 117 116 113 103
96 96 99 99 114 117 121 126 132 132 137 143 145 145 140 125
112 106 89 26 0 0 0 4 2 2 4 3 14 7 18 24
25 25 25 25 31 31 30 31 31 31 31 31 29 8 1 4
6 7 3 1 1 0 0 22 30 31 31 22 10 11 10 9
10 11 20 31 33 33 33 32 32 31 31 31 31 31 32 31
15 15 15 14 16 15 15 15 16 16 17 17 18 18 19 20
24 34 39 41 13 0 5 38 23 0 0 0 0 1 1 13
47 6 15 61 79 96 111 119 124 120 116 108 108 102 96 89
88 91 99 103 112 113 114 122 131 133 136 141 144 145 141 125
112 107 102 44 1 0 0 3 4 2 10 15 16 7 16 23
24 24 26 25 29 28 30 30 31 30 30 31 29 8 0 1
1 1 0 0 1 0 0 21 30 32 30 23 4 6 5 4
5 5 20 32 33 33 33 33 32 32 33 32 31 30 31 30
0 0 0 0 0 0 0 0 0 0 0 0 0 0 0 0
4 39 42 40 18 0 3 34 26 5 4 3 3 11 11 15
46 27 20 61 81 95 112 120 120 115 107 102 96 91 85 83
92 94 95 99 102 109 112 120 128 132 139 142 145 145 143 126
112 108 108 77 11 0 0 3 1 1 14 18 16 6 15 24
25 24 26 27 30 30 30 30 30 31 31 30 29 9 1 2
0 0 1 1 2 0 0 20 30 31 29 23 4 4 5 4
6 4 14 24 33 33 32 32 32 31 32 31 30 31 30 29
0 0 0 0 0 0 0 0 0 0 0 0 0 0 0 0
3 42 44 39 22 0 0 30 42 42 37 34 36 38 39 43
41 54 55 61 78 88 106 109 104 110 98 86 82 83 76 86
92 88 91 93 101 108 118 121 121 127 138 143 144 145 142 126
112 106 108 98 33 0 1 0 1 9 21 19 19 6 13 22
23 23 25 26 29 28 29 30 31 31 32 30 28 9 1 1
1 3 5 1 1 0 0 19 30 32 30 24 4 4 0 0
0 0 0 0 30 32 32 32 32 31 32 31 31 30 31 29
0 0 0 0 0 0 0 0 0 0 0 0 0 0 0 0
1 40 44 39 23 0 0 26 43 45 37 38 41 38 32 33
35 50 56 59 68 75 92 94 94 94 85 78 70 73 74 76
75 79 85 94 104 112 117 122 127 134 141 146 145 144 140 125
111 105 108 102 58 0 0 0 6 21 23 19 18 6 11 21
23 23 24 25 28 29 28 30 31 31 32 30 26 10 1 1
1 3 2 0 1 0 0 18 30 31 30 23 3 4 2 0
3 2 2 0 29 32 31 31 31 31 31 30 30 30 30 30
0 0 0 0 0 0 0 0 0 0 0 0 0 0 0 0
0 39 45 39 26 0 0 22 45 38 33 36 39 39 34 32
34 32 36 43 62 61 72 81 84 75 69 60 59 56 51 47
48 63 76 92 105 109 115 122 126 136 142 146 145 145 136 124
109 104 108 104 77 1 0 0 18 26 25 20 18 6 9 20
21 22 23 24 27 28 28 30 30 31 32 29 25 10 1 1
0 0 1 1 1 0 0 18 29 31 30 24 3 4 2 0
0 0 0 0 28 31 30 30 31 30 31 30 31 31 30 30
0 0 0 0 0 0 0 0 0 0 0 0 0 0 0 0
0 37 46 38 29 0 0 19 42 24 30 29 31 38 36 33
38 28 23 27 48 54 55 60 63 58 52 46 40 32 27 29
39 49 65 86 101 99 112 123 134 140 144 146 146 145 135 121
109 104 108 106 88 11 0 12 27 27 26 24 18 12 12 20
22 22 23 23 26 27 28 29 30 31 31 28 25 10 1 0
0 0 1 1 1 0 0 18 29 30 30 24 2 3 0 0
0 0 0 0 29 31 30 30 31 31 31 29 29 30 30 29
0 0 0 0 0 0 1 1 0 0 0 0 0 0 0 0
0 33 46 39 32 4 12 29 43 10 9 12 14 16 18 18
34 31 28 30 33 43 45 42 40 34 32 28 28 25 25 43
53 53 58 81 98 107 120 128 136 142 145 146 147 146 135 118
108 103 107 107 95 35 15 39 45 47 45 44 41 40 39 37
36 34 31 28 24 25 27 29 30 32 31 28 26 12 1 1
1 1 1 0 2 0 0 16 29 31 31 25 3 1 1 3
0 0 0 0 20 9 6 4 21 32 32 30 31 30 30 30
1 1 0 0 1 0 0 0 0 0 0 0 0 0 0 0
0 31 48 39 36 31 39 43 44 4 0 0 0 0 4 8
35 34 44 48 36 41 33 23 21 22 20 17 13 17 32 51
57 60 66 81 99 114 121 133 140 144 146 146 147 147 137 117
107 103 108 110 101 54 26 47 51 50 47 47 44 43 43 41
39 38 37 35 26 25 27 30 32 32 31 27 26 13 1 1
2 2 1 1 2 1 0 17 30 31 31 25 4 1 32 41
4 0 0 0 12 28 32 27 4 30 32 31 31 31 31 30
0 0 1 1 1 0 1 1 0 0 0 0 0 0 0 0
0 28 48 38 38 47 50 52 48 4 0 0 0 0 0 6
39 32 43 47 29 44 51 17 0 0 0 0 5 16 38 52
60 68 72 83 99 112 127 138 143 144 144 146 147 148 140 118
106 103 108 112 105 75 10 55 53 51 47 48 45 45 43 42
39 37 37 35 27 23 27 30 32 33 31 29 27 15 2 2
2 2 2 1 1 1 0 17 30 31 32 28 15 10 34 35
12 0 0 13 33 32 33 32 14 22 33 32 32 31 31 31
1 2 2 1 1 1 1 1 0 0 0 0 0 0 0 0
0 26 49 39 38 49 53 54 52 9 0 0 0 0 0 2
41 32 42 43 3 5 26 16 0 0 0 0 22 39 51 54
63 72 76 86 102 112 127 140 145 142 141 143 146 148 141 119
105 105 107 112 109 91 11 73 53 51 48 48 47 45 44 42
38 38 38 36 29 21 27 29 31 32 32 29 27 15 2 2
2 1 2 1 3 1 0 17 31 32 32 31 31 13 12 5
5 0 0 15 34 33 33 32 18 17 33 30 31 31 31 31
1 1 1 1 1 2 1 1 1 1 0 0 0 0 0 0
0 23 48 39 37 35 33 32 28 3 0 0 0 0 0 3
41 32 42 43 2 4 25 19 0 0 0 7 33 60 60 65
67 71 75 85 104 115 127 138 141 138 138 141 146 148 141 119
105 103 106 113 112 95 12 64 61 52 47 47 47 45 43 42
39 37 37 36 31 17 26 28 31 31 31 30 28 16 2 2
2 1 2 1 2 0 0 14 29 30 33 33 31 17 0 0
0 0 3 15 35 33 34 33 19 19 33 33 33 32 32 31
1 1 1 1 1 1 1 0 1 0 0 0 0 0 0 0
0 19 48 39 36 19 14 16 13 0 0 0 0 0 0 3
41 31 42 43 2 3 21 21 0 0 0 22 24 66 71 73
73 71 75 82 98 116 129 136 137 137 137 140 144 147 141 120
106 103 106 113 114 88 9 68 73 64 46 47 47 45 41 38
40 37 37 35 33 15 23 26 29 29 30 29 28 17 1 1
2 1 1 1 1 0 0 15 32 32 32 20 5 15 0 0
0 0 0 9 32 32 32 32 11 24 32 32 31 31 31 30
1 0 0 1 1 1 1 1 0 0 0 0 0 0 0 0
0 15 47 38 35 21 17 19 13 0 0 0 0 0 0 4
41 30 42 42 2 3 20 23 0 0 6 35 20 66 76 79
79 80 81 81 84 107 123 132 137 137 134 137 144 148 141 119
107 103 106 112 115 64 15 78 80 90 57 47 47 45 41 40
39 36 36 34 33 16 22 26 28 30 30 29 28 18 4 3
2 1 1 0 1 0 4 19 30 31 31 17 32 47 13 0
0 0 0 10 32 31 31 26 7 31 31 31 31 31 30 30
1 1 0 1 1 1 1 0 0 0 0 0 0 0 0 0
0 13 46 37 35 24 19 21 14 0 0 0 0 4 0 1
40 30 42 42 2 4 18 24 3 0 27 51 16 68 76 83
86 84 86 86 79 86 108 123 131 135 130 134 142 147 142 120
108 103 104 113 106 37 29 78 81 95 68 50 49 44 42 40
40 37 35 34 33 18 20 26 28 29 29 28 27 25 22 20
15 12 13 7 2 3 11 18 21 21 19 11 24 21 8 0
0 0 0 4 12 12 15 6 23 14 9 19 32 31 31 30
0 0 0 1 1 0 0 0 0 0 0 0 0 0 0 0
0 12 46 37 34 27 24 23 15 0 4 0 0 7 2 0
39 30 44 42 13 5 17 26 8 14 49 74 21 65 82 89
94 93 91 89 86 79 91 112 125 131 130 132 143 148 143 120
111 107 103 112 80 29 39 69 72 98 81 39 48 51 44 40
40 38 37 36 33 22 17 24 27 29 29 29 27 26 25 23
11 2 1 0 0 0 0 0 0 0 0 0 0 0 0 0
0 0 0 0 0 0 0 0 11 6 12 15 33 32 32 31
0 0 0 0 1 0 0 0 0 0 0 0 0 0 0 0
0 11 45 37 33 27 24 24 16 3 8 0 0 10 16 2
38 31 44 40 19 13 15 24 4 38 54 71 23 47 86 95
103 107 107 102 98 92 92 108 120 124 123 131 143 147 143 119
110 113 101 106 51 32 49 77 87 98 92 53 18 57 56 61
42 37 35 35 31 26 14 23 26 28 28 27 26 26 25 23
9 0 1 4 6 7 8 10 10 11 12 13 13 15 16 17
19 21 22 21 14 0 0 23 7 3 39 30 32 32 31 36
0 0 0 0 0 0 0 0 0 0 0 0 0 0 0 0
0 9 44 37 33 28 25 24 22 4 11 6 5 14 20 13
36 35 45 38 15 24 13 22 10 59 54 56 31 26 84 98
106 113 114 115 109 100 95 104 116 120 119 127 144 148 142 117
112 118 105 87 34 36 60 79 89 100 98 66 57 43 44 75
73 50 35 34 31 27 12 22 25 27 27 27 26 25 24 24
9 0 7 17 20 22 23 24 24 25 25 25 25 25 26 27
29 29 28 25 15 0 0 7 3 0 4 2 3 2 6 50
0 0 0 0 0 0 0 0 0 0 0 0 0 0 0 0
0 8 44 38 33 28 26 25 34 39 43 44 45 45 46 47
54 42 44 35 6 28 15 35 42 67 59 68 57 17 61 103
109 116 120 122 116 106 100 105 112 116 113 123 141 147 141 116
113 124 110 63 30 40 70 72 87 101 102 88 74 85 34 66
85 85 57 35 32 30 12 21 23 25 27 26 22 5 3 3
3 0 8 18 22 25 26 26 27 27 27 26 27 28 29 29
29 30 29 26 15 0 0 0 0 0 0 0 0 0 4 49
0 0 0 0 0 0 0 0 0 0 0 0 0 0 0 0
0 7 44 38 33 29 27 25 34 50 50 51 51 51 51 52
56 53 42 35 0 14 33 35 47 70 64 64 74 20 33 91
112 119 125 129 126 117 107 106 111 113 108 118 140 147 139 117
115 130 117 47 28 46 75 72 76 101 107 99 77 91 73 45
79 89 82 60 35 32 19 19 23 25 26 26 22 0 0 0
0 0 8 18 22 25 27 28 28 28 28 28 29 29 31 32
32 32 30 27 17 0 0 0 0 0 0 0 0 0 5 46
0 0 0 0 0 0 0 0 0 0 0 0 0 0 0 0
0 6 44 39 33 29 26 26 27 50 48 47 47 45 45 44
46 46 40 35 1 32 39 32 59 70 66 47 65 29 28 58
109 119 128 136 136 130 120 111 111 108 101 114 141 147 136 117
117 134 114 36 31 54 78 79 88 105 109 102 67 84 88 63
46 69 86 84 49 9 16 42 42 35 25 25 22 0 0 0
0 0 9 18 22 25 27 28 29 29 30 30 30 31 32 33
33 31 30 28 18 0 0 0 0 0 0 0 0 30 43 43
0 0 0 0 0 0 0 0 0 0 0 0 0 0 0 0
0 6 44 38 33 28 26 26 17 16 15 15 14 14 15 15
18 19 36 36 31 39 32 59 62 69 67 54 81 45 28 43
87 119 129 135 139 137 131 120 111 102 95 109 140 147 135 120
119 139 102 31 44 69 85 84 87 106 112 105 83 93 97 104
48 46 66 92 88 41 9 3 26 37 51 42 31 14 4 0
0 1 10 18 21 24 27 28 29 29 29 30 31 32 33 34
34 33 31 29 18 0 0 0 0 0 0 0 0 37 41 40
0 0 0 0 0 0 0 0 0 0 0 0 0 0 0 0
0 5 43 39 32 28 27 26 20 16 14 14 13 13 14 15
18 19 37 48 44 25 42 59 66 72 70 55 85 64 34 45
62 110 130 137 141 142 141 136 125 104 95 105 136 145 133 123
122 137 81 38 64 80 81 88 94 104 111 107 81 91 95 103
89 16 55 86 95 92 87 77 71 74 53 49 67 56 36 13
0 1 10 17 20 23 26 27 28 29 29 31 32 32 33 34
34 34 33 31 18 0 0 0 0 0 0 0 0 37 38 38
0 0 0 0 0 0 0 0 0 0 0 0 0 0 0 0
0 5 41 38 31 28 26 26 24 21 19 18 18 17 17 17
20 20 39 47 30 7 54 47 60 74 72 58 72 66 58 50
60 84 126 137 139 142 143 144 134 111 100 103 138 146 138 126
122 115 65 57 70 77 85 88 76 104 108 101 81 96 88 106
107 38 27 65 92 90 90 90 85 81 84 50 35 72 68 65
40 19 12 17 20 22 25 26 28 29 29 31 32 33 34 34
34 34 33 33 18 0 0 0 0 0 0 0 1 36 36 35
0 0 0 0 0 0 0 0 0 0 0 0 0 0 0 0
0 5 42 38 31 28 25 26 25 23 22 22 21 21 22 21
22 22 47 43 19 28 53 60 60 75 76 61 62 68 82 61
68 73 100 133 140 141 145 146 140 117 104 99 134 147 141 124
116 77 65 77 71 80 50 55 90 102 110 106 77 77 89 104
106 70 23 56 77 93 89 90 90 85 82 76 41 49 74 73
71 63 57 39 29 25 24 26 27 28 30 31 32 33 34 33
34 34 33 33 18 0 0 7 22 7 0 0 4 34 34 33
0 0 0 0 0 0 0 0 0 0 0 0 0 0 1 2
3 11 45 38 30 27 25 25 25 23 22 22 22 22 23 24
30 42 59 37 17 57 49 62 62 76 77 70 78 84 85 80
72 79 85 112 140 143 144 145 145 121 106 96 130 147 140 125
82 60 72 89 88 88 31 6 88 103 109 112 91 100 87 105
105 83 70 49 77 86 90 85 88 84 81 81 75 31 73 74
71 73 67 67 64 63 59 46 38 31 29 31 32 32 33 34
34 34 33 34 18 0 0 11 26 6 0 0 6 34 33 33
11 12 14 16 17 18 20 22 23 25 26 27 28 29 30 31
31 32 34 32 31 28 26 29 24 24 22 22 22 25 39 52
40 65 57 37 21 65 49 58 66 74 77 75 64 87 81 80
78 83 91 97 120 142 146 146 146 128 108 96 127 147 143 114
56 64 88 94 80 91 23 0 43 103 110 106 81 99 87 106
107 77 82 37 79 82 90 85 86 85 85 85 84 61 37 83
72 75 70 67 70 68 64 65 63 54 37 30 32 32 33 33
33 33 33 33 17 0 0 0 0 0 0 0 9 34 32 32
40 39 30 17 19 24 19 16 27 36 36 35 35 33 34 33
32 31 31 31 31 32 39 35 36 37 30 24 38 53 57 55
55 73 56 30 35 63 53 50 51 60 77 78 61 83 32 26
83 90 95 97 100 122 145 147 146 135 111 96 120 147 139 72
56 80 97 82 83 61 1 0 20 105 105 107 84 102 87 106
109 76 87 53 59 84 83 89 83 86 87 86 85 83 39 69
81 70 75 73 68 67 70 61 63 55 44 28 30 30 31 32
32 33 34 33 17 0 0 0 0 0 0 0 12 33 32 32
38 15 20 35 37 37 36 34 21 16 32 35 35 34 33 33
32 32 32 32 38 43 40 24 26 43 52 48 46 51 58 58
73 77 51 23 51 69 62 49 67 61 79 81 66 53 4 3
52 95 92 93 97 104 129 144 147 143 116 99 116 145 104 59
94 98 105 96 68 3 0 0 1 86 110 114 83 83 87 107
109 82 116 66 50 72 81 92 87 84 90 86 85 85 70 34
84 69 79 67 68 66 70 66 62 60 53 32 29 30 31 31
31 32 32 33 16 0 0 0 0 0 0 0 15 32 31 31
12 33 39 38 38 37 37 37 36 31 15 31 35 33 32 31
30 29 29 37 40 41 23 14 50 59 59 60 53 57 65 68
84 75 46 34 54 53 63 35 42 70 65 81 80 18 1 4
32 90 88 90 95 103 117 132 143 141 124 99 107 109 89 98
91 103 83 59 68 23 0 0 0 40 114 113 87 112 92 108
110 82 110 75 55 61 72 86 89 81 87 85 84 86 83 30
64 76 80 21 33 56 61 70 62 63 61 39 28 30 30 31
31 31 32 32 16 0 0 0 0 0 0 0 12 32 31 31
36 37 36 34 33 32 31 28 26 23 16 8 13 10 7 7
8 17 37 44 48 38 16 37 57 58 62 65 57 63 64 72
70 55 50 48 46 42 52 16 37 68 57 83 84 20 0 0
25 74 85 96 94 103 113 121 138 137 124 97 95 105 84 55
83 105 61 66 83 53 17 15 21 46 76 114 93 113 90 110
109 88 107 80 66 69 60 79 92 83 84 83 83 86 84 52
34 85 71 26 26 36 63 70 75 72 68 38 29 30 30 31
32 32 32 32 15 0 0 0 0 0 0 0 3 30 31 31
8 12 19 22 22 22 22 21 17 7 7 6 0 1 2 4
12 37 43 44 52 32 18 43 62 59 62 66 64 63 61 76
56 41 48 43 37 37 49 14 44 55 60 77 83 26 0 1
14 77 76 95 99 94 122 121 120 112 105 100 99 111 82 104
100 95 75 96 108 81 96 85 62 58 25 75 89 114 95 111
109 90 76 73 85 76 78 64 80 87 82 83 81 81 84 71
26 72 80 36 26 39 62 80 82 77 70 34 29 29 30 30
32 32 33 35 16 0 0 0 0 0 0 0 15 14 31 31
6 14 36 41 44 44 45 49 48 48 46 41 8 3 8 7
36 41 42 42 54 33 17 44 62 60 64 69 67 57 67 72
48 50 43 45 38 51 46 13 53 57 73 65 83 32 0 1
25 44 80 79 94 105 116 114 76 68 90 98 108 116 90 112
108 99 102 89 100 86 109 109 103 97 54 29 52 91 96 112
110 95 97 84 76 73 76 48 54 81 86 79 77 79 84 79
36 43 84 38 26 40 64 81 84 77 70 34 29 30 30 31
32 34 35 39 16 0 0 5 2 0 0 0 25 11 26 30
19 26 65 64 64 62 61 57 55 50 50 42 17 0 3 27
47 41 43 43 54 40 17 42 64 63 62 70 67 60 75 62
55 68 61 58 43 65 20 10 65 59 77 60 86 31 1 6
58 33 64 77 59 60 63 76 80 35 45 80 115 110 92 113
127 100 105 96 101 90 113 112 109 109 85 69 31 56 97 112
113 99 103 85 59 62 48 65 73 65 84 81 73 81 84 77
65 48 85 49 29 40 59 78 85 79 70 56 32 33 33 34
35 37 39 43 16 0 45 116 58 0 0 0 28 25 11 29
18 21 59 51 54 56 53 53 48 44 51 47 31 4 15 43
48 39 44 44 51 50 28 42 65 65 59 66 67 72 81 51
64 67 62 59 58 81 44 18 70 71 67 56 89 31 9 20
54 44 55 77 60 50 45 69 86 68 28 81 115 104 89 123
129 100 107 77 84 93 115 111 108 113 86 86 77 65 77 114
109 97 100 71 52 46 53 66 77 61 66 81 72 84 84 81
83 81 71 45 34 38 54 70 81 79 68 66 42 7 4 4
3 3 3 3 1 0 79 148 73 0 0 1 29 29 13 23
46 44 54 67 71 70 67 65 56 45 42 37 11 3 34 44
51 39 45 44 49 63 37 52 61 63 61 64 69 76 67 39
21 32 47 47 65 90 90 55 69 92 54 65 84 78 65 64
90 78 101 82 100 55 52 43 62 67 41 103 98 87 94 126
121 113 106 74 87 95 117 109 110 117 91 109 89 117 92 95
111 95 76 56 52 63 67 74 25 41 58 82 70 83 85 90
93 93 62 42 36 44 54 62 79 77 65 61 66 48 3 0
0 0 0 0 0 0 14 27 9 0 0 2 29 29 25 6
32 33 38 46 45 42 41 39 31 26 25 11 5 37 41 47
55 42 45 47 47 69 58 55 63 63 62 73 73 74 63 58
44 33 47 47 90 111 112 75 68 106 66 93 79 92 102 88
99 86 93 105 81 89 70 60 55 59 72 119 92 98 96 123
126 117 98 91 101 99 119 107 109 119 89 110 87 124 121 113
112 97 45 53 43 62 61 47 19 29 48 85 69 88 88 93
94 91 58 39 37 47 58 54 77 77 60 57 65 78 39 0
0 0 0 0 0 1 0 0 0 0 0 3 24 18 3 4
35 36 37 37 38 37 37 32 24 22 22 10 31 42 43 51
60 50 44 47 48 71 76 75 67 76 83 78 70 65 63 61
61 50 55 57 99 109 110 75 69 108 78 82 70 110 106 96
85 102 88 117 99 71 71 57 43 69 84 117 97 101 102 124
121 120 94 93 102 101 121 110 107 120 89 111 87 123 121 117
111 97 46 41 57 104 51 55 53 30 65 80 71 95 86 91
86 87 45 33 37 46 64 50 76 75 37 17 68 80 72 14
0 0 0 0 0 0 0 0 0 0 0 0 5 6 21 23
21 19 17 14 11 8 27 29 23 23 23 33 42 42 46 57
62 57 43 46 50 73 79 83 82 78 81 73 62 64 60 64
62 51 57 69 102 111 111 84 79 106 96 60 85 115 111 98
79 111 86 121 118 100 66 60 43 57 105 123 101 94 114 125
120 111 90 107 110 101 122 109 108 119 87 108 88 121 120 118
114 103 83 94 84 115 66 56 66 37 71 66 81 95 95 86
86 74 23 25 40 48 65 50 72 74 26 0 8 57 80 65
5 0 0 0 0 0 0 0 0 0 0 0 1 1 10 13
0 0 0 0 0 0 10 9 3 7 18 40 41 40 47 60
68 62 49 41 47 70 81 77 82 71 61 69 69 57 58 66
62 49 58 70 104 113 102 81 95 113 70 79 100 115 117 113
76 89 80 119 115 120 84 64 57 40 102 128 105 98 121 118
112 107 90 102 99 102 122 104 111 119 88 89 86 120 120 117
116 108 89 111 86 119 83 53 70 57 61 54 76 94 89 86
93 71 18 14 31 50 65 53 67 72 30 0 0 5 57 77
46 0 0 0 0 0 0 0 0 0 0 0 0 0 0 0
1 0 0 0 0 0 0 0 0 0 27 41 42 41 51 64
62 57 57 43 45 69 79 72 65 63 73 86 75 58 59 68
60 49 59 65 102 112 97 83 104 79 45 104 102 110 120 122
87 99 81 112 118 117 95 66 58 80 107 120 95 86 120 119
108 110 90 90 89 103 116 103 111 116 88 103 87 125 125 123
122 112 88 108 91 125 101 50 71 71 53 53 79 78 86 84
98 89 34 17 29 54 63 50 62 69 45 18 0 0 7 67
77 21 0 0 0 0 0 0 0 0 0 0 0 0 0 0
0 0 0 0 0 0 0 0 0 4 47 41 40 43 55 63
62 72 72 45 47 65 65 66 68 79 83 80 74 63 56 65
60 51 61 60 96 112 99 96 94 69 76 96 108 109 118 121
88 110 91 101 118 123 94 68 66 77 111 110 85 83 123 124
114 113 87 106 100 102 111 111 112 120 92 118 92 125 124 121
125 115 76 85 91 126 113 57 73 74 53 68 81 88 75 81
94 90 47 42 40 30 67 55 63 67 50 42 26 2 0 28
78 54 0 0 0 0 0 0 0 0 0 0 0 0 0 0
0 0 0 0 0 0 3 5 13 44 42 44 40 48 57 64
71 75 70 50 48 53 74 75 69 84 79 68 65 70 49 67
61 52 65 55 86 109 112 115 102 83 107 89 109 107 118 125
96 98 99 89 113 111 90 67 67 62 110 93 107 89 126 122
117 117 89 113 102 96 113 112 113 120 95 112 89 127 121 120
127 123 83 106 89 126 121 74 71 73 56 70 75 84 88 80
71 76 43 50 37 12 38 69 54 66 55 45 45 29 4 7
71 64 0 0 0 0 0 0 0 0 0 0 0 0 0 0
0 0 2 9 16 27 36 28 44 53 43 47 42 48 61 66
72 70 71 57 44 58 78 70 78 81 77 68 78 71 48 65
61 50 63 45 69 112 117 115 114 87 115 82 113 101 116 122
104 94 109 80 108 103 95 69 62 68 105 77 110 102 123 123
115 112 87 106 103 98 120 110 116 125 100 120 94 126 122 122
128 124 86 110 88 123 123 89 70 74 56 76 75 81 82 83
90 57 33 52 39 32 2 54 66 56 56 53 48 47 26 1
50 38 0 0 0 0 0 0 0 0 0 0 0 0 0 0
