P2
128 120
154
46 45 44 44 44 44 43 43 42 42 41 41 41 40 40 39
39 38 38 37 37 35 35 34 34 33 33 32 31 31 30 29
30 29 28 27 27 26 26 25 25 24 23 23 23 22 22 21
21 20 20 19 19 19 19 18 17 17 17 18 23 23 24 23
18 8 18 24 20 18 19 18 17 16 14 13 13 13 11 8
8 10 13 14 16 17 17 18 19 19 20 20 20 20 20 20
21 21 22 22 22 22 23 24 24 24 25 25 25 26 28 26
27 27 28 28 29 29 29 29 30 30 30 31 31 30 30 33
44 44 44 44 44 43 43 42 41 42 41 41 40 40 40 39
39 38 37 36 35 35 35 34 33 33 32 32 32 31 30 30
29 28 28 27 27 26 26 25 25 24 24 23 23 22 22 21
21 21 20 20 20 19 19 19 18 18 18 19 23 24 24 24
19 10 16 25 20 19 19 18 17 16 15 14 13 13 13 9
9 11 14 16 18 18 18 19 19 19 19 20 20 21 22 21
22 22 22 23 23 23 24 24 24 25 25 26 26 26 27 27
28 28 28 29 29 29 29 30 30 30 31 31 31 31 31 32
44 44 44 44 43 43 43 42 42 42 42 41 41 40 39 39
38 38 37 36 36 36 35 34 34 33 33 32 32 31 31 30
29 28 28 28 27 26 26 25 26 25 24 23 23 23 22 22
22 21 20 21 20 20 20 19 19 19 20 21 25 25 25 25
19 12 15 25 21 20 20 19 18 17 16 15 15 14 14 11
10 12 15 17 18 19 19 19 19 20 21 21 21 22 22 22
22 23 24 23 23 23 25 25 25 25 26 26 27 27 29 27
28 28 28 29 29 30 30 30 30 31 31 32 32 32 30 30
45 45 45 44 44 43 43 43 42 42 41 41 41 40 39 39
39 38 37 37 36 35 35 35 34 33 33 33 33 31 31 31
30 30 29 28 27 27 26 26 26 25 25 24 23 23 23 22
22 22 22 21 21 20 20 20 20 19 20 22 26 25 26 26
20 15 16 27 22 21 20 20 19 18 19 18 15 15 14 12
11 13 16 18 19 20 20 20 21 22 22 22 23 22 23 23
24 24 24 25 25 25 25 26 25 26 26 27 27 27 28 28
29 29 30 30 31 31 29 31 31 32 31 30 30 31 33 32
45 45 44 44 44 44 43 43 42 42 42 41 41 41 40 39
39 38 38 37 37 36 36 35 35 34 33 33 33 32 32 31
31 30 30 29 29 28 27 27 26 26 26 25 24 25 24 23
23 23 22 21 21 21 21 20 20 20 21 22 27 27 27 27
20 16 15 26 23 22 21 21 20 19 17 18 16 17 17 14
14 14 18 20 20 21 21 22 22 22 22 23 23 24 25 24
24 25 25 25 25 26 26 26 26 27 27 28 28 29 30 29
29 30 30 31 31 30 30 29 30 31 33 33 33 33 33 33
46 45 45 44 45 45 43 43 43 43 43 42 42 40 40 40
40 39 39 38 38 37 36 36 35 35 35 33 33 33 32 32
31 30 31 30 30 28 28 28 28 27 27 26 26 25 25 25
24 24 24 23 23 22 22 21 21 21 22 24 28 28 28 28
22 17 16 28 24 22 21 22 22 21 19 20 18 18 18 16
16 17 20 22 22 22 23 22 24 24 24 24 24 25 25 25
25 26 26 26 26 27 27 27 28 28 29 29 29 29 31 31
31 30 29 28 30 31 33 34 33 33 33 33 34 33 34 34
46 46 45 45 45 45 45 44 44 43 43 42 42 42 41 40
40 40 40 38 38 37 37 37 36 36 36 35 35 33 33 32
32 32 31 30 30 29 29 29 28 28 27 27 27 26 26 25
25 24 24 23 23 23 23 22 22 22 23 25 29 29 30 29
23 17 13 26 24 22 22 22 22 21 20 21 19 19 19 18
16 18 22 23 23 23 23 23 24 25 25 25 25 26 25 26
26 26 26 27 27 27 27 28 28 28 29 30 29 29 28 28
29 30 31 32 32 33 33 34 33 33 33 33 34 35 34 34
46 46 45 45 45 44 44 43 43 43 42 42 41 41 41 40
40 39 39 39 38 38 37 37 36 35 35 35 34 33 33 32
32 32 32 31 30 30 29 29 28 28 28 27 26 26 26 25
25 25 24 24 24 23 23 23 22 23 23 25 30 30 30 29
23 15 9 25 26 24 24 23 23 22 20 21 19 20 19 19
17 19 23 23 24 24 24 24 25 25 25 25 25 25 25 26
26 26 28 27 28 28 29 29 29 29 28 27 27 28 30 31
31 31 32 32 33 33 33 34 33 33 34 34 35 34 34 34
45 45 45 44 45 45 44 43 44 43 43 42 42 41 41 40
39 39 39 38 38 37 37 37 36 36 35 34 34 34 33 33
32 32 31 31 30 30 29 29 29 28 28 27 27 27 26 25
25 24 24 24 23 23 23 23 23 23 24 25 30 30 30 29
23 17 15 27 26 24 24 24 23 22 22 23 20 20 20 19
18 20 23 23 24 23 24 24 25 25 25 25 25 26 26 27
27 27 27 28 28 28 27 27 27 27 28 30 30 30 30 31
31 32 32 32 33 33 33 35 34 33 34 33 34 34 34 34
48 46 45 45 44 44 44 43 43 42 42 42 41 41 41 40
40 39 39 39 38 38 37 37 36 36 35 34 34 33 33 33
32 32 31 31 31 30 30 29 29 28 28 27 26 26 25 25
25 25 24 24 24 23 23 23 23 23 24 25 30 30 30 30
24 17 19 25 27 25 25 24 24 23 22 22 20 21 20 19
17 20 23 25 24 24 25 25 25 25 25 26 26 26 27 26
26 27 27 27 28 28 29 29 29 28 29 30 30 30 31 31
32 32 33 33 32 33 33 35 34 34 34 34 35 34 34 33
60 61 62 58 53 47 43 43 42 43 43 41 42 41 41 40
40 38 38 38 37 37 36 36 36 36 35 35 34 34 34 33
32 32 31 31 30 29 29 29 29 28 28 27 27 27 26 26
26 25 25 25 24 24 24 23 23 24 24 25 31 30 30 29
24 18 22 24 27 25 25 24 24 23 22 24 21 21 21 20
17 21 24 25 24 24 25 25 25 25 26 26 26 26 26 26
26 26 27 27 28 28 29 28 28 29 30 29 30 30 31 31
31 32 32 32 33 33 33 34 33 33 33 33 34 34 33 34
36 45 55 58 59 53 43 43 43 42 42 42 41 41 41 40
40 40 39 38 38 38 37 37 37 35 36 35 34 34 33 33
32 32 32 31 31 30 30 29 29 28 28 27 27 26 26 26
26 25 25 25 25 24 24 24 24 24 25 26 31 30 30 31
24 20 24 22 28 26 26 25 25 24 23 24 20 21 21 20
18 22 24 24 25 25 25 26 26 26 26 25 25 26 27 27
27 27 27 29 29 28 29 30 29 30 30 30 29 31 31 31
32 32 32 33 32 33 33 34 34 34 34 34 34 34 34 33
0 0 1 26 59 51 43 43 42 42 43 42 41 41 41 40
39 38 38 38 37 37 37 36 36 36 36 35 34 34 33 32
33 32 32 31 31 30 30 29 29 28 28 28 27 27 26 26
26 26 25 25 25 23 24 24 24 23 24 25 31 31 31 30
24 21 26 21 27 25 25 25 24 24 23 24 22 22 22 21
18 22 24 25 25 25 26 25 25 25 26 26 27 26 27 27
27 28 28 28 28 28 29 29 29 29 30 30 30 31 31 31
33 32 32 33 33 33 33 34 33 33 33 34 34 34 35 34
0 0 0 22 60 53 43 43 42 42 42 41 41 41 40 40
40 39 39 39 38 37 37 37 36 36 35 35 35 34 34 33
33 32 32 31 31 31 30 30 29 28 28 28 27 27 27 27
27 26 26 25 25 24 25 24 24 24 25 25 32 31 31 31
25 20 27 20 27 27 26 26 25 24 24 25 22 22 22 20
19 23 24 25 25 25 26 26 27 27 27 27 27 26 27 27
27 28 28 28 29 29 30 30 30 30 31 31 31 31 31 31
31 33 32 33 34 34 33 35 34 34 34 34 35 34 34 34
0 0 0 21 59 52 42 43 43 42 42 41 41 41 40 40
40 39 39 38 38 38 37 37 36 36 35 35 35 34 34 33
33 32 32 31 31 30 30 30 29 29 28 28 28 28 27 27
27 26 26 25 25 24 25 25 24 24 25 26 32 32 32 32
26 21 28 19 28 27 26 26 25 24 24 26 21 22 22 21
18 22 23 26 26 26 26 27 27 27 27 27 27 27 27 27
28 28 28 29 29 29 29 30 30 30 30 30 31 32 31 32
32 32 33 33 33 33 34 34 34 34 34 34 35 34 32 33
0 0 0 21 59 52 43 43 42 42 41 41 41 40 41 40
40 39 39 38 38 38 37 37 36 36 36 35 35 34 34 33
33 33 32 32 31 32 31 30 30 29 29 28 28 28 27 27
27 26 26 26 25 25 25 25 25 25 26 26 32 33 32 32
26 21 29 20 28 27 27 26 26 25 25 26 22 22 22 22
19 24 25 27 26 26 27 27 28 27 27 28 28 27 28 28
28 28 28 30 29 29 30 31 30 31 31 31 31 31 32 32
32 32 33 33 33 33 33 34 34 33 32 33 33 34 35 35
2 0 0 22 58 51 42 42 42 42 42 41 42 41 41 40
40 39 39 39 38 38 37 37 37 36 36 36 35 35 34 34
33 33 32 31 31 31 31 30 30 29 29 29 29 28 28 27
28 26 27 26 25 25 25 25 25 24 26 27 31 32 33 32
25 22 30 20 29 27 27 27 25 25 24 27 22 23 23 22
19 25 26 27 27 27 28 28 28 27 28 28 28 28 28 29
28 28 29 30 30 30 30 31 31 31 31 31 32 31 32 32
33 33 33 33 33 31 32 32 32 35 34 34 34 35 35 35
6 0 0 24 58 50 43 43 42 42 42 42 41 41 41 40
40 40 39 38 38 38 38 37 37 36 36 35 35 35 34 34
34 33 32 33 32 32 31 31 31 30 30 29 29 28 28 28
28 27 27 26 26 26 25 25 25 25 27 27 31 30 31 31
24 20 29 20 27 26 27 26 26 25 25 26 23 23 23 22
19 25 25 27 27 27 28 27 28 28 28 28 28 28 28 29
29 29 30 30 30 31 30 31 31 32 31 32 32 32 32 32
32 32 32 32 33 35 34 34 34 34 34 34 35 34 34 34
14 0 0 24 57 49 42 43 43 42 42 42 42 41 41 41
40 39 40 39 39 38 38 37 37 36 36 36 35 35 35 34
33 33 32 32 32 32 31 31 31 30 29 29 29 29 29 28
28 27 27 26 26 26 25 25 23 21 23 22 22 20 18 17
16 16 23 20 24 23 25 26 25 26 25 27 24 24 24 24
19 26 26 27 27 28 27 28 29 28 28 28 28 28 29 29
30 30 30 30 31 30 31 32 31 31 31 31 30 31 31 33
34 34 34 35 34 34 34 34 34 35 35 34 34 35 35 35
10 1 0 26 57 49 43 42 42 42 42 42 41 41 40 40
40 40 39 39 38 38 38 37 37 36 36 35 35 35 34 34
33 33 32 33 32 32 32 31 31 30 30 29 29 27 26 26
26 27 26 26 26 26 23 16 15 9 7 7 6 3 4 4
7 7 9 13 17 21 23 24 26 25 26 25 24 24 24 23
19 25 25 28 28 28 28 29 29 28 29 29 28 28 29 29
29 30 30 31 31 31 31 30 31 31 31 32 32 31 32 34
34 33 34 34 34 34 35 35 35 35 35 34 35 35 35 35
9 10 8 27 57 49 43 42 43 42 42 42 42 41 41 41
40 40 40 39 38 38 38 38 36 36 36 36 36 35 34 35
34 34 33 33 32 32 31 31 31 31 30 29 28 25 25 25
25 25 26 26 26 23 13 2 0 1 2 0 1 3 4 2
3 4 5 8 8 12 20 24 26 24 25 25 25 25 25 24
20 26 26 29 28 29 28 29 30 29 29 29 29 30 30 30
31 31 31 30 31 31 32 32 31 32 31 32 32 32 33 34
34 34 35 35 35 35 35 35 34 34 35 35 35 34 35 35
11 7 18 39 56 48 43 43 43 43 42 42 41 41 41 41
40 40 39 39 39 38 38 38 37 37 37 36 36 35 35 34
34 34 33 33 33 32 32 32 31 31 30 29 24 25 26 26
23 22 22 21 22 14 1 0 0 0 0 0 2 4 7 6
6 4 3 5 5 8 7 11 18 25 25 25 25 25 25 24
20 26 26 28 29 29 29 30 30 30 30 30 30 30 30 30
31 30 31 30 31 31 31 32 31 32 33 33 32 33 33 35
33 34 34 35 34 34 35 35 34 35 34 35 34 35 34 34
47 45 40 45 53 46 43 43 43 42 42 41 42 41 41 40
40 40 40 39 38 38 37 37 37 37 36 36 36 36 35 34
34 33 33 33 32 32 32 31 31 30 30 28 25 26 26 25
24 21 20 17 15 3 0 0 0 0 0 1 4 5 6 6
3 3 6 8 9 5 5 5 5 13 20 23 24 25 24 24
20 26 25 29 29 29 29 29 29 29 29 29 29 29 29 30
31 30 31 31 31 31 31 33 32 31 32 32 32 33 33 35
33 34 34 35 34 34 35 35 34 34 34 34 34 35 34 34
41 43 44 45 46 44 43 43 43 43 42 42 41 41 41 40
40 39 39 39 38 38 38 37 37 37 36 36 36 35 35 35
34 34 33 33 33 32 32 32 32 33 31 27 24 23 21 16
12 6 3 7 4 0 0 0 0 0 0 0 1 3 5 5
7 3 3 6 7 8 6 4 2 4 13 19 24 25 24 24
21 27 25 29 28 29 29 29 28 30 30 29 30 30 30 31
31 30 31 31 31 31 31 31 32 33 32 33 34 34 34 35
34 34 34 34 34 35 34 34 35 34 35 34 34 34 35 35
27 32 37 41 44 45 44 44 43 42 42 42 42 41 41 40
40 40 39 39 38 38 37 38 37 36 36 36 36 36 35 35
35 34 34 33 33 32 32 32 34 30 29 25 21 17 10 4
2 1 0 0 0 0 0 0 0 0 0 0 0 0 1 2
4 4 5 6 7 10 7 5 5 1 10 15 19 25 25 25
21 27 24 29 29 29 29 30 30 30 30 30 30 30 31 32
32 31 31 32 31 31 32 33 33 33 33 33 34 34 34 35
33 34 35 35 35 34 35 34 35 34 34 35 35 35 35 35
18 18 18 20 22 27 33 37 41 43 44 43 42 42 41 40
39 39 39 39 38 38 38 38 38 37 37 36 36 36 35 35
34 34 33 34 33 33 33 34 32 30 29 22 14 5 2 2
1 0 0 0 0 0 0 0 1 1 0 0 0 0 1 0
1 5 7 5 5 6 8 7 2 5 7 15 13 22 25 25
20 27 25 30 29 29 30 30 30 30 31 30 31 31 31 31
32 31 32 32 31 32 32 33 33 33 33 33 34 35 34 34
34 34 34 35 35 34 34 34 34 34 35 35 35 35 35 35
18 18 18 19 18 19 19 19 17 21 26 30 34 39 41 40
40 40 40 39 39 38 38 38 38 37 37 36 36 35 36 35
35 34 34 34 34 33 33 33 31 29 29 18 4 0 2 1
0 0 0 0 0 0 2 2 2 2 1 3 3 0 1 0
0 0 2 6 3 3 6 7 9 5 3 7 11 13 25 26
23 28 26 30 30 30 30 30 30 30 31 30 30 30 31 31
31 31 31 32 32 32 33 32 33 34 34 33 33 34 34 34
35 34 35 35 35 35 35 35 35 35 34 33 32 32 33 34
30 25 21 20 19 18 19 18 18 19 19 18 14 16 19 31
40 40 40 40 39 38 39 38 38 38 38 37 36 35 35 35
35 35 34 34 34 34 33 32 32 29 24 9 0 0 1 0
0 0 0 0 1 6 5 5 5 6 5 7 5 6 3 4
2 2 1 0 1 2 2 6 6 10 6 5 2 3 19 26
22 28 26 30 30 30 29 30 31 31 30 31 32 31 31 31
33 32 32 32 32 32 32 33 34 33 33 34 35 34 34 34
35 35 34 35 35 34 34 33 33 32 33 34 36 35 35 34
59 55 53 35 24 25 18 18 17 18 18 19 11 8 16 30
42 41 40 39 39 39 38 37 38 37 37 37 36 37 36 36
35 35 35 34 34 34 33 33 30 25 15 0 0 0 0 0
0 0 0 2 8 17 13 9 8 8 9 4 3 3 8 3
4 1 1 0 0 0 5 7 8 12 14 9 11 0 7 25
23 29 26 30 30 30 30 31 31 31 31 31 31 31 32 32
33 33 32 33 32 33 33 33 33 34 34 34 35 35 34 34
35 34 33 34 34 35 35 35 36 35 35 34 34 35 34 34
61 60 58 40 35 40 46 41 31 26 20 17 15 17 17 29
41 40 40 40 39 38 36 37 38 38 38 37 37 36 36 36
35 35 35 34 34 34 34 33 28 26 6 0 2 1 0 0
0 0 1 11 28 23 19 20 20 13 11 8 5 4 8 7
4 5 4 2 10 2 0 9 12 15 16 14 8 5 0 15
23 28 25 30 30 30 31 31 31 31 31 31 31 32 32 33
34 33 33 33 33 32 33 33 34 34 33 33 33 33 34 34
33 34 34 34 34 34 34 34 36 34 34 34 34 35 35 34
60 60 60 43 42 45 50 48 40 52 51 48 30 15 18 28
41 40 40 39 39 38 44 48 45 43 40 38 37 36 35 36
36 36 35 34 34 34 34 32 26 21 0 0 1 0 0 0
0 0 11 29 42 41 37 40 34 27 11 7 3 9 7 13
16 8 8 5 10 13 6 2 5 9 9 11 8 2 1 5
21 28 26 30 30 30 31 31 31 31 31 32 31 32 32 32
34 33 33 33 33 33 33 33 33 34 33 33 34 33 32 34
33 34 33 34 34 34 34 34 36 34 34 34 34 34 34 34
36 45 55 45 46 48 52 52 51 56 56 56 40 16 20 31
42 41 40 40 39 39 47 52 49 49 45 43 42 41 39 36
36 35 35 35 33 34 34 31 28 7 0 0 0 0 0 0
0 12 26 45 57 60 57 55 49 48 31 10 10 7 8 11
15 19 13 11 10 15 13 5 0 0 4 6 8 5 1 0
16 28 26 30 31 30 31 31 32 32 32 32 32 32 32 33
33 32 32 31 33 33 34 33 35 32 34 34 34 33 34 34
34 34 33 34 34 34 33 33 35 34 34 35 35 34 34 34
8 0 31 48 47 49 52 52 55 57 56 57 44 16 20 36
44 43 42 41 39 39 48 52 50 47 44 45 46 49 46 42
43 41 36 35 33 34 33 31 20 0 0 0 0 0 0 0
2 25 46 60 64 67 70 65 65 65 53 23 21 19 13 8
17 14 19 22 14 19 23 19 6 0 2 2 1 5 3 2
7 27 26 31 31 31 31 32 33 33 32 32 32 31 31 32
32 33 34 33 33 32 33 34 35 34 34 34 34 34 34 34
34 33 34 34 35 34 34 34 35 34 35 35 35 34 34 34
17 6 34 47 47 48 47 52 55 55 56 57 47 17 19 38
47 43 44 43 42 41 46 40 46 47 47 49 50 51 47 39
41 44 43 41 39 37 36 30 8 0 0 0 0 2 0 0
12 41 61 68 73 78 83 80 72 70 63 41 28 21 24 16
12 12 15 23 25 17 21 21 13 4 0 5 0 2 6 2
3 27 26 31 31 31 31 32 31 31 31 32 32 32 32 33
33 33 33 33 32 32 33 34 34 33 34 34 34 34 34 34
34 34 34 33 34 33 34 34 35 34 34 34 35 34 35 33
20 11 38 43 17 28 37 48 54 56 54 52 45 17 20 37
48 38 38 42 46 47 50 3 1 14 33 40 43 48 47 13
2 10 18 29 34 37 43 33 2 0 0 0 0 0 0 2
30 54 74 76 85 87 93 89 85 81 69 55 33 26 28 26
18 13 16 22 31 26 22 24 18 7 1 0 0 0 4 3
1 21 25 31 30 31 31 31 32 32 33 32 31 32 32 32
32 33 33 32 33 33 33 33 35 34 34 34 34 34 34 34
34 34 34 34 34 34 34 33 35 35 34 34 34 34 35 33
15 12 38 40 1 1 5 8 14 24 26 38 48 19 20 36
49 46 43 37 45 52 53 4 0 2 13 18 15 16 43 11
0 0 0 0 1 4 11 13 1 1 0 0 0 0 2 12
42 64 76 82 90 93 100 101 98 89 82 64 42 30 33 29
29 19 14 24 24 31 28 27 26 16 5 0 0 0 0 0
0 18 25 31 32 31 31 32 33 33 33 32 32 32 33 32
33 33 33 33 33 33 34 33 35 33 34 34 34 34 35 34
35 35 35 34 34 34 34 34 34 35 35 34 34 34 34 34
0 0 40 40 0 0 0 0 0 0 0 12 48 18 19 12
16 25 38 47 52 53 54 5 0 1 9 12 16 15 42 12
0 0 0 0 0 0 0 5 1 0 0 0 2 1 5 19
47 66 76 80 88 94 103 107 103 94 91 79 62 39 36 34
35 29 20 16 24 35 30 27 42 28 9 2 0 0 0 0
0 10 25 31 32 33 33 33 33 33 33 33 32 32 32 32
33 33 33 33 33 33 34 34 36 35 34 34 34 34 34 34
34 34 34 33 34 35 34 34 35 35 35 34 34 34 34 34
0 0 41 37 2 5 0 0 0 0 0 13 48 18 19 4
0 0 0 2 11 21 39 8 0 0 5 2 8 8 40 15
1 0 0 0 0 0 0 5 1 0 0 0 5 3 7 24
50 62 73 78 89 96 102 111 108 100 96 94 78 53 41 33
31 33 29 23 26 30 36 30 25 32 15 4 1 0 0 0
0 5 24 32 33 32 32 31 33 33 32 32 33 33 32 33
34 33 34 35 34 34 34 33 35 35 34 34 34 34 35 35
35 34 34 35 35 34 34 35 35 34 34 35 34 35 34 35
0 0 41 37 1 6 0 26 3 0 0 13 49 18 19 4
0 0 0 0 0 0 15 9 0 0 0 0 0 8 37 11
0 0 0 2 4 0 2 4 1 0 0 0 8 6 8 28
50 62 73 79 87 94 101 108 109 105 101 101 97 75 51 44
29 33 30 26 26 31 36 37 32 25 16 2 1 0 0 0
0 3 24 32 33 33 33 33 33 33 33 33 33 32 33 33
33 33 33 34 34 34 35 34 36 34 35 35 35 35 35 35
35 35 35 35 35 35 35 35 36 34 35 35 35 36 36 35
3 0 42 35 2 6 1 13 20 0 0 14 48 18 20 4
0 0 0 0 0 0 12 8 0 0 0 0 0 8 43 15
0 0 0 5 17 6 6 6 3 0 1 1 11 9 5 28
50 64 72 82 89 96 103 109 116 111 108 105 107 98 74 53
48 41 40 35 26 27 28 35 32 30 19 9 2 1 0 0
0 1 20 32 33 33 32 32 33 32 32 32 33 33 33 33
34 33 34 34 35 34 34 34 35 34 34 34 34 34 35 35
35 35 36 36 35 35 34 34 34 36 35 36 36 35 36 35
0 0 40 33 1 5 2 9 8 0 0 15 46 17 20 4
0 0 0 2 0 0 11 6 0 0 0 0 0 5 43 16
0 0 1 8 16 13 9 5 5 0 3 2 8 5 1 26
50 67 74 84 94 106 108 114 120 125 118 105 104 106 98 75
49 41 35 33 33 29 32 24 26 29 27 5 5 0 0 0
0 0 15 31 33 33 32 32 33 33 32 33 33 33 33 33
33 33 33 34 34 33 35 34 36 35 34 34 35 35 35 34
33 33 34 35 34 35 35 35 36 35 35 35 35 35 34 33
1 0 40 30 0 2 2 0 5 0 0 16 45 18 20 4
0 3 4 19 0 0 10 5 2 2 0 0 0 7 43 17
0 0 0 10 16 13 7 10 7 1 5 7 7 7 1 22
51 68 73 82 96 97 92 95 112 123 133 125 108 104 107 100
78 51 35 26 31 31 37 39 31 27 29 9 2 5 1 0
0 0 13 32 32 32 32 32 32 32 32 33 33 33 33 33
34 34 34 34 35 35 35 34 35 34 34 34 34 34 35 35
35 35 35 35 34 36 35 35 35 36 34 34 35 34 34 34
0 0 41 28 0 2 11 0 0 0 0 17 43 18 19 3
10 12 5 4 0 0 9 6 2 0 0 0 2 8 43 18
0 2 1 5 13 9 6 12 14 4 7 12 3 3 0 23
55 67 71 75 69 40 23 27 44 75 115 138 129 118 114 103
72 46 37 29 20 23 25 32 31 28 21 17 0 2 1 0
0 0 9 32 33 32 32 32 33 33 33 33 33 33 33 34
33 33 34 34 34 34 34 33 34 35 34 35 34 35 35 35
36 35 36 35 35 34 35 35 35 35 35 34 36 35 35 34
47 42 48 37 7 4 6 5 3 0 0 19 43 18 20 5
12 1 0 5 4 0 9 7 0 0 0 0 0 22 45 26
3 1 4 0 1 3 5 6 9 9 7 10 2 1 0 27
60 67 72 59 29 24 48 61 64 68 92 131 141 129 124 121
92 66 53 42 33 19 17 16 14 15 23 16 3 1 1 0
0 0 4 31 33 32 33 34 33 33 33 33 33 33 33 34
34 34 34 35 34 34 34 34 34 34 33 34 34 35 35 35
36 34 35 35 35 35 35 35 35 34 34 35 35 36 35 35
50 55 45 69 55 30 41 41 45 41 35 38 36 18 19 5
2 0 0 0 2 0 14 39 25 15 16 8 1 1 45 49
43 40 35 25 13 2 5 4 6 7 8 5 0 1 1 33
65 65 52 34 48 92 111 112 106 102 112 127 141 140 136 128
121 108 89 74 90 69 39 22 16 8 13 23 3 0 0 0
0 0 0 26 33 32 32 31 33 33 33 33 33 33 33 33
34 33 33 33 34 34 34 34 34 34 34 35 35 35 35 35
36 34 34 35 35 34 35 35 34 33 33 32 35 32 34 32
2 33 68 72 47 33 47 53 56 53 53 52 35 18 19 4
0 0 0 0 0 0 15 57 52 43 47 47 45 39 56 38
16 19 22 26 24 8 2 0 0 3 8 0 0 0 2 40
64 44 33 66 90 114 123 125 122 119 116 123 137 140 142 137
122 118 120 118 107 102 101 73 45 31 23 22 7 0 0 0
0 0 0 20 32 32 32 31 33 33 32 32 33 33 33 33
35 33 33 33 33 34 34 33 34 34 34 34 34 35 34 35
35 34 34 31 32 31 31 33 33 33 33 31 30 26 23 20
0 37 69 68 40 36 46 52 55 54 58 56 36 18 20 5
0 0 0 0 0 0 17 61 43 49 53 55 59 50 48 32
15 16 16 15 11 2 0 0 0 1 6 0 1 1 3 47
58 46 75 92 100 112 123 128 131 128 119 121 126 140 142 141
132 119 119 121 121 121 117 111 90 75 55 50 17 0 0 0
0 0 0 22 33 32 32 32 32 32 33 32 33 33 32 32
35 33 33 33 34 34 35 34 34 34 34 35 35 33 35 35
35 34 34 35 34 28 28 25 22 19 16 14 13 13 13 13
0 37 65 56 22 23 37 46 48 53 55 57 37 19 20 33
37 28 18 9 3 0 18 51 39 50 53 56 60 53 44 32
16 18 17 14 9 0 0 0 0 0 2 0 2 2 5 55
68 71 84 89 99 115 126 135 133 133 122 120 125 136 143 142
133 124 121 120 116 120 126 117 102 95 87 67 38 2 0 0
0 0 0 22 33 33 33 32 32 32 32 32 33 33 31 31
34 33 33 33 34 34 35 35 35 36 36 36 36 34 31 29
26 22 20 26 33 15 10 13 15 16 16 17 18 18 19 19
0 36 65 55 8 0 0 0 0 2 4 30 37 19 21 39
55 56 53 51 49 44 48 45 37 49 52 54 57 54 47 36
18 18 16 12 7 0 0 0 0 0 1 0 0 1 10 62
74 77 84 82 98 118 123 128 133 134 129 122 120 135 143 141
133 123 114 104 100 106 114 115 105 99 96 92 59 6 0 0
0 0 0 26 32 32 32 32 32 31 32 32 33 33 32 31
33 34 35 34 35 35 35 33 31 28 25 21 18 17 15 15
15 16 16 21 31 11 15 18 21 21 22 24 24 25 25 26
0 33 64 57 5 0 2 0 0 0 0 24 38 20 21 39
56 56 55 54 55 55 57 31 7 16 24 31 40 41 41 40
20 16 14 8 3 0 0 0 0 0 0 0 0 0 20 68
75 80 82 80 90 100 98 110 105 116 128 126 115 123 140 139
139 125 107 64 48 16 22 50 66 93 105 105 81 17 0 0
0 0 3 30 33 33 33 32 31 31 29 28 30 33 34 35
34 32 30 27 24 22 19 18 16 16 16 17 18 19 20 20
21 22 22 22 31 14 21 25 28 28 28 29 29 30 30 30
0 29 63 54 3 0 0 0 1 7 6 23 39 19 19 35
53 54 54 56 56 57 58 24 0 0 0 1 8 16 25 42
17 15 11 0 0 0 0 0 0 0 0 0 0 2 33 74
80 84 77 56 39 29 15 46 85 67 126 124 109 113 131 130
132 129 101 78 81 62 67 81 63 80 102 110 93 30 0 0
0 0 2 26 29 29 29 28 29 30 30 21 19 26 23 20
19 18 18 17 18 19 20 21 22 22 23 24 25 26 26 26
28 28 28 28 35 18 26 29 30 31 31 31 32 32 32 32
0 26 58 49 2 0 0 0 11 37 35 32 38 34 30 35
41 41 42 43 44 49 54 20 0 0 0 0 1 7 28 43
16 14 13 2 0 0 0 0 0 0 0 0 0 2 44 74
83 86 68 39 51 61 54 87 99 89 117 118 102 107 120 125
122 125 118 105 100 110 123 123 104 102 109 112 97 37 0 0
0 0 3 25 29 29 27 25 22 19 18 16 14 17 18 19
21 21 23 24 24 25 27 27 27 27 28 29 30 31 30 31
32 31 30 22 17 12 29 32 32 33 33 34 33 33 34 34
0 26 55 45 0 0 0 0 8 34 32 26 31 25 24 27
24 27 35 38 34 45 53 18 0 0 0 2 4 0 20 43
14 11 4 0 0 0 0 0 0 0 0 0 0 4 54 79
89 89 76 67 87 113 112 107 103 108 120 104 96 103 122 122
117 121 127 116 109 107 115 121 119 115 112 113 103 44 0 0
0 0 1 15 16 17 17 16 18 19 20 21 22 23 25 26
27 27 29 30 30 30 31 31 31 31 32 31 32 32 32 32
32 32 31 13 4 2 28 33 34 35 34 33 34 34 34 34
0 30 56 44 0 1 3 0 1 16 18 25 30 27 25 28
30 29 34 36 35 45 52 16 0 0 0 0 2 0 20 40
2 1 0 0 0 0 0 0 0 0 0 0 0 8 60 84
92 93 90 93 97 108 109 109 112 123 121 99 94 103 126 129
121 121 133 135 124 123 123 130 134 126 116 112 103 51 0 0
0 0 5 11 18 20 22 22 23 25 26 27 27 28 30 30
31 31 32 31 32 32 33 33 34 33 34 33 34 34 33 30
25 20 29 12 10 1 25 33 34 35 34 34 34 34 33 34
0 32 57 43 0 0 4 0 0 0 0 12 24 21 23 19
16 23 32 37 44 49 49 15 0 0 0 0 0 0 24 39
0 0 0 0 1 0 0 0 0 0 0 0 0 14 65 84
92 89 98 107 114 116 119 123 123 132 114 96 94 108 129 132
124 122 129 142 140 131 135 138 140 138 129 114 102 58 1 0
0 0 1 9 23 26 27 28 28 29 30 30 31 31 31 31
31 32 33 33 34 34 34 35 35 34 34 33 34 35 15 0
0 4 25 8 2 0 24 32 34 35 34 34 34 34 34 35
0 38 59 42 0 0 5 8 0 0 0 14 31 30 27 13
0 0 0 0 3 6 18 16 0 0 0 0 0 0 26 36
0 0 0 0 1 2 0 0 0 0 0 0 0 17 68 84
86 94 105 116 122 124 127 131 136 130 105 96 95 110 129 135
126 121 128 142 143 141 140 141 143 143 136 120 106 62 2 0
0 2 2 0 19 29 30 30 31 31 30 31 32 33 33 32
32 34 33 34 34 34 34 35 35 35 36 34 35 35 28 22
28 31 31 14 0 0 24 32 34 35 34 33 34 34 33 33
0 41 58 40 0 0 0 10 5 0 0 15 38 33 29 15
0 0 0 1 0 0 7 15 0 0 1 3 1 0 24 32
0 0 0 0 0 10 0 0 0 0 0 0 0 17 69 80
83 97 112 124 129 130 131 132 136 125 98 94 96 112 130 138
130 120 122 138 143 142 143 143 143 143 139 126 107 74 11 0
0 0 3 1 10 28 31 31 32 31 30 32 33 34 34 34
34 34 35 34 34 34 35 36 36 35 34 35 35 35 34 34
33 32 29 16 0 1 23 32 33 34 34 34 33 34 34 34
34 48 54 40 0 0 0 10 8 2 0 16 42 34 28 15
0 0 0 3 0 0 7 14 0 0 14 14 5 0 25 29
0 0 0 0 0 5 0 0 0 0 0 0 0 17 68 77
85 101 118 129 136 133 133 131 135 117 94 88 97 114 133 143
135 121 119 134 144 143 142 143 143 143 141 130 108 81 20 0
0 0 0 2 16 29 32 32 32 32 32 33 33 33 34 33
33 34 34 34 35 34 35 36 36 36 35 35 36 35 34 33
32 31 30 22 0 3 26 33 34 35 34 34 34 34 33 34
36 41 46 42 19 11 5 12 17 12 3 13 45 31 27 15
0 0 8 13 2 0 6 15 0 4 23 19 9 0 25 27
0 2 0 0 1 0 0 0 0 0 0 4 6 12 65 78
86 101 117 127 130 130 132 135 134 111 89 89 98 117 137 144
141 124 117 125 141 144 143 143 144 143 138 124 105 76 19 0
0 0 0 0 9 25 30 32 32 32 33 35 34 34 34 34
34 34 35 34 34 34 35 35 35 35 35 35 34 34 35 34
33 31 29 23 9 12 28 33 34 35 34 34 34 33 33 33
9 24 47 44 42 49 43 39 47 43 38 40 47 27 26 15
0 6 19 23 11 2 5 23 5 11 20 18 16 0 24 25
1 3 1 0 0 0 0 0 0 2 16 34 24 9 60 76
86 100 112 122 129 133 134 138 132 98 87 98 103 127 145 145
144 131 126 119 127 143 143 144 144 142 135 119 105 68 24 0
0 8 11 1 13 25 31 32 31 32 33 34 34 34 33 34
34 34 34 34 34 35 34 35 36 34 35 34 34 34 34 34
33 30 28 23 23 24 30 34 34 35 34 34 34 34 33 35
18 31 49 44 14 9 14 26 34 46 51 54 52 30 24 17
0 6 17 19 9 2 4 47 43 46 47 44 43 39 47 27
0 0 0 0 0 0 1 0 0 0 36 60 42 23 55 75
84 98 107 116 127 133 141 141 118 86 89 100 108 119 141 145
144 134 130 120 114 137 144 143 144 139 128 109 103 81 32 0
1 14 24 8 15 23 31 33 33 33 34 34 34 34 34 34
34 34 35 36 35 35 34 34 36 35 34 34 35 34 34 33
34 32 29 27 27 30 33 35 34 35 34 34 35 34 34 33
14 36 50 45 11 2 0 2 9 2 39 54 48 29 24 17
0 2 7 2 4 0 4 46 44 50 50 49 51 56 58 37
11 14 11 2 1 3 1 1 0 0 26 64 53 42 49 70
77 90 102 110 123 133 142 141 105 84 86 84 65 98 126 136
130 82 108 119 116 130 143 144 144 139 125 108 101 88 26 0
2 18 29 25 28 28 31 33 33 34 33 34 34 35 33 34
34 33 35 34 35 34 35 35 34 35 34 35 35 34 34 33
32 32 30 29 29 34 34 34 33 35 36 34 35 35 34 35
10 32 52 46 7 0 3 22 37 13 45 51 43 28 27 25
21 1 7 2 2 0 3 46 47 49 48 48 53 60 59 48
37 36 36 32 24 10 2 0 0 0 9 67 59 47 48 69
75 85 96 105 117 134 141 143 111 90 83 62 67 82 101 116
116 106 97 120 127 132 140 143 144 139 126 109 102 95 16 0
4 21 31 29 33 33 33 33 33 33 33 33 34 34 34 34
34 34 34 34 35 35 34 34 34 35 34 35 34 35 34 34
33 33 32 32 32 34 35 34 34 33 34 34 34 35 34 34
0 34 54 48 6 0 4 9 40 30 49 50 34 27 27 27
14 0 5 1 1 0 3 42 36 43 43 43 45 44 44 41
39 40 40 33 18 7 1 5 3 0 0 62 74 72 47 65
76 82 90 98 114 128 138 142 126 102 93 79 76 83 86 100
115 112 117 125 138 137 141 144 142 137 124 113 103 103 16 1
6 21 30 29 33 33 32 33 33 34 33 33 34 34 34 33
33 33 34 35 34 34 34 33 34 35 35 35 35 35 33 33
33 32 31 31 32 32 32 32 32 33 35 34 35 34 33 32
0 34 56 50 9 0 2 3 9 21 49 51 31 30 31 26
5 0 1 2 0 0 3 48 38 40 41 41 41 39 35 37
41 41 39 32 23 16 10 15 3 0 0 41 72 86 64 60
73 77 84 94 108 121 127 132 125 113 100 89 87 102 115 107
110 107 112 122 137 139 138 143 141 137 125 114 101 98 18 3
9 23 30 29 34 32 32 34 33 33 33 34 34 33 34 34
34 34 34 34 34 34 34 34 34 34 34 34 33 33 33 34
34 34 32 33 34 34 34 33 34 34 35 33 34 34 34 34
0 37 57 52 11 0 0 0 0 11 50 52 31 29 27 27
27 22 16 13 9 5 6 50 41 41 40 39 40 40 41 43
42 43 44 44 36 25 22 22 2 0 0 15 74 81 66 58
67 73 83 90 105 119 126 124 116 107 91 90 94 107 104 100
112 112 106 109 122 129 134 138 139 136 127 113 98 67 4 5
13 24 31 29 34 33 33 34 34 34 33 33 34 33 34 34
33 34 34 33 33 33 33 33 34 34 34 35 35 35 34 34
34 34 33 34 35 34 34 34 34 35 34 34 34 35 35 33
0 35 57 52 11 0 0 0 0 4 48 53 30 30 28 35
52 54 51 49 54 57 53 56 45 43 43 43 43 45 49 51
46 45 47 53 48 33 32 18 0 0 0 4 68 75 77 56
66 72 82 87 102 115 118 109 102 87 82 89 104 114 106 100
123 124 117 104 104 113 125 137 138 131 122 111 80 3 1 6
18 26 33 30 34 32 33 33 32 32 33 33 33 34 35 34
35 34 34 33 34 33 35 34 35 34 35 35 35 34 34 34
34 35 34 34 35 35 34 33 34 34 34 33 33 34 34 33
0 32 56 50 5 0 0 0 0 7 50 55 31 30 29 36
61 62 60 61 61 60 60 59 47 43 38 41 40 43 50 54
47 46 46 46 41 41 35 18 1 0 0 0 26 61 51 55
62 70 78 86 99 112 116 95 88 82 85 90 99 106 118 117
115 115 120 113 108 114 119 134 137 126 120 113 64 1 4 11
23 28 32 29 34 33 33 33 33 33 33 34 34 34 35 34
35 34 33 33 34 33 34 34 34 34 34 35 34 33 33 34
33 34 34 34 34 34 34 33 34 33 34 34 34 34 34 34
0 32 57 50 4 0 0 0 0 6 48 53 28 28 30 32
50 52 53 55 56 59 60 61 29 13 17 9 10 14 22 42
49 46 31 16 24 27 23 15 1 0 0 0 0 0 0 37
60 71 77 83 98 110 109 85 85 86 77 75 63 67 76 83
72 77 86 102 101 115 121 135 134 127 119 109 42 1 6 12
27 27 32 29 35 34 33 33 34 33 34 34 34 33 34 35
34 35 34 34 33 33 33 34 34 33 33 33 33 32 33 33
33 34 33 34 33 34 35 34 34 33 33 34 34 34 32 33
0 30 56 50 4 0 0 0 0 3 45 48 25 28 29 25
32 33 33 32 32 31 33 37 22 0 0 0 0 0 1 28
49 39 7 0 1 5 9 12 2 0 0 0 0 0 0 17
56 68 75 80 91 105 107 86 96 85 58 47 43 51 67 74
78 84 85 84 95 108 120 134 130 124 114 104 19 3 5 18
29 27 32 29 33 32 32 33 33 33 33 34 34 33 33 34
34 34 33 33 32 32 33 33 33 34 33 31 30 29 27 25
21 25 30 34 34 33 33 33 33 33 33 33 33 33 32 32
0 28 56 51 5 0 0 0 0 1 45 53 28 27 28 28
41 41 41 40 38 36 36 38 23 9 3 0 0 0 11 31
47 23 0 0 0 0 1 12 12 3 0 0 0 0 0 4
47 67 76 80 87 98 106 98 97 99 79 65 79 98 104 106
111 109 103 106 117 107 124 133 118 117 109 84 7 1 9 24
29 27 31 28 33 32 32 32 32 32 33 32 32 32 32 32
29 28 25 22 21 23 26 31 33 33 32 20 6 6 5 5
5 9 29 34 34 33 33 33 33 32 33 32 31 32 32 31
41 49 53 47 5 0 0 0 0 2 48 55 27 24 27 27
42 42 43 43 42 43 43 43 23 5 2 0 0 0 11 31
43 12 0 0 0 0 0 8 26 6 0 0 0 0 0 2
39 60 75 79 85 89 96 105 97 95 84 77 89 106 110 109
116 121 107 107 113 118 121 129 119 116 109 47 2 1 14 24
27 26 29 26 31 31 30 31 31 32 32 31 31 12 8 6
7 7 2 1 1 0 2 26 31 31 32 19 3 4 4 5
4 7 30 33 33 33 32 32 32 31 31 31 31 32 31 30
53 50 37 28 21 17 10 9 3 4 47 49 24 23 27 28
43 44 45 43 43 44 44 44 23 3 3 0 0 7 4 20
42 7 0 0 0 0 0 10 32 14 0 0 0 0 0 1
39 49 73 82 79 83 90 109 101 101 83 71 73 79 76 70
73 83 94 109 124 125 118 122 115 110 95 11 2 5 19 24
25 26 30 28 31 30 30 31 30 31 31 32 30 5 1 6
7 8 2 1 1 0 1 23 30 30 30 16 3 4 5 4
4 6 29 33 33 33 32 32 32 31 31 31 31 30 30 30
50 49 48 44 48 48 46 47 44 43 47 43 36 33 33 26
16 18 18 20 19 24 34 49 27 0 0 0 0 8 6 17
42 5 0 0 0 0 0 11 38 26 6 0 1 0 0 0
41 42 63 76 80 79 92 101 93 105 106 96 88 90 105 106
111 117 122 127 129 124 117 120 110 103 52 0 6 9 19 25
25 25 29 28 31 30 30 31 31 31 31 32 29 5 1 6
6 8 2 0 1 0 1 21 30 31 30 15 4 4 5 4
4 6 27 32 33 33 33 31 32 31 31 31 30 31 31 30
47 46 47 46 45 45 45 44 44 43 43 43 43 42 42 42
41 40 39 33 2 1 14 50 36 12 0 0 1 6 4 15
41 3 0 0 0 0 0 11 39 27 12 0 0 0 0 0
43 49 47 69 75 78 84 92 87 103 109 113 115 119 125 128
130 137 136 132 129 124 118 112 100 84 10 1 10 10 20 24
26 25 28 27 31 31 31 31 31 31 31 31 29 6 1 6
8 8 2 1 1 0 1 23 30 31 31 17 4 4 5 5
4 3 27 33 32 32 32 31 31 30 28 29 30 29 30 30
47 46 45 45 45 45 45 44 44 44 43 43 43 42 41 41
40 40 39 38 6 0 11 48 35 6 0 0 0 7 6 15
41 2 0 0 0 0 0 5 40 30 13 0 0 0 0 0
43 57 45 50 66 73 77 82 86 100 105 111 117 123 129 134
140 143 139 133 129 125 113 89 85 49 0 9 16 7 19 24
25 25 28 27 31 30 30 30 31 32 31 31 30 7 1 4
9 8 2 0 1 0 0 23 30 30 31 20 8 8 9 10
11 9 22 30 31 30 31 31 31 31 32 29 30 31 31 31
46 45 45 46 45 44 44 43 43 42 42 42 41 41 41 41
41 40 40 39 10 0 7 43 26 0 0 0 0 0 0 14
42 3 0 0 0 0 0 3 40 30 10 0 2 1 0 0
38 63 57 44 56 62 68 71 76 94 105 110 119 126 127 130
134 139 140 132 128 117 95 81 65 36 2 16 17 7 18 24
24 24 25 25 31 30 30 31 31 31 31 31 29 7 1 4
5 6 3 1 1 0 0 22 31 31 31 23 11 11 10 9
10 10 21 31 32 32 32 32 31 31 31 31 31 31 32 32
15 15 14 15 15 15 15 15 15 16 16 17 17 18 19 20
22 32 38 39 13 0 4 37 23 0 0 0 0 1 1 12
45 6 0 0 0 0 0 2 41 31 14 1 2 2 0 0
34 67 63 55 46 50 57 62 68 80 95 107 111 115 117 119
121 123 127 119 110 96 72 59 59 43 10 19 18 7 17 25
25 25 26 26 30 29 29 31 32 31 30 31 30 9 2 2
2 2 1 1 2 0 1 21 30 32 30 23 5 6 6 6
5 6 20 32 32 32 32 32 32 31 32 32 31 31 31 31
0 0 0 0 0 0 0 0 0 0 0 0 0 0 0 0
4 38 41 39 17 0 3 34 26 5 3 2 2 9 10 13
45 24 15 14 18 16 16 19 44 33 34 35 30 13 0 0
31 71 73 66 52 43 49 52 52 61 74 88 93 99 105 108
108 103 107 98 93 69 52 57 68 51 21 22 18 7 16 24
25 25 26 26 31 31 31 31 31 32 32 31 29 9 2 2
0 0 2 2 3 0 1 20 31 33 31 23 5 5 5 5
9 6 15 25 33 32 32 32 32 32 32 32 31 31 31 31
0 0 0 0 0 0 0 0 0 0 0 0 0 0 0 0
3 41 42 38 21 0 0 29 40 41 35 33 35 38 38 42
41 53 53 48 49 51 52 51 52 35 33 40 40 33 4 0
26 75 76 73 61 48 43 44 43 45 54 65 75 86 91 94
89 86 87 79 62 49 53 63 77 59 26 22 20 7 14 23
24 24 26 26 30 29 30 31 31 32 32 31 28 10 2 2
1 4 6 2 3 0 0 21 30 32 30 24 4 5 1 0
1 0 2 0 30 32 32 32 32 32 32 31 31 31 31 31
0 0 0 0 0 0 0 0 0 0 0 0 0 0 0 0
1 39 44 38 23 0 0 25 43 44 37 37 40 36 30 32
34 49 55 53 51 49 54 54 54 39 28 37 40 40 26 2
21 77 79 77 66 52 47 45 42 40 40 44 52 57 61 68
64 54 53 44 46 51 62 77 87 63 26 22 20 7 12 22
23 24 25 26 29 29 29 30 31 32 32 30 26 10 2 2
2 4 3 2 3 0 0 20 30 33 31 25 5 5 8 1
5 3 5 0 30 32 32 32 31 31 33 31 31 31 31 31
0 0 0 0 1 0 0 0 0 0 0 0 0 0 0 0
0 39 44 38 25 0 0 22 44 38 32 35 39 38 34 32
34 33 37 38 37 36 36 35 35 35 26 27 33 33 26 5
19 78 83 80 73 65 52 50 42 40 37 36 35 34 33 33
32 34 37 42 53 69 81 88 97 64 26 21 19 8 11 22
24 24 25 26 29 29 29 31 31 32 33 30 26 11 3 2
0 0 3 3 4 0 0 20 30 31 31 24 4 5 7 2
3 1 0 0 30 32 32 32 32 31 32 31 31 31 31 31
0 0 0 1 1 0 0 0 0 0 0 0 0 0 0 0
0 36 45 38 29 0 0 19 42 24 30 28 30 37 35 32
36 27 23 24 24 25 25 24 26 30 30 31 34 34 32 15
17 77 84 85 83 76 61 52 48 43 39 35 33 32 35 40
43 50 59 71 76 81 92 100 102 65 27 25 19 13 13 21
24 24 24 24 27 29 29 30 32 32 33 29 26 13 3 2
1 1 2 2 3 0 0 18 30 31 31 24 4 4 5 8
11 7 0 0 29 32 30 31 31 32 33 31 30 31 31 31
0 0 0 0 0 0 0 0 0 0 0 0 0 0 0 0
0 32 46 37 30 3 10 27 41 9 9 11 14 16 18 18
34 31 28 29 29 37 37 34 33 38 38 39 45 45 42 26
21 78 86 89 88 82 72 62 59 56 59 68 72 80 89 95
102 99 101 101 95 100 108 109 103 73 45 45 42 41 40 38
36 34 32 29 25 26 27 30 31 31 31 28 26 13 2 2
2 2 1 2 3 1 0 17 30 31 31 24 4 2 2 4
0 0 0 0 21 10 6 4 22 32 32 30 30 30 31 30
0 0 0 0 0 0 0 0 0 0 0 0 0 0 0 0
0 29 47 37 35 29 36 41 43 3 0 0 0 0 3 6
33 33 42 46 35 50 56 33 26 26 28 29 34 41 47 35
37 77 87 92 93 92 89 82 74 79 87 101 104 112 112 116
120 122 115 112 109 114 117 114 104 75 47 47 44 43 42 40
38 37 36 34 26 24 27 30 31 31 32 27 26 13 2 1
2 1 1 1 2 0 0 17 30 31 30 25 4 1 37 49
7 0 0 0 11 26 31 26 3 29 31 30 30 30 31 30
0 0 0 0 0 0 0 0 0 0 0 0 0 0 0 0
0 25 46 36 35 45 47 50 46 4 0 0 0 0 0 4
37 31 41 46 27 42 49 16 0 0 0 0 1 25 47 35
38 75 88 97 105 110 108 101 91 91 102 111 118 125 122 123
130 129 120 114 117 122 123 118 107 74 46 47 44 43 42 40
38 37 36 34 27 22 26 28 30 31 31 27 26 14 1 1
1 1 1 0 2 0 0 15 29 30 30 27 13 11 41 45
16 0 0 12 32 31 31 31 14 21 31 30 30 30 30 30
0 0 0 0 0 0 0 0 0 0 0 0 0 0 0 0
0 23 46 36 36 47 50 53 51 9 0 0 0 0 0 1
38 29 39 41 3 3 23 17 0 0 0 0 0 21 45 35
35 76 89 102 111 118 118 113 103 97 105 115 125 132 132 131
136 133 122 119 123 128 127 119 108 74 49 50 45 44 42 40
36 36 36 34 28 20 26 28 30 31 31 29 27 15 1 1
0 1 1 0 1 0 0 15 29 30 31 30 30 15 17 7
8 0 0 13 31 31 31 30 17 15 31 29 30 30 30 30
0 0 0 0 0 0 0 0 0 0 0 0 0 0 0 0
0 20 46 37 34 33 31 30 26 3 0 0 0 0 0 2
39 30 39 42 2 2 21 18 0 0 0 0 0 16 44 37
37 77 89 104 113 118 122 118 108 104 107 111 119 131 138 142
142 132 123 122 127 133 130 121 110 75 58 62 46 44 41 40
38 36 36 34 30 16 25 27 30 30 29 28 26 15 1 1
1 1 1 0 1 1 0 13 27 28 31 31 30 17 1 1
0 0 2 14 33 32 32 32 18 17 32 32 31 31 30 29
0 0 0 0 0 0 0 0 0 0 0 0 0 0 0 0
0 17 46 37 34 17 12 15 12 0 0 0 0 0 0 2
39 28 40 42 2 2 20 21 0 0 0 0 0 11 44 54
46 80 88 103 114 119 122 121 114 106 110 114 119 127 138 141
137 127 124 125 134 138 132 123 111 71 48 63 50 45 40 38
39 36 35 34 32 15 23 25 27 29 29 28 27 16 1 1
1 0 0 1 1 1 0 15 30 30 31 20 5 16 1 0
0 0 0 8 31 31 30 30 11 23 31 30 31 30 31 29
0 0 0 0 0 0 0 0 0 0 0 0 0 0 0 0
0 13 44 37 33 20 15 16 12 0 0 0 0 0 0 3
39 28 41 42 2 2 18 22 0 0 0 0 0 8 51 54
42 74 93 105 114 121 124 123 121 113 113 116 118 123 133 137
132 130 131 135 140 139 133 125 115 59 49 85 68 45 41 39
39 35 36 34 32 16 23 26 28 29 28 28 26 17 3 3
2 1 2 1 1 0 4 18 29 30 30 17 32 48 16 0
0 0 0 9 31 31 31 26 6 29 30 30 31 30 30 30
0 0 0 0 0 0 0 0 0 0 0 0 0 0 0 0
0 12 44 36 33 23 17 19 13 0 0 0 0 2 0 0
38 28 41 41 2 3 16 23 2 0 0 1 1 13 63 63
59 50 94 105 114 121 126 130 127 118 118 121 122 122 126 131
134 134 134 136 140 140 136 129 117 35 57 89 80 59 42 39
40 36 35 34 33 17 19 24 27 28 29 27 26 25 22 20
14 12 12 7 3 3 12 18 22 21 19 12 25 25 10 0
0 0 0 3 13 12 15 5 22 14 9 18 32 30 30 30
0 0 0 0 0 0 0 0 0 0 0 0 0 0 0 0
0 11 45 36 32 26 22 21 14 0 2 0 0 6 2 0
37 29 42 41 12 4 15 25 6 3 1 4 1 40 69 59
68 28 88 107 116 123 126 130 133 129 122 121 125 127 132 136
140 140 139 142 143 141 138 131 103 20 56 72 84 71 52 47
39 37 37 35 33 22 16 24 26 27 28 27 26 25 24 22
11 3 2 0 0 0 0 0 0 0 0 0 0 0 0 0
0 0 0 0 0 0 0 0 11 6 13 14 32 31 30 31
0 0 0 0 0 0 0 0 0 0 0 0 0 0 0 0
0 10 43 37 32 25 23 22 15 2 7 0 0 9 15 2
36 30 43 39 18 11 13 23 3 10 10 6 6 66 71 52
70 21 59 105 115 121 127 133 135 135 129 128 131 135 139 141
143 143 141 144 144 143 138 131 70 26 62 91 86 83 42 48
54 47 40 35 30 25 14 22 25 27 28 27 26 26 25 23
9 0 1 3 5 6 8 9 10 10 11 12 13 14 16 17
19 21 21 20 13 0 0 21 6 3 41 32 32 32 31 35
0 0 0 0 0 0 0 0 0 0 0 0 0 0 0 0
0 8 43 36 32 27 23 23 20 3 9 5 4 13 19 12
34 34 44 38 14 22 12 20 1 9 9 8 39 74 72 56
93 35 33 91 114 121 127 135 139 138 131 132 136 139 140 143
145 145 145 145 146 144 141 120 40 36 63 91 86 91 57 19
53 56 65 51 31 27 12 22 24 26 26 27 26 25 25 24
9 0 7 18 20 22 23 23 24 25 24 24 24 25 27 27
28 28 28 25 15 0 0 7 4 0 4 3 3 2 6 48
0 0 0 0 0 0 0 0 0 0 0 0 0 0 0 0
0 7 43 36 32 27 24 23 32 37 41 42 43 44 44 46
52 40 43 34 5 26 13 28 21 23 28 38 54 76 75 58
88 55 26 58 110 121 127 136 139 141 137 135 136 141 142 144
145 145 145 145 145 144 138 83 30 52 66 89 90 97 70 58
41 39 70 79 65 34 11 20 23 25 26 27 22 7 4 3
4 0 8 18 21 23 25 25 25 26 26 26 26 27 28 29
29 30 29 26 14 0 0 0 0 0 0 0 0 0 5 48
0 0 0 0 0 0 0 0 0 0 0 0 0 0 0 0
0 6 43 37 32 27 25 23 33 48 49 49 49 49 49 50
55 51 42 34 0 11 12 28 21 37 42 32 63 75 73 56
59 67 26 42 83 120 127 136 141 144 143 139 139 142 143 146
146 146 146 145 145 144 125 51 32 64 69 72 86 103 96 76
78 29 53 83 90 72 26 18 22 25 25 26 23 0 0 0
0 0 8 17 21 24 26 27 28 27 28 28 28 29 30 31
31 31 28 26 17 0 0 0 0 0 0 0 0 0 5 45
0 0 0 0 0 0 0 0 0 0 0 0 0 0 0 0
0 5 43 37 31 28 25 25 26 48 47 47 46 45 44 44
45 45 39 34 0 4 9 30 38 44 34 59 62 72 74 65
69 82 39 39 58 105 127 136 142 146 146 144 142 144 144 145
146 146 145 145 145 142 88 43 39 66 74 85 88 104 100 74
86 72 37 69 77 84 78 41 23 30 37 26 22 0 0 0
0 0 8 17 21 24 26 27 28 28 28 28 30 30 32 33
33 32 30 28 17 0 0 0 0 0 0 0 0 29 43 43
0 0 0 0 0 0 0 0 0 0 0 0 0 0 0 0
0 5 42 38 31 27 25 24 17 15 14 13 13 13 13 14
16 17 34 34 0 2 7 42 45 29 48 61 62 77 76 72
61 88 59 38 54 80 123 136 142 144 146 146 144 142 144 145
145 145 146 146 145 123 56 46 56 78 83 82 89 107 102 68
78 94 88 35 60 74 88 81 35 8 20 43 45 25 3 0
0 0 9 17 20 23 26 27 29 28 28 30 31 31 32 33
33 32 30 28 18 0 0 0 0 0 0 0 0 36 41 40
0 0 0 0 0 0 0 0 0 0 0 0 0 0 0 0
0 5 41 37 31 27 25 24 18 15 13 13 13 13 13 13
16 16 35 35 1 1 18 55 35 14 59 47 58 78 76 76
56 67 66 56 54 70 97 129 141 145 146 147 146 146 145 145
146 146 146 145 141 83 49 57 72 78 85 84 91 107 108 75
93 92 102 82 21 56 89 92 88 81 63 55 51 41 52 35
19 3 10 17 20 22 24 26 28 29 29 30 30 32 33 34
33 32 31 30 17 0 0 0 0 0 0 0 0 37 38 38
0 0 0 0 0 0 0 0 0 0 0 0 0 0 0 0
0 4 40 36 30 27 25 25 23 19 17 16 16 15 14 15
18 19 37 38 15 23 54 54 22 32 57 64 60 75 77 78
59 75 73 81 60 71 79 109 139 145 146 146 146 146 146 146
146 146 146 146 120 59 52 72 63 71 93 77 81 105 103 75
96 78 99 105 37 29 69 91 88 87 84 77 76 68 32 52
65 57 35 19 20 22 25 26 28 28 30 30 31 32 33 33
33 32 32 31 17 0 0 0 0 0 0 0 1 35 35 34
0 0 0 0 0 0 0 0 0 0 0 0 0 0 0 0
0 4 40 36 29 26 25 24 24 21 21 21 20 20 20 20
21 20 40 44 35 51 78 49 14 58 50 58 64 74 77 79
67 89 83 84 78 76 81 89 120 145 146 146 147 146 146 146
146 146 146 137 81 55 59 87 71 79 26 64 86 106 105 80
72 77 100 109 69 21 49 78 88 85 87 86 79 78 66 27
58 67 66 58 41 27 24 25 26 28 29 30 32 33 33 33
33 34 33 32 18 0 0 8 23 8 0 0 4 33 33 33
0 0 0 0 0 0 0 0 0 0 0 0 0 0 1 1
2 10 44 38 29 26 24 24 24 22 23 23 20 21 20 21
20 26 50 58 41 70 82 49 21 66 47 50 64 62 77 78
75 66 86 75 72 83 90 91 96 127 147 146 146 146 146 146
146 146 142 103 68 62 80 95 83 76 12 19 91 105 109 90
94 77 104 109 82 70 41 68 85 86 82 84 81 76 75 64
28 76 71 70 64 62 50 40 35 29 29 30 31 31 32 33
33 33 33 33 18 0 0 13 30 7 0 0 6 34 32 31
10 11 12 14 16 17 18 20 21 23 24 25 28 28 29 30
29 30 32 30 30 26 24 21 15 33 38 34 34 26 21 28
45 56 58 58 53 81 81 42 34 67 51 47 50 57 77 78
80 61 76 15 22 77 96 98 96 105 132 146 146 146 146 146
146 145 125 86 74 76 96 79 85 78 3 0 68 103 107 87
93 79 104 109 83 89 38 70 77 86 81 81 79 79 80 78
56 45 78 70 71 65 64 61 58 57 47 39 33 31 32 32
33 33 33 33 17 0 0 0 0 0 0 0 8 33 32 31
39 37 29 17 19 24 18 15 27 35 35 33 33 32 32 32
30 30 30 30 30 25 23 12 36 42 33 23 37 49 52 49
52 54 60 58 72 84 77 32 52 69 67 49 52 72 64 80
81 65 32 1 7 50 98 101 100 102 115 137 146 145 146 145
145 132 100 86 81 91 98 81 67 13 0 0 41 106 104 94
91 80 102 106 82 77 54 54 80 79 87 79 82 81 82 81
79 39 74 74 73 69 65 67 65 59 60 57 48 34 31 31
32 32 33 32 16 0 0 0 0 0 0 0 12 32 31 31
38 15 18 33 36 36 35 32 19 16 32 34 34 33 32 32
31 30 30 29 28 24 25 34 39 39 18 25 55 59 58 60
56 59 68 66 80 81 71 35 61 54 56 51 22 73 53 80
81 83 18 1 12 48 78 91 98 105 113 119 136 146 145 146
136 106 93 91 105 104 100 87 40 0 0 0 8 97 108 100
79 73 102 104 85 111 72 48 67 75 86 84 80 85 81 82
82 72 44 81 64 69 69 61 62 66 59 60 52 41 30 31
32 32 33 33 16 0 0 0 0 0 0 0 14 32 31 31
12 32 38 37 37 37 36 35 36 30 15 30 33 32 31 30
29 27 27 24 18 28 40 43 47 40 20 38 56 57 61 64
59 63 67 68 81 63 56 50 47 42 47 38 15 55 53 72
83 83 11 0 7 51 65 78 99 108 114 118 122 134 142 129
106 98 105 80 87 100 65 61 59 9 1 1 3 55 111 99
94 93 101 103 81 106 78 55 57 67 82 87 78 83 81 79
81 80 40 73 69 78 53 61 64 67 65 61 59 51 31 31
31 32 32 32 15 0 0 0 0 0 0 0 12 31 30 30
35 36 35 33 32 31 29 27 25 22 15 8 13 10 7 6
8 9 9 1 11 40 44 44 49 41 20 39 61 60 61 66
67 64 62 74 72 48 50 54 46 33 44 38 17 48 68 59
83 83 11 0 3 47 83 68 93 102 111 120 123 118 110 101
98 105 69 70 102 100 49 81 72 53 37 29 38 34 67 107
94 97 98 103 83 107 81 61 65 55 71 88 81 78 79 77
81 80 63 40 82 74 28 25 50 59 70 62 64 61 37 30
32 31 32 32 16 0 0 0 0 0 0 0 3 30 31 30
7 11 19 21 22 22 22 21 16 7 6 5 0 0 2 3
4 2 0 7 44 45 46 43 50 50 19 37 62 61 63 69
68 61 63 74 58 54 46 47 51 42 60 36 21 57 80 56
80 85 12 0 5 20 78 81 73 92 108 122 107 70 73 92
106 111 83 113 101 95 79 112 91 91 97 84 65 43 20 60
87 95 101 104 83 76 74 81 69 75 62 72 83 79 77 77
77 78 78 34 77 75 38 23 36 62 70 75 72 67 37 30
32 32 33 35 16 0 0 0 0 0 0 0 15 14 31 31
7 14 35 40 43 43 44 48 47 47 45 40 8 2 8 5
4 0 2 36 51 49 46 44 48 57 25 33 63 65 63 68
69 61 75 74 44 74 65 65 58 46 73 25 23 75 64 63
71 85 7 1 22 35 49 76 65 53 72 68 90 50 40 65
111 110 92 108 114 94 95 101 87 95 103 106 94 85 39 25
57 82 98 104 86 95 83 80 68 71 48 51 72 85 75 74
76 80 79 54 51 85 46 21 39 62 80 82 74 67 34 32
33 34 36 38 17 0 0 5 2 0 0 0 25 11 26 31
18 25 63 63 63 61 60 57 53 49 49 41 16 0 2 5
3 0 20 45 54 51 46 46 45 59 38 36 60 66 62 64
67 69 80 72 47 79 66 66 62 65 89 52 31 98 63 62
65 81 22 11 37 48 39 69 70 55 48 73 89 85 35 71
116 105 96 116 126 99 91 106 90 100 103 109 100 94 86 44
47 59 102 104 88 101 83 53 57 45 62 73 64 75 81 73
76 84 80 75 49 84 54 23 39 65 79 82 74 63 35 34
35 36 39 42 17 0 44 113 56 0 0 0 28 25 10 30
18 21 58 51 53 55 52 51 48 43 49 46 30 3 5 0
0 10 39 45 56 55 45 46 45 56 58 39 61 62 62 64
69 77 74 55 29 19 31 44 67 85 99 83 46 102 80 72
77 91 76 61 68 85 79 81 102 63 55 41 64 72 49 102
110 93 96 130 121 108 94 83 81 99 105 105 105 96 79 81
96 64 80 105 87 97 73 49 44 53 63 70 50 60 81 74
79 89 89 88 82 73 63 28 38 58 77 82 76 60 12 5
5 5 4 4 1 0 78 147 76 0 0 0 29 29 13 23
44 42 53 66 70 69 66 64 55 45 41 37 12 0 8 12
15 39 39 49 58 59 46 48 47 56 74 56 60 65 66 67
74 74 69 61 55 43 44 45 82 104 109 97 52 101 95 74
95 89 95 96 71 95 71 103 78 95 74 63 56 62 70 111
86 89 102 126 115 117 89 77 78 104 106 102 109 99 99 84
120 107 79 103 87 80 58 49 63 68 71 13 38 51 81 76
80 87 90 91 88 60 61 28 36 54 68 79 77 63 55 16
0 0 0 0 0 0 15 32 12 0 0 2 29 28 25 6
33 33 37 45 44 42 40 38 30 25 23 11 0 19 69 78
41 40 42 51 63 62 54 44 47 55 75 77 77 71 82 84
77 64 63 61 60 53 56 53 92 106 110 100 57 103 105 76
56 101 105 100 67 102 73 110 97 68 77 61 43 70 81 114
89 98 100 122 114 116 85 100 90 108 106 96 109 97 101 82
121 114 115 108 96 46 49 36 62 45 39 31 17 49 83 72
84 84 88 94 91 48 55 27 39 52 62 77 73 56 58 63
33 0 0 0 0 3 0 0 0 0 0 3 23 18 3 3
34 35 35 36 36 36 36 31 24 21 22 9 1 7 17 45
40 40 45 55 63 60 61 47 47 54 77 82 86 79 80 74
62 61 58 65 59 54 57 60 97 110 111 98 67 103 111 70
65 109 110 102 73 94 72 102 113 93 67 61 37 60 104 116
92 97 109 122 114 115 80 102 89 108 107 94 109 97 100 82
121 115 117 112 100 59 55 63 104 57 52 56 30 65 70 74
93 86 84 86 85 53 40 27 42 56 56 75 71 25 19 58
73 17 0 0 0 2 0 0 0 0 0 0 5 6 20 23
21 19 17 14 11 8 26 28 22 21 21 17 23 0 25 39
40 39 46 59 69 65 63 51 41 53 74 80 77 77 65 60
74 69 45 65 62 52 57 56 97 109 111 89 82 107 78 67
92 101 112 111 84 73 72 98 115 115 82 62 53 36 107 121
95 92 118 120 111 106 81 116 99 106 105 92 112 94 99 85
121 113 117 116 104 83 91 81 108 69 51 62 41 56 62 76
93 94 81 78 82 42 26 36 43 61 52 74 67 15 0 4
38 66 7 0 0 0 0 0 0 0 0 0 0 1 10 13
0 0 0 0 0 0 10 9 3 7 9 4 6 20 47 39
40 40 48 64 65 59 60 61 39 52 71 78 67 65 68 77
85 72 50 65 58 53 57 53 96 107 109 82 95 78 59 81
99 101 117 118 100 93 88 88 119 122 106 59 57 67 107 120
98 91 122 111 103 108 82 107 91 109 104 94 110 94 84 83
120 114 114 118 108 86 108 86 112 72 49 66 60 43 60 61
88 88 83 87 70 16 18 34 43 61 50 70 66 30 4 0
0 37 58 5 0 0 0 0 0 0 0 0 0 0 0 0
0 0 0 0 0 0 0 0 0 0 0 9 48 40 50 43
39 41 54 62 65 68 74 68 40 50 64 60 70 68 82 81
78 67 59 60 59 54 59 50 90 105 113 107 110 73 92 78
104 96 113 121 102 90 99 87 116 113 109 54 59 87 111 115
85 80 116 117 105 113 83 90 87 112 103 95 112 94 96 86
124 118 119 124 115 83 95 85 115 79 50 67 68 39 55 78
72 83 82 98 89 40 3 25 45 58 51 65 61 42 32 7
0 1 39 41 0 0 0 0 0 0 0 0 0 0 0 0
0 0 0 0 0 0 0 0 0 0 16 54 5 43 42 51
40 43 55 60 68 75 68 69 50 49 55 81 75 71 84 74
67 63 72 51 62 54 59 58 65 101 115 115 114 83 120 83
106 96 108 121 108 83 107 78 113 109 105 58 56 67 111 98
93 83 122 121 106 113 80 108 92 107 102 96 115 95 112 90
123 120 123 126 119 74 84 84 118 98 50 67 70 47 59 80
83 83 76 94 89 76 14 23 42 60 47 60 61 48 41 36
4 0 7 59 3 0 0 0 0 0 0 0 0 0 0 0
0 0 0 0 0 0 2 4 9 21 59 12 14 53 46 55
43 44 60 64 71 69 68 71 51 44 65 78 71 80 80 75
68 78 71 49 66 55 59 43 52 99 115 115 114 87 104 85
99 97 105 118 113 74 92 77 112 109 107 82 47 64 105 78
111 89 127 125 112 116 82 117 94 102 105 94 118 95 105 87
122 118 119 124 121 84 110 87 123 116 63 65 69 57 52 76
75 84 82 71 83 70 30 37 28 47 63 55 55 53 44 46
29 6 0 47 27 0 0 0 0 0 0 0 0 0 0 0
0 0 2 8 14 24 35 26 25 50 10 0 45 48 50 53
45 47 63 65 76 65 69 60 41 42 67 78 76 80 77 73
66 77 67 57 63 55 61 31 59 95 115 116 112 95 97 98
88 93 99 120 116 78 82 73 110 112 113 92 65 82 103 82
108 104 124 125 111 111 82 110 87 100 108 92 121 96 115 93
122 118 123 123 120 90 103 85 121 118 73 66 70 59 58 77
82 75 75 84 81 45 38 38 23 15 62 64 48 54 51 48
42 26 3 27 31 0 0 0 0 0 0 0 0 0 0 0
