P2
128 120
156
36 35 35 34 33 33 32 31 31 31 30 29 30 29 28 27
27 26 26 25 25 24 23 23 23 22 22 22 21 21 21 19
19 17 15 13 13 14 17 18 19 20 17 9 22 25 23 21
20 20 19 17 14 13 11 10 9 10 13 15 15 16 9 11
18 19 19 20 20 21 21 22 22 22 23 23 24 24 25 25
26 26 26 27 28 28 29 29 29 29 30 30 31 32 33 34
34 35 35 36 36 36 37 37 37 38 39 37 38 39 38 38
40 39 40 40 39 40 40 40 40 40 39 40 41 40 40 41
36 35 35 34 34 33 32 32 31 31 30 29 29 28 28 27
27 26 26 26 25 25 24 23 23 23 22 22 22 21 21 20
19 18 16 14 14 14 18 19 21 22 18 10 23 26 24 22
21 21 21 19 17 16 13 12 12 11 15 16 16 15 15 18
19 20 21 22 22 22 22 23 23 24 24 25 25 25 26 26
27 27 29 29 28 28 28 28 29 30 31 32 33 33 34 34
34 35 35 36 36 37 37 38 38 38 40 38 38 38 39 39
39 39 39 40 39 39 39 39 39 40 40 40 41 40 41 41
36 35 34 34 34 33 33 33 32 31 31 30 30 29 29 28
28 27 27 26 25 25 25 24 24 23 23 22 22 21 22 21
20 19 17 16 15 16 21 22 24 24 19 8 23 27 24 23
22 21 20 20 19 16 17 16 13 11 15 16 17 16 19 19
21 22 22 23 23 24 24 24 25 26 25 26 26 27 27 28
28 28 29 29 29 29 30 31 32 33 33 34 34 34 35 35
35 36 36 37 37 38 38 37 38 37 39 38 38 39 39 39
40 40 40 40 40 40 41 40 40 41 41 41 40 40 40 39
36 35 35 34 34 33 33 32 32 31 31 30 30 29 29 28
28 27 27 26 26 25 25 25 24 24 23 23 23 22 22 21
20 19 18 17 16 18 23 24 25 25 19 9 22 29 25 24
23 22 21 21 21 17 18 19 16 12 12 19 16 18 19 22
22 23 23 24 25 25 25 26 26 26 27 27 28 28 28 28
28 28 29 30 31 31 31 32 33 35 33 34 34 35 36 36
36 36 37 37 37 38 38 38 38 38 39 38 39 39 39 39
39 39 40 39 40 40 40 40 40 39 38 39 40 39 41 42
36 35 35 35 34 33 33 33 32 32 31 30 30 30 29 29
28 28 27 26 26 25 25 25 25 24 24 23 23 23 23 22
22 20 19 19 18 19 25 25 26 26 20 10 22 29 25 24
25 23 22 22 21 17 19 19 18 14 12 21 17 20 21 23
24 25 24 26 27 26 26 27 27 27 27 28 27 28 28 29
29 30 30 31 32 32 32 33 34 36 34 35 35 36 37 37
36 36 37 37 38 37 38 38 39 39 40 38 39 39 40 40
40 41 40 40 40 39 39 40 39 41 42 41 40 41 41 41
36 36 36 35 35 34 34 33 33 32 32 31 30 30 30 29
29 28 28 28 26 26 26 25 25 25 24 24 23 23 23 22
22 22 21 21 20 21 26 26 28 27 21 12 21 29 26 25
25 25 24 22 22 19 20 20 20 16 12 20 19 22 23 25
25 26 26 27 27 27 28 28 28 27 27 28 29 30 30 30
30 31 32 32 32 33 33 34 34 35 34 35 36 36 37 37
37 37 37 38 38 39 39 39 39 39 41 39 40 40 40 40
39 39 39 39 40 42 42 40 41 42 41 41 41 42 41 41
36 35 36 35 35 35 34 33 33 32 31 31 31 30 30 29
29 28 28 27 26 26 26 26 25 25 25 24 24 24 23 23
22 22 22 22 22 22 27 27 27 28 21 13 20 30 27 26
25 25 25 23 22 21 21 21 20 18 14 20 21 23 25 25
26 26 27 27 27 27 27 27 28 29 30 30 30 31 31 31
32 32 32 32 32 33 34 34 34 36 35 36 36 36 37 37
38 37 38 38 38 39 38 39 40 39 41 38 39 38 38 39
40 41 41 41 41 40 41 41 41 41 41 41 41 41 41 41
36 36 36 35 35 35 34 34 33 32 32 32 31 31 30 29
29 29 28 28 28 27 27 26 26 25 25 25 25 24 23 24
23 22 22 23 23 23 28 28 29 29 22 16 19 30 27 26
26 26 25 25 23 23 23 22 22 20 15 21 22 24 26 26
27 27 27 27 28 29 29 29 30 30 30 31 31 31 31 32
32 32 32 32 33 34 34 34 35 37 36 37 36 36 37 37
38 38 38 38 40 39 39 39 39 38 38 38 39 41 41 40
40 40 40 40 40 41 41 41 41 41 41 42 41 41 42 41
37 36 36 36 36 35 34 34 33 33 32 32 31 31 30 30
29 29 29 29 28 27 27 26 27 26 26 26 25 25 24 24
24 24 23 23 24 24 29 28 29 29 21 17 18 30 27 27
27 26 26 25 26 26 24 23 23 22 16 22 24 26 27 27
27 28 28 29 29 29 29 29 30 30 31 32 31 32 32 33
33 33 33 33 34 35 35 35 35 37 36 37 37 37 38 38
38 36 39 39 38 38 37 38 39 40 41 40 40 40 41 41
40 40 41 42 41 42 42 41 41 41 41 41 41 42 41 41
37 37 36 36 35 35 34 34 34 33 32 33 32 32 31 30
30 29 30 29 29 28 28 27 27 26 26 25 25 25 24 24
24 24 23 25 25 25 30 30 30 30 23 19 17 31 29 27
27 27 26 26 25 24 23 23 23 22 18 22 23 26 28 28
28 29 29 30 31 31 31 31 32 32 32 32 33 32 33 33
33 33 34 33 34 34 35 35 36 38 36 37 38 38 38 39
38 37 36 38 39 40 40 40 40 41 40 41 40 41 40 41
41 41 42 42 41 42 42 42 42 42 42 42 42 42 42 41
37 37 37 36 36 35 35 35 34 34 33 32 32 32 31 31
30 30 29 29 28 28 28 28 27 27 26 26 26 25 25 24
24 24 25 24 25 26 30 30 31 30 23 20 17 31 29 27
26 28 27 27 26 26 24 25 24 23 21 25 26 28 28 29
29 29 30 30 30 31 31 32 32 32 32 32 32 33 34 34
34 34 35 35 35 35 36 36 36 38 37 37 37 36 35 36
38 39 40 39 39 39 39 40 40 40 40 40 41 41 41 41
41 42 42 43 41 41 42 42 42 42 42 42 42 42 42 41
37 37 37 36 35 36 35 34 34 33 34 33 32 32 32 31
31 30 30 30 29 28 28 28 28 27 27 27 26 25 25 25
25 25 25 25 26 26 31 31 31 31 23 20 17 30 29 27
26 28 28 27 27 27 25 26 26 25 22 25 26 29 30 30
30 30 31 31 31 32 32 32 32 32 33 33 33 33 33 34
34 34 34 35 35 36 36 36 37 36 35 36 36 38 39 39
39 40 41 40 40 40 40 40 40 41 40 41 41 41 40 41
41 41 41 41 41 42 42 42 43 42 43 42 42 42 42 42
38 37 36 35 35 35 35 34 34 33 33 33 32 32 32 31
30 30 30 30 29 28 29 29 28 27 27 27 26 26 26 26
25 25 25 25 26 27 31 31 31 31 24 20 10 24 31 28
28 28 28 28 27 28 26 26 26 25 21 27 28 30 30 30
30 30 31 31 32 31 32 32 32 33 33 33 34 34 34 34
35 35 35 35 36 35 34 34 35 36 38 38 38 38 39 39
39 40 41 40 40 40 40 42 42 41 40 41 41 41 41 41
41 41 42 41 42 42 42 41 42 42 41 41 41 41 42 41
38 37 36 36 36 36 35 35 34 34 34 33 33 32 31 32
31 31 30 30 29 29 29 28 28 28 28 27 27 26 26 26
26 25 25 25 27 27 32 33 32 32 23 17 13 30 31 30
29 29 28 28 26 28 26 26 26 26 22 28 28 30 31 31
31 31 32 32 32 33 33 32 33 34 34 34 34 35 35 35
35 34 34 34 34 35 36 38 37 38 38 38 39 39 39 39
39 40 42 40 40 41 41 41 41 41 41 40 41 41 41 42
42 41 42 41 41 41 42 41 42 41 42 42 42 42 42 42
38 37 37 37 37 35 36 35 34 34 34 33 32 32 32 32
31 31 31 31 30 30 29 29 28 28 28 27 27 27 26 26
26 26 26 26 27 27 31 32 32 32 24 20 21 28 33 30
30 30 29 29 28 29 26 27 27 26 23 29 29 31 30 30
31 31 32 32 32 33 33 33 34 35 34 34 34 34 35 35
35 35 36 36 36 36 37 37 38 38 38 38 39 39 39 40
39 40 42 40 40 41 41 41 41 41 41 41 41 41 42 42
42 42 42 41 42 42 42 43 42 42 43 43 41 43 41 41
37 37 36 35 36 36 35 35 34 34 34 34 34 33 33 32
32 32 31 30 30 29 29 29 29 29 28 28 28 27 27 26
26 25 26 26 27 28 32 33 32 31 23 21 23 27 33 31
30 30 29 29 28 29 27 27 28 28 23 30 31 32 32 32
32 32 33 33 33 33 33 33 34 34 33 33 33 34 35 35
36 37 36 37 36 37 38 38 38 39 39 39 39 40 40 39
41 40 42 40 40 40 41 41 42 40 41 41 41 41 41 41
42 41 42 42 42 42 43 43 43 42 41 41 41 42 43 43
38 37 37 36 36 35 35 35 34 34 34 33 33 33 32 32
32 31 32 31 30 30 30 29 29 28 28 28 28 27 27 27
27 26 26 26 27 29 33 32 33 32 24 21 26 25 33 31
31 30 30 29 28 30 27 28 28 27 23 31 30 32 32 33
33 32 33 33 34 34 33 33 33 33 34 34 35 35 35 36
36 37 36 36 37 37 37 38 38 38 38 39 39 40 41 40
41 41 41 41 41 41 41 42 41 41 41 41 40 41 41 41
42 42 42 42 41 42 41 41 42 41 42 42 42 41 41 42
38 38 37 37 36 36 36 36 36 35 34 34 34 33 33 33
32 32 32 31 31 31 30 30 29 30 29 29 28 28 28 28
27 27 27 27 28 29 34 34 34 34 25 23 28 23 33 32
32 31 31 30 30 31 28 29 28 28 25 32 31 33 33 34
33 34 34 33 33 33 34 34 35 35 35 36 36 36 36 37
36 38 36 37 37 38 38 38 39 39 39 40 39 40 41 41
41 41 42 41 42 41 41 41 42 42 42 42 43 42 42 42
43 41 41 42 42 42 43 43 42 43 43 43 42 43 42 42
38 37 37 37 36 36 36 36 35 35 35 34 34 33 33 34
33 33 32 32 31 31 31 31 30 30 29 29 29 28 27 27
27 27 27 27 28 30 34 34 34 34 25 23 30 23 33 32
32 32 31 30 30 32 29 29 28 29 25 31 31 33 33 33
33 33 33 33 34 34 34 35 36 35 36 36 36 36 37 36
37 38 37 37 38 38 38 38 40 38 39 40 40 40 41 41
41 41 43 41 42 41 42 41 43 42 42 42 42 41 42 42
42 43 42 42 42 42 42 41 42 42 42 42 43 42 42 42
38 37 37 37 37 36 36 35 36 35 35 34 35 34 34 33
34 33 32 32 31 32 31 31 30 30 30 30 29 29 29 28
28 27 28 27 29 29 34 34 34 34 25 22 31 22 34 33
32 32 31 31 31 32 29 30 29 30 25 31 29 33 33 33
34 35 35 35 35 35 36 35 35 35 35 36 36 36 36 37
38 39 38 38 38 39 39 39 40 40 40 41 40 40 42 41
42 41 43 43 42 42 42 42 42 41 40 41 41 42 42 41
42 43 42 43 42 43 42 42 42 42 41 42 41 42 42 42
39 37 37 37 37 37 36 35 35 35 35 34 35 34 34 34
33 33 33 32 33 32 32 31 31 30 31 30 30 29 29 28
28 28 28 29 29 31 35 35 35 35 27 23 33 22 34 33
33 32 32 32 31 31 29 29 30 30 25 33 31 34 34 35
35 35 36 35 36 36 36 36 36 36 36 36 37 37 37 38
38 38 39 39 39 39 39 40 40 40 41 41 41 41 41 41
42 42 44 42 41 40 41 41 42 43 43 41 42 42 42 41
42 41 42 42 43 43 43 42 42 42 42 43 43 43 42 42
39 39 38 38 37 37 37 37 37 36 36 35 35 35 34 34
34 34 33 33 33 33 32 31 31 31 31 30 31 30 29 29
29 29 29 29 30 31 36 36 36 35 28 23 34 23 35 34
33 32 32 32 30 33 29 30 31 30 26 34 33 35 35 36
36 36 36 35 36 36 37 37 37 37 37 38 38 37 38 38
39 39 40 39 39 40 40 40 40 41 42 42 42 42 42 41
41 40 40 41 43 43 43 43 43 43 43 44 42 43 42 43
44 42 43 43 44 43 42 43 42 42 42 42 43 43 43 44
39 39 38 37 38 37 37 37 36 36 37 36 36 36 35 35
34 34 34 34 33 33 33 32 32 31 31 30 30 30 30 29
29 30 29 29 30 31 36 36 37 36 28 24 35 25 35 34
34 34 32 31 29 32 29 29 29 30 26 33 32 36 36 36
36 36 37 36 37 37 37 37 37 37 37 38 38 39 38 38
40 40 40 40 40 41 41 41 41 42 42 41 41 42 41 42
43 43 43 43 43 43 43 43 43 43 43 45 42 42 43 42
43 43 43 44 43 43 44 43 43 43 43 44 44 43 42 43
39 38 38 38 38 38 37 37 37 36 36 36 35 35 35 35
35 35 34 34 34 34 33 33 33 32 32 31 31 32 30 30
30 30 30 30 31 32 37 36 36 37 28 24 35 26 34 34
35 33 29 23 18 14 11 10 12 16 19 28 31 36 36 36
36 36 38 36 37 37 38 37 37 38 38 38 38 39 39 39
41 40 40 41 41 40 41 40 41 41 41 43 43 42 44 44
44 43 43 43 44 44 44 44 43 43 44 45 43 42 43 42
43 43 43 43 44 43 43 43 43 43 43 43 43 43 43 44
40 39 39 38 38 38 38 37 37 37 37 36 36 36 36 35
35 35 35 35 34 34 34 33 33 33 32 31 32 31 31 31
30 30 30 31 32 33 37 37 37 38 30 25 36 27 34 34
33 25 9 1 0 0 0 0 0 0 1 5 10 17 23 29
33 35 38 37 39 38 38 37 39 39 38 39 39 39 40 41
41 41 39 39 40 40 41 42 42 43 44 43 44 44 45 44
44 44 44 44 44 45 44 44 44 44 44 45 43 43 43 43
43 43 43 43 44 44 43 44 43 43 43 44 44 44 43 43
39 39 39 39 38 38 38 38 38 37 37 37 37 36 36 36
36 35 35 34 34 33 34 33 33 33 33 33 32 32 32 31
31 31 31 31 33 33 38 39 38 38 30 25 36 30 31 32
20 2 0 0 0 0 0 0 0 0 0 0 0 1 4 5
7 16 25 35 38 38 38 39 39 38 39 40 40 40 40 40
41 40 41 41 42 41 42 42 42 43 44 43 43 44 44 44
44 44 44 44 44 45 44 44 44 44 44 45 43 44 44 44
44 44 44 44 43 44 44 44 43 43 44 44 44 44 44 45
40 38 39 39 39 39 38 38 38 37 37 37 37 37 37 36
36 35 36 35 35 34 34 33 34 33 33 32 32 32 31 31
31 32 32 32 33 34 38 39 38 37 30 26 35 29 16 11
0 0 0 0 0 0 0 0 0 0 0 0 0 0 3 4
3 1 4 15 29 37 38 39 39 39 39 39 40 40 40 41
42 41 41 41 42 43 42 42 43 43 45 44 44 44 44 44
44 44 44 43 44 44 45 44 45 43 44 46 44 44 44 44
44 44 44 44 43 44 44 44 45 44 44 43 43 44 43 43
40 40 39 39 39 39 38 38 38 37 37 37 37 37 37 36
36 36 36 36 35 35 35 34 34 34 34 34 33 33 33 32
32 31 33 32 33 34 38 39 38 38 30 26 32 19 19 7
0 0 0 0 0 0 0 0 0 0 0 0 0 0 0 4
5 4 6 7 8 22 36 39 38 38 40 40 40 41 41 41
41 42 42 42 43 43 43 44 44 43 45 45 44 44 45 44
44 45 44 44 44 44 45 44 44 44 43 46 44 44 44 45
44 44 43 44 45 45 44 43 44 44 44 42 41 42 42 42
39 40 39 39 39 39 39 39 38 38 38 37 37 36 37 36
36 36 35 35 35 35 35 34 34 34 34 33 33 33 32 33
32 32 32 33 34 35 39 39 39 38 30 25 26 23 13 0
0 0 0 0 0 0 0 0 0 0 0 0 0 0 1 5
4 5 5 5 5 4 14 31 39 39 41 40 41 41 41 41
41 42 42 42 43 43 44 43 44 44 46 44 44 44 44 45
45 45 44 44 45 44 44 44 45 45 45 44 44 44 45 45
45 44 45 45 44 44 42 42 43 43 43 45 45 44 44 42
40 40 39 40 39 39 39 38 38 38 38 37 38 37 37 37
37 36 36 36 36 35 35 35 35 35 34 33 33 33 33 33
32 32 33 33 34 34 39 40 40 39 30 24 28 27 4 0
0 0 0 0 0 0 0 0 0 0 0 0 0 0 0 0
1 1 5 7 7 7 5 10 27 39 42 41 42 42 42 42
42 42 43 43 43 43 44 44 44 44 45 44 44 45 45 44
44 44 44 45 45 45 44 45 45 45 45 46 45 45 45 46
43 41 43 43 45 45 46 45 45 44 44 43 43 43 44 44
40 39 40 39 39 39 39 39 38 38 38 38 37 37 37 36
37 36 36 35 35 35 35 35 34 34 34 33 34 33 33 33
32 32 32 33 34 34 39 40 40 39 30 23 30 19 0 0
0 0 0 0 0 0 0 0 0 0 0 0 0 0 1 4
2 1 1 4 8 9 5 3 4 25 40 40 41 42 42 42
42 42 43 44 43 44 44 44 45 44 46 45 44 45 45 44
44 44 44 45 45 45 45 45 45 45 45 44 40 40 42 43
44 44 45 44 45 46 42 43 44 43 43 44 44 42 43 42
40 40 40 40 40 39 39 39 38 38 38 37 37 37 37 36
37 37 37 36 36 36 35 35 35 35 34 34 34 34 34 33
33 33 33 33 34 35 40 41 39 37 31 22 26 11 0 0
0 0 0 0 0 0 0 0 0 0 0 0 0 0 2 3
4 5 5 6 4 8 8 4 3 4 26 39 42 42 42 43
42 43 44 44 44 44 44 44 44 45 45 45 45 45 45 45
45 45 45 45 46 45 45 43 42 43 43 43 45 45 44 43
44 43 44 44 45 45 43 43 43 44 44 44 43 43 44 43
41 40 40 40 40 39 40 39 39 39 39 39 38 38 38 37
37 37 37 36 36 36 36 36 35 35 35 34 34 34 34 34
34 33 33 34 35 35 40 41 40 35 25 19 21 6 0 0
0 0 0 0 0 0 0 0 0 0 0 0 0 0 0 0
4 5 7 5 5 5 6 5 2 0 5 28 41 43 43 43
43 43 43 43 44 45 45 45 45 45 47 45 45 44 45 45
46 45 44 43 42 42 43 45 46 45 44 45 45 45 45 44
45 44 45 44 44 46 44 44 43 43 44 44 44 43 43 43
40 41 41 40 41 40 40 39 39 40 39 39 38 38 38 38
38 38 37 37 37 37 36 36 36 35 35 35 35 34 34 34
34 34 34 34 35 35 40 40 38 31 19 12 5 0 0 0
0 0 0 0 0 0 0 0 0 0 0 0 0 0 0 0
2 3 5 6 4 5 5 4 3 0 0 6 32 43 43 43
44 44 44 44 45 45 45 46 45 46 46 45 45 44 45 45
45 44 45 47 44 45 45 45 45 45 45 44 44 44 45 45
44 44 45 45 45 46 44 44 44 44 45 45 42 43 43 43
39 40 41 41 41 41 40 40 40 40 39 39 39 39 38 38
38 38 37 37 38 37 37 37 36 36 36 36 36 36 35 35
35 35 35 34 36 36 41 36 20 3 0 0 0 0 0 0
0 0 0 0 0 0 0 0 0 0 0 1 0 0 0 0
1 5 7 8 8 8 8 5 5 1 0 0 11 37 43 44
44 45 45 45 46 45 45 45 45 44 45 44 44 45 45 45
44 45 44 47 45 45 45 45 46 45 45 45 45 44 45 45
45 45 44 44 45 46 43 45 44 44 44 44 43 44 43 43
50 47 45 44 42 41 40 39 40 40 40 40 39 39 39 39
39 38 38 52 53 48 42 40 38 36 36 36 36 35 35 35
35 34 35 35 35 33 31 11 2 0 0 0 2 1 0 0
0 0 0 0 0 0 0 0 0 0 0 1 4 2 0 1
2 3 3 8 8 7 5 5 3 4 0 0 1 18 40 44
44 45 44 45 45 44 45 45 44 45 45 45 45 45 46 46
45 45 45 48 45 45 46 45 45 45 45 46 45 44 44 45
45 44 44 45 44 45 44 44 44 44 44 45 44 44 43 43
56 53 53 51 47 45 44 40 40 40 40 40 39 38 38 38
38 39 41 54 53 49 48 48 47 41 36 36 36 36 36 35
35 35 35 34 33 23 8 1 0 0 0 5 6 1 0 0
0 3 19 22 10 0 2 1 0 0 1 2 3 7 7 2
4 2 3 4 6 7 6 2 3 0 1 0 1 4 32 44
44 44 45 45 45 45 45 45 45 45 45 45 45 44 45 45
45 45 45 47 45 45 46 45 45 46 45 45 46 45 45 45
45 46 46 45 44 45 45 44 45 45 44 45 45 44 43 44
56 53 53 48 49 49 50 53 45 45 43 40 40 38 39 39
39 39 40 52 51 49 47 48 48 45 36 36 37 36 36 35
36 35 35 35 27 16 7 0 0 0 3 5 3 0 0 0
7 33 59 58 45 18 8 10 5 2 3 6 7 8 8 6
3 5 5 5 5 4 6 6 4 1 1 1 1 2 21 42
44 45 47 45 44 45 46 46 46 46 45 45 45 45 45 45
45 45 45 47 46 46 46 46 46 45 45 45 45 45 45 45
45 45 45 45 45 45 45 45 46 45 44 44 45 45 44 44
55 54 53 50 51 53 55 55 47 50 50 50 45 42 40 39
39 39 40 40 34 39 45 48 49 48 39 37 37 37 36 36
36 36 36 33 26 11 1 0 0 1 4 2 0 0 0 11
40 71 79 77 68 55 33 24 23 24 14 11 14 16 15 10
8 8 7 4 8 6 6 8 4 1 6 4 1 1 8 37
44 44 47 45 45 45 45 46 45 46 45 45 45 45 46 45
46 45 46 47 46 46 46 46 46 45 44 46 46 45 45 45
45 45 45 45 46 46 45 44 45 45 45 44 44 44 45 45
22 8 23 41 50 55 56 55 42 15 26 38 45 49 47 49
49 44 41 35 18 17 14 17 24 34 40 37 37 37 36 36
37 36 35 36 22 2 0 0 2 1 1 0 2 0 8 35
68 86 93 101 94 82 72 63 48 41 45 36 29 29 29 25
13 13 13 7 6 6 6 4 4 4 1 6 3 0 2 24
44 45 47 44 46 46 46 46 46 46 45 45 46 46 45 46
46 46 46 47 47 46 45 45 45 45 46 46 47 45 45 45
45 46 46 46 46 46 46 46 45 45 45 46 45 44 42 42
22 0 0 12 21 22 25 40 39 0 0 0 2 12 20 31
43 47 44 35 14 8 15 15 3 10 43 38 38 37 37 37
37 35 37 32 9 0 0 0 3 0 0 4 3 9 37 63
86 93 100 109 113 109 99 94 88 77 73 73 62 51 50 47
31 18 17 13 8 5 4 7 4 5 6 6 5 0 0 13
43 45 47 45 45 46 45 45 46 45 46 46 46 46 46 45
45 45 45 47 47 46 46 46 45 45 45 45 46 46 46 45
45 46 46 46 46 46 46 45 44 43 43 43 44 44 45 46
25 0 0 7 13 17 18 28 39 0 0 0 1 0 1 0
0 6 41 34 9 6 2 11 2 9 45 38 37 38 37 37
37 36 36 26 2 0 0 2 1 0 2 5 4 30 64 84
98 104 108 116 120 123 120 115 115 110 108 107 99 92 86 75
66 43 25 19 14 10 6 6 7 3 6 5 4 0 0 1
32 44 45 45 45 46 46 45 45 46 45 46 46 45 45 45
46 45 45 47 46 46 44 44 45 45 45 46 45 45 46 45
46 45 45 45 45 44 43 44 45 45 45 44 44 44 44 44
28 0 0 5 6 9 8 26 41 5 0 0 0 0 0 0
0 0 41 31 5 0 0 8 1 9 45 38 38 37 38 37
37 37 35 15 0 0 0 0 0 0 5 8 13 49 79 98
105 111 119 128 132 130 129 127 130 124 122 123 125 121 118 108
100 86 58 31 21 15 10 9 7 4 5 3 2 0 0 0
11 42 45 45 45 45 45 45 44 44 45 45 45 45 45 45
45 45 45 46 45 45 45 45 45 44 44 45 45 44 45 45
46 45 45 44 46 45 44 45 45 44 43 43 44 44 44 46
25 0 0 0 1 0 6 20 38 0 0 0 0 0 0 0
0 0 40 22 0 0 0 1 2 10 46 37 38 38 37 37
37 37 34 6 0 0 0 0 0 1 7 11 23 65 91 102
110 117 121 129 135 138 136 136 133 130 130 131 136 133 129 128
120 114 102 69 42 28 18 11 7 6 6 3 2 0 0 0
2 32 45 44 45 45 45 44 46 45 45 45 45 44 45 45
45 44 45 46 44 46 45 45 45 45 45 45 44 44 46 46
45 45 45 45 45 44 44 44 44 44 43 43 44 44 45 45
21 0 0 0 0 0 1 24 39 0 0 0 0 11 8 0
0 0 38 21 0 0 0 1 1 9 48 37 37 37 37 36
36 36 28 2 0 0 0 0 0 3 6 11 37 73 99 104
115 119 122 128 134 134 134 135 135 132 135 137 136 133 130 129
128 121 116 109 81 60 36 20 12 8 4 4 0 0 0 0
0 16 43 43 44 44 44 44 44 45 45 45 45 44 45 45
45 45 45 44 45 45 45 45 45 45 44 45 44 44 44 45
45 44 44 44 43 44 43 44 44 45 45 44 44 44 45 45
19 0 0 0 0 0 0 27 43 0 0 0 0 13 16 8
2 0 36 20 0 0 0 0 0 5 48 37 38 38 37 37
37 36 22 1 0 0 0 0 0 3 5 12 45 79 100 110
118 120 121 124 128 129 127 130 132 134 136 137 135 130 128 129
128 125 123 122 112 100 67 39 16 8 5 3 2 1 0 0
0 4 36 45 44 44 45 45 45 45 46 44 45 44 44 44
44 44 45 45 45 45 44 45 44 44 43 43 45 45 45 45
45 45 44 44 45 44 45 45 45 45 44 45 45 45 44 42
17 0 2 0 0 0 0 20 46 0 0 0 4 16 17 16
15 1 33 21 0 0 0 0 0 3 49 37 38 37 38 37
37 36 22 0 0 0 0 0 3 4 4 16 48 83 101 113
118 119 120 121 124 127 127 130 133 135 133 133 133 131 129 125
124 124 123 120 116 113 98 56 27 13 6 5 3 4 2 0
0 0 24 45 44 45 44 44 45 46 45 44 46 45 45 45
45 46 46 46 45 45 45 45 45 45 43 43 45 45 45 45
45 45 45 46 46 46 46 45 45 44 44 45 41 40 40 41
17 0 3 0 0 0 5 24 47 0 0 0 2 16 16 16
16 2 32 23 0 0 0 0 0 2 49 37 38 38 38 38
37 36 19 0 0 0 0 0 5 5 6 20 57 84 100 111
115 116 118 119 125 130 132 133 135 138 136 136 135 134 135 132
129 126 124 118 115 111 108 79 39 18 7 6 3 3 2 0
1 0 15 44 44 45 45 44 46 45 45 46 45 45 44 46
45 45 45 45 45 44 45 45 45 45 45 44 45 47 47 47
46 46 46 45 42 40 40 41 42 44 44 41 36 33 28 24
17 1 0 0 0 0 9 24 50 0 0 5 2 5 14 16
15 1 30 39 18 8 1 0 0 1 49 37 39 38 38 38
38 37 25 0 0 0 0 0 1 4 9 29 64 86 100 108
112 114 118 122 129 134 137 141 141 142 142 141 141 140 141 142
138 134 130 123 115 107 104 99 61 25 13 4 4 1 1 1
2 2 10 42 45 45 46 46 46 46 46 47 46 46 46 47
45 46 45 46 46 46 46 45 45 45 45 46 44 45 42 43
43 43 46 44 42 40 36 32 29 25 21 19 19 18 19 21
26 3 0 3 1 0 6 30 57 26 17 9 4 0 0 7
13 0 28 51 52 47 46 40 36 36 52 37 39 39 38 39
38 38 25 0 0 0 2 0 0 2 8 39 70 90 98 103
107 111 118 126 134 141 143 144 146 146 146 146 146 146 146 146
143 139 131 118 114 101 86 83 82 50 24 8 0 0 0 0
1 4 6 35 44 45 46 46 46 46 46 47 45 46 46 45
45 46 46 45 46 46 44 44 42 42 40 42 46 45 41 39
36 32 28 23 21 19 19 18 19 21 23 24 26 25 26 27
50 54 40 33 31 21 8 19 64 38 39 45 45 40 31 20
14 7 30 53 52 48 48 50 57 59 56 38 38 38 38 39
38 38 24 0 0 0 1 0 0 0 14 50 75 89 92 96
100 109 119 129 136 143 145 146 147 147 147 147 147 147 146 136
114 84 62 48 69 71 61 51 67 72 49 27 6 0 0 0
0 2 1 23 46 46 46 46 46 47 47 48 46 46 45 44
43 41 42 43 42 42 42 44 41 39 35 32 28 24 22 21
19 19 21 24 25 25 27 10 24 28 28 29 30 31 31 32
54 60 45 53 54 60 58 60 63 19 17 18 19 21 24 29
36 45 54 46 43 47 49 53 59 61 58 38 39 38 38 39
38 38 27 2 0 1 1 0 0 0 22 63 78 87 83 78
87 93 94 87 81 94 124 136 143 148 148 147 147 144 122 101
65 45 38 43 32 31 37 37 31 46 52 38 19 0 0 0
0 2 2 13 43 46 46 46 46 46 44 45 43 45 43 44
43 45 43 41 37 33 29 25 24 24 22 23 24 25 27 27
29 28 29 31 31 31 32 22 17 34 34 34 35 30 31 37
55 49 49 56 59 63 60 48 43 20 18 18 17 18 17 15
15 14 13 15 20 26 32 40 40 38 41 38 40 39 39 38
38 38 32 3 2 1 0 0 0 0 31 69 82 79 62 55
58 41 30 28 30 48 64 94 118 142 148 147 145 131 108 97
77 64 52 37 39 47 59 69 75 83 94 63 16 0 0 0
1 8 4 4 38 47 47 47 46 46 47 46 44 41 44 42
29 25 24 24 23 23 25 27 28 29 29 30 30 32 32 33
35 34 36 27 27 37 38 37 11 38 39 37 37 20 36 37
51 38 49 55 57 62 62 52 44 23 19 19 17 15 13 13
13 12 12 12 13 13 15 38 40 37 36 37 39 39 40 39
39 39 33 4 2 0 0 0 0 3 47 72 78 58 42 44
45 31 35 51 60 68 74 90 109 130 143 143 143 127 110 91
58 36 29 27 25 23 23 26 46 26 58 97 33 0 0 0
0 7 6 3 36 46 43 40 36 32 29 27 25 24 36 48
22 25 29 30 31 32 32 33 34 35 35 36 37 37 38 38
39 39 39 39 34 27 40 40 19 31 41 36 36 22 42 23
55 28 42 52 55 60 60 54 48 28 20 18 15 13 14 13
14 13 14 14 15 15 18 38 13 26 39 37 39 39 39 39
40 39 36 5 3 1 0 0 0 11 55 66 56 25 25 34
35 34 38 43 54 67 83 102 111 124 134 134 139 125 84 41
27 12 4 7 12 14 12 12 12 10 21 37 21 1 0 0
0 1 3 3 23 28 26 26 26 28 30 32 31 31 30 37
25 31 34 36 37 37 39 38 39 39 40 40 40 39 40 40
41 39 40 42 42 35 27 39 35 15 41 38 29 23 36 22
49 1 1 5 12 22 31 32 46 29 19 17 10 3 5 5
14 16 17 15 17 19 22 41 31 28 48 44 43 31 13 35
40 39 38 6 2 2 0 0 0 14 37 52 63 70 69 60
42 25 17 14 18 23 30 57 98 123 135 139 139 94 46 24
7 0 2 12 12 15 21 25 22 10 8 30 24 7 0 0
0 0 0 0 21 32 32 33 35 35 34 37 37 37 37 48
29 36 39 41 41 41 41 42 42 42 42 43 43 43 42 41
42 43 39 42 43 44 36 27 38 11 39 41 25 30 20 37
44 0 0 0 0 1 11 19 46 29 16 15 7 0 0 0
6 12 12 4 8 14 16 40 51 43 45 47 49 45 25 36
40 39 35 4 0 3 0 0 0 13 78 80 40 17 16 13
9 2 1 0 4 8 15 24 57 94 134 141 113 61 48 15
3 3 3 8 21 24 40 71 57 19 4 19 55 49 4 0
0 0 0 0 19 37 38 39 40 41 41 42 42 40 35 39
30 39 41 41 42 43 44 44 44 45 45 44 44 44 44 43
41 43 42 42 44 45 45 36 27 22 23 36 20 20 34 37
40 0 0 0 0 3 0 10 49 28 15 15 10 0 0 3
0 0 0 0 0 3 5 40 51 32 32 27 31 38 41 41
39 39 35 3 0 0 0 0 0 11 59 16 2 8 15 24
20 10 7 6 3 4 3 12 48 62 63 78 53 86 109 58
11 8 7 5 21 36 103 152 132 19 5 13 55 78 24 0
0 0 0 0 16 41 43 43 43 44 43 43 43 41 19 13
15 41 44 46 45 44 44 44 44 45 45 45 45 44 44 44
44 41 42 41 43 44 45 44 35 22 2 1 2 19 44 35
38 0 0 0 0 2 0 0 50 23 14 5 0 0 0 12
7 2 2 0 0 0 3 39 52 34 25 39 38 33 36 40
39 40 35 7 0 0 0 0 0 6 35 6 3 15 36 72
60 30 14 12 3 3 1 11 59 63 41 61 53 109 153 131
18 5 4 4 14 29 84 149 108 11 8 13 54 84 47 0
0 0 0 0 16 43 44 44 44 45 45 45 44 42 16 11
8 38 44 45 47 45 45 45 46 46 46 46 46 46 46 45
45 44 41 41 40 43 45 44 42 31 4 0 4 33 40 35
36 0 0 0 0 1 0 0 53 11 1 0 0 0 1 11
14 6 1 0 0 0 1 40 53 32 15 39 37 31 36 40
40 40 36 18 0 0 0 0 0 7 33 6 3 20 86 153
139 53 19 10 3 1 0 3 32 63 37 69 61 91 135 100
12 4 2 4 9 13 25 46 24 7 6 13 52 84 59 4
0 0 0 0 21 45 46 46 46 33 21 12 13 43 12 15
8 38 45 46 48 46 46 45 46 45 46 46 46 45 46 46
44 44 44 42 40 43 44 44 40 41 20 0 13 36 29 31
35 0 0 0 0 0 0 2 54 14 0 0 0 0 2 3
22 15 9 3 1 0 1 40 54 35 11 25 22 24 36 40
40 40 40 29 0 0 0 0 1 36 35 6 5 20 80 151
128 28 13 4 0 0 0 3 24 57 82 138 124 67 49 24
11 4 0 2 3 5 11 14 11 3 2 13 50 85 62 6
0 8 1 3 35 46 47 47 44 12 6 14 24 37 12 1
5 38 45 46 47 45 45 46 47 46 45 46 45 45 46 45
45 45 45 44 40 39 39 39 39 43 28 0 13 34 27 29
27 0 0 0 0 0 0 6 54 9 0 0 0 0 5 14
18 17 22 5 0 1 1 38 54 36 24 29 30 24 36 39
40 40 41 34 2 0 0 0 10 53 34 3 3 10 26 54
37 14 8 1 0 0 0 3 30 51 98 138 139 74 49 12
6 2 0 0 1 2 7 7 7 2 0 11 52 83 63 7
0 5 24 18 43 47 47 47 47 44 45 46 45 43 17 7
8 38 44 45 47 45 46 46 46 46 45 46 45 45 46 46
45 44 45 45 44 40 39 39 41 43 33 0 11 38 28 31
25 0 0 0 6 1 0 2 53 6 0 0 0 0 11 27
26 17 15 3 0 3 4 37 55 39 30 23 9 18 33 39
41 40 40 37 11 0 0 0 21 59 34 2 0 3 9 14
11 8 4 0 0 0 0 2 33 55 105 134 140 98 54 18
2 0 0 0 0 0 3 4 4 1 0 11 58 82 63 8
1 8 41 41 46 47 48 47 47 47 46 45 44 42 26 1
8 38 45 46 47 46 46 46 46 45 46 45 46 46 45 45
44 44 45 44 44 43 38 39 42 44 33 0 7 40 28 31
23 0 0 6 21 10 1 3 54 4 0 0 0 0 3 7
29 5 1 1 1 2 1 33 55 41 30 17 11 9 32 38
41 40 41 39 24 7 25 4 23 61 37 3 0 0 5 7
7 4 1 0 0 0 0 3 37 71 110 127 136 116 60 43
2 0 0 0 0 1 7 7 5 2 1 16 69 82 63 10
2 23 52 47 47 48 48 48 47 47 47 45 44 42 33 2
15 39 46 46 48 47 46 45 46 45 45 45 45 45 45 45
45 45 45 45 45 42 39 38 43 43 34 0 6 39 29 27
22 0 0 18 22 13 3 2 52 4 2 0 0 0 1 0
20 3 0 0 0 0 0 29 54 40 17 9 3 4 30 37
40 41 41 40 39 29 15 0 22 62 41 7 0 0 0 1
1 1 0 0 0 0 0 12 44 92 111 126 134 121 91 50
26 0 0 0 0 1 8 8 4 3 1 36 86 82 63 22
5 49 63 47 47 48 47 47 47 47 46 45 44 41 36 27
32 42 46 46 47 46 46 46 46 45 45 46 45 45 45 45
45 44 45 45 44 44 38 35 39 43 38 2 3 27 19 16
27 12 9 21 18 19 7 2 52 2 5 0 1 0 0 0
21 7 0 0 0 0 0 24 54 35 11 15 0 5 31 37
41 41 41 41 45 39 6 0 20 62 48 19 0 0 0 0
0 1 0 0 0 0 1 26 59 102 117 134 140 130 113 74
47 16 0 0 0 4 6 6 4 4 18 69 94 82 63 35
33 81 66 47 47 47 48 48 47 47 47 47 44 41 38 37
39 45 47 46 47 46 46 46 45 45 45 46 45 46 45 45
45 45 46 45 44 43 39 34 25 23 24 1 0 31 29 28
35 49 48 53 50 48 47 44 55 3 0 0 0 0 0 1
22 6 0 2 1 0 0 17 55 28 8 9 2 15 33 35
41 41 41 41 45 41 3 2 16 58 57 34 0 0 0 1
1 2 0 0 0 0 12 39 86 103 124 139 143 135 126 104
65 44 18 1 1 7 10 10 16 32 69 106 98 84 64 53
79 102 60 47 47 46 46 47 46 46 46 45 44 42 40 41
44 46 46 46 47 46 46 46 46 46 46 46 46 46 46 46
46 44 44 43 43 42 37 36 36 37 39 2 0 31 30 27
32 49 50 54 52 52 58 62 60 18 10 18 2 0 0 3
23 11 4 4 2 0 0 10 52 27 8 2 4 4 29 34
41 41 41 41 41 52 6 5 17 56 65 46 12 0 0 5
3 3 1 0 0 3 30 67 86 99 128 144 146 140 132 109
94 75 57 37 30 30 34 49 72 108 129 114 100 86 64 71
101 101 53 47 48 47 47 47 48 47 46 44 45 43 43 42
46 47 47 46 47 47 47 46 47 46 45 44 45 44 46 45
45 45 45 44 44 43 37 34 37 39 36 4 1 25 29 26
31 51 51 52 51 52 62 65 63 42 40 40 38 34 32 31
34 24 22 18 16 15 14 23 44 32 16 12 19 5 13 33
41 40 40 41 34 66 56 24 20 50 65 72 39 10 0 0
0 0 0 0 6 29 70 89 96 106 132 148 148 147 138 118
111 104 112 118 122 122 127 136 143 146 137 116 98 85 61 80
108 96 48 47 47 47 47 47 47 46 46 45 45 44 44 45
45 45 45 44 44 45 45 45 45 44 43 45 45 44 44 45
44 44 43 40 39 39 37 34 34 37 38 8 0 27 30 26
30 40 43 45 45 47 50 48 49 43 44 45 44 41 42 43
42 40 37 33 32 30 30 33 45 42 28 27 22 16 18 30
41 41 41 41 33 62 84 53 36 44 62 77 80 52 30 22
16 17 18 28 60 102 100 99 116 117 133 147 147 146 139 130
131 120 106 110 127 142 147 146 146 145 136 115 96 82 57 83
115 89 46 47 47 47 47 47 47 45 45 45 45 43 43 44
44 45 45 45 46 45 46 44 45 44 44 45 44 43 45 43
43 43 43 42 42 41 37 32 33 37 37 10 0 21 30 25
33 45 42 43 44 45 44 38 38 43 44 46 47 43 45 44
43 43 42 46 45 41 38 38 46 57 53 52 51 46 41 35
41 40 41 40 33 48 85 74 55 39 59 77 93 103 97 92
94 99 112 126 131 113 85 108 123 124 120 132 133 130 123 122
126 120 99 107 107 123 140 146 146 143 130 112 94 81 54 87
115 78 45 45 45 45 45 44 45 45 46 45 45 44 46 46
46 45 45 46 46 46 46 45 45 45 45 44 44 43 45 43
43 43 42 41 40 39 36 32 32 37 35 11 0 18 30 25
33 49 43 44 43 43 43 44 45 48 45 48 51 54 53 44
44 44 44 54 55 53 50 49 49 44 42 41 43 45 44 39
41 41 41 40 35 42 77 95 76 35 53 74 95 113 122 133
143 147 146 137 121 97 77 92 91 84 94 111 117 112 93 62
57 85 108 129 119 94 119 134 141 136 125 109 91 79 54 92
101 59 46 46 46 47 46 47 47 46 46 46 46 44 46 46
46 45 46 46 46 46 45 45 45 45 44 44 44 42 44 43
44 42 41 41 41 40 36 31 32 36 35 13 0 15 30 25
57 53 46 46 45 47 47 49 52 54 47 50 53 60 54 47
40 40 45 57 55 52 49 51 49 44 36 30 30 29 29 35
40 40 40 40 33 42 66 98 85 41 46 68 88 107 115 125
131 137 139 127 116 106 93 78 49 56 73 76 87 89 97 104
109 119 132 129 129 111 91 116 128 127 119 104 87 76 56 95
81 46 46 47 46 47 47 47 46 46 46 45 47 46 47 46
46 46 45 45 45 45 45 44 44 45 44 43 43 43 44 42
42 42 41 41 39 39 36 29 31 34 34 16 0 13 29 24
62 56 49 41 46 43 44 51 56 58 47 50 51 50 49 48
45 37 36 54 54 52 52 53 51 48 42 36 35 34 36 38
40 40 41 40 33 44 57 94 85 43 40 63 81 97 106 115
121 129 129 120 118 119 109 108 108 104 107 112 118 123 134 132
124 122 125 122 129 131 104 92 119 121 117 99 84 73 64 97
61 46 47 46 45 46 46 46 46 45 46 45 46 45 46 45
46 45 46 45 44 46 46 44 44 45 44 44 43 42 43 42
41 40 40 39 38 36 35 29 28 34 32 17 0 9 28 25
63 53 11 24 14 13 17 23 35 58 48 48 29 30 37 38
36 38 37 37 13 10 14 24 30 34 46 41 38 40 43 42
44 43 41 38 35 44 48 85 85 69 37 58 76 90 97 108
113 123 123 115 118 118 111 111 115 118 126 136 143 137 140 140
127 125 125 125 124 125 116 96 110 122 117 97 86 70 59 80
48 46 45 45 45 46 45 45 44 45 45 44 46 45 46 45
46 45 46 46 45 44 45 45 45 44 43 43 42 42 42 41
40 40 39 38 38 37 34 28 26 32 31 17 0 7 28 25
36 39 1 0 0 0 0 0 5 53 49 32 1 1 4 9
12 27 43 36 5 0 0 1 11 17 43 38 40 41 48 49
52 48 41 37 37 44 46 58 79 84 41 50 70 91 95 103
111 120 120 114 117 110 106 111 114 120 126 133 137 135 136 136
126 124 125 124 122 122 123 109 114 119 112 95 87 65 32 44
45 45 45 46 46 45 40 39 35 32 28 24 30 43 46 45
46 45 46 46 45 45 45 44 44 43 43 43 43 42 43 41
40 39 39 38 37 38 33 27 26 30 31 19 0 6 28 26
38 37 9 5 0 0 0 4 12 53 46 10 0 0 0 1
6 33 44 39 1 0 0 0 8 18 34 1 5 8 9 11
32 51 41 35 39 44 45 48 69 91 51 41 64 87 99 106
114 122 117 115 112 105 106 108 110 111 115 117 119 125 119 109
98 88 79 83 101 111 124 125 130 123 115 94 89 56 24 30
34 38 46 46 45 45 24 12 13 12 13 12 17 43 47 47
46 45 45 45 45 45 45 44 43 43 42 42 42 42 42 40
40 39 38 38 37 35 34 27 25 30 30 21 0 4 27 26
46 40 5 3 0 0 0 3 23 53 40 2 0 0 0 0
0 31 44 40 1 0 0 0 5 16 35 0 6 13 4 0
23 53 42 34 41 44 46 48 53 71 36 34 57 79 97 109
116 125 122 122 120 102 90 79 74 76 88 101 106 105 122 108
106 118 59 17 49 113 134 144 142 131 114 98 88 43 9 8
8 17 46 46 45 45 24 12 12 12 13 12 17 45 48 47
47 46 46 46 46 45 44 44 44 43 43 42 42 41 42 40
39 39 39 36 35 35 33 27 25 28 30 23 0 3 24 20
49 43 5 7 0 0 2 3 2 48 33 0 0 0 0 1
0 29 43 38 3 0 0 0 3 14 37 0 8 16 11 0
19 53 42 35 42 44 46 48 47 41 21 25 49 73 92 110
115 126 135 126 118 77 37 72 98 122 136 140 149 148 148 148
145 144 111 66 100 132 142 147 143 133 108 102 78 30 8 8
7 14 44 45 45 45 21 11 12 13 12 11 16 44 47 46
47 46 45 45 45 45 44 43 43 43 43 43 42 41 40 41
39 39 38 37 35 32 32 24 21 24 27 21 0 2 25 27
48 46 3 0 0 0 4 11 2 46 29 0 0 0 0 0
0 30 43 36 2 0 0 0 1 9 40 0 3 5 1 0
17 53 43 34 42 44 46 48 47 43 32 23 38 64 84 105
117 126 144 139 123 96 56 109 120 130 126 125 128 126 123 120
107 98 95 104 124 137 145 147 143 129 107 98 67 19 8 8
7 11 42 44 45 44 20 12 12 12 12 12 14 40 47 46
46 46 46 46 45 44 44 44 43 42 41 39 39 39 40 40
39 38 37 35 34 34 32 25 22 25 27 23 0 1 23 25
37 52 18 3 0 0 2 4 0 42 28 0 0 0 0 0
0 30 44 33 1 0 0 0 0 2 43 2 10 13 9 0
15 52 43 35 43 44 46 48 47 44 37 25 29 54 79 98
115 123 142 147 134 117 98 84 83 93 106 115 114 117 125 121
108 103 104 115 129 141 148 147 137 119 106 90 53 11 8 9
6 12 43 45 45 45 23 13 12 13 13 12 12 39 47 46
45 45 44 44 43 42 43 43 43 43 44 43 43 43 41 40
39 37 36 34 32 32 31 24 22 24 27 24 1 0 22 25
32 54 19 4 0 0 5 11 2 40 27 0 0 0 0 0
0 21 46 37 13 0 0 0 0 3 46 4 0 3 2 0
14 52 41 35 43 45 47 48 48 47 41 25 20 43 68 93
111 118 135 149 140 123 108 91 89 101 113 131 131 131 139 134
125 119 118 125 135 143 147 142 128 113 103 76 38 9 8 9
7 12 43 45 45 45 28 17 18 19 21 22 21 34 44 45
46 46 47 46 46 46 42 44 43 44 43 42 42 41 40 38
37 36 35 34 33 31 30 23 20 23 27 25 2 0 21 25
29 52 5 0 0 0 0 1 0 41 28 0 0 1 0 0
0 18 48 35 4 0 0 0 0 0 45 7 0 2 1 0
12 50 40 37 43 45 46 49 48 46 42 29 13 33 56 86
105 113 124 146 141 128 114 102 100 115 127 134 135 137 145 146
136 129 126 131 138 144 145 133 119 109 93 62 23 8 8 8
7 11 42 45 46 45 32 20 21 18 16 15 27 50 25 25
42 46 46 45 45 46 44 44 43 44 44 42 42 40 40 38
37 35 35 33 32 31 29 23 20 21 26 25 2 0 18 25
23 46 3 0 0 0 0 0 0 37 33 0 0 0 0 0
0 14 49 35 4 0 0 0 0 0 42 14 0 0 0 0
14 47 38 36 42 43 45 47 46 42 37 28 9 23 44 70
97 109 114 136 142 130 117 108 109 118 134 137 139 144 147 147
140 135 134 133 138 143 141 124 113 103 79 46 10 8 8 9
6 9 40 44 47 44 30 12 14 13 2 1 9 17 21 4
31 46 46 45 45 45 44 43 42 42 43 41 41 40 39 38
36 35 33 31 31 29 29 23 18 21 25 25 3 0 16 24
20 43 3 0 0 0 0 15 1 36 41 0 0 0 4 0
1 11 51 37 28 22 20 19 22 21 48 17 0 0 0 0
14 46 37 36 41 43 45 48 41 42 44 33 13 16 34 54
83 102 107 124 138 130 119 113 116 121 133 138 139 142 147 147
142 138 135 134 138 142 134 117 108 95 66 22 6 8 8 9
7 9 40 44 47 44 31 12 13 13 11 2 12 24 30 9
28 46 45 45 45 45 44 43 43 42 42 42 41 40 39 37
36 34 33 31 30 29 28 22 18 20 25 25 5 0 15 25
11 44 33 31 25 27 35 45 37 45 49 50 48 46 49 48
49 50 56 38 43 48 51 52 58 63 63 42 32 29 28 27
30 42 37 34 40 42 45 44 40 46 44 38 21 11 32 40
64 92 101 109 129 126 123 117 117 120 128 137 139 140 144 145
140 139 134 135 136 138 126 111 102 81 48 7 9 9 7 9
6 8 39 43 46 43 33 11 13 13 10 3 6 5 1 7
27 45 46 44 45 45 44 43 42 42 42 42 41 40 39 37
35 33 33 30 29 29 27 23 18 19 23 24 7 0 13 24
4 46 47 47 41 45 56 56 51 47 45 61 58 53 53 56
59 59 59 39 40 48 51 53 60 65 65 50 39 39 39 39
42 40 37 33 40 42 43 40 45 44 43 41 28 24 33 35
47 76 93 96 117 123 125 121 120 121 128 138 144 142 147 147
140 136 136 137 137 133 116 104 92 64 42 12 12 9 8 10
6 7 37 44 46 43 33 10 12 11 10 10 13 12 3 3
25 45 37 32 43 44 43 43 43 42 41 41 40 38 37 35
34 32 31 30 28 27 27 22 17 18 23 24 8 0 10 24
3 46 46 40 41 46 55 58 49 42 37 52 56 56 55 54
55 55 56 42 32 37 44 46 51 50 49 44 38 39 39 38
37 37 38 37 34 38 37 44 45 44 43 41 31 33 38 41
36 57 81 86 102 118 123 123 121 123 130 143 148 146 147 148
145 139 136 135 136 125 105 95 77 50 47 3 3 7 8 11
5 6 36 43 46 43 34 10 12 8 3 14 1 0 0 1
16 15 18 16 12 44 44 42 42 42 41 40 39 38 37 34
34 33 31 28 28 27 27 23 17 17 23 23 8 0 9 23
1 44 36 33 32 35 45 57 52 45 39 27 30 29 29 29
30 29 33 35 34 36 39 40 38 33 32 37 39 39 39 39
39 39 38 37 38 39 42 46 45 44 43 34 29 33 41 44
40 41 63 75 84 104 116 122 125 125 136 146 148 148 148 148
147 138 130 128 130 113 93 80 55 56 53 4 5 8 7 11
5 6 35 43 45 43 33 9 11 5 43 68 35 0 2 1
17 39 44 43 15 34 43 42 41 42 41 40 39 37 36 34
33 32 30 28 27 27 26 23 17 17 23 23 9 0 8 23
4 43 29 22 28 32 40 50 48 45 42 30 30 31 32 35
34 35 37 39 41 42 45 44 43 38 36 37 38 39 39 39
38 38 38 38 39 41 44 47 45 43 39 34 34 36 38 46
49 40 45 63 70 86 105 114 119 125 137 145 147 148 148 148
146 139 126 125 118 98 78 57 53 67 56 9 8 7 7 10
5 6 34 43 45 44 35 10 10 7 43 55 53 0 0 6
43 44 44 43 30 21 44 41 41 41 41 39 38 36 35 33
32 31 31 29 28 27 26 23 17 16 22 22 12 0 6 24
23 43 21 0 0 0 2 7 12 16 45 35 42 41 42 52
52 44 42 44 45 48 54 54 52 40 38 37 38 39 39 39
39 38 38 38 38 40 42 46 45 39 34 33 34 34 33 48
51 49 39 45 59 68 89 104 112 121 126 135 139 140 134 130
130 124 119 115 102 78 58 52 68 74 59 9 7 7 7 9
6 6 32 43 44 43 35 10 9 7 29 8 31 0 0 6
45 45 44 43 36 18 43 42 41 41 40 38 36 34 33 33
31 30 30 29 28 28 27 24 18 17 23 25 14 0 4 24
46 49 23 0 0 0 0 0 6 20 48 37 50 49 49 64
63 17 13 14 15 17 22 43 53 40 39 37 38 39 39 38
39 38 38 38 38 40 42 46 44 33 31 30 35 33 30 51
54 54 49 37 43 55 67 89 102 109 113 119 123 124 117 117
118 111 106 98 78 57 52 67 78 78 61 8 6 6 6 8
6 6 32 42 45 43 39 19 22 20 0 2 3 0 2 9
42 44 44 43 35 22 43 42 42 41 39 37 34 33 32 30
29 29 29 29 28 27 26 24 17 18 25 26 16 0 3 26
46 50 29 0 0 0 0 0 0 17 50 34 47 40 20 28
46 6 0 0 0 0 0 34 54 41 39 38 38 39 39 38
38 38 37 37 38 39 42 46 38 32 4 1 33 34 28 54
58 56 57 50 39 40 50 65 83 91 99 102 102 101 101 101
100 95 88 72 52 52 69 78 85 83 65 9 6 6 6 8
6 5 31 42 45 44 43 36 7 22 5 0 0 0 0 0
40 45 44 44 28 30 43 41 41 40 39 35 33 32 32 30
30 30 30 29 27 27 27 24 18 16 22 24 16 0 2 25
46 47 33 0 0 0 0 0 0 14 51 34 47 33 0 2
36 7 0 0 0 0 0 28 52 41 39 39 39 39 39 38
38 38 37 38 39 39 42 44 36 31 11 9 31 34 27 54
63 61 63 60 53 42 38 45 57 68 73 79 79 76 75 73
71 62 52 44 52 71 80 86 90 86 67 10 6 6 6 8
6 6 29 41 41 45 44 35 37 64 43 0 0 0 0 1
42 45 45 43 15 39 44 42 42 40 39 33 31 29 29 29
27 28 29 29 27 27 27 26 18 16 21 24 17 0 2 24
10 13 4 0 0 0 0 0 0 17 50 35 47 34 0 3
33 10 0 0 0 0 0 21 51 42 39 38 38 38 38 37
37 37 37 37 38 39 41 40 34 35 27 27 33 34 27 53
67 66 69 67 64 56 48 40 36 37 40 40 41 39 37 35
33 31 40 55 71 82 84 89 93 89 70 12 6 6 6 7
6 6 29 44 44 45 44 37 37 51 45 0 0 0 0 0
24 27 26 16 21 41 12 9 26 41 38 33 30 28 28 28
27 28 29 28 27 27 27 26 18 16 20 23 20 0 1 22
9 14 3 0 0 0 0 0 0 18 49 35 47 34 0 2
30 12 0 0 0 0 0 16 52 42 38 38 38 39 38 38
38 38 38 38 38 39 40 40 33 29 26 31 32 34 28 54
69 71 72 72 72 66 61 56 51 41 35 32 34 33 32 32
38 51 68 78 84 86 87 93 95 89 73 14 5 6 5 4
3 2 12 15 11 8 5 2 0 0 1 1 0 0 0 0
0 0 0 0 0 14 4 36 22 41 38 34 30 28 27 27
26 27 28 28 28 27 27 26 18 16 21 24 20 0 0 22
12 16 3 0 0 0 0 2 0 14 49 35 47 33 0 3
27 14 0 0 0 0 0 13 51 41 37 38 38 38 38 37
38 37 37 37 38 38 40 40 37 26 17 22 27 26 25 56
71 76 77 76 76 72 69 67 69 71 69 63 58 59 64 75
86 92 92 92 90 90 94 97 97 92 76 25 9 0 0 0
0 0 0 0 0 0 1 2 3 4 4 6 8 10 11 12
13 11 0 0 27 11 61 83 63 36 34 29 30 27 26 27
26 28 29 29 28 27 27 26 19 17 21 24 22 0 0 22
14 18 3 0 0 0 0 3 0 9 50 35 47 34 1 4
25 18 4 0 0 1 1 10 50 42 37 37 37 38 37 38
37 37 37 37 37 38 39 40 38 33 29 31 30 30 33 58
73 76 80 82 79 78 75 74 78 91 104 111 117 121 122 123
121 115 106 99 96 98 103 105 104 99 81 39 40 2 1 8
12 15 16 18 20 21 21 20 20 20 21 21 22 23 23 22
20 14 0 0 7 4 2 5 5 4 3 7 30 29 28 29
29 30 31 30 30 30 29 28 23 19 23 27 25 0 0 23
17 19 3 1 1 0 0 12 3 6 51 35 48 39 18 3
22 21 5 4 3 4 0 8 49 40 37 37 37 37 36 37
37 37 37 37 37 37 39 38 38 31 31 36 34 35 39 60
76 82 83 85 86 84 82 82 87 103 121 130 133 138 139 138
132 118 108 103 99 104 109 111 109 103 86 38 62 7 1 14
17 20 22 23 23 22 23 21 22 21 22 23 24 25 25 24
22 15 0 0 0 0 0 0 0 10 6 9 37 36 35 35
35 36 35 32 27 26 23 21 15 11 11 10 7 0 0 1
18 20 4 3 1 0 0 16 20 4 53 35 49 33 27 9
20 18 2 12 11 3 0 5 47 40 36 37 37 37 37 37
37 37 37 37 37 38 37 37 38 30 35 37 36 32 32 63
81 89 94 97 99 97 91 89 90 97 113 131 138 140 144 142
126 111 106 102 101 105 111 112 111 107 89 31 0 0 2 16
18 22 24 24 24 24 24 23 23 23 24 24 25 26 26 24
22 16 0 0 0 0 0 0 0 7 4 11 16 14 14 13
14 17 20 21 21 23 24 27 28 25 26 31 35 5 0 31
17 21 12 9 13 11 13 25 30 20 55 36 51 32 23 22
18 17 3 11 8 3 2 6 41 37 36 36 36 37 36 36
36 36 36 37 37 37 35 35 38 34 38 38 19 9 40 68
89 100 104 110 113 106 97 93 93 92 100 122 140 144 143 133
115 107 106 102 102 107 113 115 115 107 92 47 2 1 3 15
18 22 24 25 25 25 25 25 25 25 26 27 27 27 26 24
22 18 0 0 0 0 0 0 0 0 45 53 50 49 49 49
51 53 53 52 51 50 49 50 47 39 39 46 47 8 0 31
18 18 37 42 46 47 50 55 60 60 64 40 51 27 8 31
16 35 31 31 30 30 29 28 30 32 35 36 36 36 36 36
36 36 36 36 37 36 35 35 39 34 38 25 7 44 52 71
92 102 112 118 117 115 101 90 93 96 94 107 132 143 137 119
110 106 108 105 104 108 113 116 115 107 93 65 49 20 11 18
19 23 26 25 26 26 26 26 26 26 28 28 28 28 27 25
23 20 0 0 0 0 0 0 0 0 48 51 50 49 49 48
50 51 52 51 50 50 49 49 47 39 39 45 47 9 0 28
19 17 39 46 48 49 53 58 61 62 64 52 48 27 1 12
14 33 28 29 28 28 28 28 28 32 35 36 36 36 36 35
36 35 36 36 36 36 35 35 36 27 25 19 39 52 57 73
93 104 112 122 120 115 110 97 92 96 97 97 115 129 124 114
111 113 112 107 107 110 117 118 116 107 95 73 61 62 34 11
24 20 28 25 26 26 27 28 28 28 29 29 29 29 28 26
25 21 0 0 0 0 0 0 0 0 47 50 49 49 48 48
49 50 50 50 49 49 49 49 47 40 38 44 47 13 0 26
19 16 28 41 40 40 43 46 48 46 45 41 44 28 0 5
12 37 33 34 34 34 34 33 33 34 35 35 35 36 36 35
36 35 36 36 36 36 35 29 20 22 20 32 63 57 67 76
94 103 114 120 125 119 110 101 97 99 102 96 99 108 110 113
118 116 111 105 107 117 118 120 118 108 96 77 75 70 82 65
24 20 22 22 26 26 27 28 28 28 29 29 29 28 28 27
26 21 0 0 0 0 0 0 0 1 47 49 48 48 48 48
49 48 49 49 48 48 48 48 47 40 38 42 46 16 0 24
18 16 10 8 9 11 14 19 25 26 28 25 43 30 0 2
9 37 33 35 35 35 35 35 34 34 34 35 35 35 35 35
36 36 36 36 35 33 27 19 27 23 19 42 70 72 75 82
92 105 115 120 124 126 118 103 99 102 107 107 105 107 112 118
121 117 112 106 113 118 119 121 118 109 97 84 89 80 86 95
88 42 30 18 20 25 27 28 28 28 29 29 28 28 28 27
26 21 0 0 15 38 16 0 0 4 48 48 48 48 47 47
48 48 48 48 48 48 48 48 47 40 37 41 46 18 0 18
18 16 12 10 10 12 14 19 26 27 28 26 42 31 1 0
6 37 32 34 35 34 34 34 33 34 34 34 34 34 34 34
35 35 35 35 29 21 21 20 24 21 16 38 76 86 81 83
94 106 116 121 124 126 123 113 97 103 110 112 112 114 118 121
121 116 109 111 117 118 120 120 117 110 101 90 95 97 92 98
102 64 29 25 20 23 24 27 27 28 28 28 28 28 27 26
26 20 0 0 25 51 18 0 0 6 48 47 47 47 47 47
47 46 47 47 47 47 48 47 47 41 37 40 46 21 0 15
17 19 18 16 16 16 18 21 27 27 30 26 43 36 24 31
36 39 31 34 34 34 33 34 34 33 33 34 34 34 34 34
34 35 35 23 17 21 22 20 23 22 18 32 88 94 86 85
96 107 115 120 123 125 124 118 105 102 113 119 121 122 123 123
122 112 110 115 116 119 120 121 118 110 103 95 98 105 105 103
104 54 25 29 24 28 19 22 26 28 28 28 28 27 28 27
27 18 0 0 0 0 0 0 0 7 48 48 47 47 47 47
47 47 47 47 46 47 47 47 47 41 37 39 45 23 0 13
18 18 18 17 19 20 22 26 31 31 30 27 46 41 46 55
53 40 30 34 34 33 33 34 34 34 33 34 34 34 34 35
38 30 17 17 18 21 24 21 24 23 18 22 73 101 91 88
98 107 117 122 125 127 125 119 108 101 109 121 124 124 127 125
118 114 112 115 120 122 122 122 117 113 108 99 105 109 114 114
101 33 23 30 25 23 19 17 24 28 29 28 28 28 28 28
28 17 0 0 3 6 0 0 0 11 49 47 47 47 47 47
47 47 47 46 47 46 47 47 46 42 36 38 45 25 0 13
18 19 19 18 19 20 22 26 31 32 29 24 31 27 28 32
33 30 31 33 33 33 33 33 33 34 33 33 34 34 37 30
21 19 17 16 18 23 22 19 23 25 21 16 47 102 97 91
104 108 115 122 124 128 125 117 111 104 104 116 121 123 124 121
118 112 112 121 126 126 123 121 118 115 110 105 110 114 120 121
75 27 27 28 27 26 23 20 19 22 23 25 27 29 27 28
27 16 0 0 2 2 0 0 0 16 49 48 47 48 48 47
47 47 47 47 47 47 47 47 47 43 37 38 45 28 0 11
18 19 19 19 20 20 22 25 31 31 29 29 31 30 28 27
31 31 32 34 35 34 34 34 34 34 34 35 36 30 25 22
19 19 19 18 18 22 20 17 25 24 25 16 25 80 101 97
107 110 115 121 122 125 125 120 114 108 102 105 117 125 123 116
113 114 120 124 126 128 123 122 119 117 111 109 114 121 123 109
38 26 28 27 29 27 20 21 19 19 20 22 20 21 28 28
28 16 0 0 0 0 0 0 0 17 49 49 48 48 48 48
48 48 47 47 48 47 48 47 48 45 38 38 46 31 0 8
18 18 20 20 21 22 23 26 31 31 29 29 31 30 30 29
32 31 32 34 34 34 35 34 34 35 38 33 26 23 21 22
18 20 20 18 20 22 23 21 23 24 26 20 14 41 90 104
112 114 116 120 122 126 129 125 117 112 107 106 113 120 120 116
119 120 122 127 126 126 122 122 120 119 115 113 118 124 121 57
29 27 25 26 29 25 22 24 22 21 18 18 18 18 20 28
28 16 0 0 0 0 0 0 0 6 48 48 48 48 48 48
47 47 48 47 47 47 48 48 47 45 38 38 45 32 0 6
17 19 20 20 22 23 24 27 32 32 30 30 31 31 31 30
32 32 33 34 34 34 34 35 40 34 27 22 23 23 21 18
16 21 21 20 20 20 20 19 20 26 25 24 18 19 47 101
114 115 116 119 121 123 126 125 120 115 112 111 111 113 116 117
119 120 123 127 127 125 121 122 122 120 116 117 123 124 71 27
29 29 25 26 28 23 24 23 20 19 19 17 14 18 18 21
20 21 11 0 0 0 0 0 0 12 28 48 47 47 48 47
47 47 47 47 47 47 48 47 47 46 38 37 45 34 0 4
17 18 20 20 22 23 24 28 33 32 30 31 31 31 31 31
31 32 32 33 34 34 34 35 25 22 21 21 22 23 21 19
19 20 21 21 21 21 22 23 19 23 26 25 22 19 21 43
99 118 117 118 122 124 126 126 121 116 113 112 112 114 117 118
119 121 125 126 126 123 120 122 124 120 116 119 122 73 30 26
28 28 27 28 23 23 23 21 19 19 16 17 16 17 17 19
20 20 20 21 10 1 0 0 0 31 18 43 48 47 47 47
47 47 47 47 47 47 47 47 47 45 38 37 43 35 0 3
16 17 19 20 20 22 24 27 32 32 31 31 31 31 32 32
31 31 32 33 34 34 27 20 18 20 20 19 21 19 18 17
18 19 20 20 20 21 19 22 22 18 25 22 23 23 19 19
39 93 118 118 121 124 125 125 121 115 112 110 110 112 114 115
116 121 125 126 125 121 120 121 122 119 118 114 63 27 27 25
26 27 25 24 16 16 20 20 19 18 18 16 16 18 20 19
19 18 17 18 25 23 7 0 0 33 41 19 47 47 47 46
47 47 46 47 46 46 47 47 46 45 38 36 42 39 0 1
15 16 18 20 20 21 23 27 32 32 31 32 31 30 31 31
31 30 31 33 34 26 18 15 17 18 20 21 22 18 16 17
19 18 18 20 21 20 20 21 24 22 22 23 22 23 23 19
19 32 74 112 118 122 124 126 122 118 113 109 108 108 110 112
117 122 126 126 123 118 118 122 124 121 99 45 24 23 26 27
28 25 25 20 19 19 20 19 18 18 17 16 16 17 17 20
19 20 18 17 17 19 20 16 3 35 46 24 35 46 47 46
46 46 46 46 46 46 46 46 46 45 38 36 41 41 0 0
16 18 19 21 23 24 26 28 31 31 31 31 31 30 30 31
32 31 35 33 24 21 16 15 19 17 18 17 20 17 15 21
20 20 22 21 22 22 23 23 26 27 24 25 26 25 25 23
20 19 22 42 82 114 122 124 125 120 118 114 110 108 112 115
118 122 125 124 118 117 120 123 116 72 30 21 22 24 24 26
25 25 21 22 22 19 19 19 20 19 18 19 19 16 19 21
20 18 19 18 17 15 18 19 24 37 46 43 15 40 46 45
46 46 46 45 45 45 46 46 46 45 38 35 39 42 0 0
20 23 24 25 26 28 29 29 30 31 30 31 31 30 30 31
33 33 28 22 20 19 15 16 19 16 17 18 21 18 15 20
22 22 22 23 21 22 22 22 23 27 27 24 25 28 28 26
23 22 18 20 23 41 84 119 126 122 120 117 115 114 114 116
119 125 128 123 118 118 112 80 41 24 20 22 25 26 26 24
25 23 25 23 19 19 19 20 22 20 19 20 19 13 18 22
19 17 20 18 16 16 16 18 18 20 32 26 4 1 41 45
46 45 46 45 45 45 45 45 46 45 39 35 38 43 1 0
21 23 25 26 27 28 29 30 30 29 30 30 30 29 29 33
30 22 17 17 18 17 14 13 18 17 15 17 19 17 14 19
21 21 22 23 21 21 23 21 22 21 26 26 22 22 28 29
28 25 23 22 20 19 22 36 67 93 112 117 117 116 115 117
119 123 121 105 83 56 32 23 20 21 22 23 24 24 24 26
23 25 26 21 18 19 19 21 23 21 21 21 21 12 19 22
18 18 19 18 17 16 17 15 16 17 19 20 35 9 34 45
45 45 45 44 45 45 45 45 45 45 40 35 37 43 3 0
15 20 25 26 27 28 28 29 30 29 30 30 31 29 32 27
17 14 14 15 16 14 15 13 14 18 14 17 21 20 15 20
23 21 23 21 21 21 21 20 20 20 20 21 24 20 19 27
31 30 28 27 25 23 22 20 19 21 28 37 47 59 61 59
56 48 37 28 24 20 21 24 25 26 26 25 23 23 28 23
27 26 26 18 18 19 21 21 22 21 21 20 20 13 20 23
18 18 18 19 17 18 19 16 15 17 18 18 29 17 27 45
44 44 44 44 45 44 44 45 44 44 40 35 36 43 5 0
17 19 22 23 26 27 29 28 29 29 29 30 30 29 21 15
13 12 12 13 17 18 19 16 12 21 17 20 23 21 17 21
24 22 23 21 20 22 23 22 21 22 20 20 21 22 18 15
23 27 28 29 28 26 28 25 23 22 19 18 19 20 19 19
19 20 21 23 21 23 26 27 27 27 27 28 26 23 23 26
26 26 24 19 19 19 20 20 22 21 20 18 15 15 21 20
17 18 18 18 17 18 17 16 15 17 17 17 16 10 9 41
45 44 44 44 44 44 44 43 44 44 41 34 35 42 7 0
