P2
128 120
156
37 36 36 35 34 33 33 33 33 32 31 31 30 30 29 29
28 27 27 26 26 25 25 24 24 24 23 22 22 21 21 21
19 18 16 14 13 14 18 19 20 21 18 10 23 26 24 22
21 21 20 18 16 14 10 10 10 10 14 16 16 17 10 12
18 20 20 21 21 22 23 23 23 23 25 24 25 26 26 26
27 27 28 28 29 29 29 30 30 30 31 31 32 33 33 35
35 35 36 37 36 37 38 38 38 38 40 38 39 39 40 40
41 41 41 41 40 41 41 41 41 41 40 41 42 41 42 42
36 36 35 34 34 34 33 33 32 31 31 30 30 30 29 28
28 27 27 26 26 25 25 25 24 23 23 23 23 22 22 21
20 18 16 15 15 15 19 20 22 23 18 10 23 27 24 22
22 21 20 20 18 16 14 12 13 11 16 18 17 16 15 19
20 21 22 22 23 23 23 23 24 24 25 25 26 26 27 27
28 28 29 29 29 30 30 30 31 32 32 32 34 35 35 35
36 37 36 36 37 38 38 38 38 39 41 39 39 39 40 40
41 41 41 41 41 40 41 40 41 41 41 41 42 41 42 42
37 36 36 35 34 34 33 33 33 32 31 31 30 29 29 29
28 28 27 27 27 26 25 25 25 24 24 23 23 23 22 22
21 19 18 16 16 16 21 23 24 25 19 9 22 28 25 23
22 21 21 21 20 17 16 17 14 11 14 17 19 17 19 21
22 22 23 24 24 25 25 25 26 26 26 26 27 28 28 28
29 29 30 29 29 30 31 31 33 34 34 34 34 36 36 36
36 37 37 38 37 38 39 39 39 39 40 39 40 40 40 40
40 40 41 41 41 41 42 41 41 41 41 42 41 41 41 40
37 36 36 35 35 34 34 33 33 32 31 31 31 30 30 29
28 29 28 27 27 26 25 25 25 24 24 24 24 23 23 22
21 20 19 18 18 19 24 24 26 26 20 10 22 29 25 24
24 23 22 21 21 18 18 19 17 13 13 19 17 19 20 22
23 24 24 25 26 25 26 26 27 26 27 28 28 29 29 29
29 29 29 30 32 33 32 33 34 36 34 35 35 36 36 37
37 38 37 38 38 38 39 40 40 40 42 40 40 40 40 41
41 41 41 41 41 41 41 43 41 40 40 40 41 41 42 43
37 36 36 35 35 34 34 33 34 33 32 32 31 31 30 29
30 29 28 28 27 27 27 26 25 25 25 24 24 23 23 23
22 22 20 19 19 20 25 26 27 27 21 11 22 29 26 26
25 24 23 22 21 18 19 20 19 14 12 21 17 19 22 24
24 25 25 26 27 27 27 28 28 28 28 29 28 29 29 30
30 31 31 32 32 32 34 34 35 37 35 36 36 37 37 37
37 38 38 38 39 39 38 39 40 40 42 40 40 40 41 41
42 42 41 42 42 41 40 41 40 43 43 42 42 42 43 42
37 36 36 35 35 34 34 34 34 33 32 32 31 31 30 30
29 28 28 27 28 27 27 26 25 26 25 25 25 24 23 23
23 22 22 21 21 21 27 26 27 27 21 11 21 29 26 26
25 25 24 23 22 19 21 21 20 17 12 21 19 21 24 25
25 26 26 27 28 28 29 29 28 28 28 28 29 30 30 31
31 32 32 32 34 33 34 35 35 36 35 36 37 37 37 37
38 38 38 39 40 40 39 40 40 40 42 39 41 41 41 41
40 39 39 40 41 42 42 41 42 43 42 42 42 42 42 43
37 37 36 36 35 35 34 34 34 33 33 32 32 31 30 31
30 29 29 28 28 27 27 26 26 26 25 25 25 25 24 23
24 23 22 23 23 23 27 28 28 28 21 13 21 30 27 26
26 25 24 23 23 21 22 22 21 18 14 20 21 24 26 26
27 27 27 28 28 28 28 28 29 30 30 30 31 31 31 31
32 32 33 33 33 34 34 35 35 37 36 37 37 38 38 38
39 39 39 39 39 40 40 40 41 41 42 40 40 39 39 40
41 42 42 41 41 42 42 42 42 42 42 42 42 42 43 42
37 37 37 37 36 35 35 35 34 33 33 32 32 31 31 30
30 30 29 29 28 28 27 27 27 27 26 25 25 25 24 24
24 23 23 23 24 24 29 29 30 29 22 15 19 30 27 26
27 26 26 25 24 23 23 23 22 20 16 21 22 25 27 27
27 27 27 28 28 30 29 30 30 31 31 31 31 32 32 33
33 33 34 33 34 35 35 35 36 37 36 37 37 38 38 39
38 39 39 40 40 40 41 40 40 39 39 40 40 43 42 41
41 41 41 42 41 42 42 42 42 42 42 42 42 42 42 43
38 37 37 36 36 35 35 35 34 34 34 33 33 32 32 31
30 30 30 29 28 28 28 27 27 27 26 26 25 25 24 25
25 24 24 24 25 25 30 29 30 30 22 18 19 31 28 27
27 27 26 26 26 26 24 23 23 21 16 22 24 26 27 27
27 28 28 29 30 30 30 31 31 31 32 31 32 33 32 32
33 34 34 35 35 35 36 36 36 38 37 38 38 38 39 38
39 37 40 40 39 38 39 39 41 41 42 41 42 41 42 41
41 41 42 43 41 42 43 42 43 43 43 42 42 41 42 42
38 37 37 37 36 35 35 35 34 34 33 32 32 32 32 31
30 30 30 29 29 29 29 28 27 27 27 26 26 26 25 25
25 25 24 24 25 26 30 30 30 29 23 19 17 30 28 27
27 27 26 26 26 25 23 23 23 22 19 23 23 26 28 28
28 29 29 29 30 30 30 31 31 32 32 33 32 33 34 33
34 34 35 35 35 36 36 37 37 39 37 38 38 39 39 39
39 38 37 39 39 41 41 41 41 41 41 41 41 42 41 42
41 42 42 43 42 42 42 42 42 43 42 43 43 43 42 42
38 38 37 37 36 36 36 36 35 34 34 33 33 33 32 31
31 31 30 30 29 29 29 28 28 27 27 27 27 26 26 25
25 26 25 25 26 27 31 30 31 31 24 20 17 31 29 27
27 28 27 26 26 26 24 25 25 23 21 26 26 28 29 29
30 30 30 31 31 31 31 31 32 32 32 32 33 33 33 34
34 34 35 35 36 36 37 37 38 39 38 38 38 37 37 37
39 40 41 40 41 40 41 41 41 41 41 41 42 42 42 42
42 42 42 43 42 43 42 43 43 43 43 43 44 43 43 42
38 38 37 37 36 36 36 35 35 35 34 34 33 32 32 32
32 31 31 30 30 29 29 28 29 28 28 27 27 26 27 25
25 25 25 26 26 27 31 31 31 31 23 20 16 30 30 27
27 28 28 27 26 27 25 25 25 24 22 25 27 29 30 30
30 30 30 31 31 32 32 32 33 33 34 33 34 34 34 35
34 35 35 36 36 36 36 37 37 36 35 36 37 38 40 40
40 41 42 42 42 41 42 42 41 42 41 42 42 42 41 42
42 42 43 42 42 43 43 42 43 43 44 43 43 43 43 42
38 38 38 37 37 37 36 35 35 35 35 34 34 33 33 32
32 32 32 31 30 30 29 29 29 28 28 27 27 27 26 26
26 25 26 26 27 27 32 32 32 32 26 20 9 25 31 29
29 29 28 28 28 29 26 26 26 25 21 27 29 30 31 30
31 31 31 31 32 32 32 32 33 34 33 33 34 34 35 35
35 36 36 36 37 36 35 35 35 37 39 39 40 40 40 41
40 41 42 41 41 41 41 42 42 42 42 42 42 42 43 42
43 43 42 42 43 43 43 43 43 43 42 42 43 43 43 42
39 39 38 37 37 37 35 35 35 35 35 34 34 33 33 32
32 32 32 31 31 30 30 30 29 29 28 29 28 27 27 27
27 26 26 26 27 28 32 32 33 32 24 18 14 30 32 30
30 30 30 29 28 29 26 27 27 26 22 28 29 31 31 31
31 32 32 32 33 33 33 33 34 34 34 34 35 34 35 36
36 36 35 35 35 37 38 38 39 39 40 39 41 41 40 40
42 41 43 41 41 42 41 41 42 42 42 42 42 42 42 42
43 43 43 42 43 42 43 43 43 42 44 43 44 43 44 43
39 39 38 38 37 37 36 36 35 35 35 34 34 34 33 33
33 32 31 32 31 30 30 30 29 29 29 28 28 28 27 27
26 26 27 27 28 29 32 33 33 33 24 21 21 28 33 30
30 30 29 30 28 30 27 28 28 27 23 29 30 32 32 32
32 32 33 33 33 33 34 34 34 35 34 35 35 35 35 35
35 36 36 37 37 37 38 38 39 39 40 40 40 41 40 41
42 41 43 42 42 42 42 43 42 42 42 42 42 43 43 42
43 43 42 42 42 42 43 44 43 43 44 44 44 44 43 42
39 39 38 38 38 37 37 36 36 35 36 35 34 34 34 33
33 32 32 32 31 30 31 30 30 30 29 29 28 28 28 27
27 27 27 27 29 29 33 33 34 33 25 22 24 28 33 32
31 30 30 29 29 31 28 28 28 27 23 30 30 32 32 32
33 33 33 34 34 34 34 34 35 35 35 35 34 35 36 36
37 38 37 38 37 38 39 39 39 39 40 40 40 41 41 41
42 42 44 41 42 42 43 42 43 42 42 43 42 43 42 43
43 43 44 43 43 43 44 44 45 44 42 42 43 43 44 45
38 38 38 38 38 37 37 37 36 35 36 35 34 34 34 33
33 33 33 32 32 32 31 31 30 29 30 29 29 28 28 28
27 27 27 27 29 30 34 33 34 33 25 21 26 25 33 32
32 31 31 30 30 31 28 29 29 28 24 31 30 33 32 33
33 33 33 34 34 34 34 34 34 34 35 35 36 36 37 38
38 39 37 38 39 39 39 39 40 39 41 40 40 41 41 41
42 41 42 42 43 42 42 42 43 43 43 43 42 43 43 43
44 44 44 44 43 43 43 43 44 43 44 44 43 43 43 44
39 39 38 38 38 37 37 36 36 36 36 35 35 34 34 34
34 33 33 33 32 32 32 31 31 30 30 30 29 29 28 28
28 27 28 28 29 30 34 34 35 35 26 24 29 24 33 33
32 32 31 30 30 31 29 29 29 29 25 32 32 34 33 34
34 34 34 34 34 34 34 34 35 35 36 36 36 36 38 37
38 39 38 39 39 39 40 40 40 40 41 41 41 42 42 41
43 42 43 42 43 42 43 43 43 43 43 42 43 42 43 42
43 41 42 43 43 43 44 44 43 44 44 44 43 44 43 44
39 39 39 39 38 37 37 37 37 36 36 35 35 35 34 34
34 33 33 33 32 32 32 31 31 30 30 30 30 29 29 29
28 28 28 28 29 31 35 36 35 34 25 23 30 23 33 33
32 33 32 31 31 32 29 30 30 29 26 32 32 34 34 34
34 33 34 34 35 35 35 35 36 36 36 37 37 37 37 38
38 40 39 39 39 39 40 40 40 40 41 41 41 42 42 42
42 42 44 42 43 42 43 43 43 44 43 44 42 42 43 43
43 44 44 43 43 42 43 43 43 43 43 43 44 43 44 43
39 39 39 38 38 37 37 37 37 36 36 35 35 35 35 34
34 34 33 33 33 32 32 32 31 30 30 30 30 29 29 28
29 29 29 29 30 30 35 35 36 35 26 23 32 23 34 34
33 33 32 31 31 32 29 30 29 29 25 32 29 34 34 34
35 35 36 36 36 36 36 36 36 36 36 36 38 38 38 39
38 40 39 39 39 39 40 40 40 41 41 41 42 42 42 42
43 43 43 43 43 43 44 44 43 42 42 42 42 43 42 42
43 44 44 43 44 43 42 43 43 43 43 43 42 43 43 43
39 39 39 39 38 37 38 37 37 37 37 36 36 35 35 35
35 34 34 34 33 33 34 32 32 31 31 31 30 30 30 29
29 28 29 29 30 31 36 36 36 35 27 23 33 22 35 34
34 33 33 32 32 34 29 29 29 30 25 34 32 35 35 35
35 35 36 36 36 36 36 36 36 37 37 38 38 38 39 39
39 40 40 40 40 41 41 41 41 41 42 42 42 42 43 43
43 43 44 43 42 41 43 42 43 44 44 42 43 43 43 43
44 43 43 43 43 44 44 43 43 44 44 44 44 44 43 43
39 40 39 38 38 38 38 37 37 37 37 36 36 36 36 35
35 35 34 34 34 33 33 32 32 32 31 31 31 31 30 30
30 30 29 30 31 32 37 36 37 36 28 23 34 23 35 35
34 34 33 33 33 32 25 29 31 31 27 34 33 36 36 36
37 36 37 36 37 37 37 37 37 38 37 38 38 38 39 39
40 40 40 40 40 41 41 41 40 42 43 42 43 43 43 43
42 42 41 42 44 44 44 44 43 43 44 45 43 43 43 43
44 43 43 43 45 44 44 44 43 44 43 44 44 44 43 44
39 39 39 39 39 38 38 37 37 36 36 36 36 36 35 35
35 34 35 34 34 33 33 33 33 33 32 31 31 31 31 30
31 30 30 31 32 32 37 37 37 36 28 24 35 25 35 34
35 34 34 33 32 26 29 31 32 32 27 34 33 36 37 37
37 36 38 37 37 38 38 38 38 39 39 38 39 40 40 40
40 40 41 41 40 41 42 41 42 42 42 41 41 42 42 42
44 43 44 44 45 43 44 44 44 44 44 46 44 44 44 43
43 44 44 44 44 44 44 44 45 43 43 44 44 44 44 44
40 40 39 39 38 38 38 38 37 38 38 37 36 36 36 36
36 35 35 34 33 34 33 33 33 33 32 32 32 31 31 31
31 31 31 31 32 33 38 37 37 37 29 24 36 26 35 34
36 35 34 32 27 30 30 31 32 31 26 33 32 36 37 37
38 37 39 37 39 38 38 38 38 38 39 39 40 40 41 40
41 42 41 42 41 41 42 41 42 41 41 43 44 43 44 44
44 44 44 45 45 45 45 45 45 45 45 46 43 43 44 44
45 44 44 45 45 44 43 44 45 44 44 44 44 44 44 44
40 40 40 39 39 39 39 39 38 37 38 37 37 37 36 36
36 35 36 35 35 34 34 34 34 34 33 33 32 32 32 32
31 31 32 32 33 34 38 38 38 38 30 26 37 28 34 35
36 36 35 29 26 30 31 31 26 17 12 17 22 34 37 38
38 38 40 38 39 39 39 38 40 39 39 40 41 41 41 41
41 42 40 41 41 41 41 43 42 44 45 44 45 44 45 45
45 45 45 45 45 45 45 45 45 45 45 45 44 45 45 44
45 44 44 45 44 45 44 44 45 45 45 45 45 45 43 45
40 40 40 39 39 38 38 39 38 38 38 37 37 37 37 36
36 36 35 35 35 34 34 34 34 33 33 33 33 32 32 32
31 32 32 32 33 34 38 39 39 38 31 26 36 31 32 36
36 36 33 25 30 29 22 10 10 15 14 21 19 25 31 37
38 39 39 38 39 40 39 39 39 39 40 39 40 41 40 40
41 41 41 42 42 41 43 42 43 43 45 44 44 44 45 44
44 45 45 44 45 45 45 45 45 44 44 46 43 44 44 44
45 44 45 44 44 45 45 44 44 44 45 45 45 45 45 45
40 40 40 40 40 39 39 39 39 38 38 37 37 37 37 36
36 36 36 35 35 35 35 35 34 34 34 33 33 33 32 32
32 32 32 32 33 34 39 39 40 38 31 26 37 33 30 37
37 34 28 26 28 17 9 11 12 18 18 21 20 23 28 36
38 39 40 39 40 40 40 40 40 40 40 40 40 40 41 41
41 42 41 41 42 43 42 43 43 44 45 44 45 45 45 45
46 46 46 45 45 44 45 45 45 45 45 47 46 45 45 45
45 45 45 44 44 45 45 45 46 46 45 44 44 44 45 43
40 40 40 40 39 39 39 39 39 38 38 38 38 37 37 37
37 37 36 36 35 34 35 35 34 34 34 34 34 34 33 32
32 32 32 33 34 34 38 40 39 38 31 26 37 36 29 36
34 29 22 24 15 9 7 8 9 6 6 6 4 10 15 21
28 35 38 39 39 40 39 39 38 38 41 40 41 41 41 41
42 42 43 42 43 43 43 43 44 43 46 44 44 45 45 45
45 46 45 45 45 45 45 45 45 45 44 46 45 45 45 45
45 45 44 45 45 45 44 44 44 44 44 42 41 43 42 42
40 40 40 40 39 39 39 39 39 38 39 38 38 38 37 37
37 36 36 36 36 36 36 35 35 35 34 34 34 33 33 33
33 32 32 32 34 34 39 40 40 39 32 26 37 39 26 32
18 14 11 5 5 2 1 1 0 0 0 0 0 0 0 0
3 14 28 36 38 39 39 39 40 40 42 40 41 41 42 41
42 43 42 43 43 43 44 44 45 45 46 45 44 45 45 45
45 45 44 45 45 45 44 44 46 45 45 46 45 45 45 46
45 45 46 45 45 44 42 43 44 44 43 45 46 44 45 43
41 40 41 40 39 39 39 39 39 38 38 38 38 37 37 38
37 37 37 36 36 36 36 36 35 35 35 35 34 34 33 33
33 33 33 33 34 35 39 40 40 39 32 26 37 38 24 24
25 27 9 0 0 0 0 0 0 0 0 0 0 0 0 0
0 1 5 13 26 37 39 41 40 40 42 41 42 42 42 41
42 43 43 44 44 44 44 44 45 45 45 44 45 45 45 45
45 45 45 45 45 46 46 45 45 45 46 46 46 45 45 46
44 42 44 44 45 45 46 45 45 44 45 43 44 43 43 44
41 40 40 40 40 39 39 39 39 38 39 38 38 37 37 37
37 37 37 36 37 36 36 36 35 35 35 34 34 34 33 33
33 33 33 34 35 35 40 40 41 40 32 26 37 39 24 26
24 23 2 0 0 0 0 0 0 0 0 0 0 0 0 0
0 1 2 3 5 18 37 41 41 42 43 41 42 42 42 42
42 42 44 43 44 45 44 45 45 45 46 45 45 45 45 45
45 45 45 45 45 45 46 45 46 46 46 45 40 41 43 43
44 44 45 45 45 46 43 43 44 43 44 43 44 43 44 42
41 40 40 40 40 40 40 39 39 39 39 38 38 38 37 37
37 37 36 37 36 36 35 35 35 35 35 34 34 34 34 33
33 33 33 33 34 35 41 41 39 40 33 26 38 39 23 24
12 5 0 0 0 0 0 0 0 0 0 0 0 0 0 0
0 0 0 0 2 5 22 39 41 41 43 41 42 42 42 43
42 43 43 44 44 44 44 45 45 44 46 45 45 45 45 46
46 46 45 45 46 45 45 43 42 43 44 44 45 46 45 44
45 43 44 45 45 46 43 44 43 44 43 44 43 43 44 43
40 41 41 40 40 40 40 39 39 39 39 39 38 39 38 38
38 38 37 37 36 36 36 36 36 35 35 35 34 34 34 34
34 33 34 34 35 35 40 41 40 40 33 27 37 38 18 5
0 0 0 0 0 0 0 0 0 0 0 0 0 0 0 0
0 0 0 0 2 3 5 21 39 41 43 42 42 42 42 43
43 43 43 44 44 45 46 45 45 45 46 45 46 46 46 46
46 45 44 43 43 43 44 45 46 45 44 45 45 44 45 45
45 44 44 44 44 45 43 44 44 44 45 45 44 43 43 43
41 41 41 41 40 40 41 39 40 40 40 39 38 38 38 39
38 37 37 37 37 37 36 36 36 36 36 35 35 35 34 34
34 34 34 34 35 36 41 41 40 39 32 25 34 22 4 4
4 0 0 0 0 0 0 0 1 3 3 2 1 0 0 0
0 0 0 0 0 2 4 6 23 39 44 43 43 43 43 43
43 43 44 44 45 45 45 46 46 45 46 45 45 44 44 45
45 45 46 47 45 45 45 45 45 45 45 44 44 44 44 44
44 45 44 44 45 46 44 44 43 43 45 44 42 44 43 43
39 40 41 41 40 40 40 40 40 39 39 39 39 39 39 38
39 38 37 38 38 37 37 36 36 36 35 35 35 35 35 35
34 34 34 34 35 36 41 41 40 41 33 26 17 4 0 0
0 0 0 0 0 5 14 22 30 34 36 35 31 18 7 1
0 0 0 0 0 0 1 2 8 24 42 42 42 43 43 43
43 44 44 44 45 45 45 45 44 44 44 44 44 45 45 44
44 44 45 47 45 45 45 44 45 44 45 44 45 44 45 45
45 44 44 44 44 46 43 44 44 44 44 45 43 44 43 42
49 48 45 44 42 41 40 39 40 40 40 39 39 39 39 38
38 38 38 52 53 48 42 39 38 36 36 36 36 35 36 35
34 35 35 35 36 37 42 41 40 41 33 15 2 0 0 0
0 0 0 8 31 52 60 63 67 69 67 66 68 62 49 32
14 3 0 0 0 0 0 2 2 6 30 43 44 43 43 44
44 44 44 44 45 44 45 44 45 44 45 45 45 45 45 45
45 45 45 46 45 45 46 45 45 44 45 46 45 44 43 45
45 44 44 45 43 45 43 44 44 44 44 45 44 44 43 43
55 53 52 52 47 45 44 40 40 40 40 40 39 39 39 39
38 38 40 54 52 50 47 48 47 41 36 36 36 35 35 35
35 35 34 35 36 37 42 41 42 40 23 4 0 0 0 0
0 0 17 54 79 92 99 99 98 97 97 95 93 92 86 78
60 34 10 1 0 0 0 0 1 1 5 32 43 43 43 43
44 44 45 44 44 45 44 45 45 45 45 44 44 44 45 45
45 44 44 46 45 45 45 45 45 45 44 44 45 45 45 44
45 45 45 43 44 45 44 44 44 44 43 44 44 43 42 44
57 54 53 49 48 49 50 53 44 45 42 40 40 38 38 39
39 39 40 52 51 48 47 48 48 45 37 36 36 36 36 35
35 35 35 36 37 37 42 42 41 27 6 0 0 0 0 0
0 20 61 87 104 110 110 108 106 106 104 103 106 106 102 102
94 77 48 15 3 0 0 0 0 1 1 8 35 42 42 43
44 44 46 44 43 44 45 44 45 45 45 45 44 45 45 44
45 45 44 46 45 45 45 45 45 45 45 44 44 45 44 44
44 44 45 44 44 45 45 45 45 44 44 43 44 45 44 44
55 54 53 50 52 53 55 56 47 50 51 51 46 42 40 40
39 38 39 40 33 39 45 48 48 47 39 37 36 36 36 36
36 36 36 36 37 37 42 41 32 15 4 0 0 0 0 0
21 59 84 100 108 110 109 106 106 105 105 106 105 104 102 103
106 100 88 53 18 3 0 0 0 1 0 2 18 42 43 43
44 44 47 45 45 44 45 45 45 45 44 44 44 44 45 45
45 44 44 47 46 45 45 45 45 45 43 46 45 44 44 44
44 45 44 45 45 45 45 45 44 45 44 45 45 44 44 44
23 8 22 40 50 55 56 54 43 15 26 37 44 49 47 48
48 44 41 35 18 16 14 16 24 33 40 37 37 36 36 36
36 36 36 36 37 37 42 39 26 9 0 0 0 0 0 19
56 79 96 103 103 101 99 98 100 104 107 106 105 101 97 95
96 98 98 89 52 19 3 0 0 0 2 1 7 30 42 44
44 44 46 44 45 45 45 45 45 45 45 44 45 45 45 45
45 45 45 47 46 46 45 45 44 44 44 45 45 45 44 45
44 44 46 46 45 46 45 45 45 45 45 45 45 44 41 41
23 0 0 11 20 21 24 39 40 0 0 0 2 11 19 30
42 46 43 34 13 6 14 14 3 9 43 37 37 37 37 37
37 36 37 37 38 38 40 34 19 3 0 0 0 0 6 50
74 90 98 96 93 96 103 107 110 112 114 113 111 110 108 105
99 93 91 90 79 52 18 3 0 0 1 2 2 25 39 43
44 44 46 44 45 45 44 44 45 45 45 45 45 46 45 44
44 45 45 46 46 45 44 45 44 44 44 44 45 45 45 44
44 45 46 45 46 45 45 45 43 43 43 42 42 43 44 45
25 0 0 7 13 16 17 27 38 0 0 0 0 0 0 0
0 6 41 33 9 6 2 10 1 9 45 37 38 37 37 37
36 37 36 37 38 39 43 30 5 0 0 0 0 0 32 66
85 94 90 87 97 107 116 120 123 126 126 126 126 124 124 119
115 109 101 89 84 79 50 15 0 0 0 1 2 12 39 42
43 44 45 46 45 45 45 45 45 45 45 46 46 45 45 45
45 45 45 47 45 46 45 44 45 45 45 45 45 44 45 45
45 45 45 45 45 44 43 44 45 45 45 44 45 44 44 44
29 0 0 4 5 9 8 26 41 5 0 0 0 0 0 0
0 0 41 30 4 0 0 7 0 8 46 38 38 38 37 37
37 37 37 37 39 37 35 8 0 0 0 0 0 13 51 74
87 81 77 83 78 74 87 111 123 132 137 137 136 132 119 104
88 73 65 68 82 74 75 36 6 0 0 0 1 4 29 43
44 44 45 45 45 45 45 45 45 46 46 45 45 46 45 45
45 45 44 46 45 45 45 45 45 45 44 45 46 45 45 45
46 46 45 45 46 45 45 44 45 45 44 43 44 44 44 46
25 0 0 0 1 0 6 19 38 0 0 0 0 0 0 0
0 0 40 23 0 0 0 1 2 9 47 38 38 38 37 37
37 37 37 37 38 38 21 0 0 0 0 1 1 33 62 75
65 51 43 30 28 38 57 77 107 129 146 143 142 133 110 99
69 48 37 35 41 47 52 56 20 1 1 0 0 3 11 41
45 45 46 45 45 46 45 45 46 46 46 46 46 45 46 46
46 46 45 47 44 46 45 46 46 45 46 45 45 45 47 46
46 46 46 46 45 44 45 45 44 45 44 44 44 45 46 47
22 0 0 0 0 0 1 25 38 0 0 0 0 11 7 0
0 0 40 20 0 0 0 1 1 11 49 38 38 38 38 37
37 38 37 38 39 34 7 0 0 0 0 0 9 48 64 52
26 27 19 27 48 65 87 99 116 134 147 140 146 141 125 116
99 75 58 32 17 15 17 26 27 8 3 0 2 0 3 33
45 45 46 44 45 45 46 46 46 46 46 46 46 46 46 46
46 46 46 45 46 47 46 46 47 46 45 46 45 46 46 46
47 46 45 45 45 45 45 45 45 46 46 45 45 46 46 47
20 0 0 0 0 0 0 28 44 0 0 0 0 14 16 9
3 0 37 20 0 0 0 0 0 6 49 38 39 38 38 38
38 38 38 38 39 33 5 0 0 0 3 4 8 15 18 17
17 16 15 13 17 27 45 82 118 136 145 135 143 144 124 80
43 22 15 13 12 12 15 17 14 10 7 7 1 0 0 17
44 45 46 46 45 46 46 46 47 46 47 45 46 46 46 45
46 45 46 47 46 46 46 46 46 46 45 44 46 47 46 46
46 46 47 46 46 46 47 47 46 47 46 47 47 47 46 44
18 0 2 0 0 0 1 20 46 0 0 0 4 16 17 16
15 1 34 22 0 0 0 0 0 3 50 38 38 38 38 37
38 38 37 38 38 27 2 0 0 2 5 9 13 18 9 3
0 0 0 2 38 35 5 18 49 115 142 141 143 117 44 16
5 1 4 1 0 0 0 1 3 14 19 1 2 0 0 7
41 46 46 47 46 46 46 45 46 47 47 46 47 47 47 46
47 46 46 47 47 46 46 46 46 46 45 45 47 47 47 47
47 47 48 47 47 47 48 47 46 46 45 46 42 41 40 42
16 0 3 0 0 0 4 23 48 0 0 0 1 17 17 16
16 2 32 24 0 0 0 0 0 2 50 38 39 38 38 38
38 38 38 38 36 17 0 0 0 1 1 15 52 67 0 0
0 0 3 72 146 92 3 0 7 33 87 90 85 30 8 0
0 30 123 68 0 0 0 0 0 0 17 5 0 0 0 0
30 45 44 45 45 45 45 46 46 46 47 47 46 47 46 46
46 46 46 46 46 45 45 46 46 46 46 45 45 47 47 47
48 47 46 45 43 41 41 42 43 45 45 42 38 34 29 25
17 1 0 0 0 0 9 23 51 0 0 4 1 4 13 16
14 1 30 38 18 8 1 0 0 1 49 37 39 39 38 38
38 37 38 38 34 7 0 0 0 0 0 21 124 45 0 0
0 1 73 142 61 1 0 0 0 13 16 22 14 11 0 0
15 126 122 24 0 0 0 0 0 0 0 5 0 0 0 0
9 43 44 45 45 45 46 46 46 46 46 48 46 47 47 47
46 47 47 46 46 46 47 46 47 46 46 47 46 46 43 44
44 44 46 45 42 40 36 32 29 25 21 19 19 19 19 22
26 3 1 3 1 0 6 31 57 27 18 9 4 0 0 7
13 0 29 51 51 47 47 41 36 36 52 38 39 38 38 38
38 38 38 39 32 2 0 0 0 0 0 28 116 5 0 0
0 15 93 30 0 0 0 0 0 17 33 54 32 10 0 0
62 92 11 0 0 0 0 0 0 0 0 8 1 0 0 0
0 29 45 46 46 46 47 47 47 47 47 48 46 47 47 46
46 47 47 46 47 47 45 45 44 44 41 44 48 47 42 41
38 32 29 24 22 20 20 19 19 22 24 24 25 26 27 27
51 54 40 34 31 21 8 20 65 37 40 44 45 40 31 21
14 7 30 53 52 49 49 51 58 60 57 38 39 39 39 39
38 38 38 39 27 0 0 0 0 0 0 40 104 0 0 0
0 0 1 0 0 0 0 0 2 22 74 114 85 13 0 0
7 4 0 0 0 0 0 0 0 0 0 11 9 0 0 0
0 14 44 46 47 47 47 47 47 47 48 49 47 47 46 45
44 43 43 43 43 43 43 45 43 40 37 33 28 25 23 21
20 21 21 24 25 26 28 10 25 30 30 30 31 32 32 33
55 60 47 54 56 60 59 61 63 19 17 19 20 21 25 30
38 45 55 47 44 48 50 55 60 62 59 39 40 39 40 39
39 39 39 40 22 0 0 0 0 0 2 26 51 0 0 0
0 0 0 0 16 17 0 0 8 33 93 112 107 31 3 0
0 0 0 3 1 0 0 0 0 0 1 9 13 0 0 1
0 1 37 47 47 47 48 48 47 47 46 47 44 46 45 46
45 46 45 42 38 34 31 26 25 25 23 24 26 27 28 29
29 30 31 32 32 33 34 24 18 36 36 35 37 32 33 38
58 51 51 59 61 66 62 49 44 20 19 19 18 18 17 16
15 14 14 16 21 28 33 42 40 39 41 39 41 40 40 39
40 39 40 40 27 2 0 0 0 0 8 4 1 0 0 9
9 0 0 15 19 0 0 0 19 54 92 107 102 56 11 3
0 0 14 33 4 0 0 0 0 0 4 15 13 0 0 0
0 0 27 47 47 48 47 48 47 47 48 47 45 42 46 44
32 27 26 26 26 26 27 30 31 30 31 32 32 34 34 35
36 36 38 28 29 39 39 38 12 41 41 39 39 23 39 39
53 40 51 57 60 64 65 55 46 25 21 20 18 17 15 15
14 13 13 13 14 13 15 39 42 38 37 39 41 41 40 40
40 40 40 41 30 1 0 0 0 0 7 3 0 0 0 26
4 0 0 1 3 2 2 7 34 73 106 120 113 82 23 8
0 0 25 4 2 2 1 1 0 0 5 32 43 0 0 1
0 0 22 49 48 47 45 42 37 33 31 28 27 26 37 50
24 28 31 32 33 33 35 35 36 37 37 38 40 40 40 41
42 41 42 42 36 30 42 43 19 33 44 38 37 23 43 24
56 29 44 54 56 61 63 56 49 28 22 20 17 14 15 15
16 15 15 16 17 17 20 41 14 28 41 40 41 40 40 40
40 40 40 41 28 0 0 0 0 0 29 12 0 0 0 4
3 1 0 1 6 10 10 27 52 97 131 137 133 114 58 17
1 0 0 5 13 16 9 8 6 3 9 46 74 11 0 1
0 0 13 36 32 29 28 28 29 29 31 34 33 32 32 38
26 34 37 38 39 39 41 40 41 41 42 42 42 41 42 43
43 41 43 44 44 38 30 41 37 17 44 41 31 27 38 25
50 2 2 6 13 24 31 33 47 30 20 17 11 4 5 6
14 17 18 16 18 20 24 42 32 29 50 46 45 32 14 36
41 40 40 41 28 0 0 0 0 3 57 34 2 0 2 14
7 4 1 2 7 13 25 45 75 122 144 147 145 134 96 45
19 1 1 9 13 15 19 15 10 7 17 69 82 33 0 0
0 0 5 27 31 32 34 35 35 36 36 38 38 39 38 50
31 38 41 42 42 43 44 44 44 43 43 44 44 44 43 43
44 44 41 43 45 46 38 28 39 12 41 43 26 31 21 39
46 1 0 0 0 1 12 20 47 30 18 16 8 0 0 0
7 13 12 5 9 15 17 42 52 44 46 48 50 45 27 37
41 40 40 41 23 0 0 0 0 16 68 65 17 4 3 3
5 5 2 4 9 23 45 73 111 134 148 150 149 142 124 87
45 23 10 11 19 22 22 14 12 10 39 89 84 55 0 0
0 0 2 27 37 38 39 40 41 42 42 43 43 41 36 41
31 41 43 43 43 44 46 46 46 46 47 46 45 45 45 45
42 43 44 44 45 46 45 37 28 22 24 37 21 21 35 39
42 0 0 0 0 4 0 11 51 29 16 15 11 0 0 4
1 0 0 0 0 3 5 41 52 33 33 27 32 40 42 41
40 40 40 41 15 0 0 0 0 31 70 74 62 23 16 19
17 14 15 21 33 59 90 108 135 130 137 146 144 135 141 123
104 77 43 31 38 51 43 30 27 43 87 88 84 67 6 0
0 0 1 26 41 42 43 44 45 44 45 44 43 42 19 14
14 42 46 46 46 46 45 45 46 45 46 46 46 46 45 46
45 42 44 42 45 45 46 44 36 23 3 2 2 19 46 37
40 0 0 0 0 3 0 0 50 24 15 6 0 0 0 14
8 2 2 0 0 0 3 40 54 35 25 40 38 34 37 41
40 40 40 40 21 0 0 0 0 44 70 73 82 86 60 45
43 49 59 78 111 120 99 121 82 46 95 130 123 67 81 137
116 131 134 115 96 86 83 80 92 109 103 89 82 69 12 0
0 2 1 23 44 45 44 45 45 45 46 46 45 43 17 12
8 40 45 46 47 46 46 45 47 46 45 46 46 47 46 46
45 45 42 42 41 44 46 45 43 33 5 0 4 33 42 36
39 0 0 0 0 1 0 1 54 12 1 0 0 0 1 10
14 6 0 0 0 0 1 40 55 33 16 40 38 31 37 40
41 40 41 41 32 2 0 0 2 52 69 74 90 104 112 119
128 133 138 142 145 122 99 117 52 22 75 108 106 47 22 111
123 122 148 147 145 143 140 137 129 121 110 94 82 69 13 0
0 3 1 21 46 46 46 46 47 33 21 12 13 44 12 15
7 38 45 46 48 45 46 47 46 45 46 46 46 45 46 46
44 45 45 41 40 42 44 44 40 41 21 0 12 37 30 32
37 0 0 0 0 0 0 2 55 14 0 0 0 0 2 3
22 15 9 3 1 0 1 39 55 35 10 25 22 25 37 40
41 40 41 41 36 5 0 0 3 56 70 79 100 113 122 134
141 146 148 148 149 132 96 122 115 118 121 118 128 122 110 113
118 122 148 148 148 147 145 143 133 118 110 96 80 68 14 0
0 1 2 25 46 46 46 47 44 12 6 13 24 37 12 1
4 38 45 46 47 45 46 45 46 46 45 46 45 45 46 45
44 44 45 43 40 39 39 39 39 42 28 0 11 35 27 30
27 0 0 0 0 0 0 6 55 9 0 0 0 0 5 14
18 17 21 4 0 1 1 39 55 36 25 29 30 24 35 39
41 40 41 41 37 6 0 0 4 57 71 82 102 114 127 137
147 150 150 149 149 141 103 101 114 117 127 135 137 126 118 114
106 129 147 147 148 147 147 145 134 119 108 98 80 68 15 0
0 0 1 23 46 47 47 47 46 44 44 45 45 42 17 6
6 37 44 45 47 45 46 46 46 46 46 46 46 45 45 46
44 44 44 45 43 40 39 39 40 43 32 0 10 38 28 32
25 0 0 0 7 1 0 1 53 7 0 0 0 0 10 27
26 18 15 4 0 2 3 36 55 40 31 24 8 17 33 38
41 41 41 41 38 9 1 0 4 55 71 83 101 114 129 141
149 150 150 149 149 136 114 106 112 116 119 124 127 123 115 112
116 131 144 146 148 147 147 145 132 119 108 99 80 68 15 0
0 0 1 20 46 48 48 48 47 46 46 44 44 41 26 1
7 37 44 46 46 45 46 46 45 45 45 45 45 45 45 45
44 44 44 44 44 43 38 38 41 44 34 0 5 38 28 30
24 0 0 6 21 10 0 2 54 5 0 0 0 0 3 6
29 5 1 1 1 2 2 33 55 42 31 17 10 9 32 38
41 41 41 41 38 11 0 0 5 55 71 82 98 113 130 143
149 150 150 149 146 127 111 108 109 112 114 114 114 116 114 113
117 127 141 145 148 148 148 146 134 120 109 99 82 68 15 0
0 0 2 21 45 48 47 47 47 46 47 45 44 42 33 2
14 40 46 46 48 46 46 46 45 45 45 44 45 45 46 45
44 44 44 44 44 42 38 38 41 43 35 0 5 39 29 28
23 0 0 19 24 14 3 3 53 3 2 0 0 1 1 0
21 2 0 0 0 0 0 30 55 39 17 9 2 4 31 39
41 41 42 42 41 22 17 0 6 53 70 80 95 112 129 140
148 148 150 149 139 118 105 109 110 113 118 112 112 118 115 112
112 117 134 143 148 148 148 145 133 119 107 98 82 67 16 0
3 2 2 28 47 48 47 47 47 46 46 45 43 41 35 27
32 42 46 46 48 46 46 45 46 45 46 45 46 46 46 45
45 45 45 44 43 43 38 34 39 43 37 1 3 26 19 16
27 12 8 21 18 19 7 2 52 3 5 0 1 0 0 0
21 7 0 0 0 0 0 25 55 35 10 14 0 5 31 37
41 41 42 42 40 39 30 1 9 50 66 78 93 112 128 136
146 144 148 142 129 108 111 113 105 104 107 108 108 108 102 107
113 113 120 133 145 148 148 146 132 118 107 98 81 64 21 4
8 19 3 41 47 48 47 46 47 46 46 46 44 40 37 37
38 44 47 46 47 46 46 46 45 45 45 45 46 46 45 45
45 45 45 44 44 44 38 34 23 23 24 2 0 30 29 28
35 49 49 54 51 49 48 45 56 3 0 0 0 0 0 1
22 6 0 2 0 0 0 17 56 28 9 9 2 15 34 36
42 42 42 42 38 57 61 37 29 47 62 73 90 110 125 134
139 143 143 132 115 111 110 94 100 121 136 136 135 132 116 99
101 115 118 123 137 147 148 146 130 116 107 95 77 57 29 35
43 46 7 45 47 47 47 47 47 46 46 45 45 41 40 40
44 46 46 46 46 47 46 46 46 46 46 46 45 46 46 45
46 45 44 43 43 42 37 35 35 36 38 3 0 30 30 28
33 49 50 55 52 53 58 63 60 17 9 17 2 0 0 3
23 10 3 4 2 0 0 10 52 27 7 2 4 4 29 34
42 41 42 42 36 66 91 85 53 42 58 69 85 105 121 128
134 140 138 121 118 119 93 100 128 140 141 138 140 144 140 124
102 98 122 125 127 146 147 142 127 114 105 91 72 50 54 92
89 66 20 45 47 47 47 47 47 46 45 44 44 42 42 42
47 46 46 46 47 47 47 47 47 46 45 44 45 44 45 45
45 44 44 43 43 42 36 33 36 38 36 3 0 25 29 27
31 51 51 53 52 52 63 65 64 43 41 41 39 34 31 31
34 23 22 17 16 15 14 22 45 32 15 12 19 5 12 33
42 41 41 42 35 71 95 94 79 39 54 65 80 100 114 122
130 137 134 120 122 101 104 117 134 137 133 133 136 142 141 136
124 106 106 127 130 143 146 142 125 112 103 90 67 48 75 105
102 70 36 47 46 47 47 47 46 44 45 45 44 43 44 44
45 45 44 45 44 45 45 45 45 45 44 45 45 45 45 45
44 43 43 39 39 39 36 32 33 36 37 8 0 26 30 26
31 41 43 46 46 46 51 49 50 43 44 45 44 42 42 43
43 40 38 33 32 30 30 33 46 43 29 27 21 15 19 30
42 41 41 41 34 70 93 106 87 42 53 62 75 95 108 117
125 134 134 126 110 108 116 124 129 131 132 130 131 133 136 137
132 123 115 117 134 144 142 138 121 110 100 85 61 48 83 118
103 75 45 47 47 48 48 47 47 45 45 46 45 43 43 45
45 45 45 46 46 46 46 45 45 45 45 45 45 43 45 44
44 43 43 42 42 41 37 32 33 37 36 10 0 21 30 26
33 45 43 44 45 45 44 39 39 44 45 46 47 43 44 45
44 43 42 46 45 41 38 39 47 58 54 53 51 47 42 35
41 41 41 40 33 61 91 107 88 48 48 58 70 88 101 110
120 128 133 123 113 118 120 125 127 131 139 136 134 138 131 134
132 129 128 123 130 141 138 133 117 109 97 81 60 49 89 112
103 73 45 46 46 46 46 45 46 45 46 45 46 44 46 47
46 45 46 46 46 46 45 45 46 45 45 45 44 44 45 44
44 43 42 42 41 40 36 31 32 36 34 11 0 16 30 25
33 50 43 43 43 43 44 44 46 48 45 49 52 55 53 45
45 45 43 55 56 53 50 50 50 45 42 42 43 45 45 40
41 41 41 41 36 48 88 96 92 61 44 54 65 82 96 106
116 121 126 120 123 124 125 126 130 141 146 140 138 143 139 135
134 133 134 131 128 135 136 130 115 109 94 76 55 55 104 105
100 67 46 47 46 47 47 47 47 46 46 46 46 45 47 47
46 45 46 47 46 46 45 46 46 45 45 44 44 43 44 43
43 42 41 41 41 40 36 31 30 34 33 12 0 14 28 25
58 53 46 47 46 46 47 50 53 55 47 50 53 61 54 47
39 39 45 58 55 53 50 51 50 44 36 30 30 30 29 35
41 41 41 41 33 44 75 92 90 78 42 50 61 73 91 103
111 115 115 118 129 130 128 132 138 142 140 136 141 145 145 141
139 138 136 131 122 124 129 126 114 104 89 73 52 74 105 100
95 57 46 47 46 46 46 46 46 46 46 45 47 46 46 46
46 45 45 45 46 46 46 45 44 45 44 44 44 44 44 43
42 42 41 40 39 38 34 28 28 32 32 14 0 13 28 24
62 57 50 41 46 44 44 52 57 59 47 51 52 51 50 50
46 37 36 55 54 52 52 54 51 48 43 36 36 35 36 38
41 41 41 40 33 45 68 92 84 79 46 47 59 67 85 99
106 107 106 116 128 130 133 138 141 140 139 139 140 142 145 143
138 141 141 133 122 116 122 122 113 101 84 69 51 79 96 103
93 49 47 47 46 46 46 46 45 45 45 45 47 45 46 45
46 46 46 45 45 46 46 45 44 45 44 44 44 43 44 42
41 41 40 39 38 36 34 27 27 33 31 17 0 8 27 25
63 53 11 24 13 14 17 23 35 58 49 48 29 30 37 38
37 39 39 38 13 11 15 25 31 34 47 42 39 40 43 43
45 44 41 39 35 44 61 90 86 100 57 44 55 64 78 94
103 101 97 110 123 126 130 136 140 139 141 145 139 136 143 144
136 140 143 134 119 111 117 118 111 94 78 65 56 107 98 97
82 45 46 46 45 46 46 45 45 45 45 45 47 46 46 46
46 45 46 46 45 45 45 45 45 44 44 43 43 42 43 42
40 41 39 38 37 36 33 27 25 31 31 17 0 7 28 26
36 38 1 0 0 0 0 0 4 54 49 32 1 1 4 9
12 27 44 37 4 0 0 1 11 16 43 38 41 42 48 50
53 50 42 37 38 44 48 75 86 101 51 38 49 59 69 86
96 93 88 102 113 119 125 133 137 140 138 139 141 145 146 143
139 137 137 129 116 109 113 114 105 87 75 58 52 109 101 88
55 44 46 46 46 45 40 38 36 32 29 24 31 43 47 47
46 45 45 46 45 45 45 44 44 44 43 42 43 42 43 41
40 39 39 37 37 36 34 26 25 30 30 19 0 6 28 28
39 38 10 6 0 0 0 3 12 53 46 11 0 0 0 1
7 34 45 40 1 0 0 0 8 19 35 1 5 9 10 11
32 52 42 36 40 45 46 52 75 70 8 29 44 55 61 73
87 86 79 88 102 111 117 125 133 138 130 128 135 138 140 140
133 129 126 119 109 106 110 108 96 79 69 48 9 64 91 51
34 39 46 46 46 45 23 11 12 11 12 12 18 44 48 47
47 45 46 46 46 46 45 44 44 44 43 43 42 42 43 41
39 39 38 37 36 35 33 27 24 28 30 21 0 5 27 27
47 41 5 3 0 0 0 3 23 54 41 3 0 0 0 0
0 31 45 41 2 0 0 0 5 16 36 0 5 13 4 0
22 54 43 36 42 45 46 48 32 7 0 16 38 49 53 62
75 76 72 74 87 100 109 118 123 126 128 121 123 123 126 124
122 118 112 107 103 103 105 101 86 71 64 30 0 3 15 9
8 17 46 46 46 46 24 12 12 12 13 12 17 45 47 47
48 46 46 46 47 45 44 45 44 44 44 43 42 41 42 40
39 39 39 36 36 34 33 25 23 27 30 23 0 2 23 20
49 44 5 8 0 0 2 3 2 48 33 0 0 0 0 1
0 30 44 39 3 0 0 0 3 14 38 0 8 16 10 0
19 53 42 35 42 44 46 48 27 0 0 6 34 41 46 51
61 67 64 63 70 85 99 107 110 110 115 113 111 114 113 112
112 107 100 99 97 98 98 90 75 66 55 10 0 0 0 7
7 14 44 46 46 45 22 12 13 13 12 12 16 44 48 47
48 48 47 47 46 45 45 44 44 44 44 43 42 41 40 41
40 38 37 36 35 32 31 24 20 24 27 22 0 2 25 27
49 47 3 0 0 0 4 12 2 46 30 0 0 0 0 0
0 31 43 37 3 0 0 0 1 9 40 0 3 5 1 0
17 53 43 35 43 44 46 48 35 2 0 0 31 33 41 42
48 53 55 55 59 69 86 96 99 96 99 98 92 95 98 96
99 93 90 91 86 87 86 75 62 62 40 1 0 0 1 8
7 11 43 45 45 45 20 12 12 13 12 12 13 40 48 48
48 48 47 47 47 45 45 45 44 43 41 40 39 40 40 40
39 38 36 35 34 34 32 24 21 23 27 23 0 1 24 25
37 52 19 4 0 0 2 4 0 43 28 0 0 0 0 0
0 31 45 34 2 0 0 0 0 2 43 2 10 13 8 0
16 53 42 35 43 44 46 48 42 10 0 0 23 34 36 37
38 41 45 46 46 52 64 73 77 78 78 81 79 78 80 78
80 80 80 75 71 72 69 58 56 53 23 0 0 0 3 8
7 12 43 46 46 46 24 12 12 13 13 12 12 40 48 48
46 45 45 45 44 43 43 44 44 44 44 43 42 42 41 39
37 36 35 34 33 31 29 24 22 24 27 25 1 0 23 25
33 54 19 3 0 0 6 12 3 41 27 0 0 0 0 0
0 22 47 36 13 0 0 0 0 3 46 4 1 2 2 0
14 53 42 36 43 44 46 48 45 23 0 0 15 39 33 36
34 34 35 37 37 39 43 49 56 63 69 72 71 70 68 65
63 62 59 55 53 52 50 48 50 42 18 0 0 0 4 8
7 12 44 46 46 46 29 17 18 20 21 23 21 34 45 46
47 46 47 47 47 46 43 44 43 44 44 42 41 40 40 38
36 35 34 33 32 30 30 23 20 23 27 25 2 0 21 25
29 52 5 0 0 0 0 0 0 42 28 0 0 1 0 0
0 18 49 36 4 0 0 0 0 0 45 7 0 2 0 0
12 50 41 37 43 45 47 49 47 38 4 0 8 43 42 35
37 37 37 37 37 37 37 41 49 59 68 73 73 71 68 64
58 53 46 44 46 46 47 48 44 43 13 0 0 1 7 8
6 11 42 46 46 46 33 20 21 19 17 16 25 44 27 26
44 48 47 46 46 46 45 44 44 44 44 42 41 40 39 37
36 34 33 32 31 30 30 23 20 22 27 26 3 0 19 26
24 46 3 0 0 0 0 1 0 39 33 0 0 0 0 0
0 14 50 36 4 0 0 0 0 0 42 13 0 0 0 0
14 48 39 37 43 44 45 48 47 38 14 0 4 43 49 45
43 44 47 49 50 49 46 46 52 61 70 76 75 72 70 66
61 57 57 62 61 60 60 57 54 55 11 0 0 4 8 9
7 10 41 45 47 45 31 13 14 13 2 0 8 15 22 1
31 47 47 46 46 46 45 44 43 43 43 41 41 39 38 37
35 34 32 30 30 29 28 22 18 21 26 26 3 0 17 26
20 44 3 0 0 0 0 16 1 36 42 0 0 0 4 0
1 12 52 37 29 23 21 19 21 21 49 17 0 0 0 0
14 47 38 37 42 44 46 48 42 40 30 0 0 41 52 54
52 52 53 57 59 58 54 53 58 67 76 81 83 81 76 71
68 69 74 79 77 73 70 71 67 60 9 0 0 7 7 9
6 9 40 46 48 45 32 12 13 14 9 2 12 26 30 3
30 47 46 46 45 45 44 44 43 42 42 41 40 38 37 35
34 33 32 31 30 30 28 23 19 21 25 26 5 0 16 25
12 45 34 32 26 27 35 46 37 46 50 52 50 47 50 49
50 51 56 38 44 49 52 54 59 64 64 43 32 30 28 27
31 43 38 34 41 43 46 45 40 45 32 1 0 35 56 61
62 61 62 64 69 69 66 62 63 70 81 86 89 87 85 82
82 84 88 89 85 83 83 83 75 61 7 0 4 9 8 9
6 8 40 44 47 44 34 12 12 14 9 2 4 2 0 1
28 46 46 46 45 45 44 44 43 42 42 41 40 39 37 35
33 31 32 30 29 28 26 23 18 20 24 25 8 0 14 25
4 46 46 48 42 46 57 58 52 49 46 62 59 54 54 57
61 61 60 39 40 48 51 55 61 66 66 51 39 39 40 40
42 40 38 34 40 42 44 41 45 45 40 7 0 29 60 67
71 72 74 76 76 78 81 80 75 77 87 93 96 97 97 96
97 97 94 95 93 91 95 90 79 62 7 0 8 8 7 10
6 7 38 44 47 44 34 11 12 12 9 7 8 6 0 0
26 45 37 33 44 44 44 42 43 41 41 40 38 36 36 34
32 31 29 29 28 27 26 22 18 18 24 25 8 0 10 24
3 45 46 41 41 47 55 58 50 41 37 53 56 56 55 55
56 56 56 42 32 38 44 47 52 51 49 45 38 39 39 38
37 37 38 37 35 38 37 44 46 45 44 22 0 23 67 77
82 80 82 86 83 83 87 90 91 91 94 99 104 105 105 104
105 99 99 99 98 97 101 94 85 65 5 0 2 8 8 11
5 7 37 44 46 43 34 10 12 7 2 12 1 0 0 0
16 14 17 17 11 44 43 42 42 41 40 38 37 36 34 33
31 31 30 28 27 27 26 23 17 17 23 24 8 0 9 24
1 43 35 32 32 35 45 58 52 45 40 28 31 30 29 29
30 30 33 35 34 37 40 40 38 33 32 37 39 40 40 39
39 39 39 38 39 39 42 47 45 44 44 31 3 16 72 83
89 88 89 94 93 90 93 98 103 106 108 111 112 114 114 112
111 105 104 106 103 103 106 96 87 66 4 1 4 7 7 11
5 6 35 43 46 45 34 9 11 5 41 64 32 0 1 0
16 39 45 44 16 33 43 41 41 41 40 38 37 36 34 32
30 29 28 28 27 27 26 23 17 17 23 24 10 0 8 24
4 42 28 21 28 31 40 49 48 44 42 30 30 30 33 36
35 34 37 40 41 43 46 45 43 38 36 37 39 39 40 40
39 39 38 38 39 41 44 47 45 44 39 33 22 11 72 90
93 93 96 100 99 94 97 106 113 121 121 125 125 125 124 123
120 113 110 109 106 107 106 101 90 66 5 7 7 6 6 10
5 6 34 43 46 43 35 10 10 7 39 50 48 0 0 6
44 45 45 44 29 21 43 42 41 40 39 38 36 34 32 30
29 28 28 27 27 26 25 23 17 16 23 23 12 0 7 24
24 42 20 0 0 0 2 8 12 16 45 35 43 42 43 53
53 44 42 45 45 48 54 54 53 40 38 37 39 39 39 39
39 38 38 38 39 41 43 47 46 40 33 32 31 25 71 93
97 98 100 104 104 96 98 108 119 131 135 138 137 135 137 132
123 115 111 110 109 110 108 103 93 69 8 7 7 6 6 9
5 5 32 43 44 44 35 9 8 7 26 6 26 0 0 5
45 45 44 43 35 17 42 41 41 40 39 37 34 33 32 31
29 28 28 27 27 26 25 23 17 17 22 24 14 0 4 24
45 47 22 0 0 0 0 0 6 20 49 37 51 50 50 65
64 18 13 13 15 17 22 44 54 41 40 38 38 39 39 39
38 38 38 39 39 41 42 47 44 34 31 31 36 37 68 95
100 102 104 109 109 98 98 106 121 135 141 143 144 143 141 137
125 118 111 109 111 110 110 106 97 74 11 6 7 6 6 8
5 5 32 43 45 44 39 19 23 19 0 2 3 0 2 9
42 45 44 43 35 21 43 41 41 40 39 36 33 31 30 29
28 27 28 27 27 26 25 23 17 18 25 26 17 0 3 27
45 48 28 0 0 0 0 0 0 16 50 33 47 41 19 28
46 6 0 0 0 0 0 33 55 42 40 39 39 39 39 39
38 38 38 38 38 39 42 46 38 32 4 0 34 37 66 96
101 104 105 110 113 102 99 105 122 136 143 145 147 148 147 140
128 116 110 109 110 109 112 108 100 75 12 6 6 6 6 8
6 5 31 43 45 44 43 38 8 21 5 0 0 0 0 0
38 45 44 43 27 27 42 40 40 39 38 35 33 32 31 30
29 28 27 27 27 26 26 24 17 15 22 24 16 0 2 24
44 45 32 0 0 0 0 0 0 13 51 34 46 34 0 2
36 8 0 0 0 0 0 28 53 42 39 39 39 39 39 39
39 38 37 38 39 40 42 44 37 31 11 9 31 37 62 96
105 107 109 110 112 105 99 106 119 133 145 145 148 149 149 140
127 117 110 109 112 113 114 110 101 75 13 6 6 5 5 7
7 5 28 41 42 44 44 36 35 63 43 0 0 0 0 0
41 45 46 44 15 38 43 40 41 40 38 34 31 29 28 28
27 27 26 27 27 26 25 24 17 16 21 24 18 0 2 24
8 11 4 0 0 0 0 1 0 17 49 35 47 35 0 3
34 9 0 0 0 0 0 22 52 42 39 39 39 39 39 39
39 37 38 38 39 40 41 41 35 35 27 27 34 37 63 97
105 109 112 113 112 103 98 103 111 129 147 149 149 149 147 134
122 115 109 108 113 116 114 110 101 79 16 6 6 5 6 7
6 6 29 44 44 45 44 36 35 49 44 0 0 0 0 0
25 27 25 15 21 41 11 9 25 41 38 34 30 28 28 28
26 26 26 27 26 26 25 24 17 15 20 24 19 0 1 22
6 10 2 0 0 0 0 0 0 18 49 35 47 35 0 2
31 13 0 0 0 0 0 15 52 42 39 39 38 39 39 38
38 38 38 38 38 40 41 40 34 30 27 32 33 36 63 97
107 109 113 114 113 102 98 103 108 117 139 150 150 149 143 127
119 114 109 109 113 116 117 111 102 80 19 6 5 7 4 5
3 3 12 15 11 8 5 2 0 0 0 0 0 0 0 0
0 0 0 0 0 14 4 36 22 40 38 34 30 28 27 28
26 26 27 27 27 27 27 25 19 16 21 24 21 0 0 22
8 13 3 0 0 0 0 1 0 14 48 35 47 33 0 3
28 15 0 0 0 0 0 13 52 42 39 39 39 39 39 38
38 38 38 38 38 39 41 40 37 26 18 21 26 28 61 97
109 115 115 113 111 103 98 103 108 112 127 148 150 147 134 121
119 113 108 109 114 117 118 113 106 83 32 17 10 0 0 0
0 0 0 0 0 0 1 2 3 4 4 7 8 10 11 12
13 11 0 0 28 11 61 83 64 37 35 30 30 28 27 27
26 26 27 27 27 27 26 25 19 17 21 25 23 0 0 22
10 15 3 0 0 0 0 3 0 8 50 35 48 35 1 4
25 18 4 0 0 1 1 9 51 43 38 39 39 39 39 38
38 38 38 38 38 39 41 41 39 34 30 31 31 31 62 96
110 113 117 120 115 102 95 100 107 110 116 137 148 142 128 120
119 115 108 109 115 118 118 114 107 87 44 30 42 2 1 8
11 14 16 18 20 21 22 21 21 21 21 22 23 23 24 24
21 16 0 0 7 5 2 5 5 5 3 7 31 30 29 30
28 29 29 29 29 30 29 29 22 19 23 28 25 1 0 23
14 16 2 1 1 0 0 12 3 7 52 36 48 38 18 4
24 21 6 5 3 4 1 8 51 42 38 38 39 39 38 39
38 38 38 38 38 39 40 40 39 32 33 37 36 37 64 96
109 117 119 120 119 109 97 99 105 109 108 120 135 128 124 125
123 118 109 110 115 120 122 115 109 88 40 22 64 7 1 15
18 21 23 23 23 23 23 23 22 22 22 23 24 25 24 25
22 16 0 0 0 0 0 0 0 12 8 10 38 38 36 36
35 35 33 31 27 25 23 21 14 11 11 11 7 0 0 2
14 17 3 2 1 0 0 16 20 5 54 36 49 35 29 11
21 18 3 13 13 4 0 5 48 41 38 38 38 38 38 38
38 38 38 38 38 38 38 38 39 32 37 39 37 36 64 96
109 116 124 124 119 111 102 104 108 114 114 114 122 123 128 128
125 118 109 112 117 122 120 116 109 89 37 0 0 1 3 16
19 22 25 25 25 25 25 24 24 24 25 26 26 27 26 25
22 17 0 0 0 0 0 0 0 8 6 12 17 15 15 14
15 17 19 21 22 24 25 28 29 26 27 33 36 5 0 32
14 17 11 8 12 10 12 24 30 21 56 37 51 32 23 23
18 19 3 12 10 4 2 7 43 38 38 38 38 38 37 37
38 38 37 37 38 37 36 37 39 35 40 33 15 35 67 94
109 117 122 127 126 111 102 103 110 116 118 120 125 127 133 130
126 117 106 111 121 122 123 118 109 90 58 16 0 1 4 15
19 22 25 26 26 26 26 26 26 26 27 28 29 28 27 25
24 19 0 0 0 0 0 0 0 0 45 53 51 50 50 50
50 52 51 51 52 51 51 50 47 41 41 48 49 9 0 32
16 16 35 40 44 46 49 56 60 62 64 41 51 28 8 31
17 36 33 33 31 31 31 30 31 33 37 37 37 38 38 37
38 38 38 38 37 37 36 37 40 35 36 10 33 50 68 93
108 117 123 126 128 120 104 101 111 119 121 123 130 132 132 130
125 116 107 117 122 123 124 118 106 91 68 56 37 13 13 20
23 28 24 26 27 27 27 27 28 28 29 29 30 29 28 26
25 21 0 0 0 0 0 0 0 0 49 53 51 50 50 49
50 50 51 51 50 50 50 49 48 40 39 46 48 11 0 29
16 14 37 45 47 48 52 58 61 63 66 52 49 28 1 13
16 35 30 30 30 30 29 29 30 33 36 36 37 37 36 37
38 37 37 37 38 37 37 36 39 30 31 31 53 59 72 93
108 117 123 126 129 123 112 100 108 121 127 128 131 133 133 129
121 113 112 119 122 123 124 119 106 93 76 67 67 60 25 19
18 25 26 26 27 28 29 29 29 29 30 31 31 31 29 28
26 22 0 0 0 0 0 0 0 0 49 52 50 50 50 50
49 50 51 50 50 50 50 50 49 41 40 45 48 14 0 27
16 13 25 39 38 39 41 45 48 48 46 42 45 28 0 6
13 37 35 37 36 36 35 35 35 35 36 36 37 37 37 37
37 37 37 37 37 38 37 30 27 23 32 63 65 70 77 93
106 118 125 126 128 124 116 103 106 119 132 132 134 137 132 125
117 116 114 117 122 123 124 118 107 93 82 82 74 85 84 56
24 29 21 26 27 28 29 30 30 31 31 31 31 30 29 28
27 22 0 0 0 0 0 0 0 1 49 51 50 50 50 50
50 50 50 50 50 50 49 49 49 42 40 44 48 16 0 25
16 13 5 4 6 8 11 16 24 26 28 25 42 30 0 3
10 38 35 37 37 37 37 36 36 36 36 36 37 36 36 36
37 37 37 37 37 34 26 25 28 20 35 75 77 80 81 95
105 117 125 127 129 127 117 105 102 115 127 131 133 135 128 125
122 115 114 119 122 122 124 119 109 97 89 93 88 88 97 98
66 34 24 21 25 27 28 29 30 30 31 31 30 30 30 29
28 22 0 0 16 37 16 0 0 5 50 49 49 49 49 49
48 49 49 49 50 50 50 49 49 42 39 42 48 19 0 21
16 14 10 8 9 10 13 18 26 27 29 26 43 32 1 0
8 37 34 36 36 36 36 36 36 36 36 36 36 36 36 36
37 36 37 37 31 24 22 26 24 18 33 77 89 89 85 95
106 117 125 128 131 128 116 106 105 107 120 131 134 134 129 123
117 116 118 123 124 124 123 118 111 102 95 99 101 99 101 106
77 31 30 25 25 25 27 28 29 30 30 30 29 29 29 28
28 20 0 0 26 50 18 0 0 7 50 50 50 49 49 49
49 49 49 48 49 48 48 49 48 43 38 42 47 21 0 18
15 17 16 14 14 15 16 21 27 28 30 28 45 37 24 31
38 41 32 36 36 35 36 35 35 35 36 35 36 35 36 36
36 37 36 25 21 25 22 25 25 21 25 76 98 97 89 96
107 116 124 127 128 128 118 107 105 107 114 124 131 129 123 121
121 120 122 126 125 124 122 118 113 106 99 104 108 111 109 109
59 26 31 28 27 23 19 27 29 30 30 29 29 28 28 29
28 18 0 0 0 0 0 0 0 8 51 49 49 49 49 49
49 49 49 49 49 49 49 49 49 43 39 41 47 23 0 16
15 16 16 15 16 18 20 25 30 31 31 28 47 42 46 56
55 41 32 35 36 35 36 35 35 35 35 35 36 36 35 36
40 33 21 19 20 25 22 26 25 22 19 54 104 102 93 101
110 115 122 125 125 128 124 112 108 110 113 121 126 127 124 123
122 122 124 124 126 123 122 118 115 110 105 110 113 118 119 108
38 25 31 29 26 24 20 22 28 29 31 29 29 29 29 28
28 17 0 0 3 5 0 0 0 11 51 50 49 49 49 48
49 49 49 48 48 48 49 49 49 44 39 40 47 26 0 14
14 15 16 15 16 18 20 24 30 31 29 25 32 28 28 32
33 31 33 35 36 35 35 35 35 35 35 34 35 35 37 34
25 19 18 18 22 24 22 24 25 25 17 31 93 107 97 103
113 117 122 125 125 127 124 115 110 113 116 117 121 123 122 123
123 123 125 126 125 124 121 119 115 112 109 113 119 122 123 74
28 29 28 28 29 25 22 21 22 24 24 25 26 29 29 28
28 16 0 0 1 2 0 0 0 17 50 49 48 48 48 48
48 48 48 48 48 48 49 48 49 45 39 40 47 28 0 11
15 16 17 17 18 18 19 24 29 31 29 29 30 30 27 27
32 32 33 35 35 35 36 35 36 35 35 35 37 36 28 23
22 22 19 18 23 23 19 24 25 27 20 18 57 106 102 109
117 118 121 124 125 126 126 118 111 112 116 118 121 124 124 123
124 124 126 126 125 123 121 121 119 116 115 118 125 127 104 36
28 26 28 29 27 22 22 22 20 19 20 20 18 23 30 29
28 16 0 0 0 0 0 0 0 19 51 49 49 49 49 49
48 48 48 48 48 48 49 48 49 45 39 39 46 32 0 9
14 16 18 18 19 20 21 24 30 31 30 30 31 31 30 29
32 32 33 34 35 35 35 35 35 35 37 35 29 24 24 21
20 20 20 20 22 24 23 22 26 25 26 17 25 69 108 114
119 120 122 124 127 129 128 122 113 113 115 117 120 123 123 123
124 127 125 127 125 124 123 122 121 117 119 123 128 115 48 30
30 28 26 30 27 24 24 24 21 19 18 16 17 18 23 24
28 16 0 0 0 0 0 0 0 6 49 49 49 49 49 49
49 49 49 49 48 48 49 49 48 46 38 38 45 33 0 5
14 15 17 18 19 20 21 25 30 31 30 29 31 30 30 29
31 33 33 34 35 35 35 35 37 38 32 25 25 23 21 18
20 21 20 20 20 20 19 20 26 26 27 22 18 27 68 113
121 122 122 124 128 130 130 124 117 114 115 118 120 120 122 123
125 126 128 128 124 123 123 121 121 120 121 127 118 54 28 29
29 28 29 27 24 25 23 19 21 18 18 17 16 17 19 22
21 24 15 2 0 0 0 0 0 12 28 49 49 48 48 49
48 48 48 48 48 48 48 49 49 47 39 37 45 35 0 3
14 15 17 18 19 20 22 26 31 31 30 30 30 31 31 30
31 33 33 34 34 34 35 39 33 25 23 23 24 23 21 18
21 21 22 22 22 22 23 21 20 26 24 24 22 20 21 53
111 125 123 122 126 128 130 128 122 118 117 117 118 120 123 124
126 129 128 125 122 122 122 124 124 122 125 109 48 28 27 28
28 27 27 21 19 20 22 21 19 18 16 16 17 19 20 19
20 18 19 25 16 4 0 0 0 31 19 43 48 48 48 48
48 48 48 48 48 48 48 48 48 47 39 37 43 37 0 2
14 15 16 18 19 19 22 26 31 32 31 31 30 30 31 32
32 32 33 34 34 35 31 24 22 22 20 21 21 21 18 19
21 21 21 21 22 20 21 23 21 24 25 23 26 23 21 22
44 97 122 120 120 124 127 129 125 120 119 120 119 122 123 123
125 130 127 122 120 121 123 125 127 123 87 36 26 28 27 29
29 26 24 19 18 19 21 19 18 18 17 17 19 17 20 20
21 19 18 19 22 22 14 1 0 35 42 20 49 48 48 48
48 48 48 48 47 48 48 48 48 47 39 37 43 39 0 2
14 15 16 18 19 20 22 26 31 32 31 31 31 31 31 32
32 32 33 33 35 28 18 18 18 20 21 22 21 18 17 20
20 20 21 21 22 21 22 25 25 22 26 25 24 26 24 20
22 29 61 102 120 123 128 131 129 124 121 121 121 122 122 124
128 129 126 121 121 122 123 129 111 59 27 23 26 26 28 28
27 26 21 24 21 20 21 19 20 20 18 19 18 16 21 21
19 20 20 18 17 18 21 22 9 37 48 25 36 48 48 48
48 48 48 47 48 47 48 48 48 47 39 37 41 41 0 0
13 15 17 19 20 22 24 27 31 31 31 31 31 30 31 31
33 32 34 35 26 20 16 19 20 20 19 20 21 16 19 20
20 23 21 23 23 23 24 26 29 27 24 28 28 28 27 25
22 21 21 30 54 95 124 130 131 126 122 121 122 121 122 123
126 128 124 121 122 122 111 73 34 23 22 25 27 28 26 26
27 23 26 22 20 20 20 22 23 19 20 20 17 17 22 22
19 22 20 18 17 16 19 20 22 34 46 44 16 42 47 47
47 47 47 47 48 47 47 48 48 47 41 36 41 42 1 0
17 19 21 23 25 25 27 28 30 30 30 31 30 29 30 30
32 36 32 24 21 17 16 19 18 16 18 20 20 15 18 22
22 23 22 21 22 22 23 23 25 27 28 21 27 29 28 27
25 22 22 20 21 25 45 79 107 123 122 123 122 121 121 122
125 125 120 106 81 51 30 23 22 22 24 26 25 25 26 27
24 28 24 19 19 19 20 24 22 21 20 21 15 17 22 20
18 20 20 19 18 19 17 17 19 20 30 26 4 1 42 47
46 46 46 46 46 46 46 46 46 46 40 35 39 42 1 0
20 21 22 24 25 26 27 28 29 29 30 30 30 29 29 31
34 24 21 20 19 16 13 17 19 16 17 20 19 14 17 21
21 22 24 21 21 23 22 22 20 23 25 25 20 22 28 30
30 28 26 24 23 21 20 21 23 34 48 57 69 74 72 69
63 51 38 28 23 22 24 27 27 28 27 24 23 27 26 25
27 25 22 17 18 20 21 21 21 21 20 21 13 17 22 19
17 17 19 17 17 20 17 16 18 19 20 20 36 9 34 45
46 45 45 45 45 45 45 45 45 45 40 35 37 42 3 0
13 18 22 23 25 25 26 27 28 28 29 29 29 28 32 28
18 15 15 14 14 14 13 12 18 15 17 19 21 15 17 22
22 21 21 21 21 21 20 19 20 19 19 22 23 19 17 26
28 28 28 28 25 26 24 23 20 17 18 17 18 20 20 20
19 20 21 21 21 24 26 27 28 28 28 26 26 22 25 25
26 25 21 17 19 20 20 20 21 20 18 18 12 18 21 18
16 17 18 17 18 17 16 14 16 18 18 16 31 17 26 45
44 44 44 44 44 44 44 44 44 44 40 34 35 42 5 0
15 15 18 20 22 23 25 26 27 28 28 29 29 29 25 15
13 12 13 16 16 18 18 12 19 18 17 22 21 16 19 22
22 21 21 20 20 21 22 20 21 21 20 18 21 21 15 14
20 25 28 30 29 29 26 29 27 27 24 25 24 22 24 25
26 27 26 26 25 26 28 27 25 28 31 22 18 24 23 24
24 22 18 15 18 19 19 19 21 19 18 16 12 19 20 17
16 16 18 16 16 15 15 14 17 17 14 13 15 8 8 40
44 44 44 44 44 44 44 44 45 44 40 33 35 42 8 0
