P2
128 120
156
36 36 35 35 34 33 32 32 32 31 30 30 29 29 28 28
28 27 27 26 25 25 24 24 24 23 23 22 23 21 21 21
19 17 15 14 13 14 17 18 19 21 17 10 22 26 23 21
21 20 20 18 16 14 11 11 10 10 14 17 15 17 9 11
18 19 20 20 21 21 22 22 22 23 23 23 24 25 25 25
26 26 28 28 28 29 29 29 29 30 30 31 32 33 33 34
34 35 35 36 36 36 37 38 38 38 39 38 39 39 39 39
39 40 40 40 39 40 40 40 39 40 40 40 41 41 41 41
36 35 35 34 34 33 32 32 32 31 30 29 30 29 29 28
28 27 26 26 26 25 24 24 24 23 23 22 22 22 21 21
19 18 16 15 15 15 19 20 22 23 18 11 23 27 24 22
22 20 20 20 18 16 14 13 13 11 16 17 17 16 16 19
20 21 22 23 23 23 23 24 25 25 25 25 25 25 26 27
28 27 28 29 29 29 29 29 31 31 32 32 33 34 35 35
35 35 36 36 37 37 37 38 38 39 40 38 39 39 39 39
39 40 40 40 39 39 40 39 40 41 40 40 41 40 41 41
36 36 35 34 34 34 33 32 32 31 31 31 30 29 29 28
28 28 27 26 26 26 25 24 24 24 23 23 23 22 22 21
20 19 18 17 17 17 21 23 24 24 19 9 23 28 25 24
23 21 22 20 20 17 17 17 14 12 15 16 18 16 19 21
22 23 23 24 25 25 25 24 26 25 26 26 27 28 28 28
28 28 29 29 30 30 30 31 33 33 33 33 34 34 35 36
36 37 36 37 38 38 39 39 39 38 40 39 40 40 40 39
40 40 39 41 41 40 41 40 41 41 41 41 41 41 40 40
36 36 35 35 35 34 33 33 33 32 32 31 30 30 29 29
29 28 28 27 26 26 25 25 25 24 24 24 23 22 22 21
21 20 18 18 17 19 23 24 26 26 19 9 23 28 25 25
24 22 22 21 21 18 20 20 17 13 13 19 17 19 20 22
23 24 24 25 26 26 26 26 26 26 27 26 28 29 30 29
29 29 29 31 32 32 32 33 34 35 34 35 35 36 36 37
37 37 37 38 38 38 39 39 39 39 40 39 40 40 40 40
40 40 41 40 41 41 41 41 41 40 40 40 40 40 42 42
37 36 35 35 34 34 34 33 33 32 32 31 30 30 30 29
29 28 28 27 27 27 26 26 25 24 24 24 24 23 23 23
21 21 19 19 19 19 25 26 27 27 20 11 23 28 26 25
25 24 23 22 21 18 20 21 19 14 12 21 18 20 22 24
24 26 25 26 27 27 26 28 28 28 28 29 28 29 29 30
30 31 31 31 32 33 33 33 35 36 35 35 36 36 37 37
37 38 38 38 39 39 39 39 39 39 41 39 39 40 40 41
40 41 40 41 41 40 40 40 40 42 43 42 42 42 43 42
36 37 36 36 35 35 34 34 33 33 32 31 31 31 31 30
29 29 29 27 28 27 27 26 26 25 25 25 24 24 23 23
23 22 22 21 21 22 27 27 28 27 21 12 22 29 26 26
26 25 24 23 22 20 22 21 20 17 13 21 20 22 24 25
26 27 27 28 28 28 29 29 29 28 28 29 30 30 30 31
31 32 32 33 33 34 34 34 35 36 35 36 36 37 37 37
38 38 38 39 39 39 40 40 39 40 43 40 41 41 41 41
40 40 39 39 40 42 43 41 42 42 42 41 41 42 42 42
37 37 36 36 35 35 34 33 34 33 32 32 31 31 31 30
30 30 29 28 28 27 27 27 26 25 25 25 24 25 24 23
23 23 23 22 23 23 27 28 29 28 22 14 21 31 28 27
27 26 26 24 24 22 23 23 21 18 14 21 21 24 26 27
26 27 27 29 29 29 28 29 30 30 31 31 31 31 32 31
32 33 33 34 33 34 34 34 35 36 36 37 37 38 38 38
39 39 40 39 39 40 40 40 41 40 42 40 40 39 39 40
40 42 42 42 41 41 42 42 42 42 42 42 42 42 43 42
38 37 36 37 37 35 35 34 34 34 33 33 32 31 31 30
31 30 29 29 29 27 27 27 27 26 26 26 26 25 24 24
24 24 23 24 24 24 29 29 30 29 22 16 20 31 28 27
28 27 27 25 25 24 23 24 23 21 17 22 23 25 27 27
28 28 28 28 29 30 30 30 30 31 32 31 32 32 33 33
33 33 34 33 35 35 36 36 36 38 37 37 37 38 38 38
38 38 39 39 40 40 40 40 40 38 38 39 40 42 42 41
41 41 41 42 41 42 42 42 42 42 43 42 42 42 42 42
38 37 37 36 36 35 35 35 34 34 33 33 33 32 32 31
30 30 30 29 29 28 28 28 27 27 26 25 25 25 25 25
25 24 24 24 25 25 30 30 30 30 23 18 19 32 29 28
28 28 27 26 27 27 25 24 24 22 17 23 24 27 28 28
28 29 30 30 31 31 31 31 32 32 32 32 33 32 33 33
33 34 34 34 35 35 36 36 36 39 37 38 39 38 39 39
40 37 41 40 40 39 39 39 40 41 41 41 41 40 41 41
42 41 42 43 41 43 43 42 43 43 43 42 42 43 42 43
38 37 37 36 36 35 36 36 35 34 33 33 32 32 32 31
31 30 29 29 29 29 28 28 27 27 27 26 25 25 25 25
25 25 24 25 25 26 31 30 31 30 23 20 18 31 29 28
27 28 27 27 26 26 24 24 24 23 20 23 24 27 28 29
29 30 30 31 31 31 31 32 32 32 32 33 33 34 33 33
34 34 35 34 35 36 36 37 37 38 37 38 38 39 39 39
39 37 37 39 40 41 40 40 41 41 41 41 42 42 41 41
41 42 42 43 42 42 42 42 42 43 43 43 43 42 42 42
37 37 36 36 36 35 35 35 34 34 33 33 33 32 31 31
31 30 29 29 29 28 28 27 28 27 27 26 26 25 25 25
25 24 24 25 25 26 30 31 31 30 23 20 17 31 30 28
27 28 28 27 26 26 25 25 25 23 21 25 26 28 28 29
29 30 30 31 31 31 31 32 32 32 32 32 33 34 33 33
34 33 34 34 35 35 36 36 37 38 37 37 37 36 36 36
38 39 41 39 40 40 40 41 41 40 40 40 40 42 40 40
41 41 42 42 41 41 42 42 43 42 42 42 42 42 41 41
37 37 36 36 36 36 35 34 34 33 33 32 32 31 31 31
31 30 30 30 28 28 28 28 28 27 26 26 26 26 25 25
25 24 25 24 25 27 30 30 31 31 23 19 16 30 30 28
26 28 28 26 26 27 25 25 25 24 22 25 26 29 30 29
30 30 30 31 31 31 31 32 32 32 33 33 33 33 34 33
34 34 34 35 35 36 36 36 36 35 34 36 36 37 39 38
38 39 40 40 39 39 40 41 40 41 40 40 40 40 40 41
41 41 41 40 41 41 41 41 42 42 42 41 41 42 41 41
37 37 36 35 35 35 34 34 34 33 33 32 32 32 32 31
31 30 30 29 29 29 28 27 27 27 26 26 25 25 25 25
24 25 24 25 25 26 31 31 31 30 23 19 9 23 30 28
28 28 27 26 27 27 24 25 25 24 20 25 27 30 29 29
29 30 31 31 30 31 32 32 31 32 32 32 33 33 33 33
34 35 35 35 35 34 34 34 34 36 37 37 38 38 39 39
39 39 40 39 40 39 39 40 40 40 40 39 39 40 40 41
40 41 41 41 41 41 41 41 41 41 40 41 41 41 41 41
37 36 37 36 35 35 34 34 34 34 33 32 32 31 31 30
30 29 30 29 29 28 28 28 27 27 27 27 26 26 26 25
25 24 25 25 25 26 30 31 31 31 23 17 12 29 31 30
29 28 27 27 27 28 25 26 26 25 22 26 28 29 30 30
30 30 31 31 32 31 32 32 32 33 33 33 34 34 34 35
35 34 34 34 34 35 36 37 37 37 37 37 38 38 38 39
39 39 41 40 40 40 39 40 40 40 40 40 41 40 40 40
41 41 41 40 41 40 40 41 42 41 42 41 41 41 41 41
37 37 37 36 36 35 35 34 34 34 33 33 32 32 31 32
32 30 31 30 30 29 29 29 28 27 27 27 27 26 26 26
26 25 26 26 26 27 31 32 32 31 23 21 21 27 32 29
29 29 29 28 28 28 26 27 26 26 22 28 29 30 30 31
31 32 32 32 32 33 32 33 33 34 33 34 34 34 34 34
34 35 35 36 36 36 37 37 38 37 38 38 39 39 39 40
40 40 42 40 40 40 40 40 41 41 40 41 41 41 41 40
42 41 41 41 41 42 41 42 41 41 43 42 42 42 42 40
38 37 37 37 36 36 35 34 34 34 34 33 33 33 32 32
32 31 31 30 30 30 29 29 29 28 28 28 27 27 27 26
26 26 26 26 27 28 32 33 32 32 24 21 23 26 32 31
30 30 30 29 28 30 27 27 27 27 23 29 30 31 32 31
32 32 32 32 33 33 33 34 34 34 33 33 34 34 35 35
37 37 36 36 36 37 37 37 38 38 38 39 39 40 40 39
40 40 42 40 40 41 41 41 41 41 41 41 40 41 41 41
41 42 42 42 41 42 43 43 43 42 41 41 42 42 42 43
38 38 37 37 36 36 35 35 35 35 35 34 34 33 33 32
32 32 31 31 31 30 30 29 29 29 29 28 28 28 27 27
26 27 27 28 28 29 33 33 34 33 24 21 26 25 33 32
31 31 31 30 29 31 28 28 28 28 24 31 30 33 32 33
32 33 33 34 34 34 34 33 33 34 34 34 35 36 35 36
36 38 37 37 37 38 38 38 39 38 39 39 40 40 40 40
40 41 41 41 41 41 42 41 41 42 42 41 41 41 42 42
43 42 43 43 42 42 42 42 43 41 43 43 42 42 41 42
38 38 38 37 36 36 36 36 35 35 35 35 35 33 33 33
33 32 32 32 31 31 30 30 29 29 29 29 29 28 28 27
28 27 27 27 28 30 34 34 34 34 25 23 29 24 33 32
32 32 31 31 30 31 28 29 29 29 25 32 31 33 33 33
33 33 33 33 33 33 34 34 35 35 35 36 36 37 36 36
37 38 36 38 37 38 39 38 39 39 39 39 40 41 41 41
42 42 42 42 41 42 42 42 42 42 42 41 42 42 42 42
43 40 42 42 41 42 43 43 42 42 43 43 42 43 43 42
38 37 37 37 37 36 36 36 35 35 35 34 34 34 33 33
33 32 32 32 31 32 31 30 30 30 30 29 29 29 28 28
28 27 27 28 29 30 34 34 34 34 25 22 30 23 33 32
32 32 31 31 30 32 29 30 30 29 25 32 31 33 33 33
33 33 34 34 34 35 35 35 35 36 35 36 36 36 36 37
37 38 37 38 38 39 38 39 39 39 40 40 40 40 41 42
41 41 43 41 41 42 42 42 42 42 42 43 41 41 42 42
42 43 43 42 43 42 43 42 42 43 42 43 43 42 42 41
38 38 38 37 37 36 37 36 35 35 35 35 34 34 34 33
33 33 33 32 32 32 32 31 31 30 30 30 29 29 29 28
28 28 28 28 29 30 34 35 35 35 26 22 32 22 34 34
33 32 32 31 31 32 29 30 30 30 25 31 29 33 33 33
34 35 36 35 35 36 35 36 36 36 36 36 36 37 37 37
38 38 38 38 39 39 39 39 39 40 40 40 41 41 41 42
42 42 43 43 42 42 43 42 42 40 41 41 41 42 42 42
43 43 43 43 43 43 41 42 42 42 42 42 42 42 42 42
38 38 38 37 37 37 36 36 36 36 35 35 35 34 34 34
34 33 33 33 32 31 31 31 31 31 31 30 30 30 29 29
28 28 28 29 29 31 35 35 35 34 26 23 33 22 34 33
33 33 33 32 32 34 30 30 30 28 25 33 31 35 35 35
35 35 35 35 35 36 36 36 36 37 37 37 37 37 37 38
38 39 39 38 38 39 39 40 40 40 41 41 41 41 42 41
42 41 43 42 41 39 41 41 42 43 43 41 43 42 43 42
43 42 42 42 43 43 43 41 42 42 43 43 43 42 42 42
38 38 38 37 37 36 37 36 36 36 36 36 35 35 35 35
35 34 34 33 32 32 33 32 31 31 31 31 30 30 29 29
29 29 29 29 30 31 36 36 36 35 28 23 34 23 35 34
33 34 33 32 32 34 30 30 29 29 26 33 32 35 35 35
36 35 36 36 36 36 37 37 37 37 37 37 37 38 38 39
38 38 39 39 40 40 40 40 40 41 41 42 42 42 42 41
41 40 40 41 43 43 43 43 44 43 43 44 42 42 42 42
43 42 42 42 43 43 43 42 43 43 42 43 43 43 43 44
39 39 38 38 38 37 38 37 37 36 36 36 35 35 34 34
34 34 34 33 33 33 33 32 32 32 31 30 30 30 30 30
29 29 29 30 30 32 36 36 36 36 28 23 34 24 35 34
34 34 33 32 32 32 29 27 29 28 23 30 31 35 36 36
36 35 36 36 37 36 37 36 37 37 37 37 39 38 39 39
40 40 40 40 41 41 41 41 41 41 41 41 40 41 41 41
42 43 43 43 43 42 43 43 43 43 43 45 43 42 43 42
42 42 43 43 43 43 44 42 43 42 42 43 43 43 43 43
38 38 38 37 38 37 37 37 37 36 36 36 36 35 35 34
35 35 34 34 33 33 32 32 32 32 31 31 31 30 30 30
30 30 30 30 31 32 37 36 37 37 29 24 35 25 34 33
34 35 34 31 27 20 10 5 5 4 5 9 17 25 31 36
36 37 38 36 37 37 37 37 37 38 38 38 38 39 39 39
40 40 39 40 40 41 41 39 40 41 41 43 44 43 44 43
43 43 43 44 43 43 43 44 44 43 43 44 42 42 42 43
43 42 43 43 43 43 42 42 43 43 42 42 43 42 42 42
39 38 38 38 38 37 38 37 37 37 36 36 35 36 35 35
35 34 34 34 33 33 33 33 32 32 32 31 31 31 31 31
31 30 30 30 31 33 37 37 37 37 29 24 35 27 32 34
34 33 30 20 5 0 0 0 0 0 0 0 0 2 12 20
28 33 36 35 37 38 38 36 38 39 38 39 39 39 40 40
40 41 40 40 40 40 40 42 41 42 43 43 43 43 44 44
43 44 43 44 44 44 44 44 44 44 45 45 43 43 44 43
43 42 42 43 42 43 42 43 43 43 43 43 43 44 43 43
39 39 38 37 38 38 37 37 37 37 37 37 37 36 36 36
36 35 35 34 34 34 34 33 33 33 32 32 32 32 31 30
31 30 31 31 32 33 38 38 38 37 30 24 35 31 31 34
27 17 8 0 0 0 0 0 0 0 0 0 0 0 0 0
5 12 18 27 34 38 38 38 39 38 39 39 39 40 39 40
41 40 40 41 42 41 42 42 42 43 44 43 43 44 44 44
44 44 44 44 44 44 44 44 44 43 43 45 43 43 43 43
43 44 44 43 43 43 44 44 42 43 44 44 44 44 44 43
39 39 39 38 39 38 38 38 38 37 37 36 36 36 36 35
35 35 35 35 35 34 34 34 34 33 33 33 33 32 31 31
31 31 31 31 32 34 38 38 39 37 30 25 35 32 28 26
19 19 1 0 0 0 0 0 0 0 0 0 0 0 0 0
1 5 5 5 12 26 37 38 39 39 39 39 39 40 40 41
41 41 40 41 42 42 42 42 42 43 44 43 44 44 44 43
44 44 44 44 44 44 44 44 44 44 44 46 44 43 44 44
43 44 43 43 43 43 44 44 45 44 44 43 43 44 43 43
40 39 39 39 39 38 38 38 38 38 37 36 37 37 36 36
36 36 35 35 34 35 34 34 34 33 33 32 33 32 32 32
32 32 32 32 33 34 38 38 39 38 30 26 36 34 24 23
25 7 0 0 0 0 0 0 0 0 0 0 0 0 0 0
0 5 6 4 4 9 20 35 38 38 40 39 40 41 40 40
40 41 42 41 42 42 43 43 44 43 45 44 44 44 44 44
44 45 44 44 45 44 45 44 44 44 43 46 43 44 44 44
44 44 43 44 44 44 44 43 43 44 43 42 40 42 42 41
40 39 39 39 39 39 38 38 38 37 38 38 37 37 36 36
36 36 36 35 35 35 35 34 34 34 34 33 33 33 32 32
32 32 32 32 33 34 39 39 39 38 31 26 36 36 22 27
18 0 0 0 0 0 0 0 0 0 0 0 0 0 0 0
0 3 4 4 4 5 6 14 33 40 41 40 40 41 41 41
41 42 43 42 42 43 43 43 44 43 45 44 44 44 44 45
44 44 44 45 45 44 44 44 45 44 45 44 44 44 44 45
44 44 45 44 44 43 42 42 43 43 43 44 45 44 43 42
40 40 40 39 39 39 39 39 38 38 38 38 37 37 38 37
37 36 37 36 36 35 35 35 35 34 34 34 33 33 33 33
33 33 33 33 34 35 40 39 40 39 31 26 36 36 22 24
6 0 0 0 0 0 0 0 0 0 0 0 0 0 0 0
0 1 3 4 7 6 5 4 11 32 42 40 41 41 41 41
42 43 43 44 44 44 44 44 45 45 45 44 45 45 45 45
45 44 45 45 44 45 45 45 44 45 45 45 46 45 45 45
43 42 43 43 45 44 45 44 44 44 44 43 43 42 43 43
40 40 40 40 40 39 39 39 39 38 38 38 37 37 37 37
37 37 37 36 36 36 36 35 35 35 35 34 34 34 33 33
33 32 33 33 34 35 40 40 40 39 32 25 34 35 21 15
0 0 0 0 0 0 0 0 0 0 0 0 0 0 0 0
0 3 3 0 0 5 7 8 5 9 32 40 41 42 41 42
42 42 43 43 43 44 44 45 45 44 46 45 45 45 45 45
45 45 45 45 45 46 45 46 45 45 45 44 40 41 42 43
44 43 45 44 44 45 43 42 44 43 44 43 44 43 43 42
41 41 40 40 40 40 39 39 39 39 38 38 38 38 38 37
37 37 37 36 35 36 36 35 35 35 35 34 34 34 34 34
34 34 33 33 35 35 41 40 39 39 32 24 29 29 18 9
0 0 0 0 0 0 0 0 0 0 0 0 0 0 0 0
2 4 5 6 4 3 4 10 5 3 6 31 42 42 42 42
43 43 44 44 44 44 44 45 45 45 46 45 45 45 45 46
46 45 45 45 46 45 45 43 43 43 44 44 45 45 45 44
44 43 44 45 45 45 43 44 43 43 43 43 43 43 43 43
40 40 40 40 40 40 40 39 40 39 39 38 39 38 38 37
38 38 37 36 36 36 35 36 35 35 34 35 34 34 34 33
33 33 34 34 35 35 41 41 39 38 31 19 19 18 6 0
0 0 0 0 0 0 0 0 0 0 0 0 0 0 0 0
0 2 3 4 6 5 5 4 8 3 2 9 33 41 42 43
43 43 43 44 44 44 45 45 45 45 46 45 45 45 46 45
46 45 44 43 42 43 43 45 45 44 44 45 44 44 44 45
44 44 44 44 44 45 43 44 43 44 44 44 44 43 43 43
40 40 40 40 41 40 40 39 39 39 39 39 38 37 38 38
37 37 37 37 36 36 36 36 36 36 35 35 34 34 35 34
34 34 34 34 35 35 40 39 37 26 9 0 0 0 0 0
0 0 0 0 0 0 0 0 0 0 0 0 0 0 0 0
0 0 2 4 6 6 5 4 4 2 1 0 11 36 43 42
43 43 44 44 45 45 46 46 46 45 46 45 45 44 44 44
45 44 45 46 44 44 44 45 45 45 44 44 44 44 44 45
44 44 44 44 45 46 44 44 44 44 44 44 42 43 43 43
38 40 41 40 40 40 39 39 40 39 39 39 39 38 38 38
38 38 37 37 37 38 36 36 36 36 36 35 35 35 35 34
34 34 34 35 35 35 39 33 16 5 1 0 0 0 3 2
0 0 0 0 0 0 0 0 0 0 0 0 0 1 1 0
0 0 1 4 6 8 6 6 5 3 2 0 0 14 39 43
43 44 44 44 45 44 44 44 44 44 45 44 44 45 45 45
45 45 45 47 45 45 45 45 45 44 44 44 44 43 44 44
44 44 44 44 44 45 43 44 44 44 44 44 43 44 42 43
50 48 45 44 42 41 40 39 40 40 40 39 38 38 38 38
38 38 38 51 53 48 42 40 37 36 36 35 35 35 35 35
34 34 35 34 36 34 31 17 6 0 0 0 1 5 6 2
0 0 0 1 10 13 5 0 0 0 0 0 0 0 4 2
0 1 0 3 4 6 8 9 7 2 3 0 0 1 27 44
44 44 44 44 45 44 45 44 44 44 44 44 45 45 45 45
45 45 45 47 46 45 45 45 45 45 46 46 46 45 44 44
45 44 44 44 44 45 43 44 44 44 44 44 43 44 43 43
55 53 52 51 47 45 43 40 40 40 39 40 40 39 39 39
39 38 40 54 52 49 48 48 47 40 36 35 35 36 36 35
35 35 35 35 36 32 27 14 2 0 0 0 4 6 3 0
0 0 5 25 51 53 37 11 4 5 0 0 1 3 3 6
7 3 3 2 3 5 7 7 3 3 2 3 0 0 10 37
44 44 45 43 45 45 44 45 45 45 45 44 45 44 45 45
45 45 44 46 45 45 46 45 45 45 44 45 46 45 44 44
45 46 46 44 44 44 44 44 44 44 43 44 44 44 42 44
56 54 53 48 48 48 49 53 45 44 42 40 39 38 38 38
39 38 40 52 51 48 47 48 48 45 37 36 37 36 35 36
35 35 35 35 35 33 22 4 0 0 0 2 4 2 0 0
0 11 36 65 76 71 62 43 18 12 12 4 3 5 6 6
7 4 1 4 3 3 4 5 5 2 2 0 0 0 0 20
43 44 46 45 44 45 45 45 45 45 45 45 44 44 45 44
45 44 45 46 45 45 46 45 45 45 45 44 44 45 45 44
44 45 45 44 45 45 45 44 44 44 44 43 44 45 44 44
54 53 53 49 50 53 54 55 47 49 50 49 46 41 39 39
39 39 39 39 33 38 44 47 48 47 38 36 36 36 36 36
35 35 35 36 36 29 6 0 0 0 3 1 0 1 2 2
14 38 67 83 89 94 86 71 53 39 30 27 19 11 12 13
13 7 6 5 6 4 6 4 5 6 1 0 0 0 1 10
40 44 46 44 45 45 45 45 45 45 45 45 45 45 45 45
45 45 46 47 45 45 45 45 44 45 43 45 45 44 44 44
44 44 44 45 45 45 45 44 44 45 44 44 44 43 44 44
23 8 23 40 50 55 55 54 42 14 26 37 45 48 46 47
48 43 41 35 18 16 15 16 24 34 40 37 36 36 36 36
36 36 36 36 35 21 0 0 0 0 2 0 0 4 4 17
46 67 88 94 97 104 110 99 86 76 61 47 45 36 28 25
26 20 10 10 9 4 7 8 5 8 3 0 5 1 1 4
32 44 46 44 44 45 45 45 45 45 44 44 45 45 44 45
45 45 45 47 46 45 45 45 45 45 45 45 45 44 44 44
44 44 46 45 45 45 44 44 45 45 44 44 45 43 41 41
23 0 0 11 20 21 24 38 40 0 0 0 1 11 19 31
43 46 43 35 14 6 14 14 3 9 42 37 37 36 36 36
36 35 36 36 32 8 0 0 0 0 0 0 4 7 12 45
70 88 101 107 108 112 115 117 111 100 96 87 78 74 61 50
43 39 24 15 15 10 5 4 5 4 4 2 1 4 0 1
18 41 45 44 45 45 45 44 45 45 45 46 45 45 45 44
44 44 45 45 46 45 44 44 44 44 44 44 45 44 45 44
45 45 46 46 45 45 45 45 43 42 42 42 42 43 44 44
26 0 0 6 12 16 17 26 39 0 0 0 0 0 0 0
0 5 40 33 9 5 2 10 1 8 44 37 37 37 37 37
36 36 36 36 25 0 0 0 0 0 0 0 7 11 25 63
87 102 109 114 119 126 126 124 124 121 119 113 110 107 97 84
79 67 51 27 17 16 9 5 5 7 2 4 3 4 1 0
7 39 45 45 44 44 44 44 44 45 44 45 45 44 44 44
45 45 45 46 45 45 44 44 44 45 44 45 45 44 44 44
44 45 45 45 44 44 42 43 44 44 45 44 44 43 43 43
29 0 0 4 6 9 7 25 41 5 0 0 0 0 0 0
0 0 40 31 5 0 0 7 1 8 46 38 38 38 37 37
37 36 37 36 14 0 0 0 0 0 0 2 10 17 41 78
98 105 114 120 123 132 133 134 132 130 130 125 121 121 124 118
114 103 88 64 35 21 16 11 7 6 5 3 4 3 1 0
1 30 45 45 45 44 45 45 45 45 46 45 45 45 45 45
45 44 45 46 45 45 45 44 45 45 44 45 45 45 44 45
45 45 46 45 46 45 44 44 45 45 43 43 43 43 44 46
26 0 0 0 1 0 6 18 38 0 0 0 0 0 0 0
0 0 40 22 0 0 0 1 1 9 47 38 38 38 37 37
37 37 37 32 7 0 0 0 0 0 0 5 10 23 55 89
105 109 119 121 124 131 133 134 136 135 133 131 130 131 133 129
128 123 113 102 75 40 24 16 12 8 6 4 3 1 0 0
0 13 44 45 44 45 44 44 45 45 45 45 45 45 45 45
45 46 45 47 44 46 46 45 45 45 45 45 44 45 46 46
46 45 45 44 44 44 44 44 44 45 43 43 43 43 45 46
22 0 0 0 0 0 1 25 39 0 0 0 0 11 7 0
0 0 39 21 0 0 0 1 1 11 49 38 39 38 38 37
37 37 37 31 5 0 0 0 0 0 4 5 10 30 62 93
107 116 121 123 123 126 131 131 130 133 134 133 137 137 134 131
128 127 122 114 107 80 49 31 21 12 7 4 5 1 0 0
0 3 36 44 45 45 46 46 46 46 46 46 45 45 45 45
46 46 45 45 45 46 46 46 47 46 45 46 46 46 46 46
46 45 45 44 44 45 44 45 45 46 45 45 45 45 45 46
19 0 0 0 0 0 1 28 43 0 0 0 0 14 17 9
3 0 38 19 0 0 0 0 0 6 49 38 38 38 38 37
38 37 37 28 2 0 0 0 0 0 7 5 14 34 69 94
108 116 120 120 121 123 126 129 128 132 133 136 136 136 133 128
127 126 126 121 116 112 88 62 35 19 12 9 5 1 1 0
0 0 23 44 45 45 45 45 46 46 46 46 46 45 45 45
45 45 46 46 47 46 46 45 46 45 44 43 45 46 46 45
46 45 46 45 46 45 47 46 45 46 46 47 46 46 45 43
18 0 2 0 0 0 1 21 46 0 0 0 4 15 18 16
15 2 33 22 0 1 0 0 0 4 50 38 39 38 38 38
38 38 38 32 5 0 0 0 0 0 5 5 18 42 78 94
107 114 116 116 119 121 128 131 132 132 136 135 135 134 132 130
128 124 123 122 119 116 109 99 59 31 14 6 5 3 0 0
0 0 11 42 45 46 45 46 46 47 46 45 46 46 46 45
46 45 46 46 46 45 45 46 46 46 45 45 46 47 46 46
46 46 47 46 46 46 47 46 45 45 45 46 42 41 41 42
17 0 3 0 0 0 4 23 47 0 0 0 1 16 17 17
16 2 33 24 0 0 0 0 0 2 50 39 39 39 38 38
38 38 38 34 3 0 0 0 3 0 2 6 27 53 85 94
106 110 112 115 120 126 132 135 138 139 139 140 138 137 136 136
136 131 126 125 120 115 111 107 86 40 17 8 6 3 3 3
0 0 2 31 45 45 45 46 46 46 46 47 46 46 46 47
46 46 46 46 46 46 46 46 46 46 45 45 45 47 47 47
48 47 46 45 43 41 41 41 43 45 45 42 37 33 29 25
17 1 0 0 0 0 10 25 51 0 0 5 1 5 15 17
16 1 31 39 19 8 1 0 0 1 50 39 39 39 39 39
38 38 38 30 2 0 0 1 1 0 1 5 37 67 88 94
101 106 110 118 123 133 139 143 145 145 145 146 145 144 143 143
144 140 136 131 125 117 110 103 99 58 22 12 4 6 3 2
0 0 1 22 45 46 46 47 47 47 46 48 46 47 47 47
46 47 46 46 47 46 47 47 47 46 46 46 46 46 43 44
44 44 47 45 42 40 37 33 29 25 21 19 19 19 20 21
26 3 1 4 1 0 7 31 58 27 17 9 4 0 0 8
14 0 30 52 53 48 47 41 37 37 53 38 40 39 39 39
39 39 39 31 6 0 1 2 0 0 0 8 48 79 88 90
94 95 106 116 126 135 143 147 147 148 148 148 148 147 147 147
147 146 143 138 128 119 110 94 89 78 36 14 6 3 1 1
1 1 1 16 44 46 47 47 47 47 47 48 46 47 47 46
46 47 47 46 47 46 45 46 43 43 41 44 47 46 42 40
37 33 29 24 22 21 20 19 20 22 25 25 26 27 27 28
52 55 41 34 32 22 8 21 64 38 40 45 46 40 31 21
14 8 31 53 53 49 49 52 58 60 57 39 40 40 40 40
39 39 39 35 5 0 3 0 0 0 0 16 61 81 87 78
72 76 85 83 83 83 94 126 142 148 148 148 148 147 148 147
142 126 99 82 63 71 86 72 59 67 58 30 11 0 0 0
1 1 5 13 44 47 47 47 47 47 47 49 47 47 46 45
44 43 43 44 43 43 44 46 43 40 37 33 30 25 23 22
20 20 22 24 25 26 27 11 26 30 29 31 32 32 33 33
55 60 47 53 55 60 59 61 62 19 18 20 20 22 26 30
38 46 55 46 44 48 49 54 60 61 58 39 39 39 39 39
39 39 39 35 5 1 3 0 0 0 0 30 70 81 77 56
53 52 46 29 32 30 40 61 93 123 143 148 148 148 147 129
110 82 53 39 38 38 39 43 43 39 53 49 28 6 0 0
0 0 4 7 40 47 47 47 47 47 45 46 44 45 45 45
44 46 44 42 38 34 30 26 25 24 23 24 25 27 27 28
29 30 31 32 32 32 34 23 18 35 35 35 36 30 32 37
57 49 50 57 59 65 60 47 43 19 19 18 18 18 17 15
16 14 14 16 22 27 33 41 40 38 41 39 40 40 39 39
39 39 39 37 5 2 3 0 0 0 4 49 72 74 45 31
44 51 41 41 53 60 64 71 83 107 127 147 148 147 138 115
103 87 71 67 54 35 33 39 45 38 28 44 41 21 0 0
0 0 3 2 30 47 46 46 46 47 47 46 44 41 44 43
30 26 25 25 24 25 27 28 30 30 30 30 31 33 33 34
35 35 36 27 28 38 38 37 11 38 39 37 38 21 37 37
51 39 49 56 58 63 63 53 44 24 20 19 17 16 14 14
13 13 13 12 13 13 15 39 41 37 36 38 40 39 40 40
39 39 39 38 7 2 3 0 0 0 14 49 51 41 28 37
46 44 40 50 60 70 89 97 102 110 122 140 141 144 135 115
104 88 60 43 41 49 55 64 72 81 87 96 68 18 0 0
0 0 3 2 19 45 43 40 36 32 30 27 26 24 36 48
23 26 28 30 31 31 33 33 33 34 36 36 37 39 38 38
39 39 39 39 34 28 40 40 19 31 41 36 36 22 41 23
54 27 42 52 55 60 61 54 48 28 20 18 16 13 13 14
14 14 14 14 15 15 19 40 14 27 40 38 40 40 40 40
40 40 39 36 3 0 5 0 0 0 9 46 76 74 66 59
49 35 25 19 20 25 31 46 79 111 125 137 136 139 132 106
58 36 25 16 16 17 16 16 19 21 14 38 85 41 0 0
0 1 7 1 8 27 26 26 27 27 30 31 31 31 30 37
25 32 35 37 37 38 39 39 40 39 40 41 40 39 41 41
41 39 40 41 42 36 27 38 35 15 41 39 30 24 36 23
49 2 1 5 12 22 31 32 46 30 18 16 10 4 5 6
14 16 17 15 17 19 22 41 31 27 48 45 44 31 13 36
40 39 39 35 2 0 0 0 0 0 6 75 66 21 15 19
7 5 0 1 3 7 12 20 36 73 110 139 145 143 111 53
28 11 3 5 13 15 13 17 17 14 8 6 23 26 0 0
0 0 4 4 8 31 33 33 34 35 35 37 36 37 37 48
29 36 40 40 41 41 42 42 42 43 42 43 43 43 42 42
43 43 40 43 44 45 36 27 38 11 39 41 25 30 20 37
44 0 0 0 0 1 11 18 45 29 16 15 7 0 0 0
6 12 12 5 8 14 16 41 50 43 44 47 49 45 25 36
39 39 38 32 3 0 0 0 0 0 4 43 21 7 12 21
23 16 5 4 6 5 6 10 38 89 79 115 138 119 64 41
15 0 0 4 10 19 26 43 49 26 9 2 20 26 3 0
0 0 0 1 12 35 38 39 40 41 41 42 42 40 35 40
30 40 41 42 43 43 44 44 44 44 45 44 44 44 44 44
41 42 41 42 44 45 44 36 27 21 23 36 20 20 34 37
41 0 0 0 0 3 0 10 49 29 15 15 10 0 0 3
0 0 0 0 0 3 5 41 51 32 33 27 31 38 42 41
39 39 40 34 8 0 0 0 0 0 8 34 18 4 21 55
58 28 20 10 13 6 4 10 63 152 92 49 70 50 76 75
14 3 5 6 8 29 56 128 139 57 10 2 13 44 22 0
0 0 0 0 9 41 43 44 44 43 44 44 43 41 18 13
14 41 45 46 45 45 45 43 45 45 45 45 45 45 44 45
44 42 42 41 43 44 45 43 34 22 2 1 2 18 44 36
39 0 0 0 0 2 0 0 48 24 15 5 0 0 0 12
8 2 3 0 0 0 2 38 52 34 25 39 37 33 36 41
40 40 40 39 18 0 0 0 0 2 30 40 16 7 42 137
150 84 28 17 10 4 6 7 32 102 79 44 52 45 96 149
55 3 3 4 7 28 77 149 151 72 5 5 11 49 62 4
0 0 0 0 5 41 44 44 44 44 45 45 44 42 17 11
8 39 44 45 46 46 45 44 45 46 45 46 46 45 45 45
44 44 41 41 40 43 44 44 42 31 5 0 3 32 40 35
37 0 0 0 0 0 0 1 51 12 1 0 0 0 1 11
13 6 0 0 0 0 1 39 53 32 15 38 36 30 35 40
39 40 40 41 22 0 0 0 0 17 62 41 11 12 40 136
151 68 14 10 4 1 1 2 8 27 64 47 85 65 88 143
53 1 0 0 5 19 39 82 95 23 5 7 12 50 75 16
0 0 0 0 6 42 46 46 46 33 21 12 12 43 12 15
6 38 44 45 46 45 46 45 45 45 46 46 46 45 45 45
43 45 44 41 39 41 43 43 40 40 21 0 12 36 29 31
36 0 0 0 0 0 0 1 53 15 0 0 0 0 1 2
21 15 8 2 1 0 1 38 54 34 10 24 22 23 36 39
40 39 40 40 28 1 0 0 0 33 66 37 6 7 16 52
62 20 9 4 1 0 0 1 5 22 57 87 137 127 65 55
18 6 1 0 2 6 13 20 22 11 3 5 13 48 78 29
0 0 0 0 7 41 46 47 44 13 6 13 23 38 13 1
4 38 45 46 47 46 45 46 46 45 45 45 44 45 45 45
44 45 45 43 40 39 39 39 39 43 29 0 11 35 27 30
27 0 0 0 0 0 0 5 54 9 0 0 0 0 5 14
18 17 21 4 0 0 1 38 54 36 24 29 29 23 35 39
40 40 41 40 35 8 7 13 2 44 68 37 5 3 6 12
14 8 6 3 0 0 0 0 3 31 52 105 140 136 68 48
9 3 0 0 1 3 6 11 9 5 1 3 14 53 77 31
0 2 0 0 16 44 47 47 46 44 44 46 45 42 17 6
7 37 44 45 46 46 46 46 46 46 45 46 45 45 45 45
44 44 44 44 43 39 38 39 41 42 32 0 10 38 28 31
25 0 0 0 6 1 0 2 53 6 0 0 0 0 11 26
26 17 15 4 0 2 3 36 54 38 30 23 8 17 33 39
40 40 41 41 40 35 26 9 3 47 68 36 6 1 2 6
8 6 3 1 0 0 0 0 2 38 64 113 133 135 90 52
14 0 0 0 0 0 2 4 4 2 0 0 13 58 75 30
0 3 5 2 31 47 48 47 47 46 46 44 43 41 26 1
8 38 45 46 47 45 46 45 46 45 46 45 45 45 44 45
44 44 45 44 44 43 38 39 42 44 34 0 7 39 28 30
23 0 0 6 20 9 0 2 53 4 0 0 0 0 3 6
28 5 1 1 1 2 2 33 54 40 30 17 10 9 31 38
40 40 40 40 41 48 24 0 3 48 67 40 7 0 0 2
2 1 0 0 0 0 0 1 10 43 90 115 128 128 109 55
37 0 0 0 0 0 2 3 2 2 0 0 16 65 73 28
0 0 20 22 42 47 47 47 47 46 46 45 43 41 32 2
15 40 45 45 47 46 46 45 45 45 45 45 45 46 45 45
44 44 44 44 44 41 38 37 42 43 34 0 6 39 29 28
22 0 0 18 22 13 3 2 51 4 2 0 0 0 1 0
20 3 0 0 0 0 0 28 54 39 17 8 2 3 30 37
41 41 41 41 42 57 21 0 2 47 66 49 18 0 0 0
1 1 0 0 0 0 0 2 26 56 104 119 133 132 117 80
51 14 0 0 0 0 5 8 4 3 1 0 24 75 71 27
0 4 35 42 45 47 47 47 47 46 46 46 43 41 35 27
31 41 45 46 47 46 45 45 46 44 45 45 45 45 45 44
44 44 45 44 43 44 39 35 39 43 38 2 3 27 18 15
27 11 8 21 18 19 7 2 51 2 4 0 1 0 0 0
21 6 0 0 0 0 0 25 54 34 10 14 0 5 31 36
41 41 41 41 41 65 20 0 4 44 65 62 31 1 0 1
4 2 1 0 0 0 3 14 40 89 111 129 140 139 125 108
59 43 3 0 0 0 4 7 5 3 1 5 51 85 68 29
5 20 48 47 46 47 46 47 46 46 46 45 43 40 37 37
39 45 47 46 47 47 45 45 45 45 45 45 45 45 45 44
44 44 45 44 44 43 38 34 24 24 23 1 0 31 29 28
34 49 48 53 50 47 47 44 55 3 0 0 0 0 0 0
20 6 0 2 0 0 0 16 55 27 8 8 2 15 33 35
40 40 41 41 39 65 54 16 11 41 63 71 51 13 0 1
5 4 1 0 0 0 4 29 60 97 114 133 145 141 130 119
92 44 35 3 0 3 7 7 5 5 7 35 80 83 68 38
17 43 57 47 46 47 46 46 46 45 45 45 44 41 39 39
44 45 45 45 46 46 45 45 46 46 45 45 45 45 45 45
45 43 43 42 43 42 37 35 35 36 39 3 1 30 30 26
32 48 49 54 52 51 58 62 59 17 9 17 2 0 0 3
23 11 3 4 2 0 0 10 52 27 8 2 4 5 29 34
41 41 41 41 35 59 85 53 31 39 61 73 80 46 14 2
0 0 0 0 0 5 26 54 81 103 117 136 148 146 138 125
106 72 45 34 17 15 12 17 24 33 53 87 97 86 68 48
64 89 56 46 47 46 46 47 47 46 45 44 44 42 42 42
46 47 47 46 46 47 46 46 46 45 45 43 45 44 45 45
45 45 45 43 43 42 37 34 36 38 37 4 0 25 29 26
30 50 50 52 51 52 62 64 62 42 40 40 38 34 31 30
33 23 21 17 16 14 14 21 43 32 14 12 19 5 12 32
40 40 41 41 33 47 89 70 52 37 57 73 85 87 61 35
23 17 14 16 26 53 91 91 110 119 122 138 148 148 144 134
125 105 89 97 83 74 67 72 85 106 125 117 98 87 68 58
92 97 51 46 46 46 46 46 47 45 45 44 43 43 44 44
45 44 43 44 43 45 44 44 44 44 44 45 45 45 44 44
43 43 43 39 38 39 36 33 33 36 37 8 0 25 29 25
30 41 42 45 45 45 50 48 49 42 43 44 43 40 41 42
42 39 36 32 31 29 29 32 45 42 28 26 21 14 18 30
40 40 40 40 33 43 80 87 80 38 52 71 87 104 113 113
109 107 104 110 121 129 109 92 115 131 134 132 139 136 136 138
136 123 106 110 131 141 144 144 145 145 140 117 96 85 65 70
106 90 46 46 46 46 46 46 45 44 44 44 43 42 42 43
43 44 44 45 45 45 45 44 44 43 43 44 43 42 43 42
42 42 41 41 41 40 36 31 32 36 36 10 0 20 29 24
32 44 41 43 43 44 43 38 38 42 43 45 46 42 43 43
43 42 41 45 44 40 37 38 46 56 53 51 50 46 41 35
40 40 40 39 32 42 71 97 85 41 47 67 85 106 119 128
139 146 147 142 137 126 88 88 91 90 103 110 120 119 116 108
93 95 106 97 113 129 142 145 145 145 136 116 95 83 62 77
113 82 45 45 45 44 44 44 44 44 44 44 44 43 44 46
45 44 44 45 46 45 45 44 45 44 44 43 43 43 44 43
42 42 41 40 40 39 35 30 31 36 34 11 0 16 29 24
31 49 42 42 42 42 42 43 45 47 44 48 51 54 52 44
44 44 43 54 55 52 49 50 49 44 41 41 43 44 44 38
40 39 40 40 35 41 63 97 86 45 42 62 80 100 113 120
129 136 142 138 130 116 86 77 62 64 71 78 91 98 86 73
69 68 85 101 116 106 128 142 145 142 130 111 93 80 58 85
113 72 45 46 45 46 46 46 46 45 45 45 46 44 45 46
45 44 45 45 45 45 44 45 44 45 43 43 43 42 44 42
42 41 40 40 40 39 35 31 30 35 34 12 0 14 29 25
56 52 45 45 45 45 46 49 52 54 46 49 52 59 53 46
39 39 44 56 54 52 48 50 49 44 35 29 29 28 29 34
40 40 40 39 32 41 52 94 85 55 39 57 76 94 104 112
121 127 135 132 123 122 108 98 96 107 118 101 85 92 106 122
120 110 106 119 117 102 101 126 137 134 124 108 89 79 54 85
103 54 45 46 45 45 45 45 45 45 45 44 46 44 46 45
45 44 44 44 45 44 44 43 44 44 43 43 43 42 43 41
41 40 40 38 38 38 34 28 29 33 33 16 0 12 28 23
61 55 49 40 45 42 44 50 55 58 47 50 51 49 49 48
45 37 35 53 53 51 51 53 51 47 42 35 35 34 34 37
39 40 40 39 32 43 46 74 83 76 38 52 73 92 98 108
114 122 128 123 118 123 114 108 109 115 127 140 142 142 142 137
126 121 120 116 118 122 96 106 125 125 118 103 85 75 52 90
77 44 45 45 45 45 44 45 45 44 44 44 45 44 45 45
45 45 45 44 44 45 45 44 43 43 43 43 42 41 42 41
40 39 39 38 37 35 34 27 28 33 31 17 0 8 27 24
62 52 10 23 13 13 16 22 34 57 48 48 29 29 36 37
36 38 37 37 13 10 14 24 30 34 45 41 38 40 41 41
44 42 40 38 34 43 45 53 80 89 45 46 68 93 104 107
115 120 123 118 123 122 114 110 115 118 126 139 145 146 145 140
124 116 117 114 120 129 116 94 116 122 117 99 82 71 58 89
54 45 45 45 45 45 44 44 44 44 44 44 46 44 45 44
44 44 45 45 44 43 44 44 44 42 42 42 42 41 43 40
39 40 38 37 37 36 34 28 26 31 31 17 0 7 27 24
35 38 1 0 0 0 0 0 4 52 49 32 1 1 4 8
12 26 42 37 4 0 0 1 10 16 42 36 40 41 47 49
51 48 41 37 37 43 46 48 68 90 49 42 61 86 108 115
120 124 125 122 124 116 113 113 117 121 128 138 142 143 142 142
129 124 124 122 121 125 123 106 110 123 119 99 82 66 61 76
45 44 45 45 45 45 39 38 36 32 29 25 31 42 46 46
45 44 46 45 45 45 45 43 44 43 42 42 42 42 43 40
40 39 39 38 37 37 34 27 25 30 31 19 0 6 28 26
38 38 9 6 0 0 0 3 12 53 46 10 0 0 0 0
7 34 44 39 1 0 0 0 9 19 34 1 5 8 11 12
33 52 41 35 39 44 45 48 47 52 19 38 57 78 104 119
123 128 129 123 125 116 116 114 113 114 118 121 122 133 129 117
111 108 112 116 121 127 130 116 119 122 116 98 82 58 33 34
36 39 45 45 46 45 23 11 12 12 12 12 18 43 47 47
46 45 46 46 46 45 45 45 44 44 42 42 42 42 43 41
40 39 39 38 37 35 33 27 25 30 31 21 0 5 28 26
46 41 6 4 0 0 0 3 24 55 40 2 0 0 0 0
0 32 45 40 2 0 0 0 6 16 36 0 6 14 5 0
23 54 42 36 42 45 46 49 46 35 8 31 50 72 98 122
127 130 134 124 130 116 104 90 83 86 94 100 101 99 106 102
94 97 51 65 111 124 133 130 133 128 121 97 82 49 12 9
9 18 46 47 46 46 24 13 14 12 13 13 19 46 48 48
48 47 47 47 46 46 45 44 44 44 43 44 43 42 43 42
40 40 40 37 37 35 34 27 25 29 31 23 0 3 25 22
49 43 5 9 0 0 3 4 3 49 33 0 0 0 0 2
0 31 44 40 3 0 0 0 4 16 38 0 9 17 11 0
21 54 43 35 43 45 46 49 47 41 23 19 43 66 88 117
131 135 139 131 126 106 70 71 105 129 138 142 147 144 148 147
143 145 82 12 79 119 132 141 144 135 122 95 80 36 9 9
9 16 45 46 46 45 22 13 13 14 13 13 17 45 48 48
47 48 47 47 46 45 45 44 45 44 44 43 43 42 41 42
41 40 39 37 36 33 33 26 22 25 28 23 0 3 26 28
49 46 3 0 0 0 5 13 2 47 31 0 0 0 0 0
0 31 43 36 3 0 0 0 1 10 41 0 3 5 1 0
18 54 43 35 43 45 47 49 48 43 32 9 36 57 82 109
130 138 141 137 125 109 95 97 96 108 113 114 125 114 125 129
116 103 78 61 104 123 135 146 147 139 116 96 70 24 8 9
8 12 43 46 46 46 21 13 13 14 13 14 15 41 48 48
47 48 46 46 46 46 45 44 44 42 42 41 41 40 41 41
40 39 38 36 35 35 33 26 22 25 28 24 0 2 24 26
37 52 19 4 0 0 2 6 0 43 28 0 0 0 0 0
0 31 45 34 2 0 0 0 0 2 44 2 10 14 10 0
16 53 43 36 43 45 47 49 48 43 37 9 24 48 77 101
125 136 143 140 129 118 103 95 91 96 106 119 116 117 120 120
101 91 93 100 110 130 139 148 146 135 112 94 57 15 8 9
8 13 43 46 46 45 23 12 12 13 14 13 13 40 48 47
46 45 44 45 44 43 44 44 44 44 44 44 43 43 42 39
38 37 36 35 33 32 31 24 22 25 28 25 1 0 23 26
33 53 19 4 0 0 6 12 3 41 27 0 0 0 0 0
0 22 46 36 13 0 0 0 0 3 46 4 1 2 2 0
14 52 41 35 42 44 46 48 47 45 39 11 11 39 66 95
115 130 143 143 132 125 115 103 102 114 122 127 129 129 131 127
117 110 103 106 122 134 144 147 141 127 108 86 41 9 8 9
7 12 43 45 45 45 29 18 19 19 20 22 21 34 44 45
45 45 47 47 46 45 42 43 43 44 43 42 41 41 41 39
37 36 35 34 33 31 30 23 20 22 26 25 2 0 20 24
28 52 5 0 0 0 0 0 0 41 29 0 0 1 0 0
0 17 49 35 4 0 0 0 0 0 44 8 0 2 0 0
12 50 40 36 43 43 46 49 48 46 40 16 2 32 54 87
108 122 140 144 135 125 121 110 108 120 135 141 137 139 140 138
131 119 116 119 131 136 144 145 134 121 105 71 26 8 8 9
8 11 42 45 46 45 32 20 21 19 17 15 27 52 25 25
42 47 47 46 46 45 44 44 43 43 44 42 42 40 40 38
37 35 35 33 32 31 30 23 20 22 26 26 3 0 18 25
23 46 3 0 0 0 0 1 0 38 33 0 0 0 0 0
0 13 49 35 4 0 0 0 0 0 42 13 0 0 0 0
14 47 39 37 42 44 46 48 47 42 35 21 0 20 42 73
99 115 131 143 139 128 119 117 121 127 138 142 140 142 146 146
138 127 126 128 132 136 143 138 127 115 93 52 13 8 8 9
8 10 40 45 47 45 31 12 14 13 2 0 9 18 22 5
30 47 46 46 45 46 44 43 43 43 43 41 42 40 39 38
37 35 34 32 31 29 28 23 20 21 26 25 3 0 16 24
19 43 3 0 0 0 0 15 1 35 42 0 0 0 4 0
1 11 51 37 29 22 21 18 21 20 48 18 0 0 0 0
13 46 38 36 42 43 45 48 42 42 44 34 4 13 34 57
90 106 120 136 135 130 122 119 121 125 133 138 138 140 144 144
135 130 128 128 132 136 141 130 121 106 77 28 6 8 7 9
6 9 39 44 47 43 32 11 13 14 11 2 12 25 30 10
28 45 46 45 45 45 44 43 43 42 42 41 41 40 39 37
36 34 33 31 30 28 28 23 18 19 25 25 5 0 15 24
11 45 33 32 25 26 34 45 36 45 50 51 49 45 49 48
48 50 56 37 44 48 51 52 58 63 63 42 32 30 28 26
31 43 37 34 41 42 44 45 41 45 44 40 20 13 34 41
73 95 107 126 133 132 126 120 120 123 131 137 139 139 142 141
131 129 124 126 132 136 136 123 112 94 57 10 9 10 7 9
6 8 39 44 47 43 33 11 12 13 10 3 6 5 1 8
27 45 45 45 45 45 44 43 43 42 41 41 41 40 39 37
36 33 33 31 29 29 27 23 18 18 23 24 7 0 12 23
5 45 45 47 41 45 56 56 51 48 45 61 58 54 54 56
59 60 60 39 40 48 51 54 61 65 65 50 38 39 39 40
42 40 37 34 40 43 44 41 45 45 44 41 28 32 36 38
53 81 92 112 126 131 130 124 121 123 131 142 146 144 146 143
133 127 127 130 132 135 128 116 102 78 41 11 12 9 8 11
6 8 38 44 46 43 34 12 12 13 11 11 14 13 4 4
25 45 37 32 44 44 44 43 43 42 41 42 40 38 38 36
34 33 32 31 29 28 27 23 18 18 24 24 8 0 10 24
3 45 46 40 41 46 54 57 49 41 37 52 56 55 55 55
55 55 56 42 31 37 44 46 51 51 50 45 38 38 39 38
37 37 39 37 35 38 37 43 46 44 44 41 31 35 39 41
41 63 78 93 115 122 128 130 130 129 140 147 147 147 148 146
136 131 131 131 132 130 116 102 86 58 33 0 3 8 8 12
6 7 36 44 46 43 34 11 12 8 3 15 1 0 0 2
15 15 17 17 12 44 43 43 42 42 41 40 39 39 37 36
34 33 32 29 28 28 28 23 18 17 23 23 9 0 8 23
1 43 35 33 33 35 45 57 52 45 39 28 30 30 29 29
30 29 33 36 35 37 40 40 38 33 32 37 39 39 39 39
39 39 39 38 39 39 42 47 46 44 44 34 29 33 42 42
42 43 62 73 94 110 119 124 127 132 142 146 145 145 148 148
142 131 126 127 131 120 99 85 65 52 26 1 4 8 7 11
6 6 35 43 45 43 34 10 11 6 44 68 36 0 2 1
17 39 44 43 16 34 44 42 42 42 41 40 39 38 37 36
34 33 31 29 28 28 27 24 17 17 23 23 10 0 8 24
4 42 28 22 28 31 40 49 48 45 42 30 31 30 32 35
35 35 37 40 41 43 45 45 43 39 36 37 39 39 39 39
39 39 39 38 39 41 44 47 45 43 39 33 34 36 40 46
46 40 44 59 71 94 109 115 122 126 132 137 138 139 138 141
140 134 122 124 120 99 77 61 50 56 21 8 8 7 8 11
6 7 34 43 45 43 35 10 11 8 43 55 53 0 0 6
45 45 44 44 30 22 45 43 42 42 41 40 38 37 36 34
32 32 32 30 28 27 27 24 18 17 23 23 12 0 7 23
23 43 20 0 0 1 2 8 12 16 45 35 43 42 43 53
53 44 42 45 45 48 54 54 52 39 38 37 38 39 39 39
39 39 38 38 39 41 43 47 45 40 34 33 34 34 36 50
47 48 38 42 55 68 92 105 112 117 118 122 126 127 122 124
126 122 117 115 99 70 55 46 58 53 20 7 7 7 7 10
6 6 33 43 45 44 37 10 9 7 30 9 31 0 0 6
45 44 43 43 36 18 44 43 42 41 40 38 37 35 34 34
32 31 31 30 29 28 27 25 19 17 23 25 15 0 4 24
45 48 23 0 0 0 0 0 6 19 48 36 50 49 50 64
64 17 12 13 16 17 22 43 54 41 39 38 39 39 39 39
39 38 38 38 38 40 42 46 43 33 31 31 35 33 33 55
53 50 51 40 39 48 65 87 97 102 106 107 109 109 109 113
112 108 104 92 64 49 46 58 62 54 23 7 7 7 6 8
6 5 31 43 45 44 39 19 23 19 1 2 3 0 2 9
43 45 44 44 36 22 44 43 42 41 40 37 35 33 32 31
29 30 30 29 28 27 26 24 18 19 25 26 17 0 3 26
46 49 28 0 0 0 0 0 0 16 50 34 47 39 19 28
46 6 0 0 0 0 0 33 54 41 39 39 39 39 39 39
39 38 38 38 38 39 42 47 38 31 4 0 33 34 31 58
60 55 56 54 42 36 43 57 73 84 87 87 86 87 91 92
92 87 74 53 44 45 57 65 59 61 25 7 7 6 6 8
6 6 31 43 45 44 43 37 8 22 5 0 0 0 0 0
39 45 44 43 28 30 42 41 41 41 39 36 34 33 33 31
30 30 31 30 28 28 28 25 18 15 21 23 16 0 2 24
45 46 32 0 0 0 0 0 0 14 50 34 46 33 0 3
36 7 0 0 0 0 0 29 52 41 39 39 38 38 38 39
38 37 37 38 38 40 42 44 36 31 11 10 31 34 31 59
65 63 62 61 57 47 38 37 40 46 50 53 54 53 56 57
52 45 41 42 47 61 71 65 66 69 30 6 6 6 7 8
7 5 29 41 42 44 43 35 38 64 43 0 0 0 0 1
42 45 46 44 15 40 44 42 42 42 39 34 31 30 29 29
28 29 30 29 28 27 27 26 18 16 21 24 17 0 2 24
9 12 4 0 0 0 0 0 0 17 49 34 47 34 0 2
33 9 0 0 0 0 0 21 52 41 39 38 38 38 38 38
37 37 37 37 38 39 40 40 35 35 27 27 33 34 30 60
69 70 67 68 65 61 53 46 37 32 32 32 32 33 30 29
30 33 40 52 64 74 70 67 74 74 37 5 6 6 6 7
6 5 29 44 44 45 44 37 38 52 45 0 0 0 0 0
25 27 26 16 21 42 12 9 25 41 38 34 30 28 28 28
26 28 29 29 27 27 26 26 18 16 20 24 19 0 1 22
7 11 3 0 0 0 0 0 0 17 48 35 46 33 0 2
30 13 0 0 0 0 0 15 52 42 38 38 39 38 38 37
38 37 37 37 38 39 40 40 34 29 26 31 33 34 32 62
72 75 74 73 72 69 67 64 62 56 47 40 37 35 34 35
37 47 62 70 78 76 71 76 81 78 44 5 5 6 5 5
3 2 12 15 11 8 5 2 0 0 1 1 0 0 0 0
0 0 0 0 0 14 5 36 22 41 38 34 30 28 26 28
26 27 28 29 28 27 27 26 19 16 21 24 21 0 0 22
10 14 2 0 0 0 0 2 0 14 48 34 46 32 0 3
28 13 0 0 0 0 0 13 51 42 38 38 38 38 38 37
38 37 37 38 37 39 40 40 36 25 17 21 26 25 30 64
74 75 78 79 75 75 74 73 77 84 86 85 85 86 90 93
93 92 87 85 86 84 86 87 89 85 57 16 9 0 0 0
0 0 0 0 0 0 1 2 3 4 4 6 8 10 10 11
13 11 0 0 28 11 61 83 63 37 34 28 29 27 26 27
26 27 29 28 28 28 27 25 19 17 21 24 22 0 0 21
13 16 3 0 0 0 0 3 0 9 49 35 47 34 0 4
25 18 3 0 0 1 0 9 50 41 37 37 38 37 38 37
37 37 37 37 37 38 39 40 38 33 29 31 30 29 38 65
78 80 79 82 82 79 79 82 89 104 117 124 129 132 132 130
124 111 97 93 94 98 97 97 97 93 68 31 41 2 1 8
11 14 16 18 19 20 20 20 20 20 20 21 22 23 23 23
20 15 0 0 8 4 2 5 5 4 3 6 30 28 28 29
29 30 31 31 30 30 28 28 22 19 23 27 25 0 0 23
16 18 3 1 1 0 0 12 3 7 51 35 48 38 19 4
23 21 6 5 3 3 0 8 49 41 37 38 37 38 37 37
37 37 37 37 37 38 39 39 38 31 32 36 34 35 45 69
83 88 91 94 92 90 89 91 94 103 119 132 137 141 145 140
123 110 102 97 100 102 102 101 103 99 75 28 63 7 1 14
17 21 21 23 22 23 22 22 22 21 22 23 23 24 24 24
20 15 0 0 0 0 0 0 0 10 7 9 38 36 35 34
35 37 35 32 27 25 24 21 15 11 11 10 7 0 0 1
16 19 3 3 1 0 0 16 20 4 53 35 49 34 28 10
20 18 3 12 11 3 0 6 47 40 37 37 37 38 37 37
37 37 37 37 37 37 37 37 38 30 35 38 36 32 46 74
91 99 103 109 111 99 93 94 97 98 108 130 140 143 143 130
115 109 103 101 102 104 106 108 105 99 81 23 0 0 2 16
18 22 23 24 24 24 24 23 23 24 25 26 26 26 26 25
22 16 0 0 0 0 0 0 0 7 5 11 16 14 14 14
15 17 20 21 22 23 25 27 28 25 27 31 35 5 0 32
17 20 11 8 12 11 13 25 30 20 55 36 51 31 23 22
18 17 3 11 9 3 2 7 42 37 36 37 37 37 37 37
37 37 37 37 37 37 36 36 38 34 39 36 14 12 54 77
96 104 113 118 114 111 95 91 98 99 100 116 135 141 135 119
112 109 108 101 102 104 110 110 107 100 85 49 1 1 4 15
19 22 25 25 26 26 25 25 25 26 26 27 28 27 27 25
23 18 0 0 0 0 0 0 0 0 46 52 50 49 49 49
50 54 54 53 52 51 50 50 47 40 40 46 47 8 0 32
17 18 37 41 45 47 50 56 60 61 64 40 51 26 9 31
17 36 32 32 31 30 29 29 30 31 36 36 36 37 36 36
36 36 36 37 36 36 36 36 39 34 38 19 12 49 65 80
99 106 113 121 118 111 104 95 95 101 100 105 119 131 125 115
112 115 110 103 103 110 114 113 109 100 89 79 38 14 12 19
21 25 25 25 27 27 28 26 27 28 28 29 29 28 28 26
24 21 0 0 0 0 0 0 0 0 48 51 50 50 49 49
51 52 53 51 51 50 51 50 47 40 39 45 47 10 0 28
18 16 38 46 48 49 52 58 61 62 65 52 48 28 1 12
14 33 28 29 29 29 28 28 30 33 35 35 36 37 36 36
36 36 36 36 37 36 35 35 37 28 27 18 49 62 73 83
98 106 116 121 124 115 104 98 99 105 106 100 106 115 115 117
121 117 110 101 108 115 116 116 110 101 92 87 73 54 20 10
22 21 26 26 27 28 28 28 28 29 30 30 30 29 29 27
26 22 0 0 0 0 0 0 0 0 48 50 49 49 49 49
50 51 51 50 50 49 49 49 48 40 39 44 47 13 0 26
18 16 27 40 40 41 42 45 48 47 46 42 44 28 0 5
12 36 33 35 35 34 34 35 34 34 35 36 36 36 36 36
36 36 36 36 36 36 36 29 23 22 26 39 60 77 80 87
96 108 116 120 124 123 112 98 100 106 111 110 110 113 117 121
121 118 110 104 113 116 116 116 111 101 97 93 93 71 74 55
16 31 19 24 27 27 28 29 29 29 30 30 31 29 28 27
26 21 0 0 0 0 0 0 0 1 48 50 49 48 48 49
49 49 49 49 50 49 49 48 47 40 38 43 47 17 0 24
18 16 9 7 8 10 13 19 25 27 28 24 42 29 0 2
9 37 34 36 35 36 35 36 35 35 35 35 36 35 35 36
36 36 35 36 36 33 28 21 27 22 24 51 71 91 85 89
98 109 118 121 124 123 120 103 98 108 113 114 117 119 122 123
122 117 108 110 113 117 116 117 111 106 101 98 102 93 78 92
76 35 26 19 22 26 28 28 29 29 29 29 29 28 28 27
27 21 0 0 16 39 17 0 0 4 49 49 48 49 48 48
48 48 48 48 48 48 49 49 47 41 38 42 47 19 0 20
17 16 12 10 11 12 15 20 26 27 29 26 42 31 1 1
7 37 32 35 35 34 35 35 35 34 35 35 35 35 35 36
36 35 36 36 31 23 23 24 25 20 22 56 95 97 88 90
101 110 118 121 124 124 122 111 101 106 117 121 122 125 125 124
120 112 112 110 114 117 119 118 114 108 103 102 105 111 99 88
88 38 29 27 22 26 26 28 28 28 29 29 28 28 27 27
27 20 0 0 27 52 19 0 0 7 50 49 48 48 48 48
48 48 48 48 48 48 48 48 47 41 38 41 47 20 0 17
17 18 18 16 16 17 17 22 27 28 29 27 43 36 25 31
37 40 32 35 35 35 35 35 35 34 34 34 35 34 35 35
35 36 36 25 19 23 22 24 24 23 19 56 105 102 93 93
103 111 119 122 125 126 122 113 103 105 116 123 125 128 128 122
118 115 110 114 119 120 120 117 115 111 105 108 109 115 118 110
78 28 28 31 26 28 17 26 27 29 29 28 28 28 28 27
28 18 0 0 0 0 0 0 0 8 50 48 48 48 48 48
48 47 48 47 48 48 48 47 47 42 38 40 46 22 0 15
17 19 19 17 19 20 22 26 31 32 31 29 46 41 47 56
54 40 30 34 35 34 34 35 34 34 34 35 35 34 35 35
40 33 20 19 20 24 22 24 25 24 18 36 96 106 97 94
107 110 117 122 124 127 122 116 108 102 113 121 123 126 125 123
119 112 115 120 123 122 120 119 116 112 109 111 115 118 123 123
69 24 27 31 27 26 19 21 26 28 30 29 28 28 28 28
27 17 0 0 4 7 0 0 0 11 49 48 48 48 48 48
47 48 48 47 47 48 48 48 48 43 38 39 46 25 0 13
17 18 18 17 18 19 21 25 30 32 29 24 32 28 29 32
32 30 32 33 34 34 34 34 34 34 34 34 34 34 36 32
23 19 19 17 20 23 22 21 24 26 19 20 67 111 100 99
109 113 117 121 121 125 125 117 110 104 104 114 122 126 124 119
114 116 120 122 123 121 120 118 118 114 114 114 120 125 126 107
34 27 28 26 28 27 21 20 21 23 24 25 26 28 28 27
28 16 0 0 2 2 0 0 0 16 49 47 47 47 47 47
47 47 48 47 47 47 47 47 47 44 37 38 45 28 0 10
17 18 19 18 19 19 21 25 31 31 29 28 30 29 27 27
31 31 32 34 34 34 34 34 34 34 34 34 36 33 28 22
20 21 19 18 20 23 19 19 24 24 22 14 36 92 104 107
114 116 117 121 122 126 128 123 115 109 106 111 120 126 122 118
117 119 123 124 123 121 120 120 120 118 116 119 123 128 125 57
28 25 25 27 28 24 20 21 19 19 19 21 18 20 29 28
27 16 0 0 0 0 0 0 0 18 49 48 48 47 47 47
48 47 47 47 47 47 47 48 47 44 37 37 45 31 0 8
16 17 19 20 20 20 22 25 30 31 28 28 29 29 30 28
31 31 32 33 34 34 33 33 33 34 36 33 27 23 21 20
19 19 18 18 20 22 21 20 25 24 25 18 16 48 99 113
116 117 117 119 120 123 126 123 117 113 111 110 112 116 116 117
119 121 124 125 123 122 122 123 122 119 119 123 128 125 76 28
28 27 23 26 27 23 21 23 21 18 16 16 16 16 20 25
27 16 0 0 0 0 0 0 0 5 47 47 47 46 47 47
47 47 47 46 46 47 47 47 47 45 37 37 44 33 0 5
16 17 19 19 20 21 23 26 30 31 29 29 30 30 30 28
31 31 32 32 33 33 33 33 37 35 29 23 24 22 21 18
18 21 20 20 20 18 19 19 22 25 24 22 18 21 48 103
118 120 120 119 122 124 126 124 119 114 114 114 114 117 120 120
121 123 126 123 123 122 124 125 122 121 122 126 128 81 31 26
28 27 25 27 23 24 23 20 19 18 17 15 13 17 16 20
19 22 17 3 0 0 0 0 0 11 26 47 47 47 46 46
47 46 47 46 46 46 47 46 46 44 37 36 43 34 0 3
15 17 17 19 20 20 22 26 31 31 29 29 30 30 30 30
30 31 32 32 32 33 34 36 29 23 21 21 22 21 20 17
18 20 21 20 20 20 22 21 17 24 24 23 20 19 19 36
94 122 121 120 121 124 125 125 120 115 112 113 114 117 119 118
120 124 125 126 123 122 124 126 126 125 124 123 76 30 27 26
26 26 25 24 17 19 20 20 18 17 15 15 15 17 17 18
19 17 18 22 18 4 0 0 0 29 18 41 46 46 46 46
46 46 46 46 46 46 46 46 46 45 36 35 42 36 0 1
14 16 17 18 19 20 22 26 31 31 30 29 30 29 29 30
30 30 31 32 33 33 27 21 19 21 19 19 20 19 17 17
18 19 19 19 19 18 19 21 20 18 23 20 23 22 20 19
32 81 119 119 119 123 125 127 122 118 111 109 111 112 113 116
120 124 127 124 121 120 126 129 127 126 115 58 26 24 26 26
27 25 24 17 15 16 19 18 16 16 16 15 16 16 18 19
19 17 16 17 20 20 14 2 0 31 40 17 46 46 46 46
46 45 46 45 46 45 45 45 46 44 37 35 40 39 0 0
13 15 17 18 18 20 22 25 30 31 30 30 30 29 30 30
30 30 30 32 34 25 15 16 16 18 19 20 20 15 15 17
18 17 18 20 20 20 20 23 23 21 22 22 22 24 23 19
18 24 49 91 117 120 124 127 127 122 117 113 109 111 114 118
120 125 127 124 120 123 127 130 128 90 37 21 22 22 25 26
25 24 19 20 20 18 19 17 17 18 16 17 17 14 18 19
18 19 18 17 15 16 18 20 11 34 45 24 33 46 45 45
45 45 45 45 45 45 45 45 45 44 37 34 39 40 0 0
14 16 18 19 21 23 24 27 30 30 30 30 29 29 29 30
31 30 35 32 23 19 15 16 18 17 18 17 19 15 16 20
18 20 20 21 21 20 21 22 26 27 22 25 26 26 26 23
22 19 19 26 47 88 120 130 131 126 123 118 116 116 117 119
123 130 130 125 123 126 127 102 53 25 20 22 25 25 24 24
25 22 23 22 19 18 18 18 20 18 17 19 17 13 18 21
17 18 19 17 16 14 17 18 21 30 43 43 14 40 45 45
45 45 45 45 45 45 45 45 45 45 38 34 39 42 1 0
18 20 22 23 25 26 27 28 29 29 29 30 30 29 29 29
32 34 29 22 21 17 14 16 19 14 17 18 20 14 15 20
21 22 21 20 21 21 22 21 22 27 27 21 24 28 26 26
24 23 20 19 19 22 41 79 109 126 126 122 120 119 119 121
124 127 127 120 104 77 45 26 21 20 22 24 25 24 24 26
23 25 26 20 18 18 19 21 22 20 18 19 17 12 19 22
17 18 19 17 15 16 15 15 17 17 25 26 4 1 40 45
45 45 45 45 45 45 45 45 45 45 38 34 37 42 1 0
20 22 23 25 26 27 28 28 29 29 29 29 29 29 29 32
30 20 18 18 18 16 12 14 18 16 16 18 20 13 15 18
21 20 23 21 20 21 22 21 20 21 24 25 21 20 27 29
29 27 25 24 23 21 20 20 23 36 56 68 78 86 86 83
78 71 55 37 26 21 22 24 24 26 25 24 23 24 27 23
26 26 23 17 17 18 19 20 21 20 20 20 18 13 19 21
16 17 20 17 17 16 17 16 16 18 18 19 33 8 34 45
44 44 44 44 44 44 44 45 44 44 38 34 36 43 3 0
14 19 24 25 27 27 28 29 29 29 29 29 29 29 33 26
18 15 15 15 14 14 15 12 17 16 15 19 21 17 17 21
22 21 22 21 22 21 21 19 20 20 19 21 23 21 17 26
29 29 27 28 26 25 25 23 21 18 19 19 20 21 22 22
20 22 21 22 21 23 26 26 27 27 27 26 25 25 23 25
26 26 24 18 19 19 21 19 20 21 20 18 16 15 21 21
17 17 17 18 18 18 17 15 15 17 18 17 25 16 27 45
44 44 44 44 44 44 44 44 44 44 40 33 36 42 4 0
16 17 21 23 24 26 27 28 29 29 29 30 30 29 22 15
13 11 13 15 17 19 20 14 16 19 16 21 23 17 18 22
23 21 23 20 20 21 23 22 21 23 21 19 20 23 17 15
19 26 29 29 30 30 27 29 28 26 24 25 25 22 22 24
25 25 26 26 26 26 28 28 25 26 30 29 19 22 24 25
25 23 20 17 18 18 20 19 21 19 18 19 12 17 21 19
15 17 18 17 17 16 16 15 15 19 15 14 14 10 9 40
44 44 44 44 44 44 44 43 44 44 40 33 35 42 7 0
