P2
128 120
156
45 44 44 44 43 42 41 41 40 40 39 39 38 38 38 37
36 36 35 35 34 33 32 32 31 31 31 30 29 29 28 28
28 27 26 26 26 25 24 24 22 20 19 17 17 18 21 22
23 25 20 14 26 31 27 26 24 24 23 21 19 17 14 13
14 13 18 19 17 20 14 19 21 21 22 24 24 24 25 25
25 26 26 27 28 28 28 28 30 30 30 31 31 31 32 32
31 33 33 34 35 36 37 37 37 38 38 39 39 39 40 41
41 41 43 42 41 42 42 42 43 43 43 43 43 43 43 43
44 44 44 43 42 42 41 41 40 40 40 39 38 38 37 37
36 35 35 35 34 33 33 32 31 31 30 30 30 29 28 28
28 27 27 26 26 25 24 24 23 21 20 19 18 18 22 24
26 27 21 13 26 30 27 26 25 24 24 22 22 19 18 16
16 13 17 20 20 16 20 21 23 23 23 25 25 25 26 25
27 27 27 27 28 29 30 30 30 30 32 32 32 31 32 33
34 35 35 36 36 36 37 38 37 38 38 39 40 40 40 40
41 40 43 42 41 42 42 42 42 42 42 43 43 43 43 42
45 44 44 43 42 42 41 41 41 40 39 38 38 38 37 38
37 36 35 34 34 34 33 32 32 32 31 30 30 30 29 28
28 28 27 27 26 26 25 25 24 22 22 20 20 20 25 27
28 29 22 12 24 31 28 27 26 25 24 23 22 20 20 21
17 14 16 19 20 19 21 23 24 25 25 26 28 27 27 27
28 28 28 29 29 30 30 31 31 31 32 32 32 33 34 35
35 37 35 36 37 38 39 38 39 39 40 39 40 41 40 41
41 41 43 40 42 42 43 42 42 41 43 43 43 44 43 43
45 44 44 43 43 42 42 42 41 41 40 39 39 39 38 37
37 36 36 35 34 34 33 32 32 32 31 31 30 30 30 29
29 28 28 28 27 26 26 26 25 23 23 20 21 21 27 28
30 30 23 14 24 32 29 28 27 26 26 24 24 20 22 22
20 16 14 22 19 21 22 25 26 26 26 28 28 28 28 28
29 29 29 30 30 31 31 32 32 32 32 34 34 34 35 35
36 38 37 37 37 38 38 38 39 39 40 39 40 40 41 41
41 42 44 41 43 43 43 43 43 43 43 43 43 43 43 41
45 44 44 43 43 42 42 41 41 40 40 39 39 39 38 38
36 36 36 35 35 34 33 33 32 32 32 31 30 30 30 29
29 28 27 28 28 27 26 26 25 25 24 22 22 22 29 30
31 31 24 16 23 32 29 28 28 27 27 26 25 21 23 23
21 18 13 23 19 23 24 26 26 28 27 29 29 29 29 30
30 30 30 30 31 31 32 33 33 34 34 34 35 35 35 36
37 38 37 38 38 38 38 39 40 39 40 40 41 41 41 41
41 41 44 42 42 42 43 43 43 43 42 41 43 44 44 45
44 44 44 43 43 43 42 41 41 41 40 40 40 39 38 37
37 36 36 35 35 34 34 33 33 33 32 31 31 31 31 30
29 29 28 28 28 27 27 26 26 26 25 24 24 25 30 30
31 31 24 17 22 33 30 29 28 28 27 26 25 23 24 24
23 20 14 23 22 24 26 27 28 29 29 29 30 30 30 30
30 30 31 32 32 33 33 34 34 34 34 35 36 36 36 36
37 39 37 38 39 38 39 40 40 40 40 40 41 41 42 41
42 42 44 42 42 43 41 41 42 42 43 44 43 43 43 43
45 45 44 43 43 43 42 42 41 41 41 40 39 39 39 38
37 37 36 36 35 35 34 34 34 33 32 32 31 31 31 30
30 29 29 28 28 28 27 27 27 26 26 26 27 26 32 32
32 32 25 19 21 34 31 29 29 28 28 27 26 25 25 25
24 22 16 23 23 26 28 28 29 29 29 31 30 30 31 31
31 32 32 33 33 33 34 34 34 35 35 35 35 37 37 37
37 39 38 39 39 39 40 40 40 40 41 41 42 42 42 42
42 42 41 40 41 42 43 44 43 44 44 44 43 45 44 44
45 44 43 44 43 43 42 42 42 41 41 40 39 39 39 38
38 37 36 36 36 35 34 34 34 33 33 32 32 31 31 31
30 29 30 29 28 28 28 27 27 26 26 26 27 27 32 32
32 33 24 21 21 33 32 30 29 29 29 28 27 26 26 25
25 24 17 24 24 28 29 29 29 29 29 30 31 32 31 32
31 32 32 33 34 34 34 35 35 35 35 35 36 36 36 37
37 40 39 39 39 39 40 41 41 39 41 41 42 42 41 39
41 41 43 44 43 42 43 43 42 43 43 44 43 44 44 44
45 44 44 44 44 43 43 42 41 41 40 40 40 39 39 38
38 37 37 36 36 36 35 34 34 34 34 32 32 31 31 31
30 30 30 29 29 28 28 28 28 28 27 27 28 28 33 33
33 33 25 23 19 34 32 30 31 30 30 29 28 30 26 25
26 24 18 25 24 28 29 29 30 30 31 32 32 32 32 33
33 33 34 34 34 35 34 34 35 36 35 36 36 37 38 38
38 40 39 40 40 40 41 40 41 38 38 40 40 41 42 43
43 43 43 43 43 44 43 43 43 43 44 45 44 44 44 45
45 45 45 44 43 43 42 42 42 41 41 40 40 39 39 38
37 37 37 36 35 36 35 35 34 34 34 33 33 32 32 31
31 31 30 30 30 29 29 28 28 27 27 28 28 29 33 33
34 34 26 24 19 33 33 31 31 31 30 30 29 28 27 28
27 25 22 27 26 30 31 31 31 31 32 32 32 33 33 33
34 35 34 35 35 35 36 36 36 36 36 36 37 38 38 39
38 40 39 40 40 40 40 39 40 42 42 42 42 42 42 43
43 43 43 43 44 44 44 43 43 44 44 45 44 44 44 45
46 44 44 44 43 42 42 42 41 41 41 41 40 40 40 39
39 38 37 37 36 36 35 35 34 34 33 33 33 33 32 32
31 31 31 30 30 29 29 29 28 28 28 28 29 30 35 34
35 35 27 24 20 34 34 31 29 31 30 30 29 30 27 28
28 27 24 29 28 31 31 31 32 32 33 33 34 34 34 34
34 35 35 35 35 35 36 36 37 37 37 37 38 39 38 38
39 41 39 39 37 38 39 41 41 41 42 42 42 42 43 43
43 42 43 42 44 44 44 44 44 44 44 44 44 45 45 44
45 45 45 44 44 43 42 42 42 41 41 41 40 40 39 39
38 38 37 37 37 36 36 35 35 35 34 34 34 33 32 32
32 32 31 30 30 30 30 29 28 28 28 29 30 30 34 35
35 35 29 25 17 29 34 31 31 32 31 32 30 31 28 29
28 28 23 29 29 32 32 32 32 33 32 33 34 34 34 35
34 35 35 35 36 36 36 37 37 37 37 38 38 39 38 37
36 37 38 40 41 41 42 42 42 43 43 42 43 43 42 44
43 43 44 44 43 43 44 44 44 43 43 44 44 44 44 45
45 45 44 44 44 43 42 42 42 42 41 41 40 40 40 39
40 39 38 37 36 36 36 35 35 35 35 34 34 33 33 33
32 32 32 31 31 31 30 30 29 29 29 29 30 31 35 35
36 36 27 22 12 27 35 33 33 32 32 32 31 32 29 30
30 29 24 31 31 34 33 33 34 34 34 34 35 35 35 35
36 36 36 36 36 36 37 37 37 38 38 38 37 37 37 39
40 40 41 41 41 42 41 43 42 42 44 43 42 43 43 43
44 44 43 44 44 44 44 45 45 44 44 45 45 45 45 45
45 45 45 44 44 44 43 43 43 42 42 41 41 40 40 40
40 39 39 38 38 37 36 36 36 36 35 35 35 34 34 34
33 32 32 32 32 31 30 31 30 30 29 30 31 31 36 36
37 36 28 23 21 31 36 34 34 34 33 33 32 33 30 31
31 30 25 32 31 34 34 34 35 34 35 35 36 36 36 35
36 37 37 37 37 38 38 38 37 38 37 38 38 40 40 40
41 41 41 41 42 42 42 43 44 43 45 44 44 44 44 44
44 44 44 44 44 45 44 45 45 45 45 45 44 45 45 46
45 45 44 44 44 44 43 43 42 42 43 41 41 41 41 40
40 40 39 38 38 37 37 37 36 36 36 35 35 35 34 34
33 33 33 32 32 32 31 31 30 30 30 30 32 33 36 37
38 37 29 23 26 28 37 34 35 34 33 34 33 34 31 31
32 31 26 33 32 35 35 35 35 35 35 36 36 37 37 36
36 37 37 37 37 38 37 37 39 39 38 40 39 40 40 40
41 41 41 41 42 42 43 42 43 43 45 43 44 44 44 44
45 44 45 45 45 45 45 45 44 44 45 46 46 45 46 46
46 46 45 45 44 44 44 43 43 42 42 41 41 41 41 41
40 40 40 39 39 38 38 38 37 37 37 36 35 35 35 34
34 33 33 33 33 32 32 32 31 31 31 31 32 33 38 37
38 37 30 24 29 28 38 36 35 35 35 34 33 35 31 32
32 32 27 35 34 36 36 36 36 36 36 36 37 37 37 37
37 36 37 37 38 38 39 40 40 40 40 40 41 41 41 42
42 42 43 42 44 43 44 44 44 44 45 44 45 44 45 45
46 45 45 45 45 45 45 45 46 46 47 46 46 47 47 45
46 45 45 45 44 44 44 43 44 43 43 42 42 42 41 41
41 40 40 39 39 38 38 38 38 37 36 37 37 36 35 35
35 34 34 33 34 32 32 31 31 32 31 32 33 34 38 38
38 38 31 25 32 26 38 36 36 35 35 35 34 36 32 33
33 33 29 36 33 37 36 36 37 37 37 37 36 37 37 36
37 38 38 38 39 40 40 40 40 41 41 41 41 42 42 42
42 43 43 43 44 43 44 44 44 44 46 45 45 44 45 45
45 45 45 45 45 45 46 45 46 46 45 45 44 45 46 46
46 46 46 45 45 45 45 44 44 43 43 42 42 42 41 41
41 40 40 39 39 39 38 38 38 38 38 37 36 36 35 36
35 35 34 34 33 33 33 32 32 32 32 32 33 34 39 39
39 39 33 27 33 26 38 36 36 36 36 36 34 36 33 34
34 33 29 36 34 37 37 37 37 38 38 37 37 38 39 39
39 39 39 39 40 40 41 41 40 42 41 42 42 42 42 42
43 43 43 44 44 44 45 45 45 45 46 46 46 46 45 46
46 46 46 46 46 45 45 45 46 45 46 47 46 46 45 46
46 45 45 45 45 44 44 44 44 43 43 43 42 42 42 41
41 41 40 40 39 39 39 38 38 38 38 37 37 37 36 35
35 35 34 34 34 33 33 32 32 32 32 32 33 34 39 39
40 39 33 26 35 26 37 37 37 36 36 35 35 36 33 34
34 33 30 35 35 37 37 36 36 37 38 38 39 38 39 39
39 39 39 40 40 41 40 40 41 42 41 41 42 42 44 43
43 43 43 43 44 44 45 44 44 45 46 45 45 45 47 46
46 46 45 44 45 45 46 46 45 46 46 45 46 45 45 45
45 45 44 44 44 44 44 44 43 43 43 43 43 42 42 41
41 41 40 40 40 39 39 39 38 38 38 37 37 36 36 35
35 35 34 34 34 33 33 32 32 33 32 33 34 34 39 40
40 39 33 28 35 25 38 37 37 37 37 36 35 37 34 34
34 34 29 35 29 37 37 37 38 38 39 38 38 39 39 39
39 39 39 40 40 41 41 41 41 41 42 43 42 42 43 43
43 43 44 44 44 44 45 45 45 44 46 45 45 45 43 43
45 44 45 45 45 45 45 44 45 45 45 46 46 46 46 46
45 45 45 45 44 44 44 43 43 43 42 42 42 41 41 41
41 41 41 40 39 39 38 38 38 38 38 38 38 37 37 36
36 35 35 34 34 34 33 32 32 32 33 32 33 34 39 40
40 39 33 28 35 27 37 38 37 36 36 36 36 38 35 35
34 34 30 36 34 38 37 38 38 38 39 38 39 38 39 39
39 40 40 39 41 40 41 41 41 43 42 42 42 42 42 42
42 43 44 44 45 45 45 45 45 43 42 44 44 43 45 45
45 45 46 47 44 45 45 45 45 44 44 45 45 46 45 45
45 45 45 45 44 44 44 43 44 43 43 42 42 42 42 41
41 41 41 40 40 40 39 39 38 39 38 37 37 37 36 36
35 35 35 34 35 34 34 34 34 34 33 33 34 34 39 40
41 39 34 28 35 29 37 38 37 36 36 36 35 37 33 34
34 33 30 37 34 38 38 39 39 39 40 39 40 40 40 40
40 40 40 40 41 41 41 41 42 41 42 42 43 43 43 43
44 44 44 44 44 43 43 43 44 45 46 45 45 46 46 46
45 45 46 48 45 45 46 46 46 46 46 46 46 46 46 45
45 45 45 44 44 44 44 44 44 43 43 42 43 43 42 42
41 40 41 41 40 40 40 39 39 38 38 38 38 37 37 36
36 35 35 34 35 35 34 33 33 33 33 33 33 33 38 40
40 39 31 25 35 29 34 34 34 33 35 33 26 20 14 16
16 20 22 32 31 35 35 37 39 39 40 39 40 40 40 40
40 41 41 41 41 42 42 42 43 42 43 43 43 43 44 44
44 43 44 43 43 44 46 45 46 46 45 45 45 45 46 46
45 46 46 47 45 45 45 44 45 45 46 45 45 45 45 46
45 44 45 44 44 44 43 43 43 42 43 42 43 42 42 42
41 41 41 41 41 40 40 39 39 39 38 38 37 37 37 36
36 36 35 36 35 34 34 34 34 34 34 33 30 33 39 38
37 22 14 14 22 17 9 10 7 9 9 4 0 0 0 0
0 0 0 1 5 6 9 19 38 39 41 39 40 40 40 40
40 41 41 42 41 43 43 42 43 43 44 43 44 42 43 43
44 45 45 45 46 46 46 46 46 46 45 46 45 46 45 45
45 46 46 47 46 46 46 46 45 45 46 46 46 46 46 45
45 45 45 45 45 44 44 44 44 44 43 43 43 43 42 42
41 41 41 41 40 40 40 39 39 39 38 38 38 38 37 38
37 37 36 36 35 35 35 35 34 34 34 31 30 34 38 35
22 10 11 10 2 0 0 0 0 0 0 0 0 0 0 0
0 0 0 0 0 0 0 0 15 27 38 39 40 41 41 41
41 41 42 42 43 43 44 43 44 43 42 43 43 43 44 44
45 45 47 46 47 47 47 46 46 47 46 46 46 46 46 46
46 46 46 48 46 45 46 46 46 46 46 46 46 47 47 46
45 45 45 45 45 45 45 44 44 44 44 44 43 44 43 42
42 42 42 41 41 40 41 40 39 39 39 38 38 38 37 37
37 37 37 36 36 36 36 35 34 35 34 28 33 33 39 37
17 11 9 0 0 0 0 0 0 0 0 0 0 0 0 0
0 0 2 0 0 0 0 0 0 1 18 34 40 41 41 42
43 43 43 42 43 42 43 43 43 44 44 44 44 45 45 45
45 45 47 46 46 46 46 47 46 46 46 46 46 46 47 46
47 45 46 48 46 46 46 47 46 47 46 46 46 47 47 46
45 45 45 44 44 44 44 44 44 44 44 44 43 43 43 43
43 42 42 42 41 41 41 40 40 40 39 39 39 38 38 37
38 37 36 37 36 36 35 35 35 35 32 27 31 36 40 34
13 9 0 0 0 0 0 0 0 0 0 0 0 0 0 0
0 0 0 0 0 0 1 1 1 0 0 2 17 30 38 42
43 43 43 43 43 43 44 44 44 44 44 44 45 45 45 45
45 45 48 47 47 47 47 47 48 48 47 46 46 46 47 47
47 46 46 47 47 46 47 46 46 46 45 46 46 46 47 47
46 45 45 45 45 45 44 44 44 44 44 44 43 43 44 43
43 42 42 42 41 41 41 40 40 40 40 40 40 39 38 38
38 37 37 37 37 36 36 35 36 35 30 27 35 33 32 21
5 4 0 0 0 0 0 0 0 0 0 0 0 0 0 0
0 0 0 0 0 0 0 0 0 1 0 0 0 1 5 22
36 40 44 43 43 44 45 44 44 44 45 45 46 46 46 46
47 46 47 47 47 47 47 47 47 47 46 47 47 46 47 46
47 47 46 47 48 46 48 47 47 47 48 47 47 47 46 47
46 45 46 45 45 45 45 44 45 44 44 43 43 44 43 43
42 42 42 42 41 41 41 40 40 40 41 40 40 39 39 39
39 38 38 37 37 36 37 37 36 35 29 28 34 24 26 27
9 4 0 0 0 0 0 0 0 0 0 0 0 0 2 0
0 0 0 1 3 0 0 0 0 0 0 0 0 0 0 1
15 37 44 43 44 44 44 44 44 44 45 45 45 46 47 46
47 47 48 47 47 47 47 47 48 47 47 47 47 46 47 47
47 47 47 47 48 46 47 48 46 47 46 45 45 44 46 46
46 46 46 45 45 45 46 45 45 45 45 45 44 44 44 43
43 42 42 41 42 41 41 41 41 41 40 39 40 39 39 39
38 38 38 37 38 37 37 37 36 35 31 27 27 25 33 24
10 2 0 0 0 0 0 0 0 0 0 0 0 0 1 0
0 1 2 2 6 7 4 0 0 0 0 0 0 0 0 0
1 17 40 43 45 45 45 45 45 45 46 46 47 47 47 47
47 47 48 47 47 47 47 48 47 47 47 47 48 47 47 47
48 48 49 48 48 45 44 44 45 45 46 48 47 49 46 44
46 45 46 45 45 45 45 45 45 45 45 44 44 44 43 43
43 43 43 42 42 42 41 41 41 41 41 40 40 39 39 39
39 38 38 38 38 38 37 37 36 34 32 25 19 25 26 16
2 0 0 0 0 0 0 0 0 0 0 0 0 0 0 0
0 0 1 3 4 7 4 0 0 0 0 0 0 0 0 0
0 0 18 41 45 45 45 45 46 46 46 46 46 47 47 47
47 47 48 48 48 47 48 48 48 48 48 47 47 48 47 48
47 46 45 45 45 45 47 48 47 45 44 46 47 48 45 46
45 45 46 46 45 46 45 45 45 45 44 45 44 44 43 43
43 43 42 43 42 42 42 41 41 41 42 41 40 40 40 39
39 39 39 38 38 38 37 36 35 35 34 29 20 22 9 0
0 0 0 0 0 0 0 0 0 0 0 0 0 0 1 1
3 5 3 3 1 1 4 2 0 0 0 0 0 0 0 0
0 0 1 23 42 45 46 45 46 47 46 46 47 47 47 48
48 47 48 48 48 48 48 47 48 48 48 48 46 44 45 45
45 47 48 48 47 47 47 47 47 46 47 47 46 48 46 46
25 46 46 46 46 46 46 45 45 45 45 45 44 44 44 44
44 44 44 43 42 42 42 41 42 41 41 41 40 40 40 40
40 39 39 38 38 38 37 37 37 34 34 27 19 10 0 0
0 0 0 0 0 0 0 0 0 0 0 0 0 1 3 0
0 4 3 2 1 0 1 0 0 0 0 0 0 0 0 0
0 0 0 7 35 45 46 45 46 47 47 47 48 47 48 47
48 48 49 48 48 48 48 48 48 47 47 47 47 48 48 47
47 47 47 47 47 47 46 46 47 47 47 47 47 48 46 46
25 45 47 46 46 46 45 45 45 45 45 45 45 45 44 45
44 44 44 43 43 42 42 42 41 42 41 42 41 40 41 41
40 40 39 39 39 38 38 38 37 32 32 21 4 0 0 0
0 0 0 0 0 0 0 0 0 0 0 0 0 0 0 0
0 2 2 2 0 0 0 0 0 0 0 0 0 0 0 0
1 1 0 0 19 42 46 45 46 47 47 47 47 47 48 48
48 48 47 47 47 47 47 47 49 48 47 49 47 47 47 47
48 47 47 47 47 47 46 47 47 47 47 47 46 48 46 46
22 44 46 46 46 46 46 43 42 44 45 45 45 45 45 45
44 44 44 44 43 43 43 42 42 42 41 43 45 42 41 40
40 39 39 39 39 39 39 38 36 33 31 14 0 0 0 0
0 0 0 0 0 0 0 0 0 0 0 0 0 0 0 0
2 0 0 3 4 2 0 0 1 1 0 0 0 0 0 0
0 0 0 0 2 34 47 46 46 47 47 47 48 47 47 47
46 47 47 46 47 47 47 48 47 47 47 48 47 47 47 47
47 46 48 48 48 46 47 47 47 47 47 47 46 47 47 45
22 44 46 46 46 46 45 44 55 54 51 50 47 45 45 44
44 44 44 43 43 43 43 42 42 42 41 55 59 56 50 47
45 41 39 39 39 39 38 38 37 32 17 0 0 0 0 0
0 0 0 0 0 0 0 0 0 0 0 0 0 0 0 0
0 0 0 0 1 4 1 0 0 3 1 0 0 0 0 0
0 0 0 0 0 14 45 46 46 46 47 47 47 47 47 48
47 46 47 47 47 47 47 47 47 47 46 48 48 47 47 47
47 47 48 47 48 46 46 46 46 47 47 47 47 47 46 46
26 46 47 47 46 46 46 46 60 59 58 57 53 51 49 48
45 45 45 44 43 42 42 43 42 42 43 56 57 55 52 52
52 49 42 38 40 39 40 39 36 24 3 0 0 0 0 0
0 0 0 0 0 0 0 0 0 0 0 0 0 0 0 0
0 0 1 1 0 1 2 0 0 0 0 1 0 0 0 0
0 0 0 0 0 2 38 46 46 47 48 47 45 48 48 48
48 48 48 47 47 48 47 47 48 47 47 48 48 47 48 47
48 47 48 47 47 48 47 47 47 47 48 47 46 45 47 47
28 50 49 49 48 47 47 47 60 59 59 54 53 54 55 59
52 51 49 46 43 43 42 42 43 43 42 54 55 54 50 52
52 51 42 39 40 40 39 38 26 4 0 0 0 0 0 0
0 0 0 0 0 0 0 0 0 0 0 0 0 0 0 0
0 0 0 4 4 4 3 3 0 0 0 0 0 0 0 0
0 0 0 0 0 0 30 46 46 46 48 47 47 47 47 48
48 47 47 47 47 47 47 48 47 47 47 48 48 48 47 48
48 48 47 47 47 46 47 46 46 47 48 46 46 46 47 46
28 52 52 49 50 49 48 46 56 54 58 54 55 59 59 61
53 52 54 56 52 49 47 47 44 43 41 44 27 33 37 48
51 52 45 40 40 39 39 34 8 1 0 0 0 0 0 0
0 0 5 6 5 2 0 0 0 0 0 0 0 0 0 0
0 0 0 1 2 5 4 1 0 0 0 0 0 0 0 0
0 0 0 0 0 0 21 45 47 47 49 48 47 48 47 48
48 48 47 46 47 47 47 47 47 47 47 48 48 48 48 48
47 47 46 47 47 48 47 47 46 47 46 46 48 47 47 47
28 53 53 41 46 52 54 55 40 0 11 32 48 54 58 59
53 11 15 27 37 50 48 48 55 51 46 43 21 17 18 12
14 19 44 41 41 40 38 20 0 1 0 0 0 0 0 11
3 6 14 18 14 9 10 1 0 0 0 0 0 0 0 0
0 0 0 0 0 2 2 0 0 0 0 0 0 0 0 0
0 0 0 0 0 0 6 40 47 47 48 48 47 48 47 47
47 48 48 49 48 48 48 48 47 47 47 47 49 48 47 47
46 46 47 47 48 46 47 47 47 46 49 47 48 47 46 48
28 52 54 50 45 42 56 61 43 0 0 9 20 23 21 29
54 4 0 0 0 2 11 20 32 42 48 43 19 5 14 16
7 1 44 41 41 40 33 8 2 5 0 0 0 0 7 33
25 28 29 36 33 27 23 20 5 4 1 0 0 0 1 1
0 0 0 0 0 0 1 2 0 0 0 0 0 0 0 0
0 0 0 0 0 0 0 27 47 47 48 49 48 48 48 48
48 48 49 48 48 48 47 47 47 48 47 48 48 48 47 48
47 47 48 47 48 48 48 47 47 47 48 48 48 46 43 44
22 17 29 42 55 57 60 61 45 0 0 6 13 19 21 22
53 4 0 0 2 0 2 0 0 0 31 45 15 2 5 7
6 1 46 42 41 38 27 2 9 1 0 0 0 0 33 53
54 57 53 66 58 52 45 51 36 20 10 3 2 1 0 0
0 1 2 0 0 0 0 0 0 0 0 0 0 0 0 0
0 0 0 0 0 0 0 15 45 47 47 50 49 49 48 49
49 48 48 48 48 48 48 48 48 48 48 49 49 49 48 47
48 48 47 47 48 48 48 49 49 47 48 48 48 49 49 49
19 0 0 0 2 14 28 41 45 0 0 4 10 5 11 18
54 12 2 0 0 0 1 0 0 0 32 43 9 0 0 6
4 1 49 42 41 38 23 3 7 0 0 0 0 7 58 76
75 81 84 87 91 86 78 81 82 51 36 14 7 7 3 2
1 1 3 3 1 0 0 0 0 0 0 0 0 1 2 1
0 0 0 0 0 0 0 8 46 48 49 50 50 49 49 49
49 50 50 49 49 49 49 49 49 49 48 50 49 49 49 48
49 49 48 49 49 48 49 49 50 49 49 48 48 48 48 48
18 0 0 0 0 0 0 0 31 0 0 1 2 0 5 15
52 4 0 0 0 2 2 0 0 0 30 39 0 0 0 0
6 2 51 43 41 38 23 10 3 0 0 0 0 20 68 84
88 90 100 103 107 107 113 106 104 91 74 52 18 14 9 6
7 3 4 4 3 2 2 1 2 1 1 0 1 2 1 3
1 0 2 1 0 0 0 3 41 49 50 50 49 50 50 50
50 51 51 50 51 50 51 50 51 51 50 50 49 48 50 50
50 50 50 51 49 49 51 50 50 50 49 50 49 49 49 50
18 0 0 0 0 0 0 0 27 0 0 0 0 0 0 21
55 6 0 1 0 11 19 5 0 0 29 39 3 0 0 0
3 2 53 44 43 39 21 11 1 0 0 0 0 35 72 86
94 102 107 110 113 115 121 121 121 113 100 95 52 22 19 15
13 12 10 10 9 7 5 7 3 4 3 1 2 3 3 3
4 6 3 3 4 0 1 1 33 50 51 51 50 50 50 51
51 51 51 51 51 51 51 50 50 49 50 49 52 50 50 51
50 50 50 50 49 51 51 50 51 49 50 49 50 49 50 51
18 0 0 0 0 0 0 0 25 0 0 0 0 0 0 20
59 5 0 0 2 16 23 19 12 2 27 39 0 0 0 0
0 0 50 45 44 39 22 8 2 0 0 0 1 47 71 87
100 106 109 112 115 119 122 124 125 124 113 106 99 57 34 26
23 21 20 17 14 11 9 8 6 5 5 3 2 6 4 5
7 8 3 3 6 4 1 0 30 51 50 52 50 51 51 51
52 51 52 50 50 51 51 50 50 51 50 51 51 50 50 50
50 49 49 47 49 51 51 50 50 50 51 51 51 51 51 51
18 0 0 0 17 14 0 0 22 0 6 1 0 0 1 15
60 6 0 0 5 19 23 22 22 9 24 41 0 2 0 0
0 0 48 45 44 38 22 6 3 0 0 0 8 54 74 94
105 107 108 114 117 122 127 126 126 128 123 115 112 104 73 59
44 39 41 33 21 15 10 8 7 5 6 6 5 7 8 7
7 9 4 3 6 6 6 1 26 49 51 52 50 49 51 50
51 51 51 51 51 51 49 49 51 51 50 50 51 50 49 50
50 50 49 49 49 51 51 51 51 51 51 50 50 49 46 45
18 1 17 11 6 6 0 0 19 2 3 0 0 0 8 16
60 9 0 2 3 17 22 21 21 9 21 44 0 0 0 0
0 0 44 46 44 37 22 8 4 0 0 0 14 59 85 104
109 109 109 116 123 127 130 127 125 120 117 113 115 118 109 99
87 79 73 69 44 24 16 12 12 9 7 5 8 7 10 8
7 10 8 3 8 7 4 3 24 49 49 49 50 49 50 50
51 51 51 53 51 50 51 51 50 50 50 49 50 50 49 50
49 48 49 50 49 51 51 50 49 48 50 50 46 45 46 45
19 8 13 0 9 8 0 0 21 2 0 0 0 0 8 25
62 11 0 7 5 2 12 20 21 7 18 55 40 27 15 7
2 2 42 47 44 37 23 15 5 0 0 0 22 72 98 110
112 111 114 120 124 130 122 117 113 102 98 95 106 114 119 118
120 116 118 116 95 54 23 15 12 11 8 7 10 10 10 12
10 11 11 7 7 9 4 5 22 51 50 49 50 49 50 50
51 51 50 52 50 51 51 51 51 51 50 50 50 50 49 50
49 49 46 45 50 50 46 47 47 44 43 39 35 31 26 23
19 7 3 0 0 1 4 0 31 17 9 6 9 0 1 19
67 48 37 27 20 7 0 3 14 4 16 57 59 54 56 55
57 58 61 46 44 40 29 21 10 0 0 0 37 87 103 113
114 113 116 116 111 92 61 49 62 64 77 76 78 88 98 115
129 137 144 145 134 103 53 20 15 11 12 12 13 14 13 8
8 11 10 9 5 6 5 5 22 49 50 49 50 50 51 51
51 51 51 52 50 51 51 50 49 49 50 48 46 45 44 48
47 46 47 46 43 39 35 31 26 24 22 23 23 24 27 20
18 0 0 0 0 0 0 0 43 66 56 49 46 41 25 22
71 43 35 41 46 50 47 40 33 27 31 61 59 55 56 56
64 66 65 47 44 41 39 31 14 0 0 3 58 92 103 112
115 113 108 92 66 48 51 44 38 57 75 97 99 92 80 98
124 136 145 147 146 138 97 43 19 11 14 16 13 14 14 10
9 7 10 12 5 2 2 3 25 48 50 50 50 51 51 51
51 51 51 51 50 49 46 46 45 45 48 48 48 47 43 39
36 32 27 26 25 24 24 26 27 29 30 31 32 32 33 28
19 0 0 0 0 0 0 0 45 70 51 60 62 67 68 64
71 34 21 22 23 23 24 25 30 38 47 48 41 48 51 55
62 65 65 50 44 44 42 41 23 0 0 8 30 58 86 104
115 111 100 82 59 52 61 53 73 87 110 117 123 124 116 114
125 140 145 144 145 148 127 80 27 14 12 13 13 13 9 5
6 6 5 10 8 2 0 0 30 50 50 49 49 50 50 50
49 49 50 50 49 49 50 49 42 40 36 31 28 26 25 25
27 28 29 30 31 32 33 34 34 36 37 32 30 38 39 39
26 26 17 6 0 0 0 0 46 60 52 63 65 69 71 59
49 32 22 23 22 21 21 19 18 17 16 15 18 22 27 39
44 39 38 42 44 43 43 43 32 0 0 1 2 15 45 85
111 113 104 78 76 71 79 89 102 85 113 140 138 138 137 136
137 144 146 148 148 147 139 106 40 14 9 10 12 12 7 2
4 6 1 6 6 3 0 0 29 50 49 49 49 50 50 50
49 47 44 41 36 32 37 52 31 23 27 29 30 31 32 32
33 33 35 36 37 38 39 39 39 40 41 41 34 32 43 43
31 57 64 62 55 43 33 23 53 47 52 61 64 68 71 63
54 38 23 24 22 20 18 17 17 17 16 16 18 17 16 36
44 44 42 42 44 44 44 44 38 7 0 1 9 27 41 66
99 107 94 95 94 103 102 103 116 125 88 129 136 132 126 100
90 82 83 82 82 82 84 82 58 20 11 8 12 10 8 4
3 5 1 1 8 6 3 0 32 51 50 49 46 42 38 34
31 28 28 29 30 30 29 46 30 30 33 35 37 37 38 39
40 41 41 42 42 43 43 44 44 42 42 43 44 36 32 42
32 59 64 63 61 62 62 64 66 30 34 48 56 62 67 63
56 42 25 22 21 17 17 17 18 18 18 18 19 20 21 41
21 10 43 44 44 44 43 44 41 25 16 27 28 52 67 67
82 87 94 92 95 93 83 92 117 135 99 106 101 97 93 49
51 64 86 108 129 141 146 143 119 40 11 9 11 10 8 7
8 5 3 1 6 3 0 0 29 36 33 30 29 29 30 32
34 35 35 37 38 37 35 46 32 35 39 41 42 42 43 43
44 44 45 44 43 44 44 44 45 45 43 45 47 46 36 30
29 57 66 65 63 64 64 65 64 14 2 1 6 12 24 29
41 45 24 21 17 3 4 3 11 21 23 20 17 24 25 41
49 45 53 54 53 47 8 24 66 57 6 30 67 64 68 75
76 88 97 95 96 81 57 51 95 118 102 103 79 81 86 84
107 133 148 150 151 150 150 148 133 69 14 9 8 11 7 8
11 9 7 5 2 1 0 0 21 33 35 35 36 37 37 38
40 40 40 42 43 43 40 49 37 38 43 44 45 45 45 46
46 46 46 47 48 47 46 45 43 45 45 44 47 47 48 37
32 47 52 53 55 58 61 64 61 9 0 0 0 0 7 21
41 47 22 19 16 0 0 1 4 9 13 5 5 13 13 35
54 46 44 46 50 53 49 63 95 56 12 49 87 89 72 48
59 96 121 108 102 82 38 11 88 80 59 67 66 89 116 130
145 150 151 150 150 150 150 149 137 87 22 10 7 8 11 8
13 14 19 20 22 17 3 0 21 40 40 40 42 42 43 44
45 46 46 47 46 44 37 25 22 40 45 46 46 47 47 46
47 47 47 48 47 47 47 48 47 44 45 44 46 48 48 47
32 35 37 41 45 44 44 56 57 6 0 0 0 5 2 3
41 47 20 20 15 2 0 6 6 1 2 1 0 3 6 32
56 44 37 33 33 39 44 83 85 53 24 45 93 90 93 79
58 79 137 122 109 85 49 36 91 113 104 78 97 114 134 141
149 151 150 150 150 150 150 148 136 93 31 13 9 7 10 16
28 23 36 69 67 66 7 0 22 45 46 46 45 46 46 46
46 46 47 47 46 45 30 10 8 35 45 48 50 47 48 47
48 48 48 48 48 48 48 48 47 47 45 45 43 46 48 47
31 28 29 32 43 41 41 57 58 4 0 0 0 1 3 0
35 42 14 9 0 0 0 14 14 6 5 0 0 0 1 30
56 46 26 40 47 38 47 101 87 37 28 25 20 68 75 67
64 87 137 127 109 84 69 63 91 128 129 85 103 130 148 149
149 150 150 150 150 150 150 147 134 98 42 17 12 9 17 29
38 61 91 111 119 108 26 0 15 47 47 47 47 48 48 48
49 49 47 41 31 43 27 19 7 30 46 47 49 49 48 48
48 48 48 47 48 48 48 47 48 47 47 44 43 45 46 47
29 32 38 42 46 46 49 57 56 4 0 0 0 0 1 0
41 35 0 0 0 1 3 6 18 16 5 2 0 0 0 30
57 47 18 37 37 34 36 115 104 44 23 15 9 79 75 66
77 89 124 137 130 97 80 66 83 115 125 86 108 134 150 151
150 150 150 150 150 149 149 146 134 108 47 20 14 12 23 49
65 96 129 146 132 133 49 0 13 47 49 49 48 49 48 49
49 30 3 0 2 36 23 5 3 30 46 48 49 49 48 48
48 47 48 47 48 48 48 47 46 47 47 46 41 42 43 42
29 2 4 9 18 24 33 40 49 4 0 0 0 0 0 0
44 37 0 0 0 0 2 6 18 25 17 11 0 3 1 29
57 49 20 26 27 23 43 121 116 65 37 32 32 68 65 52
71 104 117 144 138 114 98 82 93 123 129 84 117 140 151 151
151 150 151 150 150 150 149 146 135 115 54 22 16 18 28 52
62 89 140 150 134 143 66 0 10 47 49 50 50 50 49 50
50 38 28 36 43 46 32 2 4 28 45 48 47 48 47 47
48 48 47 48 48 48 47 48 48 47 47 47 45 41 39 39
33 2 0 0 1 0 0 0 24 5 0 0 0 0 0 3
46 29 0 0 0 0 3 21 22 27 21 16 0 1 3 29
57 50 35 34 33 29 39 121 125 80 36 40 46 69 55 45
67 119 130 125 141 124 107 101 95 120 127 86 130 147 151 151
150 150 150 150 150 149 147 144 137 119 74 35 22 35 56 83
93 83 105 141 138 141 61 0 8 48 50 50 50 49 50 49
50 50 49 48 47 45 34 4 5 29 45 47 48 48 48 48
48 48 48 46 48 47 47 47 46 44 46 45 45 44 39 39
32 3 0 0 2 0 0 0 22 5 0 0 11 6 3 0
42 27 0 0 0 0 2 26 27 27 12 9 0 3 6 25
56 53 39 29 7 7 34 100 136 116 46 43 51 68 59 48
77 126 148 116 140 139 111 110 106 119 114 100 138 150 151 151
151 150 150 150 150 147 146 142 138 121 98 73 57 81 105 121
111 129 116 123 143 141 40 0 17 48 51 51 50 50 50 51
50 49 49 48 46 45 40 8 2 34 45 48 48 49 47 48
48 47 47 47 46 47 47 47 45 44 45 45 45 43 38 37
34 3 0 1 7 2 0 0 20 5 0 3 27 18 6 0
43 25 0 0 1 1 2 5 16 17 0 1 2 5 2 20
55 54 39 24 15 13 29 68 144 135 73 45 64 74 59 52
85 133 150 143 116 139 133 106 110 117 91 122 145 150 151 150
150 150 150 149 148 145 144 140 137 122 108 90 83 101 123 141
110 142 147 128 146 136 19 0 24 50 50 50 50 50 49 49
49 48 48 48 46 44 40 22 14 39 46 48 48 49 48 48
47 46 46 46 46 46 46 45 45 44 44 44 44 43 38 36
29 3 0 4 21 11 3 0 19 6 0 15 25 20 11 0
42 21 2 5 0 2 4 1 12 19 0 1 0 0 0 14
55 54 21 16 1 2 24 43 125 128 102 43 69 77 53 67
103 142 150 151 141 117 116 104 94 97 115 134 150 151 151 151
150 150 150 149 145 143 142 140 135 123 109 99 95 109 121 138
120 121 147 131 148 113 4 0 30 50 50 50 48 49 49 49
49 49 48 48 45 44 39 37 36 42 47 47 48 48 47 47
48 46 47 47 47 46 47 45 45 45 44 43 43 42 38 34
31 4 0 17 32 15 13 0 19 32 20 29 29 26 21 3
44 21 2 1 3 0 2 1 8 24 1 0 0 0 0 8
54 53 15 19 4 2 33 37 70 129 105 69 65 73 54 82
123 146 150 151 151 144 125 118 125 138 139 143 148 151 151 150
151 150 149 147 143 140 141 139 132 119 108 102 102 114 118 128
127 127 135 141 149 78 0 0 34 49 49 50 50 49 49 50
49 49 49 49 47 45 41 40 42 47 48 48 48 49 47 48
47 48 47 46 47 47 46 46 45 45 44 43 43 41 36 32
28 4 0 9 15 9 7 0 19 56 53 59 59 58 60 62
66 24 0 3 0 0 0 1 12 25 3 3 6 0 0 4
53 49 14 11 6 7 35 36 47 73 106 104 81 57 73 96
129 148 151 146 140 141 142 140 144 142 141 144 148 151 150 150
150 150 147 144 141 139 141 136 128 117 108 104 106 114 115 113
112 132 138 148 141 29 0 3 41 50 50 49 49 49 49 49
49 50 48 48 47 45 43 42 46 48 48 47 48 50 48 48
48 48 48 47 46 46 44 44 45 44 43 42 42 42 38 32
31 10 6 3 4 2 2 0 17 56 54 60 59 57 63 68
70 43 24 27 19 11 6 8 13 29 8 8 5 3 0 5
36 48 11 6 4 9 17 35 45 46 48 54 52 73 89 105
131 149 151 146 139 136 132 130 138 140 143 147 150 151 151 148
148 148 148 143 141 139 139 133 125 114 110 108 105 112 114 131
144 149 147 148 89 1 0 5 44 49 49 49 49 49 50 49
50 49 48 47 48 47 46 45 48 49 49 49 48 48 48 47
48 47 47 47 45 46 46 45 43 43 42 40 39 39 36 32
32 29 10 2 6 1 1 0 16 55 53 57 57 56 66 72
72 56 48 48 47 44 42 45 42 39 34 31 27 28 26 31
42 53 25 24 24 18 10 28 45 46 46 47 73 95 87 103
128 150 152 150 150 146 134 123 125 135 144 148 150 151 151 150
149 150 147 146 141 139 137 129 122 114 112 106 102 107 115 148
149 149 148 126 19 0 1 6 44 50 50 49 50 49 50 50
50 48 48 49 48 46 46 45 47 47 45 46 46 48 48 49
47 46 46 45 45 44 45 45 43 43 41 40 39 38 37 32
32 25 3 0 4 1 0 0 16 52 46 50 50 50 52 48
47 48 49 50 50 48 46 48 49 47 46 42 39 37 35 36
44 58 43 41 35 28 27 28 45 46 45 46 67 87 80 92
115 132 138 143 148 150 140 120 114 127 142 149 151 151 151 150
150 150 146 148 143 137 134 129 121 117 114 107 101 104 114 148
149 149 143 51 0 0 3 17 46 49 49 50 50 50 49 49
50 48 48 49 49 47 47 48 49 48 47 49 48 49 48 47
47 46 46 46 45 45 45 43 43 43 42 40 40 39 36 30
35 18 0 0 2 1 0 0 16 57 46 47 48 48 49 47
45 48 50 51 54 52 51 50 49 49 47 51 56 53 50 47
50 62 61 61 61 58 56 46 44 45 45 45 58 84 77 66
99 115 97 70 91 122 126 111 113 119 137 148 151 151 151 150
150 150 149 148 144 136 132 126 121 118 114 106 100 95 90 124
144 136 77 4 0 1 6 31 48 48 49 49 49 48 49 50
49 49 48 49 49 47 49 50 50 49 49 49 49 49 48 48
48 47 46 46 45 44 44 43 42 42 41 39 39 37 34 27
30 39 40 36 28 25 20 16 24 61 49 50 49 49 50 51
53 56 53 53 57 61 61 54 47 49 49 57 62 60 56 56
56 48 41 38 39 40 43 42 44 45 46 45 52 81 85 54
66 83 102 121 120 103 103 119 126 113 131 146 150 151 151 151
150 150 148 148 144 140 134 123 122 118 112 105 98 89 64 31
63 52 4 2 0 2 13 44 49 49 49 50 49 50 51 51
50 50 50 49 50 49 49 50 50 49 49 49 49 49 48 47
46 47 47 45 45 45 45 43 42 41 39 38 37 37 34 27
30 50 59 63 57 59 66 68 66 64 53 52 53 52 53 56
59 63 55 55 57 64 62 54 50 42 45 59 63 60 56 57
56 53 47 38 35 35 35 38 44 45 46 45 44 74 86 84
62 56 97 128 138 130 130 138 133 118 128 144 150 151 151 150
149 149 147 147 145 142 132 127 122 115 110 105 95 81 75 61
49 15 0 0 0 4 32 50 49 49 50 50 50 49 50 49
49 49 49 48 49 49 50 49 50 49 49 47 48 49 48 47
46 47 46 44 44 42 44 42 40 39 39 36 36 34 32 26
31 52 69 68 68 68 68 68 68 67 51 48 45 47 47 53
61 66 56 56 55 54 54 57 53 48 39 50 53 50 52 57
58 54 52 43 42 41 41 42 44 45 45 45 38 64 82 86
72 76 122 118 135 136 137 140 137 129 130 144 150 150 150 151
150 149 149 148 146 140 135 130 122 114 111 104 90 72 79 81
48 4 0 4 2 10 43 48 49 48 49 49 49 49 49 49
49 49 49 48 50 49 49 49 49 48 48 48 48 47 47 47
46 46 44 44 44 43 43 40 39 39 36 36 35 35 33 26
29 38 49 51 53 57 59 62 65 66 17 13 11 5 8 12
22 53 58 55 32 19 27 31 30 33 47 46 17 6 2 9
19 24 44 48 44 45 50 51 53 52 46 45 38 58 80 84
69 88 125 113 135 138 134 136 134 130 136 146 151 151 151 151
150 150 149 148 145 142 136 129 122 116 110 102 85 68 82 74
34 0 0 8 6 23 48 48 48 48 48 48 49 49 48 48
48 48 47 44 46 46 49 49 49 48 49 49 47 47 47 47
46 45 44 43 43 41 42 40 38 37 37 34 34 33 32 26
28 33 39 39 39 38 38 38 38 44 13 1 0 0 0 0
1 43 59 45 6 1 3 8 16 24 50 48 13 2 0 0
9 20 41 33 35 39 44 48 52 57 49 45 39 51 71 77
65 95 111 113 133 143 143 135 129 126 140 148 151 151 151 151
151 151 150 150 147 144 137 128 121 116 108 99 80 66 80 69
22 0 2 8 8 37 48 47 47 47 48 49 50 49 40 25
24 19 17 14 17 37 51 50 49 48 48 49 48 47 47 45
46 46 44 43 42 42 42 40 38 36 36 35 34 33 32 26
27 39 48 48 48 47 46 45 44 48 19 12 2 0 0 0
17 46 57 25 0 0 0 0 2 23 53 49 16 0 0 0
3 17 39 9 1 5 4 2 10 56 50 44 39 49 61 69
58 76 102 103 108 117 134 140 123 124 137 150 151 151 151 151
151 150 150 149 146 143 134 126 119 112 105 94 73 67 79 66
15 0 3 5 13 21 19 15 19 23 44 49 49 49 38 12
14 13 14 14 14 38 51 50 50 49 48 48 48 47 46 45
45 44 44 43 42 40 40 39 37 37 35 34 34 32 32 26
27 39 48 49 50 50 50 51 52 51 21 7 2 0 0 0
18 44 54 13 0 0 0 2 0 13 53 49 16 0 0 0
2 15 39 11 3 22 17 1 6 55 50 42 41 48 55 64
48 49 68 79 77 80 78 94 94 105 136 151 152 152 151 151
151 151 151 148 145 140 131 125 117 108 102 88 64 70 79 64
9 0 5 4 15 10 9 9 8 9 39 48 48 49 39 14
13 13 15 14 15 37 51 50 49 49 47 48 48 46 46 45
45 44 43 43 41 40 39 38 36 35 34 34 32 31 30 25
29 41 50 51 51 50 51 52 53 54 18 6 3 0 2 11
6 33 52 7 0 0 0 1 0 15 52 46 16 0 0 0
1 12 39 12 3 13 14 2 4 53 51 42 43 48 52 63
48 29 55 74 95 101 102 105 95 84 129 151 151 151 151 151
150 150 150 147 143 137 130 121 113 105 97 78 62 76 82 59
4 0 3 5 15 10 8 8 8 9 34 47 48 48 34 14
13 14 14 13 14 36 49 50 50 50 49 48 48 46 45 45
46 44 43 42 40 38 37 38 36 34 33 32 32 32 31 25
35 36 39 39 41 35 21 28 43 59 22 0 0 0 1 13
7 27 51 5 0 0 0 0 0 13 53 44 16 0 0 0
2 2 36 16 4 9 7 1 3 52 52 40 43 48 50 61
55 55 84 98 113 112 112 120 129 119 125 148 151 151 151 150
151 150 150 145 139 133 126 118 108 101 91 67 66 83 85 54
1 1 2 9 16 10 8 9 8 8 33 48 48 48 36 12
13 13 14 13 12 29 50 49 49 48 48 48 47 45 44 43
43 43 42 40 40 39 38 36 36 34 33 32 31 30 30 25
33 33 33 34 34 27 0 3 23 61 36 13 1 0 3 9
4 23 51 3 0 0 0 0 0 13 54 43 18 2 0 0
0 0 34 20 4 11 11 4 2 50 51 38 45 48 49 61
59 59 84 101 117 128 136 141 140 133 136 147 151 151 150 149
149 149 149 142 134 128 119 113 103 95 78 63 78 91 88 50
0 4 5 14 15 10 8 9 7 8 34 48 48 47 39 14
14 14 15 16 16 23 46 46 47 45 46 45 45 45 43 43
44 43 42 40 39 38 37 35 34 33 32 31 31 30 29 25
31 32 32 33 33 30 0 0 18 60 31 7 0 0 1 12
8 21 51 3 0 0 0 0 0 4 53 43 24 2 0 0
0 0 30 28 0 4 2 0 1 48 49 38 45 47 49 57
61 64 83 99 116 132 141 144 144 142 144 148 151 151 150 149
149 149 145 138 130 121 112 104 93 81 65 73 89 98 89 46
0 2 10 15 15 10 7 9 7 8 32 47 47 47 42 25
26 24 24 25 24 38 45 48 49 49 48 47 46 45 45 44
43 43 43 41 38 37 36 35 33 31 31 30 30 30 28 24
23 24 26 28 31 30 1 0 14 57 21 0 0 0 0 0
0 22 53 3 0 2 0 0 0 2 53 43 19 0 0 0
0 0 25 35 0 3 3 0 2 45 48 38 46 47 49 54
58 66 89 102 112 126 140 146 147 147 147 148 150 150 148 148
148 146 140 132 123 113 102 90 78 67 74 89 99 102 89 49
4 6 11 12 11 9 7 8 7 7 31 47 48 47 43 16
16 16 12 6 4 17 8 5 16 48 48 47 47 46 46 44
43 42 41 40 38 37 36 34 33 32 31 31 29 28 28 24
0 0 6 23 30 30 3 0 11 50 18 0 0 0 0 4
1 18 57 5 0 0 0 0 0 1 51 44 21 0 0 0
1 1 21 41 0 0 0 0 5 45 47 38 45 47 49 52
56 66 95 104 112 126 140 148 149 150 150 150 151 150 149 147
146 141 134 126 114 100 87 74 72 79 89 99 101 101 90 53
13 8 9 8 8 8 8 10 8 8 29 47 49 48 44 15
15 14 11 2 10 21 42 17 8 49 48 47 47 45 45 45
43 43 42 40 38 37 36 34 32 32 31 30 29 28 27 25
0 0 8 30 29 29 6 0 7 47 20 2 1 0 1 17
13 18 58 23 12 11 15 14 12 14 51 46 42 43 43 41
42 46 52 48 5 4 3 3 5 43 45 38 45 47 49 52
55 69 97 110 120 131 142 148 151 151 151 151 151 150 148 146
142 134 122 111 97 83 73 77 85 92 99 103 105 102 89 56
16 9 8 3 1 8 8 9 8 7 29 47 49 48 44 18
14 14 14 5 4 7 13 4 4 47 47 46 46 46 46 44
43 41 41 40 38 37 36 34 33 31 31 30 29 29 28 26
0 0 7 31 30 30 9 0 1 43 47 48 42 41 49 60
58 56 52 64 64 58 59 63 63 63 65 49 43 53 56 58
62 69 71 62 45 45 44 44 43 46 43 38 43 46 48 49
53 72 101 111 122 137 147 150 151 152 151 151 151 149 144 140
133 122 109 94 79 75 82 89 94 99 102 106 106 102 89 57
17 9 8 8 12 16 8 10 8 7 27 47 48 48 44 17
13 14 12 3 7 6 2 0 3 47 47 46 46 45 46 44
43 42 41 40 39 36 34 33 32 31 30 30 29 28 27 26
0 0 4 31 30 29 11 0 0 38 50 54 46 50 58 65
57 51 46 61 66 62 61 60 66 66 67 55 39 50 54 57
64 71 72 65 42 42 42 42 43 43 43 41 39 46 48 45
54 75 106 110 120 136 148 150 151 151 151 151 148 142 134 129
120 105 88 76 78 86 92 97 101 104 106 109 108 103 93 60
19 9 9 5 3 8 9 10 10 7 25 47 48 48 44 18
14 14 10 3 2 2 1 0 3 43 23 10 17 43 46 43
44 42 40 39 37 36 36 34 32 30 30 29 27 28 27 26
0 0 3 32 30 28 13 0 0 36 51 48 42 48 56 65
60 51 44 46 54 52 54 52 53 52 52 51 37 37 44 46
48 45 43 45 43 44 44 44 44 43 43 42 41 40 41 47
53 72 103 107 117 127 138 141 149 151 151 148 138 129 120 111
98 82 76 84 92 97 102 104 106 109 110 112 110 104 92 64
22 9 9 2 0 9 9 10 10 7 26 47 47 49 45 16
13 13 3 37 37 1 1 0 0 14 33 44 22 21 47 44
43 42 41 38 38 36 34 33 31 30 30 29 28 27 27 26
0 0 1 31 29 27 14 0 0 31 45 33 38 36 42 60
61 54 49 37 34 34 34 34 35 35 36 41 40 42 45 46
45 42 38 40 42 44 44 44 44 44 43 43 44 45 48 51
52 63 91 101 106 114 121 126 137 140 140 133 122 112 101 88
77 81 92 97 100 103 107 109 111 112 114 115 112 106 93 70
27 9 9 7 7 9 9 10 10 7 23 47 47 49 45 17
13 13 21 63 70 13 0 1 19 46 47 46 43 11 45 43
44 42 40 40 37 36 34 33 31 31 30 29 28 27 27 26
0 0 0 29 29 27 17 2 9 34 44 15 21 25 30 40
43 42 48 41 36 36 38 45 45 44 43 48 48 50 55 56
54 46 42 42 43 44 44 44 43 43 44 43 43 45 47 51
52 51 71 90 92 101 108 113 119 123 119 110 100 88 77 73
81 90 97 102 106 110 114 114 114 115 118 118 115 106 95 76
35 9 9 9 9 8 9 9 10 7 22 46 46 49 46 20
12 13 18 29 36 15 0 0 30 48 47 46 45 12 42 43
43 41 41 38 36 35 33 32 31 30 30 30 29 28 28 27
0 0 0 27 30 26 23 22 34 44 43 1 0 0 1 4
12 16 46 44 50 56 48 62 68 54 46 46 48 49 55 58
60 49 44 42 43 43 44 44 43 44 43 44 43 45 48 51
52 46 50 67 73 80 89 93 98 98 90 78 69 67 72 78
84 93 102 109 116 121 120 119 118 118 120 120 115 107 99 81
42 9 9 9 9 9 8 9 10 6 21 47 47 49 46 21
11 13 5 15 11 1 0 0 28 49 47 46 45 12 40 44
44 42 41 39 36 34 33 32 31 30 30 30 29 28 27 27
0 0 0 25 29 25 29 48 51 54 46 1 0 0 0 0
2 14 52 43 52 60 49 66 71 31 2 3 4 5 6 27
60 51 44 44 43 44 43 43 43 43 43 43 43 44 46 50
51 41 33 38 44 46 53 57 57 56 50 50 55 60 65 73
87 103 112 123 129 128 125 121 117 120 122 120 115 108 102 84
57 9 9 9 9 8 8 8 10 7 20 47 47 50 46 39
32 24 8 1 4 1 1 5 24 49 47 46 45 18 44 42
42 40 39 38 35 33 33 32 30 31 30 30 29 29 28 28
0 0 0 22 29 25 28 48 51 55 52 3 0 0 0 0
1 3 55 41 47 55 11 14 29 30 0 0 0 0 0 18
58 52 44 44 44 43 44 43 42 43 43 42 43 43 46 50
45 40 14 2 23 33 27 26 23 27 31 36 41 49 65 85
104 119 130 139 138 132 125 121 118 121 121 118 114 109 101 89
71 15 9 9 8 8 8 8 11 8 20 47 46 49 46 47
14 38 49 4 0 0 0 0 24 49 48 46 40 19 44 45
43 43 42 39 35 32 31 30 29 29 28 29 28 28 27 27
0 0 0 19 28 24 26 41 43 42 38 4 0 0 0 0
1 2 56 40 48 54 4 4 22 31 0 0 0 0 0 12
55 51 43 43 43 43 43 43 43 42 42 42 42 44 46 48
42 39 28 23 28 41 35 41 13 7 9 19 32 47 72 98
116 131 141 144 141 132 126 122 121 120 121 119 116 108 104 94
81 28 8 8 8 8 8 8 11 7 17 45 46 48 49 48
28 63 72 17 0 0 0 0 22 47 46 44 17 32 37 29
28 42 41 37 33 30 30 29 29 29 28 29 28 27 27 28
0 0 0 17 28 24 22 11 11 15 11 0 0 0 0 0
1 4 57 40 49 54 5 3 19 33 0 0 0 0 0 6
53 52 42 43 43 43 43 43 42 42 42 42 42 44 45 46
40 40 34 33 40 41 36 56 45 32 31 34 46 63 87 106
122 136 145 145 137 129 125 122 121 119 120 117 115 109 105 98
90 50 8 9 8 8 8 8 10 7 17 42 38 36 33 28
14 20 11 6 0 0 0 0 2 6 5 3 5 25 25 16
12 42 41 38 33 31 29 30 28 28 28 28 28 28 28 27
0 0 0 15 28 23 22 13 13 16 11 0 0 0 0 1
1 6 57 39 49 55 5 4 16 37 0 0 0 0 0 2
50 52 43 43 43 43 43 42 42 42 42 42 42 43 45 46
42 32 25 30 31 39 37 62 67 69 71 68 59 61 84 110
123 136 143 141 133 127 124 124 122 121 119 116 115 112 106 101
96 76 19 9 8 6 4 2 2 1 1 1 2 1 0 0
0 0 1 0 1 0 0 0 2 3 1 0 4 13 7 50
50 43 41 38 34 31 30 30 28 28 29 28 29 28 29 27
0 0 0 14 28 23 22 15 14 19 12 0 0 0 0 6
1 0 53 39 50 54 5 5 15 36 1 0 0 1 1 2
48 53 42 43 43 42 43 42 42 42 42 42 42 43 44 46
44 38 29 24 29 28 35 66 79 88 91 84 69 64 70 97
122 133 139 131 128 125 127 125 123 121 119 119 116 113 108 103
101 92 56 30 26 5 0 1 3 4 5 7 9 10 11 13
14 15 15 17 20 23 25 25 24 21 9 0 9 29 8 63
57 24 18 15 25 31 29 30 29 29 29 29 29 30 29 29
0 0 0 12 28 23 22 20 19 21 13 0 1 0 0 7
0 0 52 40 51 54 12 6 13 38 11 3 0 5 3 2
45 52 41 43 42 42 42 42 42 42 42 42 42 43 44 44
46 41 34 39 39 36 43 72 92 102 104 99 81 72 71 77
111 130 132 126 126 127 126 125 122 120 120 120 118 115 110 105
105 101 79 38 45 55 0 8 19 22 24 25 25 25 25 25
24 24 24 25 26 26 27 26 25 21 8 0 0 0 0 0
0 7 10 8 24 35 33 33 33 33 33 36 35 36 35 35
0 0 0 11 28 22 22 20 22 23 13 2 7 0 0 13
17 0 49 42 52 54 28 13 11 38 8 10 8 10 1 2
42 52 41 43 42 42 42 41 42 42 43 42 41 42 43 42
45 40 34 42 40 38 48 75 98 104 110 110 100 82 79 72
89 116 122 122 129 132 130 128 122 121 122 122 119 115 113 109
108 107 94 64 22 15 2 11 20 23 26 27 27 26 27 26
25 25 25 26 27 28 28 27 26 22 9 0 0 0 0 0
0 7 9 8 20 31 27 24 20 19 17 14 11 10 9 8
0 0 0 9 28 23 22 22 22 24 17 3 8 0 0 14
26 11 43 45 53 54 25 30 11 37 1 12 18 11 0 0
38 49 41 42 42 43 42 42 43 43 42 41 43 42 42 40
45 39 38 36 13 28 53 78 99 111 110 113 109 94 90 87
82 101 118 128 133 135 132 129 125 126 122 123 121 117 115 111
110 109 104 92 69 34 18 23 27 30 28 32 27 28 28 27
27 27 27 28 29 30 29 28 26 23 9 0 0 0 0 0
0 2 10 35 37 36 37 39 40 45 48 49 51 51 51 52
0 0 0 8 27 23 22 22 23 23 28 22 29 30 31 39
47 45 56 51 53 52 14 39 13 37 13 19 20 17 14 15
36 42 40 42 42 42 42 41 42 42 42 41 42 42 41 39
45 41 38 19 26 56 55 80 100 111 117 117 114 106 96 97
96 101 117 126 133 136 132 128 131 127 124 124 123 119 116 112
114 114 111 103 94 85 66 32 15 17 33 24 28 28 28 28
28 28 29 30 31 31 31 29 27 25 8 0 0 0 0 0
0 0 19 59 55 53 53 52 52 53 54 54 54 54 53 53
0 0 0 7 27 23 20 21 24 23 38 50 53 55 58 61
68 69 71 61 51 52 4 25 20 41 36 37 35 34 34 32
31 33 39 41 41 41 42 41 41 41 41 42 42 41 42 39
44 38 32 30 68 57 58 81 102 111 117 121 120 114 104 103
106 111 118 128 133 136 133 135 132 128 126 124 124 122 119 116
115 118 117 113 106 102 99 93 67 23 36 27 24 28 30 30
30 30 31 32 32 32 31 30 28 27 8 0 0 0 0 0
0 0 24 57 54 53 53 52 53 52 53 53 53 53 52 52
0 0 0 7 27 22 20 22 25 24 33 55 56 57 59 64
69 70 72 71 52 53 3 9 11 39 33 36 37 36 36 37
37 38 40 40 41 41 41 41 42 41 41 42 42 42 41 39
39 23 31 60 87 64 60 84 104 113 119 122 126 123 113 106
112 118 122 128 133 134 138 136 131 128 126 126 127 125 123 121
118 120 122 120 118 114 112 110 105 58 32 32 28 25 31 31
31 32 33 33 33 33 32 31 30 28 7 0 0 0 0 0
0 0 28 55 53 53 53 52 52 52 53 52 53 53 52 52
0 0 0 6 26 22 20 22 25 25 21 36 35 35 36 38
42 43 42 38 44 52 4 7 9 40 37 41 41 41 40 40
40 40 41 41 41 41 41 41 41 42 42 42 42 42 40 30
29 21 27 60 93 76 64 87 106 114 121 123 126 129 121 111
112 119 124 125 136 138 135 134 133 133 130 128 128 129 127 124
120 123 126 125 127 125 122 120 101 37 30 35 30 32 31 23
32 32 33 34 33 33 32 31 30 29 8 0 0 9 10 0
0 0 30 55 53 53 53 52 52 52 52 52 52 52 53 52
0 0 0 5 26 21 19 21 25 25 18 15 15 17 19 23
30 32 34 32 42 52 6 4 6 39 37 41 42 41 41 40
40 41 40 41 41 41 41 41 41 41 41 41 42 38 31 26
29 23 20 48 89 87 72 90 106 113 120 123 126 132 129 118
112 118 124 125 130 129 134 140 141 139 134 130 131 133 132 128
123 128 131 131 132 134 133 122 55 29 31 34 31 29 27 23
25 32 34 33 33 33 32 32 31 30 8 0 1 55 51 0
0 0 32 54 53 52 52 52 52 52 52 52 52 52 52 52
0 0 0 5 25 21 18 21 24 24 21 18 19 19 21 25
30 33 35 32 43 52 12 5 7 40 36 39 41 40 40 40
40 40 40 40 41 41 40 40 41 41 41 40 34 29 25 23
28 28 16 29 64 93 79 95 109 114 117 126 131 135 135 129
121 120 126 130 131 135 140 143 142 139 136 131 133 136 136 130
127 129 134 137 136 138 127 63 32 31 32 30 33 31 27 24
23 26 29 33 36 35 32 31 31 30 7 0 1 26 20 0
0 0 38 54 53 52 52 52 52 52 52 51 52 51 52 52
0 0 0 5 25 21 18 21 23 25 25 24 25 25 26 28
34 35 37 33 47 56 37 53 57 54 35 40 39 40 40 40
40 39 40 40 40 40 40 40 40 41 38 29 25 27 24 23
28 28 22 17 32 64 84 99 112 114 116 123 132 138 139 135
129 124 125 130 133 137 141 145 144 139 135 130 132 137 139 132
130 131 135 141 139 114 51 33 33 29 27 31 31 28 25 25
25 23 21 24 24 30 35 34 32 30 7 0 0 3 1 0
0 0 43 53 52 52 52 52 52 51 52 52 51 52 52 52
0 0 0 8 28 22 18 21 24 25 25 24 25 26 27 30
36 38 38 33 45 52 44 56 55 48 34 39 40 39 39 39
39 39 39 39 39 39 40 40 36 30 26 24 23 22 21 21
28 28 26 21 20 23 45 88 114 117 116 122 132 138 141 140
134 128 126 129 132 136 139 141 142 139 133 129 134 140 140 133
131 132 137 131 83 39 30 31 30 29 29 31 29 27 24 25
24 22 20 19 17 22 24 26 27 29 9 0 0 7 3 0
0 0 44 51 51 51 51 51 51 50 51 51 51 51 51 51
16 17 17 18 20 18 18 20 23 24 25 24 24 25 26 29
35 37 37 31 33 33 30 31 35 36 36 37 38 39 39 38
39 38 38 38 39 38 33 29 24 25 24 24 24 23 24 22
23 28 26 25 24 22 22 34 68 105 118 121 127 135 138 141
136 131 127 127 129 131 137 143 141 138 132 128 136 143 141 133
132 117 82 43 31 30 28 29 29 28 29 25 24 23 24 23
21 20 20 18 17 21 22 21 22 23 22 18 6 0 0 0
0 0 46 52 51 51 50 50 51 51 50 50 50 50 50 51
17 17 16 15 16 17 17 19 22 23 24 25 25 25 26 28
33 36 35 33 35 34 34 30 34 35 35 36 37 38 37 38
37 38 37 35 29 25 25 25 23 23 23 21 21 21 22 24
21 26 24 24 25 24 21 22 24 31 53 84 114 133 138 141
138 132 127 124 124 126 132 138 141 137 131 128 137 140 126 93
57 33 26 27 27 29 28 29 27 26 23 19 19 18 22 20
18 19 17 17 18 22 23 20 21 20 20 20 26 23 8 0
0 0 42 50 50 50 50 50 50 49 49 49 49 50 50 49
17 16 16 15 15 16 17 18 22 22 24 25 25 26 27 28
33 35 34 33 35 35 35 32 35 35 35 36 37 37 37 37
37 33 28 25 23 22 23 22 21 22 21 22 22 22 23 27
27 24 28 28 28 28 25 25 22 23 25 25 33 54 82 106
122 129 126 124 123 125 127 131 130 119 101 84 71 51 33 27
26 25 26 28 27 26 27 27 26 24 25 23 21 20 22 19
19 19 17 17 20 23 22 20 22 22 21 21 20 22 23 19
7 1 21 51 50 49 50 49 49 49 50 49 49 49 50 49
16 16 15 15 14 14 15 18 21 22 23 25 25 26 27 29
34 35 35 33 34 35 34 33 34 35 35 36 37 37 37 35
27 24 24 21 22 20 22 22 21 23 22 22 23 24 25 25
29 29 23 28 29 28 29 28 27 27 27 26 26 24 26 25
30 33 38 45 47 49 42 39 36 33 31 28 28 29 29 29
26 26 27 26 27 26 27 25 28 27 23 20 20 20 21 22
22 19 20 20 22 22 21 22 22 21 22 21 20 20 23 25
26 23 22 39 49 49 49 49 49 49 49 48 49 49 49 49
5 4 2 2 8 10 15 24 20 22 24 25 25 26 27 30
35 37 36 34 35 35 35 34 34 35 35 35 36 37 32 24
21 21 20 21 22 20 21 22 22 24 26 23 24 25 24 23
26 28 28 21 21 29 32 32 32 30 30 29 30 29 28 25
24 24 26 26 26 27 28 28 29 30 28 28 31 31 30 30
30 28 26 26 30 28 29 30 28 26 21 19 21 21 23 24
23 21 21 22 22 21 21 23 21 21 22 21 20 21 23 23
24 23 29 18 49 49 50 50 49 49 49 49 50 49 49 49
0 0 0 0 8 14 15 19 20 21 23 24 26 26 27 30
35 37 36 36 36 35 35 35 36 35 35 36 37 29 21 18
21 18 20 21 21 17 21 24 23 23 24 23 24 24 23 21
23 22 24 25 24 17 22 28 31 31 33 32 30 30 31 30
29 27 31 28 29 29 31 32 32 31 29 29 31 30 28 29
31 34 30 26 29 29 28 28 28 24 19 20 21 22 23 24
23 23 21 24 22 21 23 23 21 20 22 22 20 21 21 18
17 20 21 22 36 50 50 49 49 49 49 48 49 49 49 49
0 0 0 0 6 12 15 17 20 21 22 24 25 26 28 30
35 36 36 36 36 35 35 35 35 35 35 31 25 23 19 19
23 19 24 23 24 21 23 26 24 24 23 23 24 25 24 24
25 23 20 23 23 22 22 24 21 27 31 32 33 33 30 30
29 26 27 28 29 30 30 30 29 28 29 28 30 29 30 29
26 21 23 27 27 27 27 26 24 22 19 20 20 21 22 24
23 23 21 24 22 21 23 24 21 20 21 21 20 22 21 15
16 19 18 18 24 47 49 49 49 49 49 48 49 49 49 49
0 0 0 0 6 14 17 19 21 23 25 27 29 30 31 33
35 35 36 36 36 35 34 35 35 32 26 22 21 23 16 17
21 20 20 24 20 21 22 23 22 23 24 24 24 25 26 23
25 25 24 21 23 23 22 28 31 22 20 19 21 26 26 27
29 28 29 29 29 32 32 33 32 31 31 29 25 21 19 19
21 22 23 21 23 24 24 22 23 20 19 20 20 21 21 23
23 21 22 22 21 23 24 21 20 21 22 20 20 20 20 13
18 18 17 15 18 21 36 49 49 48 48 48 49 49 48 48
8 5 1 5 10 17 21 24 26 28 30 32 33 34 35 35
35 35 36 36 36 35 34 34 30 22 19 17 18 20 15 17
21 19 20 24 20 22 23 23 24 23 24 25 27 27 26 23
26 24 23 21 21 25 24 23 26 25 29 29 25 21 24 24
21 18 18 19 20 21 19 19 18 21 19 18 21 23 24 25
26 25 24 23 22 21 23 23 21 20 21 21 20 19 19 22
22 22 22 21 20 23 23 21 21 21 21 21 21 21 21 15
17 19 17 15 14 15 16 50 48 48 48 48 48 48 48 48
11 10 11 14 17 18 20 24 24 24 31 32 33 33 34 34
35 34 35 36 36 34 34 30 19 16 16 14 16 20 17 15
21 19 19 25 22 22 24 24 25 25 24 26 26 26 25 26
28 26 26 23 23 23 26 20 25 25 28 27 28 27 26 26
26 24 24 25 24 22 21 25 21 25 26 24 27 26 26 25
25 23 22 23 24 22 21 21 20 19 21 21 20 20 21 20
21 21 22 21 22 23 24 21 21 20 21 20 19 20 17 13
16 18 17 14 14 17 21 49 48 48 47 48 47 47 48 48
13 11 9 8 7 6 5 21 23 22 30 31 33 33 34 34
34 34 35 35 35 35 32 19 18 17 16 16 17 21 16 14
20 18 17 23 22 23 24 25 24 24 25 26 27 24 25 25
27 26 23 25 25 25 26 23 20 25 26 27 29 28 28 27
26 26 24 25 25 25 23 24 25 22 26 27 28 27 27 25
23 22 22 22 22 21 23 21 22 22 21 22 23 21 22 22
22 22 23 21 21 26 23 20 20 20 20 21 19 19 17 13
15 18 18 17 14 12 20 45 48 47 47 47 48 47 48 47
4 4 4 4 4 4 5 20 25 22 24 27 28 30 31 32
33 33 34 35 35 34 25 18 16 19 17 16 17 21 16 14
20 20 18 23 22 22 23 25 24 24 24 26 27 26 23 25
26 26 24 24 24 23 25 23 21 24 25 24 25 27 25 27
25 25 24 23 26 27 25 26 24 23 25 26 25 26 26 26
24 20 20 19 21 21 21 21 20 22 23 21 21 22 23 21
22 22 21 20 22 24 23 21 23 23 21 21 20 18 18 14
15 18 18 16 14 13 17 15 41 47 47 47 47 47 47 47
