P2
128 120
155
40 40 39 38 38 37 37 36 35 35 34 33 33 32 32 31
31 30 30 29 29 28 27 27 27 26 26 26 26 24 24 24
22 20 18 17 16 17 21 22 23 24 21 12 25 30 26 25
24 23 22 20 18 17 13 13 13 12 16 18 17 19 11 13
20 21 22 23 24 25 25 25 25 26 26 27 27 28 28 29
30 30 31 30 31 32 33 33 33 34 34 34 35 36 37 38
38 39 39 40 40 41 42 42 42 42 43 42 43 43 43 43
44 44 44 44 44 44 44 44 45 44 44 45 45 45 45 46
40 40 39 38 38 37 36 36 36 35 34 34 33 32 32 31
31 30 30 29 29 28 28 27 27 26 25 25 25 25 24 24
22 21 20 18 18 18 23 24 25 26 22 13 26 30 27 26
25 24 23 22 20 18 16 15 14 13 18 19 19 18 18 21
22 23 24 25 25 25 26 26 26 27 27 28 29 29 30 30
31 31 32 33 33 32 33 32 34 34 35 36 37 38 39 39
38 39 40 40 41 42 41 42 42 43 44 43 43 43 44 44
44 45 45 44 44 44 45 44 44 45 44 45 45 45 46 45
40 39 39 38 37 37 36 36 35 34 34 34 33 32 33 31
31 31 30 29 29 29 28 28 27 27 26 26 26 25 25 24
23 22 20 20 19 19 24 26 27 28 22 11 26 31 28 26
25 25 24 23 22 20 18 19 15 13 17 19 20 18 21 22
24 24 25 26 26 26 27 27 28 28 29 29 29 31 31 31
32 32 32 33 32 32 34 35 37 37 37 37 37 39 39 39
40 40 41 41 41 42 42 42 42 42 44 43 43 43 43 44
43 44 44 44 45 44 45 45 45 46 45 46 45 45 45 43
39 39 38 38 37 37 36 36 35 35 35 34 33 33 32 32
31 31 30 29 29 29 28 27 27 27 27 26 26 25 25 24
24 22 21 20 20 20 26 27 28 28 21 11 25 31 27 26
26 25 24 23 22 20 20 21 19 14 14 20 18 20 21 24
25 25 25 26 27 27 28 28 28 29 29 29 30 31 31 32
32 32 32 33 34 35 35 35 37 38 37 38 38 39 39 39
40 40 40 40 41 42 41 42 42 42 44 42 43 43 43 43
44 43 44 44 45 45 44 45 44 43 42 43 43 44 45 46
40 39 39 38 38 37 37 36 36 35 34 33 33 32 32 32
31 30 30 29 30 29 28 27 27 26 27 26 26 25 24 24
24 23 22 21 21 22 27 28 30 29 23 13 25 31 27 27
26 26 24 24 23 19 21 21 20 16 12 22 18 21 23 25
26 27 26 28 28 29 28 29 29 29 30 30 30 31 31 31
33 33 33 34 34 35 35 35 37 38 37 38 39 39 39 39
40 40 40 40 42 41 41 42 42 43 44 42 43 43 43 44
43 44 43 43 44 42 43 43 43 45 45 45 44 44 45 44
39 39 38 37 37 37 36 36 35 35 34 33 32 32 32 32
31 31 30 29 28 28 28 27 27 27 26 26 25 25 25 25
24 24 23 23 22 23 28 29 30 29 22 13 22 31 28 27
27 26 25 24 23 20 21 21 20 16 12 21 20 22 24 25
26 27 27 28 29 29 29 30 30 30 29 29 31 32 32 33
33 34 33 34 35 35 36 35 36 37 36 37 38 38 39 39
39 39 39 40 41 41 41 41 41 41 44 41 43 42 43 43
43 41 42 42 42 45 44 43 43 44 44 44 43 43 44 44
39 38 38 37 37 36 36 36 35 35 34 33 33 33 32 32
32 31 30 29 29 29 29 28 27 27 27 26 26 26 25 25
25 23 24 24 24 24 29 29 30 30 23 15 21 32 28 28
27 26 25 25 24 22 22 22 22 19 15 21 21 24 26 26
27 28 27 29 29 29 29 29 30 31 31 32 31 32 32 33
34 34 34 34 35 35 36 36 36 37 38 38 39 39 40 39
40 40 41 40 41 41 41 42 42 42 43 41 41 40 40 42
42 44 44 43 43 44 44 44 44 44 44 44 44 44 44 44
39 39 38 38 37 37 36 36 36 34 34 34 33 33 32 32
31 30 30 30 29 29 29 28 28 27 27 26 26 26 26 25
25 25 24 24 25 25 30 30 30 30 22 17 20 32 29 28
27 27 27 26 25 24 24 23 23 21 15 22 23 25 27 28
28 29 28 28 29 30 30 30 31 31 31 32 32 33 33 34
34 34 35 35 35 36 36 36 37 39 38 38 38 39 40 40
40 40 40 41 42 42 42 42 41 40 39 41 41 44 44 43
43 43 43 44 42 44 44 43 43 43 45 44 43 44 44 44
40 39 39 38 38 37 37 36 36 35 35 34 34 34 33 32
32 31 31 31 30 30 29 29 28 28 28 27 27 27 26 26
26 25 26 26 26 27 31 31 32 31 24 20 19 32 30 28
28 28 28 27 27 27 25 24 24 22 17 23 24 27 28 27
28 29 30 31 31 31 31 32 32 33 33 33 34 34 34 34
34 35 35 35 36 37 37 37 38 40 39 39 39 40 41 41
41 39 42 42 42 40 41 41 42 43 44 43 43 42 44 44
44 43 44 45 44 44 45 44 44 44 44 44 44 44 44 44
40 39 39 38 38 37 37 37 37 36 35 34 34 33 34 33
32 31 32 31 31 30 30 29 29 28 28 28 27 27 27 26
26 26 26 26 27 27 32 32 32 32 25 21 18 32 30 29
29 29 28 27 27 26 24 24 25 24 20 23 24 28 29 29
30 30 31 31 32 32 32 32 33 34 34 34 34 34 35 35
35 36 36 35 37 37 37 38 38 41 39 39 40 41 41 41
41 40 39 41 41 43 43 43 43 44 44 43 44 44 43 44
43 44 45 45 44 44 44 44 45 44 45 45 44 45 45 44
39 39 38 38 38 38 37 37 36 36 35 35 34 34 34 33
33 32 31 31 31 30 30 30 29 29 29 28 28 27 26 26
26 26 26 27 27 28 32 33 33 32 25 21 18 33 31 29
28 30 29 28 27 27 26 26 26 25 22 27 27 29 30 30
30 31 31 32 32 33 32 33 33 34 33 34 35 34 35 35
36 36 36 36 37 37 38 38 39 40 40 39 40 39 38 39
40 42 43 42 41 42 43 43 43 42 43 43 44 45 44 44
44 44 45 45 44 45 45 45 45 45 45 45 45 45 45 44
40 40 39 39 38 38 37 36 36 36 36 35 35 34 34 33
33 33 33 32 32 32 31 31 30 29 30 29 29 28 27 27
28 27 27 27 28 28 33 33 34 33 25 21 18 32 32 30
28 30 29 29 28 29 27 27 27 26 23 26 29 31 30 31
31 32 33 33 33 33 33 34 34 35 34 35 35 35 36 36
37 37 37 37 37 38 38 39 39 39 37 38 39 40 42 42
42 43 43 43 43 43 44 44 44 44 44 44 44 44 44 44
44 43 44 44 44 45 44 45 45 46 46 45 45 46 45 45
40 40 40 39 39 38 38 37 37 37 36 36 35 35 34 34
34 33 33 32 31 32 31 31 31 30 30 29 29 28 28 28
28 28 28 28 29 29 34 34 35 34 27 22 11 26 33 31
31 31 30 30 29 31 28 29 28 27 23 29 30 32 32 32
33 33 33 33 34 34 34 34 35 36 35 35 36 36 37 37
37 37 38 39 38 38 37 37 38 39 41 41 41 42 42 43
43 44 44 43 43 43 43 44 45 44 44 44 44 45 45 45
45 45 45 45 46 46 46 45 45 45 44 45 45 45 45 45
41 40 40 39 39 39 38 38 38 37 37 36 36 35 35 35
35 34 33 34 32 32 32 32 31 31 30 30 29 29 29 29
28 27 28 28 29 30 35 35 35 35 26 19 15 32 34 32
32 32 31 30 30 31 29 29 29 28 24 30 31 33 33 33
33 34 33 34 34 35 34 35 35 37 35 36 37 37 37 38
38 37 37 37 37 39 40 40 40 40 41 41 42 42 42 43
44 43 45 44 44 44 44 44 44 45 45 44 45 45 44 45
45 45 45 45 45 45 45 45 46 45 46 45 45 45 46 46
41 41 41 40 40 39 39 39 38 38 37 36 36 36 36 35
35 34 34 33 33 32 32 32 33 31 31 31 30 29 30 29
29 29 29 28 30 31 35 36 36 35 26 23 23 31 35 33
33 33 32 31 31 32 29 30 30 29 25 31 31 34 34 34
34 34 35 34 35 35 35 36 36 36 37 36 37 37 37 37
37 38 39 39 39 40 41 41 42 41 41 43 42 43 43 43
44 44 46 44 44 44 45 45 45 45 45 45 45 45 45 45
46 46 45 45 45 46 46 46 46 46 47 46 46 46 46 44
41 41 41 40 40 39 39 38 38 38 38 37 36 36 36 36
35 35 35 34 33 33 32 33 32 32 32 31 30 29 29 29
28 28 29 30 30 32 36 36 36 35 26 23 25 30 35 34
34 33 32 32 31 33 30 30 30 30 26 33 32 34 34 35
35 35 36 35 36 36 36 36 37 37 36 37 37 37 38 38
39 40 40 40 40 40 41 41 41 42 43 43 43 44 43 44
45 44 46 44 45 45 46 45 45 45 45 45 44 44 45 45
45 45 46 46 46 46 47 47 47 47 45 45 46 46 47 47
41 41 41 41 40 40 40 39 39 39 38 37 37 37 36 35
36 36 35 34 34 33 33 33 33 32 32 31 31 31 30 30
30 29 29 30 31 32 36 36 36 36 27 24 28 27 36 35
34 34 33 33 32 34 31 31 32 31 27 34 33 35 35 36
36 35 36 36 36 36 36 36 36 37 37 37 38 39 39 39
40 41 40 41 41 41 41 41 42 42 43 43 44 44 44 44
45 44 45 44 45 45 45 45 46 46 46 46 45 45 45 46
47 47 47 47 46 46 45 45 46 45 46 46 45 45 45 46
41 41 41 40 40 39 40 39 39 38 38 38 38 37 37 36
36 35 35 35 35 34 34 33 33 32 32 32 31 31 31 30
30 30 30 30 31 33 37 37 37 37 28 25 31 26 36 35
34 34 33 33 33 35 32 32 32 32 28 34 33 36 35 35
36 36 36 35 36 36 36 37 37 38 38 38 39 39 39 39
40 42 40 41 41 42 42 43 43 43 44 43 44 45 44 45
45 45 46 45 46 45 46 46 46 46 45 45 46 45 46 45
46 44 46 46 45 46 47 46 46 46 47 47 46 48 47 46
41 41 41 40 40 40 39 40 39 38 39 38 37 37 37 37
36 36 36 35 35 34 34 34 33 33 33 32 32 31 31 31
30 30 30 30 31 33 37 37 37 37 28 25 33 25 36 35
35 35 34 34 34 35 33 33 32 32 28 35 34 36 36 36
36 35 36 36 37 37 38 38 38 38 38 39 39 40 40 41
40 41 41 41 41 42 42 43 43 42 43 43 44 44 45 45
45 46 46 46 45 45 45 46 46 47 46 46 45 45 45 46
46 47 46 46 46 46 46 46 46 46 46 47 46 46 46 46
42 41 41 41 41 40 40 40 39 39 38 39 38 38 37 37
37 37 37 36 35 35 35 34 34 33 33 32 33 31 31 31
30 31 30 31 32 33 39 38 39 38 29 25 34 25 36 36
36 35 35 34 34 36 32 33 33 33 28 34 31 36 36 36
37 38 39 37 39 39 39 38 39 38 39 39 40 40 41 40
41 42 41 42 43 42 43 43 44 44 44 44 44 45 45 46
46 46 47 47 46 46 46 47 46 45 45 45 45 45 46 46
46 47 46 46 47 47 46 46 45 46 46 46 46 47 47 46
43 42 41 41 41 41 40 40 40 40 39 39 39 38 38 37
37 37 36 36 36 35 35 34 35 34 34 33 32 32 32 32
31 31 31 31 32 34 39 39 38 38 30 26 36 25 38 37
37 36 36 35 35 37 33 34 34 34 28 37 34 38 38 38
38 38 39 38 38 39 38 39 39 39 39 40 40 41 41 41
41 42 43 42 42 43 43 43 44 44 45 45 45 45 45 45
46 45 47 46 45 44 46 44 46 47 47 45 46 46 46 46
47 46 46 46 47 47 47 46 46 46 46 47 47 47 46 46
42 42 41 42 41 41 40 40 40 40 39 39 39 38 38 37
37 37 37 36 36 35 35 35 35 34 34 33 33 33 32 32
32 31 32 32 33 35 40 39 39 39 31 26 37 26 38 37
36 36 36 35 35 38 34 34 35 34 29 37 35 38 38 38
39 38 39 38 39 39 40 40 39 40 40 40 40 41 41 41
42 42 43 43 43 44 44 43 43 44 45 46 46 46 45 45
44 44 44 45 47 46 47 46 47 46 47 48 46 47 45 46
47 46 46 47 47 47 47 47 46 47 46 47 47 48 47 48
43 42 41 42 41 41 40 40 40 39 39 39 39 38 38 37
37 37 37 36 36 36 36 35 35 35 34 34 34 33 33 32
32 32 32 33 33 35 40 39 39 39 31 26 37 27 38 36
37 37 36 35 35 38 34 34 34 34 30 37 35 38 38 39
39 39 40 38 39 39 40 39 40 40 40 41 41 42 42 42
42 43 43 43 43 44 44 44 44 45 45 44 44 45 45 45
47 47 46 46 47 47 47 46 47 46 47 49 46 46 47 46
46 47 47 47 47 47 47 46 46 46 46 47 47 47 46 47
42 42 42 42 42 41 41 40 41 39 40 40 39 39 39 38
38 38 37 37 36 36 36 35 35 35 34 34 34 33 33 33
33 33 32 33 34 36 40 40 39 40 32 27 38 28 36 35
37 37 36 35 36 37 34 34 34 34 30 38 35 39 39 38
39 39 40 39 40 40 41 40 40 41 41 42 41 42 42 42
44 44 43 44 44 44 45 43 44 44 44 46 47 46 47 47
47 47 47 46 47 47 47 47 47 47 47 48 46 46 47 47
47 46 46 47 48 47 46 47 47 46 46 46 47 47 46 47
43 42 42 41 42 41 41 41 41 40 40 39 39 39 38 38
38 38 38 38 37 37 36 36 36 35 35 35 35 34 34 33
33 32 33 33 34 36 40 40 40 40 32 27 38 30 36 36
37 37 36 35 34 33 26 27 26 26 26 36 34 38 38 38
40 39 41 39 40 40 41 40 41 42 41 42 42 43 43 44
44 44 43 43 44 43 44 45 44 46 47 46 46 47 47 47
48 48 48 47 48 48 47 47 48 47 48 48 46 47 47 46
47 47 46 47 47 47 46 47 48 47 47 47 48 48 47 47
43 43 42 42 42 41 41 41 41 40 40 40 40 39 39 38
39 38 38 37 37 36 36 36 36 36 35 35 34 35 34 33
33 32 34 34 34 35 41 41 39 36 31 26 36 25 23 22
24 24 23 10 4 3 1 0 0 1 3 7 18 27 26 29
36 40 41 40 41 41 40 41 41 41 43 43 43 43 43 43
43 43 44 44 45 45 45 45 45 46 47 46 47 47 48 47
47 47 47 47 48 47 47 47 47 47 48 49 47 47 47 47
47 48 48 48 47 47 48 47 46 47 48 47 47 48 48 48
43 43 43 43 42 42 42 41 41 41 40 40 40 39 39 39
39 39 39 38 38 38 37 36 36 36 36 35 36 35 34 34
34 32 34 34 36 37 39 38 20 21 18 17 13 1 1 0
0 0 0 0 0 0 0 0 0 0 0 0 0 0 0 2
9 34 40 40 42 42 42 42 42 43 43 43 43 43 43 44
44 45 44 45 45 46 45 45 46 46 48 48 47 48 48 48
48 47 48 47 48 48 48 48 49 47 48 50 48 47 48 48
47 47 47 47 47 48 48 48 48 49 48 47 47 47 48 46
43 43 43 42 42 42 42 41 41 41 41 41 40 40 40 40
39 39 38 38 38 37 37 37 37 37 36 36 36 36 35 34
34 31 33 34 36 36 38 27 11 15 13 1 0 0 0 0
0 0 0 0 0 0 0 0 0 4 2 0 0 0 0 0
0 4 15 34 41 42 41 42 41 41 43 43 43 44 44 45
44 45 45 45 46 46 47 46 47 47 49 47 48 48 47 47
48 48 48 48 47 47 48 48 48 48 47 50 48 48 49 48
48 48 48 48 48 48 48 47 48 47 48 45 45 45 45 44
43 43 43 42 42 42 42 41 41 41 41 40 40 40 40 40
39 39 39 39 39 38 38 37 37 36 36 36 36 35 35 35
31 29 34 34 33 36 38 28 11 10 3 0 0 0 0 0
0 0 0 0 0 0 0 0 0 0 0 0 0 0 3 0
0 0 0 4 18 34 40 41 43 43 44 43 44 44 44 44
45 45 45 45 46 46 46 46 48 47 49 47 47 47 48 48
48 48 48 48 48 48 48 48 48 48 48 48 47 47 48 48
48 48 49 48 48 46 46 46 47 47 46 49 49 48 48 46
43 43 43 42 42 42 42 41 41 41 41 41 40 40 40 39
39 39 39 39 38 38 38 38 37 37 37 37 36 36 35 36
33 26 34 32 35 35 34 17 4 2 0 0 0 0 0 0
0 0 0 0 0 0 0 0 0 0 0 0 0 0 0 0
1 0 0 0 0 5 18 32 41 43 45 43 45 45 45 44
44 45 46 46 46 46 47 47 47 48 48 47 48 48 48 48
48 47 47 48 48 48 48 47 48 49 48 49 49 49 49 49
47 45 47 47 48 48 49 48 48 47 47 46 47 46 47 47
44 43 43 43 43 42 42 42 41 41 41 41 40 40 40 40
40 39 40 39 38 38 38 38 38 37 37 37 36 36 36 35
34 27 30 34 35 24 26 26 7 6 1 0 0 0 0 0
0 0 0 0 0 0 0 0 0 0 0 1 0 0 0 0
0 0 0 0 0 0 0 1 15 36 44 44 44 45 45 45
45 45 46 46 47 47 47 47 48 47 49 48 48 48 49 48
48 48 48 48 48 49 48 49 49 49 50 48 43 44 46 46
47 47 48 48 48 49 46 47 47 46 47 47 46 46 47 45
44 43 43 43 43 43 42 42 42 42 41 41 41 41 40 40
40 39 40 39 38 38 38 38 38 37 38 37 37 36 37 35
34 28 27 34 25 25 33 24 7 0 0 0 0 0 0 0
0 0 0 0 0 0 0 0 0 0 0 3 6 3 0 0
0 0 0 0 0 0 0 0 0 11 36 43 45 45 45 46
46 46 46 47 47 48 47 48 48 48 49 48 48 48 48 49
48 48 48 48 49 49 48 47 45 46 47 47 49 49 48 48
48 47 48 49 48 48 46 47 46 47 47 46 46 46 47 47
43 43 43 43 43 43 42 42 42 41 42 41 42 41 40 40
40 40 40 40 39 39 38 38 38 37 37 37 36 36 37 35
35 31 26 25 23 31 22 13 1 0 0 0 0 0 0 0
0 0 0 0 0 0 0 0 0 0 0 1 3 2 0 0
0 0 0 0 0 0 0 0 0 0 16 37 44 45 45 46
46 46 46 46 47 47 48 48 48 48 49 47 48 48 49 48
49 48 48 46 45 46 47 48 49 47 47 48 48 48 48 48
48 47 47 48 47 48 47 48 46 48 48 48 47 47 46 46
44 44 44 44 43 43 43 43 42 42 42 41 41 41 40 40
40 40 40 40 39 39 39 38 38 38 38 37 38 37 37 36
36 35 29 22 16 15 3 0 0 0 0 0 0 0 0 0
0 0 0 0 0 0 0 0 0 0 0 0 0 1 0 0
0 0 0 0 0 0 0 0 0 0 0 18 43 45 46 45
46 46 47 47 47 48 48 48 48 49 49 48 47 47 48 48
48 48 48 50 48 48 48 48 48 48 48 47 47 47 48 48
47 47 47 48 48 49 47 47 47 47 48 47 46 46 46 47
42 43 44 44 44 43 43 43 43 43 42 42 41 41 41 40
41 40 40 40 41 40 40 39 39 39 38 38 37 37 37 36
36 35 30 21 12 1 0 0 0 0 0 0 0 0 0 0
0 0 0 0 0 0 0 1 0 0 0 0 0 0 0 0
0 0 0 0 0 0 0 0 0 0 0 2 26 43 46 45
46 47 47 47 48 48 48 48 47 47 47 47 47 48 48 48
47 48 48 50 48 48 48 48 48 48 48 47 48 47 48 47
47 48 47 48 48 49 47 47 47 47 47 47 45 47 45 46
53 51 48 47 45 44 43 42 43 43 42 42 42 42 41 41
41 40 41 54 56 51 46 43 40 38 38 38 38 37 37 36
34 33 27 6 0 0 0 0 0 0 0 0 0 0 0 0
0 0 0 0 0 0 0 1 2 0 0 0 0 0 0 0
0 0 0 0 0 0 0 0 0 0 0 0 10 37 45 47
47 48 48 47 48 47 48 49 47 47 47 48 48 47 48 48
48 47 48 50 49 48 49 48 49 49 49 49 49 48 48 48
48 48 47 48 47 48 47 47 47 47 47 47 47 48 47 47
59 56 56 55 50 48 46 43 43 43 43 42 42 42 41 42
42 42 43 57 55 52 50 51 51 44 39 38 38 38 36 35
32 32 20 0 0 0 0 0 0 0 0 0 0 0 0 0
0 0 0 0 0 0 0 0 0 0 0 0 0 0 0 0
0 0 0 0 0 0 0 0 0 0 0 0 0 18 40 46
47 46 47 46 48 47 48 48 48 48 49 48 48 47 48 48
48 47 47 50 48 48 49 48 48 48 48 48 49 48 48 48
48 49 48 47 46 47 48 47 48 48 46 47 48 47 46 47
60 58 56 52 51 52 53 56 48 47 45 43 42 41 41 42
41 41 43 56 54 52 50 51 51 48 40 39 39 39 37 36
34 27 6 0 0 0 0 0 0 0 0 0 0 0 0 0
0 0 0 0 0 0 0 0 0 0 0 0 0 0 0 0
0 0 0 0 0 0 0 0 0 0 0 0 0 1 31 47
47 47 49 47 48 48 48 49 48 48 48 48 47 48 48 48
49 48 48 50 49 48 49 49 49 48 48 48 48 48 48 48
47 48 48 47 47 48 48 48 48 48 47 47 48 48 48 47
58 56 56 53 54 57 58 59 50 53 53 53 48 45 43 42
42 41 42 42 35 41 47 51 51 50 41 38 39 39 38 37
34 18 0 0 0 0 0 0 0 0 0 0 0 0 0 0
0 0 0 0 0 0 0 0 0 0 0 0 0 0 0 0
0 0 0 0 0 0 0 0 0 0 0 0 0 0 20 47
47 48 50 48 48 48 48 49 48 48 48 48 49 48 49 48
48 48 48 50 49 49 48 49 49 49 47 49 49 49 48 47
47 48 48 49 48 48 48 48 48 48 48 48 47 47 48 48
25 8 24 43 53 58 59 58 46 16 28 40 49 52 49 51
52 47 44 37 20 18 16 18 25 36 43 39 39 39 38 37
26 4 0 0 0 0 0 0 0 0 0 0 0 0 0 0
0 0 0 0 0 0 0 0 0 0 0 0 0 0 0 0
0 0 0 0 0 0 0 0 0 0 0 0 0 0 8 46
48 48 50 48 49 49 48 48 49 49 49 47 49 49 48 48
49 49 49 50 50 49 49 48 49 49 48 48 49 48 48 48
48 48 49 49 49 49 49 48 49 49 49 48 49 48 46 45
25 0 0 13 23 23 27 42 43 0 0 0 2 13 21 33
45 50 46 37 15 7 17 16 3 10 45 40 40 40 39 37
20 0 0 0 0 0 0 0 2 3 3 2 1 0 0 0
0 0 0 0 0 0 0 0 0 0 0 1 0 0 0 0
0 0 0 0 0 0 0 0 0 0 0 0 0 0 2 39
48 48 50 48 49 49 49 48 49 49 49 50 49 49 49 49
48 49 49 49 50 50 49 49 48 48 49 48 49 49 49 48
49 49 50 50 49 49 49 49 47 47 46 46 47 47 49 48
27 0 0 9 15 19 20 30 42 0 0 0 2 0 1 0
0 7 45 36 10 7 2 11 2 10 47 40 40 40 39 31
8 0 0 0 0 0 0 3 13 16 18 9 9 2 0 0
0 0 0 0 0 0 0 0 0 0 0 0 0 0 0 0
0 0 0 0 0 0 0 0 0 0 0 0 0 0 0 29
47 48 49 49 49 49 49 50 49 49 49 50 50 49 49 50
50 50 50 52 50 50 50 49 49 49 49 50 49 49 49 48
48 49 49 49 49 48 48 49 49 49 50 49 48 48 49 49
30 0 0 7 7 12 10 29 45 7 0 0 0 0 1 0
0 0 44 33 5 0 0 9 1 10 49 41 41 40 40 21
1 0 0 0 0 1 11 14 24 34 32 25 23 21 5 2
2 1 3 0 0 0 0 0 0 0 0 1 0 0 0 0
0 0 0 0 0 0 0 0 0 0 0 0 0 0 0 14
45 49 50 50 50 49 50 50 50 50 50 50 50 50 49 50
50 50 50 51 50 50 50 49 50 49 49 50 50 50 50 50
51 50 50 49 51 50 49 49 50 49 48 48 48 48 49 51
27 0 0 1 2 0 8 23 42 0 0 0 0 0 0 0
0 0 45 24 0 0 0 2 2 11 50 41 41 40 36 11
0 0 0 0 0 11 37 34 40 59 56 48 44 50 39 17
9 6 4 4 1 2 1 1 1 0 0 0 0 0 0 0
0 0 0 0 0 0 0 0 0 0 0 0 0 0 0 1
35 50 51 50 50 50 50 50 51 50 50 51 50 50 51 50
50 50 50 52 49 51 51 50 51 51 50 50 50 49 52 51
51 50 50 50 50 50 50 49 49 50 49 49 49 49 50 51
24 0 0 0 0 0 2 29 42 0 0 0 0 14 9 1
0 0 43 23 0 0 0 1 2 13 53 42 42 41 34 4
0 0 0 0 0 34 60 63 65 78 88 81 74 76 80 50
32 14 8 8 3 1 4 0 2 0 0 0 0 0 0 0
0 0 0 0 0 0 0 0 0 0 0 0 0 0 0 0
24 49 51 49 50 50 51 51 50 51 51 51 51 51 51 50
51 51 50 49 50 51 51 51 52 50 50 51 50 50 51 51
51 50 50 50 49 50 50 50 50 50 50 50 51 51 51 52
22 0 0 0 0 0 2 32 46 0 0 0 1 18 19 11
4 0 41 21 0 0 0 0 0 7 53 41 41 40 30 1
1 0 0 0 3 55 73 78 84 96 101 102 107 103 102 88
72 42 15 12 11 5 8 6 2 3 0 0 0 0 0 0
0 0 0 0 0 0 0 0 0 0 1 0 0 0 0 0
19 48 50 50 50 50 50 51 51 51 51 50 50 49 49 50
50 50 50 51 51 50 51 50 50 50 49 48 50 50 50 50
50 50 50 49 50 50 51 51 50 51 50 51 51 51 50 48
20 0 4 0 0 0 1 25 50 0 0 0 7 19 20 19
18 2 38 23 0 1 0 0 0 4 53 41 42 39 27 3
0 0 0 0 10 63 79 87 98 102 108 110 116 116 117 110
96 81 42 19 19 12 11 16 7 7 4 2 2 2 0 0
0 0 0 0 0 0 0 0 1 0 2 2 0 0 0 0
12 48 51 51 50 50 50 50 50 50 50 49 50 51 50 49
50 50 50 51 51 50 49 50 50 50 49 48 50 50 51 50
51 50 51 51 51 51 51 50 49 49 49 49 46 45 44 45
18 1 4 0 0 0 7 27 52 0 0 0 3 20 19 19
19 3 36 26 0 0 0 0 0 3 53 41 41 39 25 5
0 0 0 0 20 65 83 95 101 105 110 115 118 121 123 122
112 103 86 48 30 27 19 23 23 21 14 9 5 5 3 0
0 0 0 0 0 0 0 1 3 0 2 2 2 1 0 0
6 43 48 49 49 49 50 49 50 51 50 51 50 50 49 50
49 50 49 49 50 49 49 50 50 49 49 49 49 51 51 51
52 50 50 50 47 45 45 46 47 49 48 46 41 37 32 28
19 2 0 0 0 0 12 27 54 0 1 6 3 6 16 18
17 1 32 41 20 9 1 0 0 2 53 41 41 39 25 4
0 0 0 0 33 69 91 99 101 106 113 118 125 123 123 125
123 116 108 94 60 54 41 33 43 46 28 18 11 7 6 3
1 0 0 0 0 3 1 3 6 2 2 2 3 3 1 0
3 40 49 49 49 49 50 49 50 50 50 51 49 50 50 50
49 50 49 50 50 50 50 50 50 49 50 49 48 49 46 47
46 47 50 48 45 43 40 36 32 28 24 22 22 22 23 24
28 4 2 5 2 0 7 33 62 29 19 11 6 0 1 9
16 0 30 55 55 52 51 44 39 39 55 41 42 40 22 3
1 0 0 0 47 83 101 103 104 111 120 124 125 123 122 117
116 113 118 116 104 87 84 71 71 87 70 28 18 9 7 4
3 0 2 1 2 4 7 1 4 7 4 5 6 5 3 0
1 35 49 49 49 49 50 49 50 50 50 51 49 50 50 49
49 50 50 49 49 49 47 48 46 46 44 47 51 49 45 43
40 35 32 27 24 23 22 21 22 24 26 26 28 29 29 30
55 59 44 37 34 23 9 21 69 41 43 48 49 43 33 22
15 9 32 56 56 52 51 54 61 63 60 41 42 41 23 6
3 0 0 4 64 95 106 105 107 116 120 124 112 105 104 94
90 92 106 114 116 114 111 116 106 109 112 64 28 16 11 8
3 3 3 5 5 5 7 6 3 10 8 5 8 8 6 4
1 34 48 48 49 50 50 50 49 50 49 51 49 49 48 47
46 45 46 46 45 45 46 48 45 43 39 36 31 27 25 23
22 22 24 26 27 28 30 12 26 32 32 32 34 34 35 35
58 64 49 57 58 64 62 65 67 21 19 21 22 23 28 32
40 49 58 50 47 50 52 57 63 65 62 42 41 41 26 11
4 0 0 18 80 101 109 108 110 110 100 77 45 41 50 54
73 68 63 73 81 107 122 132 138 140 137 116 46 21 14 10
7 8 6 11 4 5 8 7 7 10 10 7 8 8 5 7
1 34 49 49 49 49 50 50 49 49 48 49 46 47 47 47
46 48 46 44 40 36 32 27 27 25 25 25 26 28 29 30
31 32 33 34 34 34 36 26 19 37 38 38 38 33 34 40
59 54 53 60 63 68 64 52 47 22 20 20 20 20 19 17
17 16 16 17 22 29 34 43 43 41 44 40 42 41 30 20
11 0 0 48 88 102 109 109 103 84 58 43 42 37 26 33
31 19 11 25 23 18 38 60 86 111 129 135 88 23 17 8
9 12 9 13 10 7 7 10 11 10 14 11 8 7 9 6
3 35 49 49 48 49 49 49 49 49 50 49 47 43 47 46
33 28 26 26 26 27 28 30 31 32 32 32 33 35 36 36
37 38 38 30 30 41 41 40 12 41 42 40 41 23 40 41
55 41 53 60 62 67 67 57 48 26 22 21 20 18 16 16
15 14 14 14 15 15 16 41 43 40 38 41 43 42 38 31
21 0 7 60 82 96 107 106 95 74 62 58 50 18 5 0
0 0 4 38 32 5 3 4 4 6 13 29 37 13 13 9
9 13 12 12 13 12 5 9 13 13 14 13 5 1 7 3
5 34 49 51 51 49 47 44 39 35 32 29 27 27 39 52
25 29 31 33 34 34 35 36 37 38 39 40 41 41 42 42
42 42 44 43 38 31 43 44 21 34 45 40 39 24 45 26
59 31 46 56 59 64 65 58 52 30 23 20 18 15 16 16
16 16 16 16 17 17 21 43 15 29 42 42 43 42 40 36
27 0 3 10 35 72 101 106 103 86 78 36 3 0 0 0
0 0 1 22 11 12 19 18 18 18 16 10 7 4 4 6
2 14 13 13 14 10 9 6 11 8 11 12 6 0 3 1
9 36 41 37 33 31 29 28 29 30 32 34 34 34 33 40
27 34 38 39 40 41 42 42 43 43 44 44 44 43 44 45
45 43 44 46 47 39 30 42 38 17 45 43 32 27 39 25
53 3 2 6 14 25 33 34 50 32 21 19 12 5 6 6
15 18 19 17 20 21 25 44 34 29 52 49 47 33 14 36
37 6 0 5 20 50 85 102 112 90 25 0 0 0 0 0
0 0 2 36 51 77 109 113 113 119 119 116 112 94 43 4
1 4 11 13 8 6 7 6 5 5 7 10 8 2 0 0
6 26 30 31 32 34 35 36 37 38 38 39 39 39 39 51
32 39 42 43 44 44 45 45 46 45 45 46 46 47 45 44
46 46 43 46 47 47 39 29 41 13 42 44 28 33 23 40
47 1 0 0 0 1 13 20 50 32 19 17 8 0 0 0
7 14 14 5 9 16 18 44 54 46 48 50 52 47 27 38
40 12 1 21 42 49 66 90 109 42 0 0 0 0 0 0
0 0 4 34 85 110 145 150 149 149 150 150 150 148 123 28
3 3 11 12 10 8 6 4 3 2 3 6 9 2 0 0
9 33 36 37 39 39 41 42 43 43 43 45 44 44 38 42
33 42 44 45 45 46 47 47 47 48 48 47 47 47 47 47
44 45 45 45 47 48 47 39 30 24 25 38 22 22 37 40
45 0 0 0 0 4 1 12 53 32 18 17 13 0 0 4
1 0 1 0 0 4 6 43 55 35 36 29 34 41 45 43
33 10 4 19 41 60 62 84 83 5 0 0 0 0 0 0
0 0 2 24 81 108 138 150 150 149 151 151 150 150 145 81
11 3 4 11 8 7 10 6 5 16 21 14 4 1 0 0
11 42 43 43 44 44 45 46 47 46 46 46 45 44 20 14
16 44 47 49 49 48 47 47 48 48 48 49 49 48 48 48
47 45 46 44 47 48 48 47 37 24 3 2 3 21 48 39
42 0 0 0 0 3 1 0 53 26 16 7 0 0 0 15
9 3 3 0 0 0 3 42 56 37 27 42 40 34 26 11
0 0 0 0 0 13 43 72 38 2 1 0 0 0 0 0
0 0 0 19 62 97 132 150 150 150 150 151 151 150 148 115
33 10 5 6 10 4 5 10 17 52 62 65 37 3 0 0
9 46 47 46 46 47 47 47 48 47 48 48 48 45 18 13
9 42 48 49 51 49 49 49 49 49 49 49 49 49 49 49
47 48 45 45 43 47 49 48 46 34 5 0 5 35 44 38
40 0 0 0 0 1 0 1 56 13 1 0 0 1 2 13
17 7 1 0 0 0 2 43 58 37 17 42 40 15 0 0
2 0 0 0 0 0 6 31 20 21 0 0 0 0 0 0
0 0 3 19 60 97 130 151 151 151 151 151 151 150 146 117
54 13 10 9 9 10 9 14 17 42 76 81 95 32 0 0
9 46 49 49 49 50 49 49 50 36 22 14 14 45 13 17
9 41 48 49 51 49 49 49 49 49 49 50 50 49 49 49
48 48 47 45 43 45 47 47 43 44 23 0 14 40 32 34
39 0 0 0 0 0 0 2 58 16 0 0 0 0 3 4
24 17 10 4 2 1 2 42 58 37 12 26 24 5 0 2
3 0 0 0 0 0 0 19 23 34 0 0 0 0 0 0
0 0 2 14 60 103 131 151 151 151 151 151 151 150 143 116
67 22 12 11 12 18 26 35 33 71 135 136 114 82 0 0
8 46 49 50 49 49 49 50 48 14 7 15 26 40 14 1
6 40 48 49 50 48 48 49 49 49 48 48 48 48 49 48
47 48 48 47 43 42 42 42 42 46 31 0 13 37 29 32
30 0 0 0 0 0 0 7 58 11 0 0 0 0 7 17
20 19 24 5 0 1 1 42 59 39 27 32 31 8 0 4
2 0 0 0 0 0 0 16 18 19 0 0 0 0 0 0
0 0 1 11 54 104 133 151 151 151 151 150 151 150 142 121
72 30 15 13 15 26 48 69 92 118 149 148 145 116 9 0
6 46 49 50 49 49 50 50 50 47 47 48 48 45 19 8
8 40 47 48 50 48 49 49 49 49 49 49 48 48 48 49
47 46 47 47 47 42 41 41 44 46 35 1 12 41 31 34
27 0 0 0 8 2 0 2 57 7 0 0 0 0 12 29
28 19 17 4 0 4 5 38 59 42 33 25 9 9 1 7
2 0 0 0 0 0 1 74 87 13 0 0 0 0 0 0
0 0 0 8 49 108 139 151 151 151 151 150 151 150 143 126
75 33 16 15 20 35 59 73 101 148 150 147 147 135 17 0
5 45 50 51 49 50 50 50 50 49 48 47 46 44 29 1
8 40 48 49 50 48 49 49 48 48 48 49 48 49 48 48
47 47 47 47 46 46 41 41 45 46 36 0 7 42 31 32
25 0 0 7 23 11 1 2 57 5 0 0 0 0 4 7
30 6 1 1 2 3 3 35 58 44 33 19 12 8 6 6
0 0 0 0 0 0 9 109 132 25 1 0 0 0 0 0
0 0 1 7 47 115 147 151 151 150 150 150 150 150 145 130
90 53 25 23 39 59 79 89 67 110 145 148 144 138 17 0
3 42 50 51 49 49 50 50 49 48 49 48 47 45 35 3
15 41 48 49 50 49 48 48 48 47 47 48 48 48 48 48
47 47 47 47 47 45 41 40 44 45 37 0 6 41 31 30
25 0 0 20 25 16 4 3 55 4 2 0 1 1 2 0
22 3 0 0 0 0 0 31 58 43 19 10 3 6 19 2
0 0 0 0 0 0 22 124 149 61 6 0 0 0 0 0
0 0 0 5 58 128 151 151 151 151 150 149 150 148 147 135
111 88 62 65 90 102 120 109 123 113 118 146 143 129 8 0
2 41 51 50 50 49 49 50 49 49 49 48 46 44 38 29
33 44 48 49 50 49 48 48 48 47 48 48 48 48 48 48
48 47 47 47 46 46 41 36 41 45 40 2 3 29 20 17
29 13 9 23 20 21 9 2 55 4 6 1 2 0 0 0
22 8 0 0 0 0 0 25 57 38 11 16 0 5 23 0
0 0 0 0 0 0 46 132 147 114 14 11 0 0 0 0
0 0 0 7 87 143 151 151 150 150 150 148 149 147 147 136
120 105 93 93 116 133 147 117 137 146 124 142 148 105 1 0
2 40 50 50 49 49 49 49 49 49 49 48 46 43 39 39
41 47 49 48 49 48 48 48 47 47 48 47 47 48 47 47
47 46 47 46 46 45 39 35 25 24 25 2 0 32 31 30
35 52 51 57 54 51 50 47 59 4 0 0 0 0 0 1
22 8 1 3 1 0 0 17 59 31 9 10 3 15 24 0
0 0 0 0 0 3 89 138 144 142 58 16 22 0 0 0
0 0 1 37 128 152 151 151 151 150 149 147 146 146 145 136
124 111 103 106 121 136 149 120 118 149 134 142 148 67 0 0
8 46 49 50 49 49 49 50 48 48 48 48 46 44 41 42
46 47 48 47 49 49 48 48 48 48 48 48 48 47 47 47
48 46 45 45 45 43 38 36 36 37 41 3 1 31 32 29
33 52 53 57 56 56 61 66 64 19 11 20 3 0 0 5
24 12 5 5 3 0 0 11 55 30 9 3 4 4 23 0
0 0 0 0 0 30 124 142 147 149 130 32 28 10 0 0
0 0 26 114 151 151 150 150 150 149 148 145 146 146 143 134
121 112 109 111 125 131 144 134 127 139 130 146 143 31 0 0
12 46 49 49 50 49 49 49 49 48 48 47 47 45 45 45
49 49 50 49 49 49 49 49 49 48 48 47 47 46 47 47
46 45 46 45 45 43 39 35 38 41 37 5 1 26 30 29
32 54 55 56 55 56 66 69 68 46 44 43 41 38 35 33
36 26 24 20 19 17 16 25 47 35 18 13 21 6 12 1
0 0 0 0 1 74 129 145 149 143 136 94 34 12 4 9
22 61 121 150 151 150 150 151 150 148 145 145 146 143 139 129
119 112 111 114 126 126 135 125 130 135 141 150 121 6 0 0
13 48 49 50 50 50 50 50 50 48 49 48 47 46 47 47
48 47 48 47 46 49 48 48 48 48 47 48 48 48 47 47
46 45 45 42 41 41 38 35 35 39 39 9 0 28 32 28
33 45 47 49 50 51 54 53 53 47 48 49 48 45 46 47
46 43 41 37 34 33 33 36 50 47 32 29 24 18 18 1
0 0 0 0 11 100 129 148 149 142 132 123 96 76 71 91
114 131 148 151 151 151 150 150 149 148 146 145 145 141 136 127
117 116 114 114 124 122 123 118 139 146 148 148 67 0 0 1
18 49 50 50 50 50 51 51 50 48 48 49 48 47 47 47
47 49 47 49 49 49 49 48 48 47 48 47 47 45 48 47
46 46 45 44 44 43 39 33 35 39 39 12 0 24 33 28
36 50 47 48 49 49 48 43 43 48 49 50 51 47 49 48
48 48 46 50 49 45 42 42 51 62 58 57 55 50 45 14
0 0 0 3 21 105 129 151 152 150 148 144 134 117 94 109
129 142 151 151 151 151 151 150 148 149 147 144 145 139 133 125
119 118 114 110 121 121 142 150 150 150 150 119 12 0 1 1
28 50 50 50 49 49 49 50 49 49 50 49 49 48 49 51
50 50 50 50 50 50 50 49 50 49 49 48 48 47 48 47
47 45 44 44 44 42 38 34 35 39 37 12 0 20 34 29
37 54 47 47 48 48 48 49 51 54 50 54 57 60 58 50
50 49 48 60 61 58 55 55 55 49 46 46 48 49 49 37
6 0 0 0 27 96 118 136 143 146 149 151 149 128 89 96
122 142 152 152 151 152 151 150 148 150 148 145 143 138 133 124
122 119 112 109 117 122 150 151 151 151 142 43 0 0 3 1
34 51 50 51 50 50 51 51 51 49 50 50 51 49 51 51
51 50 50 51 50 51 50 50 50 49 48 47 48 47 48 46
46 46 44 44 43 42 38 34 34 38 38 15 0 18 32 29
63 58 51 52 51 51 52 55 58 59 51 56 58 66 59 53
45 44 50 63 60 58 54 56 54 49 40 35 34 34 33 39
37 16 11 32 62 73 104 117 99 72 93 114 121 109 94 87
105 131 147 151 152 152 150 148 147 149 149 145 140 136 129 124
123 119 112 109 112 115 146 151 151 149 85 6 1 1 6 4
42 50 50 52 51 51 51 51 51 50 50 50 51 50 51 51
51 50 50 50 50 50 51 50 49 50 49 47 47 47 47 46
46 45 44 43 43 43 39 32 33 37 36 17 0 16 32 27
67 61 54 46 51 47 49 56 61 64 53 56 57 55 54 54
50 41 41 60 59 57 57 59 56 53 47 41 40 39 40 43
45 45 54 78 81 48 66 91 99 104 109 107 109 113 115 97
85 112 136 145 151 150 147 145 144 146 146 145 143 131 126 124
123 117 112 107 105 100 94 135 135 101 24 2 0 2 5 13
48 50 51 51 50 50 50 50 50 50 50 49 51 50 51 50
50 50 51 50 49 50 50 49 48 49 48 48 47 46 47 45
45 45 44 43 42 40 38 31 30 36 35 20 0 11 32 28
69 57 13 28 16 16 20 27 39 63 53 53 33 34 41 42
40 43 42 41 16 14 18 29 35 38 51 46 42 45 47 46
49 47 53 79 84 78 53 46 72 99 121 134 132 131 123 112
89 85 118 136 146 149 148 142 142 143 145 146 140 132 127 123
119 114 110 104 100 89 38 48 69 48 6 2 0 2 4 29
49 49 50 50 50 50 50 49 49 49 49 49 51 50 51 49
50 50 50 50 49 49 49 50 49 48 48 47 46 46 47 45
44 44 41 41 40 38 36 29 28 34 34 19 0 10 32 29
40 43 2 0 0 0 0 0 6 59 54 37 2 3 7 11
16 30 48 41 7 1 0 2 14 20 48 42 45 46 53 55
57 54 48 67 81 83 67 56 101 106 113 125 129 129 125 123
107 77 94 127 144 150 148 145 146 143 145 141 138 132 129 121
119 115 110 101 92 87 88 82 64 33 0 2 1 3 9 43
49 48 49 49 51 49 44 42 40 36 32 28 35 47 51 50
50 49 50 50 49 49 49 48 48 47 46 46 46 45 47 44
44 43 41 39 39 39 36 28 27 32 33 22 0 8 32 30
43 41 12 8 0 0 0 5 14 59 50 12 0 0 0 2
9 38 48 43 3 0 0 0 10 22 38 2 7 11 12 14
37 56 46 54 74 80 67 58 104 107 107 126 135 140 138 132
118 96 82 116 135 145 149 148 146 145 143 141 137 132 128 122
118 114 107 96 85 87 97 84 58 18 0 8 4 6 17 33
38 42 49 49 50 49 26 14 14 13 15 14 21 47 51 51
50 49 49 50 49 49 49 48 47 48 46 46 46 45 46 44
42 42 41 39 38 37 35 28 27 32 33 24 0 6 31 29
50 44 8 6 0 0 0 4 27 58 44 3 0 0 0 0
0 35 48 44 2 0 0 0 7 19 39 0 7 15 6 0
25 58 46 43 61 73 63 60 100 101 103 114 127 135 139 140
128 107 98 108 132 143 149 148 148 147 146 143 138 133 127 123
118 112 104 92 79 87 95 77 51 8 1 7 6 5 8 9
9 19 48 49 50 49 26 13 15 13 14 14 20 48 50 50
51 50 49 50 49 49 48 47 46 47 46 46 45 44 44 43
42 41 40 38 37 37 35 28 26 30 32 25 0 3 26 22
53 47 7 10 0 0 3 5 4 51 37 0 0 0 0 2
0 32 47 42 4 0 0 0 5 17 41 0 10 19 13 0
21 58 46 39 50 66 60 55 75 88 85 87 89 92 88 95
95 95 111 112 135 142 149 148 150 149 146 144 138 131 128 123
116 108 100 86 75 87 90 73 45 2 1 5 4 7 9 8
8 15 47 48 48 48 24 14 14 15 14 14 19 47 51 51
51 50 49 50 48 48 48 47 47 46 47 46 45 44 43 43
41 41 39 38 37 34 33 27 22 26 29 25 0 3 27 30
54 50 4 0 0 0 5 15 3 50 34 0 0 0 0 0
0 34 47 40 4 0 0 0 2 11 44 1 5 7 2 0
19 58 47 38 48 65 57 36 40 61 85 124 135 140 121 125
73 93 113 121 141 144 149 148 151 148 145 144 136 132 127 120
114 108 96 80 74 87 88 73 39 0 2 3 4 7 9 9
8 12 46 48 48 47 22 13 14 14 13 14 16 43 51 51
50 50 49 50 50 49 48 47 46 46 44 43 42 41 42 41
41 41 39 37 36 36 34 26 22 26 29 25 0 2 26 28
40 56 21 4 0 0 4 7 1 46 31 0 0 0 0 0
0 33 48 37 2 0 0 0 0 2 46 2 11 15 11 0
18 57 46 39 47 64 62 25 15 79 98 111 115 112 101 109
124 123 120 130 146 147 149 149 150 148 145 141 135 132 125 119
111 103 90 72 77 88 89 73 30 0 2 1 4 8 8 9
8 13 45 48 48 48 25 13 14 15 15 13 13 42 51 50
49 48 47 47 47 45 46 47 47 46 46 46 45 44 44 41
39 38 37 36 34 33 32 25 23 26 29 26 1 0 24 27
35 58 21 5 0 0 7 14 4 44 30 0 0 0 1 0
0 23 50 39 15 0 0 0 0 3 49 5 2 3 3 0
15 56 45 38 47 61 67 41 63 82 96 111 117 117 125 136
140 134 130 140 148 149 150 151 151 149 144 140 134 130 123 112
108 98 80 68 80 92 92 72 22 0 3 0 6 8 8 9
8 13 45 48 48 48 31 19 20 20 22 24 22 36 47 48
49 49 50 49 48 48 45 46 45 46 46 44 43 42 41 40
38 37 36 34 34 31 31 24 21 24 28 27 2 0 21 26
31 57 6 0 0 0 0 1 1 44 32 0 0 1 0 0
0 19 52 38 6 0 0 0 0 0 47 10 0 3 1 0
13 54 43 39 46 56 75 52 74 87 104 119 133 141 146 148
146 141 141 147 150 149 150 150 151 149 143 137 132 126 119 110
104 93 71 71 89 98 95 70 16 0 1 0 11 8 8 9
7 12 44 48 48 48 35 22 22 21 18 17 26 49 28 27
44 50 49 48 48 48 47 46 45 46 46 43 43 41 41 39
38 36 35 34 33 32 31 24 20 23 27 27 3 0 19 27
27 51 4 0 0 0 0 1 0 41 37 0 0 0 0 0
0 15 54 39 6 0 0 0 1 0 45 16 0 1 0 1
16 51 42 40 46 51 75 62 80 99 115 130 143 150 151 150
150 147 143 150 151 151 151 151 151 147 139 134 126 121 117 107
99 81 67 81 98 104 97 70 11 2 0 2 10 9 8 10
8 11 42 47 49 47 34 14 16 15 2 1 9 16 23 3
33 50 50 49 49 49 47 46 46 46 46 44 43 41 40 39
37 35 35 33 32 30 30 24 21 23 27 28 4 0 18 27
22 48 3 0 0 0 0 19 1 39 47 1 1 0 7 0
2 14 56 40 32 25 22 20 23 23 51 20 0 0 0 0
16 50 41 40 46 49 71 64 81 104 115 127 144 150 151 151
150 149 148 151 151 150 151 150 148 143 136 129 120 116 109 101
87 70 78 95 105 108 98 68 8 1 0 3 8 9 9 10
7 10 43 48 50 47 34 13 15 15 10 2 13 27 31 6
31 49 49 48 48 48 47 46 46 45 44 44 42 41 40 37
37 35 33 33 32 30 30 24 19 22 27 27 6 0 17 27
13 50 37 35 28 28 38 49 40 49 54 55 53 50 54 52
53 55 61 41 47 53 55 57 62 68 68 46 34 32 30 30
33 46 41 38 45 47 64 62 80 102 115 127 142 149 151 150
151 150 151 151 151 151 150 149 146 139 132 121 112 106 98 86
75 80 92 103 110 109 99 66 9 2 4 2 9 10 9 10
7 10 42 47 50 47 36 13 14 14 10 2 5 4 0 3
29 48 49 48 48 48 46 46 45 45 44 43 42 41 40 38
36 34 34 32 31 30 29 25 20 21 26 27 8 0 15 26
5 50 51 51 44 50 61 62 56 53 49 66 63 59 58 62
64 65 65 43 43 52 55 58 65 70 70 54 42 42 42 43
45 43 41 37 43 47 57 61 85 102 114 130 143 149 149 150
151 150 151 151 150 150 149 146 139 131 121 108 101 93 84 82
88 93 101 106 110 110 100 72 20 5 7 10 13 10 8 11
7 8 40 47 50 46 37 13 14 14 10 10 11 9 2 1
27 48 40 35 46 47 46 46 45 44 44 43 41 39 39 36
35 34 32 31 30 30 29 24 19 20 25 27 10 0 11 26
4 51 52 45 45 51 60 63 54 46 41 57 61 61 60 59
60 59 61 46 35 41 47 51 56 55 54 49 42 42 42 41
40 41 42 40 38 42 47 62 92 107 124 136 147 150 151 151
151 151 151 151 150 148 146 137 128 117 104 95 88 88 91 97
97 99 104 109 112 110 100 75 27 8 7 0 4 9 9 12
7 8 39 46 49 47 37 12 14 9 3 14 1 0 0 0
17 17 19 18 12 47 46 45 46 45 44 42 40 39 38 36
35 33 33 30 30 30 29 25 19 19 25 26 10 0 10 26
1 49 41 36 37 39 50 63 57 50 44 32 34 33 34 33
34 33 37 39 38 40 44 44 42 37 35 40 43 43 43 43
43 42 42 42 43 43 48 67 98 108 124 138 150 151 152 152
152 151 151 150 145 142 137 126 115 102 90 85 92 98 102 101
101 102 106 111 113 112 101 77 34 9 8 2 4 9 8 12
7 8 38 46 49 47 38 11 13 7 43 68 35 1 2 1
17 42 48 46 18 35 46 44 45 45 43 42 40 38 38 36
34 32 32 30 30 30 28 25 19 19 25 26 12 0 9 26
6 47 33 25 31 35 44 55 53 49 47 34 35 34 36 39
39 39 41 44 46 46 49 49 47 42 40 40 42 43 42 43
42 41 42 41 43 45 49 72 97 109 121 132 146 148 151 152
151 151 148 140 133 127 117 108 94 87 89 96 101 102 105 105
103 104 106 112 113 112 103 79 41 8 9 8 9 8 9 11
7 7 37 46 49 47 39 12 13 8 42 54 50 0 0 7
48 48 48 47 32 22 46 44 44 43 43 41 39 37 36 34
32 32 31 30 30 29 28 25 20 19 25 26 14 0 8 26
29 49 26 0 0 2 3 11 16 20 49 39 47 46 47 57
57 48 46 48 49 51 58 58 56 43 42 40 42 42 43 43
42 43 42 42 42 46 49 71 93 104 116 122 131 136 146 148
149 145 134 124 116 108 99 90 89 94 99 103 105 109 108 107
105 105 110 113 113 113 104 81 48 8 9 8 8 8 8 10
7 8 35 46 48 47 40 13 11 9 30 9 29 0 0 6
49 48 47 46 38 19 46 45 44 44 42 39 38 36 34 34
33 31 31 31 30 30 28 25 20 19 25 26 16 0 5 27
53 55 27 0 0 0 0 0 9 24 53 41 55 54 54 69
68 19 14 16 17 20 24 47 58 44 43 41 41 42 42 42
42 42 41 42 42 45 47 61 83 94 99 109 116 120 130 135
132 123 115 108 99 91 89 95 99 101 103 104 108 111 110 109
107 108 113 115 116 113 104 85 56 10 9 8 8 7 7 10
7 6 34 46 49 47 42 21 25 21 1 2 3 0 2 10
46 48 47 47 37 22 46 45 44 43 42 39 36 34 33 32
31 30 30 30 29 29 28 26 20 21 27 28 18 0 5 29
54 57 33 0 0 0 0 1 0 20 55 38 52 45 23 32
51 7 0 0 0 0 1 38 59 45 43 43 42 42 42 42
42 41 41 42 42 43 47 50 67 80 84 96 101 107 111 113
108 100 96 92 89 88 92 96 100 102 104 107 110 113 113 111
109 111 116 117 117 112 104 89 66 14 8 8 8 8 7 10
8 7 35 47 49 47 47 40 9 23 5 0 0 0 0 0
43 48 48 47 30 31 44 44 44 43 42 39 36 35 34 33
33 31 31 30 30 30 28 27 19 18 24 27 18 0 3 27
51 52 37 0 0 0 0 1 0 16 55 38 51 36 0 5
40 8 0 0 0 0 0 32 57 45 42 42 42 42 42 42
41 41 41 42 42 44 47 46 46 55 59 69 78 82 88 86
79 78 81 83 84 86 88 94 102 106 111 114 118 118 116 114
111 114 118 120 117 111 107 95 73 19 8 9 8 7 8 10
8 8 32 44 45 48 48 39 38 67 44 0 0 0 0 1
45 49 48 47 17 41 46 43 43 43 41 36 33 31 30 31
30 29 29 30 29 29 29 28 19 18 24 26 20 0 2 26
15 19 6 0 0 0 0 2 0 20 54 38 51 38 0 5
37 10 0 0 0 0 0 24 56 45 42 42 42 42 42 41
41 41 41 41 42 43 45 45 37 34 33 33 38 42 42 45
53 60 62 62 66 70 85 101 113 118 124 127 128 123 119 115
113 117 120 120 117 111 109 96 77 30 7 8 8 8 7 9
8 7 33 48 48 49 48 39 38 52 44 0 0 0 0 0
27 29 28 17 23 43 12 11 27 43 41 36 33 30 30 31
29 28 29 29 29 29 28 27 20 18 22 26 21 0 1 24
14 18 5 0 0 0 0 1 0 20 54 39 52 38 0 4
33 14 0 0 0 0 0 17 55 45 42 41 42 42 42 41
41 41 41 41 42 43 44 45 38 33 28 27 24 25 23 24
28 30 33 35 47 66 87 106 121 128 138 138 134 127 120 114
115 120 121 120 116 113 108 98 84 46 7 8 7 8 6 6
4 3 13 17 13 9 6 2 0 0 1 0 0 0 0 0
0 0 0 0 0 15 6 37 23 44 41 37 33 30 29 30
29 29 29 30 29 29 28 28 21 18 23 27 23 0 0 24
17 21 4 0 0 0 0 3 0 17 54 39 51 37 0 6
31 16 0 0 0 0 0 14 55 45 41 41 42 42 42 41
41 41 41 41 42 43 44 44 41 30 21 25 30 29 24 7
6 10 21 38 57 80 97 114 129 140 144 141 134 126 121 116
117 118 118 119 116 112 107 101 89 63 23 19 11 1 0 0
0 0 0 0 0 0 1 3 4 4 5 7 9 11 12 13
15 12 0 0 29 12 63 87 68 40 38 32 32 30 29 30
29 29 30 30 30 30 30 27 21 19 24 27 25 0 0 24
18 22 4 0 0 0 0 5 0 11 55 39 52 38 2 6
28 20 6 0 0 3 3 11 54 46 41 41 42 41 42 41
41 41 41 41 41 42 43 44 43 38 32 35 33 32 41 33
29 30 36 52 70 92 109 121 133 143 146 141 134 128 121 118
117 118 119 117 117 111 107 103 95 77 41 32 44 3 2 10
13 16 19 21 22 23 23 24 23 23 23 24 25 26 26 25
23 17 0 0 8 5 3 6 5 6 5 8 33 32 30 33
30 32 32 32 32 33 32 32 25 22 26 30 28 1 0 25
22 24 4 2 3 0 1 15 4 8 57 40 53 42 21 6
26 24 8 6 5 6 2 10 54 45 41 42 42 41 41 41
41 41 41 41 41 41 42 43 42 35 35 40 38 39 51 58
64 65 64 57 67 94 111 123 135 145 144 136 131 128 122 119
118 117 117 116 115 112 107 105 98 85 49 23 67 8 3 17
20 23 25 25 25 25 25 25 24 24 25 25 26 27 26 26
24 17 0 0 0 0 0 0 0 13 9 11 41 40 38 38
37 37 36 34 30 28 26 23 16 12 12 12 9 0 0 2
22 25 5 6 3 0 1 20 24 6 58 40 55 38 32 13
24 20 4 15 15 5 0 7 51 44 39 41 41 41 41 41
41 42 41 41 41 42 41 42 43 34 39 42 40 36 54 65
73 75 73 64 61 78 110 123 134 142 138 133 129 128 126 120
118 116 117 116 118 114 108 104 103 93 67 3 0 3 4 18
20 24 27 27 27 27 26 26 25 26 27 28 28 29 29 27
25 19 0 0 0 0 0 0 0 10 7 13 18 16 16 15
16 18 21 22 23 25 27 29 30 28 29 34 39 6 0 35
23 26 15 12 16 13 15 29 34 24 61 41 57 35 27 26
22 20 5 15 12 5 3 9 46 41 40 40 41 41 40 40
41 41 40 41 41 41 39 40 42 38 43 41 20 20 59 79
89 87 81 71 65 66 92 121 134 137 131 130 128 130 126 121
118 117 118 116 115 114 109 105 105 100 84 28 0 3 5 17
21 25 28 28 28 28 28 28 28 28 29 29 30 30 29 28
26 21 0 0 0 0 0 0 0 0 49 57 54 54 53 53
54 54 55 55 55 54 54 53 51 43 43 50 51 9 0 35
23 23 43 48 52 53 56 62 65 67 70 46 57 30 11 34
20 39 35 35 35 34 33 33 34 35 40 40 40 40 40 40
40 40 40 40 41 40 38 39 42 37 42 24 13 48 64 87
97 101 97 82 70 68 69 105 129 130 125 127 131 128 126 120
115 116 117 118 115 112 110 106 106 107 92 68 29 12 14 23
22 26 29 28 29 29 29 29 29 29 31 31 31 31 29 27
26 22 0 0 0 0 0 0 0 0 52 56 54 53 53 52
53 53 54 54 54 53 53 52 51 42 43 49 51 11 0 31
24 23 45 53 55 56 58 63 66 68 71 57 54 32 2 15
17 37 32 33 32 33 32 32 33 36 39 39 40 40 39 40
40 40 40 40 40 40 39 38 41 32 28 21 45 52 67 91
105 105 108 101 83 73 68 77 110 120 121 129 134 133 130 121
116 118 119 118 117 113 111 108 107 108 99 87 69 47 17 19
29 23 31 28 29 30 31 30 31 31 32 32 33 32 32 30
28 24 0 0 0 0 0 0 0 0 52 55 53 53 53 53
52 53 53 53 53 53 53 52 51 43 42 47 52 15 0 29
24 22 35 47 46 47 48 51 54 53 51 47 50 33 1 8
15 40 38 39 39 38 39 38 37 38 39 39 40 40 40 40
40 40 40 41 40 40 40 35 25 24 24 36 59 57 71 93
106 112 110 108 100 84 80 73 86 111 126 132 136 133 127 120
120 120 118 119 118 113 111 108 107 110 109 98 86 78 76 43
12 31 24 27 30 30 31 31 32 33 33 33 32 32 31 30
29 24 0 0 0 0 0 0 0 2 52 54 53 53 53 53
52 53 53 53 53 52 52 52 51 44 42 46 51 18 0 27
24 22 15 14 14 15 18 23 29 31 32 29 48 34 1 5
13 41 37 40 40 40 39 39 39 39 39 39 39 39 39 39
39 39 39 40 39 38 32 21 29 26 22 47 73 62 74 97
107 115 118 117 110 100 90 89 89 104 120 127 130 133 125 122
122 120 119 120 118 116 111 111 111 112 114 111 101 90 91 94
74 33 31 22 24 29 30 31 31 32 32 32 32 32 32 31
29 24 0 0 17 40 18 0 0 5 53 53 53 52 52 52
52 52 52 52 52 53 53 52 51 44 42 45 50 21 0 23
24 23 17 16 15 17 20 24 30 31 33 30 48 36 3 2
10 41 36 39 39 38 39 38 39 38 38 39 38 38 39 38
39 39 39 39 37 26 25 23 26 23 19 46 86 68 78 98
108 114 119 123 121 111 98 97 101 107 116 124 129 130 127 125
122 119 119 118 120 116 115 113 114 114 116 118 115 106 99 102
100 49 33 30 23 28 28 31 31 31 32 32 31 31 31 30
30 22 0 0 28 54 20 0 0 8 54 53 53 52 51 51
51 51 51 52 51 51 52 52 51 44 41 44 50 22 0 18
23 24 23 21 21 21 22 25 31 32 33 31 49 41 28 35
41 43 35 38 38 38 38 38 37 38 38 38 38 38 38 38
38 39 40 33 21 23 25 23 26 25 19 38 85 75 81 99
111 117 121 124 126 121 107 101 107 111 114 123 125 126 129 125
119 121 119 121 119 119 119 117 113 116 119 120 122 121 115 110
101 40 29 34 29 32 19 27 30 31 32 32 31 31 31 31
31 21 0 0 0 1 0 0 0 8 53 51 52 51 51 50
51 51 51 51 51 51 51 51 50 45 40 43 50 25 0 15
23 24 25 22 24 25 26 29 35 35 34 32 52 47 52 60
59 44 34 38 38 37 37 37 37 38 38 37 38 38 38 37
41 40 26 20 21 24 25 24 27 25 21 27 72 83 87 99
112 118 124 124 127 130 117 104 105 111 112 117 126 126 123 122
124 124 122 121 120 120 120 119 117 120 123 123 126 130 129 126
89 29 28 34 30 29 23 23 27 31 32 32 30 30 30 30
30 19 0 0 4 7 1 0 0 12 53 51 52 51 51 51
51 51 51 51 50 51 51 51 51 46 41 42 49 27 0 14
22 23 24 23 23 25 26 29 35 36 33 29 36 32 32 35
36 34 35 37 37 38 37 37 37 37 37 37 38 37 38 39
31 22 20 18 20 26 24 21 26 27 23 20 50 87 92 103
112 117 123 126 129 132 127 114 105 111 114 115 118 118 124 130
129 129 124 120 122 121 123 120 119 121 124 129 132 135 136 128
51 29 31 29 31 30 25 23 23 26 27 31 33 32 30 30
30 18 0 0 2 3 0 0 0 17 53 51 51 51 51 51
51 51 51 51 51 51 51 51 51 47 40 41 49 31 0 12
22 23 24 24 24 24 26 29 34 35 32 32 34 33 31 30
33 34 35 37 38 38 38 37 37 37 37 36 38 38 34 26
23 23 20 19 20 24 22 19 27 26 25 17 29 70 100 107
114 118 123 131 133 134 132 124 115 113 116 117 121 125 128 133
131 126 125 121 121 123 125 123 123 123 128 134 137 139 136 84
32 28 28 29 31 28 22 23 20 20 21 23 21 21 31 32
30 18 0 0 0 0 0 0 0 19 52 51 50 50 51 50
50 50 50 50 50 50 50 50 50 47 40 40 48 34 0 9
22 22 24 24 26 25 26 29 34 34 33 33 34 34 34 31
34 34 35 36 37 36 37 37 37 37 37 40 34 27 25 25
20 21 21 19 22 23 24 21 25 25 27 22 16 42 92 109
115 119 122 129 135 136 136 128 121 116 116 118 122 123 127 133
134 129 124 120 121 124 127 127 124 125 131 136 140 138 104 37
31 30 26 28 32 26 23 25 23 21 19 19 17 19 21 27
29 20 0 0 0 0 0 0 0 6 50 51 50 50 50 50
50 50 50 50 50 50 50 50 50 48 40 40 47 35 0 5
22 22 24 25 26 27 27 30 35 35 33 34 35 34 34 32
34 35 36 36 37 37 36 36 38 40 38 28 27 26 24 21
18 23 22 21 22 20 21 20 22 27 26 26 20 21 46 98
118 122 124 130 135 136 138 133 124 118 115 117 119 122 124 129
131 128 123 120 122 128 129 128 125 127 134 139 141 108 42 27
31 30 29 29 28 26 26 23 22 21 20 18 16 20 19 22
21 24 22 8 0 0 0 0 0 13 29 51 51 50 50 50
50 50 50 50 50 50 50 51 50 48 40 39 47 37 0 3
21 22 24 25 26 27 28 30 36 35 34 34 35 35 34 33
34 34 35 36 36 36 37 39 39 28 25 24 25 25 24 20
20 22 23 23 23 22 24 23 20 25 27 26 23 21 22 36
94 122 126 129 134 137 137 136 128 120 116 116 116 117 121 128
130 127 124 119 122 125 132 132 128 130 134 135 104 40 30 29
29 29 28 29 21 23 24 23 21 21 17 19 17 20 20 21
21 20 19 24 23 9 0 0 0 32 19 45 50 50 50 50
50 50 50 50 50 50 50 51 50 49 40 39 45 39 0 2
20 22 24 24 26 26 27 30 35 35 35 34 35 34 34 35
34 34 35 36 36 37 35 28 23 23 22 21 23 22 21 19
20 22 22 22 22 22 21 24 23 21 27 24 25 26 22 22
34 81 121 128 133 138 138 139 132 124 118 114 115 115 120 126
131 131 124 117 121 128 132 135 132 133 127 84 34 29 30 28
31 28 28 22 17 19 22 22 19 20 20 19 19 20 22 21
22 20 19 19 23 23 19 5 0 35 43 20 51 51 50 50
50 50 50 49 50 50 50 50 50 49 41 38 45 42 0 1
20 21 23 24 25 26 27 30 35 35 35 36 35 34 34 35
35 34 35 35 37 34 24 19 19 20 23 23 24 21 18 18
21 20 22 22 23 22 23 24 26 24 25 26 24 26 26 22
21 28 53 99 129 137 140 141 139 133 124 118 117 118 118 125
130 128 119 116 123 127 135 138 138 115 56 27 25 26 28 30
29 28 24 23 24 22 22 21 20 21 19 19 19 19 20 22
21 22 21 20 19 19 20 23 16 39 50 26 38 50 50 49
49 50 50 49 49 49 50 50 49 49 41 38 43 43 1 0
21 23 24 25 27 28 29 32 35 34 35 35 35 34 34 34
34 34 35 38 31 24 18 18 22 20 22 21 23 19 17 22
21 23 23 24 25 24 25 25 29 29 26 28 29 29 29 26
25 23 23 30 56 104 139 143 145 140 135 126 119 117 117 124
132 129 119 118 125 131 139 128 80 34 24 24 27 29 28 28
27 26 25 27 23 22 21 22 23 22 21 22 21 18 21 24
22 21 22 21 19 18 20 21 22 31 45 47 17 44 49 49
49 49 49 50 50 49 49 50 50 49 42 38 42 45 1 0
25 27 28 30 31 32 33 34 35 35 34 35 35 33 33 34
35 37 38 29 25 21 16 18 22 18 20 20 23 18 17 22
24 24 24 24 23 24 25 24 25 30 29 26 27 30 30 29
27 26 22 23 22 27 52 95 129 141 138 132 124 118 115 120
127 124 118 120 121 102 69 35 25 24 24 26 28 28 27 28
27 26 31 24 20 20 21 23 26 24 22 22 21 16 21 25
21 20 23 20 19 19 19 18 19 20 26 31 5 1 44 49
49 49 49 49 49 49 49 49 49 49 43 38 41 46 2 0
26 28 30 32 32 33 34 33 34 34 35 35 34 33 33 34
37 31 24 22 22 20 17 16 22 20 19 21 23 18 17 21
24 23 26 25 24 24 26 24 23 23 28 29 25 24 30 32
32 29 28 28 26 24 24 24 30 49 74 85 95 98 92 94
95 86 72 54 36 26 25 26 28 28 28 28 27 27 31 28
28 30 28 21 21 21 22 23 25 24 23 23 23 16 22 26
20 21 22 21 20 20 22 19 20 20 21 23 35 10 38 49
49 49 49 48 49 49 49 49 49 49 43 38 40 46 3 0
19 26 30 32 32 33 34 33 34 34 34 34 34 33 34 36
25 19 18 17 18 18 18 15 18 21 17 21 24 22 18 23
26 24 26 25 24 25 25 23 22 23 22 24 26 24 20 28
32 32 32 31 29 28 28 26 25 20 22 23 23 26 27 26
24 25 25 25 24 25 28 30 31 31 31 29 27 29 26 28
29 29 28 21 22 22 24 23 23 24 24 22 21 17 23 25
21 20 21 21 20 21 21 18 18 19 21 21 25 16 31 49
49 48 48 48 48 48 48 49 48 48 44 37 39 46 5 0
21 23 27 28 30 31 32 33 33 34 34 34 35 34 31 21
17 16 15 17 20 21 22 18 17 25 19 24 26 22 20 25
27 24 26 25 24 24 26 25 24 25 24 22 23 26 20 18
21 28 31 32 32 32 31 31 31 30 26 26 27 24 25 27
27 27 28 29 28 28 31 31 29 29 32 34 25 23 28 28
29 27 25 20 21 22 23 22 25 23 22 22 16 20 24 23
20 21 21 21 19 20 19 18 17 21 19 17 16 15 10 44
48 48 48 48 48 48 48 48 49 49 44 37 39 45 8 0
