P2
128 120
157
36 36 35 34 34 34 33 32 32 31 31 30 30 29 28 28
27 27 26 26 25 25 25 23 24 23 23 22 21 21 21 20
19 17 16 14 13 14 18 18 19 21 18 10 22 26 24 21
21 21 20 17 15 14 11 10 10 10 14 16 16 17 10 11
18 19 19 20 21 22 22 23 23 23 24 24 25 25 26 25
27 27 28 28 28 29 29 29 30 30 30 31 32 32 33 34
34 35 35 36 36 36 37 38 39 38 40 38 39 40 40 39
39 39 40 40 39 40 40 40 40 40 39 40 41 40 40 41
36 35 35 34 34 33 32 32 32 31 31 30 30 29 29 28
28 27 26 26 26 25 25 24 24 23 23 22 21 21 21 20
19 18 16 15 15 15 19 20 22 23 19 11 23 27 24 23
22 21 20 20 18 16 13 13 12 11 16 17 16 15 16 19
21 21 21 22 23 23 24 24 24 25 25 25 26 26 26 27
28 28 28 29 29 29 29 29 30 31 32 32 33 34 34 35
35 36 36 37 37 37 37 38 38 38 40 38 39 39 40 40
39 40 40 40 40 40 40 39 40 40 40 39 42 41 41 41
36 35 35 35 34 34 33 33 32 31 30 30 30 29 29 28
27 28 27 26 25 25 25 25 24 24 23 23 22 22 21 21
20 18 17 16 16 16 21 23 24 25 18 9 22 28 24 23
22 21 20 20 19 17 16 17 13 12 15 17 18 16 19 20
21 22 22 24 24 24 24 24 25 25 26 26 27 27 27 28
28 28 29 28 29 29 31 31 32 33 33 34 34 35 35 36
36 36 36 37 37 37 38 38 38 38 40 38 39 39 40 39
39 40 39 40 40 40 40 41 41 41 40 41 41 41 40 39
36 36 35 34 33 33 33 32 32 31 31 30 30 29 29 28
29 28 27 27 26 26 25 24 24 23 23 23 23 22 22 22
21 19 18 18 17 18 23 24 25 25 19 9 22 28 25 24
23 22 21 20 20 17 18 19 17 12 12 18 15 18 19 22
23 24 23 25 26 26 26 26 26 27 27 27 27 28 28 28
29 29 29 30 30 31 31 32 33 35 34 34 35 35 36 36
37 37 37 37 37 37 38 38 38 39 40 38 39 39 39 39
39 39 40 40 40 40 41 41 40 39 39 39 40 39 41 42
36 36 36 35 35 34 33 33 32 32 31 30 30 30 29 28
28 28 27 27 26 26 26 25 25 24 24 24 23 22 22 22
22 20 19 19 18 19 24 26 26 26 20 11 21 28 25 25
24 23 23 22 20 17 20 20 19 14 11 20 16 19 21 23
24 24 24 26 26 26 27 27 27 27 27 28 28 28 29 29
29 30 30 31 32 32 33 32 34 35 34 35 35 35 36 36
36 37 37 37 38 37 38 38 39 39 41 38 39 40 40 40
41 41 40 40 40 38 39 40 39 41 42 40 40 40 42 40
36 35 35 35 34 34 33 33 33 32 31 31 31 30 30 30
29 29 28 27 26 26 26 25 25 24 25 24 24 23 23 23
22 21 22 21 20 21 26 26 27 27 20 11 21 30 26 25
26 25 24 22 21 19 20 20 19 16 11 20 18 21 23 24
25 25 25 27 27 26 28 28 28 27 27 28 29 29 30 30
30 30 31 32 33 33 33 34 34 35 34 35 36 36 36 36
37 37 37 38 38 38 39 39 38 38 41 38 39 40 40 40
40 39 38 40 40 42 42 40 40 41 41 41 41 41 41 42
36 35 36 35 34 34 34 33 32 31 31 30 30 30 29 29
29 28 28 27 27 27 26 26 25 25 25 24 24 23 23 22
22 21 22 22 22 22 26 26 28 27 21 12 19 29 26 25
25 24 24 23 23 21 21 21 20 18 13 20 20 22 25 25
25 26 26 27 27 27 27 28 28 29 29 29 29 30 31 30
31 31 32 32 33 33 34 34 34 36 35 35 36 36 37 37
37 37 38 38 38 38 38 39 40 40 41 39 39 37 37 38
39 41 41 40 39 40 40 40 41 41 42 41 41 41 41 41
36 35 36 35 35 34 33 33 32 32 32 31 30 30 30 29
29 28 28 27 27 26 27 26 25 25 25 24 24 24 23 24
23 23 22 22 23 22 28 28 28 28 21 15 19 30 27 25
26 25 24 24 23 22 22 21 21 19 15 20 21 24 26 26
27 27 27 27 28 29 29 29 29 30 29 30 30 30 31 32
32 32 33 32 33 34 34 34 35 37 35 36 36 37 37 38
38 38 38 38 38 39 39 39 38 37 37 38 39 41 41 40
40 40 40 40 40 40 40 41 40 40 41 40 40 41 41 41
36 36 36 35 35 34 34 33 33 33 32 32 31 31 30 30
29 28 28 28 27 27 26 26 25 25 25 25 24 24 24 23
23 23 23 23 24 24 28 29 29 29 22 17 17 30 28 26
26 26 25 24 25 25 23 22 22 20 15 21 22 25 25 25
27 27 28 29 29 29 30 30 30 31 30 31 31 32 32 32
32 32 32 33 34 34 34 34 35 37 36 36 36 36 37 38
37 35 38 38 38 37 37 37 39 40 40 39 40 39 40 40
40 40 40 42 40 41 41 40 41 41 42 41 41 41 41 41
36 36 36 35 35 34 35 34 34 33 32 32 31 31 31 30
30 29 29 28 28 27 27 26 26 26 25 25 25 25 24 24
24 24 23 24 24 25 29 29 29 29 22 19 16 29 27 27
27 26 26 26 25 24 22 22 22 22 17 22 22 25 27 27
28 28 28 28 30 30 30 30 31 30 31 32 31 32 32 33
33 34 34 33 34 34 34 35 35 37 36 36 37 38 38 37
38 36 35 37 38 39 39 39 40 40 40 39 40 40 40 40
40 41 41 42 41 41 41 41 41 42 41 41 41 41 41 40
37 37 36 35 35 35 34 34 33 33 33 32 32 31 31 31
30 30 29 29 29 28 28 27 27 27 26 25 25 25 25 24
24 24 24 24 25 26 30 30 30 30 23 19 16 30 28 27
26 27 26 26 25 25 23 24 24 23 20 25 25 28 28 28
28 28 29 30 30 31 31 32 32 32 32 32 33 33 33 33
33 34 34 34 35 35 36 36 36 38 37 37 37 36 35 36
37 39 41 39 39 39 39 40 40 40 40 40 40 41 40 41
41 41 41 42 41 41 42 41 41 42 42 42 42 42 42 41
38 37 36 36 36 35 35 34 34 33 33 33 32 32 31 31
30 30 30 29 29 28 28 28 28 27 27 27 26 26 25 26
25 25 25 25 25 27 31 31 31 30 23 19 16 30 29 27
26 28 27 27 26 27 25 25 25 24 21 25 26 29 29 29
30 30 31 31 31 32 31 32 32 32 32 33 33 33 33 34
34 34 35 35 35 36 36 37 37 36 35 36 36 37 40 39
39 40 41 40 40 40 40 41 40 41 41 41 41 41 41 41
41 42 42 41 41 43 42 42 42 42 42 42 42 42 41 42
38 38 37 37 36 36 35 34 35 34 34 33 33 33 32 32
31 31 31 31 30 29 29 29 28 28 28 27 27 27 26 26
26 26 26 26 27 27 31 32 32 32 26 20 10 25 31 29
29 29 28 27 27 28 25 26 26 25 20 26 28 30 30 30
30 31 32 32 33 32 33 33 34 34 34 34 35 35 35 35
35 35 36 36 36 36 35 35 35 37 39 39 39 39 40 40
41 41 42 41 42 41 41 42 42 42 42 41 41 42 42 42
42 42 43 43 43 43 42 42 43 43 42 42 43 43 43 42
39 38 38 37 37 37 36 36 36 35 35 34 34 33 33 32
32 32 32 31 30 31 30 30 30 29 28 28 28 27 27 27
27 27 27 27 28 29 33 33 34 33 24 18 15 31 32 31
31 30 30 29 29 29 27 28 28 26 23 28 29 31 31 32
32 32 33 33 34 34 34 34 35 36 35 35 36 36 36 36
37 36 36 36 36 37 38 39 39 39 40 39 41 41 40 41
42 41 43 42 42 42 42 42 42 43 42 43 43 43 43 43
44 43 44 43 43 43 44 43 44 43 44 43 43 43 43 43
39 38 38 38 37 37 37 36 36 35 35 35 34 34 34 33
33 33 33 32 32 31 31 31 30 30 29 29 29 29 27 27
27 27 28 28 28 29 34 34 34 33 25 22 22 30 34 32
32 31 31 30 29 31 28 28 28 28 25 30 30 32 32 32
34 33 34 34 34 35 35 35 36 36 35 36 36 36 36 36
36 37 37 38 38 38 39 39 40 40 40 41 41 41 42 42
42 41 44 42 43 42 43 43 43 43 43 43 42 43 43 43
44 44 43 43 43 44 43 45 44 44 45 44 44 44 44 42
39 39 39 38 37 37 37 36 36 35 35 34 34 33 33 33
33 33 32 32 32 31 31 31 31 30 30 29 29 29 29 28
28 28 27 28 29 30 34 34 34 33 25 22 24 28 34 32
32 31 31 29 30 32 28 28 28 28 24 31 31 33 32 33
33 34 34 34 35 35 35 35 36 36 35 35 35 35 36 36
37 39 38 38 38 39 39 39 40 39 40 41 41 41 41 42
42 42 44 42 42 42 43 43 43 43 43 43 42 43 43 43
43 43 44 43 44 44 45 44 44 44 42 43 43 44 44 44
39 39 39 38 38 37 37 36 36 36 36 35 35 35 34 34
33 33 33 32 32 31 32 31 31 30 30 30 29 29 28 28
29 28 27 28 29 30 34 34 34 34 26 23 27 27 34 33
33 32 31 30 30 32 28 30 29 28 25 32 31 33 33 33
34 35 35 35 35 35 35 35 35 35 36 36 37 37 38 38
38 39 38 38 38 39 39 39 40 40 41 40 41 41 42 42
42 42 43 43 43 43 43 43 43 43 43 43 42 42 43 43
44 44 44 44 43 43 43 43 43 43 44 44 43 42 43 43
39 39 38 38 38 37 37 37 36 36 36 36 35 35 34 34
34 33 33 33 32 32 32 31 31 31 30 30 30 29 29 28
28 28 28 28 29 30 35 35 35 34 27 24 29 25 34 33
33 33 33 31 31 33 29 29 30 30 26 32 32 34 34 34
34 35 35 35 35 35 35 35 36 36 37 37 37 37 37 38
38 39 38 39 39 39 40 40 41 40 41 41 41 42 42 42
42 42 43 43 43 43 43 43 44 43 44 43 43 43 43 43
44 42 42 43 42 44 44 44 44 44 44 44 44 44 44 43
39 38 38 38 37 37 37 36 37 36 36 36 35 35 35 35
34 34 34 34 33 32 32 32 31 31 31 30 30 30 30 28
28 28 29 29 29 31 35 35 35 35 26 23 31 24 34 34
34 33 33 32 31 33 30 29 30 30 26 33 32 34 34 34
34 34 35 35 36 36 36 36 36 36 37 36 38 37 38 38
38 40 39 39 40 40 40 40 41 40 41 42 42 42 42 43
43 43 44 43 42 43 43 43 43 43 43 43 43 42 42 43
43 44 44 43 43 43 43 43 43 43 43 43 44 43 44 43
39 38 39 38 38 37 37 36 37 36 36 36 35 35 35 34
34 34 33 33 33 33 33 32 32 32 31 30 31 30 30 29
29 29 29 29 30 31 36 35 36 36 27 24 32 23 35 34
34 33 33 32 32 33 28 29 30 30 26 32 29 34 34 34
35 36 37 36 37 37 37 37 37 37 37 37 38 38 38 38
39 40 39 39 40 40 40 41 41 41 41 41 42 41 43 42
43 42 44 44 43 43 44 44 43 42 42 42 42 43 43 42
43 44 44 43 43 43 43 43 43 43 43 43 43 43 44 43
39 38 38 38 38 37 37 37 37 37 36 36 36 36 35 35
34 35 33 34 33 32 32 32 32 31 31 31 31 30 30 29
29 29 29 29 31 32 36 36 36 35 28 24 34 23 35 34
34 34 33 32 32 31 27 29 31 31 26 34 32 35 35 36
36 36 37 36 37 37 38 37 37 37 37 37 38 38 39 39
39 39 40 39 40 40 40 40 41 41 42 42 42 42 43 43
43 43 44 42 42 41 42 42 43 44 44 42 43 43 43 42
44 43 43 43 43 43 43 43 43 43 43 44 43 43 42 43
39 39 38 38 38 37 37 36 37 36 36 36 36 35 35 35
35 35 34 34 34 33 33 32 32 32 32 31 31 30 30 29
29 29 29 29 31 32 36 37 36 36 28 24 34 24 35 34
35 35 33 33 29 28 29 31 32 31 26 34 32 36 36 36
36 36 37 36 38 38 38 38 38 38 39 38 39 39 39 39
39 40 40 40 40 41 41 41 41 41 42 42 42 42 43 42
41 41 41 41 44 43 43 44 44 44 44 45 43 43 43 43
43 42 43 43 44 44 43 44 43 43 43 44 43 44 44 44
38 39 38 38 38 37 37 37 37 36 36 36 36 35 35 35
34 34 34 33 33 32 33 32 32 32 31 31 31 31 30 30
29 28 29 30 31 32 37 36 37 36 29 24 34 25 35 34
35 35 34 31 24 31 29 31 31 30 24 32 31 35 36 36
37 37 38 37 37 37 38 37 37 38 37 38 38 38 38 39
39 40 40 40 40 41 41 41 41 42 42 42 41 42 41 42
44 44 44 43 43 43 43 43 43 43 43 45 42 42 43 43
43 43 44 44 44 44 43 43 43 43 42 43 44 43 43 43
39 39 39 38 38 38 37 37 37 37 37 37 36 35 36 35
35 35 34 34 34 33 34 34 33 32 32 31 31 31 31 30
31 30 31 31 32 33 38 37 37 38 29 24 36 26 34 33
35 35 34 26 29 31 29 24 17 14 12 20 27 35 36 36
37 37 38 37 38 38 39 39 38 39 39 40 40 40 40 40
40 40 41 41 41 41 41 41 41 41 41 43 43 44 44 44
44 44 44 44 44 44 44 44 44 44 44 45 42 42 43 43
43 43 43 43 44 43 42 43 44 43 43 43 44 44 43 43
40 39 39 39 39 38 39 38 37 37 37 36 36 36 36 35
35 35 35 34 34 34 33 33 33 32 32 33 32 31 31 31
31 30 31 31 32 33 38 38 38 37 30 25 36 28 34 35
36 35 30 25 28 23 10 9 12 15 14 21 21 28 34 37
37 38 38 38 39 39 39 38 39 39 39 39 40 40 41 41
41 41 40 40 41 40 41 42 42 42 44 43 44 44 44 44
44 44 44 44 44 44 44 44 44 44 45 45 43 44 43 43
44 43 43 43 43 44 43 44 43 43 43 43 44 44 43 44
39 39 39 39 39 38 38 37 37 37 37 37 37 36 36 36
36 35 35 35 35 34 34 33 34 33 33 32 32 32 31 31
31 31 31 31 33 34 38 39 39 38 31 26 37 31 32 36
35 33 24 27 20 9 10 12 18 21 17 19 19 24 31 35
37 38 38 38 39 39 39 39 39 39 40 40 40 40 40 40
41 40 41 42 42 41 42 41 43 43 45 44 44 44 44 44
44 44 45 44 45 44 45 45 44 44 44 44 43 43 43 44
44 44 44 44 44 45 44 44 43 44 45 44 45 44 44 44
39 39 39 39 39 39 39 38 38 38 38 37 37 37 36 36
36 36 36 35 35 35 34 34 34 33 33 33 33 33 32 32
32 32 32 32 33 34 38 39 38 37 30 26 36 33 30 36
33 27 21 17 9 7 9 8 5 4 4 1 4 6 12 16
26 33 37 39 39 40 39 39 39 39 39 40 39 40 40 41
41 42 42 42 42 42 43 42 43 43 45 44 44 44 44 44
44 44 44 44 44 44 45 44 45 44 44 46 44 44 44 44
44 44 44 44 44 44 44 44 45 45 44 43 43 44 44 42
40 39 39 39 39 39 38 38 38 38 38 37 37 37 37 37
36 36 36 35 35 36 35 34 34 34 33 33 32 33 33 32
32 32 33 33 34 35 39 40 40 38 31 26 37 36 27 24
16 12 5 4 4 1 0 0 0 0 0 0 0 0 0 0
5 17 31 36 39 39 39 40 39 38 41 40 41 41 41 41
41 41 42 42 43 43 43 43 44 44 45 45 45 45 45 45
45 46 45 45 45 44 45 44 45 43 44 46 44 45 45 45
45 45 44 44 44 44 45 44 44 45 44 42 41 42 42 41
40 39 39 39 39 39 39 39 38 38 38 37 37 37 37 36
36 36 36 35 35 35 35 35 35 34 34 33 33 33 33 33
33 32 32 33 34 35 39 39 39 39 32 26 36 38 20 21
29 15 3 2 0 0 0 0 0 0 0 0 0 0 0 0
1 2 5 13 26 35 38 38 39 40 41 40 41 41 41 41
42 43 43 43 43 44 44 44 44 43 45 44 44 44 44 45
45 45 45 44 45 45 44 44 45 44 45 45 44 45 45 45
44 44 45 44 44 43 42 42 43 44 42 45 45 44 44 42
39 39 40 40 39 39 39 39 38 38 38 38 38 37 37 37
36 36 36 36 35 34 35 35 35 34 34 34 34 33 33 32
33 32 33 33 34 35 40 40 40 40 32 27 35 36 20 24
30 6 0 0 0 0 0 0 0 0 0 0 0 0 0 0
0 4 4 6 8 21 39 41 41 40 42 41 41 41 41 40
42 42 42 44 43 43 44 44 44 44 45 44 45 45 45 45
44 45 44 45 44 44 45 44 45 44 45 45 45 45 45 45
43 41 43 44 45 44 45 44 45 43 44 43 43 42 43 43
40 40 40 39 39 39 39 39 39 38 38 37 37 37 37 37
36 36 36 35 36 36 35 35 35 34 35 34 34 33 34 33
33 32 33 33 34 35 40 40 40 40 32 26 35 37 22 26
24 2 0 0 0 0 0 0 0 0 0 0 0 0 0 0
0 0 0 2 4 8 25 39 41 42 43 40 41 41 42 42
42 42 44 43 44 44 44 44 44 44 45 45 44 45 45 44
45 44 45 44 45 45 45 45 46 46 45 44 40 40 43 42
44 43 44 44 44 45 42 43 44 42 43 43 43 43 43 42
41 40 40 40 40 40 39 39 38 39 39 39 38 38 37 37
37 37 36 36 36 36 35 35 35 35 34 34 34 34 34 34
33 33 33 34 35 35 40 41 40 40 33 27 37 37 22 19
5 0 0 0 0 0 0 0 0 0 0 0 0 0 0 0
0 0 0 2 3 4 8 24 39 42 43 41 42 42 42 42
43 43 44 44 44 44 44 45 45 45 46 45 45 46 46 46
45 46 45 45 45 45 44 43 41 43 44 43 45 45 44 44
45 44 44 45 44 45 43 43 43 44 44 43 43 42 44 43
41 40 41 40 40 40 39 40 39 39 38 38 38 38 37 37
37 37 37 37 36 36 35 35 36 35 35 35 34 34 35 33
34 33 33 34 35 36 41 41 40 39 33 27 35 33 11 1
0 0 0 0 0 0 0 0 0 0 0 0 0 0 0 0
0 0 0 0 4 4 6 6 21 38 43 42 43 42 43 43
43 43 44 44 44 45 45 45 45 45 46 44 45 45 45 45
46 45 44 43 42 43 43 46 46 45 44 45 45 44 44 45
45 44 44 44 44 45 43 44 43 43 44 45 44 43 43 42
40 41 41 40 41 40 40 39 39 39 39 38 39 38 38 38
38 37 37 37 36 37 36 36 36 36 36 35 35 34 34 34
34 34 34 34 36 36 41 41 40 39 32 26 30 13 1 0
0 0 0 0 0 0 3 9 14 12 7 4 1 0 0 0
1 0 0 0 0 3 4 6 9 23 43 42 43 43 43 43
44 44 44 44 45 45 45 46 46 46 46 45 45 44 45 45
45 44 45 46 45 44 45 45 45 45 45 44 44 45 45 45
44 44 45 45 45 46 44 44 44 44 44 45 42 43 43 43
38 39 40 41 40 40 40 39 39 39 39 38 38 38 38 38
38 38 37 37 38 37 37 36 36 36 35 35 35 35 35 34
34 34 34 34 35 36 41 41 40 40 34 23 11 2 0 0
0 0 0 0 11 26 37 39 42 45 43 37 30 16 8 3
0 0 0 0 0 0 4 4 3 7 27 42 43 43 44 43
44 44 44 44 45 44 44 44 44 44 44 44 44 45 45 45
45 44 45 47 45 45 45 45 45 44 45 44 44 44 44 44
44 44 43 44 44 45 43 44 43 44 44 44 42 44 42 43
49 47 45 44 42 40 40 39 40 39 39 39 38 38 38 38
38 38 38 51 52 48 42 40 37 36 36 35 36 35 35 35
35 34 35 35 36 36 42 41 41 41 31 10 2 0 0 0
0 0 6 31 55 63 68 71 73 73 71 71 72 62 45 30
16 5 0 2 1 0 2 3 3 1 3 27 43 44 43 43
43 44 44 44 45 44 45 44 44 44 45 44 45 44 45 44
44 45 45 47 44 44 45 45 45 45 45 46 45 45 44 44
45 45 44 45 43 45 43 44 44 44 44 44 43 43 43 43
55 52 52 51 46 44 44 39 39 40 39 39 39 39 38 38
38 38 40 54 53 49 47 47 47 40 36 35 36 35 35 35
35 35 35 35 36 36 41 41 40 36 14 2 0 0 0 0
0 10 47 73 89 97 103 102 100 100 98 93 94 93 88 78
56 32 11 5 2 1 0 0 3 1 3 7 34 43 43 43
44 43 44 43 43 44 44 44 44 45 44 44 44 44 45 44
45 44 44 46 45 44 45 44 44 44 45 44 45 44 44 43
44 45 44 43 43 45 44 44 44 43 43 44 45 44 42 43
56 53 52 48 49 48 49 53 44 44 42 40 39 38 38 38
38 38 40 51 51 48 46 48 48 45 37 36 36 36 36 35
35 35 36 36 37 36 41 40 38 22 2 0 0 0 0 0
9 47 77 95 108 115 114 112 110 111 109 109 110 109 105 104
95 78 48 17 8 2 0 0 0 3 1 2 15 39 43 43
43 44 46 44 44 45 45 45 45 45 44 44 43 44 44 44
44 45 44 46 45 45 45 45 45 44 44 44 44 45 45 44
44 44 44 44 44 44 44 44 44 43 43 43 44 44 43 43
54 53 53 50 51 53 54 55 47 50 50 49 45 41 40 40
39 39 39 39 33 38 44 48 48 47 39 36 36 36 36 36
36 35 36 36 37 37 41 39 28 9 0 0 0 0 0 8
45 74 93 105 114 117 118 114 113 111 109 109 110 111 109 109
111 102 91 57 23 8 2 0 0 0 2 2 10 32 41 43
43 44 46 44 44 44 44 45 44 45 44 45 45 44 44 45
44 45 45 46 45 45 45 45 45 44 42 45 45 44 44 43
44 44 44 44 45 45 45 44 44 44 44 44 44 44 44 43
22 7 22 40 49 54 55 54 42 15 26 37 45 49 46 47
48 43 40 34 18 16 15 17 24 34 40 37 37 36 36 36
36 36 36 36 37 36 40 36 17 0 0 0 0 0 3 41
70 88 102 110 112 114 113 108 108 110 111 112 111 108 105 104
105 106 103 93 59 26 9 0 0 2 2 5 5 27 39 41
44 44 46 44 45 45 46 45 45 46 45 44 45 44 45 45
45 45 44 47 46 45 45 44 45 44 44 45 45 44 45 44
44 44 45 45 45 45 44 44 44 44 44 44 45 43 41 40
22 0 0 10 20 21 24 38 39 0 0 0 2 11 20 31
42 47 43 34 13 7 15 14 3 9 42 37 37 37 37 37
37 36 36 37 38 37 37 18 3 0 0 0 0 0 19 63
82 95 105 107 105 106 105 105 107 110 113 111 111 109 106 102
99 99 99 99 88 61 26 9 0 3 2 3 5 10 36 42
44 44 46 44 44 45 44 44 45 45 45 46 45 46 45 45
45 45 45 46 46 45 45 45 44 44 45 44 45 44 44 44
44 45 46 46 46 45 45 45 43 43 42 42 43 43 44 45
25 0 0 7 12 17 17 28 38 0 0 0 0 0 0 0
0 6 41 33 9 6 2 10 2 9 45 37 37 38 37 37
37 37 37 37 37 35 19 1 0 0 0 0 0 4 42 75
92 101 103 102 100 104 110 114 117 117 120 120 118 117 116 116
113 106 102 95 93 88 63 26 4 1 1 1 3 4 24 43
44 44 45 45 45 45 45 45 45 44 45 45 45 45 45 45
45 45 45 47 46 46 44 44 45 45 45 45 45 45 45 44
45 45 44 44 44 44 42 43 45 44 45 44 44 43 44 44
29 0 0 4 5 10 8 25 41 5 0 0 0 0 0 0
0 0 41 31 5 0 0 7 1 8 46 38 38 38 37 37
37 37 37 36 38 33 10 0 0 0 0 0 0 20 58 80
96 100 96 96 103 113 121 123 126 129 130 130 131 129 130 126
121 118 113 105 93 86 86 51 17 3 2 1 0 4 8 39
44 44 45 45 45 45 45 45 45 45 46 45 46 46 45 46
45 45 45 47 45 45 45 45 45 44 45 45 45 45 46 45
46 46 45 45 46 45 45 45 45 45 43 43 43 44 44 46
25 0 0 0 1 0 5 20 38 0 0 0 0 0 0 0
0 0 41 22 0 0 0 1 2 10 48 38 38 38 38 37
37 37 37 38 38 24 0 0 0 0 1 1 4 35 67 85
94 88 86 97 102 98 103 120 128 133 138 139 139 136 129 115
99 76 67 55 75 80 71 72 31 9 4 2 3 2 2 28
45 45 46 45 45 46 45 45 46 46 46 46 45 45 46 46
46 46 45 47 45 46 46 46 46 46 46 46 45 45 47 46
46 46 46 45 45 45 45 44 44 45 44 44 44 44 45 46
22 0 0 0 0 0 1 26 40 0 0 0 0 12 7 0
0 0 39 22 0 0 0 1 1 11 49 38 39 38 38 38
37 38 38 38 37 16 0 0 0 0 4 0 15 52 74 83
75 64 65 47 35 37 51 72 105 124 144 146 143 140 124 105
87 59 43 41 36 38 40 42 48 17 6 1 4 0 1 15
43 45 47 46 46 46 46 46 47 47 47 47 47 46 47 46
47 47 46 45 46 47 47 46 47 47 45 46 46 46 46 47
46 46 45 45 45 46 45 46 46 47 45 46 46 46 47 47
20 0 0 0 0 0 0 29 43 0 0 0 0 14 17 9
3 0 39 20 0 0 0 0 0 6 50 39 39 38 38 38
38 38 38 38 35 15 0 0 0 2 5 0 26 65 78 67
41 42 31 29 45 54 71 86 106 126 145 145 146 146 133 119
104 78 59 42 22 17 17 17 22 16 11 9 4 1 0 4
38 45 46 46 46 46 46 47 47 46 47 46 46 45 46 45
46 46 47 47 47 46 47 47 47 46 45 44 46 47 46 46
46 46 46 45 46 45 47 46 47 47 46 47 47 46 46 44
17 0 2 0 0 0 1 22 47 0 0 0 5 16 18 16
15 1 35 22 0 0 0 0 0 3 50 38 39 39 39 38
38 38 38 38 32 7 0 0 0 3 5 2 31 49 44 26
19 23 22 22 30 41 58 86 113 127 143 140 140 146 133 101
56 33 56 51 15 13 17 28 31 32 23 5 3 6 1 0
23 46 47 47 46 47 47 46 47 48 47 46 47 47 46 47
48 47 46 46 47 46 46 46 46 46 45 45 47 47 47 46
47 47 47 47 47 47 47 47 46 45 45 46 42 41 41 42
16 0 3 0 0 0 4 23 48 0 0 0 2 17 17 16
17 2 33 24 0 0 0 0 0 2 50 38 39 39 38 38
38 38 37 37 25 0 0 0 0 4 3 9 11 17 22 19
13 8 8 59 127 69 8 18 52 108 142 142 142 139 88 30
19 80 147 96 3 0 0 0 3 3 21 32 4 3 1 0
3 37 45 46 46 46 45 46 47 46 47 47 46 46 46 47
46 46 47 46 46 46 46 46 46 46 46 45 45 47 47 48
47 47 47 46 44 42 41 43 43 45 45 42 38 34 29 25
17 1 0 0 0 0 10 24 50 0 0 5 2 5 14 16
15 1 30 39 18 8 1 0 0 1 49 38 39 39 39 38
38 38 38 37 16 0 0 1 0 4 1 11 26 17 3 0
0 0 57 146 90 7 0 0 12 41 102 130 126 85 29 6
45 146 89 4 0 0 0 0 0 0 2 23 3 0 2 0
0 17 45 46 46 46 46 47 47 47 47 48 47 48 47 47
46 47 47 46 47 46 47 46 47 46 47 47 46 46 43 45
44 44 47 45 42 40 37 33 29 25 21 19 19 19 20 21
26 3 1 3 1 0 6 30 57 26 17 9 3 0 0 7
13 0 28 51 51 47 46 41 36 36 52 38 39 39 38 38
38 38 38 37 8 0 0 0 0 0 0 18 50 5 0 0
0 8 106 67 1 0 0 0 0 12 23 28 26 20 11 0
53 75 3 0 0 0 0 0 0 0 0 5 6 0 0 0
0 5 40 46 45 46 47 47 47 47 47 48 46 48 47 47
46 48 48 46 47 46 45 45 43 43 41 43 47 46 42 40
37 32 29 24 22 20 20 19 20 22 24 24 26 26 27 27
53 55 41 34 32 21 8 21 65 37 40 45 46 40 30 21
13 8 31 53 52 49 49 51 57 59 57 38 39 39 39 38
38 38 38 37 7 0 0 0 0 0 0 14 90 4 0 0
0 0 2 0 0 0 0 0 0 7 24 36 40 22 7 0
0 0 0 0 0 0 0 0 0 0 0 1 15 0 1 2
0 0 29 46 47 48 48 47 48 48 47 48 47 47 46 45
44 43 43 43 44 43 43 46 42 41 37 34 29 25 23 22
21 21 22 25 26 26 27 11 25 29 30 30 31 31 32 33
53 60 45 53 54 59 58 60 62 19 17 19 20 21 25 30
37 45 54 46 44 47 48 54 59 60 58 39 39 38 38 38
38 38 38 36 8 0 0 0 0 0 0 17 81 0 0 0
0 0 0 0 9 39 7 0 0 8 40 80 97 40 10 2
0 0 0 15 16 0 0 0 0 0 0 2 19 2 0 0
0 0 18 44 46 46 46 47 46 46 45 45 44 45 44 45
44 46 44 41 37 33 29 25 24 23 22 23 24 25 27 27
28 29 30 31 31 32 32 23 17 34 35 35 36 30 31 37
56 50 49 57 59 64 61 48 43 20 18 18 17 17 17 15
15 13 13 15 21 26 32 41 40 38 41 39 40 39 40 39
39 38 38 38 14 0 0 0 0 0 3 13 2 0 0 6
24 0 0 4 24 5 0 0 0 16 49 108 123 80 20 18
0 0 10 25 2 0 0 0 0 0 1 5 13 1 0 1
0 0 13 46 46 47 47 47 47 47 47 46 44 41 45 42
31 26 25 25 25 25 26 28 29 29 30 30 32 32 33 34
34 35 36 27 27 37 37 37 11 38 39 38 38 21 36 38
51 38 49 56 58 63 63 53 44 23 20 19 17 16 14 13
12 12 12 12 13 13 15 38 40 37 35 38 40 40 39 39
39 39 39 39 15 0 0 0 0 0 4 8 0 0 0 13
8 0 0 0 0 0 0 0 2 29 65 107 117 101 30 5
0 0 0 0 1 3 2 1 1 0 2 8 34 14 0 0
0 0 8 44 47 45 44 41 36 32 30 27 26 25 37 49
23 26 30 31 31 32 33 33 34 35 36 36 37 38 39 39
39 39 39 40 34 28 40 41 20 31 41 37 36 22 42 23
54 28 43 52 56 60 61 54 49 28 21 18 16 13 14 13
14 14 14 15 15 15 19 40 14 27 39 38 40 39 39 39
39 39 39 39 18 0 0 0 0 0 5 16 0 0 0 0
0 0 0 0 0 1 0 0 8 45 81 102 113 105 52 15
0 0 0 2 6 8 9 8 8 3 3 11 51 47 0 0
0 0 3 28 32 29 27 27 27 28 29 32 32 31 30 36
25 32 35 37 38 38 39 40 40 40 41 42 41 40 41 41
42 39 41 43 43 36 28 39 36 16 41 39 30 25 36 23
48 2 1 6 13 22 30 32 46 30 19 17 11 3 5 6
14 16 18 16 18 19 22 41 32 28 48 46 44 31 13 35
40 39 40 40 17 0 0 0 0 0 27 31 2 1 0 1
2 1 1 0 4 5 3 6 27 56 90 113 122 116 83 32
9 0 2 8 15 21 28 24 19 12 4 14 63 68 5 0
0 1 2 16 31 33 34 34 35 35 35 37 38 38 38 49
29 36 40 42 41 42 42 43 43 42 43 43 43 43 43 43
43 44 41 43 45 45 37 28 39 12 40 42 26 31 21 37
45 1 0 0 0 1 12 19 47 29 17 15 7 0 0 0
6 13 12 5 9 15 17 42 52 44 46 48 49 44 26 37
40 40 39 40 13 0 0 0 0 1 54 46 6 2 2 9
14 12 8 5 6 7 14 21 45 73 105 131 136 130 112 65
30 8 5 11 21 32 61 66 32 16 9 26 78 77 20 0
0 1 2 18 37 38 39 39 41 41 41 43 43 41 36 40
31 41 42 43 43 44 45 45 46 46 46 45 45 45 44 44
42 43 42 43 44 45 45 37 28 21 24 36 21 21 35 38
41 0 0 0 0 4 0 10 51 28 16 16 10 0 0 3
0 0 0 1 0 3 5 41 51 33 33 26 32 39 43 42
40 40 40 41 11 0 0 0 0 10 65 65 21 3 11 43
53 27 15 9 3 3 19 44 65 79 121 142 144 142 131 97
56 29 13 9 20 72 144 142 51 16 15 50 86 77 35 0
0 2 2 19 40 43 43 44 45 44 44 44 43 42 19 13
15 42 45 47 46 46 45 44 46 45 46 46 45 45 45 46
44 43 43 41 44 45 46 44 35 22 2 2 3 19 45 35
39 0 0 0 0 2 0 0 50 24 15 6 0 0 0 13
8 3 3 0 0 0 3 40 54 35 25 41 38 34 37 41
40 40 41 39 16 1 0 0 0 26 69 73 52 18 20 100
135 54 15 9 5 12 32 71 86 109 132 147 148 147 140 121
95 69 43 30 39 106 152 146 55 31 47 91 85 75 41 1
0 1 1 20 43 45 44 44 45 45 45 45 44 42 17 11
8 39 45 47 48 46 46 46 47 47 46 47 46 46 46 46
45 45 42 42 40 43 46 45 42 31 5 0 4 33 42 36
37 0 0 0 0 1 0 1 53 12 1 0 0 0 1 11
15 7 1 0 0 0 1 40 54 33 15 40 38 31 37 41
41 40 41 41 26 1 0 0 0 37 69 71 78 50 37 121
152 68 19 18 26 48 91 101 116 137 133 141 146 144 135 138
131 110 116 102 83 80 115 119 88 99 112 104 88 74 43 2
0 0 1 16 44 47 46 46 47 34 22 13 13 43 12 15
7 39 45 46 48 46 46 46 46 46 45 46 46 46 46 46
45 45 44 42 41 43 44 44 41 41 21 0 13 37 30 31
36 0 0 0 0 0 0 2 54 14 0 0 0 0 2 3
23 16 9 3 1 0 1 40 55 35 12 25 23 25 37 40
41 41 41 41 30 3 0 0 1 43 70 70 82 92 79 91
112 69 65 77 105 137 115 104 124 101 95 118 129 127 103 87
127 128 113 142 148 144 142 141 142 142 125 107 92 74 44 1
1 0 0 12 41 46 46 47 44 13 6 13 24 37 12 1
5 38 46 46 48 46 45 46 46 46 45 45 45 45 45 45
44 44 44 44 40 39 39 39 39 43 27 0 12 35 27 30
27 0 0 0 0 0 0 6 55 9 0 0 0 0 6 15
18 17 21 4 0 1 1 39 55 37 25 30 30 24 35 40
41 41 41 42 34 4 0 0 1 45 69 73 89 105 118 130
140 144 146 147 148 146 104 107 97 40 40 79 107 105 74 45
85 119 109 133 145 147 147 147 147 144 127 105 93 74 44 1
4 0 0 9 41 48 47 47 47 44 44 45 45 43 17 7
7 37 44 45 47 46 47 46 46 46 46 46 46 46 45 47
44 44 44 45 44 39 39 38 40 43 31 0 10 37 28 31
25 0 0 0 7 1 0 2 53 6 0 0 0 0 11 27
26 18 16 4 0 3 3 37 55 40 31 23 9 18 33 39
41 41 41 42 36 5 0 0 0 43 69 75 93 109 125 138
148 149 149 149 149 145 110 93 112 121 131 113 100 110 126 128
114 101 108 136 135 143 148 147 147 145 127 106 92 75 46 0
2 1 0 16 40 48 47 47 47 46 45 44 43 41 26 1
7 37 44 45 47 46 45 45 46 45 46 45 45 45 45 46
43 44 45 44 44 42 38 38 42 44 33 0 6 38 28 31
23 0 0 6 20 10 1 2 54 5 0 0 0 0 3 6
29 5 1 1 1 2 2 33 55 42 32 18 11 9 32 38
41 41 41 41 37 10 2 0 0 41 68 76 89 109 126 136
147 149 149 148 148 143 129 111 107 117 128 136 138 138 139 130
122 119 133 144 138 125 144 147 147 142 124 105 90 76 47 1
2 7 0 25 45 47 47 48 47 46 47 45 44 42 33 2
14 39 45 45 46 46 46 45 45 45 45 44 45 45 45 45
45 44 44 44 44 42 38 37 41 42 34 0 5 38 29 28
23 0 0 18 22 13 3 2 51 4 2 0 0 0 1 0
20 3 0 0 0 0 0 28 54 40 17 9 3 4 30 38
41 41 41 42 40 23 14 0 0 39 66 75 86 106 124 132
141 148 149 148 145 141 124 118 119 123 127 134 139 140 141 131
121 125 128 131 141 126 127 146 146 140 124 103 89 77 50 7
5 24 4 31 47 47 47 47 46 46 46 45 43 41 36 27
31 42 46 46 47 46 46 45 45 44 45 45 45 45 45 45
44 44 44 44 43 43 37 34 38 42 37 2 2 26 18 15
27 12 8 21 19 19 7 2 52 3 5 0 1 0 0 0
21 6 0 0 0 0 0 25 55 35 11 15 0 5 32 37
41 42 42 42 40 42 32 1 2 37 62 74 83 104 120 127
135 144 149 147 141 135 120 112 117 122 125 127 128 127 129 129
123 120 118 121 136 137 121 141 146 140 120 101 90 77 49 29
35 57 20 40 47 47 47 47 46 46 46 45 43 41 37 37
38 44 47 46 47 46 45 46 45 45 46 45 46 46 45 45
45 44 45 43 44 43 38 33 23 22 22 1 0 30 28 28
34 49 49 54 50 48 48 44 56 3 0 0 0 0 0 1
22 7 1 3 1 0 0 16 55 28 8 9 2 15 34 35
41 42 41 42 38 59 61 24 26 36 59 71 82 102 116 122
133 139 147 143 137 126 112 113 119 120 121 121 123 129 124 119
116 119 122 122 126 134 127 135 147 142 119 99 91 75 48 74
86 82 35 47 47 47 46 47 47 46 46 45 44 42 40 40
44 46 46 46 47 47 46 46 46 46 46 46 46 46 45 45
46 45 43 43 43 42 37 35 35 36 38 3 1 30 30 27
32 49 49 54 53 52 58 63 60 17 10 18 3 0 0 4
23 11 4 5 2 0 0 10 52 27 8 2 4 4 30 35
41 41 41 42 36 67 86 75 51 37 56 66 81 100 115 122
130 142 147 137 130 117 114 113 105 98 96 102 101 98 98 87
83 93 105 117 129 134 128 135 147 141 118 97 91 72 47 96
104 91 46 47 47 47 47 47 47 46 45 45 45 43 42 42
46 47 47 47 47 47 47 47 48 46 45 44 45 43 45 45
45 44 44 44 43 41 37 33 36 37 35 4 1 25 29 27
31 51 52 53 52 53 62 65 63 43 41 41 38 35 32 32
34 24 23 18 17 16 15 23 45 32 16 12 20 5 13 33
42 42 42 42 35 72 95 93 83 39 52 64 79 97 115 124
136 144 147 131 127 120 110 90 83 94 115 115 119 115 121 115
109 93 58 95 125 137 133 142 146 139 116 99 93 69 52 106
109 89 47 48 47 48 47 47 48 45 46 46 46 44 44 45
46 45 45 46 45 46 46 45 45 46 45 46 46 46 46 45
44 44 44 40 40 40 36 33 34 37 38 8 0 27 30 26
31 41 44 46 46 47 50 49 51 43 44 45 44 42 43 44
43 41 38 34 32 31 30 34 48 43 30 28 23 16 19 31
42 41 42 41 35 69 94 104 91 45 49 61 77 95 113 124
136 145 148 135 137 120 81 74 94 105 110 119 120 120 123 112
104 101 56 57 106 135 143 147 147 141 114 103 95 64 57 105
110 87 47 48 48 47 48 48 47 46 45 46 45 43 44 46
45 46 45 47 47 47 47 46 46 45 45 45 45 44 46 44
44 44 43 42 42 41 36 32 33 37 37 10 0 22 30 27
34 46 43 45 45 45 44 40 39 44 45 47 48 44 45 45
45 44 43 47 46 42 39 39 47 57 54 54 51 47 42 36
42 42 42 41 34 56 93 105 90 56 45 56 73 92 109 121
135 143 149 146 135 108 80 88 96 114 129 142 140 142 145 135
122 112 106 108 122 136 146 147 147 138 112 106 93 59 70 106
105 78 47 47 47 46 46 46 46 46 46 46 45 44 46 47
47 46 46 47 47 47 46 46 46 46 45 45 45 44 45 44
44 43 42 42 41 40 36 32 32 36 34 10 0 17 30 26
33 49 43 43 43 43 44 44 46 49 46 49 52 56 53 46
45 45 45 56 56 54 50 51 50 45 42 43 44 45 45 40
40 41 42 41 36 45 84 96 93 73 43 52 69 89 106 116
129 139 147 149 140 123 114 106 111 127 143 143 142 146 147 145
133 126 119 118 125 138 147 147 145 130 112 111 90 55 83 101
104 70 46 47 46 47 47 47 47 47 47 47 47 46 47 47
47 46 47 47 47 47 47 46 46 45 45 44 45 43 44 43
43 43 42 41 41 40 35 32 31 35 34 12 0 14 29 26
58 53 46 47 47 47 48 50 54 56 47 51 53 61 55 48
41 41 46 59 56 54 50 52 50 45 36 31 30 30 31 36
42 42 42 41 34 44 70 95 91 93 43 47 62 84 104 112
124 134 143 149 143 127 117 109 117 129 141 138 141 144 147 144
137 133 127 125 130 141 147 147 143 125 115 107 84 51 84 102
105 61 47 48 47 48 48 48 47 47 47 46 48 46 47 47
47 46 46 46 46 46 46 46 45 46 45 45 44 44 44 43
43 42 41 41 39 39 35 29 29 33 33 14 0 14 28 25
62 56 50 42 47 44 46 53 57 59 49 53 53 51 51 50
47 38 37 56 55 53 53 55 52 49 43 37 37 36 36 39
42 42 42 41 34 45 62 94 87 82 53 44 56 76 99 112
121 128 138 147 141 128 117 115 121 128 133 136 138 138 140 137
136 133 130 127 133 139 143 142 135 121 116 103 77 59 98 97
96 51 48 48 47 47 47 47 47 46 47 45 47 46 48 48
47 47 47 46 46 47 46 46 45 45 45 44 44 43 44 43
42 41 40 40 39 36 35 28 28 33 32 18 0 10 28 26
64 54 12 25 14 14 18 24 36 59 49 50 30 30 37 39
37 40 39 38 15 12 16 26 31 35 47 42 39 41 43 44
46 44 42 40 37 45 53 93 86 92 73 41 52 69 90 108
117 122 129 138 136 127 119 118 121 124 128 132 134 134 138 134
130 130 126 127 132 136 136 133 128 120 114 95 69 70 111 94
69 46 47 47 46 48 46 46 46 46 46 46 48 47 47 46
46 46 47 47 46 46 47 46 45 45 44 44 43 44 44 42
41 41 39 39 39 37 34 28 27 32 31 18 0 7 29 26
36 39 1 0 0 0 0 0 5 55 50 34 1 2 5 9
13 29 44 38 5 1 0 1 12 18 45 39 42 43 49 51
53 50 42 38 39 45 48 70 84 100 82 39 48 62 81 102
113 118 121 127 128 121 119 118 118 119 125 137 139 136 137 134
131 129 127 126 128 133 129 126 123 119 108 88 60 48 98 81
46 46 46 47 47 46 41 39 37 34 30 26 33 44 47 48
47 47 48 47 47 46 46 45 45 44 43 43 44 43 44 42
41 40 40 39 37 38 35 27 26 31 31 19 0 8 30 28
39 38 10 6 0 0 0 4 12 54 47 11 0 0 0 1
8 34 45 41 2 0 0 0 9 19 35 2 5 9 10 12
33 52 43 36 40 45 47 50 72 90 48 22 42 54 68 88
104 112 113 117 120 118 117 116 117 121 131 139 141 145 145 138
132 127 125 126 127 126 123 121 118 112 98 79 46 2 25 34
36 39 46 46 47 46 25 12 13 12 13 13 19 43 48 47
47 46 47 46 46 46 45 45 44 45 43 43 42 42 43 41
40 39 38 37 36 35 33 26 25 29 30 21 0 5 27 26
46 41 6 3 0 0 0 3 24 54 41 3 0 0 0 0
0 31 45 41 2 0 0 0 5 16 37 0 5 13 4 0
22 54 42 36 41 45 46 49 45 32 4 7 37 48 59 72
93 105 106 107 113 112 113 115 117 123 132 140 145 148 149 147
138 126 121 125 127 122 118 116 114 104 88 70 27 0 0 7
9 16 46 47 46 45 24 12 13 12 13 12 17 45 48 47
48 46 46 47 47 45 44 44 43 43 42 42 42 41 41 40
39 39 38 35 36 35 33 25 23 27 29 22 0 2 23 21
49 43 5 7 0 0 2 3 2 48 33 0 0 0 0 1
0 29 43 38 3 0 0 0 3 14 37 0 8 16 10 0
19 53 42 34 42 44 46 48 39 3 0 0 28 40 51 60
78 94 98 98 103 104 109 111 118 124 134 144 148 148 145 146
142 132 124 123 122 114 111 112 107 95 76 57 9 0 0 7
8 14 44 45 45 45 22 11 12 13 12 11 16 43 47 47
47 47 45 45 45 44 44 43 44 43 43 42 42 40 39 40
38 38 36 35 34 31 31 23 19 23 26 21 0 2 24 26
48 45 3 0 0 0 4 12 2 45 30 0 0 0 0 0
0 29 42 36 3 0 0 0 1 8 40 0 2 4 0 0
16 52 42 34 42 43 45 48 43 13 0 0 15 35 43 50
62 82 88 89 91 95 102 108 116 124 130 137 140 139 136 139
139 130 124 119 114 105 105 105 97 83 65 40 1 0 1 7
6 10 42 44 44 44 19 11 11 12 11 11 13 39 46 46
46 46 45 45 45 44 44 43 42 41 40 39 38 37 38 38
37 36 35 33 32 33 30 24 20 23 26 22 0 0 22 24
35 51 18 3 0 0 2 4 0 42 28 0 0 0 0 0
0 29 43 33 1 0 0 0 0 1 42 2 9 12 8 0
14 52 42 34 42 44 45 47 45 27 0 0 7 34 36 45
50 64 76 79 79 83 94 104 110 116 122 122 123 122 123 125
124 122 116 110 101 97 97 95 84 66 54 17 0 0 4 8
6 11 41 44 44 45 23 11 11 12 12 11 11 38 47 46
45 43 43 43 43 42 42 43 43 43 43 42 41 40 40 38
36 34 33 32 31 29 28 23 20 22 26 23 1 0 21 24
32 53 18 3 0 0 5 11 2 39 26 0 0 0 0 0
0 20 46 35 12 0 0 0 0 2 45 4 0 1 1 0
13 51 41 34 43 43 45 48 46 38 6 0 2 33 32 38
42 49 59 67 68 68 79 94 103 109 109 112 111 109 110 112
112 109 107 97 89 89 84 78 65 52 40 3 0 0 7 8
6 11 42 45 45 44 28 16 17 18 20 22 20 33 44 44
45 45 46 46 45 45 41 42 42 42 42 40 40 40 38 36
34 33 33 32 31 29 28 22 19 21 25 24 2 0 19 24
28 52 5 0 0 0 0 0 0 40 28 0 0 1 0 0
0 17 47 34 4 0 0 0 0 0 44 7 0 2 0 0
11 50 40 36 42 43 45 48 46 43 23 0 0 29 38 34
38 39 44 53 57 59 64 79 91 94 93 96 96 93 94 94
93 91 89 79 76 71 65 55 46 42 31 0 0 5 7 8
7 10 41 44 45 45 32 20 20 18 16 15 25 44 25 25
42 47 46 45 45 45 44 43 43 43 42 41 40 38 38 36
35 32 32 31 31 29 28 22 18 21 25 25 3 0 18 25
23 46 3 0 0 0 0 1 0 37 32 0 0 0 0 0
0 14 49 35 4 0 0 0 0 0 41 13 0 0 0 0
13 47 39 37 42 43 46 48 46 40 31 2 0 24 44 39
36 37 36 38 42 46 49 57 66 70 70 69 70 68 67 66
67 64 63 58 54 47 42 39 40 40 36 0 0 6 7 8
6 9 40 44 46 44 31 12 14 13 2 0 8 15 21 1
31 46 46 45 45 45 44 43 43 42 42 40 39 38 38 36
34 33 32 31 29 29 28 22 19 21 26 25 3 0 15 24
19 42 2 0 0 0 0 15 1 36 41 0 0 0 4 0
1 11 51 36 28 21 20 18 21 20 48 16 0 0 0 0
13 45 37 36 41 42 44 47 41 41 39 8 0 18 46 49
43 41 41 40 37 35 38 41 43 46 50 53 55 55 54 51
51 48 44 41 39 43 47 50 52 57 39 0 1 7 7 8
6 9 40 45 47 43 31 11 13 13 9 2 12 25 29 4
30 46 46 45 45 44 44 43 43 42 41 40 40 38 37 35
34 32 30 30 30 28 27 22 18 20 25 25 5 0 15 24
11 44 32 31 26 26 35 45 36 46 49 51 49 46 49 48
49 50 56 37 44 48 51 53 58 63 63 41 31 30 28 27
30 43 37 34 41 42 45 44 40 45 41 16 0 13 49 55
54 51 51 50 51 50 44 40 40 41 44 50 52 54 52 49
47 44 44 49 57 60 61 63 67 66 39 0 7 9 7 9
6 8 39 44 47 44 34 12 13 13 9 2 4 2 0 3
27 45 46 45 45 45 43 43 42 42 41 41 40 39 37 35
34 31 31 30 28 28 26 23 18 19 24 25 7 0 13 24
4 44 45 46 41 46 56 57 51 48 45 61 59 54 54 57
60 60 59 39 40 48 51 54 61 66 65 50 38 38 39 40
41 39 37 33 39 42 43 40 44 45 43 28 0 7 52 58
62 60 59 57 59 59 56 50 44 42 44 49 52 55 54 52
48 51 58 68 72 72 72 78 76 70 39 2 11 9 7 10
6 8 38 44 46 43 34 11 12 12 10 8 9 7 1 1
26 45 37 33 43 44 43 43 43 41 40 40 38 36 35 33
32 31 29 28 27 27 26 21 17 17 24 25 8 0 11 24
3 45 45 40 40 47 55 58 49 41 37 53 56 56 55 55
56 55 55 42 32 37 44 47 51 50 50 44 38 39 39 38
37 37 39 37 35 38 38 44 46 45 44 38 8 3 53 63
67 67 66 65 64 65 67 65 60 58 62 66 70 72 72 73
76 78 82 83 85 84 85 90 85 77 39 0 3 8 7 11
5 7 37 44 46 43 34 11 12 8 3 13 1 0 0 0
16 15 18 16 12 45 43 42 43 41 40 39 37 36 35 33
32 31 30 28 27 27 26 22 17 17 23 23 8 0 9 23
1 43 35 32 32 35 45 58 51 45 39 28 30 30 30 30
30 31 33 36 35 37 39 39 38 34 33 37 39 39 39 39
39 39 39 38 39 39 42 47 45 45 44 34 20 4 51 67
73 73 72 76 76 77 81 87 86 86 87 90 92 95 96 97
97 97 93 93 95 95 97 99 92 82 41 1 4 8 8 11
6 6 36 43 46 44 33 9 12 6 43 65 32 0 1 1
17 40 45 44 15 34 42 41 41 41 40 39 38 35 34 32
31 30 29 27 27 26 26 22 17 17 23 24 10 0 8 24
4 42 27 22 28 31 40 50 48 45 43 30 31 31 33 36
35 35 37 40 41 43 46 45 43 39 36 37 39 39 40 40
39 39 39 38 39 41 44 47 45 43 39 33 32 21 49 74
80 83 84 89 93 91 93 98 103 106 111 112 113 112 113 112
111 109 102 101 104 100 103 102 96 84 43 7 7 7 8 10
6 6 35 43 46 44 35 11 12 8 42 52 48 0 0 7
45 44 44 44 29 21 44 42 42 41 40 39 37 35 33 32
30 29 28 27 27 26 25 22 18 17 22 23 13 0 7 24
23 42 21 0 0 1 2 8 12 16 45 36 43 41 43 53
53 44 43 45 46 48 54 54 52 40 39 37 39 39 39 39
39 38 38 39 39 41 44 46 45 40 34 33 34 34 52 82
89 92 94 98 101 98 97 102 110 119 127 129 130 128 127 125
123 117 111 107 107 106 107 105 100 88 45 6 7 7 6 9
6 6 33 43 45 44 36 10 9 7 28 7 28 0 0 6
45 45 44 44 36 18 43 42 41 41 39 37 35 34 32 31
29 28 28 28 28 27 26 23 18 17 22 24 15 0 4 24
45 47 22 0 0 0 0 0 6 20 48 37 51 49 49 64
63 17 12 13 15 18 22 44 54 41 39 38 38 39 39 39
39 38 38 38 38 40 42 46 43 33 31 31 35 34 51 86
95 98 100 102 106 101 98 102 112 123 136 140 142 140 139 138
131 120 113 108 108 107 108 108 103 92 46 6 7 6 7 8
6 6 32 43 45 43 38 19 22 19 0 2 3 0 2 8
42 44 44 43 35 21 43 42 42 40 39 37 34 32 30 29
28 27 27 27 27 26 24 23 17 19 25 26 16 0 4 26
45 49 28 0 0 0 0 0 0 17 50 34 47 41 21 29
47 6 0 0 0 0 1 34 54 41 39 39 38 39 39 39
38 38 38 39 39 39 42 47 38 32 4 1 34 35 49 87
99 102 104 106 111 105 100 102 111 126 139 144 145 146 146 142
136 124 115 108 107 108 109 110 107 95 49 6 7 7 7 8
6 6 32 43 45 44 43 37 8 22 4 0 0 0 0 0
39 45 44 43 28 29 41 40 40 40 39 36 33 32 31 30
29 28 28 28 27 27 26 24 18 15 22 24 16 0 2 24
44 45 32 0 0 0 0 0 0 14 51 33 46 33 0 2
37 7 0 0 0 0 0 29 53 41 39 39 39 39 39 39
38 38 37 38 39 40 42 44 37 31 11 9 32 35 47 86
101 104 107 108 111 110 101 103 112 126 139 145 147 149 148 147
137 124 112 107 107 109 111 113 108 95 51 6 7 6 6 8
7 6 29 41 42 44 44 35 36 64 42 0 0 0 0 1
42 45 45 44 15 39 43 42 41 40 39 34 30 29 28 28
27 27 26 27 26 25 26 24 16 16 21 24 18 0 2 24
8 12 4 0 0 0 0 0 0 17 50 35 47 35 0 3
34 9 0 0 0 0 0 21 52 41 39 39 39 38 39 39
39 38 38 39 39 40 42 41 35 35 28 28 34 35 46 85
102 108 111 111 111 110 103 102 109 121 137 147 147 148 149 147
135 122 113 106 106 112 114 114 109 96 57 6 6 6 6 8
7 6 29 44 44 45 44 37 36 51 44 0 0 0 0 0
25 28 26 16 21 41 11 9 25 41 38 33 30 28 28 28
26 26 26 27 26 26 26 25 18 15 21 24 19 0 1 22
6 11 2 0 0 0 0 0 0 18 49 35 47 33 0 2
31 12 0 0 0 0 0 16 52 42 39 38 38 39 39 38
38 37 37 38 38 39 40 41 34 30 26 32 33 35 47 88
103 109 112 115 114 109 101 103 105 112 130 148 149 149 149 143
126 117 111 105 107 113 116 115 109 97 59 7 6 7 5 5
3 3 12 14 11 9 5 2 0 0 0 0 0 0 0 0
0 0 0 0 0 14 5 34 21 41 39 34 30 28 27 27
26 26 27 27 27 27 26 24 18 16 21 24 20 0 0 22
8 13 2 0 0 0 0 2 0 15 49 35 47 34 0 4
28 15 0 0 0 0 0 13 52 42 38 38 38 39 38 38
38 38 38 38 38 39 41 41 37 26 18 22 27 27 46 89
105 112 113 114 114 109 101 103 106 109 117 141 149 149 147 132
120 116 110 106 108 114 117 116 112 100 64 17 10 0 0 0
0 0 0 0 0 0 1 3 4 4 4 6 8 10 11 12
13 11 0 0 27 11 60 82 63 37 35 29 30 28 26 27
27 27 28 28 28 28 27 25 19 17 21 24 22 0 0 22
11 15 3 0 0 0 0 3 0 10 49 35 48 34 1 4
26 18 4 0 0 2 1 10 50 42 38 38 39 39 38 38
38 38 38 38 38 39 39 41 40 34 30 31 30 31 50 87
106 112 117 118 114 108 101 101 106 109 112 128 147 149 140 126
118 116 110 105 108 115 118 118 113 102 68 31 42 3 2 9
12 15 17 18 20 21 21 21 21 20 22 23 23 24 24 24
21 15 0 0 8 4 3 5 5 5 3 7 31 29 28 30
29 29 29 30 29 30 29 29 22 20 24 28 26 1 0 23
14 16 3 1 0 0 0 12 3 7 51 35 48 38 19 4
23 21 6 5 3 4 0 8 49 41 37 38 38 38 38 38
38 38 39 38 38 39 40 40 39 32 33 37 36 36 53 87
105 114 116 120 121 112 100 97 103 108 109 116 134 142 131 121
119 118 111 105 109 116 119 120 115 104 68 23 64 7 2 16
18 21 23 23 23 23 23 23 22 22 23 24 24 25 25 24
21 16 0 0 0 0 0 0 0 11 7 10 38 37 36 35
35 35 33 31 27 26 24 21 15 11 11 11 8 0 0 2
14 18 3 3 1 0 0 16 21 5 53 36 49 34 28 10
21 18 3 13 12 4 0 6 47 41 37 38 38 37 38 38
38 37 38 38 38 39 37 39 39 32 37 39 37 32 55 89
105 113 121 124 120 116 107 101 101 109 110 108 117 125 120 124
126 121 112 106 111 117 122 120 115 105 69 5 0 2 3 16
19 23 24 25 25 25 25 24 24 24 25 26 26 26 26 25
22 17 0 0 0 0 0 0 0 8 5 12 17 15 15 14
14 17 19 21 22 23 25 27 28 26 27 33 36 5 0 33
15 18 11 8 13 10 12 25 30 21 55 37 51 31 24 23
19 18 3 12 10 3 2 7 42 38 37 38 38 38 38 38
38 37 38 38 38 38 36 37 39 35 39 33 11 30 60 88
106 114 119 126 125 115 109 103 106 113 117 116 118 120 124 129
127 121 110 105 111 120 123 122 115 103 72 26 0 2 4 15
19 23 25 26 26 27 26 26 26 26 27 27 28 27 27 25
23 18 0 0 0 0 0 0 0 0 45 53 51 50 50 50
50 51 52 51 51 51 50 50 47 40 40 47 48 8 0 32
15 16 35 40 44 45 49 55 59 61 64 40 51 27 9 31
18 37 33 32 31 31 30 30 31 33 36 37 37 37 37 37
37 37 37 37 37 37 37 37 39 35 37 14 30 49 64 87
106 114 121 126 129 123 109 102 105 114 118 119 123 126 129 132
127 120 110 105 117 121 125 121 114 102 76 58 40 15 12 19
19 26 25 26 27 27 27 27 27 28 29 29 30 30 28 26
24 21 0 0 0 0 0 0 0 0 48 52 50 50 50 49
49 50 51 50 50 50 50 49 48 40 39 46 48 10 0 29
16 15 38 46 47 48 51 57 60 62 65 51 48 27 1 13
15 34 29 29 29 29 29 28 30 34 36 36 37 37 37 36
37 38 37 37 37 37 36 36 37 29 30 30 53 58 68 89
104 112 121 125 128 127 119 103 103 116 122 124 126 131 132 130
125 118 107 110 118 122 124 123 115 101 79 66 63 58 26 17
23 23 26 26 27 28 29 28 28 29 30 30 30 30 29 27
26 22 0 0 0 0 0 0 0 0 49 51 50 50 49 49
49 50 50 50 50 49 49 49 48 40 39 45 48 13 0 27
16 13 26 39 39 39 42 45 48 47 46 43 45 28 0 5
13 36 34 36 36 35 35 35 35 34 36 36 36 36 36 37
37 36 37 37 37 37 36 28 26 23 28 59 63 72 74 91
102 114 123 126 129 127 120 108 102 112 126 131 131 133 133 129
123 113 111 112 119 123 125 123 114 100 82 77 72 80 83 55
19 31 20 25 27 27 29 29 29 30 31 31 31 30 29 27
27 22 0 0 0 0 0 0 0 1 49 51 49 49 49 49
49 49 50 49 49 49 49 49 48 41 39 43 48 16 0 25
15 14 6 6 6 8 11 17 25 26 27 25 42 28 0 3
10 37 34 36 36 36 36 36 36 35 35 36 36 36 36 36
36 36 36 36 36 33 25 24 28 20 27 66 74 82 80 93
102 114 123 126 128 127 122 113 102 109 122 131 134 135 135 126
120 116 111 113 119 122 123 122 115 102 88 86 87 86 95 96
76 36 24 20 24 27 28 29 29 29 30 30 29 29 29 28
27 21 0 0 16 38 16 0 0 5 50 50 49 49 49 48
48 49 49 49 49 49 49 49 49 41 38 43 47 18 0 21
16 15 9 8 8 10 12 18 25 27 28 25 42 31 1 1
7 38 33 36 36 36 36 36 35 35 35 35 36 36 36 36
36 36 36 36 30 23 23 24 24 19 23 62 89 90 85 92
103 114 123 126 130 129 123 112 105 104 117 126 129 133 130 125
120 114 111 116 122 122 124 122 114 105 95 92 98 96 99 104
94 38 29 26 23 27 27 28 29 29 29 29 29 29 29 28
28 21 0 0 25 50 18 0 0 7 50 49 48 48 48 48
48 48 48 48 48 48 49 48 48 42 38 41 47 21 0 17
16 16 15 14 14 14 16 20 25 27 29 27 44 35 24 31
37 39 32 35 35 35 35 35 35 35 35 35 36 35 35 35
36 37 35 22 20 24 23 25 24 23 19 55 97 98 89 94
104 113 121 127 127 130 123 113 107 105 108 119 129 132 124 120
115 115 116 122 124 124 124 120 116 109 99 97 104 107 107 109
86 29 29 29 26 27 16 25 28 29 29 29 29 28 28 28
28 18 0 0 0 0 0 0 0 9 49 49 49 48 48 48
48 48 48 47 48 48 48 48 48 42 38 40 46 22 0 15
15 16 16 15 17 18 20 24 30 32 31 28 47 42 47 55
54 41 31 34 35 35 35 34 34 34 35 35 35 35 35 36
40 29 19 20 20 24 22 25 25 24 18 35 92 103 94 97
108 113 120 124 124 126 126 117 108 107 107 116 123 128 123 120
121 118 120 123 125 124 123 120 116 110 103 105 108 114 116 115
61 24 30 30 26 25 19 22 28 29 29 29 28 28 28 28
27 16 0 0 3 5 0 0 0 12 50 48 48 49 48 48
48 48 48 47 48 48 48 48 48 43 38 39 46 24 0 13
15 16 16 15 16 17 19 24 30 31 29 24 31 27 27 31
33 31 32 34 35 35 35 34 35 34 35 34 35 35 37 30
22 19 18 17 21 23 22 22 24 26 19 21 67 107 98 100
111 115 120 124 124 127 127 120 110 111 113 115 119 122 120 120
120 120 122 123 125 124 123 119 118 111 106 109 114 119 122 103
36 28 28 28 27 26 22 21 21 25 24 26 26 28 28 27
28 16 0 0 1 2 0 0 0 17 49 48 48 48 47 48
48 47 48 47 48 47 48 48 47 44 37 38 46 28 0 11
15 16 17 16 16 18 19 23 29 30 28 28 29 28 26 26
30 31 32 33 34 35 34 34 34 34 34 35 37 32 25 22
20 21 19 18 20 23 19 20 24 25 22 15 33 89 102 106
115 117 119 123 124 125 126 122 113 111 114 117 118 121 121 120
121 120 122 124 124 122 121 119 119 115 111 113 120 123 120 57
28 26 27 28 28 24 20 21 19 19 20 20 18 22 28 28
27 15 0 0 0 0 0 0 0 18 49 48 48 47 47 47
47 47 47 47 47 47 47 48 48 44 37 37 45 30 0 8
14 15 17 17 18 19 20 24 29 30 28 28 30 29 29 27
31 31 32 33 34 34 34 34 34 34 37 32 27 22 21 20
19 20 19 19 21 21 21 20 25 24 25 19 17 43 94 113
117 119 120 123 124 126 127 124 116 112 113 115 117 120 122 120
121 123 124 123 124 123 122 122 120 118 115 118 124 124 76 30
30 27 24 28 27 23 21 22 20 18 17 16 17 16 23 26
28 16 0 0 0 0 0 0 0 6 48 47 47 48 47 47
47 47 46 47 47 47 47 47 47 45 37 37 44 31 0 5
14 15 17 18 19 20 22 25 30 30 29 29 30 29 29 29
31 31 32 32 33 34 34 35 38 34 27 23 24 22 20 17
19 21 20 20 20 20 19 20 22 25 26 23 19 20 42 94
119 121 121 122 125 128 128 126 119 113 113 114 117 119 120 121
122 124 124 125 124 122 123 123 122 117 119 121 124 80 32 27
29 28 27 28 24 24 24 20 20 18 18 16 14 18 17 21
20 21 10 0 0 0 0 0 0 12 27 48 47 47 47 48
47 47 47 47 47 47 47 47 47 45 37 36 43 33 0 3
13 14 16 17 18 19 22 25 31 31 29 29 30 30 30 30
30 32 32 33 33 34 35 36 27 23 21 22 22 22 20 18
19 20 21 20 20 21 22 20 18 24 24 24 22 21 18 30
83 122 123 122 124 126 127 128 122 118 114 114 115 117 120 121
123 126 126 124 122 121 123 123 123 121 122 120 73 31 27 27
27 27 27 24 17 20 21 20 18 18 16 16 16 18 19 19
19 17 20 22 11 1 0 0 0 29 18 42 47 47 47 47
46 46 46 47 47 46 47 47 47 46 37 36 42 35 0 1
13 14 15 17 19 20 21 25 30 31 30 29 30 29 30 30
30 31 32 33 33 34 25 20 19 20 20 19 20 20 17 18
19 19 20 20 20 19 20 22 22 19 25 21 23 23 21 19
28 64 112 120 120 122 125 127 127 120 118 118 116 118 121 122
124 126 126 122 119 119 123 125 125 124 107 54 26 26 27 27
29 26 26 18 16 17 20 18 16 18 16 16 17 17 19 19
20 18 17 18 23 21 8 0 0 32 41 18 46 46 47 47
46 46 46 46 47 47 46 46 46 45 38 36 41 39 0 1
13 14 16 17 18 19 21 25 30 31 31 30 29 29 30 31
31 31 32 34 34 24 16 17 17 20 20 21 21 17 16 18
18 19 19 21 21 21 22 25 26 23 23 25 24 25 25 21
20 23 37 75 111 121 125 129 130 124 121 119 119 120 120 121
126 131 128 122 119 122 124 128 124 79 35 23 24 24 26 27
27 26 20 22 21 18 20 18 18 19 17 17 18 15 19 21
19 20 19 18 18 18 21 17 5 35 46 25 35 47 46 47
47 46 46 46 46 46 46 46 46 46 38 35 41 40 0 0
14 15 17 19 20 22 24 27 30 31 31 30 30 29 31 31
31 32 36 32 23 19 16 18 19 18 19 18 21 16 18 22
21 23 21 22 22 22 23 23 27 27 25 25 28 28 28 25
24 21 20 24 33 68 110 128 130 127 123 121 120 120 122 123
126 128 125 121 122 124 119 90 45 25 21 23 27 27 26 26
26 24 25 22 20 20 19 20 22 19 20 20 19 15 20 22
18 20 20 18 17 17 19 20 23 36 46 44 15 41 46 46
46 46 47 46 47 46 47 46 46 45 39 35 40 42 1 0
18 20 21 23 24 26 27 29 29 30 31 31 31 30 30 31
34 34 28 22 23 19 16 19 20 17 19 21 22 15 17 21
22 22 24 22 22 23 23 23 24 28 28 24 24 29 29 30
27 26 23 22 21 21 30 57 86 111 119 123 122 121 121 123
125 127 123 111 90 63 37 25 23 22 23 26 26 26 25 27
24 28 27 20 19 19 20 23 23 22 21 21 18 16 22 23
19 20 21 19 18 19 17 17 18 20 32 25 5 1 42 47
46 46 46 47 46 46 47 46 46 47 40 36 39 43 2 0
20 22 24 25 26 27 28 29 29 29 30 30 29 29 30 34
30 20 18 18 18 16 13 14 19 17 18 20 21 15 17 20
22 22 24 22 21 22 23 22 20 22 25 25 24 19 27 31
32 30 28 28 26 23 23 21 22 26 36 46 57 68 67 66
61 52 41 31 25 22 24 26 26 28 27 27 24 26 29 25
27 27 25 18 19 20 20 22 22 21 21 21 16 16 22 22
18 18 21 19 18 19 19 18 19 20 21 21 37 9 36 46
45 46 45 46 45 46 45 46 45 45 40 35 38 43 3 0
14 19 23 24 26 26 27 29 29 30 30 30 30 30 34 24
17 14 15 16 16 15 16 14 19 17 17 21 23 20 19 23
24 23 23 23 22 22 22 21 21 21 21 22 24 23 17 23
30 30 29 30 27 28 26 25 24 21 19 20 20 21 21 21
20 22 23 24 22 25 28 28 29 29 29 29 27 25 25 27
27 26 25 18 20 20 22 21 22 22 21 20 17 18 23 21
18 18 20 18 18 19 18 16 16 19 20 18 33 18 28 46
45 45 45 45 45 45 45 45 45 46 41 35 37 42 5 0
16 16 19 22 24 25 27 27 28 29 29 29 30 29 20 15
14 12 13 15 18 19 20 14 17 19 18 23 23 17 19 23
23 22 23 21 21 22 25 23 21 23 22 19 21 23 17 18
18 25 30 31 31 31 28 30 29 28 26 26 27 24 24 26
26 27 28 27 26 27 29 29 26 28 31 28 19 24 25 25
26 25 21 17 19 20 20 19 22 20 19 19 12 19 21 19
17 18 19 18 17 17 16 15 17 19 16 14 16 8 10 41
45 45 44 44 44 45 45 44 44 45 40 34 35 42 7 0
