P2
128 120
155
44 44 43 42 42 42 41 40 40 39 39 38 37 37 37 36
35 34 34 34 33 32 32 31 31 30 29 29 29 28 28 27
27 26 26 25 25 24 24 24 22 21 18 17 16 16 21 22
23 24 20 13 24 29 27 25 23 22 22 21 18 17 14 13
13 12 17 19 17 20 14 18 21 21 22 23 23 23 24 24
25 26 26 27 27 27 28 28 29 29 30 30 31 31 31 31
31 32 33 34 34 35 35 36 37 37 37 38 38 38 40 40
40 40 42 41 41 41 41 41 42 42 42 42 42 42 42 41
44 44 43 42 42 41 41 41 40 39 39 38 37 37 36 36
36 35 34 34 34 33 32 31 31 31 30 29 29 29 28 27
27 27 26 26 26 25 25 24 23 21 20 18 18 18 23 24
25 26 21 13 25 30 27 25 24 24 23 22 21 19 17 15
14 13 16 19 19 16 19 21 22 22 23 24 25 25 25 26
26 27 27 28 28 28 29 29 29 30 31 31 31 31 31 32
33 34 34 35 36 36 37 37 38 38 38 39 40 39 40 40
40 40 42 40 41 40 41 42 42 42 40 42 42 42 42 41
44 44 43 43 42 42 41 41 40 40 39 39 38 37 37 37
36 36 35 34 34 33 32 32 32 31 30 30 29 29 28 28
27 27 27 26 26 25 25 24 23 22 21 19 19 19 25 26
27 28 22 13 24 31 28 27 26 24 23 23 22 20 19 21
17 14 15 19 20 18 20 21 24 24 24 26 27 27 27 27
27 28 28 29 29 30 30 31 30 30 31 31 32 33 33 34
34 36 34 35 36 37 38 37 38 39 39 39 40 39 41 41
40 41 44 40 42 42 42 42 42 41 42 42 43 42 43 43
44 44 43 43 42 41 41 41 40 39 39 38 38 38 37 36
36 36 35 35 33 33 32 32 32 32 31 31 30 30 29 28
28 27 27 27 26 26 25 25 24 23 21 21 21 21 26 27
28 29 23 14 23 32 28 27 26 26 25 24 23 20 21 22
20 15 13 21 18 20 22 24 25 26 25 27 28 28 28 28
29 29 29 29 29 30 30 31 31 31 32 33 34 34 34 35
36 38 36 37 37 37 37 39 38 39 39 39 40 39 40 40
40 41 43 41 42 42 42 42 43 42 42 43 43 43 42 41
45 44 44 44 43 42 42 41 41 40 40 39 39 38 37 37
36 36 35 34 34 34 33 32 32 31 31 31 30 30 30 29
29 28 28 27 27 27 26 26 25 24 23 22 22 22 28 29
30 30 23 15 22 32 28 28 27 27 26 25 24 21 23 23
22 18 13 23 19 22 25 26 26 27 26 28 28 28 29 29
30 30 30 30 30 31 32 32 33 33 33 34 34 34 35 35
36 37 37 37 37 38 38 39 39 39 39 39 41 41 41 41
41 41 43 41 42 42 43 43 43 43 41 41 42 42 44 45
45 44 43 43 42 42 41 41 40 40 40 39 39 38 38 37
36 36 36 35 35 34 34 33 32 33 32 31 31 30 30 30
29 29 28 28 27 27 26 27 26 25 25 24 25 25 30 30
31 31 24 17 22 33 30 29 28 27 27 26 25 22 23 23
23 20 13 23 21 24 26 27 27 28 29 30 30 30 30 30
30 30 30 31 32 33 32 33 34 33 34 34 35 35 36 36
36 38 37 38 38 39 39 39 39 40 40 40 41 41 41 42
42 42 44 42 42 43 41 41 41 42 43 44 43 44 43 43
44 44 44 43 43 43 41 41 41 40 40 39 39 38 38 37
37 36 36 35 35 34 34 33 33 32 32 31 31 31 29 30
29 29 28 28 28 27 27 27 26 26 25 25 26 26 30 31
31 31 24 19 20 33 31 29 29 28 27 26 26 25 24 25
24 22 15 23 22 25 27 27 28 29 29 29 29 30 30 30
32 33 32 32 33 33 33 34 34 35 35 34 35 36 36 36
36 38 37 38 38 39 39 39 40 40 40 40 42 42 42 42
42 42 41 40 41 41 43 43 43 43 43 43 43 44 44 43
44 44 43 43 42 42 41 41 41 40 40 39 39 38 38 38
37 37 36 35 35 35 34 34 33 33 33 32 32 32 31 30
30 29 29 28 28 27 27 26 26 26 26 26 27 26 32 32
32 32 25 21 19 33 31 29 29 28 28 28 26 26 25 26
24 23 16 24 23 27 28 29 29 28 29 30 31 31 31 32
32 33 32 32 33 33 34 34 35 35 35 35 36 37 37 37
38 40 38 38 39 39 40 40 39 39 40 41 41 42 41 39
40 40 42 43 43 42 43 43 43 42 43 44 43 44 44 44
45 44 44 44 43 42 42 41 41 41 40 39 39 38 38 38
37 36 36 36 35 35 35 34 33 33 32 32 32 31 31 31
30 30 30 29 29 28 28 27 27 27 26 27 27 28 32 32
33 33 25 23 19 33 32 30 30 29 29 28 29 30 26 25
25 25 18 25 24 28 29 29 30 30 30 31 32 32 32 32
33 33 34 34 34 34 34 35 35 35 36 35 36 36 37 37
38 40 38 39 39 40 41 41 41 39 39 40 39 40 42 43
43 42 42 42 42 43 42 43 42 42 44 43 43 44 44 44
44 44 43 43 43 42 41 41 41 41 40 40 40 39 38 38
37 37 36 35 35 35 35 33 34 33 33 33 32 32 31 31
31 30 29 29 29 28 28 28 27 27 27 28 28 28 33 33
33 33 26 24 18 33 32 30 30 30 29 29 28 27 26 26
26 25 21 26 25 29 30 30 31 31 32 32 32 32 33 34
34 34 34 35 34 34 34 35 36 35 36 36 36 36 38 38
38 39 38 39 39 40 39 38 39 41 41 41 42 42 42 43
42 42 43 43 43 43 44 43 43 44 43 44 43 43 44 44
45 44 43 43 43 41 41 41 41 40 40 39 39 39 38 37
37 37 36 36 36 35 35 35 34 34 34 33 32 32 32 31
31 30 30 29 29 28 28 28 27 27 27 27 29 29 33 34
34 33 26 23 20 33 33 30 29 30 30 29 29 29 27 27
27 26 23 27 26 30 30 31 31 31 32 32 33 34 33 33
34 34 34 34 34 34 35 35 36 36 36 36 37 37 37 37
37 40 38 38 37 37 38 40 41 41 43 41 41 42 41 43
42 42 43 42 43 43 43 43 43 43 43 43 42 44 43 44
44 44 43 43 42 42 41 41 41 41 40 40 39 39 38 38
38 37 36 36 35 35 35 34 34 34 33 33 33 32 32 32
31 31 30 30 29 28 28 28 28 28 27 28 29 29 34 33
34 34 28 23 16 28 33 30 29 31 31 30 30 30 28 28
28 27 23 28 28 31 31 31 31 32 33 33 34 33 33 33
33 35 34 34 35 35 36 36 36 36 37 37 38 38 38 38
35 36 37 39 40 40 41 41 41 41 42 41 42 41 41 43
42 43 43 43 42 43 43 43 43 43 42 43 44 44 44 43
44 44 43 43 43 42 41 41 41 40 40 39 39 39 39 38
38 37 37 36 36 36 35 35 34 34 34 33 33 32 32 32
31 31 30 30 30 29 29 28 29 28 28 28 29 29 34 34
35 35 26 21 10 26 34 32 32 31 31 30 29 31 28 29
29 28 22 30 29 31 32 32 32 33 33 33 33 33 34 33
35 35 35 34 35 35 36 36 36 36 37 37 35 36 36 38
39 39 39 40 40 41 41 42 42 42 44 43 42 42 43 43
42 42 43 42 42 43 43 43 44 43 43 43 43 43 43 43
45 44 43 43 43 42 42 41 42 41 41 40 40 39 39 39
38 38 37 37 36 36 35 35 34 34 34 33 33 33 32 32
32 31 31 31 30 30 29 29 29 28 28 29 30 30 35 36
36 35 28 22 20 29 35 33 33 32 32 30 31 32 29 30
30 28 25 32 30 32 33 33 33 33 33 33 34 35 34 35
36 35 36 36 36 36 36 37 37 36 36 36 37 38 39 39
39 40 40 40 41 41 41 42 42 42 44 42 43 42 43 43
43 43 43 42 43 43 43 43 44 44 44 43 43 44 43 44
44 44 43 43 43 43 41 41 41 40 41 40 39 39 39 39
39 38 38 38 37 36 36 35 35 35 35 34 34 33 33 33
32 31 31 31 31 30 29 29 29 29 28 29 30 31 35 36
36 36 29 23 26 27 36 34 33 33 32 32 31 33 29 30
29 29 25 32 30 33 34 33 33 34 34 33 35 35 35 35
35 36 36 36 36 36 36 36 37 38 37 38 38 39 39 39
39 40 40 40 40 41 41 41 42 42 43 42 42 43 43 43
43 42 43 43 43 43 43 43 42 43 44 45 44 44 45 44
44 43 44 43 43 42 42 42 41 41 41 40 40 40 40 40
39 38 38 37 37 36 36 36 36 35 34 34 34 34 33 33
33 32 32 32 31 30 30 30 29 29 29 29 31 32 36 36
36 36 30 23 28 26 36 34 34 33 33 33 32 34 31 31
31 31 26 33 32 34 34 34 34 34 34 35 35 35 35 35
35 36 35 35 36 37 38 38 38 39 38 39 39 39 40 39
40 41 41 41 42 41 42 42 42 42 44 43 42 43 43 43
44 43 43 43 43 43 44 43 44 44 44 44 44 45 45 44
45 44 44 43 43 43 43 43 42 42 41 41 40 40 40 40
39 39 38 38 38 38 37 36 35 36 35 35 35 34 34 34
33 33 33 32 31 31 31 30 30 31 30 30 32 32 36 37
37 37 30 25 31 25 37 35 35 34 34 33 33 34 32 32
32 32 27 34 32 35 35 35 35 36 36 36 36 36 35 35
36 36 37 37 37 38 38 38 38 40 40 40 40 40 40 40
41 42 42 42 42 43 43 43 44 43 44 43 43 44 44 43
44 44 43 43 44 43 44 44 45 45 44 43 43 44 45 45
45 45 44 44 44 44 43 43 42 43 42 42 41 41 41 41
40 39 40 38 38 38 37 37 37 37 36 36 36 35 35 34
34 33 33 33 32 32 32 32 31 31 31 31 32 33 38 39
38 38 32 26 33 25 37 35 35 35 35 34 34 36 33 33
33 33 28 35 33 36 36 36 36 36 36 35 36 37 37 38
38 38 38 38 39 39 39 39 39 40 41 40 40 41 41 41
42 42 42 43 43 43 43 43 44 44 45 44 44 44 44 44
45 45 45 45 45 45 45 44 44 44 45 45 44 44 44 45
44 44 44 44 43 43 43 43 43 43 43 42 42 41 40 40
40 40 39 40 39 39 38 37 37 37 37 36 36 36 35 35
34 33 33 32 33 33 32 31 32 32 32 32 33 34 38 39
39 39 32 26 33 26 37 37 36 36 36 35 34 35 33 33
33 32 29 35 34 36 36 35 36 36 38 37 38 38 38 38
38 38 38 39 39 40 39 40 40 41 41 41 41 42 42 43
42 42 42 42 43 43 44 44 44 44 44 44 44 44 45 45
44 45 44 43 43 44 45 45 45 46 45 46 46 45 45 45
45 44 44 44 44 43 43 43 43 42 42 42 41 41 41 40
41 40 40 39 39 39 38 38 37 37 37 36 36 36 35 35
35 34 34 34 33 33 33 32 32 32 31 32 32 33 38 39
39 39 34 27 34 26 37 37 37 36 36 36 35 37 34 34
34 34 28 34 29 36 36 37 37 37 38 36 38 38 38 38
39 38 39 39 39 40 40 40 41 41 41 41 41 41 42 42
42 43 44 44 44 44 44 44 44 44 46 45 45 44 43 43
43 44 46 43 44 45 45 44 45 45 45 44 44 45 45 45
45 44 44 44 44 44 44 44 43 43 43 42 42 42 42 41
41 40 40 40 39 39 39 38 38 38 37 36 36 36 36 36
35 35 34 34 34 33 33 33 32 32 32 33 34 34 40 40
40 39 34 27 35 27 37 37 38 37 37 36 36 38 34 35
34 33 30 36 33 38 38 38 38 38 39 38 38 39 39 39
39 39 39 39 40 40 41 40 41 42 42 43 42 42 43 43
43 44 44 44 44 44 45 44 44 43 42 43 43 43 46 45
45 45 45 46 43 44 44 45 45 45 45 45 45 46 45 45
45 45 45 44 44 44 44 43 43 43 43 42 41 42 42 42
41 40 41 40 40 40 39 39 38 38 38 37 37 36 36 36
35 35 35 34 34 34 34 33 33 33 33 33 34 35 40 40
41 40 35 29 36 30 37 38 38 37 37 35 36 38 35 35
35 35 30 36 34 38 38 38 38 38 40 38 39 39 40 39
40 40 41 41 41 41 42 42 41 42 42 42 43 43 43 43
44 43 44 44 44 43 43 43 44 45 46 45 46 46 46 45
45 45 46 48 44 45 46 45 45 45 46 45 46 45 46 46
45 44 44 44 44 44 44 43 43 43 43 43 43 42 42 41
41 41 41 40 40 40 39 39 39 38 38 38 37 37 36 36
36 35 35 35 34 34 34 33 34 34 34 33 35 36 41 40
41 41 34 28 36 30 36 38 38 37 38 37 36 38 36 35
35 35 31 36 35 39 38 39 38 39 40 39 40 40 40 40
40 40 40 41 41 42 42 42 43 43 43 43 44 44 44 44
44 43 44 43 44 44 45 45 46 45 45 45 45 45 46 46
46 46 46 46 44 45 45 45 45 46 46 46 46 46 46 47
45 45 45 46 45 44 43 43 44 43 42 42 42 42 42 42
42 41 41 41 40 40 39 39 39 39 38 38 38 37 37 37
36 36 36 36 35 34 34 34 34 34 34 33 34 34 40 41
40 41 35 28 36 33 35 37 38 38 38 36 35 36 34 31
31 32 28 34 34 38 38 38 38 39 41 39 40 41 40 40
40 41 41 42 42 43 43 42 43 43 44 43 43 42 42 42
43 44 45 45 46 45 46 46 46 46 45 45 46 45 45 46
45 45 46 48 46 45 45 45 44 45 46 45 46 46 45 45
45 45 45 44 44 44 44 44 44 43 43 43 42 42 42 42
42 41 41 41 40 40 40 39 39 39 39 38 38 38 37 37
37 36 36 36 35 35 34 35 34 34 34 35 35 36 40 41
42 40 32 25 35 35 30 33 31 32 32 31 23 18 12 4
5 5 4 10 14 27 29 28 31 36 40 39 41 41 41 41
42 42 42 42 42 42 43 43 43 43 43 42 43 43 44 44
44 45 46 46 46 46 46 45 46 46 46 46 46 46 47 47
46 46 46 47 46 45 45 46 46 46 46 46 47 46 47 47
45 45 45 45 45 44 44 44 44 44 44 43 43 42 43 42
42 41 41 41 41 40 40 39 39 39 38 39 38 38 37 37
37 37 36 36 36 35 35 35 35 34 35 34 35 34 41 41
39 28 16 16 25 26 7 5 5 3 3 3 0 0 0 0
0 0 0 0 0 0 0 1 2 10 35 38 40 42 41 42
42 42 43 43 43 43 43 43 43 44 43 44 44 44 45 44
45 44 46 46 46 47 47 47 46 46 46 46 46 46 46 46
46 45 46 47 45 45 46 47 46 47 46 46 47 47 46 46
45 45 45 45 45 45 44 44 44 44 44 43 44 43 43 42
42 42 41 41 41 41 40 40 40 40 39 39 39 39 39 37
37 37 37 37 36 36 36 35 35 35 35 34 32 35 39 39
37 12 14 11 8 0 0 0 0 0 0 0 0 0 0 0
0 0 2 2 0 0 0 0 0 0 6 16 35 40 41 42
42 43 43 42 43 44 44 44 43 44 45 44 46 45 46 45
46 46 48 46 46 47 47 47 47 47 47 46 46 46 47 47
47 46 46 47 47 46 46 46 45 46 46 46 46 46 47 47
46 45 45 45 44 44 44 44 44 43 44 43 43 43 43 42
42 42 43 41 41 41 41 40 40 40 40 39 39 38 38 38
38 37 37 37 37 36 36 36 35 35 34 30 31 32 39 41
36 15 11 5 0 0 0 0 0 0 0 0 0 0 0 0
0 0 3 2 1 0 1 1 0 0 0 0 5 21 36 40
41 41 43 43 43 44 44 44 44 44 45 44 45 45 46 46
47 46 48 47 47 47 47 47 47 47 47 47 46 46 46 46
46 46 46 47 47 46 47 47 47 47 47 47 47 47 46 46
45 45 45 45 44 44 45 44 45 44 44 44 43 43 43 43
42 41 42 41 41 41 40 40 41 40 40 40 40 39 39 39
38 38 37 37 37 37 37 36 36 35 35 28 31 36 42 41
30 7 3 0 0 0 0 0 0 0 0 0 0 0 0 0
0 0 0 0 0 0 0 1 0 1 0 0 0 0 6 15
31 41 45 43 44 44 44 44 45 45 46 45 46 46 46 46
46 46 48 47 46 47 47 47 47 47 47 47 47 46 47 47
47 47 47 47 48 46 47 47 47 47 46 44 45 44 45 46
45 46 45 45 44 45 45 45 45 44 44 44 44 43 43 43
43 42 43 42 42 41 42 41 40 40 40 39 39 39 39 39
39 39 38 37 38 37 37 36 36 35 33 27 34 37 34 25
23 11 4 1 0 0 0 0 0 0 0 0 0 0 0 0
0 0 0 0 0 0 0 0 0 0 0 0 0 0 0 0
1 13 34 41 44 45 45 44 45 45 46 46 45 46 47 47
46 47 48 47 47 47 47 48 47 47 47 46 47 47 47 47
47 47 48 48 47 45 44 44 45 45 47 48 47 49 46 44
46 45 45 45 45 45 45 45 44 44 44 44 44 43 44 43
43 43 42 41 41 41 41 41 41 40 40 40 40 39 40 39
39 39 38 38 37 38 37 37 36 35 33 27 35 32 23 33
30 18 1 0 0 0 0 0 0 0 0 0 0 0 1 0
0 0 0 0 2 2 0 0 0 0 0 0 0 0 0 0
0 0 9 33 43 45 45 45 45 45 46 46 47 46 46 46
47 47 48 47 48 47 47 48 48 48 48 48 48 48 48 48
48 46 46 46 45 45 48 48 46 45 44 47 47 48 45 46
45 45 45 46 46 45 45 45 44 45 44 44 44 44 44 44
43 43 43 42 42 42 42 42 41 41 40 40 40 40 39 39
39 38 38 39 38 38 38 37 36 36 34 27 31 25 33 29
20 5 0 0 0 0 0 0 0 0 0 0 0 0 0 0
0 0 2 1 4 6 4 0 0 0 0 0 0 0 0 0
0 0 0 11 35 43 45 45 46 46 46 46 47 47 47 48
47 48 48 48 48 48 48 48 48 48 47 47 47 44 44 44
46 47 48 48 47 47 47 47 47 47 47 46 46 49 47 47
25 45 46 46 46 45 45 45 45 44 44 45 45 44 44 44
43 44 43 42 43 42 42 41 42 41 41 40 41 40 40 41
40 40 39 39 38 38 38 38 37 36 36 31 24 20 29 16
2 0 0 0 0 0 0 0 0 0 0 0 0 0 0 0
0 0 0 1 3 5 3 0 0 0 0 0 0 0 0 0
0 0 0 0 12 38 46 45 46 47 47 47 47 47 48 48
48 48 49 48 49 48 48 48 47 47 46 47 47 48 48 48
48 48 47 47 47 47 46 46 47 47 47 47 47 47 46 46
24 45 46 46 46 46 46 45 45 45 45 45 45 45 44 44
44 44 43 44 43 43 42 42 42 42 41 41 41 40 41 40
39 40 39 39 39 39 39 38 37 36 37 33 27 17 11 1
0 0 0 0 0 0 0 0 0 0 0 0 0 0 0 1
3 6 5 2 0 1 2 0 0 0 0 0 0 0 0 0
0 0 0 0 0 19 41 45 47 47 47 47 48 48 48 48
48 48 47 47 47 47 47 48 48 47 47 49 47 47 47 47
48 47 47 47 46 47 46 47 47 47 47 47 47 48 46 47
23 45 46 46 46 46 45 43 43 44 45 46 46 45 45 44
44 44 44 43 43 43 43 42 42 42 41 43 46 43 42 41
41 40 40 39 39 39 39 38 37 36 37 32 19 7 0 0
0 0 0 0 0 0 0 0 0 0 0 0 0 1 0 0
3 4 2 0 0 0 0 0 0 0 0 0 0 0 0 0
0 0 0 0 0 5 31 44 46 47 47 47 47 47 47 47
47 48 48 47 48 48 49 48 47 47 47 49 47 47 47 47
48 47 48 48 48 47 47 47 47 48 47 47 47 47 46 46
23 45 47 46 46 46 46 45 56 55 52 50 48 46 45 44
44 45 44 44 44 44 44 43 43 43 42 56 60 55 51 47
45 41 40 40 39 40 40 39 38 36 34 24 3 0 0 0
0 0 0 0 0 0 0 0 0 0 0 0 0 0 0 0
0 2 3 0 0 0 0 0 0 0 0 0 0 0 0 0
0 0 0 0 0 0 8 37 47 47 48 47 48 48 48 49
48 47 48 48 48 47 48 48 49 48 48 49 49 48 48 49
48 48 49 48 48 48 47 47 48 48 48 48 48 48 47 47
27 47 48 47 46 46 46 47 60 59 58 58 53 52 50 48
45 45 46 45 45 44 43 43 43 43 43 57 58 56 52 53
53 50 43 40 40 40 40 38 38 37 31 11 0 0 0 0
0 0 0 0 0 0 0 0 0 0 0 0 0 0 0 0
0 0 2 5 5 0 0 0 1 0 0 0 0 0 0 0
0 0 0 0 0 0 0 20 46 47 48 48 46 48 49 49
48 48 48 48 48 48 48 49 49 48 48 49 49 49 48 49
49 48 49 48 48 48 47 48 48 48 49 48 47 46 49 48
28 50 49 49 49 47 46 47 62 60 59 54 54 54 55 60
53 52 50 47 45 44 43 44 43 43 43 55 56 54 51 53
53 51 44 40 41 40 39 40 39 35 20 1 0 0 0 0
0 0 0 0 0 0 0 0 0 0 0 0 0 0 0 0
0 0 0 1 3 2 0 0 2 1 2 2 0 0 0 0
0 0 0 0 0 0 0 11 44 49 50 49 49 49 48 49
49 49 48 49 48 47 48 49 48 48 48 49 49 49 48 49
49 49 48 48 48 47 48 47 47 48 49 47 48 47 48 48
30 54 53 50 51 50 49 47 56 54 58 55 56 59 59 61
53 53 55 56 53 50 47 47 45 44 43 44 28 34 39 49
52 53 45 41 41 40 40 39 37 26 4 0 0 0 0 0
0 0 0 0 0 0 0 0 0 0 0 0 0 0 0 0
0 0 1 0 0 1 1 0 1 0 0 0 0 0 0 0
0 0 0 0 0 0 0 2 38 48 49 48 48 48 48 48
48 49 49 48 48 48 48 48 48 48 49 49 50 48 48 48
48 48 47 48 48 48 47 48 47 48 48 47 48 48 48 48
29 52 53 42 47 53 54 57 39 1 11 34 49 55 58 60
52 11 15 27 38 50 49 49 55 51 46 43 21 17 18 12
14 19 45 40 40 39 40 39 33 10 0 0 0 0 0 0
0 0 0 0 0 0 0 0 0 0 0 0 0 0 0 0
0 0 1 2 3 2 1 0 0 0 0 0 0 0 0 0
0 0 0 0 0 0 0 0 26 47 49 49 49 48 48 48
49 48 48 49 48 48 48 48 47 47 47 48 49 48 48 47
47 47 48 47 48 47 47 47 48 47 49 48 48 48 47 48
29 52 54 49 45 41 56 60 42 0 0 8 20 22 21 30
53 4 0 0 0 2 11 20 32 42 48 43 18 5 15 17
8 1 44 41 41 39 40 38 23 2 0 0 0 0 0 0
1 4 4 3 1 0 0 0 0 0 0 0 0 0 0 0
0 0 0 0 4 5 2 0 0 0 0 0 0 0 0 0
0 0 0 0 0 0 0 0 11 42 47 49 47 48 48 48
48 48 48 48 49 48 48 47 47 47 47 47 48 47 46 47
46 46 47 46 47 47 47 47 47 47 47 48 48 46 43 44
21 16 28 41 53 56 59 61 45 0 0 5 13 18 20 21
54 5 0 0 1 0 1 0 0 0 29 44 15 1 5 6
7 0 45 40 40 40 40 35 12 0 0 0 0 0 0 0
4 12 12 10 9 3 0 0 0 0 0 0 0 0 0 0
0 0 0 0 0 2 2 0 0 0 0 0 0 0 0 0
0 0 0 0 0 0 0 0 1 30 46 49 48 48 48 47
47 47 48 48 47 47 47 47 46 47 47 47 48 48 47 46
46 46 47 46 48 46 47 47 47 46 47 46 47 47 48 48
18 0 0 0 2 13 27 39 44 0 0 4 9 4 10 15
53 12 2 0 0 0 1 0 0 0 29 42 8 0 0 4
3 0 46 41 40 40 40 29 7 0 1 0 0 0 2 11
15 22 28 22 20 21 6 3 2 1 0 0 0 0 0 0
0 0 0 0 0 0 0 0 0 0 0 0 0 0 0 0
0 0 0 0 0 0 0 0 0 15 44 49 48 48 48 48
48 48 49 49 48 48 48 48 47 48 48 48 48 48 48 47
47 47 47 47 47 47 47 48 48 48 48 47 47 47 46 47
17 0 0 0 0 0 0 0 30 0 0 0 1 0 5 14
50 3 0 0 0 1 1 0 0 0 28 38 0 0 0 0
5 1 48 41 41 40 39 24 7 2 4 0 0 0 18 32
33 41 45 42 37 42 36 18 13 5 1 1 0 0 0 0
0 0 0 0 0 0 0 0 0 0 0 0 0 0 0 0
0 0 0 0 0 0 0 0 0 6 42 49 48 48 48 48
49 48 48 48 49 48 48 48 49 49 49 48 48 47 48 48
49 48 49 49 48 48 49 48 48 48 48 48 47 47 47 47
17 0 0 0 0 0 0 0 26 0 0 0 0 0 0 18
53 6 0 0 0 10 17 4 0 0 26 37 1 0 0 0
3 1 50 42 42 40 37 22 10 3 0 0 0 2 42 55
59 58 76 68 59 67 79 46 33 21 7 4 2 0 1 0
0 0 0 0 0 0 0 0 0 0 0 0 1 0 0 0
0 0 0 1 0 0 0 0 0 5 39 49 48 48 48 49
49 49 50 50 49 49 49 48 48 47 47 47 49 48 49 49
48 48 48 48 47 49 49 49 49 48 49 48 48 48 48 48
18 0 0 0 0 0 0 0 23 0 0 0 0 0 0 17
57 5 0 0 1 13 21 16 11 2 24 39 0 0 0 0
0 0 47 43 42 40 37 24 9 1 0 0 0 8 60 69
76 81 93 92 95 88 94 86 66 55 19 10 9 5 3 4
0 1 0 1 0 0 0 0 0 0 0 0 0 0 1 1
0 0 0 0 0 0 0 0 0 2 38 49 48 48 49 49
50 49 49 48 49 48 49 48 49 49 48 49 49 48 48 48
48 48 47 46 48 50 49 48 48 48 49 48 49 49 49 49
17 0 0 0 15 13 0 0 20 0 5 1 0 0 0 13
58 6 0 0 4 16 22 20 19 8 21 40 0 1 0 0
0 0 44 44 42 41 37 23 17 0 0 0 0 15 66 75
87 95 99 102 110 111 111 109 95 90 62 20 15 13 9 11
5 3 3 3 3 4 1 1 1 1 0 0 0 3 0 2
2 0 0 0 3 0 0 0 0 1 33 50 48 48 49 49
49 50 49 49 49 49 48 48 49 49 47 49 49 48 48 49
48 47 47 48 48 49 49 49 49 49 49 49 49 48 45 43
17 1 16 11 6 5 0 0 18 2 2 0 0 0 7 15
58 8 0 2 2 15 21 19 19 8 19 43 0 0 0 0
0 0 43 45 43 42 39 23 18 0 0 0 0 25 70 84
95 100 103 109 115 118 120 120 111 104 100 64 30 27 20 15
17 11 9 6 6 5 6 3 2 1 1 0 3 0 2 2
4 4 1 1 5 4 1 0 0 0 26 48 49 49 48 49
49 50 50 51 49 50 50 50 48 49 48 49 48 48 49 48
48 47 48 49 48 50 50 48 48 47 50 48 45 44 45 44
18 7 12 0 8 8 1 0 20 2 0 0 0 0 7 24
60 11 0 7 5 1 11 19 20 6 16 53 39 26 15 7
1 2 40 46 43 43 41 24 13 1 0 0 0 38 75 93
97 100 107 114 120 123 124 125 121 114 111 106 74 56 43 31
32 27 18 13 8 9 6 5 4 2 2 0 3 4 3 5
4 9 2 2 5 7 7 4 2 0 17 48 49 48 49 49
50 50 49 51 48 49 50 50 50 49 49 49 48 48 48 49
49 47 45 44 48 49 44 46 46 44 42 38 34 30 25 22
18 6 3 0 0 1 3 0 30 17 9 6 9 0 1 17
65 46 36 25 19 7 1 3 13 4 15 55 57 53 55 55
56 56 60 45 43 43 39 23 10 4 0 0 1 54 89 99
98 104 114 120 125 123 122 123 124 121 119 118 111 92 85 73
58 60 38 22 11 9 8 6 4 3 4 5 4 8 5 7
9 9 4 2 6 7 11 6 6 0 16 45 48 49 50 50
49 50 50 51 49 49 50 49 49 49 50 48 45 44 43 46
46 44 46 46 42 38 34 30 25 23 22 21 22 23 26 20
18 0 0 0 0 0 0 0 42 65 55 48 45 40 25 22
69 42 34 39 45 49 47 39 32 26 31 61 58 54 55 55
62 64 65 47 43 43 38 24 13 8 0 0 10 74 99 102
102 108 117 121 123 120 116 112 110 110 122 124 124 119 115 112
108 104 88 51 22 13 10 11 5 4 3 7 6 8 8 9
9 9 7 4 9 10 13 5 8 1 19 46 49 49 50 50
50 49 50 50 49 47 44 44 44 44 46 46 47 45 42 39
35 31 27 26 24 24 24 25 27 29 29 31 31 31 32 27
19 0 0 0 0 0 0 0 43 69 50 59 61 65 67 63
69 33 20 22 22 22 23 24 29 37 46 47 41 47 50 53
61 64 64 49 43 43 40 24 19 16 0 0 32 86 104 104
105 113 114 115 96 84 87 82 83 86 102 111 119 125 131 133
139 139 130 99 53 19 13 10 10 8 7 12 12 11 8 9
8 10 11 8 8 9 10 4 7 1 18 46 48 49 49 49
47 48 49 49 48 48 50 49 42 40 35 31 28 26 25 24
26 28 28 30 30 31 32 32 33 34 35 31 29 37 38 38
26 25 17 7 0 0 0 0 45 59 50 61 64 68 70 58
48 31 21 22 21 21 20 18 18 17 15 14 16 21 25 39
43 38 37 41 43 44 42 34 29 23 0 3 61 91 106 106
105 101 83 57 40 34 36 49 75 81 82 90 91 114 130 139
146 149 147 134 99 43 19 11 13 13 14 14 15 13 10 9
10 13 14 11 7 5 8 2 4 4 16 47 49 49 50 50
49 46 43 40 35 32 35 51 31 23 25 28 30 30 31 32
32 33 35 36 37 37 38 39 40 40 40 40 34 31 42 42
31 56 63 61 53 42 32 23 52 46 50 60 63 66 69 62
53 37 23 24 21 20 18 17 16 16 16 16 17 17 17 36
43 43 41 41 43 43 41 39 38 32 3 18 72 90 104 106
98 78 53 42 49 44 57 70 83 101 106 103 95 106 127 141
146 147 146 148 128 88 33 15 15 13 14 12 15 12 10 8
7 12 14 14 8 6 1 0 1 6 21 46 45 42 37 33
30 27 28 29 30 30 29 46 30 29 33 35 36 37 38 39
40 40 40 41 41 41 42 43 43 42 42 42 44 36 31 42
31 57 63 63 60 60 61 63 64 30 34 47 55 62 65 62
55 40 25 22 20 16 16 16 17 17 17 18 19 19 21 39
20 10 43 43 44 43 41 41 41 38 9 11 36 66 92 104
97 71 57 49 55 61 73 107 121 121 123 125 125 126 135 145
148 148 148 149 145 118 63 22 14 14 14 12 16 10 7 8
8 4 10 11 11 8 1 0 0 4 20 28 29 28 29 31
33 34 34 35 36 36 34 45 31 34 38 41 42 42 42 43
44 44 44 44 43 43 43 43 44 44 43 44 46 46 35 29
28 56 64 64 62 63 63 64 63 12 1 1 5 12 23 28
41 46 23 21 16 3 4 3 11 21 22 19 16 23 24 40
48 45 52 53 51 45 8 23 44 42 19 0 8 31 71 100
98 88 77 68 79 96 99 84 128 143 138 137 135 137 139 143
144 143 143 139 132 117 74 28 15 12 13 14 12 7 4 6
7 6 6 9 11 7 5 1 0 2 23 33 35 36 37 38
40 40 40 41 42 42 39 48 36 38 42 43 44 44 45 46
46 45 46 47 48 47 47 44 43 45 45 43 46 47 47 36
31 47 51 52 54 57 60 64 60 8 0 0 0 0 7 21
40 46 21 19 15 0 0 1 3 8 12 5 4 13 13 35
53 45 43 46 50 52 47 43 42 37 28 5 18 34 54 82
92 94 95 95 81 94 115 91 114 123 128 129 87 70 68 60
64 67 77 87 101 113 111 60 18 11 10 14 10 7 6 6
7 8 3 6 12 10 6 1 0 1 30 40 41 42 43 44
44 45 46 46 46 44 36 25 21 40 45 46 47 46 47 47
47 47 47 47 46 47 47 47 47 44 46 44 46 47 48 47
32 34 36 40 44 43 43 55 56 6 0 0 0 6 1 3
41 47 20 19 15 2 0 6 6 1 2 1 0 3 6 32
55 44 36 32 33 38 41 47 56 30 14 32 46 69 64 73
90 88 101 94 65 91 114 119 101 121 105 106 61 53 60 85
113 131 144 150 150 150 147 104 25 13 9 11 9 8 8 8
7 6 5 3 8 10 3 0 0 0 34 46 46 46 47 46
47 47 47 47 47 45 30 9 7 34 45 47 49 48 47 47
48 48 48 48 48 48 48 48 47 46 44 44 44 46 48 47
31 29 29 32 43 41 41 57 57 4 0 0 0 1 3 0
36 42 15 8 0 0 0 15 14 6 6 0 0 0 1 31
56 46 26 40 46 38 42 77 76 31 15 58 59 61 63 91
100 92 91 87 40 27 112 91 126 61 69 74 77 101 123 145
151 150 150 150 150 150 149 123 42 14 10 12 11 11 11 9
12 13 15 14 11 8 2 0 0 0 31 48 47 48 48 48
49 49 47 40 32 44 26 19 8 32 46 48 50 49 49 48
48 48 48 48 48 47 48 48 47 46 47 44 43 45 46 47
29 32 38 43 46 45 49 57 55 4 0 0 0 0 1 0
42 34 0 0 0 2 3 6 19 16 6 3 0 0 0 30
56 47 18 37 36 34 53 85 70 38 30 69 67 54 54 74
124 113 95 85 40 28 77 65 78 67 95 103 113 131 147 150
151 151 150 151 150 150 150 130 63 16 12 9 9 12 11 21
16 18 30 32 44 43 9 0 0 0 35 50 49 49 48 49
50 31 3 0 2 36 23 5 3 29 45 48 49 49 48 48
48 48 48 48 49 48 48 48 46 47 47 46 42 42 44 43
29 2 4 9 17 25 34 41 49 4 0 0 0 0 0 0
43 37 0 0 0 0 2 6 19 24 17 11 0 4 1 28
56 49 20 25 26 23 66 80 58 37 38 54 59 105 58 60
137 127 107 83 55 73 107 116 83 80 120 138 143 141 149 151
151 150 150 150 150 150 149 130 72 22 14 11 11 13 20 36
47 34 68 112 96 93 32 0 0 0 38 50 50 50 50 50
50 38 27 36 43 46 32 2 5 28 46 48 48 48 47 48
48 48 47 48 48 47 47 48 47 47 47 47 46 41 40 41
33 2 0 0 1 0 0 0 23 5 0 0 0 0 0 2
46 30 0 0 0 1 3 22 22 26 21 16 0 0 3 29
56 50 35 34 32 29 84 99 73 33 35 5 38 62 60 70
129 129 115 85 67 67 95 112 85 74 123 144 150 149 151 150
151 150 150 150 150 150 148 130 79 33 18 15 14 17 36 45
63 86 104 136 139 129 71 0 0 0 38 51 50 50 50 50
51 50 49 48 47 45 34 4 5 29 45 47 48 49 48 48
48 47 48 47 48 48 47 47 47 45 47 47 47 46 40 41
32 3 0 0 3 0 0 0 22 5 0 0 11 6 2 0
43 27 0 0 0 0 2 26 27 27 13 8 0 4 7 25
56 53 38 29 7 8 80 110 87 27 26 22 54 59 76 81
117 141 131 115 89 81 99 114 87 76 125 146 151 150 151 151
150 150 150 150 150 150 147 135 91 37 24 18 18 25 50 68
82 125 143 150 142 144 101 1 0 0 39 51 50 50 50 50
50 50 49 47 46 46 40 8 2 34 46 48 49 48 48 48
47 48 47 48 46 47 47 47 46 46 46 46 46 45 41 40
33 3 0 1 7 3 0 0 20 5 0 4 27 19 6 0
44 24 0 0 1 2 2 5 17 17 0 2 2 6 2 20
54 54 39 24 15 14 71 120 101 40 41 43 57 44 47 93
113 142 133 116 98 97 102 116 84 85 130 149 151 151 151 150
150 150 150 150 150 149 148 138 97 43 24 19 24 33 62 88
61 89 142 150 144 146 114 3 0 1 38 51 50 50 50 50
49 49 48 48 46 44 41 22 14 40 46 48 48 49 48 48
48 47 48 47 47 48 47 47 47 47 47 47 47 45 41 38
30 3 0 5 22 11 4 0 20 5 0 15 26 20 11 0
43 22 3 6 0 2 4 1 13 20 0 1 0 0 0 14
55 54 20 17 1 2 51 132 111 58 42 38 54 45 52 99
128 126 142 128 104 107 106 114 80 101 133 151 151 151 150 150
150 150 150 150 149 149 148 140 109 64 35 29 50 63 98 109
102 97 107 136 146 143 105 1 0 0 35 50 49 50 51 49
50 50 49 48 46 44 39 37 36 43 47 47 49 49 47 47
48 46 47 47 47 47 47 47 46 46 46 45 46 45 42 37
32 4 0 17 33 15 12 0 20 33 20 30 30 27 22 3
44 21 3 1 2 0 2 1 8 24 1 0 0 0 0 8
54 53 16 20 5 3 44 136 121 82 43 50 62 41 58 114
146 121 138 135 109 104 116 109 82 117 142 152 151 151 151 151
151 150 151 150 149 148 148 141 119 95 78 70 99 115 137 132
116 141 128 118 148 147 79 0 0 0 35 50 50 49 50 50
49 49 49 49 47 44 41 41 43 46 48 48 48 49 48 47
48 47 47 47 48 47 48 47 47 46 46 46 45 44 40 35
29 4 0 9 16 8 7 0 19 57 53 60 60 58 60 62
66 24 0 3 0 0 0 1 12 25 3 4 6 0 0 4
52 50 14 11 6 7 37 107 127 102 45 50 65 40 73 131
152 143 118 131 118 99 113 96 97 126 148 150 150 151 151 150
150 150 150 149 149 148 148 140 124 110 99 95 114 132 148 140
108 141 149 124 148 146 47 0 0 1 38 50 50 50 49 50
50 50 49 48 48 46 43 42 46 49 48 47 48 50 48 48
49 48 48 48 47 47 46 46 47 47 45 44 44 45 42 37
31 10 6 3 4 3 2 0 17 57 53 59 58 57 62 68
69 43 24 27 19 11 6 8 12 29 8 8 5 3 0 5
36 48 11 6 4 9 18 61 127 102 62 47 66 44 98 144
151 151 137 117 111 97 91 97 120 138 147 151 151 151 150 150
150 150 149 148 149 148 146 139 126 115 108 109 120 133 144 141
129 124 143 127 149 134 17 0 0 2 40 49 50 49 50 49
50 49 48 47 47 46 46 45 48 48 49 49 48 48 48 48
48 47 48 47 47 47 47 47 46 46 45 42 42 42 40 35
32 29 10 2 5 1 1 0 15 54 52 57 57 56 66 71
71 56 48 47 47 44 42 45 42 38 34 31 28 28 26 31
42 53 25 24 24 18 10 30 93 106 87 58 62 64 120 147
152 152 150 128 115 111 121 127 132 139 146 150 150 150 150 150
149 149 149 147 148 147 144 135 122 115 113 113 124 132 134 130
137 137 132 137 150 107 2 0 0 2 43 49 50 49 50 50
51 49 48 49 48 46 46 45 47 46 46 46 46 48 47 48
47 47 45 46 46 45 47 47 46 45 45 43 43 42 40 35
31 24 3 0 4 0 0 0 17 52 46 50 50 50 51 47
47 48 49 49 50 48 46 48 48 47 45 42 39 36 35 36
44 59 43 40 35 29 27 28 50 78 97 79 52 85 125 149
151 150 143 139 129 122 130 131 134 141 148 151 150 150 150 149
149 148 146 146 147 145 141 132 122 116 115 117 126 129 128 116
120 137 142 149 146 53 0 0 0 8 46 50 50 49 49 48
48 48 48 48 48 46 47 48 48 48 47 48 48 48 48 47
47 46 47 46 46 45 46 45 45 45 43 44 43 41 39 34
35 18 1 0 3 1 0 0 16 57 46 47 48 49 49 47
44 48 50 51 53 52 51 50 49 49 48 52 56 52 50 47
50 62 60 60 60 58 55 47 44 45 43 42 61 93 125 149
151 149 144 140 132 118 119 126 134 141 148 150 150 149 150 150
150 147 146 146 146 142 138 130 119 120 118 117 123 125 127 135
144 150 149 149 115 10 0 1 0 15 48 49 49 48 49 50
49 48 48 48 49 47 48 50 49 48 48 49 49 49 48 48
48 48 48 47 47 45 46 45 45 44 43 42 42 41 38 32
29 40 40 36 28 25 20 15 23 61 49 49 49 48 49 50
51 55 52 53 57 61 61 53 47 49 48 57 62 59 56 54
55 48 41 38 39 40 42 41 43 45 45 47 81 92 120 146
151 151 150 149 141 123 107 120 133 142 150 151 151 150 150 150
149 148 144 145 145 140 135 127 122 122 117 113 118 120 133 149
149 149 149 140 43 0 0 2 0 23 48 49 48 49 49 49
48 48 48 48 50 49 49 49 49 48 48 48 48 48 48 47
46 47 47 46 46 46 45 44 44 43 43 42 41 41 39 32
30 50 59 63 57 58 65 67 66 63 52 52 52 52 53 55
59 62 54 54 56 63 61 53 49 41 45 58 62 59 56 56
56 53 47 37 36 34 35 37 44 44 45 47 75 78 106 126
132 133 141 148 147 127 99 107 126 139 148 150 150 150 150 150
149 150 146 143 142 138 134 126 124 122 116 110 116 116 131 150
149 149 148 91 8 0 0 2 0 32 48 50 50 49 48 48
48 49 49 48 48 49 48 48 48 48 48 47 47 48 48 47
47 47 47 46 46 44 46 44 43 43 42 41 41 39 38 31
31 52 69 68 68 68 67 68 67 66 51 48 44 46 46 51
60 64 55 55 55 53 53 57 53 47 40 49 52 50 51 56
57 54 51 44 42 41 41 42 44 45 45 46 70 64 82 108
97 66 86 107 122 114 100 96 117 135 147 149 150 150 150 150
150 149 147 141 137 135 130 126 126 123 117 111 112 108 111 142
149 147 118 37 1 0 0 2 5 41 50 49 48 48 49 48
48 48 48 48 49 48 49 48 48 48 48 48 49 47 48 48
47 47 46 45 45 45 45 44 43 42 42 40 40 39 38 30
30 38 49 50 53 56 59 61 64 66 18 12 11 4 7 12
21 52 58 55 32 19 27 30 30 33 46 46 17 7 2 9
19 24 44 48 43 45 50 50 53 53 46 45 63 79 58 70
89 109 118 113 103 109 119 95 105 128 142 149 151 150 150 150
149 149 146 144 140 131 130 129 126 120 114 109 106 101 71 66
100 94 59 17 0 0 1 2 18 47 48 49 49 49 48 48
48 47 47 44 46 45 49 49 49 48 49 48 48 47 47 47
47 47 45 44 45 45 46 44 42 42 41 38 39 38 35 30
29 34 40 40 40 39 38 37 37 43 13 1 0 0 0 0
1 41 58 44 6 1 3 8 15 23 50 48 13 2 0 0
9 20 41 33 34 39 44 47 52 56 48 45 54 81 83 60
72 101 126 132 128 130 135 110 95 122 138 146 151 151 150 150
148 148 145 144 139 133 132 128 123 119 114 108 103 95 83 57
69 66 46 5 0 0 2 3 35 47 47 48 49 49 40 25
24 19 17 15 17 37 50 49 49 48 49 49 48 48 48 47
46 46 45 45 45 44 45 44 43 41 41 39 38 37 36 30
28 40 49 48 48 47 45 44 44 47 19 12 2 0 0 0
17 44 57 25 0 0 0 0 2 22 52 48 17 0 0 0
3 18 39 9 1 5 4 3 10 56 50 44 44 72 81 70
98 101 119 128 132 133 137 129 98 116 136 148 151 151 151 149
150 148 147 142 139 135 134 126 122 118 113 106 96 88 93 99
83 63 37 1 2 0 2 3 18 23 44 49 48 49 39 13
14 13 14 14 15 37 50 49 49 49 48 48 48 48 47 46
46 46 45 45 45 44 43 43 41 41 39 38 37 37 36 30
28 42 50 51 51 51 52 52 53 52 21 8 3 0 0 0
18 44 55 14 0 0 0 2 0 14 53 49 16 0 0 0
2 15 39 11 3 23 18 2 6 56 52 43 42 63 77 67
103 99 120 131 134 128 135 132 109 112 138 150 152 151 151 151
151 150 146 143 140 138 135 128 123 118 114 102 92 85 95 98
79 59 28 0 4 1 4 6 9 10 39 49 49 49 39 14
14 15 15 14 15 38 50 50 49 50 49 49 49 48 48 46
47 46 45 45 45 43 44 42 42 41 40 39 37 36 35 29
30 42 51 52 52 51 52 52 53 53 18 7 3 0 2 11
7 33 52 8 0 0 0 2 0 15 52 46 17 0 0 0
1 13 40 12 4 13 14 2 4 53 51 42 42 54 71 66
96 101 115 130 138 138 132 129 115 111 136 150 151 151 152 151
150 150 148 147 143 138 133 129 123 117 110 100 85 83 95 93
75 57 20 1 5 2 6 9 9 10 35 47 48 48 34 14
14 14 14 13 14 36 50 49 50 50 49 48 48 48 47 47
47 46 46 45 44 43 42 43 42 40 39 37 35 36 34 29
40 41 43 43 45 38 21 29 43 60 22 0 0 0 1 13
7 28 51 5 0 0 0 0 0 14 53 44 17 0 0 0
2 2 37 15 5 10 7 1 3 53 52 41 45 51 66 55
83 100 105 109 114 131 141 132 121 114 139 151 152 151 151 151
151 151 149 148 143 138 134 129 121 115 107 95 81 83 95 91
76 55 12 1 3 2 6 10 9 9 34 48 48 48 36 14
14 14 15 13 13 30 51 51 50 49 50 48 49 47 46 45
45 44 44 44 43 43 43 41 41 39 38 37 35 34 33 28
38 39 39 39 41 32 0 4 25 62 36 14 1 0 5 11
5 24 52 3 0 0 0 0 0 14 54 43 18 2 0 0
0 0 36 21 6 13 13 4 2 51 51 40 46 50 64 46
64 94 97 99 99 91 124 131 129 121 143 152 152 152 151 151
151 151 149 148 141 138 133 126 118 113 104 88 76 84 94 91
77 53 7 1 1 2 7 10 9 9 35 49 48 48 39 15
14 14 16 17 17 24 48 46 47 46 47 47 47 48 46 46
46 46 46 44 43 43 43 41 39 38 36 35 34 33 32 27
36 36 37 37 38 34 0 0 20 62 32 7 0 0 1 13
9 22 52 3 0 0 1 0 0 4 54 43 25 1 0 0
0 0 31 27 0 4 3 0 1 49 50 39 46 49 63 46
72 94 110 110 105 100 90 94 121 132 148 152 152 151 151 151
151 151 149 146 140 137 131 124 116 109 98 80 74 88 97 93
76 48 3 1 0 0 9 9 8 9 33 48 48 47 43 27
26 25 25 26 25 42 45 49 49 49 48 47 47 46 47 46
45 46 46 44 42 41 40 39 38 36 35 34 33 32 31 27
26 27 29 32 36 34 2 0 15 57 21 0 0 0 0 0
0 22 53 3 0 2 0 0 0 2 53 43 19 0 0 0
0 0 25 34 0 3 3 0 2 45 48 38 45 48 63 63
89 106 119 120 119 123 126 118 117 138 151 151 151 151 151 151
150 150 148 145 139 134 128 118 113 106 90 72 80 96 99 95
76 42 0 0 0 3 9 10 8 9 32 47 49 48 42 16
16 16 11 5 4 23 8 6 16 49 49 48 48 47 47 46
44 44 44 43 43 41 40 39 37 36 35 34 32 31 30 26
0 0 9 27 34 34 4 0 12 52 17 0 0 0 0 4
1 20 57 5 0 0 0 0 0 2 51 44 21 0 0 0
1 1 22 40 0 0 0 0 6 45 47 38 46 49 64 65
85 105 123 136 141 143 142 138 134 143 152 152 151 151 152 151
151 149 146 141 135 129 123 116 109 98 77 72 90 102 103 97
78 36 0 0 0 6 9 10 8 8 30 47 49 48 44 16
15 15 13 4 10 25 43 20 9 49 48 48 48 47 46 46
45 45 44 43 42 41 40 39 36 35 33 32 32 31 29 26
0 0 11 33 33 33 7 0 9 49 20 2 1 1 1 17
12 19 58 23 12 12 16 14 12 15 51 46 42 43 41 40
42 46 53 47 6 4 3 3 5 43 45 37 45 47 62 68
88 101 118 133 141 144 144 142 146 150 151 151 151 150 151 150
150 147 139 135 126 122 119 109 101 84 70 85 101 107 107 99
78 31 2 0 5 8 9 9 8 7 29 47 49 48 43 17
14 15 15 7 4 6 13 7 6 48 48 48 47 47 46 45
44 44 44 43 42 40 40 38 36 34 33 32 31 31 29 26
0 0 8 32 32 31 10 0 1 44 47 49 43 42 50 60
59 56 52 64 64 58 59 62 62 62 64 48 42 52 55 57
61 68 69 62 45 45 43 43 42 46 43 38 43 46 57 65
89 101 113 128 138 142 142 145 148 150 150 150 149 149 150 149
145 141 134 126 117 113 106 95 79 69 82 99 105 109 108 100
79 37 5 4 10 15 8 10 8 7 27 46 48 48 44 17
13 14 13 7 11 12 6 2 4 46 48 47 45 45 46 44
44 44 43 43 42 40 39 37 35 33 32 31 30 29 28 26
0 0 4 33 32 31 12 0 0 40 51 54 45 49 58 64
56 51 45 61 65 62 61 59 65 65 66 54 38 50 53 57
63 70 71 65 41 41 41 41 42 42 42 40 39 46 52 64
92 104 118 129 138 143 145 147 150 151 151 150 148 148 147 144
141 134 126 116 107 97 84 72 72 85 97 106 107 108 109 102
82 52 10 4 3 9 8 10 10 7 25 46 47 48 44 17
13 12 10 5 5 5 3 1 4 43 23 10 17 43 45 44
45 43 42 41 40 38 37 36 35 33 32 31 29 29 29 27
0 0 3 33 31 29 14 0 0 36 52 49 43 49 57 64
60 51 43 45 53 52 52 51 51 50 50 49 37 36 43 45
48 44 43 45 42 43 44 43 43 42 43 42 41 39 49 65
96 106 121 134 139 145 147 148 150 151 150 150 149 147 145 140
132 124 115 101 90 76 71 80 90 97 103 107 108 109 109 102
85 61 18 2 1 10 8 10 10 6 24 45 47 48 45 17
13 13 3 39 40 1 1 0 0 13 33 44 22 20 47 44
43 44 42 41 40 39 37 35 34 33 31 30 29 28 27 26
0 0 1 32 31 29 16 0 0 32 46 34 38 36 42 60
61 54 48 38 34 35 34 34 34 34 36 41 39 41 44 44
44 41 37 39 42 43 43 44 44 42 44 43 43 45 52 70
98 100 119 137 145 148 150 151 152 151 151 149 147 144 136 128
118 108 95 80 72 76 86 94 101 103 106 108 109 111 109 104
88 66 24 6 6 9 8 10 10 6 22 46 46 48 44 17
13 13 22 65 72 15 1 1 19 46 47 47 44 11 45 43
43 43 42 42 40 38 36 35 33 32 32 30 29 29 28 26
0 0 0 30 30 27 18 2 10 35 45 16 21 26 31 41
45 42 48 41 35 35 37 45 43 43 42 47 47 50 54 55
52 46 42 41 42 43 44 43 43 43 43 43 42 45 51 72
93 96 106 125 138 147 151 151 151 150 146 141 139 134 125 113
102 87 71 70 81 90 96 101 104 105 106 107 110 111 108 105
90 71 32 9 10 9 9 9 11 7 22 46 46 49 45 19
12 13 19 30 39 16 0 0 29 48 47 46 45 11 42 44
43 43 42 41 39 37 35 35 33 31 30 30 29 29 28 27
0 0 0 27 30 27 24 23 36 45 45 2 0 0 0 3
12 16 44 44 49 55 47 61 67 54 45 46 48 47 54 57
59 49 43 42 42 43 43 43 43 43 42 43 43 45 49 68
88 95 98 108 123 137 148 150 149 143 135 129 123 116 106 92
74 66 72 85 94 99 104 105 106 108 108 109 112 111 110 106
92 76 43 9 9 8 8 9 10 7 21 46 46 49 46 21
10 13 4 16 12 1 0 0 26 48 47 46 46 14 39 44
43 42 43 40 38 35 34 34 32 31 30 31 30 30 28 27
0 0 0 25 30 26 30 51 54 56 49 1 0 0 0 0
2 14 52 43 51 59 48 64 70 32 2 3 3 4 6 26
59 51 44 43 43 43 43 43 43 42 42 43 43 43 45 56
74 89 92 96 112 126 135 138 137 127 119 113 105 96 82 69
71 82 91 97 102 106 108 108 109 109 111 112 113 113 111 106
96 81 57 11 8 8 8 8 11 7 19 45 46 49 46 39
31 24 9 1 3 1 0 5 22 48 47 45 45 19 43 41
42 42 40 38 36 34 33 32 31 31 31 30 29 30 29 28
0 0 0 22 29 25 28 50 53 58 54 4 0 0 0 0
1 3 54 41 47 54 10 13 27 31 0 0 0 0 0 17
57 51 43 43 42 42 43 43 42 42 42 42 43 44 45 48
61 72 79 90 98 109 117 119 112 107 102 94 80 67 65 76
86 95 99 104 107 109 111 112 111 112 114 115 115 115 111 104
100 86 69 14 9 8 8 7 10 7 19 46 45 49 45 46
14 38 49 5 0 0 0 0 23 49 48 47 41 18 44 45
44 44 43 39 35 33 31 31 30 28 29 30 29 29 28 27
0 0 0 18 29 24 27 44 45 44 40 4 0 0 0 0
1 2 56 40 48 53 4 3 20 31 0 0 0 0 0 11
55 51 43 42 43 43 43 42 42 42 42 41 42 43 45 47
45 53 58 68 76 86 94 93 88 82 74 62 58 63 73 83
92 102 107 113 116 119 117 115 115 115 116 116 116 115 111 106
103 90 78 27 8 8 8 8 11 7 16 44 45 48 48 48
27 63 72 18 0 0 0 0 20 47 46 44 18 32 38 29
28 42 41 37 33 30 30 30 29 28 29 29 29 28 28 27
0 0 0 16 29 24 24 14 14 19 12 0 0 0 0 0
1 4 57 39 48 54 6 4 18 34 0 0 0 0 0 5
52 51 42 43 42 42 42 43 43 42 42 42 43 44 45 47
40 38 38 38 42 45 49 50 47 42 41 44 52 62 75 90
103 110 118 124 128 127 124 120 117 116 119 119 117 115 110 110
105 93 86 47 8 8 8 9 10 7 17 42 39 35 32 28
14 20 12 7 0 0 0 0 2 7 5 4 5 25 26 16
12 42 41 37 33 31 29 30 28 28 29 29 29 29 29 27
0 0 0 15 28 24 23 16 15 19 12 0 0 0 0 1
1 6 56 39 49 53 4 2 15 36 1 0 0 0 0 2
49 52 41 43 42 43 42 42 42 41 41 41 41 42 43 44
41 32 23 23 23 27 23 26 24 19 23 29 40 60 80 98
111 121 130 137 137 133 127 122 117 115 120 120 116 113 112 109
104 97 92 64 10 6 4 3 2 1 1 1 1 0 0 0
0 0 1 1 1 0 0 0 2 3 1 0 4 12 7 50
50 42 41 37 33 29 29 29 28 28 29 28 30 28 28 27
0 0 0 13 28 23 22 17 17 21 14 0 0 0 0 5
1 0 53 39 49 54 5 5 14 37 1 0 0 1 1 1
46 52 41 42 42 42 42 42 41 42 41 42 41 42 44 45
44 39 28 24 29 28 26 38 26 5 5 11 28 48 75 100
116 128 138 143 142 135 128 124 120 119 118 118 117 113 113 107
106 100 96 80 36 5 0 1 3 4 6 7 9 10 11 13
14 15 16 16 19 22 24 25 23 20 9 0 8 29 8 62
56 24 18 15 23 30 29 29 29 29 29 30 29 30 29 28
0 0 0 11 28 23 22 21 20 23 14 0 1 0 0 6
0 0 50 40 50 53 13 6 12 37 11 2 0 5 3 1
43 52 41 42 42 42 41 41 41 41 41 41 41 42 43 43
44 41 33 39 39 36 37 43 32 14 16 21 37 55 73 97
115 128 140 145 142 134 130 125 122 119 117 117 115 114 112 109
106 103 100 89 69 55 0 8 19 21 23 24 24 24 24 24
23 22 23 24 24 25 25 25 24 20 9 0 0 0 0 0
0 6 10 8 23 34 33 33 33 34 34 35 34 35 35 34
0 0 0 10 27 22 22 21 23 24 14 2 7 0 0 12
18 0 47 42 52 54 28 14 10 39 8 9 8 10 0 2
41 50 41 41 41 42 42 41 41 41 42 41 41 41 43 42
44 38 33 41 40 39 41 45 42 42 50 55 55 57 76 98
113 127 139 145 140 132 129 124 123 119 117 117 115 112 114 110
106 105 103 97 82 30 2 10 20 22 25 27 26 26 26 26
25 25 25 26 26 27 28 27 25 21 8 0 0 0 0 0
0 6 9 7 19 30 26 23 20 20 18 15 12 9 9 8
0 0 0 9 27 23 21 22 23 24 17 2 7 0 0 13
26 11 41 45 52 52 23 29 10 36 1 11 17 11 0 0
36 49 40 41 41 41 41 41 41 41 40 40 41 41 41 38
44 38 37 43 41 41 43 45 47 60 66 70 65 56 69 93
112 123 136 137 135 128 126 127 123 119 118 116 118 115 114 112
108 105 106 103 93 62 17 11 19 22 25 26 27 27 27 26
26 26 26 27 28 29 28 27 25 23 9 0 0 0 0 0
0 2 9 34 36 34 36 37 40 44 47 49 50 50 50 50
0 0 0 7 26 22 21 23 24 24 29 22 30 29 30 37
46 44 55 51 52 51 13 38 12 36 12 18 19 15 14 14
35 41 39 40 41 41 41 41 41 41 41 40 41 41 40 37
44 40 40 44 42 41 29 14 43 66 74 75 71 60 60 76
105 123 132 130 127 124 124 124 124 119 117 118 117 116 115 112
110 107 108 108 99 85 64 44 23 26 30 30 29 32 28 28
28 28 28 29 29 29 30 28 25 25 9 0 0 0 0 0
0 0 17 58 54 53 52 52 52 53 53 53 53 52 52 51
0 0 0 6 26 21 20 22 24 23 37 49 52 55 56 61
66 67 70 60 50 50 3 24 20 39 35 35 34 33 32 31
30 32 38 39 39 40 39 39 40 40 40 40 40 40 39 38
43 37 40 45 42 25 5 40 54 70 84 86 80 68 60 62
83 116 127 125 121 125 125 125 124 120 116 119 118 117 114 112
111 108 109 110 104 97 86 79 74 44 20 20 22 25 28 29
28 28 30 30 31 31 30 29 27 25 7 0 0 0 0 0
0 0 22 55 52 52 51 51 51 52 52 52 52 51 51 51
0 0 0 5 25 21 19 22 25 24 32 55 56 56 58 62
67 68 70 69 50 51 2 7 10 38 31 34 35 35 35 35
36 37 38 39 40 40 40 39 40 39 39 39 40 39 39 37
40 34 39 44 33 11 37 59 53 74 94 97 94 83 68 65
64 91 116 117 122 128 130 127 126 119 120 118 119 117 117 112
112 109 109 112 111 105 98 92 93 95 80 42 21 31 22 27
30 30 31 31 32 31 30 29 28 26 7 0 0 0 0 0
0 0 26 54 51 52 51 51 50 51 51 51 51 51 50 50
0 0 0 5 25 20 18 22 25 24 21 35 35 33 35 37
41 40 40 36 43 50 3 6 8 38 35 40 40 39 39 38
39 38 39 39 39 40 39 40 39 39 40 40 40 41 40 38
40 34 38 34 21 25 61 59 55 77 97 107 105 96 82 70
69 67 93 114 123 127 130 126 123 124 123 121 120 120 118 115
112 110 111 115 116 113 107 103 102 105 107 99 50 32 26 22
26 31 31 31 31 31 30 29 28 27 7 0 0 9 10 0
0 0 28 53 51 51 50 50 50 50 51 51 51 50 51 50
0 0 0 5 25 21 19 21 24 24 18 15 15 16 18 22
29 32 33 31 41 50 4 3 5 38 36 40 40 40 39 40
40 39 39 39 40 39 40 40 39 39 40 39 40 40 39 38
38 31 27 25 19 41 75 59 57 81 99 109 114 112 99 84
80 79 86 105 119 125 130 129 125 126 123 122 121 121 120 117
116 115 115 117 119 121 119 115 113 113 115 108 46 30 32 26
30 27 29 32 31 31 31 30 29 28 7 0 1 54 51 1
0 0 31 53 52 52 51 51 50 50 50 50 51 51 51 51
0 0 0 4 24 20 18 21 25 25 21 19 18 19 21 24
30 33 35 32 43 52 12 5 7 38 35 39 40 39 39 39
39 38 39 39 39 39 39 40 39 39 40 40 40 39 39 36
33 26 27 25 20 43 81 66 59 83 100 109 114 119 114 102
90 91 96 105 115 122 125 127 131 126 122 122 120 122 122 121
119 119 116 118 122 124 125 127 124 122 121 88 30 31 35 28
30 23 22 28 30 32 31 30 30 30 7 0 1 26 20 0
0 0 37 53 52 51 51 51 51 51 51 51 51 51 51 51
0 0 0 5 25 21 19 21 24 25 26 25 25 25 25 28
33 35 37 33 46 55 36 52 57 54 35 39 40 40 39 40
40 40 39 39 40 40 39 40 40 40 40 40 39 39 37 29
28 24 28 27 19 33 75 76 63 85 103 112 118 121 122 115
102 98 102 107 114 120 126 129 129 123 124 125 124 124 122 123
122 121 119 122 127 128 131 135 136 136 124 50 29 32 33 30
30 25 22 23 27 28 34 36 33 31 7 0 0 4 2 0
0 0 42 52 52 52 51 51 51 51 51 51 51 51 51 51
0 0 0 8 29 22 18 22 24 26 26 25 26 26 27 30
36 39 39 33 46 52 44 56 56 48 34 39 40 39 39 39
39 39 39 39 40 40 40 40 40 40 40 40 40 34 26 26
26 23 28 29 22 21 55 85 69 86 103 112 119 120 123 124
114 101 104 109 111 120 126 125 124 127 131 130 126 125 126 125
126 124 122 125 129 132 135 139 141 140 76 33 32 32 30 32
31 25 24 23 24 25 26 28 33 35 11 0 1 9 4 0
0 0 44 52 52 51 52 51 51 51 51 51 51 51 51 51
17 18 18 20 20 19 18 21 25 26 27 25 26 26 27 30
36 37 37 31 33 33 30 30 34 36 37 38 40 39 40 39
39 39 39 39 39 39 39 39 39 40 40 39 33 26 23 26
25 20 28 27 26 16 35 72 75 89 104 110 117 121 124 127
123 110 105 111 114 116 117 121 129 134 133 131 128 125 126 129
131 128 128 127 133 137 140 142 141 89 35 32 29 28 31 31
27 24 26 23 23 21 22 22 22 25 28 17 4 0 0 0
0 0 48 52 51 51 51 51 51 51 51 51 51 51 51 51
17 17 17 17 17 18 18 21 24 25 27 26 27 27 27 29
35 37 37 35 37 36 35 32 35 36 36 38 38 39 39 38
38 38 38 38 38 38 38 39 40 39 33 28 25 24 23 23
23 22 24 27 28 20 19 39 67 94 106 110 115 124 127 130
128 121 112 111 115 118 121 124 130 134 133 130 128 124 126 129
134 131 129 130 134 140 142 141 91 35 33 33 29 27 31 29
27 25 26 23 22 20 18 16 21 22 23 21 22 18 6 0
0 0 42 51 50 51 51 51 51 51 50 50 51 51 51 51
17 17 17 16 17 18 18 20 23 24 25 26 27 27 27 29
34 36 35 34 36 36 36 33 35 36 36 37 38 38 38 38
38 38 38 38 38 38 38 37 31 28 23 24 24 23 24 23
24 23 22 28 28 25 21 21 31 72 106 111 114 121 129 131
132 127 120 113 113 116 120 124 128 132 133 131 127 124 126 132
135 132 129 132 134 142 136 77 35 30 32 30 30 30 28 26
27 26 22 22 21 20 19 18 21 20 23 22 22 20 24 21
8 1 21 52 50 50 49 50 50 50 49 50 50 50 50 50
17 17 16 16 16 16 16 19 23 24 25 26 27 28 28 30
35 37 36 35 36 36 36 34 34 36 36 36 38 38 37 38
37 38 38 38 38 35 30 27 27 26 24 24 24 24 23 24
23 25 21 24 27 25 25 22 20 30 66 107 115 121 128 132
133 131 124 117 114 116 118 122 125 130 131 131 127 123 126 132
135 134 132 134 136 115 56 32 31 29 29 30 28 28 21 20
22 24 22 21 21 18 18 19 24 22 21 22 21 20 19 23
28 24 24 41 50 49 50 50 50 49 49 49 49 49 50 50
5 4 3 3 9 11 15 25 21 23 25 26 28 28 28 30
36 37 36 35 36 36 36 35 35 35 36 36 37 38 37 37
37 37 37 34 30 25 25 24 24 23 23 22 22 23 24 23
22 25 25 22 28 24 25 26 23 21 25 40 78 112 124 130
132 133 128 120 115 113 114 116 121 127 131 132 127 122 126 133
137 139 136 118 72 34 28 27 30 30 31 28 26 24 22 21
21 23 20 20 20 19 19 21 23 22 22 23 24 22 21 20
20 27 29 33 49 49 50 50 50 49 49 49 49 49 49 49
0 0 0 0 9 15 16 20 22 23 24 26 26 27 28 30
35 37 37 36 36 35 35 35 36 35 35 36 37 38 37 36
36 35 28 26 25 25 24 21 23 25 22 23 24 24 25 24
25 27 29 27 25 30 28 28 28 25 23 23 27 38 72 111
130 136 131 124 117 112 112 115 118 125 129 130 124 120 126 133
133 118 72 35 26 25 27 28 28 29 28 27 25 26 25 23
22 23 21 22 21 20 21 21 21 22 24 23 22 23 21 20
21 22 27 30 32 44 50 50 49 49 49 49 49 49 49 49
0 0 0 0 7 14 17 18 20 22 23 25 26 27 28 30
35 36 37 37 36 35 35 36 35 35 35 36 37 36 37 37
32 24 24 21 23 23 25 19 21 23 23 25 25 25 25 26
26 25 29 30 29 25 31 31 30 28 27 24 25 23 25 31
53 85 109 124 124 118 116 116 116 121 128 126 120 111 98 77
50 31 25 25 25 27 29 29 27 27 27 27 29 26 22 22
22 24 25 25 22 22 23 23 21 22 24 22 21 23 21 19
20 22 21 23 25 26 41 48 49 49 49 49 49 49 49 49
0 0 0 0 7 14 17 20 22 24 26 28 29 30 31 33
35 36 36 36 36 35 34 35 35 34 34 35 36 35 37 31
20 20 22 21 22 22 23 18 21 22 24 23 26 26 25 26
25 25 24 28 29 27 22 29 32 33 32 30 30 29 27 27
25 25 27 35 45 53 63 65 66 65 62 55 43 34 28 27
28 28 28 27 28 28 26 27 27 29 28 30 28 23 21 22
22 23 27 25 23 22 23 22 20 23 25 21 22 22 23 21
20 22 18 16 20 21 24 40 49 49 49 49 49 49 49 49
8 5 2 6 11 17 22 24 27 28 30 31 33 33 34 35
35 35 36 37 36 34 34 35 35 35 34 34 35 36 31 23
18 17 23 20 22 24 25 20 22 25 25 24 26 24 25 25
24 23 23 23 24 27 25 20 26 32 32 32 31 31 29 30
29 28 25 23 22 23 24 24 26 24 26 25 27 25 26 28
30 31 31 31 30 27 26 30 28 29 31 29 28 21 21 22
24 25 25 23 24 22 25 20 21 24 25 22 21 21 22 20
21 20 16 17 19 18 18 24 45 49 48 49 49 48 48 48
10 10 11 14 17 19 21 25 25 25 31 33 33 34 34 35
35 35 35 35 35 34 33 34 35 35 35 34 32 26 22 23
18 17 24 21 23 25 25 21 23 27 25 24 26 25 24 26
25 24 25 25 23 22 26 24 18 20 27 32 33 33 32 31
31 31 31 29 28 30 27 28 28 30 30 30 30 29 29 31
31 30 29 31 33 31 25 25 30 30 29 28 26 21 22 22
23 24 24 24 23 21 23 20 22 24 22 19 21 22 21 19
21 20 16 17 20 18 16 17 30 47 48 48 48 48 48 48
13 11 10 9 8 6 5 21 23 21 30 31 32 33 34 34
35 34 35 35 35 34 34 33 34 34 33 26 22 21 19 19
16 14 21 21 21 23 22 20 22 24 23 24 27 24 25 25
27 25 24 25 25 22 24 24 22 27 27 22 26 31 32 34
33 30 30 29 27 28 28 28 30 31 31 29 27 27 30 30
30 29 29 30 25 23 26 28 26 28 26 26 23 19 21 22
23 22 23 24 22 22 22 19 23 23 22 19 20 19 20 20
20 20 17 14 19 18 15 14 19 39 47 48 48 47 48 47
4 3 4 4 4 4 5 20 25 22 24 27 29 30 31 32
33 34 33 35 35 34 33 33 33 34 23 19 19 16 18 22
19 14 21 23 19 26 24 20 23 25 25 25 25 26 27 27
28 26 25 26 25 25 22 24 23 23 30 31 23 21 20 23
29 28 29 30 29 28 29 31 33 32 32 32 32 31 31 30
28 22 21 21 21 23 22 24 24 24 24 23 20 21 21 21
19 19 21 22 22 22 23 18 22 23 22 21 21 21 21 19
21 19 17 14 18 18 15 13 13 27 46 47 47 47 47 47
