P2
128 120
154
41 40 39 39 38 38 37 37 36 36 34 34 34 34 33 33
32 31 31 30 30 29 29 28 28 28 27 26 25 25 25 24
24 24 23 22 22 22 21 21 20 18 16 14 13 14 17 18
20 20 17 10 22 26 23 22 21 20 20 19 16 15 11 12
11 10 15 17 15 18 13 16 19 19 20 21 21 21 22 22
23 23 23 24 24 24 25 25 25 26 27 27 28 28 28 29
28 29 30 30 31 32 33 33 34 34 34 35 35 36 36 36
36 36 38 37 37 37 38 39 38 39 39 37 39 38 39 39
40 39 39 38 39 38 37 37 36 36 35 34 34 34 33 32
32 31 31 30 29 29 29 28 28 28 27 27 26 26 25 25
24 24 23 23 22 22 21 20 20 18 17 15 14 15 19 20
22 23 18 10 21 27 24 22 22 21 21 20 19 17 15 13
12 11 15 17 17 15 18 19 20 21 21 22 22 23 23 23
25 25 24 25 25 26 26 26 27 28 28 28 28 27 28 29
30 31 30 32 32 33 33 33 34 34 35 35 36 36 37 36
37 36 39 38 38 37 38 38 37 38 37 38 38 38 38 38
40 39 40 39 38 38 37 37 36 36 36 35 35 34 34 33
33 32 32 31 31 30 29 28 29 28 28 27 27 26 26 25
24 24 24 24 22 22 22 21 21 20 18 16 16 17 22 22
24 24 18 10 21 27 24 23 22 22 20 20 20 18 17 18
15 12 13 17 18 17 19 20 22 23 23 24 24 24 24 24
25 26 26 26 26 27 27 27 28 27 28 28 29 30 30 30
31 33 32 32 33 34 34 35 35 35 35 35 36 37 36 36
37 38 39 36 38 38 38 39 38 37 39 39 39 39 39 39
40 39 39 39 38 38 37 37 36 36 36 35 34 34 33 33
32 32 32 31 30 31 30 29 29 28 28 28 27 27 26 26
26 24 24 24 23 23 22 22 21 20 19 17 17 18 23 24
25 26 19 11 20 28 25 24 24 23 23 21 20 18 19 20
18 14 12 20 17 19 20 22 22 23 23 25 26 25 25 26
26 26 27 27 27 28 28 27 28 28 29 30 30 31 31 31
32 34 33 33 34 34 35 35 35 36 35 36 36 37 37 37
37 38 39 36 38 38 38 39 39 38 39 39 39 39 38 37
40 40 39 39 39 38 38 38 37 36 36 35 35 35 34 34
33 33 32 31 31 30 30 29 29 28 28 28 27 27 26 26
25 24 24 24 24 23 23 22 22 21 21 19 19 19 25 25
27 26 20 13 19 28 25 25 25 24 23 22 22 18 21 21
20 16 11 21 17 20 21 24 25 26 25 26 26 26 26 27
27 27 27 27 27 28 28 29 29 30 29 31 31 32 32 32
33 35 33 34 34 35 35 35 35 35 36 36 37 37 37 38
37 37 40 38 38 38 39 39 39 39 38 37 39 38 40 40
40 40 39 39 39 38 37 37 37 36 36 35 35 35 34 34
34 33 32 32 31 31 30 29 29 29 29 28 27 27 27 26
26 25 25 24 24 24 24 23 22 22 22 21 21 21 26 27
27 27 20 15 18 29 26 25 25 24 24 23 22 20 21 21
21 18 11 21 19 22 24 24 25 26 26 26 27 27 28 28
27 28 28 29 29 29 30 29 30 31 30 31 31 32 32 33
33 34 34 35 35 35 36 36 36 36 36 36 37 38 38 38
38 38 40 38 38 38 37 37 37 37 39 40 39 39 40 39
40 39 39 39 39 38 38 37 38 36 37 36 36 35 35 35
34 33 33 32 32 31 30 30 30 30 29 28 28 28 27 27
27 26 25 25 24 25 24 24 23 22 23 22 23 22 27 28
28 28 21 17 17 29 27 27 26 25 25 24 23 23 22 22
21 20 14 21 20 24 25 26 26 26 27 28 27 28 28 28
28 29 29 30 30 30 30 31 31 31 32 32 32 33 33 33
33 35 35 35 35 36 36 36 37 37 37 37 38 38 38 38
38 38 37 36 37 38 38 40 39 39 39 40 39 41 40 39
40 40 40 39 39 38 38 37 37 36 36 36 35 34 34 34
34 34 33 32 32 32 31 31 30 30 29 29 28 28 27 26
26 26 26 25 25 25 24 24 23 23 23 23 23 23 28 28
29 29 21 18 16 29 28 26 27 26 25 25 24 24 23 23
22 21 15 22 22 25 26 26 27 26 27 27 28 29 28 29
30 29 30 30 30 30 30 31 31 31 32 32 32 32 33 34
34 36 35 35 36 36 36 37 37 36 37 37 38 38 37 35
36 36 38 39 39 38 39 39 38 39 39 40 38 40 40 40
40 40 40 39 39 39 38 38 38 37 37 36 36 35 35 34
34 33 33 33 32 31 31 30 30 30 29 29 29 28 28 28
27 27 26 26 26 25 25 24 24 23 24 24 25 24 29 29
29 28 22 19 16 29 28 27 27 27 26 26 26 27 23 22
23 22 15 22 22 25 26 27 28 28 29 29 29 30 30 30
30 30 30 31 31 31 31 32 32 32 33 32 33 34 34 34
35 36 35 36 36 36 37 37 37 35 35 36 35 37 38 40
39 39 39 39 39 40 39 40 39 38 40 40 39 40 40 40
40 40 40 40 39 38 38 38 37 37 36 36 36 35 35 35
34 34 33 33 33 32 32 31 31 30 30 29 29 28 28 28
28 27 27 26 26 26 25 25 24 23 24 24 25 25 29 29
30 30 23 21 15 29 29 27 27 27 26 26 25 25 24 24
24 23 19 24 23 26 28 28 28 29 29 30 30 30 30 31
31 31 31 31 32 32 32 33 32 32 33 33 33 34 34 35
35 37 36 35 37 37 36 35 35 38 37 38 38 38 39 38
38 38 38 39 39 40 39 40 39 40 40 40 40 40 40 40
41 40 40 39 39 38 38 38 37 37 36 36 36 35 35 35
35 34 33 33 32 32 31 31 31 30 30 29 29 29 29 28
28 27 27 27 26 26 25 25 25 25 25 24 25 26 30 30
31 30 23 20 16 30 30 27 26 27 27 27 26 26 24 25
25 24 21 25 24 28 28 28 29 29 30 30 30 31 30 30
31 32 32 32 32 32 32 33 33 33 33 33 34 34 35 35
35 37 35 35 33 34 35 37 37 37 39 37 37 39 38 39
38 38 39 38 40 40 39 39 39 39 39 39 39 41 40 40
41 40 40 39 39 38 38 37 38 37 37 36 35 35 35 35
35 34 33 33 33 32 31 31 31 31 30 29 29 29 29 28
28 28 27 27 27 26 26 25 25 25 24 24 26 26 31 30
31 31 25 21 13 24 29 27 26 28 27 27 26 27 25 25
26 25 20 25 25 29 29 29 29 30 30 31 31 31 31 31
31 32 32 32 33 32 33 33 33 33 33 34 35 34 34 33
32 33 34 36 37 37 38 38 37 38 39 38 38 38 38 39
38 38 39 40 39 38 40 39 39 39 38 39 40 40 40 40
41 39 40 39 40 39 38 38 38 38 36 37 36 35 35 34
35 34 33 33 32 32 32 31 31 31 31 29 30 29 29 28
28 28 27 27 26 26 26 25 25 25 25 25 26 27 31 31
32 31 23 18 8 22 31 29 28 28 28 27 27 28 25 25
26 25 20 27 26 29 29 29 29 30 30 31 31 32 32 32
32 33 32 32 32 33 33 34 34 34 34 34 33 33 33 35
36 36 36 36 36 37 37 38 38 38 40 39 39 39 39 39
39 39 39 39 39 39 39 40 39 39 39 39 40 39 39 40
40 40 40 39 39 38 38 38 38 37 37 37 37 36 36 36
35 35 35 33 33 33 32 32 32 31 31 30 30 29 29 29
29 28 27 28 27 27 26 26 26 26 25 26 27 27 32 32
32 32 25 19 17 26 33 29 29 29 28 28 28 30 25 27
27 26 22 28 27 30 30 31 31 31 31 31 32 32 32 32
32 33 33 33 34 34 34 34 34 34 33 34 35 36 36 36
37 37 37 37 37 38 38 38 39 38 40 39 39 38 39 39
39 40 40 39 39 40 40 40 40 40 41 40 40 40 40 40
41 40 40 40 39 39 39 39 38 38 37 37 36 36 35 35
35 35 35 34 34 33 32 32 32 32 31 31 31 30 30 30
29 29 28 28 28 27 26 27 26 26 26 26 27 28 32 32
33 32 25 19 23 24 32 30 30 29 30 29 28 30 27 27
27 27 22 29 28 30 31 31 31 31 31 32 32 32 33 33
33 34 33 33 34 33 34 34 35 35 35 35 36 36 36 36
37 37 37 37 38 37 38 38 39 39 40 39 38 39 40 39
40 39 40 40 40 39 39 39 40 39 40 40 41 40 41 41
41 40 40 40 39 39 39 38 39 38 37 37 37 36 36 36
36 35 35 35 34 33 33 32 32 32 32 32 31 30 30 30
29 29 29 29 28 27 27 27 27 26 27 27 28 28 33 33
33 32 27 21 25 23 33 31 31 30 30 29 29 31 27 27
27 27 23 31 29 32 32 32 32 32 32 33 33 33 33 32
33 33 33 33 34 34 35 35 35 36 36 36 36 36 37 36
37 38 38 38 38 39 39 39 39 39 41 39 40 39 39 39
40 40 40 40 40 40 40 40 41 41 41 41 41 42 41 39
41 40 40 40 40 39 39 39 39 39 38 38 38 37 37 36
36 35 35 34 34 34 34 33 33 32 32 32 32 31 30 30
30 29 29 29 29 28 28 28 27 27 27 28 29 30 33 33
34 34 27 21 28 21 33 31 31 31 31 30 30 31 28 29
28 28 24 31 29 32 32 33 33 33 33 33 34 34 34 33
34 34 34 35 35 36 36 36 36 37 36 37 37 37 38 37
38 38 37 39 39 38 39 40 40 40 41 40 41 41 41 40
41 41 41 41 41 40 41 41 41 41 40 40 40 40 41 42
41 40 41 40 39 39 40 39 39 38 38 38 38 37 37 36
37 36 36 35 35 35 34 34 33 33 32 32 32 32 31 31
31 30 30 30 30 29 29 28 28 27 28 28 29 30 34 34
34 34 28 23 29 21 33 32 32 31 31 30 30 31 28 29
29 29 25 32 30 32 32 33 33 33 34 33 33 34 35 34
35 35 35 35 36 37 36 37 37 37 37 37 37 38 38 38
38 38 38 39 39 40 39 40 40 40 41 40 41 41 41 41
41 41 41 42 41 42 41 41 42 41 42 42 42 41 41 41
41 41 40 40 40 40 40 39 39 39 38 38 38 38 37 37
36 36 36 35 35 35 34 34 34 33 33 33 32 32 32 32
31 31 30 31 29 29 29 28 28 29 28 28 29 30 35 35
35 34 29 23 30 22 34 33 33 32 32 31 31 33 30 30
30 30 26 32 30 33 33 32 32 34 34 34 35 35 35 36
36 36 36 36 37 37 36 37 38 37 37 37 37 38 39 39
39 39 39 39 40 40 41 41 41 41 41 41 41 41 42 42
41 42 40 39 40 40 41 41 41 42 42 41 42 42 41 41
42 41 41 41 40 40 40 40 39 40 39 39 38 38 38 37
37 37 36 36 35 35 35 35 34 34 34 33 33 33 33 32
32 31 31 31 30 31 30 29 29 29 30 30 31 30 36 36
36 36 29 24 31 23 34 34 34 33 33 32 32 33 31 31
31 30 24 30 24 31 34 34 34 35 36 35 36 36 36 36
36 36 36 37 37 37 37 37 38 38 38 39 38 38 39 40
39 39 40 41 40 41 41 41 41 41 42 42 42 41 40 40
41 41 42 41 41 42 42 40 41 42 41 41 41 42 42 41
42 41 41 40 40 40 40 39 39 39 39 38 38 38 38 38
37 37 37 36 36 36 35 35 34 34 34 33 33 33 33 32
32 32 32 31 31 31 29 29 29 29 30 30 30 31 36 37
37 36 30 24 31 24 33 34 34 33 33 33 32 34 32 31
29 26 21 26 25 29 31 33 34 35 36 36 36 36 37 37
37 37 37 37 37 37 38 38 38 38 38 39 39 39 39 39
39 40 41 41 41 41 42 42 41 40 38 39 40 39 41 42
43 42 42 44 41 42 42 42 42 41 41 42 42 43 42 41
41 41 41 41 40 40 40 40 40 39 39 39 39 38 38 38
38 37 36 36 37 36 36 35 35 35 34 34 33 33 33 32
32 32 32 32 31 31 31 30 30 30 30 30 31 31 36 37
36 36 31 25 32 26 33 35 34 34 33 33 33 34 29 23
14 6 4 4 4 6 13 21 29 34 36 35 37 36 36 37
37 38 37 37 38 38 39 39 39 39 40 40 40 40 40 40
40 40 41 41 41 40 39 40 40 42 42 42 42 42 42 42
42 42 42 44 41 42 42 42 42 42 43 43 43 43 42 42
41 41 41 41 41 40 40 39 40 39 39 38 39 38 38 37
38 37 37 37 37 36 36 35 35 35 34 34 34 34 34 34
33 32 33 32 31 31 31 31 30 30 30 30 31 32 37 36
37 36 32 25 32 27 32 34 35 34 33 32 31 25 9 1
0 0 0 0 0 0 0 1 6 16 26 32 36 36 36 37
37 37 38 38 38 39 38 38 39 39 40 40 39 40 41 40
41 40 41 41 41 42 43 42 43 42 42 42 42 42 42 42
42 42 42 44 41 42 41 41 42 42 43 41 42 42 42 43
41 41 41 40 40 40 40 40 40 40 39 39 39 38 38 38
38 37 37 37 36 36 36 35 35 35 35 34 33 33 34 33
33 33 32 32 32 32 31 30 31 31 30 30 31 32 37 37
36 37 32 25 32 30 31 34 35 35 30 20 11 1 0 0
0 0 0 0 0 0 0 0 0 0 5 13 20 30 36 37
37 37 37 38 39 39 39 40 40 40 40 40 40 39 39 39
40 41 41 42 42 42 42 42 42 42 42 42 43 43 42 42
43 42 43 44 42 42 42 42 41 41 41 42 42 42 42 41
41 41 41 41 41 41 40 40 40 39 39 39 39 39 39 38
39 38 38 37 37 36 36 36 36 35 35 34 35 34 34 33
34 33 33 33 32 32 32 31 31 31 31 31 32 33 37 39
38 39 33 25 33 33 28 34 34 30 18 16 1 0 0 0
0 0 0 0 0 0 0 0 0 0 2 5 5 7 18 30
37 38 38 39 40 40 39 39 40 39 39 39 39 40 41 41
41 42 42 42 43 43 43 43 42 43 43 43 43 42 42 43
43 43 43 44 43 42 43 43 43 43 43 42 43 42 43 42
41 41 41 41 41 41 40 40 40 40 39 39 39 38 38 38
39 38 37 37 36 36 36 36 36 36 36 35 35 34 34 34
34 34 33 33 33 32 32 32 31 31 32 32 33 33 37 38
38 38 33 25 32 35 27 36 33 23 20 6 0 0 0 0
0 0 0 0 0 0 0 0 0 0 2 3 4 5 5 9
26 36 39 40 39 39 39 39 40 40 40 40 40 41 40 41
42 41 43 42 42 42 42 43 43 43 43 43 43 42 44 43
43 42 42 43 42 41 42 42 42 42 43 42 42 43 43 43
41 41 41 40 41 40 40 40 40 40 40 40 39 39 38 38
38 38 38 37 37 36 37 36 36 36 36 35 35 35 35 35
35 34 34 33 33 33 32 31 32 31 31 31 32 33 37 39
39 38 33 24 32 36 26 35 30 24 10 0 0 0 0 0
0 0 0 0 0 0 1 0 0 0 0 2 5 7 5 6
8 23 38 39 38 39 39 40 40 40 41 40 41 41 41 41
42 42 45 43 43 43 43 43 43 43 43 42 43 42 43 42
42 42 42 43 42 42 42 42 42 42 42 42 43 42 43 43
42 41 41 41 41 41 40 41 40 40 40 39 39 39 39 39
38 38 38 38 37 37 37 36 37 36 36 35 35 36 35 34
34 34 34 33 33 32 32 33 32 32 33 32 33 34 38 39
39 38 34 23 32 36 25 32 28 21 3 0 0 0 0 0
0 0 0 0 0 0 0 0 0 0 0 2 6 10 11 8
6 5 20 37 40 40 40 40 40 40 42 41 42 41 42 42
43 42 44 44 43 43 44 43 43 43 43 43 44 43 43 43
43 43 42 43 44 42 43 43 43 43 43 42 43 43 41 43
42 41 41 41 40 40 40 41 41 41 40 41 40 39 40 39
39 39 39 39 38 37 37 37 36 37 37 36 36 36 36 35
35 35 34 34 34 33 33 33 32 33 33 33 33 35 39 39
40 39 35 23 29 33 20 26 21 12 0 0 0 0 0 0
0 0 0 0 0 0 0 0 0 0 0 2 2 1 5 5
4 6 4 16 37 40 41 40 41 41 41 42 42 42 43 43
44 43 43 44 43 43 43 43 43 43 43 43 43 43 43 43
43 43 43 44 44 43 44 44 43 43 43 41 42 40 41 41
42 42 41 41 41 40 40 40 40 40 40 39 39 40 39 39
39 39 39 38 38 38 38 37 38 37 37 36 36 36 36 36
35 35 34 34 34 33 33 33 32 32 33 33 34 34 39 40
40 39 35 23 20 13 6 10 11 2 0 0 0 0 0 0
0 0 0 0 0 0 0 0 0 0 1 4 5 4 1 1
2 8 5 3 17 38 41 41 41 41 42 42 42 42 43 43
43 44 44 43 43 43 44 44 43 44 44 43 44 43 43 44
43 43 44 44 43 41 41 40 41 41 42 44 43 44 42 41
42 41 42 41 41 41 41 41 41 41 41 41 40 40 40 40
40 40 39 39 38 38 38 38 38 37 37 37 36 37 36 36
36 36 35 34 35 34 34 34 34 33 33 33 34 35 39 40
39 36 25 8 3 2 0 0 0 0 0 0 0 0 0 0
0 0 0 0 0 0 0 0 0 1 1 4 8 7 5 3
2 4 2 1 2 22 40 42 42 43 43 43 44 44 44 44
43 44 44 44 44 44 44 45 44 45 45 43 44 45 44 44
44 42 42 42 41 41 44 44 43 42 40 43 44 45 42 43
42 42 42 42 41 41 41 41 40 41 41 41 41 40 40 40
39 40 39 39 39 38 38 38 38 38 37 37 36 37 37 36
36 35 36 35 35 34 34 34 33 34 34 34 35 36 39 40
35 22 8 5 0 0 0 3 1 1 0 0 0 0 0 0
0 0 0 0 0 0 0 0 0 0 0 1 4 4 7 8
5 5 4 0 0 3 25 40 42 42 42 42 43 43 43 44
44 44 45 44 44 45 44 45 45 45 45 44 43 41 41 41
42 44 44 44 43 43 44 43 43 43 43 43 42 44 42 42
22 42 42 41 42 42 42 42 42 42 42 41 41 41 40 40
40 40 39 40 39 39 39 38 38 38 37 37 36 37 37 37
36 36 35 35 35 35 35 35 35 34 34 35 36 36 40 38
24 17 14 0 0 1 6 6 2 3 0 0 0 0 0 0
0 0 0 0 0 0 0 0 1 0 2 2 2 5 3 6
6 5 4 0 0 0 5 31 43 43 43 44 44 44 45 45
45 44 45 45 45 44 44 44 44 44 43 44 43 45 45 44
44 44 43 44 43 44 43 43 44 44 44 44 44 43 42 43
21 41 43 42 42 42 42 41 41 40 42 42 41 40 41 41
41 40 40 40 39 39 39 38 38 38 38 37 38 37 37 37
36 36 36 36 36 35 35 35 34 35 35 34 35 36 39 38
25 15 0 0 2 3 2 4 5 2 0 0 0 0 1 2
0 0 0 0 0 0 0 0 4 5 2 0 1 2 5 5
7 5 2 0 0 0 0 9 38 44 43 44 44 44 44 45
45 45 44 44 44 43 44 43 45 44 44 45 44 43 44 44
45 44 44 44 43 44 43 44 44 44 44 44 43 44 43 43
21 42 42 42 42 43 42 40 39 41 42 42 42 41 41 41
40 40 40 40 40 39 39 39 39 39 38 40 42 40 39 38
37 36 37 36 36 36 36 35 35 35 35 35 35 37 40 32
15 1 0 1 3 0 3 4 2 0 0 0 5 20 35 28
14 3 3 1 0 0 0 0 2 6 9 3 3 4 4 5
5 4 0 0 0 0 0 0 22 43 44 44 45 44 44 44
44 44 44 44 44 44 45 44 44 44 44 46 44 44 44 44
44 44 45 44 45 43 44 44 43 44 43 43 43 44 43 42
21 42 43 43 43 42 42 41 52 51 48 47 44 43 42 40
41 41 41 41 40 40 40 39 39 39 38 51 55 52 47 43
41 38 37 37 36 36 37 36 35 36 36 36 37 37 39 24
3 0 0 0 0 0 3 2 0 0 1 12 35 58 70 59
47 20 10 7 4 1 1 1 3 5 5 6 6 4 6 6
3 4 2 1 0 0 0 0 5 37 44 44 45 44 45 46
44 43 45 45 45 44 45 44 45 44 44 46 45 44 45 45
44 44 45 44 45 44 44 43 44 44 44 44 44 44 44 43
24 43 44 43 43 43 43 43 57 56 54 53 49 47 46 44
42 42 41 41 41 40 39 39 40 39 39 54 53 51 48 49
49 45 39 37 36 37 37 36 36 36 36 36 36 36 36 12
0 0 0 0 0 1 4 1 0 4 19 40 68 83 88 82
70 49 34 19 15 12 8 7 5 6 7 4 6 7 4 5
3 2 4 3 1 0 0 0 2 30 45 44 42 45 45 45
44 44 44 44 44 44 44 45 45 44 44 45 46 45 45 45
45 44 44 44 45 44 43 44 44 44 45 43 43 43 44 44
25 46 45 45 44 43 42 43 57 55 55 50 49 50 51 55
48 48 46 43 41 40 39 39 40 40 40 51 52 50 47 49
49 48 41 37 37 37 37 36 36 36 36 36 37 37 28 2
0 0 0 0 2 4 6 2 5 25 51 73 84 90 96 104
98 79 62 53 35 28 28 20 13 11 9 7 7 7 5 4
7 5 2 3 1 0 0 0 1 17 44 44 45 45 44 45
45 45 45 45 45 44 44 45 44 44 44 45 44 44 44 45
44 44 43 44 44 43 44 43 43 44 45 43 43 43 44 44
26 49 49 47 47 46 45 43 52 50 53 51 51 54 55 56
49 48 50 52 48 45 43 42 40 39 39 41 24 31 35 45
48 49 42 38 38 37 37 37 36 36 37 36 36 35 14 0
0 0 0 0 3 6 6 6 21 59 81 89 96 101 103 108
113 108 93 84 69 55 50 48 34 26 19 15 11 11 10 3
7 8 3 0 3 0 0 0 0 4 36 44 44 44 44 44
44 45 44 44 45 44 43 44 44 44 44 44 45 44 44 44
43 44 43 43 44 44 43 43 43 44 43 43 44 44 44 44
25 48 48 38 43 48 50 51 36 0 10 30 44 50 54 56
49 9 13 24 34 46 44 45 50 46 42 39 19 15 16 11
12 17 41 37 38 37 37 36 36 37 37 36 36 30 5 0
0 0 0 1 2 4 9 12 45 79 95 100 106 109 114 118
117 119 114 109 103 93 82 78 66 53 40 33 17 11 12 7
4 5 4 2 2 2 0 0 0 2 31 44 43 44 44 44
44 44 44 44 44 44 44 44 43 43 43 43 44 44 43 42
43 43 43 43 44 43 43 43 43 43 44 43 44 43 43 44
25 47 49 45 41 38 52 55 38 0 0 7 17 19 17 26
48 3 0 0 0 1 9 18 29 38 44 39 16 4 13 14
6 0 40 37 37 37 36 36 36 36 36 36 36 29 3 0
0 0 0 1 0 5 12 26 69 91 101 107 112 116 123 131
130 126 125 124 123 117 110 108 98 84 78 59 41 20 14 13
7 5 3 3 1 3 0 0 0 0 19 44 43 43 43 43
43 43 43 43 43 43 43 43 43 42 43 43 44 43 42 43
42 42 42 42 42 42 42 42 42 43 42 43 44 42 39 39
18 14 25 36 48 51 54 56 41 0 0 4 10 15 17 18
48 3 0 0 1 0 0 0 0 0 26 40 12 1 4 5
5 0 41 37 37 37 36 37 36 37 36 36 37 27 1 0
1 0 0 0 0 5 11 46 83 98 104 109 118 121 125 133
137 137 131 129 131 129 125 121 121 115 110 98 73 47 23 18
11 9 6 4 1 1 0 0 0 0 4 39 44 44 43 43
43 43 43 43 43 42 42 42 43 42 42 43 43 43 42 42
42 42 43 42 43 43 43 43 43 42 43 42 42 43 43 43
15 0 0 0 1 12 24 36 40 0 0 2 6 3 8 13
48 9 1 0 0 0 0 0 0 0 27 39 6 0 0 4
3 0 43 38 37 37 37 37 37 36 37 36 36 26 0 0
1 0 0 0 0 5 15 64 86 101 108 114 121 122 126 132
136 135 135 133 132 131 132 130 131 126 127 118 105 89 50 29
16 14 10 8 1 1 0 0 0 0 0 24 42 43 43 42
43 43 44 44 44 43 43 43 43 43 43 44 44 44 43 42
43 43 42 42 42 42 43 43 43 43 43 43 42 42 42 43
15 0 0 0 0 0 0 0 26 0 0 0 0 0 2 11
45 3 0 0 0 1 0 0 0 0 25 34 0 0 0 0
4 1 45 39 38 37 38 37 37 37 38 37 38 24 0 0
1 0 1 0 1 4 26 73 88 100 111 119 122 122 123 128
131 130 131 133 133 135 137 137 132 131 127 125 116 112 91 56
32 20 13 11 8 2 0 0 0 0 0 12 40 43 44 44
45 44 44 44 44 44 44 43 45 44 44 44 43 42 44 44
44 44 44 44 43 43 44 44 44 43 43 43 43 42 42 43
15 0 0 0 0 0 0 0 22 0 0 0 0 0 0 15
48 5 0 0 0 7 14 2 0 0 23 34 1 0 0 0
2 1 46 38 38 38 38 38 38 37 37 38 37 18 0 0
0 0 1 0 4 9 37 77 90 101 111 119 120 121 122 125
128 127 129 132 134 136 137 135 130 128 126 126 122 119 112 95
69 38 20 13 9 8 2 0 0 0 0 6 37 44 44 44
44 44 44 45 45 44 44 43 43 43 43 42 45 44 44 44
43 44 43 43 43 44 44 44 45 44 44 43 43 43 44 44
15 0 0 0 0 0 0 0 19 0 0 0 0 0 0 14
52 5 0 0 0 10 18 14 10 1 21 35 0 0 0 0
0 0 43 39 39 38 39 38 38 37 38 38 37 24 0 1
0 0 0 0 3 9 43 78 91 101 111 115 117 119 121 125
130 131 132 133 137 134 134 133 129 126 126 124 123 120 119 114
103 72 34 16 11 7 5 1 0 0 0 1 29 44 44 45
45 45 45 43 44 44 44 44 44 44 43 44 45 44 44 44
44 43 43 41 44 45 44 44 44 44 45 44 45 44 44 44
15 0 0 0 12 11 0 0 17 0 4 0 0 0 0 10
53 6 0 0 2 13 19 18 17 6 19 37 0 0 0 0
0 0 42 41 39 39 39 39 38 38 38 38 38 27 0 0
0 0 0 0 3 19 50 84 90 100 107 111 114 119 123 129
134 135 137 137 138 137 136 133 131 131 128 125 123 121 116 113
111 98 50 25 11 3 3 1 0 0 0 2 17 42 44 44
44 45 45 45 44 45 44 43 44 44 44 44 44 44 44 44
44 43 44 44 43 45 45 45 45 45 45 45 45 44 41 39
15 0 13 8 4 4 0 0 15 1 1 0 0 0 4 12
53 7 0 1 1 12 18 16 17 7 17 40 0 0 0 0
0 0 38 42 40 40 39 39 38 38 38 39 39 27 0 0
0 0 0 0 4 25 59 84 89 96 102 108 113 121 127 135
140 141 143 143 142 142 140 138 138 139 138 132 128 124 117 111
106 106 76 37 13 7 0 2 0 0 1 4 11 43 44 44
45 45 45 47 45 45 45 45 44 44 44 44 45 45 44 44
45 43 44 44 44 46 46 44 44 43 45 44 40 39 40 39
15 5 10 0 5 5 0 0 16 1 0 0 0 0 5 20
55 10 0 5 3 1 8 16 17 5 15 49 35 24 14 6
1 1 36 42 39 39 39 39 39 39 39 39 40 28 0 0
0 0 0 0 7 31 70 84 87 89 93 100 111 121 131 139
144 145 146 146 146 146 145 145 145 145 145 142 138 132 123 113
103 99 91 51 22 8 1 1 0 0 0 1 9 42 45 45
45 46 45 47 44 45 46 46 45 45 45 45 44 44 44 44
44 43 41 41 44 44 41 42 41 39 38 34 30 26 22 19
15 4 2 0 0 0 2 0 26 14 7 3 7 0 0 15
60 43 33 23 16 5 0 2 10 2 12 51 53 49 51 51
52 52 56 42 40 39 39 39 39 39 39 39 40 30 0 0
0 0 0 0 9 47 77 86 79 74 70 83 86 89 93 102
125 141 145 146 147 147 146 146 146 146 145 142 135 124 115 110
94 82 85 71 42 15 2 0 0 0 0 0 6 40 45 45
45 46 45 46 45 45 45 45 45 45 45 43 42 41 39 43
42 41 42 41 39 34 30 27 22 20 18 18 19 20 23 17
15 0 0 0 0 0 0 0 37 60 51 43 41 36 22 19
64 38 30 36 41 44 42 35 29 24 27 55 52 50 51 51
57 59 60 43 40 40 39 39 39 39 39 39 40 31 0 0
0 0 0 0 19 61 78 79 57 54 54 55 36 30 29 30
53 87 119 134 146 147 146 146 138 124 107 76 59 44 50 71
67 58 59 74 62 38 10 0 0 0 0 0 1 37 47 46
47 46 45 46 45 44 41 41 41 41 43 43 44 42 39 36
32 28 24 22 21 21 21 22 23 25 27 28 27 28 29 25
16 0 0 0 0 0 0 0 39 63 45 54 56 60 61 58
64 29 17 19 19 20 20 21 26 34 42 43 37 44 46 49
56 59 60 45 39 39 39 39 39 39 39 40 41 33 0 0
0 0 0 0 38 67 75 55 34 54 75 77 63 64 60 48
60 67 91 115 139 146 144 136 118 100 81 55 46 43 36 32
40 44 37 47 68 64 31 2 0 0 0 0 0 27 46 45
44 45 45 45 44 45 46 46 38 36 33 29 25 23 22 23
23 25 26 27 28 28 29 30 30 31 32 28 26 34 35 34
22 22 14 6 0 0 0 0 40 55 46 56 59 63 65 53
44 28 18 19 18 17 17 15 15 14 13 12 14 19 23 35
39 34 34 38 40 40 39 39 39 38 39 39 41 32 0 0
0 0 0 3 54 66 64 47 79 134 102 74 69 82 91 95
89 87 108 113 133 140 140 133 115 105 88 74 76 73 65 65
74 107 78 33 47 71 56 6 0 0 0 0 0 27 47 46
45 42 40 37 32 29 33 47 28 20 23 25 27 27 28 29
29 31 31 33 33 34 35 36 35 36 37 37 31 28 38 38
26 51 57 56 49 38 29 20 46 41 45 55 57 60 63 57
48 33 19 20 17 16 15 14 13 13 13 13 14 14 13 32
39 38 37 37 40 40 40 39 39 39 39 39 40 34 1 0
0 0 0 12 62 65 62 69 82 77 91 96 103 113 115 118
116 112 132 126 133 132 134 134 133 134 108 109 109 103 103 95
81 96 114 60 40 62 67 19 0 0 0 0 0 22 33 28
26 24 25 25 26 27 26 42 27 26 29 32 33 33 34 34
36 36 37 37 38 37 37 39 39 37 37 38 39 33 27 37
27 51 58 57 55 55 56 58 59 27 29 43 50 56 60 57
51 37 20 19 16 13 13 13 14 14 14 14 15 16 17 35
18 8 38 39 39 39 37 39 39 39 39 39 40 34 2 0
0 0 0 22 64 64 76 86 73 92 98 108 120 113 114 132
128 118 117 113 138 139 141 137 124 119 113 112 107 106 110 117
105 91 63 71 62 65 70 38 0 0 0 0 0 19 26 28
29 30 30 32 33 33 31 41 28 31 34 36 38 38 38 38
40 40 40 40 39 39 39 39 40 40 38 40 41 41 32 25
25 51 59 58 56 57 57 58 58 10 0 0 3 9 20 24
36 40 19 17 13 2 2 1 8 18 18 16 14 20 21 36
44 40 47 49 46 42 6 20 40 39 39 39 40 33 2 0
0 0 0 12 18 27 74 76 82 98 89 101 104 97 94 102
110 118 120 107 106 120 129 99 110 115 109 120 110 99 105 120
96 103 84 49 78 73 71 51 1 0 0 0 0 22 33 34
36 36 36 38 39 38 36 44 33 34 39 40 40 40 40 41
41 41 41 42 43 42 42 40 39 40 41 40 42 42 42 33
27 42 47 47 50 52 55 58 55 7 0 0 0 0 4 18
36 41 18 15 12 0 0 0 1 7 9 2 3 10 10 31
49 42 39 42 45 47 43 39 39 39 39 39 36 14 1 0
0 0 1 45 65 49 51 68 56 73 72 57 46 31 30 63
97 108 112 101 109 120 121 106 107 107 100 99 68 57 60 77
80 100 97 52 73 86 26 15 0 0 0 0 0 27 40 40
42 41 42 43 42 41 33 22 18 36 41 42 42 42 43 42
43 43 43 44 43 43 44 43 42 40 41 40 42 43 43 43
29 31 32 36 41 39 40 52 51 4 0 0 0 4 1 2
38 43 17 16 12 1 0 4 3 0 1 0 0 1 3 28
50 39 32 29 29 34 38 41 40 40 40 40 33 13 6 2
0 0 7 53 72 73 87 84 88 70 52 68 95 91 92 95
95 107 116 102 119 146 141 105 110 111 97 79 63 35 38 44
47 80 76 41 51 30 45 53 6 0 0 0 0 33 43 43
43 43 43 43 43 42 26 7 6 32 42 44 45 44 43 43
44 44 44 44 44 44 43 43 43 43 41 41 39 42 44 43
27 24 25 28 39 37 37 53 52 3 0 0 0 0 2 0
32 38 11 7 0 0 0 12 11 4 3 0 0 0 0 27
51 41 22 36 42 34 36 39 40 40 40 41 39 27 21 19
2 0 10 58 70 75 90 89 102 106 85 83 99 103 102 94
99 102 113 104 113 145 139 92 102 102 97 92 92 98 99 91
54 56 65 65 55 75 77 65 12 0 0 0 0 33 44 45
45 46 43 36 28 39 23 16 6 28 42 43 45 45 44 45
45 44 44 44 44 44 44 44 44 42 42 40 39 40 42 43
25 28 34 38 41 41 44 52 50 3 0 0 0 0 0 0
37 31 0 0 0 0 1 4 15 13 3 1 0 0 0 26
51 42 14 34 32 29 34 38 40 39 40 40 40 36 30 39
12 0 13 60 71 77 90 94 104 109 105 109 102 101 104 104
107 106 105 85 107 141 140 90 106 99 99 89 85 90 93 90
80 97 108 77 70 95 78 63 13 0 0 0 2 38 44 45
46 28 2 0 1 33 20 4 2 27 42 44 44 45 44 44
44 43 43 44 44 44 44 44 42 43 43 42 38 38 40 39
26 1 3 8 15 21 30 37 44 3 0 0 0 0 0 0
38 32 0 0 0 0 1 4 15 21 14 8 0 2 0 26
52 44 17 23 23 20 34 38 40 40 40 40 41 39 42 49
2 1 16 63 68 78 94 99 110 116 117 120 122 122 120 118
122 123 96 85 110 138 142 95 86 112 113 103 104 108 106 103
102 109 114 84 86 96 78 60 9 0 0 0 10 44 45 46
45 35 25 33 39 42 28 1 3 25 42 44 44 44 43 44
44 44 43 43 44 43 43 44 43 43 43 43 41 37 36 37
30 1 0 0 0 0 0 0 21 4 0 0 0 0 0 2
42 25 0 0 0 0 2 18 18 23 17 13 0 0 1 25
52 45 31 30 28 25 32 37 41 40 41 41 41 39 41 36
1 1 18 62 69 76 94 100 118 123 125 128 129 128 129 128
130 130 94 106 114 132 141 111 91 116 124 120 116 116 120 120
117 118 124 100 94 94 76 57 7 0 0 0 17 45 46 45
46 46 44 44 42 41 30 3 4 26 42 43 44 44 44 44
44 43 44 43 43 44 43 43 42 41 43 42 42 41 36 36
28 3 0 0 1 0 0 0 19 4 0 0 9 3 1 0
38 24 0 0 0 0 1 22 23 24 9 6 0 2 4 22
51 48 34 25 5 5 28 36 41 41 40 41 41 39 35 51
6 3 22 60 69 76 94 105 120 132 134 133 134 135 136 133
132 111 98 113 118 129 137 120 96 105 127 126 128 127 129 131
130 127 130 103 102 92 76 55 7 1 5 13 28 45 46 46
46 45 45 43 43 42 37 7 1 31 41 44 44 45 44 44
44 43 44 43 43 44 43 43 42 42 43 43 42 41 37 36
30 2 0 1 5 1 0 0 18 4 0 2 23 15 5 0
40 20 0 0 0 0 1 3 15 14 0 0 2 3 0 17
50 48 34 21 12 10 24 35 40 40 41 41 41 37 35 63
21 20 27 57 70 79 94 109 114 133 143 143 143 144 144 142
135 108 113 117 122 133 136 126 117 102 117 134 133 134 135 136
137 133 130 107 105 90 74 51 8 4 18 31 42 46 46 45
45 44 44 44 42 40 36 19 12 36 42 44 44 45 43 44
43 42 43 43 43 43 43 43 43 42 42 43 42 42 37 34
27 2 0 3 18 8 1 0 17 4 0 12 22 16 8 0
38 18 2 3 0 0 2 0 10 16 0 0 0 0 0 13
50 49 17 14 0 0 21 34 40 40 40 41 41 34 39 62
67 47 35 54 70 85 103 115 119 115 122 138 144 142 133 129
129 122 114 118 129 138 139 131 122 120 109 136 144 141 142 140
138 131 129 119 106 90 73 50 16 8 37 43 45 45 45 45
45 45 44 44 42 40 36 34 33 39 44 44 45 45 43 43
43 42 43 43 43 43 43 42 42 42 41 41 41 40 37 32
27 3 0 14 29 12 9 0 18 29 18 26 25 23 18 3
40 18 2 0 1 0 0 0 6 20 0 0 0 0 0 7
50 48 12 15 3 1 30 33 41 41 41 41 41 34 42 62
86 76 45 48 70 89 107 123 136 143 135 120 115 116 124 134
129 107 98 116 134 142 141 132 121 112 126 128 125 120 127 127
121 122 134 127 111 93 75 50 41 54 58 45 45 45 45 45
45 45 45 45 42 41 37 37 38 43 44 44 44 45 44 44
44 44 43 43 44 44 44 43 42 42 42 42 40 39 35 31
25 4 0 7 12 6 4 0 17 50 48 54 54 52 54 56
61 20 0 2 0 0 0 0 9 21 1 2 4 0 0 3
48 44 11 8 3 5 31 32 40 40 41 41 40 35 42 58
94 85 50 44 68 88 108 123 136 146 147 147 147 145 137 124
107 107 103 117 139 145 144 136 121 109 114 133 141 141 138 138
144 146 143 129 111 92 74 52 75 92 59 44 45 44 44 44
44 45 44 44 42 41 39 38 42 44 44 44 44 45 44 44
44 43 43 43 43 42 42 42 42 42 41 39 40 40 36 31
27 8 5 2 2 0 0 0 15 51 49 54 53 51 57 62
63 38 20 23 16 9 5 5 10 25 5 5 2 1 0 3
31 44 8 4 2 6 14 31 40 41 41 42 38 36 42 53
92 92 51 39 62 85 105 118 131 142 147 147 145 137 124 108
105 118 115 119 143 146 145 140 123 119 119 115 127 141 145 145
145 145 143 127 104 88 71 52 95 99 52 44 46 45 46 46
46 45 44 43 43 42 41 41 43 44 45 44 44 43 44 44
44 43 43 43 42 43 43 43 41 41 40 37 37 37 34 30
28 26 8 1 3 0 0 0 14 49 47 52 51 51 61 65
65 50 42 43 41 39 39 40 37 34 30 27 24 24 23 27
38 48 21 20 21 15 7 24 41 40 40 41 36 39 44 48
84 88 66 36 57 78 99 112 121 132 140 142 134 120 108 87
103 121 124 119 132 137 136 132 123 129 127 109 108 122 138 145
146 145 141 124 104 85 68 55 107 94 47 45 46 45 45 45
47 44 44 44 43 42 42 42 44 43 42 42 42 43 43 44
44 42 42 42 42 41 42 42 41 41 40 39 37 37 35 30
27 21 2 0 2 0 0 0 14 47 41 46 45 45 47 42
42 43 43 44 45 42 41 43 44 42 41 37 34 32 31 32
39 53 39 37 31 24 23 24 40 40 41 40 34 40 43 47
60 83 83 39 51 73 90 102 112 119 127 133 122 110 111 92
86 87 91 99 113 121 120 112 108 112 114 98 105 109 119 137
145 144 135 119 99 81 64 59 103 81 45 45 46 45 45 44
45 44 44 44 44 42 43 44 44 43 43 45 45 44 45 44
44 43 44 43 42 41 43 40 41 40 39 38 38 37 34 29
30 15 0 0 1 0 0 0 14 51 41 43 43 44 44 42
40 43 45 46 48 48 46 46 45 44 43 47 51 47 45 42
45 57 55 55 54 52 51 41 40 41 40 40 36 38 43 48
49 77 91 51 47 70 86 93 106 113 122 122 113 113 118 104
93 70 62 75 83 97 95 77 56 53 80 110 123 115 95 119
134 136 128 112 95 77 59 72 91 55 45 46 45 44 45 46
45 45 44 44 45 43 45 45 45 45 44 45 45 45 44 44
44 44 43 42 42 41 42 41 40 40 39 38 38 36 34 28
24 34 36 32 24 22 18 14 20 55 44 44 44 43 44 45
46 50 47 48 51 55 55 48 42 44 43 52 57 54 51 50
50 43 37 34 34 36 38 37 39 40 40 41 38 36 44 47
47 61 88 54 41 67 84 93 102 108 116 115 107 117 118 112
112 113 107 104 95 90 99 112 116 117 121 125 119 120 101 94
118 124 119 109 87 75 55 81 74 45 45 45 44 45 46 46
45 45 45 44 45 44 44 45 45 44 44 44 44 44 44 43
42 42 43 42 42 42 42 39 39 38 38 37 36 36 34 27
26 44 53 57 51 53 59 61 59 58 47 47 47 46 47 50
53 57 49 49 51 57 56 48 44 38 40 53 57 54 50 51
50 47 42 33 32 31 30 33 40 40 41 40 34 38 43 48
47 43 49 24 35 64 79 97 104 112 119 113 109 116 112 110
115 120 123 129 136 140 139 140 129 118 118 119 117 124 118 91
103 116 114 100 79 71 56 85 55 44 45 46 46 45 45 44
45 44 44 44 44 44 45 45 44 45 44 43 44 44 44 43
42 43 42 41 41 40 40 39 38 38 38 36 35 33 32 25
26 45 62 61 61 61 61 61 62 61 45 42 40 42 41 47
54 59 50 50 50 48 48 51 46 42 35 44 47 45 46 51
52 49 46 38 37 37 37 38 39 40 40 40 33 41 43 47
47 41 38 27 25 60 74 93 108 118 125 112 115 112 107 110
116 120 123 129 134 136 136 139 131 123 123 121 119 117 114 105
97 117 115 98 78 72 44 56 45 45 45 44 44 44 44 44
43 43 43 43 44 44 45 44 44 43 44 44 44 44 44 43
42 43 41 42 41 40 40 39 37 37 35 35 33 33 31 24
25 32 42 44 46 50 53 55 58 60 14 10 8 3 6 9
17 47 53 49 27 15 23 26 26 29 41 41 14 4 1 7
16 20 39 43 39 40 44 45 48 47 42 40 33 43 44 47
47 43 38 36 18 52 75 88 110 116 130 124 123 116 102 98
94 95 101 111 115 121 128 120 111 107 108 111 113 116 119 112
106 117 111 92 80 68 37 43 45 45 45 45 45 45 45 44
44 43 43 40 42 41 44 44 44 44 44 44 43 44 43 43
43 42 41 40 40 40 41 39 37 37 36 34 33 33 31 25
23 28 34 33 33 33 32 32 32 39 11 0 0 0 0 0
0 36 52 40 4 0 1 4 12 19 44 43 11 0 0 0
7 17 36 29 30 35 39 42 47 51 43 39 33 42 44 47
48 44 37 37 12 40 72 80 103 116 133 139 126 105 66 42
70 84 87 96 104 97 101 101 89 83 69 44 66 98 116 120
124 121 112 88 85 60 41 44 43 43 44 45 45 45 37 22
21 17 15 12 14 33 46 45 45 45 44 44 44 44 44 42
42 42 41 41 40 40 41 39 38 36 35 34 33 32 31 25
24 34 42 42 41 41 40 39 39 42 14 9 1 0 0 0
14 41 51 21 0 0 0 0 1 20 48 44 13 0 0 0
2 15 35 7 0 2 2 1 9 51 45 39 35 43 44 46
47 45 38 36 12 27 61 77 94 112 128 147 134 116 96 72
121 126 138 143 146 143 145 144 142 137 118 48 42 100 122 136
139 124 109 88 87 40 16 13 16 20 40 45 45 45 35 11
12 12 12 11 12 34 46 45 46 45 45 44 44 44 42 42
42 42 41 41 40 39 39 38 36 36 35 33 32 31 30 24
23 34 42 43 44 44 45 46 47 46 16 5 1 0 0 0
16 40 49 11 0 0 0 1 0 11 48 43 14 0 0 0
1 12 35 9 2 19 14 0 4 51 46 38 37 43 44 47
47 46 38 38 14 15 46 70 83 104 118 145 144 127 111 96
86 93 105 117 126 131 130 130 126 113 100 86 102 122 132 145
140 125 101 95 74 22 8 8 7 7 35 44 44 44 35 11
11 11 13 12 13 35 47 46 46 45 45 45 45 44 43 42
43 42 41 41 41 40 39 38 37 36 34 33 31 31 29 24
24 35 43 45 45 44 45 46 48 48 16 4 2 0 1 8
4 29 48 7 0 0 0 1 0 12 48 42 15 0 0 0
0 9 36 11 2 10 12 1 3 49 46 38 39 44 45 48
47 46 41 36 17 7 35 59 76 92 105 136 147 135 116 101
89 92 103 113 114 112 116 114 101 92 86 96 113 127 141 146
135 117 96 92 52 11 8 8 7 8 33 45 45 45 31 12
12 13 12 11 12 32 45 46 46 46 45 45 45 44 44 43
43 42 42 41 40 40 37 39 37 35 34 32 31 31 30 25
31 32 34 34 36 30 17 24 38 53 19 0 0 0 0 10
5 25 47 4 0 0 0 0 0 11 48 39 14 0 0 0
1 1 33 14 3 7 6 0 2 48 47 36 40 43 44 48
47 47 43 37 24 5 27 46 67 81 94 120 144 138 118 105
97 103 111 120 123 120 129 127 110 103 101 109 119 135 145 143
123 103 97 76 32 9 8 8 7 7 30 45 45 45 33 11
11 11 13 12 12 27 48 47 46 45 45 44 44 43 42 41
41 41 41 40 39 39 39 37 37 35 34 33 31 30 29 25
29 29 29 28 29 23 0 2 20 56 31 11 0 0 2 7
3 21 46 2 0 0 0 0 0 12 49 39 16 1 0 0
0 0 32 18 4 9 10 3 2 47 47 35 41 44 45 48
47 46 45 37 31 15 26 35 55 70 84 102 136 137 120 107
102 112 124 131 129 126 137 139 129 119 115 116 126 137 142 130
109 98 90 52 18 10 7 8 7 8 32 44 44 44 35 12
13 13 14 14 14 21 43 42 43 42 43 43 43 43 43 42
42 42 41 40 40 39 39 37 35 34 32 31 30 29 28 23
27 28 28 27 28 24 0 0 15 54 26 5 0 0 1 9
5 20 46 2 0 0 0 0 0 3 48 39 21 1 0 0
0 0 28 23 0 1 1 0 1 44 45 34 41 43 44 48
47 46 46 40 31 32 35 31 43 64 76 86 120 129 124 110
111 114 128 135 134 137 140 143 135 124 120 121 129 137 136 115
100 93 69 32 13 10 7 8 6 7 30 44 43 43 39 23
23 22 22 23 23 41 41 45 46 46 44 44 44 43 43 42
41 42 43 40 39 38 37 36 34 33 32 30 29 28 28 23
19 20 21 23 27 24 1 0 10 50 17 0 0 0 0 0
0 19 48 2 0 1 0 0 0 2 48 38 17 0 0 0
0 0 23 31 0 1 1 0 1 42 44 35 41 43 44 48
47 45 44 40 28 34 40 36 33 53 71 77 103 124 126 115
116 118 128 135 134 137 143 144 136 128 124 123 129 136 126 105
95 81 47 16 10 8 7 8 7 7 28 44 45 44 39 14
14 14 9 4 3 24 7 5 14 45 45 44 45 44 43 42
41 40 41 40 39 38 37 35 34 33 31 30 28 27 27 23
0 0 4 18 26 25 2 0 8 43 14 0 0 0 0 3
0 17 51 4 0 0 0 0 0 1 46 39 19 0 0 0
0 0 19 37 0 0 0 0 3 41 42 34 42 42 44 47
47 41 40 39 27 33 43 41 35 40 64 75 87 117 124 122
119 121 125 134 137 137 139 139 136 131 126 125 130 133 115 97
89 63 34 8 6 6 7 8 6 6 27 43 45 44 40 13
13 12 11 4 8 25 38 21 7 45 43 43 43 43 43 42
41 41 41 39 39 38 36 35 34 33 31 29 28 27 26 23
0 0 7 25 25 25 4 0 5 40 16 1 0 0 0 14
10 16 52 19 9 9 12 11 10 12 46 41 38 38 37 36
38 41 48 43 4 3 2 2 3 39 40 33 40 42 44 47
42 41 44 42 29 32 43 45 44 35 51 70 77 104 119 125
123 122 127 136 138 137 143 141 133 131 127 127 129 124 104 92
73 45 33 2 1 7 7 8 7 6 26 44 45 44 40 14
11 13 13 7 3 5 12 8 5 43 43 44 43 43 43 42
42 40 40 40 39 37 37 35 34 31 30 28 27 27 26 24
0 0 5 26 25 24 7 0 0 35 38 40 35 35 44 53
52 49 47 58 58 53 54 56 57 56 58 44 38 47 50 52
56 62 64 57 40 40 39 39 38 41 39 34 39 41 44 45
39 45 44 42 31 31 44 49 51 43 38 59 70 85 110 123
127 121 123 138 141 137 145 142 135 133 130 129 126 110 93 81
54 45 36 7 11 13 6 7 7 5 24 42 44 43 41 14
11 11 11 6 12 14 8 2 3 42 44 44 43 42 43 41
41 40 39 40 39 38 36 34 33 31 30 29 27 26 26 23
0 0 3 26 24 24 8 0 0 30 42 45 39 42 51 57
49 44 40 55 59 56 55 53 59 60 60 49 34 45 49 51
58 64 65 60 37 37 37 37 38 39 38 36 34 40 42 39
44 45 43 43 31 31 44 51 58 53 39 44 63 70 97 115
126 122 129 141 143 143 146 143 136 130 124 125 117 95 81 61
47 59 36 3 2 7 7 8 7 4 22 42 44 43 40 14
9 10 7 4 4 5 3 1 3 39 21 9 16 40 43 41
41 39 39 39 37 37 35 34 33 31 30 28 26 26 26 24
0 0 2 27 25 23 9 0 0 27 41 39 35 42 49 57
53 44 38 39 47 47 48 46 47 45 46 45 32 32 38 41
43 40 38 40 38 38 39 39 39 38 39 37 36 35 35 41
45 44 43 43 31 35 43 53 62 62 50 38 49 62 79 103
117 123 132 141 142 145 147 145 139 125 119 117 102 78 63 47
61 66 34 1 0 7 7 8 8 5 22 42 43 44 40 14
10 10 3 38 39 1 0 0 0 11 30 41 20 19 43 40
40 40 39 38 38 37 35 33 32 30 30 28 26 26 26 24
0 0 1 27 25 22 11 0 0 25 35 26 30 29 36 53
53 46 41 32 29 29 30 30 29 30 31 35 35 37 39 41
40 37 33 36 38 39 39 39 39 39 39 38 39 40 42 45
45 44 43 38 22 31 40 54 66 67 63 47 39 51 61 86
108 118 126 137 141 141 139 136 128 119 114 104 81 63 48 61
75 71 34 5 5 7 7 7 8 5 20 42 42 44 40 13
10 10 20 63 70 14 0 1 17 42 43 43 40 9 42 40
40 39 39 39 37 36 35 33 31 31 29 27 26 26 26 24
0 0 0 25 25 22 13 0 5 27 35 11 15 19 26 34
37 35 42 36 31 31 33 40 40 39 38 43 43 44 49 50
48 41 37 36 38 40 39 39 39 38 39 38 39 40 43 45
46 44 37 35 34 36 32 52 68 71 72 62 47 40 49 62
84 99 109 119 126 125 117 116 109 105 99 79 62 49 60 77
82 75 32 6 7 7 7 7 9 5 19 42 42 44 41 16
9 11 17 29 39 16 0 0 26 44 43 43 42 10 40 41
41 40 40 38 37 35 33 32 31 30 30 28 27 27 26 25
0 0 0 23 25 21 18 15 25 35 34 0 0 0 0 1
8 11 39 38 44 49 42 55 61 48 40 41 43 44 50 53
54 45 39 38 38 39 39 38 39 38 38 38 38 40 42 45
45 41 31 34 33 35 29 49 69 74 75 72 62 49 41 45
55 69 81 89 97 98 99 97 90 81 68 56 50 62 79 87
87 78 32 7 7 6 6 7 8 5 19 42 42 44 41 18
9 11 4 15 12 1 0 0 25 45 43 43 42 11 38 41
41 40 39 38 35 34 32 32 31 29 28 29 27 26 25 24
0 0 0 21 25 20 23 38 41 44 38 0 0 0 0 0
1 10 45 36 45 52 43 59 64 28 2 2 3 3 5 23
54 46 39 39 38 39 39 39 39 38 38 39 38 38 40 44
45 35 26 19 28 36 27 47 70 75 78 76 74 62 55 46
40 39 44 51 59 63 64 59 49 46 45 50 66 81 87 92
89 78 36 6 7 6 6 6 7 4 17 42 42 45 42 36
28 21 7 0 3 1 0 4 20 44 43 43 42 16 41 39
38 38 37 36 33 32 31 30 29 29 29 28 27 27 27 25
0 0 0 18 25 20 22 39 42 45 42 2 0 0 0 0
0 1 47 35 40 48 8 11 23 27 0 0 0 0 0 15
52 47 39 39 38 38 38 38 38 38 38 38 38 38 41 44
40 35 11 0 18 38 27 46 70 77 80 80 79 74 66 62
60 51 37 32 32 31 31 32 33 42 62 76 83 88 91 94
90 80 41 6 6 6 6 5 8 4 16 42 41 44 42 42
12 35 47 4 0 0 0 0 21 45 43 43 38 17 42 42
40 40 40 36 33 30 30 29 27 26 27 27 26 26 26 25
0 0 0 15 24 20 21 33 34 34 31 3 0 0 0 0
0 1 48 34 42 47 3 1 17 28 0 0 0 0 0 9
50 46 38 38 39 38 39 38 38 37 38 37 38 39 40 43
37 34 23 18 23 36 27 45 71 77 80 83 83 80 73 69
72 77 74 59 44 33 30 42 66 83 86 87 90 93 96 97
93 84 45 5 6 6 5 6 8 4 14 40 41 44 44 44
25 60 70 17 0 0 0 0 19 43 42 40 15 29 36 27
25 39 39 33 31 28 27 27 26 26 27 27 26 26 25 25
0 0 0 14 24 19 18 3 2 6 5 0 0 0 0 0
0 2 49 34 42 48 4 1 14 30 0 0 0 0 0 4
48 46 38 38 38 38 38 38 37 37 37 37 38 38 40 41
35 35 29 28 34 35 27 45 71 80 82 82 85 81 75 73
75 81 90 95 100 105 112 114 109 102 96 93 96 102 104 106
102 92 54 6 5 5 5 5 7 4 14 38 34 31 28 25
12 18 10 6 0 0 0 0 2 6 4 3 4 23 23 13
9 39 37 34 30 27 25 27 25 25 27 26 26 26 26 24
0 0 0 12 24 19 17 5 4 8 6 0 0 0 0 0
0 3 49 33 42 47 3 0 12 31 0 0 0 0 0 1
45 47 37 37 38 38 38 37 37 36 37 37 37 37 39 40
35 27 20 24 25 34 26 45 73 82 84 87 86 84 79 77
81 87 103 122 132 136 135 122 112 107 103 102 107 110 113 112
108 97 61 8 5 3 2 1 0 0 0 0 0 0 0 0
0 0 0 0 0 0 0 0 1 2 1 0 3 12 6 47
47 39 37 34 29 27 25 25 24 25 27 26 26 25 26 24
0 0 0 11 23 18 18 7 6 10 7 0 0 0 0 3
0 0 46 33 43 47 3 2 10 32 0 0 0 0 0 0
43 46 37 37 37 37 37 36 37 37 37 36 37 37 39 40
39 34 24 21 24 24 22 47 77 89 95 98 101 95 87 86
92 96 100 119 136 140 131 118 112 109 105 107 111 116 117 117
111 101 70 29 23 3 0 0 2 3 4 5 7 9 9 10
11 12 13 14 16 19 20 21 20 18 6 0 7 26 6 58
53 22 15 13 20 26 25 26 25 27 27 27 26 26 26 25
0 0 0 9 23 18 18 12 11 12 7 0 0 0 0 3
0 0 44 33 43 46 9 2 9 33 7 1 0 2 1 0
39 46 36 37 37 37 36 37 37 36 37 36 36 37 38 38
39 35 29 33 33 31 32 50 80 96 107 114 112 112 100 89
95 101 101 109 125 130 122 117 112 112 109 108 113 116 120 118
112 102 75 40 41 51 0 5 15 17 20 20 21 21 20 20
20 19 20 21 21 21 22 22 21 17 7 0 0 0 0 0
0 5 7 5 20 30 28 29 29 31 31 32 31 32 32 30
0 0 0 8 23 19 18 13 12 14 8 0 2 0 0 8
14 0 41 35 44 46 23 10 7 34 5 7 5 7 0 0
36 46 36 37 37 36 37 37 37 37 37 37 36 37 38 37
40 34 29 36 35 35 38 54 82 99 110 119 121 115 108 96
95 103 102 104 113 120 120 118 118 117 112 112 115 120 123 121
114 104 81 56 29 13 0 7 16 18 21 23 23 22 23 23
21 21 22 23 23 24 24 23 22 18 7 0 0 0 0 0
0 5 6 4 16 26 23 20 18 18 16 13 9 8 8 7
0 0 0 7 22 19 17 14 13 15 11 0 2 0 0 8
21 8 35 39 45 46 19 25 6 31 0 8 14 8 0 0
32 44 35 37 37 37 37 36 37 36 37 36 36 36 36 34
39 34 31 37 23 14 39 57 84 99 112 119 125 121 111 99
98 106 112 109 111 117 121 124 123 118 112 113 120 124 124 122
115 105 87 67 60 37 11 15 20 21 23 27 23 24 23 23
23 23 23 24 25 25 25 24 22 20 7 0 0 0 0 0
0 1 7 30 32 31 32 34 37 41 44 45 46 46 46 46
0 0 0 6 22 18 16 14 14 14 20 15 21 23 24 30
39 38 48 45 45 45 9 33 10 31 10 14 16 12 11 11
30 36 34 36 36 36 36 36 36 36 36 36 36 36 35 33
39 36 35 25 2 31 54 60 82 100 112 118 124 126 119 102
100 109 114 117 121 124 126 128 123 118 115 119 124 125 125 123
116 106 91 77 75 76 65 33 17 20 21 22 24 25 25 24
25 25 25 26 27 27 26 25 23 21 7 0 0 0 0 0
0 0 15 52 49 47 47 47 48 50 50 50 49 48 48 47
0 0 0 4 22 18 16 14 15 13 27 39 43 45 47 52
58 60 63 53 42 43 1 19 15 35 31 31 30 29 28 28
27 28 34 36 36 36 36 35 35 36 36 35 35 35 35 33
38 33 29 14 41 58 63 66 85 101 113 118 123 124 123 109
100 109 118 122 125 129 130 128 123 117 119 123 125 125 125 124
118 108 97 86 86 85 87 84 61 20 23 22 19 24 25 25
25 25 27 27 28 28 27 26 23 23 7 0 0 0 0 0
0 0 19 50 47 47 47 46 46 48 48 48 48 46 47 47
0 0 0 4 22 17 15 15 15 15 23 46 47 48 50 54
60 61 63 62 44 44 1 4 7 33 27 30 31 31 31 31
31 32 34 35 35 35 36 35 35 36 36 35 36 36 35 33
36 25 23 36 75 71 71 69 86 101 113 119 123 125 124 115
102 108 120 128 130 135 132 128 121 120 124 125 126 127 125 125
120 111 101 93 96 96 97 99 97 74 32 25 22 19 25 26
27 28 28 29 29 28 27 27 25 23 6 0 0 0 0 0
0 0 23 48 47 47 46 46 45 46 47 47 47 47 47 46
0 0 0 4 21 17 14 14 15 15 12 26 26 26 27 30
35 35 34 31 37 43 2 3 4 34 31 35 35 35 35 35
34 34 34 35 34 35 35 35 35 35 36 35 35 35 35 30
25 19 21 47 86 83 80 74 89 104 114 119 123 126 124 117
108 105 117 125 130 133 129 125 124 122 124 127 131 128 127 124
121 114 106 99 102 104 105 107 106 64 25 27 26 24 28 22
27 28 28 28 27 27 27 26 25 24 6 0 0 8 9 0
0 0 25 49 47 46 47 46 46 46 47 46 46 46 46 46
0 0 0 3 21 17 15 14 16 16 9 6 6 7 11 15
23 26 28 25 35 44 2 1 1 32 32 35 36 35 35 35
35 35 35 35 35 35 36 35 36 36 36 36 36 35 30 23
25 20 15 41 88 92 87 79 94 106 113 119 122 128 124 120
112 108 111 122 130 132 128 125 122 124 132 135 134 130 128 125
123 117 110 106 108 111 113 114 97 33 24 30 27 24 26 17
23 28 28 28 27 28 27 26 25 25 6 0 0 52 47 0
0 0 27 48 47 48 47 46 46 46 47 46 46 46 46 46
0 0 0 3 21 17 14 14 16 16 13 10 10 11 14 17
24 28 29 26 37 45 9 2 4 34 32 35 36 36 36 36
35 35 35 35 35 36 36 35 36 36 35 36 33 27 24 21
25 24 15 27 71 99 94 84 98 109 114 118 121 127 130 124
117 113 112 120 127 131 127 128 131 132 137 137 136 133 129 127
125 119 112 111 115 116 119 109 47 27 28 28 29 28 26 21
20 23 27 31 31 28 28 27 28 27 6 0 1 24 18 0
0 0 34 49 47 46 47 47 47 47 47 47 47 47 47 47
0 0 0 4 22 18 15 15 17 17 19 17 17 18 19 22
28 30 31 28 40 48 31 48 51 49 31 35 36 36 36 36
36 36 35 36 36 36 36 36 36 36 37 30 23 25 21 19
25 25 20 13 36 80 99 91 104 114 116 118 120 127 131 129
122 120 120 122 125 130 131 133 134 137 140 138 136 133 131 130
128 120 117 115 120 122 107 49 30 26 27 28 29 28 23 21
20 20 21 23 25 29 31 29 28 27 5 0 0 3 1 0
0 0 39 49 48 47 47 47 48 47 47 47 48 47 48 48
0 0 0 6 25 18 14 15 17 18 19 18 18 19 21 24
31 33 32 27 40 45 38 50 50 44 31 35 36 35 35 35
36 35 35 35 35 35 36 36 35 31 25 22 22 21 21 19
25 24 24 18 18 30 65 94 107 116 117 117 118 124 131 130
126 121 122 124 125 131 131 133 136 137 138 139 136 131 130 131
128 122 119 119 120 92 39 27 30 27 24 27 29 25 22 22
23 20 18 18 17 19 23 26 27 27 5 0 0 7 2 0
0 0 41 48 48 47 47 47 47 47 47 47 47 47 47 47
14 14 14 16 17 15 15 14 16 17 18 18 17 19 20 24
29 32 32 27 28 28 26 26 30 31 33 34 35 35 35 35
35 35 35 35 35 35 33 29 24 22 23 21 21 20 19 20
21 26 24 22 20 17 22 47 91 116 120 117 119 124 129 132
127 123 123 123 124 128 132 132 136 140 140 136 134 129 131 133
128 122 119 102 60 31 27 28 27 27 26 28 24 23 22 21
19 18 17 17 14 17 19 19 20 21 19 9 0 0 0 0
0 0 43 47 47 47 46 47 47 47 47 47 47 47 47 47
15 14 14 14 14 14 14 14 16 17 18 19 19 19 20 23
29 31 31 28 31 30 30 27 31 31 32 34 35 35 35 34
35 34 34 34 30 26 24 24 21 21 22 20 20 21 21 21
18 24 23 21 23 21 19 20 28 55 94 114 116 121 127 132
129 125 122 121 123 125 128 131 136 140 139 137 132 129 133 132
121 93 56 30 25 27 25 26 26 25 25 19 16 18 21 20
19 19 16 17 15 18 20 18 19 19 18 19 21 14 2 0
0 0 39 47 47 47 47 47 47 46 46 46 47 46 46 47
15 14 14 14 14 15 14 14 15 17 18 19 20 20 21 24
29 31 30 29 31 30 31 28 31 32 32 33 35 35 34 34
35 34 29 24 22 21 23 20 20 20 20 20 20 19 19 23
23 21 26 23 24 25 22 21 21 21 26 38 66 96 119 130
131 129 123 122 122 124 126 131 136 139 138 134 127 117 99 71
38 26 24 25 25 25 26 27 25 23 21 22 19 18 20 18
16 16 17 16 16 20 21 19 19 21 19 19 18 23 21 11
1 0 19 48 47 47 46 46 46 46 46 47 46 46 46 46
14 14 13 13 12 13 12 13 15 16 18 19 20 21 22 25
30 32 31 30 31 31 30 30 31 31 32 32 33 34 34 33
28 24 22 20 19 18 20 21 18 21 21 21 22 21 22 25
27 26 23 27 27 26 25 24 23 22 23 22 24 26 35 53
74 89 97 104 106 109 110 108 103 96 83 62 44 33 27 25
25 23 24 25 25 24 24 24 23 23 24 22 20 19 19 18
19 18 16 18 18 20 20 19 20 20 20 19 19 18 20 22
21 15 21 36 47 47 46 46 45 46 46 45 46 46 46 46
4 3 2 1 4 6 11 18 14 15 17 18 19 21 22 25
30 32 32 30 31 30 31 30 30 31 32 33 34 34 32 24
20 19 20 19 19 18 18 19 21 21 22 21 21 22 23 23
25 27 26 19 24 28 28 30 28 27 28 26 25 26 24 23
21 24 24 26 28 29 28 27 27 28 27 25 26 27 28 27
27 26 25 23 24 26 26 25 26 27 22 18 18 18 19 21
22 19 19 19 20 20 19 20 20 18 20 19 18 18 19 22
22 22 31 15 47 46 45 46 46 46 46 46 46 45 46 46
0 0 0 0 4 9 9 13 13 15 17 18 19 20 22 25
31 32 31 30 31 30 30 31 31 31 31 32 33 30 22 18
18 18 18 18 19 16 18 19 20 21 23 20 20 22 21 20
20 22 22 24 18 18 25 28 29 28 29 27 29 28 27 27
24 24 25 25 24 27 27 27 27 27 27 25 27 28 27 27
27 27 25 24 25 26 25 27 26 25 19 17 18 19 20 23
22 20 19 21 20 19 19 22 19 19 20 19 18 18 20 18
18 19 19 20 31 46 45 46 46 45 45 45 45 46 45 46
0 0 0 0 2 8 9 11 13 14 16 18 19 21 22 25
30 31 31 31 30 30 30 31 31 31 31 31 25 20 15 15
19 16 19 19 20 18 20 23 22 21 20 20 21 21 19 19
21 19 18 21 23 17 15 18 23 28 31 30 30 28 29 26
27 25 26 26 26 25 27 28 29 26 26 25 25 26 26 25
28 30 26 20 23 25 26 25 25 23 19 17 17 20 20 20
20 21 19 20 20 18 19 21 19 18 18 20 18 19 19 16
13 16 16 17 20 43 45 45 45 45 44 45 45 45 45 45
0 0 0 0 2 8 11 13 15 17 18 20 22 24 25 28
31 31 31 31 31 30 30 30 31 31 27 20 18 21 16 14
19 17 19 20 20 18 20 22 21 21 21 19 21 22 23 21
22 21 19 18 21 20 20 24 23 19 19 23 27 30 30 28
29 26 25 26 27 28 28 28 28 27 26 27 27 28 26 24
21 18 19 25 23 23 24 23 23 20 17 17 18 18 19 20
21 21 19 19 19 18 20 20 18 18 19 18 16 17 19 13
14 16 15 14 17 19 33 45 45 45 45 45 45 45 45 44
6 3 0 1 6 12 15 17 19 21 23 25 26 27 28 29
30 31 30 30 30 30 29 30 30 22 18 16 16 18 13 13
17 16 16 18 17 17 19 20 20 19 22 20 22 23 23 20
22 21 22 20 18 21 20 22 25 24 23 19 17 16 18 18
22 22 23 25 24 26 27 26 27 24 23 22 19 17 16 17
21 21 20 18 18 20 20 20 20 17 18 18 18 18 18 19
20 19 19 19 16 19 20 19 17 18 17 18 18 18 17 13
14 16 15 13 12 14 14 45 44 44 44 44 44 45 44 44
8 8 9 11 14 16 15 20 19 19 24 25 26 27 28 29
29 30 30 30 30 30 29 28 19 15 15 13 14 17 13 12
17 18 16 21 20 18 19 21 21 21 22 23 22 22 22 22
23 23 20 20 18 20 23 19 22 22 26 24 23 24 23 25
22 19 14 14 17 19 16 15 16 15 18 18 19 22 21 22
21 23 22 21 20 18 18 18 19 17 17 18 18 17 16 17
19 19 19 20 16 19 21 19 17 18 18 18 17 18 18 13
13 15 15 12 11 14 18 44 44 44 43 43 44 43 43 44
11 8 7 6 4 3 2 16 18 17 23 24 26 27 28 29
29 29 29 30 29 30 28 19 14 14 12 13 14 18 15 12
17 16 14 20 20 18 21 21 22 21 23 22 23 22 22 23
23 23 22 22 20 20 22 21 18 22 23 24 25 26 24 22
23 21 22 21 20 19 19 22 21 19 24 24 23 24 23 23
23 22 19 20 20 20 19 18 18 16 18 18 18 18 18 18
19 19 20 16 18 20 22 18 17 17 17 18 17 17 15 13
11 14 15 12 11 10 17 41 43 42 43 42 43 43 43 44
1 1 1 1 0 1 1 16 20 17 18 20 22 24 25 27
28 29 29 29 30 29 24 15 12 14 13 12 15 19 15 11
16 17 15 19 19 18 21 22 21 20 21 22 23 22 20 23
21 24 22 20 22 23 24 21 17 21 22 22 23 25 24 24
24 23 21 22 23 22 21 22 22 21 21 23 24 24 24 24
22 20 18 18 19 18 19 18 18 19 19 18 19 19 18 18
18 18 18 15 17 21 22 18 19 18 19 18 17 16 15 13
11 15 15 14 12 10 13 13 37 43 43 43 43 42 43 42
