P2
128 120
156
44 43 42 42 42 41 40 39 39 38 38 37 37 36 35 35
35 34 34 33 32 32 31 31 30 29 29 28 28 28 27 27
26 26 25 25 25 24 23 22 22 20 18 16 15 15 19 20
21 23 19 12 24 29 26 24 23 22 21 20 18 16 13 13
12 12 16 18 16 19 14 17 20 21 21 22 23 24 24 24
24 24 25 25 26 27 27 27 28 28 29 29 30 30 30 31
31 31 32 33 34 35 35 35 36 37 37 37 38 38 39 38
39 39 41 40 39 41 41 40 40 41 41 41 40 41 42 41
43 42 42 41 41 40 40 39 39 39 38 37 37 37 36 36
35 35 34 32 33 32 31 31 30 29 29 29 28 28 27 27
26 26 25 25 25 24 23 23 22 20 19 18 17 17 22 23
24 25 20 13 24 29 26 25 24 22 22 21 20 18 16 15
14 13 16 18 19 16 19 20 22 22 23 24 24 24 24 25
25 26 26 27 27 28 28 28 29 30 29 30 31 30 30 31
33 34 33 34 35 35 36 36 37 37 37 37 39 39 39 39
39 39 42 40 40 40 41 41 41 40 40 41 41 41 41 41
43 42 42 41 41 41 40 39 39 38 38 38 37 37 36 36
35 35 33 34 33 32 31 31 31 30 30 30 29 28 27 27
27 26 26 25 25 24 24 23 22 20 20 19 17 18 24 25
26 27 21 11 23 30 28 26 25 24 23 22 22 20 19 20
16 13 14 18 19 18 20 21 23 24 24 25 26 26 26 26
27 27 27 28 28 29 29 29 30 30 30 30 32 32 32 33
33 35 35 35 35 36 37 37 37 37 38 37 38 39 39 39
40 40 42 38 40 40 40 41 41 40 41 41 42 42 42 41
43 43 42 41 41 40 40 39 39 39 38 37 37 37 36 36
35 35 34 33 33 33 32 31 31 30 30 30 29 28 28 27
27 27 26 26 25 25 25 25 23 22 21 20 19 20 25 27
28 28 22 13 22 31 28 27 26 25 24 23 23 20 20 21
19 15 13 21 18 20 21 24 24 25 25 26 27 27 27 27
28 28 28 28 29 30 30 30 30 31 32 32 33 33 33 34
34 37 36 36 37 36 37 37 37 38 38 38 38 38 39 40
40 40 42 39 40 41 41 42 42 42 41 42 42 42 41 40
43 43 42 43 42 41 40 40 40 39 39 38 38 37 36 36
36 35 34 33 34 33 32 32 31 31 30 30 30 29 29 28
28 27 27 26 26 25 25 25 24 24 22 22 21 21 27 27
29 28 22 15 22 31 28 26 27 26 25 24 23 20 21 22
21 17 12 22 18 22 23 25 26 27 26 27 28 28 29 29
29 29 29 28 29 30 31 31 31 32 32 33 34 34 34 34
35 37 36 37 37 37 37 38 38 38 38 38 39 40 40 40
40 40 42 39 41 40 42 41 42 43 41 40 41 42 42 43
43 43 42 42 42 41 41 40 40 39 39 38 38 37 37 37
36 36 35 35 34 33 32 32 31 31 31 30 30 29 29 28
29 28 27 27 27 27 26 25 25 25 24 24 24 23 29 29
30 30 24 17 20 32 29 28 27 27 26 26 25 22 23 23
23 19 13 22 21 24 26 26 27 28 27 29 29 29 30 29
30 29 30 31 31 32 32 32 33 33 33 33 34 35 35 35
36 37 36 37 37 38 38 38 38 39 39 40 40 40 41 40
41 40 43 41 41 41 40 40 41 40 41 42 42 43 43 41
43 43 42 42 42 41 41 41 40 39 38 38 38 38 37 37
36 36 35 34 34 33 32 33 33 32 32 31 30 30 30 29
28 28 27 27 27 26 26 26 25 25 25 24 25 25 30 30
31 31 24 19 20 32 30 29 28 27 28 26 25 24 24 23
23 21 15 23 22 25 27 27 28 29 29 30 29 29 30 30
31 32 31 32 32 32 32 33 33 33 35 34 35 34 35 36
36 38 36 37 38 38 38 39 39 39 39 39 40 40 41 41
41 41 40 39 40 40 41 42 42 42 42 42 43 43 44 42
43 43 43 43 42 41 41 40 40 39 39 38 38 37 37 37
36 35 35 35 34 34 33 33 32 32 32 31 30 30 30 29
29 28 28 28 28 27 27 27 26 25 25 25 25 25 30 31
31 31 24 20 19 32 31 29 28 28 28 28 27 26 25 25
25 23 16 24 23 27 28 28 28 27 28 29 30 31 30 31
31 32 32 32 33 33 33 33 34 34 35 35 35 36 36 36
37 39 37 38 38 38 39 39 39 39 39 40 40 40 40 38
39 39 41 42 42 41 43 41 41 42 42 43 42 43 43 43
44 43 43 42 42 41 41 40 40 40 39 39 38 38 37 37
37 36 35 35 35 34 33 33 33 32 32 32 31 30 30 30
30 28 29 28 28 27 27 27 27 26 26 26 27 27 32 32
32 32 24 22 18 32 31 29 29 28 29 28 28 29 25 24
24 24 17 25 24 27 29 29 30 30 30 31 32 32 32 33
32 32 33 33 33 34 34 34 34 34 35 35 35 36 36 37
37 39 38 38 39 39 39 39 40 37 37 39 39 39 40 42
42 42 42 41 42 42 41 42 42 42 43 43 43 43 43 43
44 44 43 43 42 41 41 40 40 39 40 39 39 38 38 37
37 36 36 36 35 35 34 33 33 33 32 31 31 31 31 30
30 29 28 29 28 28 28 28 27 27 27 26 27 27 32 32
32 32 26 23 17 32 32 30 29 29 29 28 28 27 26 26
25 25 21 26 25 28 30 29 30 30 31 31 32 32 32 32
32 34 33 33 35 34 35 35 35 35 36 35 36 36 36 37
38 39 37 38 39 39 38 37 38 41 40 40 41 41 41 42
41 41 41 42 42 43 43 42 42 43 43 43 43 42 43 43
44 43 43 42 42 41 41 41 40 40 40 39 39 38 38 38
38 36 36 36 35 35 34 34 34 33 33 33 33 32 32 31
30 30 29 29 29 28 28 27 28 27 27 27 28 29 33 34
34 33 26 23 19 33 32 30 28 30 30 29 29 29 27 27
27 26 23 27 27 30 31 31 31 32 33 33 33 33 33 33
34 34 34 34 35 34 34 35 35 36 36 36 37 38 38 39
38 40 38 37 36 37 39 40 41 40 43 41 41 41 42 42
42 41 42 42 43 43 43 43 42 43 43 43 43 44 43 43
44 44 44 42 42 42 41 41 40 40 40 39 39 38 38 38
37 37 37 36 35 35 35 35 34 33 33 32 33 31 32 32
31 31 30 30 30 29 29 28 28 27 27 27 28 29 33 33
34 34 27 23 16 28 32 30 29 31 30 30 29 30 28 28
28 27 23 28 28 32 32 32 32 33 32 33 33 34 34 34
34 35 34 35 35 35 36 35 36 36 36 37 38 37 38 36
35 35 37 39 40 40 40 41 41 42 41 41 42 41 41 43
42 42 43 43 42 42 43 43 43 43 43 43 43 44 43 43
44 44 43 43 43 42 41 41 41 40 40 40 39 39 39 37
38 37 36 36 36 35 35 35 34 34 34 34 33 32 32 32
31 31 31 30 30 30 29 28 28 27 28 29 29 30 34 35
35 34 26 21 11 25 34 32 32 31 31 30 30 31 28 29
28 28 23 30 30 32 33 33 33 33 34 34 34 35 34 35
35 35 35 35 35 35 36 36 36 36 37 36 36 36 36 37
40 39 40 39 40 41 41 41 42 41 43 41 42 42 42 42
42 43 43 42 42 42 43 44 43 42 43 43 43 43 43 43
44 44 43 43 43 42 42 41 41 41 40 40 40 39 38 38
38 38 37 37 36 35 36 35 34 34 34 33 33 33 32 32
32 31 31 31 31 30 30 30 29 28 28 28 29 30 35 35
36 35 27 22 21 29 35 33 32 32 32 31 31 32 29 29
29 29 24 31 30 33 33 33 34 33 34 34 34 35 35 35
35 36 36 36 36 36 36 37 36 36 36 36 38 38 38 39
39 40 39 40 41 40 41 41 42 42 44 43 43 42 42 42
42 43 44 43 42 43 43 43 44 44 44 43 43 44 43 44
44 43 43 43 42 42 42 42 41 41 40 40 40 39 39 39
38 38 38 37 37 36 36 35 35 35 34 35 34 33 33 33
32 32 31 31 30 30 30 30 29 29 29 29 30 31 35 35
36 35 28 22 25 26 36 33 33 33 32 31 31 33 29 30
30 30 25 32 31 33 34 34 34 34 34 35 36 35 35 36
36 36 36 36 36 36 36 36 37 38 38 38 39 39 39 40
40 40 41 41 41 41 41 41 42 41 43 42 42 43 43 42
43 43 42 43 43 43 43 43 43 44 44 44 44 44 46 45
44 43 43 43 42 42 42 42 41 41 40 40 39 39 39 39
38 38 38 37 37 36 36 35 35 35 35 34 34 34 34 33
33 32 32 31 31 31 31 30 29 29 29 29 30 31 36 35
36 34 28 23 28 26 36 34 34 34 33 32 32 33 30 30
30 30 25 33 31 34 34 34 35 35 35 35 36 36 36 36
36 35 35 35 36 37 38 37 38 39 38 38 38 39 39 39
40 40 41 40 41 41 42 42 43 42 43 43 42 42 43 43
43 43 43 43 43 43 43 43 44 44 44 44 43 44 44 43
44 43 44 43 42 42 42 42 42 41 40 40 40 40 40 39
38 38 38 38 37 37 36 36 35 35 35 34 34 33 34 33
33 33 32 32 31 30 31 30 30 30 30 30 31 32 36 36
36 36 30 24 30 23 36 34 34 34 33 33 32 34 30 31
31 31 27 34 32 35 35 35 35 35 36 35 36 35 36 35
36 36 36 37 37 37 38 38 38 39 39 39 39 39 40 39
40 41 41 41 42 42 42 42 42 42 44 43 43 43 43 43
44 44 43 44 44 43 44 43 44 44 44 43 43 43 44 44
44 43 44 43 43 42 42 42 42 41 41 41 40 40 40 39
39 38 38 38 37 37 36 36 37 36 35 35 35 34 33 33
33 33 32 32 31 31 31 31 31 30 30 31 31 32 36 37
37 37 31 25 31 24 36 35 35 34 34 33 33 34 31 31
31 30 27 34 31 35 36 35 36 36 36 36 35 36 36 37
37 37 37 37 38 38 38 38 38 39 40 40 39 40 40 41
40 40 41 42 41 42 42 43 43 43 44 43 43 44 43 44
44 44 44 44 44 44 43 43 43 43 44 45 44 43 44 43
43 43 43 42 42 42 42 42 42 41 41 40 40 40 40 39
39 39 39 38 37 37 36 36 36 35 35 35 35 34 34 34
32 33 33 33 32 31 31 30 31 30 31 31 32 32 37 37
37 37 31 24 32 24 36 35 35 34 34 33 33 34 32 32
33 32 28 34 33 36 35 35 35 35 37 36 37 37 37 37
37 37 37 37 38 38 38 39 39 39 40 39 40 41 41 41
42 41 41 41 41 42 43 42 43 43 43 43 43 43 44 44
44 44 43 41 43 43 44 43 43 44 44 44 44 44 43 43
44 43 42 43 42 42 42 41 41 41 41 41 40 39 39 39
39 38 38 38 37 37 37 36 36 36 35 36 35 35 35 34
34 33 33 32 32 32 31 31 31 30 31 30 32 33 37 38
37 38 32 25 33 24 35 35 34 34 34 34 33 35 32 32
32 31 27 33 27 34 36 36 37 37 38 37 37 37 37 37
37 37 37 38 38 38 39 39 39 40 40 40 40 40 40 41
41 41 41 42 42 42 42 43 43 43 44 44 44 43 42 42
42 42 44 43 43 43 43 42 43 44 43 43 43 44 44 43
43 43 43 42 43 43 42 42 41 41 41 41 41 41 40 39
40 39 39 38 38 37 37 37 36 36 36 35 35 35 35 34
34 34 34 33 33 32 32 31 31 31 31 31 32 33 37 38
39 38 32 25 32 25 35 35 35 35 34 34 34 36 33 33
33 33 28 34 31 36 37 36 36 36 37 37 37 37 37 38
38 38 39 38 38 39 40 39 40 41 41 40 41 41 41 41
41 41 42 43 42 43 44 43 43 41 41 41 43 42 44 44
44 44 44 46 43 44 44 44 43 43 43 43 43 44 43 43
43 43 43 43 42 42 42 42 41 42 42 41 40 40 40 40
40 40 39 38 38 38 37 37 37 37 37 36 35 35 35 34
34 34 33 33 32 32 32 32 31 31 31 32 32 33 38 39
39 38 33 24 30 26 34 32 26 25 28 31 31 31 29 30
30 28 24 27 29 33 35 36 37 37 38 37 38 38 38 38
38 39 39 38 39 39 39 40 40 40 41 41 41 41 42 42
42 42 43 43 42 42 41 42 42 44 44 43 43 44 44 44
43 44 44 46 43 43 44 43 44 44 44 44 44 45 44 44
44 44 43 43 43 42 43 42 42 41 41 41 41 41 40 40
40 40 39 39 39 38 38 38 37 37 36 36 36 35 36 35
35 34 34 34 34 33 33 32 32 32 32 32 33 33 38 39
38 38 30 21 31 25 19 6 4 5 4 6 4 6 6 7
6 4 1 1 3 8 13 24 32 34 37 36 38 38 38 39
38 39 39 40 40 41 41 41 42 42 42 42 42 42 43 42
43 42 43 42 43 44 45 44 45 44 44 44 44 44 44 45
44 44 45 46 43 44 44 44 44 44 45 44 44 44 43 44
44 44 43 44 43 43 43 43 43 42 42 41 42 41 41 40
40 39 39 39 39 38 39 38 38 38 37 37 36 36 36 36
36 35 35 34 34 33 33 33 33 32 32 33 34 35 39 39
39 35 27 25 27 17 6 3 2 0 0 0 0 0 0 0
0 0 0 0 0 0 0 0 1 7 16 22 33 39 39 39
39 39 39 40 40 41 42 42 42 42 43 42 42 42 42 42
43 43 44 45 45 45 45 45 45 45 45 45 45 45 45 45
45 45 45 46 45 45 45 44 43 44 45 44 45 45 44 44
44 44 44 44 44 43 43 43 43 42 43 42 42 41 42 41
40 41 40 40 39 38 38 39 38 38 38 38 37 37 36 36
36 36 36 35 34 34 34 33 34 33 33 34 34 35 40 41
38 29 29 25 24 10 5 0 0 0 0 0 0 0 0 0
0 0 0 0 0 0 0 0 0 0 0 1 11 33 39 40
41 41 40 41 42 42 42 43 43 42 43 41 43 42 43 43
43 44 46 45 45 46 46 45 45 46 45 45 45 45 46 45
45 45 45 47 45 44 45 45 45 45 45 44 45 45 45 45
45 44 44 44 44 43 43 43 43 42 42 42 42 42 42 42
41 41 41 41 39 39 39 39 39 39 38 38 38 38 37 36
36 36 36 35 35 35 34 34 34 34 34 34 35 36 41 40
32 29 29 18 10 5 0 0 0 0 0 0 0 0 0 0
0 0 0 0 0 0 0 0 0 0 1 1 0 5 26 39
41 41 42 42 42 41 42 42 42 43 43 43 44 44 45 44
44 44 46 45 46 46 45 46 46 46 46 46 45 45 46 45
46 45 45 46 45 44 45 46 44 46 45 45 45 46 46 46
45 44 44 44 44 43 44 43 43 43 43 42 43 42 42 42
41 41 41 41 40 39 39 40 39 39 38 38 39 38 37 37
37 37 36 36 35 35 35 34 34 34 34 35 35 36 40 40
29 23 22 23 10 7 0 0 0 0 0 0 0 0 0 0
0 0 0 0 0 0 0 1 1 0 0 0 2 6 10 22
37 41 42 42 42 43 43 43 43 43 44 43 44 44 45 44
45 45 47 46 46 46 46 47 47 46 46 46 45 46 46 46
47 45 45 47 46 45 46 45 45 45 45 45 45 45 45 46
44 44 44 44 44 44 44 43 43 44 43 43 43 43 43 42
42 41 41 41 41 40 39 39 40 39 39 38 38 37 37 37
37 37 37 36 36 35 35 35 35 35 35 35 36 36 41 39
26 24 33 23 7 3 0 0 0 0 0 0 0 0 0 0
0 0 0 0 0 0 1 2 4 2 4 0 0 1 5 4
8 26 41 42 42 43 44 43 44 44 44 44 44 45 46 46
46 46 48 47 46 45 46 46 47 46 46 46 47 46 45 46
46 46 45 46 48 46 46 46 47 46 47 46 47 46 45 45
45 44 44 44 44 45 44 44 44 44 44 43 43 43 42 42
42 42 42 41 41 40 40 39 40 39 40 39 38 39 38 38
38 37 37 37 36 36 36 36 35 35 35 36 36 36 39 37
26 28 30 19 5 2 0 0 0 0 0 0 0 0 0 0
0 1 0 0 4 8 4 1 2 5 6 3 0 0 1 1
2 7 14 32 43 44 44 43 44 44 45 45 45 45 45 45
46 46 47 46 46 46 46 47 47 46 46 46 46 46 47 46
47 46 46 47 48 46 47 47 46 46 46 44 45 43 45 45
45 45 45 44 44 44 44 43 44 43 43 43 44 42 43 43
42 42 42 41 40 40 40 40 40 40 39 39 39 39 38 38
38 38 38 37 37 36 37 36 36 36 35 36 35 36 39 35
31 31 24 11 3 0 0 0 0 0 0 0 0 0 0 0
1 3 1 0 0 3 11 8 5 3 7 6 3 0 0 0
0 3 8 6 28 42 44 44 44 45 46 45 45 46 47 46
46 47 47 46 47 47 46 47 46 47 47 46 47 46 46 46
47 47 48 47 46 45 43 43 44 44 45 47 47 48 45 44
45 44 45 44 44 44 44 44 44 44 43 43 43 43 43 42
42 42 42 41 41 41 40 40 40 40 40 39 40 39 39 38
38 38 38 37 37 37 36 36 36 35 35 35 33 36 39 36
31 26 19 2 0 0 0 0 0 0 0 0 0 0 0 0
0 0 0 0 1 5 5 8 5 3 4 6 6 7 1 0
0 0 0 1 8 34 43 44 44 45 46 45 46 46 46 46
46 46 47 46 47 47 47 47 47 48 47 47 47 47 47 48
47 46 44 44 44 44 47 47 46 44 43 46 47 48 44 45
44 45 45 44 44 44 44 44 44 44 44 44 44 43 43 42
43 42 42 42 41 41 41 40 40 40 40 39 39 39 39 38
38 38 38 37 37 37 37 36 36 36 36 36 34 36 37 34
30 12 1 0 0 0 0 0 0 0 0 0 0 0 0 0
0 0 0 2 3 2 5 6 4 5 3 2 6 8 4 0
0 0 0 0 0 9 36 44 45 45 45 45 46 47 46 47
47 47 47 46 47 47 47 48 47 47 48 47 46 43 44 44
45 46 47 47 46 46 47 46 46 45 46 46 46 48 45 45
24 45 46 45 45 44 45 45 44 44 44 44 44 43 43 43
42 43 43 42 42 41 41 41 41 40 40 40 40 40 39 39
39 38 38 38 37 38 37 37 36 36 36 37 36 35 37 33
24 5 0 0 0 0 0 0 0 0 0 0 0 0 0 0
0 0 1 2 5 5 5 8 6 5 6 5 1 5 5 1
0 0 0 0 0 1 16 43 46 46 46 46 47 47 47 47
47 47 48 47 47 46 47 47 47 46 45 46 46 47 48 47
46 46 46 47 46 46 45 46 46 46 46 47 47 47 46 46
23 44 45 45 45 45 45 44 44 44 44 44 44 43 43 43
43 42 42 42 42 42 41 41 40 40 40 40 40 40 40 39
39 39 39 39 39 38 38 37 37 36 37 37 37 34 33 20
3 0 0 0 0 0 0 0 0 0 0 0 0 0 0 0
0 0 0 1 0 0 4 4 2 4 4 2 1 0 1 1
0 0 0 0 0 0 2 30 45 46 46 46 47 46 47 47
47 47 47 46 46 46 46 46 47 46 46 48 46 46 46 46
47 46 47 46 46 46 45 46 46 46 46 46 46 47 45 45
22 44 45 46 45 45 44 42 42 43 45 44 44 44 44 44
43 43 42 43 42 42 42 41 41 41 40 42 44 42 40 40
40 39 39 38 38 38 38 38 37 37 37 37 37 29 15 3
0 0 0 0 0 0 0 0 0 0 0 0 0 0 0 0
0 0 0 1 3 2 2 5 3 2 4 5 2 0 1 2
2 1 0 0 0 2 1 12 43 47 46 47 47 46 46 46
46 46 47 46 47 46 47 47 47 47 47 48 46 46 46 46
47 46 46 47 47 46 46 46 46 46 45 47 45 47 46 45
22 44 45 45 45 45 44 44 55 53 51 49 47 46 44 42
44 43 44 43 43 42 42 42 42 41 40 54 58 55 49 46
44 40 39 39 39 38 38 37 37 37 38 38 29 11 5 0
0 0 0 0 0 0 0 0 0 0 0 0 0 0 0 0
0 0 0 0 2 6 3 0 2 5 4 3 5 4 0 1
4 2 0 0 0 0 1 4 33 45 46 45 46 47 46 47
46 46 46 47 47 46 47 46 47 46 46 48 47 47 47 47
47 47 48 47 48 47 46 46 47 47 47 47 46 46 46 46
25 45 47 45 45 45 45 45 59 58 57 56 52 50 49 47
44 44 44 43 43 43 42 43 43 42 42 56 57 54 51 51
51 48 41 39 39 39 39 38 38 38 37 32 6 3 0 0
0 0 0 0 0 0 0 0 2 1 2 0 0 0 0 0
0 0 0 0 0 2 6 4 2 5 7 5 5 5 2 0
0 1 0 0 0 0 0 0 10 43 47 47 45 47 47 47
47 47 47 47 47 47 47 47 47 47 46 48 47 47 47 47
47 46 47 46 47 47 46 46 47 47 47 46 46 45 47 46
28 50 49 48 47 46 45 46 60 58 57 53 52 53 54 58
51 50 48 45 43 42 41 42 42 42 42 53 55 54 50 52
51 50 43 40 40 39 39 39 38 38 36 13 3 0 0 0
0 0 0 8 10 5 8 1 5 7 10 8 6 5 1 0
0 1 1 1 1 0 1 5 3 2 4 9 8 7 4 1
1 1 2 2 0 0 0 0 0 26 48 47 47 47 47 48
48 48 47 47 47 47 47 48 47 47 47 48 47 47 47 47
48 48 47 47 47 46 47 46 46 46 47 46 46 45 47 46
29 52 52 49 49 49 48 46 55 54 58 54 55 58 58 60
52 52 53 55 52 49 47 46 44 42 42 43 27 33 38 47
51 52 44 40 40 39 39 39 39 37 24 3 1 0 0 0
0 0 9 24 27 25 36 23 13 17 19 20 16 12 12 4
2 4 1 1 2 3 0 2 8 3 5 7 10 8 6 4
0 0 3 1 0 0 0 0 0 19 48 48 46 47 47 47
48 48 47 47 48 47 47 47 47 47 47 48 49 48 48 48
48 47 46 47 47 47 47 47 46 47 47 47 47 47 48 47
29 52 53 41 46 52 54 55 39 1 11 33 48 54 57 60
52 11 15 27 38 50 48 49 55 50 46 43 21 18 18 12
15 20 45 40 41 40 40 39 39 33 9 8 1 0 0 0
0 2 33 56 56 48 54 58 42 43 41 41 38 27 21 19
7 5 5 1 2 2 6 1 6 7 4 3 3 6 7 5
2 1 0 1 0 0 0 0 0 8 45 49 47 48 48 47
48 48 48 48 48 48 48 48 48 48 47 48 49 48 47 47
46 47 47 47 48 47 47 47 47 46 48 47 48 47 47 48
29 51 54 49 44 41 56 60 41 0 0 8 20 22 21 30
53 4 0 0 0 2 11 20 32 42 48 43 19 6 15 17
7 0 44 41 41 40 40 39 37 28 8 9 0 0 0 0
0 16 51 72 85 83 80 79 78 79 72 71 65 59 41 37
25 13 10 5 3 2 5 5 5 5 5 4 2 1 5 5
3 1 0 0 1 0 0 0 0 0 29 49 47 48 48 48
48 48 48 48 48 47 48 47 47 47 47 47 48 48 47 47
47 47 48 47 47 47 47 47 46 48 47 48 48 47 44 44
21 17 29 41 54 56 60 61 43 0 0 6 13 19 21 23
53 4 0 0 2 0 2 0 0 0 32 44 16 2 5 7
6 1 47 42 42 41 41 40 36 23 11 5 0 0 0 0
0 36 60 81 94 101 103 100 102 107 105 94 97 91 82 61
60 34 20 13 6 6 5 4 6 6 5 5 1 1 2 2
1 1 0 0 0 1 0 1 0 0 19 48 48 47 48 48
48 48 48 48 48 48 48 48 48 47 48 48 49 48 47 47
47 47 47 47 48 47 48 48 47 47 47 47 47 48 48 48
18 0 0 0 3 14 27 40 44 0 0 4 9 5 11 18
53 12 1 0 0 0 2 0 0 0 32 42 8 0 0 5
4 1 48 41 42 41 41 41 38 20 12 3 0 0 0 0
7 50 69 87 99 104 109 111 112 118 120 115 116 117 115 101
91 80 42 33 15 9 8 6 7 4 8 8 6 3 2 0
1 0 1 0 3 2 3 3 0 0 12 46 48 48 48 48
48 49 49 49 48 48 49 48 48 48 47 48 49 48 48 47
48 49 47 48 48 47 48 48 49 49 48 47 48 47 47 47
18 0 0 0 0 0 0 0 30 0 0 0 1 0 5 15
51 3 0 0 0 2 2 0 0 0 30 37 0 0 0 0
6 2 49 42 42 42 41 40 38 20 12 0 0 0 0 0
22 58 76 89 104 108 111 117 120 124 125 123 122 124 124 131
118 108 86 66 43 14 13 10 8 7 7 8 8 6 3 1
1 0 0 2 4 5 4 4 2 1 9 42 47 49 48 48
49 49 49 49 49 49 49 48 49 49 48 48 48 47 49 48
49 48 49 49 47 47 49 48 49 48 47 48 47 47 47 48
17 0 0 0 0 0 0 0 26 0 0 0 0 0 0 19
53 6 0 1 0 11 18 4 0 0 27 38 2 0 0 0
3 1 50 43 42 42 42 42 37 21 8 0 0 0 0 0
34 65 80 91 103 109 115 119 125 126 125 126 128 132 133 136
135 130 124 99 85 41 18 18 15 12 7 9 8 5 4 2
3 0 0 4 4 4 5 4 6 2 5 39 48 49 49 49
49 49 49 50 49 49 49 48 48 47 48 47 49 49 49 48
48 48 48 48 47 49 49 48 49 48 49 48 48 48 49 48
18 0 0 0 0 0 0 0 23 0 0 0 0 0 0 18
56 5 0 0 1 14 22 17 12 2 25 38 0 0 0 0
0 0 48 43 42 42 41 41 36 23 6 0 0 0 0 2
41 71 81 91 103 111 118 122 123 124 124 126 128 133 136 136
136 135 132 122 103 83 38 23 22 20 14 11 10 9 7 6
5 3 3 5 7 6 8 5 6 5 4 35 48 48 49 50
49 50 50 48 48 49 48 48 49 49 49 49 49 48 48 48
48 47 46 45 47 49 48 48 48 48 49 49 49 49 49 49
17 0 0 0 14 13 0 0 20 0 6 0 0 0 0 13
57 6 0 0 4 17 22 20 20 7 21 40 0 1 0 0
0 0 45 44 42 42 42 40 35 24 6 0 0 0 0 5
45 70 79 92 108 117 122 124 125 123 126 130 132 134 139 136
135 135 131 129 118 104 81 42 30 24 21 15 11 11 10 11
8 6 4 6 9 6 5 8 4 5 5 27 47 47 48 47
49 48 49 49 48 49 47 47 49 48 47 48 48 48 47 48
48 47 46 48 47 48 49 48 48 48 49 48 48 46 44 42
16 1 16 10 5 5 0 0 17 2 2 0 0 0 6 14
57 8 0 2 2 15 20 19 19 8 19 42 0 0 0 0
0 0 42 44 42 41 41 40 36 29 12 0 0 0 0 7
49 69 82 101 113 121 126 127 126 126 130 137 140 141 141 137
133 131 128 125 124 116 109 89 64 45 35 26 15 15 11 11
8 6 5 6 10 8 7 9 3 7 7 30 47 47 47 47
48 48 48 50 48 48 48 48 47 47 47 47 48 47 47 47
46 46 46 46 46 48 48 47 46 46 49 47 44 43 43 43
17 6 11 0 7 7 0 0 19 1 0 0 0 0 5 22
58 11 0 6 3 1 9 18 19 6 15 52 38 26 15 6
1 2 37 45 41 41 41 39 37 34 20 1 0 0 0 7
49 72 93 107 115 124 130 131 129 130 136 143 144 146 143 136
133 125 114 108 110 120 116 117 101 83 69 55 28 15 12 11
10 5 6 8 11 9 8 10 7 3 8 31 46 46 47 47
48 48 48 49 47 47 48 48 47 47 47 47 47 47 46 47
47 45 43 42 46 47 43 44 43 42 40 36 32 28 24 20
17 5 2 0 0 0 3 0 28 16 8 4 8 0 0 16
63 46 35 24 18 7 0 2 12 3 13 54 56 52 54 53
54 54 58 43 42 42 42 40 40 39 30 2 0 0 0 9
51 83 102 113 118 124 132 132 133 134 142 139 135 123 98 80
94 93 92 84 86 103 109 119 120 112 109 105 69 28 16 13
12 8 8 8 12 9 5 10 4 1 8 34 47 47 48 48
49 48 48 49 47 48 48 47 47 47 48 46 44 42 41 44
44 42 43 43 40 36 32 28 24 22 20 20 21 22 25 19
17 0 0 0 0 0 0 0 39 63 55 46 44 39 24 21
67 41 32 38 43 47 45 37 31 25 29 59 56 54 53 53
60 63 64 46 42 42 41 41 40 40 34 4 0 0 0 10
51 77 91 106 115 122 131 134 135 133 124 105 78 56 44 43
37 46 60 79 73 75 78 97 118 122 125 123 109 66 25 12
8 9 15 12 12 9 6 7 4 3 4 33 48 48 49 49
49 48 48 49 48 47 44 43 43 43 45 45 46 44 42 38
34 29 26 24 23 23 23 24 25 26 28 29 29 30 31 27
18 0 0 0 0 0 0 0 41 68 50 58 60 64 65 61
67 32 19 21 21 21 22 24 28 36 45 45 39 45 49 52
58 62 62 48 41 42 42 41 41 41 37 7 0 0 0 10
30 23 23 42 79 104 121 132 132 124 103 91 67 57 63 68
52 71 77 95 103 99 80 74 104 118 125 125 124 107 52 15
4 4 9 13 11 6 4 7 4 1 1 29 47 48 49 48
46 47 48 48 47 47 48 48 40 38 34 30 27 24 23 24
25 27 27 28 30 30 31 33 32 33 35 30 28 37 37 37
25 25 16 7 0 0 0 0 43 58 49 60 62 66 68 57
46 29 20 21 20 19 19 17 17 16 14 14 16 20 25 38
42 37 35 40 42 42 42 41 41 41 37 10 0 0 0 7
13 11 19 28 45 77 108 126 131 127 107 83 79 77 83 82
96 92 99 127 128 123 113 104 107 118 127 124 127 126 88 27
5 1 7 8 4 2 1 1 0 1 0 30 48 48 49 49
47 45 43 40 35 31 35 50 30 22 25 27 29 29 30 31
32 33 34 34 35 36 37 38 38 39 39 39 33 30 40 41
30 55 61 59 52 42 31 22 50 45 50 59 61 65 68 61
51 36 21 22 20 19 17 16 15 16 15 14 16 16 15 34
42 41 40 40 43 42 42 42 42 42 40 16 0 0 11 21
25 44 47 53 65 77 97 116 125 125 98 105 106 112 112 115
124 125 127 141 137 143 136 125 119 122 128 130 131 130 113 50
3 0 8 9 2 0 0 0 0 0 0 29 44 40 35 31
29 26 27 27 29 29 28 44 29 28 31 33 34 35 36 37
38 38 39 40 39 40 40 41 42 41 40 41 42 34 30 40
30 56 62 61 59 59 60 62 64 29 33 46 53 60 64 60
54 40 23 21 18 15 15 15 16 17 16 17 18 18 19 38
19 8 41 42 43 42 40 42 42 42 41 29 13 42 14 9
31 64 85 84 84 100 99 107 112 100 110 106 100 96 88 98
126 132 128 124 115 137 127 127 97 77 77 76 73 68 61 39
7 1 2 12 6 0 0 0 0 0 0 20 28 27 28 30
33 33 33 34 35 35 33 44 30 33 37 40 41 41 41 42
42 43 43 43 42 41 42 42 43 43 41 43 45 44 34 28
27 55 63 62 60 61 61 63 62 12 1 1 5 11 23 27
39 43 22 20 15 2 3 3 10 20 20 19 16 22 23 39
47 43 50 52 50 45 8 22 44 42 42 39 72 53 11 22
68 105 116 114 108 118 90 97 117 110 113 112 101 81 67 69
107 120 129 124 68 89 39 68 48 48 61 81 98 112 116 102
33 5 0 7 6 1 0 3 0 0 0 24 35 35 36 37
38 39 39 40 41 41 39 47 36 37 42 42 44 43 43 44
45 44 45 46 46 45 45 43 42 44 44 43 45 46 46 36
31 46 50 51 53 56 59 62 59 7 0 0 0 0 6 20
39 44 20 18 15 0 0 0 3 8 12 4 4 12 12 34
52 45 41 44 48 50 46 42 42 42 43 60 87 49 20 23
69 95 111 138 110 91 63 66 92 122 115 114 103 72 28 25
103 84 84 89 78 52 60 83 101 111 116 125 135 133 128 112
53 8 1 1 2 1 0 0 0 0 0 21 40 41 42 42
43 44 45 46 46 43 36 24 20 38 44 45 45 45 46 45
45 45 46 47 45 46 46 46 45 42 44 43 45 46 47 46
31 33 35 39 43 42 43 54 56 5 0 0 0 5 1 2
40 45 19 18 14 1 0 6 5 1 2 0 0 2 5 31
54 42 35 32 31 36 41 44 43 43 37 93 97 35 14 20
45 33 86 111 101 81 77 80 108 130 131 115 104 75 46 50
88 88 79 68 82 72 91 113 135 142 140 137 138 133 128 114
67 16 2 0 1 2 2 1 2 1 0 16 45 45 46 45
45 45 45 46 45 44 29 9 7 33 45 46 48 46 46 45
47 47 46 46 46 46 46 46 46 46 43 44 42 45 47 45
30 28 28 31 42 40 40 55 55 4 0 0 0 1 2 0
35 40 14 8 0 0 0 13 13 6 5 0 0 0 1 29
54 44 25 39 44 36 39 43 43 42 30 94 108 39 22 22
20 18 69 108 94 76 77 86 115 126 140 102 98 84 71 78
95 103 122 125 110 98 122 130 149 149 146 139 135 131 127 112
66 22 6 0 2 3 7 4 13 22 5 13 45 46 47 47
48 47 46 39 30 43 25 18 7 30 45 47 48 47 47 46
47 47 46 46 47 47 47 46 46 45 45 43 41 43 45 45
28 30 37 42 44 44 47 56 54 4 0 0 0 0 1 0
40 33 0 0 0 1 2 5 17 14 4 1 0 0 0 28
54 46 16 36 35 32 37 41 44 43 44 96 120 56 39 30
35 65 81 96 107 74 73 87 130 114 144 119 99 99 79 75
82 92 121 131 113 100 129 137 150 150 145 139 134 130 123 109
67 22 11 2 4 10 32 54 42 57 23 14 47 47 47 48
48 29 3 0 1 34 22 5 3 28 45 47 48 47 46 47
47 46 46 46 47 46 47 47 44 46 46 45 40 41 42 42
28 2 4 9 16 23 32 39 46 4 0 0 0 0 0 0
41 36 0 0 0 0 2 6 17 23 16 10 0 3 0 26
55 47 20 24 25 21 36 41 43 43 43 82 133 66 32 37
53 63 74 80 82 63 68 100 137 124 132 137 116 111 101 92
99 106 128 139 113 112 134 143 149 149 144 138 132 127 123 109
75 22 12 5 7 24 44 107 99 102 44 14 47 48 48 48
48 37 26 35 42 45 31 2 4 26 44 46 47 47 46 46
46 46 46 46 46 46 46 46 46 45 46 45 44 39 39 39
31 2 0 0 1 0 0 0 23 5 0 0 0 0 0 2
44 28 0 0 0 0 2 20 21 25 20 14 0 0 2 28
55 49 34 33 30 27 35 40 44 43 44 66 142 95 40 45
68 79 86 101 87 60 79 91 139 142 113 147 117 115 115 105
103 112 132 141 106 128 141 149 149 147 143 136 130 124 121 109
78 25 11 9 13 30 73 121 116 120 59 21 48 48 48 48
48 48 47 46 45 44 32 4 4 28 44 46 47 47 47 47
47 46 47 46 46 46 46 46 45 43 45 45 44 43 39 38
31 3 0 0 2 0 0 0 21 4 0 0 10 4 2 0
41 26 0 0 0 0 2 25 26 26 11 8 0 3 6 24
55 51 37 27 6 6 31 39 44 44 44 50 135 124 75 53
81 90 97 111 94 62 86 97 139 150 122 135 142 122 121 116
114 118 133 141 107 143 148 150 150 147 141 134 128 122 119 110
82 32 14 16 33 58 66 110 125 124 62 27 49 48 48 49
48 48 48 46 45 44 40 8 2 33 44 47 47 47 46 46
46 46 46 46 45 46 46 46 45 45 45 45 45 44 39 38
33 3 0 1 7 2 0 0 20 5 0 3 26 17 5 0
42 23 0 0 0 1 2 4 16 16 0 1 2 5 1 19
53 53 37 23 14 12 27 38 43 44 44 46 98 145 108 70
91 98 104 117 83 75 82 109 141 150 148 126 144 145 123 119
121 124 140 120 130 149 149 149 149 146 140 132 124 119 118 112
89 55 31 53 81 113 89 91 131 130 49 33 49 49 49 48
48 47 47 47 45 43 38 21 14 38 45 47 47 48 47 46
46 45 46 46 46 46 46 46 46 45 45 45 44 44 39 37
29 3 0 4 20 10 3 0 19 5 0 14 25 19 10 0
41 21 2 5 0 2 3 0 12 18 0 0 0 0 0 13
53 53 19 16 0 1 23 37 44 43 44 45 58 137 134 82
96 104 113 114 71 84 90 124 143 148 150 149 128 126 139 126
122 123 113 121 149 149 149 149 148 144 136 129 120 117 116 111
94 70 56 85 110 129 127 109 139 133 30 42 47 49 48 48
48 48 47 47 45 43 38 36 35 42 46 46 47 47 46 46
46 45 46 46 46 46 46 45 45 45 44 44 44 42 39 35
30 3 0 16 31 15 11 0 19 31 19 29 28 26 21 3
43 20 2 1 2 0 1 1 8 23 1 0 0 0 0 8
53 51 14 18 4 2 32 35 43 44 45 45 45 56 125 129
105 104 108 85 92 82 102 134 144 148 148 145 143 124 111 101
96 98 121 145 149 149 149 149 149 143 133 125 119 116 115 110
94 76 73 94 111 105 128 128 144 121 18 47 48 48 49 49
48 48 48 48 46 44 40 40 41 45 47 47 48 48 46 47
47 46 47 46 46 47 46 46 46 44 45 44 43 41 37 34
27 4 0 8 15 8 6 0 18 54 51 58 58 56 59 60
65 22 0 2 0 0 0 1 11 23 2 3 5 0 0 4
50 47 12 9 5 7 34 35 44 44 44 45 44 32 55 93
86 81 93 111 95 83 114 136 144 148 144 134 127 131 129 126
130 137 144 149 150 150 150 148 142 137 130 123 118 116 114 106
91 78 80 96 111 111 120 139 148 93 22 47 49 48 48 49
49 49 48 47 46 45 43 42 45 47 47 47 47 48 47 47
47 47 47 47 47 46 44 45 45 45 44 43 43 43 39 34
30 9 6 3 4 2 2 0 17 55 52 58 56 56 61 67
68 42 23 26 18 10 5 7 12 28 8 7 4 2 0 5
34 47 9 5 3 8 16 33 44 44 45 45 41 39 61 95
108 117 123 109 92 87 118 137 149 150 146 137 134 128 126 121
126 135 146 150 149 149 149 146 136 132 128 121 117 117 111 102
88 80 83 95 99 110 127 147 145 47 32 48 49 49 49 49
49 48 47 46 46 45 45 44 47 47 48 48 48 47 47 47
47 47 46 46 46 46 46 46 44 44 43 41 40 39 37 32
31 28 10 2 5 1 1 0 15 54 51 55 56 55 64 70
70 54 46 46 45 43 42 43 40 37 33 29 27 27 25 30
41 52 23 23 23 17 10 26 44 44 44 44 39 42 60 98
117 125 120 101 87 85 115 130 147 150 150 150 149 139 123 115
112 125 144 150 149 149 149 147 137 130 124 123 117 115 107 97
87 83 84 95 120 145 138 143 108 7 37 49 50 49 50 49
49 48 47 47 46 45 44 45 46 45 46 45 44 46 47 47
46 46 45 45 45 44 45 46 44 43 42 41 40 40 37 33
31 24 3 0 4 0 0 0 16 51 45 49 49 49 50 46
45 47 48 49 48 46 45 47 47 46 44 41 39 36 34 36
43 57 41 39 34 27 25 27 44 44 44 44 38 43 58 94
115 123 114 95 81 81 104 116 126 129 131 134 141 138 121 107
100 112 134 148 150 149 148 141 136 127 123 125 118 114 105 95
89 80 82 105 141 148 144 130 30 2 41 49 50 49 49 48
48 48 48 47 48 46 47 48 48 47 47 47 48 48 48 47
47 46 46 46 46 44 45 44 44 43 42 41 40 40 38 32
33 17 0 0 2 0 0 0 15 56 45 47 47 47 48 46
43 47 49 50 52 51 50 49 48 48 47 50 55 51 48 46
49 61 59 59 59 57 55 45 43 43 44 44 39 42 52 84
108 118 104 92 71 51 69 97 108 102 72 67 87 98 102 115
122 94 117 139 147 149 145 139 131 124 124 125 119 110 102 93
89 78 80 111 149 148 139 72 0 8 44 49 48 48 49 49
49 48 48 48 48 47 48 49 48 48 47 48 48 48 47 47
47 46 46 45 45 44 45 44 42 43 41 41 40 39 36 30
28 38 39 35 27 24 20 15 22 59 47 48 47 48 48 49
51 54 51 52 55 59 60 52 47 48 47 56 60 59 54 53
54 47 40 36 37 39 41 40 43 44 44 44 42 40 48 70
97 108 98 88 79 51 49 64 77 84 107 125 122 117 130 138
133 104 92 123 140 142 143 136 126 122 122 125 120 111 99 92
87 77 72 83 136 135 98 11 0 25 48 49 48 48 50 49
48 49 49 48 49 49 49 49 49 48 47 47 48 47 47 47
46 46 46 45 45 45 44 43 43 42 41 40 38 39 37 29
28 48 57 61 55 57 64 65 64 63 51 51 51 50 51 54
57 61 53 53 55 61 60 52 48 40 44 57 61 58 55 55
55 51 45 37 34 34 34 37 43 44 44 43 38 41 47 56
79 99 98 87 80 67 63 71 99 110 117 135 142 139 140 133
131 122 90 97 126 135 137 133 125 121 120 124 121 109 97 90
82 73 56 12 37 47 10 0 7 42 49 50 50 49 49 48
49 48 48 47 47 48 48 48 48 48 48 47 47 47 47 46
46 46 46 45 44 43 44 42 41 40 40 38 38 36 35 28
29 50 67 67 65 66 66 67 66 65 49 46 44 46 45 51
59 64 55 54 54 53 52 55 51 46 38 48 50 49 50 55
55 53 50 42 40 40 40 41 43 44 44 44 36 45 47 50
62 86 102 96 80 69 73 88 114 132 118 131 137 137 136 131
131 125 107 87 114 134 139 135 125 123 124 125 119 107 96 87
81 70 54 16 0 0 0 0 28 47 48 49 47 47 48 48
47 47 47 47 49 48 48 48 48 48 47 47 48 46 47 47
45 44 43 44 44 43 43 41 41 41 39 38 37 36 34 28
28 36 46 48 51 54 57 59 63 65 17 12 11 4 7 10
20 50 56 53 30 18 26 29 29 32 45 45 16 6 2 8
18 23 43 47 42 43 48 49 51 51 45 43 36 46 47 51
54 75 101 108 89 70 77 93 116 131 117 126 139 143 147 146
139 124 111 104 100 129 132 131 126 125 128 125 118 106 95 86
81 62 54 13 0 0 0 9 45 48 48 48 48 48 47 47
47 47 46 43 45 44 48 48 48 48 48 48 47 47 46 46
45 45 44 43 44 43 44 42 40 39 39 36 36 35 33 27
27 31 37 37 37 36 36 36 35 42 12 1 0 0 0 0
1 40 57 44 5 1 2 6 14 22 48 46 12 1 0 0
8 19 39 32 33 38 42 46 51 55 47 43 36 46 48 52
51 73 103 110 89 66 78 90 105 117 117 115 118 121 126 127
122 114 101 117 111 131 133 133 126 127 130 126 117 104 94 86
77 55 48 2 0 0 0 21 46 46 47 48 48 47 39 24
23 19 17 14 16 36 50 49 48 47 47 47 47 47 46 45
45 45 43 43 43 42 43 42 41 39 38 36 35 34 33 27
26 37 46 45 46 45 43 43 43 46 17 11 1 0 0 0
16 44 56 24 0 0 0 0 2 22 51 47 14 0 0 0
3 18 38 8 0 4 4 2 10 55 48 43 38 47 48 51
50 67 103 116 95 62 56 59 74 83 90 94 95 99 93 113
74 59 84 120 127 139 136 133 127 132 132 124 114 101 93 84
71 50 32 0 0 0 4 14 18 22 44 49 48 48 38 12
14 14 14 13 14 36 50 49 49 48 47 47 48 48 45 45
45 45 44 44 43 41 42 42 39 39 36 34 34 34 32 26
26 38 46 48 48 48 49 50 51 50 19 7 2 0 0 0
18 44 54 12 0 0 0 2 0 12 51 47 15 0 0 0
2 14 37 10 2 21 15 1 5 54 50 41 39 46 48 51
50 56 94 122 98 52 25 28 60 91 111 131 127 117 107 110
105 118 121 129 142 145 140 133 129 136 129 121 109 99 90 80
64 47 19 0 0 0 8 10 8 9 39 47 47 48 38 13
13 13 15 13 15 37 49 49 49 48 47 48 48 46 46 45
45 44 44 44 43 42 42 41 39 38 36 35 34 33 31 26
27 39 48 48 48 48 49 49 52 52 17 6 3 0 1 9
6 32 51 7 0 0 0 1 0 14 50 45 16 0 0 0
1 11 37 12 2 11 12 1 3 51 49 40 41 46 47 51
51 49 78 122 119 79 48 60 89 95 101 112 117 115 113 119
133 135 134 140 147 145 140 133 132 134 126 117 106 97 86 74
55 47 9 0 0 2 8 9 8 9 34 46 47 46 33 13
13 14 13 13 13 34 48 48 48 49 48 47 47 46 45 45
44 44 44 43 42 41 38 40 37 36 35 34 33 33 31 27
34 35 37 38 39 33 20 27 41 57 21 0 0 0 1 12
6 27 50 5 0 0 0 0 0 13 51 42 15 0 0 0
2 1 35 15 4 9 7 1 3 51 50 39 43 47 48 51
50 49 61 110 125 86 56 67 92 100 111 124 125 131 135 141
143 141 144 148 148 143 137 132 134 133 121 113 103 93 79 68
48 48 2 0 1 7 7 8 7 7 32 47 47 47 35 13
14 13 14 13 13 28 49 49 48 48 47 47 47 45 43 43
43 42 43 42 42 41 41 39 38 37 36 34 33 31 30 26
32 32 32 32 32 26 0 2 23 59 34 13 0 0 3 9
4 23 49 3 0 0 0 0 0 13 52 41 18 2 0 0
0 0 34 19 5 11 11 3 2 50 49 38 44 47 48 52
51 50 50 90 113 79 63 82 100 108 121 133 140 145 147 147
147 147 147 149 146 140 135 132 133 127 116 108 98 88 74 58
53 44 0 0 9 10 8 9 7 7 34 47 46 47 38 13
13 14 15 16 15 23 46 45 45 45 46 45 46 46 45 44
44 44 44 42 41 40 40 38 36 35 34 32 32 30 30 26
30 31 30 31 32 28 0 0 18 58 30 6 0 0 1 11
7 22 49 2 0 0 0 0 0 4 52 41 23 1 0 0
0 0 30 25 0 4 2 0 1 48 48 36 44 46 47 51
50 50 47 67 100 77 65 91 104 115 123 134 143 147 149 150
149 149 149 149 144 136 134 133 129 121 111 102 92 79 65 51
66 36 0 2 13 10 8 9 8 8 32 46 46 46 41 25
25 24 24 24 24 42 44 47 48 48 47 46 46 45 45 44
44 44 45 43 41 40 39 38 36 35 33 31 31 30 29 24
22 23 24 27 30 28 1 0 13 55 19 0 0 0 0 0
0 21 51 3 0 1 0 0 0 2 52 42 18 0 0 0
0 0 25 33 0 2 2 0 2 44 47 37 44 46 47 51
50 49 47 50 86 78 71 92 105 115 125 137 142 149 150 150
150 150 150 148 142 137 133 131 125 116 106 94 82 66 54 60
74 29 1 9 12 9 8 9 7 7 30 46 48 47 41 16
17 16 11 5 4 24 8 5 15 49 48 47 47 46 46 44
43 43 43 41 40 40 38 37 36 34 33 31 31 30 30 25
0 0 6 22 29 28 3 0 10 48 16 0 0 0 0 4
1 18 54 5 0 0 0 0 0 1 50 42 20 0 0 0
1 1 21 40 0 0 0 0 5 44 46 36 44 46 48 50
50 45 44 44 69 81 78 93 109 116 123 133 144 149 150 150
151 151 150 148 141 137 134 129 121 112 98 82 64 52 57 73
75 26 6 8 8 8 8 9 7 7 30 46 48 47 42 15
14 14 12 4 10 26 42 21 8 48 47 47 47 46 46 44
44 44 43 42 41 40 39 37 35 34 32 31 30 29 28 25
0 0 9 29 28 28 5 0 7 45 17 2 1 0 1 17
11 19 57 21 12 11 15 13 12 14 51 45 42 42 41 40
41 45 52 45 5 4 3 3 5 43 44 37 44 45 48 51
45 46 49 47 59 82 88 97 113 120 130 141 147 150 150 151
151 151 151 148 140 136 131 123 113 100 82 63 53 60 73 80
76 25 9 2 1 9 8 10 8 7 29 46 48 47 43 16
14 15 15 8 4 7 13 8 7 47 47 47 47 47 47 44
44 43 43 43 42 40 39 37 36 34 32 31 31 30 29 26
0 0 7 29 29 28 8 0 1 41 44 47 41 40 48 58
57 54 50 63 63 57 59 61 61 62 63 48 42 52 54 57
61 67 69 61 45 44 43 43 42 45 42 37 42 45 47 48
43 49 48 47 49 80 94 100 117 123 136 147 150 151 151 151
151 151 150 141 134 132 127 116 103 83 62 53 64 74 81 86
77 24 8 9 12 16 9 9 9 7 28 47 48 48 44 17
14 14 14 9 13 13 8 2 4 46 47 47 46 46 46 44
44 44 43 42 42 40 39 37 36 33 32 31 29 28 28 26
0 0 4 30 28 27 9 0 0 36 48 51 43 47 56 62
55 50 45 60 65 61 60 58 64 65 66 54 38 49 53 56
63 69 70 64 41 41 40 41 42 42 41 40 38 45 46 43
48 49 47 47 40 75 97 108 121 124 138 148 150 151 151 151
151 151 146 135 128 125 117 103 83 60 56 66 76 83 91 92
78 24 9 5 3 8 9 10 10 7 25 46 47 47 44 17
13 13 11 6 6 6 4 2 5 43 23 11 18 44 45 44
44 43 42 42 40 38 38 36 35 33 32 30 29 29 28 26
0 0 2 30 28 27 12 0 0 34 48 45 40 47 55 62
58 49 42 44 52 51 52 50 51 50 50 49 36 36 43 45
47 44 43 45 42 43 44 43 43 41 42 41 40 38 39 46
50 49 48 47 35 65 93 109 121 125 137 145 147 147 145 148
149 147 135 125 118 112 99 77 58 58 70 78 87 94 100 97
80 24 8 2 0 9 9 10 10 7 24 45 46 47 44 17
13 12 3 41 41 1 1 0 1 14 34 46 23 21 46 44
44 43 43 41 40 39 37 36 34 32 31 30 29 29 28 26
0 0 1 29 28 25 13 0 0 29 41 31 36 34 41 58
58 52 47 36 33 34 33 33 34 33 34 39 38 40 43 44
43 40 36 39 41 42 42 43 43 43 42 41 42 44 47 49
50 48 47 42 26 50 81 103 117 122 125 131 132 133 133 139
138 130 122 115 105 91 70 58 62 72 81 90 98 104 105 100
81 27 8 7 6 9 9 9 9 6 22 45 46 48 44 16
12 13 23 66 72 15 1 2 19 46 46 46 44 10 45 43
43 43 42 43 40 38 36 35 33 32 31 29 28 28 27 26
0 0 0 27 28 25 15 1 7 31 40 14 19 23 29 38
41 39 46 39 34 35 36 43 44 43 42 46 47 48 53 54
52 44 41 40 41 43 43 42 42 41 42 41 41 43 46 48
50 48 40 38 37 43 63 85 106 114 110 114 118 117 119 122
121 113 107 98 80 63 58 66 75 84 93 100 106 110 108 101
81 32 8 9 9 8 8 8 10 6 21 45 46 48 45 19
11 12 18 31 40 17 0 0 28 47 46 46 45 12 42 44
43 42 42 40 38 37 35 34 32 31 31 30 29 29 28 26
0 0 0 24 27 24 20 19 30 40 40 1 0 0 0 2
10 14 42 42 48 54 46 59 65 52 44 44 46 47 53 55
58 47 42 40 41 42 43 42 42 41 41 42 41 43 45 48
49 44 34 36 36 39 41 60 82 93 95 99 103 103 104 105
100 93 84 69 57 57 68 78 90 98 103 108 113 114 110 101
83 39 7 7 8 8 7 8 10 6 19 45 45 47 44 20
11 13 5 17 13 1 0 0 26 47 46 45 44 13 39 43
43 42 42 40 37 36 33 33 33 31 30 30 29 29 27 26
0 0 0 23 27 23 27 44 47 50 43 0 0 0 0 0
1 12 49 40 49 57 47 63 68 30 2 2 3 4 5 25
58 50 43 41 41 42 42 41 41 42 42 41 41 41 43 48
48 39 29 21 30 40 32 39 49 59 65 70 75 74 74 74
70 63 56 51 55 70 85 98 105 108 109 113 117 117 113 101
88 48 8 8 8 7 7 7 9 6 19 45 45 48 45 38
30 23 8 1 3 1 0 4 22 47 47 45 45 19 43 42
42 41 40 37 35 33 32 32 30 30 30 30 29 28 28 27
0 0 0 20 27 23 25 43 47 52 48 3 0 0 0 0
0 2 52 39 45 52 9 13 27 29 0 0 0 0 0 16
55 50 41 42 42 41 42 41 41 41 41 41 41 42 44 48
42 38 13 0 20 40 30 44 52 39 33 34 36 37 37 39
42 41 44 56 78 98 110 114 112 112 113 117 120 117 111 103
91 60 9 7 8 7 7 7 10 6 18 45 44 47 45 46
14 38 50 4 0 0 0 0 23 47 46 46 40 18 44 44
43 42 42 38 35 33 31 30 29 28 29 29 28 28 27 27
0 0 0 18 26 22 23 38 39 38 34 3 0 0 0 0
1 1 52 38 45 52 4 2 19 31 0 0 0 0 0 10
53 49 41 42 41 40 41 41 41 40 40 40 41 41 44 46
40 37 26 21 26 39 29 46 67 69 65 46 22 20 22 25
32 45 68 94 113 121 122 120 117 116 118 120 120 117 111 104
92 70 16 7 7 7 7 6 9 6 15 43 44 46 47 47
27 63 73 18 0 0 0 0 20 46 44 43 18 31 38 29
27 41 41 36 32 29 29 29 28 27 28 28 29 28 27 27
0 0 0 15 27 22 21 7 7 12 8 0 0 0 0 0
1 3 54 37 46 52 5 3 17 32 0 0 0 0 0 5
51 50 41 42 41 41 42 40 40 40 40 40 40 41 43 44
38 38 31 32 37 38 29 47 68 72 74 72 51 38 43 59
78 95 111 123 131 134 129 123 121 120 122 121 121 117 114 104
96 77 29 7 7 7 7 6 8 5 15 40 37 34 31 27
13 20 12 8 0 0 0 0 2 6 5 3 4 25 25 15
10 41 40 36 32 29 28 29 27 27 28 29 27 27 27 26
0 0 0 13 26 21 20 10 9 14 9 0 0 0 0 0
0 5 54 36 46 52 4 2 15 34 0 0 0 0 0 2
48 50 40 41 41 41 41 41 41 40 40 40 41 41 42 43
39 31 23 27 28 37 29 48 71 74 78 77 70 63 77 98
109 117 124 133 138 139 134 127 122 123 122 121 120 117 112 107
98 84 51 8 6 4 3 2 1 0 0 1 0 0 0 0
0 0 0 0 1 0 0 0 2 3 1 0 3 12 7 51
50 42 40 36 32 29 27 28 26 26 29 29 29 28 28 27
0 0 0 12 26 22 20 13 11 16 11 0 0 0 0 4
0 0 50 36 47 51 4 4 13 35 1 0 0 0 0 1
46 51 40 40 41 40 40 41 41 40 40 40 40 41 42 44
42 37 27 23 27 27 25 51 71 79 87 89 81 68 77 103
116 121 131 138 143 142 135 126 125 124 122 121 118 117 115 110
100 90 74 35 25 5 0 1 3 4 5 7 9 10 11 12
13 14 14 16 18 21 23 23 22 20 8 0 8 29 7 62
56 24 17 15 23 30 28 29 28 29 30 30 29 29 28 28
0 0 0 10 26 21 20 17 16 17 11 0 0 0 0 6
0 0 48 38 48 52 12 5 12 36 10 2 0 4 2 1
42 50 39 40 41 41 40 40 40 40 40 40 40 40 42 42
43 39 32 37 37 35 35 53 76 92 103 106 91 69 77 98
119 126 134 143 146 140 131 125 122 122 120 120 120 118 114 110
103 94 86 54 43 56 0 6 18 20 22 23 23 24 23 23
23 22 23 23 24 24 25 25 24 19 8 0 0 0 0 0
0 6 8 7 22 33 32 32 32 34 34 36 34 35 35 34
0 0 0 9 26 22 21 17 18 19 11 1 5 0 0 11
16 0 46 39 49 51 26 12 10 36 8 9 7 9 0 1
41 50 39 40 41 40 41 40 40 40 40 39 40 40 42 40
42 37 32 40 38 38 40 57 82 101 109 111 104 76 71 87
109 125 135 144 144 130 125 125 122 121 120 120 120 119 116 112
105 98 96 75 30 14 2 9 19 21 25 26 25 25 25 25
23 23 24 25 25 26 26 26 24 20 8 0 0 0 0 0
0 6 9 6 19 29 26 22 20 19 18 14 11 9 9 8
0 0 0 8 26 22 20 18 19 20 15 1 5 0 0 12
25 10 39 43 51 51 23 28 9 34 0 11 16 10 0 0
36 48 39 41 40 40 40 40 40 40 41 40 40 41 40 38
43 38 36 41 28 13 32 60 86 104 115 114 110 90 73 80
92 111 131 141 136 130 128 127 123 121 120 124 122 120 117 112
109 102 102 89 69 32 11 15 21 23 25 29 27 26 26 26
25 26 25 27 28 28 27 26 25 22 9 0 0 0 0 0
0 2 9 33 35 34 35 37 41 45 49 50 51 50 50 50
0 0 0 7 25 21 20 19 20 20 26 20 26 27 28 36
44 42 53 49 50 49 12 37 11 35 11 17 18 15 13 13
34 40 37 40 40 40 40 40 40 40 40 40 40 40 39 36
43 38 39 31 4 30 51 62 87 104 115 121 117 102 82 82
90 95 116 133 132 129 126 127 122 121 128 125 121 122 119 114
110 105 104 100 90 79 61 30 22 24 26 25 26 27 26 26
27 27 27 28 29 28 28 27 25 23 8 0 0 0 0 0
0 0 17 57 53 51 51 51 51 53 54 54 53 52 52 51
0 0 0 6 25 20 18 19 20 19 33 46 49 51 54 58
65 65 68 58 47 48 3 23 19 39 34 34 34 33 32 30
30 31 38 39 39 39 39 39 39 39 39 39 39 39 38 37
42 36 34 24 31 60 56 65 87 105 114 122 124 118 93 86
92 96 102 118 124 129 131 131 126 128 129 126 122 122 121 116
112 109 108 107 100 94 90 85 57 21 12 33 21 27 28 28
28 29 29 30 30 30 30 28 26 25 8 0 0 0 0 0
0 0 22 54 52 51 51 50 50 52 53 52 52 52 51 51
0 0 0 6 25 20 18 19 21 20 28 51 51 53 55 60
65 66 68 67 47 48 2 7 10 37 30 34 34 34 34 34
35 36 38 39 39 39 39 39 39 39 39 39 39 39 39 36
38 31 20 35 71 71 61 67 90 106 114 121 125 126 110 91
95 101 105 116 124 131 132 130 133 132 128 125 123 123 122 119
117 111 112 112 110 106 104 102 100 87 38 31 25 21 26 29
29 29 31 31 31 31 30 29 27 26 7 0 0 0 0 0
0 0 26 52 51 50 50 50 50 50 51 50 50 50 50 50
0 0 0 5 24 20 18 18 21 20 17 31 31 31 32 35
39 39 38 35 41 48 2 5 6 37 34 38 38 38 38 37
37 37 37 38 38 39 39 38 38 39 39 39 39 39 39 35
26 25 17 38 77 83 72 70 92 107 116 123 126 128 124 104
97 102 110 119 124 127 130 133 136 130 128 127 123 125 124 123
120 115 114 117 116 114 112 112 111 98 38 28 30 25 28 27
29 30 31 31 30 30 30 29 28 26 7 0 0 9 9 0
0 0 27 52 51 50 50 49 49 50 50 50 50 50 50 49
0 0 0 4 23 19 17 18 21 20 13 10 10 12 14 19
26 29 31 28 39 49 4 2 4 36 34 38 38 38 38 38
38 38 37 37 38 38 38 38 38 38 38 39 39 38 34 25
27 25 16 30 69 92 82 76 94 107 116 122 127 127 129 118
106 106 110 117 121 126 134 136 134 132 133 129 127 126 125 125
122 118 118 121 120 122 122 121 118 69 25 30 33 27 29 21
22 30 30 31 30 30 29 29 28 28 7 0 0 55 50 0
0 0 29 51 50 49 49 49 49 49 49 49 49 49 50 49
0 0 0 3 22 19 15 17 20 21 17 14 14 15 17 21
27 30 33 29 39 49 11 4 5 36 34 37 39 38 38 38
38 37 38 37 38 38 37 37 38 38 38 38 36 30 26 22
25 26 20 18 50 91 88 80 97 107 114 119 127 130 132 124
114 115 120 124 129 135 138 137 137 137 135 132 128 126 127 128
124 120 121 124 125 126 128 128 95 34 28 30 30 28 27 23
21 22 28 31 32 30 29 29 28 28 7 0 1 26 20 0
0 0 34 51 50 49 49 49 49 49 49 48 48 49 49 48
0 0 0 4 23 19 15 17 19 21 21 19 20 21 21 25
30 31 32 29 42 51 33 49 54 51 32 37 37 37 37 37
37 37 37 37 37 37 37 37 37 37 38 32 24 24 24 18
25 24 25 14 25 61 92 87 102 111 113 117 126 133 135 129
118 116 125 132 138 141 141 136 135 137 134 133 130 129 129 130
126 124 122 126 132 130 131 97 38 28 27 29 28 29 26 22
21 21 21 24 26 32 32 30 29 28 6 0 0 3 1 0
0 0 39 50 49 49 48 48 49 49 49 49 48 49 49 48
0 0 0 6 26 19 15 17 20 21 21 20 21 22 24 27
33 35 35 29 42 48 40 52 53 46 32 36 37 37 37 36
37 37 36 37 37 37 37 37 38 33 28 23 22 21 21 20
21 25 25 20 16 24 49 85 105 113 114 116 122 132 137 134
124 115 120 129 134 135 132 132 136 136 135 132 129 128 129 133
129 126 125 128 135 129 83 33 31 30 25 26 30 28 25 22
24 23 20 17 18 19 22 28 28 28 5 0 0 7 3 0
0 0 40 49 49 49 49 48 49 48 48 48 47 48 48 48
15 16 16 17 18 16 15 17 18 20 21 20 21 22 24 26
32 34 34 29 30 30 28 28 33 33 34 35 36 37 37 36
36 36 36 36 37 37 35 30 25 23 23 22 22 21 21 21
20 26 26 24 22 19 20 38 81 113 116 117 122 130 136 136
131 120 115 119 127 128 130 133 136 136 134 131 127 130 134 134
129 127 127 128 110 55 31 27 29 28 27 28 28 26 24 23
21 21 19 18 15 15 20 20 22 21 19 9 0 0 0 0
0 0 43 49 48 48 48 49 48 48 48 48 48 48 48 49
15 15 14 15 15 15 15 16 19 20 21 22 22 22 23 26
31 34 33 30 33 33 32 28 32 33 34 35 36 36 37 37
36 36 36 37 32 27 25 25 23 22 22 22 21 21 21 23
20 21 25 22 24 22 20 20 27 50 87 111 120 127 134 136
134 128 121 120 124 128 130 134 136 136 133 131 126 129 135 134
130 124 100 60 32 29 29 27 27 28 26 26 20 20 21 21
20 19 17 16 16 16 20 19 20 18 20 19 21 14 2 0
0 0 39 49 48 48 48 48 48 48 48 47 48 48 48 48
15 15 15 15 15 15 15 16 18 19 21 22 23 23 24 27
31 33 32 31 33 33 33 31 33 33 34 35 36 36 36 36
36 35 31 26 23 22 22 22 20 20 21 20 22 21 20 23
24 22 25 25 24 26 24 22 21 22 26 37 67 101 128 135
138 132 124 122 124 127 130 133 136 135 134 129 125 130 129 110
74 42 27 25 26 25 27 28 28 25 25 22 20 19 19 21
18 18 17 17 18 19 22 21 19 21 19 19 18 24 24 12
1 0 20 49 48 48 48 48 48 48 48 47 48 48 48 48
16 15 15 14 14 14 14 16 19 20 21 22 24 24 26 28
32 34 33 32 33 34 33 33 32 34 34 35 36 36 36 35
32 26 24 23 21 21 21 23 21 22 23 22 22 22 24 25
29 28 24 27 29 28 27 26 25 23 24 23 25 29 41 64
88 104 110 112 115 118 122 122 122 116 106 89 72 57 39 29
26 26 25 26 28 27 26 27 26 25 24 25 22 21 20 21
19 20 18 18 17 21 21 20 21 22 23 21 21 20 21 23
23 17 23 38 49 49 49 48 48 48 48 48 48 48 48 49
5 3 2 2 7 9 13 21 18 20 21 22 23 24 26 29
34 35 35 33 35 34 35 34 33 34 35 36 37 36 36 28
23 20 21 20 21 20 20 21 23 24 24 24 23 24 25 24
25 28 30 23 25 29 31 31 30 29 29 29 26 28 25 25
24 27 29 30 35 37 38 34 34 33 32 29 28 29 29 29
29 27 27 27 27 27 27 27 25 29 26 22 21 21 21 22
23 23 20 21 21 22 22 22 23 21 22 22 20 20 21 24
24 26 32 18 49 49 49 49 49 49 48 49 48 49 49 49
0 0 0 0 7 12 14 17 18 20 21 22 24 25 26 29
34 35 35 35 35 34 35 35 35 35 35 36 37 34 26 20
20 20 21 20 22 19 20 22 23 22 25 24 23 25 25 23
22 24 26 27 22 21 28 31 31 32 32 31 30 31 30 30
27 26 27 28 26 28 28 28 28 29 30 27 28 31 31 31
31 30 30 27 28 30 28 29 30 28 25 21 20 22 22 24
25 24 22 22 23 21 22 23 24 22 22 23 23 21 22 23
23 23 22 24 38 50 50 49 49 49 49 49 49 49 49 49
0 0 0 0 5 11 14 16 18 19 21 22 24 26 27 30
34 36 35 35 35 34 35 35 36 35 34 35 29 24 20 19
21 20 20 23 24 23 22 26 26 24 25 24 24 24 23 22
24 23 22 24 26 22 18 20 26 31 33 33 33 31 33 30
31 30 29 30 28 28 30 32 32 31 30 29 30 31 30 28
30 32 34 28 25 29 29 29 28 27 24 20 21 22 24 24
25 24 23 23 24 21 22 25 22 21 20 23 21 21 22 21
17 18 19 21 26 47 49 49 49 49 49 49 49 49 49 49
0 0 0 0 5 13 15 17 20 22 23 26 27 28 30 32
35 35 35 35 35 35 34 34 35 34 31 25 21 23 21 17
21 20 21 23 23 21 23 25 24 23 25 23 24 24 27 25
24 24 23 22 25 24 23 27 27 23 23 28 31 33 34 30
32 28 27 28 29 29 31 30 30 29 28 29 30 31 30 30
30 24 20 24 27 26 27 28 27 24 22 20 21 21 23 22
24 23 23 22 24 21 22 24 23 21 21 22 21 21 22 20
15 18 18 17 19 25 36 49 48 48 48 48 48 48 48 48
8 5 1 4 10 15 19 21 24 26 28 29 31 31 33 33
34 34 34 35 34 34 33 34 34 27 20 19 19 20 17 14
19 20 18 21 21 19 21 23 23 23 25 25 24 26 26 25
25 25 25 24 20 25 23 24 29 29 24 21 20 19 23 23
25 27 27 29 29 30 31 31 33 32 31 29 27 24 20 19
21 22 23 22 22 24 24 25 23 23 20 20 21 21 22 21
23 23 22 22 22 20 22 23 20 20 19 21 19 20 21 18
14 19 18 16 15 18 23 49 48 48 48 48 48 48 48 48
10 10 11 14 17 18 19 23 23 23 29 29 30 31 32 33
34 34 34 34 34 34 33 32 24 17 18 15 15 19 19 14
18 22 18 23 24 21 22 24 24 23 24 26 25 25 25 25
26 27 24 24 21 22 27 23 24 25 27 28 26 26 24 26
23 21 17 16 17 20 20 18 19 18 20 18 18 21 23 25
24 26 25 23 22 21 21 22 22 20 20 20 20 20 19 19
21 22 22 22 19 20 23 23 21 21 20 21 20 21 22 18
14 18 18 16 13 13 25 47 47 47 47 47 47 47 48 47
13 10 9 8 6 5 5 19 21 21 27 29 30 31 32 32
33 32 33 34 34 33 32 26 17 18 14 15 16 19 21 15
18 20 16 21 24 21 23 25 24 24 26 24 26 25 24 26
26 27 25 25 23 23 24 25 19 25 25 27 28 29 26 25
26 24 25 23 25 23 21 22 24 21 26 26 24 26 25 25
25 24 22 22 23 24 22 20 20 19 19 22 21 20 20 20
21 21 22 21 19 21 24 23 19 20 19 19 20 18 19 17
13 16 17 16 14 13 19 43 46 46 46 46 46 46 47 47
3 4 3 3 3 4 4 19 23 20 21 24 26 28 29 31
31 32 33 33 33 33 30 20 15 17 17 16 17 21 20 12
18 20 17 21 23 20 24 25 25 23 24 25 25 26 23 25
24 26 26 23 24 25 27 25 20 22 25 25 26 28 27 27
26 26 24 24 26 24 24 24 25 25 24 26 26 27 27 26
24 23 21 22 22 22 22 22 21 21 22 21 21 21 20 22
21 22 22 21 20 22 25 22 20 20 20 20 20 18 17 16
12 16 18 17 15 11 13 20 41 46 46 46 46 46 46 47
