P2
128 120
152
40 39 39 38 38 37 36 36 35 35 35 34 34 34 33 32
32 32 31 30 29 29 28 28 28 27 27 26 26 25 25 24
24 23 23 22 22 21 21 20 19 17 16 14 13 14 17 18
19 21 17 10 21 25 22 21 20 19 19 18 15 14 11 11
10 10 14 16 15 17 12 15 19 19 20 22 22 22 23 23
24 24 25 25 25 25 25 25 26 27 28 28 28 28 28 29
29 29 30 31 32 32 32 32 33 34 34 35 35 35 36 36
36 36 39 37 37 37 38 38 38 38 39 38 38 38 39 38
39 39 38 38 38 37 37 36 35 35 34 34 33 32 32 31
32 31 30 30 29 28 28 28 28 27 27 26 26 25 25 24
23 23 23 22 22 22 21 20 19 18 16 15 14 14 18 19
21 22 17 9 21 25 23 21 20 19 19 18 18 17 14 12
12 11 14 17 16 14 17 18 20 21 21 22 23 23 23 23
24 24 25 25 26 26 27 27 28 28 28 28 28 28 28 28
29 30 31 31 31 32 33 33 34 34 34 35 35 36 35 36
36 35 38 36 36 37 37 37 37 38 37 37 38 38 38 37
39 39 38 38 37 37 36 36 35 35 34 34 34 34 33 33
32 31 31 30 30 29 28 28 28 27 27 26 26 25 25 25
24 23 23 23 23 22 21 22 20 19 17 17 16 16 21 22
24 24 18 9 20 27 24 22 22 20 20 19 19 17 16 17
14 11 13 16 18 16 18 20 22 22 23 23 24 24 25 26
25 26 26 27 27 27 28 28 28 28 28 29 29 29 30 31
32 33 32 33 33 34 35 34 34 35 35 35 36 36 36 36
37 37 39 36 37 38 37 38 38 37 38 38 39 38 38 38
39 38 39 38 38 37 37 36 36 36 35 34 34 33 33 32
32 31 31 30 30 29 29 28 28 27 27 27 26 26 25 24
25 24 23 23 22 23 22 21 20 19 18 17 16 17 22 23
25 24 18 10 19 27 24 23 23 22 20 20 19 17 17 18
17 12 11 18 15 18 19 21 22 23 23 25 26 26 26 26
27 27 27 27 27 28 28 28 29 29 29 30 30 31 30 31
32 34 33 33 33 33 34 34 35 35 35 35 36 36 36 36
37 38 39 36 38 38 38 38 39 37 38 38 38 39 38 37
40 39 38 38 37 37 36 36 36 35 35 34 34 33 33 33
33 32 31 31 30 30 29 29 28 28 28 27 27 26 26 25
25 24 24 24 23 22 22 21 21 21 20 19 18 18 24 25
26 26 19 13 18 27 24 24 23 23 21 21 20 17 19 20
18 15 10 20 16 19 21 23 24 25 24 26 26 26 26 27
27 27 27 27 28 28 29 30 30 30 30 31 31 31 32 32
33 35 33 34 34 34 35 34 36 35 35 35 36 36 37 37
37 37 39 37 38 37 38 39 38 39 38 37 38 38 39 40
39 39 39 38 38 38 37 36 36 35 35 35 34 34 33 33
33 32 32 30 31 30 30 29 29 28 28 28 27 26 26 26
26 25 24 24 24 24 23 22 22 22 21 21 20 20 26 25
26 26 19 14 17 28 25 24 24 23 23 22 21 19 20 20
19 17 11 20 18 21 23 24 24 25 25 27 27 28 28 27
28 28 28 29 29 30 30 30 31 30 31 31 31 32 32 33
33 33 34 34 35 35 35 35 35 35 36 36 37 38 37 37
37 37 39 38 37 37 36 36 37 37 38 39 39 39 39 39
39 39 39 39 39 37 37 37 36 36 35 35 34 34 33 33
33 32 32 31 31 30 30 29 28 28 28 27 27 27 26 26
25 25 25 25 24 24 23 23 22 22 22 22 22 22 27 27
28 27 20 15 16 29 26 25 24 23 23 23 22 21 20 21
20 19 12 20 20 23 25 25 25 26 27 28 27 27 27 29
29 29 30 30 30 31 30 31 32 32 32 32 33 33 33 33
33 36 34 35 35 35 36 36 37 36 36 36 37 37 37 37
38 38 37 36 37 37 38 39 38 39 39 39 38 40 39 39
40 39 39 39 38 38 37 37 36 36 36 35 35 34 34 34
33 33 32 32 31 31 31 30 29 29 29 28 28 27 27 26
26 26 25 25 25 24 24 23 23 22 23 22 23 22 27 28
28 28 21 17 15 29 27 25 25 25 24 24 23 22 21 21
21 20 13 22 21 24 25 26 26 26 26 27 29 29 29 29
30 30 30 31 31 31 32 32 32 32 32 33 32 33 34 34
34 36 34 35 35 36 36 36 37 36 36 38 38 38 36 35
37 36 38 39 38 37 39 38 38 38 39 39 38 40 40 39
40 40 39 38 38 38 37 37 36 36 36 36 35 34 34 34
33 33 32 32 31 31 30 30 30 29 29 28 28 27 27 26
27 26 26 25 25 24 24 24 24 22 22 23 23 23 28 28
28 28 21 19 15 29 28 26 26 25 25 25 24 26 22 22
22 21 14 22 20 24 26 26 26 27 28 28 29 29 29 29
30 30 31 31 31 31 32 32 33 33 33 33 33 33 34 34
34 35 35 36 36 37 37 36 36 34 34 36 35 36 37 39
39 39 39 38 38 38 38 38 38 38 40 40 39 39 39 40
40 39 39 39 38 38 37 37 36 37 36 36 35 35 35 34
34 33 32 32 31 31 31 30 30 29 30 29 29 28 28 27
27 26 26 26 25 25 25 25 24 24 24 23 25 24 29 29
29 29 22 20 15 29 28 27 26 26 26 25 25 24 23 23
23 22 18 23 22 26 27 28 28 28 29 30 30 30 30 31
31 31 32 32 32 32 33 33 33 33 33 33 34 34 34 35
35 37 36 37 37 37 37 35 36 38 37 37 38 38 38 39
38 38 38 38 39 39 39 39 39 39 39 40 39 40 40 40
40 39 39 39 39 38 38 38 38 37 37 36 36 35 35 35
34 34 33 32 32 32 31 30 30 30 29 29 29 28 28 27
27 28 27 27 26 25 25 25 25 25 24 24 25 26 30 30
30 30 23 20 16 29 29 26 25 26 26 26 26 26 23 24
24 23 20 24 24 28 28 28 29 29 30 30 30 31 31 32
32 33 33 32 33 33 33 34 34 34 34 35 35 35 35 36
35 37 35 35 34 34 35 37 38 38 39 38 38 38 38 39
39 38 39 39 40 40 39 39 39 40 40 39 39 40 40 40
40 40 39 39 38 38 38 37 37 37 36 35 35 35 35 34
34 34 34 32 33 32 31 31 31 30 30 30 29 29 29 28
28 27 27 27 26 26 26 24 25 24 24 24 25 26 30 30
31 31 24 20 13 25 29 27 27 28 27 26 25 26 24 24
24 23 20 25 25 28 29 29 29 30 30 31 31 31 32 31
32 33 32 33 33 33 34 34 33 34 34 35 35 35 35 35
33 33 34 36 38 37 38 38 38 38 39 38 39 38 38 39
39 39 39 40 38 38 40 39 39 39 39 39 40 40 40 40
40 39 39 39 39 38 38 37 37 37 36 36 36 36 35 35
35 34 34 33 32 32 32 32 31 30 30 30 29 29 29 28
28 27 27 27 27 26 26 26 25 25 25 25 26 26 31 31
31 31 23 18 9 23 30 29 29 28 27 27 26 27 25 26
26 25 20 27 26 29 30 30 30 30 30 31 32 31 32 32
33 34 33 33 34 33 35 35 35 35 36 35 34 34 34 35
37 36 36 38 37 38 37 38 39 38 40 39 38 39 39 39
39 39 39 39 39 39 40 40 40 39 40 39 40 40 39 40
40 40 39 39 39 38 38 38 37 37 37 36 36 35 35 35
35 34 33 33 33 32 32 31 31 31 31 31 30 30 29 29
29 28 27 27 27 26 26 26 25 25 25 25 26 27 31 32
32 31 24 19 18 26 31 29 29 28 28 27 28 28 25 26
26 26 22 28 27 30 30 30 31 31 31 32 32 32 33 33
33 34 33 33 34 35 34 34 34 35 34 34 35 36 36 36
37 37 37 37 38 38 38 38 39 39 41 39 39 39 39 40
39 40 39 39 39 40 39 40 40 40 40 40 40 40 40 40
40 40 39 39 40 39 38 38 38 38 38 37 37 36 36 36
35 35 35 34 33 32 33 32 32 31 31 31 30 30 29 29
30 29 28 28 28 27 27 27 26 26 26 27 27 28 32 32
32 32 25 20 22 24 32 30 30 29 29 28 28 29 26 26
27 27 22 30 28 30 31 31 31 32 32 32 33 33 33 34
34 35 34 34 34 34 35 35 35 36 35 36 36 36 37 37
38 37 38 38 38 39 39 38 39 39 40 39 39 40 40 39
40 40 40 40 40 40 40 41 40 40 40 40 41 40 41 42
40 40 40 39 39 38 38 38 38 38 38 37 36 36 36 36
36 35 35 34 34 33 33 32 32 32 31 31 31 30 30 30
29 28 28 28 28 27 27 27 26 26 27 26 27 28 32 33
33 32 26 20 25 23 32 30 31 30 30 28 28 30 26 27
27 27 23 31 28 31 32 32 32 33 33 33 33 34 34 33
34 33 33 34 34 35 36 36 36 37 36 37 37 37 37 38
37 38 38 38 39 38 39 39 39 39 40 39 40 39 40 39
40 40 40 40 40 40 40 40 41 41 41 41 41 41 41 40
41 40 40 40 39 39 40 39 38 37 37 37 37 37 36 36
36 35 35 34 34 34 33 33 32 32 32 31 31 31 31 30
30 29 29 28 29 28 28 27 27 26 27 27 28 29 33 33
33 33 26 21 27 22 33 31 31 31 30 30 30 31 28 28
28 28 24 31 29 32 32 32 33 33 33 33 33 34 34 34
34 34 35 35 36 36 37 37 37 38 37 37 38 38 37 37
38 39 38 39 39 40 39 40 40 40 41 40 41 40 41 40
41 40 41 40 41 40 41 40 42 41 40 40 40 40 41 42
40 40 40 40 39 39 39 39 39 38 38 38 37 37 36 36
36 35 35 35 35 34 33 33 33 32 32 32 32 31 31 30
30 29 29 28 28 28 28 28 27 27 27 28 29 30 34 34
34 34 28 23 28 21 33 31 31 31 30 30 29 31 28 28
29 29 24 31 30 33 33 33 33 33 33 33 33 34 34 35
35 35 35 35 36 37 37 37 37 38 38 38 38 38 38 38
38 38 39 39 39 39 40 41 40 41 41 40 40 41 41 41
41 41 41 41 41 41 40 40 41 40 41 42 41 40 40 41
40 41 39 40 40 39 39 39 38 38 37 37 36 37 36 36
36 36 35 35 34 34 34 34 33 33 32 32 32 31 31 31
30 30 29 29 29 28 28 28 28 27 27 27 28 29 34 34
34 34 28 22 29 22 33 33 32 32 31 30 30 31 29 29
29 29 26 31 30 32 33 32 33 33 34 35 35 35 35 35
35 36 35 36 37 37 37 37 38 38 37 37 38 38 39 39
38 39 39 39 39 40 41 40 40 40 41 40 40 40 41 41
41 41 40 39 40 40 40 40 40 41 41 41 41 41 40 40
40 39 39 39 40 39 38 38 38 38 38 37 37 36 37 36
36 35 36 35 34 34 34 33 33 33 33 33 32 31 31 31
30 30 30 29 29 29 28 28 28 28 28 28 29 30 34 35
35 34 29 23 29 21 33 33 32 32 31 31 30 32 30 30
30 30 24 31 26 33 33 33 34 34 35 34 35 35 35 35
35 36 36 36 36 38 37 37 37 37 38 38 38 38 38 39
39 39 39 40 39 39 40 40 40 40 41 40 41 40 39 39
40 40 41 41 40 41 41 40 40 41 41 40 40 41 41 41
40 39 39 39 39 39 39 38 38 38 38 37 37 36 36 36
35 35 35 35 35 34 34 34 33 33 33 32 32 32 32 32
31 31 30 30 29 29 28 28 28 28 28 28 29 30 34 35
35 34 29 23 30 23 33 33 33 32 32 31 31 33 30 30
30 30 25 32 30 33 34 33 34 34 35 34 36 35 36 36
36 36 36 36 36 38 37 38 38 38 38 38 38 38 38 38
38 39 40 40 39 40 41 41 41 39 38 39 39 39 41 41
40 41 41 43 39 41 40 40 40 41 40 41 40 41 40 40
40 39 39 39 39 39 39 38 38 38 38 37 37 37 37 37
37 36 36 35 35 35 34 34 33 33 33 33 32 32 32 32
31 31 31 30 30 29 29 29 29 29 28 29 29 30 35 36
36 35 30 24 30 25 32 32 33 33 32 31 31 34 31 31
31 30 27 32 30 33 34 34 34 35 36 35 35 35 36 36
35 37 37 37 37 37 38 37 37 38 38 38 39 39 39 39
39 39 40 40 40 39 39 39 39 41 41 41 41 41 41 41
41 41 41 43 40 41 41 41 42 41 41 42 42 41 41 41
40 40 40 39 39 39 39 38 38 38 37 37 37 37 36 36
36 36 36 36 35 35 34 34 34 34 33 33 33 33 32 31
32 30 31 30 30 29 29 29 29 28 29 29 30 30 35 35
35 36 30 24 31 27 31 33 33 33 32 32 31 32 31 31
31 30 27 32 30 34 33 35 35 35 36 35 35 34 34 33
31 32 32 34 34 36 36 37 37 38 39 39 39 39 40 39
39 39 39 39 39 40 41 41 41 40 40 40 41 41 41 41
41 40 41 42 40 40 40 40 40 41 41 41 41 41 41 42
40 40 40 39 39 39 39 39 39 38 38 38 37 38 37 37
37 37 36 36 35 35 35 34 34 34 33 33 33 33 33 32
32 32 32 31 31 31 30 30 30 29 30 30 31 31 36 36
36 36 32 24 31 30 30 33 34 34 33 33 32 34 32 32
32 31 29 33 30 34 35 35 35 34 36 32 24 14 13 9
7 9 11 13 16 22 28 31 33 36 37 38 39 39 39 39
40 40 41 41 41 41 42 42 41 42 41 42 42 42 42 41
42 42 42 42 42 41 41 41 40 41 41 41 41 41 41 41
40 39 39 39 40 39 39 39 39 38 38 38 37 37 37 37
37 36 36 36 35 35 35 35 34 34 34 33 34 33 33 32
32 32 31 32 30 31 31 30 30 29 30 30 31 31 36 37
37 37 31 24 32 32 28 34 34 34 33 33 33 31 32 32
31 31 28 31 30 34 33 32 29 24 18 9 2 0 0 0
0 0 0 5 10 12 13 14 21 31 36 36 38 39 40 40
40 41 42 41 41 42 42 42 42 42 42 42 42 41 42 42
42 41 41 43 41 41 41 41 41 42 41 41 41 42 42 41
40 40 40 40 39 39 39 39 39 38 38 38 38 38 37 37
37 36 36 37 36 36 35 34 34 34 34 34 33 33 33 33
33 32 32 32 31 31 31 30 30 30 30 30 31 32 36 38
37 38 33 24 32 35 26 35 35 35 34 34 34 30 33 32
32 32 28 30 26 25 18 9 4 4 2 1 0 0 0 0
0 2 1 0 0 3 8 14 19 24 32 38 40 40 40 41
41 40 43 41 42 42 42 42 42 42 42 42 42 42 42 42
42 41 42 43 42 41 41 43 41 41 42 41 41 42 41 41
40 40 40 39 39 39 39 39 39 39 38 38 38 38 37 37
37 37 37 37 36 36 36 36 35 35 35 34 35 34 33 33
32 32 32 32 32 31 32 31 31 30 31 30 31 32 37 38
38 37 32 25 32 36 26 36 35 34 34 34 34 31 34 32
32 30 22 14 7 5 3 2 1 0 0 0 5 0 0 0
0 1 0 0 0 1 1 3 18 22 27 36 40 41 41 41
42 41 43 42 43 42 43 42 43 42 43 42 43 42 43 42
42 42 42 43 42 42 42 41 41 41 41 41 41 42 42 42
41 41 40 40 39 40 39 40 39 38 39 39 38 38 38 38
38 38 37 37 36 37 36 35 36 35 35 35 35 35 34 35
34 33 33 33 32 32 32 32 32 31 31 31 32 33 38 38
38 38 33 24 32 39 26 36 35 34 34 35 34 29 30 25
23 14 6 3 1 0 0 0 0 0 0 0 1 0 0 0
0 0 0 1 2 2 2 0 3 17 27 33 39 41 42 41
42 42 43 43 42 43 43 43 43 43 42 43 43 42 43 43
43 42 42 43 44 42 43 42 42 43 43 43 42 42 41 41
41 40 40 40 40 40 40 39 40 39 40 39 39 39 39 38
38 38 37 37 37 36 37 36 36 36 36 35 35 34 34 34
34 33 33 33 32 32 32 32 32 31 32 32 33 34 38 39
39 39 35 24 33 40 26 35 33 31 34 33 26 18 11 8
4 1 0 0 0 0 0 0 0 0 0 0 0 0 0 0
0 0 0 0 1 1 1 1 1 0 9 29 40 41 42 43
43 42 43 43 43 43 43 43 43 43 43 42 43 43 43 42
43 43 43 43 44 42 43 44 43 42 42 40 41 40 41 42
41 41 41 41 40 40 41 40 40 40 40 39 39 39 39 38
38 38 38 38 37 37 37 36 37 36 36 36 35 35 35 35
34 34 34 33 34 33 33 33 32 32 32 33 33 34 38 40
40 40 35 24 33 40 26 35 35 31 31 25 18 10 7 2
0 0 0 0 0 0 0 0 0 0 0 0 0 0 0 0
0 0 0 0 0 3 6 7 5 1 0 9 32 42 43 43
43 43 44 43 43 43 43 43 43 44 43 42 43 43 43 43
44 43 44 44 43 41 40 40 41 41 42 44 43 44 41 40
41 40 41 40 41 40 40 40 40 40 40 40 39 39 39 39
38 38 38 37 37 37 37 37 36 36 36 37 36 36 35 35
34 34 34 33 34 33 33 33 32 32 33 33 34 34 38 40
40 40 36 25 32 41 29 31 34 31 24 9 2 2 0 0
0 0 0 0 0 0 0 0 0 0 0 0 0 0 0 0
0 0 0 0 0 0 2 6 8 6 3 2 19 40 43 43
43 43 44 44 44 44 44 44 44 44 44 43 43 44 44 44
43 42 42 41 41 41 44 43 42 41 40 42 43 44 41 42
40 41 41 41 40 40 41 40 40 40 40 40 40 39 39 39
39 39 38 38 38 38 37 37 37 37 37 36 36 36 36 35
35 34 34 35 34 34 33 33 33 33 33 33 34 35 39 40
40 40 36 25 33 41 31 29 30 17 2 0 0 0 0 0
0 0 0 0 0 0 0 0 0 0 0 0 0 0 0 0
0 0 0 0 0 0 1 4 7 8 4 2 4 19 40 44
44 44 45 44 44 44 44 45 44 45 44 44 43 41 41 41
42 43 44 44 43 43 43 43 43 43 43 43 42 44 42 42
21 41 41 41 41 41 40 41 40 40 40 40 40 40 40 39
40 39 39 39 38 38 38 38 37 37 37 37 36 36 36 35
35 35 35 34 34 34 34 34 34 33 34 35 35 36 40 41
40 40 37 26 32 39 30 23 18 1 0 0 0 0 0 0
0 0 0 0 0 0 1 3 2 0 0 2 1 0 0 0
0 0 0 0 0 3 3 3 7 6 6 7 7 3 23 42
44 44 45 44 44 43 45 44 43 43 42 43 43 44 45 44
44 43 44 44 43 43 42 42 42 43 43 43 43 43 42 42
21 41 41 41 41 41 41 40 41 40 41 41 41 40 40 40
40 40 39 39 39 39 38 38 37 37 37 37 37 37 36 36
36 35 35 35 35 34 34 34 34 34 34 34 35 36 40 41
40 40 38 27 32 36 29 17 4 0 0 0 0 0 0 0
0 0 0 0 0 3 10 6 2 2 4 3 1 2 3 2
0 0 0 0 0 1 6 3 3 8 6 5 10 6 5 32
44 44 44 44 44 43 44 43 45 44 43 45 43 43 43 43
44 44 43 43 43 43 42 43 43 43 43 42 42 43 42 42
19 39 42 41 42 42 41 39 38 40 41 41 41 40 40 40
40 40 40 39 39 38 38 37 38 38 37 39 41 39 37 36
36 36 35 35 35 35 36 35 34 35 34 35 36 36 40 41
40 40 39 27 31 40 33 4 0 0 0 0 0 0 0 0
0 0 0 1 4 6 4 1 0 0 0 3 6 14 19 21
22 12 8 8 6 1 2 7 6 6 8 8 3 5 2 10
38 43 44 43 43 43 43 43 43 43 43 44 43 43 43 43
44 43 44 44 44 43 43 43 43 43 42 43 43 43 43 42
20 41 42 42 42 42 41 41 51 50 47 45 43 41 40 39
39 40 40 39 39 39 38 38 38 38 37 50 54 50 45 42
40 37 35 36 35 35 35 35 35 34 34 35 35 36 40 42
41 41 38 27 32 36 16 0 0 0 0 0 0 0 0 0
0 0 1 4 1 0 0 0 0 0 5 12 22 38 61 70
76 55 33 33 29 16 6 5 8 6 6 7 4 2 0 0
22 43 44 44 44 44 44 44 44 44 43 45 44 44 44 44
44 43 43 43 44 44 43 43 43 44 43 43 43 43 43 42
22 41 43 42 42 42 42 42 55 53 53 52 48 46 45 43
40 40 40 40 39 39 37 38 38 37 38 52 52 50 46 48
48 44 38 36 36 36 36 35 35 35 35 36 36 37 40 42
42 41 39 27 32 27 6 0 1 0 0 0 0 0 0 0
0 0 0 0 0 0 0 0 0 5 14 27 46 76 97 101
104 94 70 51 42 33 27 10 8 8 8 3 6 2 1 0
9 39 44 44 44 43 44 44 44 43 43 44 44 44 44 44
44 43 44 43 44 44 43 43 43 43 43 43 43 41 43 43
24 45 44 44 43 42 42 42 55 54 53 49 48 49 51 53
47 47 45 42 40 39 38 39 39 38 39 49 50 48 45 47
47 46 39 36 35 36 35 35 34 35 35 35 37 37 40 42
42 41 39 25 19 13 1 1 0 0 1 0 0 0 0 0
1 0 0 0 0 0 0 0 5 13 35 55 79 102 110 114
116 113 97 73 50 44 37 26 11 8 7 7 6 5 0 0
0 25 43 44 43 43 44 44 43 43 44 44 44 43 43 44
43 44 43 43 43 42 43 43 42 43 44 43 43 42 43 43
25 48 47 45 45 44 43 42 51 49 53 50 50 53 54 55
48 47 49 51 47 44 42 41 39 39 38 39 23 29 34 43
47 48 41 37 37 37 36 36 35 35 35 35 36 37 40 43
42 40 27 20 10 4 0 0 0 0 2 0 0 0 0 3
0 0 0 0 0 0 0 5 11 27 60 74 99 112 118 125
127 124 118 101 73 53 50 36 23 12 12 8 9 9 5 1
0 11 42 43 44 43 43 43 43 43 44 44 44 44 44 44
43 43 43 44 44 44 43 43 42 43 43 43 43 43 44 43
25 48 48 38 42 48 49 51 36 0 9 29 43 49 53 54
47 9 13 24 34 45 44 45 50 46 42 39 18 14 16 9
12 17 41 37 37 37 37 36 36 36 36 37 38 38 41 43
42 41 29 18 8 0 0 0 0 1 0 0 0 1 4 3
0 0 0 2 0 1 4 7 20 50 76 93 113 120 126 133
135 135 129 120 103 76 62 55 35 26 16 12 8 11 4 0
0 2 36 45 44 44 44 44 44 44 44 44 45 44 43 43
43 43 44 44 44 43 43 43 44 43 45 43 44 43 43 44
25 47 49 45 40 37 51 55 38 0 0 7 18 20 18 27
49 3 0 0 0 1 9 17 28 38 43 39 16 4 13 14
6 0 40 37 37 37 36 36 36 36 36 37 38 39 41 44
43 42 36 18 4 0 0 0 1 1 0 0 0 2 6 1
1 1 1 2 1 3 6 12 39 69 91 109 120 125 133 137
141 143 140 132 120 107 83 71 51 35 29 16 8 8 7 0
0 0 22 44 44 43 44 43 44 43 44 44 45 44 43 45
43 44 43 44 44 44 45 44 43 44 44 44 44 42 40 40
18 15 26 37 49 51 54 55 40 0 0 4 10 16 17 19
48 3 0 0 1 0 1 0 0 0 28 40 13 1 4 5
5 0 42 38 38 37 37 38 37 37 37 38 39 40 42 44
44 43 39 19 1 0 0 0 0 0 1 1 1 4 4 5
4 1 3 3 6 9 10 21 59 82 104 120 127 127 135 140
143 145 143 138 127 118 109 93 76 56 41 33 15 6 6 3
0 0 13 43 45 44 44 44 44 44 44 44 45 44 44 44
44 44 43 44 44 44 45 44 44 44 44 44 44 44 45 44
15 0 0 0 2 12 25 36 40 0 0 3 7 3 9 15
49 10 1 0 0 0 0 0 0 0 28 38 6 0 0 4
3 0 45 38 38 38 38 37 38 37 38 38 39 40 42 45
44 43 39 21 0 0 0 0 0 3 4 3 4 4 5 8
5 5 4 10 10 12 22 38 75 92 110 123 131 135 139 139
142 143 143 140 131 124 120 114 101 84 63 47 30 10 8 4
0 0 8 41 45 45 45 45 45 45 45 45 45 45 44 44
44 44 44 44 44 44 45 45 46 45 45 44 44 44 44 44
14 0 0 0 0 0 0 0 27 0 0 0 1 0 3 12
46 2 0 0 0 1 0 0 0 0 26 34 0 0 0 0
4 1 45 38 38 38 38 38 38 38 38 39 40 40 42 45
44 42 41 18 0 0 0 0 0 4 6 4 5 5 7 5
5 7 9 9 12 19 40 66 94 109 116 129 134 137 138 137
139 140 141 137 131 127 122 119 113 101 92 67 48 22 8 8
0 0 2 36 46 45 46 45 46 45 45 45 45 43 45 45
46 45 46 46 44 44 45 45 45 45 44 44 44 44 44 45
14 0 0 0 0 0 0 0 23 0 0 0 0 0 0 16
49 5 0 0 0 8 14 2 0 0 24 33 1 0 0 0
2 1 47 39 39 38 39 38 39 38 38 39 40 40 43 45
44 44 38 12 0 0 1 3 3 3 4 7 6 6 5 4
5 10 11 11 15 27 51 87 111 120 123 133 137 139 137 135
135 135 135 132 127 123 122 119 116 110 103 85 64 34 6 7
2 0 0 30 46 46 46 45 45 44 44 44 46 45 45 46
45 45 45 45 45 46 46 45 46 45 44 45 44 44 45 45
15 0 0 0 0 0 0 0 20 0 0 0 0 0 0 15
52 4 0 0 0 11 19 15 9 1 22 34 0 0 0 0
0 0 44 40 39 39 39 39 39 39 38 39 40 41 42 46
45 43 38 9 0 0 1 2 6 2 5 7 7 10 3 3
6 10 9 13 21 32 66 106 124 130 129 136 138 137 136 133
131 130 130 129 126 121 121 120 117 113 108 95 80 52 9 0
3 0 0 22 45 45 45 45 46 45 45 45 46 45 45 45
45 45 44 43 45 47 47 45 45 45 46 46 46 46 46 46
16 0 0 0 13 12 0 0 17 0 4 0 0 0 0 11
53 5 0 0 2 15 19 18 18 6 20 37 0 0 0 0
0 0 42 41 40 39 39 38 38 39 39 39 40 41 43 46
44 45 35 8 0 1 1 2 5 2 4 7 5 8 5 4
9 10 10 17 23 45 89 119 132 132 133 133 133 132 131 129
129 130 131 130 128 124 120 119 118 115 108 97 89 68 20 0
2 0 0 18 45 46 45 45 46 46 45 46 46 45 45 45
45 45 44 45 45 46 47 47 46 46 47 46 47 44 42 41
15 0 13 8 4 4 0 0 16 1 2 0 0 0 5 13
54 6 0 1 1 13 18 17 17 7 18 39 0 0 0 0
0 0 40 42 40 40 39 40 39 39 39 41 41 42 43 46
46 44 34 11 1 1 1 1 1 1 5 7 6 6 7 9
10 10 13 21 38 73 110 124 131 131 131 130 127 125 124 125
126 127 132 136 134 129 123 120 119 115 110 99 90 78 39 2
0 2 0 11 42 46 46 46 45 46 46 45 46 46 46 46
45 45 46 46 45 47 46 45 45 44 47 45 41 41 42 41
15 5 9 0 5 6 0 0 16 1 0 0 0 0 5 20
55 9 0 5 2 1 8 16 17 4 14 48 35 23 13 6
1 1 36 42 40 39 39 39 39 38 39 40 40 42 42 46
45 44 36 13 0 3 5 1 0 0 1 2 5 7 9 7
7 8 14 30 72 113 124 128 129 130 125 120 118 117 109 115
121 125 132 137 138 136 129 123 121 118 113 105 91 79 56 12
0 2 0 8 39 45 46 46 46 46 45 46 45 45 44 45
45 44 41 41 45 46 42 43 42 40 38 35 31 27 22 19
15 4 1 0 0 0 2 0 26 15 7 4 6 0 0 14
59 42 33 22 15 5 0 2 10 2 12 50 52 48 50 49
51 51 55 41 39 39 38 38 38 38 39 39 41 41 43 46
46 45 34 14 1 3 5 2 1 0 0 0 7 10 4 4
6 10 20 59 111 123 124 129 127 123 114 107 104 102 95 100
107 109 123 132 139 140 134 130 124 122 118 113 102 84 64 32
0 0 0 9 39 45 46 45 45 45 45 43 41 41 40 43
43 41 43 41 39 35 31 27 23 21 19 19 20 21 23 18
15 0 0 0 0 0 0 0 35 58 49 41 40 35 22 18
61 37 29 34 39 43 41 34 28 23 26 54 52 49 49 49
56 58 58 41 38 39 38 37 38 38 38 38 40 40 42 46
45 44 32 16 0 0 4 2 0 0 0 2 4 2 0 5
5 5 36 101 125 123 124 124 120 113 94 75 76 77 83 88
67 43 52 60 89 125 135 135 127 125 123 118 111 98 75 46
2 0 0 10 39 43 40 40 40 40 42 41 42 41 38 34
31 27 23 22 21 21 20 22 23 25 25 27 27 28 28 24
14 0 0 0 0 0 0 0 37 62 45 53 55 59 60 57
62 29 15 17 17 17 18 20 24 32 40 42 35 41 45 48
54 57 58 43 39 38 38 38 38 38 38 38 40 41 42 46
46 44 31 20 1 3 2 0 0 0 2 4 1 0 1 15
1 7 73 119 124 124 123 121 118 108 92 95 104 103 99 71
55 48 48 44 57 76 115 131 131 128 126 121 113 104 92 59
6 0 0 5 39 44 45 45 38 35 32 29 25 23 22 22
23 24 25 26 27 27 28 29 29 30 31 28 26 33 33 33
21 22 14 5 0 0 0 0 38 53 45 54 57 61 63 51
42 26 16 17 17 16 15 14 13 12 10 10 12 17 21 33
37 33 32 37 38 38 38 39 38 38 38 38 40 40 42 45
45 42 30 22 2 3 1 0 2 0 2 1 0 0 2 20
2 25 104 123 125 126 124 123 120 112 112 122 123 121 105 97
84 64 64 63 69 72 95 118 134 130 125 117 104 88 79 62
13 0 0 2 26 29 32 47 28 20 23 25 26 27 27 28
29 29 31 32 32 34 34 35 36 36 36 36 30 27 37 37
26 50 56 53 47 38 28 19 45 40 44 53 56 59 62 56
47 32 18 19 16 15 13 13 12 12 11 11 12 12 12 31
38 37 36 36 38 38 39 38 38 38 38 38 40 41 42 45
45 41 27 23 3 4 2 0 1 0 0 0 0 0 4 18
9 46 103 114 115 115 111 108 107 112 123 121 136 143 132 127
120 113 100 96 87 86 89 114 135 128 121 105 76 40 24 20
17 0 0 1 21 27 25 41 27 26 30 31 32 33 34 35
36 35 36 37 37 37 37 38 39 37 37 38 39 32 27 37
26 50 57 56 54 55 55 57 58 26 28 41 48 55 59 55
49 36 20 18 15 12 12 12 13 13 13 14 15 15 16 34
17 7 37 38 39 38 37 38 38 39 38 39 40 41 41 45
45 40 29 22 2 4 0 0 0 0 0 0 0 0 2 10
16 58 75 75 75 72 58 49 44 52 86 49 124 89 128 138
134 110 98 99 100 99 105 101 126 123 116 91 68 38 21 9
4 0 0 4 28 33 32 41 29 31 35 37 38 37 39 39
39 39 40 39 39 39 39 39 40 40 38 40 41 41 32 26
24 50 57 57 55 56 56 57 57 9 0 0 3 8 19 23
35 39 18 15 11 1 2 1 6 16 16 15 12 19 20 35
43 40 47 48 45 41 6 19 40 39 38 39 40 41 39 45
44 41 32 22 1 1 6 8 2 0 0 0 3 0 15 16
38 108 126 124 116 110 107 111 115 119 110 85 95 93 104 130
130 107 91 87 102 111 109 101 109 113 106 88 82 60 39 19
7 0 0 12 35 39 36 44 33 34 39 40 40 40 40 41
42 41 42 42 43 42 41 40 39 40 39 39 42 42 42 32
27 41 45 46 48 51 53 57 54 6 0 0 0 0 4 17
35 40 17 15 12 0 0 0 0 5 8 2 1 9 8 30
47 40 37 40 44 46 42 39 39 39 39 40 36 18 31 43
44 42 27 18 1 28 79 69 66 10 0 2 3 1 16 14
69 117 130 132 133 132 124 115 114 119 111 101 104 101 90 95
104 94 56 75 99 118 110 105 109 106 101 99 81 77 68 38
15 18 13 22 38 40 34 22 18 36 41 42 42 42 43 42
42 42 42 43 42 43 43 43 42 40 41 39 42 43 43 43
27 29 31 34 39 38 39 49 50 4 0 0 0 3 0 1
35 41 16 14 11 1 0 4 2 0 0 0 0 1 2 27
49 38 31 28 28 32 37 39 38 39 39 39 33 15 32 42
44 44 29 19 17 86 83 78 64 17 5 3 2 5 11 24
90 122 130 133 136 140 140 141 139 126 102 93 85 91 81 87
95 50 18 62 100 122 116 133 116 86 65 114 101 108 103 86
27 18 59 48 39 41 26 7 6 31 41 43 44 43 43 43
43 43 43 43 43 43 43 43 42 42 40 40 38 41 43 42
26 24 24 26 38 36 36 51 51 3 0 0 0 0 1 0
31 37 10 6 0 0 0 11 10 3 2 0 0 0 0 25
49 40 22 35 40 33 35 39 39 40 39 40 39 28 36 44
45 46 35 15 77 116 118 111 82 32 8 5 2 7 7 41
102 124 130 135 139 141 143 145 145 136 113 112 88 110 120 119
106 82 63 72 104 122 115 138 94 73 80 102 108 118 95 77
50 25 60 88 41 39 24 17 6 28 42 43 45 44 44 44
44 44 43 43 44 44 44 43 43 42 42 39 39 40 42 43
25 27 34 37 41 40 44 51 50 3 0 0 0 0 0 0
36 30 0 0 0 0 1 3 14 11 3 0 0 0 0 25
50 42 14 33 31 29 33 38 40 40 40 40 40 36 36 45
45 47 42 22 116 132 121 136 72 19 10 6 6 8 11 62
113 126 131 134 137 140 144 145 145 140 122 120 91 119 125 109
98 88 74 89 105 113 124 136 113 84 82 99 117 118 86 67
43 35 56 83 62 33 21 4 2 27 42 44 45 45 43 43
44 43 43 44 44 43 44 43 42 42 43 41 38 37 39 39
25 1 3 7 14 20 30 35 43 4 0 0 0 0 0 0
37 33 0 0 0 0 0 3 14 20 12 7 0 1 0 23
50 43 17 21 22 19 33 38 40 40 40 40 41 39 34 46
46 47 46 35 131 140 122 122 70 38 17 10 8 6 19 77
118 127 132 130 136 140 144 145 145 143 128 124 95 121 136 119
102 92 88 100 100 110 130 128 120 84 83 88 105 106 58 35
31 36 52 84 88 46 29 1 3 25 42 43 44 44 43 43
44 43 43 44 43 44 43 44 43 43 43 43 42 37 36 37
29 2 0 0 0 0 0 0 20 4 0 0 0 0 0 1
40 25 0 0 0 0 2 17 18 22 17 12 0 0 1 24
51 44 30 29 27 24 32 36 39 39 40 40 41 39 32 46
46 47 47 38 133 134 124 124 102 58 43 21 10 8 30 86
117 125 130 129 135 139 143 145 145 145 138 133 108 119 138 123
112 104 105 114 109 118 143 125 130 87 76 78 100 90 25 10
22 35 55 100 109 41 28 4 4 27 41 43 44 44 44 43
44 43 44 43 43 43 43 43 43 41 43 43 42 42 37 37
28 2 0 0 1 0 0 0 18 4 0 0 8 3 1 0
37 23 0 0 0 0 1 22 21 22 8 6 0 1 3 21
50 47 33 24 4 5 27 36 40 40 41 41 40 38 32 45
45 46 47 35 125 127 136 112 60 77 79 58 29 25 49 95
118 124 127 126 132 138 142 145 145 145 144 140 129 110 139 125
114 113 119 122 113 134 138 129 137 102 68 65 85 81 64 26
26 35 71 107 113 32 35 8 2 31 41 43 44 44 43 44
43 43 43 43 42 43 43 43 42 42 43 43 42 41 37 36
29 2 0 0 4 1 0 0 17 4 0 2 22 15 4 0
38 21 0 0 0 0 1 3 13 14 0 0 0 3 0 17
49 48 33 21 11 9 24 35 40 40 40 41 41 38 35 46
46 46 47 32 109 127 136 88 83 98 92 80 48 48 71 100
116 121 124 125 132 137 143 145 146 145 145 145 143 112 131 131
119 124 127 124 126 124 120 140 135 102 70 64 86 78 60 41
36 40 93 116 115 42 37 20 13 36 42 44 44 45 44 44
43 43 43 43 43 43 44 43 43 43 43 43 42 42 38 37
26 2 0 3 18 8 2 0 17 5 0 12 22 17 8 0
38 18 2 3 0 0 1 0 10 16 0 0 0 0 0 12
49 48 16 13 0 0 21 34 40 40 41 41 41 35 39 46
46 46 46 29 93 134 135 111 104 103 105 87 61 66 81 103
114 119 123 125 131 135 142 145 145 145 145 145 145 135 105 127
129 124 124 130 118 114 139 139 131 108 79 62 88 92 72 52
37 56 116 133 96 39 36 34 33 40 44 44 45 46 44 44
44 43 44 44 43 44 44 43 42 43 43 43 43 42 39 35
27 2 0 14 27 12 9 0 17 28 17 25 25 22 18 2
38 19 1 0 1 0 0 0 6 20 0 0 0 0 0 6
49 47 11 16 3 2 29 32 40 40 41 41 40 34 42 46
46 46 45 26 74 143 140 126 113 100 111 91 73 75 87 100
108 114 122 125 129 134 142 144 145 145 145 145 144 142 129 113
104 104 110 112 123 140 140 136 132 116 90 63 86 93 81 61
38 97 128 143 72 41 38 37 39 43 44 44 44 45 44 44
44 43 44 43 44 43 44 43 43 43 44 43 42 41 37 34
24 3 0 6 11 6 4 0 17 50 47 53 53 51 53 55
59 20 0 2 0 0 0 0 9 20 0 1 4 0 0 2
47 43 10 7 3 4 30 31 40 40 41 41 40 35 42 46
46 46 43 21 48 147 146 127 106 101 109 93 79 80 91 100
107 111 119 124 127 135 142 145 145 145 146 146 145 145 144 143
140 137 140 141 143 138 137 137 137 124 96 72 78 95 89 66
53 121 140 128 48 42 40 39 42 45 44 44 44 45 44 44
44 44 44 44 44 43 42 42 43 43 42 41 42 43 39 34
27 8 5 2 2 0 0 0 15 50 48 53 53 51 57 61
63 38 20 23 16 9 5 6 10 24 5 5 2 1 0 3
31 43 8 4 2 7 14 31 40 41 41 41 38 37 42 47
47 46 37 28 17 132 148 132 110 86 98 92 84 84 89 97
106 110 116 123 126 135 141 145 145 145 145 145 145 145 145 144
145 145 145 140 125 120 127 139 140 131 105 90 67 95 95 66
74 131 139 78 44 43 43 42 45 45 45 45 44 44 44 44
44 44 44 44 44 44 44 44 42 43 43 40 40 40 39 34
27 25 8 1 3 0 0 0 14 48 46 51 50 50 59 64
64 49 41 42 41 39 37 39 36 34 29 26 23 24 22 26
37 47 21 19 20 14 7 24 40 40 40 41 35 39 43 46
47 45 37 30 1 79 147 133 141 122 92 89 86 86 92 96
104 107 113 119 124 129 137 144 145 145 145 145 145 145 145 144
144 142 133 117 115 121 128 141 143 137 114 97 86 72 87 99
116 119 81 46 45 43 42 42 43 43 43 43 43 44 44 45
44 43 42 43 43 42 43 44 43 43 42 42 40 40 39 34
27 21 2 0 2 0 0 0 13 46 41 44 45 44 46 42
41 42 43 44 44 42 41 42 43 42 40 36 35 32 31 32
38 53 38 36 31 25 22 25 40 40 40 41 35 39 44 47
47 44 41 36 3 13 120 142 144 146 130 91 85 87 94 99
102 107 111 117 122 127 135 143 145 145 146 146 145 145 145 144
139 130 118 114 127 135 141 144 144 139 120 102 102 87 71 68
67 53 45 45 45 43 44 45 46 45 44 45 45 45 45 44
45 43 44 43 44 43 44 43 42 43 43 42 42 41 39 34
30 15 0 0 1 0 0 0 14 51 41 42 43 44 44 42
39 42 44 45 47 46 46 45 44 44 42 46 50 47 44 42
45 56 54 54 55 52 50 42 39 40 40 40 36 39 43 48
47 43 42 40 10 0 52 142 143 146 144 96 84 85 92 97
103 107 110 114 121 126 133 140 143 146 146 145 146 146 145 140
131 126 112 124 141 142 141 140 139 131 115 98 112 108 101 87
60 45 46 46 45 44 45 46 46 45 44 45 46 45 45 45
45 44 44 43 44 42 44 43 42 42 42 41 41 41 38 33
25 34 35 32 25 22 18 14 20 54 43 43 43 43 44 45
46 49 46 47 50 54 54 47 42 44 43 51 56 53 50 50
50 43 36 34 35 36 38 37 39 40 40 40 38 36 43 47
46 42 43 41 15 0 6 96 134 145 137 87 79 84 90 94
102 108 110 114 118 125 133 139 144 145 145 145 145 144 143 134
122 124 106 117 110 81 89 116 123 118 99 86 113 112 111 99
58 45 46 45 46 45 46 45 45 44 44 44 44 44 44 44
44 44 44 43 43 43 43 42 43 42 41 41 40 41 39 32
26 44 53 56 51 52 59 60 59 57 47 46 47 46 46 49
52 56 49 49 51 57 55 47 44 37 40 53 57 54 50 50
51 47 42 33 31 30 30 32 39 41 40 40 35 38 44 48
47 42 42 41 27 0 0 11 72 100 61 64 72 81 89 93
101 107 109 113 116 125 130 137 141 144 145 145 145 145 140 128
126 134 105 95 106 115 91 86 100 89 59 83 113 111 108 92
53 45 46 45 45 46 46 45 45 45 45 44 44 45 45 44
44 43 44 43 43 42 43 42 41 41 42 40 40 38 37 32
26 46 63 62 60 61 61 62 61 60 45 42 39 41 41 47
54 58 49 49 49 48 48 51 46 42 34 44 46 44 46 51
51 49 46 39 37 36 37 38 39 41 40 40 32 41 43 47
47 42 42 41 30 3 0 0 2 36 46 64 68 75 88 92
97 105 110 112 115 122 127 135 140 143 144 145 144 144 137 127
138 142 134 119 125 131 118 80 59 51 49 98 114 113 109 83
46 45 46 44 46 45 46 46 45 45 45 45 44 44 45 44
44 44 42 43 43 43 43 42 42 42 41 40 39 39 38 32
25 32 42 44 46 49 52 54 58 60 14 9 9 3 6 9
17 46 52 49 27 15 22 26 26 28 41 41 14 4 1 6
15 19 37 43 38 40 44 44 48 47 41 40 32 43 44 48
47 44 42 43 37 9 0 0 0 30 61 61 62 69 84 90
95 102 108 112 115 120 125 133 140 144 145 145 145 144 137 133
142 143 138 132 135 134 125 115 92 65 88 115 121 122 110 72
44 44 43 41 43 42 45 45 45 45 45 45 44 44 44 44
44 44 43 42 43 43 43 42 41 41 41 39 39 39 38 32
23 28 33 33 33 33 32 31 32 38 11 1 0 0 0 0
0 36 52 39 3 0 1 4 11 19 44 42 10 1 0 0
6 16 35 29 29 34 39 42 46 50 43 39 33 42 44 47
46 44 40 43 37 15 0 0 0 19 58 61 58 64 74 87
92 100 104 109 115 118 126 134 141 145 146 145 145 145 138 137
142 139 136 135 132 130 119 123 110 87 105 129 130 124 103 49
22 18 16 13 15 34 46 45 45 44 45 45 44 44 44 43
43 43 43 42 42 42 43 42 41 41 41 39 39 38 38 32
23 33 42 41 41 40 39 38 38 41 14 8 1 0 0 0
13 40 51 21 0 0 0 0 1 18 46 43 14 0 0 0
2 14 34 7 0 2 2 1 8 51 45 39 35 43 44 47
46 45 39 43 33 23 0 0 0 10 54 61 54 58 67 80
90 97 102 106 111 119 127 134 142 145 146 145 146 145 138 134
135 136 135 135 131 125 115 110 111 84 100 126 129 118 91 28
13 13 13 13 14 34 46 46 47 45 44 44 45 44 43 43
43 43 43 42 42 41 41 42 40 40 40 39 38 39 38 32
23 34 42 43 44 44 44 45 46 45 16 5 1 0 0 0
15 39 49 11 0 0 0 0 0 11 47 42 13 0 0 0
1 11 34 9 2 18 14 0 4 50 46 38 36 43 44 47
47 45 39 43 34 31 4 0 0 5 50 58 54 52 59 73
84 93 100 105 108 117 127 133 141 146 146 146 145 145 136 132
136 139 138 129 119 114 112 106 96 82 94 121 126 112 75 17
13 13 14 13 13 34 47 46 46 46 45 45 45 44 44 43
44 43 42 43 42 42 42 42 41 41 39 39 37 37 36 31
25 36 44 45 44 44 45 45 47 47 15 4 2 0 1 8
4 28 46 6 0 0 0 0 0 12 46 40 14 0 0 0
0 8 34 11 2 9 10 1 3 48 45 37 38 43 44 47
47 46 40 41 33 35 15 0 0 1 46 56 54 50 54 66
76 87 95 104 108 116 125 134 140 144 145 145 145 145 138 138
132 122 107 102 104 106 105 99 84 76 84 111 122 107 53 13
13 15 13 12 13 32 46 46 45 46 45 44 44 43 43 43
43 43 43 42 42 41 40 42 42 40 40 38 38 38 36 31
33 34 36 36 37 31 17 24 37 52 19 0 0 0 0 8
4 23 46 4 0 0 0 0 0 10 47 38 14 0 0 0
0 1 31 14 3 6 5 0 2 47 46 36 39 42 44 47
46 45 43 38 33 35 29 0 0 0 41 58 58 52 51 59
70 83 92 98 105 112 122 132 139 143 146 145 146 145 143 127
93 84 92 100 102 101 92 86 72 64 75 101 120 101 42 13
13 13 14 12 11 26 47 46 45 45 45 45 44 42 42 42
42 42 42 41 41 41 42 41 41 40 41 39 38 36 35 30
31 31 31 31 31 24 0 1 19 55 31 10 0 0 1 6
2 19 46 3 0 0 0 0 0 10 48 38 16 1 0 0
0 0 30 18 3 9 9 2 1 46 46 36 40 43 44 47
46 45 44 36 32 35 38 3 0 0 35 63 61 52 49 53
63 76 90 95 103 110 121 130 137 143 145 146 146 145 142 127
119 120 117 115 118 120 113 100 89 62 72 96 118 87 38 14
14 14 15 15 15 22 43 42 44 43 43 42 43 43 43 42
43 43 43 42 42 41 41 41 41 40 38 38 37 35 34 30
30 30 30 30 30 26 0 0 15 54 26 4 0 0 0 8
5 19 45 2 0 0 0 0 0 3 48 38 20 1 0 0
0 0 27 23 0 2 1 0 1 44 45 34 41 42 44 47
46 45 45 38 30 34 43 15 0 0 31 67 67 56 48 46
57 68 84 92 101 108 118 127 135 140 143 145 146 146 145 141
140 141 141 138 139 132 120 111 97 73 68 97 116 73 39 24
24 23 23 23 23 43 42 45 45 45 45 44 43 43 44 43
43 44 44 42 41 41 41 40 39 38 38 37 36 34 34 29
21 21 23 24 27 25 0 0 10 50 17 0 0 0 0 0
0 19 47 2 0 0 0 0 0 1 46 38 15 0 0 0
0 0 22 31 0 1 1 0 1 41 44 35 40 42 44 47
46 46 43 40 29 34 45 31 1 0 27 68 73 63 54 45
50 60 73 86 97 105 113 124 131 138 141 144 146 146 145 145
144 144 143 142 143 135 122 113 108 90 71 97 110 62 40 16
16 15 11 5 4 28 8 6 14 45 44 44 44 44 44 43
42 43 43 42 42 41 41 41 39 40 39 37 36 34 33 29
0 0 5 20 26 26 3 0 7 43 14 0 0 0 0 2
0 16 50 4 0 0 0 0 0 0 45 38 18 0 0 0
0 0 18 35 0 0 0 0 3 40 42 33 40 42 43 47
46 41 39 38 27 32 45 44 13 0 25 70 82 74 62 53
46 51 61 75 87 99 109 118 127 134 139 141 146 145 145 146
145 144 145 144 140 130 119 114 113 94 77 97 99 52 41 15
13 14 13 6 9 28 39 27 9 44 44 44 44 43 43 43
43 43 42 42 41 41 40 40 39 39 37 36 36 33 32 28
0 0 7 26 25 25 4 0 5 39 15 1 0 0 0 13
9 16 52 19 10 9 12 11 10 12 46 40 37 38 36 35
38 40 47 41 4 3 2 2 3 39 40 34 40 42 44 47
41 41 44 41 29 31 44 46 38 10 24 72 87 86 74 65
56 49 51 59 75 89 102 113 123 130 134 138 143 145 145 145
146 144 145 144 139 130 118 115 112 96 82 93 83 46 41 16
13 13 15 9 3 6 12 14 7 44 44 44 44 44 44 43
43 42 42 42 41 41 41 41 40 38 37 36 35 34 32 28
0 0 6 27 25 24 7 0 0 36 39 41 35 35 43 52
51 49 46 57 57 52 53 55 56 56 58 43 37 47 50 51
56 62 64 56 40 40 40 38 39 42 38 34 39 42 44 45
40 44 44 42 30 31 45 46 45 37 33 73 93 93 87 77
66 56 50 49 56 71 88 104 117 123 127 131 138 145 146 146
146 145 145 144 142 133 123 118 111 100 88 86 63 44 42 16
13 13 14 11 17 20 14 7 6 43 44 44 43 43 43 42
43 43 42 42 42 40 40 39 39 38 37 36 34 32 31 28
0 0 3 27 25 24 8 0 0 31 42 45 38 42 51 56
49 44 40 55 59 55 55 53 59 59 60 48 33 44 48 51
58 64 65 60 37 37 37 37 38 38 38 36 35 41 42 39
44 45 44 43 31 32 44 46 46 46 44 74 96 99 98 91
76 67 59 52 49 54 69 88 105 115 119 123 129 141 146 146
146 145 145 145 144 137 125 121 116 102 89 76 48 45 41 16
12 13 10 7 8 9 8 5 6 40 21 10 17 42 44 43
44 42 43 42 41 40 40 40 39 38 37 35 33 33 32 29
0 0 2 27 25 24 9 0 0 29 41 39 35 42 49 57
53 44 38 40 48 47 47 46 47 46 46 45 33 32 39 41
43 40 38 39 38 39 40 39 39 38 39 38 36 35 36 42
46 45 44 43 31 35 43 46 46 47 46 75 96 102 101 99
89 76 67 61 55 49 51 65 85 101 110 115 121 133 142 147
146 147 146 145 142 130 123 123 119 102 88 65 45 46 43 16
12 12 4 43 44 1 1 0 2 14 31 43 22 20 45 43
42 43 42 41 42 41 40 39 38 38 37 36 34 33 31 30
0 0 1 27 25 22 11 0 0 25 35 26 30 29 36 53
52 46 41 31 28 29 30 29 30 30 31 36 35 37 39 40
40 37 33 36 38 39 39 40 39 39 39 38 39 40 42 46
46 45 43 38 23 32 40 46 45 47 46 75 96 104 103 104
97 85 75 67 62 58 51 49 61 80 97 105 111 120 130 141
145 145 143 142 134 123 123 122 113 100 84 55 44 46 42 15
12 12 24 67 75 16 2 4 20 43 44 43 41 10 43 42
42 42 43 42 40 40 39 39 37 37 37 34 33 32 31 28
0 0 0 25 24 22 12 0 5 27 34 10 15 19 25 33
37 35 41 34 31 31 32 40 40 38 37 42 43 44 48 49
48 41 38 37 38 39 40 39 39 39 39 38 39 41 43 46
46 45 37 35 34 36 31 32 26 61 53 73 95 105 106 106
102 92 81 75 68 65 60 55 50 56 73 88 99 109 119 130
136 136 133 129 120 120 118 112 108 92 75 47 44 46 42 18
11 12 21 34 45 18 0 0 27 44 43 44 43 12 41 43
43 42 42 40 39 38 37 37 36 36 36 35 34 33 31 29
0 0 0 23 25 22 18 16 26 35 33 0 0 0 0 1
8 11 39 37 44 49 42 55 61 48 40 41 42 43 49 52
54 44 39 38 38 39 39 39 39 38 39 39 38 40 42 45
46 41 32 34 34 35 28 26 17 63 56 72 94 105 107 107
104 99 93 83 77 70 65 60 56 49 52 65 81 93 103 114
120 121 119 116 112 112 109 103 103 80 58 44 45 46 42 19
10 13 5 16 15 1 0 0 25 45 44 43 43 14 39 43
43 42 42 40 38 37 36 36 35 35 36 36 34 32 31 29
0 0 0 21 24 20 23 38 41 43 37 0 0 0 0 0
1 9 44 37 44 52 43 58 64 28 2 2 3 3 5 22
54 45 39 38 38 38 38 38 38 38 38 38 38 39 41 45
45 36 26 18 27 37 27 27 14 58 56 69 93 105 108 109
108 106 101 93 87 80 73 64 59 54 50 49 55 69 84 96
104 106 105 104 101 101 99 101 89 66 34 43 43 46 43 37
29 23 8 1 3 1 0 4 21 45 43 43 43 21 42 40
41 39 39 37 35 34 33 32 32 35 36 35 34 33 32 31
0 0 0 18 24 21 22 38 40 44 41 2 0 0 0 0
0 1 46 34 40 47 8 10 23 26 0 0 0 0 0 14
52 46 38 39 39 39 39 38 38 38 38 38 38 38 41 45
39 35 11 0 18 37 27 30 12 54 55 68 89 103 107 108
109 107 105 99 96 93 90 79 68 59 54 49 46 47 56 67
78 83 83 84 83 85 87 82 65 33 19 44 42 45 43 43
13 38 50 4 0 0 0 0 22 45 44 44 39 20 43 44
43 41 40 37 33 32 31 30 29 33 34 35 33 32 31 30
0 0 0 15 24 19 20 31 32 32 29 3 0 0 0 0
0 0 47 33 40 46 3 1 16 28 0 0 0 0 0 8
48 46 38 39 38 39 38 38 37 37 37 38 38 39 40 43
37 34 24 18 23 35 26 30 13 48 54 66 89 102 109 110
111 108 109 106 101 103 106 101 91 75 61 54 48 44 40 38
39 42 44 48 54 55 54 46 28 9 15 41 42 45 44 44
26 63 73 20 0 0 0 0 18 43 42 40 17 30 36 28
27 40 40 35 31 29 28 28 29 31 33 33 32 31 30 29
0 0 0 13 24 19 18 2 1 5 4 0 0 0 0 0
0 2 48 33 41 46 4 1 14 29 0 0 0 0 0 4
47 46 37 38 38 38 38 36 37 36 37 37 37 38 39 41
35 35 29 28 34 36 26 32 16 42 54 65 89 102 107 113
113 111 111 109 105 107 113 118 117 103 83 65 54 44 39 36
33 31 29 28 27 31 19 13 11 6 15 39 36 33 29 26
13 19 12 9 0 0 0 0 2 6 5 3 4 23 25 17
11 39 38 35 31 28 27 27 28 30 32 32 32 30 30 29
0 0 0 11 23 18 17 4 2 5 5 0 0 0 0 0
0 3 47 32 41 46 3 0 11 31 0 0 0 0 0 1
44 47 37 37 37 37 38 37 37 37 37 37 37 37 39 40
36 27 21 25 26 34 26 31 19 31 52 64 89 102 108 110
114 115 114 110 109 111 117 122 129 128 116 96 73 52 36 27
22 19 14 14 45 59 12 3 2 1 1 1 1 0 0 0
0 0 2 2 2 1 0 0 2 3 1 0 3 12 7 62
51 40 37 34 30 28 26 27 27 29 33 32 32 30 30 29
0 0 0 10 24 18 18 7 5 8 6 0 0 0 0 2
0 0 44 31 41 45 3 1 10 32 0 0 0 0 0 1
42 46 36 37 37 37 37 37 37 36 37 36 36 37 38 40
38 34 23 20 24 23 22 34 24 24 55 65 86 101 108 111
111 114 115 110 110 112 117 123 135 140 136 125 111 88 59 34
17 10 13 39 67 63 12 1 3 4 5 7 8 10 10 11
13 13 14 14 17 20 22 22 21 19 8 0 8 27 7 63
56 23 16 13 21 28 26 27 29 31 33 34 33 31 30 30
0 0 0 9 23 18 18 12 9 10 6 0 0 0 0 3
0 0 42 33 42 45 9 2 8 32 7 1 0 2 0 0
39 46 36 37 37 37 37 37 36 37 37 36 36 37 38 38
40 36 29 33 33 31 32 37 27 22 57 67 84 97 106 109
113 111 113 109 108 111 114 122 135 141 141 134 129 118 101 74
45 35 53 77 81 70 19 7 18 20 21 22 22 23 22 22
21 21 21 22 23 23 23 23 22 18 7 0 0 0 0 0
0 7 8 6 20 31 29 30 33 36 37 38 38 36 35 35
0 0 0 8 22 18 17 12 12 12 6 0 1 0 0 6
12 0 40 34 43 45 22 9 6 32 5 6 5 6 0 0
36 46 35 36 36 36 36 36 36 36 37 36 36 37 38 37
40 34 29 36 35 34 36 40 30 31 59 69 86 98 105 108
111 116 108 105 106 111 111 114 124 137 140 138 131 121 106 87
74 73 87 92 89 78 27 8 18 20 23 25 24 24 24 23
22 22 22 23 24 25 25 24 23 19 8 0 0 0 0 0
0 6 8 5 17 27 23 22 20 20 19 16 12 9 8 8
0 0 0 7 22 18 16 13 12 12 9 0 0 0 0 7
19 7 34 38 44 44 17 24 6 31 0 8 13 8 0 0
32 44 35 36 36 37 37 36 36 36 36 36 36 37 36 34
39 34 32 38 36 36 38 41 34 47 64 72 86 98 104 110
115 114 113 102 104 109 111 111 115 129 140 141 130 111 96 85
82 92 98 98 94 86 51 18 18 21 24 25 25 24 25 24
24 24 24 25 26 26 26 24 23 21 8 0 0 0 0 0
0 2 8 31 33 32 33 35 41 46 50 52 51 50 51 51
0 0 0 6 22 17 16 14 12 12 18 14 20 21 23 29
38 36 47 43 44 43 8 33 9 31 10 14 15 13 11 12
31 36 34 36 36 36 36 36 36 36 37 36 37 36 36 33
40 36 36 39 38 37 28 16 25 60 68 75 87 98 103 109
116 114 110 107 102 104 108 111 112 123 137 139 119 100 92 86
91 98 102 103 101 90 62 56 32 17 25 28 26 29 25 25
25 25 26 27 28 27 28 26 24 22 8 0 0 0 0 0
0 0 16 53 50 47 47 49 52 55 56 55 54 53 53 52
0 0 0 5 22 17 15 14 14 12 25 38 40 42 46 50
56 57 61 52 42 43 1 19 16 34 30 31 30 29 29 27
27 29 34 36 36 36 36 35 36 36 36 36 36 35 35 33
38 33 35 41 39 32 2 17 52 70 73 76 89 98 103 109
115 118 109 105 105 108 105 109 108 113 125 124 103 96 93 96
98 104 106 109 104 93 65 62 72 56 22 16 18 23 26 27
26 26 27 28 28 29 28 27 25 24 7 0 0 0 0 0
0 0 21 51 49 48 47 48 50 53 54 53 52 51 51 51
0 0 0 4 22 16 15 14 14 12 20 43 43 44 47 51
57 58 61 60 42 43 1 4 6 32 27 30 31 31 31 31
32 32 34 35 35 35 35 35 35 36 36 36 36 36 36 34
37 30 35 40 33 17 28 54 67 78 76 78 90 98 102 109
113 117 114 103 103 110 112 114 112 107 108 101 97 101 101 100
103 108 113 112 108 94 68 64 85 92 83 49 25 24 20 26
28 28 28 30 29 29 28 27 26 25 7 0 0 0 0 0
0 0 24 50 48 47 48 47 49 50 50 50 50 51 50 50
0 0 0 4 21 17 15 14 14 13 9 23 23 23 25 27
32 32 32 29 35 42 1 2 4 33 31 35 35 35 34 34
35 34 35 35 35 35 35 35 35 35 35 35 35 35 36 35
36 30 35 30 25 34 72 71 79 84 82 84 92 97 104 108
112 117 118 109 102 110 116 117 116 114 107 103 107 106 104 105
108 116 117 115 110 97 73 76 91 100 102 94 44 26 22 19
24 28 29 29 29 29 28 27 27 25 6 0 0 10 11 0
0 0 26 49 48 47 47 47 48 48 49 49 49 48 49 49
0 0 0 3 21 17 14 13 14 13 6 2 2 4 7 11
19 22 25 23 32 42 2 0 1 31 30 34 35 34 34 34
35 35 35 34 35 35 35 35 35 35 36 36 36 35 35 34
35 28 27 20 22 52 86 86 89 87 87 85 94 99 104 108
112 116 116 111 105 109 118 122 120 117 113 113 113 109 105 109
117 119 119 117 112 98 79 84 98 104 109 99 38 25 26 21
26 22 27 29 29 28 28 27 27 26 7 0 0 57 53 1
0 0 28 48 46 47 47 46 47 47 47 47 47 47 48 47
0 0 0 3 20 16 13 13 13 13 9 6 6 6 9 13
21 23 25 24 34 43 7 2 3 32 30 34 35 35 35 34
34 34 34 34 34 34 34 34 35 35 35 35 35 34 33 31
29 23 25 21 20 54 97 97 96 92 89 87 95 101 106 109
112 116 117 112 106 109 118 125 124 120 119 117 113 107 109 119
118 119 121 117 113 101 88 92 105 110 113 79 24 26 28 22
26 17 19 25 28 28 28 27 27 27 6 0 1 28 21 0
0 0 33 47 47 46 47 46 46 46 46 46 46 46 46 46
0 0 0 3 20 16 13 12 13 14 13 12 12 13 14 17
23 25 27 24 37 45 28 44 48 45 28 33 34 34 33 34
34 33 34 33 34 34 34 34 34 34 35 35 34 34 31 25
25 22 25 22 15 45 101 106 101 97 92 89 98 104 105 110
111 118 118 111 105 106 115 123 124 121 122 119 112 111 116 119
120 123 121 119 113 104 94 97 109 115 112 44 23 27 28 23
24 19 18 19 23 26 29 29 27 26 6 0 0 4 2 0
0 0 37 47 46 46 46 45 46 45 46 45 46 45 46 46
0 0 0 5 23 17 13 12 14 14 13 11 13 14 16 19
26 28 29 24 36 41 35 47 47 40 28 33 34 34 34 33
33 33 33 33 34 34 34 33 34 34 34 35 34 27 21 23
22 20 24 25 15 29 87 111 106 102 95 92 104 107 106 107
110 116 118 111 105 107 109 118 121 120 121 117 114 113 120 126
127 126 123 119 114 106 99 105 113 118 71 28 27 26 26 26
24 20 20 18 19 21 22 25 28 27 5 0 1 9 4 0
0 0 38 46 46 46 45 45 46 46 46 45 45 46 45 46
12 13 13 14 15 13 13 12 13 13 14 12 13 14 15 19
25 27 28 22 25 26 23 23 27 28 30 31 33 33 33 33
33 33 33 33 33 33 33 33 33 34 35 32 26 21 20 23
19 17 23 23 17 15 53 104 110 107 96 97 107 112 108 107
108 114 120 115 107 106 106 110 116 120 120 114 115 120 126 130
130 129 123 120 115 108 103 109 118 87 31 26 24 25 25 25
21 19 20 18 18 16 18 17 18 23 18 5 0 0 0 0
0 0 41 47 45 45 46 45 45 45 45 44 45 45 45 45
13 13 12 12 12 13 13 11 12 13 13 13 14 14 16 18
24 27 27 25 28 28 27 24 28 28 30 31 33 33 33 33
33 33 32 32 33 33 32 33 34 33 26 23 21 19 19 20
21 18 22 22 22 13 21 63 109 109 101 102 112 116 110 106
108 114 119 117 111 110 109 108 115 118 117 116 119 124 129 132
130 129 124 120 117 111 109 113 91 34 27 27 23 22 26 23
21 21 22 19 17 15 15 14 16 18 19 17 14 7 0 0
0 0 37 45 45 45 45 45 45 45 45 45 44 45 45 45
13 13 12 12 12 12 12 11 11 12 13 14 14 15 17 19
25 27 26 25 28 27 28 26 27 29 29 31 33 33 33 33
33 33 32 32 33 33 33 29 24 23 19 20 20 19 19 18
19 18 21 24 23 18 15 22 53 101 107 108 113 120 114 107
106 112 119 118 112 111 113 114 112 114 116 117 122 127 131 133
131 126 123 121 117 113 111 80 34 25 27 26 24 23 23 21
23 21 18 18 16 16 14 12 17 16 19 18 17 17 15 5
0 0 18 46 45 45 45 45 44 45 44 44 45 45 44 44
13 13 12 11 11 10 10 10 11 12 13 14 15 15 17 19
26 27 27 26 28 28 28 27 27 29 30 30 32 32 32 32
32 32 32 32 31 26 23 21 22 22 20 20 21 19 19 20
21 20 16 22 21 21 19 16 17 40 88 111 117 123 116 106
106 112 117 120 114 112 114 113 114 116 118 121 125 130 132 131
130 125 125 123 117 106 62 28 26 25 25 25 23 23 17 17
19 19 18 16 16 15 14 15 18 17 17 18 17 15 16 22
19 11 20 34 45 44 44 44 44 44 44 44 44 44 44 44
3 1 1 0 2 4 8 15 10 11 12 13 14 15 17 20
26 27 27 27 28 28 28 28 28 28 29 30 31 32 32 32
32 32 31 26 22 20 19 19 20 18 19 18 18 19 19 18
19 21 20 19 22 19 21 19 17 17 29 63 108 125 120 108
104 110 118 120 116 111 110 110 112 114 117 120 126 131 132 131
129 125 125 118 82 38 24 24 26 24 27 23 22 19 16 16
17 19 17 15 16 15 15 17 18 19 17 19 19 17 17 15
19 23 31 18 44 44 44 44 44 44 44 43 44 44 43 44
0 0 0 0 2 5 7 10 10 11 12 13 14 15 16 20
26 28 28 27 29 28 28 28 29 28 29 30 31 32 31 31
31 26 21 21 20 19 19 17 21 19 18 19 19 20 20 20
20 24 24 20 23 23 22 22 21 18 18 20 31 65 101 107
100 105 114 120 117 114 109 109 111 113 117 122 128 131 131 129
124 118 88 44 25 21 23 23 24 25 23 22 21 20 20 19
19 19 17 18 18 16 16 17 16 18 19 18 19 18 16 16
16 21 25 26 35 44 44 43 44 44 44 44 43 43 44 44
0 0 0 0 1 5 6 8 10 11 12 14 15 16 18 21
26 28 28 28 29 28 28 28 29 28 29 30 31 31 32 32
23 20 19 18 20 19 19 17 18 20 20 20 20 21 21 21
22 23 27 26 22 24 26 26 25 22 21 19 20 20 25 45
69 91 109 120 120 116 113 112 112 116 121 125 129 130 122 96
68 39 26 23 21 24 26 25 23 23 23 22 23 22 19 19
19 20 21 21 18 18 19 19 17 19 21 18 18 20 17 16
17 18 20 24 24 32 44 45 44 44 44 44 44 44 44 44
0 0 0 0 1 6 8 10 12 14 14 17 19 20 22 24
27 28 28 29 29 28 28 28 30 30 29 30 31 32 32 22
17 18 18 17 18 19 19 16 20 20 20 21 23 21 21 22
22 22 22 26 27 20 22 27 28 28 26 24 23 22 21 21
22 27 38 61 75 82 90 92 93 91 90 81 69 51 32 27
25 24 25 24 25 25 24 24 23 26 23 26 25 20 19 19
20 21 24 22 20 19 20 18 18 22 22 18 19 20 18 18
18 18 15 15 19 21 31 44 45 44 44 44 44 45 45 45
6 3 0 1 6 11 14 16 18 19 21 22 23 24 26 27
28 28 29 30 30 29 28 28 29 30 30 30 32 30 24 19
14 17 19 17 20 20 20 16 21 23 22 21 22 21 21 23
22 21 21 22 23 25 19 19 27 30 30 29 28 28 26 26
25 23 20 20 21 22 24 25 27 24 25 25 26 24 25 26
27 29 28 28 27 25 23 27 27 26 28 26 25 19 20 21
21 22 23 22 22 21 22 18 19 23 22 18 18 19 19 18
19 18 16 15 17 17 18 33 45 45 46 45 44 45 45 45
8 8 9 12 14 15 16 20 19 18 22 23 24 25 26 27
28 28 29 29 29 28 29 28 29 30 30 30 26 21 19 20
15 17 21 18 21 22 22 20 23 24 23 23 22 21 22 22
21 20 22 20 20 22 24 20 15 21 27 29 29 30 29 29
28 29 27 24 24 26 23 24 25 26 26 27 28 26 26 29
28 28 27 27 28 28 26 23 26 26 27 26 24 20 21 21
22 22 21 23 21 19 22 17 19 23 20 17 19 19 18 17
18 17 14 16 17 15 14 20 40 44 45 44 44 44 44 45
11 9 7 6 4 3 2 16 18 15 20 21 23 23 25 26
27 27 27 28 29 28 27 28 29 30 27 21 19 17 16 17
12 14 19 17 19 20 18 18 20 22 21 21 23 21 22 22
24 23 22 22 19 18 23 19 20 20 20 22 29 31 30 30
30 29 29 28 26 29 26 27 27 29 30 28 26 26 26 27
27 26 27 28 28 21 21 26 24 26 25 23 21 18 19 20
21 20 22 22 19 20 20 16 20 22 19 17 17 18 18 19
18 17 14 14 17 16 13 13 25 43 43 43 43 43 43 43
1 2 1 1 1 1 1 15 19 15 15 17 19 21 23 24
26 27 27 28 29 28 27 27 28 25 17 16 16 14 17 19
13 13 20 18 17 21 18 19 21 22 22 22 22 22 23 24
25 22 22 23 23 21 20 22 19 21 28 25 17 18 22 27
30 29 29 28 26 26 28 29 30 30 29 28 27 27 28 28
27 25 20 19 18 23 23 22 23 23 22 21 19 19 19 19
19 18 19 21 20 19 19 15 20 21 19 17 18 19 18 17
18 16 14 12 17 15 12 11 15 37 44 43 43 43 43 43
