P2
128 120
142
0 3 9 5 0 0 0 27 49 40 35 35 35 35 35 35
35 34 34 34 33 33 33 33 32 32 32 32 31 31 30 30
30 29 29 28 29 29 28 28 28 27 27 27 26 25 25 25
24 23 23 23 22 22 21 21 21 21 21 21 22 24 26 26
26 25 18 16 22 15 23 22 22 21 20 20 20 20 19 19
18 12 19 17 21 21 21 21 21 22 22 22 22 22 22 22
22 22 23 22 23 23 23 22 24 23 23 23 23 24 25 24
25 25 25 26 25 26 26 26 26 27 27 27 27 27 27 26
0 6 9 4 0 0 0 25 48 41 35 35 35 35 35 35
34 34 34 34 33 33 33 32 33 32 31 31 31 31 31 30
30 30 29 29 29 29 28 28 28 28 27 27 26 26 25 24
24 24 24 23 23 22 22 22 22 21 21 21 22 24 27 27
26 25 18 17 23 15 23 22 21 21 21 20 21 20 19 19
18 14 21 19 22 22 22 22 22 22 22 22 22 22 22 22
22 22 22 22 22 23 23 22 24 24 24 23 24 24 24 25
24 25 26 25 26 26 26 26 26 26 26 25 24 25 25 26
0 0 3 2 0 0 0 26 48 41 34 35 35 35 35 35
35 34 34 34 33 33 33 33 32 32 32 31 31 31 31 30
30 30 30 29 29 28 28 28 28 27 28 27 26 26 26 26
25 24 23 23 23 22 22 21 21 21 22 21 22 25 27 27
27 26 19 17 25 15 24 22 23 22 21 20 21 22 20 19
19 15 21 19 21 22 22 22 23 22 22 22 23 23 23 23
23 23 23 23 23 23 23 24 23 24 24 24 24 25 25 24
25 26 25 26 26 25 25 25 25 25 26 27 27 27 27 27
0 0 0 6 5 0 0 26 47 40 35 35 34 34 34 34
34 34 33 33 33 33 33 33 32 32 31 32 31 31 31 30
30 29 30 29 29 29 29 28 28 27 27 27 27 26 26 25
25 24 24 23 23 23 22 22 22 22 22 22 23 26 27 26
27 26 19 17 25 16 23 21 23 22 21 21 20 21 19 19
19 16 21 19 22 22 22 23 22 23 23 23 23 22 22 22
22 23 23 23 24 24 24 24 24 25 24 25 25 25 25 25
25 24 25 25 25 26 26 27 27 26 26 26 27 27 27 26
0 0 1 6 5 0 0 26 47 39 35 35 35 35 35 35
34 34 34 34 33 33 33 32 32 32 32 31 31 31 31 31
30 30 30 29 29 29 29 28 28 28 28 27 27 27 27 26
26 25 24 24 23 23 23 23 22 22 22 23 24 25 28 27
28 27 20 17 25 18 22 22 23 22 22 21 21 22 19 20
19 16 21 19 21 22 22 23 23 24 22 23 24 24 22 22
23 23 24 24 24 24 25 24 24 24 24 25 24 24 24 24
25 26 26 27 26 27 27 27 27 27 27 27 27 27 27 27
0 0 2 1 4 2 0 26 46 39 34 35 35 34 34 34
34 34 34 33 33 34 33 33 32 32 32 32 32 31 31 31
30 31 30 29 29 29 29 28 29 28 28 27 27 26 26 26
25 25 24 24 24 23 23 22 22 22 22 22 24 25 28 28
28 27 20 17 26 19 21 23 23 23 22 22 20 21 20 20
20 16 21 19 23 23 22 23 23 24 23 23 23 23 24 23
24 23 24 24 24 24 24 24 24 24 24 25 25 26 26 25
26 27 26 27 27 27 27 27 27 26 27 27 27 27 26 27
13 8 2 0 3 3 10 32 47 39 35 35 35 35 35 35
34 34 34 34 34 33 33 33 33 32 31 31 31 31 31 31
30 30 30 30 30 30 30 29 28 28 29 28 27 27 26 27
26 26 26 25 25 24 24 23 23 22 23 23 24 26 29 28
28 27 20 18 26 22 20 24 24 23 22 22 21 21 21 21
20 17 21 20 23 24 24 23 23 24 23 24 24 23 23 24
24 24 25 24 24 24 24 24 25 25 25 25 25 25 26 26
25 27 26 27 28 28 27 27 28 27 28 27 27 28 28 27
33 35 34 30 25 18 18 35 46 38 35 35 35 34 35 34
34 34 34 34 33 34 33 33 34 33 32 32 32 31 32 31
32 31 30 30 30 29 29 29 29 29 28 27 27 27 27 26
26 26 26 25 24 24 24 23 24 23 24 24 24 26 30 29
29 27 21 17 26 24 18 25 24 23 23 23 21 22 21 21
21 18 21 20 24 24 24 24 24 25 24 24 25 24 25 24
24 25 24 25 25 24 25 25 25 25 25 26 26 26 25 26
27 28 27 27 28 28 27 27 27 27 27 27 27 27 27 28
25 26 29 31 34 37 39 40 40 36 36 35 35 35 35 35
35 34 34 34 34 34 34 33 32 33 32 32 32 31 31 31
31 30 30 31 30 30 30 29 29 29 28 28 28 27 27 27
26 26 25 25 25 25 24 24 23 24 23 24 24 27 30 29
29 28 22 19 27 28 18 25 25 24 24 23 22 23 21 21
21 18 21 20 24 24 24 24 24 24 24 24 24 23 23 24
24 25 25 26 26 26 25 25 25 26 26 26 26 26 27 27
27 28 28 27 27 27 27 27 27 27 27 27 27 27 28 27
15 18 21 24 28 31 32 33 35 36 36 35 36 36 36 35
34 35 34 34 34 34 34 33 33 33 33 33 32 32 31 31
31 31 30 30 31 30 30 29 29 29 29 29 29 28 28 27
27 27 26 26 26 25 25 24 24 24 24 24 25 27 30 30
30 29 23 19 26 29 17 26 25 25 25 24 23 23 22 22
22 20 23 21 24 24 25 24 24 25 24 25 25 25 25 25
25 26 25 26 26 26 25 25 27 26 27 27 27 27 28 28
28 28 28 28 28 28 28 28 28 27 27 27 27 28 28 28
12 12 12 12 13 16 20 25 29 34 36 37 36 37 36 36
36 35 35 34 34 34 34 33 33 32 32 33 32 32 32 31
31 31 31 31 31 30 30 29 29 29 30 29 28 28 28 28
27 27 26 26 26 26 26 25 24 24 25 24 26 27 30 30
30 30 24 19 27 30 19 26 26 25 24 24 23 22 22 22
22 19 22 20 24 25 25 25 25 25 25 25 26 24 26 25
26 27 26 26 26 26 25 26 26 27 27 27 27 27 28 28
27 28 28 28 28 28 29 28 28 27 28 28 28 28 28 28
13 13 12 13 12 11 12 14 13 14 16 20 24 29 33 35
36 35 35 34 34 34 34 34 33 33 33 33 33 32 32 32
32 31 31 31 31 30 30 30 29 29 29 29 29 28 28 28
27 27 27 26 26 26 25 25 25 25 25 25 27 27 31 31
30 30 24 19 27 31 19 25 26 26 25 24 24 24 22 23
23 20 21 23 25 26 25 26 25 25 26 25 25 26 26 27
26 27 27 26 26 27 26 26 26 27 28 27 27 27 28 28
27 28 29 28 28 28 29 28 28 28 28 28 29 28 29 29
18 14 14 14 14 13 13 13 12 12 14 14 12 13 15 16
19 24 28 33 34 34 34 33 33 33 33 33 33 32 32 32
32 31 31 31 31 31 31 30 30 30 30 29 28 28 28 28
27 27 26 26 26 26 26 25 25 25 25 25 26 27 30 31
30 29 24 19 26 31 21 25 27 26 25 25 24 23 23 23
22 21 21 23 25 26 25 25 25 26 26 25 26 26 26 26
26 27 26 26 26 26 26 27 27 27 27 27 28 28 28 28
28 28 28 28 28 28 29 28 28 28 28 28 26 26 25 26
44 40 39 40 36 31 27 20 14 14 13 13 13 13 14 13
4 6 14 32 34 34 34 34 33 33 33 33 32 32 31 31
31 31 31 31 31 31 30 30 30 30 30 29 29 29 28 28
28 28 27 27 26 26 25 25 25 25 25 25 26 27 30 30
30 29 24 18 26 32 23 24 26 25 25 25 24 24 23 23
23 22 21 23 25 26 26 25 25 25 25 25 26 26 26 26
27 27 27 26 26 26 26 26 27 26 27 27 27 28 28 28
28 28 28 28 28 28 28 28 27 26 27 27 27 28 28 28
50 45 42 50 50 47 46 32 22 25 22 16 12 10 12 14
10 9 14 31 34 34 34 33 32 32 32 33 32 32 32 32
32 31 31 31 30 31 31 30 30 30 29 29 29 28 29 28
28 27 27 26 26 26 27 26 25 25 25 25 26 27 30 30
29 29 25 18 26 32 24 21 27 26 25 25 24 24 23 23
23 22 20 23 26 26 26 26 26 26 26 26 26 26 26 26
26 26 27 26 26 27 27 26 27 27 27 27 27 28 28 28
28 27 27 27 27 27 27 28 28 27 29 27 27 28 28 27
49 42 44 45 49 49 48 35 30 35 40 38 33 31 25 18
11 12 13 30 34 34 33 34 33 31 34 34 33 33 32 32
31 31 31 31 30 30 30 30 30 29 29 29 37 37 33 30
28 27 27 27 27 26 26 26 26 25 25 24 26 28 31 30
27 28 26 19 26 32 26 19 27 26 26 25 24 24 24 23
23 22 20 23 25 26 25 26 26 26 26 26 27 26 26 27
27 28 27 27 27 27 27 26 27 27 27 27 27 27 27 26
27 27 26 27 27 28 27 27 27 27 28 27 27 27 27 27
32 27 37 41 47 49 49 38 36 39 41 40 36 45 44 42
21 11 15 31 33 34 33 33 33 35 43 42 41 38 35 33
32 30 31 31 31 31 31 30 30 30 30 31 43 41 38 36
36 33 28 25 23 19 24 21 19 20 15 12 13 18 26 28
27 24 24 18 25 32 28 17 27 26 26 25 24 24 24 23
22 22 21 24 25 26 26 26 27 27 26 26 27 27 27 27
27 27 27 27 27 26 26 27 27 27 28 27 28 27 28 27
26 27 27 28 27 27 26 26 27 26 27 27 27 27 27 27
15 0 0 4 9 15 32 40 38 39 43 44 45 47 47 47
27 12 16 33 36 35 34 34 33 35 45 43 42 39 38 37
38 37 33 32 31 30 30 29 30 30 30 31 40 39 36 34
31 27 23 16 13 12 14 15 18 17 13 12 4 2 4 11
19 20 19 18 24 31 30 16 27 27 26 26 25 25 24 24
24 23 21 25 25 26 27 26 27 27 27 27 28 27 27 27
27 27 26 26 26 26 27 27 27 27 28 26 27 27 27 27
27 27 28 27 27 27 27 27 27 27 28 28 27 27 27 27
0 0 0 0 5 0 19 42 39 40 42 43 46 47 47 48
31 12 16 36 37 36 35 35 34 36 46 45 43 40 40 42
43 41 37 39 37 35 32 30 31 30 30 27 21 18 22 24
27 25 22 17 17 13 18 19 23 21 20 12 5 2 1 0
1 3 2 8 13 21 31 16 27 26 26 26 26 26 24 24
24 23 22 25 26 27 27 27 27 27 28 27 27 27 27 27
26 26 27 27 27 27 27 27 27 27 28 27 28 28 27 27
27 27 27 27 27 27 27 26 27 27 27 28 27 27 28 28
0 0 0 5 16 5 23 40 35 39 38 43 45 46 46 46
32 12 17 37 40 35 37 37 38 37 29 22 34 40 42 45
45 42 29 26 35 38 38 37 35 24 8 4 9 21 24 27
27 25 31 29 23 25 18 14 13 12 15 16 16 6 0 0
0 0 0 0 8 17 30 17 26 27 26 26 26 27 24 24
24 23 21 25 26 27 27 27 27 27 27 27 27 27 27 27
28 27 27 28 28 28 27 27 27 28 29 27 28 28 27 28
28 28 27 28 28 27 28 28 27 27 27 29 28 28 28 27
0 0 0 7 16 9 24 38 4 7 17 26 37 42 43 44
32 13 16 36 40 31 29 34 41 44 20 0 0 14 24 26
31 39 15 0 1 6 15 21 14 0 0 0 10 21 28 26
22 27 26 16 11 10 12 10 5 2 3 3 10 16 6 0
0 0 0 0 6 17 27 18 24 27 27 25 26 27 25 25
25 24 21 26 26 27 27 27 27 27 28 27 27 28 28 27
27 27 27 28 28 28 28 27 28 28 29 28 28 28 28 28
28 28 28 28 27 27 28 27 27 27 27 28 28 27 27 27
1 0 0 2 5 2 22 37 2 0 0 2 1 6 6 24
35 14 17 30 39 40 40 36 43 46 23 0 0 4 10 12
11 31 14 0 0 0 2 4 3 1 0 2 13 22 21 36
39 31 23 22 15 12 11 3 1 1 1 1 2 6 7 2
0 0 0 0 0 15 23 17 21 27 27 26 27 27 25 25
25 24 21 25 25 28 28 28 28 28 29 28 28 28 28 28
27 28 28 28 28 28 28 27 28 27 29 28 28 28 27 28
28 28 28 28 28 28 28 28 28 28 29 28 28 27 27 27
0 0 0 1 0 0 23 37 0 0 0 0 0 0 0 14
36 14 14 1 4 11 21 32 41 45 25 0 0 3 5 10
8 30 18 1 0 0 1 2 6 9 1 2 11 28 36 39
36 22 16 14 14 12 8 2 1 3 5 5 4 8 7 4
0 0 0 0 0 5 14 13 20 28 28 27 27 27 26 26
25 25 22 27 26 29 28 28 28 28 29 28 27 29 28 28
28 28 29 28 29 29 28 28 28 28 30 29 29 28 28 28
28 28 28 28 28 27 28 28 28 28 28 29 28 28 27 27
0 3 0 12 0 0 22 36 0 1 0 4 0 0 0 14
36 14 13 0 0 0 0 0 2 9 22 0 0 0 0 1
4 26 18 0 3 7 6 5 11 16 9 6 19 27 27 31
23 18 18 18 12 4 0 0 1 0 0 0 0 0 3 0
0 0 0 0 0 0 2 7 14 27 28 27 27 27 25 26
25 25 22 27 26 29 29 29 29 29 30 29 29 29 29 29
28 28 29 28 29 29 29 29 29 29 30 29 29 29 28 29
29 29 29 29 28 28 29 29 29 28 29 29 28 27 28 28
0 17 11 23 1 0 22 36 0 2 0 17 4 0 0 14
37 14 13 0 0 0 0 0 0 0 17 0 0 0 0 0
2 26 13 4 14 13 14 13 13 17 12 7 11 19 12 14
8 7 16 14 10 1 0 0 0 0 0 0 0 0 0 0
0 0 0 0 0 0 0 4 9 16 24 25 26 27 26 26
26 26 22 28 27 29 29 28 28 28 29 28 29 28 28 28
28 28 29 29 29 29 29 29 29 29 29 28 29 29 29 30
29 29 29 29 29 29 28 29 29 29 28 28 27 29 29 29
1 0 0 3 1 0 22 36 0 2 0 8 15 0 0 14
35 13 13 0 0 0 0 0 0 0 15 0 0 0 0 0
1 11 0 3 11 14 7 6 4 5 5 5 13 18 13 9
6 9 6 15 7 0 0 0 0 1 0 0 0 0 0 0
0 0 0 0 0 0 0 0 7 7 13 19 22 26 26 26
26 25 21 27 25 29 29 29 29 29 30 29 29 28 29 28
28 28 27 28 28 28 28 28 29 29 29 29 29 29 30 29
29 29 29 30 29 28 28 28 27 28 28 30 29 29 29 28
0 4 8 2 0 0 22 34 0 1 0 2 3 0 0 15
35 14 14 0 0 0 2 3 0 0 13 0 0 0 0 0
0 0 0 1 3 1 0 0 1 7 16 21 23 30 30 32
23 10 11 4 0 1 0 0 0 0 0 0 0 0 0 0
0 0 1 1 0 0 0 1 3 10 8 14 20 22 27 26
27 26 22 29 26 29 30 29 29 30 29 28 29 29 29 29
29 29 29 29 29 30 29 30 30 30 31 29 30 30 29 30
30 30 30 29 29 30 29 29 29 29 30 30 29 29 28 28
0 0 5 0 0 0 22 32 0 0 1 0 1 0 0 15
34 13 13 0 1 2 5 7 0 0 11 0 1 0 0 0
0 0 0 2 1 1 1 3 16 40 60 63 64 68 63 43
17 9 6 0 3 1 0 0 2 0 0 0 1 0 4 2
1 0 2 3 0 0 0 1 5 8 12 6 13 20 24 26
26 26 21 28 26 29 30 29 29 29 30 29 29 29 29 28
28 29 29 29 29 29 29 29 29 28 29 29 29 29 29 29
30 29 30 28 29 28 28 28 28 28 29 28 28 28 28 29
28 23 17 12 5 3 25 30 0 0 5 0 0 0 0 17
34 14 14 1 10 3 3 0 0 0 12 0 0 0 0 0
0 3 4 3 3 8 17 44 71 89 95 95 93 86 61 31
20 13 9 2 7 4 1 1 1 0 0 0 1 1 3 10
10 6 4 1 1 0 0 0 1 7 16 8 10 13 23 26
27 26 23 28 27 30 29 29 29 29 29 29 28 29 29 29
29 30 29 29 30 30 29 29 29 30 29 30 29 29 29 29
29 29 30 30 29 30 30 29 29 29 29 29 29 29 29 28
38 39 47 48 46 44 38 42 19 10 12 12 9 4 3 20
33 14 14 2 5 0 0 2 0 0 16 0 0 1 0 1
5 4 0 0 1 26 65 86 98 102 102 102 97 80 43 27
26 13 10 5 3 3 2 0 0 1 0 0 0 0 7 13
20 18 4 2 3 1 0 0 2 9 17 11 7 11 16 25
26 26 22 28 26 29 29 29 29 30 29 29 30 29 28 29
29 30 29 29 30 29 30 29 29 29 28 29 29 30 30 30
29 30 30 29 28 29 28 28 28 29 29 28 29 27 28 28
9 17 21 24 28 37 40 58 53 29 34 36 41 39 36 37
28 14 13 1 0 0 0 0 0 0 30 37 26 20 15 4
2 0 0 0 24 70 83 98 104 105 108 105 100 59 37 36
28 17 14 5 3 3 4 3 1 1 1 0 1 0 8 15
18 16 9 7 11 3 0 0 0 3 14 17 9 10 10 21
25 26 22 28 26 29 29 28 28 28 29 29 29 30 30 29
29 29 31 29 30 30 29 29 30 29 28 28 29 30 29 29
30 29 30 30 29 29 29 28 27 28 27 26 26 25 27 28
6 15 12 9 0 13 56 61 47 27 36 44 48 45 46 45
28 13 13 1 0 0 0 0 0 0 34 52 40 42 25 2
1 0 0 7 59 76 93 102 106 106 111 109 98 45 35 46
38 27 18 4 5 4 1 0 0 0 0 1 0 3 5 23
16 7 3 4 11 2 0 0 0 0 1 14 13 9 11 16
26 26 23 28 25 30 29 29 29 29 29 29 29 29 29 29
29 29 31 30 29 29 29 29 29 30 29 29 30 30 29 29
29 29 28 29 27 28 27 27 27 28 26 25 23 19 16 13
3 2 1 2 0 15 56 56 38 30 38 44 46 46 50 48
30 15 15 6 1 0 0 0 0 0 34 47 38 43 14 0
0 0 0 38 69 86 101 107 110 109 111 112 96 44 54 70
41 32 14 4 4 1 1 0 0 0 0 2 0 1 10 13
7 2 2 4 10 2 0 0 0 0 0 0 13 8 9 12
25 26 23 28 26 30 30 30 30 30 29 29 29 29 30 29
29 29 30 29 29 28 29 29 31 30 29 29 29 30 30 30
30 30 30 28 26 26 30 21 15 12 11 10 9 9 9 10
2 1 0 0 0 14 54 50 19 9 18 26 29 34 38 45
30 15 17 33 39 32 23 13 7 3 35 35 39 38 6 0
0 0 17 63 78 96 105 109 112 112 114 113 99 53 77 58
37 21 12 4 5 0 1 0 0 0 0 1 1 1 3 8
7 0 1 4 6 0 0 0 0 1 2 0 1 5 5 8
20 26 24 28 27 31 31 30 30 29 30 29 29 29 30 28
28 28 30 30 29 29 30 30 31 31 31 31 30 28 26 23
20 16 15 12 11 12 29 20 7 11 13 14 14 14 16 16
0 0 0 0 0 14 54 51 16 0 0 0 0 0 0 21
32 16 18 37 48 47 46 45 45 43 47 29 35 35 4 0
0 2 51 73 89 102 109 111 112 114 118 119 104 67 79 51
34 19 15 7 7 3 0 1 1 1 1 0 1 0 2 7
6 2 1 8 9 4 1 0 3 11 11 7 1 2 4 3
15 27 24 28 27 31 30 30 29 29 29 29 30 30 29 29
28 29 30 30 31 31 30 28 27 24 21 17 16 14 12 12
13 14 14 15 16 15 20 16 12 17 19 20 21 21 22 22
8 0 0 0 0 11 52 51 14 0 0 0 0 0 0 17
33 16 17 37 49 49 47 48 48 49 48 10 4 8 0 1
0 23 67 82 97 105 110 112 115 116 118 122 108 82 71 54
33 23 11 6 11 14 4 0 2 1 3 2 4 2 3 6
6 3 1 7 7 4 4 10 11 13 23 12 6 5 0 2
8 25 25 28 27 30 30 29 28 28 26 26 25 22 24 31
30 28 27 24 22 19 16 15 15 15 15 15 16 17 18 19
20 19 20 21 21 21 27 24 16 22 24 25 25 25 26 27
16 0 0 0 0 7 51 50 12 0 0 0 1 12 11 21
34 19 18 33 44 45 46 48 49 51 46 6 0 0 0 0
1 52 76 93 101 107 111 113 116 119 121 121 113 101 78 53
32 20 13 9 12 11 11 8 8 4 3 4 5 3 4 4
5 5 6 10 8 5 6 2 8 9 18 19 7 6 1 2
9 24 25 25 26 26 27 27 28 28 28 27 26 16 16 19
17 16 17 16 17 18 19 20 20 21 21 22 22 24 25 25
26 26 27 27 26 24 22 20 19 26 27 26 28 28 29 28
11 0 0 0 0 6 46 45 9 0 0 0 4 28 28 26
32 29 25 29 33 34 36 36 36 44 43 4 0 0 0 0
15 66 86 97 104 108 113 117 121 120 123 124 114 113 89 59
42 25 14 18 18 6 5 11 10 13 9 9 9 6 3 2
4 9 12 17 10 2 5 1 0 3 4 9 9 9 4 0
8 20 22 24 27 28 26 24 21 19 17 17 17 14 16 18
19 21 22 22 24 24 25 26 26 27 27 26 27 28 28 29
29 28 28 28 27 23 3 3 16 28 30 31 30 30 28 29
12 1 0 0 0 8 45 45 8 0 0 0 2 27 28 24
28 23 20 23 21 23 31 31 32 43 42 3 0 0 0 0
36 74 94 101 106 113 117 120 126 130 132 127 114 109 92 60
45 27 18 23 21 12 11 16 13 14 12 15 13 9 4 0
4 10 7 17 6 0 2 1 0 0 1 1 3 4 4 0
2 13 13 17 17 17 15 17 19 19 20 21 22 22 23 24
26 26 27 28 28 29 29 29 29 29 29 29 30 30 30 30
30 30 30 29 27 22 2 1 12 28 30 31 31 30 30 30
0 0 0 0 0 8 46 46 6 0 2 0 0 6 8 15
24 21 22 24 26 27 31 32 33 42 41 3 0 0 0 2
55 84 98 106 110 116 120 126 133 136 136 126 111 108 92 60
43 34 23 27 23 17 17 14 17 19 9 19 21 12 7 0
11 3 16 7 9 0 1 4 3 2 0 0 0 0 0 1
0 11 16 16 16 18 20 21 22 23 24 25 26 27 27 28
29 29 29 29 29 30 30 30 30 31 31 31 30 30 30 31
29 13 7 3 11 19 3 3 9 27 29 30 31 30 30 29
0 0 0 0 0 10 48 46 6 0 1 0 0 0 0 7
21 16 19 14 9 14 21 27 35 39 39 4 0 0 0 9
70 95 104 109 111 120 126 132 135 136 135 121 110 107 90 61
44 35 26 27 22 25 23 14 13 20 14 10 22 12 6 3
10 9 16 8 10 0 0 1 15 6 1 0 0 0 1 3
0 12 18 19 19 21 25 27 27 27 28 29 29 29 30 29
30 29 30 30 31 31 31 31 31 31 32 32 31 30 32 32
28 5 7 12 19 20 1 0 8 26 30 30 30 29 29 30
0 0 0 0 0 12 49 45 5 0 1 5 1 0 0 8
29 25 25 13 0 0 0 0 0 2 20 4 0 0 0 27
86 105 112 114 119 124 132 134 133 136 132 124 114 105 96 66
46 45 35 28 28 25 25 14 10 19 18 6 19 24 10 8
7 8 16 6 5 6 1 0 4 14 4 1 0 0 0 0
0 18 23 21 22 25 28 28 28 29 29 30 28 30 31 31
32 31 31 32 32 32 32 31 31 31 32 32 31 31 31 31
31 30 30 29 29 23 1 0 8 27 30 29 30 30 30 30
13 8 4 2 0 14 50 46 5 0 0 4 6 0 0 9
35 28 25 14 0 0 0 0 0 0 15 4 0 0 7 59
98 111 115 117 122 125 132 134 135 136 133 122 116 110 101 81
63 52 49 32 35 25 26 15 12 15 19 13 10 27 19 13
15 10 17 6 5 4 7 0 0 6 0 2 1 0 0 0
0 14 26 23 24 27 29 30 30 30 30 30 31 32 32 32
31 31 31 31 32 32 32 31 32 33 32 32 32 32 33 32
31 30 30 28 27 24 6 0 12 26 29 30 30 29 29 29
43 31 40 39 32 34 42 41 11 0 0 3 10 1 0 8
39 30 25 14 0 0 1 1 0 0 13 4 0 3 31 82
105 113 118 121 124 126 133 135 135 136 136 120 118 117 105 86
71 69 60 45 36 29 27 17 15 18 26 16 5 14 19 23
12 13 18 8 8 8 15 1 0 0 1 2 3 0 4 0
0 10 26 23 27 29 30 30 31 30 31 31 32 32 31 32
31 31 31 32 32 32 32 32 32 32 32 32 32 32 31 32
31 30 30 29 28 25 12 0 17 27 30 30 31 30 29 29
21 16 22 26 25 25 37 36 31 14 9 8 17 12 5 7
39 25 23 14 0 0 9 9 0 0 13 5 0 12 56 93
106 114 118 121 123 125 129 133 133 134 134 130 128 121 113 94
85 90 80 62 46 32 31 21 21 25 28 18 11 17 26 23
17 8 11 15 12 17 16 3 0 4 2 3 9 1 2 5
0 10 26 23 28 30 31 31 31 31 30 30 32 33 32 32
32 32 32 32 32 32 31 31 31 32 32 31 31 31 31 31
31 31 30 29 26 23 19 15 23 29 30 30 31 30 29 29
0 0 0 8 13 3 36 38 36 41 38 33 41 40 37 36
44 26 22 14 0 5 18 16 6 0 12 18 9 24 71 93
103 110 117 120 125 128 130 131 133 133 133 134 132 131 117 100
92 100 89 71 52 39 31 22 23 36 26 22 18 17 34 16
21 14 15 16 15 19 6 4 0 3 7 6 6 5 4 2
0 9 26 23 29 30 32 31 31 31 30 32 32 31 32 32
31 32 31 32 32 32 32 32 31 31 32 32 31 31 31 31
30 30 31 29 27 23 22 23 27 30 30 31 31 29 30 29
0 0 0 8 17 12 39 38 30 6 8 16 23 34 42 47
47 31 20 14 0 4 13 11 5 0 13 42 40 51 69 84
94 104 114 119 124 126 128 129 131 129 130 134 130 131 128 112
95 108 93 79 53 50 36 25 35 48 37 32 24 20 21 13
15 19 18 13 13 9 2 10 3 5 6 2 5 7 4 0
0 12 27 24 30 31 32 31 31 31 31 32 31 31 32 31
31 32 32 32 32 32 32 32 32 32 32 32 31 31 31 31
31 30 30 29 28 25 25 26 29 29 30 29 31 29 30 30
0 7 11 4 7 14 41 40 28 1 0 1 7 3 23 47
44 28 21 17 1 0 3 0 1 0 11 43 41 53 57 66
69 59 49 59 64 74 78 80 79 79 80 86 84 87 90 90
71 77 63 59 49 43 35 28 43 50 44 26 23 24 14 24
12 19 14 8 12 4 2 13 9 7 3 0 2 10 3 0
0 17 28 24 31 31 33 32 32 32 33 33 32 32 33 32
31 32 32 31 32 32 32 31 32 32 31 32 32 32 32 32
32 31 30 30 29 27 27 30 31 31 31 30 31 31 31 31
8 32 37 20 10 8 42 41 25 0 0 11 33 12 32 45
41 25 22 24 17 0 4 0 0 0 11 42 42 51 42 21
4 0 0 50 64 68 70 69 64 59 55 50 46 43 43 42
41 43 45 46 46 45 42 36 33 34 25 18 21 24 24 31
25 17 8 8 16 4 7 6 9 8 2 0 6 11 2 0
2 21 28 25 32 32 33 32 32 32 32 33 32 33 33 33
33 32 33 32 33 33 33 32 32 32 32 33 32 32 32 33
31 30 30 31 30 29 29 29 30 30 30 29 30 30 30 30
19 32 30 1 0 6 44 43 26 0 1 2 27 28 37 44
35 22 23 24 10 0 2 0 0 0 10 39 32 36 49 6
1 4 0 10 15 17 21 27 29 25 20 21 24 28 33 38
41 28 24 26 21 19 22 23 28 22 20 13 12 26 29 28
27 22 20 12 11 4 18 9 7 14 9 2 5 9 1 0
6 24 28 25 32 31 33 32 32 32 32 32 32 32 33 34
33 33 32 33 33 32 32 32 32 32 32 33 33 32 32 31
31 31 31 31 29 29 29 31 30 30 30 30 31 31 30 30
2 38 38 2 0 7 47 44 26 0 0 0 6 13 38 46
32 24 27 23 3 0 0 0 0 0 10 43 13 8 49 2
5 8 1 2 4 23 45 65 86 96 101 112 119 124 125 124
123 90 65 75 48 41 47 47 58 25 58 33 13 13 21 38
27 21 24 18 13 4 16 3 11 9 9 3 8 6 0 0
6 25 28 26 31 31 33 32 32 32 32 32 33 32 32 32
33 33 32 32 32 32 31 31 31 32 32 31 31 30 31 31
31 31 30 30 30 31 32 32 31 30 32 31 31 30 30 29
0 23 19 2 4 8 47 45 29 0 0 0 0 3 34 47
32 24 23 24 25 21 17 14 10 8 14 45 13 0 23 0
5 7 4 26 30 73 113 119 126 133 130 133 131 131 132 131
126 106 73 85 51 48 51 59 55 30 73 58 48 44 78 94
78 30 21 20 17 6 12 3 8 3 3 2 6 8 2 0
1 24 28 25 32 31 32 32 32 32 31 31 31 31 31 31
31 32 32 31 31 32 31 31 31 31 32 31 31 32 32 32
31 31 31 30 31 30 31 31 30 30 30 30 30 29 14 14
0 0 0 2 4 5 46 45 29 0 0 0 0 0 30 47
32 24 25 30 46 48 46 44 48 50 49 49 20 5 2 0
9 5 1 30 8 47 109 118 122 129 132 130 131 133 133 134
131 110 86 86 58 64 47 63 64 45 86 72 91 120 127 125
125 102 32 15 17 15 12 5 7 2 0 5 9 8 2 3
1 23 28 25 31 30 31 31 31 31 31 31 32 33 32 32
33 33 33 32 31 31 31 31 31 31 32 32 31 31 31 31
30 30 30 30 31 31 30 31 30 30 29 30 29 17 24 27
0 0 0 0 0 4 45 45 24 0 0 0 0 1 32 49
34 23 25 29 53 55 54 54 54 54 54 52 29 4 0 9
2 0 0 25 26 16 65 107 113 125 132 131 133 135 136 137
134 119 111 97 75 65 55 73 68 67 91 103 122 97 76 89
105 116 93 14 11 15 11 3 5 7 0 10 7 8 2 4
2 21 28 25 32 30 32 31 32 32 32 32 32 32 33 33
32 33 32 32 31 31 31 31 31 32 31 31 31 31 30 30
30 30 30 30 31 30 31 30 30 30 30 29 28 16 30 18
0 0 0 0 0 3 44 45 24 0 0 0 0 1 30 48
33 21 26 27 42 45 45 47 49 51 52 51 19 2 1 19
0 0 0 19 20 34 68 85 102 118 126 133 133 136 137 137
137 136 127 122 117 110 91 97 95 101 110 119 97 74 105 133
133 111 112 44 6 17 12 6 6 4 0 12 5 7 2 4
4 18 28 25 32 29 32 32 31 32 32 32 32 32 33 32
32 32 32 32 32 31 30 30 31 30 30 31 31 30 30 29
29 29 28 28 28 31 31 30 30 30 30 30 26 17 30 15
0 0 0 0 0 2 44 46 24 0 0 0 0 0 27 44
30 21 26 23 29 29 29 29 29 30 30 34 14 8 66 29
3 0 0 9 20 41 81 110 98 114 125 132 135 138 136 135
137 135 135 134 130 128 124 120 121 130 120 112 94 111 124 127
133 127 110 77 2 16 13 6 7 1 0 8 5 3 3 3
3 20 27 26 32 30 32 31 31 32 31 31 32 32 32 32
31 32 31 31 30 29 28 27 28 29 31 30 31 27 13 12
9 7 5 6 18 31 31 30 30 30 30 29 27 16 25 12
0 0 0 0 0 2 42 46 26 0 0 0 0 0 27 47
33 20 25 24 36 38 37 36 35 34 33 35 17 34 103 43
13 2 0 3 16 39 82 109 108 116 125 133 137 138 137 134
133 131 134 134 130 127 126 123 128 130 120 103 72 129 120 120
124 119 118 99 5 13 16 10 12 4 2 7 1 0 1 4
9 25 27 25 31 28 32 31 31 32 31 31 32 31 32 27
23 20 16 13 10 8 5 5 8 22 30 30 30 27 3 1
2 2 2 2 16 31 31 31 30 30 30 29 26 3 0 0
15 16 18 22 27 32 46 44 25 0 0 0 0 0 29 50
34 18 25 25 38 39 40 39 39 40 40 40 20 74 113 56
25 0 0 0 10 38 73 105 115 120 127 134 137 136 133 131
130 132 129 131 129 130 127 124 130 129 124 111 58 88 129 133
126 109 116 105 9 7 13 9 14 3 4 3 0 2 2 5
15 26 27 26 32 29 32 31 31 31 32 32 32 32 32 12
0 2 7 5 5 0 0 0 0 17 30 30 31 26 4 2
3 4 2 3 15 32 31 31 31 30 28 3 1 0 0 0
40 41 43 44 45 45 39 29 21 12 10 10 10 10 32 47
35 23 28 28 41 42 42 40 41 41 42 43 35 100 122 82
29 9 0 0 5 28 64 111 118 123 130 135 135 134 129 128
130 128 125 129 130 128 129 130 130 132 134 121 90 97 112 118
132 107 108 108 11 5 13 8 16 6 3 0 0 1 1 4
16 26 27 25 31 30 32 31 32 31 32 32 31 32 31 12
0 1 6 4 4 0 0 0 0 13 29 30 30 24 3 2
3 2 2 2 13 31 32 32 32 30 28 1 0 0 0 0
40 40 40 40 40 39 39 39 38 38 37 37 37 37 37 38
37 36 37 37 38 38 38 38 39 38 40 46 69 113 131 111
24 40 3 0 3 23 74 113 121 126 129 135 134 132 128 127
125 125 120 121 126 125 127 130 131 134 135 121 99 112 127 115
126 110 104 96 11 3 8 5 9 4 0 0 1 4 3 7
18 26 27 25 31 30 32 31 31 31 31 32 32 32 31 13
0 1 6 5 6 0 0 0 0 12 30 30 30 25 3 2
2 3 2 2 9 31 32 31 31 31 30 6 6 19 19 22
38 38 38 38 38 38 37 38 37 37 37 37 36 36 36 36
36 35 36 37 37 36 36 36 37 37 37 48 102 121 127 122
38 52 30 0 5 27 83 114 120 126 130 133 132 128 128 126
124 123 121 121 123 124 126 125 131 136 136 103 75 118 136 121
117 109 109 83 14 3 11 3 6 5 2 1 0 4 4 10
17 25 27 25 31 29 32 31 31 32 32 32 33 32 31 13
0 0 6 5 6 0 0 0 0 14 30 30 30 28 7 3
4 5 5 5 8 28 29 29 29 29 28 9 21 29 27 28
38 38 37 36 36 36 36 35 35 35 35 35 35 34 35 34
34 35 36 36 35 36 35 36 36 36 37 70 115 123 130 132
84 31 50 9 11 29 92 113 119 122 122 129 128 127 127 126
123 121 120 118 121 122 125 125 134 134 133 97 89 121 134 122
115 109 111 67 16 4 8 1 6 11 4 0 0 0 4 8
16 25 26 25 29 30 32 31 31 31 31 32 32 32 31 15
1 1 5 5 5 0 0 0 0 12 30 31 30 29 14 12
11 11 11 11 13 26 31 32 31 30 29 7 27 29 27 27
37 31 28 28 27 26 25 25 24 23 23 23 23 22 21 21
22 22 23 23 24 24 25 26 30 33 46 100 120 127 137 138
122 50 26 20 30 48 103 112 117 117 119 122 125 124 126 128
124 123 120 118 120 123 122 125 129 125 115 99 107 124 125 114
115 109 108 58 20 6 7 1 5 9 5 0 5 4 4 9
15 25 27 24 28 28 32 31 32 32 31 32 32 31 30 15
0 0 2 1 2 0 0 0 0 11 30 30 31 29 9 4
5 4 4 4 7 26 31 30 31 30 20 11 29 29 28 26
35 16 1 0 0 0 0 0 0 0 0 0 0 0 0 0
0 0 0 0 0 0 0 0 20 36 80 111 120 124 128 133
122 93 72 62 68 92 105 111 115 116 113 114 119 126 127 128
126 121 119 118 119 117 119 123 122 124 96 107 126 128 117 112
121 107 88 51 11 4 6 3 12 9 1 2 5 7 4 9
12 25 26 25 29 28 31 31 31 31 32 32 32 32 31 16
1 1 0 0 0 0 0 1 0 10 29 30 31 29 9 2
4 3 4 3 6 25 8 7 7 7 10 29 28 28 28 26
34 20 2 0 0 0 0 0 0 0 0 0 0 0 0 0
0 0 0 0 0 0 0 0 22 52 102 119 123 122 119 118
116 105 92 100 102 103 108 112 115 114 115 116 118 128 128 127
125 123 120 119 114 110 115 119 115 125 110 111 127 124 124 119
111 110 65 41 12 8 2 4 13 6 0 2 3 5 12 10
11 24 26 25 29 29 32 32 31 32 32 33 33 32 30 17
1 1 0 0 1 1 0 2 0 10 30 30 32 29 10 3
4 4 3 3 5 12 21 30 28 27 29 28 28 28 27 26
34 23 4 0 0 0 0 0 0 0 0 0 0 0 0 0
0 0 0 0 0 0 0 0 19 66 105 129 129 123 121 120
123 111 98 99 105 104 110 114 115 117 116 116 119 124 126 130
124 117 120 115 111 112 112 115 112 117 123 125 127 124 128 123
120 78 59 37 16 10 9 8 6 5 3 2 2 4 19 11
10 24 26 25 28 29 31 30 31 31 32 33 33 32 29 17
1 1 1 2 7 1 1 2 0 8 29 30 32 29 10 2
3 3 3 3 5 7 29 31 30 30 29 28 28 28 24 5
33 24 5 0 0 0 0 0 0 0 0 0 0 0 0 0
0 0 0 0 0 0 0 0 15 65 102 114 121 129 131 134
130 120 99 93 108 108 114 115 120 121 120 121 122 127 126 124
123 118 116 114 111 105 109 111 108 113 119 116 132 133 131 126
93 66 64 53 35 11 12 7 7 5 4 0 3 8 20 12
8 22 25 25 28 28 30 31 31 32 32 33 33 31 28 18
1 1 0 0 0 0 1 2 0 8 29 30 32 29 11 3
4 3 3 3 4 6 29 30 29 28 28 27 26 27 18 0
32 25 8 0 0 0 0 0 0 0 0 0 0 0 0 0
0 0 0 0 0 0 0 0 12 49 81 95 97 98 97 111
114 109 91 90 107 111 114 118 121 122 123 126 126 123 124 123
121 121 115 112 113 106 105 107 106 111 129 122 125 129 121 94
67 71 63 53 28 7 5 7 8 4 3 1 5 17 20 12
7 20 24 24 27 27 30 30 31 32 33 33 34 31 29 19
2 1 0 0 0 1 1 2 0 7 28 29 32 29 10 2
3 3 3 3 5 7 28 30 29 29 28 28 27 26 20 0
30 25 9 0 0 0 0 0 0 0 0 0 0 0 0 0
0 0 0 0 0 0 0 0 8 38 44 58 58 52 53 71
84 77 91 92 102 112 115 120 120 121 125 126 124 123 123 120
118 117 113 112 110 105 102 101 104 104 117 121 117 101 72 69
73 71 63 52 25 8 2 7 4 2 2 0 5 27 27 23
21 26 29 27 28 27 29 29 30 32 33 32 34 30 29 20
2 1 0 0 1 1 0 2 0 6 28 29 31 29 11 3
3 3 3 2 4 8 24 29 28 28 27 27 26 25 21 4
29 24 10 0 0 0 0 0 0 0 0 0 0 0 0 0
0 0 0 0 0 0 0 0 6 35 33 32 36 19 47 96
100 97 104 99 100 113 117 120 122 121 126 126 124 121 121 122
119 117 112 112 111 106 99 97 99 97 85 78 61 60 77 81
81 77 67 56 26 6 5 8 1 1 0 3 27 45 45 43
42 40 38 37 36 34 29 28 30 32 33 34 34 30 29 20
2 1 1 1 1 0 0 2 0 5 26 28 30 28 12 1
2 3 2 1 3 10 19 29 28 28 27 26 25 25 23 11
29 24 12 0 0 0 0 0 0 0 0 0 0 0 0 0
0 0 0 0 0 0 0 0 3 33 33 30 35 8 29 93
95 98 100 105 101 110 117 120 124 126 129 127 125 122 121 118
118 118 113 108 107 101 94 92 95 102 91 87 105 109 108 109
103 90 74 56 24 12 8 6 3 0 2 32 47 47 45 43
43 41 39 38 37 36 30 26 29 31 33 34 33 31 29 22
2 0 1 1 1 0 0 1 0 4 25 26 28 27 15 4
7 4 2 5 5 13 10 27 27 27 25 25 25 21 21 32
27 23 12 0 0 0 0 0 0 0 0 0 0 0 0 0
0 0 0 0 0 0 0 0 1 30 31 28 35 10 26 93
100 99 97 103 107 110 117 122 125 129 128 128 125 123 121 121
116 115 112 100 99 103 98 92 93 104 103 110 124 126 120 112
102 87 72 50 29 27 13 4 2 1 25 50 48 46 45 43
43 41 38 37 37 35 31 25 28 31 33 33 33 31 29 22
2 0 0 0 0 0 0 0 0 3 24 25 28 26 25 24
24 21 18 24 21 23 4 25 26 26 24 22 22 12 2 5
26 23 13 0 0 0 0 0 0 0 0 0 0 0 0 0
0 0 0 0 0 0 0 0 0 26 30 27 35 17 32 93
100 98 95 99 110 109 114 118 125 128 125 128 127 121 123 122
118 115 112 106 101 99 95 91 95 106 112 119 121 125 120 111
100 84 69 46 41 30 14 13 1 14 47 51 48 47 46 44
43 42 38 37 37 36 32 23 27 30 31 33 33 31 29 23
3 0 1 0 0 0 0 0 0 3 24 25 26 26 26 26
27 26 26 25 23 23 14 7 16 8 3 2 2 0 0 0
25 22 13 0 0 0 0 0 0 0 0 0 0 0 0 0
0 0 0 0 0 0 0 0 0 22 29 26 26 9 45 101
106 103 97 96 108 111 115 116 123 128 127 130 124 123 121 122
118 113 111 109 102 98 93 94 97 106 119 126 127 126 118 106
97 83 64 47 47 25 34 20 8 27 52 51 47 46 46 45
43 39 39 38 36 36 33 22 27 29 31 31 31 30 29 23
3 0 0 0 0 0 0 0 0 3 25 27 29 28 27 27
27 26 26 25 16 12 9 1 0 0 0 1 0 0 0 0
24 22 14 0 0 0 0 0 0 0 0 0 0 0 0 0
0 0 0 0 0 0 0 0 0 20 28 25 18 0 52 101
114 112 95 89 106 108 113 116 117 126 124 127 124 120 120 117
115 113 110 105 102 97 95 92 97 110 120 127 127 125 122 105
92 81 62 47 56 51 45 36 22 24 51 50 48 46 47 46
43 39 40 39 36 36 34 23 24 27 29 31 32 31 29 25
4 0 0 0 0 0 0 0 0 5 26 28 29 28 27 26
25 24 24 17 0 0 0 0 15 0 0 0 0 0 0 0
24 21 14 0 0 0 0 0 0 0 0 0 0 0 0 0
0 0 0 0 0 0 0 0 0 17 27 24 17 0 36 66
78 93 100 73 93 104 112 117 121 126 125 123 122 121 116 116
112 111 104 104 99 94 93 95 99 112 121 125 123 124 120 105
90 76 59 46 61 63 54 45 29 19 52 53 51 48 47 46
44 39 40 38 35 35 34 24 23 27 30 31 31 31 29 26
13 9 7 5 6 5 2 1 8 16 27 30 30 28 26 26
25 24 24 16 0 0 0 17 64 32 0 0 0 0 0 0
23 21 14 0 0 0 0 0 0 0 0 0 0 0 0 0
0 0 0 0 0 0 0 0 0 15 27 22 18 0 6 41
41 52 60 61 63 99 110 116 118 126 125 125 121 120 117 115
111 108 106 102 99 93 93 96 104 118 124 122 123 125 119 104
91 76 57 46 63 67 57 47 33 19 51 53 52 48 47 45
44 41 40 39 36 36 34 27 21 26 28 30 31 30 29 28
26 25 21 17 18 15 3 1 16 22 28 30 29 28 26 25
24 23 18 10 0 0 0 27 41 40 0 0 0 0 0 0
22 21 13 1 0 0 0 0 0 0 0 0 0 0 0 0
0 0 0 0 0 0 0 0 0 14 26 23 18 0 3 24
69 88 89 93 88 82 107 112 116 124 124 120 118 116 114 113
107 104 104 101 96 94 96 101 112 118 123 123 122 124 118 107
91 73 53 48 68 71 65 51 37 22 49 53 52 48 47 44
43 41 39 39 38 37 34 30 21 26 28 30 31 31 30 28
28 26 22 19 19 17 4 2 19 24 28 29 29 27 25 25
23 21 1 0 0 0 0 0 0 0 0 0 0 0 0 0
22 20 14 1 0 0 0 0 0 0 0 0 0 0 0 0
0 0 0 0 0 0 0 0 0 12 26 22 18 2 9 54
90 99 104 110 107 84 100 111 118 118 120 120 117 114 113 111
107 105 103 99 95 98 100 106 118 123 127 125 123 122 118 106
91 70 53 50 70 76 69 56 42 29 32 41 51 50 47 45
43 41 39 39 37 36 33 30 20 24 27 29 30 30 29 28
27 27 23 22 21 20 6 2 21 24 27 28 28 27 25 25
24 22 1 0 0 0 0 0 0 0 0 0 0 0 0 0
22 20 13 1 0 0 0 0 0 0 0 0 0 0 0 0
0 0 0 0 0 0 0 0 0 11 26 22 19 4 11 59
93 103 109 111 107 92 92 105 114 118 118 118 115 115 112 106
108 106 101 100 99 103 106 113 118 124 125 123 123 124 115 103
90 71 51 51 69 78 74 62 50 34 11 12 30 53 47 45
44 44 40 39 36 36 34 32 20 23 26 28 29 30 29 27
27 27 24 22 23 22 8 1 21 25 27 27 28 26 25 24
24 22 2 0 0 0 0 0 0 0 0 0 0 0 0 0
22 19 14 1 0 0 0 0 0 0 0 0 0 0 0 0
0 0 0 0 0 0 0 0 0 10 25 21 21 29 36 42
63 93 105 109 107 95 90 100 107 117 119 116 115 115 111 107
105 103 104 102 105 108 111 117 121 124 124 122 122 123 116 103
90 69 53 54 71 80 79 70 59 44 23 19 9 61 50 45
44 44 41 39 37 37 35 33 22 23 26 28 29 29 29 27
27 28 25 24 25 24 10 1 22 24 25 26 26 25 24 24
23 22 15 1 0 0 0 0 0 0 0 0 0 0 0 0
22 20 14 2 0 0 0 0 0 0 0 0 0 0 0 0
0 0 0 0 0 0 0 0 0 10 25 22 23 42 49 50
53 83 100 105 105 96 93 94 104 112 114 113 113 112 109 104
102 104 105 105 111 114 116 116 123 124 126 122 122 122 113 105
89 69 52 56 72 82 82 74 63 50 32 16 5 57 62 45
44 44 41 39 39 37 35 33 24 21 26 28 29 29 29 28
28 28 26 26 27 25 12 1 23 25 25 25 25 24 24 24
23 21 12 0 0 0 0 0 0 0 0 0 0 0 0 0
21 20 14 2 0 0 0 0 0 0 0 0 0 0 0 0
0 0 0 0 0 0 0 0 0 8 25 21 22 43 48 48
49 72 93 101 101 97 95 98 105 109 110 109 108 108 107 103
104 105 108 111 113 118 114 117 123 124 127 123 122 120 113 104
89 68 52 56 73 84 85 79 69 57 42 13 0 41 72 47
44 44 40 39 39 39 37 34 28 19 25 27 29 29 28 28
28 27 27 27 27 27 16 0 22 26 26 25 25 25 24 24
22 20 6 0 0 0 0 0 0 0 0 0 0 0 0 0
21 19 14 2 0 0 0 0 0 0 0 0 0 0 0 0
0 0 0 0 0 0 0 0 0 7 24 20 20 21 22 21
23 61 88 97 98 100 97 100 102 108 110 112 106 108 106 103
104 109 110 111 118 118 114 114 120 125 125 126 121 118 113 101
88 69 52 57 72 86 90 84 77 63 51 28 0 32 76 59
46 44 41 38 40 39 37 34 30 19 24 27 27 25 20 23
21 24 28 27 29 27 18 0 20 26 26 25 24 24 24 23
22 21 7 0 0 0 0 0 0 0 0 0 0 0 0 0
20 19 14 2 0 0 0 0 0 0 0 0 0 0 0 0
0 0 0 0 0 0 0 0 0 7 24 20 18 15 14 15
17 61 91 96 97 105 100 101 102 108 111 109 107 106 104 102
105 108 113 113 114 114 111 115 117 122 124 122 122 118 114 105
90 71 53 57 73 86 96 90 84 68 58 45 8 28 83 77
46 43 40 38 39 36 36 34 32 22 29 33 28 19 18 13
10 14 24 26 27 25 18 0 17 25 25 25 23 23 23 23
22 18 0 0 0 0 0 0 0 0 0 0 0 0 0 0
20 19 14 2 0 0 0 0 0 0 0 0 0 0 0 0
0 0 0 0 0 0 0 0 0 7 23 20 18 17 17 17
19 58 91 97 101 104 103 106 107 108 109 107 101 100 99 102
107 111 113 115 112 115 113 116 116 120 125 118 121 120 111 103
91 70 53 57 74 91 100 98 88 77 66 52 26 27 76 73
47 43 41 39 39 34 35 41 39 37 35 31 30 17 14 11
7 13 21 26 25 25 19 0 15 25 24 24 24 23 23 23
22 13 0 0 0 0 0 0 0 0 0 0 0 0 0 0
20 19 13 2 0 0 0 0 0 0 0 0 0 0 0 0
0 0 0 0 0 0 0 0 0 8 24 20 18 20 21 21
22 51 81 99 103 107 108 105 111 107 103 100 97 94 96 103
107 107 110 115 113 115 111 112 118 121 122 121 119 114 115 103
90 70 54 57 75 94 103 100 92 83 71 59 39 39 69 74
49 43 40 36 31 25 34 48 44 44 30 22 18 14 11 14
6 11 18 24 23 23 18 0 11 23 23 23 24 23 22 22
20 4 0 0 0 0 0 0 0 0 0 0 0 0 0 0
20 18 14 3 0 0 0 0 0 0 0 0 0 0 0 0
0 0 0 1 2 3 4 4 6 16 25 20 18 20 21 21
22 45 76 96 105 108 110 109 108 100 95 91 93 92 98 103
103 104 109 113 112 111 111 112 119 120 119 118 120 117 115 103
88 67 54 58 78 96 103 102 95 85 77 66 47 50 63 86
50 45 39 28 21 22 29 42 33 23 17 13 11 10 10 15
4 9 14 23 23 22 18 0 10 22 22 23 24 22 21 21
17 0 0 0 0 0 0 0 0 0 0 0 0 0 0 0
19 18 14 5 0 1 2 3 4 5 6 8 9 10 12 13
14 15 16 16 16 17 17 17 17 16 17 17 18 20 21 21
22 33 67 90 102 105 103 107 103 97 90 84 87 92 96 102
104 103 104 107 110 111 107 114 121 119 119 117 122 119 116 105
91 68 54 61 77 96 106 105 98 90 79 71 56 54 64 75
49 45 38 30 20 19 17 18 14 15 13 10 10 9 12 9
4 7 11 20 21 21 18 1 8 22 22 21 22 22 22 21
15 0 0 0 0 0 0 0 0 0 2 0 0 0 0 0
19 19 18 17 16 16 16 16 17 17 17 17 16 17 17 16
17 17 17 17 17 16 17 17 16 16 17 17 18 20 22 22
22 24 48 76 89 98 98 96 91 88 80 83 90 95 93 98
100 103 103 105 107 107 105 112 119 116 116 119 120 119 116 105
93 69 54 61 77 96 107 106 100 92 85 78 62 53 68 75
49 48 40 36 24 18 14 13 13 14 11 12 10 12 14 14
6 8 7 16 21 22 19 1 6 22 22 22 22 22 21 19
3 0 0 0 0 0 0 0 0 0 0 0 0 0 0 0
19 18 18 16 17 12 15 17 19 17 17 17 17 16 17 17
17 16 18 17 17 16 16 16 16 16 17 17 18 21 22 23
23 23 29 57 68 75 82 77 71 68 73 80 86 88 89 95
96 101 104 106 107 109 111 117 120 118 116 119 116 120 120 109
93 71 55 63 79 98 105 105 102 95 90 85 68 56 73 75
46 49 40 42 45 52 49 33 20 15 15 14 14 13 12 13
8 7 5 14 20 21 18 2 6 22 22 22 23 22 21 19
2 0 0 0 0 0 0 0 0 0 0 0 0 0 0 0
19 18 18 16 16 11 15 16 17 16 17 17 17 17 17 18
17 17 17 17 16 15 14 14 12 12 14 13 17 21 22 23
23 23 23 29 44 51 48 43 43 50 55 61 69 73 83 89
94 99 105 107 112 114 117 118 121 119 119 118 119 120 117 108
92 71 57 65 78 97 104 107 105 100 95 91 66 55 82 62
46 54 45 42 58 64 67 62 58 49 37 27 22 18 15 14
9 4 4 10 20 20 19 13 15 23 23 22 22 20 19 16
1 0 0 0 0 0 0 0 0 0 0 0 0 0 0 0
19 17 17 16 16 15 15 15 15 14 13 13 12 11 10 8
7 6 4 3 2 1 4 8 10 14 17 17 20 21 22 22
23 23 22 22 22 25 28 30 30 29 33 42 56 73 86 93
97 100 108 112 114 117 119 119 122 121 120 117 115 117 116 109
95 71 58 65 78 93 104 109 106 104 99 96 63 69 83 53
47 51 43 45 70 75 72 70 62 65 65 66 57 46 39 35
32 26 21 21 27 20 19 19 20 22 23 22 21 21 23 16
0 0 0 0 0 0 0 0 0 0 0 0 0 0 0 0
6 7 5 4 3 3 2 1 1 1 1 1 1 1 1 2
2 2 3 2 0 0 2 9 11 13 17 18 19 20 21 22
22 23 23 23 23 25 28 30 30 31 37 42 28 23 40 74
94 103 107 113 115 115 118 117 122 118 114 118 119 118 118 110
96 72 58 66 81 92 105 112 110 108 102 90 61 80 71 47
47 48 38 54 75 73 71 79 76 75 69 68 66 61 63 56
47 38 34 28 22 18 18 19 21 18 18 20 22 20 26 12
0 0 0 0 0 0 0 0 0 0 0 0 0 0 0 0
0 0 0 0 0 0 0 0 0 1 12 16 18 19 20 23
22 23 24 20 2 0 1 7 11 13 15 16 18 20 21 21
22 23 23 23 24 25 28 31 40 51 58 45 51 54 30 14
30 80 100 106 112 113 113 115 116 116 115 117 120 121 118 107
92 73 59 70 84 93 100 110 113 108 102 74 80 81 58 47
45 39 38 59 78 86 83 78 79 72 75 69 71 69 68 68
65 54 47 37 27 23 16 19 22 20 17 19 20 18 14 0
0 0 0 0 0 0 0 0 0 0 0 0 0 0 0 0
0 0 0 0 0 0 0 2 3 8 33 35 35 35 33 31
29 28 33 32 12 2 4 8 11 13 15 17 19 20 21 22
23 24 24 25 26 30 46 58 60 63 60 54 69 72 56 27
5 56 71 89 106 111 111 113 114 115 114 116 118 120 115 108
96 74 62 74 89 97 100 106 110 109 87 79 85 68 51 48
43 36 43 68 80 81 77 79 85 85 80 81 77 76 72 74
74 66 64 66 58 49 40 32 26 17 9 6 4 2 2 0
0 0 0 0 0 0 0 0 0 0 0 0 0 0 0 0
0 0 0 0 0 0 0 2 4 7 32 32 32 34 31 30
30 32 42 41 27 11 11 8 9 13 16 19 21 26 25 26
27 28 29 30 43 64 65 65 62 60 60 58 62 72 49 49
6 54 72 71 96 108 110 115 117 121 120 118 119 122 120 111
96 73 64 78 90 97 101 104 108 92 80 86 79 58 46 47
47 36 52 77 75 73 76 74 82 88 85 84 75 73 72 77
81 68 77 71 79 68 66 52 26 8 0 0 0 0 0 0
0 0 0 0 0 0 0 0 0 0 0 0 0 0 0 0
0 0 0 0 1 3 12 19 19 18 26 40 42 42 41 40
38 36 36 33 25 16 16 17 17 17 16 15 15 28 24 26
30 32 41 59 69 76 76 79 66 57 55 59 67 81 64 47
20 36 77 76 77 99 106 112 117 120 118 118 121 123 122 112
95 72 70 83 93 102 105 105 90 72 60 84 69 47 44 46
41 32 65 78 71 74 72 84 75 78 79 84 82 89 88 82
75 82 79 77 81 76 81 67 59 66 44 14 0 0 0 0
0 0 0 0 0 0 0 0 0 0 0 0 0 0 0 0
0 0 0 1 2 5 14 18 17 17 20 31 30 27 26 24
24 22 21 21 15 8 8 8 7 7 7 7 10 28 28 39
57 74 79 76 86 81 87 79 73 57 56 58 67 84 92 60
30 18 74 84 77 76 91 98 107 113 115 116 122 125 123 110
94 73 71 86 98 105 106 93 73 61 13 73 57 45 44 41
52 36 78 70 71 73 81 81 83 83 86 87 86 79 85 93
95 83 78 81 80 73 74 76 77 72 70 66 37 4 0 0
0 0 0 0 0 0 0 0 0 0 0 0 0 0 0 0
10 12 16 17 18 19 19 19 19 18 18 18 18 18 19 19
19 19 20 19 14 6 6 6 6 6 7 9 26 56 68 75
74 79 85 85 85 83 76 80 75 60 62 58 71 92 72 66
56 25 42 89 91 77 67 85 98 105 109 114 121 125 121 110
95 74 78 94 103 107 106 77 74 56 13 48 52 47 45 42
41 55 84 74 67 70 80 90 80 87 78 83 84 88 88 83
78 77 87 77 78 80 79 74 71 65 68 70 71 54 7 0
0 0 0 0 0 0 0 0 0 0 0 0 0 0 0 0
6 8 13 16 16 16 14 13 12 10 9 7 5 3 7 19
19 19 20 19 14 5 6 6 7 12 34 62 74 75 82 82
85 75 84 85 87 91 77 78 71 63 59 56 75 46 2 8
61 56 24 68 108 107 90 81 89 94 96 107 120 123 120 110
94 72 86 99 107 109 105 73 75 67 3 44 53 44 43 39
36 74 85 73 70 71 81 82 85 86 84 79 71 80 78 84
80 77 71 78 78 78 73 67 71 71 71 72 67 65 58 13
0 0 0 0 0 0 0 0 0 0 0 0 0 0 0 0
1 5 12 15 15 9 1 0 0 0 0 0 0 0 2 18
18 18 18 19 15 5 4 7 35 69 77 82 78 77 83 74
77 81 88 84 78 79 82 83 67 63 56 60 66 19 0 11
54 68 39 37 96 114 114 103 98 96 88 101 116 124 120 112
94 76 91 106 110 111 100 72 74 74 2 55 46 44 43 43
46 85 79 71 69 75 77 88 78 79 86 83 88 87 79 78
72 76 80 79 78 84 77 75 81 79 77 72 74 61 70 50
16 20 14 0 0 0 0 0 0 0 0 0 0 0 0 0
0 4 12 15 14 6 0 0 0 0 0 2 4 6 11 18
18 18 18 18 15 6 26 68 74 79 71 81 78 80 87 81
74 76 77 87 88 82 76 79 69 60 60 59 46 31 4 0
36 90 64 36 68 112 118 117 108 104 92 91 113 124 123 112
93 77 94 109 113 114 102 76 72 88 12 65 42 44 44 43
63 85 76 68 70 76 80 77 85 89 81 88 84 76 79 84
93 81 83 85 83 76 85 81 70 71 72 75 77 70 66 49
54 31 17 0 0 0 0 0 0 0 0 0 0 0 0 0
0 4 11 14 14 12 8 9 11 12 13 14 15 16 17 19
20 22 24 25 30 62 78 77 76 78 80 79 82 84 84 83
77 71 77 83 89 86 85 76 66 62 61 70 39 32 12 0
23 91 81 52 45 89 120 122 117 108 94 91 114 124 123 112
92 81 96 113 117 115 82 76 80 67 21 49 48 41 46 49
82 86 75 73 76 85 82 83 79 85 82 85 76 78 83 86
76 81 71 79 71 85 82 72 80 75 79 79 72 65 60 52
69 49 4 0 0 0 0 0 0 0 0 0 0 0 0 0
3 5 11 14 14 15 15 16 18 19 21 23 25 26 28 27
25 24 23 38 69 74 82 79 80 80 80 79 80 76 81 82
75 72 78 86 78 81 75 72 65 61 60 75 48 36 30 9
48 83 89 81 52 61 113 126 124 116 97 88 113 125 124 113
95 85 99 117 121 111 81 74 90 29 46 49 47 43 42 74
91 79 75 72 76 79 87 87 84 86 86 82 83 83 83 87
82 77 84 82 81 77 88 90 77 80 81 81 83 77 67 55
62 54 24 0 0 0 0 0 0 0 0 0 0 0 0 0
4 14 20 23 24 24 24 25 26 23 21 20 20 19 22 25
21 23 32 64 74 74 81 82 84 79 85 80 82 80 86 85
81 74 79 84 80 82 76 78 65 63 56 62 68 43 45 11
54 46 67 84 70 52 88 126 126 123 104 87 112 125 123 114
96 86 103 120 121 99 79 72 59 23 48 50 49 44 66 81
81 85 71 66 85 77 85 71 82 74 77 80 77 82 83 76
83 80 85 92 85 96 82 80 83 71 89 81 75 76 71 59
69 60 58 26 0 0 0 0 0 0 0 0 0 0 0 0
19 29 22 20 18 17 17 18 24 21 21 24 25 27 28 29
30 37 64 72 75 77 84 85 80 84 83 84 80 82 84 78
86 80 76 81 79 80 83 77 70 61 59 58 74 53 51 35
56 50 52 63 69 56 67 113 131 127 111 87 110 125 125 112
97 89 106 120 119 90 81 81 29 38 46 51 45 63 91 88
74 76 70 78 76 76 83 78 78 87 87 79 82 85 76 80
77 85 77 79 78 79 87 88 80 86 75 78 79 78 77 62
72 62 73 66 17 0 0 0 0 0 0 0 0 0 0 0
12 27 25 22 23 24 26 26 27 27 27 27 28 29 29 30
32 60 69 71 77 79 85 83 84 90 90 86 86 84 89 84
86 87 75 79 83 81 81 79 76 72 64 60 59 79 63 54
46 72 51 63 69 55 65 92 132 130 116 88 108 126 125 113
97 89 107 113 93 81 78 52 16 43 51 48 60 90 84 82
83 75 76 80 81 85 81 86 87 82 85 79 81 90 94 87
78 83 78 85 89 81 83 87 71 81 83 79 72 62 74 67
78 64 68 68 51 2 0 0 0 0 0 0 0 0 0 0
5 14 27 30 28 28 29 29 28 29 29 30 30 31 32 33
59 75 74 72 76 73 84 81 87 85 82 84 79 78 82 82
82 86 80 81 77 78 74 82 83 80 71 70 62 62 72 56
52 84 55 53 67 61 85 82 122 131 118 90 108 125 126 112
96 93 101 81 85 85 48 29 29 61 48 56 86 92 89 80
87 77 69 76 77 83 88 82 83 77 81 76 82 71 77 79
81 87 85 88 91 91 91 84 74 88 89 85 85 58 79 68
81 69 72 60 75 32 0 0 0 0 0 0 0 0 0 0
11 18 24 29 29 27 31 32 29 31 29 30 30 31 33 43
73 86 76 78 78 80 89 94 93 93 90 82 80 87 89 88
82 80 80 81 85 84 78 82 79 80 72 76 66 59 73 78
73 76 78 45 62 70 94 90 88 117 118 89 107 124 125 113
98 90 81 79 67 47 34 38 44 76 56 75 92 87 85 81
84 79 79 80 82 83 80 83 81 81 81 85 81 96 78 84
86 83 88 82 85 92 92 80 74 88 88 81 75 62 77 74
78 68 66 63 78 68 8 0 0 0 0 0 0 0 0 0
25 31 31 32 27 23 28 31 30 31 31 31 30 27 28 63
79 88 77 80 75 73 86 83 82 81 89 91 94 88 83 82
87 86 85 85 81 81 78 79 78 80 77 82 83 72 55 66
72 77 87 58 62 67 82 96 89 86 103 90 106 124 125 113
93 82 81 73 52 41 49 64 61 60 64 101 81 93 78 82
81 82 74 74 77 78 85 79 87 88 79 77 95 81 95 73
94 87 86 75 84 83 90 86 78 88 81 81 73 59 75 74
73 72 62 70 70 79 36 0 0 0 0 0 0 0 0 0
24 32 32 33 31 17 19 21 17 13 8 5 3 2 45 75
86 90 81 74 77 76 89 94 93 82 85 84 77 86 90 92
85 90 94 83 89 86 73 76 77 82 76 84 87 84 89 72
71 75 87 78 66 62 73 84 96 92 77 82 107 126 128 108
88 90 82 58 50 46 67 84 64 71 84 88 94 80 91 84
89 85 87 80 85 80 81 82 81 84 74 81 96 82 88 80
88 88 84 84 90 86 86 81 84 88 83 87 72 61 76 81
79 71 60 67 65 64 55 10 0 0 0 0 0 0 0 0
31 30 27 20 7 1 1 0 0 0 0 0 0 10 73 82
86 85 83 76 80 74 78 79 81 87 87 86 89 88 82 82
83 80 89 79 77 83 79 80 79 88 80 88 87 85 89 87
74 83 85 78 84 64 73 69 86 97 89 71 109 129 127 96
83 80 59 48 45 64 87 88 68 75 87 86 88 78 72 84
86 83 76 90 85 88 86 79 84 83 76 93 84 100 83 96
85 90 89 90 87 80 85 77 83 75 77 80 55 65 84 88
82 77 59 67 69 65 55 30 0 0 0 0 0 0 0 0
6 4 1 0 0 0 0 0 0 0 0 0 0 46 82 77
85 90 76 75 84 78 83 89 88 87 86 87 90 90 88 90
85 88 89 83 80 84 86 80 85 88 80 86 87 85 82 84
86 88 90 89 91 91 71 73 65 78 90 85 101 128 116 80
76 57 52 55 65 86 91 85 80 83 91 96 92 84 83 82
81 82 82 81 81 80 88 90 81 85 85 97 84 82 91 80
86 85 79 80 83 93 102 78 85 90 85 81 52 69 87 90
90 74 64 63 76 56 58 42 15 0 0 0 0 0 0 0
0 0 0 0 0 0 0 0 0 0 0 0 20 69 81 72
79 89 82 78 82 79 81 86 91 86 90 90 91 92 89 89
84 91 89 80 85 86 80 81 82 86 73 88 82 85 92 88
86 69 74 87 74 80 84 76 78 78 76 88 90 115 90 70
48 60 64 66 92 83 85 82 92 94 88 84 84 86 89 95
88 79 82 87 92 97 73 79 81 81 80 81 77 87 91 73
83 91 93 88 102 83 88 74 94 86 77 88 48 77 82 88
82 84 63 64 68 52 68 44 43 0 0 0 0 0 0 0
0 0 0 0 0 0 0 0 0 0 0 2 54 76 77 75
86 87 81 79 84 84 78 90 90 88 89 90 89 88 90 86
88 91 91 88 89 89 87 79 82 84 84 83 86 98 85 87
91 95 80 99 92 84 92 93 84 78 87 77 83 89 76 54
46 58 87 83 86 96 93 85 85 93 90 95 78 75 85 85
88 86 86 90 84 84 80 74 83 83 98 89 89 85 74 90
93 82 81 90 78 92 86 75 81 80 85 80 48 84 85 86
89 81 59 61 67 59 73 43 61 13 0 0 0 0 0 0
0 0 0 0 0 0 0 0 0 0 0 33 62 76 76 63
86 85 80 82 82 79 82 84 91 88 91 87 91 88 89 87
86 86 83 85 88 88 80 85 87 86 80 88 95 86 85 96
93 90 83 91 90 86 85 87 88 88 89 86 70 51 49 58
75 95 81 84 82 87 85 89 78 89 90 91 93 84 87 84
84 83 85 77 92 79 89 95 94 90 82 93 88 92 93 88
83 76 82 81 88 97 86 73 86 87 83 69 51 83 90 87
85 75 58 61 53 69 65 46 64 39 0 0 0 0 0 0
0 0 0 0 0 0 0 0 0 0 4 68 60 80 69 65
88 87 79 78 81 84 75 86 90 82 84 81 80 83 80 81
86 82 88 95 93 93 89 85 89 88 85 88 88 86 92 90
83 92 76 87 89 86 87 86 87 80 82 74 57 56 70 84
84 82 88 87 84 86 90 84 89 87 83 85 86 93 81 85
84 78 98 92 83 92 85 82 87 81 81 73 87 82 86 74
89 79 89 72 90 73 77 70 83 79 78 73 58 84 88 82
76 77 63 58 49 77 69 47 68 56 6 0 0 0 0 0
0 0 0 0 0 0 0 0 0 0 37 74 61 78 63 67
86 85 79 89 86 81 86 88 90 92 94 93 95 99 95 92
81 84 84 83 85 87 86 85 90 85 88 85 97 90 80 84
90 92 78 93 92 92 91 90 89 85 74 67 46 63 84 94
96 83 86 83 87 87 85 87 88 89 88 89 82 82 95 87
87 96 82 88 94 84 85 84 92 89 82 91 84 89 81 86
84 88 85 90 90 86 81 81 85 88 85 81 69 90 86 75
76 81 61 54 60 78 58 51 70 61 20 0 0 0 0 0
0 0 0 0 0 0 0 0 0 2 72 78 62 73 60 68
83 82 78 79 85 82 81 91 91 83 85 77 85 84 82 86
85 87 89 99 94 94 80 83 89 89 88 88 98 91 87 92
89 90 87 87 92 92 92 98 105 94 80 59 60 86 88 99
96 78 84 98 81 89 91 77 92 95 85 91 98 92 82 88
85 76 106 81 94 92 79 86 87 82 85 80 94 88 92 92
77 83 80 100 79 97 76 82 86 90 81 71 66 84 84 76
73 81 61 50 64 78 63 58 64 67 34 0 0 0 0 0
