P2
128 120
141
0 2 9 4 0 0 0 27 47 40 34 34 34 34 34 35
33 34 34 33 33 32 31 32 31 31 30 30 30 30 29 29
29 28 27 27 27 26 26 26 25 25 25 25 24 24 24 24
22 23 22 22 22 22 21 21 20 20 20 21 22 24 26 27
26 26 19 18 23 16 25 23 23 22 22 21 22 21 20 20
19 14 19 17 21 22 22 21 23 22 22 22 23 22 22 22
23 23 23 23 23 23 23 23 23 23 24 23 24 24 25 24
25 25 25 25 25 25 26 26 26 27 27 26 26 26 26 25
0 5 8 3 0 0 0 26 47 39 34 34 34 34 34 33
34 33 33 33 32 32 32 32 31 31 30 30 30 30 29 29
28 28 27 28 27 27 27 26 26 25 26 25 24 24 24 23
23 23 22 22 22 22 21 21 22 21 21 22 23 25 27 27
26 25 19 17 25 16 25 24 23 22 22 22 23 22 20 20
20 15 22 20 22 22 23 22 22 22 22 22 22 22 22 22
23 23 23 23 22 23 23 24 24 24 24 24 24 24 25 24
24 25 25 25 25 26 25 26 25 26 25 25 24 25 25 26
0 0 3 1 0 0 0 27 47 40 34 35 35 35 34 34
34 34 34 33 33 33 32 32 32 31 31 31 30 30 29 30
29 29 29 28 28 28 27 27 27 26 26 26 25 25 24 24
24 24 23 23 23 22 22 22 22 21 22 22 23 25 28 28
28 27 20 19 26 17 25 24 24 23 22 22 23 23 21 21
20 16 23 21 23 23 24 23 23 24 23 24 24 23 23 23
23 23 24 24 24 24 24 24 24 25 24 25 25 25 25 25
26 26 26 26 26 26 25 26 26 25 26 27 26 27 27 27
0 0 1 6 5 0 0 26 47 39 34 34 34 34 34 34
34 33 33 33 32 32 32 32 31 31 31 31 30 30 30 29
28 28 28 28 27 27 27 27 26 26 26 25 25 25 25 24
24 24 24 23 23 23 22 22 22 22 22 22 24 25 28 27
27 27 20 18 26 17 24 23 24 23 23 23 22 23 21 21
21 17 22 20 23 23 23 23 23 24 23 23 24 23 23 23
24 24 24 24 24 24 24 24 24 25 25 25 25 25 25 25
25 26 25 25 26 26 26 26 27 27 26 27 27 27 27 27
0 0 1 5 5 0 0 26 47 39 35 35 35 34 34 34
34 34 33 33 33 33 32 32 32 31 31 31 30 30 29 29
29 29 29 29 28 28 28 27 27 27 26 26 25 25 25 25
25 24 24 23 24 23 23 22 22 22 22 23 24 26 28 28
28 28 21 18 26 19 24 24 25 25 24 22 23 24 21 21
20 17 22 21 23 23 23 24 24 25 24 24 24 24 24 24
23 24 24 25 24 24 25 25 25 25 25 25 24 24 25 25
25 26 26 27 27 27 27 27 27 27 27 27 27 27 27 27
0 0 1 0 2 2 0 26 45 39 35 34 34 35 34 34
34 33 33 32 33 32 32 32 32 32 31 31 31 30 30 29
29 29 29 28 28 27 27 27 27 27 26 26 26 25 26 25
25 24 24 24 24 23 23 23 22 22 23 23 24 26 29 28
28 28 21 18 27 20 23 25 24 24 24 24 22 23 22 22
22 17 22 21 23 24 24 24 24 25 24 24 25 24 24 24
24 25 25 25 25 25 25 25 25 24 24 25 25 26 26 26
26 27 26 27 27 27 27 27 27 27 27 27 27 27 27 27
13 7 2 0 2 3 10 31 47 38 34 34 34 34 34 34
34 34 33 33 33 32 32 31 31 31 31 31 30 30 30 29
29 29 29 28 28 28 28 27 27 27 27 26 26 25 25 24
25 24 24 24 24 23 23 23 23 23 23 23 24 26 29 29
28 28 21 18 27 23 22 26 25 25 24 23 22 23 22 22
21 18 22 21 24 24 24 25 25 25 24 25 25 24 25 25
24 25 25 24 24 25 24 25 25 25 25 25 25 26 26 26
26 27 27 27 27 27 28 27 27 27 27 27 27 27 27 27
33 34 33 29 23 17 16 34 44 37 35 35 34 34 34 34
34 34 33 33 33 33 33 32 32 32 31 31 31 30 31 30
30 29 28 28 28 27 27 28 27 27 26 26 26 26 26 25
25 25 24 24 25 24 24 23 23 23 23 24 24 26 29 29
29 28 22 19 27 25 20 26 25 25 24 24 22 23 22 22
22 18 22 21 24 25 25 24 25 26 24 25 25 25 25 25
25 25 25 25 25 25 25 25 25 25 25 26 26 26 26 26
26 28 27 27 27 27 27 27 27 27 27 27 27 28 27 27
23 26 28 30 33 35 38 39 39 36 34 34 34 34 34 33
33 34 34 33 33 33 32 32 32 32 31 31 31 30 30 30
30 30 29 29 29 28 28 27 27 27 27 27 26 26 26 25
25 25 25 24 24 24 24 23 24 24 24 24 25 27 30 29
29 29 22 19 28 28 19 26 26 25 25 24 24 23 22 22
22 19 22 21 24 25 26 25 25 25 24 25 24 24 24 24
24 25 25 25 25 25 25 25 26 26 26 26 26 27 27 27
27 28 28 27 27 27 28 27 27 27 27 27 27 26 27 27
14 17 20 24 27 30 31 32 34 35 35 35 35 35 35 34
34 33 33 32 33 32 32 32 32 31 32 32 31 31 30 30
30 30 29 29 29 28 29 28 28 27 28 27 27 27 26 26
26 26 25 25 25 24 24 24 24 23 24 24 25 26 30 30
30 29 23 20 28 29 19 27 26 26 25 24 24 24 23 23
22 20 23 22 25 25 25 25 25 24 24 25 25 25 25 26
25 27 25 26 26 26 26 26 27 26 26 26 26 27 27 27
27 28 28 27 28 28 28 28 27 28 27 27 27 27 27 28
12 11 11 11 11 14 19 22 28 32 35 35 35 34 34 34
34 33 33 33 33 32 32 32 32 31 31 31 30 30 30 30
30 30 29 29 29 29 28 28 28 27 27 26 27 26 26 26
25 25 25 25 25 25 24 24 25 24 24 25 26 26 30 30
29 29 24 19 28 30 19 26 27 25 25 24 24 23 23 23
22 20 22 21 24 25 25 25 25 25 26 25 26 25 25 25
26 27 26 26 26 25 25 26 26 27 26 27 26 27 27 27
27 27 27 27 28 28 28 28 27 27 27 27 27 27 27 27
12 12 11 12 11 10 10 13 12 13 15 19 23 28 32 34
35 35 34 33 33 33 32 32 32 32 32 31 31 31 30 30
31 30 30 30 29 29 29 28 28 28 28 27 27 27 27 26
26 26 26 26 26 25 25 25 24 25 25 25 26 27 31 30
30 30 25 19 28 32 21 27 27 26 26 26 25 25 24 23
23 20 22 23 26 26 26 25 26 26 26 26 26 26 26 27
27 28 27 26 27 26 26 26 26 27 27 27 27 27 27 27
28 28 28 28 28 29 29 28 29 28 28 28 28 28 28 28
18 14 13 12 12 12 12 12 11 11 12 12 11 12 13 15
19 23 27 32 32 32 32 33 32 31 32 31 31 31 30 30
30 30 30 30 29 29 29 28 29 28 27 27 27 27 26 27
26 26 26 26 26 25 25 25 25 24 24 25 26 27 30 30
30 29 25 19 27 32 22 25 27 27 27 26 25 25 24 24
23 22 23 24 26 26 26 26 26 26 26 26 26 25 26 27
26 27 26 26 27 26 26 27 27 27 27 28 28 28 29 28
28 29 28 28 28 28 29 28 28 28 28 28 26 26 25 25
43 40 39 39 35 31 26 19 13 13 13 12 12 13 13 12
4 5 14 32 34 33 33 33 32 32 32 32 31 31 31 31
30 31 30 30 30 29 29 28 29 28 28 27 28 27 27 27
28 27 27 26 26 25 25 25 25 25 25 26 27 27 31 31
30 31 25 19 27 33 24 24 28 27 27 26 26 25 24 24
23 23 23 24 26 27 26 26 26 27 27 27 27 26 27 27
27 28 27 27 27 27 26 28 27 28 27 27 28 28 28 28
28 29 29 28 28 28 29 29 27 27 28 27 27 28 29 28
50 45 41 49 49 47 45 31 21 24 21 16 11 11 12 13
10 9 14 31 34 33 33 33 33 32 31 32 32 32 32 31
31 30 30 30 30 29 29 28 29 28 28 27 27 28 27 27
27 27 27 26 26 26 26 26 26 25 26 26 27 27 31 30
29 29 24 18 27 32 25 23 27 27 27 26 25 26 24 24
23 23 22 25 27 26 27 26 27 27 27 27 28 27 27 27
27 27 28 27 27 27 27 27 28 28 28 27 28 28 28 28
28 27 28 27 27 27 28 28 28 28 29 28 27 27 28 28
48 42 44 45 49 49 48 35 29 35 40 38 33 31 25 18
10 10 12 29 33 33 33 33 32 31 33 34 32 32 32 31
31 30 31 30 30 30 30 29 29 29 29 29 37 37 33 30
28 27 27 26 26 26 26 26 25 25 25 25 22 20 17 13
16 10 5 4 10 7 21 17 25 26 27 26 26 26 25 25
25 23 22 25 26 27 27 27 28 28 27 27 28 27 27 28
27 28 28 28 28 27 28 28 29 28 27 28 27 28 28 28
27 28 28 28 27 28 28 28 28 28 28 28 28 28 27 28
32 27 38 40 46 49 49 37 35 38 41 39 36 44 44 43
21 11 15 31 34 33 33 33 32 35 43 41 40 39 35 33
32 30 31 31 30 30 30 29 29 30 29 31 42 41 38 36
35 33 29 27 27 27 27 26 25 22 15 10 2 1 1 0
0 0 0 0 0 0 0 0 1 3 14 21 21 25 25 26
26 24 23 25 27 28 28 27 27 28 28 28 28 28 28 28
29 29 29 28 28 27 28 28 28 29 28 29 29 28 29 28
28 28 29 29 28 28 28 28 28 28 29 29 28 28 28 28
15 0 1 4 9 15 32 39 38 40 43 43 45 47 47 48
26 12 16 32 35 35 34 33 33 35 45 43 42 39 38 37
38 36 32 32 30 31 30 29 30 30 30 31 41 39 37 36
37 37 32 27 28 27 27 25 17 4 1 0 0 0 2 0
0 0 0 0 0 0 0 4 0 0 0 0 1 7 16 25
26 25 24 27 28 29 29 29 29 28 29 29 29 29 29 29
29 29 28 27 27 28 28 28 28 29 29 27 28 29 29 29
29 29 29 28 28 29 28 29 28 28 29 30 28 28 28 28
0 0 0 0 5 0 20 41 39 40 42 43 46 47 47 48
30 12 17 36 38 36 36 34 34 36 45 44 43 39 40 42
43 41 37 38 37 34 31 30 29 29 29 30 34 32 34 36
37 37 34 28 27 25 16 6 4 2 0 0 0 0 0 0
0 0 0 0 1 0 0 0 0 0 0 0 0 0 0 10
23 25 24 27 28 29 29 28 29 29 29 29 28 29 28 28
28 29 29 29 29 29 29 28 28 29 30 29 29 28 29 29
29 28 29 28 28 28 28 28 28 28 29 29 29 28 29 29
0 0 0 6 16 5 22 40 35 39 39 43 45 45 46 45
31 13 17 37 40 35 38 37 38 38 29 22 34 39 42 44
44 42 27 25 34 37 38 36 35 35 32 30 26 12 13 14
19 25 32 27 21 8 2 3 3 0 0 0 1 3 2 0
0 0 1 1 0 0 0 0 0 0 0 0 0 0 0 0
3 14 22 27 27 28 29 29 29 29 29 28 28 29 29 29
29 28 29 29 28 29 29 28 28 29 30 28 29 29 28 29
29 29 28 28 28 28 28 28 28 28 28 30 29 28 28 28
0 0 0 7 16 9 24 37 4 7 16 25 36 42 42 43
32 13 17 35 40 31 29 35 41 44 19 0 0 14 24 26
31 38 14 0 1 6 15 20 27 36 36 34 26 9 6 10
6 0 17 18 6 4 5 2 0 0 0 0 1 1 1 0
0 0 1 0 0 0 0 0 0 0 0 0 0 0 0 0
0 0 3 17 27 28 29 28 29 28 30 29 29 29 28 28
28 29 29 29 29 29 29 29 29 29 30 28 29 29 29 29
28 28 28 28 29 29 28 28 28 28 28 29 29 28 27 27
0 0 0 2 5 2 22 36 1 0 0 2 1 6 6 23
34 13 16 29 38 39 39 36 43 46 22 0 0 4 10 11
10 30 14 0 0 0 0 0 0 3 10 29 26 4 3 1
5 0 9 6 7 4 4 0 0 0 3 12 11 7 1 0
0 0 0 0 0 0 0 1 0 0 0 0 0 0 0 0
0 0 0 0 11 27 29 29 30 29 30 29 29 29 29 29
29 28 29 29 28 28 28 28 28 28 29 29 29 28 29 28
29 29 29 29 29 28 28 28 28 28 29 28 28 28 27 27
0 0 0 0 0 0 21 35 0 0 0 0 0 0 0 12
34 12 12 0 3 10 20 30 39 43 24 0 0 2 3 8
7 29 17 0 0 0 0 0 0 0 0 24 25 2 0 0
4 1 4 2 4 0 0 0 0 0 7 11 8 3 0 0
0 0 0 0 0 0 0 0 0 0 0 0 0 0 0 0
0 0 0 0 1 9 27 29 29 28 30 29 29 28 28 28
28 28 28 29 29 28 28 29 28 28 29 29 28 28 28 27
27 28 28 27 27 27 28 27 27 27 28 28 28 27 26 27
0 2 0 11 0 0 21 35 0 0 0 3 0 0 0 12
35 12 11 0 0 0 0 0 1 8 20 0 0 0 0 0
3 24 17 0 0 0 0 0 0 0 0 23 19 0 0 0
0 4 3 0 0 1 0 0 0 0 9 4 1 1 0 0
0 0 0 0 0 0 0 0 2 1 1 0 0 0 0 0
0 0 0 0 0 0 19 29 29 28 29 28 28 28 28 28
28 28 28 28 28 29 29 29 29 28 29 28 29 29 27 28
28 28 29 29 28 27 28 28 28 27 28 28 27 27 27 27
0 16 10 21 1 0 21 35 0 0 0 15 3 0 0 13
36 12 11 0 0 0 0 0 0 0 15 0 0 0 0 0
1 25 16 0 0 0 1 4 0 0 0 21 18 0 0 1
0 7 0 0 4 3 4 0 0 4 4 1 0 0 0 0
0 0 2 1 3 2 3 2 1 1 2 0 0 0 0 0
0 0 0 0 0 0 13 30 29 29 29 28 28 29 28 28
29 28 29 29 29 29 29 29 29 29 29 27 28 28 28 28
28 29 29 28 28 28 28 29 28 28 28 28 26 28 28 29
1 0 0 3 0 0 22 35 0 1 0 7 14 0 0 14
34 12 11 0 0 0 0 0 0 0 13 0 0 0 0 0
1 29 19 0 0 0 3 11 4 1 0 20 17 0 3 1
1 4 0 3 7 11 3 0 3 4 5 1 0 0 0 0
0 1 5 4 8 8 5 7 6 11 13 4 0 0 0 0
0 0 0 0 0 2 11 26 30 29 30 28 29 29 29 29
28 29 28 29 29 29 29 29 29 29 30 29 29 29 29 29
29 30 29 29 29 28 27 28 28 27 28 29 29 29 29 28
0 4 7 2 0 0 21 33 0 0 0 1 2 0 0 14
34 13 13 0 0 0 2 2 0 0 11 0 0 0 0 0
0 26 23 0 0 0 5 12 11 9 2 18 21 1 2 0
2 2 0 9 16 11 10 2 3 6 2 2 0 0 0 0
2 7 8 12 16 14 14 14 14 18 17 5 3 3 0 1
0 0 0 2 2 7 14 21 29 30 30 29 29 29 29 29
30 29 29 30 29 30 29 30 30 30 31 29 29 29 29 29
30 29 29 29 30 29 29 29 29 29 29 29 29 28 28 27
0 0 4 1 0 0 22 29 0 0 1 0 0 0 0 15
32 12 12 0 1 2 4 6 0 0 11 0 1 0 0 0
2 27 24 0 0 0 6 12 11 10 3 17 16 1 0 0
0 1 0 8 23 8 10 11 14 3 4 1 3 0 2 0
3 12 14 16 20 20 27 24 21 24 23 12 11 5 8 14
10 5 4 4 9 11 12 20 29 30 30 29 30 29 29 29
30 29 30 30 29 30 30 30 30 29 29 29 29 30 29 29
29 29 30 29 29 28 28 28 28 29 28 29 28 27 28 29
27 22 16 11 5 2 24 29 0 0 4 0 0 0 0 16
32 13 13 0 9 2 2 0 0 0 11 0 0 0 0 0
5 26 27 0 0 0 1 7 10 10 3 7 2 0 1 0
3 2 0 11 29 11 24 18 9 10 5 2 2 3 3 4
10 25 25 23 28 25 29 27 33 36 23 20 16 9 24 31
27 11 3 10 15 12 14 25 30 30 31 30 30 30 29 29
29 30 30 30 30 30 30 30 30 30 30 30 29 30 30 30
30 30 31 30 31 30 30 29 29 29 29 29 29 28 28 29
37 38 46 47 45 43 37 41 18 9 11 12 8 5 3 20
32 13 13 2 4 0 0 1 0 0 15 0 0 0 0 0
8 30 36 12 6 3 1 0 3 9 3 1 0 0 6 7
7 3 2 17 18 26 12 6 9 7 8 5 6 6 0 9
24 40 28 38 35 35 44 40 48 38 30 24 21 32 46 49
27 11 7 15 17 7 24 26 30 31 30 30 30 30 30 30
30 31 30 30 31 30 30 30 30 30 29 30 29 29 30 31
30 30 30 30 30 29 30 29 29 29 29 28 29 28 28 28
9 17 21 23 27 36 39 57 52 28 32 34 40 38 35 35
27 13 13 0 0 0 0 0 0 0 30 36 26 20 17 9
2 24 47 31 33 33 29 22 15 10 5 0 1 6 7 9
13 2 5 14 16 16 2 14 11 14 15 16 3 1 2 15
38 44 51 69 90 81 56 51 57 55 38 41 59 72 71 54
37 19 24 19 10 18 30 29 30 30 30 30 31 31 31 30
30 30 31 30 30 30 30 30 31 30 30 30 30 31 30 30
30 30 30 30 29 29 28 28 27 28 27 27 27 26 27 28
6 15 11 8 0 13 54 60 45 25 36 43 47 45 45 44
28 12 13 1 0 0 0 0 0 0 34 50 39 41 42 45
42 46 42 11 12 15 16 18 21 16 3 3 3 8 11 12
13 3 9 21 14 1 4 20 17 23 18 18 8 3 9 24
49 84 103 113 120 120 111 98 71 64 81 100 101 97 84 63
48 43 31 23 27 30 29 30 30 30 31 30 30 31 31 30
30 30 32 31 30 30 30 30 29 30 30 30 30 30 30 30
29 29 29 29 27 29 28 27 27 28 27 25 23 19 17 14
1 2 1 1 0 15 55 55 37 28 37 43 45 45 48 46
28 13 14 5 1 0 0 0 0 0 34 47 38 45 47 51
46 38 33 14 12 13 12 12 14 8 7 4 2 13 16 20
7 8 20 28 4 1 9 24 27 22 20 16 12 8 18 42
73 95 108 118 124 126 122 113 113 113 112 112 109 103 101 94
76 60 51 42 46 38 30 31 30 30 31 30 30 29 30 30
29 29 31 29 29 29 29 30 30 30 30 29 30 30 31 29
30 30 30 29 26 25 30 21 15 12 11 10 9 9 10 11
2 0 0 0 0 14 52 48 18 8 17 25 28 33 37 44
30 14 16 33 38 31 22 13 7 3 34 34 38 44 46 50
50 41 34 18 13 13 12 12 10 4 6 6 5 15 19 14
10 13 19 32 7 15 17 22 26 16 17 18 13 14 27 56
81 100 102 113 126 126 127 127 121 117 115 115 112 105 106 102
89 72 62 54 55 48 34 31 31 31 30 29 30 30 30 29
28 28 31 30 30 29 30 30 31 31 32 31 31 28 26 23
20 17 15 13 11 11 29 20 6 11 13 14 14 15 15 16
0 0 0 0 0 12 53 49 15 0 0 0 0 0 0 20
31 14 16 35 47 47 45 44 43 43 45 28 33 41 44 48
48 42 37 21 14 12 10 11 5 6 5 8 3 8 4 14
16 21 14 22 17 16 16 16 19 18 22 21 20 25 37 63
85 93 101 113 122 128 128 125 126 120 116 115 113 109 107 104
98 84 74 64 61 57 43 30 30 30 29 29 30 29 29 29
28 28 30 31 31 30 30 29 27 23 21 18 15 14 13 13
13 14 15 15 15 14 20 15 12 16 19 20 20 21 22 22
6 0 0 0 0 9 50 50 14 0 0 0 0 0 0 16
32 14 16 35 48 48 46 46 46 47 46 9 3 8 14 21
27 27 37 22 12 11 4 4 3 10 9 6 5 0 3 23
22 20 16 15 11 9 12 9 21 22 22 31 28 30 39 59
72 92 97 110 120 126 130 132 132 129 122 118 114 111 108 106
103 92 80 72 65 64 56 36 29 28 26 26 26 22 24 30
30 29 27 24 22 19 17 15 15 15 15 15 16 17 17 19
19 20 20 21 21 21 26 23 15 22 23 24 24 24 25 25
15 0 0 0 0 6 48 48 10 0 0 0 0 10 9 18
32 16 16 30 42 43 43 45 47 48 44 5 0 0 0 0
8 14 37 21 11 9 1 2 6 17 14 4 2 0 4 24
7 17 14 15 12 1 9 15 24 27 40 36 31 29 47 57
73 86 95 106 112 123 127 132 133 133 126 120 115 112 111 107
105 101 88 71 65 64 65 51 29 27 26 26 25 16 15 19
17 16 16 16 16 17 18 19 20 21 21 21 22 22 23 24
25 25 26 26 25 23 20 19 18 25 25 26 26 27 27 27
8 0 0 0 0 4 43 44 8 0 0 0 3 26 26 23
29 27 23 27 31 32 33 33 35 41 41 4 0 0 0 0
0 9 40 20 11 10 5 5 7 11 17 9 3 1 4 7
6 13 15 16 4 5 16 24 34 32 41 33 32 32 44 54
68 89 99 102 112 124 130 131 132 131 129 124 116 114 114 111
108 104 98 82 66 61 69 65 42 19 17 16 16 15 15 18
19 20 21 21 23 24 24 25 26 26 26 25 26 27 27 28
28 27 28 28 27 22 3 2 15 27 28 30 29 27 27 28
10 1 0 0 0 6 43 43 6 0 0 0 1 25 25 22
25 20 18 20 18 21 29 29 29 41 41 3 0 0 0 1
0 2 41 16 8 2 0 5 6 12 13 11 7 8 8 11
1 14 7 7 2 13 19 23 34 29 30 34 32 36 49 61
77 93 95 96 111 120 124 129 129 129 129 126 122 117 114 113
111 108 104 93 75 61 65 72 60 25 19 20 21 22 22 23
25 25 26 27 28 28 28 28 29 29 29 29 29 29 29 29
30 29 29 27 27 22 2 0 11 27 29 29 30 29 29 29
0 0 0 0 0 7 44 43 5 0 0 0 0 5 7 13
23 20 20 22 25 25 29 30 32 41 40 3 0 0 0 0
0 2 41 6 0 0 0 6 6 12 8 7 4 13 16 19
3 9 5 3 13 15 26 30 40 31 26 36 35 43 47 60
79 93 92 103 107 121 122 131 131 128 128 125 123 118 117 114
110 108 102 97 85 67 61 70 68 43 24 25 26 27 27 27
29 29 29 29 29 30 30 30 30 30 30 31 31 30 30 31
29 13 7 3 10 19 3 3 9 27 29 30 30 29 29 29
0 0 0 0 0 9 46 44 5 0 0 0 0 0 0 6
20 15 18 13 7 13 19 25 33 37 37 3 0 0 0 0
0 4 42 6 0 0 0 6 7 9 7 9 5 9 24 20
5 10 16 5 22 26 32 40 26 21 38 39 46 53 50 65
80 91 93 103 115 121 121 131 132 129 126 125 122 116 114 113
109 107 101 97 88 71 60 65 65 53 30 28 28 29 30 30
30 30 30 31 31 31 32 32 31 31 31 31 31 31 31 31
27 5 7 12 18 20 0 0 8 27 29 29 30 28 29 30
0 0 0 0 0 11 47 44 4 0 0 4 0 0 0 8
27 24 24 11 0 0 0 0 0 2 19 3 0 0 0 0
0 7 41 4 0 0 0 7 11 11 10 11 5 5 23 9
7 20 19 13 30 32 27 27 17 28 46 44 52 50 57 69
85 95 99 109 115 114 129 131 131 128 119 103 84 67 45 28
38 57 78 89 83 71 63 63 61 54 36 30 29 31 32 32
32 31 31 32 32 33 32 32 32 32 32 33 31 32 32 32
32 30 30 29 29 23 2 0 8 27 29 30 30 29 30 29
12 8 3 1 0 13 48 44 4 0 0 3 4 0 0 9
34 27 24 13 0 0 0 0 0 0 14 3 0 0 4 1
0 4 40 3 0 0 0 7 12 7 7 9 7 6 19 12
14 25 28 22 23 20 16 16 23 39 43 42 51 43 55 62
80 102 104 105 101 87 75 58 42 32 26 25 22 35 30 1
0 0 0 13 40 59 66 62 56 47 36 31 31 32 33 33
33 33 33 33 33 33 33 32 33 33 34 33 33 33 33 33
32 31 31 29 29 25 6 0 12 27 30 30 31 30 30 30
42 30 38 38 32 32 41 40 10 0 0 2 8 1 0 7
37 28 24 13 0 0 0 0 0 0 13 4 0 2 15 7
0 4 39 2 0 0 0 7 12 6 8 11 9 10 28 17
22 25 30 23 22 13 13 20 34 35 32 41 43 32 36 39
45 38 32 29 31 33 28 26 24 25 22 15 12 15 9 0
0 0 0 0 0 15 60 64 49 35 19 28 33 33 33 33
33 32 32 33 33 32 33 33 33 33 33 33 33 33 33 33
32 31 32 30 29 25 11 0 18 28 30 31 31 30 30 30
20 14 20 24 23 23 35 34 29 13 8 6 15 10 3 5
38 24 22 13 0 0 8 8 0 0 11 4 0 10 18 11
2 4 37 1 1 0 0 2 9 6 11 9 12 10 25 29
21 17 28 21 13 14 18 23 30 26 12 25 26 21 30 37
34 32 29 28 28 27 26 24 26 29 33 36 33 19 12 6
0 0 0 0 0 0 23 58 38 15 1 13 28 34 33 33
32 33 33 33 32 33 33 33 32 33 33 32 32 32 32 32
32 31 31 30 27 24 19 15 23 29 30 30 31 30 30 30
0 0 0 7 12 2 35 36 35 40 36 32 40 38 35 34
42 24 21 13 0 4 18 14 6 0 12 16 8 17 17 16
8 5 37 1 2 0 0 1 7 6 11 21 14 13 15 35
15 13 27 15 7 17 16 16 7 20 6 9 15 21 37 43
58 87 101 102 101 104 105 109 115 117 119 113 99 52 35 11
0 0 0 0 0 0 3 42 19 0 0 0 1 19 33 32
32 32 32 33 32 32 33 33 33 33 33 33 32 32 33 32
32 31 31 30 28 24 23 23 27 30 31 31 31 30 30 29
0 0 0 7 16 11 37 37 27 5 7 14 21 33 40 46
44 30 19 14 0 3 12 10 4 0 12 41 39 42 42 41
41 40 42 2 0 0 0 0 9 8 15 27 17 16 11 24
15 13 19 13 6 8 17 17 15 20 24 44 49 57 85 86
99 129 126 126 125 124 122 124 126 129 124 111 88 50 39 7
0 0 0 0 0 0 0 17 1 0 0 0 0 4 32 33
32 32 33 33 33 33 33 32 33 32 32 33 32 31 32 32
31 31 31 30 29 26 26 27 31 30 30 30 31 30 30 30
0 6 10 3 6 13 39 38 27 0 0 0 6 2 23 45
42 26 19 15 1 0 2 0 0 0 11 42 40 45 44 43
48 52 47 18 12 16 5 3 12 10 11 15 8 16 9 15
11 11 18 11 3 2 14 26 46 36 38 53 53 69 86 90
116 129 127 128 128 127 128 128 130 129 119 110 91 60 44 4
0 0 0 0 0 0 0 0 0 0 0 0 0 2 32 33
32 32 32 32 33 32 33 32 32 32 32 32 32 32 32 32
32 31 30 30 29 28 27 29 31 31 31 30 31 31 30 30
7 30 36 19 8 6 39 38 25 0 0 9 31 11 31 44
39 24 21 23 15 0 2 0 0 0 9 41 41 43 43 43
51 53 51 36 34 33 31 28 19 10 10 6 4 6 10 21
9 10 11 10 3 0 20 37 51 43 42 53 58 76 75 91
117 124 128 131 131 131 130 130 131 127 117 110 93 37 32 3
0 0 0 0 0 0 5 1 0 0 0 0 3 3 33 33
32 32 33 33 32 33 33 32 32 32 31 32 31 32 32 32
30 30 30 30 29 29 29 29 30 29 29 29 29 29 30 29
18 30 28 0 0 5 42 41 25 0 0 2 26 27 36 42
33 21 21 22 8 0 1 0 0 0 9 37 35 38 38 38
40 37 38 35 36 37 36 33 20 11 9 2 7 16 11 22
15 10 11 15 1 7 38 52 56 48 45 59 72 70 72 97
120 121 131 134 133 132 131 130 130 123 114 100 50 20 26 2
0 0 0 0 0 0 6 24 15 0 0 0 2 5 33 33
33 32 33 32 33 33 32 32 32 32 32 33 33 32 32 31
31 30 31 30 29 28 30 30 30 30 30 30 31 31 30 30
1 36 37 2 0 5 44 43 26 0 0 0 4 11 36 45
31 22 25 22 3 0 0 0 0 0 9 43 35 35 36 36
36 33 33 37 37 39 40 36 21 14 11 7 13 24 14 24
20 10 14 20 14 30 48 56 60 63 58 58 66 60 79 101
116 129 135 134 134 133 133 132 124 114 100 75 62 55 22 0
0 0 0 0 0 3 8 80 76 5 0 0 1 6 33 33
33 32 33 32 32 32 32 32 32 32 32 32 31 31 31 32
31 31 31 30 30 31 32 32 31 30 31 31 31 30 30 29
0 22 18 1 3 6 45 43 28 0 0 0 0 2 33 45
30 22 21 23 24 20 15 13 10 7 13 45 36 35 35 35
36 36 38 40 39 41 44 48 30 12 12 10 18 18 11 24
16 19 73 104 100 68 52 56 69 77 65 54 60 58 77 88
115 130 133 133 133 133 133 129 121 109 97 101 87 61 17 0
0 0 0 0 0 13 16 109 102 39 0 0 0 10 33 32
32 32 32 32 32 32 32 31 32 31 32 32 31 32 33 31
31 31 31 31 31 31 31 31 30 30 30 30 30 29 14 14
0 0 0 1 3 5 44 44 27 0 0 0 0 0 28 45
30 23 23 28 44 46 45 43 47 48 47 48 38 37 37 38
39 41 44 46 40 43 46 50 32 7 8 9 16 17 10 19
15 76 121 122 119 118 92 76 80 78 64 53 57 64 81 106
116 130 132 133 133 133 134 129 125 116 107 108 92 62 20 0
0 0 0 0 3 19 34 123 115 80 7 0 0 11 33 33
33 33 32 33 31 31 31 32 32 31 32 32 32 31 31 31
31 31 30 30 31 31 31 31 30 30 30 30 30 16 24 27
0 0 0 0 0 4 44 43 23 0 0 0 0 1 31 47
32 22 24 28 51 53 53 52 52 53 52 51 39 34 33 33
35 40 46 48 41 42 41 38 37 7 19 3 14 19 13 21
37 119 108 85 90 88 122 119 109 100 71 53 57 80 96 115
123 130 133 132 131 132 131 129 129 121 116 112 97 64 26 0
0 0 0 2 21 12 64 127 123 102 38 0 1 13 34 33
33 33 33 33 32 32 31 31 31 31 32 31 31 31 31 30
30 31 30 30 31 30 30 30 30 30 30 29 28 16 30 18
0 0 0 0 0 3 43 43 22 0 0 0 0 0 28 46
32 19 25 25 40 43 45 46 47 49 50 50 17 11 8 5
8 11 22 46 41 35 14 16 19 10 22 4 7 12 14 21
69 115 100 136 131 104 108 129 123 113 92 75 86 103 112 120
123 126 129 130 131 131 132 133 131 127 123 115 108 68 37 0
0 0 1 22 32 11 97 124 120 110 85 10 1 19 34 33
32 33 33 32 30 31 31 30 31 31 30 31 31 31 31 30
30 29 27 28 28 30 31 31 30 31 31 30 27 18 29 14
0 0 0 0 0 2 42 44 23 0 0 0 0 0 25 42
28 18 25 22 27 29 28 28 28 28 29 33 11 0 0 0
0 0 4 43 39 17 0 0 1 11 18 4 6 8 19 13
90 102 124 137 132 124 117 121 126 127 124 116 115 119 117 119
122 124 123 126 129 130 131 132 132 130 126 120 114 88 52 10
0 0 18 37 19 38 115 121 116 111 101 61 5 23 33 33
33 33 32 32 31 30 29 29 29 29 31 31 31 26 13 12
10 8 6 6 18 31 31 30 30 30 30 30 27 17 25 12
0 0 0 0 0 2 42 44 25 0 0 0 0 0 24 45
31 18 24 23 35 36 35 35 34 33 32 34 15 5 0 0
0 2 14 43 35 4 0 0 0 10 14 11 12 5 20 9
95 103 123 133 124 124 113 80 128 135 133 130 123 118 116 117
121 123 125 125 128 128 128 133 133 132 128 123 119 107 67 38
6 0 23 21 19 87 123 124 121 118 109 93 39 29 33 29
24 21 17 14 11 8 6 6 9 23 31 31 32 27 5 3
3 3 2 3 16 32 31 32 31 30 30 29 26 3 0 0
14 14 17 21 26 30 45 42 24 0 0 0 0 0 26 48
34 17 24 24 37 38 39 38 38 38 39 38 16 4 0 0
0 1 15 41 28 0 0 0 0 6 13 13 15 10 23 13
98 106 118 128 132 122 65 87 132 135 134 131 126 122 119 119
119 124 126 128 128 130 130 131 133 132 127 121 120 114 97 69
49 26 14 30 71 113 129 129 126 119 111 101 83 42 32 13
3 3 7 7 6 0 1 0 0 17 31 31 30 27 6 3
4 5 3 3 16 32 32 31 31 30 28 4 1 0 0 0
39 40 42 43 44 44 37 28 19 10 10 9 10 10 31 45
33 21 27 28 39 40 40 40 40 39 41 41 16 3 0 0
1 5 3 38 23 0 0 0 0 5 8 7 13 17 22 13
99 109 116 134 116 94 101 106 127 136 135 132 126 123 120 119
116 118 125 125 128 126 130 131 131 131 126 123 120 114 108 102
95 87 78 75 84 113 119 119 119 115 113 106 97 71 33 13
1 3 7 4 6 1 2 0 0 14 30 30 31 25 4 4
4 3 3 3 14 32 32 31 32 31 28 1 0 0 0 0
39 39 39 38 39 38 38 38 37 37 37 36 36 35 36 37
36 35 35 35 37 36 37 36 37 36 37 43 20 0 0 0
1 8 1 35 22 0 0 0 0 3 6 12 14 17 14 14
92 112 117 130 97 109 127 103 109 137 135 133 129 125 121 118
118 118 123 124 126 123 128 130 131 129 126 123 121 116 113 108
104 100 93 82 90 112 111 108 108 112 115 114 105 84 38 14
1 3 8 5 7 1 1 1 0 14 30 31 31 26 4 3
3 4 3 2 11 32 33 32 32 31 31 6 7 21 19 23
37 36 37 37 37 37 38 37 38 37 37 36 36 35 35 35
34 34 34 34 34 34 34 34 34 34 34 41 29 8 0 0
3 6 1 32 21 0 0 0 0 0 7 8 10 17 12 6
69 116 112 123 94 125 132 106 103 133 136 135 130 122 120 115
113 116 123 126 128 126 128 132 130 128 127 126 123 119 115 111
106 103 91 72 98 116 123 121 118 122 124 122 112 86 38 14
2 3 8 6 7 1 1 0 0 14 31 31 31 29 7 5
5 6 6 6 9 28 29 30 29 29 29 8 22 29 28 29
38 37 37 37 37 37 37 37 37 36 36 35 35 34 34 34
34 33 33 33 33 33 33 34 33 34 33 39 28 3 0 0
1 6 3 32 21 0 0 0 0 0 3 9 5 8 16 5
35 117 110 122 97 130 135 117 108 114 131 134 129 122 117 112
110 114 121 126 129 127 127 129 130 128 128 128 126 119 117 115
108 102 87 67 100 120 127 126 123 118 112 109 102 70 33 16
2 2 7 7 6 1 2 1 0 14 31 31 31 29 16 13
13 12 12 12 15 28 32 33 32 32 31 8 28 30 29 29
37 31 29 28 28 28 26 26 25 25 24 23 23 22 21 21
20 19 20 21 21 21 22 23 26 30 33 38 21 0 0 0
0 0 0 31 24 0 0 0 0 0 2 10 6 10 12 5
11 101 112 122 106 116 131 125 127 115 119 125 125 120 115 114
114 115 116 124 127 126 125 128 131 130 128 127 127 121 119 116
109 102 79 66 94 108 105 86 69 62 74 92 74 37 32 17
2 2 5 4 3 1 1 1 1 13 31 32 32 30 10 6
6 6 6 5 8 27 31 31 32 31 20 13 31 30 30 28
35 17 1 0 0 0 0 0 0 0 0 0 0 0 0 0
0 0 0 0 0 0 0 0 16 30 31 34 19 0 0 0
0 2 0 28 29 0 0 0 0 0 2 12 4 10 6 6
6 57 120 119 125 121 125 125 122 123 129 118 123 120 113 114
113 115 115 122 124 125 124 126 134 132 130 128 126 122 118 115
109 98 71 80 87 81 83 102 86 70 64 52 35 34 33 18
3 3 2 1 2 2 2 2 0 12 30 31 32 29 10 5
5 5 5 5 7 26 9 8 8 8 11 30 30 30 29 29
36 21 2 0 0 0 0 0 0 0 0 0 0 0 0 0
0 0 0 0 0 0 0 0 17 33 30 32 21 4 3 2
3 14 7 26 37 17 15 16 20 17 20 23 8 10 9 6
6 14 98 120 122 128 128 125 133 123 117 113 117 118 111 113
112 110 115 118 119 122 124 127 130 128 127 127 126 120 118 112
107 93 70 98 103 96 105 105 83 42 33 35 35 34 32 18
3 2 1 0 2 2 2 2 0 11 31 31 33 29 11 4
5 6 5 4 6 13 23 31 28 28 30 30 30 30 29 28
35 25 4 0 0 0 0 0 0 0 0 0 0 0 0 0
0 0 0 0 0 0 0 0 14 32 29 29 37 39 34 31
35 38 36 37 40 51 48 45 47 48 50 46 18 7 11 1
5 6 39 111 123 127 131 133 131 120 127 112 113 111 107 107
107 111 114 116 115 118 120 125 128 129 130 129 125 120 118 112
104 85 82 104 99 97 97 98 76 45 33 34 34 33 30 19
3 3 3 3 8 2 1 3 0 9 29 31 32 29 11 4
4 4 4 4 6 7 30 32 30 31 31 30 29 29 25 5
36 26 6 0 0 0 0 0 0 0 0 0 0 0 0 0
0 0 0 0 0 0 0 0 10 32 29 29 39 45 38 39
41 38 32 30 32 48 50 48 46 48 50 49 31 8 4 3
0 3 22 70 101 122 126 131 131 125 123 105 111 109 108 104
102 111 114 114 117 118 119 122 127 129 127 126 124 122 118 110
100 78 100 98 95 97 99 99 76 51 35 34 35 32 29 19
3 2 1 0 0 1 1 3 0 8 29 30 32 30 12 4
4 4 4 4 6 7 30 32 31 30 30 29 29 29 19 0
35 27 8 0 0 0 0 0 0 0 0 0 0 0 0 0
0 0 0 0 0 0 0 0 7 30 27 26 36 39 33 36
39 39 34 29 30 31 33 33 32 32 32 31 32 16 2 1
0 1 19 59 71 84 83 98 112 114 108 96 110 108 106 107
104 110 113 114 117 118 123 125 128 129 127 125 123 121 116 108
98 87 106 94 91 96 100 101 82 57 40 34 34 32 29 19
3 2 1 0 1 2 2 4 0 8 29 30 32 30 11 3
4 4 3 3 6 7 29 32 31 30 30 29 29 28 22 0
35 28 10 0 0 0 0 0 0 0 0 0 0 0 0 0
0 0 0 0 0 0 0 0 5 29 27 25 32 27 29 28
32 38 34 30 31 25 23 23 24 24 25 25 30 23 1 0
0 2 19 51 68 86 84 63 58 54 53 93 109 105 102 102
104 110 113 115 117 116 120 121 123 125 128 126 124 120 114 109
96 99 104 100 95 101 102 104 94 59 49 33 34 31 29 20
3 2 1 1 1 1 1 3 0 7 28 29 31 29 11 4
3 3 3 3 5 8 25 31 30 31 30 30 28 28 24 5
34 28 12 0 0 0 0 0 0 0 0 0 0 0 0 0
0 0 0 0 0 0 0 0 3 28 26 24 30 12 12 14
16 19 19 19 32 27 28 28 32 35 34 32 35 32 3 1
0 2 17 47 66 87 107 113 113 113 98 102 110 101 96 100
104 107 109 112 115 115 119 122 122 125 123 124 125 121 112 106
97 109 106 93 92 110 113 108 92 62 58 33 34 30 30 21
3 2 2 2 1 1 1 2 0 5 27 27 30 28 13 1
3 3 3 1 3 11 20 31 30 30 30 29 28 28 26 14
34 28 14 0 0 0 0 0 0 0 0 0 0 0 0 0
0 0 0 0 0 0 0 0 1 25 26 22 29 5 0 0
0 0 4 10 33 31 41 39 41 51 47 26 25 24 8 1
0 3 21 47 64 90 114 121 124 123 115 105 109 103 95 97
99 102 106 111 117 115 118 119 122 123 123 123 127 123 118 106
103 109 95 80 99 109 99 78 66 64 44 33 34 31 29 22
3 2 3 2 1 1 1 2 0 4 25 27 29 27 15 5
8 5 3 5 6 15 11 30 30 30 29 29 28 25 24 35
34 29 16 0 0 0 0 0 0 0 0 0 0 0 0 0
0 0 0 0 0 0 0 0 0 23 25 21 29 8 0 0
0 0 0 11 35 30 41 38 34 44 41 1 0 0 1 2
0 5 21 48 59 85 111 120 125 123 121 114 112 104 94 96
100 102 102 106 111 113 116 119 122 124 121 124 126 121 116 108
108 99 64 65 76 63 53 50 53 45 33 34 34 32 31 23
4 1 1 1 1 1 1 1 0 4 25 25 29 27 25 25
26 22 19 25 23 25 6 28 30 30 28 27 27 15 2 5
33 29 17 0 0 0 0 0 0 0 0 0 0 0 0 0
0 0 0 0 0 0 0 0 0 21 24 21 29 14 0 0
0 0 0 7 35 28 39 26 2 9 35 1 0 0 0 1
1 5 20 50 58 77 107 117 123 128 123 117 113 105 96 93
96 100 103 103 107 110 113 116 118 123 122 125 124 120 115 110
104 78 48 62 65 80 78 69 44 31 33 34 34 33 31 24
4 2 2 1 1 1 0 1 0 3 24 25 28 27 27 27
28 27 27 26 26 26 16 10 20 11 5 4 3 0 0 0
32 28 18 0 0 0 0 0 0 0 0 0 0 0 0 0
0 0 0 0 0 0 0 0 0 19 23 20 20 6 0 0
0 0 0 8 35 28 39 26 0 7 35 3 0 0 0 0
7 21 26 54 57 71 102 111 119 129 126 122 117 106 97 91
94 96 101 104 103 108 110 114 116 119 123 123 122 119 116 113
94 72 88 100 99 94 90 89 70 49 34 32 32 32 30 25
5 2 2 2 1 1 0 1 0 3 26 29 29 30 29 28
28 28 28 27 18 14 10 1 0 0 1 1 0 0 0 0
31 28 18 0 0 0 0 0 0 0 0 0 0 0 0 0
0 0 0 0 0 0 0 0 0 15 23 19 12 0 0 0
0 0 0 9 35 28 40 26 0 5 35 4 0 0 0 0
6 35 29 55 61 65 97 108 118 125 128 125 120 112 103 95
92 95 98 101 102 107 107 110 118 119 122 126 122 118 116 107
92 89 103 111 111 107 101 97 83 56 35 33 33 32 31 26
5 2 1 1 1 1 1 0 0 5 27 29 30 28 28 27
27 26 26 19 0 0 0 0 16 0 0 0 0 0 0 0
32 28 18 1 0 0 0 0 0 0 0 0 0 0 0 0
0 0 0 0 0 0 0 0 0 14 23 19 12 0 0 0
0 0 0 9 34 26 39 26 0 5 34 7 0 0 0 0
3 38 32 57 65 62 94 104 116 126 131 125 120 120 109 100
95 94 96 100 98 104 109 114 117 119 119 121 117 118 112 106
97 97 107 110 110 106 102 93 73 40 30 32 32 32 30 28
14 11 9 7 7 6 3 2 10 18 28 30 31 30 28 28
27 26 26 18 0 0 0 18 64 31 0 0 0 0 0 0
31 27 18 1 0 0 0 0 0 0 0 0 0 0 0 0
0 0 0 0 0 0 0 0 0 12 22 18 13 0 0 0
0 1 0 5 34 26 40 26 0 5 31 9 0 0 0 0
2 36 32 55 69 61 88 105 115 124 128 124 123 122 115 106
99 97 98 97 97 101 105 110 113 116 115 117 115 112 111 107
96 99 108 108 108 102 96 80 52 30 30 31 32 31 30 29
27 25 22 18 18 16 4 2 16 22 29 30 30 30 28 27
26 25 21 12 0 0 0 28 41 40 0 0 0 0 0 0
29 27 18 1 0 0 0 0 0 0 0 0 0 0 0 0
0 0 0 0 0 0 0 0 0 11 22 19 14 0 0 0
0 4 0 3 35 27 40 31 6 5 31 15 3 1 3 1
2 35 35 56 74 62 83 105 115 122 129 129 123 124 121 113
106 100 97 99 96 98 103 108 111 114 113 113 113 112 109 105
94 96 105 106 105 99 94 75 50 30 29 31 32 32 30 29
28 27 22 20 20 18 4 2 20 25 28 30 31 29 27 27
26 24 1 0 0 0 0 0 0 0 0 0 0 0 0 1
29 27 18 2 0 0 0 0 0 0 0 0 0 0 0 0
0 0 0 0 0 0 0 0 0 10 22 18 14 0 3 0
0 8 11 2 36 28 42 31 19 7 29 13 5 8 7 0
1 32 35 59 74 65 75 103 114 121 126 126 124 122 121 116
110 105 104 103 94 96 98 104 108 113 114 113 112 109 109 104
95 93 99 104 103 99 92 72 45 29 29 30 32 31 30 28
27 26 23 22 22 21 7 2 22 25 28 29 30 28 27 27
26 25 2 0 0 0 0 0 0 0 0 0 0 1 0 1
29 27 18 2 0 0 0 0 0 0 0 0 0 0 0 0
0 0 0 0 0 0 0 0 0 8 22 18 15 1 5 1
2 11 17 9 35 30 42 27 24 12 26 11 5 11 7 1
2 28 35 61 77 67 68 100 113 121 125 126 125 127 122 116
112 109 108 105 100 98 97 99 103 107 108 109 109 110 110 105
101 93 92 103 103 99 90 67 44 28 27 29 30 30 29 28
27 27 25 23 24 22 9 1 21 24 27 28 28 27 26 26
26 24 3 0 0 0 0 0 0 0 0 0 0 0 0 0
28 26 18 2 0 0 0 0 0 0 0 0 0 0 0 0
0 0 0 0 0 0 0 0 0 8 22 18 17 22 29 31
33 36 39 39 47 37 43 24 17 21 25 24 21 21 20 19
20 26 30 65 78 71 66 97 110 118 126 127 125 123 121 117
112 109 107 108 104 101 93 92 99 99 103 106 104 108 109 103
103 103 100 98 102 97 88 73 51 29 27 29 30 30 29 28
28 27 25 24 25 23 10 1 22 24 26 27 27 26 25 26
25 24 17 1 0 0 0 0 0 0 0 0 0 0 0 0
28 26 17 2 0 0 0 0 0 0 0 0 0 0 0 0
0 0 0 0 0 0 0 0 0 7 22 17 17 35 40 43
44 45 46 47 51 46 41 21 4 17 23 28 24 24 24 24
23 24 33 67 82 71 64 94 107 116 125 123 126 121 119 113
109 112 110 109 106 100 96 89 93 91 96 101 106 103 104 109
108 105 105 99 94 97 86 69 50 29 25 27 29 29 28 27
27 27 26 25 26 25 13 1 22 24 25 24 25 25 25 25
24 23 13 0 0 0 0 0 0 0 0 0 0 0 0 0
27 25 17 2 0 0 0 0 0 0 0 0 0 0 0 0
0 0 0 0 0 0 0 0 0 6 21 17 17 36 41 41
41 42 41 41 41 40 39 22 1 6 21 30 28 29 28 28
28 31 49 70 83 74 63 88 106 116 120 126 125 118 119 113
109 110 108 106 108 105 99 91 85 82 87 91 97 100 105 106
108 110 109 105 94 92 88 67 47 29 24 26 28 28 28 27
26 27 27 26 26 26 16 0 21 26 25 25 26 25 25 25
24 23 7 0 0 0 0 0 0 0 0 0 0 0 0 0
27 25 17 3 0 0 0 0 0 0 0 0 0 0 0 0
0 0 0 0 0 0 0 0 0 6 21 17 15 14 13 13
13 14 14 15 14 14 33 23 0 4 19 32 29 31 31 31
32 46 47 74 84 76 63 85 102 114 120 124 123 122 122 114
107 105 107 109 106 104 97 93 83 75 72 81 86 88 97 102
108 109 108 104 95 89 84 63 45 29 24 26 27 25 20 22
21 23 27 27 28 27 18 0 19 26 26 25 25 24 25 24
24 23 8 0 0 0 0 0 0 0 0 0 0 0 0 0
27 24 17 2 0 0 0 0 0 0 0 0 0 0 0 0
0 0 0 0 0 0 0 0 0 6 21 17 14 7 5 6
8 10 11 12 12 14 33 25 0 2 16 32 28 30 30 31
57 51 36 75 88 78 65 83 102 115 119 123 123 123 119 115
109 106 108 106 105 103 99 93 90 85 79 75 80 82 88 94
101 103 102 101 93 92 77 54 45 29 28 32 28 18 17 14
11 13 23 26 26 24 17 0 17 25 25 25 25 25 25 24
24 20 0 0 0 0 0 0 0 0 0 0 0 0 0 0
26 25 17 3 0 0 0 0 0 0 0 0 0 0 0 0
0 0 0 0 0 0 0 0 0 6 20 16 14 10 9 9
11 11 12 13 14 15 35 28 14 20 30 33 28 30 30 41
75 44 46 77 89 84 67 81 102 113 119 122 127 123 120 111
109 104 106 105 101 101 101 98 95 95 94 89 77 74 74 84
89 94 97 94 89 81 61 47 42 36 35 31 30 17 15 11
7 12 21 25 24 25 19 0 15 24 25 25 26 24 24 25
24 15 0 0 0 0 0 0 0 0 0 0 0 0 0 0
26 24 18 3 0 0 0 0 0 0 0 0 0 0 0 0
0 0 0 0 0 0 0 0 0 7 22 17 15 14 13 14
16 15 16 15 15 17 38 35 39 48 48 34 28 30 31 68
66 47 53 81 93 88 69 76 101 111 120 122 121 124 117 116
110 105 104 103 100 98 99 99 92 91 90 86 84 78 70 68
67 73 75 76 75 65 53 47 40 44 31 22 18 14 12 14
7 11 18 25 24 23 18 0 13 24 24 25 26 25 25 25
23 5 0 0 0 0 0 0 0 0 0 0 0 0 0 0
26 24 17 4 0 0 0 0 0 0 0 0 0 0 0 0
0 0 0 0 1 2 3 4 5 14 22 17 15 14 13 14
16 17 18 18 15 15 30 26 29 33 33 28 28 30 38 79
63 37 70 85 99 91 72 73 102 110 118 124 122 120 118 116
113 108 107 108 105 103 99 96 93 84 78 78 77 69 64 59
55 48 46 52 57 51 47 38 34 24 18 14 12 11 11 16
5 10 16 23 24 23 18 0 11 23 24 24 26 24 25 25
19 0 0 0 0 0 0 0 0 0 0 0 0 0 0 0
27 25 20 7 1 2 2 4 5 5 6 8 8 10 11 12
13 14 15 15 15 16 16 16 16 16 15 16 16 14 14 15
16 17 17 18 17 18 23 24 22 24 27 27 30 30 49 83
51 29 79 91 100 95 75 72 99 112 122 126 123 117 120 117
115 112 113 115 113 110 106 101 96 94 88 81 75 69 64 59
54 49 40 30 30 29 24 20 16 16 14 12 11 10 14 11
5 9 13 22 23 22 19 1 9 24 24 24 26 25 25 24
19 0 0 0 0 0 0 0 0 0 2 0 0 0 0 0
27 25 25 22 19 18 19 18 19 18 17 16 16 16 16 16
16 16 17 16 16 16 16 16 15 15 15 15 15 14 15 15
15 16 17 18 17 19 24 26 25 24 27 27 29 30 57 89
53 17 81 95 102 96 77 70 98 112 122 122 123 122 120 113
116 112 116 115 115 110 109 108 105 103 98 91 80 70 56 36
21 15 28 33 20 17 15 15 14 16 13 13 11 14 14 15
7 9 9 18 22 23 19 2 8 23 24 24 26 25 25 23
4 0 0 0 0 0 0 0 0 0 0 0 0 0 0 0
27 25 24 22 21 15 19 19 20 18 17 16 16 16 16 16
16 16 16 16 16 16 16 16 15 15 16 15 15 15 16 16
16 16 17 17 17 19 24 26 26 25 27 28 29 31 69 86
49 14 82 96 104 100 78 68 94 110 116 119 117 119 118 116
113 111 116 115 114 111 112 112 108 104 92 75 43 15 0 0
4 17 24 34 36 29 23 18 17 16 16 15 15 14 13 14
10 9 6 15 22 22 20 3 7 23 24 24 25 24 23 22
2 0 0 0 0 0 0 0 0 0 0 0 0 0 0 0
26 25 24 23 21 14 18 19 18 17 17 16 16 16 16 16
16 17 16 16 15 14 13 13 11 11 11 10 12 14 15 15
16 17 17 17 17 19 24 26 25 26 27 27 29 36 79 86
52 12 79 96 105 102 81 69 93 108 116 117 118 118 111 112
112 112 113 116 116 112 110 110 103 87 59 29 23 18 5 2
21 56 36 39 36 34 36 36 32 29 30 27 24 19 16 15
11 6 5 12 21 21 20 14 16 24 25 25 24 24 23 20
2 0 0 0 0 0 0 0 0 0 0 0 0 0 0 0
26 25 24 23 21 19 18 18 17 15 14 12 11 10 9 8
6 4 4 3 1 1 2 7 8 11 13 11 13 14 15 15
16 16 18 17 17 19 23 25 26 26 26 27 38 61 80 84
64 23 69 102 106 100 82 69 89 109 117 117 118 112 110 111
111 113 113 114 116 116 109 102 85 54 46 58 53 45 21 16
49 67 45 35 35 38 38 40 37 38 37 39 39 37 38 36
33 27 22 22 27 21 19 20 20 23 24 24 23 23 25 16
0 0 0 0 0 0 0 0 0 0 0 0 0 0 0 0
11 10 8 7 5 4 3 2 1 1 1 0 0 0 0 2
1 2 2 2 0 0 1 6 9 9 11 12 12 13 14 15
15 16 16 17 18 20 24 26 27 28 36 57 61 67 82 92
70 46 52 101 108 104 83 69 88 109 117 116 115 110 108 113
113 110 112 114 115 112 106 92 64 49 63 62 57 53 24 42
70 55 37 36 36 37 42 55 53 55 56 54 52 54 52 48
44 37 33 28 23 18 18 20 22 21 19 22 23 22 29 12
0 0 0 0 0 0 0 0 0 0 0 0 0 0 0 0
0 0 0 0 0 0 0 0 0 1 12 15 17 18 19 21
22 22 22 20 2 0 0 6 8 9 10 11 12 13 13 14
14 16 16 18 19 21 24 33 53 69 77 72 58 60 76 94
73 64 42 98 113 105 84 70 85 105 115 115 112 115 114 115
115 114 112 111 111 107 97 77 51 61 66 65 61 56 23 62
65 50 32 42 43 43 60 70 75 73 72 66 64 68 64 64
64 49 42 32 27 24 17 20 22 22 19 21 23 20 15 0
0 0 0 0 0 0 0 0 0 0 0 0 0 0 0 0
0 0 0 0 0 0 2 3 5 10 34 35 34 33 32 29
27 26 31 30 10 1 3 6 8 8 10 11 12 13 14 15
16 17 19 20 21 29 51 71 76 83 80 66 58 61 71 84
80 62 39 83 111 105 85 72 82 105 115 119 117 119 115 118
116 114 110 108 108 101 90 63 58 70 73 73 76 48 53 76
61 44 23 39 41 37 62 75 80 73 76 70 81 75 64 75
69 67 69 60 48 41 36 32 26 18 10 7 5 2 2 0
0 0 0 0 0 0 0 0 0 0 0 0 0 0 0 0
0 0 0 0 0 0 0 2 4 7 31 31 30 31 30 28
28 31 40 39 25 9 9 6 7 10 13 15 17 19 19 19
20 21 23 25 49 76 79 81 74 81 77 69 70 66 73 85
92 69 46 66 109 102 86 74 79 103 117 121 119 118 117 118
117 112 106 106 105 97 79 59 71 76 83 90 68 50 74 71
49 40 24 38 44 47 61 72 75 86 84 80 77 75 70 72
70 72 72 65 70 61 60 36 13 3 0 0 0 0 0 0
0 0 0 0 0 0 0 0 0 0 0 0 0 0 0 0
3 2 1 1 2 4 14 21 21 19 27 39 41 39 38 37
36 34 34 31 23 14 14 14 14 15 13 12 11 23 18 19
22 24 31 64 74 82 86 81 75 72 80 70 68 66 74 89
96 89 58 53 85 101 90 77 75 103 114 122 121 120 117 117
115 111 107 102 95 79 60 70 79 92 97 83 55 59 71 63
46 40 22 39 46 48 63 65 70 83 78 83 74 81 80 82
79 74 77 77 79 71 72 64 57 60 36 13 0 0 0 0
0 0 0 0 0 0 0 0 0 0 0 0 0 0 0 0
1 0 1 1 3 7 15 20 18 18 20 31 29 26 24 22
22 21 20 19 14 7 6 5 5 5 5 4 6 24 30 45
57 70 76 87 78 80 86 89 79 75 83 68 63 69 74 87
99 84 76 59 56 90 96 83 70 99 114 122 122 117 115 113
110 108 106 98 78 63 71 88 105 108 92 56 55 13 42 57
43 37 23 40 45 51 61 73 81 84 80 80 85 82 77 81
79 83 81 76 74 73 69 68 71 69 63 63 43 9 0 0
0 0 0 0 0 0 0 0 0 0 0 0 0 0 0 0
13 15 19 22 23 22 22 22 21 20 19 18 18 17 17 17
17 18 17 17 13 4 4 5 5 5 12 32 56 69 77 77
76 86 82 87 88 79 84 84 76 79 84 71 65 62 73 91
54 8 24 66 54 55 96 93 71 95 112 120 122 117 112 105
104 103 95 83 77 84 103 115 117 109 73 58 61 11 27 59
39 37 22 36 47 57 68 77 81 77 86 88 77 76 81 76
78 68 72 75 77 72 69 69 67 58 62 63 65 59 16 0
0 0 0 0 0 0 0 0 0 0 0 0 0 0 0 0
12 14 21 25 25 22 20 17 14 11 9 7 5 3 6 18
18 18 18 18 13 4 4 5 23 49 70 77 75 79 79 81
76 90 82 89 83 86 81 85 78 77 83 64 60 56 73 65
3 6 37 66 66 46 73 99 75 90 110 118 120 116 108 97
98 100 96 96 95 106 117 120 120 108 65 63 74 6 34 56
39 34 30 45 53 58 63 81 77 76 74 77 73 81 71 82
76 77 74 73 74 73 73 71 68 69 68 65 63 58 62 25
0 0 0 0 0 0 0 0 0 0 0 0 0 0 0 0
8 12 21 25 24 14 2 0 0 0 0 0 0 0 2 18
17 18 18 18 14 4 21 61 77 71 88 79 80 86 77 77
79 86 88 84 84 85 86 88 83 74 81 74 65 59 72 29
3 1 29 56 81 61 54 92 82 87 109 119 122 118 105 91
100 107 105 104 106 117 126 124 119 99 63 71 84 11 57 45
36 27 37 49 63 56 68 69 87 84 77 74 84 80 73 71
77 81 81 83 75 82 74 70 80 63 65 73 68 63 61 50
30 20 14 0 0 0 0 0 0 0 0 0 0 0 0 0
8 11 20 25 23 11 0 0 0 1 2 3 4 7 12 18
17 17 18 18 21 52 79 76 80 80 80 80 87 88 83 77
73 81 88 93 88 80 86 85 84 78 81 71 65 58 74 25
13 5 9 45 92 75 52 62 87 83 106 119 122 117 102 91
104 108 109 109 118 125 127 125 121 95 67 68 87 35 61 39
39 29 43 56 58 64 67 76 75 77 83 81 85 78 75 88
79 76 77 82 83 67 80 73 70 74 75 74 75 65 66 46
57 37 18 0 0 0 0 0 0 0 0 0 0 0 0 0
8 12 20 26 25 21 14 15 16 17 17 17 17 17 18 19
20 22 24 31 70 79 81 80 81 79 79 85 89 85 82 84
77 74 83 89 89 83 83 78 86 79 81 73 68 57 78 36
15 15 8 57 87 93 64 53 74 82 106 118 122 117 101 89
102 110 113 118 125 130 129 127 119 90 72 78 83 36 41 42
40 33 53 71 61 66 75 75 75 82 86 78 83 74 77 74
76 77 76 74 75 85 78 80 74 78 77 75 82 61 65 48
56 53 13 0 0 0 0 0 0 0 0 0 0 0 0 0
10 12 19 26 25 24 24 23 23 23 24 25 26 26 28 26
25 24 33 70 72 76 76 80 79 83 88 80 81 81 86 85
80 73 80 80 85 88 85 76 81 82 82 76 68 55 70 44
24 21 41 52 61 76 89 61 56 78 105 121 124 119 102 86
100 116 121 126 129 130 130 125 107 79 77 83 53 47 40 44
33 46 71 70 61 71 72 83 71 73 87 80 76 74 84 82
81 75 84 86 74 82 84 84 77 66 78 78 75 72 70 56
67 50 43 7 0 0 0 0 0 0 0 0 0 0 0 0
11 21 28 32 31 30 29 29 30 26 24 22 20 20 23 26
22 27 58 72 76 80 84 84 82 79 83 85 79 80 86 90
82 77 82 78 81 83 83 76 89 82 81 76 72 65 70 60
37 26 67 47 62 60 62 74 48 64 102 119 124 115 102 85
104 121 129 133 135 133 129 122 91 83 74 70 39 43 42 37
41 63 83 75 57 72 73 78 71 75 82 76 78 78 77 69
81 82 78 84 92 80 81 76 83 79 80 76 69 81 67 62
68 55 61 58 8 0 0 0 0 0 0 0 0 0 0 0
25 35 28 26 25 24 23 24 29 26 25 26 27 28 29 30
31 59 70 78 73 81 86 85 83 91 86 84 88 88 86 91
87 85 80 81 76 90 86 79 83 80 81 76 74 67 62 72
52 29 72 69 68 61 66 74 49 48 101 118 123 117 100 85
106 125 132 135 133 132 126 104 82 84 79 53 46 49 40 38
60 80 72 68 69 68 78 74 80 85 89 84 71 86 77 89
84 76 84 79 87 75 90 81 70 78 80 80 74 68 64 65
76 66 62 63 39 0 0 0 0 0 0 0 0 0 0 0
18 33 31 29 30 31 32 32 32 32 32 31 31 30 31 31
46 69 72 74 78 86 84 86 90 91 89 88 82 83 89 85
79 87 79 77 85 85 79 86 90 82 86 76 88 68 59 58
63 42 50 81 69 68 62 61 57 59 92 117 123 118 102 86
107 127 135 135 134 128 102 85 82 72 49 44 46 47 42 56
82 75 78 65 67 76 78 72 83 74 79 83 77 75 73 82
71 80 75 83 94 81 90 89 76 77 83 82 74 63 66 64
77 67 67 57 64 18 0 0 0 0 0 0 0 0 0 0
9 20 33 35 35 35 37 36 35 35 35 35 33 34 33 47
71 76 75 75 72 76 81 83 88 87 88 87 77 81 85 82
84 80 84 84 81 83 86 87 84 85 81 78 85 84 70 63
72 74 58 80 68 63 59 69 69 87 82 115 125 121 103 87
110 129 135 134 130 103 83 86 79 50 26 50 36 45 52 82
77 78 83 72 60 75 71 84 69 88 83 79 74 80 80 89
71 82 80 81 91 84 82 88 76 79 87 80 76 67 72 65
78 68 63 55 69 54 1 0 0 0 0 0 0 0 0 0
14 21 28 33 33 35 39 41 36 39 36 36 33 34 35 65
78 80 81 79 78 80 92 91 82 81 84 83 91 83 84 82
81 88 93 85 81 85 86 81 81 82 82 73 88 88 85 67
58 74 61 80 84 70 64 64 75 88 93 93 125 123 105 86
109 128 135 132 106 82 76 56 36 42 30 60 40 71 82 82
82 76 79 76 69 72 72 73 76 83 77 75 78 82 82 87
72 86 83 81 85 85 81 91 72 87 84 77 86 60 69 69
73 71 61 57 68 75 21 0 0 0 0 0 0 0 0 0
30 36 37 37 34 30 35 36 36 38 38 36 34 31 50 73
83 84 81 78 78 73 85 83 89 89 89 85 92 91 93 88
80 83 89 87 85 84 82 88 85 81 83 76 86 86 87 89
82 56 69 76 91 77 68 71 69 89 96 92 101 125 106 89
109 127 133 110 90 84 72 42 45 53 59 58 60 94 77 84
77 78 82 74 68 69 73 79 71 85 81 76 80 82 78 87
74 86 85 85 88 82 84 87 75 86 88 77 79 53 72 75
79 75 66 54 67 55 48 1 0 0 0 0 0 0 0 0
29 36 39 41 41 25 28 32 27 21 15 9 5 17 71 77
86 91 79 78 78 73 91 91 81 81 88 90 82 83 83 84
88 82 87 77 77 84 80 83 86 83 85 87 89 86 90 81
98 80 66 75 85 84 80 72 74 76 90 96 91 106 108 92
108 128 116 91 81 80 55 44 49 65 57 75 78 78 92 75
80 86 82 82 76 76 77 77 80 76 84 80 81 83 86 90
77 87 81 84 92 84 79 89 73 79 74 76 74 54 73 82
79 79 66 52 67 59 56 15 0 0 0 0 0 0 0 0
37 37 35 29 16 4 2 4 1 0 0 0 0 46 80 83
86 85 83 72 83 75 79 84 85 88 89 89 83 88 86 88
81 82 90 92 88 86 83 84 89 87 93 91 90 85 87 80
93 92 77 81 82 78 87 83 74 70 70 94 92 89 101 94
110 118 88 83 79 54 44 55 63 85 68 74 80 96 80 78
73 79 79 78 80 87 79 78 89 79 90 70 75 85 85 90
75 88 82 81 95 86 80 96 74 86 85 77 71 50 76 88
87 79 69 53 71 61 56 31 1 0 0 0 0 0 0 0
12 12 7 4 2 1 0 0 0 0 0 0 16 68 83 83
88 89 79 74 77 80 81 89 89 91 91 88 84 91 86 92
81 86 88 82 85 85 86 81 88 88 91 90 88 83 91 87
82 93 78 77 89 92 83 89 76 76 72 71 87 90 83 90
106 92 79 67 54 51 55 66 88 82 80 74 83 82 86 77
85 80 79 72 78 77 82 78 81 83 79 76 75 76 76 85
74 86 89 87 91 82 85 81 79 91 78 78 90 51 77 86
84 81 72 51 73 52 68 41 13 0 0 0 0 0 0 0
0 0 0 0 0 0 0 0 0 0 0 1 51 78 79 76
78 89 84 72 79 80 81 89 89 89 89 87 90 94 86 92
83 85 92 80 95 91 90 83 85 86 85 88 82 87 93 77
88 103 91 81 83 94 86 84 97 95 78 75 76 82 87 75
85 82 60 49 61 64 79 82 93 80 91 94 91 86 78 79
85 96 88 85 73 87 84 79 75 77 78 79 85 79 87 84
83 90 80 77 95 84 77 83 68 82 81 82 85 56 85 82
83 86 65 46 63 54 76 42 36 1 0 0 0 0 0 0
0 0 0 0 0 0 0 0 0 0 0 24 65 81 74 77
87 80 89 78 88 81 80 82 89 88 87 89 89 90 85 90
88 88 89 81 97 91 85 91 85 91 94 80 92 87 88 81
95 90 82 88 83 88 85 78 78 86 88 86 87 75 81 79
74 60 54 46 60 74 85 93 95 82 83 85 84 89 85 70
81 84 77 75 91 83 82 75 79 83 77 80 77 73 85 86
87 84 84 89 95 78 87 88 66 86 89 74 65 62 84 85
83 78 69 56 53 55 66 44 50 14 0 0 0 0 0 0
0 0 0 0 0 0 0 0 0 0 1 54 61 80 76 65
88 86 84 69 82 80 83 84 91 91 92 87 82 88 88 86
87 84 83 81 86 88 95 88 88 92 85 94 89 85 92 97
89 91 99 98 85 98 95 93 92 87 89 85 78 93 72 59
49 54 59 77 86 83 82 80 83 86 82 95 77 84 86 90
90 92 91 86 79 78 87 90 79 82 82 84 81 85 75 72
82 88 80 80 83 80 81 77 74 78 78 79 70 70 81 84
80 68 70 63 44 69 71 42 55 39 0 0 0 0 0 0
0 0 0 0 0 0 0 0 0 0 22 72 59 80 70 69
88 84 86 70 86 81 81 82 84 83 84 87 86 87 91 81
87 82 88 78 95 95 88 93 87 89 96 92 83 96 99 97
87 87 93 82 92 90 92 89 93 95 92 83 82 81 75 53
50 83 88 77 82 91 82 84 86 84 77 82 92 77 76 78
83 78 89 76 92 86 84 83 83 91 84 77 74 76 77 80
88 80 75 78 87 86 82 79 78 77 84 84 60 76 83 81
74 72 72 57 47 77 69 43 62 52 4 0 0 0 0 0
0 0 0 0 0 0 0 0 0 0 57 68 63 80 63 69
89 86 85 74 81 84 89 84 91 95 90 90 86 88 92 86
89 92 82 88 93 85 89 91 85 96 91 87 91 93 87 88
89 90 94 85 84 92 94 92 91 88 93 93 85 73 49 50
64 95 95 86 74 88 81 84 91 80 95 97 77 87 93 88
79 89 77 93 85 81 89 84 80 83 84 85 80 77 89 84
91 81 84 82 81 93 81 80 79 82 84 86 71 67 84 79
70 76 75 49 52 75 65 46 58 60 17 0 0 0 0 0
0 0 0 0 0 0 0 0 0 14 80 71 61 77 60 74
83 84 87 76 93 83 80 86 89 84 85 89 84 84 92 94
92 79 88 78 89 93 89 86 87 90 91 95 90 97 94 89
89 97 85 92 87 88 91 96 100 100 100 104 82 69 48 70
76 88 99 90 79 90 85 90 86 86 80 87 87 88 73 82
93 85 93 81 90 87 84 84 84 82 89 85 79 78 91 83
94 85 82 86 76 96 74 75 76 79 81 81 66 72 81 76
68 76 65 47 59 77 70 51 51 61 35 0 0 0 0 0
