P2
128 120
138
0 2 9 4 0 0 0 26 46 38 33 33 33 33 32 33
32 32 32 31 31 31 31 31 30 29 29 28 29 28 28 27
27 26 26 26 26 25 25 24 24 24 24 23 22 22 22 21
22 21 21 21 21 19 20 19 19 19 19 19 21 22 24 25
25 24 18 16 22 14 22 21 21 21 21 20 21 20 19 19
18 13 19 18 21 21 22 22 22 22 22 22 22 22 22 22
22 22 22 22 22 22 22 22 23 23 23 23 24 23 24 24
24 24 25 24 24 25 25 25 25 26 26 26 25 25 25 24
0 5 6 3 0 0 0 25 45 38 33 33 33 33 33 33
32 32 32 32 31 31 31 31 30 30 30 29 29 29 28 28
27 27 27 26 26 26 26 25 25 25 25 24 23 23 23 23
23 22 21 21 21 20 20 20 20 19 20 21 22 23 26 26
26 25 18 17 24 16 24 23 23 22 22 21 22 21 20 20
19 15 21 21 23 22 22 23 23 24 23 23 23 23 23 23
23 23 23 23 23 23 23 23 24 24 23 24 24 24 24 24
24 25 25 25 25 25 26 26 25 25 26 25 25 25 25 26
0 0 3 1 0 0 0 27 46 38 33 33 33 33 33 33
33 32 33 32 32 32 31 31 31 31 30 30 29 29 28 28
28 27 27 27 27 27 26 26 25 25 25 25 24 23 24 23
22 22 22 21 22 21 21 21 20 20 20 21 22 24 26 27
26 25 19 17 25 16 24 23 23 22 22 21 22 22 21 21
20 16 22 21 23 23 23 24 24 24 23 23 23 23 23 23
23 23 23 23 23 23 24 24 24 25 24 25 25 25 25 25
25 25 26 26 25 25 25 24 25 25 25 27 26 26 26 27
0 0 0 5 4 0 0 26 45 38 34 34 34 34 34 33
34 33 33 32 32 32 32 31 30 30 30 30 30 29 28 29
28 28 27 27 27 27 26 26 26 25 25 25 25 25 24 23
23 23 23 22 22 21 21 20 21 21 21 21 22 24 27 26
27 26 19 17 26 16 24 24 24 23 23 22 22 22 21 21
21 17 23 21 23 23 23 24 23 24 24 24 24 24 24 23
24 24 24 24 24 24 24 25 24 24 24 24 25 25 25 25
25 25 25 25 26 26 27 26 26 26 26 26 27 26 26 27
0 0 1 5 5 0 0 26 45 37 33 33 33 32 33 32
32 32 32 31 32 31 31 31 31 30 30 29 29 28 28 28
28 28 27 27 27 26 26 25 26 25 25 24 24 24 24 23
23 23 22 22 22 21 21 21 20 21 21 22 23 24 27 26
27 27 19 17 25 18 22 22 24 22 22 22 21 23 20 20
21 17 23 20 23 23 23 23 24 25 24 24 24 24 23 23
23 23 23 24 24 24 24 24 25 25 24 25 24 24 24 24
24 25 26 26 26 26 26 26 26 26 27 27 26 27 26 26
0 0 1 0 2 1 0 24 43 37 33 33 33 32 33 33
33 32 32 32 31 31 30 30 30 30 30 29 29 28 29 28
28 28 28 27 27 26 26 26 26 25 25 25 24 24 23 23
23 23 22 22 22 22 21 21 21 21 21 21 23 24 27 27
27 27 19 17 25 20 22 24 23 24 23 22 21 22 21 21
21 17 22 20 24 24 23 23 23 24 24 24 24 24 24 25
25 24 24 25 24 24 24 24 23 24 24 24 23 24 24 25
25 26 26 26 26 26 26 26 26 26 26 26 26 26 26 26
12 7 2 0 2 3 9 30 44 37 33 33 33 33 33 32
32 32 31 31 31 31 31 30 30 30 30 29 29 29 28 28
28 28 27 27 27 27 27 26 26 25 25 25 24 24 23 23
23 23 23 23 22 22 21 22 21 21 21 21 23 24 27 27
27 26 20 18 25 21 21 24 24 24 23 23 22 22 21 22
21 18 21 20 24 24 24 24 24 24 24 24 24 24 24 24
24 25 24 24 24 23 24 24 24 24 25 25 25 25 25 25
25 26 26 26 26 26 27 26 26 26 26 26 27 27 26 26
31 32 31 27 22 16 15 33 43 36 33 33 33 33 33 32
32 33 32 32 31 31 31 30 30 30 30 29 29 29 28 28
28 28 28 27 27 27 26 26 26 26 25 25 25 24 24 24
24 23 23 23 23 22 22 21 22 21 22 22 23 24 28 28
27 26 20 17 26 24 19 25 24 24 24 23 21 22 21 21
21 19 21 21 24 24 24 24 24 25 24 25 25 24 25 24
23 24 25 24 24 24 25 24 25 25 24 25 25 25 25 25
26 27 26 27 27 27 26 27 27 26 26 26 25 26 26 26
22 24 27 29 31 34 36 37 38 34 33 33 33 32 33 32
32 31 31 31 31 31 31 31 30 30 30 29 29 29 29 28
28 28 27 27 27 27 26 26 26 25 25 25 24 24 24 23
24 23 23 22 23 22 22 22 22 21 22 22 23 25 28 28
28 27 21 18 26 25 18 24 24 23 24 23 22 23 22 22
22 19 22 21 24 24 25 24 24 24 24 24 24 23 23 23
24 25 24 24 25 24 24 25 25 25 25 25 25 26 26 25
26 27 27 26 26 26 26 26 26 26 26 26 26 26 26 26
13 15 18 22 25 28 28 30 33 33 33 33 32 33 32 32
32 32 31 31 31 31 30 30 29 29 29 29 29 28 29 28
29 28 28 27 27 27 26 26 26 25 25 25 24 24 24 23
23 23 23 23 23 22 22 22 21 21 22 22 23 25 28 29
28 28 22 18 25 28 17 25 24 24 24 23 22 23 21 22
22 19 22 21 24 25 24 24 24 24 24 24 25 25 25 25
25 25 24 25 25 24 24 25 25 25 25 25 25 26 26 26
26 27 27 27 27 26 26 26 25 26 26 26 25 26 25 25
10 11 10 10 11 13 18 22 26 31 33 34 34 33 32 32
32 31 31 31 30 31 31 30 30 30 30 29 29 29 29 28
28 28 27 27 27 27 26 26 26 26 26 26 26 25 24 24
24 23 24 23 23 23 23 22 22 22 22 23 23 25 28 29
28 28 22 18 26 29 18 25 25 25 25 23 23 23 23 23
22 19 21 21 23 24 24 24 24 25 25 24 25 24 25 25
25 26 25 25 25 25 25 25 25 25 26 26 26 26 26 26
26 26 27 26 26 27 27 26 26 26 26 26 26 26 26 26
10 10 10 10 10 9 9 12 11 12 14 18 21 27 30 32
33 32 32 31 31 31 31 30 31 30 30 30 30 29 29 29
29 28 28 27 28 27 27 26 26 26 27 25 25 25 25 25
24 25 24 24 23 24 23 23 23 23 23 23 24 24 29 29
29 29 23 18 26 30 18 25 25 25 24 24 24 24 23 23
22 20 21 22 25 26 25 25 26 25 25 25 25 25 26 26
26 26 25 25 25 25 25 25 26 26 26 26 26 26 26 27
27 26 27 27 27 27 28 27 27 26 27 26 26 27 27 27
16 12 11 11 11 11 10 11 10 10 11 11 10 11 11 13
17 22 26 30 31 31 30 30 30 30 30 29 30 29 28 29
28 28 28 27 28 27 27 27 26 26 26 26 26 26 25 25
25 24 24 23 23 23 23 22 23 22 23 23 24 25 29 29
29 29 23 18 25 30 20 24 26 26 25 24 24 23 22 22
22 21 21 23 26 25 25 25 25 25 25 25 26 26 26 26
26 26 26 25 26 25 25 25 26 25 25 26 27 26 27 26
26 27 26 26 27 26 27 27 27 27 27 26 25 25 24 25
41 38 36 38 33 29 25 18 12 12 11 11 10 10 11 10
3 4 12 29 31 31 31 30 30 30 30 30 30 29 29 29
28 28 28 27 27 27 27 27 27 26 26 25 25 26 25 25
25 24 24 24 24 24 23 23 23 23 23 24 25 26 30 29
28 28 24 18 26 31 23 23 26 26 25 24 24 24 23 22
23 21 22 23 25 26 26 25 25 25 26 26 26 25 26 25
26 27 26 26 26 26 26 26 26 26 26 27 27 27 27 27
27 28 27 27 26 26 27 26 26 26 25 25 26 27 27 26
48 43 40 47 46 45 43 30 19 24 20 14 10 9 11 12
8 8 12 29 32 31 31 31 30 29 28 29 29 30 29 29
28 28 28 28 28 27 28 27 27 27 27 26 26 26 26 26
25 24 24 24 24 24 24 23 24 23 23 24 25 26 30 30
28 29 24 19 26 31 24 21 26 25 25 25 25 24 23 23
23 22 21 24 26 26 25 25 25 25 26 26 26 26 26 26
26 27 27 26 26 26 26 26 26 26 27 27 27 27 27 26
27 27 27 26 26 27 27 27 27 26 28 26 26 26 27 27
46 40 41 42 46 46 45 33 27 32 37 36 30 29 23 16
8 9 10 28 32 32 31 31 30 29 31 31 31 30 30 29
29 28 28 28 28 28 27 27 26 27 26 27 34 35 30 27
26 25 24 24 24 24 24 24 24 24 24 24 25 26 30 29
28 29 24 18 25 29 25 16 20 16 15 19 15 12 11 19
16 22 21 23 25 26 26 26 27 26 26 25 26 26 26 26
26 27 26 26 26 26 26 26 27 27 26 27 26 26 26 26
26 27 26 26 26 26 27 26 26 26 27 27 26 26 26 26
30 25 35 38 44 45 46 35 33 36 39 37 33 42 42 40
19 10 13 29 32 32 32 31 31 32 41 39 38 36 32 31
29 27 28 28 28 28 27 27 27 27 27 28 39 38 35 34
33 30 26 25 25 24 24 24 24 24 24 24 26 26 31 29
30 30 26 17 15 13 8 1 0 0 0 2 0 0 0 0
0 7 13 16 21 25 26 27 26 26 27 27 27 27 27 27
28 28 28 27 27 27 27 27 26 27 26 27 27 26 27 26
26 27 27 26 27 26 26 26 26 26 27 27 26 27 26 27
13 0 1 4 8 14 31 37 36 37 40 41 42 44 44 44
23 9 14 31 33 32 31 31 31 33 42 40 40 36 36 35
35 34 30 29 29 28 28 27 27 27 27 28 37 37 35 34
35 34 30 25 25 25 25 25 25 25 25 24 26 27 30 30
29 26 17 7 1 0 0 0 0 0 0 0 0 0 0 0
0 0 0 0 0 11 19 23 26 26 27 27 27 27 27 27
27 27 26 26 26 26 27 26 27 27 27 26 27 27 27 27
27 27 27 26 26 26 26 26 26 26 26 27 26 26 26 26
0 0 0 0 3 0 18 38 36 38 40 41 43 44 45 46
29 10 14 34 35 34 33 32 32 33 42 41 39 37 37 38
40 38 34 36 35 32 29 27 28 27 27 28 31 30 32 33
34 34 31 26 25 25 24 24 24 25 25 24 26 26 29 28
19 5 1 1 1 0 0 0 0 0 0 0 0 0 0 0
0 0 2 1 0 0 0 1 10 22 27 27 27 27 27 27
27 27 27 28 27 27 27 27 27 27 28 27 27 27 27 27
27 27 28 27 27 27 27 27 26 27 26 28 27 26 26 27
0 0 0 5 14 3 20 37 32 37 35 41 43 43 43 43
29 10 15 35 38 33 35 35 35 35 27 20 31 37 39 42
42 39 25 23 32 35 35 34 33 33 30 28 24 10 10 12
18 23 30 26 25 25 25 25 25 25 25 24 25 25 22 7
2 0 3 2 0 0 0 0 0 0 0 0 0 0 0 0
0 0 0 0 0 0 0 0 0 2 20 27 27 27 27 27
27 27 27 27 27 27 27 27 27 27 28 27 27 27 27 27
28 26 26 27 27 26 27 26 26 26 26 28 27 27 26 26
0 0 0 6 14 7 21 35 3 6 15 24 34 39 40 41
30 11 15 34 37 28 27 32 38 42 18 0 0 11 22 23
29 36 13 0 1 5 13 18 25 33 34 31 23 7 3 8
4 0 17 27 26 26 25 25 25 25 25 25 23 16 6 3
2 3 0 0 0 0 0 0 0 0 0 0 0 0 0 0
0 0 0 0 0 0 0 0 0 0 2 13 25 27 27 27
27 27 27 28 28 27 28 27 27 27 28 27 27 28 27 27
27 27 28 28 27 27 27 26 26 26 26 28 27 26 26 26
0 0 0 2 4 1 20 35 1 0 0 1 1 5 5 21
32 11 14 27 36 37 36 33 40 44 21 0 0 3 8 10
8 29 12 0 0 0 0 0 0 2 8 27 23 4 2 0
5 0 16 28 26 25 26 25 25 25 25 20 7 4 2 6
0 3 0 0 0 0 10 8 7 1 0 0 0 0 0 0
0 0 0 0 0 0 0 0 0 0 0 0 3 19 28 28
27 28 28 28 27 27 28 27 27 27 29 28 28 27 27 27
27 27 27 27 26 27 26 27 27 26 27 27 26 27 26 26
0 0 0 0 0 0 21 34 0 0 0 0 0 0 0 13
33 12 11 0 3 9 20 29 38 42 22 0 0 1 2 6
6 28 15 0 0 0 0 0 0 0 0 23 23 1 0 0
1 0 16 29 26 26 26 25 26 24 18 4 2 4 0 0
0 0 0 0 0 3 11 5 2 0 0 0 0 0 0 0
0 0 0 0 0 0 0 0 0 0 0 0 0 1 14 27
28 27 27 28 28 27 28 28 27 27 29 28 28 28 28 27
27 27 28 27 27 27 28 27 27 27 27 27 27 27 26 26
0 2 0 10 0 0 21 33 0 0 0 3 0 0 0 13
33 12 10 0 0 0 0 0 2 9 19 0 0 0 0 0
2 23 15 0 0 0 0 0 0 0 0 24 18 0 0 0
0 0 17 30 26 26 25 25 24 16 2 0 8 0 0 1
2 1 0 0 0 4 3 0 0 0 0 0 0 0 0 0
0 0 0 1 0 0 0 0 0 0 0 0 0 0 0 12
27 27 29 28 28 29 28 28 28 28 29 28 29 28 28 28
28 28 28 28 28 27 28 28 27 28 28 28 28 27 27 27
0 16 10 21 1 0 21 33 0 0 0 14 2 0 0 13
34 11 11 0 0 0 0 0 0 0 14 0 0 0 0 0
1 24 14 0 0 0 1 3 0 0 0 22 17 0 0 0
0 0 17 31 26 26 25 24 13 4 0 1 3 0 0 6
7 5 2 0 2 3 0 0 0 0 0 0 0 0 1 0
0 0 0 0 1 1 0 0 0 0 0 0 0 0 0 0
17 28 28 28 28 28 28 28 29 29 29 27 28 28 28 28
28 28 29 28 28 28 28 28 29 28 27 27 26 28 28 28
1 0 0 3 0 0 21 33 0 0 0 7 13 0 0 14
32 11 10 0 0 0 0 0 0 0 12 0 0 0 0 0
1 29 18 0 0 0 2 10 4 1 0 20 17 0 0 0
0 0 13 32 27 26 26 18 1 0 0 1 1 0 5 10
14 3 6 0 2 3 0 0 0 0 0 0 0 3 2 3
5 2 2 0 1 3 0 0 0 0 0 0 0 0 0 0
7 28 28 28 28 29 28 29 29 29 29 28 28 29 29 29
29 29 28 29 28 27 27 28 27 28 27 29 28 29 28 27
0 4 7 2 0 0 21 31 0 0 0 1 1 0 0 14
32 12 12 0 0 0 2 2 0 0 11 0 0 0 0 0
0 26 20 0 0 0 4 11 10 9 1 18 19 0 0 0
0 0 12 33 27 27 19 4 1 0 0 0 0 0 3 17
13 5 5 4 4 1 1 0 0 0 0 0 2 6 7 10
12 5 10 8 10 11 4 0 0 0 0 0 0 0 0 0
4 25 29 29 29 29 29 30 30 30 31 29 29 29 29 30
29 29 29 29 29 29 28 28 28 28 28 29 28 28 28 27
0 0 3 0 0 0 21 28 0 0 0 0 0 0 0 15
32 12 11 0 1 2 3 5 0 0 10 0 1 0 0 0
1 25 23 0 0 0 5 11 10 10 2 16 21 0 0 0
0 0 9 34 26 19 4 0 0 1 0 1 0 0 4 25
11 13 17 12 3 3 0 3 0 0 0 2 7 10 13 18
14 19 17 15 15 16 4 2 2 0 0 0 1 0 0 1
7 15 29 29 29 29 30 30 29 29 29 29 29 29 29 29
29 29 29 29 29 29 28 28 29 27 28 29 28 28 28 28
26 21 16 11 5 2 23 28 0 0 3 0 0 0 0 15
31 12 12 0 8 2 2 0 0 0 10 0 0 0 0 0
4 24 25 0 0 0 1 7 9 10 2 15 30 11 4 0
0 0 7 34 23 6 0 0 1 5 7 6 1 0 12 23
17 23 10 5 7 4 0 1 1 1 2 6 19 23 17 22
20 26 23 22 23 21 10 9 3 5 7 3 5 6 3 7
10 16 27 30 29 30 29 29 30 30 29 30 29 29 30 30
29 29 30 29 30 29 30 29 28 28 29 28 28 28 28 28
35 36 45 45 44 41 36 39 17 8 10 11 8 4 2 18
30 12 12 1 3 0 0 0 0 0 14 0 0 0 0 0
7 29 35 11 6 2 0 0 2 7 1 12 39 38 34 31
27 25 27 31 9 1 1 1 7 5 9 12 2 3 12 16
20 8 5 10 5 12 5 5 2 0 6 20 34 29 30 33
26 35 31 36 36 21 17 11 8 20 24 19 7 4 10 12
7 17 27 30 30 29 29 29 30 29 28 29 29 29 30 30
30 29 30 30 29 29 29 29 29 29 29 28 29 28 28 28
8 16 20 22 26 35 38 55 50 27 32 34 39 36 34 34
25 12 11 0 0 0 0 0 0 0 29 34 24 19 16 8
2 22 45 30 31 31 28 20 13 8 5 14 40 38 36 36
38 42 41 17 4 3 2 2 9 10 13 11 2 5 17 16
3 1 12 14 13 15 13 3 0 1 11 32 39 40 54 68
62 44 43 45 36 29 23 20 31 42 40 17 3 6 18 14
10 22 30 29 29 29 30 29 30 30 29 30 30 30 30 30
30 30 30 30 29 28 28 27 26 27 26 26 25 25 27 27
4 13 10 7 0 12 53 57 44 24 34 42 45 43 44 42
27 12 12 0 0 0 0 0 0 0 32 48 37 39 41 43
40 44 40 10 11 12 15 17 20 24 30 37 38 31 34 35
39 42 27 4 4 5 4 4 15 16 17 5 6 16 25 6
0 5 16 22 21 17 18 6 2 7 22 44 75 96 106 112
110 90 70 57 49 39 50 65 71 64 44 25 11 15 16 8
19 25 31 29 30 29 29 28 28 29 28 29 29 29 29 29
29 29 28 29 27 28 27 26 27 28 27 25 22 19 16 13
2 1 1 1 0 15 53 54 36 27 36 42 43 43 47 45
27 13 13 4 0 0 0 0 0 0 34 45 36 43 45 49
44 37 31 13 11 10 10 10 9 8 8 9 9 13 18 23
30 28 10 5 5 6 5 6 13 11 13 8 11 14 29 4
9 13 17 25 21 15 14 10 7 17 40 70 89 104 114 119
121 118 106 91 86 96 101 99 92 75 51 36 29 19 13 22
28 28 32 29 29 29 29 29 30 29 29 28 29 30 30 30
30 30 30 28 26 25 29 21 15 12 11 10 10 9 10 11
2 0 0 0 0 13 50 47 17 8 17 23 26 32 35 42
27 13 15 31 36 29 21 12 6 3 32 33 36 43 45 48
48 39 32 17 11 12 11 8 8 7 7 6 6 6 7 9
27 22 5 2 8 7 4 5 5 1 15 13 18 11 19 14
12 14 14 21 13 18 16 11 13 24 52 76 94 97 107 119
120 118 117 114 112 109 108 105 97 95 83 61 46 33 30 30
27 27 29 29 29 29 29 29 29 30 31 31 30 28 26 23
20 16 15 13 11 11 28 20 6 11 12 14 14 14 15 16
0 0 0 0 0 11 50 47 14 0 0 0 0 0 0 18
29 12 15 33 45 45 43 42 42 40 43 26 32 40 42 46
46 41 35 19 12 10 8 7 8 7 8 8 8 8 9 13
27 7 3 9 13 10 2 4 0 5 24 19 17 13 15 10
12 11 9 18 19 18 20 20 24 35 60 80 88 95 109 118
122 123 121 117 112 108 108 106 99 99 93 74 57 46 44 38
28 28 29 30 30 30 29 28 26 23 21 18 15 13 13 13
12 13 14 15 16 14 20 15 12 16 18 20 19 21 22 22
6 0 0 0 0 8 49 48 12 0 0 0 0 0 0 15
30 13 14 33 46 46 44 45 44 45 44 7 2 7 13 20
26 26 35 21 12 9 4 2 1 4 9 11 9 10 12 14
27 8 3 12 15 9 5 0 0 7 19 11 14 13 15 11
3 9 13 20 19 22 32 27 27 39 60 73 85 91 104 114
120 124 125 125 119 112 110 108 102 100 96 86 69 57 48 46
33 27 26 23 21 18 16 15 14 15 14 15 15 16 17 18
19 19 20 21 22 20 26 22 15 20 23 23 23 24 25 25
14 0 0 0 0 5 46 46 10 0 0 0 0 10 9 17
30 15 15 29 40 41 42 44 44 46 42 4 0 0 0 0
6 12 35 19 10 8 0 0 0 0 5 7 2 2 8 10
26 11 3 9 13 10 7 1 2 6 4 7 14 12 16 4
5 11 21 26 27 40 32 30 28 47 60 71 80 91 103 108
118 121 124 125 125 117 112 108 104 101 99 93 78 65 55 52
41 17 15 15 16 17 18 18 19 19 20 20 21 22 23 24
24 25 25 26 24 23 20 19 18 24 25 25 26 26 27 26
8 0 0 0 0 4 41 42 8 0 0 0 3 24 24 21
27 25 21 25 28 30 32 31 33 39 39 3 0 0 0 0
0 7 38 19 10 8 2 0 0 0 0 0 0 0 0 1
25 12 2 11 7 11 10 6 6 9 8 2 15 5 10 1
11 14 22 30 29 34 30 31 34 46 54 63 78 93 100 106
118 123 124 125 126 121 115 108 105 104 100 98 88 70 57 53
52 32 20 21 22 23 23 24 25 26 26 25 26 26 27 27
27 26 26 27 25 22 3 2 14 27 28 28 28 27 26 27
9 1 0 0 0 4 40 41 6 0 0 0 1 23 24 21
24 19 16 19 17 19 27 27 27 39 39 3 0 0 0 0
0 1 38 14 7 1 0 0 3 5 0 0 0 0 0 0
22 10 4 8 3 8 4 12 12 21 9 4 6 2 5 8
14 24 22 36 32 32 33 29 38 48 56 61 82 89 91 107
116 121 122 122 122 121 117 110 106 106 103 98 94 82 60 51
56 50 29 26 27 27 27 27 27 27 27 27 27 27 28 28
28 28 28 27 26 21 2 1 10 26 28 28 28 28 27 28
0 0 0 0 0 6 42 41 5 0 0 0 0 4 6 12
20 17 18 20 23 23 27 28 30 39 38 2 0 0 0 0
0 2 39 5 0 0 0 0 1 8 6 1 0 0 0 0
22 16 6 9 4 10 7 5 12 23 9 5 8 8 8 14
21 31 34 40 29 33 34 35 44 51 50 59 78 83 98 103
115 118 124 123 121 120 118 115 109 106 103 101 97 91 73 52
52 58 43 28 29 29 29 30 29 29 30 29 30 29 29 29
28 12 7 3 10 18 3 3 9 26 28 29 29 28 28 28
0 0 0 0 0 8 44 42 5 0 0 0 0 0 0 6
19 14 17 12 6 12 17 23 31 35 35 3 0 0 0 0
0 3 40 6 0 0 0 0 0 6 14 7 2 0 0 0
25 15 8 7 8 11 7 3 15 14 8 8 19 13 14 24
32 34 33 29 20 41 36 42 51 51 48 63 80 88 101 110
115 117 124 124 122 119 117 115 111 107 104 100 98 92 83 63
49 58 53 33 30 31 31 30 30 30 30 30 30 29 29 30
26 5 7 11 18 20 1 0 8 26 28 28 29 28 27 28
0 0 0 0 0 10 45 42 4 0 0 3 0 0 0 7
25 22 21 10 0 0 0 0 0 1 17 3 0 0 0 0
0 5 38 4 0 0 0 0 8 10 13 10 6 0 0 0
23 15 7 4 8 14 5 5 16 16 7 17 26 22 16 29
25 19 21 18 27 39 38 47 50 49 56 68 90 94 105 107
109 123 125 124 122 119 118 113 109 106 103 98 94 88 87 70
50 51 54 38 30 31 30 30 30 30 29 30 30 30 30 30
29 28 28 28 27 22 1 0 7 25 27 28 29 28 28 28
11 6 3 1 0 12 45 41 4 0 0 2 3 0 0 8
31 24 22 11 0 0 0 0 0 0 12 3 0 0 2 0
0 3 37 2 0 0 0 0 14 16 16 6 3 0 0 0
22 14 8 4 7 9 10 6 19 24 16 25 27 20 22 25
16 12 17 27 33 40 42 45 45 53 65 73 93 98 107 116
118 125 123 124 121 118 117 114 109 104 99 91 86 82 84 72
54 49 49 42 32 31 31 30 30 31 31 31 30 30 30 30
30 29 28 27 26 23 6 0 11 25 28 28 29 28 28 28
39 28 36 36 29 30 38 37 8 0 0 2 6 0 0 6
35 26 22 12 0 0 0 0 0 0 11 3 0 1 14 6
0 4 37 1 0 0 0 0 2 7 12 0 0 0 0 0
21 15 8 12 8 14 10 9 19 30 22 16 18 24 24 19
8 20 16 32 30 37 42 42 47 64 71 87 97 108 121 123
122 122 120 121 120 118 119 118 112 103 89 85 76 75 70 59
55 50 46 39 32 31 31 31 31 31 32 32 31 31 31 31
30 29 29 27 26 23 11 0 16 26 29 29 29 28 28 27
18 12 18 22 21 21 33 33 27 12 7 6 14 9 3 5
36 22 21 11 0 0 6 6 0 0 10 3 0 8 16 9
1 3 35 1 1 0 0 0 0 3 12 0 0 0 0 0
16 22 6 7 9 22 21 13 14 32 23 12 20 28 21 16
17 23 21 31 32 35 41 44 55 83 81 91 103 117 121 121
120 119 120 121 120 120 123 120 110 87 78 69 57 53 37 39
52 52 41 32 28 31 31 31 31 31 31 30 31 31 31 31
31 30 30 28 27 22 19 15 22 28 28 29 29 29 28 28
0 0 0 6 10 2 33 34 33 37 33 30 37 36 33 32
40 22 19 11 0 4 16 12 4 0 11 16 7 16 15 15
7 5 35 1 1 0 0 0 0 2 15 0 0 0 0 0
14 24 12 8 12 23 14 18 13 19 19 14 17 29 19 18
22 21 23 27 29 31 41 49 61 85 85 102 123 124 122 120
119 120 122 122 125 124 120 111 89 67 53 50 32 25 23 31
50 53 35 20 11 31 31 31 32 31 32 31 30 30 31 31
30 30 30 28 27 23 22 23 26 29 29 29 31 29 29 28
0 0 0 6 14 10 35 35 27 4 7 13 20 30 38 43
42 27 17 12 0 2 10 8 2 0 11 39 37 41 40 38
39 38 41 2 0 0 0 0 0 3 17 0 0 0 0 0
8 25 13 12 11 17 8 11 10 16 10 14 20 34 24 28
25 23 28 25 32 38 46 58 67 85 89 116 125 123 124 122
122 119 123 124 123 121 113 99 79 70 62 51 34 22 26 37
54 56 27 7 4 30 32 32 32 32 32 32 31 31 31 31
30 30 30 30 28 25 25 26 29 29 29 29 30 29 29 29
0 6 9 2 5 12 38 36 25 0 0 0 5 1 22 44
41 25 18 15 0 0 1 0 0 0 11 40 39 42 42 41
46 49 45 16 11 14 5 2 2 6 20 3 2 1 0 0
5 24 13 10 9 6 6 7 12 26 13 14 25 24 23 30
27 28 28 28 30 42 47 65 68 86 100 121 124 123 125 125
125 123 124 126 125 119 105 88 88 77 61 36 31 41 45 57
74 54 12 1 5 31 32 31 32 32 31 32 31 32 31 32
31 30 29 29 28 27 27 29 30 31 30 30 30 29 30 30
7 29 34 18 8 6 39 38 23 0 0 8 30 10 29 41
37 22 20 21 14 0 2 0 0 0 9 40 38 41 41 41
49 52 50 35 32 32 30 28 28 27 26 21 18 16 15 14
19 24 8 11 9 6 9 20 12 28 17 17 23 24 24 30
36 37 39 45 39 44 60 66 67 83 102 120 118 125 126 127
126 126 125 126 120 114 107 94 75 44 10 12 33 55 65 92
97 44 20 12 12 32 32 32 32 32 31 32 32 32 32 32
31 30 30 30 29 29 29 29 29 29 29 29 29 30 29 30
17 29 26 0 0 4 40 39 23 0 0 1 24 24 34 40
32 19 20 21 8 0 0 0 0 0 9 36 33 36 36 37
38 34 35 34 35 35 34 32 34 33 33 32 29 26 24 22
24 28 9 13 10 10 16 21 11 26 20 19 26 35 34 36
42 48 51 59 55 49 65 61 64 89 111 120 124 128 129 130
127 126 125 123 120 112 97 59 60 74 20 28 38 73 99 119
109 43 5 17 28 33 32 31 31 31 31 32 32 32 31 30
30 29 30 29 29 29 29 30 30 30 30 29 30 30 29 29
1 34 35 1 0 4 43 41 24 0 0 0 3 10 33 42
29 20 23 20 2 0 0 0 0 0 9 40 33 34 34 35
34 31 31 35 36 38 38 36 36 35 34 33 36 39 36 33
32 31 7 17 11 14 17 18 7 24 19 45 94 102 95 74
49 50 61 72 69 47 59 51 69 84 104 122 130 130 129 129
129 127 124 116 111 94 64 76 83 72 38 35 48 90 120 126
117 78 6 24 32 31 31 30 31 31 32 31 31 31 31 31
31 30 30 30 28 29 30 31 30 29 30 30 30 29 29 28
0 20 17 1 2 6 43 41 26 0 0 0 0 1 32 43
29 21 20 22 23 19 14 11 9 6 11 42 34 34 34 34
34 34 37 39 37 40 43 47 39 34 34 34 40 43 42 39
39 33 7 10 11 10 15 18 5 19 28 101 114 90 88 110
93 75 74 73 63 45 56 52 75 88 106 123 130 129 130 129
128 125 119 110 96 83 96 98 98 85 62 43 48 89 120 122
122 100 49 30 32 32 32 31 31 31 31 30 31 31 32 31
30 30 30 31 30 30 31 31 29 29 30 30 29 28 15 14
0 0 0 1 2 4 42 43 26 0 0 0 0 0 27 44
28 21 21 26 42 44 43 41 45 47 46 46 37 36 37 37
37 40 42 44 38 41 44 48 39 34 30 30 40 44 42 39
39 37 12 16 13 7 14 13 12 22 61 112 88 116 115 87
115 116 105 96 65 48 52 64 82 102 115 126 129 130 129 127
126 124 119 114 104 103 105 101 96 77 62 46 57 90 109 118
119 111 83 36 31 31 31 31 31 31 32 31 31 30 31 31
30 30 30 30 31 31 30 30 30 29 29 30 29 16 24 27
0 0 0 0 0 3 41 41 21 0 0 0 0 0 29 45
30 20 22 27 50 52 51 51 50 51 50 48 37 33 31 32
33 39 44 46 39 40 40 37 39 36 33 28 34 35 32 34
38 37 15 17 15 2 9 11 16 20 91 96 119 133 127 109
106 126 120 109 86 64 66 87 100 112 119 123 128 127 125 123
124 121 120 118 112 110 108 103 96 78 62 52 80 93 104 115
118 117 102 55 31 31 31 31 30 30 31 30 30 30 30 29
30 30 29 30 31 30 30 30 29 30 30 29 27 15 29 18
0 0 0 0 0 2 42 42 21 0 0 0 0 0 27 45
30 17 23 23 38 41 43 44 45 47 48 49 17 10 8 5
7 10 21 44 40 33 13 15 19 19 20 31 32 12 2 1
6 12 13 15 13 9 9 10 20 18 103 99 122 127 120 118
114 116 122 123 116 105 102 110 112 118 119 123 125 124 124 123
124 123 124 121 118 114 109 105 95 81 66 69 81 92 103 114
117 120 114 81 34 32 31 31 31 31 31 31 32 30 30 30
29 28 28 27 28 30 30 29 29 30 30 29 26 18 29 15
0 0 0 0 0 1 41 43 22 0 0 0 0 0 23 40
27 18 25 21 26 27 27 26 26 26 27 31 11 0 0 0
0 0 3 41 39 16 0 0 1 6 12 32 33 9 0 0
0 6 13 11 12 14 13 8 23 17 108 100 117 118 118 124
80 95 125 131 130 125 119 115 113 113 119 121 122 120 124 124
124 126 126 124 120 117 111 108 101 93 80 79 83 89 101 111
116 116 113 99 56 30 30 29 29 30 31 31 31 27 15 13
11 9 6 7 19 32 31 31 30 30 30 29 27 16 25 12
0 0 0 0 0 1 40 43 23 0 0 0 0 0 23 43
30 17 22 21 33 35 34 33 33 31 31 33 13 4 0 0
0 1 13 41 33 3 0 0 0 0 9 35 33 11 0 0
0 3 12 10 8 12 16 14 24 21 114 101 112 126 122 98
64 107 128 131 130 127 124 118 115 116 118 123 123 124 124 126
123 127 128 127 123 117 113 111 106 99 94 89 88 89 96 104
111 113 111 105 85 26 7 7 10 24 31 31 31 27 6 4
3 3 3 4 17 32 31 31 31 30 30 28 26 3 0 0
13 13 16 20 24 28 42 40 22 0 0 0 0 0 25 47
32 15 22 22 35 37 37 36 36 36 37 36 14 2 0 0
0 1 14 40 27 0 0 0 0 0 5 35 33 11 0 0
0 2 13 8 5 7 19 17 21 21 113 96 118 120 95 102
109 108 126 133 130 127 123 120 118 116 114 119 125 123 125 126
126 127 127 125 124 116 115 113 108 104 101 96 91 87 90 103
116 117 114 111 98 66 7 2 1 17 30 30 30 26 6 3
4 5 4 4 16 31 31 31 31 30 28 3 1 0 0 0
38 39 40 42 42 41 36 26 18 10 9 9 9 9 30 43
31 20 25 26 38 38 39 38 38 38 39 39 15 2 0 0
1 5 3 36 22 0 0 0 0 0 5 35 32 11 0 0
0 0 9 7 12 10 16 18 13 19 109 97 119 108 94 127
121 93 119 133 130 128 124 120 118 118 116 115 122 123 125 125
127 129 129 126 124 119 116 113 111 107 104 100 90 80 75 107
117 122 119 113 102 87 40 2 2 15 30 30 30 24 5 4
4 4 3 4 14 31 31 31 31 31 28 1 0 0 0 0
37 38 38 37 37 37 37 36 36 35 35 35 36 35 36 36
35 35 36 35 35 35 35 34 34 34 35 41 18 0 0 0
1 7 1 34 20 0 0 0 0 0 4 35 30 10 0 0
0 0 3 7 10 10 13 18 8 9 88 104 116 100 102 133
126 98 113 133 133 130 125 120 117 113 114 116 122 124 126 124
124 128 128 126 124 122 119 115 113 110 104 100 89 69 83 108
102 106 113 112 107 95 75 17 0 14 31 31 31 26 5 4
4 4 4 3 12 32 32 32 31 31 30 6 7 20 20 23
37 35 36 35 36 36 36 36 36 36 36 36 35 35 35 35
34 34 34 34 34 33 33 33 32 32 33 39 28 7 0 0
2 6 0 32 19 0 0 0 0 0 3 35 30 14 0 0
0 0 2 10 5 6 11 15 9 6 56 110 110 106 104 133
127 111 111 119 132 129 122 117 114 111 110 114 121 125 128 127
126 129 129 128 125 123 122 118 115 112 104 98 82 57 95 115
112 102 103 109 109 104 90 43 1 16 31 31 31 28 7 6
6 6 7 7 10 29 30 30 29 30 30 8 23 29 29 29
37 36 36 35 36 36 36 35 35 36 35 35 35 35 35 34
34 33 33 33 32 32 32 32 32 32 31 37 26 3 0 0
1 6 2 32 20 0 0 0 0 0 0 33 31 15 0 0
0 0 1 15 5 8 10 9 9 6 27 109 108 119 104 120
122 118 118 110 126 122 119 115 112 108 110 111 117 124 128 126
125 130 129 127 125 124 124 120 116 113 105 94 71 48 101 124
124 116 110 115 118 111 94 53 2 16 32 31 31 29 15 14
13 12 12 12 14 27 32 32 32 31 30 8 29 29 29 28
36 30 28 27 27 26 26 25 25 24 24 24 23 23 23 22
21 21 21 20 21 21 22 22 25 28 30 35 19 0 0 0
0 0 0 31 22 0 0 0 0 0 0 32 32 13 0 0
0 0 0 24 4 8 10 11 10 7 13 78 113 117 120 124
127 127 121 123 121 117 119 115 111 111 110 112 113 122 126 125
126 126 129 128 125 123 124 119 116 112 102 86 61 57 79 99
105 104 107 110 107 102 93 42 2 14 31 32 32 30 10 7
8 6 6 6 9 28 32 31 32 31 20 13 31 31 30 28
34 15 1 0 0 0 0 0 0 0 0 0 0 0 0 0
0 0 0 0 0 0 0 0 15 28 29 31 17 0 0 0
0 1 0 28 28 0 0 0 0 0 0 29 33 17 3 2
1 3 3 29 12 10 9 12 4 9 9 38 105 114 117 123
123 132 128 114 114 113 116 114 110 112 110 110 114 119 120 122
122 125 130 127 125 122 122 118 114 107 96 71 60 76 79 72
66 53 51 61 85 89 64 13 2 13 31 32 32 30 11 6
6 6 6 5 8 26 9 8 9 8 12 30 30 30 29 29
35 20 1 0 0 0 0 0 0 0 0 0 0 0 0 0
0 0 0 0 0 0 0 0 16 31 28 29 19 4 2 2
3 13 6 26 36 16 15 16 19 16 19 35 36 31 34 35
35 37 40 44 23 11 6 10 2 8 9 25 71 107 117 121
123 128 119 118 119 112 112 111 108 108 108 109 113 114 116 119
121 124 124 124 123 122 120 115 111 102 87 59 64 84 87 87
85 61 41 49 54 38 11 4 2 13 31 31 32 29 11 5
6 6 5 5 7 13 23 31 29 28 31 30 30 30 29 28
34 23 3 0 0 0 0 0 0 0 0 0 0 0 0 0
0 0 0 0 0 0 0 0 13 31 27 28 34 37 32 30
33 35 34 35 38 49 46 44 45 47 48 49 40 30 38 39
42 46 50 50 36 13 7 3 5 3 7 26 67 77 95 111
115 121 118 119 113 107 111 109 107 102 104 109 112 113 113 117
117 121 123 123 123 122 118 114 109 96 73 61 78 82 87 88
83 47 13 5 11 4 3 5 1 11 30 31 32 30 11 4
5 5 5 5 6 7 30 32 30 31 30 29 29 29 25 6
34 25 6 0 0 0 0 0 0 0 0 0 0 0 0 0
0 0 0 0 0 0 0 0 9 30 26 25 35 41 35 36
37 35 29 28 30 47 48 46 45 46 49 49 44 28 33 37
40 46 48 47 37 15 6 0 0 2 5 31 66 74 85 78
70 89 104 107 98 104 109 107 106 102 102 109 111 110 116 115
118 118 121 122 120 119 117 113 106 89 63 76 86 82 86 89
80 43 23 0 1 4 3 4 1 9 28 29 31 29 11 3
5 4 5 4 6 7 29 31 30 30 29 29 28 29 20 0
34 26 8 0 0 0 0 0 0 0 0 0 0 0 0 0
0 0 0 0 0 0 0 0 6 28 25 23 32 35 29 33
36 36 29 26 27 28 31 31 30 30 30 29 31 25 25 29
31 31 27 25 29 16 1 0 0 2 10 34 63 73 87 92
86 71 61 58 74 104 107 103 101 102 105 109 111 112 113 113
118 120 121 121 120 118 115 112 101 83 66 91 95 88 93 92
85 55 31 0 1 2 1 4 0 7 27 29 31 28 11 3
4 3 3 4 5 7 27 30 29 28 29 29 28 28 22 0
33 27 10 0 0 0 0 0 0 0 0 0 0 0 0 0
0 0 0 0 0 0 0 0 4 27 24 22 27 22 25 25
28 34 31 27 28 21 21 21 22 22 23 24 28 27 29 32
32 31 28 26 28 18 0 0 0 5 17 42 66 79 94 109
113 111 108 99 93 105 105 99 96 99 102 106 107 111 113 112
117 115 118 120 120 117 115 109 97 80 81 101 93 89 102 101
90 64 44 11 1 1 1 3 0 5 27 27 30 28 11 2
3 3 3 2 4 9 24 30 29 30 29 28 28 27 24 5
33 27 11 0 0 0 0 0 0 0 0 0 0 0 0 0
0 0 0 0 0 0 0 0 2 25 23 21 26 9 9 11
14 16 16 16 27 24 25 24 29 33 32 29 33 35 36 41
41 38 31 29 28 23 2 1 2 9 32 52 68 81 99 116
120 121 119 112 98 105 105 97 96 96 99 103 107 110 113 111
116 116 118 118 116 118 117 111 97 80 96 99 84 95 98 84
60 44 37 7 1 1 0 2 0 5 25 26 29 27 12 2
3 3 2 1 2 10 19 29 29 29 29 28 28 27 27 14
33 29 15 0 0 0 0 0 0 0 0 0 0 0 0 0
0 0 0 0 0 0 0 0 1 24 23 20 25 3 0 0
0 0 2 6 29 29 38 37 39 48 44 23 23 24 26 30
36 42 33 30 29 28 13 0 3 16 41 60 72 78 98 113
117 120 119 113 105 106 104 97 95 96 99 101 103 109 113 111
114 114 119 119 117 117 118 111 100 88 101 85 68 72 53 49
32 22 14 2 2 1 1 2 0 5 25 26 27 26 14 5
8 5 3 6 6 15 11 29 30 30 30 30 29 25 25 35
33 29 16 0 0 0 0 0 0 0 0 0 0 0 0 0
0 0 0 0 0 0 0 0 0 21 23 19 26 6 0 0
0 0 0 8 30 27 37 35 31 41 39 1 0 0 0 1
19 42 34 30 31 30 27 12 9 25 53 72 74 76 95 109
116 119 122 115 110 108 103 98 95 95 98 100 99 104 107 110
113 116 119 120 114 119 116 111 100 95 100 64 40 64 92 97
67 25 7 3 2 1 0 1 0 4 24 25 28 26 25 24
25 22 19 24 23 24 5 27 30 30 29 28 27 16 2 5
33 30 19 0 0 0 0 0 0 0 0 0 0 0 0 0
0 0 0 0 0 0 0 0 0 19 22 18 26 12 0 0
0 0 0 5 30 24 36 26 2 8 32 1 0 0 0 0
13 41 34 30 30 30 30 29 20 34 65 79 74 74 93 106
112 116 122 118 113 109 102 97 92 91 94 98 101 104 105 108
109 112 114 116 118 118 114 109 103 99 91 53 46 64 104 101
74 39 4 2 2 1 1 1 0 4 24 25 27 27 27 26
27 27 26 26 26 25 17 9 20 11 5 4 3 0 0 0
33 30 20 0 0 0 0 0 0 0 0 0 0 0 0 0
0 0 0 0 0 0 0 0 0 16 21 18 17 5 0 0
0 0 0 6 30 23 35 25 0 5 33 2 0 0 0 0
9 39 35 31 31 30 30 30 24 43 72 81 76 72 93 105
110 116 120 119 114 112 105 100 95 90 92 96 99 100 101 107
108 112 115 115 118 117 115 110 106 98 83 71 60 65 68 72
45 38 3 2 2 1 1 2 0 3 25 28 29 29 27 27
28 27 27 27 18 14 10 1 0 0 1 1 0 0 0 0
33 31 20 0 0 0 0 0 0 0 0 0 0 0 0 0
0 0 0 0 0 0 0 0 0 14 21 17 11 0 0 0
0 0 0 7 29 24 36 27 0 4 33 4 0 0 0 0
5 38 35 30 31 30 31 31 27 49 76 86 83 73 90 104
107 114 122 122 119 114 110 106 98 93 92 94 98 98 101 105
109 113 115 116 118 118 115 112 107 98 88 89 88 82 71 62
34 29 5 2 2 2 1 1 0 6 27 29 30 28 28 27
26 26 26 20 0 0 0 0 15 0 0 0 0 0 0 1
33 31 21 1 0 0 0 0 0 0 0 0 0 0 0 0
0 0 0 0 0 0 0 0 0 12 21 17 10 0 0 0
0 0 0 7 29 22 35 25 0 4 31 6 0 0 0 0
3 36 36 30 30 30 31 31 27 55 76 89 83 74 88 103
109 116 122 124 116 113 115 110 104 98 95 95 97 96 98 104
107 113 116 115 115 115 113 110 107 100 92 95 97 98 88 75
63 37 26 8 8 8 4 3 10 18 27 30 30 29 27 27
26 26 26 18 0 0 0 18 63 31 0 0 0 0 0 0
32 30 21 1 0 0 0 0 0 0 0 0 0 0 0 0
0 0 0 0 0 0 0 0 0 11 21 16 11 0 0 0
0 0 0 3 29 22 36 26 0 4 29 8 0 0 0 0
2 35 35 29 30 30 30 31 28 57 79 91 87 73 84 101
109 116 120 121 123 121 119 117 108 103 99 96 95 94 99 101
106 109 112 112 115 113 111 110 108 99 92 98 97 99 97 86
75 51 36 19 19 17 4 2 17 23 29 31 31 29 27 26
26 25 21 12 0 0 0 27 39 38 0 0 0 0 0 0
32 31 21 2 0 0 0 0 0 0 0 0 0 0 0 0
0 0 0 0 0 0 0 0 0 10 21 17 11 0 0 0
0 1 0 2 29 22 35 29 5 4 27 13 3 0 3 1
2 34 36 30 30 30 31 29 31 63 81 89 90 73 82 100
110 116 120 123 122 119 119 116 112 107 103 99 99 96 95 99
103 108 111 112 112 111 111 108 107 95 92 100 96 95 93 87
80 59 32 21 20 18 5 3 19 25 28 30 31 29 27 26
26 24 1 0 0 0 0 0 0 0 0 0 0 0 0 0
32 31 22 2 0 0 0 0 0 0 0 0 0 0 0 0
0 0 0 0 0 0 0 0 0 9 21 17 12 0 0 0
0 4 6 1 30 22 36 28 15 4 26 10 4 8 6 0
1 31 35 29 30 30 31 30 35 69 85 93 90 72 81 97
110 114 120 121 122 121 120 119 112 109 103 102 103 94 94 98
99 105 109 111 112 111 109 108 106 91 89 96 96 92 87 78
63 36 24 22 22 21 7 3 21 25 28 29 29 28 27 27
26 24 2 1 0 0 0 0 0 0 0 0 0 0 0 1
32 31 22 3 0 0 0 0 0 0 0 0 0 0 0 0
0 0 0 0 0 0 0 0 0 8 21 16 13 0 2 1
1 7 12 6 31 25 37 27 20 10 25 9 4 9 5 0
1 27 32 29 30 30 31 35 42 74 88 95 91 73 80 98
108 112 117 121 121 119 119 116 115 109 107 108 105 98 98 95
93 100 103 105 106 105 107 109 103 95 88 93 95 87 80 71
47 27 24 24 24 23 9 2 22 25 27 27 27 27 26 26
26 24 2 0 0 0 0 0 0 0 0 0 0 0 0 0
32 31 23 3 0 0 0 0 0 0 0 0 0 0 0 0
0 0 0 0 0 0 0 0 0 8 21 16 15 18 25 26
27 30 32 33 40 31 37 22 15 18 23 22 19 20 19 19
19 25 26 29 30 30 48 24 40 80 92 98 92 74 77 98
107 110 117 121 119 119 117 112 111 109 108 105 105 102 99 92
89 96 96 100 104 103 106 108 100 97 90 86 94 84 79 66
42 27 26 25 24 24 11 2 23 24 26 26 26 26 26 26
26 25 17 1 0 0 0 0 0 0 0 0 0 0 0 0
32 30 22 4 0 0 0 0 0 0 0 0 0 0 0 0
0 0 0 0 0 0 0 0 0 6 20 16 16 30 35 36
37 38 38 40 44 40 36 21 3 14 22 26 22 23 23 22
22 23 26 29 30 45 65 8 55 85 93 98 94 73 78 96
106 112 116 119 122 116 116 113 108 109 107 107 105 101 98 95
88 90 90 94 99 105 102 102 104 101 100 96 92 85 81 66
38 29 26 26 27 26 13 2 22 25 25 25 26 26 25 25
25 24 14 0 0 0 0 0 0 0 0 0 0 0 0 0
31 30 22 4 0 0 0 0 0 0 0 0 0 0 0 0
0 0 0 0 0 0 0 0 0 6 20 17 17 32 36 35
35 35 35 34 34 34 34 20 0 5 20 27 26 26 27 27
28 28 28 29 38 75 45 12 72 88 98 100 95 74 79 97
106 109 117 118 119 117 117 113 107 106 106 108 106 106 102 97
91 84 81 85 92 96 99 102 103 104 101 100 92 85 80 70
45 31 27 27 28 27 16 1 22 26 26 25 26 25 26 25
24 23 7 0 0 0 0 0 0 0 0 0 0 0 0 0
32 31 22 4 0 0 0 0 0 0 0 0 0 0 0 0
0 0 0 0 0 0 0 0 0 6 20 16 14 10 8 7
6 6 6 7 8 9 29 21 0 3 19 29 27 28 29 28
29 29 29 30 61 72 39 29 82 90 100 104 98 75 80 99
106 112 118 119 119 115 117 114 108 108 104 106 106 105 100 94
89 83 75 72 82 86 88 98 102 104 104 103 98 83 81 69
50 32 28 28 29 28 18 0 21 27 26 25 25 24 25 25
24 24 8 0 0 0 0 0 0 0 0 0 0 0 0 0
31 30 22 5 0 0 0 0 0 0 0 0 0 0 0 0
0 0 0 0 0 0 0 0 0 6 20 16 13 4 0 1
0 1 2 4 5 8 28 23 0 1 16 30 27 28 29 30
30 29 30 36 76 59 31 57 89 96 102 106 99 76 80 99
107 112 117 118 121 119 116 110 110 105 105 107 104 98 103 98
91 88 84 76 75 80 82 88 93 101 101 101 96 82 79 72
50 34 26 27 26 25 18 0 18 26 26 26 25 25 25 25
25 21 0 0 0 0 0 0 0 0 0 0 0 0 0 0
31 30 22 5 0 0 0 0 0 0 0 0 0 0 0 0
0 0 0 0 0 0 0 0 0 5 20 16 13 7 4 3
3 4 4 5 6 8 29 26 11 17 28 30 26 28 28 28
29 28 29 46 76 55 24 82 94 102 109 107 101 77 79 97
107 111 116 119 119 120 114 111 109 104 102 104 100 98 99 97
95 91 92 91 82 73 73 76 87 90 95 94 94 84 77 70
49 34 24 26 26 25 19 0 16 25 25 25 26 25 25 25
25 16 0 0 0 0 0 0 0 0 0 0 0 0 0 0
30 30 22 5 0 0 0 0 0 0 0 0 0 0 0 0
0 0 0 0 0 0 0 0 0 6 21 16 13 10 10 9
8 8 7 8 7 10 31 30 33 42 43 30 26 27 28 28
28 29 30 60 82 43 33 94 101 106 110 109 101 76 78 98
109 112 116 120 118 117 114 113 111 106 102 104 100 98 93 94
90 86 88 86 82 80 72 66 69 76 85 88 87 80 76 61
43 33 20 25 24 24 19 0 12 23 24 25 26 25 25 25
23 5 0 0 0 0 0 0 0 0 0 0 0 0 0 0
30 29 22 6 0 0 0 0 0 0 0 0 0 0 0 0
0 0 0 0 1 2 3 4 5 13 22 16 14 10 9 9
10 10 10 11 9 9 24 22 24 30 29 26 25 27 27 27
28 28 33 69 85 35 41 97 106 109 112 112 101 79 79 98
108 113 119 121 118 114 116 114 112 105 105 109 106 102 97 93
87 82 77 77 78 72 66 62 58 52 53 65 70 68 62 46
37 23 15 23 24 23 19 1 11 23 24 25 25 24 24 24
19 0 0 0 0 0 0 0 0 0 0 0 0 0 0 0
30 29 23 9 2 3 4 5 6 7 7 9 10 10 11 12
13 13 14 13 14 14 14 13 13 14 13 14 13 11 9 9
10 10 10 11 9 11 18 20 17 19 23 24 26 27 28 28
29 29 42 74 94 45 36 98 109 112 114 112 100 79 81 98
109 116 121 120 120 119 117 111 109 108 110 109 107 103 99 98
93 92 88 81 75 70 65 60 55 50 43 38 48 52 50 44
21 10 13 21 23 22 18 1 9 22 23 23 25 24 24 24
18 0 0 0 0 0 0 0 0 0 1 0 0 0 0 0
29 29 28 25 24 24 24 24 24 21 21 19 18 17 17 16
15 15 14 13 14 13 14 13 13 13 13 14 13 11 10 10
9 9 10 10 9 13 18 20 20 20 23 24 25 26 27 27
29 39 54 77 87 68 34 90 109 113 118 114 98 79 83 97
109 114 115 116 115 115 114 111 110 109 112 110 111 105 107 105
102 100 93 87 78 72 64 54 42 34 27 21 24 32 31 22
8 9 8 17 21 22 19 2 7 22 23 23 24 24 24 23
4 0 0 0 0 0 0 0 0 0 0 0 0 0 0 0
28 29 28 27 27 20 24 25 24 22 20 19 18 17 17 16
15 14 14 14 14 14 13 13 13 13 13 13 12 11 10 11
11 10 10 11 10 12 19 20 21 20 23 24 25 27 27 34
55 65 62 76 85 74 41 75 109 115 118 112 98 80 84 100
108 116 116 115 115 112 107 110 107 109 112 110 109 106 107 106
102 95 80 59 31 14 6 8 5 8 15 17 15 14 13 14
10 9 6 14 21 21 19 2 6 22 23 23 23 23 22 21
2 0 0 0 0 0 0 0 0 0 0 0 0 0 0 0
28 29 28 28 27 19 24 25 23 22 20 19 18 17 17 17
16 15 14 13 13 12 11 10 10 9 9 8 10 12 12 12
12 11 11 11 11 13 19 22 22 22 23 24 26 31 54 76
70 61 65 75 88 73 61 60 112 118 116 110 97 83 83 98
109 116 116 114 112 106 108 111 107 111 112 111 113 110 104 101
86 57 21 2 0 1 25 18 4 2 13 29 28 21 16 15
11 7 6 11 21 21 19 14 16 23 24 23 23 23 22 19
2 0 0 0 0 0 0 0 0 0 0 0 0 0 0 0
28 28 28 28 26 24 24 23 21 20 18 15 14 12 11 9
7 5 3 2 1 0 1 5 6 10 11 9 11 11 11 12
12 11 12 11 12 14 19 21 22 23 26 45 64 74 83 82
66 62 66 72 93 81 63 53 101 121 117 108 96 85 83 99
109 117 116 109 110 106 109 112 111 110 111 113 114 110 100 81
50 38 37 17 11 12 63 22 7 14 25 35 36 34 33 31
31 27 21 22 26 21 19 19 19 22 24 23 23 22 24 16
0 0 0 0 0 0 0 0 0 0 0 0 0 0 0 0
11 11 10 8 7 6 4 3 3 3 4 3 2 2 1 3
1 2 2 1 0 0 0 5 7 8 9 10 11 11 11 11
11 11 12 11 12 14 18 21 27 45 72 74 80 80 80 91
69 61 65 69 82 86 68 54 85 121 114 104 97 85 84 99
108 113 113 109 113 113 110 112 111 112 110 110 107 101 86 59
51 54 48 26 29 41 69 25 14 26 32 38 35 37 39 40
38 42 37 29 22 18 17 19 21 19 18 21 23 22 27 12
0 0 0 0 0 0 0 0 0 0 0 0 0 0 0 0
0 0 0 0 0 0 0 0 0 3 16 19 21 21 21 23
23 22 21 18 1 0 0 4 7 8 9 9 10 10 11 10
11 11 11 12 14 16 35 62 75 82 82 81 76 76 82 83
71 69 67 69 83 87 86 60 67 103 110 104 99 87 88 100
110 117 118 114 115 113 115 114 112 110 108 106 101 91 67 53
58 56 50 21 42 57 59 34 30 34 40 39 40 53 57 58
59 63 60 53 37 24 16 19 22 20 19 20 21 19 15 0
0 0 0 0 0 0 0 0 0 0 0 0 0 0 0 0
0 0 0 0 0 1 6 9 11 14 38 39 38 36 34 31
28 26 30 29 9 1 2 5 6 8 9 9 11 11 12 12
12 13 14 21 32 54 81 78 83 86 87 82 77 77 85 76
76 65 64 75 88 90 96 81 58 67 100 105 100 91 90 102
111 118 119 116 115 115 115 114 109 106 104 102 95 76 57 63
62 57 51 22 54 72 50 44 38 36 36 40 48 67 71 64
70 66 65 66 63 56 46 35 26 17 10 7 5 3 6 0
0 0 0 0 0 0 0 0 0 0 0 0 0 0 0 0
0 0 0 0 0 0 4 8 10 11 35 35 33 34 31 30
29 31 39 38 24 8 6 5 5 8 11 13 15 18 17 17
27 45 63 71 81 79 88 80 81 81 88 83 76 81 83 76
69 68 67 70 82 96 95 83 65 52 77 106 103 94 90 101
111 117 120 118 116 115 114 111 108 104 100 91 73 60 66 67
65 65 42 47 77 62 38 37 39 41 42 43 53 67 68 67
67 73 72 62 73 59 61 57 38 11 0 0 0 0 0 0
0 0 0 0 0 0 0 0 0 0 0 0 0 0 0 0
5 4 3 3 4 6 19 27 26 25 31 43 44 43 40 39
37 35 33 30 22 12 13 13 13 13 12 11 12 31 48 63
76 83 76 82 78 79 93 86 87 77 86 82 77 81 84 84
71 73 63 72 80 88 47 13 53 64 57 90 106 98 90 100
112 118 121 118 114 112 110 106 103 97 83 63 61 74 83 85
84 60 55 62 72 55 24 40 40 39 42 44 54 75 68 73
68 68 66 68 68 62 70 69 65 63 40 14 0 0 0 0
0 0 0 0 0 0 0 0 0 0 0 0 0 0 0 0
1 1 2 3 5 10 21 26 23 22 24 33 32 28 25 24
22 20 20 18 13 6 5 4 5 4 11 38 66 76 76 80
77 83 76 76 85 87 83 78 84 90 84 83 78 80 74 83
63 58 64 71 80 54 10 23 53 73 55 62 101 102 90 100
112 119 120 117 112 105 102 97 90 77 74 79 94 107 105 97
71 50 40 6 64 44 18 41 41 41 38 43 55 76 73 75
62 70 70 79 77 72 67 67 64 72 63 64 51 29 3 0
0 0 0 0 0 0 0 0 0 0 0 0 0 0 0 0
13 15 20 23 24 26 26 26 26 25 24 22 21 20 19 19
19 18 18 17 12 3 4 7 24 52 77 80 72 81 82 79
93 83 81 72 82 79 92 88 87 79 87 83 80 78 83 86
72 61 62 72 70 6 9 28 53 69 76 56 77 103 93 102
113 118 120 117 110 98 91 92 91 91 93 102 114 114 108 90
48 69 25 0 53 38 16 37 39 39 39 47 57 72 67 77
78 69 71 75 69 74 74 72 73 71 69 67 63 61 53 30
1 0 0 0 0 0 0 0 0 0 0 0 0 0 0 0
12 14 21 27 27 26 25 23 20 17 13 10 7 5 7 19
19 19 18 17 13 5 28 68 81 79 73 76 75 81 77 81
86 88 79 78 75 79 89 93 91 81 84 76 82 81 84 90
79 59 59 69 58 19 3 22 48 69 79 63 58 84 96 102
112 120 121 116 104 88 92 99 99 100 105 116 119 114 107 72
53 78 32 7 63 33 21 43 43 41 41 51 59 74 79 85
66 73 67 70 64 66 69 73 69 72 67 64 63 58 58 60
46 6 0 0 0 0 0 0 0 0 0 0 0 0 0 0
8 12 21 28 27 17 2 1 0 0 0 0 0 0 3 20
20 19 18 18 17 51 76 73 79 76 76 77 80 81 80 77
79 85 83 81 74 80 88 80 82 84 87 77 82 83 84 84
83 58 69 66 55 29 24 24 54 52 88 70 58 60 92 103
114 121 121 114 98 86 96 102 104 109 120 123 121 115 105 64
63 76 42 14 70 24 31 45 40 40 45 58 62 75 70 70
66 71 65 68 68 69 69 74 73 66 67 68 63 65 64 64
55 50 22 1 0 0 0 0 0 0 0 0 0 0 0 0
8 12 20 27 26 14 0 0 0 1 3 5 7 9 14 19
18 18 18 23 56 71 71 69 75 79 78 82 80 84 82 77
86 88 87 77 79 82 88 81 83 78 79 76 86 85 83 76
89 60 67 69 52 24 32 31 55 63 80 78 66 53 79 103
116 124 122 113 94 83 99 108 114 119 124 124 121 116 98 64
69 83 50 43 50 21 31 42 36 41 44 63 70 74 69 74
70 67 71 68 68 83 76 80 66 76 67 64 73 65 65 64
61 60 51 14 0 0 0 0 0 0 0 0 0 0 0 0
7 11 20 27 27 24 17 20 21 22 22 22 22 21 21 22
23 24 26 62 73 73 74 75 83 84 83 80 83 83 81 82
81 87 85 88 79 78 84 77 82 82 80 86 88 82 81 89
81 69 60 66 61 29 39 46 63 57 61 64 82 57 59 103
118 124 120 110 90 83 108 116 122 125 127 124 121 115 86 72
78 84 41 43 36 25 36 46 39 44 51 65 80 75 79 79
71 64 72 76 72 74 75 81 71 72 73 59 62 59 70 66
64 60 49 45 8 0 0 0 0 0 0 0 0 0 0 0
9 13 19 27 27 27 27 28 28 29 29 29 28 29 30 28
26 30 56 73 70 77 79 73 86 82 82 86 89 82 85 87
85 92 87 87 92 80 82 80 84 84 81 86 81 85 84 90
97 86 55 59 76 40 34 63 79 70 74 58 66 65 46 96
119 124 119 106 84 89 115 122 127 130 127 124 120 100 77 81
85 53 43 41 34 33 48 54 49 61 68 75 70 78 80 74
71 67 76 72 77 73 76 72 76 73 83 87 73 72 71 72
66 65 52 52 45 4 0 0 0 0 0 0 0 0 0 0
11 21 28 32 31 31 31 32 32 29 26 25 24 23 25 27
25 58 78 75 76 78 80 69 78 83 81 89 77 85 90 84
79 83 92 79 85 82 83 78 82 83 87 88 85 90 82 86
82 77 69 60 75 60 30 73 69 68 75 63 79 60 44 86
115 123 118 104 83 95 120 127 132 130 127 122 112 82 79 82
65 33 34 36 30 38 52 65 60 67 66 79 78 78 82 73
70 69 71 74 70 73 79 84 87 83 73 74 75 64 76 75
66 68 55 50 47 23 0 0 0 0 0 0 0 0 0 0
25 34 29 27 26 26 25 26 31 28 28 30 31 31 32 32
41 71 85 83 86 77 84 72 80 89 95 97 96 90 87 79
78 81 88 84 87 77 83 85 88 89 86 83 85 85 86 77
91 87 86 67 56 73 43 71 72 74 66 65 79 58 49 87
114 126 120 102 82 103 125 131 132 131 124 109 89 79 82 66
38 48 38 32 39 50 76 73 58 66 71 71 71 76 74 74
64 83 85 74 85 78 76 77 70 83 83 75 73 82 72 74
68 74 63 59 56 46 27 0 0 0 0 0 0 0 0 0
18 32 30 29 30 32 33 34 34 35 36 35 35 35 34 37
65 77 85 84 83 82 87 68 77 81 82 78 80 81 75 88
90 87 83 86 85 97 89 86 82 85 88 87 84 83 83 82
89 88 88 79 64 68 67 59 85 71 80 63 67 63 76 86
119 127 120 101 82 110 127 131 130 126 104 81 86 79 49 32
41 45 40 39 59 76 71 70 55 64 66 70 79 84 79 73
70 76 66 75 77 84 83 87 84 75 77 78 68 72 83 80
70 63 69 56 62 53 61 18 0 0 0 0 0 0 0 0
9 20 32 35 35 36 37 37 37 37 38 39 37 38 39 56
77 78 87 83 86 80 79 76 79 90 89 95 91 94 95 90
81 79 89 81 86 83 88 80 87 85 84 81 86 90 90 82
89 88 88 80 86 65 69 64 85 68 85 71 63 64 76 86
104 128 121 99 85 114 127 130 125 106 81 77 59 33 37 25
52 40 48 65 71 74 82 71 62 67 72 70 68 78 79 68
68 84 73 78 81 80 72 74 80 81 85 84 75 79 76 69
68 57 69 69 69 57 58 46 1 0 0 0 0 0 0 0
14 21 28 33 33 35 40 42 38 41 39 40 37 38 48 65
79 87 84 90 82 81 80 77 70 78 75 83 82 82 86 75
92 89 85 92 85 91 81 85 84 85 85 85 87 90 92 88
92 87 88 89 84 87 56 71 86 90 74 89 73 61 72 85
87 116 120 97 91 116 125 126 107 85 73 65 35 35 47 52
48 57 85 77 77 75 82 71 63 58 70 74 76 79 74 69
71 82 73 86 78 82 80 81 83 79 83 86 69 81 78 79
73 52 65 70 65 62 54 64 24 0 0 0 0 0 0 0
29 35 36 37 32 30 34 36 36 39 39 38 37 40 69 73
78 81 87 82 86 77 78 83 76 80 91 84 90 92 81 84
80 80 86 86 85 90 91 75 86 85 84 83 89 92 91 91
87 88 84 87 91 94 77 75 81 82 82 79 89 77 59 74
86 85 114 98 98 119 126 112 91 83 75 50 39 52 66 68
42 91 72 77 76 76 81 77 59 65 65 71 73 79 75 70
76 82 77 87 77 85 83 81 87 77 80 80 68 81 81 75
78 51 63 69 73 60 52 59 56 1 0 0 0 0 0 0
27 35 38 40 40 25 28 32 28 23 18 13 9 51 66 79
73 73 90 83 87 80 85 78 78 78 79 94 88 89 87 84
93 85 90 83 86 89 88 91 78 88 84 84 88 86 92 87
89 83 89 76 93 95 86 81 89 91 80 81 77 88 74 63
79 79 87 99 104 123 119 86 82 72 51 45 50 62 70 68
62 78 79 75 74 83 85 75 63 66 65 76 77 79 78 77
84 82 73 87 78 86 81 83 90 80 77 79 73 83 75 75
65 53 62 74 69 66 50 63 66 15 0 0 0 0 0 0
36 36 34 28 16 4 2 3 1 0 0 0 12 75 62 79
71 73 85 84 88 75 81 84 82 73 89 87 94 89 89 83
94 84 91 82 85 92 90 91 91 90 90 84 87 82 91 78
83 91 98 83 85 88 78 71 78 86 88 93 90 75 82 75
72 75 78 84 111 120 90 77 69 50 46 48 65 82 65 74
68 83 83 66 75 81 81 75 67 76 68 69 77 76 76 65
85 80 79 85 81 86 75 79 86 80 80 85 69 80 78 72
69 55 67 75 73 66 49 54 56 40 0 0 0 0 0 0
11 10 6 3 2 1 0 0 0 0 0 0 50 71 63 80
67 67 89 87 83 74 88 78 80 78 81 94 89 95 86 88
92 86 90 90 89 91 88 89 94 88 86 86 89 93 83 84
92 93 84 89 87 100 89 101 80 83 85 79 88 98 92 82
83 78 72 80 97 96 77 56 49 59 56 76 80 91 72 79
87 78 82 71 72 76 77 73 64 75 74 72 84 74 84 65
75 75 83 79 81 84 75 80 87 82 71 79 74 81 74 74
61 60 76 84 78 70 50 58 49 58 7 0 0 0 0 0
0 0 0 0 0 0 0 0 0 0 0 8 79 66 59 81
63 72 85 86 83 71 74 82 79 74 83 88 90 86 89 84
86 87 84 88 84 85 87 81 83 89 94 85 93 84 95 87
84 86 79 96 88 108 86 93 86 97 90 93 82 80 87 75
82 91 67 64 75 78 56 42 52 72 70 82 86 86 77 87
84 81 73 72 86 83 83 70 76 70 67 69 79 79 71 79
77 68 80 73 75 84 86 92 95 77 84 79 75 73 78 85
56 61 78 83 84 71 52 59 55 58 24 0 0 0 0 0
0 0 0 0 0 0 0 0 0 0 0 45 79 69 63 83
59 69 90 86 85 74 90 82 81 83 79 81 82 86 76 81
87 90 82 87 80 90 77 90 97 94 86 91 84 92 96 76
81 94 96 98 90 92 81 86 92 87 89 86 88 87 93 88
82 78 88 62 52 51 57 57 74 70 87 80 78 77 81 75
74 78 76 73 82 95 87 88 75 77 76 74 66 73 76 77
72 70 89 81 85 85 76 80 78 85 84 77 83 83 76 67
50 71 78 83 80 70 48 59 47 61 33 6 0 0 0 0
0 0 0 0 0 0 0 0 0 0 7 80 76 72 59 81
56 68 86 86 85 64 81 86 80 77 89 100 95 94 94 79
80 87 84 87 93 82 88 91 86 84 85 84 94 86 87 85
90 88 90 73 91 86 101 81 90 91 94 93 90 98 91 86
84 84 76 61 51 52 76 77 76 86 77 77 82 78 81 86
87 72 80 73 78 79 78 71 87 80 77 73 74 71 75 91
81 66 84 91 83 76 79 90 84 77 84 66 85 75 71 78
54 77 85 78 77 65 48 50 48 64 38 26 0 0 0 0
0 0 0 0 0 0 0 0 0 0 32 83 77 71 57 78
53 68 80 90 81 67 84 78 87 80 82 78 83 89 95 87
96 93 91 86 78 89 76 81 90 90 78 87 84 90 98 82
94 91 97 75 103 83 98 84 79 86 87 94 87 90 90 100
91 76 71 40 49 76 85 92 69 82 79 84 85 78 78 86
76 74 71 81 84 88 88 88 76 73 86 83 81 86 80 77
67 70 71 77 78 85 85 85 73 78 90 63 72 76 80 75
54 79 79 80 78 63 55 42 51 59 37 45 5 0 0 0
0 0 0 0 0 0 0 0 0 0 59 77 71 69 59 81
55 62 87 85 90 68 76 80 74 81 88 96 91 96 78 80
85 86 83 89 83 84 82 87 83 83 88 90 92 86 96 79
89 87 98 74 98 87 92 89 81 92 87 93 94 100 88 96
93 72 58 47 80 81 92 89 72 80 79 80 83 81 83 88
80 74 79 76 83 80 83 69 98 76 78 78 79 77 79 75
67 64 74 85 79 79 74 72 81 77 88 63 76 78 82 78
61 81 80 74 62 70 59 43 68 62 39 55 21 0 0 0
0 0 0 0 0 0 0 0 0 12 82 84 72 70 57 79
58 54 87 82 79 74 86 78 82 73 81 87 89 87 85 92
88 91 82 82 88 91 86 83 83 85 86 88 92 89 92 82
91 83 90 74 103 86 97 84 89 87 96 88 82 86 96 94
85 66 53 71 66 83 91 92 73 85 88 84 89 78 76 86
79 78 74 81 83 85 82 98 77 82 78 77 79 83 83 76
68 74 82 79 79 79 80 75 87 77 81 74 79 81 77 70
65 81 77 64 70 69 51 44 72 53 39 62 36 0 0 0
