P2
128 120
143
0 3 10 5 0 0 0 27 48 40 35 35 35 35 35 34
35 34 34 34 33 33 33 32 32 32 32 31 31 30 30 30
30 29 29 29 29 28 28 28 27 27 27 26 26 25 25 25
24 24 23 23 22 22 22 21 20 20 20 21 22 24 26 26
26 25 18 16 22 14 23 22 22 21 20 20 21 20 19 19
18 13 19 17 21 21 22 22 21 22 21 21 22 21 21 21
22 22 22 23 23 23 24 23 23 23 23 24 24 24 24 25
24 25 25 25 25 26 27 26 26 27 27 26 26 26 26 26
0 5 8 3 0 0 0 26 47 40 35 35 35 35 34 34
34 34 34 33 33 33 33 32 32 32 31 31 31 31 30 29
29 29 29 28 28 28 28 28 27 27 27 26 26 25 25 25
24 23 23 23 23 22 22 22 21 21 21 21 22 24 27 27
26 25 18 16 23 15 23 22 22 21 21 20 21 20 18 19
18 14 20 18 21 21 21 22 21 22 22 22 22 22 22 22
22 22 22 22 22 23 23 23 23 24 24 24 24 24 24 24
25 25 26 25 26 26 26 26 25 26 26 25 25 25 25 26
0 0 3 1 0 0 0 26 47 39 34 35 34 34 34 35
35 34 34 33 33 33 33 32 32 32 31 31 31 30 30 30
29 29 29 29 28 28 28 28 27 27 27 26 26 25 26 25
25 24 24 23 23 22 22 22 22 21 21 22 22 24 27 26
26 26 19 17 24 15 24 23 22 21 21 21 21 21 19 19
19 15 20 19 21 21 22 22 22 23 22 22 22 22 22 22
23 22 22 23 23 23 24 24 24 24 24 24 24 25 24 24
25 25 25 26 25 25 25 25 25 25 25 26 27 27 26 26
0 0 0 6 5 0 0 27 47 40 35 35 35 35 35 34
35 34 34 33 34 33 33 32 32 32 31 31 31 31 31 31
30 30 29 29 29 29 29 28 28 28 28 27 27 26 26 26
25 24 24 23 24 23 23 22 22 22 21 22 23 25 28 27
27 27 20 17 25 16 23 22 23 21 21 20 21 21 20 20
19 16 21 19 22 22 22 22 22 22 22 23 23 23 23 23
23 23 23 23 24 24 24 24 24 25 24 24 25 25 26 25
25 25 25 25 26 25 27 27 27 27 27 27 27 27 27 27
0 0 1 6 6 0 0 27 47 39 35 35 34 34 35 35
34 34 34 34 34 33 33 32 32 31 32 31 31 30 31 30
30 30 30 30 29 29 29 28 28 28 28 27 27 26 26 25
25 25 25 24 24 23 23 23 22 22 22 22 23 25 28 27
27 27 19 17 26 18 23 22 23 23 22 22 21 22 20 20
19 16 21 19 22 22 22 22 23 23 22 23 23 23 22 23
23 23 24 24 24 24 25 24 25 25 25 25 24 24 25 25
25 26 26 27 26 27 27 27 27 27 27 28 27 27 27 27
0 0 1 0 3 2 0 26 46 39 35 35 35 35 34 35
35 35 33 33 33 32 33 32 32 32 32 31 32 31 31 31
30 29 30 30 29 29 28 28 27 27 27 27 26 26 26 25
25 25 25 24 24 23 23 23 22 22 22 23 24 26 28 29
28 27 20 17 26 19 21 24 24 23 22 21 20 22 20 20
20 16 21 19 23 23 23 23 23 24 23 24 24 24 23 24
24 24 24 24 25 24 24 24 24 23 24 25 24 25 25 25
26 26 26 27 27 27 27 27 27 27 27 27 27 27 27 27
13 7 2 0 3 4 10 31 47 39 34 34 35 34 34 34
34 34 34 33 34 33 32 33 32 32 31 31 31 31 31 30
31 30 29 30 29 29 29 29 28 28 28 28 27 27 26 25
25 25 25 24 24 23 23 23 23 23 23 23 24 25 29 28
28 27 20 17 26 22 20 24 23 23 23 22 20 22 20 20
20 17 21 19 22 23 23 23 24 24 23 24 24 23 24 25
24 25 24 24 24 24 25 24 25 25 25 25 25 25 25 25
26 27 26 26 27 27 27 26 27 27 27 27 26 28 27 27
33 34 34 30 24 18 17 35 45 38 35 35 35 35 35 34
34 34 33 33 33 33 33 32 32 32 32 31 32 31 31 31
31 30 30 30 30 29 29 29 29 28 28 27 27 27 26 26
26 26 25 25 24 24 23 23 23 23 23 23 24 26 29 29
28 27 20 17 26 24 18 25 24 23 23 22 21 21 21 21
21 18 21 19 23 24 24 24 24 24 24 25 25 24 24 24
24 23 24 24 24 25 24 25 25 25 24 26 26 26 26 26
26 28 27 27 27 27 27 27 27 27 27 26 26 26 27 27
24 26 28 30 33 36 38 39 39 36 35 35 35 35 34 34
34 34 34 34 33 34 33 33 32 32 32 32 31 31 31 31
30 30 30 29 29 29 29 29 29 28 28 28 28 27 27 26
26 26 26 26 25 24 24 24 23 23 24 23 24 26 29 28
28 28 21 18 26 26 18 25 25 24 23 23 22 22 21 21
21 18 21 20 23 24 24 24 24 24 23 24 24 23 24 24
24 25 25 24 25 25 25 25 25 25 25 25 26 26 26 27
26 27 27 27 27 27 27 27 27 27 27 27 26 27 27 27
15 18 20 24 27 30 31 32 35 36 35 35 35 34 34 34
34 33 33 33 34 33 33 32 32 32 32 32 31 32 31 31
31 30 30 30 29 30 29 29 28 28 28 27 27 28 27 27
26 26 26 25 25 24 24 24 24 23 23 24 24 26 30 29
29 28 22 18 26 28 17 25 24 24 23 22 22 22 21 21
21 19 21 21 24 24 24 24 24 24 23 23 24 24 24 24
24 25 24 24 25 25 25 25 25 26 26 26 26 26 27 26
26 27 27 27 27 27 27 27 27 27 27 27 27 26 27 27
12 12 11 12 12 15 19 23 29 33 35 36 37 35 35 35
35 34 34 34 33 33 33 33 32 32 32 32 31 31 31 31
31 31 31 30 30 30 30 29 29 29 29 28 28 28 27 27
26 26 26 25 25 25 25 24 24 24 24 25 25 26 30 31
30 29 24 19 26 29 18 25 25 25 24 24 23 22 22 22
21 19 21 20 23 24 24 24 24 25 25 24 25 25 25 25
25 26 25 25 26 26 25 25 26 26 26 26 27 27 26 27
27 27 27 27 27 28 28 27 27 27 27 27 27 27 27 27
12 12 12 12 12 11 11 13 13 13 16 19 23 28 32 34
35 35 34 33 32 33 33 33 32 32 32 32 32 31 30 31
30 30 30 30 30 29 29 29 29 29 28 28 28 27 27 27
26 26 26 26 26 25 25 24 24 24 24 25 25 26 29 29
29 30 24 18 27 30 18 24 25 25 24 23 24 24 21 22
22 19 21 21 25 25 24 25 24 25 25 24 25 24 25 25
25 26 25 25 26 25 25 26 26 26 27 27 27 27 28 27
27 27 27 27 27 27 28 27 27 26 27 27 28 27 27 27
17 14 13 12 13 12 12 12 12 12 13 12 11 13 13 16
20 24 28 32 33 33 33 32 33 33 33 32 32 32 31 31
31 31 31 31 30 30 30 29 29 29 29 29 28 27 27 28
27 26 26 26 26 25 25 25 24 24 24 25 26 26 30 30
30 30 24 19 27 31 21 25 26 25 25 24 23 22 22 23
22 21 21 22 25 25 25 25 25 25 25 25 26 25 26 26
26 26 25 25 26 26 26 26 26 26 26 27 27 27 27 27
28 28 28 27 28 28 28 28 27 27 28 28 26 25 25 25
44 40 39 39 36 31 27 19 13 14 13 12 12 12 13 12
4 6 14 31 34 33 33 33 33 33 32 32 32 32 31 31
31 31 31 30 30 30 30 30 29 29 29 28 28 28 28 28
27 27 26 26 26 26 25 25 25 24 24 25 26 27 30 30
30 29 24 19 26 31 22 23 26 26 25 24 24 24 23 23
23 21 21 23 25 25 26 25 25 25 26 25 26 25 26 26
26 27 27 26 26 26 26 27 27 27 27 27 28 27 27 28
27 28 28 27 27 27 28 28 26 26 27 26 26 28 29 28
50 46 41 50 49 47 45 32 22 26 22 17 12 11 12 13
10 9 14 31 34 33 33 33 33 32 31 32 33 32 32 31
31 31 32 31 30 30 30 30 30 30 29 29 29 29 28 28
28 28 27 26 26 26 26 25 24 25 25 25 25 26 29 29
30 30 25 19 26 32 24 22 26 25 26 25 24 24 23 23
23 21 20 23 25 25 26 25 26 26 26 27 27 26 26 26
26 26 27 27 26 27 27 26 27 27 27 28 28 28 28 27
27 28 28 28 27 27 27 28 28 27 28 27 27 27 28 28
48 42 44 44 48 49 47 34 29 35 39 38 33 31 25 17
10 11 12 30 34 34 33 33 32 31 33 33 33 33 32 31
31 31 31 30 30 30 30 30 29 29 29 29 37 37 34 30
29 27 27 27 27 26 26 26 24 23 25 25 25 26 28 25
28 29 25 18 26 32 26 19 27 26 26 25 25 24 24 23
23 22 20 24 25 25 26 26 26 25 26 26 26 26 26 26
27 27 27 27 27 27 27 26 27 27 27 28 26 27 27 27
26 27 26 26 27 26 27 26 27 27 28 28 27 27 27 27
32 27 37 40 46 48 48 37 35 38 41 39 36 45 44 43
21 11 15 30 34 33 33 33 32 35 44 41 40 38 35 33
32 30 31 31 31 30 30 30 29 29 29 30 42 41 38 36
35 33 28 27 26 26 22 23 19 17 13 14 19 22 26 25
24 29 26 18 26 32 28 17 26 26 26 25 24 25 23 23
23 22 21 24 25 26 25 25 26 26 27 26 27 27 27 27
27 27 27 27 27 26 26 26 27 27 27 27 27 27 27 27
26 27 28 27 27 27 27 27 26 26 27 28 27 27 27 27
14 0 1 4 9 15 32 40 38 40 43 43 44 47 47 47
26 11 16 33 35 34 34 33 33 35 45 43 41 39 38 37
38 36 33 32 31 30 30 29 30 30 30 31 41 40 37 37
36 34 26 15 16 18 21 24 18 13 7 2 2 5 11 12
9 18 23 19 24 31 29 16 27 27 26 25 25 25 23 23
24 23 21 24 26 26 27 26 26 27 27 27 26 27 27 27
27 27 26 26 26 27 27 27 27 28 28 26 28 28 27 27
27 27 27 27 27 27 27 28 27 27 27 28 27 27 27 27
0 0 0 0 5 1 20 41 39 41 43 44 45 47 47 48
31 12 17 36 37 36 35 35 33 35 45 44 42 40 40 42
43 41 37 39 37 34 32 30 31 31 30 31 34 31 31 28
27 24 21 19 20 19 20 17 18 17 14 8 1 0 0 0
1 4 12 15 14 21 31 16 26 27 26 26 25 26 24 24
24 24 21 25 26 27 27 27 27 27 28 27 27 27 27 26
27 27 27 28 28 28 27 27 27 28 28 27 28 27 28 28
28 28 28 27 27 27 27 26 27 27 27 28 27 27 27 27
0 0 0 5 15 4 22 40 34 39 38 43 45 45 46 46
32 12 17 37 40 35 38 37 37 37 29 22 33 39 41 44
44 41 28 25 35 37 38 36 36 35 28 15 15 26 30 27
27 32 22 22 18 12 11 6 4 5 9 17 13 1 0 0
0 2 2 12 10 23 30 16 25 27 26 26 26 27 24 24
24 24 21 25 26 28 27 27 27 27 27 27 27 27 27 28
27 27 27 27 27 27 27 27 27 28 29 27 28 27 27 27
28 27 27 28 28 27 27 28 27 27 28 29 28 28 28 28
0 0 0 7 16 10 23 37 4 7 17 26 37 41 42 43
32 13 16 36 39 31 29 34 41 44 20 0 0 14 24 26
31 40 15 0 1 5 15 20 23 14 4 13 24 24 27 24
30 27 21 14 17 9 3 1 2 3 1 6 9 8 0 0
0 0 2 11 15 27 29 17 25 27 27 25 26 27 25 25
25 24 21 26 26 27 27 27 28 27 28 28 28 28 28 28
28 27 28 28 28 27 28 28 27 28 29 27 28 27 27 28
28 27 28 28 27 27 28 27 27 27 27 28 28 27 27 27
1 0 0 2 5 2 23 37 1 0 0 2 1 6 6 24
35 14 17 30 38 40 40 37 43 47 22 0 0 5 11 12
11 32 14 0 0 0 0 0 0 0 3 19 24 27 43 34
25 18 13 12 12 5 0 3 4 4 6 4 7 6 4 0
0 0 0 5 8 16 27 20 23 29 28 26 26 27 26 26
25 24 21 26 26 27 28 28 28 28 29 28 28 29 28 28
28 28 29 28 28 29 28 28 28 28 30 29 28 28 28 28
28 28 28 28 28 28 27 28 28 28 29 28 29 28 28 27
0 0 0 1 0 0 23 37 0 0 0 0 0 0 0 14
35 14 14 1 3 11 21 33 41 45 25 0 0 3 5 10
9 31 18 0 0 0 1 2 0 0 3 16 30 36 36 30
18 17 14 7 1 0 0 0 0 0 0 0 0 3 0 0
0 0 0 0 2 4 15 18 21 28 28 27 27 28 26 26
26 25 22 28 27 30 29 29 29 29 30 28 28 29 28 28
28 28 28 29 28 28 29 29 29 28 30 29 29 28 29 29
28 29 29 28 29 28 28 28 28 28 29 29 29 28 27 28
0 3 0 11 0 0 23 36 0 1 0 4 0 0 0 15
36 13 13 0 0 0 0 0 3 10 22 0 0 0 1 1
4 27 18 0 0 1 2 9 12 3 4 21 27 21 19 7
10 14 12 5 0 0 0 0 0 0 0 0 0 0 0 0
0 0 0 0 1 1 8 11 14 26 27 27 27 27 26 26
26 26 22 28 27 29 29 29 28 29 30 29 29 29 29 28
29 29 29 29 29 29 29 29 29 28 30 29 29 29 28 29
29 29 30 29 29 29 29 29 29 28 29 29 29 28 28 29
1 17 12 22 1 0 24 35 0 2 0 17 4 0 0 15
36 14 13 0 0 0 0 0 0 0 17 0 0 0 0 0
3 27 17 0 5 7 10 15 22 13 8 13 16 12 8 7
8 5 13 3 0 0 0 0 0 0 0 0 0 0 0 0
0 0 1 0 0 1 2 8 10 13 21 26 28 28 26 27
27 26 22 28 27 30 30 29 29 29 29 29 29 29 29 29
29 29 30 30 29 30 30 30 30 30 30 28 30 30 30 30
30 29 29 29 30 29 29 29 29 30 29 29 27 29 30 30
1 0 0 3 1 0 24 36 0 2 0 9 16 0 0 15
35 14 13 0 0 0 0 0 0 0 15 0 0 0 0 0
2 31 17 11 15 13 11 9 9 6 5 13 14 10 5 2
4 6 2 0 0 0 0 1 0 0 0 0 0 0 0 0
1 2 2 0 0 2 3 6 14 11 15 22 27 28 27 27
27 26 22 28 26 30 31 30 30 30 30 29 29 30 30 30
30 30 29 30 30 30 30 29 30 30 30 29 30 30 30 30
31 31 30 30 30 29 29 29 29 28 29 30 30 30 30 29
0 5 8 2 0 0 23 34 0 1 0 2 2 0 0 16
35 13 14 0 0 0 3 3 0 0 13 0 0 0 0 0
0 4 1 10 12 5 2 0 1 6 9 11 19 22 21 11
5 4 0 4 0 0 0 1 0 0 0 1 0 2 1 0
1 1 0 0 0 0 0 4 12 16 10 17 22 27 28 27
27 26 22 29 27 31 31 30 29 29 29 29 29 29 29 29
29 29 30 29 30 30 30 30 31 30 31 30 30 30 30 30
30 30 30 30 30 30 30 30 30 29 29 30 30 29 29 29
0 0 5 1 0 0 23 31 0 0 1 0 1 0 0 16
34 14 13 0 2 3 5 7 0 0 12 0 1 0 0 0
0 0 2 4 1 0 0 0 10 25 37 44 54 47 26 12
9 6 1 6 3 0 0 0 0 0 0 1 0 5 12 9
5 1 1 1 0 0 0 3 12 17 10 11 18 25 28 26
27 26 22 29 27 30 30 30 29 30 30 30 30 29 30 30
30 30 30 30 29 29 30 29 30 29 29 29 29 29 29 30
30 30 30 30 30 30 30 29 29 29 29 29 29 28 29 29
28 23 17 12 6 3 25 31 0 0 5 0 0 0 0 17
34 14 14 1 10 3 3 1 0 0 13 0 0 0 0 0
0 0 2 2 2 2 3 22 52 77 83 84 74 42 23 18
11 7 3 1 1 2 1 1 1 0 0 0 0 8 15 15
13 7 7 6 0 0 0 0 4 15 20 9 13 21 28 27
26 26 23 29 26 30 29 29 29 30 30 29 29 29 29 29
30 30 30 30 30 30 29 30 30 30 30 30 29 29 29 29
30 29 30 30 30 29 30 29 29 29 29 29 29 29 29 29
38 39 48 48 46 44 38 42 20 10 12 13 9 5 3 20
33 14 14 2 5 0 0 1 0 0 16 0 0 0 0 0
0 2 3 4 7 7 39 72 89 93 95 90 67 34 27 25
13 10 3 2 3 1 2 0 0 0 1 0 4 7 25 14
6 3 5 8 0 0 0 0 0 1 11 15 12 16 25 27
26 26 23 29 26 30 29 29 30 30 30 29 30 30 29 30
30 30 30 30 31 30 30 30 30 29 29 29 29 31 30 31
31 30 31 30 30 30 29 30 29 29 29 28 29 28 28 28
8 18 21 23 27 37 40 58 53 28 34 36 41 39 36 36
28 14 14 1 0 0 0 0 0 0 31 38 27 20 16 3
5 2 0 0 6 48 78 93 101 102 100 94 51 32 38 31
23 16 3 3 2 2 0 0 0 0 2 0 2 10 17 8
2 2 4 7 0 0 0 0 0 0 0 9 7 8 19 26
26 25 23 29 26 30 30 29 29 28 29 30 29 30 30 30
30 30 31 29 30 29 30 30 30 29 29 29 30 30 30 30
30 30 30 30 29 29 28 27 27 28 27 27 26 26 27 28
6 15 12 9 0 13 56 61 46 27 36 44 47 46 46 45
29 14 14 1 0 0 0 0 0 0 34 52 40 42 31 4
2 0 0 1 42 72 91 100 101 105 105 97 48 35 60 39
31 13 4 3 0 0 0 0 0 0 0 0 1 10 8 6
0 1 5 5 1 0 0 1 4 3 0 1 5 4 13 25
26 25 23 29 26 30 29 29 30 30 30 29 30 29 29 29
29 29 31 30 29 30 29 29 29 30 29 29 29 30 30 29
29 29 29 30 27 28 28 28 27 28 27 25 22 19 16 13
2 2 1 2 0 15 55 56 38 30 39 44 46 45 49 47
30 14 15 6 1 0 0 0 0 0 35 48 38 44 15 1
0 0 0 20 63 84 99 105 105 106 107 102 52 58 61 39
20 11 4 3 0 0 0 0 0 0 0 1 0 2 6 6
2 1 8 8 2 2 5 7 13 19 8 2 3 4 8 20
27 26 23 28 26 30 30 30 30 30 30 30 30 30 31 29
28 29 31 29 29 29 30 30 31 29 30 29 29 30 30 30
30 30 30 29 26 25 29 21 15 12 11 10 9 9 9 10
2 1 0 0 0 14 53 49 18 9 19 26 29 34 38 44
30 15 17 33 39 31 22 14 8 3 34 35 38 36 9 3
0 0 1 47 74 94 103 108 108 109 112 105 64 70 55 33
17 15 5 6 4 1 0 0 0 1 0 2 1 3 6 5
2 0 6 6 4 4 4 9 9 18 16 6 3 1 4 14
26 26 24 28 26 30 30 29 30 30 29 29 29 28 29 29
28 28 30 29 29 29 30 29 30 31 31 31 30 28 26 23
20 17 14 12 11 11 29 20 6 10 12 14 13 15 15 15
0 0 0 0 0 12 53 50 15 0 0 0 0 0 0 20
32 15 18 36 48 47 46 44 44 43 46 29 34 27 2 0
0 0 21 64 86 99 105 108 110 115 118 111 80 68 53 35
20 12 5 5 10 11 2 2 2 1 2 2 2 4 3 4
3 7 12 8 0 4 0 0 2 4 11 9 5 0 1 13
26 26 23 27 26 29 29 29 29 29 29 29 29 29 29 28
27 28 30 30 30 30 29 28 26 23 20 17 15 13 12 12
13 13 13 15 15 14 20 15 11 16 19 20 21 21 22 22
7 0 0 0 0 10 52 51 13 0 0 0 0 0 0 17
32 15 17 36 49 49 47 47 47 48 47 9 3 4 0 0
0 3 52 77 94 103 107 110 112 114 117 111 95 75 56 34
23 14 10 13 5 4 5 6 9 6 5 5 4 3 1 2
5 4 18 7 1 1 0 0 0 5 2 4 5 3 0 11
26 26 25 28 26 29 30 29 28 28 26 26 25 22 23 29
29 27 26 23 20 18 16 14 14 14 14 15 16 17 17 18
19 19 19 21 21 20 26 22 15 22 23 24 24 25 25 26
15 0 0 0 0 6 49 49 11 0 0 0 1 11 10 19
33 17 16 31 42 44 44 46 48 49 44 5 0 0 0 0
0 21 66 88 98 104 109 111 115 118 117 115 106 98 65 42
26 12 17 17 10 6 8 7 10 7 9 8 8 3 0 4
1 10 6 9 0 1 1 0 0 0 1 0 0 2 1 2
22 25 24 24 24 25 25 25 26 27 26 26 25 15 14 18
16 15 15 15 15 16 17 18 19 19 20 21 21 22 23 24
25 25 25 26 25 23 20 19 18 25 25 25 26 27 27 28
9 0 0 0 0 5 44 44 8 0 0 0 3 27 27 24
30 27 24 28 31 33 34 34 35 42 41 3 0 0 0 0
0 48 80 92 101 107 112 114 117 119 121 113 106 100 65 46
31 18 19 23 12 12 13 13 14 8 11 18 9 7 0 6
4 14 5 7 0 0 2 10 4 0 0 0 0 3 3 0
11 20 21 23 26 26 24 22 20 18 17 15 15 13 14 17
18 19 20 21 22 23 24 24 25 25 25 25 26 26 27 27
27 27 27 27 26 22 3 2 15 26 28 29 28 28 27 27
11 1 0 0 0 6 43 43 7 0 0 0 2 25 26 23
27 21 19 22 19 22 30 30 29 42 42 3 0 0 0 0
11 65 88 97 104 110 115 118 125 125 125 113 104 99 67 46
30 25 24 22 19 20 15 11 13 15 5 15 11 3 3 3
5 11 9 3 6 0 0 3 16 6 0 0 0 0 1 1
9 14 11 16 15 16 14 16 17 18 18 19 20 21 21 22
24 25 26 26 27 27 27 27 28 28 28 28 28 28 29 28
28 29 29 28 27 21 2 1 10 26 29 29 29 29 28 29
0 0 0 0 0 8 45 44 6 0 1 0 0 6 8 14
23 20 21 22 25 26 29 30 33 41 41 3 0 0 0 0
32 76 93 102 108 114 120 125 130 129 124 109 102 97 65 51
33 30 24 22 24 22 15 9 12 18 9 12 20 10 5 5
5 13 9 4 2 4 0 0 6 2 0 1 0 0 0 0
12 16 14 15 14 17 19 21 21 22 23 24 25 26 26 27
28 28 28 28 28 29 30 29 29 29 30 30 29 30 29 30
28 12 7 3 10 18 2 2 8 26 28 29 30 29 28 29
0 0 0 0 0 10 47 45 6 0 1 0 0 0 0 7
21 16 19 14 7 14 20 25 34 38 38 3 0 0 0 0
51 86 99 106 110 118 124 127 130 132 124 112 107 96 79 50
42 43 31 27 25 25 17 9 13 14 13 7 15 24 13 13
10 9 10 6 3 7 1 0 0 0 0 2 0 0 0 0
8 20 17 18 18 20 24 25 26 27 27 27 27 28 29 29
29 29 29 29 30 30 30 30 30 30 30 31 30 30 31 31
27 5 7 12 18 19 1 0 8 26 28 29 29 28 28 29
0 0 0 0 0 12 48 44 5 0 1 5 1 0 0 8
27 24 24 12 0 0 0 0 0 2 19 3 0 0 0 6
72 100 106 110 117 123 129 128 129 132 127 116 110 103 93 66
58 53 44 39 26 26 18 14 17 18 15 9 3 21 20 10
9 8 8 11 9 15 7 0 0 1 0 6 0 1 1 0
8 24 22 21 21 24 27 28 28 28 29 28 28 30 31 30
31 31 31 30 31 31 31 30 30 31 30 31 31 30 31 31
30 28 28 28 28 22 1 0 8 26 28 29 30 28 29 29
12 7 4 2 0 14 49 44 5 0 0 4 5 0 0 9
34 27 25 13 0 0 0 0 0 0 14 4 0 0 5 25
91 108 111 114 119 122 126 130 132 134 127 115 118 111 103 73
77 74 63 44 33 29 20 16 22 25 18 10 6 25 22 20
6 7 9 15 18 12 4 0 0 4 2 7 1 1 3 0
6 24 24 22 23 26 29 29 29 29 30 29 29 30 30 31
31 30 30 30 31 31 30 30 30 31 31 31 30 30 30 31
31 29 29 27 26 23 5 0 11 25 28 28 29 28 28 28
42 29 38 39 32 32 41 40 10 0 0 3 9 1 0 7
37 28 24 13 0 0 0 0 0 0 12 4 0 2 18 54
100 109 113 118 121 123 128 129 131 133 133 124 123 115 109 85
89 88 79 54 43 29 24 16 29 34 21 18 12 26 19 14
14 13 10 17 11 5 3 1 0 3 3 7 1 5 0 0
6 24 24 21 26 29 29 29 30 30 30 29 31 30 31 31
31 30 31 31 31 30 31 30 31 31 31 31 31 30 30 30
29 29 29 27 26 23 10 0 15 26 29 29 29 29 29 28
20 14 20 24 24 23 36 35 29 13 8 7 16 11 4 5
38 24 22 13 0 0 8 8 0 0 11 5 0 10 24 81
103 109 113 118 120 123 126 127 127 127 129 128 127 127 110 93
97 93 95 61 49 43 28 23 40 47 29 29 19 17 19 9
14 18 9 13 8 2 5 5 6 0 2 2 5 4 3 0
4 25 25 22 27 29 30 30 30 30 29 29 31 31 30 31
31 31 31 30 30 30 30 30 30 30 31 30 31 30 30 30
30 29 29 27 26 22 18 14 21 27 27 28 29 28 28 28
0 0 0 7 13 2 35 36 35 40 36 32 39 38 35 34
42 24 21 13 0 4 18 15 6 0 11 17 8 18 39 90
100 107 113 117 121 123 124 125 125 124 124 129 124 126 122 104
94 96 91 67 54 47 35 33 49 53 32 21 20 14 25 16
11 16 5 18 5 0 3 3 9 0 2 3 6 2 2 0
5 25 25 22 28 28 30 30 30 30 29 31 31 31 31 30
30 30 30 30 30 31 31 30 30 30 31 30 30 30 30 30
29 29 29 28 26 22 21 21 25 29 28 29 30 28 28 28
0 0 0 7 17 11 37 37 29 5 7 14 22 32 40 45
45 30 18 14 0 3 11 10 4 0 12 41 39 43 62 84
92 101 92 73 69 70 71 71 67 58 55 51 44 41 37 30
23 24 24 22 23 26 26 26 26 25 21 14 21 22 25 24
21 13 6 13 7 6 8 2 9 6 1 4 4 5 1 0
8 26 26 23 30 29 31 31 31 30 31 31 31 31 31 31
31 31 31 30 32 31 31 31 30 31 31 32 30 30 30 30
31 29 30 29 27 25 24 25 29 28 29 29 30 29 28 29
0 7 11 3 6 13 40 38 28 1 0 0 7 2 23 46
44 27 20 16 0 0 3 0 0 0 10 42 41 48 56 70
65 27 1 23 33 37 39 36 40 41 37 35 32 29 26 26
27 24 26 28 27 27 26 31 24 20 16 11 11 21 28 31
24 23 17 9 6 12 12 2 9 11 8 4 3 4 1 1
12 27 27 24 30 30 31 31 31 31 32 31 31 32 32 32
31 31 32 31 31 31 31 31 31 31 31 31 31 31 31 32
31 30 29 29 28 26 26 27 30 30 30 30 30 30 30 30
8 31 37 20 10 7 41 40 26 0 0 9 33 12 31 44
40 25 22 23 16 0 3 0 0 0 9 42 41 48 41 29
8 0 0 16 20 17 19 24 26 27 30 43 59 74 85 95
101 69 52 67 36 42 39 53 42 26 61 35 14 19 45 62
41 21 21 15 8 7 7 6 8 5 6 3 2 6 0 0
11 27 28 25 32 31 32 31 31 31 31 32 31 31 31 31
31 32 31 32 31 32 31 31 31 31 31 32 31 32 31 31
31 30 30 29 29 28 28 29 29 29 29 28 28 29 30 29
19 31 29 1 0 6 43 42 26 0 1 2 27 28 37 43
34 22 23 23 10 0 1 0 0 0 9 39 36 47 44 11
1 6 1 0 4 23 50 75 97 110 115 122 124 123 123 120
119 96 64 78 40 48 43 61 45 31 79 57 59 96 116 118
110 69 23 16 9 10 6 8 9 2 2 2 6 8 0 0
9 28 27 25 31 30 31 31 31 31 32 32 32 32 32 32
32 32 32 32 32 32 32 31 31 31 31 32 32 32 31 31
30 30 31 30 28 28 30 30 30 29 30 30 30 30 30 29
2 37 39 2 0 6 46 44 28 0 0 0 5 12 37 45
32 23 26 23 3 0 0 0 0 0 10 44 35 39 58 11
2 9 4 29 30 71 110 119 128 131 129 129 127 125 127 131
120 104 78 85 53 56 47 65 58 49 87 80 113 116 94 90
107 114 64 15 16 15 8 5 8 4 1 10 7 4 0 5
6 27 28 25 31 31 32 32 32 32 32 33 32 32 32 32
32 32 32 32 33 32 31 31 31 31 32 31 31 31 31 31
31 31 30 30 30 30 31 31 31 30 31 31 31 31 30 30
0 24 19 2 4 8 47 46 30 0 0 0 0 4 36 48
32 25 24 25 26 22 17 14 10 8 15 46 36 21 51 8
4 8 3 24 28 63 113 120 124 128 129 126 127 131 131 133
129 111 101 92 72 60 53 72 68 74 96 113 108 68 100 132
125 105 107 25 12 17 8 4 5 8 3 11 5 5 1 4
4 27 29 26 32 31 33 32 32 32 33 31 32 33 32 32
32 33 33 32 33 33 32 31 32 32 32 32 32 32 32 32
32 32 32 32 32 32 31 32 31 31 31 30 31 29 15 15
0 0 0 3 4 6 46 46 28 0 0 0 0 1 32 48
32 25 25 31 47 48 47 45 49 51 49 51 31 1 17 6
9 4 0 22 11 20 80 111 115 122 129 130 130 132 136 136
135 130 124 116 111 107 96 100 104 110 114 118 87 96 121 131
131 122 109 59 7 16 8 5 4 7 4 13 6 6 1 3
4 24 29 26 32 31 33 31 32 31 32 31 32 33 33 33
34 33 34 33 31 31 32 32 32 32 33 33 32 32 32 31
31 31 31 31 32 31 31 32 31 31 30 30 31 17 25 27
0 0 0 0 0 4 45 45 25 0 0 0 0 1 33 49
34 23 26 30 53 56 54 54 53 54 54 53 29 3 4 1
3 0 0 17 31 26 43 79 100 114 123 129 129 133 135 135
136 135 134 132 130 127 124 123 125 131 121 109 97 119 118 119
121 117 117 89 4 17 9 5 5 2 2 11 2 2 2 2
7 23 28 25 32 31 33 32 32 32 33 32 33 33 33 33
33 33 33 33 31 32 31 30 31 31 31 30 31 31 31 31
30 31 30 31 31 31 32 30 31 30 30 30 29 16 30 19
0 0 0 0 0 3 44 45 24 0 0 0 0 1 30 48
33 20 26 27 42 45 46 47 49 50 52 52 18 4 1 11
1 0 0 8 22 32 61 106 91 109 122 129 132 136 136 135
136 133 136 135 131 127 129 124 129 132 122 106 60 116 127 126
120 107 116 101 8 14 12 13 13 2 2 8 0 1 3 3
11 26 27 25 32 29 32 32 32 32 32 32 33 33 33 32
32 33 33 32 31 31 31 31 31 31 31 31 32 31 30 30
30 28 27 27 28 31 31 30 30 31 31 30 27 18 30 15
0 0 0 0 0 2 44 46 24 0 0 0 0 0 27 44
30 21 27 24 29 30 29 28 29 30 30 34 13 5 1 14
4 2 0 1 19 34 62 113 100 113 122 130 136 138 137 136
135 133 133 135 133 132 128 125 129 132 129 119 76 88 114 123
130 104 107 107 12 8 12 10 10 3 6 0 0 5 5 2
15 27 28 26 32 30 33 32 32 32 32 32 32 32 32 32
32 32 32 32 31 29 29 29 29 30 31 31 31 27 14 12
10 8 6 6 18 31 31 31 30 30 30 30 28 17 25 12
0 0 0 0 0 2 43 46 26 0 0 0 0 0 27 47
34 21 25 25 36 38 37 36 35 34 33 36 16 5 38 57
14 0 0 0 10 30 62 103 109 117 124 132 137 138 135 133
135 134 129 132 132 132 128 129 130 132 135 126 104 103 119 111
125 108 100 98 11 7 10 8 16 4 1 0 0 6 3 5
17 26 28 26 32 29 32 32 32 32 32 33 33 32 32 28
23 20 17 14 11 8 6 5 9 23 31 30 30 27 4 2
3 2 2 3 16 32 32 32 31 30 31 29 26 3 0 0
16 16 19 23 28 31 46 44 26 0 0 0 0 0 29 49
34 18 25 25 38 39 40 40 40 40 40 39 17 10 84 89
19 3 0 0 2 27 47 100 114 121 125 133 136 136 133 131
131 129 124 124 129 128 126 132 132 134 134 121 90 115 134 122
112 110 103 89 17 3 11 3 8 2 0 0 0 7 0 5
18 26 28 26 32 29 33 31 31 32 32 32 32 32 31 13
1 2 7 6 5 0 1 0 0 16 30 30 30 26 5 2
2 3 2 2 16 32 32 31 31 30 28 3 1 0 0 0
41 42 43 44 45 44 39 29 20 11 11 10 10 11 32 46
35 24 29 29 41 42 42 40 41 41 42 42 17 31 104 109
25 20 0 0 0 18 45 108 118 124 129 133 137 136 132 132
130 128 125 125 126 126 129 129 131 135 136 108 77 117 136 126
108 111 106 79 21 3 12 3 9 7 2 0 0 2 4 8
19 26 27 26 31 30 31 31 31 31 32 32 32 33 31 11
0 2 7 5 5 0 0 0 0 14 30 30 30 24 3 3
3 3 2 2 14 31 31 31 32 31 28 1 0 0 0 0
40 40 40 40 40 40 39 39 38 37 37 37 36 36 37 38
37 36 37 37 38 38 38 38 38 38 39 45 22 60 115 121
44 40 9 0 0 15 54 112 117 124 127 133 135 132 132 132
127 125 123 121 122 126 127 127 134 134 131 104 94 123 131 125
107 114 106 64 26 6 8 1 9 8 1 0 0 0 4 10
20 26 28 25 31 30 32 32 31 32 31 32 32 31 30 12
0 1 6 4 5 0 1 0 0 13 31 31 31 25 4 3
2 3 2 2 10 31 32 31 31 31 29 5 7 20 19 22
38 38 37 38 37 37 37 37 37 37 37 36 36 36 36 36
36 36 36 36 36 36 36 36 36 36 36 43 38 95 120 130
88 26 44 7 1 16 62 111 117 120 122 128 134 131 131 133
129 126 125 123 121 125 125 126 132 129 117 95 111 130 123 112
117 107 99 60 24 8 5 3 6 7 2 0 2 2 5 8
18 25 27 25 31 29 32 31 32 32 32 32 33 33 31 13
0 1 7 5 6 0 0 0 0 14 30 30 31 28 6 4
3 5 6 6 9 28 29 29 28 29 29 8 21 28 27 28
38 38 37 37 37 37 36 36 36 35 34 34 34 34 34 34
34 34 34 34 35 35 35 35 36 36 35 41 63 114 123 130
119 33 51 29 9 24 76 110 115 118 116 119 125 127 129 132
128 127 123 120 120 118 120 123 128 126 105 97 117 123 118 118
115 109 77 56 17 6 5 3 13 8 0 2 2 6 6 10
15 25 26 25 29 30 32 31 31 32 32 32 32 32 31 15
0 0 5 5 5 0 0 0 0 13 30 30 30 28 13 11
11 10 11 10 13 26 31 32 31 30 29 7 27 28 27 27
36 31 28 28 27 26 25 24 23 23 23 22 22 21 21 21
21 22 22 23 23 23 25 25 28 32 35 43 94 118 126 134
134 96 33 23 30 54 98 109 112 117 116 115 115 126 130 129
129 126 124 121 122 114 114 121 119 120 127 112 129 120 123 121
120 99 64 47 18 11 6 6 9 2 0 0 2 6 10 10
14 25 27 24 28 28 32 31 31 32 31 32 32 31 30 16
0 1 3 2 2 0 0 0 0 11 30 31 31 29 9 4
5 5 4 4 7 26 31 30 30 30 19 11 29 28 27 26
34 16 1 0 0 0 0 0 0 0 0 0 0 0 0 0
0 0 0 0 0 0 0 0 20 34 36 61 108 118 124 133
137 120 94 74 81 99 103 110 113 116 114 119 120 123 131 133
130 123 122 121 112 114 111 117 115 115 116 113 125 128 126 125
114 68 63 49 30 19 14 10 5 7 3 0 3 4 17 10
13 25 26 24 29 28 31 31 31 31 32 32 32 33 31 15
0 0 0 0 0 0 0 1 0 10 30 31 31 29 9 3
3 4 4 3 6 25 8 7 7 7 9 28 28 29 27 26
34 20 2 0 0 0 0 0 0 0 0 0 0 0 0 0
0 0 0 0 0 0 0 0 21 37 40 93 115 120 121 121
118 113 111 90 97 101 104 112 114 116 117 118 120 127 130 129
128 123 119 117 116 109 108 113 110 111 122 114 120 127 128 115
78 66 66 59 45 16 12 9 7 5 6 0 2 5 18 10
11 24 26 24 28 28 31 32 31 32 32 33 33 32 31 17
1 1 0 0 1 0 0 1 0 9 30 30 31 29 11 3
4 5 3 3 6 13 22 30 27 27 28 28 27 27 26 25
33 23 4 0 0 0 0 0 0 0 0 0 0 0 0 0
0 0 0 0 0 0 0 0 18 38 59 105 121 122 117 113
113 112 106 91 99 104 109 115 118 121 122 123 125 125 126 126
126 123 121 116 114 111 106 108 108 111 117 123 121 119 104 73
69 71 65 57 39 11 5 7 7 3 0 0 2 10 20 11
10 24 26 24 28 28 31 31 30 31 32 32 33 32 29 17
2 1 1 3 7 1 0 2 0 8 30 30 31 29 11 2
3 3 3 3 5 6 28 30 30 29 29 27 27 27 23 5
32 24 5 0 0 0 0 0 0 0 0 0 0 0 0 0
0 0 0 0 0 0 0 0 14 38 72 106 127 126 126 127
129 127 113 91 96 106 111 114 118 120 122 125 127 128 125 126
122 119 118 114 115 109 104 102 103 107 104 112 105 77 65 75
77 77 71 65 42 14 5 8 4 0 1 0 0 13 21 12
8 22 25 24 28 29 30 30 31 32 33 33 33 32 29 17
1 1 0 0 0 0 0 2 0 7 29 30 31 29 11 3
4 3 4 3 5 6 29 30 28 28 27 27 26 26 17 0
31 24 7 0 0 0 0 0 0 0 0 0 0 0 0 0
0 0 0 0 0 0 0 0 10 38 66 100 108 113 121 123
124 124 117 94 92 107 112 117 121 119 121 124 126 123 124 124
124 121 118 112 115 111 105 99 99 103 94 69 65 80 94 96
100 96 81 70 41 11 7 7 2 0 0 0 3 20 20 12
7 20 24 24 26 27 29 29 30 31 32 33 33 30 28 18
2 1 0 0 0 0 0 2 0 7 28 29 31 29 11 2
3 2 3 2 4 7 27 29 28 28 27 27 26 26 20 0
30 24 9 0 0 0 0 0 0 0 0 0 0 0 0 0
0 0 0 0 0 0 0 0 8 36 43 76 91 78 58 51
77 90 90 92 92 107 115 117 120 121 123 125 127 123 122 120
120 121 119 113 112 108 99 96 95 103 106 101 117 124 124 117
111 98 79 66 38 16 10 6 2 0 0 1 22 31 27 22
20 25 28 27 27 26 28 29 30 31 32 32 33 30 28 19
2 1 0 0 0 0 0 2 0 6 28 28 31 28 10 2
2 3 2 1 3 7 23 28 27 27 26 26 25 24 20 4
29 23 10 0 0 0 0 0 0 0 0 0 0 0 0 0
0 0 0 0 0 0 0 0 5 34 32 37 48 51 58 76
98 96 88 101 99 106 115 119 121 125 128 129 126 129 123 122
122 121 119 113 100 105 102 95 91 101 109 107 120 128 128 116
107 94 78 62 37 31 14 4 3 0 3 28 46 45 44 42
41 39 38 37 35 32 28 27 29 31 32 33 32 29 28 20
2 1 0 0 0 0 0 1 0 5 26 27 30 27 11 0
1 2 1 0 1 9 17 28 27 26 26 25 24 24 22 10
28 24 12 0 0 0 0 0 0 0 0 0 0 0 0 0
0 0 0 0 0 0 0 0 2 31 31 29 34 7 1 43
95 92 97 99 107 107 114 119 123 126 127 126 129 124 125 123
124 120 117 113 104 103 99 95 92 102 112 116 122 123 125 113
106 91 75 56 42 35 14 14 2 2 24 47 48 46 45 43
43 42 39 38 37 35 30 26 28 31 32 32 32 30 28 21
2 0 0 0 0 0 0 1 0 4 25 26 28 26 13 4
7 3 1 4 4 13 9 26 26 25 25 23 23 19 19 30
27 23 12 0 0 0 0 0 0 0 0 0 0 0 0 0
0 0 0 0 0 0 0 0 1 28 30 27 34 9 0 49
99 99 97 95 107 112 113 117 120 127 128 128 130 125 124 125
124 121 116 114 108 104 97 95 94 103 114 124 128 127 124 111
100 89 72 53 46 34 24 23 5 17 45 51 47 46 45 44
43 42 38 37 36 36 31 25 28 30 32 33 33 30 29 22
2 0 0 1 0 0 0 0 0 3 24 25 28 25 24 23
25 20 17 23 21 22 4 23 25 25 24 21 21 11 2 5
26 22 13 0 0 0 0 0 0 0 0 0 0 0 0 0
0 0 0 0 0 0 0 0 0 25 29 26 35 16 0 66
102 100 100 96 105 113 115 118 119 122 127 128 131 125 123 122
120 118 116 112 108 103 97 95 93 103 116 126 128 128 125 115
96 85 71 52 51 53 43 34 21 24 51 51 48 46 45 44
43 41 38 36 37 36 32 23 27 30 31 33 33 31 29 23
3 0 0 0 0 0 0 0 0 3 23 24 26 26 26 26
26 25 25 23 22 22 14 7 15 8 3 2 1 0 0 0
25 22 13 0 0 0 0 0 0 0 0 0 0 0 0 0
0 0 0 0 0 0 0 0 0 22 28 25 25 8 12 94
111 111 105 97 104 112 115 117 119 120 128 126 128 126 122 121
120 116 115 108 105 100 93 93 95 107 118 125 126 125 124 113
97 82 68 52 54 64 55 44 31 25 51 51 48 46 46 45
43 39 39 37 36 36 33 22 26 28 31 32 32 30 29 24
3 0 0 0 0 0 0 0 0 2 25 28 29 28 27 26
26 25 25 24 16 12 8 0 0 0 0 1 0 0 0 0
25 22 14 0 0 0 0 0 0 0 0 0 0 0 0 0
0 0 0 0 0 0 0 0 0 19 28 24 17 0 40 91
104 115 112 93 89 106 111 119 120 123 129 127 126 125 124 119
117 113 110 108 105 98 94 93 98 110 122 125 122 125 125 113
99 84 68 50 55 66 59 49 35 26 49 51 48 46 47 46
43 39 40 38 37 37 34 23 25 28 30 31 32 31 29 25
5 1 1 0 0 0 0 0 0 5 27 29 29 28 27 26
25 24 24 17 0 0 0 0 15 0 0 0 0 0 0 0
24 21 13 0 0 0 0 0 0 0 0 0 0 0 0 0
0 0 0 0 0 0 0 0 0 17 27 23 17 0 42 70
71 76 82 80 61 88 106 117 120 120 128 128 127 122 118 119
115 109 107 105 102 97 93 96 103 116 123 125 123 124 124 114
101 83 65 49 57 72 64 55 38 27 49 52 52 48 47 46
43 40 40 39 36 36 34 25 24 27 30 31 32 32 30 27
13 10 8 6 6 6 2 1 9 16 27 29 30 28 26 26
25 24 23 15 0 0 0 18 64 31 0 0 0 0 0 0
23 22 14 0 0 0 0 0 0 0 0 0 0 0 0 0
0 0 0 0 0 0 0 0 0 15 27 23 18 0 10 43
72 88 91 101 102 80 92 113 116 122 125 125 122 119 117 115
115 107 107 106 100 95 96 99 109 123 125 124 125 126 122 116
99 81 63 49 59 74 72 60 42 30 49 53 53 49 47 44
44 40 40 39 36 36 34 27 22 27 29 30 32 30 29 28
27 25 20 18 18 15 3 1 16 21 28 30 30 27 26 25
24 23 18 9 0 0 0 28 40 39 0 0 0 0 0 0
22 20 14 1 0 0 0 0 0 0 0 0 0 0 0 0
0 0 0 0 0 0 0 0 0 13 26 22 18 0 4 57
91 99 102 110 112 103 89 105 116 122 122 123 122 118 116 115
110 111 107 102 100 96 103 105 114 122 128 124 123 126 123 113
98 84 62 50 60 77 78 66 50 35 47 53 52 49 46 45
43 41 39 39 38 38 35 30 21 26 28 30 31 31 29 28
28 26 22 19 19 17 5 2 19 24 28 29 29 28 26 24
24 21 1 0 0 0 0 0 0 0 0 0 0 0 0 0
22 20 14 1 0 0 0 0 0 0 0 0 0 0 0 0
0 0 0 0 0 0 0 0 0 12 26 22 18 2 10 50
72 87 99 107 108 105 93 97 108 117 122 122 119 119 118 115
108 109 105 103 101 103 107 111 118 120 124 125 123 125 122 112
99 83 62 51 61 77 80 73 57 41 34 44 48 49 47 44
43 41 39 39 37 36 33 30 20 24 27 29 30 29 29 27
27 26 24 22 21 21 6 2 20 24 27 28 28 27 25 24
23 20 1 0 0 0 0 0 0 0 0 0 0 0 0 1
21 20 14 1 0 0 0 0 0 0 0 0 0 0 0 0
0 0 0 0 0 0 0 0 0 10 25 21 19 5 10 18
48 74 90 100 103 96 91 91 98 107 116 119 118 117 114 113
107 105 103 103 105 109 112 114 119 123 125 126 121 123 121 112
100 81 62 54 63 77 84 77 64 49 25 14 14 41 48 45
44 43 40 39 36 36 34 32 20 24 26 28 30 30 29 27
27 27 24 23 24 21 8 1 21 24 26 27 26 25 24 24
22 21 2 0 0 0 0 0 0 0 0 0 0 0 0 0
21 20 14 1 0 0 0 0 0 0 0 0 0 0 0 0
0 0 0 0 0 0 0 0 0 9 24 21 21 28 35 38
43 70 87 96 97 94 88 87 91 102 110 112 112 115 111 110
103 104 107 107 110 113 119 116 119 123 125 127 121 123 119 111
100 81 61 53 63 77 85 80 69 55 37 17 11 24 66 46
43 44 41 38 37 36 34 32 21 22 26 28 29 29 29 27
27 27 25 24 24 23 10 1 22 23 25 26 25 25 24 24
22 21 13 1 0 0 0 0 0 0 0 0 0 0 0 0
21 20 14 1 0 0 0 0 0 0 0 0 0 0 0 0
0 0 0 0 0 0 0 0 0 9 24 21 22 41 47 49
49 55 79 90 96 98 97 90 94 98 104 108 109 108 111 108
108 105 108 109 114 119 119 115 117 121 124 128 129 122 117 109
99 84 64 53 62 78 87 85 76 63 47 24 12 9 68 55
43 43 40 39 38 38 36 32 25 21 25 28 29 29 27 27
27 27 26 25 26 25 12 1 22 24 24 24 24 24 23 23
21 20 11 0 0 0 0 0 0 0 0 0 0 0 0 0
20 20 13 1 0 0 0 0 0 0 0 0 0 0 0 0
0 0 0 0 0 0 0 0 0 8 24 20 21 42 47 47
47 47 71 88 88 97 104 100 97 98 105 111 111 109 108 108
105 106 109 112 114 117 116 114 116 119 124 125 125 122 116 112
100 86 66 54 63 78 89 92 83 70 55 36 3 3 55 69
44 43 40 39 39 38 36 33 27 19 25 26 28 28 28 27
28 28 27 27 27 26 15 0 21 25 24 23 24 23 22 22
21 19 5 0 0 0 0 0 0 0 0 0 0 0 0 0
21 20 14 2 0 0 0 0 0 0 0 0 0 0 0 0
0 0 0 0 0 0 0 0 0 7 23 20 19 20 20 20
20 23 63 81 89 96 102 106 108 105 108 112 110 107 108 104
104 109 112 115 115 115 117 114 115 114 122 123 121 122 121 110
100 87 65 54 63 78 91 95 89 77 61 49 16 1 48 79
53 43 40 38 39 38 36 34 30 19 24 26 27 24 19 22
20 23 27 28 28 27 18 0 20 25 25 24 23 23 22 22
21 20 6 0 0 0 0 0 0 0 0 0 0 0 0 0
20 19 14 2 0 0 0 0 0 0 0 0 0 0 0 0
0 0 0 0 0 0 0 0 0 7 22 19 17 13 13 13
15 16 49 73 83 89 103 111 111 114 110 109 109 105 104 104
108 110 113 115 116 114 115 113 114 118 120 125 120 119 115 110
99 87 67 55 62 80 96 100 94 83 71 57 34 0 46 81
68 42 40 38 39 35 35 34 32 22 28 32 28 18 17 13
9 13 23 26 26 25 17 0 16 24 24 24 23 22 22 22
21 17 0 0 0 0 0 0 0 0 0 0 0 0 0 0
20 19 13 2 0 0 0 0 0 0 0 0 0 0 0 0
0 0 0 0 0 0 0 0 0 7 23 19 16 16 15 16
16 17 38 74 86 87 100 110 113 117 109 107 105 102 100 103
107 109 108 112 119 116 116 113 113 119 124 120 122 121 117 113
100 84 66 56 63 79 97 101 96 89 76 62 49 10 46 72
69 44 40 38 38 34 35 40 39 37 34 30 29 17 14 11
6 12 21 25 24 25 19 0 14 23 23 23 24 22 22 22
21 13 0 0 0 0 0 0 0 0 0 0 0 0 0 0
19 19 13 2 0 0 0 0 0 0 0 0 0 0 0 0
0 0 0 0 0 0 0 0 0 7 24 19 18 19 20 20
21 21 26 68 89 86 100 109 115 113 107 101 99 101 99 104
107 108 108 110 114 116 113 111 114 119 121 122 119 122 119 114
102 84 65 57 65 80 97 103 100 91 79 69 57 29 51 67
77 43 40 36 30 25 34 47 43 43 29 21 17 13 12 13
6 11 17 24 23 23 18 0 10 21 22 22 23 22 21 21
19 4 0 0 0 0 0 0 0 0 0 0 0 0 0 0
19 18 12 2 0 0 0 0 0 0 0 0 0 0 0 0
0 0 0 1 2 2 4 4 6 14 24 18 17 19 20 21
22 22 24 59 92 88 95 107 109 109 107 101 96 98 100 102
107 108 108 108 110 112 111 107 115 120 118 118 123 123 120 114
103 88 63 58 67 78 97 105 103 95 85 73 65 39 59 65
69 43 39 27 20 21 28 41 32 22 16 11 10 9 9 14
4 9 14 22 22 21 17 0 9 21 21 21 22 20 21 20
15 0 0 0 0 0 0 0 0 0 0 0 0 0 0 0
19 18 14 5 0 1 2 3 4 5 6 8 9 10 11 13
14 14 15 16 15 15 15 16 15 16 16 16 17 18 19 20
20 21 22 40 82 88 92 102 101 100 98 92 95 98 102 99
103 106 107 106 108 107 106 105 113 119 120 118 121 118 119 115
104 89 65 58 66 77 96 107 105 98 88 79 72 47 60 73
75 47 42 28 19 18 17 17 14 14 11 9 9 8 11 9
2 6 10 20 21 21 17 1 7 20 20 20 22 20 21 20
14 0 0 0 0 0 0 0 0 0 2 0 0 0 0 0
19 18 18 16 15 14 15 15 16 16 16 16 16 16 16 16
16 16 16 16 16 16 16 16 15 15 15 16 16 19 20 20
21 21 21 24 59 81 88 90 89 86 85 87 93 97 98 96
101 101 104 106 108 110 112 112 118 123 119 120 121 120 120 118
105 88 67 58 67 79 97 105 104 98 92 85 79 53 53 69
65 44 43 35 25 16 13 12 12 13 10 11 10 12 13 13
5 6 6 16 20 21 18 1 5 21 21 21 21 21 20 18
3 0 0 0 0 0 0 0 0 0 0 0 0 0 0 0
18 18 17 16 15 11 14 15 17 16 16 16 16 16 16 15
15 16 16 16 16 16 16 15 15 16 15 16 16 19 21 21
21 21 21 21 27 52 68 67 66 72 74 76 81 87 89 94
95 97 102 106 109 112 117 120 121 122 122 120 118 118 121 115
107 89 69 60 69 77 95 104 105 101 95 90 86 56 59 77
58 45 47 38 38 39 40 32 20 14 14 13 12 12 11 12
8 6 4 11 19 20 18 2 5 20 21 20 21 19 19 17
1 0 0 0 0 0 0 0 0 0 0 0 0 0 0 0
18 17 17 16 15 9 14 15 15 15 15 16 16 16 16 16
16 16 16 15 15 14 13 13 12 12 12 12 15 19 20 21
21 22 22 21 21 23 31 34 39 45 50 60 69 76 81 92
98 101 103 111 114 117 120 122 121 124 121 119 119 117 116 117
109 92 70 60 69 78 92 103 106 103 100 97 91 56 67 83
48 46 48 40 41 59 61 62 59 48 37 27 22 17 14 13
9 3 2 9 19 19 17 12 14 21 22 21 20 19 18 14
1 0 0 0 0 0 0 0 0 0 0 0 0 0 0 0
17 17 16 16 15 13 15 14 14 13 13 11 11 10 9 8
6 5 4 2 1 0 2 7 9 12 15 16 17 19 20 20
21 22 22 21 21 23 27 29 29 29 30 32 40 45 64 85
95 101 106 111 116 117 118 122 121 123 122 118 120 120 118 118
108 91 71 63 69 79 89 102 108 106 104 98 84 58 77 66
46 46 42 40 50 64 70 69 64 61 64 61 56 44 38 35
31 25 19 20 26 19 17 18 18 20 22 21 20 19 22 15
0 0 0 0 0 0 0 0 0 0 0 0 0 0 0 0
6 6 5 4 3 2 1 1 1 0 0 0 0 1 1 2
2 2 2 2 0 0 1 7 10 12 15 17 18 19 20 20
21 21 22 21 21 23 27 29 29 29 29 32 41 33 23 18
37 71 97 106 110 115 117 116 119 119 119 116 116 121 120 115
105 92 72 65 75 80 89 97 108 112 106 97 69 77 77 56
47 46 38 46 53 75 80 74 74 79 72 67 65 61 58 53
46 38 33 28 21 17 17 18 20 18 16 19 20 19 24 12
0 0 0 0 0 0 0 0 0 0 0 0 0 0 0 0
0 0 0 0 0 0 0 0 0 1 11 15 17 19 19 22
23 23 22 20 2 0 0 7 10 12 14 15 17 18 20 21
21 21 22 22 23 24 28 29 30 34 44 57 54 61 65 39
21 7 56 82 97 109 115 115 117 117 120 120 119 120 123 116
108 94 74 70 77 87 93 97 104 109 105 82 81 86 66 46
45 43 33 46 61 79 78 77 81 81 77 70 74 68 66 65
65 59 48 40 29 24 16 18 21 19 17 18 20 16 13 0
0 0 0 0 0 0 0 0 0 0 0 0 0 0 0 0
0 0 0 0 0 0 0 1 3 9 32 34 35 34 33 31
29 27 33 31 11 2 3 7 10 11 13 16 18 19 21 22
22 23 24 24 25 27 31 42 54 59 60 60 60 60 70 48
39 7 64 69 75 99 109 112 117 119 123 122 120 122 123 122
111 93 74 72 82 89 94 96 102 105 90 82 86 72 51 45
47 42 31 53 73 74 74 75 72 83 84 80 84 77 73 79
74 82 64 71 60 53 44 33 25 16 8 6 3 1 1 0
0 0 0 0 0 0 0 0 0 0 0 0 0 0 0 0
0 0 0 0 0 0 0 1 3 6 31 31 30 32 31 29
29 32 41 41 27 11 11 8 8 12 15 17 20 24 24 25
26 27 28 28 29 40 62 65 65 61 60 58 57 63 77 74
44 19 51 78 72 82 103 112 116 120 122 121 120 123 125 123
110 94 75 76 86 92 98 99 98 82 63 34 82 64 52 46
46 40 31 64 78 65 73 71 74 72 79 75 82 76 74 75
72 74 69 78 67 67 69 63 40 19 5 0 0 0 0 0
0 0 0 0 0 0 0 0 0 0 0 0 0 0 0 0
0 0 0 0 0 2 11 18 18 16 25 40 41 41 39 39
37 36 35 33 25 15 15 15 16 15 15 14 14 27 23 25
29 29 29 32 53 69 76 78 81 66 56 53 56 66 80 85
64 32 24 77 82 70 86 100 105 112 117 117 118 124 126 123
110 94 76 80 90 98 102 99 81 68 63 10 66 57 48 45
44 46 38 75 74 69 74 76 79 89 84 83 80 71 82 89
94 88 83 79 78 78 75 71 72 63 64 33 9 0 0 0
0 0 0 0 0 0 0 0 0 0 0 0 0 0 0 0
0 0 0 1 2 5 13 17 17 16 19 30 29 26 25 24
22 22 20 20 15 8 8 7 6 6 7 7 8 27 25 26
35 49 64 72 78 79 80 86 80 68 56 53 55 70 85 71
49 61 32 45 87 85 69 75 92 105 112 113 116 124 126 120
111 95 76 89 97 103 106 102 73 72 62 12 47 55 44 45
44 44 49 84 68 68 73 80 84 77 86 88 89 90 84 79
83 81 77 85 80 80 77 78 77 76 71 68 65 29 1 0
0 0 0 0 0 0 0 0 0 0 0 0 0 0 0 0
9 11 16 17 17 18 18 18 18 18 18 18 18 18 18 18
19 19 19 19 13 5 5 6 6 6 6 7 9 32 48 60
73 72 78 84 86 85 82 78 81 70 59 61 57 73 53 1
4 54 60 31 68 104 95 73 77 90 98 102 110 122 125 120
111 93 78 96 104 108 110 102 67 69 74 3 47 53 46 43
38 37 76 81 72 67 69 78 85 82 80 76 79 71 88 89
84 78 78 75 79 77 80 80 69 70 66 67 71 65 41 2
0 0 0 0 0 0 0 0 0 0 0 0 0 0 0 0
6 9 13 16 15 15 15 13 12 10 8 6 4 3 7 19
18 18 19 19 14 5 5 5 6 7 10 25 55 70 76 80
77 84 77 80 86 79 87 75 79 66 62 59 54 67 20 0
11 49 80 49 42 98 116 109 92 93 93 92 105 117 126 121
110 93 81 99 111 113 111 101 67 71 83 4 70 42 42 43
43 41 84 76 69 69 73 79 86 82 84 85 84 81 79 77
85 70 78 74 79 76 83 78 78 75 73 73 70 66 60 54
4 0 0 0 0 0 0 0 0 0 0 0 0 0 0 0
1 6 13 16 15 9 0 0 0 0 0 0 0 0 2 18
18 19 19 18 15 4 4 4 9 34 66 75 82 78 74 85
72 77 82 88 84 76 81 83 76 66 60 60 60 54 31 4
2 39 83 74 43 66 111 121 115 105 104 91 96 115 126 124
114 94 84 102 115 116 115 103 72 75 79 13 59 44 46 43
41 69 86 76 71 73 75 79 80 79 82 82 84 84 80 77
75 83 83 83 82 86 82 87 85 72 72 78 73 72 65 61
43 22 15 0 0 0 0 0 0 0 0 0 0 0 0 0
2 5 12 16 14 7 0 0 0 0 1 3 4 7 11 17
18 18 19 18 15 5 8 30 70 74 84 72 82 78 84 88
78 72 77 78 87 86 78 75 78 66 61 59 67 42 33 13
0 18 97 85 59 50 86 123 124 116 107 95 94 116 126 123
112 93 88 104 121 121 116 81 74 83 50 25 52 45 49 50
49 87 82 76 66 76 78 81 83 85 85 86 81 82 77 76
84 84 80 82 84 75 83 72 74 80 73 77 76 72 71 57
59 49 18 0 0 0 0 0 0 0 0 0 0 0 0 0
1 5 12 15 15 13 8 10 11 12 14 15 16 17 18 20
21 22 24 26 26 33 68 81 80 73 76 80 81 83 87 85
82 76 72 79 86 89 86 82 76 65 59 59 67 58 39 26
8 38 65 93 90 59 63 110 128 126 114 96 91 113 125 124
113 96 90 106 123 124 113 81 74 84 20 44 50 47 42 48
77 79 84 73 67 78 81 90 79 83 89 80 87 80 78 86
79 81 79 72 79 79 82 96 87 75 84 81 79 76 74 58
59 62 33 0 0 0 0 0 0 0 0 0 0 0 0 0
3 5 12 15 15 15 16 16 19 20 21 24 25 26 28 27
26 24 24 24 48 72 73 82 76 80 78 80 77 80 77 84
79 82 70 79 84 76 79 72 70 63 62 60 59 70 43 42
17 50 45 60 73 79 57 84 127 128 123 103 87 112 125 124
113 96 92 109 127 125 103 81 79 50 25 45 54 50 44 73
91 87 73 76 77 76 85 78 79 82 86 87 76 79 84 79
80 76 85 86 87 80 85 76 85 78 76 78 90 75 78 62
61 59 46 12 0 0 0 0 0 0 0 0 0 0 0 0
5 15 21 24 24 25 25 26 27 23 21 21 20 19 23 26
22 23 26 42 68 73 74 79 80 79 80 85 82 84 81 85
85 79 74 78 80 77 80 73 80 71 61 61 65 70 58 48
36 65 51 54 67 69 59 65 107 131 127 111 88 111 126 125
112 97 95 112 126 122 89 84 73 18 41 49 54 44 64 84
76 77 85 70 70 83 72 93 74 86 76 83 82 82 85 90
85 85 80 85 90 84 96 90 78 79 85 88 73 79 73 68
63 64 58 62 17 0 0 0 0 0 0 0 0 0 0 0
20 29 22 20 18 17 18 18 25 21 22 24 25 26 28 29
30 30 47 67 72 75 79 84 84 79 82 84 85 81 80 82
87 83 79 77 83 79 84 85 78 75 68 63 67 63 80 61
53 57 71 58 67 69 56 66 89 131 130 114 89 110 125 125
112 97 94 113 117 94 85 72 41 17 45 48 51 63 89 88
81 80 74 75 81 75 84 78 84 77 81 83 80 80 80 77
80 86 79 80 77 87 76 84 86 74 77 85 85 76 65 76
68 68 57 72 62 2 0 0 0 0 0 0 0 0 0 0
13 28 25 23 24 25 26 27 27 27 28 28 29 29 29 31
31 39 69 70 74 76 78 82 82 84 91 87 84 81 83 88
88 82 83 77 82 87 78 78 83 78 83 67 65 57 63 75
55 51 81 56 52 63 58 85 83 119 131 119 89 109 126 126
111 96 96 103 85 84 75 43 32 30 63 47 58 85 93 88
83 81 78 71 79 84 81 81 86 91 91 82 78 83 84 90
74 79 86 84 91 97 86 89 93 78 88 82 78 82 62 75
73 78 63 64 70 35 0 0 0 0 0 0 0 0 0 0
6 15 28 30 29 29 29 29 28 29 30 31 30 32 32 32
38 70 77 76 76 75 76 82 84 90 86 83 86 79 78 82
82 84 81 77 78 80 78 80 83 80 80 78 77 64 58 68
81 73 76 78 47 65 72 85 90 89 113 117 91 107 126 126
114 99 93 83 79 59 41 35 44 51 76 60 84 92 85 91
79 86 80 79 72 74 84 85 81 79 79 77 77 96 79 87
84 84 88 83 87 91 91 91 87 75 92 83 83 75 59 69
79 76 68 65 66 72 10 0 0 0 0 0 0 0 0 0
12 18 25 29 28 28 30 32 29 31 30 31 30 32 32 33
57 79 84 79 78 77 80 91 90 87 89 88 81 81 87 90
88 84 88 85 84 85 85 84 79 80 77 81 80 80 72 59
65 72 77 86 61 62 70 79 94 90 90 100 92 107 124 126
113 93 81 85 71 54 42 51 77 70 61 64 93 82 92 76
79 86 77 74 80 76 82 85 85 84 85 81 85 82 88 75
96 87 90 86 78 79 88 93 77 81 86 86 84 77 63 71
76 78 66 61 65 84 42 0 0 0 0 0 0 0 0 0
26 31 32 32 28 24 29 31 31 31 32 32 31 27 24 41
72 81 86 78 83 78 79 87 90 90 88 90 91 91 93 87
85 85 88 92 85 92 86 80 79 80 84 83 83 82 86 85
73 71 76 89 79 65 68 69 78 91 93 82 82 109 126 128
110 88 85 79 57 51 48 74 87 65 73 82 90 93 83 89
87 86 89 78 78 84 78 85 71 83 79 81 90 82 98 84
89 92 91 82 82 88 89 90 76 83 86 82 83 62 62 77
79 76 71 56 72 66 70 12 0 0 0 0 0 0 0 0
25 33 34 35 32 18 20 22 18 13 9 5 3 1 8 69
76 87 89 79 79 78 77 86 84 85 82 87 87 80 81 85
85 84 84 87 86 83 85 70 81 81 89 88 84 84 88 90
89 75 85 87 83 89 70 78 66 81 96 90 72 111 130 128
97 81 78 54 46 47 69 88 92 68 77 86 86 90 75 76
84 82 84 84 90 85 88 81 93 85 86 83 86 96 82 94
74 87 91 82 85 96 88 94 77 84 86 82 81 67 70 82
81 82 71 55 69 59 67 31 0 0 0 0 0 0 0 0
33 30 28 21 8 1 0 0 0 0 0 0 0 0 39 81
86 89 91 76 76 82 76 84 86 87 89 88 88 88 90 86
89 83 87 89 78 79 84 77 81 85 87 87 85 86 86 82
86 79 89 87 89 88 92 73 79 67 79 92 84 98 129 117
83 68 58 54 62 70 89 94 85 79 82 90 94 91 85 78
82 84 78 78 76 83 82 86 81 82 81 90 82 89 82 79
80 89 90 84 95 93 85 79 80 89 88 77 82 53 69 87
89 82 73 55 69 68 59 45 9 0 0 0 0 0 0 0
7 4 2 1 0 0 0 0 0 0 0 0 0 13 71 81
81 83 89 78 80 81 83 85 87 91 89 90 86 88 93 85
88 85 88 89 79 87 83 86 82 84 88 86 87 81 80 90
96 81 78 73 89 78 80 90 80 78 82 78 90 90 115 89
64 45 59 75 71 97 84 89 83 96 96 90 84 84 85 90
93 79 80 88 84 97 87 77 77 84 84 85 73 86 96 90
96 93 81 81 89 80 89 94 79 83 81 89 87 47 74 87
89 87 76 58 69 69 61 50 28 0 0 0 0 0 0 0
0 0 0 0 0 0 0 0 0 0 0 0 1 49 79 74
76 84 84 79 80 82 81 82 88 91 89 90 92 90 91 88
89 84 89 93 89 89 90 77 81 83 86 84 86 86 97 90
89 87 100 84 97 95 87 93 95 91 74 88 76 82 84 71
56 50 66 86 85 85 96 95 87 81 91 90 93 79 79 83
87 91 84 91 92 83 84 77 76 76 79 79 77 79 82 92
77 83 88 91 83 94 87 91 77 94 89 81 69 51 81 83
88 88 81 54 68 61 69 53 44 11 0 0 0 0 0 0
0 0 0 0 0 0 0 0 0 0 0 0 25 66 78 70
76 90 82 81 82 84 81 80 88 89 89 92 89 91 88 90
86 88 89 85 87 88 91 85 83 89 85 78 91 94 92 85
93 95 91 82 90 87 85 83 82 84 85 82 87 67 49 50
61 79 94 80 86 81 87 83 90 80 86 86 91 91 86 87
86 85 83 81 82 88 79 96 95 92 95 86 91 90 85 85
82 94 86 90 83 84 84 84 73 89 80 77 83 53 84 89
81 85 72 54 58 53 72 56 49 33 0 0 0 0 0 0
0 0 0 0 0 0 0 0 0 0 0 3 60 62 80 67
73 87 87 75 76 77 85 80 86 92 88 90 88 86 88 87
87 84 83 85 88 87 83 79 83 87 91 79 93 87 88 95
93 82 92 77 87 94 90 95 94 93 87 85 71 59 54 77
95 83 74 84 87 83 82 89 82 81 91 84 79 87 87 80
86 80 83 99 86 85 91 74 82 85 82 81 78 87 98 82
84 76 77 76 86 77 100 81 70 76 88 79 78 54 85 83
83 80 76 56 54 50 72 55 48 56 6 0 0 0 0 0
0 0 0 0 0 0 0 0 0 0 0 32 68 66 75 65
72 88 84 71 89 86 80 79 84 84 87 87 84 87 89 86
80 78 85 85 88 87 94 78 86 90 85 84 88 91 96 86
80 89 93 76 89 85 86 87 89 94 90 76 68 40 65 80
88 95 83 84 84 86 89 89 84 94 85 86 94 83 79 89
79 89 89 83 91 86 89 85 81 86 80 74 77 80 75 81
82 84 85 85 88 82 95 76 78 80 82 88 75 63 87 85
83 72 79 58 47 63 76 48 53 64 22 0 0 0 0 0
0 0 0 0 0 0 0 0 0 0 6 70 65 65 77 57
78 86 85 76 80 85 82 83 92 97 86 84 81 85 86 85
90 86 84 89 90 89 85 82 82 87 90 80 97 91 94 87
89 89 91 85 88 94 94 93 91 96 87 74 59 58 88 86
98 99 77 85 94 77 87 86 81 85 98 84 84 90 91 85
93 84 84 100 75 102 82 79 89 88 84 84 91 88 87 86
78 88 78 89 76 99 80 81 80 83 88 82 64 69 90 82
72 75 79 58 47 68 73 50 55 69 37 0 0 0 0 0
0 0 0 0 0 0 0 0 0 0 34 83 68 62 71 54
82 82 85 72 93 78 87 82 83 86 91 95 91 91 96 87
83 81 84 79 92 89 85 79 90 93 94 83 97 92 91 85
93 96 90 88 89 88 93 98 95 99 84 66 64 74 80 87
102 84 81 93 83 93 93 88 89 97 80 95 99 83 86 85
78 88 91 78 95 80 90 86 90 88 87 78 92 86 95 80
81 85 85 82 85 100 82 76 84 83 82 88 71 71 81 77
76 75 78 47 46 72 73 50 55 67 49 6 0 0 0 0
