P2
128 120
141
0 2 9 5 0 0 0 27 48 39 34 34 34 34 34 33
34 33 33 33 32 32 32 31 31 31 31 30 30 30 30 30
29 29 29 28 28 27 27 27 27 26 26 25 25 25 25 25
24 24 24 23 23 22 21 21 21 21 20 21 21 23 26 26
25 25 18 16 22 15 23 21 21 21 20 19 20 20 18 18
17 13 18 16 20 20 20 21 21 22 21 21 21 21 21 21
21 21 22 22 22 22 22 22 23 23 22 23 23 23 23 23
24 24 24 24 24 25 25 25 25 26 26 25 25 26 26 25
0 5 8 3 0 0 0 26 46 39 33 34 34 33 34 34
33 33 33 33 32 32 32 32 31 31 30 29 30 29 29 29
29 28 28 28 28 27 28 27 27 27 27 26 25 26 24 25
24 24 23 23 22 22 21 21 21 21 21 21 22 24 26 26
26 25 19 16 23 15 23 22 22 21 20 19 20 20 18 19
18 14 19 18 20 21 21 21 21 21 21 21 21 21 21 21
22 22 22 22 22 22 23 23 23 23 23 23 23 24 23 24
24 24 24 24 25 25 25 26 25 25 25 24 23 24 24 26
0 0 3 1 0 0 0 26 46 39 34 34 34 34 34 34
34 33 33 33 33 32 32 31 31 31 31 31 30 30 29 29
29 28 28 28 27 27 27 28 27 27 27 26 26 26 25 25
25 24 24 23 23 23 23 22 21 21 21 21 22 24 26 26
26 26 19 17 24 15 23 22 22 22 21 20 21 21 19 19
18 14 21 18 21 21 21 21 22 22 21 22 22 22 22 22
22 22 22 22 22 23 23 22 23 23 24 24 23 24 24 24
25 25 25 25 25 25 24 24 24 24 24 26 26 26 26 26
0 0 1 6 5 0 0 26 46 38 34 33 34 34 34 34
33 33 33 33 33 33 32 31 31 31 31 31 30 30 30 29
29 29 28 28 28 28 28 28 27 27 28 27 26 25 25 25
24 24 24 24 24 23 22 22 21 21 21 22 23 25 27 26
27 26 18 17 25 16 23 22 23 21 21 20 20 21 19 20
19 15 20 19 22 21 22 22 22 22 22 23 22 22 22 22
22 23 23 22 23 23 23 23 24 23 24 24 24 24 25 24
24 24 24 24 25 25 26 26 26 26 26 27 26 26 26 26
0 0 1 6 6 0 0 27 45 38 34 33 34 33 34 33
34 33 33 33 33 33 32 32 32 32 32 31 31 30 30 29
29 29 29 29 29 28 28 28 27 27 27 27 26 26 25 25
26 25 24 23 24 23 23 23 22 22 22 22 23 25 27 27
28 27 20 18 25 17 22 22 23 22 22 21 21 22 20 19
19 15 21 19 22 22 22 22 22 23 22 23 23 23 22 22
23 22 24 23 24 23 24 24 24 24 25 24 23 23 23 24
24 25 25 26 26 26 26 26 26 26 26 26 27 26 26 26
0 0 2 1 3 2 0 26 45 38 34 35 34 34 34 34
34 33 34 33 33 32 32 32 32 31 31 30 30 30 30 30
30 29 29 29 29 29 28 28 28 27 28 27 26 26 26 25
26 25 24 24 24 23 23 22 22 22 23 23 23 25 28 27
28 27 20 18 26 19 22 23 23 23 22 22 20 22 20 20
20 16 21 19 22 22 22 22 23 24 22 24 23 24 23 23
23 23 24 24 24 24 24 25 24 23 23 24 24 24 25 25
26 26 26 26 26 27 26 27 26 27 27 26 26 26 26 26
12 7 2 0 3 4 10 32 46 38 34 35 34 34 34 34
34 34 33 33 33 33 32 32 32 32 31 31 30 30 29 29
30 29 29 29 29 28 28 28 28 28 27 27 27 27 26 27
26 25 26 25 24 24 23 23 23 22 23 23 24 26 28 28
28 27 21 18 26 21 21 24 24 23 23 22 21 22 20 21
20 17 21 19 23 23 23 23 23 24 23 23 24 23 24 24
24 24 24 23 23 24 24 24 25 24 25 25 25 25 25 25
26 27 26 26 26 27 27 27 27 26 26 27 26 27 27 27
33 34 33 28 24 17 16 35 44 37 34 35 34 34 34 34
34 33 33 33 33 32 33 32 32 32 32 31 31 31 31 30
30 30 29 30 29 29 28 29 29 28 27 27 27 26 26 26
26 26 25 24 25 24 24 24 24 23 23 24 24 26 29 29
29 27 21 18 26 24 19 24 23 23 23 22 21 22 21 21
20 17 21 19 23 24 23 23 24 24 23 24 24 23 24 24
24 24 24 24 24 24 24 24 25 25 24 25 25 25 25 26
26 27 27 27 27 27 27 27 27 27 27 26 25 27 26 26
24 26 28 30 33 36 37 38 38 36 34 34 34 34 34 34
33 33 33 33 33 33 33 32 32 32 31 31 31 30 31 31
30 30 29 29 29 29 29 29 29 28 28 28 27 27 27 26
26 26 26 25 25 24 24 23 23 23 23 23 24 26 29 29
28 28 22 18 27 26 18 24 24 23 23 23 22 22 21 21
21 18 21 20 23 24 23 23 23 23 23 23 23 22 23 23
24 24 25 25 24 25 24 24 25 25 25 25 25 26 26 26
25 27 27 26 26 27 26 26 27 26 26 27 27 26 27 27
15 17 20 24 27 30 31 32 34 35 35 35 35 34 34 34
34 34 33 33 33 32 32 32 32 32 32 31 31 31 31 31
31 30 31 31 30 29 29 29 29 29 28 28 27 27 27 27
26 26 26 26 26 25 25 24 24 24 24 24 25 26 29 30
29 28 22 18 26 27 18 26 25 24 24 23 22 23 21 22
21 19 22 21 24 24 24 24 23 24 24 24 24 24 24 24
24 25 24 25 25 25 24 25 25 26 26 26 26 26 27 27
27 27 27 27 27 27 27 26 27 27 27 26 26 26 26 26
12 12 11 11 12 15 19 23 28 33 35 35 35 35 34 34
34 34 33 33 33 33 32 32 32 32 31 31 31 31 31 30
30 29 30 29 29 29 29 29 29 29 29 28 28 27 27 27
27 27 26 26 25 25 24 24 24 24 24 24 25 26 29 29
29 29 23 19 26 29 19 25 25 25 24 23 23 22 22 21
21 19 21 19 23 23 24 24 24 24 25 24 25 24 25 25
25 26 25 25 25 25 25 25 25 25 25 26 26 26 26 26
26 27 27 27 27 27 28 27 27 27 27 27 27 27 27 27
12 12 12 12 11 11 11 13 13 13 16 20 23 28 32 34
35 35 34 33 33 33 33 33 32 32 32 32 31 31 31 31
31 31 30 30 30 29 29 29 29 28 28 28 27 28 27 27
27 26 27 26 26 25 25 25 25 24 24 25 25 26 30 30
30 29 23 18 27 30 18 25 26 25 24 23 24 23 22 22
21 19 21 21 24 25 24 24 25 25 24 25 25 25 25 26
25 26 25 26 25 25 25 25 26 26 27 26 26 26 27 27
27 27 27 27 27 27 28 27 27 27 26 27 27 27 27 27
17 13 12 13 13 12 12 12 11 12 13 13 12 13 13 15
19 23 28 33 33 33 33 33 32 32 32 31 32 31 31 30
31 31 30 30 31 29 30 29 29 29 29 29 28 28 28 27
27 27 26 26 26 25 25 25 24 24 24 24 26 27 30 30
30 29 24 19 27 31 20 24 26 25 25 24 23 23 22 22
22 20 21 22 25 25 25 25 25 25 25 25 25 25 24 25
25 26 25 25 25 25 25 26 26 26 26 27 27 27 27 27
27 27 27 27 27 27 28 27 27 27 27 27 25 25 25 25
43 39 38 39 35 30 26 19 13 14 13 13 12 12 13 12
4 6 14 31 33 33 33 33 32 32 32 32 32 31 31 31
31 31 31 30 30 30 29 29 29 28 29 29 29 28 28 28
28 27 27 26 26 26 26 25 25 25 24 24 25 27 30 30
29 29 24 18 25 32 23 23 26 26 25 24 24 24 23 23
22 21 21 23 25 25 25 25 24 25 25 25 25 25 25 25
26 26 26 26 26 26 26 26 26 26 27 27 27 27 27 28
27 27 27 27 27 26 27 27 26 26 26 25 26 27 27 27
49 44 41 48 48 46 44 31 21 24 21 16 11 10 12 13
9 9 14 31 33 33 33 33 32 31 30 31 32 32 31 31
30 30 30 30 30 29 30 30 29 29 29 28 28 28 28 27
28 27 26 26 26 25 25 25 25 24 24 25 26 26 31 30
28 29 24 18 26 31 24 21 26 25 25 24 24 24 22 22
22 21 20 23 25 25 25 25 25 25 25 25 26 25 26 26
26 27 27 26 25 26 26 26 26 26 26 27 27 27 27 26
27 26 27 26 26 26 27 27 27 26 27 27 27 27 27 27
48 41 43 44 47 48 47 34 29 34 39 37 32 30 24 17
10 10 12 30 33 33 33 33 33 31 33 33 33 31 31 31
31 31 30 30 30 30 30 29 29 29 28 29 36 37 33 30
28 27 26 27 26 27 26 26 25 25 23 23 23 23 25 24
25 26 24 18 26 31 26 18 26 26 25 25 24 24 23 23
23 22 20 23 25 25 25 26 26 25 25 25 25 25 26 26
26 27 26 26 26 26 27 26 27 26 26 27 26 26 26 26
26 26 26 26 26 26 27 26 26 27 27 27 26 27 27 27
32 27 37 40 45 47 48 37 35 37 40 39 36 43 44 42
21 11 14 30 34 33 33 33 32 35 42 40 39 37 34 33
31 30 31 30 30 30 30 30 30 29 29 31 42 41 38 36
35 32 27 26 26 27 22 19 15 12 12 16 21 18 13 15
9 7 10 11 22 28 27 16 23 26 25 25 25 24 23 23
23 22 21 23 25 26 26 25 25 26 26 26 26 26 26 26
27 27 27 26 26 26 26 26 26 27 26 27 28 27 27 27
26 26 27 27 26 26 27 26 27 26 27 27 27 27 27 27
14 0 1 4 9 15 31 39 37 39 42 42 44 46 46 47
26 11 16 32 34 34 34 33 32 35 45 42 41 38 38 37
37 36 32 31 31 30 29 29 30 30 30 31 40 40 37 35
33 26 20 21 23 23 24 23 18 12 9 6 5 10 16 18
13 4 1 1 2 15 20 15 19 25 26 26 25 25 24 24
24 23 21 24 25 26 26 26 26 26 27 26 27 26 27 27
27 26 26 26 25 26 26 26 27 27 27 25 27 27 27 27
27 27 27 26 26 26 26 27 26 26 27 27 26 27 27 26
0 0 0 0 5 0 18 40 38 40 42 43 44 46 47 47
30 12 17 35 37 36 35 34 33 35 45 43 41 39 40 41
43 41 37 38 37 34 32 30 30 30 30 30 34 30 23 9
6 9 16 23 22 24 27 22 16 18 17 17 14 14 21 20
19 13 5 0 0 0 3 3 8 16 24 26 25 26 24 24
24 23 21 24 26 27 27 27 27 27 27 27 26 27 26 26
26 27 27 27 27 27 27 27 27 27 28 27 27 27 27 27
27 27 27 27 26 26 27 26 27 26 27 28 27 26 27 27
0 0 0 5 15 5 21 39 34 39 37 42 44 44 45 45
32 13 17 37 40 35 37 37 37 37 29 23 33 38 41 44
44 41 27 26 35 37 37 36 35 35 32 30 19 5 1 0
0 8 14 18 21 24 31 25 26 25 15 12 15 11 9 7
11 11 10 3 0 0 0 0 2 3 19 23 26 27 24 24
24 24 21 25 26 27 27 27 27 27 26 27 26 27 27 27
27 27 27 27 27 27 27 26 27 28 28 27 27 28 27 27
27 27 27 27 26 27 26 27 27 27 27 28 27 27 27 27
0 0 0 7 16 9 23 37 4 7 17 27 37 41 42 43
32 13 17 36 39 30 28 34 41 44 19 0 1 14 24 26
31 39 14 0 1 6 16 21 28 35 27 14 5 3 2 3
2 3 17 22 26 23 25 27 24 21 14 9 9 9 5 3
3 4 3 7 9 1 0 0 0 2 12 16 24 28 24 25
25 24 20 26 26 26 27 27 27 27 28 28 28 28 27 27
27 27 27 27 27 27 27 27 27 27 29 26 27 28 27 27
27 27 28 27 27 27 28 27 27 27 27 28 27 26 26 26
0 0 0 2 5 2 22 36 1 0 0 2 1 6 7 23
34 14 16 30 38 39 38 35 43 46 22 0 0 5 10 12
10 32 13 0 0 0 0 0 0 4 2 0 2 4 11 14
6 4 14 22 22 30 44 37 24 14 9 11 6 7 3 1
0 0 0 3 8 6 0 0 0 0 7 17 24 25 23 24
25 24 21 25 25 27 27 27 27 27 28 28 28 28 28 27
28 28 28 28 27 27 27 27 27 26 28 28 28 28 27 27
27 28 27 27 27 27 26 27 27 27 28 27 27 27 27 26
0 0 0 1 0 0 23 36 0 0 0 0 0 0 0 14
34 13 13 0 4 11 21 32 40 45 24 0 0 3 5 9
8 31 17 0 0 0 0 0 1 11 15 9 4 5 13 15
9 7 13 24 30 35 30 27 18 14 8 7 6 5 2 0
0 1 1 3 5 6 0 0 0 0 3 19 18 22 24 25
25 24 22 27 26 28 29 28 28 28 29 28 28 28 28 27
27 27 27 28 28 28 28 28 27 27 29 28 28 28 28 28
27 28 28 27 28 27 27 27 27 27 28 27 27 27 26 26
0 2 0 11 0 0 24 35 0 1 0 3 0 0 0 15
35 13 13 0 0 0 0 0 2 10 20 0 0 0 0 1
4 27 17 0 0 0 0 1 9 16 17 14 15 14 16 19
21 12 17 21 32 23 18 12 8 14 14 8 2 0 0 0
0 0 0 0 0 1 1 0 0 0 1 10 4 13 21 25
26 25 21 27 26 29 29 28 28 28 29 28 29 28 28 28
28 28 28 28 28 28 28 28 29 28 29 29 28 28 28 29
28 28 29 28 27 28 28 28 28 28 28 28 28 28 28 28
1 17 12 23 1 0 23 34 0 2 0 17 3 0 0 15
36 14 13 0 0 0 0 0 0 0 16 0 0 0 0 0
3 27 16 0 0 0 0 1 6 11 15 16 11 5 3 6
9 2 4 21 20 12 6 4 3 6 8 10 5 0 0 0
0 0 0 0 0 0 0 0 0 0 0 2 2 4 8 20
24 25 22 28 26 30 30 29 29 29 29 28 29 28 28 28
28 28 29 28 28 28 28 28 28 28 29 28 29 28 28 29
28 29 29 29 29 28 29 29 29 28 28 28 27 29 29 29
1 0 0 4 1 0 23 34 0 2 0 9 15 0 0 15
35 14 13 0 0 0 0 0 0 0 15 0 0 0 0 0
2 32 20 0 0 0 0 2 5 11 11 5 0 0 1 3
9 19 19 21 24 20 19 13 10 6 13 12 0 0 0 0
0 0 0 0 0 0 0 0 0 0 0 0 2 3 6 10
17 24 21 28 26 30 30 29 29 29 30 28 29 29 29 29
29 29 28 29 29 28 29 29 29 29 29 29 29 29 29 30
29 29 29 29 29 28 27 28 28 28 28 30 29 29 29 28
0 5 8 2 0 0 23 32 0 1 0 2 2 0 0 16
34 13 14 0 0 0 3 3 0 0 13 0 0 0 0 0
1 28 22 0 0 1 0 1 6 5 0 0 0 4 14 31
43 45 46 50 45 46 49 42 24 11 4 0 4 0 0 0
0 1 0 0 0 0 0 0 0 0 0 0 2 1 2 11
9 18 20 28 26 30 30 29 29 29 29 28 28 28 28 29
29 28 29 29 29 30 30 29 30 30 31 30 29 29 29 30
30 29 29 28 29 29 29 29 28 29 28 29 29 28 29 28
0 0 5 1 0 0 24 31 0 0 2 0 1 0 0 17
34 14 14 0 2 3 5 8 0 0 12 0 2 0 0 0
3 28 24 0 0 0 3 8 5 4 3 9 21 42 62 77
90 94 89 88 86 82 69 41 22 12 10 5 4 2 1 0
1 0 0 1 2 2 0 0 0 0 1 2 0 1 2 8
13 14 18 28 27 30 31 30 29 30 30 29 29 29 29 29
29 30 30 30 29 30 30 30 30 29 29 29 30 29 30 30
30 29 30 29 30 29 29 29 29 28 29 29 29 28 29 29
27 22 17 11 5 2 25 30 0 0 5 0 0 0 0 18
33 14 14 1 11 3 4 1 0 0 13 0 0 0 0 0
6 28 27 0 1 9 15 2 0 0 14 54 78 89 99 103
106 105 105 104 102 94 68 38 24 12 9 8 7 2 1 1
3 0 0 2 4 7 4 1 0 1 2 5 1 0 1 11
15 12 16 27 27 30 30 29 29 29 30 29 29 29 29 29
29 30 30 29 30 30 29 29 30 29 29 30 29 29 29 29
30 29 30 30 29 29 30 29 29 29 29 29 29 29 29 29
38 39 47 47 45 43 38 41 18 10 12 12 9 4 3 21
32 14 14 3 5 0 0 2 0 0 16 0 0 1 0 0
9 31 37 6 3 12 2 0 1 26 73 93 95 104 108 111
112 111 110 108 105 85 60 48 25 7 7 11 6 2 1 1
2 2 0 1 4 3 6 9 6 0 3 1 1 0 1 3
17 17 11 22 25 29 30 29 29 30 29 29 30 29 29 29
30 30 30 29 30 30 30 29 29 29 28 29 28 29 29 30
30 29 30 30 29 29 29 28 29 29 29 28 29 28 29 27
10 18 22 24 28 38 40 58 52 28 34 36 40 39 35 36
27 14 14 1 0 0 0 0 0 0 31 37 26 20 18 9
2 25 46 9 8 1 0 0 24 74 89 95 101 107 111 112
111 114 113 113 108 79 69 44 15 11 9 12 3 3 2 1
1 4 1 3 1 1 10 15 13 7 6 3 0 1 0 4
16 24 14 15 24 30 30 29 28 29 29 29 29 29 30 30
30 29 31 29 30 30 30 29 29 30 29 29 30 30 30 29
29 30 30 29 29 29 28 27 26 27 26 26 25 26 26 28
6 15 12 9 0 14 55 60 45 26 36 44 48 45 46 45
28 14 14 1 0 0 0 0 0 0 34 51 39 41 43 45
42 48 42 5 4 0 0 14 65 84 90 98 107 111 113 113
113 117 117 114 107 77 74 32 21 15 18 11 3 5 2 1
2 2 2 6 2 4 11 15 10 3 8 6 5 0 0 0
5 15 16 13 21 30 29 29 29 29 29 29 30 29 29 29
29 29 31 29 30 29 29 29 29 29 29 28 29 29 29 29
29 29 28 29 27 28 28 27 27 28 27 25 23 19 16 13
3 3 1 1 0 15 54 56 36 29 38 44 45 45 49 47
29 14 16 6 1 0 0 0 0 0 36 47 38 45 47 50
47 39 30 2 0 0 6 56 79 87 94 103 109 112 115 116
116 116 116 116 104 82 62 32 28 20 17 10 4 5 4 0
1 0 1 5 1 2 9 16 5 0 2 4 4 0 0 0
2 1 11 12 12 27 30 30 29 29 30 29 30 29 30 29
29 28 30 29 29 28 29 29 29 29 28 28 28 30 29 29
30 29 29 28 25 25 30 21 15 12 11 10 9 9 9 10
3 1 0 0 0 14 53 49 20 9 19 26 30 34 37 45
30 15 17 33 38 31 22 13 7 3 34 35 38 45 47 51
50 41 27 0 0 0 39 77 85 90 99 108 111 114 115 118
117 118 117 116 108 93 67 30 27 18 11 7 6 4 4 4
0 2 0 3 2 0 8 4 2 0 2 4 2 0 0 2
5 0 1 6 9 21 30 29 29 29 29 28 29 29 29 29
27 28 30 29 29 29 29 29 29 30 30 30 29 28 25 23
19 16 14 12 11 11 29 19 6 10 12 13 13 14 15 16
0 0 0 0 0 13 52 49 15 0 0 0 0 0 0 20
31 15 17 36 48 46 45 44 43 42 45 28 34 41 44 47
48 42 26 0 0 16 70 83 88 96 104 109 113 115 117 118
118 119 119 117 115 106 80 32 20 19 12 7 8 4 1 6
0 2 2 0 3 1 6 4 3 0 0 4 2 0 0 2
8 6 1 2 4 10 28 28 28 28 28 28 29 29 28 28
28 28 29 30 30 29 29 28 26 23 20 17 15 13 11 12
12 12 14 14 14 13 19 15 11 16 18 19 19 20 21 21
7 0 0 0 0 9 51 50 14 0 0 0 0 0 0 16
33 15 17 36 48 48 46 46 46 47 46 9 3 9 15 21
28 28 26 0 2 49 80 86 93 101 108 112 114 116 117 119
118 118 120 121 118 108 84 41 22 19 12 8 8 15 4 4
4 5 4 1 4 1 2 2 0 0 1 7 5 2 1 4
15 15 5 3 1 4 27 29 28 27 25 25 24 20 22 29
28 27 25 22 20 18 15 14 13 13 13 14 15 16 17 17
18 18 19 20 20 19 25 22 14 20 22 23 23 23 24 24
15 0 0 0 0 6 47 48 11 0 0 0 0 11 10 19
33 17 16 31 42 43 44 45 47 48 44 5 0 0 0 0
7 14 31 4 20 73 82 89 99 105 109 112 114 116 118 119
120 121 121 121 116 109 77 51 26 13 10 8 7 12 15 7
5 4 8 5 8 7 2 2 2 3 1 6 3 1 5 13
10 15 14 5 2 1 19 25 26 26 26 25 24 15 14 18
16 15 14 14 15 16 17 17 19 19 19 20 20 21 22 22
23 24 25 25 24 22 20 19 17 24 24 24 25 25 26 26
8 0 0 0 0 5 43 44 9 0 0 0 3 27 26 24
29 27 23 28 31 32 33 34 35 42 41 4 0 0 0 0
0 10 39 11 51 79 83 94 104 107 111 113 116 119 121 124
122 122 123 120 114 118 80 52 31 19 15 11 7 2 10 16
8 13 10 7 9 8 2 0 2 2 6 11 5 6 5 4
8 5 12 5 4 1 18 22 20 18 16 15 15 13 14 17
18 19 19 19 21 22 23 23 24 24 25 25 25 26 26 27
27 26 26 26 25 21 2 1 14 26 27 28 27 27 26 26
11 1 0 0 0 6 43 43 7 0 0 0 2 26 26 23
26 21 18 21 19 22 29 29 29 42 41 3 0 0 0 1
0 3 41 22 70 82 87 98 106 109 113 115 119 121 124 130
132 131 129 122 114 110 85 55 29 19 22 19 15 4 6 17
9 19 11 10 12 12 4 0 1 7 11 18 7 3 5 0
1 4 1 4 6 0 10 16 17 17 18 19 20 20 21 22
23 24 25 26 27 27 27 27 27 27 27 27 27 27 27 27
29 28 28 27 26 21 2 0 10 26 28 28 28 28 28 28
0 0 0 0 0 8 44 43 6 0 1 0 0 6 8 14
22 20 21 22 25 25 29 30 32 41 40 3 0 0 0 0
0 3 42 31 80 84 90 102 109 113 116 118 121 126 132 134
134 134 132 121 113 108 85 57 30 22 25 30 20 6 9 16
13 19 11 14 17 11 6 0 4 4 12 14 6 0 2 0
0 0 0 1 5 1 7 21 20 22 23 24 25 26 25 26
27 27 28 28 28 28 29 29 29 29 29 29 29 29 29 29
28 12 7 3 10 18 2 2 9 25 28 29 28 28 28 28
0 0 0 0 0 10 46 44 5 0 1 0 0 0 0 7
21 16 19 14 8 14 20 26 33 38 37 3 0 0 0 0
0 5 43 50 85 84 95 109 114 116 118 118 127 133 134 134
134 134 130 119 109 106 85 56 36 27 34 32 21 14 13 13
20 25 15 11 23 15 8 0 10 2 16 5 6 0 2 6
2 0 0 0 0 0 6 25 26 26 27 27 27 27 28 29
29 29 29 30 30 30 30 30 30 29 30 30 30 29 29 30
26 4 6 10 18 19 0 0 8 26 28 29 29 28 27 28
0 0 0 0 0 11 48 44 5 0 0 5 1 0 0 8
28 25 24 11 0 0 0 0 0 2 19 4 0 0 0 0
0 7 44 70 84 86 105 114 119 120 121 125 131 134 134 134
134 134 130 120 110 102 86 60 46 39 41 30 22 19 15 13
12 21 19 8 18 19 11 1 7 6 16 7 5 0 0 4
12 1 0 0 0 0 11 26 28 27 27 28 27 29 30 30
30 30 29 30 30 30 31 30 30 31 30 31 30 30 30 31
29 28 28 28 27 22 1 0 7 25 28 28 28 27 28 28
11 7 3 2 0 13 47 43 5 0 0 4 5 0 0 9
35 27 24 14 0 0 0 0 0 0 14 3 0 0 4 1
0 4 53 81 84 97 112 118 122 123 124 129 132 134 133 134
134 134 126 122 115 107 95 71 51 42 40 36 30 26 15 11
8 14 22 6 11 23 18 5 7 7 13 6 3 2 0 0
9 2 0 0 0 0 12 28 29 29 29 28 29 30 30 30
30 30 31 30 31 30 31 30 30 31 30 31 30 30 30 30
30 29 28 27 27 23 5 0 10 25 28 28 28 28 27 28
42 30 38 37 31 31 40 39 10 0 0 3 9 1 0 7
37 28 25 14 0 0 1 1 0 0 12 3 0 2 15 8
0 4 68 84 85 104 115 120 123 124 126 130 132 133 133 133
134 133 127 114 120 115 99 81 62 56 48 39 29 24 18 12
12 11 20 12 3 14 23 10 12 8 17 1 1 2 5 0
0 0 1 0 0 0 8 30 30 30 30 29 30 31 31 30
30 30 30 30 31 30 30 31 31 31 31 31 30 30 30 30
29 29 29 27 26 23 10 0 15 26 29 28 30 28 29 28
20 14 20 24 23 23 34 35 29 13 8 7 16 11 5 6
38 24 22 13 0 0 8 8 0 0 11 4 0 10 18 12
3 10 82 83 91 107 114 118 122 123 126 127 130 131 132 132
134 133 133 124 125 119 110 87 75 75 62 47 35 28 23 16
15 14 22 16 8 4 17 18 10 7 16 3 3 4 13 0
0 0 1 1 0 0 10 31 30 30 29 29 30 31 31 31
30 31 31 30 30 30 30 30 30 30 30 30 30 30 30 29
30 29 29 27 25 22 18 14 21 27 28 28 29 28 28 27
0 0 0 7 12 2 35 35 35 39 36 32 39 38 35 34
42 25 22 13 0 5 18 15 6 0 11 16 7 17 17 17
8 26 86 80 87 102 108 115 119 123 126 131 132 130 131 132
133 132 133 132 132 125 113 94 89 89 79 58 42 32 25 19
17 20 17 14 12 9 22 19 15 7 7 9 10 11 18 1
1 1 1 3 0 1 12 31 30 29 29 30 30 30 30 31
30 30 30 31 30 31 30 31 30 30 31 30 30 30 30 29
29 29 29 28 26 22 21 21 25 28 29 28 29 28 28 28
0 0 0 7 16 11 37 37 28 6 7 15 22 32 40 45
44 30 19 14 0 3 12 10 4 0 12 41 38 43 41 40
40 56 83 78 78 96 101 106 113 122 127 132 132 129 126 131
132 131 134 133 133 133 122 98 92 96 82 64 44 33 27 24
17 18 15 22 20 13 28 21 17 9 9 11 11 15 8 1
0 3 2 4 3 0 15 31 30 29 30 31 30 30 30 30
30 30 30 30 31 30 30 30 30 30 31 30 30 30 29 30
29 29 29 28 27 24 23 25 28 28 28 28 29 28 28 28
0 6 10 3 6 13 39 37 27 1 0 0 6 2 22 45
43 27 20 16 1 0 3 0 0 0 10 41 40 44 43 43
47 62 77 68 54 66 79 86 92 106 121 131 133 131 130 130
131 131 133 134 127 134 131 121 93 98 82 66 47 32 29 25
23 21 25 27 19 20 18 13 14 17 14 9 8 7 2 2
5 2 0 4 5 0 16 30 30 30 30 31 30 31 31 31
30 30 30 30 30 30 30 29 30 30 30 30 29 30 29 30
29 28 28 28 27 25 25 27 29 29 29 28 29 28 29 29
7 30 36 19 9 6 40 39 25 0 0 10 32 11 30 43
39 24 21 23 15 0 3 0 0 0 9 41 41 43 42 43
46 51 72 68 43 35 43 56 74 79 94 115 131 133 133 131
133 132 131 132 132 133 133 132 108 87 73 65 52 40 35 27
32 33 29 22 15 24 10 17 10 12 9 5 4 2 4 7
8 3 0 2 2 0 20 31 30 30 30 31 30 30 30 30
30 30 30 30 30 30 30 30 30 30 29 30 30 30 30 30
29 29 28 28 27 27 27 27 27 27 27 26 27 28 28 27
18 30 28 0 0 5 42 41 25 0 1 2 26 27 35 42
33 21 22 23 9 0 1 0 0 0 9 37 34 37 37 37
34 25 62 79 53 34 30 37 58 73 87 95 112 129 131 132
132 131 132 133 133 132 132 133 123 82 67 73 61 49 38 31
44 34 29 28 21 21 18 22 17 11 5 4 6 3 3 6
9 0 0 2 1 1 27 30 30 30 30 30 30 30 30 30
30 31 31 31 31 30 30 31 29 30 30 30 30 30 30 29
28 28 29 28 28 27 28 29 28 28 29 28 28 29 28 27
2 35 36 2 0 5 45 43 26 0 0 0 4 12 35 44
31 21 24 22 3 0 0 0 0 0 9 42 34 35 36 36
34 12 35 85 78 61 57 50 60 84 90 96 104 116 126 133
131 130 130 133 134 134 133 132 128 87 66 78 63 47 43 44
55 36 36 33 24 27 20 20 19 13 14 6 3 4 10 3
8 3 0 3 0 5 29 30 30 30 30 30 30 31 31 30
31 31 30 30 30 29 29 29 29 29 30 30 29 29 29 29
29 29 29 29 27 28 30 30 29 28 29 29 29 28 28 27
0 22 18 1 4 7 44 43 29 0 0 0 0 2 33 45
30 22 22 23 24 20 15 13 10 7 13 44 35 35 34 35
34 11 20 68 104 91 76 65 43 75 104 107 113 117 121 132
133 131 132 134 133 133 133 129 128 98 70 84 63 42 46 53
58 39 46 46 32 33 39 52 46 20 17 12 6 10 7 3
8 5 2 1 0 10 31 30 31 30 30 31 30 30 31 31
31 30 31 31 31 30 30 30 29 29 30 29 30 30 31 30
30 30 30 30 29 29 30 30 29 29 29 29 29 27 14 13
0 0 0 2 3 5 45 44 28 0 0 0 0 0 30 46
30 23 24 28 44 46 45 44 47 48 47 48 39 38 39 38
39 36 31 42 117 122 101 81 51 40 67 87 114 122 127 133
134 134 134 135 134 134 133 133 125 106 78 83 62 47 44 54
64 45 51 54 69 99 111 110 109 79 21 12 7 8 2 5
3 1 3 3 0 14 32 30 30 30 30 30 32 31 32 31
32 32 31 31 30 30 30 30 31 31 31 31 31 31 30 30
30 29 29 29 30 30 30 30 29 28 28 29 29 15 23 26
0 0 0 0 0 4 44 44 24 0 0 0 0 1 33 49
33 23 25 29 52 54 53 53 53 53 53 51 39 35 34 34
36 41 30 39 126 136 126 107 71 45 102 89 81 110 123 124
133 134 134 134 134 134 134 134 131 110 92 86 64 56 47 59
65 59 67 86 113 107 83 79 94 110 67 14 9 13 6 7
2 1 4 6 3 16 32 31 31 31 32 32 33 32 32 32
33 33 32 32 31 31 31 31 30 30 31 30 30 31 30 30
29 30 30 30 31 31 31 30 30 30 30 29 28 16 30 18
0 0 0 0 0 4 44 45 23 0 0 0 0 1 31 48
33 21 27 27 42 45 46 47 49 51 52 52 19 13 9 7
10 14 25 84 131 136 133 119 93 64 90 97 102 89 100 117
130 135 134 136 136 135 135 134 132 123 110 98 83 67 56 69
72 88 108 117 101 66 97 130 120 98 104 26 7 14 3 3
2 2 8 8 4 21 32 32 33 32 32 32 33 33 33 33
32 33 33 32 31 31 30 31 31 31 31 31 31 30 30 30
30 29 28 28 28 30 31 30 30 31 30 30 27 19 30 15
0 0 0 0 0 3 44 45 23 0 0 0 0 0 27 43
30 21 26 24 28 29 30 29 29 29 29 33 12 0 0 0
0 0 25 112 130 134 134 122 82 64 91 110 119 122 107 108
120 130 135 135 135 134 134 134 134 129 123 117 115 111 105 100
104 120 116 116 83 92 126 131 125 114 106 52 4 10 4 4
0 5 4 6 4 24 32 32 32 32 32 32 32 32 32 32
32 32 31 31 30 30 28 29 29 29 30 31 30 27 13 12
10 8 6 6 18 31 30 31 30 29 30 30 26 17 25 12
0 0 0 0 0 2 43 46 26 0 0 0 0 0 27 46
32 20 26 25 36 37 36 36 35 34 33 35 16 7 0 0
0 4 67 122 130 129 132 123 97 75 91 112 124 127 117 119
125 132 136 135 135 134 133 131 129 125 128 125 120 118 117 112
121 128 121 107 90 117 117 119 114 111 113 76 4 9 3 4
0 6 4 2 4 28 32 31 31 32 31 32 31 31 32 27
23 20 17 14 12 8 5 5 9 23 31 31 31 27 5 2
2 3 2 3 16 31 31 31 30 30 30 28 26 3 0 0
15 15 17 22 27 30 45 44 25 0 0 0 0 0 30 50
34 18 25 25 38 39 40 39 39 39 40 38 16 6 1 0
0 12 100 123 125 126 127 121 116 89 91 106 119 123 119 125
128 134 135 135 134 131 129 128 125 125 123 123 119 116 115 115
124 122 121 104 47 109 129 124 110 101 114 87 4 8 9 7
1 4 1 0 8 30 32 31 31 32 32 32 32 32 31 12
1 2 7 6 5 0 1 0 0 17 30 30 29 26 5 3
3 4 3 3 17 32 31 31 31 30 28 3 1 0 0 0
40 41 42 44 44 44 38 28 20 11 10 9 10 10 33 46
34 22 28 28 40 41 41 40 40 41 42 41 17 4 1 0
3 43 114 132 131 128 128 127 118 106 91 102 113 121 123 124
130 135 135 135 133 131 125 124 127 125 121 122 120 119 117 117
120 123 125 106 72 80 111 125 120 93 112 88 3 6 6 8
3 3 0 0 16 30 32 31 31 31 31 31 31 31 31 12
0 2 6 4 5 0 0 0 0 14 29 30 30 23 3 3
3 3 2 2 14 30 31 31 31 30 27 0 0 0 0 0
39 39 39 40 40 40 39 38 38 37 37 37 37 36 37 37
37 36 36 37 37 37 37 37 38 38 38 44 20 0 0 0
5 81 123 137 135 134 131 131 117 109 99 104 117 122 122 125
131 134 135 134 131 126 124 123 124 121 117 119 120 116 119 120
121 129 127 105 87 117 118 111 126 90 105 73 2 2 7 7
1 0 0 2 26 30 31 31 30 31 31 32 31 31 30 12
0 1 7 4 5 0 0 0 0 13 29 30 30 25 4 2
2 3 2 2 10 31 31 31 30 30 29 5 6 19 18 21
38 38 38 37 37 37 37 37 37 36 36 36 36 35 35 36
35 35 35 36 35 35 35 36 35 36 35 41 30 9 0 0
26 111 126 128 132 133 133 126 114 109 108 110 119 124 124 125
131 134 134 133 129 125 122 122 121 121 118 116 117 116 117 120
123 133 128 89 92 126 130 107 121 91 107 49 1 0 3 5
0 0 0 10 30 29 31 31 31 31 31 31 31 31 31 13
0 1 7 4 6 0 0 0 0 13 29 30 30 27 6 3
3 4 4 5 7 28 28 29 28 28 28 8 21 28 28 28
38 37 36 36 37 36 36 35 35 35 34 35 34 34 33 34
34 33 34 34 34 34 34 34 34 34 34 40 28 4 0 1
74 119 124 129 132 134 132 125 113 108 111 114 119 124 126 128
129 130 132 131 125 120 123 122 121 119 117 114 117 118 118 119
126 133 130 85 93 130 132 110 117 92 107 26 0 0 0 3
1 0 3 17 29 29 32 30 30 31 31 31 31 31 30 13
0 0 4 4 4 0 0 0 0 12 29 29 30 27 13 11
11 10 11 10 13 26 31 31 30 30 29 7 27 27 26 27
36 31 29 28 27 26 26 25 24 23 23 23 22 21 22 22
22 21 22 22 23 24 24 25 28 31 34 38 22 0 0 26
108 121 124 131 135 135 127 116 111 110 116 117 120 124 127 129
128 123 123 127 123 120 123 122 120 119 116 114 116 117 115 121
127 129 123 88 94 126 131 108 119 96 97 10 1 0 1 7
5 0 1 18 28 27 31 30 30 31 31 31 31 30 29 15
0 1 3 2 2 0 0 0 0 11 29 30 30 27 8 4
5 4 4 4 7 26 30 29 30 29 19 12 29 29 28 26
34 16 1 0 0 0 0 0 0 0 0 0 0 0 0 0
0 0 0 0 0 0 0 0 19 32 33 35 19 0 2 82
113 119 121 122 129 127 121 105 106 112 117 119 121 124 126 127
128 120 117 116 117 120 122 121 119 116 113 113 114 113 115 120
120 123 101 100 106 123 118 108 117 97 68 5 3 0 1 7
2 1 6 21 28 28 30 30 30 30 31 32 31 31 30 15
0 0 0 0 0 0 0 0 0 10 29 30 30 28 9 3
4 3 4 3 6 24 8 7 7 7 10 28 28 28 27 26
34 20 1 0 0 0 0 0 0 0 0 0 0 0 0 0
0 0 0 0 0 0 0 0 20 36 33 34 22 5 35 109
120 123 120 117 116 118 117 107 96 110 114 117 120 127 130 130
126 121 117 112 118 122 119 120 116 112 111 112 108 108 111 116
117 116 89 101 116 118 119 119 103 99 32 3 0 0 3 4
0 4 13 24 28 28 31 31 30 31 30 32 32 32 30 16
1 0 0 0 1 0 0 1 0 9 29 30 31 28 9 3
4 4 3 3 5 12 22 30 28 27 29 29 28 28 27 26
33 23 3 0 0 0 0 0 0 0 0 0 0 0 0 0
0 0 0 0 0 0 0 0 16 36 33 33 38 41 75 111
129 128 121 119 118 124 119 108 85 104 112 116 121 129 132 131
126 122 118 115 115 120 121 120 114 111 110 108 103 103 107 110
109 119 118 125 125 116 120 115 110 67 15 6 0 0 5 3
0 6 22 25 28 28 30 29 30 31 31 31 32 31 28 16
1 1 1 2 7 1 0 2 0 8 28 30 31 29 10 3
3 4 3 4 5 6 29 31 29 29 29 28 27 27 23 5
33 24 5 0 0 0 0 0 0 0 0 0 0 0 0 0
0 0 0 0 0 0 0 0 13 36 32 32 41 47 80 110
121 125 127 130 132 131 121 108 82 93 108 114 121 129 131 132
131 126 121 117 119 121 119 116 112 107 107 103 103 100 105 106
108 114 117 124 127 124 123 120 87 38 13 2 1 0 2 0
0 7 24 24 27 27 29 29 29 31 31 31 32 31 28 17
2 1 0 0 0 1 0 2 0 7 27 28 30 28 10 2
2 2 3 2 5 6 28 31 29 29 29 28 27 26 18 0
32 25 8 0 0 0 0 0 0 0 0 0 0 0 0 0
0 0 0 0 0 0 0 0 10 36 32 31 40 41 62 96
101 103 109 112 109 110 103 84 96 89 101 111 118 124 128 128
129 127 124 121 120 118 115 114 111 108 106 104 102 100 101 100
106 121 122 122 124 124 117 95 56 44 20 1 2 2 2 3
1 17 24 24 27 27 29 29 30 30 31 31 32 29 28 18
1 1 0 0 0 1 1 2 0 7 27 28 31 29 10 2
3 3 2 2 4 6 27 30 29 28 28 27 27 26 19 0
31 25 9 0 0 0 0 0 0 0 0 0 0 0 0 0
0 0 0 0 0 0 0 0 7 34 31 29 35 29 36 58
73 67 47 34 48 74 75 95 111 97 90 106 114 120 127 126
126 124 123 120 120 117 115 109 109 108 103 105 102 96 97 98
106 122 129 124 120 108 80 61 54 39 10 0 0 0 1 1
5 25 28 26 28 26 28 29 30 30 32 32 32 30 28 19
2 1 1 0 0 0 0 1 0 6 27 28 30 28 10 3
3 3 2 2 4 8 25 29 29 29 28 27 26 27 21 4
30 25 11 0 0 0 0 0 0 0 0 0 0 0 0 0
0 0 0 0 0 0 0 0 5 32 30 28 33 14 14 18
22 25 26 44 83 99 98 104 107 105 92 102 113 117 121 123
121 123 121 120 114 115 115 112 108 107 103 104 101 94 90 93
102 108 114 106 80 53 59 62 52 32 4 0 0 1 0 2
18 40 38 36 35 32 28 28 29 31 32 32 32 29 28 20
2 1 1 0 1 0 0 1 0 5 26 26 29 27 11 1
2 2 2 0 2 10 19 30 29 29 28 27 26 26 24 11
29 25 12 0 0 0 0 0 0 0 0 0 0 0 0 0
0 0 0 0 0 0 0 0 2 29 29 26 32 6 0 0
0 2 8 38 75 101 105 104 103 101 103 99 110 118 120 121
122 124 121 118 115 113 110 109 108 105 101 103 98 91 87 89
99 79 51 53 60 69 69 61 48 28 2 0 1 0 0 12
37 41 38 37 36 35 29 26 28 30 33 32 32 30 28 21
2 0 1 1 0 0 0 1 0 4 25 26 27 26 14 4
6 4 2 5 5 14 11 28 29 28 27 26 26 23 22 32
29 24 14 0 0 0 0 0 0 0 0 0 0 0 0 0
0 0 0 0 0 0 0 0 1 27 28 24 32 8 0 0
0 0 1 40 72 100 103 104 104 98 102 105 110 117 123 122
120 122 121 119 118 114 112 109 110 106 98 93 93 85 82 84
97 88 95 111 104 96 88 68 47 23 6 2 0 0 7 35
42 41 38 36 36 35 30 24 28 30 32 32 32 29 28 22
2 0 0 0 0 0 0 0 0 3 24 25 28 26 25 24
25 21 19 24 22 24 5 26 28 28 27 25 24 14 2 5
27 23 14 0 0 0 0 0 0 0 0 0 0 0 0 0
0 0 0 0 0 0 0 0 0 23 27 24 32 15 0 0
0 0 0 43 75 98 106 107 108 103 99 107 110 116 119 124
120 116 120 120 115 116 113 110 106 103 97 88 91 86 78 84
95 93 109 115 112 103 89 66 44 22 9 2 0 14 39 44
42 41 38 37 36 36 32 23 27 29 31 31 32 30 28 23
3 0 0 0 0 0 0 0 0 2 23 24 26 26 26 26
27 26 25 24 24 24 15 8 18 10 4 3 2 0 0 0
27 23 14 0 0 0 0 0 0 0 0 0 0 0 0 0
0 0 0 0 0 0 0 0 0 21 26 23 22 7 0 0
0 0 0 64 82 107 114 116 111 100 92 104 107 116 120 124
120 116 119 118 115 115 114 111 105 103 100 92 88 82 79 83
98 106 115 113 111 100 85 62 39 25 9 6 8 41 46 44
42 39 39 37 35 35 32 21 25 27 30 30 31 30 29 24
4 0 0 0 0 0 0 0 0 2 24 27 29 28 27 26
26 26 26 25 17 13 9 1 0 0 1 1 0 0 0 0
26 23 14 0 0 0 0 0 0 0 0 0 0 0 0 0
0 0 0 0 0 0 0 0 0 19 25 22 15 0 0 0
0 0 0 50 78 89 104 114 113 107 77 90 102 114 119 119
118 117 118 117 114 111 111 108 105 103 99 92 86 82 80 84
102 115 120 118 111 96 80 58 35 25 14 10 31 45 46 45
42 38 39 38 36 36 33 22 24 27 29 31 31 30 29 24
4 0 0 0 0 0 0 0 0 5 26 29 28 28 27 26
26 25 25 18 0 0 0 0 14 0 0 0 0 0 0 0
24 22 14 0 0 0 0 0 0 0 0 0 0 0 0 0
0 0 0 0 0 0 0 0 0 16 25 21 14 0 0 0
0 0 0 16 55 52 56 61 62 60 42 51 97 113 119 122
123 120 118 117 114 111 109 106 104 102 96 91 83 80 77 90
106 117 120 119 113 96 75 54 34 34 29 25 45 47 46 46
43 39 40 37 35 35 33 23 23 27 29 30 31 30 29 26
12 9 7 6 6 5 2 1 9 17 27 29 29 29 26 26
25 24 24 16 0 0 0 18 63 29 0 0 0 0 0 0
24 22 14 0 0 0 0 0 0 0 0 0 0 0 0 0
0 0 0 0 0 0 0 0 0 14 24 20 15 0 0 0
0 3 0 7 37 35 79 68 67 72 72 85 84 110 118 117
122 121 121 117 115 110 108 103 102 96 93 86 80 78 79 93
111 116 117 119 109 93 70 49 35 40 36 29 44 47 45 44
44 40 40 38 36 35 34 26 22 26 28 30 31 30 28 28
26 24 20 17 17 15 3 1 16 22 28 30 30 28 27 26
25 24 20 10 0 0 0 29 41 39 0 0 0 0 0 0
23 21 13 1 0 0 0 0 0 0 0 0 0 0 0 0
0 0 0 0 0 0 0 0 0 13 24 20 15 0 1 0
0 5 1 4 47 58 72 91 96 101 109 112 86 103 111 113
118 119 116 115 109 108 105 101 96 96 91 83 79 79 85 103
113 117 117 118 110 92 71 48 34 42 36 29 45 48 46 43
43 40 39 39 37 36 34 29 20 25 26 30 30 30 29 27
27 26 22 19 18 17 4 2 19 24 27 29 29 28 26 25
24 21 0 0 0 0 0 0 0 0 0 0 0 0 0 0
24 21 15 1 0 0 0 0 0 0 0 0 0 0 0 0
0 0 0 0 0 0 0 0 0 11 24 19 16 1 5 0
0 10 12 4 61 74 90 102 107 111 115 115 96 97 111 115
113 113 115 111 107 104 104 96 94 94 88 80 78 80 91 105
117 120 118 118 107 93 69 44 36 45 40 31 45 49 46 44
43 41 39 39 36 36 32 30 19 24 26 29 29 29 28 27
27 26 23 21 21 20 6 2 21 24 27 28 29 28 26 25
25 22 1 0 0 0 0 0 0 0 0 0 0 0 0 0
22 20 14 1 0 0 0 0 0 0 0 0 0 0 0 0
0 0 0 0 0 0 0 0 0 10 23 19 16 3 8 3
3 13 19 12 55 81 96 102 108 115 117 115 101 94 105 111
113 112 112 109 107 102 99 98 94 89 84 80 81 83 100 114
120 121 119 116 107 91 67 42 38 47 43 33 25 34 44 44
43 42 40 38 36 36 33 31 20 24 26 28 29 29 28 26
27 26 24 22 22 22 7 1 21 24 26 27 27 26 25 25
24 23 2 0 0 0 0 0 0 0 0 0 0 0 0 0
23 21 14 1 0 0 0 0 0 0 0 0 0 0 0 0
0 0 0 0 0 0 0 0 0 9 23 19 19 25 32 34
35 38 41 41 50 64 82 97 107 115 119 115 103 95 100 105
111 112 109 109 107 104 97 97 92 89 84 86 87 93 105 116
120 120 119 115 103 85 65 40 39 47 44 37 18 10 19 40
43 43 40 38 36 35 34 32 21 22 25 27 28 29 28 27
26 26 24 23 24 23 10 1 22 23 25 26 26 26 25 24
24 23 16 1 0 0 0 0 0 0 0 0 0 0 0 0
22 20 14 2 0 0 0 0 0 0 0 0 0 0 0 0
0 0 0 0 0 0 0 0 0 8 23 19 19 37 44 46
47 48 49 50 52 52 75 94 109 113 117 113 104 99 100 105
109 109 108 107 104 101 95 92 89 88 87 89 94 101 111 117
120 120 117 113 102 85 62 38 40 48 47 40 27 20 6 24
46 43 39 38 37 36 35 32 24 20 25 27 28 29 27 27
27 26 25 25 26 25 12 1 21 24 24 25 25 25 25 24
23 22 13 0 0 0 0 0 0 0 0 0 0 0 0 0
22 20 14 2 0 0 0 0 0 0 0 0 0 0 0 0
0 0 0 0 0 0 0 0 0 8 22 18 19 40 44 44
44 44 45 43 43 45 70 95 105 110 113 110 105 102 103 107
107 107 105 107 102 101 91 92 92 90 92 98 101 104 114 118
122 117 115 112 100 84 56 39 42 49 49 45 34 15 8 15
64 43 40 37 38 38 35 32 26 19 24 26 27 28 27 26
27 27 26 26 26 26 15 0 20 26 25 25 25 25 24 23
23 21 6 0 0 0 0 0 0 0 0 0 0 0 0 0
21 20 14 2 0 0 0 0 0 0 0 0 0 0 0 0
0 0 0 0 0 0 0 0 0 6 22 18 17 18 17 18
17 17 18 17 18 21 59 89 101 107 109 108 111 107 106 106
108 108 106 104 105 99 96 93 93 95 100 104 102 107 114 119
122 118 117 109 98 82 54 38 43 49 51 47 40 15 1 10
71 53 39 37 39 38 35 33 29 18 23 26 26 24 20 22
21 23 26 26 27 26 17 0 20 26 25 24 25 24 24 24
24 22 7 0 0 0 0 0 0 0 0 0 0 0 0 0
21 20 14 2 0 0 0 0 0 0 0 0 0 0 0 0
0 0 0 0 0 0 0 0 0 6 21 18 15 11 9 11
12 13 14 15 16 18 57 84 98 103 106 110 111 109 107 108
110 111 109 104 103 99 94 93 96 97 105 106 105 106 115 120
119 121 113 107 96 78 54 39 43 52 55 54 46 29 1 5
67 61 40 37 38 35 35 33 31 21 28 32 27 18 16 13
10 13 23 25 26 24 17 0 17 25 25 25 25 23 24 23
22 19 0 0 0 0 0 0 0 0 0 0 0 0 0 0
20 19 14 2 0 0 0 0 0 0 0 0 0 0 0 0
0 0 0 0 0 0 0 0 0 6 21 18 16 13 13 13
14 15 16 16 17 19 62 89 99 103 104 112 114 113 111 111
111 110 105 102 100 93 94 98 100 105 103 105 102 106 110 116
119 117 112 106 97 77 55 40 44 53 58 60 50 41 8 6
64 77 48 38 38 33 35 39 38 36 34 29 29 17 14 11
6 11 20 25 24 24 18 0 14 24 25 25 25 24 24 24
23 14 0 0 0 0 0 0 0 0 0 0 0 0 0 0
20 19 14 2 0 0 0 0 0 0 0 0 0 0 0 0
0 0 0 0 0 0 0 0 0 7 23 18 16 16 17 17
18 18 19 18 18 21 64 90 98 104 108 110 112 112 113 114
108 105 104 96 94 94 100 100 104 106 101 103 103 106 111 118
117 113 113 106 93 78 54 40 46 56 64 64 58 46 23 8
58 79 54 35 30 25 34 46 42 42 29 21 17 13 11 13
5 11 17 24 23 23 17 0 11 23 23 24 24 24 23 22
21 5 0 0 0 0 0 0 0 0 0 0 0 0 0 0
20 19 13 2 0 0 0 0 0 0 0 0 0 0 0 0
0 0 0 1 1 2 3 4 5 14 23 17 16 16 17 18
19 19 20 20 18 18 63 86 95 106 108 112 117 112 112 109
103 101 97 94 92 99 102 100 101 105 105 104 101 105 112 117
118 114 108 102 91 75 52 40 48 58 66 68 63 50 37 14
56 72 64 27 20 21 28 41 32 22 16 12 10 9 10 14
3 8 14 22 22 21 17 0 10 22 22 23 24 23 23 22
18 0 0 0 0 0 0 0 0 0 0 0 0 0 0 0
20 18 15 5 0 1 2 3 3 5 6 7 8 10 10 12
13 14 15 15 15 15 15 15 15 15 15 14 15 16 17 17
18 19 20 20 18 20 55 79 92 103 107 112 110 111 110 102
97 93 94 93 96 99 99 99 101 104 103 100 100 106 113 113
114 114 111 103 92 71 49 41 49 60 71 73 64 56 45 29
57 72 70 31 19 18 17 16 14 14 12 9 10 8 11 10
3 7 10 20 21 20 17 1 8 22 22 22 23 23 22 21
16 0 0 0 0 0 0 0 0 0 1 0 0 0 0 0
20 18 19 18 15 14 15 15 16 16 16 15 15 15 16 16
15 16 15 15 15 16 15 15 15 14 15 15 15 16 17 18
19 18 19 20 18 21 39 71 88 96 104 107 103 108 106 101
95 87 88 93 95 100 101 99 98 100 103 101 100 109 112 112
110 114 111 104 92 69 45 42 50 63 75 76 68 59 51 36
63 73 64 38 20 13 13 12 12 13 10 10 9 12 13 13
5 7 6 16 20 20 18 1 6 22 22 22 23 23 22 21
4 0 0 0 0 0 0 0 0 0 0 0 0 0 0 0
19 19 18 17 16 10 14 15 16 16 16 15 16 15 16 16
16 16 16 16 16 15 15 15 15 15 15 14 14 16 18 19
19 20 20 20 20 21 28 54 76 85 91 100 101 99 92 92
85 85 89 94 92 96 98 99 98 100 100 98 98 107 109 110
112 115 110 105 92 72 44 44 50 65 80 80 70 63 59 38
66 68 66 43 37 31 24 17 15 14 14 13 13 13 12 12
8 6 4 12 20 19 17 2 5 21 22 22 23 22 21 19
1 0 0 0 0 0 0 0 0 0 0 0 0 0 0 0
19 18 18 17 16 9 13 14 15 15 15 15 15 15 15 16
16 15 16 15 15 13 13 12 11 11 11 11 13 16 18 19
19 19 20 19 19 21 25 35 63 72 74 80 86 81 78 74
76 82 88 88 85 90 92 94 96 98 98 99 103 109 109 110
113 110 110 105 92 71 45 45 52 67 80 81 75 71 68 45
67 74 66 45 36 39 38 45 52 38 29 25 21 16 14 12
9 4 4 9 19 19 18 13 14 23 24 23 22 21 20 17
1 0 0 0 0 0 0 0 0 0 0 0 0 0 0 0
18 17 18 17 16 14 14 14 14 13 13 12 11 10 9 8
7 5 4 3 2 1 2 6 8 11 13 13 15 17 18 19
20 20 20 20 20 21 25 27 37 57 62 60 55 53 58 61
64 71 74 77 82 86 89 96 97 101 104 103 107 112 112 113
114 112 111 107 91 68 45 46 52 65 81 84 80 75 73 46
51 74 59 47 42 38 42 54 62 62 61 53 42 35 37 34
31 25 20 20 25 19 17 18 18 21 23 22 22 21 23 15
0 0 0 0 0 0 0 0 0 0 0 0 0 0 0 0
6 6 5 4 3 2 1 1 1 0 0 0 0 0 0 1
1 1 2 1 0 0 1 6 9 10 12 13 14 16 17 17
18 19 19 19 19 21 25 26 27 29 32 31 30 39 35 35
47 55 61 72 82 87 90 100 105 107 109 112 111 114 114 111
110 108 109 103 92 67 46 46 51 65 83 86 85 84 75 54
58 79 50 47 38 38 49 67 68 66 62 65 63 60 52 43
39 35 31 26 20 16 16 18 20 18 17 19 22 20 26 12
0 0 0 0 0 0 0 0 0 0 0 0 0 0 0 0
0 0 0 0 0 0 0 0 0 1 10 14 16 17 18 20
21 21 21 19 2 0 0 5 9 9 11 12 14 15 16 18
19 19 20 20 20 22 25 26 27 28 30 39 54 60 22 2
2 13 32 61 81 91 100 104 109 109 108 109 109 115 108 109
112 111 108 105 92 65 45 47 52 67 87 90 90 86 72 56
75 75 45 47 35 49 45 67 68 72 66 70 66 68 65 59
56 43 33 28 24 21 14 17 20 19 17 19 20 17 14 0
0 0 0 0 0 0 0 0 0 0 0 0 0 0 0 0
0 0 0 0 0 0 0 1 2 7 31 33 33 32 31 29
26 27 31 29 10 2 2 6 8 9 11 13 14 16 17 18
20 21 21 22 23 24 26 26 28 39 54 61 60 58 54 52
19 11 0 17 44 74 95 102 108 110 108 109 107 108 109 110
111 113 110 104 87 62 46 49 54 68 89 96 93 88 65 57
78 62 44 40 34 46 53 73 76 74 78 74 73 62 62 63
63 63 59 46 41 37 35 31 24 16 9 6 4 1 1 0
0 0 0 0 0 0 0 0 0 0 0 0 0 0 0 0
0 0 0 0 0 0 0 0 2 5 29 29 30 31 29 28
27 30 39 39 25 10 9 6 7 10 13 16 17 21 21 22
24 25 26 27 27 28 28 36 53 60 55 60 58 58 61 72
46 34 4 50 67 69 70 90 100 106 105 102 107 106 108 110
111 115 109 100 84 61 47 54 62 69 85 96 96 83 62 79
73 50 39 40 33 47 61 74 78 77 81 77 74 71 79 73
64 70 66 62 60 60 50 27 4 0 0 0 0 0 0 0
0 0 0 0 0 0 0 0 0 0 0 0 0 0 0 0
0 0 0 0 0 1 10 16 17 16 25 38 39 40 38 38
36 34 34 32 24 14 15 15 15 15 13 12 11 23 19 21
25 26 27 28 28 35 48 63 65 61 58 54 56 61 65 79
61 44 17 49 78 82 79 67 87 101 102 104 106 108 113 113
113 113 110 100 85 59 49 61 70 71 81 95 94 69 81 81
62 45 41 35 33 53 68 71 69 72 76 87 80 78 82 71
73 73 74 68 68 65 68 62 54 32 7 0 0 0 0 0
0 0 0 0 0 0 0 0 0 0 0 0 0 0 0 0
0 0 0 1 1 4 12 16 16 15 18 29 28 26 24 23
21 21 20 19 14 7 7 6 5 5 5 5 7 23 21 23
26 27 31 38 48 69 68 72 74 73 63 58 58 59 67 75
80 47 27 35 81 85 87 77 75 94 99 102 106 112 113 115
117 116 115 104 82 57 54 68 74 77 82 86 72 79 83 74
53 43 41 35 36 62 68 68 74 75 79 78 79 78 77 78
72 73 82 71 69 75 72 67 76 58 53 41 17 0 0 0
0 0 0 0 0 0 0 0 0 0 0 0 0 0 0 0
9 11 15 17 18 17 18 17 17 17 16 16 17 17 17 17
18 18 18 18 13 5 5 4 5 5 5 5 7 23 22 28
42 60 68 76 77 83 81 74 79 83 67 63 60 62 68 81
82 64 44 27 72 94 92 88 71 78 87 92 99 106 110 112
118 118 114 102 82 57 61 74 86 83 81 65 62 37 78 63
44 42 44 28 49 68 70 69 69 84 76 77 77 82 77 78
88 94 88 90 79 78 78 77 79 70 72 63 64 45 13 0
0 0 0 0 0 0 0 0 0 0 0 0 0 0 0 0
7 9 14 16 16 15 14 13 12 9 8 6 5 3 7 18
18 17 18 18 13 4 4 4 5 5 5 5 10 40 57 73
77 79 77 81 73 89 88 79 80 81 69 64 62 59 75 82
54 30 61 43 35 89 104 99 88 66 68 80 96 103 107 110
116 118 113 100 79 57 68 85 95 87 64 57 57 8 56 48
42 34 44 26 54 68 64 67 84 84 75 75 75 85 84 82
76 76 81 69 85 77 77 75 71 70 69 68 65 67 61 31
1 0 0 0 0 0 0 0 0 0 0 0 0 0 0 0
2 6 13 16 16 9 1 0 0 0 0 0 0 0 3 18
18 18 18 18 14 4 4 4 4 4 13 46 69 78 76 76
77 75 75 83 84 81 82 88 83 78 66 63 58 60 76 35
0 5 52 58 34 53 106 114 110 98 76 79 88 94 96 108
118 119 111 100 77 60 81 93 99 91 55 62 51 6 43 52
42 36 36 36 69 75 66 65 74 84 89 88 82 77 81 83
89 88 80 73 72 75 79 74 75 74 72 68 66 64 66 62
37 21 14 0 0 0 0 0 0 0 0 0 0 0 0 0
2 6 13 16 15 7 0 0 0 0 1 2 4 6 11 17
18 18 18 17 14 4 5 8 16 49 69 79 76 81 80 90
77 79 77 85 83 83 79 84 76 84 68 62 61 57 58 26
2 4 44 75 50 35 86 115 118 118 107 95 95 91 89 103
116 118 111 99 74 67 91 102 104 93 52 63 65 0 45 46
38 38 32 49 80 72 69 69 75 84 75 76 80 77 76 87
73 78 76 76 72 72 75 73 77 73 71 66 75 68 70 58
65 47 18 0 0 0 0 0 0 0 0 0 0 0 0 0
2 5 12 16 15 13 7 8 10 12 13 14 15 16 17 19
20 22 23 25 25 22 29 58 76 77 74 77 77 80 82 86
76 81 74 78 86 92 81 82 86 75 70 63 65 68 43 27
9 0 18 76 73 40 58 107 119 121 120 109 106 100 84 100
114 119 112 96 71 74 100 107 107 92 55 66 70 2 64 39
39 41 36 65 74 71 69 72 76 79 87 85 82 87 85 79
80 76 78 77 81 83 73 84 82 80 84 74 74 74 72 64
66 51 33 0 0 0 0 0 0 0 0 0 0 0 0 0
4 6 12 16 15 15 15 16 18 19 20 22 24 25 27 26
25 24 22 23 24 39 70 73 80 80 77 76 81 76 80 80
81 80 76 72 80 82 82 81 76 76 67 62 66 71 44 35
22 3 28 85 86 56 44 80 119 124 124 118 110 101 86 97
116 120 114 96 71 80 107 113 110 86 62 75 72 20 62 38
45 39 43 68 77 71 70 79 80 79 77 87 84 83 73 79
77 81 74 77 76 81 81 76 77 75 67 71 76 74 75 76
68 50 59 19 0 0 0 0 0 0 0 0 0 0 0 0
4 14 20 24 23 24 24 24 26 23 21 20 19 19 22 25
21 22 25 26 41 68 73 73 76 79 79 81 84 85 79 81
88 80 80 76 82 81 77 82 73 74 67 64 64 71 63 36
38 15 54 61 93 80 54 56 108 123 127 126 118 104 84 100
114 119 112 94 74 86 112 116 109 76 68 80 55 35 44 38
40 42 71 86 73 66 73 78 84 81 82 82 85 81 84 80
79 91 79 75 74 73 70 78 81 81 84 73 74 77 74 71
66 51 67 49 5 0 0 0 0 0 0 0 0 0 0 0
19 29 22 19 18 17 16 17 24 20 20 23 24 25 27 28
28 29 29 44 68 73 74 81 81 84 79 82 85 85 83 87
84 77 83 76 81 79 79 80 77 79 68 59 68 66 70 49
51 21 56 43 61 82 77 50 80 120 128 127 124 109 85 97
115 119 112 93 75 93 116 117 94 74 74 76 33 47 43 41
35 59 76 78 70 72 75 80 78 78 81 82 76 80 76 77
77 73 75 76 86 88 90 83 89 75 68 70 84 74 77 73
65 54 62 54 34 2 0 0 0 0 0 0 0 0 0 0
13 28 25 23 23 25 25 25 27 26 27 27 28 28 28 29
30 31 37 65 67 75 78 84 80 80 90 89 85 80 78 82
85 83 90 78 83 77 82 81 83 79 72 67 69 69 69 73
52 45 50 51 47 62 67 56 56 106 128 130 126 115 87 98
116 119 111 92 77 99 118 112 80 75 74 30 40 46 45 35
54 82 82 73 72 69 79 68 88 77 77 80 77 78 78 78
78 74 87 78 76 80 72 82 78 89 85 71 75 83 74 69
69 57 69 60 67 45 1 0 0 0 0 0 0 0 0 0
6 16 27 30 28 28 29 28 27 28 28 29 29 30 31 31
31 36 67 72 68 82 70 79 82 79 84 81 83 81 72 80
85 80 85 83 79 76 77 70 87 82 81 77 69 68 70 74
65 51 53 71 52 64 70 52 59 86 129 131 128 116 89 99
117 120 108 89 77 102 108 87 74 81 65 27 44 47 42 52
83 78 72 83 68 76 72 88 75 74 84 84 87 78 77 88
82 83 70 89 84 89 94 84 88 74 70 83 83 76 74 77
72 59 70 56 72 71 22 0 0 0 0 0 0 0 0 0
11 17 24 28 28 28 31 31 28 30 29 30 29 30 30 31
32 54 78 75 71 81 76 82 86 93 92 90 86 78 86 85
81 85 81 79 82 82 87 80 82 79 79 79 71 73 62 61
81 64 64 76 60 52 64 56 85 78 117 131 129 117 90 99
118 120 107 86 77 88 80 85 73 50 30 42 41 41 50 81
86 80 82 70 70 75 83 73 83 87 81 72 78 75 79 75
82 78 78 77 74 76 81 74 81 91 74 76 83 77 71 59
77 63 82 60 65 67 63 8 0 0 0 0 0 0 0 0
26 30 31 30 27 24 28 30 29 30 31 30 29 25 22 18
26 71 84 80 75 80 77 83 83 78 79 81 87 85 83 82
87 75 88 84 90 89 82 84 71 80 78 78 83 80 81 62
53 72 63 80 76 46 60 67 90 88 86 113 130 116 91 101
118 120 107 86 71 73 73 81 56 35 27 62 45 50 75 85
88 81 80 79 71 73 71 89 80 81 78 85 76 76 81 83
81 85 84 85 82 80 86 94 88 86 67 87 82 81 82 56
72 67 72 65 65 63 79 44 0 0 0 0 0 0 0 0
25 33 34 33 32 18 20 22 17 12 8 5 2 1 0 2
59 81 84 85 72 79 77 85 91 90 88 82 85 86 92 92
89 87 82 89 87 81 84 81 78 78 81 83 82 83 86 86
76 69 74 76 90 65 59 66 80 93 89 92 112 114 92 104
119 120 107 74 76 73 61 41 38 49 42 65 59 76 93 80
86 75 83 76 76 74 79 72 83 74 83 77 80 78 83 90
79 77 83 85 90 78 86 84 87 81 71 81 85 79 76 54
73 69 76 70 56 60 78 68 16 0 0 0 0 0 0 0
33 31 29 21 8 1 1 0 0 0 0 0 0 0 0 31
83 82 87 79 73 81 76 79 79 80 81 88 87 84 80 80
80 82 81 81 85 75 78 81 82 81 83 87 86 88 87 87
89 82 63 74 83 80 70 59 69 78 91 90 90 101 91 105
120 119 96 83 87 75 53 41 49 71 67 70 64 93 80 91
78 82 84 79 75 78 74 82 78 82 76 85 81 77 94 77
94 78 86 86 84 81 84 82 81 83 75 84 82 77 73 53
77 71 72 71 56 69 71 76 38 2 0 0 0 0 0 0
8 6 2 1 0 0 0 0 0 0 0 0 0 0 3 73
80 86 87 79 73 80 83 79 89 86 86 87 86 83 90 84
86 83 83 89 83 78 81 83 77 85 85 86 83 87 87 82
82 83 72 82 79 78 86 74 65 65 81 94 86 77 91 110
122 113 84 85 77 55 50 49 61 83 61 80 72 84 95 79
77 82 82 88 78 85 87 80 80 73 88 79 71 85 85 93
77 91 85 87 77 79 83 86 92 82 82 84 78 82 74 55
76 80 79 71 57 61 58 72 53 22 0 0 0 0 0 0
0 0 0 0 0 0 0 0 0 0 0 0 0 0 37 81
77 77 88 81 74 84 78 82 87 90 88 90 84 88 94 83
91 83 86 89 84 91 84 85 83 83 82 88 83 85 88 84
82 97 94 79 86 89 77 79 74 74 62 79 92 81 81 113
119 90 83 74 61 49 49 67 89 86 75 84 85 85 77 76
78 81 75 73 85 79 85 83 86 86 78 81 80 91 84 86
98 75 85 82 78 74 85 79 91 74 73 82 77 77 62 54
81 84 84 75 59 59 59 78 59 43 4 0 0 0 0 0
0 0 0 0 0 0 0 0 0 0 0 0 0 7 69 77
76 84 78 79 75 82 82 83 82 88 88 86 87 85 88 86
84 84 87 89 86 90 93 90 77 83 85 83 87 85 83 91
93 89 87 74 84 92 86 85 90 79 80 77 76 86 87 104
97 77 64 47 54 58 65 85 93 86 80 83 90 91 89 71
79 90 92 87 76 77 76 80 79 75 76 75 86 86 75 78
76 75 90 89 89 96 96 87 74 79 90 89 77 76 53 60
82 87 88 78 67 51 63 74 60 51 27 0 0 0 0 0
0 0 0 0 0 0 0 0 0 0 0 0 0 35 75 75
66 87 81 82 70 78 85 79 82 88 89 89 87 87 86 84
87 89 84 84 83 83 85 84 85 92 82 88 80 80 91 88
79 80 91 86 88 85 83 75 78 92 82 72 85 72 80 84
81 61 41 51 71 69 92 83 85 85 89 84 77 85 82 84
83 80 80 75 81 87 88 84 80 80 87 87 89 84 86 91
92 90 89 80 78 81 74 76 82 75 83 74 82 87 56 63
82 86 83 83 70 50 59 69 60 52 52 2 0 0 0 0
0 0 0 0 0 0 0 0 0 0 0 0 9 60 77 70
69 85 83 78 79 84 80 79 77 81 81 81 77 77 86 81
79 81 81 82 86 96 88 85 83 83 95 83 80 92 94 87
84 93 97 89 83 93 94 93 88 79 80 88 82 84 73 61
53 58 54 72 81 86 77 92 87 81 84 92 86 75 81 84
86 92 88 89 94 82 87 77 79 80 76 81 72 81 80 88
92 71 77 81 80 74 91 88 94 71 82 83 82 71 49 79
86 81 82 81 63 45 56 70 66 49 65 20 0 0 0 0
0 0 0 0 0 0 0 0 0 0 0 1 42 59 79 63
70 88 80 77 75 85 81 85 89 93 91 92 89 87 90 96
91 89 80 84 82 85 87 89 80 89 85 87 91 90 89 87
90 80 82 86 88 90 88 87 87 84 86 82 80 78 65 49
54 73 83 81 78 84 79 77 85 81 80 83 79 87 79 80
79 77 78 71 85 86 89 101 85 86 91 88 88 76 74 81
69 82 87 87 85 96 80 85 73 73 87 79 72 71 45 83
79 85 86 74 66 45 49 67 63 49 68 50 1 0 0 0
0 0 0 0 0 0 0 0 0 0 0 18 67 59 74 57
78 81 80 74 81 79 86 83 79 84 80 83 81 79 82 83
78 83 80 81 88 93 91 79 85 79 92 84 79 86 92 89
88 90 84 86 81 85 92 86 88 95 98 90 79 68 44 51
74 90 90 81 80 85 84 89 84 85 83 87 84 81 83 84
90 81 89 82 80 86 77 77 78 84 84 80 73 81 83 82
86 76 81 71 79 69 79 81 75 68 73 81 81 83 51 85
81 82 72 71 64 47 46 74 64 49 73 62 13 0 0 0
