P2
128 120
155
0 4 11 6 0 0 0 29 51 44 37 38 37 38 37 37
37 36 36 36 36 35 35 34 34 34 34 33 33 33 32 32
32 31 31 31 31 31 30 29 29 29 29 28 28 28 27 27
27 26 26 26 25 25 25 24 24 24 23 24 25 27 30 29
29 29 21 19 26 18 27 25 24 23 23 22 23 22 21 21
21 15 21 20 24 24 24 25 24 25 24 24 24 25 24 24
24 24 24 24 25 25 25 26 26 26 25 26 26 26 27 27
27 27 27 27 27 28 29 28 28 29 29 29 29 28 29 28
0 7 9 5 0 0 0 28 50 43 37 37 37 37 37 37
37 36 36 36 36 35 35 35 35 34 33 33 33 32 32 32
31 31 30 30 30 29 29 29 29 29 29 28 28 27 28 28
27 26 26 26 25 24 24 25 24 24 24 24 25 27 29 30
29 29 21 19 27 17 26 25 24 24 23 23 23 23 21 21
20 16 22 21 23 24 23 23 23 24 24 24 24 25 24 24
25 25 24 25 24 25 25 25 25 26 26 26 26 26 25 26
26 27 27 27 27 28 28 28 27 27 27 26 27 27 28 28
0 0 4 2 1 0 0 29 51 43 37 37 37 37 37 36
37 37 36 36 35 35 35 34 34 34 33 33 33 32 32 32
32 31 31 31 30 30 30 29 30 29 29 29 28 28 27 27
27 27 26 26 25 25 25 24 24 24 24 25 25 27 30 30
29 29 21 20 27 18 26 25 25 24 23 23 23 23 21 21
20 16 23 21 24 24 25 24 25 25 24 24 24 25 24 24
25 24 25 25 25 26 26 26 26 26 26 26 26 27 27 26
27 27 27 28 27 27 27 26 27 27 27 28 29 29 28 28
0 0 1 7 6 0 0 29 50 42 37 37 37 37 37 37
36 36 36 36 36 36 35 34 34 34 33 33 33 32 33 32
32 31 31 31 30 30 30 30 30 30 30 30 28 28 29 28
27 27 26 26 26 25 25 24 24 25 24 25 26 27 30 29
30 29 22 19 28 19 26 25 26 25 24 24 23 24 22 22
21 17 23 21 24 24 24 24 25 25 24 25 25 25 25 25
25 25 25 25 26 26 25 26 26 26 26 26 27 27 27 27
27 27 27 27 27 28 28 29 28 28 28 28 29 28 29 29
0 0 2 7 6 0 0 28 50 42 37 37 37 36 37 36
36 36 36 35 35 35 34 34 34 34 34 33 33 33 33 32
32 32 31 31 32 31 30 29 29 29 29 29 28 28 27 28
27 27 27 26 27 26 25 25 25 25 25 25 25 27 30 29
30 29 22 20 28 20 25 25 26 25 24 24 23 24 22 22
22 18 24 22 24 25 24 25 25 26 25 25 25 25 24 25
25 25 25 25 26 26 26 26 26 27 26 26 26 26 26 27
27 27 28 28 28 29 28 28 28 28 29 29 28 28 28 28
0 0 2 1 4 2 0 27 48 41 36 36 37 37 36 36
36 36 35 35 35 34 34 34 33 34 34 33 33 32 32 32
32 31 31 30 30 30 30 29 29 29 29 29 29 29 28 27
28 27 26 26 26 25 25 25 25 25 25 25 27 28 31 30
30 30 22 19 28 21 23 26 26 25 24 24 22 23 22 22
21 18 22 20 24 24 25 25 25 25 25 26 25 25 25 25
26 26 26 26 26 26 27 26 26 25 25 26 26 26 26 27
27 28 28 28 29 29 28 29 28 28 28 29 29 28 28 28
14 8 2 0 4 5 11 33 50 41 36 37 37 36 36 36
36 35 36 36 35 35 35 34 34 34 33 33 33 32 32 32
32 32 31 31 31 30 30 30 30 30 29 29 29 28 28 28
28 28 27 27 27 26 26 26 25 25 25 26 26 28 31 30
31 29 23 20 28 24 22 27 26 26 25 24 23 24 23 22
22 19 23 21 25 25 25 25 25 26 25 26 26 26 25 26
26 26 26 26 26 26 26 26 27 26 26 27 27 27 27 27
27 29 28 28 28 29 29 29 29 29 29 28 29 29 29 28
35 36 36 31 26 19 19 36 48 40 37 37 37 37 37 36
36 36 35 35 35 35 35 34 34 34 34 34 33 33 33 33
32 32 31 31 31 31 31 30 30 30 30 30 29 29 28 28
29 28 28 27 27 26 26 26 25 25 25 26 27 28 31 31
31 30 23 20 29 27 21 27 27 26 25 25 23 24 23 24
23 20 23 22 26 26 26 26 26 26 26 26 26 25 26 26
26 26 26 26 27 26 27 26 26 27 26 27 27 27 27 28
28 29 29 29 29 29 29 29 29 28 29 29 28 29 29 29
26 28 30 33 36 38 40 41 41 38 38 37 37 37 37 36
36 36 36 36 35 36 35 35 35 34 34 34 34 33 32 32
32 32 32 31 31 31 31 30 30 30 30 30 29 29 29 29
29 28 28 27 27 27 27 27 27 26 26 26 27 28 31 31
31 31 24 21 29 29 21 28 27 26 26 26 25 25 23 24
24 21 23 22 26 27 27 27 27 26 26 26 25 26 26 26
26 27 27 27 27 27 27 27 28 28 27 28 28 28 28 29
28 30 29 28 28 29 29 29 29 29 30 29 30 30 29 29
17 19 22 26 29 32 33 34 37 38 38 38 38 38 38 37
37 36 36 36 35 36 35 35 35 34 34 34 34 34 34 34
34 33 33 33 32 31 31 31 31 31 31 31 30 30 29 29
29 29 28 28 28 28 27 27 27 26 27 27 28 29 33 33
33 32 26 22 29 31 21 28 27 27 27 26 25 25 24 25
24 22 24 23 26 27 27 26 26 26 27 27 27 27 27 28
27 28 28 28 28 28 28 27 28 28 28 28 28 28 29 30
30 30 30 30 30 30 30 29 29 29 30 30 29 29 29 29
14 14 14 14 15 17 22 26 31 36 38 39 39 39 38 38
37 37 37 36 36 36 36 36 35 35 36 35 35 34 35 34
34 34 33 33 33 32 32 32 32 32 32 32 31 31 31 31
30 29 29 29 29 29 28 28 27 27 27 28 28 29 33 34
33 33 27 22 30 33 22 29 30 28 28 27 26 25 25 26
25 22 25 23 26 27 28 28 28 29 28 28 29 28 29 28
29 30 29 29 29 29 28 29 29 30 30 30 30 31 31 31
30 31 31 30 30 30 31 30 31 31 30 30 31 31 31 31
14 15 15 15 14 14 14 16 16 17 19 23 27 32 36 38
39 39 37 37 37 37 36 36 36 36 35 35 35 35 35 35
34 34 34 34 33 33 33 32 33 32 32 32 32 32 31 31
31 30 30 29 30 29 29 28 28 28 28 29 29 30 34 34
34 34 28 22 31 35 22 29 30 29 28 27 28 27 26 26
25 23 25 26 28 29 28 28 29 29 29 29 29 29 29 29
29 30 29 29 29 29 30 29 29 30 30 31 31 31 31 31
31 31 32 32 31 32 32 31 32 31 30 30 32 30 31 31
20 16 15 15 15 15 15 15 14 14 15 15 14 16 16 18
22 27 31 37 37 37 37 37 36 36 36 35 35 35 34 34
34 34 34 33 33 32 33 33 32 32 32 32 32 32 32 31
31 30 31 30 30 29 29 29 29 27 28 29 29 30 34 34
33 33 27 22 31 35 25 28 30 29 29 28 27 27 26 26
26 24 25 26 28 29 29 28 28 29 29 28 29 29 30 30
29 30 29 29 29 29 29 29 30 30 30 30 31 30 30 31
31 32 31 31 31 31 31 32 31 32 31 30 29 29 29 29
47 43 42 43 39 34 30 22 16 16 15 15 15 15 15 15
6 7 16 34 37 36 36 36 35 35 35 35 35 34 35 35
35 34 34 34 33 33 33 33 32 32 32 32 31 31 30 30
30 30 30 29 30 29 28 28 28 28 28 28 29 30 34 34
33 33 28 22 30 35 26 27 30 29 29 28 27 27 26 26
26 25 24 26 29 29 29 28 29 29 29 29 28 29 29 29
29 30 30 29 29 30 29 30 29 30 30 29 30 31 31 31
32 31 31 31 31 31 31 30 30 30 30 29 29 31 31 31
54 48 45 53 53 50 48 34 24 28 25 19 13 13 14 15
13 12 16 34 37 37 36 36 36 35 35 35 36 35 34 35
34 33 34 34 34 33 33 32 32 32 32 32 31 32 31 31
30 30 29 29 29 28 28 28 27 28 28 28 29 29 34 33
33 33 28 22 30 35 28 25 30 29 29 29 27 28 27 26
26 25 23 26 28 29 29 28 29 29 29 29 30 29 30 29
30 30 30 30 29 30 30 30 30 30 30 31 31 31 31 31
31 30 30 29 30 30 30 31 31 30 31 30 30 31 31 31
52 45 48 48 52 52 52 38 33 38 43 42 36 34 28 20
13 13 15 33 36 37 37 36 35 34 37 36 36 36 35 35
35 34 34 34 34 33 33 33 32 32 32 32 39 40 36 33
31 30 29 27 19 19 20 19 14 14 16 19 20 22 21 23
27 32 28 21 29 36 29 22 30 29 29 28 28 27 27 26
26 25 24 27 29 29 29 29 29 29 29 29 30 29 29 30
30 30 30 30 30 30 30 29 30 30 30 31 30 30 30 30
30 30 30 30 30 30 31 30 30 30 31 30 29 30 30 30
35 29 40 44 50 51 51 40 38 41 44 43 39 48 48 46
24 15 18 34 37 37 37 36 36 38 47 44 44 41 38 36
34 32 33 33 34 33 32 32 33 32 32 34 45 44 41 38
33 21 11 3 5 11 19 17 16 13 14 14 13 8 1 0
4 8 20 20 29 35 31 20 31 30 29 28 28 28 27 26
27 26 24 27 28 29 29 29 29 30 30 30 30 30 31 30
30 31 31 30 30 29 30 30 30 30 30 30 31 30 31 30
30 30 31 30 30 30 30 30 30 29 30 31 30 31 31 30
17 0 1 5 10 17 35 43 41 43 46 46 48 50 50 50
28 14 19 36 38 37 37 37 36 39 48 46 45 42 42 41
41 40 36 35 34 34 33 32 33 32 32 34 43 43 38 24
16 12 8 14 14 9 10 9 3 3 6 11 16 7 7 9
11 7 4 5 14 26 31 20 31 30 29 29 28 28 27 27
27 26 24 28 29 30 30 30 30 31 30 30 31 30 30 30
31 31 30 29 29 30 30 30 31 31 31 29 31 31 30 30
30 31 30 30 30 30 30 30 30 30 30 31 30 30 31 30
0 0 0 0 7 1 21 44 42 44 46 47 49 50 51 52
34 14 19 39 40 39 39 38 36 39 49 47 45 43 44 45
47 45 41 42 40 37 34 32 33 33 33 33 37 33 26 23
18 12 7 4 0 7 7 3 7 9 8 4 6 8 5 7
15 12 8 4 1 5 14 18 30 29 29 29 29 30 27 28
27 26 24 28 29 30 31 30 31 31 31 30 30 30 30 30
30 30 31 31 31 31 30 30 30 31 32 30 31 31 30 31
31 31 31 30 30 30 30 30 30 30 30 31 30 30 30 30
0 0 0 7 18 6 25 43 37 43 41 46 48 49 49 49
34 15 19 40 43 38 41 41 40 40 32 25 37 43 45 47
48 44 30 28 37 40 41 39 38 38 35 34 29 16 24 18
17 11 3 0 3 7 11 11 12 9 4 4 5 5 3 3
1 3 4 6 1 0 0 2 19 24 29 29 29 30 27 28
27 27 24 28 29 31 31 31 30 30 30 30 30 31 30 30
30 30 30 31 30 30 30 31 31 30 32 30 31 31 31 30
31 31 30 30 30 30 30 30 30 30 30 32 31 30 30 30
0 0 0 8 18 11 25 40 5 8 19 28 39 45 46 46
35 15 19 39 43 34 32 37 44 47 21 0 1 16 26 28
34 42 16 0 1 6 16 23 31 38 39 36 28 11 7 14
19 11 1 0 2 6 5 3 1 4 12 4 2 0 0 0
0 0 0 0 2 2 0 0 3 5 20 27 28 30 28 28
28 27 24 28 29 30 30 30 31 30 31 31 31 31 30 30
31 31 31 31 31 31 31 30 30 30 31 30 30 30 30 30
31 30 31 30 31 30 31 30 30 30 30 31 31 30 30 30
1 0 0 3 6 4 25 39 2 0 1 2 2 7 7 26
37 16 19 33 41 43 43 39 47 50 24 0 0 7 13 14
12 34 15 0 0 0 0 0 0 4 12 25 12 14 13 14
13 13 10 3 0 3 7 2 2 7 5 5 6 9 5 2
0 0 0 0 0 0 0 0 0 2 4 21 29 30 28 28
28 27 24 29 28 30 31 31 31 31 32 31 31 31 31 31
31 31 31 31 31 30 31 30 31 30 33 31 31 31 31 31
31 31 31 31 31 31 30 31 30 30 32 31 31 30 30 30
0 0 0 1 0 0 26 39 0 0 0 0 0 0 0 16
38 16 16 1 4 12 24 35 43 48 26 0 0 4 6 11
11 34 19 1 0 0 0 0 0 3 18 11 12 16 17 15
13 17 17 8 6 8 10 7 5 9 11 14 13 9 3 0
0 0 0 0 0 0 0 0 0 0 0 5 16 26 28 28
28 28 25 30 30 32 31 32 32 31 33 32 32 32 32 32
32 31 31 32 31 31 32 31 30 31 33 32 31 31 32 31
31 31 32 31 32 31 31 31 31 31 31 31 31 30 30 30
0 3 1 13 0 0 25 38 0 2 0 4 0 0 0 16
38 16 14 0 0 0 0 0 3 12 24 0 0 1 1 1
5 29 19 0 0 0 0 0 2 16 13 12 14 17 24 17
12 14 18 12 11 13 16 14 8 10 9 6 5 2 3 6
9 8 2 0 0 0 0 0 0 0 0 0 4 21 27 29
29 28 24 30 30 32 32 32 32 31 33 32 32 32 32 31
31 31 32 32 31 32 31 32 32 32 33 31 33 32 31 32
32 32 32 32 30 31 31 31 31 30 32 32 32 31 31 31
1 19 13 25 1 0 24 38 1 3 0 19 4 0 0 15
39 16 15 0 0 0 0 0 0 0 19 0 0 0 0 0
3 29 19 0 0 0 2 7 10 6 11 7 13 18 24 22
18 18 14 11 17 16 19 18 16 6 4 5 7 15 26 45
51 46 30 22 15 1 0 0 0 0 0 0 1 3 23 29
29 29 25 31 30 33 33 32 32 32 33 32 32 32 31 32
32 31 32 31 32 32 31 31 31 32 32 30 31 32 32 32
32 32 32 31 32 32 31 32 32 32 31 31 29 31 32 31
2 0 0 4 1 0 25 37 0 3 0 10 17 0 0 16
38 16 15 0 0 0 0 0 0 0 17 0 0 0 0 0
3 34 21 0 0 0 5 18 11 8 7 12 17 21 24 15
18 15 13 15 21 18 18 15 9 13 16 20 28 45 65 83
84 77 68 58 45 32 6 0 0 0 0 0 0 1 15 29
29 28 24 31 28 32 32 32 32 32 32 31 31 32 32 32
32 31 32 32 31 32 32 32 32 32 32 32 32 32 32 32
32 33 32 32 32 31 31 31 30 30 31 33 32 32 32 31
0 6 9 3 0 0 24 36 0 2 1 2 4 0 0 17
37 15 16 0 0 0 3 3 0 0 14 0 0 0 0 0
1 31 24 0 0 1 11 19 6 9 7 10 6 13 14 11
14 18 20 24 23 23 27 18 26 36 28 33 53 75 88 93
91 89 91 84 71 57 41 10 0 0 0 0 0 3 11 27
29 28 25 31 29 33 33 33 32 32 32 31 31 32 31 31
32 32 31 32 32 32 32 32 33 33 33 32 32 32 32 32
33 32 32 32 32 33 32 32 32 31 32 32 31 30 30 30
0 1 5 1 0 0 24 33 0 0 3 0 1 0 0 18
36 16 15 0 3 4 6 9 0 0 14 0 3 0 0 0
4 30 26 0 0 0 19 7 6 8 6 9 4 9 11 12
24 26 32 34 47 50 45 38 54 38 34 53 79 87 94 97
99 102 104 96 84 72 60 41 7 0 0 0 0 4 15 18
29 29 24 31 29 33 33 32 32 32 33 32 33 32 32 32
32 32 33 32 32 32 32 33 33 31 32 32 32 32 32 32
32 32 32 32 32 32 31 31 32 31 31 31 31 30 32 32
30 24 19 12 6 3 27 33 0 0 6 0 0 0 0 18
36 16 16 1 12 4 4 1 0 0 14 0 0 0 0 0
7 29 30 0 1 5 9 3 13 15 3 4 2 6 5 14
23 33 45 62 64 60 43 61 59 42 53 81 91 95 102 106
109 110 107 102 91 80 70 61 32 1 0 0 0 3 11 19
26 29 25 31 29 33 32 32 32 32 33 32 32 31 31 31
31 32 32 32 32 32 31 32 33 32 32 33 31 32 32 32
32 32 33 32 32 32 32 31 31 31 31 31 31 31 31 31
40 42 50 51 49 46 40 44 20 11 13 13 10 6 4 23
36 16 16 4 6 0 0 2 1 0 18 1 0 1 0 0
10 32 39 13 7 7 2 16 19 13 1 5 6 2 4 11
24 33 70 83 65 40 52 65 63 48 81 92 102 109 111 114
115 113 109 104 96 89 75 67 50 15 0 0 1 3 11 15
24 29 25 32 29 33 32 32 32 32 32 32 33 32 32 32
32 33 32 32 33 32 32 32 32 32 31 32 31 32 32 33
33 32 33 32 31 32 32 31 31 31 31 31 32 30 31 31
10 20 24 26 31 40 43 61 56 31 36 39 44 42 39 39
30 16 15 2 0 0 0 0 0 0 33 40 29 22 19 11
3 25 50 35 31 5 10 11 10 5 1 3 0 5 8 13
26 72 98 81 66 63 76 83 63 85 98 110 119 118 118 117
116 113 111 106 98 92 82 74 60 32 5 6 3 3 8 14
21 27 25 31 29 33 32 31 31 32 32 33 33 33 32 33
32 32 33 32 32 32 32 32 33 32 32 32 32 33 32 33
33 33 32 32 31 31 30 30 29 30 29 29 29 28 30 30
7 17 13 10 0 14 58 63 49 29 39 47 51 48 49 48
32 16 16 2 0 0 0 0 0 0 35 54 43 45 46 49
45 50 46 13 13 4 9 7 2 2 0 1 3 12 15 28
73 101 88 83 80 89 100 97 104 111 117 121 120 121 119 119
117 114 111 108 104 97 87 80 68 43 14 9 8 4 9 12
22 26 26 31 28 33 31 32 32 32 32 32 32 32 33 33
32 32 33 33 32 32 32 31 32 32 31 31 32 32 32 32
32 32 31 31 30 31 30 30 30 30 30 28 26 22 18 16
3 4 1 2 0 16 59 60 41 32 41 47 49 49 53 51
32 16 17 7 1 0 0 0 0 0 38 51 41 49 50 54
50 42 36 16 10 3 5 5 9 3 0 15 23 33 33 81
108 109 104 114 116 115 118 117 119 123 124 122 124 122 120 119
117 113 109 107 105 100 91 85 73 48 29 10 17 7 8 18
20 26 26 31 29 33 33 32 31 32 32 32 32 32 33 32
31 31 33 31 32 31 32 32 33 32 32 31 32 33 33 32
33 32 32 31 28 27 32 23 16 14 12 12 11 11 11 12
3 1 0 0 0 15 56 53 21 10 20 28 32 36 41 48
33 17 19 36 42 35 24 15 9 3 36 38 41 48 50 53
53 45 37 22 10 1 1 3 4 6 24 63 76 58 94 113
115 120 124 124 123 122 122 124 124 123 123 123 123 124 122 120
117 112 109 109 104 100 95 88 76 51 36 15 21 9 13 8
10 19 26 31 29 33 32 32 32 32 32 31 31 32 32 31
30 30 33 32 32 32 32 32 33 33 33 33 32 30 28 25
22 18 16 14 13 13 31 23 8 12 15 15 16 17 17 18
0 0 0 0 0 14 56 53 17 0 0 0 0 0 0 22
34 17 20 39 51 51 49 48 47 46 50 31 37 45 48 51
51 46 40 23 10 1 0 4 20 26 50 81 92 108 113 116
118 123 126 129 130 127 127 131 130 126 129 129 129 126 123 121
119 115 111 108 105 99 96 88 77 55 41 25 21 12 14 13
5 8 26 31 29 32 32 32 31 31 31 31 32 31 31 30
30 31 32 32 32 32 32 31 29 25 23 20 17 15 14 14
14 15 16 16 17 15 21 17 12 18 21 21 22 23 24 24
8 0 0 0 0 10 55 54 15 0 0 0 0 0 0 19
36 18 19 39 52 52 50 49 50 51 50 11 4 10 16 24
30 31 41 25 9 0 1 21 30 32 57 80 98 109 113 117
121 125 128 133 133 130 130 127 126 124 123 124 123 122 122 120
119 117 114 111 105 99 96 86 72 60 43 31 22 22 17 13
12 5 20 31 29 32 32 31 31 30 28 28 27 24 26 32
32 30 29 25 23 20 18 16 15 16 16 16 17 18 19 20
21 21 22 23 23 23 28 25 17 23 26 26 26 27 27 27
17 0 0 0 0 7 52 52 12 0 0 0 1 12 12 21
35 20 19 34 46 47 48 50 51 52 48 7 0 0 0 1
10 17 41 24 9 0 7 26 32 34 64 83 94 108 114 117
123 126 127 129 126 126 126 123 125 124 122 124 124 122 122 122
123 121 117 114 108 101 94 86 69 61 47 38 24 23 21 17
7 3 15 27 27 27 28 28 29 29 28 29 27 17 17 20
19 17 17 17 18 19 20 21 21 22 22 23 23 24 25 26
27 27 27 28 27 25 22 20 20 26 27 28 28 29 30 30
11 0 0 0 0 5 46 47 10 0 0 0 3 29 29 26
33 31 27 30 34 35 37 36 37 45 45 5 0 0 0 1
0 10 44 24 14 1 13 28 27 39 60 84 94 106 113 114
123 124 126 128 128 128 125 123 124 124 124 123 124 124 126 127
127 124 120 117 113 105 95 83 67 60 50 46 32 22 17 12
5 1 8 24 29 29 28 25 23 21 19 18 17 15 16 19
20 21 23 23 24 26 26 26 27 27 28 28 28 28 29 30
30 29 30 30 29 24 4 3 16 29 30 32 31 30 29 30
13 2 0 0 0 6 45 46 8 0 0 0 2 27 29 25
28 24 22 25 22 25 33 33 33 45 45 4 0 0 0 2
0 2 43 19 12 6 11 25 34 37 64 84 96 104 109 115
123 125 128 131 132 130 126 124 124 123 123 125 125 126 129 129
128 126 122 118 115 108 97 83 62 57 53 48 38 27 19 13
2 1 2 17 18 18 17 19 19 20 21 22 23 23 24 25
27 28 28 29 29 30 30 30 31 31 30 30 31 30 31 31
31 32 31 30 29 23 3 1 11 29 31 32 32 32 31 32
0 0 0 0 0 8 48 47 7 0 2 0 0 6 9 16
25 22 23 25 28 28 32 33 35 44 44 4 0 0 0 0
0 3 44 7 4 9 12 31 30 45 66 85 96 101 107 117
123 129 132 134 134 134 133 131 127 126 126 125 125 128 133 133
129 126 123 120 115 110 99 84 62 54 54 48 41 31 20 10
1 1 2 14 16 19 22 23 23 25 26 27 28 29 28 30
31 31 31 31 32 32 32 32 32 32 33 33 32 32 32 32
31 14 8 4 12 21 4 4 10 28 31 32 32 31 31 31
0 0 0 0 0 10 49 48 6 0 2 0 0 0 0 8
24 19 21 15 9 16 22 29 37 41 41 4 0 0 0 0
0 5 45 8 4 8 15 30 30 53 70 83 95 101 109 118
126 133 133 133 138 138 137 135 132 130 129 127 130 132 131 133
128 125 119 116 113 106 98 87 62 51 54 51 47 35 25 12
0 0 5 15 21 23 27 28 28 29 30 30 30 31 32 32
32 32 33 33 33 33 33 33 34 33 34 33 33 32 33 33
29 6 8 12 20 22 1 0 9 28 31 31 33 31 31 31
0 0 0 0 0 13 51 48 6 0 1 6 1 0 0 9
30 27 26 13 0 0 0 0 1 2 21 4 0 0 0 0
0 7 45 6 3 9 26 26 30 47 65 85 93 98 109 118
125 133 135 133 134 138 139 139 139 137 133 134 135 135 127 124
119 116 109 106 108 99 88 84 68 48 51 55 49 38 25 14
1 0 7 13 24 27 30 31 31 31 32 31 31 33 33 33
34 33 33 33 34 34 34 33 33 34 33 34 33 33 33 34
33 31 31 31 31 25 2 0 9 29 31 31 33 32 31 31
13 8 4 2 0 15 52 46 5 0 0 5 6 0 0 10
38 31 28 15 0 0 0 0 0 0 16 4 0 0 5 1
0 5 43 4 1 8 31 18 29 43 70 85 91 97 108 118
123 126 127 127 129 126 130 134 138 138 137 135 135 133 118 108
96 68 63 66 79 73 55 56 58 41 41 47 47 38 26 20
6 0 6 18 26 30 32 32 33 32 33 32 33 34 34 34
34 34 34 34 35 34 34 33 34 34 34 34 34 34 33 33
33 32 32 31 30 26 7 0 13 29 32 31 33 32 32 32
45 32 41 42 34 35 44 43 11 0 0 4 11 2 0 9
41 31 27 16 0 0 1 1 0 0 15 4 0 3 18 9
1 5 42 2 0 8 34 14 26 45 39 50 56 52 53 57
57 52 54 58 58 62 77 107 124 133 136 132 128 122 111 86
55 31 29 34 38 40 42 37 37 37 32 14 2 11 23 16
5 0 10 24 29 33 34 34 34 34 34 34 34 35 34 34
35 34 35 34 35 34 34 35 35 36 35 35 34 34 34 34
33 33 32 31 29 27 13 0 18 29 32 32 33 32 32 32
22 17 23 27 25 26 38 38 32 15 10 9 19 13 6 8
42 27 26 15 0 1 11 10 1 0 14 5 0 12 21 13
3 5 41 2 5 11 34 12 18 25 21 84 67 43 35 37
25 15 11 12 18 30 37 47 79 116 127 127 120 111 101 56
32 29 25 14 17 16 13 9 3 1 8 17 8 1 18 12
6 2 14 27 32 33 35 35 34 34 33 33 35 35 35 35
36 35 35 35 35 35 35 35 35 35 35 33 34 34 34 34
34 34 33 31 30 26 22 17 25 31 32 33 33 32 32 32
0 0 0 9 14 3 37 39 38 43 39 35 43 41 38 38
46 28 25 15 0 7 21 17 8 0 14 19 9 20 20 19
9 6 40 1 5 9 23 12 10 10 12 39 11 12 38 63
47 15 6 6 8 14 41 85 55 57 113 123 114 95 59 34
18 9 4 9 20 17 9 2 0 0 0 0 4 0 6 1
3 0 19 27 33 33 35 35 34 34 33 35 35 35 35 35
34 34 34 35 35 35 35 34 34 34 35 34 34 34 34 34
34 33 33 32 30 26 25 25 29 33 33 33 33 32 32 32
0 0 0 9 19 13 40 40 31 7 8 16 24 36 44 49
49 33 22 17 0 5 14 12 6 0 13 44 42 46 45 43
44 43 46 3 0 9 19 12 6 10 15 21 7 19 88 148
110 28 15 13 13 17 98 151 95 31 57 104 95 53 37 45
3 0 4 13 64 103 44 9 0 0 0 0 9 2 0 0
0 5 24 27 33 33 34 35 34 33 34 35 34 35 35 34
34 35 35 34 34 34 34 33 34 34 33 34 34 33 33 33
33 32 33 31 30 27 27 28 32 32 33 32 33 32 32 32
0 8 12 4 7 15 43 41 30 1 0 0 8 3 25 49
46 30 23 19 1 1 4 1 2 0 12 45 44 48 47 47
51 55 50 20 14 15 17 8 5 22 35 18 7 16 84 151
117 28 21 16 18 17 66 104 46 32 43 43 29 24 47 33
0 2 7 14 98 150 84 12 1 0 0 0 15 11 0 0
0 5 28 27 34 33 34 34 34 34 34 35 34 35 34 35
34 35 34 34 34 35 34 34 34 34 34 34 34 34 34 34
33 32 31 31 31 29 29 31 33 33 33 33 34 33 32 33
8 33 39 21 10 8 44 42 27 0 0 11 36 14 33 48
43 27 24 25 18 0 4 0 0 0 11 44 43 46 45 46
54 56 55 38 36 31 16 5 21 54 55 14 7 11 39 87
56 23 17 12 11 12 18 19 12 28 43 28 20 27 36 15
2 2 2 12 42 97 40 9 0 0 0 0 13 33 6 0
0 4 29 27 34 34 35 34 34 34 35 35 35 35 35 35
34 34 34 34 34 34 35 34 34 34 33 34 34 34 34 35
33 33 33 32 31 30 31 32 32 32 31 31 31 31 31 32
21 33 31 1 0 6 46 44 27 0 2 3 29 29 39 46
36 23 24 26 11 0 3 0 0 0 11 41 38 41 41 41
42 39 40 38 39 38 15 10 30 61 58 13 5 7 19 24
20 16 8 5 2 5 7 6 4 28 35 70 68 33 29 8
3 0 0 2 9 14 9 2 0 0 0 0 13 38 15 0
0 7 31 28 34 33 35 34 34 34 35 35 34 34 35 35
35 35 35 35 35 35 35 35 34 34 34 35 34 34 34 33
32 33 33 33 31 31 32 33 32 32 32 33 33 33 32 32
2 38 40 2 0 5 47 46 29 0 0 0 5 13 38 47
35 24 28 24 4 0 0 0 0 0 10 45 36 38 38 39
38 35 35 39 40 41 23 17 25 63 63 10 4 1 5 6
7 5 1 1 0 1 1 1 1 31 54 112 108 66 32 2
0 0 0 0 3 3 0 0 0 0 0 0 14 41 25 2
0 10 31 28 34 33 35 34 35 34 35 35 34 35 35 34
35 35 34 34 34 33 33 33 33 34 34 33 33 32 33 33
32 32 33 32 31 32 33 34 33 32 33 33 32 32 31 31
0 24 20 2 5 7 48 47 32 0 0 0 0 3 36 49
34 25 24 26 26 22 18 15 11 8 15 48 38 37 38 37
38 39 40 44 41 44 34 18 26 69 70 10 5 1 0 0
2 1 0 0 0 0 0 0 1 32 73 114 110 85 35 4
0 0 0 0 1 0 0 0 0 0 0 1 17 46 33 4
12 31 31 28 35 33 35 33 35 34 35 33 34 34 34 34
34 35 35 35 35 35 35 33 34 34 34 33 33 34 34 34
34 33 33 33 33 32 34 33 32 32 33 33 33 31 16 16
0 0 0 2 4 6 48 47 30 0 0 0 0 0 32 50
33 25 26 31 48 50 49 47 50 52 51 52 42 41 41 41
42 44 48 49 42 45 30 18 22 72 78 9 4 2 0 0
0 0 0 0 0 0 0 0 8 28 94 118 115 94 42 14
0 0 0 0 0 0 0 0 0 0 0 1 22 47 36 8
26 40 31 28 35 33 35 34 34 33 34 34 35 35 35 35
35 35 35 35 34 34 34 34 34 33 34 35 34 34 34 34
33 33 33 33 34 33 33 34 33 32 32 32 32 18 27 29
0 0 0 0 0 4 47 47 25 0 0 0 0 1 34 51
35 25 27 32 56 58 56 57 56 57 56 55 42 37 36 36
37 43 49 52 44 47 36 18 22 71 82 20 4 2 0 0
0 0 0 0 0 0 1 0 20 40 100 116 113 97 51 22
0 0 0 0 1 0 0 0 0 3 1 3 30 48 38 31
42 31 33 28 35 33 35 34 34 34 35 35 35 35 36 36
36 36 36 35 34 34 34 33 33 34 34 33 34 34 33 33
32 32 32 33 33 33 33 33 33 33 33 33 31 18 32 21
0 0 0 0 0 3 47 47 24 0 0 0 0 0 32 50
34 22 28 29 44 47 48 49 51 53 54 55 20 13 10 7
9 13 24 49 45 53 53 26 25 70 82 40 3 1 0 1
0 0 0 0 0 0 0 7 29 78 101 116 117 97 56 27
9 0 0 0 1 2 0 0 0 8 11 13 38 47 38 54
58 47 35 28 35 33 36 35 35 35 35 35 36 35 35 36
34 35 36 35 34 34 34 33 34 34 33 33 34 33 33 32
32 32 30 30 31 33 34 32 33 33 32 32 29 20 32 17
0 0 0 0 0 3 47 48 25 0 0 0 0 0 30 46
32 23 28 25 31 31 31 31 31 31 32 36 12 0 0 0
0 0 5 47 44 54 46 37 32 69 81 75 14 1 0 3
5 1 0 0 0 0 1 26 54 99 102 115 116 101 63 48
17 2 0 0 0 0 0 1 0 5 2 28 52 45 38 58
58 56 36 29 35 33 35 35 34 35 35 35 35 36 36 36
35 36 35 34 34 33 31 31 32 32 34 34 34 29 16 15
12 10 8 8 21 35 34 34 33 33 34 32 30 19 27 14
0 0 0 0 0 3 46 48 27 0 0 0 0 0 29 49
35 22 27 27 39 39 40 39 37 36 36 38 17 7 0 0
0 2 17 47 38 53 67 64 55 64 78 88 59 13 0 0
0 0 0 0 0 1 22 39 99 98 105 115 115 105 72 55
39 12 1 0 0 0 0 0 1 4 16 45 57 43 37 56
53 61 37 29 35 33 36 35 35 36 35 35 36 35 35 30
26 23 19 17 13 10 8 8 12 26 34 34 34 29 6 4
4 4 4 4 19 35 34 34 33 33 33 32 29 4 0 0
16 17 19 24 29 33 48 47 27 0 0 0 0 0 31 53
36 20 28 27 41 42 42 41 42 42 42 41 18 6 1 0
0 2 17 45 31 47 85 87 85 62 74 86 95 64 23 11
3 0 0 2 12 23 48 101 105 96 101 110 114 107 82 52
68 53 23 15 7 4 3 3 12 19 44 63 53 42 36 44
58 57 36 29 36 32 36 35 35 35 36 36 36 35 34 15
4 5 9 8 8 2 3 2 1 20 34 33 34 29 6 4
5 5 5 5 19 35 35 34 34 34 31 4 1 0 0 0
43 44 46 47 48 47 41 31 21 12 11 11 11 11 35 49
36 24 30 30 43 44 45 43 43 43 44 44 17 4 1 0
2 7 5 42 27 38 83 83 82 61 72 85 95 99 91 51
28 23 25 35 54 95 124 117 98 94 97 112 120 111 93 55
62 96 99 66 41 27 22 22 26 53 67 58 49 41 36 50
70 58 32 28 34 32 35 35 35 35 35 35 34 35 34 13
2 4 8 6 6 1 2 1 1 17 33 33 34 27 5 5
4 4 4 4 17 34 34 34 35 34 30 1 0 0 0 0
42 42 42 42 42 42 42 40 40 39 39 38 39 38 39 39
39 38 38 38 39 39 39 39 40 39 40 46 21 0 0 0
2 10 3 39 26 36 79 87 76 62 71 87 102 110 111 108
103 99 107 118 129 135 133 107 97 94 99 117 126 118 97 60
54 85 118 119 112 105 98 92 87 87 81 65 48 39 36 53
76 55 30 28 34 32 35 34 35 34 35 35 35 35 34 15
2 3 9 6 7 1 2 1 0 15 33 33 34 28 6 4
4 5 4 4 13 34 36 34 34 34 32 6 7 22 21 24
41 40 41 40 40 39 40 39 38 38 37 37 37 37 37 36
36 36 37 37 37 36 37 37 37 37 37 44 32 10 0 0
3 7 1 35 23 20 88 97 86 63 67 85 103 113 119 118
118 121 125 129 138 137 121 98 107 96 105 123 140 127 101 66
53 66 106 124 117 112 110 103 98 98 90 73 49 39 36 56
75 55 29 27 34 32 35 33 33 34 34 34 35 35 33 16
1 2 9 7 7 1 1 1 1 16 33 33 33 30 7 5
6 6 7 7 10 31 31 31 31 31 31 9 23 31 31 31
40 40 40 40 39 39 38 38 37 37 36 36 36 35 35 35
34 35 35 35 34 35 35 36 36 36 35 42 30 5 0 0
2 8 4 35 25 8 94 104 87 68 65 83 102 111 118 120
119 124 131 134 137 128 107 96 107 99 104 121 128 114 95 62
59 66 90 124 121 114 111 106 100 98 89 72 48 39 36 58
65 54 29 28 33 33 35 34 34 35 35 35 35 35 34 17
2 2 7 7 7 2 1 1 0 14 33 33 32 31 16 14
13 13 14 13 15 29 33 34 34 33 33 9 30 31 29 30
40 34 31 30 29 28 27 26 26 25 24 24 23 22 22 22
21 22 22 23 24 24 25 25 28 32 35 40 23 0 0 0
0 0 0 34 27 0 81 110 88 72 62 82 100 109 115 119
122 125 131 137 137 121 104 98 101 95 93 104 106 92 73 55
60 72 84 119 122 115 112 107 102 99 92 73 48 38 39 54
60 48 29 27 31 31 35 34 34 34 35 35 35 34 33 18
2 3 6 4 4 1 2 2 1 14 33 33 34 31 11 7
7 6 6 6 9 29 33 33 33 34 21 14 33 33 31 29
37 18 1 0 0 0 0 0 0 0 0 0 0 0 0 0
0 0 0 0 0 0 0 0 18 32 34 37 20 0 0 0
0 3 0 31 32 0 60 106 83 75 60 77 96 106 113 119
124 127 133 137 131 117 116 101 71 40 64 80 75 60 40 28
50 79 87 122 124 115 112 109 102 97 89 70 47 36 50 74
60 37 30 29 33 32 35 34 34 35 35 35 35 36 34 18
2 2 2 0 1 1 1 2 0 12 33 34 34 32 11 6
6 6 6 5 9 28 10 9 9 9 12 31 31 31 30 29
37 22 2 0 0 0 0 0 0 0 0 0 0 0 0 0
0 0 0 0 0 0 0 0 20 36 33 35 24 5 4 3
4 15 8 29 41 20 51 99 96 88 62 72 93 106 111 118
122 128 132 135 126 115 125 117 94 77 90 81 65 64 59 48
64 84 103 124 126 114 110 109 102 96 88 69 47 36 62 69
51 31 29 28 32 32 35 34 34 34 34 36 35 35 34 19
3 3 1 0 3 2 2 3 1 12 32 33 34 32 12 5
5 6 5 5 7 14 25 34 31 30 32 32 31 31 30 29
37 26 5 0 0 0 0 0 0 0 0 0 0 0 0 0
0 0 0 0 0 0 0 0 16 35 33 34 41 44 37 35
38 42 40 41 44 55 62 88 104 96 69 65 87 103 110 118
120 125 132 131 123 116 123 120 113 98 103 113 110 111 84 72
88 105 109 115 126 117 108 109 102 94 86 63 45 40 69 66
44 27 28 29 32 31 34 34 34 35 35 36 36 35 32 19
3 3 3 4 9 3 2 4 0 11 32 34 35 32 13 5
6 6 5 5 8 9 33 34 32 33 32 31 31 30 25 6
37 27 6 0 0 0 0 0 0 0 0 0 0 0 0 0
0 0 0 0 0 0 0 0 12 35 31 32 43 48 41 41
44 42 35 34 37 53 56 79 102 103 90 61 82 101 110 117
121 123 128 128 121 114 116 116 110 102 109 112 112 114 98 86
92 102 106 104 114 117 108 107 103 94 87 59 42 50 69 56
24 25 28 27 31 31 33 33 33 34 35 35 36 35 31 20
4 3 1 0 1 2 2 4 0 9 31 32 34 32 13 4
5 5 5 5 7 8 32 34 33 32 31 31 29 29 20 0
36 28 10 0 0 0 0 0 0 0 0 0 0 0 0 0
0 0 0 0 0 0 0 0 9 34 31 31 41 43 37 40
43 43 38 33 34 35 38 46 92 101 104 65 77 96 110 116
120 123 128 127 114 107 114 114 114 107 116 114 114 117 106 94
90 94 101 102 105 113 111 108 103 94 87 56 41 39 40 23
11 24 29 28 31 31 33 33 33 34 36 37 36 34 31 21
4 3 1 0 2 3 3 5 1 10 32 32 35 33 13 4
5 5 5 5 8 8 31 33 32 32 31 31 30 29 22 0
36 29 11 0 0 0 0 0 0 0 0 0 0 0 0 0
0 0 0 0 0 0 0 0 7 33 30 29 35 30 33 32
35 42 39 35 36 28 27 28 42 64 67 59 73 95 110 114
118 123 129 126 109 107 114 111 110 116 123 116 118 120 112 97
94 98 98 100 101 107 109 108 102 91 83 56 41 35 31 26
24 29 31 30 31 29 31 32 33 34 35 36 36 33 31 22
5 3 3 2 3 2 3 4 0 8 30 32 33 32 13 4
4 5 4 5 6 9 28 33 31 32 32 30 29 29 24 5
35 29 13 0 0 0 0 0 0 0 0 0 0 0 0 0
0 0 0 0 0 0 0 0 4 31 30 28 34 15 15 17
20 22 23 23 36 31 32 32 37 40 39 39 66 90 110 114
118 124 130 122 107 114 116 113 112 120 128 118 119 122 118 104
99 99 100 106 101 101 109 110 103 87 82 53 41 50 49 46
45 44 42 40 39 36 32 31 33 35 36 36 37 33 32 23
5 3 3 3 3 2 2 4 0 7 30 31 34 31 13 3
4 4 4 2 4 12 21 33 32 31 31 30 29 28 26 13
35 29 15 0 0 0 0 0 0 0 0 0 0 0 0 0
0 0 0 0 0 0 0 0 2 29 28 26 32 6 0 0
0 2 7 13 37 36 47 44 47 56 51 30 53 88 107 113
118 123 130 119 110 114 109 114 114 116 116 125 120 124 105 99
95 92 91 104 101 98 107 105 101 81 79 52 42 52 50 47
47 46 44 42 41 39 33 29 32 35 36 37 36 34 32 25
5 3 3 3 3 2 2 3 0 6 29 29 31 30 17 6
10 7 5 8 9 17 13 32 32 31 30 30 29 24 25 34
34 29 16 0 0 0 0 0 0 0 0 0 0 0 0 0
0 0 0 0 0 0 0 0 1 27 28 25 34 9 0 0
0 0 0 14 39 34 46 42 39 49 45 3 24 84 106 108
120 125 129 117 108 105 97 96 92 89 91 103 121 98 77 76
69 68 70 92 104 99 105 104 101 82 77 48 44 52 50 49
48 46 43 42 40 39 34 29 32 34 36 37 36 34 33 25
5 3 3 3 2 2 2 3 0 5 27 29 32 30 28 27
29 24 22 27 26 27 6 29 31 31 29 28 27 15 2 6
34 29 18 0 0 0 0 0 0 0 0 0 0 0 0 0
0 0 0 0 0 0 0 0 0 24 27 24 33 16 0 0
0 0 0 10 40 32 44 30 5 13 40 2 6 75 104 105
117 124 128 120 109 86 61 57 54 62 64 68 72 61 54 54
50 45 49 77 109 106 108 105 97 82 75 46 47 52 51 49
47 46 43 41 42 40 36 28 32 34 36 37 37 35 33 27
6 3 3 3 3 2 1 3 0 5 27 28 31 30 30 30
31 30 30 29 28 29 18 11 20 11 5 4 3 0 0 0
32 28 17 0 0 0 0 0 0 0 0 0 0 0 0 0
0 0 0 0 0 0 0 0 0 22 27 24 24 7 0 0
0 0 0 11 39 32 44 29 1 11 39 3 0 50 98 104
112 124 129 123 113 110 104 88 85 95 99 98 87 90 94 84
74 74 80 106 116 109 111 101 90 79 67 39 48 51 52 50
47 44 44 42 40 40 37 25 29 32 34 35 35 34 33 27
6 3 3 3 2 3 2 2 0 5 29 31 33 32 32 30
30 30 30 28 20 15 10 1 0 0 1 1 0 0 0 0
31 27 17 0 0 0 0 0 0 0 0 0 0 0 0 0
0 0 0 0 0 0 0 0 0 19 26 22 15 0 0 0
0 0 0 11 39 31 44 30 1 8 39 6 0 26 88 103
109 120 125 123 119 121 116 104 97 99 106 109 102 103 105 93
81 79 88 114 120 111 111 100 90 73 60 39 49 50 51 50
48 43 43 42 40 40 37 25 28 31 33 35 35 34 33 28
6 3 2 2 2 1 1 2 0 7 29 32 32 31 30 29
29 28 28 21 0 0 0 0 16 0 0 0 0 0 0 0
31 27 17 0 0 0 0 0 0 0 0 0 0 0 0 0
0 0 0 0 0 0 0 0 0 17 26 22 15 0 0 0
0 0 0 11 37 29 43 30 0 7 37 8 0 15 79 101
106 115 121 127 125 121 119 112 101 101 108 113 110 106 105 94
83 88 97 110 110 105 105 96 85 71 54 45 50 52 51 50
48 43 44 41 38 38 36 26 26 30 32 34 34 34 32 29
16 12 10 8 8 7 4 3 11 19 30 33 33 31 30 29
28 27 27 18 0 0 0 19 67 33 0 0 0 0 0 0
29 26 17 1 0 0 0 0 0 0 0 0 0 0 0 0
0 0 0 0 0 0 0 0 0 14 25 20 15 0 0 0
0 2 0 6 38 29 43 29 1 7 35 11 1 9 70 94
102 110 117 123 123 115 117 115 107 103 101 99 95 90 89 87
88 94 100 104 101 103 96 89 81 68 47 49 50 52 50 48
46 43 42 41 39 39 37 30 24 29 31 33 34 33 31 30
29 27 22 19 18 17 4 2 18 23 31 33 33 31 29 28
28 26 21 12 0 0 0 28 43 42 0 0 0 0 0 0
29 26 17 1 0 0 0 0 0 0 0 0 0 0 0 0
0 0 0 0 0 0 0 0 0 12 24 21 15 0 1 0
0 5 1 4 38 29 43 35 9 7 33 18 6 6 66 86
100 106 113 117 118 114 112 113 112 104 101 99 93 93 95 93
97 100 101 94 95 98 90 84 78 63 47 52 51 52 50 48
46 44 41 42 40 39 36 32 22 28 30 32 33 33 31 30
29 29 24 21 21 19 5 3 20 26 30 32 32 30 28 27
26 24 1 0 0 0 0 0 0 0 0 0 0 0 1 1
28 26 17 2 0 0 0 0 0 0 0 0 0 0 0 0
0 0 0 0 0 0 0 0 0 11 24 20 15 1 5 0
0 10 12 3 39 31 45 34 21 8 32 14 8 13 61 77
95 101 106 109 109 112 108 109 111 113 114 107 103 99 99 105
104 103 97 88 93 92 91 85 71 55 52 51 51 53 50 48
46 44 42 42 39 39 36 33 22 27 29 31 33 32 31 30
29 28 25 23 23 23 7 2 23 27 30 31 31 30 28 27
27 24 2 1 0 0 0 0 0 0 0 0 1 1 1 1
28 26 17 2 0 0 0 0 0 0 0 0 0 0 0 0
0 0 0 0 0 0 0 0 0 11 24 20 17 3 7 3
2 12 19 11 39 34 46 31 26 15 30 12 8 14 50 76
89 98 105 107 108 113 107 106 112 116 117 113 106 102 107 107
104 102 95 86 98 95 87 77 66 47 57 51 51 54 50 48
47 46 43 42 39 39 36 33 22 26 28 31 32 32 31 29
30 30 26 25 26 25 9 2 23 26 29 30 29 28 27 27
26 24 2 0 0 0 0 0 0 0 0 0 0 0 0 0
28 26 17 2 0 0 0 0 0 0 0 0 0 0 0 0
0 0 0 0 0 0 0 0 0 10 25 21 19 25 33 35
37 40 42 43 51 40 47 26 21 25 29 28 24 25 45 80
74 88 97 104 107 111 114 106 112 116 119 120 112 113 115 111
107 97 91 89 96 94 84 72 61 50 59 51 47 55 50 48
46 46 44 41 39 38 37 35 23 24 28 30 31 32 31 29
30 29 27 25 26 25 11 2 25 26 28 28 29 28 27 27
25 25 17 1 0 0 0 0 0 0 0 0 0 0 0 0
28 26 18 2 0 0 0 0 0 0 0 0 0 0 0 0
0 0 0 0 0 0 0 0 0 8 24 20 21 39 45 47
48 49 51 52 55 50 46 25 6 20 27 32 28 28 39 81
75 80 91 98 104 114 118 116 113 116 122 124 120 120 120 114
107 97 92 96 93 87 78 65 51 57 58 48 22 39 50 48
46 47 43 41 40 40 37 35 26 22 27 29 31 31 31 29
29 29 28 27 29 28 14 1 24 27 27 27 27 27 25 26
25 24 14 0 0 0 0 0 0 0 0 0 0 0 0 0
28 26 18 3 0 0 0 0 0 0 0 0 0 0 0 0
0 0 0 0 0 0 0 0 0 9 24 20 20 41 45 45
46 46 46 45 45 45 43 24 2 9 26 34 32 32 38 77
83 67 80 91 100 106 116 116 114 115 124 123 118 115 118 114
107 101 91 92 87 82 71 55 52 59 60 50 12 21 44 47
47 46 43 41 42 41 38 36 30 22 27 28 31 31 30 29
30 29 29 28 29 28 17 1 24 29 28 27 27 27 27 26
25 24 7 0 0 0 0 0 0 0 0 0 0 0 0 0
28 26 18 3 0 0 0 0 0 0 0 0 0 0 0 0
0 0 0 0 0 0 0 0 0 8 24 20 18 17 17 17
17 18 18 19 18 18 38 26 2 8 23 35 33 34 36 72
85 74 63 76 92 104 108 114 112 119 120 118 119 118 118 115
111 103 89 92 83 73 55 47 60 59 60 52 12 8 38 47
48 46 43 41 42 41 39 37 32 21 26 29 30 28 22 24
23 26 30 29 31 29 19 0 22 28 28 27 27 26 25 26
26 25 8 0 0 0 0 0 0 0 0 0 0 0 0 0
28 26 18 3 0 0 0 0 0 0 0 0 0 0 0 0
0 0 0 0 0 0 0 0 0 8 23 19 17 10 10 10
12 14 14 15 16 17 38 27 2 5 22 36 32 34 35 65
86 78 62 56 74 95 100 106 106 118 120 116 115 115 118 115
108 100 88 88 75 58 43 54 63 62 61 53 11 3 33 49
49 46 43 41 42 38 38 37 34 24 31 36 30 20 19 15
12 16 26 29 30 27 19 0 20 28 28 28 27 26 26 25
25 21 0 0 0 0 0 0 0 0 0 0 0 0 0 0
28 26 18 3 0 0 0 0 0 0 0 0 0 0 0 0
0 0 0 0 0 0 0 0 0 7 24 20 16 14 13 14
14 15 16 17 17 19 40 32 18 23 34 37 32 34 34 57
83 83 72 57 54 76 91 99 102 113 113 110 111 111 115 113
100 96 86 78 66 46 42 62 64 64 59 53 11 1 27 50
50 47 44 42 41 37 38 44 42 40 38 33 32 19 16 13
9 15 23 28 27 27 21 0 17 27 27 27 28 25 25 26
25 16 0 0 0 0 0 0 0 0 0 0 0 0 0 0
27 25 18 4 0 0 0 0 0 0 0 0 0 0 0 0
0 0 0 0 0 0 0 0 0 8 25 20 17 17 18 17
18 19 19 19 18 20 42 39 44 53 53 38 31 33 34 53
83 83 78 67 59 54 71 88 95 104 103 103 104 110 110 103
94 89 76 66 47 38 53 65 67 66 62 53 13 3 19 74
58 46 43 39 33 27 37 51 46 46 32 24 20 15 13 16
7 13 20 26 26 26 21 0 13 25 26 26 28 26 25 25
23 5 0 0 0 0 0 0 0 0 0 0 0 0 0 0
27 25 18 4 0 0 0 0 0 0 0 0 0 0 0 0
0 0 0 1 2 3 4 5 6 16 25 19 17 17 17 19
20 21 22 22 19 19 33 30 33 37 36 30 31 33 40 49
80 84 83 77 66 59 50 57 73 84 94 98 102 102 99 91
80 72 61 46 39 45 65 69 67 66 62 56 21 6 23 78
57 46 42 30 23 24 30 45 36 25 19 15 12 12 13 17
6 11 17 25 25 25 20 1 11 25 25 26 27 25 25 24
20 0 0 0 0 0 0 0 0 0 0 0 0 0 0 0
27 26 19 7 1 2 3 4 5 5 7 8 10 11 13 14
15 16 17 17 17 17 18 17 17 17 17 17 17 18 18 19
20 21 21 21 19 20 26 27 25 26 29 30 32 34 55 23
79 90 91 84 74 68 63 53 44 50 63 78 88 87 83 72
64 52 42 40 44 58 69 71 69 70 67 59 28 6 34 69
64 46 41 31 23 21 20 19 16 17 14 11 12 11 14 12
4 9 13 23 24 24 20 2 9 25 25 26 26 25 24 24
18 0 0 0 0 0 0 0 0 0 2 0 0 0 0 0
27 25 25 23 20 20 20 20 20 19 18 18 17 18 18 17
17 17 18 18 18 17 18 17 17 16 17 17 17 18 19 20
20 20 21 22 20 22 27 29 28 28 30 30 31 38 77 9
71 94 96 90 81 77 73 71 62 49 48 48 50 51 48 43
41 40 42 47 54 67 71 71 70 69 70 64 36 7 42 82
65 45 42 35 20 17 16 15 14 16 13 13 12 15 15 15
7 9 8 19 23 24 21 2 8 25 26 26 26 25 24 24
5 0 0 0 0 0 0 0 0 0 0 0 0 0 0 0
27 26 25 23 21 15 19 20 21 19 17 17 17 18 18 18
18 18 18 18 18 18 18 17 17 17 17 17 17 19 20 21
21 21 21 21 20 23 28 29 29 27 30 30 31 47 88 16
61 96 100 95 93 85 84 82 87 80 66 56 57 57 53 46
44 48 55 57 64 71 72 70 78 81 80 72 46 6 50 78
61 48 40 39 29 22 19 17 17 17 16 16 16 15 15 15
10 9 7 15 23 23 21 3 7 24 25 25 25 24 24 22
2 0 0 0 0 0 0 0 0 0 0 0 0 0 0 0
26 26 25 23 22 15 19 20 20 18 18 17 17 17 17 18
17 17 18 18 17 16 15 14 13 13 13 13 15 19 20 21
21 22 22 21 21 22 27 29 29 29 30 30 31 58 94 34
44 98 102 104 103 94 91 90 97 106 101 93 79 71 69 66
61 65 67 65 73 78 87 90 96 95 89 75 54 14 63 81
53 52 41 42 41 43 41 22 19 29 32 29 24 20 17 15
11 6 5 12 22 22 21 15 17 26 27 26 25 24 23 19
1 0 0 0 0 0 0 0 0 0 0 0 0 0 0 0
26 25 24 23 22 19 19 18 18 16 15 14 13 12 11 9
8 6 5 3 2 1 3 9 10 13 15 15 17 19 20 21
22 22 22 22 22 23 27 29 30 30 29 30 32 68 93 57
34 98 103 105 105 98 92 92 95 105 111 112 110 104 97 89
77 81 80 80 89 98 106 108 101 100 93 78 56 28 81 74
49 54 47 41 47 64 68 63 53 50 43 38 35 37 41 38
35 29 24 23 29 23 20 21 21 24 26 25 24 24 26 18
0 0 0 0 0 0 0 0 0 0 0 0 0 0 0 0
12 12 9 7 5 5 3 2 1 1 1 0 0 1 1 2
2 2 3 2 0 0 2 8 11 13 15 15 17 18 19 20
21 21 22 22 22 23 27 29 30 30 30 30 33 75 89 73
41 95 102 106 107 106 97 93 96 100 109 116 119 112 107 93
83 83 84 86 96 108 111 105 106 101 94 80 47 60 76 62
49 50 40 49 49 73 75 72 66 71 67 69 56 50 46 45
43 39 35 30 24 20 19 21 24 22 20 23 25 23 29 13
0 0 0 0 0 0 0 0 0 0 0 0 0 0 0 0
0 0 0 0 0 0 0 0 0 1 12 16 20 20 21 24
24 24 24 22 2 0 0 7 11 12 13 15 17 18 19 20
21 22 22 22 23 24 28 29 30 30 31 38 57 81 96 79
51 91 104 107 109 109 102 95 99 102 105 113 116 113 103 91
81 87 89 89 105 115 115 112 108 104 95 69 63 86 71 51
48 46 36 53 55 86 84 77 84 82 71 67 68 67 67 61
47 33 35 32 28 26 18 21 24 22 19 22 23 20 15 0
0 0 0 0 0 0 0 0 0 0 0 0 0 0 0 0
0 0 0 0 0 0 2 4 5 10 35 37 37 36 35 32
30 29 35 33 12 3 5 8 10 12 13 15 17 19 20 21
23 23 24 25 26 28 30 29 33 41 50 66 65 79 92 75
62 77 105 110 115 114 107 101 99 100 105 109 115 111 100 90
90 92 92 100 113 117 119 116 110 104 85 71 87 79 64 48
48 44 30 55 60 84 82 84 87 79 77 77 72 77 75 70
80 58 57 49 41 41 38 35 28 20 12 9 6 3 2 0
0 0 0 0 0 0 0 0 0 0 0 0 0 0 0 0
0 0 0 0 0 0 1 3 6 8 33 33 33 35 33 32
32 34 43 43 28 13 11 8 9 12 15 18 20 24 24 25
27 28 28 29 30 31 40 57 73 77 69 66 61 75 91 90
62 58 106 113 115 117 115 107 102 102 102 104 106 103 95 96
97 96 101 108 116 122 119 115 110 92 67 46 79 73 48 49
51 41 31 57 66 79 80 78 87 90 85 82 80 71 75 72
72 63 77 72 69 58 38 11 2 1 0 0 0 0 0 0
0 0 0 0 0 0 0 0 0 0 0 0 0 0 0 0
5 4 3 2 2 5 16 23 23 20 28 42 44 43 41 41
40 38 37 35 26 16 17 17 17 17 16 14 14 27 22 25
29 30 30 31 37 69 80 80 74 78 66 67 67 79 94 99
83 42 96 112 118 117 119 115 105 106 107 107 105 103 105 105
104 103 107 117 124 121 118 118 107 67 63 21 53 62 50 50
46 42 38 70 64 70 76 77 79 82 83 83 79 87 83 84
80 83 74 73 73 76 72 67 51 42 11 0 0 0 0 0
0 0 0 0 0 0 0 0 0 0 0 0 0 0 0 0
1 1 2 2 5 8 17 22 20 19 22 33 31 28 27 25
25 23 22 21 16 9 8 7 7 6 6 6 8 26 24 25
29 30 31 47 77 87 86 86 80 71 65 65 63 81 96 95
94 75 65 105 118 121 119 117 114 112 111 110 112 111 108 108
107 110 116 120 122 121 122 120 105 65 75 28 26 66 48 46
45 36 46 72 72 69 79 83 84 86 84 94 84 83 86 86
82 84 84 80 81 81 77 73 68 76 66 55 13 0 0 0
0 0 0 0 0 0 0 0 0 0 0 0 0 0 0 0
15 17 21 23 23 23 23 22 22 21 21 19 19 19 19 20
20 20 20 21 15 6 7 6 7 6 7 7 9 27 31 43
54 63 66 81 81 84 93 86 78 72 68 64 64 79 88 38
9 54 69 66 113 122 124 119 116 116 118 120 119 117 117 117
116 114 115 120 124 122 122 119 91 66 76 14 27 65 50 47
46 35 56 78 73 69 80 82 87 91 89 86 74 88 81 82
75 74 77 82 83 77 76 72 75 65 68 73 68 33 0 0
0 0 0 0 0 0 0 0 0 0 0 0 0 0 0 0
13 16 22 25 24 22 20 18 15 13 10 8 6 4 7 20
20 19 20 20 15 6 6 6 6 7 11 30 50 74 77 83
78 82 85 92 89 82 85 86 78 76 72 64 59 81 41 1
14 49 77 61 88 120 123 124 118 115 121 119 119 119 122 120
118 113 118 126 125 122 122 117 83 71 85 14 46 61 45 47
43 39 82 77 73 66 75 92 83 85 83 83 79 83 81 79
81 78 78 81 79 80 82 78 72 73 73 72 67 64 48 2
0 0 0 0 0 0 0 0 0 0 0 0 0 0 0 0
10 13 21 25 23 14 1 0 0 0 0 0 0 0 3 20
20 20 20 20 16 5 5 7 27 61 73 84 84 80 87 76
85 88 86 98 89 88 82 87 79 78 71 66 54 70 19 0
16 48 74 84 65 103 122 124 124 118 119 120 119 121 123 122
118 119 124 124 126 124 122 116 81 73 82 14 59 46 51 46
41 50 90 76 63 70 76 88 85 84 79 84 87 80 86 81
80 91 85 88 72 93 85 80 82 79 73 76 70 68 64 39
8 22 16 0 0 0 0 0 0 0 0 0 0 0 0 0
9 13 21 26 23 11 0 0 0 0 1 3 5 7 12 19
19 19 20 20 17 7 29 76 79 80 81 85 84 89 86 73
75 88 91 89 84 90 87 86 78 72 69 63 59 59 30 9
2 36 62 92 77 67 116 128 126 122 122 124 127 128 126 122
121 123 128 129 129 127 121 103 77 82 58 11 60 45 52 46
42 74 86 79 71 73 80 82 95 87 92 86 89 78 83 86
81 84 79 88 86 73 83 81 73 76 76 79 79 76 60 60
50 31 20 1 0 0 0 0 0 0 0 0 0 0 0 0
8 12 20 26 24 20 13 14 16 16 17 17 18 18 20 22
23 25 26 28 35 68 77 81 85 83 88 86 93 94 88 84
72 82 87 92 91 87 84 90 82 74 70 68 62 68 34 19
6 23 63 99 86 68 89 125 129 131 131 127 128 128 130 127
125 128 133 131 130 125 118 88 79 87 18 45 51 49 46 52
58 90 80 71 68 80 83 81 85 88 91 84 86 79 81 80
82 81 79 79 83 96 85 83 82 75 84 84 74 76 59 58
62 38 2 0 0 0 0 0 0 0 0 0 0 0 0 0
12 13 20 25 24 23 22 22 23 23 25 26 27 28 30 29
27 27 26 41 75 77 81 81 81 83 84 85 88 83 90 81
80 69 88 91 85 87 87 78 80 74 69 73 68 71 37 28
28 40 61 62 74 96 77 111 131 133 134 132 132 132 131 129
131 134 134 132 133 126 110 83 79 59 11 51 49 50 46 55
84 83 90 68 71 79 85 93 80 91 88 81 77 83 86 85
80 80 91 91 75 88 89 88 83 85 90 79 81 78 67 64
65 52 14 0 0 0 0 0 0 0 0 0 0 0 0 0
12 22 29 32 31 30 30 29 31 26 24 23 22 22 24 27
24 25 34 69 78 78 85 86 84 85 92 85 85 87 90 79
86 74 80 87 86 89 82 83 80 80 70 70 63 71 53 42
41 66 56 69 72 64 75 84 126 137 135 137 134 133 134 133
135 135 137 134 132 123 97 88 76 27 24 54 53 53 54 82
96 90 76 69 69 82 79 84 74 80 85 83 77 95 83 75
89 87 82 91 94 87 86 89 81 84 81 89 76 75 77 62
65 61 66 24 0 0 0 0 0 0 0 0 0 0 0 0
27 37 30 28 26 23 23 23 29 25 24 27 28 29 30 31
31 37 67 76 81 88 87 86 86 91 85 90 87 92 95 75
89 82 78 84 83 86 83 80 83 80 74 67 72 64 82 51
40 84 64 67 70 68 76 71 110 140 140 140 135 136 137 137
139 137 136 135 128 108 85 72 52 11 39 50 60 63 82 86
80 78 87 73 74 79 79 81 84 86 83 82 80 86 79 95
83 90 89 88 88 85 90 90 78 85 88 84 84 68 79 70
83 61 71 71 8 0 0 0 0 0 0 0 0 0 0 0
20 35 33 31 31 31 32 32 32 32 32 32 32 32 32 33
34 61 72 75 85 88 92 90 91 97 95 91 94 86 93 85
87 84 79 79 88 90 85 87 85 83 83 71 76 68 72 73
50 63 79 71 70 73 76 66 106 138 138 139 139 139 140 141
141 140 138 132 106 87 77 55 37 30 71 48 56 85 86 96
83 89 77 64 85 83 84 85 95 92 87 87 81 90 78 88
81 86 77 93 101 85 93 96 82 89 92 84 85 60 75 75
83 70 69 65 55 1 0 0 0 0 0 0 0 0 0 0
11 23 35 37 35 36 36 35 34 34 34 34 33 34 34 34
55 73 77 75 80 76 88 88 88 93 93 94 90 84 86 84
86 94 84 79 86 88 80 88 86 86 84 84 81 67 64 83
70 69 82 67 77 61 70 70 89 116 139 141 140 141 142 142
140 139 136 113 86 61 47 44 36 45 88 55 77 92 92 92
84 88 80 75 71 78 83 80 79 85 82 83 89 86 87 86
83 90 82 89 101 88 90 89 79 92 93 89 77 61 76 74
81 71 70 63 78 22 0 0 0 0 0 0 0 0 0 0
16 24 30 35 35 36 39 39 35 37 34 35 33 35 35 44
76 81 79 82 89 82 94 98 88 87 85 87 78 89 95 92
86 84 88 84 85 92 87 84 82 85 84 85 84 86 73 62
77 66 86 76 76 72 66 74 81 92 109 138 143 143 142 142
141 138 120 88 74 55 49 46 82 81 76 59 85 85 94 79
85 83 86 78 77 81 83 81 82 92 81 77 94 84 91 81
87 92 86 87 94 86 91 83 80 90 88 87 88 61 79 80
79 73 63 73 78 64 2 0 0 0 0 0 0 0 0 0
33 39 40 39 35 31 35 37 36 37 36 35 34 30 29 63
81 90 84 80 80 81 84 90 97 94 93 96 98 99 93 91
87 87 90 87 88 89 86 83 85 88 85 87 89 89 86 74
58 77 82 94 77 79 78 65 72 87 92 112 139 143 143 142
140 129 96 85 63 57 46 78 98 79 81 70 91 101 86 94
88 90 86 76 78 75 80 82 80 83 90 73 93 84 88 86
87 93 89 93 95 88 93 89 84 94 88 87 83 63 78 82
81 75 59 72 64 77 24 0 0 0 0 0 0 0 0 0
31 39 42 43 42 27 29 31 25 19 13 8 5 2 38 79
86 92 87 81 86 78 92 95 89 85 89 90 89 85 89 90
88 87 93 85 83 87 86 81 85 90 93 90 90 90 87 101
75 65 80 90 91 87 83 87 68 70 86 90 114 141 142 142
137 101 89 60 52 55 76 87 92 64 85 73 93 83 92 79
85 90 84 85 82 91 80 81 87 80 85 85 88 87 93 83
90 94 83 93 99 87 86 88 89 89 80 80 64 65 84 90
87 80 62 68 69 67 49 3 0 0 0 0 0 0 0 0
41 40 38 31 17 5 3 2 0 0 0 0 0 10 77 83
88 93 89 77 84 79 87 86 90 90 93 92 90 95 93 90
83 87 92 82 84 89 90 86 90 92 92 92 89 88 89 94
96 77 87 83 82 88 85 86 87 78 78 86 88 120 143 141
110 84 55 59 55 75 89 100 100 81 89 98 96 100 77 79
93 86 83 75 86 87 85 87 85 89 86 79 78 89 93 81
91 91 84 91 100 88 93 90 80 89 91 85 64 71 88 91
91 76 65 66 75 66 57 19 0 0 0 0 0 0 0 0
14 14 8 6 4 2 0 0 0 0 0 0 0 34 85 85
93 93 85 78 84 81 85 93 91 93 93 92 89 97 92 95
86 91 91 90 89 85 88 88 93 92 92 89 88 90 96 86
93 94 84 91 101 93 98 94 89 81 93 79 81 91 125 121
83 58 52 76 97 88 91 98 89 86 85 92 94 98 90 85
82 88 88 91 75 85 81 79 90 87 82 89 84 75 93 82
84 92 94 97 91 91 100 92 89 98 90 80 63 73 89 92
91 86 68 65 74 66 62 37 3 0 0 0 0 0 0 0
0 0 0 0 0 0 0 0 0 0 0 0 9 71 86 79
79 94 92 79 90 83 85 93 96 93 94 91 97 99 91 98
87 88 92 94 93 97 91 91 92 88 89 88 88 97 91 93
106 99 80 88 96 90 85 92 94 82 85 94 84 76 90 89
57 51 80 90 79 93 92 91 89 96 100 94 84 86 85 92
98 95 85 74 93 86 87 82 78 82 83 96 84 83 92 83
91 92 83 90 93 91 93 80 91 83 83 94 64 84 89 90
93 83 61 67 65 63 72 44 26 0 0 0 0 0 0 0
0 0 0 0 0 0 0 0 0 0 0 0 44 79 82 78
89 90 88 80 85 87 84 92 95 94 94 97 91 96 91 93
90 90 89 98 96 89 92 93 93 89 93 86 96 90 90 96
91 94 91 90 92 94 94 96 98 98 92 90 94 73 68 62
63 66 91 104 96 90 92 96 91 92 98 97 95 82 82 86
95 90 98 101 82 89 82 82 85 89 88 90 77 82 93 99
90 87 91 100 89 88 101 78 81 87 94 90 61 86 91 94
89 81 61 64 53 71 70 45 51 3 0 0 0 0 0 0
0 0 0 0 0 0 0 0 0 0 0 15 65 80 82 67
90 91 93 76 90 85 88 90 93 94 97 92 90 94 93 90
94 86 88 91 90 100 90 89 97 97 86 94 89 95 99 91
103 105 98 83 98 98 92 92 90 95 93 80 83 72 54 66
91 100 93 85 90 88 86 91 93 82 94 89 85 93 93 90
83 86 80 84 101 91 102 76 98 88 90 87 91 80 79 89
86 97 91 90 82 92 96 78 90 82 81 78 61 85 91 90
81 78 65 61 55 78 68 47 63 24 0 0 0 0 0 0
0 0 0 0 0 0 0 0 0 0 0 54 62 81 77 68
88 88 89 77 84 86 83 85 93 89 88 92 87 86 92 90
92 87 87 97 101 97 87 97 91 94 97 84 97 105 100 94
94 83 93 90 100 99 100 100 99 98 93 92 75 57 66 82
94 100 91 83 95 94 93 97 87 91 95 90 90 98 86 86
95 87 96 91 85 85 88 90 84 91 85 75 82 80 87 95
86 88 79 87 87 88 101 80 85 86 87 89 67 91 91 78
79 82 65 58 64 82 61 49 69 41 0 0 0 0 0 0
0 0 0 0 0 0 0 0 0 0 15 77 63 77 74 65
90 90 91 76 94 80 93 88 92 98 97 92 94 101 103 91
89 88 88 99 88 92 91 83 96 103 87 92 97 92 90 96
97 99 98 92 93 94 98 96 99 108 102 87 71 49 80 79
101 102 93 83 94 86 90 93 94 90 95 93 91 85 93 94
92 92 76 103 88 87 91 82 86 91 91 88 80 92 91 92
82 90 86 85 95 82 95 80 92 90 89 79 64 86 92 78
78 82 66 53 67 80 67 54 69 54 8 0 0 0 0 0
0 0 0 0 0 0 0 0 0 0 52 78 67 76 71 68
85 88 91 80 93 89 84 91 99 92 88 87 84 89 88 90
97 83 91 86 94 100 83 90 92 94 94 91 100 98 93 93
99 96 90 94 100 96 94 93 89 99 90 78 71 62 93 79
95 102 93 85 100 94 93 97 87 87 100 86 94 98 85 90
88 81 102 87 85 99 83 86 90 93 84 81 82 93 90 88
84 86 88 84 99 83 91 70 86 89 86 89 65 86 75 83
77 81 56 49 73 82 61 60 58 62 23 0 0 0 0 0
