P2
128 120
140
0 3 8 4 0 0 0 27 47 39 33 33 33 33 33 33
33 32 32 32 31 31 31 31 30 30 30 29 29 28 28 28
28 27 27 26 27 26 26 25 25 24 25 24 24 24 23 22
22 22 21 21 21 21 21 20 20 20 20 21 21 24 26 26
26 25 19 17 23 16 25 23 23 22 21 20 21 21 19 19
18 13 19 17 21 21 21 22 22 22 21 22 22 22 22 22
22 22 22 22 22 22 22 22 22 23 22 23 24 23 23 24
24 24 24 24 25 25 25 26 25 26 25 25 26 26 26 25
0 6 8 3 0 0 0 26 45 38 33 33 33 33 33 32
33 32 32 32 31 31 31 31 30 30 29 29 29 28 28 28
28 27 27 26 26 26 25 25 25 25 25 24 24 24 23 23
23 22 22 22 22 21 21 20 21 20 20 20 22 24 26 27
26 25 18 17 24 16 24 23 23 22 22 21 22 21 20 20
20 15 21 20 22 22 22 22 22 22 21 21 21 21 22 22
22 22 22 22 22 23 23 23 24 24 24 23 23 23 23 23
24 25 25 24 25 25 25 26 25 25 25 24 24 25 24 25
0 0 2 1 0 0 0 26 46 39 33 34 34 34 33 33
33 33 32 32 31 31 31 31 30 30 30 29 29 29 28 28
28 28 27 27 26 26 27 26 26 25 25 25 25 24 24 23
23 23 22 22 22 21 21 21 21 21 21 21 22 24 27 27
26 27 19 18 25 16 24 23 23 23 22 22 22 22 20 20
20 16 22 20 22 22 23 22 23 23 22 22 23 23 22 23
23 23 22 23 23 23 23 23 23 23 24 23 24 24 24 24
25 26 25 25 25 25 24 24 24 24 25 26 26 26 26 26
0 0 0 5 4 0 0 25 45 38 33 33 33 33 33 33
33 33 32 32 32 32 31 31 31 31 30 30 29 29 29 28
28 28 27 27 27 26 26 26 25 25 26 25 25 24 24 24
24 23 23 23 22 22 22 22 21 21 21 22 22 24 27 26
27 26 19 18 25 17 24 23 24 23 22 22 21 22 20 21
20 16 21 20 23 22 22 22 22 23 23 23 23 23 23 22
23 23 23 23 23 24 23 24 24 24 24 24 24 24 25 24
25 25 24 24 25 25 26 26 26 26 26 26 26 26 26 26
0 0 1 5 5 0 0 25 45 38 33 33 33 33 32 32
32 33 32 31 31 31 31 31 30 29 30 29 30 30 29 28
29 28 28 27 27 26 26 26 26 25 26 25 25 24 24 24
24 23 22 22 23 22 22 21 21 21 21 22 23 25 28 27
27 27 20 18 26 18 23 23 23 23 23 22 22 22 21 20
20 16 22 20 22 23 22 23 22 24 23 23 23 23 23 22
23 23 23 23 23 24 24 23 24 24 24 24 23 24 24 24
24 25 25 26 26 25 26 26 26 26 26 27 26 26 26 26
0 0 1 0 2 2 0 24 44 37 33 33 33 33 33 33
32 32 32 32 32 32 31 31 30 30 30 30 29 29 28 28
28 27 27 27 27 27 26 26 26 26 26 25 25 24 24 24
24 24 23 23 23 22 22 21 21 22 22 22 23 25 28 27
27 27 20 18 26 20 22 24 24 23 23 23 21 23 21 21
20 18 21 20 23 23 23 23 23 24 23 23 23 23 22 23
24 23 24 24 24 24 24 24 24 23 24 24 24 24 24 24
25 26 25 26 26 26 26 26 26 26 26 26 27 26 26 26
12 6 1 0 2 2 8 30 45 37 33 33 33 33 33 32
33 32 32 31 32 32 31 31 30 30 30 30 30 29 29 29
28 27 28 27 27 27 27 26 26 26 26 25 25 25 24 24
24 24 23 23 23 22 22 22 22 22 22 23 23 25 28 28
28 27 20 18 25 23 21 25 24 24 24 23 21 22 21 21
21 18 21 20 24 23 23 24 24 24 23 23 24 23 24 24
23 24 23 23 23 23 24 24 24 24 24 24 25 25 25 25
25 26 25 26 27 25 26 26 27 26 26 26 26 26 26 26
32 33 32 27 22 16 16 33 43 36 33 33 33 33 33 33
33 32 32 33 32 31 31 31 31 30 30 30 30 29 29 28
28 28 27 28 28 27 27 27 26 26 26 25 25 25 25 24
24 24 23 24 23 23 22 22 23 23 22 22 24 25 29 28
28 27 21 18 26 25 19 25 25 24 24 23 22 22 21 21
21 18 21 20 23 24 24 24 24 25 24 24 24 23 24 24
23 23 24 24 24 24 24 24 25 24 24 24 25 25 24 24
25 26 26 26 26 26 26 27 26 27 26 26 26 26 26 26
23 25 27 29 32 35 37 37 38 34 33 33 33 32 33 32
32 32 32 31 31 31 31 30 30 31 30 30 30 29 29 28
28 28 28 28 27 27 27 26 26 26 26 25 25 26 25 25
24 24 24 24 23 23 23 23 22 22 22 23 24 26 29 29
28 28 22 18 27 27 19 25 25 24 23 23 22 22 21 21
21 19 21 21 24 24 25 24 24 24 23 23 23 22 23 23
24 25 24 24 24 24 24 24 25 25 24 25 24 25 26 26
26 27 26 25 25 26 26 26 26 26 26 26 25 25 26 26
13 17 20 23 26 29 30 31 33 33 34 34 34 34 34 33
33 33 32 32 32 32 31 31 31 30 30 30 29 29 29 28
28 29 28 28 28 28 27 28 27 27 26 26 26 26 25 25
25 24 24 24 24 23 24 24 23 23 23 23 24 25 29 29
30 28 23 18 27 28 18 26 26 25 25 24 23 23 22 22
22 20 22 21 24 24 24 24 24 24 23 24 24 24 24 25
24 25 25 25 25 25 25 25 25 25 26 26 25 26 26 26
27 26 27 26 26 26 27 26 26 27 26 26 26 26 26 26
11 11 10 10 11 14 18 22 27 31 34 34 34 33 33 33
33 32 32 32 31 31 31 31 31 30 30 30 29 29 29 29
29 29 28 28 27 27 27 26 26 26 27 26 26 26 26 25
25 25 25 24 24 24 24 23 23 23 23 24 25 26 29 29
29 29 23 19 26 29 18 25 26 25 24 24 23 23 22 22
22 19 22 20 24 24 24 24 25 25 25 24 24 24 25 25
25 26 24 24 24 25 25 25 25 26 25 26 26 26 26 26
26 26 26 26 27 27 27 26 26 26 26 25 26 26 26 26
11 10 10 10 11 10 9 11 11 12 14 18 22 27 31 33
33 33 32 32 31 31 31 31 31 30 30 30 30 29 29 29
29 29 28 28 28 28 27 27 27 26 26 26 26 26 26 25
25 25 25 24 24 24 24 24 24 23 23 24 24 25 30 30
30 29 23 19 27 30 19 25 26 25 24 24 24 24 22 22
22 20 21 22 25 24 25 24 25 25 25 25 25 25 25 26
26 26 26 25 25 25 24 24 25 25 26 26 25 26 26 26
26 26 26 26 26 26 27 27 27 26 26 26 27 26 27 27
16 13 11 12 11 12 11 11 10 10 11 11 10 11 12 14
17 22 26 31 31 31 31 31 31 31 31 31 30 30 30 29
29 29 28 28 28 28 28 27 27 27 27 26 26 26 26 25
25 25 25 25 24 24 24 23 24 23 23 24 25 25 29 29
29 29 24 19 26 31 21 25 26 25 25 24 24 23 23 23
23 21 22 22 25 25 25 25 25 25 25 25 25 25 24 25
25 26 25 25 26 25 25 25 26 26 26 26 26 26 26 26
26 26 26 26 27 26 27 27 27 27 27 26 25 24 23 24
41 38 37 37 34 29 25 18 12 12 11 11 11 12 12 11
3 5 12 29 31 31 31 31 31 31 31 30 30 30 30 29
29 29 29 29 28 28 28 28 28 27 27 27 26 26 26 26
26 25 25 24 25 24 24 24 24 24 24 24 25 26 30 30
29 28 24 19 26 31 23 23 27 26 25 25 24 24 23 23
23 22 21 23 25 25 25 25 25 25 26 25 26 25 25 26
26 26 26 26 25 25 26 25 26 26 26 27 26 26 27 27
27 27 28 27 26 27 27 27 26 25 26 25 25 27 27 26
49 44 40 48 47 46 43 30 20 23 20 14 9 9 11 11
8 8 12 29 32 32 32 31 31 31 30 30 31 30 30 30
29 28 28 29 29 28 28 27 27 27 27 27 26 27 26 26
26 26 26 25 25 25 24 24 24 24 25 24 25 26 29 28
27 24 18 18 25 31 24 21 27 26 26 25 24 25 24 23
23 22 22 24 26 26 26 26 26 26 26 26 26 25 26 26
26 27 27 26 26 26 26 26 27 27 26 27 27 27 27 27
27 26 26 26 25 26 26 27 27 27 27 26 26 26 27 27
46 40 42 43 46 47 46 33 28 33 38 37 31 29 23 16
9 9 11 28 32 32 31 31 31 30 32 32 31 31 30 30
30 29 29 29 29 28 28 28 28 28 27 27 35 35 31 28
27 25 25 26 25 25 24 25 25 24 24 24 21 16 11 12
4 0 0 4 3 20 17 13 20 24 26 25 24 24 23 24
23 22 21 23 25 26 25 26 26 26 27 26 26 26 26 26
26 27 27 27 27 26 26 26 27 26 26 27 26 26 26 27
26 26 26 27 26 27 27 26 26 26 26 26 26 26 26 26
31 26 36 39 45 47 47 36 33 36 39 37 34 42 42 41
19 10 13 29 32 32 32 32 31 33 42 40 38 36 33 31
30 28 30 29 29 28 29 28 27 28 27 29 40 40 36 34
34 32 27 26 25 25 26 24 23 19 14 7 3 1 2 0
0 0 0 0 0 0 0 0 0 3 14 13 16 24 24 24
24 23 22 24 26 27 26 26 26 26 26 26 26 26 27 26
27 27 27 27 27 27 27 27 26 27 27 27 27 26 27 26
25 27 26 27 26 26 26 26 26 25 27 27 27 27 27 27
13 0 0 4 9 14 31 38 37 38 41 41 43 46 46 45
24 10 15 30 33 33 32 32 31 34 43 41 40 37 36 36
36 35 32 30 29 29 29 28 28 28 28 29 39 38 36 35
36 35 31 25 26 26 25 23 12 3 1 0 0 1 0 0
0 0 0 0 0 4 3 0 0 0 0 0 0 7 19 23
25 24 22 25 26 27 27 27 27 26 27 27 27 27 27 27
26 27 27 26 26 26 27 27 27 28 28 26 27 27 27 27
27 27 27 26 27 27 26 27 26 26 27 27 26 26 26 26
0 0 0 0 4 0 18 39 37 39 41 42 44 45 45 46
29 11 16 35 36 35 34 33 32 34 44 42 40 38 38 39
41 39 36 37 35 32 29 28 29 29 29 29 32 31 33 34
36 36 32 26 26 22 12 7 4 1 1 0 1 0 0 0
0 0 1 0 0 1 0 0 0 0 0 0 0 0 1 10
22 24 22 25 26 28 28 28 28 28 28 27 27 27 27 27
27 27 28 27 27 27 27 27 27 28 28 27 27 27 27 27
27 27 27 26 26 26 27 26 27 27 26 27 27 27 27 27
0 0 0 5 15 3 21 38 33 38 36 41 44 44 44 44
30 11 15 35 38 33 35 35 35 36 28 21 33 38 40 43
43 40 27 24 33 36 36 35 34 33 31 29 24 11 12 13
19 25 31 24 16 7 5 2 0 0 0 3 4 0 0 0
0 4 0 0 0 0 1 0 0 0 0 0 0 0 0 0
4 16 21 26 26 28 28 28 27 27 27 27 27 28 27 27
28 27 27 27 27 27 27 27 27 27 29 27 28 27 27 28
28 27 27 27 27 26 27 27 27 26 27 28 27 27 27 26
0 0 0 7 15 8 23 36 3 7 16 25 36 40 41 42
31 12 16 35 38 29 28 33 39 42 18 0 0 12 23 25
30 37 13 0 1 6 14 20 27 35 35 32 24 8 5 9
5 0 12 10 9 7 1 0 0 1 4 7 4 0 0 0
1 1 0 0 0 0 0 0 0 0 0 0 0 0 0 0
0 0 6 19 27 27 27 27 28 27 29 28 28 28 27 28
28 28 28 28 28 27 28 28 27 28 29 27 28 28 27 27
28 27 28 27 27 27 27 27 27 27 27 28 28 27 26 26
0 0 0 2 5 2 22 35 1 0 0 1 1 6 6 23
33 12 15 29 37 38 38 34 42 45 21 0 0 4 10 11
10 31 14 0 0 0 0 0 0 3 9 28 25 5 3 1
6 1 7 6 9 1 0 0 4 13 15 11 5 0 0 0
0 2 0 0 0 1 2 0 0 0 0 0 0 0 0 0
0 0 0 1 12 26 28 29 28 29 29 28 29 29 28 28
28 28 28 28 28 28 28 27 28 27 29 28 29 28 28 27
28 28 28 28 28 27 27 27 27 27 28 27 27 27 27 26
0 0 0 0 0 0 22 35 0 0 0 0 0 0 0 13
34 12 12 0 3 10 21 31 39 43 23 0 0 2 4 8
8 29 16 0 0 0 0 0 0 0 0 26 24 3 0 0
4 6 3 4 3 0 0 0 6 12 10 8 1 0 0 0
0 0 0 0 1 1 1 0 0 0 0 0 0 0 0 0
0 0 0 0 2 13 28 29 29 29 30 29 29 29 28 28
28 28 28 29 29 28 28 28 28 28 29 28 28 28 28 27
27 28 28 28 28 27 28 28 28 28 28 28 28 27 27 27
0 2 0 10 0 0 21 34 0 0 0 3 0 0 0 13
35 12 11 0 0 0 0 0 2 10 20 0 0 0 0 1
3 25 16 0 0 0 0 0 0 0 0 25 19 0 0 0
7 7 1 4 1 2 0 0 8 5 2 3 1 0 0 0
0 0 0 1 0 2 4 3 3 0 0 0 0 0 0 0
0 0 0 0 0 3 25 30 29 29 30 29 29 29 28 28
28 28 28 29 29 28 28 29 29 29 29 29 29 28 28 29
28 28 29 29 28 27 28 28 28 27 29 28 27 28 28 28
0 16 11 21 0 0 22 33 0 0 0 15 2 0 0 14
35 13 12 0 0 0 0 0 0 0 15 0 0 0 0 0
1 25 15 0 0 0 1 4 0 0 0 23 18 0 0 0
7 0 4 10 9 0 0 5 7 2 3 1 0 0 0 0
5 3 5 6 6 5 3 4 5 3 0 0 0 0 0 0
0 0 0 0 0 1 25 30 29 29 30 29 29 29 29 29
29 29 29 29 28 29 29 29 29 29 29 28 29 29 29 29
28 29 29 29 29 28 29 29 29 29 28 28 27 28 29 28
1 0 0 3 0 0 22 34 0 1 0 8 15 0 0 14
34 13 12 0 0 0 0 0 0 0 13 0 0 0 0 0
1 30 20 0 0 0 3 12 5 1 0 21 19 1 5 1
3 3 13 15 6 1 5 7 8 4 0 0 0 0 0 3
7 6 11 10 6 10 11 16 17 7 1 0 0 0 0 0
0 0 0 0 2 10 18 30 30 30 30 29 29 29 29 29
28 29 29 29 29 29 29 29 30 30 29 29 29 30 30 29
29 30 29 29 29 28 28 28 27 27 28 29 29 29 28 29
0 3 7 2 0 0 21 32 0 0 0 1 2 0 0 14
33 12 12 0 0 0 2 2 0 0 11 0 0 0 0 0
0 26 22 0 0 0 5 12 11 10 2 18 19 4 0 3
3 6 20 13 9 2 6 8 3 1 0 0 0 0 2 9
10 13 16 14 15 16 16 20 21 9 7 5 0 5 2 0
0 0 0 3 7 14 17 29 29 29 30 28 29 29 29 29
29 29 29 29 29 29 29 29 30 30 30 29 29 29 29 29
29 30 29 28 29 29 28 28 28 28 28 29 29 28 28 28
0 0 4 0 0 0 21 29 0 0 0 0 0 0 0 15
32 12 12 0 1 2 4 6 0 0 11 0 1 0 0 0
1 26 23 0 0 0 5 11 11 11 3 13 9 1 0 1
2 4 26 9 9 16 17 6 6 2 2 0 3 1 6 13
16 15 19 22 29 24 22 27 25 15 14 7 8 18 13 11
7 1 1 10 10 14 19 29 29 29 30 29 29 29 29 28
28 29 29 29 29 30 30 30 30 29 29 29 29 29 29 29
30 29 30 28 29 29 28 28 28 28 29 28 28 27 28 28
26 21 15 10 4 2 23 29 0 0 4 0 0 0 0 15
31 12 12 0 9 2 2 0 0 0 11 0 0 0 0 0
5 25 26 0 0 0 1 7 10 10 2 5 2 1 1 5
3 7 26 12 24 20 13 18 3 5 2 7 5 6 12 25
22 22 25 28 29 27 33 38 26 22 19 13 26 33 36 22
10 3 11 13 8 16 24 29 29 29 30 29 29 29 29 29
29 29 29 29 29 29 29 29 29 29 29 29 29 29 29 28
29 29 30 29 29 30 29 28 28 28 28 28 28 27 28 28
37 37 45 46 44 41 36 39 17 8 10 11 8 4 2 18
31 12 12 2 4 0 0 1 0 0 15 0 0 0 0 0
8 29 35 11 5 3 0 0 3 8 2 0 0 6 8 8
2 13 14 24 12 9 12 10 9 8 7 8 2 11 22 37
27 36 31 33 37 37 49 40 31 26 22 31 48 60 38 23
9 20 17 11 10 24 27 29 29 30 29 29 30 29 29 29
30 29 29 29 30 30 30 29 30 29 29 29 28 29 29 30
30 29 30 29 28 29 28 28 28 28 29 28 28 27 28 28
8 17 20 22 27 36 38 56 51 27 32 34 38 37 34 34
26 12 12 1 0 0 0 0 0 0 29 35 24 19 16 9
2 23 45 31 32 32 28 21 14 10 2 2 7 8 15 12
3 12 15 14 2 15 9 20 13 18 4 2 3 16 39 39
41 54 72 64 49 51 51 52 39 45 57 76 80 65 49 26
26 30 17 12 25 28 29 29 28 29 29 29 29 30 30 29
29 29 31 29 29 29 29 30 29 29 29 29 29 29 29 30
30 29 30 29 28 28 27 27 26 27 26 26 25 25 26 28
4 14 9 7 0 12 52 58 44 24 34 42 45 44 44 43
27 12 12 1 0 0 0 0 0 0 31 49 38 39 41 43
40 45 41 11 11 13 16 18 20 18 4 4 10 12 17 8
8 21 14 1 4 21 17 24 21 17 10 4 9 23 44 74
94 109 116 112 97 81 66 58 76 96 101 98 86 65 54 50
40 33 26 39 39 29 29 29 30 29 29 29 29 29 29 29
28 28 30 29 29 29 28 28 29 29 28 28 29 29 29 28
28 28 28 28 26 27 27 26 26 27 26 24 22 19 16 13
2 2 0 1 0 14 53 54 36 27 36 42 44 43 47 46
28 13 13 4 0 0 0 0 0 0 33 45 36 43 46 49
45 37 32 13 11 11 11 10 12 9 5 3 17 18 19 9
16 25 5 1 6 23 26 19 22 13 15 8 18 41 68 95
108 119 124 124 121 113 110 112 114 114 112 106 104 98 87 71
64 53 53 57 49 36 30 30 29 29 29 29 29 29 29 28
28 28 30 28 28 28 29 28 29 29 28 28 28 29 29 29
30 30 30 28 25 24 28 20 14 11 10 9 8 8 9 9
1 0 0 0 0 13 50 47 17 8 18 24 27 32 36 43
28 13 15 31 37 29 20 12 6 3 33 33 36 43 46 49
48 40 32 17 12 12 11 10 9 6 5 7 15 17 14 13
16 32 7 14 17 21 24 12 17 16 13 15 28 57 80 99
103 116 125 125 122 126 122 120 119 118 113 109 110 107 95 83
76 68 65 65 60 46 31 29 29 29 29 29 29 29 29 28
27 27 30 29 29 28 29 29 29 30 30 31 29 27 25 22
19 16 14 12 11 10 28 19 6 10 12 13 13 14 14 15
0 0 0 0 0 12 51 48 15 0 0 0 0 0 0 19
30 13 15 34 46 45 44 43 42 41 44 27 33 41 43 47
47 42 36 20 14 11 9 9 8 6 7 8 8 4 18 22
15 19 19 17 14 17 18 14 19 20 21 24 38 67 86 93
103 116 124 126 127 127 126 121 118 118 116 112 111 108 104 95
85 80 70 71 70 60 39 29 29 29 29 28 29 29 28 28
28 28 29 29 30 30 29 28 26 23 21 18 15 13 13 12
13 13 14 14 15 13 19 15 11 15 18 18 19 20 21 21
6 0 0 0 0 9 49 49 13 0 0 0 0 0 0 16
31 14 15 34 47 47 45 45 45 47 45 9 3 8 14 21
27 27 37 21 12 10 4 5 7 9 9 4 0 10 26 23
13 15 13 8 10 7 18 25 23 28 32 32 45 63 77 91
101 112 120 127 130 130 130 127 123 121 116 116 113 111 108 101
92 84 78 74 76 69 54 32 28 27 26 26 25 22 24 29
29 28 26 23 21 19 16 14 13 14 14 15 15 16 17 18
18 18 20 21 21 20 25 23 15 21 23 23 24 24 24 24
14 0 0 0 0 5 47 47 10 0 0 0 0 9 9 17
31 15 15 30 41 43 43 45 46 47 43 5 0 0 0 0
8 14 37 20 11 9 1 4 11 13 5 1 2 17 12 14
15 15 12 1 11 15 19 26 40 38 32 31 51 63 74 86
96 110 114 124 129 131 131 131 128 122 116 116 113 111 109 106
98 85 77 72 75 75 69 44 27 27 26 25 25 15 15 18
17 16 15 15 16 16 18 19 19 20 20 21 21 22 23 23
24 24 25 26 24 23 20 19 18 25 24 25 25 26 27 27
7 0 0 0 0 5 43 42 8 0 0 0 3 25 25 23
29 26 23 26 29 31 33 33 34 41 40 3 0 0 0 0
0 9 40 19 11 10 4 7 10 16 7 0 2 9 2 9
15 16 6 4 14 27 33 37 38 31 29 40 50 63 73 85
102 104 115 126 131 131 133 131 129 124 116 119 118 113 112 108
104 94 80 73 72 78 76 64 30 19 17 16 17 14 15 17
18 19 21 21 22 22 24 24 25 25 25 25 26 26 26 27
27 27 27 27 26 21 3 2 16 26 28 28 28 28 27 28
10 1 0 0 0 6 42 42 6 0 0 0 1 23 24 21
25 20 18 20 19 21 29 29 28 40 40 3 0 0 0 0
0 2 40 15 8 2 0 5 7 12 10 6 4 8 3 7
10 8 1 8 17 24 33 27 31 31 29 41 55 62 69 91
96 100 116 125 127 130 129 130 129 126 122 119 118 116 115 112
109 101 89 75 71 77 81 75 49 19 19 20 21 21 21 22
24 25 26 26 27 27 28 28 28 29 28 28 28 29 29 28
29 29 29 27 27 21 2 1 10 26 28 29 29 28 28 28
0 0 0 0 0 7 43 42 5 0 0 0 0 5 7 13
22 20 19 22 24 24 28 29 31 40 38 2 0 0 0 0
0 3 41 5 0 0 0 4 10 6 8 9 12 21 7 8
5 3 6 14 23 24 37 24 33 36 37 47 51 58 72 88
91 104 111 120 126 131 130 130 128 125 124 121 120 118 115 113
108 104 95 82 70 75 80 79 63 32 23 25 26 27 27 28
29 28 29 29 29 28 29 29 30 30 30 30 29 30 30 30
29 13 8 3 11 19 3 3 10 26 29 29 30 29 29 28
0 0 0 0 0 9 45 43 4 0 0 0 0 0 0 7
19 14 18 13 7 14 20 26 33 37 37 3 0 0 0 0
0 4 42 6 0 0 0 6 7 5 6 7 14 23 10 5
10 3 12 15 25 38 33 20 37 37 50 47 52 56 72 88
95 109 119 121 126 131 131 129 126 125 121 119 118 118 115 112
108 105 97 84 73 72 76 76 68 43 28 28 28 29 29 29
30 30 30 30 30 31 31 31 31 31 31 31 30 30 30 30
26 5 7 11 18 18 0 0 8 27 29 29 30 28 28 29
0 0 0 0 0 11 46 43 4 0 0 4 0 0 0 7
26 23 23 11 0 0 0 0 0 2 18 3 0 0 0 0
0 6 40 4 0 0 0 6 10 9 9 5 13 16 6 13
18 9 20 27 33 30 20 23 37 42 51 52 50 58 77 99
101 114 115 119 132 130 131 129 126 123 120 119 117 114 110 107
103 100 92 83 76 72 74 71 64 48 31 29 28 30 31 31
31 31 31 31 31 31 31 31 31 31 31 31 31 31 31 31
30 29 29 29 28 22 1 0 8 26 28 28 29 28 29 29
11 6 3 1 0 13 47 42 4 0 0 2 4 0 0 8
33 26 23 12 0 0 0 0 0 0 13 3 0 0 3 0
0 4 39 3 0 0 0 6 10 6 9 4 13 10 7 13
23 11 25 26 22 22 16 33 37 43 47 49 53 64 80 97
104 115 120 127 132 129 130 126 122 123 123 119 112 105 104 99
97 84 71 71 77 75 70 66 57 44 32 29 30 31 31 31
31 31 31 32 31 32 32 31 31 32 32 32 31 31 31 31
31 30 29 28 26 23 6 0 11 26 28 29 29 29 28 28
41 29 37 37 29 30 39 38 9 0 0 2 8 1 0 7
37 27 23 12 0 0 0 0 0 0 12 3 0 2 15 7
0 4 39 2 0 0 0 7 5 6 9 7 12 17 11 20
23 17 23 19 16 16 27 33 41 43 44 47 57 74 94 102
113 128 131 131 127 125 127 123 123 128 127 118 102 92 82 74
67 43 47 56 72 80 70 58 44 25 17 30 32 32 31 32
31 31 31 32 32 31 31 31 31 32 32 31 31 32 31 31
31 30 30 29 27 24 11 0 16 26 29 29 30 29 29 28
19 13 19 23 22 22 34 33 28 12 7 6 14 9 3 5
37 23 21 12 0 0 7 7 0 0 11 4 0 9 17 10
2 4 37 1 2 0 0 7 9 8 10 6 16 24 17 16
24 22 19 11 16 16 30 30 39 45 44 48 71 77 99 106
123 130 130 127 125 125 124 124 127 129 122 99 83 70 62 40
31 34 40 50 73 82 67 48 28 12 5 25 32 33 32 32
32 32 31 32 32 31 31 31 31 32 32 30 31 30 31 30
30 30 29 27 26 22 18 15 22 28 29 29 30 29 29 29
0 0 0 6 11 2 34 35 34 38 35 30 38 37 34 34
40 23 21 12 0 4 17 13 5 0 12 16 8 18 18 16
8 5 37 1 2 0 0 3 12 11 14 9 14 29 20 11
18 24 18 12 19 18 29 32 32 40 44 58 82 85 102 126
129 126 128 125 126 127 125 125 125 123 100 75 55 57 58 46
37 42 48 62 79 89 60 33 16 4 1 23 32 31 32 32
32 31 32 32 32 32 32 32 32 32 33 32 32 32 32 31
31 30 30 30 27 24 22 23 27 29 29 30 30 29 29 28
0 0 0 7 15 10 37 36 27 5 7 15 22 32 39 44
44 28 18 13 0 3 12 9 4 0 12 41 38 42 41 39
40 39 41 2 0 0 0 0 8 10 21 12 10 17 20 10
13 25 18 17 21 19 25 28 30 41 48 68 86 82 115 130
127 128 128 127 127 127 126 124 120 109 88 79 82 84 74 62
55 57 69 82 95 95 48 23 21 13 4 26 33 32 32 32
32 32 32 32 32 32 32 31 32 31 32 32 31 31 31 31
31 30 30 29 28 25 25 26 30 30 29 29 30 29 30 30
0 6 9 2 5 12 38 37 26 0 0 0 5 2 22 44
42 25 20 15 1 0 2 0 0 0 11 41 40 44 43 43
48 51 46 17 12 15 5 2 6 10 13 8 13 13 15 10
19 33 23 25 20 22 24 26 35 44 55 66 83 93 122 128
126 129 129 130 127 127 129 127 120 102 93 102 100 94 80 65
50 65 90 104 117 103 46 45 47 37 13 30 32 32 32 32
31 32 32 32 32 32 31 31 31 31 31 31 31 32 31 31
30 30 29 29 28 27 27 28 30 30 29 30 30 30 30 30
7 29 35 18 8 5 40 38 24 0 0 9 31 10 30 42
38 23 21 22 15 0 2 0 0 0 9 40 40 42 42 42
50 52 51 35 33 33 30 27 13 9 6 4 7 14 9 10
21 24 26 25 24 25 28 28 37 46 59 64 78 100 122 123
128 130 131 131 131 131 130 125 118 111 110 103 86 80 67 42
30 68 111 123 129 114 58 38 42 36 26 32 32 32 32 32
32 32 32 32 32 32 32 31 31 31 31 31 31 31 31 31
31 29 30 30 29 29 28 29 29 29 29 29 28 29 29 29
18 30 27 0 0 5 42 40 24 0 0 1 25 26 35 41
33 20 21 22 8 0 1 0 0 0 9 37 35 38 38 38
39 37 38 36 37 37 36 33 15 9 5 8 13 20 11 10
20 21 24 29 33 33 42 40 40 54 63 64 76 103 117 120
131 133 133 131 130 131 130 129 121 114 94 50 50 42 16 19
37 65 117 130 132 124 86 29 20 25 32 32 32 32 32 32
32 32 32 32 32 32 32 32 32 32 32 32 32 32 32 31
30 30 30 30 29 28 30 30 29 29 30 30 30 30 30 29
1 34 36 2 0 4 44 42 26 0 0 0 4 11 35 44
30 22 25 22 3 0 0 0 0 0 9 42 34 36 36 35
35 32 32 36 37 39 39 35 17 12 6 11 22 19 21 16
18 22 28 33 41 44 52 60 48 57 58 60 83 106 119 129
132 133 133 132 131 131 126 119 105 84 76 78 65 52 35 39
48 79 106 125 128 126 105 46 0 12 32 33 33 33 33 32
33 32 32 32 32 32 30 31 31 31 32 31 30 31 31 32
31 31 30 30 29 30 31 32 31 30 31 30 31 30 30 29
0 22 18 1 3 6 44 43 28 0 0 0 0 2 33 44
30 22 22 23 24 19 15 12 10 6 13 44 35 35 35 35
36 36 38 40 39 41 45 47 26 16 8 17 22 18 20 20
66 87 85 62 49 54 64 76 53 52 51 65 76 96 121 129
132 131 132 132 131 129 121 112 101 104 101 97 93 82 63 46
56 94 113 124 125 123 116 88 19 21 31 32 32 32 32 32
32 33 32 33 33 32 33 32 32 31 32 32 31 31 32 31
31 30 31 30 30 31 31 31 31 29 31 30 30 29 16 14
0 0 0 1 3 5 44 43 27 0 0 0 0 0 29 45
30 22 23 28 44 45 44 42 46 48 47 48 38 37 37 37
38 41 45 46 40 42 46 50 32 13 10 17 18 11 19 66
114 104 100 111 85 77 72 70 50 49 51 67 85 105 121 127
130 131 132 132 131 128 128 123 119 118 113 108 95 78 69 61
80 101 113 120 122 122 121 106 56 29 32 32 33 32 33 33
33 33 33 33 32 31 31 31 31 31 33 32 32 32 31 31
31 30 31 30 31 31 31 31 31 30 29 30 30 16 25 27
0 0 0 0 0 3 43 43 23 0 0 0 0 0 30 46
32 21 24 28 51 53 52 52 52 52 52 51 39 34 33 33
34 40 45 48 41 42 41 39 36 16 7 16 17 10 26 108
98 86 105 95 122 117 106 85 55 49 59 79 94 115 120 126
129 128 129 131 128 129 130 129 125 122 117 108 96 83 80 81
95 103 112 119 122 123 129 117 85 35 33 33 33 32 33 33
33 33 33 33 32 31 31 31 31 32 31 31 31 31 30 30
30 30 30 30 31 30 31 30 30 30 30 30 29 16 29 19
0 0 0 0 0 2 42 43 22 0 0 0 0 0 28 46
31 19 24 25 40 43 44 45 47 49 49 50 18 11 9 6
8 11 22 45 41 35 15 16 20 18 8 6 16 16 49 109
97 132 135 112 110 131 125 101 76 65 83 100 110 117 120 123
126 128 129 129 130 130 129 129 130 124 121 115 107 93 85 89
94 101 114 119 123 124 124 119 104 60 32 33 33 33 33 33
32 33 33 32 31 31 30 30 31 30 30 31 31 30 29 29
30 29 27 27 29 30 31 30 30 30 29 30 26 17 29 15
0 0 0 0 0 2 41 43 22 0 0 0 0 0 24 41
28 19 25 22 27 28 27 27 27 28 28 33 11 0 0 0
0 0 4 42 39 17 0 0 2 13 12 7 9 14 60 105
115 131 130 121 111 127 129 122 117 105 108 113 113 117 119 121
121 124 126 127 130 132 132 130 131 128 124 118 111 103 97 92
93 101 109 116 119 121 116 115 110 92 41 33 32 32 32 32
32 32 32 31 30 29 29 28 29 29 30 30 30 26 14 12
10 8 6 7 18 31 30 30 30 29 30 29 27 17 25 11
0 0 0 0 0 1 41 43 24 0 0 0 0 0 24 44
31 18 23 22 34 35 35 34 33 32 31 34 15 5 0 0
0 1 14 42 34 4 0 0 0 10 13 7 5 17 66 108
114 123 121 125 108 99 130 131 126 120 113 111 109 115 118 121
123 122 125 125 129 132 131 132 129 127 126 120 112 108 104 97
94 100 111 117 120 121 118 118 115 105 74 34 32 32 32 28
23 20 17 14 11 8 6 6 9 22 30 30 30 26 4 2
3 3 2 3 16 31 31 31 30 29 29 28 25 3 0 0
12 12 15 18 23 26 43 41 22 0 0 0 0 0 26 46
31 15 22 22 35 36 37 36 36 36 37 36 14 3 0 0
0 1 13 39 27 0 0 0 0 7 10 11 5 17 71 109
109 120 130 116 56 94 128 131 126 122 117 113 111 113 114 118
120 122 123 122 125 129 131 131 130 129 123 120 114 110 106 101
95 96 102 114 124 126 124 119 113 107 91 55 31 31 31 12
1 2 6 5 4 0 0 0 0 16 29 29 28 25 3 2
1 2 1 2 15 30 30 29 29 28 26 3 1 0 0 0
37 38 39 41 42 41 35 26 17 9 8 8 8 8 29 43
31 19 25 26 37 38 38 37 37 38 39 38 15 2 0 0
1 4 2 35 22 0 0 0 0 5 9 11 14 17 70 111
107 129 115 92 104 105 123 132 127 122 116 116 113 112 110 115
117 120 121 122 126 129 131 131 131 127 124 119 116 112 108 103
94 85 83 110 111 115 119 115 113 108 101 85 39 31 31 12
0 1 6 3 5 0 0 0 0 12 28 28 29 23 3 2
2 2 1 2 13 29 30 29 30 29 26 0 0 0 0 0
36 36 36 37 37 36 36 35 35 34 35 34 34 34 34 35
34 33 34 33 34 34 35 34 35 35 35 41 18 0 0 0
0 6 1 33 21 0 0 0 0 0 4 13 18 11 60 113
105 128 101 111 126 102 115 134 128 124 120 117 112 113 112 116
119 121 121 120 126 128 131 131 130 129 126 122 119 114 108 103
90 71 91 111 111 106 106 109 112 112 109 97 56 30 30 13
0 1 6 4 5 0 0 0 0 12 29 29 29 24 3 2
1 3 2 1 9 30 30 30 29 29 28 5 6 18 18 21
36 35 36 35 35 36 35 35 35 35 35 34 34 33 33 33
33 33 33 33 33 32 32 32 33 32 32 39 27 6 0 0
2 5 0 31 20 0 0 0 0 0 7 12 15 8 37 114
103 122 98 122 130 107 108 133 132 129 123 115 112 109 109 115
120 123 124 122 127 128 131 131 131 130 129 124 121 116 109 101
83 63 94 113 124 121 115 118 121 124 119 102 63 31 30 13
0 1 6 5 6 0 0 0 0 14 29 29 29 26 5 4
4 5 5 5 7 27 28 28 27 28 27 7 20 27 27 27
35 35 35 35 35 35 35 34 35 34 34 34 33 32 32 31
32 31 32 31 31 31 31 32 32 31 31 37 26 3 0 0
0 5 1 30 20 0 0 0 0 0 4 6 9 9 13 102
103 122 99 125 134 115 102 116 131 129 122 114 110 105 107 114
117 122 123 119 124 127 130 130 130 131 129 125 122 115 107 96
71 63 88 112 121 123 124 122 118 113 110 98 53 31 30 15
0 1 6 5 4 0 0 0 0 12 29 29 29 27 13 11
11 10 10 10 13 26 29 30 30 29 28 7 26 28 26 27
35 30 28 27 26 26 26 24 23 22 22 22 21 20 19 19
19 19 19 19 19 21 22 22 25 28 31 35 20 0 0 0
0 0 0 29 22 0 0 0 0 0 2 8 6 8 4 71
109 119 109 109 130 118 113 108 120 122 121 112 108 108 110 111
115 121 122 120 121 125 130 130 127 128 125 122 119 114 103 86
64 80 86 89 88 79 70 71 87 102 97 71 33 30 30 16
1 1 4 2 3 0 0 0 0 11 29 30 30 28 8 4
5 4 3 4 7 25 30 29 29 29 19 11 29 29 28 27
34 15 1 0 0 0 0 0 0 0 0 0 0 0 0 0
0 0 0 0 0 0 0 0 15 28 30 33 18 0 0 0
0 1 0 26 28 0 0 0 0 0 1 12 4 5 5 29
111 113 125 123 126 127 122 120 122 115 120 113 109 108 110 110
115 118 118 118 120 123 125 124 123 125 122 120 114 110 99 73
70 100 107 88 89 95 81 73 67 69 57 34 32 32 31 16
1 1 1 0 0 1 0 2 0 10 29 30 31 28 9 4
4 4 5 4 6 25 9 7 8 8 10 28 28 29 28 27
34 20 1 0 0 0 0 0 0 0 0 0 0 0 0 0
0 0 0 0 0 0 0 0 16 31 29 30 19 3 2 2
2 12 6 25 36 15 14 16 18 16 19 26 6 4 3 4
74 115 117 125 123 130 135 124 115 111 114 113 107 108 107 109
114 113 114 117 117 120 121 123 124 122 118 118 114 105 90 65
87 101 106 102 101 99 79 43 16 26 32 33 33 32 30 17
2 1 0 0 1 1 1 2 0 10 29 30 31 28 11 3
4 4 4 3 6 12 21 30 27 27 30 29 29 28 28 27
34 23 4 0 0 0 0 0 0 0 0 0 0 0 0 0
0 0 0 0 0 0 0 0 14 32 29 29 36 38 32 30
33 36 36 36 38 49 47 44 46 47 48 43 15 5 1 2
17 96 118 122 124 131 129 121 125 111 110 108 104 103 104 109
112 111 113 115 116 118 120 120 121 118 118 117 112 99 74 77
96 97 101 99 101 97 67 50 30 35 32 33 34 32 29 17
2 2 2 3 8 2 1 2 0 9 29 29 31 28 10 3
3 4 3 3 6 7 29 31 30 30 30 29 29 28 24 5
34 25 5 0 0 0 0 0 0 0 0 0 0 0 0 0
0 0 0 0 0 0 0 0 10 31 28 28 38 43 37 38
39 37 31 30 32 48 49 46 45 47 49 47 28 2 1 1
2 25 86 113 116 123 126 125 124 111 109 106 104 99 102 108
109 111 115 114 117 119 119 118 118 118 117 117 109 94 71 95
98 97 99 100 100 93 64 57 42 34 32 33 33 31 28 18
2 2 0 0 0 2 1 3 0 8 28 29 31 28 10 3
3 3 3 3 5 6 28 30 29 30 29 29 27 28 19 0
34 26 8 0 0 0 0 0 0 0 0 0 0 0 0 0
0 0 0 0 0 0 0 0 7 30 27 26 36 39 32 35
38 39 33 29 30 30 33 33 33 31 31 31 29 10 1 0
0 6 46 69 74 90 109 113 111 103 106 103 102 103 102 108
110 111 112 113 118 118 117 120 120 119 119 116 108 85 88 102
104 101 106 105 103 99 71 60 46 33 33 33 33 30 28 19
3 1 0 0 0 1 1 3 0 7 28 29 31 29 11 3
4 4 3 4 5 7 28 31 30 29 29 29 28 27 21 0
34 27 10 0 0 0 0 0 0 0 0 0 0 0 0 0
0 0 0 0 0 0 0 0 5 29 26 25 31 26 29 28
31 37 34 30 31 24 23 23 23 24 24 24 28 22 1 0
0 5 34 61 74 59 53 55 53 89 106 102 97 97 100 106
107 110 112 111 116 116 117 118 118 121 121 114 106 80 106 101
100 101 111 112 110 104 80 59 56 31 32 32 33 30 28 19
3 2 2 1 1 1 1 3 0 6 27 28 30 29 11 2
3 3 3 3 5 8 24 30 30 30 29 29 28 28 24 5
33 27 12 0 0 0 0 0 0 0 0 0 0 0 0 0
0 0 0 0 0 0 0 0 3 27 26 24 29 12 12 14
17 19 19 19 31 27 27 27 31 34 33 31 34 34 9 0
0 3 26 56 78 96 102 100 86 89 105 98 92 95 99 102
106 107 111 110 116 115 118 118 117 120 123 117 100 86 95 82
95 105 111 110 99 84 73 60 53 32 33 34 33 30 29 21
3 2 2 2 1 1 0 2 0 5 26 27 30 27 13 1
3 3 2 1 3 12 19 30 30 30 29 29 27 27 25 13
32 27 13 0 0 0 0 0 0 0 0 0 0 0 0 0
0 0 0 0 0 0 0 0 1 25 25 23 28 5 0 0
0 0 4 10 31 31 40 38 41 50 45 25 25 25 13 0
0 3 22 53 79 108 114 114 110 92 102 98 90 91 93 97
101 106 111 109 114 114 118 117 115 120 119 115 100 89 68 45
65 71 67 66 58 56 53 49 31 32 32 33 33 30 29 22
3 2 2 2 2 1 0 2 0 4 25 26 28 26 15 5
7 5 3 5 6 15 11 30 30 29 29 28 28 25 24 33
32 28 15 0 0 0 0 0 0 0 0 0 0 0 0 0
0 0 0 0 0 0 0 0 0 23 24 21 29 7 0 0
0 0 0 10 35 30 41 37 34 44 40 1 0 0 1 3
0 2 19 47 74 105 113 115 111 102 103 99 89 90 94 98
97 102 105 108 111 113 117 117 114 118 117 113 102 84 65 67
52 67 68 83 76 69 35 27 41 32 33 33 33 30 29 22
3 1 1 1 1 1 0 1 0 3 24 26 28 26 24 24
26 21 19 25 23 24 5 27 30 29 28 26 26 15 2 5
31 27 16 0 0 0 0 0 0 0 0 0 0 0 0 0
0 0 0 0 0 0 0 0 0 21 23 20 29 13 0 0
0 0 0 7 34 27 38 26 3 9 34 1 0 0 0 1
2 2 16 48 67 99 111 116 114 108 106 100 89 87 89 93
98 100 103 105 107 110 111 112 114 114 115 111 105 82 88 103
103 94 92 94 87 75 52 40 40 30 33 33 33 31 30 24
4 1 2 1 1 1 0 1 0 3 24 25 27 26 27 27
28 27 26 26 26 26 16 10 20 11 5 4 3 0 0 0
31 28 17 0 0 0 0 0 0 0 0 0 0 0 0 0
0 0 0 0 0 0 0 0 0 18 22 19 19 6 0 0
0 0 0 8 34 27 38 26 0 6 34 2 0 0 0 0
6 14 17 46 60 94 105 112 118 112 109 102 88 82 85 90
96 98 98 104 104 107 112 112 116 116 114 110 103 88 98 112
115 111 107 102 99 92 74 52 44 29 31 31 31 31 29 24
4 1 1 1 0 0 0 1 0 3 25 28 29 29 28 28
27 27 27 26 18 14 9 1 0 0 1 1 0 0 0 0
31 27 17 0 0 0 0 0 0 0 0 0 0 0 0 0
0 0 0 0 0 0 0 0 0 16 22 19 12 0 0 0
0 0 0 9 33 26 38 27 0 6 34 4 0 0 0 0
5 33 29 45 55 87 101 110 117 115 112 107 94 84 83 87
92 97 97 102 106 110 112 112 114 112 110 108 105 93 101 113
116 116 114 108 105 97 81 56 37 28 30 32 32 31 30 24
5 2 1 1 1 1 1 1 0 6 27 29 29 28 27 26
26 25 26 18 0 0 0 0 14 0 0 0 0 0 0 0
31 28 17 0 0 0 0 0 0 0 0 0 0 0 0 0
0 0 0 0 0 0 0 0 0 13 22 18 11 0 0 0
0 0 0 9 34 26 39 27 0 5 33 6 0 0 0 0
4 37 32 45 54 82 97 109 115 119 117 112 102 90 84 86
89 94 93 101 105 110 113 111 110 111 109 108 107 98 101 115
116 117 113 108 103 94 74 45 30 28 30 31 32 31 29 26
14 10 8 6 7 7 3 2 10 18 29 31 31 29 27 27
27 26 25 17 0 0 0 17 63 30 0 0 0 0 0 0
30 26 17 0 0 0 0 0 0 0 0 0 0 0 0 0
0 0 0 0 0 0 0 0 0 12 22 18 13 0 0 0
0 1 0 5 33 26 39 27 0 5 31 9 0 0 0 0
3 37 34 42 56 75 96 107 116 118 114 113 109 96 87 86
90 91 93 98 103 108 110 112 109 108 109 107 106 99 99 112
114 116 113 106 97 84 61 38 26 28 30 31 31 31 29 28
27 25 21 19 18 16 4 2 17 23 29 30 31 29 27 27
26 26 21 11 0 0 0 28 41 40 0 0 0 0 0 0
29 27 17 1 0 0 0 0 0 0 0 0 0 0 0 0
0 0 0 0 0 0 0 0 0 12 22 18 13 0 0 0
0 3 0 3 34 27 39 31 6 5 30 13 3 0 4 1
2 35 35 42 59 69 96 107 116 117 122 118 114 106 94 89
87 91 92 94 100 107 110 113 111 109 108 106 107 98 100 108
114 112 109 104 98 83 63 39 23 26 28 31 32 31 29 28
28 26 22 20 20 18 5 3 19 24 28 30 30 28 27 27
25 23 1 0 0 0 0 0 0 0 0 0 0 0 0 0
28 26 17 1 0 0 0 0 0 0 0 0 0 0 0 0
0 0 0 0 0 0 0 0 0 10 22 18 13 0 3 0
0 8 10 2 35 27 41 32 18 6 28 12 5 8 7 0
1 32 35 43 62 63 93 107 114 118 119 116 113 109 101 94
91 92 88 92 98 103 108 112 111 111 109 113 108 104 101 104
109 112 109 103 98 84 61 38 22 25 27 29 30 30 29 28
27 27 24 22 21 21 7 2 21 25 27 29 29 27 26 26
26 24 2 0 0 0 0 0 0 0 0 0 0 0 0 1
28 26 17 2 0 0 0 0 0 0 0 0 0 0 0 0
0 0 0 0 0 0 0 0 0 9 21 18 14 1 5 2
2 10 16 9 35 30 42 28 23 11 27 10 5 10 7 1
1 28 34 43 64 60 87 106 114 117 120 119 118 112 105 99
95 93 91 93 94 98 103 106 108 107 106 113 110 107 105 104
106 110 106 102 95 80 54 37 21 25 27 29 30 30 29 28
27 27 25 23 24 23 8 2 22 25 27 28 28 27 26 26
25 24 2 0 0 0 0 0 0 0 0 0 0 0 0 0
27 25 17 2 0 0 0 0 0 0 0 0 0 0 0 0
0 0 0 0 0 0 0 0 0 8 21 17 16 22 29 31
33 36 38 39 46 36 42 24 18 21 25 24 20 21 20 19
20 25 27 45 65 58 81 103 111 117 119 117 115 110 107 101
99 97 94 93 89 90 99 100 106 109 109 111 110 110 111 112
107 107 106 102 95 81 60 41 23 23 27 28 29 30 28 27
27 27 25 24 24 24 10 2 22 24 25 26 26 26 26 26
25 24 16 1 0 0 0 0 0 0 0 0 0 0 0 0
27 25 17 2 0 0 0 0 0 0 0 0 0 0 0 0
0 0 0 0 0 0 0 0 0 7 22 18 17 36 41 43
44 45 45 47 50 44 41 21 5 17 24 27 24 24 23 23
23 23 28 46 65 60 77 99 107 115 119 118 115 109 103 101
102 101 98 92 88 85 94 94 101 105 108 109 111 113 113 112
112 104 100 103 94 80 62 42 24 21 25 27 29 29 28 27
27 27 26 25 26 25 12 1 22 24 26 25 26 26 25 25
24 23 13 0 0 0 0 0 0 0 0 0 0 0 0 0
27 25 17 2 0 0 0 0 0 0 0 0 0 0 0 0
0 0 0 0 0 0 0 0 0 7 22 17 18 36 40 41
42 42 42 41 41 40 39 22 1 7 22 30 27 28 28 28
28 28 29 50 68 61 72 97 107 112 117 119 112 109 103 102
102 101 100 99 95 86 85 85 91 99 103 103 110 113 115 113
112 109 99 100 97 80 60 45 28 20 25 26 28 29 27 26
27 27 27 26 27 26 15 1 22 26 26 25 25 25 25 25
25 23 7 0 0 0 0 0 0 0 0 0 0 0 0 0
26 24 17 2 0 0 0 0 0 0 0 0 0 0 0 0
0 0 0 0 0 0 0 0 0 6 21 17 15 15 14 14
14 14 14 15 15 15 33 23 0 5 20 32 29 31 31 30
30 30 35 56 68 64 66 92 103 111 116 116 114 111 104 100
99 103 102 101 92 88 83 77 80 92 95 97 105 109 114 113
112 108 100 98 94 79 59 48 31 19 25 26 27 25 20 22
21 24 27 27 27 26 17 0 20 27 26 25 25 24 24 25
24 23 7 0 0 0 0 0 0 0 0 0 0 0 0 0
26 24 16 2 0 0 0 0 0 0 0 0 0 0 0 0
0 0 0 0 0 0 0 0 0 6 20 16 14 7 6 7
9 10 11 12 13 14 33 25 0 2 18 32 28 30 30 29
30 33 46 54 68 66 64 90 103 112 116 116 112 111 106 102
100 103 102 100 98 91 85 79 76 80 89 92 97 102 107 110
107 106 100 98 94 75 60 49 33 22 29 33 27 18 17 13
10 14 23 25 26 25 17 0 17 25 25 25 25 25 25 25
24 20 0 0 0 0 0 0 0 0 0 0 0 0 0 0
26 24 16 3 0 0 0 0 0 0 0 0 0 0 0 0
0 0 0 0 0 0 0 0 0 6 20 16 14 10 9 9
10 12 13 13 14 15 34 29 14 19 29 32 28 30 30 29
31 62 42 50 71 70 63 87 101 109 112 116 115 111 104 102
99 101 100 96 99 95 90 86 85 79 75 80 85 95 98 101
103 103 98 95 80 68 56 45 38 37 35 30 29 18 14 12
8 13 21 25 25 25 19 0 15 24 25 25 25 24 24 24
24 15 0 0 0 0 0 0 0 0 0 0 0 0 0 0
26 24 17 3 0 0 0 0 0 0 0 0 0 0 0 0
0 0 0 0 0 0 0 0 0 6 22 17 14 13 14 15
15 16 15 16 15 17 37 35 38 48 48 33 27 29 29 29
50 73 37 57 72 73 62 83 102 110 114 118 117 109 106 101
96 99 97 95 94 95 93 90 90 84 77 73 74 81 85 92
95 91 90 83 74 62 52 40 43 43 29 21 18 14 12 14
6 11 18 24 24 23 18 0 12 23 24 24 25 24 24 24
23 5 0 0 0 0 0 0 0 0 0 0 0 0 0 0
26 24 16 3 0 0 0 0 0 0 0 0 0 0 0 0
0 0 0 0 1 2 2 4 4 13 22 16 14 13 13 15
16 17 18 18 15 15 29 26 28 33 32 27 28 29 29 32
73 61 41 62 76 76 62 78 101 107 115 115 115 110 108 104
99 98 98 94 92 93 89 82 80 80 80 75 68 66 65 68
69 75 79 75 65 61 41 38 33 23 17 13 11 11 11 15
4 10 15 23 22 22 18 0 9 22 23 23 25 23 24 23
19 0 0 0 0 0 0 0 0 0 0 0 0 0 0 0
25 22 18 6 0 1 2 3 4 4 5 6 8 8 9 10
12 13 13 13 14 14 14 14 13 14 14 13 14 14 14 14
15 16 17 18 16 16 22 23 20 22 25 26 27 28 29 44
71 56 36 71 80 78 64 75 99 109 116 116 114 111 110 106
100 100 104 102 100 97 89 86 79 73 70 65 59 56 55 50
49 50 60 56 53 40 22 17 15 14 12 9 10 8 12 9
3 8 11 20 21 21 17 1 9 22 23 23 24 23 23 23
18 0 0 0 0 0 0 0 0 0 1 0 0 0 0 0
25 24 22 20 17 16 16 17 17 16 15 14 14 14 14 15
15 14 14 14 14 14 14 13 13 13 13 14 14 13 14 15
15 15 17 17 17 18 23 24 24 23 26 26 27 28 29 59
71 45 30 76 85 82 67 71 97 110 116 118 116 115 111 108
105 107 108 107 104 100 100 95 92 83 77 69 63 57 51 43
37 26 22 31 25 16 14 13 13 14 11 11 10 12 13 13
7 8 7 16 20 21 18 1 6 21 22 23 24 23 23 21
4 0 0 0 0 0 0 0 0 0 0 0 0 0 0 0
25 23 21 21 19 13 16 17 18 16 15 13 13 14 14 14
14 14 15 14 14 14 14 14 13 13 13 14 13 13 15 16
16 16 17 17 17 18 23 24 24 24 25 26 27 27 30 71
75 43 23 78 88 83 69 67 96 107 113 116 115 114 109 108
108 108 109 110 106 108 105 104 99 91 81 68 50 30 15 6
0 0 9 36 30 22 17 15 15 15 14 14 13 13 12 13
9 7 4 12 20 20 18 2 6 22 23 23 24 23 22 20
2 0 0 0 0 0 0 0 0 0 0 0 0 0 0 0
24 23 22 21 19 12 16 17 16 16 15 14 14 14 15 14
14 14 14 14 13 12 11 10 9 10 10 9 11 14 15 16
17 17 17 17 17 18 23 25 24 25 25 26 27 27 35 82
77 28 24 82 90 88 72 65 92 106 110 110 114 111 107 104
104 110 108 111 107 109 109 104 98 84 60 27 11 8 5 0
0 4 39 44 34 36 36 29 24 27 29 25 22 18 14 14
10 5 4 10 19 19 18 13 15 23 24 23 23 22 21 18
2 0 0 0 0 0 0 0 0 0 0 0 0 0 0 0
24 23 22 21 19 17 16 17 15 15 13 11 10 9 8 6
5 4 3 2 1 0 2 4 6 10 11 11 12 13 15 16
16 17 18 18 17 19 23 24 25 25 25 26 27 28 43 81
74 30 21 83 94 88 74 65 91 106 110 113 115 107 105 105
105 106 110 112 114 109 108 101 83 56 38 45 44 36 25 9
5 19 63 46 34 36 34 36 36 35 35 34 32 34 37 34
31 25 20 20 26 20 17 18 19 21 23 23 22 21 24 15
0 0 0 0 0 0 0 0 0 0 0 0 0 0 0 0
10 10 8 6 5 3 2 1 1 1 0 0 0 0 0 1
1 1 1 1 0 0 0 5 8 8 10 11 12 13 14 15
16 17 18 17 18 19 23 24 25 25 26 26 30 46 62 75
86 47 21 82 97 90 77 64 88 106 111 110 111 105 108 108
105 106 110 112 115 110 102 88 64 43 54 60 57 52 50 26
34 48 72 47 38 35 38 40 40 42 38 39 38 38 40 41
40 36 33 28 22 18 17 20 21 19 18 21 22 22 28 12
0 0 0 0 0 0 0 0 0 0 0 0 0 0 0 0
0 0 0 0 0 0 0 0 0 1 11 14 15 16 18 20
21 20 21 18 1 0 0 5 8 8 10 11 12 12 14 15
16 16 17 18 19 20 23 25 25 26 34 47 61 59 69 76
79 67 27 70 100 95 78 65 86 106 111 109 110 109 108 108
105 106 107 109 110 105 97 78 50 54 63 66 67 66 64 39
53 67 60 42 34 36 37 46 56 58 54 58 52 54 50 46
42 32 31 29 25 23 15 18 21 20 18 20 21 19 15 0
0 0 0 0 0 0 0 0 0 0 0 0 0 0 0 0
0 0 0 0 0 0 1 2 4 9 32 33 33 32 31 28
26 26 30 29 9 1 2 5 8 8 9 11 13 13 15 16
17 18 19 21 22 23 25 24 30 54 71 70 62 57 65 87
73 71 39 56 102 97 78 67 82 102 110 109 113 115 110 112
108 107 104 105 106 99 91 67 51 65 71 81 80 79 71 38
56 68 51 36 28 41 39 53 69 77 72 72 69 63 63 63
62 61 51 42 38 36 35 31 26 17 10 7 4 2 2 0
0 0 0 0 0 0 0 0 0 0 0 0 0 0 0 0
0 0 0 0 0 0 0 2 4 6 31 30 29 31 29 28
27 30 38 38 24 9 9 6 6 10 12 15 16 19 18 18
21 22 23 24 26 26 28 46 68 72 74 65 59 63 66 82
86 58 48 45 100 97 79 67 80 102 112 116 117 116 112 112
111 105 105 102 103 98 86 56 63 74 92 94 90 84 62 48
78 63 46 31 28 43 39 60 76 75 81 70 73 69 71 75
67 68 69 59 58 52 34 9 2 1 0 0 0 0 0 0
0 0 0 0 0 0 0 0 0 0 0 0 0 0 0 0
4 2 1 1 2 4 14 19 20 18 26 39 39 39 38 37
36 35 34 31 23 13 13 14 15 14 13 11 11 22 17 19
22 24 25 26 27 36 63 77 81 75 69 63 61 67 66 81
88 74 49 41 87 95 80 70 74 101 113 117 118 118 117 115
111 103 102 102 100 90 64 62 74 89 101 98 94 75 52 70
72 55 41 30 29 43 42 62 69 72 76 83 76 82 76 73
71 68 73 60 69 63 67 53 33 12 0 0 0 0 0 0
0 0 0 0 0 0 0 0 0 0 0 0 0 0 0 0
0 0 1 1 2 6 15 19 18 17 20 29 28 25 23 22
21 19 19 18 13 6 5 4 4 3 4 4 5 21 18 19
23 24 26 32 52 78 73 82 81 77 68 66 57 62 64 85
95 97 62 45 61 93 86 73 69 99 110 117 120 118 116 114
110 107 102 96 85 65 61 71 92 108 104 100 84 61 68 74
62 43 41 27 31 45 51 62 71 74 70 79 77 80 69 74
76 75 84 75 75 69 73 71 70 59 43 30 8 0 0 0
0 0 0 0 0 0 0 0 0 0 0 0 0 0 0 0
12 14 18 21 21 21 21 20 19 19 18 17 16 16 16 16
17 16 17 17 12 3 3 3 3 4 3 4 5 19 20 26
40 53 65 78 81 79 82 76 88 76 71 74 60 60 66 87
101 74 69 59 42 71 93 78 66 93 110 119 119 116 113 110
106 104 99 88 68 66 80 101 114 112 106 91 61 52 14 68
49 43 39 24 39 48 54 64 75 77 77 77 76 77 77 85
83 81 74 77 77 70 73 69 69 64 63 70 56 40 7 0
0 0 0 0 0 0 0 0 0 0 0 0 0 0 0 0
11 14 20 24 23 21 18 16 14 11 9 6 5 3 5 17
17 17 17 17 12 3 3 3 4 4 3 4 14 43 63 73
77 79 71 80 83 89 83 77 86 75 73 71 62 55 70 83
38 4 17 63 50 43 85 89 68 89 107 115 118 115 110 104
104 101 90 82 83 91 108 116 118 113 103 67 65 47 6 51
49 40 40 19 41 50 57 68 77 82 75 84 85 86 78 79
80 89 77 72 73 80 74 72 71 71 67 61 63 64 56 21
0 0 0 0 0 0 0 0 0 0 0 0 0 0 0 0
7 11 19 24 23 13 1 0 0 0 0 0 0 0 2 17
17 16 16 16 12 2 2 2 1 4 25 55 72 73 75 80
74 76 78 85 82 82 84 82 81 76 70 70 62 54 66 56
1 1 29 62 65 41 61 96 73 85 106 113 118 116 105 98
100 101 99 98 98 106 117 121 119 116 98 63 70 40 2 44
49 34 39 28 49 62 61 62 72 88 85 76 77 76 81 89
80 74 77 75 71 67 78 73 75 68 65 65 66 61 62 58
29 20 14 0 0 0 0 0 0 0 0 0 0 0 0 0
7 10 18 24 22 10 0 0 0 0 1 2 4 6 11 17
16 16 16 16 13 2 3 7 29 62 75 69 84 79 81 84
79 77 78 83 83 85 83 80 84 81 69 69 55 55 69 34
9 0 17 56 82 56 46 87 80 79 103 116 120 116 103 96
105 109 107 106 108 118 123 123 120 114 84 65 73 55 2 69
39 36 29 37 50 65 66 63 69 79 77 83 73 77 78 75
77 83 78 72 73 74 72 78 71 67 69 60 65 67 64 59
63 39 17 0 0 0 0 0 0 0 0 0 0 0 0 0
6 10 18 25 23 19 12 13 14 14 15 15 15 16 16 18
18 20 22 23 23 21 39 66 74 73 77 76 80 83 79 81
81 74 73 81 89 82 80 84 74 79 72 67 64 63 66 28
18 2 1 43 92 70 47 58 85 75 101 115 118 113 101 97
107 109 109 110 117 123 124 124 121 114 78 68 77 53 16 62
37 40 30 43 63 66 60 68 72 75 80 82 78 85 79 77
76 67 70 81 80 81 75 74 85 75 68 69 73 70 69 62
60 48 25 0 0 0 0 0 0 0 0 0 0 0 0 0
8 11 18 25 23 23 22 21 22 22 23 23 24 24 27 25
24 23 21 21 26 52 73 75 78 78 77 75 76 81 76 80
83 78 74 74 82 81 82 80 71 77 75 67 68 59 69 35
28 7 21 47 91 85 58 48 74 76 101 114 120 115 102 95
105 113 116 119 124 127 128 125 120 108 77 72 85 43 35 45
42 36 34 56 66 67 68 76 74 76 73 81 83 81 77 75
78 82 70 76 75 76 68 73 71 77 75 73 68 72 71 62
61 47 54 12 0 0 0 0 0 0 0 0 0 0 0 0
9 19 25 31 29 29 28 28 29 24 22 21 20 18 21 25
20 21 23 26 53 69 69 72 74 79 76 77 80 81 81 80
86 75 78 76 82 78 83 77 81 75 78 68 66 61 67 48
36 14 46 42 64 81 87 53 56 74 98 116 120 115 102 91
104 117 121 127 129 128 127 123 116 89 76 80 68 26 48 36
40 33 48 69 78 60 68 76 80 78 82 82 83 79 79 75
79 82 83 71 76 78 86 84 85 71 73 66 84 74 71 63
57 46 60 44 2 0 0 0 0 0 0 0 0 0 0 0
23 33 28 25 24 23 22 22 27 23 23 24 25 26 27 28
28 28 30 51 68 73 77 81 79 80 81 85 83 85 81 86
82 84 85 78 80 76 80 82 75 81 79 66 60 66 64 67
40 30 52 46 47 60 69 73 45 63 95 114 120 115 101 91
106 122 127 131 132 131 128 121 103 80 76 78 22 39 42 38
35 50 78 79 69 68 73 74 76 75 75 83 75 75 74 77
77 74 79 77 75 79 79 75 84 88 76 74 70 77 76 75
67 55 62 49 35 1 0 0 0 0 0 0 0 0 0 0
17 32 29 28 29 30 31 31 30 31 30 30 30 29 29 29
30 30 46 64 68 76 76 83 79 79 87 84 83 77 80 86
79 83 86 80 78 79 85 76 80 80 78 77 63 62 67 73
67 43 43 68 51 61 65 72 49 48 92 113 120 115 101 92
109 125 132 132 133 130 125 113 83 77 79 43 26 48 47 35
49 76 70 74 66 62 70 74 78 74 76 78 79 79 76 77
81 73 77 86 82 85 71 81 72 73 71 72 85 75 70 73
67 53 63 54 71 41 1 0 0 0 0 0 0 0 0 0
9 20 32 34 34 35 35 35 33 34 33 33 32 32 32 31
31 42 68 70 67 79 71 79 81 81 85 82 85 86 75 83
83 82 80 81 79 77 84 77 89 85 80 80 67 76 59 58
73 56 44 78 65 55 60 59 59 54 82 110 120 119 103 93
111 127 133 134 132 129 108 86 81 72 53 19 44 48 44 49
76 79 73 68 68 72 77 67 78 79 74 77 77 78 74 85
81 93 78 77 72 77 86 81 88 78 74 75 73 77 66 66
73 63 73 54 64 68 16 0 0 0 0 0 0 0 0 0
13 20 27 31 32 33 38 40 34 37 35 35 32 33 32 32
34 63 77 72 70 79 74 81 85 86 93 89 83 78 85 81
82 81 81 80 84 81 82 82 84 78 79 76 78 77 77 64
67 80 67 63 73 56 58 68 72 80 77 111 123 120 104 91
111 130 133 132 129 111 83 81 74 42 36 33 49 37 50 76
86 78 77 78 61 66 72 87 77 75 85 85 83 72 74 91
80 77 71 82 76 82 88 77 89 83 73 74 83 71 80 63
69 61 73 60 60 66 60 5 0 0 0 0 0 0 0 0
29 35 35 35 32 29 33 35 34 36 36 34 32 29 24 19
38 74 84 80 72 76 75 81 83 81 75 78 84 81 81 84
79 81 81 95 90 83 83 81 74 80 79 79 79 79 84 79
59 55 68 68 85 64 51 71 76 88 91 91 123 123 107 92
112 128 133 131 113 85 80 51 38 34 48 51 65 54 79 81
81 74 78 75 74 66 70 73 77 73 79 73 76 65 81 83
82 76 82 81 78 76 81 79 83 87 73 79 88 81 74 52
69 61 76 63 61 62 77 39 0 0 0 0 0 0 0 0
27 35 38 40 39 24 27 31 25 20 15 9 5 2 0 8
68 78 84 83 72 77 75 85 85 90 87 85 86 92 90 91
91 78 82 81 77 77 80 80 76 81 80 86 81 82 87 85
91 77 63 72 84 83 58 66 67 89 94 91 102 122 107 95
112 128 133 117 88 77 65 46 39 55 73 66 52 73 83 90
73 81 74 77 72 68 79 70 79 82 77 84 73 72 89 71
79 84 86 82 88 80 80 87 84 83 68 88 76 78 72 49
72 67 70 65 51 58 78 63 11 0 0 0 0 0 0 0
35 35 34 29 16 4 2 2 1 0 0 0 0 0 0 47
80 80 89 76 72 79 74 75 80 76 80 84 83 74 81 77
81 77 77 85 83 79 83 80 81 81 85 88 87 85 86 86
87 88 72 75 77 77 81 63 66 76 90 94 93 109 110 98
113 128 123 88 81 68 53 44 49 76 75 71 62 80 91 78
81 76 85 81 76 74 77 79 77 77 68 82 78 71 92 77
79 85 85 84 84 75 79 89 86 78 77 85 82 79 85 48
70 70 73 67 55 59 63 70 35 1 0 0 0 0 0 0
12 10 6 3 1 1 0 0 0 0 0 0 0 0 10 80
83 86 83 78 71 75 81 79 85 85 86 85 83 84 90 81
88 80 82 87 87 80 83 83 79 86 85 87 82 85 87 75
84 82 84 78 82 86 81 89 64 67 71 95 91 89 103 100
115 123 90 85 63 51 45 50 72 87 76 74 66 85 81 81
69 78 84 79 75 81 89 80 83 73 88 79 75 75 80 87
85 78 80 84 77 78 83 81 86 79 70 78 79 71 61 49
74 79 76 73 59 52 58 70 49 19 0 0 0 0 0 0
0 0 0 0 0 0 0 0 0 0 0 0 0 0 51 78
76 73 85 80 72 82 76 80 83 87 85 88 82 86 92 85
86 79 84 88 79 91 86 87 84 83 80 83 84 82 81 83
94 88 80 69 69 88 75 85 86 75 64 72 88 89 83 97
114 93 70 59 56 52 58 75 87 88 77 74 79 87 90 78
75 75 76 80 77 71 74 82 76 83 74 74 80 81 82 75
84 69 81 87 85 85 90 77 75 81 77 78 74 78 70 46
75 82 84 73 59 51 57 74 53 44 3 0 0 0 0 0
0 0 0 0 0 0 0 0 0 0 0 0 0 15 76 73
79 84 76 82 76 81 79 81 82 85 86 85 87 83 86 85
85 85 85 85 85 89 88 84 78 86 81 90 80 80 88 86
80 90 88 94 75 84 86 73 77 85 71 66 74 83 87 78
87 74 54 47 61 81 77 89 82 88 86 88 88 79 80 77
83 87 87 76 72 88 81 90 80 69 75 85 79 86 77 84
85 92 85 81 72 83 78 89 84 85 79 79 82 86 72 49
76 83 81 78 71 48 61 74 58 52 25 0 0 0 0 0
0 0 0 0 0 0 0 0 0 0 0 0 0 46 76 73
68 85 82 73 67 75 81 79 80 85 87 86 84 86 85 81
81 88 81 80 88 89 84 86 85 83 90 83 76 89 89 81
83 94 92 86 87 92 96 92 88 87 91 78 80 73 75 75
66 51 47 56 65 74 81 83 91 87 79 81 91 81 77 72
77 91 84 86 85 81 87 80 78 76 71 77 75 74 72 79
87 78 77 85 83 84 85 84 77 77 87 85 74 70 52 62
80 82 83 83 67 46 55 66 60 48 53 2 0 0 0 0
0 0 0 0 0 0 0 0 0 0 0 0 17 61 78 69
70 84 82 71 81 82 78 79 74 78 79 79 78 74 79 82
83 82 78 84 79 83 93 88 78 92 87 85 85 86 84 85
92 84 86 84 91 86 88 84 86 83 85 79 77 89 71 52
50 61 67 80 92 87 81 80 81 85 84 75 84 85 86 87
79 79 78 76 81 78 77 87 81 86 89 86 86 81 85 72
86 74 89 75 75 71 84 74 84 67 75 75 76 76 55 67
80 83 77 80 66 41 50 64 62 48 63 21 0 0 0 0
0 0 0 0 0 0 0 0 0 0 0 1 47 61 75 63
71 86 82 70 73 83 82 80 89 92 90 85 79 86 90 92
79 83 84 78 88 91 91 83 87 80 90 89 81 86 90 86
78 79 89 86 89 88 85 89 80 84 84 81 80 72 64 48
61 86 84 84 73 90 77 79 81 83 80 95 79 75 83 79
85 78 82 78 83 92 81 83 87 78 83 81 79 78 86 87
84 78 79 72 74 82 82 88 81 69 74 80 78 75 54 76
81 79 79 68 67 45 45 68 64 48 67 48 1 0 0 0
0 0 0 0 0 0 0 0 0 0 0 29 60 62 74 61
78 81 79 68 81 80 82 85 79 84 81 88 90 80 82 85
91 88 76 89 81 79 89 88 80 88 89 85 84 89 93 89
86 90 83 91 75 90 90 92 95 94 102 97 88 69 45 58
60 93 101 86 69 86 87 87 89 78 83 83 89 78 85 83
83 94 83 84 88 76 91 85 78 77 78 79 69 72 75 81
70 83 78 79 79 83 73 97 77 77 78 76 83 78 57 82
82 77 73 69 67 44 46 73 58 50 73 60 12 0 0 0
