P2
128 120
143
0 4 11 5 0 0 0 30 50 42 36 36 36 36 36 35
35 35 35 34 34 34 34 33 34 33 33 32 32 31 31 31
31 30 30 30 29 29 29 28 28 27 27 27 26 26 26 25
25 25 25 24 24 24 24 23 23 22 23 23 24 26 29 28
28 27 20 19 25 18 26 25 25 24 23 22 22 22 20 20
20 15 21 19 23 23 23 23 23 24 23 23 24 23 23 23
24 23 24 24 24 25 25 25 25 25 25 26 26 26 26 26
26 26 27 27 26 27 27 27 27 27 28 27 28 28 28 27
0 7 10 5 0 0 0 27 48 41 36 36 36 36 36 36
36 36 35 35 34 34 33 33 33 32 32 32 32 31 31 30
30 30 30 30 30 29 29 28 28 28 28 27 27 26 26 26
26 25 25 24 24 24 24 23 23 23 23 23 24 26 28 29
29 28 21 19 26 17 26 25 25 24 24 23 24 23 21 21
20 16 23 21 24 23 23 23 23 23 23 24 23 24 24 24
24 24 24 24 25 25 25 25 25 25 26 25 25 25 26 26
26 27 27 27 28 27 27 29 27 27 27 27 26 27 27 28
0 0 4 2 1 0 0 29 48 41 36 36 36 35 35 36
35 35 35 34 34 34 34 34 34 33 32 32 32 32 31 31
30 30 29 30 29 28 29 29 28 27 27 27 27 26 26 25
26 25 25 25 25 24 24 24 24 23 24 24 25 26 29 29
28 28 21 19 27 17 26 25 25 24 24 23 23 23 21 21
21 17 23 21 23 24 24 24 24 25 24 25 24 24 25 24
24 24 24 25 25 25 25 25 25 25 26 25 26 26 26 26
27 27 27 27 27 27 27 26 26 26 26 28 28 28 27 28
0 0 1 7 6 0 0 27 48 40 36 36 36 36 36 36
35 35 35 34 34 34 34 33 33 33 32 32 32 31 32 31
31 31 30 30 30 30 29 28 28 28 28 27 27 27 27 26
26 25 25 25 24 24 24 24 24 24 23 24 25 27 30 29
29 29 22 19 27 19 26 24 25 24 24 23 23 24 22 21
22 18 23 21 24 24 23 24 24 25 24 24 24 25 25 24
24 25 25 25 25 26 25 25 25 26 26 26 26 26 26 26
27 26 26 26 27 27 28 28 28 28 28 28 28 28 28 29
0 0 1 6 6 0 0 28 48 40 36 35 35 35 35 35
35 34 34 34 33 33 33 33 33 32 33 32 32 31 31 31
30 30 29 29 29 29 28 29 28 28 27 27 27 27 27 25
26 26 25 25 25 25 24 24 23 24 24 24 25 26 29 28
29 29 21 19 27 19 24 24 25 24 24 23 23 24 22 22
21 17 23 20 24 24 24 23 24 25 24 24 25 24 23 24
24 24 25 25 25 25 25 25 25 25 25 26 25 25 25 26
26 27 27 27 27 28 27 27 27 27 28 29 28 28 28 28
0 0 2 0 3 2 0 26 46 40 35 36 35 35 35 35
35 35 35 34 34 33 32 32 32 33 32 32 31 31 31 31
31 30 30 30 29 29 28 28 28 28 28 27 27 26 26 26
26 25 25 25 25 25 24 24 24 24 23 24 25 27 30 29
30 29 21 19 27 21 23 25 25 24 24 23 22 23 22 21
21 17 22 20 24 24 24 24 24 25 25 25 25 24 25 25
25 25 24 25 25 26 25 25 25 24 24 25 25 26 26 27
27 27 27 28 28 28 27 27 28 28 28 28 28 27 27 28
13 7 2 0 2 3 10 31 46 39 34 35 34 34 34 34
34 34 33 34 33 33 33 33 32 32 32 31 31 30 30 30
30 30 29 29 28 27 28 28 27 27 27 27 26 25 26 26
25 25 25 24 24 24 23 23 23 23 22 24 24 26 29 29
29 28 21 18 26 23 20 25 24 24 23 23 22 23 21 21
20 17 21 20 23 24 24 23 23 24 24 24 24 24 24 24
24 24 24 24 24 23 24 24 25 25 25 25 25 25 25 26
26 27 26 26 26 26 26 26 27 26 26 26 27 27 27 27
33 34 32 29 24 18 16 34 45 38 34 34 34 34 34 34
34 33 33 33 33 32 32 32 32 31 31 31 31 30 30 30
30 29 30 29 28 28 28 27 27 27 27 26 26 26 25 25
25 25 25 24 24 24 23 23 23 23 23 24 25 26 29 29
28 27 21 18 26 25 20 26 24 24 24 23 22 22 21 21
21 18 21 20 24 24 24 25 24 24 24 24 25 24 24 24
24 24 24 24 25 24 25 24 25 24 24 26 26 25 26 25
26 27 27 27 27 27 27 27 27 26 26 26 26 27 26 26
24 25 28 30 33 36 38 39 39 35 35 35 34 34 33 33
34 33 33 33 33 33 33 32 32 32 32 31 31 31 30 30
30 29 29 29 28 28 28 28 27 27 28 27 27 26 26 26
25 25 25 25 24 24 24 24 23 23 23 24 25 26 29 29
29 28 22 18 27 27 18 26 25 24 24 23 23 23 22 22
21 18 22 21 24 25 24 24 24 24 24 23 23 23 24 23
24 25 25 25 25 25 25 25 25 26 25 26 26 26 27 26
26 27 26 26 27 27 26 26 27 27 27 27 26 26 27 27
14 17 20 24 27 30 31 32 35 35 35 35 35 35 35 34
35 34 33 33 33 33 33 32 32 31 31 31 31 31 31 30
30 30 29 30 29 29 29 29 28 27 28 27 27 27 27 26
26 25 26 25 26 25 24 24 24 24 24 24 25 26 30 30
30 29 23 19 27 29 18 27 26 25 25 24 23 24 22 22
22 20 22 21 24 25 25 24 24 24 24 24 24 25 25 25
25 26 25 25 25 25 25 26 26 26 26 26 26 26 27 27
27 28 28 27 28 27 27 27 27 27 28 27 27 27 27 27
12 12 11 11 12 14 18 23 28 33 36 36 35 35 35 34
34 34 34 33 34 33 33 33 32 32 32 32 32 31 31 30
30 30 30 30 30 29 29 29 28 28 28 28 28 27 27 27
26 26 26 26 26 25 25 25 24 24 25 24 26 26 31 30
30 30 24 19 28 30 19 26 26 25 25 25 24 23 23 23
22 20 22 21 24 24 25 24 25 25 24 25 25 24 25 26
26 27 25 26 27 26 25 26 26 26 26 26 26 27 26 27
27 27 27 27 28 28 28 27 27 27 27 28 27 27 28 28
12 12 12 12 12 12 12 13 13 14 16 20 24 28 32 34
36 35 34 33 33 33 33 33 32 32 33 32 32 31 31 31
31 31 31 30 30 30 29 29 29 29 28 28 27 27 27 27
27 26 26 26 26 25 25 25 25 25 25 25 26 27 31 31
31 30 24 20 27 31 19 26 27 26 26 25 25 25 23 23
23 20 22 23 26 26 26 25 26 26 26 25 26 26 26 26
26 27 26 26 26 26 26 26 27 27 27 27 27 27 28 28
28 28 28 28 28 27 29 28 28 27 27 28 28 28 29 28
17 14 12 12 13 12 12 12 12 12 13 12 12 13 13 16
19 24 28 33 34 33 34 33 33 32 32 32 32 31 31 31
31 30 31 30 30 29 30 29 29 29 28 28 28 28 27 28
27 26 27 26 26 25 25 25 25 25 25 25 26 27 31 31
31 30 25 20 27 32 22 26 28 27 26 25 25 24 24 24
24 22 22 23 26 26 26 26 26 26 25 26 26 26 26 27
27 27 27 26 27 27 27 27 27 27 27 28 28 27 28 28
27 28 28 28 28 28 28 29 29 28 28 28 26 26 25 26
45 40 39 40 36 31 27 20 14 14 13 13 13 13 13 13
4 6 14 32 34 33 34 33 33 33 33 32 33 32 31 31
31 31 31 30 30 30 30 30 29 28 29 29 28 28 27 27
27 27 27 27 27 26 26 25 26 26 25 26 27 27 31 32
30 30 25 19 27 32 24 24 27 27 27 25 25 25 24 24
23 22 22 24 26 26 26 26 26 26 27 27 26 27 27 27
27 27 27 27 27 27 27 27 27 27 27 28 28 28 29 28
29 29 29 29 28 28 29 28 27 26 28 27 27 28 28 28
51 46 42 50 49 47 45 31 22 25 22 16 11 11 12 13
10 10 14 31 34 34 34 33 33 32 31 33 33 32 32 32
31 31 31 31 31 30 30 30 29 29 29 29 29 29 28 28
28 27 27 27 27 26 26 26 25 25 23 24 26 26 26 26
25 25 23 20 28 33 25 23 28 27 27 26 26 25 24 24
24 23 22 24 27 27 26 26 27 27 27 27 27 26 27 27
27 28 28 28 28 28 28 28 28 27 27 28 28 28 28 28
28 28 28 27 27 28 28 29 29 28 30 28 27 27 28 28
49 42 44 45 50 50 49 36 31 35 41 39 33 32 25 18
11 11 13 31 34 34 33 34 34 32 34 34 34 33 33 32
31 31 32 31 31 31 30 30 30 29 29 29 37 37 34 30
29 27 28 27 25 20 12 12 16 14 11 7 9 12 13 8
2 2 5 6 20 30 27 21 27 28 27 27 26 26 25 25
25 23 21 25 26 27 27 27 27 27 27 27 28 27 28 28
27 29 28 28 27 28 28 27 28 28 28 29 28 28 28 28
28 28 28 28 29 27 28 27 28 28 29 28 28 28 28 28
33 27 38 41 47 49 48 38 36 39 42 40 37 46 45 44
22 13 16 31 35 35 34 34 33 35 45 42 41 39 35 34
32 31 32 31 31 31 30 30 30 30 30 31 43 42 39 37
36 33 23 13 5 5 9 13 19 15 10 8 11 14 12 6
7 6 10 6 4 5 10 12 25 28 28 27 26 26 25 25
25 24 22 26 27 28 27 27 28 28 28 28 28 28 28 29
28 28 29 28 28 28 28 28 28 28 28 27 28 28 29 28
28 27 28 28 28 28 29 29 28 28 29 29 28 28 28 28
15 0 1 4 9 15 32 40 38 40 43 44 46 47 47 47
26 11 16 33 36 34 34 33 34 36 46 44 43 40 39 38
39 37 33 33 32 30 30 30 30 29 30 31 41 40 38 37
36 20 14 12 9 12 8 4 5 2 0 4 5 3 7 6
1 6 15 11 6 5 1 4 6 17 27 26 25 27 24 25
26 25 23 26 27 28 28 28 28 28 28 28 28 28 28 28
28 28 28 27 27 27 28 28 29 29 29 27 29 29 29 27
28 29 28 27 27 28 28 28 28 27 28 29 28 28 28 28
0 0 0 0 5 0 19 41 39 41 43 44 46 47 48 48
32 12 17 37 38 37 36 35 34 36 46 44 43 40 41 42
43 41 38 39 37 35 32 30 31 31 30 31 34 32 35 35
24 22 20 11 6 1 1 7 8 6 12 12 8 6 8 7
4 1 1 2 4 5 4 0 0 0 7 12 20 26 25 25
26 24 23 27 27 28 28 28 29 28 28 28 28 28 28 28
27 28 29 29 29 29 28 28 29 29 29 28 28 28 29 29
29 28 28 28 28 27 28 28 28 28 28 29 28 28 28 28
0 0 0 6 16 5 22 40 35 40 38 44 46 46 47 46
32 13 18 38 40 36 38 38 38 38 30 23 34 40 42 45
45 42 28 26 35 37 38 36 36 36 33 32 26 13 14 17
23 17 16 11 3 0 1 8 12 9 7 3 6 5 2 2
1 1 0 0 0 0 1 2 0 0 1 2 5 20 27 26
26 25 23 27 28 29 28 29 28 28 28 28 28 28 28 29
29 29 28 29 28 29 28 29 29 29 30 29 29 29 29 29
29 29 28 29 28 28 28 28 28 28 28 29 29 29 28 28
0 0 0 7 16 10 24 38 4 7 17 26 37 42 43 44
32 13 18 37 41 32 30 36 41 45 19 0 0 14 24 27
32 40 15 0 1 6 15 21 29 37 37 34 26 10 9 12
6 13 17 12 2 1 2 5 5 3 0 7 8 3 2 2
1 0 0 0 0 0 0 0 0 0 0 2 0 5 16 22
25 25 23 27 28 29 28 29 29 28 30 30 29 29 29 29
29 29 29 29 28 28 29 29 29 29 30 28 29 29 29 29
29 29 29 29 29 29 29 28 28 28 28 30 29 28 28 28
1 0 0 2 5 2 22 37 2 0 0 2 1 7 7 24
35 14 17 30 39 40 40 37 44 47 23 0 0 5 11 12
11 32 14 0 0 0 0 0 0 4 10 30 27 10 12 11
14 13 13 14 12 4 0 5 8 2 3 7 7 7 12 13
7 3 0 0 0 0 0 0 0 0 0 0 0 0 3 13
24 25 22 27 27 29 29 30 29 29 30 30 29 29 30 30
29 30 29 30 30 29 29 29 29 29 31 30 30 29 29 28
29 29 29 29 29 29 28 29 28 29 29 29 29 28 29 28
0 0 0 1 0 0 24 37 0 0 0 0 0 0 0 14
35 14 13 1 4 12 22 33 42 45 24 0 0 3 5 10
8 31 18 0 0 0 0 0 0 0 0 26 27 13 7 15
14 13 12 17 14 9 6 9 11 10 5 11 12 14 10 7
2 1 2 3 2 0 0 0 0 0 0 0 0 0 1 1
13 26 23 28 28 30 30 30 30 30 31 30 31 30 29 30
30 30 30 30 30 29 30 30 29 30 31 30 30 30 30 29
29 30 30 29 29 29 29 29 29 29 30 30 29 29 28 28
0 3 0 12 0 0 23 36 0 0 0 3 0 0 0 15
36 14 13 0 0 0 0 0 3 10 21 0 0 0 1 1
5 27 17 0 0 0 0 0 0 0 0 22 20 8 12 15
20 15 13 13 18 13 10 15 15 15 10 10 6 3 1 4
10 20 33 33 26 19 19 7 0 0 0 0 0 0 1 1
2 21 24 30 28 31 31 30 29 30 30 30 30 30 30 29
29 30 30 30 31 31 30 30 30 30 31 29 30 30 30 29
29 30 30 30 30 30 30 29 29 29 30 29 29 29 29 29
1 18 12 23 1 0 23 36 0 2 0 17 4 0 0 15
37 14 13 0 0 0 0 0 0 0 17 0 0 0 0 0
2 26 17 0 0 0 2 5 0 0 1 11 8 6 12 13
22 20 15 18 13 12 17 15 20 19 18 8 5 8 11 25
42 66 74 71 62 57 48 39 23 2 0 0 0 0 0 2
1 17 22 29 28 30 30 31 30 31 31 30 30 30 30 30
30 30 30 30 30 30 30 30 30 31 31 29 30 30 30 31
30 30 30 30 30 30 29 30 30 30 29 29 28 30 30 30
1 0 0 3 1 0 23 35 0 2 0 9 15 0 0 15
36 14 14 0 0 0 0 0 0 0 15 0 0 0 0 0
2 32 21 0 0 0 4 14 6 3 10 4 8 6 12 18
24 17 16 15 12 12 20 18 17 15 9 16 18 23 34 55
73 89 89 84 88 88 78 63 52 34 4 0 0 0 0 3
6 9 19 29 27 31 31 30 31 30 31 30 30 30 30 30
30 31 30 31 30 30 31 30 31 30 31 30 31 30 31 30
30 30 30 30 30 30 30 29 29 29 29 31 30 30 30 30
0 5 8 2 0 0 23 34 0 1 0 2 2 0 0 16
35 14 14 0 0 0 3 3 0 0 13 0 0 0 0 0
1 29 23 0 0 0 7 14 13 17 9 6 5 6 8 11
14 9 12 14 18 20 23 21 26 19 28 37 28 35 57 78
87 92 91 97 101 98 90 77 66 54 34 4 0 0 0 0
10 9 12 29 27 32 31 31 31 31 31 30 30 30 30 30
30 30 30 30 31 30 30 31 31 31 32 31 32 31 31 31
31 31 31 30 31 31 30 31 30 29 30 29 30 29 29 29
0 1 5 1 0 0 23 31 0 0 1 0 1 0 0 17
35 14 14 0 2 3 5 7 0 0 12 0 2 0 0 0
3 29 25 0 0 0 7 13 16 16 6 4 6 7 4 8
11 8 16 25 28 31 39 46 45 36 54 41 36 57 81 86
93 99 105 109 106 104 96 86 75 66 57 25 1 0 1 0
7 10 9 25 28 31 31 31 30 31 32 31 31 30 30 30
30 31 31 31 31 31 31 32 31 30 31 30 30 31 30 31
31 31 31 30 31 30 30 30 31 30 30 29 29 29 30 30
28 23 17 12 5 3 25 31 0 0 5 0 0 0 0 16
34 14 14 1 10 3 3 1 0 0 14 0 0 0 0 0
6 27 28 0 0 1 1 9 16 4 3 9 6 3 2 4
5 9 21 27 37 50 62 58 41 57 59 44 51 80 90 98
105 108 112 112 110 104 99 93 83 72 64 45 12 0 2 5
6 7 9 16 28 32 31 30 30 31 32 30 30 30 30 30
30 31 31 31 31 30 30 30 31 31 31 31 30 31 31 30
31 31 31 31 31 30 31 30 29 30 29 29 30 30 30 29
39 40 48 49 47 44 39 42 19 10 12 12 9 5 3 21
33 15 15 3 5 0 0 2 0 0 17 0 0 0 0 0
9 31 38 13 7 4 1 1 5 3 15 16 6 2 4 2
2 6 20 24 54 79 64 40 46 61 67 45 79 91 103 110
113 114 115 112 110 106 101 95 89 81 72 52 27 7 3 11
7 9 11 17 25 31 31 30 31 31 31 31 32 31 31 31
31 32 31 31 32 31 32 31 31 30 30 30 30 31 31 31
31 31 31 31 30 31 30 30 30 30 30 29 31 28 30 30
10 19 22 25 29 38 40 59 54 29 35 37 42 40 36 37
28 14 14 1 0 0 0 0 0 0 32 38 28 21 19 10
2 25 48 32 34 34 30 15 2 9 12 13 3 1 3 0
4 7 18 46 91 81 61 56 70 82 66 83 98 109 118 117
117 117 116 114 110 108 105 101 93 84 79 61 37 16 4 14
9 12 17 17 25 31 31 30 29 29 31 31 31 31 31 31
31 31 32 31 31 32 31 31 31 31 31 31 31 31 32 31
31 31 31 31 30 30 29 28 28 29 28 27 27 27 28 29
6 16 12 9 0 13 56 61 47 28 37 45 48 47 47 46
29 15 15 1 0 0 0 0 0 0 35 53 41 43 44 47
43 48 44 13 14 16 17 11 6 12 4 2 0 0 0 4
10 13 39 91 89 80 75 80 97 96 100 107 115 116 117 118
116 116 117 113 108 107 105 103 97 88 83 66 43 30 9 16
21 7 14 21 21 30 31 31 31 31 31 31 31 31 31 31
31 30 32 30 31 31 30 31 31 31 31 30 31 31 31 30
30 31 30 30 29 29 29 28 29 30 28 27 24 21 17 15
3 3 1 1 0 16 56 57 38 30 39 44 47 46 50 49
30 15 15 6 1 0 0 0 0 0 36 49 39 47 48 53
48 40 34 15 13 13 12 5 6 6 5 3 0 0 6 15
22 38 91 101 92 98 108 111 115 112 114 119 121 119 120 119
119 118 116 112 107 106 104 100 97 91 85 69 46 38 16 14
23 7 0 8 12 32 31 30 31 31 31 30 31 31 31 31
30 30 32 30 30 30 31 30 31 30 31 30 30 31 30 31
31 31 31 29 26 26 30 22 15 13 12 10 9 9 10 12
2 1 0 0 0 14 54 50 19 9 19 26 29 35 38 46
31 15 18 34 40 33 23 14 8 4 35 36 40 47 48 52
51 42 35 19 14 14 13 2 1 1 7 2 0 17 47 39
47 95 109 111 115 118 118 118 117 118 121 120 122 121 122 121
120 118 117 113 109 107 105 102 97 94 82 71 50 42 28 15
20 6 1 0 6 23 32 31 31 31 31 30 30 31 31 30
29 29 31 31 31 30 31 30 32 32 32 32 31 29 27 24
20 17 16 13 12 12 29 21 7 12 12 14 15 15 16 17
0 0 0 0 0 12 54 50 16 0 0 0 0 0 0 21
32 16 18 37 49 49 46 46 45 44 46 29 35 43 45 49
50 44 39 23 15 13 12 4 1 0 3 9 21 53 82 84
100 109 111 117 119 122 125 122 122 125 126 121 120 119 120 119
117 116 115 114 110 109 105 99 96 91 79 67 56 42 32 19
22 10 9 1 1 14 29 30 29 29 29 29 30 30 30 29
28 29 31 31 32 31 31 30 27 24 21 18 16 14 13 13
13 13 14 16 16 15 20 16 12 17 19 20 20 22 22 23
7 0 0 0 0 9 52 52 15 0 0 0 0 0 0 17
34 16 17 36 49 50 47 47 49 49 48 10 4 9 15 22
28 29 38 24 14 11 7 2 0 1 19 25 31 62 79 99
108 110 113 118 121 123 125 124 124 121 120 120 118 118 120 119
117 117 117 117 115 112 108 103 97 89 79 65 57 46 38 28
21 14 8 7 0 6 26 30 29 28 27 27 27 23 24 31
30 28 26 23 21 19 17 15 14 15 15 16 16 18 18 19
20 20 21 22 22 21 26 24 16 21 24 25 24 25 25 26
17 0 0 0 0 5 49 49 11 0 0 0 0 11 10 19
33 18 17 32 44 45 45 47 49 49 46 6 0 0 0 0
8 15 39 22 12 10 3 3 0 8 26 27 37 65 81 96
106 110 114 119 120 122 121 122 122 119 120 121 120 119 118 119
120 121 121 120 117 115 111 107 98 88 78 63 58 52 46 34
23 14 6 5 0 2 18 26 28 27 27 26 26 16 15 19
17 16 16 16 17 17 19 19 21 20 21 21 22 23 23 25
25 26 26 26 25 24 21 19 19 25 26 26 27 28 28 28
9 0 0 0 0 5 44 45 9 0 0 0 3 27 27 24
30 28 25 28 32 33 35 35 36 42 42 4 0 0 0 0
0 10 41 21 11 11 10 4 0 14 27 27 40 66 80 91
104 106 111 118 118 121 122 124 122 118 120 120 120 120 120 121
121 121 121 121 118 116 113 108 100 90 76 60 58 53 47 40
26 19 4 2 0 1 10 23 21 19 17 16 16 14 15 18
19 20 22 22 23 23 24 25 26 26 26 26 27 27 27 28
28 28 28 28 27 22 3 2 15 27 28 29 29 28 28 28
10 1 0 0 0 6 43 44 7 0 0 0 2 26 27 23
26 22 19 22 20 22 30 31 30 42 42 3 0 0 0 1
0 2 41 16 9 2 1 8 5 12 24 29 39 65 83 94
102 103 112 118 120 123 126 125 125 123 121 122 123 122 120 122
123 124 122 122 120 119 114 110 102 92 79 57 56 55 49 43
32 19 10 1 0 1 7 17 18 18 19 20 21 22 22 23
25 26 26 27 28 28 29 28 29 29 29 29 29 29 29 29
29 30 29 28 28 21 2 1 11 27 29 30 30 30 29 29
0 0 0 0 0 8 45 45 6 0 1 0 0 5 8 15
23 21 21 23 26 26 30 31 33 42 41 3 0 0 0 0
0 3 42 6 0 0 0 6 5 13 28 30 45 66 84 94
97 102 112 117 123 125 128 129 128 126 127 124 123 122 123 124
124 123 121 119 116 115 115 110 102 94 82 59 52 55 56 50
37 23 16 3 0 2 7 21 22 23 25 25 26 27 27 28
29 29 29 30 29 30 30 30 31 31 31 31 30 30 30 30
29 13 7 3 11 19 3 3 9 27 29 30 30 29 29 30
0 0 0 0 0 10 47 45 5 0 1 0 0 0 0 7
21 16 19 14 8 14 20 27 35 39 39 3 0 0 0 0
0 4 43 6 0 0 0 0 9 16 34 33 49 70 82 91
95 104 112 120 124 125 130 132 131 128 131 130 125 124 125 128
121 116 115 113 109 104 108 104 95 90 86 66 48 53 59 56
40 23 18 6 1 5 7 22 28 28 29 29 29 29 30 30
30 30 31 31 31 31 32 31 31 31 32 31 31 31 31 31
27 5 7 12 19 19 0 0 9 27 29 30 31 29 29 29
0 0 0 0 0 12 49 45 5 0 0 5 1 0 0 8
28 25 24 12 0 0 0 0 1 2 20 4 0 0 0 0
0 6 42 5 0 0 0 5 8 22 32 40 52 64 81 89
94 105 114 120 127 130 128 127 127 130 131 132 133 128 125 127
119 103 103 82 71 66 77 84 75 70 77 73 53 50 58 58
46 26 19 8 1 2 16 27 30 30 30 29 29 30 32 32
32 31 32 32 32 33 33 32 32 32 32 33 32 32 32 32
31 30 30 29 29 23 1 0 8 27 29 29 31 29 30 30
12 7 3 2 0 14 49 44 5 0 0 3 5 0 0 10
35 28 26 14 0 0 0 0 0 0 14 4 0 0 4 1
0 4 41 3 0 0 0 3 7 26 32 40 48 70 78 86
92 105 114 121 124 124 121 117 110 119 120 126 130 130 125 120
116 99 82 61 47 40 46 54 60 55 51 60 58 46 54 55
43 29 19 11 5 1 24 30 32 31 31 31 31 33 32 33
33 32 32 32 33 33 33 33 32 33 33 33 32 32 32 33
32 30 30 29 28 25 6 0 11 27 31 30 31 30 30 30
43 31 39 39 31 32 41 40 10 0 0 3 9 1 0 8
38 30 25 14 0 0 1 1 0 0 13 4 0 2 16 8
0 4 40 2 0 0 0 1 10 32 36 35 50 67 78 83
91 106 112 116 115 112 94 78 77 99 105 116 120 124 123 113
109 96 76 54 33 32 37 47 56 54 42 40 48 46 49 55
47 27 17 13 2 1 27 32 33 32 32 31 33 33 33 33
32 32 33 33 33 32 33 33 33 33 33 33 33 33 33 32
31 31 31 29 28 25 12 0 17 28 30 31 31 31 30 30
21 15 21 24 24 24 36 36 30 14 8 8 17 11 4 7
39 25 23 14 0 0 9 8 0 0 12 4 0 11 19 12
2 4 38 1 2 0 0 1 12 33 35 31 49 67 79 80
91 103 96 96 92 81 56 44 64 80 93 106 110 119 119 108
97 83 65 62 63 65 72 77 71 62 55 45 43 46 50 52
50 27 9 9 1 7 30 33 33 32 31 32 33 33 34 33
33 33 33 33 32 33 33 33 32 33 33 32 33 32 32 32
32 32 32 30 28 24 20 16 23 29 31 30 31 31 30 30
0 0 0 7 13 2 35 37 35 41 37 33 41 39 36 36
43 26 22 14 0 5 19 16 7 0 12 17 8 18 19 18
9 5 39 1 2 0 0 2 10 31 33 27 51 76 82 78
91 79 73 75 66 50 41 46 56 63 80 94 103 114 117 105
86 67 75 94 97 97 103 107 104 94 83 66 55 51 48 53
50 29 12 5 2 12 33 33 33 32 32 32 33 33 33 33
33 33 33 33 33 33 33 34 33 33 34 33 33 32 33 32
32 32 31 30 28 25 23 24 28 31 31 31 32 30 31 30
0 0 0 8 17 12 39 38 29 6 8 15 23 34 42 47
46 30 20 15 0 4 13 11 5 0 13 44 40 45 43 42
41 41 43 2 0 0 0 1 9 30 30 29 54 78 85 77
74 57 52 64 72 73 68 73 80 78 78 82 93 113 125 109
76 69 89 72 66 56 33 31 45 76 91 86 75 67 53 55
51 31 9 4 4 11 34 34 33 33 34 34 33 33 33 34
33 33 33 33 33 34 33 33 33 33 33 34 33 33 33 32
33 32 31 30 29 26 26 27 31 31 32 31 32 31 31 31
0 7 10 3 7 14 40 39 27 0 0 0 7 2 25 47
45 27 21 17 1 1 3 0 1 0 11 43 42 46 45 44
50 53 48 18 13 17 6 3 9 25 28 28 55 83 84 76
62 53 69 81 94 99 86 65 64 64 80 92 93 107 128 112
75 66 71 74 78 72 41 29 28 41 48 88 89 82 64 59
53 36 7 1 3 16 34 32 32 32 33 33 33 33 33 33
33 33 34 33 33 33 33 32 33 32 33 33 32 33 32 32
32 31 30 30 29 28 28 30 31 32 32 31 32 31 31 31
7 32 37 20 9 7 42 41 25 0 0 10 33 12 32 45
40 25 23 24 16 0 3 0 0 0 10 43 42 44 44 44
53 54 53 37 35 34 32 29 20 20 27 32 56 81 86 79
64 72 94 100 72 31 30 28 69 64 74 83 96 102 121 112
76 63 86 82 94 92 50 42 65 72 51 62 82 91 77 60
54 42 13 2 1 16 34 33 32 32 33 33 33 32 33 33
33 32 33 33 32 33 33 33 32 33 33 33 33 33 32 33
32 31 31 31 30 29 29 30 30 29 30 29 29 30 30 30
19 31 29 0 0 5 43 42 25 0 1 2 26 27 37 44
35 23 23 24 9 0 1 0 0 0 10 39 36 39 39 39
40 37 38 36 37 37 37 34 32 14 23 30 57 81 89 87
86 94 100 53 35 22 25 38 93 81 86 96 91 96 116 113
85 64 95 97 97 101 98 93 89 92 86 87 84 93 84 67
57 47 19 4 5 21 33 32 32 32 32 32 32 32 33 33
33 33 33 33 33 33 33 32 32 32 32 33 34 32 32 31
31 31 31 31 30 29 31 31 30 30 31 31 31 30 31 30
1 36 38 2 0 5 45 44 28 0 0 0 5 12 36 45
32 22 25 23 4 0 0 0 0 0 10 44 35 37 37 37
36 33 33 37 38 39 40 39 37 15 21 32 58 85 94 97
106 107 74 37 70 74 70 89 93 88 98 106 94 96 117 117
97 66 79 99 103 105 105 106 106 108 104 97 103 106 97 76
58 46 23 7 16 30 34 33 32 32 33 32 33 33 34 33
33 33 33 32 32 32 32 32 32 32 32 32 32 31 32 31
31 31 31 30 29 30 31 32 31 30 31 31 31 31 30 29
0 22 19 1 4 6 45 44 29 0 0 0 0 2 33 46
31 23 22 24 25 20 16 13 10 7 13 45 36 36 35 35
36 37 39 42 39 42 46 49 41 14 12 26 59 87 94 103
111 99 80 95 106 113 109 106 102 101 103 104 99 99 120 119
102 71 77 101 108 116 120 122 120 119 110 107 109 107 99 79
58 43 30 28 32 30 34 32 32 32 32 31 31 32 32 32
32 32 33 33 33 32 32 31 32 31 31 30 31 32 32 31
31 31 31 30 31 30 31 31 31 30 30 30 30 29 15 14
0 0 0 1 3 5 45 45 29 0 0 0 0 0 29 46
31 23 24 28 45 47 45 43 47 50 48 49 39 39 38 38
39 42 45 46 40 43 46 51 41 16 13 23 64 87 97 103
105 100 108 107 108 111 114 115 118 113 114 113 100 98 116 115
104 75 70 98 113 115 124 128 127 124 117 111 108 104 101 84
57 42 34 53 52 45 34 31 31 31 31 31 32 32 33 33
33 33 33 32 31 31 31 31 31 31 33 32 32 32 32 32
31 30 31 30 31 31 31 31 30 29 29 30 29 16 24 28
0 0 0 0 0 3 44 44 24 0 0 0 0 0 31 48
33 22 24 29 52 55 53 53 53 53 53 52 39 34 34 34
35 40 46 48 41 43 42 40 40 21 15 18 65 86 97 110
119 117 120 122 126 129 128 127 120 119 121 111 99 95 111 117
101 71 71 92 116 119 118 118 121 123 117 109 108 106 102 86
57 41 36 57 52 50 34 31 32 32 32 32 32 32 33 33
33 33 33 32 31 31 31 31 30 30 31 31 31 31 30 30
29 30 30 30 31 31 31 31 31 31 30 29 28 15 29 19
0 0 0 0 0 2 44 44 23 0 0 0 0 0 29 47
32 19 25 26 41 44 45 47 48 51 51 51 19 12 9 6
8 12 22 46 42 35 15 16 21 33 22 15 62 84 96 109
119 122 126 124 124 122 124 124 125 127 123 111 100 96 113 116
102 70 70 89 113 123 122 119 119 118 114 109 108 106 101 88
59 39 35 54 49 55 36 32 32 32 32 33 32 33 33 32
32 33 34 33 31 31 31 31 31 30 31 31 31 31 30 30
30 29 28 28 28 31 31 30 30 30 29 30 26 18 30 15
0 0 0 0 0 2 43 45 23 0 0 0 0 0 26 43
29 20 26 23 28 29 28 28 28 28 28 34 11 0 0 0
0 0 4 44 41 17 0 0 4 41 33 24 58 81 95 107
116 123 126 127 127 123 123 126 130 132 123 110 99 96 112 115
106 78 68 87 115 127 126 122 118 116 112 110 105 105 100 84
56 39 34 45 54 51 35 32 33 32 33 32 32 33 33 33
32 33 32 32 30 30 30 29 29 30 31 32 31 27 14 12
10 8 6 6 18 31 31 31 31 30 30 30 27 16 26 12
0 0 0 0 0 2 42 45 25 0 0 0 0 0 25 46
32 19 24 24 35 37 37 35 35 33 33 35 15 6 0 0
0 1 14 43 35 4 0 0 0 52 37 42 52 74 92 106
116 125 126 124 124 125 129 131 134 133 125 110 97 96 108 110
104 85 66 80 115 132 130 128 123 117 112 108 102 101 93 79
54 38 35 48 67 55 34 32 32 32 32 32 32 32 32 28
23 20 16 14 12 8 6 6 9 23 32 31 31 27 5 2
2 2 3 3 16 31 31 31 31 30 30 28 26 4 0 0
14 14 17 21 25 29 46 43 25 0 0 0 0 0 28 49
35 18 24 24 38 39 39 39 39 39 39 39 16 4 0 0
0 1 15 41 29 0 0 0 1 54 77 77 55 67 84 104
115 123 122 121 124 128 132 134 136 136 130 111 94 93 105 113
106 94 70 71 105 135 134 132 126 121 116 107 101 96 88 73
51 38 34 52 70 57 34 32 32 32 33 33 33 33 33 14
2 2 7 6 5 1 0 0 0 16 31 30 30 27 5 3
3 4 2 4 16 33 32 32 32 30 28 3 1 0 0 0
40 41 42 43 44 43 38 27 18 10 9 9 9 9 31 45
34 21 28 28 40 41 41 40 40 40 41 41 17 3 1 0
1 5 3 38 24 0 0 0 0 55 82 83 64 64 79 102
113 119 118 121 126 131 133 135 136 136 128 106 91 93 106 119
113 99 71 63 84 124 135 131 128 123 117 108 101 94 84 70
49 38 34 55 67 61 32 32 32 32 32 32 31 32 31 12
0 2 7 4 5 0 1 0 0 14 30 31 30 24 4 2
3 3 2 2 13 31 32 32 32 31 29 1 0 0 0 0
39 39 39 39 39 39 39 38 38 36 36 36 36 36 36 36
35 34 35 35 36 36 36 36 36 36 37 43 19 0 0 0
1 8 1 35 22 0 0 0 0 49 72 79 66 60 74 98
110 114 116 120 127 134 135 135 136 129 119 99 93 95 108 129
124 103 76 66 70 100 132 133 131 124 118 112 104 96 82 67
49 38 34 54 58 57 33 31 33 32 32 32 33 32 31 13
1 1 7 4 5 0 0 0 0 13 31 31 31 26 4 3
3 4 3 2 10 31 32 32 31 31 30 6 7 20 19 22
38 37 37 38 37 37 37 37 36 35 36 35 35 35 34 34
33 34 34 34 34 33 34 34 34 33 33 40 29 8 0 0
2 6 0 32 22 0 0 0 0 47 78 83 73 57 71 94
106 111 116 122 129 136 137 135 131 123 104 99 96 96 112 131
122 103 73 60 68 82 124 131 129 124 117 112 104 94 79 66
47 37 36 49 55 54 33 32 32 32 32 32 32 32 31 14
1 1 7 5 6 0 1 0 0 14 30 30 31 28 6 3
4 5 6 6 8 28 29 30 28 29 29 9 21 29 28 28
37 37 37 37 37 36 36 35 35 35 34 34 33 33 33 32
32 32 31 32 31 32 32 32 32 32 33 39 28 3 0 0
1 6 2 31 22 0 0 0 0 31 93 93 78 54 69 89
100 108 115 123 128 135 136 136 130 116 91 98 94 89 102 113
104 87 59 55 65 75 115 129 126 120 115 110 104 93 77 62
47 35 40 64 64 43 33 32 32 33 33 33 33 32 32 16
1 1 5 6 5 0 0 0 0 12 30 30 30 29 14 12
11 11 12 11 13 27 31 32 31 31 30 7 27 29 28 28
37 31 29 28 27 26 25 24 23 23 22 21 21 20 20 19
20 20 20 20 20 21 22 22 25 29 32 37 21 0 0 0
0 0 0 31 24 0 0 0 0 16 99 95 79 55 66 84
95 105 116 122 127 133 136 135 128 114 92 91 57 64 84 91
79 61 40 38 59 81 112 126 125 118 113 110 102 90 76 58
45 33 51 71 60 38 32 32 32 32 32 32 32 31 31 16
1 1 3 2 3 0 0 1 0 11 30 31 31 29 9 4
5 5 4 4 7 27 31 30 31 31 21 12 31 30 29 28
35 16 1 0 0 0 0 0 0 0 0 0 0 0 0 0
0 0 0 0 0 0 0 0 15 28 31 33 19 0 0 0
0 1 0 27 29 0 0 0 0 4 89 94 78 59 60 79
93 102 112 118 123 130 135 133 125 118 104 81 61 67 62 62
50 41 43 45 65 97 111 116 122 118 110 108 103 91 77 57
43 34 62 67 54 32 32 32 31 32 32 33 32 33 32 16
0 0 0 0 0 0 0 1 0 10 30 31 32 30 9 4
4 4 5 3 6 25 9 8 7 8 10 29 29 30 28 28
35 21 1 0 0 0 0 0 0 0 0 0 0 0 0 0
0 0 0 0 0 0 0 0 16 32 29 30 20 4 3 2
3 13 6 25 37 17 15 17 20 19 74 89 77 66 55 72
88 97 109 113 120 126 132 131 122 122 119 102 83 81 87 90
87 85 66 65 87 104 105 104 108 114 110 108 103 91 80 56
41 40 69 62 42 29 32 32 32 32 31 32 33 32 30 16
1 0 0 0 2 1 1 2 0 9 30 30 31 29 10 2
4 5 3 2 5 13 22 31 29 28 30 30 29 28 27 26
35 24 3 0 0 0 0 0 0 0 0 0 0 0 0 0
0 0 0 0 0 0 0 0 13 31 29 30 37 39 34 32
35 38 36 37 40 51 48 46 47 49 68 85 98 80 53 67
84 94 104 111 116 122 125 123 116 120 118 111 95 88 99 101
104 97 85 77 81 92 98 96 98 105 109 106 100 89 82 55
40 43 57 41 30 29 31 31 31 31 32 32 33 32 29 17
1 1 1 3 7 1 0 2 0 8 29 30 31 29 11 3
4 3 3 4 5 6 29 31 30 30 30 29 28 28 25 5
35 25 6 0 0 0 0 0 0 0 0 0 0 0 0 0
0 0 0 0 0 0 0 0 9 30 28 28 39 44 37 38
40 38 32 30 33 49 51 48 47 49 61 82 99 93 64 61
80 93 99 108 113 119 119 111 108 112 112 107 97 95 106 106
109 107 99 86 78 83 90 89 94 93 104 105 103 87 80 56
41 28 26 25 28 29 30 31 30 32 32 33 33 31 29 18
2 1 0 0 0 0 1 2 0 7 28 29 31 29 11 2
3 3 2 2 5 7 29 32 31 30 29 29 28 27 18 0
34 26 8 0 0 0 0 0 0 0 0 0 0 0 0 0
0 0 0 0 0 0 0 0 7 30 26 26 37 39 33 36
39 39 33 29 30 30 33 33 32 32 34 66 92 95 87 59
79 95 99 103 111 117 114 102 103 105 108 102 100 104 111 111
110 108 106 97 84 84 83 82 90 83 96 104 101 84 77 57
39 23 25 25 27 28 30 29 30 32 32 33 34 30 28 18
2 0 0 0 0 0 1 2 0 7 28 29 31 29 10 2
3 3 3 3 5 6 28 31 29 29 29 28 27 27 20 0
33 26 10 0 0 0 0 0 0 0 0 0 0 0 0 0
0 0 0 0 0 0 0 0 5 29 26 25 32 26 29 28
31 38 34 30 32 25 24 24 25 25 26 34 71 86 89 62
74 93 102 102 110 117 109 99 105 106 105 102 101 111 116 110
103 105 111 100 86 81 76 66 89 86 94 106 102 82 79 55
36 27 29 28 28 26 28 29 30 31 32 33 34 30 28 20
2 1 1 0 0 0 0 2 0 6 28 28 31 29 10 2
3 3 3 2 4 8 25 30 30 30 30 28 27 27 23 5
33 27 12 0 0 0 0 0 0 0 0 0 0 0 0 0
0 0 0 0 0 0 0 0 3 27 25 23 30 12 12 15
17 20 20 19 32 27 28 28 32 35 34 33 37 43 46 50
72 92 100 102 112 118 107 96 97 96 103 107 106 110 116 116
115 110 87 78 66 54 45 42 82 92 101 109 100 81 80 53
36 41 40 38 36 34 29 28 30 31 32 33 33 30 29 21
3 1 1 1 1 1 0 2 0 5 26 27 29 28 12 1
2 3 2 0 2 11 19 30 30 29 29 28 27 26 24 12
33 28 14 0 0 0 0 0 0 0 0 0 0 0 0 0
0 0 0 0 0 0 0 0 1 25 25 22 29 5 0 0
0 0 4 10 33 32 42 40 43 52 48 27 26 28 29 34
65 92 103 99 114 119 114 89 78 71 83 90 85 82 81 84
85 76 75 81 73 50 44 62 102 98 112 109 93 78 78 49
37 43 41 39 38 36 31 27 29 32 34 34 34 31 29 23
3 1 1 2 1 1 1 1 0 5 26 27 29 27 15 5
8 5 3 6 6 15 12 30 30 30 29 29 28 24 24 34
33 28 15 0 0 0 0 0 0 0 0 0 0 0 0 0
0 0 0 0 0 0 0 0 1 24 25 22 30 7 0 0
0 0 0 12 36 31 42 38 35 45 41 2 0 0 1 2
47 90 105 96 113 123 125 105 95 85 63 64 72 89 100 102
101 101 101 91 64 44 52 82 104 103 116 108 94 76 72 44
40 44 41 39 38 37 32 26 29 32 33 34 34 31 30 23
3 2 2 1 2 1 0 1 0 4 26 27 29 27 26 25
27 23 20 26 24 26 6 29 30 30 29 27 26 14 2 6
34 29 17 0 0 0 0 0 0 0 0 0 0 0 0 0
0 0 0 0 0 0 0 0 0 23 25 22 31 14 0 0
0 0 0 9 37 30 41 28 4 12 37 1 0 0 0 0
28 79 102 98 108 123 130 116 108 103 92 68 67 83 95 99
92 82 72 61 48 60 74 90 95 101 109 101 91 77 68 38
44 44 42 39 39 39 34 25 30 32 34 35 35 33 32 25
4 2 2 2 2 1 1 2 0 4 26 26 29 29 29 29
30 29 29 28 27 27 17 11 20 11 6 5 3 0 0 0
33 29 17 0 0 0 0 0 0 0 0 0 0 0 0 0
0 0 0 0 0 0 0 0 0 20 24 21 21 7 0 0
0 0 0 10 36 30 40 26 0 8 37 2 0 0 0 0
14 65 95 102 103 118 123 126 116 103 104 103 81 64 63 61
63 65 64 73 88 89 87 81 86 97 98 95 89 77 61 36
45 42 42 40 39 38 35 24 28 31 33 33 33 33 31 26
5 3 2 2 2 1 1 2 0 4 27 30 31 31 30 30
29 29 30 28 19 15 10 1 0 0 1 1 0 0 0 0
31 28 18 0 0 0 0 0 0 0 0 0 0 0 0 0
0 0 0 0 0 0 0 0 0 17 24 21 13 0 0 0
0 0 0 10 35 29 41 27 0 7 37 5 0 0 0 0
7 49 85 101 101 111 118 123 120 103 100 105 107 102 99 95
90 84 83 94 94 88 82 72 85 89 91 91 87 76 55 39
45 41 42 40 39 38 36 25 27 30 32 33 34 33 31 27
6 2 2 2 2 1 1 1 0 7 28 31 31 31 29 29
28 27 27 20 0 0 0 0 16 0 0 0 0 0 0 0
31 28 17 0 0 0 0 0 0 0 0 0 0 0 0 0
0 0 0 0 0 0 0 0 0 15 23 19 13 0 0 0
0 0 0 10 35 27 41 27 0 6 35 7 0 0 0 0
5 46 74 96 101 106 112 116 113 106 95 95 102 108 109 102
93 89 91 85 87 87 80 67 85 87 90 91 83 71 48 42
46 42 43 40 37 37 35 26 25 29 31 33 33 33 32 28
15 11 9 7 8 7 4 3 11 19 29 32 32 30 29 28
28 27 27 18 0 0 0 19 65 31 0 0 0 0 0 0
31 28 18 1 0 0 0 0 0 0 0 0 0 0 0 0
0 0 0 0 0 0 0 0 0 14 24 20 13 0 0 0
0 2 0 6 35 28 41 27 1 6 33 9 0 0 0 2
4 45 65 89 99 104 107 109 102 102 100 89 102 109 105 101
94 92 88 90 90 82 74 66 82 88 85 86 79 64 42 43
46 43 42 41 38 38 37 28 23 27 31 32 33 32 30 30
28 26 21 19 19 17 3 2 17 24 30 32 32 31 28 28
28 26 22 12 0 0 0 29 42 40 0 0 0 0 0 0
30 27 18 1 0 0 0 0 0 0 0 0 0 0 0 0
0 0 0 0 0 0 0 0 0 13 23 20 14 0 0 0
0 4 0 4 36 28 41 32 7 6 31 15 5 1 5 3
4 42 72 77 98 102 102 106 102 99 101 92 96 103 103 103
102 97 95 93 83 83 75 76 79 85 83 81 76 55 44 43
45 42 41 41 39 39 36 31 22 27 29 31 33 32 30 30
29 27 23 21 20 19 5 3 20 26 30 32 32 30 28 27
25 23 1 0 0 0 0 0 0 0 0 0 0 0 1 1
29 27 18 2 0 0 0 0 0 0 0 0 0 0 0 0
0 0 0 0 0 0 0 0 0 11 23 19 14 0 4 0
0 9 10 3 37 29 42 32 20 6 30 13 6 10 8 0
2 36 76 71 90 102 99 104 98 99 103 99 94 94 98 101
101 95 89 84 77 71 72 78 80 76 81 78 69 46 51 42
46 44 41 41 38 38 35 31 21 26 28 30 32 31 30 29
28 28 25 22 23 22 8 3 23 26 29 30 31 29 28 27
27 25 2 1 0 0 0 0 0 0 0 0 0 0 1 1
29 27 18 2 0 0 0 0 0 0 0 0 0 0 0 0
0 0 0 0 0 0 0 0 0 10 23 19 15 2 5 2
2 11 16 9 37 31 43 28 24 13 28 11 6 12 8 1
2 31 70 82 74 95 95 99 99 98 102 103 97 93 87 91
96 93 89 80 72 74 82 94 89 70 76 73 58 44 53 43
45 45 42 40 38 38 35 33 22 25 28 30 31 31 30 28
28 28 26 24 24 23 9 2 23 25 28 29 29 28 26 27
26 24 2 0 0 0 0 0 0 0 0 0 0 0 0 0
29 26 18 2 0 0 0 0 0 0 0 0 0 0 0 0
0 0 0 0 0 0 0 0 0 9 23 19 18 22 30 32
33 36 39 40 48 37 44 23 18 21 27 25 22 22 21 22
21 28 61 84 71 80 97 95 97 100 100 103 103 96 97 87
87 91 90 80 66 82 99 105 89 69 64 64 46 50 52 43
45 45 42 40 39 38 36 34 22 23 27 29 30 31 29 28
29 29 26 25 26 25 11 2 24 25 27 27 28 28 26 26
26 25 17 1 0 0 0 0 0 0 0 0 0 0 0 0
28 26 18 2 0 0 0 0 0 0 0 0 0 0 0 0
0 0 0 0 0 0 0 0 0 8 23 18 19 35 41 43
44 45 47 48 52 47 43 22 5 18 26 30 25 25 25 25
25 25 55 83 81 64 83 91 93 98 103 100 102 103 103 92
94 93 95 75 74 89 106 106 91 66 52 52 44 55 52 41
43 45 42 39 39 38 36 33 25 22 26 28 29 30 30 28
28 28 27 26 27 26 13 1 23 26 26 27 27 26 26 26
25 24 13 0 0 0 0 0 0 0 0 0 0 0 0 0
30 26 18 3 0 0 0 0 0 0 0 0 0 0 0 0
0 0 0 0 0 0 0 0 0 7 22 18 18 37 42 42
42 43 43 42 42 42 41 23 1 7 23 32 29 30 29 30
30 30 50 83 85 63 63 82 85 91 104 107 109 106 95 96
95 98 98 80 83 89 109 106 90 61 46 43 51 58 53 27
34 45 42 40 40 39 37 35 28 19 25 27 28 30 29 28
28 28 28 27 29 28 16 0 22 27 26 26 26 26 26 26
25 23 7 0 0 0 0 0 0 0 0 0 0 0 0 0
28 26 18 3 0 0 0 0 0 0 0 0 0 0 0 0
0 0 0 0 0 0 0 0 0 7 22 18 16 14 13 14
14 14 14 15 15 16 35 23 0 5 21 33 30 32 32 31
31 32 45 82 87 69 51 63 75 84 97 110 108 109 102 94
96 100 93 84 92 96 111 104 81 52 40 42 55 58 54 24
14 40 41 39 40 39 38 35 31 20 25 27 28 27 21 23
22 24 28 28 28 27 17 0 21 27 26 26 27 25 26 25
25 24 8 0 0 0 0 0 0 0 0 0 0 0 0 0
29 26 18 3 0 0 0 0 0 0 0 0 0 0 0 0
0 0 0 0 0 0 0 0 0 6 21 18 15 7 5 7
8 10 11 13 13 15 35 24 0 2 18 33 30 31 31 31
32 32 41 81 87 75 58 51 58 70 88 101 103 109 111 100
98 101 97 96 88 97 105 91 66 43 37 49 59 59 53 19
4 34 41 39 40 36 36 35 33 22 29 33 28 19 18 14
11 15 24 27 27 26 18 0 18 26 26 26 26 26 26 25
25 20 0 0 0 0 0 0 0 0 0 0 0 0 0 0
28 26 18 4 0 0 0 0 0 0 0 0 0 0 0 0
0 0 0 0 0 0 0 0 0 6 21 17 15 10 9 10
11 11 12 14 14 15 36 29 15 20 32 34 30 31 31 31
31 31 46 79 88 81 63 58 52 53 70 84 89 95 96 97
97 97 90 88 91 95 93 70 47 36 42 55 61 60 52 13
0 27 42 41 40 35 36 41 41 38 35 31 30 18 15 12
8 13 21 26 26 26 19 0 16 25 26 26 27 26 25 25
24 15 0 0 0 0 0 0 0 0 0 0 0 0 0 0
29 27 19 4 0 0 0 0 0 0 0 0 0 0 0 0
0 0 0 0 0 0 0 0 0 7 23 18 15 13 14 14
15 16 16 16 15 18 39 36 40 49 49 35 29 30 31 31
31 35 51 78 88 84 70 60 60 54 52 63 75 82 88 88
86 89 85 90 84 81 68 49 38 39 51 61 62 62 53 10
1 19 48 43 32 26 35 48 44 45 31 22 18 14 13 15
6 12 19 25 24 24 19 0 13 24 25 25 27 25 24 24
23 5 0 0 0 0 0 0 0 0 0 0 0 0 0 0
29 26 19 4 0 0 0 0 0 0 0 0 0 0 0 0
0 0 0 0 1 2 4 4 6 14 23 17 15 13 14 15
16 17 18 19 16 16 30 26 29 34 34 29 29 31 30 31
31 52 35 73 93 90 79 65 63 58 53 51 56 68 79 83
77 75 75 76 64 57 45 39 40 45 58 62 65 60 52 12
2 17 49 52 22 22 29 42 34 23 17 13 11 10 11 15
4 10 15 23 24 22 18 1 10 24 24 25 26 24 24 24
20 0 0 0 0 0 0 0 0 0 0 0 0 0 0 0
28 25 20 7 1 2 3 4 5 5 6 7 9 10 11 12
13 14 14 14 15 15 15 15 15 16 15 15 15 14 14 15
16 17 18 19 16 18 24 25 22 23 27 27 29 30 30 30
35 70 27 72 97 97 93 73 62 62 58 55 53 54 57 61
64 63 64 55 46 43 41 41 44 54 63 66 64 62 52 22
1 18 48 69 23 20 17 17 15 15 13 10 10 9 14 10
4 8 11 21 22 22 19 1 9 23 24 24 25 25 24 24
18 0 0 0 0 0 0 0 0 0 2 0 0 0 0 0
28 26 25 23 20 18 19 19 19 18 18 16 16 15 16 15
15 16 16 15 16 15 15 15 15 15 15 15 15 15 15 16
17 16 18 18 17 20 25 26 25 25 28 28 29 30 30 30
46 69 20 64 98 104 104 91 69 68 63 58 58 58 58 61
63 61 59 54 46 43 43 43 50 59 62 66 64 62 54 31
1 26 56 70 28 14 14 13 12 15 11 12 10 13 14 14
6 8 8 17 21 22 19 2 7 23 24 24 25 25 24 22
4 0 0 0 0 0 0 0 0 0 0 0 0 0 0 0
28 26 25 23 22 16 19 20 20 18 17 16 16 15 16 15
16 16 17 16 16 15 16 16 15 15 15 14 14 15 16 17
17 17 17 18 17 20 24 26 26 25 28 28 28 30 30 30
56 79 25 51 98 103 105 97 88 75 76 64 59 61 63 65
66 65 62 56 48 44 47 50 57 64 68 74 71 68 58 36
1 41 53 77 39 23 18 16 16 16 15 15 14 14 12 13
9 8 5 14 21 21 19 2 6 23 24 23 24 23 22 21
2 0 0 0 0 0 0 0 0 0 0 0 0 0 0 0
27 26 25 24 22 15 18 19 18 18 17 16 15 15 16 15
16 16 15 15 15 13 13 12 11 11 10 10 12 15 16 17
18 18 18 19 18 19 24 26 25 26 27 27 28 29 30 31
68 91 28 42 98 104 107 104 98 83 90 89 77 74 73 72
73 72 66 61 51 54 54 59 66 80 87 88 87 79 61 43
3 52 51 81 51 39 40 32 28 29 30 26 22 18 15 13
10 5 4 11 20 20 19 14 16 24 24 24 24 22 21 18
1 0 0 0 0 0 0 0 0 0 0 0 0 0 0 0
26 26 25 23 22 19 19 18 17 16 14 13 11 10 9 8
7 5 3 2 1 0 2 6 7 11 12 12 13 15 16 16
17 17 18 19 19 20 24 26 26 27 27 27 28 28 31 44
78 98 28 40 97 103 107 106 104 92 96 103 100 97 95 90
91 83 81 72 67 71 69 73 85 100 100 96 96 83 63 48
11 47 51 76 52 37 39 38 43 56 54 44 34 35 38 36
32 27 21 21 27 21 19 19 20 23 24 23 23 22 24 16
0 0 0 0 0 0 0 0 0 0 0 0 0 0 0 0
11 11 9 7 5 4 3 2 1 1 1 0 0 0 0 1
1 2 2 1 0 0 1 6 8 10 11 12 13 14 15 16
17 18 19 19 19 21 24 26 26 27 27 27 29 40 55 64
80 94 44 35 97 103 106 108 105 99 100 108 112 113 111 106
103 99 96 86 80 81 80 80 97 105 101 102 95 85 65 53
22 43 52 85 55 43 38 39 48 62 67 68 64 53 48 43
41 36 33 28 22 18 18 19 22 20 19 21 22 22 28 12
0 0 0 0 0 0 0 0 0 0 0 0 0 0 0 0
0 0 0 0 0 0 0 0 0 1 13 16 17 17 19 22
22 22 22 19 2 0 0 5 9 9 11 11 12 14 15 16
17 18 19 20 20 22 25 26 27 28 34 48 62 66 60 70
88 88 68 29 94 106 106 109 107 101 100 107 116 118 120 116
113 112 110 96 94 91 89 88 101 106 107 102 98 85 67 59
33 55 54 79 52 39 43 44 52 70 68 68 71 71 69 60
49 31 32 29 26 23 15 18 21 21 18 20 22 19 15 0
0 0 0 0 0 0 0 0 0 0 0 0 0 0 0 0
0 0 0 0 0 0 2 4 5 9 34 36 35 34 33 30
28 27 32 30 10 1 3 6 8 9 10 11 13 14 16 18
19 20 21 22 23 24 26 29 44 63 77 79 76 69 59 64
86 89 77 31 89 105 108 111 111 104 99 105 111 115 121 121
118 118 116 107 98 92 95 95 104 111 107 104 97 85 74 64
38 56 69 74 44 43 44 40 56 68 73 76 79 71 67 65
69 64 57 44 37 38 36 32 26 17 10 7 4 2 2 0
0 0 0 0 0 0 0 0 0 0 0 0 0 0 0 0
0 0 0 0 0 0 1 4 6 8 33 32 31 32 30 30
29 31 40 40 25 10 8 5 7 10 12 16 17 21 20 20
23 24 25 26 27 27 42 77 79 81 78 79 77 64 65 60
86 90 72 45 76 107 110 115 113 109 100 104 106 112 121 127
126 128 124 110 97 98 99 100 109 109 107 104 95 86 78 69
34 55 79 63 38 39 49 43 58 78 81 86 75 78 76 73
71 67 72 62 56 48 24 5 1 0 0 0 0 0 0 0
0 0 0 0 0 0 0 0 0 0 0 0 0 0 0 0
5 3 2 2 2 4 14 22 21 20 27 41 41 40 39 38
37 36 35 32 24 15 15 15 15 15 13 12 12 23 18 21
24 26 27 28 31 54 74 84 81 87 79 76 70 66 64 65
81 92 76 52 61 106 112 116 116 112 108 103 99 109 118 126
131 131 123 103 93 98 101 111 111 109 110 104 97 87 78 67
41 75 79 51 36 32 46 46 60 75 82 85 79 73 75 77
71 79 71 78 66 63 61 47 24 3 0 0 0 0 0 0
0 0 0 0 0 0 0 0 0 0 0 0 0 0 0 0
1 1 1 2 3 8 17 20 19 18 21 31 30 27 24 23
22 21 20 19 14 7 6 5 5 5 5 5 6 23 21 21
26 37 53 69 78 82 82 82 89 84 79 71 74 65 60 59
84 91 90 59 42 103 111 116 118 115 112 108 104 102 113 125
133 130 115 91 93 104 109 113 111 111 112 105 97 87 81 53
71 79 67 46 33 32 51 48 57 71 76 86 87 85 88 75
65 75 77 76 70 78 67 64 66 59 34 12 0 0 0 0
0 0 0 0 0 0 0 0 0 0 0 0 0 0 0 0
14 16 20 23 23 23 22 22 21 20 20 19 18 17 17 18
18 18 18 18 13 4 5 4 5 5 5 5 7 23 35 51
65 76 75 83 88 89 89 84 83 87 84 73 83 63 58 64
86 93 99 83 49 77 110 115 118 119 114 108 107 103 104 119
131 126 102 89 102 108 112 117 115 112 111 104 98 92 65 71
80 74 53 44 32 32 50 55 57 69 76 81 83 78 81 81
85 78 85 79 72 80 74 75 78 71 67 60 52 18 0 0
0 0 0 0 0 0 0 0 0 0 0 0 0 0 0 0
13 15 22 26 25 23 20 18 15 12 10 7 5 3 6 18
18 18 18 18 14 3 4 4 4 5 7 20 42 69 75 80
84 81 88 82 86 93 88 92 83 91 80 74 82 70 51 63
87 99 85 65 70 52 94 116 118 119 121 113 108 106 106 112
120 117 96 93 105 107 119 121 115 113 110 105 99 77 59 34
57 72 45 42 29 33 47 52 60 76 82 74 78 84 93 79
82 84 80 74 74 76 81 74 71 69 74 73 67 62 46 7
0 0 0 0 0 0 0 0 0 0 0 0 0 0 0 0
8 12 21 26 25 14 1 0 0 0 0 0 0 0 2 18
18 18 19 18 14 4 4 3 6 31 61 79 78 88 81 81
87 74 81 86 87 90 86 89 85 87 78 77 76 63 50 57
86 54 5 8 58 67 53 110 120 119 120 118 113 106 105 103
109 104 89 100 109 117 123 121 117 114 111 106 89 63 64 20
24 65 45 45 30 37 50 61 63 75 84 89 89 79 82 83
77 88 80 77 84 72 78 80 81 79 73 68 66 69 69 59
19 21 15 0 0 0 0 0 0 0 0 0 0 0 0 0
8 12 20 27 24 12 0 0 0 0 1 3 5 7 12 17
18 17 18 18 14 4 6 30 65 81 77 87 80 81 85 85
88 82 74 82 85 87 90 85 85 87 82 73 79 63 55 61
68 6 1 23 56 74 53 82 121 122 124 121 115 111 109 102
100 94 98 109 117 121 126 123 120 114 110 108 83 67 61 12
14 65 42 36 28 46 59 66 58 82 85 85 79 87 77 83
81 75 83 74 79 72 76 72 81 75 75 80 70 69 67 65
61 41 18 0 0 0 0 0 0 0 0 0 0 0 0 0
8 11 20 27 25 21 13 14 15 16 17 17 17 17 18 19
21 22 24 26 26 28 58 81 82 83 80 79 80 83 88 89
87 89 78 75 85 92 89 85 86 83 82 78 78 70 61 68
45 18 3 11 45 84 73 57 102 122 124 125 121 116 112 108
103 104 108 116 120 129 131 125 120 115 111 107 74 73 75 6
29 57 39 36 27 54 60 58 62 74 88 81 83 80 83 80
81 82 76 81 83 78 80 78 74 87 83 77 78 71 70 67
64 60 19 0 0 0 0 0 0 0 0 0 0 0 0 0
10 13 19 26 24 24 22 23 23 23 24 25 25 26 28 28
26 24 24 23 32 68 72 74 80 79 84 80 91 81 81 82
87 85 82 73 85 95 87 88 81 80 83 76 78 66 61 63
38 28 16 0 38 78 94 61 67 119 126 126 124 123 120 117
117 115 120 123 129 132 130 125 120 115 113 106 78 76 82 4
56 50 39 34 39 60 66 64 70 73 82 88 86 84 88 80
80 80 94 77 89 82 83 77 85 75 80 74 76 80 76 71
66 57 53 10 0 0 0 0 0 0 0 0 0 0 0 0
11 21 27 32 31 30 29 29 30 25 24 23 21 20 24 26
22 23 25 35 66 71 77 77 86 86 84 82 85 84 82 85
88 87 92 76 79 82 84 85 83 76 82 82 79 60 67 68
49 33 20 24 50 74 95 82 59 96 131 132 132 129 124 122
121 122 125 126 131 134 131 127 120 117 116 102 78 76 74 12
64 40 45 37 50 62 64 61 73 72 78 86 92 83 85 77
78 91 83 84 80 74 85 66 80 84 75 84 78 70 79 76
77 60 57 51 5 0 0 0 0 0 0 0 0 0 0 0
26 36 29 27 25 24 23 23 28 25 24 26 26 28 29 30
30 30 34 69 69 75 75 85 85 85 84 86 86 85 87 86
86 87 82 84 77 89 80 85 84 83 85 83 75 65 65 62
61 39 27 65 40 62 71 83 83 71 121 134 132 134 130 126
125 128 130 132 133 134 131 125 119 117 112 86 77 82 36 34
46 40 42 36 61 76 64 63 76 81 84 79 89 85 84 81
82 80 83 74 77 83 89 95 87 85 77 68 74 86 79 76
73 57 54 55 28 0 0 0 0 0 0 0 0 0 0 0
18 34 32 30 30 31 32 32 32 31 31 31 30 31 31 31
31 36 61 70 77 74 72 81 87 84 86 90 90 87 79 86
94 89 84 92 79 83 83 90 91 82 85 81 80 71 78 67
79 49 41 56 59 51 62 63 71 69 93 130 135 136 135 132
131 133 134 136 136 134 131 123 120 119 97 78 79 59 18 44
43 42 39 67 80 74 68 72 77 81 79 75 85 77 75 78
79 78 70 85 85 82 81 75 84 85 94 85 79 75 83 82
76 60 63 58 53 28 0 0 0 0 0 0 0 0 0 0
10 21 34 36 35 36 36 35 34 34 33 34 32 33 33 33
33 59 78 76 78 81 79 75 83 90 90 90 86 86 81 78
87 87 80 89 82 83 84 86 80 94 85 87 84 78 69 63
65 77 54 48 76 64 68 73 72 68 71 118 135 137 137 136
135 136 137 136 136 134 129 124 119 109 83 79 76 12 34 50
44 38 59 75 76 76 59 70 73 84 75 81 81 83 83 79
87 93 89 81 81 89 91 84 92 86 74 75 81 91 74 76
76 68 59 67 63 68 21 0 0 0 0 0 0 0 0 0
15 21 29 33 33 35 39 40 35 37 35 34 32 34 34 33
43 70 86 84 82 81 77 79 88 85 89 87 88 83 76 90
88 93 87 84 80 81 84 84 92 86 85 84 86 78 85 67
60 71 69 53 76 67 69 62 65 64 70 111 137 139 139 138
139 138 138 137 136 134 128 119 104 86 81 70 48 19 48 49
45 61 85 78 73 70 70 72 81 75 89 88 86 88 74 82
77 79 86 82 90 82 81 86 74 86 88 76 82 77 85 75
69 75 68 70 61 70 52 2 0 0 0 0 0 0 0 0
31 37 38 38 34 30 34 36 36 36 35 34 32 28 24 27
72 75 83 87 82 77 77 77 95 93 88 83 87 87 97 89
84 87 83 93 95 86 88 92 91 81 85 84 81 86 88 87
70 58 79 68 69 88 64 65 64 70 76 87 122 138 139 139
139 139 139 137 136 133 126 94 85 86 69 37 32 47 44 39
61 87 86 76 83 72 58 79 73 88 75 76 76 83 80 77
91 87 86 78 83 74 87 97 87 88 94 79 84 85 75 83
58 71 71 72 65 61 74 32 0 0 0 0 0 0 0 0
28 38 39 42 41 25 28 31 25 19 13 9 5 2 1 49
77 79 87 88 82 79 81 75 80 83 86 95 97 93 77 89
92 95 94 85 92 87 88 89 90 85 80 85 85 81 86 86
88 83 62 66 68 91 71 69 69 62 74 86 88 119 138 139
138 138 138 137 135 131 103 86 72 54 34 41 33 72 47 57
84 85 80 76 88 76 64 66 80 76 76 93 90 81 80 80
88 83 74 82 88 80 84 86 88 88 84 76 88 88 85 75
57 64 77 76 65 60 73 66 6 0 0 0 0 0 0 0
37 37 35 30 16 4 2 2 0 0 0 0 0 0 22 71
82 88 89 91 80 75 82 77 80 88 89 87 86 84 87 86
83 83 86 86 90 87 76 84 85 78 84 85 92 86 88 92
88 94 84 63 75 86 90 71 74 72 65 84 89 87 123 139
138 138 138 138 134 106 86 75 52 42 41 60 64 68 54 83
90 81 74 78 81 76 69 74 81 83 77 79 78 76 85 79
90 83 78 87 89 85 85 84 82 90 76 78 86 85 81 82
53 67 79 75 66 58 73 79 28 0 0 0 0 0 0 0
12 12 6 4 2 1 0 0 0 0 0 0 0 6 61 77
78 78 85 84 83 76 84 80 82 87 91 89 90 89 87 91
88 91 87 88 92 89 85 83 92 81 87 89 92 89 88 89
86 90 91 81 75 88 85 81 75 84 74 61 78 92 88 129
139 139 138 136 114 91 83 60 54 45 60 88 67 70 64 93
86 78 78 81 86 82 70 76 72 76 87 75 92 81 80 79
89 83 84 83 89 85 84 87 89 89 84 81 86 81 83 68
57 71 80 77 69 53 66 67 52 2 0 0 0 0 0 0
0 0 0 0 0 0 0 0 0 0 0 0 0 44 67 81
76 76 86 87 82 77 87 79 83 92 93 90 92 89 88 95
88 97 88 89 93 86 83 86 88 88 87 87 92 88 86 88
90 90 93 77 79 75 90 89 95 85 85 77 68 77 88 97
136 139 138 121 88 92 60 50 46 58 78 86 65 82 71 76
82 76 72 86 86 82 80 82 83 81 72 82 84 79 83 84
90 81 93 89 87 83 79 85 88 90 85 78 86 81 81 71
61 77 83 81 73 54 64 62 64 15 0 0 0 0 0 0
0 0 0 0 0 0 0 0 0 0 0 0 13 74 65 82
75 73 90 89 85 81 85 83 79 84 92 93 92 94 86 93
89 90 89 88 95 92 88 95 93 87 87 82 89 81 86 94
91 81 94 86 92 71 87 82 79 94 81 83 81 75 72 87
109 137 129 91 80 60 53 59 58 78 100 91 78 79 93 94
78 66 81 83 76 76 77 91 81 85 81 86 77 81 98 84
84 81 90 87 85 81 76 88 86 79 84 82 89 79 78 57
66 85 91 83 74 54 66 65 71 35 2 0 0 0 0 0
0 0 0 0 0 0 0 0 0 0 0 0 55 73 64 85
68 70 90 89 83 74 79 85 78 90 94 92 95 90 91 91
90 89 95 90 91 84 97 91 97 79 88 91 86 87 93 88
86 88 102 93 101 76 99 95 93 85 81 87 74 84 86 68
83 107 94 72 48 55 72 73 85 92 88 85 84 77 84 86
82 73 82 86 92 81 77 79 88 77 85 76 82 79 86 75
84 96 78 84 80 96 93 101 80 82 81 84 78 80 89 52
74 87 90 89 81 56 69 59 71 42 17 0 0 0 0 0
0 0 0 0 0 0 0 0 0 0 0 16 82 71 67 81
67 72 95 84 82 86 92 79 83 82 86 87 89 78 86 90
92 91 94 82 87 87 96 89 91 89 86 87 92 86 83 86
91 90 93 84 99 78 88 95 93 97 94 100 89 84 89 87
66 80 68 50 51 56 79 75 83 91 92 83 85 93 78 79
78 80 86 83 80 76 82 83 79 81 75 73 79 81 91 71
73 85 69 90 91 91 88 80 86 98 80 85 89 86 80 55
81 84 90 88 75 51 67 53 73 43 44 1 0 0 0 0
0 0 0 0 0 0 0 0 0 0 1 61 78 75 64 83
58 77 91 90 80 80 88 85 81 93 99 95 98 99 80 88
87 79 85 88 88 85 89 87 96 85 85 96 94 80 90 101
100 93 89 84 100 79 91 88 89 84 84 87 89 85 85 83
70 49 55 63 74 98 81 86 82 87 90 84 82 96 84 75
75 83 92 93 90 94 79 78 79 82 82 85 93 87 90 81
90 90 95 91 80 78 84 88 86 84 76 91 86 74 78 59
83 90 82 86 69 53 56 54 68 45 55 17 0 0 0 0
0 0 0 0 0 0 0 0 0 0 14 81 82 77 60 80
56 75 86 88 82 84 80 86 82 83 86 84 87 83 95 98
98 99 98 89 88 101 97 97 87 83 91 95 84 90 91 93
89 94 94 96 91 93 92 95 96 93 97 93 89 86 81 72
56 55 75 93 85 72 85 88 86 88 86 88 75 81 79 84
78 81 86 79 81 75 99 91 97 85 76 84 80 81 74 82
90 85 87 78 89 89 82 84 85 82 70 79 77 85 78 63
84 85 82 78 70 62 48 66 71 42 63 40 0 0 0 0
