P2
128 120
137
0 2 8 4 0 0 0 26 46 38 33 33 32 33 32 32
32 32 31 31 30 31 30 30 29 29 29 29 28 27 27 27
27 27 26 25 26 25 25 24 25 24 24 23 23 22 22 21
22 21 21 21 20 20 20 19 20 19 19 20 21 22 25 25
25 25 18 16 22 15 23 22 22 21 21 20 20 20 19 19
18 13 19 17 21 21 20 21 21 22 21 21 21 21 21 21
21 21 21 21 22 22 22 22 22 22 22 22 22 22 23 23
23 24 24 24 24 24 24 25 25 25 25 25 25 25 24 24
0 4 7 3 0 0 0 24 45 38 33 32 33 33 32 32
32 32 31 31 31 31 30 30 30 29 29 28 28 28 28 27
27 26 26 25 25 25 25 25 24 24 24 23 24 23 23 22
22 21 22 21 21 21 20 20 20 19 19 20 21 23 25 26
26 24 19 17 24 15 23 23 22 22 21 21 22 21 19 19
18 14 20 19 21 21 21 22 22 22 21 22 22 21 22 21
21 21 21 22 21 22 22 22 23 23 23 22 23 23 23 23
23 24 24 24 24 24 24 25 24 24 24 24 23 24 24 25
0 0 2 0 0 0 0 25 44 38 32 32 32 32 32 32
32 31 31 31 30 30 30 29 30 29 28 29 29 28 28 28
28 27 27 26 26 25 25 25 24 24 24 23 23 22 22 22
22 22 21 22 21 21 21 20 20 20 20 20 21 23 26 26
25 25 19 17 24 15 24 22 22 22 21 21 21 21 19 19
19 15 21 19 21 22 22 22 22 22 21 22 22 22 22 22
22 22 21 22 22 23 23 22 23 23 22 23 23 23 23 23
24 24 25 25 24 23 23 23 23 24 24 25 25 25 25 25
0 0 0 5 4 0 0 25 44 37 33 32 33 32 32 32
32 32 31 31 31 31 30 29 30 30 29 29 29 28 28 28
27 27 26 26 27 26 26 25 25 25 25 25 24 24 23 23
23 22 22 22 22 21 21 21 20 20 20 21 22 24 26 26
26 26 19 18 25 17 24 22 24 23 22 21 21 22 20 20
19 16 21 19 22 22 22 22 22 23 22 23 23 22 22 22
22 23 23 23 23 23 22 23 23 24 23 23 24 25 24 24
24 24 24 24 24 24 25 25 25 25 26 26 25 26 26 26
0 0 1 5 4 0 0 25 44 37 32 32 32 33 32 32
32 32 31 31 31 31 31 30 30 30 29 28 29 28 28 28
27 27 27 27 27 26 26 26 25 25 25 24 24 24 23 23
23 23 22 22 22 22 22 21 21 20 21 21 22 24 27 26
27 26 19 18 25 18 23 23 24 23 22 22 21 22 20 21
20 16 21 20 22 22 22 22 23 23 22 22 23 23 22 23
22 22 23 23 23 23 24 23 25 24 24 24 23 23 23 24
24 25 26 26 26 26 26 25 26 26 25 26 26 26 26 25
0 0 1 0 2 1 0 25 44 37 33 32 32 32 33 32
32 32 31 31 31 31 30 30 30 30 30 29 29 29 28 28
28 27 27 27 26 25 26 25 25 25 25 25 25 24 24 24
24 23 23 23 22 22 22 21 21 21 21 22 23 25 27 27
27 27 20 18 26 20 22 23 24 24 23 23 21 22 21 20
20 17 22 19 23 23 23 22 23 24 23 24 23 23 23 23
23 23 23 23 23 24 24 24 23 23 23 23 23 24 25 25
25 26 25 26 26 26 25 26 26 25 25 26 26 26 26 26
12 7 2 0 2 2 9 29 44 36 32 32 32 32 32 31
32 31 31 31 31 31 31 30 30 30 29 30 29 28 28 29
28 28 27 27 26 27 26 26 25 25 25 25 24 24 24 24
23 23 23 23 23 22 22 22 22 21 22 22 23 24 27 28
28 27 20 18 26 22 20 25 24 24 23 23 21 21 21 21
20 18 21 20 23 24 23 23 23 24 23 23 24 23 23 24
23 24 23 23 23 24 24 23 25 23 23 24 24 24 24 24
24 26 25 25 25 25 26 26 26 26 25 26 26 26 26 26
31 32 32 27 22 17 16 32 43 36 33 33 33 33 32 33
32 32 32 32 31 31 31 31 30 30 30 30 29 29 29 29
28 28 28 27 27 27 27 26 26 26 26 26 25 25 25 25
24 24 23 23 23 22 22 22 22 22 22 23 24 26 29 28
29 28 21 19 27 25 19 25 25 24 24 23 22 23 21 22
21 18 21 20 24 24 24 24 24 25 24 24 24 24 24 24
24 24 24 24 24 24 24 24 25 25 24 25 25 25 25 25
25 27 26 26 26 26 26 26 26 26 26 26 26 26 26 27
23 25 27 29 32 35 36 37 37 34 33 33 33 32 32 32
32 31 32 31 31 31 32 31 30 30 30 30 29 29 29 28
28 28 28 27 27 27 27 26 26 26 25 25 25 26 25 24
24 24 24 24 24 23 23 23 23 23 23 22 24 25 28 28
28 27 21 18 26 26 18 25 25 24 24 23 22 23 22 22
22 18 22 21 24 24 25 24 24 24 23 23 23 23 23 23
23 25 24 24 25 24 24 24 25 25 24 24 25 26 25 26
26 27 26 26 26 26 26 26 26 26 26 26 25 26 26 26
13 16 18 22 25 28 29 30 33 34 33 33 33 33 33 33
32 32 32 31 31 31 31 30 30 30 30 30 29 29 29 29
28 28 28 27 28 27 27 26 26 25 26 26 26 25 25 24
24 24 24 24 23 23 23 23 23 23 23 23 24 26 29 30
29 28 22 19 27 28 18 25 25 24 24 23 22 23 22 22
22 20 22 21 24 24 24 23 24 24 24 24 24 25 25 25
24 25 25 25 25 24 24 24 24 24 25 25 25 26 26 26
26 26 27 26 26 26 27 26 26 26 26 26 26 26 26 26
11 11 10 10 11 13 17 22 26 31 33 34 33 33 33 32
32 32 31 31 31 31 31 31 30 30 30 29 29 29 28 28
28 28 28 28 28 27 27 27 26 26 26 25 25 25 25 24
25 24 24 24 24 23 24 23 23 23 23 23 24 25 29 28
28 28 22 18 26 29 18 25 25 25 24 24 23 23 22 22
22 19 21 20 23 23 24 23 24 24 24 24 25 24 24 24
25 26 24 25 25 25 24 24 25 25 25 25 25 26 25 26
26 26 26 26 26 26 26 26 26 25 26 26 26 26 26 26
10 10 10 11 10 9 10 11 11 11 14 17 22 26 30 32
33 32 32 30 30 30 30 30 30 29 29 29 29 29 28 28
28 28 28 27 27 27 27 27 26 26 26 26 25 25 25 25
24 24 24 23 23 23 23 23 23 22 22 23 24 25 29 29
29 29 23 18 26 30 18 24 25 25 24 23 24 24 22 23
23 19 21 22 24 25 25 25 25 24 24 25 24 24 24 25
25 25 25 24 25 24 24 24 25 25 25 26 25 26 26 26
26 26 26 26 26 26 26 26 27 26 26 26 26 26 26 26
16 12 11 11 11 10 10 10 9 8 10 10 9 10 11 13
16 21 25 30 31 30 31 30 30 29 29 28 29 28 28 28
28 27 27 27 27 27 26 26 26 25 26 25 25 25 24 24
24 24 24 23 23 23 23 23 23 23 22 23 24 24 28 28
28 27 23 18 25 30 20 24 25 24 24 23 23 22 22 22
21 19 20 22 24 24 24 24 24 23 24 25 24 23 24 24
24 25 24 23 24 24 24 24 24 24 24 24 25 25 25 25
25 25 25 25 25 25 26 26 26 26 26 25 24 23 23 22
40 36 35 36 32 28 24 17 11 11 10 11 10 10 10 10
2 4 10 28 30 30 29 29 29 29 29 29 29 29 28 28
28 27 27 27 27 26 26 26 26 26 25 24 25 24 25 25
24 24 23 23 23 23 24 23 23 22 22 23 24 25 29 28
28 27 23 17 24 29 21 21 25 24 23 23 22 23 22 22
22 21 20 22 24 25 24 24 24 24 24 24 24 24 24 25
24 25 25 24 24 24 24 24 25 25 24 25 25 25 26 26
26 26 27 26 25 25 26 25 25 24 24 24 24 25 25 25
46 42 37 45 45 43 41 29 19 22 19 13 8 8 9 10
7 7 11 27 30 30 29 29 29 29 27 28 29 28 28 28
28 27 27 27 27 26 26 26 26 25 26 25 25 25 25 25
25 24 24 23 23 24 23 23 23 23 23 22 24 25 28 28
27 27 23 17 25 30 23 20 25 24 23 24 23 23 22 22
21 20 20 22 24 24 24 24 24 25 24 24 25 24 24 25
25 25 25 25 24 25 24 25 25 25 25 25 26 26 25 25
25 25 25 24 24 25 25 25 25 25 26 25 25 25 24 25
45 39 40 42 45 45 44 32 26 31 36 35 30 28 21 15
8 8 9 27 30 30 30 30 29 28 30 30 30 30 29 28
29 28 28 27 27 27 26 26 26 26 25 25 33 33 30 27
25 25 24 24 24 24 24 23 23 23 23 23 24 25 29 28
27 28 24 16 24 29 21 14 14 5 5 10 22 23 22 21
22 21 19 23 24 25 25 25 25 24 25 25 24 25 25 25
25 25 26 25 25 25 25 24 25 25 25 26 25 25 26 25
25 25 25 25 25 25 25 25 25 25 25 25 25 24 25 25
29 24 34 37 44 45 45 35 32 35 38 37 33 41 41 40
18 9 12 28 31 30 31 31 30 32 40 37 37 35 31 30
28 27 28 28 27 27 27 27 28 27 27 28 39 38 35 33
32 30 26 25 25 24 23 24 24 24 24 24 25 26 28 25
22 15 10 4 5 4 0 3 0 0 0 0 1 5 20 22
22 22 20 23 24 26 25 25 26 26 26 25 26 26 26 25
26 27 26 26 25 25 25 25 25 26 25 25 26 26 26 25
25 25 25 25 25 25 25 25 25 25 26 26 25 26 26 25
12 0 0 3 8 13 29 36 35 37 39 40 41 44 43 44
23 9 13 30 32 32 31 31 30 33 42 40 39 36 35 34
35 34 31 29 28 27 27 26 27 27 27 28 37 36 34 33
34 34 29 24 25 25 25 25 25 24 24 24 24 22 16 5
1 1 0 2 5 1 0 0 0 0 0 0 0 3 6 4
7 15 21 24 25 26 26 26 26 26 26 26 26 26 26 26
26 26 26 25 25 25 26 26 27 26 26 25 26 25 26 26
26 26 26 25 25 26 25 26 25 25 25 26 25 25 26 26
0 0 0 0 3 0 17 38 35 37 39 40 42 44 44 45
27 10 14 34 35 33 33 32 31 32 42 41 38 36 37 39
40 38 34 35 35 32 28 27 27 27 27 28 31 29 31 33
34 34 31 24 25 25 24 25 24 24 24 16 11 6 0 0
1 3 6 8 2 0 0 0 0 2 0 0 0 0 1 0
0 0 10 21 25 26 27 26 26 26 26 27 26 26 26 25
26 26 26 27 26 26 26 26 26 26 27 26 26 26 26 27
26 26 26 26 26 25 26 26 25 25 26 27 25 26 26 26
0 0 0 4 14 3 20 37 32 37 35 40 42 42 42 42
29 10 15 34 37 33 35 34 35 34 27 20 30 37 39 41
42 39 25 23 32 34 34 33 32 32 30 28 23 10 10 13
18 24 30 27 25 26 26 25 25 24 18 6 3 1 1 0
5 13 14 11 2 0 0 0 1 1 0 0 0 0 0 0
0 0 0 0 7 19 26 26 26 26 26 25 26 26 26 26
26 26 26 26 27 27 26 26 26 27 28 26 26 26 26 27
27 26 26 26 26 25 26 25 26 26 26 27 26 26 25 25
0 0 0 5 14 8 21 35 3 6 15 23 33 39 40 40
30 11 14 33 37 29 27 32 38 41 18 0 0 11 21 23
29 36 13 0 0 5 13 18 25 34 34 31 24 7 4 7
4 0 17 28 26 25 25 25 24 17 6 9 6 2 0 1
7 5 9 3 0 0 0 0 0 0 0 0 0 1 0 0
0 0 0 0 0 0 12 26 27 26 27 27 27 27 27 27
27 27 27 27 27 27 27 26 26 26 28 26 27 26 26 26
27 26 27 26 26 26 27 25 26 26 26 27 27 25 25 25
0 0 0 2 4 1 21 34 1 0 0 1 1 4 5 22
32 11 14 28 36 37 37 34 40 44 21 0 0 3 8 10
9 29 12 0 0 0 0 0 0 3 9 27 23 4 2 0
5 0 16 28 26 26 24 18 9 6 14 15 3 0 2 7
3 1 2 1 0 0 0 0 0 0 0 0 1 0 0 0
0 0 0 0 0 0 0 12 25 27 28 27 27 27 27 27
27 27 28 27 27 27 27 26 27 27 28 27 27 27 27 27
26 27 27 27 27 27 26 27 26 27 27 27 27 26 26 25
0 0 0 0 0 0 21 34 0 0 0 0 0 0 0 13
33 12 11 0 3 10 19 29 38 41 22 0 0 1 3 7
7 28 15 0 0 0 0 0 0 0 0 24 23 2 0 0
2 0 17 30 26 23 15 3 5 9 20 7 3 1 7 7
3 1 0 0 0 0 0 3 1 1 0 1 2 1 1 0
0 0 0 0 0 0 0 0 7 26 29 28 28 28 27 28
27 28 27 28 28 27 27 27 27 27 28 27 27 27 27 27
27 28 28 27 27 27 27 27 26 27 27 27 27 26 26 26
0 2 0 10 0 0 21 33 0 0 0 3 0 0 0 13
33 11 10 0 0 0 0 0 2 9 19 0 0 0 0 0
2 24 16 0 0 0 0 0 0 0 0 24 18 0 0 0
0 0 16 30 24 11 2 2 3 18 12 10 16 14 6 5
1 2 0 0 0 0 3 5 4 7 5 4 1 1 0 0
0 0 0 0 0 0 0 0 0 5 23 28 28 28 28 27
28 28 28 28 28 28 28 28 28 28 28 27 28 27 28 28
28 27 28 28 27 27 27 27 27 27 27 28 27 27 27 27
0 15 10 20 0 0 21 33 0 0 0 14 2 0 0 13
33 11 11 0 0 0 0 0 0 0 14 0 0 0 0 0
2 25 14 0 0 0 1 3 0 0 0 22 17 0 0 0
0 0 16 28 13 3 2 6 5 21 13 19 13 12 12 1
5 0 4 1 1 5 10 9 9 10 3 9 7 11 12 3
0 0 0 0 0 0 0 0 0 0 3 22 28 28 28 28
28 27 28 28 28 28 28 28 28 28 28 26 28 28 28 28
28 28 28 28 28 28 27 28 28 28 27 27 26 28 28 27
0 0 0 3 0 0 21 32 0 0 0 7 13 0 0 14
32 11 10 0 0 0 0 0 0 0 12 0 0 0 0 0
1 28 18 0 0 0 3 11 4 1 0 21 18 0 0 0
0 0 10 10 7 6 12 6 12 17 20 3 12 9 13 5
7 8 7 4 3 11 14 10 14 14 18 16 15 13 14 8
0 0 0 0 0 0 0 0 0 0 0 3 21 28 28 28
28 28 28 28 28 28 28 28 28 28 28 28 28 29 29 28
28 28 28 28 27 27 26 27 27 26 26 28 28 28 27 27
0 3 6 1 0 0 21 31 0 0 0 1 1 0 0 15
32 11 11 0 0 0 2 2 0 0 10 0 0 0 0 0
0 26 21 0 0 0 5 11 10 9 1 17 19 0 0 0
0 0 5 6 11 16 15 8 15 15 4 10 14 15 17 17
6 3 0 7 13 23 26 15 21 22 26 21 19 21 20 10
6 3 0 0 0 0 0 0 0 0 0 0 7 24 29 28
28 28 29 28 28 28 28 28 29 29 30 29 29 29 29 29
29 29 29 28 29 29 28 28 28 28 27 28 27 26 27 27
0 0 3 0 0 0 21 27 0 0 0 0 0 0 0 15
32 11 11 0 1 2 4 6 0 0 10 0 1 0 0 0
2 25 22 0 0 0 4 11 11 10 3 17 21 0 0 0
0 2 5 10 18 18 10 14 18 6 3 17 16 19 19 16
10 2 3 11 30 33 23 30 25 28 27 28 36 31 21 16
11 5 4 8 2 0 0 0 0 0 0 0 0 19 28 28
29 28 28 29 28 29 28 29 29 28 28 28 28 28 27 28
29 28 29 27 28 27 28 27 28 27 28 28 27 27 27 28
25 21 15 10 5 2 23 28 0 0 4 0 0 0 0 15
31 12 11 0 7 2 1 0 0 0 10 0 0 0 0 0
4 25 26 0 0 0 1 7 10 9 2 14 29 10 4 0
0 6 4 14 11 12 9 23 11 8 10 19 24 15 19 11
12 5 11 25 40 55 64 70 77 48 36 40 36 30 28 23
17 13 20 20 14 4 0 0 0 0 0 0 0 16 27 28
28 28 29 29 28 29 28 28 29 29 28 30 29 29 29 29
29 29 29 29 28 28 28 28 27 27 27 28 27 28 28 27
35 37 45 45 43 40 35 38 17 8 11 11 8 4 3 19
30 12 12 1 4 0 0 1 0 0 14 0 0 0 0 0
8 28 34 11 5 2 0 0 3 8 1 13 38 38 34 30
17 7 3 6 9 16 15 14 16 16 14 17 17 13 16 16
10 12 24 46 67 89 101 111 115 105 81 54 50 39 37 40
39 45 50 48 32 16 6 0 0 0 0 0 5 19 28 28
29 29 29 28 29 30 29 28 29 28 28 29 28 29 29 29
29 28 29 28 28 28 28 28 28 28 28 27 28 27 27 27
8 16 19 22 26 35 37 55 49 26 31 33 38 36 33 34
25 11 11 0 0 0 0 0 0 0 29 34 24 18 16 8
1 23 44 30 31 31 28 20 13 8 5 14 41 38 36 29
7 6 1 1 19 24 15 16 16 12 10 17 19 22 15 18
19 22 38 61 81 91 104 113 116 114 109 99 85 88 93 90
91 80 68 51 31 14 3 7 3 0 0 6 12 25 29 29
29 28 30 28 29 28 28 28 29 29 28 28 29 29 29 29
29 29 29 28 28 27 27 26 26 27 25 25 24 24 26 27
4 14 10 7 0 12 52 57 43 25 34 41 44 43 44 42
26 12 13 0 0 0 0 0 0 0 33 49 37 40 41 43
40 45 40 10 11 13 15 17 21 24 31 37 38 31 33 18
8 3 0 7 16 12 14 17 11 3 6 15 17 22 28 30
25 29 50 72 78 90 103 114 115 117 118 116 114 112 111 109
102 94 72 50 33 21 20 18 11 0 0 11 21 29 29 29
29 29 30 29 29 29 29 28 28 28 29 28 28 28 29 28
28 28 27 28 26 27 27 27 27 27 26 25 22 19 16 13
1 2 1 1 0 15 53 53 35 27 35 41 43 42 46 45
26 12 13 5 0 0 0 0 0 0 34 45 36 44 46 49
45 37 31 13 11 11 11 11 9 8 9 9 10 13 18 10
10 1 1 5 6 10 13 14 1 4 10 24 26 37 32 27
25 40 49 62 78 88 101 111 116 116 116 117 114 112 111 110
104 106 98 82 62 45 33 27 9 4 4 17 27 29 29 28
28 28 30 28 28 28 29 29 30 29 29 28 29 29 29 30
29 29 29 27 24 25 28 20 14 12 11 9 8 9 9 10
1 0 0 0 0 13 50 46 16 8 17 24 27 32 36 42
28 13 15 31 36 29 20 12 7 3 32 32 35 43 45 48
48 39 32 17 12 12 11 9 9 8 7 7 7 9 9 9
10 7 8 8 3 10 3 7 1 6 18 23 26 32 27 25
33 42 54 65 73 90 99 107 116 119 121 120 117 115 114 110
108 108 104 95 79 66 53 33 24 30 22 23 28 29 29 28
27 27 29 29 29 28 29 29 29 30 30 30 29 28 25 22
19 17 14 13 11 11 28 19 7 10 12 13 13 14 15 15
0 0 0 0 0 12 50 47 13 0 0 0 0 0 0 19
29 13 15 34 45 45 43 42 42 41 43 26 32 40 42 46
46 41 35 19 13 10 9 8 9 8 8 8 8 9 9 6
4 9 13 16 8 5 1 4 7 11 17 27 27 28 28 30
39 49 54 63 82 92 97 111 117 120 121 123 121 116 114 109
109 107 106 100 88 75 64 58 51 46 36 26 28 28 28 28
28 27 29 29 30 30 29 28 26 23 21 17 15 13 12 12
13 13 14 15 15 13 19 15 11 16 18 19 20 20 21 21
6 0 0 0 0 8 48 47 12 0 0 0 0 0 0 15
30 14 15 34 45 46 44 44 44 45 44 8 3 8 13 20
26 26 35 20 11 10 4 2 2 5 10 10 9 10 10 3
5 4 17 13 5 7 1 7 8 16 20 37 30 32 31 39
42 47 54 72 81 85 101 111 117 119 120 121 120 117 111 109
111 107 105 104 93 81 71 65 67 58 47 32 25 22 23 29
29 27 26 23 20 18 16 14 13 14 13 14 15 16 16 18
18 19 19 20 20 20 24 22 15 20 23 22 23 23 23 24
13 0 0 0 0 5 46 46 10 0 0 0 0 9 8 16
29 15 14 29 40 41 42 43 45 46 42 5 0 0 0 0
7 13 36 19 10 9 1 0 0 0 5 7 2 2 9 2
5 2 13 5 5 9 4 8 12 21 26 30 29 29 38 42
42 46 57 74 83 97 100 112 116 121 120 120 120 117 115 109
110 108 107 104 98 85 74 69 63 66 57 40 25 15 15 17
16 15 15 15 15 16 17 18 19 20 20 20 21 21 22 23
24 24 24 24 23 22 20 18 18 23 23 24 24 26 27 26
6 0 0 0 0 4 41 42 8 0 0 0 3 25 25 22
27 25 22 25 28 30 31 31 32 39 38 3 0 0 0 0
0 8 39 19 11 9 2 0 0 0 0 0 0 0 5 2
10 0 12 6 7 11 7 13 22 21 23 15 33 25 39 43
42 52 65 85 91 104 109 112 118 122 121 119 118 117 116 113
113 111 109 107 104 92 76 72 68 63 59 50 21 14 14 17
18 19 20 20 21 22 23 23 24 25 25 24 25 25 26 26
27 26 27 27 25 21 3 2 14 26 28 27 27 26 25 26
8 0 0 0 0 5 40 40 6 0 0 0 1 23 24 20
23 19 17 20 18 20 28 28 28 40 39 3 0 0 0 0
0 2 39 13 7 1 0 0 4 6 1 0 0 0 5 6
12 2 13 9 13 13 10 17 20 16 15 20 31 29 37 40
48 59 79 90 97 107 108 115 123 122 121 119 118 117 113 112
112 111 109 108 103 97 83 70 68 67 65 57 33 20 21 22
23 24 25 25 26 26 27 27 27 27 27 27 27 28 28 28
28 28 28 27 26 20 2 0 10 25 27 29 28 28 27 28
0 0 0 0 0 6 42 41 5 0 0 0 0 4 6 12
20 18 19 20 23 24 27 28 30 38 37 2 0 0 0 0
0 3 39 5 0 0 0 0 1 8 6 0 0 0 2 9
7 7 17 15 17 10 22 19 10 15 15 22 31 33 37 44
59 70 90 97 107 119 121 121 120 120 118 116 115 115 114 112
110 108 106 105 103 98 87 72 62 69 69 65 50 26 26 26
27 27 28 28 28 28 29 28 29 29 29 29 29 29 28 29
28 12 7 3 10 18 3 2 9 25 27 28 29 27 27 27
0 0 0 0 0 9 44 41 3 0 0 0 0 0 0 6
17 14 17 11 7 13 18 24 32 36 35 2 0 0 0 0
0 5 40 5 0 0 0 0 0 8 14 7 3 0 6 8
17 5 13 15 16 12 20 14 11 16 18 25 31 36 38 49
75 80 96 103 117 121 120 120 116 116 116 114 116 118 116 110
99 99 98 97 96 93 82 71 62 68 71 71 59 33 28 29
29 29 29 30 30 30 30 30 29 30 30 30 29 29 30 29
25 5 7 11 18 18 0 0 9 26 28 28 29 27 28 27
0 0 0 0 0 11 45 41 3 0 0 3 0 0 0 7
25 22 22 9 0 0 0 0 0 2 17 3 0 0 0 0
0 6 39 4 0 0 0 0 9 11 14 11 6 0 6 13
16 11 10 12 15 18 18 20 14 15 15 23 31 38 44 61
78 86 107 120 118 117 118 116 116 116 115 116 119 118 106 89
85 84 79 84 76 64 61 65 65 67 69 73 68 42 30 30
30 30 29 30 30 30 30 30 30 30 30 30 30 29 30 30
29 28 29 28 27 21 1 0 7 25 27 28 28 27 27 27
11 6 3 1 0 12 45 41 4 0 0 2 4 0 0 7
32 25 22 12 0 0 0 0 0 0 12 3 0 0 3 0
0 3 37 2 0 0 0 0 14 16 17 7 4 0 8 13
11 13 15 13 19 22 18 22 15 15 17 23 33 40 50 67
75 93 119 119 118 118 119 117 117 117 117 117 118 108 87 69
60 63 53 47 49 37 51 56 68 69 67 69 65 48 31 31
30 31 30 31 31 30 30 30 31 31 31 31 30 30 30 30
29 29 28 27 26 23 6 0 10 25 28 28 29 28 28 27
39 28 36 35 28 29 38 37 9 0 0 1 6 0 0 6
35 26 22 12 0 0 0 0 0 0 11 3 0 1 14 6
0 4 37 2 0 0 0 0 2 8 12 0 0 0 9 9
10 12 20 14 17 19 20 23 22 23 28 26 40 44 55 66
80 108 115 116 119 120 119 117 118 118 119 118 112 95 80 78
73 64 53 37 36 42 49 55 73 77 65 64 51 44 34 30
30 30 30 31 31 30 31 31 31 31 31 31 30 30 30 30
29 29 28 27 26 23 10 0 15 25 28 28 29 27 27 27
17 12 18 21 21 21 33 33 26 11 7 5 14 8 3 5
36 21 20 11 0 0 6 6 0 0 10 3 0 8 16 10
2 4 35 1 1 0 0 0 0 4 12 0 0 0 10 10
11 10 24 17 19 18 20 29 35 35 40 36 41 54 56 61
85 109 111 119 121 122 122 120 122 123 120 120 106 97 103 98
95 82 67 57 57 62 58 71 82 83 63 60 40 25 25 31
31 30 31 31 30 30 30 30 30 31 30 30 30 29 30 29
29 29 29 27 26 21 18 13 21 26 29 28 29 28 28 28
0 0 0 6 10 1 32 33 32 37 33 29 37 36 32 32
39 22 19 12 0 4 16 13 4 0 10 15 7 16 16 15
7 4 35 0 1 0 0 0 0 2 16 0 0 0 13 14
12 12 25 23 46 59 49 36 42 49 54 51 46 50 50 72
98 110 117 121 122 123 122 122 124 125 123 118 113 111 108 99
90 78 63 56 75 83 82 86 93 87 58 56 34 17 11 30
30 30 30 30 30 31 30 30 30 30 31 30 30 30 30 30
30 28 29 27 26 21 21 21 25 28 28 28 29 27 28 28
0 0 0 6 14 9 35 34 26 4 6 13 19 30 38 43
42 27 17 12 0 3 10 8 3 0 11 39 37 40 39 38
38 37 40 2 0 0 0 0 0 3 17 0 0 1 19 14
14 5 24 74 106 106 101 70 49 54 62 52 42 41 55 68
93 114 122 123 124 124 124 124 124 124 123 118 112 93 67 62
51 34 30 35 80 94 97 101 108 86 47 46 31 13 6 24
31 30 30 30 31 31 30 30 30 30 30 30 30 29 30 29
30 29 29 28 27 24 24 25 28 28 28 28 29 28 28 27
0 6 9 2 5 11 37 35 25 0 0 0 5 1 21 43
40 24 18 14 0 0 1 0 0 0 10 40 39 42 42 41
47 49 45 16 11 14 5 2 2 5 20 2 2 1 10 12
10 8 51 110 79 83 98 108 92 78 66 45 43 46 63 82
99 114 120 122 123 125 126 125 122 119 113 99 73 54 55 74
47 12 22 32 73 100 106 115 115 76 33 36 40 18 2 19
31 30 31 30 31 31 30 30 31 30 30 30 31 30 30 30
30 28 28 28 27 26 25 27 29 29 28 28 29 29 29 29
6 28 33 17 7 5 38 37 23 0 0 8 29 10 28 41
37 22 20 21 13 0 1 0 0 0 9 39 38 41 40 41
48 51 49 34 32 32 30 27 28 26 26 20 17 16 12 9
10 10 91 90 109 126 118 103 120 109 82 49 45 59 77 99
110 117 121 122 124 125 127 124 123 115 104 99 101 102 97 85
57 30 31 44 85 115 120 124 117 62 26 35 48 40 10 17
31 30 30 31 30 31 30 29 30 30 30 30 30 30 30 30
30 28 29 29 27 27 27 28 27 27 27 27 26 28 28 27
17 28 27 0 0 4 40 38 22 0 0 1 23 24 33 39
31 19 20 21 8 0 0 0 0 0 8 36 33 36 36 36
38 35 35 33 35 35 34 32 32 33 33 31 28 26 16 6
4 26 105 105 117 122 120 99 127 123 100 78 75 90 99 108
113 117 122 124 125 127 126 123 123 119 113 111 108 104 100 96
78 53 40 68 106 125 126 123 115 60 26 34 58 60 16 19
31 31 31 31 30 31 31 30 30 30 30 31 31 30 30 29
29 28 28 28 27 27 28 28 28 28 27 28 29 28 28 28
0 33 35 1 0 4 41 40 24 0 0 0 4 10 33 42
29 20 23 20 2 0 0 0 0 0 8 40 32 34 34 34
34 31 31 35 36 37 37 36 36 34 34 34 36 37 14 7
3 40 106 106 112 113 110 108 123 130 122 110 103 107 107 111
114 118 121 124 125 127 127 126 125 123 118 116 112 109 104 90
81 62 47 68 96 117 122 119 110 75 36 36 54 58 17 25
31 31 31 31 31 30 30 30 30 30 30 29 29 29 29 30
29 29 28 29 28 28 30 30 29 28 29 29 29 28 27 27
0 21 17 1 3 5 43 42 26 0 0 0 0 2 31 43
28 21 20 22 23 18 14 12 9 6 12 42 34 33 34 34
34 35 37 39 37 40 43 46 39 34 34 34 40 42 16 9
3 57 106 103 112 122 124 82 108 130 122 115 110 107 107 110
116 119 119 122 125 126 128 128 126 124 123 119 116 108 98 92
84 69 64 81 100 111 117 116 110 90 42 18 25 44 19 29
31 31 31 31 31 31 30 30 30 30 31 30 30 30 31 30
29 29 30 29 29 29 29 30 29 28 29 29 29 28 14 14
0 0 0 1 2 4 42 42 26 0 0 0 0 0 27 44
29 21 22 27 43 44 43 41 45 47 45 47 37 37 36 36
37 40 43 44 38 41 45 48 40 35 30 31 40 42 15 11
6 70 103 105 126 117 86 72 111 124 123 117 113 111 112 112
115 119 122 123 125 124 130 129 129 127 124 122 119 113 103 88
86 81 87 99 105 110 114 114 112 101 53 6 8 22 27 32
32 32 32 32 30 30 30 30 30 30 32 31 30 30 30 30
29 29 29 29 30 30 30 30 29 29 29 28 28 16 23 26
0 0 0 0 0 3 40 41 21 0 0 0 0 0 29 45
31 20 23 26 49 52 50 50 50 50 50 49 38 33 32 32
32 38 44 46 39 40 40 37 39 36 33 27 33 33 11 12
6 75 100 109 122 99 111 109 109 126 124 118 113 112 111 110
111 121 122 125 124 125 127 129 129 128 124 124 121 114 106 95
89 92 96 101 108 110 113 113 117 109 71 9 7 19 32 32
32 32 32 31 31 30 30 30 29 30 30 29 30 30 29 28
28 29 28 29 29 29 29 28 29 29 28 29 27 14 29 17
0 0 0 0 0 2 41 41 21 0 0 0 0 0 27 44
30 17 23 23 38 41 43 43 45 47 49 49 17 10 7 5
7 11 21 43 40 34 14 16 19 19 20 30 32 12 10 16
8 59 103 112 109 99 126 116 106 132 126 120 117 115 111 112
112 119 121 124 123 127 129 130 130 128 127 123 119 115 107 103
97 94 96 102 110 114 116 117 115 110 89 23 15 26 31 31
31 32 31 31 30 30 30 29 30 30 30 30 30 29 29 28
29 28 26 27 27 29 30 28 28 29 29 28 25 16 27 14
0 0 0 0 0 1 40 42 21 0 0 0 0 0 23 40
27 18 23 21 26 27 27 26 26 26 27 31 10 0 0 0
0 0 3 40 38 16 0 0 1 5 11 32 33 10 11 18
13 39 105 109 103 104 127 121 100 126 129 124 120 113 110 108
111 119 124 127 123 127 130 130 131 130 125 123 120 115 111 107
102 96 95 100 109 116 118 115 111 107 99 48 22 32 31 31
31 31 31 30 29 29 28 28 28 28 29 30 29 25 13 11
9 7 5 6 17 30 29 29 29 29 29 28 26 16 24 11
0 0 0 0 0 1 39 42 23 0 0 0 0 0 23 43
30 17 22 22 33 34 34 33 32 31 30 33 14 4 0 0
0 1 13 41 33 3 0 0 0 0 9 34 33 10 6 9
7 19 104 107 110 99 125 128 108 111 129 129 124 113 108 106
111 119 124 127 124 128 130 131 129 126 125 123 119 116 113 109
106 98 96 99 114 120 120 114 112 111 103 77 33 31 31 27
22 19 16 14 11 8 5 5 9 22 29 29 29 25 4 2
2 2 2 2 15 30 29 30 29 28 28 27 24 3 0 0
13 13 15 19 23 27 41 39 22 0 0 0 0 0 25 45
31 15 22 22 34 36 36 35 36 36 37 35 14 2 0 0
0 1 13 39 26 0 0 0 0 0 4 34 32 10 3 7
5 4 86 109 120 117 118 114 109 103 124 126 123 110 109 108
111 116 123 126 123 127 129 131 129 127 127 125 121 120 116 111
109 100 92 90 110 122 118 118 114 111 104 90 48 30 31 13
2 2 6 6 5 0 0 0 0 16 29 29 28 25 4 2
2 2 2 2 15 30 30 29 29 28 26 3 1 0 0 0
37 37 39 41 41 40 35 25 17 9 8 8 8 9 28 43
31 19 25 25 37 37 38 37 37 37 38 38 14 2 0 0
1 4 2 35 22 0 0 0 0 0 4 34 31 11 0 8
2 2 46 111 115 123 119 126 131 125 121 120 123 111 109 108
111 114 122 124 123 124 130 131 129 128 129 126 125 123 118 112
107 96 80 78 102 104 104 109 108 108 104 96 72 33 29 12
0 2 7 4 4 0 0 0 0 13 29 29 29 23 3 2
2 2 2 2 13 29 30 29 30 29 26 0 0 0 0 0
36 35 36 35 36 36 36 35 35 34 35 35 34 34 35 35
34 33 33 33 34 33 34 34 33 33 34 40 18 0 0 0
0 5 1 32 21 0 0 0 0 0 3 34 29 10 0 4
4 1 7 83 114 119 121 128 127 116 119 116 119 112 110 110
109 114 118 121 123 125 129 130 129 128 130 128 126 124 118 112
105 89 67 89 103 109 105 101 104 107 107 103 92 49 30 13
0 1 6 4 5 0 0 0 0 11 28 29 29 24 3 2
2 3 2 2 9 30 31 30 29 30 28 6 6 18 17 21
35 34 34 34 35 35 35 34 34 34 35 34 34 33 33 33
32 32 32 32 33 32 32 32 32 31 31 38 27 6 0 0
1 4 0 30 19 0 0 0 0 0 3 34 29 13 1 3
3 1 4 19 82 111 116 124 121 119 124 113 113 109 106 108
110 114 114 118 121 125 126 129 129 129 129 127 125 121 118 110
99 71 71 97 111 120 121 116 113 116 119 112 99 60 30 13
0 1 7 5 6 0 0 0 0 13 28 29 29 26 6 4
3 4 5 5 7 27 27 27 26 27 27 8 20 27 26 27
34 34 33 35 35 35 34 34 34 34 34 34 33 33 32 32
31 31 31 31 30 30 30 30 30 29 30 36 26 3 0 0
0 5 1 29 20 0 0 0 0 0 0 32 30 16 0 3
4 1 0 4 35 69 86 110 119 122 119 112 111 108 101 106
111 113 114 117 120 123 128 129 130 130 129 125 124 119 115 105
85 66 85 95 110 119 119 119 122 123 121 120 103 61 29 15
0 1 5 5 5 0 0 0 0 12 29 28 28 27 13 10
10 10 10 10 12 25 29 30 29 29 27 7 25 27 26 26
34 29 27 26 25 25 25 24 23 23 23 22 21 20 20 20
19 19 19 19 20 19 20 20 23 26 29 34 19 0 0 0
0 0 0 29 22 0 0 0 0 0 0 29 30 12 0 0
2 1 0 1 32 64 72 67 81 101 109 111 108 108 105 105
110 111 116 117 121 123 127 129 127 129 129 127 124 118 111 97
72 91 104 90 86 83 73 64 66 98 112 106 87 43 29 15
1 1 4 2 2 0 0 1 0 11 28 30 29 27 8 4
5 4 4 4 7 25 30 29 29 29 19 11 29 28 28 26
32 14 0 0 0 0 0 0 0 0 0 0 0 0 0 0
0 0 0 0 0 0 0 0 13 26 28 31 17 0 0 0
0 1 0 25 27 0 0 0 0 0 0 27 33 17 2 2
5 1 0 0 23 60 78 87 92 76 77 110 106 103 103 108
112 114 115 117 123 125 127 128 129 128 127 126 122 116 104 80
86 107 106 104 93 103 113 102 85 72 86 74 45 31 30 16
1 1 1 0 0 0 0 1 0 11 29 30 30 27 10 4
5 4 4 4 6 24 8 7 7 7 10 28 28 28 27 26
33 19 1 0 0 0 0 0 0 0 0 0 0 0 0 0
0 0 0 0 0 0 0 0 15 29 27 28 19 3 2 1
3 11 5 23 34 15 14 15 18 15 17 33 35 29 33 32
29 4 0 0 16 57 82 101 111 112 89 107 102 98 101 104
109 110 115 116 122 121 124 129 129 128 127 126 120 114 95 82
104 101 101 101 98 99 101 85 63 38 30 31 32 31 30 16
2 1 0 0 2 1 0 2 0 9 28 30 30 27 10 3
4 3 3 3 5 12 21 29 26 27 29 28 28 28 27 27
33 22 3 0 0 0 0 0 0 0 0 0 0 0 0 0
0 0 0 0 0 0 0 0 12 29 26 27 34 36 31 28
32 35 34 34 36 47 45 43 45 46 46 47 39 28 37 39
40 14 0 0 11 51 80 106 115 116 100 95 98 94 97 102
106 111 114 115 120 122 125 127 125 128 127 122 117 109 84 101
102 99 98 99 97 100 93 70 59 15 24 36 33 30 28 16
1 1 1 2 7 1 1 2 0 9 28 29 30 28 10 2
3 3 3 3 4 6 27 30 29 29 28 27 27 27 24 5
33 24 5 0 0 0 0 0 0 0 0 0 0 0 0 0
0 0 0 0 0 0 0 0 9 29 26 26 36 41 35 35
37 35 29 28 31 46 48 45 44 46 48 48 44 27 32 37
39 23 0 0 5 48 81 105 113 118 108 93 95 87 95 99
103 108 114 114 118 120 127 128 125 128 130 126 118 101 96 110
106 104 102 100 101 99 90 62 67 35 44 35 32 30 28 17
2 1 0 0 0 1 0 3 0 7 27 28 29 28 11 2
3 2 3 2 5 6 28 30 29 29 29 28 27 27 19 0
33 25 8 0 0 0 0 0 0 0 0 0 0 0 0 0
0 0 0 0 0 0 0 0 6 28 25 23 34 35 30 33
36 36 30 27 27 28 31 31 30 30 30 29 32 26 25 29
31 24 2 0 1 41 78 101 112 119 110 98 95 84 92 100
102 104 109 113 117 121 127 128 125 128 128 126 115 101 109 109
101 101 107 109 104 103 94 60 72 42 46 33 32 29 27 18
2 1 0 0 0 0 0 2 0 6 27 28 30 28 10 3
3 2 3 3 4 6 27 30 29 29 28 28 27 27 21 0
33 27 10 0 0 0 0 0 0 0 0 0 0 0 0 0
0 0 0 0 0 0 0 0 4 26 24 22 28 24 26 26
28 35 31 28 29 22 22 21 22 23 23 23 27 28 29 31
32 29 9 0 2 37 72 96 109 117 116 102 97 81 87 96
102 102 107 111 113 117 122 127 126 130 127 123 114 106 109 91
91 105 116 112 110 105 95 61 75 37 42 32 32 29 27 19
2 1 1 1 1 0 0 2 0 5 26 27 29 27 10 2
2 2 3 2 4 8 24 29 28 29 28 28 27 27 23 5
32 27 12 0 0 0 0 0 0 0 0 0 0 0 0 0
0 0 0 0 0 0 0 0 2 26 23 21 26 10 10 12
14 17 17 17 28 25 26 26 29 33 33 29 33 34 35 40
41 39 24 5 0 30 71 94 104 113 115 108 100 76 82 93
99 102 102 108 112 116 120 126 127 129 125 123 115 107 93 52
74 95 96 101 98 90 86 63 78 36 37 31 31 29 27 20
2 1 1 1 1 0 0 2 0 4 25 26 28 26 11 1
1 2 2 0 2 10 18 29 29 29 28 28 27 26 25 12
32 28 14 0 0 0 0 0 0 0 0 0 0 0 0 0
0 0 0 0 0 0 0 0 1 23 23 19 26 4 0 0
0 0 3 8 29 29 38 37 39 48 43 23 23 24 25 29
36 43 31 20 6 25 68 92 103 113 114 112 104 81 77 88
96 99 102 106 109 117 121 125 129 130 127 122 117 101 83 71
66 61 58 62 61 69 72 72 74 39 33 32 32 29 28 21
2 1 1 1 0 0 0 1 0 3 23 25 26 25 14 4
6 4 2 5 5 14 10 28 29 29 28 28 27 24 23 33
33 28 15 0 0 0 0 0 0 0 0 0 0 0 0 0
0 0 0 0 0 0 0 0 0 21 22 19 26 6 0 0
0 0 0 8 31 27 38 35 31 41 37 0 0 0 0 1
18 42 34 30 24 30 65 92 100 109 116 114 107 90 72 85
91 97 97 105 112 118 121 122 126 125 126 122 114 99 94 101
104 96 86 85 75 55 56 59 44 29 32 32 32 29 28 22
2 0 1 0 0 0 0 0 0 3 23 24 26 25 23 23
24 20 18 23 22 23 5 26 28 28 27 26 26 15 2 5
32 28 17 0 0 0 0 0 0 0 0 0 0 0 0 0
0 0 0 0 0 0 0 0 0 18 21 17 25 12 0 0
0 0 0 5 31 25 35 26 2 7 32 1 0 0 0 0
13 40 35 30 28 34 65 89 102 109 114 113 108 102 74 79
90 94 96 103 109 114 118 119 123 123 122 119 114 102 102 108
113 113 107 97 92 86 60 31 20 29 32 31 32 30 28 23
3 0 0 0 0 0 0 0 0 2 22 23 25 25 25 25
26 25 25 25 24 24 16 8 18 10 4 4 2 0 0 0
32 29 18 0 0 0 0 0 0 0 0 0 0 0 0 0
0 0 0 0 0 0 0 0 0 16 20 17 17 5 0 0
0 0 0 6 31 24 35 26 0 4 32 2 0 0 0 0
8 38 34 29 30 33 65 86 102 110 114 116 115 106 86 74
83 88 94 99 106 114 117 119 120 122 122 120 115 102 107 113
114 116 114 108 104 95 74 52 38 37 29 30 30 28 28 23
3 0 0 0 0 0 0 0 0 2 23 26 28 27 26 26
25 25 25 24 17 12 9 0 0 0 1 1 0 0 0 0
32 29 19 0 0 0 0 0 0 0 0 0 0 0 0 0
0 0 0 0 0 0 0 0 0 13 20 16 11 0 0 0
0 0 0 7 30 24 36 28 0 3 32 3 0 0 0 0
4 37 34 30 30 35 64 82 100 109 115 116 115 107 95 80
80 87 89 95 103 112 116 119 120 121 118 118 112 102 106 116
115 115 113 110 105 99 85 62 44 38 30 31 31 30 28 23
3 0 0 0 0 0 0 0 0 4 25 28 28 27 26 26
25 24 24 19 0 0 0 0 14 0 0 0 0 0 0 0
32 29 19 1 0 0 0 0 0 0 0 0 0 0 0 0
0 0 0 0 0 0 0 0 0 12 21 17 10 0 0 0
0 0 0 7 30 22 36 27 0 3 31 6 0 0 0 0
2 35 35 30 30 37 67 82 97 108 114 118 119 111 102 90
83 85 85 93 101 108 114 117 121 118 118 118 112 102 103 113
116 117 112 108 99 89 67 53 41 38 29 30 31 30 28 25
12 10 8 6 6 5 2 1 9 16 26 29 29 27 26 25
25 24 24 17 0 0 0 17 61 30 0 0 0 0 0 0
32 30 20 1 0 0 0 0 0 0 0 0 0 0 0 0
0 0 0 0 0 0 0 0 0 11 21 17 11 0 0 0
0 0 0 4 31 23 37 27 0 4 29 8 0 0 0 0
2 35 35 30 31 40 66 80 95 107 111 116 116 109 103 99
92 89 86 90 95 104 108 112 114 114 120 117 111 105 104 111
114 113 110 108 100 83 60 42 40 38 28 30 31 30 29 27
26 24 20 17 17 15 3 2 16 22 28 30 30 28 26 26
26 24 20 11 0 0 0 27 39 39 0 0 0 0 0 0
32 30 21 2 0 0 0 0 0 0 0 0 0 0 0 0
0 0 0 0 0 0 0 0 0 11 21 17 12 0 0 0
0 2 0 2 31 24 38 31 5 4 28 13 3 1 3 1
2 34 35 30 31 41 67 80 94 105 109 116 116 110 104 100
98 94 91 86 88 99 102 110 113 112 119 117 112 109 104 102
113 111 109 106 98 82 62 38 38 32 28 30 31 30 29 28
27 26 22 20 20 18 5 2 19 24 28 30 30 28 26 26
26 23 1 0 0 0 0 0 0 0 0 0 0 0 1 1
33 31 21 3 0 0 0 0 0 0 0 0 0 0 0 0
0 0 0 0 0 0 0 0 0 10 22 17 13 0 2 0
0 6 8 2 32 25 39 32 16 5 28 11 6 9 7 0
1 32 36 30 31 44 70 78 95 105 112 113 116 111 104 99
101 99 95 86 84 92 97 104 111 113 115 117 116 114 113 106
110 108 105 103 93 74 54 37 36 27 28 30 31 30 29 28
28 27 24 22 22 21 7 3 22 25 28 29 29 29 27 27
27 25 2 1 0 0 0 0 0 0 0 0 0 0 1 1
33 31 21 3 0 0 0 0 0 0 0 0 0 0 0 0
0 0 0 0 0 0 0 0 0 9 21 18 14 0 2 1
1 8 14 7 32 27 39 29 22 11 26 9 6 11 7 0
1 28 33 30 31 48 71 77 93 104 108 115 114 110 105 101
100 101 98 94 84 84 88 97 105 108 113 116 119 116 114 110
104 107 105 99 89 67 50 36 31 25 27 29 30 30 30 28
28 28 25 24 24 23 8 2 22 24 27 28 28 27 26 26
26 24 2 0 0 0 0 0 0 0 0 0 0 0 0 0
32 31 22 4 0 0 0 0 0 0 0 0 0 0 0 0
0 0 0 0 0 0 0 0 0 9 21 18 16 19 25 27
29 31 34 36 43 33 40 25 16 19 24 23 19 21 19 19
19 25 27 30 31 51 71 77 92 103 108 114 116 110 107 102
99 100 101 96 85 80 78 84 98 100 106 113 117 118 118 115
105 98 104 94 84 69 49 33 23 23 27 28 30 29 28 28
26 27 25 24 24 24 10 2 23 24 27 26 27 26 25 25
25 25 17 1 0 0 0 0 0 0 0 0 0 0 0 0
32 30 22 4 0 0 0 0 0 0 0 0 0 0 0 0
0 0 0 0 0 0 0 0 0 7 21 17 17 31 36 38
38 40 41 43 46 42 38 24 3 16 23 26 23 23 23 23
22 23 27 30 30 53 71 77 93 103 108 112 112 109 104 101
101 102 102 101 94 84 76 77 89 95 99 105 112 119 117 114
107 98 101 94 77 63 47 30 24 21 25 28 29 29 28 27
27 27 25 25 26 25 13 1 22 24 25 25 25 25 26 26
24 24 14 0 0 0 0 0 0 0 0 0 0 0 0 0
31 30 21 4 0 0 0 0 0 0 0 0 0 0 0 0
0 0 0 0 0 0 0 0 0 7 21 17 17 32 36 37
36 37 36 36 37 36 35 23 0 5 21 28 26 27 28 27
28 28 28 30 34 61 73 75 90 103 107 112 115 113 106 100
100 100 103 98 101 91 85 79 76 86 93 100 109 112 115 111
109 99 99 92 76 61 45 32 28 20 25 26 28 28 28 26
27 27 26 26 27 26 14 1 22 26 25 25 25 25 25 25
24 23 7 0 0 0 0 0 0 0 0 0 0 0 0 0
31 29 21 4 0 0 0 0 0 0 0 0 0 0 0 0
0 0 0 0 0 0 0 0 0 6 20 16 14 11 9 8
8 8 9 9 10 11 30 24 0 3 19 30 28 29 29 29
29 29 29 32 46 61 73 75 86 100 105 109 114 110 108 104
100 100 102 99 99 97 92 91 84 75 80 89 101 102 108 111
108 103 101 89 76 59 47 34 30 19 24 26 27 24 20 22
21 24 27 27 27 26 17 0 20 25 25 25 24 24 24 24
23 24 8 0 0 0 0 0 0 0 0 0 0 0 0 0
31 29 21 4 0 0 0 0 0 0 0 0 0 0 0 0
0 0 0 0 0 0 0 0 0 6 20 16 13 3 0 1
2 4 5 6 8 9 29 25 0 1 17 29 27 29 29 29
30 29 29 57 51 56 77 75 84 97 107 110 114 112 108 106
104 100 102 98 95 98 91 91 88 81 76 80 87 97 103 101
100 100 90 80 71 61 49 33 32 22 28 32 27 17 16 13
10 14 23 26 25 25 16 0 17 25 25 25 24 24 24 24
24 20 0 0 0 0 0 0 0 0 0 0 0 0 0 0
30 28 21 5 0 0 0 0 0 0 0 0 0 0 0 0
0 0 0 0 0 0 0 0 0 6 19 15 12 6 4 4
4 6 6 8 8 10 30 28 12 17 28 30 26 28 29 29
28 29 39 78 43 68 79 75 81 97 104 111 116 112 108 110
108 101 104 101 96 95 88 83 84 85 78 73 73 76 81 88
92 91 86 74 67 61 43 39 38 36 34 30 28 16 14 11
7 12 20 24 25 24 18 0 15 24 24 24 24 23 24 25
24 15 0 0 0 0 0 0 0 0 0 0 0 0 0 0
30 29 22 5 0 0 0 0 0 0 0 0 0 0 0 0
0 0 0 0 0 0 0 0 0 6 21 16 14 10 9 9
9 9 9 10 10 11 32 33 34 44 44 30 25 28 28 28
28 29 60 70 48 73 84 79 80 95 105 112 116 116 115 111
110 107 108 108 105 102 94 89 81 81 76 69 65 65 62 67
80 80 78 75 66 52 39 45 42 42 29 21 17 14 11 14
5 11 17 24 22 23 17 0 11 23 24 24 25 23 23 23
22 5 0 0 0 0 0 0 0 0 0 0 0 0 0 0
29 28 21 5 0 0 0 0 0 0 0 0 0 0 0 0
0 0 0 0 1 1 2 3 4 12 21 16 13 10 9 10
10 11 12 14 11 11 25 24 25 30 30 25 26 28 29 27
28 33 77 64 53 81 89 81 80 94 102 109 112 112 114 110
110 110 115 114 109 106 104 96 90 82 76 73 69 66 65 61
66 68 71 68 52 38 31 40 32 22 17 13 10 10 10 15
5 9 14 22 22 21 18 0 9 22 22 23 24 23 23 23
19 0 0 0 0 0 0 0 0 0 0 0 0 0 0 0
29 27 22 8 1 2 3 4 5 5 6 7 9 9 9 11
11 12 12 13 14 13 14 13 13 13 13 13 13 11 10 9
10 10 12 12 11 13 19 21 18 20 24 24 26 28 28 28
29 43 71 51 50 86 91 84 78 93 102 108 110 107 111 111
110 111 114 115 113 114 109 106 100 92 84 76 74 67 63 58
47 49 53 46 35 23 17 16 14 14 12 9 10 8 12 10
3 7 11 20 21 20 17 1 8 22 22 22 23 23 23 23
17 0 0 0 0 0 0 0 0 0 1 0 0 0 0 0
29 28 27 25 22 22 22 20 20 19 18 17 16 16 15 14
14 14 14 14 13 14 13 13 13 13 13 13 12 11 10 10
11 11 12 13 12 15 20 23 22 21 23 24 25 26 28 28
28 54 75 46 40 89 96 88 79 92 102 109 110 113 114 107
109 111 114 113 115 117 117 114 108 98 90 78 71 61 51 44
35 26 20 18 37 18 13 13 13 14 10 11 10 12 13 13
6 7 7 16 20 20 18 2 6 22 22 22 23 23 23 21
4 0 0 0 0 0 0 0 0 0 0 0 0 0 0 0
29 28 27 26 25 18 22 22 22 20 18 17 17 16 15 15
14 14 14 14 14 14 14 13 13 13 13 13 13 12 11 11
11 11 12 12 12 15 20 22 23 22 24 25 26 27 28 28
29 65 83 44 33 91 98 91 78 89 100 109 112 111 111 107
107 109 112 116 118 117 118 115 110 100 87 67 47 33 25 14
9 6 10 11 34 34 27 22 17 14 14 14 13 13 11 13
8 7 5 13 20 20 18 2 6 22 22 22 22 22 21 20
2 0 0 0 0 0 0 0 0 0 0 0 0 0 0 0
28 28 28 27 25 17 22 21 20 19 18 17 16 15 16 15
14 14 14 13 13 12 11 11 9 9 9 8 9 11 12 12
12 12 13 14 14 15 20 23 23 22 23 24 25 26 27 28
45 75 87 40 30 96 99 93 81 89 99 106 112 110 109 109
108 106 110 112 120 118 117 114 107 97 71 45 36 28 20 19
20 19 18 11 38 36 37 34 32 30 27 25 21 18 14 12
9 5 4 10 19 19 18 13 15 22 23 23 23 22 21 18
1 0 0 0 0 0 0 0 0 0 0 0 0 0 0 0
27 27 26 26 25 22 22 20 19 17 15 14 13 11 10 7
6 4 3 1 1 0 1 5 6 9 11 10 10 11 11 11
12 13 14 14 14 16 20 22 23 23 23 24 26 28 38 56
64 77 96 57 25 92 102 95 82 87 100 106 111 110 112 109
107 106 108 112 117 119 116 110 102 82 53 42 42 45 49 48
45 27 21 28 61 36 34 35 33 33 34 34 35 34 36 34
31 25 20 21 26 20 18 18 19 21 23 22 22 21 23 15
0 0 0 0 0 0 0 0 0 0 0 0 0 0 0 0
11 11 9 8 6 5 4 2 1 1 1 1 1 0 1 1
1 1 1 1 0 0 0 5 7 8 10 10 10 11 11 11
11 12 13 14 14 16 20 22 23 23 23 26 40 61 65 63
62 77 99 63 35 83 104 96 85 87 100 108 112 114 116 113
109 107 107 110 114 116 114 109 94 63 45 43 49 60 65 65
52 32 50 46 67 42 34 32 35 37 39 35 38 40 42 42
38 34 30 26 21 17 16 19 21 18 17 20 21 20 26 11
0 0 0 0 0 0 0 0 0 0 0 0 0 0 0 0
0 0 0 0 0 0 0 0 0 1 13 16 18 19 19 21
20 20 20 18 1 0 0 4 7 7 9 9 10 10 11 12
12 13 13 14 15 17 21 22 23 31 54 71 79 79 70 58
62 74 85 70 50 66 104 98 88 86 100 108 114 115 118 113
111 109 110 108 110 113 112 103 78 49 46 52 64 76 79 68
59 46 62 48 66 36 35 39 38 40 49 49 53 57 61 58
62 47 38 29 25 22 15 17 20 19 17 19 20 18 14 0
0 0 0 0 0 0 0 0 0 0 0 0 0 0 0 0
0 0 0 0 0 1 4 7 8 11 34 36 35 34 32 29
26 25 29 29 8 1 2 4 6 7 8 9 10 11 11 12
13 14 15 16 18 20 23 33 56 71 74 78 80 79 65 59
58 77 90 72 62 50 99 100 91 87 100 110 116 117 119 118
112 111 108 108 109 112 109 94 59 51 55 69 84 89 82 76
66 47 61 59 65 35 38 39 36 49 63 68 70 64 64 67
70 65 60 55 43 37 34 31 24 16 9 7 4 2 3 0
0 0 0 0 0 0 0 0 0 0 0 0 0 0 0 0
0 0 0 0 0 0 2 5 7 8 32 32 31 32 30 28
27 28 37 37 23 8 7 4 5 8 10 13 15 17 16 16
17 18 19 20 22 25 49 80 78 82 79 73 76 80 69 62
67 72 89 79 60 41 88 100 95 86 98 111 115 117 120 118
117 113 106 107 107 105 98 73 52 57 69 86 92 93 87 76
68 41 56 66 56 28 40 37 42 49 71 72 74 72 67 73
66 65 69 63 61 57 43 16 1 0 0 0 0 0 0 0
0 0 0 0 0 0 0 0 0 0 0 0 0 0 0 0
3 3 2 3 3 6 17 24 24 21 28 40 41 40 38 37
35 33 32 30 21 12 12 13 13 12 12 11 10 21 16 16
19 20 22 29 39 62 78 78 84 83 80 72 75 81 67 56
67 73 86 90 66 41 74 102 99 89 99 111 116 119 117 116
115 114 112 106 102 95 77 55 58 69 90 99 104 97 86 79
61 37 66 69 45 19 44 40 42 53 68 76 72 69 72 70
75 71 61 67 63 67 62 52 41 18 1 0 0 0 0 0
0 0 0 0 0 0 0 0 0 0 0 0 0 0 0 0
1 0 1 2 4 8 17 22 21 20 21 31 29 26 24 22
20 19 17 17 12 5 4 3 3 3 3 3 4 20 18 22
33 47 62 73 80 80 87 78 80 87 86 72 79 83 64 56
66 77 87 97 89 52 51 99 102 89 97 111 115 119 120 118
117 115 110 108 99 85 68 68 77 94 104 106 102 95 90 78
46 57 77 61 37 20 42 40 44 50 66 74 78 79 74 66
69 70 68 68 68 71 71 72 69 59 47 27 8 0 0 0
0 0 0 0 0 0 0 0 0 0 0 0 0 0 0 0
12 15 20 22 23 24 25 24 23 22 21 19 18 18 17 18
17 16 16 16 11 2 2 2 3 3 3 4 12 42 57 69
73 81 78 76 80 85 78 88 83 89 82 72 80 83 76 55
66 76 87 95 94 71 50 74 106 93 95 111 116 117 119 118
116 113 110 106 98 86 80 84 93 101 108 109 104 98 90 60
59 71 73 50 34 21 44 36 40 50 66 74 71 76 76 72
78 75 86 82 75 74 68 68 73 67 70 57 61 32 7 0
0 0 0 0 0 0 0 0 0 0 0 0 0 0 0 0
11 13 20 26 26 25 23 21 18 15 10 8 6 4 6 18
17 17 17 17 12 3 2 3 3 6 26 54 72 74 73 74
84 70 79 76 82 89 86 79 87 83 77 74 79 74 66 48
66 78 88 85 45 41 66 57 83 94 95 110 117 119 120 119
115 112 109 103 93 90 91 96 101 109 115 112 104 98 74 52
41 58 64 44 32 22 42 38 43 50 78 83 76 76 85 84
76 75 74 72 70 76 75 72 71 72 64 62 68 62 58 20
0 0 0 0 0 0 0 0 0 0 0 0 0 0 0 0
7 12 20 26 25 15 2 0 0 0 0 0 0 0 2 18
18 17 17 17 12 2 2 5 27 64 74 76 69 89 78 79
87 76 80 85 89 85 84 81 83 85 81 76 76 80 67 50
63 69 80 15 5 29 68 59 56 82 93 107 116 121 122 120
114 113 112 106 103 101 100 104 113 115 114 112 106 87 53 61
16 18 59 41 32 27 41 37 46 60 77 73 82 81 82 70
78 81 72 67 72 67 73 77 74 73 66 69 57 59 63 60
37 19 13 0 0 0 0 0 0 0 0 0 0 0 0 0
8 11 20 27 25 13 0 0 0 1 2 3 5 7 11 17
17 17 16 16 12 2 13 61 75 78 72 80 79 75 80 90
86 79 76 74 79 91 96 95 86 83 84 74 78 79 71 53
63 76 29 2 3 36 57 73 57 61 92 107 116 122 122 120
118 117 113 111 109 107 108 112 117 120 117 115 106 72 58 60
9 15 63 36 26 36 43 48 46 64 78 72 78 71 76 69
78 72 76 66 73 70 72 76 67 69 71 65 66 66 63 56
54 48 17 0 0 0 0 0 0 0 0 0 0 0 0 0
8 11 19 27 26 23 16 17 18 18 19 19 19 18 19 19
21 21 22 23 24 40 70 75 77 75 78 79 78 80 92 80
88 77 74 74 81 82 80 86 88 82 82 76 79 79 72 59
56 68 20 18 1 25 56 87 72 50 72 105 118 122 123 119
119 120 118 116 114 113 113 119 122 122 119 116 102 62 62 74
7 29 58 33 22 36 45 38 51 60 84 74 78 73 75 79
75 73 72 83 76 82 76 76 79 73 65 75 61 67 65 67
59 57 34 1 0 0 0 0 0 0 0 0 0 0 0 0
9 11 19 26 26 26 26 26 25 26 26 26 26 26 28 26
24 23 22 23 44 68 66 71 77 79 78 75 80 78 78 76
84 85 82 75 76 89 85 77 79 89 78 78 78 77 76 59
56 66 29 20 11 18 56 71 85 53 46 100 119 127 126 122
119 119 118 118 117 116 118 122 124 121 120 116 94 61 71 77
6 50 52 37 28 42 49 49 55 65 72 85 76 83 78 84
71 80 81 69 78 77 79 81 69 80 76 70 71 69 69 68
62 52 48 25 0 0 0 0 0 0 0 0 0 0 0 0
9 19 26 30 29 30 29 30 31 26 24 23 22 20 23 25
21 22 25 49 70 68 72 74 81 77 77 79 85 81 78 86
86 85 79 85 78 81 82 83 78 69 85 81 83 74 78 59
55 66 31 17 35 30 55 70 80 70 38 82 117 125 124 121
119 118 120 118 120 121 124 124 125 122 120 115 88 67 76 78
17 59 41 37 33 46 50 57 61 71 76 80 81 84 77 82
75 79 78 75 78 70 72 69 79 72 78 72 71 74 71 70
63 56 51 55 15 0 0 0 0 0 0 0 0 0 0 0
23 34 28 25 25 24 24 24 29 26 25 27 27 28 28 29
29 29 42 67 66 72 73 74 81 84 77 90 81 80 85 78
87 83 84 83 77 85 79 81 81 82 80 79 77 81 78 73
58 66 38 25 47 50 58 69 69 85 57 57 116 126 124 122
117 119 120 122 123 127 128 127 125 123 120 107 76 72 83 57
33 40 41 32 40 53 64 52 69 74 78 75 82 83 73 71
73 71 75 80 75 81 88 72 79 79 71 76 68 71 80 67
66 57 48 52 37 3 0 0 0 0 0 0 0 0 0 0
17 32 30 29 30 31 32 32 33 33 33 33 32 31 31 31
31 45 70 67 76 70 73 76 83 81 87 88 85 85 86 86
88 90 80 92 78 79 82 83 83 81 83 82 83 82 80 67
58 57 69 37 42 73 46 58 67 60 70 41 98 124 125 122
118 118 121 125 131 131 131 129 128 122 117 88 75 76 73 27
42 42 34 41 58 72 67 56 69 71 81 72 79 75 78 71
79 88 80 77 80 76 80 86 80 89 82 67 78 79 72 71
78 61 56 59 50 44 4 0 0 0 0 0 0 0 0 0
8 20 32 34 34 35 37 37 35 36 35 36 34 34 34 33
35 68 74 74 77 72 76 71 83 86 78 83 82 85 81 80
75 80 79 83 78 79 78 77 82 78 87 82 84 85 81 86
67 64 65 51 33 73 65 71 63 68 67 39 73 124 128 124
118 117 125 128 132 131 130 129 125 121 103 80 80 78 24 41
41 38 37 47 69 79 68 54 65 77 71 82 79 78 77 75
79 73 75 70 78 88 86 83 79 71 80 72 69 80 76 72
61 69 56 59 57 64 40 0 0 0 0 0 0 0 0 0
13 20 27 32 32 34 39 40 36 39 37 37 34 35 34 34
54 68 83 82 79 79 79 70 80 86 88 89 88 84 75 78
89 92 82 86 89 86 81 87 86 79 83 80 85 80 88 75
79 58 56 69 54 68 76 68 67 65 71 55 82 127 132 126
118 119 129 132 133 132 131 128 121 100 84 78 72 51 25 44
39 38 55 75 71 74 66 60 70 72 79 80 83 79 77 70
87 72 71 83 82 75 75 65 86 82 79 73 79 75 70 66
60 70 56 71 56 59 59 12 0 0 0 0 0 0 0 0
29 34 35 35 32 29 34 35 36 38 37 36 34 31 27 44
75 73 82 83 83 74 74 74 85 91 83 79 79 81 93 89
87 80 83 85 81 83 91 91 86 73 81 82 81 84 86 84
86 76 71 66 68 60 86 63 76 58 66 67 86 111 131 127
117 118 129 132 132 132 130 126 92 83 82 74 39 28 43 40
41 53 77 77 77 80 65 62 67 77 76 78 75 78 80 71
84 71 83 80 75 83 80 80 84 86 77 68 86 76 81 73
60 65 71 68 66 56 67 48 1 0 0 0 0 0 0 0
27 35 37 39 39 24 27 31 27 22 17 11 7 3 13 65
75 83 81 90 76 76 77 70 79 79 86 91 96 92 77 80
86 92 90 84 94 94 81 84 83 73 81 81 83 89 84 84
86 84 83 60 60 67 88 78 70 63 64 67 81 89 111 127
117 118 131 133 133 133 128 98 84 77 56 33 39 25 60 38
60 72 81 70 78 84 67 59 66 75 77 85 89 73 78 73
80 74 90 80 84 79 74 82 88 83 83 71 80 83 75 82
50 65 67 70 62 55 61 70 18 0 0 0 0 0 0 0
35 35 33 28 15 5 2 3 1 0 0 0 0 3 51 72
81 81 89 82 83 70 83 73 75 83 83 81 81 87 78 90
77 78 82 81 81 84 76 76 82 81 83 84 91 89 86 89
87 83 93 84 67 66 79 88 71 81 65 63 79 87 89 116
117 121 131 132 133 129 105 87 78 51 41 40 53 56 60 58
79 88 68 74 83 77 71 59 72 75 75 74 78 75 78 74
82 75 89 80 82 82 74 76 82 80 89 72 80 79 76 65
48 65 74 70 67 53 63 72 42 0 0 0 0 0 0 0
10 10 6 3 2 1 0 0 0 0 0 0 0 29 64 76
74 72 77 85 79 69 80 79 78 86 86 86 87 77 87 88
83 89 84 85 87 84 77 79 83 83 84 88 88 86 83 85
89 84 91 90 84 68 80 79 83 73 77 74 58 75 87 86
114 123 131 133 132 112 87 80 64 48 41 55 77 60 59 69
95 76 75 79 81 80 75 62 69 69 78 69 89 78 72 80
84 72 81 81 84 84 84 86 78 78 84 71 84 82 78 77
46 68 73 74 66 50 58 58 59 9 0 0 0 0 0 0
0 0 0 0 0 0 0 0 0 0 0 0 4 68 64 82
73 76 86 82 82 76 82 80 73 80 88 87 88 89 86 91
84 93 83 85 88 87 86 83 87 84 86 83 86 88 80 85
90 88 76 92 77 79 71 87 81 92 81 81 73 62 76 81
89 123 132 133 118 85 84 66 47 48 53 70 74 60 70 76
72 77 67 76 83 81 72 76 76 76 74 71 82 78 68 82
82 78 79 80 85 73 83 89 80 81 84 72 79 76 73 70
48 74 79 77 73 53 59 52 66 27 0 0 0 0 0 0
0 0 0 0 0 0 0 0 0 0 0 0 40 69 63 78
71 66 87 83 82 66 84 78 78 83 88 89 86 88 82 87
87 85 85 85 91 88 90 88 91 84 78 85 86 82 89 87
84 87 77 101 89 94 69 86 77 77 86 82 79 74 68 74
83 105 131 124 86 76 62 51 48 53 72 91 77 77 85 86
90 68 67 82 87 78 65 71 79 75 77 82 76 74 73 78
76 87 74 83 81 75 80 85 80 74 79 79 80 70 74 60
55 79 82 82 71 57 58 58 69 38 7 0 0 0 0 0
0 0 0 0 0 0 0 0 0 0 0 7 75 65 61 80
65 69 86 84 78 70 78 79 76 75 86 86 91 87 86 86
87 85 84 88 87 88 88 82 85 81 86 90 82 90 86 80
84 92 91 100 76 89 70 89 95 85 79 85 80 70 81 77
66 79 107 92 70 50 52 59 60 74 83 82 83 75 80 83
83 78 73 79 79 76 77 70 72 76 74 79 72 72 75 76
67 79 73 75 84 83 92 87 77 89 80 72 80 80 79 58
58 79 84 84 77 56 57 53 64 41 27 0 0 0 0 0
0 0 0 0 0 0 0 0 0 0 0 40 76 68 64 78
60 68 90 81 79 76 89 79 76 82 86 87 81 77 76 87
84 85 86 79 83 77 86 91 92 81 84 87 93 84 81 86
91 85 85 91 80 97 83 88 84 90 92 92 88 76 76 84
73 60 80 77 51 41 53 77 74 84 83 79 79 82 90 73
75 74 81 85 87 86 71 71 83 72 72 70 70 73 72 69
70 84 88 83 84 73 81 75 83 89 74 81 82 79 73 52
72 77 82 81 71 48 59 50 66 45 45 8 0 0 0 0
0 0 0 0 0 0 0 0 0 0 6 75 75 70 61 79
54 74 85 86 78 69 80 85 76 78 88 87 90 94 84 80
83 80 82 86 82 84 91 84 82 88 82 89 82 86 93 91
94 81 85 87 83 91 82 84 84 84 83 83 80 88 81 77
87 61 47 46 55 65 78 74 79 80 84 85 78 85 88 78
70 72 83 88 85 83 86 84 75 78 71 79 84 75 79 74
65 82 90 77 74 75 87 83 74 88 66 79 70 71 75 53
75 80 79 81 68 51 51 45 64 44 50 33 0 0 0 0
0 0 0 0 0 0 0 0 0 0 29 79 76 71 57 74
50 72 80 83 79 80 85 77 86 85 86 83 83 78 81 91
95 89 91 78 84 78 82 88 89 76 82 78 91 86 86 82
85 78 91 88 86 92 87 86 93 90 85 87 88 92 80 80
69 55 53 65 74 78 80 83 83 77 84 80 79 73 77 76
80 73 78 81 76 73 80 77 79 89 80 73 79 80 68 71
69 74 70 78 82 84 80 76 78 89 69 75 72 76 69 54
80 75 79 69 69 57 46 57 71 43 55 50 3 0 0 0
