P2
128 120
124
31 26 26 26 26 24 24 25 26 26 26 25 24 24 25 24
25 24 24 23 24 23 24 23 23 22 22 22 22 21 21 21
20 20 20 19 19 19 18 18 17 17 17 17 16 15 16 15
14 14 13 13 13 13 13 12 12 12 11 10 11 10 9 9
9 9 8 9 11 12 11 11 7 1 2 11 10 10 10 9
9 9 8 8 8 6 8 8 10 10 10 10 10 10 11 12
12 12 13 13 13 13 14 14 14 15 15 15 15 14 15 16
17 18 19 19 22 28 37 44 49 54 62 73 80 84 86 84
40 43 41 40 37 34 34 36 38 40 41 35 24 24 24 24
24 23 23 23 23 23 23 23 23 22 22 21 22 21 20 21
20 20 19 19 19 18 18 17 17 17 17 16 16 16 15 15
15 14 14 13 13 12 12 12 12 11 11 11 10 10 10 9
9 8 9 9 12 12 12 11 7 4 4 11 10 10 10 10
9 9 8 8 8 6 8 8 10 9 10 10 11 11 12 12
12 12 13 13 13 13 14 14 15 14 14 15 16 16 17 17
18 19 22 28 38 49 58 69 79 85 88 89 92 96 98 101
35 38 29 21 22 24 25 25 25 26 38 40 33 29 26 24
23 23 23 23 23 23 23 22 22 22 21 22 21 21 21 20
20 20 20 19 19 18 18 18 18 17 17 17 16 16 15 15
15 14 14 13 13 13 13 12 12 12 12 11 11 11 11 10
9 9 9 9 11 11 12 11 7 5 4 10 11 11 11 10
10 10 9 9 8 7 8 8 10 10 11 11 12 12 12 12
12 13 13 13 13 14 14 14 15 16 17 16 17 17 17 21
34 54 70 79 82 84 87 89 91 94 97 99 100 100 99 98
30 31 11 0 0 0 0 0 0 0 26 38 36 37 35 29
25 26 25 26 24 23 23 22 22 22 22 21 21 21 21 20
20 19 19 19 19 18 18 18 17 17 18 17 17 16 16 15
15 14 14 14 13 13 13 13 12 12 11 12 10 10 10 9
9 9 8 9 11 11 11 11 7 5 5 9 11 11 10 10
10 10 9 8 9 7 8 9 10 10 11 12 12 12 12 12
12 12 13 13 14 14 14 15 15 15 16 17 17 17 23 44
70 86 90 91 91 91 94 96 98 98 97 96 97 98 98 97
28 30 11 0 0 0 1 0 0 0 21 34 32 28 16 20
24 28 34 35 35 32 28 22 22 22 21 21 21 21 21 21
20 20 20 19 19 20 19 18 18 17 18 16 17 16 16 16
15 15 14 14 14 13 14 13 13 13 12 12 11 11 10 10
9 9 8 9 12 11 11 10 7 5 5 7 10 10 10 10
10 10 10 9 9 9 9 9 12 11 11 11 12 12 13 13
13 13 14 14 15 15 15 15 16 16 16 17 19 30 56 80
88 92 94 95 97 97 96 95 94 95 95 96 97 99 99 98
27 29 13 0 0 0 0 0 0 0 16 34 31 22 0 0
1 5 11 15 21 32 30 22 22 21 21 22 22 21 21 20
21 20 19 20 19 19 18 18 18 18 18 17 17 16 17 16
15 15 15 14 14 14 13 13 13 13 13 12 12 11 11 10
9 9 9 9 11 11 11 11 8 5 6 6 10 10 9 9
9 9 8 9 9 8 8 8 11 11 12 12 13 14 13 14
14 14 14 15 15 15 15 15 16 17 17 19 29 54 78 87
90 92 95 96 96 95 94 92 92 94 96 98 100 101 101 101
26 29 14 0 0 0 0 0 0 0 13 34 32 21 0 0
0 0 0 0 1 29 31 22 22 21 21 21 21 21 20 21
20 20 20 20 20 19 19 18 18 17 17 17 16 16 16 16
16 15 15 15 15 15 14 14 14 13 12 12 12 11 11 10
9 9 8 8 11 11 10 11 8 5 7 5 10 9 9 8
8 9 9 8 9 9 8 9 11 12 12 12 13 13 13 13
14 14 14 14 16 15 16 16 17 17 18 25 47 72 84 90
91 93 94 95 96 95 93 93 93 95 97 100 100 102 102 102
23 29 19 0 2 1 0 0 0 0 10 33 30 20 0 0
0 0 0 0 0 28 30 22 21 21 21 21 21 21 21 20
20 20 20 20 19 18 19 18 18 18 17 17 17 17 17 16
16 16 16 15 15 14 14 14 14 13 13 13 12 12 11 10
9 9 8 8 11 11 11 10 7 5 7 5 10 9 9 9
8 9 9 9 9 9 7 10 12 12 12 13 13 14 14 14
15 14 15 15 15 15 15 17 16 17 24 46 72 84 88 91
93 94 95 95 94 94 93 94 96 99 101 102 104 104 105 105
24 32 25 0 6 1 0 0 0 0 7 33 30 22 0 0
0 1 0 0 0 27 30 22 22 22 22 21 21 21 20 20
20 20 20 20 19 19 19 18 18 18 18 17 17 16 16 16
16 16 16 16 15 15 15 15 14 14 13 12 12 11 11 10
9 9 8 8 11 11 11 10 8 5 8 5 9 9 9 8
8 8 9 8 8 9 8 10 11 12 13 13 14 14 14 14
14 15 15 15 16 16 16 16 18 25 46 72 85 90 92 94
95 95 95 95 94 93 94 97 99 102 103 103 105 105 104 104
23 31 29 1 2 0 0 0 0 0 5 33 32 22 0 0
0 0 0 0 0 26 30 21 21 21 22 21 21 21 21 21
20 20 20 19 19 19 18 18 18 17 18 17 17 17 17 17
16 16 16 16 15 14 14 14 14 13 13 12 12 11 11 10
9 9 8 8 11 11 11 11 8 5 8 5 9 10 9 9
8 8 8 8 9 9 7 9 11 12 13 13 13 14 14 15
16 15 15 16 16 16 17 17 23 43 71 85 89 92 96 98
98 96 96 94 94 94 96 97 100 102 105 106 106 106 106 106
22 29 32 3 0 0 0 0 0 0 3 30 30 23 0 0
0 0 0 0 0 26 30 22 22 22 21 21 21 20 20 21
20 20 20 20 20 19 19 19 18 18 18 17 18 17 17 17
17 16 16 16 16 15 15 15 15 14 14 13 12 11 11 9
9 8 8 8 11 11 11 11 8 6 9 5 10 10 10 10
9 8 8 8 9 9 7 9 12 12 13 14 14 14 15 15
15 15 16 17 17 17 18 21 40 69 87 91 94 96 97 98
97 96 96 95 94 95 97 100 101 103 105 105 106 106 107 107
21 22 28 4 0 0 0 0 0 0 1 28 30 24 0 0
0 0 0 0 0 25 29 22 22 21 21 21 21 21 20 20
20 20 20 20 20 19 19 19 18 19 18 18 18 18 18 17
17 17 17 16 16 15 16 15 15 15 15 14 13 12 11 10
9 8 8 8 10 11 11 10 8 6 8 6 9 11 10 10
10 9 8 9 9 9 7 10 11 12 13 13 14 15 15 16
16 16 16 17 17 18 19 33 62 85 90 92 96 98 100 99
99 98 97 92 83 79 83 94 101 105 106 106 106 107 107 108
23 19 23 12 10 11 13 13 13 13 14 22 29 26 0 0
0 0 0 0 0 25 29 22 22 21 21 21 21 21 20 20
20 20 20 19 19 19 20 19 19 18 18 18 18 18 17 17
17 16 17 17 16 16 16 16 16 15 15 14 13 12 11 10
9 8 8 8 10 11 11 11 9 6 9 8 8 10 10 10
10 8 8 8 8 8 6 10 11 12 13 14 15 16 16 16
16 17 16 16 17 18 27 55 83 88 84 79 78 80 82 79
76 72 66 51 48 59 79 95 102 105 106 105 106 107 107 108
17 17 18 17 16 16 17 15 16 15 15 14 23 26 3 0
0 0 0 0 1 25 28 21 21 21 21 21 21 21 21 21
21 20 20 20 20 20 20 19 19 19 19 18 19 18 18 18
17 17 17 17 17 17 16 16 16 15 14 14 13 13 12 10
10 10 9 8 11 12 12 12 9 6 10 9 8 11 11 11
11 10 9 9 9 9 6 10 11 12 13 14 14 15 15 16
16 16 17 18 19 23 48 80 92 83 63 44 32 34 43 49
55 52 48 48 59 78 95 104 106 108 109 109 108 108 109 109
5 6 7 8 8 9 10 12 16 18 19 18 18 21 20 18
15 11 9 6 9 26 28 22 22 22 21 21 21 21 21 20
19 20 20 20 20 20 19 19 19 19 19 19 19 18 18 18
18 17 17 17 17 16 16 16 16 15 15 15 13 12 11 11
11 9 9 10 12 13 13 12 9 6 9 10 8 12 11 11
10 9 8 9 9 8 6 9 10 12 13 13 14 15 15 16
17 17 18 18 24 48 78 92 92 82 65 49 42 42 41 48
52 60 69 81 91 100 104 106 108 108 109 109 109 108 108 109
5 5 5 5 5 5 5 6 8 10 13 14 11 11 13 15
17 19 22 23 24 26 26 22 23 23 22 22 22 21 22 21
21 21 21 21 21 20 20 20 20 20 19 19 19 19 18 19
18 19 18 18 18 17 18 18 17 17 17 16 15 14 13 11
12 12 13 16 16 16 16 14 12 8 11 12 8 13 12 11
12 10 9 9 10 9 7 10 11 13 14 15 16 16 17 17
17 18 19 25 50 78 91 94 93 90 91 89 89 88 89 90
91 91 85 80 74 71 69 78 93 104 108 109 110 111 112 112
8 5 6 5 4 4 4 5 5 5 5 5 5 5 6 7
10 11 14 17 19 20 23 23 22 22 22 22 22 22 21 21
20 21 20 20 20 20 19 20 20 19 19 20 19 19 19 18
19 18 18 18 18 18 17 18 19 19 18 17 15 14 14 12
13 12 16 12 12 13 14 15 14 11 12 13 7 12 13 12
11 10 10 10 9 9 6 10 11 13 14 14 15 16 17 18
18 18 23 46 75 87 92 87 80 79 80 84 79 72 68 68
61 53 47 45 44 49 61 81 98 106 109 109 110 111 112 112
21 19 13 13 6 5 5 6 7 7 7 6 5 4 5 4
5 4 5 6 8 10 14 17 19 21 22 22 22 22 21 21
21 21 21 20 20 20 21 20 20 20 19 19 19 19 19 19
18 18 18 18 18 19 19 21 23 23 23 20 17 14 14 13
14 14 13 11 12 15 14 13 14 14 16 14 8 12 13 12
12 11 10 10 11 10 7 10 11 13 14 14 15 16 17 18
18 20 38 69 86 92 87 67 49 46 49 56 58 58 54 55
53 49 42 38 42 55 75 94 103 108 109 110 110 111 111 111
10 18 17 28 29 26 22 19 20 20 19 22 23 13 4 4
4 4 5 4 4 5 4 5 6 6 10 12 15 17 18 20
21 20 20 20 20 20 20 20 20 19 20 19 20 19 19 20
19 19 19 22 29 31 22 19 18 22 24 20 19 17 14 14
17 14 11 13 16 16 16 15 12 7 12 19 9 12 12 12
12 11 10 10 10 10 8 10 11 13 13 14 15 16 17 17
18 28 60 82 89 93 82 61 44 37 45 62 75 78 74 75
77 80 81 87 92 99 103 107 107 108 109 110 111 112 112 112
5 6 7 23 7 4 5 8 17 17 19 28 37 29 18 14
11 12 11 9 7 6 5 4 5 4 5 5 3 2 5 17
21 20 20 20 20 20 20 19 19 19 19 18 19 19 18 18
18 18 19 23 23 23 19 15 15 13 13 17 19 21 15 14
18 14 18 19 17 14 17 21 22 12 10 16 14 10 13 12
12 11 10 10 10 10 7 10 10 13 13 15 15 16 16 17
21 46 75 87 94 97 92 86 81 80 84 91 95 96 96 99
100 101 104 105 107 108 109 110 110 110 109 108 109 110 112 112
5 6 6 21 4 0 0 5 19 17 21 27 33 34 33 32
26 30 30 27 25 13 9 9 7 4 4 4 3 1 4 16
21 20 20 20 19 19 19 19 19 19 19 19 19 19 19 19
17 17 16 14 16 20 16 12 15 12 12 13 24 20 19 16
20 18 20 17 12 12 11 14 16 18 12 13 12 13 12 12
12 11 11 11 10 10 8 10 10 13 13 14 15 16 17 18
32 66 86 91 97 97 97 99 101 99 94 90 87 81 77 80
91 100 106 108 108 109 108 109 108 108 108 107 109 110 112 112
6 6 7 23 5 0 0 2 8 9 11 22 30 34 35 33
29 29 33 32 31 19 17 22 23 18 17 13 9 2 4 15
21 20 20 19 20 23 23 22 21 20 20 18 19 18 20 18
16 14 8 7 18 18 12 12 11 9 15 15 23 24 20 17
24 19 19 16 13 11 11 13 15 16 17 12 9 13 13 12
12 11 11 11 11 10 8 10 10 13 14 14 16 16 17 22
49 80 88 92 97 97 99 101 101 95 83 65 49 45 56 76
93 103 107 109 110 110 111 111 110 111 110 111 111 112 112 112
7 5 8 25 6 0 0 1 0 0 0 16 30 27 17 23
20 24 29 32 32 22 21 26 26 23 30 29 26 5 5 16
21 21 21 20 20 28 28 26 24 22 22 22 20 19 20 19
15 5 3 13 20 15 11 7 6 11 14 15 20 26 18 14
21 21 16 13 11 13 15 14 17 19 16 18 8 9 15 13
12 12 11 11 11 11 9 11 11 13 14 15 16 17 18 29
61 83 89 95 98 100 103 103 101 95 82 67 57 64 76 93
100 106 107 108 109 109 109 110 110 111 111 112 112 113 113 112
0 0 1 25 5 0 0 7 7 0 0 15 30 18 0 3
0 2 4 8 18 24 24 26 28 29 32 31 30 7 5 17
22 22 20 20 21 28 29 26 25 26 28 28 23 24 24 19
7 1 4 7 9 12 6 7 9 7 13 18 16 18 16 11
18 22 15 10 12 13 12 11 12 15 17 17 10 7 19 12
12 12 11 11 11 11 10 11 11 14 15 16 16 17 19 36
69 85 90 96 99 102 105 103 102 98 93 90 93 97 99 101
103 105 106 107 108 109 110 110 111 112 112 112 113 113 113 112
0 0 1 25 7 1 1 13 21 6 0 15 31 19 0 0
0 0 0 0 8 25 25 26 27 29 30 31 31 10 6 19
24 22 22 23 22 23 18 22 26 28 30 29 18 17 25 11
7 1 2 3 5 6 4 8 10 12 8 14 16 17 19 14
15 13 11 8 10 10 6 3 3 7 11 14 20 7 19 14
12 12 12 11 12 12 10 11 11 14 15 15 17 17 22 47
76 86 91 96 99 103 103 101 102 105 106 104 103 100 99 100
104 107 108 109 111 111 111 111 111 112 112 112 112 112 111 111
0 0 0 27 8 0 6 17 12 10 1 12 33 21 0 0
0 0 5 1 9 22 13 18 23 28 29 29 28 11 6 18
25 19 20 24 27 17 0 1 10 15 16 22 12 3 7 5
5 0 6 7 7 3 2 2 10 25 49 59 73 75 75 72
66 53 36 18 6 4 1 0 0 0 4 11 18 12 17 16
12 12 12 12 12 12 11 11 11 15 15 16 17 19 27 55
79 87 92 97 101 103 103 102 103 106 107 105 102 98 97 100
104 107 109 109 110 111 110 111 112 112 113 112 112 112 113 113
0 0 1 28 9 0 3 14 10 5 0 10 34 25 0 0
0 0 3 1 10 20 0 0 1 5 10 11 23 13 6 15
23 24 23 26 30 19 0 0 0 3 3 12 12 7 4 7
5 4 12 6 1 0 1 20 60 84 87 89 92 92 90 89
84 77 73 64 47 18 0 0 0 0 0 9 13 18 14 15
13 13 12 12 12 12 11 12 13 16 17 17 18 19 33 63
84 88 93 97 102 103 100 99 102 105 105 103 100 97 98 102
106 108 109 110 111 112 112 113 113 113 112 112 111 112 113 113
0 0 1 30 10 0 0 2 3 0 0 10 34 27 0 0
0 0 0 0 8 19 0 0 0 0 0 0 14 14 5 1
2 6 11 18 24 19 0 0 0 0 1 10 13 7 7 7
5 6 8 2 3 7 48 84 94 93 89 90 90 92 92 88
84 80 74 76 74 61 33 2 0 0 0 4 14 15 13 16
14 13 12 12 13 13 12 12 13 15 17 17 18 20 40 68
84 88 93 98 102 102 100 101 104 106 105 102 98 96 98 104
108 110 111 112 113 113 113 112 112 112 112 112 112 112 112 113
0 0 0 23 11 0 0 0 0 0 0 9 34 28 0 0
0 0 0 0 8 19 0 0 0 0 0 0 13 14 5 0
0 0 0 0 1 9 0 0 0 0 0 7 13 6 9 4
3 8 2 0 3 57 89 90 87 85 87 90 91 88 88 86
81 80 74 66 68 71 62 37 3 0 0 1 16 11 16 15
14 13 12 13 13 13 12 12 14 17 18 18 19 21 40 68
84 88 93 99 103 101 99 102 107 109 107 103 98 96 99 104
108 110 110 110 110 111 112 112 113 113 113 113 113 112 112 111
0 0 0 22 12 0 0 0 0 0 0 7 34 30 1 0
3 5 3 0 8 20 0 0 2 2 0 0 13 14 5 0
0 0 0 0 0 4 0 0 0 0 0 9 18 17 9 7
7 7 0 1 51 86 82 83 88 89 87 87 88 84 84 90
85 88 85 80 69 62 63 58 37 1 0 0 14 12 14 17
13 14 12 12 14 14 13 13 14 17 18 19 19 21 40 69
84 87 93 99 101 99 99 103 106 107 104 100 96 96 100 105
107 109 110 112 113 113 112 112 113 113 112 112 113 112 113 113
0 0 1 24 18 7 6 5 5 3 2 10 34 32 2 0
0 0 0 0 8 20 0 0 0 5 0 0 13 14 5 0
0 0 0 0 0 3 0 0 0 0 0 7 20 22 12 10
11 1 0 35 77 78 85 95 98 96 100 100 92 98 83 98
89 79 75 73 63 49 36 34 35 17 0 0 10 19 12 21
14 13 12 13 13 14 13 13 15 17 18 19 19 21 38 66
81 87 93 99 100 97 97 102 105 105 102 97 94 96 101 105
109 110 112 112 111 112 112 112 112 112 112 112 112 112 111 112
0 0 0 23 31 30 28 26 25 22 19 19 23 21 1 0
0 0 0 0 7 18 0 0 0 0 0 0 13 14 5 0
0 0 1 0 0 1 0 0 0 0 0 7 24 30 13 10
11 0 10 40 36 37 41 47 50 66 99 103 105 109 85 95
60 37 28 13 7 4 4 2 1 1 1 0 1 7 11 24
15 14 12 14 14 15 14 13 16 18 19 19 19 21 35 63
79 84 91 98 99 98 99 103 104 104 99 95 93 97 102 106
108 109 110 111 111 111 111 112 111 112 112 112 113 112 112 112
0 0 0 28 29 19 21 19 22 26 25 18 11 7 0 0
0 0 0 0 7 17 0 0 0 0 0 0 12 14 5 0
0 0 0 0 0 2 0 0 0 0 0 7 25 23 15 10
7 5 3 1 0 0 0 4 12 16 28 73 112 107 85 59
8 8 1 0 0 0 0 0 0 0 0 0 0 4 0 5
14 14 13 14 15 15 15 14 16 19 19 19 20 21 33 60
79 85 93 100 98 97 100 104 105 103 100 95 95 99 105 109
111 111 112 111 111 110 110 112 112 112 112 112 113 113 113 113
0 0 0 29 18 0 0 0 1 4 8 19 19 22 24 22
19 18 14 9 15 20 1 0 0 0 0 0 13 14 6 0
0 0 0 0 0 3 2 0 0 0 0 6 12 8 2 0
0 13 56 23 0 0 0 0 0 0 2 12 24 7 7 5
0 0 0 0 0 0 0 0 0 0 0 0 0 2 2 0
13 15 14 15 15 16 15 14 17 19 20 20 20 21 33 65
79 86 95 99 98 99 104 106 107 103 98 94 94 99 105 107
109 110 111 112 112 112 112 112 113 113 113 113 113 113 112 113
0 0 0 28 19 0 0 0 0 0 0 8 30 19 9 13
18 23 25 28 25 33 27 13 18 18 16 14 20 12 5 1
0 0 0 0 0 8 25 17 13 11 6 5 6 9 0 0
9 97 68 1 0 0 0 0 0 0 3 16 47 45 19 3
0 0 0 0 0 0 0 0 0 0 0 0 0 7 15 0
11 16 15 15 14 16 15 14 17 18 19 20 21 22 35 66
80 86 93 95 97 100 105 106 105 100 95 92 95 100 105 108
109 110 110 112 112 112 112 113 112 111 111 111 111 111 111 111
0 0 2 29 20 0 0 0 0 1 0 7 33 19 2 1
6 5 3 4 29 40 30 17 24 29 29 29 27 11 5 0
0 0 0 0 0 9 35 27 28 30 25 1 2 0 0 1
79 75 2 0 0 0 0 0 1 38 55 88 108 102 77 16
0 0 0 0 0 0 3 31 8 0 0 0 0 0 1 0
8 13 15 16 15 16 16 14 17 19 20 20 20 21 39 71
80 86 94 96 97 99 103 105 103 100 94 94 97 102 106 107
107 109 111 112 112 113 113 112 112 111 111 111 111 110 110 109
0 0 9 28 18 1 4 0 5 1 0 6 32 18 0 0
1 0 0 1 31 37 24 17 26 29 29 32 30 11 5 4
2 0 0 0 0 9 29 25 30 31 27 0 0 0 0 33
82 7 0 0 0 0 0 10 58 67 84 114 116 113 97 50
0 0 0 0 0 12 59 53 17 0 0 0 0 0 0 0
11 11 16 16 15 16 15 14 17 18 19 19 20 23 52 74
82 87 93 95 96 99 101 102 101 97 93 94 99 104 108 109
110 110 110 112 111 112 111 111 112 111 109 107 107 106 107 107
0 0 16 28 17 8 11 0 2 1 0 4 31 17 0 0
0 0 0 0 29 32 9 4 10 13 14 17 25 12 6 15
26 25 20 15 11 16 21 22 28 30 28 0 0 0 0 47
19 0 0 0 0 0 18 63 41 24 97 114 116 114 96 77
15 0 0 0 14 64 45 2 0 0 0 0 0 0 0 0
7 10 14 17 15 15 16 14 18 18 20 20 20 27 61 78
84 89 94 95 96 99 101 101 99 96 95 96 100 104 106 107
109 111 112 112 112 112 111 111 110 110 109 108 107 107 107 107
2 3 23 31 15 2 0 0 5 8 0 5 30 15 0 0
0 0 0 0 28 32 7 0 0 0 0 0 12 14 6 16
30 31 30 30 30 30 14 6 12 16 18 0 0 0 12 33
0 0 0 0 0 5 61 29 0 56 101 112 115 110 86 85
56 1 0 5 82 62 1 0 0 0 0 0 0 0 0 0
4 15 12 18 15 15 15 13 16 16 17 18 19 33 72 79
81 87 92 94 98 103 103 101 98 95 94 97 100 103 106 107
109 111 112 112 112 111 110 109 107 106 106 105 104 103 102 102
24 23 23 32 25 12 9 9 12 3 0 7 31 16 0 4
0 0 0 0 25 33 7 0 0 0 0 0 10 15 5 14
28 30 31 31 32 31 9 0 0 0 2 0 0 0 43 30
0 0 0 0 0 0 3 0 15 95 87 100 113 90 29 70
97 31 0 1 20 2 0 0 0 0 0 0 0 0 0 0
0 13 10 21 12 12 13 13 15 17 17 16 17 50 79 81
82 86 89 94 98 102 102 98 94 92 93 96 99 102 104 107
109 111 113 113 113 111 110 107 106 103 101 100 99 98 98 98
24 17 1 24 31 21 10 27 24 3 0 8 34 18 5 10
0 0 0 0 20 31 6 0 0 0 7 12 15 18 13 14
20 22 23 23 25 28 6 0 0 0 6 0 0 1 74 12
0 0 0 0 0 0 0 1 74 102 31 66 115 80 10 14
102 76 1 0 0 0 0 0 0 0 0 0 0 0 3 7
0 12 14 17 14 7 7 7 10 10 10 11 21 68 81 81
82 85 89 95 100 102 101 97 93 93 95 100 102 105 107 109
111 112 113 113 112 111 109 106 104 102 100 99 97 96 96 97
16 10 0 16 29 18 2 25 22 3 0 8 35 20 0 4
0 0 0 0 17 28 5 0 0 0 8 14 14 16 11 12
11 14 19 19 21 27 6 0 0 1 16 0 0 6 84 3
0 0 0 0 0 0 0 18 110 67 10 87 115 103 41 3
76 100 27 0 0 1 3 2 1 0 0 0 0 0 14 18
0 8 20 18 22 9 9 7 10 9 12 15 41 79 81 81
83 88 92 97 101 101 98 94 91 92 96 100 103 103 104 107
109 111 112 112 111 109 107 104 101 99 97 96 94 93 92 91
22 18 2 10 25 12 0 18 12 2 0 8 36 22 0 0
0 0 0 0 20 28 5 0 0 0 2 6 10 13 11 12
12 15 18 19 24 27 6 0 0 10 14 0 0 9 29 0
0 0 5 1 3 3 0 38 117 46 19 104 116 112 72 6
73 108 67 37 11 0 1 3 4 6 11 10 16 38 38 20
0 11 12 13 20 15 12 10 14 13 17 22 57 82 82 84
83 85 91 97 101 101 98 94 93 96 98 101 102 102 104 106
109 109 110 108 107 105 103 100 97 95 94 94 93 92 91 90
22 25 10 3 12 11 0 10 8 0 0 8 35 21 0 0
0 0 0 0 22 29 3 0 0 0 0 0 3 8 9 9
2 4 7 11 16 19 6 0 3 13 9 0 1 11 12 20
15 5 6 4 2 1 18 73 115 76 66 111 117 113 96 59
96 105 78 70 62 45 26 19 14 8 12 48 67 60 51 14
0 14 7 6 15 15 17 14 16 15 20 28 71 83 83 81
79 83 90 97 102 100 95 92 93 96 100 101 101 102 104 106
108 108 109 108 106 103 100 97 94 93 92 91 90 88 87 87
0 1 0 0 0 3 8 0 0 1 4 11 32 19 0 0
0 0 0 0 24 29 4 0 0 0 0 0 4 14 14 10
0 0 0 0 0 2 4 0 4 3 2 0 8 44 61 53
40 13 10 14 28 52 74 89 106 107 97 113 117 114 99 88
99 94 77 81 73 71 68 65 70 70 61 54 59 60 57 18
0 11 7 1 3 8 17 15 18 18 21 38 77 84 83 81
80 84 88 96 99 97 94 92 93 96 100 100 100 102 105 107
108 108 108 106 103 100 98 96 93 93 93 93 93 93 91 90
4 0 0 0 0 0 0 1 1 8 26 26 28 20 8 6
4 2 1 0 24 29 4 0 0 0 0 0 5 20 15 10
0 0 0 0 0 0 4 0 0 2 4 0 13 50 75 69
69 76 79 82 89 92 96 91 89 93 106 116 117 116 105 90
80 74 74 89 93 93 93 90 85 84 80 69 61 63 56 29
0 4 16 0 0 2 14 15 18 19 23 51 84 86 83 80
81 84 90 96 98 95 91 91 94 97 99 100 100 102 103 105
106 105 104 101 97 95 93 92 90 89 89 91 93 94 93 90
2 0 0 0 0 0 4 17 21 18 30 31 30 27 29 26
17 20 20 15 21 23 9 0 0 2 0 0 4 21 14 10
0 0 0 0 0 0 4 0 0 0 2 0 14 57 73 73
88 92 93 100 104 107 108 92 89 102 113 114 116 115 111 102
89 79 72 81 92 99 99 97 94 88 82 77 67 65 59 37
0 0 22 3 0 0 6 16 19 19 27 68 88 85 82 79
79 84 90 96 96 93 88 89 93 97 98 96 97 98 101 103
104 103 101 97 94 92 90 89 88 86 85 86 88 90 91 89
4 0 0 5 20 17 27 26 32 31 31 32 33 28 10 6
3 4 6 4 11 19 18 16 10 12 14 10 12 23 12 10
0 0 6 3 0 0 6 0 0 0 4 0 11 66 75 85
93 97 103 106 108 107 92 90 103 109 111 112 110 110 108 106
100 91 80 74 82 96 101 98 97 93 85 80 75 68 66 42
1 0 15 7 0 0 1 14 19 21 42 83 88 84 80 77
79 83 90 95 93 90 88 91 95 98 98 96 97 99 102 102
101 100 97 93 90 88 88 87 88 88 88 88 89 91 92 91
22 9 7 16 29 28 21 13 28 23 14 17 22 23 0 0
0 0 3 2 8 20 17 11 11 16 21 24 26 25 13 8
0 0 5 2 0 0 5 0 0 0 11 0 17 70 80 90
96 103 106 106 106 94 90 101 109 105 101 102 101 99 101 106
107 102 94 83 77 83 94 98 99 94 90 83 78 73 67 48
6 3 4 13 0 0 0 13 19 26 71 88 90 85 80 76
78 83 91 96 95 92 90 92 95 96 96 95 97 100 101 100
96 92 89 86 86 86 87 87 88 87 87 87 87 90 92 94
32 31 30 31 31 27 11 0 7 3 0 0 1 20 1 0
0 0 0 2 12 21 15 0 0 0 2 10 27 25 13 10
1 0 0 0 0 0 12 0 0 8 13 0 29 76 86 91
99 105 106 106 99 90 104 110 109 101 101 96 92 96 99 102
108 109 103 97 86 81 85 91 99 95 91 88 81 74 69 57
9 8 0 10 1 0 0 8 20 45 83 92 92 86 80 73
75 82 90 93 91 87 88 91 95 95 94 93 94 97 98 96
92 87 84 82 83 80 78 74 71 73 75 81 85 89 92 95
32 32 33 31 26 19 6 0 0 0 0 0 0 21 2 0
11 18 4 0 11 22 15 0 0 8 9 12 26 21 12 12
8 0 0 0 0 0 12 0 0 21 11 3 45 81 90 95
102 106 106 101 98 98 112 111 102 90 84 73 70 74 78 88
99 104 107 109 98 84 86 89 97 98 93 90 85 77 69 62
17 6 0 5 7 0 0 5 22 58 88 96 94 87 80 72
76 82 90 91 89 85 87 92 96 95 92 90 91 90 86 78
69 64 62 62 65 67 70 75 78 80 81 83 86 88 90 92
34 34 33 27 5 5 2 1 0 4 1 0 0 21 2 3
17 16 0 0 12 25 15 0 0 4 15 19 27 17 11 13
6 0 0 0 0 0 15 2 9 30 5 12 56 85 93 98
102 106 102 98 103 112 108 102 84 84 97 98 97 97 88 72
74 97 101 109 110 98 88 83 93 97 95 91 89 82 73 65
24 5 0 1 10 1 0 1 23 63 91 99 95 86 79 72
75 81 89 89 85 84 88 93 96 94 89 83 81 79 78 77
74 69 67 66 65 63 62 62 65 71 78 84 88 89 90 89
14 16 18 21 23 25 21 21 19 21 5 0 0 20 2 0
15 20 0 0 13 26 16 0 0 0 1 16 28 16 12 13
6 1 0 0 0 0 17 5 21 19 2 12 68 86 94 96
103 106 101 103 115 113 97 85 90 108 115 115 116 115 111 98
79 69 88 97 112 111 93 89 91 95 94 91 91 85 75 64
32 3 0 0 6 4 0 1 24 74 94 99 95 87 79 74
76 81 88 87 84 84 89 94 95 90 83 79 77 75 70 66
65 67 72 75 79 80 81 81 82 84 87 88 90 89 89 87
0 0 0 0 13 15 2 1 1 2 0 0 0 20 2 0
5 5 0 0 14 27 17 0 0 0 0 12 29 17 12 12
20 22 20 18 17 18 23 4 28 11 0 12 73 88 94 98
103 105 102 110 116 104 79 98 115 116 116 115 115 116 116 115
107 90 73 72 104 114 103 91 90 95 95 93 93 87 77 65
35 0 0 0 2 5 2 1 33 85 97 99 95 86 81 75
77 81 85 85 82 83 87 88 85 78 76 79 83 86 82 77
76 76 79 81 82 83 82 83 83 84 88 90 92 92 92 91
0 0 0 0 17 20 2 0 0 0 0 0 0 19 2 0
0 0 0 0 13 27 16 0 0 0 0 11 30 17 12 13
27 34 34 34 34 34 29 8 17 6 0 15 76 88 97 100
101 102 103 114 114 87 98 115 117 116 116 115 115 116 115 115
113 106 94 85 89 112 108 92 91 94 93 92 89 85 78 65
36 0 0 0 0 1 5 1 41 91 99 101 95 86 75 70
74 81 86 83 80 78 83 86 87 83 82 86 87 84 78 73
72 73 75 77 79 81 80 81 83 85 89 90 91 90 90 91
0 0 0 0 22 25 6 0 0 0 0 0 0 19 3 0
0 0 0 0 12 27 15 0 0 0 0 10 30 18 11 13
23 31 31 31 31 30 27 13 7 2 0 15 76 89 98 99
101 102 106 114 107 102 111 116 116 116 116 116 115 116 115 115
114 110 102 95 93 103 106 94 91 92 91 92 92 87 78 66
39 1 0 0 0 2 2 0 47 92 102 101 93 80 68 64
67 71 70 65 66 72 79 81 79 79 82 85 84 80 75 72
72 73 76 77 78 80 79 80 83 86 89 90 90 90 90 90
0 3 3 6 25 30 11 0 0 0 0 0 0 18 2 0
0 0 0 0 11 28 15 0 0 0 0 7 27 15 10 12
13 15 15 14 14 14 15 10 1 0 0 13 74 87 97 99
102 103 105 110 107 109 115 116 116 116 112 106 106 105 111 113
113 112 108 103 96 94 103 99 94 93 91 88 87 86 78 65
40 0 2 0 0 4 4 0 38 79 99 102 94 77 65 62
65 70 70 69 71 78 87 91 89 85 84 83 80 76 70 67
69 70 75 77 79 80 79 79 80 82 86 90 92 93 94 94
16 21 20 23 28 22 5 0 0 0 0 0 0 18 2 0
0 0 0 0 10 28 16 0 0 0 0 7 28 17 10 12
16 20 19 18 16 14 14 5 0 0 0 9 70 85 97 100
100 104 106 107 109 112 116 116 115 110 108 108 106 104 103 105
110 111 111 106 100 91 101 98 96 94 92 91 87 84 77 64
45 4 5 0 0 6 6 3 31 59 81 90 86 72 64 60
63 64 65 67 75 85 93 92 88 83 82 81 77 72 67 64
66 69 73 78 83 85 85 84 83 85 88 91 93 93 93 93
23 22 24 28 30 10 0 0 0 0 0 0 0 16 8 4
5 7 9 12 20 26 15 0 0 0 0 8 31 18 8 12
18 22 23 21 21 20 18 2 0 0 0 8 64 85 95 101
100 103 104 105 108 114 115 115 108 109 115 115 113 108 101 96
102 106 106 107 101 101 100 98 95 93 92 88 87 84 77 65
48 17 14 7 2 8 9 9 34 57 72 77 72 61 54 56
62 66 70 74 81 89 93 91 86 82 79 77 72 67 64 63
63 66 71 77 83 87 88 88 87 88 90 90 91 92 91 91
4 6 9 14 28 19 11 12 10 9 8 8 10 23 23 23
24 26 27 28 26 19 13 8 6 5 2 10 28 16 10 14
18 22 23 21 21 20 16 1 1 1 1 12 61 84 92 99
98 99 104 101 108 113 115 111 103 112 115 115 115 111 105 95
94 101 101 102 100 100 99 95 93 91 90 87 85 80 76 64
52 43 31 38 39 3 9 11 39 60 74 74 63 48 44 47
56 62 67 73 82 90 92 88 83 79 77 74 68 63 59 59
60 61 65 70 75 79 81 84 87 90 91 89 88 87 86 83
0 0 0 1 26 29 29 29 27 26 25 26 27 27 24 21
24 25 25 24 24 23 23 23 22 22 21 21 23 21 21 21
21 21 21 22 22 22 18 1 0 34 49 36 63 85 92 96
99 98 98 92 105 111 112 104 108 115 116 116 115 115 110 103
94 95 98 99 97 96 95 96 91 91 85 88 84 81 76 64
55 61 47 47 44 37 3 16 43 65 75 73 60 47 45 49
57 62 66 73 82 89 90 86 82 78 76 71 65 60 55 51
48 44 44 47 55 66 76 85 89 90 89 88 86 82 81 81
0 0 0 1 27 32 31 30 31 29 30 31 31 20 13 13
21 21 21 21 22 22 21 21 22 21 21 21 20 21 20 21
21 21 21 21 21 21 18 2 22 57 55 53 66 82 86 94
95 97 96 97 101 107 107 106 113 115 115 115 115 116 113 108
96 92 90 92 93 93 91 91 90 89 87 86 85 83 76 64
57 70 61 70 54 55 5 15 46 69 76 68 56 47 44 48
56 63 66 73 79 85 86 84 82 79 77 71 64 59 55 54
56 60 63 66 67 71 76 81 85 87 86 84 83 84 88 92
0 0 0 1 27 28 27 24 25 23 24 28 23 7 8 10
20 22 21 21 21 21 21 21 20 21 20 20 20 20 19 19
19 19 19 19 19 19 18 2 45 42 66 62 73 83 91 95
95 95 95 93 96 105 104 111 116 116 116 116 116 115 115 113
103 96 91 89 88 92 87 89 89 87 87 87 87 82 77 65
59 71 72 77 77 56 22 10 49 71 73 65 56 47 43 47
57 65 70 75 80 83 84 81 80 78 74 70 65 64 63 65
67 68 69 69 70 72 76 80 83 84 85 87 91 93 92 92
0 0 0 1 27 11 3 3 2 2 2 4 3 6 7 10
20 21 16 9 7 7 6 6 5 5 5 4 4 4 4 3
3 3 3 3 4 6 14 5 51 73 87 88 79 83 93 93
94 94 91 91 97 103 107 116 116 116 115 115 115 115 115 113
111 102 94 89 88 87 85 86 87 84 84 85 86 82 75 65
60 78 73 72 82 67 35 5 50 68 69 64 54 46 42 46
56 65 71 75 81 81 82 80 81 80 74 69 64 63 65 68
73 73 74 76 77 79 82 84 86 89 92 94 93 92 93 94
0 0 0 2 27 7 0 0 0 0 0 0 0 6 6 10
18 21 10 0 0 0 0 0 0 0 0 0 0 0 0 0
0 0 0 0 0 2 18 12 61 96 88 89 88 83 92 91
91 90 89 88 94 102 112 116 117 115 115 114 112 111 113 110
113 103 99 92 83 83 82 82 82 83 85 84 83 81 73 64
71 78 81 83 73 70 40 3 48 63 67 61 54 47 40 45
55 62 69 74 80 80 79 77 73 65 56 49 50 57 64 70
74 78 80 82 83 83 85 88 91 93 92 92 92 92 91 92
0 0 0 2 27 8 0 0 0 0 0 2 2 6 7 8
17 21 14 0 0 0 0 0 0 0 0 0 0 0 0 0
0 0 0 0 0 2 19 21 67 93 88 94 95 82 89 89
89 87 86 87 90 101 108 111 111 111 108 108 105 106 103 101
100 97 93 85 77 77 76 74 80 79 84 83 81 79 71 63
85 84 68 86 77 70 39 3 47 61 64 60 55 46 39 46
56 62 67 72 75 74 73 68 65 61 59 58 59 60 63 69
74 79 81 81 83 86 89 91 91 91 91 90 90 91 93 94
0 0 0 1 25 8 0 0 0 0 2 3 2 5 6 9
16 21 16 2 0 0 0 0 0 0 0 0 0 0 0 0
0 0 0 0 0 1 19 28 67 87 91 96 100 80 90 88
86 84 83 80 86 94 102 103 101 98 96 91 88 90 93 90
88 87 82 73 67 68 71 71 77 79 79 79 78 75 70 62
91 94 85 76 81 67 36 5 49 57 59 57 52 44 39 46
53 59 65 72 76 78 79 80 78 72 66 61 58 59 59 61
62 64 70 77 85 90 92 92 92 92 94 95 96 97 97 95
0 0 0 1 25 9 0 0 0 2 3 3 1 5 6 8
16 20 17 4 0 0 0 0 0 0 0 0 0 0 0 0
0 0 0 0 0 0 18 43 59 86 92 98 96 77 86 85
84 82 77 73 77 88 98 95 88 86 77 71 69 71 75 73
73 73 70 61 59 64 66 67 74 75 73 73 75 73 67 64
90 87 91 70 73 60 35 9 47 52 52 53 49 42 40 48
58 64 69 70 74 77 82 83 80 72 66 63 62 62 62 65
71 79 87 91 93 95 95 96 95 94 95 96 98 99 97 94
0 0 0 1 24 9 0 0 0 2 3 3 2 5 6 8
15 20 18 5 0 0 0 0 0 0 0 0 0 0 0 0
0 0 0 0 0 0 17 51 50 82 95 96 92 77 83 82
82 77 73 68 71 79 83 80 76 67 56 50 46 45 49 48
51 53 51 50 53 53 58 63 69 69 70 67 71 69 64 65
93 89 89 80 79 64 30 11 41 44 47 47 44 40 39 48
58 64 69 71 75 78 82 82 79 72 67 65 64 64 67 69
74 80 87 90 93 94 94 94 94 96 96 97 96 94 93 91
0 0 0 1 23 9 0 0 0 2 3 3 2 5 7 8
14 20 18 7 0 0 0 0 0 0 0 0 0 0 0 0
0 0 0 0 0 0 14 48 54 73 93 99 91 72 79 77
76 69 67 63 60 63 64 62 54 45 37 32 27 28 30 31
32 34 39 41 44 47 49 54 58 63 64 63 68 67 59 52
79 86 84 72 76 64 10 5 27 36 41 41 39 37 39 49
57 63 67 69 76 81 87 87 81 74 68 66 65 66 69 72
72 75 80 85 90 93 95 96 97 97 96 95 95 94 92 90
8 7 6 9 25 10 0 0 0 3 3 2 1 5 6 8
13 20 18 8 0 0 0 0 0 0 0 0 0 0 0 0
0 0 0 0 0 0 12 26 66 73 91 95 77 59 76 73
68 61 56 52 47 44 41 40 39 36 34 34 36 41 43 40
41 43 45 43 39 38 41 44 49 53 57 61 66 62 49 6
14 29 31 50 64 33 0 2 12 24 32 34 36 35 39 49
58 64 68 73 78 84 89 87 82 75 70 67 67 69 71 74
75 78 82 86 90 93 95 97 98 98 95 94 92 91 92 92
26 26 26 24 23 15 0 0 0 2 3 3 2 5 6 7
12 19 18 8 0 0 0 0 0 0 0 0 0 0 0 0
0 0 0 0 0 0 10 19 32 70 61 46 19 12 69 70
65 53 45 37 36 38 42 43 40 43 43 41 46 56 57 54
53 49 40 37 33 30 30 32 37 42 50 56 59 55 44 8
0 0 0 4 8 10 0 1 3 9 21 28 31 34 39 48
58 64 67 72 77 82 86 83 79 72 68 67 69 73 76 78
81 83 86 89 92 94 96 97 96 94 93 92 94 96 97 91
13 9 6 2 3 14 0 0 0 2 3 3 1 4 6 7
11 19 18 10 0 0 0 0 0 0 0 0 0 0 0 0
0 0 0 0 0 0 8 18 15 27 17 0 0 0 53 65
61 45 35 27 29 37 40 43 44 49 51 55 61 63 64 64
64 56 50 43 41 36 29 25 25 28 38 48 51 47 60 43
0 0 0 0 1 12 1 0 0 2 10 20 26 31 36 47
58 62 61 59 60 67 74 76 73 66 62 60 61 67 71 77
83 84 82 78 79 86 91 95 95 95 96 97 99 96 89 92
0 0 0 0 0 13 0 0 0 2 2 3 2 4 6 7
11 18 18 11 0 0 0 0 0 0 0 0 0 0 0 0
0 0 0 0 0 0 5 17 13 3 2 2 0 0 39 58
53 41 29 26 36 46 48 46 52 60 64 70 72 72 69 72
72 64 58 53 53 50 47 41 34 27 33 40 42 51 67 48
1 0 0 0 1 7 2 0 0 0 2 10 20 26 32 43
53 56 50 41 38 44 54 58 58 58 59 65 72 77 74 63
46 33 33 45 65 82 92 97 99 100 101 99 93 92 96 96
0 0 0 0 0 19 20 12 7 1 2 2 1 3 5 6
10 19 18 11 0 0 0 0 0 0 0 0 0 0 0 0
0 0 0 0 0 0 4 17 12 3 4 1 0 0 36 50
48 41 36 42 52 55 55 52 59 68 73 76 78 74 74 77
77 74 66 60 60 61 60 59 50 38 30 30 39 61 64 36
0 0 1 0 3 5 2 0 0 0 0 3 12 21 29 40
48 49 38 28 22 26 29 34 37 40 45 49 48 38 26 16
11 16 29 48 71 88 98 103 102 98 93 92 95 95 96 97
0 0 0 0 1 21 15 4 1 0 1 2 1 3 5 7
9 17 17 12 0 0 0 0 0 0 0 0 0 0 0 0
0 0 0 0 0 0 3 16 12 4 6 1 0 0 16 58
40 39 44 53 62 63 62 57 59 71 74 78 81 74 76 81
81 74 72 66 65 67 68 66 60 49 38 39 57 64 63 24
0 0 2 1 3 6 2 0 0 0 0 0 4 13 24 33
39 39 35 33 29 22 17 14 14 15 13 10 5 2 2 6
13 25 42 60 76 86 91 91 92 93 95 94 94 95 96 96
0 0 0 0 1 19 6 0 0 0 1 2 0 2 5 6
9 17 18 12 0 0 0 0 0 0 0 0 0 0 0 0
0 0 0 0 0 0 2 16 12 5 10 1 0 0 3 63
64 42 48 59 66 66 65 63 67 75 78 82 84 82 83 88
87 82 74 66 67 72 72 68 65 56 49 57 63 66 62 17
0 0 0 3 4 4 1 0 0 0 0 0 0 5 14 21
27 32 41 47 45 33 18 7 1 0 0 0 0 2 5 10
17 28 40 53 64 75 82 87 90 92 93 94 94 94 95 94
0 0 0 0 0 18 7 0 0 0 0 1 1 1 4 5
8 16 17 12 1 0 0 0 0 0 0 0 0 0 0 0
0 0 0 0 0 0 1 14 12 6 10 1 0 0 1 60
72 63 49 61 70 71 67 68 74 80 85 86 91 91 92 95
92 86 78 70 69 71 68 68 65 60 59 62 66 69 63 16
0 0 0 3 6 3 1 0 0 0 0 0 0 1 8 20
30 42 53 56 52 39 26 14 9 8 11 15 20 24 27 28
30 30 31 36 43 53 64 75 82 88 90 93 95 94 94 91
0 0 1 3 6 18 8 0 0 0 0 0 0 0 3 4
6 15 17 12 1 0 0 0 0 0 0 0 0 0 0 0
0 0 0 0 0 0 1 13 11 10 7 0 2 0 1 58
74 74 58 62 68 72 74 72 79 86 91 93 97 97 95 96
96 91 81 75 71 71 69 69 66 66 69 68 68 70 63 21
0 0 0 0 3 1 0 0 0 0 0 0 0 1 8 21
37 49 58 60 56 47 39 31 28 28 28 27 29 33 40 45
48 47 46 46 46 49 54 62 72 82 89 91 93 92 91 90
7 8 12 18 23 24 13 0 0 0 0 0 0 0 3 4
6 15 16 12 1 0 0 0 0 0 0 0 0 0 0 0
0 0 0 0 0 0 0 13 10 11 7 0 1 1 0 57
76 80 65 63 69 74 80 79 84 90 95 98 102 102 100 96
99 94 83 77 75 73 70 70 68 71 72 72 70 73 65 23
0 0 0 0 1 0 0 0 0 0 0 0 0 0 5 17
31 46 55 57 54 49 43 38 34 29 26 25 30 36 45 50
53 55 58 63 65 68 70 74 82 87 90 92 91 88 85 83
15 16 18 22 25 25 21 16 12 9 1 0 0 0 1 3
5 14 16 11 1 0 0 0 0 0 0 0 0 0 0 0
0 0 0 0 0 0 0 12 9 10 8 0 0 0 0 55
76 81 74 63 71 73 80 83 91 96 102 104 107 107 107 102
98 95 85 77 75 74 71 71 71 75 76 72 69 74 64 22
0 0 0 0 1 0 0 0 0 0 0 0 0 1 7 19
34 48 55 55 54 54 52 47 39 31 26 27 33 39 46 50
56 61 67 72 74 76 77 79 81 84 86 82 76 70 65 64
10 9 8 8 8 6 6 3 3 2 0 0 0 0 1 2
5 13 16 12 1 0 0 0 0 0 0 0 0 0 0 0
0 0 0 0 0 0 0 10 8 3 1 0 0 0 0 52
79 83 81 73 73 75 80 85 94 101 105 106 107 108 110 108
102 94 84 78 74 72 71 75 75 79 76 73 71 75 65 24
0 0 0 0 0 0 0 0 0 0 0 0 0 2 11 23
40 50 54 57 60 63 64 59 49 38 34 35 39 43 47 51
56 60 61 61 57 55 57 62 68 70 68 60 54 52 56 63
0 0 0 0 2 3 5 0 0 0 0 0 0 0 1 2
4 12 15 12 1 0 0 0 0 0 0 0 0 0 0 0
0 0 0 0 0 0 0 10 8 3 0 0 0 0 0 50
82 86 85 80 79 77 81 89 97 103 109 109 107 108 111 107
106 97 88 79 76 71 74 76 79 81 78 74 75 74 67 26
0 0 0 0 0 0 0 0 0 0 5 3 0 3 8 16
24 30 40 54 67 73 75 69 60 54 53 54 56 58 60 61
63 65 65 61 56 47 44 46 49 50 52 50 50 54 62 68
0 0 0 0 1 2 6 0 0 0 0 0 0 0 1 2
5 12 15 12 1 0 0 0 0 0 0 0 0 0 0 0
0 0 0 0 0 0 0 12 8 4 2 1 0 0 0 46
82 88 87 81 80 81 83 90 96 104 109 108 108 108 110 109
106 99 90 83 79 77 78 72 80 82 77 66 76 75 68 29
0 0 0 0 0 1 8 11 15 26 45 37 24 21 13 15
22 33 49 64 74 73 64 52 45 41 43 47 49 52 53 52
49 48 45 41 41 42 40 41 42 41 48 56 65 71 73 75
0 0 0 0 0 5 9 0 0 0 0 0 0 0 0 1
4 11 15 12 1 0 0 0 0 0 0 0 0 0 0 0
0 1 1 2 2 2 5 11 7 4 3 2 0 0 0 44
83 88 88 83 80 80 84 91 97 101 108 110 109 109 109 111
106 102 90 82 79 80 80 75 81 82 80 72 79 77 69 35
0 0 0 0 5 28 59 63 71 75 74 63 52 37 22 21
39 55 68 72 68 58 42 26 16 10 9 8 8 9 9 8
6 3 3 6 10 14 17 20 29 41 52 59 62 64 64 62
6 8 9 9 8 3 5 0 0 0 0 0 0 0 0 1
3 11 15 13 6 2 3 4 5 5 7 7 9 9 10 11
11 11 12 11 10 9 8 7 5 3 4 2 0 0 0 42
84 89 90 85 83 84 87 91 97 102 105 107 109 110 111 110
108 101 90 85 80 79 80 79 84 82 82 78 78 76 69 41
0 0 0 0 15 28 62 63 65 67 66 62 51 34 19 14
24 33 39 43 40 35 25 15 8 4 2 0 0 0 0 0
0 0 0 0 0 0 0 0 1 3 6 10 13 13 22 37
9 11 12 13 13 9 0 0 0 0 0 0 0 0 1 1
3 11 15 14 14 13 12 14 15 15 14 14 14 13 13 13
13 13 13 12 11 9 7 6 5 4 4 4 0 0 0 36
82 92 93 88 86 88 89 92 98 103 106 107 111 113 113 112
108 100 92 84 83 80 78 81 84 82 85 81 80 75 69 44
0 0 0 4 22 23 40 63 68 71 68 58 48 31 8 0
4 8 15 20 24 25 23 15 6 1 0 0 0 0 0 0
0 0 0 0 0 0 0 0 0 0 0 1 3 9 16 24
10 9 10 12 15 11 2 0 0 0 0 0 0 0 0 1
2 11 16 15 16 14 11 14 15 15 14 14 13 14 16 14
7 7 9 10 5 4 6 5 3 4 5 4 1 0 0 28
81 91 95 91 88 90 91 96 99 104 108 111 114 116 116 114
108 100 94 88 84 82 84 84 85 84 86 83 81 75 68 46
3 0 0 5 12 9 20 36 15 39 43 32 21 8 0 0
2 6 11 16 17 14 9 2 0 0 0 0 0 0 0 0
0 0 0 0 0 0 0 0 0 0 0 1 2 1 3 5
10 8 6 14 19 8 0 0 0 0 0 0 0 0 0 0
3 10 16 16 15 14 12 13 13 12 12 10 14 29 34 8
0 0 0 0 0 0 1 2 1 1 1 0 0 0 0 39
80 91 94 94 92 93 93 99 103 106 111 113 117 117 117 116
114 103 93 90 89 85 83 83 86 87 85 83 79 74 68 48
21 18 0 0 5 19 20 17 5 0 0 0 0 0 0 0
1 6 7 7 7 4 2 0 0 0 0 0 0 0 0 0
0 0 0 0 0 0 0 0 0 1 3 6 6 6 5 2
3 4 3 19 10 2 0 0 0 0 0 0 0 0 0 0
0 2 5 4 4 3 2 1 1 1 1 4 29 44 16 0
0 0 0 0 0 0 0 0 0 0 0 0 0 0 12 54
77 88 94 95 96 97 95 100 103 109 114 116 117 117 117 115
113 106 96 94 90 86 83 86 90 90 88 84 79 73 66 50
7 22 0 0 0 12 20 25 28 15 2 0 0 0 0 1
2 3 4 4 2 0 0 0 0 0 0 0 0 0 0 0
0 0 0 0 0 0 0 1 3 2 2 1 0 0 0 0
0 0 13 22 6 3 0 0 0 0 0 0 0 0 0 0
0 0 0 0 0 0 0 0 0 0 3 15 42 28 1 0
0 0 0 0 0 0 0 0 0 0 0 0 0 0 27 33
76 86 93 97 97 97 97 101 102 106 113 116 117 118 118 117
112 104 95 93 88 84 84 86 92 92 89 83 77 73 67 53
6 20 3 0 0 0 0 0 0 10 26 22 9 10 18 5
1 1 2 2 0 0 0 0 0 0 0 0 0 0 0 0
0 0 0 0 0 1 2 5 6 7 5 2 1 0 0 0
2 0 41 9 0 2 2 0 0 0 0 0 0 0 0 0
0 0 0 0 0 0 0 0 0 0 6 30 35 8 0 0
0 0 0 0 0 0 0 0 0 0 0 0 0 4 39 26
77 85 93 98 101 99 97 100 102 104 108 111 115 117 117 115
108 97 91 89 86 83 84 88 94 91 87 83 79 72 65 52
5 19 15 1 2 6 12 21 18 8 5 17 25 16 3 0
0 0 0 0 0 0 0 0 0 0 0 0 0 0 0 0
0 1 0 0 0 0 0 0 1 1 2 2 3 3 4 2
9 2 25 0 0 0 5 7 0 0 0 0 0 0 0 0
0 0 0 0 0 0 0 1 0 0 8 37 19 0 0 4
1 0 0 0 0 0 0 0 0 0 0 0 0 18 35 21
77 85 92 98 101 102 100 98 99 103 105 107 110 115 116 111
101 92 91 88 85 82 85 89 92 91 87 83 78 74 64 50
9 23 24 38 67 103 114 117 115 83 42 28 21 11 2 0
0 0 0 0 0 0 0 0 0 0 0 0 0 0 1 1
1 1 0 0 0 0 0 0 0 0 0 1 2 4 4 4
5 3 9 0 0 0 4 2 0 0 0 0 0 0 0 0
0 0 0 0 0 0 0 4 3 0 14 39 11 5 14 20
8 0 0 0 0 0 0 0 0 0 0 0 3 26 75 26
75 84 91 98 102 103 102 99 97 100 103 103 105 110 112 103
92 85 85 84 82 81 85 90 93 93 87 82 79 73 64 47
12 34 21 36 55 82 116 117 93 45 30 17 10 3 0 0
0 0 0 0 0 0 0 0 0 0 0 0 0 0 0 0
0 0 0 0 0 0 0 0 0 0 0 1 1 1 1 0
0 2 4 0 0 0 0 0 0 0 0 0 0 0 0 0
0 0 1 3 7 8 6 4 1 0 20 29 2 11 20 20
15 0 3 13 5 0 0 0 0 0 0 0 5 34 66 19
71 84 89 95 102 104 103 100 101 102 103 103 100 102 103 94
88 88 87 83 83 85 90 92 94 91 85 82 78 72 64 38
11 21 25 28 52 75 115 117 91 42 29 17 10 4 0 0
0 0 0 0 0 1 1 1 0 0 0 0 0 0 0 0
0 0 0 0 0 0 0 1 1 1 1 1 1 0 0 0
0 2 3 0 0 0 0 0 0 0 0 0 0 0 0 0
0 0 0 4 11 11 4 0 0 0 28 27 0 9 22 21
11 0 15 22 15 3 0 0 0 0 0 8 20 40 60 17
60 84 90 95 101 104 103 101 101 103 108 108 106 100 94 90
91 93 93 87 84 86 91 94 93 90 83 83 76 71 62 24
17 19 31 19 28 50 112 118 93 45 29 15 9 7 3 2
4 5 6 4 4 3 1 0 0 0 0 0 0 0 0 0
0 0 0 0 0 0 0 0 0 0 1 1 1 1 2 2
0 2 3 0 0 0 0 0 0 0 0 0 0 0 0 0
0 0 0 2 10 8 0 0 0 0 31 28 0 8 7 5
13 12 25 23 16 6 0 0 0 0 7 13 29 32 65 20
43 83 90 96 99 103 105 103 101 104 108 108 108 105 102 98
99 96 90 84 82 88 93 95 94 90 85 81 75 69 59 10
21 20 26 20 29 15 37 79 77 47 28 13 9 6 3 2
5 6 7 6 6 5 3 1 1 1 2 2 2 2 2 2
1 0 0 0 0 0 0 0 0 0 0 0 0 0 1 0
0 3 3 0 0 0 0 0 0 0 0 0 0 0 0 0
0 0 0 2 10 6 0 0 0 1 33 29 1 4 0 1
16 22 30 18 9 12 0 6 12 16 9 20 25 23 66 25
27 79 90 96 99 99 106 105 102 103 108 109 108 107 104 102
99 97 91 84 85 91 96 98 94 89 83 77 72 68 47 10
28 17 16 23 15 14 23 31 20 33 22 13 8 4 2 3
5 7 7 6 5 4 2 1 0 0 0 0 0 0 0 0
0 0 1 0 0 1 1 1 2 1 0 0 0 0 0 0
0 9 3 0 0 0 0 0 0 0 0 0 0 0 0 0
0 0 0 2 11 6 0 0 0 1 33 39 8 7 0 4
19 31 27 3 3 18 19 37 20 21 29 18 22 19 59 37
29 57 91 95 98 102 106 107 103 103 107 110 110 109 108 104
100 99 90 83 86 96 99 98 93 88 83 76 71 67 25 27
41 21 14 36 13 13 13 20 53 42 11 11 11 5 2 2
2 3 4 4 4 3 3 1 0 0 0 0 0 0 0 0
0 0 0 1 0 1 1 1 1 0 1 0 0 0 0 0
1 1 0 0 0 0 0 0 0 0 0 0 0 0 0 0
0 0 3 11 16 12 8 8 0 0 26 34 19 6 0 4
22 28 14 14 47 56 36 38 29 41 19 19 25 20 59 83
52 37 85 92 97 102 105 107 105 104 107 109 111 111 109 106
102 99 90 84 89 97 100 98 93 86 80 74 69 58 8 23
27 17 17 34 13 23 19 10 28 32 14 10 7 10 9 6
5 5 6 6 6 4 3 0 0 0 0 1 0 0 0 0
1 2 3 3 1 1 0 0 0 0 0 0 0 0 0 0
0 0 0 0 0 0 0 0 0 0 0 0 1 1 0 0
0 0 11 20 15 12 7 6 0 0 24 34 28 4 0 6
19 17 35 42 28 26 26 54 61 17 18 22 28 24 60 81
28 26 58 91 96 102 105 106 106 105 106 109 112 111 111 106
103 97 90 85 92 100 100 97 92 86 79 71 65 22 12 21
29 12 16 21 12 18 35 20 28 12 16 21 8 8 16 26
11 6 6 6 6 5 2 0 0 0 0 0 0 1 2 2
2 1 0 0 0 0 0 0 0 0 0 0 0 0 0 0
1 1 3 1 0 0 0 0 0 0 0 0 0 2 0 0
0 0 4 16 18 17 12 11 1 0 13 21 16 1 0 1
20 57 46 25 24 27 39 58 33 20 9 25 37 39 37 63
26 30 27 84 96 101 103 105 103 105 104 108 110 109 108 105
102 97 86 84 92 98 98 95 91 84 78 70 45 6 24 21
21 13 11 25 28 27 19 45 22 9 10 18 33 23 24 27
15 16 17 19 7 5 3 1 0 1 1 2 1 0 0 0
0 0 0 0 0 0 0 0 0 1 0 0 0 0 0 0
6 6 6 6 2 0 0 0 0 0 0 0 0 6 7 3
0 0 0 2 8 7 3 1 0 0 0 0 0 1 17 39
33 40 44 28 28 49 50 23 29 9 6 43 35 36 26 58
32 29 25 51 97 101 103 106 103 102 102 103 105 106 105 103
98 94 85 85 94 98 98 96 88 83 75 62 13 23 24 16
16 18 10 18 27 27 50 50 36 11 13 11 12 31 64 25
16 18 16 23 44 51 14 2 2 2 0 0 0 0 0 0
0 0 0 1 1 1 1 1 0 0 0 0 0 0 0 0
1 2 4 4 1 0 0 0 0 0 0 0 0 2 12 2
0 0 0 0 0 0 0 0 0 0 0 3 17 29 49 30
28 36 58 54 55 38 20 21 47 21 19 50 22 21 28 42
51 25 26 27 73 101 104 104 104 103 101 99 100 102 101 100
95 93 88 91 97 100 98 94 89 85 74 32 24 46 39 11
17 26 9 13 13 10 31 27 25 31 12 16 10 26 32 28
47 19 21 18 27 45 23 9 1 0 0 0 0 0 0 0
1 1 1 1 1 0 1 0 0 0 0 0 0 0 0 0
0 0 0 0 0 4 14 0 0 0 0 0 0 0 1 0
0 0 0 0 0 0 0 0 0 0 13 42 56 35 31 33
40 46 64 90 40 36 41 51 70 36 33 36 32 19 25 30
60 22 38 52 39 88 104 104 105 103 100 99 99 99 96 94
94 92 90 91 98 101 101 96 90 82 55 8 39 31 31 8
15 21 12 13 11 11 16 10 10 17 40 19 17 27 17 13
21 50 27 22 39 30 17 20 10 1 1 1 1 1 1 1
0 0 0 1 1 0 0 0 0 0 0 0 0 0 0 0
0 0 0 0 0 8 28 0 0 0 0 0 0 0 0 0
0 0 0 0 0 0 0 0 5 21 33 52 53 35 29 41
46 45 42 73 37 42 51 45 46 13 12 11 38 22 26 21
59 58 59 39 35 46 98 103 104 105 104 102 98 96 95 93
95 94 93 97 102 104 100 95 86 71 17 41 31 20 14 8
25 12 13 19 9 9 19 8 6 6 27 21 29 29 16 13
15 17 43 79 70 23 19 24 20 18 15 5 0 0 0 0
0 0 0 0 0 0 0 0 0 0 0 0 0 0 0 0
0 0 0 0 0 0 3 0 0 0 0 0 0 0 3 2
0 0 0 0 0 0 2 24 51 47 35 32 38 40 32 36
22 22 21 56 18 15 23 24 43 7 12 12 34 27 24 29
75 91 29 19 30 30 65 103 104 104 105 104 101 99 98 99
99 96 97 100 103 103 99 93 82 36 14 38 22 20 9 16
22 27 11 20 7 8 27 9 9 7 31 6 27 56 17 17
18 17 27 46 28 34 39 53 46 48 36 29 18 4 0 0
0 0 0 0 0 0 0 0 0 0 0 0 0 0 0 0
0 0 0 0 0 0 0 0 0 0 0 0 0 0 0 0
0 0 0 0 0 18 72 45 25 27 29 24 19 23 33 39
21 21 22 56 18 15 23 25 50 8 12 9 20 44 24 45
55 65 24 26 30 31 34 79 102 102 101 100 100 100 100 100
96 93 96 101 103 102 97 90 59 11 38 30 24 13 14 19
11 35 40 20 9 5 34 10 8 7 32 5 7 12 21 20
19 15 32 38 18 16 18 19 34 68 54 30 16 18 7 0
0 0 0 0 0 0 0 0 0 0 0 0 0 0 0 0
0 0 0 0 0 0 0 0 0 0 0 0 0 0 0 0
0 0 0 5 39 49 41 33 21 27 45 18 17 22 34 44
19 20 22 51 19 17 22 23 50 8 11 11 17 75 28 29
24 66 25 37 24 33 29 44 88 104 103 104 102 102 101 99
98 97 101 102 103 102 95 71 19 23 38 22 18 17 20 10
12 20 58 34 28 23 56 11 8 14 24 7 6 6 22 38
15 15 37 43 19 20 19 21 38 44 22 33 42 26 15 9
0 0 0 0 0 0 0 0 0 0 0 0 0 0 0 0
0 0 0 0 0 0 0 0 0 0 0 0 0 0 0 0
0 0 20 38 27 41 18 22 22 22 35 15 16 23 32 47
20 21 24 40 18 17 21 27 48 7 9 9 15 60 35 17
22 54 42 30 24 10 22 35 53 93 103 105 104 102 103 100
99 101 101 104 102 100 83 27 13 38 18 7 23 27 38 7
14 31 21 18 21 22 74 22 9 12 19 7 7 8 32 27
14 16 17 42 20 20 20 18 48 29 17 21 19 27 26 20
27 2 0 0 0 0 0 0 0 0 0 0 0 0 0 0
0 0 0 0 0 0 0 0 0 0 0 0 0 0 0 0
10 44 29 22 18 50 19 19 17 19 33 14 12 20 29 48
18 19 22 30 24 30 40 51 47 21 16 23 32 54 37 23
18 36 55 20 5 0 30 38 42 61 94 103 102 101 99 99
99 98 102 102 101 94 50 11 25 69 5 0 21 39 16 13
16 47 13 8 6 4 43 23 27 26 31 6 4 7 33 25
15 18 18 43 23 18 18 29 69 25 19 14 16 36 30 50
25 19 1 0 0 0 0 0 0 0 0 0 0 0 0 0
0 0 0 0 0 0 0 0 0 0 0 0 0 0 0 14
49 37 21 17 15 51 23 33 40 47 82 30 24 27 36 57
24 24 33 54 45 45 49 78 46 37 25 26 47 51 26 41
14 28 74 13 1 17 38 46 50 48 64 89 100 101 101 101
101 101 101 102 99 74 24 23 50 44 0 2 46 17 14 14
39 31 17 10 7 5 39 9 23 53 43 29 19 30 75 64
33 24 20 53 37 30 48 50 99 50 45 39 41 86 32 34
20 13 18 0 0 0 0 0 0 0 0 0 0 0 0 0
0 0 0 0 0 0 0 0 0 0 0 0 0 0 15 29
35 43 43 46 45 85 49 52 45 38 62 31 39 48 59 89
46 47 53 67 46 25 21 53 25 21 11 5 20 15 11 37
21 22 29 0 1 45 54 21 49 49 57 64 86 102 103 102
101 102 101 104 91 39 16 36 38 17 0 14 14 22 30 32
30 25 24 9 7 4 40 11 11 31 25 23 17 23 77 49
43 45 47 81 53 36 32 29 68 27 37 49 41 47 26 29
21 24 19 13 0 0 0 0 0 0 0 0 0 0 0 0
0 0 0 0 0 0 0 0 0 0 0 0 0 11 32 31
54 22 15 26 22 48 25 25 22 25 43 13 16 21 30 64
26 31 33 34 34 16 21 49 25 26 18 6 24 14 10 21
42 31 18 0 7 48 47 34 24 49 58 61 64 87 102 102
102 102 105 102 62 25 23 26 28 5 3 15 8 15 45 73
12 21 20 9 10 5 38 10 11 21 14 6 2 6 50 20
18 21 30 65 34 16 19 19 55 16 16 23 17 26 13 36
34 32 13 25 5 0 0 0 0 0 0 0 0 0 0 0
0 0 0 0 0 0 0 0 0 0 0 0 7 37 42 19
46 16 13 21 19 48 16 21 24 29 44 16 17 21 16 43
15 21 23 27 49 18 20 47 25 25 21 9 23 9 11 19
54 42 11 0 8 59 21 53 54 34 59 65 63 68 87 99
101 105 106 88 44 27 27 30 16 0 2 11 9 11 46 40
18 33 27 9 8 4 32 10 12 25 17 8 4 7 56 19
20 16 18 46 27 20 20 20 50 20 20 24 24 28 8 19
68 49 18 13 34 4 0 0 0 0 0 0 0 0 0 0
0 0 0 0 0 0 0 0 0 0 0 0 56 44 23 14
49 11 12 21 19 58 15 20 24 23 39 16 17 21 17 48
17 22 26 30 55 17 19 40 25 22 20 11 21 6 12 22
28 35 11 0 1 44 15 18 53 47 57 66 64 63 71 93
104 107 101 67 43 35 27 22 5 0 8 10 8 32 23 17
30 57 49 22 14 10 42 10 9 20 22 8 4 9 55 18
20 17 18 46 25 21 18 17 44 17 18 21 27 32 10 13
58 40 27 16 39 40 0 0 0 0 0 0 0 0 0 0
0 0 0 0 0 0 0 0 0 0 0 11 46 49 17 12
51 12 15 24 19 58 16 20 25 19 43 21 22 21 19 44
14 20 23 28 58 20 20 30 32 23 32 30 54 10 19 29
21 21 22 8 0 11 7 18 18 13 55 67 67 66 67 85
106 107 91 64 49 44 17 18 3 0 19 21 21 34 10 10
14 38 37 29 29 27 77 27 18 15 23 10 10 14 51 18
21 18 18 42 26 22 19 18 46 17 18 22 24 39 6 40
33 28 54 34 27 30 6 0 0 0 0 0 0 0 0 0
0 0 0 0 0 0 0 0 0 0 1 26 35 49 18 14
57 19 15 18 19 57 17 15 23 19 37 16 21 19 17 34
14 21 23 26 58 20 18 24 49 44 51 53 94 29 33 25
22 14 22 30 7 5 15 12 20 19 36 54 69 69 68 76
100 102 80 67 57 42 16 12 0 0 18 26 39 10 8 6
4 25 14 12 16 18 67 36 40 34 23 8 12 17 36 15
18 16 17 41 22 19 17 15 46 14 17 20 18 46 8 57
14 14 42 40 13 12 16 1 0 0 0 0 0 0 0 0
0 0 0 0 0 0 0 0 0 0 9 31 21 55 25 15
63 38 34 33 38 93 46 45 45 44 71 28 35 31 28 46
12 16 19 22 63 25 33 38 62 43 34 33 65 13 8 2
4 14 10 17 23 0 6 15 17 15 27 26 34 59 70 75
96 92 80 72 36 24 17 7 0 1 28 52 20 5 7 5
4 29 10 5 8 8 43 15 23 30 47 17 22 28 42 29
32 28 27 60 44 35 29 27 64 39 40 38 47 59 28 33
12 10 19 37 21 15 16 9 0 0 0 0 0 0 0 0
0 0 0 0 0 0 0 0 0 5 18 22 16 36 42 19
52 24 25 28 42 89 47 45 41 38 78 38 50 49 54 83
35 37 41 41 93 51 48 44 45 23 16 16 53 20 19 5
5 20 12 39 25 2 0 5 26 30 21 36 58 32 48 74
84 84 83 75 44 21 17 8 0 4 31 52 10 6 8 6
5 36 10 9 14 16 45 11 12 15 31 33 39 48 70 56
46 49 44 78 58 44 41 43 89 38 45 48 43 51 36 13
14 13 14 41 37 21 16 20 3 0 0 0 0 0 0 0
