P2
128 120
156
50 44 44 45 44 42 42 43 44 43 43 42 42 41 42 42
41 42 42 41 41 40 40 40 40 40 40 39 38 38 38 38
37 37 36 36 35 35 34 33 33 32 32 32 30 30 29 28
27 27 27 26 26 25 25 24 23 23 22 22 22 21 21 20
20 19 20 20 23 23 23 22 17 9 9 22 22 21 20 19
19 18 17 17 17 15 16 17 19 20 20 19 20 21 21 21
21 22 22 22 22 22 23 24 24 25 24 24 24 24 24 25
26 27 27 28 28 29 29 30 30 31 31 31 31 31 32 31
63 66 64 62 59 54 54 57 60 63 64 58 42 41 42 41
41 41 41 40 40 40 40 40 40 39 39 39 39 39 38 38
38 37 36 36 36 34 34 33 33 32 32 31 30 30 30 29
28 27 27 27 26 25 24 24 24 23 22 22 21 21 21 21
20 19 20 20 23 24 24 22 17 14 12 22 22 21 21 20
19 19 18 18 18 15 16 17 19 20 20 20 20 21 21 21
22 22 23 23 23 24 23 24 24 24 24 24 25 25 26 26
27 28 28 28 29 29 29 30 29 31 31 31 31 31 31 31
55 60 47 38 39 41 43 43 43 44 59 62 53 49 44 42
41 40 41 40 40 40 40 40 40 39 39 39 39 38 38 37
37 37 36 36 36 35 35 34 34 33 33 32 31 31 30 29
28 27 27 26 26 25 26 25 24 24 23 22 22 21 21 20
20 20 20 21 24 24 24 22 18 16 14 22 22 22 21 21
20 20 19 18 18 16 17 17 20 21 21 21 21 21 22 22
22 22 23 23 22 23 23 24 25 25 25 26 26 26 27 28
28 28 29 29 29 30 30 30 31 31 31 32 32 31 32 32
49 52 22 0 0 0 2 1 0 0 44 59 57 60 57 49
44 44 44 43 42 42 40 39 40 39 39 39 39 39 39 38
38 37 37 35 35 35 35 34 34 33 32 32 32 31 30 29
29 29 28 27 27 26 26 25 25 24 23 23 22 23 21 21
21 20 21 21 25 24 25 24 19 16 16 21 23 23 22 21
21 20 20 19 19 17 17 19 21 21 21 22 22 22 23 22
22 22 22 23 24 24 25 25 25 25 26 26 26 27 27 28
29 29 29 30 29 30 31 31 32 31 32 32 32 32 32 32
46 49 23 0 0 0 13 1 0 0 38 56 52 47 30 35
42 46 55 56 56 53 47 40 40 40 40 40 39 39 38 38
38 38 37 36 36 36 35 35 34 34 34 33 32 31 31 30
29 29 28 28 27 27 26 26 26 25 25 24 24 23 22 22
22 21 21 22 25 26 25 25 20 18 18 20 24 23 23 22
21 21 20 20 19 17 18 19 22 23 22 22 22 23 23 23
24 24 24 24 25 25 25 26 26 27 27 27 28 27 28 29
28 28 29 30 29 31 31 32 33 32 33 33 33 33 33 33
47 50 26 0 0 0 8 1 0 0 31 56 52 40 0 1
6 13 22 30 40 54 51 40 40 40 40 39 39 39 39 39
38 38 37 37 36 36 36 35 35 35 34 33 33 32 32 31
30 30 29 29 28 28 27 26 26 25 25 25 24 24 23 23
23 22 23 23 26 27 27 26 21 18 20 20 25 24 24 23
22 22 22 21 21 19 19 19 22 22 23 23 24 24 24 25
25 25 25 26 26 26 27 27 28 28 28 29 28 29 29 30
30 29 30 30 30 31 32 32 32 33 34 32 33 33 34 34
45 49 27 0 0 2 6 1 0 0 27 57 53 38 0 0
0 0 0 0 6 50 52 41 40 41 41 40 40 40 39 39
39 38 38 37 37 36 37 36 36 35 35 34 34 33 32 32
31 31 30 29 29 28 28 28 27 27 27 26 26 25 25 24
24 23 23 24 27 28 27 27 21 19 23 20 26 25 25 24
24 24 23 22 22 20 19 20 24 24 25 24 25 26 25 26
26 25 26 26 26 27 27 27 28 28 29 29 30 29 30 30
31 31 31 31 32 32 33 33 33 33 34 34 34 35 34 34
43 49 35 0 9 10 6 4 0 2 21 55 51 38 0 0
0 0 0 0 4 49 53 41 41 40 41 40 40 40 40 39
39 39 39 38 38 37 37 36 35 35 35 34 34 33 32 32
32 31 31 31 31 29 29 29 28 27 27 27 26 25 25 24
25 24 24 25 27 28 28 27 22 19 24 19 27 26 25 25
24 25 24 23 23 21 20 22 24 25 25 25 26 26 26 26
26 26 27 27 27 28 27 28 28 29 29 30 30 30 30 30
30 31 32 33 32 32 34 33 34 33 33 33 33 33 34 35
44 53 43 0 20 6 1 1 0 2 16 55 51 40 1 1
9 10 0 0 3 48 51 41 41 40 41 41 40 39 39 39
39 39 39 38 38 37 37 36 36 36 34 35 34 33 34 32
32 31 31 30 30 29 29 28 28 28 27 27 26 26 25 25
25 24 24 25 28 28 28 27 22 19 25 20 27 26 25 25
25 25 25 23 23 21 20 23 24 25 25 25 26 26 27 27
26 27 27 27 28 28 28 28 29 29 29 29 30 30 31 31
31 31 32 32 32 31 31 32 32 33 33 33 34 35 35 35
42 53 49 6 15 3 0 1 0 4 14 55 54 41 1 4
12 10 1 0 3 47 50 41 40 40 39 40 39 39 39 39
39 38 38 38 38 37 37 37 36 36 35 35 34 33 33 32
32 32 31 30 31 30 29 29 28 27 27 26 27 26 26 25
25 24 25 25 28 29 28 28 23 19 26 19 27 26 26 25
24 24 25 23 23 23 20 23 25 25 25 26 26 27 26 27
27 27 27 28 28 28 29 29 29 29 30 30 31 31 31 31
31 30 31 31 33 33 34 33 34 34 35 34 35 35 34 35
40 50 53 12 10 4 0 0 0 3 12 53 52 42 1 0
4 7 4 0 2 47 50 41 40 40 40 40 40 40 39 39
39 38 38 38 37 37 36 37 36 35 35 35 34 35 33 33
33 32 32 31 31 30 30 29 29 28 28 27 27 26 25 26
25 24 25 25 28 28 29 28 23 20 26 20 26 27 27 27
25 24 25 24 23 22 20 23 25 26 26 26 27 27 27 28
27 27 27 28 28 28 29 29 29 30 30 29 29 30 30 30
32 32 33 33 34 33 34 34 34 34 34 34 34 35 34 34
39 41 48 13 9 0 2 0 0 0 9 48 51 42 2 0
3 11 10 0 2 46 50 40 40 40 40 39 39 39 39 38
38 39 38 38 38 38 37 37 37 36 35 35 35 34 33 32
32 32 32 31 31 30 30 29 29 28 28 28 27 26 26 26
26 25 25 26 29 30 29 29 24 20 27 21 26 27 27 26
26 24 24 24 24 23 20 23 25 26 27 26 26 27 27 28
28 27 28 28 28 29 29 29 29 29 30 30 30 31 31 31
31 32 33 34 34 34 34 34 34 34 35 34 35 35 35 35
42 36 41 26 25 25 29 29 28 30 31 42 50 46 3 0
5 5 8 1 1 44 49 40 40 40 40 39 39 39 39 38
39 39 38 38 38 36 36 36 36 36 35 35 35 34 34 33
33 32 32 31 31 30 30 30 29 28 28 28 28 27 26 26
25 25 26 26 29 30 30 28 23 20 27 22 25 28 27 26
25 24 24 24 24 24 20 24 24 26 26 27 27 28 28 28
28 28 28 28 28 28 29 29 29 29 30 30 30 31 32 32
32 33 33 33 33 33 34 34 33 33 34 34 33 34 34 35
33 32 35 34 32 33 34 31 32 32 31 30 42 45 8 2
4 4 7 8 11 45 49 40 40 39 40 39 39 39 38 38
38 37 37 37 38 37 37 37 36 35 36 35 34 34 33 33
33 32 32 32 31 30 30 30 29 28 28 29 28 27 27 26
25 25 25 26 29 30 30 29 25 20 27 24 24 28 27 26
26 25 25 24 24 24 20 24 25 27 27 27 27 27 27 27
27 27 28 27 29 29 29 29 30 30 30 31 31 31 32 32
32 32 33 33 33 33 34 34 34 34 34 34 34 34 35 34
18 19 21 21 22 23 24 27 32 34 36 35 36 39 37 35
31 26 22 19 23 46 47 39 39 39 39 39 39 39 38 38
38 37 37 37 37 37 36 36 36 35 35 34 35 34 35 34
33 33 32 31 32 31 30 30 30 29 29 28 27 27 27 26
26 26 26 26 29 31 30 29 25 20 27 27 22 28 27 26
26 25 25 25 25 24 20 24 25 26 27 27 27 26 27 27
27 28 29 28 30 29 29 30 30 30 30 31 31 31 31 32
33 33 34 33 33 33 34 34 33 34 34 34 34 34 34 34
18 18 18 18 18 18 19 19 21 24 28 30 26 26 27 30
33 36 39 40 41 44 43 40 40 40 40 40 39 39 38 38
38 37 37 37 37 37 37 37 37 35 35 36 36 34 32 32
32 33 32 32 32 31 31 30 30 29 29 28 28 28 27 26
26 26 25 26 29 31 31 30 26 20 27 28 21 28 28 27
26 25 24 25 25 24 20 24 25 27 28 28 28 28 28 28
29 29 29 30 31 30 30 31 30 30 31 31 32 32 32 33
33 33 33 34 33 34 34 34 34 34 34 35 34 34 35 35
22 18 19 18 17 17 17 18 18 18 18 18 19 18 19 21
24 26 30 33 35 38 40 41 40 40 40 40 40 39 39 38
39 38 38 38 38 37 38 37 38 37 37 37 36 37 35 35
35 33 32 32 32 31 31 30 29 29 29 29 28 28 28 27
27 27 27 28 29 32 31 31 27 21 27 30 21 28 28 28
27 26 26 25 26 25 21 26 26 27 28 28 28 28 28 29
29 29 30 30 30 30 30 31 31 31 31 32 32 32 32 32
33 33 34 34 34 34 34 34 34 34 34 34 35 35 35 35
38 36 29 28 20 18 17 19 22 20 20 19 19 18 17 18
17 16 18 20 22 25 29 33 36 39 39 40 40 40 39 39
39 38 37 38 38 37 37 36 36 37 37 37 37 35 34 33
33 33 31 32 36 34 32 30 29 30 29 29 29 28 28 27
27 27 27 27 29 31 31 30 27 21 27 32 23 29 29 29
28 27 26 26 26 25 22 26 27 28 28 29 29 29 29 29
29 30 30 30 31 30 30 30 31 32 32 32 32 32 33 33
33 34 34 34 34 34 34 35 35 35 34 34 33 33 32 33
25 36 35 48 49 46 40 36 38 37 37 39 41 28 17 17
17 17 18 16 18 19 18 19 20 20 24 26 30 33 36 38
38 39 39 38 36 35 35 34 34 35 32 34 33 30 30 30
31 33 32 33 34 32 32 33 32 31 31 29 29 29 28 29
27 27 28 28 30 31 31 30 27 21 27 33 23 28 29 28
28 27 27 26 26 26 23 27 26 28 29 29 29 29 30 29
29 30 31 31 31 32 31 31 31 31 32 32 32 33 32 34
34 34 33 34 34 34 34 34 34 34 35 34 35 34 35 34
19 20 23 42 17 11 13 21 34 34 36 48 60 50 36 31
27 27 26 23 21 19 18 18 18 18 19 19 16 14 19 33
39 38 37 37 36 38 33 33 31 30 26 27 26 30 34 33
30 27 18 15 19 21 22 26 29 27 26 28 28 28 30 30
29 27 27 29 29 32 31 31 27 21 27 33 24 27 30 29
28 28 27 26 26 26 22 26 26 29 29 29 29 29 30 30
30 30 31 31 32 32 32 31 32 32 32 33 33 33 32 33
33 32 33 33 33 33 34 34 34 34 34 35 34 34 34 35
19 20 22 41 11 0 0 15 37 35 38 47 55 56 54 53
45 51 52 48 44 30 24 24 21 18 18 19 17 14 17 32
37 36 36 36 34 33 24 25 21 23 20 17 20 24 27 23
26 17 11 5 7 11 14 12 17 15 15 17 22 24 26 27
28 28 27 29 29 32 32 31 28 21 27 34 25 26 30 29
29 28 28 27 27 27 23 27 27 29 29 29 30 30 30 30
31 31 31 31 33 33 33 32 32 33 33 33 33 33 33 33
34 33 33 33 34 33 34 34 34 34 34 35 34 35 34 35
21 20 22 42 12 0 0 9 22 24 27 41 52 56 58 56
51 49 54 53 51 37 34 40 43 35 35 30 24 16 18 30
38 34 34 31 26 19 18 13 12 14 13 10 13 12 9 9
11 13 4 0 3 8 13 8 9 10 8 5 11 14 20 25
24 28 29 28 29 31 32 31 29 21 26 33 27 24 30 30
29 28 28 27 27 27 24 28 27 30 29 30 30 31 31 31
31 31 32 32 32 32 31 30 31 32 33 33 33 32 33 33
33 33 34 34 34 33 33 35 34 33 34 36 34 35 35 34
22 19 23 46 14 0 0 9 8 2 0 31 51 46 34 43
38 44 50 53 53 41 40 43 47 43 50 49 45 20 20 31
37 30 26 24 18 11 8 7 7 7 7 6 11 7 6 5
7 8 5 1 1 8 10 13 7 10 8 6 6 10 10 18
23 23 24 27 30 31 32 32 28 21 20 29 29 23 31 30
30 29 29 27 27 27 25 28 27 30 30 30 32 31 31 31
31 31 31 32 31 32 32 33 33 32 32 33 34 33 33 33
33 33 34 34 34 34 34 34 34 34 35 36 34 35 35 35
6 7 9 45 14 0 2 21 19 0 1 31 52 36 0 16
4 8 14 19 35 43 42 45 48 49 52 53 47 23 19 31
30 21 16 13 11 6 7 8 9 5 3 6 10 8 3 4
4 7 5 5 3 7 11 14 10 10 9 8 9 14 12 12
20 24 20 24 28 33 32 32 21 18 14 25 31 21 31 30
30 29 30 28 28 27 26 28 27 31 30 31 31 30 31 31
31 31 32 32 32 32 32 32 33 33 33 34 34 33 34 34
34 34 34 33 34 34 34 34 34 34 35 36 35 35 35 35
0 1 7 45 14 9 10 29 38 15 0 33 53 35 0 1
0 0 6 5 20 42 43 45 46 47 48 50 46 22 18 20
25 16 13 12 6 5 7 7 11 4 3 8 10 9 5 5
6 4 4 3 6 7 10 11 9 10 10 11 11 13 16 12
12 18 22 16 20 28 32 32 27 22 25 33 32 20 31 31
28 28 29 27 28 27 25 28 26 30 30 30 31 31 32 32
32 32 31 32 32 32 33 32 32 33 32 33 34 33 33 34
33 33 34 34 35 34 34 34 34 34 34 36 35 34 34 34
0 0 5 47 17 8 20 34 28 25 6 25 54 39 0 0
0 0 19 13 22 40 28 35 40 41 46 45 38 18 10 9
15 13 12 8 8 6 7 5 11 7 4 7 7 10 4 9
5 6 8 7 8 8 10 12 14 3 10 11 12 12 19 16
13 14 21 19 17 18 26 32 31 23 26 34 33 20 29 31
29 29 30 28 29 28 26 27 27 31 31 31 31 32 32 31
32 32 32 32 32 33 33 33 33 33 33 33 35 34 34 34
34 34 33 34 34 34 33 34 34 34 35 36 35 34 34 34
0 0 6 50 19 1 15 30 26 19 3 23 55 44 1 1
0 0 16 12 24 37 3 10 16 23 26 22 23 14 14 12
10 5 6 8 5 7 7 3 7 12 4 7 9 12 7 10
8 8 7 5 9 10 11 12 13 9 7 10 8 12 13 18
18 13 19 21 14 17 19 22 30 24 27 34 34 22 28 31
30 30 29 28 29 28 27 28 28 32 32 32 32 32 33 32
33 32 32 32 32 33 33 33 33 33 33 33 35 34 34 34
34 33 34 34 34 34 35 34 35 35 35 35 35 35 34 35
2 0 8 52 21 0 0 8 10 2 0 22 56 47 2 0
0 0 1 0 20 38 3 1 7 13 14 16 17 15 12 12
7 7 4 7 4 5 10 5 9 9 9 9 12 11 8 9
7 10 8 7 10 12 10 12 11 15 6 14 10 12 13 14
20 19 20 22 21 17 21 19 18 24 27 35 35 24 27 32
31 30 30 29 29 29 28 28 28 32 32 32 32 32 33 32
32 32 32 33 32 33 33 33 34 34 34 34 35 34 35 34
34 35 34 35 35 35 35 35 35 35 35 36 35 35 35 36
0 0 4 41 23 0 0 0 0 0 0 21 57 49 3 0
1 4 3 0 20 34 6 11 16 26 19 18 17 17 15 12
11 7 3 9 6 2 12 5 9 12 11 13 15 14 10 9
10 8 7 6 7 9 14 14 13 18 14 13 13 12 12 12
17 20 19 20 22 17 19 23 18 17 27 34 34 26 24 32
31 31 30 30 30 29 27 27 28 32 33 32 32 33 33 32
32 33 33 33 33 33 33 33 34 34 35 34 35 34 35 35
35 35 35 36 35 35 35 35 36 36 35 36 36 37 37 36
0 0 6 41 24 0 0 0 0 0 0 18 57 52 5 2
16 18 13 0 20 34 9 12 17 22 31 22 23 19 16 16
12 13 7 11 6 3 11 9 6 11 19 7 15 19 11 16
8 8 9 7 9 9 12 18 19 17 18 9 15 13 12 15
15 21 22 17 15 26 17 18 21 15 23 32 35 28 23 32
32 31 30 30 30 30 28 27 29 33 33 32 32 33 33 32
32 33 33 34 34 33 34 34 35 34 35 34 35 35 34 35
35 35 36 35 34 35 35 35 35 36 36 36 36 36 36 36
0 0 8 44 35 17 15 14 13 10 9 24 58 54 8 2
2 5 6 2 17 31 9 8 15 24 26 22 24 22 21 19
13 13 13 11 6 5 11 12 9 7 19 20 8 18 20 15
17 10 9 8 9 11 14 15 23 21 24 19 18 19 16 15
12 16 19 21 17 13 22 17 25 20 18 26 34 31 22 32
32 31 30 30 30 30 28 27 29 33 33 33 33 34 34 34
33 34 34 34 34 34 34 34 35 35 35 35 35 35 34 35
35 36 36 36 36 36 35 35 36 35 36 37 37 36 36 36
1 0 5 44 54 53 50 47 44 41 37 38 43 39 6 1
8 8 2 0 18 25 7 2 11 28 30 25 23 22 26 23
19 15 17 12 7 6 12 12 12 7 8 31 29 11 23 24
27 22 17 9 11 12 15 18 18 30 24 28 23 28 20 15
15 12 22 16 20 13 16 21 21 26 22 19 30 31 22 31
33 31 30 31 30 30 29 28 30 33 33 34 33 33 34 34
34 33 34 34 35 34 35 35 35 35 35 35 35 35 35 35
36 36 35 36 36 36 36 37 36 36 36 36 36 36 36 36
0 0 3 49 50 38 40 38 42 46 45 36 28 21 4 2
5 9 1 0 18 24 10 1 6 17 26 23 22 26 34 33
25 22 22 12 10 8 13 9 13 9 10 13 29 28 15 23
27 29 24 20 13 16 14 21 20 28 35 27 27 23 29 21
20 19 21 21 14 20 15 20 28 28 23 23 20 30 23 30
33 32 31 32 30 30 29 28 30 33 34 33 34 34 34 35
35 35 35 35 35 35 34 35 35 35 35 34 34 34 35 36
36 37 37 37 37 36 37 37 36 37 37 36 36 36 37 36
0 0 3 51 34 0 2 3 6 13 20 37 37 40 44 40
37 35 29 23 26 27 12 5 4 17 20 23 28 34 54 56
44 30 33 17 11 10 17 13 18 17 13 14 16 25 22 20
16 17 26 23 17 15 18 17 19 23 34 29 22 23 27 33
22 31 23 21 13 16 22 19 28 38 33 28 22 24 24 27
32 32 30 31 30 30 30 28 31 33 34 33 33 34 34 34
35 35 35 35 35 36 35 35 34 35 35 35 35 35 36 36
36 36 36 36 37 36 36 35 35 35 35 34 35 34 36 34
0 0 5 50 36 1 0 0 0 0 0 21 54 38 26 31
36 43 45 43 37 34 19 5 1 13 29 35 42 69 96 82
61 61 40 28 11 18 25 16 20 25 13 18 14 15 25 22
17 17 17 22 23 19 18 18 12 20 21 31 26 26 24 29
26 24 30 22 17 14 18 34 24 42 44 44 34 18 24 25
33 32 31 32 31 31 30 28 31 33 34 34 34 34 34 35
35 35 35 35 35 37 35 36 35 35 36 35 36 36 36 37
36 36 36 36 37 35 36 35 34 34 33 30 28 25 22 20
1 0 11 51 38 5 0 0 7 7 0 19 56 37 15 13
21 19 15 16 42 36 21 7 5 9 11 17 59 110 106 91
75 78 47 37 16 11 29 20 22 21 20 16 24 15 20 31
23 18 27 23 20 25 16 16 25 24 34 42 37 24 22 23
28 20 19 21 25 16 14 17 31 22 32 39 46 30 17 25
33 32 31 32 30 30 30 28 32 33 34 34 34 34 34 34
35 35 34 34 34 36 35 35 35 35 35 36 36 35 36 37
37 36 35 34 31 28 30 36 22 18 17 17 16 17 17 18
5 4 26 50 37 12 15 5 20 11 0 16 55 37 8 9
10 8 5 9 45 36 14 4 5 6 2 7 92 116 111 98
90 97 74 46 23 13 23 27 20 29 27 23 24 33 20 21
30 29 26 30 26 28 31 26 26 31 25 33 30 20 20 23
23 29 25 26 30 23 19 19 20 24 22 20 30 38 16 21
32 32 32 32 31 31 30 28 33 34 35 34 34 34 34 33
34 35 34 33 33 35 35 35 35 36 36 35 34 32 30 27
25 22 20 19 18 17 19 35 18 17 21 23 23 23 24 25
4 8 34 51 34 25 28 13 17 9 1 15 54 33 0 4
3 0 0 8 43 35 10 5 1 5 14 55 114 118 114 104
98 98 101 72 35 15 15 30 22 26 27 27 26 25 31 21
23 38 35 27 31 27 32 45 32 23 28 28 23 23 21 19
24 26 30 33 32 39 31 21 25 24 20 19 10 12 20 18
30 31 30 30 30 30 29 28 32 33 34 34 34 32 32 32
30 30 33 34 34 34 32 17 23 26 24 22 20 19 18 18
20 20 21 21 23 23 22 30 19 23 27 29 29 30 31 32
11 16 44 55 32 13 8 1 19 24 4 14 52 32 0 0
0 0 0 9 43 35 11 4 1 0 10 98 112 117 121 112
108 92 103 105 55 29 25 28 31 20 29 33 33 31 32 33
25 26 34 33 27 26 28 29 24 21 21 18 21 19 21 27
30 28 36 35 35 34 38 28 27 25 28 21 14 5 7 16
25 27 29 28 29 29 29 27 30 29 30 30 30 30 29 30
27 18 27 26 23 20 9 8 19 20 21 21 22 23 24 24
26 27 28 28 30 29 28 33 23 28 31 32 32 33 34 34
44 43 44 55 45 28 24 24 29 16 5 18 53 32 4 15
0 0 0 4 40 37 11 5 5 0 53 117 122 125 121 120
113 97 97 107 78 47 31 26 36 27 25 28 34 41 33 35
38 31 32 28 24 21 23 24 24 22 19 18 17 21 25 26
36 37 35 27 20 22 19 15 21 26 30 34 27 14 4 6
15 17 19 21 23 24 25 26 28 29 28 27 26 24 22 21
19 16 19 20 17 11 14 24 26 26 28 28 28 29 30 31
32 32 32 33 33 32 24 14 13 31 34 35 35 35 35 35
43 36 7 44 52 40 25 48 43 14 1 18 56 36 14 25
0 0 0 3 35 37 12 7 5 7 100 121 125 132 134 134
121 112 100 103 98 72 44 31 30 35 25 30 30 30 33 35
46 39 40 24 23 19 16 16 19 23 19 19 20 24 28 27
29 33 31 22 16 11 17 26 13 11 23 33 37 26 12 2
11 20 19 20 18 17 17 16 21 20 19 20 20 21 22 22
23 23 25 20 18 17 28 31 31 31 32 33 33 33 33 33
33 34 34 34 34 32 21 4 3 29 36 37 37 37 35 35
33 24 1 32 49 35 11 44 39 15 1 19 58 39 5 18
2 0 0 0 30 35 13 9 3 35 118 122 127 138 139 139
132 118 112 108 108 76 66 51 27 34 30 23 25 28 39 38
35 28 26 26 20 20 18 19 22 23 23 26 26 32 29 25
25 26 20 19 24 24 27 41 50 29 43 37 43 36 26 8
12 19 23 24 20 20 18 15 18 17 21 23 25 25 27 28
29 30 25 19 32 20 32 33 33 33 33 34 34 34 35 34
31 31 25 14 8 19 20 7 2 27 35 36 37 36 37 36
40 34 8 23 44 25 1 36 27 12 1 17 58 40 0 5
1 0 0 1 33 35 12 9 4 62 121 122 129 136 139 143
141 127 116 109 119 96 62 85 59 23 30 32 27 33 32 42
31 31 22 20 18 12 13 18 20 23 22 22 24 31 34 27
28 26 27 30 31 37 29 32 39 32 30 39 33 30 31 16
17 26 27 27 25 25 23 19 23 21 27 28 29 30 31 31
31 30 18 32 33 22 12 14 15 7 15 29 35 31 31 20
2 1 3 2 1 19 21 0 1 26 36 36 36 36 36 36
40 43 25 14 27 25 2 23 18 2 0 16 57 40 0 0
0 0 0 1 38 44 12 11 6 74 122 124 128 134 137 139
141 135 121 118 110 111 77 69 89 40 22 24 28 26 33 32
31 25 24 20 17 18 14 13 19 23 28 27 31 35 36 32
34 33 38 34 32 35 35 28 19 19 16 20 23 23 21 23
10 31 29 28 29 29 28 23 26 25 30 31 32 32 32 32
32 22 26 23 33 27 1 0 0 0 9 13 13 1 0 0
2 1 0 0 0 12 24 0 1 26 35 36 37 36 36 36
4 7 3 0 0 12 22 9 4 8 12 24 53 36 0 0
0 0 0 1 42 47 14 8 9 89 122 123 130 134 136 138
139 137 138 124 117 103 93 60 74 71 35 20 19 22 18 22
23 20 16 15 15 15 13 17 20 24 25 27 29 29 33 40
36 36 33 26 34 27 33 33 23 14 7 8 13 16 12 13
11 19 30 29 31 30 29 26 29 29 33 33 34 33 34 33
27 9 3 0 10 35 4 0 0 0 0 0 0 0 0 0
0 18 0 0 0 5 28 4 2 29 36 37 38 37 37 36
11 0 0 1 0 0 1 8 5 21 46 46 49 38 20 16
12 8 6 7 43 48 16 2 12 96 122 124 133 133 137 140
138 140 140 142 131 117 108 91 60 56 47 37 26 16 18 17
15 19 15 13 13 12 8 10 11 14 17 25 31 38 41 39
28 19 13 10 11 18 13 14 21 8 6 2 3 8 6 7
11 11 27 28 30 29 29 25 29 29 33 33 34 34 33 33
12 9 24 10 2 2 0 0 0 0 0 0 0 0 0 0
0 0 0 0 0 6 29 13 11 30 36 36 37 36 36 35
10 1 0 4 1 3 11 34 38 35 51 53 51 47 50 45
34 38 37 32 39 41 22 3 14 101 122 125 133 134 138 139
136 140 147 148 144 133 122 123 118 90 57 43 42 26 17 16
16 12 12 10 11 12 13 14 17 14 19 24 23 16 18 16
21 24 27 26 16 14 11 8 5 4 5 3 3 2 5 2
7 10 23 27 30 29 29 26 30 30 34 34 34 33 33 28
11 30 22 20 31 31 28 28 28 27 26 11 21 5 0 0
0 0 0 0 0 15 29 25 26 34 36 36 37 36 36 36
8 0 0 15 35 34 45 46 54 52 53 54 56 48 25 18
12 13 19 18 26 37 37 22 25 110 123 126 134 138 143 144
141 145 148 149 147 145 145 142 133 125 121 96 69 46 29 16
14 12 14 13 13 16 13 12 18 17 12 13 15 18 19 23
31 38 44 38 34 23 21 11 6 3 10 10 6 1 1 1
0 6 17 28 29 30 29 27 30 31 34 35 34 34 32 11
16 20 31 35 35 34 35 35 35 35 34 27 4 0 0 0
0 10 13 12 16 31 30 29 32 36 36 35 37 36 36 36
38 20 16 33 51 49 41 32 50 43 30 35 41 42 5 0
0 0 15 14 23 39 37 27 30 117 121 128 138 143 147 147
147 147 149 148 148 148 146 145 147 145 140 129 112 83 54 34
17 11 9 5 5 6 13 23 23 24 25 25 24 23 26 24
32 40 46 34 20 15 11 13 11 5 7 14 10 11 3 1
1 2 12 30 31 29 30 27 31 32 35 34 34 34 18 21
35 35 35 35 35 36 35 35 35 34 33 5 0 2 1 0
0 33 35 34 34 33 32 32 35 36 37 37 37 37 36 37
54 52 51 53 53 47 24 4 22 14 0 0 6 40 6 0
4 5 10 15 30 41 33 9 39 119 123 132 141 146 148 149
149 149 150 148 149 148 147 143 146 147 146 140 129 113 82 57
42 26 22 22 20 26 21 21 24 24 22 17 19 17 21 26
32 24 30 28 17 13 15 19 15 8 6 7 6 4 3 3
3 1 5 25 30 31 30 28 32 32 35 34 35 25 13 34
35 35 36 36 36 35 36 35 36 36 34 3 0 4 12 0
0 33 36 35 35 34 34 35 35 35 36 35 36 36 36 36
54 55 55 52 47 38 18 0 0 5 0 0 3 40 7 2
26 35 18 9 28 43 33 4 57 119 124 132 139 142 144 146
149 148 145 148 147 148 147 145 144 147 146 144 140 126 106 77
49 36 28 26 27 27 30 29 25 24 21 20 21 21 18 19
21 24 22 19 19 14 10 15 14 15 6 2 5 2 2 0
1 5 3 16 19 30 30 29 32 32 34 34 30 9 31 35
35 36 36 36 36 36 36 36 36 36 34 4 0 0 2 0
0 29 35 36 36 34 34 35 36 36 36 36 37 37 37 37
56 56 56 46 18 18 12 7 2 17 6 0 3 40 8 13
35 33 5 1 29 45 33 2 76 120 123 127 131 135 133 103
62 37 38 48 70 82 86 78 72 64 59 58 58 53 48 39
27 29 26 23 24 22 26 29 25 24 23 23 20 20 24 25
24 25 29 27 31 19 7 3 6 7 9 4 3 2 0 0
0 2 2 8 17 27 31 30 32 33 35 35 19 23 36 36
35 36 36 37 37 36 36 36 36 35 34 4 0 0 0 0
0 26 36 37 36 36 37 38 38 37 38 37 38 38 37 37
35 38 40 43 44 46 41 42 38 41 12 0 4 40 13 4
33 39 4 1 30 47 34 3 92 118 115 107 86 75 23 4
4 32 72 100 111 96 103 108 116 120 107 103 103 106 108 107
103 103 101 109 110 113 98 66 37 13 14 16 20 19 21 25
35 29 28 33 29 34 24 7 0 1 0 7 10 4 0 0
0 0 1 5 11 24 30 30 32 33 35 34 12 34 35 35
36 36 36 37 37 37 37 33 26 20 20 2 0 1 0 0
0 25 38 37 37 37 37 38 37 37 37 38 37 38 37 36
0 0 1 8 34 35 13 7 9 9 3 0 4 40 7 0
16 17 8 4 32 49 35 6 101 117 98 58 14 2 1 1
1 15 18 29 35 36 38 39 35 28 26 24 24 24 26 25
21 17 16 18 16 16 20 21 23 20 10 4 5 16 34 77
111 113 85 39 33 38 33 28 14 0 0 0 0 3 0 0
0 0 0 3 12 24 32 32 33 34 36 32 13 36 36 36
37 37 37 38 38 38 37 12 10 2 1 0 0 0 0 0
0 22 37 37 37 38 38 38 38 38 37 37 38 38 37 37
0 0 0 5 37 40 10 0 0 0 0 0 3 40 7 0
0 0 4 2 30 48 35 14 96 112 77 28 2 4 3 1
1 5 9 14 21 27 36 44 58 68 77 88 101 112 119 112
87 66 55 48 43 34 31 30 28 32 29 29 30 38 81 113
105 113 132 129 45 15 24 21 12 11 8 0 0 0 0 0
0 0 0 0 11 24 32 31 33 33 36 33 14 37 37 37
38 38 39 37 38 37 37 31 40 18 26 1 0 0 1 1
1 15 33 37 38 37 38 38 37 37 38 37 37 37 38 37
0 0 0 6 43 47 16 0 0 0 0 0 2 40 9 0
0 0 0 0 29 49 32 10 71 109 68 5 7 6 2 0
0 31 39 42 58 73 84 95 117 129 136 141 145 147 149 141
107 77 51 48 42 34 32 26 25 21 24 29 38 69 112 78
71 75 92 129 129 23 4 10 9 7 2 2 1 1 0 0
0 0 0 0 7 23 31 32 32 32 36 34 14 36 36 36
37 37 37 37 37 37 37 48 51 19 9 0 0 0 0 0
0 4 8 18 20 28 37 38 37 37 37 37 37 37 37 37
9 13 14 19 49 56 25 0 0 0 0 0 2 37 8 0
0 0 0 0 27 49 32 4 29 104 80 1 10 3 1 0
0 20 51 61 71 72 81 105 136 146 146 149 149 149 150 145
116 81 55 38 31 33 28 29 28 26 28 43 72 108 80 74
123 148 133 115 140 80 0 0 0 2 0 0 0 0 0 1
2 0 0 0 3 23 30 31 31 33 35 34 14 34 36 36
37 37 36 32 30 27 24 10 6 6 0 0 0 0 0 0
0 2 5 1 6 22 38 38 38 37 37 37 37 36 36 36
35 42 42 47 55 44 15 0 0 0 0 0 1 37 7 0
0 0 0 0 26 49 20 4 9 68 68 2 12 1 0 0
0 10 49 43 63 76 80 98 137 148 147 149 149 149 149 145
122 84 55 36 28 25 23 26 26 33 45 74 94 115 92 71
139 149 148 134 130 121 11 7 0 0 0 0 0 0 0 0
2 0 1 0 2 21 30 32 32 33 35 35 17 31 36 36
36 37 26 9 7 9 9 3 0 0 0 0 0 0 0 1
0 1 6 2 4 21 38 39 38 37 37 38 37 37 36 36
44 45 47 54 54 27 1 0 1 0 0 0 1 36 22 14
16 20 25 29 40 44 3 12 7 29 48 4 14 0 0 0
0 1 52 35 36 53 71 84 130 150 149 150 149 149 149 147
127 95 61 38 26 24 19 20 31 49 63 79 104 120 113 95
143 149 149 147 127 132 17 26 6 0 0 0 0 0 0 0
0 3 0 0 4 21 29 31 31 33 35 35 23 26 35 33
30 27 17 4 3 5 4 2 6 4 0 0 0 0 0 0
0 1 7 3 3 19 38 38 38 38 37 37 37 36 36 36
16 20 27 34 53 40 30 30 28 25 23 23 26 42 43 43
45 47 49 49 47 36 2 16 7 5 11 5 6 2 0 0
0 0 40 42 46 44 55 75 121 151 150 150 150 150 149 147
130 107 69 48 33 26 22 23 35 54 66 84 105 119 115 126
145 149 149 148 128 133 21 16 22 2 0 0 0 0 0 0
0 0 1 0 6 21 29 30 30 31 29 25 16 9 10 8
6 6 6 7 8 8 9 8 7 4 11 7 0 0 0 0
0 1 8 3 4 15 38 38 37 37 37 37 36 35 35 36
0 0 4 12 50 53 52 52 51 49 48 49 50 49 46 43
46 46 46 46 46 43 7 11 6 5 10 13 6 1 0 0
0 0 32 56 68 60 56 71 112 151 149 150 150 150 149 149
136 116 84 71 65 47 36 40 53 62 72 88 97 90 82 142
150 149 149 148 131 126 24 6 20 13 1 0 0 0 0 0
0 0 0 0 8 22 29 30 23 11 5 6 6 7 8 10
11 11 11 12 12 12 12 7 3 2 9 14 0 0 0 0
0 1 7 9 12 16 34 36 36 36 37 36 36 36 36 36
0 0 4 13 52 56 56 54 55 53 54 55 55 40 29 31
42 42 42 42 42 42 16 6 7 5 14 23 6 0 0 0
0 0 15 53 85 81 72 74 112 151 150 149 150 150 148 148
138 128 107 87 74 79 62 76 71 98 104 101 99 97 37 73
142 149 148 148 133 121 26 7 9 20 10 0 0 0 0 0
0 0 0 0 9 20 29 30 21 11 10 11 11 11 12 11
10 9 7 6 4 4 11 8 4 6 10 5 0 0 0 4
1 1 5 12 14 17 33 38 38 37 37 37 37 37 36 36
0 0 4 13 51 52 50 46 47 46 46 51 44 24 23 29
41 42 42 42 42 42 25 7 5 38 102 26 17 0 1 0
0 0 8 44 85 84 80 80 115 151 151 149 150 150 149 149
145 140 120 111 90 94 79 95 96 114 131 132 118 112 68 44
113 149 149 145 133 101 25 19 3 9 16 2 0 0 0 0
0 0 0 0 6 19 28 28 14 12 11 6 4 3 1 1
0 0 0 0 0 2 12 11 9 5 7 1 0 0 0 1
0 0 9 9 9 13 34 38 39 37 37 37 37 37 37 36
0 0 2 13 50 27 13 17 12 11 13 19 16 23 24 27
39 42 33 25 23 22 18 4 9 90 112 38 28 5 0 0
0 0 2 31 81 84 82 84 123 152 151 150 150 150 150 149
149 147 139 133 119 113 113 122 122 133 142 139 129 100 129 90
115 145 148 144 138 71 29 25 8 3 5 6 0 0 0 0
0 0 0 0 2 17 28 28 17 11 10 0 0 0 0 0
0 0 0 0 0 4 13 12 11 9 8 9 8 10 12 12
14 16 20 21 19 19 28 26 27 29 37 37 37 37 36 36
0 0 0 11 52 19 0 3 0 0 1 11 8 23 24 27
38 41 28 4 0 0 2 9 48 127 110 56 23 27 0 0
0 0 2 22 74 82 89 92 134 152 151 151 150 150 150 150
149 147 143 132 131 127 128 138 145 149 149 149 141 97 111 114
123 143 148 140 136 42 32 33 16 1 1 4 3 0 0 0
0 1 0 0 2 16 28 28 17 12 7 0 0 0 0 0
0 0 0 0 0 7 14 12 12 31 25 23 25 30 29 25
30 27 25 25 18 17 50 23 18 23 37 37 37 36 35 35
0 0 0 10 50 22 0 3 2 2 5 17 19 23 24 27
38 41 33 9 0 2 3 21 111 142 116 81 19 53 19 0
0 0 1 15 70 82 90 97 144 151 151 151 150 150 150 149
148 145 139 131 127 129 133 146 150 150 150 149 139 112 94 106
143 142 146 138 120 21 27 34 25 4 0 0 0 0 0 0
0 0 0 0 3 14 26 26 15 11 5 0 0 0 0 0
0 0 0 0 0 10 12 12 11 27 20 24 26 34 57 54
71 72 75 35 19 40 117 56 15 20 38 37 36 18 8 7
0 0 0 8 49 23 0 4 3 12 19 20 18 22 24 27
36 41 35 13 1 3 5 64 141 147 125 101 31 46 62 9
0 0 1 22 74 86 92 113 151 151 151 151 150 149 147 147
144 141 135 129 128 129 130 144 150 150 150 145 132 135 98 101
145 142 140 134 79 13 22 23 27 15 0 0 0 0 0 0
0 0 0 0 5 13 25 23 13 11 2 0 0 0 0 0
0 0 0 0 1 13 13 14 11 23 19 26 29 38 91 77
98 95 96 38 20 104 129 115 30 19 37 37 33 1 0 0
0 0 0 6 47 24 0 3 11 19 19 19 18 22 23 26
35 41 36 17 1 4 11 111 149 148 135 111 71 21 73 65
5 0 1 37 82 91 101 141 152 151 151 150 150 149 147 145
142 135 133 127 128 132 132 144 149 149 149 138 127 129 128 128
140 144 129 126 39 13 17 12 18 21 2 0 0 0 0 0
0 0 0 0 15 24 30 21 12 11 0 0 0 0 0 0
0 0 0 0 3 13 13 15 10 14 27 31 36 33 54 46
48 45 40 33 30 59 44 38 29 21 35 37 33 2 0 0
0 0 0 7 45 24 0 0 11 18 19 19 18 22 23 26
34 41 37 20 3 5 48 141 151 146 143 124 108 29 50 69
28 0 11 60 80 98 136 151 151 151 151 150 148 149 145 145
142 137 133 130 131 132 135 139 147 142 145 144 124 140 147 147
145 135 139 88 20 15 13 8 6 17 6 1 0 0 0 0
0 0 0 2 38 45 42 19 11 8 0 0 0 0 0 0
0 0 0 0 6 13 12 16 7 2 29 35 39 28 29 30
24 22 23 25 27 27 26 27 27 19 34 36 36 13 0 0
0 0 0 7 44 25 0 0 8 18 18 19 18 22 23 25
33 40 38 23 3 9 100 141 144 143 148 138 118 94 27 33
22 14 47 79 110 140 151 151 151 149 147 149 149 148 146 141
140 136 134 130 130 131 133 138 138 136 129 142 148 147 144 144
145 144 125 59 25 15 13 7 1 3 3 1 0 0 0 0
0 0 0 0 33 47 38 15 11 6 0 0 0 0 0 0
0 0 0 0 9 13 12 15 2 2 22 28 38 27 28 22
23 20 19 24 28 28 28 27 26 18 33 36 34 33 4 0
21 19 19 25 47 28 0 0 9 17 19 18 17 21 22 25
31 39 38 24 4 43 128 138 139 139 141 143 132 115 105 72
58 79 109 138 149 150 150 150 149 148 143 148 149 145 143 139
141 136 133 133 129 131 130 132 129 126 128 133 146 146 141 141
143 132 87 58 32 20 11 7 0 1 1 1 0 0 0 0
0 0 0 0 34 47 33 12 11 2 0 0 0 0 0 0
0 0 0 0 10 11 12 11 0 0 2 14 38 27 27 17
19 19 19 24 29 28 27 25 25 11 29 29 7 8 4 0
47 47 48 45 44 32 1 0 10 17 17 18 16 20 21 24
30 39 38 26 10 96 132 135 135 135 136 136 136 126 122 114
112 121 135 148 151 149 149 149 148 146 145 147 148 142 143 137
137 137 135 130 128 125 126 123 127 127 124 132 139 143 140 137
122 101 94 64 41 21 13 9 0 1 0 0 0 0 0 0
0 0 0 0 39 45 27 11 10 0 0 0 0 0 0 0
0 0 0 1 11 10 12 8 0 0 0 18 35 26 25 15
21 19 18 25 28 27 26 25 24 11 16 4 0 0 7 0
30 23 17 10 12 30 2 0 9 16 17 17 15 19 21 22
28 37 37 28 37 121 135 134 130 126 126 125 124 131 126 112
114 121 135 148 150 149 148 148 147 146 147 144 145 141 142 136
134 136 132 128 127 125 125 121 127 129 122 130 133 139 132 112
108 110 104 72 47 25 16 8 0 0 0 0 0 0 0 1
0 0 0 7 41 44 21 9 8 0 0 0 0 0 0 0
0 0 0 3 12 10 12 5 0 9 10 27 34 28 24 13
19 18 16 25 27 26 26 24 24 13 0 0 0 4 0 0
9 0 0 0 3 30 6 1 9 15 16 16 15 19 21 23
27 37 38 29 74 134 143 135 131 128 128 125 120 123 123 112
113 118 132 147 149 149 148 148 148 145 146 145 146 144 143 136
135 136 134 131 125 124 122 120 121 124 115 116 124 123 110 112
115 112 107 88 61 45 27 14 2 0 0 0 0 0 0 2
0 0 0 25 49 42 16 10 6 0 0 0 0 0 0 0
0 0 0 6 12 10 12 2 0 13 6 31 33 26 20 5
13 18 16 26 26 26 26 25 25 14 0 0 0 8 0 0
3 0 0 0 5 37 39 28 22 15 15 16 15 18 21 22
27 37 37 32 99 144 144 137 145 144 137 135 136 124 120 112
112 118 131 146 150 143 148 147 148 146 146 144 145 144 143 138
135 138 137 129 125 124 120 117 117 120 112 93 102 102 114 119
118 114 106 95 70 59 33 20 4 2 2 0 0 0 1 0
0 0 0 27 48 37 13 10 3 0 0 0 0 0 0 0
0 0 0 9 11 11 12 0 1 10 6 36 30 20 7 1
13 16 17 24 26 26 25 26 26 15 0 1 6 11 2 1
0 0 0 0 9 40 33 15 14 14 16 16 14 18 21 22
26 36 37 33 95 129 126 121 118 121 124 127 133 124 114 113
109 117 130 142 150 147 146 145 147 148 146 143 143 142 142 138
139 134 133 130 124 123 120 115 114 115 114 96 99 114 117 120
120 114 106 87 57 49 35 19 2 1 3 4 4 6 3 2
2 0 0 30 48 31 11 10 1 0 0 0 0 0 0 0
0 0 0 10 11 13 11 0 5 14 15 37 29 17 6 1
13 15 17 25 26 26 26 26 27 17 6 10 12 12 10 8
0 0 0 0 7 38 19 0 3 14 16 16 15 18 21 21
25 36 37 31 62 111 108 85 37 32 60 94 108 110 115 121
112 113 124 137 148 147 145 141 144 146 141 145 144 141 140 140
138 136 132 134 127 124 119 115 112 113 112 116 116 114 123 130
124 113 102 85 50 39 23 6 7 9 7 9 13 11 6 3
2 2 2 37 47 24 10 9 0 0 0 0 0 0 0 0
0 0 2 12 12 13 8 0 46 51 18 38 29 17 5 3
14 16 19 26 28 27 26 27 28 19 3 5 6 5 2 1
1 0 0 1 5 36 21 0 0 13 15 16 15 16 20 21
24 35 37 31 16 64 95 88 87 103 108 118 109 114 135 137
120 111 115 131 141 143 141 142 140 143 146 144 141 140 140 140
138 135 132 132 129 124 120 110 111 109 108 111 114 116 125 133
124 113 107 98 74 38 23 23 15 11 9 12 12 11 3 5
2 4 9 46 45 18 11 7 0 0 0 0 0 0 0 0
0 0 5 12 12 13 5 1 58 45 20 37 28 18 10 13
19 15 20 27 28 26 26 27 27 20 0 0 0 0 0 0
7 6 9 16 20 36 23 0 0 12 15 15 14 15 19 20
23 34 36 30 10 3 25 57 84 101 125 131 136 143 144 146
134 113 115 127 133 137 138 138 137 139 141 145 141 139 140 140
140 136 130 130 128 124 118 109 109 104 104 107 110 114 122 126
119 115 113 100 85 54 40 35 19 16 14 13 9 10 3 8
7 3 15 50 41 14 11 4 0 0 0 0 0 0 0 0
0 0 8 13 13 14 2 0 15 14 27 35 29 23 18 12
19 17 24 30 29 27 26 27 27 20 1 0 0 0 0 0
23 24 29 37 44 45 32 6 2 12 14 15 14 14 18 19
22 33 36 31 10 1 2 3 8 56 117 136 141 141 142 146
143 127 106 108 132 130 135 136 135 131 133 138 140 143 138 136
138 136 134 130 128 122 120 112 106 101 98 102 104 111 120 122
122 116 114 106 91 58 56 39 18 16 15 10 5 9 6 7
7 8 35 51 33 12 11 3 1 2 2 2 2 2 2 2
2 2 11 13 13 12 0 0 6 11 37 33 30 27 18 14
20 19 25 29 29 26 26 27 27 20 1 0 0 0 0 0
33 35 37 42 47 47 41 35 30 26 16 14 13 13 17 18
21 32 36 30 10 0 2 2 4 12 95 127 134 137 140 144
144 133 116 106 110 127 130 131 133 132 134 134 140 141 138 133
135 138 135 135 126 122 118 113 104 97 87 93 103 108 118 121
120 116 112 104 82 67 51 29 18 15 10 2 12 7 6 5
10 12 47 51 26 11 11 10 10 11 10 10 11 10 11 11
12 11 13 13 14 10 0 0 4 12 40 31 29 25 17 13
19 19 25 28 27 26 27 26 26 20 1 0 0 0 0 0
28 26 26 25 24 23 24 16 14 15 13 12 12 11 16 17
20 31 35 29 10 0 1 2 2 3 66 115 125 132 137 140
138 134 118 102 90 112 129 133 133 131 132 132 127 133 137 135
135 137 133 135 124 118 115 105 100 97 89 94 99 106 116 119
121 120 116 98 73 58 39 22 20 15 5 4 11 3 5 5
13 21 52 50 20 11 11 11 12 11 12 12 12 12 12 12
12 12 12 12 16 8 0 1 4 18 39 31 29 24 17 14
19 19 27 28 28 27 27 27 26 21 1 0 0 0 0 0
15 15 15 15 17 19 22 2 0 6 10 12 10 10 16 17
21 30 34 30 10 0 0 0 1 1 47 111 123 130 138 138
134 127 110 76 49 101 121 127 131 130 129 131 131 134 137 134
136 135 132 132 123 120 113 103 101 95 87 91 96 102 112 120
122 122 115 96 73 60 43 44 28 14 6 9 3 4 5 8
12 29 54 51 18 8 12 13 13 13 22 20 13 12 12 12
15 17 14 8 14 4 0 11 24 29 37 30 29 22 14 12
18 21 27 28 28 27 28 27 28 23 1 0 0 0 0 0
8 6 7 7 15 17 22 3 0 4 10 12 12 11 15 16
20 29 34 29 9 0 0 0 0 0 30 106 112 123 131 131
118 103 82 54 84 115 118 126 130 130 130 128 130 134 134 133
133 128 132 128 123 117 109 101 99 93 87 90 96 101 110 119
122 122 117 97 89 84 82 65 43 19 10 5 2 1 3 7
9 33 50 39 17 11 27 31 39 57 93 89 64 61 43 33
37 34 32 28 9 0 7 39 22 33 37 30 29 17 10 14
15 22 27 28 28 27 28 28 26 22 1 0 0 0 0 0
4 6 8 7 12 21 25 5 0 1 4 8 12 11 15 15
19 28 33 29 11 0 0 0 0 1 5 60 79 91 93 88
81 75 90 127 136 122 118 123 126 129 129 129 130 133 132 130
128 129 131 128 120 113 104 98 92 89 87 92 98 103 110 117
122 120 115 108 102 99 96 66 40 16 7 6 4 1 0 6
13 34 34 19 23 60 98 106 123 138 144 144 134 117 76 18
11 10 12 16 32 15 52 141 59 34 34 30 28 17 16 14
12 22 26 26 29 29 27 29 26 23 2 0 0 0 0 0
21 24 26 26 24 18 20 3 0 3 8 4 11 10 14 15
18 28 32 30 20 12 14 17 19 21 24 33 57 57 62 74
100 131 144 144 132 124 121 122 122 124 120 126 128 131 131 132
129 128 127 123 119 111 103 94 91 87 91 98 100 101 110 118
122 120 117 110 103 103 102 91 55 26 26 42 7 0 2 9
18 44 43 40 40 62 102 106 117 128 135 145 135 118 75 11
10 10 9 13 22 23 86 146 47 38 32 29 26 12 11 2
6 20 22 20 24 26 27 27 27 23 2 0 0 0 0 0
26 28 31 30 30 25 8 3 0 4 10 4 10 10 14 16
18 28 33 33 32 31 29 32 33 33 33 33 61 79 104 127
135 145 145 140 128 127 129 123 125 125 124 126 128 129 129 129
125 125 122 117 112 104 96 92 85 86 96 98 99 100 109 116
121 123 118 112 105 108 108 105 85 71 78 76 18 2 4 12
22 37 38 46 53 55 84 106 120 134 139 137 128 110 62 8
6 8 6 27 7 0 45 56 20 43 29 10 6 0 0 1
0 1 9 28 29 26 26 22 27 25 3 0 0 0 0 0
28 24 26 29 32 27 15 7 2 5 6 3 3 6 13 15
17 27 33 33 32 31 26 32 32 32 32 34 80 98 116 125
136 141 137 141 137 135 133 128 126 126 129 127 127 127 127 125
124 122 119 116 107 100 94 89 81 89 95 98 97 101 108 117
123 123 120 115 109 110 109 107 100 94 91 78 34 0 12 12
18 20 21 40 44 38 54 82 40 88 103 96 81 57 14 8
9 7 19 45 35 35 47 56 46 50 27 4 0 0 0 0
0 0 0 23 19 20 27 20 21 23 4 0 0 0 0 0
27 24 21 33 38 24 8 1 0 0 1 2 1 6 10 13
15 25 33 32 33 31 28 30 30 29 29 28 64 90 111 123
131 133 134 136 138 139 138 135 131 130 127 130 132 128 125 124
120 112 113 105 96 92 85 80 85 95 98 99 100 104 108 116
123 124 120 115 113 111 111 108 105 100 95 87 40 5 6 13
23 17 5 11 36 58 63 58 27 4 5 6 10 8 5 9
14 63 81 93 101 100 95 100 99 78 34 35 0 0 0 0
0 0 0 10 16 25 25 18 14 8 14 11 2 0 0 0
18 19 17 39 28 15 0 0 0 0 0 0 0 3 3 5
7 12 17 15 14 13 12 12 11 12 16 20 55 78 97 112
122 132 136 137 138 135 135 138 136 132 131 133 133 130 125 122
118 115 109 99 90 84 77 83 92 95 99 102 102 107 113 116
123 121 118 116 114 112 111 109 105 100 98 90 57 13 3 9
31 18 3 0 4 37 59 67 74 46 18 12 15 14 15 28
64 108 99 104 105 95 86 98 100 77 19 26 0 0 0 0
0 0 0 1 21 31 18 14 17 8 2 4 2 0 0 0
13 9 30 44 23 19 7 0 0 0 0 0 0 1 0 0
0 0 0 0 0 0 2 4 3 6 19 34 69 59 84 102
119 129 135 137 134 134 137 140 141 137 134 133 133 125 124 118
109 106 97 85 79 75 76 87 95 98 99 101 105 109 116 121
123 122 122 117 112 111 112 111 106 102 97 92 77 45 3 7
33 33 5 2 3 5 5 5 14 37 69 64 41 48 87 79
59 66 78 89 91 90 90 92 96 72 9 7 5 4 6 4
4 8 8 6 12 11 1 0 0 0 0 0 0 0 0 0
12 7 66 22 5 15 17 4 0 0 0 0 0 0 0 0
0 0 0 0 0 2 8 10 5 5 21 52 60 26 59 100
116 128 136 138 139 139 142 142 142 137 137 135 130 120 114 110
106 95 80 71 72 78 86 91 95 98 102 104 108 114 121 126
125 124 121 116 114 114 113 110 108 103 97 92 83 70 18 11
42 64 11 17 20 26 33 43 39 25 25 52 72 73 63 66
84 105 111 98 73 65 63 53 54 47 33 31 29 22 16 8
2 5 5 3 0 0 0 0 0 0 0 0 0 0 0 0
22 11 48 1 0 9 20 22 0 0 0 0 0 0 0 3
4 3 2 1 1 2 9 13 13 8 23 63 40 3 41 109
118 130 135 139 143 143 146 144 143 141 138 134 127 122 111 104
93 78 66 68 76 86 92 93 96 98 101 107 113 120 122 113
123 125 119 116 114 113 113 111 109 103 98 93 85 75 35 5
15 49 51 70 97 135 146 148 147 121 83 71 73 77 92 129
147 146 145 145 126 87 59 41 36 28 20 15 17 13 11 6
1 2 2 1 0 0 0 0 0 0 0 0 0 0 0 0
15 12 25 0 2 1 20 12 0 0 0 2 4 5 4 5
7 5 5 4 5 7 13 18 18 6 30 64 29 21 61 117
125 132 138 145 145 146 144 139 138 134 139 134 123 114 108 93
77 69 70 78 84 90 95 96 97 102 108 117 122 125 124 112
124 124 120 117 113 111 112 112 109 104 96 92 87 77 48 0
15 40 43 57 86 112 147 149 128 81 67 53 54 55 79 118
148 147 147 147 136 95 61 45 33 26 20 17 18 13 12 6
2 2 3 1 1 0 0 0 0 0 0 0 0 0 0 0
0 11 15 0 4 0 3 0 1 4 1 8 6 12 12 11
11 11 12 17 22 24 22 19 15 2 39 52 14 28 68 117
126 133 138 142 140 139 142 137 131 128 129 124 112 105 93 76
71 72 75 82 89 95 98 102 106 111 117 125 128 128 128 128
123 122 118 115 113 112 109 111 107 102 95 94 87 80 57 0
20 38 48 51 83 105 146 149 127 78 66 56 54 57 83 121
148 146 143 147 137 94 59 45 35 27 21 18 17 13 13 8
3 1 5 1 1 0 0 0 0 0 0 0 0 0 0 0
0 12 17 4 9 0 0 0 0 2 0 2 5 10 9 9
9 11 13 18 27 28 18 10 5 2 47 49 4 25 69 115
123 127 135 137 136 136 137 131 128 124 119 112 102 89 72 69
72 75 81 89 93 100 105 110 116 122 126 131 133 132 131 130
125 122 118 114 115 111 111 109 106 100 96 94 88 81 63 1
21 33 39 47 59 101 145 149 129 81 65 51 47 58 77 114
149 146 139 147 136 92 62 43 34 27 21 18 17 14 13 8
4 1 4 2 0 0 0 0 0 0 0 0 0 0 0 0
4 17 21 12 9 0 0 0 1 0 0 0 6 6 6 5
6 6 8 16 26 24 6 0 0 4 53 50 6 25 57 113
123 127 126 131 131 133 127 122 121 116 111 101 88 73 69 71
75 78 86 93 99 109 114 119 123 128 124 133 135 136 133 131
126 121 117 113 111 110 108 107 103 99 96 94 88 81 59 0
34 45 36 40 33 50 112 149 130 83 62 47 50 62 79 116
149 146 141 148 138 94 64 45 34 27 23 18 18 15 14 10
4 2 4 3 0 0 0 0 0 0 0 0 0 0 0 0
2 16 19 12 10 0 0 0 0 1 0 0 5 4 4 6
7 7 8 15 26 22 6 1 0 5 56 51 10 19 27 104
115 122 119 122 125 124 121 117 114 101 93 83 72 66 67 68
70 79 89 101 113 120 125 126 128 133 121 132 139 135 133 130
124 119 115 110 109 108 106 104 102 98 95 93 89 80 52 0
48 70 34 42 36 43 35 45 57 66 57 46 50 59 77 116
150 146 141 149 139 95 65 46 33 26 24 17 18 14 14 11
5 4 4 2 0 0 0 0 0 0 0 0 0 0 0 0
6 26 18 11 10 0 0 0 4 3 1 2 5 7 5 7
9 8 9 16 26 20 12 10 1 5 55 65 25 23 8 75
105 113 115 114 116 114 106 103 95 83 69 60 55 52 53 56
62 78 97 114 123 129 126 126 132 133 136 133 137 136 134 129
122 118 115 109 107 106 105 101 100 97 94 90 88 82 44 0
36 35 40 29 34 27 40 52 39 49 29 40 50 58 78 113
149 146 140 150 139 94 67 47 29 23 20 16 17 14 14 11
4 6 4 3 0 0 0 0 0 0 0 0 0 0 0 0
12 13 4 6 10 3 0 0 2 0 0 0 4 8 3 7
9 10 14 26 33 29 23 22 5 3 45 59 38 21 1 29
87 97 102 103 103 100 92 82 64 53 42 33 24 26 29 36
51 79 106 120 129 133 134 139 137 135 133 133 137 135 132 129
124 119 112 111 107 107 104 103 98 95 93 90 87 80 29 0
36 31 43 26 24 21 26 45 85 36 21 24 31 53 75 110
149 146 141 149 141 97 68 46 30 22 17 14 16 16 15 12
5 7 5 2 0 0 0 0 0 0 0 0 0 0 0 0
3 3 4 6 7 5 0 0 1 0 2 0 10 13 3 7
7 8 27 37 32 28 21 21 5 1 43 57 50 16 0 20
46 68 76 79 82 75 61 46 42 66 45 4 0 0 5 19
39 86 114 125 133 139 138 136 134 134 133 133 131 131 133 128
124 118 114 110 108 105 104 102 98 96 93 90 85 78 15 4
38 32 38 27 25 24 21 37 60 49 27 23 24 25 37 66
107 136 141 150 141 97 63 40 29 23 16 10 14 15 15 13
5 8 6 2 0 0 0 0 0 0 0 0 0 0 0 0
12 13 17 15 6 4 1 0 0 0 0 0 7 14 4 7
5 3 17 33 36 34 28 27 9 0 29 40 32 8 0 13
35 70 44 38 38 36 33 58 72 42 32 5 0 0 0 7
22 81 116 127 136 138 142 136 134 128 130 129 132 131 132 127
122 118 115 110 106 104 103 100 99 98 95 89 88 67 4 5
40 29 39 32 37 47 25 44 38 23 39 56 42 26 44 52
40 41 70 102 83 87 65 39 35 27 16 10 14 15 16 13
5 7 5 1 0 0 0 0 0 0 0 0 0 0 0 0
21 23 22 20 13 1 4 0 0 0 0 0 6 20 21 15
8 2 5 13 22 21 13 8 2 0 2 2 2 17 34 54
59 65 33 22 27 32 49 97 50 31 37 8 0 0 0 2
14 71 111 124 133 139 140 132 126 126 126 124 128 129 130 127
122 120 114 110 107 105 104 102 100 98 94 91 88 44 1 25
42 28 43 29 30 47 49 48 25 21 24 24 44 71 63 41
37 36 36 54 70 68 53 44 37 27 16 12 14 15 14 13
6 7 6 2 0 0 0 0 0 0 0 0 0 0 0 0
14 15 18 18 10 0 7 1 0 0 0 0 0 9 27 10
1 0 0 0 0 0 0 0 0 0 0 16 29 41 64 43
34 52 36 27 26 57 58 39 47 31 30 16 2 0 0 0
10 65 105 120 130 138 137 129 125 124 124 123 126 130 129 124
124 120 113 110 107 105 104 103 99 99 96 93 81 18 6 63
69 31 38 34 44 28 71 67 25 26 24 23 22 56 93 62
34 35 32 33 67 98 52 40 32 25 18 13 15 15 14 13
6 8 5 2 0 0 0 0 0 0 0 0 0 0 0 0
2 2 2 1 0 13 33 1 3 1 0 0 0 0 10 1
0 0 0 0 0 0 0 0 0 3 23 48 38 58 45 35
31 53 50 42 61 50 29 39 27 21 28 44 65 17 2 1
18 66 101 110 123 133 129 123 120 119 119 123 128 129 128 125
123 118 115 111 107 105 103 103 101 98 96 94 61 5 18 54
55 30 41 53 44 94 51 70 46 29 29 24 28 52 35 44
63 29 36 38 70 50 38 41 41 43 31 19 16 17 15 13
6 7 3 3 0 0 0 0 0 0 0 0 0 0 0 0
0 0 0 0 0 21 55 2 9 2 0 0 0 0 10 2
0 0 2 3 2 2 1 1 11 20 28 74 66 41 41 42
38 54 84 72 28 18 25 43 46 31 36 72 107 40 21 2
49 81 99 102 114 122 122 116 115 116 119 122 122 130 131 127
124 120 116 110 106 105 103 101 99 98 98 91 34 6 21 40
39 29 29 30 19 55 33 33 36 64 39 24 40 44 27 27
47 66 35 55 65 42 42 41 37 36 61 69 36 18 16 14
6 6 3 3 0 0 0 0 0 0 0 0 0 0 0 0
0 0 0 0 0 3 13 5 5 0 0 0 0 0 13 11
0 0 0 0 0 2 18 28 40 52 52 64 56 42 45 45
68 69 76 92 42 47 55 82 67 56 54 68 75 41 39 15
37 98 99 97 101 112 115 112 113 116 117 122 127 129 130 128
126 122 115 109 106 103 101 100 99 100 99 70 16 14 36 37
36 27 26 23 20 40 18 16 20 27 59 45 41 45 30 26
33 38 72 112 80 54 59 62 46 56 64 42 39 41 23 14
6 6 1 3 0 0 0 0 0 0 0 0 0 0 0 0
0 0 0 0 0 0 0 0 0 0 0 0 0 0 1 4
0 0 0 0 10 53 68 52 42 39 42 46 66 47 61 47
46 47 55 74 32 34 48 66 38 37 31 42 55 57 39 32
12 76 101 98 92 90 97 102 110 117 123 128 128 128 131 129
126 122 114 107 102 102 102 99 101 101 91 32 15 40 41 34
33 27 26 19 18 49 22 19 20 28 41 24 75 58 27 35
35 35 63 59 32 43 45 56 81 113 73 39 34 32 39 28
8 8 1 3 0 0 0 0 0 0 0 0 0 0 0 0
0 0 0 0 0 0 0 0 0 0 0 0 0 0 0 0
0 0 1 24 58 87 65 37 36 39 41 38 39 33 73 34
39 37 61 59 28 21 26 48 28 26 23 29 47 69 39 40
30 21 95 102 98 91 94 103 113 122 125 126 128 133 132 130
126 119 113 106 101 99 99 101 102 98 59 20 38 47 36 30
31 26 34 19 18 53 21 20 20 42 38 23 18 34 46 34
36 35 64 52 32 33 39 36 64 72 46 71 71 43 30 32
39 10 1 3 0 0 0 0 0 0 0 0 0 0 0 0
0 0 0 0 0 0 0 0 0 0 0 0 0 0 0 0
0 6 41 66 54 41 48 33 36 65 40 36 39 36 81 35
42 41 64 53 31 24 26 52 31 28 26 24 36 81 39 41
45 26 45 105 101 98 100 108 114 120 126 128 132 133 133 129
124 117 110 101 98 99 101 102 102 80 27 26 66 68 52 25
39 25 25 18 16 56 23 22 20 46 27 22 20 16 64 39
32 31 60 61 39 42 39 41 75 56 36 35 36 55 48 41
61 50 2 3 1 0 0 0 0 0 0 0 0 0 0 0
4 3 3 3 2 1 0 0 0 0 0 0 0 0 0 0
16 50 57 44 50 60 41 36 36 62 36 34 36 34 80 35
40 40 62 54 37 29 24 53 27 26 23 21 37 63 58 58
77 63 23 72 110 106 105 110 117 123 129 131 131 134 131 127
119 113 106 101 100 101 104 106 93 39 23 43 72 61 51 38
55 56 32 26 24 70 23 21 19 44 25 25 21 18 72 36
35 38 34 73 45 35 34 38 78 31 32 33 36 49 52 81
40 35 28 5 0 0 0 0 0 0 0 0 0 0 0 0
0 0 0 0 0 0 0 0 0 0 0 0 0 0 0 27
87 56 33 39 47 58 39 31 32 58 31 31 38 37 79 41
41 41 50 47 37 34 24 53 27 27 24 22 38 50 116 74
49 47 36 37 97 114 110 113 118 123 126 128 128 130 129 124
118 112 106 102 100 104 109 109 63 23 38 97 54 37 37 37
51 76 51 45 46 97 43 34 25 42 24 22 17 18 66 28
35 36 31 69 45 36 45 53 99 49 47 50 45 92 53 66
42 26 49 20 2 0 0 0 0 0 0 0 0 0 0 0
6 6 5 5 6 5 5 3 2 1 0 0 0 0 25 51
61 48 41 46 55 71 52 60 54 91 49 44 36 36 77 35
37 38 41 49 47 53 38 56 19 23 22 20 49 68 123 46
36 42 47 30 52 107 112 109 111 117 120 121 121 123 125 123
118 112 105 101 102 108 113 90 35 30 50 72 40 34 29 27
55 29 27 30 26 75 45 56 51 81 47 33 27 30 92 57
53 44 41 85 62 56 73 70 123 76 77 77 72 87 63 49
40 42 30 45 13 0 0 0 0 0 0 0 0 0 0 0
3 3 3 3 3 4 3 3 3 3 1 0 0 13 61 49
90 64 64 76 99 102 79 73 69 107 68 63 63 69 113 66
59 60 73 89 64 79 75 93 38 46 49 50 90 67 85 44
44 44 45 33 41 66 110 108 104 107 111 114 118 122 123 121
117 112 103 100 104 112 105 52 32 42 57 57 35 30 26 33
69 21 20 18 14 56 19 31 38 80 62 53 45 49 110 73
80 70 71 110 83 52 47 41 94 38 49 56 44 52 33 54
52 51 29 37 33 4 0 0 0 0 0 0 0 0 0 0
4 4 5 4 4 4 4 3 2 1 3 0 7 64 55 50
58 21 38 44 61 54 45 42 40 74 34 38 44 46 101 62
69 71 77 98 50 54 59 80 24 30 37 40 87 42 70 48
53 41 48 37 40 53 82 113 105 103 105 110 117 121 125 124
118 110 104 103 108 112 74 43 38 48 76 46 37 25 24 54
59 19 23 18 16 59 19 21 19 45 33 27 25 27 78 34
40 43 50 86 55 31 33 28 78 26 31 39 36 54 21 35
84 76 33 23 61 42 0 0 0 0 0 0 0 0 0 0
5 5 6 5 4 4 4 3 2 0 3 0 54 67 38 58
54 22 36 38 64 44 38 39 44 77 39 35 36 26 68 31
37 37 41 69 31 37 53 58 22 19 18 21 50 26 53 68
46 38 26 25 41 48 63 92 116 111 109 112 116 122 124 123
117 111 106 107 110 97 61 48 48 52 55 39 30 26 37 56
50 20 22 19 14 58 20 23 22 49 27 17 16 19 72 31
35 29 33 67 43 37 34 34 81 33 36 42 50 51 19 22
89 66 45 31 53 84 13 0 0 0 0 0 0 0 0 0
7 6 6 5 4 4 4 2 2 1 5 25 89 36 28 65
48 21 34 38 70 44 35 39 42 67 40 36 35 34 68 32
37 36 39 74 39 35 52 56 28 21 18 22 44 20 38 77
39 24 5 23 55 41 63 76 98 120 117 114 115 119 123 123
121 116 110 107 99 73 66 48 41 70 14 16 38 48 67 23
46 20 22 20 14 57 22 22 21 52 27 20 19 23 75 32
35 32 34 67 43 36 31 32 78 29 33 38 53 50 17 53
56 50 78 53 48 42 27 2 0 0 0 0 0 0 0 0
8 7 7 6 5 5 2 1 1 0 7 37 71 40 29 61
52 22 36 38 75 47 36 42 41 67 42 42 35 37 64 32
33 36 39 80 42 33 42 54 31 22 18 24 35 19 33 71
41 0 4 53 59 66 52 76 85 103 121 119 116 118 122 128
126 117 110 106 73 76 79 58 63 94 0 7 42 86 82 19
59 27 19 17 14 52 21 22 23 52 28 19 20 23 78 35
36 32 31 64 41 38 31 35 73 30 34 39 55 46 15 81
28 30 71 56 27 26 33 18 0 0 0 0 0 0 0 0
7 7 7 6 5 4 3 1 1 0 17 51 63 71 27 62
64 27 29 37 70 44 29 38 36 56 38 40 33 35 55 31
35 35 39 82 46 38 41 61 32 23 17 25 27 24 30 65
19 0 24 83 40 54 60 73 87 94 103 120 123 117 121 128
126 119 112 83 71 90 84 81 81 53 1 35 42 68 51 40
91 57 38 27 22 72 23 19 22 48 25 21 23 29 71 32
35 32 34 64 36 35 28 31 63 27 32 35 47 64 41 54
26 23 36 65 31 29 31 32 13 0 0 0 0 0 0 0
2 8 8 7 5 4 4 1 0 5 29 47 38 85 33 56
89 48 39 49 99 66 52 47 52 79 44 47 39 36 49 25
30 33 37 77 40 35 32 58 32 27 27 40 19 21 29 49
6 0 20 65 51 37 48 70 89 100 102 106 123 126 127 131
131 121 101 64 88 92 56 50 51 11 24 26 57 27 33 31
82 55 47 43 42 106 51 40 38 46 31 20 23 30 60 40
40 31 34 76 53 45 37 43 73 55 63 61 62 91 49 27
25 27 27 57 64 33 31 36 21 5 0 0 0 0 0 0
