P2
128 120
156
46 41 41 41 40 39 38 39 40 40 40 39 38 38 38 38
38 38 38 37 37 37 37 36 37 36 36 35 35 35 34 34
34 33 33 32 32 31 31 31 30 29 29 29 28 28 27 27
26 26 25 25 25 24 24 23 23 23 22 22 21 20 20 19
19 19 19 20 23 23 23 22 16 9 10 21 21 20 19 19
18 18 17 17 16 14 16 16 18 18 18 18 19 19 19 19
20 19 19 20 21 21 21 21 22 22 23 22 22 22 22 23
24 25 26 26 26 27 27 28 28 29 28 28 28 28 29 29
59 61 60 58 55 50 51 52 55 58 59 53 39 38 38 38
37 38 38 37 37 37 37 36 36 36 36 35 35 35 35 34
34 33 32 32 31 32 31 31 30 30 29 29 29 27 28 27
27 26 26 26 25 25 25 24 23 22 22 22 22 21 21 20
20 19 19 20 24 24 24 23 18 15 14 23 22 21 21 20
19 19 18 17 16 15 15 16 18 18 19 19 19 20 20 20
21 20 21 21 21 21 22 22 22 22 22 23 23 24 24 25
25 26 26 26 27 27 27 28 28 29 30 29 29 29 29 30
51 56 44 35 36 37 40 39 39 41 55 57 49 44 41 38
37 37 37 37 37 36 37 36 36 36 36 35 35 34 34 34
33 33 33 33 32 32 31 31 30 30 30 29 28 28 28 27
27 26 26 26 25 25 24 25 24 23 23 22 22 21 21 20
20 19 20 21 23 24 24 23 18 16 15 23 22 22 21 20
20 19 18 17 18 15 16 18 20 20 20 20 20 20 20 20
21 20 21 21 21 21 21 22 23 23 24 24 24 24 25 25
25 26 26 26 27 27 28 28 28 28 29 29 29 29 29 30
45 48 19 0 0 0 1 0 0 0 42 54 54 55 53 45
40 40 40 39 39 37 37 36 36 36 36 35 36 34 34 34
34 33 32 32 33 32 32 31 31 30 30 29 29 29 28 28
27 28 26 26 26 25 25 25 24 24 24 23 23 22 21 21
21 20 20 22 24 24 24 24 18 16 16 22 23 22 22 21
20 20 19 18 18 16 17 17 20 21 20 20 21 20 21 21
21 21 21 22 22 22 22 23 24 24 24 25 25 25 25 26
26 26 27 27 28 28 28 28 29 29 29 29 30 30 30 30
43 45 21 0 0 0 10 0 0 0 35 51 47 42 27 32
38 43 50 52 52 49 43 36 36 36 35 35 36 35 35 34
34 34 33 33 33 33 32 31 31 30 31 30 29 29 28 28
27 27 26 26 26 26 25 25 25 24 24 23 23 22 22 22
21 21 21 21 25 24 25 25 20 17 18 21 23 23 22 22
20 20 19 18 19 17 17 19 20 21 21 20 20 21 20 21
22 21 22 22 22 23 23 23 24 25 24 25 25 25 25 26
26 26 26 27 27 27 28 28 29 29 30 29 29 30 30 30
42 45 22 0 0 0 5 0 0 0 28 51 47 35 0 0
4 11 19 27 36 49 46 35 36 35 35 35 35 35 35 34
34 34 33 32 32 32 32 31 30 30 31 30 30 29 29 28
27 27 27 27 26 26 25 26 25 24 24 23 24 23 22 22
21 21 21 22 25 26 26 25 19 18 20 19 24 23 23 22
21 21 20 20 19 17 17 17 20 20 20 21 21 22 22 22
23 23 23 23 23 23 24 24 24 24 25 25 25 25 25 26
27 27 27 27 27 27 29 28 29 29 30 29 29 30 31 31
41 44 24 0 0 1 4 1 0 0 24 51 48 34 0 0
0 0 0 0 4 46 47 36 37 36 35 35 35 35 35 34
34 33 33 33 33 33 32 32 32 31 31 30 30 29 29 28
28 27 28 28 27 26 26 26 26 25 25 24 24 23 23 22
21 22 22 23 25 26 26 26 21 18 22 19 25 24 23 23
22 22 21 20 20 19 18 19 21 22 22 22 23 22 22 22
23 23 23 24 24 23 25 25 25 25 25 26 26 26 27 27
27 27 27 27 29 28 29 29 29 30 31 30 30 30 31 30
38 45 31 0 7 6 3 1 0 1 18 50 46 35 0 0
0 0 0 0 2 44 46 35 36 35 36 35 35 35 35 35
34 34 34 33 33 32 32 31 31 31 30 31 30 30 29 29
28 28 29 28 27 27 26 26 25 25 25 24 24 24 24 23
23 23 23 23 26 26 26 26 21 18 22 19 25 25 24 23
23 23 22 21 20 19 18 20 22 22 23 22 23 23 23 23
23 24 24 24 24 24 24 25 25 25 25 26 26 26 26 26
27 27 28 28 28 29 30 30 30 29 29 29 28 29 29 30
39 48 40 0 17 4 0 0 0 0 14 50 46 36 0 0
6 7 0 0 2 43 46 36 36 36 36 36 35 35 35 34
34 34 33 33 34 33 32 33 32 31 30 30 30 30 30 29
28 28 28 27 27 27 27 27 26 26 25 25 25 24 24 23
22 22 22 23 26 26 27 26 22 20 24 19 26 25 25 24
23 22 22 21 21 19 18 21 22 22 22 23 23 24 24 24
24 24 25 24 24 24 25 25 25 25 25 26 27 27 27 27
28 28 27 29 28 28 28 28 29 29 29 30 31 31 31 31
38 47 44 4 12 1 0 0 0 2 11 50 49 37 0 2
8 7 0 0 1 41 46 36 35 35 35 35 35 35 35 34
34 34 34 33 34 33 32 32 31 31 31 31 30 30 30 30
29 29 29 28 28 27 27 27 26 26 25 25 24 24 24 24
24 23 23 24 26 27 27 27 22 19 25 19 26 25 25 24
23 22 23 21 21 20 18 20 23 23 23 24 24 24 24 24
25 24 24 24 25 25 25 25 26 26 27 27 27 27 27 28
28 27 28 28 29 29 30 29 30 30 30 30 30 30 30 30
36 45 49 10 7 1 0 0 0 0 9 48 47 37 1 0
1 4 2 0 1 42 45 36 36 36 35 35 35 35 35 34
33 33 33 33 33 32 33 32 32 32 31 31 31 30 29 29
29 29 28 28 28 27 27 27 27 27 26 26 25 25 25 23
23 23 23 24 26 27 27 27 22 19 26 20 25 25 26 25
24 23 23 21 22 21 18 21 23 24 24 24 24 25 24 25
25 25 24 25 25 25 26 26 26 27 26 27 26 27 26 27
28 28 29 29 29 30 30 30 30 30 31 30 31 31 31 31
35 36 43 10 6 0 0 0 0 0 6 43 46 38 1 0
0 8 8 0 1 41 45 36 36 35 35 35 35 35 34 34
34 34 34 34 33 33 33 32 32 31 31 31 31 30 30 29
29 29 29 28 28 27 27 26 26 26 25 26 25 24 23 23
23 23 23 24 26 28 28 28 23 20 26 20 24 25 25 24
23 22 22 22 21 21 19 22 24 24 25 24 24 25 25 25
25 25 26 25 26 25 26 26 26 26 26 26 27 27 27 28
28 29 30 29 30 30 30 31 30 30 31 31 31 31 31 31
37 32 36 23 21 22 26 24 25 26 27 37 45 41 2 0
2 3 6 0 1 39 43 36 36 36 35 35 35 35 35 34
34 33 34 33 33 33 32 32 32 31 31 31 30 30 30 30
29 28 29 29 28 28 27 26 26 26 26 24 24 25 24 24
24 23 23 24 25 28 28 27 23 20 26 22 25 27 26 25
24 23 22 22 21 21 18 21 23 24 24 24 24 25 25 26
25 25 26 26 26 26 26 26 27 27 27 27 27 28 28 28
28 28 30 30 30 29 30 30 30 30 31 30 31 31 31 31
30 29 31 30 28 29 30 27 28 28 27 26 38 40 7 1
2 2 4 6 8 40 44 36 36 35 34 35 35 34 35 34
34 34 34 33 33 33 33 33 32 31 32 31 31 31 30 29
29 29 30 30 30 27 28 27 29 30 30 25 25 27 25 24
24 24 24 24 25 26 28 29 25 20 26 24 23 27 26 25
25 23 23 23 23 22 19 23 24 25 25 25 25 24 24 24
25 25 25 25 26 26 27 27 27 27 28 28 28 28 28 29
29 29 29 31 30 30 31 31 31 30 31 30 30 30 31 31
16 16 18 18 19 19 21 23 28 31 32 31 32 35 33 31
28 23 19 16 20 41 43 35 36 36 36 36 35 35 35 34
34 33 33 33 33 32 32 32 32 31 31 31 31 31 31 30
30 29 29 28 27 28 29 28 29 27 32 30 27 27 28 27
26 25 26 26 26 27 29 27 25 21 27 26 23 27 27 26
25 23 24 23 23 22 20 23 23 24 24 24 24 25 25 25
25 26 26 25 27 26 27 27 27 27 27 27 28 28 28 29
29 29 30 31 30 30 30 31 30 31 30 31 31 31 31 31
15 15 15 15 15 15 15 15 18 20 24 26 22 22 24 26
29 32 35 37 38 40 39 36 36 36 36 35 35 35 35 34
34 33 34 34 33 33 33 33 32 32 32 31 31 31 30 30
30 29 27 29 32 38 38 36 32 31 31 26 28 28 30 31
32 29 25 24 28 29 29 30 26 20 28 30 21 27 27 26
25 25 24 23 23 23 18 23 23 25 25 26 26 26 26 26
26 26 26 27 28 26 27 27 27 28 27 28 28 29 29 29
29 30 30 30 30 30 31 31 31 31 31 31 31 31 31 31
19 14 15 14 13 14 13 14 15 14 15 14 15 15 15 17
20 23 26 29 31 33 36 36 35 36 36 35 35 35 34 34
34 34 33 33 33 32 33 32 32 32 32 32 31 30 31 31
31 30 31 40 42 34 30 24 19 22 26 28 30 30 32 31
30 25 22 19 21 25 26 29 25 20 26 30 21 27 27 26
25 25 24 23 23 22 19 23 24 25 25 25 25 26 26 26
26 26 27 27 28 27 27 27 27 27 27 27 28 28 29 28
29 29 30 30 30 30 30 30 30 30 30 30 31 31 31 31
33 32 24 24 15 15 14 16 18 16 16 16 15 14 13 13
13 13 14 16 18 22 25 29 32 34 35 35 35 35 34 33
33 33 33 33 32 32 33 33 33 32 32 31 31 31 31 30
31 32 36 35 35 37 35 29 21 18 15 21 26 26 31 34
32 30 28 23 22 20 19 24 27 22 24 30 20 27 27 26
26 25 24 24 24 23 20 24 24 25 26 26 25 26 26 25
25 26 27 27 28 27 27 28 28 28 28 28 28 29 29 29
29 29 30 30 30 30 30 31 31 31 31 30 28 29 29 29
22 31 30 43 44 41 35 32 33 33 33 35 37 24 14 14
14 14 14 14 14 15 14 15 16 16 21 23 26 29 31 34
34 34 33 33 33 33 32 32 32 32 32 32 31 32 33 32
36 34 36 36 33 30 27 27 29 25 20 14 20 19 30 28
32 34 33 34 33 30 24 19 22 23 25 29 22 26 28 27
26 25 25 24 24 24 21 25 24 26 26 26 26 27 27 27
28 27 28 28 29 28 28 28 28 28 28 28 29 28 29 30
31 30 31 31 31 30 31 30 31 30 30 30 30 31 31 30
15 17 19 38 15 9 10 18 30 30 32 43 55 46 32 26
24 24 23 21 18 17 15 15 16 15 16 16 14 10 15 30
35 34 34 34 34 34 34 33 33 33 33 31 30 33 33 36
32 35 34 28 26 27 25 23 22 27 27 12 12 14 21 17
27 37 34 28 32 30 25 24 16 21 26 32 23 26 27 27
27 25 25 24 24 24 21 25 25 27 27 27 27 28 27 27
28 28 28 28 29 28 29 29 29 29 29 30 29 30 29 29
30 29 29 29 30 30 30 30 30 31 31 31 30 31 31 32
15 17 18 36 9 0 0 12 33 31 35 43 51 52 50 48
40 47 47 44 40 25 20 20 17 14 14 15 14 11 14 29
35 35 34 34 33 32 33 33 33 33 32 32 32 32 28 32
38 36 25 14 12 15 17 17 26 21 21 13 6 8 15 20
27 30 32 30 22 19 25 24 22 18 23 27 24 24 27 27
27 26 26 25 25 25 21 25 25 27 27 27 28 28 28 28
28 28 29 29 30 30 29 29 29 30 29 29 29 30 29 29
30 30 30 30 31 31 31 31 30 31 30 31 30 31 31 31
17 17 19 38 10 0 0 7 19 21 24 37 48 52 53 51
46 45 50 49 47 33 31 37 38 31 31 26 20 12 15 28
35 35 35 34 34 38 38 37 36 34 33 32 34 29 32 43
35 20 14 11 15 17 11 19 21 26 14 10 8 6 14 21
16 18 23 17 10 7 9 20 25 20 20 25 23 24 29 28
27 27 26 25 25 25 22 25 25 28 28 28 28 28 29 29
29 29 29 29 29 29 28 28 29 30 30 31 31 29 31 30
31 30 31 30 30 30 31 31 31 30 31 33 31 31 31 31
19 16 20 41 12 0 0 6 6 1 0 28 47 43 31 39
34 40 45 49 49 37 36 41 42 39 47 46 41 16 17 29
35 35 35 34 35 44 44 42 39 37 36 37 34 31 47 33
20 13 24 21 21 21 18 20 19 22 22 11 8 7 15 12
5 9 10 17 26 21 12 11 19 27 23 22 25 24 28 28
28 27 27 26 26 26 24 26 26 28 28 29 29 29 29 29
28 29 29 29 29 29 30 30 30 29 30 30 31 30 30 30
31 31 31 31 31 31 31 31 31 31 31 33 32 31 32 32
3 4 7 41 12 0 0 18 16 0 0 29 48 32 0 14
3 6 12 17 32 39 39 43 44 46 49 49 47 19 17 32
37 36 36 35 36 45 46 42 40 44 42 40 30 47 35 26
15 21 20 18 17 23 23 20 15 21 20 16 18 15 18 17
13 8 2 10 18 29 27 16 17 29 27 23 30 25 28 29
28 27 28 26 26 26 24 26 26 29 29 29 29 29 29 29
30 30 29 30 30 29 30 30 31 30 30 31 32 31 31 31
31 31 31 31 31 30 31 31 31 31 32 33 32 32 32 32
0 0 5 42 13 6 9 26 34 13 0 29 49 32 0 0
0 0 5 4 18 40 40 42 44 46 48 48 47 22 17 33
40 37 37 37 38 38 32 37 42 44 43 32 41 40 35 19
20 10 16 19 22 12 15 23 16 24 26 27 29 33 33 32
29 23 10 9 8 12 19 28 20 22 30 26 25 32 27 28
26 27 28 27 27 27 24 26 25 28 29 29 29 29 30 30
30 30 30 30 30 30 31 30 30 31 31 31 32 30 31 31
30 31 31 31 31 31 31 32 31 31 31 33 33 31 32 31
0 0 4 43 15 6 18 30 24 22 5 24 51 35 0 0
0 0 16 11 21 37 26 32 38 44 47 46 45 24 18 33
41 34 34 39 43 30 0 6 24 31 36 34 47 35 31 20
11 12 21 25 23 21 17 22 39 46 48 51 50 50 55 56
57 52 39 24 12 3 4 20 29 21 21 29 26 29 30 28
29 28 29 27 27 27 25 26 26 29 29 30 29 30 30 30
31 31 31 30 31 31 30 30 30 30 31 30 33 31 32 31
32 31 31 32 32 32 31 31 31 32 32 32 32 32 32 31
0 0 5 45 16 1 12 27 23 16 3 21 51 40 1 0
0 0 14 11 22 34 1 3 8 14 21 22 37 25 17 28
38 39 38 41 46 34 0 0 14 29 30 47 45 40 23 14
10 21 13 14 16 24 46 66 81 83 86 81 80 81 89 87
91 87 77 67 48 14 1 3 18 28 20 23 31 21 22 27
29 29 28 27 27 27 25 27 26 30 30 30 30 30 31 30
30 30 30 30 30 31 31 31 31 31 31 31 32 32 31 31
31 31 31 31 31 31 32 32 32 32 32 33 32 32 32 32
1 0 6 47 19 0 0 6 9 1 0 19 53 43 1 0
0 0 1 0 18 34 1 0 0 0 0 0 26 27 17 7
7 14 23 33 39 33 0 0 16 34 38 66 42 38 19 11
5 4 12 22 38 75 108 120 121 119 119 118 117 121 122 121
119 115 111 103 89 61 13 0 3 21 25 23 29 29 22 24
28 29 27 27 27 26 25 26 26 29 30 30 29 30 31 30
31 31 30 31 31 31 31 31 31 31 31 32 32 31 31 32
32 31 32 32 32 31 31 32 32 32 32 33 31 32 32 32
0 0 3 38 21 0 0 0 0 0 0 18 53 45 2 0
0 3 3 0 17 34 1 1 1 1 0 0 25 27 16 3
0 0 0 1 4 20 1 2 37 38 54 66 42 35 14 3
3 14 31 59 101 132 140 141 141 140 141 139 138 137 137 131
125 121 119 114 106 95 58 10 0 12 17 19 22 38 29 20
25 30 27 27 27 27 26 25 26 29 30 30 30 29 31 30
30 30 30 30 30 30 30 31 31 31 31 32 33 31 32 31
31 32 32 32 32 32 32 32 32 32 32 33 32 33 33 33
0 0 4 38 22 0 0 0 0 0 0 16 53 48 5 1
14 16 11 0 17 34 3 3 8 10 0 0 24 28 16 4
0 0 0 0 0 14 2 8 46 44 61 49 47 32 9 3
14 27 53 92 127 141 141 140 141 141 142 141 141 138 137 133
129 124 120 115 107 98 89 49 7 4 15 12 14 41 29 21
17 28 28 28 28 27 26 26 27 29 30 30 30 30 31 30
31 31 31 32 31 31 31 31 32 31 32 32 32 31 32 32
32 33 33 33 32 32 33 32 32 32 33 33 33 32 32 33
0 0 5 40 32 15 13 12 11 9 8 21 52 50 7 1
1 4 5 0 16 34 2 3 2 16 0 0 24 27 16 4
0 0 0 0 0 11 5 25 37 55 52 44 50 24 9 12
19 37 74 118 138 139 141 142 142 141 142 141 140 139 139 137
131 125 122 115 108 100 95 84 32 3 7 10 8 28 32 22
10 19 26 26 28 28 27 25 28 30 31 31 30 31 31 31
31 31 31 31 31 31 31 32 32 32 33 32 32 31 31 32
32 32 32 32 32 33 33 32 33 32 32 33 33 32 33 33
0 0 4 39 49 48 45 43 41 37 34 34 39 36 6 0
6 6 0 0 16 32 1 3 0 3 0 0 24 26 17 5
0 0 9 3 0 10 10 36 45 45 41 47 48 19 14 19
27 52 111 136 139 137 141 141 142 141 141 141 141 140 140 139
133 130 126 123 115 105 98 96 73 13 6 7 6 17 36 24
13 10 21 26 28 28 27 26 28 30 30 30 30 31 31 31
31 31 31 32 33 32 32 32 31 32 32 31 31 32 32 32
32 32 33 34 34 32 34 33 32 33 33 33 33 32 33 33
0 0 2 45 46 34 36 34 38 42 41 33 25 18 3 2
3 6 0 0 16 31 0 3 2 0 0 0 24 26 16 5
7 6 5 0 0 10 16 42 38 33 34 50 47 19 20 25
34 80 131 140 140 142 142 143 142 142 142 142 141 141 141 140
137 135 135 129 119 111 103 99 93 47 6 3 5 9 34 24
23 3 9 21 26 28 27 26 28 30 32 31 31 31 31 31
32 31 32 32 32 32 32 33 33 32 32 32 32 32 32 33
33 34 33 33 34 33 33 33 34 34 33 34 33 33 33 33
0 0 3 46 31 0 1 2 6 12 18 34 33 37 40 37
34 32 26 20 28 34 5 3 3 2 1 0 26 27 17 8
7 0 2 3 0 12 26 38 30 22 31 45 38 20 27 31
47 107 140 143 142 143 142 142 143 142 142 141 142 142 142 141
140 139 136 132 126 120 111 101 96 81 23 1 4 6 25 32
16 7 1 16 27 28 27 26 29 31 32 31 30 31 31 32
32 32 32 32 32 33 33 33 32 32 32 33 32 32 32 33
33 33 33 34 34 33 32 33 31 31 32 31 31 30 32 31
0 0 4 45 33 0 0 0 0 0 0 19 49 34 22 27
33 40 43 45 42 51 44 27 33 32 31 28 35 24 17 8
1 0 0 0 0 15 25 19 16 17 28 38 35 22 34 37
68 123 143 143 142 142 142 142 142 142 142 142 142 142 142 141
140 140 139 136 133 126 116 107 99 94 59 11 2 8 18 34
6 7 2 13 27 28 27 25 29 30 32 31 31 32 32 32
32 32 32 32 32 34 33 32 32 32 32 33 33 32 33 33
33 32 33 33 33 32 32 31 30 30 29 27 25 22 20 18
0 0 10 46 35 4 0 0 5 5 0 16 52 33 13 10
18 17 13 13 47 61 49 32 42 47 46 46 44 24 17 7
0 0 0 0 0 11 16 13 10 12 21 30 30 27 41 47
97 136 144 143 143 143 143 143 142 142 142 142 142 142 142 141
141 141 140 138 136 131 119 109 104 100 80 41 3 3 10 23
8 2 2 3 21 29 28 25 30 31 32 32 32 32 32 31
32 32 32 31 32 33 32 32 33 33 33 33 33 33 33 34
34 32 31 31 28 26 27 32 19 16 15 15 14 14 15 15
3 2 22 46 33 9 12 3 18 9 0 15 52 34 6 8
8 6 3 5 50 58 40 33 43 47 48 51 49 25 17 15
9 4 1 0 4 8 9 8 4 8 19 27 24 34 47 73
121 143 144 143 144 143 143 143 143 142 142 142 142 142 142 142
141 140 137 136 136 130 121 112 109 108 98 64 29 1 9 14
9 1 1 2 12 28 28 26 30 31 32 32 31 32 32 31
32 32 32 31 31 32 32 32 33 33 33 32 32 30 27 25
22 20 18 17 16 16 17 32 15 15 18 20 19 21 22 23
2 7 32 47 31 22 25 11 14 6 0 12 50 30 0 2
2 0 0 5 48 50 22 13 23 26 29 33 42 26 18 30
44 42 35 27 9 6 7 3 3 8 22 25 23 39 56 100
139 144 143 143 143 143 143 143 143 143 143 143 142 142 143 142
142 141 138 135 133 125 120 116 113 113 107 82 58 8 6 9
6 0 0 1 2 22 28 26 31 30 32 31 31 30 30 29
29 28 31 32 32 32 30 16 22 25 23 20 18 17 16 16
17 18 19 19 20 21 20 28 18 22 24 26 26 27 28 29
10 13 41 50 28 10 6 1 16 21 3 13 49 28 0 0
0 0 0 4 46 51 17 0 0 0 0 1 26 28 19 31
49 50 48 36 2 4 2 2 3 8 17 23 29 47 71 125
143 144 144 144 144 144 143 143 143 143 143 143 143 142 143 142
142 142 141 136 132 124 120 118 116 115 111 98 68 33 3 8
7 0 0 0 0 8 26 26 27 28 28 28 28 27 27 28
25 18 25 24 22 19 9 7 18 18 19 20 21 21 23 23
24 25 26 27 27 27 25 30 21 26 29 29 30 30 31 31
40 40 40 50 42 26 21 21 26 14 4 15 49 29 4 13
0 0 0 2 42 52 17 0 0 0 0 1 24 29 18 28
46 48 40 10 0 2 3 2 2 9 14 22 36 53 92 140
144 144 144 144 144 143 144 143 144 143 144 143 142 143 142 143
142 142 140 137 131 123 119 120 119 119 115 105 76 54 8 7
3 0 0 0 0 0 18 25 26 28 27 25 24 22 21 19
18 15 18 18 16 10 13 23 24 25 25 26 27 27 27 28
29 30 30 30 31 29 22 11 11 29 32 32 33 32 32 32
39 32 5 39 48 36 22 44 40 12 0 16 52 33 12 23
0 0 0 0 36 48 14 0 0 0 18 24 29 34 26 28
36 36 19 3 0 0 1 0 0 6 10 25 47 57 120 142
144 144 144 143 143 144 143 143 143 143 143 142 142 142 142 142
142 141 141 139 133 126 119 119 119 119 115 107 86 59 29 8
3 0 0 0 0 0 6 15 19 19 18 18 18 19 20 20
22 22 23 19 17 15 26 28 29 29 29 30 29 29 30 30
31 31 31 31 31 30 19 3 2 26 32 33 33 33 32 33
29 22 1 27 45 33 8 40 36 12 0 15 53 35 3 15
1 0 0 0 31 44 12 0 0 0 19 27 27 29 23 25
24 25 13 2 0 1 0 0 2 3 9 31 55 81 135 143
143 143 142 143 143 144 144 143 143 142 143 142 142 141 142 140
141 142 140 139 136 127 123 121 119 117 113 107 93 70 36 13
3 0 0 0 0 0 3 13 17 15 19 22 23 24 25 26
27 27 22 17 29 19 30 30 31 30 31 31 32 32 32 31
28 29 22 12 7 17 17 6 1 24 32 33 34 33 33 33
37 31 6 18 40 23 0 31 25 10 0 14 53 37 0 3
0 0 0 0 32 44 11 0 0 0 6 13 20 25 23 24
24 22 6 3 1 1 0 0 3 0 13 42 67 111 140 143
143 143 144 143 143 143 143 142 142 142 142 142 142 141 141 142
141 142 141 141 137 129 127 122 119 115 109 105 96 88 51 19
7 0 0 0 0 0 1 15 21 19 24 26 26 27 28 28
28 28 17 30 31 21 11 12 13 6 13 26 32 28 28 18
2 1 2 1 0 16 18 0 0 22 31 32 33 32 31 32
34 38 21 9 21 21 2 18 16 0 0 13 52 36 0 0
0 0 0 0 34 44 10 0 2 0 0 0 8 18 20 20
7 8 1 1 3 1 3 2 1 2 18 55 81 126 139 139
142 142 143 142 142 143 142 142 142 142 142 142 141 141 141 141
140 140 140 140 138 132 127 121 118 113 106 101 99 93 75 26
8 0 0 0 0 0 0 14 23 21 28 29 29 29 30 28
29 19 23 19 29 24 0 0 0 0 8 12 11 0 0 0
1 1 0 0 0 10 20 0 0 22 31 32 33 32 31 32
2 5 2 0 0 7 18 5 3 4 9 18 47 32 0 0
0 0 0 0 37 44 10 0 2 4 0 0 10 26 26 21
0 2 4 2 0 4 2 1 0 6 27 68 100 126 135 139
142 143 143 143 143 142 143 142 142 141 141 141 141 141 140 141
140 141 140 141 140 136 127 121 116 113 106 100 98 92 82 39
12 2 0 0 0 0 0 16 26 25 29 29 30 30 29 29
23 7 2 0 8 31 3 0 0 0 0 0 0 0 0 0
0 16 0 0 0 4 24 3 1 23 32 32 33 32 32 31
10 0 0 0 0 0 0 4 4 15 41 41 43 34 16 13
9 6 4 3 38 43 10 0 0 7 0 0 11 33 27 22
2 5 6 6 5 1 1 0 3 15 42 92 116 126 128 135
140 142 142 142 142 142 142 142 142 142 142 142 142 142 142 141
137 141 140 139 132 123 121 116 113 108 105 99 97 89 79 49
17 3 0 0 0 0 2 22 27 26 31 30 31 31 30 30
10 8 21 8 1 2 0 0 0 0 0 0 0 0 0 0
0 0 0 0 0 5 25 10 10 26 32 32 33 32 32 32
8 0 0 2 1 2 10 30 35 30 46 47 46 41 44 40
30 34 33 28 35 37 18 1 0 10 6 2 9 34 26 22
5 4 1 0 1 3 3 5 10 26 72 100 120 123 124 133
137 140 143 142 142 143 142 142 141 142 142 142 141 141 141 141
133 133 119 103 72 63 69 78 72 65 68 71 69 65 66 43
18 2 0 0 0 2 21 24 27 28 31 31 31 30 30 25
10 28 20 18 27 28 26 26 26 26 24 10 19 4 0 0
0 0 0 0 0 13 25 22 23 29 32 32 33 32 32 31
10 0 0 10 33 30 41 41 49 48 47 49 50 44 21 14
9 11 16 14 22 33 31 29 22 24 26 21 22 36 23 20
2 4 1 0 0 0 0 6 10 54 93 109 115 118 122 130
122 129 129 127 116 104 119 122 130 140 143 143 142 141 142 141
125 99 76 45 18 20 35 50 56 60 62 59 56 61 76 96
48 6 0 0 0 0 24 25 28 29 32 32 31 32 30 11
15 17 28 32 32 32 33 32 33 32 32 25 3 0 0 0
0 9 11 11 13 28 26 26 29 32 32 32 34 33 33 33
37 19 15 27 45 44 36 26 43 39 26 30 36 38 3 0
0 0 11 10 19 34 31 24 23 29 36 40 42 40 25 20
2 3 2 1 0 0 0 7 21 87 106 110 113 113 117 105
95 89 70 43 31 44 61 84 108 129 141 143 142 142 141 131
98 51 30 21 22 20 17 19 25 37 51 71 44 20 9 13
29 4 0 0 0 0 24 26 29 30 32 32 32 31 16 19
32 32 33 32 32 33 33 33 33 32 31 4 0 1 1 0
0 30 32 32 31 30 29 29 32 33 34 33 33 33 33 33
49 48 47 48 48 43 23 1 15 11 0 0 4 35 4 0
2 4 7 11 25 35 28 3 0 6 11 22 43 40 26 21
6 1 1 2 4 0 0 4 31 91 89 79 69 61 51 33
29 20 17 14 15 20 26 38 70 107 132 141 143 142 139 122
78 21 16 11 6 3 5 8 17 40 97 129 73 21 12 7
13 2 0 0 0 1 27 26 29 30 32 32 32 23 11 32
33 32 33 33 34 33 33 34 33 33 31 3 0 4 11 0
0 30 33 32 32 31 31 31 32 33 32 32 32 33 32 32
49 49 50 48 41 34 16 0 0 2 0 0 2 36 5 1
21 30 14 5 24 37 27 1 2 19 21 24 41 35 24 24
19 2 0 1 2 0 0 1 31 51 37 29 24 21 17 13
7 4 2 1 2 3 6 12 24 59 109 135 142 141 134 100
30 11 1 1 0 0 7 15 21 70 149 151 108 23 11 8
20 0 0 0 0 9 28 27 29 30 33 32 28 8 29 32
32 33 33 33 33 34 34 33 33 34 32 3 0 0 0 0
0 27 32 32 32 31 31 33 33 33 33 33 34 33 33 33
50 51 51 44 15 15 9 6 2 12 6 0 2 35 6 10
31 29 3 0 25 39 27 0 1 13 28 32 42 30 23 25
16 0 0 0 0 0 0 0 37 57 27 17 6 7 8 4
1 0 0 0 0 0 0 3 7 23 59 101 134 136 118 43
16 0 0 0 0 1 5 18 36 87 144 140 83 27 17 8
22 5 0 0 6 10 30 28 30 30 33 32 16 22 33 33
33 33 33 34 34 32 33 34 33 32 31 3 0 0 0 0
0 24 33 33 33 33 34 34 34 33 34 34 34 34 33 34
26 29 32 37 38 41 35 36 34 36 13 0 2 35 8 2
29 33 2 0 25 41 28 0 0 1 7 30 45 29 25 26
16 5 2 0 0 0 0 0 18 31 12 78 55 20 8 1
0 0 0 0 0 0 0 0 0 7 19 53 84 76 49 33
18 0 0 0 0 2 4 20 41 58 82 54 32 21 19 10
17 8 13 24 26 9 28 29 30 31 33 31 11 32 32 32
33 33 33 34 34 34 34 31 24 18 19 1 0 0 0 0
0 23 34 34 33 34 34 35 34 33 34 34 34 33 34 33
0 0 0 4 26 28 8 3 5 6 2 0 2 35 6 0
12 13 3 1 27 43 29 0 0 0 0 24 46 30 24 25
34 37 16 0 0 0 0 0 5 14 13 113 52 19 7 1
0 0 0 0 1 1 0 0 0 2 17 29 50 28 31 36
24 0 0 0 0 0 3 8 30 35 49 27 15 15 16 11
16 10 6 28 48 5 26 29 30 31 33 30 11 33 33 33
34 34 34 35 35 35 34 11 8 1 0 0 0 0 0 0
0 20 34 33 33 35 34 34 35 34 33 34 34 34 33 33
0 0 0 2 30 33 7 0 0 0 0 0 2 35 6 0
0 0 1 0 25 43 28 0 0 0 0 23 47 30 24 25
43 51 35 0 0 0 0 1 7 17 15 35 23 15 4 0
1 0 0 0 0 0 0 0 0 1 21 26 28 19 25 35
30 0 0 0 0 0 0 2 9 14 14 14 8 10 13 10
18 9 11 43 51 13 27 30 29 31 33 31 13 33 34 33
34 34 34 34 35 35 33 28 37 16 23 0 0 0 1 1
1 13 30 33 33 33 34 34 34 34 34 33 33 33 33 33
0 0 0 3 36 40 12 0 0 0 0 0 1 34 7 0
0 0 0 0 23 43 27 0 0 0 0 22 47 31 23 26
38 48 43 4 3 12 2 0 17 23 15 23 19 19 8 0
0 0 0 0 0 0 0 0 0 0 18 23 50 91 73 25
40 0 0 0 0 0 0 0 2 4 6 5 3 6 11 8
17 8 21 75 63 30 28 30 30 31 33 31 12 33 33 33
34 34 34 34 34 34 34 44 48 18 8 0 0 0 0 0
0 3 6 16 17 25 35 34 34 34 34 34 33 33 33 33
5 9 10 14 40 45 19 0 0 0 0 0 0 32 6 0
0 0 0 0 21 44 27 0 0 0 0 18 43 28 24 25
26 28 27 9 37 45 26 2 14 28 13 15 18 16 6 0
0 0 0 0 0 0 0 0 0 0 21 31 123 139 125 59
38 3 0 0 0 0 0 0 0 0 2 1 0 4 11 6
17 9 31 80 78 39 28 29 29 31 32 31 12 32 33 33
33 34 33 29 27 24 22 8 4 4 0 0 0 0 0 0
0 1 3 0 4 19 34 34 34 33 33 33 33 34 32 33
29 36 36 39 44 37 11 0 0 0 0 0 0 32 5 0
0 0 0 0 22 45 28 0 0 0 0 17 44 30 23 24
30 35 32 34 56 50 29 4 13 28 9 12 11 13 8 0
0 0 0 0 0 0 0 0 0 0 25 52 132 137 126 94
27 16 0 0 0 0 0 0 0 0 2 0 0 2 8 5
18 10 30 86 90 39 28 29 29 30 32 32 15 29 33 33
33 33 23 7 6 7 7 2 0 0 0 0 0 0 0 0
0 1 5 1 3 20 35 35 35 34 34 33 33 33 32 32
38 38 39 44 46 21 0 0 0 0 0 0 0 31 17 11
12 16 21 24 35 42 27 0 0 0 0 18 48 31 20 24
32 37 37 51 46 64 49 21 13 27 9 11 12 13 9 0
0 0 0 0 0 0 0 0 0 1 29 74 130 139 130 110
41 30 0 0 0 0 0 0 0 0 2 0 0 0 5 3
22 22 50 89 97 40 28 29 29 32 32 32 21 24 32 30
27 25 14 2 2 4 3 1 5 4 0 0 0 0 0 0
0 0 6 1 2 17 34 35 34 35 34 34 33 33 33 33
11 15 21 29 46 35 24 24 23 20 18 18 21 37 38 37
40 41 43 44 42 34 26 19 15 13 9 23 43 29 23 27
32 36 38 55 54 90 88 56 17 33 10 10 11 12 9 0
0 0 0 0 0 0 0 0 0 7 25 93 131 138 130 113
75 24 12 0 0 0 0 0 2 4 7 4 5 0 3 5
28 30 71 99 96 41 27 29 28 29 27 23 15 8 9 6
5 4 4 5 6 7 8 7 6 4 9 6 0 0 0 0
0 0 5 2 3 13 35 35 34 34 33 33 32 32 32 32
0 0 0 7 43 46 46 45 44 42 41 43 45 43 40 36
40 40 41 40 40 39 38 38 37 37 34 35 38 36 35 36
35 36 37 56 60 93 89 99 32 44 12 9 11 12 8 0
0 0 0 0 0 0 0 0 0 22 26 109 127 138 132 116
95 29 30 1 0 0 0 2 8 12 11 10 10 7 2 15
39 50 103 105 97 39 27 28 21 10 4 4 5 6 7 9
9 9 10 10 10 10 10 6 2 2 7 12 0 0 0 0
0 1 5 7 11 14 31 33 33 32 33 32 33 32 31 32
0 0 0 8 44 49 49 48 49 46 47 49 49 34 24 26
36 37 37 37 37 37 37 36 36 36 37 36 35 35 35 36
36 36 36 59 65 101 107 105 39 60 13 9 12 12 9 0
0 0 0 0 0 0 0 0 7 34 49 114 123 135 133 116
98 70 17 28 0 0 0 3 15 17 17 13 6 0 2 23
68 70 106 110 98 34 27 28 19 10 8 9 10 10 9 9
7 7 6 5 4 3 10 7 3 5 9 5 0 0 0 3
1 0 3 10 11 14 29 34 35 34 34 33 33 34 33 32
0 0 0 9 45 46 44 41 41 40 40 45 38 20 19 24
35 37 36 36 36 36 36 35 35 35 35 35 35 34 34 35
35 35 34 56 72 89 109 121 96 58 36 12 12 13 11 0
0 0 0 0 0 0 0 0 26 26 89 113 123 136 136 116
101 94 47 24 22 0 0 3 14 9 5 2 0 1 19 62
84 84 101 115 96 29 27 27 14 11 10 5 3 2 1 0
0 0 0 0 0 1 11 10 8 4 6 0 0 0 0 1
0 0 8 6 7 11 31 35 35 34 34 34 33 33 33 32
0 0 0 8 44 22 10 12 8 8 9 14 12 18 19 23
34 36 29 20 18 17 17 16 14 14 13 13 13 11 11 11
11 11 12 32 86 79 109 120 82 66 69 25 15 17 15 4
0 0 0 0 0 0 0 4 41 40 112 110 121 136 135 116
102 98 92 32 22 27 6 2 2 2 3 7 20 33 70 99
83 92 96 112 91 20 26 27 17 11 9 0 0 0 0 0
0 0 0 0 0 4 11 11 9 8 7 8 7 9 11 10
12 15 18 18 16 17 25 24 24 27 33 34 33 33 33 32
0 0 0 8 45 15 0 0 0 0 0 6 5 18 19 22
33 35 23 2 0 0 0 0 0 0 0 0 0 0 0 0
0 0 0 3 83 77 110 118 76 78 99 41 21 21 19 8
0 0 0 0 0 0 0 28 25 86 112 110 123 135 134 117
107 97 99 95 52 20 24 23 24 23 28 38 61 95 108 99
86 98 90 105 78 14 26 26 15 10 6 0 0 0 0 0
0 0 0 0 0 6 11 10 9 28 21 21 22 27 25 22
27 24 23 22 16 14 45 19 15 20 34 33 33 33 32 30
0 0 0 7 44 17 0 0 0 0 2 12 14 18 19 21
31 35 27 5 0 0 0 0 0 0 0 0 0 0 0 0
0 0 0 1 43 92 107 117 79 86 98 97 27 14 12 3
0 0 0 0 0 3 15 31 67 113 108 114 123 129 134 120
107 93 98 104 109 104 88 82 88 94 101 110 112 110 106 96
88 94 97 106 58 11 24 24 13 10 4 0 0 0 0 0
0 0 0 0 0 8 10 10 9 24 18 21 24 31 53 49
65 67 70 30 15 35 112 49 12 17 33 33 32 16 6 5
0 0 0 4 42 18 0 0 0 7 13 14 12 17 18 20
31 35 29 8 0 0 0 0 0 0 0 0 0 0 0 0
0 0 1 1 7 85 103 119 80 89 94 106 106 47 12 11
5 4 5 7 11 29 61 91 113 111 105 113 120 126 132 125
110 95 95 105 115 119 119 121 125 130 133 127 117 111 105 98
89 110 107 103 40 9 22 21 11 10 1 0 0 0 0 0
0 0 0 0 0 10 10 12 9 19 17 22 26 34 86 71
91 89 90 34 16 96 122 108 27 16 32 32 29 1 0 0
0 0 0 4 41 19 0 0 7 13 14 14 12 16 18 21
29 34 30 11 0 0 0 0 0 0 1 0 0 0 0 0
0 0 0 0 1 38 105 107 80 94 93 103 115 119 110 79
50 33 34 52 81 111 128 127 115 105 105 113 122 136 138 137
115 99 97 101 115 113 119 121 123 127 130 127 118 112 105 98
91 120 110 101 30 21 27 19 10 9 0 0 0 0 0 0
0 0 0 0 2 10 10 13 8 12 24 28 32 30 49 42
43 40 36 28 26 54 39 33 25 17 31 32 29 1 0 0
0 0 0 4 39 18 0 0 5 12 13 13 12 16 17 19
27 34 31 14 0 0 0 0 0 0 0 0 0 0 0 0
0 0 0 0 0 9 95 105 86 102 96 99 113 118 121 132
137 137 136 140 142 142 137 119 110 113 106 108 128 142 139 141
117 99 97 100 109 115 117 117 120 121 122 122 116 111 104 98
94 117 108 80 43 41 39 18 9 6 0 0 0 0 0 0
0 0 0 0 4 10 10 14 5 1 25 31 34 23 25 25
21 18 20 21 23 23 23 23 23 15 29 32 31 11 0 0
0 0 0 4 38 19 0 0 4 12 13 14 12 15 17 20
27 34 31 17 0 0 0 0 0 0 0 0 0 0 0 0
0 0 0 0 1 2 66 111 117 111 102 96 110 117 122 136
142 144 144 144 144 141 123 103 110 109 103 104 120 135 134 127
107 95 95 96 108 113 113 115 119 120 120 120 116 107 104 99
96 112 103 60 44 43 36 14 9 4 0 0 0 0 0 0
0 0 0 0 6 10 10 13 2 2 19 25 35 24 26 20
20 17 16 21 25 24 24 23 23 15 29 32 30 30 3 0
17 16 15 21 41 23 0 0 5 12 13 14 11 15 17 19
25 34 32 19 0 0 0 0 0 0 0 0 0 0 0 0
0 0 0 0 0 1 37 108 117 122 106 93 105 111 120 132
142 144 144 144 143 134 105 104 106 97 88 93 101 118 118 108
88 55 63 88 112 111 109 114 116 117 117 117 116 107 103 97
94 108 81 47 46 44 31 11 10 2 0 0 0 0 0 0
0 0 0 0 9 10 11 10 0 0 1 13 35 24 24 15
17 16 17 22 26 25 25 22 23 9 28 26 5 6 3 0
42 41 42 38 37 26 0 0 6 12 13 14 12 15 17 19
25 33 31 20 1 0 0 0 0 0 0 0 0 0 0 0
0 0 0 0 0 0 23 84 119 123 114 91 100 104 116 127
137 139 141 141 139 125 101 109 103 70 36 52 83 98 96 86
62 60 58 89 113 114 111 112 115 113 115 116 114 107 100 94
82 71 48 47 46 43 26 10 9 0 0 0 0 0 0 0
0 0 0 1 11 10 11 7 0 0 0 17 32 25 23 14
19 17 16 24 26 25 24 22 22 9 15 3 0 0 6 0
26 19 14 8 9 25 0 0 6 12 13 13 11 15 17 18
23 33 32 21 2 0 0 0 0 0 0 0 0 0 0 0
0 0 0 0 0 0 20 54 113 121 122 92 95 102 109 121
128 133 137 136 133 121 111 115 113 96 83 101 91 79 66 76
89 104 92 108 115 116 116 113 114 110 111 113 111 104 99 94
64 49 47 48 46 42 20 10 8 0 0 0 0 0 0 0
0 0 0 3 11 10 11 5 0 8 9 27 32 26 23 12
18 16 15 23 25 24 24 22 22 12 0 0 0 3 0 0
5 0 0 0 2 26 4 0 6 11 12 13 11 15 17 18
23 32 31 22 2 0 0 0 0 0 0 0 0 0 0 0
0 0 0 0 0 0 15 38 95 113 113 93 90 100 104 115
122 128 133 131 128 124 118 115 115 115 106 100 97 79 64 79
99 103 113 117 116 115 116 114 114 113 110 109 107 102 97 94
68 50 50 48 47 40 15 10 5 0 0 0 0 0 0 0
0 0 0 6 11 10 12 2 1 12 5 30 30 25 19 5
13 17 16 24 25 24 24 23 23 12 0 0 0 7 0 0
0 0 0 0 3 33 34 23 17 10 11 12 10 13 16 17
22 31 31 23 2 0 0 0 0 0 0 0 0 0 0 0
0 0 0 0 0 0 14 34 47 91 95 78 89 98 99 108
116 122 127 129 127 128 126 123 122 121 121 120 115 109 100 104
110 115 118 117 116 114 115 112 108 110 102 106 104 98 93 92
70 52 50 47 46 36 12 10 3 0 0 0 0 0 0 0
0 0 0 8 10 10 11 0 1 9 7 34 28 19 6 1
12 15 15 23 24 24 24 24 24 12 0 1 5 10 2 1
0 0 0 0 7 35 27 11 9 9 11 12 11 13 16 18
22 31 31 24 3 0 0 0 0 0 0 0 0 0 0 0
0 0 0 0 0 0 12 34 27 21 21 23 88 95 98 103
111 118 125 122 125 130 128 131 132 133 133 132 125 119 117 118
121 124 122 121 119 115 113 111 104 100 106 103 103 96 94 93
66 52 51 48 46 29 10 9 1 0 0 0 0 0 0 0
0 0 0 10 10 11 10 0 5 13 14 35 27 16 5 1
13 14 15 23 24 24 24 24 24 14 5 9 10 10 8 6
0 0 0 0 7 34 14 0 1 9 11 12 10 12 16 17
20 30 31 24 4 0 0 0 0 0 0 0 0 0 0 0
0 0 0 0 0 0 10 33 29 18 3 6 82 96 99 101
108 117 116 116 123 123 125 130 131 133 128 133 130 124 121 123
123 124 121 119 115 110 108 103 96 94 103 103 102 96 94 89
64 51 52 47 44 21 10 9 0 0 0 0 0 0 0 0
0 0 2 10 10 11 6 0 44 47 17 35 27 16 4 2
12 13 16 23 25 24 23 25 25 16 2 4 5 4 2 1
0 0 0 0 4 32 16 0 0 8 10 11 9 11 15 16
19 29 31 24 4 0 0 0 0 0 0 0 0 0 0 0
0 0 0 0 0 0 8 32 29 19 1 0 64 99 102 104
107 116 111 113 113 115 118 125 126 134 133 134 128 125 126 129
128 125 119 114 109 104 101 90 85 93 102 103 101 95 93 89
63 51 52 48 42 17 10 6 0 0 0 0 0 0 0 0
0 0 4 11 11 12 4 1 54 41 19 34 25 17 8 12
18 14 17 24 25 24 23 25 25 18 0 0 0 0 0 0
3 3 6 11 16 33 16 0 0 8 11 12 10 10 14 15
18 29 31 25 5 0 0 0 0 0 0 0 0 0 0 0
0 0 0 0 0 0 8 32 29 28 19 0 51 98 102 106
108 118 116 111 100 101 106 117 122 130 132 134 134 139 135 136
130 124 118 110 104 95 80 60 69 88 106 103 99 95 95 87
53 52 52 48 37 13 10 3 0 0 0 0 0 0 0 0
0 0 7 11 12 12 2 0 14 13 27 33 27 21 17 11
18 16 22 28 26 23 23 24 24 17 0 0 0 0 0 0
19 20 26 32 39 40 26 4 1 8 10 11 10 9 13 14
18 28 30 25 5 0 0 0 0 0 0 0 0 0 0 0
0 0 0 0 0 0 6 32 30 34 50 37 55 98 99 107
109 121 127 114 89 61 80 94 100 102 103 104 109 117 120 108
98 94 90 82 76 66 84 103 103 102 107 103 99 96 95 80
48 51 53 50 31 12 11 3 1 1 2 2 2 2 2 1
2 2 10 12 12 11 0 0 5 10 34 31 28 24 16 12
17 17 22 26 26 24 24 24 24 18 0 0 0 0 0 0
28 30 32 37 42 41 37 30 25 21 12 10 9 9 13 14
17 27 29 25 6 0 0 0 0 0 0 0 0 0 0 0
0 0 0 0 0 0 5 30 28 31 45 45 49 96 104 106
108 117 130 124 125 100 95 72 75 75 87 90 92 95 94 85
82 80 69 62 71 88 113 114 110 106 104 99 96 97 95 76
37 50 53 49 25 11 11 10 10 10 10 10 10 10 10 11
11 10 12 11 13 9 0 0 4 11 37 28 27 23 16 12
17 18 23 27 26 24 25 24 24 18 0 0 0 0 0 0
23 22 21 21 19 19 19 12 10 10 8 8 8 7 12 13
16 26 30 25 6 0 0 0 0 0 0 0 0 0 0 0
0 0 0 0 0 0 5 30 28 24 22 21 23 82 103 107
107 109 123 133 137 140 133 115 105 98 88 82 76 74 76 62
66 73 79 87 98 110 115 111 108 106 101 96 93 95 91 63
27 50 53 47 20 11 12 11 11 12 12 12 12 11 12 10
11 11 12 12 15 7 0 1 4 17 38 28 27 22 15 12
18 18 25 26 25 24 26 25 25 20 1 0 0 0 0 0
11 11 11 11 13 15 17 1 0 4 8 8 7 7 13 14
17 26 30 25 6 0 0 0 0 0 0 0 0 0 0 0
0 0 0 0 0 0 5 30 28 24 20 20 21 59 100 105
107 106 111 129 134 142 142 130 123 115 119 129 121 117 114 113
114 112 98 96 108 111 115 105 107 105 98 96 97 95 85 42
22 50 52 48 18 9 13 12 13 13 21 19 12 12 12 12
14 16 13 7 14 4 0 10 23 27 36 28 27 21 14 11
17 20 26 27 26 25 25 25 25 20 1 0 0 0 0 0
4 3 3 4 11 12 18 2 0 2 7 7 7 7 11 13
15 25 29 25 6 0 0 0 0 0 0 0 0 0 0 0
0 0 0 0 0 0 6 32 29 25 25 25 24 39 95 101
104 103 106 118 125 134 142 132 126 122 121 125 123 121 123 118
116 103 97 103 108 109 113 108 110 102 96 97 95 90 77 17
15 47 47 38 16 12 25 29 36 55 89 85 61 58 40 30
34 31 30 26 8 0 7 37 20 31 34 28 28 16 9 12
13 20 24 25 26 25 26 26 24 20 1 0 0 0 0 0
1 3 5 4 8 17 20 2 0 0 1 5 8 7 11 12
15 24 28 24 7 0 0 0 0 0 0 0 1 1 2 3
4 6 7 9 10 12 18 29 26 25 26 26 26 28 76 98
101 101 104 111 117 125 134 134 130 122 119 120 117 111 109 106
105 105 104 105 107 107 108 108 106 100 96 95 96 85 58 5
11 40 33 18 22 57 94 103 119 132 138 138 127 112 72 17
10 9 11 16 28 13 49 135 54 31 31 27 25 15 14 13
12 20 25 24 26 26 26 27 24 20 1 0 0 0 0 0
17 20 21 21 19 13 16 1 0 1 4 1 7 6 10 11
14 23 28 26 15 8 10 12 13 15 17 18 20 21 21 22
24 23 24 23 24 24 24 24 24 25 26 25 26 27 59 92
97 99 101 105 109 115 124 128 130 125 117 113 109 104 102 103
104 103 100 104 110 109 107 106 102 100 96 96 91 78 36 39
40 43 39 37 38 59 97 102 113 123 129 138 129 113 71 10
9 9 8 12 19 20 82 140 44 36 30 27 24 11 9 1
4 18 20 18 21 23 25 24 24 21 2 0 0 0 0 0
21 23 25 25 25 20 4 1 0 1 6 1 5 6 9 11
14 23 28 28 27 25 24 26 27 27 26 26 25 25 25 25
25 26 25 25 25 24 24 24 24 24 26 26 26 26 56 89
94 98 99 104 111 110 121 125 131 131 125 120 115 114 111 109
107 105 108 112 113 111 106 103 102 100 95 93 82 70 37 35
36 36 36 43 49 52 79 102 115 128 132 131 122 105 58 7
5 7 5 25 6 0 41 53 17 39 26 9 4 0 0 2
0 1 7 26 27 24 24 20 23 22 2 0 0 0 0 0
22 19 21 23 27 22 10 3 0 2 2 0 1 2 7 10
12 22 28 28 27 26 21 26 26 26 27 26 26 26 28 25
17 17 20 22 16 16 21 21 21 24 27 26 26 27 56 103
87 95 96 100 109 115 122 128 129 134 132 127 122 120 118 116
114 113 118 119 117 111 105 105 102 97 93 88 73 81 25 22
20 19 19 37 40 34 50 76 36 84 99 92 77 53 12 7
8 6 16 41 32 32 43 52 43 46 25 3 0 0 0 0
0 0 0 21 16 17 24 16 18 20 3 0 0 0 0 0
22 18 15 27 32 19 4 0 0 0 0 0 0 1 6 9
12 21 27 27 27 26 23 25 24 23 23 22 26 44 51 18
1 0 2 4 1 1 12 18 18 16 13 12 14 30 36 107
97 91 97 101 106 116 121 131 137 140 139 138 134 131 128 129
123 128 128 125 118 111 107 107 102 95 90 79 78 87 15 18
18 15 4 10 33 54 59 55 25 4 4 5 8 6 4 8
12 59 76 88 96 95 89 95 94 73 30 31 0 0 0 0
0 0 0 8 13 23 22 16 12 6 11 8 1 0 0 0
14 13 12 33 22 10 0 0 0 0 0 0 0 0 0 2
4 8 13 11 11 9 8 7 7 8 10 14 44 64 29 1
0 0 0 0 0 0 0 1 0 0 0 0 1 31 21 106
108 90 92 99 101 113 119 130 139 142 144 144 143 144 143 143
141 140 136 128 119 114 107 107 97 88 86 74 91 88 17 12
25 15 2 0 4 34 55 63 69 42 16 11 13 12 13 25
60 103 94 98 100 90 80 93 95 72 16 23 0 0 0 0
0 0 0 0 18 27 14 12 15 6 1 3 0 0 0 0
9 5 24 38 17 13 4 0 0 0 0 0 0 0 0 0
0 0 0 0 0 0 0 0 0 2 12 28 61 43 5 0
0 0 0 0 0 0 0 0 0 0 0 0 20 21 17 105
110 101 82 94 100 109 114 125 137 144 144 145 144 144 143 142
141 141 136 126 120 111 105 101 93 81 72 88 85 89 23 6
23 22 4 1 3 3 4 4 13 34 64 59 37 44 82 74
55 62 72 84 86 84 85 87 90 67 8 5 4 3 4 3
3 6 6 4 9 8 0 0 0 0 0 0 0 0 0 0
8 2 59 17 2 11 11 2 0 0 0 0 0 0 0 0
0 0 0 0 0 0 3 5 1 2 16 45 52 17 0 0
0 0 0 0 0 0 0 0 0 0 0 0 60 21 13 103
111 110 88 83 95 105 113 122 132 140 144 145 144 145 143 141
141 137 131 120 118 104 100 97 87 71 79 100 96 90 32 8
38 53 10 15 18 24 30 40 35 21 23 48 68 68 58 62
79 100 105 93 68 61 58 50 49 43 30 28 26 20 13 6
1 3 2 2 0 0 0 0 0 0 0 0 0 0 0 0
18 7 42 1 0 5 14 17 0 0 0 0 0 0 0 0
1 0 0 0 0 0 4 8 7 3 16 55 33 0 2 10
4 0 0 0 0 0 0 0 0 0 0 4 63 7 10 100
112 111 104 85 86 98 108 117 123 133 139 144 144 143 141 140
138 135 126 118 108 100 93 87 74 72 100 101 97 89 35 4
20 45 49 65 94 130 142 143 142 114 77 66 68 72 88 126
144 143 142 142 120 80 53 37 33 25 17 14 14 10 8 3
0 1 0 0 0 0 0 0 0 0 0 0 0 0 0 0
11 8 20 0 0 0 15 8 0 0 0 0 1 2 1 2
3 2 1 0 1 2 8 13 12 2 23 57 22 13 26 32
18 0 0 3 0 0 0 0 0 0 0 20 45 1 7 97
111 113 107 99 84 87 100 106 114 125 133 137 139 138 135 132
130 126 118 109 98 91 87 77 67 93 102 101 97 89 44 0
10 25 41 53 82 108 142 144 122 75 63 49 50 51 74 115
145 143 143 143 129 89 56 41 30 23 18 14 15 10 10 4
1 1 1 0 0 0 0 0 0 0 0 0 0 0 0 0
0 9 12 0 0 0 1 0 0 0 0 4 2 8 7 7
7 7 9 12 18 19 17 14 10 0 33 45 8 21 32 33
26 2 10 25 13 2 0 3 4 0 0 42 40 1 7 95
111 113 111 105 98 84 89 103 108 116 123 125 124 126 124 123
121 114 107 99 91 81 74 63 81 100 104 102 96 89 49 0
4 20 40 45 79 100 142 144 121 74 62 52 50 53 79 117
145 142 140 144 131 88 54 41 31 24 19 16 15 12 11 6
2 0 2 0 0 0 0 0 0 0 0 0 0 0 0 0
0 9 12 1 4 0 0 0 0 0 0 0 1 5 6 4
6 7 8 13 22 23 13 6 2 1 41 42 2 19 35 35
23 4 27 36 27 11 0 3 0 0 0 48 26 0 8 95
109 112 111 109 106 98 82 91 102 107 113 113 115 111 111 112
107 102 94 88 76 69 62 83 97 105 104 99 94 87 57 0
3 17 39 45 62 97 141 144 122 75 61 47 44 54 73 111
145 141 137 143 130 86 56 40 31 24 18 16 14 12 11 6
2 0 3 1 0 0 0 0 0 0 0 0 0 0 0 0
0 12 15 7 5 0 0 0 0 0 0 0 2 2 2 1
2 2 4 11 22 19 4 0 0 3 47 42 2 19 17 13
25 23 39 36 27 16 1 6 0 5 27 52 22 0 11 96
107 112 113 110 109 103 97 82 86 93 95 98 90 95 96 94
86 84 75 67 60 60 83 97 102 104 102 97 94 87 63 0
3 22 36 32 49 90 138 144 124 77 57 43 47 58 75 112
144 140 137 143 130 87 59 41 31 24 21 16 15 13 12 7
2 0 2 1 0 0 0 0 0 0 0 0 0 0 0 0
0 10 14 7 5 0 0 0 0 0 0 0 1 1 1 1
3 3 4 11 21 17 3 0 0 3 49 44 5 14 3 6
27 35 45 30 21 23 1 3 8 24 32 70 53 2 12 97
106 111 112 111 112 109 106 101 82 68 68 69 69 70 67 61
57 52 45 49 65 85 94 98 102 103 100 96 93 87 67 4
4 41 40 31 27 29 63 105 114 77 53 42 46 55 73 111
145 140 136 143 133 90 60 42 30 23 21 15 15 12 12 9
2 2 2 1 0 0 0 0 0 0 0 0 0 0 0 0
2 21 12 6 5 0 0 0 1 0 0 0 0 2 1 3
4 4 5 11 21 15 7 6 0 4 49 57 18 17 1 12
31 46 42 9 7 26 26 29 28 18 44 75 40 3 10 96
106 110 111 112 113 111 110 108 106 94 73 55 44 34 26 22
24 38 61 79 88 93 97 101 101 102 100 96 93 86 67 7
3 16 33 36 35 43 31 32 50 44 49 43 46 53 73 109
144 140 136 143 132 88 62 42 25 21 17 14 15 12 12 8
2 3 2 1 0 0 0 0 0 0 0 0 0 0 0 0
7 8 1 3 5 1 0 0 0 0 0 0 1 4 0 3
5 5 10 21 27 23 18 17 2 2 40 52 31 14 0 10
35 43 25 9 21 39 59 27 28 20 41 59 35 4 3 89
105 109 111 110 113 112 110 109 110 106 102 91 75 63 55 51
62 76 86 92 93 94 97 100 101 101 98 95 90 85 68 6
2 16 29 26 19 24 49 51 38 19 23 33 47 53 70 105
143 141 136 143 134 91 62 41 27 19 14 12 13 13 12 9
2 3 2 0 0 0 0 0 0 0 0 0 0 0 0 0
0 0 0 2 3 2 0 0 0 0 0 0 6 9 0 3
4 3 21 33 27 23 17 16 3 0 36 50 44 11 0 13
30 22 29 51 52 43 45 31 47 49 35 54 50 10 0 72
106 109 111 112 110 113 111 111 109 108 105 102 98 95 98 106
107 100 98 95 95 95 98 98 99 100 97 95 91 84 65 3
5 15 30 24 20 20 29 78 46 18 19 18 23 40 66 99
143 141 135 144 135 91 58 36 26 20 14 8 11 12 12 10
2 5 2 0 0 0 0 0 0 0 0 0 0 0 0 0
7 9 12 10 3 2 0 0 0 0 0 0 3 10 0 3
2 0 12 27 31 29 24 22 6 0 23 34 27 5 0 4
22 42 44 22 28 34 45 57 50 26 35 42 52 15 3 45
106 108 110 110 112 110 112 112 110 108 109 109 111 116 117 115
116 112 105 95 94 96 98 100 100 98 97 95 91 84 56 0
4 17 27 23 30 19 30 39 27 36 38 24 19 29 44 49
91 125 128 144 135 92 60 35 31 24 13 7 11 12 12 10
2 4 2 0 0 0 0 0 0 0 0 0 0 0 0 0
16 18 17 16 8 0 1 0 0 0 0 0 3 15 16 11
4 0 1 8 17 16 9 4 1 0 1 1 3 11 27 46
73 44 22 19 31 27 89 62 23 30 33 33 64 15 9 15
99 108 110 111 110 110 111 112 110 111 112 112 116 121 123 122
117 109 98 91 94 95 97 100 99 98 97 95 90 83 39 0
10 25 30 22 49 31 41 26 15 19 26 50 47 41 34 21
25 32 53 72 93 90 58 41 32 23 12 9 11 12 11 10
2 4 3 0 0 0 0 0 0 0 0 0 0 0 0 0
9 10 14 13 6 0 2 0 0 0 0 0 0 6 21 7
0 0 0 0 0 0 0 0 0 0 2 20 39 51 62 47
64 40 27 24 31 59 42 43 32 21 33 34 67 33 24 1
73 109 111 111 112 114 114 110 112 110 114 115 115 121 123 121
113 103 96 92 93 96 97 101 100 100 99 95 91 82 18 8
27 45 31 26 27 56 48 22 20 18 19 18 48 85 35 20
24 23 24 48 70 45 53 39 30 22 15 10 12 13 11 9
2 4 2 0 0 0 0 0 0 0 0 0 0 0 0 0
0 0 0 0 0 9 28 0 1 0 0 0 0 0 6 0
0 0 0 0 0 0 0 0 0 17 57 47 50 73 40 37
58 61 34 47 65 33 31 29 17 14 45 44 83 80 56 14
30 108 113 114 116 115 115 113 109 113 111 112 114 118 119 116
106 98 91 91 93 95 100 101 102 102 100 95 91 73 4 16
26 34 39 44 51 42 81 34 20 24 17 18 42 37 33 54
21 23 22 40 33 17 28 33 27 19 16 12 13 13 13 10
3 4 1 0 0 0 0 0 0 0 0 0 0 0 0 0
0 0 0 0 0 18 49 1 5 1 0 0 0 0 6 1
0 0 0 0 0 0 0 9 30 42 74 70 61 45 42 45
51 80 83 47 23 20 22 49 27 24 65 54 81 86 37 27
5 78 113 115 115 118 117 115 113 108 110 109 108 108 110 105
94 89 86 90 96 100 101 103 106 104 100 95 89 45 0 25
32 30 34 26 54 44 37 37 52 25 22 27 40 23 19 26
50 25 27 41 24 16 22 23 27 33 27 13 12 14 13 10
4 3 0 0 0 0 0 0 0 0 0 0 0 0 0 0
0 0 0 0 0 2 9 2 2 0 0 0 0 0 9 7
0 0 0 0 1 15 30 49 60 65 90 67 44 49 46 62
78 83 106 48 45 48 57 79 50 46 64 38 51 77 35 40
15 28 104 114 117 120 121 117 113 111 109 107 106 106 97 90
89 88 89 96 97 101 107 109 107 104 97 92 78 12 15 36
30 29 21 19 25 22 22 19 26 60 38 28 41 21 19 17
20 43 71 64 29 21 33 24 28 46 44 32 19 12 13 11
4 3 0 1 0 0 0 0 0 0 0 0 0 0 0 0
0 0 0 0 0 0 0 0 0 0 0 0 0 0 0 2
0 0 0 13 63 80 69 60 52 46 55 68 55 50 59 55
54 51 92 42 53 59 57 57 31 28 32 45 32 77 38 40
32 12 62 112 116 120 123 122 117 112 113 114 114 107 98 94
93 96 98 98 101 108 113 113 108 102 96 90 46 2 41 32
29 25 22 16 23 25 15 14 18 41 20 66 63 18 23 21
18 36 44 20 27 33 47 57 91 66 29 27 30 27 16 12
5 4 0 0 0 0 0 0 0 0 0 0 0 0 0 0
0 0 0 0 0 0 0 0 0 0 0 0 0 0 0 0
0 3 32 71 88 72 44 41 43 41 38 46 38 65 36 38
37 41 75 24 24 32 28 44 18 18 20 47 34 63 57 44
38 27 21 92 118 121 124 124 122 118 116 115 115 113 111 108
106 104 106 105 109 115 116 114 107 99 93 73 12 44 51 41
30 24 25 18 23 30 20 18 16 43 16 17 33 31 24 20
19 40 41 22 23 23 29 44 65 57 63 53 33 28 29 16
6 5 0 1 0 0 0 0 0 0 0 0 0 0 0 0
0 0 0 0 0 0 0 0 0 0 0 0 0 0 0 0
15 54 63 50 45 45 31 36 63 43 36 35 34 73 39 40
39 51 68 30 26 35 31 48 20 23 23 44 39 44 79 35
41 50 19 40 109 120 124 125 123 120 119 120 121 119 117 115
114 112 109 110 115 117 116 110 103 96 86 29 16 61 61 55
29 26 20 16 22 36 20 18 19 43 15 16 13 25 37 18
19 40 53 31 32 34 35 54 65 36 32 40 55 38 29 53
18 4 0 1 0 0 0 0 0 0 0 0 0 0 0 0
1 1 0 1 0 0 0 0 0 0 0 0 0 0 1 32
58 41 40 53 53 37 29 31 63 34 32 33 33 73 37 38
36 49 65 33 28 34 33 50 17 22 19 30 55 36 74 49
69 78 52 16 58 115 122 123 122 120 117 119 121 120 122 120
115 112 110 111 114 117 112 106 99 93 53 7 53 78 40 44
49 41 22 24 27 47 19 20 22 42 17 16 17 24 43 22
27 30 50 47 29 28 32 58 44 30 29 33 37 44 70 42
39 12 0 1 0 0 0 0 0 0 0 0 0 0 0 0
0 0 0 0 0 0 0 0 0 0 0 0 0 3 43 84
38 29 34 46 54 39 40 26 66 32 31 35 35 72 42 40
37 43 59 33 30 34 37 50 17 21 21 32 83 37 71 111
69 42 44 23 24 78 119 121 121 118 114 114 116 117 115 114
110 108 108 112 116 115 110 103 97 78 18 37 75 51 30 33
50 68 45 40 53 76 23 19 24 41 15 13 15 27 34 25
26 31 51 47 30 30 46 78 59 44 39 38 87 46 63 39
22 36 6 1 0 0 0 0 0 0 0 0 0 0 0 0
3 3 2 1 2 2 1 1 0 0 0 0 1 38 38 62
57 57 66 79 98 72 72 67 76 39 31 29 31 68 39 36
35 36 53 33 40 44 49 44 14 18 19 29 86 59 86 113
39 32 43 34 17 33 94 120 121 118 114 110 108 108 107 106
105 106 111 115 116 113 107 100 86 28 15 39 60 38 27 25
46 35 29 29 39 73 45 43 43 54 24 20 20 40 59 41
40 40 64 64 51 58 67 103 89 72 65 70 107 53 49 33
38 30 29 5 0 0 0 0 0 0 0 0 0 0 0 0
0 0 0 0 0 0 0 0 0 0 0 0 23 55 52 88
46 53 55 58 74 48 47 38 58 50 47 47 52 84 51 45
44 53 89 58 62 73 96 73 35 31 41 53 80 62 63 88
38 41 44 44 22 21 46 102 120 119 116 112 108 105 103 102
104 109 114 118 117 113 105 94 42 6 32 55 54 37 26 27
58 20 16 15 18 43 25 45 60 74 46 38 37 60 82 64
68 67 87 92 62 44 40 73 58 42 46 47 64 26 45 48
44 28 39 17 0 0 0 0 0 0 0 0 0 0 0 0
0 1 1 0 0 0 0 0 0 0 1 14 62 49 38 63
20 29 34 46 51 29 33 39 63 49 26 32 45 101 77 71
67 75 110 60 50 50 88 59 33 32 42 57 73 34 36 75
42 53 40 47 34 22 28 60 113 120 120 119 114 109 106 107
111 114 118 119 116 110 99 63 10 16 41 68 38 29 23 41
57 18 20 17 16 45 18 20 32 50 25 21 19 37 54 33
38 45 72 66 31 28 28 59 42 28 30 29 55 21 27 62
73 35 21 52 15 0 0 0 0 0 0 0 0 0 0 0
2 2 2 1 0 0 0 0 0 0 5 61 60 33 46 60
21 32 37 50 58 29 32 42 59 52 33 25 28 53 37 44
44 47 75 35 30 35 75 36 27 13 14 29 37 23 32 59
64 45 37 21 22 33 27 38 74 113 118 116 112 110 110 111
112 115 119 120 114 105 84 24 16 36 37 59 6 35 29 59
49 25 19 16 14 48 20 21 23 43 13 11 10 24 47 26
26 30 51 57 32 30 31 64 45 34 32 33 65 18 16 66
77 38 25 47 68 4 0 0 0 0 0 0 0 0 0 0
3 3 2 2 1 1 1 0 0 0 32 85 33 25 44 63
19 32 38 55 66 26 33 43 46 64 39 28 32 40 31 32
29 34 63 45 32 34 69 37 35 20 12 31 32 18 26 37
77 36 19 9 25 58 33 34 51 83 116 121 118 116 116 116
118 121 122 119 113 103 52 25 35 44 64 59 0 23 59 33
36 29 20 19 13 49 19 20 26 49 14 14 11 20 53 27
28 34 48 55 30 29 27 63 40 33 30 31 73 18 22 70
37 67 46 44 46 17 0 0 0 0 0 0 0 0 0 0
4 3 3 2 1 1 0 0 0 6 37 63 41 30 34 66
18 27 35 49 64 22 31 39 37 61 37 31 33 35 34 28
32 37 67 54 32 31 58 37 36 24 12 28 23 19 25 32
78 41 0 5 56 57 69 40 46 66 90 111 117 115 113 115
119 120 122 122 116 83 42 48 72 76 85 22 7 61 98 27
42 28 17 16 12 47 20 21 25 50 13 14 11 18 57 28
29 32 34 58 34 29 31 51 42 31 30 30 71 13 54 46
24 56 61 26 23 28 8 0 0 0 0 0 0 0 0 0
4 3 3 2 1 0 0 0 1 22 44 58 69 28 31 87
38 28 42 62 84 38 35 44 47 66 35 37 41 41 30 26
29 33 65 50 34 33 50 46 35 28 15 24 19 22 27 32
59 13 0 30 83 36 43 59 57 67 83 93 108 118 119 122
126 129 129 128 113 61 50 66 55 53 49 16 30 54 49 42
70 62 30 24 19 65 18 18 20 43 16 16 14 19 50 27
27 34 32 63 27 27 29 39 39 29 30 28 78 26 60 21
20 28 57 29 24 27 23 2 0 0 0 0 0 0 0 0
0 5 4 4 2 1 1 0 15 27 44 34 80 37 26 89
49 44 58 77 114 67 64 71 73 107 58 63 65 82 59 21
24 30 61 47 34 30 39 50 32 29 22 33 14 18 28 41
50 2 0 26 60 47 41 40 60 73 88 94 97 109 124 128
131 134 133 130 95 60 65 45 32 38 28 23 41 42 22 33
50 65 39 40 40 98 38 29 28 58 14 13 15 15 41 29
27 32 36 80 40 38 43 52 72 64 59 53 100 54 30 25
20 26 41 64 31 26 32 15 0 0 0 0 0 0 0 0
