P2
128 120
153
48 42 43 42 43 41 41 42 42 42 42 41 40 40 40 40
40 40 40 39 40 39 39 39 38 38 38 37 37 37 36 36
36 36 35 35 35 34 34 33 33 32 32 31 30 30 29 29
27 27 27 26 26 25 25 24 23 23 22 21 21 21 20 20
20 19 19 20 23 23 23 22 17 9 9 22 21 20 20 19
18 18 17 17 17 15 16 16 19 20 19 19 19 20 20 20
20 21 21 22 22 22 22 23 24 24 24 23 24 24 24 24
25 27 27 27 28 28 29 29 29 31 30 30 30 30 31 30
61 63 63 60 57 52 52 55 58 61 62 56 41 40 40 40
40 39 40 39 39 39 38 38 38 38 38 37 37 37 37 37
36 36 35 35 35 34 33 33 32 32 32 31 31 30 30 28
29 28 28 26 26 26 24 24 23 23 23 22 22 21 21 21
20 19 19 20 24 23 24 23 17 14 13 22 22 21 21 20
19 19 18 17 17 15 16 17 19 19 19 19 20 21 21 22
22 22 23 23 22 23 23 23 23 23 24 24 25 25 26 26
27 27 28 28 28 28 29 29 29 30 31 30 31 31 32 30
53 58 46 36 38 39 41 41 41 43 56 59 50 47 43 40
39 39 39 39 39 39 39 38 38 37 37 37 37 37 37 36
36 36 36 35 35 35 34 34 33 32 32 31 31 29 29 29
28 28 27 27 27 25 25 24 25 24 23 23 22 22 21 20
20 19 20 20 24 24 23 22 18 15 14 22 22 22 21 20
19 19 19 18 17 16 16 18 20 20 21 20 21 21 22 22
22 22 22 23 22 22 23 23 24 25 25 26 26 25 26 26
27 28 28 28 28 29 30 29 30 31 31 30 32 31 31 32
48 51 21 0 0 0 2 0 0 0 43 57 56 58 56 48
43 43 43 42 41 39 38 38 38 38 38 38 38 37 37 36
36 36 36 36 36 35 35 34 34 33 32 32 32 31 31 30
29 28 29 28 27 26 26 25 24 24 23 23 22 22 22 21
21 20 21 21 24 24 25 23 18 17 16 22 23 22 22 21
21 20 19 19 18 16 17 18 20 21 22 21 22 22 21 22
22 22 23 23 23 24 24 24 25 26 26 26 26 26 26 27
28 28 29 28 29 29 29 30 31 32 32 31 31 31 32 32
45 48 22 0 0 0 12 1 0 0 37 54 51 46 29 34
41 45 53 55 55 51 45 39 38 38 38 37 37 37 37 37
36 36 36 36 36 35 35 34 33 33 33 32 32 31 31 29
30 29 29 28 27 26 27 26 26 25 24 24 23 22 22 21
21 21 21 22 25 25 25 24 19 17 18 20 24 23 23 22
21 21 20 19 19 18 17 19 21 21 21 21 22 22 22 22
23 23 23 24 23 24 25 24 25 26 26 26 27 27 28 28
28 28 28 29 29 30 30 30 31 31 32 31 31 32 32 32
44 48 24 0 0 0 7 1 0 0 29 54 49 38 0 1
5 13 21 29 38 52 49 38 38 38 38 38 37 38 37 37
36 37 36 36 36 35 35 35 34 33 33 32 32 31 31 31
30 29 29 28 28 28 27 26 26 25 25 24 24 23 23 22
22 21 21 22 25 26 25 25 20 18 19 20 24 23 23 22
22 21 21 20 20 18 18 18 21 22 22 22 23 24 23 23
24 24 24 25 24 24 25 25 25 25 26 27 26 27 27 27
28 28 29 29 30 30 31 31 31 32 32 31 32 32 32 32
42 47 26 0 0 2 5 1 0 0 25 53 50 36 0 0
0 0 0 0 5 47 50 38 38 38 38 37 38 38 37 37
37 36 36 36 36 35 35 35 34 33 33 33 32 32 31 30
30 29 29 28 28 27 27 27 26 26 25 25 24 23 23 23
22 22 22 22 26 26 26 25 20 18 21 19 26 24 24 23
22 22 21 20 20 18 17 19 22 22 23 23 24 24 24 24
24 24 25 25 25 25 26 26 27 26 26 27 28 28 28 28
29 28 29 29 29 29 31 30 31 31 32 32 31 33 32 32
39 47 33 0 8 9 5 3 0 1 19 53 48 36 0 0
0 0 0 0 3 46 49 38 38 38 37 37 37 37 37 37
37 36 37 36 36 36 35 35 34 34 33 33 32 32 31 31
30 30 30 30 29 28 28 27 26 26 25 25 24 24 23 23
23 22 23 23 27 27 27 26 21 18 23 19 25 25 24 23
22 23 23 21 21 20 18 20 22 23 23 24 24 24 24 24
25 25 25 25 25 25 26 26 27 27 28 28 28 27 28 28
28 28 30 30 30 31 31 31 31 30 31 31 30 31 31 32
41 50 41 0 18 5 0 0 0 1 16 53 49 38 0 1
8 9 0 0 2 45 48 38 38 38 38 38 38 37 37 36
37 36 35 35 35 35 35 35 34 33 34 33 33 33 32 31
31 31 30 30 29 29 28 28 27 26 26 26 25 24 24 23
23 22 23 23 26 27 27 26 22 18 24 18 26 25 25 24
23 23 23 21 21 20 18 21 22 23 24 24 24 25 25 25
25 25 25 26 25 25 26 26 27 27 27 28 28 28 29 29
29 29 30 31 31 30 30 29 30 31 31 32 32 32 32 33
40 50 47 5 13 2 0 0 0 4 13 52 51 39 1 3
11 9 0 0 2 44 48 38 38 37 38 37 36 37 37 37
37 36 36 36 36 35 35 35 34 33 33 33 32 32 32 31
31 31 30 29 29 29 28 28 28 27 27 26 25 25 24 24
23 23 23 24 27 28 28 27 22 19 24 18 25 25 25 24
23 22 23 21 22 21 18 22 23 24 24 24 25 25 25 25
25 25 25 25 25 26 26 27 27 27 28 28 28 28 28 28
29 29 29 29 30 31 32 32 32 32 32 32 32 32 32 33
38 47 51 11 9 2 0 0 0 1 10 49 49 39 1 0
2 6 3 0 2 44 47 38 37 38 37 37 38 37 37 37
37 36 36 36 36 35 35 35 35 34 34 33 33 33 32 32
31 31 31 29 29 29 29 28 27 28 27 25 25 25 24 24
24 24 24 24 27 28 28 27 23 19 25 19 25 26 26 25
24 23 23 22 22 21 18 21 22 24 24 25 25 26 25 25
26 25 26 26 26 27 27 27 28 28 28 28 28 28 28 29
29 30 31 31 31 31 32 32 31 32 32 32 33 33 33 33
37 39 46 12 9 0 2 0 0 0 7 46 48 40 2 0
1 10 10 0 2 43 47 38 38 37 38 37 37 37 37 36
36 37 36 36 36 36 36 36 35 34 34 34 34 33 32 32
31 31 31 30 30 30 29 29 28 27 27 27 26 25 25 25
24 23 24 25 28 29 29 28 23 20 27 21 26 26 25 25
25 23 23 23 23 21 19 22 24 25 25 25 25 26 25 26
26 26 27 26 27 27 28 28 28 28 29 29 28 30 30 29
30 30 31 31 32 32 32 33 33 33 33 33 33 33 33 33
40 34 39 25 23 24 28 27 27 28 29 40 47 45 3 0
3 5 7 1 1 42 47 38 38 37 38 37 37 37 37 37
37 36 36 36 36 35 35 35 35 34 34 34 34 33 33 33
33 32 32 32 31 31 30 30 29 29 27 27 27 26 26 25
24 25 25 25 28 29 29 27 23 20 26 22 25 27 26 26
25 24 23 23 23 22 19 22 24 25 25 25 26 27 26 27
26 26 27 27 27 27 27 27 28 28 28 29 28 29 29 29
30 30 32 32 32 32 32 32 33 32 32 32 33 33 33 33
32 31 33 32 30 30 32 29 30 30 29 28 40 43 8 2
3 3 6 7 10 43 47 37 38 38 38 37 37 37 37 36
37 37 36 37 36 36 36 35 35 34 35 34 33 33 32 33
32 32 31 30 30 30 29 29 28 28 29 28 27 27 26 25
25 24 25 25 27 29 29 28 24 19 26 23 23 27 26 26
25 24 24 23 23 22 19 23 24 26 26 26 26 26 26 25
25 25 26 26 28 27 28 28 28 29 29 30 29 30 30 30
30 31 31 31 32 32 32 33 33 33 33 33 33 33 33 33
18 19 19 20 22 22 23 26 30 32 35 33 34 37 35 33
30 25 21 18 22 44 45 38 38 38 38 37 37 37 38 37
37 36 36 37 36 35 35 35 35 34 34 33 33 34 35 34
33 32 34 33 32 30 30 29 27 26 27 28 27 26 26 26
26 25 25 26 28 30 29 29 25 19 27 27 22 27 27 26
25 24 23 23 23 23 19 24 23 25 25 25 25 25 26 27
27 27 28 28 28 28 28 29 29 28 29 29 29 30 31 30
31 31 32 32 31 32 33 33 32 32 32 32 33 33 33 32
17 16 16 17 17 17 17 19 20 23 26 28 24 24 26 29
31 34 37 39 40 42 41 38 38 37 38 37 37 37 37 36
36 36 36 36 36 36 35 35 35 35 35 34 33 33 33 31
31 31 30 32 31 29 27 28 29 28 28 30 29 27 26 25
25 25 25 26 28 30 30 28 25 21 27 28 22 28 27 26
26 25 24 23 24 23 18 23 23 25 26 26 26 26 27 27
27 27 27 27 29 29 28 29 29 29 29 30 30 31 31 31
31 31 32 32 32 33 32 33 32 32 32 33 32 33 33 34
20 16 18 16 15 16 16 16 17 17 17 17 18 18 18 20
23 25 29 32 35 36 38 39 38 38 38 38 38 38 38 37
37 37 37 36 36 36 35 35 36 36 33 34 34 32 30 30
29 27 28 29 29 28 29 27 27 27 26 28 27 29 29 28
26 26 26 27 28 29 30 30 26 20 27 30 21 28 28 27
26 26 25 25 25 25 20 25 26 27 27 26 27 28 28 28
28 28 28 29 30 29 29 29 29 29 30 30 31 30 31 30
32 32 32 33 33 33 33 34 33 33 33 34 34 34 34 34
35 34 26 26 18 17 15 18 19 19 19 18 17 16 15 16
15 15 16 18 20 23 27 31 34 36 37 38 38 38 37 36
37 37 34 35 34 34 33 34 34 33 32 31 35 27 23 18
20 21 21 19 25 28 27 28 24 16 12 17 18 19 24 26
27 26 26 27 27 30 30 29 26 20 26 31 22 28 27 27
26 25 24 23 24 24 20 24 25 26 26 26 27 27 27 27
27 27 28 28 29 28 29 28 29 29 30 29 30 30 30 31
31 32 32 32 31 32 32 32 33 32 33 32 31 31 31 31
24 33 32 46 47 43 38 34 36 35 35 37 39 27 15 15
16 16 16 15 15 16 16 17 18 18 21 25 28 31 34 36
37 36 35 36 35 33 36 34 33 31 31 27 24 16 16 13
13 13 11 14 18 12 14 17 13 9 3 4 8 13 15 17
17 17 22 25 29 31 32 30 26 21 26 31 22 27 28 28
27 26 26 25 24 25 21 25 25 27 27 27 27 27 27 27
28 28 29 29 30 30 30 29 30 30 30 30 30 31 31 32
32 32 33 33 32 32 32 32 32 32 32 31 32 33 33 33
17 18 20 40 17 10 12 20 32 33 35 46 58 49 34 29
26 25 25 22 20 18 17 17 17 17 18 18 16 13 18 33
37 36 37 37 36 34 33 31 32 30 27 22 16 13 7 9
10 9 9 6 11 9 8 6 7 7 1 1 6 11 13 9
10 9 8 15 22 27 27 30 27 21 27 33 24 27 29 29
27 26 26 25 25 25 21 25 25 27 27 27 28 28 28 29
29 29 29 29 30 30 30 30 30 30 31 31 31 32 31 32
32 31 32 32 31 32 33 33 33 32 33 33 33 33 33 34
17 18 20 38 11 0 0 14 35 33 36 45 53 54 52 51
43 49 49 46 42 28 23 23 20 16 16 17 16 14 17 32
37 36 36 37 36 32 30 31 29 29 25 21 13 8 6 6
11 7 5 5 9 8 6 6 5 9 4 0 4 8 13 10
9 7 5 7 11 19 27 25 27 23 26 32 24 25 29 28
28 27 26 25 26 25 22 26 26 28 28 28 28 28 29 29
29 29 30 29 31 31 31 31 30 31 31 31 31 32 31 32
32 31 31 32 32 33 33 32 32 32 33 34 33 33 33 33
19 19 20 40 11 0 0 8 21 23 25 39 51 54 55 54
49 48 52 51 50 35 33 39 41 35 34 29 23 16 18 32
34 38 35 34 32 27 29 29 27 21 9 13 11 5 6 6
12 8 5 6 8 10 5 8 5 7 8 5 4 10 13 12
9 10 8 7 9 9 18 25 24 21 26 31 26 24 30 30
29 27 27 26 26 26 23 26 25 28 28 28 29 29 30 29
30 30 30 31 31 30 30 30 31 31 31 32 32 31 32 32
32 32 33 32 32 32 32 33 33 32 32 34 33 33 33 34
21 19 21 44 13 0 0 8 8 2 0 31 50 44 33 41
36 42 47 51 52 39 39 43 45 41 49 49 42 18 20 30
35 38 36 31 33 34 23 15 14 11 7 10 12 5 8 4
13 10 5 8 8 12 7 8 6 6 6 5 6 10 12 12
7 10 10 9 12 10 10 18 21 21 22 28 28 23 30 29
29 28 28 26 27 26 24 27 26 29 29 29 29 29 29 30
30 30 30 30 30 31 31 31 31 32 32 32 33 32 32 32
33 32 33 33 33 32 33 33 33 33 33 35 34 34 34 33
5 6 9 43 13 0 1 20 19 0 0 31 51 35 0 16
3 7 13 18 33 42 41 45 47 48 51 51 46 22 21 32
33 39 42 28 21 16 17 10 9 8 5 7 11 7 9 3
10 13 6 7 9 12 9 11 7 6 7 6 8 10 12 14
9 10 10 10 12 16 11 12 17 21 20 25 29 21 30 30
30 29 30 28 27 27 25 27 27 29 30 30 30 30 30 29
30 30 30 31 31 31 31 32 32 32 32 32 33 32 33 33
32 33 33 33 33 33 33 33 33 33 33 35 34 33 34 34
0 1 7 44 14 7 10 28 37 15 0 31 51 34 0 1
0 0 6 5 20 42 42 44 46 48 49 44 36 24 25 27
31 35 34 22 17 17 13 14 10 7 6 2 10 7 11 3
7 13 9 6 12 12 10 10 9 9 7 7 11 11 11 12
15 5 11 9 12 13 15 11 14 19 15 17 24 21 30 30
28 28 29 27 27 27 25 27 26 29 29 30 30 30 30 30
31 30 30 31 31 31 32 32 32 32 32 33 34 32 33 32
33 33 33 33 33 33 33 33 33 34 34 35 35 34 34 33
0 0 6 46 16 7 19 33 26 25 6 26 53 37 0 0
0 0 19 12 23 39 28 34 40 46 44 35 21 17 22 25
38 35 23 20 11 17 20 13 16 10 5 7 8 6 11 5
10 16 15 9 14 14 13 11 8 8 9 7 9 12 12 12
14 8 13 9 9 12 14 15 12 17 19 14 18 19 28 30
30 29 30 28 28 28 26 27 26 30 30 30 30 31 31 31
31 31 32 32 32 32 32 32 32 32 32 32 34 33 33 33
33 33 34 34 34 34 34 34 34 34 33 34 34 33 34 34
0 0 7 48 18 2 15 30 25 19 3 24 54 43 1 1
0 0 16 12 24 35 2 4 11 16 24 19 14 9 19 30
32 28 22 18 12 18 24 23 17 15 9 6 8 5 14 7
5 10 21 11 17 23 14 18 9 9 10 8 7 14 17 14
13 14 9 12 10 11 13 16 13 13 16 17 17 18 20 29
30 30 29 28 28 28 27 28 27 31 31 31 31 32 32 31
31 31 31 31 31 32 32 32 32 33 33 33 35 34 34 34
33 33 33 34 33 34 33 34 34 34 34 35 35 34 34 34
2 0 7 50 20 0 0 8 11 2 0 22 55 45 2 0
0 0 2 0 20 36 1 0 1 2 15 14 10 3 9 27
38 24 20 13 11 15 23 35 19 17 11 7 8 8 10 11
10 7 22 23 14 22 21 17 16 10 11 8 9 13 20 20
16 17 10 13 12 12 13 16 18 14 12 18 15 16 17 20
29 30 29 29 29 29 27 27 28 31 32 31 31 31 32 31
32 32 31 32 32 33 33 32 33 33 33 33 34 33 34 33
34 34 34 34 35 35 35 35 34 34 35 35 34 35 34 35
0 0 4 41 22 0 0 0 0 0 0 21 56 48 3 0
1 5 3 0 19 36 2 3 3 11 18 8 6 3 12 31
36 24 16 13 14 14 26 43 33 18 12 8 8 8 7 12
15 7 13 36 22 15 27 23 26 16 13 10 10 13 17 21
24 18 19 12 15 11 14 11 19 19 15 12 16 15 17 16
25 29 29 29 29 29 26 27 28 31 32 31 32 32 33 31
32 31 32 32 32 32 32 32 33 33 34 34 34 34 34 34
35 35 34 34 35 35 35 34 35 34 34 35 35 36 36 36
0 0 5 41 24 0 0 0 0 0 0 18 56 51 5 2
16 18 13 0 19 36 5 7 17 24 11 10 6 7 10 30
32 24 17 17 21 27 38 60 53 24 11 9 8 9 8 9
17 12 9 17 33 18 17 26 23 26 16 15 13 14 15 19
26 23 24 19 23 16 14 14 13 17 19 15 12 21 18 20
19 27 28 29 29 29 28 27 29 31 32 32 31 32 32 31
31 32 33 32 33 32 33 33 34 34 35 34 35 34 34 35
35 35 36 35 34 34 35 35 35 35 35 36 36 35 35 35
0 0 7 42 34 17 15 14 13 11 9 24 56 53 9 2
2 5 5 0 18 36 5 9 26 26 14 13 11 6 7 23
29 21 23 29 37 54 78 90 76 39 16 11 10 9 10 9
16 24 10 19 20 28 19 16 18 22 26 16 17 17 16 18
23 33 28 28 21 28 17 14 14 16 13 19 16 18 27 23
19 23 28 29 29 29 28 27 29 32 32 32 32 32 33 32
32 32 32 33 32 33 33 32 33 34 34 34 35 34 34 34
35 35 36 35 35 35 35 34 35 35 35 35 35 35 35 36
0 0 5 42 53 51 48 45 43 40 36 36 41 38 6 1
7 8 1 0 17 35 5 21 28 22 22 15 10 3 4 20
23 20 26 41 76 100 113 113 97 55 23 14 12 7 13 13
17 29 20 17 20 20 26 22 16 16 20 22 19 15 19 19
22 31 34 27 24 26 28 15 23 19 17 13 24 18 28 35
25 22 25 29 29 29 29 27 29 32 32 32 32 32 32 32
32 32 32 33 33 33 34 33 33 33 34 33 34 35 34 34
34 34 35 35 35 35 36 35 34 35 35 35 35 35 35 35
0 0 3 47 48 36 38 37 40 44 43 35 27 19 4 2
5 8 1 0 17 33 1 25 31 19 21 17 11 7 6 11
10 9 28 84 111 119 116 112 103 69 39 16 17 13 19 13
20 28 29 15 25 17 21 29 24 21 20 19 19 24 21 21
18 21 27 28 20 19 25 20 18 23 19 15 13 26 23 41
37 31 25 29 29 29 29 26 29 31 32 31 32 33 32 33
33 32 33 33 33 34 34 34 34 34 34 34 34 34 35 35
35 36 36 36 36 35 36 36 36 36 36 35 35 35 36 35
0 0 3 49 34 0 1 3 6 13 20 36 36 40 43 39
36 34 28 22 31 36 9 22 29 25 16 20 11 3 0 0
3 3 48 112 119 121 122 118 110 94 58 21 18 16 17 22
20 25 29 21 21 32 18 24 29 22 22 22 20 25 26 16
16 17 25 25 21 20 18 25 19 22 25 19 15 13 24 20
29 43 34 25 29 30 29 27 30 32 33 31 31 32 32 33
33 33 33 33 33 34 34 34 34 34 35 35 34 35 34 35
35 35 36 35 36 35 35 35 34 35 35 34 34 33 35 34
0 0 4 47 36 1 0 0 0 0 0 20 52 37 25 30
35 42 45 47 44 53 45 39 39 33 25 26 16 1 0 1
3 17 100 116 122 122 121 118 118 107 81 31 23 24 13 21
21 29 31 34 26 32 37 17 23 27 25 28 23 30 32 28
23 24 23 21 20 19 28 21 25 24 24 26 17 17 18 22
20 24 41 32 27 30 29 27 30 31 33 32 33 33 33 33
34 34 34 33 34 35 34 34 34 34 34 34 35 34 35 35
35 35 36 35 35 35 35 34 33 33 31 30 27 24 22 19
1 0 11 49 37 5 0 0 7 7 0 18 55 35 15 12
20 19 14 15 50 64 51 42 41 31 32 25 18 1 0 2
4 69 115 120 124 124 123 121 120 119 101 50 26 31 19 18
25 26 31 40 36 33 34 30 17 30 31 27 25 27 28 34
28 18 20 21 19 20 22 32 27 30 28 36 30 21 20 21
17 15 19 29 26 29 29 27 30 32 34 33 34 33 33 33
34 33 33 32 32 35 34 34 34 35 35 35 35 34 35 35
35 35 34 33 30 27 29 34 22 18 17 17 16 17 17 18
5 5 25 49 36 13 15 5 20 11 0 16 55 36 7 9
10 7 5 6 53 60 47 40 43 32 33 22 15 0 0 1
24 110 119 124 128 131 131 127 128 123 111 72 28 32 27 17
25 29 26 34 38 35 33 42 33 19 24 26 19 19 25 27
28 22 18 13 19 20 27 25 32 34 35 34 37 38 23 25
24 15 9 9 22 29 28 26 31 32 32 32 32 33 32 32
32 33 33 33 32 35 34 34 34 35 35 35 34 32 29 27
24 21 19 18 18 17 19 34 18 17 20 21 22 23 24 25
4 8 34 49 33 24 28 13 17 9 1 15 54 33 0 5
3 0 0 6 51 54 39 23 38 25 36 23 14 1 3 2
61 121 123 129 133 136 139 138 133 125 118 88 46 27 33 20
25 25 26 25 38 34 29 32 36 27 23 20 17 17 20 22
22 19 20 19 15 20 27 37 37 32 29 28 24 27 27 29
26 29 15 3 8 28 28 27 31 32 33 33 32 32 31 31
30 30 33 33 33 33 31 17 23 26 24 21 20 19 19 18
19 20 21 22 23 24 22 30 19 23 27 28 29 30 30 31
11 16 43 53 31 13 8 2 19 24 4 14 51 31 0 0
0 0 0 5 49 54 36 12 30 12 29 29 16 0 2 6
91 125 127 130 136 141 143 143 135 128 122 102 72 30 40 20
23 28 26 31 35 35 29 22 22 20 18 19 16 15 16 18
21 25 25 22 25 24 30 33 38 28 16 10 11 10 9 19
31 35 35 14 1 12 29 27 29 29 29 30 30 29 28 29
26 18 26 25 22 20 9 8 19 19 20 21 22 22 23 25
26 27 28 28 29 30 28 33 23 28 31 32 32 32 33 33
43 41 42 54 45 28 24 24 28 16 6 18 52 32 4 15
0 0 0 2 45 56 33 12 27 9 40 32 21 0 2 15
111 127 130 133 139 143 146 146 143 136 131 119 81 52 38 29
14 29 18 23 22 23 30 26 17 16 16 15 19 20 22 21
22 28 28 26 34 35 28 24 20 21 19 15 12 20 29 11
14 27 43 25 10 2 19 25 27 28 28 26 26 24 22 21
19 16 19 20 17 11 14 24 24 26 27 28 28 29 29 30
31 33 32 32 33 31 23 13 12 30 34 35 34 34 35 35
42 34 7 44 51 39 25 47 42 14 1 19 55 35 15 24
0 0 0 1 39 53 27 7 24 11 41 30 21 0 5 29
117 126 133 136 136 144 145 146 145 142 131 127 104 76 38 40
15 26 20 18 28 21 25 25 17 19 14 14 15 15 19 21
27 32 33 34 29 28 27 24 24 20 19 23 27 29 42 35
21 32 33 34 22 7 12 16 20 19 18 18 19 19 20 21
22 23 25 20 19 17 29 30 31 31 32 32 32 32 32 33
33 33 34 33 33 32 21 4 3 28 35 35 36 34 35 35
31 23 1 31 48 35 11 43 38 15 1 19 57 38 5 18
2 0 0 0 34 47 31 1 18 9 40 26 20 1 3 39
117 126 132 137 136 144 145 144 144 144 139 136 126 90 66 30
27 15 23 13 21 28 20 23 18 12 16 13 14 13 13 13
20 24 27 31 31 38 33 29 31 28 25 25 32 31 26 23
17 24 30 23 27 9 15 14 18 16 20 23 23 25 26 27
29 29 23 19 30 20 31 32 32 32 32 34 34 34 35 34
31 31 24 14 8 19 19 7 2 26 35 36 36 35 36 35
38 33 7 22 43 25 1 35 27 12 1 16 57 39 0 5
1 0 0 0 35 48 32 4 14 6 33 26 16 2 1 44
120 127 133 135 141 146 145 145 144 139 140 143 136 121 83 59
27 21 15 20 12 18 19 17 16 10 10 13 13 17 19 18
23 27 27 30 35 33 38 29 29 24 19 23 21 29 31 17
13 9 14 16 16 17 10 17 23 21 26 28 29 29 30 29
29 29 18 32 33 22 11 13 14 7 15 28 34 31 30 19
2 1 3 2 1 18 20 0 1 25 34 36 36 34 35 35
38 42 24 12 25 24 2 22 18 2 0 15 55 39 0 0
0 0 0 0 37 47 19 6 13 5 25 23 11 2 2 59
122 127 133 135 141 144 145 145 145 143 140 141 144 136 111 80
52 27 16 12 18 10 11 15 13 11 7 8 11 12 13 18
27 30 33 31 34 33 31 34 20 15 16 16 14 10 12 15
5 2 6 10 7 14 9 19 25 22 28 29 30 30 31 30
30 21 25 21 31 26 1 0 0 0 8 13 13 1 0 0
2 1 0 0 0 11 23 0 1 24 33 34 35 34 35 35
3 7 2 0 0 10 21 8 4 7 11 22 51 35 0 0
0 0 0 1 40 48 15 1 8 10 13 19 7 6 3 72
122 126 129 137 142 146 146 146 146 146 145 145 143 134 120 106
90 57 30 17 14 17 11 10 13 14 12 12 10 7 8 10
17 21 22 29 31 38 31 19 12 5 2 2 2 5 2 4
5 1 0 4 5 4 9 16 27 26 31 31 31 31 31 31
25 7 2 0 10 33 3 0 0 0 0 0 0 0 0 0
0 17 0 0 0 5 27 3 2 26 34 35 36 34 34 34
11 0 0 0 0 0 1 7 4 19 44 45 46 37 19 16
11 8 5 5 41 47 15 0 1 13 9 17 8 11 6 98
122 124 128 139 144 146 147 146 146 146 146 146 145 142 133 121
111 98 69 35 23 19 17 15 14 10 11 14 16 19 18 22
21 18 24 34 25 19 18 17 14 18 20 20 13 4 2 1
0 2 1 0 3 2 8 14 28 28 32 32 32 32 32 31
11 9 23 9 1 2 0 0 0 0 0 0 0 0 0 0
0 0 0 0 0 5 28 14 11 29 35 35 35 34 35 34
9 1 0 3 1 3 11 33 37 35 49 51 49 44 48 43
33 37 36 31 38 40 21 2 0 15 11 16 7 13 20 115
124 122 130 143 145 146 147 147 147 147 146 146 145 145 145 141
126 112 97 83 51 26 18 14 13 13 11 12 15 16 15 24
28 29 21 16 19 28 27 30 35 40 38 22 13 6 3 1
0 5 4 0 0 1 2 11 28 29 33 33 33 32 32 26
12 29 21 19 30 30 27 27 26 27 25 11 21 5 0 0
0 0 0 0 0 14 27 25 26 32 35 35 36 35 34 35
8 0 0 14 35 33 44 45 52 51 50 52 54 46 24 16
11 13 18 17 25 36 34 31 24 27 27 20 7 11 52 122
124 124 131 143 145 146 146 146 146 146 146 146 145 145 145 145
142 137 128 111 89 75 51 31 21 17 13 11 13 14 14 16
23 32 34 33 29 25 27 28 35 35 26 15 8 3 2 1
0 0 5 4 1 0 0 7 28 30 33 33 32 33 30 11
15 19 30 34 35 34 34 35 34 34 34 25 3 0 0 0
0 10 12 12 15 30 29 28 30 34 35 34 35 34 35 35
37 19 16 32 49 47 39 31 49 41 29 34 39 41 4 0
0 0 14 12 22 37 33 26 25 33 37 32 16 9 83 122
123 124 128 136 138 141 143 140 140 140 147 146 146 145 145 145
144 143 142 139 128 111 93 74 61 44 32 29 32 22 20 28
28 25 25 29 29 23 18 17 19 17 19 15 7 4 3 5
2 0 1 2 1 1 0 3 27 31 34 33 33 32 16 20
33 33 34 33 34 34 33 34 34 33 31 4 0 2 1 0
0 32 34 33 33 32 31 31 34 36 35 34 36 35 35 35
51 50 49 50 51 45 23 3 20 13 0 0 6 38 5 0
4 5 10 14 28 39 31 6 1 7 13 22 25 15 96 120
124 123 117 118 93 86 106 106 114 118 136 145 146 146 145 144
143 143 141 142 143 142 121 107 93 74 50 38 29 29 29 23
22 28 29 29 26 27 26 24 18 19 19 10 4 4 4 3
3 1 0 0 0 1 2 3 21 31 34 33 33 24 12 33
34 34 34 35 34 34 35 34 35 34 32 3 0 4 11 0
0 31 34 34 34 34 33 34 35 34 35 35 34 35 35 35
52 52 52 50 45 36 17 0 0 5 0 0 3 39 7 2
24 34 17 8 27 40 30 2 4 22 24 27 31 29 88 120
124 123 106 84 61 53 53 57 79 97 107 119 132 144 144 144
145 142 144 142 144 144 135 123 106 85 55 46 41 28 24 29
29 27 22 22 27 25 23 24 24 20 29 31 19 6 1 0
0 0 0 1 0 0 0 2 12 30 34 33 30 9 30 35
34 34 35 35 35 35 35 35 35 34 32 4 0 0 1 0
0 29 34 35 34 33 33 35 35 35 35 35 36 36 35 35
54 55 54 44 18 19 11 7 3 16 6 0 3 38 8 12
34 32 5 0 27 43 30 1 3 15 31 36 41 25 53 113
122 117 91 69 66 48 39 44 61 73 85 94 99 124 141 143
144 138 144 145 145 145 144 131 117 92 60 44 40 39 33 29
30 30 24 21 23 27 26 25 27 25 23 37 37 20 9 1
0 0 0 0 0 0 0 1 9 30 34 33 17 23 35 34
35 34 35 35 36 35 34 35 34 34 33 3 0 0 0 0
0 25 35 34 34 34 35 36 36 36 35 36 36 36 35 36
31 34 36 40 41 44 38 40 36 39 12 0 4 38 12 4
31 36 4 0 28 44 30 1 1 3 10 33 48 25 20 81
119 116 87 79 88 81 67 72 75 78 83 89 98 103 117 130
138 141 146 146 145 145 145 144 131 102 70 49 43 33 30 29
32 26 26 24 24 23 26 39 60 91 101 76 35 27 16 10
1 0 0 0 0 0 0 0 5 28 34 32 11 32 35 33
34 34 35 35 35 35 35 31 24 18 19 2 0 1 0 0
0 24 36 35 36 36 35 36 36 35 35 35 35 36 35 35
0 0 1 6 30 33 12 6 8 9 3 0 4 38 7 0
15 16 7 3 29 46 33 1 0 0 1 26 49 31 11 41
106 121 121 109 106 95 88 87 96 104 113 112 114 120 122 118
127 140 145 146 145 146 146 146 143 116 82 51 35 33 30 29
27 24 28 31 22 24 31 70 109 121 127 133 103 20 16 11
6 2 0 0 0 0 0 0 0 25 34 31 12 34 34 34
35 34 35 36 36 35 35 11 8 1 0 0 0 0 0 0
0 20 34 35 34 36 36 35 36 36 35 36 36 36 35 35
0 0 0 3 34 38 10 0 0 0 0 0 2 37 7 0
0 0 2 1 27 46 31 0 0 0 0 26 51 35 19 70
84 122 135 126 113 89 53 49 83 104 108 100 108 118 126 130
132 139 144 144 145 146 146 146 145 127 95 55 38 34 35 31
33 34 29 33 26 32 71 121 95 65 63 92 132 83 1 6
4 2 1 0 0 0 0 0 0 15 34 31 12 34 34 34
35 36 36 36 36 36 35 29 38 17 24 0 0 0 0 1
1 13 31 34 34 35 35 35 35 35 36 35 35 35 36 35
0 0 0 5 40 44 16 0 0 0 0 0 2 37 8 0
0 0 0 0 26 47 30 0 0 0 0 24 50 35 24 60
79 122 142 131 119 94 57 49 61 99 89 89 98 101 115 127
135 143 146 146 146 146 145 146 144 130 100 63 41 31 29 26
29 32 32 37 52 74 112 92 90 118 133 114 114 129 22 0
0 0 0 0 0 0 0 0 0 11 34 32 12 33 34 34
35 34 35 35 36 35 35 46 49 19 8 0 0 0 0 0
0 3 6 16 18 26 35 36 35 35 36 36 35 35 35 35
7 11 12 17 44 52 25 0 0 0 0 0 1 36 8 0
0 0 0 0 24 47 31 0 0 0 0 20 46 33 17 21
62 124 148 137 116 97 73 60 58 147 138 112 96 109 113 121
136 145 147 146 146 146 145 145 144 135 109 74 45 33 28 22
22 25 39 54 75 93 105 70 88 140 146 144 121 133 62 0
0 0 0 0 0 0 0 0 0 8 33 33 13 32 34 34
35 35 34 31 29 26 23 9 5 6 0 0 0 0 0 0
0 2 4 0 6 20 37 36 36 34 35 35 35 35 34 34
32 38 38 43 50 41 14 0 0 0 0 0 1 35 7 0
0 0 0 0 24 48 33 0 0 0 0 19 48 35 24 18
38 128 150 146 128 97 91 78 88 143 135 125 123 122 124 131
142 146 147 146 146 146 147 146 146 138 117 81 54 36 28 24
23 31 55 67 74 102 110 89 106 146 146 146 135 132 88 3
0 0 0 0 0 0 0 0 0 15 32 33 15 29 34 34
35 34 25 8 6 8 8 2 0 0 0 0 0 0 0 1
0 1 5 1 4 20 36 36 36 36 35 36 35 35 34 34
41 42 43 50 52 25 0 0 0 0 0 0 1 35 21 13
16 19 24 28 38 45 30 1 0 0 0 20 52 36 25 28
47 136 149 148 143 110 106 85 99 113 124 141 141 140 138 141
146 147 147 146 146 146 146 145 143 137 121 91 65 54 43 34
32 47 52 61 80 101 115 102 125 145 145 145 140 132 91 7
5 0 0 0 0 0 0 0 0 23 32 33 21 24 33 31
28 26 15 3 3 4 3 2 6 4 1 0 0 0 0 0
0 0 6 2 2 17 36 36 36 36 35 35 34 34 34 34
14 18 24 32 49 38 27 28 26 24 22 22 24 41 42 41
43 45 46 47 45 37 29 21 18 16 12 26 48 34 27 33
66 144 148 148 146 129 118 104 106 126 141 144 146 147 146 146
147 147 146 146 146 146 146 146 142 138 126 108 85 65 68 55
57 62 77 75 81 95 72 114 138 146 145 145 139 133 79 4
11 2 0 0 0 0 0 0 0 20 27 23 15 8 9 6
5 5 5 6 6 7 8 8 6 4 9 7 0 0 0 0
0 0 6 3 4 14 35 36 35 35 35 35 34 34 34 34
0 0 2 10 46 50 49 49 48 46 45 46 48 47 44 40
44 44 45 45 44 42 42 42 41 40 38 39 42 40 40 44
109 146 147 148 146 131 119 107 111 129 143 146 147 147 146 147
147 146 146 147 146 147 147 146 145 141 132 115 104 78 82 66
75 83 99 103 95 96 45 51 126 145 145 141 139 136 70 2
7 9 0 0 0 0 0 0 0 9 5 4 5 6 8 9
9 10 10 10 11 10 11 6 2 2 6 12 0 0 0 0
0 1 5 8 11 14 32 34 34 35 34 35 35 34 33 33
0 0 2 11 47 52 53 52 53 51 52 53 52 38 28 30
40 41 40 40 40 41 41 40 40 40 40 40 40 41 42 73
140 146 144 146 147 141 135 114 118 132 144 147 147 148 147 147
147 147 146 146 146 146 146 146 144 143 141 129 120 106 102 90
104 102 109 122 122 107 77 32 75 142 145 143 134 137 57 6
1 9 1 0 0 0 0 0 0 9 9 10 10 10 10 10
9 8 6 5 4 3 10 8 3 5 9 5 0 0 0 4
2 1 4 11 12 14 31 35 35 36 35 35 34 34 34 34
0 0 2 11 48 49 48 44 45 43 44 49 42 23 23 27
39 41 40 40 40 40 40 39 39 38 38 39 39 39 46 118
146 147 144 146 147 146 146 130 121 132 143 147 147 147 147 147
147 147 147 147 147 146 146 146 145 143 138 130 121 118 116 115
125 128 131 137 133 105 122 86 79 130 145 143 131 131 42 24
0 1 4 0 0 0 0 0 0 5 10 5 3 2 1 0
0 0 0 0 0 1 11 10 8 5 5 1 0 0 0 1
0 0 8 7 7 11 32 36 36 35 35 35 34 35 34 34
0 0 0 11 46 25 11 15 11 10 12 18 15 21 23 26
38 40 32 23 21 20 20 19 19 17 18 17 17 17 66 140
146 147 145 145 148 148 148 143 130 132 142 147 148 148 148 148
147 147 147 147 146 146 145 145 144 139 134 128 120 117 119 123
135 142 143 145 143 106 112 126 97 128 145 144 134 112 35 31
3 0 1 0 0 0 0 0 0 3 10 0 0 0 0 0
0 0 0 0 0 3 11 10 9 7 8 8 8 9 11 11
12 15 19 19 18 18 26 24 25 27 35 35 35 35 34 34
0 0 0 9 48 18 0 2 0 0 1 9 6 21 22 25
36 38 27 3 0 0 0 0 0 0 0 0 0 9 112 147
145 146 147 147 148 148 148 148 140 136 142 146 148 148 148 147
148 147 147 147 146 147 145 142 141 136 131 123 118 118 118 123
140 144 146 145 141 112 97 112 115 136 144 139 136 78 32 30
9 0 0 0 0 0 0 0 0 6 6 0 0 0 0 0
0 0 0 0 0 6 12 11 9 29 22 21 22 28 26 23
28 25 23 22 16 15 47 20 15 20 35 35 34 35 33 32
0 0 0 9 47 19 0 1 1 1 4 15 16 21 21 25
35 39 31 7 0 0 0 0 1 2 3 2 4 50 141 146
145 145 147 146 148 148 148 148 146 141 141 147 148 148 148 148
147 147 147 146 146 146 145 141 138 133 125 121 117 118 122 123
137 145 146 144 132 127 103 102 125 131 144 131 126 35 24 20
17 0 0 0 0 0 0 0 0 8 4 0 0 0 0 0
0 0 0 0 0 9 12 11 9 24 18 21 24 31 54 51
68 69 72 32 17 37 113 53 13 17 34 34 33 16 6 6
0 0 0 6 45 20 0 2 2 11 17 17 16 20 21 24
34 38 33 11 0 1 1 1 2 3 3 4 13 111 142 140
140 143 147 147 147 147 148 147 146 144 145 148 148 147 148 147
147 147 147 147 147 146 144 141 138 133 127 120 120 120 123 126
136 142 144 142 127 128 118 113 128 138 136 131 84 13 13 10
14 0 0 0 0 0 0 0 1 9 1 0 0 0 0 0
0 0 0 0 0 11 11 13 9 20 17 24 27 36 88 74
94 92 93 36 18 101 126 111 28 17 34 34 30 1 0 0
0 0 0 5 43 21 0 1 9 16 16 16 16 20 22 24
33 38 34 14 0 0 1 1 2 3 4 6 61 132 138 138
139 140 143 146 146 146 147 146 145 143 145 148 148 148 148 147
147 147 147 146 146 146 144 141 134 132 124 121 120 122 123 125
130 134 138 143 121 128 143 141 142 141 132 124 36 10 8 4
8 4 0 0 0 0 0 0 4 9 0 0 0 0 0 0
0 0 0 0 2 12 11 14 8 12 25 28 33 31 50 43
45 42 37 30 27 56 41 35 27 19 33 34 29 1 0 0
0 0 0 5 42 22 0 0 8 16 17 16 15 20 21 23
31 37 35 18 0 0 2 2 3 3 4 16 109 135 135 134
134 133 135 141 146 147 148 146 141 142 146 148 148 148 148 148
148 147 146 142 146 146 142 139 134 131 126 123 122 121 123 124
122 119 122 138 145 145 142 140 143 142 140 68 15 9 4 1
1 1 0 0 0 0 0 0 3 7 0 0 0 0 0 0
0 0 0 0 4 12 12 15 6 2 28 33 36 25 27 27
23 19 21 23 25 24 24 24 25 17 32 34 34 13 0 0
0 0 0 6 41 23 0 0 7 15 16 17 16 19 21 23
30 38 36 20 1 1 1 1 2 3 3 50 126 137 135 130
125 123 123 123 132 145 147 143 139 141 146 148 148 148 148 148
147 147 146 144 146 146 140 136 131 129 127 125 124 122 121 120
117 115 118 132 145 145 141 138 144 142 107 38 15 12 4 0
1 0 0 0 0 0 0 0 3 5 0 0 0 0 0 0
0 0 0 0 8 12 12 14 2 2 20 27 37 25 27 21
21 18 17 22 27 26 26 25 24 16 31 34 31 31 3 0
19 17 17 23 44 26 0 0 8 16 17 17 15 19 21 23
29 37 35 23 1 1 1 1 2 3 5 84 137 142 133 129
127 127 125 120 117 133 143 131 137 139 145 147 148 148 148 148
147 146 146 145 144 144 138 137 130 127 129 125 122 122 119 115
110 117 116 137 143 144 142 140 134 109 76 40 19 10 3 0
0 0 0 0 0 0 0 0 4 2 0 0 0 0 0 0
0 0 0 0 10 11 11 10 0 0 2 15 37 25 26 16
18 17 18 24 28 27 26 23 23 10 28 27 6 7 3 0
45 45 45 43 41 30 0 0 8 16 16 17 15 19 20 22
28 37 35 24 2 1 2 1 2 2 6 96 137 136 129 126
130 133 132 136 120 123 137 133 133 135 140 143 147 148 147 147
147 146 146 146 144 145 141 138 128 126 128 124 124 119 119 114
110 116 114 134 141 142 140 122 102 105 85 46 23 9 3 0
0 0 0 0 0 0 0 0 6 0 0 0 0 0 0 0
0 0 0 1 11 11 12 8 0 0 0 18 34 25 25 14
20 18 17 24 27 27 26 24 23 10 15 3 0 0 6 0
29 22 16 10 11 29 1 0 10 15 16 16 15 19 21 22
27 35 35 25 3 0 1 1 2 2 6 86 119 118 110 99
82 95 113 126 126 114 134 131 131 136 142 147 148 148 144 147
147 147 147 147 145 145 140 137 131 127 129 129 121 118 117 112
109 112 105 118 132 129 117 106 112 106 91 55 33 15 3 0
0 0 0 0 1 0 0 1 7 0 0 0 0 0 0 0
0 0 0 3 12 11 13 6 0 9 11 28 34 28 24 13
19 17 16 24 26 26 26 24 23 13 0 0 0 4 0 0
9 0 0 0 3 30 6 1 11 15 16 16 14 18 20 21
26 36 35 26 4 1 1 1 2 2 3 41 101 105 88 49
37 21 60 105 114 111 132 128 130 136 142 146 147 148 146 148
147 148 148 147 143 143 138 135 132 129 131 127 121 117 115 109
106 109 100 74 99 102 109 118 114 106 84 57 36 18 2 0
1 1 0 0 0 0 0 3 6 0 0 0 0 0 0 0
0 0 0 6 12 11 13 3 1 14 7 32 32 27 21 6
14 18 17 25 26 26 26 24 25 13 0 0 0 8 0 0
2 0 0 0 5 36 37 27 21 14 15 16 15 18 20 21
25 35 35 27 4 0 1 1 1 2 3 5 43 81 93 93
109 107 100 111 106 114 137 133 131 136 141 147 148 148 148 148
146 146 147 145 142 141 138 133 131 130 127 125 122 116 114 108
102 104 104 70 86 111 116 117 110 104 74 45 24 12 0 0
1 0 0 3 1 1 0 4 3 0 0 0 0 0 0 0
0 0 0 9 11 12 12 0 1 10 7 35 29 20 6 1
12 17 16 24 26 25 25 26 25 14 0 0 5 10 2 1
0 0 0 0 9 39 31 14 12 12 14 15 14 16 19 20
25 34 34 27 6 0 1 1 2 2 3 2 4 16 43 78
106 127 137 124 125 140 146 144 136 141 140 146 147 148 148 147
145 145 145 141 142 139 135 132 132 129 127 123 123 118 115 106
99 101 103 104 108 114 115 111 105 92 76 38 22 5 0 0
3 4 5 5 3 0 0 6 1 0 0 0 0 0 0 0
0 0 0 11 11 12 11 0 5 14 16 37 28 17 6 1
12 14 16 24 25 25 25 26 26 17 6 10 11 11 9 8
0 0 0 0 8 36 17 0 2 13 14 15 14 17 19 20
23 33 34 28 6 0 0 0 0 1 2 2 3 3 4 18
98 131 141 147 147 147 147 146 143 144 147 148 148 148 148 147
146 143 145 146 143 136 136 133 133 129 125 121 120 116 112 103
98 99 98 104 108 113 114 110 105 99 83 49 22 12 5 2
3 6 9 6 2 0 0 7 0 0 0 0 0 0 0 0
0 0 2 11 11 12 7 0 45 50 18 37 28 17 4 3
13 15 17 25 26 25 25 25 26 18 2 4 5 4 2 1
0 0 0 0 6 35 19 0 0 12 14 14 13 14 18 20
22 33 34 28 7 0 1 0 1 1 1 1 2 2 3 5
76 128 145 147 147 147 148 148 145 145 148 142 148 147 146 147
145 144 143 142 141 137 137 133 133 132 126 117 119 115 110 101
96 93 94 100 105 109 109 108 106 100 89 60 29 20 6 4
8 8 10 5 4 3 4 7 0 0 0 0 0 0 0 0
0 0 5 12 11 13 5 1 58 44 21 36 27 19 10 13
19 14 19 25 26 25 25 26 26 19 0 0 0 0 0 0
5 5 8 15 19 35 20 0 0 11 14 14 13 14 18 19
22 32 34 28 8 0 0 0 0 0 1 2 1 2 3 4
57 117 137 142 145 147 147 144 142 143 145 145 147 145 146 145
144 144 138 139 139 141 139 133 124 129 128 122 119 111 109 103
97 91 86 98 104 106 108 107 106 100 88 53 34 17 5 9
12 5 8 5 6 4 8 4 0 0 0 0 0 0 0 0
0 0 8 12 12 13 2 0 15 14 28 34 28 21 17 12
19 16 23 29 27 26 26 26 26 19 1 0 0 0 0 0
22 23 28 35 42 43 30 5 2 11 13 14 12 13 16 17
20 30 33 28 8 0 0 0 1 1 1 1 2 2 2 3
55 112 128 137 141 141 140 137 130 130 138 142 145 142 145 143
142 139 142 140 139 134 135 135 130 131 128 124 118 111 107 100
92 86 81 97 103 105 106 106 106 97 74 53 34 21 10 9
3 5 5 7 3 8 11 2 1 1 1 1 1 1 1 1
2 2 11 13 13 12 0 0 6 11 36 32 29 25 16 13
18 18 22 28 27 25 25 25 25 19 1 0 0 0 0 0
32 33 36 41 46 45 40 33 29 24 14 13 12 12 15 17
20 30 34 28 8 0 0 0 0 0 0 0 1 1 2 3
56 116 131 140 139 137 132 127 118 108 120 129 138 139 143 144
142 141 139 138 136 130 134 137 132 131 129 122 117 109 105 94
91 85 82 94 101 104 105 107 105 95 60 42 29 11 7 3
3 9 2 6 4 10 12 10 10 10 11 10 10 10 10 10
12 11 13 13 14 10 0 0 4 13 38 30 29 24 16 12
18 19 24 27 27 25 26 25 25 19 1 0 0 0 0 0
26 25 24 23 23 22 21 14 13 14 12 12 12 11 15 17
20 30 33 28 8 0 0 0 0 0 0 0 0 0 0 2
30 101 103 117 131 135 129 119 106 79 73 106 125 134 136 142
142 140 138 137 137 135 138 134 130 129 125 120 113 108 101 92
93 77 81 93 99 104 105 106 104 95 71 47 28 12 1 0
3 2 4 6 10 12 11 12 11 11 12 12 11 11 12 12
12 13 12 12 16 7 0 1 4 18 38 30 29 24 16 13
19 19 26 27 27 26 26 25 25 20 1 0 0 0 0 0
14 13 14 13 15 17 20 2 0 6 10 11 10 9 15 16
19 29 33 28 9 0 0 0 0 0 0 0 0 0 0 0
3 60 80 90 95 91 89 83 75 68 75 104 115 131 137 141
141 141 139 137 133 137 134 131 129 123 121 117 111 105 96 88
86 75 87 97 99 102 106 107 105 98 85 81 46 21 7 1
1 0 3 10 8 11 13 13 12 14 22 19 13 13 13 12
14 16 14 8 14 4 0 11 24 28 37 29 28 22 15 12
17 20 27 28 27 26 27 26 27 22 1 0 0 0 0 0
8 6 6 7 13 15 21 3 0 4 10 11 11 10 14 16
19 28 32 28 9 0 0 0 0 0 0 0 0 0 0 0
0 11 62 64 76 87 100 110 126 139 147 131 122 129 135 139
142 140 137 136 134 136 132 130 126 121 120 116 108 99 93 84
77 84 96 96 101 103 106 105 103 99 91 89 69 20 6 3
1 0 1 6 8 14 26 30 39 57 92 88 64 61 42 33
37 34 32 29 9 0 8 39 22 33 36 30 29 17 10 14
16 22 26 27 28 27 28 27 26 21 1 0 0 0 0 0
3 5 7 7 11 20 23 4 0 1 4 8 11 10 13 15
18 27 31 27 9 0 0 0 0 0 1 1 2 3 4 7
8 23 95 102 119 129 132 140 148 148 146 135 128 127 131 132
135 134 125 130 131 129 131 129 123 118 114 108 103 94 87 78
74 90 97 97 102 105 105 105 102 97 93 93 86 53 16 8
1 0 0 8 15 58 97 106 122 136 141 142 131 115 73 17
11 9 12 16 30 14 53 139 56 34 33 30 27 16 16 14
12 21 25 25 28 27 27 28 25 21 1 0 0 0 0 0
20 23 24 24 22 16 19 3 0 3 7 3 11 10 14 15
17 26 31 29 18 10 13 15 17 18 20 22 24 25 26 27
28 35 88 98 112 124 131 141 143 145 144 126 128 126 127 131
131 131 128 129 130 127 124 123 116 114 107 101 92 85 78 69
80 92 93 96 100 103 104 105 104 98 96 96 95 86 56 42
1 5 2 11 23 61 100 105 116 126 132 142 132 116 73 11
9 9 8 12 21 21 84 144 46 37 31 28 25 12 10 2
5 19 22 19 23 26 27 26 26 23 2 0 0 0 0 0
23 25 27 27 28 23 7 2 0 3 8 2 7 8 12 13
16 25 31 30 29 28 27 29 31 30 29 29 28 29 29 29
30 30 57 82 100 115 124 129 135 137 141 130 132 130 125 125
127 128 130 128 126 124 121 119 112 106 101 92 84 77 66 76
88 94 94 98 101 102 105 106 104 102 97 98 97 88 80 63
3 0 6 12 39 54 81 104 118 133 137 135 125 107 59 7
5 7 4 26 6 0 43 54 19 41 27 9 5 1 0 1
0 1 7 26 27 24 24 20 23 23 3 0 0 0 0 0
25 23 24 26 30 25 14 6 1 4 4 1 3 5 11 13
15 25 31 31 31 29 24 29 30 29 29 29 28 30 33 30
22 22 29 73 89 100 113 125 133 135 137 136 135 133 130 128
129 129 126 130 130 123 117 115 107 96 90 78 70 64 75 87
91 96 97 100 97 99 104 104 102 101 99 99 97 93 86 73
11 2 5 21 41 36 52 80 38 86 101 94 79 54 12 7
8 6 18 43 34 34 46 55 46 49 26 4 0 0 0 0
0 0 0 22 18 18 25 18 19 22 4 0 0 0 0 0
24 21 19 30 36 22 7 0 0 0 1 1 1 4 9 11
14 23 30 30 30 29 26 28 26 26 26 25 28 48 55 21
2 1 4 52 99 101 113 126 134 138 139 138 137 134 136 134
132 130 129 131 127 121 115 106 95 86 74 63 61 75 85 91
93 94 98 100 101 102 105 102 103 102 99 99 98 93 87 75
19 1 8 17 34 57 61 57 26 4 6 5 8 7 4 8
13 61 79 91 98 98 92 97 97 75 32 34 0 0 0 0
0 0 0 9 15 23 24 16 13 7 13 10 1 0 0 0
16 16 15 35 26 13 0 0 0 0 0 0 0 2 2 4
6 11 15 14 13 12 10 9 9 10 13 16 47 67 32 2
0 0 0 27 108 113 117 129 139 140 139 139 138 138 139 139
138 130 130 126 122 110 104 90 79 65 54 64 81 86 88 93
96 98 100 101 103 103 103 104 105 100 97 98 97 93 88 78
32 0 10 26 4 35 56 65 72 46 18 11 14 13 13 27
61 105 97 101 103 93 84 95 98 76 17 24 0 0 0 0
0 0 0 1 19 28 17 13 16 8 1 4 1 0 0 0
11 7 26 41 19 16 6 0 0 0 0 0 0 0 0 0
0 0 0 0 0 0 0 1 1 4 16 31 65 47 6 0
0 0 0 25 118 128 135 138 141 143 144 145 145 144 140 140
135 130 126 121 113 99 86 74 61 59 73 85 91 91 91 92
96 99 99 101 101 103 106 105 103 100 99 98 96 95 88 79
48 0 22 55 11 4 4 4 12 35 66 62 39 46 84 76
57 64 75 87 89 87 86 89 93 70 8 6 5 4 6 4
3 7 7 5 10 9 1 0 0 0 0 0 0 0 0 0
11 4 62 20 3 13 14 3 0 0 0 0 0 0 0 0
0 0 0 0 0 1 5 7 3 3 19 48 55 20 1 0
0 0 0 29 120 131 140 145 146 148 148 146 148 143 137 135
131 127 121 112 100 86 70 60 64 79 86 91 94 93 93 96
101 102 102 100 93 93 110 107 105 101 99 97 96 93 88 79
62 5 14 27 36 25 31 42 38 23 24 49 70 70 60 63
81 103 109 96 69 62 60 51 51 44 31 29 27 20 14 7
1 3 4 2 0 0 0 0 0 0 0 0 0 0 0 0
21 9 45 1 0 6 17 20 0 0 0 0 0 0 0 1
3 2 1 1 0 1 6 11 10 6 19 59 36 1 3 13
7 0 0 39 118 127 137 143 147 146 145 143 141 138 131 123
117 115 108 93 74 63 57 67 77 85 88 92 92 96 98 99
103 104 104 104 106 109 111 109 107 101 97 97 96 94 88 82
68 17 4 14 66 134 145 146 145 119 81 69 70 75 90 128
147 146 146 146 122 82 54 38 34 26 19 14 16 12 10 5
0 1 2 1 0 0 0 0 0 0 0 0 0 0 0 0
14 10 21 0 0 0 16 9 0 0 0 1 2 4 3 4
6 4 4 2 3 5 10 16 15 4 27 60 25 16 29 36
21 1 2 42 114 122 134 137 141 139 136 130 132 130 123 115
106 96 83 64 57 55 67 75 81 86 86 94 96 99 102 104
107 107 108 111 116 115 113 109 105 101 97 95 94 91 85 81
69 25 1 13 48 110 146 147 127 80 66 52 51 53 76 117
147 146 145 146 131 90 56 42 32 25 20 16 17 11 10 5
1 1 1 0 0 0 0 0 0 0 0 0 0 0 0 0
0 10 13 0 2 0 2 0 1 2 1 7 5 11 11 10
9 9 11 14 20 22 20 16 12 1 37 49 11 24 37 38
31 4 14 46 106 113 126 131 125 127 124 124 120 116 106 100
86 71 60 53 54 60 66 74 83 87 92 95 101 100 106 103
104 114 117 120 122 120 115 109 102 100 95 94 94 89 85 82
70 32 0 18 36 80 143 147 124 77 65 54 52 54 82 120
147 144 143 147 134 90 56 43 32 25 19 17 16 12 12 7
3 0 4 1 0 0 0 0 0 0 0 0 0 0 0 0
0 10 14 3 7 0 0 0 0 1 0 1 3 8 8 7
8 9 10 16 25 25 15 8 3 2 45 45 3 21 38 38
27 8 32 44 86 103 110 118 114 117 113 114 108 102 86 73
56 48 42 40 44 51 62 75 84 93 98 103 105 107 111 110
112 124 126 125 124 119 114 108 102 96 94 92 90 87 86 81
71 31 1 33 34 38 57 123 125 79 64 49 45 56 74 112
147 143 139 146 132 87 58 41 32 26 19 17 16 13 12 8
2 0 4 2 0 0 0 0 0 0 0 0 0 0 0 0
2 14 18 9 8 0 0 0 0 0 0 0 5 5 4 4
4 5 6 14 24 22 5 0 0 3 50 47 4 21 20 17
28 27 44 42 50 84 92 98 102 101 97 96 86 68 54 38
25 15 14 19 27 42 58 73 84 94 101 106 112 117 121 124
123 127 129 128 124 117 111 105 97 94 91 89 88 86 84 80
70 26 3 62 49 35 33 30 40 53 56 47 48 60 76 113
147 144 140 147 134 89 60 42 32 25 22 16 16 14 12 9
3 1 4 3 0 0 0 0 0 0 0 0 0 0 0 0
1 13 17 10 8 0 0 0 0 0 0 0 3 2 3 3
5 5 7 13 23 19 4 0 0 4 54 49 8 16 6 9
31 39 50 36 26 45 61 67 72 73 68 62 49 49 19 0
2 4 5 11 15 27 49 67 81 98 114 122 126 128 125 124
124 130 130 128 123 117 110 103 96 92 91 89 87 85 81 77
70 17 3 44 38 38 30 43 45 28 42 47 43 56 74 113
148 143 138 146 136 91 62 44 32 24 22 16 17 13 13 10
3 3 3 2 0 0 0 0 0 0 0 0 0 0 0 0
4 24 15 9 8 0 0 0 1 1 0 1 3 5 3 5
7 7 7 14 24 18 9 8 0 5 52 60 21 20 2 15
36 51 47 14 13 43 58 47 48 38 39 54 41 70 17 0
0 8 4 7 11 13 25 58 88 111 126 129 128 126 124 125
124 124 125 125 121 116 107 102 95 92 90 88 83 82 80 77
67 7 9 38 31 27 22 22 26 64 52 29 23 38 68 109
147 143 138 147 135 90 64 44 27 22 19 15 16 14 13 10
4 5 3 3 0 0 0 0 0 0 0 0 0 0 0 0
10 10 2 5 7 2 0 0 1 0 0 0 3 6 2 5
7 8 13 24 31 26 21 20 3 3 44 55 34 17 0 14
39 47 29 14 49 42 34 39 52 53 68 37 41 63 25 2
0 12 3 5 8 11 15 51 102 122 130 135 129 126 120 120
121 122 123 124 119 113 106 100 95 90 88 86 83 82 79 75
56 1 23 35 30 29 23 21 21 44 79 29 22 21 29 52
103 134 138 146 136 92 62 42 27 21 15 13 15 15 14 11
4 5 4 1 0 0 0 0 0 0 0 0 0 0 0 0
2 1 2 4 4 3 0 0 0 0 1 0 8 11 1 5
6 7 25 36 30 26 19 18 4 0 40 53 47 13 0 17
35 30 43 52 30 25 36 30 84 81 29 34 39 57 45 9
0 21 10 6 9 10 18 60 110 125 133 136 127 121 119 117
117 120 121 122 118 112 107 100 93 90 87 85 84 82 78 75
39 0 25 36 30 27 38 25 21 45 30 35 46 26 23 24
46 54 56 97 120 92 59 38 26 22 15 8 12 13 13 12
4 6 3 1 0 0 0 0 0 0 0 0 0 0 0 0
10 11 14 12 4 4 1 0 0 0 0 0 5 12 3 6
4 2 15 30 33 32 26 24 8 0 27 38 31 7 1 16
39 45 59 39 28 26 32 63 56 51 40 27 39 52 66 26
6 17 51 30 25 27 41 82 112 123 133 130 122 118 115 115
114 117 120 119 114 112 106 98 93 90 89 86 84 81 80 74
16 1 31 29 32 27 34 49 33 40 21 19 25 56 37 29
45 31 33 38 50 34 41 41 33 25 14 8 12 14 14 11
4 5 5 1 0 0 0 0 0 0 0 0 0 0 0 0
19 21 20 19 10 0 2 0 0 0 0 0 5 18 19 13
7 1 4 11 20 18 10 6 1 0 1 1 2 14 32 59
42 31 49 52 33 47 69 40 32 38 23 19 44 48 101 64
44 3 78 83 74 71 77 95 109 120 125 123 116 111 110 109
114 119 119 118 116 112 104 97 94 90 87 85 83 83 81 56
2 26 62 46 32 25 32 37 65 31 21 19 21 22 49 73
41 23 25 27 34 53 53 62 30 25 15 11 13 14 13 11
4 5 4 1 0 0 0 0 0 0 0 0 0 0 0 0
11 12 15 15 7 0 3 0 0 0 0 0 0 7 25 9
1 0 0 0 0 0 0 0 0 0 0 13 45 46 46 45
39 39 46 73 81 51 31 24 27 53 27 21 62 59 119 62
45 7 45 104 104 99 98 98 104 114 123 118 110 106 107 110
113 114 122 120 116 109 106 98 92 89 88 86 83 82 77 28
0 43 49 43 37 44 50 50 73 57 20 26 20 19 30 75
61 30 24 23 24 53 98 56 32 24 23 14 13 13 13 11
5 7 4 1 0 0 0 0 0 0 0 0 0 0 0 0
1 0 1 0 0 10 30 0 2 0 0 0 0 0 8 1
0 0 0 0 0 0 0 0 0 6 22 37 71 64 39 44
44 62 76 81 110 57 53 52 61 88 52 48 75 54 87 47
35 20 8 94 108 106 102 100 98 100 105 107 103 105 107 109
114 120 122 120 117 113 106 98 92 90 85 83 82 81 62 6
2 35 34 32 30 31 31 65 40 42 49 23 27 19 42 39
23 55 22 26 24 51 54 35 44 36 33 30 23 15 14 10
4 5 2 1 0 0 0 0 0 0 0 0 0 0 0 0
0 0 0 0 0 18 51 2 7 1 0 0 0 0 7 1
0 0 1 1 1 0 0 4 28 55 56 47 51 62 49 53
49 51 54 59 100 52 61 64 66 64 36 34 42 53 51 63
38 32 11 46 110 107 104 102 97 94 94 96 98 106 111 118
120 121 122 121 119 114 104 94 90 87 85 85 84 78 30 2
23 36 32 29 21 21 18 31 25 20 31 60 30 31 43 26
20 26 57 25 38 61 40 35 36 36 43 58 72 40 17 11
5 4 1 1 0 0 0 0 0 0 0 0 0 0 0 0
0 0 0 0 0 2 12 4 4 0 0 0 0 0 12 9
0 0 0 0 0 2 37 75 51 39 41 40 36 40 36 70
32 36 37 40 75 29 29 34 36 43 22 20 22 53 42 76
34 39 27 12 85 116 110 105 102 97 94 98 105 113 118 120
121 124 125 124 119 113 102 94 89 88 85 85 84 52 7 13
45 35 27 24 23 16 19 34 17 15 17 44 39 46 45 25
19 19 26 59 88 74 38 42 43 35 45 65 46 43 44 21
5 5 1 2 0 0 0 0 0 0 0 0 0 0 0 0
0 0 0 0 0 0 0 0 0 0 0 0 0 0 1 3
0 0 0 0 19 65 74 66 41 36 58 34 33 39 41 82
31 37 41 44 76 33 30 37 36 50 25 24 23 52 39 82
42 42 34 21 32 109 120 115 107 102 100 105 110 114 119 123
124 127 126 124 119 110 99 92 85 84 86 86 71 18 9 53
35 32 32 24 27 19 20 34 21 19 14 48 13 42 75 22
25 25 22 41 66 42 53 57 72 78 102 65 34 33 30 37
26 8 1 2 0 0 0 0 0 0 0 0 0 0 0 0
0 0 0 0 0 0 0 0 0 0 0 0 0 0 0 0
0 0 4 44 63 55 48 42 38 38 51 29 32 39 38 78
29 36 37 48 68 35 30 35 39 49 24 23 20 40 49 62
59 44 63 63 18 58 120 122 116 111 106 107 113 119 123 124
124 128 127 124 115 104 93 87 88 88 89 84 37 5 34 70
64 34 30 26 19 17 22 40 21 19 18 52 18 18 23 33
27 21 23 55 55 32 31 36 35 57 77 61 71 61 41 29
29 42 10 1 0 0 0 0 0 0 0 0 0 0 0 0
0 0 0 0 0 0 0 0 0 0 0 0 0 0 0 0
0 19 58 45 43 57 49 40 34 36 56 27 27 41 42 78
34 35 41 53 66 39 34 38 42 49 24 25 23 40 58 45
97 73 69 52 30 31 82 124 122 117 111 111 115 120 123 124
124 124 124 121 111 102 93 88 86 92 92 52 8 16 76 58
59 44 49 45 23 23 28 41 22 21 26 44 19 19 16 34
37 20 23 63 66 35 38 38 39 62 67 36 35 39 55 55
53 50 50 10 1 0 0 0 0 0 0 0 0 0 0 0
0 0 0 0 0 0 0 0 0 0 0 0 0 0 0 0
26 81 44 36 45 69 55 52 59 64 112 55 38 37 38 74
29 33 37 44 61 36 36 35 53 37 23 23 21 39 69 57
126 67 39 37 45 23 46 102 124 121 113 108 110 115 118 117
116 118 121 118 110 99 92 87 90 94 80 16 13 64 87 35
35 37 60 64 47 41 59 65 24 19 23 39 19 18 19 32
36 22 27 32 57 43 35 34 34 71 41 33 32 35 44 49
84 47 25 34 12 0 0 0 0 0 0 0 0 0 0 0
0 0 0 0 0 0 0 0 0 1 0 0 0 0 0 26
44 69 72 74 77 110 84 78 73 62 86 42 50 59 70 106
52 44 50 59 86 53 64 71 95 46 34 31 36 53 75 75
98 52 42 39 46 22 33 61 113 122 115 105 102 105 108 111
115 120 120 116 108 100 90 88 92 88 41 7 34 57 53 33
31 26 56 30 31 33 53 75 47 37 30 53 17 14 15 30
34 25 29 33 58 47 34 34 49 91 53 46 42 44 97 46
59 43 46 26 36 7 0 0 0 0 0 0 0 0 0 0
0 0 0 0 0 0 0 0 1 10 0 0 0 0 15 58
65 69 43 45 37 64 35 38 40 46 73 29 31 34 54 111
66 68 73 87 116 69 69 68 113 51 47 49 56 80 71 48
64 54 46 44 48 35 23 43 76 120 122 113 101 98 102 106
111 117 121 118 109 97 90 91 91 53 15 24 44 68 44 27
26 38 48 17 16 15 28 43 33 50 59 80 42 30 34 59
75 45 38 35 67 61 51 67 69 121 83 76 69 73 109 56
67 49 44 36 24 34 2 0 0 0 0 0 0 0 0 0
0 0 0 0 0 0 3 3 0 3 0 0 0 7 58 39
63 43 36 39 37 74 34 37 40 50 68 35 36 36 28 59
33 42 48 56 97 46 39 38 87 30 25 20 22 56 36 33
49 73 50 41 41 30 31 29 52 87 121 122 113 106 103 107
113 119 122 118 108 96 91 94 70 28 27 40 64 56 37 27
25 58 48 20 19 17 28 42 20 24 42 60 44 38 37 58
75 64 68 70 98 82 61 46 44 97 53 51 53 47 67 29
31 53 79 47 21 34 36 0 0 0 0 0 0 0 0 0
0 0 13 2 0 0 0 12 11 0 0 0 0 50 40 36
72 31 34 39 37 85 33 35 42 42 63 37 37 37 28 54
32 34 37 39 79 36 38 38 78 35 31 21 18 47 20 28
38 80 42 43 13 11 47 24 41 63 96 122 122 116 109 108
110 117 122 118 110 98 93 80 38 43 40 44 67 24 36 26
45 51 55 20 18 17 28 43 22 21 29 39 17 13 15 36
52 29 36 48 85 54 33 29 29 76 36 31 34 31 56 30
21 49 108 57 27 34 74 16 0 0 0 0 0 0 0 0
0 0 14 5 0 2 0 11 16 0 0 0 14 46 32 37
81 31 39 42 36 80 32 35 45 35 62 40 42 40 34 55
27 35 39 44 84 40 39 39 77 34 33 22 14 47 19 27
34 66 48 11 7 29 64 50 34 52 77 103 123 124 119 115
114 117 121 122 113 99 89 46 46 53 38 50 66 0 31 45
59 21 50 19 20 17 30 44 22 21 34 39 18 13 14 37
51 31 28 30 63 46 35 30 33 75 43 35 36 36 49 24
17 70 44 60 57 51 45 34 1 0 0 0 0 0 0 0
0 0 0 0 0 1 0 5 12 0 0 1 42 57 31 36
87 30 40 38 40 93 42 36 42 41 61 35 40 38 33 48
24 33 37 41 78 35 38 38 76 36 35 26 16 40 18 27
32 62 57 0 3 63 53 62 55 48 70 88 105 123 125 120
114 114 122 125 113 98 65 34 68 71 73 89 37 2 38 95
61 17 53 15 15 16 28 39 23 22 30 37 17 14 14 37
54 30 30 34 61 49 34 29 29 70 43 35 35 33 53 23
23 72 25 36 84 35 24 28 14 0 0 0 0 0 0 0
0 0 0 0 0 0 11 9 3 0 0 13 59 79 33 34
114 59 70 63 66 124 73 72 72 66 103 51 63 60 59 77
19 26 34 41 76 35 41 40 67 36 32 26 18 40 14 25
37 49 14 0 20 77 57 31 56 61 69 88 100 109 122 129
124 121 125 128 115 91 33 57 80 69 72 73 10 19 51 59
45 40 84 35 27 24 36 44 19 20 33 46 18 15 15 38
59 31 29 33 45 60 33 31 29 70 41 36 35 31 50 14
45 35 26 21 53 43 27 23 30 5 0 0 0 0 0 0
0 0 0 0 0 7 46 6 0 0 1 33 35 75 40 40
93 42 52 51 63 116 68 64 61 56 107 56 73 72 75 115
42 35 38 37 70 30 37 38 61 50 50 49 44 68 24 40
46 61 9 0 8 71 35 71 44 54 74 88 100 108 116 125
129 124 126 130 118 65 28 71 55 38 41 39 22 32 54 21
34 30 77 40 41 40 63 76 28 25 27 45 14 14 17 39
52 29 26 33 37 61 30 27 25 68 37 32 33 34 86 23
38 28 22 27 29 73 44 28 33 21 1 0 0 0 0 0
0 0 0 0 0 3 29 4 0 0 12 29 31 52 60 63
66 26 32 25 33 85 34 37 34 29 76 36 42 52 50 90
36 49 61 64 108 55 61 64 79 77 73 68 61 87 45 53
46 57 21 0 0 45 23 46 87 56 79 93 100 109 113 115
119 123 128 135 111 41 43 68 39 36 41 21 22 53 31 15
15 11 49 20 24 28 49 75 49 50 44 60 22 23 25 49
61 42 38 44 50 82 44 36 38 84 52 55 56 56 112 39
21 29 21 27 52 41 42 35 23 25 10 0 0 0 0 0
