P2
128 120
154
49 45 44 44 44 42 42 43 44 44 43 43 42 42 42 41
42 42 42 42 42 42 41 41 41 40 40 40 39 39 39 38
37 37 36 35 35 34 35 34 33 32 32 31 30 29 29 28
28 28 27 26 25 25 25 24 24 23 24 22 21 21 21 20
19 19 20 20 23 24 23 22 17 9 10 22 22 21 20 19
19 19 17 17 17 14 17 16 19 20 20 21 21 21 21 21
21 22 22 23 23 23 24 24 24 24 25 25 25 24 25 25
27 27 28 29 29 29 30 30 31 31 31 31 31 31 32 32
63 66 64 61 59 54 55 56 60 62 64 57 41 41 41 41
41 41 41 40 40 40 40 40 39 39 39 39 39 38 38 38
37 37 36 35 35 34 34 33 33 32 31 31 30 30 30 28
28 28 27 26 26 25 24 24 23 23 22 21 21 21 20 20
20 19 20 21 24 24 24 23 17 13 12 23 22 21 20 20
19 19 18 17 17 15 17 17 20 20 20 20 20 21 21 21
22 22 22 24 24 23 24 24 24 24 24 25 26 26 26 27
27 28 28 28 28 30 30 30 31 31 31 31 31 31 31 31
55 59 47 38 40 41 44 43 43 45 60 62 54 49 45 42
41 42 41 41 41 41 41 41 41 40 40 39 39 39 38 37
37 37 36 36 35 35 34 34 34 33 33 32 32 31 30 29
29 28 28 27 27 26 25 25 24 24 24 23 23 22 21 21
21 20 20 21 24 24 24 23 18 15 15 23 24 23 22 22
21 21 19 19 18 16 18 19 21 22 21 22 22 22 22 23
23 23 23 23 23 24 24 24 25 26 27 27 27 27 28 28
28 29 29 30 30 31 31 31 32 32 33 32 33 33 33 33
49 52 22 0 0 0 2 1 0 1 46 59 58 60 58 49
44 44 44 44 43 42 41 41 40 40 40 40 40 39 39 38
38 38 37 36 36 36 34 34 33 33 33 32 31 31 31 30
30 29 28 28 27 26 26 25 26 25 24 24 23 22 22 22
22 21 21 22 25 25 25 24 19 16 16 22 23 23 22 21
21 21 20 19 20 18 19 19 21 22 22 22 22 22 22 22
23 22 23 23 24 24 25 26 26 26 27 27 27 27 27 28
29 29 29 30 30 30 31 31 32 32 33 32 32 33 33 33
46 49 23 0 0 0 13 1 0 0 38 56 52 47 30 35
42 47 55 56 56 53 47 40 40 40 40 40 39 39 39 38
38 37 36 36 36 35 35 35 35 34 33 32 32 30 30 30
29 28 27 28 27 26 26 26 25 25 24 24 24 23 23 22
22 21 21 22 25 26 25 24 20 18 17 20 24 23 22 22
21 21 20 20 19 17 17 18 22 22 22 22 23 23 22 23
24 24 24 25 25 25 25 25 26 26 26 27 28 27 27 28
29 29 29 30 30 31 30 31 31 32 33 32 33 33 34 33
46 50 25 0 0 0 7 1 0 0 31 55 51 39 0 1
6 13 22 30 40 54 51 41 40 40 40 39 39 39 39 38
38 37 37 36 36 35 35 35 34 33 33 32 32 31 30 30
29 29 29 27 27 28 26 26 25 25 25 24 24 23 22 22
22 21 21 22 26 26 26 25 20 17 19 19 24 23 23 22
22 21 21 20 20 18 18 18 21 21 22 22 23 24 23 24
24 24 25 25 25 25 25 26 26 26 27 27 28 28 28 29
29 29 29 29 30 31 31 31 32 32 33 32 32 32 33 33
44 48 28 0 0 1 5 1 0 0 25 55 52 39 0 0
0 0 0 0 5 49 51 40 40 39 39 39 39 39 38 38
37 36 36 36 35 35 35 35 34 34 33 32 32 31 31 30
30 29 29 28 28 27 26 26 26 25 25 25 24 23 23 22
22 21 21 22 25 26 26 25 20 17 21 18 25 24 24 23
22 22 22 20 20 18 17 18 22 22 23 23 24 24 23 24
24 25 25 25 25 25 26 26 26 26 27 27 27 27 28 28
29 29 30 30 30 30 31 31 31 32 33 32 32 33 33 32
41 47 35 0 8 9 5 3 0 2 18 53 49 37 1 0
0 0 0 0 3 48 51 39 40 40 39 39 39 38 38 37
38 37 36 36 36 36 35 34 34 33 33 32 31 31 31 30
30 29 29 28 27 28 27 27 26 25 25 25 24 24 23 23
22 21 22 22 25 26 26 26 20 18 22 17 25 24 24 22
22 22 22 20 21 20 18 20 23 23 24 23 23 24 23 24
24 25 25 25 26 25 25 26 27 26 27 28 28 28 28 28
28 29 30 30 30 31 31 31 32 31 32 31 31 31 32 32
42 51 43 0 19 6 0 1 0 1 15 54 50 40 1 1
8 9 0 0 2 46 51 39 39 40 39 39 39 39 38 38
38 37 37 36 35 35 35 35 34 34 33 32 32 31 31 30
30 29 28 28 28 28 27 27 27 26 26 25 25 24 24 23
22 22 23 23 26 26 26 25 20 18 23 17 25 24 24 23
22 23 23 21 20 20 17 21 22 23 24 24 24 25 24 25
25 25 26 25 26 26 26 26 27 27 27 28 28 28 29 29
29 30 30 31 30 30 30 30 30 31 31 32 32 33 33 33
42 51 48 6 14 2 0 0 0 3 13 53 52 40 1 3
11 9 1 0 2 45 49 40 40 39 39 38 39 38 38 37
37 37 37 36 36 35 35 35 34 34 34 33 32 32 31 30
30 30 29 29 29 28 28 27 27 27 25 25 25 24 24 23
23 22 22 23 26 26 26 27 21 18 24 17 25 24 24 24
23 22 23 21 21 21 18 21 23 24 24 24 24 25 25 25
25 25 24 25 25 26 27 27 27 28 28 29 29 29 29 30
29 29 30 30 31 31 32 32 32 32 33 33 33 32 33 33
39 48 52 12 9 2 0 0 0 1 10 51 50 40 2 0
3 7 3 0 2 45 49 39 39 39 39 38 38 38 38 38
37 37 37 37 36 36 35 35 34 34 33 33 32 32 32 31
31 30 30 30 29 28 28 28 27 27 26 25 25 25 24 23
23 23 23 24 26 27 28 27 22 18 24 18 24 25 25 24
24 22 23 22 22 21 18 22 23 24 25 25 25 26 26 26
26 26 26 26 27 27 27 27 28 27 28 28 27 28 28 29
29 30 31 31 32 32 33 32 33 32 33 33 33 33 33 33
38 39 47 12 9 0 2 0 0 0 8 46 48 41 2 0
1 9 10 0 2 44 49 39 40 39 39 39 38 38 38 37
38 37 37 37 36 36 35 35 34 34 34 33 32 32 31 31
31 30 30 29 29 28 28 28 27 27 26 26 26 25 24 23
24 23 23 23 26 28 28 27 22 18 25 19 24 25 25 24
24 22 22 22 22 21 19 22 24 25 25 25 26 26 26 26
26 26 26 27 27 27 28 27 28 27 28 28 29 29 29 30
30 30 31 31 32 32 33 32 32 33 32 33 34 33 33 33
41 35 40 25 24 25 28 27 27 29 30 40 48 46 3 0
4 5 8 1 1 42 48 39 39 39 39 38 39 38 38 38
38 37 36 36 36 36 35 35 34 34 33 33 33 33 32 32
31 31 31 30 30 29 28 28 27 27 27 26 25 26 24 24
24 24 24 24 27 28 28 27 23 19 24 21 23 26 25 25
25 23 23 22 22 22 19 22 24 25 25 25 26 26 25 26
26 27 27 27 27 27 28 28 28 28 28 28 28 30 30 30
30 31 31 32 32 32 33 32 32 33 33 32 33 33 33 33
32 31 34 33 31 32 33 30 31 31 30 29 41 44 8 2
3 4 6 9 11 44 48 39 40 39 39 39 39 38 38 37
38 37 37 36 37 36 35 35 34 35 34 34 34 33 32 32
31 31 30 30 30 29 29 28 28 28 27 26 26 25 25 24
24 24 24 24 27 28 28 27 23 19 26 23 23 26 26 26
25 24 24 22 23 23 19 23 24 25 26 26 26 26 26 26
26 26 26 26 28 27 28 29 29 29 29 30 30 30 30 30
31 31 32 32 32 32 33 33 33 33 32 32 33 34 33 33
18 19 20 21 22 23 23 27 31 33 35 34 35 38 36 35
31 26 22 18 23 45 47 40 39 39 39 39 39 39 38 38
37 37 37 37 36 36 36 35 35 34 34 34 33 33 32 32
32 31 32 31 31 30 30 29 28 27 27 27 26 26 26 25
25 24 25 25 27 29 29 28 24 18 25 25 21 26 26 25
25 24 23 23 24 23 19 24 24 25 26 26 26 26 26 27
27 28 27 28 29 28 29 29 28 29 30 29 29 30 31 31
31 31 32 33 32 32 33 33 33 33 33 34 33 33 33 34
18 17 17 17 17 17 17 18 21 23 27 29 25 25 27 29
32 34 38 40 41 44 43 40 40 39 39 39 38 39 38 38
37 37 37 37 36 36 36 35 35 35 35 34 34 33 33 32
32 30 31 30 30 29 29 28 28 28 28 27 27 26 26 26
25 24 24 25 27 30 29 28 25 19 26 27 21 27 27 26
25 25 24 23 23 23 18 23 23 25 26 26 27 27 27 27
27 27 28 28 29 29 29 29 28 29 29 30 30 31 31 31
32 31 31 33 32 33 33 33 33 33 33 33 33 34 33 34
21 17 18 17 16 16 17 17 17 17 18 18 18 18 18 21
24 26 30 33 35 38 40 40 40 40 39 39 39 39 38 38
38 38 37 37 37 37 36 36 36 35 35 35 34 33 32 33
32 31 31 31 31 30 29 29 29 28 28 28 26 26 26 25
26 25 25 26 27 30 30 28 25 19 26 28 20 27 27 26
26 25 25 24 24 24 21 25 25 27 26 27 27 27 27 27
27 28 28 29 30 29 29 29 29 30 30 31 31 31 31 32
32 32 32 33 33 33 34 34 34 33 33 34 34 33 34 34
37 35 28 27 18 17 16 18 21 20 19 18 17 17 17 17
17 17 18 19 22 25 28 33 36 38 40 39 40 39 39 38
38 37 37 37 36 36 36 36 34 34 34 34 35 34 33 32
33 32 31 31 31 29 30 29 29 28 28 28 27 27 27 26
25 25 25 26 27 29 29 28 26 18 26 31 21 28 28 27
26 26 25 24 25 24 21 25 26 27 27 27 28 27 28 28
28 29 29 29 30 29 29 29 29 30 30 30 31 31 31 32
33 32 33 33 33 33 33 33 34 34 33 33 31 32 32 32
25 35 34 47 48 45 40 35 37 36 35 38 40 27 16 16
16 16 17 17 17 18 18 18 20 19 23 27 30 33 36 37
37 38 38 37 37 38 38 37 37 35 36 36 35 33 33 33
33 31 31 31 31 31 29 29 29 30 28 28 28 27 26 26
25 25 25 26 27 30 29 28 26 19 25 31 21 27 28 27
26 25 25 25 25 25 21 26 25 28 27 27 28 28 28 28
28 28 29 29 29 30 30 30 30 31 31 30 31 32 32 32
32 33 33 33 33 32 33 33 33 32 34 32 33 33 34 33
17 19 21 41 17 11 13 21 33 33 35 47 59 50 35 30
27 26 25 23 21 19 18 18 18 18 19 18 16 13 20 36
40 39 40 38 37 37 37 36 35 33 33 34 34 34 33 37
37 36 34 32 31 31 31 30 31 29 29 27 28 28 28 27
26 26 26 26 28 30 29 29 27 20 26 32 22 26 29 28
27 26 26 25 25 24 21 25 25 27 27 28 28 29 28 29
29 29 30 30 30 31 30 30 31 31 31 31 31 32 31 31
32 32 32 31 32 32 33 32 33 33 33 34 33 33 34 34
17 18 20 39 11 0 0 14 35 34 37 46 54 55 53 52
44 50 51 46 44 29 23 24 21 17 17 18 17 16 21 32
38 37 35 35 36 33 35 33 30 31 31 33 32 29 28 26
26 27 30 29 27 28 28 28 28 29 29 28 27 27 27 27
26 26 25 26 28 30 30 29 27 19 25 32 24 24 28 28
27 26 26 25 25 25 22 26 25 28 28 28 28 28 29 28
29 29 29 30 30 30 30 30 31 31 30 31 32 32 31 32
32 32 32 31 32 32 32 32 32 32 33 34 33 33 33 33
19 19 20 41 12 0 0 8 21 23 25 39 51 55 56 55
49 49 53 53 51 36 33 40 42 35 34 30 25 18 19 30
37 35 35 33 32 33 32 27 31 33 32 28 24 13 11 13
16 17 20 20 16 15 15 17 21 24 25 27 30 28 29 27
26 26 25 26 28 31 30 29 27 20 24 31 26 22 29 28
28 27 27 26 25 25 22 26 26 29 29 28 28 29 29 30
30 30 30 30 30 30 29 28 30 31 31 31 31 30 32 32
32 32 32 32 32 32 32 33 33 32 33 34 33 34 34 33
21 18 22 44 13 0 0 8 7 1 0 30 50 45 32 40
37 42 48 51 52 39 40 44 46 41 49 49 44 19 19 31
36 33 32 30 28 29 19 26 26 25 26 20 13 6 4 3
12 7 7 9 6 8 5 8 8 16 19 20 25 26 27 27
26 27 27 27 28 30 30 30 26 19 18 27 27 20 29 28
28 27 27 26 25 25 23 26 26 29 29 29 30 29 29 29
29 29 29 29 29 30 30 31 31 31 31 32 32 31 32 32
32 32 32 32 32 31 32 31 32 32 32 34 33 33 33 34
5 6 9 44 13 0 1 20 19 0 0 30 51 35 0 16
4 8 14 19 34 42 43 45 47 46 51 52 49 21 19 32
30 22 20 17 19 19 14 17 12 7 11 11 5 1 1 7
8 8 3 6 7 3 3 5 8 6 16 21 18 20 22 26
28 27 27 28 29 31 32 30 19 17 13 23 30 19 29 30
29 28 28 26 27 26 24 27 26 29 29 29 29 29 29 30
30 30 30 31 31 31 32 32 32 31 32 32 33 32 33 32
33 33 32 32 33 33 32 33 33 33 33 34 34 33 33 33
0 0 6 44 14 8 10 28 37 15 0 31 52 35 0 0
0 0 6 5 19 42 43 43 43 43 47 48 44 24 18 24
21 14 10 7 7 6 10 6 5 5 4 7 6 1 0 7
7 12 4 5 8 5 6 6 11 10 7 15 21 19 16 13
17 26 27 27 28 31 31 30 24 20 22 31 31 19 29 29
27 27 28 27 27 27 25 26 25 28 28 29 29 29 30 30
30 30 30 30 31 30 31 31 31 31 32 32 33 32 32 32
32 32 32 32 32 32 33 32 32 33 33 35 34 33 33 33
0 0 4 47 17 7 19 32 26 24 6 25 54 38 0 0
0 0 18 12 22 40 29 33 39 41 45 45 34 20 18 13
9 10 6 4 3 3 9 6 3 4 3 3 7 3 1 8
10 12 8 6 8 11 10 10 13 13 9 9 15 21 16 17
15 13 24 28 31 33 32 31 29 21 24 32 31 19 27 29
28 27 28 27 28 27 25 26 26 29 29 29 29 30 31 30
31 31 31 31 31 31 32 31 31 31 31 31 33 32 32 32
32 32 33 33 33 33 33 33 33 33 34 35 34 33 33 33
0 0 6 49 18 1 14 30 25 19 3 23 54 44 1 1
0 0 16 13 24 36 4 5 16 17 25 26 21 15 14 11
6 9 8 4 3 5 9 8 4 6 6 4 5 4 6 7
9 10 8 5 9 10 11 10 14 19 12 12 13 22 20 17
19 15 12 21 31 32 32 31 30 22 25 33 33 20 27 30
30 29 28 27 27 27 26 26 26 30 30 31 30 31 32 31
31 31 31 32 32 31 32 32 32 32 32 32 34 33 33 33
32 33 33 33 33 33 33 34 33 33 33 35 34 34 34 34
2 0 8 52 20 0 0 8 10 2 0 22 56 46 2 1
0 0 3 1 21 36 2 1 5 5 16 21 18 12 10 4
6 8 9 5 4 7 8 11 6 8 5 5 5 6 7 8
9 10 14 3 9 10 12 11 14 15 18 15 15 18 25 15
18 24 20 11 18 33 33 32 30 23 26 34 33 23 26 31
31 30 29 28 29 28 27 27 28 31 32 31 31 32 33 32
32 31 32 32 32 33 33 33 34 33 34 33 35 33 34 33
34 34 35 34 35 35 35 35 35 36 36 35 34 35 35 35
0 0 4 41 22 0 0 0 0 0 0 20 56 49 3 0
1 9 6 2 20 34 6 7 6 9 14 21 22 13 9 4
7 10 13 7 4 7 8 11 4 9 6 6 7 6 8 11
10 12 14 6 8 9 7 10 12 16 23 19 19 23 23 22
21 22 25 18 10 16 31 32 31 23 27 34 33 26 25 32
31 30 29 29 29 29 27 27 28 31 32 32 33 32 33 32
33 33 33 33 33 33 33 32 33 33 33 34 35 34 34 35
35 35 35 35 35 35 36 35 36 35 34 35 35 36 37 36
0 0 6 42 25 0 0 0 0 0 0 19 57 52 5 2
16 19 16 6 21 33 13 15 18 13 11 10 14 10 9 6
8 7 12 12 6 10 10 12 7 10 9 10 8 7 8 12
11 11 13 14 6 16 10 12 13 13 21 20 22 21 25 25
24 27 25 25 17 11 16 31 33 25 27 34 35 28 23 32
32 31 30 30 30 29 29 28 30 33 34 33 33 33 33 32
33 34 34 34 33 34 34 34 35 35 35 36 36 35 35 35
35 36 36 36 36 36 36 36 36 36 36 37 37 36 36 36
1 0 8 45 36 17 15 14 13 11 9 25 58 55 10 3
2 8 12 10 20 20 18 17 14 14 11 5 7 11 9 9
7 6 11 12 6 11 12 10 11 8 9 11 9 8 7 13
13 14 12 19 11 14 11 14 12 13 18 25 20 26 17 19
33 24 30 28 24 17 10 16 30 24 27 34 36 31 22 32
33 32 30 31 30 30 29 27 30 33 33 34 33 34 34 34
34 35 34 35 35 35 34 35 35 35 36 35 35 35 35 35
36 36 37 37 36 37 36 35 36 36 36 37 37 36 37 36
0 0 6 44 54 53 50 47 45 41 37 37 43 40 7 1
10 12 9 13 18 14 16 18 14 11 10 5 7 10 8 11
7 7 13 13 13 11 14 12 12 11 10 10 8 8 8 11
14 17 15 18 16 12 16 15 13 16 13 22 20 18 25 17
15 28 22 31 30 26 18 9 17 23 27 35 36 32 21 30
32 32 30 31 30 30 29 28 31 33 33 33 33 33 33 33
34 33 34 33 34 35 35 35 35 35 35 34 35 36 35 35
36 36 36 37 36 36 36 37 35 36 36 37 36 36 37 36
0 0 3 49 50 38 40 38 42 46 45 36 27 20 5 3
10 9 11 17 27 25 18 19 16 13 10 7 7 9 8 9
9 6 9 15 12 11 13 17 12 16 8 12 9 9 10 12
15 20 22 18 24 18 17 19 19 15 16 15 25 16 18 22
12 18 21 22 31 26 27 18 11 17 27 34 36 33 23 30
33 32 30 31 30 30 30 28 30 32 34 33 34 34 34 34
35 34 34 35 35 35 35 36 35 35 35 35 35 34 35 35
36 37 36 37 37 37 37 37 37 37 37 36 37 36 37 36
0 0 4 51 34 0 2 3 7 14 20 37 36 40 43 37
30 12 12 18 24 30 26 22 18 16 13 10 7 7 11 6
9 8 6 12 22 13 10 18 18 16 15 12 12 7 9 11
16 14 27 26 20 26 20 28 23 19 21 18 22 25 15 17
18 13 18 24 28 29 26 21 13 11 24 34 35 33 24 27
33 32 29 31 31 30 30 28 31 33 34 33 33 33 34 34
34 35 35 35 34 35 34 35 35 35 36 35 35 35 35 36
36 37 36 36 37 35 36 35 35 35 35 34 34 33 35 34
0 0 5 49 36 2 0 0 0 0 0 21 53 38 26 29
27 14 11 14 23 30 27 25 28 17 15 8 10 9 14 7
11 16 9 7 17 29 14 14 24 20 26 22 20 14 13 15
16 17 20 35 31 26 28 25 30 25 26 27 23 23 20 14
17 20 17 22 35 33 36 30 18 12 14 32 35 33 26 25
32 32 31 32 30 31 30 28 31 33 34 33 34 34 34 34
35 35 35 34 35 37 35 35 35 35 35 35 36 35 35 35
35 36 36 36 36 35 36 35 34 33 32 30 28 25 22 20
1 0 11 51 38 6 0 0 7 7 0 19 56 37 16 13
15 11 3 9 22 29 29 31 36 23 17 10 11 12 11 9
9 17 9 7 10 20 38 20 16 26 29 30 22 23 17 16
18 21 21 26 33 26 26 22 32 33 29 37 35 26 23 19
17 18 27 26 32 47 40 44 33 17 8 22 36 34 28 23
32 32 31 31 30 30 29 27 31 33 34 33 34 33 33 33
34 34 34 33 33 35 34 34 34 35 35 36 36 35 36 37
36 35 34 34 31 28 30 35 21 17 16 16 16 16 17 18
5 4 25 49 36 12 14 4 20 11 0 16 56 36 9 14
12 11 4 4 16 25 24 26 41 34 19 15 13 10 10 9
9 14 20 10 12 14 17 27 22 20 16 19 30 26 19 15
18 18 17 20 27 28 26 23 27 36 32 24 32 29 23 23
17 16 21 32 31 29 35 47 49 42 13 8 31 33 29 21
31 32 31 32 30 30 29 27 32 33 33 32 33 33 33 33
34 33 33 32 33 35 35 34 35 35 35 35 34 32 29 26
24 21 18 18 17 17 19 34 18 17 21 22 22 23 24 24
4 8 34 51 34 24 28 13 17 8 1 14 54 34 0 11
11 8 6 2 12 25 23 27 47 56 31 16 20 15 12 14
9 22 22 22 12 18 13 21 21 20 17 17 18 24 23 19
14 17 18 21 29 38 41 34 30 27 28 21 17 23 24 23
19 22 17 21 27 22 20 20 27 38 27 10 21 38 34 26
29 30 30 30 29 30 29 26 31 31 33 32 32 32 31 31
30 30 32 34 34 34 31 17 22 26 24 21 19 17 18 18
19 20 21 21 23 23 21 30 18 23 27 28 29 30 29 30
12 16 44 54 31 12 8 2 19 24 4 15 52 32 1 13
13 9 10 2 6 24 29 33 63 81 54 18 23 18 13 22
11 21 23 26 16 16 20 12 24 31 21 20 26 22 21 25
23 19 25 33 31 35 37 30 28 22 20 22 23 22 24 28
25 17 22 20 22 27 17 17 9 10 18 19 13 27 26 24
25 26 28 27 28 28 28 26 29 29 30 30 29 30 29 29
26 18 26 25 22 19 9 7 18 19 20 21 22 22 23 24
25 26 27 28 30 29 26 33 23 28 31 31 32 32 33 34
43 42 43 54 45 29 23 24 28 17 5 17 52 33 11 18
13 12 9 9 14 5 5 14 88 100 65 33 22 25 17 24
20 16 24 22 23 16 24 25 17 27 32 25 26 31 29 24
32 33 26 25 34 36 26 24 22 20 18 22 22 27 26 29
39 30 21 23 24 24 28 26 14 12 5 11 13 14 16 14
12 17 18 20 21 23 24 25 27 29 28 26 26 23 22 21
18 16 19 19 17 11 14 24 25 26 27 28 28 28 29 30
31 32 32 32 33 32 23 13 12 30 34 35 35 35 34 35
43 34 7 44 52 39 25 48 43 14 1 19 56 36 19 25
13 8 10 7 0 5 12 49 107 105 79 50 21 27 22 14
23 20 29 23 31 22 20 30 30 20 24 38 33 28 34 31
26 39 34 29 25 24 26 18 20 20 19 23 32 37 32 29
35 35 30 27 22 28 31 32 27 16 12 4 12 16 19 17
13 19 18 19 17 17 16 16 20 20 18 19 19 20 21 22
23 23 25 20 18 16 29 30 31 31 31 32 32 32 33 33
33 34 34 34 33 33 21 4 3 29 36 36 36 36 36 35
32 24 1 32 49 35 11 44 39 15 1 19 58 40 15 23
15 7 11 7 0 0 3 84 113 109 92 71 27 30 28 15
22 20 28 24 32 26 26 22 33 29 24 31 39 44 31 26
28 27 26 21 20 19 16 22 22 25 29 32 34 32 21 16
14 17 20 13 16 24 29 38 31 27 23 10 14 17 26 22
17 23 22 24 20 19 17 14 18 17 21 23 24 25 26 28
29 30 24 19 31 20 32 32 32 33 33 33 34 34 34 34
31 32 24 15 8 19 20 7 2 27 35 36 37 36 36 36
39 33 7 24 44 25 2 37 26 13 1 18 58 42 12 18
16 7 11 8 0 0 28 112 114 116 106 93 52 30 32 20
18 25 22 27 24 35 32 33 30 42 39 29 32 29 28 26
21 21 24 25 22 18 15 18 23 26 29 36 34 26 22 19
21 27 43 40 26 38 41 38 45 39 31 16 18 26 31 27
20 27 27 27 25 24 22 18 23 21 27 28 29 30 31 30
30 29 18 32 33 21 11 13 14 7 14 30 35 32 31 19
2 1 4 2 1 19 20 0 1 26 35 36 37 36 36 36
39 43 24 13 26 24 2 23 18 2 0 17 57 41 15 6
14 8 15 14 0 3 69 115 119 120 122 105 85 49 31 30
22 25 22 31 25 29 34 38 32 37 43 44 45 34 28 25
18 15 17 20 18 17 20 24 29 25 24 26 25 21 21 27
28 28 36 41 35 34 40 42 36 38 33 32 9 30 34 29
22 26 30 28 29 29 28 23 26 24 30 31 31 32 33 31
32 22 26 22 32 26 1 0 0 0 9 13 13 1 0 0
2 1 0 0 0 13 24 0 1 26 35 35 36 35 35 36
3 7 2 0 0 12 21 10 4 8 12 24 52 36 12 6
13 8 18 19 1 10 100 118 124 126 130 121 100 68 34 40
23 35 28 35 35 29 33 28 34 43 49 43 45 34 26 21
16 15 19 19 20 22 23 24 25 26 25 32 34 28 28 32
38 31 31 32 32 25 26 28 34 28 27 28 20 10 37 30
25 23 30 27 29 29 28 25 28 28 32 32 33 33 33 32
26 8 2 0 10 33 3 0 0 0 0 0 0 0 0 0
0 17 0 0 0 6 28 3 2 28 36 35 37 36 36 36
11 0 0 1 0 0 1 8 4 21 46 46 48 39 31 22
20 13 25 17 3 26 113 119 128 130 133 130 111 91 54 51
24 27 31 24 28 28 24 31 32 36 40 35 31 23 17 16
15 15 15 16 17 18 20 25 33 32 28 27 32 34 32 29
33 36 30 21 21 14 14 20 17 19 15 18 24 8 19 30
27 23 29 27 29 29 28 25 29 30 33 33 33 33 33 33
11 10 24 10 1 2 0 0 0 0 0 0 0 0 0 0
0 0 0 0 0 7 29 13 12 30 35 35 37 36 35 35
9 1 0 4 1 3 11 34 38 35 51 53 51 48 50 39
22 21 30 18 4 41 118 121 130 132 128 130 128 92 86 55
44 19 36 27 26 34 32 37 42 42 41 39 32 27 24 24
16 17 18 19 21 20 21 27 26 30 35 40 38 39 30 32
34 24 30 28 11 14 7 6 8 11 12 11 13 19 11 26
29 21 28 27 30 30 29 26 30 31 34 34 34 33 32 27
12 30 22 20 31 30 28 28 28 27 26 12 21 5 0 0
0 0 0 0 0 15 28 25 26 33 36 36 37 36 36 35
9 0 0 15 35 34 45 46 52 52 51 53 55 49 30 20
16 13 29 18 5 49 118 123 132 132 127 132 134 115 89 83
51 33 22 47 23 25 39 31 36 40 36 33 33 28 25 21
18 18 19 23 24 22 23 22 21 26 30 28 22 21 14 12
18 16 11 11 9 9 9 4 6 6 8 4 5 12 7 18
30 22 26 28 29 29 29 26 30 31 34 33 34 33 32 12
16 20 31 34 35 35 35 35 35 35 34 27 4 0 0 0
0 10 12 12 15 30 30 29 32 35 36 36 37 36 36 36
38 20 16 33 50 48 40 31 49 42 30 35 40 43 17 3
7 4 26 14 11 56 120 125 134 132 132 132 131 132 110 89
76 36 22 25 37 19 30 36 38 35 32 28 23 19 14 11
8 10 10 13 16 18 23 25 28 37 36 25 16 25 27 26
25 25 20 10 4 12 23 17 12 8 9 4 1 5 7 8
30 24 25 30 30 29 29 27 30 31 34 33 33 33 17 20
34 35 35 34 34 35 34 35 35 34 33 4 0 2 1 0
0 32 35 34 34 33 32 31 34 36 36 36 36 36 36 37
53 51 51 51 52 46 23 3 22 13 0 0 6 39 16 1
8 9 21 14 14 63 119 126 131 132 138 136 139 137 137 116
91 67 29 20 26 30 26 33 41 39 32 26 25 18 13 9
13 14 12 14 21 29 27 23 15 13 16 18 23 29 34 33
33 25 24 15 7 10 16 17 11 14 5 6 5 2 7 3
24 27 23 30 30 30 29 27 30 31 34 33 33 25 12 33
34 34 34 34 35 35 35 35 35 35 33 3 0 4 12 0
0 31 34 34 34 33 33 33 35 35 35 35 35 35 36 35
53 54 54 52 46 37 18 0 0 5 0 0 3 40 11 4
19 25 24 13 13 69 121 127 133 136 139 137 141 140 143 132
122 91 68 36 25 26 31 26 30 29 28 27 25 21 20 18
17 12 13 11 8 10 14 18 16 16 24 25 30 34 40 29
28 19 23 23 15 10 12 14 9 6 6 5 4 10 3 6
14 29 22 25 18 29 29 28 30 31 34 33 30 8 30 35
35 35 35 35 36 35 35 35 35 34 33 4 0 0 1 0
0 29 35 35 35 34 34 35 36 35 35 35 36 36 36 36
55 56 56 45 18 19 11 6 2 16 5 0 3 40 12 13
29 19 14 15 12 77 121 130 137 141 141 139 142 140 142 136
128 124 115 92 55 30 27 27 29 29 25 19 21 24 19 5
6 13 19 19 21 19 21 18 20 20 16 23 31 36 38 34
26 22 28 29 25 14 8 5 11 6 1 0 1 2 3 4
4 25 20 18 14 25 30 29 31 31 34 34 17 23 35 35
35 35 35 35 35 35 35 35 34 34 32 3 0 0 0 0
0 25 35 35 35 35 36 37 37 36 36 37 37 37 36 36
34 36 39 42 43 45 39 40 36 40 12 0 3 39 16 4
31 29 7 17 12 80 124 133 140 145 142 142 145 145 147 147
143 131 126 117 110 90 57 42 36 29 30 28 27 17 12 10
12 12 12 18 19 19 16 15 14 12 19 22 17 22 19 23
24 18 21 23 16 17 9 6 6 3 1 0 0 0 1 2
2 20 18 12 9 23 30 29 30 31 34 32 11 32 34 33
34 34 35 35 35 35 35 32 25 18 19 2 0 0 0 0
0 23 37 36 35 36 36 36 36 36 35 36 36 36 36 35
0 0 1 7 32 34 12 7 8 10 2 0 4 39 8 0
16 17 7 16 14 91 123 137 138 143 140 141 147 148 148 148
147 143 142 137 134 119 107 97 71 51 38 34 30 22 22 20
21 21 19 20 23 17 16 16 18 18 15 16 23 23 23 25
24 23 10 5 3 5 5 13 13 9 1 0 0 0 0 0
1 16 17 10 10 22 29 30 31 32 34 31 12 34 34 35
35 35 35 36 36 36 35 11 8 1 0 0 0 0 0 0
0 21 35 36 36 36 36 37 36 36 36 36 36 36 35 36
0 0 0 4 36 40 10 0 0 0 0 0 2 38 8 0
0 0 5 11 20 102 126 135 130 136 136 139 149 149 149 149
149 148 147 145 144 143 138 125 110 93 77 59 43 35 31 26
27 25 24 19 18 16 17 19 18 13 16 19 39 47 32 25
29 32 26 12 3 0 0 0 1 2 0 0 0 0 0 0
0 15 18 11 11 21 30 29 30 31 34 31 12 34 35 35
35 35 36 36 36 35 35 29 38 17 25 0 0 0 0 1
1 13 31 35 35 36 36 36 36 36 36 35 35 36 36 35
0 0 0 5 42 46 18 0 0 0 0 0 2 38 9 0
0 0 0 1 30 110 128 136 133 134 134 138 148 148 148 148
148 147 146 143 141 145 146 143 130 118 99 69 49 40 36 31
29 28 26 24 27 24 21 24 25 23 28 73 112 116 102 63
33 33 31 24 24 18 6 1 0 1 1 0 0 0 0 0
0 7 18 11 11 21 29 30 30 32 34 32 12 34 34 35
35 35 35 35 36 35 35 46 50 19 8 0 0 0 0 0
0 3 7 17 18 27 36 36 36 36 36 36 36 36 36 36
9 13 13 19 48 56 26 0 0 0 0 0 1 36 8 0
0 0 0 1 32 117 132 139 133 136 133 135 145 149 150 149
148 148 146 146 144 145 147 147 142 132 119 89 53 42 34 29
26 24 26 21 22 25 24 24 26 29 61 112 101 93 108 135
102 25 23 28 20 18 11 7 2 2 1 1 4 0 0 0
0 1 16 12 11 20 28 30 30 31 33 33 12 32 34 35
35 35 34 30 28 26 23 9 5 5 0 0 0 0 0 0
0 2 4 0 5 20 37 36 36 35 36 36 36 35 34 35
34 41 41 46 53 44 15 0 0 0 0 0 1 36 7 0
0 0 0 0 38 121 133 130 129 128 125 130 143 149 149 149
148 147 142 143 146 145 147 147 148 145 133 107 70 44 37 35
30 26 23 22 21 25 27 30 30 49 111 85 69 79 84 101
137 94 2 7 9 7 5 4 2 1 1 0 5 3 0 0
0 0 11 13 11 21 29 29 30 32 34 34 16 29 34 34
34 34 24 7 5 8 7 2 0 0 0 0 0 0 0 0
0 1 5 1 3 20 37 36 37 37 36 36 36 35 35 35
44 46 47 54 53 27 1 0 0 0 0 0 1 36 22 14
16 20 25 30 52 117 122 114 111 101 102 110 118 128 144 149
145 143 142 144 147 147 147 148 148 148 146 125 88 57 38 31
30 28 25 26 23 25 24 33 64 94 102 57 95 143 144 122
125 135 26 0 0 1 0 0 0 0 0 0 0 2 2 0
0 0 14 16 12 22 29 30 30 33 34 34 22 25 33 32
29 26 15 2 3 4 3 1 5 4 0 0 0 0 0 0
0 0 6 2 2 18 37 37 37 37 36 37 36 36 35 35
15 21 27 34 52 40 29 30 27 24 23 23 26 43 43 42
44 46 49 50 56 112 93 65 67 59 81 94 90 95 101 117
125 128 137 146 147 146 148 149 148 149 149 137 103 67 44 29
22 24 25 25 24 28 42 68 85 111 106 66 107 149 148 145
122 140 63 17 4 0 0 0 0 0 0 0 0 0 4 2
0 0 13 18 11 21 28 29 29 30 27 23 15 8 9 6
5 4 5 5 7 7 8 8 6 3 9 6 0 0 0 0
0 1 6 3 4 14 36 37 36 36 36 35 34 34 34 34
0 0 4 12 49 52 52 51 50 48 46 48 50 48 45 42
45 46 47 46 50 109 69 43 26 30 55 66 89 103 113 125
120 125 135 140 146 146 148 149 148 149 148 140 113 80 49 29
25 22 20 23 23 40 61 82 100 117 123 92 126 147 148 148
131 140 75 12 18 6 0 0 0 0 0 0 0 0 0 2
0 0 12 19 12 20 28 29 23 10 4 4 5 6 8 9
10 10 10 10 11 11 11 7 3 2 7 13 0 0 0 0
0 1 6 8 12 15 33 35 36 35 36 36 36 35 34 35
0 0 4 13 50 55 55 53 55 53 53 54 54 39 30 31
41 42 42 42 28 100 71 42 32 25 49 83 103 109 117 120
127 129 134 142 147 149 149 149 147 148 148 142 121 90 59 38
25 21 18 21 37 54 66 76 100 121 109 121 139 149 148 147
135 137 80 5 21 19 8 0 0 0 0 0 0 0 0 0
0 1 16 20 11 18 28 28 20 10 9 9 9 10 11 10
9 8 6 5 4 3 10 8 2 5 9 5 0 0 0 4
1 1 5 12 12 16 32 37 37 36 36 36 35 35 35 35
0 0 4 13 50 51 50 46 46 45 44 50 43 24 23 28
40 41 42 42 36 97 108 82 62 45 32 27 48 60 70 91
107 114 129 141 148 149 149 149 148 149 148 144 127 99 69 53
36 29 26 31 40 50 62 89 96 114 58 118 149 148 148 148
137 137 71 16 11 19 21 2 0 0 0 0 0 0 0 0
0 1 20 19 11 17 27 27 13 11 10 5 3 2 1 0
0 0 0 0 0 1 11 10 8 4 5 0 0 0 0 1
0 0 8 8 8 12 33 37 37 36 37 37 36 36 36 35
0 0 1 13 49 27 12 17 12 11 13 19 16 22 23 27
39 41 34 25 24 71 119 109 82 95 91 50 68 82 79 108
112 118 126 143 149 148 148 149 149 149 148 144 130 113 87 70
72 58 46 54 60 82 89 92 95 105 59 35 103 145 148 147
135 139 64 24 14 7 23 17 2 0 0 0 0 0 0 0
0 0 21 20 12 15 26 27 16 9 8 0 0 0 0 0
0 0 0 0 0 3 12 10 9 8 7 8 8 9 11 11
13 16 19 20 18 18 26 25 26 28 36 36 36 36 35 34
0 0 0 10 50 18 0 2 0 0 1 10 7 22 23 26
38 40 28 5 1 27 116 118 102 108 101 94 91 98 118 130
134 131 135 147 149 149 149 149 149 149 145 145 136 128 110 96
74 83 70 79 83 102 118 125 116 109 107 43 65 133 148 148
132 135 46 24 23 3 7 16 7 0 0 0 0 0 0 0
0 0 16 20 11 13 25 26 15 10 6 0 0 0 0 0
0 0 0 0 0 6 12 10 9 29 22 21 23 29 27 23
28 25 23 23 17 16 47 21 16 21 36 35 35 35 33 33
0 0 0 9 48 21 0 2 1 1 4 16 17 21 23 26
37 40 32 9 1 9 112 138 122 115 104 100 84 113 134 144
148 146 146 147 149 149 148 148 148 148 147 147 142 141 126 122
101 101 95 104 105 118 133 136 138 97 116 108 91 126 147 147
134 125 31 27 28 10 0 1 9 2 0 0 0 0 0 0
0 0 14 20 12 10 23 23 13 9 3 0 0 0 0 0
0 0 0 0 0 8 10 10 9 24 18 21 24 31 54 51
68 70 73 32 17 36 112 56 13 17 34 34 33 17 6 6
0 0 0 7 47 21 0 3 3 11 17 18 16 20 21 25
34 39 34 12 1 11 115 146 138 125 112 107 102 118 127 143
147 147 146 147 149 148 149 149 148 148 148 147 147 147 142 136
128 125 124 127 131 140 146 147 147 116 91 105 111 135 145 145
134 107 24 33 32 17 1 0 4 4 0 0 0 0 0 0
0 0 13 19 12 8 22 21 11 9 1 0 0 0 0 0
0 0 0 0 0 10 10 11 8 19 17 23 27 35 89 74
95 93 94 36 17 99 126 112 29 17 34 34 31 1 0 0
0 0 0 6 46 23 0 2 11 18 17 18 16 21 22 24
35 40 36 17 3 34 135 146 139 128 113 108 101 114 124 138
146 148 147 149 150 149 149 149 148 148 148 148 147 145 144 135
129 132 131 138 145 147 147 148 147 126 99 77 118 143 145 138
135 74 17 29 32 26 3 0 0 1 1 0 0 0 0 0
0 0 17 28 24 21 27 19 10 8 0 0 0 0 0 0
0 0 0 0 2 11 11 13 8 12 26 29 34 31 51 43
45 42 38 30 27 56 42 36 28 18 32 34 30 1 0 0
0 0 0 6 44 23 0 0 9 16 17 18 16 20 22 24
32 39 36 20 5 86 144 144 142 139 123 111 102 111 120 130
139 146 147 148 149 149 148 148 147 145 146 146 145 144 141 131
129 128 129 137 146 147 147 147 135 131 123 71 119 139 144 130
123 34 14 16 17 26 11 0 0 0 0 0 0 0 0 0
0 1 37 46 44 42 39 17 9 6 0 0 0 0 0 0
0 0 0 0 4 10 10 14 5 1 26 32 36 25 27 27
22 19 20 23 25 25 25 24 25 17 32 34 34 13 0 0
0 0 0 6 43 24 0 0 7 16 17 17 16 20 22 24
31 39 37 24 26 125 145 143 143 143 138 123 108 108 118 127
137 145 150 149 149 149 149 148 146 144 142 143 141 139 137 132
130 131 131 136 146 148 148 148 125 126 125 124 129 142 133 131
93 18 14 15 11 14 15 0 0 0 0 0 0 0 0 0
0 2 41 48 46 45 37 14 9 4 0 0 0 0 0 0
0 0 0 0 6 10 10 13 1 2 20 26 36 25 26 21
20 18 16 22 26 26 25 25 25 17 30 34 32 32 3 0
20 18 18 24 46 27 0 0 9 17 17 18 16 19 21 23
30 39 37 26 70 139 147 141 141 143 139 131 115 111 117 125
135 147 149 149 149 149 149 148 145 144 142 141 139 136 134 130
131 132 133 136 144 145 141 146 130 117 144 147 146 139 133 130
48 17 12 12 6 5 10 3 1 0 0 0 0 0 0 0
0 2 41 48 46 44 31 10 9 2 0 0 0 0 0 0
0 0 0 0 9 10 11 10 0 0 1 13 36 26 26 16
18 17 18 23 27 27 26 24 24 10 28 28 6 7 3 0
48 47 47 44 43 32 1 0 11 17 18 18 16 20 21 24
29 39 38 39 117 148 144 142 143 144 139 132 124 114 117 127
140 148 149 149 149 149 148 147 145 143 141 141 140 137 133 132
133 132 133 136 138 140 129 132 145 147 146 143 143 143 142 92
35 21 17 11 6 2 2 0 0 0 0 0 0 0 0 0
0 6 41 48 48 45 27 10 9 0 0 0 0 0 0 0
0 0 0 1 11 10 12 7 0 0 0 18 34 26 25 15
20 18 17 25 27 27 26 24 24 11 16 3 0 0 7 0
31 23 18 11 12 31 2 0 11 17 18 18 16 20 22 24
29 39 39 69 139 150 143 145 142 144 141 128 122 120 120 130
141 148 150 148 149 149 148 145 144 142 142 140 141 135 133 132
132 132 134 134 131 125 126 123 137 147 146 140 143 143 118 72
41 29 18 11 8 1 3 0 0 0 0 0 0 0 0 0
0 6 46 49 48 44 21 10 8 0 0 0 0 0 0 0
0 0 0 3 12 10 12 5 0 9 10 28 34 27 24 13
20 18 17 26 27 27 27 25 24 13 0 0 0 4 0 0
9 0 0 0 3 32 7 1 11 16 17 17 15 19 22 23
28 38 43 112 143 145 143 148 147 146 142 131 121 122 125 137
145 148 149 149 148 147 143 147 147 145 143 142 139 136 135 136
133 133 131 130 127 128 127 123 130 140 144 140 135 112 104 90
49 42 22 14 13 1 3 0 0 0 0 0 0 0 0 0
0 21 49 49 48 42 16 10 5 0 0 0 0 0 0 0
0 0 0 6 11 10 12 2 0 13 7 32 33 26 21 6
14 18 16 26 26 26 26 25 26 14 0 0 0 9 0 0
5 1 0 0 6 38 39 28 23 15 17 17 16 19 22 24
28 39 72 131 141 142 141 145 148 148 144 133 123 124 133 142
149 151 150 150 149 148 142 147 147 144 144 140 140 141 139 135
135 132 129 126 121 132 131 121 130 132 139 127 108 113 114 105
63 58 35 24 14 4 1 0 0 0 0 0 2 0 0 0
0 32 53 50 48 37 13 10 3 0 0 0 0 0 0 0
0 0 0 8 11 12 13 0 1 10 7 36 30 20 7 2
13 17 17 25 26 26 26 27 26 14 0 1 6 10 2 2
0 0 0 0 9 40 34 16 15 15 16 17 16 19 22 23
27 42 110 139 141 139 139 139 144 147 146 135 124 127 137 147
150 150 150 150 149 148 147 147 147 145 145 140 141 141 138 138
135 130 132 127 120 128 128 109 124 124 122 108 116 118 116 108
76 68 53 34 20 8 0 0 0 0 0 0 1 0 3 0
2 43 53 49 47 30 11 10 1 0 0 0 0 0 0 0
0 0 0 10 10 12 10 0 4 14 15 37 29 17 6 1
13 15 17 25 26 26 25 26 27 17 7 10 12 13 11 8
1 0 0 0 7 37 21 0 3 14 16 17 16 17 21 23
26 63 130 143 141 133 131 131 128 130 139 131 123 128 139 147
151 151 150 150 149 149 149 147 147 144 147 141 141 141 140 140
135 132 130 126 124 121 124 100 102 103 101 116 120 117 115 109
80 59 57 35 29 7 1 2 2 1 3 5 0 1 3 0
3 49 54 50 47 23 11 9 0 0 0 0 0 0 0 0
0 0 2 12 11 13 7 0 45 51 17 38 29 17 5 2
13 15 18 25 27 27 26 27 27 18 3 4 5 5 2 1
1 0 0 1 6 36 22 0 1 13 15 16 15 17 20 22
26 88 143 150 143 139 135 134 131 126 134 129 121 124 131 146
150 150 150 149 150 149 149 148 149 146 147 145 139 143 144 142
134 131 130 125 120 118 119 111 83 104 114 118 120 119 114 104
81 50 43 34 15 3 5 4 6 10 7 5 3 1 1 1
9 52 55 50 44 17 10 6 0 0 0 0 0 0 0 0
0 0 5 12 11 12 4 1 57 44 20 37 28 19 9 14
19 14 20 26 27 26 25 26 27 20 0 0 0 0 0 0
7 7 9 17 20 36 24 0 0 13 15 16 15 16 20 21
26 102 145 146 143 147 148 138 140 139 127 126 121 123 131 144
150 148 149 150 150 150 150 148 148 145 146 145 142 143 143 139
137 132 131 126 119 116 116 113 114 114 113 123 125 119 111 98
90 60 43 22 12 15 10 8 11 14 13 8 2 5 2 1
18 55 56 51 40 14 11 4 0 0 0 0 0 0 0 0
0 0 8 11 12 13 2 0 14 14 28 35 28 22 18 12
19 17 23 29 28 26 26 26 26 20 0 0 0 0 0 0
24 25 29 37 44 45 32 6 3 13 15 15 15 15 19 20
25 89 127 124 118 113 117 123 129 133 125 123 121 122 129 141
149 150 149 150 150 150 150 147 146 144 142 143 144 143 141 142
139 133 133 125 117 114 111 110 112 114 116 128 134 124 115 109
99 81 56 31 32 19 14 12 13 15 11 6 5 7 2 2
26 55 55 51 32 11 11 3 1 1 1 2 2 2 2 2
2 2 10 12 12 11 0 0 5 10 36 32 29 25 17 13
19 18 24 28 28 26 25 26 26 20 1 0 0 0 0 0
34 36 38 42 47 47 42 34 30 26 16 14 14 13 18 19
23 56 105 104 77 28 31 63 95 110 112 121 119 121 128 139
147 151 150 149 147 150 144 146 145 141 140 140 143 143 142 137
137 136 132 123 112 114 109 104 108 109 114 124 129 122 117 114
108 99 68 47 43 21 17 14 11 11 6 3 8 7 2 9
31 54 53 50 26 11 11 10 10 10 10 10 10 9 10 11
11 10 12 12 13 10 0 0 4 11 38 31 28 24 16 13
18 18 24 28 27 26 26 26 25 20 1 0 0 0 0 0
28 27 26 25 25 24 24 17 15 16 14 13 13 12 18 19
23 33 57 85 91 95 107 115 121 108 115 135 131 122 125 135
144 150 149 148 147 148 148 147 142 141 140 143 143 142 140 136
137 134 130 119 114 109 102 100 102 103 112 121 124 123 118 115
112 95 66 55 36 21 16 13 9 8 4 2 9 7 4 11
28 53 54 49 20 11 11 10 11 11 12 12 11 12 12 12
12 12 12 12 16 7 0 1 3 17 39 29 29 24 16 13
19 19 26 28 27 26 27 26 25 20 1 0 0 0 0 0
16 15 15 15 18 19 22 3 0 7 12 12 12 11 16 18
21 31 36 35 43 63 96 122 128 134 139 139 134 126 130 135
141 147 147 148 146 144 146 146 143 140 140 138 143 144 140 128
133 130 127 120 117 106 101 88 93 102 108 118 122 121 118 114
108 86 68 54 31 19 17 14 7 5 9 6 5 8 7 10
24 51 53 50 18 8 12 12 12 13 21 19 12 11 12 11
14 16 13 7 14 4 0 10 23 28 37 29 29 23 14 12
17 20 26 28 27 26 28 27 27 22 1 0 0 0 0 0
8 7 7 8 15 17 22 4 0 5 11 12 12 11 16 18
21 30 34 31 12 2 39 115 134 139 138 139 135 128 133 135
142 144 145 145 143 141 137 140 139 142 140 136 134 142 139 138
134 126 124 120 111 102 96 86 92 98 105 115 120 122 122 119
101 72 56 40 26 21 25 21 5 5 3 11 9 11 11 13
19 47 50 39 17 11 26 30 38 55 91 88 63 60 43 32
36 34 32 28 9 0 7 38 21 32 36 29 28 16 9 13
14 22 27 27 28 27 28 28 26 22 1 0 0 0 0 0
4 7 9 8 13 22 25 5 0 2 5 9 13 11 15 17
20 29 34 30 13 0 4 80 126 132 134 136 133 127 128 133
143 141 143 142 140 139 137 139 139 139 136 138 134 139 137 134
132 123 121 116 103 100 96 87 89 93 100 111 119 123 120 116
101 84 66 63 62 55 35 17 10 10 5 7 8 8 6 10
11 41 34 18 23 59 97 105 122 137 143 144 132 116 75 18
11 10 12 15 31 14 51 140 58 33 33 30 27 16 16 14
12 22 25 25 28 28 27 28 26 22 2 0 0 0 0 0
22 25 26 27 24 18 21 3 0 5 9 5 13 12 15 17
19 29 33 31 21 14 17 46 110 122 128 131 130 120 120 125
137 139 139 139 139 136 138 135 132 127 134 139 138 139 137 132
131 121 120 111 104 101 92 84 85 91 97 108 119 122 123 119
110 98 94 98 93 71 48 22 15 8 9 7 3 9 9 15
42 46 42 39 40 61 101 106 117 127 134 144 134 117 74 11
10 10 8 13 21 22 86 146 47 37 31 28 25 12 10 2
6 20 22 20 23 26 27 27 26 24 2 0 0 0 0 0
26 28 31 30 31 26 9 3 0 5 11 4 11 11 14 16
18 28 34 33 33 32 31 41 99 114 121 124 122 115 98 107
120 134 137 141 138 136 134 133 134 131 136 135 134 134 131 129
126 122 115 106 99 97 87 82 89 93 98 107 117 121 121 117
110 103 98 98 97 76 50 24 14 14 9 3 5 10 10 17
38 37 38 45 52 55 83 105 120 133 139 137 127 109 60 7
6 8 4 26 6 0 45 55 19 42 28 10 5 1 0 2
0 1 8 28 29 25 26 22 26 24 3 0 0 0 0 0
28 25 26 29 32 27 16 8 3 6 6 3 5 6 13 16
18 28 34 34 34 32 28 35 86 109 119 122 116 108 81 56
81 120 133 136 139 137 132 132 131 132 132 131 130 125 126 126
123 118 111 102 95 88 85 85 92 95 96 107 118 123 122 119
113 107 105 103 104 95 69 48 22 19 5 1 7 8 8 17
20 20 20 39 43 37 54 81 39 89 103 96 80 56 13 8
9 7 19 44 35 35 46 55 46 50 26 3 0 0 0 0
0 0 0 23 18 20 27 19 21 24 4 0 0 0 0 0
27 23 21 33 38 24 8 1 0 0 2 2 2 6 11 14
16 26 33 33 33 32 30 32 44 73 87 91 86 76 55 62
105 111 128 135 136 136 135 133 129 132 130 129 127 123 124 124
120 115 107 99 91 83 81 89 93 95 96 106 117 121 124 123
116 109 109 106 106 104 95 77 59 60 10 1 7 5 13 19
17 16 4 11 35 57 62 57 26 4 5 5 9 8 5 9
15 64 81 93 100 100 94 100 99 76 34 34 0 0 0 0
0 0 0 10 15 25 26 17 14 8 14 11 2 0 0 0
19 19 18 39 28 16 0 0 0 0 0 0 0 5 3 7
9 13 18 16 16 15 14 13 14 43 61 72 87 106 127 136
127 112 120 129 130 130 124 127 128 127 129 129 127 121 120 116
111 107 99 90 84 77 82 90 91 91 97 105 117 123 124 123
118 113 109 109 108 106 99 94 90 77 18 4 4 7 27 21
17 17 3 0 5 37 59 67 73 46 18 12 15 13 15 28
64 108 98 103 104 94 86 98 100 76 19 25 0 0 0 0
0 0 0 1 21 30 17 15 18 8 3 4 2 0 0 0
14 10 30 43 23 19 7 0 0 0 0 0 0 2 0 0
0 0 0 0 0 0 4 6 6 34 90 111 122 130 143 140
132 116 117 121 124 125 123 122 126 126 125 123 120 120 116 112
108 99 92 83 76 78 90 94 94 95 99 106 113 123 125 121
116 112 111 110 109 105 101 97 93 83 36 4 1 7 38 37
19 18 5 2 3 4 5 5 14 37 68 62 40 48 87 78
59 66 77 89 90 89 88 91 94 70 9 7 4 3 5 4
4 8 7 6 12 11 1 0 0 0 0 0 1 0 0 0
12 8 67 22 6 16 17 3 0 0 0 0 0 0 0 1
0 0 0 0 0 3 9 11 7 30 87 105 119 131 135 136
130 117 120 119 121 123 123 125 123 123 122 121 116 113 106 105
95 86 81 73 76 87 91 94 96 96 102 109 114 122 123 116
116 114 111 109 110 108 102 99 94 85 62 24 4 10 40 62
11 12 12 16 19 26 32 42 38 24 26 51 72 71 61 65
83 104 110 97 71 64 62 53 53 46 33 30 28 22 15 8
1 4 5 3 0 0 0 0 0 0 0 0 0 0 0 0
23 11 49 1 0 9 19 23 0 0 0 0 0 0 1 4
5 4 3 2 1 3 10 14 13 13 61 95 111 118 124 126
132 125 124 122 121 122 124 124 128 128 122 118 115 110 103 98
84 75 69 67 80 90 94 94 95 98 101 110 119 122 123 121
118 115 111 110 109 107 104 99 94 88 76 65 19 3 11 44
35 42 50 68 97 135 146 148 147 120 81 70 72 76 92 130
149 149 148 148 126 84 57 39 35 26 19 15 16 12 10 5
1 2 2 1 0 0 0 0 0 0 0 0 0 0 0 0
15 12 25 0 3 2 21 12 0 0 0 2 5 5 4 5
7 6 5 5 5 8 13 19 18 7 31 70 89 107 118 124
127 128 130 129 129 127 125 126 130 126 121 118 110 101 94 80
67 64 69 81 86 90 95 96 97 98 106 117 122 123 122 118
116 113 112 111 109 106 105 98 94 88 78 71 29 0 12 43
37 30 37 56 85 111 147 149 127 80 66 52 52 54 78 119
149 148 147 147 134 92 58 44 32 25 20 17 17 12 11 6
2 1 2 0 0 0 0 0 0 0 0 0 0 0 0 0
0 11 16 0 3 0 3 0 1 3 1 9 6 12 13 11
11 11 13 16 22 24 21 19 16 2 40 61 84 101 117 125
127 128 128 132 135 133 129 130 127 124 113 108 99 89 76 64
60 67 79 86 88 90 90 92 98 103 113 116 108 114 122 117
116 113 110 110 109 106 103 98 91 88 81 73 35 0 20 39
43 33 34 47 81 103 145 148 126 78 64 54 52 55 82 120
149 146 144 148 136 92 57 43 32 25 19 16 15 11 11 7
2 0 3 0 1 0 0 0 0 0 0 0 0 0 0 0
0 11 16 4 8 0 0 0 0 2 0 2 3 8 8 7
8 10 11 17 26 26 17 10 5 3 47 50 82 103 116 126
129 131 133 135 136 135 131 128 125 120 109 97 88 73 62 58
67 76 83 87 88 89 93 95 104 113 119 121 114 117 119 117
115 113 108 109 108 105 101 95 90 87 82 75 38 0 24 34
31 41 33 41 64 99 144 148 127 79 64 49 45 57 76 113
149 144 140 147 134 89 59 41 33 25 19 17 15 12 11 7
2 0 3 1 0 0 0 0 0 0 0 0 0 0 0 0
3 16 20 11 9 0 0 0 0 0 0 0 5 6 6 5
6 6 7 15 25 23 6 0 0 4 52 52 91 117 120 126
134 138 140 142 137 132 130 127 120 111 103 90 74 64 63 68
75 80 84 86 89 93 99 102 114 120 121 121 122 118 118 117
114 112 111 107 107 105 100 94 91 88 82 75 37 0 44 46
29 38 34 24 40 75 134 148 128 81 60 45 47 60 77 114
148 145 140 147 136 90 62 43 32 24 21 16 15 13 12 7
2 1 3 2 0 0 0 0 0 0 0 0 0 0 0 0
2 14 19 11 9 0 0 0 0 1 0 0 4 3 4 4
6 5 8 15 25 22 6 1 0 5 55 55 96 119 125 130
140 139 141 136 129 124 118 120 113 98 86 70 62 64 68 72
79 80 85 91 94 101 110 116 124 124 124 123 122 121 118 117
112 111 109 107 105 103 97 94 92 88 83 75 30 0 57 57
28 36 38 38 36 28 39 81 98 79 57 43 48 57 75 113
148 144 139 147 137 93 63 44 31 24 22 16 16 13 12 9
3 3 3 1 0 0 0 0 0 0 0 0 0 0 0 0
6 25 18 11 9 0 0 0 3 2 1 2 4 6 5 6
9 8 9 15 25 20 12 11 1 5 54 67 98 116 124 129
133 132 134 131 124 118 111 106 96 79 66 59 61 64 68 73
77 79 88 96 107 111 120 115 119 127 127 124 123 121 118 115
113 111 109 107 103 102 97 94 91 88 82 75 20 0 33 34
34 25 34 22 34 50 50 47 42 32 47 45 48 55 74 110
148 145 138 148 138 92 66 45 27 22 18 15 16 13 13 9
3 5 3 2 0 0 0 0 0 0 0 0 0 0 0 0
11 12 4 6 9 3 0 0 2 0 0 0 3 8 2 6
8 8 14 25 32 28 22 23 5 3 46 60 94 113 118 121
125 122 123 121 112 109 100 90 76 64 56 57 57 58 62 68
74 87 102 115 118 123 126 124 123 128 128 126 124 120 117 114
111 108 108 104 102 98 97 93 90 86 83 72 9 2 36 33
38 22 23 20 22 24 68 83 29 21 23 30 41 48 69 107
147 145 139 148 138 94 64 43 28 20 15 13 15 14 14 10
3 5 3 1 0 0 0 0 0 0 0 0 0 0 0 0
4 3 4 6 7 5 0 0 1 0 2 0 10 13 3 6
7 8 26 38 32 28 22 21 6 1 43 57 82 105 113 110
113 115 115 110 101 95 79 64 53 50 47 45 43 45 56 62
81 104 119 123 126 128 127 128 126 129 128 126 123 121 117 115
112 110 106 104 103 99 96 91 89 86 83 59 2 12 34 30
37 25 26 24 22 24 45 34 40 39 24 25 27 43 55 53
84 116 131 149 140 95 60 38 28 22 15 9 12 14 14 12
3 6 4 1 0 0 0 0 0 0 0 0 0 0 0 0
12 13 17 14 6 4 1 0 0 0 0 0 7 14 4 7
6 3 17 32 36 35 28 27 10 0 30 40 46 91 100 100
102 103 100 91 79 67 51 40 35 24 18 17 21 31 43 63
97 121 130 132 131 127 125 124 124 126 126 125 123 122 119 114
114 109 108 105 103 99 95 92 90 87 79 40 0 17 34 27
45 32 27 56 23 32 43 24 19 30 62 46 35 59 51 37
47 54 67 51 86 90 63 38 34 26 14 9 12 14 14 12
4 6 5 1 0 0 0 0 0 0 0 0 0 0 0 0
21 22 22 21 12 1 3 0 0 0 0 0 6 20 20 15
8 2 6 13 23 21 13 8 2 0 3 4 17 53 78 82
83 85 79 66 50 49 57 25 3 0 0 0 0 11 24 67
111 127 134 131 124 122 121 125 125 125 126 128 125 122 119 116
114 111 108 105 102 99 96 94 90 86 79 15 3 42 30 25
51 27 26 38 55 47 34 19 20 23 25 51 90 68 42 39
33 36 45 84 88 60 43 42 36 26 15 11 13 14 14 12
4 6 5 1 0 0 0 0 0 0 0 0 0 0 0 0
13 15 18 18 10 0 6 1 0 0 0 0 0 9 26 11
2 0 0 0 0 0 0 0 0 0 16 32 37 46 60 51
53 48 42 33 45 81 56 35 2 0 0 0 0 3 14 65
115 125 128 129 120 118 117 119 121 125 127 129 128 122 121 118
114 112 110 107 102 99 97 94 92 89 59 2 29 77 43 25
41 33 43 30 51 82 31 23 23 20 22 32 81 94 70 33
35 32 35 60 80 47 48 34 34 27 18 13 14 15 13 12
5 7 4 2 0 0 0 0 0 0 0 0 0 0 0 0
2 2 2 1 0 12 33 1 4 1 0 0 0 0 10 1
0 0 0 0 0 0 1 0 3 18 44 37 43 65 33 37
52 35 31 53 64 36 40 27 2 0 0 0 0 1 9 56
108 121 127 124 116 116 119 120 120 124 126 128 125 122 122 118
115 114 111 107 103 101 96 95 94 87 27 2 37 50 41 25
40 53 40 79 58 68 57 34 26 30 20 45 60 38 49 65
33 37 43 72 46 36 39 45 47 51 44 24 15 16 15 12
5 6 3 2 0 0 0 0 0 0 0 0 0 0 0 0
0 0 0 0 0 21 54 2 8 2 0 0 0 0 10 2
0 0 4 3 5 15 25 28 24 24 47 51 57 41 34 37
60 52 60 53 28 30 46 23 12 7 0 0 0 0 5 43
98 113 121 116 112 115 116 116 120 125 126 125 124 123 121 118
115 115 111 106 101 101 97 96 93 66 7 7 39 35 35 24
29 34 17 48 33 38 30 57 51 26 32 51 44 35 26 53
68 39 66 60 39 44 42 37 38 63 77 55 34 19 16 12
5 5 2 2 0 0 0 0 0 0 0 0 0 0 0 0
0 0 0 0 0 3 14 5 5 0 0 0 0 0 13 11
0 0 0 3 39 45 30 36 45 49 82 60 37 42 42 40
66 90 40 28 36 44 66 53 38 25 6 1 0 0 3 33
87 99 108 109 110 112 114 116 121 121 123 127 124 122 120 120
117 112 110 105 101 98 95 92 83 23 7 32 38 34 32 23
24 21 18 39 19 18 17 17 54 51 40 54 46 35 32 36
37 84 107 78 58 66 60 44 61 64 40 33 41 45 21 13
5 5 1 2 0 0 0 0 0 0 0 0 0 0 0 0
0 0 0 0 0 0 0 0 0 0 0 0 0 0 1 4
0 0 7 32 62 68 50 47 37 33 51 53 39 43 48 60
58 95 51 45 54 72 72 55 38 55 25 21 4 0 20 47
85 89 93 102 108 112 116 117 120 122 126 126 123 123 121 119
116 113 108 104 97 95 94 90 47 9 26 42 35 28 35 24
26 18 18 40 23 20 19 14 50 12 55 94 47 34 39 36
40 75 51 30 41 44 55 90 117 69 38 35 34 35 42 25
8 6 0 2 0 0 0 0 0 0 0 0 0 0 0 0
0 0 0 0 0 0 0 0 0 0 0 0 0 0 0 0
0 16 48 62 69 52 28 30 34 34 38 53 38 56 39 37
34 67 21 23 37 44 38 27 28 70 36 40 24 2 35 78
93 93 89 94 102 111 118 124 128 127 124 125 124 123 122 117
112 108 104 101 98 97 95 69 17 29 49 37 28 30 28 24
31 17 17 46 21 20 22 18 55 20 23 35 47 55 37 37
40 70 39 33 33 39 39 72 65 46 76 71 43 31 30 58
52 8 1 2 0 0 0 0 0 0 0 0 0 0 0 0
0 0 0 0 0 0 0 0 0 0 0 0 0 0 0 3
26 54 45 37 32 34 25 30 54 33 31 35 41 58 36 37
44 70 20 15 25 33 42 27 30 58 50 40 33 20 10 89
103 101 95 98 107 116 126 128 126 125 126 126 124 122 119 115
112 106 104 102 99 97 85 27 15 59 69 59 20 36 32 28
28 16 14 50 24 23 23 22 55 16 21 24 33 72 29 30
36 73 50 38 44 41 43 80 53 35 35 38 59 58 48 55
63 30 3 2 0 0 0 0 0 0 0 0 0 0 0 0
6 5 4 5 4 2 0 0 0 0 0 0 0 0 10 64
51 30 28 54 32 30 28 30 60 30 32 40 53 68 40 39
47 63 21 16 27 41 43 28 27 44 67 38 65 65 13 38
107 104 99 101 110 117 122 126 126 126 127 126 124 121 118 113
109 105 102 103 104 98 46 11 39 70 57 51 25 44 54 54
30 24 22 69 23 20 20 26 50 19 22 30 37 79 29 33
37 36 83 30 34 35 45 76 30 34 33 39 46 58 90 41
26 48 25 4 0 0 0 0 0 0 0 0 0 0 0 0
0 0 1 0 0 1 1 0 0 0 0 0 0 13 52 61
31 29 27 56 32 34 26 35 59 33 35 43 57 70 40 40
50 60 29 20 25 47 37 28 28 34 81 70 61 50 34 11
75 111 106 103 106 116 122 126 125 123 125 124 123 118 114 110
105 106 106 107 106 79 17 29 91 44 36 31 33 36 60 72
51 43 42 99 44 33 29 26 48 21 21 28 53 67 29 33
37 36 79 30 33 48 70 89 46 41 41 60 69 61 64 53
28 29 54 18 1 0 0 0 0 0 0 0 0 0 0 0
9 8 7 7 7 7 6 4 2 1 0 0 7 49 45 68
67 64 68 104 57 69 63 59 54 34 29 38 60 60 41 39
43 52 30 22 17 49 29 25 25 39 100 81 36 37 46 23
28 99 111 105 106 112 118 121 121 120 121 122 120 116 112 109
105 105 106 109 98 38 17 45 64 39 34 26 28 25 59 27
30 29 24 77 46 55 56 56 75 31 31 39 64 79 44 45
41 43 94 48 55 74 96 117 76 73 73 85 96 59 46 40
51 26 43 42 10 0 0 0 0 0 0 0 0 0 0 0
5 5 6 5 6 6 5 5 4 4 2 2 47 61 82 58
52 64 56 94 59 59 50 74 65 56 45 48 71 62 41 39
46 62 47 50 43 66 27 31 34 51 90 58 39 39 45 28
17 51 112 109 101 102 108 112 112 114 116 119 119 116 112 108
106 105 110 107 60 22 39 63 51 32 32 32 24 41 58 16
18 16 13 55 18 29 38 52 87 51 58 70 91 99 74 75
75 80 124 69 53 47 72 77 51 58 65 61 46 44 65 51
57 30 23 56 41 4 0 0 0 0 0 0 0 0 0 0
7 7 7 6 7 5 5 4 3 2 5 40 71 39 71 27
27 36 40 64 31 37 40 73 39 34 45 66 110 89 72 69
78 97 61 61 61 80 42 49 56 52 49 54 47 43 47 34
19 32 74 115 107 97 98 102 107 113 116 118 118 117 114 109
106 108 110 85 42 32 54 67 42 35 42 28 26 63 52 19
23 19 14 56 19 22 21 27 49 29 34 46 62 70 46 46
56 68 97 35 31 33 50 58 32 32 37 44 31 25 45 83
68 39 21 37 103 36 0 0 0 0 0 0 0 0 0 0
8 8 8 7 7 7 6 4 3 2 16 76 39 37 73 24
35 43 52 64 35 38 45 77 43 34 32 28 78 52 56 61
65 86 42 35 42 44 22 22 26 35 44 66 45 39 35 29
36 23 45 92 118 110 103 103 107 112 115 118 119 117 114 108
107 107 91 67 50 47 59 33 39 28 37 26 52 48 49 20
21 19 14 59 21 23 26 43 35 20 22 31 47 56 31 30
34 44 71 32 33 35 54 62 36 35 39 47 27 20 26 90
69 52 35 58 71 57 7 0 0 0 0 0 0 0 0 0
10 9 9 8 6 6 5 4 3 2 23 71 23 43 74 21
33 42 63 60 35 40 45 73 45 40 33 30 61 31 38 36
38 75 32 33 49 32 26 20 18 37 42 69 41 34 3 18
47 15 34 56 99 120 114 109 109 111 115 117 120 117 116 113
112 93 71 77 50 45 72 0 25 35 56 50 58 20 47 21
20 22 15 56 24 21 21 49 32 24 25 34 50 59 35 33
38 46 68 32 31 32 52 58 34 32 36 53 26 21 47 72
46 75 61 51 40 41 24 2 0 0 0 0 0 0 0 0
11 11 10 9 8 7 4 3 3 4 45 77 29 44 67 21
33 41 62 55 34 40 39 67 49 43 38 33 59 31 39 40
39 83 38 33 49 33 27 22 14 45 34 58 41 4 0 35
61 51 23 47 73 108 125 122 117 114 115 118 120 122 120 116
103 69 77 82 68 84 47 0 19 34 44 104 53 13 54 19
17 17 13 49 23 23 22 47 30 24 26 33 47 63 32 31
34 40 65 34 30 35 53 60 35 34 37 69 29 15 78 39
26 69 74 34 25 28 39 17 0 0 0 0 0 0 0 0
11 11 10 9 8 6 4 2 2 15 48 69 48 44 86 36
30 38 64 65 42 43 48 76 42 41 40 33 53 27 36 37
39 83 34 32 45 34 29 24 17 43 26 58 46 0 3 58
47 60 42 41 62 80 107 123 119 116 114 114 120 125 122 114
82 70 85 84 82 82 7 1 49 19 47 73 48 38 93 47
32 28 23 57 18 18 21 47 36 28 29 35 48 62 34 33
36 42 61 32 30 30 50 57 31 32 32 58 35 24 70 26
20 37 72 38 35 29 45 33 11 0 0 0 0 0 0 0
5 12 11 10 8 7 6 2 3 32 31 45 67 35 95 52
50 64 93 95 71 73 71 120 67 70 68 74 80 23 29 35
41 80 33 34 40 43 26 24 19 39 18 45 20 0 4 59
53 35 49 43 59 77 90 111 129 129 123 119 122 127 125 100
68 81 81 46 43 37 2 23 24 33 53 24 41 35 89 48
46 43 47 87 37 27 30 45 42 26 29 35 50 54 31 27
33 37 72 42 36 39 60 68 46 45 42 78 50 44 39 29
23 26 58 75 39 39 27 37 20 2 0 0 0 0 0 0
