P2
128 120
149
44 39 40 39 39 37 37 38 38 39 38 38 37 37 37 37
37 37 37 37 36 36 36 35 35 34 34 34 34 34 33 33
32 32 31 31 31 31 30 29 29 29 28 27 27 27 27 26
26 25 25 24 24 24 24 23 23 22 22 21 21 20 19 19
18 18 19 20 22 22 22 21 16 8 8 21 20 19 19 18
17 17 16 15 15 12 15 15 17 17 18 18 18 18 18 19
19 20 20 21 20 20 20 21 21 21 22 21 21 21 22 22
23 24 24 25 25 26 27 27 27 28 27 28 28 27 28 28
57 59 57 56 52 48 49 50 54 56 57 51 37 37 37 36
36 36 36 35 35 35 35 35 35 34 34 34 34 34 32 32
32 32 31 31 30 30 30 30 29 28 28 28 28 27 27 26
25 25 25 25 24 24 23 23 23 22 21 21 21 21 20 19
19 19 19 19 22 22 22 21 16 13 13 21 21 20 20 19
18 17 16 16 15 13 14 15 18 18 17 18 18 19 18 19
20 20 20 21 20 21 21 21 21 21 21 21 23 22 23 24
24 25 26 25 26 26 26 26 27 27 28 28 28 28 28 28
50 53 42 34 34 36 38 38 38 39 53 55 47 43 39 38
36 36 36 35 35 36 35 35 34 34 34 33 33 33 33 32
32 32 32 31 31 30 31 30 30 29 29 28 27 27 27 26
25 25 25 24 25 24 24 24 23 22 22 21 21 20 20 19
19 19 19 20 23 22 23 22 17 14 14 21 21 20 19 19
18 18 17 16 16 14 16 16 18 19 18 19 19 19 19 20
19 19 20 20 20 20 20 21 21 22 23 23 23 23 24 24
25 24 25 25 26 26 26 27 27 28 28 28 28 28 28 28
44 47 18 0 0 0 1 0 0 0 40 53 52 53 52 43
39 38 39 38 37 36 35 35 35 34 34 33 33 33 33 33
33 32 31 31 31 31 30 30 29 29 28 28 28 27 27 26
27 26 26 26 25 25 24 24 23 22 23 22 21 21 21 20
20 20 19 20 23 23 22 22 17 15 15 21 22 21 21 20
19 19 18 17 17 15 16 16 18 19 19 19 20 20 20 20
20 20 20 20 21 21 21 22 22 22 23 23 24 23 24 25
25 25 26 26 27 27 27 27 28 28 28 28 28 29 28 29
41 44 19 0 0 0 9 0 0 0 33 49 46 41 25 30
37 41 48 50 50 47 41 34 34 34 34 34 33 33 33 32
32 31 31 31 31 30 30 30 30 28 29 28 27 27 26 26
26 26 25 25 25 25 24 24 23 23 22 22 22 21 20 20
19 19 20 21 23 23 23 23 18 16 16 18 21 21 20 19
18 19 18 17 17 15 16 17 19 19 19 20 20 20 20 20
20 20 21 21 21 21 21 22 22 23 23 23 23 23 24 24
25 25 25 26 26 26 27 27 28 28 29 28 28 28 28 28
40 44 22 0 0 0 5 0 0 0 26 49 45 34 0 0
4 10 18 25 34 47 44 33 34 34 34 34 33 33 33 33
33 32 32 31 31 31 30 30 30 29 29 28 28 28 27 27
27 27 26 26 26 25 24 24 23 23 23 22 22 21 21 21
21 20 20 21 24 24 24 23 18 16 18 17 23 22 21 21
20 19 19 18 18 16 16 16 18 19 19 20 20 21 20 21
21 21 21 22 22 21 22 22 22 23 23 24 24 24 24 25
25 25 26 26 26 26 27 28 27 27 29 27 28 28 29 29
38 42 23 0 0 1 4 0 0 0 22 49 46 33 0 0
0 0 0 0 4 43 45 34 34 34 34 34 34 33 32 32
32 32 32 32 31 30 31 31 30 30 30 29 28 28 28 27
27 26 26 26 26 25 25 25 24 24 24 23 23 22 22 21
21 20 20 20 24 25 24 23 19 16 20 17 23 22 22 21
20 20 19 18 18 17 16 17 20 20 20 21 21 21 21 21
22 22 21 22 22 22 22 23 24 23 24 25 24 24 25 25
25 26 25 26 27 26 27 27 27 28 29 28 29 29 29 28
36 43 30 0 6 6 3 2 0 1 16 48 44 33 0 0
0 0 0 0 2 42 45 34 34 34 34 34 33 33 33 33
33 32 32 31 31 31 30 30 30 29 29 29 29 29 28 28
27 27 27 26 26 26 25 25 25 24 23 23 22 22 22 21
21 21 22 21 25 25 25 24 19 17 21 17 23 22 22 21
21 21 21 19 19 18 16 18 20 20 21 21 21 22 21 21
21 22 22 22 22 22 22 23 23 24 24 25 25 25 25 25
25 25 26 27 27 27 28 27 27 27 28 27 27 28 28 29
37 46 37 0 15 4 0 0 0 0 13 48 44 34 0 0
5 6 0 0 1 41 45 34 34 34 34 34 33 33 33 32
32 31 32 31 31 31 31 30 30 29 30 29 28 28 28 27
27 26 26 26 26 26 25 25 25 25 24 23 23 22 23 22
21 20 21 21 24 24 24 24 19 17 21 16 23 22 22 22
20 20 20 19 18 18 15 18 20 20 21 21 21 22 22 22
22 22 22 23 22 23 23 23 24 24 24 25 25 25 25 26
26 26 26 27 26 26 26 26 26 27 28 28 29 28 29 29
37 46 43 3 11 1 0 0 0 1 11 48 46 35 0 2
8 6 0 0 1 40 44 34 34 34 34 33 33 33 33 33
33 32 32 32 32 31 31 30 30 30 30 29 29 29 28 28
27 27 28 27 27 26 26 25 25 24 24 24 24 23 23 22
22 21 21 22 25 26 25 25 20 18 23 17 23 22 22 22
21 21 21 20 20 19 17 19 21 21 21 22 22 22 22 22
23 23 22 23 23 24 24 24 25 25 25 25 25 25 25 25
25 25 26 26 27 27 29 29 29 29 29 28 29 29 29 29
34 43 46 8 6 0 0 0 0 0 8 45 45 35 0 0
1 4 1 0 1 40 44 34 34 34 34 33 33 33 33 33
33 32 31 32 31 31 31 31 31 30 30 30 29 29 29 28
28 28 27 27 27 26 26 26 25 25 25 24 24 23 23 22
22 21 21 22 25 25 25 25 20 17 23 17 23 23 23 23
22 21 21 19 20 19 16 19 21 22 22 22 22 23 22 23
23 23 23 23 23 24 24 24 25 25 25 25 25 25 25 26
27 27 27 27 28 28 29 28 29 28 29 29 29 29 29 29
33 35 41 9 5 0 0 0 0 0 5 41 44 36 1 0
0 7 7 0 1 39 43 34 34 34 33 33 33 33 32 32
33 32 31 31 32 31 31 31 31 30 30 30 29 28 29 28
28 28 28 27 27 27 26 26 25 26 25 23 24 23 23 23
22 22 22 22 25 26 26 26 21 18 24 18 23 24 23 22
22 20 20 20 20 19 17 20 21 23 23 22 23 23 23 24
23 24 24 24 24 24 24 24 24 25 25 25 25 26 25 26
26 27 27 28 28 28 29 29 29 29 29 30 29 29 30 29
35 30 35 21 19 20 24 23 23 24 26 35 42 40 2 0
1 1 5 0 0 37 42 34 33 34 33 33 33 33 33 33
32 32 32 32 31 30 31 30 30 29 30 30 30 29 28 28
28 28 28 28 28 26 26 25 25 25 25 23 23 23 22 22
22 22 22 22 24 26 26 25 21 18 23 19 22 25 24 23
23 21 21 21 20 19 16 20 21 22 22 22 23 24 23 24
24 24 24 24 24 24 24 24 25 25 25 26 26 26 26 26
26 27 28 28 28 28 28 28 28 28 29 29 29 29 30 29
28 27 29 28 27 27 28 26 26 26 26 25 36 38 7 1
1 1 4 5 7 39 42 34 34 33 33 33 33 33 32 32
32 32 32 32 32 31 31 31 31 30 30 30 29 29 29 29
29 28 28 29 26 25 26 26 25 26 26 24 25 25 23 23
22 22 22 22 25 26 27 26 22 17 24 21 21 25 24 23
22 21 21 21 21 20 17 21 22 23 23 23 23 23 23 23
23 23 23 23 25 24 25 25 26 25 26 26 26 26 26 27
26 27 28 29 28 29 29 29 29 29 29 28 29 29 29 29
14 15 16 17 18 19 20 22 26 29 30 29 31 34 32 30
26 22 18 15 18 39 41 34 34 34 34 33 34 33 33 33
32 32 32 32 32 31 31 31 31 30 30 30 30 30 29 29
29 28 27 27 27 28 27 26 26 27 27 26 25 26 25 24
22 23 22 22 24 25 26 26 22 18 23 23 21 25 25 24
23 22 22 21 22 21 17 21 21 23 23 23 23 23 24 24
24 24 24 25 25 24 26 26 25 25 26 26 26 27 26 27
28 28 29 29 29 28 29 29 29 29 29 29 29 29 29 29
14 13 13 13 13 14 13 14 17 20 23 25 21 20 22 25
27 29 33 34 36 38 37 33 34 34 34 33 33 33 32 32
32 32 31 31 31 31 31 31 31 30 30 30 30 29 29 29
27 27 28 27 28 28 30 30 28 30 28 26 26 27 28 26
27 24 24 25 25 26 26 27 23 18 24 25 19 25 25 23
23 22 21 21 21 20 17 21 21 23 24 23 24 24 24 24
24 24 24 25 26 25 25 25 26 26 26 26 26 27 27 27
28 27 28 28 28 29 29 29 28 29 29 29 29 30 30 29
17 13 14 13 12 12 12 13 14 14 14 14 14 14 15 17
19 21 25 27 30 32 34 34 34 34 34 34 34 33 33 33
33 32 32 32 31 31 31 31 30 30 30 30 29 30 30 30
31 29 29 34 32 35 34 29 27 26 30 28 30 29 31 32
29 24 22 23 25 28 27 26 24 19 24 27 18 25 25 25
24 23 22 22 22 21 18 22 22 24 24 24 24 24 24 24
25 25 25 26 27 26 25 26 26 26 26 26 27 27 28 27
28 28 29 29 29 29 29 29 29 29 28 28 29 29 29 29
32 30 23 23 14 14 13 15 17 15 16 14 13 13 13 13
13 12 14 15 17 20 24 27 30 32 34 34 34 34 33 33
32 32 31 32 31 31 31 32 31 31 31 30 30 31 31 31
28 25 30 34 38 37 29 25 21 22 20 23 29 29 33 30
28 27 22 21 23 23 28 28 24 19 25 28 20 25 25 25
24 23 22 22 22 22 19 23 23 25 25 25 24 25 25 25
25 25 26 25 26 26 26 26 26 26 27 27 27 27 28 27
28 28 28 29 28 28 29 29 30 29 29 28 28 28 27 28
20 30 29 42 42 39 34 30 32 31 31 33 35 23 12 13
13 13 13 12 13 13 13 14 15 15 19 22 25 28 30 32
33 33 32 32 32 31 31 31 31 31 30 31 31 31 30 29
25 28 33 38 32 28 20 16 13 15 17 18 17 25 36 34
27 18 20 17 18 20 20 24 25 20 24 28 21 24 26 25
25 24 23 23 23 23 19 23 23 24 24 24 25 25 25 25
25 26 26 27 27 27 26 27 27 27 27 27 28 28 28 28
28 28 29 29 29 29 29 29 29 29 29 29 29 30 30 29
14 16 17 36 14 9 10 17 28 29 30 41 53 43 30 25
22 21 20 19 17 15 14 14 14 14 15 14 12 10 14 29
33 32 33 32 32 32 32 31 31 31 32 31 31 32 27 19
28 32 32 32 37 34 29 23 17 16 13 18 14 17 26 30
29 30 24 21 18 17 17 19 22 23 25 29 22 24 27 26
25 24 23 23 22 23 19 23 23 25 25 25 25 26 26 26
26 26 26 27 27 27 27 27 27 27 28 28 28 28 28 28
28 28 28 27 28 28 29 29 29 29 28 30 30 29 29 29
14 15 17 35 9 0 0 11 31 30 33 40 48 49 47 46
38 45 45 41 38 25 19 19 17 13 13 14 13 9 13 27
33 33 33 33 32 31 32 32 32 32 31 31 32 24 17 23
35 33 38 37 35 30 26 26 26 23 12 10 15 10 23 22
29 37 33 30 27 23 18 17 22 21 26 28 22 24 26 25
25 24 24 24 23 23 20 24 23 26 25 25 26 25 26 26
26 27 26 27 28 28 28 28 28 27 27 28 28 28 28 28
28 27 28 28 28 28 29 28 29 29 29 30 29 29 29 29
16 16 17 36 10 0 0 6 17 20 22 35 45 50 51 49
44 43 47 47 45 31 29 35 36 30 30 25 19 12 13 26
33 32 33 32 32 37 36 36 35 32 32 33 25 14 21 29
36 44 39 28 21 17 20 21 19 17 18 6 7 9 15 17
28 38 32 28 32 30 25 18 15 18 25 27 24 22 27 27
26 25 25 24 24 24 21 24 24 25 26 26 27 26 26 27
27 27 27 27 27 27 26 26 27 27 28 29 29 27 29 28
29 28 28 29 28 28 29 29 29 28 29 31 29 29 30 29
18 15 18 39 11 0 0 5 4 0 0 27 45 40 29 36
33 37 43 46 47 36 35 39 41 36 44 44 39 15 15 28
33 34 33 33 34 42 41 41 37 35 35 33 16 17 25 40
44 36 28 15 10 13 14 15 22 21 14 8 4 8 11 20
21 28 30 27 15 15 22 27 18 15 21 24 23 20 27 26
26 26 26 24 24 23 22 24 24 27 27 26 27 27 27 27
26 27 27 26 28 28 28 27 28 28 28 29 30 28 28 28
29 28 29 28 29 28 29 29 29 30 29 31 29 30 30 30
3 3 7 39 11 0 0 16 15 0 0 26 46 30 0 13
2 6 11 15 30 36 37 41 42 43 46 46 44 18 16 30
36 34 34 33 33 42 43 40 39 39 35 20 17 22 42 40
34 24 16 20 21 15 10 14 16 19 10 7 6 8 16 17
14 17 19 12 10 8 11 19 28 17 16 26 24 18 27 27
27 27 26 25 24 25 22 24 24 26 26 27 27 26 27 27
27 27 28 28 28 28 28 28 28 28 28 28 29 28 29 29
29 29 29 29 29 29 29 29 29 29 29 30 29 30 30 30
0 0 4 39 12 5 7 24 32 12 0 27 46 31 0 0
0 0 4 3 16 38 38 40 42 44 45 46 45 21 16 31
37 35 36 36 36 37 30 37 41 37 25 17 22 37 41 32
26 21 29 21 14 13 12 11 16 14 15 10 9 8 14 11
7 9 10 19 26 21 15 12 21 28 18 21 29 20 26 28
25 25 26 25 25 25 23 24 23 26 26 27 28 27 28 28
28 28 28 28 28 28 28 28 28 29 29 29 30 29 29 29
28 29 29 29 29 29 30 30 29 30 30 31 31 30 30 29
0 0 3 41 14 5 16 29 23 21 4 22 48 34 0 0
0 0 15 10 19 35 24 30 36 42 44 44 43 22 16 32
39 32 33 38 42 29 0 8 24 35 21 24 30 44 38 26
23 27 22 18 12 10 16 13 15 16 18 17 21 20 18 18
14 7 3 11 18 26 27 17 14 27 28 19 32 30 24 27
27 26 27 25 25 25 24 24 24 27 27 27 28 28 29 28
29 28 29 29 28 29 29 28 28 28 28 29 30 29 29 29
30 30 29 30 30 30 30 30 30 30 30 31 30 30 30 30
0 0 5 43 15 1 11 25 21 15 2 20 48 38 0 0
0 0 13 9 20 33 1 3 7 13 19 20 36 24 16 27
36 37 36 39 44 31 0 4 25 27 21 24 38 40 31 23
26 15 15 22 17 6 6 18 15 22 25 27 31 36 33 34
33 24 10 8 4 8 18 29 26 20 32 21 24 30 27 26
27 26 27 26 25 25 24 25 25 28 29 29 28 28 29 28
28 28 28 28 28 28 29 29 29 29 29 29 31 30 30 30
29 29 30 29 29 30 29 30 30 30 30 31 30 30 30 30
0 0 5 45 18 0 0 6 7 1 0 19 50 41 1 0
0 0 1 0 17 32 0 0 0 0 0 0 24 25 15 6
7 13 22 32 38 32 0 10 31 22 21 30 48 36 26 32
19 15 22 14 10 15 14 22 31 42 47 49 50 52 56 56
57 50 37 20 7 0 3 18 31 32 25 26 25 21 27 27
28 27 27 26 26 25 24 24 24 27 28 28 28 28 29 28
29 29 29 28 29 29 29 29 30 29 30 29 30 29 30 30
30 30 30 31 30 30 31 30 30 31 30 31 30 31 31 30
0 0 2 36 19 0 0 0 0 0 0 17 50 43 2 0
0 3 2 0 16 32 1 0 0 0 0 0 25 25 15 3
0 0 0 0 3 18 4 34 33 23 23 44 50 36 30 27
18 16 6 9 13 20 33 46 69 81 81 76 76 80 87 85
88 83 74 63 35 4 0 3 22 28 28 22 25 23 21 29
28 27 26 26 26 26 24 24 25 28 29 28 29 29 30 28
28 29 28 28 28 29 29 28 29 29 29 30 31 30 30 30
31 30 30 31 30 30 30 30 30 30 30 30 30 31 32 31
0 0 3 36 21 0 0 0 0 0 0 15 50 45 4 1
12 14 10 0 15 32 1 1 7 9 0 0 23 26 15 3
0 0 0 0 0 13 17 53 29 24 30 61 48 34 38 23
12 7 16 31 42 55 79 101 114 114 112 110 111 113 114 114
114 110 106 97 80 39 2 0 7 25 23 26 26 23 20 22
27 27 25 26 26 26 24 24 26 28 29 28 28 28 29 28
28 28 28 29 29 28 29 29 30 29 30 30 30 29 29 29
30 30 31 30 30 30 30 29 30 30 31 31 31 30 30 30
0 0 4 37 29 13 11 11 10 8 7 19 49 47 7 0
1 3 4 0 15 32 2 2 2 15 0 0 22 25 15 3
0 0 0 0 0 16 27 37 40 27 44 67 43 38 36 19
14 23 44 59 73 91 117 129 135 136 136 135 132 132 130 125
120 117 116 109 100 81 26 1 1 25 23 21 20 25 25 13
22 26 25 26 25 25 24 23 26 28 28 28 27 29 29 28
28 29 28 28 29 29 29 29 29 29 30 30 30 29 29 29
30 30 30 30 30 30 30 29 30 29 30 30 30 30 31 30
0 0 3 37 47 45 42 40 38 35 31 31 36 33 5 0
4 5 0 0 14 31 0 1 0 2 0 0 22 25 15 4
0 0 8 2 0 15 26 51 41 29 61 57 42 46 36 18
23 36 55 68 84 110 128 134 136 137 137 136 134 132 131 127
122 119 116 109 101 92 68 14 0 18 22 16 18 26 20 10
13 23 24 25 26 26 25 24 26 28 29 28 28 28 29 28
28 28 29 29 29 30 30 30 30 30 30 29 29 30 29 29
30 30 30 31 31 31 31 30 30 30 30 31 30 30 31 30
0 0 2 41 44 31 33 32 35 39 38 30 23 16 3 1
2 5 0 0 14 28 0 2 1 0 0 0 22 25 15 4
6 4 4 0 0 10 33 53 35 39 63 50 47 54 33 21
27 42 60 75 98 123 134 137 137 138 137 136 136 134 133 129
124 120 118 111 103 94 86 43 3 10 21 12 15 26 25 11
7 14 22 25 26 26 25 24 25 28 29 28 29 29 29 29
30 29 29 30 30 29 29 29 30 29 29 29 29 29 29 30
31 31 31 31 31 31 30 31 31 31 31 31 31 31 30 30
0 0 2 44 29 0 0 2 4 10 16 32 32 35 38 35
32 30 24 19 27 33 4 3 4 2 0 0 23 25 16 7
6 0 1 3 0 10 41 48 36 45 52 51 55 61 31 23
30 50 68 88 111 130 137 137 137 138 138 136 137 135 134 131
125 120 119 116 109 96 90 82 18 4 17 11 11 19 23 16
5 2 17 22 25 27 25 24 27 29 29 29 29 29 29 30
29 30 31 30 30 31 30 30 30 31 31 30 30 30 30 31
31 30 31 32 32 31 31 30 30 30 30 30 29 28 30 29
0 0 3 42 31 0 0 0 0 0 0 16 46 32 20 25
30 37 40 42 38 47 40 25 30 29 29 25 33 22 15 6
0 0 0 0 1 16 39 38 39 41 40 60 62 50 30 25
33 55 68 98 123 135 137 136 137 137 137 136 136 135 135 132
126 122 122 119 111 101 95 90 52 2 10 7 5 8 23 13
7 0 3 18 26 26 25 23 26 27 29 28 28 29 29 29
30 30 30 29 29 31 30 29 30 29 29 30 29 29 29 30
30 29 30 30 30 29 29 29 27 27 26 24 22 19 17 14
0 0 6 43 33 3 0 0 4 4 0 13 49 32 11 8
16 14 11 11 43 57 47 30 39 44 44 43 42 22 14 6
0 0 0 0 1 16 29 36 27 31 31 61 61 46 31 28
38 55 82 115 133 138 138 138 137 137 137 137 137 137 136 134
131 128 124 122 116 110 103 97 82 20 4 6 5 4 21 8
8 0 1 19 25 25 25 23 26 28 29 29 29 29 28 28
29 28 29 28 28 30 29 29 29 30 30 30 30 30 30 31
31 30 29 28 26 23 24 29 17 13 13 12 12 12 13 14
2 1 19 42 31 8 10 2 15 8 0 12 48 32 5 6
7 5 2 3 46 54 38 30 40 43 45 47 46 24 16 14
8 4 1 1 8 12 18 18 16 24 23 57 65 43 32 30
43 58 98 125 138 138 138 139 138 137 138 138 137 137 136 136
134 132 126 124 120 112 108 101 96 60 5 6 6 1 15 6
1 2 0 9 25 26 25 23 27 28 29 28 28 29 28 28
29 29 29 28 28 30 30 29 30 30 30 30 29 27 24 22
19 17 15 15 14 13 15 29 13 12 16 17 17 18 19 20
0 4 28 44 29 19 23 8 12 6 0 11 47 29 0 1
1 0 0 4 45 48 21 11 21 24 27 31 40 24 16 27
41 39 31 10 6 7 13 8 14 17 19 42 50 42 34 33
45 67 106 133 139 140 139 139 138 138 139 139 138 138 138 137
135 134 131 129 126 118 110 102 100 91 30 3 7 1 9 7
0 0 0 1 20 26 25 23 28 28 29 28 28 28 28 27
26 26 28 29 29 29 27 15 19 22 20 17 15 15 14 14
15 16 16 17 18 18 17 25 14 18 22 24 24 25 25 25
8 11 38 48 26 8 4 0 14 19 2 11 45 27 0 0
0 0 0 3 42 48 16 0 0 0 0 1 23 26 17 28
46 47 37 5 3 4 7 5 12 13 13 32 40 38 38 43
48 73 117 140 140 140 139 138 138 138 138 138 138 138 138 137
138 137 131 130 129 122 110 103 101 101 71 8 6 1 5 7
0 0 0 0 9 24 25 23 25 25 26 26 26 25 25 25
23 15 23 22 20 16 7 6 15 16 16 17 17 19 20 21
21 22 23 24 25 24 22 28 19 23 26 26 27 27 28 28
38 36 37 48 39 24 19 19 24 13 3 13 46 27 3 11
0 0 0 1 39 49 16 0 0 0 0 1 21 27 16 25
44 43 21 1 0 2 8 5 8 8 9 24 40 35 43 49
57 85 127 140 139 139 139 139 139 139 139 139 139 138 138 138
137 136 126 128 129 120 112 105 105 104 96 36 5 1 4 6
0 0 1 1 1 17 22 22 24 25 25 23 22 21 19 18
16 13 16 16 14 8 11 20 21 22 23 24 24 24 25 26
27 27 27 28 28 27 20 10 9 26 29 29 30 30 29 30
37 30 5 37 46 34 20 42 37 10 0 14 50 32 10 21
0 0 0 0 33 46 14 0 0 0 16 23 27 31 24 26
33 19 2 1 1 2 3 3 4 6 4 17 35 31 47 57
68 95 131 140 140 140 139 139 139 139 139 138 138 138 138 138
137 136 129 127 125 118 110 108 107 107 102 74 8 1 3 4
0 0 0 0 0 6 14 14 17 17 16 17 17 17 18 19
20 20 21 17 15 14 24 26 27 27 27 28 28 28 28 28
29 29 29 29 29 28 17 2 1 24 30 31 31 30 30 31
28 20 0 25 43 31 7 37 35 11 0 14 51 34 3 14
1 0 0 0 29 42 12 0 0 0 18 26 25 28 23 23
21 8 0 0 1 1 2 1 4 4 6 14 28 28 52 67
75 99 135 140 140 140 140 139 139 139 139 139 139 138 139 138
138 135 130 127 123 115 111 110 110 110 105 94 30 1 2 3
0 0 0 0 0 2 15 12 15 14 18 20 21 23 24 25
26 26 22 16 27 17 28 28 28 29 29 29 30 30 30 30
27 27 20 12 7 15 16 4 1 22 31 32 32 31 32 31
35 29 6 18 39 22 0 30 23 9 0 13 51 35 0 3
1 0 0 0 32 42 10 0 1 0 6 13 19 24 22 22
21 9 1 1 0 1 2 2 3 2 6 11 20 31 55 73
80 112 140 140 140 140 140 140 140 139 139 139 139 138 138 138
137 135 134 127 121 116 112 113 114 113 107 96 58 1 2 3
1 0 0 0 0 1 18 16 21 18 24 25 25 26 27 27
27 26 16 28 30 20 10 12 13 7 12 25 30 27 27 17
1 1 2 1 0 15 17 0 0 22 30 31 32 31 31 31
33 37 21 9 21 20 2 18 15 0 0 13 50 34 0 0
0 0 0 0 34 43 10 0 3 0 0 0 8 18 19 19
9 3 4 1 1 1 2 4 0 1 5 9 20 33 63 73
87 131 141 140 140 140 140 139 140 139 140 140 139 139 139 138
137 137 134 129 123 116 111 113 113 112 107 97 78 13 0 3
0 0 0 0 0 0 19 21 23 21 27 28 27 28 29 27
28 19 22 19 28 24 0 0 0 0 7 11 11 0 0 0
1 1 0 0 0 10 21 0 0 22 31 31 32 31 32 31
1 5 1 0 0 8 17 5 2 5 9 19 46 30 0 0
0 0 0 1 37 43 9 0 2 4 0 0 11 25 25 20
3 0 1 1 2 3 7 1 0 1 6 4 19 38 74 75
109 141 141 140 140 140 140 140 140 140 140 139 139 138 138 138
136 137 135 134 124 118 114 112 111 108 106 96 85 38 0 2
0 0 0 0 0 0 16 23 26 25 29 29 29 29 29 29
23 7 2 0 9 30 2 0 0 0 0 0 0 0 0 0
0 15 0 0 0 4 24 3 2 24 31 32 32 31 31 32
9 0 0 0 0 0 0 5 3 16 40 41 43 33 17 13
9 6 4 4 38 43 11 0 0 8 0 0 11 33 27 21
2 1 2 4 5 7 5 1 3 3 6 2 20 50 88 92
126 141 140 140 140 140 140 140 139 140 140 139 139 139 139 137
137 138 138 134 128 121 117 114 110 105 103 97 92 67 5 0
0 0 0 0 0 0 13 23 26 27 30 29 30 30 30 29
11 9 21 8 1 2 0 0 0 0 0 0 0 0 0 0
0 0 0 0 0 5 25 11 9 26 31 32 33 31 31 32
7 0 0 2 1 1 9 29 34 30 45 47 45 40 44 40
29 33 32 27 34 36 18 1 0 10 7 1 9 34 26 21
3 2 2 4 9 8 6 6 6 5 5 2 23 65 88 106
132 140 141 140 141 141 141 140 140 140 140 140 139 138 138 138
138 138 138 137 132 125 118 115 111 104 100 96 93 79 19 0
0 0 0 0 0 0 18 23 27 27 30 30 30 29 29 24
10 27 20 17 27 27 25 25 24 25 23 10 18 4 0 0
0 0 0 0 0 13 24 21 23 29 32 32 33 32 32 31
8 0 0 10 31 29 40 40 47 47 46 48 49 43 21 14
9 11 16 14 21 32 30 28 22 24 25 20 22 35 23 21
9 9 7 8 8 8 7 8 9 8 3 6 27 75 90 115
137 140 141 141 140 141 140 140 140 139 139 140 139 139 139 139
139 138 139 138 135 129 120 117 111 105 98 94 93 81 44 0
0 0 0 0 0 10 23 24 27 28 31 30 30 30 28 9
14 17 28 31 31 31 31 31 31 31 30 23 3 0 0 0
0 8 11 10 13 27 26 25 28 31 31 31 32 31 31 31
35 17 14 28 44 42 35 26 43 37 25 29 35 36 3 0
0 0 11 10 18 33 30 23 22 30 35 39 41 39 25 19
6 8 6 7 8 6 11 11 10 7 4 11 36 81 111 115
137 141 141 140 140 140 139 140 139 140 140 140 139 139 139 139
139 137 136 137 135 127 119 116 110 106 97 92 92 81 63 3
0 0 0 0 5 20 26 24 27 27 31 31 30 30 14 18
31 31 31 31 31 31 31 31 31 31 29 3 0 1 0 0
0 28 30 30 29 29 28 27 30 32 32 31 33 32 32 32
47 46 45 46 46 41 21 1 16 10 0 0 4 34 4 0
2 4 7 11 24 34 27 4 0 6 10 21 42 39 25 21
5 1 2 2 9 12 13 13 7 4 8 22 50 100 112 125
137 141 141 141 141 140 140 140 140 140 140 139 140 139 139 138
134 131 127 130 124 118 111 108 102 101 97 93 90 81 72 12
4 0 0 0 0 14 28 25 28 28 31 30 30 22 11 30
31 31 31 31 31 31 32 31 31 31 29 3 0 3 9 0
0 28 31 31 30 30 29 29 31 30 31 30 30 31 31 31
47 48 48 46 40 32 15 0 0 2 0 0 2 34 5 1
20 30 14 5 23 36 27 1 2 19 20 23 41 34 23 23
10 2 4 4 3 9 14 8 8 12 22 48 71 107 115 132
140 139 138 139 139 140 140 139 136 139 140 140 139 140 139 135
116 117 115 108 76 74 79 82 84 83 92 92 88 81 73 19
4 0 0 0 0 17 27 25 28 28 31 30 27 8 27 31
31 31 32 31 31 32 31 32 32 31 30 3 0 0 0 0
0 26 30 30 31 30 30 31 31 31 31 32 32 32 32 31
49 49 49 41 14 15 8 5 2 12 5 0 2 34 6 9
29 28 3 0 24 39 27 0 2 12 28 31 41 29 22 25
15 5 6 2 4 8 15 14 16 24 51 76 97 105 124 132
130 120 125 121 129 131 127 132 127 133 139 140 140 139 135 130
116 102 91 63 36 35 40 50 56 59 60 73 84 80 77 26
6 0 1 1 3 21 27 28 29 29 31 30 16 20 32 32
32 32 32 32 32 31 32 31 31 30 29 2 0 0 0 0
0 23 32 32 32 31 32 33 32 32 32 32 32 32 32 32
26 29 32 35 37 39 34 35 32 35 12 0 2 34 8 1
27 33 2 0 25 41 28 0 0 2 8 29 44 28 24 25
12 0 0 1 3 4 4 4 20 61 87 89 101 115 114 98
89 88 81 70 56 53 73 103 112 125 136 137 141 139 124 114
98 73 72 45 32 26 26 30 38 42 43 40 62 80 79 29
4 0 4 11 11 23 28 26 28 29 31 29 10 30 31 31
31 32 31 32 32 32 31 29 22 17 16 1 0 0 0 0
0 22 32 32 32 32 32 32 32 32 32 32 32 33 33 32
0 0 0 4 27 28 8 4 6 7 2 0 2 33 6 0
12 13 4 2 26 42 30 1 0 0 0 24 45 29 23 24
14 0 0 0 0 0 2 8 47 95 102 104 107 97 64 61
66 55 39 34 31 29 42 68 98 115 120 134 140 133 114 96
78 63 63 60 58 59 62 57 47 42 41 41 49 74 82 38
4 1 9 29 7 22 28 28 29 30 32 29 11 31 32 31
33 32 32 33 33 33 33 11 8 1 0 0 0 0 0 0
0 19 32 32 32 33 33 33 33 32 33 32 32 32 31 32
0 0 0 2 29 32 7 0 0 0 0 0 1 34 6 0
0 0 1 1 25 42 28 0 0 0 0 22 46 30 23 25
19 0 0 0 0 0 1 20 77 103 105 102 96 64 59 52
52 49 37 37 40 39 37 44 62 81 106 131 138 131 112 93
72 66 69 72 78 91 92 82 79 80 76 70 67 77 84 45
6 0 11 44 10 21 27 28 28 29 32 29 12 32 32 32
33 33 33 33 33 33 32 26 36 15 22 0 0 0 0 1
0 12 28 32 32 32 33 33 32 33 33 32 32 33 33 32
0 0 0 3 36 40 12 0 0 0 0 0 1 33 6 0
0 0 0 0 23 43 27 0 0 0 0 22 47 30 23 25
25 1 0 2 2 0 0 25 81 106 105 102 92 91 84 88
85 82 74 70 73 69 64 70 72 75 104 124 134 128 108 92
82 76 50 60 61 40 42 50 61 54 65 80 83 84 85 49
6 1 32 49 20 21 28 28 29 29 32 30 11 31 32 32
33 33 33 33 33 33 32 42 46 16 7 0 0 0 0 0
0 2 5 15 16 24 33 33 32 33 33 33 33 32 32 32
5 9 9 14 39 45 19 0 0 0 0 0 1 32 6 0
0 0 0 0 22 43 26 0 0 0 0 18 42 28 23 25
22 1 11 26 17 3 0 21 81 109 107 107 98 96 97 84
72 75 59 44 50 70 80 66 66 74 104 120 136 130 108 95
85 58 46 39 40 8 40 46 35 39 54 70 88 92 89 57
12 7 50 66 25 19 27 28 28 29 31 30 12 31 32 32
32 33 32 29 27 24 21 7 4 5 0 0 0 0 0 0
0 1 3 0 5 19 34 33 33 32 33 33 32 32 31 31
28 34 34 38 44 36 11 0 0 0 0 0 0 31 5 0
0 0 0 0 22 44 29 0 0 0 0 16 43 29 22 23
28 18 39 29 27 7 0 19 82 109 109 108 103 99 75 55
52 49 36 18 32 50 75 87 74 73 110 119 139 135 110 97
89 67 58 69 46 27 48 80 74 49 55 79 92 98 91 64
16 7 58 75 23 21 27 27 28 29 31 31 14 27 32 32
32 32 22 6 5 7 7 2 0 0 0 0 0 0 0 0
0 1 4 1 3 19 34 33 33 33 32 32 32 31 31 31
36 37 39 44 46 21 0 0 0 0 0 0 0 31 17 11
13 16 20 24 35 41 27 0 0 0 0 17 46 31 20 24
31 36 58 53 64 23 3 16 83 109 111 110 108 98 80 56
67 96 53 29 32 75 123 95 98 91 108 118 138 136 113 100
97 89 71 82 85 67 80 99 91 86 79 84 98 100 93 73
22 6 61 87 23 20 26 27 27 29 30 30 20 22 31 29
27 24 14 2 2 3 1 1 4 3 0 0 0 0 0 0
0 0 5 1 2 15 32 33 33 33 32 32 31 31 31 31
10 14 20 27 44 34 23 23 22 19 17 18 20 35 37 36
37 39 42 42 41 33 25 17 15 12 9 21 42 29 22 27
33 36 67 63 95 69 40 13 79 109 113 107 112 104 96 91
105 115 91 57 66 103 116 107 112 115 110 119 137 137 116 101
99 98 85 97 110 111 108 108 107 98 95 93 99 102 93 75
24 20 70 93 23 19 26 26 26 27 25 21 13 6 7 4
3 3 3 4 5 5 6 5 5 2 6 5 0 0 0 0
0 0 4 1 1 10 31 33 32 31 31 31 30 30 30 30
0 0 0 6 41 44 43 43 42 40 40 41 42 41 39 35
38 38 39 38 38 37 36 36 35 34 33 33 36 34 33 34
34 36 77 65 93 90 67 12 78 108 111 114 118 114 108 112
123 121 118 109 105 111 109 115 125 116 114 118 134 136 120 101
99 102 92 89 100 108 114 113 108 101 101 97 98 101 97 79
24 51 91 91 25 17 24 26 19 8 3 3 3 4 6 6
7 8 8 8 8 7 8 5 1 0 3 10 0 0 0 0
0 0 3 5 8 11 28 29 29 29 30 30 29 29 29 29
0 0 0 6 41 46 46 45 47 44 45 46 45 32 23 24
34 34 34 33 34 34 35 35 34 34 34 33 33 33 33 33
33 35 81 58 106 100 74 18 82 107 111 118 121 119 113 113
122 126 126 114 108 105 103 112 125 120 118 118 131 136 124 100
99 102 100 95 104 111 112 110 109 108 108 102 100 101 97 82
36 79 99 92 20 15 24 24 17 7 6 7 6 7 7 7
6 5 4 3 2 1 7 5 1 3 5 3 0 0 0 2
0 0 1 6 8 10 25 30 31 30 30 30 29 29 29 29
0 0 0 6 41 43 42 38 38 37 37 42 36 18 17 21
32 34 34 33 33 33 33 33 33 32 33 33 32 31 32 32
32 33 82 56 104 111 104 27 78 106 111 119 122 121 122 121
123 122 121 116 111 111 120 131 131 123 116 117 132 133 125 104
99 105 108 106 107 117 122 122 121 119 114 107 103 101 97 83
63 89 106 91 19 14 24 24 11 8 7 3 2 1 0 0
0 0 0 0 0 0 7 7 5 1 3 0 0 0 0 0
0 0 4 4 4 7 27 31 31 30 30 30 30 30 29 28
0 0 0 5 41 21 8 10 7 7 8 13 10 15 17 20
31 33 26 18 16 15 15 14 13 13 12 11 11 11 10 9
9 10 53 69 100 113 99 43 76 105 112 118 122 124 126 133
132 128 126 125 125 130 136 138 132 120 114 118 131 134 126 106
98 106 110 113 110 116 124 127 131 128 121 111 105 102 98 82
81 91 109 85 11 13 22 23 13 7 6 0 0 0 0 0
0 0 0 0 0 2 9 7 6 5 5 6 6 7 8 7
9 11 15 15 13 14 21 20 20 23 30 30 30 30 29 29
0 0 0 6 42 14 0 0 0 0 0 5 3 16 17 20
30 34 22 2 0 0 0 0 0 0 0 0 0 0 0 0
0 0 14 89 94 113 95 61 87 103 111 118 121 127 130 137
139 139 138 138 137 139 139 138 126 118 114 118 129 134 127 108
99 105 109 116 114 116 121 129 136 133 124 114 106 102 99 82
90 89 102 78 10 12 22 24 13 8 4 0 0 0 0 0
0 0 0 0 0 4 9 8 7 24 19 17 19 24 22 19
24 21 19 19 14 12 42 17 12 17 30 30 30 29 28 27
0 0 0 6 41 16 0 0 0 0 1 10 12 15 16 20
30 33 26 5 0 0 0 0 0 0 0 0 0 0 0 0
0 0 1 62 97 115 96 68 94 102 110 118 122 131 136 140
141 139 140 139 139 139 139 136 124 116 116 119 130 135 127 109
99 102 107 113 114 116 117 123 130 134 126 116 109 104 100 83
91 84 100 62 11 10 21 21 11 7 2 0 0 0 0 0
0 0 0 0 0 6 8 7 7 20 14 18 21 27 49 45
62 63 66 28 13 32 105 49 9 14 30 30 29 14 5 4
0 0 0 4 40 17 0 0 0 6 12 13 11 15 16 19
29 33 28 7 0 0 0 0 0 0 0 0 0 0 0 0
0 0 0 18 99 114 94 75 98 99 109 116 124 130 138 140
140 141 140 140 140 140 140 139 124 114 116 119 127 136 128 107
99 102 106 112 115 119 119 123 125 129 126 116 109 105 99 83
96 103 98 45 11 9 21 19 9 8 1 0 0 0 0 0
0 0 0 0 0 8 8 9 6 17 14 20 23 30 81 67
88 85 86 32 14 93 118 105 25 14 30 30 26 0 0 0
0 0 0 3 37 17 0 0 5 12 12 12 11 15 17 19
28 33 28 10 0 0 0 0 0 0 0 0 0 0 0 0
0 0 0 2 72 108 83 81 102 96 107 115 124 132 138 140
141 140 140 140 139 139 140 138 122 112 114 117 127 135 126 108
99 101 105 110 116 120 120 125 128 130 125 117 110 106 99 85
104 107 98 35 22 19 25 17 8 7 0 0 0 0 0 0
0 0 0 0 1 9 8 11 6 10 22 25 29 27 45 38
41 37 33 26 24 50 37 30 23 15 27 30 26 1 0 0
0 0 0 3 37 18 0 0 5 11 12 12 10 15 16 18
26 32 30 13 0 0 0 0 0 0 0 0 0 0 0 0
0 0 0 0 39 109 99 99 108 93 104 113 121 131 139 141
142 141 140 140 140 140 140 136 116 109 111 117 125 129 126 108
99 97 104 111 120 122 122 126 133 131 129 120 112 105 98 89
114 108 88 44 40 40 36 16 8 5 0 0 0 0 0 0
0 0 0 0 3 9 9 12 4 1 25 29 32 22 23 23
19 16 18 19 21 22 21 21 22 14 28 30 30 10 0 0
0 0 0 4 36 17 0 0 4 12 12 13 11 15 16 18
26 32 30 16 0 0 0 0 0 0 0 0 0 0 0 0
0 0 0 0 12 99 113 114 109 91 98 110 119 130 136 142
141 141 140 141 141 140 137 122 104 106 108 114 120 123 125 112
101 94 98 110 115 118 121 124 129 132 129 120 112 106 98 91
109 104 68 44 42 42 33 12 8 3 0 0 0 0 0 0
0 0 0 0 5 9 9 11 1 1 16 22 32 22 23 18
17 15 14 19 23 22 22 21 21 13 27 29 27 27 2 0
15 14 13 19 39 21 0 0 5 11 12 12 11 14 15 18
24 31 30 18 0 0 0 0 0 0 0 0 0 0 0 0
0 0 0 0 2 67 112 121 110 93 94 107 115 124 134 139
141 140 141 140 140 137 123 97 106 106 106 111 121 127 129 120
103 96 94 99 104 104 115 117 121 123 124 117 112 104 97 90
106 92 50 44 43 41 29 10 9 2 0 0 0 0 0 0
0 0 0 0 7 8 9 7 0 0 0 12 33 21 22 13
15 14 15 20 23 22 22 20 20 7 24 23 4 6 2 0
39 39 39 37 36 25 0 0 5 11 12 12 11 14 16 18
23 31 30 19 0 0 0 0 0 0 0 0 0 0 0 0
0 0 0 0 0 31 112 120 113 96 90 103 111 119 127 135
139 141 140 140 137 128 97 90 110 104 103 110 129 133 135 128
105 94 96 98 97 100 108 110 114 116 117 115 110 102 97 88
94 61 43 44 44 41 24 9 8 0 0 0 0 0 0 0
0 0 0 0 9 8 10 5 0 0 0 16 30 22 21 12
17 15 14 21 24 23 22 20 19 8 13 2 0 0 5 0
24 17 13 7 9 24 0 0 6 12 12 12 10 14 15 17
22 30 30 20 1 0 0 0 0 0 0 0 0 0 0 0
0 0 0 0 0 6 91 116 119 102 88 101 108 117 124 131
137 138 140 138 133 111 81 96 104 100 99 108 134 132 134 125
102 93 93 95 101 94 98 106 111 111 113 113 107 100 97 78
50 48 44 45 44 40 19 9 7 0 0 0 0 0 0 0
0 0 0 2 9 8 10 4 0 7 8 25 30 24 21 10
16 15 13 22 23 22 22 20 21 10 0 0 0 3 0 0
4 0 0 0 2 25 3 0 6 9 11 12 10 13 16 17
22 31 30 22 2 0 0 0 0 0 0 0 0 0 0 0
0 0 0 0 0 1 63 110 110 102 85 98 102 112 122 129
134 135 135 132 125 94 88 105 92 84 92 97 118 123 122 109
91 76 81 94 105 88 94 100 105 108 110 110 106 98 94 74
48 50 47 46 45 39 15 9 5 0 0 0 0 0 0 0
0 0 0 5 9 9 10 1 0 11 5 28 28 23 18 4
10 15 14 22 23 22 22 21 21 11 0 0 0 6 0 0
0 0 0 0 3 31 32 22 16 9 11 11 9 13 15 17
21 30 30 21 2 0 0 0 0 0 0 0 0 0 0 0
0 0 0 0 0 0 21 81 94 84 81 94 101 107 119 124
127 127 129 128 117 92 103 112 98 60 77 85 98 109 103 87
63 49 64 103 107 103 94 98 102 101 107 107 104 96 89 73
50 51 48 46 44 33 11 9 2 0 0 0 0 0 0 0
0 0 0 7 9 10 10 0 1 8 5 33 26 17 4 0
10 13 14 20 22 22 21 22 22 11 0 0 4 8 1 1
0 0 0 0 7 34 26 10 9 9 11 11 10 12 15 16
20 29 30 22 3 0 0 0 0 0 0 0 0 0 0 0
0 0 0 0 0 0 12 31 28 19 59 92 101 104 113 119
123 126 128 123 115 105 110 112 111 99 94 92 85 83 73 70
88 91 97 107 107 107 100 96 100 99 103 104 100 92 90 71
50 51 49 46 44 28 10 9 0 0 0 0 0 0 0 0
0 0 0 8 9 11 8 0 4 11 13 32 25 14 4 0
10 12 14 21 22 22 22 23 23 13 4 7 9 9 7 5
0 0 0 0 6 32 13 0 0 9 11 11 10 11 15 17
20 29 30 24 4 0 0 0 0 0 0 0 0 0 0 0
0 0 0 0 0 0 10 30 19 1 40 93 101 104 111 118
123 125 128 124 119 115 116 114 112 110 104 96 84 60 55 77
93 99 107 108 108 106 100 90 97 102 100 100 95 90 88 69
49 51 50 46 43 21 10 7 0 0 0 0 0 0 0 0
0 0 2 9 9 10 6 0 41 46 16 33 25 14 4 2
11 12 15 21 23 22 22 23 23 15 2 3 5 4 1 0
0 0 0 0 4 31 15 0 0 8 10 10 9 11 14 15
18 28 30 23 5 0 0 0 0 0 0 0 0 0 0 0
0 0 0 0 0 0 8 31 18 0 19 94 100 102 107 114
119 124 127 125 125 123 123 120 117 115 113 107 97 77 73 88
99 108 108 107 107 105 102 90 76 87 96 98 94 86 86 65
45 51 50 46 41 16 9 6 0 0 0 0 0 0 0 0
0 0 4 10 10 11 4 1 52 40 18 32 24 16 7 11
16 12 17 23 23 22 22 23 24 17 0 0 0 0 0 0
3 3 5 10 15 30 16 0 0 7 9 10 9 10 13 15
18 28 29 24 5 0 0 0 0 0 0 0 0 0 0 0
0 0 0 0 0 0 7 30 25 12 19 92 100 102 105 112
119 125 124 123 125 124 129 128 125 124 122 121 112 104 103 106
109 111 109 108 105 104 103 99 83 69 95 98 91 88 86 53
42 51 51 46 36 13 9 3 0 0 0 0 0 0 0 0
0 0 7 10 10 11 1 0 13 11 25 30 25 18 15 9
16 14 20 26 24 22 22 23 22 16 0 0 0 0 0 0
17 19 23 30 37 38 25 3 1 8 10 10 9 9 13 14
16 26 28 24 5 0 0 0 0 0 0 0 0 0 0 0
0 0 0 0 0 0 7 31 27 32 50 90 101 105 107 110
118 120 116 116 122 123 130 129 130 126 126 122 115 108 110 111
112 109 108 105 102 101 98 90 93 76 94 97 91 87 82 40
36 50 50 46 29 11 10 3 1 1 1 1 2 1 1 1
2 2 9 10 10 10 0 0 4 8 33 28 26 22 14 11
16 16 20 25 24 22 22 22 22 16 0 0 0 0 0 0
27 28 31 35 40 39 35 27 24 20 11 9 9 8 12 14
16 26 28 23 6 0 0 0 0 0 0 0 0 0 0 0
0 0 0 0 0 0 5 29 27 29 43 79 97 104 107 110
116 118 116 113 110 107 119 121 125 127 123 121 113 114 115 115
111 109 105 102 98 93 80 65 76 85 97 93 88 88 81 25
30 50 50 46 24 10 10 9 9 9 9 9 9 9 9 9
11 9 11 11 12 8 0 0 2 9 35 27 25 21 13 11
16 16 21 25 24 22 23 22 22 17 0 0 0 0 0 0
22 20 20 19 19 18 18 12 10 10 7 8 8 7 11 12
15 25 28 24 5 0 0 0 0 0 0 0 0 0 0 0
0 0 0 0 0 0 5 29 27 24 21 59 97 100 107 109
117 120 115 101 86 95 104 111 118 118 119 121 123 123 122 119
112 107 101 93 84 72 80 89 88 96 98 91 88 87 74 13
25 49 50 45 18 9 10 9 10 10 9 10 10 10 9 10
9 9 10 9 14 5 0 1 2 15 35 26 25 21 14 10
16 16 23 24 23 22 22 22 22 18 0 0 0 0 0 0
9 9 10 9 11 13 16 1 0 3 6 7 6 5 11 13
16 25 29 23 5 0 0 0 0 0 0 0 0 0 0 0
0 0 0 0 0 0 5 28 26 23 20 41 98 102 105 107
117 126 118 99 52 64 69 76 81 89 92 94 101 108 101 86
81 78 69 62 64 93 110 105 102 99 94 90 88 87 64 4
19 47 50 47 16 7 11 11 11 11 19 17 10 11 10 10
13 15 12 6 12 3 0 9 21 25 33 26 25 19 12 10
15 18 24 25 24 23 24 23 24 18 0 0 0 0 0 0
3 2 2 2 9 11 16 2 0 1 5 7 7 6 10 11
14 23 27 23 6 0 0 0 0 0 0 0 0 0 0 0
0 0 0 0 0 0 6 29 27 23 24 30 90 102 105 105
112 123 121 123 117 115 93 85 75 73 79 81 85 87 79 69
65 58 57 73 93 109 109 104 103 96 88 84 87 82 48 1
13 44 45 36 15 10 24 27 35 52 86 82 59 56 38 28
32 30 28 25 7 0 6 34 18 29 33 27 25 14 7 11
12 18 23 23 24 23 23 23 22 18 1 0 0 0 0 0
0 3 4 3 7 15 19 2 0 0 0 4 7 6 10 11
14 23 27 23 6 0 0 0 0 0 0 0 0 1 2 3
4 5 6 7 9 11 17 28 25 23 25 26 70 99 103 103
104 115 130 135 140 137 124 112 106 109 108 105 93 87 84 90
90 89 85 91 106 108 102 99 98 90 84 84 85 72 32 2
9 37 30 17 21 54 91 100 116 127 134 134 123 109 68 15
9 7 10 14 27 13 49 132 52 29 29 25 23 13 13 11
9 18 21 22 24 24 23 24 22 18 1 0 0 0 0 0
16 18 20 20 18 12 14 1 0 1 3 1 7 5 9 10
13 22 26 24 14 8 9 11 13 14 16 17 19 19 20 21
22 22 22 23 23 22 22 23 23 24 24 25 44 92 98 100
98 102 122 133 140 138 130 123 115 116 133 127 120 121 119 120
114 91 87 101 104 106 97 102 97 85 83 84 79 65 41 36
38 41 38 35 36 56 94 99 110 119 125 135 124 109 67 8
7 8 6 10 18 19 79 137 41 33 27 25 22 9 8 1
4 16 18 16 19 22 22 22 21 19 1 0 0 0 0 0
19 21 23 23 24 19 3 0 0 1 5 1 5 5 9 10
13 21 26 27 26 24 22 25 26 25 24 24 24 24 23 24
24 24 24 24 23 23 23 22 23 23 26 25 28 77 95 98
97 99 113 124 132 137 128 125 120 119 121 117 113 114 111 107
99 95 98 100 100 104 102 102 93 84 85 85 73 50 33 34
35 34 34 40 47 50 76 99 113 124 129 128 119 102 54 5
4 5 3 23 5 0 40 50 16 38 24 7 4 0 0 1
0 1 6 24 25 22 22 18 22 21 2 0 0 0 0 0
22 18 20 22 25 20 10 2 0 1 1 0 1 1 7 10
12 21 27 27 27 25 20 25 25 25 25 24 25 25 28 25
17 16 20 21 15 16 21 20 20 23 26 26 29 65 90 95
97 98 106 117 123 129 127 127 121 115 116 116 111 107 105 102
100 94 94 98 100 99 103 99 91 84 87 81 64 21 17 19
18 18 18 35 39 34 48 74 35 81 96 89 74 50 11 6
6 5 16 39 31 31 42 50 41 45 23 2 0 0 0 0
0 0 0 19 15 16 23 16 17 20 3 0 0 0 0 0
20 17 15 26 32 18 4 0 0 0 0 0 0 0 6 9
11 20 26 26 26 25 22 23 23 23 22 21 24 42 49 17
0 0 1 4 1 1 12 18 17 16 13 14 22 51 90 92
96 97 102 111 114 122 124 125 121 116 112 108 104 102 101 99
94 89 95 99 100 101 101 96 88 85 85 73 55 5 18 18
14 14 4 9 31 52 57 53 23 4 4 4 7 5 3 7
11 57 74 86 93 92 87 93 91 70 29 30 0 0 0 0
0 0 0 7 12 21 21 14 11 5 10 8 1 0 0 0
13 12 11 32 22 10 0 0 0 0 0 0 0 0 0 2
3 7 12 11 10 8 8 6 6 7 9 12 43 61 27 1
0 0 0 0 0 0 0 1 0 0 0 19 10 44 102 88
95 96 101 112 114 123 123 124 124 122 118 112 111 106 104 101
98 99 101 102 102 101 100 94 85 86 80 68 67 3 19 23
14 14 2 0 4 33 53 60 66 40 15 9 12 11 12 25
59 101 92 97 98 87 78 91 93 69 16 22 0 0 0 0
0 0 0 0 17 25 14 10 13 5 1 2 0 0 0 0
8 4 23 36 16 13 3 0 0 0 0 0 0 0 0 0
0 0 0 0 0 0 0 0 0 2 12 26 59 40 3 0
0 0 0 0 0 0 0 0 0 0 0 37 1 33 106 97
91 97 99 109 121 125 127 122 124 125 122 118 114 111 109 105
105 106 105 106 103 103 103 93 84 83 72 83 74 4 8 29
16 16 3 1 2 3 3 4 11 32 62 57 36 43 80 71
53 60 70 81 84 82 81 84 88 64 6 5 4 3 4 3
2 5 5 4 9 8 0 0 0 0 0 0 0 0 0 0
7 2 57 17 2 10 10 1 0 0 0 0 0 0 0 0
0 0 0 0 0 0 3 4 0 2 15 44 50 16 0 0
0 0 0 0 0 0 0 0 0 0 17 42 0 25 104 107
89 95 99 105 119 125 131 128 127 128 130 127 124 121 119 114
117 113 109 105 107 105 103 89 81 78 73 91 76 7 13 48
26 10 10 13 17 23 29 38 34 21 22 46 65 65 56 60
77 98 103 90 65 58 56 47 47 40 28 26 24 18 12 5
0 1 1 1 0 0 0 0 0 0 0 0 0 0 0 0
17 7 40 0 0 4 14 16 0 0 0 0 0 0 0 0
0 0 0 0 0 0 3 8 7 3 16 53 31 0 1 9
4 0 0 0 0 0 0 0 0 0 48 35 0 19 101 108
102 84 94 99 113 120 129 134 131 133 137 139 138 135 133 127
122 115 108 111 111 103 96 81 73 68 90 89 76 9 13 27
49 37 45 62 90 127 138 140 138 112 75 64 66 70 85 123
140 139 139 139 116 76 50 34 30 23 16 12 14 9 7 2
0 0 0 0 0 0 0 0 0 0 0 0 0 0 0 0
10 8 18 0 0 0 14 7 0 0 0 0 1 1 1 1
3 1 0 0 1 2 7 12 12 2 23 54 21 13 25 31
16 0 0 2 0 0 0 0 0 0 48 7 0 11 98 108
108 93 85 96 107 116 127 133 134 132 138 141 138 135 129 128
122 111 111 114 105 97 88 75 66 84 95 90 77 16 2 11
34 26 33 51 79 105 139 140 119 73 60 48 47 48 71 113
141 139 139 139 125 84 52 38 28 22 16 13 13 9 8 3
0 0 0 0 0 0 0 0 0 0 0 0 0 0 0 0
0 8 11 0 0 0 1 0 0 0 0 4 2 7 7 6
6 6 7 11 16 18 16 13 10 0 32 43 8 20 31 32
25 2 9 24 12 2 0 2 4 7 56 5 0 8 95 109
109 103 88 88 100 113 123 133 132 135 136 140 138 133 128 122
113 107 111 109 98 88 79 65 80 98 94 87 78 20 0 9
31 28 31 43 76 98 138 141 118 71 59 49 47 50 76 114
141 137 136 140 127 84 51 39 28 22 17 14 13 10 11 5
1 0 1 0 0 0 0 0 0 0 0 0 0 0 0 0
0 9 12 1 4 0 0 0 0 0 0 0 1 5 4 4
5 5 7 13 22 21 12 5 2 1 40 39 1 17 33 33
21 4 26 35 26 10 0 4 0 16 51 2 0 8 92 107
109 106 102 86 90 106 117 124 128 128 128 128 129 127 122 115
111 110 107 100 90 81 68 69 99 97 92 86 76 29 0 7
25 38 28 43 59 95 137 141 120 73 59 45 42 52 70 107
141 136 134 140 126 82 54 38 29 23 17 15 13 10 10 5
0 0 1 0 0 0 0 0 0 0 0 0 0 0 0 0
0 12 15 7 4 0 0 0 0 0 0 0 2 1 1 1
2 2 3 10 20 18 3 0 0 2 45 41 2 18 17 13
23 22 38 35 26 15 1 7 19 39 46 2 0 8 92 104
109 109 106 100 82 93 104 114 123 123 125 124 123 121 115 112
109 107 94 91 81 72 63 93 98 95 91 85 76 36 0 7
19 39 23 25 43 80 134 141 121 74 55 42 44 56 72 108
141 137 134 140 128 84 56 39 30 22 19 14 14 12 10 7
2 0 1 0 0 0 0 0 0 0 0 0 0 0 0 0
0 10 14 7 5 0 0 0 0 0 0 0 1 0 0 1
2 2 4 11 21 16 2 0 0 3 48 43 5 12 3 6
26 34 44 29 20 26 16 27 23 37 56 4 0 13 93 102
107 109 108 107 96 82 98 106 113 117 116 114 115 113 110 106
100 96 85 79 70 60 84 99 96 95 89 84 76 41 0 16
38 33 28 33 21 24 46 97 106 76 52 40 44 52 70 109
141 136 133 140 130 86 58 40 29 22 20 13 14 10 10 8
1 1 1 0 0 0 0 0 0 0 0 0 0 0 0 0
2 20 12 6 4 0 0 0 0 0 0 0 0 2 1 2
4 4 5 10 21 15 7 6 0 3 47 55 18 16 1 10
31 45 41 17 28 45 33 25 18 49 87 12 0 14 93 103
107 108 110 107 105 92 84 95 101 106 105 105 104 100 99 94
87 80 74 64 57 79 93 96 94 92 88 84 76 45 0 13
31 36 29 32 45 40 34 43 27 45 49 41 44 51 70 106
141 137 133 141 129 85 60 41 25 19 16 13 14 11 11 7
1 2 1 0 0 0 0 0 0 0 0 0 0 0 0 0
6 8 1 2 5 1 0 0 0 0 0 0 1 3 0 2
4 5 10 20 27 22 18 17 2 2 39 50 30 14 0 10
33 42 32 32 47 60 24 27 24 53 60 7 0 11 92 102
106 108 107 108 106 103 91 75 82 86 88 79 83 86 81 73
70 61 56 57 78 88 95 96 96 93 88 82 75 40 0 9
19 28 20 18 21 43 84 36 19 20 23 36 45 52 69 103
141 138 134 141 131 88 59 40 26 19 14 11 13 12 11 9
1 3 2 0 0 0 0 0 0 0 0 0 0 0 0 0
0 0 1 2 3 2 0 0 0 0 0 0 7 9 0 4
4 5 23 32 26 22 16 16 3 0 37 49 42 10 0 14
37 52 54 45 39 43 31 52 45 43 55 11 1 6 91 103
107 109 109 108 108 106 103 97 74 61 55 57 59 54 48 44
46 57 70 81 88 90 95 97 94 93 87 83 74 34 0 11
21 31 22 20 16 29 46 44 27 20 20 19 29 49 56 90
141 138 134 142 133 88 55 35 25 20 14 8 11 12 12 10
2 5 2 0 0 0 0 0 0 0 0 0 0 0 0 0
8 8 11 10 2 1 0 0 0 0 0 0 4 9 0 3
2 1 13 27 30 29 24 22 6 0 24 34 27 8 18 48
53 29 19 29 34 47 60 45 27 41 64 14 6 1 77 103
105 108 108 107 107 106 105 100 98 92 88 79 74 67 55 64
77 81 80 85 89 92 96 94 94 91 89 84 74 23 1 13
20 28 29 27 17 35 35 15 31 50 34 20 34 38 26 31
59 96 103 142 132 89 56 34 30 23 12 7 10 12 12 9
2 3 2 0 0 0 0 0 0 0 0 0 0 0 0 0
16 17 17 15 7 0 0 0 0 0 0 0 3 15 16 10
4 0 2 9 17 16 8 5 0 0 2 18 29 42 50 68
33 17 20 29 35 95 49 24 32 32 60 21 12 0 50 102
105 107 108 108 106 107 104 101 97 93 85 87 89 94 98 92
80 77 81 86 90 95 95 93 94 90 89 82 70 10 0 13
20 32 22 49 31 41 20 14 19 19 39 61 47 27 20 20
24 36 53 69 105 89 55 39 30 23 12 8 10 12 12 9
2 3 3 0 0 0 0 0 0 0 0 0 0 0 0 0
8 9 12 13 5 0 1 0 0 0 0 0 0 6 21 6
0 0 0 0 0 0 0 0 1 23 35 41 60 54 36 53
31 23 21 39 59 37 44 29 24 32 59 27 15 0 21 98
105 106 106 105 105 103 101 99 98 96 92 93 99 103 95 81
79 83 85 86 91 93 97 94 93 93 88 81 58 1 8 26
24 27 29 24 62 43 18 19 18 18 16 44 76 42 23 21
21 20 36 63 35 53 52 37 28 20 14 10 11 12 10 9
2 4 2 0 0 0 0 0 0 0 0 0 0 0 0 0
0 0 0 0 0 9 27 0 1 0 0 0 0 0 6 0
0 0 0 0 0 0 0 12 40 64 45 58 60 37 32 56
48 29 51 54 26 34 24 17 19 41 46 56 36 11 2 80
105 107 105 105 104 103 100 100 100 100 100 100 94 85 78 82
84 85 86 89 93 98 98 98 96 93 88 82 35 1 16 43
30 40 42 62 45 73 29 20 23 17 19 43 26 23 54 22
20 23 42 30 17 26 30 34 26 18 15 11 12 13 11 9
2 3 0 0 0 0 0 0 0 0 0 0 0 0 0 0
0 0 0 0 0 16 46 0 4 1 0 0 0 0 5 1
0 0 0 0 0 10 25 37 52 97 75 49 43 45 41 46
79 67 29 13 16 31 39 25 25 64 49 99 41 25 0 39
102 104 103 102 103 103 105 102 101 106 103 101 97 90 88 89
86 84 89 95 98 100 102 101 97 92 87 75 12 2 14 25
27 36 18 54 36 31 35 51 23 22 31 36 18 18 19 46
29 29 39 22 17 20 21 22 38 44 20 12 11 12 12 9
2 2 0 0 0 0 0 0 0 0 0 0 0 0 0 0
0 0 0 0 0 1 9 2 2 0 0 0 0 0 9 7
0 0 0 18 35 56 75 71 54 66 61 44 46 44 63 72
72 86 34 35 42 65 67 51 47 65 48 89 27 22 6 6
82 101 104 105 107 109 109 108 109 108 109 110 108 105 101 99
93 93 96 98 103 106 105 103 96 90 83 52 0 11 22 27
24 19 15 26 15 16 17 24 52 33 31 37 20 17 15 17
40 74 58 27 18 24 20 26 44 39 36 29 12 11 12 10
2 1 0 0 0 0 0 0 0 0 0 0 0 0 0 0
0 0 0 0 0 0 0 0 0 0 0 0 0 0 0 2
0 3 30 86 88 52 41 43 44 45 66 45 58 47 47 44
46 77 30 37 48 62 48 34 28 38 43 56 42 32 22 3
35 100 104 107 112 114 113 110 111 115 119 117 113 111 108 107
104 100 96 100 107 109 106 102 95 87 78 17 14 30 26 27
19 17 15 31 17 11 11 22 33 20 66 50 15 18 20 13
35 36 14 26 31 48 51 66 43 24 22 25 32 19 13 10
4 2 0 0 0 0 0 0 0 0 0 0 0 0 0 0
0 0 0 0 0 0 0 0 0 0 0 0 0 0 0 0
13 55 71 65 62 38 35 46 40 34 35 31 69 33 35 33
45 55 15 14 22 28 33 19 17 21 46 42 65 33 33 19
4 67 105 110 114 117 115 111 109 112 115 118 117 117 113 108
101 96 97 105 110 110 107 100 92 83 49 3 37 29 27 27
22 17 15 31 19 15 13 29 28 17 13 26 33 18 16 13
31 30 15 14 16 18 39 73 64 54 31 28 27 30 26 11
4 2 0 0 0 0 0 0 0 0 0 0 0 0 0 0
0 0 0 0 0 0 0 0 0 0 0 0 0 0 1 26
58 47 48 40 36 29 33 70 32 32 34 33 76 34 36 35
53 53 22 16 24 27 43 20 21 19 50 34 76 35 41 32
11 19 92 110 114 116 116 111 106 107 111 114 114 112 108 104
98 97 103 110 112 109 102 94 87 72 13 40 50 39 25 24
27 12 13 32 22 15 14 29 22 15 12 8 41 22 12 11
29 34 19 18 18 23 42 56 29 34 60 57 28 27 52 39
5 1 0 0 0 0 0 0 0 0 0 0 0 0 0 0
1 0 0 0 0 0 0 0 0 0 0 0 0 5 56 54
32 35 52 45 33 26 27 71 29 31 33 32 76 33 32 32
57 54 27 20 25 31 41 17 20 16 49 37 67 48 36 50
49 6 39 103 112 116 116 114 108 101 100 104 106 105 101 96
96 101 108 111 111 104 99 91 83 29 11 54 56 54 36 32
32 14 15 35 24 15 15 29 21 16 14 10 41 20 20 17
17 47 23 20 21 22 61 40 28 31 30 32 51 69 39 34
21 3 0 0 0 0 0 0 0 0 0 0 0 0 0 0
0 0 0 0 0 0 0 0 0 0 0 0 5 50 69 31
29 36 54 51 44 45 26 63 26 28 34 33 76 39 36 34
52 49 30 25 27 36 36 18 20 19 48 51 40 75 59 73
62 22 11 61 110 114 116 115 111 105 101 98 98 96 96 97
101 105 111 112 108 101 94 89 57 7 50 80 36 39 38 64
51 36 34 70 41 18 15 27 23 14 10 9 36 18 21 20
17 52 25 22 21 27 75 28 28 26 24 59 42 68 40 20
34 17 1 0 0 0 0 0 0 0 0 0 0 0 0 0
2 3 1 1 2 1 0 0 0 0 0 1 41 30 64 63
66 71 94 85 71 69 61 84 39 40 32 30 69 33 35 32
39 49 38 39 38 42 24 15 17 17 41 65 41 113 77 42
34 40 10 19 80 111 115 115 114 111 107 104 100 98 99 100
105 109 111 109 104 98 92 75 20 32 74 50 28 28 24 53
30 30 31 69 53 42 32 50 36 22 17 15 53 37 34 28
21 70 34 36 48 58 117 66 55 52 49 101 52 46 35 37
23 35 9 0 0 0 0 0 0 0 0 0 0 0 0 0
0 0 0 0 0 0 0 0 0 0 0 27 56 61 79 39
41 40 55 53 39 36 32 65 39 46 55 62 103 57 53 56
71 90 59 64 68 97 46 26 24 30 53 68 64 106 60 35
32 43 19 13 30 94 111 115 114 112 110 107 104 102 101 103
107 110 111 109 102 94 83 29 12 34 56 33 26 23 35 34
15 12 11 40 30 32 43 73 53 44 33 31 86 67 63 63
54 109 67 60 61 54 109 56 63 66 60 62 38 53 40 43
26 30 27 4 0 0 0 0 0 0 0 0 0 0 0 0
0 1 2 0 0 0 0 0 0 0 19 65 44 43 47 23
29 33 55 43 31 32 37 70 37 24 27 35 99 63 68 66
68 94 49 45 44 92 43 31 35 47 70 67 50 62 55 41
38 46 32 19 16 42 100 112 113 113 112 108 104 104 104 107
109 111 110 107 98 87 45 6 27 52 51 33 22 21 57 39
17 13 13 37 26 16 17 47 31 22 16 17 70 46 44 43
49 102 45 38 30 24 76 26 27 37 27 40 21 27 57 66
34 17 46 44 1 0 0 0 0 0 0 0 0 0 0 0
2 2 2 1 1 1 0 0 0 2 61 50 28 59 40 24
32 34 60 43 29 32 37 62 40 29 26 24 55 26 33 34
33 69 27 29 30 75 26 18 12 15 45 36 28 41 73 39
43 41 32 34 22 22 58 107 111 110 108 105 103 104 104 104
107 111 110 103 94 64 15 17 39 64 38 27 21 39 41 39
15 14 11 37 27 19 16 37 22 11 7 8 52 31 26 24
25 71 31 28 29 27 76 34 30 34 27 43 17 17 56 82
42 22 39 78 16 0 0 0 0 0 0 0 0 0 0 0
3 3 2 2 0 1 0 0 0 15 65 24 23 61 41 23
33 35 61 50 29 34 37 59 43 37 28 27 49 27 33 32
33 76 32 30 31 71 28 26 13 10 37 22 22 31 72 42
41 25 3 38 28 24 29 70 109 113 113 109 107 107 108 110
113 113 109 101 83 31 21 32 35 55 11 30 31 50 23 41
15 16 12 38 26 18 16 41 22 13 9 8 55 35 29 27
27 73 33 30 27 26 60 35 30 30 28 48 14 16 71 34
58 46 43 34 27 2 0 0 0 0 0 0 0 0 0 0
5 5 4 2 2 1 0 0 1 30 60 32 24 53 42 22
27 32 54 46 23 30 33 48 41 36 28 27 45 22 29 31
32 78 34 28 29 70 27 30 15 7 32 17 21 26 56 51
25 5 12 49 51 32 30 42 82 108 109 107 104 103 107 109
110 113 111 102 55 33 34 39 59 46 0 25 74 51 13 40
12 13 11 31 25 19 17 35 24 12 8 7 52 36 29 27
24 63 32 30 29 29 61 36 31 30 31 59 13 33 66 17
45 65 24 20 27 15 0 0 0 0 0 0 0 0 0 0
4 4 4 3 2 1 0 0 9 46 63 52 28 48 67 38
31 43 72 65 41 37 45 63 52 43 39 40 50 18 28 29
30 76 37 35 32 57 31 33 21 9 29 18 23 25 40 82
5 0 27 57 51 60 35 43 63 89 106 109 110 111 115 118
120 119 117 85 38 44 67 69 85 18 2 46 77 45 35 76
26 21 16 37 24 15 16 38 28 13 11 8 45 36 31 28
28 61 35 32 27 27 58 31 27 28 24 63 9 59 30 18
21 55 33 26 21 30 9 0 0 0 0 0 0 0 0 0
1 5 5 4 2 0 0 0 26 34 34 72 26 36 84 51
45 59 91 94 73 64 72 85 86 60 58 61 99 35 22 24
27 69 32 31 29 47 39 30 23 12 33 11 19 26 33 42
0 3 65 60 26 44 54 49 65 82 93 104 115 119 120 122
124 122 112 61 44 62 54 55 56 9 25 46 25 35 36 83
38 34 30 66 47 23 23 28 25 12 10 11 47 30 26 24
26 62 39 30 25 27 67 44 41 39 40 96 16 48 23 16
21 36 65 33 26 28 19 3 0 0 0 0 0 0 0 0
