P2
128 120
156
46 41 40 41 40 39 39 39 40 41 40 39 38 38 39 38
38 38 38 38 37 37 37 37 37 37 35 36 35 35 35 34
33 33 32 32 32 31 31 31 31 30 30 29 29 28 28 27
27 26 26 26 25 25 24 24 23 22 22 22 21 21 20 19
19 20 19 20 23 23 23 23 17 9 10 22 21 20 20 19
18 18 17 17 16 14 15 15 18 18 18 19 19 19 19 20
20 20 20 21 21 21 21 21 22 22 22 22 22 22 22 23
25 25 26 26 26 27 27 28 27 29 28 28 29 29 29 29
58 61 59 57 55 50 51 53 56 58 59 53 38 38 38 38
38 37 37 38 37 37 37 37 36 36 36 36 35 35 34 34
33 33 33 33 32 31 31 31 31 30 29 29 29 28 28 27
27 26 26 25 25 24 24 24 23 23 22 22 22 21 21 20
20 20 20 20 23 24 23 22 17 14 13 22 22 20 20 20
19 18 18 17 17 14 16 16 19 18 19 19 20 19 19 20
20 20 21 21 21 21 22 22 22 22 22 23 23 24 24 24
24 25 26 26 26 27 27 28 28 29 29 29 29 29 30 29
51 56 43 35 35 37 40 39 39 41 54 57 48 45 41 38
37 38 37 37 37 37 37 36 36 36 35 35 35 34 34 33
33 33 34 32 32 32 32 31 31 30 30 30 29 28 28 27
27 26 26 26 25 24 24 23 23 23 23 22 22 21 21 20
21 20 20 21 23 24 24 22 17 15 15 22 22 22 21 20
19 19 18 17 17 15 16 17 19 19 19 20 20 20 20 20
21 21 22 21 21 21 21 22 23 23 24 24 24 24 25 24
25 26 26 26 27 27 27 28 28 28 29 29 29 30 30 30
46 47 19 0 0 0 1 0 0 0 42 55 54 56 53 45
41 40 40 40 38 38 37 37 36 36 35 35 36 35 35 34
34 33 33 33 33 32 32 32 32 31 31 30 29 29 29 28
28 27 26 26 25 25 25 24 25 24 24 23 22 22 22 21
21 20 20 21 24 24 24 23 19 16 16 22 23 22 22 21
20 20 19 18 18 16 17 17 20 20 20 20 21 21 21 21
21 20 21 21 22 22 23 23 24 24 24 25 25 25 25 25
26 26 27 27 27 27 28 28 29 29 30 29 29 29 29 30
43 45 21 0 0 0 11 0 0 0 34 52 48 43 27 32
39 43 51 52 52 49 43 36 37 35 35 35 35 35 34 34
34 33 33 33 33 33 33 32 31 31 30 30 30 29 29 28
28 28 27 26 26 26 26 25 25 24 24 23 23 22 22 21
21 20 21 22 25 25 25 24 19 18 18 20 23 22 22 21
20 20 20 19 18 17 17 18 20 21 21 20 21 20 21 21
22 21 22 22 22 23 23 23 24 24 24 24 25 25 25 26
26 27 27 27 27 28 29 29 29 29 30 30 30 29 30 30
42 46 23 0 0 0 6 0 0 0 28 51 47 36 0 0
5 12 20 28 36 49 46 36 36 36 36 36 35 35 35 35
34 34 33 33 33 33 33 32 31 31 31 31 30 30 29 28
28 28 27 27 26 26 26 25 25 25 25 24 23 23 22 22
22 21 21 22 25 26 26 24 20 18 19 20 25 24 23 22
21 21 21 19 19 17 17 17 20 21 21 21 22 22 22 22
23 23 22 23 23 23 24 24 24 24 25 25 25 25 26 26
26 27 27 27 28 28 29 29 29 29 30 29 30 30 30 30
41 44 25 0 0 1 4 1 0 0 23 51 48 35 0 0
0 0 0 0 4 46 47 36 36 36 36 35 35 35 35 34
34 34 34 33 33 33 33 32 32 31 31 31 30 30 29 29
29 28 27 27 27 27 26 26 25 24 24 24 24 23 23 22
22 22 22 23 26 26 26 25 20 18 21 19 25 24 23 22
21 22 21 20 20 18 17 18 21 22 22 22 22 23 22 23
23 23 23 23 24 24 24 24 25 25 25 26 26 26 27 27
27 28 27 28 28 28 29 29 29 30 30 30 30 31 30 30
38 44 32 0 7 7 4 2 0 1 17 50 46 35 0 0
0 0 0 0 2 44 47 36 36 36 36 35 36 36 35 34
34 34 34 33 33 32 32 32 32 32 32 31 31 30 30 29
28 29 28 27 28 27 27 26 26 25 25 24 23 23 23 22
22 22 22 22 25 26 26 26 21 18 23 19 25 25 24 23
22 22 22 20 21 19 18 20 22 22 22 22 23 22 23 23
23 23 24 24 24 24 24 24 25 25 25 26 26 26 27 26
27 27 28 28 28 29 29 29 29 28 29 29 28 29 29 30
39 48 39 0 16 4 0 0 0 0 14 50 46 36 0 0
7 8 0 0 2 43 47 36 36 35 35 35 35 35 35 34
34 34 33 33 33 33 33 33 32 32 31 31 31 30 30 29
28 28 28 28 28 27 27 26 26 25 25 25 25 24 23 23
24 23 22 22 25 27 27 25 21 19 24 19 26 25 25 23
22 22 22 21 21 19 18 21 22 22 23 23 23 24 23 23
24 23 24 24 24 24 24 25 26 25 25 26 26 27 27 27
27 28 28 29 28 28 28 28 29 29 30 29 31 31 30 31
39 48 45 5 12 2 0 0 0 2 11 51 48 37 1 2
8 7 0 0 1 41 46 36 37 35 35 36 35 35 35 35
35 34 34 33 34 33 33 33 33 32 32 32 31 31 30 30
30 29 28 28 28 27 27 27 26 26 26 25 25 24 25 23
23 23 23 24 26 27 26 27 22 19 25 19 25 25 25 24
23 22 23 21 22 20 18 20 22 23 23 24 23 24 24 24
25 24 24 24 25 25 25 25 26 26 27 27 27 27 27 28
27 28 28 28 29 29 30 30 30 30 30 30 30 31 31 30
36 45 49 10 7 1 0 0 0 0 8 47 47 37 1 0
1 4 1 0 1 41 45 37 36 35 35 35 35 35 35 34
34 34 34 34 33 33 33 33 32 32 32 32 31 30 30 30
30 29 29 28 28 28 28 28 27 27 26 25 25 25 24 23
23 23 23 23 27 28 27 27 23 19 25 19 25 25 25 24
23 23 23 22 21 20 18 21 23 24 24 24 24 24 24 24
25 24 24 25 25 25 26 26 26 27 27 27 26 26 26 27
28 28 29 29 29 30 30 31 30 30 31 30 30 30 31 31
35 37 44 11 7 0 1 0 0 0 6 43 46 39 2 0
0 8 8 0 1 41 45 37 36 36 36 35 35 35 35 34
34 34 34 34 33 33 33 33 33 33 32 32 31 31 31 30
30 30 29 29 29 27 27 26 26 26 26 25 25 25 24 24
23 23 23 24 27 28 28 27 23 19 26 20 25 26 25 24
24 22 22 22 22 21 18 21 23 24 24 24 24 25 24 25
25 25 25 25 26 26 26 26 26 26 26 27 27 27 28 28
28 28 30 30 30 30 31 30 30 30 31 31 31 31 31 31
39 32 37 23 22 23 26 25 25 26 27 37 45 42 3 0
2 3 6 0 1 39 45 36 36 36 36 35 35 35 35 34
35 34 34 33 33 34 33 33 33 33 33 32 32 31 31 30
30 29 29 29 28 28 28 28 28 27 27 25 25 25 24 24
23 23 23 24 26 28 27 27 24 20 26 22 25 26 26 25
24 23 23 22 22 22 18 22 23 25 25 25 25 26 25 25
25 26 26 26 26 26 26 26 27 26 27 27 27 28 28 28
29 29 30 30 30 30 31 31 30 31 31 31 31 31 31 31
30 29 31 30 29 29 30 28 28 29 27 26 38 41 7 1
2 2 5 6 9 41 45 37 36 36 36 35 35 35 35 34
35 34 34 34 34 33 33 33 33 33 32 32 32 31 31 31
30 30 30 30 29 29 28 28 27 27 29 28 24 25 24 26
26 23 22 25 27 28 30 28 25 19 26 25 24 27 26 25
25 24 24 23 23 22 19 23 23 25 25 25 25 24 25 25
25 25 25 26 27 26 26 27 27 27 27 28 28 28 29 29
29 29 30 30 30 31 30 31 31 31 31 30 31 31 31 31
15 16 18 18 19 20 22 24 28 31 32 32 32 35 33 32
28 23 19 16 20 42 43 36 36 36 36 35 35 35 35 34
34 34 34 34 34 33 33 33 34 33 32 32 32 32 31 30
30 30 30 29 32 27 28 29 29 32 29 30 26 27 27 27
26 24 25 27 25 27 28 28 24 20 26 26 22 28 27 26
25 24 23 23 24 23 19 23 23 25 25 26 25 25 25 26
26 26 27 26 27 26 27 28 27 27 28 28 28 29 29 29
29 30 31 31 30 31 31 31 31 31 31 31 31 31 31 31
15 15 15 15 15 15 15 16 18 21 24 26 23 23 25 27
30 32 36 37 38 40 39 37 36 36 36 36 36 35 34 34
35 34 34 34 33 33 33 33 34 33 33 33 32 32 32 31
31 30 30 29 34 37 37 35 32 32 32 30 29 27 28 28
31 31 28 26 27 29 28 30 26 19 27 28 22 28 27 26
26 25 24 24 24 23 19 23 23 25 25 25 26 26 26 26
26 26 27 28 28 28 27 28 27 28 28 29 29 29 29 29
30 30 30 31 31 31 31 31 31 31 31 31 31 31 31 32
19 15 16 15 13 14 15 14 16 15 16 16 16 16 17 18
22 23 26 29 32 34 36 36 37 36 36 36 36 36 35 35
35 35 35 34 34 34 34 34 34 33 33 34 33 32 32 31
31 30 30 39 42 38 36 32 26 23 26 29 30 28 30 31
31 28 21 20 23 27 28 31 26 21 26 30 21 28 28 26
26 25 25 24 24 23 20 24 25 26 26 25 26 27 26 27
27 27 27 27 28 28 28 28 27 28 28 29 29 30 30 29
30 30 31 31 31 31 31 32 31 31 31 31 32 32 32 32
34 33 25 24 17 15 14 16 19 17 17 16 15 15 15 15
15 14 16 17 19 22 26 30 33 35 36 36 36 36 35 35
35 35 34 34 34 34 34 34 34 34 33 34 33 33 32 33
32 34 37 36 35 38 34 32 30 25 22 19 29 29 31 34
33 32 31 29 27 27 23 25 28 21 25 29 22 27 27 27
26 25 25 25 24 24 21 25 25 26 26 26 26 27 27 27
27 27 28 28 29 28 29 28 28 29 29 29 29 29 30 30
30 30 30 31 31 31 31 32 32 32 32 31 30 29 29 30
22 31 30 44 44 42 36 32 34 33 33 36 37 25 14 14
15 14 15 14 14 16 15 15 17 18 21 24 27 30 33 34
35 35 34 34 34 34 34 34 34 34 33 34 32 32 33 33
36 36 37 35 30 30 27 24 25 28 30 17 18 24 31 29
32 35 35 34 34 34 27 22 22 23 26 30 22 27 28 27
27 26 25 24 24 24 21 25 25 26 27 27 27 27 28 27
27 27 28 29 29 29 28 29 29 29 29 29 29 29 30 31
30 31 31 31 31 31 31 31 30 31 31 31 31 31 31 31
15 16 19 38 16 9 11 18 30 30 32 44 55 46 32 27
24 23 23 21 19 17 16 15 15 16 16 16 14 12 16 31
35 35 34 35 34 34 34 33 34 33 33 32 32 32 33 34
37 39 35 24 19 17 17 18 22 24 25 22 11 12 21 18
28 35 37 33 29 22 25 25 21 24 26 31 23 26 28 26
26 26 25 25 25 24 22 25 25 26 27 27 28 28 28 28
28 28 29 29 30 29 29 29 29 29 29 30 30 30 30 30
30 29 30 30 30 29 30 31 31 31 30 32 31 31 31 32
16 16 18 36 10 0 0 13 34 32 35 43 51 52 50 48
41 47 47 43 40 26 21 21 18 15 15 16 14 11 15 29
36 35 34 34 33 32 33 33 34 33 33 32 33 32 33 38
45 33 22 15 11 13 15 19 18 30 19 16 9 7 12 23
26 23 28 27 22 13 13 22 25 20 23 27 24 24 29 27
27 26 26 25 25 25 22 25 26 27 27 27 28 28 28 28
28 27 29 29 29 30 30 29 29 29 30 30 30 30 30 30
31 30 30 30 30 30 30 30 30 30 31 32 31 31 31 31
18 17 19 38 10 0 0 7 19 20 24 38 48 53 53 52
46 46 50 49 48 33 31 37 38 32 32 27 21 13 15 29
36 35 35 34 34 39 39 37 36 35 33 33 35 37 39 42
31 18 14 19 21 22 19 15 23 23 28 11 6 5 9 16
8 10 16 14 16 21 14 9 22 22 22 24 25 25 28 28
27 27 26 26 26 25 23 25 25 28 28 28 28 28 29 29
29 29 29 29 29 29 28 28 29 29 30 31 31 30 31 30
31 31 31 31 31 30 31 32 31 31 31 33 31 32 31 31
19 16 19 41 11 0 0 6 5 1 0 27 46 41 30 38
34 39 45 48 48 37 36 40 42 38 46 46 41 16 16 28
35 34 34 34 34 43 43 42 39 37 38 36 36 39 42 31
22 17 27 23 17 16 18 18 17 20 20 13 11 7 12 12
6 6 3 8 18 21 23 21 10 24 23 22 25 22 28 28
26 26 27 25 25 25 23 25 25 27 28 27 28 28 28 28
28 29 28 28 28 28 29 29 29 28 29 29 30 29 29 29
29 29 30 29 30 29 29 29 30 30 30 31 30 31 31 31
3 4 7 39 12 0 0 17 16 0 0 27 48 32 0 14
3 6 11 16 30 39 38 42 44 45 48 48 46 19 16 30
36 36 35 34 34 44 45 42 39 41 42 45 37 46 33 29
18 18 13 16 17 14 18 26 14 15 21 19 19 18 19 17
17 10 3 5 11 15 18 19 29 20 30 23 24 25 28 28
27 27 27 25 26 26 24 25 25 28 28 28 28 28 28 28
29 29 29 29 29 29 30 29 29 29 30 30 31 30 30 30
30 30 30 30 30 30 29 30 30 30 31 33 31 31 31 31
0 0 4 41 13 6 8 25 35 14 0 28 49 33 0 0
0 0 4 4 17 41 40 42 44 46 47 48 47 23 17 33
39 37 37 37 37 38 31 37 40 44 46 42 40 38 36 22
20 8 12 22 27 24 9 13 22 26 31 34 32 34 38 37
35 31 19 10 7 8 9 19 19 28 28 30 26 32 27 29
27 27 28 26 27 27 24 26 25 28 28 28 28 29 30 29
29 29 29 30 30 30 30 30 31 30 30 30 31 30 30 30
30 30 31 30 31 30 31 31 30 31 31 32 32 31 31 31
0 0 4 43 14 6 17 31 25 23 4 24 51 36 0 0
0 0 17 11 21 38 26 33 38 45 46 46 44 23 16 32
40 34 35 40 43 30 0 6 22 31 32 33 49 35 33 23
13 18 22 19 18 15 25 36 49 62 61 64 61 60 64 62
62 63 51 38 22 6 1 9 22 19 25 30 30 26 30 29
28 28 28 27 27 27 25 26 25 29 29 29 29 30 30 30
30 30 30 30 30 30 30 30 30 30 30 30 32 31 31 31
31 31 31 31 31 31 31 31 32 31 31 32 32 31 31 31
0 0 5 46 16 1 11 27 22 16 3 20 51 41 1 0
0 0 14 11 22 34 1 3 8 14 21 22 37 25 17 28
38 38 38 41 46 33 0 0 11 19 30 44 52 36 28 15
8 9 8 9 13 32 63 89 98 102 101 99 97 101 105 109
105 101 92 82 67 36 5 0 7 20 17 23 31 24 21 29
29 28 28 27 27 27 25 25 26 29 29 29 29 30 30 29
30 30 30 30 30 30 31 31 30 30 31 30 32 31 31 31
31 30 31 31 31 31 32 31 32 31 32 33 32 32 31 32
0 0 6 47 18 0 0 6 9 1 0 20 52 43 1 0
0 0 1 0 18 33 0 0 0 0 0 0 26 26 16 7
7 14 23 33 40 33 0 1 7 20 34 65 46 42 27 14
5 3 12 30 55 98 127 134 134 132 132 133 130 130 132 130
125 119 114 109 100 84 37 3 0 15 20 18 23 34 21 24
27 28 27 27 27 26 25 26 26 29 30 29 29 30 30 30
30 30 30 30 30 30 30 30 30 30 31 31 32 31 32 31
31 32 32 32 31 32 32 32 31 31 32 32 31 32 32 32
0 0 3 39 21 0 0 0 0 0 0 18 52 46 2 0
1 3 3 0 18 34 2 1 1 1 0 0 26 27 17 3
0 0 0 1 4 20 2 0 6 30 47 60 44 45 22 7
2 15 29 60 104 134 140 137 138 139 140 139 137 136 135 131
127 124 121 112 104 99 80 31 3 8 20 15 15 35 28 22
26 28 27 28 28 27 26 25 26 30 31 30 30 30 31 30
30 31 31 31 31 31 31 31 31 31 32 32 33 31 32 32
32 32 32 32 32 33 33 31 32 32 32 32 32 33 33 33
0 0 4 38 22 0 0 0 0 0 0 16 53 48 5 1
15 16 11 0 17 34 3 2 8 10 0 0 24 28 17 4
0 0 0 0 0 13 2 0 18 40 61 48 50 48 15 5
10 23 44 92 129 138 138 140 140 140 141 140 139 137 136 135
131 125 122 117 107 95 90 74 22 1 14 16 9 29 30 24
16 29 28 28 28 28 26 25 28 30 30 30 31 30 31 30
30 31 31 31 31 31 31 31 32 31 32 32 33 32 32 32
33 33 33 33 32 32 32 32 32 32 32 33 33 32 32 32
0 0 6 40 32 15 12 12 11 9 8 21 54 50 7 1
2 4 6 0 17 35 3 4 2 16 1 0 24 28 17 4
0 0 0 0 0 11 2 3 26 45 50 42 52 43 12 12
17 31 71 125 136 137 139 140 141 141 141 141 140 140 139 137
133 126 123 120 114 105 91 89 62 6 8 12 9 18 39 24
13 22 27 28 28 28 26 26 28 30 31 31 30 31 32 31
31 31 31 31 32 32 32 32 32 32 33 32 33 31 32 32
32 32 33 33 33 33 32 32 33 33 33 34 33 33 33 33
0 0 4 40 50 49 45 43 41 38 34 34 39 37 5 0
6 6 0 0 15 33 1 3 0 3 0 0 24 27 17 5
0 1 9 3 0 10 3 15 43 44 36 47 54 36 13 18
25 46 108 134 138 138 141 141 142 142 142 142 141 141 140 140
135 132 130 126 119 108 102 92 88 35 7 8 6 9 39 24
16 11 23 26 28 28 27 26 28 30 30 30 31 31 31 31
31 31 32 32 32 32 32 32 32 32 32 32 32 33 32 32
33 33 33 33 34 32 33 33 32 32 32 32 33 32 33 33
0 0 2 44 47 34 36 34 38 42 41 33 25 17 3 2
3 7 1 0 15 31 0 3 3 0 0 0 23 27 16 5
8 6 5 0 0 10 7 32 44 38 30 51 51 30 19 26
31 69 127 141 142 142 142 142 141 141 141 142 142 141 141 141
139 137 134 131 124 118 110 101 90 74 16 4 6 7 31 31
27 7 11 23 28 28 28 26 28 31 31 30 31 31 31 31
32 31 31 32 32 32 32 33 33 32 32 33 32 32 32 33
33 33 33 33 33 33 34 33 33 33 33 33 33 33 33 33
0 0 3 47 32 0 1 2 5 11 18 33 34 38 40 37
34 32 26 20 28 35 5 3 4 2 1 0 26 26 17 8
7 0 1 3 0 12 14 43 31 23 27 43 46 28 22 32
40 99 136 143 143 142 143 143 142 142 142 142 142 141 141 141
139 139 137 133 130 123 114 106 98 88 48 3 3 8 20 40
19 13 3 16 28 29 28 26 28 30 31 31 30 31 31 31
32 32 32 33 32 33 32 32 32 33 33 32 32 32 32 33
34 33 34 34 34 32 33 32 31 32 32 31 31 30 32 31
0 0 3 45 33 1 0 0 0 0 0 18 49 35 23 28
33 40 43 45 41 51 44 28 33 32 31 28 35 25 16 8
1 0 0 0 0 16 29 26 18 13 20 38 35 26 30 38
60 119 140 143 142 142 142 142 142 142 141 142 142 142 141 141
141 139 138 136 133 129 119 108 102 99 77 26 2 6 12 31
16 11 4 15 28 28 27 26 28 30 32 31 31 32 31 32
32 32 33 31 32 34 32 32 32 32 32 32 32 32 32 32
32 32 33 32 33 31 32 32 30 30 29 27 25 22 20 17
0 0 9 46 35 4 0 0 5 5 0 16 52 34 13 10
18 17 13 13 47 60 49 32 42 47 46 46 45 24 17 7
0 0 0 0 0 17 23 16 12 10 16 30 29 26 38 47
92 133 144 143 143 142 142 142 142 141 142 142 142 142 142 141
141 141 137 133 133 132 121 110 105 103 95 56 12 1 7 18
17 3 4 6 24 28 28 26 29 30 31 31 31 31 31 31
31 32 32 30 31 33 32 32 32 33 33 33 33 33 33 33
33 32 32 31 28 25 27 32 19 15 15 14 13 14 15 16
3 2 22 46 33 10 12 3 17 10 0 13 51 34 6 8
9 6 3 4 49 57 41 33 42 47 48 51 48 26 17 15
8 4 1 0 0 11 11 10 6 8 16 28 29 27 47 66
117 140 143 143 143 142 142 143 142 142 142 142 141 141 141 142
141 140 136 132 131 125 119 114 110 108 105 80 44 2 6 11
12 0 2 2 18 28 28 25 30 31 32 32 32 31 31 31
31 31 31 30 30 32 32 32 32 33 33 33 31 30 27 24
21 19 17 16 16 14 16 31 15 15 18 19 20 20 22 22
1 6 31 46 32 21 25 10 13 6 0 12 50 32 0 2
2 0 0 4 47 51 23 12 22 25 28 32 42 26 18 29
43 42 35 29 20 5 9 6 4 7 14 23 26 33 52 86
134 143 143 143 143 143 143 143 143 142 142 143 142 141 142 142
141 140 137 133 128 121 117 115 114 111 108 95 63 24 2 8
10 0 0 0 4 25 28 25 30 30 31 31 30 30 30 29
28 28 31 31 31 31 29 17 21 25 22 19 18 17 16 16
16 18 18 19 20 21 19 27 16 20 24 25 26 26 27 28
9 12 40 50 29 10 6 0 16 21 3 12 49 29 0 0
0 0 0 3 45 51 17 0 0 0 0 1 25 28 19 31
48 50 48 47 22 2 4 4 4 5 13 17 27 45 58 114
141 143 143 143 143 144 143 142 143 143 143 143 142 142 142 142
142 142 139 135 128 121 117 117 116 116 112 103 74 47 2 7
5 0 0 0 0 14 27 25 28 28 28 28 28 28 27 28
25 17 25 23 21 18 8 7 17 18 18 19 20 21 21 22
24 24 25 26 27 26 25 30 20 25 28 29 29 30 30 31
41 40 40 51 42 26 21 21 26 13 3 15 48 30 3 13
0 0 0 1 42 52 17 0 0 0 0 1 22 29 17 28
46 49 48 37 4 2 3 2 3 5 10 19 30 53 75 132
143 144 143 144 143 143 143 143 143 142 142 143 142 142 142 142
141 141 139 136 130 123 117 115 117 118 113 105 85 57 15 6
3 1 0 0 0 2 21 24 26 27 26 26 24 22 21 19
18 15 18 19 16 10 13 23 24 25 26 26 26 26 27 28
28 29 29 29 30 28 21 12 10 28 31 32 31 32 31 32
39 32 5 40 49 37 23 45 40 12 0 17 53 33 13 22
0 0 0 0 35 48 14 0 0 0 18 25 29 34 26 28
36 38 36 15 2 1 2 1 2 5 6 21 38 56 105 139
143 143 144 143 143 143 143 143 143 143 143 142 142 142 142 142
142 142 141 138 133 125 120 116 116 115 113 106 92 65 33 8
2 0 0 0 0 0 9 16 19 18 18 19 19 19 20 21
21 22 23 18 17 15 27 28 29 30 30 30 30 30 31 31
31 32 32 32 31 30 18 3 2 26 32 33 33 32 32 33
29 22 0 28 46 33 8 40 36 13 0 17 53 35 3 16
2 0 0 0 32 44 12 0 0 0 20 28 27 29 24 25
25 27 28 4 1 1 0 1 3 3 3 23 47 75 127 142
142 142 143 143 144 144 144 143 143 143 143 142 142 142 142 142
141 141 141 141 135 127 123 119 116 113 109 105 93 82 39 14
6 0 0 0 0 0 4 15 18 17 20 22 22 24 25 26
27 27 23 18 29 19 30 30 31 31 31 31 33 32 32 31
28 29 22 13 7 17 18 6 2 25 33 34 34 33 33 33
37 31 7 19 42 24 1 32 26 10 0 15 54 38 0 4
1 0 0 0 33 44 11 0 1 0 7 14 21 26 24 25
25 26 20 3 2 2 1 2 4 3 7 28 60 96 136 140
139 142 144 144 143 144 143 143 143 143 142 143 143 142 142 142
143 142 141 141 139 131 125 120 116 112 106 103 98 93 67 20
9 1 0 0 0 0 2 17 23 20 26 27 28 29 30 30
29 29 17 30 32 21 11 12 14 7 13 27 32 30 29 18
2 1 3 1 1 16 19 0 0 24 32 33 34 33 33 33
35 40 22 11 23 23 2 20 18 1 0 15 53 36 0 0
0 0 0 1 37 45 10 0 2 0 0 0 10 19 21 21
9 11 9 0 4 4 3 7 5 3 12 40 76 111 135 138
139 142 144 144 144 144 144 143 143 143 143 143 143 143 142 142
142 142 141 141 140 134 126 120 117 112 105 100 99 93 81 33
11 2 0 0 0 0 1 18 26 23 29 30 30 31 31 30
30 21 25 21 31 25 1 0 0 0 9 13 13 1 0 0
2 1 0 0 0 11 22 0 1 24 33 34 35 33 34 34
2 6 2 0 0 9 20 7 3 6 11 22 50 32 0 0
0 0 0 1 39 45 10 0 3 5 0 0 12 28 28 22
1 0 5 6 5 7 8 4 2 7 19 54 98 122 132 133
136 142 145 144 144 144 144 144 144 144 144 143 142 142 143 143
138 142 138 135 127 119 120 116 114 108 103 93 86 76 65 33
14 7 0 0 0 0 0 14 28 27 31 31 32 32 32 31
25 9 2 0 10 33 3 0 0 0 0 0 0 0 0 0
0 17 0 0 0 5 26 3 2 26 33 34 35 34 34 33
11 0 0 0 0 0 0 7 5 17 42 43 45 35 18 15
10 7 5 5 40 45 10 0 0 9 0 0 13 34 28 23
1 2 8 7 6 4 1 4 4 15 34 79 107 124 128 127
135 140 142 143 144 143 143 141 143 144 143 143 143 143 143 143
139 129 108 92 57 47 58 62 61 59 64 71 78 75 77 51
20 3 0 0 0 0 0 19 29 29 32 32 33 32 32 32
11 10 23 10 1 2 0 0 0 0 0 0 0 0 0 0
0 0 0 0 0 6 26 12 11 29 34 34 35 34 34 34
9 0 0 3 1 2 11 31 37 33 47 50 48 43 46 42
31 35 34 29 36 39 19 1 0 11 8 2 11 36 28 23
5 6 5 1 1 2 4 7 12 21 59 96 113 117 121 125
135 129 132 128 116 92 95 112 121 135 144 143 143 143 143 141
123 86 66 35 19 26 32 38 38 37 40 37 37 34 56 94
58 7 0 0 0 0 3 24 29 30 33 33 33 32 32 26
11 29 21 19 30 30 28 27 27 27 26 11 21 5 0 0
0 0 0 0 0 14 26 24 25 31 34 34 35 33 33 33
10 0 0 11 34 32 44 42 50 49 48 50 51 44 22 15
10 12 17 15 23 34 32 29 23 25 27 21 23 37 24 21
2 5 7 0 1 2 0 5 13 33 89 106 112 111 101 94
78 68 64 49 32 25 37 53 88 114 135 143 143 143 142 134
100 44 21 22 17 9 12 15 16 18 18 26 21 15 8 8
42 6 0 0 0 1 22 26 30 30 33 33 32 32 30 12
16 19 29 33 33 33 33 34 33 33 33 25 4 0 0 0
0 10 12 11 15 29 28 27 30 33 34 33 34 34 34 33
39 20 16 29 47 45 37 27 45 40 28 32 37 39 4 0
0 0 13 10 20 35 32 24 24 31 37 41 43 41 27 21
2 4 8 0 3 0 0 9 17 40 55 44 31 25 25 26
21 14 11 9 9 10 13 17 29 67 117 140 143 142 141 125
73 19 12 5 3 3 8 13 15 18 33 54 36 12 6 8
24 4 0 0 0 0 23 27 30 30 33 33 33 32 16 20
33 33 33 33 34 33 34 34 33 33 31 4 0 1 0 0
0 31 33 32 32 31 30 30 33 34 34 33 34 34 33 34
49 48 47 48 48 44 24 2 15 11 0 0 4 35 4 0
2 4 7 12 26 35 28 4 0 5 10 21 44 40 25 21
6 1 3 1 5 0 0 4 18 85 56 42 27 16 9 5
1 0 0 0 0 1 1 4 8 29 65 116 140 142 136 95
25 7 0 0 3 1 5 10 17 38 86 119 77 21 7 3
28 3 0 0 0 0 21 27 29 30 32 33 32 23 12 32
33 33 33 33 33 33 33 33 33 33 31 3 0 3 10 0
0 29 32 32 32 31 31 31 32 32 32 32 32 33 33 33
49 50 50 48 41 33 17 0 0 2 0 0 2 36 6 1
21 30 14 6 24 37 27 1 2 18 20 24 42 35 24 24
19 4 2 1 6 1 0 3 18 82 43 25 20 17 14 9
4 0 0 0 0 3 0 1 2 8 27 60 118 129 98 35
28 0 0 0 0 0 4 12 38 70 141 150 104 23 14 3
20 8 0 0 0 0 25 27 29 29 31 31 28 8 28 32
32 32 33 33 33 33 33 33 33 33 31 4 0 0 0 0
0 26 32 32 32 31 31 32 32 32 32 33 33 33 32 32
51 51 51 44 16 16 10 6 3 13 7 0 2 36 7 10
31 29 3 0 23 40 28 0 1 12 28 32 43 30 23 25
17 0 2 0 0 0 0 2 11 43 45 103 99 35 19 11
7 1 0 0 0 0 0 0 0 2 19 32 69 31 45 32
37 0 0 0 0 0 4 12 43 76 144 146 86 19 15 10
16 11 0 0 0 4 28 29 30 30 32 32 17 21 33 33
33 33 33 34 33 33 33 33 32 32 30 3 0 0 0 0
0 23 34 33 32 32 33 33 34 34 33 34 34 33 33 33
25 28 31 36 39 41 35 36 34 36 15 0 2 35 9 2
28 34 2 0 25 42 29 0 0 1 8 29 44 30 25 26
17 5 4 0 0 0 0 1 15 36 90 152 130 38 18 5
4 0 0 0 0 0 0 0 1 1 22 31 54 27 38 34
43 0 0 0 0 0 4 10 26 43 68 66 28 16 16 10
16 15 0 0 4 6 27 29 30 30 33 31 11 31 32 32
32 32 32 34 33 34 33 30 24 17 18 2 0 0 0 0
0 22 33 33 33 33 33 34 34 33 33 33 33 33 33 33
0 0 0 4 27 29 8 3 5 6 2 0 3 35 6 0
12 14 3 2 26 42 30 1 0 0 0 24 46 30 24 25
34 38 25 0 0 0 0 2 9 35 85 145 96 31 22 8
10 0 0 0 0 0 0 0 0 0 25 32 29 42 42 30
54 1 0 0 0 0 0 3 11 20 25 25 14 13 15 10
16 16 2 14 24 7 23 29 30 31 33 31 11 33 33 33
33 34 34 34 35 35 33 11 8 1 0 0 0 0 0 0
0 19 34 33 33 33 34 33 34 33 33 33 33 33 33 32
0 0 0 2 30 34 7 0 0 0 0 0 1 35 6 0
0 0 1 0 25 43 29 0 0 0 0 22 47 31 25 26
43 53 40 2 0 0 0 1 9 45 39 60 40 33 20 5
2 0 0 0 0 0 0 0 0 0 26 33 85 136 124 57
47 7 0 0 0 0 0 1 6 10 11 12 8 9 14 9
16 13 3 26 47 4 18 30 30 31 33 30 12 34 33 33
33 34 34 33 35 34 34 27 37 16 23 0 0 0 0 1
1 12 29 32 33 33 34 34 33 33 34 33 33 33 33 33
0 0 0 3 36 40 13 0 0 0 0 0 1 34 8 0
0 0 0 0 23 43 27 0 0 0 0 21 47 32 23 26
39 49 45 7 0 0 0 0 8 44 30 33 30 27 17 6
0 0 0 0 0 0 0 0 0 0 26 37 119 138 128 98
35 22 0 0 0 0 0 1 2 4 7 6 3 6 12 7
20 10 12 48 52 15 21 30 30 31 33 31 12 33 34 34
34 34 34 34 34 34 34 44 48 18 8 0 0 0 0 0
0 3 6 16 17 25 34 34 33 34 34 33 33 33 33 32
6 10 10 14 40 45 20 0 0 0 0 0 1 33 6 0
0 0 0 0 22 44 28 0 0 0 0 18 43 28 23 25
26 29 29 9 4 28 23 5 6 41 28 24 20 19 16 5
0 0 0 0 0 0 0 0 0 0 32 50 126 138 133 111
46 37 0 0 0 0 0 0 0 1 2 2 1 4 8 6
24 10 23 70 57 27 26 29 30 31 32 32 12 32 34 34
33 34 32 29 27 25 22 9 5 6 0 0 0 0 0 0
0 1 3 0 4 18 35 34 34 34 34 34 34 34 32 33
30 37 36 38 44 36 11 0 0 0 0 0 0 32 7 0
0 0 0 0 21 44 29 0 0 0 0 16 45 31 22 25
31 35 33 18 34 54 32 9 4 35 30 17 17 18 15 5
0 0 0 0 0 0 0 0 0 1 33 63 127 138 132 115
78 30 11 0 0 0 0 0 0 1 4 3 2 3 6 4
27 13 29 81 78 45 28 29 29 31 32 32 15 29 33 33
34 33 24 8 6 8 8 3 0 0 0 0 0 0 0 0
0 1 5 1 3 19 35 34 35 34 34 34 33 33 32 32
37 38 39 44 46 22 0 0 0 0 0 0 0 31 18 12
13 16 21 24 35 42 27 0 0 0 0 18 48 32 21 25
33 38 38 32 53 40 58 25 11 38 22 13 16 16 14 5
0 0 0 0 0 0 0 0 0 10 30 86 125 137 133 117
99 28 37 0 0 0 0 0 1 5 11 6 7 3 3 5
30 20 30 83 86 47 27 29 28 32 32 32 21 24 33 30
29 26 15 3 3 3 3 2 5 3 0 0 0 0 0 0
0 0 6 2 2 17 35 35 35 35 34 34 33 33 33 33
11 15 21 28 46 35 24 24 22 20 19 19 21 38 39 39
39 41 43 44 43 34 26 18 15 13 10 23 44 30 23 28
33 37 39 40 59 57 91 63 32 42 33 12 14 14 14 4
0 0 0 0 0 0 0 0 1 32 28 108 121 132 134 119
102 62 28 22 0 0 0 0 6 9 13 7 7 2 2 13
40 29 51 93 96 47 27 29 28 29 27 23 14 8 9 6
5 4 5 5 6 7 7 7 6 3 8 6 0 0 0 0
0 0 6 3 3 13 34 35 34 34 33 33 32 31 32 31
0 0 0 7 43 46 46 45 44 43 42 43 45 44 41 37
40 40 41 41 40 38 38 38 38 36 35 36 38 36 35 36
36 36 37 38 67 68 91 85 45 44 52 16 13 14 13 3
0 0 0 0 0 0 0 0 8 37 53 113 120 132 137 118
103 90 29 38 10 0 0 1 10 13 15 9 11 7 3 28
67 41 78 99 95 45 26 28 21 9 4 4 5 7 7 9
10 10 9 10 10 9 9 6 2 1 6 12 0 0 0 0
0 0 4 6 10 13 31 32 33 33 32 32 33 32 32 32
0 0 1 9 45 50 50 48 50 47 48 50 49 35 26 27
37 37 37 37 37 36 37 36 37 37 36 36 36 36 36 36
36 37 37 38 72 77 105 104 78 38 78 30 12 14 13 2
0 0 0 0 0 0 0 0 30 24 94 112 116 132 136 116
105 95 78 14 38 15 0 0 15 18 18 16 11 12 31 71
78 58 106 106 96 44 27 28 20 10 9 9 9 9 10 9
8 7 6 5 4 3 10 8 3 5 9 5 0 0 0 4
1 0 4 10 11 13 29 34 34 34 34 34 33 33 32 32
0 0 0 8 45 46 44 41 42 40 41 46 39 20 20 24
35 37 37 36 35 36 35 36 35 35 35 35 35 34 34 34
34 35 35 36 79 70 108 116 105 48 98 42 16 16 16 6
0 0 0 0 0 0 0 7 29 41 112 108 118 131 134 117
108 96 94 65 12 27 23 13 21 17 19 28 35 49 82 98
81 76 108 111 96 39 26 26 13 11 10 5 4 2 1 0
0 0 0 0 0 1 11 10 7 4 4 0 0 0 0 1
0 0 7 7 6 10 31 34 34 33 34 33 33 33 32 32
0 0 0 8 44 22 9 12 9 8 9 15 12 18 19 23
35 36 29 20 18 17 17 15 15 14 13 12 12 11 11 11
11 11 12 13 83 60 108 116 116 67 98 91 21 17 20 14
0 0 0 0 0 0 5 20 21 88 110 110 120 126 130 121
108 92 94 98 81 43 22 21 26 29 32 41 77 107 105 97
82 85 98 114 94 32 26 26 17 11 9 0 0 0 0 0
0 0 0 0 0 3 11 10 9 7 7 8 7 9 10 10
11 14 18 18 16 16 24 23 23 26 34 33 33 33 33 32
0 0 0 8 45 16 0 0 0 0 0 7 4 18 20 23
33 35 23 2 0 0 0 0 0 0 0 0 0 0 0 0
0 0 0 0 64 67 105 117 99 74 97 109 87 24 17 17
2 0 0 0 5 11 25 37 64 110 106 112 119 128 134 129
113 96 92 103 108 113 108 101 101 106 113 112 110 108 104 95
82 92 96 112 92 23 26 26 16 10 7 0 0 0 0 0
0 0 0 0 0 6 12 10 9 27 21 20 21 27 26 22
27 24 22 22 16 14 45 20 15 19 34 33 33 33 31 31
0 0 0 8 44 17 0 0 0 0 2 11 13 18 19 22
32 35 27 5 0 0 0 0 0 0 0 0 0 0 0 0
0 0 0 1 26 87 98 117 97 88 96 106 111 107 68 40
18 12 14 17 29 60 76 82 112 109 103 113 121 137 138 137
119 98 93 102 111 115 118 120 121 121 124 120 113 108 103 95
82 98 91 103 84 13 24 23 13 9 3 0 0 0 0 0
0 0 0 0 0 8 11 10 9 24 17 20 24 30 53 49
65 66 69 30 15 34 111 50 12 16 33 32 31 16 6 5
0 0 0 5 42 18 0 0 0 8 14 15 13 17 18 21
31 36 29 8 0 0 0 0 0 0 0 0 0 0 0 0
0 0 0 0 3 72 97 118 99 88 96 102 111 115 120 124
122 96 83 94 111 122 127 122 118 110 109 109 124 143 141 141
120 100 94 99 113 112 119 120 121 121 122 118 113 107 103 96
82 89 91 103 65 10 22 21 11 9 1 0 0 0 0 0
0 0 0 0 0 11 10 11 8 19 16 22 25 33 85 71
91 89 91 34 16 96 121 108 27 16 32 32 29 1 0 0
0 0 0 4 40 19 0 0 6 14 14 14 12 16 18 20
29 35 31 12 0 0 0 0 0 0 0 0 0 0 0 0
0 0 0 0 1 24 101 117 97 87 100 98 109 116 121 131
139 144 144 144 144 143 134 122 118 113 107 105 115 137 134 128
106 94 95 96 111 115 118 117 120 119 121 117 112 106 104 96
83 110 104 101 53 21 26 19 10 9 0 0 0 0 0 0
0 0 0 0 2 11 10 13 8 12 24 28 32 30 48 41
43 41 36 29 26 54 39 33 26 18 31 32 29 1 0 0
0 0 0 4 40 19 0 0 6 13 13 14 12 17 18 21
28 35 31 14 0 0 0 0 0 0 0 0 0 0 0 0
0 0 0 1 1 6 80 111 89 91 106 95 107 116 121 127
141 144 144 144 144 142 129 120 113 109 98 95 101 116 118 109
88 53 70 93 111 119 118 118 119 118 118 116 113 107 105 96
87 120 108 103 50 42 39 18 10 7 0 0 0 0 0 0
0 0 0 0 5 11 10 14 6 1 26 31 35 24 25 26
22 19 20 22 24 24 24 23 24 16 30 32 32 12 0 0
0 0 0 5 38 20 0 0 5 13 14 14 13 16 18 21
27 34 32 17 0 0 0 0 0 0 0 0 0 0 0 0
0 0 0 0 1 3 51 112 107 102 109 94 104 114 118 124
136 142 145 144 144 141 123 118 112 94 49 20 67 99 96 86
57 29 51 87 112 118 117 119 120 118 119 118 110 110 107 97
90 117 108 85 46 44 36 14 10 5 0 0 0 0 0 0
0 0 0 0 7 11 11 13 2 2 19 26 36 24 26 20
21 18 16 22 25 25 25 24 23 16 30 33 31 31 4 0
17 16 15 21 42 24 0 0 6 14 14 14 12 16 18 21
27 35 33 20 0 0 0 0 0 0 0 0 0 0 0 0
0 0 0 1 1 2 30 101 113 119 113 94 100 110 113 121
131 142 144 145 144 142 126 118 115 87 65 88 91 88 72 77
85 100 85 92 113 112 113 118 118 117 118 118 112 110 108 94
91 112 101 60 47 45 32 13 11 2 0 0 0 0 0 0
0 0 0 0 10 11 12 10 0 0 1 13 35 25 25 15
18 17 19 23 28 26 25 24 24 10 27 26 5 7 3 0
42 42 42 40 38 27 0 0 7 13 14 14 12 16 18 19
25 34 32 21 1 0 0 0 0 0 0 0 0 0 0 0
0 0 0 0 0 1 23 74 114 122 115 97 95 106 108 115
128 137 142 143 143 142 131 121 116 103 95 101 102 91 76 82
100 103 99 109 113 115 117 119 117 116 119 118 114 109 106 93
88 104 72 47 47 44 26 11 10 0 0 0 0 0 0 0
0 0 0 1 11 10 11 7 0 0 0 17 32 25 24 14
19 17 17 24 26 25 25 23 22 10 14 3 0 0 6 0
26 19 14 8 10 27 1 0 7 13 14 14 12 16 17 19
25 33 32 23 1 0 0 0 0 0 0 0 0 0 0 0
0 0 0 0 0 1 20 49 108 119 122 104 91 100 108 112
123 131 138 140 143 143 139 131 126 125 122 119 118 118 111 111
110 112 116 119 115 114 116 118 118 112 119 117 114 109 103 92
71 55 46 48 47 43 21 10 8 0 0 0 0 0 0 0
0 0 0 4 11 10 12 5 0 9 10 27 33 26 23 13
19 17 16 25 25 25 25 23 23 12 0 0 0 4 0 0
5 0 0 0 2 26 4 0 8 12 13 13 12 15 18 18
23 33 32 23 2 0 0 0 0 0 0 0 0 0 0 0
0 0 0 0 0 0 17 35 81 114 117 106 89 96 107 110
120 130 136 140 141 140 135 130 132 136 133 133 132 128 125 125
125 122 122 122 119 115 118 120 121 118 118 117 114 108 104 91
57 41 49 47 47 41 16 10 6 0 0 0 0 0 0 0
0 0 0 6 11 11 12 2 0 12 7 31 30 25 20 6
14 17 17 25 25 25 25 24 23 13 0 0 0 8 0 0
1 0 0 0 3 33 35 24 18 11 12 12 11 14 17 18
22 32 33 24 3 0 0 0 0 0 0 0 0 0 0 0
0 0 0 0 0 0 14 33 37 93 102 89 87 95 104 109
117 127 132 136 138 137 129 127 132 135 135 134 136 135 128 132
130 127 122 122 118 114 116 120 124 118 114 116 112 106 99 91
64 49 51 48 46 36 13 10 3 0 0 0 0 0 0 0
0 0 0 8 11 11 11 0 1 10 7 34 29 19 6 1
12 15 15 22 24 24 24 25 24 13 0 1 5 9 2 1
0 0 0 0 7 36 28 12 10 10 12 13 11 14 16 18
22 31 32 24 4 0 0 0 0 0 0 0 0 0 0 0
0 0 0 0 0 0 12 34 24 24 37 27 74 95 102 109
116 124 129 134 135 133 124 124 128 131 129 137 138 134 133 136
135 131 124 120 116 112 113 117 118 120 113 115 109 102 98 90
64 50 52 49 46 30 12 10 1 0 0 0 0 0 0 0
0 0 0 10 11 12 10 0 4 13 14 35 27 16 5 1
13 15 16 23 25 25 23 25 25 15 5 9 11 11 10 7
0 0 0 0 6 33 15 0 1 10 12 12 10 13 16 17
21 30 31 25 5 0 0 0 0 0 0 0 0 0 0 0
0 0 0 0 0 0 11 34 29 16 8 3 55 97 100 108
115 124 130 134 133 130 120 124 124 128 135 137 139 138 138 140
140 133 126 117 111 108 108 113 111 117 115 113 107 102 96 89
64 51 52 49 45 22 11 9 0 0 0 0 0 0 0 0
0 0 2 11 10 11 7 0 44 49 17 35 26 16 4 2
12 14 16 23 25 24 24 25 25 16 2 4 4 3 2 0
0 0 0 0 4 32 16 0 0 9 10 12 10 11 16 17
20 30 32 26 5 0 0 0 0 0 0 0 0 0 0 0
0 0 0 0 0 0 9 33 29 21 6 1 33 97 103 109
117 123 129 130 128 128 115 120 121 127 131 127 127 136 138 131
118 115 117 114 108 103 102 105 106 114 117 112 107 100 94 89
62 50 53 49 43 18 11 7 0 0 0 0 0 0 0 0
0 0 5 12 11 13 4 1 55 42 19 35 26 17 9 12
18 14 19 25 26 25 24 25 26 18 0 0 0 0 0 0
4 3 6 12 16 32 18 0 0 8 10 11 10 11 15 16
19 29 31 25 6 0 0 0 0 0 0 0 0 0 0 0
0 0 0 0 0 0 8 32 30 29 11 0 22 97 100 110
115 122 131 133 128 121 112 111 113 111 103 104 105 106 105 99
97 95 89 84 90 91 83 93 109 117 117 110 105 97 97 87
56 52 53 49 38 15 11 4 0 0 0 0 0 0 0 0
0 0 7 11 11 13 2 0 15 13 27 33 27 21 17 11
18 16 22 28 26 24 24 25 25 17 0 0 0 0 0 0
19 20 25 32 39 40 27 4 1 8 10 11 10 10 14 15
17 28 31 25 6 0 0 0 0 0 0 0 0 0 0 0
0 0 0 0 0 0 7 32 29 33 36 4 7 95 99 109
115 121 132 134 130 118 93 81 77 77 89 94 89 90 93 77
73 73 65 59 56 58 50 57 106 120 116 111 103 97 96 83
48 50 53 50 31 12 12 3 1 2 2 2 2 2 2 2
2 2 11 13 12 12 0 0 5 9 35 31 28 24 16 13
18 17 22 27 27 25 25 24 24 18 1 0 0 0 0 0
29 30 32 37 42 41 37 29 25 21 11 10 10 9 13 14
17 27 31 25 6 0 0 0 0 0 0 0 0 0 0 0
0 0 0 0 0 0 6 31 28 31 42 34 17 80 103 108
112 119 130 138 132 112 72 70 74 84 92 100 103 99 95 98
102 98 94 90 86 96 108 94 111 125 114 108 101 98 95 78
38 49 51 49 25 11 11 10 10 10 10 10 10 10 10 11
11 11 12 11 13 9 0 0 4 11 37 29 28 23 15 12
18 18 23 26 26 24 25 25 23 18 1 0 0 0 0 0
23 21 21 20 20 19 19 12 10 11 8 8 8 8 13 14
17 27 30 25 7 0 0 0 0 0 0 0 0 0 0 0
0 0 0 0 0 0 5 30 28 24 22 21 19 58 102 108
110 116 125 136 132 129 125 125 115 114 116 124 127 122 123 121
119 112 99 99 105 112 115 122 133 123 108 101 95 96 92 67
25 47 51 47 20 11 10 11 11 11 11 11 11 11 11 11
11 11 12 11 15 7 0 1 3 15 37 28 27 22 15 11
17 18 24 26 25 24 25 24 24 19 1 0 0 0 0 0
10 10 10 10 13 15 17 1 0 4 7 7 7 6 11 13
16 25 29 24 6 0 0 0 0 0 0 0 0 0 0 0
0 0 0 0 0 0 5 29 28 23 20 20 20 39 98 106
109 111 118 131 136 140 141 135 128 123 122 123 120 115 111 110
109 107 105 105 109 112 116 118 124 114 103 97 93 94 84 47
19 48 51 48 17 8 12 12 11 13 20 18 12 11 11 11
13 16 12 7 12 3 0 9 22 26 35 27 26 21 14 11
16 19 25 26 25 24 25 25 24 20 1 0 0 0 0 0
4 3 3 3 10 12 17 2 0 2 6 8 8 7 11 12
15 25 29 25 7 0 0 0 0 0 0 0 0 0 0 0
0 0 0 0 0 0 6 31 28 25 25 25 24 25 86 102
106 108 107 122 138 144 145 139 133 128 121 119 113 104 99 100
105 107 104 106 109 113 117 107 113 103 98 95 93 89 78 24
14 45 47 38 17 11 25 29 36 54 88 85 61 58 40 30
35 31 30 26 8 0 7 36 19 30 35 28 26 15 8 12
13 20 25 26 26 25 26 25 24 20 1 0 0 0 0 0
1 3 4 3 8 17 20 3 0 0 1 5 8 7 11 12
14 24 28 24 8 0 0 0 0 0 0 1 1 2 3 4
5 6 7 8 10 12 18 30 26 24 26 27 27 25 60 98
102 103 103 110 124 135 140 139 133 132 125 120 115 116 116 114
110 107 106 111 113 114 115 112 108 100 94 94 93 84 60 4
12 40 32 18 22 56 93 102 118 131 138 138 128 113 72 17
10 9 11 15 28 13 49 135 55 31 31 27 25 15 15 13
11 20 25 24 26 25 25 26 24 20 2 0 0 0 0 0
17 20 21 21 20 14 16 2 0 1 4 1 7 6 10 11
14 23 28 26 16 8 10 12 14 16 18 19 20 21 22 23
24 24 24 25 25 24 24 24 24 25 26 26 26 25 45 92
97 101 102 104 113 121 131 132 133 135 134 133 128 124 121 119
116 113 116 115 115 113 111 110 105 99 93 90 89 78 30 28
40 44 40 37 38 58 97 103 113 123 129 139 129 113 71 10
9 9 7 11 20 20 81 140 45 35 29 27 24 11 9 1
5 18 20 18 21 23 25 24 24 22 2 0 0 0 0 0
21 23 25 25 25 21 5 0 0 2 6 1 6 6 10 11
13 23 28 28 27 25 24 27 28 27 26 27 25 26 25 26
26 25 25 25 25 25 24 24 25 25 27 27 26 27 41 91
94 98 99 102 109 108 122 126 129 131 136 138 134 131 126 126
121 122 121 117 115 112 110 107 101 97 89 89 83 72 43 32
36 35 36 43 49 52 79 102 116 128 133 132 122 105 57 7
6 7 5 25 6 0 41 52 17 39 26 9 5 0 0 2
0 1 7 26 27 23 24 20 23 22 2 0 0 0 0 0
22 20 21 24 27 22 11 4 0 1 1 0 1 2 8 10
13 23 29 28 28 27 22 26 27 26 26 26 26 26 29 26
18 18 21 23 16 18 23 22 23 25 28 28 27 28 41 104
91 94 96 100 108 112 117 125 128 131 135 140 143 143 141 138
135 131 121 115 113 113 111 107 99 94 87 85 73 84 42 19
20 19 19 38 41 36 51 77 38 84 99 92 77 53 12 6
7 6 17 42 32 33 44 52 44 47 24 4 0 0 0 0
0 0 0 21 16 18 24 17 19 21 4 0 0 0 0 0
23 19 17 28 34 19 4 0 0 0 0 0 0 2 8 10
13 22 29 28 29 28 24 26 25 25 24 23 27 45 52 19
1 0 2 4 1 2 14 20 19 18 16 14 17 28 33 103
107 90 94 99 104 115 120 126 134 132 131 134 144 145 145 142
139 127 114 111 118 118 113 110 99 89 85 78 78 92 35 10
20 16 5 11 34 56 60 55 25 5 5 6 9 8 4 9
14 60 78 89 97 96 91 96 95 73 32 33 0 0 0 0
0 0 0 9 15 24 24 16 13 7 13 10 1 0 0 0
15 14 14 34 23 11 0 0 0 0 0 0 0 1 1 3
5 9 13 12 11 10 9 8 7 9 11 14 46 65 29 1
0 0 0 0 0 0 0 1 1 0 0 0 0 30 12 97
112 99 89 97 98 110 119 124 134 133 127 130 141 144 143 136
126 115 110 117 124 119 111 107 94 82 81 74 92 94 37 6
23 18 3 0 5 35 56 64 70 43 17 11 14 13 14 27
62 104 95 99 101 90 82 94 97 73 18 24 0 0 0 0
0 0 0 1 19 27 16 13 16 7 2 3 1 0 0 0
10 5 25 38 18 14 4 0 0 0 0 0 0 0 0 0
0 0 0 0 0 0 0 1 0 2 13 28 62 44 5 0
0 0 0 0 0 0 0 0 0 0 0 0 8 37 4 94
112 112 89 88 94 103 114 120 131 138 128 126 130 133 134 127
119 114 112 116 119 112 105 98 87 74 69 90 87 93 46 2
13 30 5 2 3 4 4 4 12 35 65 60 38 45 83 75
56 63 73 85 87 86 85 88 91 68 8 5 4 3 5 3
3 7 6 5 10 9 0 0 0 0 0 0 0 0 0 0
8 3 60 18 2 12 12 2 0 0 0 0 0 0 0 0
0 0 0 0 0 0 3 5 1 2 17 46 52 18 0 0
0 0 0 0 0 0 0 0 0 0 0 0 42 38 2 89
111 114 106 84 88 98 108 118 125 131 128 124 128 126 125 121
117 115 114 109 111 105 97 89 79 67 85 101 96 93 55 0
23 55 21 15 19 25 31 41 36 22 25 49 68 68 59 62
80 101 106 94 68 61 59 51 50 43 30 28 27 20 15 7
1 4 4 2 0 0 0 0 0 0 0 0 0 0 0 0
19 7 42 1 0 5 15 18 0 0 0 0 0 0 0 0
1 1 0 0 0 0 4 8 8 3 17 55 33 1 2 10
5 0 0 0 0 0 0 0 0 0 0 0 49 12 0 83
110 114 112 103 83 89 101 110 117 121 124 122 118 118 121 118
115 111 107 101 104 96 89 78 66 79 102 102 98 92 58 0
13 24 53 66 94 131 142 144 142 116 78 67 69 73 89 126
144 144 143 144 121 81 53 38 33 25 18 14 15 11 9 4
1 1 1 0 0 0 0 0 0 0 0 0 0 0 0 0
12 9 20 0 0 0 16 8 0 0 0 0 1 2 1 1
4 2 2 0 1 4 8 14 14 3 24 57 22 14 26 33
18 0 0 3 0 0 0 0 0 0 0 6 57 4 0 78
109 113 113 104 102 82 89 101 112 116 116 114 111 111 113 112
108 101 97 99 94 84 75 65 67 100 104 103 99 91 64 0
3 13 39 54 82 108 143 144 122 76 63 50 51 52 76 116
145 144 143 143 129 88 55 41 31 23 19 15 16 11 11 5
1 1 2 0 0 0 0 0 0 0 0 0 0 0 0 0
0 9 12 0 0 0 1 0 0 1 0 5 3 8 9 8
8 8 10 13 18 20 17 14 10 0 34 45 8 22 33 34
27 2 10 25 14 2 0 4 5 1 0 21 48 3 0 75
108 113 114 110 108 98 79 91 103 112 114 107 102 99 105 102
98 91 90 90 80 73 61 70 93 107 105 103 97 89 69 0
2 10 34 47 80 102 142 144 121 74 62 52 50 53 80 117
145 142 140 144 131 88 54 42 32 25 19 16 15 13 11 7
2 0 3 0 0 0 0 0 0 0 0 0 0 0 0 0
0 9 12 2 5 0 0 0 0 0 0 1 2 5 6 5
5 7 8 14 23 23 12 6 2 1 42 42 2 19 35 35
23 4 27 36 28 11 0 4 1 0 0 33 41 1 0 75
106 112 113 112 111 106 95 80 90 96 100 96 97 97 95 87
82 81 76 71 64 56 75 97 102 105 105 100 96 89 69 3
1 9 24 48 63 98 141 145 123 76 61 47 44 55 73 111
145 140 137 144 130 85 56 40 31 24 19 16 15 12 11 7
2 0 4 1 0 0 0 0 0 0 0 0 0 0 0 0
1 12 15 7 4 0 0 0 0 0 0 0 2 2 2 1
2 3 5 12 22 19 3 0 0 3 47 43 2 19 17 14
25 24 40 38 28 16 1 6 0 0 3 43 52 3 0 77
104 110 112 112 112 110 108 99 75 72 75 71 73 70 65 58
56 54 50 50 65 89 95 98 103 104 102 98 94 87 71 9
0 14 35 46 60 94 139 144 124 77 58 44 47 59 75 112
144 140 136 143 131 87 58 41 31 24 21 15 15 13 12 8
2 0 2 1 0 0 0 0 0 0 0 0 0 0 0 0
0 11 14 8 5 0 0 0 0 0 0 0 1 1 1 1
2 3 4 11 21 17 3 0 0 3 50 45 5 14 4 7
28 36 45 31 20 23 1 2 0 9 34 59 79 8 0 77
104 109 111 111 112 110 110 109 109 95 75 68 62 48 28 19
19 35 66 91 95 94 95 100 102 102 101 98 94 88 75 14
0 17 42 33 31 46 93 135 125 77 54 42 45 54 73 111
145 140 136 144 133 90 60 42 31 23 21 14 16 12 11 8
2 2 2 1 0 0 0 0 0 0 0 0 0 0 0 0
2 21 12 7 6 0 0 0 0 0 0 0 0 2 0 3
5 5 5 11 21 15 7 7 0 3 50 57 19 17 1 11
33 46 42 10 8 22 4 14 23 23 34 61 49 4 0 71
103 108 110 111 112 111 111 108 110 110 107 104 96 86 67 50
57 79 94 96 94 94 94 98 101 102 100 96 93 88 73 19
0 9 20 36 29 26 25 26 60 61 53 43 46 53 73 107
143 139 135 144 132 87 62 43 26 21 18 15 15 12 12 9
3 3 2 0 0 0 0 0 0 0 0 0 0 0 0 0
7 9 1 3 5 1 0 0 0 0 0 0 1 4 0 3
5 5 10 21 28 24 18 18 2 2 40 52 32 15 0 10
35 43 25 2 7 28 44 41 28 23 37 54 51 11 0 57
104 108 110 111 111 113 111 109 109 109 105 102 99 100 105 109
111 103 100 95 93 93 97 97 99 101 98 96 92 87 73 22
0 10 21 35 22 35 43 30 48 24 26 36 47 54 71 105
143 141 136 144 134 92 62 42 26 19 14 12 13 13 13 10
2 5 3 0 0 0 0 0 0 0 0 0 0 0 0 0
0 0 1 1 3 2 0 0 0 0 0 0 6 9 0 2
4 5 22 33 27 24 18 16 3 0 37 50 44 11 0 13
31 21 5 16 40 44 64 36 34 55 33 46 61 13 3 34
103 107 110 111 112 110 110 110 108 107 107 105 110 117 120 120
119 113 103 92 91 94 96 98 100 99 98 95 91 86 72 18
1 12 22 30 21 21 29 74 41 17 16 17 28 44 68 99
142 141 135 144 135 91 58 36 26 21 14 9 11 13 12 11
2 4 2 0 0 0 0 0 0 0 0 0 0 0 0 0
8 9 13 10 2 1 0 0 0 0 0 0 4 10 0 3
2 1 13 28 31 30 24 22 7 0 24 35 28 5 0 1
3 3 33 48 40 29 44 47 59 34 30 36 65 19 10 11
96 108 109 111 110 110 109 111 108 109 110 111 116 121 124 125
120 107 94 88 91 94 96 100 99 98 98 95 93 86 70 8
0 13 22 26 22 21 21 51 53 19 18 18 18 24 49 76
129 142 133 144 136 93 60 36 32 24 13 7 11 12 13 11
2 4 3 0 0 0 0 0 0 0 0 0 0 0 0 0
17 18 18 16 9 0 1 0 0 0 0 0 3 15 16 11
4 0 2 9 18 16 9 5 1 0 1 1 0 0 1 13
35 57 33 15 26 31 53 88 29 31 34 32 67 27 21 0
69 108 110 111 111 113 112 110 110 108 113 114 113 119 121 118
108 97 91 89 91 94 95 99 99 98 98 96 93 85 61 1
9 36 30 28 43 30 29 39 22 34 43 28 18 33 41 24
31 54 74 95 111 92 57 41 33 24 14 10 12 13 13 11
3 5 4 0 0 0 0 0 0 0 0 0 0 0 0 0
10 10 14 14 6 0 3 0 0 0 0 0 0 7 22 7
0 0 0 0 0 0 0 0 0 0 0 0 10 29 45 49
55 54 25 17 26 36 67 46 37 23 34 37 70 77 53 13
29 107 112 114 116 116 116 112 109 112 111 111 111 113 114 110
100 93 89 89 92 94 97 102 102 102 100 97 92 86 41 1
27 40 35 25 30 47 45 30 18 19 22 41 57 69 30 19
25 22 26 48 76 56 55 40 30 23 16 11 13 13 12 10
3 5 3 1 0 0 0 0 0 0 0 0 0 0 0 0
0 0 0 0 0 9 29 0 1 0 0 0 0 0 7 0
0 0 0 0 0 0 0 0 0 0 12 40 40 58 62 37
44 59 36 27 45 61 25 40 19 14 40 53 73 99 43 30
5 81 113 116 116 119 117 115 113 109 111 111 107 106 103 98
92 88 86 89 93 99 100 104 106 104 101 97 92 82 19 4
32 29 34 42 40 39 81 35 20 22 19 20 33 68 50 46
20 24 21 33 40 17 30 34 27 20 16 13 13 14 13 10
4 5 1 1 0 0 0 0 0 0 0 0 0 0 0 0
0 0 0 0 0 17 50 0 5 1 0 0 0 0 6 1
0 0 0 0 0 0 0 0 5 25 56 67 51 64 41 42
44 65 71 63 44 20 18 54 30 25 52 58 59 85 34 40
14 29 107 115 117 116 120 117 113 113 111 110 110 109 104 98
95 94 94 96 100 101 107 110 110 106 100 94 90 60 2 16
33 31 30 37 37 64 50 50 38 20 25 18 40 35 16 37
50 20 23 42 33 14 20 25 27 27 20 13 12 13 13 11
4 3 0 1 0 0 0 0 0 0 0 0 0 0 0 0
0 0 0 0 0 2 10 3 3 0 0 0 0 0 9 8
0 0 0 0 0 0 5 21 36 44 73 95 57 45 50 54
65 80 101 59 37 37 45 86 49 47 56 47 34 72 43 40
32 12 64 113 116 119 122 120 116 112 115 118 119 113 107 102
101 102 103 101 99 107 112 113 109 103 97 93 84 22 9 43
33 28 23 22 19 32 28 22 36 56 31 24 42 23 18 16
25 50 55 67 29 17 27 25 26 43 48 31 17 13 14 11
4 3 0 0 0 0 0 0 0 0 0 0 0 0 0 0
0 0 0 0 0 0 0 0 0 0 0 0 0 0 0 3
0 0 0 0 15 51 63 72 69 56 53 64 63 43 59 58
53 53 85 61 51 57 58 64 28 28 28 47 32 58 60 40
38 27 21 90 116 118 121 123 119 115 116 117 118 118 116 113
110 107 104 103 105 112 115 114 109 101 95 90 56 6 43 36
30 29 20 18 17 33 15 13 15 42 34 49 49 21 23 18
18 24 49 38 37 37 51 55 83 72 33 26 29 26 15 11
4 4 0 0 0 0 0 0 0 0 0 0 0 0 0 0
0 0 0 0 0 0 0 0 0 0 0 0 0 0 0 0
0 0 4 32 77 97 58 37 42 47 41 43 51 45 55 34
35 33 78 31 24 30 28 48 15 20 20 38 38 39 82 33
38 46 21 37 107 118 121 123 120 116 116 117 120 119 117 114
112 110 107 105 111 115 117 112 105 97 92 75 16 27 69 62
36 27 25 17 16 37 19 17 13 45 13 26 63 31 20 16
18 30 54 27 22 23 28 36 68 59 56 59 36 26 27 14
5 4 0 0 0 0 0 0 0 0 0 0 0 0 0 0
0 0 0 0 0 0 0 0 0 0 0 0 0 0 0 0
0 17 51 65 46 45 45 33 38 63 32 32 35 48 61 35
36 36 76 34 26 32 30 54 17 24 21 26 52 34 74 48
63 76 55 17 60 115 120 121 120 117 112 114 117 118 117 115
111 106 105 107 113 116 114 108 102 95 88 28 8 66 53 47
38 21 25 15 13 43 19 15 13 46 13 18 16 17 39 19
18 35 67 32 28 31 33 46 67 40 30 35 53 41 24 41
20 2 0 0 0 0 0 0 0 0 0 0 0 0 0 0
0 0 0 0 0 0 0 0 0 0 0 0 0 0 0 3
32 52 43 35 72 33 32 31 37 63 28 29 35 41 71 31
35 34 72 33 28 32 28 59 14 22 19 19 64 36 60 109
72 44 43 26 26 79 120 122 121 117 113 110 110 112 112 111
107 105 106 110 115 117 112 105 98 93 59 8 44 84 32 29
48 42 29 21 18 50 20 19 17 47 15 15 13 12 48 14
19 28 34 59 26 29 29 57 48 30 28 28 37 38 68 42
40 13 0 0 0 0 0 0 0 0 0 0 0 0 0 0
0 0 0 0 0 0 0 0 0 0 0 0 0 0 6 62
70 31 32 28 68 31 36 29 34 61 28 29 39 41 74 33
36 36 61 32 30 33 30 62 16 22 20 19 78 59 74 119
43 34 40 38 19 36 95 120 122 119 116 113 109 108 106 105
105 106 111 115 117 114 109 103 96 72 15 25 46 53 30 29
35 69 48 41 37 81 30 18 18 44 14 16 17 19 41 20
23 31 32 68 26 28 41 80 64 44 40 35 78 53 60 48
19 32 10 0 0 0 0 0 0 0 0 0 0 0 0 0
1 1 0 0 0 0 0 0 0 0 0 0 0 6 43 49
47 53 49 50 95 56 69 71 55 67 28 25 33 38 72 29
34 37 47 35 42 47 42 62 14 19 20 18 72 78 67 91
38 43 43 46 24 24 48 105 120 121 119 116 112 109 108 106
107 110 115 118 118 115 109 100 84 23 10 40 65 43 31 25
28 46 29 30 27 71 49 41 30 56 19 15 15 22 46 28
30 32 34 79 41 54 67 104 96 73 66 70 91 61 45 32
41 25 36 7 0 0 0 0 0 0 0 0 0 0 0 0
0 0 0 0 0 0 0 0 0 0 0 0 1 40 50 78
59 55 66 55 94 60 61 49 47 76 46 48 54 55 86 40
41 54 78 66 63 74 86 95 40 40 49 46 93 48 38 70
48 52 40 47 35 23 30 64 113 122 122 121 117 112 109 108
111 114 117 119 118 113 105 93 41 6 23 45 63 37 27 20
51 26 18 14 12 44 29 41 49 81 44 37 37 47 79 51
69 69 68 110 56 42 38 75 50 39 45 47 49 24 44 49
42 32 33 26 2 0 0 0 0 0 0 0 0 0 0 0
0 0 1 0 0 0 0 0 0 0 0 0 36 60 38 67
29 23 33 30 63 27 33 38 40 75 23 30 46 68 112 68
68 74 85 76 46 47 70 65 30 23 28 38 74 30 33 53
72 43 40 19 18 35 28 40 75 116 121 119 117 115 113 113
114 116 119 121 119 111 100 60 12 18 41 49 30 27 31 32
60 33 22 17 14 49 26 21 28 61 35 35 30 32 66 33
43 53 61 92 30 28 29 55 53 30 31 32 45 21 27 57
77 40 19 46 29 0 0 0 0 0 0 0 0 0 0 0
2 1 2 1 0 1 1 0 0 0 2 25 62 57 32 71
27 28 38 34 75 28 35 41 41 77 31 30 32 30 65 38
45 49 56 60 29 35 59 52 33 20 15 23 42 18 31 35
81 37 19 9 22 59 36 35 53 87 118 123 119 116 115 115
118 119 124 124 117 109 86 27 23 34 47 91 7 3 36 56
36 41 20 17 13 52 24 22 20 48 16 14 13 15 51 21
28 31 35 71 28 31 34 46 62 35 34 35 50 23 18 54
88 48 24 35 83 15 0 0 0 0 0 0 0 0 0 0
3 3 3 2 1 1 1 0 0 0 9 73 65 30 29 74
26 27 39 35 85 27 33 41 38 70 34 32 32 30 52 29
32 37 43 68 32 34 57 51 36 24 15 21 36 17 26 32
74 50 0 6 56 56 70 40 48 66 91 114 119 117 116 116
118 121 123 124 119 106 52 33 54 70 74 76 1 29 70 52
24 39 17 20 13 47 25 21 23 58 16 16 13 13 58 24
30 35 35 62 28 29 32 42 61 33 29 32 66 28 18 72
35 63 52 49 45 31 1 0 0 0 0 0 0 0 0 0
4 3 2 2 2 1 0 0 0 0 24 49 67 29 25 71
26 25 37 30 77 25 31 40 34 69 40 40 36 31 49 26
33 39 45 77 31 30 46 51 39 30 18 20 31 17 26 30
56 15 0 26 85 44 37 58 56 64 81 90 106 116 117 118
122 123 125 127 121 88 47 48 69 57 46 32 13 39 96 48
25 60 18 16 12 43 22 22 22 54 14 17 13 8 61 23
29 32 27 58 32 30 32 41 67 29 30 31 65 22 36 64
22 44 77 30 23 29 15 0 0 0 0 0 0 0 0 0
4 3 3 2 1 0 0 0 0 7 35 54 75 36 30 75
49 31 35 37 89 37 33 37 36 61 36 38 35 29 41 23
31 36 44 81 34 34 39 59 34 29 20 21 23 20 27 45
50 4 0 23 62 49 48 39 56 71 86 93 97 106 119 125
128 132 133 132 118 67 53 62 37 37 40 24 24 44 43 46
43 89 37 27 20 55 34 19 20 43 18 18 16 9 50 23
31 33 28 64 28 30 27 41 59 34 32 31 77 27 64 29
22 25 53 40 26 23 30 7 0 0 0 0 0 0 0 0
0 4 4 3 2 1 1 0 1 25 38 37 60 63 24 72
60 49 50 60 113 67 67 65 67 103 56 61 57 62 71 18
25 33 41 78 30 32 31 56 37 45 41 49 31 21 31 44
59 6 0 13 71 20 75 77 55 77 92 98 100 102 110 123
133 137 138 133 102 68 63 53 33 48 27 16 34 52 19 28
24 70 38 40 34 70 66 39 32 40 24 15 14 11 39 24
31 29 31 87 49 46 45 59 79 64 63 60 89 58 44 25
19 29 30 67 41 29 33 22 2 0 0 0 0 0 0 0
