P2
128 120
140
40 35 35 35 35 33 33 33 35 34 34 33 33 33 32 33
33 33 33 32 32 32 32 31 31 32 31 30 30 30 30 29
29 28 28 27 27 27 26 26 25 25 25 24 23 23 22 22
16 3 0 0 0 0 0 0 0 0 0 0 0 0 0 0
0 0 0 0 0 0 0 2 9 5 5 17 16 15 14 14
14 13 12 12 11 10 12 12 13 14 14 14 15 15 15 15
15 15 16 16 16 16 17 18 18 17 18 18 18 17 18 18
19 20 21 20 21 22 22 22 23 24 24 24 24 24 24 24
52 54 52 51 48 43 44 45 49 51 52 46 32 32 33 32
32 32 32 31 32 32 31 31 31 31 31 31 30 30 30 29
29 29 28 27 27 27 26 25 26 25 24 24 24 23 22 21
5 0 0 0 0 0 0 0 0 0 0 0 0 0 0 0
0 0 0 0 0 0 0 0 3 9 9 17 16 16 15 15
14 14 13 13 12 10 11 11 14 14 14 14 15 14 14 15
16 16 16 17 17 16 17 18 17 17 17 17 18 19 19 19
21 21 21 21 22 22 22 22 23 24 24 24 24 23 24 23
44 48 37 29 30 32 34 34 33 35 48 50 42 38 36 33
32 32 32 32 32 32 31 31 31 30 30 30 30 29 28 29
28 28 27 28 27 27 27 26 25 25 25 24 24 23 23 19
1 0 0 0 0 0 0 0 0 0 0 0 0 0 0 0
0 0 0 0 0 0 0 0 1 7 10 17 17 16 16 15
14 15 14 13 13 11 12 12 14 14 15 15 15 15 16 16
16 16 16 16 16 16 17 17 18 18 19 18 18 19 20 20
20 21 21 21 22 22 23 23 23 23 24 24 24 24 24 24
39 41 17 0 0 0 0 0 0 0 34 47 46 48 46 39
34 35 35 34 34 32 31 31 30 31 30 30 30 29 30 29
29 27 28 27 27 27 26 26 25 25 25 24 24 23 23 17
0 0 0 0 0 0 0 0 0 0 0 0 0 0 0 0
0 0 0 0 0 0 0 0 0 1 8 15 17 17 16 16
15 15 14 14 13 11 12 13 14 15 15 16 15 16 16 16
16 16 17 17 17 18 18 18 18 18 19 19 19 20 20 20
21 21 21 22 22 22 23 23 23 24 24 24 24 24 24 25
36 39 17 0 0 0 7 0 0 0 28 45 41 37 22 27
33 37 44 45 45 42 37 31 30 31 30 30 30 30 29 29
29 29 28 28 28 27 27 26 26 25 25 24 24 23 23 12
0 0 0 0 0 0 0 0 0 0 0 0 0 0 0 0
0 0 0 0 0 0 0 0 0 0 5 15 18 17 17 16
15 15 14 14 14 12 12 14 16 15 16 16 17 16 16 16
17 17 17 17 18 17 18 19 19 19 19 20 20 20 20 21
20 22 21 22 22 23 23 23 24 24 25 24 25 24 25 25
36 39 20 0 0 0 2 0 0 0 23 44 41 31 0 0
3 9 16 22 30 42 40 30 30 31 31 30 30 29 30 29
29 29 29 28 28 27 27 27 27 25 25 24 24 24 23 9
0 0 0 0 0 0 0 0 0 0 0 0 0 0 0 0
0 0 0 0 0 0 0 0 0 0 3 15 18 18 17 17
16 16 15 15 15 13 12 12 15 16 16 16 16 17 17 17
18 17 18 18 19 18 19 19 19 20 20 20 20 20 21 22
22 22 22 22 23 23 24 24 24 24 24 24 24 24 25 25
34 38 21 0 0 0 2 0 0 0 19 45 42 30 0 0
0 0 0 0 3 39 41 31 31 31 30 30 30 30 30 29
29 29 29 28 28 27 27 27 26 26 26 25 25 25 22 3
0 0 0 0 0 0 0 0 0 0 0 0 0 0 0 0
0 0 0 0 0 0 0 0 0 0 2 14 20 19 18 18
18 17 17 15 15 15 12 14 17 17 17 18 18 18 18 18
18 18 18 18 19 18 19 20 20 20 20 21 21 22 22 22
22 22 23 23 23 23 24 24 24 24 25 26 25 26 25 25
32 39 27 0 5 4 2 1 0 0 14 43 40 29 0 0
0 0 0 0 2 38 41 31 31 31 31 30 30 30 30 30
30 30 29 29 28 27 27 27 27 26 26 25 25 25 19 0
0 0 0 0 0 0 0 0 0 0 0 0 0 0 1 1
0 0 0 0 0 0 0 0 0 0 5 13 20 19 19 18
18 18 18 16 16 15 14 15 17 18 18 18 19 19 19 19
19 19 19 19 20 20 20 20 21 20 21 21 22 21 21 22
22 22 23 24 24 24 25 24 25 24 25 24 24 24 25 25
34 43 34 0 14 3 0 0 0 0 12 44 40 31 0 0
4 5 0 0 1 38 41 32 32 32 32 31 31 31 31 30
30 30 29 29 29 29 28 28 28 27 27 26 26 25 17 0
0 0 0 0 0 0 0 0 0 0 0 0 0 0 7 6
0 0 0 0 0 0 0 0 0 0 7 14 21 20 20 20
18 18 19 17 17 16 14 17 18 19 19 20 20 20 20 20
20 20 20 20 21 21 21 21 22 22 22 23 23 23 23 24
23 24 24 25 24 24 24 24 24 25 25 25 26 26 27 27
34 43 39 3 9 1 0 0 0 1 10 45 44 32 0 2
7 5 0 0 1 37 41 32 32 32 32 31 32 31 31 31
31 30 30 30 29 29 29 28 28 28 27 27 26 26 18 0
0 0 0 0 0 0 0 0 0 0 0 0 3 17 10 0
0 0 0 0 0 0 0 1 0 0 10 14 21 21 21 20
19 19 19 18 18 17 15 17 19 19 19 20 20 20 20 20
21 20 21 20 22 21 21 22 22 23 23 24 24 23 24 24
23 23 24 24 25 26 26 25 25 25 26 26 26 26 26 27
31 40 43 8 6 0 0 0 0 0 7 42 42 32 0 0
1 2 1 0 1 38 40 32 32 32 32 32 32 31 31 30
30 30 30 30 29 29 29 28 28 28 28 27 27 27 21 1
0 0 0 0 0 0 0 0 0 0 0 1 12 33 5 0
0 0 0 0 0 0 3 3 0 3 17 15 21 21 21 20
20 19 19 18 18 17 15 18 19 20 20 20 21 21 21 21
21 20 21 21 21 21 22 23 23 23 23 23 22 23 23 23
24 24 25 25 26 25 25 25 25 25 25 25 26 26 26 26
30 32 38 8 5 0 0 0 0 0 5 39 41 33 1 0
0 5 6 0 1 37 40 32 32 32 31 31 31 31 30 30
30 30 29 29 29 29 28 28 28 27 28 27 27 26 18 0
0 0 0 0 0 0 0 0 4 6 3 4 27 34 19 10
0 0 0 0 0 0 4 7 2 10 19 16 21 21 20 20
20 18 18 18 18 18 14 18 19 20 20 20 20 21 20 21
21 21 21 22 22 22 22 22 22 22 22 23 23 23 23 23
24 24 25 25 25 25 24 24 25 25 25 25 25 25 26 26
32 28 32 19 18 19 22 21 21 22 23 33 40 36 1 0
1 1 3 0 0 35 39 31 31 31 32 31 31 31 31 30
30 30 30 29 29 28 28 28 28 27 27 27 27 26 9 0
0 3 8 6 6 5 5 6 17 30 31 36 42 29 32 32
11 4 6 7 2 1 8 12 13 13 21 18 20 22 21 21
21 19 19 18 18 18 14 18 19 19 20 20 20 21 21 21
21 21 22 22 22 22 22 22 23 23 22 23 23 24 24 24
24 24 25 25 24 24 24 23 24 23 23 24 23 24 24 25
26 25 27 26 24 25 25 23 24 24 23 22 34 35 5 0
0 0 2 3 7 36 39 31 31 31 31 31 31 30 30 30
29 29 30 29 30 30 29 29 28 27 27 27 27 25 8 0
0 16 31 28 28 20 19 24 33 49 52 50 43 34 38 40
18 6 9 6 13 21 19 14 17 15 22 19 19 22 22 21
20 19 19 18 19 18 15 18 19 20 21 21 21 20 20 20
20 21 21 21 23 22 22 22 23 23 23 23 23 24 24 24
24 24 25 24 24 23 23 23 24 23 23 23 23 23 24 24
12 13 15 15 16 16 17 20 24 27 28 27 28 31 29 27
24 19 16 13 16 36 37 31 31 30 31 31 31 31 31 31
30 30 30 29 29 28 29 28 28 27 28 28 27 26 15 1
22 46 46 38 33 31 34 38 45 50 51 48 45 35 43 39
32 29 29 27 29 27 18 23 21 16 21 21 18 22 22 21
21 20 20 19 19 19 15 19 19 20 20 20 21 21 21 21
21 21 22 22 23 22 22 23 23 23 23 24 23 23 24 24
25 24 24 24 23 22 22 22 21 21 21 21 22 21 22 23
12 11 11 11 12 11 12 13 15 18 20 23 19 19 20 22
25 27 29 31 32 34 33 30 31 31 30 30 30 30 31 30
30 30 30 29 29 29 28 28 29 27 28 28 28 27 26 24
39 39 37 35 30 26 27 29 38 42 50 48 43 38 43 36
33 27 25 21 27 33 23 22 26 18 22 23 17 23 22 21
21 19 19 18 19 18 15 19 19 20 20 21 21 22 22 22
22 21 22 22 23 22 23 23 23 23 23 24 24 24 24 24
24 24 23 23 22 21 21 20 20 20 20 20 20 21 22 23
15 12 12 11 10 11 11 11 11 11 13 12 13 12 13 14
17 19 21 24 26 28 30 30 29 29 29 30 30 30 31 30
30 30 30 29 29 29 29 29 28 28 28 29 29 29 28 31
35 28 26 20 16 17 18 22 26 31 38 45 44 43 38 31
27 25 24 20 23 23 26 27 22 21 24 25 17 22 22 21
21 21 20 20 19 19 15 19 20 21 21 21 22 22 21 22
22 23 23 23 24 23 23 24 23 23 23 24 24 24 24 24
23 23 23 22 21 19 19 19 19 19 19 19 20 20 21 22
29 28 21 20 13 12 11 13 16 15 14 14 13 11 11 11
10 10 11 12 14 16 19 22 24 27 28 29 30 30 30 29
30 29 30 29 29 29 29 28 29 29 28 29 30 31 47 33
18 26 28 23 18 18 15 21 25 32 30 37 42 42 35 26
24 18 20 20 24 27 22 26 23 18 25 26 17 22 23 23
21 21 20 20 20 20 16 20 20 22 21 22 22 22 22 22
22 22 22 23 24 23 24 23 23 24 24 24 24 24 24 23
23 22 22 20 19 19 19 19 19 19 19 19 18 18 18 20
19 27 26 38 39 37 32 28 29 29 29 31 32 20 10 11
11 10 10 9 9 9 9 9 11 10 14 17 21 24 27 29
30 30 30 29 29 30 29 29 28 29 28 33 44 61 31 12
16 24 23 19 17 16 17 19 21 31 30 24 28 40 29 22
19 17 19 20 19 22 21 20 29 15 22 25 18 22 23 23
21 21 21 20 20 20 17 21 20 21 22 22 22 22 21 22
22 23 23 23 24 24 24 24 24 24 24 24 24 24 23 23
23 21 20 20 18 18 18 19 18 18 19 19 20 19 21 20
12 13 15 33 13 8 9 14 26 26 27 39 48 39 27 21
17 17 15 13 11 9 8 8 9 8 9 9 9 7 11 25
29 30 30 29 30 29 29 29 29 29 35 53 68 38 12 12
13 14 17 13 14 13 15 21 20 24 26 15 17 30 22 17
14 16 16 12 9 8 12 19 22 17 21 26 18 22 23 23
22 21 20 20 20 20 17 21 20 22 22 22 23 23 23 24
23 23 23 24 24 24 24 23 24 24 25 24 24 25 24 23
21 20 19 18 18 17 18 18 18 18 18 19 19 19 20 20
13 13 15 31 8 0 0 10 29 27 29 37 44 44 42 39
32 36 35 30 27 15 11 11 10 7 7 8 8 5 10 23
28 29 29 30 29 29 29 30 30 42 71 63 57 22 13 5
9 13 14 13 17 13 7 15 18 13 17 13 12 18 14 10
8 8 9 6 2 1 4 10 17 24 17 27 21 20 24 23
22 22 21 21 21 21 18 21 21 23 23 22 23 22 23 24
23 24 24 24 25 25 25 25 24 25 25 24 24 24 22 21
20 18 18 18 18 18 18 17 18 18 18 19 18 18 19 19
14 14 15 33 9 0 0 5 15 17 20 32 41 44 44 41
35 33 36 35 33 20 19 24 25 20 20 16 12 6 8 20
27 28 29 30 29 34 34 35 55 85 81 66 31 19 8 5
11 10 6 6 11 8 12 11 17 17 17 17 15 14 11 9
7 5 5 1 0 0 0 5 15 25 14 26 22 19 24 23
23 22 23 21 21 21 19 21 21 23 23 23 23 23 24 24
24 24 24 24 24 24 24 24 24 24 25 25 25 23 22 21
20 19 19 18 18 18 18 19 18 18 18 19 18 19 18 19
15 13 16 36 10 0 0 4 3 0 0 24 40 35 24 29
24 27 31 34 35 25 25 28 30 26 33 33 29 8 9 20
26 27 29 29 31 40 46 72 88 89 77 59 21 16 4 12
10 6 1 0 4 10 21 37 49 69 79 84 83 82 73 62
44 25 9 1 0 0 0 2 16 23 20 20 23 18 24 24
23 22 22 21 21 21 19 21 21 24 24 24 24 24 24 23
24 23 24 24 24 24 25 25 25 24 24 24 25 23 22 20
19 18 18 18 18 17 18 18 18 18 18 19 18 18 18 19
2 2 5 35 10 0 0 14 13 0 0 23 40 25 0 7
1 3 6 9 19 26 27 29 31 32 34 35 34 12 10 21
26 27 28 29 31 52 83 91 89 90 79 45 21 11 6 14
3 4 3 5 8 42 79 99 102 107 108 105 105 103 98 90
83 76 58 26 2 0 0 0 12 27 21 16 23 16 24 24
24 23 23 22 21 21 19 21 21 23 23 23 23 23 24 23
23 24 24 24 24 25 24 25 24 23 24 24 24 22 21 20
19 18 18 17 18 18 17 17 18 17 18 19 18 18 18 18
0 0 3 36 11 5 6 21 29 11 0 23 40 25 0 0
0 0 0 0 10 26 27 28 30 32 33 35 34 14 9 22
27 26 28 31 52 86 93 91 89 92 71 36 22 8 9 8
1 2 6 23 76 106 112 115 118 119 117 116 114 112 109 105
101 97 88 73 43 3 0 0 10 36 17 13 23 16 23 23
22 21 22 21 21 21 19 20 19 23 22 22 24 23 24 24
24 23 23 23 24 24 24 24 24 24 24 24 24 22 21 19
18 18 18 17 17 17 17 17 17 17 17 19 18 17 17 17
0 0 2 37 13 4 13 26 21 18 3 18 42 27 0 0
0 0 6 2 10 24 15 20 25 31 31 31 31 14 9 21
28 24 25 49 83 91 92 90 91 93 76 32 18 7 9 3
0 1 28 95 113 121 119 115 115 115 118 118 116 113 110 107
104 99 98 93 75 46 3 0 8 38 20 10 20 16 23 24
23 22 23 21 21 21 20 20 20 23 23 23 23 23 24 23
24 24 24 24 24 24 24 24 24 24 23 23 24 22 21 20
18 18 18 18 18 18 17 17 17 17 17 18 18 17 17 17
0 0 3 38 14 0 9 23 19 13 2 15 41 31 0 0
0 0 5 2 11 21 0 1 3 8 12 12 25 16 9 18
26 27 36 77 91 93 91 90 95 95 76 34 17 10 10 0
0 11 88 112 118 119 119 120 117 115 115 115 111 109 106 106
105 102 94 92 89 76 44 1 8 41 29 16 20 17 21 24
23 22 23 21 22 22 20 20 21 24 24 23 24 24 25 24
24 24 24 24 24 24 25 25 25 24 24 23 25 23 22 20
19 18 18 18 18 18 17 17 18 17 17 18 18 17 17 18
0 0 4 41 16 0 0 4 6 1 0 14 42 32 0 0
0 0 0 0 9 21 0 0 0 0 0 0 16 16 9 3
3 17 70 93 94 93 85 92 96 99 70 39 15 11 9 0
1 61 111 115 118 115 113 114 117 120 118 119 119 116 113 109
104 98 90 89 88 83 73 36 0 36 44 20 20 23 21 24
24 22 23 22 22 22 20 20 21 24 24 24 23 24 24 24
24 24 24 25 24 24 25 24 25 24 24 24 25 22 21 20
19 19 18 18 19 18 18 18 18 18 18 18 16 18 18 18
0 0 1 32 17 0 0 0 0 0 0 13 42 34 1 0
0 0 0 0 9 20 0 0 0 0 0 0 16 17 8 1
1 52 93 96 95 69 75 99 97 100 69 37 16 17 7 0
17 97 112 112 112 114 118 122 121 124 127 125 125 115 107 102
96 85 82 84 84 83 80 70 21 13 51 23 26 23 23 25
24 23 23 22 22 22 20 20 21 24 25 25 24 24 24 23
25 24 24 24 24 24 24 24 25 24 25 25 25 22 22 21
19 19 19 18 19 17 18 18 18 17 17 18 18 19 19 19
0 0 2 32 18 0 0 0 0 0 0 11 41 35 2 0
5 7 4 0 8 21 0 0 3 4 0 0 15 17 9 1
34 84 90 75 57 54 86 82 96 99 57 30 22 20 6 3
55 107 107 100 89 91 100 120 130 128 128 127 125 114 92 82
80 50 41 60 77 80 81 79 63 9 38 30 40 20 20 26
24 24 22 22 22 21 21 20 21 24 24 25 24 24 24 24
24 24 25 24 25 24 24 24 25 25 25 24 25 23 22 20
20 19 19 18 18 18 18 18 18 17 18 18 18 17 18 18
0 0 3 34 26 12 10 10 9 7 5 15 41 36 4 0
0 1 1 0 9 22 0 0 0 8 0 0 15 17 9 18
51 42 52 54 67 65 49 86 99 96 42 27 31 30 9 17
86 105 82 51 48 65 86 110 129 130 129 129 129 120 98 95
91 66 51 32 44 65 79 82 79 44 18 32 44 28 11 23
24 23 22 22 22 22 21 20 22 25 25 25 25 25 25 25
25 25 25 25 24 26 25 25 25 25 25 25 25 23 23 21
20 19 19 19 19 19 18 17 18 18 18 17 18 17 18 18
0 0 2 33 43 42 39 37 34 31 27 25 27 25 2 0
0 0 0 0 8 20 0 0 0 0 0 0 14 16 13 52
52 48 71 74 62 45 71 101 101 87 27 27 39 42 16 43
101 81 41 48 74 93 106 117 130 130 129 128 130 126 117 118
120 105 75 45 25 36 53 76 85 71 20 21 37 29 15 16
23 24 22 23 22 22 22 21 22 24 24 24 24 24 25 24
24 24 25 25 26 26 26 26 26 25 25 25 24 24 22 21
20 19 19 19 19 18 18 18 18 18 18 18 18 18 18 19
0 0 1 38 40 29 30 29 32 35 33 23 13 8 1 0
0 0 0 0 7 18 0 0 0 0 0 0 14 17 38 88
88 70 70 59 75 93 98 101 104 70 24 32 50 46 23 68
74 39 50 78 115 126 130 131 131 130 126 128 129 130 130 131
131 126 115 104 73 42 37 54 81 80 48 8 19 25 15 14
22 25 22 23 22 22 22 21 22 24 24 24 25 25 25 25
25 25 25 25 26 25 26 26 26 25 26 25 24 24 23 22
21 20 19 20 19 18 19 18 18 18 19 17 18 18 19 19
0 0 1 39 27 0 0 1 3 8 13 24 22 22 25 22
20 19 15 11 16 21 2 0 1 0 0 0 15 29 51 70
66 52 69 77 104 102 100 102 100 48 25 32 57 43 34 63
38 38 77 117 130 132 132 132 132 131 129 126 123 129 130 128
125 116 107 106 106 100 63 40 55 83 72 16 7 18 17 13
19 24 22 24 22 22 22 20 23 24 25 24 24 24 25 25
25 25 25 26 26 26 26 26 26 26 26 25 24 24 24 22
21 20 19 19 20 18 19 18 18 18 18 18 18 17 19 18
0 0 2 38 28 0 0 0 0 0 0 12 36 22 11 15
19 25 27 29 26 34 30 17 20 18 17 15 25 54 31 48
79 78 91 98 106 100 100 105 85 25 24 25 58 32 42 42
52 93 119 120 122 126 130 125 129 128 127 121 115 122 125 121
105 76 55 51 65 104 114 77 43 66 79 45 3 11 26 14
17 21 23 24 22 22 22 20 23 24 25 25 25 25 26 26
26 25 26 26 26 27 26 26 26 25 26 25 24 24 23 23
21 19 19 19 20 19 19 19 17 17 16 13 11 8 6 5
0 0 6 39 30 2 0 0 3 3 0 10 38 22 4 1
8 7 5 5 30 42 34 21 28 31 31 31 45 79 71 67
82 69 78 105 102 100 102 102 60 21 18 27 55 30 42 58
104 109 83 79 86 105 119 124 124 120 121 111 104 110 113 108
68 49 65 73 59 62 100 112 72 51 78 69 8 10 17 17
17 24 22 24 22 23 22 20 23 25 26 25 25 25 25 25
26 26 26 26 25 26 26 26 27 26 26 26 26 25 24 24
22 20 19 18 15 12 13 18 6 3 1 0 0 0 1 2
1 0 17 39 27 6 10 1 13 5 0 9 37 22 2 0
2 1 0 1 33 38 27 20 28 31 33 36 63 103 99 64
38 46 86 108 99 100 105 101 36 17 16 26 37 35 59 105
105 67 40 41 45 67 100 114 115 113 107 99 97 100 99 84
70 80 48 49 72 71 67 114 105 65 67 75 30 6 11 15
19 19 21 24 23 23 22 20 24 25 26 26 25 25 25 25
26 26 26 25 25 26 27 27 27 27 26 25 24 22 18 15
11 8 4 3 2 1 3 17 4 0 2 3 4 5 7 8
0 3 25 40 26 17 21 6 9 4 0 7 36 19 0 0
0 0 0 1 32 32 13 6 12 15 18 27 83 105 90 63
67 82 99 105 100 102 108 81 20 17 23 26 31 48 95 114
70 62 77 77 89 85 80 101 104 106 101 95 94 90 89 69
87 93 63 77 101 91 66 91 117 88 63 74 55 1 10 4
17 18 10 21 22 22 22 20 24 24 26 25 25 24 24 24
23 22 26 25 26 26 24 12 15 18 16 13 11 8 7 6
5 4 4 4 5 5 4 13 4 4 8 10 11 12 13 14
6 9 34 43 24 5 2 0 11 15 1 7 34 18 0 0
0 0 0 1 30 33 9 0 0 0 0 23 99 103 93 90
98 89 106 103 101 105 108 52 15 20 33 25 32 71 118 91
60 77 42 60 110 112 89 84 97 103 111 102 91 83 75 66
65 86 104 111 104 88 68 71 112 102 65 69 68 10 2 4
5 15 9 12 22 22 22 20 22 22 23 23 23 22 22 22
19 12 19 18 16 13 5 4 12 12 13 13 13 12 13 12
12 11 12 11 13 12 10 16 7 9 13 13 14 14 16 17
34 33 34 44 35 20 16 15 19 8 1 8 33 18 1 5
0 0 0 0 27 35 10 0 0 0 0 49 104 98 94 97
98 94 108 102 101 107 99 21 18 31 20 26 51 98 121 78
82 100 102 119 123 98 78 81 103 126 131 123 100 84 79 73
66 59 83 112 121 113 91 75 84 104 83 70 72 29 0 1
0 6 5 2 14 17 18 18 20 22 21 20 19 17 15 13
13 9 12 13 11 6 8 16 17 17 18 18 18 18 17 17
17 16 15 16 15 14 8 2 2 12 16 16 17 17 17 18
34 26 3 33 40 29 15 35 31 5 0 9 35 20 4 11
0 0 0 0 21 30 7 0 0 0 11 79 105 95 93 98
93 98 106 99 102 110 75 13 25 20 17 30 70 108 116 76
90 110 114 109 90 63 72 92 117 133 132 130 110 89 86 81
70 70 82 100 113 113 100 81 79 99 92 75 73 46 3 5
0 0 1 0 6 11 10 10 14 13 12 13 13 13 14 15
16 16 18 14 12 11 21 22 22 21 22 21 21 20 19 18
18 17 17 17 17 15 7 0 0 11 17 18 18 18 18 19
24 17 0 22 37 26 4 31 27 5 0 9 36 22 0 6
0 0 0 0 18 26 6 0 0 0 22 98 101 92 94 99
89 103 101 98 104 103 40 18 16 13 23 40 86 112 109 84
107 126 124 102 76 66 83 103 117 131 132 126 105 97 87 92
88 81 82 94 102 108 105 95 79 93 94 83 74 55 12 26
0 0 0 0 2 13 12 9 12 11 14 17 17 18 20 21
21 22 18 13 23 13 24 23 23 23 22 22 22 21 21 19
16 16 11 5 2 7 7 0 0 9 17 18 19 18 19 19
30 26 4 14 33 17 0 23 17 3 0 8 36 23 0 0
0 0 0 0 19 26 5 0 0 0 39 106 97 91 96 97
93 106 100 99 104 81 15 12 13 19 20 60 96 114 103 96
118 131 119 96 84 89 104 108 113 129 128 115 94 98 100 91
97 94 91 94 97 104 104 100 86 86 95 87 75 63 16 44
17 0 0 0 0 13 16 13 16 15 20 21 22 22 23 23
22 22 12 24 25 15 6 8 9 4 7 18 22 18 17 9
0 0 0 0 0 7 7 0 0 9 17 17 19 18 18 19
29 32 17 6 16 15 1 11 10 0 0 7 34 22 0 0
0 0 0 0 20 28 5 0 0 0 65 106 93 90 96 92
97 106 99 100 102 35 4 11 22 19 14 82 101 113 100 105
122 122 109 97 99 107 107 110 92 120 121 89 14 45 113 96
95 97 96 96 97 100 100 99 91 83 90 90 77 67 17 31
26 5 0 0 0 14 21 17 19 18 23 24 24 24 25 24
24 16 19 15 25 20 0 0 0 0 5 9 8 0 0 0
1 0 0 0 0 4 7 0 0 9 17 18 19 19 19 19
1 3 1 0 0 4 10 1 1 1 3 9 29 17 0 0
0 0 0 0 23 28 5 0 0 10 89 104 89 89 95 92
101 104 97 103 59 1 5 16 20 10 20 89 104 107 97 112
123 113 106 105 109 108 118 85 17 95 121 90 20 6 89 108
93 97 98 97 96 99 100 100 96 90 86 91 81 69 17 18
14 12 0 0 0 9 23 19 22 21 25 24 25 25 26 25
19 5 1 0 7 27 2 0 0 0 0 0 0 0 0 0
0 13 0 0 0 1 10 0 0 11 17 18 19 18 18 19
8 0 0 0 0 0 0 1 1 7 24 24 26 18 8 6
4 2 1 0 24 28 5 0 0 27 100 100 85 91 95 90
104 102 98 98 32 2 6 9 12 2 37 93 104 104 101 116
122 113 108 108 108 109 124 42 17 103 121 110 57 7 68 116
98 99 99 99 98 97 103 108 106 97 91 91 85 70 23 15
4 6 0 0 0 2 22 19 22 22 25 25 26 26 25 25
8 6 17 5 0 1 0 0 0 0 0 0 0 0 0 0
0 0 0 0 0 1 11 2 1 13 17 18 18 18 18 18
5 0 0 0 0 0 5 19 24 19 29 30 29 26 28 25
17 18 16 11 18 20 8 0 0 44 104 94 82 93 92 94
106 100 103 103 44 3 1 5 10 1 51 96 108 104 107 119
121 113 108 109 109 112 127 42 37 115 124 119 99 32 86 116
97 102 98 100 103 108 113 114 111 103 95 91 89 76 31 18
2 2 1 0 0 0 18 21 23 24 27 26 27 26 25 20
7 23 16 13 22 22 18 17 15 15 14 3 10 2 0 0
0 0 0 0 0 5 11 9 9 16 19 19 19 18 18 18
7 0 0 5 21 18 27 27 33 32 29 31 31 27 10 6
3 3 4 3 7 15 15 16 14 61 103 89 81 92 90 97
105 97 106 102 52 0 1 2 7 3 56 96 106 104 114 121
121 118 113 109 109 111 122 100 91 126 131 130 118 106 112 110
92 104 101 107 114 121 121 118 110 104 98 93 90 79 38 15
1 0 0 3 0 0 12 20 23 23 26 26 25 25 23 6
10 13 23 24 24 22 22 21 20 19 18 13 0 0 0 0
0 3 5 5 6 13 12 11 13 17 17 17 18 17 17 17
28 12 8 16 30 29 22 14 28 24 13 16 20 22 1 0
0 0 1 1 5 15 14 13 17 78 104 87 80 91 88 100
101 97 107 105 54 1 4 1 5 11 55 98 103 108 119 124
124 126 123 114 110 108 111 116 113 129 132 131 123 109 99 94
92 104 114 120 123 125 121 120 112 104 100 96 92 81 52 13
1 0 0 4 2 0 15 20 23 23 26 26 25 25 11 13
26 25 25 24 24 22 20 20 20 18 18 1 0 0 0 0
0 16 17 17 16 15 13 13 17 18 18 17 18 18 17 17
37 35 33 32 32 28 12 0 7 5 0 0 1 21 1 0
0 0 0 1 9 16 12 0 7 87 104 82 80 92 89 103
99 105 110 104 48 0 8 7 10 19 58 99 104 113 122 126
130 132 131 128 124 110 103 110 123 132 132 131 126 116 108 103
98 103 111 123 127 126 123 121 114 106 102 98 93 82 62 15
1 0 0 1 4 0 13 21 23 24 26 26 25 18 7 25
26 25 25 24 23 21 21 20 20 19 18 1 0 1 4 0
0 16 17 17 17 16 16 16 17 17 17 17 16 18 17 17
35 35 34 32 26 20 7 0 0 0 0 0 0 20 2 0
10 17 5 0 8 17 12 0 17 94 102 79 83 89 91 105
98 105 104 104 48 3 13 12 6 25 66 101 107 116 122 130
132 133 133 132 126 113 114 119 129 132 132 131 129 122 113 107
103 100 106 120 125 126 124 122 115 110 104 100 93 84 70 17
1 0 0 0 0 0 12 22 24 24 26 26 23 5 22 26
25 25 25 23 22 21 20 20 20 19 18 1 0 0 0 0
0 14 18 18 18 16 16 16 17 17 17 18 18 18 17 17
37 35 35 28 6 6 3 2 0 6 3 0 0 20 2 3
17 16 0 0 9 20 12 0 25 95 99 77 87 85 98 102
99 105 102 104 46 11 13 9 2 27 76 101 109 116 124 131
132 132 132 129 116 115 118 126 132 130 130 130 130 128 121 112
107 101 101 111 121 122 123 123 116 109 105 101 94 85 72 21
1 0 0 0 0 0 12 23 24 24 27 26 12 16 27 26
26 25 24 23 22 21 20 19 19 18 17 1 0 0 0 0
0 11 19 18 18 18 18 19 19 18 18 18 18 17 17 18
16 17 19 22 23 25 23 24 22 24 7 0 0 20 3 0
15 20 0 0 12 23 15 0 35 96 93 77 89 84 103 98
103 108 102 105 41 13 8 5 2 22 82 104 112 115 126 132
132 131 131 121 113 118 127 131 132 132 129 126 125 127 127 118
114 107 104 107 115 117 118 124 119 111 107 105 99 89 72 24
1 0 0 0 0 0 15 23 24 25 27 25 6 25 26 25
25 24 23 22 21 21 21 18 12 9 9 0 0 0 0 0
0 11 19 18 18 19 19 19 19 18 18 18 18 18 18 18
0 0 0 0 6 7 1 1 2 2 0 0 0 19 2 0
5 6 0 0 13 24 16 0 43 95 86 80 86 90 103 98
107 106 101 105 42 13 2 2 0 20 86 106 112 118 126 130
132 131 128 116 117 123 130 127 120 120 117 114 115 119 125 125
119 115 108 108 113 118 116 121 119 113 109 107 101 90 73 29
3 0 0 0 1 0 18 24 25 25 27 24 7 26 26 26
25 24 23 22 22 22 21 5 5 0 0 0 0 0 0 0
0 10 19 19 18 19 19 19 19 18 18 18 18 18 17 17
0 0 0 0 9 12 1 0 0 0 0 0 0 19 2 0
0 0 0 0 13 26 16 0 52 89 80 85 83 97 99 100
106 102 100 106 55 5 1 2 1 18 90 106 113 120 125 131
131 131 125 116 122 128 126 117 116 112 107 103 107 113 111 112
117 116 118 115 114 119 110 116 117 113 109 109 104 93 75 34
8 4 1 0 6 10 20 24 24 25 27 24 7 27 26 26
25 24 22 22 22 21 21 20 31 12 19 0 0 0 0 0
0 6 16 18 18 19 19 18 18 19 18 18 18 18 18 18
0 0 0 0 16 19 4 0 0 0 0 0 0 19 2 0
0 0 0 0 12 26 15 1 61 88 77 84 81 98 97 102
107 101 103 105 60 2 0 0 0 16 89 106 112 116 125 130
127 128 124 113 128 120 111 109 104 95 91 93 92 89 89 99
100 109 121 122 115 116 118 112 116 114 112 109 104 94 73 42
19 19 28 32 5 2 23 24 24 25 26 24 6 26 26 25
24 23 22 21 21 21 22 37 41 13 4 0 0 0 0 0
0 0 1 6 6 12 19 19 18 18 19 18 18 18 17 17
0 2 2 3 19 24 10 0 0 0 0 0 0 17 2 0
0 0 0 0 11 27 17 3 70 86 78 77 82 97 100 106
107 99 102 103 55 1 0 0 0 10 84 105 112 117 125 126
127 128 125 126 123 105 98 105 116 118 117 117 114 107 95 81
82 91 107 127 130 120 119 111 114 111 110 106 101 93 74 57
43 37 42 56 35 0 20 23 24 25 26 26 7 25 26 25
23 22 21 18 16 14 12 2 2 2 0 0 0 0 0 0
0 0 0 0 0 7 19 19 19 18 18 18 18 18 17 16
11 15 14 17 23 18 5 0 0 0 0 0 0 17 2 0
0 0 0 0 11 28 18 6 73 84 79 74 87 96 101 105
104 93 86 90 48 0 0 0 0 6 73 104 114 118 123 126
126 128 132 128 103 87 105 124 132 130 130 130 131 127 116 99
85 68 77 109 132 129 123 114 110 108 108 107 104 95 76 63
64 51 61 49 61 6 21 23 23 25 26 26 9 22 25 24
23 21 12 2 1 2 2 0 0 0 0 0 0 0 0 0
0 0 0 0 0 7 19 19 19 19 18 18 17 17 17 16
17 17 18 22 25 7 0 0 0 0 0 0 0 16 7 4
5 7 10 13 21 26 16 10 74 77 79 75 89 97 103 105
97 82 86 94 67 1 0 0 1 11 62 102 114 117 123 123
129 133 134 116 74 100 126 133 133 133 132 133 133 133 131 120
110 98 73 58 119 131 125 114 109 107 105 101 103 93 75 68
80 73 81 85 63 21 19 23 23 26 26 26 15 16 24 21
17 14 6 0 0 0 0 0 2 1 0 0 0 0 0 0
0 0 0 0 0 6 19 20 19 19 18 18 18 17 16 17
2 4 7 12 25 16 10 10 8 7 7 8 8 19 20 20
22 24 25 27 26 20 16 27 76 76 73 74 92 98 93 88
89 83 95 104 81 2 3 12 37 36 54 100 113 117 121 122
131 134 128 75 91 124 132 134 133 133 132 133 133 132 131 125
117 107 105 100 114 131 128 113 109 107 106 104 101 93 76 73
83 78 87 96 74 36 15 23 22 22 19 15 8 3 3 1
0 0 0 1 2 2 2 2 2 1 5 4 0 0 0 0
0 0 0 0 0 4 19 19 18 18 18 17 17 15 16 16
0 0 0 1 22 26 25 26 24 23 22 24 26 25 24 23
23 24 24 24 24 23 24 39 76 74 68 75 89 87 87 92
89 94 100 103 86 6 4 67 71 64 61 97 111 116 120 123
133 133 121 93 118 128 133 134 133 133 134 132 133 132 131 129
121 113 112 112 116 129 127 114 110 107 104 103 100 95 77 75
89 90 89 90 84 45 14 23 14 2 0 0 0 0 0 0
0 0 1 5 5 5 5 2 0 0 2 9 0 0 0 0
0 0 0 1 1 3 16 18 17 18 17 17 18 17 16 16
0 0 0 0 23 29 30 28 29 26 28 29 30 21 15 14
19 19 19 19 20 21 21 41 74 72 67 76 89 85 88 99
97 94 101 101 95 12 23 51 60 77 66 95 109 116 117 122
130 133 123 120 123 131 134 134 133 128 123 124 123 128 131 127
123 119 116 115 112 124 121 112 109 107 104 101 95 92 78 75
92 90 108 88 84 52 14 22 11 0 0 0 0 0 0 0
0 0 0 2 1 1 4 3 1 2 5 3 0 0 0 1
0 0 0 1 1 4 15 19 20 19 18 17 17 17 17 16
0 0 0 1 23 26 26 23 23 22 24 28 24 11 11 13
18 19 19 19 19 19 20 46 73 70 66 80 90 98 104 102
97 96 103 102 105 17 30 57 94 92 88 91 107 115 116 120
129 132 126 125 125 132 133 133 128 128 128 123 122 120 121 124
122 121 121 121 122 120 115 109 106 105 103 101 98 93 78 76
96 75 103 95 81 53 15 21 4 0 0 0 0 0 0 0
0 0 0 0 0 0 5 4 3 1 3 0 0 0 0 0
0 0 0 0 0 1 17 19 19 18 19 18 17 18 16 16
0 0 0 1 22 10 3 4 3 2 4 8 5 10 10 12
17 18 12 7 7 7 8 52 72 68 65 92 100 103 102 102
95 96 103 103 108 25 35 80 106 106 99 92 107 112 113 116
123 126 130 128 130 131 132 126 128 132 132 129 125 118 115 119
121 120 122 121 121 115 110 104 106 103 101 100 100 95 81 87
104 74 88 98 75 53 15 20 6 0 0 0 0 0 0 0
0 0 0 0 0 1 6 5 5 5 5 6 5 7 7 7
9 10 11 12 10 10 16 15 15 15 18 18 18 18 17 17
0 0 0 1 22 7 0 0 0 0 0 4 1 9 10 12
16 17 8 0 0 0 3 61 64 54 66 95 99 102 105 101
94 96 101 100 96 37 39 92 107 105 105 93 100 110 113 110
116 118 124 130 132 133 129 122 130 133 133 132 129 120 111 114
120 120 121 120 116 110 106 102 104 103 100 102 100 92 82 96
111 105 84 91 75 54 16 20 4 0 0 0 0 0 0 0
0 0 0 0 0 2 6 5 5 23 17 16 17 22 20 17
22 19 18 17 12 10 39 15 10 12 18 17 18 17 16 15
0 0 0 1 22 7 0 0 0 0 0 7 8 9 10 11
16 17 12 0 0 0 8 66 61 53 75 98 101 102 101 97
92 98 101 95 106 91 60 91 105 113 113 97 102 108 110 109
110 109 118 127 133 133 126 124 133 133 133 133 131 126 116 111
116 121 121 119 116 106 102 101 102 102 102 101 99 90 80 97
107 110 91 87 79 44 16 16 2 0 0 0 0 0 0 0
0 0 0 0 0 4 6 6 5 19 13 16 19 25 46 43
57 59 62 26 11 29 102 46 7 10 17 17 17 7 2 1
0 0 0 0 20 8 0 0 0 3 7 7 7 8 9 11
15 16 13 2 0 0 15 68 54 53 83 96 100 101 101 94
93 101 106 101 109 106 93 80 104 109 114 101 103 107 110 108
106 111 119 124 132 132 126 129 133 133 133 132 133 129 124 114
113 113 116 114 114 103 100 99 99 99 99 100 97 87 75 98
103 103 97 93 79 22 16 13 0 0 0 0 0 0 0 0
0 0 0 0 0 5 5 7 5 15 12 18 21 28 77 63
83 80 82 29 12 89 113 101 22 10 17 18 15 0 0 0
0 0 0 0 18 7 0 0 1 5 6 6 7 8 9 11
14 16 14 3 0 0 22 63 48 56 87 96 100 99 100 92
92 101 100 99 108 108 97 68 104 107 115 106 102 107 108 108
104 109 114 119 129 129 128 132 133 133 134 133 133 132 129 119
117 115 113 109 106 99 98 96 97 99 100 96 94 85 73 100
105 102 91 88 62 15 21 10 0 0 0 0 0 0 0 0
0 0 0 0 0 7 6 10 6 9 18 20 25 25 43 37
38 35 31 24 21 48 35 29 21 12 17 18 15 0 0 0
0 0 0 0 17 7 0 0 1 4 6 6 7 9 9 11
14 16 15 5 0 0 30 58 47 64 87 99 100 100 97 94
90 89 99 101 110 108 98 65 95 111 116 107 100 103 105 106
101 106 110 120 124 126 132 134 134 133 134 133 134 131 128 126
121 117 109 105 100 95 93 93 96 100 97 94 91 83 66 55
78 66 50 49 31 34 32 7 0 0 0 0 0 0 0 0
0 0 0 0 2 6 6 10 4 0 19 23 27 20 22 22
17 15 16 18 20 20 20 20 20 12 16 18 18 5 0 0
0 0 0 0 16 7 0 0 0 4 5 6 7 9 10 11
14 16 16 7 0 0 34 58 51 71 89 98 100 101 98 90
83 100 105 99 107 103 93 86 93 113 113 109 96 102 104 103
99 101 105 113 119 123 133 133 131 129 133 130 128 129 127 127
119 114 107 97 95 90 84 91 94 95 93 90 87 77 49 0
0 0 0 4 24 38 28 2 0 0 0 0 0 0 0 0
0 0 0 0 3 6 6 10 1 1 12 18 28 20 21 16
16 13 13 18 21 21 20 20 19 11 16 18 18 18 0 0
6 5 5 7 20 9 0 0 1 5 6 5 7 8 8 10
12 15 14 7 0 0 40 57 58 80 89 94 99 97 89 83
93 105 107 100 106 100 100 94 93 109 115 105 91 99 99 98
95 94 100 106 114 122 128 127 127 126 125 120 122 120 116 116
110 106 96 87 85 84 82 89 91 89 86 87 82 73 47 2
0 0 5 7 26 36 22 0 0 0 0 0 0 0 0 0
0 0 0 0 5 6 7 6 0 0 0 9 29 21 20 11
13 13 14 18 23 21 20 19 18 6 14 14 2 4 2 0
22 21 19 19 17 10 0 0 1 5 5 6 7 8 9 10
12 14 14 8 0 1 44 60 64 85 93 93 98 97 89 92
96 106 107 95 97 106 104 106 89 98 98 76 78 92 93 94
92 88 89 97 105 115 118 117 117 111 113 111 110 109 107 102
102 94 84 75 76 78 79 83 86 83 77 78 78 67 53 1
0 0 6 8 26 35 16 0 0 0 0 0 0 0 0 0
0 0 0 0 6 5 8 5 0 0 0 13 27 21 19 11
16 14 13 19 22 21 20 18 18 7 6 1 0 0 4 0
10 5 3 1 1 10 0 0 2 3 4 5 6 7 8 9
10 13 13 9 0 2 50 62 64 86 93 92 90 88 93 91
95 106 106 98 104 105 103 109 91 48 29 6 44 87 88 89
87 79 79 86 99 103 106 105 103 101 92 87 90 92 92 88
85 78 71 68 68 69 72 73 75 74 71 74 71 59 47 0
0 1 8 8 26 35 9 0 0 0 0 0 0 0 0 0
0 0 0 1 6 4 8 3 0 5 6 20 28 22 19 8
15 13 12 20 21 20 20 18 18 9 0 0 0 0 0 0
0 0 0 0 0 8 0 0 2 2 3 4 5 6 8 8
10 13 13 9 0 4 53 60 67 87 93 93 89 89 96 94
97 108 108 98 105 105 106 110 109 43 6 0 18 81 80 81
79 76 72 76 86 95 95 89 88 76 69 65 63 64 63 60
59 57 56 57 60 60 62 62 63 60 62 63 59 68 36 0
0 0 8 8 24 33 4 0 0 0 0 0 0 0 0 0
0 0 0 2 5 5 8 1 0 7 2 22 25 20 15 3
8 12 11 19 20 20 20 19 19 9 0 0 0 1 0 0
0 0 0 0 0 13 17 17 12 2 2 3 4 5 6 7
9 11 12 8 0 5 54 60 70 84 92 94 97 94 99 94
93 106 110 96 99 97 107 111 109 46 6 0 2 63 75 74
69 66 67 66 73 78 74 69 61 51 43 35 33 31 31 32
33 37 42 47 49 49 47 45 43 44 49 51 56 78 34 0
0 0 6 6 21 27 1 0 0 0 0 0 0 0 0 0
0 0 0 3 5 5 7 0 0 5 2 27 23 15 4 0
7 10 10 18 19 18 19 19 18 9 0 0 2 4 0 0
0 0 0 0 1 17 13 7 4 1 2 3 4 5 7 7
9 11 11 8 0 8 56 60 74 83 90 91 94 93 101 98
96 102 108 95 89 94 106 113 108 48 6 1 0 30 68 67
59 56 54 55 53 52 53 50 41 37 37 36 36 38 37 35
36 37 41 42 43 38 37 37 36 38 39 46 74 79 36 0
0 0 2 7 31 19 0 0 0 0 0 0 0 0 0 0
0 0 0 4 5 7 5 0 2 9 9 27 22 11 3 0
7 9 11 18 20 19 19 19 19 10 2 4 6 6 4 2
0 0 0 0 1 15 5 0 0 1 2 2 3 5 6 7
8 10 11 8 0 11 58 62 77 77 58 41 47 69 95 102
99 101 100 95 101 93 83 65 62 37 9 6 2 9 54 59
49 43 42 43 44 41 36 36 40 40 40 44 52 56 53 52
49 44 47 50 52 54 54 58 52 47 43 67 81 80 39 0
0 0 0 12 35 11 0 0 0 0 0 0 0 0 0 0
0 0 0 5 4 7 4 0 34 41 11 28 22 11 2 1
8 10 12 19 19 19 18 19 20 12 0 1 2 2 0 0
0 0 0 0 0 14 6 0 0 0 2 2 3 4 5 6
7 10 11 9 0 16 59 63 66 34 20 26 25 26 43 83
98 94 101 100 78 45 24 23 42 38 10 6 7 4 41 54
48 42 38 42 48 45 40 38 42 44 49 55 60 64 64 63
61 57 55 60 65 66 70 69 65 59 60 74 84 80 37 0
0 0 1 23 35 5 0 0 0 0 0 0 0 0 0 0
0 0 1 6 5 8 2 0 45 35 13 28 21 13 5 8
13 9 13 19 20 19 18 20 21 14 0 0 0 0 0 0
0 0 2 4 7 15 6 0 0 0 1 2 2 4 5 5
7 9 11 9 0 22 57 53 28 36 47 52 50 35 27 36
46 57 46 38 30 27 36 51 69 51 22 4 6 2 43 76
51 52 56 61 61 58 49 46 54 61 66 69 70 68 67 71
70 65 63 66 69 74 75 74 71 66 72 78 86 83 33 0
0 0 5 32 29 2 0 0 0 0 0 0 0 0 0 0
0 0 3 6 6 8 1 0 8 8 20 27 22 16 12 7
13 11 16 23 21 19 19 20 19 13 0 0 0 0 0 0
8 9 13 18 24 24 13 1 0 1 1 2 2 3 4 4
6 9 10 8 0 27 55 36 32 59 73 82 79 66 50 35
26 27 25 40 55 72 90 103 108 79 35 11 1 0 36 89
80 60 68 73 72 70 61 52 60 68 72 76 72 67 73 74
73 68 68 70 75 79 75 77 74 75 79 81 88 82 35 0
0 0 15 40 20 0 0 0 0 0 0 0 0 0 0 0
0 0 5 6 7 7 0 0 2 5 26 25 22 19 11 8
13 13 17 22 21 19 19 19 19 13 0 0 0 0 0 0
17 18 20 23 26 26 22 17 13 9 2 1 2 3 4 5
6 9 11 8 0 33 55 36 61 75 76 81 77 79 78 67
55 61 78 95 107 104 107 111 111 101 43 20 0 0 32 91
96 76 74 81 81 78 73 67 69 75 75 79 75 73 79 83
79 77 70 71 77 76 76 76 76 81 82 83 88 84 40 0
0 0 21 39 13 0 0 0 0 0 0 0 3 5 5 6
7 6 7 7 8 6 0 0 0 6 29 24 22 18 11 8
13 13 19 21 21 19 20 19 19 14 0 0 0 0 0 0
8 7 6 5 4 4 3 2 1 1 0 0 1 2 3 4
5 8 9 7 1 36 53 39 54 56 56 59 62 63 67 77
82 91 101 108 112 103 110 112 114 115 70 11 0 0 23 94
100 88 81 85 87 84 79 79 80 83 84 86 83 86 92 91
89 82 77 75 78 77 76 79 81 86 87 83 89 85 44 0
0 0 24 38 8 0 0 0 0 0 0 0 5 5 6 6
6 6 6 5 10 4 0 0 1 11 30 23 22 18 10 8
13 13 19 21 20 20 20 19 19 15 0 0 0 0 0 0
0 0 0 0 0 0 1 0 0 0 0 0 0 1 3 4
5 8 9 8 1 28 42 11 12 20 32 48 52 55 57 59
59 64 67 78 91 94 101 112 113 115 107 38 0 0 19 97
103 98 83 87 90 93 89 89 91 94 94 96 95 96 97 99
97 89 79 81 81 80 81 83 88 91 88 87 89 85 48 0
0 2 26 40 8 0 0 0 0 0 8 7 5 6 7 6
9 11 7 3 9 2 0 6 15 20 29 22 21 17 10 7
12 15 21 22 21 20 21 20 20 15 0 0 0 0 0 0
0 0 0 0 0 0 2 0 0 0 0 0 0 1 2 3
4 7 8 7 2 27 31 4 9 20 35 52 71 75 79 80
75 77 77 72 76 69 84 104 100 98 107 75 4 0 15 97
105 102 92 90 91 93 95 98 101 104 105 105 106 104 103 102
101 92 84 83 84 81 82 88 90 93 89 89 89 86 52 0
0 6 23 27 8 3 11 14 21 39 76 75 51 50 33 23
28 25 24 21 5 0 4 29 13 23 29 23 22 12 5 9
9 16 20 21 22 20 21 21 19 16 0 0 0 0 0 0
0 0 0 0 0 0 2 0 0 0 0 0 1 1 2 3
4 7 8 7 4 28 32 10 15 34 51 45 79 84 87 86
85 84 87 97 102 92 85 89 90 84 78 79 27 0 12 94
105 106 99 95 93 93 96 101 110 113 114 112 115 113 113 108
103 92 87 85 81 83 88 90 94 93 85 83 91 86 59 0
0 5 17 7 9 41 74 85 105 118 126 127 118 105 63 12
5 3 6 10 23 10 42 125 49 24 26 22 20 10 10 8
6 15 19 19 21 21 20 21 19 16 1 0 0 0 0 0
2 2 2 2 3 0 1 0 0 0 0 0 0 1 2 2
3 5 7 7 10 29 35 22 28 56 55 82 90 91 88 82
90 95 99 103 103 95 94 83 49 75 89 77 40 0 9 93
104 106 101 94 95 94 98 104 112 116 118 117 114 116 117 114
108 99 89 87 86 86 89 83 95 93 88 90 92 86 63 0
0 7 17 18 22 44 80 85 101 112 119 127 119 105 62 5
4 3 3 7 14 16 73 130 38 28 24 22 19 7 6 0
3 13 15 13 17 18 20 19 19 16 0 0 0 0 0 0
5 5 6 6 6 3 0 0 0 0 0 0 0 1 2 2
3 6 8 8 13 30 37 34 19 26 30 61 65 57 56 63
65 65 66 68 67 58 48 29 21 44 58 48 12 0 12 91
105 106 103 96 97 96 100 106 113 119 121 118 117 119 119 115
110 101 94 89 91 91 91 91 95 94 94 92 91 85 65 0
0 3 13 17 33 39 64 85 103 116 122 121 113 97 50 3
2 3 1 19 4 0 35 46 13 34 21 5 2 0 0 0
0 0 4 20 21 19 19 16 19 18 1 0 0 0 0 0
5 5 5 8 13 9 0 0 0 0 0 0 0 0 0 2
2 5 8 8 13 29 36 37 16 5 15 30 40 44 45 40
39 34 22 9 5 3 1 0 0 1 2 3 5 8 16 86
106 108 105 101 99 99 101 107 113 118 121 120 122 120 121 116
113 104 92 91 89 92 93 94 96 96 97 94 93 86 67 3
0 2 7 21 30 27 41 65 29 76 91 83 69 45 8 3
4 3 13 34 26 27 37 44 37 40 20 1 0 0 0 0
0 0 0 17 13 14 20 13 14 17 2 0 0 0 0 0
4 4 4 15 22 11 0 0 0 0 0 0 0 0 0 1
2 5 8 8 12 28 36 30 8 6 10 20 24 19 16 14
13 12 4 0 0 2 6 4 2 2 1 1 6 30 4 82
104 110 107 104 104 102 103 108 114 117 120 120 122 120 121 119
115 104 96 92 91 93 93 97 97 98 98 96 91 83 65 8
9 5 1 6 28 48 51 47 20 2 3 3 5 4 2 5
8 52 66 78 88 88 82 87 86 65 25 26 0 0 0 0
0 0 0 6 10 19 18 12 9 4 8 5 0 0 0 0
0 0 1 23 12 5 0 0 0 0 0 0 0 0 0 0
0 0 1 1 6 28 35 13 0 2 5 11 4 6 6 4
3 1 0 1 2 7 12 12 9 10 6 2 29 35 1 81
105 110 110 107 106 106 105 108 114 118 119 121 125 126 122 120
116 104 100 95 92 95 96 98 99 97 97 96 90 84 65 8
13 15 1 0 3 29 48 55 60 35 12 7 10 9 9 21
54 96 84 91 93 82 73 86 88 66 13 20 0 0 0 0
0 0 0 0 15 23 12 9 12 5 0 1 0 0 0 0
0 0 18 27 5 5 2 0 0 0 0 0 0 0 0 0
0 0 0 0 2 27 32 7 0 0 5 7 0 0 0 0
0 0 0 1 2 8 13 9 5 5 2 3 56 22 0 79
102 108 110 110 108 107 108 111 116 121 122 126 129 130 129 124
115 107 99 96 96 95 95 96 99 98 96 94 89 82 66 7
19 43 2 0 1 2 2 2 10 28 54 50 30 38 74 66
48 55 64 76 79 77 77 80 83 60 5 3 2 2 3 2
2 4 3 2 7 6 0 0 0 0 0 0 0 0 0 0
3 1 50 12 0 2 5 0 0 0 0 0 0 0 0 0
0 0 0 0 1 25 31 4 0 0 5 3 0 0 0 0
0 0 0 0 0 2 5 1 0 0 0 9 55 7 1 78
101 107 111 112 112 110 109 113 118 122 126 128 133 132 130 129
122 107 100 100 97 95 96 99 100 100 97 92 86 81 66 8
18 32 14 8 12 18 24 35 31 17 18 40 58 59 51 56
73 93 97 85 60 54 51 44 44 37 25 23 21 15 10 3
0 1 1 0 0 0 0 0 0 0 0 0 0 0 0 0
14 5 32 0 0 0 6 10 0 0 0 0 0 0 0 0
0 0 0 0 1 24 29 4 0 0 7 1 0 0 0 0
0 0 0 0 6 10 11 14 9 0 0 15 71 8 0 77
100 106 111 113 112 112 111 112 117 125 130 132 131 133 131 125
119 109 101 98 96 93 95 99 100 98 93 92 87 80 64 7
3 12 39 50 77 119 132 133 132 106 69 59 60 64 81 118
134 133 133 133 111 72 46 31 28 20 13 10 11 7 6 2
0 0 0 0 0 0 0 0 0 0 0 0 0 0 0 0
9 5 12 0 0 0 4 4 0 0 0 0 0 0 0 0
0 0 0 0 1 23 31 12 0 0 5 0 0 0 0 0
0 0 0 0 7 14 17 20 12 0 0 29 56 9 0 80
100 106 111 116 115 112 111 113 113 120 125 131 133 133 132 126
116 105 99 97 94 93 95 99 100 99 95 90 87 81 64 8
0 11 32 44 70 98 133 135 114 68 55 44 43 45 67 107
135 133 133 133 120 80 49 36 26 19 15 11 11 8 7 3
0 0 0 0 0 0 0 0 0 0 0 0 0 0 0 0
0 5 6 0 0 0 0 0 0 0 0 0 0 0 0 0
0 0 0 3 8 23 30 12 2 0 7 0 2 7 8 10
10 7 0 0 2 4 5 6 4 0 0 36 62 12 1 80
99 106 111 115 117 113 109 109 112 115 119 123 130 131 129 121
108 98 94 92 91 92 95 97 100 100 96 91 87 81 64 11
0 10 27 38 69 92 133 135 112 67 55 46 44 46 72 109
135 132 130 134 122 80 48 36 26 20 15 13 12 9 8 4
0 0 1 0 0 0 0 0 0 0 0 0 0 0 0 0
0 3 5 0 2 0 0 0 0 0 0 0 0 0 0 0
0 0 0 1 7 21 27 8 4 3 7 3 9 8 9 10
9 7 1 0 0 0 1 3 3 3 7 44 101 27 1 79
98 105 111 116 118 115 110 107 110 113 114 116 122 126 122 110
99 94 94 90 89 90 94 97 101 99 95 90 85 79 62 15
0 27 39 38 53 88 132 135 114 68 55 41 39 48 65 103
136 132 128 134 121 78 50 35 27 20 15 12 12 9 9 4
0 0 1 0 0 0 0 0 0 0 0 0 0 0 0 0
0 5 6 2 1 0 0 0 0 0 0 0 0 0 0 0
0 0 0 0 5 18 24 5 4 5 6 5 7 7 10 11
11 12 11 11 13 13 12 12 13 24 34 51 84 19 0 72
98 104 110 114 116 116 110 108 110 110 112 111 116 118 111 98
91 89 89 85 85 91 95 100 100 98 92 90 83 75 61 16
0 40 43 37 49 86 129 135 116 70 51 38 41 52 67 103
134 131 127 133 122 79 52 36 27 20 17 13 12 10 9 5
0 0 1 0 0 0 0 0 0 0 0 0 0 0 0 0
0 5 4 0 0 0 0 0 0 0 0 0 0 0 0 0
0 0 0 0 5 16 21 4 4 3 1 3 9 11 9 9
9 9 8 6 6 12 14 18 25 18 39 49 76 27 4 56
98 103 110 114 118 117 111 109 112 113 113 110 107 108 102 92
92 94 91 89 89 91 97 102 101 97 92 88 82 73 60 15
1 27 24 26 32 52 107 135 117 70 47 36 39 48 64 103
135 130 126 134 124 82 54 37 26 19 18 11 12 8 8 6
0 0 0 0 0 0 0 0 0 0 0 0 0 0 0 0
0 14 4 0 0 0 0 0 0 0 0 0 0 0 0 0
0 0 0 0 5 14 18 5 5 3 4 9 11 8 9 10
10 3 7 13 8 22 39 28 27 19 35 43 79 33 16 33
98 104 110 114 116 117 113 110 111 115 118 118 113 105 98 97
100 101 96 88 87 94 100 103 101 97 91 84 78 72 60 13
3 31 25 34 22 21 21 42 72 64 47 37 40 47 65 100
134 131 125 135 123 80 55 37 22 16 14 11 11 9 8 6
0 1 1 0 0 0 0 0 0 0 0 0 0 0 0 0
1 2 0 0 0 0 0 0 0 0 0 0 0 0 0 0
0 0 1 9 14 16 17 3 4 5 5 7 7 9 9 10
10 3 11 26 39 39 49 28 44 44 28 32 74 39 27 11
89 103 110 113 114 115 116 112 111 115 117 117 114 113 107 103
102 99 92 87 91 98 104 104 101 96 90 82 78 71 58 7
11 30 23 22 17 29 37 30 35 20 34 36 41 47 64 98
133 131 127 134 125 82 54 36 22 15 11 8 10 9 9 6
0 1 0 0 0 0 0 0 0 0 0 0 0 0 0 0
0 0 0 0 0 0 0 0 0 0 0 0 0 0 0 0
0 0 10 21 14 14 15 2 6 7 3 6 10 10 9 9
10 16 56 63 45 35 44 52 45 27 31 31 62 55 41 11
59 104 108 111 113 116 118 113 112 116 119 120 118 114 112 109
106 104 94 90 92 102 107 104 100 93 87 81 78 71 53 1
14 34 22 21 18 18 37 63 24 12 14 21 34 42 60 92
133 131 126 134 125 83 51 31 22 17 10 5 8 9 9 8
0 2 1 0 0 0 0 0 0 0 0 0 0 0 0 0
0 0 0 0 0 0 0 0 0 0 0 0 0 0 0 0
0 0 3 16 19 18 12 1 5 6 4 8 8 8 10 21
43 52 36 34 39 38 90 52 26 25 31 35 49 106 66 45
22 96 104 109 113 115 118 116 113 115 120 122 120 116 114 111
110 105 94 91 98 107 109 105 99 93 84 79 75 68 36 4
47 54 27 19 31 16 26 53 34 19 15 15 15 28 46 61
116 132 124 134 126 84 52 30 27 20 9 4 8 9 9 7
0 2 1 0 0 0 0 0 0 0 0 0 0 0 0 0
2 2 3 4 1 0 0 0 0 0 0 0 0 3 6 1
0 0 0 2 9 10 8 1 3 6 4 7 17 29 48 48
66 43 35 34 48 66 38 36 24 20 34 49 52 110 46 39
13 65 105 108 113 116 117 116 112 113 117 121 121 120 117 113
110 104 94 94 100 108 107 103 98 89 84 79 75 64 16 21
41 37 26 18 36 31 34 26 16 27 43 31 18 32 30 23
28 52 64 101 123 83 51 36 28 20 10 6 8 10 8 7
1 2 1 0 0 0 0 0 0 0 0 0 0 0 0 0
1 2 4 4 1 0 0 0 0 0 0 0 0 1 9 1
0 0 0 0 0 0 7 3 1 4 21 33 42 64 43 37
61 59 41 67 69 32 35 29 17 17 56 54 53 75 44 38
27 23 95 107 112 115 116 115 113 113 116 119 121 121 117 113
107 98 89 94 103 107 106 102 95 89 82 78 71 52 2 19
32 26 28 30 24 45 44 19 15 15 17 32 59 41 20 18
17 24 45 33 56 62 50 34 26 18 12 7 9 9 8 7
1 3 1 0 0 0 0 0 0 0 0 0 0 0 0 0
0 0 0 0 0 0 3 0 0 0 0 0 0 0 0 0
0 0 0 0 0 0 8 5 17 37 61 51 55 46 42 42
54 86 81 42 27 33 44 50 38 35 69 32 43 46 64 33
36 25 51 106 111 113 116 116 111 111 109 112 116 115 111 108
101 97 93 99 106 108 109 102 96 89 82 77 68 21 10 33
28 24 35 37 57 45 71 29 19 18 15 16 46 61 36 18
18 19 25 68 56 37 29 28 23 16 12 9 10 10 9 7
1 2 0 0 0 0 0 0 0 0 0 0 0 0 0 0
0 0 0 0 0 0 1 0 2 0 0 0 0 0 0 0
0 0 0 0 0 0 12 27 44 56 85 60 41 46 46 65
73 77 108 57 62 66 76 71 51 41 48 35 31 36 76 32
40 32 25 73 109 113 115 114 112 111 109 107 109 108 106 102
100 100 100 103 109 108 107 101 97 87 81 77 48 3 33 29
24 21 20 17 31 36 36 34 42 18 20 20 39 19 25 42
16 18 25 44 27 29 31 31 31 17 13 10 9 10 11 9
2 1 0 0 0 0 0 0 0 0 0 0 0 0 0 0
0 0 0 0 0 0 0 0 1 0 0 0 0 0 0 0
0 0 0 0 20 38 61 63 54 42 50 64 43 54 47 47
45 50 84 40 50 56 54 43 24 18 19 45 31 30 70 46
34 48 55 31 90 113 115 115 113 112 110 108 108 107 105 102
102 103 102 104 109 111 109 103 92 83 78 65 14 39 53 43
23 21 16 16 21 18 15 17 27 53 22 29 32 13 14 27
40 18 41 39 28 32 29 26 33 57 39 15 9 9 10 8
2 1 0 0 0 0 0 0 0 0 0 0 0 0 0 0
0 0 0 0 0 0 0 0 0 0 0 0 0 0 0 0
0 0 8 39 88 75 38 37 39 36 33 38 31 67 33 35
36 46 61 26 25 32 30 42 18 19 20 49 34 33 42 72
55 73 57 33 45 104 115 115 116 115 112 111 108 107 104 103
105 105 106 110 113 112 108 99 90 82 74 25 12 57 50 50
20 18 21 15 18 24 13 12 14 38 28 52 30 20 15 14
21 51 79 54 42 50 45 33 46 45 27 32 25 11 11 9
3 2 0 0 0 0 0 0 0 0 0 0 0 0 0 0
0 0 0 0 0 0 0 0 0 0 0 0 0 0 0 0
3 25 60 59 47 50 31 32 65 30 32 33 32 75 33 33
34 52 55 27 26 34 36 52 19 19 16 41 47 34 40 114
76 42 31 42 29 61 112 115 116 116 116 115 111 108 108 108
107 107 108 111 114 111 105 96 87 81 48 7 62 64 27 29
26 18 20 16 22 28 16 15 17 40 13 33 47 19 14 16
17 45 35 22 30 35 44 77 95 43 26 24 25 27 13 9
3 1 0 0 0 0 0 0 0 0 0 0 0 0 0 0
0 0 0 0 0 0 0 0 0 0 0 0 0 0 0 7
41 50 36 47 38 34 30 28 63 28 29 32 31 76 31 34
35 53 56 29 26 32 37 52 16 21 20 47 80 43 65 104
59 38 31 45 29 36 77 114 115 113 112 112 112 111 111 109
106 105 109 112 112 108 100 91 84 63 14 32 59 38 26 28
45 33 15 15 21 37 17 14 26 31 15 12 14 31 17 14
17 46 34 22 25 27 26 54 49 41 60 50 25 20 29 22
4 2 0 0 0 0 0 0 0 0 0 0 0 0 0 0
0 0 0 0 0 0 0 0 0 0 0 0 0 0 19 76
41 28 31 47 41 32 23 24 61 27 28 34 33 76 37 35
34 44 47 29 27 28 44 49 14 18 18 38 78 54 55 52
65 38 44 41 40 31 44 90 116 116 116 115 112 112 109 108
107 109 114 113 112 107 97 89 75 22 19 44 56 34 22 22
37 62 37 32 37 51 15 15 28 25 14 12 11 35 21 10
13 33 47 29 32 31 33 67 37 26 26 33 41 38 35 54
13 1 0 0 0 0 0 0 0 0 0 0 0 0 0 0
0 0 0 0 0 0 0 0 0 0 0 0 0 16 45 51
33 33 41 63 56 48 60 44 73 31 31 27 29 69 35 34
36 50 70 52 56 65 73 52 21 22 27 41 64 51 34 36
82 38 44 35 23 34 35 52 95 114 115 116 113 112 112 110
109 111 114 115 110 103 94 84 38 9 32 64 40 28 21 22
36 34 31 38 48 73 26 16 23 25 13 11 12 36 22 17
19 22 63 30 26 25 28 61 21 23 25 29 35 54 57 22
29 10 0 0 0 0 0 0 0 0 0 0 0 0 0 0
0 0 0 0 0 0 0 0 0 0 0 0 9 46 38 74
63 61 66 91 79 66 52 43 81 48 54 52 55 96 63 60
62 71 100 60 55 54 83 66 44 35 45 59 75 40 41 29
65 51 38 19 2 40 39 43 60 97 111 112 111 109 107 108
108 110 113 113 109 100 90 52 11 23 37 52 12 32 21 20
50 12 14 14 16 46 34 39 46 43 19 14 14 42 29 17
18 19 63 28 28 44 51 91 43 36 38 64 67 47 43 29
21 28 5 0 0 0 0 0 0 0 0 0 0 0 0 0
0 0 0 0 0 0 0 0 0 0 0 3 48 53 56 52
25 32 29 53 33 30 31 31 66 26 27 35 47 106 68 64
57 52 80 33 31 32 71 35 28 17 19 36 45 23 53 26
52 74 18 6 20 52 60 46 55 71 97 110 111 112 111 112
113 114 115 114 106 99 69 18 17 37 58 43 0 27 21 39
52 16 17 16 14 41 16 31 62 63 43 35 34 73 53 46
38 34 90 58 51 61 58 103 60 58 62 78 59 46 39 31
26 32 17 2 0 0 0 0 0 0 0 0 0 0 0 0
0 0 1 0 0 0 0 4 2 0 0 37 62 31 50 41
24 30 30 61 34 32 31 36 68 33 29 27 24 60 32 35
31 31 68 29 31 33 69 33 34 23 13 28 30 16 34 28
36 72 2 0 45 59 37 66 53 65 78 90 107 112 113 111
112 114 115 115 103 82 33 21 50 72 86 12 2 40 27 50
37 24 15 15 11 47 15 17 33 37 25 22 19 54 35 37
50 58 107 54 32 28 30 69 21 35 40 42 37 22 43 47
39 17 38 13 0 0 0 0 0 0 0 0 0 0 0 0
0 0 0 0 0 0 0 4 5 0 16 64 31 23 56 35
21 28 30 67 35 28 31 35 58 35 32 25 27 52 32 36
35 35 75 36 30 31 65 32 36 28 16 27 24 17 24 35
33 28 0 7 62 61 33 36 60 66 77 78 87 106 112 112
113 116 120 114 102 54 30 51 61 51 48 0 20 49 69 27
29 22 16 17 11 48 15 18 33 33 12 7 8 34 22 18
20 26 68 30 26 25 26 67 22 23 28 42 34 14 24 89
46 15 25 65 12 0 0 0 0 0 0 0 0 0 0 0
0 0 0 0 0 0 0 0 1 0 26 52 21 23 60 40
22 30 30 67 37 27 32 32 52 41 38 29 31 49 28 32
32 32 73 37 31 32 52 39 33 28 20 24 19 20 26 51
51 19 0 3 64 31 66 55 42 68 80 82 82 87 104 110
114 119 121 117 86 37 44 45 32 33 24 21 18 45 84 23
39 27 13 14 9 45 16 17 35 33 13 9 8 35 23 22
21 23 63 26 27 22 29 60 21 25 30 47 32 13 29 62
47 27 35 52 35 0 0 0 0 0 0 0 0 0 0 0
0 0 0 0 0 0 0 0 0 7 42 67 25 24 54 43
22 24 29 61 39 25 29 36 45 39 34 28 29 44 24 32
31 33 73 46 31 29 45 45 31 37 37 47 20 19 26 35
40 23 0 0 47 28 26 70 59 70 83 86 84 83 88 104
118 123 125 114 65 44 56 33 32 32 2 17 19 45 27 38
61 63 27 22 16 51 14 16 26 29 13 8 7 30 26 20
22 21 59 29 28 24 28 58 23 25 28 49 33 9 61 26
36 61 32 24 26 9 0 0 0 0 0 0 0 0 0 0
0 0 0 0 0 0 12 0 0 23 41 61 41 27 50 73
47 39 47 90 81 60 58 63 84 61 55 50 55 79 29 25
27 29 66 42 31 31 41 67 54 62 65 96 44 38 36 36
31 33 13 0 3 14 22 25 21 62 87 91 91 87 86 99
120 125 124 91 58 54 54 36 30 11 9 17 44 29 15 22
36 57 35 37 36 88 26 19 18 35 13 10 8 26 25 24
22 25 50 38 25 22 25 51 20 21 27 41 36 17 56 18
15 59 23 19 19 23 2 0 0 0 0 0 0 0 0 0
0 0 0 0 0 0 6 0 9 33 21 36 60 22 46 60
44 43 55 86 88 60 52 53 79 71 58 59 61 99 54 47
48 46 85 68 57 58 60 85 58 52 45 76 33 23 18 19
24 35 34 29 0 13 21 26 28 30 55 82 96 92 90 93
114 125 114 80 64 64 53 21 2 1 33 30 40 13 10 10
20 30 15 23 25 77 39 42 35 45 12 10 10 30 23 23
20 24 44 48 30 22 21 50 30 34 35 42 65 32 26 17
13 27 54 25 19 29 14 0 0 0 0 0 0 0 0 0
