P2
128 120
147
44 39 39 38 39 37 37 38 39 39 39 37 37 37 37 36
36 36 36 36 36 35 35 35 34 34 35 34 34 34 33 33
32 32 31 31 30 30 30 29 29 28 28 27 27 26 26 25
25 24 25 23 23 23 23 22 22 21 21 20 20 20 19 19
18 18 18 18 21 22 21 20 15 7 8 20 19 19 19 18
17 17 16 15 14 12 14 14 16 17 18 17 17 17 18 18
19 19 20 20 20 20 21 21 21 21 21 21 21 21 21 22
23 24 24 25 25 25 25 26 27 28 27 27 27 27 28 28
57 59 57 56 53 48 48 51 54 56 57 51 36 36 36 36
36 36 36 36 36 35 35 35 34 34 34 34 33 33 32 32
32 31 31 31 31 30 30 29 29 28 28 28 27 27 26 26
25 25 24 24 24 23 23 22 22 22 21 20 20 20 19 18
18 17 18 19 22 22 22 21 16 13 12 21 20 20 19 18
18 17 16 15 15 13 15 15 17 17 17 18 18 18 19 19
19 19 19 20 21 20 20 21 21 21 22 21 22 23 22 23
23 24 24 24 25 26 26 26 27 28 28 27 28 27 28 28
49 53 41 32 34 35 37 38 37 38 53 55 48 44 39 37
36 36 36 35 35 35 35 35 34 34 34 34 34 33 33 33
32 32 31 31 30 30 30 29 29 28 28 28 28 27 26 26
26 26 25 25 24 24 23 23 22 22 21 21 20 20 19 19
19 18 18 19 22 22 22 21 17 14 13 21 21 20 20 19
18 18 16 16 16 14 16 16 17 17 18 18 19 19 19 19
20 20 20 20 20 20 20 21 21 22 22 22 23 23 24 24
25 25 26 26 26 26 27 27 27 27 28 27 28 28 29 29
44 46 18 0 0 0 1 0 0 0 40 52 52 54 51 43
38 39 39 38 38 37 36 34 35 35 34 34 34 33 33 32
32 31 31 31 31 31 30 30 29 29 28 28 28 27 27 26
26 26 26 25 25 24 24 23 23 23 23 21 21 21 20 20
19 18 19 20 22 23 23 22 17 15 15 20 22 21 20 19
18 18 18 17 17 14 16 17 19 19 20 20 20 20 20 20
20 19 20 20 21 21 22 22 22 23 23 23 23 23 24 24
25 25 25 26 26 26 27 27 28 28 29 28 28 29 29 29
41 43 20 0 0 0 9 0 0 0 32 50 47 42 26 31
37 41 49 49 50 46 41 34 34 34 34 34 34 33 33 33
33 32 32 31 31 31 30 30 29 29 28 28 28 28 27 27
27 26 26 25 25 24 24 24 23 22 22 22 21 21 21 20
20 19 19 21 23 24 24 23 18 16 16 18 22 21 21 20
19 19 19 17 17 16 15 16 19 19 19 19 19 20 20 20
20 21 21 21 21 21 23 22 23 23 23 24 24 24 24 24
25 25 26 26 26 26 27 27 27 27 29 27 28 28 28 28
41 43 22 0 0 0 4 0 0 0 27 50 45 34 0 0
5 10 18 25 34 47 45 35 35 35 35 34 34 33 33 32
32 32 32 31 31 31 31 30 30 30 30 29 28 27 28 27
26 26 26 26 26 24 24 24 25 23 23 22 22 22 21 20
20 19 20 21 23 24 24 23 18 16 18 18 23 22 21 21
20 20 19 18 18 16 16 16 19 19 19 20 21 21 21 21
22 21 22 22 22 22 23 23 23 23 24 24 24 25 25 25
26 25 26 26 26 26 27 27 28 28 29 28 29 29 29 29
39 43 23 0 0 1 3 0 0 0 23 49 46 34 0 0
0 0 0 0 4 44 45 35 35 34 34 34 34 34 33 33
33 32 32 32 32 31 30 30 30 30 30 29 29 28 28 28
28 27 27 26 26 26 25 25 24 24 23 23 22 22 22 21
21 21 21 21 24 25 24 24 19 16 20 17 23 22 22 21
21 20 20 18 19 17 16 18 20 21 22 21 21 21 21 22
22 22 22 22 22 22 23 23 24 24 24 25 25 25 25 25
26 26 27 27 28 27 27 28 28 28 30 29 29 29 29 29
36 42 29 0 6 6 3 1 0 1 17 48 44 32 0 0
0 0 0 0 2 42 45 34 35 34 34 33 34 33 33 33
32 32 31 31 31 30 31 30 30 29 29 29 28 28 28 28
27 26 26 26 26 25 25 25 25 24 23 23 22 22 22 22
21 21 21 21 24 25 25 24 20 17 21 17 23 22 22 21
20 21 20 18 19 17 16 18 21 21 22 22 22 22 22 22
22 22 22 23 23 22 23 23 23 24 24 25 25 25 25 25
25 26 27 27 27 27 28 27 28 28 28 28 27 28 29 29
38 48 38 0 17 4 0 0 0 0 14 49 45 35 0 0
6 7 0 0 2 42 45 35 35 35 35 34 35 34 34 33
33 33 33 33 32 31 31 31 30 30 30 30 30 29 29 28
28 28 27 27 27 27 26 26 25 24 24 24 24 23 23 22
22 22 22 22 25 26 26 25 20 18 23 17 24 24 23 22
22 22 22 20 20 19 18 20 22 21 21 22 22 23 22 23
23 23 23 24 24 24 25 25 25 25 25 26 26 26 26 27
27 27 27 28 28 27 27 28 28 28 29 29 29 30 30 30
36 46 42 4 11 1 0 0 0 2 11 49 48 36 0 2
8 7 0 0 1 40 44 35 35 35 35 34 34 34 34 33
33 33 33 32 31 31 31 31 30 30 31 30 30 30 30 29
28 28 28 27 27 26 26 26 25 25 24 24 24 24 23 22
22 22 22 22 25 26 25 25 20 18 23 17 23 23 23 23
22 21 22 20 20 19 17 19 21 22 22 22 22 23 23 23
23 23 23 23 23 24 24 25 24 25 26 25 26 26 26 26
26 26 27 27 28 28 29 29 29 29 29 29 29 29 30 30
35 44 47 9 7 0 0 0 0 0 8 45 45 35 1 0
1 4 1 0 1 40 44 35 35 35 34 34 33 33 33 33
33 33 33 32 32 31 31 31 31 30 30 29 29 29 29 29
28 28 28 27 27 27 26 26 26 24 24 24 24 23 23 22
22 22 22 22 25 26 26 25 21 18 24 18 23 23 23 22
22 21 21 20 20 20 17 20 22 23 22 23 22 23 23 23
23 23 24 24 24 25 25 25 26 26 26 25 25 25 25 26
27 27 28 28 29 28 29 30 30 30 29 30 30 30 30 30
33 35 41 9 6 0 0 0 0 0 5 42 44 37 1 0
0 7 7 0 1 39 43 34 34 34 34 34 34 33 33 33
33 33 32 32 32 32 31 31 31 31 30 30 30 30 29 28
29 28 28 26 27 26 26 27 26 25 25 24 25 24 24 23
23 22 22 24 25 26 26 26 21 17 24 19 23 24 24 23
22 21 21 20 20 20 17 20 21 23 22 22 23 24 23 24
24 24 24 24 25 25 25 25 25 25 25 25 25 26 26 27
27 27 28 28 28 29 29 29 30 29 30 29 29 30 30 30
36 30 35 22 21 21 24 24 24 25 26 36 43 40 2 0
1 2 5 0 1 38 43 34 34 34 34 34 33 33 32 32
32 32 32 31 32 32 31 31 31 31 30 30 30 29 29 28
28 28 28 28 28 27 27 27 27 27 26 25 25 24 24 24
25 25 24 25 27 27 27 26 22 19 24 20 23 25 24 23
23 21 21 21 21 20 17 20 22 23 23 23 23 24 24 24
24 24 24 24 25 24 25 25 25 26 26 26 26 26 27 26
27 27 28 28 29 29 30 29 29 29 29 30 30 30 29 30
28 27 29 28 26 27 28 26 27 27 26 25 37 39 7 1
1 1 4 5 7 38 43 34 33 34 34 34 34 33 33 32
33 33 32 32 32 31 31 31 31 30 30 30 30 30 29 30
30 29 30 28 30 30 30 29 27 26 27 27 25 24 24 27
29 29 28 29 29 29 28 26 22 17 24 22 21 25 24 24
23 22 22 20 22 21 17 21 21 23 23 23 23 23 24 24
24 24 24 24 25 25 25 26 25 25 25 26 26 26 26 27
28 28 29 29 29 29 29 29 29 29 29 29 29 29 29 29
15 16 16 18 19 19 20 22 27 29 30 30 31 33 31 29
26 22 18 15 18 40 41 34 35 35 34 34 34 34 32 33
32 32 33 32 32 31 32 31 31 31 30 30 30 29 29 29
29 32 36 32 30 31 31 30 32 29 27 29 27 26 25 27
26 26 26 28 27 29 30 29 23 18 25 24 21 25 24 24
23 22 21 21 21 21 18 21 21 24 23 23 24 23 24 24
24 24 25 25 25 25 25 26 26 26 27 27 27 27 27 28
27 28 29 29 28 29 29 29 29 29 30 30 30 29 30 30
14 14 14 13 13 14 14 15 17 19 23 25 21 21 23 26
28 30 33 34 35 37 37 34 33 34 34 34 34 33 34 33
33 33 33 32 31 31 31 31 30 30 30 30 30 30 30 32
38 40 40 35 28 26 28 32 30 33 31 27 30 26 28 25
28 28 27 27 29 32 30 28 27 20 24 25 19 25 25 25
24 23 22 22 22 21 17 21 20 23 24 23 24 25 24 24
25 24 25 26 26 26 26 26 25 26 26 27 27 27 28 28
28 28 29 29 30 30 30 30 29 29 29 29 29 29 29 30
16 13 14 13 12 12 12 13 14 14 14 14 14 14 15 16
19 21 24 27 30 32 35 34 34 34 35 34 34 33 33 32
32 32 32 31 31 31 31 31 31 31 31 31 30 29 27 26
29 28 25 26 21 20 20 23 30 35 38 29 26 29 29 29
28 27 21 22 24 35 41 29 24 23 26 28 19 26 25 24
24 23 22 21 21 21 18 22 23 24 25 24 25 24 25 24
24 25 25 25 26 25 26 25 26 26 26 26 27 28 27 27
28 28 28 29 29 29 29 29 29 29 29 29 30 30 30 30
32 31 23 22 15 14 13 14 17 15 16 14 13 13 13 13
13 13 14 15 17 20 24 27 31 33 34 34 35 34 33 33
33 33 32 32 32 31 31 32 31 31 31 30 30 26 25 23
20 21 29 25 21 21 17 22 25 30 31 31 28 32 30 28
28 23 21 21 21 26 32 37 26 19 26 29 20 25 25 25
24 23 22 22 22 22 19 23 23 24 25 24 25 25 24 25
25 26 26 26 26 26 26 27 26 27 27 27 27 27 28 28
29 28 29 29 29 29 29 30 30 29 29 28 27 28 28 28
20 30 28 41 43 40 35 31 32 31 31 34 36 22 12 13
13 12 13 12 13 13 14 14 15 16 19 22 25 28 30 32
33 32 32 32 32 31 31 32 31 31 31 32 29 24 23 11
11 23 28 24 19 19 19 19 24 32 33 26 28 33 33 27
27 19 18 23 24 28 30 29 33 20 24 29 20 25 26 25
25 24 23 22 22 22 19 22 23 24 25 25 25 25 26 25
25 25 26 26 27 26 26 27 27 27 27 27 28 28 28 28
29 28 29 29 29 28 28 29 29 29 29 29 29 29 30 30
14 15 18 36 15 9 10 16 28 29 30 41 53 44 30 25
22 22 22 19 17 15 14 13 14 14 14 14 12 9 14 29
33 32 32 32 32 32 32 32 32 31 31 31 27 27 8 7
14 22 18 18 16 18 17 19 24 28 32 21 18 28 32 23
19 15 19 23 22 25 29 28 28 31 22 28 20 24 26 25
25 24 24 24 23 23 20 23 22 25 25 25 25 25 25 26
26 26 26 26 27 27 27 27 27 27 28 28 28 29 28 28
28 27 28 28 28 29 29 29 29 29 29 30 29 30 29 30
14 15 16 34 9 0 0 11 32 29 34 41 49 50 48 47
39 45 45 41 38 24 19 19 17 13 13 14 13 10 13 27
34 33 33 32 31 30 31 32 31 32 32 32 29 17 9 11
10 11 14 13 16 17 10 17 22 15 23 18 12 18 22 16
15 13 16 16 13 14 17 26 26 35 21 29 22 23 27 26
25 24 24 24 23 23 21 23 23 25 25 25 26 26 26 26
27 26 26 27 28 28 28 28 27 27 28 27 28 28 28 28
29 29 28 29 29 28 29 29 28 29 29 30 30 29 30 30
16 16 17 36 10 0 0 6 17 19 21 34 45 49 50 49
44 43 48 47 46 32 30 35 37 30 30 25 19 12 13 26
34 33 33 33 32 37 36 35 34 32 32 34 21 13 9 5
8 14 12 12 16 12 11 12 15 15 17 15 13 12 11 9
8 7 9 8 5 4 8 15 23 29 25 26 24 21 27 26
25 25 25 24 23 23 21 24 24 26 25 26 26 26 26 26
26 26 27 28 28 27 27 27 27 27 28 29 29 28 28 28
28 28 28 28 28 28 28 29 29 29 29 31 30 30 30 29
18 15 18 38 11 0 0 6 5 0 0 27 45 40 29 37
33 37 43 46 46 34 34 39 40 37 44 43 39 15 15 28
34 33 33 33 34 43 42 40 38 36 37 35 20 13 9 8
17 10 5 1 5 7 12 16 17 29 36 42 39 35 28 18
9 7 5 4 1 0 1 8 18 24 30 19 26 21 27 27
27 26 25 24 24 23 21 24 23 26 26 26 26 27 27 27
27 27 27 27 27 28 28 28 28 28 28 28 29 29 28 28
29 29 29 29 29 29 29 29 29 29 29 30 29 29 29 30
2 3 6 38 11 0 0 16 15 0 0 26 45 30 0 12
2 6 11 16 29 38 38 41 43 43 46 46 44 17 15 29
34 34 34 33 33 43 44 40 38 40 44 38 17 13 6 15
7 5 3 2 4 15 30 61 78 90 95 96 94 91 87 80
64 44 21 4 1 0 0 2 14 30 29 18 27 19 27 27
26 25 26 24 24 24 22 24 23 26 26 26 26 26 26 26
26 27 26 27 27 27 28 28 28 27 28 29 30 28 29 29
28 29 29 28 28 29 28 29 29 29 30 30 30 30 29 29
0 0 3 39 12 5 7 22 32 12 0 26 47 32 0 0
0 0 3 3 15 38 38 40 41 44 45 46 45 22 15 31
37 35 36 35 35 36 29 35 39 42 42 34 19 13 6 14
3 3 4 12 19 58 93 100 106 111 113 112 111 110 107 100
94 85 72 45 13 0 0 0 7 32 29 23 23 18 26 27
25 25 25 25 25 24 22 23 22 25 26 26 26 26 27 27
27 27 27 27 27 27 27 28 27 28 28 28 29 28 28 28
28 28 28 29 29 29 30 29 29 29 29 30 29 29 29 29
0 0 3 41 14 5 16 29 23 21 4 21 48 34 0 0
0 0 15 10 19 35 24 30 36 42 44 44 43 22 16 31
38 32 33 38 42 28 0 5 20 27 30 29 17 11 8 8
0 0 8 32 85 107 117 119 122 125 124 123 121 119 116 110
106 101 94 80 60 17 0 0 6 30 35 20 20 19 26 27
26 25 26 24 24 24 22 23 23 26 27 26 26 27 28 27
27 27 27 27 27 28 28 28 28 28 28 27 29 28 28 28
28 28 29 28 29 29 28 28 28 29 29 30 30 29 29 29
0 0 4 44 16 0 11 26 21 15 2 19 49 39 1 0
0 0 12 9 20 32 1 2 6 12 19 20 35 23 15 27
36 37 36 39 44 31 0 0 7 14 21 31 19 13 9 4
0 2 29 96 113 123 129 128 125 128 127 126 126 124 120 118
113 107 106 101 84 63 14 0 3 27 47 16 16 20 24 27
26 26 26 24 24 25 22 24 24 27 26 27 26 27 28 26
27 27 27 28 28 28 27 28 28 28 28 28 29 28 29 29
29 29 29 29 29 29 29 29 29 29 29 30 30 28 28 28
0 0 5 44 17 0 0 5 8 1 0 18 50 41 1 0
0 0 0 0 16 32 0 0 0 0 0 0 23 24 14 5
6 12 21 30 37 31 0 0 4 5 20 45 19 13 13 1
0 9 85 115 123 130 132 130 130 130 130 132 127 124 122 118
113 109 107 107 99 82 60 11 0 25 56 20 18 24 23 27
26 25 25 24 24 24 23 23 23 27 28 26 26 27 28 26
27 27 27 27 26 27 27 27 28 28 28 28 29 28 29 28
29 29 29 29 29 28 29 29 29 29 29 30 29 29 29 30
0 0 2 35 19 0 0 0 0 0 0 15 49 43 2 0
0 2 2 0 15 32 0 0 1 0 0 0 23 25 14 3
0 0 0 0 3 17 1 0 0 0 16 46 21 16 16 0
1 52 117 123 129 132 132 129 131 128 130 131 128 124 121 117
114 111 107 104 100 93 80 58 8 10 55 33 23 26 25 27
27 26 25 25 25 25 24 23 24 27 28 27 27 27 27 27
27 27 28 27 27 28 28 28 28 28 28 29 29 28 29 29
29 29 29 30 30 29 30 30 30 29 29 29 29 31 31 30
0 0 3 35 19 0 0 0 0 0 0 14 49 45 4 0
11 13 9 0 15 31 1 1 7 9 0 0 22 25 14 2
0 0 0 0 0 11 1 0 0 0 19 42 23 20 13 0
15 91 121 125 126 128 125 125 128 128 127 129 127 121 119 117
115 110 106 100 96 95 89 78 49 2 41 40 26 29 31 26
27 26 25 25 24 24 23 23 24 26 28 27 27 27 27 27
27 28 28 27 28 27 28 28 28 28 29 29 30 29 29 30
30 30 30 29 29 28 29 28 29 29 29 30 30 30 30 30
0 0 5 38 30 13 11 11 10 8 6 19 50 47 7 0
1 3 3 0 15 32 1 2 1 14 0 0 21 24 14 3
0 0 0 0 0 9 1 0 0 0 23 32 27 28 17 5
44 113 121 122 123 125 128 127 126 125 127 127 127 127 124 122
120 116 109 101 97 94 92 88 76 32 16 47 31 36 29 27
27 26 25 25 25 25 24 23 25 27 28 27 26 27 28 27
27 27 27 28 28 29 29 29 29 29 30 29 30 29 29 29
29 30 30 31 30 30 30 29 30 30 29 30 30 30 30 29
0 0 3 36 46 45 42 40 38 35 31 32 37 34 4 0
4 5 0 0 13 31 1 1 0 2 0 0 22 25 14 4
0 0 7 2 0 7 1 0 0 4 25 29 34 38 25 21
77 118 119 119 124 130 133 134 132 127 132 132 132 135 124 119
119 114 112 104 101 96 93 91 87 70 14 42 32 45 26 22
28 27 25 26 26 25 24 23 25 27 27 28 27 28 28 28
28 28 29 28 28 29 29 28 29 28 29 29 29 30 29 29
30 30 30 31 31 30 31 31 30 31 30 30 31 30 31 31
0 0 2 43 43 31 34 32 35 39 38 30 22 16 3 1
2 5 0 0 14 29 0 2 2 0 0 0 21 24 15 4
6 4 4 0 0 8 3 0 0 8 29 30 42 50 32 39
105 118 119 123 128 128 126 128 136 137 137 137 136 137 129 111
101 95 75 54 71 90 91 93 92 85 52 17 30 41 31 20
26 27 25 26 26 26 25 24 26 28 29 28 28 28 29 28
28 28 29 29 29 30 29 30 31 30 30 30 29 30 30 30
30 31 31 31 31 31 31 31 31 32 32 31 31 31 31 30
0 0 3 44 30 0 0 1 5 10 16 32 32 35 38 35
32 30 24 19 27 32 4 2 3 1 0 0 25 25 16 7
7 0 1 2 0 10 7 1 3 21 27 37 53 58 37 68
116 119 118 115 91 84 99 111 129 139 139 139 136 137 130 103
87 87 66 56 41 47 69 82 91 91 75 29 19 32 29 22
26 28 26 27 27 26 25 24 27 28 29 29 29 29 29 29
30 31 30 30 30 31 31 31 30 30 31 30 30 31 32 31
32 32 32 32 32 31 31 31 31 30 31 30 30 29 31 30
0 0 4 45 31 0 0 0 0 0 0 18 47 33 21 26
31 39 41 44 40 50 42 26 32 32 30 27 34 23 16 7
1 0 0 0 0 18 40 31 26 29 29 33 53 51 49 94
113 106 85 45 45 67 85 101 124 140 140 139 138 138 134 115
104 106 85 66 50 29 37 52 74 92 85 55 10 19 25 19
27 28 28 29 28 27 27 25 28 28 30 30 30 30 30 30
31 31 31 31 31 32 31 32 31 31 32 32 32 32 32 32
32 32 32 32 32 31 31 31 30 30 29 26 24 22 19 17
0 0 9 45 33 3 0 0 5 5 0 16 51 33 13 10
18 17 12 12 45 59 48 31 40 46 46 45 44 24 16 6
0 0 0 0 0 19 51 42 38 27 26 26 63 47 61 105
91 61 43 61 75 93 106 117 132 140 140 139 138 137 135 129
126 128 123 104 91 75 49 40 47 76 89 78 25 11 19 21
20 25 28 29 28 27 27 25 28 29 30 30 30 30 31 30
31 31 31 29 30 32 31 31 31 31 31 32 31 31 32 32
33 32 31 30 28 25 27 32 19 15 14 14 14 14 15 15
2 1 21 45 32 9 11 2 17 8 0 13 49 32 5 7
8 5 2 4 48 56 39 32 42 46 46 49 47 24 17 14
8 4 1 0 0 19 46 39 33 23 17 26 48 48 81 81
48 41 47 83 105 126 134 136 139 140 139 138 135 128 130 128
130 129 129 131 132 130 115 81 46 45 81 83 48 9 14 20
21 23 26 29 26 27 26 24 28 29 30 30 30 29 29 29
30 30 29 29 29 30 31 30 31 31 32 31 31 29 26 23
21 18 15 15 15 14 15 30 15 14 17 18 19 20 21 21
2 5 30 45 29 20 24 9 12 6 0 11 48 30 0 2
1 0 0 4 46 48 21 12 21 24 27 31 41 25 17 29
42 41 34 28 23 30 35 33 33 20 21 29 38 49 83 49
56 89 121 134 132 132 132 135 134 137 139 137 131 121 116 122
122 124 125 126 124 116 124 120 96 51 56 83 68 8 11 12
22 17 22 27 27 27 26 24 28 28 29 29 29 28 28 27
27 26 30 30 30 30 28 15 20 23 20 18 16 16 15 15
16 17 18 18 20 20 19 26 16 20 23 24 25 25 26 26
8 12 38 48 26 8 4 0 15 20 3 12 46 26 0 0
0 0 0 3 43 48 16 0 0 0 0 1 25 26 17 29
47 47 46 46 46 47 27 29 20 21 31 31 35 60 57 66
113 134 132 117 112 120 118 126 125 127 130 132 121 111 109 110
120 116 104 82 71 59 88 106 112 85 52 74 76 22 7 5
12 22 12 24 25 25 25 23 26 26 27 26 27 26 25 25
23 15 23 21 19 17 7 6 16 17 18 18 19 20 21 22
22 24 24 24 26 25 23 29 20 24 27 27 28 29 29 29
38 37 38 48 40 24 19 19 24 12 3 13 46 28 3 11
0 0 0 1 40 50 16 0 0 0 0 1 22 28 17 27
44 47 46 48 48 47 23 23 19 28 32 30 36 71 67 112
133 117 90 63 62 68 87 104 114 117 121 117 109 102 104 103
101 93 88 66 26 42 64 71 102 106 79 65 77 44 4 4
2 15 7 13 20 21 22 23 25 26 25 24 23 20 18 18
16 13 16 17 14 9 12 20 22 23 24 25 25 26 26 26
28 28 28 28 30 28 21 11 10 26 30 30 31 30 30 30
37 29 4 38 46 33 20 42 37 11 0 16 51 30 10 20
0 0 0 0 34 46 13 0 0 0 17 23 28 31 25 27
34 35 37 37 41 43 21 14 24 31 20 28 57 74 95 124
115 80 75 49 23 65 91 83 100 107 115 112 108 101 98 93
79 80 101 114 74 80 81 54 80 106 93 63 75 61 4 3
1 5 5 4 14 14 13 14 17 17 16 17 16 17 18 18
20 21 22 17 16 14 25 26 27 27 28 29 28 28 29 29
30 30 30 30 28 28 18 2 1 24 31 32 32 31 31 32
27 20 0 27 44 30 7 38 34 11 0 15 51 34 3 14
1 0 0 0 30 43 11 0 0 0 18 26 25 28 23 23
23 25 31 31 35 41 17 21 28 19 20 33 77 82 112 122
82 69 104 79 55 99 115 98 81 100 110 109 107 97 95 84
73 60 81 106 112 109 91 60 62 96 102 77 71 71 13 11
0 0 2 1 13 18 16 13 16 14 18 20 21 22 23 24
25 26 21 16 27 17 29 29 29 29 29 30 31 30 30 30
27 28 21 12 7 16 16 5 1 23 31 32 32 32 32 32
33 28 5 18 38 21 0 30 22 9 0 14 52 35 0 3
0 0 0 0 32 42 10 0 0 0 6 13 19 24 22 23
23 25 30 31 37 35 18 20 13 18 25 42 93 97 116 108
74 96 125 130 122 125 112 72 86 101 106 108 114 105 94 90
85 79 70 86 111 124 119 99 74 86 100 90 77 76 24 29
4 0 0 0 7 21 19 15 20 18 23 25 25 26 27 27
27 26 16 29 29 19 10 11 13 6 12 26 31 27 27 17
1 1 2 0 0 16 17 0 0 23 31 32 32 31 32 32
34 38 21 9 21 20 1 18 15 0 0 12 50 34 0 0
0 0 0 0 34 44 10 0 1 0 0 0 8 18 19 18
7 10 16 21 26 18 12 10 22 24 22 66 96 102 118 103
80 103 123 129 125 117 95 81 96 106 109 128 134 125 103 91
91 81 78 86 102 117 123 111 94 80 96 94 84 75 35 31
19 0 0 0 2 23 25 21 23 21 27 28 28 28 28 27
28 19 22 19 28 24 1 0 0 0 7 12 11 0 0 0
1 1 0 0 0 10 21 0 0 22 31 31 33 31 31 31
1 4 1 0 0 8 17 5 3 5 9 19 47 32 0 0
0 0 0 1 37 44 9 0 2 4 0 0 10 26 26 20
0 0 0 0 1 5 4 15 25 20 19 86 101 110 120 102
101 129 140 139 131 114 85 91 109 106 122 139 139 135 112 92
96 96 92 92 97 106 114 116 108 91 89 97 89 78 44 23
20 3 0 0 1 22 26 23 25 24 29 29 29 29 30 29
23 8 2 0 9 31 3 0 0 0 0 0 0 0 0 0
0 15 0 0 0 4 24 3 1 24 31 32 32 32 31 32
8 0 0 0 0 0 0 5 3 17 39 40 42 33 16 13
9 6 4 4 38 43 10 0 0 7 0 0 11 32 26 21
1 0 0 0 2 1 6 12 17 7 32 95 104 114 117 101
119 137 140 138 125 103 101 112 110 109 123 140 139 132 107 97
90 99 101 96 100 102 105 109 108 101 89 95 93 80 48 16
12 7 0 0 0 18 26 23 26 26 29 30 30 30 30 29
9 8 21 8 1 2 0 0 0 0 0 0 0 0 0 0
0 0 0 0 0 5 25 12 9 27 32 32 33 32 32 32
7 0 0 2 0 1 9 29 33 30 46 47 45 41 44 40
29 34 33 27 34 36 17 1 0 9 7 2 9 34 26 21
1 0 6 5 3 4 3 7 10 5 53 99 107 115 111 109
129 141 138 131 117 109 113 113 107 113 115 133 133 119 98 95
97 95 103 101 99 97 100 102 102 101 95 91 94 82 52 13
8 3 0 0 0 10 27 23 26 27 30 30 30 29 29 24
10 27 20 17 28 27 25 25 24 24 23 10 18 4 0 0
0 0 0 0 0 13 25 22 23 29 32 32 32 31 32 31
7 0 0 11 30 29 40 41 47 46 46 47 49 43 20 14
8 10 15 14 22 32 31 28 21 24 25 21 22 35 22 20
1 2 15 13 7 3 1 4 6 6 69 100 106 117 109 118
136 137 134 126 114 112 114 113 115 111 104 124 122 104 43 48
94 97 100 103 103 101 100 100 103 103 99 94 94 85 56 17
7 1 0 0 0 5 26 23 27 28 31 31 31 30 28 10
14 17 27 31 31 31 31 31 31 31 31 23 3 0 0 0
0 8 11 10 13 26 25 26 28 31 32 31 32 31 32 31
34 16 13 27 44 42 35 26 43 37 26 29 35 37 3 0
0 0 12 10 18 34 30 22 22 29 35 38 41 39 25 20
2 3 15 11 5 3 3 4 5 10 72 100 109 115 115 123
128 128 126 123 115 111 113 119 117 49 15 104 117 90 18 7
56 103 102 107 105 104 106 108 110 107 103 98 94 90 65 22
9 0 1 2 0 2 25 25 27 28 31 31 30 30 15 18
31 31 32 31 31 31 32 32 31 30 29 3 0 1 0 0
0 29 32 31 30 30 28 28 31 32 32 32 32 31 31 32
46 45 44 45 45 41 20 2 17 10 0 0 4 34 4 0
2 4 7 11 25 35 28 3 0 5 10 21 42 38 25 20
4 0 4 2 3 4 11 2 7 21 68 102 110 114 118 124
127 131 134 134 120 112 116 122 88 8 35 111 116 104 56 12
44 105 104 110 104 109 113 123 123 119 107 100 96 92 73 20
8 0 0 5 0 5 27 25 28 29 31 31 31 22 10 30
31 31 32 32 32 31 31 31 31 31 29 2 0 3 9 0
0 29 31 31 30 30 29 29 31 31 30 31 31 32 32 32
46 47 47 46 40 32 14 0 0 1 0 0 2 34 6 1
21 30 14 6 24 36 26 1 1 18 20 23 41 34 23 23
19 2 3 1 5 8 13 4 11 27 66 104 109 115 120 126
134 139 140 139 128 113 116 119 108 45 88 115 119 110 98 63
84 105 101 110 110 117 129 135 130 124 114 102 97 93 79 26
8 0 0 2 2 3 26 25 28 28 31 31 27 7 27 31
31 31 31 32 32 32 32 32 31 31 30 3 0 0 0 0
0 25 31 31 31 30 30 32 31 31 31 31 32 32 31 31
48 48 48 39 13 14 7 5 1 12 4 0 2 34 6 9
29 27 3 0 23 37 26 0 1 11 27 31 41 29 22 24
15 0 1 1 4 13 13 5 6 30 69 105 109 116 120 134
140 140 140 139 137 119 112 109 121 123 121 133 132 130 117 105
100 94 95 107 113 134 138 137 134 131 119 108 99 94 81 36
7 0 0 0 0 4 26 26 27 27 30 29 14 20 31 31
30 31 31 31 31 31 31 31 30 29 28 3 0 0 0 0
0 22 31 31 31 30 30 32 31 31 31 32 32 32 32 31
26 30 32 35 37 39 33 35 31 34 9 0 2 33 8 1
28 33 2 0 24 40 28 0 0 1 7 28 42 28 23 24
15 4 3 3 4 20 9 3 4 28 74 105 111 116 128 140
141 141 140 141 140 136 122 108 111 121 129 139 139 138 131 115
108 102 101 107 122 137 138 137 134 132 122 110 101 94 81 43
6 0 0 0 0 6 27 26 28 28 30 29 8 29 30 30
30 30 31 31 31 31 31 29 22 16 16 1 0 0 0 0
0 20 32 31 31 32 31 32 32 31 32 32 32 31 31 30
0 0 0 3 25 27 8 4 6 6 2 0 2 33 5 0
11 13 3 1 25 42 29 0 0 0 0 22 44 29 23 24
33 36 33 28 6 14 4 4 2 22 78 105 112 117 134 140
140 140 140 141 139 134 126 125 127 130 137 139 139 139 136 128
120 115 109 106 111 126 136 137 132 131 127 114 101 96 83 48
5 0 0 0 0 9 27 26 27 28 30 27 9 30 30 31
31 31 32 32 32 32 32 10 6 1 0 0 0 0 0 0
0 18 31 31 31 32 32 32 32 31 31 31 31 32 31 31
0 0 0 2 29 33 7 0 0 0 0 0 1 33 5 0
0 0 1 0 23 41 27 0 0 0 0 20 45 29 22 24
40 51 50 44 8 6 1 4 0 19 81 106 113 121 135 140
140 141 140 140 138 130 126 130 132 137 140 139 139 139 139 136
128 120 115 108 107 116 130 136 131 129 125 113 104 98 88 51
5 0 0 0 0 10 26 27 27 28 30 28 10 31 30 30
31 31 31 31 32 32 31 25 34 14 21 0 0 0 0 0
0 10 27 30 30 30 31 32 31 31 32 31 31 31 31 31
0 0 0 2 34 39 13 0 0 0 0 0 0 32 7 0
0 0 0 0 21 41 26 0 0 0 0 20 45 30 22 25
36 46 46 44 12 3 0 0 0 16 82 105 113 123 135 141
141 141 141 140 133 125 127 135 136 139 139 138 139 139 140 139
137 130 120 112 108 111 122 134 133 124 124 113 106 100 92 54
7 4 0 0 5 15 27 27 27 28 29 28 9 30 30 31
31 31 32 31 32 32 31 41 45 16 6 0 0 0 0 0
0 2 4 15 15 22 32 32 31 31 31 31 31 31 30 30
4 7 8 13 39 46 19 0 0 0 0 0 0 31 5 0
0 0 0 0 21 42 26 0 0 0 0 16 40 26 22 23
24 27 27 27 10 0 0 0 0 16 82 105 112 120 135 140
140 140 140 138 128 127 131 138 140 139 138 138 137 134 131 130
131 130 123 117 108 110 119 126 136 116 120 111 106 101 95 57
16 17 23 23 0 12 26 26 27 28 30 29 10 29 30 31
31 31 30 27 25 22 19 6 3 4 0 0 0 0 0 0
0 1 2 0 3 18 32 32 32 31 31 32 31 31 30 30
26 34 33 38 44 35 10 0 0 0 0 0 0 30 5 0
0 0 0 0 20 42 27 0 0 0 0 16 43 29 21 23
29 33 32 31 5 0 0 0 0 8 77 103 110 118 132 138
139 140 138 135 124 134 135 136 131 123 122 121 116 115 113 113
116 116 114 113 109 110 119 116 130 126 113 110 106 102 96 65
32 34 30 50 7 15 26 26 26 28 30 29 13 27 31 31
31 31 21 6 5 6 5 1 0 0 0 0 0 0 0 0
0 1 3 0 2 18 33 32 33 32 31 32 31 30 30 30
35 36 38 44 45 20 0 0 0 0 0 0 0 30 16 10
11 15 19 23 33 40 26 0 0 0 0 17 46 30 20 23
30 36 37 34 7 0 0 0 2 8 67 102 111 116 128 134
139 133 130 131 119 130 125 120 117 118 108 107 101 102 100 102
107 101 96 96 102 104 120 123 121 130 110 109 106 103 97 72
55 51 43 49 23 14 26 26 26 29 30 30 19 22 30 28
26 23 13 1 1 2 1 0 4 3 0 0 0 0 0 0
0 0 4 0 1 15 32 32 32 32 32 32 31 31 31 30
11 14 20 27 43 32 22 23 21 18 17 18 20 36 37 36
37 39 42 43 41 32 24 17 13 12 8 21 42 29 22 26
31 35 36 34 5 1 4 11 23 17 59 100 112 114 124 129
139 128 136 133 121 116 108 103 101 108 118 120 115 115 115 107
95 86 80 80 85 95 118 133 126 127 109 107 105 105 100 79
75 75 67 61 37 10 26 26 25 27 24 20 13 5 7 5
3 3 3 4 5 5 7 6 5 2 7 5 0 0 0 0
0 0 4 1 2 11 32 33 32 32 31 30 30 29 29 29
0 0 0 6 41 44 44 44 43 41 40 42 43 41 39 35
38 38 40 39 38 37 37 36 35 36 34 34 36 34 33 34
34 34 34 33 8 3 26 42 62 37 66 98 111 115 122 123
138 130 139 130 112 93 88 103 119 130 137 135 133 133 133 130
118 105 95 85 77 68 106 132 127 125 108 108 104 101 99 83
86 76 82 86 48 7 26 26 19 8 3 3 4 4 6 7
8 8 8 8 8 8 7 4 1 1 4 11 0 0 0 0
0 0 2 5 9 11 28 30 31 30 30 30 31 30 29 30
0 0 0 6 41 47 47 45 46 44 45 47 46 32 23 25
35 36 35 36 35 35 35 35 34 35 34 35 35 35 34 34
34 34 34 33 13 1 47 43 81 62 73 94 110 116 123 122
137 135 138 123 95 95 117 127 137 139 139 140 138 139 139 138
129 119 110 105 102 100 118 134 131 118 107 107 106 103 98 84
91 93 89 93 54 6 25 25 18 8 7 7 7 8 8 7
6 5 5 4 3 2 8 6 1 3 7 4 0 0 0 2
0 0 1 8 9 11 27 32 32 32 32 31 30 30 30 29
0 0 0 6 42 43 42 39 40 37 38 43 36 18 18 22
33 35 34 34 35 34 34 34 33 34 34 34 33 33 33 32
32 33 32 31 12 4 54 79 88 76 88 92 111 118 122 121
130 133 137 128 117 118 125 131 137 140 140 140 138 139 139 138
129 121 115 109 111 111 110 125 121 108 109 109 106 104 101 85
95 103 107 90 53 9 24 24 11 8 8 4 2 1 0 0
0 0 0 0 0 0 9 8 5 2 4 0 0 0 0 0
0 0 5 4 4 8 28 32 32 30 31 30 31 30 30 30
0 0 0 7 41 21 8 11 7 7 8 13 10 16 18 21
33 35 28 19 18 17 16 15 14 13 12 12 11 10 10 10
10 10 10 10 5 4 68 105 103 106 99 92 109 121 125 125
122 134 138 131 129 128 133 137 139 140 139 139 139 138 137 135
132 128 123 122 118 113 108 118 110 105 108 108 107 103 95 84
94 101 109 86 52 9 24 24 15 9 7 0 0 0 0 0
0 0 0 0 0 2 10 9 7 6 6 6 7 8 8 8
10 12 16 17 14 15 22 22 22 24 31 31 31 31 30 30
0 0 0 6 42 15 0 0 0 0 0 6 3 16 18 21
31 35 23 2 0 0 0 0 0 0 0 0 0 0 0 0
0 0 0 0 0 2 74 113 107 114 108 95 110 119 125 126
120 125 133 129 128 130 136 139 140 140 140 138 135 133 133 133
132 132 125 123 120 113 111 110 104 105 108 108 108 104 98 85
100 101 98 91 54 8 24 24 14 9 5 0 0 0 0 0
0 0 0 0 0 4 10 8 7 24 20 19 20 25 24 20
25 22 20 20 14 12 42 18 13 18 32 31 31 31 29 29
0 0 0 5 41 16 0 0 0 0 1 10 12 16 17 20
30 34 27 5 0 0 0 0 0 0 0 0 0 0 0 0
0 0 0 0 1 4 75 108 107 118 113 98 105 116 122 126
121 113 123 120 129 133 134 137 140 140 137 132 128 126 122 124
129 129 126 122 119 116 111 106 101 105 108 105 108 105 99 85
104 114 99 91 56 9 22 22 12 9 3 0 0 0 0 0
0 0 0 0 0 7 9 9 8 22 16 19 22 28 50 46
62 64 66 28 14 32 106 50 10 15 31 31 30 15 5 5
0 0 0 3 39 17 0 0 0 6 12 13 11 15 16 20
29 34 28 8 0 0 0 0 0 0 0 0 0 0 0 0
0 0 0 0 0 10 75 100 108 112 120 99 103 112 120 124
124 112 112 112 130 135 135 138 137 134 135 136 134 130 126 122
121 122 123 120 120 118 109 101 101 105 107 107 108 106 97 86
108 108 108 90 53 7 20 19 9 8 1 0 0 0 0 0
0 0 0 0 0 9 9 10 7 17 15 21 24 31 82 68
88 86 88 33 15 93 119 106 27 14 30 30 27 0 0 0
0 0 0 3 38 17 0 0 5 12 12 12 11 15 16 20
29 33 29 10 0 0 0 0 0 0 0 0 0 0 0 0
0 0 0 0 0 11 79 85 109 108 124 104 102 115 120 124
123 114 109 118 126 136 139 137 131 131 137 139 138 135 130 123
117 114 121 122 122 115 109 99 100 105 107 108 107 105 94 84
115 109 106 88 44 19 25 17 9 8 0 0 0 0 0 0
0 0 0 0 1 9 9 12 7 11 22 26 31 28 47 40
41 38 34 27 24 51 38 32 24 16 29 31 26 1 0 0
0 0 0 3 36 17 0 0 4 11 12 12 11 15 17 19
27 33 30 14 0 0 0 0 0 0 0 0 0 0 0 0
0 0 0 0 0 5 82 70 104 119 122 109 99 113 118 122
122 114 107 115 121 132 137 134 125 132 139 139 139 137 135 131
121 115 114 115 114 109 106 96 99 102 106 107 105 101 91 80
112 111 104 83 47 39 37 17 8 5 0 0 0 0 0 0
0 0 0 0 3 10 9 12 4 1 23 30 32 22 23 23
19 16 18 20 22 23 22 21 22 14 28 31 29 11 0 0
0 0 0 3 35 18 0 0 4 11 13 13 11 15 16 18
25 32 30 15 0 0 0 0 0 0 0 0 0 0 0 0
0 0 0 0 0 2 54 89 108 119 117 110 97 109 113 118
119 112 105 110 117 127 134 129 126 136 140 140 140 140 139 135
128 118 111 112 107 103 100 95 96 104 107 106 100 98 86 58
41 56 40 42 42 41 33 12 9 3 0 0 0 0 0 0
0 0 0 0 5 9 8 11 1 1 17 23 33 22 24 18
18 15 14 19 24 22 22 21 21 13 27 30 28 28 3 0
16 14 13 19 39 21 0 0 5 11 12 12 10 14 16 18
24 32 30 17 0 0 0 0 0 0 0 0 0 0 0 0
0 0 0 0 0 0 26 77 107 119 120 106 95 105 110 114
113 110 103 103 114 122 123 125 129 137 140 140 140 140 140 137
131 120 116 110 102 99 98 93 95 101 105 103 98 92 83 33
0 0 5 17 41 42 29 10 8 1 0 0 0 0 0 0
0 0 0 0 8 9 10 8 0 0 0 12 33 22 23 14
15 15 15 20 25 24 23 21 20 8 25 24 4 5 2 0
39 39 38 37 35 25 0 0 6 12 12 13 10 14 15 17
23 31 30 19 1 0 0 0 0 0 0 0 0 0 0 0
0 0 0 0 0 0 20 46 102 118 112 89 87 98 106 108
107 105 100 98 105 113 117 122 131 134 138 139 140 140 139 134
129 122 117 108 101 95 94 90 96 101 100 97 95 88 76 19
0 2 11 16 40 40 23 9 8 0 0 0 0 0 0 0
0 0 0 0 9 8 9 5 0 0 0 16 31 23 22 13
18 16 15 22 24 23 22 20 20 8 13 3 0 0 5 0
25 17 13 7 8 24 0 0 5 11 11 12 9 13 15 17
23 31 30 21 1 0 0 0 0 0 0 0 0 0 0 0
0 0 0 0 0 0 17 34 60 76 54 15 47 95 99 102
102 101 99 94 99 108 116 126 134 134 130 129 138 137 132 129
125 123 114 108 99 92 90 91 95 98 95 90 89 83 70 6
0 4 12 18 42 41 19 9 7 0 0 0 0 0 0 0
0 0 0 3 10 8 11 5 0 7 8 25 30 24 21 10
16 15 14 22 23 23 23 21 21 11 0 0 0 3 0 0
4 0 0 0 2 24 3 0 6 10 10 12 9 13 15 17
21 30 29 21 1 0 0 0 0 0 0 0 0 0 0 0
0 0 0 0 0 0 14 31 25 16 2 0 17 86 93 98
99 100 97 90 90 99 112 125 127 130 131 133 132 126 123 121
116 115 111 102 92 84 89 88 91 93 91 85 82 80 51 0
0 0 12 22 44 38 14 8 4 0 0 0 0 0 0 0
0 0 0 4 9 8 10 1 0 10 5 28 28 23 18 4
11 15 14 22 23 23 22 21 21 11 0 0 0 6 0 0
0 0 0 0 2 31 32 22 16 9 10 11 9 12 15 16
20 29 29 22 2 0 0 0 0 0 0 0 0 0 0 0
0 0 0 0 0 0 11 31 26 17 2 0 2 66 90 91
94 96 93 91 86 93 107 116 120 119 120 118 120 117 116 112
109 104 103 93 87 84 81 87 86 85 82 80 78 70 31 0
0 1 7 23 44 34 11 9 2 0 0 0 0 0 0 0
0 0 0 6 9 9 10 0 1 8 5 32 26 17 5 0
10 13 13 20 22 22 22 22 22 12 0 1 4 8 1 1
0 0 0 0 6 33 26 10 8 9 10 11 9 12 15 16
20 29 30 22 3 0 0 0 0 0 0 0 0 0 0 0
0 0 0 0 0 0 10 31 25 15 6 1 3 37 85 87
90 87 87 89 85 88 100 109 109 107 106 104 98 94 93 94
92 88 81 81 78 77 77 75 77 78 73 71 68 61 26 0
0 2 7 31 43 27 10 8 0 0 0 0 0 0 0 0
0 0 0 8 9 10 8 0 4 12 12 33 25 14 5 0
11 12 15 22 23 23 23 23 23 14 4 7 9 9 7 6
0 0 0 0 5 31 14 0 0 8 9 10 8 11 14 15
19 29 30 23 4 0 0 0 0 0 0 0 0 0 0 0
0 0 0 0 0 0 9 31 25 12 8 6 3 26 75 80
84 80 80 81 83 84 94 94 92 91 85 74 70 67 65 62
60 58 58 61 63 64 67 68 63 60 56 56 56 61 25 0
0 1 10 42 43 20 9 7 0 0 0 0 0 0 0 0
0 0 1 10 9 10 6 0 43 46 16 34 25 15 3 2
11 13 15 21 23 22 22 23 24 15 2 3 4 4 1 0
0 0 0 0 3 30 15 0 0 8 10 10 9 11 14 15
19 28 29 24 4 0 0 0 0 0 0 0 0 0 0 0
0 0 0 0 0 0 8 30 23 10 5 8 6 17 73 74
74 71 71 71 73 74 75 78 75 69 61 53 46 43 43 43
42 43 45 49 53 54 52 49 47 47 47 46 61 72 26 0
0 2 24 45 41 16 9 5 0 0 0 0 0 0 0 0
0 0 4 11 11 12 4 1 54 39 19 33 25 16 7 12
17 13 18 24 24 24 23 24 24 17 0 0 0 0 0 0
2 3 5 11 15 30 16 0 0 7 9 10 9 10 13 14
18 28 29 23 5 0 0 0 0 0 0 0 0 0 0 0
0 0 0 0 0 0 7 31 24 13 8 6 7 10 82 68
66 63 59 60 61 63 63 59 59 53 50 52 58 62 64 62
56 54 54 50 58 57 56 53 56 56 54 60 79 77 30 0
0 7 40 47 36 13 10 3 0 0 0 0 0 0 0 0
0 0 7 11 11 11 1 0 14 12 27 31 26 20 16 10
16 15 21 27 25 23 23 24 24 16 0 0 0 0 0 0
18 20 24 31 37 38 24 3 1 7 9 10 9 9 12 14
17 27 29 23 5 0 0 0 0 0 0 0 0 0 0 0
0 0 0 0 0 0 6 30 25 16 11 2 2 6 84 84
63 65 63 58 59 63 62 56 50 52 58 65 70 75 78 71
68 66 61 61 63 64 65 67 72 71 66 78 82 81 36 0
0 15 48 47 30 11 10 2 0 1 1 1 1 1 1 1
1 1 9 11 11 10 0 0 5 9 33 30 26 22 14 12
17 17 21 26 26 23 23 23 23 17 0 0 0 0 0 0
27 29 31 36 41 40 35 28 24 20 10 9 8 8 12 13
16 25 28 23 5 0 0 0 0 0 0 0 0 0 0 0
0 0 0 0 0 0 5 29 27 21 14 2 0 3 84 97
83 70 74 76 74 72 70 63 59 62 64 72 79 78 80 77
73 72 67 67 68 70 74 78 78 76 78 87 86 84 46 0
1 26 49 46 23 9 10 9 8 9 9 9 9 9 9 10
10 10 11 10 12 8 0 0 2 10 36 28 26 22 14 11
17 16 22 25 25 23 23 22 22 17 0 0 0 0 0 0
22 21 20 19 19 18 17 11 9 10 8 8 8 7 12 13
15 25 28 23 5 0 0 0 0 0 0 0 0 0 0 0
0 0 0 0 0 0 5 28 26 22 12 1 0 2 85 102
101 82 82 88 87 83 79 69 66 72 75 81 84 84 81 75
77 79 72 71 71 75 83 81 83 82 87 92 88 88 52 0
2 27 48 45 19 10 10 10 10 10 10 10 10 10 10 10
9 9 11 9 14 6 0 1 3 16 35 27 26 22 14 11
17 17 24 25 25 24 24 23 23 18 0 0 0 0 0 0
9 9 9 9 11 13 16 1 0 3 6 7 6 6 11 12
15 25 28 23 5 0 0 0 0 0 0 0 0 0 0 0
0 0 0 0 0 0 5 28 26 21 15 1 0 2 85 107
108 94 89 93 93 89 88 80 70 77 84 88 89 88 81 80
81 81 74 75 76 80 82 83 84 87 94 96 90 92 61 0
3 32 47 45 15 7 10 10 11 11 19 17 11 10 10 11
13 14 11 6 12 3 0 9 20 26 33 26 26 20 12 10
15 18 24 25 25 23 24 24 23 19 0 0 0 0 0 0
3 3 2 3 10 11 16 2 0 1 5 6 6 5 10 11
14 23 27 23 6 0 0 0 0 0 0 0 0 0 0 0
0 0 0 0 0 0 5 29 26 23 21 7 0 1 84 108
111 104 93 95 97 96 91 87 85 84 89 90 92 86 82 85
86 82 80 74 75 79 83 84 88 94 97 96 94 92 71 1
3 33 44 35 14 10 24 27 35 52 86 83 59 56 38 28
32 29 28 25 8 0 6 35 19 29 33 27 26 14 7 11
11 18 23 24 24 24 24 24 23 18 1 0 0 0 0 0
0 3 4 3 7 15 18 2 0 0 0 4 7 6 10 11
13 22 27 22 6 0 0 0 0 0 0 0 1 1 2 3
4 5 6 7 9 10 17 28 25 23 23 16 2 1 82 109
113 108 94 96 99 100 97 91 92 92 93 94 96 92 92 95
95 91 85 81 82 84 83 88 93 100 100 97 97 95 77 4
3 31 30 16 20 54 91 100 116 128 135 135 124 110 69 16
9 8 10 14 27 13 48 132 52 30 30 26 24 14 13 11
9 19 23 23 25 25 24 24 21 19 1 0 0 0 0 0
15 19 20 20 18 13 15 1 0 1 3 0 6 5 9 10
13 22 27 25 15 8 10 11 13 14 15 17 19 20 20 21
22 22 22 23 23 22 23 22 23 21 23 21 5 0 78 109
113 112 105 100 101 101 102 100 101 101 101 100 100 100 102 102
102 97 89 83 85 86 86 94 99 101 100 89 98 96 83 11
8 33 36 35 36 56 96 100 111 120 126 135 125 110 68 9
7 7 6 10 19 19 80 138 42 34 28 25 23 10 9 1
4 17 19 17 20 22 24 23 23 20 1 0 0 0 0 0
19 21 23 23 23 19 3 0 0 1 5 0 5 5 9 10
12 21 26 26 26 24 22 25 26 26 25 24 24 25 24 24
24 24 24 23 23 22 22 22 23 22 25 19 0 0 77 108
113 114 108 106 102 101 104 105 109 110 111 108 108 106 108 107
106 103 93 88 88 85 90 96 99 102 101 91 101 98 86 19
7 31 34 41 47 50 77 100 114 125 130 128 120 103 56 6
4 6 4 23 5 0 40 50 16 38 25 8 3 0 0 1
0 1 6 24 25 23 23 19 22 20 2 0 0 0 0 0
21 19 20 22 26 20 10 2 0 0 1 0 0 1 6 9
11 20 27 27 26 25 21 25 25 26 25 25 24 25 27 24
16 16 20 21 15 16 20 20 21 23 24 18 3 0 74 108
112 112 109 102 104 103 106 109 115 119 121 118 118 119 118 119
113 105 94 90 89 89 96 89 98 102 102 101 101 98 87 29
11 17 18 35 38 34 49 75 36 82 97 90 76 52 11 5
6 4 15 40 31 32 42 50 42 45 23 3 0 0 0 0
0 0 0 19 15 16 23 15 17 19 3 0 0 0 0 0
20 17 15 25 30 18 3 0 0 0 0 0 0 1 5 8
10 20 27 27 26 24 22 23 23 22 22 21 24 42 49 17
0 0 1 4 1 1 12 17 17 16 13 10 6 10 82 109
116 115 111 107 107 105 105 111 118 123 125 125 122 120 124 123
120 110 99 96 95 96 97 98 103 104 103 102 102 99 87 35
24 15 4 10 32 53 57 52 23 3 4 4 6 6 3 7
11 57 74 86 94 94 87 93 92 71 29 31 0 0 0 0
0 0 0 8 13 22 22 15 11 5 10 7 1 0 0 0
12 12 11 31 20 10 0 0 0 0 0 0 0 0 0 2
3 8 12 11 10 9 8 7 6 7 9 12 43 61 28 1
0 0 0 0 0 0 0 1 0 0 0 0 0 41 84 109
117 118 114 110 110 108 109 112 117 125 130 128 124 124 124 125
120 112 101 95 94 96 99 100 105 106 106 105 103 98 87 39
16 25 2 0 4 32 54 61 67 42 16 10 13 11 12 25
59 101 92 96 98 87 78 91 93 70 16 22 0 0 0 0
0 0 0 0 17 26 14 11 14 6 1 3 0 0 0 0
8 4 23 36 15 12 3 0 0 0 0 0 0 0 0 0
0 0 0 0 0 0 0 0 0 2 12 27 59 42 4 0
0 0 0 0 0 0 0 0 0 0 0 0 4 66 75 109
117 120 117 115 115 113 110 113 119 123 129 129 126 128 128 130
121 115 104 99 98 99 99 105 106 107 106 104 102 98 85 42
29 61 3 1 3 4 4 4 12 33 63 58 37 43 80 72
54 61 71 82 84 83 82 85 89 66 7 5 3 3 4 2
3 5 5 4 9 8 1 0 0 0 0 0 0 0 0 0
7 2 57 16 1 9 10 1 0 0 0 0 0 0 0 0
0 0 0 0 0 0 2 5 0 2 16 44 49 16 0 0
0 0 0 0 0 0 0 0 0 0 0 0 17 39 69 107
117 120 121 117 117 116 112 113 119 123 128 128 128 129 127 130
127 117 105 101 100 101 103 105 108 109 104 103 101 95 87 39
17 44 15 13 17 23 30 40 35 21 23 47 66 66 57 61
78 99 103 91 66 58 56 48 48 41 29 27 25 19 13 6
0 3 3 1 0 0 0 0 0 0 0 0 0 0 0 0
17 7 40 0 0 4 14 16 0 0 0 0 0 0 0 0
1 1 0 0 0 0 3 7 7 2 17 53 31 0 2 10
5 0 0 0 0 0 0 0 0 0 0 0 48 33 68 107
116 120 121 120 119 118 116 117 120 126 129 128 132 134 134 130
126 118 108 105 103 104 105 106 110 109 107 103 99 95 84 36
8 25 48 64 93 129 139 140 139 112 75 64 66 70 87 124
141 140 140 140 117 78 51 36 32 24 17 13 14 10 8 4
0 1 1 0 0 0 0 0 0 0 0 0 0 0 0 0
10 7 17 0 0 0 13 7 0 0 0 0 1 2 1 1
3 2 1 0 1 3 8 13 12 2 24 55 20 13 25 32
17 0 0 3 0 0 0 0 0 0 0 6 64 25 65 107
114 120 122 122 121 119 117 120 123 128 131 134 137 139 139 137
129 117 109 105 107 105 105 107 109 109 106 102 100 94 84 37
5 25 44 53 80 107 140 141 119 74 61 48 48 51 74 114
142 141 140 140 126 85 52 39 28 22 17 14 15 10 10 5
1 1 1 0 0 0 0 0 0 0 0 0 0 0 0 0
0 8 10 0 0 0 0 0 0 0 0 4 2 7 7 7
6 7 9 13 17 19 17 15 10 0 34 44 8 21 32 34
26 2 10 25 14 2 0 3 4 0 0 12 68 27 62 107
114 120 124 124 121 121 119 122 125 132 137 137 141 140 140 137
135 123 109 108 107 105 104 105 110 108 107 103 100 96 83 42
5 22 40 47 77 100 140 142 118 72 61 50 48 51 77 115
142 139 137 141 129 86 52 40 30 23 18 15 15 11 10 6
2 0 3 0 0 0 0 0 0 0 0 0 0 0 0 0
0 7 10 2 4 0 0 0 0 0 0 0 2 5 4 4
5 6 8 13 21 21 12 5 2 1 42 40 2 19 35 34
22 5 27 36 27 11 0 5 0 0 20 35 100 63 53 106
114 119 122 126 123 119 119 120 124 132 140 141 141 141 141 138
133 125 113 107 106 101 101 104 107 107 106 102 99 94 83 41
11 46 35 47 49 92 138 142 119 73 59 45 43 54 72 109
143 137 135 141 127 83 54 38 29 23 18 16 14 11 10 6
2 0 3 1 0 0 0 0 0 0 0 0 0 0 0 0
1 11 14 7 5 0 0 0 0 0 0 0 2 2 1 1
2 2 4 11 21 19 3 0 0 3 46 41 2 18 16 13
24 23 39 36 27 15 1 8 5 18 20 45 96 46 43 106
113 120 124 124 124 118 115 118 120 127 135 140 141 141 142 139
134 118 107 102 99 97 100 101 103 107 105 101 98 93 81 35
23 65 37 33 27 37 78 125 120 75 55 42 45 56 73 110
141 137 134 140 128 85 57 40 30 23 21 15 15 13 11 7
2 0 3 1 0 0 0 0 0 0 0 0 0 0 0 0
0 9 12 7 5 0 0 0 0 0 0 0 1 0 1 2
3 3 4 11 21 17 2 0 0 3 49 44 5 13 4 6
27 35 44 30 20 26 22 38 29 24 30 49 84 34 33 104
113 118 122 125 124 119 112 111 117 119 123 131 139 141 141 137
125 108 99 97 95 92 95 100 102 105 103 100 96 90 78 29
17 32 35 37 31 33 24 25 37 62 52 41 45 53 71 109
142 137 134 141 130 87 58 41 29 22 20 14 14 11 11 8
2 2 2 1 0 0 0 0 0 0 0 0 0 0 0 0
2 19 11 6 5 0 0 0 0 0 0 0 0 1 0 2
4 4 4 11 21 15 7 6 0 3 47 55 18 16 1 10
31 45 41 20 36 43 51 44 28 36 32 45 76 40 27 91
112 117 121 124 123 120 111 109 112 116 117 119 130 137 136 126
109 95 92 93 89 89 96 100 102 104 101 100 94 87 76 18
22 30 38 23 27 26 43 36 36 41 24 36 44 51 70 105
141 137 132 141 129 85 60 41 25 19 16 13 14 11 10 8
2 3 1 0 0 0 0 0 0 0 0 0 0 0 0 0
6 7 0 2 4 1 0 0 0 0 0 0 1 3 0 2
4 4 10 20 26 22 16 16 2 1 38 49 30 14 0 10
34 43 48 69 65 39 41 43 53 49 31 39 64 54 35 61
111 116 120 122 123 118 110 109 112 111 112 111 118 127 124 110
96 89 90 89 90 90 95 100 104 105 102 97 92 87 72 6
34 24 32 23 20 18 21 54 59 26 12 18 29 41 63 102
140 137 133 140 131 88 59 39 24 17 12 10 12 11 11 9
1 4 2 0 0 0 0 0 0 0 0 0 0 0 0 0
0 0 0 0 1 1 0 0 0 0 0 0 5 7 0 1
2 3 20 31 25 21 15 15 2 0 34 47 41 10 0 13
42 69 48 33 34 37 45 86 37 29 29 35 59 58 34 32
106 117 120 121 120 119 112 107 110 115 116 112 108 113 110 97
89 90 95 92 88 89 96 104 107 106 102 96 91 86 53 1
32 22 30 24 21 21 16 35 69 25 16 16 17 19 25 49
89 122 130 140 132 88 54 34 24 19 12 7 9 11 11 10
1 4 2 0 0 0 0 0 0 0 0 0 0 0 0 0
6 6 10 8 1 0 0 0 0 0 0 0 3 8 0 2
1 0 11 26 29 28 22 20 5 0 21 33 26 13 25 48
57 67 38 34 36 39 73 52 37 23 33 35 42 87 59 37
81 116 119 120 120 119 116 109 109 114 118 118 114 106 99 93
97 99 95 88 87 92 101 109 110 105 101 95 90 84 27 24
54 21 39 26 33 40 21 39 28 30 37 28 16 20 36 40
22 25 47 98 119 89 57 33 29 21 11 5 9 10 11 9
1 3 2 0 0 0 0 0 0 0 0 0 0 0 0 0
14 15 16 14 6 0 0 0 0 0 0 0 2 14 15 9
3 0 1 7 16 15 8 4 0 0 1 14 31 53 61 41
44 70 49 41 55 76 33 39 21 15 35 49 45 119 68 58
40 110 115 118 120 120 119 111 109 114 117 117 115 111 105 102
101 99 95 89 90 97 108 114 111 105 99 94 88 72 7 54
58 27 31 22 28 42 38 36 16 17 18 43 45 32 43 27
26 30 33 31 47 67 54 38 30 22 12 8 10 11 11 9
2 3 2 0 0 0 0 0 0 0 0 0 0 0 0 0
8 9 12 12 5 0 1 0 0 0 0 0 0 5 20 6
0 0 0 0 0 0 0 0 0 8 38 66 53 53 44 48
46 70 85 75 62 32 24 49 24 17 50 58 61 101 45 39
26 80 114 117 120 119 120 114 109 113 118 120 118 115 111 109
108 105 100 92 95 105 115 116 111 106 98 91 87 43 6 37
34 25 35 40 42 28 73 31 19 18 17 17 30 85 40 21
29 26 41 64 92 64 42 36 28 20 14 9 11 11 10 8
2 4 1 0 0 0 0 0 0 0 0 0 0 0 0 0
0 0 0 0 0 7 25 0 1 0 0 0 0 0 6 0
0 0 0 0 0 0 0 3 21 39 63 88 54 43 50 56
71 82 102 66 43 41 41 80 52 48 65 42 52 58 56 41
36 37 106 115 118 120 120 117 110 114 120 122 122 120 118 115
113 110 102 96 99 111 115 113 110 104 98 92 75 9 17 35
31 21 28 36 32 66 55 55 24 23 20 15 31 48 46 57
25 31 27 33 53 29 32 30 27 18 14 10 12 12 12 9
3 4 0 0 0 0 0 0 0 0 0 0 0 0 0 0
0 0 0 0 0 15 45 0 4 0 0 0 0 0 5 0
0 0 0 0 0 2 20 59 70 60 51 59 64 45 59 50
47 48 83 64 60 63 66 82 39 33 34 46 33 44 71 35
40 30 63 115 119 120 121 117 112 114 120 124 126 124 123 117
116 110 101 96 103 113 114 114 107 100 94 86 35 17 38 31
26 21 21 19 17 30 32 26 51 34 21 24 38 32 18 30
65 32 29 50 51 27 33 30 29 38 39 16 11 11 12 9
3 2 0 0 0 0 0 0 0 0 0 0 0 0 0 0
0 0 0 0 0 1 8 1 2 0 0 0 0 0 8 7
0 0 0 0 16 76 77 46 40 45 41 39 42 46 56 33
34 32 78 32 26 37 33 50 18 18 21 48 34 36 80 37
41 35 32 86 118 119 121 119 111 111 116 122 125 124 122 119
115 107 96 95 107 116 117 113 106 102 94 63 12 38 33 25
31 21 21 16 18 28 15 14 15 49 44 22 42 22 17 20
30 60 69 86 45 34 50 35 36 52 47 39 27 14 13 10
3 4 0 1 0 0 0 0 0 0 0 0 0 0 0 0
0 0 0 0 0 0 0 0 0 0 0 0 0 0 0 2
0 0 5 44 71 68 58 34 37 62 31 30 37 52 60 33
35 35 79 33 26 32 28 56 19 24 23 42 39 34 67 47
40 57 58 42 104 122 121 120 114 110 109 113 118 120 118 114
108 101 97 101 110 116 117 112 108 98 80 21 50 61 47 18
25 20 25 16 15 31 17 15 13 46 15 56 59 19 25 25
27 34 61 40 41 46 54 64 101 73 33 27 28 30 18 10
4 3 0 0 0 0 0 0 0 0 0 0 0 0 0 0
0 0 0 0 0 0 0 0 0 0 0 0 0 0 0 0
0 19 56 51 51 36 37 33 33 56 26 27 35 46 68 30
34 35 74 32 28 30 28 62 17 23 20 30 54 35 45 84
68 74 60 37 58 115 121 121 117 111 108 105 107 110 110 108
102 100 98 102 112 118 118 112 103 91 39 13 64 53 50 21
32 21 28 15 15 39 17 18 15 44 16 15 39 33 23 25
25 43 56 31 29 27 30 48 69 50 60 57 34 26 26 20
6 4 0 0 0 0 0 0 0 0 0 0 0 0 0 0
0 0 0 0 0 0 0 0 0 0 0 0 0 0 0 3
44 52 36 35 59 38 35 32 32 49 24 24 37 43 73 33
34 35 60 31 30 33 29 64 17 23 22 29 81 44 53 124
70 40 37 45 36 79 121 120 118 115 109 106 104 104 102 100
99 100 102 109 117 120 117 109 99 69 14 70 55 32 29 32
50 39 25 17 14 50 20 18 16 43 12 15 13 27 44 27
26 50 63 32 32 33 33 57 60 34 30 33 53 40 28 44
41 4 0 0 0 0 0 0 0 0 0 0 0 0 0 0
0 0 0 0 0 0 0 0 0 0 0 0 0 0 6 52
73 31 29 32 58 38 40 40 40 86 35 27 29 38 72 28
33 33 47 32 40 43 34 58 13 20 18 22 85 57 73 106
52 40 36 48 30 43 93 118 118 115 114 111 107 104 102 101
103 104 107 112 118 118 112 104 83 23 35 62 39 30 26 26
42 68 45 37 36 83 21 16 27 36 15 14 15 26 48 22
27 28 45 47 27 27 27 72 27 28 28 28 36 41 75 41
33 24 1 0 0 0 0 0 0 0 0 0 0 0 0 0
0 0 0 0 0 0 0 0 0 0 0 0 0 6 42 35
59 62 63 70 98 77 72 73 72 108 52 50 56 55 88 43
43 56 81 61 61 73 79 89 27 27 30 34 77 55 48 66
53 44 44 48 36 33 53 106 117 114 111 110 108 107 108 106
104 102 106 114 117 114 106 94 39 24 49 53 33 26 22 23
39 35 31 33 31 88 38 24 26 28 16 12 12 39 29 29
28 31 46 49 27 32 42 90 39 42 41 33 79 43 63 42
19 28 25 0 0 0 0 0 0 0 0 0 0 0 0 0
0 0 0 0 0 0 0 0 0 7 0 0 1 36 56 65
69 41 46 39 63 48 46 41 34 68 24 34 46 65 109 64
67 69 80 69 48 49 71 72 35 35 48 56 88 46 38 48
73 45 43 41 29 36 38 65 111 116 114 113 110 109 107 106
105 106 111 116 117 113 102 60 17 37 70 40 32 25 24 24
55 14 16 13 12 53 27 43 54 50 23 17 17 54 49 38
35 33 60 64 43 59 62 111 65 71 67 62 88 49 39 34
41 21 40 14 0 0 0 0 0 0 0 0 0 0 0 0
0 0 0 0 0 0 1 1 0 2 0 0 30 67 35 54
37 23 31 32 64 31 32 34 38 70 27 27 29 26 67 36
41 42 48 51 27 32 58 50 27 14 16 34 53 29 42 34
78 42 40 16 9 46 34 46 75 109 114 114 112 111 109 108
107 109 114 118 115 107 70 24 29 44 47 31 28 25 22 44
55 16 18 15 13 50 16 27 63 63 45 32 35 98 73 70
67 65 102 83 51 42 38 87 42 46 48 39 56 28 53 40
47 25 23 38 5 0 0 0 0 0 0 0 0 0 0 0
0 0 9 1 0 0 0 9 8 0 0 14 67 44 27 63
30 27 34 32 73 30 33 35 36 58 28 29 33 29 55 27
32 35 40 63 28 32 57 49 36 22 13 23 36 18 32 30
69 51 12 10 26 60 49 41 55 80 105 111 110 108 106 107
107 110 115 117 112 90 37 25 37 70 18 3 35 26 32 55
47 20 18 16 12 52 17 20 36 39 23 15 19 74 35 40
40 42 86 50 27 28 26 70 28 27 31 26 49 18 37 67
64 37 17 36 54 2 0 0 0 0 0 0 0 0 0 0
0 0 10 3 0 1 0 8 13 0 0 31 60 25 25 68
31 26 36 33 79 33 31 38 36 58 33 35 32 29 56 28
33 38 39 75 27 28 51 47 36 26 13 26 29 18 28 29
56 59 0 1 63 51 57 53 53 67 81 100 110 109 108 109
112 115 116 118 105 52 30 47 65 87 2 4 43 48 61 24
42 24 19 17 11 50 15 21 39 36 13 7 10 61 25 30
26 26 69 33 32 29 31 76 33 30 33 34 46 17 19 75
74 42 22 38 81 27 0 0 0 0 0 0 0 0 0 0
0 0 0 0 0 0 0 3 9 0 9 45 62 27 25 67
29 24 30 31 72 32 25 35 31 47 30 36 30 29 51 25
32 36 36 80 31 30 42 48 34 29 17 22 21 22 29 36
46 13 0 25 77 55 27 51 61 69 77 77 94 109 110 110
112 116 118 117 79 38 49 74 68 40 0 24 35 71 86 16
43 25 15 14 11 42 15 21 33 37 15 10 12 68 26 32
29 28 67 34 31 28 27 73 29 30 32 35 58 17 30 68
37 63 51 50 39 33 3 0 0 0 0 0 0 0 0 0
0 0 0 0 0 0 9 6 1 0 25 51 74 37 30 71
56 41 36 43 96 58 48 43 48 67 35 39 34 28 48 21
29 34 35 76 29 28 31 51 31 32 28 38 16 19 31 42
56 4 0 19 68 34 68 37 51 72 82 81 79 94 108 110
114 119 123 106 60 47 52 39 44 17 16 23 27 56 42 37
75 52 27 22 18 53 13 17 26 31 14 10 12 65 27 32
29 26 56 34 32 30 30 72 31 32 32 33 56 12 64 43
21 57 67 28 22 28 18 0 0 0 0 0 0 0 0 0
0 0 0 0 0 4 40 4 0 5 40 25 57 59 25 66
63 55 49 60 110 82 70 67 66 99 54 64 61 59 84 27
30 33 32 77 31 41 38 62 51 63 58 91 43 42 47 38
50 9 0 6 61 18 54 85 53 76 86 87 81 79 93 109
118 125 121 90 63 59 34 41 35 1 19 18 52 25 27 30
70 53 41 36 37 91 35 28 25 32 15 12 13 49 24 29
29 28 60 30 29 26 26 67 26 28 30 36 58 19 70 20
16 28 64 28 25 21 32 9 0 0 0 0 0 0 0 0
0 0 0 0 0 2 25 2 0 18 28 25 32 72 39 64
35 30 26 40 87 59 44 40 37 81 44 54 62 65 105 47
55 63 59 114 66 66 64 69 59 56 55 84 32 35 27 30
43 32 16 0 9 15 27 31 30 75 89 94 90 85 86 110
126 126 110 88 72 54 33 45 7 7 30 41 38 16 13 10
43 26 25 28 30 81 40 47 44 43 14 14 16 40 28 36
34 38 86 43 40 38 37 84 54 52 49 64 81 40 40 24
16 23 49 67 30 27 33 23 3 0 0 0 0 0 0 0
