P2
128 120
157
50 44 44 44 44 42 42 43 44 43 44 43 42 42 42 42
41 41 41 40 40 40 40 39 40 39 39 39 38 38 37 37
36 36 35 34 34 34 33 32 32 31 31 30 29 29 29 28
28 27 26 25 26 25 24 24 24 23 23 23 22 22 21 21
20 20 21 21 24 25 25 24 18 10 11 24 24 23 23 22
21 21 20 20 19 17 18 18 21 21 22 22 22 22 22 23
24 24 24 25 24 25 25 25 25 26 26 26 26 25 25 26
28 28 29 29 29 30 31 30 31 32 32 32 32 32 33 33
63 66 64 63 60 55 54 57 60 63 64 57 42 41 41 40
41 40 41 41 40 40 40 39 39 38 38 38 38 38 36 36
36 35 35 34 34 34 33 33 33 32 32 30 30 30 29 29
27 27 27 26 26 25 25 25 24 23 23 22 22 22 22 21
21 21 20 22 26 25 26 25 20 16 15 25 24 23 23 22
22 22 21 21 21 18 19 20 22 23 23 23 23 23 23 23
24 24 24 25 25 25 25 26 26 26 26 26 27 28 27 28
28 29 29 29 30 30 30 31 32 33 33 32 33 32 33 33
56 60 47 38 39 40 43 43 43 44 59 62 53 49 44 42
40 40 40 39 40 40 40 40 39 39 38 38 38 37 36 37
36 35 35 34 34 34 33 33 32 32 31 31 30 30 29 28
28 28 27 26 26 25 25 25 24 24 24 24 23 23 23 21
21 21 21 22 25 25 25 24 19 17 16 24 25 24 24 23
22 23 22 21 20 19 20 20 23 22 23 23 24 24 24 24
24 24 25 25 25 25 25 25 26 26 27 27 27 27 29 28
29 29 30 30 30 31 31 31 32 32 33 33 32 33 33 33
49 52 21 0 0 0 1 1 0 0 45 59 57 59 57 48
43 43 43 43 42 41 40 39 39 39 38 38 38 37 36 36
36 35 35 35 35 34 34 33 33 32 32 31 30 29 29 28
28 27 27 26 26 26 25 25 25 24 24 24 24 23 23 22
22 21 22 23 26 26 26 25 20 18 18 23 25 24 24 23
23 23 22 21 21 19 21 21 24 24 24 24 25 24 24 25
24 24 25 25 26 26 26 26 27 27 27 28 28 28 28 28
29 29 29 30 30 31 32 32 32 33 34 33 33 34 33 33
46 50 22 0 0 0 12 1 0 0 38 56 52 47 30 35
42 46 54 55 55 51 46 39 39 38 39 38 38 38 37 37
36 36 36 35 35 35 34 33 33 32 32 31 31 30 30 29
29 29 28 28 27 27 26 26 25 25 24 24 24 24 23 22
23 23 23 24 27 27 27 26 21 19 20 23 26 25 25 24
24 24 23 22 22 20 20 21 24 24 24 24 24 25 24 25
26 26 26 26 26 27 27 27 27 27 28 28 28 28 29 29
30 30 30 31 31 32 31 32 33 32 33 33 33 33 34 34
46 49 25 0 0 0 7 1 0 0 30 55 51 39 0 1
6 12 21 29 38 52 50 39 39 38 38 38 38 37 37 37
36 36 36 35 35 34 34 33 34 33 33 31 31 31 30 29
29 29 28 27 28 27 27 26 26 26 25 25 25 24 23 23
23 22 22 23 27 28 28 27 21 19 21 22 26 27 26 25
24 24 23 23 23 21 21 21 24 24 25 25 25 26 26 26
26 26 26 27 26 26 27 27 28 28 28 29 29 29 30 30
30 30 30 31 31 32 32 32 33 33 34 33 34 33 34 34
44 49 28 0 0 2 5 1 0 0 25 55 51 38 0 0
0 0 0 0 4 49 51 39 38 39 38 38 37 37 37 37
37 36 36 35 35 34 34 33 33 33 33 32 31 31 31 30
30 29 29 29 28 28 27 27 26 26 26 25 25 24 24 24
23 23 24 24 28 28 28 27 22 20 23 20 27 26 26 25
25 25 25 24 24 22 21 22 25 26 26 26 26 27 27 27
27 27 27 27 27 27 28 28 28 28 28 29 29 29 29 30
30 31 31 31 32 32 33 33 33 34 34 34 34 34 34 34
41 48 34 0 7 9 5 3 0 2 19 53 49 36 0 0
0 0 0 0 3 47 50 39 39 39 39 38 38 37 37 36
36 36 35 35 35 34 34 34 34 33 32 32 31 31 31 30
29 29 29 28 28 28 27 27 27 27 26 26 26 25 25 25
24 23 24 24 27 28 28 28 22 20 25 20 28 27 27 25
26 25 25 23 23 22 21 23 26 26 27 27 27 27 27 27
27 27 27 28 28 27 28 28 28 28 29 30 30 29 30 30
31 30 31 32 32 32 32 33 32 32 32 33 32 33 33 34
43 52 43 0 19 5 0 0 0 1 16 54 49 39 0 0
8 9 0 0 2 45 49 38 38 38 38 37 37 37 37 36
36 36 36 35 35 35 34 34 34 33 33 33 31 31 31 30
31 30 30 29 29 28 27 27 26 26 26 25 25 25 25 24
24 24 25 25 28 29 29 29 23 20 25 20 27 27 27 25
25 25 26 24 24 24 21 24 26 26 26 27 27 27 27 27
26 27 28 28 28 28 29 29 28 29 29 30 30 30 31 31
30 31 32 32 32 31 31 31 32 32 33 34 34 34 34 34
41 51 48 6 14 2 0 0 0 3 13 55 53 40 1 3
10 8 0 0 2 44 49 39 38 38 38 38 38 37 37 36
36 35 36 35 35 35 34 34 34 33 33 32 32 32 32 31
31 30 30 29 29 29 28 28 27 27 26 26 26 26 25 25
24 24 25 25 28 29 29 29 24 21 27 21 27 27 28 27
26 26 26 25 25 24 22 24 26 26 27 27 28 28 28 27
28 28 28 28 28 28 29 29 29 29 30 30 30 31 31 31
31 31 31 32 33 32 34 33 34 34 34 34 34 34 35 35
40 49 53 11 9 2 0 0 0 0 10 51 50 40 1 0
2 6 2 0 2 45 49 39 39 38 38 38 37 38 37 36
36 36 36 35 35 35 35 34 34 33 33 33 33 32 31 31
31 31 30 30 29 29 29 29 28 28 27 27 26 26 25 25
25 25 25 26 29 30 29 30 24 21 27 21 27 27 28 27
26 26 26 25 25 25 22 25 27 27 28 28 28 28 28 28
29 28 29 29 28 29 30 30 30 30 31 30 30 30 30 30
32 31 33 33 33 33 34 34 34 34 35 35 35 34 35 34
38 40 47 12 8 0 2 0 0 0 7 47 49 42 2 0
0 9 9 0 1 44 48 38 39 38 39 38 38 38 37 37
36 36 36 36 35 35 35 34 34 33 33 33 32 32 32 31
31 30 30 29 29 29 29 28 28 28 28 27 27 27 26 26
26 25 26 26 29 31 30 29 25 22 28 22 28 28 29 28
27 26 26 26 26 25 22 25 27 27 28 28 28 29 28 28
29 29 29 29 29 29 30 30 30 30 30 30 31 31 31 31
32 32 34 33 34 34 34 34 34 34 34 35 35 34 35 35
41 35 41 25 24 25 28 28 28 29 29 40 48 45 3 0
3 3 7 1 1 42 48 38 38 38 38 37 38 37 36 36
37 35 36 35 36 35 35 34 34 34 33 33 33 33 32 31
31 31 30 30 29 30 29 29 29 28 28 27 27 26 26 26
26 26 26 26 29 31 31 29 25 22 29 25 26 29 29 28
28 27 26 26 27 25 22 26 27 28 28 28 29 29 28 29
29 29 29 29 30 30 31 30 31 30 31 31 31 31 31 32
32 32 33 33 34 34 34 34 34 35 35 34 34 35 34 35
33 31 34 32 31 32 33 30 31 31 30 29 42 44 8 2
3 3 6 7 10 43 47 38 38 38 37 37 37 37 37 37
37 36 36 35 35 35 35 34 34 34 33 33 33 32 33 31
32 31 31 31 30 30 29 29 29 28 28 28 27 27 27 26
26 26 25 27 29 31 31 30 26 21 28 27 26 30 29 29
29 27 27 26 26 26 22 26 27 28 29 29 29 29 28 29
29 29 29 29 30 30 30 31 30 30 30 31 31 31 32 33
33 33 34 34 34 34 34 34 34 35 35 34 35 35 35 35
18 19 20 21 22 22 24 27 31 33 35 34 34 37 36 33
31 26 21 17 22 44 47 39 38 38 38 37 38 37 37 36
36 36 35 35 35 35 35 35 34 34 34 33 33 33 32 32
31 31 31 31 30 30 30 29 29 29 29 28 28 27 27 27
26 26 26 27 29 31 31 31 27 21 28 28 25 30 29 28
28 28 27 27 26 26 23 27 27 28 29 29 29 28 29 29
29 29 30 30 31 30 31 31 31 30 31 31 31 32 32 33
33 34 34 35 34 34 35 35 35 35 34 35 34 34 35 34
18 17 17 16 16 17 17 18 20 23 26 28 25 25 26 29
32 34 37 39 39 43 42 38 38 38 38 37 37 37 37 37
37 36 36 36 35 35 35 35 34 34 33 33 33 33 32 32
32 31 31 30 31 30 30 29 29 29 29 28 28 27 27 27
26 27 27 27 30 32 32 31 26 19 26 28 23 30 29 29
28 28 27 27 27 26 23 26 26 28 28 28 29 29 29 30
29 30 30 30 32 31 32 31 31 31 31 31 32 32 32 33
33 34 34 35 34 34 34 34 34 34 34 35 34 35 35 35
21 17 18 17 16 15 16 16 18 17 17 17 18 17 17 20
22 25 28 31 34 37 39 39 39 39 38 38 37 37 36 36
37 36 36 36 36 35 36 35 35 34 34 34 34 33 33 32
32 31 31 31 31 30 30 30 30 29 30 29 28 28 27 27
27 27 27 27 29 31 30 28 25 21 26 29 23 29 29 27
28 27 27 27 27 26 24 28 27 28 29 30 30 30 30 30
30 30 30 30 31 31 31 31 31 32 32 32 33 33 33 33
33 33 34 35 35 34 35 35 34 35 34 35 35 35 35 35
37 35 27 27 18 17 15 17 20 19 19 18 17 16 17 16
16 15 17 18 20 24 27 31 34 37 38 39 39 38 38 37
37 36 36 35 35 35 35 34 35 34 34 34 33 33 33 33
33 32 32 31 32 31 30 30 30 29 29 28 28 28 28 28
27 26 27 27 30 30 30 28 25 21 27 26 24 29 29 25
26 25 27 26 26 26 24 28 28 30 28 29 30 30 30 30
30 31 31 31 32 32 31 32 32 32 32 32 32 33 33 33
34 34 34 35 35 35 34 35 35 35 35 34 33 33 33 33
24 35 33 47 48 46 39 35 37 37 36 38 40 27 16 16
15 15 15 15 15 17 16 17 18 18 22 25 29 32 34 36
36 37 36 36 36 35 36 35 35 35 34 34 34 33 33 33
33 32 32 31 31 31 31 30 30 30 30 29 29 29 29 28
26 21 17 19 20 20 17 10 8 10 22 22 16 23 22 11
17 19 21 23 22 22 23 30 29 30 31 29 31 30 30 30
30 31 32 32 33 32 32 32 32 32 33 33 33 33 34 34
34 35 35 35 34 34 34 34 34 34 35 34 35 35 36 35
17 19 22 41 17 10 12 20 33 33 35 46 59 49 35 29
26 26 25 22 20 17 17 16 16 16 17 17 14 11 17 32
37 36 37 36 36 36 35 34 35 34 34 34 34 33 33 33
33 33 32 32 31 32 31 30 30 30 30 29 28 29 27 21
17 14 13 15 13 8 4 5 6 4 9 12 9 10 10 4
10 10 10 12 13 14 19 21 23 26 30 29 30 30 29 30
32 30 31 32 33 32 32 32 32 33 33 33 34 34 33 33
33 33 33 34 34 34 34 35 34 35 35 35 34 34 35 35
17 18 20 39 10 0 0 14 36 35 38 46 54 55 53 51
44 50 50 46 43 28 22 22 20 15 16 16 15 12 15 31
37 36 36 36 35 34 35 35 35 35 35 34 34 34 34 33
33 32 32 31 33 39 37 34 33 31 30 29 29 27 17 10
5 5 6 7 6 5 3 4 1 5 5 5 4 3 2 2
4 3 4 5 4 7 9 10 13 21 26 27 28 30 29 31
29 32 32 33 34 33 33 32 32 33 33 33 33 33 33 34
35 33 34 34 34 34 34 34 34 34 34 35 34 35 35 35
19 19 21 41 12 0 0 8 20 22 25 39 51 55 56 55
50 49 53 52 50 35 33 40 41 34 33 28 21 13 15 29
37 36 37 36 35 41 40 39 38 36 35 33 34 34 34 33
32 33 32 32 36 45 44 40 39 36 32 30 20 9 8 2
2 6 6 7 3 6 5 1 1 2 1 1 3 1 1 3
5 3 1 4 2 3 3 4 5 6 9 12 15 19 27 22
26 30 33 33 33 33 32 32 33 33 33 34 34 33 34 34
34 34 34 34 34 34 35 35 35 35 35 36 35 35 35 35
21 19 22 44 13 0 0 8 7 1 0 30 50 45 33 41
37 43 48 51 52 39 39 43 45 41 49 48 44 17 17 31
38 37 37 36 36 46 46 44 42 40 39 39 35 35 34 33
33 33 33 32 35 42 39 37 39 35 30 21 8 9 3 2
4 6 5 5 6 9 4 0 2 3 1 1 2 3 1 5
3 3 2 6 2 3 2 5 3 5 3 4 6 6 13 14
19 29 33 33 33 33 33 33 33 33 34 34 35 34 34 34
34 34 35 34 34 34 34 34 34 34 35 36 35 35 35 35
4 6 9 44 13 0 1 19 18 0 0 30 51 34 0 15
3 7 13 18 33 42 42 45 47 48 51 52 49 20 17 33
39 38 37 37 37 47 48 45 42 43 46 46 40 41 40 37
34 34 34 33 34 31 30 32 31 26 18 14 7 7 3 3
7 4 4 4 10 8 2 2 5 4 2 2 5 4 4 5
4 6 3 7 2 4 2 4 5 4 3 5 5 3 10 12
18 29 32 33 33 34 34 34 34 33 34 34 35 33 35 34
34 34 35 34 34 35 34 34 35 35 35 36 36 36 35 35
0 0 6 44 14 7 9 27 37 15 0 31 53 35 0 0
0 0 5 4 19 42 42 44 46 49 50 51 50 24 18 35
42 39 39 39 39 40 33 39 43 46 48 47 32 26 34 37
39 38 40 38 34 24 15 19 23 20 11 12 8 12 3 6
10 6 7 1 11 6 3 5 8 6 4 4 8 7 4 5
4 5 4 6 2 5 5 6 6 8 3 6 2 2 13 15
21 29 31 33 34 34 34 34 34 34 34 34 35 34 35 35
34 35 34 35 35 35 35 36 35 34 35 36 36 35 35 35
0 0 5 47 16 7 19 34 26 24 5 25 54 38 0 0
0 0 18 12 23 39 28 35 41 47 48 48 47 25 18 35
43 35 36 42 46 32 0 6 23 30 31 39 22 0 1 5
12 18 26 32 35 25 17 24 26 12 12 6 5 5 4 9
8 6 9 4 10 4 6 8 4 7 5 5 8 5 7 4
4 4 6 6 4 5 8 8 5 5 6 5 1 4 15 17
23 30 34 35 35 35 35 35 35 34 34 34 36 35 35 35
34 34 35 35 35 35 36 35 35 36 36 36 36 35 36 35
0 0 7 49 17 1 14 30 25 19 3 24 55 43 1 0
0 0 15 12 23 35 1 3 9 15 22 23 40 26 18 31
41 42 41 43 49 35 0 0 10 14 15 27 22 0 0 0
0 0 0 4 28 19 24 25 15 13 9 3 7 6 7 12
8 9 7 7 6 9 5 8 8 7 6 6 7 6 9 5
5 7 6 7 6 6 11 10 7 4 5 7 4 7 18 18
22 31 33 35 34 35 35 35 35 35 35 35 36 36 35 35
35 36 36 36 36 36 35 36 36 36 35 37 36 35 35 36
1 0 8 51 20 0 0 7 10 2 0 22 57 46 1 0
0 0 1 0 20 36 1 0 0 0 0 0 28 27 17 7
7 15 24 34 42 35 0 0 6 6 10 24 27 0 0 0
0 0 0 6 20 26 23 16 17 17 5 11 13 12 13 14
12 12 5 12 9 7 7 9 8 8 8 6 8 8 11 4
5 7 8 6 7 9 12 8 6 5 6 10 6 8 19 20
19 23 30 33 33 34 35 35 35 36 36 36 36 35 35 36
35 36 36 36 36 36 36 36 36 36 36 37 36 37 36 37
0 0 4 42 22 0 0 0 0 0 0 20 56 48 3 0
0 4 3 0 19 35 1 0 1 1 0 0 28 28 17 3
0 0 0 0 4 21 1 0 0 0 2 20 23 0 0 0
3 1 1 14 27 26 17 18 22 9 6 13 15 12 17 18
16 10 14 12 7 7 9 11 9 6 8 7 9 8 8 5
5 11 8 6 11 13 8 7 6 6 9 10 7 11 21 22
17 17 30 32 35 33 35 35 36 36 36 36 36 35 36 36
36 36 37 36 37 37 37 36 36 36 36 37 37 37 37 37
0 0 6 42 23 0 0 0 0 0 0 19 57 51 4 2
15 17 11 0 19 35 2 2 10 11 0 0 28 29 17 3
0 0 0 0 0 15 2 0 0 0 0 23 28 0 0 0
12 13 14 24 31 23 18 24 23 5 14 21 15 16 21 26
19 15 18 9 12 10 11 14 10 8 9 10 10 8 7 9
6 11 10 7 9 11 9 9 8 9 14 10 9 18 24 25
21 20 28 34 36 34 34 36 37 37 37 36 38 37 37 38
37 37 38 38 37 37 37 36 37 37 37 38 38 38 38 38
0 0 9 45 34 17 14 14 12 10 9 24 57 53 8 1
2 5 5 0 19 36 3 3 2 17 0 0 26 28 17 4
0 0 0 0 0 12 1 0 0 0 0 22 30 0 0 3
15 20 22 31 34 17 22 35 10 8 21 24 15 28 32 33
23 26 17 11 12 10 10 14 15 13 10 16 12 9 10 9
9 10 9 7 10 12 10 8 9 16 17 11 11 25 24 20
15 16 24 35 36 36 34 35 37 37 37 36 37 36 37 36
37 37 37 37 37 37 37 36 37 37 37 37 37 36 37 37
0 0 5 43 53 51 48 46 43 40 37 37 42 39 5 0
6 7 1 0 17 35 1 3 0 3 0 0 26 28 17 5
0 0 10 2 0 10 2 2 0 0 1 20 34 0 0 2
18 21 22 38 28 21 41 19 8 19 31 16 25 43 42 39
32 19 16 14 17 11 18 24 23 18 18 17 12 10 12 11
12 13 7 10 13 15 10 10 13 20 19 16 22 35 26 13
10 16 23 35 37 36 36 34 36 36 36 36 36 37 36 37
37 38 37 38 38 38 38 37 37 38 37 38 38 37 38 37
0 0 3 49 50 37 38 37 41 44 43 34 26 18 3 2
4 6 0 0 17 33 0 3 2 0 0 0 25 27 17 4
7 6 5 0 0 10 4 0 0 0 3 21 36 1 2 6
19 16 31 44 24 34 31 13 15 34 28 22 20 31 37 35
26 20 19 24 19 15 23 28 27 19 16 15 11 10 12 15
18 10 10 17 21 12 11 16 23 19 21 23 35 53 21 8
9 17 24 33 38 37 37 34 37 37 37 36 36 36 36 37
37 37 37 38 37 37 37 37 38 38 38 37 38 37 38 37
0 0 3 50 34 0 1 2 6 12 19 36 36 40 42 39
35 33 27 20 29 35 5 3 4 2 1 0 27 27 17 8
8 0 1 2 0 12 8 2 2 0 1 22 46 23 17 19
16 20 39 45 34 38 19 11 24 23 26 17 18 28 30 31
27 29 32 19 19 25 30 28 23 22 22 14 10 21 23 16
10 10 19 23 15 11 19 34 22 19 24 31 42 60 60 6
11 17 25 35 36 38 36 34 36 37 36 36 36 37 37 37
38 38 37 38 38 37 36 36 36 36 35 35 35 34 36 35
0 0 5 49 35 1 0 0 0 0 0 19 51 36 24 29
35 42 45 47 43 53 46 28 34 34 32 28 37 24 17 7
1 0 0 0 0 19 43 33 29 25 16 23 51 32 30 18
14 31 48 37 41 30 14 27 31 29 23 21 30 40 43 36
40 37 24 26 31 31 32 32 25 25 20 13 18 20 18 13
12 24 23 13 15 23 34 19 17 23 30 34 59 69 91 36
9 14 28 35 36 37 37 34 36 36 36 37 36 36 37 37
37 37 37 37 37 36 36 36 35 35 33 31 29 26 23 20
0 0 10 49 37 4 0 0 5 5 0 17 55 36 13 10
19 18 13 12 49 64 51 33 44 49 48 49 47 25 17 7
0 0 0 0 0 20 56 46 48 49 50 48 48 23 21 13
13 42 43 37 35 27 23 34 36 33 26 26 26 26 30 32
29 33 36 30 29 27 32 24 27 27 21 19 22 23 17 14
20 19 8 17 28 29 18 16 23 23 31 45 63 81 102 80
15 17 26 34 35 37 36 33 35 36 36 37 37 37 37 37
38 36 36 35 32 29 31 36 23 18 17 18 17 17 18 19
4 3 24 49 36 11 13 3 18 10 0 15 53 35 5 7
9 6 2 5 52 60 43 34 45 49 50 53 50 26 17 15
8 4 1 0 0 20 50 44 51 53 53 44 36 30 21 8
15 46 42 36 33 19 29 41 34 24 25 20 15 12 15 19
22 27 25 22 24 28 32 32 28 25 22 27 26 19 21 26
22 11 19 26 25 19 18 21 30 35 38 57 70 106 107 97
41 18 25 34 35 36 36 33 37 37 37 36 35 33 31 27
25 22 20 19 19 18 19 36 18 18 22 23 23 24 25 26
3 7 33 50 33 23 27 11 15 7 0 13 53 32 0 2
1 0 0 5 50 51 22 12 23 26 29 33 44 27 19 31
46 44 37 30 24 34 38 40 48 51 52 47 38 32 20 7
19 45 40 29 26 30 36 36 31 22 22 13 13 24 30 24
31 26 27 26 28 28 31 28 31 32 30 27 21 20 21 18
13 22 29 22 16 16 21 28 32 32 45 65 96 114 110 103
68 18 28 36 36 36 32 17 25 28 25 22 21 20 19 19
20 21 22 23 25 24 23 31 20 23 27 29 29 30 31 32
10 14 43 53 29 10 6 0 17 23 3 13 51 29 0 0
0 0 0 4 48 53 17 0 0 0 0 1 27 28 18 32
51 51 50 50 50 51 28 18 27 33 38 37 37 29 11 9
25 44 32 26 38 39 31 21 16 13 17 19 27 39 31 24
24 25 22 21 27 31 35 27 30 24 27 23 19 18 16 12
18 18 14 14 18 19 27 34 39 35 48 79 110 113 110 104
87 23 26 27 25 21 11 9 20 21 22 23 23 25 25 26
27 28 28 29 30 30 28 34 24 29 33 33 33 34 34 34
42 41 42 53 44 27 22 21 27 14 4 15 51 30 3 13
0 0 0 1 43 54 18 0 0 0 0 1 23 30 18 29
48 51 50 51 52 51 20 0 0 2 7 26 34 33 8 10
37 45 26 32 36 18 16 20 19 27 48 45 39 25 18 17
20 19 21 23 33 31 35 34 33 35 29 25 19 14 15 15
15 12 14 17 22 23 36 44 33 42 72 102 111 113 112 107
95 36 20 23 20 14 16 26 27 28 28 29 29 30 31 32
33 34 34 34 35 33 26 14 14 31 35 36 35 36 34 36
41 33 6 42 50 37 22 47 41 12 0 18 55 34 12 22
0 0 0 0 37 50 14 0 0 0 18 25 30 34 27 28
37 39 40 41 43 47 16 0 0 0 4 36 35 28 9 11
41 45 28 34 30 27 25 27 32 38 34 27 18 16 19 21
21 22 23 27 23 24 32 34 38 39 31 26 22 15 12 8
8 9 12 18 25 40 44 41 46 73 100 115 113 113 113 109
100 55 23 23 21 18 30 32 32 32 33 33 34 33 34 34
34 35 35 34 34 33 22 4 4 29 36 37 37 36 36 37
31 23 0 30 48 34 9 43 38 14 0 17 56 37 3 16
1 0 0 0 33 46 12 0 0 0 20 29 28 31 25 25
26 28 35 34 38 46 14 0 0 0 19 46 42 17 11 16
33 38 38 40 34 24 24 30 37 31 28 22 20 20 19 24
23 26 29 33 34 30 21 31 33 31 30 35 30 19 10 7
9 15 20 24 27 43 54 54 70 94 115 120 116 112 112 110
102 72 26 24 33 22 34 34 34 34 34 36 36 36 36 36
33 33 25 16 10 20 21 8 3 28 36 37 37 37 37 36
37 32 6 21 42 24 0 34 25 11 0 16 57 38 0 4
0 0 0 0 35 46 11 0 1 0 7 14 20 25 23 26
25 27 33 35 41 44 15 0 0 0 37 53 42 16 8 14
27 23 22 19 27 27 35 35 33 30 26 22 21 20 21 26
23 26 23 25 27 28 30 34 28 22 20 23 16 11 13 14
19 18 19 26 41 55 57 78 95 116 126 121 120 115 113 112
105 84 22 35 35 24 14 15 16 9 16 30 36 33 33 22
3 2 4 3 3 20 21 0 1 27 36 37 38 37 37 37
39 42 24 11 24 22 2 21 16 1 0 14 55 38 0 0
0 0 0 0 38 47 10 0 2 0 0 0 9 19 21 20
8 11 17 23 30 35 14 0 0 3 45 49 25 15 9 21
20 23 24 31 26 19 37 44 35 26 28 29 28 24 22 29
36 37 29 27 18 12 24 29 30 30 23 17 14 16 18 17
15 20 31 43 56 69 100 97 114 134 128 126 123 121 118 115
109 93 39 25 34 29 2 0 0 0 11 15 15 2 1 0
3 2 0 0 0 12 26 1 2 27 36 37 38 37 37 37
3 6 2 0 0 10 20 7 3 6 11 22 51 34 0 0
0 0 0 1 41 47 10 0 3 4 0 0 12 28 28 22
0 0 0 0 0 8 13 0 0 17 51 36 23 18 9 14
15 30 40 30 22 30 32 23 21 24 26 23 21 23 32 31
29 38 37 32 30 31 17 13 16 21 23 23 20 18 19 26
39 58 74 87 94 107 107 113 133 134 126 126 123 123 122 118
113 100 48 0 12 36 4 0 0 0 0 0 0 0 0 0
0 19 0 0 0 7 29 5 3 29 37 37 38 37 37 37
10 0 0 0 0 0 1 7 4 18 44 45 47 36 18 14
10 7 5 4 41 47 11 0 0 8 0 0 12 35 29 24
1 0 0 0 0 4 13 0 2 33 35 31 24 20 11 11
19 31 33 27 29 29 36 32 32 33 27 24 28 29 24 24
30 38 36 39 46 37 38 30 22 20 18 22 23 25 43 67
99 121 121 123 129 132 137 138 134 132 131 128 127 126 118 114
111 104 73 12 3 4 0 0 0 0 0 0 0 0 0 0
0 0 0 0 0 7 30 15 13 32 37 37 39 37 37 37
8 0 0 2 0 2 9 32 36 33 50 52 50 45 48 43
32 36 36 29 36 39 20 1 0 10 8 2 10 38 28 23
1 0 6 4 0 3 13 0 9 40 29 31 37 24 11 13
18 18 32 26 20 32 28 36 53 36 31 33 33 23 25 28
28 30 36 40 38 38 37 27 19 21 21 24 30 45 61 100
131 140 138 146 146 144 144 143 141 142 135 128 127 118 97 102
105 104 88 30 33 33 30 29 29 28 28 13 22 6 0 0
0 0 0 0 0 16 30 27 27 34 37 37 38 36 36 36
8 0 0 13 34 32 43 45 52 50 50 52 53 46 22 15
9 12 17 16 24 35 33 30 23 25 27 22 23 38 25 21
1 2 17 13 3 2 20 7 18 33 33 33 35 23 11 18
19 14 24 24 15 10 15 26 24 24 39 30 24 26 23 20
20 30 34 40 37 32 28 20 18 20 23 27 39 53 88 134
143 142 146 145 145 144 138 118 102 88 70 51 37 28 12 11
49 74 83 51 37 37 37 36 37 37 37 28 5 0 1 0
0 11 13 13 17 33 31 30 34 37 37 37 38 37 38 37
38 19 15 31 49 47 39 29 48 41 28 33 39 41 4 0
0 0 12 11 20 36 32 25 24 32 38 42 45 43 28 21
2 4 16 12 4 2 37 39 43 29 38 41 35 28 13 25
13 13 15 16 28 28 36 31 25 37 37 31 28 25 20 19
25 26 26 27 33 32 18 18 22 20 22 36 58 71 106 122
111 95 77 58 41 22 10 8 9 10 11 14 12 31 13 1
3 15 59 58 37 38 37 37 38 37 35 5 0 2 3 0
1 34 37 36 36 35 34 33 37 38 38 37 38 38 37 38
52 51 49 51 50 45 22 2 19 12 0 0 5 38 5 0
2 4 8 13 27 38 30 4 0 6 11 23 46 43 27 23
5 1 5 2 1 1 38 45 47 29 39 47 40 35 12 21
7 17 14 26 35 38 34 25 34 40 39 30 25 21 22 22
24 20 20 29 25 17 17 12 10 17 23 24 21 14 8 7
8 7 5 6 7 7 7 6 6 6 3 3 2 4 3 2
5 2 50 48 34 38 38 37 38 37 36 4 0 5 15 0
0 34 37 37 37 36 36 36 37 37 37 37 37 38 38 38
52 53 53 51 44 36 16 0 0 3 0 0 2 38 6 1
22 33 15 7 25 39 29 1 1 20 22 25 44 38 26 26
21 3 5 1 0 1 35 42 42 26 46 47 43 34 13 20
13 10 13 25 29 33 30 38 39 37 34 26 23 21 24 25
19 19 21 17 9 8 8 10 9 8 5 4 2 3 4 8
12 13 16 18 17 17 17 16 16 14 6 0 0 3 20 0
4 8 26 31 36 38 38 37 37 37 35 6 0 0 2 0
0 30 38 37 38 36 36 37 37 37 37 38 38 38 38 37
54 54 53 43 16 16 9 6 2 14 4 0 2 38 6 10
32 30 3 0 25 41 28 0 1 14 30 35 45 32 24 27
17 0 1 0 0 1 35 37 38 26 36 42 43 29 21 30
18 11 18 22 26 34 43 34 32 31 29 26 23 22 21 20
15 8 0 0 4 20 14 8 4 5 8 13 21 37 57 75
88 97 98 95 92 87 87 83 75 67 33 4 2 9 43 0
2 12 15 18 36 38 37 37 36 36 34 4 0 0 0 0
0 28 37 37 37 36 36 38 37 37 38 38 38 37 38 38
32 34 37 40 41 44 37 39 35 38 10 0 2 37 9 2
30 35 2 0 27 44 30 0 0 1 9 31 47 30 26 28
17 5 4 3 1 2 38 38 36 23 32 39 48 32 32 41
16 15 22 20 27 33 34 34 31 33 29 29 22 31 53 54
24 9 3 7 15 26 26 23 26 28 31 41 49 72 102 127
145 147 146 140 145 143 140 136 124 111 46 7 6 12 41 0
2 10 5 17 38 37 37 34 27 20 21 2 0 1 0 0
0 26 37 37 37 37 37 38 38 37 37 37 37 37 36 36
0 0 0 6 29 31 10 5 7 8 2 0 3 37 6 0
13 14 3 1 29 45 31 0 0 0 0 26 48 31 25 26
36 40 37 35 35 34 47 42 38 24 19 50 42 33 36 38
24 27 18 20 24 24 34 31 37 27 28 22 79 128 138 135
109 50 14 15 26 35 26 25 23 30 33 44 46 71 106 129
147 147 147 145 146 146 141 130 120 87 14 15 9 18 40 0
2 9 6 13 39 38 37 13 10 2 1 0 0 1 1 1
0 24 38 37 37 38 38 38 38 38 37 37 38 37 37 37
0 0 0 3 34 37 8 0 0 0 0 0 2 37 6 0
0 0 1 1 28 46 30 0 0 0 0 25 50 33 26 28
47 57 56 56 58 58 58 46 34 20 18 45 33 33 25 29
28 23 22 22 21 31 36 30 23 25 15 64 143 104 79 66
102 106 52 28 27 26 27 24 28 30 39 36 48 76 110 134
148 148 148 147 148 144 137 122 110 78 21 23 29 30 34 0
1 8 14 8 38 39 38 32 42 20 27 2 0 0 1 1
2 16 34 37 37 38 39 38 38 39 38 38 38 38 38 38
0 0 0 4 41 45 15 0 0 0 0 0 1 37 8 0
0 0 0 0 27 47 28 0 0 0 0 25 51 34 26 28
43 52 53 54 55 55 57 37 21 20 23 31 41 34 31 30
20 26 21 18 23 33 22 21 28 12 18 130 124 113 113 99
57 94 98 52 48 52 33 26 28 33 43 46 55 77 110 142
149 149 149 148 149 145 135 119 111 93 45 41 21 23 25 0
1 8 23 10 38 40 39 50 53 22 12 0 0 0 1 1
0 7 10 21 22 30 39 39 39 39 39 39 39 38 38 38
7 11 12 18 48 55 24 0 0 0 0 0 1 36 7 0
0 0 0 0 25 48 30 0 0 0 0 21 47 30 26 28
30 32 32 33 33 34 38 25 14 19 19 21 39 30 24 18
21 25 12 10 12 12 14 18 9 10 65 142 122 131 136 131
70 61 123 102 98 91 51 37 45 58 41 46 66 84 120 146
149 149 149 149 148 146 140 125 120 114 59 43 25 18 15 0
0 8 46 74 31 31 27 13 9 10 0 0 0 0 1 1
0 4 8 3 9 24 40 40 40 39 39 39 39 38 38 38
33 40 40 45 52 42 14 0 0 0 0 0 0 36 7 0
0 0 0 0 24 49 32 0 0 0 0 19 49 34 26 28
34 39 38 38 37 36 37 25 16 23 11 24 31 19 25 20
21 13 13 15 9 13 11 8 5 13 94 137 138 139 150 133
94 88 115 103 96 93 54 59 53 50 43 64 67 100 133 150
150 150 150 149 149 148 143 131 123 117 60 43 24 16 8 0
0 15 54 115 56 12 13 6 2 0 0 0 0 0 1 1
0 3 9 4 7 24 41 41 41 40 39 39 39 38 37 37
43 44 45 52 53 25 0 0 0 0 0 0 0 35 20 13
15 19 23 27 39 46 30 0 0 0 0 21 52 34 24 28
36 42 43 42 43 43 43 27 15 22 7 18 17 15 20 21
18 25 20 5 12 20 6 4 6 9 120 137 132 129 151 137
118 128 123 126 101 76 80 109 67 40 56 74 93 125 149 149
149 149 149 148 148 148 145 136 127 116 56 38 20 12 2 0
0 29 63 124 109 37 7 5 10 7 1 0 0 0 0 1
0 2 10 4 5 22 39 40 40 40 39 39 38 38 38 38
14 18 25 32 50 38 28 28 26 23 22 22 24 41 42 42
43 45 47 48 46 37 28 20 16 14 10 25 48 34 26 31
36 42 42 43 43 45 45 29 15 16 1 18 19 21 22 27
30 25 12 15 16 10 3 1 6 14 129 140 125 126 150 144
135 136 83 113 94 108 134 124 73 60 88 103 124 143 149 149
149 149 149 149 148 148 147 140 133 122 61 31 18 10 0 0
0 42 67 125 123 102 23 12 11 6 12 9 0 0 0 1
0 1 10 6 7 17 39 40 39 38 37 38 37 36 36 36
0 0 1 9 47 50 50 49 49 46 45 47 48 47 44 40
44 44 44 44 44 42 42 42 40 40 38 39 42 39 38 39
39 39 40 41 41 41 42 35 25 12 1 17 21 27 29 32
29 17 21 13 13 2 1 3 12 21 120 141 124 123 149 147
143 77 78 148 147 145 146 134 110 109 135 143 149 149 149 148
148 148 148 148 148 147 146 143 140 131 74 27 15 8 0 0
10 48 75 124 125 116 79 11 5 4 10 16 0 0 0 0
0 2 8 10 14 17 35 38 38 37 37 38 37 37 36 37
0 0 1 9 48 53 53 51 53 49 51 53 53 37 27 29
39 40 40 39 40 40 40 39 40 39 39 39 39 39 39 39
40 40 40 39 39 39 38 37 32 17 5 11 19 31 33 35
34 23 23 8 4 0 1 7 20 20 97 137 124 121 150 141
122 75 111 145 149 148 148 146 145 146 146 146 146 147 148 148
148 148 148 148 148 148 147 147 145 141 101 27 13 8 0 0
35 38 96 125 126 120 110 47 5 7 11 7 0 0 0 6
3 2 7 14 15 18 34 39 39 39 38 37 37 37 36 36
0 0 0 9 48 49 48 44 45 43 44 49 42 21 20 25
38 39 39 39 38 39 39 39 38 38 38 38 38 37 37 37
37 37 37 37 37 37 37 37 28 22 4 12 34 30 25 31
22 28 8 2 0 0 2 21 23 21 64 129 126 126 151 137
118 106 125 100 149 149 148 148 148 147 147 146 145 145 147 147
148 148 147 148 148 147 147 147 145 144 125 40 14 10 4 16
55 29 114 123 122 117 111 97 23 8 8 2 0 0 0 3
0 1 11 10 10 13 35 39 39 38 38 37 38 38 37 36
0 0 0 9 47 25 11 14 10 9 10 17 13 19 21 25
37 39 31 22 20 19 18 17 16 16 15 15 14 13 13 12
13 13 13 13 13 20 31 37 22 21 7 21 34 19 18 25
24 11 0 0 1 9 15 36 27 21 46 114 130 128 150 137
126 120 105 100 147 150 149 149 149 149 146 145 144 145 147 148
148 148 148 148 148 147 148 147 147 146 138 78 16 11 11 28
50 53 121 123 121 115 111 108 79 14 9 10 10 12 14 14
15 18 22 22 20 21 29 27 28 30 38 38 37 37 37 36
0 0 0 7 48 18 0 0 0 0 0 8 4 19 21 23
36 38 25 2 0 0 0 0 0 0 0 0 0 0 0 0
0 0 0 0 0 10 35 37 28 21 6 15 24 9 15 10
4 0 0 0 15 14 33 43 29 25 44 86 132 130 149 138
144 129 96 92 146 150 150 149 149 148 146 145 145 145 147 148
148 149 148 149 148 148 148 148 147 146 140 118 42 15 18 24
40 107 128 126 120 114 114 113 104 66 25 25 26 31 30 26
31 28 26 26 20 18 49 25 19 23 38 37 38 37 35 35
0 0 0 8 48 19 0 1 0 0 2 12 14 18 20 23
34 38 29 6 0 0 0 0 0 0 0 0 0 0 0 0
0 0 1 1 1 9 37 37 39 26 7 18 19 11 10 2
0 0 2 8 22 11 46 37 42 37 49 67 115 134 146 143
146 138 98 87 148 147 149 149 149 147 145 145 143 147 142 148
148 148 149 148 149 149 148 148 147 147 143 134 108 64 47 69
110 124 128 119 109 111 115 114 110 97 32 25 28 35 58 54
70 72 75 36 20 39 114 59 16 20 37 38 37 19 8 7
0 0 0 5 45 20 0 0 0 9 15 16 14 18 20 22
33 38 32 9 0 0 0 0 0 0 0 0 1 0 0 1
1 1 1 0 1 6 36 37 38 28 5 14 24 8 5 1
2 8 8 11 15 12 36 37 54 41 58 58 91 138 132 147
138 146 131 100 144 136 148 149 148 147 147 147 146 147 146 148
148 148 148 148 148 148 148 147 147 146 146 138 124 115 109 109
116 119 116 130 123 118 126 142 131 115 58 26 31 38 91 76
97 95 96 41 21 101 128 114 32 20 37 36 33 2 0 0
0 0 0 4 44 21 0 0 7 15 15 14 13 17 19 23
32 38 33 13 0 0 0 0 0 1 1 0 1 1 1 1
1 1 1 1 0 5 35 38 36 24 5 6 21 11 11 3
16 17 10 17 9 12 26 37 51 47 60 59 87 121 137 137
138 139 148 139 124 120 147 146 147 147 146 147 148 148 148 149
149 148 149 149 148 149 148 148 147 147 145 136 128 119 116 112
115 112 127 143 144 141 141 145 144 126 74 31 37 34 55 47
48 45 41 33 31 58 44 38 30 21 35 37 33 3 0 0
0 0 0 4 43 21 0 0 6 14 15 15 14 18 20 22
30 38 34 16 0 0 0 0 0 1 1 0 1 1 1 1
1 1 1 1 1 3 33 38 35 19 6 1 13 17 17 11
21 22 14 18 6 12 21 45 46 52 58 57 85 110 134 137
135 148 150 150 147 145 146 136 147 146 144 145 148 149 147 147
149 149 148 148 148 149 148 147 147 147 145 138 129 121 117 114
114 110 141 147 140 121 116 122 124 116 64 35 39 29 30 30
26 23 25 27 28 29 28 28 28 20 34 37 37 15 0 0
0 0 0 5 41 22 0 0 5 15 15 15 13 17 19 21
29 37 34 19 0 0 0 0 0 0 0 1 0 1 1 0
1 2 1 1 1 3 30 37 32 14 6 0 11 17 18 22
21 24 15 15 8 11 29 46 37 55 72 58 80 111 116 136
144 146 150 150 149 145 131 129 149 147 146 149 148 149 149 148
149 148 148 148 149 149 148 147 146 144 146 142 134 124 118 115
113 106 131 127 84 51 48 86 114 88 30 31 40 29 30 24
25 21 20 25 30 29 28 27 27 20 34 37 35 34 5 0
18 17 17 23 44 25 0 0 7 14 15 15 13 17 19 21
28 36 34 21 0 0 0 0 0 0 0 0 0 1 0 1
1 1 0 0 1 1 27 38 32 16 6 5 4 10 16 18
19 20 20 16 6 14 24 40 39 59 72 60 70 107 116 116
134 149 150 150 148 139 123 130 148 145 145 147 148 149 149 147
147 148 147 148 148 147 148 147 143 142 146 144 134 125 119 114
113 102 101 98 104 115 116 115 76 16 6 18 40 29 29 20
22 21 22 27 31 30 29 27 27 13 31 30 7 8 5 0
45 44 45 42 42 30 0 0 8 14 15 15 13 17 19 21
27 36 34 23 1 0 0 0 0 0 0 0 0 1 0 1
1 0 0 0 1 1 24 38 32 13 13 7 6 7 11 15
19 18 23 17 8 11 21 35 40 64 76 56 64 105 117 115
112 128 147 149 144 137 121 122 147 147 147 147 147 148 149 148
149 149 149 147 147 147 148 148 146 147 147 144 132 126 120 114
114 110 105 113 126 117 86 38 2 1 3 23 39 30 29 19
24 23 21 28 30 30 29 27 27 13 19 5 0 0 9 0
29 21 15 9 10 29 1 0 7 14 14 15 13 16 19 20
25 35 34 25 2 0 0 0 0 0 0 0 0 0 0 1
1 0 0 0 1 1 20 37 32 13 14 13 11 7 2 15
10 16 17 21 16 12 17 30 38 67 70 52 62 102 114 118
116 120 123 131 135 127 111 107 143 145 145 147 148 148 148 148
149 148 148 148 148 148 147 147 148 148 147 143 138 130 119 114
116 116 118 118 124 103 28 10 0 14 15 31 38 31 27 17
23 21 20 28 30 30 29 27 27 16 0 0 0 5 0 0
7 0 0 0 2 29 4 0 8 13 14 14 13 16 19 19
24 35 34 24 2 0 0 0 0 0 0 0 0 0 0 0
0 0 0 0 0 0 17 37 32 15 11 16 9 6 3 10
8 9 12 13 10 13 15 24 37 79 65 54 72 91 99 115
117 118 123 119 112 113 99 101 142 145 146 148 148 149 149 149
148 148 147 148 146 147 147 148 148 148 147 144 139 131 119 114
116 119 120 118 115 72 17 5 2 17 11 36 36 30 23 10
17 21 19 28 29 28 28 27 27 15 0 0 0 11 0 0
1 0 0 0 4 36 37 26 20 11 12 14 13 15 18 20
24 34 34 25 3 0 0 0 0 0 0 0 0 0 0 0
0 0 0 0 1 0 15 36 32 16 1 10 6 6 9 8
14 10 12 10 8 12 14 16 32 62 54 39 73 93 111 117
119 118 119 125 133 135 111 116 140 135 139 147 147 148 149 148
149 149 148 147 147 147 147 148 148 147 147 145 139 132 118 116
119 119 119 112 106 51 17 2 4 14 12 40 33 24 10 4
16 19 19 27 29 28 28 29 28 16 1 2 8 13 3 3
0 0 0 0 7 38 31 13 10 11 12 14 11 15 18 19
23 34 34 26 4 0 0 0 0 0 0 0 0 0 0 0
0 0 0 0 0 0 13 36 32 19 0 9 4 4 8 12
16 11 10 11 7 10 16 14 24 42 36 35 66 82 117 129
140 137 137 140 139 136 133 131 136 133 138 145 149 148 147 148
149 148 148 148 147 145 147 147 147 147 147 145 141 135 118 116
121 120 116 111 103 47 15 0 7 18 20 40 32 21 9 4
16 18 20 28 29 28 28 29 29 19 8 12 14 14 12 11
0 0 0 0 7 36 16 0 1 10 12 12 11 14 17 18
21 32 33 27 5 0 0 0 0 0 0 0 0 0 0 0
0 0 0 0 0 0 11 36 32 22 1 7 4 1 3 12
14 14 7 11 8 11 17 13 12 12 11 27 46 86 109 130
148 148 145 140 135 131 128 129 130 134 142 138 143 146 147 147
148 147 147 145 146 146 147 148 147 147 147 144 140 129 116 114
118 116 115 112 103 45 11 0 50 54 22 40 32 20 8 5
16 18 20 27 29 28 28 29 30 20 5 6 7 6 3 2
0 0 0 0 4 34 18 0 0 10 13 13 11 13 16 18
21 32 33 27 5 0 0 0 0 0 0 0 0 0 0 0
0 0 0 0 0 0 10 35 33 24 7 10 4 5 5 13
10 15 11 10 7 7 11 12 15 11 9 21 39 90 98 134
144 145 143 136 128 124 123 122 126 134 139 144 145 147 148 148
149 148 146 147 139 137 146 147 148 147 146 145 139 125 112 106
108 113 117 96 83 39 8 3 61 47 24 40 31 22 12 17
21 18 22 29 30 28 28 28 29 22 1 0 0 0 0 0
4 3 7 13 18 35 20 0 0 9 12 12 11 11 16 17
20 31 33 27 6 0 0 0 0 0 0 0 0 0 0 0
0 0 0 0 0 0 9 35 32 32 41 41 21 3 3 13
14 10 16 11 9 5 9 11 10 12 12 19 51 81 99 135
144 143 141 133 129 122 117 120 124 130 137 144 145 147 148 148
149 147 146 144 139 137 144 146 147 147 146 145 138 119 98 86
89 90 88 83 65 20 4 0 19 18 32 38 32 25 22 15
22 19 26 33 31 29 29 29 28 22 1 0 0 0 0 0
20 22 27 34 41 43 29 4 1 9 11 12 11 11 15 17
19 30 33 27 7 0 0 0 0 0 0 0 0 0 0 0
0 0 0 0 0 0 7 34 31 36 56 57 48 9 2 18
20 11 18 12 16 10 4 8 10 11 12 38 65 81 110 136
140 139 136 130 127 121 113 113 121 124 130 138 141 146 147 146
147 146 144 144 144 144 143 145 146 144 144 144 133 111 72 64
71 72 72 60 33 17 1 0 10 14 39 35 32 28 19 16
21 21 27 31 31 28 29 28 28 23 1 0 0 0 0 0
30 32 34 40 46 44 39 32 27 23 13 11 11 10 14 15
19 29 32 26 7 0 0 0 0 0 0 0 0 0 0 0
0 0 0 0 0 0 6 33 31 34 48 47 44 28 5 25
18 19 14 16 12 16 11 6 11 25 48 73 85 104 127 138
140 140 137 134 126 116 106 106 115 120 127 133 138 142 142 142
143 143 145 145 143 144 144 143 143 142 143 143 129 104 111 111
109 109 106 90 43 14 0 1 9 16 43 34 32 28 19 16
22 22 27 31 31 28 29 28 27 22 1 0 0 0 0 0
24 22 22 21 21 20 20 13 11 13 10 9 10 9 14 15
19 28 32 27 7 0 0 0 0 0 0 0 0 0 0 0
0 0 0 0 0 0 6 32 30 26 23 23 23 23 14 25
16 13 20 20 19 17 22 21 26 50 97 116 124 131 138 141
141 144 141 138 130 119 96 105 114 118 126 132 132 134 137 141
137 139 140 142 143 143 143 142 141 140 137 136 122 103 114 121
124 126 117 98 59 10 0 2 7 21 42 33 32 27 19 16
22 22 29 31 30 29 29 28 28 23 2 0 0 0 0 0
9 10 10 11 13 16 19 1 0 4 8 9 8 7 12 14
18 28 32 27 7 0 0 0 0 0 0 0 0 0 0 0
0 0 0 0 0 0 6 33 30 26 22 21 21 21 19 28
12 8 10 20 29 40 38 62 64 81 119 132 133 136 141 144
144 144 142 137 133 122 105 108 109 117 122 127 132 135 135 137
139 138 139 139 137 137 140 140 137 134 129 126 119 110 113 118
121 120 111 86 41 6 0 14 27 31 40 33 31 25 18 15
20 23 29 30 30 29 29 28 28 24 2 0 0 0 0 0
3 2 2 3 11 13 18 2 0 2 7 9 8 8 13 14
17 27 31 27 8 0 0 0 0 0 0 0 0 0 0 0
0 0 0 0 0 0 7 34 31 26 26 26 25 24 19 24
13 7 7 11 37 46 55 79 111 120 130 133 137 138 140 143
146 146 146 144 138 133 121 115 106 112 119 127 130 132 131 131
135 134 134 138 136 136 134 135 132 130 130 126 119 117 116 117
116 110 95 63 16 0 8 42 25 35 39 32 32 20 13 16
17 24 29 30 30 29 29 30 28 24 2 0 0 0 0 0
0 3 4 3 9 18 22 3 0 0 1 5 9 8 11 13
16 26 30 26 8 0 0 0 0 0 0 1 1 2 3 4
6 7 8 10 12 14 21 33 29 27 28 28 28 28 21 22
9 9 9 10 45 63 64 77 109 125 134 136 139 141 142 145
147 147 147 143 143 141 135 127 112 107 110 117 125 124 126 131
131 130 132 131 132 134 133 134 132 132 133 127 119 116 115 114
112 108 87 38 34 17 55 141 60 37 36 33 30 19 19 17
15 25 28 28 30 30 29 30 27 24 3 0 0 0 0 0
16 19 21 22 21 15 17 2 0 2 5 1 8 7 11 13
15 25 30 28 17 9 11 13 15 17 18 21 22 23 24 26
26 27 27 27 27 27 27 26 26 26 28 27 28 27 25 14
8 9 7 12 58 91 103 111 117 129 135 136 138 139 142 145
147 148 149 149 148 147 143 137 120 108 102 108 114 116 119 119
127 127 128 129 131 132 132 132 130 135 135 132 120 112 112 112
108 105 79 20 25 25 87 147 52 40 35 31 28 15 13 4
7 22 24 22 26 28 29 28 28 26 3 0 0 0 0 0
20 23 25 26 26 22 5 1 0 2 7 1 7 7 11 13
15 25 31 30 29 28 27 29 30 30 29 29 28 28 28 28
28 28 28 27 27 27 27 27 27 27 29 28 28 27 26 19
10 8 8 14 65 101 115 123 128 132 136 138 138 141 143 146
149 149 149 149 148 148 146 141 128 116 106 103 107 110 113 115
118 120 121 125 131 131 127 130 133 138 136 134 122 116 115 110
109 110 94 36 8 1 47 58 22 45 31 13 8 1 0 4
0 2 10 30 31 28 27 24 27 26 4 0 0 0 0 0
20 19 22 25 29 24 12 4 0 2 3 1 2 3 9 12
14 24 31 31 30 29 24 29 30 29 29 28 28 29 32 28
20 20 24 25 18 20 24 24 24 26 29 28 28 28 26 26
25 6 11 25 87 113 117 122 128 131 135 138 139 142 143 146
149 149 150 148 148 145 140 138 134 124 120 108 103 101 100 105
112 118 118 122 125 127 131 135 137 137 136 135 128 118 115 109
109 117 111 64 36 36 49 58 49 52 29 6 0 0 0 0
0 0 0 25 20 22 29 21 22 25 6 0 0 0 0 0
20 18 17 26 33 20 5 0 0 0 0 0 0 2 8 10
13 23 30 30 30 29 26 27 26 26 26 25 28 48 56 20
1 0 3 5 2 2 14 21 20 19 16 13 16 25 27 37
32 7 13 63 99 114 119 121 128 131 134 136 140 142 146 146
149 149 146 145 144 145 142 139 136 129 125 119 110 104 100 99
101 106 113 117 117 124 130 133 132 133 134 136 130 121 109 107
110 122 115 95 102 101 97 101 100 79 35 38 0 0 0 0
0 0 0 11 18 27 27 20 16 9 15 12 2 0 0 0
12 13 12 34 21 11 0 0 0 0 0 0 0 1 1 3
5 10 14 13 12 11 9 9 9 10 12 16 48 68 32 1
0 0 0 0 0 0 0 1 1 0 0 0 0 6 26 67
41 2 33 88 104 114 119 122 125 131 134 133 138 141 144 146
148 148 144 143 143 144 142 139 138 134 125 119 114 110 105 99
95 95 99 102 108 113 119 124 127 130 131 132 129 120 113 107
110 118 109 99 106 96 87 99 101 79 22 28 0 0 0 0
0 0 0 1 23 31 20 16 19 10 3 6 3 0 0 0
8 4 25 38 14 13 4 0 0 0 0 0 0 0 0 0
0 0 0 0 0 0 0 1 0 3 15 30 66 48 6 0
0 0 0 0 0 0 0 0 0 0 0 0 0 0 28 89
35 0 69 102 109 114 119 122 126 130 134 134 137 141 145 147
147 147 145 143 145 144 141 129 126 131 126 122 119 113 111 107
99 95 90 92 98 104 110 116 121 121 126 125 129 120 113 103
107 113 101 90 92 91 91 93 96 74 12 9 6 5 7 6
5 9 9 8 13 13 2 0 1 0 0 0 2 0 0 0
8 2 61 17 1 10 12 2 0 0 0 0 0 0 0 0
0 0 0 0 0 0 5 7 2 3 18 49 56 20 1 0
0 0 0 0 0 0 0 0 0 0 0 0 0 8 41 84
24 6 89 106 111 116 119 123 126 129 132 134 136 138 145 147
148 145 144 142 143 143 141 131 127 128 127 124 123 120 116 113
110 104 100 97 96 101 103 107 114 114 117 117 118 115 107 105
102 104 96 99 73 67 64 55 55 48 34 32 31 24 18 11
3 6 6 5 2 0 0 0 0 0 0 0 1 0 0 0
19 8 42 1 0 3 15 18 0 0 0 0 0 0 0 1
2 1 1 0 0 0 6 10 9 4 19 60 36 1 2 12
6 0 0 0 0 0 0 0 0 0 0 0 2 35 47 88
26 14 96 109 114 119 120 122 126 126 127 133 134 137 142 146
146 145 143 142 142 139 142 137 134 130 129 128 125 124 118 116
113 109 106 103 100 97 93 100 105 109 110 110 112 110 109 101
96 91 108 150 126 87 60 42 37 30 22 18 19 15 13 8
3 4 4 3 2 0 0 0 0 0 0 0 0 0 0 0
12 8 18 0 0 0 15 9 0 0 0 1 2 3 2 3
4 3 2 1 2 4 10 16 15 3 27 61 24 17 29 36
20 0 0 3 0 0 0 0 0 0 0 0 7 53 39 81
27 12 97 110 115 119 123 125 126 126 126 130 131 137 142 145
146 146 143 141 139 129 142 143 137 137 136 133 131 125 122 116
112 108 103 100 98 94 90 89 90 98 102 102 105 107 97 90
85 80 132 150 135 94 61 47 35 28 23 20 20 15 15 10
5 3 4 3 3 0 0 0 0 0 0 0 0 0 0 0
0 8 10 0 1 0 1 0 0 1 0 5 4 9 9 9
9 9 11 15 20 21 19 16 12 0 36 49 10 25 36 37
30 3 11 27 16 3 0 4 6 1 0 0 11 45 38 81
32 7 93 114 118 123 124 126 126 126 125 127 128 133 141 146
146 145 144 140 139 140 142 144 141 143 140 139 137 134 127 117
111 102 92 82 77 73 70 70 73 78 84 91 91 85 75 69
73 123 146 149 138 94 60 46 36 29 23 20 19 16 15 10
5 2 6 3 3 1 0 0 0 0 0 0 0 0 0 0
0 6 9 2 5 0 0 0 0 0 0 0 2 6 6 5
6 7 9 15 24 24 14 7 3 2 46 45 2 21 38 38
26 6 30 39 30 13 0 6 0 0 0 13 41 46 39 112
74 5 76 114 118 121 123 125 125 125 124 124 127 135 141 145
145 144 141 142 140 143 146 145 144 144 145 143 141 136 129 116
106 89 67 42 26 39 78 95 80 51 50 46 43 42 42 63
126 146 141 148 136 91 61 44 36 28 22 20 19 16 15 10
6 1 5 4 1 0 0 0 0 0 0 0 0 0 0 0
1 10 14 9 7 0 0 0 0 0 0 0 3 4 4 3
4 4 5 13 23 22 5 0 0 3 50 47 3 20 19 15
28 26 43 41 31 19 2 8 0 7 28 35 54 41 55 99
67 13 53 117 119 122 123 123 124 123 124 125 128 135 138 144
145 144 143 142 142 144 145 147 147 148 146 145 141 136 126 116
100 78 53 19 13 54 115 149 131 83 63 48 50 62 79 116
149 145 141 149 137 93 65 46 36 28 25 20 19 17 15 11
5 2 5 4 0 1 0 0 0 0 0 0 0 0 0 0
0 8 12 8 5 0 0 0 0 0 0 0 2 1 2 2
4 4 6 13 23 19 4 0 0 3 53 49 8 16 6 8
30 38 50 34 23 26 14 35 35 36 27 47 36 39 61 80
59 23 34 111 122 124 124 123 123 122 124 125 128 134 138 143
143 144 141 139 142 143 145 146 147 147 147 146 142 135 124 110
93 68 31 0 2 18 27 53 97 83 60 47 51 60 78 116
150 145 140 149 139 96 66 47 35 28 25 19 19 16 15 13
6 5 5 4 1 1 0 0 0 0 0 0 0 0 0 0
2 21 13 6 6 0 0 0 1 0 0 0 1 3 2 5
6 6 7 14 24 18 10 8 0 4 53 62 22 20 2 14
36 50 47 13 20 51 72 79 42 41 52 36 32 46 52 59
78 32 28 88 123 123 122 122 122 122 123 125 128 134 139 142
144 145 142 142 144 144 147 146 146 146 146 145 140 130 116 104
84 61 3 0 0 15 24 32 48 34 49 48 52 59 79 114
149 146 140 149 139 94 69 48 30 25 22 18 19 17 16 13
6 7 5 4 1 0 0 0 0 0 0 0 0 0 0 0
7 8 1 3 5 1 0 0 0 0 0 0 2 6 1 5
7 7 13 24 31 26 21 21 3 2 44 56 35 17 0 13
39 49 35 55 84 66 54 72 56 80 44 35 34 50 35 49
90 36 31 54 118 123 122 122 122 122 124 126 127 133 138 142
145 144 140 142 143 144 144 145 144 143 143 141 136 123 110 98
82 43 0 0 6 24 39 37 39 19 23 31 49 60 78 112
149 146 142 150 141 97 68 46 32 24 18 17 18 18 17 14
5 8 6 4 1 0 0 0 0 0 0 0 0 0 0 0
0 0 1 2 4 3 0 0 0 0 0 0 8 11 1 5
5 7 25 36 30 27 20 19 4 0 41 54 48 13 0 17
47 54 64 59 45 50 47 87 108 45 38 37 36 40 30 40
97 38 38 36 85 122 123 122 123 124 123 125 127 130 136 144
145 143 142 140 140 142 141 143 143 142 141 136 129 119 104 93
75 41 0 1 18 17 41 78 32 18 17 18 24 42 73 106
148 146 142 149 142 98 65 42 31 26 19 13 16 17 17 15
7 9 6 3 0 0 0 0 0 0 0 0 0 0 0 0
7 8 12 10 3 2 0 0 0 0 0 0 5 13 2 6
4 2 16 31 34 33 27 25 8 0 27 39 31 10 18 46
67 90 56 43 42 46 61 102 75 60 33 40 34 55 36 35
89 61 51 33 45 104 121 121 123 123 123 125 127 131 136 143
146 143 140 138 137 139 142 141 139 138 138 132 125 115 102 87
70 39 0 4 19 20 28 54 46 21 18 21 20 32 47 60
120 147 139 150 142 99 65 42 37 29 17 12 15 16 17 14
6 8 7 4 1 0 0 0 0 0 0 0 0 0 0 0
16 17 18 18 9 0 2 0 0 0 0 0 5 18 19 12
6 1 3 11 20 19 12 7 1 0 1 4 25 47 61 65
55 75 57 47 47 75 81 46 67 37 24 41 49 62 51 30
91 115 73 52 36 62 116 122 124 124 125 126 127 129 137 141
145 143 141 140 139 137 139 137 134 131 131 130 123 110 95 77
71 30 5 11 38 28 33 39 21 39 47 28 23 42 34 24
31 47 75 109 135 98 64 47 38 29 18 14 16 18 17 15
7 8 7 3 2 0 0 0 0 0 0 0 0 0 0 0
10 12 15 14 7 0 4 0 0 0 0 0 0 8 26 9
1 0 0 0 0 0 0 0 0 0 21 53 47 70 70 49
45 70 83 66 86 71 39 39 71 39 30 44 79 49 58 44
88 117 47 45 36 39 80 123 124 124 125 125 125 130 136 140
143 143 143 141 137 136 135 131 131 128 126 123 116 100 79 78
71 14 13 13 42 49 44 27 18 21 26 43 65 62 24 23
25 27 32 71 75 79 63 45 36 27 20 15 17 17 16 14
7 9 7 4 2 0 0 0 0 0 0 0 0 0 0 0
0 0 0 0 0 6 24 0 2 0 0 0 0 0 9 1
0 0 0 0 0 0 0 0 5 29 62 80 67 61 52 54
53 62 96 114 52 46 53 54 102 79 69 58 77 32 44 62
55 91 47 45 39 38 49 104 126 125 125 124 124 129 136 140
143 144 140 138 135 136 136 131 128 125 120 110 95 77 82 82
67 3 10 22 35 44 74 29 23 22 21 21 45 65 49 40
22 25 27 46 30 28 46 41 33 25 21 18 18 20 18 15
8 8 5 4 2 0 0 0 0 0 0 0 0 0 0 0
0 0 0 0 0 12 40 1 7 1 0 0 0 0 7 1
0 0 1 1 1 2 4 17 36 47 76 99 66 49 53 53
75 83 81 122 77 70 73 81 112 64 57 36 52 39 34 60
43 70 68 41 42 39 41 63 118 124 125 123 122 125 134 139
139 137 139 137 138 137 135 131 126 119 108 91 77 86 91 82
50 1 18 33 36 63 60 52 35 25 26 21 46 28 19 49
45 20 34 47 23 22 29 34 35 26 21 18 17 18 18 15
8 7 4 4 2 0 0 0 0 0 0 0 0 0 0 0
0 0 0 0 0 1 9 4 3 0 0 0 0 0 11 10
0 0 0 0 11 44 45 73 79 67 53 63 77 60 57 57
52 48 44 86 43 40 53 50 78 33 35 23 30 55 35 46
48 51 89 38 48 41 44 47 80 124 124 124 122 123 130 136
139 140 140 139 138 136 134 131 123 114 98 84 90 94 88 83
20 23 38 35 25 30 36 28 51 52 24 33 42 20 22 17
35 54 68 51 23 24 35 33 38 59 46 24 16 18 19 15
8 6 3 4 1 0 0 0 0 0 0 0 0 0 0 0
0 0 0 0 0 0 0 0 0 0 0 0 0 0 1 4
0 0 0 26 70 101 89 51 47 50 47 42 46 39 64 44
39 38 38 86 43 30 36 38 78 33 39 27 22 65 36 47
42 39 91 47 44 41 52 46 51 94 124 123 120 120 126 134
137 140 141 140 137 136 134 128 116 104 94 93 94 94 92 60
8 61 36 32 21 28 21 18 19 45 41 50 42 24 24 20
19 32 51 38 53 57 77 66 71 55 36 38 29 18 19 17
9 7 2 4 1 0 0 0 0 0 0 0 0 0 0 0
0 0 0 0 0 0 0 0 0 0 0 0 0 0 0 0
0 9 41 62 83 82 69 44 39 58 52 38 36 36 71 48
40 40 40 80 39 30 37 38 86 36 39 25 18 56 50 49
34 41 62 70 54 78 78 50 50 59 107 123 118 119 125 130
136 139 139 136 133 131 130 120 112 102 99 99 101 100 86 16
36 76 66 43 21 28 25 20 20 47 17 39 63 30 20 20
17 36 39 24 27 35 38 61 104 75 49 33 33 30 21 17
9 8 2 3 1 0 0 0 0 0 0 0 0 0 0 0
0 0 0 0 0 0 0 0 0 0 0 0 0 0 0 0
15 49 69 64 48 50 41 33 38 56 48 32 33 35 66 58
36 39 41 78 43 37 36 35 89 43 40 27 21 48 82 55
27 39 51 120 90 77 51 54 50 54 68 112 117 117 122 129
132 137 136 134 130 127 122 114 107 103 102 103 104 100 41 16
67 76 46 36 20 29 31 20 21 49 19 20 20 28 37 20
16 36 46 25 29 33 39 54 70 41 53 67 51 28 33 26
9 7 2 3 2 0 0 0 0 0 0 0 0 0 0 0
0 0 0 0 0 0 0 0 0 0 0 0 0 0 0 33
64 67 43 42 50 62 41 34 37 56 51 31 32 39 59 67
38 38 42 65 42 36 35 33 88 45 36 26 20 43 102 68
22 43 80 128 83 44 33 51 53 54 55 75 116 118 122 127
132 134 133 128 125 119 115 108 103 100 102 105 106 88 22 53
98 49 32 27 24 28 43 22 23 45 19 20 17 27 43 17
15 19 37 37 35 40 37 67 55 35 38 37 43 55 58 49
18 7 2 4 3 0 0 0 0 0 0 0 0 0 0 0
0 0 0 0 0 0 0 0 0 0 0 0 0 0 29 79
94 38 32 38 44 61 39 41 37 50 61 31 27 36 48 66
32 35 42 53 50 51 56 53 92 50 47 38 32 52 76 70
30 47 81 85 79 43 41 50 54 57 55 52 86 118 121 125
128 132 131 125 118 112 107 101 98 101 107 110 98 31 37 42
67 43 31 45 43 49 72 21 24 43 19 17 18 24 41 21
18 18 34 42 31 29 36 74 52 37 32 30 74 48 73 34
30 20 2 3 2 0 0 0 0 0 0 0 0 0 0 0
0 0 0 0 0 0 0 0 0 0 0 0 0 27 63 48
69 52 49 57 66 104 62 79 81 86 112 61 53 60 68 94
50 50 67 81 89 73 77 75 127 74 75 64 58 70 74 47
55 35 46 49 94 41 57 47 53 59 59 51 51 102 121 125
128 132 130 122 112 103 100 97 101 110 114 109 50 24 47 54
71 42 28 34 33 34 77 38 31 54 21 18 19 27 55 27
20 18 37 41 38 44 69 105 90 70 62 68 113 59 55 38
39 36 10 4 2 0 0 0 0 0 0 0 0 0 0 0
0 0 0 0 0 0 0 0 0 0 0 0 15 53 59 54
103 58 64 79 69 108 63 65 57 53 79 41 53 67 81 119
69 72 78 84 100 49 52 43 92 39 45 42 36 46 48 29
67 35 32 40 91 60 54 42 36 41 64 54 44 62 115 126
129 131 128 117 105 100 99 105 115 120 117 78 16 52 52 65
58 36 26 22 18 16 43 35 51 85 45 39 37 41 87 44
52 41 60 72 67 65 61 88 56 52 61 58 60 28 47 53
46 33 36 8 3 0 0 0 0 0 0 0 0 0 0 0
0 0 0 0 0 0 0 0 0 0 0 10 53 67 61 43
75 23 29 38 35 65 28 37 42 43 73 28 32 35 31 79
39 48 49 45 75 32 36 36 86 38 41 35 31 32 32 21
43 64 29 37 63 83 42 38 6 37 67 55 42 42 86 127
129 130 127 113 101 99 103 115 125 126 107 30 21 47 45 74
17 38 36 24 21 17 55 23 31 72 34 35 26 21 61 26
37 49 70 74 44 37 35 51 54 31 35 32 53 30 29 63
84 38 33 46 5 0 0 0 0 0 0 0 0 0 0 0
0 0 0 0 0 0 0 0 0 0 5 50 73 75 39 44
76 23 33 42 38 77 31 39 46 43 78 33 36 38 33 63
29 36 38 38 86 38 36 40 78 42 43 36 34 36 33 19
28 60 55 29 52 93 42 15 20 54 73 66 41 38 56 113
131 133 125 108 102 105 113 130 134 123 60 16 40 48 56 99
1 22 55 23 21 16 57 25 24 53 16 17 14 11 43 15
21 23 27 59 27 32 37 46 69 35 37 37 69 30 20 58
82 48 31 63 34 0 0 0 0 0 0 0 0 0 0 0
0 0 0 0 0 0 0 0 0 0 35 78 88 41 32 44
80 21 29 42 37 89 29 37 44 39 68 33 37 33 31 67
33 39 42 41 88 41 35 36 67 46 44 38 36 42 32 22
26 45 102 31 41 79 12 2 44 80 48 76 49 38 46 75
120 129 120 104 103 107 124 136 130 93 27 50 81 81 85 73
9 37 52 22 23 16 45 26 24 48 20 19 14 13 46 17
23 25 29 62 31 36 36 33 57 33 32 35 73 36 21 72
40 73 55 41 37 5 0 0 0 0 0 0 0 0 0 0
1 0 0 0 0 0 0 0 0 13 42 50 89 33 38 29
83 23 31 43 37 88 31 36 45 38 66 40 44 35 37 62
27 35 38 39 83 48 40 39 59 50 39 34 36 45 39 21
25 56 62 44 43 37 0 7 69 71 44 39 65 45 47 63
91 120 112 102 108 116 136 141 122 59 42 81 70 64 64 37
43 33 61 33 20 16 40 28 24 46 24 18 14 13 42 18
24 23 22 66 31 35 37 35 65 32 32 36 52 43 40 56
26 46 66 26 25 22 0 0 0 0 0 0 0 0 0 0
1 0 0 0 0 0 0 0 6 34 38 67 71 54 40 28
84 33 26 36 35 81 31 27 40 36 52 37 40 33 34 46
25 35 38 40 78 45 37 34 44 61 44 53 56 71 76 25
34 42 27 41 65 26 0 9 77 38 72 60 41 51 48 63
82 108 112 106 113 127 146 142 94 58 71 57 39 45 52 45
36 48 90 52 33 26 70 39 22 33 29 20 17 10 35 15
20 23 22 64 32 36 32 32 54 34 39 38 59 66 60 26
25 29 50 42 29 30 12 0 0 0 0 0 0 0 0 0
0 1 0 0 0 0 0 0 33 33 44 51 51 87 36 32
82 64 48 47 55 114 65 64 56 66 89 52 57 48 49 62
36 29 31 36 72 50 44 48 50 91 65 74 84 97 116 53
47 40 31 21 58 29 3 5 63 28 32 85 73 60 54 64
83 102 105 109 113 131 146 128 79 61 70 47 40 51 51 43
24 30 58 43 43 36 76 60 37 34 38 18 15 15 26 13
22 25 25 70 48 46 42 43 77 60 68 69 69 100 42 25
23 32 43 58 44 31 30 4 0 0 0 0 0 0 0 0
