P2
128 120
147
43 38 38 38 38 37 37 37 38 38 38 37 36 36 36 36
37 36 35 35 35 35 35 35 34 34 34 34 33 33 32 32
32 31 30 30 30 29 29 28 28 27 28 27 26 26 26 24
24 24 24 23 23 22 22 22 22 20 20 20 20 19 19 18
17 17 17 18 21 21 21 20 15 8 9 20 19 19 18 18
17 17 15 15 15 12 14 14 17 17 17 17 18 17 18 18
19 19 19 19 19 19 20 20 20 21 21 21 21 21 21 21
23 24 24 24 25 25 25 25 26 27 27 27 27 27 28 27
56 58 57 55 52 47 48 50 52 55 56 50 37 36 36 35
36 35 36 35 35 35 35 34 34 34 33 33 33 33 32 32
32 31 30 30 30 29 29 29 28 27 27 26 26 26 26 25
25 25 24 23 23 23 22 23 22 21 21 20 20 20 19 19
18 17 19 19 21 22 22 20 16 13 12 21 20 19 19 18
17 17 16 16 15 13 14 16 18 17 18 18 18 18 18 19
19 19 20 20 20 20 20 21 21 21 21 21 21 23 23 23
24 24 25 25 25 26 26 27 27 27 27 27 27 27 27 27
48 53 41 32 33 35 37 37 37 38 53 55 46 43 38 36
35 36 35 35 35 34 35 34 34 34 34 33 33 33 33 32
32 31 31 30 30 30 29 29 29 28 28 27 27 27 26 25
25 24 24 24 23 22 23 22 22 21 21 21 20 20 20 19
19 18 18 19 22 22 22 22 16 14 13 21 21 20 20 19
18 18 17 15 15 13 15 15 17 18 18 18 19 19 20 20
20 19 19 20 20 20 20 21 21 22 22 23 23 23 24 23
24 24 25 25 25 26 26 26 27 27 27 27 28 28 28 28
44 45 18 0 0 0 1 0 0 0 40 52 51 53 50 42
38 38 38 38 37 36 34 34 33 34 33 33 33 33 33 32
32 31 32 31 31 30 29 29 28 29 28 27 27 27 26 25
26 25 25 24 24 24 23 23 23 21 22 21 21 20 20 19
19 19 19 19 23 23 23 22 17 15 15 20 21 20 20 19
18 19 18 17 17 15 16 17 18 18 19 19 19 19 19 19
19 19 20 20 20 21 22 22 22 22 23 24 24 23 24 24
24 25 25 25 26 26 27 27 27 28 28 28 28 28 28 28
40 43 19 0 0 0 9 0 0 0 33 50 46 41 26 30
37 41 47 49 49 46 41 34 34 34 34 33 33 33 33 32
31 31 30 30 29 30 29 29 29 29 28 28 28 27 27 26
26 25 25 25 24 24 24 23 23 23 22 21 21 21 21 20
20 19 19 19 23 23 23 22 17 16 16 18 22 21 21 20
19 19 18 18 18 16 15 17 19 19 19 19 20 20 20 20
20 20 21 21 20 21 22 21 22 22 23 23 24 24 24 24
25 26 25 26 26 26 27 27 27 27 28 28 28 28 28 29
40 43 21 0 0 0 5 0 0 0 26 49 45 34 0 0
4 10 18 25 34 48 45 34 35 34 34 34 33 33 33 32
32 32 32 32 31 31 30 29 29 29 27 28 28 27 26 27
26 26 26 25 25 25 24 24 24 23 23 22 22 21 21 19
19 20 20 20 24 24 24 23 19 16 17 17 23 21 21 20
19 19 19 18 18 16 16 17 19 19 20 20 21 21 21 21
22 21 21 21 22 21 22 22 23 23 24 24 24 24 25 25
25 25 25 25 26 26 27 27 28 28 29 28 28 29 29 29
38 43 23 0 0 1 4 0 0 0 22 48 46 33 0 0
0 0 0 0 3 43 44 34 34 34 33 33 33 33 33 32
32 32 31 31 31 30 30 29 29 29 29 29 28 28 28 27
27 26 25 25 25 24 24 24 24 23 23 22 22 22 22 21
21 21 21 21 24 24 24 23 19 16 19 17 23 22 22 20
20 20 19 18 19 17 16 17 19 20 20 21 21 21 21 21
22 22 22 23 22 22 23 23 23 23 23 24 24 24 25 25
25 26 26 26 27 26 27 27 27 27 28 29 29 29 29 28
35 43 29 0 7 6 3 1 0 1 16 48 44 32 0 0
0 0 0 0 2 42 45 34 34 34 34 33 33 33 33 32
32 31 31 31 31 31 30 31 30 30 29 28 28 28 27 27
27 26 26 26 26 25 25 25 25 24 23 22 22 22 22 21
21 21 20 21 24 25 25 24 19 17 21 17 24 23 23 22
21 21 20 18 19 18 16 18 21 21 21 21 22 22 21 21
22 22 22 22 22 22 22 23 24 24 25 25 25 25 25 25
25 25 26 27 27 27 28 27 27 27 28 28 27 28 28 29
37 46 38 0 15 4 0 0 0 0 13 48 44 35 0 0
6 7 0 0 1 41 44 34 34 33 33 33 33 33 33 32
32 32 32 31 31 30 30 30 29 29 30 29 28 28 28 28
27 27 27 27 26 26 25 25 24 24 24 23 23 23 23 22
21 21 21 22 25 25 25 25 19 17 22 16 23 23 23 22
22 22 22 20 20 19 17 19 21 21 22 22 22 22 22 22
22 22 23 23 23 23 23 23 24 24 24 25 25 25 25 26
27 27 27 27 27 27 27 27 28 28 28 29 29 29 29 29
36 45 42 4 11 1 0 0 0 1 10 47 46 34 0 2
7 5 0 0 1 40 44 34 34 33 33 33 33 32 33 32
32 31 32 31 31 31 31 30 30 29 29 28 29 28 27 27
27 26 26 27 26 26 25 25 25 24 24 24 22 23 22 22
21 21 21 22 24 25 25 25 20 18 23 17 23 23 23 22
21 20 21 20 19 18 16 19 21 21 22 22 22 23 22 23
23 22 22 23 23 24 24 24 24 24 25 25 25 26 26 26
26 26 26 26 27 27 28 27 28 28 29 29 29 29 29 29
35 43 46 8 7 0 0 0 0 0 8 45 44 34 0 0
1 4 1 0 1 39 43 34 33 33 33 33 33 32 33 32
33 33 32 32 32 31 31 31 30 30 29 29 29 29 28 28
27 27 27 27 26 26 25 25 26 25 24 24 24 23 23 22
23 23 24 25 28 28 27 26 21 18 23 18 23 23 24 23
23 21 22 21 20 19 16 19 21 22 22 22 22 23 23 24
23 23 24 24 24 25 25 25 25 26 25 25 25 25 25 26
26 27 28 28 29 29 29 30 29 29 29 30 30 29 29 29
32 34 41 9 6 0 0 0 0 0 5 42 44 36 1 0
0 6 6 0 1 38 42 34 33 34 34 33 33 33 32 32
32 32 32 31 31 31 31 30 30 30 30 30 30 29 29 28
28 27 28 27 26 26 26 26 26 26 26 26 24 23 23 23
23 25 27 27 29 29 29 28 23 19 25 19 24 25 24 23
23 20 21 20 20 19 16 20 21 22 22 23 23 24 23 24
24 23 23 24 24 24 24 25 24 25 25 25 26 26 27 27
27 27 28 28 28 28 29 28 29 29 29 29 29 29 30 30
36 30 35 21 20 20 23 23 24 25 25 35 43 40 2 0
1 2 5 0 1 37 42 34 34 33 34 32 32 32 33 32
33 32 32 32 32 31 31 30 30 30 29 29 29 29 29 28
28 27 29 29 28 27 28 29 29 27 26 26 26 26 24 23
25 27 25 24 26 27 28 27 23 22 25 20 22 24 24 23
23 21 21 21 21 20 17 21 22 23 23 23 24 24 23 24
25 24 24 24 25 24 24 25 26 25 26 26 26 26 27 27
27 27 28 29 28 29 29 29 30 29 29 29 29 29 29 29
28 26 29 28 26 26 27 26 26 26 26 25 37 38 6 1
1 1 3 5 7 39 42 34 34 34 34 33 34 33 33 33
33 32 32 31 31 31 31 31 30 30 30 29 29 29 29 28
28 28 28 30 29 29 32 33 32 32 32 28 26 29 26 25
26 24 25 25 28 28 28 26 24 19 26 25 21 25 24 23
23 22 22 21 21 21 18 20 22 23 23 24 24 23 24 24
23 24 24 24 25 25 25 25 25 25 26 26 26 26 27 27
28 28 29 29 29 28 28 29 29 29 29 29 29 29 29 30
15 16 16 18 18 19 20 23 26 29 31 30 30 33 31 30
27 21 18 15 19 40 41 34 34 34 33 33 33 34 33 33
33 32 32 32 32 32 32 31 30 30 30 29 30 29 29 28
29 31 37 46 41 31 28 30 34 35 30 32 29 26 28 27
26 25 29 31 30 32 38 40 28 20 25 25 24 26 25 24
23 22 22 22 22 21 18 22 22 23 23 23 24 23 24 23
24 25 25 25 26 25 26 26 26 26 26 27 27 27 27 28
28 28 29 29 29 29 29 30 30 29 30 29 29 29 29 29
13 13 13 13 13 13 13 14 17 19 23 24 21 21 22 25
27 30 32 34 35 37 37 34 34 34 33 33 33 33 33 33
32 32 32 32 31 31 31 31 30 30 30 30 30 30 31 30
29 28 33 35 33 32 26 25 22 23 31 30 35 27 26 30
26 30 28 27 23 25 26 28 32 25 24 25 22 28 25 24
24 24 22 21 22 21 17 21 21 23 23 24 24 24 25 25
24 25 25 25 26 26 26 26 25 25 26 26 27 27 28 28
29 29 29 29 28 29 30 29 29 29 29 30 29 29 30 30
16 13 14 13 12 13 13 13 14 14 14 13 14 14 14 16
19 21 25 27 30 32 34 34 34 34 34 34 33 33 32 32
32 32 32 32 31 31 31 31 31 30 30 30 29 30 27 26
25 25 24 25 28 22 17 22 22 22 25 32 32 28 28 32
31 29 26 24 23 21 24 30 27 28 27 25 20 27 26 25
24 24 23 22 22 21 19 23 23 25 24 24 24 24 24 24
24 25 25 26 26 25 25 26 26 26 26 27 27 27 27 28
28 28 28 30 29 29 29 30 29 30 29 29 30 29 30 30
33 31 23 23 15 13 12 14 17 16 15 14 14 13 13 12
13 13 14 15 16 20 24 27 31 32 34 34 35 34 33 32
33 33 32 32 32 31 31 30 31 30 30 30 30 30 27 24
24 15 11 24 32 25 21 18 18 18 25 35 34 31 29 36
32 27 24 22 22 26 26 30 29 21 27 26 19 24 26 26
25 24 23 22 23 22 19 23 23 25 24 24 24 25 25 25
25 25 26 26 28 27 26 26 26 27 27 27 27 27 28 28
28 28 29 29 29 29 29 30 29 29 30 29 27 28 28 28
21 30 29 41 43 40 35 31 32 32 31 34 35 22 12 12
12 12 13 13 13 14 14 14 16 15 19 21 25 28 30 32
32 32 32 32 31 31 32 31 31 31 31 30 31 29 27 22
9 8 15 25 24 20 18 16 18 21 23 30 38 26 22 31
33 26 22 19 21 22 19 18 18 22 19 27 17 25 26 25
24 24 23 22 23 22 20 23 23 24 25 25 25 25 25 25
25 25 26 26 27 27 27 26 27 27 27 27 28 28 28 29
29 29 29 29 29 28 29 29 29 29 29 29 29 30 30 30
14 15 17 36 15 8 9 16 28 29 30 41 52 44 30 26
23 22 21 19 17 15 14 14 14 13 14 14 12 9 14 29
33 32 32 32 32 31 31 31 31 31 31 31 31 30 24 14
10 11 12 14 19 16 17 16 15 21 27 23 29 24 16 23
29 21 18 17 20 15 11 7 8 13 17 24 15 23 27 27
25 24 24 23 23 23 20 24 23 25 25 25 25 26 26 26
26 26 26 27 28 28 27 27 28 27 28 28 28 28 28 28
29 28 28 29 30 29 30 30 29 29 30 30 30 30 29 30
14 14 16 34 9 0 0 11 32 30 33 41 48 49 47 46
38 45 45 41 38 24 20 19 16 14 14 14 13 10 13 28
33 33 32 32 32 31 32 32 32 31 31 30 33 31 17 13
7 5 7 13 16 16 19 17 14 16 25 20 21 18 16 18
19 15 12 11 12 8 3 1 2 6 13 17 23 19 27 27
26 25 25 24 24 23 20 24 24 26 26 25 26 26 26 26
26 27 27 27 28 28 28 28 27 28 28 28 28 28 29 29
29 28 28 28 29 29 29 29 29 29 29 30 30 30 30 30
17 16 17 36 10 0 0 6 16 19 21 34 45 49 50 49
45 43 48 48 45 31 29 35 36 30 29 25 19 11 13 26
33 33 33 32 32 37 37 35 34 32 31 31 34 28 17 11
6 8 15 13 8 3 9 12 15 19 21 31 39 50 48 46
41 30 17 11 8 5 1 0 0 3 10 18 26 16 26 27
26 25 25 24 24 24 21 24 23 26 26 26 26 26 27 27
27 27 27 28 28 27 27 27 28 28 28 29 29 27 28 28
28 29 28 29 29 28 29 30 30 29 29 31 29 29 29 29
17 15 18 39 11 0 0 6 5 0 0 27 45 40 29 36
32 37 42 45 46 35 35 39 41 37 44 44 39 15 14 28
33 33 33 32 33 42 42 40 37 36 36 36 38 25 16 9
4 13 10 8 5 4 3 17 30 64 85 102 106 105 104 103
99 90 80 65 38 10 1 0 0 0 6 24 22 18 23 28
27 25 25 24 24 23 22 24 24 25 26 26 27 27 27 26
27 27 27 26 27 27 27 27 28 28 28 29 29 28 29 29
29 29 29 29 29 28 29 29 29 29 29 31 29 29 29 29
2 3 6 37 11 0 0 16 14 0 0 25 45 30 0 12
2 6 10 15 29 37 37 41 42 43 46 46 43 17 15 29
34 34 34 33 33 43 43 40 37 39 41 41 36 27 13 6
5 14 3 5 6 8 19 67 105 112 116 121 120 118 117 116
112 106 103 97 85 65 25 0 0 0 4 24 18 16 18 26
26 25 26 24 24 24 22 24 23 25 26 26 26 26 26 25
26 27 27 27 27 27 28 27 27 27 28 29 29 27 28 28
28 28 29 28 29 29 29 29 29 29 30 31 30 29 29 29
0 0 4 38 11 5 7 24 32 12 0 27 47 30 0 0
0 0 3 2 16 37 38 40 42 44 45 46 45 21 15 31
37 35 35 35 35 36 29 35 39 42 44 42 32 23 15 6
10 7 0 2 8 39 100 118 123 121 120 120 122 122 120 118
114 112 107 104 103 96 75 33 0 0 5 24 29 10 16 26
25 25 25 24 24 24 21 23 22 25 26 25 27 26 27 27
28 27 27 27 27 27 27 27 28 28 27 27 29 28 29 29
28 29 29 29 29 28 29 29 29 29 29 31 30 29 29 28
0 0 3 41 14 5 16 29 23 21 4 22 48 33 0 0
0 0 14 9 20 35 24 30 35 41 43 43 42 22 15 31
38 32 33 38 41 28 0 5 20 26 27 35 31 22 13 5
10 4 0 1 43 108 120 124 122 123 122 122 123 123 118 115
112 110 109 105 101 98 94 77 35 0 2 26 41 12 15 25
26 26 25 24 24 25 23 24 24 26 27 27 26 27 28 27
27 27 27 27 27 28 28 28 28 28 27 28 30 28 30 29
28 28 29 29 29 29 29 29 29 30 30 30 30 29 29 29
0 0 4 43 15 0 10 25 21 15 2 19 48 38 1 0
0 0 13 9 20 32 1 3 7 13 19 20 36 24 16 27
36 37 35 39 44 31 0 0 8 12 13 24 34 33 17 11
12 1 0 25 106 117 121 120 118 118 120 122 122 122 121 119
115 112 106 102 96 93 93 88 76 33 0 21 56 19 18 25
27 26 26 25 25 25 24 24 24 27 27 27 27 28 28 27
28 28 28 28 28 28 28 28 28 28 28 28 30 30 30 29
29 29 30 29 29 29 29 30 30 29 30 30 30 30 29 30
0 0 5 44 17 0 0 5 8 1 0 18 50 40 1 0
0 0 1 0 16 32 0 0 0 0 0 0 24 25 15 6
6 13 21 31 38 32 0 0 4 5 9 21 36 37 20 15
10 0 4 85 113 114 116 120 123 124 123 127 127 127 129 121
114 111 102 95 83 92 89 88 83 74 26 5 51 30 19 27
29 25 26 25 25 25 24 25 24 27 28 28 28 28 28 27
28 28 27 28 28 28 29 28 29 29 30 29 31 29 30 29
29 29 30 29 30 30 30 30 30 30 31 31 30 31 30 31
0 0 2 36 19 0 0 0 0 0 0 17 50 44 2 0
0 3 2 0 16 32 1 0 1 0 0 0 24 25 15 3
0 0 0 0 3 18 1 0 0 0 2 17 45 33 24 18
11 0 40 109 109 113 114 111 122 132 134 132 131 132 135 125
104 90 85 60 44 46 75 82 84 82 70 14 28 47 25 32
31 28 27 26 26 26 24 24 25 27 28 28 28 28 28 27
27 28 28 29 29 29 29 29 30 30 29 30 31 29 30 29
31 30 30 31 31 30 30 30 30 31 30 30 30 31 31 32
0 0 3 35 20 0 0 0 0 0 0 15 50 45 4 1
11 13 9 0 15 32 2 1 7 9 0 0 22 26 14 3
0 0 0 0 0 11 1 0 0 0 0 18 35 27 31 26
10 8 84 104 94 65 63 87 107 129 139 137 136 134 135 129
108 97 99 76 61 42 31 54 71 84 84 58 9 48 30 44
27 29 26 26 26 26 25 24 25 28 29 28 28 28 28 27
28 28 28 28 28 28 29 29 29 30 31 30 31 30 30 31
30 31 31 31 30 30 31 30 30 30 31 32 31 31 31 31
0 0 5 38 29 14 11 11 10 8 7 20 50 47 7 0
1 4 4 0 16 32 2 3 2 15 0 0 23 25 16 3
0 0 0 0 0 10 1 0 0 0 0 18 35 33 44 35
7 42 99 78 39 51 73 88 106 127 139 138 137 137 138 135
125 120 126 119 93 72 45 30 44 65 87 82 31 21 30 47
26 21 28 27 27 27 25 25 26 28 29 29 28 29 29 29
29 29 29 30 30 30 30 30 30 31 31 30 31 30 30 30
30 31 32 31 31 32 32 31 31 32 32 32 32 31 31 31
0 0 3 37 47 46 43 41 38 35 32 32 37 33 4 0
5 4 0 0 14 30 1 2 0 2 0 0 23 25 15 4
0 0 8 2 0 9 1 1 0 0 1 20 32 35 51 36
12 69 63 34 58 90 116 127 130 137 139 137 135 136 137 138
136 137 137 135 126 121 110 80 46 41 72 88 69 12 17 37
25 19 22 26 26 26 25 24 25 27 28 28 28 29 29 28
28 29 29 29 29 29 29 29 30 30 30 30 29 30 30 30
30 31 31 31 31 31 31 31 30 30 31 31 31 31 31 31
0 0 2 42 43 31 33 31 35 39 38 30 22 15 2 1
2 5 0 0 14 28 0 2 2 0 0 0 21 25 15 4
6 5 4 0 0 8 3 0 0 0 3 25 36 39 56 31
33 54 36 67 111 128 138 138 138 138 138 138 135 133 130 134
137 136 134 122 111 108 111 123 104 63 46 77 85 40 6 19
23 19 20 27 26 26 25 24 26 28 28 28 28 28 28 29
29 29 29 30 30 30 30 31 30 30 30 30 30 29 29 31
31 31 31 32 32 31 32 32 32 32 32 31 31 30 31 30
0 0 2 43 28 0 0 2 5 10 16 31 32 35 38 34
31 30 23 18 26 32 4 2 3 2 0 0 24 25 15 7
6 0 1 1 0 10 6 1 1 0 4 27 32 43 54 34
40 45 92 129 130 127 129 137 139 134 135 135 130 125 120 122
131 130 115 84 63 57 63 103 124 114 64 53 85 72 14 11
22 28 15 23 26 26 25 24 26 27 29 28 27 28 29 30
30 29 30 29 29 30 30 30 30 30 30 30 30 30 31 31
31 32 32 32 32 31 31 30 29 30 30 29 28 28 30 30
0 0 3 42 31 0 0 0 0 0 0 16 45 32 20 25
30 38 39 42 39 48 41 26 30 29 28 26 33 22 15 6
0 0 0 0 0 17 38 29 25 22 17 26 24 39 45 31
43 93 131 120 93 86 92 114 129 129 127 123 116 108 107 111
116 118 84 66 81 80 80 61 95 124 102 60 75 82 37 6
17 27 18 24 25 26 25 24 26 28 29 29 29 29 29 30
29 30 30 29 30 31 30 30 30 30 30 30 30 30 30 31
30 30 31 30 31 30 30 30 28 29 28 26 24 21 18 15
0 0 8 43 32 3 0 0 4 4 0 14 48 31 11 8
16 15 10 11 44 57 46 30 39 44 44 44 43 22 16 6
0 0 0 0 0 17 50 41 43 45 38 23 22 37 32 37
82 131 113 80 56 67 66 78 109 122 117 110 103 98 99 103
102 94 81 87 54 43 66 89 64 111 122 89 67 82 64 5
18 16 19 20 30 25 25 23 27 28 29 28 29 29 29 29
29 29 30 29 28 31 29 29 30 30 30 30 31 31 31 32
32 31 31 29 26 23 24 30 18 13 13 13 12 12 14 14
1 1 19 42 31 8 11 2 15 7 0 12 48 31 5 5
6 5 2 3 46 54 38 30 39 44 45 47 45 23 15 13
7 3 1 0 0 17 45 39 45 46 33 19 28 35 27 55
114 123 82 80 86 74 95 104 85 106 106 118 123 111 95 93
90 74 84 84 56 55 96 104 75 81 121 107 70 78 76 17
8 16 12 22 24 24 25 24 27 28 29 28 28 28 28 28
28 28 28 27 28 29 30 29 30 31 30 30 29 28 26 22
20 17 15 14 14 13 15 30 13 13 16 17 18 18 20 20
0 3 27 43 28 18 23 8 12 5 0 10 46 29 0 1
1 0 0 3 44 47 20 11 20 23 26 30 39 24 16 27
41 39 33 26 21 29 34 35 43 42 26 25 35 27 35 81
127 96 69 83 44 36 102 105 91 86 121 137 137 130 104 88
80 70 66 70 83 101 105 95 74 74 105 114 83 71 77 42
1 11 9 18 18 16 26 23 27 27 28 28 28 27 26 27
26 25 28 29 29 28 27 14 18 21 19 17 16 15 14 15
15 16 17 18 19 19 18 25 14 18 22 23 23 25 25 26
7 11 36 46 26 8 4 0 13 19 2 11 45 26 0 0
0 0 0 3 42 47 15 0 0 0 0 0 23 25 16 28
45 46 45 45 45 45 25 15 24 27 21 32 27 30 61 106
126 89 90 110 98 106 106 81 75 102 128 139 138 132 109 93
88 81 71 64 76 97 112 113 99 84 89 110 95 75 78 61
2 3 5 8 18 9 21 23 25 25 25 26 26 25 25 24
22 15 22 20 18 15 6 5 15 16 17 17 18 19 19 20
21 22 23 23 25 24 23 28 19 23 26 27 27 27 28 28
37 36 37 47 38 24 18 18 23 11 2 12 45 27 3 10
0 0 0 1 38 48 15 0 0 0 0 1 21 26 16 25
43 46 45 46 47 45 17 0 1 14 27 25 23 35 78 115
125 88 92 110 113 97 74 67 83 108 123 138 137 122 104 101
92 92 82 77 84 97 107 110 103 92 81 102 100 85 80 70
11 8 0 1 6 6 9 22 24 24 24 22 21 20 18 17
15 13 15 16 13 8 11 20 21 22 23 23 24 24 25 26
27 27 27 27 28 26 19 10 8 25 28 29 29 29 29 30
36 28 4 37 45 33 19 42 37 10 0 15 49 29 10 19
0 0 0 0 33 45 12 0 0 0 16 22 26 30 23 25
32 34 35 37 40 42 13 0 4 22 21 16 28 44 93 120
119 90 112 124 114 94 83 82 98 112 117 136 131 101 72 97
110 95 96 92 92 96 102 107 108 102 88 91 99 92 80 74
20 20 6 0 0 1 3 12 17 16 14 15 15 16 17 18
19 19 20 16 14 12 24 26 26 27 28 28 28 28 28 28
29 29 29 30 29 27 16 1 1 24 30 31 31 30 30 30
27 20 0 25 42 29 7 37 33 9 0 14 50 32 2 13
1 0 0 0 30 42 11 0 0 0 17 25 24 27 22 22
22 24 30 30 34 41 12 0 13 17 16 23 22 64 102 120
110 102 121 125 114 102 98 105 113 106 70 128 126 66 5 32
119 105 97 98 97 98 100 104 104 103 95 87 96 94 83 78
30 36 30 1 0 0 0 7 16 13 17 20 20 21 23 23
25 25 21 16 27 17 28 28 28 29 28 29 30 29 29 29
26 26 20 11 7 15 16 5 1 23 31 31 32 31 31 31
33 28 5 17 38 21 0 29 22 7 0 13 50 34 0 2
0 0 0 0 31 41 10 0 0 0 5 12 18 23 21 22
22 24 29 30 36 40 13 4 10 13 27 24 11 84 106 115
103 112 124 120 113 108 109 114 125 56 23 118 126 98 23 11
94 120 96 97 99 97 98 102 104 103 100 91 90 94 86 79
34 31 36 18 0 0 0 5 20 18 23 25 25 26 27 27
26 26 15 28 29 18 9 11 11 5 12 25 30 28 26 16
1 1 2 0 0 15 16 0 0 22 30 31 32 30 31 31
33 36 20 8 20 20 1 17 15 0 0 12 50 34 0 0
0 0 0 0 34 42 9 0 1 0 0 0 8 18 19 18
7 10 16 20 26 31 14 3 5 22 28 13 15 94 107 110
103 119 123 116 113 111 110 118 123 24 45 122 127 117 59 11
84 127 101 101 100 101 101 101 107 112 108 100 92 93 89 79
38 22 25 31 2 0 0 2 22 21 26 27 27 27 28 27
27 19 22 19 29 23 0 0 0 0 8 11 11 0 0 0
1 1 0 0 0 10 20 0 0 22 30 31 32 31 31 31
1 4 1 0 0 8 16 5 2 5 9 19 46 30 0 0
0 0 0 0 35 43 9 0 1 3 0 0 10 25 25 19
0 0 0 0 0 6 9 0 8 13 18 2 31 98 105 107
109 122 123 114 110 111 111 122 130 32 75 129 135 130 107 59
111 125 101 105 99 103 108 114 117 117 115 107 98 94 92 81
42 15 15 16 5 0 0 0 21 24 29 28 30 29 29 29
22 7 2 0 9 29 2 0 0 0 0 0 0 0 0 0
0 15 0 0 0 4 24 3 1 23 30 31 32 31 31 31
9 0 0 0 0 0 0 4 3 15 39 39 41 32 16 13
9 6 3 4 37 42 9 0 0 6 0 0 10 31 26 20
1 0 0 0 0 3 12 5 2 7 10 1 41 102 107 106
115 124 123 118 116 114 114 116 132 116 115 136 138 137 120 111
118 114 96 107 109 118 123 127 124 121 114 108 103 95 94 85
47 16 10 6 6 1 0 0 14 27 29 29 30 29 29 28
9 8 21 7 1 2 0 0 0 0 0 0 0 0 0 0
0 0 0 0 0 5 25 11 9 26 31 31 32 31 31 30
6 0 0 1 0 1 8 28 33 29 44 46 45 40 42 38
28 32 31 26 33 34 17 1 0 9 6 2 9 33 25 20
1 0 5 3 0 4 12 2 1 5 6 4 50 101 107 111
123 127 128 131 129 125 118 110 114 114 122 138 139 137 126 112
105 99 97 110 120 128 131 130 124 122 116 107 104 98 95 88
54 19 8 2 4 3 0 0 6 27 29 30 29 29 28 23
9 26 19 17 27 26 24 23 24 23 23 9 18 4 0 0
0 0 0 0 0 12 23 21 21 28 31 31 32 30 31 30
8 0 0 10 30 28 39 39 47 45 44 46 47 41 19 13
8 10 15 13 21 31 30 27 20 22 24 19 20 34 21 19
1 2 15 11 2 2 16 3 6 3 7 12 52 103 106 116
125 129 136 137 137 137 131 114 109 118 132 139 138 137 132 120
113 109 104 105 115 127 132 131 127 125 118 111 105 101 97 88
67 16 5 0 2 5 5 0 3 26 30 29 30 29 27 9
13 16 26 30 30 30 30 30 30 30 29 22 3 0 0 0
0 9 10 10 13 26 25 24 28 31 31 31 31 30 30 30
34 17 13 26 42 41 33 25 42 36 24 28 34 36 3 0
0 0 10 9 17 33 29 21 21 28 34 37 41 38 24 18
1 3 13 9 3 1 21 3 7 5 12 22 54 103 110 119
126 135 138 138 139 136 124 115 118 129 137 137 138 137 136 130
120 113 108 105 109 119 127 129 127 127 119 112 108 103 97 89
76 21 6 0 1 2 10 0 5 26 29 29 29 29 14 17
29 29 30 30 30 30 30 30 30 30 28 3 0 1 0 0
0 28 31 30 29 28 27 27 31 31 31 30 31 31 31 31
45 45 43 44 45 40 20 1 14 8 0 0 3 32 3 0
1 3 6 10 24 34 26 3 0 4 9 20 41 37 23 19
4 0 3 1 0 1 20 2 12 14 10 27 63 105 114 120
130 136 135 137 138 129 117 119 127 133 137 136 133 132 133 131
125 119 113 110 111 115 121 122 123 127 123 113 108 105 98 90
81 29 5 0 0 0 5 2 3 27 30 30 29 21 9 29
30 30 30 31 30 30 30 30 30 30 28 2 0 3 9 0
0 27 29 29 29 28 28 29 30 29 30 30 30 31 31 31
46 47 47 44 39 30 13 0 0 1 0 0 2 33 5 1
19 28 12 4 22 34 25 1 1 16 19 22 40 33 22 22
17 2 2 0 0 1 18 6 20 16 3 29 72 106 115 120
132 135 138 138 132 120 118 124 132 131 128 126 123 120 122 127
133 125 120 116 115 119 122 122 122 126 124 116 111 108 102 91
81 35 5 0 0 0 1 2 1 25 29 29 25 6 25 30
29 29 30 30 31 31 30 30 31 30 29 3 0 0 0 0
0 24 30 30 30 29 29 30 30 30 30 30 31 31 31 30
47 47 47 39 13 13 7 4 2 11 4 0 2 33 5 8
28 27 2 0 22 37 25 0 0 10 26 30 39 28 21 23
14 0 0 0 0 0 19 14 18 10 4 22 77 110 117 123
131 136 136 135 128 120 123 131 132 124 122 117 114 115 117 121
121 123 121 120 120 123 121 125 116 121 124 118 112 110 104 95
80 41 2 0 0 0 1 0 1 25 30 29 14 20 30 30
30 30 30 30 31 30 30 30 29 29 28 2 0 0 0 0
0 21 31 30 30 30 30 32 31 31 31 31 31 31 31 31
23 27 29 33 35 37 32 33 30 32 10 0 1 32 7 1
26 32 2 0 22 39 27 0 0 0 6 26 41 26 22 24
14 4 3 2 1 1 15 16 10 6 3 18 86 111 118 124
133 136 134 133 130 118 128 124 120 118 112 101 97 98 97 103
107 108 108 116 122 128 122 127 122 118 122 117 112 111 107 96
81 47 5 1 0 0 2 0 3 25 29 28 8 28 29 29
29 30 29 31 31 31 31 27 21 15 15 1 0 0 0 0
0 19 31 30 31 32 31 31 32 31 31 31 31 30 30 30
0 0 0 3 24 26 7 3 5 6 1 0 1 32 5 0
11 12 2 1 24 40 28 0 0 0 0 22 43 28 22 23
31 35 33 30 31 29 21 14 3 4 4 14 88 111 116 124
134 132 134 132 132 126 122 111 102 93 103 108 108 107 102 90
82 93 98 101 112 127 135 131 126 117 121 117 115 113 109 98
81 49 7 3 0 0 3 0 6 27 31 28 9 30 31 30
31 31 31 31 32 32 31 9 6 1 0 0 0 0 0 0
0 17 30 30 30 31 31 31 31 31 31 30 31 31 31 30
0 0 0 2 28 31 6 0 0 0 0 0 1 32 5 0
0 0 1 0 23 41 27 0 0 0 0 20 44 28 22 24
41 51 50 50 51 51 32 9 1 1 0 11 89 110 116 125
133 132 132 138 137 124 108 99 98 119 129 126 125 126 123 114
103 86 79 85 93 114 135 137 130 119 119 115 114 111 106 99
82 56 17 16 9 6 11 14 16 26 30 27 10 31 31 31
31 32 32 32 32 32 31 26 35 15 22 0 0 0 0 0
0 10 27 30 31 31 32 32 31 31 32 32 30 31 31 31
0 0 0 2 33 37 12 0 0 0 0 0 1 32 6 0
0 0 0 0 22 41 25 0 0 0 0 20 45 29 22 24
37 46 46 46 48 47 36 4 0 0 0 8 86 109 119 123
132 131 136 139 136 113 91 93 121 136 140 138 138 138 139 136
123 109 95 72 69 88 129 138 129 121 118 113 112 111 109 99
81 63 38 35 39 58 19 1 9 28 30 29 10 31 31 31
31 32 32 31 32 31 31 41 45 15 6 0 0 0 0 0
0 2 5 14 16 23 32 32 31 31 31 31 31 31 31 31
5 8 9 13 38 44 19 0 0 0 0 0 0 31 6 0
0 0 0 0 21 43 26 0 0 0 0 17 41 27 22 24
25 28 28 28 28 29 23 2 0 0 0 5 74 109 119 122
129 130 139 141 128 94 82 123 138 141 140 140 139 140 139 139
137 128 118 109 103 109 134 138 133 123 119 115 111 107 110 99
83 70 63 54 57 56 72 9 10 29 31 29 11 30 31 31
31 32 31 28 26 23 20 7 4 5 0 0 0 0 0 0
0 1 3 0 4 18 33 33 33 32 32 32 32 32 31 31
27 34 33 36 43 35 10 0 0 0 0 0 0 31 5 0
0 0 0 0 21 43 28 0 0 0 0 16 43 29 22 24
30 34 33 32 31 31 22 1 0 0 0 11 65 108 119 124
127 133 140 140 128 95 119 135 140 140 140 140 140 140 140 139
138 133 124 115 114 118 129 137 135 126 122 115 113 111 106 99
83 74 81 71 76 81 64 38 14 29 31 31 15 27 32 31
33 32 23 7 5 7 6 2 0 0 0 0 0 0 0 0
0 1 5 1 3 18 33 33 33 32 32 32 32 31 31 31
35 36 37 43 44 20 0 0 0 0 0 0 0 30 17 11
12 15 20 24 34 41 26 0 0 0 0 18 46 30 20 23
31 36 37 37 37 37 30 3 3 3 12 29 61 105 118 122
126 133 137 139 132 127 129 138 140 140 140 140 140 139 139 137
137 134 129 120 119 116 119 132 134 127 123 116 111 109 106 100
84 77 89 87 93 103 73 64 17 30 31 30 19 22 30 28
26 23 13 2 2 3 2 1 5 3 0 0 0 0 0 0
0 0 5 1 2 15 32 33 33 34 32 32 31 31 30 31
10 13 19 26 43 32 23 22 21 19 17 17 20 36 37 36
38 39 42 42 40 32 24 17 14 12 9 22 42 29 22 26
31 35 36 36 37 38 31 4 3 29 79 66 71 103 117 123
124 132 137 136 132 130 132 139 140 139 139 135 133 132 130 135
135 132 128 122 119 120 124 129 127 124 118 114 110 108 101 99
84 77 92 87 93 102 97 75 15 27 25 21 13 6 8 5
4 3 4 4 5 5 6 5 5 3 7 6 0 0 0 0
0 0 5 2 2 11 32 33 31 31 31 31 30 30 30 30
0 0 0 6 41 43 43 43 42 40 39 40 42 41 38 34
38 38 39 39 38 37 37 36 35 35 34 34 36 34 32 33
33 34 35 35 35 35 31 6 1 69 61 85 78 100 115 122
122 129 135 131 130 129 133 138 139 137 133 135 134 129 127 126
126 127 125 120 118 120 125 126 123 121 117 113 110 107 104 99
83 75 96 100 106 96 100 80 11 9 4 3 4 5 6 7
9 8 8 8 8 8 8 5 1 1 5 10 0 0 0 0
0 0 3 5 8 11 28 30 31 31 31 31 31 30 30 31
0 0 0 6 41 46 46 45 46 44 45 46 46 32 23 25
34 35 35 35 35 35 34 34 35 35 35 35 34 34 34 35
35 34 34 34 34 34 32 7 10 65 79 92 90 99 114 119
120 122 128 127 128 127 133 136 134 134 137 139 138 135 131 128
122 120 119 117 116 116 119 122 120 117 116 110 108 106 106 101
88 75 100 80 115 101 99 82 19 9 8 7 8 8 8 8
8 6 5 4 3 2 8 6 2 3 7 4 0 0 0 2
0 0 2 9 9 12 27 32 32 31 31 30 30 31 30 30
0 0 0 6 41 43 41 38 38 37 38 42 36 18 17 22
33 35 34 34 34 34 34 34 34 33 33 33 33 32 32 32
32 32 31 32 32 31 31 7 14 76 112 110 104 97 109 116
119 121 122 117 120 123 129 132 131 136 139 139 139 138 136 131
122 118 116 115 114 112 115 115 118 116 114 109 107 109 106 100
88 78 111 76 97 107 96 79 17 9 8 4 2 1 0 0
0 0 0 0 0 0 9 8 5 3 4 0 0 0 0 0
0 0 5 5 4 9 28 32 32 32 32 31 31 31 31 30
0 0 0 6 40 20 8 10 8 7 7 13 10 15 18 21
32 34 28 19 17 16 15 14 13 12 11 11 11 10 10 10
9 10 10 9 10 15 26 9 14 89 118 112 110 99 108 114
116 119 118 114 116 122 126 128 132 139 140 139 139 139 138 134
130 121 116 111 110 111 112 111 113 113 112 109 108 107 106 97
89 88 118 106 91 103 92 79 15 9 7 0 0 0 0 0
0 0 0 0 0 2 9 8 8 6 6 7 6 8 9 8
10 13 16 17 15 15 23 21 22 24 31 30 31 31 29 30
0 0 0 6 41 14 0 0 0 0 0 5 3 15 16 21
31 33 22 1 0 0 0 0 0 0 0 0 0 0 0 0
0 0 0 0 0 8 31 16 16 97 117 110 118 102 112 114
115 117 115 113 112 118 125 130 137 139 140 140 140 140 140 138
136 123 117 111 108 106 111 107 109 109 108 106 107 106 103 94
84 96 115 118 101 85 87 79 11 9 5 0 0 0 0 0
0 0 0 0 0 4 9 8 7 25 18 18 19 24 23 20
25 22 20 20 14 12 43 17 12 18 31 30 30 30 29 28
0 0 0 6 41 16 0 0 0 0 1 10 11 15 17 20
30 33 26 4 0 0 0 0 0 0 0 0 0 0 0 0
0 0 0 0 0 7 32 28 26 91 112 115 123 105 110 113
114 115 113 112 110 117 124 133 139 140 140 139 139 139 139 139
138 132 122 112 106 105 106 105 104 104 105 106 105 103 101 93
81 102 111 108 107 103 91 71 4 8 2 0 0 0 0 0
0 0 0 0 0 7 9 8 7 22 15 18 22 28 49 46
62 63 66 28 14 33 107 49 10 15 31 30 29 14 5 4
0 0 0 4 38 16 0 0 0 6 12 13 12 15 16 19
29 33 28 7 0 0 0 0 0 0 0 0 0 0 0 0
0 0 0 0 0 5 31 32 54 83 110 115 125 108 108 109
111 112 109 108 109 115 120 136 140 139 136 139 139 139 138 138
134 133 123 115 107 101 100 99 100 102 102 104 102 100 97 90
79 104 113 112 106 96 93 37 5 9 1 0 0 0 0 0
0 0 0 0 0 9 8 9 7 16 14 20 24 31 82 68
88 86 87 32 15 95 118 105 25 14 30 30 26 0 0 0
0 0 0 3 37 16 0 0 4 11 11 11 10 14 16 19
27 33 29 10 0 0 0 0 0 0 0 0 0 0 0 0
0 0 0 0 0 3 31 33 58 75 100 118 122 112 106 109
108 108 107 106 106 112 121 137 138 134 129 135 132 127 128 127
123 122 111 109 102 96 95 94 91 97 100 100 99 97 94 86
72 78 99 100 86 80 66 4 9 8 0 0 0 0 0 0
0 0 0 0 1 9 9 11 7 11 22 26 30 27 46 39
40 38 34 27 24 51 37 31 23 15 29 31 27 1 0 0
0 0 0 3 37 17 0 0 4 11 12 12 11 15 16 18
26 32 28 13 0 0 0 0 0 0 0 0 0 0 0 0
0 0 0 0 0 1 29 32 48 88 93 119 120 109 102 107
107 106 103 102 102 108 118 125 125 127 122 124 119 117 118 112
109 107 104 100 90 83 85 89 87 94 94 92 92 94 89 81
50 3 13 11 6 17 8 8 9 6 0 0 0 0 0 0
0 0 0 0 3 10 10 13 4 1 25 30 33 23 24 24
20 17 19 21 22 22 22 21 21 14 28 30 30 10 0 0
0 0 0 4 36 17 0 0 3 10 12 12 10 14 15 18
25 32 29 15 0 0 0 0 0 0 0 0 0 0 0 0
0 0 0 0 0 1 27 33 31 74 102 119 124 108 98 103
103 102 100 97 96 101 109 115 114 112 106 104 98 93 94 97
94 92 90 82 74 72 76 79 82 87 88 87 84 86 83 76
47 7 0 0 1 2 9 12 9 3 0 0 0 0 0 0
0 0 0 0 6 10 9 12 1 2 18 24 33 22 24 19
18 15 14 19 23 23 22 21 21 14 28 30 28 27 2 0
15 13 14 18 38 20 0 0 5 11 12 12 11 14 15 18
24 32 29 18 0 0 0 0 0 0 0 0 0 0 0 0
0 0 0 0 0 0 22 32 27 23 94 114 110 83 81 100
98 98 91 89 85 90 101 105 100 95 89 77 68 63 65 68
64 64 64 60 60 61 62 68 70 72 76 77 77 82 79 66
72 20 0 0 6 6 14 12 9 1 0 0 0 0 0 0
0 0 0 0 8 9 9 8 0 0 0 12 33 23 23 14
16 15 16 21 25 24 23 21 21 7 26 24 4 5 2 0
39 38 38 37 35 24 0 0 5 11 11 12 10 13 14 17
22 31 29 18 0 0 0 0 0 0 0 0 0 0 0 0
0 0 0 0 0 0 20 33 28 10 51 64 41 9 47 95
91 87 82 79 74 77 86 86 82 76 63 52 45 36 34 35
33 37 38 43 46 52 54 55 58 61 62 64 70 73 68 72
75 10 0 0 10 11 16 12 8 0 0 0 0 0 0 0
0 0 0 1 9 8 10 5 0 0 0 16 31 23 21 13
18 15 15 22 23 24 22 21 21 8 14 3 0 0 5 0
24 17 13 7 8 24 0 0 5 11 11 12 10 13 15 17
22 30 30 20 1 0 0 0 0 0 0 0 0 0 0 0
0 0 0 0 0 0 17 32 28 10 1 15 12 1 17 86
86 79 70 66 64 61 60 57 55 50 45 43 45 47 50 54
52 54 54 53 52 49 47 45 42 42 42 50 58 61 59 87
63 3 0 0 11 13 14 11 7 0 0 0 0 0 0 0
0 0 0 3 10 9 11 5 0 8 9 26 30 24 21 11
16 15 14 23 24 24 23 21 21 11 0 0 0 3 0 0
4 0 0 0 1 24 3 0 6 10 11 12 10 13 15 16
21 30 29 20 1 0 0 0 0 0 0 0 0 0 0 0
0 0 0 0 0 0 14 32 28 12 0 16 12 2 0 58
79 74 59 51 46 49 49 45 44 48 52 52 54 62 71 72
70 69 67 58 59 58 57 50 49 45 40 43 47 50 72 90
55 0 0 0 6 12 10 9 5 0 0 0 0 0 0 0
0 0 0 5 9 9 11 2 0 11 5 29 29 24 18 5
12 16 14 23 23 23 23 22 21 11 0 0 0 7 0 0
0 0 0 0 2 30 31 21 16 9 10 10 9 12 15 16
20 30 30 22 2 0 0 0 0 0 0 0 0 0 0 0
0 0 0 0 0 0 11 31 27 13 0 16 12 2 0 17
71 66 52 40 35 43 52 53 52 51 58 62 70 75 80 82
81 81 74 72 68 68 69 69 70 68 58 48 43 65 84 90
52 0 0 0 4 7 5 9 4 0 0 0 0 0 0 0
0 0 0 6 10 10 11 0 1 8 5 32 26 17 5 0
10 13 14 21 22 23 23 23 23 12 0 0 5 8 1 1
0 0 0 0 6 33 26 10 8 8 10 10 9 11 14 15
19 29 29 22 3 0 0 0 0 0 0 0 0 0 0 0
0 0 0 0 0 0 10 31 27 15 0 17 10 8 2 5
50 60 53 46 50 58 65 62 57 62 70 77 84 89 89 85
87 88 83 79 74 76 76 77 83 78 73 64 65 81 88 90
52 0 0 0 0 7 4 8 2 0 0 0 0 0 0 0
0 0 0 9 10 11 8 0 4 11 13 33 25 14 4 0
10 12 14 21 22 22 21 22 23 14 4 8 9 9 7 6
0 0 0 0 5 31 13 0 0 8 9 9 8 10 14 15
18 28 28 22 3 0 0 0 0 0 0 0 0 0 0 0
0 0 0 0 0 0 9 31 27 18 0 13 10 8 7 8
57 63 52 59 69 78 76 70 64 71 82 90 94 93 92 90
91 94 90 84 79 79 80 84 86 84 79 73 79 84 90 90
53 0 0 0 2 5 8 7 0 0 0 0 0 0 0 0
0 0 1 10 9 11 6 0 42 46 17 33 25 14 3 1
11 12 15 22 23 23 22 24 24 14 2 3 4 3 1 0
0 0 0 0 4 30 14 0 0 7 9 10 9 10 13 15
17 27 29 23 4 0 0 0 0 0 0 0 0 0 0 0
0 0 0 0 0 0 7 30 26 19 4 13 6 7 10 6
52 91 68 64 76 85 82 79 72 71 83 90 93 97 91 90
95 96 92 88 83 82 87 90 87 86 80 82 88 88 92 90
52 0 0 0 1 5 9 5 0 0 0 0 0 0 0 0
0 0 3 9 9 10 3 1 52 39 18 32 24 15 8 11
16 12 17 23 23 23 22 23 24 17 0 0 0 0 0 0
2 2 5 10 15 30 15 0 0 6 8 9 7 9 12 13
16 26 29 23 4 0 0 0 0 0 0 0 0 0 0 0
0 0 0 0 0 0 6 29 26 27 34 26 8 4 6 4
48 95 90 70 79 89 88 84 82 82 88 94 95 96 94 94
99 100 96 92 84 84 89 86 86 86 86 89 92 90 94 91
47 0 0 0 3 5 10 3 0 0 0 0 0 0 0 0
0 0 5 10 10 11 1 0 13 12 25 30 25 18 15 9
15 14 20 26 24 22 22 23 22 16 0 0 0 0 0 0
16 18 23 29 35 37 23 3 0 6 8 8 7 7 11 13
15 25 28 22 4 0 0 0 0 0 0 0 0 0 0 0
0 0 0 0 0 0 5 28 26 31 48 39 11 4 3 0
43 97 100 84 84 90 93 89 86 90 95 98 100 102 102 104
107 107 103 96 88 85 88 87 87 86 89 93 95 90 95 91
48 0 0 0 2 9 9 2 0 0 0 1 0 0 0 1
1 1 9 10 10 10 0 0 3 7 32 28 25 22 14 10
16 16 20 25 24 22 22 22 22 16 0 0 0 0 0 0
26 28 29 34 39 38 33 27 23 19 9 8 7 6 10 12
15 24 27 22 4 0 0 0 0 0 0 0 0 0 0 0
0 0 0 0 0 0 5 28 26 28 41 37 17 4 0 0
38 100 104 95 87 92 95 97 93 96 101 105 105 108 109 109
110 110 106 99 90 91 90 87 88 89 92 98 96 92 97 91
48 0 0 0 2 8 10 8 8 8 8 8 8 8 8 9
9 8 10 10 11 7 0 0 3 10 35 27 26 20 14 10
15 15 21 24 23 21 22 22 21 16 0 0 0 0 0 0
21 20 19 18 17 16 16 10 8 10 7 7 7 6 10 11
14 24 27 22 5 0 0 0 0 0 0 0 0 0 0 0
0 0 0 0 0 0 4 27 25 22 18 18 15 4 0 0
28 102 107 103 91 95 96 99 101 104 106 110 111 113 115 114
112 115 112 102 94 92 91 89 91 93 98 97 96 96 98 93
56 0 0 0 3 9 9 9 9 9 9 10 9 9 9 9
9 10 10 9 13 6 0 1 3 14 34 26 25 20 13 11
16 16 23 24 24 23 23 22 22 17 0 0 0 0 0 0
8 8 8 8 10 12 15 1 0 2 5 5 5 4 9 11
14 23 27 22 5 0 0 0 0 0 0 0 0 0 0 0
0 0 0 0 0 0 4 27 25 21 17 17 15 5 0 0
25 104 110 108 102 98 98 100 103 109 115 119 120 120 124 122
121 115 112 102 94 92 92 91 94 97 100 101 98 98 97 91
60 0 0 0 4 7 10 10 10 11 20 17 10 10 11 10
12 14 11 5 11 3 0 9 20 25 33 25 25 19 12 9
14 17 23 24 23 22 22 22 23 18 0 0 0 0 0 0
3 2 1 2 8 10 16 1 0 1 4 5 6 5 9 10
13 22 26 22 5 0 0 0 0 0 0 0 0 0 0 0
0 0 0 0 0 0 5 28 25 21 22 21 20 8 0 0
23 103 110 110 106 103 99 100 104 111 118 121 121 122 123 127
125 120 113 104 96 93 88 91 95 97 101 99 89 95 99 92
62 0 0 0 7 10 23 27 34 52 85 81 58 55 37 28
32 29 29 25 7 0 6 34 18 29 32 26 24 14 7 10
11 18 22 23 24 23 23 23 22 18 1 0 0 0 0 0
0 2 3 2 6 15 18 2 0 0 0 3 6 5 8 10
12 21 26 21 6 0 0 0 0 0 0 0 0 1 2 3
4 4 6 7 8 10 16 28 24 21 23 23 23 17 3 0
18 102 110 110 106 100 103 101 106 113 119 123 125 121 121 124
124 121 114 106 98 96 94 94 93 91 102 102 96 101 100 93
65 0 0 2 15 53 91 99 116 128 133 134 123 109 67 15
8 8 9 13 27 12 49 132 51 30 29 26 23 13 13 11
10 19 22 22 24 24 23 23 21 18 1 0 0 0 0 0
15 18 19 19 17 11 13 1 0 0 2 0 6 5 8 9
12 21 26 24 14 7 8 10 12 13 14 16 18 19 20 20
22 21 21 22 22 22 22 21 22 21 23 22 21 21 7 0
12 100 109 110 108 103 103 103 107 112 117 122 124 123 122 123
124 121 117 107 99 95 95 96 98 100 101 100 101 100 98 92
66 0 0 2 27 54 95 100 111 119 125 134 124 109 66 8
7 6 6 10 18 19 79 137 42 33 27 24 21 9 8 1
4 16 18 16 20 22 23 23 22 20 1 0 0 0 0 0
18 20 22 22 22 18 2 0 0 1 4 0 4 4 8 9
11 20 26 25 25 23 22 24 26 25 25 24 24 24 23 23
23 23 22 22 22 22 22 22 23 23 24 24 23 21 5 0
21 97 110 112 109 105 105 106 107 113 116 121 125 124 126 123
127 122 118 107 98 97 95 97 97 101 103 103 103 101 99 91
67 1 0 4 40 49 76 99 113 125 129 127 119 102 54 5
4 5 3 24 5 0 40 48 16 38 24 7 4 0 0 1
0 1 5 23 25 21 22 18 21 20 1 0 0 0 0 0
21 18 20 21 25 20 9 2 0 0 1 0 0 0 6 9
11 21 26 26 26 24 19 24 25 24 24 23 23 24 27 24
16 16 20 21 14 16 20 20 20 22 25 24 24 21 15 12
25 93 110 115 112 110 110 108 108 113 117 120 122 125 128 127
128 125 120 108 101 97 96 99 99 103 103 104 104 102 98 89
67 11 5 11 34 34 49 74 34 82 95 88 73 49 9 4
6 4 15 39 30 31 42 50 42 44 23 2 0 0 0 0
0 0 0 19 14 16 22 16 17 19 3 0 0 0 0 0
19 16 14 24 29 17 3 0 0 0 0 0 0 0 5 8
10 19 25 25 25 24 21 23 23 22 21 20 24 42 48 16
0 0 1 3 0 1 11 16 16 14 12 10 13 20 23 52
12 90 110 115 115 112 111 111 111 114 118 123 123 127 130 133
131 126 119 109 102 100 97 99 101 103 104 104 104 101 96 89
67 11 19 10 31 52 57 51 23 3 4 4 7 6 3 7
12 57 74 86 93 92 86 92 91 69 28 30 0 0 0 0
0 0 0 8 12 21 21 14 10 5 10 7 0 0 0 0
12 12 10 30 20 8 0 0 0 0 0 0 0 0 0 1
3 7 11 10 9 9 7 6 6 7 8 12 42 60 26 0
0 0 0 0 0 0 0 0 0 0 0 0 0 5 32 59
6 85 109 115 116 116 114 113 115 118 120 124 129 133 135 137
134 129 120 111 105 103 102 101 102 105 106 105 102 99 95 87
67 16 38 29 4 33 53 61 67 41 15 9 12 11 12 24
59 100 91 96 97 87 78 90 92 69 15 21 0 0 0 0
0 0 0 0 17 25 14 10 14 5 1 2 0 0 0 0
7 3 21 34 13 10 3 0 0 0 0 0 0 0 0 0
0 0 0 0 0 0 0 0 0 1 12 26 58 41 4 0
0 0 0 0 0 0 0 0 0 0 0 0 0 0 36 31
1 83 107 114 117 118 117 115 115 120 124 130 133 134 138 138
137 135 125 111 107 106 104 101 103 106 107 106 103 97 93 87
70 13 16 30 2 3 3 3 10 32 61 57 35 43 79 71
53 59 70 81 83 81 81 83 87 64 6 4 3 2 4 2
2 6 5 4 8 7 0 0 0 0 0 0 0 0 0 0
6 1 55 15 0 8 9 1 0 0 0 0 0 0 0 0
0 0 0 0 0 0 2 3 1 1 14 43 49 15 0 0
0 0 0 0 0 0 0 0 0 0 0 0 0 4 60 24
0 81 108 113 118 120 118 117 118 119 123 132 138 139 140 139
138 135 128 116 108 105 102 100 101 106 107 105 100 98 92 85
68 7 8 27 18 23 29 39 35 20 22 46 65 64 55 59
77 98 102 90 64 57 55 47 47 40 28 26 25 18 12 5
0 1 2 1 0 0 0 0 0 0 0 0 0 0 0 0
17 6 38 0 0 2 12 15 0 0 0 0 0 0 0 0
1 0 0 0 0 0 2 7 6 2 15 53 31 0 1 9
4 0 0 0 0 0 0 0 0 0 0 0 2 25 63 25
0 81 107 113 117 123 120 116 118 118 120 127 133 137 140 139
140 137 126 114 106 102 99 100 101 105 106 104 101 97 93 84
66 8 7 25 79 128 138 139 138 113 75 63 65 69 84 121
140 139 138 139 116 76 51 34 30 22 15 11 13 9 7 3
0 0 1 0 0 0 0 0 0 0 0 0 0 0 0 0
10 7 16 0 0 0 11 6 0 0 0 0 0 0 0 0
1 0 0 0 0 2 6 11 11 2 22 54 20 12 24 30
16 0 0 2 0 0 0 0 0 0 0 0 3 28 69 34
0 83 105 112 118 120 123 118 115 116 119 120 125 131 138 139
139 131 117 105 101 98 97 97 100 103 106 105 100 96 92 84
66 11 6 22 59 106 139 140 119 73 60 47 47 49 71 111
141 139 138 138 123 84 51 38 28 21 17 13 14 9 8 3
0 0 0 0 0 0 0 0 0 0 0 0 0 0 0 0
0 7 9 0 0 0 0 0 0 0 0 3 1 6 6 5
5 5 7 10 15 18 15 12 9 0 31 42 6 19 30 32
25 2 8 23 12 2 0 2 3 0 0 0 0 31 96 67
2 85 105 111 117 121 123 120 117 113 115 118 119 122 133 137
136 121 107 99 100 95 93 96 101 103 105 103 99 95 90 83
66 14 16 50 46 99 138 140 118 71 59 49 47 49 75 113
140 137 136 139 127 84 51 39 28 22 17 14 14 10 10 5
1 0 2 0 0 0 0 0 0 0 0 0 0 0 0 0
0 6 8 1 3 0 0 0 0 0 0 0 1 4 3 3
4 5 6 11 20 20 11 5 2 1 40 40 1 16 33 32
21 4 26 34 25 10 0 3 0 0 0 5 31 47 84 42
5 82 106 112 116 120 122 122 117 116 118 115 117 116 122 132
125 109 99 96 94 92 93 98 101 104 104 101 97 95 88 80
64 12 17 40 34 61 123 141 119 73 58 44 41 52 69 107
140 135 132 139 125 80 52 36 28 22 17 14 13 11 9 5
1 0 2 0 0 0 0 0 0 0 0 0 0 0 0 0
0 8 11 5 3 0 0 0 0 0 0 0 0 0 0 0
0 0 3 10 19 18 3 0 0 2 43 40 1 16 15 12
23 21 37 35 26 14 0 4 0 0 9 21 42 44 79 44
13 68 104 111 116 118 122 122 117 115 118 120 120 117 113 113
107 98 97 99 99 95 92 97 103 105 104 100 96 91 85 77
64 7 19 30 31 32 30 67 81 69 56 41 43 54 70 106
140 136 132 139 127 83 55 38 29 22 18 14 13 10 9 6
1 0 1 0 0 0 0 0 0 0 0 0 0 0 0 0
0 7 10 5 3 0 0 0 0 0 0 0 0 0 0 0
0 1 2 9 19 15 2 0 0 3 47 42 4 12 3 5
26 33 43 28 19 21 1 4 18 25 31 24 35 45 71 46
26 49 105 111 116 119 120 122 120 116 117 120 122 123 118 112
107 103 104 102 96 91 93 101 106 108 104 101 95 89 84 75
59 3 27 26 34 35 26 29 24 25 47 41 43 51 69 107
141 136 132 139 128 86 57 39 28 21 20 13 14 10 10 8
1 1 1 0 0 0 0 0 0 0 0 0 0 0 0 0
1 18 10 5 4 0 0 0 0 0 0 0 0 1 0 1
3 3 3 10 19 13 6 5 0 3 46 54 17 15 1 9
30 44 40 9 7 24 24 43 48 33 56 45 30 35 56 62
33 27 102 109 118 118 119 122 122 119 116 120 121 120 118 114
109 105 104 102 96 91 95 105 109 109 103 99 92 86 82 75
45 0 32 24 30 22 18 26 43 33 40 22 32 47 69 104
139 136 131 140 128 84 58 40 23 19 16 12 13 11 10 7
1 3 1 0 0 0 0 0 0 0 0 0 0 0 0 0
4 6 0 1 3 1 0 0 0 0 0 0 1 3 0 2
4 3 9 19 25 22 16 16 2 1 38 49 30 13 0 9
33 41 23 2 30 66 55 42 52 59 39 32 31 33 50 77
43 23 82 110 114 117 119 121 124 120 117 119 122 123 121 118
115 110 109 105 96 92 99 110 112 107 102 96 91 86 84 74
25 15 47 21 32 21 22 18 28 77 32 15 17 23 46 84
137 137 132 139 130 87 58 38 24 17 13 10 12 12 11 9
1 3 3 0 0 0 0 0 0 0 0 0 0 0 0 0
0 0 0 0 1 1 0 0 0 0 0 0 5 8 0 1
2 3 21 31 25 22 16 15 2 0 35 47 41 10 0 12
29 19 7 34 46 38 43 50 96 49 28 28 31 41 41 114
71 57 42 108 112 116 119 122 124 123 120 120 124 125 124 122
119 115 114 108 99 98 106 112 113 108 102 95 88 82 79 63
6 48 59 29 40 18 40 20 26 46 45 23 18 18 18 28
53 76 97 138 131 86 54 34 24 19 12 7 10 11 11 10
2 4 1 0 0 0 0 0 0 0 0 0 0 0 0 0
6 7 10 8 1 1 0 0 0 0 0 0 3 9 0 2
1 0 12 26 29 27 22 20 5 0 23 32 26 4 0 1
13 29 60 47 39 37 59 64 43 33 24 25 41 59 51 117
57 47 23 90 111 114 119 121 123 123 121 121 124 128 127 126
122 118 115 109 100 101 108 112 110 105 100 93 88 81 76 37
7 38 33 23 30 21 34 39 36 29 17 28 45 35 20 33
39 31 28 37 53 57 53 34 30 22 11 7 10 11 12 10
2 4 3 0 0 0 0 0 0 0 0 0 0 0 0 0
15 15 15 15 7 0 0 0 0 0 0 0 2 14 15 9
3 0 1 8 16 14 8 4 0 0 1 0 0 2 18 43
48 40 66 60 48 74 64 34 48 31 19 22 67 57 60 76
53 42 31 44 109 115 119 121 123 123 120 121 126 130 129 125
122 119 116 109 98 99 108 111 109 104 95 91 85 79 63 7
17 34 32 22 40 39 27 45 51 22 17 18 19 34 61 45
27 21 22 29 52 35 52 37 31 22 12 9 11 12 12 10
2 4 3 0 0 0 0 0 0 0 0 0 0 0 0 0
7 8 12 12 5 0 0 0 0 0 0 0 0 5 20 6
0 0 0 0 0 0 0 0 0 0 0 5 35 46 48 57
45 45 60 90 85 44 33 47 64 59 44 42 76 32 47 48
72 37 39 27 77 114 118 120 123 123 118 119 120 123 125 125
122 119 115 106 98 104 112 112 110 100 97 89 82 74 29 14
37 32 27 21 36 36 59 50 72 33 22 22 18 18 46 69
41 24 24 23 27 70 78 40 27 21 15 10 12 12 11 9
3 4 2 0 0 0 0 0 0 0 0 0 0 0 0 0
0 0 0 0 0 8 23 0 1 0 0 0 0 0 5 0
0 0 0 0 0 0 0 0 0 4 22 42 77 63 44 49
53 71 78 82 103 60 67 73 95 63 48 39 51 36 34 40
84 36 43 36 35 100 117 122 123 123 121 117 116 116 120 119
119 116 109 103 102 106 111 111 108 103 96 87 79 50 9 39
33 24 28 20 20 18 29 37 38 34 48 23 22 21 43 23
24 52 20 25 27 53 36 29 31 26 23 15 13 13 13 8
3 4 0 0 0 0 0 0 0 0 0 0 0 0 0 0
0 0 0 0 0 15 42 0 4 0 0 0 0 0 5 0
0 0 0 0 0 0 0 2 23 58 59 53 59 67 47 59
48 49 52 60 70 38 43 52 62 32 22 18 23 50 36 34
76 47 39 44 42 50 112 119 121 123 122 117 114 113 114 114
111 108 107 104 105 110 116 115 110 101 91 81 64 13 48 61
54 20 28 20 21 17 23 21 15 18 29 57 26 31 38 16
18 27 49 25 44 51 31 33 34 30 34 49 40 16 12 10
3 2 0 1 0 0 0 0 0 0 0 0 0 0 0 0
0 0 0 0 0 1 8 2 2 0 0 0 0 0 8 6
0 0 0 0 0 1 34 69 57 44 45 42 37 42 36 70
30 36 36 57 56 29 27 35 57 35 25 21 19 56 37 36
52 70 58 77 69 31 74 118 121 122 122 120 119 115 112 109
107 106 107 106 108 115 117 113 107 97 87 75 24 19 66 46
45 19 25 20 25 16 19 25 15 14 23 36 30 59 38 21
18 18 25 57 90 63 46 54 62 47 51 49 32 37 27 11
4 4 0 1 0 0 0 0 0 0 0 0 0 0 0 0
0 0 0 0 0 0 0 0 0 0 0 0 0 0 0 2
0 0 0 0 21 60 70 60 37 37 62 30 32 39 41 76
29 35 39 58 55 30 28 37 62 36 23 18 16 49 46 36
49 119 78 48 37 38 35 94 119 120 120 119 119 118 115 112
113 113 110 108 111 117 116 112 104 93 82 46 10 70 49 30
25 33 29 23 18 18 22 31 17 18 19 39 15 30 52 22
19 22 23 55 48 27 30 35 37 68 101 59 34 27 26 27
10 3 0 0 0 0 0 0 0 0 0 0 0 0 0 0
0 0 0 0 0 0 0 0 0 0 0 0 0 0 0 0
0 0 8 45 51 51 39 38 35 32 49 26 30 39 43 76
29 35 37 61 53 35 29 35 64 37 23 19 18 50 85 45
74 118 51 39 35 46 26 49 107 121 120 119 117 117 116 115
114 111 107 108 115 117 115 108 99 89 60 11 35 59 34 29
26 34 46 42 18 16 21 38 18 16 25 37 15 14 17 34
25 24 28 58 39 23 27 27 28 57 55 35 56 61 37 23
27 23 0 0 0 0 0 0 0 0 0 0 0 0 0 0
0 0 0 0 0 0 0 0 0 0 0 0 0 0 0 0
0 31 51 34 34 56 38 35 31 32 62 26 23 35 45 74
29 33 39 51 49 34 32 29 63 35 20 19 16 49 91 46
60 73 54 46 43 50 33 31 64 115 121 121 120 121 118 117
115 112 112 114 117 118 114 107 95 75 19 25 59 46 38 23
22 26 50 64 42 40 47 54 17 17 34 29 19 16 12 47
27 19 21 41 55 29 35 37 31 69 41 28 32 29 40 52
47 46 23 0 0 0 0 0 0 0 0 0 0 0 0 0
0 0 0 0 0 0 0 0 0 0 0 0 0 0 0 1
34 65 37 37 44 83 50 60 69 72 105 53 42 39 51 75
31 31 36 43 59 45 56 58 92 42 31 28 30 68 59 50
36 54 71 47 45 43 36 31 39 78 117 118 118 119 118 116
115 113 114 115 117 117 112 102 84 34 10 37 62 38 29 26
24 23 53 28 30 35 46 74 33 19 32 23 18 13 12 43
21 25 30 27 70 29 31 28 31 73 26 27 25 29 46 45
69 30 22 21 1 0 0 0 0 0 0 0 0 0 0 0
0 0 0 0 0 0 0 0 0 0 0 0 0 0 0 28
42 65 67 66 59 93 60 61 46 42 65 29 37 54 76 105
65 57 68 78 97 64 67 68 110 53 53 45 49 83 47 55
33 37 82 40 43 17 9 40 33 47 88 116 116 116 116 117
115 115 114 115 118 115 110 97 46 9 28 49 37 10 35 31
19 34 60 17 15 15 17 46 37 44 60 36 24 17 16 52
31 27 26 26 72 27 34 54 65 112 62 54 51 64 89 51
47 36 32 24 22 0 0 0 0 0 0 0 0 0 0 0
0 0 0 0 0 0 0 0 0 6 0 0 0 0 25 47
68 40 30 32 31 63 28 32 36 45 72 30 28 30 44 76
50 55 64 72 97 44 39 37 81 27 30 18 18 52 22 38
49 31 80 49 14 11 19 59 41 40 59 96 117 117 116 116
117 117 117 118 119 118 107 69 17 19 47 92 11 0 30 21
26 52 47 17 18 17 16 43 16 32 75 59 46 35 33 83
59 63 53 42 100 63 60 54 48 100 48 59 68 63 58 38
51 45 43 25 28 14 0 0 0 0 0 0 0 0 0 0
0 0 0 0 0 0 0 1 0 2 0 0 0 16 47 31
66 27 33 36 33 73 27 33 39 40 63 31 28 33 32 45
30 29 33 41 71 32 34 40 74 33 35 23 13 47 15 24
41 30 62 56 0 4 64 56 66 45 53 71 98 113 116 117
118 117 116 118 121 118 89 29 22 63 75 67 0 14 64 32
44 38 46 16 18 17 15 46 19 19 44 37 25 20 19 64
37 43 50 62 112 48 32 28 26 74 24 29 33 29 46 22
24 59 72 34 16 41 9 0 0 0 0 0 0 0 0 0
0 0 8 0 0 0 0 8 7 0 0 0 4 46 29 38
69 23 33 38 35 80 24 34 41 39 65 39 35 37 33 44
32 32 37 41 76 35 33 36 69 31 35 29 13 40 14 23
33 32 51 8 0 32 88 45 36 57 56 66 82 95 113 119
118 117 117 122 125 113 59 26 49 56 46 23 2 29 39 64
68 14 43 16 19 19 17 45 18 19 45 27 14 10 9 50
26 28 25 28 65 37 31 30 27 77 28 29 33 35 47 18
14 64 79 45 22 38 57 1 0 0 0 0 0 0 0 0
0 0 8 2 0 0 0 8 12 0 0 0 23 33 28 39
67 24 32 35 30 72 23 27 38 32 57 35 35 35 31 40
26 30 35 41 74 32 35 35 69 33 36 33 19 39 15 23
43 48 54 1 0 35 60 55 47 40 58 69 83 87 95 113
118 117 121 125 125 96 46 41 40 37 36 5 24 21 26 78
55 21 61 23 15 16 15 42 20 20 41 27 18 13 10 58
30 31 27 30 57 40 32 27 25 74 26 30 33 38 48 16
23 72 31 60 50 43 40 13 0 0 0 0 0 0 0 0
0 0 0 0 0 0 0 3 8 0 0 3 52 46 29 39
77 36 42 45 47 101 50 47 52 58 81 46 51 52 59 58
20 27 35 43 71 33 37 37 72 33 32 34 32 43 12 23
40 35 53 3 0 32 69 22 83 68 58 76 85 89 89 97
113 123 126 129 119 82 54 57 35 48 19 2 21 18 46 33
37 42 89 50 32 25 23 56 17 19 32 29 17 12 11 56
33 32 27 26 52 42 32 28 31 68 27 31 33 44 51 11
48 48 21 41 67 24 21 24 2 0 0 0 0 0 0 0
0 0 0 0 0 0 8 5 1 0 0 22 56 66 30 33
99 53 60 61 67 114 70 68 73 68 109 54 72 69 85 101
39 31 32 40 64 29 33 34 64 47 56 69 71 85 40 48
45 32 46 13 1 3 28 15 32 57 50 85 90 96 95 93
105 123 128 126 103 80 66 53 37 25 0 14 25 34 48 18
25 22 64 41 42 41 45 92 34 25 25 39 18 14 16 54
32 31 27 30 54 36 30 24 27 56 25 27 31 31 73 11
56 22 19 24 50 34 24 23 16 0 0 0 0 0 0 0
0 0 0 0 0 3 37 3 0 0 5 31 30 69 32 49
75 34 39 41 47 97 42 40 38 32 85 32 46 50 52 79
35 48 58 66 96 47 55 60 80 74 68 63 65 76 30 31
26 29 37 36 40 1 16 23 30 31 29 62 83 101 101 97
102 121 128 116 102 86 75 44 20 3 0 30 32 56 17 14
14 11 43 19 21 26 29 75 44 48 42 47 16 16 23 41
46 36 31 33 66 58 38 33 36 61 40 50 51 47 95 26
30 27 15 25 40 64 32 25 29 7 0 0 0 0 0 0
0 0 0 0 0 2 23 2 0 0 18 25 26 57 61 58
47 25 27 23 29 75 27 30 32 26 74 24 28 32 31 57
27 28 39 72 107 70 69 71 69 66 43 35 41 64 17 12
12 16 31 24 34 20 1 25 23 26 29 33 39 63 98 102
102 119 123 111 104 82 50 29 17 0 1 43 55 31 14 15
14 12 43 16 12 15 13 46 19 28 39 74 41 38 47 68
78 62 63 65 91 105 57 49 56 92 57 64 67 53 89 42
21 24 21 23 62 22 40 27 20 17 1 0 0 0 0 0
