P2
128 120
145
36 35 35 34 34 34 33 32 32 32 31 31 31 30 30 29
28 28 27 27 26 26 25 26 26 25 24 24 24 24 24 23
23 22 22 22 21 21 20 20 19 17 17 15 13 13 13 16
17 18 19 15 11 19 23 21 19 18 17 17 15 13 11 9
8 7 7 10 13 12 13 10 12 14 15 16 17 17 18 17
18 18 18 19 19 20 20 20 21 21 22 22 23 23 23 24
24 24 25 25 26 27 27 28 28 28 28 28 30 30 30 31
31 30 31 33 31 32 32 32 33 32 32 32 33 32 33 33
36 35 35 34 34 34 33 32 33 32 32 30 31 30 30 30
29 28 28 27 27 26 26 26 25 25 24 24 25 24 23 23
23 22 22 22 21 21 21 20 20 19 17 16 15 14 14 18
20 21 22 17 10 18 24 22 20 18 17 17 16 15 13 11
11 10 8 10 13 13 11 13 14 16 17 17 18 19 19 19
19 19 20 20 20 21 22 22 22 22 23 23 23 24 24 23
25 25 27 26 26 27 28 28 29 29 29 29 30 30 31 31
32 31 31 33 32 32 32 32 32 32 32 32 32 32 33 33
35 34 34 34 34 33 34 33 32 32 32 31 31 30 30 30
29 28 28 28 27 26 26 26 26 25 25 25 25 25 24 24
23 23 22 22 22 21 21 21 20 19 18 17 16 16 16 20
21 23 22 17 10 18 25 22 21 20 19 18 17 16 14 14
14 12 8 9 13 14 13 14 16 17 18 18 19 19 20 20
20 20 21 21 21 22 22 22 23 23 23 24 24 25 25 26
26 27 28 27 27 28 28 28 29 29 30 30 30 31 31 32
32 32 32 33 32 32 33 33 33 33 32 32 33 34 33 34
35 35 35 35 34 34 33 33 33 32 32 31 31 30 30 29
30 28 28 28 27 27 26 26 26 26 26 25 25 25 24 24
24 23 23 23 22 22 21 21 21 20 19 18 17 17 18 22
22 23 23 18 11 17 25 23 21 21 20 19 18 17 15 15
16 15 11 9 15 13 15 16 17 18 19 19 20 20 20 20
21 21 21 22 22 22 23 23 24 24 25 25 25 26 26 26
27 27 29 28 28 29 29 29 30 30 30 31 31 30 31 31
32 32 32 33 32 32 33 33 33 33 33 33 33 33 33 33
36 35 35 35 35 34 34 34 34 33 32 32 31 31 30 30
29 29 29 28 28 28 27 27 27 26 26 26 25 25 25 24
24 23 23 23 22 22 21 22 22 21 21 20 20 19 20 24
24 25 24 19 11 18 25 23 22 21 21 20 19 18 16 17
17 16 13 9 16 14 17 18 19 20 20 20 22 22 22 22
22 22 23 23 23 23 24 25 25 25 26 26 26 26 27 27
28 28 30 28 29 29 30 30 30 30 31 31 31 32 32 32
32 32 32 34 33 32 33 33 33 33 32 32 33 33 35 34
36 36 35 35 35 34 34 34 33 33 32 32 32 32 31 30
30 30 30 29 29 29 27 27 27 27 27 26 26 25 25 25
24 25 24 24 23 23 23 22 22 22 21 20 20 21 21 25
25 26 26 20 12 17 26 24 23 22 21 21 20 19 18 18
18 17 14 10 16 16 18 19 20 21 21 21 22 22 23 22
22 23 24 24 24 25 25 25 25 26 26 26 27 27 27 27
28 28 29 29 29 30 30 31 31 31 31 32 32 32 32 32
32 32 33 34 33 33 32 32 32 33 33 34 34 34 34 34
36 36 36 36 35 34 34 34 33 33 33 32 32 32 32 31
31 30 30 29 29 29 28 28 28 27 27 26 27 26 26 25
25 25 24 24 24 24 24 23 23 22 22 22 22 22 23 26
26 27 27 20 14 16 27 25 23 23 22 23 22 20 19 19
18 19 16 12 17 16 18 20 21 21 22 22 22 22 23 23
24 24 25 25 25 25 25 26 26 26 27 27 27 27 28 28
29 29 31 30 30 30 31 31 31 31 32 31 32 33 32 33
33 32 32 32 32 32 33 33 34 34 34 34 35 34 35 35
37 36 36 36 35 35 34 34 34 33 32 32 32 32 31 31
30 30 30 30 29 29 29 28 28 27 27 27 27 26 26 26
26 25 24 25 24 24 25 24 23 23 22 22 22 22 23 26
26 27 26 21 16 16 27 26 24 24 23 23 23 21 21 20
19 19 17 12 18 18 21 22 21 22 22 22 23 24 24 25
25 25 25 25 26 26 26 27 27 27 27 28 28 28 29 29
29 29 31 30 31 31 32 32 32 32 31 31 33 32 32 31
31 32 33 33 33 34 34 34 34 34 34 34 35 34 34 35
37 36 36 35 35 34 34 34 33 34 33 33 33 32 32 32
31 31 30 30 30 29 29 28 28 28 28 27 27 27 26 26
25 25 26 25 25 25 25 24 24 24 24 23 23 23 24 27
27 27 28 22 17 16 27 26 24 24 24 23 23 23 22 21
20 19 18 14 19 18 22 22 23 23 24 23 24 25 25 26
25 25 27 26 26 27 26 27 27 27 28 28 28 29 29 30
30 30 31 31 32 31 32 32 32 32 31 30 31 31 32 34
34 34 34 34 34 34 34 34 34 34 35 34 35 35 35 35
37 37 36 36 36 35 34 34 34 34 33 33 33 32 32 32
31 31 31 30 31 30 29 28 28 28 28 28 27 26 27 26
26 26 25 26 26 25 25 25 24 23 24 23 23 23 25 28
28 28 28 23 19 16 27 26 25 25 25 24 23 22 22 21
21 20 19 16 20 20 22 23 24 24 25 26 25 25 26 26
26 26 27 26 26 27 27 27 29 29 28 28 28 29 29 30
31 31 32 31 31 31 31 31 31 31 33 33 33 33 34 34
34 33 34 33 34 35 35 35 35 35 35 35 35 35 35 35
37 37 36 36 35 35 35 34 34 34 34 33 34 33 33 32
33 31 31 31 30 30 30 29 29 28 29 28 28 28 27 27
27 27 27 26 26 25 25 25 25 24 23 24 24 25 26 28
29 29 29 23 19 16 26 27 25 24 25 25 24 23 24 22
22 21 20 18 21 21 23 25 25 25 25 25 26 26 26 26
26 27 28 27 27 28 27 27 28 29 29 30 29 30 31 31
31 30 31 31 31 30 30 31 32 33 33 34 33 33 33 34
34 35 35 34 34 34 35 35 35 35 35 35 35 35 35 35
36 36 36 36 36 36 35 34 34 34 34 33 33 32 33 32
32 32 31 31 31 30 30 30 29 29 29 28 28 27 28 27
27 27 27 26 26 25 26 25 25 25 24 24 25 24 26 29
29 29 29 25 21 13 22 28 26 25 25 25 24 23 24 22
22 22 21 18 21 22 25 25 26 26 26 26 26 26 27 26
26 27 27 27 27 27 29 29 29 29 29 29 30 30 31 30
29 29 30 31 32 32 33 32 33 34 33 35 34 34 34 34
35 35 34 34 34 34 34 35 35 35 35 34 34 35 35 35
37 36 36 36 35 35 34 34 34 34 34 34 33 33 33 32
32 32 31 31 30 30 30 29 29 29 29 28 29 28 28 28
27 27 27 27 26 26 26 25 25 25 25 25 25 26 27 30
30 30 30 24 18 11 22 28 26 26 26 25 24 24 25 23
23 22 22 19 23 23 26 25 26 26 26 26 26 27 27 27
27 27 28 27 28 28 29 29 29 30 30 30 29 29 30 30
30 32 32 32 32 32 33 33 33 33 33 35 34 34 34 34
35 35 35 35 34 35 35 35 35 35 35 35 34 35 34 35
36 37 36 37 36 36 36 35 36 35 34 33 34 33 33 32
32 32 32 31 31 31 30 29 30 30 29 29 29 29 28 28
28 27 27 27 26 26 26 26 25 25 25 24 25 26 27 30
31 31 30 25 20 17 24 29 27 26 26 26 25 25 25 23
23 23 23 20 24 24 26 26 26 26 26 27 27 27 28 27
28 28 29 28 29 28 29 29 30 29 30 30 30 30 31 31
32 32 32 32 32 33 33 33 33 34 34 35 34 35 35 35
35 35 35 35 35 34 35 35 35 35 35 35 35 36 35 36
36 36 37 36 35 36 35 35 35 35 35 34 33 33 33 33
33 32 32 32 31 31 31 30 30 30 29 29 29 29 29 28
28 28 27 28 27 27 26 26 26 26 25 26 26 26 28 31
31 31 31 24 21 21 23 30 28 27 27 27 26 26 26 25
24 24 24 21 25 24 27 27 27 26 27 27 27 27 28 28
28 29 29 29 29 29 29 30 30 30 31 31 31 31 31 31
32 32 33 33 33 34 33 33 34 34 34 36 35 34 35 35
35 35 35 35 35 35 35 35 35 35 36 36 36 36 36 36
37 37 36 36 35 36 36 35 35 35 35 34 33 33 33 33
32 32 32 32 32 31 31 31 31 30 30 30 30 29 29 28
28 28 27 27 27 27 26 26 27 26 26 26 26 27 28 31
31 30 30 25 21 22 22 30 28 28 28 27 26 26 27 25
25 24 24 21 26 25 27 27 27 27 28 28 28 28 28 28
28 29 28 28 29 29 30 30 31 31 31 32 32 31 32 32
33 32 33 33 33 33 33 34 35 35 35 35 35 35 35 35
35 35 35 34 35 35 35 35 35 36 36 36 36 36 36 36
37 37 37 36 36 36 36 36 35 35 35 34 34 34 34 34
34 33 33 32 32 32 31 31 31 31 31 30 30 30 30 29
29 28 28 28 27 28 27 27 27 27 27 26 27 27 28 32
31 32 32 26 21 24 22 30 29 29 29 28 27 27 27 26
26 25 25 22 26 25 28 27 28 28 29 28 28 28 28 28
29 29 30 30 30 31 31 31 31 32 32 32 32 32 33 33
32 33 33 33 34 34 35 35 34 35 35 36 35 35 35 35
35 35 36 36 36 36 36 36 36 36 36 35 35 35 36 36
37 37 37 36 36 36 36 36 36 35 35 35 34 34 34 34
34 34 33 33 32 32 32 31 32 31 30 31 30 30 30 29
29 29 28 28 28 27 28 28 28 27 28 27 27 28 29 32
33 33 32 27 22 26 22 30 30 29 29 28 28 28 28 27
26 26 25 22 26 25 28 28 28 28 28 28 29 28 29 30
29 30 30 30 31 31 31 31 31 32 32 32 32 33 33 33
33 34 33 34 34 34 35 34 35 35 35 36 36 35 36 35
36 36 37 36 36 36 35 35 36 36 36 37 36 37 36 35
37 37 36 37 36 36 36 36 36 35 35 34 34 34 34 34
34 34 33 33 32 33 33 32 32 31 32 31 30 30 30 30
30 30 29 29 29 29 28 28 27 28 28 28 27 28 29 33
33 33 32 26 23 26 23 30 31 30 30 29 28 27 28 27
27 26 26 23 26 25 29 28 29 28 29 30 30 30 30 30
30 31 31 31 31 31 32 32 32 33 33 33 32 32 33 33
34 34 35 35 35 35 35 36 35 35 35 37 36 36 36 36
36 36 36 35 35 35 36 36 36 36 36 36 36 36 36 36
37 37 37 36 36 36 36 36 35 35 35 35 35 35 35 34
34 34 34 34 33 32 32 32 32 31 32 31 31 31 30 31
30 30 29 29 29 29 29 28 28 28 28 28 27 28 29 33
34 34 33 28 23 28 23 30 31 30 30 29 29 28 29 27
27 27 26 22 27 24 28 29 29 30 30 30 30 30 31 31
31 31 31 31 32 32 32 32 32 32 33 33 34 34 34 34
34 35 35 36 35 35 35 35 36 35 35 36 36 36 35 35
35 35 36 36 37 35 36 36 36 36 37 36 36 36 37 36
37 37 37 36 37 36 36 36 36 35 36 36 35 35 35 34
34 34 34 33 34 33 33 32 32 32 32 32 31 31 31 31
31 30 31 29 30 30 29 29 28 28 29 29 29 30 30 33
34 34 33 29 23 29 25 30 32 31 30 31 29 29 31 28
27 27 27 24 27 27 30 31 30 30 30 31 31 30 31 32
32 32 32 32 32 32 32 32 33 33 33 33 34 34 34 34
34 34 36 35 36 35 35 36 36 35 34 35 34 35 36 36
37 37 36 36 39 36 36 36 36 36 36 36 36 37 36 36
37 37 37 37 36 36 37 36 36 36 36 36 35 36 35 35
35 34 34 34 33 33 33 32 32 32 32 32 32 32 32 31
31 31 30 30 30 30 30 30 29 29 29 29 29 29 31 35
36 35 34 30 24 29 26 30 32 32 31 31 29 30 30 29
28 28 28 24 28 27 30 31 31 31 31 32 32 31 32 31
32 32 32 32 32 32 33 34 33 34 34 35 35 35 34 35
35 35 36 36 36 35 35 35 35 36 36 37 37 37 37 37
36 36 36 37 38 36 36 36 36 36 36 36 36 36 37 36
38 37 38 37 37 37 37 37 36 36 37 36 36 35 35 35
35 35 34 34 34 34 34 33 33 34 33 33 33 32 33 32
31 31 31 31 31 31 30 29 30 29 29 30 30 31 32 35
37 36 36 30 25 30 28 30 32 32 32 31 30 30 31 29
28 28 28 25 29 28 31 32 32 32 31 32 32 32 33 32
32 32 32 33 33 34 34 33 34 35 35 35 35 36 35 35
35 35 36 36 36 36 37 37 37 37 37 37 37 37 37 38
37 37 38 38 38 37 36 37 36 37 36 37 37 37 37 37
37 37 37 37 37 37 36 37 37 37 37 36 36 36 35 35
35 35 34 35 34 34 34 33 33 33 33 33 32 32 32 32
32 31 31 32 31 31 31 30 30 31 35 38 38 35 35 38
38 36 36 32 25 31 30 29 32 32 32 32 31 30 31 30
29 29 29 26 29 29 32 32 32 32 31 33 32 33 32 33
32 32 32 33 34 34 34 34 34 35 35 35 35 35 35 34
35 35 36 37 37 37 37 37 37 36 37 37 37 37 37 37
37 37 38 37 38 37 37 37 36 37 37 36 37 37 37 37
37 37 37 37 37 37 37 37 37 36 36 36 36 36 35 35
35 35 35 35 34 34 34 34 34 34 34 33 33 33 33 32
32 32 32 31 32 31 31 30 31 38 38 37 33 31 32 36
38 37 36 32 27 33 31 30 33 33 32 31 31 30 30 30
29 29 29 26 28 29 32 32 31 32 32 33 33 33 33 33
33 33 34 34 34 34 34 35 35 35 35 34 34 35 35 35
36 36 36 38 37 37 37 38 37 38 37 37 38 37 38 37
37 37 37 37 38 37 36 37 37 37 37 37 37 37 37 37
38 37 37 37 37 37 37 37 36 37 36 36 36 36 36 36
35 35 35 35 35 34 34 34 34 34 34 33 33 33 33 32
32 32 31 31 32 32 32 33 34 35 36 34 31 31 30 33
34 35 34 29 29 33 32 27 34 33 32 32 31 31 29 29
29 29 29 26 28 28 31 32 32 32 32 32 32 32 32 32
33 33 34 33 34 34 34 34 35 34 35 34 35 35 35 36
36 36 36 37 37 37 37 37 37 37 37 37 37 37 37 37
37 37 36 36 37 37 36 36 37 36 36 36 37 37 36 37
37 37 37 37 37 37 37 37 37 36 35 35 36 35 36 35
35 35 35 34 35 34 34 34 34 34 34 33 33 33 33 32
32 31 32 32 33 34 35 36 36 34 33 28 31 22 26 29
31 31 31 28 22 28 29 27 31 35 34 33 31 31 29 30
29 29 29 26 28 29 32 32 32 32 32 33 32 32 33 32
33 32 33 33 33 34 35 34 34 34 34 34 34 35 35 36
35 35 36 37 37 36 37 37 37 37 37 37 37 36 36 36
36 36 36 36 36 36 35 35 36 36 36 36 36 36 36 36
36 36 37 36 36 36 35 36 35 36 36 36 35 35 36 34
35 35 34 34 34 33 33 33 33 33 33 32 32 32 32 32
32 32 33 35 34 35 34 34 32 31 30 24 25 22 21 28
18 31 31 31 29 26 26 24 25 21 24 33 34 33 29 30
29 29 28 26 27 28 30 31 31 31 31 31 31 31 32 31
31 32 32 34 33 33 33 34 34 34 34 34 34 34 35 35
35 35 35 36 36 36 36 36 36 37 36 36 36 36 35 35
36 35 36 35 36 37 35 36 36 36 36 36 36 36 35 34
37 37 36 36 35 36 36 35 35 36 36 35 35 35 35 35
35 35 35 34 34 33 34 34 33 33 33 33 32 33 32 32
34 37 40 40 39 35 35 32 26 30 32 30 23 29 22 24
23 24 31 30 33 29 31 25 25 21 18 21 22 27 29 30
29 29 29 27 28 28 31 31 32 31 31 31 31 31 32 32
32 33 33 34 33 33 33 34 34 34 34 34 35 35 35 35
35 36 36 36 36 36 37 36 37 36 36 36 36 36 36 36
36 35 36 36 36 37 36 36 36 36 35 35 34 35 35 35
36 36 36 37 36 36 36 36 36 36 36 36 36 36 36 36
35 35 35 34 34 33 33 33 33 33 33 33 33 32 34 37
44 48 45 37 33 34 34 35 34 28 36 37 29 35 26 24
30 24 26 36 34 33 32 33 25 24 17 20 23 24 22 29
30 30 29 27 27 28 30 31 31 31 32 31 32 33 33 33
33 33 34 35 35 34 34 34 34 35 34 35 36 36 36 36
36 37 36 37 36 36 37 37 37 37 36 36 36 36 36 36
37 36 37 36 36 35 33 34 35 35 34 35 36 36 36 35
38 37 37 37 37 36 36 36 36 36 37 36 36 36 36 35
35 36 36 35 35 34 34 34 34 33 33 33 34 35 38 48
50 45 38 34 33 36 38 40 45 40 39 45 42 39 33 27
37 32 22 38 39 35 31 37 31 29 20 22 21 25 25 22
31 30 30 27 28 29 32 33 33 33 33 33 34 34 34 33
33 34 34 34 34 34 34 35 35 35 35 36 36 36 37 36
37 37 37 37 37 37 37 37 37 37 37 37 37 36 37 36
36 35 35 35 36 35 35 36 35 37 36 34 36 36 37 35
31 34 37 37 37 37 36 36 37 37 36 36 36 36 36 36
36 36 36 35 35 35 35 34 34 35 34 34 35 41 50 53
47 47 37 39 40 45 48 51 57 54 50 47 53 42 42 32
35 36 23 38 41 39 35 36 33 32 28 23 24 24 26 24
26 33 31 29 29 31 33 33 34 33 33 34 33 33 34 33
34 34 35 35 35 35 35 35 35 36 36 36 36 36 37 37
37 37 37 37 38 37 37 37 37 38 38 37 36 36 35 35
36 37 37 37 38 37 36 36 36 37 36 36 36 35 36 36
13 23 36 37 37 37 37 37 37 36 36 37 37 37 37 36
37 36 36 35 36 35 35 34 34 34 35 35 44 50 56 51
53 46 46 43 50 55 61 67 70 75 66 54 52 53 46 42
33 41 26 34 45 40 37 38 36 33 30 26 24 24 27 26
24 28 31 30 30 31 33 34 33 33 33 34 34 34 34 34
34 35 35 36 36 35 35 36 36 36 37 36 36 37 38 37
38 38 38 37 38 37 37 37 36 37 37 36 37 36 36 37
37 37 37 36 36 36 36 36 37 36 36 36 36 36 36 36
12 21 37 37 38 38 37 37 37 36 37 37 38 37 37 36
36 36 36 35 35 35 35 35 35 35 35 42 51 57 57 58
61 50 53 52 59 67 76 83 88 90 84 64 53 57 50 48
37 44 31 32 45 44 37 39 38 34 34 29 28 25 29 29
24 27 30 30 30 33 33 34 34 33 34 34 34 34 34 34
35 35 35 36 36 35 35 36 36 36 36 37 37 37 37 37
37 37 37 37 37 37 36 37 36 36 36 36 38 37 36 37
36 37 37 36 36 36 36 36 36 36 36 36 36 36 37 35
14 20 37 38 37 38 38 37 36 37 38 38 37 37 37 37
36 37 36 36 36 36 35 35 35 35 40 49 55 61 59 63
62 55 58 59 66 78 89 97 100 98 93 80 65 58 60 51
42 43 37 32 42 48 42 40 40 36 36 30 29 27 29 33
27 28 28 31 29 32 33 34 34 34 34 34 34 34 35 34
35 35 36 36 36 36 36 36 37 36 37 37 37 37 37 36
37 36 37 37 37 36 37 36 36 36 36 37 37 37 37 37
36 36 36 37 37 37 36 36 36 36 37 36 36 36 36 36
15 22 37 38 38 38 38 38 38 46 46 44 43 40 38 38
36 36 36 36 36 36 36 36 36 38 50 55 59 62 65 68
61 62 61 66 74 88 100 105 108 106 102 93 77 68 66 58
52 46 42 35 41 52 45 41 41 35 37 33 29 28 29 33
28 28 32 30 31 32 34 35 34 35 35 35 35 35 35 35
35 35 36 37 37 36 36 36 36 37 36 36 37 37 37 37
37 36 36 36 37 36 36 36 37 38 36 36 37 37 37 37
37 37 37 37 37 37 37 36 36 36 36 36 36 36 36 36
15 24 38 38 38 39 38 38 40 50 49 48 47 43 42 42
41 39 37 37 37 37 36 35 37 49 55 56 65 63 69 74
63 66 67 72 82 95 108 111 114 111 109 100 88 79 73 71
59 50 46 41 39 51 49 42 41 38 38 36 33 30 34 34
30 28 33 34 35 33 33 35 35 35 35 35 36 35 35 35
35 36 36 36 36 36 35 36 36 37 37 38 37 37 37 37
37 37 37 37 37 36 37 36 37 37 37 36 37 38 37 37
37 37 37 36 37 36 37 36 36 36 36 37 37 36 36 37
16 26 41 41 40 40 39 38 41 50 50 48 45 45 45 47
49 43 43 42 40 39 37 36 42 52 57 62 66 66 77 74
65 69 73 77 89 103 113 115 120 116 113 105 92 89 82 80
69 60 46 50 40 51 56 45 42 42 39 38 37 34 36 36
33 29 32 39 35 34 34 35 35 35 35 36 36 36 35 36
36 35 35 36 36 36 36 36 36 36 36 37 38 37 37 37
37 37 37 37 37 37 37 37 38 37 36 37 37 38 37 37
37 37 37 36 36 36 37 37 36 36 36 37 36 36 36 37
16 27 44 42 41 42 42 41 42 43 38 44 45 47 49 50
50 44 39 42 45 44 41 41 51 58 59 66 64 67 85 75
69 73 79 82 90 108 121 120 126 119 114 108 99 89 93 88
79 70 48 55 46 52 62 49 46 43 40 42 41 37 38 40
38 31 35 39 41 36 33 36 36 36 36 35 35 35 35 35
36 36 36 36 36 36 37 37 37 37 37 37 38 37 37 37
37 38 38 38 37 37 37 37 37 37 37 37 37 38 37 36
37 37 36 37 37 37 36 36 37 37 36 37 36 37 37 37
17 27 44 42 37 38 43 45 47 29 2 10 26 37 41 44
48 41 11 10 19 27 35 42 56 61 63 69 65 70 87 77
75 73 84 87 91 111 125 127 132 125 115 108 103 95 91 99
90 81 64 57 57 49 66 60 50 47 44 44 43 41 41 42
43 31 38 35 50 38 34 35 36 35 36 36 36 36 36 36
36 36 36 37 37 37 37 37 37 37 37 37 39 37 38 38
37 37 38 38 38 37 38 37 38 37 36 37 37 38 38 36
37 36 37 37 37 37 37 37 37 37 37 38 38 38 38 37
17 25 42 44 41 39 40 47 52 30 0 0 8 17 20 21
29 39 4 0 0 0 6 29 57 59 68 69 65 75 91 78
80 76 86 88 94 114 128 132 135 128 115 108 101 97 95 99
98 90 80 56 66 51 62 68 55 50 47 48 43 45 43 43
45 36 38 36 51 47 36 35 35 36 36 37 37 36 37 37
36 36 36 37 37 37 37 37 37 37 38 38 39 38 38 38
38 37 38 38 38 38 37 37 36 37 37 37 37 38 37 37
36 36 37 37 37 37 37 37 37 37 37 38 37 37 36 35
18 15 13 20 30 38 44 49 52 31 0 0 4 10 14 15
23 38 5 0 0 0 10 37 56 61 70 68 65 82 87 81
81 79 87 91 97 113 133 132 135 129 118 107 101 94 98 99
105 100 88 76 65 62 59 75 64 51 49 52 44 47 50 45
48 40 42 41 51 56 42 36 37 37 37 37 37 37 37 37
36 36 36 37 37 37 37 37 37 37 37 37 39 38 38 38
38 38 38 39 38 38 38 38 38 37 38 37 38 38 38 37
36 37 37 37 37 38 37 37 38 38 38 37 37 37 38 37
17 10 0 0 0 4 10 20 31 30 0 0 3 6 4 9
20 39 8 0 0 1 20 44 57 66 68 65 65 87 83 82
80 81 87 93 98 112 134 135 136 130 120 111 103 100 99 100
105 108 90 92 74 74 59 79 73 60 52 56 47 49 50 48
52 43 43 45 50 63 48 38 37 37 37 37 38 37 37 37
37 37 37 37 37 37 38 37 38 37 38 38 39 38 39 39
38 39 39 38 38 38 38 38 38 37 38 38 38 38 38 38
37 38 38 38 38 38 37 37 38 38 38 38 37 37 37 37
17 10 0 0 0 0 0 0 2 22 0 0 0 0 0 3
17 37 3 0 0 4 27 48 56 68 65 65 68 87 83 84
79 81 88 93 99 109 131 137 136 133 121 114 106 100 99 98
103 111 105 95 92 80 64 74 82 67 56 54 48 52 52 53
54 48 47 46 53 65 58 41 37 37 36 37 37 37 36 37
36 37 36 36 37 37 38 38 38 38 38 39 39 37 39 38
38 38 39 39 39 38 38 38 38 38 38 38 38 38 38 38
39 39 38 38 38 38 38 39 38 38 38 38 37 37 37 37
17 10 0 0 0 0 0 0 1 18 0 0 0 0 0 0
19 39 4 0 0 6 32 51 57 67 62 64 72 83 87 86
80 82 90 92 97 107 129 137 136 137 129 116 109 102 101 101
100 113 110 104 95 88 83 69 85 76 64 55 52 53 52 57
59 54 51 50 53 63 64 45 38 37 37 37 37 37 36 36
37 37 37 37 37 37 37 37 38 38 39 38 39 38 39 38
38 39 39 39 39 38 38 38 37 38 37 37 37 38 38 38
38 38 37 37 37 37 39 38 38 38 37 37 38 37 38 38
17 10 0 0 0 0 0 0 0 16 0 0 0 0 0 0
19 42 5 0 1 10 35 51 57 67 61 64 75 79 92 84
79 84 90 94 96 105 125 138 137 138 137 129 112 104 103 105
110 107 112 114 98 94 92 72 81 84 77 57 56 54 51 58
63 60 54 50 53 63 66 50 39 38 37 36 37 36 36 36
37 37 37 37 37 37 38 38 39 38 38 39 40 38 38 38
39 39 39 39 39 39 39 39 38 38 38 38 38 39 38 37
38 37 37 37 36 37 38 38 38 38 38 39 39 39 39 39
17 10 0 1 1 11 6 0 0 15 0 2 0 0 0 0
17 43 6 0 1 10 39 48 59 68 57 66 73 73 91 86
77 83 90 94 94 102 121 137 138 137 137 137 129 112 107 106
107 117 104 116 111 87 99 90 78 91 90 62 59 57 52 61
68 69 53 54 54 63 65 59 42 37 37 37 38 37 37 37
37 38 38 38 38 38 38 38 38 39 39 39 39 38 38 38
38 39 39 39 39 39 39 38 38 39 38 38 39 39 38 38
38 38 38 37 38 37 39 39 39 39 39 39 39 38 37 35
17 10 2 10 5 6 2 0 0 14 1 0 0 0 0 4
18 44 8 0 4 8 41 45 60 67 58 63 72 71 93 85
75 83 92 94 94 100 115 135 138 138 138 138 137 128 110 107
107 108 110 107 113 95 86 104 79 91 99 68 65 60 55 60
71 72 56 56 54 66 67 63 45 38 36 37 38 38 37 37
37 38 38 38 38 38 38 38 39 38 39 38 39 39 38 39
38 39 40 39 40 39 39 39 39 38 38 38 38 38 38 38
38 38 37 37 38 37 38 37 38 38 37 39 38 35 34 32
19 11 7 7 0 3 3 0 0 16 1 0 0 0 0 5
24 46 13 1 6 11 39 40 63 66 60 61 62 48 71 74
73 82 93 96 96 102 110 131 138 138 138 137 137 137 126 105
104 110 109 113 107 110 72 97 104 89 106 78 72 62 57 62
70 75 57 60 54 64 67 69 50 38 37 37 37 37 38 37
37 38 37 38 38 38 38 39 38 39 39 39 39 38 38 39
39 39 40 39 41 39 39 39 39 39 39 39 38 38 38 37
38 37 36 35 35 38 38 36 35 34 31 29 27 23 20 18
18 12 4 1 0 0 0 0 1 27 20 12 10 8 2 1
19 52 38 30 28 25 38 38 61 62 57 59 53 51 31 62
71 78 87 98 99 102 110 125 139 138 139 137 137 138 134 116
106 104 99 107 114 109 89 71 116 97 110 92 79 65 59 62
73 83 61 61 53 61 68 70 56 42 37 38 38 38 38 39
38 38 38 39 39 39 38 39 39 39 39 39 38 39 39 39
40 40 40 40 40 40 39 39 39 38 37 38 37 36 35 34
36 36 34 33 31 30 27 24 21 19 17 16 16 17 18 19
17 11 0 0 0 0 0 0 1 39 52 43 39 38 35 26
30 56 36 30 32 36 42 45 57 58 55 60 55 54 46 71
79 85 63 72 81 86 100 112 127 136 138 137 138 138 137 123
112 101 96 93 97 102 102 61 98 114 106 103 82 70 63 57
74 85 62 62 54 61 67 69 62 47 37 37 38 38 38 38
38 39 38 39 40 39 39 38 39 38 39 38 39 39 39 39
40 40 40 39 39 38 38 37 36 35 36 36 35 34 33 30
27 25 23 21 19 18 19 19 19 19 21 21 22 23 23 24
18 12 0 0 0 0 0 0 2 42 55 45 51 53 56 56
52 53 27 17 19 22 28 35 55 58 52 59 58 54 42 59
95 92 27 25 26 31 39 50 52 58 67 74 83 86 86 88
89 87 86 90 87 87 81 68 79 125 112 111 91 74 66 56
72 90 67 65 54 57 71 69 68 51 39 38 39 38 38 39
39 38 38 38 40 39 39 39 39 39 40 40 39 39 39 40
39 39 39 39 39 38 36 37 38 31 28 26 23 21 20 19
19 20 21 22 23 23 24 25 26 26 27 27 26 21 26 29
18 22 23 16 10 4 1 0 2 41 47 44 52 54 58 59
49 42 26 18 18 18 22 28 53 53 48 51 48 47 53 50
75 55 43 46 44 49 55 67 78 86 85 81 83 68 62 69
82 81 78 82 80 75 83 108 130 121 122 120 97 79 69 55
71 89 76 66 57 50 73 68 78 57 41 38 38 38 38 38
39 38 37 38 39 39 39 38 39 39 40 39 39 39 40 39
37 36 34 32 30 27 24 26 39 27 17 20 20 22 22 23
25 25 26 27 28 29 29 29 30 31 31 31 31 29 22 30
19 28 47 50 46 41 35 28 26 45 39 43 51 53 56 58
52 43 29 18 18 17 17 18 33 37 22 35 49 46 37 53
68 79 85 99 113 117 129 136 137 137 138 137 137 134 129 121
113 95 82 79 78 77 100 118 95 104 121 122 98 82 70 59
74 89 79 67 58 46 65 64 79 63 45 37 37 37 37 37
37 36 36 36 37 37 38 37 38 38 38 37 35 33 30 27
25 23 22 21 21 22 22 21 32 25 20 24 26 27 28 29
30 30 30 30 31 31 31 31 32 33 32 32 33 33 29 22
18 28 48 53 52 51 51 51 52 51 25 26 36 40 47 50
48 44 33 20 18 15 12 12 16 29 9 50 58 64 49 42
92 113 120 115 122 126 131 137 137 137 137 138 137 137 138 137
136 131 114 111 113 120 125 97 105 112 117 123 104 83 70 64
72 90 82 68 62 42 58 65 73 66 53 36 35 35 35 34
34 36 36 37 37 36 35 34 31 29 26 25 23 22 22 22
24 24 25 26 27 28 28 26 33 27 24 28 31 31 32 33
32 33 34 34 34 33 34 34 33 34 34 33 34 35 35 31
17 26 47 52 52 52 53 53 55 49 11 2 4 7 13 22
26 36 35 19 17 11 2 2 9 26 29 85 49 73 68 36
103 118 124 126 126 132 136 137 137 137 137 137 138 138 137 137
137 137 135 133 135 135 131 113 116 113 115 119 109 89 69 69
72 93 83 67 64 42 50 69 64 73 61 37 32 33 32 24
28 33 31 29 28 25 24 24 24 23 25 26 26 27 27 28
29 30 30 31 32 33 32 30 33 28 27 32 33 33 34 34
35 35 35 35 36 36 35 35 34 33 34 34 33 35 36 36
24 28 40 43 43 45 47 49 52 44 7 0 0 0 0 6
15 36 36 17 16 11 1 0 8 30 79 101 40 54 62 32
95 106 119 123 127 133 136 137 137 137 138 137 137 138 137 137
136 136 136 136 136 135 135 123 131 120 115 117 111 93 70 72
70 90 81 71 64 49 41 70 55 77 65 40 30 28 27 19
21 24 24 23 25 25 26 27 29 29 30 30 31 31 32 32
33 34 35 35 35 35 34 28 17 14 25 34 35 35 35 35
35 35 36 36 36 36 36 35 36 35 34 34 34 34 35 36
24 26 28 29 33 38 37 39 48 43 5 0 0 0 1 0
4 36 36 16 14 8 0 0 7 56 106 106 64 55 57 36
88 106 118 124 132 136 137 138 138 137 138 137 138 138 137 137
137 136 136 136 136 135 136 86 103 119 115 115 116 102 73 73
66 89 81 71 65 52 31 68 59 71 65 41 25 24 24 24
25 27 29 29 30 31 32 33 33 34 35 35 35 35 36 36
36 37 36 36 36 36 35 24 5 3 20 34 37 38 37 37
37 37 36 37 36 37 37 37 36 36 36 33 34 33 35 36
22 25 24 25 29 36 34 37 47 41 4 0 0 0 0 1
0 34 32 10 6 0 0 1 19 98 114 103 80 87 59 52
89 109 122 131 136 138 138 138 138 138 138 138 138 137 138 137
137 137 137 136 137 136 136 108 105 114 108 114 119 106 76 74
65 89 83 73 63 57 27 57 67 65 67 46 28 29 30 30
30 32 34 34 35 35 36 36 36 36 36 37 37 37 37 37
37 38 37 30 26 20 29 22 9 4 18 34 36 37 38 37
37 37 37 37 37 37 38 37 37 37 36 36 34 33 33 35
21 23 22 27 31 37 38 42 48 41 4 0 0 0 0 0
1 37 26 0 0 0 1 3 51 123 124 109 94 104 59 73
89 117 129 137 138 138 138 138 137 137 138 138 138 137 137 137
138 137 136 136 136 136 129 129 115 118 105 115 121 110 82 77
68 88 88 71 64 57 33 42 72 56 68 49 33 32 34 34
35 36 36 36 36 36 37 37 37 38 37 38 38 38 38 38
39 38 27 4 2 4 24 21 2 0 16 34 37 37 38 37
37 37 37 37 37 37 37 37 36 36 36 36 35 33 31 33
23 21 4 4 7 13 18 24 30 34 4 0 0 0 0 0
2 38 27 0 0 0 0 14 103 133 134 112 110 87 60 82
104 126 135 138 138 138 138 138 137 137 138 137 137 137 136 137
137 136 136 136 136 137 122 123 132 126 109 109 121 112 89 79
71 84 90 72 62 54 39 32 68 61 68 56 39 35 34 36
37 36 37 37 37 38 37 38 38 38 38 39 38 39 39 38
39 39 32 22 26 30 33 26 1 1 14 33 36 36 37 36
36 36 37 36 37 37 36 37 37 36 35 36 36 36 32 30
27 23 1 0 0 0 0 0 0 20 4 0 0 0 0 0
2 38 24 0 0 0 3 69 120 135 139 123 121 119 88 98
117 127 137 138 138 138 138 138 137 138 137 138 138 137 137 137
138 137 137 137 137 136 132 135 130 133 111 101 127 112 93 83
74 85 94 74 65 51 44 24 58 63 63 63 44 36 37 37
38 38 38 38 38 38 39 39 38 39 39 39 39 40 39 39
39 39 39 38 37 36 35 28 4 0 16 33 36 37 38 37
37 37 36 37 37 36 37 36 36 36 35 35 35 35 35 32
27 22 1 0 0 0 0 0 0 17 3 0 0 8 6 0
1 37 20 0 0 0 45 114 128 136 138 132 127 111 96 107
121 134 138 138 138 138 138 138 138 138 138 137 137 137 137 137
137 137 137 137 136 135 133 136 135 130 111 99 126 113 97 81
77 87 99 75 68 46 43 24 50 68 58 67 48 37 37 39
38 38 38 38 38 38 39 38 39 38 39 39 40 39 39 39
39 39 38 37 37 36 35 30 9 0 20 33 37 37 38 37
37 36 36 36 36 36 36 35 35 35 34 35 35 35 34 31
27 23 1 0 0 5 1 0 0 16 3 0 4 19 14 3
1 36 18 0 0 12 97 126 134 134 129 123 122 100 100 115
126 136 139 138 138 138 138 138 138 138 137 137 138 137 138 138
138 137 137 137 136 136 130 135 136 132 107 89 126 115 101 86
77 85 101 73 75 42 41 34 39 64 59 65 49 39 38 38
39 38 38 38 38 39 38 38 39 39 39 39 39 39 38 39
38 38 38 38 37 36 35 31 19 10 27 35 37 37 38 37
37 36 36 36 35 36 35 35 34 35 35 34 35 34 33 32
24 22 1 0 5 18 8 2 0 16 5 0 13 21 17 7
1 36 16 1 2 30 111 132 139 137 133 134 123 92 103 118
129 138 138 138 139 138 138 138 139 138 137 138 138 137 137 137
138 138 138 137 136 137 137 136 136 134 113 70 122 115 100 88
78 85 99 72 78 43 38 37 27 59 63 58 49 39 38 39
39 39 38 38 38 38 39 39 39 39 39 39 40 39 39 39
39 39 39 38 38 36 34 31 28 27 32 37 37 38 38 37
37 36 36 35 36 35 35 35 35 34 34 34 34 34 33 32
23 22 1 0 13 25 13 6 0 19 27 19 28 28 26 21
12 39 16 0 0 24 104 115 123 131 136 139 122 79 103 119
130 138 139 138 138 138 138 138 138 138 138 138 138 138 138 138
138 138 138 137 137 137 136 137 136 134 85 65 123 116 100 91
79 88 97 69 80 37 36 34 25 50 58 49 52 41 38 39
39 39 39 39 39 40 39 39 39 39 38 38 39 39 39 39
39 38 38 38 38 37 35 32 31 32 35 37 37 37 37 36
37 36 36 36 35 35 36 35 34 34 33 33 33 33 32 30
22 21 2 0 8 13 7 3 0 21 45 43 48 47 46 47
48 52 20 0 3 3 61 105 101 97 106 111 108 76 97 116
126 135 139 139 138 138 138 138 138 138 138 139 139 138 137 138
137 138 137 136 137 136 137 137 135 88 45 67 120 119 101 90
74 87 100 68 83 39 35 27 28 45 50 50 50 40 37 39
39 39 40 39 39 39 39 39 38 39 39 39 39 39 39 39
38 39 39 38 37 37 36 34 33 35 38 37 37 37 38 37
36 36 36 35 35 34 34 32 33 33 33 33 32 33 32 30
24 24 9 3 3 3 2 1 0 19 46 46 50 48 49 53
57 57 36 21 24 18 16 39 69 99 123 113 92 91 88 110
124 135 138 138 138 138 138 138 138 139 139 139 139 138 138 138
138 138 137 137 135 131 136 136 93 30 59 73 116 119 101 90
69 88 101 69 84 40 35 24 32 37 46 48 42 45 38 38
38 39 39 39 39 39 39 39 39 38 39 39 39 39 39 39
39 40 39 38 37 37 37 36 36 37 38 37 37 36 36 36
36 35 35 33 33 33 33 33 33 32 32 31 30 29 30 27
24 26 22 7 2 3 0 0 0 18 44 44 46 46 47 54
57 57 46 39 39 38 35 34 36 41 92 130 113 99 86 97
119 134 138 139 139 139 138 139 138 138 138 138 138 138 138 138
138 137 136 137 130 113 130 117 53 46 68 72 116 120 99 90
68 89 100 68 80 39 28 18 29 33 45 42 39 47 38 38
39 38 39 39 38 39 39 39 38 38 39 38 38 40 39 39
39 39 38 37 38 36 36 35 36 37 36 36 35 35 36 35
35 35 33 33 32 32 32 31 32 31 31 30 30 29 29 28
25 26 17 2 0 1 0 0 0 19 43 40 42 42 43 44
43 42 41 41 42 43 40 40 42 42 73 118 118 115 98 85
103 127 138 138 138 139 139 139 139 139 139 138 138 138 138 139
138 137 137 135 125 96 105 94 61 74 81 71 114 120 100 87
66 91 100 71 80 41 27 16 23 32 42 35 38 39 38 40
37 39 39 39 38 39 39 39 39 38 38 38 38 39 38 39
38 39 39 38 38 38 37 35 37 37 36 36 36 36 36 35
34 33 32 32 32 31 32 31 31 30 31 30 30 29 29 29
27 26 14 2 1 1 0 0 0 20 45 39 40 41 41 41
38 38 41 42 43 45 44 44 42 43 71 113 122 127 122 89
95 118 134 138 138 138 139 138 138 139 138 138 139 138 138 137
137 137 137 131 124 129 111 116 90 90 88 77 112 119 100 84
69 91 98 72 78 40 23 13 18 31 31 33 36 35 37 38
38 39 39 39 38 38 38 38 37 37 38 38 38 38 38 39
38 38 38 38 37 37 36 37 37 38 36 36 36 36 35 34
33 33 32 31 31 31 30 29 29 29 29 28 28 28 28 28
26 25 32 31 30 24 21 19 16 29 48 41 41 41 41 42
42 44 47 44 44 47 51 50 44 41 61 83 102 115 124 98
82 113 130 139 139 139 138 139 138 138 138 138 138 138 138 137
137 137 136 128 120 127 127 115 95 88 89 82 114 120 99 81
70 92 95 70 78 42 21 11 16 22 27 32 32 31 38 36
38 38 39 38 38 38 38 38 38 37 37 38 39 38 38 39
38 39 38 38 37 38 38 37 38 37 36 35 35 35 34 34
33 32 31 31 30 30 30 29 28 28 28 27 27 27 27 26
26 26 44 51 52 49 49 52 52 53 52 44 43 43 43 43
46 48 51 46 45 47 51 50 45 41 46 54 59 73 86 74
61 102 127 136 138 139 138 138 139 138 138 138 138 138 137 137
137 137 134 121 121 131 114 117 103 90 94 82 111 122 96 84
72 93 95 65 77 41 17 9 12 17 23 27 27 29 33 36
38 39 39 38 39 39 37 38 38 37 38 38 39 39 38 37
38 37 37 37 37 37 37 37 36 36 36 35 35 34 34 33
32 32 31 31 29 29 28 27 28 26 25 25 25 25 25 23
27 26 46 57 57 56 57 57 57 57 54 39 37 36 35 35
41 47 53 46 46 44 43 44 45 42 38 47 89 110 114 116
100 96 121 131 137 138 138 138 138 138 138 137 138 138 138 138
138 136 128 115 116 125 115 115 92 98 95 82 108 119 95 85
72 95 94 67 71 39 15 7 12 13 23 25 24 26 27 35
37 40 38 38 39 38 37 37 38 37 38 37 38 37 38 38
37 37 36 36 36 37 37 36 36 35 35 35 34 33 33 32
32 30 30 29 28 28 26 26 26 25 25 24 24 24 25 23
28 25 34 41 43 44 46 48 50 51 48 17 11 9 6 8
12 21 44 47 42 25 18 23 26 26 31 67 97 115 125 128
117 94 114 126 135 138 138 138 138 138 138 138 138 138 138 137
137 133 122 109 113 104 84 107 91 102 93 86 104 118 95 86
69 95 90 68 68 42 13 7 8 12 19 26 19 23 25 30
36 39 40 38 39 38 37 37 37 37 37 37 37 38 37 37
35 34 33 32 29 29 32 36 36 35 35 34 34 33 33 32
31 30 29 27 26 26 25 25 25 23 23 24 23 24 24 23
28 24 29 34 33 33 33 33 33 34 36 11 0 0 0 0
0 3 36 47 32 6 0 1 5 11 23 59 95 116 122 122
121 107 108 123 132 137 139 138 138 138 138 138 137 138 138 137
134 129 114 101 91 83 51 53 89 96 95 87 99 118 96 85
71 98 85 65 71 46 8 9 9 13 16 25 17 19 25 26
36 38 39 38 37 36 35 33 33 33 34 36 37 38 37 32
19 17 14 12 10 11 24 36 36 35 35 34 34 33 32 31
29 28 27 27 25 25 24 24 25 23 24 24 23 23 23 24
26 24 34 40 40 39 39 38 37 37 37 15 5 0 0 0
0 13 39 45 19 0 0 0 0 2 22 47 75 103 115 121
122 116 114 125 132 136 137 138 137 138 138 139 139 137 135 133
130 122 108 105 89 55 41 69 65 80 99 93 98 116 95 84
68 93 83 66 74 47 11 6 7 10 11 22 23 15 22 25
32 32 30 28 22 20 16 14 12 12 16 31 37 37 37 31
9 6 6 6 6 6 22 36 36 36 35 34 33 33 32 30
28 27 27 26 25 25 23 23 24 23 23 23 23 22 23 23
25 24 35 41 42 42 42 42 42 43 40 15 5 0 0 0
0 12 38 42 10 0 0 0 0 0 16 43 70 96 110 121
122 122 123 127 134 136 137 138 139 138 137 136 134 131 128 124
119 111 113 112 87 74 31 88 60 81 102 98 98 120 92 83
70 93 83 68 79 49 14 5 4 6 11 15 27 15 15 24
26 23 12 11 11 10 6 4 4 3 4 25 37 37 37 30
9 6 6 7 6 6 22 37 37 36 35 34 33 32 30 30
28 27 26 25 25 24 24 23 24 23 24 23 23 22 22 22
29 28 37 43 43 43 42 42 43 45 42 13 2 0 0 0
5 5 32 39 6 0 0 0 0 0 16 55 99 112 115 122
125 127 131 132 135 137 137 136 136 134 132 129 124 120 117 113
108 117 125 111 69 98 36 64 66 88 110 99 102 121 95 80
67 93 80 67 78 49 14 7 4 7 11 13 22 21 11 20
24 25 10 13 9 8 5 3 3 2 3 22 36 36 36 28
9 7 7 7 6 6 20 35 36 35 35 34 32 31 29 28
27 26 25 24 23 23 22 21 22 23 23 22 22 22 23 22
37 36 38 40 40 40 31 19 25 38 46 16 0 0 0 1
8 4 27 38 5 0 0 0 0 0 17 72 105 117 121 126
130 134 135 134 135 136 135 134 134 129 123 119 115 109 105 108
119 131 131 97 68 66 75 49 69 94 113 103 101 117 88 77
70 93 79 69 76 55 14 11 6 5 7 14 15 28 14 14
23 27 17 10 13 8 5 3 3 2 2 21 36 37 36 29
9 6 6 7 6 6 16 35 36 35 33 32 31 30 28 27
26 25 24 24 23 23 23 23 23 22 22 21 22 21 21 21
37 37 37 38 37 37 25 0 4 25 49 27 6 0 0 2
8 2 24 37 3 0 0 0 0 0 16 83 110 121 127 131
136 138 133 133 132 129 127 125 122 117 111 104 98 101 111 123
134 136 132 98 63 80 101 63 71 99 118 109 107 118 87 75
67 96 78 74 77 60 17 8 8 3 6 12 10 27 19 13
21 25 27 12 12 12 6 2 3 2 2 21 36 36 37 31
12 9 8 10 10 9 15 32 34 33 31 31 30 29 28 27
25 25 25 25 24 23 22 22 22 21 21 21 21 21 21 21
36 36 36 36 36 37 27 0 1 21 48 25 2 0 0 1
6 3 24 37 3 0 0 0 0 0 10 78 108 122 130 133
133 134 129 123 121 117 114 108 102 94 88 89 102 117 128 135
138 135 131 98 85 86 64 76 68 101 124 109 104 119 88 73
66 96 75 76 81 63 17 11 8 5 5 12 13 22 24 16
16 20 24 21 14 10 7 3 3 2 3 20 36 37 36 33
18 14 14 13 13 13 18 27 29 30 32 32 30 29 27 27
24 25 24 24 23 22 22 22 22 21 21 21 20 21 20 20
25 25 27 30 34 36 28 1 0 17 45 15 0 0 0 0
0 0 24 38 3 0 0 0 0 0 7 61 98 115 122 126
127 123 119 113 106 99 89 78 73 78 93 109 120 128 135 137
138 137 135 107 111 121 92 74 82 102 131 110 103 120 86 74
67 98 75 75 82 65 19 12 10 9 6 10 15 19 26 21
18 14 22 22 13 9 7 4 3 2 2 19 35 37 38 34
15 9 10 6 1 1 3 5 3 6 30 32 30 28 27 27
26 24 24 23 23 22 22 21 21 21 21 20 20 20 20 20
1 1 2 18 33 36 31 3 0 14 40 11 0 0 0 0
1 0 19 41 5 0 0 0 0 0 5 44 73 94 104 111
108 102 96 91 88 83 84 90 99 104 110 117 123 129 134 136
137 137 138 125 117 122 109 100 103 110 134 106 104 119 83 75
66 99 67 75 84 70 21 13 11 10 10 11 10 18 24 19
16 15 17 22 19 8 5 3 4 3 2 18 36 37 37 33
13 7 7 3 0 1 4 22 11 1 29 31 29 28 27 27
25 24 24 22 23 22 21 21 21 20 21 20 20 20 20 18
0 0 0 17 37 36 32 5 0 9 38 17 4 3 2 5
16 12 23 43 21 13 12 15 14 13 19 43 45 53 59 64
65 66 72 79 85 94 100 105 108 112 114 116 119 125 133 136
137 138 138 132 130 119 110 103 104 115 128 103 98 115 78 74
67 100 61 80 85 73 27 11 11 11 9 12 11 14 23 23
18 15 11 16 24 11 7 3 5 3 2 17 35 37 37 33
14 6 6 4 0 0 1 6 2 0 26 30 29 27 26 26
25 24 23 22 22 22 22 22 21 21 21 19 20 20 19 19
0 0 0 14 38 35 33 7 0 4 37 37 35 30 30 36
44 42 42 44 48 48 44 45 47 47 48 51 42 34 35 34
37 44 54 61 69 75 82 88 93 100 106 112 116 121 129 137
138 138 137 135 133 114 110 105 103 121 128 108 97 112 77 76
66 101 57 74 84 73 40 16 10 11 10 11 8 8 13 26
22 14 11 9 16 26 19 8 6 4 2 16 35 36 37 33
14 5 6 3 0 0 0 0 0 0 25 29 27 26 26 25
23 23 23 22 21 22 21 21 21 20 20 19 20 19 19 19
0 0 0 11 38 36 32 9 0 1 35 44 44 38 40 48
53 48 43 39 49 53 51 50 50 53 54 54 45 33 39 43
46 47 48 46 44 43 46 52 63 78 93 104 113 122 131 137
138 138 138 137 130 111 110 108 104 120 125 107 95 109 73 78
63 102 56 73 87 71 40 35 15 13 10 8 10 8 4 13
25 20 12 10 7 15 25 13 8 5 1 15 34 36 36 33
15 6 5 2 0 0 0 0 0 0 20 15 6 5 19 25
23 23 22 21 21 21 20 20 20 20 19 20 19 19 19 19
0 0 0 9 39 36 33 12 0 1 33 43 39 35 39 46
52 48 41 36 38 42 42 42 41 42 42 42 40 31 32 37
39 41 40 38 38 34 33 17 10 22 54 85 105 121 132 137
138 138 138 137 125 108 109 107 107 119 122 103 92 107 67 82
62 100 57 72 85 68 40 32 32 15 10 7 8 9 10 7
18 30 14 11 8 7 18 24 13 7 2 14 33 36 36 33
14 4 4 0 15 21 1 0 0 0 8 17 23 13 5 23
23 22 22 21 20 20 20 19 19 18 19 19 19 18 18 18
0 0 0 7 38 36 33 14 0 0 31 38 30 32 33 39
50 49 44 39 30 28 29 28 29 29 29 30 33 33 34 36
37 36 33 31 32 32 31 11 3 1 5 45 80 107 123 134
138 138 137 135 118 107 109 107 109 119 122 101 90 108 67 84
66 101 57 72 86 68 38 28 28 27 13 4 5 4 4 4
11 19 31 15 10 8 9 21 23 11 2 14 34 36 37 33
13 4 5 3 30 46 11 0 0 6 25 28 27 24 5 20
23 22 22 22 21 21 21 20 20 19 19 19 18 18 19 18
0 0 0 5 36 36 32 17 2 8 33 35 15 17 19 24
33 35 34 39 33 30 31 31 36 37 35 35 37 38 40 43
44 42 37 34 32 32 30 14 8 7 10 36 66 81 104 122
136 137 137 133 113 107 110 108 109 118 122 101 85 106 64 88
68 102 60 70 83 71 42 28 24 21 21 8 0 1 2 1
1 9 20 33 18 10 4 11 20 17 6 13 33 35 37 34
16 4 5 2 11 18 10 0 0 12 30 28 26 25 8 16
23 22 21 22 21 21 21 20 20 20 20 19 19 19 19 18
0 0 0 4 35 36 31 26 24 31 40 33 2 0 1 1
4 11 16 36 36 40 43 40 50 53 40 33 33 35 36 40
45 47 39 35 34 36 29 14 10 9 15 38 76 73 83 104
123 131 134 128 110 108 108 108 106 116 117 104 83 105 65 90
74 104 62 68 80 67 50 62 51 40 22 16 14 3 0 0
3 1 8 20 29 13 8 4 12 17 15 15 33 36 37 35
19 7 8 1 2 1 1 0 0 11 30 28 27 26 9 16
23 23 22 22 22 21 21 20 20 20 20 19 20 19 20 19
0 0 0 2 33 36 32 35 44 46 49 35 2 0 0 0
0 1 13 41 37 43 47 40 49 54 27 6 6 7 8 10
28 46 41 36 35 37 25 14 11 10 19 39 82 83 79 88
108 123 126 120 109 105 105 108 97 118 117 104 80 103 68 91
76 101 68 69 76 65 48 74 77 69 32 16 22 17 14 12
6 4 2 7 20 26 9 7 6 12 13 18 32 36 38 35
30 20 12 4 0 0 0 0 0 9 30 28 27 26 10 20
23 23 22 22 22 21 22 21 21 21 21 21 20 20 20 20
0 0 0 2 32 37 32 35 48 50 52 41 3 0 0 0
0 0 8 43 36 40 42 16 17 31 21 0 0 0 0 0
18 45 42 35 37 43 28 18 15 14 25 37 83 95 89 82
93 113 118 117 109 104 103 108 92 117 114 101 78 108 69 91
71 102 71 66 75 63 48 77 82 74 29 11 16 18 16 12
18 20 19 15 14 23 28 13 7 6 10 11 24 34 38 36
36 15 14 24 3 0 0 0 0 8 31 30 28 25 10 24
25 24 24 24 24 22 23 22 22 21 21 21 20 20 20 20
0 0 0 1 30 37 32 34 41 41 41 32 2 0 0 0
0 0 7 44 36 41 41 7 2 22 23 0 0 0 0 0
14 43 41 34 40 49 31 19 19 19 34 37 83 102 109 95
83 100 112 113 105 100 101 108 90 116 116 98 79 108 67 92
72 103 74 64 73 60 46 86 95 86 19 4 11 9 13 11
15 21 23 27 27 22 32 24 11 5 7 10 11 29 37 37
38 19 25 41 11 0 0 0 0 7 28 27 25 13 14 23
16 14 23 24 23 23 21 21 22 21 21 21 20 20 21 21
0 0 0 0 28 37 32 29 21 20 21 11 0 0 0 0
0 0 8 43 36 41 41 7 2 20 24 0 0 0 0 0
10 39 37 31 52 48 33 20 22 22 39 38 82 104 116 113
92 85 99 103 98 96 98 103 89 114 116 100 80 108 67 93
76 105 75 59 70 54 44 93 100 82 18 5 7 8 12 12
14 22 27 22 25 28 26 33 29 21 14 11 11 13 25 24
23 8 3 8 2 0 0 0 0 0 4 3 3 0 9 14
12 26 19 23 22 22 22 21 21 21 20 20 20 20 20 20
0 0 0 0 25 36 31 28 19 18 21 9 0 0 0 0
0 0 9 43 35 41 41 6 2 17 26 0 0 0 0 0
11 36 33 28 57 45 32 20 21 30 43 38 84 98 117 121
112 92 84 92 91 89 93 98 88 112 116 98 78 110 68 96
73 104 74 56 69 51 37 97 108 76 9 7 7 5 9 11
18 23 22 25 23 24 29 34 34 29 24 24 26 21 15 3
0 0 0 0 0 0 0 0 0 0 0 0 0 0 5 12
80 98 41 21 22 21 21 21 21 21 21 20 20 21 20 21
0 0 0 0 23 37 31 28 21 20 22 9 0 0 0 0
1 0 6 42 35 42 41 7 3 17 26 2 0 0 7 22
31 28 24 37 57 44 30 23 23 30 41 39 86 101 113 122
120 108 89 80 82 83 87 96 92 109 115 106 80 112 69 96
71 96 70 54 65 50 33 95 115 53 3 8 10 2 3 6
12 25 29 24 20 18 22 27 36 33 28 25 22 24 21 20
13 8 7 8 8 9 11 13 14 14 13 5 0 1 12 16
71 73 44 7 7 12 22 21 21 22 21 21 21 21 21 21
0 0 0 0 22 37 31 28 23 23 23 8 0 0 0 0
5 0 4 41 37 43 41 14 5 15 27 9 11 23 32 29
23 25 29 45 53 43 31 25 25 31 45 40 81 103 112 122
124 115 103 89 78 79 86 96 92 105 114 110 75 110 77 97
74 92 75 50 61 48 33 92 90 16 2 5 9 10 5 4
11 20 20 19 21 23 19 23 26 33 26 24 25 27 25 24
22 21 21 19 18 17 17 18 18 17 14 5 0 0 0 0
0 0 1 4 2 11 26 25 25 26 25 24 25 23 24 24
0 0 0 0 20 36 31 28 25 24 24 9 0 3 0 0
10 10 3 39 38 43 42 23 11 13 30 24 20 20 17 28
25 31 30 48 51 45 29 25 29 32 41 38 74 107 113 120
125 118 108 100 89 83 85 95 93 101 112 113 74 107 84 95
71 83 76 53 58 46 31 68 28 8 6 3 7 4 5 7
11 15 14 14 18 24 25 24 29 30 27 19 22 28 28 28
27 27 25 24 21 21 21 20 19 18 15 6 0 0 0 0
0 0 1 3 2 10 21 19 17 16 15 14 13 11 10 10
0 0 0 0 17 36 30 28 26 25 25 13 2 5 0 1
13 21 11 38 41 44 41 24 22 10 11 12 11 15 15 28
41 34 31 52 52 48 29 29 31 33 38 40 67 108 116 121
124 120 111 105 99 91 88 92 91 97 113 120 77 103 90 90
75 73 77 51 55 43 27 21 8 8 8 6 9 4 4 5
11 12 15 17 21 24 28 24 20 23 24 21 19 27 31 31
30 30 31 31 30 26 23 23 20 18 16 7 0 0 0 0
0 0 0 2 22 26 26 26 28 28 29 30 31 32 33 34
0 0 0 0 16 35 29 28 26 25 25 26 21 25 25 26
33 39 37 49 44 44 40 20 16 5 16 19 18 29 50 17
31 35 32 55 56 49 29 32 31 33 37 39 55 108 116 120
123 121 111 105 100 96 91 91 91 93 114 121 81 93 100 84
78 62 77 43 50 43 28 33 46 46 49 64 41 38 42 50
47 13 19 21 17 23 27 28 21 18 26 23 19 25 30 29
30 29 29 29 28 28 24 22 22 19 18 7 0 0 0 0
0 0 0 6 42 42 41 42 42 41 41 41 40 41 41 41
0 0 0 0 14 34 29 26 26 26 26 37 44 47 48 49
52 56 58 60 51 44 39 16 17 18 14 12 8 10 12 20
28 35 33 57 61 48 31 36 32 39 37 37 40 96 115 119
122 121 111 105 103 97 94 90 87 90 116 121 87 84 108 79
81 46 74 42 50 41 26 23 2 4 2 5 12 5 8 11
21 27 21 19 22 26 26 28 22 14 22 26 22 24 30 31
28 23 25 30 30 28 26 23 21 19 19 8 0 0 0 0
0 0 0 8 42 42 42 42 41 41 41 40 40 41 41 41
0 0 0 0 13 34 29 27 26 26 26 36 49 49 50 51
54 57 58 57 53 43 37 13 14 10 10 10 6 9 17 22
30 36 36 58 63 45 30 38 34 39 34 32 26 42 87 112
118 118 112 107 103 100 95 93 88 88 116 118 96 80 110 75
88 37 69 41 51 43 27 41 10 3 2 7 11 4 5 4
8 31 15 17 21 26 26 23 19 13 24 26 21 24 28 30
24 19 23 29 28 29 28 25 21 21 20 8 0 0 0 0
0 0 0 11 42 41 42 41 40 41 40 40 40 40 41 41
0 0 0 0 11 33 29 26 27 27 26 26 35 34 35 34
37 39 41 40 37 36 30 18 13 8 9 11 6 13 21 23
33 34 40 58 61 45 35 39 38 40 34 29 21 22 29 49
82 107 112 106 104 102 98 94 90 85 112 111 102 83 114 75
92 40 62 40 51 45 31 26 4 1 1 6 15 5 8 11
12 40 12 21 22 24 25 15 17 17 20 26 23 20 29 28
21 19 21 25 26 28 30 29 24 21 20 8 0 0 3 7
0 0 0 13 43 42 41 41 41 41 40 41 40 41 41 40
0 0 0 0 11 32 28 25 26 27 26 20 18 17 17 18
22 26 28 29 27 24 22 14 12 8 11 13 9 19 20 27
31 35 44 62 57 46 36 38 41 40 34 31 18 24 21 19
23 32 52 71 87 96 99 96 88 81 103 108 106 82 117 78
96 45 53 39 53 48 36 32 32 23 15 15 17 8 12 13
11 22 14 19 21 21 19 19 19 20 24 25 27 20 27 22
19 20 18 22 24 25 27 28 26 21 22 7 0 0 30 38
4 0 0 16 42 41 41 40 40 40 40 40 40 40 41 40
0 0 0 0 10 31 27 25 26 26 26 22 19 18 18 19
22 27 29 27 24 24 17 9 12 9 11 12 16 20 19 25
32 37 44 67 54 48 38 38 43 40 35 34 16 21 21 20
17 13 12 13 19 22 38 47 55 59 90 106 112 86 115 86
97 55 46 47 56 53 40 34 49 44 45 43 46 56 69 65
55 22 16 20 16 19 19 21 15 18 25 23 24 19 26 21
16 19 16 18 20 22 23 25 24 21 21 6 0 0 14 15
1 0 0 19 42 41 40 41 40 40 40 40 40 40 41 41
0 0 0 0 10 31 27 24 25 26 27 25 22 22 22 22
25 28 26 26 25 30 14 5 11 9 9 11 15 19 20 28
33 37 49 73 49 47 40 39 46 43 36 35 17 19 23 19
18 15 12 10 8 6 20 17 25 42 70 106 109 90 115 91
96 63 43 52 58 57 43 38 20 4 3 4 4 2 7 7
13 18 18 14 16 18 16 20 13 18 25 23 24 19 21 19
13 18 16 17 18 20 20 23 26 24 22 7 0 0 0 0
0 0 0 21 41 41 40 41 40 40 40 40 41 40 41 40
0 0 0 0 13 32 27 24 25 26 26 25 24 23 23 24
27 26 26 27 22 18 25 14 10 7 6 11 17 19 22 30
32 37 56 72 48 48 41 38 45 47 35 35 22 18 22 22
19 17 12 10 9 7 14 16 18 42 43 107 105 93 118 95
94 67 38 55 62 60 45 42 31 9 3 6 2 2 7 8
13 15 15 13 17 15 13 17 12 19 19 26 25 21 20 16
12 15 13 16 17 16 19 21 25 26 23 9 0 0 0 0
0 0 0 24 41 40 41 40 40 40 40 40 40 40 40 40
10 11 13 15 20 26 24 24 24 25 26 25 24 23 23 24
24 24 26 25 20 14 16 17 8 4 8 10 18 18 27 31
35 35 63 62 49 46 43 40 43 49 37 35 27 18 23 23
20 17 14 12 11 6 12 13 15 40 30 98 106 93 115 99
91 70 39 57 65 67 50 41 40 16 6 7 2 3 5 10
15 15 14 15 16 14 14 16 11 17 12 14 22 24 16 16
11 13 13 15 15 18 18 18 24 25 23 16 0 0 0 0
0 0 0 27 41 40 40 40 40 40 40 40 40 40 40 40
17 18 19 19 20 21 23 23 24 25 25 25 25 24 23 23
24 24 25 24 19 18 17 14 7 5 10 10 20 17 28 30
33 36 70 54 53 47 43 44 42 51 42 33 30 19 22 23
19 17 16 14 14 8 11 9 9 29 33 79 107 97 115 105
88 79 37 54 69 73 54 44 48 26 4 7 0 4 4 6
11 12 14 15 16 12 14 16 11 15 9 8 15 22 16 13
10 13 12 12 15 16 14 20 24 22 22 23 4 0 0 0
0 0 0 23 41 40 40 40 40 40 40 40 39 39 39 39
15 16 19 19 20 21 22 23 24 25 25 25 25 25 22 23
25 22 25 25 20 17 21 14 6 6 9 10 19 17 28 29
33 40 72 46 56 48 44 44 42 51 45 33 30 25 23 24
19 15 17 17 16 11 8 7 7 16 36 61 108 98 114 109
88 85 36 54 73 75 62 46 53 43 6 7 2 4 6 8
9 10 12 16 13 10 14 13 9 16 10 7 8 13 19 12
11 10 10 9 11 16 15 17 22 20 22 24 15 0 0 0
0 0 0 12 38 39 39 40 39 39 39 39 39 39 39 39
15 16 17 17 18 19 19 21 23 24 25 24 25 24 20 22
24 20 17 22 20 16 19 12 6 5 8 13 20 19 29 32
32 46 67 45 57 49 46 41 45 52 48 32 31 27 23 23
18 14 17 19 15 12 10 8 8 11 33 40 105 94 112 115
88 93 38 57 73 76 65 48 46 55 14 5 2 6 4 7
7 9 13 16 13 11 14 12 11 16 12 9 6 10 17 12
8 8 11 9 12 17 16 18 20 20 17 18 18 1 0 0
0 0 0 19 25 40 40 40 39 39 39 39 39 39 39 39
4 4 4 8 11 15 15 17 23 24 24 24 24 24 22 21
22 21 15 15 18 13 15 8 6 7 9 10 20 22 31 31
31 56 59 45 58 51 44 38 45 51 51 32 31 27 25 20
19 16 18 17 14 12 12 9 7 9 29 26 100 94 106 116
87 95 37 57 73 78 71 57 39 59 33 5 2 7 6 8
5 10 15 15 15 12 15 12 12 15 14 10 8 11 13 20
9 13 12 11 11 18 17 20 23 24 14 8 11 13 19 7
0 0 2 33 19 34 40 39 39 39 38 38 38 39 39 38
0 0 0 4 10 16 18 18 21 22 23 24 23 24 21 21
18 20 16 7 18 12 12 5 5 9 12 8 20 27 29 30
32 58 54 46 57 49 45 39 44 50 53 31 32 26 26 19
20 20 19 18 16 12 10 12 7 7 22 29 84 93 96 120
88 95 41 57 73 80 78 64 36 47 51 9 2 5 5 6
4 11 15 15 13 11 14 11 11 14 14 10 9 9 11 17
17 13 14 10 12 19 15 16 26 22 10 6 7 44 131 65
0 0 3 36 29 21 38 39 38 38 38 38 38 38 38 38
0 0 0 5 8 14 18 20 21 22 22 23 23 25 21 20
15 16 14 2 15 14 11 7 9 7 10 13 23 30 30 29
34 57 46 48 57 48 47 39 45 50 54 31 34 25 22 20
20 20 20 18 16 14 10 7 8 7 17 34 64 99 89 117
88 93 43 54 69 83 78 69 44 34 52 17 1 3 5 8
4 10 14 15 11 13 13 11 11 14 10 13 9 10 10 8
23 13 12 12 14 18 16 21 22 13 8 6 7 26 129 63
0 0 4 37 37 20 30 38 38 38 38 38 38 37 38 38
0 0 2 6 8 14 19 20 22 23 24 24 19 24 22 20
16 16 13 2 13 12 9 7 8 7 9 13 19 31 30 29
38 58 44 51 56 47 49 40 44 48 51 29 35 26 22 22
19 20 22 24 21 16 12 8 10 13 16 34 43 100 88 113
88 90 52 48 67 88 80 71 56 29 44 31 1 1 4 8
4 10 11 11 10 12 12 11 10 16 11 14 10 8 9 6
14 21 15 10 12 12 15 20 18 14 4 7 9 11 32 7
0 0 7 38 37 26 9 23 38 38 38 38 38 38 38 38
5 6 6 7 10 15 20 22 24 26 27 27 15 23 23 20
19 16 13 1 11 12 9 8 6 10 7 11 19 31 29 29
40 60 44 52 55 51 45 40 45 50 50 29 37 25 22 24
29 27 26 23 20 18 14 8 8 12 18 27 29 97 85 108
88 86 54 43 65 89 83 72 68 29 30 38 6 2 5 4
3 9 9 10 9 9 12 11 9 15 9 10 9 6 11 7
9 10 17 23 18 16 15 11 12 7 4 8 10 5 3 0
0 0 5 30 25 4 6 4 36 37 37 37 37 37 37 37
10 10 10 10 13 16 18 21 26 26 26 26 14 18 20 18
18 14 13 3 9 10 11 6 6 7 6 10 22 29 29 28
41 58 43 51 54 52 43 42 47 49 49 29 36 26 18 22
25 24 25 26 30 25 20 15 12 13 22 27 25 84 80 106
86 79 54 34 66 88 81 72 81 41 14 36 14 1 3 6
4 8 9 10 9 10 14 11 11 16 10 9 9 6 12 6
10 9 6 8 16 19 16 17 12 6 4 4 9 6 4 0
0 0 0 7 12 21 31 4 35 37 37 37 38 37 37 37
11 10 11 11 11 11 11 12 26 26 25 25 16 12 18 18
19 14 13 4 9 12 13 7 6 9 6 8 25 26 29 28
42 58 43 55 54 50 44 45 47 45 48 32 36 26 22 27
24 19 19 21 22 18 16 14 10 12 13 20 24 70 77 98
84 73 55 30 65 86 79 76 79 52 19 20 28 3 2 5
6 8 10 9 9 10 14 12 12 17 11 9 8 7 10 5
10 9 8 8 13 14 16 5 4 0 2 4 11 7 4 0
0 0 0 1 4 14 23 2 28 36 37 36 36 36 37 37
2 3 4 4 5 5 6 8 24 27 24 20 16 14 14 20
18 14 14 5 9 10 12 8 5 7 9 12 27 27 29 26
42 54 45 55 57 48 44 45 45 42 47 36 38 27 21 25
21 18 16 18 21 16 15 15 12 12 8 19 18 58 76 90
79 69 55 25 62 82 80 85 74 63 33 8 29 10 0 5
7 10 8 9 10 8 14 11 13 17 10 9 7 4 9 5
10 6 6 8 12 19 8 4 4 0 3 6 14 9 5 0
0 0 0 0 0 0 0 0 6 27 37 37 37 37 36 36
