P2
128 120
151
38 38 38 38 37 36 36 35 35 34 33 33 33 32 32 31
31 30 29 29 28 28 27 27 27 26 26 25 25 24 24 24
24 23 23 22 22 21 21 21 20 19 17 16 15 13 15 18
19 20 21 17 13 21 25 23 21 20 20 19 18 15 14 11
10 9 9 12 15 13 14 11 14 17 17 18 19 19 19 20
20 20 20 21 22 22 22 22 24 24 25 25 25 25 26 26
26 26 27 28 28 29 29 30 30 31 31 31 32 32 33 33
34 34 34 36 34 35 35 35 35 35 35 35 36 35 35 35
37 37 36 36 36 35 35 34 34 33 33 33 32 31 32 31
30 30 29 29 28 27 27 26 26 25 25 25 25 25 24 24
23 23 22 21 21 21 21 20 20 19 18 16 15 15 15 19
21 22 22 17 11 20 25 23 22 20 19 18 18 17 16 13
13 11 10 12 15 14 13 15 16 17 19 19 20 20 20 20
21 21 21 21 21 22 23 24 24 24 25 25 26 26 25 26
27 28 29 28 28 29 30 30 31 31 31 31 32 32 33 34
34 34 34 35 34 34 35 34 35 35 35 35 35 35 36 36
38 37 37 37 36 36 36 35 34 34 33 33 32 32 32 31
30 30 29 29 29 28 27 27 27 26 26 26 25 25 25 24
23 23 22 22 22 22 22 21 21 20 18 17 16 17 17 21
23 24 24 18 11 19 26 24 22 22 20 20 19 18 16 16
16 14 10 10 15 15 15 16 18 19 19 20 21 21 21 21
21 22 22 23 23 24 24 25 26 25 25 26 26 26 27 28
28 29 30 29 30 31 31 31 31 32 33 33 33 33 34 34
34 33 35 35 34 35 34 35 35 35 35 36 36 36 36 36
38 37 37 36 36 35 35 35 35 34 34 33 33 33 32 31
31 30 30 29 28 28 27 28 27 26 26 26 26 25 25 24
24 24 23 22 22 22 22 21 21 20 19 18 18 17 19 23
24 25 25 19 12 19 26 24 23 22 21 20 19 18 16 16
17 16 13 10 17 14 15 17 19 20 20 20 22 22 22 23
23 23 23 23 24 24 24 25 26 26 26 26 27 28 28 28
29 29 31 30 30 30 31 31 31 32 32 33 33 33 33 34
35 34 34 36 34 34 35 35 35 35 35 35 35 36 35 35
38 37 37 37 37 36 35 35 34 34 34 33 33 32 32 32
31 30 30 30 29 28 29 27 27 27 27 26 26 25 25 24
24 24 23 23 23 22 22 22 22 21 20 20 19 19 20 24
25 25 26 20 13 18 27 25 24 23 23 22 20 20 17 18
18 17 14 9 17 15 17 19 20 20 22 22 23 23 23 23
23 24 24 24 25 25 26 26 27 27 27 28 28 28 28 29
29 30 31 30 31 31 31 31 32 32 33 33 33 33 34 35
34 34 34 36 34 35 35 35 36 35 35 34 35 36 36 36
37 38 37 37 36 36 35 35 35 34 33 33 33 33 32 32
31 31 31 30 29 29 29 28 28 27 27 27 26 26 25 25
25 24 24 24 23 23 22 22 22 21 21 21 21 21 21 25
26 26 27 21 13 18 28 26 24 24 23 22 21 20 19 19
19 18 16 11 17 16 19 20 21 22 23 22 23 24 24 24
24 24 25 25 26 26 27 27 28 28 27 28 28 29 29 30
30 30 32 31 32 32 32 32 33 33 33 33 33 34 34 34
34 35 35 35 34 34 34 33 34 34 35 36 36 36 36 36
39 38 37 37 37 36 36 35 35 34 33 34 33 33 32 31
32 31 30 30 30 29 30 29 28 28 28 27 27 25 26 26
25 25 24 24 24 24 24 23 23 23 22 21 22 23 23 25
26 27 27 21 15 17 28 27 25 25 24 23 22 21 20 20
20 20 17 12 18 17 21 22 22 23 23 23 24 24 25 25
25 26 27 27 27 26 27 27 27 28 27 28 29 29 29 30
30 30 32 31 32 32 33 33 34 34 33 34 34 34 34 34
34 35 34 33 33 34 35 35 36 36 36 36 37 36 37 36
38 38 37 37 37 37 35 35 36 35 34 34 34 33 33 32
32 32 31 31 31 29 29 29 29 28 28 27 27 27 26 26
25 26 25 25 24 24 24 23 23 23 22 23 23 23 24 27
28 28 28 22 17 17 29 28 25 26 25 24 24 23 23 21
21 21 19 14 19 19 22 23 23 23 24 24 25 25 26 26
27 27 27 27 28 28 28 28 28 28 29 29 29 29 30 31
31 31 33 32 33 33 33 33 34 34 33 33 34 34 34 34
34 34 35 36 35 36 36 36 36 36 37 36 37 37 37 37
39 38 38 37 36 36 36 35 35 35 34 34 34 33 33 33
32 32 32 31 31 31 30 29 28 28 28 28 28 27 26 26
26 25 25 26 25 25 25 24 24 23 23 23 23 23 25 28
28 29 29 23 18 17 29 28 27 26 26 25 25 24 24 22
21 20 19 15 19 19 22 23 24 24 25 25 26 27 27 27
27 27 28 28 28 28 28 29 29 30 30 30 30 30 30 31
32 32 33 33 33 33 34 34 35 34 33 32 33 34 34 35
36 36 36 36 35 36 37 37 36 37 37 37 37 37 37 37
39 39 38 38 37 37 36 36 36 35 35 35 34 34 34 33
33 33 32 31 32 31 30 29 29 29 29 28 28 27 28 27
27 27 26 26 26 25 25 24 24 24 24 24 24 25 26 29
29 29 28 24 19 17 28 28 27 26 26 26 25 24 24 22
23 22 21 19 22 21 24 25 25 25 26 26 27 26 28 27
27 28 29 28 28 29 29 30 30 30 30 31 30 31 32 32
32 33 34 34 34 33 34 33 33 33 35 35 35 35 36 36
36 36 36 36 36 37 37 37 37 37 37 37 37 37 37 37
38 38 38 38 37 37 36 36 36 35 35 35 35 34 34 33
33 33 32 32 31 31 31 30 30 29 29 29 28 28 28 28
27 27 26 26 26 26 25 25 25 25 25 24 25 25 26 30
30 31 30 25 20 17 28 29 27 25 27 26 26 25 25 23
23 22 21 20 22 22 25 26 26 27 27 27 28 28 28 28
28 28 29 29 29 29 30 30 30 30 31 31 31 31 32 33
33 33 34 33 33 32 33 34 35 35 35 37 36 36 36 36
36 36 37 36 36 37 37 37 37 37 37 37 37 38 38 37
39 39 38 38 37 37 37 36 36 36 36 36 35 34 34 34
34 33 33 32 32 32 31 30 30 30 30 30 29 29 29 28
28 28 27 27 26 26 26 25 25 25 25 25 25 26 27 31
31 31 31 26 22 15 24 29 27 27 28 27 26 25 26 24
24 24 23 19 24 24 27 27 27 27 27 27 28 28 29 29
29 29 30 30 30 31 30 30 31 31 32 32 32 33 32 32
31 31 32 33 34 35 35 35 35 36 36 37 36 36 36 36
37 37 38 38 37 37 37 37 37 37 37 36 37 37 38 37
39 38 38 38 37 37 37 36 36 36 36 35 35 34 34 34
34 33 33 33 32 31 31 31 31 30 30 29 29 29 29 29
28 28 27 27 27 27 27 26 26 25 25 26 25 26 27 31
32 31 32 25 19 11 25 30 29 28 28 27 26 26 27 25
25 24 24 20 26 25 27 28 28 28 28 29 29 29 29 29
29 29 30 30 30 31 31 31 32 32 32 32 32 31 31 32
34 34 34 34 35 35 35 35 35 36 36 37 36 36 36 36
37 37 38 37 36 37 37 37 37 37 38 37 38 38 37 37
38 38 38 38 38 37 37 36 37 36 36 35 35 35 35 34
33 33 33 32 32 32 32 31 31 30 30 30 30 29 29 29
29 28 28 27 27 27 27 26 26 25 26 25 26 27 28 31
32 32 31 27 21 19 27 32 30 29 29 28 28 27 28 25
25 25 25 22 26 25 28 28 28 28 28 28 28 29 30 30
29 29 30 31 31 31 31 32 32 32 32 32 32 33 33 33
34 34 34 35 35 35 36 36 35 36 36 38 37 37 37 37
37 37 38 37 37 37 38 38 37 37 38 37 38 38 37 38
39 38 38 38 38 38 38 37 37 37 36 36 35 35 34 34
34 34 33 32 32 32 31 32 31 31 30 30 30 30 30 29
29 28 28 28 27 27 27 27 27 26 26 27 27 28 29 32
33 32 32 27 22 22 25 32 30 29 29 29 27 27 29 26
26 26 26 23 27 26 28 29 28 29 29 28 29 30 30 30
30 31 31 30 30 31 31 31 32 32 33 33 33 33 34 34
34 34 34 35 35 35 36 36 36 36 36 37 37 37 37 37
38 38 37 37 38 37 37 37 37 37 37 38 38 38 37 39
39 38 39 38 38 38 37 37 37 36 36 35 35 35 35 35
35 34 33 33 33 33 32 31 31 31 31 31 30 30 30 29
29 29 28 28 27 27 27 27 27 27 27 27 28 28 29 32
33 33 33 27 22 25 25 32 31 30 30 29 29 28 29 27
26 27 26 23 27 27 28 29 29 29 29 30 30 30 30 30
30 31 31 30 32 32 33 32 33 33 34 34 33 33 33 34
33 35 35 35 36 36 36 37 37 37 37 38 37 37 37 37
37 37 37 37 37 37 37 38 37 38 38 38 39 38 38 38
39 38 38 38 38 37 37 38 37 37 36 36 35 35 35 35
35 34 34 34 33 33 33 32 32 32 31 31 31 30 30 29
30 29 28 28 28 28 28 27 27 27 28 27 27 29 30 33
34 34 33 28 23 26 24 32 31 31 31 30 29 29 29 27
28 27 27 23 28 27 29 30 29 29 30 30 30 30 30 31
30 31 31 32 32 32 33 33 33 34 35 34 34 34 35 35
35 35 35 35 35 36 36 37 37 37 38 38 38 38 37 37
38 38 38 38 38 38 38 39 38 39 38 38 38 38 38 39
39 39 38 38 38 38 38 37 37 37 36 35 36 35 35 35
35 34 35 34 33 33 33 32 32 33 32 31 31 31 30 30
30 30 29 29 28 28 28 29 29 28 28 28 28 29 30 34
35 34 34 29 24 27 24 32 32 31 31 30 29 29 30 28
28 28 27 24 27 28 30 30 30 30 30 30 30 30 31 32
32 32 32 32 33 33 33 33 34 34 35 34 34 35 35 35
35 36 35 36 36 37 37 37 38 38 37 38 38 37 38 37
38 38 38 38 38 38 38 38 38 39 39 38 38 39 38 38
39 39 39 38 38 37 37 38 37 37 37 36 36 36 36 35
35 35 35 34 34 33 33 33 32 32 32 32 31 31 31 31
30 30 30 29 29 29 29 28 29 28 29 29 29 30 31 34
35 35 34 28 24 28 24 32 32 32 32 31 30 30 30 29
29 29 28 25 29 27 30 30 30 30 31 32 32 32 33 32
32 32 32 33 33 33 34 33 34 34 35 35 34 35 36 36
36 36 36 36 36 37 37 37 37 37 37 38 38 39 38 38
38 38 38 37 37 37 38 38 38 38 39 39 38 39 38 38
39 39 38 38 38 38 38 37 37 37 37 37 36 36 36 36
36 35 35 35 35 34 34 33 33 33 33 32 32 32 32 31
31 30 30 30 30 29 29 30 29 28 29 29 29 29 31 35
35 35 35 30 25 30 26 33 34 33 32 31 31 30 31 29
28 29 28 25 28 26 30 31 31 32 32 33 32 32 33 33
33 33 33 33 34 34 34 34 35 34 35 35 35 36 36 36
37 36 37 37 38 38 38 38 37 38 38 38 38 38 37 37
37 38 38 39 38 37 38 38 38 38 39 39 38 39 39 38
39 38 38 38 38 38 38 38 38 38 37 37 37 36 37 36
36 36 35 35 35 34 34 34 33 33 33 32 32 32 31 32
31 31 31 31 30 30 29 29 29 29 30 29 30 30 32 35
36 36 36 30 25 30 27 32 34 33 33 32 32 31 33 31
29 30 29 26 30 29 32 32 32 32 32 33 32 32 33 32
33 33 34 34 34 34 35 35 35 35 36 36 36 36 37 37
37 36 37 38 38 38 38 38 38 37 36 36 37 38 38 39
38 39 39 39 41 38 39 38 38 39 38 38 39 39 39 38
39 39 39 39 39 38 38 38 38 38 37 37 37 37 36 36
36 35 35 35 34 34 34 34 34 34 33 33 33 32 32 32
32 32 31 31 30 31 31 31 30 30 29 29 30 30 32 36
36 36 36 31 26 32 28 32 34 33 33 32 32 31 33 31
30 29 29 26 30 29 32 33 33 33 33 34 33 33 34 33
34 34 34 34 34 34 35 35 36 36 35 36 37 37 37 37
37 38 37 38 38 38 38 37 38 38 39 39 39 39 39 39
39 39 39 39 40 39 39 39 38 39 39 39 39 39 39 39
39 39 39 38 38 38 38 38 38 38 38 37 37 37 37 37
37 36 35 35 35 35 34 34 33 34 34 33 33 33 32 32
33 32 32 32 31 31 30 30 30 30 31 30 30 32 32 36
37 37 37 32 26 32 29 31 34 34 34 34 33 32 33 31
30 31 30 27 31 30 33 33 33 34 34 34 33 34 34 34
34 34 34 34 35 35 36 35 36 36 37 38 37 37 37 38
37 37 37 37 38 38 39 39 39 39 38 39 39 40 40 39
40 40 40 39 40 39 38 38 38 39 39 39 39 39 39 39
39 39 38 38 38 38 38 38 38 38 37 37 38 37 37 36
36 36 35 35 35 35 35 34 34 34 34 34 34 33 33 33
33 32 32 32 31 31 31 30 31 31 30 30 31 32 33 36
37 37 38 32 27 32 31 30 34 34 34 34 33 32 33 32
31 31 30 28 30 30 34 34 34 33 34 35 34 34 35 35
34 34 34 35 35 35 36 37 37 37 37 37 37 37 36 36
37 37 38 39 39 39 39 39 40 40 40 39 40 39 40 39
39 39 39 39 40 40 39 39 39 39 39 39 39 39 39 39
39 39 39 39 39 39 39 38 39 38 38 38 38 37 37 37
37 37 36 36 35 35 35 35 34 34 34 34 34 34 33 34
33 32 32 32 32 31 30 31 31 31 31 31 32 32 33 37
38 37 38 32 27 32 33 29 35 35 34 34 33 33 33 32
31 32 31 28 31 31 33 34 33 33 34 35 34 35 35 35
35 35 36 36 36 36 37 37 37 37 37 37 37 37 37 38
38 38 39 40 39 39 39 40 40 39 40 40 40 39 40 40
40 40 40 40 40 40 39 39 39 39 40 39 39 39 39 39
39 39 39 39 39 39 39 39 38 39 38 37 37 37 37 36
37 36 37 36 36 35 36 36 35 36 35 35 34 34 34 33
33 33 32 32 32 32 32 32 32 32 31 32 32 33 34 37
39 38 38 33 26 33 34 29 36 35 35 34 34 33 31 32
32 32 31 29 31 31 34 34 34 34 35 35 35 35 35 35
35 35 36 36 36 37 37 37 37 37 37 37 37 38 38 39
38 38 38 40 39 40 40 41 40 40 40 40 40 39 40 40
39 39 40 39 40 39 39 39 40 39 39 39 39 40 40 40
40 40 40 39 39 39 39 39 39 39 38 38 39 38 38 37
38 37 37 37 36 36 35 35 36 35 35 35 35 34 34 34
33 34 33 32 33 33 32 32 31 32 32 32 32 33 34 38
39 39 38 34 27 34 36 29 36 36 35 35 35 35 33 33
33 33 32 30 31 32 34 35 35 35 35 36 35 36 36 36
36 36 36 37 37 37 37 37 38 37 38 38 38 38 39 39
39 39 40 40 40 40 41 41 40 41 41 40 40 40 40 40
40 40 40 39 40 40 40 40 40 40 40 40 40 40 40 40
40 40 40 39 39 40 39 39 39 39 39 38 38 38 37 38
37 38 38 37 38 37 36 36 36 36 36 35 35 35 34 34
34 33 33 33 33 33 32 33 32 33 33 32 33 33 35 38
39 39 39 35 27 33 38 29 36 37 36 36 35 35 34 34
33 33 33 29 31 32 35 36 36 35 36 36 35 36 35 35
35 36 36 38 37 37 38 38 38 38 39 39 39 38 39 39
39 40 40 41 40 41 41 40 41 40 40 41 40 40 40 40
40 40 40 40 40 41 39 40 41 41 41 41 41 41 40 39
40 39 40 40 39 39 39 39 39 39 39 38 39 38 38 38
38 38 38 38 37 36 37 36 36 36 36 36 36 35 35 35
35 34 34 34 33 34 33 33 33 32 32 33 33 34 34 38
40 40 39 35 28 34 40 30 36 36 37 36 36 35 34 35
33 33 32 30 32 32 35 35 36 35 35 35 35 36 36 36
37 37 37 38 37 38 38 38 38 38 38 39 39 39 39 39
40 40 40 41 41 40 41 40 40 40 40 40 40 40 40 40
40 40 40 41 41 41 40 40 40 40 39 39 39 39 40 39
40 40 39 39 39 39 39 38 38 39 38 39 38 38 38 38
38 37 37 37 37 37 37 36 36 36 36 35 35 34 35 34
34 34 34 34 34 33 33 33 33 33 33 32 33 34 35 38
40 40 39 35 27 34 40 30 35 37 36 36 35 35 34 34
33 33 32 31 31 31 34 35 35 35 35 36 36 36 36 37
37 37 37 38 37 37 38 38 38 38 38 39 39 39 39 39
40 40 40 40 40 40 41 40 40 40 40 40 40 39 40 40
40 40 41 40 40 38 37 37 38 39 39 39 40 39 41 39
40 39 39 39 39 39 38 39 39 38 38 38 38 38 38 38
38 38 37 37 37 36 36 36 36 36 35 35 35 35 35 35
34 35 34 34 33 34 33 33 32 32 32 32 33 33 35 38
40 40 39 36 27 33 41 32 33 36 36 36 35 34 34 34
33 33 33 29 30 32 34 35 35 35 36 36 36 36 36 36
37 37 37 38 38 37 37 37 37 37 38 38 38 39 39 39
40 40 39 40 40 40 40 40 40 40 40 40 39 40 39 40
40 38 38 39 39 38 38 39 39 39 38 37 39 39 40 38
32 35 38 39 38 39 39 38 38 38 38 38 38 38 38 37
38 37 37 36 36 36 36 36 35 35 35 35 35 35 34 34
34 33 33 33 33 33 33 33 32 32 32 32 32 33 34 38
40 39 39 35 27 32 40 33 32 37 36 36 35 34 33 33
32 33 32 30 30 33 35 35 35 36 36 36 35 36 36 36
36 36 37 37 36 37 37 37 38 38 38 38 39 39 40 39
39 39 39 40 39 39 40 39 39 40 40 39 39 37 36 37
38 38 39 39 39 38 38 38 38 38 38 39 38 38 39 37
14 24 39 39 38 38 38 38 38 38 38 38 38 38 38 38
38 37 37 37 36 36 36 36 36 35 35 35 35 35 35 35
34 34 34 33 34 33 32 33 32 32 32 32 32 33 34 38
39 39 39 36 27 32 41 36 31 37 36 35 35 34 33 34
33 33 33 32 31 33 35 37 36 36 36 36 36 36 36 36
37 37 38 38 38 37 38 38 38 38 38 38 39 39 39 40
40 40 39 40 40 39 39 39 39 39 39 38 39 38 39 39
39 39 39 39 39 39 38 38 38 38 38 38 38 38 39 38
12 22 37 39 39 39 39 39 38 38 38 38 38 38 38 38
38 37 37 37 36 37 36 35 35 36 36 35 35 35 35 35
34 34 34 33 33 33 34 33 32 32 32 32 33 34 35 38
39 39 38 35 27 32 41 36 29 36 36 36 36 34 34 35
33 33 33 32 31 34 35 36 36 35 36 36 36 36 37 36
37 37 37 38 38 38 38 38 38 38 39 39 39 40 40 40
39 40 39 39 38 39 38 38 38 39 39 39 40 39 39 39
39 40 39 39 39 38 38 38 38 38 38 38 38 38 39 38
14 21 37 39 40 39 39 38 37 38 39 40 39 38 38 38
38 38 37 37 37 37 36 36 37 36 36 36 40 42 39 36
36 35 34 34 33 34 33 33 33 33 33 33 33 34 35 38
40 40 40 36 28 33 41 38 29 37 37 36 35 35 34 35
33 33 33 32 31 34 35 37 37 37 37 37 37 37 37 37
37 37 38 39 39 39 39 39 39 38 39 39 39 39 38 39
39 39 39 39 39 39 39 39 39 39 39 39 40 40 39 39
39 39 39 39 39 40 39 39 39 39 39 38 38 38 38 38
14 22 38 39 39 40 39 38 40 48 47 45 44 41 40 39
37 38 38 37 38 37 37 36 36 37 37 37 48 51 48 43
42 40 36 34 34 34 34 33 34 34 33 34 34 35 36 39
39 37 36 34 28 32 42 39 28 37 37 37 37 36 35 36
34 34 34 32 31 34 36 37 36 36 37 37 37 37 37 37
38 38 38 39 40 39 38 38 38 39 39 40 39 39 40 39
40 39 39 39 39 39 39 39 40 39 39 38 39 40 39 39
40 39 39 39 39 39 39 38 39 38 39 39 39 39 39 39
16 25 40 40 40 39 39 39 41 51 51 50 48 45 44 43
42 39 39 38 38 37 37 36 37 37 37 38 49 49 47 45
45 45 42 36 34 34 34 34 34 34 34 34 34 35 36 39
41 37 34 35 28 28 26 37 32 37 38 37 36 36 36 36
34 34 34 33 32 35 36 37 37 37 38 38 38 37 37 38
38 38 38 39 39 38 38 38 38 39 39 39 40 39 40 39
40 40 39 39 40 39 39 40 40 40 39 39 40 40 39 40
40 39 39 39 38 39 39 39 39 39 39 40 39 38 38 39
16 27 43 42 41 41 40 39 42 53 52 50 47 46 47 49
51 45 44 43 42 40 37 37 37 37 37 38 46 45 44 44
45 45 44 37 35 34 35 35 35 35 35 34 35 36 39 39
38 34 42 33 25 21 24 35 41 40 39 38 37 37 36 36
34 35 34 33 32 35 36 38 38 37 38 38 38 38 38 38
37 38 39 39 39 39 39 39 39 39 39 41 41 40 40 39
40 40 40 40 39 39 39 40 40 39 40 40 40 41 40 39
40 40 40 39 39 39 39 39 38 39 39 39 39 39 39 39
17 28 45 44 43 43 43 42 43 44 38 45 47 49 51 53
53 46 40 44 47 45 43 42 41 40 38 38 37 25 28 30
36 40 42 39 36 35 35 35 34 35 35 34 35 38 41 38
37 48 42 26 26 24 27 38 45 46 43 39 37 37 37 37
35 35 34 34 32 36 36 39 38 38 38 38 38 38 38 39
38 38 39 38 39 39 40 39 39 40 40 40 41 39 40 40
40 40 41 40 39 40 40 39 40 40 40 39 40 41 40 40
40 39 39 40 40 40 40 39 40 39 39 39 40 40 40 40
17 28 46 44 38 39 44 47 50 30 2 10 28 39 43 46
50 43 11 10 19 27 36 38 42 46 44 41 36 19 13 15
15 13 17 38 36 36 36 35 35 35 35 35 37 42 43 37
55 53 33 26 26 15 25 37 46 55 50 45 39 38 37 38
35 36 36 35 33 36 36 37 38 38 38 38 38 39 39 39
39 39 39 40 39 40 39 39 40 40 40 41 42 40 41 41
41 41 41 41 41 41 40 40 40 39 39 40 40 41 40 39
39 40 40 40 40 40 40 40 40 40 39 41 40 40 40 40
18 27 43 46 43 41 41 50 54 29 0 0 7 18 21 21
31 40 4 0 0 0 4 9 15 24 31 40 36 15 6 10
11 4 4 38 37 36 36 36 36 36 36 36 41 49 43 42
77 69 66 72 68 63 58 53 54 60 58 51 45 38 37 38
36 36 36 35 33 37 36 38 39 39 39 39 40 38 39 39
39 39 39 39 40 40 40 40 40 40 40 41 42 41 41 41
41 40 42 41 41 41 41 40 40 40 40 40 40 41 40 40
40 39 40 40 41 41 40 41 40 40 40 40 40 41 40 38
18 15 13 20 31 40 45 50 54 32 0 0 5 11 15 16
24 40 5 0 0 0 0 0 0 0 2 30 37 12 1 2
5 4 4 38 38 37 37 36 36 35 34 34 34 38 34 52
74 79 99 101 100 97 95 87 77 72 68 58 48 45 38 38
36 36 36 35 33 37 36 39 39 39 39 40 41 39 40 40
40 40 39 40 40 40 40 40 41 40 40 41 42 41 42 41
41 41 41 41 41 41 41 40 41 40 40 40 40 41 41 40
40 40 40 40 41 40 40 41 40 40 40 40 39 40 41 40
18 10 0 0 0 4 11 20 32 30 0 0 3 5 4 8
20 41 8 0 0 0 0 0 0 0 0 30 35 5 0 0
2 2 4 39 38 36 37 30 23 35 33 28 7 7 9 13
23 24 26 67 111 128 136 125 90 65 56 50 51 41 43 38
36 36 36 36 33 37 37 40 40 40 39 40 41 40 40 39
40 39 39 39 40 40 40 41 41 41 41 41 42 41 42 41
41 41 42 41 41 41 41 41 41 40 41 41 41 41 40 41
41 41 41 40 41 40 40 41 41 41 41 41 40 40 40 40
18 9 0 0 0 0 0 0 2 23 0 0 0 0 0 2
18 38 3 0 0 0 1 1 0 0 0 29 31 1 0 0
0 2 6 41 38 30 17 7 70 100 55 7 0 0 0 0
0 1 3 15 113 135 142 136 98 7 9 15 28 35 43 47
38 33 36 36 33 37 37 40 40 40 40 40 40 40 39 40
40 40 40 40 40 40 41 41 41 41 41 42 43 41 42 42
42 42 42 42 42 42 41 41 41 41 41 41 41 41 41 42
42 41 41 42 41 40 41 41 41 41 41 40 40 40 40 40
18 9 0 0 0 0 0 0 1 20 0 0 0 0 0 0
21 41 4 0 0 0 9 13 3 0 0 27 30 1 0 0
0 0 4 41 38 22 13 91 53 1 0 0 0 0 0 0
0 0 0 43 136 134 142 135 124 25 0 0 0 3 35 35
16 11 24 32 33 38 37 40 40 40 40 39 41 39 39 40
40 40 40 41 40 40 41 41 42 42 42 42 42 41 42 41
41 42 43 43 42 42 42 42 41 41 40 41 41 42 42 41
41 41 41 41 40 40 41 41 41 41 41 41 41 41 41 41
18 10 0 0 0 0 0 0 0 17 0 0 0 0 0 0
20 44 5 0 0 1 12 18 14 9 1 25 31 0 0 0
0 0 2 40 39 18 9 11 0 0 0 0 0 0 0 0
0 0 12 98 114 80 143 99 114 57 0 0 0 0 6 48
76 78 43 4 15 32 37 41 40 40 40 40 41 40 39 40
40 41 41 41 41 41 42 41 41 41 42 42 43 41 42 42
43 42 42 43 42 41 42 42 41 42 42 42 42 42 41 41
41 41 41 40 39 41 42 42 42 42 41 42 42 42 42 42
18 10 0 1 0 11 6 0 0 15 0 2 0 0 0 1
19 45 7 0 0 3 15 19 18 17 6 23 33 1 0 0
0 0 1 38 40 15 3 0 0 0 0 0 0 0 0 0
0 3 60 130 64 113 142 80 79 105 3 0 0 0 0 0
0 2 34 39 9 29 37 41 41 41 40 40 40 40 40 40
40 40 41 41 41 41 42 42 42 43 43 42 42 42 42 42
42 42 42 43 43 42 42 41 42 42 42 42 41 42 41 40
41 41 41 41 41 41 42 42 43 43 42 43 43 41 40 39
19 11 2 11 5 6 2 0 0 14 1 0 0 0 0 4
19 46 8 0 1 2 12 17 17 16 6 21 36 4 0 0
0 0 0 37 41 13 19 2 1 1 0 0 1 3 7 11
10 24 114 99 105 141 142 122 73 127 26 6 0 0 0 0
0 0 0 0 7 28 38 41 41 40 40 40 41 41 40 41
41 41 41 41 42 42 42 42 41 42 42 41 41 42 42 42
42 43 43 43 44 44 43 43 43 42 42 42 42 42 42 41
42 41 41 40 41 41 42 41 41 41 40 42 41 38 37 35
19 12 7 6 0 3 2 0 0 17 1 0 0 0 0 6
26 49 13 1 4 3 1 8 14 16 4 20 45 36 27 18
12 8 10 39 41 11 30 27 8 10 12 15 24 36 47 63
90 101 128 130 128 142 142 140 106 135 71 26 21 11 6 13
45 50 37 4 5 27 37 41 41 40 40 40 40 41 41 41
41 41 41 42 42 42 42 42 42 42 43 42 42 42 42 43
42 42 43 43 44 43 43 42 43 42 42 42 42 41 42 41
41 41 39 38 38 41 41 39 37 37 34 32 29 26 24 21
18 13 4 1 0 0 0 0 1 28 21 12 10 8 2 1
20 55 41 32 27 23 13 6 7 10 3 18 49 51 47 46
45 46 48 52 41 6 34 29 30 66 41 69 107 117 114 126
130 117 108 115 129 130 130 129 118 122 107 118 98 65 38 34
64 93 105 45 1 25 37 41 40 40 40 40 41 40 41 41
40 41 41 41 42 42 42 42 42 41 42 42 41 41 42 43
43 43 43 43 44 42 42 41 41 40 39 41 39 38 38 37
38 39 36 36 35 33 30 27 24 22 19 19 19 19 20 21
18 11 0 0 0 0 0 0 1 41 55 45 41 40 36 27
33 58 37 30 33 35 35 33 31 29 27 36 51 49 48 48
50 55 58 57 41 5 37 23 41 89 98 122 133 131 127 136
136 120 109 118 122 122 121 120 117 108 112 139 139 135 126 105
66 15 8 16 9 24 38 40 40 40 39 40 40 41 41 41
41 41 41 41 42 42 41 41 41 41 42 42 41 42 42 42
42 42 42 42 42 41 40 39 38 38 38 39 38 37 35 32
30 27 25 23 21 20 21 20 21 22 23 24 25 26 27 27
18 12 0 0 0 0 0 0 1 44 58 47 53 55 59 58
54 55 29 18 20 20 21 23 24 27 31 37 37 35 39 43
47 51 52 52 39 7 36 27 63 98 121 139 142 143 143 141
131 114 123 126 115 113 118 111 109 119 113 124 141 141 141 137
124 85 30 37 15 24 38 41 41 41 41 41 40 41 41 41
40 40 40 41 43 41 41 41 41 42 42 42 42 42 42 42
42 42 42 42 41 41 39 40 42 34 30 28 25 23 21 21
21 22 23 24 24 25 26 27 28 28 29 29 28 24 30 32
19 22 24 17 11 5 2 0 2 44 50 47 55 58 61 61
52 44 27 19 19 19 18 17 16 15 15 15 15 17 20 24
35 41 37 37 33 12 37 39 82 113 137 143 143 143 143 135
116 121 119 113 118 138 137 139 115 108 117 112 129 141 141 141
138 123 68 27 17 24 38 41 41 41 41 41 41 41 41 42
41 41 39 40 42 40 41 41 41 41 42 42 42 42 42 41
40 39 36 34 32 29 26 28 41 30 19 21 24 24 25 26
27 27 29 29 30 31 31 32 33 33 33 33 34 30 25 32
19 30 50 53 49 43 36 31 28 47 41 45 53 56 60 61
55 47 32 21 20 18 16 15 15 14 14 13 14 15 14 15
32 35 34 36 30 18 41 59 95 123 142 143 143 142 139 126
119 117 117 123 128 129 129 132 124 116 109 114 118 139 142 141
141 134 105 33 14 24 39 41 41 40 40 40 40 39 40 40
40 40 39 39 41 41 41 41 41 41 42 40 38 36 33 30
28 26 24 24 24 25 25 24 35 27 23 27 29 30 31 32
32 33 33 34 35 34 35 35 36 36 36 34 36 36 34 26
19 29 51 55 55 53 54 55 56 53 26 27 37 43 49 53
50 47 35 21 18 16 13 13 13 14 16 15 16 17 17 20
35 24 17 38 26 16 46 76 104 131 143 143 143 141 141 127
111 107 126 120 130 139 142 142 140 133 111 97 118 135 141 142
141 139 120 60 14 22 37 40 40 39 39 39 38 38 37 37
37 39 39 39 39 39 38 37 34 31 30 27 26 25 25 25
27 27 28 29 29 30 31 29 36 30 27 32 34 34 35 36
36 36 37 37 37 36 37 36 36 36 37 35 36 38 39 34
18 28 50 56 56 54 56 56 57 51 11 2 4 8 14 23
27 39 37 20 17 12 3 3 3 10 17 17 14 14 19 21
35 41 39 45 24 15 46 86 111 136 143 144 144 142 142 120
97 108 109 130 132 126 128 127 126 125 119 93 101 139 141 142
142 141 129 87 21 21 37 38 39 37 37 36 35 35 34 26
31 36 33 32 30 28 28 27 26 26 27 28 28 30 31 31
33 34 34 34 35 35 36 33 36 31 31 36 37 37 37 37
38 38 39 38 39 39 39 38 38 36 37 37 36 39 39 40
25 29 41 45 46 48 49 51 56 47 7 0 0 0 0 6
16 38 37 18 17 12 0 0 1 3 7 8 5 4 10 12
32 47 42 39 19 25 56 91 116 139 144 143 143 142 138 115
95 108 116 116 127 141 142 142 142 140 132 112 86 132 142 141
141 141 131 100 38 21 35 35 35 35 35 35 32 31 29 22
24 26 26 27 28 28 30 30 32 33 33 34 34 34 35 36
37 38 37 38 39 39 37 30 18 16 28 37 39 39 39 39
39 39 40 39 39 39 39 39 40 39 37 37 37 37 39 39
26 28 29 31 35 39 38 41 50 44 5 0 0 0 2 0
4 38 38 17 15 9 0 0 5 4 0 1 0 0 1 5
29 47 39 38 21 35 69 97 120 139 143 143 143 138 131 108
103 109 110 126 141 142 142 142 142 141 141 136 109 107 131 141
141 140 132 106 58 22 37 32 30 28 27 26 26 27 27 26
28 30 31 32 33 34 35 36 36 36 37 38 38 37 38 39
39 39 40 39 39 39 38 27 7 5 22 37 40 40 40 40
40 40 39 40 40 40 40 40 40 40 39 37 38 36 38 39
24 26 26 26 30 37 35 39 50 43 4 0 0 0 1 1
0 36 34 10 5 0 0 0 10 12 6 3 0 0 0 2
28 49 41 43 19 45 76 101 124 141 142 142 143 140 125 117
109 110 125 139 143 142 143 142 142 142 142 141 127 103 106 130
142 140 130 108 69 19 33 24 25 28 28 29 30 31 33 33
33 35 36 37 38 38 39 38 39 39 40 40 40 40 41 40
41 41 40 33 28 22 33 25 12 6 20 36 39 41 40 40
40 40 40 39 40 40 40 40 40 40 39 39 37 36 37 38
22 24 24 29 33 39 40 45 50 42 3 0 0 0 0 0
1 39 27 0 0 0 0 1 6 15 13 5 2 0 0 1
28 49 44 48 12 53 78 102 126 142 137 141 143 139 124 114
109 118 134 143 142 142 142 143 142 142 141 142 134 110 107 120
141 139 131 112 82 21 31 27 31 32 33 34 35 35 36 37
37 38 40 39 39 39 40 40 41 40 41 41 42 41 42 41
42 42 30 6 4 6 27 24 3 1 19 38 40 40 41 39
40 40 40 40 40 40 40 40 40 39 39 39 39 36 34 35
25 21 3 4 8 14 19 25 32 35 3 0 0 0 0 0
2 40 27 0 0 0 0 2 6 16 19 14 7 0 0 1
27 49 46 49 20 59 82 101 124 139 141 142 142 136 122 112
118 129 138 143 143 143 142 142 142 142 142 141 135 115 106 113
133 139 130 113 88 33 33 31 35 36 36 37 38 38 37 39
40 40 40 40 40 41 41 42 41 41 42 42 42 43 42 42
42 42 35 25 29 33 36 28 2 2 17 36 39 40 41 39
40 40 40 40 40 40 40 39 39 39 39 38 39 38 36 33
29 23 1 0 0 0 0 0 1 21 3 0 0 0 0 0
3 41 23 0 0 0 0 4 18 20 21 17 10 0 1 4
28 50 48 44 37 60 83 102 122 136 141 143 139 130 119 117
128 137 141 142 141 140 142 141 141 141 141 138 132 126 114 107
126 138 132 116 92 45 37 34 38 38 38 39 38 38 38 40
40 40 41 41 41 42 41 42 41 41 42 43 43 42 43 42
42 43 42 40 40 38 38 30 5 0 18 36 39 40 40 40
40 40 40 40 40 39 40 39 40 39 38 39 39 38 38 35
29 23 1 0 0 0 0 0 0 18 3 0 0 9 5 0
1 39 20 0 0 0 0 4 20 24 21 10 5 0 3 6
26 48 50 36 43 64 82 99 119 133 141 142 140 128 121 125
133 139 143 143 142 141 142 142 142 142 141 138 138 136 126 111
118 134 130 117 96 56 44 38 39 40 40 40 40 39 39 41
41 41 41 41 41 41 42 42 42 42 42 43 43 43 42 43
43 43 42 41 40 39 38 34 11 1 24 36 40 40 41 40
40 40 39 40 40 39 40 39 39 39 39 39 39 39 38 35
28 23 1 0 0 5 1 0 0 16 3 0 5 21 14 3
1 39 19 0 0 0 0 1 4 16 13 0 1 1 3 2
21 47 49 33 43 67 81 99 118 131 141 143 138 129 127 133
139 140 141 142 141 143 142 143 141 142 141 141 140 137 131 122
118 129 129 118 97 61 44 39 40 40 40 40 40 39 40 41
41 41 41 42 41 42 42 41 42 42 42 42 43 42 42 42
42 41 41 41 41 39 37 34 22 12 30 38 40 41 42 40
40 40 39 39 39 39 40 39 39 39 38 38 39 38 38 35
25 22 1 0 5 18 9 1 0 16 5 0 13 21 17 7
1 38 17 1 2 0 0 1 0 13 14 0 0 0 0 0
17 44 47 31 41 67 80 98 117 129 139 141 138 131 134 141
142 141 140 141 142 142 142 141 142 142 141 141 138 137 135 131
124 126 125 117 96 59 36 39 41 40 41 40 40 40 41 41
41 41 42 42 42 42 42 42 42 42 42 42 42 41 42 41
42 42 41 41 40 39 37 33 31 30 35 39 40 40 42 40
40 40 39 39 40 39 40 39 40 39 39 39 39 39 39 37
24 22 1 0 13 25 13 6 0 20 28 21 29 29 28 22
12 41 17 0 0 0 0 0 0 12 18 0 1 0 0 0
12 43 45 36 51 68 78 95 116 127 134 137 135 135 135 138
138 138 141 142 142 142 142 142 142 142 142 141 137 139 138 136
130 126 124 115 95 53 31 40 41 40 40 40 40 41 41 41
41 41 42 41 42 42 42 42 42 42 42 42 42 42 42 42
42 42 41 41 40 39 38 34 34 35 39 40 41 40 41 40
40 40 40 40 40 40 40 40 39 40 40 40 40 39 38 37
23 22 2 0 7 12 6 3 0 21 47 45 50 50 48 49
50 54 21 0 2 1 0 0 1 14 20 3 6 3 0 0
10 42 50 50 73 75 75 92 111 123 131 132 136 135 135 136
131 134 139 142 142 143 142 142 142 142 141 139 137 136 139 138
134 128 122 111 94 49 30 41 42 41 41 40 41 41 41 41
41 42 42 41 41 42 42 41 41 42 42 42 42 42 43 42
42 42 42 42 41 40 39 37 36 38 41 40 40 40 41 40
40 40 41 40 40 39 40 39 40 40 41 40 39 39 39 38
25 25 8 2 3 3 1 1 0 21 49 48 52 51 52 56
61 60 37 22 25 18 11 8 11 20 25 12 10 7 5 3
15 50 83 91 88 80 73 89 108 121 125 129 133 134 132 130
126 130 137 141 142 142 142 142 142 142 142 139 138 134 136 135
133 129 120 108 92 44 28 42 42 41 41 40 41 42 41 42
42 42 41 41 41 41 42 41 42 42 42 42 42 42 42 42
42 43 43 41 40 41 40 38 38 40 42 41 42 41 41 41
41 41 40 39 39 40 41 40 40 40 40 39 38 37 38 36
26 27 23 6 2 3 0 0 0 20 47 46 50 49 50 57
61 61 49 42 41 40 37 36 36 36 34 30 26 23 23 22
31 70 84 99 95 89 72 83 103 116 122 124 125 130 130 125
124 131 137 141 143 142 142 143 142 142 142 138 139 132 130 133
131 126 116 106 87 66 36 40 42 42 41 41 41 42 41 42
42 42 42 42 42 42 42 42 42 42 43 42 42 43 43 43
43 43 42 41 42 41 40 39 40 41 40 39 39 40 40 41
41 40 40 39 40 40 40 40 40 40 40 39 39 38 38 37
27 28 19 2 0 1 0 0 0 21 46 43 45 46 46 47
45 44 44 44 45 45 43 42 43 43 43 41 38 36 35 34
42 82 96 104 95 101 74 76 96 110 117 120 122 126 126 127
128 134 139 141 143 143 143 143 143 142 142 139 138 132 130 131
130 121 113 103 82 92 78 47 42 42 41 41 42 42 42 42
42 43 43 43 43 42 42 42 43 42 42 42 43 43 43 43
42 43 42 41 42 41 40 40 41 41 41 41 41 41 42 41
41 41 40 40 40 40 40 40 40 39 39 39 38 39 38 37
29 29 16 3 1 2 0 0 0 21 48 41 43 44 43 44
42 41 44 45 46 47 47 46 45 44 44 42 46 49 47 43
49 90 101 105 94 100 89 71 87 105 114 117 119 122 123 128
132 137 140 142 142 142 142 142 142 142 141 139 137 131 129 130
127 120 111 97 77 98 76 51 42 41 41 41 41 41 42 41
42 42 42 42 42 42 42 41 41 41 41 42 42 42 41 41
42 42 42 41 41 42 41 40 42 42 42 41 41 41 41 40
40 40 40 40 39 39 39 39 38 38 38 38 38 37 37 36
28 27 34 33 31 26 24 21 17 32 51 44 44 44 44 44
45 46 49 46 47 50 54 53 47 44 44 44 52 55 53 49
55 89 99 112 85 98 104 77 76 97 111 117 119 122 124 132
137 141 142 142 143 143 142 142 142 142 141 140 137 133 129 128
125 119 107 86 84 104 67 50 43 41 42 42 41 41 41 42
42 41 42 41 43 41 41 41 41 41 42 42 42 42 42 43
42 42 42 41 42 41 41 41 42 42 41 40 41 41 41 40
41 39 40 40 39 39 38 38 38 37 37 37 37 36 37 36
28 28 46 54 55 52 53 55 55 55 55 47 46 46 46 47
49 52 55 48 49 51 55 52 48 44 40 39 51 55 52 50
53 85 98 110 102 107 103 96 73 83 103 113 121 127 130 136
140 143 143 143 142 143 143 142 142 142 142 140 135 131 130 131
125 117 102 77 104 112 61 48 42 41 40 41 40 40 42 41
42 42 42 42 42 43 41 41 41 41 41 42 42 42 41 42
42 41 41 41 41 41 41 42 41 41 40 40 40 40 40 40
40 39 39 39 38 38 37 37 37 36 36 36 35 35 35 34
28 28 49 60 60 59 60 60 60 60 56 42 39 37 37 39
43 50 56 50 49 47 45 46 48 45 41 37 45 44 40 41
48 76 86 97 99 107 103 89 86 67 87 107 119 128 132 131
135 142 143 143 143 143 143 143 143 142 141 139 134 131 130 130
123 112 90 81 107 115 70 46 42 41 41 41 41 41 41 42
42 42 42 42 43 42 41 41 41 41 41 41 41 41 41 41
41 41 40 40 40 40 41 41 41 40 40 40 41 39 39 39
39 38 38 37 37 36 36 36 36 35 34 35 34 34 35 35
29 26 36 44 45 47 48 51 52 54 51 18 13 10 7 9
14 24 47 51 46 27 19 24 27 27 31 40 40 21 10 16
36 56 87 97 104 87 44 31 91 81 69 91 114 125 131 128
131 139 143 143 143 142 142 143 142 142 141 138 134 128 129 127
116 97 74 100 108 105 82 46 42 41 41 41 41 41 41 41
41 42 42 43 42 42 41 41 41 41 40 40 41 41 41 40
38 37 37 36 33 34 37 40 41 40 40 40 40 40 39 38
39 38 38 37 36 36 35 36 35 33 33 33 32 33 34 33
29 26 31 35 36 36 35 35 35 36 39 12 0 0 0 0
0 4 39 50 35 7 0 3 8 12 24 42 40 15 1 10
34 43 71 87 84 26 17 66 83 95 82 75 105 122 128 128
129 137 140 143 143 142 143 143 143 142 141 138 131 128 129 121
101 73 66 74 117 105 76 46 42 40 40 41 41 41 41 42
42 42 42 42 41 40 38 37 36 36 37 40 41 41 40 35
22 19 16 15 13 14 28 41 41 41 41 40 40 40 39 39
38 37 37 35 35 35 34 34 34 33 33 33 33 33 33 34
28 25 36 42 42 41 41 40 40 39 40 16 6 0 0 0
0 14 41 48 21 0 0 0 0 2 22 43 41 15 0 13
33 40 41 53 34 2 44 81 85 94 94 76 96 116 123 126
126 134 139 143 143 143 143 143 143 142 142 135 130 129 128 117
88 76 51 23 102 108 81 40 42 40 40 41 40 41 41 41
40 34 30 27 25 23 19 16 15 16 19 34 41 40 41 34
12 8 9 9 9 9 25 42 41 42 41 40 39 39 39 38
37 36 36 35 35 34 33 33 34 33 33 33 32 32 33 33
27 26 38 44 44 45 44 44 44 45 42 16 6 1 0 0
0 14 40 45 11 0 0 0 0 0 16 43 40 15 0 14
35 39 32 17 8 11 49 82 87 92 96 85 92 115 122 126
125 130 138 143 143 143 143 143 142 142 140 133 130 131 129 111
90 90 65 5 22 64 60 34 44 39 40 41 40 41 41 41
36 16 9 10 12 11 7 5 5 4 6 28 40 40 40 33
12 9 9 9 9 10 26 41 42 41 41 40 40 39 38 37
36 36 35 34 34 33 33 32 32 31 31 31 31 31 31 31
30 29 39 45 46 45 44 44 46 47 45 14 3 0 0 0
6 6 33 42 7 0 0 0 0 0 16 42 39 14 0 15
38 44 34 21 19 20 39 84 89 92 95 87 95 114 119 123
123 126 137 144 143 143 143 143 143 142 141 134 133 134 128 111
95 95 71 10 14 17 9 33 47 40 40 40 40 40 41 41
35 12 5 9 10 11 8 5 5 4 6 24 40 40 40 31
10 9 10 9 9 9 23 40 41 41 41 40 39 39 38 37
36 35 35 33 33 32 31 30 31 31 30 30 29 29 30 30
40 39 41 42 43 42 32 20 26 40 48 18 0 0 0 1
10 5 31 41 6 0 0 0 0 0 17 43 37 13 0 21
42 44 33 22 30 29 26 74 94 98 97 92 101 117 122 123
124 124 137 143 143 143 143 143 143 142 142 135 135 137 131 112
96 99 67 11 25 20 2 31 47 40 40 40 40 41 42 41
35 12 5 9 11 11 7 4 5 4 5 24 40 40 40 32
11 9 9 10 9 9 20 41 42 40 39 39 38 38 37 35
35 34 34 33 32 32 31 31 30 29 29 29 29 29 29 30
40 40 40 40 40 39 26 0 5 29 52 29 7 0 0 3
9 3 27 40 3 0 0 0 0 0 15 44 36 18 5 21
44 40 34 24 37 30 17 56 98 103 97 96 107 121 123 124
126 124 139 144 143 143 144 144 143 143 142 139 139 141 135 117
99 103 75 8 21 29 4 30 44 39 40 41 41 41 42 41
35 12 5 8 11 10 8 4 5 4 5 25 40 40 40 34
14 11 11 12 13 12 18 37 38 38 37 38 37 37 36 36
35 34 34 33 32 31 30 29 29 28 27 28 27 28 28 28
39 39 39 39 39 39 28 0 1 23 51 25 3 0 0 1
8 5 28 39 3 0 0 0 0 0 9 43 37 21 7 25
45 36 32 26 41 30 15 39 97 104 101 102 110 125 128 125
129 127 140 144 144 144 143 143 143 142 143 141 142 142 135 119
102 105 87 10 31 38 6 29 42 39 40 40 40 41 41 41
35 13 4 7 11 11 7 4 5 5 5 23 39 40 40 36
21 18 17 17 17 17 23 32 34 36 39 39 37 37 36 35
34 34 33 33 31 29 28 28 28 27 26 27 27 26 26 27
27 28 29 32 36 39 31 2 0 20 48 16 0 0 0 0
0 0 26 40 4 0 0 0 0 0 7 44 38 18 5 27
47 36 33 29 42 27 15 25 90 105 106 105 113 126 133 129
129 131 142 144 144 144 144 144 143 143 143 142 142 142 137 122
106 107 93 15 55 36 29 29 40 41 40 41 40 40 41 40
35 14 5 7 8 7 6 4 6 5 5 23 40 41 40 36
17 12 12 9 2 1 4 7 5 9 37 39 38 38 36 36
35 33 32 31 30 29 28 27 27 27 26 26 26 25 25 26
1 1 2 20 37 38 32 3 0 16 43 13 0 0 0 0
2 0 23 44 6 0 0 0 0 0 6 42 40 24 16 30
47 35 32 34 44 26 16 17 84 108 110 110 115 127 136 133
129 134 144 144 144 144 144 143 143 143 142 142 142 142 139 124
111 113 96 25 34 33 41 27 40 40 39 40 40 40 40 40
36 15 5 6 5 3 5 4 6 5 4 22 39 41 41 37
16 10 10 6 0 2 8 26 14 2 35 38 37 37 35 35
34 32 31 30 29 28 27 27 27 26 26 25 25 25 25 24
0 0 0 20 41 38 35 5 0 12 41 18 5 3 3 6
18 13 26 46 23 14 14 17 16 16 22 45 42 36 34 36
46 34 33 39 42 24 14 9 78 111 116 113 116 126 136 135
131 136 144 144 143 144 144 143 144 143 143 143 142 142 137 123
113 116 98 39 25 61 40 26 41 39 38 39 39 41 41 40
35 14 5 5 1 0 5 5 6 5 4 20 38 40 41 36
16 9 10 6 0 0 2 7 3 2 33 37 37 36 36 35
32 31 29 29 28 27 26 26 25 25 25 23 25 24 24 24
0 0 0 17 42 39 35 8 0 5 39 40 38 32 32 40
48 45 45 47 52 51 47 48 50 50 51 54 42 38 40 40
45 34 33 45 41 24 14 4 70 110 118 116 120 127 130 132
130 138 143 143 143 143 143 143 143 143 143 142 142 142 138 125
119 121 102 56 45 95 34 26 43 39 35 38 40 41 41 40
34 16 5 5 4 5 10 5 6 5 4 19 38 39 40 36
17 8 9 5 0 0 0 0 0 1 32 37 35 34 34 34
32 30 29 28 27 26 26 25 25 24 24 24 24 24 23 23
0 0 0 14 43 39 36 10 0 2 38 47 48 41 44 52
57 51 46 42 54 58 55 54 54 57 59 57 47 36 37 40
45 36 34 48 38 24 13 5 62 110 119 119 124 131 132 127
128 138 143 144 143 143 143 143 143 143 143 143 142 142 139 127
124 123 107 73 59 90 55 28 42 40 34 38 40 41 42 39
34 16 6 5 2 1 6 5 6 5 4 17 38 40 40 36
17 7 8 3 0 0 0 0 0 1 27 20 11 10 26 33
31 30 29 27 26 25 24 24 24 24 23 23 23 22 23 23
0 0 0 11 42 39 36 13 0 1 36 47 42 38 43 50
56 53 44 40 42 46 46 45 44 45 45 44 42 35 37 40
46 38 38 47 35 23 15 15 54 110 121 121 127 132 131 129
133 136 142 144 143 144 144 144 143 143 142 142 142 143 142 130
126 123 112 81 41 59 59 31 42 41 34 37 39 41 41 38
34 17 6 5 0 0 4 6 6 6 3 17 37 39 41 36
17 7 8 1 17 24 2 0 0 0 11 21 29 19 8 31
29 28 28 26 26 25 25 24 23 23 23 23 22 22 22 22
0 0 0 8 41 39 35 15 0 0 33 41 32 34 35 42
54 53 47 42 34 31 32 32 32 32 33 33 37 37 40 39
44 40 40 48 35 16 16 29 51 109 123 125 130 133 129 127
133 139 144 144 144 143 143 144 143 143 143 143 143 142 142 134
131 128 116 90 33 37 32 34 39 40 31 37 38 41 40 37
34 18 6 5 3 2 4 5 6 6 3 16 37 39 40 37
17 7 7 5 33 50 13 0 0 9 32 35 34 31 8 26
29 27 26 26 25 24 23 23 22 22 22 23 22 22 22 22
0 0 0 6 40 39 34 19 3 10 36 37 16 19 22 27
35 38 37 42 36 32 34 34 39 40 38 37 39 38 39 42
44 43 43 49 34 10 14 33 52 99 123 126 130 133 127 125
133 140 143 144 144 144 144 143 143 143 143 143 143 142 141 138
134 130 119 83 33 32 32 35 37 40 29 37 39 39 41 37
34 18 5 4 5 5 5 4 5 6 3 14 36 38 41 36
18 6 7 4 13 21 11 0 0 16 36 35 33 32 11 21
28 27 26 26 25 25 23 23 23 23 22 22 22 22 22 21
0 0 0 5 37 39 34 28 26 33 44 35 3 0 1 2
6 13 19 40 39 42 46 43 53 56 43 35 36 35 35 47
42 44 48 50 30 10 8 34 59 85 123 129 132 133 129 123
131 139 144 144 143 144 144 143 143 143 143 143 142 143 142 140
139 133 110 60 33 29 32 34 34 41 26 37 39 40 40 38
34 19 6 4 5 4 4 4 4 5 3 14 36 38 40 37
21 10 11 2 2 1 1 0 0 15 36 34 33 31 13 21
28 27 26 26 25 24 24 23 23 22 22 22 22 22 22 22
0 0 0 3 35 38 33 36 46 49 52 38 2 0 0 0
0 2 15 43 39 45 49 42 52 56 30 16 23 28 33 50
37 45 50 50 24 11 6 32 68 76 118 128 134 135 131 124
129 138 143 144 144 144 144 144 143 143 143 143 143 142 142 141
142 131 92 53 31 28 34 35 32 41 29 32 36 41 40 37
35 21 7 5 4 4 4 4 4 6 2 13 35 38 41 37
31 22 13 5 0 0 0 0 0 9 34 34 32 30 14 23
26 25 25 24 24 23 23 23 23 22 22 21 22 21 21 21
0 0 0 1 32 38 32 36 49 51 54 43 3 0 0 0
0 0 8 44 38 42 44 17 20 34 30 15 20 33 33 52
34 45 52 51 20 14 1 27 74 80 108 125 131 133 131 124
127 134 140 143 143 143 143 143 143 143 143 143 142 143 142 142
142 118 90 47 30 30 36 38 33 43 29 26 24 31 39 39
38 27 11 8 7 4 4 4 4 5 3 12 35 37 39 39
38 17 15 26 3 0 0 0 0 9 35 33 32 28 11 26
27 26 25 25 24 24 23 23 22 21 21 21 21 21 21 21
0 0 0 0 29 38 32 34 42 42 41 32 3 0 0 0
0 0 6 44 37 42 43 9 6 25 28 14 24 36 40 50
33 47 54 50 16 17 1 20 73 87 100 127 134 132 135 127
122 131 140 142 143 144 143 143 143 143 143 143 142 143 142 142
139 115 88 46 32 33 41 39 34 44 29 26 28 40 48 51
53 49 35 20 12 7 6 4 5 5 3 10 33 37 39 39
39 20 24 41 12 0 0 0 0 7 30 30 28 16 14 25
17 15 23 24 23 23 22 22 22 22 21 20 20 20 20 21
0 0 0 0 26 37 32 30 22 21 22 11 0 0 0 0
0 0 8 45 37 43 43 9 6 22 28 13 26 39 43 47
35 51 53 45 16 21 1 10 65 79 92 125 136 137 142 135
125 129 138 141 143 143 143 143 143 143 143 143 142 142 142 142
138 115 79 46 35 40 44 38 33 46 31 31 35 45 45 50
51 51 45 40 34 26 16 11 6 6 3 9 28 29 27 24
21 8 4 8 2 0 0 0 0 0 4 4 3 0 10 16
12 28 20 25 24 23 23 22 23 21 21 21 21 21 21 21
0 0 0 0 24 37 32 29 21 19 21 10 0 0 0 0
0 0 9 46 38 44 43 9 6 23 27 20 27 40 44 47
37 53 52 42 21 24 2 8 54 63 82 122 133 138 143 141
130 134 141 142 144 144 144 144 144 144 144 144 143 143 143 143
140 109 78 45 39 43 45 40 32 49 36 34 37 47 46 46
48 50 50 51 50 44 38 27 17 9 1 0 1 1 0 0
0 0 0 0 0 0 0 0 0 0 1 0 0 0 6 12
81 105 43 23 23 22 23 22 22 22 21 21 21 21 22 22
0 0 0 0 23 37 32 29 23 21 23 10 0 0 0 0
2 0 7 45 38 45 43 11 7 22 29 27 33 44 43 43
40 51 56 43 24 26 7 16 44 60 76 114 131 140 144 143
135 135 142 145 144 144 144 144 143 144 144 143 143 143 144 144
136 106 80 46 44 52 47 41 36 51 36 37 38 50 55 47
41 44 47 50 51 46 33 25 20 15 10 5 4 5 5 7
7 8 9 9 10 12 14 15 16 16 14 6 0 1 14 16
73 76 47 8 9 14 24 24 24 24 23 23 23 23 24 23
0 0 0 0 22 38 33 31 26 25 26 10 0 0 0 0
6 1 4 44 40 47 45 19 12 22 34 29 37 45 45 42
43 50 63 40 29 26 11 15 28 51 81 107 127 142 146 145
140 135 144 145 145 145 145 145 144 144 144 145 144 144 144 144
131 103 84 46 49 58 51 44 40 54 39 36 33 33 28 25
29 32 37 30 26 24 25 25 22 17 15 16 18 19 20 20
19 19 18 18 19 20 20 21 21 20 16 7 0 0 0 0
0 0 1 6 4 13 28 28 28 28 27 27 27 27 26 26
0 0 0 0 20 37 32 31 28 27 27 11 1 5 0 0
13 13 5 44 42 48 45 27 18 22 34 26 41 50 46 40
48 54 64 41 36 27 18 10 24 44 85 106 122 140 146 146
144 138 143 146 145 145 145 145 145 145 145 145 145 144 144 144
129 105 88 48 58 65 55 45 42 57 36 35 21 22 21 24
32 36 38 40 39 32 29 28 24 25 21 25 22 20 21 23
21 20 20 20 20 21 22 22 22 20 17 7 0 0 0 0
0 0 2 6 4 13 24 21 21 19 18 16 15 14 13 12
0 0 0 0 17 36 31 30 29 27 28 15 4 8 1 1
15 24 14 42 44 48 44 28 26 21 33 26 45 53 45 40
54 55 60 40 39 28 26 11 21 43 92 109 116 133 145 146
146 143 143 145 145 145 145 145 145 145 145 145 145 145 145 144
125 104 82 55 66 68 58 47 42 59 36 36 21 21 23 25
31 29 30 31 32 33 34 34 32 35 35 35 32 25 23 21
22 21 21 21 23 23 23 24 23 21 18 8 0 0 0 0
0 0 0 2 24 30 29 30 31 31 33 33 35 36 36 38
0 0 0 0 15 35 30 29 29 28 29 29 24 29 28 30
37 43 41 52 47 47 42 20 31 27 32 28 48 53 47 40
58 57 60 44 40 31 27 17 30 62 94 112 117 127 144 146
145 145 142 145 145 145 144 144 145 145 145 144 144 144 144 144
121 103 74 67 74 72 59 49 44 63 39 37 19 23 23 23
28 31 37 40 42 42 39 38 41 39 34 25 30 30 24 20
20 21 24 23 24 25 24 24 22 20 19 9 0 0 0 0
0 0 0 7 45 45 45 45 45 44 45 44 44 44 44 44
0 0 0 0 15 34 30 28 29 29 29 41 48 51 51 52
57 60 62 64 54 48 41 13 27 34 30 30 53 52 53 40
62 61 65 50 42 36 29 18 40 80 92 113 121 123 139 146
145 145 143 144 145 145 145 145 145 145 145 144 144 144 143 143
115 99 70 75 83 83 65 55 53 64 38 39 20 21 19 18
23 33 39 39 36 33 31 33 33 34 33 28 30 30 27 27
28 28 25 26 26 25 25 25 24 22 21 9 0 0 0 0
0 0 0 10 45 45 45 45 44 44 44 43 43 44 44 44
0 0 0 0 13 34 29 28 29 30 29 40 53 54 54 54
58 61 62 63 58 48 41 9 17 34 30 35 59 51 59 44
64 67 66 55 44 41 29 26 43 81 98 111 124 123 132 145
146 146 144 145 145 145 145 145 145 144 145 144 144 144 144 142
113 93 73 85 88 91 66 60 58 66 40 38 25 22 22 21
24 29 28 25 23 27 29 35 36 32 27 25 23 30 30 31
32 33 35 33 30 26 26 25 24 22 21 9 0 0 0 0
0 0 0 12 45 45 44 45 44 44 44 44 44 44 44 43
0 0 0 0 11 33 28 26 28 29 28 28 37 37 37 37
40 42 43 42 41 44 41 20 24 35 30 39 65 51 62 46
62 69 70 60 43 45 30 26 36 60 99 114 127 127 131 142
145 145 145 145 144 144 144 144 144 144 144 145 144 143 144 142
113 90 83 89 91 94 72 57 60 68 42 40 32 28 20 15
18 23 25 22 26 31 36 36 33 31 22 19 18 29 33 33
30 30 32 32 30 29 26 25 24 23 22 9 0 0 4 7
0 0 0 14 45 44 44 44 43 44 43 43 43 43 44 44
0 0 0 0 10 31 27 26 28 29 28 22 20 19 19 20
23 28 31 33 34 40 35 22 28 36 29 41 67 53 67 51
62 72 78 62 44 46 27 24 31 40 73 109 124 128 130 140
145 145 145 145 144 145 144 145 144 144 144 144 144 143 143 141
115 96 92 94 97 95 76 60 63 67 48 36 23 21 22 21
25 28 28 32 34 32 34 32 29 24 18 19 18 26 34 31
29 30 33 32 30 26 25 24 24 23 22 8 0 0 32 40
5 0 0 18 44 44 43 44 43 43 43 43 43 43 43 43
0 0 0 0 10 30 27 25 26 28 28 24 21 20 20 21
24 29 32 33 30 29 25 21 29 39 32 43 68 55 71 59
62 72 80 62 44 50 25 21 30 31 41 82 125 132 132 136
144 145 144 144 144 145 145 143 144 144 143 143 144 143 143 140
115 96 98 96 103 99 81 69 62 59 58 37 25 20 16 12
18 20 21 24 23 27 28 29 25 19 16 21 21 27 32 29
27 31 31 28 27 25 25 24 24 23 24 8 0 0 15 16
1 0 0 20 44 43 43 43 43 43 43 43 42 43 43 43
0 0 0 0 10 30 26 24 27 28 28 27 25 24 24 25
27 31 32 31 26 23 27 25 34 43 37 45 70 60 75 67
66 68 86 63 46 57 29 22 23 25 30 37 84 134 136 133
142 145 145 145 144 145 144 144 144 143 144 144 144 143 143 137
116 95 101 98 108 100 82 69 57 57 67 33 21 18 18 16
18 21 26 24 22 26 29 29 24 15 20 22 24 26 29 27
26 33 29 19 17 25 27 24 24 24 24 7 0 0 0 0
0 0 0 23 44 43 43 43 43 43 42 42 42 43 43 43
0 0 0 0 12 31 26 23 26 28 28 27 26 26 25 26
29 31 30 28 29 30 33 27 40 48 42 47 78 60 77 70
71 57 91 66 46 59 33 24 24 27 30 27 32 74 129 135
139 145 145 144 144 144 144 144 144 144 144 144 144 144 144 134
117 100 102 100 112 98 83 61 56 58 70 32 23 13 14 15
15 21 24 20 25 29 24 26 21 13 19 22 21 26 28 26
32 34 25 19 18 26 27 28 23 25 23 6 0 0 1 0
0 0 0 27 44 43 43 43 43 43 43 43 43 43 43 43
10 11 13 14 20 25 24 24 25 28 28 27 26 25 25 26
27 28 27 28 29 33 32 31 43 50 44 51 83 62 80 73
76 50 92 66 48 59 35 30 26 28 31 30 23 28 50 93
128 142 145 145 145 144 144 144 145 143 144 144 144 143 143 131
118 106 99 100 111 94 81 55 57 59 70 35 28 13 17 15
16 20 18 18 20 26 27 19 18 14 21 22 21 25 22 31
35 31 19 16 18 24 26 30 23 23 23 5 0 0 0 0
0 0 0 29 43 43 42 42 43 43 43 42 43 43 42 42
17 16 17 17 19 21 22 23 25 27 28 28 28 26 26 27
26 27 28 31 31 36 36 31 45 52 46 55 86 68 77 73
79 45 87 62 51 56 36 35 29 29 30 27 27 25 24 29
53 97 135 145 145 144 144 144 144 144 144 144 145 144 144 133
115 108 96 99 110 90 81 54 57 52 76 35 31 18 14 12
15 20 20 22 24 23 26 19 18 15 19 23 23 22 25 32
35 29 18 14 21 24 23 27 23 19 22 5 0 0 0 0
0 0 0 25 44 43 43 43 43 43 43 43 43 42 42 42
16 16 17 18 19 20 22 22 25 27 27 27 28 28 27 26
27 28 29 29 37 42 38 34 50 56 49 58 91 76 76 77
83 45 81 60 51 47 34 34 30 26 28 23 24 23 26 24
22 28 42 76 112 137 145 144 145 145 145 144 145 144 141 118
101 108 93 104 107 89 81 52 58 45 78 41 32 17 14 12
14 21 22 22 20 25 22 22 16 14 20 24 25 20 26 28
30 24 16 15 18 23 23 26 26 21 23 4 0 0 0 0
0 0 0 14 41 43 42 42 42 42 42 42 42 41 42 43
15 15 15 15 17 18 19 21 23 26 27 27 27 28 27 26
26 29 29 28 39 43 38 36 50 59 54 55 96 78 74 85
86 47 81 59 52 42 33 33 31 24 25 22 21 24 23 22
20 20 20 21 26 36 59 83 99 106 100 91 81 65 48 51
81 102 89 106 101 88 75 58 54 47 78 49 35 15 15 21
24 21 23 21 19 23 20 23 12 14 21 22 19 20 25 23
26 20 14 16 20 22 23 26 26 23 25 5 0 0 0 0
0 0 1 22 29 43 43 42 42 42 42 41 42 42 42 41
4 4 4 7 11 16 17 18 25 25 26 27 28 27 26 26
23 30 26 33 39 42 40 41 51 64 59 55 99 82 77 91
84 52 79 58 49 38 29 31 32 27 26 27 22 20 22 23
21 19 19 18 18 20 24 22 22 24 23 25 28 27 31 39
87 96 87 113 98 90 64 64 52 55 70 55 35 36 39 43
51 50 19 16 20 22 17 20 10 17 18 20 19 22 21 20
21 16 10 18 20 24 25 25 26 23 27 7 0 8 22 8
0 0 3 36 21 37 43 42 42 42 42 42 42 42 42 42
0 0 0 4 10 18 21 20 24 24 26 27 28 26 25 26
21 26 26 37 41 40 41 44 49 66 62 56 100 82 80 91
85 55 70 55 45 38 27 25 26 29 29 27 21 17 22 22
19 22 18 17 17 18 21 20 19 21 19 21 22 19 25 38
91 82 85 116 92 90 59 69 52 61 57 61 31 19 11 10
9 30 15 16 20 19 15 17 10 16 17 16 24 23 21 20
19 16 9 17 17 20 25 26 24 22 22 14 1 91 137 66
0 0 4 40 32 23 41 41 42 41 41 41 41 41 40 41
0 0 0 5 9 15 20 21 22 24 25 26 27 24 23 25
20 20 27 39 46 42 41 47 50 70 65 57 100 85 84 88
86 61 63 53 40 32 28 25 22 26 28 27 20 18 21 20
20 21 20 19 20 19 20 20 19 20 17 18 17 18 26 47
92 76 84 114 87 88 57 73 54 61 52 68 35 17 15 13
10 36 23 18 22 18 18 16 10 12 14 18 24 21 20 21
17 13 10 16 14 21 25 24 23 21 24 25 5 113 143 66
0 0 5 40 40 21 32 41 41 41 41 41 40 41 41 41
0 0 2 6 9 15 20 23 23 24 26 25 26 22 23 19
18 17 26 41 47 43 43 44 50 69 68 59 97 87 89 83
86 64 63 54 39 27 22 24 22 24 23 25 18 22 20 18
18 17 21 21 22 19 19 18 19 20 21 19 17 19 33 49
90 70 83 111 82 82 56 74 59 62 46 71 35 19 11 13
13 26 15 19 21 15 17 13 11 11 14 19 22 23 19 19
15 10 9 14 14 20 23 24 19 21 20 19 6 28 38 8
0 0 8 41 40 28 11 24 40 41 40 41 40 40 40 40
5 6 6 7 10 16 21 23 25 27 28 22 25 22 21 16
14 13 25 43 48 44 47 46 50 72 72 62 93 88 89 75
86 66 63 53 39 25 23 21 22 20 21 22 21 23 23 19
16 18 21 21 22 19 18 16 17 18 18 17 18 20 34 51
82 67 80 110 84 77 63 80 66 62 45 73 38 23 13 14
20 24 18 20 18 13 16 9 9 7 12 15 18 19 20 17
13 10 13 13 14 20 24 26 24 17 13 13 9 0 0 0
0 0 6 31 27 4 7 5 39 40 40 40 40 40 41 40
10 10 10 10 13 17 19 21 26 27 23 18 26 23 19 15
15 9 22 46 50 46 49 45 48 74 73 64 89 86 91 69
84 66 62 51 37 24 25 27 20 19 18 21 24 24 22 17
16 15 19 20 19 18 18 17 17 17 16 18 19 21 33 56
76 65 78 107 82 75 68 79 67 63 50 72 45 40 39 37
43 27 13 21 17 14 16 8 11 10 10 15 16 16 20 14
11 9 14 13 12 19 20 26 29 13 6 7 10 0 0 0
0 0 0 7 15 23 33 5 37 39 40 39 39 39 39 39
11 11 11 11 11 12 11 12 26 27 20 14 24 21 17 17
15 7 22 42 52 48 50 43 45 72 71 67 86 83 94 68
83 65 61 49 36 25 25 24 25 22 18 21 26 26 20 21
18 17 19 19 17 17 18 16 16 17 15 16 21 23 32 63
70 64 81 103 82 73 77 75 67 64 52 74 51 26 11 7
14 13 19 20 19 14 16 7 11 12 11 15 16 15 17 15
10 8 15 13 13 16 21 28 24 9 5 5 7 1 0 0
0 0 0 2 5 16 26 3 30 40 40 39 40 40 40 39
4 4 4 4 5 6 6 8 25 27 18 12 20 19 15 17
14 7 21 42 54 46 49 44 44 70 72 69 83 83 92 67
81 67 59 45 26 25 28 24 20 24 21 20 29 21 18 20
19 20 17 18 17 16 18 17 16 16 15 19 19 25 31 76
65 63 85 100 84 70 85 77 70 65 55 73 56 30 12 8
13 12 18 20 17 14 14 7 9 11 10 14 14 14 16 12
10 8 13 11 10 13 21 26 16 8 6 6 6 2 0 0
0 0 0 0 0 0 1 0 7 28 39 39 39 39 39 39
