P2
128 120
150
40 39 39 38 37 37 37 36 36 36 35 35 34 34 33 33
32 32 31 30 30 29 29 29 29 28 28 28 27 26 26 26
25 24 24 23 22 22 21 21 20 19 18 17 15 14 15 18
19 20 21 17 13 21 25 23 21 20 20 18 17 15 13 10
10 9 9 12 15 14 14 12 14 16 17 18 19 20 20 20
20 21 21 21 22 23 23 24 24 25 26 25 26 26 26 26
27 27 28 28 28 29 30 31 31 31 32 32 33 33 34 34
34 35 35 36 35 35 35 36 36 36 36 36 36 37 36 36
39 39 38 38 38 37 36 37 36 36 35 35 34 33 34 33
32 32 31 31 30 30 30 29 29 28 28 28 28 27 27 26
26 25 25 24 23 23 23 22 21 20 19 18 16 16 16 20
21 22 22 18 11 20 25 23 21 20 19 19 17 17 16 13
12 12 10 12 15 15 14 15 17 18 19 20 20 20 21 21
21 22 22 23 23 23 25 25 25 26 26 26 26 27 26 27
28 29 30 29 30 30 31 32 32 33 32 33 33 34 34 35
35 35 35 36 35 36 36 36 36 36 36 35 37 36 36 37
39 39 39 38 38 38 37 37 36 35 35 34 34 34 33 33
33 32 32 31 31 30 31 30 29 29 29 28 28 27 27 26
26 24 24 24 24 23 23 22 21 21 20 19 17 17 18 22
23 24 24 18 11 19 26 24 23 21 20 19 19 18 16 16
16 14 10 10 15 15 14 17 18 19 20 20 22 22 22 22
23 23 23 24 24 24 25 25 26 26 26 26 27 27 28 29
29 30 32 30 30 31 32 32 33 33 33 34 34 34 34 35
35 35 35 36 35 35 36 36 36 36 36 36 36 37 37 37
39 39 39 38 38 38 37 36 36 35 35 35 34 34 34 33
33 33 32 32 31 31 31 29 30 29 29 29 28 27 27 27
26 25 25 25 24 24 23 23 22 22 21 19 18 18 18 23
24 25 25 19 11 19 27 24 23 22 22 20 19 18 16 17
17 16 12 10 16 15 16 18 20 20 21 21 22 23 23 22
23 24 24 25 25 25 25 26 26 26 27 27 28 29 29 30
29 30 32 30 31 31 32 32 33 33 33 34 34 34 34 35
35 35 36 36 35 36 36 36 36 37 37 36 37 36 37 36
39 39 38 38 38 37 37 36 36 35 36 35 35 34 34 33
33 33 32 32 31 31 31 30 30 30 29 29 29 27 28 27
26 26 25 25 24 24 24 23 23 21 21 21 20 19 20 24
25 26 26 20 12 18 27 24 23 23 22 21 20 19 17 17
18 17 13 10 17 15 18 19 20 21 23 22 23 24 24 25
25 25 26 25 26 26 26 26 27 27 28 28 28 29 29 30
30 31 32 31 32 32 33 33 34 33 33 34 33 34 35 35
35 35 35 37 36 36 36 36 36 36 36 36 36 37 38 38
39 39 39 38 37 37 37 37 36 35 35 35 34 34 34 33
34 33 32 32 32 31 31 30 30 29 29 29 28 28 27 27
27 27 26 25 25 25 25 24 23 23 23 21 21 21 22 26
26 26 27 20 13 17 27 25 24 23 23 22 21 20 19 19
19 18 15 11 17 17 19 21 22 22 23 23 24 25 25 25
25 25 26 26 26 27 27 27 28 28 28 28 29 29 30 30
30 31 32 32 33 32 33 33 34 34 34 34 34 34 35 35
35 35 35 37 36 36 35 35 35 36 36 37 37 37 37 37
39 39 38 38 38 38 37 36 37 36 35 36 35 35 35 34
34 33 33 32 32 32 31 31 31 30 29 29 28 28 28 27
27 26 26 26 26 25 25 25 24 23 23 22 23 23 24 27
27 27 27 21 14 16 28 26 24 24 23 23 22 21 20 19
20 19 17 12 18 17 20 22 23 24 23 24 24 25 26 25
26 26 27 27 27 27 27 28 29 29 28 29 29 30 30 31
31 31 33 32 33 33 34 34 34 34 34 34 35 35 35 35
36 35 35 34 35 36 36 37 37 37 37 37 37 37 37 37
40 39 38 38 38 38 37 36 36 35 36 36 36 34 34 34
34 33 33 33 32 32 31 30 31 30 29 29 29 29 28 28
28 27 27 26 25 25 25 24 24 23 23 23 23 23 23 27
28 28 27 22 16 17 28 27 25 25 25 23 23 22 22 21
20 19 18 13 19 18 22 23 23 23 23 24 25 26 27 26
27 27 27 27 28 28 28 28 29 29 29 29 30 30 31 31
31 32 34 32 33 33 33 34 34 34 33 34 35 35 35 35
34 35 36 36 37 37 37 37 37 36 37 37 38 37 37 37
39 39 39 38 38 38 37 37 36 36 36 35 35 35 35 35
34 33 34 33 33 32 32 31 31 31 31 30 30 29 29 28
28 28 27 27 26 27 25 24 24 24 24 23 24 24 25 28
28 28 28 22 17 16 28 27 25 25 25 24 23 23 23 21
21 21 19 15 19 18 22 24 24 25 26 25 26 26 26 27
27 27 28 28 28 29 29 29 29 30 29 30 31 31 31 32
32 33 34 33 34 33 34 35 35 35 33 32 34 34 35 36
36 36 36 37 36 36 37 36 37 37 37 38 37 38 38 37
40 39 39 39 38 37 37 37 36 36 36 36 35 35 35 34
34 34 33 33 33 32 32 31 31 31 31 30 30 29 29 29
29 28 28 27 27 26 26 26 24 24 24 23 24 24 25 28
29 29 29 23 18 16 27 28 26 25 25 25 24 23 23 22
22 21 20 18 21 21 24 25 26 25 26 26 27 26 27 27
28 28 29 28 28 29 29 29 30 30 30 31 31 32 32 32
33 33 34 33 34 34 34 33 34 34 35 35 35 35 37 36
37 37 36 36 37 37 37 37 37 37 38 37 37 38 37 38
39 39 39 38 39 38 37 37 37 37 36 36 36 35 35 35
35 34 33 33 32 33 32 32 32 31 31 30 30 30 29 29
29 28 28 27 27 26 26 25 26 25 25 25 25 25 26 30
30 30 30 24 19 16 27 28 25 24 25 25 24 23 24 23
22 22 21 18 22 22 25 26 26 27 26 27 27 27 28 28
28 28 28 29 29 29 30 30 31 31 31 31 31 32 32 33
33 33 33 33 33 32 33 34 35 36 35 37 36 36 36 37
37 37 37 36 36 37 37 37 37 38 37 37 37 37 37 37
40 39 39 38 38 37 37 37 37 37 36 36 36 35 35 35
34 34 34 34 33 33 32 32 32 31 32 31 31 30 30 30
29 28 28 27 27 26 26 26 25 25 25 24 25 26 26 30
30 31 31 25 21 13 23 29 26 25 26 25 25 24 25 22
23 22 22 18 23 23 26 26 26 26 27 27 28 28 28 28
28 28 29 29 30 30 30 31 31 31 31 32 32 32 32 32
31 31 31 33 33 34 35 35 35 35 36 37 36 36 36 37
37 38 36 37 37 37 38 37 38 37 38 37 37 38 38 38
39 39 39 38 38 38 37 37 37 37 36 36 36 36 35 35
35 34 34 33 34 33 33 33 32 33 32 31 31 31 30 29
29 29 29 28 28 27 27 26 26 25 26 25 26 26 27 30
31 31 30 24 17 10 23 29 28 27 27 25 26 25 26 24
24 24 23 20 25 24 27 27 27 27 27 27 27 28 28 29
28 28 29 30 30 30 31 31 32 32 32 32 32 31 31 32
33 34 34 35 35 35 35 35 35 36 36 37 36 37 36 37
37 37 37 37 37 37 38 38 37 37 38 37 37 38 37 38
40 40 39 39 39 38 38 37 38 38 37 36 36 35 35 35
35 35 34 34 33 33 33 33 33 32 32 32 32 31 30 30
30 29 29 29 28 27 27 26 26 26 25 25 26 26 27 30
32 31 31 25 20 18 24 30 28 28 27 26 26 26 27 24
25 24 23 21 25 25 27 27 27 27 28 28 29 29 29 29
29 30 30 30 30 30 31 32 32 31 31 31 32 32 33 34
34 34 35 35 35 35 36 36 36 36 37 38 37 37 37 37
37 37 37 37 37 37 37 37 37 38 38 38 38 38 38 38
40 40 39 39 39 38 38 38 38 37 37 37 37 36 36 36
36 35 35 35 34 34 34 33 33 33 33 32 32 32 31 30
30 29 29 29 28 28 28 27 28 27 27 26 27 28 29 31
32 32 32 25 21 21 24 30 29 28 29 27 27 26 27 25
25 25 25 21 26 25 28 28 28 28 28 29 29 29 29 30
30 31 31 31 31 30 32 31 32 32 33 33 33 33 34 34
34 34 35 35 35 36 36 37 37 37 38 38 37 38 38 37
37 38 38 38 38 37 38 37 38 38 38 38 38 39 38 39
40 39 39 39 38 39 38 38 38 38 38 37 37 37 37 36
36 36 36 35 35 34 35 34 34 34 33 33 33 32 31 31
30 30 30 29 29 28 28 28 28 27 27 27 27 27 29 32
33 33 32 27 22 24 24 32 30 30 29 28 28 27 28 26
26 26 25 22 26 26 29 29 29 29 29 29 30 30 30 31
31 31 30 31 31 31 32 32 33 33 34 34 34 34 34 34
35 35 36 36 36 36 36 37 38 37 37 38 37 38 37 38
37 38 38 38 38 38 38 39 39 39 39 39 40 39 39 39
40 40 40 39 39 38 38 38 38 38 37 37 37 37 37 36
36 36 36 36 36 35 34 34 34 34 34 33 33 33 32 32
32 31 31 30 30 29 29 28 28 28 28 28 28 28 29 32
33 33 33 27 22 26 23 31 31 30 30 29 28 28 29 28
27 26 26 23 27 27 29 29 29 29 30 30 30 30 31 31
30 32 31 32 32 32 33 34 34 34 35 34 35 34 35 35
36 36 36 36 37 37 37 38 37 38 38 39 38 38 38 38
39 39 39 39 39 39 38 39 39 39 39 39 39 38 39 40
40 40 40 40 40 39 39 39 39 38 38 38 38 37 37 37
37 37 37 36 36 35 35 35 35 34 34 34 34 33 33 32
32 32 31 31 30 30 30 29 29 29 28 28 28 29 30 34
34 34 34 28 23 27 23 31 31 31 30 30 29 29 29 27
27 27 27 23 28 28 30 30 30 30 31 31 31 31 31 32
32 33 32 33 33 33 34 33 34 34 35 35 35 35 36 36
37 37 37 37 37 37 37 38 38 39 38 39 39 38 38 38
39 39 39 39 39 39 39 39 38 39 39 39 39 39 39 39
40 40 40 39 40 39 39 39 39 39 39 38 38 38 37 37
37 37 36 36 36 36 36 35 35 34 34 34 34 33 34 33
33 32 32 31 31 31 30 30 29 29 29 28 29 29 30 34
35 35 34 29 24 28 24 31 32 31 31 31 30 29 30 28
28 28 27 25 28 27 30 30 30 30 31 32 32 32 32 33
33 33 33 33 34 34 34 35 35 35 35 36 35 36 36 36
37 37 37 37 37 37 37 38 38 38 38 39 40 39 39 39
40 39 39 38 38 39 39 40 40 40 39 39 39 39 39 39
40 40 40 39 39 38 39 39 39 39 39 38 38 37 37 37
37 37 37 36 36 35 36 36 35 35 34 34 34 33 34 33
32 32 31 31 30 30 30 29 29 29 28 29 29 29 30 34
35 34 34 29 24 29 25 31 33 32 31 30 30 29 30 28
28 27 27 24 28 25 31 31 31 31 31 32 32 32 32 32
32 32 33 32 34 34 34 34 35 35 36 36 36 36 36 36
37 37 37 37 37 38 38 38 38 38 38 39 38 38 37 37
37 38 39 39 39 38 39 39 38 38 39 39 39 40 39 40
40 39 40 39 39 39 39 39 39 39 39 38 38 38 38 38
37 37 37 36 36 36 35 35 35 35 35 35 34 34 34 34
33 33 32 32 31 31 30 30 29 29 29 29 29 30 30 35
35 35 35 29 24 30 25 31 33 32 32 31 30 30 31 29
28 29 28 25 29 28 31 31 31 32 32 32 32 32 32 33
33 34 33 34 34 34 34 34 35 35 36 36 36 36 36 37
37 37 37 38 39 38 38 37 38 38 37 36 37 38 38 39
39 39 39 39 41 38 39 39 39 39 39 38 39 39 39 39
40 40 40 39 39 39 39 39 39 39 39 38 38 38 37 37
37 36 37 36 37 36 36 36 35 36 35 35 35 34 34 34
33 33 33 32 31 31 31 31 30 30 30 30 30 31 31 35
36 36 35 30 24 30 26 31 33 32 32 30 30 30 32 29
29 29 29 25 29 29 32 32 32 32 33 34 33 33 33 33
33 34 34 33 34 34 34 35 36 35 36 37 37 37 36 37
38 37 38 38 38 37 37 37 37 38 39 39 39 39 39 39
39 39 39 39 41 39 38 39 38 38 39 39 39 39 39 40
40 39 40 39 40 40 39 39 39 39 39 38 38 38 38 37
37 37 37 36 36 36 36 35 35 35 35 34 35 34 35 34
34 33 33 32 32 31 31 30 30 30 29 30 30 31 31 35
36 36 36 30 24 30 28 30 32 32 32 31 30 30 31 30
29 29 28 25 29 29 32 32 31 32 32 33 33 34 33 33
34 33 34 34 35 35 35 35 35 36 36 37 36 36 37 37
36 37 36 37 37 38 38 39 39 39 39 39 39 40 39 39
39 39 39 39 41 39 38 39 38 39 39 39 38 39 39 39
40 40 40 39 39 39 38 38 39 38 38 39 38 38 38 38
38 38 37 36 36 36 36 36 36 36 35 35 35 34 34 33
33 33 33 32 32 32 31 31 30 30 30 30 31 31 32 36
37 36 36 31 24 30 30 28 31 32 32 32 31 31 31 30
30 30 29 26 30 29 32 32 32 32 32 33 33 33 33 33
33 34 34 35 35 35 35 36 36 36 37 36 36 37 36 36
36 37 37 39 39 39 39 39 39 39 39 39 39 40 39 39
39 39 39 40 39 39 39 39 39 39 39 39 39 40 40 39
40 40 40 40 40 39 39 39 39 38 38 38 38 38 37 38
37 38 37 37 37 36 36 36 36 36 36 36 35 35 34 35
34 33 34 33 33 32 32 31 31 31 30 30 31 31 32 36
36 37 37 32 25 31 31 27 33 33 33 32 32 31 30 30
29 30 29 27 29 29 32 33 33 33 33 34 33 34 34 34
34 34 35 35 35 36 36 36 36 36 36 36 36 37 37 37
37 37 38 39 39 40 39 39 40 40 40 39 40 39 39 39
39 39 39 39 40 39 38 39 39 39 40 39 39 39 40 39
40 40 40 40 39 39 39 39 39 38 39 38 38 38 38 38
38 37 37 37 37 36 37 36 36 36 36 35 35 35 35 34
34 34 33 33 33 32 32 32 32 31 31 31 31 32 32 36
37 37 36 31 25 30 32 27 34 33 33 33 32 32 29 31
30 30 30 27 29 29 32 33 33 33 34 34 33 34 35 35
35 35 35 35 35 35 35 35 36 36 36 36 36 37 37 38
38 38 38 40 39 39 40 39 39 39 39 40 39 39 39 40
39 39 39 38 39 39 38 39 40 39 39 39 39 39 40 39
40 40 40 40 40 40 40 39 39 39 39 39 39 39 38 39
38 38 38 38 38 37 37 36 37 36 37 35 36 35 35 35
35 34 34 34 33 33 33 32 32 32 31 31 31 32 33 36
38 38 37 33 25 31 35 27 34 34 34 33 32 32 30 31
30 30 30 27 29 29 33 34 34 34 33 35 35 34 35 34
35 36 35 36 35 36 37 37 36 36 37 37 36 37 38 38
38 38 38 40 39 40 40 40 40 39 39 39 39 40 39 39
39 39 39 39 40 40 40 39 40 39 39 40 40 39 39 39
40 40 40 40 39 39 39 39 39 39 39 39 39 38 39 39
38 38 38 38 37 37 36 37 36 36 36 36 36 36 36 36
36 35 35 34 33 33 32 32 32 32 31 32 32 32 33 37
38 37 36 32 25 31 36 27 34 34 34 33 33 32 31 32
31 30 30 28 29 30 33 34 34 34 34 34 34 34 35 34
34 34 35 36 36 36 36 37 37 37 38 37 37 37 38 38
38 39 39 40 40 39 39 39 39 39 39 39 39 39 39 39
39 39 39 39 39 40 39 40 40 39 40 40 40 40 39 38
40 40 40 40 39 39 40 39 39 39 39 39 38 39 39 38
38 38 38 38 37 38 37 37 37 36 37 36 37 36 36 36
36 36 35 35 35 34 33 33 32 32 32 32 32 32 34 37
38 38 37 34 26 32 38 28 34 35 34 34 33 32 31 32
31 30 31 29 30 31 33 35 34 35 34 34 34 34 35 35
35 35 36 37 36 36 37 37 37 37 37 37 38 38 38 38
39 39 39 40 40 40 40 40 40 40 40 39 39 39 39 39
40 40 40 40 40 41 39 39 40 39 38 38 38 39 39 39
41 40 40 40 40 40 40 39 40 40 40 40 40 39 39 39
39 39 38 38 38 38 38 37 37 37 37 36 37 36 36 36
36 35 36 35 35 35 34 34 34 33 32 32 32 34 34 37
39 38 38 34 26 32 39 29 33 35 35 35 34 33 32 33
31 32 31 29 30 30 32 34 34 34 35 35 35 35 36 36
36 36 37 38 37 37 37 37 37 37 37 39 38 39 39 39
39 40 39 40 41 40 40 40 41 40 40 40 40 40 40 40
40 40 41 40 40 39 37 38 38 38 39 39 40 39 41 39
41 40 40 39 40 40 40 39 40 40 40 40 40 39 39 39
39 39 39 38 38 38 38 38 37 37 37 37 37 37 37 36
36 36 37 36 36 35 34 34 34 34 33 34 32 34 35 38
39 39 39 35 26 32 40 30 32 36 35 34 33 33 33 32
31 32 32 29 29 31 34 35 35 35 35 36 35 36 36 36
36 36 37 37 37 37 37 37 38 37 37 39 39 39 39 39
39 40 40 41 40 40 40 40 41 40 41 40 40 40 40 40
40 39 39 39 38 38 39 39 40 39 39 38 39 40 41 39
34 37 40 40 40 40 40 40 40 40 40 40 40 39 39 39
39 39 39 39 38 38 38 38 38 37 37 37 37 38 37 37
41 43 37 36 36 36 33 35 33 33 33 34 36 34 35 38
40 39 39 35 26 32 40 32 31 36 36 35 34 34 32 33
32 33 32 30 31 33 35 35 36 35 35 36 36 36 36 36
36 37 37 38 38 37 38 38 38 39 39 38 39 40 40 40
40 40 41 41 40 40 40 40 40 40 40 40 40 39 37 38
38 40 40 40 40 40 40 39 39 40 40 40 40 39 40 39
16 25 40 41 40 41 40 40 40 40 40 40 40 40 39 39
40 39 39 39 39 38 38 38 38 38 38 39 38 38 37 43
44 41 37 34 33 37 31 35 28 28 30 30 34 36 38 43
43 44 40 35 26 31 40 34 30 36 35 35 34 34 33 34
32 32 32 32 31 33 35 36 36 36 36 36 36 36 36 36
36 37 37 38 38 38 38 38 38 38 39 39 39 40 40 40
40 40 40 41 40 41 40 40 40 41 40 39 40 39 40 40
40 40 39 39 39 39 39 39 39 39 39 39 39 39 40 40
13 24 40 41 40 40 41 41 40 39 40 40 40 40 40 39
40 39 39 39 39 39 38 38 38 38 39 38 39 39 40 41
40 37 30 31 29 29 25 31 26 20 28 24 23 26 27 32
28 36 41 40 31 33 40 35 29 36 35 35 35 34 33 34
32 33 33 31 30 33 35 36 36 36 35 35 36 36 36 36
38 37 38 38 39 38 38 38 38 38 39 39 39 39 39 39
40 40 40 39 39 39 40 40 39 40 39 40 40 40 39 40
40 40 40 40 39 39 39 39 39 39 39 39 39 39 40 39
16 22 39 41 41 41 41 40 38 40 40 41 40 40 41 40
40 40 40 39 39 39 39 39 39 39 39 40 42 40 39 33
28 29 19 24 30 29 30 31 31 24 32 26 23 26 28 20
20 21 23 27 32 36 42 38 28 36 36 36 35 35 33 35
32 32 33 32 30 33 35 36 36 36 36 37 37 36 37 37
37 37 38 39 38 39 39 38 39 39 40 39 39 40 39 39
39 39 39 39 39 40 40 40 40 39 39 40 40 40 39 40
40 40 40 39 39 40 39 38 39 40 40 40 40 39 39 40
17 24 39 41 41 41 40 40 41 49 49 47 46 43 42 41
39 39 40 40 39 39 39 39 39 40 42 43 45 37 34 34
21 30 21 24 35 22 33 31 34 27 35 26 23 25 28 20
19 22 24 23 22 29 43 40 27 36 37 36 36 35 34 35
33 33 33 32 31 34 35 37 36 36 36 37 38 37 37 37
38 38 38 39 40 39 39 38 39 39 39 39 39 39 40 39
40 40 40 40 40 39 40 40 40 40 40 39 41 40 40 40
40 40 40 40 40 40 40 39 38 39 40 40 39 39 39 40
18 26 41 42 42 41 41 40 43 53 52 52 50 47 45 45
44 42 41 40 40 40 40 39 43 45 47 45 36 32 35 34
22 33 24 24 37 20 35 35 35 30 36 29 27 26 28 21
22 21 24 25 25 24 30 41 29 36 37 36 36 35 34 35
33 34 34 32 31 35 35 37 37 36 37 37 37 38 37 38
38 38 38 39 39 38 37 38 38 39 39 40 40 38 40 40
40 40 41 40 40 40 40 40 40 40 39 39 40 40 40 39
39 39 39 39 39 39 40 39 40 39 40 41 40 39 38 40
18 28 44 44 43 42 41 41 43 54 53 51 49 48 49 50
53 46 47 45 44 42 43 47 50 44 42 43 37 32 38 39
29 37 26 27 38 22 37 38 37 33 35 31 28 27 31 25
24 22 24 28 25 24 27 30 34 36 37 37 36 35 35 36
33 34 33 33 32 34 35 37 38 37 38 38 38 38 38 38
38 38 38 38 38 39 39 39 39 38 39 41 41 40 40 40
40 41 40 41 40 40 40 40 40 40 40 39 40 41 40 40
40 40 40 39 40 40 40 40 39 39 39 39 39 39 39 39
18 30 47 46 43 44 44 44 44 46 40 46 49 50 53 54
55 48 42 47 50 51 57 53 44 42 44 46 42 39 43 45
36 42 28 32 41 26 41 41 42 34 37 31 33 30 35 29
26 25 25 27 26 26 26 31 34 39 39 38 37 36 35 36
34 34 34 33 31 35 36 38 38 38 38 37 38 38 38 38
38 38 38 38 38 38 39 39 39 39 39 40 40 39 40 41
41 40 40 41 39 40 40 39 40 40 40 39 40 41 40 40
40 39 40 40 40 40 40 39 40 40 40 40 40 40 40 40
19 29 47 46 39 40 45 48 51 31 3 11 28 40 44 47
51 44 15 15 33 63 58 45 42 47 53 55 56 51 46 50
43 46 36 38 43 27 42 42 41 39 40 32 33 32 37 32
30 28 30 29 31 29 26 31 36 38 39 37 36 36 35 35
34 34 34 33 32 35 35 37 37 37 37 37 38 38 38 38
38 38 38 39 38 39 39 39 39 39 39 40 41 39 40 40
40 40 40 40 40 40 40 40 40 39 39 39 39 41 40 39
39 39 39 40 40 40 39 39 40 39 40 40 40 40 40 39
19 27 44 46 44 42 42 50 55 31 0 0 9 18 21 22
31 43 6 9 52 61 54 47 50 58 65 67 70 70 53 53
47 48 39 39 44 29 42 46 44 41 42 34 36 34 39 33
30 29 30 29 34 33 27 29 39 42 39 38 35 35 35 36
34 34 34 33 31 35 34 37 37 37 37 37 38 38 38 38
38 38 38 38 39 38 38 39 39 39 39 40 42 40 40 40
40 40 40 40 40 40 40 39 39 39 39 39 40 41 40 40
39 39 40 40 39 39 39 39 39 39 40 40 40 39 40 38
19 17 14 21 32 40 46 51 55 33 0 0 5 12 15 17
25 43 15 50 63 65 53 51 59 69 75 80 88 92 65 54
51 52 43 42 44 32 40 48 44 41 41 37 39 36 40 34
32 32 34 32 36 33 29 28 36 50 40 42 36 36 36 36
34 34 34 34 31 36 34 38 38 38 38 38 39 38 38 38
38 38 38 39 38 38 39 39 40 40 39 39 42 41 41 40
40 40 40 40 40 40 40 39 40 40 39 39 40 40 40 40
39 39 39 39 40 40 40 40 40 40 40 40 39 40 40 39
19 12 0 0 1 4 12 21 32 32 0 0 3 6 5 10
24 44 39 68 67 64 57 57 67 80 84 91 99 103 79 58
54 51 46 43 46 34 42 49 47 41 41 38 37 37 40 36
35 34 36 33 36 35 31 30 32 59 50 45 39 37 36 37
34 35 34 34 31 36 35 38 38 38 38 38 39 38 38 38
38 38 39 39 39 39 39 40 39 40 40 40 42 41 41 40
40 41 40 41 41 40 40 40 40 40 41 40 41 41 40 40
40 40 41 40 40 40 40 40 41 41 41 39 40 40 40 39
19 12 0 0 0 0 0 0 3 23 0 0 0 0 0 4
23 44 60 72 71 62 63 62 75 89 95 101 105 107 94 66
56 53 47 43 47 36 42 51 48 43 42 39 38 39 41 37
37 37 40 37 37 38 31 32 33 54 63 44 43 37 36 36
35 36 35 35 32 36 35 39 39 39 38 38 39 38 38 38
38 38 39 38 39 39 39 39 40 40 41 40 41 40 41 41
40 40 41 41 42 41 41 41 41 41 41 41 40 40 39 41
41 41 41 40 41 40 41 41 41 41 41 40 40 40 40 39
20 12 0 0 0 0 0 0 1 21 0 0 0 0 0 3
25 53 73 75 74 62 67 69 84 97 102 107 112 113 105 80
61 56 50 46 50 40 44 52 50 45 45 42 40 41 45 39
41 39 43 42 42 41 34 35 37 47 74 57 49 41 37 38
36 36 36 36 32 37 35 39 39 39 39 39 40 39 39 39
39 40 40 40 39 40 40 40 41 41 41 41 43 41 41 42
41 42 42 42 41 41 41 41 41 41 41 41 41 42 42 42
42 41 42 41 41 41 42 41 42 42 42 41 42 41 42 41
20 12 0 0 0 1 0 0 1 19 0 0 0 0 0 4
32 65 76 81 74 66 70 76 93 102 107 112 116 116 109 91
70 61 56 47 54 43 47 53 51 45 46 45 43 43 49 42
44 42 47 47 47 45 38 40 39 44 78 81 50 46 37 38
36 36 37 36 33 37 36 40 41 40 39 40 41 40 39 40
40 41 40 41 41 41 42 42 42 42 42 42 43 42 42 42
43 43 43 43 43 42 43 43 42 42 43 42 42 43 42 41
41 41 42 41 40 41 43 43 42 43 43 43 43 43 44 43
20 13 0 1 1 13 7 0 1 17 0 4 0 0 0 11
42 73 78 85 72 71 73 81 101 109 111 115 117 117 109 97
81 64 63 49 56 44 48 54 55 50 49 48 45 43 51 45
46 47 52 50 52 51 43 42 43 47 72 90 61 55 41 39
37 37 37 37 33 38 36 40 40 40 40 40 41 40 41 40
40 40 41 41 42 42 41 42 42 42 42 42 43 42 43 43
43 43 43 43 43 43 43 42 42 42 42 42 42 42 42 41
42 42 42 42 42 42 43 43 44 44 43 43 43 43 40 40
21 13 4 13 7 8 3 0 1 16 2 1 0 0 0 24
57 76 82 89 71 74 78 84 106 113 116 120 120 116 109 99
84 69 65 51 58 47 50 54 60 54 52 49 47 43 53 45
47 50 57 54 53 53 46 46 47 55 72 91 77 57 47 39
37 38 37 36 33 38 37 40 40 41 40 40 41 41 41 41
41 41 41 42 41 42 42 42 42 42 42 42 42 43 41 42
43 43 43 43 45 43 43 43 43 43 42 42 43 43 43 42
42 42 42 41 42 42 43 42 42 42 41 43 43 39 38 37
22 13 9 8 1 5 5 0 1 19 3 0 0 0 1 40
69 75 85 84 71 75 80 85 107 115 119 127 122 117 107 100
86 71 70 56 62 50 50 54 62 57 52 52 50 44 56 45
48 50 60 56 56 58 50 51 51 62 79 90 92 62 54 40
37 37 37 36 34 38 36 40 40 40 40 40 40 40 41 41
40 41 41 41 41 41 41 41 42 42 42 42 41 42 42 43
43 43 43 43 44 43 43 43 43 42 42 43 42 41 42 42
42 42 40 40 39 42 42 40 38 38 35 33 30 27 24 21
21 14 6 1 0 0 1 1 1 30 23 15 13 10 15 55
73 75 90 82 75 74 84 86 109 121 123 132 123 117 105 96
87 77 75 62 63 55 49 55 69 63 54 54 55 43 57 45
50 52 65 60 60 61 53 55 54 66 88 89 98 72 56 45
37 37 37 36 33 38 36 40 41 40 40 41 40 40 41 40
40 41 41 41 42 41 42 42 42 42 43 42 42 42 43 43
43 43 43 43 44 43 42 42 41 40 41 41 40 39 39 38
39 39 37 37 35 33 30 27 25 22 20 20 19 20 21 22
20 13 0 0 0 0 0 0 2 43 56 47 43 42 46 64
73 74 94 76 76 74 84 89 109 126 126 130 128 116 105 95
86 82 82 71 64 61 49 58 72 67 58 58 58 42 59 46
52 56 63 66 60 65 56 60 57 66 92 91 95 87 58 53
38 37 36 37 34 38 36 40 40 39 40 40 40 41 40 40
41 41 40 41 42 41 41 41 42 41 42 41 42 42 42 43
43 43 43 42 42 42 41 39 39 39 39 39 39 37 35 33
31 28 25 23 22 21 21 21 22 23 24 25 25 26 27 28
20 15 0 0 0 0 0 0 2 45 60 49 54 56 58 65
72 77 91 78 77 75 85 92 105 132 130 130 128 113 107 97
88 81 82 81 71 69 52 60 76 67 65 62 57 46 62 48
53 57 66 71 64 71 60 63 58 66 86 92 90 91 62 60
40 37 37 37 34 38 37 41 41 40 40 40 41 41 41 41
41 40 40 40 42 41 41 41 41 41 42 42 43 42 42 42
42 42 42 42 41 40 39 40 42 35 31 28 26 23 23 22
22 23 23 24 24 25 27 28 29 29 30 30 28 24 30 32
21 24 26 19 11 6 2 0 2 44 52 47 55 58 60 66
71 81 85 81 77 75 85 93 104 132 137 131 131 117 106 98
90 84 84 91 73 73 56 61 80 68 70 69 57 49 64 50
52 58 67 70 67 75 66 67 62 62 85 93 87 89 69 62
47 36 36 36 34 38 37 40 40 40 40 40 40 41 40 40
41 40 39 39 41 41 41 41 41 41 42 42 42 41 42 41
41 39 36 34 32 29 26 28 41 30 19 22 24 25 25 26
27 28 29 30 30 31 32 32 33 34 34 34 34 31 25 33
21 30 50 54 50 44 37 31 29 49 42 47 55 57 61 68
69 88 80 86 76 75 83 91 103 126 141 133 136 123 108 101
95 88 87 96 77 81 58 64 83 73 75 76 63 49 68 53
54 57 67 69 73 78 68 72 64 61 79 90 91 90 80 63
54 38 37 36 33 37 37 39 39 39 39 39 39 39 39 39
39 39 38 38 40 40 41 41 41 41 41 39 38 35 33 29
27 25 24 23 24 25 24 24 35 27 22 26 29 30 30 31
32 33 33 34 34 34 35 35 36 36 36 35 36 37 34 26
21 31 53 57 57 55 56 55 56 54 28 29 39 48 60 67
68 88 77 91 77 76 82 90 100 119 142 139 141 134 119 105
99 94 90 96 85 91 67 67 86 83 82 84 69 51 70 56
56 60 68 74 81 83 69 71 68 58 75 85 90 89 87 64
59 40 36 35 34 37 36 39 39 38 39 38 38 37 36 36
37 38 39 39 39 38 38 36 33 31 29 27 26 24 24 25
26 27 28 29 29 30 31 29 36 30 26 32 33 34 35 35
36 36 36 37 37 37 36 36 36 37 37 36 36 38 39 34
20 29 51 57 56 56 57 57 59 52 13 6 11 29 59 66
73 83 78 94 77 77 81 90 98 112 138 141 141 142 134 119
106 102 96 89 94 97 75 72 88 96 88 91 73 57 75 58
56 58 67 76 79 86 70 74 70 55 71 76 87 90 89 66
64 45 35 35 33 36 35 37 37 37 36 35 34 35 34 25
30 35 33 31 30 28 27 26 26 26 27 28 28 29 30 31
32 33 34 34 35 36 35 33 36 31 30 36 37 37 37 38
38 38 39 38 39 39 39 39 38 37 37 37 37 38 39 39
27 31 43 46 48 49 50 52 57 48 8 1 3 31 58 63
75 75 79 95 76 77 80 90 96 109 133 144 141 143 144 138
118 102 104 92 102 98 80 77 89 104 92 100 77 65 84 61
59 58 70 78 83 89 74 73 72 57 62 68 78 86 86 72
67 53 34 33 32 33 33 33 34 34 34 33 32 30 29 21
23 26 25 26 27 28 29 30 31 31 32 33 34 34 35 35
37 37 38 38 38 38 37 31 18 15 27 37 39 39 39 39
39 39 40 39 40 40 39 39 40 39 38 38 37 38 39 40
27 29 30 33 36 41 40 42 52 46 6 0 0 35 58 60
75 66 79 91 76 76 79 93 95 105 128 144 144 143 144 144
139 117 102 90 105 104 89 87 87 113 96 110 87 73 89 66
63 61 69 82 82 95 76 75 75 60 59 64 72 77 88 80
67 62 33 25 27 30 31 32 28 27 26 26 25 25 26 25
27 29 30 31 32 33 35 35 36 36 37 38 38 38 38 39
39 39 39 39 39 39 38 26 6 4 23 37 39 41 40 39
39 40 40 40 40 40 41 40 40 40 39 37 38 36 38 39
25 27 27 27 31 38 36 39 52 45 4 0 0 33 56 61
69 55 72 75 71 74 76 94 97 102 122 144 144 144 144 144
144 134 115 89 96 110 97 85 88 121 101 117 95 81 94 75
61 63 66 85 82 99 80 76 76 61 65 60 60 69 83 80
72 66 42 22 21 23 23 24 25 26 28 28 29 30 32 32
32 34 36 36 37 37 38 38 39 39 39 39 39 39 40 40
41 41 39 33 28 22 33 24 11 5 19 37 40 41 40 40
40 40 40 40 40 40 41 40 40 40 39 39 38 36 36 39
23 27 25 30 35 40 41 46 52 44 4 0 0 26 52 59
57 25 42 65 70 73 73 86 96 103 111 136 144 144 144 144
144 141 124 94 81 116 110 78 92 119 109 119 105 88 97 79
61 65 66 86 83 105 85 78 78 64 70 55 54 60 68 80
71 72 55 27 23 24 24 26 30 31 32 33 34 35 36 37
37 38 38 38 38 39 39 40 40 41 41 41 41 42 41 41
42 41 28 5 3 5 27 23 2 1 19 37 40 40 41 40
40 40 40 40 40 41 40 40 40 39 39 39 38 36 35 36
26 23 4 5 9 15 20 27 33 37 4 0 0 20 45 60
58 33 52 71 62 51 52 53 62 73 76 77 91 93 97 97
95 87 85 63 60 109 122 84 92 116 118 121 114 98 100 83
66 68 70 87 83 107 86 82 78 67 78 54 54 57 57 77
68 80 64 37 27 28 29 30 35 35 36 37 37 37 37 38
39 39 39 40 40 41 41 41 41 41 41 41 42 42 42 42
42 42 35 25 29 33 37 28 1 1 18 36 40 40 41 40
40 40 41 40 40 41 41 41 41 40 40 40 40 39 36 34
31 25 1 0 0 0 0 0 1 22 4 0 0 15 41 63
53 38 92 86 46 26 29 28 30 36 47 54 61 58 58 64
51 49 69 57 57 93 125 96 86 112 124 116 121 105 105 85
70 71 67 88 88 106 91 81 80 68 77 51 52 51 47 67
68 82 70 48 31 31 31 33 37 38 37 39 39 38 38 39
41 41 40 40 41 41 41 41 42 42 42 43 42 43 42 42
42 42 42 40 40 39 38 31 5 1 19 37 40 41 41 41
41 40 40 41 40 40 40 40 40 40 39 39 40 39 40 35
31 25 2 0 0 1 0 0 0 19 4 0 0 17 36 55
52 34 35 48 41 36 31 38 47 65 90 110 125 131 134 135
134 131 132 125 92 91 125 110 85 104 126 110 123 107 105 86
75 70 68 87 89 108 90 79 78 69 78 51 49 49 41 57
64 83 78 56 34 32 33 35 38 39 39 38 38 38 39 40
40 40 40 40 40 41 41 41 42 41 41 42 43 42 42 42
42 43 41 41 40 39 38 33 10 0 23 36 40 40 41 40
40 40 39 39 40 40 40 39 39 39 39 39 39 39 38 35
30 26 1 0 0 7 2 0 0 18 4 0 6 22 24 40
44 40 53 49 47 65 80 91 109 114 131 141 144 144 144 144
144 143 143 142 120 100 119 122 92 100 125 112 126 109 106 92
80 72 71 84 88 107 88 80 77 68 78 55 43 52 39 46
59 77 83 58 36 32 35 37 39 39 40 39 39 39 40 40
40 41 41 40 41 41 41 40 41 41 41 42 42 41 42 41
42 41 41 40 40 39 37 33 21 12 29 38 41 40 41 40
40 39 39 39 39 39 39 39 39 39 39 39 39 39 39 37
27 24 1 0 6 19 10 2 0 17 6 0 13 22 19 14
9 48 39 73 65 110 121 113 116 121 132 142 144 143 144 143
143 143 143 142 136 111 120 127 101 86 126 110 126 112 108 93
87 78 72 86 89 105 88 80 76 66 71 60 39 53 40 36
55 65 78 59 41 32 36 37 40 39 39 39 38 39 40 40
40 40 40 40 41 41 41 41 40 41 41 41 41 41 41 41
41 41 41 40 40 38 37 32 30 28 34 39 40 40 41 39
40 40 39 39 40 40 40 40 40 39 40 40 39 39 39 37
26 24 2 0 14 26 14 7 0 20 28 21 30 30 29 23
17 51 26 66 71 108 117 119 120 126 138 143 143 144 143 144
144 143 144 142 141 116 119 130 111 78 123 108 129 115 109 94
91 80 74 85 93 106 89 83 77 62 62 60 37 45 39 30
50 55 64 65 44 32 36 38 39 39 39 38 39 40 40 40
40 40 41 41 40 41 41 41 41 41 40 41 42 42 41 41
41 41 41 40 40 39 38 34 33 35 38 40 40 40 41 40
40 40 39 40 40 40 40 40 40 40 40 39 39 39 39 36
25 23 2 0 9 14 8 4 0 23 49 47 51 51 49 50
72 47 23 38 61 91 110 115 122 130 141 144 143 143 143 143
144 143 143 143 142 121 117 132 120 81 120 108 130 114 111 95
94 80 73 85 97 105 88 85 74 61 58 54 38 38 41 29
42 47 51 68 44 34 37 38 40 40 40 40 39 40 40 40
40 41 40 41 41 41 41 41 41 40 41 41 41 41 41 41
41 41 41 40 40 40 38 36 36 37 40 40 40 40 40 40
40 40 40 40 40 40 39 39 39 40 39 39 39 39 39 37
26 26 10 4 4 5 2 1 0 21 50 49 53 53 52 62
110 69 23 44 57 85 108 119 129 137 143 144 144 144 144 143
144 143 143 143 143 128 112 129 126 89 117 109 130 117 112 94
96 82 78 86 98 104 92 87 79 59 54 48 42 30 45 34
35 44 46 61 46 36 38 38 40 40 40 40 40 40 41 41
41 41 40 41 41 41 40 40 40 40 41 41 41 41 41 41
42 42 41 40 40 40 39 39 38 39 41 41 40 39 40 40
40 41 40 40 39 40 40 40 40 39 39 39 38 37 38 37
27 28 24 8 3 4 2 0 0 21 48 47 50 51 52 82
121 97 32 67 62 89 115 126 136 141 143 143 144 143 143 143
143 143 143 144 143 136 113 126 131 98 113 112 128 118 111 95
99 85 80 88 99 105 94 86 78 60 53 40 48 26 45 37
29 41 43 46 48 39 38 38 40 39 40 40 40 40 41 40
40 40 41 41 41 41 41 41 41 41 41 41 41 42 42 42
42 42 41 40 40 40 39 37 38 39 38 39 39 39 39 40
39 39 40 40 39 39 39 39 40 40 39 39 38 37 38 37
29 30 21 3 0 3 0 0 0 21 46 43 46 46 54 102
124 113 51 71 68 99 121 131 140 143 144 143 144 144 144 144
144 144 143 143 144 138 118 126 130 105 109 111 126 120 111 99
103 86 83 91 101 107 93 86 79 60 52 32 47 31 35 35
26 39 39 38 45 36 38 37 40 39 39 40 40 41 40 40
41 41 41 41 41 40 41 41 41 40 41 41 41 42 41 41
41 41 40 40 40 40 39 39 40 40 40 40 40 41 41 40
39 40 39 39 39 39 39 39 39 39 39 38 38 38 38 37
31 30 17 4 2 3 0 0 0 22 50 43 44 45 74 113
122 116 67 65 76 108 124 136 141 144 144 144 143 144 143 144
144 143 144 144 143 140 119 125 131 109 106 112 120 121 109 93
102 87 80 92 101 106 95 86 76 57 48 27 40 36 28 36
23 33 34 35 39 36 39 38 40 40 40 40 40 41 40 41
40 40 41 40 40 40 40 40 40 40 41 41 42 41 41 41
41 41 41 40 40 40 40 40 41 41 41 40 41 41 40 40
39 40 40 39 39 38 38 38 38 37 38 37 37 37 37 36
29 29 36 35 32 27 25 22 18 33 53 45 46 51 97 116
120 119 114 70 88 112 127 138 143 144 144 143 144 144 143 144
144 144 143 143 144 140 117 120 131 114 105 111 121 120 109 91
100 91 79 94 101 106 96 86 75 54 46 26 29 38 26 35
25 26 33 33 38 35 39 39 40 40 40 40 40 40 40 40
40 41 41 40 41 41 41 40 40 40 40 41 41 41 41 42
41 41 41 41 41 41 41 41 41 41 40 40 40 40 40 39
39 39 39 38 38 38 38 37 37 37 36 37 36 36 37 36
30 30 47 55 56 53 53 57 56 57 56 49 49 79 117 123
131 124 108 83 96 116 131 139 144 144 143 144 144 144 143 144
144 143 144 144 143 141 114 113 132 114 105 112 121 121 108 88
100 89 78 92 104 106 97 87 76 52 48 23 22 33 27 29
28 20 31 30 35 34 38 38 40 39 39 39 39 39 40 40
41 40 41 41 42 41 40 40 40 41 41 41 41 41 40 41
40 40 39 40 39 39 41 40 40 40 40 39 39 39 39 39
38 37 38 38 37 36 36 36 36 35 35 35 35 35 35 34
30 30 50 62 61 61 61 61 62 62 58 43 52 109 133 138
135 112 93 84 100 121 134 141 144 144 143 144 144 144 144 143
144 143 144 142 143 141 113 107 133 113 107 113 120 118 104 83
97 90 83 93 103 106 91 91 72 54 54 18 17 26 29 24
30 15 27 27 31 34 38 37 40 40 40 40 40 40 41 40
41 41 41 41 41 41 40 40 40 39 40 40 41 40 39 40
40 40 40 40 39 40 40 39 40 39 39 39 39 38 38 38
37 37 36 36 35 35 35 36 35 34 34 34 34 33 34 34
31 28 38 46 48 49 50 52 54 55 53 21 57 118 133 135
127 113 92 86 103 121 135 142 144 143 144 144 144 144 144 143
144 144 144 144 142 140 111 105 130 118 111 109 119 120 103 78
98 95 80 91 101 105 87 92 71 53 53 21 16 22 29 24
34 16 22 27 28 32 36 37 40 41 40 40 40 40 40 41
41 41 41 41 41 41 40 41 39 39 40 39 40 40 40 39
38 37 36 35 32 33 35 39 40 39 39 39 39 38 38 37
37 36 36 35 34 34 34 34 34 33 33 33 33 33 34 34
32 28 33 37 38 38 37 37 38 38 40 15 61 112 128 140
136 122 87 85 103 122 136 144 144 144 144 143 144 144 144 144
145 144 144 144 144 141 110 100 128 120 115 109 119 120 104 76
101 95 78 93 102 106 85 93 70 51 55 26 14 18 25 24
28 21 19 25 29 31 37 38 40 40 40 40 39 40 40 40
41 41 40 41 40 39 37 36 35 35 36 38 40 40 40 35
21 19 16 15 12 13 26 40 40 40 39 38 38 38 37 36
35 35 35 34 33 33 33 34 34 33 33 33 33 33 34 33
30 27 38 44 44 43 43 41 42 40 41 18 42 93 98 86
103 106 91 82 102 118 135 143 144 145 144 144 144 144 144 144
144 144 144 144 143 141 107 96 125 120 114 110 123 123 102 78
101 96 76 95 101 105 82 93 69 48 43 30 14 15 19 25
23 24 14 22 28 32 36 36 39 40 39 40 40 40 40 41
39 33 30 27 24 22 18 15 13 14 17 33 40 39 40 33
11 7 7 7 8 8 25 40 40 40 39 38 37 37 36 35
34 34 33 33 32 32 32 32 33 32 32 32 32 32 34 33
30 27 40 46 46 46 46 46 46 47 44 19 14 52 95 106
95 80 71 76 101 116 133 142 144 144 144 144 144 144 144 144
145 144 144 144 144 142 109 94 117 119 114 110 124 120 102 75
100 96 81 96 103 103 84 93 68 46 35 31 14 12 15 23
22 23 12 19 25 31 36 36 39 40 39 39 39 40 40 41
35 14 7 9 10 10 7 4 4 3 4 26 40 39 40 32
11 8 8 8 8 8 24 40 40 39 38 37 37 36 35 34
33 34 33 32 33 33 32 32 32 32 32 32 32 32 32 31
33 32 42 47 48 47 46 46 47 49 47 16 5 2 7 23
59 90 81 81 93 116 131 141 144 144 144 143 144 145 144 145
145 144 144 144 144 143 108 93 113 122 113 109 124 119 97 76
104 96 79 97 108 100 87 94 68 44 28 27 20 11 14 17
21 23 17 14 21 27 33 36 39 39 40 39 40 40 40 40
34 11 4 8 9 9 6 3 4 3 4 24 39 39 39 31
10 8 8 8 8 8 21 38 39 39 38 37 36 36 35 34
33 33 33 31 31 31 30 29 31 31 31 31 30 31 32 31
41 40 42 44 44 44 35 22 28 41 51 21 1 0 0 4
27 92 90 90 83 111 131 140 144 145 144 144 144 144 144 145
145 145 145 145 144 143 107 90 106 126 115 110 123 117 90 75
106 91 83 97 112 95 89 95 68 47 25 23 25 10 14 12
20 19 20 11 18 25 32 37 39 39 40 41 40 40 40 40
34 11 3 7 10 9 6 3 4 3 3 22 39 39 40 32
10 8 8 8 8 7 17 38 39 38 36 36 35 34 33 32
31 31 32 31 31 31 31 31 30 29 29 29 29 30 29 30
41 42 42 42 41 41 28 1 5 29 53 30 9 0 0 5
30 102 102 99 84 98 126 140 143 145 144 144 144 144 145 145
144 145 144 144 144 142 106 86 94 123 116 105 125 118 83 74
106 86 85 96 114 86 89 98 63 42 26 23 27 14 12 10
15 17 16 13 14 20 30 36 39 39 39 40 39 40 40 39
34 11 3 7 11 10 6 3 4 3 3 23 39 39 40 34
13 9 9 10 11 10 16 35 36 36 35 35 34 33 33 32
31 32 31 30 30 29 28 29 28 27 27 27 27 28 28 28
41 41 41 41 41 41 31 1 1 24 52 27 4 0 0 2
45 99 114 112 95 90 120 136 142 143 144 144 145 144 145 144
145 145 145 145 144 141 104 82 79 120 115 103 128 116 74 78
102 79 86 100 112 78 92 94 58 34 27 23 24 18 11 13
11 17 13 19 13 17 27 36 39 38 39 39 39 40 40 40
34 12 3 5 9 9 7 2 3 3 3 22 39 39 39 35
19 16 16 15 15 14 20 30 31 32 35 35 34 33 32 31
30 29 30 29 28 27 27 27 27 27 26 27 26 26 26 27
30 30 30 34 37 40 33 2 0 20 49 17 0 0 0 0
29 64 81 93 87 85 116 134 142 144 145 144 144 144 145 145
145 144 144 144 144 141 101 75 69 123 117 102 125 113 70 86
98 77 91 102 108 78 93 91 52 33 23 22 21 25 12 12
11 14 16 16 19 15 24 34 38 38 39 39 39 39 39 39
33 13 3 5 6 5 4 2 3 3 3 19 38 39 39 35
15 11 11 7 1 1 3 5 4 7 32 34 33 32 32 31
30 28 27 28 28 26 26 26 26 26 26 26 26 25 25 26
1 2 3 22 38 40 34 4 0 16 44 14 0 0 0 0
14 70 100 101 84 83 116 130 140 144 144 145 144 145 145 145
145 144 144 145 144 139 94 67 61 117 117 101 123 109 74 86
99 71 94 103 106 75 93 91 52 34 23 23 17 29 19 12
13 14 16 15 19 18 22 33 37 37 38 38 38 39 39 39
34 14 3 3 2 2 3 3 4 3 2 19 38 39 39 35
14 7 8 3 0 1 6 23 12 1 30 33 32 31 30 29
28 27 27 27 27 27 26 26 26 25 25 25 25 24 25 25
0 0 0 22 43 40 35 6 0 12 41 20 6 4 4 6
32 85 110 122 114 101 112 127 138 144 145 145 144 144 145 145
144 144 144 144 144 135 85 56 62 109 119 97 124 107 70 86
97 70 91 104 102 76 95 90 54 35 21 22 21 19 30 15
15 15 14 18 20 17 19 29 36 38 39 40 38 40 40 39
35 13 4 4 0 0 4 4 4 3 2 19 38 39 39 35
15 8 8 4 0 0 1 6 2 1 29 32 32 31 30 29
28 27 27 27 26 26 27 26 25 25 25 24 25 25 25 25
0 0 0 19 44 41 37 10 0 6 41 41 39 33 34 41
51 62 95 112 111 101 102 122 133 141 143 144 144 144 145 145
145 145 144 145 144 126 75 47 65 104 117 95 125 105 63 85
94 63 95 103 98 82 95 90 61 40 23 20 24 17 27 26
18 18 11 14 21 20 21 24 35 37 36 39 39 40 40 38
34 14 4 3 3 4 9 3 5 4 2 18 37 38 39 35
15 7 8 4 0 0 0 0 0 0 27 32 29 28 29 28
27 27 27 26 26 26 25 25 25 24 24 23 24 23 24 24
0 0 0 16 45 41 37 11 0 3 39 49 49 43 46 54
58 43 56 94 108 109 103 116 126 135 141 145 145 145 145 144
145 145 144 142 138 114 61 47 75 102 110 93 122 103 60 85
91 59 99 108 92 83 98 88 63 40 24 23 24 26 18 35
25 17 16 11 17 22 22 25 33 36 38 38 40 41 41 39
34 16 5 4 2 1 4 4 5 4 2 16 37 38 39 35
16 7 7 2 0 0 0 0 0 0 22 16 8 7 22 28
27 27 26 26 26 25 24 24 24 24 24 24 24 23 23 24
0 0 0 14 45 42 37 14 0 1 37 48 43 40 44 51
58 57 81 91 105 115 116 117 124 128 135 142 144 144 145 145
144 142 138 134 121 89 53 64 82 99 108 90 119 101 51 88
90 56 100 105 89 85 100 83 65 48 31 22 21 29 25 27
39 20 16 12 15 21 22 23 31 37 37 38 40 41 41 38
34 16 5 5 0 0 3 4 5 5 2 15 36 38 39 35
15 6 6 0 17 24 2 0 0 0 8 18 24 15 6 27
26 25 25 25 24 24 24 24 23 23 23 23 23 22 22 23
0 0 0 11 45 42 37 17 0 1 35 43 34 36 37 44
57 67 107 105 107 119 126 123 124 127 132 138 142 142 141 142
136 131 124 116 104 75 70 81 88 100 110 92 114 95 44 94
89 64 102 106 89 87 97 82 71 60 38 27 20 24 30 25
36 42 18 16 15 13 19 24 22 34 35 37 39 40 40 38
34 18 5 5 2 1 4 4 5 5 1 15 36 38 39 36
16 6 6 5 32 51 13 0 0 6 26 29 28 26 5 23
26 25 25 25 25 24 24 23 23 23 23 23 22 22 23 23
0 0 0 9 44 42 37 21 4 11 38 39 18 21 24 29
38 68 105 105 113 123 131 127 126 127 131 133 136 138 134 129
125 117 109 104 101 86 84 88 92 97 108 90 111 87 48 94
89 65 104 105 84 84 95 80 76 74 46 34 25 22 27 30
27 49 34 14 18 14 14 15 21 23 34 34 39 40 40 36
34 19 6 4 4 4 4 4 4 5 2 14 36 37 39 36
17 6 6 3 13 21 11 0 0 13 31 29 28 27 9 19
26 25 25 25 24 24 24 23 23 24 23 23 22 23 23 23
0 0 0 6 42 42 37 30 28 35 46 37 4 1 1 3
9 52 102 106 116 129 132 128 126 124 124 125 128 126 121 115
106 100 104 113 110 95 91 91 91 95 102 85 110 81 52 96
88 68 103 99 86 85 100 80 75 90 65 37 30 26 25 29
32 34 55 34 19 13 10 11 16 20 25 27 33 38 38 36
33 20 5 5 4 4 4 3 4 5 2 13 36 38 39 37
20 8 10 2 2 1 1 0 0 12 30 28 27 26 11 18
25 25 25 25 25 24 24 23 23 23 22 23 23 23 22 22
0 0 0 5 40 43 37 39 49 51 54 40 3 0 0 0
0 25 93 107 117 128 133 127 122 118 116 114 111 106 98 90
90 103 117 123 114 98 92 92 92 94 97 84 110 76 52 96
85 76 105 91 86 89 98 80 79 92 90 54 30 31 28 27
30 35 47 55 30 23 15 9 11 20 16 17 23 27 32 32
31 19 5 4 5 4 3 3 4 5 2 13 35 38 40 37
30 21 13 4 0 0 0 0 0 8 29 29 27 26 12 21
25 24 24 24 24 24 24 23 23 24 24 23 23 22 22 23
0 0 0 3 37 43 37 40 51 54 56 45 5 0 0 0
0 5 71 96 113 124 125 124 119 112 104 95 84 76 78 90
107 118 124 122 110 95 94 92 92 93 92 85 112 75 51 93
83 83 106 81 83 89 96 85 83 90 103 79 40 32 33 29
30 29 36 49 48 36 40 36 37 36 37 35 31 26 27 26
25 20 10 9 4 3 3 2 3 5 2 12 35 36 39 37
37 16 15 26 3 0 0 0 0 7 29 29 28 25 10 24
25 25 25 25 25 25 24 24 23 23 22 22 22 21 21 22
0 0 0 2 35 44 37 38 44 44 44 34 3 0 0 0
0 0 28 72 93 107 109 107 103 98 91 85 87 94 103 110
115 121 123 118 105 92 91 89 91 95 88 87 109 70 51 95
84 87 106 70 85 94 95 85 86 90 104 100 72 39 34 35
37 34 32 38 53 52 47 54 58 57 56 55 53 52 55 52
48 41 26 15 10 6 4 2 3 6 2 10 33 37 38 38
37 20 26 42 11 0 0 0 0 6 26 25 24 13 13 23
16 15 22 24 23 23 22 22 22 22 21 21 21 21 22 22
0 0 0 1 33 43 36 33 25 22 23 13 0 0 0 0
0 0 11 49 55 62 65 67 69 75 83 93 101 108 111 116
116 116 115 110 99 91 93 92 96 95 82 85 105 60 55 93
81 92 107 65 86 97 94 87 92 94 97 115 94 70 45 38
39 38 37 37 43 58 44 31 33 33 37 33 34 35 35 38
36 34 34 33 25 18 10 5 3 4 1 8 27 28 26 22
21 8 3 8 2 0 0 0 0 0 3 2 2 0 8 15
12 28 19 24 24 24 23 22 23 22 21 21 21 21 22 22
0 0 0 0 30 43 36 32 22 20 22 10 0 0 0 0
1 0 11 47 39 38 34 36 44 53 64 70 80 89 95 101
108 111 109 101 93 93 98 99 101 97 78 85 101 52 66 91
74 97 107 58 92 98 95 84 96 97 95 112 111 99 81 57
49 46 47 47 43 48 58 32 30 28 27 22 17 17 18 20
19 20 21 23 18 18 19 10 2 0 0 0 1 0 0 0
0 0 0 0 0 0 0 0 0 0 1 0 0 0 5 11
82 104 43 22 23 22 22 22 23 22 22 22 22 22 22 23
0 0 0 0 29 44 37 33 24 22 25 10 0 0 0 0
3 0 7 46 39 46 44 15 14 24 34 31 38 48 60 73
86 96 100 98 95 96 103 107 102 99 74 87 97 46 72 95
75 99 104 53 95 97 90 82 98 104 95 104 116 109 106 101
81 73 90 99 94 72 40 46 24 21 20 21 26 28 25 24
24 24 19 17 21 21 19 15 11 5 2 2 3 4 4 6
7 7 7 8 9 11 13 14 15 16 14 6 0 1 11 15
74 76 46 8 8 14 23 23 23 24 23 22 22 23 23 23
0 0 0 0 28 44 37 34 27 25 26 10 0 0 0 0
7 1 5 45 41 47 46 18 8 18 31 11 6 5 12 20
36 58 77 88 95 100 107 109 104 94 67 84 95 49 71 94
77 99 98 50 94 96 91 83 100 110 101 101 109 116 113 115
108 88 96 105 104 70 17 41 31 20 20 24 27 31 31 31
31 30 32 35 34 32 33 32 31 25 20 18 18 17 19 19
18 18 17 17 18 19 19 20 19 18 15 6 0 0 0 0
0 0 1 5 3 12 28 27 27 29 28 26 26 26 26 26
0 0 0 0 26 45 37 33 28 28 28 12 1 6 0 0
13 14 5 44 43 48 46 26 15 16 31 12 11 9 10 15
15 18 22 53 83 94 104 106 101 88 61 82 95 47 78 95
77 104 98 48 95 95 88 84 100 111 109 105 108 113 121 121
123 110 101 116 116 66 22 27 46 24 23 30 41 41 38 38
37 37 38 40 39 44 46 49 43 40 33 28 24 23 21 20
19 19 19 18 20 20 21 21 21 19 17 7 0 0 0 0
0 0 1 5 3 12 23 21 20 19 17 16 15 13 12 11
0 0 0 0 24 44 36 33 29 28 28 16 4 8 2 2
16 24 14 42 45 48 45 27 25 16 28 7 12 15 14 21
18 21 16 16 42 79 94 101 98 84 61 79 93 46 86 98
85 106 94 47 95 93 90 77 100 112 112 108 111 111 116 127
129 129 114 112 111 59 26 25 42 40 22 23 33 37 44 38
36 33 35 35 37 38 38 31 29 33 28 28 28 26 26 25
22 21 20 20 21 22 22 22 22 20 17 8 0 0 0 0
0 0 0 2 24 29 28 29 30 31 32 33 34 35 36 37
0 0 0 0 22 44 36 34 30 28 29 30 25 29 28 29
37 43 41 52 48 49 43 20 31 20 30 17 20 22 25 26
27 30 21 18 17 42 75 90 90 82 58 79 93 47 89 97
88 108 91 47 95 91 87 73 104 114 113 108 113 116 117 123
130 128 122 112 102 53 28 29 34 48 27 18 19 22 25 21
19 22 24 30 33 35 31 26 31 39 36 28 31 33 27 27
29 26 23 22 24 24 24 24 23 21 19 9 0 0 0 0
0 0 0 7 44 45 45 44 45 44 44 44 44 44 44 44
0 0 0 0 22 44 37 33 31 31 30 41 49 52 53 54
58 61 63 65 55 49 42 11 23 22 34 31 32 32 31 25
30 29 19 20 17 28 61 75 82 82 59 83 92 48 92 98
91 108 90 48 93 92 84 72 105 119 114 114 116 117 126 133
134 132 133 125 93 29 23 23 17 41 34 21 22 27 24 22
21 25 27 35 38 39 39 39 29 35 33 34 37 38 37 36
34 31 29 26 25 26 26 25 23 22 21 9 0 0 0 0
0 0 0 10 45 45 46 45 45 44 44 45 44 44 44 45
0 0 0 0 20 43 36 33 31 30 30 40 54 54 54 55
58 63 63 64 59 49 42 7 10 15 33 32 33 32 27 21
30 27 17 17 21 19 68 67 74 82 62 90 90 51 97 95
88 107 87 50 92 90 82 70 104 121 118 118 117 122 127 140
142 142 141 132 65 12 9 17 17 21 44 24 26 29 36 37
36 45 52 51 51 41 27 24 19 36 37 36 34 37 35 34
33 31 30 28 26 26 25 25 24 21 22 9 0 0 0 0
0 0 0 12 45 45 45 45 44 44 44 43 44 44 44 44
0 0 0 0 18 43 35 32 30 31 29 30 38 38 37 38
41 43 44 43 41 44 42 8 6 12 33 33 30 25 21 25
31 26 16 14 23 17 64 80 68 81 66 93 91 53 104 95
91 105 81 53 90 91 77 70 104 120 120 117 117 122 130 141
145 144 144 118 28 21 20 17 19 19 45 34 30 27 28 32
34 34 34 29 27 25 28 27 18 34 38 36 36 35 36 33
33 32 32 27 24 25 26 25 24 22 22 8 0 0 4 8
0 0 0 15 46 44 44 44 44 44 44 44 43 44 44 44
0 0 0 0 19 43 36 32 31 30 28 24 21 20 21 21
24 29 32 32 31 41 42 9 7 20 34 28 18 19 24 30
29 25 15 13 26 18 54 84 78 84 70 94 92 57 110 94
99 105 76 55 89 89 71 64 103 117 117 120 120 126 129 137
144 144 122 48 21 20 15 10 9 10 24 43 25 21 21 21
18 31 30 29 24 24 29 31 21 36 36 35 32 22 28 34
36 33 32 31 27 23 26 25 24 23 23 8 0 0 34 40
5 0 0 19 46 44 44 44 44 44 44 43 44 44 44 44
0 0 0 0 18 42 35 32 30 30 30 25 24 23 22 22
25 30 33 34 32 42 43 17 23 33 29 22 12 25 24 34
30 23 16 13 28 18 46 79 83 88 75 99 92 57 114 94
104 102 72 56 87 84 67 61 100 115 117 119 119 122 134 140
144 142 66 21 23 24 22 17 11 12 19 51 23 23 19 21
26 30 29 28 25 22 30 31 22 36 36 33 22 17 25 32
31 33 33 35 32 26 24 25 25 25 24 7 0 0 16 17
1 0 0 22 46 45 45 44 44 44 44 44 45 44 44 44
0 0 0 0 18 42 36 32 30 30 31 29 27 26 26 26
29 33 35 35 34 44 48 34 30 24 14 8 22 27 24 37
31 21 19 14 27 21 38 77 86 94 77 100 97 60 117 94
101 99 69 61 82 84 62 61 102 114 119 121 125 121 125 137
145 143 81 23 31 43 43 48 45 51 64 70 50 26 19 20
27 29 26 23 21 21 31 31 19 32 37 31 17 20 25 27
27 30 33 34 34 29 24 25 25 25 24 7 0 0 0 0
0 0 0 25 46 45 44 44 44 45 45 44 44 44 45 44
1 1 1 2 22 43 35 31 30 30 29 29 28 27 27 28
30 35 37 36 33 41 24 9 9 8 7 5 20 30 29 41
31 19 21 16 23 26 26 76 87 94 81 99 101 60 116 89
96 96 64 59 79 83 58 60 98 110 116 121 124 124 126 137
145 133 80 49 43 31 22 15 13 7 8 27 57 24 17 20
24 25 26 17 17 22 30 30 18 26 31 19 16 21 21 24
27 28 29 30 32 30 26 21 25 25 24 6 0 0 1 0
0 0 0 28 45 44 44 45 44 44 44 44 45 44 44 44
21 22 23 25 31 36 33 31 30 29 30 29 28 27 27 28
30 35 36 35 31 21 7 10 14 10 28 42 5 26 33 41
32 18 23 18 21 25 19 64 89 98 88 101 100 67 120 87
97 92 59 60 78 81 50 59 90 112 111 121 123 123 125 131
102 51 26 14 13 12 12 16 14 9 5 15 73 31 20 24
21 21 23 16 18 20 27 31 20 28 25 19 19 19 18 20
21 24 25 26 29 30 28 24 25 26 24 6 0 0 0 0
0 0 0 31 45 44 44 44 45 44 44 44 44 44 44 44
31 31 31 31 31 31 31 30 29 29 30 29 28 28 28 28
30 34 35 34 28 19 16 15 15 10 12 12 11 29 36 43
35 20 23 22 22 28 17 46 89 100 96 102 102 75 117 83
93 88 56 64 77 78 48 57 75 105 113 119 123 125 120 78
24 33 64 14 14 13 15 19 12 10 7 11 54 36 22 23
20 20 20 17 14 22 27 32 23 25 20 17 20 18 15 17
18 20 20 22 26 27 31 23 28 26 23 5 0 0 0 0
0 0 0 26 45 44 44 44 43 44 43 43 43 43 43 43
30 30 30 30 30 30 31 30 28 28 28 28 29 28 28 28
30 33 36 28 21 15 8 9 10 7 14 12 19 30 38 45
38 22 25 22 22 26 12 39 66 101 101 108 103 82 116 81
82 83 56 65 75 76 48 54 78 96 113 114 120 90 42 20
9 7 28 9 7 10 9 13 4 8 3 9 38 46 27 19
15 20 16 18 11 20 24 28 19 26 18 13 17 15 14 14
16 17 16 20 23 24 30 25 28 26 22 4 0 0 0 0
0 0 0 13 41 42 43 43 43 43 43 43 43 42 43 42
28 28 28 27 27 27 26 26 27 27 27 28 28 28 28 28
29 33 26 24 20 10 10 12 9 13 13 23 23 31 42 47
40 23 26 24 23 25 9 33 51 91 107 115 101 78 113 75
72 80 57 62 74 74 49 49 72 83 102 81 45 20 17 12
6 3 40 8 10 21 33 50 56 62 55 52 77 49 31 12
14 16 13 15 7 21 23 24 22 21 19 12 14 13 13 13
14 14 16 16 20 24 24 23 24 26 24 4 0 0 0 0
0 0 0 21 27 42 42 41 42 42 41 41 41 41 41 41
12 10 10 14 18 20 20 20 27 27 26 27 27 27 27 28
29 27 25 23 14 12 12 10 13 12 20 25 24 31 46 49
41 24 27 24 23 21 9 27 49 86 111 115 100 80 113 72
66 78 56 64 77 73 51 47 56 62 34 17 17 12 12 12
7 1 45 56 61 55 39 26 12 14 6 8 21 50 33 10
14 15 11 13 3 19 20 31 26 20 17 10 10 9 11 12
12 11 12 14 19 21 21 21 22 30 27 5 0 7 21 8
0 0 2 34 20 35 42 41 41 41 41 41 40 41 40 40
0 0 0 7 15 21 23 22 25 27 27 27 27 28 27 27
26 27 25 20 15 15 11 8 18 14 29 26 29 31 49 54
41 27 29 27 19 18 6 23 48 84 118 118 99 80 113 67
66 79 59 63 76 76 53 49 42 41 22 10 17 8 10 11
13 6 10 13 7 11 14 13 5 12 9 8 18 48 38 13
12 15 11 14 4 18 16 28 28 20 16 8 8 8 11 11
11 10 10 15 20 21 20 21 21 22 25 4 1 87 137 69
0 0 3 39 32 22 41 41 41 41 41 41 41 40 40 41
0 0 0 9 13 19 23 24 25 26 26 26 27 27 27 26
27 28 27 18 11 11 12 13 16 23 28 31 34 35 51 58
40 30 29 28 15 13 6 20 48 78 119 119 95 79 113 63
66 75 62 67 78 75 56 43 38 38 28 10 15 11 10 12
13 8 9 14 13 13 15 12 5 12 13 8 18 37 41 18
14 13 13 14 5 13 9 17 28 19 14 6 8 9 8 8
9 8 10 14 19 17 15 18 18 16 18 0 4 113 143 65
0 0 5 40 40 21 33 41 41 41 41 40 41 41 41 41
1 3 6 12 14 20 24 25 26 27 27 28 28 28 24 26
29 34 23 15 5 12 11 10 13 26 30 34 37 35 53 61
39 32 29 28 15 11 10 15 47 71 121 121 88 87 112 61
64 72 66 73 78 74 60 46 37 32 35 15 13 11 11 10
12 8 11 10 8 11 15 12 6 12 8 6 11 27 41 32
12 12 13 12 6 12 9 12 23 17 13 5 8 7 6 6
9 11 11 13 17 18 18 14 11 10 13 2 0 27 38 9
0 0 7 40 40 28 10 24 40 40 40 40 41 40 41 41
16 17 14 12 15 20 24 27 29 30 31 31 31 27 23 25
27 24 26 23 9 12 9 9 14 27 30 37 37 37 58 64
39 33 28 29 17 12 9 14 44 61 121 120 71 91 109 61
60 71 68 74 80 73 63 42 33 30 40 15 11 9 9 12
13 9 10 13 10 12 16 11 5 14 14 11 8 18 41 37
11 11 13 11 8 11 11 7 12 11 13 4 7 8 9 7
9 10 12 15 18 21 19 9 7 8 9 7 3 0 0 0
0 0 6 32 26 5 7 5 39 40 40 40 41 40 40 41
22 21 18 18 21 23 25 27 32 32 31 32 30 24 22 24
28 19 13 16 23 13 7 10 19 29 30 41 38 39 64 64
39 33 30 31 19 13 8 15 46 59 116 114 62 101 107 61
58 69 71 81 85 74 67 34 35 32 43 21 9 10 8 10
14 10 8 12 7 10 15 10 5 12 14 11 5 14 38 37
16 12 11 9 7 12 11 5 8 8 11 3 8 10 9 8
9 11 14 13 20 23 12 9 7 10 8 10 5 0 0 0
0 0 0 8 14 24 34 5 38 40 40 40 39 40 40 40
22 22 21 21 20 19 18 19 34 33 29 31 23 23 21 20
28 18 16 16 19 11 7 10 21 26 33 41 38 40 73 62
38 33 32 32 22 15 9 14 44 55 119 113 63 104 102 56
58 66 73 86 84 76 70 33 36 37 39 30 10 10 7 10
11 10 9 12 13 12 14 11 5 10 8 13 4 13 29 43
17 10 12 9 6 13 12 4 10 7 11 7 10 9 9 6
11 13 10 12 19 16 8 5 8 10 9 9 0 0 0 0
0 0 0 1 5 16 26 3 30 40 40 40 40 40 39 40
13 13 13 13 13 14 13 15 33 35 29 26 21 23 22 15
25 17 16 21 16 8 7 14 19 26 36 41 37 45 80 59
41 33 33 35 26 19 9 17 38 54 124 114 66 108 91 58
59 70 79 85 86 77 72 34 27 40 34 33 9 10 8 8
12 8 7 8 9 11 12 11 7 12 15 13 2 9 22 43
16 11 11 6 6 13 12 6 10 8 9 7 9 9 8 8
11 13 9 16 17 9 10 3 7 15 10 8 0 0 0 0
0 0 0 0 0 1 1 0 7 29 40 39 40 40 40 40
