P2
128 120
145
36 35 35 34 33 33 33 32 32 31 31 31 31 30 29 30
28 28 28 27 27 26 26 25 25 24 25 24 24 23 23 23
22 22 21 21 21 21 20 19 19 18 17 15 14 13 14 16
18 18 19 15 11 18 22 21 19 17 17 16 15 13 11 9
9 8 7 11 13 11 12 9 12 14 15 15 16 17 17 17
18 18 18 19 20 20 21 21 21 21 22 22 23 23 23 24
23 24 24 25 25 26 26 27 28 27 28 28 29 30 30 30
31 31 31 33 31 31 32 32 32 32 32 32 32 33 32 33
35 35 35 34 34 34 33 32 32 31 31 31 30 30 29 29
28 28 28 27 27 26 27 26 25 25 25 25 24 24 23 23
23 22 21 21 21 21 20 20 19 18 17 16 15 14 15 18
19 20 21 16 10 19 23 22 20 19 18 16 16 15 13 11
11 9 8 10 13 13 11 13 14 16 16 16 18 18 18 18
18 19 20 20 20 21 21 21 22 22 23 23 23 23 23 23
24 25 26 26 27 27 28 28 28 29 29 29 30 30 31 31
31 31 31 32 31 32 31 32 32 32 32 32 33 34 33 33
35 35 35 34 34 34 33 32 32 32 32 31 31 30 30 29
29 28 28 28 27 27 26 26 26 25 25 25 25 24 24 24
23 23 22 22 22 21 20 21 20 19 18 17 16 16 17 20
21 22 23 17 9 18 24 21 20 19 18 18 17 16 15 14
14 12 9 9 13 13 13 14 16 17 17 18 18 19 19 20
20 20 21 21 21 21 22 22 23 23 22 23 24 24 26 26
25 26 28 27 27 28 28 29 29 29 30 29 30 30 30 31
31 31 32 33 31 32 32 32 32 33 32 33 33 33 33 34
36 35 36 35 35 34 33 33 33 32 32 31 30 30 30 29
29 29 29 28 28 28 27 27 26 26 26 26 25 24 24 24
24 23 23 23 22 22 22 21 21 21 19 19 17 17 18 21
23 23 23 17 11 18 25 23 21 21 20 19 18 17 15 15
16 14 11 9 15 12 14 16 18 18 19 19 20 21 20 20
21 22 22 22 22 23 23 23 23 24 25 24 25 25 26 26
26 27 29 28 29 29 29 30 30 31 31 31 31 31 31 31
32 32 32 33 32 32 32 33 33 34 34 33 34 34 33 33
36 35 35 34 34 34 33 33 32 33 32 32 32 31 30 31
29 29 29 28 28 27 27 26 26 26 26 26 25 25 25 24
24 23 23 24 23 23 22 22 22 20 20 19 19 18 19 23
24 25 24 18 12 16 25 22 22 21 21 20 19 18 16 16
16 16 12 8 16 13 16 17 19 19 20 20 21 21 21 22
22 22 23 22 22 23 23 24 24 24 25 25 26 27 27 26
27 28 29 28 29 30 30 29 30 30 30 31 30 31 31 31
32 32 32 33 32 33 33 33 33 33 33 32 32 33 34 34
36 36 35 34 34 34 34 33 33 32 32 32 32 31 31 30
30 29 29 28 28 27 28 27 27 27 26 26 26 25 25 25
24 24 23 24 23 22 23 22 22 21 21 21 20 20 20 25
25 25 24 19 12 16 26 24 23 22 22 21 20 18 17 17
18 16 14 9 16 15 17 18 20 21 21 21 22 22 23 22
22 22 23 23 24 24 24 25 25 26 26 26 27 27 27 27
28 29 30 29 29 30 30 30 30 30 30 31 31 31 31 31
32 32 33 34 33 32 33 31 32 32 33 34 34 33 34 34
36 35 35 35 35 34 34 33 33 32 32 32 32 31 31 31
30 30 29 29 28 29 28 27 27 27 26 26 26 26 25 25
24 25 24 24 24 23 23 22 22 22 21 21 21 21 22 25
26 26 26 20 14 16 27 24 23 22 22 22 20 19 18 19
18 17 16 11 16 16 19 20 21 21 22 21 22 23 22 23
23 23 24 24 24 25 25 25 26 26 26 27 27 28 27 28
29 29 30 29 30 30 30 30 31 31 31 31 32 32 32 32
33 32 32 32 32 33 34 34 33 33 33 34 34 33 34 34
36 36 35 35 35 34 34 34 34 33 32 32 32 32 31 31
31 30 30 29 29 28 28 28 27 27 27 26 26 26 25 26
26 24 25 24 24 24 24 23 23 22 22 22 22 22 22 26
26 26 26 21 15 16 26 25 24 23 23 22 21 21 21 19
19 18 16 12 17 17 20 21 21 21 21 22 23 24 25 24
24 24 25 24 25 25 26 26 26 26 27 27 27 28 28 29
29 29 31 30 30 30 30 31 31 31 30 31 32 32 32 31
31 32 33 33 33 33 33 33 33 34 34 34 34 34 34 35
36 35 36 35 35 34 34 33 33 33 33 33 33 32 32 31
31 30 30 30 29 29 28 28 27 28 27 27 27 26 26 26
26 25 25 24 24 24 24 24 24 23 23 22 23 23 24 27
27 27 27 21 17 16 26 25 24 23 23 23 21 22 22 19
18 19 17 13 18 17 20 22 22 23 23 23 24 23 24 24
25 25 26 25 25 26 26 27 27 27 27 27 28 28 29 29
29 29 31 30 30 31 31 31 31 31 30 29 30 31 32 33
33 34 33 33 33 34 34 34 33 33 34 34 34 34 34 34
36 36 35 35 35 34 34 34 33 33 33 33 33 32 32 32
31 30 30 30 29 29 28 28 28 28 28 28 27 27 27 26
26 25 25 25 24 24 24 24 24 23 23 23 23 24 24 28
27 28 28 22 18 15 26 25 24 23 24 23 22 21 21 21
20 19 18 16 20 19 22 23 23 23 24 24 24 25 24 25
25 26 26 26 26 26 27 27 27 28 28 28 28 28 29 29
30 30 31 31 31 30 30 30 30 30 31 32 32 32 32 33
33 33 33 33 33 34 34 34 34 34 35 34 34 35 35 35
37 36 36 36 35 35 35 33 33 33 33 33 32 32 31 31
31 30 30 30 29 30 29 28 28 28 28 28 28 27 27 27
26 26 26 25 25 25 24 24 24 24 23 23 23 24 25 28
28 28 28 23 18 15 25 26 24 23 24 23 23 22 23 21
21 20 20 18 20 21 23 23 24 24 24 24 25 25 25 25
26 26 26 27 27 27 27 27 28 28 28 28 28 29 29 30
30 29 30 29 29 29 31 31 32 32 33 34 33 33 33 33
33 33 33 33 33 34 34 34 33 34 34 34 34 35 34 34
36 36 36 36 35 35 35 34 34 33 33 33 33 32 32 31
31 31 31 30 29 29 29 28 28 28 28 28 27 27 27 27
27 26 26 26 25 25 25 25 24 24 24 24 24 25 26 28
29 29 29 24 20 12 21 26 24 24 24 24 23 23 23 22
22 21 20 17 21 21 24 24 24 24 25 25 25 26 26 26
26 26 27 27 27 27 27 28 28 28 29 29 29 29 29 29
29 28 29 30 31 31 33 32 33 33 33 34 33 33 33 33
34 34 34 34 34 34 34 34 34 34 34 34 34 34 35 35
36 36 36 35 35 35 34 34 34 34 33 33 33 32 32 31
31 31 31 31 30 30 29 30 29 29 29 28 28 28 27 27
27 27 26 26 26 25 25 25 25 24 24 24 24 25 26 29
29 29 29 23 18 10 22 27 26 25 25 25 24 23 24 22
22 22 21 18 23 22 25 25 25 25 25 25 26 26 25 26
26 27 28 27 28 28 29 28 29 29 29 29 29 28 29 29
30 30 31 31 32 32 32 33 34 33 33 34 34 33 34 34
34 34 34 34 34 34 35 34 35 35 34 34 34 35 34 35
36 36 36 35 35 35 34 34 34 33 33 34 33 32 32 32
32 32 32 31 30 30 30 30 29 29 29 28 28 28 28 28
27 27 27 26 25 26 26 25 25 25 25 25 25 26 26 29
29 30 29 23 19 17 24 28 26 26 26 26 25 24 25 23
23 23 22 19 23 23 25 25 25 26 25 26 27 26 27 27
27 27 28 28 28 29 29 29 29 29 29 29 30 30 31 31
32 31 32 32 32 32 33 33 32 33 33 35 34 34 34 34
34 34 35 34 34 34 35 35 35 35 35 35 35 35 35 35
37 36 36 36 36 35 35 34 34 33 34 33 33 32 32 32
32 32 32 32 31 30 30 30 29 29 30 29 29 28 28 28
28 27 27 27 27 27 26 26 26 25 25 25 25 26 26 29
30 30 29 23 20 20 22 29 28 27 27 26 25 25 26 23
23 23 22 19 24 24 26 26 26 26 26 27 27 27 28 28
28 28 28 28 28 28 29 29 29 29 30 30 29 30 31 30
31 31 32 32 33 33 34 33 33 34 34 35 34 33 33 34
34 34 33 34 34 34 34 35 34 35 35 35 35 35 35 36
36 36 36 35 35 35 35 35 35 34 34 34 34 33 33 33
33 32 32 31 32 30 30 30 30 29 30 29 29 29 29 28
28 27 27 27 27 27 27 27 26 26 26 25 26 26 27 31
31 31 30 25 20 22 23 30 28 28 27 27 26 26 26 24
24 24 23 20 25 24 26 26 27 27 27 27 27 28 28 28
28 28 28 28 28 29 29 29 30 30 31 31 31 31 32 32
32 32 33 33 33 33 34 34 33 34 34 34 35 34 34 35
35 35 35 35 35 35 35 35 35 35 36 35 36 35 35 36
36 36 36 36 35 35 35 34 35 34 34 34 33 34 33 33
33 32 33 32 31 31 31 30 30 30 30 29 29 29 29 29
29 28 28 28 27 27 28 27 26 26 26 26 26 26 28 31
31 31 31 26 21 24 23 29 29 28 28 27 26 26 26 25
25 24 24 21 25 25 27 27 27 28 28 28 28 28 28 28
28 28 29 29 29 30 30 30 30 31 32 31 32 31 32 32
31 32 33 32 33 33 33 34 34 35 34 35 34 34 34 34
34 35 35 35 35 35 35 35 35 36 35 35 35 35 35 35
36 36 36 35 35 35 35 35 34 35 34 34 34 34 34 33
33 33 33 32 32 31 31 30 30 30 30 30 30 30 30 29
29 28 28 28 28 27 27 27 26 26 26 26 26 26 27 31
32 32 32 26 21 25 22 29 28 28 28 27 27 26 27 25
25 25 24 21 26 25 27 27 27 27 27 28 28 28 28 28
28 29 29 29 29 30 30 30 30 31 32 32 32 32 32 33
33 33 33 33 33 33 33 33 33 34 34 35 35 34 34 35
35 36 36 35 35 35 35 35 35 35 36 35 35 35 35 35
37 36 35 36 35 35 35 35 35 35 34 33 34 34 33 33
33 33 32 32 32 31 31 31 31 30 30 30 30 29 29 29
29 29 28 28 28 27 27 27 27 27 27 26 26 27 28 31
32 32 32 26 22 26 22 29 30 29 28 28 27 26 27 25
25 25 24 22 26 25 27 27 27 28 28 29 28 29 30 29
28 29 29 29 29 29 31 30 30 31 32 32 32 32 32 32
33 33 33 33 33 34 34 34 34 34 35 35 35 35 35 35
35 35 35 33 34 34 35 35 35 35 35 35 36 35 35 35
37 36 36 36 36 36 35 35 35 35 35 35 35 35 34 34
33 33 33 32 32 32 32 31 31 31 31 31 31 30 30 30
29 29 29 28 28 28 28 27 27 27 26 27 27 27 28 32
33 33 32 27 22 27 23 28 30 29 29 28 28 27 28 27
26 26 26 22 26 24 28 28 28 28 28 29 29 29 30 29
30 29 30 30 30 31 30 31 32 32 32 32 32 32 33 33
33 33 33 34 33 34 34 34 35 34 34 35 35 35 34 34
34 35 35 36 35 34 36 35 34 35 35 35 35 35 35 36
36 36 36 36 35 36 36 36 35 35 35 35 34 34 33 33
34 33 33 33 33 32 32 32 32 31 31 31 31 30 30 30
30 29 29 29 28 28 28 27 28 28 27 27 27 28 29 33
34 33 32 28 22 28 23 28 31 30 29 29 28 27 29 27
26 26 25 23 26 26 29 29 29 29 29 30 30 29 30 30
30 30 30 30 31 31 31 32 33 33 33 32 33 32 33 33
33 33 33 34 34 34 35 35 34 35 34 34 34 34 35 35
35 36 35 36 37 34 35 35 35 35 35 35 35 36 36 36
36 36 35 36 36 35 35 35 35 35 35 34 34 34 34 34
33 33 33 33 32 32 32 32 32 31 31 31 31 31 30 30
31 30 30 29 29 28 28 28 28 28 27 27 28 29 31 33
34 34 33 28 22 28 25 28 30 30 30 28 29 28 30 28
27 27 26 23 27 26 29 29 29 28 29 30 30 30 30 30
31 31 31 31 31 31 32 32 32 32 33 33 33 33 33 33
33 34 34 34 34 34 34 34 33 34 35 35 35 35 36 35
35 35 36 35 37 35 35 35 35 35 35 35 36 35 36 35
36 36 36 36 36 35 35 35 35 35 34 34 34 34 33 33
33 33 33 33 33 33 33 32 32 32 32 31 31 30 31 30
30 29 30 29 29 29 28 29 29 28 28 29 28 29 29 33
34 33 33 29 23 29 26 28 29 30 31 29 29 28 29 28
27 27 26 24 27 26 29 29 29 30 30 30 30 30 30 30
30 30 30 31 31 32 32 32 32 33 33 33 33 34 34 34
33 33 34 34 34 34 35 35 36 36 35 35 35 35 35 35
36 35 35 35 36 35 34 35 35 35 35 36 35 36 36 35
37 37 36 36 36 37 36 35 36 35 35 35 35 34 34 34
34 34 33 34 33 33 33 33 33 33 32 32 32 32 31 31
31 31 30 30 30 30 30 30 29 29 32 33 36 34 33 35
36 36 35 29 24 29 27 27 30 31 30 30 30 29 30 29
28 28 28 25 28 27 30 30 30 29 30 30 31 31 31 31
31 31 32 31 32 33 33 34 33 33 34 34 33 33 33 33
33 34 34 36 36 36 36 36 36 37 36 36 36 36 37 36
35 36 36 37 37 36 36 36 36 35 36 35 36 36 36 35
37 36 36 37 36 36 36 35 35 36 35 35 35 35 34 34
34 34 34 35 34 33 33 33 33 33 33 32 32 32 32 31
31 31 31 30 31 30 31 31 30 36 38 39 34 31 32 36
36 36 36 31 25 30 30 26 32 32 32 31 30 30 29 28
28 28 28 25 27 28 30 31 31 30 31 32 31 31 32 31
32 32 32 32 32 33 33 33 33 33 33 33 33 34 34 34
34 35 35 37 36 36 36 37 36 36 36 36 37 36 36 36
36 36 36 35 37 36 35 36 36 36 36 36 36 36 36 36
38 38 37 37 36 36 36 36 36 36 35 35 35 35 35 35
35 35 35 34 34 34 34 34 33 34 33 33 33 32 32 32
32 31 32 31 31 31 32 32 33 34 36 35 31 30 31 35
37 37 36 32 27 32 33 27 33 33 32 31 31 30 29 29
29 29 28 26 28 28 31 31 31 31 31 32 32 32 32 33
32 33 33 33 33 33 33 34 34 34 34 34 34 35 35 35
36 35 36 37 37 36 37 37 37 36 37 36 36 36 36 36
36 36 36 37 37 37 36 36 37 36 37 37 36 36 37 37
37 37 36 36 37 37 37 37 37 37 36 36 36 36 36 35
36 36 36 35 35 35 35 34 34 34 33 34 33 33 33 33
32 32 33 33 34 36 36 37 37 36 35 32 30 29 30 31
34 34 33 29 31 34 34 28 34 33 33 32 31 31 29 30
29 29 29 26 29 28 30 31 32 32 32 33 33 33 33 33
33 33 32 33 33 33 34 34 35 34 35 35 34 36 36 36
36 36 37 38 37 37 37 36 37 37 37 37 37 36 36 36
37 37 36 36 37 37 36 37 37 37 36 36 36 37 36 36
38 37 37 37 37 37 37 36 36 36 36 36 36 36 35 36
35 35 35 35 35 34 34 33 33 34 33 33 34 33 33 32
33 33 35 36 36 35 34 36 33 33 32 26 27 22 22 29
30 32 32 31 23 28 30 29 33 35 34 32 31 31 29 31
29 30 29 26 28 29 31 32 32 33 32 33 32 32 33 32
32 32 32 34 34 34 35 34 34 35 35 35 35 35 36 36
36 37 36 37 37 36 37 37 37 38 37 37 37 37 36 36
37 37 37 36 37 38 37 37 37 37 37 37 36 36 36 35
37 37 38 37 36 37 37 37 37 37 37 37 37 36 37 36
36 35 35 35 35 34 34 34 34 34 34 34 34 34 34 34
37 43 45 42 39 35 36 32 26 33 34 32 24 30 23 26
27 29 34 33 31 27 26 24 26 26 31 38 33 32 30 31
30 30 30 28 29 30 32 32 32 33 33 32 33 33 33 33
33 34 34 35 34 34 35 34 35 35 35 36 37 36 37 37
37 37 37 37 37 37 37 37 37 37 37 37 37 37 37 37
37 37 38 38 38 39 37 37 37 36 36 36 36 36 36 37
38 37 37 37 37 37 37 37 36 36 37 36 37 37 36 36
36 35 35 35 35 35 35 34 34 34 34 34 34 34 36 41
51 49 44 36 34 34 34 35 33 28 37 38 29 37 24 25
32 24 33 33 36 31 33 25 26 25 19 24 30 33 30 30
30 29 30 28 29 29 32 33 32 32 33 33 33 33 33 33
34 34 34 35 34 34 35 35 35 36 35 36 36 36 36 37
37 37 36 38 38 37 37 37 38 37 37 37 37 37 37 37
37 37 37 37 36 36 35 35 35 35 36 36 37 37 38 36
38 37 37 36 36 37 36 37 37 37 37 37 36 36 36 36
36 36 35 34 35 35 34 34 34 34 34 34 34 38 47 55
49 44 37 34 33 34 37 38 43 38 38 45 41 38 33 25
34 28 27 37 34 35 33 31 26 26 21 20 24 25 30 32
30 30 30 27 28 30 32 33 33 33 33 33 33 33 34 34
34 34 34 35 35 35 34 35 35 35 36 36 36 36 36 37
37 37 36 37 37 36 36 37 37 37 37 37 37 37 37 37
37 37 36 36 36 36 35 36 36 36 36 34 36 36 37 36
31 34 37 37 38 37 37 36 37 37 37 36 36 36 36 35
35 36 35 35 35 35 35 35 35 34 35 35 39 52 58 52
49 47 38 40 40 43 45 48 54 49 46 48 52 40 43 29
34 36 24 40 38 38 32 36 31 29 25 22 22 25 25 28
31 31 30 29 29 31 33 33 33 34 33 33 33 34 33 33
34 34 34 35 35 35 36 35 35 35 36 36 36 36 37 36
36 37 37 37 37 37 37 37 38 38 38 37 36 36 35 35
35 36 36 36 36 36 36 36 36 36 36 36 36 36 37 36
13 23 37 37 37 37 37 37 37 36 37 37 36 36 36 36
36 36 35 35 35 35 34 35 34 34 35 39 55 58 59 56
57 46 47 44 49 53 58 63 65 66 61 51 55 50 48 36
32 40 24 37 40 38 35 37 33 31 30 23 23 25 27 24
30 31 30 29 29 31 32 33 33 33 33 33 33 34 33 33
34 34 34 36 35 35 35 35 35 35 36 36 36 36 37 37
37 37 37 37 37 37 37 36 36 36 36 36 37 36 36 36
37 37 37 36 36 36 35 35 36 36 36 35 36 36 36 36
13 21 37 37 37 37 37 37 36 36 36 37 37 36 35 36
36 36 36 36 36 35 35 35 35 35 40 53 55 63 59 61
61 50 53 51 57 64 71 79 83 87 80 60 54 60 49 44
34 43 28 34 46 39 36 37 35 32 33 27 25 22 27 26
26 31 31 29 28 31 32 34 33 33 33 34 34 33 34 34
34 35 35 36 36 35 35 35 36 35 36 36 36 36 36 36
37 37 36 37 36 36 36 36 37 37 36 36 37 36 36 36
36 36 36 36 35 35 36 36 36 36 36 36 36 36 36 35
14 20 36 37 37 37 37 36 36 36 37 38 37 37 37 37
37 36 36 36 35 35 35 35 35 39 54 56 62 65 66 69
62 57 59 60 66 76 88 94 96 96 90 73 62 60 57 51
40 42 34 31 47 41 39 39 37 34 34 31 28 26 28 29
26 29 31 30 29 31 32 33 33 33 34 34 34 34 35 34
34 35 35 36 36 36 35 36 36 35 36 36 36 36 36 35
36 36 36 36 36 36 37 37 37 36 36 36 37 37 36 36
37 36 37 37 37 37 36 36 36 36 36 36 35 35 35 36
15 20 36 38 38 37 38 37 38 46 45 43 42 40 38 37
36 36 37 36 36 36 36 35 37 52 59 58 69 67 73 73
62 63 62 67 74 86 97 104 106 105 99 88 73 65 68 54
45 42 40 31 42 46 42 38 40 38 37 33 29 27 27 30
27 27 30 30 29 32 33 34 34 34 34 35 35 35 35 34
35 35 35 36 36 36 35 36 36 36 36 36 36 36 37 36
37 37 36 36 36 37 36 36 37 36 36 35 37 37 36 36
36 36 36 36 36 36 36 36 36 36 36 36 36 36 35 35
16 23 38 38 38 38 37 37 39 49 48 47 46 43 42 41
41 38 37 36 35 36 36 35 47 60 60 66 68 71 82 75
65 70 69 73 82 95 104 109 113 111 106 96 86 77 72 67
55 46 42 36 40 50 44 40 42 36 37 34 31 29 29 31
30 26 30 30 29 32 33 34 34 34 34 34 34 35 35 35
35 35 35 35 36 35 35 34 35 36 36 36 36 35 36 36
37 37 37 36 37 36 36 36 36 36 36 35 36 37 36 36
36 36 36 36 36 36 36 36 36 35 36 36 36 35 35 36
15 25 40 40 40 39 38 37 40 50 50 48 45 44 45 46
48 42 43 42 39 38 36 39 56 59 64 72 69 74 86 76
65 72 77 77 89 103 109 115 117 114 112 103 92 88 79 79
63 51 46 41 39 50 46 42 42 37 38 37 34 28 32 31
33 27 31 33 30 33 33 35 35 35 35 35 35 35 35 35
34 34 35 35 35 35 35 35 36 35 36 37 38 37 37 36
37 37 37 37 37 36 36 36 36 36 36 36 37 38 36 36
37 36 37 36 36 37 36 36 36 35 36 37 36 36 35 36
16 27 43 42 41 41 41 40 41 42 38 43 44 47 49 50
50 44 39 41 44 43 41 50 64 61 71 70 71 80 91 78
70 76 85 82 91 108 116 118 122 117 114 107 94 93 91 87
73 60 48 47 41 51 52 44 43 41 38 39 37 32 33 32
35 28 31 39 31 33 33 35 35 35 35 35 35 34 34 35
35 35 36 35 36 35 36 36 36 36 36 37 38 36 37 36
37 37 37 36 36 36 36 36 36 36 36 36 37 38 37 36
36 36 36 36 36 36 36 35 36 36 35 36 36 36 36 36
16 27 43 41 36 37 42 45 47 28 2 10 26 36 41 43
46 40 10 10 18 26 39 58 62 66 74 70 72 87 92 75
73 77 88 86 92 111 121 121 129 120 115 107 102 93 98 95
83 71 46 53 47 51 57 47 44 44 41 43 39 37 36 36
37 29 31 44 33 33 33 35 35 35 35 34 35 34 35 35
35 34 34 35 35 36 36 36 37 36 37 37 38 37 38 37
37 36 37 36 37 37 37 36 36 36 36 36 36 37 37 36
36 36 36 36 36 36 36 36 36 36 36 37 37 37 36 35
16 26 40 43 40 38 39 47 51 28 0 0 8 17 19 19
28 38 3 0 0 2 31 58 60 71 74 72 74 96 92 79
76 79 91 87 93 113 124 126 131 122 114 108 102 99 95 101
92 82 58 58 52 50 62 52 47 46 43 42 43 42 40 40
40 33 33 47 43 33 33 35 35 35 35 35 36 35 35 35
35 35 35 36 36 36 36 36 36 36 36 36 38 37 37 37
36 37 37 37 37 37 36 36 37 37 36 36 37 37 37 36
36 36 36 36 36 36 36 36 36 36 36 36 36 36 36 35
17 14 12 20 29 38 43 49 51 30 0 0 4 10 13 14
22 38 5 0 0 12 37 58 62 72 72 73 76 96 89 80
77 80 95 90 94 115 126 127 132 125 113 106 101 95 99 103
101 91 75 59 55 52 61 60 49 49 46 45 43 43 44 43
45 38 35 43 55 35 33 36 35 35 36 35 36 36 35 35
35 36 35 35 36 36 36 37 36 37 37 37 39 37 37 37
37 36 37 36 37 37 37 36 37 37 36 36 37 38 37 37
36 36 37 36 36 37 36 37 36 36 37 36 36 36 36 36
17 10 0 0 1 4 10 19 30 29 0 0 2 4 4 7
19 38 7 0 0 19 46 58 66 73 68 71 84 91 91 82
77 81 96 93 96 114 127 129 131 123 115 106 101 96 97 107
106 100 87 66 62 57 63 67 58 52 48 49 46 43 48 46
45 40 38 41 57 40 33 36 35 36 36 36 36 36 36 36
36 36 36 36 37 36 37 36 37 37 37 36 37 37 37 37
37 37 37 37 38 37 37 37 37 37 37 36 37 37 36 36
36 36 37 37 37 37 36 36 37 37 37 37 36 36 36 35
17 9 0 0 0 0 0 0 2 20 0 0 0 0 0 1
16 35 3 0 4 21 50 61 70 70 65 70 90 89 94 83
75 81 95 94 97 110 131 129 132 123 117 107 102 98 96 102
110 110 90 85 69 58 66 74 66 57 50 53 48 47 50 52
47 44 40 41 57 50 33 36 36 35 35 35 36 36 35 35
35 35 35 35 36 36 36 36 37 38 37 37 38 37 37 37
37 37 37 37 37 37 37 37 37 37 37 37 37 37 36 37
37 37 37 37 36 36 37 37 37 37 37 37 37 37 36 36
18 9 0 0 0 0 0 0 1 18 0 0 0 0 0 0
19 39 4 0 7 26 52 62 71 67 63 72 90 94 95 82
77 84 96 96 96 107 130 133 135 129 119 109 105 100 99 99
105 112 103 96 79 61 68 78 70 65 55 53 50 49 52 58
47 48 42 45 55 58 36 36 36 36 36 36 37 36 36 36
36 37 36 37 36 37 36 36 37 37 37 38 38 37 38 38
38 38 38 38 38 38 38 38 37 37 37 37 36 38 37 37
37 37 37 36 36 36 37 37 37 37 38 37 37 37 37 37
17 10 0 0 0 0 0 0 0 16 0 0 0 0 0 0
18 42 6 0 6 31 49 59 74 63 68 74 86 97 99 80
76 85 97 96 96 105 125 135 136 135 125 116 107 104 102 104
101 113 110 97 90 77 62 78 77 70 59 51 56 50 52 60
49 51 47 49 54 59 43 36 36 37 36 36 37 36 36 36
37 37 37 36 36 37 37 37 37 37 38 38 38 37 38 38
37 38 39 38 37 37 38 38 37 37 37 37 38 38 38 37
37 37 37 37 36 37 38 38 37 37 37 38 38 38 37 38
17 9 0 0 0 9 5 0 0 14 0 1 0 0 0 0
17 43 6 0 5 38 47 61 76 59 68 75 81 97 97 80
76 86 100 98 96 103 121 134 136 136 134 124 113 105 104 105
112 106 114 104 93 91 70 81 88 78 67 53 58 51 54 62
52 56 48 50 52 60 52 36 36 36 36 36 37 36 36 36
36 36 36 36 37 37 37 37 38 38 38 38 38 37 37 37
37 38 38 38 38 38 38 37 37 37 37 37 36 37 37 36
37 36 36 37 37 36 38 39 38 38 38 38 37 37 35 34
17 9 1 9 4 5 2 0 0 14 1 0 0 0 0 3
18 43 7 2 7 41 45 64 74 59 67 77 77 97 91 81
76 86 101 100 96 101 118 133 136 136 136 133 123 111 110 107
103 114 100 110 84 99 85 79 95 80 80 53 62 54 53 65
57 64 49 51 52 60 55 37 36 36 35 36 37 36 36 35
36 36 36 37 37 37 37 37 37 37 37 37 38 38 38 38
38 38 38 37 39 38 37 38 38 37 37 37 36 37 37 37
37 37 37 36 37 36 38 37 36 36 35 37 36 34 32 31
17 10 6 5 0 2 3 0 0 16 1 0 0 0 0 5
24 46 12 3 9 35 42 63 72 61 61 65 46 51 72 74
74 85 105 105 99 101 111 131 136 136 136 135 133 121 104 106
102 107 109 103 91 94 94 85 96 93 92 57 62 58 55 64
61 70 53 54 56 59 59 42 36 37 36 37 36 36 36 37
36 36 36 36 37 36 37 37 37 37 38 37 37 38 37 38
38 38 38 38 39 38 38 38 37 37 37 37 37 36 37 36
36 36 35 35 34 36 37 34 33 32 30 28 26 21 19 17
16 10 3 0 0 0 0 0 1 26 19 12 9 8 1 1
17 50 37 30 28 40 44 63 68 60 62 58 50 45 42 68
72 81 99 105 102 101 108 127 135 136 137 136 136 134 116 102
99 106 109 109 95 69 103 94 94 102 95 61 66 59 60 63
64 75 54 55 53 58 59 47 36 36 36 36 36 36 37 36
36 36 37 37 37 37 37 36 37 37 37 38 37 37 38 38
38 38 38 38 39 37 37 37 37 35 35 36 36 35 34 34
34 35 32 32 30 28 25 23 20 17 15 15 15 15 16 17
16 9 0 0 0 0 0 0 1 38 51 42 38 37 33 25
29 54 34 28 33 39 48 59 64 58 65 57 53 67 45 95
92 71 72 87 97 100 106 116 131 136 136 135 135 135 127 107
100 102 95 105 112 65 104 100 94 110 102 72 72 62 62 60
65 75 55 57 52 57 58 53 36 36 36 35 36 36 36 36
36 36 36 36 38 37 37 37 37 37 38 37 37 37 37 37
38 38 37 37 37 36 36 35 34 33 34 34 34 33 31 28
26 23 21 19 18 17 17 17 18 18 19 21 22 22 22 23
16 10 0 0 0 0 0 0 1 41 54 44 49 51 54 53
50 51 26 16 18 25 38 58 63 54 66 59 53 61 34 94
108 60 29 32 37 50 58 67 68 81 90 104 109 113 112 101
94 95 88 88 89 68 84 110 95 113 105 88 77 69 64 58
67 80 58 57 54 57 59 59 37 36 36 36 36 36 37 37
37 37 37 37 39 38 37 37 37 37 38 38 38 38 38 38
38 37 38 37 37 36 34 35 37 30 27 24 22 20 19 18
18 18 19 19 21 22 22 23 24 24 25 26 24 20 26 28
18 21 22 16 10 4 1 0 1 41 46 44 51 53 57 57
48 40 25 17 18 19 28 46 52 45 54 50 50 56 52 72
68 46 46 41 41 43 48 62 77 89 78 76 73 70 75 74
76 87 82 87 83 58 57 120 105 111 111 100 82 74 67 60
73 83 65 56 52 55 58 64 42 37 37 37 37 36 36 37
38 37 36 36 38 37 37 38 38 38 39 38 38 38 38 38
37 35 32 31 29 26 23 25 38 26 17 19 21 21 22 22
23 24 25 26 26 27 28 29 29 30 30 30 30 28 22 29
18 28 47 49 46 40 35 28 26 45 39 43 50 53 56 57
51 43 28 19 18 18 18 26 29 18 50 50 53 37 52 64
78 80 92 109 111 126 132 133 132 132 129 124 112 99 94 94
76 82 65 70 66 69 85 122 114 109 118 104 87 78 68 60
70 84 69 57 52 53 53 67 47 37 36 36 36 36 37 37
37 37 36 36 37 37 37 37 37 37 37 36 34 33 30 27
25 23 21 21 22 23 22 22 32 24 20 24 26 27 27 28
29 30 30 31 31 31 31 31 32 32 32 31 33 33 30 23
19 29 48 53 53 51 51 52 53 51 26 26 35 41 47 51
49 45 33 21 19 17 14 21 28 25 75 59 69 49 47 77
112 115 112 119 127 133 138 137 137 137 138 138 137 137 137 136
131 118 101 96 91 100 103 102 119 103 122 117 92 78 69 63
74 86 73 58 47 50 47 68 52 38 36 36 36 35 35 34
35 37 37 37 37 36 36 33 31 29 27 25 24 23 22 23
24 25 26 26 27 28 28 27 34 27 25 29 31 32 32 33
33 33 34 34 34 34 34 34 34 34 34 33 34 36 36 31
18 28 47 52 52 52 53 53 54 48 10 2 4 8 14 22
26 38 35 20 17 12 4 25 30 70 86 36 70 70 47 85
115 114 121 125 134 136 138 137 137 137 136 137 138 138 137 137
136 128 118 117 127 129 87 85 123 105 123 119 94 75 72 61
72 85 76 59 48 44 43 68 56 38 34 34 33 33 33 25
29 34 32 30 28 26 25 24 24 24 25 26 26 27 28 29
29 31 32 32 33 33 33 31 34 29 27 32 34 33 34 34
35 35 36 35 36 36 36 36 35 34 35 34 34 36 36 37
25 29 40 43 44 46 47 50 53 45 7 0 0 0 0 6
16 37 36 18 16 12 2 25 51 101 92 41 55 60 40 81
100 110 123 133 136 137 137 138 138 137 137 137 137 137 136 136
136 136 136 136 135 134 101 93 122 107 117 118 96 83 76 59
75 87 79 59 50 40 44 56 62 37 33 32 30 29 27 20
21 24 24 24 25 26 27 28 29 29 31 31 32 32 33 33
34 35 35 35 36 36 34 29 17 14 26 35 36 36 36 36
36 35 36 37 38 37 37 36 37 37 35 35 34 35 36 36
25 27 28 30 34 38 37 39 48 42 5 0 0 0 2 0
5 37 36 17 15 10 1 36 102 113 93 72 70 57 37 78
102 124 134 137 138 138 138 138 137 137 137 137 137 137 137 137
136 136 137 136 136 135 105 105 122 116 115 121 100 86 76 65
72 89 81 58 50 37 46 43 63 40 27 25 25 24 25 24
25 27 29 30 31 31 33 33 34 34 35 35 35 35 36 36
37 37 37 37 37 37 35 25 6 3 21 34 37 38 37 37
36 37 37 37 37 38 38 38 37 37 36 34 35 33 35 36
23 25 24 25 28 35 34 37 48 42 4 0 0 0 1 1
0 34 32 9 6 0 0 63 125 123 97 81 90 62 53 96
121 133 137 138 137 138 137 137 137 137 137 137 137 137 137 137
136 136 136 135 136 135 94 67 111 123 118 123 104 93 75 64
70 88 78 60 53 30 46 37 63 45 28 26 27 28 30 30
30 32 33 34 34 35 36 36 37 36 37 37 37 37 37 37
37 38 36 30 25 20 29 22 9 4 17 34 37 38 38 37
37 37 37 37 37 38 37 38 37 37 36 36 34 33 33 35
21 24 22 27 31 36 37 42 48 40 4 0 0 0 0 0
1 37 26 0 0 0 19 111 131 132 106 86 93 56 77 117
133 137 138 138 137 137 137 137 136 137 137 136 137 137 136 137
137 136 136 136 136 135 105 78 114 126 115 118 102 99 74 68
70 90 77 63 55 30 44 34 56 48 31 31 32 33 33 34
34 35 36 36 36 36 37 36 37 38 38 38 38 38 38 38
38 39 27 4 3 4 24 21 2 0 16 33 36 37 38 37
37 37 37 36 37 37 37 37 37 36 36 36 35 32 31 32
23 20 3 4 8 14 19 25 30 34 4 0 0 0 0 0
2 38 26 0 0 4 76 124 136 136 116 99 64 63 106 128
136 138 137 138 138 138 137 137 137 136 137 137 136 136 136 136
136 136 136 136 136 121 107 93 113 125 117 119 108 101 76 69
69 88 77 62 55 31 39 35 46 46 35 34 35 35 34 35
36 36 37 36 37 37 38 38 38 38 38 39 39 39 39 38
39 39 32 23 26 30 33 25 1 0 15 34 37 37 38 36
37 37 36 36 37 36 36 36 36 35 35 36 36 35 32 30
27 22 1 0 0 0 0 0 1 20 3 0 0 0 0 0
2 38 23 0 0 43 113 124 137 138 124 99 88 100 120 131
137 137 137 137 137 137 137 137 137 136 137 136 136 137 137 136
137 137 136 136 136 124 94 112 121 124 114 118 111 103 80 74
67 88 78 67 55 37 33 41 37 44 36 36 36 34 35 36
37 37 38 37 38 38 38 38 38 38 38 39 39 39 38 38
39 39 38 38 37 36 34 27 4 0 17 33 36 36 37 37
37 36 36 36 36 36 37 36 36 35 34 35 35 35 35 31
27 22 1 0 0 0 0 0 0 17 3 0 0 8 5 0
0 36 20 0 11 94 123 131 136 130 120 99 89 106 123 135
137 138 137 138 137 137 137 137 137 136 137 136 136 136 137 137
136 136 136 136 135 128 101 114 126 124 116 120 112 105 81 79
71 90 82 64 54 38 24 44 32 41 39 35 36 35 36 37
37 38 38 38 38 39 38 38 38 38 39 39 39 39 38 39
39 38 38 37 36 35 34 31 9 0 21 34 37 37 38 36
36 36 36 35 36 36 35 35 35 35 34 35 36 35 34 31
27 23 1 0 0 5 1 0 0 15 3 0 4 19 13 2
1 36 18 0 40 112 131 135 134 130 131 98 81 103 121 135
138 138 138 137 137 137 137 137 137 137 137 137 137 137 137 136
137 137 136 136 135 127 116 126 115 118 118 119 114 105 82 79
78 88 83 66 54 43 21 43 34 40 37 37 36 36 38 37
37 38 38 38 38 38 39 38 38 38 38 38 38 38 38 38
38 38 38 37 37 36 35 30 19 10 27 34 36 36 38 36
36 35 35 35 35 35 35 35 34 35 35 34 34 34 33 31
24 21 1 0 5 18 8 2 0 15 5 0 12 20 16 7
1 36 17 2 51 113 125 133 138 138 136 100 73 93 115 131
137 137 137 137 137 137 137 138 138 137 137 137 137 137 137 136
136 136 136 135 135 132 133 133 110 110 122 119 117 109 87 80
76 90 85 67 49 42 22 37 36 39 38 37 36 36 37 38
38 38 38 38 38 38 38 38 38 38 38 38 38 38 38 38
38 37 38 37 37 35 34 30 27 27 32 36 36 37 38 36
36 36 35 35 35 35 34 35 34 34 34 34 34 34 34 32
23 21 1 0 13 23 12 6 0 18 26 19 27 27 26 21
12 39 17 1 24 98 104 92 86 97 95 73 75 81 103 122
134 137 138 137 137 137 137 137 138 137 137 137 137 137 137 136
136 136 136 135 135 135 135 133 114 111 123 118 118 109 86 80
74 87 88 69 44 42 26 28 39 32 38 38 36 38 38 38
38 37 37 38 38 38 38 38 39 39 38 38 38 38 38 37
38 38 38 37 37 36 35 31 31 31 35 37 37 36 37 36
36 35 34 35 35 35 35 35 34 34 34 33 33 33 32 30
21 21 1 0 8 12 7 3 0 21 45 44 48 47 45 47
47 52 20 1 4 41 86 106 116 112 105 89 90 86 85 111
130 137 137 137 137 137 137 138 137 137 137 137 137 137 137 136
136 136 136 136 136 136 136 136 120 78 119 117 117 109 90 81
77 85 90 68 46 41 28 21 40 28 37 39 38 38 39 38
39 38 38 38 38 38 38 38 38 38 38 38 39 39 38 38
38 39 38 38 37 36 35 33 33 34 37 37 36 36 37 36
36 36 35 35 35 34 33 33 34 33 33 32 32 31 32 30
23 23 8 2 2 2 1 0 0 19 46 45 49 48 48 53
57 56 35 22 24 18 16 21 44 85 107 102 93 93 88 89
118 136 138 138 138 137 138 137 137 138 138 137 137 137 136 136
136 137 135 136 136 135 136 132 68 36 113 117 118 109 94 81
80 84 89 68 49 38 31 17 38 25 35 36 38 37 37 38
38 38 38 38 38 38 37 38 38 37 38 38 38 38 38 38
39 39 38 37 37 36 36 35 35 36 36 36 36 35 35 35
34 35 34 33 33 33 34 33 33 32 32 31 30 28 29 28
24 25 22 6 2 2 0 0 0 19 44 44 46 46 47 54
57 56 45 38 39 38 35 34 36 50 92 109 111 104 99 89
91 127 138 138 138 138 137 137 137 137 137 137 137 137 137 137
136 136 135 135 129 132 134 73 24 50 111 116 119 108 93 81
79 87 90 68 51 33 30 17 34 25 28 34 39 39 38 39
38 38 38 38 38 37 38 38 38 38 37 38 38 39 39 39
39 39 38 37 37 37 36 35 35 36 36 35 34 35 35 36
35 34 34 33 32 32 32 31 31 31 30 30 30 29 29 29
25 26 17 2 0 1 0 0 0 19 43 40 42 42 43 44
42 41 41 41 42 42 40 39 41 54 71 77 84 92 86 84
76 107 133 138 138 137 137 138 138 138 138 137 137 137 137 138
137 136 135 131 100 119 100 33 36 65 104 113 116 109 92 82
75 89 91 67 51 32 31 21 31 29 23 34 38 38 38 38
39 38 38 38 38 39 38 38 38 39 38 38 38 39 38 38
38 38 37 37 37 37 36 35 36 36 36 36 36 35 36 36
35 34 33 32 32 31 31 31 31 30 30 29 29 29 29 28
27 27 14 2 1 1 0 0 0 19 46 39 40 41 40 40
38 37 40 41 43 44 43 44 42 44 53 61 80 107 104 79
61 90 123 136 137 137 137 138 137 137 137 137 137 137 137 137
137 137 134 128 103 101 99 50 67 74 100 109 113 108 92 82
74 89 90 65 54 25 26 21 27 29 18 31 36 38 37 38
39 38 39 38 38 38 37 38 37 37 37 37 38 38 37 37
38 38 38 37 37 37 36 36 37 37 36 36 36 36 35 34
34 33 33 32 31 31 30 29 30 29 29 28 29 28 28 27
25 25 31 30 29 24 22 19 16 29 48 41 41 40 40 40
41 43 45 43 44 46 50 50 45 39 50 105 124 135 121 112
80 93 115 131 137 137 138 138 137 137 137 137 136 137 137 137
136 135 128 125 127 110 109 77 81 80 103 110 111 106 92 80
70 88 89 68 54 23 21 23 22 29 19 28 36 37 37 37
37 37 38 38 38 37 38 38 37 37 37 38 38 38 37 38
38 37 37 37 36 37 37 36 36 36 36 35 35 35 34 33
33 32 31 31 30 30 29 29 28 28 28 27 28 27 28 27
26 26 44 51 52 48 49 52 52 52 51 44 43 43 42 43
45 48 50 45 45 47 52 49 45 42 60 118 132 135 109 105
90 94 109 122 135 137 137 137 137 137 137 137 137 137 137 137
136 133 124 123 122 134 112 79 79 82 101 109 108 108 86 78
68 89 88 73 54 20 17 24 16 27 18 23 33 39 37 37
38 37 38 39 38 38 37 37 37 37 37 37 38 37 38 38
37 38 37 37 36 36 37 36 36 36 35 35 34 34 33 33
32 31 30 30 29 28 28 28 27 27 26 26 27 26 26 25
26 26 46 57 57 56 56 56 56 56 53 39 36 35 34 35
40 47 52 46 46 44 42 44 44 42 59 109 89 99 102 116
118 98 103 117 131 136 137 137 137 137 137 137 137 137 137 136
133 127 119 124 128 109 109 79 86 77 101 108 105 108 88 75
67 87 84 73 60 15 12 19 14 24 15 19 29 36 38 37
38 38 38 38 38 38 37 37 37 37 37 37 38 37 36 36
37 36 36 36 35 36 36 37 36 35 35 35 34 33 32 32
31 30 30 29 28 27 27 26 26 25 25 25 25 25 25 24
27 25 35 41 43 44 45 47 49 50 48 18 11 9 7 8
12 21 44 48 43 26 18 23 25 26 40 77 98 111 123 128
122 112 105 111 124 131 137 137 137 137 137 137 137 137 136 136
129 121 114 118 117 111 108 70 77 81 101 109 103 107 87 76
68 93 78 74 59 13 12 15 16 18 16 15 26 35 38 38
38 38 37 38 39 38 37 37 37 37 36 37 37 37 37 36
35 34 33 32 30 30 32 36 36 35 35 34 34 32 32 31
31 30 29 27 26 26 26 25 26 24 25 24 23 23 25 24
27 24 29 33 34 33 33 33 33 34 36 11 0 0 0 0
0 3 36 47 33 6 0 2 6 11 32 70 104 122 129 125
122 121 115 113 119 128 137 137 137 138 138 137 137 136 135 134
124 112 110 111 94 51 75 84 77 78 99 109 106 105 87 78
74 95 76 72 52 12 8 11 18 14 16 13 20 33 37 38
38 37 37 37 37 35 35 33 33 33 33 35 37 37 36 31
18 16 14 12 10 11 24 36 36 36 34 34 34 33 32 31
29 28 27 27 26 25 24 25 25 24 24 23 24 24 23 23
27 24 34 40 40 39 38 37 37 37 37 15 5 0 0 0
0 13 39 45 19 0 0 0 0 2 28 72 105 121 126 125
125 132 126 118 120 125 136 137 137 137 137 138 136 134 133 129
119 106 102 91 81 74 41 89 68 72 98 107 106 107 89 76
70 93 75 72 53 16 8 10 16 11 17 13 15 30 37 37
37 31 27 25 22 20 16 14 11 12 15 30 37 37 37 31
10 6 6 6 6 7 22 36 37 36 34 34 33 33 31 30
28 27 27 26 26 25 25 24 25 23 24 24 23 23 23 24
26 24 36 41 42 42 42 42 43 43 40 14 6 0 0 0
0 13 37 42 10 0 0 0 0 0 19 67 99 115 121 125
133 137 133 126 124 126 132 136 135 136 136 135 131 130 128 123
111 104 102 87 57 13 56 63 59 69 98 106 105 106 87 75
71 91 72 72 56 14 9 10 12 13 15 13 14 24 35 38
33 13 7 8 9 9 5 3 3 2 4 25 36 37 37 30
9 6 6 7 6 7 22 36 36 36 34 34 33 32 30 29
28 27 27 26 25 24 24 24 24 24 23 23 23 23 22 22
29 28 37 43 43 42 41 41 42 44 42 13 3 0 0 1
6 5 31 39 6 0 0 0 0 0 17 69 100 113 123 135
138 138 136 133 130 130 133 133 132 132 130 127 124 123 118 112
105 112 104 88 83 74 57 94 58 79 99 109 109 108 85 73
70 92 74 77 60 16 10 10 10 13 11 14 12 19 32 38
31 9 3 6 7 7 5 2 3 2 3 21 36 37 36 28
8 7 7 7 6 6 19 35 36 35 35 33 32 31 29 28
27 26 26 25 24 23 23 22 23 23 23 23 22 22 22 22
36 36 38 40 39 39 31 19 25 38 46 16 0 0 0 1
8 4 28 37 4 0 0 0 0 0 33 92 112 122 135 138
138 138 138 137 135 132 134 133 130 125 124 122 118 113 109 109
115 126 108 85 66 85 42 60 57 88 103 112 115 106 86 71
73 92 73 78 61 16 9 12 8 12 13 16 11 14 30 36
33 10 3 6 8 8 5 2 3 1 3 21 36 37 37 29
9 6 6 7 6 5 16 35 36 34 33 32 31 30 28 27
25 25 25 24 23 23 23 23 23 23 22 22 22 22 21 21
37 37 37 37 37 37 24 0 4 26 48 26 6 0 0 2
8 2 24 36 2 0 0 0 0 7 74 106 121 134 138 138
139 139 137 138 137 134 131 129 125 120 115 112 108 107 112 122
128 130 102 87 92 69 112 58 58 97 105 111 116 109 86 68
75 93 71 77 63 15 9 13 8 9 15 16 12 11 21 34
32 11 3 6 9 9 5 2 3 2 3 21 36 36 36 31
11 8 8 9 9 9 14 31 33 33 31 31 30 29 28 26
25 25 25 24 23 22 23 22 23 22 21 21 21 21 20 20
36 37 37 36 37 37 27 1 1 22 48 23 2 0 0 1
7 4 24 36 3 0 0 0 0 30 90 112 125 136 138 138
138 137 137 136 133 128 123 118 113 108 103 104 109 116 126 133
134 130 99 91 54 95 109 72 60 108 107 113 117 106 86 64
79 92 71 78 63 14 14 9 11 8 13 16 15 11 17 31
31 12 3 5 8 8 6 2 3 2 2 20 35 36 36 32
17 14 14 13 13 13 19 27 29 30 32 32 30 28 28 27
25 24 24 24 23 22 21 21 21 20 20 20 20 20 20 20
25 26 27 30 34 36 29 2 0 17 44 15 0 0 0 0
0 0 23 38 3 0 0 0 0 41 88 112 125 132 133 134
135 132 129 126 121 114 106 99 95 95 101 111 121 130 136 135
135 129 99 105 95 92 51 70 65 117 104 112 114 108 83 65
83 91 75 78 63 15 17 9 13 11 10 17 17 15 15 23
31 14 3 4 5 5 4 2 3 2 2 19 36 37 37 33
13 9 9 6 1 0 3 4 3 6 30 31 30 29 27 26
25 23 23 23 22 21 22 21 21 20 21 20 20 20 20 20
1 1 2 18 34 36 30 3 0 14 40 12 0 0 0 0
1 0 20 40 5 0 0 0 0 34 79 102 113 119 121 121
120 115 110 105 97 90 86 88 97 107 116 123 128 134 138 137
137 132 101 107 126 112 88 71 79 124 103 106 113 108 84 59
84 90 77 84 64 16 14 13 12 11 8 17 18 14 13 17
29 16 6 3 2 1 2 2 3 2 2 17 35 37 37 32
13 6 7 3 0 1 5 21 12 1 28 31 29 28 27 26
25 24 23 23 22 22 21 21 20 20 21 20 20 20 20 19
0 0 0 18 39 36 33 5 0 10 38 17 4 2 2 5
17 12 23 44 22 13 13 16 15 26 61 77 89 93 94 93
94 92 91 92 94 97 102 106 111 117 122 126 131 134 136 135
137 134 124 115 124 108 100 100 101 131 105 106 111 108 80 60
88 85 78 86 65 23 12 17 15 15 8 13 15 17 15 15
20 17 10 5 0 0 4 3 4 3 2 17 35 37 37 33
14 6 7 4 0 0 1 6 1 1 26 31 28 27 26 26
25 24 23 23 22 22 22 22 22 21 21 21 21 19 19 19
0 0 0 16 40 36 33 7 0 5 37 38 35 30 30 37
45 42 42 44 48 48 44 46 47 48 49 45 44 41 44 52
65 76 84 92 97 103 108 113 117 119 121 125 129 134 136 137
137 134 136 133 123 105 101 104 112 132 109 106 110 109 79 62
90 80 78 83 68 23 15 16 24 22 9 7 13 16 15 16
14 16 9 6 2 3 7 3 4 3 1 16 35 36 37 34
15 6 6 4 0 0 0 0 0 0 24 30 27 25 26 25
24 23 23 23 22 22 22 21 20 21 20 20 20 19 20 19
0 0 0 13 39 37 33 9 0 2 36 44 44 39 42 49
53 48 44 40 50 54 51 51 51 53 54 51 39 29 30 35
44 54 66 75 86 95 101 107 113 116 120 121 125 134 135 138
137 137 137 135 121 106 102 104 119 129 106 108 109 109 72 57
90 72 73 82 70 22 19 14 19 34 18 3 9 15 11 16
14 16 12 7 3 0 4 3 4 3 1 15 34 37 37 33
14 5 6 2 0 0 0 0 0 0 21 14 7 6 19 25
23 23 23 22 21 21 21 21 21 21 20 20 20 19 19 19
0 0 0 11 40 37 34 12 0 1 34 44 40 37 41 48
54 50 42 37 39 43 43 42 42 43 43 43 41 32 33 37
38 37 38 45 56 70 85 96 105 111 117 120 126 133 138 139
138 138 138 133 115 109 102 107 124 129 105 104 109 104 72 57
93 66 71 84 72 26 16 17 16 23 35 13 2 10 12 11
15 13 20 10 3 0 2 3 4 3 1 14 34 36 38 33
14 6 6 0 15 21 1 0 0 0 7 17 22 14 5 24
23 23 23 23 22 21 22 20 20 20 20 20 20 19 19 19
0 0 0 8 39 37 33 14 0 0 31 38 31 32 33 39
51 50 44 39 31 29 29 29 30 29 30 31 34 33 35 38
39 38 35 32 33 34 41 64 88 102 111 120 128 136 138 138
138 138 138 131 114 111 102 109 125 124 102 102 106 99 75 59
93 61 68 87 66 29 17 19 17 17 27 35 12 4 7 7
10 14 15 17 7 2 4 3 5 5 1 13 34 36 37 34
14 5 5 4 30 47 12 0 0 6 25 28 27 24 5 21
23 23 22 22 22 21 21 20 21 20 19 20 19 19 18 18
0 0 0 6 38 37 33 17 3 8 34 34 15 18 20 25
33 35 34 39 33 30 30 32 36 38 36 35 38 39 41 44
45 44 38 34 33 25 10 12 38 71 97 115 126 134 139 138
138 137 137 125 114 111 104 109 119 121 102 96 104 95 75 60
92 60 66 87 67 35 25 19 18 16 18 30 32 21 19 15
7 10 11 13 11 7 4 3 4 5 1 12 34 36 37 34
16 5 5 3 11 19 9 0 0 12 29 28 27 25 8 17
23 22 22 22 22 21 21 20 20 20 19 20 19 19 20 19
0 0 0 4 36 37 32 26 25 31 41 33 2 0 0 2
4 11 16 37 36 39 42 40 49 52 40 32 33 35 36 41
45 47 40 34 34 28 13 10 10 35 73 99 116 129 138 138
138 137 134 120 111 108 106 108 121 121 99 94 101 91 76 53
90 56 63 85 68 42 28 22 18 19 18 17 25 33 26 31
31 24 15 15 12 9 6 4 3 4 1 11 33 35 36 33
18 6 7 1 1 1 0 0 0 11 29 28 26 25 9 16
23 22 22 21 21 21 20 20 20 19 19 18 19 19 19 18
0 0 0 2 34 36 32 34 44 47 49 35 2 0 0 0
0 1 13 40 35 42 46 38 48 53 27 5 5 6 8 10
27 46 40 34 35 27 13 11 17 35 64 80 102 120 135 139
138 138 126 116 106 105 106 102 119 118 95 91 100 94 78 54
92 59 63 86 65 50 41 28 18 9 9 9 11 27 27 19
21 23 24 25 24 16 9 5 3 4 1 10 32 35 37 34
28 19 11 3 0 0 0 0 0 7 28 27 26 24 10 19
22 22 22 21 21 21 20 21 20 19 20 19 19 18 18 19
0 0 0 2 32 36 32 35 46 48 51 39 3 0 0 0
0 0 7 41 34 40 41 15 16 30 20 0 0 0 0 0
16 45 41 35 36 23 13 10 20 34 72 70 86 107 126 136
136 134 122 112 103 105 105 98 120 116 95 89 101 92 78 62
91 62 60 80 62 57 71 57 32 13 8 7 6 13 29 24
23 23 16 15 15 19 16 10 7 4 1 10 32 34 35 35
34 13 13 22 2 0 0 0 0 7 29 28 27 23 9 22
23 22 22 21 21 21 20 20 20 20 20 19 19 18 19 19
0 0 0 1 29 36 31 32 39 39 39 30 2 0 0 0
0 0 6 41 34 39 39 6 1 20 21 0 0 0 0 0
13 42 40 36 35 21 14 11 23 32 78 78 75 89 110 123
130 129 119 108 102 102 106 92 121 120 94 88 98 93 82 67
93 70 61 75 59 54 86 78 48 24 22 11 7 10 17 36
27 25 28 25 18 12 12 12 10 8 4 9 31 34 36 36
35 18 23 39 10 0 0 0 0 6 26 25 23 11 11 21
14 12 19 22 20 20 20 19 20 19 19 18 18 18 18 18
0 0 0 0 27 36 31 28 20 18 20 9 0 0 0 0
0 0 8 42 35 40 40 6 1 18 23 0 0 0 0 0
8 38 39 39 39 26 18 15 27 32 78 92 82 76 90 110
121 121 114 104 102 100 106 90 123 122 96 89 99 98 83 69
96 67 63 71 59 52 81 88 42 25 28 25 25 27 19 33
37 33 31 32 29 27 24 20 18 16 13 12 26 26 24 21
18 6 3 7 1 0 0 0 0 0 3 3 1 0 7 12
10 25 17 20 20 20 20 19 20 20 19 19 19 19 18 19
0 0 0 0 23 37 30 28 19 17 19 8 0 0 0 0
0 0 8 42 34 40 40 7 1 16 26 0 0 0 0 0
6 34 35 47 44 30 22 23 35 35 76 100 102 85 76 93
111 114 112 104 100 98 104 92 122 124 97 88 100 103 85 69
97 71 67 72 59 51 82 84 29 10 17 18 16 14 15 22
33 34 34 32 30 31 33 32 33 32 32 28 21 9 0 0
0 0 0 0 0 0 0 0 0 0 0 0 0 0 4 9
75 100 41 20 20 20 20 20 20 20 19 19 19 20 19 19
0 0 0 0 22 37 30 27 21 19 21 8 0 0 0 0
1 0 5 41 35 41 41 7 3 15 26 2 0 0 0 4
15 27 24 52 43 31 23 27 38 38 76 98 116 110 90 79
96 109 108 99 96 98 103 93 121 124 94 88 100 107 86 73
99 72 67 66 53 51 84 86 22 14 14 13 12 13 12 19
27 34 25 18 20 24 28 29 30 29 24 26 25 20 17 15
9 7 7 7 8 8 10 12 13 12 11 5 0 0 10 13
69 71 44 6 5 12 21 20 21 21 20 20 20 19 20 20
0 0 0 0 21 37 30 28 23 21 22 8 0 0 0 0
4 0 3 40 36 42 41 13 4 14 26 8 2 2 12 25
23 15 25 55 44 32 26 30 40 44 77 97 115 123 114 92
83 97 100 94 90 94 103 95 120 124 94 89 95 111 89 79
101 71 67 65 50 44 85 59 12 13 14 14 13 13 13 21
28 27 30 25 28 30 31 33 33 34 29 32 32 28 28 23
20 23 18 17 16 18 16 16 17 16 13 5 0 0 0 0
0 0 0 4 2 10 25 24 25 25 24 23 23 22 23 23
0 0 0 0 20 37 31 28 25 24 24 9 0 3 0 0
10 10 3 39 37 43 42 23 12 14 27 9 12 26 31 16
10 19 34 54 43 32 31 31 40 47 78 99 114 126 125 113
89 82 87 85 89 94 102 97 118 127 98 92 91 115 85 84
100 72 61 62 46 37 73 21 8 9 10 13 12 14 14 15
20 20 28 27 30 31 31 30 31 27 27 26 32 28 32 32
31 30 28 23 19 21 18 18 17 17 14 6 0 0 0 0
0 0 1 4 1 9 20 18 17 16 14 13 12 11 9 9
0 0 0 0 18 36 30 28 26 25 26 13 2 6 0 1
13 21 12 39 40 44 40 24 21 14 26 20 29 22 15 16
22 23 43 52 44 34 33 34 39 46 72 101 111 124 131 125
108 87 78 81 88 95 104 99 115 125 105 94 88 118 86 90
100 70 52 61 46 33 26 12 10 10 11 10 9 11 12 12
15 19 24 26 24 29 28 26 27 24 23 22 31 33 33 30
31 31 30 29 27 23 22 20 19 17 16 6 0 0 0 0
0 0 0 2 22 26 26 27 27 29 29 30 31 32 32 33
0 0 0 0 17 36 30 28 26 25 26 26 22 26 25 26
33 39 37 48 44 44 39 18 27 19 28 21 15 10 25 23
22 29 47 51 47 34 33 39 40 44 62 101 110 121 131 127
116 103 88 87 88 92 103 101 110 122 112 92 84 120 85 92
96 71 47 61 45 27 17 12 7 9 11 7 5 13 13 12
10 18 21 26 24 26 25 22 22 28 27 23 33 32 32 31
29 30 30 29 29 25 23 21 20 18 17 7 0 0 0 0
0 0 0 6 41 41 41 41 41 40 40 40 40 40 40 40
0 0 0 0 15 36 30 27 27 26 26 37 44 46 47 48
52 55 56 59 50 44 38 13 13 8 11 9 10 7 26 35
29 33 49 50 52 35 33 41 39 43 52 98 109 117 126 128
119 107 97 90 88 89 99 101 107 121 118 91 82 119 87 93
88 71 41 57 44 27 47 56 52 47 33 48 58 69 76 29
13 18 20 29 25 25 23 22 21 27 28 23 31 32 31 25
20 29 31 30 28 28 24 22 22 19 18 7 0 0 0 0
0 0 0 8 41 41 42 40 41 41 40 40 39 39 40 40
0 0 0 0 14 35 30 27 26 26 26 36 49 49 49 50
53 57 57 58 53 44 37 15 6 15 19 15 27 47 12 24
37 31 52 54 55 34 37 42 40 41 40 89 107 115 123 127
120 108 101 95 87 87 93 100 103 122 121 92 81 115 90 91
77 69 38 53 44 25 17 9 3 4 6 3 3 4 8 28
15 11 16 27 27 21 17 18 22 28 26 21 27 32 28 19
21 26 28 27 30 29 27 22 23 21 19 7 0 0 0 0
0 0 0 10 42 41 41 40 40 40 40 40 40 40 40 41
0 0 0 0 13 35 30 26 26 27 25 27 34 34 34 34
36 39 39 39 37 39 29 16 16 15 11 6 10 10 19 32
41 32 54 58 55 37 41 42 40 38 27 54 96 110 117 123
120 109 104 99 89 87 90 101 99 125 125 91 82 111 97 85
68 66 37 52 44 27 19 10 4 7 13 5 6 4 7 50
16 14 13 22 30 19 17 14 24 26 28 22 27 30 22 18
21 22 26 27 29 30 30 25 21 20 20 7 0 0 3 6
0 0 0 13 41 41 41 40 40 40 40 40 40 40 40 40
0 0 0 0 12 34 28 25 26 26 25 20 18 17 17 18
21 26 28 29 28 28 23 14 11 11 12 10 11 17 27 34
39 33 55 63 52 37 42 42 43 34 22 27 40 72 101 116
119 110 105 101 95 88 88 98 96 125 124 91 86 108 105 81
67 67 37 50 44 28 15 12 2 6 11 6 10 10 10 26
12 19 14 17 27 19 20 13 24 28 31 24 27 24 20 21
19 20 21 23 25 26 28 26 22 21 21 7 0 0 30 37
4 0 0 16 41 40 41 40 40 40 40 40 40 40 40 40
0 0 0 0 12 33 28 25 26 26 25 22 19 18 18 18
21 26 29 30 26 23 16 15 11 10 11 8 11 21 24 35
41 37 57 68 52 40 44 44 43 32 20 22 21 25 35 60
88 100 103 102 101 93 88 92 95 120 120 93 86 109 114 76
72 65 38 48 44 34 26 30 29 32 38 40 45 44 48 40
17 22 13 15 24 17 20 13 24 26 29 21 26 20 16 19
17 16 19 21 22 22 26 27 24 20 21 7 0 0 14 15
0 0 0 19 41 40 40 40 40 40 40 40 40 40 40 40
0 0 0 0 11 33 28 25 26 26 26 25 23 23 23 23
25 28 29 27 25 21 16 15 8 10 12 7 17 22 28 37
41 37 57 70 52 43 46 45 45 34 20 21 22 20 18 17
20 23 34 48 62 66 68 72 76 104 121 102 80 107 119 76
78 65 41 47 49 34 43 57 54 51 49 62 75 76 82 38
18 22 12 12 18 19 18 13 23 25 25 24 23 20 13 16
17 16 17 17 18 19 24 26 26 23 22 6 0 0 0 0
0 0 0 21 41 41 40 40 39 40 40 40 40 40 40 40
0 0 0 0 15 34 28 25 25 26 26 26 24 23 24 24
27 28 26 28 26 18 10 13 10 8 11 11 21 24 27 39
38 39 61 70 51 44 44 45 46 33 21 19 22 20 17 15
13 9 7 11 12 17 21 32 58 80 120 116 77 103 122 77
80 65 45 48 51 34 26 13 4 5 4 2 9 7 14 18
18 14 14 12 16 23 16 11 20 23 31 26 22 19 11 13
14 14 15 16 16 19 22 25 27 25 26 5 0 0 0 0
0 0 0 25 41 40 41 40 40 41 40 40 40 40 40 40
11 12 14 15 22 27 26 25 25 26 26 26 24 24 24 25
25 26 27 27 26 14 5 13 8 5 12 17 21 21 33 39
37 44 68 65 52 43 44 46 48 33 24 21 23 22 21 18
13 9 6 12 9 8 18 24 58 55 118 124 77 97 125 86
80 67 45 49 54 39 27 11 3 7 3 3 8 11 15 17
17 14 15 13 13 23 15 10 16 14 24 27 21 18 11 12
12 15 15 16 15 16 21 25 24 23 25 7 0 0 0 0
0 0 0 28 41 40 41 40 40 40 39 39 40 39 40 40
19 20 20 21 22 23 24 25 25 25 25 26 25 24 24 23
23 25 27 19 23 23 10 11 7 6 12 18 20 23 34 35
38 45 77 61 53 44 44 48 49 33 26 21 21 22 22 17
16 10 9 11 8 5 11 16 53 43 114 122 84 93 124 95
80 69 46 52 61 40 25 9 5 7 2 3 6 10 14 14
14 14 16 14 9 21 16 11 11 9 16 27 19 16 8 10
11 12 13 13 12 15 22 23 22 23 26 17 0 0 0 0
0 0 0 23 40 40 40 40 39 40 40 39 40 39 39 39
18 19 20 20 22 23 24 24 24 25 26 25 26 25 25 23
22 24 26 19 13 15 18 10 8 9 15 19 20 26 36 34
39 48 80 58 55 45 45 48 50 31 28 21 26 24 22 19
16 14 11 8 10 5 9 11 40 42 100 120 93 90 121 105
85 72 49 54 68 43 26 9 5 9 2 2 7 8 12 12
13 16 18 13 8 19 17 15 12 10 11 17 15 15 8 11
10 9 9 12 15 14 18 22 19 22 21 17 0 0 0 0
0 0 0 13 38 40 40 40 39 39 40 39 39 39 39 39
17 18 19 19 20 21 22 22 24 25 25 25 26 25 22 24
19 23 26 18 18 18 15 7 4 9 12 18 19 29 35 34
34 52 77 58 57 46 45 47 51 33 29 19 26 24 20 18
17 17 15 11 11 5 8 9 25 46 81 125 102 87 114 113
82 77 49 50 70 45 29 12 6 6 1 4 8 10 11 10
12 17 15 12 10 17 19 18 15 13 8 11 12 14 6 8
10 10 9 13 15 14 19 21 20 15 15 18 5 0 0 0
0 0 1 20 26 39 40 40 39 40 39 39 39 40 40 40
6 5 5 9 13 16 16 18 25 24 24 24 25 22 21 23
19 15 23 18 17 20 11 6 5 10 10 19 19 32 35 34
32 58 68 57 58 46 47 48 51 33 28 23 26 24 19 15
18 18 16 10 6 7 8 8 15 37 63 123 112 80 108 122
81 83 56 50 71 50 33 12 7 7 1 5 5 6 10 9
13 16 14 14 12 14 22 20 16 14 7 12 11 12 7 11
13 12 10 14 14 17 20 24 23 11 9 9 9 7 19 7
0 0 2 33 18 35 40 39 39 39 38 39 39 39 39 38
0 0 0 5 11 17 20 19 23 24 24 24 24 21 20 21
21 11 21 19 15 18 11 8 5 8 13 20 20 33 33 32
31 67 58 61 58 48 47 47 54 34 29 28 25 23 16 15
17 18 15 10 7 7 9 9 14 32 54 122 119 82 104 124
82 88 64 53 75 57 39 10 8 9 2 5 6 10 7 11
15 17 17 13 14 12 18 20 14 15 9 12 11 10 12 13
13 12 9 16 16 13 21 26 16 9 7 8 14 88 128 61
0 0 3 37 29 21 39 39 39 39 39 39 39 39 39 39
0 0 0 6 10 15 21 21 22 23 24 24 24 22 21 19
18 11 18 16 14 15 7 8 4 8 11 19 21 33 34 31
35 72 54 58 59 50 45 46 53 36 30 29 28 23 20 19
20 20 16 12 9 7 13 7 13 26 45 114 123 85 97 128
87 94 64 59 79 60 46 13 7 10 2 5 7 8 7 10
15 17 16 13 13 11 11 22 11 14 9 12 10 12 11 13
12 11 11 16 14 14 22 18 12 7 8 8 14 113 136 58
0 0 5 38 38 20 31 39 39 38 39 38 38 38 39 39
0 0 3 8 10 16 20 22 23 24 25 25 24 22 21 17
15 10 12 16 13 12 8 10 8 10 10 20 24 35 32 31
37 69 53 59 58 52 45 44 54 35 32 29 27 23 20 21
22 19 15 12 8 6 9 11 10 24 42 102 125 90 93 126
88 97 66 62 78 58 54 18 8 7 3 5 7 7 6 10
14 14 13 13 13 9 8 25 11 15 10 11 9 10 12 12
11 11 11 15 12 18 19 12 11 5 10 12 11 32 38 8
0 0 7 39 38 26 10 23 39 39 39 39 39 39 39 39
8 9 8 9 11 16 21 24 25 27 28 24 22 24 21 18
16 10 8 14 14 11 7 8 3 10 11 22 29 33 32 30
38 67 54 62 57 53 46 44 55 37 34 29 24 20 19 20
23 23 20 14 10 8 5 15 11 21 43 88 123 93 85 127
94 98 64 66 78 58 58 23 6 7 1 3 5 9 5 9
13 13 12 11 11 8 6 23 18 15 9 9 9 12 12 10
11 11 11 12 14 13 12 13 4 4 10 14 8 6 0 0
0 0 6 30 25 5 7 5 37 38 38 38 38 38 37 38
12 12 12 11 14 17 20 23 27 27 27 22 18 23 22 19
17 9 7 13 13 11 8 7 5 9 15 22 30 34 30 32
43 64 54 62 55 53 47 46 57 40 36 31 26 23 25 24
22 22 20 14 11 8 8 12 15 17 41 67 119 93 77 122
102 100 61 67 76 62 56 35 6 7 1 5 8 7 5 9
11 12 10 9 12 9 6 16 30 12 8 9 10 11 10 10
10 8 10 13 14 15 11 6 3 4 9 14 10 4 0 0
0 0 0 7 13 22 31 4 35 38 38 38 37 37 37 38
12 13 12 12 12 12 12 14 27 27 25 20 14 21 20 18
15 8 4 10 13 12 7 6 7 7 12 20 32 33 30 30
50 62 56 63 54 53 47 43 56 38 36 30 22 21 26 29
29 27 27 22 19 15 11 13 17 25 37 54 114 96 72 119
107 95 60 64 76 70 54 50 12 7 2 5 6 7 7 11
11 12 11 10 12 10 5 13 24 22 6 9 11 7 8 10
9 9 9 15 16 11 7 6 7 6 6 11 8 5 0 0
0 0 0 1 4 15 23 2 28 37 37 36 36 36 36 37
3 3 4 4 5 6 6 9 26 28 24 18 13 16 19 19
16 9 3 13 12 11 7 6 5 8 8 20 32 31 30 29
53 59 53 63 53 51 45 43 57 40 38 30 25 22 21 20
20 21 24 21 16 14 11 11 15 25 38 46 108 96 67 115
110 92 62 65 74 75 51 62 18 6 1 7 6 7 6 10
10 10 10 9 10 10 5 12 10 26 12 6 10 7 9 9
8 5 12 19 19 15 11 5 1 0 5 14 9 5 0 0
0 0 0 0 0 0 1 0 6 25 36 35 36 36 36 35
