P2
128 120
144
34 34 34 33 33 32 32 32 32 31 30 30 29 29 28 28
27 27 27 26 26 25 24 24 24 23 23 23 23 21 21 21
20 20 20 19 19 18 18 18 17 16 14 14 13 12 13 16
17 18 19 15 11 18 23 21 19 18 17 16 15 13 12 9
9 8 8 11 13 12 12 10 12 14 15 15 16 17 17 17
18 18 19 19 19 20 20 20 21 21 22 22 22 23 22 23
23 23 24 24 25 26 27 27 27 28 28 28 29 29 30 30
30 30 31 33 31 31 31 32 32 32 32 31 33 32 32 32
35 34 34 33 33 33 32 31 31 30 30 30 29 29 28 27
27 27 26 25 25 25 25 24 24 24 23 23 22 22 22 21
21 20 19 20 19 18 18 18 17 17 16 14 13 13 13 17
19 20 21 16 10 18 23 21 20 18 18 16 16 16 14 12
11 10 8 11 13 13 11 13 14 15 16 17 17 18 18 18
19 19 19 19 20 20 21 21 21 22 23 23 23 23 23 23
23 25 26 25 26 27 27 28 29 28 29 29 29 30 29 30
30 31 30 32 30 31 31 31 31 32 32 32 32 32 32 33
36 35 34 33 33 33 32 32 31 31 30 30 29 29 28 28
28 27 26 27 26 25 25 25 24 24 23 23 23 22 22 22
21 21 20 20 20 20 20 19 19 18 17 15 14 15 16 19
20 21 22 16 9 17 24 21 20 19 19 18 17 16 14 14
15 12 9 9 13 13 13 14 16 17 18 17 19 19 19 19
20 20 20 20 21 21 22 22 23 22 22 23 23 24 25 25
25 26 28 27 27 28 28 29 29 29 29 29 29 29 30 30
31 31 32 32 31 32 32 32 32 33 32 32 33 33 33 33
35 34 34 34 34 33 32 32 32 31 31 30 30 29 28 28
28 28 27 27 27 26 26 25 24 25 24 23 23 22 22 22
22 21 20 20 20 20 20 20 19 18 18 16 16 15 16 20
22 23 23 17 10 17 24 22 21 21 20 19 18 17 15 15
16 14 11 9 14 13 14 15 17 18 19 19 20 20 20 20
21 21 22 22 23 22 23 23 23 23 24 24 24 25 25 25
26 27 28 27 28 29 28 29 29 29 29 30 30 30 31 31
31 31 32 32 32 31 31 32 32 33 33 32 33 32 32 32
35 35 34 34 33 33 33 32 32 31 31 30 30 29 29 29
29 28 28 27 27 26 25 25 25 24 25 23 23 23 23 23
21 21 21 21 21 21 21 19 20 19 19 18 17 17 18 21
23 23 23 18 11 16 25 23 22 22 21 20 19 18 16 17
17 16 12 8 16 14 15 17 19 19 20 20 21 21 22 21
21 22 22 22 22 23 22 23 24 24 25 25 26 26 26 26
27 27 29 28 28 29 29 29 29 30 30 30 30 30 30 31
31 31 31 32 32 32 33 33 32 33 33 32 32 32 33 33
35 34 34 33 33 33 32 32 32 31 30 31 30 29 29 29
29 28 28 27 27 26 26 25 25 24 24 24 24 23 23 23
23 22 22 21 21 21 21 20 20 19 19 19 18 19 19 23
23 24 24 18 11 16 25 23 22 22 21 21 20 20 18 18
18 17 14 9 16 15 17 18 19 20 21 21 22 22 22 22
22 23 22 23 24 24 24 24 24 25 25 25 26 26 26 27
28 28 29 28 28 29 30 30 30 30 30 30 30 31 31 31
31 31 32 33 32 32 32 31 31 32 32 32 33 33 33 33
35 34 34 33 34 33 33 32 32 32 31 31 31 30 30 29
29 28 27 27 27 26 26 25 26 25 25 24 24 23 23 23
22 22 22 22 21 22 21 21 20 20 20 20 20 20 21 24
24 25 25 19 13 16 26 24 23 23 21 21 20 19 18 18
19 18 16 12 17 16 19 20 21 21 22 21 21 22 22 22
22 23 24 23 24 24 24 25 25 25 26 26 26 27 27 28
28 28 29 28 29 29 29 30 30 30 30 30 31 31 31 31
32 31 31 30 30 32 33 33 33 33 33 32 33 33 33 33
35 35 34 34 34 33 33 32 32 32 31 31 31 30 30 30
29 29 28 28 27 27 27 26 26 26 26 25 25 24 24 24
23 23 23 22 22 22 21 21 21 21 21 21 20 21 21 25
25 26 25 20 15 15 27 25 23 23 23 22 21 21 21 20
19 19 17 12 18 17 20 21 21 21 21 22 23 24 24 24
24 24 25 25 25 25 25 26 26 26 26 27 27 27 28 28
28 29 30 29 29 30 30 31 31 31 30 30 32 31 32 31
31 31 32 32 32 33 33 33 33 33 33 33 34 33 34 34
35 34 34 34 34 33 33 32 32 32 32 31 30 31 30 29
29 29 29 28 28 27 26 27 26 26 26 25 25 24 24 24
24 23 23 23 22 22 22 21 21 21 21 21 20 21 23 25
26 26 26 21 16 15 26 25 23 23 23 22 22 22 21 20
19 19 18 14 18 17 21 21 22 22 22 22 24 24 24 24
24 24 25 25 25 26 26 26 27 27 27 27 27 27 28 28
29 29 30 29 30 30 30 31 31 31 30 28 30 31 31 32
33 33 33 33 33 33 33 33 33 32 34 33 34 33 33 33
35 34 34 34 34 33 33 32 32 32 32 32 31 31 31 30
30 29 28 28 28 27 27 27 26 26 27 26 25 25 25 25
24 24 23 23 23 22 22 21 21 21 21 21 21 22 23 26
27 27 26 21 17 15 25 26 24 23 23 23 22 22 22 20
20 20 19 16 20 19 22 23 23 23 23 24 25 25 25 25
25 25 26 25 25 26 26 27 27 27 27 27 28 28 28 29
29 29 31 30 30 30 30 30 29 30 32 32 31 31 33 32
33 33 32 32 33 33 33 33 33 33 33 33 34 33 34 34
35 34 34 34 34 33 33 33 32 32 32 32 31 31 30 30
29 29 28 29 28 27 27 27 27 27 26 26 26 25 25 24
24 24 24 24 24 23 23 22 22 22 22 21 22 23 24 26
27 27 27 22 17 15 25 26 23 23 23 23 23 22 22 21
21 21 20 17 21 20 23 24 23 23 24 24 24 24 25 24
25 25 25 26 26 26 27 27 27 27 27 28 28 28 29 29
29 29 30 29 28 28 29 30 31 31 31 33 32 32 32 32
33 32 32 33 33 33 33 33 33 33 33 33 33 33 33 34
35 35 34 34 33 33 33 32 32 32 32 31 31 31 31 30
30 29 29 28 28 28 27 28 27 27 26 26 25 25 25 25
24 25 24 23 23 22 22 22 22 22 22 21 22 23 24 27
28 28 28 23 18 12 21 25 24 24 25 24 23 23 23 22
21 21 20 17 21 21 23 24 24 24 25 25 25 25 25 25
26 26 26 26 27 26 27 28 28 27 28 28 28 29 28 28
28 28 28 29 30 30 31 31 32 32 32 33 33 33 32 32
33 33 33 33 33 33 33 33 33 33 33 33 33 33 33 34
35 35 34 34 34 34 33 32 32 32 32 31 31 30 31 30
29 29 29 29 28 29 28 27 27 27 27 26 26 25 25 25
25 24 24 24 24 23 23 23 23 22 23 22 22 23 25 27
28 28 28 22 16 9 21 27 26 26 25 25 24 24 24 22
22 22 21 18 22 21 24 24 25 25 25 25 25 25 25 25
26 26 27 26 27 27 27 27 28 28 28 28 28 28 28 29
29 30 30 30 30 31 31 31 32 32 32 34 32 32 33 32
33 33 33 33 33 33 33 33 33 33 34 33 33 34 33 34
35 34 35 34 34 34 33 32 32 32 32 32 31 31 31 30
30 30 29 29 29 28 28 28 28 27 27 27 27 26 26 26
26 24 25 24 24 24 23 23 23 23 23 23 23 24 25 28
29 28 28 23 18 16 23 28 26 25 26 25 25 24 25 23
23 22 22 19 23 22 24 25 25 24 25 25 25 26 26 27
27 27 27 27 27 28 28 28 28 27 28 27 28 29 30 30
30 31 31 31 31 32 32 32 32 32 32 34 33 33 33 33
33 33 33 33 33 33 33 34 34 34 34 34 34 34 33 34
35 34 34 34 34 34 33 33 32 32 32 32 31 31 30 30
31 30 30 29 29 28 28 27 27 27 27 27 26 26 26 25
25 25 25 24 24 25 24 24 24 24 23 23 23 24 25 29
29 28 28 23 19 19 22 28 27 26 26 26 25 25 26 24
23 23 23 20 24 23 25 25 25 26 26 26 26 26 27 26
27 27 27 27 28 28 28 28 28 29 29 29 29 29 30 30
30 31 31 31 31 32 32 33 32 33 33 34 33 33 33 33
33 33 33 33 33 33 33 33 33 34 34 34 34 34 34 34
35 35 34 34 33 33 33 33 33 33 32 32 32 32 32 32
31 30 30 30 29 29 29 28 27 28 28 27 26 27 26 26
25 25 25 25 24 24 24 24 24 24 24 23 24 25 26 29
29 29 29 24 20 21 21 29 27 27 26 26 26 25 26 24
23 23 23 20 25 24 26 26 26 27 27 27 27 27 27 27
27 27 27 27 27 27 28 29 29 29 30 30 30 30 30 31
32 31 31 32 32 32 32 32 32 33 33 34 33 34 33 33
33 33 33 34 33 34 33 33 34 34 35 35 34 34 34 34
34 34 34 34 33 33 33 33 32 32 32 32 32 31 31 31
31 31 30 29 29 29 28 28 29 28 28 27 27 26 26 26
26 26 25 25 24 25 25 24 24 23 24 23 24 24 26 28
29 29 29 24 20 22 21 29 28 27 27 26 25 25 26 25
24 23 23 20 24 24 26 25 26 26 27 27 27 26 27 27
27 28 27 28 28 29 29 29 30 30 30 30 30 30 31 31
31 31 31 31 32 32 32 32 32 33 33 33 34 33 33 33
34 34 34 33 34 34 33 34 34 35 34 33 33 33 34 34
35 34 34 34 34 33 33 34 33 32 33 32 32 32 31 31
31 31 30 30 30 29 29 29 29 28 29 28 27 27 27 27
27 26 26 26 25 25 25 25 25 25 25 25 25 25 27 30
30 30 31 25 21 24 21 28 28 27 27 27 27 26 26 25
25 24 24 21 25 25 27 27 27 27 27 27 27 27 28 28
28 28 28 28 29 29 29 30 30 30 31 31 31 31 32 32
32 32 32 32 33 33 33 33 33 33 33 34 34 33 33 34
34 34 34 34 34 34 33 34 34 34 34 34 34 34 34 34
35 35 34 34 34 34 34 34 34 33 34 33 33 33 32 31
31 31 31 31 30 30 30 29 29 28 29 28 29 28 27 28
27 27 26 26 26 26 25 25 25 25 25 25 25 26 27 30
31 31 30 25 21 25 22 29 28 29 28 28 27 26 27 26
26 25 25 22 26 24 27 27 27 27 28 29 29 28 29 29
29 29 28 30 30 30 30 30 30 31 32 32 31 32 32 32
33 33 33 33 33 34 33 33 34 34 34 35 35 34 34 35
35 34 34 33 33 33 34 34 34 34 35 34 34 34 35 34
36 35 35 35 35 35 35 34 34 35 34 34 34 34 33 33
33 32 32 31 31 31 30 30 29 29 30 29 29 29 29 28
28 28 27 27 26 27 27 26 26 26 26 26 26 27 28 32
33 33 32 27 22 27 23 29 30 30 29 29 28 27 29 27
27 26 26 23 26 24 29 29 29 29 29 30 29 29 30 30
30 30 31 31 31 31 31 32 31 32 33 33 32 33 33 34
33 33 34 34 34 34 34 35 34 35 35 35 35 35 34 34
34 35 35 36 36 35 36 35 34 35 35 35 35 35 35 35
35 36 35 35 35 35 35 35 34 34 34 34 34 33 33 33
32 32 33 32 32 32 32 31 31 30 31 30 30 29 29 29
29 28 28 27 27 27 27 27 26 26 26 26 27 28 29 32
33 33 33 28 23 28 24 30 31 31 30 30 29 29 30 28
27 27 27 24 28 27 29 29 29 30 30 30 30 30 31 31
31 31 31 31 31 32 32 32 33 33 34 34 34 34 34 34
34 34 34 35 35 34 35 35 35 34 33 34 34 34 36 35
36 36 36 36 37 35 35 35 35 36 35 35 36 36 36 36
36 36 36 36 35 35 36 35 35 35 35 34 34 34 34 34
33 33 33 32 32 32 32 32 31 31 31 31 31 30 30 29
30 29 29 28 28 28 28 27 27 27 28 28 27 28 29 32
33 34 34 28 23 29 25 30 32 31 31 30 30 29 31 29
28 28 28 26 29 28 30 31 31 31 31 32 31 31 31 31
31 32 32 32 33 33 33 33 34 34 34 34 35 34 35 35
35 35 35 35 36 34 35 35 34 35 36 36 36 36 36 36
36 36 36 36 38 36 36 36 35 36 36 36 36 37 36 37
36 37 36 36 36 36 35 35 35 35 35 35 34 34 34 33
33 33 33 33 33 32 32 32 31 32 32 31 30 30 31 30
30 30 29 29 29 28 28 28 28 28 27 28 28 29 30 33
34 34 34 29 23 29 26 29 31 31 31 31 29 30 30 29
28 28 28 25 29 28 31 31 31 32 31 32 31 32 32 32
32 32 32 33 32 33 33 33 33 34 34 34 34 34 35 34
34 34 34 35 35 36 36 36 37 37 36 36 36 37 37 37
36 36 37 36 37 36 36 36 35 36 36 36 36 37 36 36
36 36 36 36 36 35 35 35 35 35 34 35 34 34 34 34
34 33 33 33 33 32 32 32 31 31 31 31 31 30 30 30
30 29 29 29 29 28 28 28 28 27 28 27 28 29 30 33
34 34 34 29 24 29 28 27 31 31 31 31 30 30 30 29
29 29 28 26 28 28 31 31 31 31 31 32 32 31 32 32
32 32 32 33 33 34 34 33 34 34 35 34 34 33 34 33
34 34 35 36 36 36 36 36 37 36 36 36 36 36 37 36
36 36 36 37 37 36 35 36 36 36 37 36 36 36 36 36
36 36 36 36 36 35 36 35 34 34 35 34 34 35 34 33
33 33 33 33 33 32 32 32 32 31 32 31 31 31 30 30
30 29 29 30 29 29 28 28 28 28 28 28 28 29 30 34
35 35 35 30 24 29 29 27 32 32 32 31 31 31 30 29
29 28 28 26 28 28 31 31 32 31 32 32 32 32 33 33
33 32 33 33 33 34 34 34 34 34 33 33 33 34 34 35
35 35 36 37 36 36 36 36 37 37 37 36 36 36 36 36
37 36 36 36 37 36 36 36 36 37 37 36 36 36 37 36
36 37 36 36 36 36 35 36 35 35 35 34 35 34 34 34
34 34 34 33 33 33 32 33 32 32 32 31 31 31 30 30
31 30 30 30 30 29 29 29 29 28 28 28 29 29 31 34
35 36 36 34 30 30 31 27 33 32 32 32 31 31 29 30
29 29 29 26 28 29 31 32 32 32 32 32 32 32 33 33
33 33 33 34 34 33 33 33 34 34 35 34 34 35 35 36
35 35 36 37 37 37 37 37 37 37 36 37 37 36 36 36
36 36 36 36 37 37 36 36 36 36 36 36 37 36 36 36
36 36 36 36 35 35 35 35 35 35 35 35 35 35 35 34
34 34 34 34 33 33 33 32 32 32 32 32 32 31 31 31
31 30 30 30 30 29 29 29 28 28 28 28 29 30 31 34
36 37 40 34 23 20 27 26 31 31 31 31 32 31 29 31
30 30 29 27 28 29 31 33 32 32 33 34 33 33 33 33
33 33 33 33 33 33 34 34 34 34 34 35 34 35 36 36
36 36 36 38 36 37 37 36 37 37 37 37 37 36 37 36
37 37 36 36 37 37 36 36 36 36 37 36 36 36 36 36
36 36 35 36 35 36 35 35 35 35 35 35 35 35 35 34
34 34 34 33 34 33 33 32 33 32 32 32 32 31 31 31
31 30 31 30 30 30 29 29 29 29 29 29 30 30 31 35
37 39 36 32 22 25 26 27 29 27 27 32 34 32 30 30
30 30 30 27 28 29 31 32 33 33 32 32 33 32 32 32
32 33 33 34 34 35 35 35 35 35 35 36 35 35 36 35
36 36 36 37 36 36 36 36 36 37 36 36 36 37 37 36
37 36 36 36 36 37 36 37 37 37 37 37 36 36 35 34
36 35 35 36 35 35 35 35 36 35 35 35 35 34 35 35
35 34 34 33 33 33 33 32 32 33 32 32 32 31 32 31
31 30 30 30 30 29 30 29 29 29 29 29 29 30 32 37
37 39 34 36 25 23 34 33 34 31 29 29 36 34 33 31
30 30 30 27 29 29 31 32 32 32 32 32 32 32 32 33
33 33 33 35 34 34 35 35 34 35 35 35 36 35 36 36
36 36 36 37 37 36 37 36 37 37 36 36 36 36 37 36
37 37 37 37 37 37 36 37 36 36 35 35 35 35 36 36
36 36 36 36 35 36 36 35 36 35 35 35 34 35 35 34
34 34 34 33 33 33 33 33 33 32 33 32 32 32 32 32
31 31 31 31 30 30 30 29 29 29 29 29 29 30 34 40
35 45 38 40 31 30 40 39 38 34 32 33 37 34 35 35
31 30 29 28 29 29 31 32 32 32 33 33 33 33 33 32
33 34 34 35 34 34 35 35 35 35 35 36 36 36 36 36
36 36 37 36 37 36 37 37 37 37 37 36 36 36 35 36
37 37 37 37 36 36 34 34 34 35 35 35 36 36 37 35
36 35 35 35 35 35 36 35 36 35 36 36 35 35 35 34
35 34 34 34 34 33 33 33 33 32 33 33 32 33 32 32
31 30 31 30 30 30 30 29 29 29 29 30 31 34 42 44
47 48 50 50 55 56 54 49 42 40 41 42 37 41 37 33
38 31 31 27 29 30 33 33 33 33 33 33 33 33 34 33
34 34 34 35 34 34 35 34 35 35 36 36 35 36 36 36
36 36 36 37 37 37 37 36 37 37 37 37 36 36 37 36
36 35 35 35 35 35 35 36 35 35 36 34 36 36 37 35
30 33 36 36 36 36 36 36 35 35 35 35 36 35 35 35
35 34 34 34 34 34 34 33 33 33 33 32 32 32 31 32
32 32 31 31 31 30 31 30 29 29 30 30 31 40 46 51
58 62 61 58 66 71 66 60 49 44 48 48 49 45 43 34
40 38 31 29 29 31 32 33 33 33 34 34 33 33 33 34
34 34 34 35 34 35 35 36 36 36 36 36 35 36 37 36
36 36 37 37 37 37 37 37 36 38 37 36 36 35 34 34
35 36 36 36 36 36 35 36 36 36 36 35 36 36 36 35
12 22 35 36 36 36 36 36 36 35 35 35 36 35 35 35
35 35 34 34 34 34 34 34 33 33 33 33 33 33 33 32
32 31 31 31 30 30 30 30 30 30 30 31 37 48 53 58
66 68 72 61 69 79 75 67 55 50 56 54 50 52 52 47
40 43 36 30 30 32 33 34 34 33 33 34 33 33 34 34
35 34 34 35 36 35 35 36 35 36 35 36 37 37 37 37
38 37 38 38 37 37 36 36 36 36 36 36 36 36 36 36
37 37 37 36 36 36 36 36 36 35 36 36 36 36 36 35
11 20 36 36 36 36 36 35 35 35 35 36 36 36 35 35
34 35 35 35 34 34 34 33 33 33 33 33 32 33 33 32
32 32 31 31 31 31 31 31 31 30 30 35 44 52 63 71
72 76 82 67 74 82 79 73 62 53 61 62 56 50 50 56
48 41 39 32 29 32 33 34 34 34 34 34 34 34 34 35
35 35 35 36 36 36 35 36 36 36 36 36 36 37 37 36
37 37 36 36 36 36 37 36 36 37 36 36 37 37 36 37
36 36 36 36 36 35 35 35 36 36 36 35 36 36 36 36
13 19 35 36 36 36 36 35 34 35 36 37 36 36 36 35
36 36 36 35 34 34 34 34 34 34 33 33 37 39 36 34
33 32 32 31 31 31 31 31 31 31 33 41 50 57 73 84
82 97 96 78 84 89 90 81 70 57 66 68 63 52 49 53
60 47 42 39 30 32 32 33 34 34 34 34 34 35 35 35
35 36 35 36 36 36 36 36 36 36 36 36 37 37 36 36
37 37 36 36 36 36 37 37 36 36 36 36 37 37 36 36
36 36 36 37 36 36 36 35 36 36 36 36 35 35 35 36
14 19 36 36 36 36 36 35 37 45 44 42 41 39 37 36
35 36 36 35 35 35 35 35 35 35 34 34 45 47 44 40
38 37 34 32 32 32 31 32 31 32 38 49 54 63 80 86
91 104 103 87 92 98 104 94 81 65 73 74 67 52 50 51
54 56 44 44 38 33 33 35 34 34 35 35 35 35 35 35
35 36 36 36 37 36 35 35 36 36 36 37 36 36 37 36
37 37 36 37 37 37 36 37 37 36 36 36 37 37 37 37
37 36 37 36 36 36 36 35 36 36 37 36 37 35 36 36
14 22 37 37 37 36 36 35 38 47 47 46 45 42 41 40
39 37 36 36 35 35 34 33 34 34 34 35 45 46 44 42
43 43 40 34 32 32 32 31 32 33 44 50 46 49 61 71
76 90 83 72 97 101 98 91 83 74 77 67 63 55 49 48
55 50 46 46 43 35 33 35 34 34 35 35 35 36 35 35
35 36 36 36 36 35 35 35 36 36 36 36 38 36 37 36
37 37 37 37 37 36 36 36 36 37 35 35 36 37 36 36
36 36 36 36 36 36 36 36 36 36 36 36 36 35 35 36
15 25 39 39 39 38 37 36 39 48 48 47 44 43 44 45
47 42 41 41 38 37 35 34 34 34 34 35 42 42 42 41
42 43 41 35 32 32 32 31 32 39 43 45 54 60 76 85
96 118 121 92 46 79 103 104 96 57 68 88 89 80 68 58
60 54 43 37 43 41 34 35 35 35 35 36 35 35 35 35
35 34 35 35 36 36 36 36 36 36 37 37 38 37 37 36
37 37 37 37 36 36 36 36 37 35 36 36 37 37 36 36
37 36 36 35 36 36 36 35 35 35 36 36 36 36 35 36
14 25 42 41 39 40 40 39 40 42 36 42 44 45 48 49
49 42 38 40 44 42 40 38 37 37 35 35 35 23 25 27
33 37 40 37 33 33 33 32 42 43 75 53 62 82 102 116
119 130 133 125 79 118 125 128 133 93 106 121 110 107 100 88
92 75 82 66 36 42 40 35 35 35 35 35 35 34 34 35
35 35 36 35 35 35 36 36 36 35 37 38 38 36 37 37
37 37 37 36 36 36 36 35 36 36 36 36 36 37 37 36
36 36 36 36 36 37 36 35 36 35 35 35 35 36 36 36
14 25 41 40 34 36 41 43 46 27 2 8 24 35 39 42
46 39 10 9 17 24 33 35 38 42 40 37 33 16 11 13
12 11 16 34 33 33 32 32 26 41 68 64 85 124 110 97
100 110 128 123 86 97 97 101 124 90 124 130 107 98 96 103
118 102 64 51 43 21 30 36 35 35 35 34 35 34 34 35
35 35 35 35 36 35 35 36 36 36 36 37 38 37 37 37
37 36 37 36 36 36 36 36 36 36 36 36 36 37 36 36
36 35 35 35 36 36 35 34 35 35 36 36 36 36 36 36
15 23 39 41 39 37 37 46 49 28 0 0 5 15 18 19
27 37 3 0 0 0 3 8 13 20 28 36 33 13 4 8
10 4 3 34 34 33 33 34 14 42 61 72 111 117 81 80
84 103 106 109 89 119 123 110 91 62 114 105 91 88 92 93
108 120 78 52 47 34 19 38 34 35 35 35 35 35 35 35
36 36 36 36 36 36 36 36 37 36 37 37 38 37 37 37
37 36 37 36 37 36 37 36 36 36 36 36 36 37 36 35
36 36 36 36 36 36 36 36 35 36 36 36 36 36 36 34
15 13 11 18 28 36 42 47 50 29 0 0 3 9 12 13
20 37 4 0 0 0 0 0 0 0 1 28 34 10 0 1
3 2 3 35 33 33 33 40 3 27 62 83 117 98 73 64
81 117 113 105 111 132 135 132 96 28 68 93 98 112 115 96
100 118 102 62 45 16 10 44 35 36 35 35 36 36 35 36
36 36 35 35 36 36 36 37 37 36 36 37 38 37 37 37
37 36 37 37 37 37 36 36 36 36 36 36 37 37 37 36
36 36 36 35 36 36 36 36 37 36 36 36 36 36 36 37
15 8 0 0 0 3 10 18 29 27 0 0 1 3 3 6
17 37 7 0 0 0 0 0 0 0 0 27 31 4 0 0
1 1 3 36 35 33 36 37 14 45 64 101 110 92 99 113
110 115 99 66 118 131 135 132 117 53 30 83 122 135 129 108
97 109 111 71 46 47 9 53 36 37 36 36 37 36 36 36
36 35 36 36 37 37 37 37 37 37 37 37 38 37 38 37
37 37 37 37 38 38 37 37 37 37 37 37 38 37 36 36
37 37 37 36 37 36 36 37 36 37 37 37 37 37 37 36
15 8 0 0 0 0 0 0 1 20 0 0 0 0 0 1
15 35 3 0 0 0 1 1 0 0 0 25 28 1 0 0
0 1 4 37 34 33 42 33 24 61 52 104 100 91 117 130
118 83 48 95 119 126 135 128 127 91 71 67 105 124 131 120
101 97 106 71 61 59 16 56 39 37 36 36 37 36 36 36
36 36 36 36 36 37 37 37 37 37 38 38 38 37 37 37
38 38 38 38 38 37 38 37 37 37 37 37 36 37 36 38
38 37 37 37 37 37 37 37 37 37 37 37 36 36 36 36
15 8 0 0 0 0 0 0 0 17 0 0 0 0 0 0
18 38 4 0 0 0 7 11 3 0 0 23 29 1 0 0
0 0 3 38 36 37 47 29 33 68 86 84 87 112 107 84
69 58 74 117 72 98 132 66 103 115 83 68 94 113 92 90
92 103 91 110 77 64 25 54 47 37 37 37 37 36 36 36
37 37 37 37 37 37 37 37 37 38 38 38 38 37 38 38
38 38 38 39 38 38 38 38 37 37 37 37 37 38 37 37
38 37 37 37 36 36 38 37 37 38 38 38 37 37 37 37
16 9 0 0 0 0 0 0 0 14 0 0 0 0 0 0
18 40 5 0 0 0 10 15 12 7 0 21 28 0 0 0
0 0 2 36 37 41 51 22 37 72 106 106 97 104 105 96
88 87 104 113 54 119 134 84 60 129 105 100 105 110 111 106
106 103 107 118 93 69 36 44 60 37 37 37 38 37 36 37
37 37 38 38 37 37 37 38 38 38 39 38 39 38 38 39
39 39 39 39 39 38 39 38 37 38 38 38 38 38 37 38
38 37 36 37 36 37 38 38 38 38 38 38 38 38 37 38
16 8 0 0 0 8 4 0 0 12 0 1 0 0 0 0
16 42 5 0 0 1 12 15 15 14 4 20 30 0 0 0
0 0 1 35 38 42 57 15 44 72 106 97 106 110 107 111
116 105 116 105 88 135 136 125 71 132 113 118 121 118 115 113
115 112 107 109 108 71 43 35 72 38 37 37 37 37 36 37
37 37 37 37 37 37 37 37 38 38 38 38 39 37 37 38
38 38 38 38 38 38 39 37 37 37 38 37 38 38 37 36
37 37 37 37 37 36 38 39 38 38 38 38 37 37 36 34
15 8 1 8 3 3 1 0 0 13 0 0 0 0 0 3
17 42 7 0 0 1 9 15 15 14 4 19 32 4 0 0
0 0 0 34 41 45 63 11 45 85 100 102 107 113 119 127
132 118 113 130 122 136 135 134 124 132 113 131 132 128 125 122
117 114 109 106 109 86 48 23 74 44 37 36 37 37 37 36
37 37 37 37 37 38 37 37 37 38 38 37 37 39 38 38
38 39 39 38 39 39 39 39 39 38 37 38 37 37 37 37
37 38 37 37 38 37 38 37 37 37 36 38 37 34 33 31
15 9 4 5 0 2 1 0 0 14 0 0 0 0 0 5
24 45 11 0 2 1 1 6 12 14 2 17 41 32 23 16
11 7 8 36 41 46 60 11 56 89 97 104 115 124 129 130
136 131 101 105 130 136 135 135 119 105 118 135 135 134 133 133
130 118 112 109 102 98 54 20 73 51 37 37 37 36 38 37
37 37 37 37 38 37 37 38 38 38 38 38 38 38 38 39
38 39 39 38 39 38 38 38 38 38 38 38 38 37 37 37
37 37 36 35 34 37 37 35 34 33 30 29 25 22 20 18
15 9 2 0 0 0 0 0 0 25 18 11 8 6 1 1
17 51 37 28 24 19 10 4 5 8 1 15 45 46 43 43
42 43 45 48 39 54 49 13 66 91 99 113 125 132 118 128
137 130 109 113 127 130 130 129 123 115 120 133 134 134 134 134
134 130 118 112 106 98 69 13 64 52 37 38 37 37 37 37
37 37 37 38 38 37 38 37 38 37 38 38 38 38 38 39
39 39 39 38 39 38 37 37 37 37 36 36 35 35 34 34
35 35 34 33 31 29 26 23 21 17 16 15 16 16 16 18
15 8 0 0 0 0 0 0 1 37 51 41 37 36 32 23
29 53 34 27 31 32 32 30 28 26 25 33 47 45 44 44
46 52 54 52 42 55 37 16 76 91 105 118 132 136 135 136
136 120 109 119 123 123 125 124 125 120 116 128 135 134 134 134
134 133 125 113 107 100 82 16 48 55 39 38 37 38 37 37
38 38 37 37 39 38 38 38 37 38 38 38 38 38 39 38
39 39 38 38 39 37 36 36 35 35 35 36 34 33 32 29
27 24 22 19 19 18 17 17 19 18 20 21 22 23 23 24
16 10 0 0 0 0 0 0 1 39 54 43 48 51 54 53
49 51 26 15 17 17 18 19 21 23 28 33 34 31 36 40
43 47 49 47 44 55 32 25 80 91 109 124 135 137 137 136
129 110 117 122 123 118 116 121 121 123 120 122 133 135 135 135
134 134 131 117 109 101 91 25 36 58 43 37 37 37 38 37
38 37 36 37 39 38 38 38 37 38 38 38 38 38 38 38
38 38 38 38 37 36 35 36 37 31 27 24 22 20 19 18
19 19 20 21 21 21 23 23 24 25 26 26 24 20 26 28
16 20 21 15 9 4 1 0 1 39 45 42 50 52 55 56
47 39 24 16 17 16 16 15 13 12 13 12 13 14 18 22
31 36 35 33 42 51 28 37 82 93 113 132 137 137 137 136
122 111 115 109 102 104 108 114 112 110 118 123 132 135 135 135
134 134 132 121 111 101 93 39 32 57 49 38 38 37 37 37
37 36 36 36 38 38 37 37 38 38 38 38 38 38 38 38
37 35 33 31 29 26 23 25 38 26 16 19 21 22 23 22
24 24 25 25 26 27 28 28 29 29 30 30 30 27 22 29
17 26 45 48 45 39 33 27 24 43 37 41 49 51 55 57
50 42 28 18 17 15 14 12 12 11 12 11 11 12 12 15
29 33 32 33 43 49 23 53 82 95 117 133 136 136 136 136
120 111 101 101 117 126 132 134 128 120 102 116 131 135 135 135
136 135 133 123 110 100 93 58 23 50 56 39 37 36 36 37
37 36 36 36 38 38 38 38 38 38 37 36 34 32 30 27
24 23 22 21 22 23 23 21 32 24 20 23 26 27 28 28
29 30 30 31 31 31 31 32 32 32 31 31 33 33 30 22
16 26 47 51 51 49 49 49 50 49 23 24 33 39 45 49
47 43 32 19 16 14 11 10 10 12 13 13 13 14 15 18
31 22 18 35 44 40 19 60 82 97 119 135 136 136 136 135
114 97 98 124 135 135 135 135 135 134 117 97 124 135 135 134
135 134 132 125 110 101 92 69 13 45 57 40 36 36 34 34
34 36 36 36 36 35 35 32 30 28 26 25 23 23 22 23
24 25 25 26 27 28 27 26 33 27 24 29 30 31 31 31
32 32 33 33 33 33 33 33 32 33 34 32 33 34 35 31
16 24 45 50 50 50 51 51 52 46 9 1 3 7 12 21
24 35 34 17 14 10 1 1 1 7 13 14 11 12 16 19
33 38 36 39 46 30 25 62 80 98 120 135 137 137 136 133
102 85 120 134 136 135 135 135 135 134 133 116 109 133 135 135
135 135 134 125 110 100 90 78 15 35 55 45 33 32 32 24
28 33 31 29 27 25 24 23 23 23 24 25 26 26 27 28
29 30 31 31 32 33 32 30 33 28 26 31 33 32 33 34
35 34 35 35 35 35 35 34 34 33 33 34 33 34 35 35
22 26 37 40 41 43 44 47 51 43 6 0 0 0 0 4
13 34 34 16 14 9 0 0 0 1 4 6 2 2 7 9
30 42 38 35 38 29 32 63 80 101 121 133 136 137 136 131
103 114 125 135 134 127 125 126 129 135 134 130 122 129 134 134
134 134 133 124 111 101 91 81 26 25 52 52 31 29 27 19
21 23 23 23 25 25 26 27 28 29 30 30 31 31 32 33
33 34 34 34 35 34 34 27 15 13 25 33 35 35 35 35
35 35 35 35 36 35 36 35 36 35 33 33 33 33 35 35
21 24 25 27 31 35 34 36 46 40 4 0 0 0 0 0
3 34 35 14 12 6 0 0 3 2 0 0 0 0 0 3
26 44 36 30 39 25 28 62 79 103 121 131 136 136 136 133
123 122 124 120 119 131 135 133 128 121 126 128 127 128 135 135
134 134 133 124 112 101 91 78 34 21 44 56 26 24 24 23
25 26 28 29 30 31 31 32 33 33 34 35 35 34 35 35
36 36 36 37 36 35 34 24 5 3 19 34 36 37 36 36
35 36 36 36 36 36 37 36 36 35 35 33 33 32 34 35
20 22 22 22 25 32 31 34 46 40 3 0 0 0 0 0
0 32 30 7 3 0 0 0 7 9 2 0 0 0 0 0
24 43 36 28 41 26 34 60 79 103 121 130 135 137 136 128
121 118 113 116 132 135 135 135 135 133 121 118 122 126 134 134
134 134 133 126 113 99 90 76 40 24 39 56 31 28 29 30
29 31 33 33 33 34 35 35 36 36 36 36 37 36 37 37
37 37 36 30 24 19 29 22 9 4 16 33 36 36 37 36
36 36 36 36 36 36 36 36 36 36 35 35 33 32 32 34
18 22 21 25 29 34 35 40 46 39 3 0 0 0 0 0
0 35 24 0 0 0 0 0 4 12 11 3 0 0 0 0
25 45 37 26 47 57 67 69 79 104 120 122 134 137 136 128
118 115 114 127 136 136 136 136 135 135 132 123 119 122 129 135
134 134 133 126 114 101 90 79 70 58 53 55 37 32 33 34
34 35 35 35 35 36 36 36 37 37 37 37 38 37 37 37
38 38 26 4 2 4 23 20 2 0 15 33 36 36 37 36
36 36 36 35 36 36 36 36 35 35 35 35 34 31 30 32
21 18 2 2 6 11 16 23 28 32 3 0 0 0 0 0
1 36 25 0 0 0 0 0 3 13 16 11 5 0 0 0
24 44 38 34 62 63 85 72 78 103 119 121 134 137 134 122
114 115 125 134 136 135 136 136 135 135 135 132 123 120 125 134
134 134 134 128 115 102 89 83 102 94 71 68 41 34 34 35
36 36 36 36 36 38 37 38 38 37 37 38 38 38 38 37
38 38 31 21 26 31 32 25 1 0 14 33 35 37 37 36
36 36 35 36 36 36 35 36 36 35 34 35 35 34 31 29
25 20 0 0 0 0 0 0 0 18 3 0 0 0 0 0
1 36 21 0 0 0 0 3 15 17 18 15 8 0 0 2
24 45 41 43 64 63 93 77 76 99 118 127 134 135 128 116
113 120 133 136 136 135 136 136 135 135 135 134 129 123 124 131
134 134 133 128 117 103 88 84 100 89 75 81 45 35 35 37
37 37 38 37 38 38 38 39 38 38 38 39 39 39 38 39
39 39 37 37 37 36 34 27 4 0 16 33 36 36 37 36
36 36 36 36 36 36 36 35 36 35 35 35 35 34 34 31
25 20 0 0 0 0 0 0 0 15 2 0 0 6 3 0
0 35 18 0 0 0 0 2 17 21 18 7 3 0 1 3
21 45 42 48 66 77 101 84 77 96 114 124 131 129 122 113
114 122 134 136 135 136 136 136 135 135 136 134 129 125 126 130
134 134 133 128 116 101 85 88 104 100 88 80 46 36 36 37
37 38 38 38 38 39 38 39 39 38 38 39 40 39 39 39
38 38 38 37 37 35 34 30 9 0 21 33 37 36 38 37
36 36 36 35 35 35 36 35 36 35 35 35 36 35 34 30
26 21 0 0 0 3 0 0 0 13 2 0 3 17 11 1
0 35 16 0 0 0 0 0 3 14 11 0 0 0 0 1
20 44 45 49 73 85 105 96 76 94 112 122 127 125 119 114
117 120 128 133 134 132 130 131 130 132 130 128 126 126 128 130
132 135 133 127 116 102 84 95 111 100 93 81 49 37 39 38
39 39 38 38 38 38 39 38 39 38 38 39 39 39 39 38
38 38 38 38 38 36 34 31 19 11 27 35 37 37 38 37
37 36 36 35 36 36 35 36 35 35 35 35 35 34 34 31
22 19 1 0 3 15 6 0 0 13 4 0 10 19 15 5
0 34 15 0 0 0 0 0 0 11 12 0 0 0 0 0
16 44 44 47 68 85 115 98 78 92 109 120 124 123 117 114
116 118 117 116 117 119 118 117 120 119 114 116 124 127 129 130
134 133 131 125 114 99 82 105 115 112 93 81 51 38 39 39
39 39 39 39 39 39 39 38 39 39 39 39 39 38 38 39
38 38 38 38 38 36 34 31 28 27 32 36 37 37 38 36
37 36 36 36 36 36 36 36 36 35 35 35 34 34 34 31
22 20 1 0 11 22 11 4 0 17 24 18 26 26 25 19
10 38 15 0 0 0 0 0 0 10 15 0 0 0 0 0
11 43 43 48 60 86 118 98 81 88 103 114 119 119 117 112
109 111 110 107 109 115 119 121 120 116 113 114 117 120 126 130
132 131 126 122 110 97 87 113 115 118 89 67 52 39 39 38
38 39 39 39 39 39 39 39 39 39 38 38 39 39 39 39
39 39 38 38 38 37 36 32 31 32 36 37 37 37 38 37
37 36 36 36 36 36 36 36 36 35 35 34 34 33 33 31
21 19 1 0 4 10 4 1 0 19 43 42 46 46 45 45
47 51 18 0 1 0 0 0 0 11 17 0 1 1 0 0
7 40 41 44 51 87 105 99 85 81 96 107 113 114 114 112
106 103 104 109 117 120 125 128 127 124 121 116 111 114 121 125
128 126 123 115 106 92 93 114 108 110 82 44 54 39 38 39
39 39 38 39 39 39 39 39 39 38 39 39 39 39 39 39
39 39 39 38 38 37 35 33 33 35 38 37 37 37 38 37
37 37 37 37 36 36 35 34 34 34 35 33 33 32 32 30
21 21 7 1 1 1 0 0 0 19 45 44 48 47 47 52
56 56 34 20 21 15 9 7 9 17 21 8 7 5 3 3
8 32 40 40 49 81 92 99 89 74 90 100 106 108 107 105
101 100 106 111 120 123 128 131 129 127 122 114 109 108 114 118
120 120 117 109 103 89 102 115 106 101 74 35 54 39 39 39
39 39 39 38 39 39 39 39 39 38 38 38 39 39 39 39
39 40 39 38 37 37 36 35 36 37 38 37 37 36 37 37
37 37 37 35 35 35 35 35 35 33 33 32 31 30 30 29
23 24 19 5 1 1 0 0 0 18 43 43 46 46 46 53
56 55 43 37 37 35 33 31 32 32 30 26 23 20 20 21
23 35 42 41 44 67 87 95 100 70 80 91 99 100 98 96
91 95 104 110 117 122 125 128 128 126 121 113 107 102 102 107
112 114 110 104 96 85 111 115 102 94 61 33 54 39 40 39
39 39 39 39 39 40 39 39 39 38 39 39 39 39 39 40
40 40 38 38 38 37 36 36 36 37 37 36 35 36 36 37
37 36 36 35 35 35 34 33 33 33 32 31 31 29 29 29
23 24 15 1 0 0 0 0 0 18 41 38 41 41 41 42
41 40 39 39 41 40 38 38 39 38 37 36 34 32 31 29
30 38 46 41 39 50 75 82 52 44 72 80 88 92 90 83
83 89 99 108 115 119 122 126 126 125 120 113 110 103 99 99
105 105 102 98 88 78 113 110 102 89 52 35 54 39 38 38
39 39 39 39 39 39 39 39 38 38 39 39 39 39 39 38
39 38 37 37 38 37 37 36 37 38 37 37 37 37 38 37
36 36 35 35 35 34 34 33 32 32 31 31 30 30 30 29
26 25 13 1 1 0 0 0 0 18 44 37 38 39 39 39
37 36 39 40 41 43 42 42 40 40 39 38 42 45 42 40
39 42 47 43 36 36 48 22 0 20 63 71 76 81 81 86
91 92 98 104 112 117 121 125 124 121 118 112 111 110 105 98
95 95 97 93 78 34 87 103 83 60 44 34 53 39 38 39
39 39 39 38 39 38 38 38 38 38 39 39 39 38 38 39
39 38 38 38 38 38 37 37 38 38 38 37 38 37 37 37
37 36 36 35 34 34 33 32 32 31 31 30 30 29 29 27
24 23 30 29 28 23 20 18 16 28 46 40 40 40 40 40
41 42 45 42 43 46 50 49 43 38 39 39 47 50 48 46
44 44 41 39 34 33 32 8 0 23 65 66 68 68 74 90
98 99 98 103 108 115 120 122 123 119 117 114 115 117 112 104
95 92 92 84 85 34 12 26 20 28 41 36 55 39 39 38
38 38 38 38 38 39 38 38 38 38 39 39 39 38 39 39
39 39 39 38 38 38 39 38 38 39 38 37 37 37 37 36
36 35 35 34 33 33 33 32 31 31 30 29 28 27 28 27
25 25 43 49 51 47 48 51 51 51 50 43 42 42 41 42
45 48 50 44 45 47 51 49 44 39 35 36 47 51 49 46
45 44 41 37 36 31 31 12 1 17 74 64 63 73 86 97
105 106 101 102 106 112 118 121 121 120 117 116 117 118 115 111
104 93 79 81 97 56 9 21 20 28 40 38 56 38 39 39
39 39 39 40 40 39 38 38 39 38 38 39 39 38 38 39
38 38 38 38 38 38 39 38 38 38 38 37 37 36 37 36
36 35 34 34 33 32 31 31 30 29 28 27 26 26 25 24
25 25 44 56 55 55 55 55 56 55 52 38 35 34 34 35
39 46 51 46 45 43 42 43 44 41 37 34 40 39 36 37
40 41 40 37 36 31 29 14 4 9 65 82 69 68 87 95
100 107 105 105 106 111 116 120 122 123 120 120 119 120 116 112
104 86 83 100 100 51 8 26 18 31 41 41 57 38 39 39
39 39 39 39 39 39 38 38 38 38 38 39 38 38 38 38
38 38 37 37 37 38 38 38 38 37 37 37 37 36 36 36
35 34 33 33 32 31 31 30 29 28 27 27 26 25 25 25
26 24 33 41 42 43 44 46 48 50 47 16 10 8 6 8
11 20 44 47 42 25 17 22 25 25 29 36 36 17 7 6
12 24 30 39 37 31 31 15 3 6 54 89 87 69 79 92
95 102 107 110 111 114 116 120 123 124 123 120 119 117 114 110
103 90 101 107 102 41 11 36 22 33 45 44 57 38 38 39
39 38 39 39 40 39 38 38 37 38 38 38 38 38 38 37
36 35 34 33 31 31 34 38 38 38 37 37 36 36 36 35
35 34 33 33 31 31 30 29 28 27 27 26 24 24 25 24
26 23 28 32 33 32 33 32 32 33 35 10 0 0 0 0
0 3 37 46 32 5 0 1 4 9 21 38 36 12 0 0
0 14 28 42 40 32 30 16 3 4 50 91 90 75 71 86
94 101 104 110 116 116 119 122 126 127 125 122 118 115 113 110
104 99 106 112 105 32 34 40 27 37 50 48 56 38 39 40
39 39 39 38 38 37 35 34 33 34 34 37 38 38 38 32
20 17 15 13 11 13 26 38 39 38 37 37 37 36 36 35
34 33 32 32 31 29 29 29 28 27 26 25 24 24 25 24
25 23 33 39 39 38 37 37 36 36 36 13 4 0 0 0
0 12 39 44 17 0 0 0 0 1 20 40 37 12 0 0
1 13 32 47 44 36 30 16 2 2 42 90 91 81 72 82
92 99 107 111 117 120 122 126 126 128 127 122 117 114 114 112
108 103 110 118 107 29 61 31 42 43 53 50 55 38 40 41
38 32 28 26 23 21 17 15 12 14 17 31 38 38 38 31
10 8 7 8 8 9 25 39 38 38 37 37 37 37 36 34
33 33 32 31 31 29 28 28 28 26 25 25 24 24 24 23
24 23 34 40 41 41 40 41 42 42 39 14 5 0 0 0
0 12 37 41 9 0 0 0 0 0 15 40 36 13 0 0
2 14 36 51 48 44 36 22 5 1 32 88 91 83 78 79
88 95 104 113 121 122 125 130 133 131 128 121 118 116 116 116
112 107 114 125 106 28 54 43 55 45 52 52 53 37 40 40
34 15 8 9 11 10 7 4 5 4 5 26 38 38 38 30
11 8 8 9 8 9 24 39 38 38 38 37 37 36 35 34
33 33 32 31 30 29 27 27 26 25 25 24 24 23 23 22
28 27 37 42 42 42 41 40 42 43 41 12 2 0 0 0
5 5 32 38 5 0 0 0 0 0 15 40 36 12 0 0
2 17 40 51 53 46 39 27 7 2 24 88 92 85 84 84
87 93 101 114 124 125 129 132 131 132 130 123 118 118 121 123
117 111 119 128 100 27 41 32 56 38 50 55 50 39 41 39
32 10 5 8 9 10 7 4 4 4 4 23 38 38 38 29
10 8 9 8 8 8 22 38 39 38 38 37 36 36 35 34
34 32 31 30 29 27 26 25 25 25 25 23 24 23 23 22
33 34 36 38 38 38 30 18 25 38 46 16 0 0 0 1
7 3 28 37 4 0 0 0 0 0 16 40 35 11 0 0
8 24 45 51 57 48 41 31 11 4 19 91 98 87 88 92
90 94 100 115 127 131 134 135 135 134 133 127 123 125 129 126
121 114 124 129 98 38 76 83 52 38 47 58 51 40 40 39
33 11 4 8 9 9 6 4 4 4 5 23 38 38 38 30
10 8 8 8 8 8 19 38 39 37 37 36 36 35 34 33
32 31 30 29 28 27 26 26 25 24 23 23 23 23 22 22
34 34 35 35 36 36 23 0 3 26 48 26 6 0 0 2
7 2 25 36 2 0 0 0 0 0 14 41 34 14 0 0
10 24 49 49 60 48 43 32 14 8 13 89 108 93 92 100
98 97 103 116 129 136 137 137 137 136 135 132 129 131 134 129
122 117 127 132 99 62 80 68 57 41 41 60 47 41 39 38
33 11 4 8 11 10 7 4 5 4 5 23 38 38 38 32
13 9 10 11 11 11 17 35 36 36 35 36 35 35 34 33
31 31 31 30 28 27 26 25 24 24 23 23 22 22 22 22
33 33 34 34 35 35 25 0 0 22 48 24 2 0 0 0
6 3 24 36 2 0 0 0 0 0 9 41 35 17 0 0
17 20 54 47 63 47 45 35 13 11 11 85 111 102 96 104
104 100 106 118 132 137 137 137 137 137 137 134 132 136 137 133
124 120 128 128 96 59 64 95 75 43 37 59 45 39 38 38
33 12 4 7 10 10 6 4 5 4 4 23 38 38 38 34
19 16 16 15 16 15 21 30 32 34 36 36 35 35 35 33
32 30 30 30 28 25 25 24 23 23 22 22 22 22 22 21
21 23 24 28 32 35 28 1 0 17 44 13 0 0 0 0
0 0 24 38 2 0 0 0 0 0 6 40 35 15 0 3
18 21 57 48 64 46 47 37 11 15 13 84 112 107 104 106
109 105 109 123 134 138 138 138 137 137 137 136 135 136 137 133
124 124 131 125 87 38 37 76 57 46 38 58 43 38 38 37
33 13 4 6 8 7 6 4 4 4 4 21 37 38 38 34
16 11 12 8 2 1 4 6 4 8 35 37 36 35 34 33
32 30 29 28 26 25 25 24 23 23 22 22 22 22 21 20
0 0 1 15 31 34 29 2 0 13 39 11 0 0 0 0
1 0 20 40 5 0 0 0 0 0 5 39 36 18 2 9
18 29 58 52 65 46 51 37 14 19 18 79 110 113 113 113
107 107 113 123 133 138 138 138 137 137 137 137 136 137 137 133
128 129 134 118 81 38 29 27 46 46 41 55 39 38 37 37
33 13 4 4 4 2 3 3 4 4 3 19 36 38 38 34
14 8 9 5 0 2 7 24 13 2 32 36 35 35 34 33
31 29 28 27 26 25 23 23 22 22 21 21 21 20 21 20
0 0 0 14 34 33 29 4 0 10 37 16 3 2 2 4
16 11 22 43 21 12 12 15 14 13 18 41 38 32 31 34
35 44 57 57 63 45 51 37 19 22 27 76 110 116 119 118
110 104 114 124 133 137 137 137 137 137 137 137 137 137 136 134
130 134 133 112 72 35 29 31 45 46 38 51 39 36 36 38
32 13 4 4 0 0 4 3 5 4 3 18 35 37 38 34
15 7 8 5 0 0 2 7 2 1 30 35 34 33 32 32
30 28 27 26 25 24 23 23 23 22 21 21 21 20 20 20
0 0 0 12 34 33 30 7 0 4 36 36 34 29 30 36
44 42 41 43 48 47 44 45 46 46 47 51 40 35 43 45
46 53 56 59 64 45 47 35 21 25 34 67 108 120 123 120
112 106 112 123 132 137 137 136 136 136 137 136 137 135 136 135
131 135 129 103 58 35 29 33 45 46 35 45 37 34 35 37
31 14 4 4 3 4 8 3 4 4 2 16 35 37 37 34
15 6 8 4 0 0 0 0 0 0 29 34 32 30 31 31
29 28 26 25 25 23 22 22 22 21 20 20 20 19 20 19
0 0 0 8 34 32 29 8 0 1 33 42 42 37 39 47
51 47 42 38 49 53 50 49 49 51 52 52 42 31 38 43
43 56 53 62 65 43 47 35 20 29 48 62 106 120 125 122
112 106 112 120 129 135 135 135 136 136 136 136 134 135 135 134
133 134 125 86 51 31 27 37 45 45 35 43 35 34 31 34
30 14 4 3 1 0 3 2 3 3 1 14 34 36 37 33
14 6 6 2 0 0 0 0 0 0 23 17 8 8 23 29
27 26 25 23 23 22 21 21 20 20 19 20 19 18 18 18
0 0 0 6 32 31 29 9 0 0 31 41 37 34 38 45
51 47 40 35 37 41 41 41 40 41 40 41 38 30 32 37
40 59 51 62 63 41 54 38 21 30 59 58 103 120 125 125
115 107 113 122 127 134 136 136 136 136 136 135 135 134 134 134
134 133 113 75 47 29 28 40 49 47 39 41 36 30 28 29
30 16 4 2 0 0 1 3 3 4 1 14 33 36 37 33
14 5 6 0 15 21 1 0 0 0 9 19 26 16 7 28
27 26 25 24 22 22 21 20 20 18 19 19 18 17 18 18
0 0 0 5 32 31 28 11 0 0 30 37 29 30 31 38
49 48 43 38 30 27 27 27 28 29 28 29 32 32 33 37
42 62 51 62 62 45 57 42 25 34 59 61 100 117 127 129
118 108 114 123 130 135 137 137 137 136 136 136 135 134 134 135
135 128 106 67 46 30 32 44 48 49 40 42 36 29 23 27
27 16 5 3 2 1 2 3 3 4 1 13 33 36 37 34
14 5 6 4 29 46 12 0 0 7 28 32 31 29 6 24
27 25 24 24 23 22 22 21 19 19 19 19 19 18 18 18
0 0 0 3 30 31 28 14 1 7 32 33 14 16 18 23
32 33 32 37 31 29 30 31 35 36 34 34 37 38 39 41
44 62 54 64 60 48 56 45 25 37 54 58 97 115 124 129
124 112 114 122 128 133 137 137 137 137 137 136 133 134 135 136
135 124 100 67 47 34 36 49 50 44 41 44 37 29 20 18
24 20 8 5 3 3 3 2 3 4 1 12 33 35 37 35
16 5 5 2 11 19 10 0 0 14 34 33 31 30 10 20
27 25 24 24 22 22 21 20 20 20 19 18 19 19 19 18
0 0 0 2 28 30 27 23 22 30 40 32 1 0 0 1
4 10 15 35 34 37 40 38 48 51 39 31 32 34 36 39
45 63 58 66 57 55 57 50 27 39 50 53 93 116 124 125
125 114 112 120 125 130 137 137 136 136 137 136 132 134 135 136
134 119 95 72 52 36 38 54 54 41 40 46 39 28 18 19
20 20 20 17 12 7 4 2 3 4 1 12 33 35 37 34
19 7 9 1 1 1 0 0 0 13 33 32 30 30 12 20
27 25 24 23 22 21 21 20 20 20 19 19 19 18 18 18
0 0 0 1 26 30 27 31 42 45 47 34 1 0 0 0
0 0 12 39 36 41 46 38 48 52 27 5 5 9 14 17
46 64 64 68 56 57 58 51 30 42 44 55 91 115 126 131
130 117 111 118 123 129 137 137 137 136 137 133 130 134 135 136
132 109 96 77 55 37 41 59 54 38 42 48 41 32 20 21
27 21 18 20 23 25 20 9 4 4 2 11 32 35 37 35
29 20 12 4 0 0 0 0 0 9 33 33 31 29 13 23
26 24 23 22 22 22 20 21 21 20 20 20 19 19 19 18
0 0 0 0 23 30 26 31 45 47 49 39 3 0 0 0
0 0 6 41 34 38 41 15 16 29 20 0 0 0 2 6
48 68 69 71 59 59 60 53 28 46 38 57 90 110 122 129
135 126 111 115 119 122 135 137 137 136 134 129 129 135 136 136
126 106 93 78 55 38 47 64 52 35 47 50 42 32 18 18
25 28 26 19 15 21 30 37 27 10 2 10 32 34 36 36
35 15 13 23 2 0 0 0 0 8 33 32 32 28 11 26
26 25 24 24 23 21 21 20 20 19 19 19 19 18 18 18
0 0 0 0 21 29 25 28 37 38 37 29 2 0 0 0
0 0 5 41 34 38 39 6 1 19 21 0 0 0 3 9
51 72 72 70 62 64 59 57 29 52 35 55 90 107 120 128
133 132 119 116 115 117 126 134 136 133 128 128 132 136 136 136
118 99 92 74 59 44 55 62 54 41 52 54 44 35 17 21
29 35 32 28 20 18 21 22 30 32 16 12 30 33 36 36
36 19 23 39 10 0 0 0 0 7 30 30 27 14 14 25
16 14 21 23 22 21 21 20 20 20 19 19 19 19 19 19
0 0 0 0 19 28 25 23 18 17 19 9 0 0 0 0
0 0 7 41 34 39 39 6 1 17 24 0 0 1 12 21
55 77 77 72 64 72 63 63 31 58 37 56 90 106 118 127
132 134 127 121 122 119 122 129 131 130 131 133 136 136 136 133
112 95 94 62 66 51 64 59 59 45 60 57 45 35 14 21
27 29 34 36 33 28 20 26 22 21 25 23 27 27 24 23
19 8 3 7 2 0 0 0 0 0 5 4 2 0 10 16
10 25 18 23 22 20 20 19 19 19 19 19 19 18 18 18
0 0 0 0 16 28 24 22 16 15 18 7 0 0 0 0
0 0 8 42 34 40 40 6 1 16 25 2 6 14 20 23
57 84 81 73 65 77 68 70 36 62 40 55 90 108 116 124
132 135 131 126 127 125 127 131 133 134 133 137 137 137 137 131
105 91 84 57 73 58 75 61 67 46 66 59 49 40 13 22
23 22 26 25 22 23 21 24 29 30 30 28 21 9 1 0
0 0 0 0 0 0 0 0 0 0 0 0 0 0 6 10
76 98 41 21 21 20 20 19 20 19 19 19 19 19 19 20
0 0 0 0 14 27 23 22 18 17 20 8 0 0 0 0
0 0 4 40 33 40 39 6 5 19 28 19 19 16 18 25
61 91 84 75 67 77 71 77 42 60 47 52 89 109 117 122
130 136 136 131 129 129 131 134 137 136 137 137 137 137 137 124
97 84 69 60 78 63 83 70 71 56 68 62 49 40 17 24
23 20 24 29 24 17 25 19 24 28 27 23 25 18 12 6
5 6 6 6 7 9 12 12 12 12 11 4 0 1 14 14
69 71 44 6 6 12 21 20 20 20 19 19 18 19 20 20
0 0 0 0 12 26 23 23 21 19 21 7 0 0 0 0
3 0 2 39 35 40 39 16 10 20 31 23 18 15 17 29
61 93 88 79 70 72 78 83 50 58 51 59 88 112 119 121
127 135 138 135 133 132 131 135 136 137 137 137 136 136 136 116
92 75 56 71 80 70 84 80 75 57 74 68 53 41 17 27
26 25 24 20 23 27 23 26 24 27 30 23 27 25 22 20
19 14 15 15 15 16 16 17 16 16 13 5 0 0 0 0
0 0 1 3 1 10 25 24 24 24 24 22 23 22 22 22
0 0 0 0 12 27 23 23 22 22 22 8 0 2 0 0
9 9 3 38 36 41 40 26 19 24 28 21 18 17 21 34
67 97 94 86 76 63 82 88 54 66 56 70 93 111 122 121
124 132 138 138 134 133 132 133 137 137 138 138 137 136 134 107
90 65 51 79 81 81 83 91 76 62 81 73 57 45 22 28
28 23 21 24 24 26 20 26 26 28 28 27 24 30 25 26
24 18 19 19 18 18 18 19 18 16 13 5 0 0 0 0
0 0 1 4 1 10 20 18 16 15 14 13 12 10 9 9
0 0 0 0 10 25 23 22 22 22 24 12 1 4 0 0
12 20 10 37 39 40 39 28 28 20 14 10 14 19 20 35
67 99 96 91 84 57 82 88 59 65 55 79 99 113 124 123
123 129 137 137 136 134 134 134 136 137 137 137 137 137 132 102
84 57 56 80 84 90 82 103 80 65 86 77 61 46 22 30
29 25 19 23 26 29 30 26 27 27 22 23 20 29 28 30
30 30 30 29 24 22 20 20 19 17 14 6 0 0 0 0
0 0 0 2 21 26 26 26 26 27 28 29 30 31 32 33
0 0 0 0 9 25 22 21 23 23 25 25 20 25 23 24
32 38 35 47 42 40 40 27 8 10 15 17 30 45 24 38
69 99 98 91 90 59 72 88 63 56 44 69 104 117 128 129
124 129 135 138 137 137 135 135 136 137 137 137 138 136 126 98
76 58 59 84 88 103 86 108 83 71 90 81 60 49 26 34
32 30 24 17 17 27 27 23 25 24 22 24 23 29 30 29
29 29 28 28 27 25 24 20 19 17 17 7 0 0 0 0
0 0 0 6 41 41 40 40 40 40 40 39 39 40 40 40
0 0 0 0 8 25 22 21 23 24 24 36 43 45 46 47
52 55 55 58 46 39 28 16 17 14 12 9 18 34 29 36
70 101 100 93 96 67 62 84 66 40 36 32 63 104 128 134
126 126 135 138 138 137 137 135 136 137 137 137 137 136 121 95
68 62 68 89 89 111 88 109 87 75 97 84 53 48 30 36
35 31 27 22 22 28 26 22 18 20 22 25 21 28 30 29
27 23 27 30 28 26 25 23 21 19 18 8 0 0 0 0
0 0 0 8 41 41 41 41 40 40 40 40 39 39 40 39
0 0 0 0 7 25 21 20 23 24 24 35 47 48 48 49
52 56 56 53 41 38 23 11 9 7 10 13 27 28 35 36
74 104 105 94 98 73 61 79 71 34 37 24 27 45 91 129
130 126 136 138 138 138 137 137 136 136 137 137 136 136 118 93
73 72 73 90 87 114 89 106 89 79 93 83 48 52 33 41
38 34 34 20 23 27 25 21 13 18 23 24 21 25 29 30
22 19 26 28 27 27 25 22 22 20 19 8 0 0 0 0
0 0 0 10 42 41 40 40 40 40 40 39 39 39 40 40
0 0 0 0 6 23 21 20 22 24 23 23 33 33 32 32
34 38 39 34 33 30 20 14 10 11 13 17 35 34 38 38
77 107 108 95 101 75 61 76 74 31 38 27 24 22 27 44
79 105 127 137 138 138 137 137 136 137 137 137 137 136 115 91
78 72 67 91 85 114 92 107 91 82 98 83 48 55 42 46
41 34 37 29 21 22 26 16 12 18 24 27 22 22 30 26
18 20 23 27 26 28 28 24 21 20 20 7 0 0 3 6
0 0 0 12 42 40 40 40 40 39 40 40 40 39 40 39
0 0 0 0 6 23 20 19 22 24 23 18 16 16 16 17
20 25 26 26 24 22 16 14 8 10 13 26 35 35 39 44
76 110 109 98 105 82 62 77 76 30 38 25 26 24 20 19
25 30 46 72 100 120 132 136 137 137 137 136 129 116 88 80
68 54 55 93 85 113 96 109 95 84 103 79 47 57 50 54
44 36 38 37 25 21 22 18 11 18 24 25 27 23 26 22
18 20 19 23 26 26 28 27 22 21 20 8 0 0 29 37
4 0 0 15 41 40 40 40 39 40 39 39 39 39 40 40
0 0 0 0 6 22 20 19 22 24 23 20 18 18 18 18
20 25 27 23 24 18 7 10 10 10 14 34 35 36 37 50
78 113 108 99 105 90 67 75 75 36 35 23 25 22 22 21
18 16 16 16 21 26 38 50 58 59 53 43 35 44 50 72
66 42 55 92 81 116 101 109 94 86 105 79 48 59 52 59
47 40 41 39 34 18 20 21 9 19 23 24 23 24 25 19
18 18 17 20 22 24 25 26 23 21 22 7 0 0 14 15
1 0 0 19 41 40 40 40 40 40 40 40 40 40 40 40
0 0 0 0 6 23 20 19 21 23 23 23 22 22 21 22
25 25 24 26 28 14 5 10 8 8 21 38 37 39 35 46
76 110 110 100 98 93 72 74 78 43 33 23 22 23 23 22
20 17 16 14 14 16 19 17 16 18 18 19 22 36 56 73
67 35 60 94 78 119 101 111 95 86 105 76 48 58 52 64
47 42 44 42 35 25 18 20 9 18 22 22 23 22 22 18
16 17 18 18 20 21 22 26 25 22 22 6 0 0 0 0
0 0 0 22 41 41 40 40 40 40 40 40 40 39 40 40
0 0 0 0 8 24 20 18 21 24 23 24 22 23 23 25
25 25 25 21 21 23 12 11 9 13 27 43 36 43 35 42
75 110 110 98 89 97 80 72 80 43 27 25 25 21 21 23
19 20 15 15 15 15 18 17 17 17 16 16 19 37 64 68
58 34 62 94 80 121 106 114 97 87 105 69 52 59 50 67
50 41 44 41 38 31 17 17 8 17 17 25 28 22 20 17
13 16 16 18 19 18 19 24 25 24 22 5 0 0 0 0
0 0 0 24 41 40 40 40 40 40 40 40 40 39 39 40
7 8 9 10 14 18 18 19 21 23 23 24 23 23 23 24
25 25 25 20 16 13 16 11 7 14 33 45 37 44 36 42
73 107 108 95 83 96 81 72 84 46 27 27 23 22 21 23
19 20 18 17 19 17 18 19 19 19 18 18 21 48 68 64
52 32 65 95 76 123 104 113 92 88 102 59 54 58 53 68
51 38 46 46 41 31 21 15 10 15 10 21 24 24 18 17
14 13 15 16 17 19 19 21 25 24 25 6 0 0 0 0
0 0 0 27 40 40 39 40 40 40 39 40 40 39 39 39
12 13 13 13 13 15 17 18 20 23 23 23 23 22 21 24
24 23 24 18 18 17 15 9 14 15 35 43 37 41 37 46
72 103 104 89 81 94 83 72 85 46 22 25 19 25 22 18
18 17 21 21 21 18 18 17 17 19 19 19 24 56 60 61
43 33 64 91 73 121 103 113 87 85 97 54 55 52 57 68
50 38 44 49 44 37 27 14 10 14 7 19 18 22 18 12
13 13 12 13 16 17 16 23 23 23 24 12 0 0 0 0
0 0 0 23 40 39 39 39 39 39 39 39 38 39 39 38
11 12 12 13 13 14 16 17 20 22 22 23 24 22 22 23
22 24 25 19 18 20 14 10 10 15 39 41 36 37 36 48
71 101 100 88 79 93 86 74 83 42 23 22 21 28 24 20
17 17 22 22 23 20 19 17 18 18 18 18 29 60 52 60
35 32 59 88 75 117 96 107 86 85 92 54 57 44 59 67
53 43 41 51 46 44 28 15 7 16 10 16 13 14 15 10
13 13 9 9 14 17 17 20 23 21 24 24 2 0 0 0
0 0 0 12 38 40 39 39 40 40 39 39 38 38 38 39
11 11 11 11 11 12 14 16 20 22 22 22 23 20 22 22
20 15 21 19 17 18 15 10 6 20 45 40 39 37 38 47
69 96 98 88 77 86 80 69 84 35 29 20 22 28 23 19
16 15 20 20 20 20 19 17 17 16 18 17 43 49 49 54
28 35 57 85 70 114 89 102 82 90 86 52 59 32 51 68
52 48 40 52 52 48 29 20 7 16 12 16 16 8 14 8
8 13 12 8 14 18 16 20 20 19 19 19 8 0 0 0
0 0 0 20 25 39 39 39 39 39 38 38 38 39 39 38
2 3 2 3 6 11 12 14 21 21 22 22 22 20 21 21
21 14 15 17 14 16 12 8 12 29 48 39 37 38 38 44
66 93 96 84 76 78 72 67 82 28 31 24 26 26 23 18
18 17 21 20 18 18 18 18 17 16 16 20 51 38 44 48
26 35 52 84 68 109 84 100 82 94 77 51 58 25 36 68
52 48 41 50 57 54 35 26 8 15 12 15 21 9 12 8
10 13 14 11 13 17 19 21 24 21 11 10 13 7 19 6
0 0 2 32 18 34 38 39 38 38 38 38 38 38 38 38
0 0 0 0 5 13 16 16 19 20 21 21 23 20 20 18
19 14 9 16 14 12 5 9 15 36 44 42 34 37 39 41
65 88 92 73 75 73 66 68 79 28 29 23 24 22 21 18
18 20 19 18 17 18 17 17 16 17 17 31 45 34 42 39
25 35 47 82 64 104 84 96 83 98 65 51 58 23 26 69
51 48 46 49 59 58 44 28 10 14 10 10 24 14 11 7
13 13 12 10 14 18 14 21 27 19 8 7 12 84 130 62
0 0 3 36 28 20 37 37 37 38 37 37 38 38 38 38
0 0 0 0 4 11 15 17 18 20 20 22 23 19 20 16
15 13 4 15 17 9 6 8 22 39 43 39 32 35 34 40
63 84 91 68 74 65 60 67 78 29 27 29 25 19 20 19
17 20 21 22 20 19 16 14 14 18 19 39 31 32 38 33
23 38 50 79 56 94 87 91 83 99 59 50 56 15 22 67
50 48 51 50 61 60 54 30 12 15 10 9 20 27 12 7
11 13 11 11 15 16 15 23 21 11 7 7 7 77 137 64
0 0 4 36 37 20 29 37 38 38 37 38 38 37 37 37
0 0 0 2 4 10 16 18 19 20 21 19 24 20 19 15
15 12 3 11 13 10 7 7 31 33 44 35 32 33 34 38
58 81 87 64 71 59 55 65 75 33 24 24 26 26 22 22
24 22 21 22 19 19 16 19 18 21 24 43 29 31 38 28
23 40 48 76 52 82 84 86 85 95 56 54 46 7 20 63
49 49 55 51 63 62 57 33 13 15 12 7 14 30 15 9
10 11 10 10 13 14 18 21 14 11 4 9 8 21 36 8
0 0 6 37 37 25 8 22 37 37 38 37 37 37 37 37
2 3 1 3 6 11 17 20 22 23 23 16 23 21 19 17
15 12 3 9 12 10 6 11 32 32 45 33 32 30 32 35
54 76 83 66 69 55 51 64 72 37 27 19 21 24 24 24
30 27 27 28 27 27 23 24 24 27 32 37 28 34 40 33
28 39 45 72 50 74 78 84 88 85 53 60 31 13 22 58
48 52 55 50 63 64 59 32 18 15 11 7 9 14 31 10
12 11 11 10 11 15 16 14 14 7 6 9 7 6 0 0
0 0 5 29 25 4 6 4 36 37 37 37 37 37 36 37
7 7 6 6 10 12 15 17 21 22 21 13 19 20 18 17
15 12 4 7 12 12 4 17 29 32 43 32 31 30 32 35
54 72 80 66 64 53 49 65 69 37 29 22 16 23 22 23
22 20 22 24 25 23 21 23 24 29 37 30 28 32 35 24
27 32 44 71 45 73 75 79 90 74 54 64 15 11 17 55
49 53 57 50 61 67 58 32 22 15 12 8 8 5 22 19
10 12 10 9 11 13 11 15 9 3 3 6 7 7 1 0
0 0 0 7 13 21 30 4 34 36 36 36 37 36 37 37
7 8 7 7 7 6 7 7 20 21 18 15 13 18 17 17
13 13 5 6 12 12 4 22 26 32 41 32 31 32 30 35
52 68 75 68 63 52 46 65 66 38 27 19 19 17 28 26
22 19 19 18 18 15 14 15 19 24 28 22 21 26 30 23
28 30 39 71 41 68 73 77 92 67 57 65 13 11 13 54
52 50 58 50 58 68 56 36 28 15 12 9 10 4 9 15
18 12 11 15 18 17 14 6 3 0 2 8 9 5 2 0
0 0 0 1 4 14 23 2 27 36 36 36 36 36 36 35
0 0 0 1 0 1 1 4 19 22 17 16 12 15 19 18
15 13 5 7 12 10 9 25 23 31 38 33 34 33 32 37
53 66 68 68 61 50 45 64 61 39 25 20 15 18 29 26
22 21 18 17 19 14 14 18 21 19 26 23 19 27 32 27
29 26 37 71 44 67 69 79 89 65 63 57 16 9 10 46
54 50 59 53 57 68 54 38 29 13 13 9 9 5 6 7
12 8 8 11 12 16 5 4 2 2 3 10 12 7 3 0
0 0 0 0 0 0 1 0 6 26 36 36 36 36 36 36
