P2
128 120
151
40 39 40 39 38 38 37 36 36 35 35 35 34 34 34 33
32 32 32 31 31 31 30 29 29 29 28 28 27 27 27 26
26 25 25 25 24 24 23 23 22 20 19 17 16 15 16 18
19 21 21 17 13 20 25 23 22 20 20 20 18 16 14 11
11 10 9 13 15 14 15 12 15 17 18 19 19 20 21 21
21 21 23 23 23 24 24 24 25 25 26 26 26 27 26 26
27 27 28 29 29 31 31 32 32 33 33 33 33 34 35 34
35 36 35 38 36 36 36 37 37 37 37 37 37 37 38 37
40 39 39 38 37 38 37 36 36 36 35 35 34 33 34 33
32 32 32 32 31 30 30 29 29 29 28 28 27 27 27 26
26 25 25 25 24 24 24 22 22 21 20 18 17 16 17 20
21 22 23 18 12 20 26 24 22 21 20 19 18 18 16 14
13 12 10 12 15 15 14 16 18 19 20 20 21 21 21 22
22 23 23 23 24 24 25 25 26 25 26 26 26 26 27 28
28 29 31 30 31 32 32 33 32 33 33 33 34 34 35 35
35 35 36 37 35 36 37 37 37 37 37 37 37 37 37 37
40 39 39 39 38 38 38 36 36 36 35 34 35 34 35 34
33 33 32 31 31 30 30 30 29 29 29 28 27 27 27 26
26 26 26 25 24 24 24 23 23 21 20 19 17 17 18 22
23 24 25 19 11 20 27 24 23 23 22 20 20 19 17 16
17 14 10 11 16 15 15 16 19 19 20 21 22 23 23 23
23 24 24 24 24 25 25 26 26 26 26 27 27 28 29 29
29 30 32 31 31 31 32 32 33 33 33 34 34 35 35 35
36 36 36 37 36 36 37 37 37 38 36 37 36 37 38 37
40 39 38 39 38 38 37 36 36 36 36 35 35 34 34 34
33 33 32 32 31 31 30 29 29 29 29 29 28 28 27 27
27 27 25 25 25 25 24 24 23 23 21 20 19 19 20 24
25 26 27 20 12 20 27 26 24 23 22 22 20 19 16 17
18 17 13 10 17 15 17 18 20 21 22 22 23 24 24 24
24 25 25 25 26 25 26 26 26 27 27 28 29 29 30 30
31 32 33 32 32 33 33 33 33 33 34 34 34 34 34 35
36 36 37 38 36 37 37 37 37 38 38 38 37 37 37 37
40 39 39 38 38 38 37 36 36 36 36 35 35 34 34 33
33 33 32 32 31 31 31 30 30 29 29 29 29 28 28 27
27 27 26 26 26 25 24 24 23 22 22 21 20 20 21 25
26 26 26 20 12 19 28 25 24 24 23 22 21 19 18 18
19 18 14 10 18 16 19 19 21 21 22 23 24 25 24 25
25 25 26 25 26 26 26 27 27 28 29 29 29 29 30 30
31 31 33 32 33 33 33 33 34 34 34 35 34 35 35 35
35 35 36 37 35 36 37 37 37 37 37 36 35 36 38 38
40 39 39 38 38 38 37 37 37 36 36 35 36 35 34 34
33 33 32 32 31 31 30 30 30 30 29 29 29 29 28 28
27 27 26 26 26 26 25 24 24 23 23 23 22 22 22 26
27 27 27 21 13 18 27 26 25 23 23 23 21 20 19 19
19 18 16 12 18 17 20 21 23 23 24 24 25 25 25 25
25 25 26 26 27 27 27 28 29 28 29 29 30 31 31 31
31 31 33 32 33 33 33 34 34 34 35 35 35 35 35 35
36 36 37 38 36 36 36 35 35 36 37 37 37 37 38 37
40 39 38 38 38 38 37 37 37 37 36 35 35 34 34 33
33 33 33 32 32 31 31 30 30 29 30 29 29 29 28 28
27 27 27 26 26 25 25 24 24 23 23 22 23 23 23 27
28 28 28 22 15 18 29 27 25 25 24 23 23 21 21 20
19 19 17 13 18 18 21 23 24 23 24 24 25 25 25 25
26 27 27 27 27 28 28 29 29 29 30 30 30 30 31 31
32 31 33 32 33 33 33 34 35 35 35 35 35 36 36 36
36 36 36 35 35 35 37 37 37 36 37 37 38 37 38 38
40 39 39 38 38 38 38 37 37 36 36 35 35 34 34 34
34 33 33 33 32 31 31 31 31 30 30 30 29 29 28 28
28 28 27 27 27 26 26 25 24 24 24 23 23 24 25 28
29 29 28 22 16 17 28 27 25 25 24 24 23 22 22 21
21 20 18 14 20 19 22 23 24 24 24 24 25 26 26 26
26 27 27 27 28 28 29 29 29 29 30 30 30 31 31 32
32 32 33 33 33 34 34 35 34 35 34 34 35 35 35 34
34 35 36 37 37 37 36 37 37 37 37 37 37 37 38 38
39 39 39 39 39 38 38 36 37 36 36 36 35 35 34 34
34 33 33 33 33 32 31 31 31 31 30 29 30 30 29 29
28 28 28 27 26 26 26 25 25 25 24 24 24 25 25 28
29 29 29 23 18 17 28 27 26 25 25 24 24 23 24 22
20 21 20 16 20 19 22 24 24 25 25 25 26 27 26 27
27 28 29 28 28 29 29 29 29 30 31 30 30 30 31 32
33 33 33 33 33 33 35 35 35 35 34 33 34 35 35 36
36 37 37 36 36 36 38 37 37 37 37 37 38 38 38 38
40 40 39 39 39 38 38 37 37 37 36 36 35 35 35 35
34 34 34 33 33 32 33 32 32 31 31 30 30 30 29 29
29 28 28 27 27 26 26 26 26 25 25 25 25 25 26 29
30 30 30 24 19 16 27 27 25 25 26 25 25 24 23 22
22 22 21 18 21 21 24 25 25 25 25 26 26 27 28 28
28 28 29 29 29 30 30 30 30 31 31 31 31 31 32 32
33 33 34 34 34 34 34 34 33 34 35 36 35 36 36 37
36 36 36 36 37 37 38 37 37 38 38 37 38 38 38 38
40 40 39 39 39 38 38 37 37 36 36 36 35 35 35 35
35 34 34 33 33 32 32 32 32 31 31 31 30 30 30 29
29 29 28 27 27 27 27 27 26 25 25 25 25 26 27 30
30 30 30 24 20 17 28 29 26 26 26 26 25 25 25 23
23 23 22 19 22 22 25 26 26 26 27 28 27 28 29 28
29 29 30 30 30 30 30 30 31 31 31 32 32 32 33 34
33 33 34 33 33 33 33 35 36 36 36 38 36 36 36 37
37 36 37 37 37 38 38 38 37 38 38 38 38 39 38 38
40 40 39 39 38 38 37 37 37 37 37 36 36 35 35 35
35 34 34 34 33 33 32 32 31 32 31 31 30 30 30 29
29 29 28 28 28 28 27 27 27 26 25 25 25 26 27 30
30 31 31 25 21 13 23 28 26 26 27 27 26 25 26 24
24 23 22 19 23 23 26 26 26 27 27 27 28 28 28 28
29 30 30 29 30 30 31 31 31 31 31 32 32 33 33 31
32 31 32 34 34 35 35 35 35 36 36 37 37 36 36 37
37 37 37 37 37 37 37 38 38 38 38 38 38 38 38 38
41 39 39 39 38 39 38 37 37 36 37 36 36 36 36 35
35 35 34 34 33 33 33 32 32 32 32 31 31 30 30 30
31 29 29 29 28 28 28 28 27 27 26 26 26 27 27 31
31 32 31 25 18 11 24 30 28 28 27 26 26 26 27 24
24 24 23 20 25 25 27 27 27 28 28 28 29 29 29 29
29 30 31 31 30 31 31 31 32 32 32 32 32 31 32 32
34 34 34 35 35 36 36 36 37 36 36 38 37 37 37 37
37 37 38 37 37 37 39 38 38 38 39 38 38 38 38 38
40 39 39 39 39 38 39 38 37 37 37 36 36 36 36 35
36 35 35 34 33 33 33 33 32 32 31 31 31 31 31 31
30 30 29 29 29 28 28 28 26 26 26 26 26 27 28 31
32 31 31 25 20 19 26 31 29 28 29 27 27 26 27 25
25 25 24 21 25 25 28 28 28 28 29 29 29 29 30 29
30 30 31 31 31 31 31 31 31 31 31 32 32 33 34 34
34 34 35 35 35 36 36 36 36 37 37 38 37 37 37 37
37 37 38 38 37 38 38 37 38 38 39 38 38 38 38 38
40 39 39 39 38 38 38 38 37 37 37 37 37 36 35 36
35 35 34 34 34 33 33 33 32 32 32 32 32 31 31 31
31 30 30 30 29 29 28 28 28 27 26 27 27 28 28 32
32 32 32 26 21 22 24 31 30 29 29 28 28 27 27 25
25 25 25 22 26 25 28 28 28 29 29 29 29 30 30 30
30 30 31 31 31 31 31 32 32 32 33 34 34 34 34 35
35 35 35 35 35 36 36 36 36 37 37 38 37 37 37 37
38 38 38 38 38 38 38 38 38 38 39 38 39 39 38 39
40 40 39 39 39 38 38 38 38 38 37 37 37 36 36 36
36 35 35 34 34 33 33 33 32 33 32 32 32 32 32 31
31 30 30 30 29 29 29 28 28 27 28 27 27 28 29 32
33 32 32 27 22 24 24 32 31 29 29 28 27 27 28 26
26 26 26 22 27 26 29 29 29 29 29 29 30 30 31 30
30 30 31 31 31 31 32 33 34 33 34 34 34 35 34 34
35 35 36 36 35 36 37 36 37 37 37 38 38 38 38 38
38 38 38 38 38 38 37 38 38 38 39 39 39 38 38 39
40 39 39 38 39 38 38 38 38 38 37 37 37 37 37 37
36 36 35 35 34 34 34 34 33 33 33 32 32 32 32 31
32 31 30 30 30 29 29 28 29 28 28 27 27 29 30 33
34 34 33 27 23 25 23 31 30 30 29 29 28 28 28 26
26 26 26 23 28 27 30 29 30 30 30 30 30 30 30 31
30 30 31 31 32 32 33 33 33 33 34 34 35 35 35 35
35 36 36 36 36 36 37 37 37 38 38 38 38 38 38 38
38 38 39 39 38 38 38 38 38 39 39 38 38 38 39 39
40 40 40 39 39 39 39 39 39 38 38 37 38 37 36 36
36 36 36 35 35 34 34 34 34 34 33 33 33 33 32 32
31 31 31 30 30 30 30 29 28 28 28 28 28 29 30 33
34 34 34 28 23 27 24 31 31 31 30 30 29 28 29 28
27 27 27 23 28 27 29 30 30 30 30 30 31 30 31 31
31 32 32 33 33 33 34 34 34 35 35 35 35 35 35 36
36 36 36 36 36 37 37 37 37 38 38 39 38 38 38 38
39 39 39 39 39 38 38 38 38 38 39 39 39 39 39 39
40 40 39 39 39 39 39 38 38 38 38 38 37 37 37 36
36 36 36 35 35 35 34 35 34 34 34 33 33 33 32 32
32 31 31 31 31 30 29 29 29 29 29 29 29 30 30 34
34 34 34 28 23 28 23 31 32 31 30 30 29 28 30 28
28 28 27 24 28 27 30 29 30 30 30 31 31 32 32 32
32 32 33 33 33 33 33 34 34 35 35 35 35 36 36 36
36 36 36 36 37 37 37 38 38 38 38 39 39 38 39 39
39 38 38 38 37 38 38 39 38 38 39 39 39 39 39 39
40 40 40 40 40 39 39 38 38 38 38 38 38 37 37 36
36 36 36 36 35 35 35 35 34 34 34 34 33 34 33 33
32 32 32 31 31 30 30 30 30 29 29 29 29 30 31 35
35 35 35 29 24 29 24 31 32 31 31 31 31 30 31 29
29 28 27 24 28 25 30 31 31 31 31 32 32 33 32 33
33 33 33 33 34 34 35 35 34 34 35 35 35 36 36 36
37 36 37 37 38 38 38 38 38 39 38 39 39 39 37 37
37 38 38 39 39 38 39 39 38 39 39 39 39 39 40 39
40 40 40 39 39 39 39 39 39 39 38 38 38 37 37 37
37 37 37 37 36 35 35 35 35 34 35 34 34 33 32 33
32 32 32 32 31 31 31 30 30 30 30 30 30 30 32 35
36 35 35 29 24 29 25 31 33 32 32 31 30 30 32 29
29 29 29 25 29 28 31 32 32 32 32 33 32 33 33 33
33 33 34 34 34 34 34 35 35 35 36 36 36 36 36 37
36 36 38 38 38 38 38 38 38 38 37 37 37 38 38 39
39 39 39 39 41 38 39 39 39 39 39 39 39 40 39 39
40 40 40 40 40 39 39 39 38 38 38 38 38 37 37 37
37 37 37 36 36 36 35 36 35 35 35 34 34 34 34 34
33 33 32 32 32 31 31 31 31 31 30 30 30 30 31 35
36 36 36 30 24 30 27 31 33 33 32 31 31 30 32 30
29 29 28 25 29 29 31 31 32 32 33 34 33 33 33 34
33 34 34 34 34 34 35 35 35 35 36 37 36 36 37 37
37 37 38 38 38 38 38 37 37 38 39 39 39 39 39 38
39 39 39 39 41 39 38 40 39 39 39 40 39 40 40 40
40 40 40 40 39 39 39 39 38 38 38 38 38 38 37 37
37 37 37 37 36 36 36 35 35 35 35 35 35 35 35 34
34 33 33 33 32 32 32 32 31 31 31 30 30 31 32 36
36 36 36 31 24 31 28 29 33 32 33 32 31 31 32 30
30 29 29 26 30 29 32 32 33 33 33 33 33 33 34 34
34 34 33 34 35 35 35 36 36 36 36 37 37 37 37 38
38 38 38 38 38 38 38 39 39 39 39 39 39 39 39 39
39 39 40 39 40 40 39 39 39 40 39 39 40 40 40 39
40 40 40 40 40 40 39 39 39 39 38 38 38 38 38 38
38 37 37 37 36 36 36 36 36 35 36 35 35 34 34 34
34 34 34 33 33 33 32 31 31 31 31 31 31 31 32 37
37 36 36 31 25 32 30 30 33 33 33 32 32 31 31 31
30 30 29 27 30 30 33 33 33 33 33 35 34 34 35 34
33 34 34 34 35 35 35 35 36 36 37 37 37 37 36 37
37 38 38 39 39 39 40 40 40 40 40 40 40 39 40 39
39 39 40 40 40 40 39 39 39 39 39 39 39 40 40 39
40 40 40 39 39 40 39 39 39 40 39 39 38 39 38 38
38 38 37 37 37 36 36 36 36 36 36 35 35 36 35 35
35 35 34 34 34 33 33 32 32 31 32 31 31 32 32 36
38 38 37 33 26 32 32 28 35 34 34 34 33 32 31 31
31 31 30 27 30 30 33 34 34 34 34 35 34 35 35 35
35 35 36 36 36 36 36 37 37 37 37 36 37 38 38 38
39 38 38 40 40 40 40 40 40 40 40 40 40 40 40 41
41 40 40 40 40 40 39 40 40 40 40 39 40 40 40 39
40 39 40 39 40 39 39 39 39 39 39 38 39 38 38 38
38 38 37 37 37 37 37 36 36 36 36 36 36 35 36 35
34 34 34 34 33 33 33 32 32 31 31 31 31 32 33 37
38 38 38 32 26 31 34 29 35 34 33 33 33 32 30 31
31 31 31 27 30 30 33 34 34 33 34 35 35 35 35 35
35 35 36 36 36 36 36 36 36 37 37 37 37 38 38 38
38 38 39 40 39 40 40 40 40 39 40 39 40 40 40 40
40 40 39 40 41 40 39 39 40 39 39 40 40 39 40 40
40 40 40 40 40 40 40 39 40 40 39 39 39 39 38 38
38 38 38 37 37 36 36 36 37 37 36 36 36 35 36 35
35 35 35 34 34 34 33 33 32 31 32 32 32 32 33 37
38 38 38 33 26 32 35 27 35 35 34 34 33 33 31 32
31 32 30 28 30 30 33 34 34 34 34 35 35 35 36 35
36 35 35 36 36 36 37 37 38 37 37 38 37 39 39 38
38 39 39 40 39 40 40 40 40 40 41 40 40 40 40 40
40 40 40 39 40 41 39 39 40 40 39 39 39 40 39 40
41 40 40 41 40 40 40 40 40 40 40 39 39 39 39 39
38 38 38 38 37 37 37 37 37 37 37 36 36 36 36 35
35 35 35 35 34 34 33 33 33 33 33 32 33 33 34 37
38 38 38 33 26 32 37 28 34 35 34 34 33 33 31 32
31 31 31 29 30 31 34 35 35 35 35 35 35 35 35 34
34 35 35 37 36 37 37 37 37 38 37 38 38 38 38 39
39 40 39 40 40 39 40 40 41 40 40 41 41 40 41 40
40 40 40 39 40 40 40 40 40 40 40 40 40 40 39 38
41 40 41 40 40 40 40 40 40 40 40 39 40 39 39 39
39 39 39 38 38 38 37 37 37 37 37 37 37 37 37 36
36 35 35 35 35 34 34 34 33 35 33 34 33 33 34 38
39 40 39 35 27 32 39 28 35 36 35 35 34 33 32 34
32 32 32 30 31 31 34 35 35 35 35 35 35 35 36 35
36 36 37 38 38 37 38 38 38 38 39 38 39 39 39 39
40 40 40 40 40 40 40 40 41 40 41 41 40 40 40 41
40 41 41 41 41 42 40 40 40 40 39 39 38 39 40 39
41 40 40 39 40 40 40 39 39 39 39 39 40 39 39 39
39 39 39 38 38 38 38 37 38 37 37 37 36 36 36 36
35 36 35 34 35 34 34 36 38 36 33 34 35 34 35 38
41 40 40 35 27 33 39 29 33 36 35 34 34 34 32 33
32 32 32 29 30 31 33 34 35 35 34 35 35 35 36 36
36 36 37 38 38 37 38 38 37 38 38 39 39 39 39 40
40 39 40 40 40 40 41 40 41 40 40 40 39 40 40 41
40 40 41 41 40 39 37 38 39 39 38 39 41 40 42 40
42 41 41 41 40 40 40 40 39 40 40 40 39 39 39 39
39 39 39 38 38 38 38 37 38 37 37 37 37 37 37 36
36 36 36 36 36 35 38 41 39 35 34 34 36 34 34 39
39 38 39 35 27 33 40 31 33 35 36 35 34 34 34 34
32 33 33 30 30 32 34 35 35 35 35 36 36 36 37 36
36 37 38 38 38 38 38 37 38 38 38 38 39 39 39 39
40 40 40 41 41 41 40 41 42 41 41 41 40 40 40 40
40 39 39 39 39 38 39 39 39 40 39 38 40 40 41 39
35 38 41 41 40 40 40 40 40 40 39 40 39 40 39 39
40 39 39 39 38 38 38 38 38 38 38 37 37 37 36 36
36 36 35 38 35 36 40 37 36 31 30 31 34 29 32 35
32 34 38 36 29 33 40 32 32 36 36 35 34 34 33 34
32 33 32 31 32 34 35 36 36 35 36 36 36 36 37 37
37 37 38 38 38 37 38 38 38 38 38 39 39 39 39 40
40 40 40 40 41 40 41 41 41 41 40 40 40 39 38 38
39 39 40 40 40 40 40 40 39 40 40 39 40 40 40 39
16 25 40 40 41 40 40 41 40 40 40 40 40 40 39 40
39 40 39 39 39 39 38 37 38 38 37 38 37 37 37 36
37 38 41 40 37 33 31 29 30 25 20 28 32 24 31 29
29 24 27 25 28 30 38 35 32 37 36 36 35 35 34 34
33 33 33 31 31 33 35 37 37 36 36 36 37 37 37 37
37 38 38 39 38 38 38 38 39 39 39 39 39 39 40 40
41 40 41 41 41 40 40 41 40 40 40 40 40 40 40 40
41 41 41 40 40 40 40 39 39 40 39 40 40 40 40 40
14 23 40 41 41 40 40 41 40 39 40 40 40 40 41 40
40 40 40 40 39 39 39 38 38 38 38 37 38 38 40 40
43 42 40 33 33 38 34 31 35 25 25 27 34 25 32 28
32 27 32 26 25 27 29 24 33 38 38 36 35 35 35 35
33 33 32 32 31 34 35 37 36 36 36 36 37 36 37 37
37 38 38 39 39 39 38 39 39 39 39 39 40 41 40 40
42 40 40 40 40 40 40 40 40 40 40 39 40 40 40 40
40 40 40 40 40 40 40 39 40 40 40 39 39 40 40 40
16 23 40 41 41 41 41 40 39 40 41 41 40 40 40 40
40 40 40 39 39 38 39 38 39 39 39 39 44 48 47 44
39 37 39 35 34 40 38 33 38 25 25 26 34 26 35 28
33 31 33 30 27 26 27 22 22 24 31 37 35 34 34 35
33 33 34 32 30 34 36 37 37 37 37 38 37 37 38 37
38 38 38 39 39 39 39 38 39 39 39 39 40 40 40 40
40 40 40 40 39 40 40 40 40 40 40 40 41 40 40 40
40 41 40 41 41 41 40 40 40 40 40 39 40 39 40 40
16 23 40 41 41 41 40 40 42 50 50 48 46 43 42 41
39 39 41 39 39 39 38 38 39 39 40 48 56 47 43 38
38 42 44 42 42 46 43 38 42 28 26 29 36 29 38 31
34 33 33 32 27 28 28 25 21 23 24 26 35 36 35 35
34 34 34 32 31 35 36 37 37 37 37 37 37 37 38 38
38 38 38 40 40 39 39 39 39 39 40 40 40 40 40 40
40 41 40 40 40 40 39 40 40 40 39 39 41 41 40 41
41 40 41 41 40 40 40 39 39 40 40 40 40 39 39 39
18 26 41 42 42 41 41 41 43 54 53 52 50 47 46 45
44 42 41 40 40 40 39 39 39 42 56 59 49 50 40 44
49 55 56 57 55 52 46 42 45 30 29 35 38 31 38 32
35 35 33 34 27 29 29 30 23 23 26 24 24 36 35 36
34 34 34 33 32 35 35 38 38 38 38 38 38 38 38 38
38 39 39 39 39 38 38 39 40 40 40 41 41 39 41 40
40 40 41 41 40 39 40 40 41 40 40 40 41 41 41 41
41 41 40 41 40 40 40 40 40 40 40 40 40 40 39 40
18 28 45 44 44 43 42 41 44 54 54 52 49 48 49 50
53 46 46 45 43 42 40 39 43 58 63 54 53 48 48 51
61 67 70 82 77 59 51 45 48 35 31 40 38 34 42 37
36 38 34 37 30 31 32 31 26 24 25 26 23 30 36 37
35 34 35 33 32 36 36 38 38 38 38 38 39 38 38 38
38 37 38 39 39 39 40 40 40 41 40 41 41 41 41 41
41 41 41 41 40 40 40 40 40 40 40 40 41 42 41 40
41 41 41 40 41 40 41 40 40 39 40 40 40 40 40 41
18 30 48 47 45 45 45 44 45 47 41 47 49 50 53 54
55 47 42 46 48 47 45 45 59 68 60 56 61 52 55 59
72 78 87 102 92 63 56 48 51 39 36 42 39 35 43 41
37 39 38 37 31 33 34 33 30 27 24 28 25 25 31 36
35 36 35 34 33 36 37 39 39 38 38 38 38 37 38 39
38 38 39 39 39 39 40 39 39 40 40 41 42 40 41 41
41 41 42 41 40 41 41 41 41 41 40 41 41 42 42 41
41 40 40 39 40 40 40 40 40 40 41 41 40 41 41 41
19 30 48 46 40 42 47 49 52 31 3 11 28 40 44 47
51 44 12 11 21 29 39 50 68 63 57 60 61 59 61 69
82 90 101 114 98 70 59 51 52 43 38 45 40 38 45 43
39 41 41 42 35 35 35 36 34 30 28 29 30 24 31 33
36 36 36 35 33 37 36 38 38 38 38 37 38 38 39 39
39 39 39 39 40 40 40 40 40 40 40 41 42 41 42 41
41 41 41 41 41 41 41 41 42 40 41 41 41 42 41 41
41 41 40 40 41 41 41 40 40 40 41 41 41 41 41 40
20 28 45 47 45 43 43 52 56 32 0 0 9 19 21 22
32 42 5 0 0 1 16 61 67 59 57 64 63 65 65 76
89 98 111 120 107 74 62 55 53 46 41 48 40 39 44 46
39 41 42 43 35 37 36 39 34 30 31 31 34 27 30 34
36 36 36 35 32 36 35 38 38 38 39 39 40 39 39 39
39 39 39 40 40 40 40 40 40 40 40 41 42 41 41 41
41 41 41 41 42 42 41 41 41 42 41 41 42 42 41 40
41 40 41 40 40 42 41 41 41 41 42 42 41 41 40 39
20 18 15 23 33 42 48 53 56 34 0 0 6 12 16 17
25 42 7 0 0 3 36 67 64 54 60 66 62 69 71 86
96 103 118 124 112 78 61 55 55 48 43 49 42 39 47 47
40 43 43 45 37 39 36 39 36 31 32 30 36 31 29 37
38 37 36 36 33 36 36 39 39 39 39 39 41 40 40 40
40 40 40 40 41 40 41 41 41 41 41 41 43 42 42 42
42 42 42 42 41 42 42 41 42 42 41 41 41 42 41 41
41 41 41 41 41 42 41 41 42 42 42 42 42 42 41 41
20 13 0 0 1 5 12 22 34 31 0 0 4 7 5 10
22 42 10 0 0 14 56 66 56 55 63 65 64 74 77 90
101 109 122 125 112 81 61 54 59 51 45 53 44 39 47 48
39 43 44 44 42 39 40 40 36 37 34 31 37 33 29 39
47 39 37 36 33 38 36 40 40 40 40 39 41 40 40 40
40 40 40 40 41 41 41 41 41 41 41 41 43 42 42 42
42 42 42 42 43 42 42 42 41 42 42 41 42 42 41 42
41 42 41 41 42 42 41 42 43 43 43 42 42 41 41 40
20 12 0 0 0 0 0 0 3 24 0 0 0 0 0 4
20 40 5 0 1 31 61 56 52 58 66 66 67 76 82 92
104 115 124 124 113 82 64 54 62 54 48 53 47 41 49 50
39 46 45 44 45 42 43 44 40 40 37 34 38 34 29 37
56 46 37 36 33 38 36 40 40 41 40 40 42 41 40 41
41 41 40 40 40 40 41 41 41 41 42 42 43 41 42 42
43 43 43 43 43 43 43 42 42 43 42 42 42 42 41 43
42 43 43 42 43 42 43 42 43 42 42 41 41 41 41 41
20 11 0 0 0 0 0 0 1 21 0 0 0 0 0 1
23 43 6 0 9 51 58 51 56 59 67 65 68 78 87 94
106 120 128 123 112 79 66 56 63 55 50 55 50 42 49 52
42 48 48 46 48 46 45 47 42 42 40 38 40 35 30 34
57 58 39 36 33 37 36 40 40 40 40 40 41 40 40 40
40 41 40 40 41 40 40 41 42 42 42 42 43 42 43 43
42 43 43 43 42 42 42 42 41 41 41 41 41 43 42 42
42 42 42 41 41 41 42 42 42 43 42 42 42 41 42 42
21 12 0 0 0 1 0 0 1 18 0 0 0 0 0 0
21 45 6 0 30 52 52 48 56 58 69 67 69 78 90 99
108 120 130 121 110 80 67 59 66 58 52 58 53 43 50 54
43 49 49 48 52 50 50 46 46 46 47 38 44 37 34 34
52 73 45 36 33 38 36 41 41 40 40 40 41 41 40 40
40 40 41 41 40 41 41 41 42 42 42 43 44 42 43 43
43 43 43 43 42 42 43 43 42 42 43 42 42 42 43 42
42 42 42 42 41 42 43 43 43 43 42 43 43 43 43 43
20 12 0 1 1 12 7 0 1 17 0 4 0 0 0 1
20 47 7 2 48 49 44 47 55 59 68 66 68 79 91 103
109 120 126 118 107 80 68 61 69 62 56 58 55 44 51 57
46 51 51 50 54 50 52 49 50 43 50 41 46 39 37 37
48 76 61 38 34 39 37 41 41 41 41 41 41 40 39 40
40 40 41 40 41 41 42 42 42 43 43 42 43 42 42 43
42 43 44 43 43 42 43 42 42 42 42 42 42 43 42 42
42 43 42 42 42 41 43 43 43 43 43 43 43 42 40 39
20 12 3 12 7 8 3 0 1 16 1 1 0 0 0 6
20 47 9 13 53 46 40 45 53 59 66 65 69 79 93 107
109 118 126 116 105 83 71 63 71 62 58 62 58 48 54 61
50 50 55 53 57 52 56 52 52 45 51 49 47 44 39 39
51 73 78 42 34 38 37 40 41 40 40 40 41 40 40 40
40 41 40 41 41 41 41 41 42 42 42 41 41 43 42 43
42 43 42 42 44 43 42 42 43 42 42 42 42 42 42 42
42 42 41 42 42 41 43 42 41 41 40 42 41 38 37 36
20 13 8 8 0 4 4 0 1 18 2 0 0 0 0 6
28 51 15 31 51 44 40 44 54 57 63 65 68 78 94 107
114 118 128 118 104 84 74 66 73 64 65 67 65 48 56 66
52 50 56 57 60 53 56 53 53 47 53 54 48 48 43 45
57 72 87 55 34 39 36 41 41 40 40 40 41 40 40 40
40 41 40 42 42 42 42 42 42 42 42 43 42 42 42 43
43 43 43 43 44 43 42 43 42 42 42 43 42 42 42 41
41 41 40 39 39 42 42 39 38 37 34 33 30 27 23 21
21 14 6 1 0 0 1 1 1 29 22 14 11 9 2 1
20 56 42 49 50 43 41 43 53 40 34 52 67 77 92 107
122 113 129 126 106 87 77 72 80 67 68 71 70 52 58 70
51 49 57 62 63 53 59 56 56 46 59 55 53 50 47 50
57 72 91 71 35 39 37 41 41 40 40 40 40 40 41 41
41 41 41 42 42 42 42 42 42 42 42 42 41 42 42 43
43 43 44 43 44 43 43 42 42 41 41 41 40 40 39 38
39 39 37 37 35 33 30 27 23 22 20 19 19 20 21 22
20 13 0 0 0 0 0 0 3 43 56 46 42 41 37 28
33 60 42 45 50 43 40 44 23 1 12 9 17 37 68 101
120 115 121 135 114 96 84 79 86 70 74 75 79 60 60 79
56 50 59 61 67 56 59 59 59 51 59 57 57 54 50 53
58 72 84 83 41 38 37 41 41 40 39 40 41 41 41 41
41 42 41 41 43 42 42 42 42 42 42 42 43 42 43 42
43 43 43 43 44 42 41 40 39 39 39 40 38 38 35 33
30 28 26 24 22 21 21 21 22 22 24 25 26 26 27 28
21 14 0 0 0 0 0 0 2 45 59 48 54 56 60 59
56 57 39 40 49 45 38 25 2 2 21 14 14 12 11 19
51 87 108 129 128 104 89 86 93 74 79 82 85 67 68 85
61 55 63 63 73 59 60 62 65 54 61 59 63 59 54 51
59 76 76 89 54 39 38 41 41 41 40 41 41 41 41 42
42 41 41 42 43 42 42 42 42 42 43 42 42 42 43 43
42 42 42 43 43 41 41 40 43 36 31 28 26 25 22 22
22 23 23 24 25 26 27 28 29 29 30 31 29 24 31 33
21 24 26 19 12 6 2 0 2 45 52 48 56 59 63 62
53 45 39 40 51 49 35 7 4 17 11 18 15 14 17 18
21 17 37 59 88 99 94 96 99 78 81 85 92 74 70 95
70 62 68 67 81 64 60 65 66 58 64 62 68 63 58 55
62 76 73 85 67 40 38 41 41 41 41 41 41 41 41 42
42 40 40 40 43 42 42 42 42 42 43 43 43 43 43 43
41 40 37 35 33 30 28 30 43 30 20 22 25 25 26 27
28 28 29 31 31 32 33 34 34 35 36 35 35 32 26 34
22 33 52 55 51 45 39 32 29 49 42 47 55 58 61 63
57 48 42 40 46 45 34 8 5 18 12 29 40 44 51 50
43 37 31 38 31 35 73 105 104 86 84 86 101 79 67 101
81 65 71 67 84 67 62 69 69 60 64 67 73 65 61 54
61 75 76 85 75 43 38 41 41 41 41 41 41 41 41 41
41 41 40 40 42 42 42 42 42 42 41 41 39 36 34 31
29 26 25 25 26 26 27 26 38 29 24 27 30 32 32 32
33 34 35 35 36 36 36 36 38 38 37 36 37 38 34 26
22 32 54 58 58 56 56 56 57 55 28 29 39 45 51 55
53 49 42 36 36 34 27 10 4 18 17 34 54 67 81 92
103 111 99 79 54 45 78 109 106 91 84 88 108 85 66 97
89 67 78 69 93 70 61 73 79 65 61 67 75 67 60 53
59 73 76 83 83 51 37 41 41 40 40 39 40 40 39 38
39 40 41 40 40 40 39 37 34 32 30 28 27 26 26 26
27 28 29 30 31 31 32 30 38 31 28 33 35 36 36 37
38 38 38 39 39 38 38 38 38 38 39 37 37 39 40 35
20 30 52 57 57 57 58 58 59 52 12 3 4 9 16 25
29 41 42 33 35 31 14 4 2 25 19 38 72 74 90 101
118 136 142 142 136 120 108 117 114 99 88 89 117 93 65 90
98 73 86 72 98 78 61 78 81 68 64 70 78 68 60 53
57 71 74 80 79 59 37 39 39 38 37 36 35 36 35 26
32 37 34 32 31 28 28 27 27 27 28 29 30 30 31 32
33 34 35 35 36 37 36 34 38 32 30 37 37 38 38 39
40 40 40 40 41 40 40 40 40 38 38 38 38 40 40 41
27 32 44 48 48 50 52 54 58 49 8 0 0 0 0 7
18 40 40 27 29 22 10 0 2 31 35 45 90 104 100 109
125 144 145 146 145 139 123 126 120 110 96 93 120 94 70 80
110 79 89 82 102 87 62 77 84 71 65 75 80 73 60 52
57 66 72 67 81 67 39 35 36 35 36 35 33 32 30 22
24 27 27 27 28 29 30 31 32 33 35 35 35 35 37 37
38 38 39 39 39 39 38 32 19 16 30 39 40 40 41 41
41 41 41 41 42 41 41 41 41 40 38 39 39 38 40 41
27 30 32 34 38 42 41 43 54 47 6 0 0 0 3 1
5 40 40 20 18 11 5 1 5 38 37 48 86 116 116 126
140 145 146 145 145 144 130 135 129 122 104 97 124 94 80 75
120 89 93 94 106 98 69 82 90 76 67 75 85 79 61 52
55 59 67 58 79 70 46 33 31 29 28 28 27 27 27 27
28 30 32 32 34 35 37 37 38 38 39 40 40 39 40 40
40 40 41 40 41 40 39 29 8 6 24 39 41 42 42 41
41 41 41 41 41 42 42 41 41 41 40 38 39 37 39 41
26 29 27 29 32 39 38 41 53 46 4 0 0 0 1 1
0 38 35 11 6 0 1 1 7 36 31 65 92 113 117 126
142 146 145 145 145 144 132 139 131 131 108 104 123 99 86 82
123 95 100 103 108 108 75 85 89 77 67 73 87 85 61 54
53 54 59 58 68 69 52 25 25 28 28 29 30 31 33 33
33 35 37 37 39 39 39 40 40 41 41 41 41 41 41 41
41 42 40 34 28 22 34 25 12 7 20 39 42 42 42 41
41 42 41 41 41 42 41 41 41 41 39 40 38 37 37 40
23 27 26 31 35 40 42 46 52 44 4 0 0 0 0 0
1 40 28 0 0 1 4 0 7 34 39 60 100 116 122 135
144 144 145 145 144 144 136 139 133 135 115 107 125 109 97 89
125 98 99 106 109 112 73 88 88 74 68 75 91 87 63 57
50 51 53 50 63 68 60 29 30 31 32 33 34 35 36 37
37 38 39 39 39 40 40 40 41 41 41 41 42 42 42 41
42 42 30 5 3 5 26 24 3 1 19 38 40 41 42 40
40 41 40 40 41 40 41 40 40 40 40 41 39 37 35 36
27 23 5 5 9 15 21 27 33 37 5 0 0 0 0 0
2 41 30 0 2 54 10 2 5 20 27 42 100 115 128 140
145 144 145 145 144 144 141 138 137 131 120 112 117 110 100 84
123 102 100 107 109 117 79 91 84 72 68 77 92 85 62 56
47 52 49 49 57 69 65 40 34 35 36 36 37 37 37 38
40 40 40 40 40 40 41 41 41 41 41 41 41 42 42 41
42 42 35 25 29 33 37 28 2 1 17 36 40 40 41 40
40 40 40 40 40 40 40 40 40 40 39 39 39 39 36 34
30 24 1 0 0 0 0 0 1 22 4 0 0 0 0 0
2 40 26 0 43 87 12 4 3 5 12 47 109 126 137 143
144 143 144 143 144 144 143 138 137 130 123 113 114 114 99 80
123 101 99 107 111 121 80 94 85 71 69 73 92 88 64 58
46 50 49 47 46 59 69 50 36 37 37 37 38 38 37 38
40 40 40 40 41 41 41 41 41 40 41 41 41 42 41 41
41 41 40 40 40 39 38 30 5 0 18 36 39 39 41 39
40 39 39 40 39 39 40 39 40 39 38 39 39 38 38 35
31 26 2 0 0 1 0 0 0 18 4 0 0 8 5 0
1 39 23 14 91 86 16 7 3 3 14 79 124 136 143 143
144 144 144 144 143 143 143 138 138 128 127 113 115 113 99 78
120 100 100 110 109 125 84 96 89 71 68 75 95 84 64 60
46 44 48 45 39 54 68 60 39 38 39 38 39 38 39 40
41 41 40 40 40 41 42 41 41 41 41 42 42 42 41 42
42 42 41 40 39 39 38 34 11 0 22 36 39 39 40 39
40 39 39 39 40 39 40 39 39 39 38 39 39 39 38 35
29 25 2 0 0 6 1 0 0 16 4 0 5 21 15 4
1 39 23 67 103 87 24 8 1 3 31 112 132 140 144 144
144 144 144 144 143 143 143 137 140 125 130 113 112 113 99 80
121 101 100 112 107 126 87 101 88 68 73 80 96 84 64 62
48 35 46 43 35 49 63 72 43 38 39 39 39 39 40 40
40 41 41 40 41 41 41 41 41 41 41 42 42 41 42 42
42 41 41 40 40 39 37 33 21 12 29 37 39 40 41 40
40 39 39 39 39 40 39 39 39 39 39 39 39 39 38 36
27 24 1 0 7 19 10 2 0 17 5 0 13 23 18 8
1 40 59 106 107 90 27 5 4 9 71 125 138 143 145 144
144 144 144 144 144 144 143 139 141 125 133 120 112 119 99 76
123 103 100 111 107 127 90 103 89 68 75 84 98 80 63 61
49 30 47 39 34 43 58 76 49 39 40 39 39 39 40 41
41 41 41 40 41 41 41 41 41 41 40 41 42 41 41 42
41 42 41 41 41 39 37 33 30 29 34 39 40 40 41 39
40 40 39 39 40 39 40 40 40 39 39 39 39 39 39 37
25 23 1 0 14 25 14 7 0 22 29 22 31 31 29 23
13 52 103 115 111 99 27 13 10 38 109 130 141 145 144 144
144 144 145 144 144 144 143 137 140 126 134 120 112 121 100 66
121 106 99 110 107 127 94 103 89 71 72 83 97 78 65 56
50 31 42 37 35 35 52 72 56 41 40 39 39 40 40 41
41 41 40 40 40 42 41 41 41 41 42 41 42 42 41 42
41 41 42 41 40 40 37 34 33 35 38 40 40 40 41 41
40 40 41 40 40 40 40 40 40 40 40 39 39 39 38 35
24 24 2 0 9 13 8 4 0 22 48 47 51 51 49 51
54 94 126 121 109 110 84 37 39 94 122 137 143 144 144 144
144 144 144 144 144 143 143 138 140 126 133 121 113 125 100 66
123 106 99 109 108 124 93 103 88 70 76 85 99 79 68 52
47 30 38 38 39 26 44 57 61 43 40 39 40 41 40 40
41 41 40 41 40 40 41 41 41 41 41 41 42 42 41 41
42 42 41 41 40 39 38 36 36 37 40 40 40 40 41 41
40 40 40 40 40 40 40 39 39 39 39 38 38 38 39 37
26 26 10 3 4 4 2 1 0 21 50 49 53 52 52 57
74 118 135 129 104 105 115 83 87 110 129 142 144 144 144 144
144 144 144 144 144 143 143 139 139 127 131 122 113 122 96 71
121 107 100 109 109 125 100 106 88 69 78 86 103 82 70 46
42 33 32 39 41 25 41 49 62 46 40 40 40 40 40 40
40 41 40 40 41 40 41 41 41 41 41 41 41 42 42 42
41 42 41 40 40 39 39 38 38 39 40 40 41 40 40 40
40 40 41 38 39 39 39 39 39 38 38 38 37 36 37 36
27 28 24 8 3 4 1 0 0 20 47 47 50 50 51 59
84 122 139 143 133 134 112 87 100 116 133 142 144 144 144 144
144 144 143 144 144 144 143 139 136 129 131 122 115 121 101 88
126 105 105 110 106 123 102 106 85 70 79 86 106 81 72 42
39 34 27 40 40 27 38 46 55 50 39 40 40 40 40 40
40 40 41 41 41 41 41 41 41 41 41 41 41 42 41 42
42 42 41 40 41 40 39 38 39 40 39 39 39 39 40 39
39 39 38 38 38 38 38 38 38 37 37 37 37 36 36 36
28 29 20 3 0 3 0 0 0 21 47 43 46 46 47 48
73 109 116 122 136 144 113 86 107 120 137 144 145 144 145 144
144 144 144 144 144 144 144 140 136 129 132 125 114 122 107 100
126 102 101 112 107 121 107 105 83 70 82 90 103 82 74 38
29 37 26 40 35 26 33 45 48 53 41 40 40 41 41 41
41 40 41 42 41 41 41 41 41 41 41 41 41 41 41 41
41 41 41 40 40 40 40 39 40 41 40 40 41 41 41 40
40 39 39 39 38 37 38 37 37 37 37 37 36 37 37 36
30 30 17 4 2 3 1 0 0 21 49 43 44 44 45 45
49 89 113 100 107 114 107 87 110 123 137 145 145 144 144 144
145 144 144 144 144 145 144 141 137 128 132 125 114 122 107 101
125 102 97 110 103 121 109 107 84 71 83 91 103 84 78 37
22 35 27 36 34 30 26 37 42 51 44 41 41 40 40 41
41 42 42 42 42 41 41 41 41 41 41 41 42 41 41 41
41 41 41 41 41 41 40 40 41 42 41 40 40 41 40 40
39 39 38 38 37 37 37 37 37 36 36 36 36 36 36 35
29 29 36 35 33 27 25 22 19 32 52 44 45 45 45 46
47 49 64 95 121 107 84 88 109 125 138 145 145 145 145 145
145 144 144 145 144 144 144 141 135 125 133 124 115 120 104 102
123 103 90 113 106 121 108 104 83 71 87 95 108 87 78 38
18 31 28 30 36 27 20 33 36 46 45 41 40 40 39 40
40 41 41 42 41 41 41 41 41 41 41 41 42 41 42 42
42 41 42 41 41 41 41 41 42 41 41 40 40 40 39 39
37 38 37 37 36 37 36 36 35 35 35 35 35 34 36 35
30 30 48 56 57 53 54 57 56 56 56 48 47 47 47 47
51 54 57 53 97 118 97 92 103 124 139 143 145 145 145 144
145 145 145 145 144 145 145 140 134 126 132 120 115 115 101 102
122 99 88 112 102 120 112 103 86 69 88 94 104 88 75 34
16 25 27 28 31 24 16 32 32 43 49 41 41 39 41 41
42 42 42 42 42 42 40 41 41 41 41 41 42 42 42 42
41 42 41 41 41 41 42 41 41 41 40 39 39 39 39 38
37 37 36 36 36 35 34 35 34 33 34 34 34 34 33 32
31 31 50 63 62 61 62 62 62 62 59 43 40 39 38 39
45 52 59 54 95 118 109 96 93 119 138 144 145 145 145 145
145 145 145 144 145 145 145 139 133 123 133 118 118 113 94 85
121 98 81 112 101 118 110 102 85 68 87 95 105 89 74 36
14 21 25 26 29 22 14 26 28 37 43 45 41 41 41 42
42 42 42 42 42 42 40 41 41 40 40 41 41 40 41 41
41 41 40 40 40 41 41 40 41 40 39 40 39 39 39 38
37 36 36 35 34 34 34 34 34 33 33 33 32 32 33 32
31 29 39 46 47 49 50 52 54 55 53 20 14 11 8 10
15 25 50 60 105 121 123 106 90 114 134 143 144 145 145 145
145 145 145 145 145 145 145 138 132 121 135 117 119 104 75 49
121 96 81 110 100 120 112 97 82 71 90 96 103 86 74 32
14 17 24 19 27 25 14 19 28 32 39 44 42 42 41 41
42 42 42 42 42 41 41 41 41 40 41 40 41 41 42 40
39 38 37 36 33 34 36 40 40 39 39 38 38 37 37 36
36 36 35 34 33 33 33 34 34 32 32 32 32 32 33 33
31 28 33 37 37 37 37 37 37 38 40 14 0 0 0 0
0 5 42 58 72 102 126 116 94 111 132 141 144 145 146 146
146 146 146 145 145 145 145 135 129 121 135 114 120 99 60 51
118 96 77 111 98 118 109 95 84 75 92 99 97 79 75 29
13 15 20 19 23 25 14 11 31 30 38 44 43 41 42 42
41 40 41 41 39 39 37 37 36 36 37 40 41 41 41 35
22 19 16 15 12 13 27 40 40 40 38 38 38 37 37 36
35 34 34 33 33 33 32 32 33 32 31 31 31 32 32 32
30 28 39 44 44 43 43 42 41 42 41 17 8 0 0 0
1 16 44 51 50 68 88 97 89 111 132 142 145 145 146 146
146 146 146 146 145 145 145 134 132 121 134 109 124 94 63 60
118 96 78 110 96 115 111 95 79 77 88 103 97 79 73 29
12 14 16 20 19 27 15 7 27 26 35 39 40 43 43 41
40 34 30 28 24 21 19 15 14 14 19 34 41 41 41 34
11 8 8 9 8 9 25 41 40 40 39 38 37 36 36 35
34 34 33 33 32 32 31 31 32 30 31 31 30 30 31 31
30 28 40 46 47 47 47 46 47 47 44 18 9 1 0 0
1 16 43 49 67 104 113 107 81 112 133 140 145 145 146 145
146 146 146 145 145 145 145 130 136 120 136 111 120 90 67 72
119 93 78 110 101 117 113 91 73 81 90 105 94 75 78 27
12 13 14 18 16 27 19 7 18 24 32 39 39 40 44 42
35 15 8 10 10 11 7 5 5 4 5 28 41 41 40 33
11 8 8 9 8 9 25 40 41 40 39 37 37 37 36 34
34 33 32 32 32 31 31 29 29 29 30 29 29 29 29 29
32 31 42 48 48 48 46 47 47 50 47 15 4 0 0 1
7 8 35 50 68 101 115 119 102 110 133 139 145 145 145 146
146 145 145 145 145 145 145 128 137 118 134 110 123 82 60 78
124 90 80 105 103 121 113 94 72 87 94 103 94 80 81 23
13 15 12 14 14 16 21 12 11 21 25 36 39 37 41 42
34 10 4 8 9 10 7 4 4 3 5 25 40 40 40 31
10 7 8 8 8 7 22 38 39 38 38 37 36 35 34 34
32 32 31 30 29 28 28 27 29 29 28 28 28 28 29 29
41 41 44 44 45 44 35 22 28 41 50 19 0 0 0 2
11 6 32 45 44 76 103 111 113 107 128 137 145 145 146 146
146 145 146 145 145 145 144 123 137 119 133 110 122 79 60 83
124 91 87 104 102 126 111 96 70 88 98 103 88 87 82 25
15 15 14 13 16 12 26 13 8 22 22 33 38 39 39 41
35 11 4 8 10 10 7 4 5 4 4 23 40 41 41 32
11 8 9 9 8 7 19 39 40 38 37 36 36 35 33 31
31 30 30 29 28 28 28 28 28 27 27 28 28 29 28 28
42 42 42 42 42 42 28 1 6 30 53 30 8 0 0 4
10 4 29 42 20 59 90 109 119 118 125 137 143 145 146 146
146 146 145 145 145 145 140 119 136 119 130 114 122 73 53 85
125 87 91 107 102 128 108 94 70 88 97 100 85 84 75 28
15 17 12 14 13 15 18 13 9 16 18 28 40 39 37 41
34 12 4 7 11 11 8 4 4 3 5 25 40 41 40 34
13 9 10 10 12 11 17 36 37 37 35 35 34 33 33 30
29 30 30 29 28 28 27 27 27 26 27 27 27 27 27 27
42 41 42 41 42 41 31 1 1 25 53 27 3 0 0 2
9 7 29 42 22 91 96 111 123 128 128 135 141 143 145 146
146 146 145 145 145 144 129 111 134 119 129 115 118 67 55 90
126 81 94 102 102 128 105 94 71 91 101 98 82 87 71 32
17 17 13 16 12 19 15 20 8 12 17 21 34 39 39 40
36 13 4 7 11 11 7 3 4 3 4 24 39 39 40 35
20 17 16 16 16 15 22 31 33 34 36 35 34 33 32 31
30 28 29 28 28 27 27 27 27 27 26 26 26 26 26 26
30 31 32 36 38 41 33 2 0 21 49 16 0 0 0 0
0 1 28 45 74 111 108 118 129 137 134 135 140 143 145 146
146 145 145 144 143 137 114 104 131 117 128 115 116 59 49 88
124 82 98 98 99 128 104 93 71 91 106 92 81 92 69 37
17 18 13 14 17 14 18 21 14 9 18 18 28 38 39 39
35 14 4 6 8 7 6 4 4 4 3 21 40 40 40 36
16 11 11 7 1 1 4 6 5 8 33 35 34 32 31 30
29 27 28 28 27 27 27 27 26 25 26 26 26 25 25 25
2 2 3 22 39 40 35 4 0 16 44 13 0 0 0 0
3 0 24 53 97 109 116 124 135 139 136 135 138 140 141 143
144 142 139 137 132 119 91 98 130 117 125 119 110 57 84 100
123 83 99 101 101 125 102 87 70 93 108 85 83 93 65 36
24 23 13 10 19 14 16 19 17 10 15 20 25 35 40 38
37 15 6 5 4 3 4 4 4 4 3 20 39 41 40 36
15 9 10 5 0 1 7 25 13 1 30 34 32 31 30 30
28 28 28 26 27 26 26 26 26 25 25 25 25 24 24 24
0 0 0 22 44 41 37 6 0 12 42 19 5 4 4 6
19 14 27 55 97 111 118 126 139 139 132 132 130 131 133 134
134 130 126 120 114 98 79 99 132 118 125 120 101 54 63 113
119 80 102 95 103 122 98 82 78 94 105 77 86 93 61 25
32 24 17 6 14 17 15 18 16 13 14 17 22 31 40 41
37 15 5 7 1 0 4 4 4 4 3 21 38 40 41 36
16 8 9 6 0 0 2 7 2 1 29 33 32 31 31 29
28 27 27 26 26 26 25 25 25 25 24 24 24 24 24 24
0 0 0 19 44 41 37 9 0 7 42 42 40 35 35 42
50 48 47 51 85 110 117 127 135 135 128 123 120 118 117 114
112 109 104 101 100 93 92 107 132 121 118 119 95 54 64 125
117 84 102 88 103 115 93 77 85 100 101 76 89 88 63 19
39 25 18 4 11 15 14 19 18 14 12 16 14 24 37 38
35 18 5 7 4 4 9 4 5 5 3 19 38 40 41 37
16 8 8 5 0 0 0 0 0 1 28 32 29 28 29 29
27 27 27 27 26 26 25 26 25 25 24 23 24 24 23 23
0 0 0 16 45 41 37 11 0 3 40 49 49 43 47 54
59 53 48 45 65 97 109 118 123 124 123 118 111 102 93 84
80 83 93 107 112 103 104 113 132 119 114 121 89 53 57 123
114 86 102 79 109 112 87 73 92 106 96 82 89 88 63 22
40 25 21 8 3 14 13 16 21 14 10 14 16 17 30 38
35 17 7 5 2 1 5 4 6 5 3 18 39 40 41 36
16 7 8 3 0 0 0 0 0 0 23 17 8 7 22 28
27 27 26 26 25 25 24 24 24 23 23 23 23 22 23 24
0 0 0 14 46 42 38 13 0 2 38 48 44 39 44 52
58 54 46 41 45 65 80 93 98 97 96 96 96 93 91 95
101 107 115 121 116 105 105 111 127 117 112 123 82 57 53 117
112 86 96 73 113 108 86 70 95 102 82 85 90 91 57 22
38 34 24 15 1 7 17 13 18 17 11 7 15 16 21 34
35 18 6 5 1 0 3 4 6 6 2 17 38 39 40 37
16 6 7 1 18 25 2 0 0 0 9 18 24 15 6 27
26 25 26 25 24 24 24 23 23 23 23 23 22 22 22 22
0 0 0 11 45 42 37 17 0 1 36 43 34 35 37 43
55 54 49 44 36 37 50 54 58 63 72 81 91 101 111 118
122 124 123 119 109 102 104 110 123 113 107 122 75 52 60 120
111 92 90 68 114 104 79 68 96 108 74 87 91 89 56 23
32 51 24 17 7 2 9 16 13 15 17 10 5 15 17 26
35 21 7 8 5 1 4 5 5 6 2 15 37 39 41 36
16 6 6 6 34 51 13 0 0 7 27 31 29 27 6 23
26 25 25 25 25 24 24 23 23 23 22 23 22 22 22 23
0 0 0 8 43 42 37 21 4 11 38 39 18 20 23 28
36 39 38 43 37 34 37 36 35 41 52 63 76 88 97 107
112 117 123 115 104 100 103 111 122 111 105 121 68 51 64 121
107 96 83 64 115 100 71 72 100 108 71 88 95 88 57 25
26 63 28 18 16 10 6 10 15 10 14 15 7 8 15 19
27 22 9 8 6 4 4 4 5 6 2 14 37 39 40 36
17 5 6 3 12 21 11 0 0 13 31 30 29 27 9 19
25 25 25 25 24 24 24 23 22 23 22 23 22 22 22 22
0 0 0 6 42 42 37 31 27 35 45 37 4 0 1 2
7 14 20 41 41 44 49 45 54 53 38 31 39 52 66 80
93 103 108 104 99 100 100 110 120 113 104 121 68 53 69 123
103 98 76 70 111 94 68 78 102 103 67 93 98 88 61 29
29 56 37 19 16 20 13 7 10 9 8 12 16 13 12 16
21 22 11 7 8 4 4 3 4 6 3 13 36 39 40 36
21 9 10 2 2 1 1 0 0 12 31 30 28 27 11 18
25 25 25 25 24 24 23 23 23 22 22 22 23 23 23 22
0 0 0 4 40 43 38 39 49 51 54 39 2 0 0 0
0 2 16 45 40 47 52 43 54 59 31 7 7 8 13 25
47 69 86 92 96 101 105 112 117 114 106 116 68 54 72 118
100 96 68 73 110 92 64 80 104 99 64 94 97 88 62 30
30 44 49 32 19 11 21 19 18 13 13 15 14 10 15 19
18 22 15 9 7 6 5 3 4 6 2 13 36 39 40 37
31 21 13 4 0 0 0 0 0 8 30 29 28 27 12 22
25 24 24 24 23 24 24 24 24 23 24 23 23 23 22 22
0 0 0 3 38 43 37 40 51 53 56 45 4 0 0 0
0 0 9 46 40 44 46 19 20 34 24 0 0 0 0 0
20 48 50 67 88 98 108 113 116 115 104 112 69 57 75 114
95 90 68 76 108 84 59 81 105 93 63 89 96 86 62 37
30 33 55 33 35 29 21 24 29 29 29 31 30 26 19 13
15 19 20 15 9 7 6 5 5 5 2 12 36 37 39 37
37 16 16 27 3 0 0 0 0 8 31 29 28 26 11 24
26 25 25 25 25 24 24 24 23 24 24 22 22 22 22 22
0 0 0 1 35 43 36 37 44 44 43 34 3 0 0 0
0 0 8 46 39 44 44 7 3 23 25 0 0 0 0 0
15 46 44 29 49 85 104 113 114 113 101 109 71 64 77 107
92 83 66 77 104 82 60 84 107 89 62 90 94 82 62 42
32 34 60 36 35 40 43 52 50 42 38 42 45 45 50 52
43 36 31 24 14 8 6 5 4 5 2 11 34 38 39 39
38 20 26 42 12 0 0 0 0 6 27 26 25 13 13 23
16 15 23 25 24 23 23 23 24 22 22 22 21 22 21 22
0 0 0 1 32 43 36 33 24 22 23 13 0 0 0 0
0 0 10 47 39 45 45 8 3 22 27 0 0 0 0 0
12 44 39 21 18 45 88 108 112 110 106 108 75 67 84 99
89 78 65 81 99 82 58 89 110 87 66 92 94 79 63 50
40 36 56 45 41 40 48 51 49 54 53 53 54 56 60 56
54 58 60 63 55 38 22 14 7 4 1 8 28 29 27 24
21 8 4 9 2 0 0 0 0 0 3 3 2 0 9 15
12 29 20 24 24 24 24 23 24 23 22 22 22 22 22 23
0 0 0 0 30 43 36 32 22 20 23 10 0 0 0 0
0 0 10 47 39 45 44 8 3 20 28 1 0 0 0 0
9 39 28 24 17 19 55 96 111 108 106 105 75 74 86 94
86 74 64 84 94 85 59 93 105 87 66 93 92 77 63 61
51 46 52 50 43 49 49 54 54 49 43 40 35 33 35 42
43 43 38 34 33 30 31 29 17 5 0 0 1 1 0 0
0 0 0 0 0 0 0 0 0 0 1 0 0 0 5 13
83 105 44 23 24 23 24 23 24 23 22 22 22 23 22 23
0 0 0 0 28 43 36 33 25 23 25 10 0 0 0 0
3 0 7 46 39 45 44 8 4 19 28 3 0 0 1 2
8 27 25 19 20 17 27 82 105 108 108 103 73 78 83 87
82 71 67 87 91 91 56 96 104 82 66 95 91 71 62 74
66 60 58 57 49 52 55 50 40 27 24 24 25 24 21 18
16 19 22 25 26 21 18 16 15 14 4 2 3 5 5 6
7 8 8 8 10 11 13 15 16 15 14 6 0 1 13 16
75 77 46 9 9 15 25 24 24 25 23 23 23 23 23 24
0 0 0 0 28 44 37 34 29 26 27 11 0 0 0 0
6 1 5 45 40 47 45 15 7 18 30 9 5 1 5 6
10 25 23 17 19 16 23 73 98 106 108 103 72 79 86 85
82 71 67 91 91 90 57 100 100 80 71 90 87 69 63 80
83 82 74 66 64 70 70 72 38 17 18 21 18 14 23 27
24 25 24 21 20 22 19 18 19 17 16 17 18 19 18 18
18 18 18 17 18 19 19 20 20 19 16 7 0 0 0 0
0 0 2 6 3 14 29 28 29 28 27 26 27 26 27 26
0 0 0 0 26 44 37 34 29 27 28 11 1 5 0 0
13 12 5 44 42 48 46 26 14 16 30 11 10 9 9 6
19 27 19 16 17 17 22 72 96 103 108 102 73 80 84 84
80 71 70 95 90 85 60 102 99 77 74 81 82 67 65 87
97 103 97 83 85 106 113 112 42 12 14 12 17 20 26 31
30 30 33 33 34 36 34 33 30 36 33 25 21 23 21 21
21 19 20 20 20 21 21 21 21 20 17 7 0 0 0 0
0 0 2 6 4 13 24 22 21 19 17 16 16 14 13 12
0 0 0 0 23 43 36 34 30 28 28 15 4 8 1 2
16 23 13 42 44 49 44 27 24 17 28 6 13 15 11 7
26 24 16 19 14 15 20 68 98 104 106 102 74 76 81 83
78 70 70 98 89 82 65 104 93 75 73 76 78 63 64 84
97 110 114 98 92 124 130 118 43 21 20 14 17 16 26 33
32 33 32 33 36 37 39 47 47 40 34 31 27 21 21 24
22 20 20 21 22 23 23 23 22 21 18 8 0 0 0 0
0 0 0 3 24 29 29 30 30 31 32 34 35 36 37 38
0 0 0 0 23 43 36 33 31 29 30 30 25 30 29 29
37 43 41 53 48 49 43 20 30 20 31 17 20 21 21 24
31 25 15 21 14 16 24 62 102 106 105 101 75 70 80 82
76 71 70 100 96 83 63 108 89 72 70 73 72 62 69 82
93 109 113 107 95 133 140 117 37 20 21 18 18 21 29 35
37 39 43 40 43 44 47 45 37 30 34 33 25 25 25 21
19 23 23 23 24 25 25 24 23 21 20 9 0 0 0 0
0 0 0 8 45 45 46 46 45 45 45 44 45 45 45 45
0 0 0 0 20 42 36 33 31 30 29 41 49 51 52 53
57 62 63 65 54 49 42 11 23 22 35 31 31 28 25 25
32 26 16 22 15 17 24 58 103 106 107 103 77 66 80 83
75 72 73 102 96 84 68 108 88 66 70 69 65 58 72 90
96 108 116 117 98 136 143 111 34 15 12 10 12 11 17 27
33 32 29 31 33 33 34 36 36 29 29 31 29 26 28 31
35 32 30 26 25 26 26 26 24 22 21 9 0 0 0 0
0 0 0 10 45 45 45 45 45 45 44 44 44 44 45 45
0 0 0 0 17 42 35 32 31 30 29 40 54 54 54 55
59 62 63 63 59 49 42 7 11 17 31 33 30 23 23 27
32 24 18 21 17 19 27 49 104 105 110 109 84 62 81 82
75 73 72 102 94 86 70 107 84 63 66 62 60 57 73 86
101 120 122 120 94 130 143 105 35 24 23 18 20 20 29 32
28 21 19 25 29 41 44 35 24 22 22 27 32 31 32 32
33 35 33 30 29 26 27 26 25 23 22 9 0 0 0 0
0 0 0 12 46 45 45 45 44 44 44 44 44 44 44 44
0 0 0 0 16 41 34 31 30 30 28 29 38 37 37 38
40 43 44 43 41 43 42 9 9 21 31 20 15 16 25 30
32 21 21 21 19 20 26 38 107 104 111 113 96 75 81 85
75 73 75 106 95 90 72 106 78 60 61 57 57 57 81 91
94 114 119 124 99 127 142 95 31 29 36 31 25 22 27 31
33 31 31 38 42 40 30 26 20 16 16 27 33 32 30 28
33 32 33 30 27 27 26 25 24 23 22 8 0 0 4 8
0 0 0 14 45 45 45 44 44 45 44 44 44 44 44 44
0 0 0 0 16 40 34 31 30 30 28 23 21 20 20 20
24 29 31 32 30 40 42 15 20 23 15 12 15 20 28 33
35 21 23 22 20 21 28 36 109 104 113 119 105 93 84 83
78 76 74 107 94 89 73 104 71 57 58 52 52 49 89 95
97 118 123 127 101 125 136 88 19 17 18 16 15 15 25 24
23 21 25 26 30 31 26 23 16 13 14 24 34 31 27 28
33 31 34 29 27 22 24 24 24 23 23 8 0 0 33 41
5 0 0 18 46 44 45 45 44 44 44 44 43 43 43 43
0 0 0 0 14 38 33 30 29 30 29 25 22 21 21 22
24 29 32 33 31 41 43 24 20 9 9 10 10 20 30 33
37 20 24 23 25 23 31 30 110 104 114 119 110 101 89 82
82 79 71 105 98 90 74 100 64 56 57 50 46 42 88 97
101 120 125 128 106 132 129 71 15 14 15 12 18 12 18 16
16 20 20 28 28 26 21 18 12 15 17 24 31 27 26 31
32 30 30 30 26 25 21 24 24 23 23 7 0 0 15 16
0 0 0 21 46 45 44 44 44 44 43 44 44 44 44 43
0 0 0 0 14 39 33 29 29 29 29 28 27 26 25 25
28 31 33 34 35 38 33 25 19 13 11 10 15 23 33 34
40 22 30 26 28 24 30 25 106 105 119 121 112 107 94 82
84 85 70 109 103 90 71 97 56 55 57 47 40 40 76 92
99 120 125 133 111 133 118 40 10 14 18 11 14 13 16 15
21 20 19 27 26 25 20 14 15 18 19 24 26 28 26 32
31 21 15 26 27 29 24 24 25 24 24 6 0 0 0 0
0 0 0 23 45 44 44 43 43 43 43 43 43 43 44 43
0 0 1 1 18 39 33 29 29 29 29 29 27 26 27 28
29 34 36 35 29 27 25 25 26 24 22 21 24 30 34 38
44 27 35 32 31 26 29 25 101 98 124 122 112 113 99 83
87 90 68 108 105 89 71 94 55 55 51 45 41 42 61 91
101 120 124 131 112 116 83 19 8 10 13 9 13 13 17 17
22 19 23 26 23 23 20 9 14 17 18 23 25 24 27 34
24 17 14 24 26 30 27 21 24 23 23 5 0 0 1 0
0 0 0 27 45 44 43 43 44 44 43 43 43 43 43 43
16 18 20 21 27 32 30 29 29 28 29 28 27 26 26 27
30 33 35 28 24 25 25 16 8 12 12 18 28 35 33 42
48 29 39 36 35 29 28 18 91 78 125 123 111 117 103 84
87 94 68 104 106 84 71 91 53 56 49 48 47 45 52 78
98 117 122 127 111 74 33 20 14 14 15 10 10 8 16 20
17 18 25 25 24 20 18 10 17 19 18 25 22 28 35 33
20 16 16 21 25 29 29 21 20 24 23 5 0 0 0 0
0 0 0 29 44 43 43 43 43 43 43 43 43 43 43 43
25 26 27 27 27 28 29 29 27 28 29 28 27 27 27 27
29 32 30 27 26 22 15 11 11 12 19 19 33 36 36 44
49 31 42 40 38 35 27 12 77 66 112 121 111 117 108 88
85 96 73 105 109 83 73 89 53 55 48 48 50 52 53 64
97 113 114 106 60 44 20 15 15 14 13 8 10 9 17 18
14 19 21 23 24 13 15 12 17 19 18 20 21 30 35 29
17 14 18 21 24 25 25 22 19 24 23 5 0 0 0 0
0 0 0 25 44 43 43 43 43 43 43 42 42 42 43 43
24 26 27 27 27 28 29 29 28 27 28 28 28 27 27 28
29 29 29 28 27 21 22 24 17 20 20 21 38 40 39 46
50 35 46 43 43 39 27 9 66 68 97 115 110 115 112 91
86 95 77 99 114 81 84 89 57 55 52 50 50 64 61 57
91 105 72 33 28 46 20 14 15 16 16 10 13 12 19 15
18 25 23 22 19 17 14 12 15 20 22 18 25 29 31 22
14 12 17 20 24 22 26 26 19 24 24 4 0 0 0 0
0 0 0 14 41 43 43 43 43 43 43 42 42 43 43 43
24 24 24 25 25 26 25 25 27 28 28 28 28 27 28 26
30 30 29 29 26 23 17 14 13 19 23 27 40 42 42 52
52 40 50 43 47 42 27 7 50 79 79 109 86 97 117 95
89 92 84 95 115 82 92 83 61 60 55 49 50 64 86 53
66 31 20 14 25 47 18 13 13 15 17 7 12 10 20 22
23 20 18 23 16 20 10 11 18 20 20 17 23 24 28 16
13 13 17 18 24 22 24 27 20 26 26 5 0 0 0 0
0 0 1 22 28 42 43 43 42 43 43 43 42 42 43 43
10 9 9 13 17 20 20 20 27 27 27 27 27 28 26 25
30 32 32 30 28 24 24 16 13 14 15 26 43 46 45 58
53 45 49 44 50 45 30 9 37 90 65 103 78 63 105 79
87 90 86 89 116 84 94 76 65 58 58 48 51 57 61 40
66 25 14 10 14 43 24 15 13 12 17 6 13 19 20 21
22 18 17 20 15 20 9 13 17 18 16 19 22 19 20 14
10 13 18 18 25 23 25 25 20 25 26 5 0 7 22 8
0 0 2 36 20 37 43 42 43 43 43 42 42 42 42 42
0 0 0 8 15 21 23 22 26 27 27 27 27 26 24 22
29 29 30 29 25 22 23 16 12 14 15 32 45 49 47 63
55 53 48 42 54 49 33 11 26 93 44 101 78 50 92 31
30 71 91 88 118 84 96 76 69 62 63 48 56 41 24 19
60 48 11 10 12 55 60 63 77 61 68 78 78 83 81 25
20 13 18 18 14 17 6 13 16 15 16 19 18 18 17 13
7 16 17 19 26 22 25 22 20 21 29 5 1 89 137 68
0 0 3 39 32 23 41 42 42 42 42 42 41 42 41 42
0 0 0 9 13 20 24 24 25 26 26 26 27 24 26 19
27 29 25 24 23 19 20 16 13 16 17 36 47 49 47 72
58 58 46 43 58 52 35 11 18 98 30 104 75 44 91 25
9 52 92 82 117 83 93 74 69 64 70 47 56 35 19 12
44 58 21 9 20 69 52 24 19 13 11 7 7 6 18 35
17 16 19 16 14 14 10 13 15 14 21 19 19 18 15 13
7 16 15 16 24 25 26 22 19 22 27 3 4 114 144 66
0 0 5 41 41 22 33 42 42 41 41 41 41 41 41 42
0 1 5 10 13 20 24 25 26 27 28 28 27 24 24 22
19 28 26 21 21 17 15 14 12 11 17 39 48 51 49 76
61 59 47 42 58 56 39 14 15 91 29 103 70 42 86 25
5 35 86 75 118 82 89 74 76 67 77 49 52 33 18 14
24 52 43 6 16 44 29 8 10 11 12 5 10 6 14 51
14 19 19 14 18 12 10 10 12 16 20 19 19 19 14 10
8 13 11 19 23 23 24 18 19 19 19 8 0 27 39 9
0 0 8 41 42 29 11 25 42 42 41 41 41 41 41 41
11 13 11 11 14 19 24 26 28 30 31 27 26 22 23 20
13 26 27 20 19 16 12 13 15 13 20 43 48 52 55 77
66 55 47 41 56 57 40 17 16 79 34 95 63 46 79 23
2 20 76 67 117 84 86 76 79 71 81 49 47 31 21 14
17 38 58 9 25 69 31 11 13 14 17 6 12 11 13 34
10 20 18 13 17 9 9 10 12 16 18 20 19 17 12 8
10 14 12 17 21 25 22 19 15 13 12 11 4 0 0 0
0 0 6 32 27 5 8 5 40 41 41 41 41 41 41 41
17 17 15 15 19 21 24 26 31 31 31 26 25 22 21 15
9 23 25 19 21 18 8 13 14 13 20 43 48 50 61 76
73 47 47 41 55 57 43 20 17 67 51 86 53 52 74 23
3 16 65 66 117 82 87 79 77 70 79 53 43 24 25 16
14 23 58 19 3 40 30 5 10 10 11 1 8 10 11 36
12 21 17 12 16 7 9 8 12 14 16 18 18 15 11 8
13 11 11 17 20 25 27 23 9 6 6 12 7 0 0 0
0 0 0 8 15 24 33 5 38 40 40 40 40 40 40 40
17 17 17 17 17 17 16 17 32 32 25 18 26 22 19 12
6 20 23 20 14 22 6 11 14 12 18 44 51 51 66 72
74 45 49 43 53 58 46 25 17 52 70 74 57 54 79 28
3 14 51 62 116 81 84 81 78 74 77 56 45 19 22 27
16 14 42 38 1 47 43 38 55 73 76 75 82 89 83 31
14 20 15 11 14 8 9 10 10 14 14 15 17 12 10 7
13 11 11 17 18 23 30 19 7 5 6 7 3 0 0 0
0 0 0 1 5 16 25 3 30 40 40 40 40 40 40 40
7 7 9 9 10 10 12 13 30 33 21 15 24 21 17 15
6 13 19 20 11 19 19 9 15 11 17 44 52 50 72 71
74 45 51 45 53 57 49 27 19 39 85 64 61 55 81 36
2 14 40 61 112 78 77 86 80 73 73 58 41 18 13 36
21 9 25 42 2 29 72 59 43 31 18 8 10 8 13 13
16 18 16 12 13 8 10 13 10 15 14 14 17 12 8 6
13 11 10 13 17 25 24 11 5 7 7 5 3 0 0 0
0 0 0 0 0 0 1 0 7 28 39 39 39 39 39 39
