P2
128 120
152
39 39 38 38 37 37 36 35 36 35 34 34 33 33 33 32
31 31 31 31 30 29 29 29 28 28 27 27 26 26 25 24
24 23 23 23 22 22 21 21 20 19 17 15 14 14 15 17
18 19 20 16 12 19 24 22 20 19 18 18 16 15 13 10
10 8 8 11 14 13 13 11 13 16 17 17 18 18 19 20
20 21 21 21 21 22 22 22 23 23 24 24 25 26 25 26
26 26 27 28 28 29 29 30 31 31 32 32 32 33 33 33
34 34 34 36 34 35 35 35 35 36 36 36 35 36 36 36
39 39 38 37 37 37 36 36 35 35 35 34 34 33 32 32
32 32 31 31 30 29 29 28 28 27 27 27 26 26 25 24
24 24 23 23 23 22 21 21 20 19 18 16 15 15 15 18
20 21 22 17 10 19 25 22 20 19 19 18 17 16 14 12
11 10 9 11 14 14 12 14 16 17 17 18 19 20 20 20
21 21 21 22 23 23 24 24 25 25 25 25 25 25 25 26
27 27 29 28 30 30 31 31 32 32 32 32 33 33 33 34
34 34 34 36 35 35 35 36 36 35 36 36 36 36 36 36
39 39 38 38 37 36 36 36 35 35 35 34 34 33 33 33
33 32 32 31 30 30 29 29 28 28 28 27 27 26 26 26
25 25 24 24 23 23 22 22 21 20 19 18 17 16 17 21
23 23 24 18 9 18 25 23 22 21 20 19 18 17 16 14
16 13 10 10 14 14 14 15 17 18 19 20 21 21 22 22
22 23 23 23 24 24 24 25 25 25 25 25 26 27 28 29
29 30 31 30 31 30 32 32 32 33 33 32 33 34 34 34
35 34 35 37 35 35 35 36 35 36 37 36 37 37 37 37
39 39 38 38 37 37 37 36 36 36 35 35 34 34 34 33
33 32 32 31 31 30 30 29 29 29 29 28 27 26 27 26
25 25 25 24 24 24 23 23 22 21 20 19 18 18 18 22
24 24 25 19 11 19 26 24 23 22 21 20 19 18 16 17
18 15 11 9 16 14 16 18 19 20 21 21 23 22 23 23
23 24 24 25 25 25 25 25 26 26 27 27 28 28 28 29
29 30 32 31 31 32 32 33 33 33 34 34 34 33 34 34
35 35 36 37 36 36 36 36 37 37 37 37 37 36 36 36
39 38 39 38 38 37 37 37 37 36 36 36 35 34 35 34
33 33 32 32 31 31 30 29 29 29 29 28 28 27 27 27
26 26 25 25 25 24 24 23 22 22 21 21 20 19 20 25
26 26 26 20 12 18 27 25 23 23 22 21 20 19 17 17
18 17 13 10 17 15 18 19 21 21 22 22 23 24 24 24
25 25 25 25 25 25 26 27 27 27 28 28 29 29 30 30
31 31 33 32 32 32 32 33 33 33 33 33 34 34 35 35
36 36 35 38 35 36 37 36 36 36 36 36 36 36 38 37
40 39 38 37 38 38 36 36 36 36 35 36 35 35 34 34
33 32 32 32 32 31 31 30 30 29 29 29 28 28 27 27
26 26 25 25 25 24 23 23 22 22 22 21 21 21 21 25
26 26 26 20 13 18 27 26 24 23 22 22 21 20 18 18
18 18 15 11 17 16 19 21 22 22 23 24 24 25 25 24
24 25 25 26 27 27 27 27 28 28 29 29 30 30 29 30
31 31 32 31 32 32 33 33 33 34 34 35 34 35 36 35
35 36 36 37 36 36 36 35 35 36 36 37 37 37 37 37
39 38 38 38 38 38 37 37 37 36 36 35 35 35 34 34
34 34 33 32 32 31 31 31 30 30 30 29 29 28 28 27
27 26 26 26 25 24 24 24 23 23 22 22 22 23 23 26
27 27 27 21 14 17 28 25 24 23 23 22 22 21 20 20
19 19 17 13 18 17 21 22 23 23 23 23 24 24 25 25
26 26 27 27 27 27 28 28 28 29 29 30 30 30 31 31
31 32 33 32 32 32 33 33 34 34 34 34 35 35 36 36
36 36 35 35 34 36 37 36 37 37 37 37 37 37 37 38
40 39 39 39 38 39 37 37 37 37 36 36 35 34 34 33
33 33 33 33 32 32 31 31 30 30 30 29 29 29 28 27
27 26 26 26 26 26 25 24 24 23 23 23 22 24 23 27
28 28 27 22 16 17 28 26 24 24 23 23 23 22 21 20
20 20 18 14 19 19 22 24 23 23 24 24 25 26 26 26
26 27 28 27 28 28 28 29 29 29 30 30 30 30 31 31
31 32 33 33 33 33 34 34 35 35 34 34 36 36 35 35
34 35 36 36 36 37 36 37 36 36 36 36 37 37 37 38
40 39 39 39 38 38 37 37 37 37 36 36 36 35 35 35
34 33 33 33 32 32 32 31 30 31 30 29 30 29 28 28
27 27 27 26 26 25 25 24 24 24 23 23 24 24 25 28
29 29 28 22 17 16 27 26 25 24 24 23 23 23 23 21
20 20 19 15 19 18 23 23 24 24 25 25 26 26 26 26
27 28 28 28 28 29 29 29 29 29 30 30 30 30 31 31
32 32 34 33 33 34 34 35 35 34 34 32 34 35 35 36
37 36 37 36 36 37 37 36 36 37 37 37 37 38 38 38
40 40 39 39 39 38 37 37 37 36 36 35 35 35 35 35
34 34 33 33 33 33 32 32 32 31 31 30 30 29 29 28
28 27 27 26 26 26 25 25 25 24 24 23 24 24 25 28
29 29 28 23 19 15 27 27 25 25 25 24 24 23 22 22
21 20 20 17 21 20 24 25 25 25 26 26 26 27 27 27
27 28 28 28 29 30 30 29 30 30 30 31 31 32 32 32
33 33 34 34 34 33 33 33 33 34 35 36 35 36 36 36
36 36 36 36 36 36 37 37 37 38 38 38 38 39 38 39
40 39 39 39 39 38 38 37 37 37 37 36 37 36 36 35
35 35 34 34 34 33 33 32 32 31 31 30 30 29 29 29
29 28 28 28 27 27 26 25 25 25 25 24 25 25 27 29
29 30 29 24 19 16 27 28 25 24 26 25 25 24 24 23
23 22 21 19 22 22 25 25 26 26 26 27 27 27 28 28
28 29 30 29 29 29 30 30 30 30 31 31 32 32 33 33
33 33 34 33 33 33 33 35 36 36 36 37 36 36 36 37
37 37 37 37 37 37 38 38 38 38 38 38 38 38 38 38
40 40 40 39 39 39 39 37 38 37 37 36 36 36 36 36
35 35 34 34 34 33 33 33 32 32 32 31 31 30 29 29
29 28 28 28 28 27 27 26 26 25 25 25 25 26 27 30
30 31 30 25 21 13 22 28 26 26 26 26 25 24 25 23
24 23 22 19 23 23 26 26 27 27 27 28 28 29 28 29
29 30 30 30 30 30 30 30 31 31 32 32 32 32 33 33
32 31 32 33 34 35 35 36 36 36 37 38 36 37 37 37
37 37 37 37 37 38 38 38 38 38 39 38 38 39 38 38
40 40 40 39 39 39 38 38 38 38 37 37 37 36 37 37
36 35 35 34 34 34 33 32 32 32 32 31 31 30 29 30
29 29 29 29 29 27 28 27 27 26 26 26 26 26 28 30
31 31 31 24 18 10 23 29 28 27 28 27 26 25 26 24
24 23 23 20 24 24 27 27 27 27 28 28 29 29 29 29
29 29 30 31 30 31 31 31 32 32 32 31 32 31 32 33
34 34 35 35 35 35 35 36 36 36 37 38 37 37 37 37
38 37 38 38 38 38 38 39 38 39 39 38 38 39 38 38
40 40 40 39 39 39 38 38 38 38 38 38 37 37 37 36
36 36 36 35 35 35 34 33 33 33 32 32 32 31 30 30
30 29 29 29 29 28 27 28 27 26 26 26 26 26 28 32
32 32 31 26 21 19 26 31 29 28 28 28 27 26 27 25
25 25 24 21 25 25 28 27 28 28 28 29 29 29 29 30
30 30 31 31 31 32 31 31 32 32 32 32 33 34 34 34
35 35 36 35 36 36 36 36 36 37 37 38 38 37 38 38
38 38 38 38 38 38 38 38 38 39 40 39 38 39 39 39
40 40 40 39 39 39 38 38 38 38 38 38 37 37 36 36
36 36 35 35 35 34 34 33 33 32 33 32 32 31 31 31
31 30 29 29 29 29 28 27 27 27 26 26 26 27 28 32
32 32 32 26 21 21 25 32 29 29 28 27 28 26 27 26
25 25 24 22 26 26 28 28 28 29 29 29 30 29 30 30
31 31 31 31 31 31 32 32 32 32 34 33 34 33 35 34
35 35 36 36 36 36 37 37 36 37 36 38 38 37 38 38
38 39 38 38 39 38 38 38 38 39 39 39 39 39 39 39
40 40 40 39 39 38 39 39 39 38 38 38 38 37 37 37
36 35 36 35 35 35 34 34 34 33 33 33 32 32 31 31
31 30 30 30 29 29 28 28 28 27 27 27 27 28 29 33
32 33 32 27 21 24 24 31 30 29 29 28 27 27 28 26
25 25 25 22 27 26 29 29 30 29 30 30 30 30 31 30
30 31 31 31 31 31 32 32 33 33 34 34 34 34 35 35
34 35 35 36 36 36 37 37 37 37 37 38 38 38 38 38
38 38 39 39 39 38 38 39 38 39 40 39 39 39 38 39
40 40 40 40 39 40 39 39 39 38 39 38 37 38 37 37
36 36 36 35 35 35 35 34 34 33 33 33 33 33 32 32
32 31 30 30 29 29 29 29 28 28 28 28 27 28 29 33
33 33 33 27 23 25 24 31 31 29 30 29 28 27 28 27
26 26 26 23 28 27 29 29 30 30 30 31 30 30 30 30
31 31 32 32 33 33 34 33 34 34 35 34 34 35 35 35
35 36 36 36 36 36 37 37 38 38 38 39 39 38 39 39
38 39 39 39 39 38 39 39 39 39 39 38 39 39 39 40
40 40 40 40 40 39 40 39 39 38 38 38 38 38 37 37
37 37 37 36 36 35 35 34 35 35 34 34 33 33 32 32
31 31 30 30 30 30 29 28 29 28 28 28 28 29 30 34
34 34 34 28 23 27 23 31 31 30 30 29 28 28 29 27
26 26 26 24 28 27 30 30 30 30 30 30 31 31 31 32
31 32 32 32 33 33 34 34 34 34 35 35 35 35 36 36
36 36 36 36 36 36 37 38 37 38 38 39 39 38 38 38
39 39 39 39 39 39 39 39 39 39 40 39 39 39 39 40
41 40 40 40 40 40 39 39 39 38 39 38 38 37 37 37
37 37 36 36 36 36 36 35 35 35 35 34 34 33 33 33
32 31 31 31 31 30 29 29 28 28 28 29 28 29 30 34
34 34 34 28 23 27 23 31 31 31 30 30 29 29 30 28
28 28 27 24 28 27 29 30 30 29 30 31 31 32 32 32
32 32 33 33 33 34 34 34 35 35 35 35 35 36 36 36
36 36 36 36 37 37 38 38 38 38 38 39 39 39 38 40
39 39 39 38 38 38 38 39 39 38 39 39 39 39 39 39
40 41 40 40 40 39 40 39 39 39 39 38 39 38 37 37
37 37 37 36 36 35 36 35 35 35 35 34 34 33 32 33
33 31 31 31 31 30 30 29 29 29 29 29 29 30 31 34
35 35 34 28 23 28 24 31 31 31 31 30 30 29 31 29
28 28 27 24 28 26 30 30 30 31 31 33 32 32 33 33
32 33 33 33 33 33 34 35 35 34 36 35 36 36 36 36
37 37 38 37 38 38 38 38 38 38 38 38 39 39 38 38
38 38 39 39 39 38 39 39 39 39 40 39 39 39 41 39
41 41 40 40 40 40 40 39 39 39 39 39 38 37 38 37
38 37 37 37 37 37 36 36 35 36 35 34 34 34 33 33
33 32 32 31 31 31 30 30 30 29 29 29 30 30 31 34
36 35 35 29 24 30 25 31 33 32 31 31 30 29 32 29
29 28 28 25 29 28 31 31 31 31 32 32 32 33 33 33
34 33 34 34 34 34 35 35 35 35 36 36 36 36 37 37
37 36 37 38 38 38 39 39 39 38 37 37 37 38 38 39
39 39 39 39 41 38 39 39 39 39 39 39 39 40 40 39
40 40 40 40 40 40 39 39 40 39 39 39 39 39 38 38
38 38 38 37 37 37 37 36 36 36 35 35 35 34 34 33
33 32 32 32 32 31 31 31 31 30 30 29 30 30 32 35
36 36 35 30 24 30 26 31 32 32 32 32 31 30 32 30
29 28 28 26 29 29 32 32 32 33 33 33 33 33 34 34
34 34 35 35 35 35 35 36 36 36 36 37 36 37 37 37
38 38 38 39 39 38 38 38 37 38 39 39 39 39 40 39
39 39 39 40 42 39 39 40 40 40 40 40 39 40 40 40
41 41 40 40 40 40 39 39 38 39 38 38 38 38 38 38
38 37 38 37 37 37 37 36 36 35 35 35 34 34 34 34
33 33 32 33 32 31 31 31 31 30 30 30 30 31 31 35
36 35 36 30 24 31 28 30 32 33 32 32 31 30 31 30
29 29 28 26 29 29 32 32 33 32 33 33 33 33 34 34
34 34 34 34 35 35 36 35 36 36 36 37 37 37 37 37
37 37 37 38 38 39 39 39 39 39 39 39 39 39 39 39
39 39 39 39 41 39 39 39 39 39 39 40 39 40 40 39
40 40 40 39 40 40 40 39 39 39 39 39 39 38 39 39
38 38 37 37 37 37 36 36 36 36 35 35 35 35 34 34
34 33 33 33 33 32 32 31 31 31 31 30 30 31 32 36
36 36 36 31 25 30 29 29 32 32 33 32 31 31 31 30
29 29 29 26 29 29 32 32 32 33 34 34 34 34 34 34
34 34 35 35 35 35 36 36 36 37 37 37 37 37 37 37
37 38 38 39 39 40 39 39 40 39 40 39 39 40 40 40
39 40 40 41 41 40 40 40 39 39 40 39 39 39 40 39
41 41 40 40 40 40 40 39 39 39 38 39 39 39 39 39
37 38 38 38 37 37 37 37 37 36 36 35 35 35 34 35
34 33 34 33 33 32 32 32 32 31 31 31 31 31 33 37
37 38 37 32 25 31 31 28 34 34 34 32 32 31 30 30
29 30 29 27 30 29 32 34 34 34 34 34 34 35 35 35
35 35 35 35 36 36 36 36 37 36 37 36 37 38 38 38
38 38 39 40 39 39 40 40 40 40 40 40 40 39 40 40
40 40 40 40 41 40 39 40 40 40 40 39 40 40 40 40
41 40 40 40 40 39 39 39 39 40 39 39 39 39 39 38
38 38 37 38 38 37 36 36 36 36 36 36 35 36 35 35
34 33 33 32 32 32 32 32 31 31 30 31 31 31 33 36
38 38 37 31 25 31 33 27 34 34 33 32 32 32 30 31
30 30 30 27 30 29 33 34 34 33 33 34 34 34 35 35
35 35 35 35 35 36 36 36 37 36 37 37 37 38 38 38
38 39 39 40 39 39 39 40 40 40 39 40 40 40 40 40
40 40 40 40 40 40 40 40 40 39 40 40 40 39 39 40
40 40 41 40 40 40 40 40 40 39 39 39 39 39 39 38
38 38 38 38 38 37 37 37 37 37 37 36 36 35 35 35
35 34 33 34 34 33 33 32 31 31 31 32 31 33 33 37
38 38 37 32 26 32 35 27 34 34 33 33 33 32 30 31
30 30 30 28 30 30 33 34 35 34 34 35 35 35 35 35
35 35 35 36 36 36 37 36 37 37 37 37 37 38 38 39
39 39 39 41 40 40 40 40 40 40 41 41 40 40 40 40
40 40 40 39 40 40 40 39 40 40 40 40 40 41 40 40
40 40 40 40 40 40 40 40 40 40 39 39 39 39 39 39
38 38 38 38 38 37 37 37 37 36 37 36 36 36 36 35
35 35 34 34 33 32 33 33 32 31 32 32 32 33 34 37
38 38 38 33 26 31 36 27 34 34 33 33 32 32 31 32
31 31 31 28 30 30 33 34 34 34 34 34 34 34 35 34
34 35 35 37 36 36 37 37 37 37 37 38 38 38 38 38
39 39 40 40 40 39 39 40 40 41 40 40 40 40 40 40
41 40 40 40 40 40 39 39 40 40 39 40 40 39 39 38
41 40 40 40 40 40 40 40 39 40 39 39 39 39 39 39
39 38 38 37 38 38 38 38 38 37 37 37 37 36 36 35
35 35 34 33 33 33 33 33 32 31 32 33 33 33 34 37
39 39 38 33 25 32 38 27 34 35 34 33 33 33 31 32
31 31 31 29 30 30 34 34 35 34 34 34 34 35 35 35
35 36 36 37 36 36 37 37 37 37 38 39 38 39 38 39
40 40 40 40 40 40 41 40 41 40 40 40 40 40 40 40
40 40 40 40 41 40 40 40 40 40 39 39 39 40 40 40
41 41 41 41 40 40 40 40 39 39 39 40 39 39 39 39
38 38 38 38 37 38 38 38 38 37 37 37 36 37 36 36
35 35 34 34 34 34 34 33 32 33 32 32 32 33 34 37
39 39 38 34 25 31 38 29 33 35 34 34 34 33 32 32
31 32 32 29 30 31 33 34 34 34 35 35 35 35 36 35
36 36 36 38 37 37 37 38 37 38 38 38 39 38 39 39
39 40 40 40 41 40 40 41 41 41 40 40 40 41 40 40
40 40 41 41 40 39 37 38 39 39 39 39 41 40 41 39
42 41 41 40 40 41 40 40 40 40 40 40 40 39 39 39
39 39 39 39 38 39 38 38 38 38 37 37 37 38 36 35
35 35 34 34 35 35 34 34 35 34 33 33 33 34 35 38
39 39 39 35 26 32 40 30 32 35 35 35 34 34 33 33
32 33 32 29 30 32 34 35 35 35 36 36 35 36 36 36
37 36 37 38 37 37 38 38 38 39 38 39 39 40 40 40
40 40 40 41 41 40 41 41 41 40 41 41 40 40 40 40
40 39 39 39 39 38 39 40 40 40 40 39 41 40 42 40
35 38 41 41 41 40 40 40 40 40 40 40 40 40 40 40
40 39 39 40 39 39 39 38 38 38 38 37 38 38 38 37
36 36 35 36 35 35 35 35 34 35 34 33 34 34 35 38
41 40 40 35 26 33 41 33 32 36 36 35 35 34 33 33
32 33 32 31 30 33 35 36 35 35 36 36 36 36 37 37
37 38 38 39 38 38 38 38 39 39 39 39 40 40 40 39
40 40 41 41 42 41 41 41 41 41 41 41 41 39 38 38
39 39 40 41 41 40 40 40 40 41 41 39 40 39 41 39
16 26 41 41 41 41 41 40 40 41 41 40 41 41 41 40
41 40 40 40 40 39 39 39 39 38 38 38 39 37 38 38
37 36 36 37 36 36 36 38 37 36 36 37 36 35 36 39
40 39 39 35 26 32 41 34 31 37 36 36 35 35 34 34
33 34 33 31 31 34 35 36 36 36 37 37 37 37 38 37
37 38 38 39 39 39 39 39 39 39 40 40 40 40 41 41
42 42 42 42 42 41 41 41 41 40 40 40 41 40 41 41
41 41 41 40 41 40 41 40 40 41 41 41 41 40 41 40
15 25 41 42 42 41 41 41 40 40 40 41 41 41 41 40
41 40 40 40 40 40 39 39 38 39 41 41 40 38 38 39
38 36 37 35 32 35 37 37 40 45 53 56 55 54 46 42
41 39 40 36 27 33 42 36 30 37 36 36 36 34 34 35
33 34 33 32 31 34 35 37 36 36 37 37 38 37 38 38
37 38 38 39 40 39 39 39 39 39 40 39 40 41 40 40
41 41 41 40 41 40 40 41 41 41 41 40 41 41 40 40
41 41 41 41 41 41 41 40 41 41 41 41 40 40 41 40
17 24 40 42 42 42 42 41 40 41 42 42 43 42 41 41
41 41 40 40 40 40 40 40 39 40 45 40 44 42 39 37
35 32 32 32 24 30 28 27 28 28 33 32 32 41 54 57
51 41 40 36 28 34 42 38 28 37 37 37 36 36 35 35
34 34 34 32 31 35 35 37 37 37 38 38 38 38 38 38
39 39 39 40 40 39 39 39 40 40 40 40 41 41 41 41
41 41 41 41 41 41 41 41 41 40 41 40 41 42 41 41
42 42 42 42 42 41 40 41 41 40 41 40 40 40 40 41
17 24 41 41 42 42 42 41 43 51 50 48 47 44 43 42
40 41 41 41 40 41 40 39 40 42 44 43 47 43 35 35
30 23 28 31 23 25 30 25 25 26 27 22 21 25 25 30
43 54 44 38 28 33 42 40 28 37 37 37 36 36 35 36
34 34 34 32 31 36 36 38 37 37 38 38 38 38 38 39
39 38 39 41 41 40 40 39 40 40 41 41 41 40 40 41
42 41 41 41 42 41 41 41 41 41 41 40 41 42 41 41
42 41 41 41 40 41 41 40 41 40 41 41 41 40 41 41
19 26 41 43 42 42 42 42 44 54 53 53 52 49 47 46
45 43 42 41 41 41 40 42 42 43 43 40 35 28 22 32
29 21 30 32 30 26 33 24 24 26 26 26 21 22 26 27
29 33 51 44 30 33 41 41 27 36 37 37 36 36 35 36
34 35 35 33 32 35 36 38 38 38 38 38 38 38 38 38
39 39 39 39 40 39 39 39 40 40 41 42 42 40 41 41
41 41 42 41 41 40 40 40 40 40 40 40 41 42 41 41
41 41 41 41 40 41 41 41 41 41 40 41 41 40 39 41
19 29 46 45 44 44 43 42 44 54 54 53 49 49 50 51
53 48 47 46 44 43 42 43 40 38 33 29 32 29 20 34
33 23 31 31 35 30 36 29 25 26 29 27 23 23 26 30
31 27 33 44 39 28 34 41 28 35 38 37 36 36 35 36
34 34 35 34 32 36 36 38 38 38 38 38 39 39 38 39
38 38 38 39 40 40 40 40 40 40 40 41 42 40 41 41
41 41 41 41 41 41 41 41 41 41 41 41 41 42 41 41
41 41 41 40 41 41 41 40 40 40 40 41 41 41 40 41
19 30 48 47 45 46 45 45 45 47 42 48 49 51 53 54
55 47 43 46 49 48 47 46 40 35 32 30 34 30 22 36
38 25 33 32 39 32 38 31 30 27 32 29 26 25 25 29
30 29 31 36 47 34 28 41 28 33 38 37 37 36 35 36
34 35 34 34 33 36 36 39 38 38 38 38 38 38 38 38
38 38 39 39 40 40 40 40 40 39 40 41 42 41 41 41
41 41 41 40 40 40 40 40 41 40 41 41 42 43 41 41
41 41 41 41 41 42 41 40 40 40 40 40 41 41 41 41
19 30 48 46 40 41 46 50 52 31 3 11 29 40 45 48
51 44 13 22 40 50 50 42 38 39 35 32 40 34 28 34
43 26 38 35 41 36 40 33 32 30 33 33 28 28 27 28
33 31 29 35 47 52 43 42 31 32 38 37 36 36 35 37
34 35 35 34 32 36 35 38 37 38 38 37 38 38 38 39
39 38 39 39 39 39 39 39 40 40 40 41 42 40 41 42
40 40 41 41 41 41 41 41 41 41 41 40 40 41 41 40
40 40 40 40 40 40 40 40 41 41 41 41 42 41 41 40
19 28 44 47 45 42 43 52 56 32 0 0 10 19 22 23
32 43 20 40 49 45 42 39 40 42 39 38 47 36 30 37
47 32 42 40 45 37 41 36 35 34 35 36 34 30 28 29
33 32 29 30 52 61 58 44 32 31 38 38 36 36 36 37
35 36 35 34 31 35 34 37 37 37 38 38 39 38 38 39
39 39 39 40 40 40 40 40 40 40 40 40 42 41 41 41
41 41 41 41 41 41 41 41 41 40 40 40 40 41 41 40
40 40 40 40 40 40 41 41 40 40 41 41 40 41 40 38
19 17 14 22 32 42 47 52 56 34 0 0 5 12 16 18
28 51 52 53 49 47 45 45 43 48 47 44 51 38 33 39
48 35 46 43 47 39 43 39 36 35 37 38 37 32 31 33
32 36 34 30 41 71 68 55 33 30 38 38 37 36 36 37
35 36 35 34 32 36 36 39 39 39 39 39 40 39 39 39
39 39 39 40 40 40 40 40 40 40 40 41 42 41 41 41
41 41 41 42 42 41 41 40 41 41 41 41 41 41 41 40
40 40 40 40 41 41 41 42 42 41 41 41 41 41 41 41
19 12 0 0 1 4 12 22 33 32 0 0 3 7 6 16
35 62 60 51 48 49 55 53 50 56 52 51 56 39 37 42
48 36 49 45 48 42 44 40 36 37 38 40 38 34 33 35
33 40 37 31 35 59 85 74 42 30 39 38 38 38 36 37
35 35 36 34 32 37 35 39 38 38 38 39 40 39 40 40
39 39 40 40 40 40 40 40 41 40 41 41 42 41 41 41
41 41 42 42 42 42 41 41 42 41 41 41 42 42 40 41
41 41 41 41 41 41 41 41 42 42 42 41 41 40 41 40
19 11 0 0 0 0 0 0 2 24 0 0 0 0 1 25
63 64 60 52 54 58 67 66 62 63 55 55 61 40 38 44
48 39 52 49 50 45 43 41 38 38 39 42 38 36 36 37
37 42 39 33 36 44 85 88 65 31 38 39 38 37 36 37
35 36 36 35 32 37 36 39 40 40 39 39 40 39 39 40
39 39 39 39 40 39 40 41 41 41 42 42 43 41 41 41
42 41 42 42 42 41 42 42 41 42 41 41 41 41 40 41
41 42 42 41 42 41 42 42 42 42 41 41 41 41 41 41
20 11 0 0 0 0 0 0 1 21 0 0 0 0 14 62
70 63 61 60 61 71 74 75 74 68 58 57 62 44 42 49
49 40 53 52 50 46 43 44 40 42 40 44 40 38 40 40
40 43 42 37 37 44 61 94 83 45 36 39 38 37 36 37
35 36 35 35 32 36 35 39 40 39 39 39 40 39 40 39
39 39 39 40 40 40 40 40 41 41 41 41 42 41 42 42
42 42 42 43 42 42 42 41 41 41 40 41 41 42 41 42
42 41 42 41 41 40 42 42 42 42 41 41 41 41 41 41
19 11 0 0 0 0 0 0 1 18 0 0 0 4 47 76
69 71 59 64 70 83 83 86 88 76 62 58 64 50 45 50
51 41 54 55 53 47 46 47 42 46 44 46 44 44 44 46
42 44 45 40 39 44 56 81 91 63 38 39 39 38 36 36
36 36 36 35 31 37 36 40 40 40 40 40 40 39 39 39
39 40 39 39 40 40 40 41 40 41 41 42 43 42 43 42
43 43 43 42 41 41 41 42 41 42 41 41 42 42 41 41
41 41 41 41 39 41 42 42 42 42 42 42 43 42 42 42
19 12 0 1 1 12 6 0 1 17 0 4 0 26 76 75
69 73 63 68 81 89 90 97 102 84 68 61 65 56 50 52
56 45 55 56 54 50 46 48 43 47 48 47 45 47 45 50
48 47 50 42 42 44 62 78 92 76 50 40 39 37 35 37
35 36 36 35 32 37 36 39 40 39 39 39 40 39 40 39
40 40 40 40 40 41 40 41 41 41 42 41 42 41 41 41
42 42 42 42 43 42 42 41 41 41 41 41 41 41 42 40
41 42 41 41 41 40 42 42 43 42 42 42 42 41 40 39
19 11 2 12 6 7 3 0 1 17 2 2 3 65 76 73
73 74 71 73 89 98 98 107 112 92 72 64 67 59 54 57
56 48 55 62 57 53 48 52 46 49 50 51 48 49 51 53
51 54 53 48 47 46 67 84 89 86 63 41 39 38 36 37
36 36 36 36 33 37 36 39 39 39 39 39 40 39 39 39
39 40 39 40 41 41 40 41 41 41 42 41 41 43 41 41
42 42 42 41 43 42 42 41 42 42 42 42 41 42 41 41
42 41 41 40 41 41 42 41 40 41 40 42 41 38 36 36
21 13 8 7 0 5 4 0 1 18 2 0 30 79 75 73
77 76 79 80 98 104 105 115 121 96 75 66 70 67 61 62
60 49 58 67 56 56 50 55 48 54 51 55 53 53 56 59
57 60 61 52 52 51 74 88 87 89 73 49 38 38 36 37
36 36 37 35 32 38 36 40 39 39 39 39 40 39 40 39
39 39 40 40 41 41 42 41 41 41 41 41 40 41 41 42
42 42 42 42 43 42 42 43 43 42 42 41 42 41 41 40
41 41 40 39 39 40 41 39 37 37 34 32 29 25 23 21
19 13 5 1 0 0 1 1 1 30 23 22 65 80 74 75
80 78 86 88 105 106 109 122 126 102 78 70 75 71 65 65
65 51 62 69 63 61 52 58 53 58 55 58 57 55 57 66
61 65 63 57 55 53 76 91 91 88 83 60 40 38 36 37
36 36 36 35 33 37 36 40 40 39 39 40 39 39 40 40
40 40 40 41 41 40 41 41 41 41 41 41 40 41 42 42
42 42 42 42 43 43 42 42 41 40 40 41 40 39 38 37
39 39 37 37 34 33 29 26 24 21 19 18 19 19 21 21
20 13 0 0 0 0 0 0 2 42 57 52 80 79 70 78
84 85 90 93 113 110 113 126 131 108 83 73 78 77 69 69
70 56 66 75 67 66 56 64 57 57 57 59 60 58 59 71
68 67 66 63 61 58 76 89 91 86 88 67 49 38 36 37
36 36 35 35 33 37 36 39 39 39 39 39 39 40 40 40
40 40 40 40 42 41 41 41 41 40 41 41 41 42 42 42
41 42 42 42 42 41 41 40 39 38 38 39 37 37 35 32
29 26 24 23 21 20 21 21 21 22 23 24 25 26 26 27
20 13 0 0 0 0 0 0 2 44 59 62 83 78 68 79
87 86 95 95 115 111 116 127 134 111 87 76 81 79 73 72
76 60 67 81 73 69 60 67 61 63 60 60 63 60 61 72
75 69 72 68 63 65 70 89 91 84 81 72 57 39 37 37
36 36 36 35 33 37 36 39 39 39 39 39 39 40 40 40
41 40 40 40 42 40 40 40 40 41 41 41 41 41 41 42
41 40 41 41 41 40 39 40 41 34 30 27 25 23 21 21
21 22 23 23 24 24 26 26 28 28 29 30 28 23 30 32
21 24 26 19 12 5 2 0 2 44 54 69 81 71 72 79
89 90 99 98 114 113 120 131 135 114 90 80 83 80 76 76
85 65 69 85 79 76 67 71 64 69 61 62 67 61 66 74
78 72 75 73 67 72 66 82 85 84 71 76 62 44 37 38
36 36 36 35 33 37 36 39 39 39 40 39 39 40 40 40
40 39 39 39 41 40 40 40 40 40 41 41 42 41 41 42
40 39 36 34 32 29 26 28 41 30 19 21 23 24 24 25
26 27 28 29 30 31 32 33 33 34 34 34 34 31 25 32
21 31 51 54 51 44 38 32 29 48 53 70 78 65 71 80
88 93 99 101 111 113 120 133 133 115 93 84 87 84 81 79
94 73 73 89 83 84 76 76 69 74 64 66 70 61 64 72
81 72 81 80 68 74 62 73 72 77 69 68 63 58 37 38
37 36 35 35 33 36 36 39 39 39 39 39 39 39 39 40
40 39 38 38 40 40 40 39 40 41 40 39 37 35 33 29
27 25 24 23 24 25 25 24 35 27 22 26 29 30 31 31
32 33 33 34 35 35 35 35 36 36 36 34 36 37 34 26
21 31 52 57 56 55 55 55 56 56 51 66 72 62 69 79
91 95 100 104 111 116 120 132 130 114 97 88 91 87 86 83
97 76 74 97 89 85 82 81 76 75 69 68 74 60 66 74
83 76 86 87 76 78 63 71 60 69 61 55 62 63 39 35
36 35 36 34 33 36 36 39 39 38 39 38 38 37 37 35
36 38 39 39 39 38 37 35 32 30 28 27 25 24 24 25
26 27 28 27 29 30 31 29 36 30 26 31 33 34 35 35
35 36 37 37 37 37 37 37 37 37 37 37 36 38 38 35
19 29 50 56 56 55 57 57 59 56 50 63 64 61 66 77
91 95 100 105 108 117 122 129 132 113 100 92 94 88 86 86
100 81 77 102 93 87 87 88 86 74 75 69 81 63 71 73
82 78 87 90 77 78 68 66 54 55 53 48 54 62 49 33
33 33 33 33 32 35 34 35 36 36 35 33 33 34 33 25
29 34 33 31 29 26 26 25 24 24 25 27 28 28 29 31
31 32 34 33 34 35 35 32 35 30 28 34 36 36 37 37
38 38 38 38 39 39 39 39 37 36 36 37 36 37 38 39
26 30 42 46 47 49 50 53 57 55 50 60 56 57 67 75
90 92 100 106 106 116 125 130 127 114 104 95 97 93 93 89
106 84 82 104 98 87 90 95 92 79 80 71 87 67 73 75
83 78 91 95 78 79 72 58 49 46 47 46 46 56 60 28
29 30 31 32 32 32 33 33 34 34 34 33 31 30 28 19
21 24 24 25 26 26 28 28 30 31 32 33 33 33 35 35
36 37 37 37 37 38 36 31 18 15 28 36 38 38 38 39
38 39 39 39 39 39 39 39 39 38 36 37 37 37 39 40
26 29 30 32 36 40 39 42 52 58 49 58 50 49 68 74
85 90 100 106 107 116 126 134 126 114 106 101 100 97 98 88
108 88 83 105 106 88 92 102 100 86 82 74 91 70 78 76
85 82 93 94 78 80 76 58 47 41 45 41 39 50 66 32
23 22 24 24 26 29 31 30 28 26 25 25 24 24 25 24
26 28 29 31 32 32 34 35 35 36 36 37 37 37 37 38
38 38 39 38 38 38 37 26 6 3 21 37 40 41 40 40
39 39 39 40 40 39 40 39 39 39 38 37 37 35 37 39
24 26 26 26 30 38 36 39 51 54 44 55 46 42 65 74
81 88 97 108 109 115 126 134 129 114 109 108 104 99 101 90
110 92 84 105 113 94 96 102 107 88 87 79 97 75 80 78
81 86 90 95 79 80 79 61 51 39 40 36 34 48 63 47
25 23 23 21 20 23 21 23 24 26 26 27 28 29 31 31
31 32 34 35 36 36 37 37 38 38 39 39 38 39 39 39
39 40 38 32 27 20 32 24 10 4 19 37 39 40 41 40
40 40 40 39 39 40 40 40 40 40 39 38 37 35 36 38
23 25 24 29 34 39 40 45 51 49 41 55 48 36 63 75
77 86 95 106 109 114 123 129 133 116 110 111 108 103 102 94
113 98 89 100 121 102 103 101 115 91 93 84 105 81 84 77
82 90 88 97 78 81 80 69 56 40 32 34 33 42 58 59
32 27 26 25 22 23 23 25 28 30 30 31 32 34 34 35
36 37 38 37 38 38 38 39 40 40 40 40 41 40 40 40
41 41 29 4 2 4 25 22 2 1 17 36 39 40 40 39
39 39 40 39 39 39 39 39 39 38 39 38 38 36 35 36
26 23 4 5 9 15 20 27 33 45 40 59 50 39 61 70
72 83 94 106 113 110 119 119 135 116 110 115 111 111 103 92
114 104 89 91 123 107 109 102 123 101 100 90 107 83 83 76
79 92 91 104 81 80 82 72 65 37 33 32 31 36 49 68
42 32 31 29 26 27 28 29 33 35 35 36 36 36 36 37
39 39 39 38 39 40 40 41 41 40 41 41 42 42 41 41
41 41 34 25 28 33 36 29 2 1 17 37 39 40 41 39
40 40 40 40 40 40 40 40 40 39 39 39 40 39 36 34
31 26 1 0 0 0 0 0 3 40 40 62 49 46 57 66
52 54 66 84 94 102 107 109 127 118 112 116 115 117 101 93
115 108 92 85 124 108 114 102 128 109 97 91 110 87 84 76
81 94 92 110 82 84 83 71 75 33 35 31 32 32 44 67
54 37 35 33 31 30 30 33 36 37 37 38 38 37 38 39
41 41 41 41 41 41 41 41 41 41 41 42 43 42 42 42
42 42 42 41 41 40 39 31 6 1 19 37 40 41 41 40
41 40 41 40 40 41 41 40 40 40 39 40 40 40 39 36
31 26 2 0 0 1 0 0 1 36 39 62 46 42 40 13
1 36 30 32 31 33 49 31 31 41 72 118 118 122 102 97
117 114 91 79 124 109 119 103 128 119 99 97 117 96 86 77
82 95 93 110 86 85 84 67 78 35 39 29 35 28 39 62
63 43 36 36 34 33 34 36 39 39 39 40 40 39 40 42
42 42 42 41 42 43 43 43 43 42 43 43 44 44 43 43
43 44 43 43 41 40 39 35 12 1 24 38 42 42 43 42
42 41 41 41 41 41 42 41 42 42 40 41 41 42 40 37
32 26 2 0 1 7 2 0 0 32 36 59 41 38 13 2
1 37 26 18 25 23 36 36 24 25 63 120 121 127 101 101
117 117 90 83 122 112 118 103 124 126 104 101 118 100 92 77
80 95 93 114 86 87 85 67 73 40 35 33 32 27 35 49
65 44 36 36 34 34 37 38 40 40 41 40 41 41 42 42
42 42 42 42 42 43 43 42 42 42 43 43 44 43 43 43
44 43 44 43 42 40 39 35 22 13 31 40 42 42 43 42
42 41 41 41 41 42 42 42 41 41 41 41 41 41 41 38
28 24 1 0 8 21 11 3 0 26 33 49 47 33 9 4
1 4 11 13 24 31 41 49 52 48 78 126 129 132 105 104
116 122 93 77 116 115 115 104 118 133 110 101 121 104 93 78
82 94 90 115 92 84 88 64 61 46 28 37 27 26 30 41
57 48 38 36 34 33 37 39 41 41 41 41 40 40 42 42
42 42 42 42 42 42 42 42 42 42 42 43 43 42 43 43
43 42 42 42 42 40 38 34 31 30 36 41 42 42 42 42
42 42 41 42 42 42 41 41 41 41 41 41 41 41 41 38
27 24 2 0 15 27 15 8 0 24 40 41 45 26 11 6
10 27 24 49 76 92 103 116 120 107 110 129 132 132 111 108
116 123 96 72 109 115 110 107 110 132 110 102 122 105 91 80
84 95 89 114 93 82 89 64 51 50 24 39 23 25 26 34
46 51 39 35 34 34 37 39 42 41 41 41 40 41 41 41
41 42 41 41 41 42 41 42 42 42 42 42 43 43 42 42
43 42 42 42 42 41 39 35 35 35 39 41 41 41 42 41
41 42 41 42 42 42 42 42 41 41 41 40 40 40 40 37
26 24 2 0 10 14 8 5 0 25 49 47 50 22 7 6
11 38 35 66 95 108 115 127 130 126 118 132 140 133 119 111
115 126 99 73 101 122 102 115 99 132 111 103 117 105 94 82
84 93 87 112 94 82 88 60 43 49 25 36 26 24 23 30
39 50 40 36 35 34 37 39 41 40 40 40 40 41 41 42
42 42 41 42 42 42 42 42 42 42 42 42 42 43 42 42
42 42 42 41 41 40 39 37 37 38 41 41 41 42 42 42
42 42 42 41 41 41 41 41 41 41 41 40 40 40 40 38
26 26 11 3 4 5 2 1 0 22 50 49 53 22 2 6
5 35 13 45 85 99 110 117 132 132 122 132 141 130 127 111
112 126 104 76 91 123 95 117 98 128 113 102 118 109 94 84
84 93 89 110 95 85 86 63 40 41 34 26 34 21 20 26
35 45 45 37 36 35 39 39 41 41 41 41 41 41 40 41
41 41 41 41 41 41 41 41 41 41 42 42 42 42 42 42
42 43 42 41 41 40 40 38 38 40 42 41 41 40 41 41
41 41 41 41 40 41 41 41 41 41 41 40 39 39 39 37
27 28 24 8 3 4 1 0 0 22 48 48 50 17 2 4
0 34 4 28 64 95 114 121 129 139 126 130 142 129 135 112
109 128 105 78 86 124 93 116 95 122 117 104 122 110 93 88
83 93 92 111 93 86 85 63 42 32 39 21 33 23 20 25
32 37 48 39 36 34 38 39 41 40 41 40 40 41 41 41
41 41 42 41 42 41 42 42 42 42 42 42 42 43 42 42
42 43 42 41 41 41 39 39 39 40 40 40 40 40 41 41
41 42 41 40 40 40 40 41 41 40 39 39 40 39 38 38
29 29 20 3 0 3 0 0 0 21 46 44 46 20 6 0
0 29 12 41 73 121 122 126 134 142 132 128 141 127 136 113
108 123 108 81 76 125 91 118 91 112 121 102 122 109 92 86
79 91 89 110 91 88 85 64 44 25 35 27 25 27 20 23
29 33 43 43 37 35 39 39 41 40 40 40 40 40 40 41
41 41 42 42 42 42 42 42 41 41 42 42 41 42 42 42
41 42 41 41 41 41 40 40 41 41 41 40 41 41 41 41
41 41 41 41 40 40 40 40 40 40 40 40 40 39 39 39
31 30 17 3 1 2 1 0 0 22 49 43 44 32 11 0
0 17 8 24 55 114 119 128 136 144 135 125 138 130 131 115
108 120 111 84 69 126 87 114 87 105 127 102 121 105 91 85
78 90 85 109 94 90 84 66 47 21 29 30 24 30 20 18
25 31 38 42 39 35 39 38 40 39 40 40 41 41 40 41
42 42 42 41 41 41 41 41 40 41 41 41 42 41 41 41
42 42 41 41 41 40 40 40 42 42 42 40 41 42 42 41
41 40 41 40 39 40 39 39 39 38 39 39 39 39 39 38
30 29 36 35 33 27 24 22 18 33 52 45 45 64 34 1
0 8 7 12 49 109 121 128 139 145 141 126 131 134 124 117
110 118 113 87 63 121 89 113 85 101 128 101 121 106 95 86
78 94 91 106 95 91 85 67 48 20 22 30 21 30 21 16
23 28 36 40 42 37 40 39 41 40 40 40 40 39 40 40
40 41 41 41 41 41 41 41 41 41 41 41 42 41 41 41
42 41 41 41 42 42 42 42 42 42 41 40 40 41 40 40
40 39 39 40 38 38 39 39 38 39 39 38 38 38 39 38
30 30 48 56 57 53 54 57 57 57 57 48 49 84 47 2
1 2 5 10 53 113 126 137 141 145 144 125 126 137 119 120
112 117 112 91 63 119 88 114 91 97 124 102 120 107 96 82
71 94 93 103 94 88 86 67 48 21 17 26 20 28 23 17
20 26 32 37 39 42 39 38 41 40 40 40 40 40 41 41
41 42 42 42 42 42 40 41 41 41 41 41 42 42 41 41
42 41 41 41 41 41 42 41 41 42 41 40 40 40 40 40
40 38 38 39 38 38 38 38 38 37 37 37 38 37 37 36
31 30 51 62 62 61 61 62 62 62 59 44 57 94 62 13
1 0 5 13 64 120 129 139 144 145 144 127 122 137 115 125
113 116 115 94 67 118 93 110 94 97 120 105 117 107 92 83
71 91 95 103 95 85 87 65 51 22 16 20 23 25 24 15
15 23 27 33 39 40 42 38 41 40 40 41 42 42 42 41
42 42 42 42 42 42 41 41 41 40 41 41 41 41 41 41
41 40 41 41 41 41 41 41 41 40 40 40 40 39 39 39
39 38 38 38 37 38 37 38 37 37 37 37 36 36 36 36
31 28 38 46 47 48 50 52 54 56 53 23 70 98 77 23
1 0 3 19 73 125 134 142 145 145 145 127 116 139 115 128
115 114 114 92 68 114 93 107 96 98 116 110 121 108 93 78
67 92 96 103 101 84 87 64 52 20 16 17 22 21 25 16
14 19 26 31 36 37 42 38 42 40 39 41 42 41 41 41
41 42 41 42 41 41 41 41 40 40 40 40 40 41 41 40
39 38 37 36 33 34 36 40 40 40 40 40 39 39 38 38
38 38 37 37 36 36 36 36 36 36 35 35 35 35 36 36
32 28 33 37 38 37 37 37 38 39 41 34 86 100 92 28
14 0 6 31 86 127 138 142 145 145 145 129 112 136 116 129
116 115 116 87 67 112 98 105 101 98 111 113 121 107 92 78
61 91 94 103 99 84 93 64 52 18 15 15 17 17 25 18
12 17 21 30 35 35 40 40 41 40 40 41 41 41 41 41
41 40 41 41 41 39 38 37 36 37 37 39 40 41 41 35
21 19 16 14 13 13 27 41 41 40 39 39 39 38 38 37
37 37 36 35 35 35 35 36 36 35 35 34 34 35 35 35
30 28 38 44 44 44 43 42 42 42 44 73 94 104 101 35
33 1 12 43 105 133 141 145 145 145 145 131 113 133 120 131
120 114 115 84 69 112 99 103 103 98 109 117 121 109 88 78
64 91 95 106 96 87 94 63 54 18 13 15 14 18 17 25
9 16 19 26 34 36 39 39 42 40 40 40 40 40 41 41
40 34 29 27 24 22 18 15 13 14 18 33 41 41 41 34
11 8 7 8 8 9 25 41 40 40 40 39 38 38 38 36
36 36 35 34 34 34 33 33 34 33 34 33 34 33 35 35
29 28 40 46 47 47 47 47 48 48 56 100 107 99 92 68
21 8 20 67 126 140 144 145 144 145 145 136 117 131 123 130
121 115 117 81 70 115 98 101 106 102 105 121 120 106 92 77
63 93 97 110 92 88 91 59 49 22 13 15 12 14 14 24
15 11 18 20 30 35 39 37 40 40 39 39 40 40 40 41
35 14 7 10 10 10 7 4 5 4 5 27 40 40 40 32
10 8 8 8 7 8 24 40 40 40 39 38 38 37 36 36
35 35 34 34 33 33 33 33 33 33 34 34 34 33 33 33
33 32 41 47 48 47 47 46 48 50 69 113 122 103 94 103
67 35 51 105 130 141 144 144 145 145 145 138 118 129 124 129
123 117 115 74 72 115 99 96 105 100 108 121 120 107 92 71
59 94 102 110 89 86 94 58 43 21 10 13 12 11 16 16
21 10 13 17 25 32 37 37 38 40 39 39 40 40 40 40
33 10 4 7 8 9 6 3 4 3 4 24 39 39 40 30
10 8 8 8 7 8 21 39 40 39 39 38 37 37 36 35
34 33 33 33 33 32 32 31 33 33 33 33 32 32 33 34
41 41 43 44 44 44 35 22 28 42 73 113 124 120 110 128
94 68 93 113 132 143 145 144 144 145 144 137 119 128 125 129
125 117 115 72 73 115 102 96 108 97 108 123 120 104 91 68
61 95 103 107 86 87 95 57 33 24 10 13 12 10 12 16
24 13 12 14 22 29 37 37 38 38 39 40 39 40 40 39
33 10 3 7 9 9 6 3 3 3 3 22 38 40 40 31
10 7 7 8 7 6 18 39 40 38 37 37 36 35 34 33
33 32 32 32 31 31 31 31 32 31 31 31 32 32 32 32
42 42 42 42 42 41 29 1 6 29 62 91 97 86 93 113
95 75 96 114 129 143 145 145 144 144 144 138 120 128 126 129
123 118 112 74 69 114 101 90 106 94 107 123 121 103 92 70
62 97 102 110 86 92 93 55 27 26 8 13 13 11 9 16
17 19 10 12 17 25 34 36 39 37 39 39 39 40 41 40
34 11 3 7 11 9 6 3 4 3 3 23 39 39 39 33
13 9 10 11 11 11 16 35 36 36 35 35 35 34 33 33
31 32 32 32 31 30 30 30 30 29 29 29 30 30 30 31
42 41 42 41 42 41 31 1 1 25 54 56 84 100 99 92
74 75 93 113 125 140 144 145 145 144 145 138 120 127 124 130
124 120 107 71 70 118 103 88 107 95 105 124 120 104 92 67
59 100 100 109 86 97 98 55 22 28 9 15 13 12 9 12
16 21 8 11 11 21 30 36 38 39 39 40 39 40 40 40
35 13 3 6 10 9 6 3 3 3 3 22 39 39 39 35
19 16 15 15 15 15 21 30 32 33 36 36 34 34 33 32
32 31 31 31 30 28 28 28 28 28 28 28 29 29 29 29
30 30 32 35 38 40 33 2 0 20 49 18 2 7 30 97
96 89 86 110 125 136 143 145 145 145 144 136 123 128 123 130
123 122 103 71 74 120 99 81 106 98 103 122 117 100 92 59
58 102 101 109 83 97 102 55 23 26 17 13 14 11 12 9
14 21 17 10 12 17 27 35 38 37 39 40 39 39 39 39
34 13 3 5 6 6 4 2 3 2 2 20 38 39 40 35
16 10 10 7 2 1 3 5 4 7 33 36 34 34 33 31
30 30 29 29 28 28 28 28 28 28 27 28 28 27 28 28
2 2 3 22 38 40 35 4 0 17 45 15 0 0 0 70
100 94 84 99 122 135 141 144 144 145 145 136 124 130 122 129
121 125 96 68 75 123 104 80 109 97 100 120 116 93 91 55
60 98 103 107 79 98 100 51 24 24 27 12 16 10 15 10
11 20 23 12 12 14 23 32 37 38 38 39 41 40 39 40
35 14 3 4 3 2 3 3 4 3 2 19 38 40 40 35
15 8 9 4 0 1 6 24 13 1 31 34 33 33 32 31
30 29 28 28 28 27 27 27 27 27 27 27 27 27 27 28
0 0 0 22 43 40 36 6 0 12 42 20 6 5 5 72
112 107 90 89 111 130 139 142 145 145 145 135 125 130 119 131
118 123 89 65 76 124 102 79 109 92 98 122 118 92 93 51
63 96 106 103 79 100 98 50 26 21 31 10 18 13 9 13
13 14 22 19 16 14 19 28 38 37 38 38 40 41 41 40
35 14 4 4 0 0 3 3 4 3 2 19 38 40 40 35
15 8 8 5 0 0 2 6 2 1 30 33 32 32 30 30
29 28 28 28 28 28 27 27 27 26 26 26 26 26 27 27
0 0 0 20 44 41 37 9 0 7 41 42 40 35 37 81
114 122 104 90 104 122 136 140 144 145 144 132 125 130 121 132
115 126 82 62 79 124 98 75 109 95 98 125 116 94 90 49
68 97 106 98 82 98 95 49 29 21 33 18 20 19 3 14
13 11 18 23 17 13 16 22 32 38 37 39 39 40 41 40
34 15 4 3 3 4 8 3 5 4 2 18 38 40 40 36
16 7 8 4 0 0 0 0 0 1 28 32 30 29 29 29
28 28 28 27 27 27 27 26 26 26 26 25 26 25 26 26
0 0 0 16 45 42 37 11 0 3 40 49 49 44 47 50
67 87 94 74 97 119 132 137 141 144 144 130 125 130 118 129
112 123 78 62 82 124 93 72 106 95 96 121 115 92 88 47
72 96 103 98 84 98 95 48 28 21 28 31 24 23 5 7
17 11 11 23 20 12 12 17 25 35 36 38 40 40 41 39
33 15 4 3 1 0 4 4 6 4 2 17 37 39 40 36
15 6 7 2 0 0 0 0 0 0 22 16 8 8 23 29
28 28 28 26 27 26 26 26 25 25 25 25 25 24 25 25
0 0 0 14 45 42 38 14 0 2 39 49 44 41 45 49
58 93 98 90 89 115 129 137 142 144 143 126 124 131 119 129
111 121 70 62 84 128 91 72 107 89 89 124 113 90 89 46
76 97 103 89 80 100 97 51 27 25 20 44 24 30 14 0
12 14 10 16 26 17 11 14 21 30 34 37 40 42 41 38
33 16 4 3 0 0 2 4 5 4 2 16 37 38 39 35
15 6 6 0 18 24 1 0 0 0 8 18 25 16 7 28
27 26 27 27 25 25 25 24 24 24 24 24 24 23 24 25
0 0 0 11 45 42 37 17 0 1 36 43 34 37 37 45
78 104 116 117 98 103 124 132 142 144 139 122 122 132 120 126
111 117 62 63 82 128 90 72 106 86 83 123 111 87 91 47
74 94 105 84 83 101 100 52 29 26 18 40 30 31 24 3
4 14 13 13 19 21 18 9 12 22 28 35 42 42 40 36
33 17 4 3 2 1 3 4 5 5 2 15 36 38 40 35
15 5 5 5 33 50 13 0 0 7 27 30 29 27 6 23
27 26 26 26 25 25 25 24 23 23 23 23 23 23 24 24
0 0 0 8 44 43 38 20 5 11 38 39 18 21 24 31
61 97 109 116 109 94 114 128 138 140 130 119 120 129 119 121
110 112 56 63 87 128 84 73 104 82 73 119 107 86 91 43
78 93 104 75 83 103 98 52 35 24 24 31 44 31 25 15
0 3 13 13 15 18 20 14 8 14 23 31 40 41 40 36
33 18 4 3 4 4 3 3 4 5 1 13 36 38 39 36
17 5 6 2 12 21 11 0 0 13 31 29 29 27 9 20
26 25 25 25 24 24 24 23 24 23 23 23 24 24 24 24
0 0 0 7 43 43 38 31 28 35 46 37 4 1 1 4
15 60 98 111 116 105 107 124 133 133 121 117 119 126 116 117
110 109 53 58 91 132 84 74 104 75 83 119 104 88 88 44
85 93 104 74 83 101 100 62 41 25 25 31 52 33 27 26
11 10 10 13 15 12 17 15 11 7 14 24 33 40 39 36
34 19 5 4 4 4 3 3 3 5 1 13 35 37 39 36
20 7 9 2 2 2 1 0 0 12 31 30 28 27 11 19
26 25 25 26 25 24 24 23 24 23 24 23 24 24 24 24
0 0 0 4 40 43 37 39 49 52 54 40 3 0 0 0
0 22 82 111 119 116 115 123 132 127 116 115 120 126 113 113
110 101 49 54 90 128 77 72 101 67 88 113 101 85 85 45
90 94 101 70 80 100 97 67 49 29 30 30 54 39 39 24
16 14 13 9 11 10 11 14 16 14 10 16 26 36 41 39
36 20 4 3 3 3 3 2 3 4 1 12 34 37 39 36
30 21 12 4 0 0 0 0 0 8 28 29 27 27 12 21
25 25 25 24 24 25 24 24 23 23 24 24 24 24 24 24
0 0 0 3 39 44 36 41 52 54 56 45 4 0 0 0
1 57 105 112 121 122 125 125 130 124 114 112 116 124 110 111
112 95 46 51 101 126 75 69 98 59 83 108 98 84 79 45
90 96 97 65 86 101 92 70 57 35 33 32 46 59 42 31
15 14 19 13 13 6 5 5 10 13 13 11 16 25 34 38
38 23 6 3 3 3 3 2 3 4 2 11 33 36 38 36
36 15 15 26 3 0 0 0 0 7 29 29 27 25 10 24
26 25 24 25 25 24 24 24 23 23 23 22 23 22 23 23
0 0 0 2 36 43 37 38 44 44 44 34 3 0 0 0
7 84 112 118 124 127 133 129 129 119 111 109 114 121 107 111
114 87 43 53 112 124 75 68 91 52 78 107 97 82 74 49
92 97 95 59 89 104 91 75 64 42 34 37 37 71 43 34
32 19 23 26 27 18 13 17 26 23 16 14 13 14 22 31
33 23 9 5 3 2 2 2 3 3 1 10 33 36 38 38
38 19 26 43 11 0 0 0 0 6 27 25 23 12 13 23
16 15 22 25 23 23 23 23 24 22 23 22 22 23 23 23
0 0 0 1 33 44 37 33 24 22 24 13 0 0 0 0
13 89 111 122 128 136 135 130 124 111 104 102 107 117 102 107
113 81 44 56 119 120 76 70 87 52 69 106 97 81 69 49
93 98 94 58 91 106 89 73 72 50 40 42 35 62 47 42
32 34 34 32 36 34 26 22 19 19 22 20 15 10 12 17
25 22 7 7 5 3 3 2 2 3 0 8 27 28 26 23
19 7 3 9 2 0 0 0 0 0 3 2 2 0 8 14
12 28 20 24 24 23 24 23 23 23 22 22 22 22 22 23
0 0 0 0 30 44 36 32 22 21 23 11 0 0 0 0
11 86 110 123 128 137 137 125 113 100 93 86 95 116 96 102
112 81 47 63 123 115 74 68 83 53 65 105 98 80 60 50
99 101 91 58 94 104 92 75 84 60 47 47 39 49 58 48
40 35 35 43 50 47 36 30 28 30 30 31 32 28 26 19
14 17 13 9 11 9 1 0 0 0 0 0 1 1 0 0
0 0 0 0 0 0 0 0 0 0 1 0 0 0 5 12
83 105 45 23 24 23 24 23 24 22 22 22 22 22 23 23
0 0 0 0 29 44 37 33 25 23 25 11 0 0 0 0
7 66 105 118 127 130 125 116 97 81 71 60 77 114 97 99
113 90 54 72 121 111 75 70 81 51 56 101 96 78 56 51
100 98 87 56 92 101 91 76 89 69 61 53 47 44 67 49
42 44 44 42 41 44 51 54 56 54 53 54 56 52 54 53
46 35 27 24 22 19 5 0 0 0 1 2 2 4 4 5
6 7 7 8 9 10 13 14 15 15 14 6 0 0 11 15
74 76 47 8 8 14 23 23 23 23 23 22 22 23 23 24
0 0 0 0 28 44 36 33 27 26 26 11 0 0 0 0
8 33 86 101 113 115 107 92 70 60 52 51 79 111 96 95
115 89 63 80 123 107 77 75 78 50 54 96 95 79 54 54
99 102 83 60 96 98 90 79 88 76 72 61 58 53 74 56
51 50 51 54 56 44 39 35 36 36 39 44 47 41 41 46
48 46 39 37 32 25 12 0 1 10 13 16 17 17 18 18
17 17 17 16 18 18 18 18 18 18 14 6 0 0 0 0
0 0 1 5 3 12 27 27 28 28 26 26 26 25 26 26
0 0 0 0 26 45 37 34 29 27 28 11 1 5 0 0
13 16 39 60 70 71 60 47 45 49 51 59 84 107 90 91
112 83 68 80 123 103 77 78 73 53 55 91 90 79 51 53
101 101 80 64 100 96 88 86 90 85 77 76 67 63 72 66
55 51 55 53 51 49 40 31 23 22 19 17 16 23 28 28
27 25 19 21 19 16 12 4 4 13 15 18 19 19 19 19
18 17 18 18 19 19 19 20 20 19 15 6 0 0 0 0
0 0 1 5 2 11 22 20 19 18 16 14 14 13 11 11
0 0 0 0 24 44 37 33 29 28 29 15 4 8 1 2
16 24 16 39 40 38 34 27 32 35 38 39 69 102 84 84
110 73 66 82 118 98 74 80 72 58 60 91 89 83 49 54
104 102 82 66 97 93 85 85 94 92 79 83 84 81 77 78
73 67 66 67 67 52 24 18 10 9 9 11 12 15 15 15
16 20 20 18 19 19 15 12 12 15 16 18 20 20 20 20
20 19 19 19 20 21 21 21 21 19 17 8 0 0 0 0
0 0 0 2 23 29 28 29 29 30 31 33 34 35 36 37
0 0 0 0 22 44 37 33 30 28 29 30 25 29 28 29
37 43 42 53 49 49 44 21 31 23 31 21 56 96 81 80
107 49 54 84 116 90 70 82 73 60 62 89 88 82 45 55
103 102 84 65 97 97 86 83 94 95 84 91 92 96 96 86
85 87 91 91 93 66 16 18 14 9 7 18 23 24 24 22
20 19 22 23 21 22 16 22 23 19 19 22 21 21 22 22
21 20 21 21 22 23 23 23 22 20 19 8 0 0 0 0
0 0 0 6 43 45 45 44 44 44 44 44 44 44 44 44
0 0 0 0 20 43 36 33 30 29 29 40 48 51 52 53
57 61 62 65 55 49 43 11 24 23 34 29 51 91 80 79
97 35 44 78 107 81 66 83 74 64 64 87 87 84 45 60
103 100 83 64 99 97 82 83 96 99 84 89 103 110 108 98
104 114 125 131 130 67 12 14 13 19 12 18 25 26 26 29
29 32 34 35 34 34 34 34 29 21 21 18 20 24 24 22
22 22 23 23 23 25 25 24 23 21 19 9 0 0 0 0
0 0 0 8 44 45 44 44 44 43 44 43 43 44 44 44
0 0 0 0 19 43 37 32 30 30 28 39 53 53 54 55
58 62 63 63 59 49 42 8 11 16 32 27 53 82 78 78
92 42 41 73 97 71 66 84 68 66 64 87 88 85 48 64
102 99 80 64 97 94 81 83 100 98 89 89 101 112 123 110
112 128 139 138 134 57 16 15 11 10 11 16 23 24 28 33
35 32 31 30 34 38 37 29 30 27 20 20 19 17 21 24
24 23 24 25 26 25 25 25 24 22 21 9 0 0 0 0
0 0 0 11 45 44 44 44 44 44 44 44 44 44 44 44
0 0 0 0 18 43 36 32 30 30 28 29 38 38 38 38
40 44 44 44 41 44 42 7 7 14 29 25 58 78 77 78
88 46 41 77 89 70 68 79 68 68 68 88 90 90 44 69
104 99 78 65 92 93 79 86 105 101 90 88 101 111 120 117
115 131 139 139 124 47 18 20 15 12 12 18 19 25 33 34
27 30 39 45 46 38 31 31 32 29 25 25 24 27 25 25
26 25 25 25 26 26 25 24 24 22 22 8 0 0 4 7
0 0 0 14 46 45 44 45 44 44 44 43 43 43 43 44
0 0 0 0 17 42 35 31 29 29 28 23 21 19 20 21
25 29 32 32 31 41 42 12 16 24 26 24 60 71 77 81
85 44 36 81 83 67 67 79 65 68 75 89 92 89 44 75
106 99 78 68 86 96 76 85 106 106 94 89 100 111 118 120
116 132 143 142 116 42 19 22 18 21 18 26 30 36 35 32
30 30 35 37 39 35 30 25 28 28 26 27 29 34 36 34
31 28 25 25 25 25 25 24 23 23 22 8 0 0 32 40
5 0 0 18 46 45 44 44 44 44 43 44 44 44 44 44
0 0 0 0 17 41 35 31 30 30 29 26 23 22 22 22
25 30 32 33 32 40 41 26 24 19 24 25 60 68 76 81
80 42 34 74 80 66 68 74 64 68 75 91 93 91 45 76
106 96 82 65 87 93 72 83 105 108 92 90 104 116 119 125
117 135 143 143 109 35 15 18 16 19 15 21 28 31 28 25
25 25 36 38 37 26 20 18 19 30 31 30 27 29 31 32
32 28 27 25 26 25 25 24 24 23 23 8 0 0 15 17
1 0 0 21 46 45 44 44 44 44 43 44 43 44 44 44
0 0 0 0 17 42 36 31 30 30 30 29 27 26 25 26
28 32 34 35 33 38 36 25 14 21 23 27 60 67 75 83
74 40 33 67 74 65 69 73 60 63 74 94 95 96 48 79
108 95 82 65 88 92 71 80 105 111 96 84 103 119 125 131
116 133 143 144 106 37 24 18 10 15 13 19 26 22 17 21
30 38 42 31 24 21 15 11 17 30 32 28 25 29 31 31
31 27 22 22 25 24 25 24 24 25 23 7 0 0 0 0
0 0 0 24 46 44 44 44 44 44 43 44 44 44 44 44
0 1 1 2 22 43 35 31 30 30 30 30 28 27 27 28
30 34 36 35 31 27 26 14 14 27 22 27 58 69 75 84
71 37 35 62 71 65 67 70 58 54 70 94 93 96 48 83
111 94 80 67 87 90 65 77 105 111 101 86 98 111 120 131
117 137 142 141 93 28 22 27 27 30 28 32 27 27 27 26
27 32 28 27 21 17 12 11 15 26 34 28 25 30 31 32
33 26 24 20 22 24 25 24 24 24 23 6 0 0 1 0
0 0 0 28 45 45 44 43 44 44 43 43 43 43 44 44
21 23 24 25 30 35 32 31 30 29 29 29 28 27 27 27
29 34 34 25 18 18 16 14 20 30 24 28 57 71 78 83
71 37 34 57 67 60 69 68 59 49 70 96 100 95 50 83
109 91 78 68 83 85 64 75 100 111 100 89 100 110 117 125
115 135 144 137 78 16 12 15 10 12 14 17 15 15 23 19
23 27 27 23 18 12 9 13 19 26 31 26 25 31 31 26
26 26 25 23 19 24 24 23 23 23 23 5 0 0 0 0
0 0 0 30 45 44 44 44 44 44 43 43 44 43 43 44
31 32 32 31 31 31 31 31 29 29 29 29 28 28 27 27
30 28 20 15 17 9 3 6 22 29 23 28 60 68 78 84
68 39 34 53 65 55 69 69 60 45 82 98 100 94 49 80
108 91 79 63 85 84 60 71 99 110 98 86 102 115 120 128
115 133 144 127 50 15 14 17 11 14 16 19 15 18 17 14
28 25 25 17 20 10 14 14 20 25 26 26 27 33 25 13
15 27 27 26 22 21 24 24 23 23 23 5 0 0 0 0
0 0 0 26 44 44 43 43 43 43 43 43 43 43 43 43
31 31 31 31 31 31 31 31 28 29 28 29 29 29 29 29
25 19 17 14 13 5 4 10 27 29 28 28 62 69 79 82
68 38 36 45 68 52 70 72 65 45 85 98 105 102 54 77
104 89 78 57 82 81 56 62 83 103 95 86 102 117 124 131
118 131 143 88 22 16 17 18 16 18 17 18 13 20 18 23
25 24 24 16 17 10 15 16 19 24 24 22 34 30 19 11
14 26 25 27 25 18 23 24 23 24 23 4 0 0 0 0
0 0 0 14 41 43 42 43 43 43 43 43 42 43 43 44
31 30 31 30 29 29 28 28 28 28 28 28 29 28 29 23
17 17 20 12 13 14 13 18 29 30 30 29 63 70 79 80
71 36 38 39 70 53 68 72 70 45 82 101 105 104 59 74
104 88 80 58 80 76 52 63 82 91 89 86 107 115 126 141
121 122 91 29 19 17 13 14 10 15 13 15 16 18 18 24
25 22 21 17 13 13 16 15 19 25 23 32 37 26 16 12
14 24 23 26 25 18 19 25 24 24 25 4 0 0 0 0
0 0 1 22 28 43 43 43 43 43 43 43 43 43 43 43
15 13 13 16 19 22 21 22 29 28 28 28 28 28 22 18
17 19 15 10 10 9 6 12 28 31 32 28 59 72 78 76
74 39 41 35 66 55 60 73 76 44 76 104 106 107 65 66
102 86 78 54 79 74 53 60 77 90 86 83 105 119 124 132
116 72 37 30 16 19 15 15 11 15 13 17 18 14 17 21
22 23 13 16 12 14 17 17 18 20 27 35 35 22 15 12
16 22 22 24 26 20 20 25 26 26 28 5 0 8 22 8
0 0 2 36 21 38 43 43 43 43 43 43 42 42 43 43
0 0 0 9 17 22 25 23 26 27 27 28 27 22 19 17
15 16 12 10 9 10 5 16 30 33 34 29 57 76 79 76
78 42 44 35 60 61 57 73 79 48 62 104 110 107 72 63
99 82 75 52 79 74 53 59 77 89 89 87 103 108 118 93
61 56 29 31 18 20 17 17 9 14 16 20 16 19 24 21
20 20 13 18 11 13 16 19 21 21 28 32 29 17 13 13
16 22 22 22 25 24 18 28 27 28 28 4 1 91 138 67
0 0 3 40 32 23 42 42 42 42 42 42 42 42 42 42
0 0 1 10 15 21 24 25 26 27 27 27 24 23 20 16
15 16 11 9 9 11 6 20 30 35 36 28 55 81 78 79
87 44 43 38 49 69 59 73 76 45 52 99 116 106 80 59
98 82 76 54 78 73 54 63 67 83 93 87 106 86 46 29
35 57 34 23 13 23 19 19 9 13 15 18 19 20 20 17
22 16 16 17 11 12 17 20 19 22 23 26 22 16 10 15
16 21 22 23 24 25 20 27 11 5 3 0 4 115 144 65
0 0 5 41 41 23 34 42 43 42 42 42 42 42 42 42
1 3 6 13 15 21 25 25 26 28 28 25 22 23 19 14
14 13 9 9 12 8 10 20 32 36 38 27 51 86 81 81
90 50 42 38 38 70 62 73 77 46 24 86 121 104 82 57
93 83 76 56 79 71 56 66 76 71 81 66 39 24 16 17
29 52 22 21 10 18 18 20 9 13 17 20 21 22 20 15
20 16 18 13 9 14 16 18 17 21 20 19 15 14 7 16
16 19 23 22 24 20 17 24 12 0 0 0 0 28 39 8
0 0 8 41 41 29 11 25 42 42 42 41 42 42 42 42
17 18 15 13 16 20 25 28 29 31 28 24 22 20 21 14
9 9 8 9 8 8 8 21 33 37 40 26 49 91 83 86
97 56 45 42 31 60 70 72 81 54 15 62 123 104 88 56
92 80 78 60 77 74 60 69 75 56 51 26 10 12 11 13
25 53 20 24 14 16 18 29 40 64 84 81 29 20 14 17
17 13 17 10 10 14 15 15 16 19 17 17 13 10 8 18
14 19 25 24 23 20 16 23 25 2 0 0 3 0 0 0
0 0 7 33 27 6 8 6 41 42 42 41 42 41 41 41
24 23 20 18 21 24 26 28 33 31 25 23 22 16 20 16
8 5 6 7 3 10 11 24 31 38 41 25 47 90 82 93
100 63 44 43 29 44 76 70 84 70 17 48 122 97 93 57
92 79 79 67 76 77 63 63 47 42 40 29 7 9 8 9
22 56 77 85 68 79 61 55 49 38 20 24 44 15 12 18
15 11 16 9 12 15 14 16 20 19 18 17 13 9 11 15
12 16 23 24 23 19 19 21 21 6 0 0 6 0 0 0
0 0 0 8 15 25 34 6 39 41 41 42 41 41 41 41
23 23 22 22 22 21 20 20 35 30 25 22 21 15 15 16
11 6 7 7 3 9 8 26 31 39 40 26 46 92 71 99
105 66 46 45 28 30 71 77 87 80 25 39 118 98 98 60
91 75 81 67 76 80 66 64 40 40 36 34 14 10 6 8
16 60 34 11 12 10 10 11 4 9 8 11 38 11 17 18
14 13 17 10 12 12 13 20 21 17 19 16 12 8 10 12
11 19 23 23 20 17 18 15 15 10 0 0 0 0 0 0
0 0 0 2 5 18 26 3 32 40 40 40 40 40 40 40
14 13 14 14 14 15 15 16 34 28 24 21 18 12 11 16
13 17 17 11 4 6 9 29 33 38 39 28 49 94 64 99
110 78 47 48 27 21 58 83 90 83 40 29 114 97 101 60
86 74 84 70 79 84 69 67 37 33 28 37 23 13 5 7
7 53 35 15 13 11 15 19 9 10 10 13 56 9 16 18
11 13 15 9 11 12 17 20 21 19 17 14 11 5 12 12
12 16 21 23 23 18 12 8 8 9 0 0 0 0 0 0
0 0 0 0 0 0 2 0 8 30 40 41 40 41 41 41
