P2
128 120
151
40 40 39 39 38 38 37 37 36 36 35 35 35 34 34 33
33 32 32 31 31 30 30 29 29 29 28 27 27 26 26 26
26 25 25 24 24 23 23 22 21 20 19 18 16 16 16 19
20 21 22 18 14 22 26 24 22 21 20 19 18 17 15 11
12 11 10 14 17 14 15 13 16 17 18 19 20 20 21 21
22 22 22 22 23 24 24 24 25 25 26 26 27 27 27 27
28 27 29 29 30 31 32 32 32 33 34 34 34 34 35 35
35 36 36 38 36 36 36 37 37 37 38 37 38 37 37 38
40 40 39 39 38 38 37 37 37 36 36 35 35 34 34 33
32 32 32 32 31 30 30 30 29 29 28 28 28 27 26 26
25 25 24 25 24 24 24 24 23 21 20 19 17 17 17 20
22 23 23 18 11 21 27 23 22 22 21 19 19 18 17 15
14 12 11 13 16 16 15 16 17 19 20 20 21 22 22 23
23 23 23 24 24 25 25 26 26 26 27 27 27 27 28 28
28 29 31 30 31 31 32 33 33 33 33 34 34 35 35 35
36 36 36 37 35 36 37 37 37 37 38 37 37 37 38 38
41 40 40 39 39 39 38 37 37 36 36 35 35 34 34 34
33 33 32 32 32 31 30 29 29 29 29 28 28 27 27 27
26 26 25 25 25 25 24 23 23 23 22 19 19 19 19 23
24 25 25 20 12 21 28 25 24 23 22 21 20 19 17 17
18 15 11 12 17 16 16 18 20 20 21 22 23 23 24 23
24 24 25 26 25 26 26 27 27 27 27 26 28 28 29 29
30 31 33 32 32 33 33 34 34 34 34 34 35 35 35 36
36 37 36 38 36 37 37 37 38 38 37 38 38 38 38 39
40 39 39 39 38 38 38 37 37 36 35 35 34 35 34 34
33 33 32 32 31 31 30 30 29 29 28 28 28 27 27 27
27 26 25 25 25 25 25 24 24 23 22 21 20 19 20 24
25 26 26 20 12 20 28 26 24 24 23 22 21 20 18 18
19 17 12 11 18 16 17 19 20 21 22 22 24 24 24 24
24 25 26 25 26 26 26 27 27 27 28 29 29 30 30 30
31 31 33 32 32 32 33 34 34 34 34 34 35 35 35 36
36 36 37 38 36 37 37 37 37 38 38 37 38 38 38 37
40 39 39 39 38 38 38 37 36 36 35 35 34 34 34 34
34 33 33 32 31 31 30 30 29 29 29 29 28 27 27 27
27 26 26 26 25 25 24 24 23 23 22 21 20 20 21 25
26 27 27 20 13 20 28 25 24 24 24 23 21 20 17 18
19 18 15 11 18 16 19 20 22 22 24 24 24 25 25 25
25 25 25 26 26 26 26 27 28 28 29 29 29 30 30 31
31 32 34 32 33 33 33 34 34 34 34 34 34 35 35 36
36 36 36 38 36 36 37 37 38 37 37 36 36 37 38 38
40 39 39 38 38 38 37 36 36 36 36 36 35 35 35 34
34 34 32 32 31 31 30 29 30 30 29 28 28 28 27 28
27 26 26 26 26 25 25 25 24 24 23 23 23 22 23 27
27 27 27 21 14 19 28 26 25 24 24 23 22 21 20 20
20 19 16 11 18 17 20 22 22 23 24 24 25 25 26 25
25 26 26 26 27 28 28 27 29 29 29 30 30 30 31 32
32 31 33 33 33 33 33 34 35 34 34 35 35 35 36 36
37 36 36 38 37 37 36 35 36 37 37 38 38 37 38 38
40 40 39 39 38 38 37 37 37 37 36 35 35 35 34 34
34 33 32 33 32 31 31 30 30 30 29 28 29 28 28 28
28 27 26 26 26 25 25 25 24 24 23 23 23 24 24 27
28 28 28 22 16 18 29 27 26 25 24 24 22 21 21 21
20 20 17 13 19 19 22 23 24 24 25 25 25 25 25 26
27 27 27 27 27 28 28 28 29 30 30 31 30 31 31 31
31 32 34 33 34 34 34 34 35 34 35 35 36 36 37 36
36 36 36 35 35 36 38 37 38 37 37 37 38 37 38 38
39 39 39 38 38 38 38 37 37 37 36 36 36 35 35 34
33 33 33 32 31 31 31 30 30 30 30 30 30 28 28 28
28 27 27 26 26 26 25 25 24 24 23 23 23 24 24 28
28 29 29 22 17 18 29 27 25 25 25 25 24 23 22 21
21 21 18 14 19 19 22 23 24 24 24 25 25 26 26 27
27 27 28 28 28 29 29 29 30 30 30 31 31 31 32 33
32 33 34 33 33 34 34 34 34 35 34 35 36 36 35 35
35 36 36 37 37 37 37 37 37 37 37 37 38 38 38 38
39 39 39 39 39 38 37 37 37 36 36 36 35 34 34 34
34 33 33 33 32 32 32 31 30 30 30 29 29 28 28 28
28 27 27 27 26 26 26 25 24 24 24 24 24 25 26 29
29 29 30 23 18 16 29 28 26 26 25 25 24 24 24 22
21 21 20 16 20 20 23 24 25 25 26 26 27 27 27 27
28 28 28 28 29 29 29 29 30 30 31 31 31 31 31 32
32 33 34 33 34 34 35 35 35 35 34 33 35 35 36 37
37 37 37 36 37 37 38 37 37 37 37 37 38 37 38 38
40 39 39 39 38 38 38 38 37 36 36 36 35 35 35 35
34 33 32 32 32 32 31 31 30 30 30 30 29 29 29 28
28 28 27 27 27 26 25 26 25 25 24 24 25 26 26 30
30 31 30 24 19 16 27 28 26 25 26 25 25 24 24 22
22 22 21 18 22 21 24 25 25 26 26 26 27 27 28 28
28 28 29 29 29 29 29 30 30 30 31 31 31 31 32 32
33 33 34 34 34 34 34 33 34 34 35 36 36 36 36 36
37 37 37 37 37 37 37 37 37 38 38 37 38 38 38 38
41 40 40 39 39 38 38 38 37 37 36 36 36 35 35 35
34 34 34 33 33 32 33 32 31 31 31 30 30 29 29 29
28 29 28 28 28 27 27 26 26 26 26 25 26 26 27 30
30 31 30 25 20 17 28 28 26 25 26 26 26 25 25 23
23 23 22 20 23 23 26 27 26 27 27 27 28 28 29 28
28 29 29 29 30 30 31 31 31 32 32 32 32 32 33 33
34 33 34 33 33 32 34 35 36 36 36 37 36 37 37 36
37 37 37 37 37 37 38 38 37 38 38 38 38 39 38 38
40 40 39 39 39 38 38 37 37 37 36 36 35 35 35 35
34 34 34 33 33 32 32 32 31 31 31 30 30 30 29 29
29 29 28 27 27 27 27 26 26 26 25 25 26 27 27 30
31 31 30 26 21 14 23 28 27 27 27 27 25 26 26 24
24 23 23 20 24 24 27 27 26 27 27 28 28 28 28 29
30 30 30 30 30 30 30 31 31 31 32 32 32 33 33 32
32 32 32 34 35 35 36 36 36 36 37 37 37 37 37 37
37 37 37 37 38 37 37 37 37 37 37 38 38 39 38 38
40 40 40 39 39 39 38 37 37 36 37 36 36 36 35 35
35 34 35 34 34 33 33 33 32 31 31 31 30 30 29 29
29 29 28 28 28 28 28 28 27 26 27 26 26 27 28 32
31 31 31 25 19 11 24 30 28 28 28 27 27 26 27 25
25 25 24 21 25 25 28 28 28 28 28 28 29 29 29 30
30 30 30 30 31 31 31 31 32 32 33 32 32 32 33 33
34 34 35 35 35 36 37 36 36 37 37 38 38 37 37 37
37 37 38 37 37 38 38 38 38 39 39 39 38 39 38 39
40 40 40 39 39 39 38 38 38 37 37 37 37 36 36 36
36 34 34 34 34 33 33 33 32 32 32 31 32 31 30 30
30 30 29 29 29 28 28 27 27 27 26 26 26 27 29 32
33 32 32 26 21 18 27 32 29 29 28 28 27 27 28 26
26 26 24 21 26 25 28 27 29 28 29 29 30 29 30 31
31 31 31 32 32 32 32 32 32 32 32 32 33 34 34 34
35 35 36 36 36 37 37 36 36 36 37 38 38 37 38 38
38 38 38 38 38 38 39 38 39 39 39 39 39 39 39 39
40 39 39 38 39 39 38 38 37 37 38 37 36 36 36 36
35 35 35 34 34 33 33 32 32 32 32 32 31 31 31 29
29 29 29 29 29 29 28 28 28 27 27 27 27 28 29 32
33 33 32 26 22 22 25 32 31 30 29 29 28 27 28 26
25 25 25 22 27 26 28 29 29 29 29 29 30 30 31 30
31 31 32 31 31 32 32 32 33 33 33 34 34 34 34 35
35 35 36 36 36 36 36 37 37 37 37 38 38 37 38 38
38 38 38 38 39 38 38 39 39 39 39 39 39 39 39 40
41 40 40 39 39 39 39 38 38 38 38 37 37 37 36 36
36 35 35 35 34 35 33 33 32 32 32 32 32 31 32 31
31 30 30 30 30 29 29 28 28 28 27 28 28 29 30 33
33 33 33 28 22 24 24 33 31 30 30 29 29 28 29 28
27 26 26 23 28 27 29 30 30 30 30 31 31 31 31 31
31 31 31 32 32 32 33 33 33 34 35 35 35 35 35 35
35 36 36 37 37 37 37 37 37 37 37 39 38 38 38 38
39 38 39 39 38 39 38 39 39 39 39 39 39 39 39 40
40 40 39 40 39 39 39 39 39 39 38 38 37 37 37 37
36 36 35 35 35 34 34 33 33 33 33 32 32 32 32 32
31 31 31 30 30 30 30 29 29 29 29 28 28 28 30 34
33 34 33 28 23 26 24 32 31 31 30 30 29 28 29 27
28 27 27 24 28 28 30 30 30 31 31 32 31 31 31 31
31 31 32 32 33 34 33 34 34 34 35 35 35 35 36 36
36 36 36 36 37 37 38 37 38 39 38 39 39 39 39 39
39 39 39 39 39 38 39 39 39 40 39 39 39 39 39 39
40 40 40 40 39 39 39 39 38 38 38 38 37 38 37 36
36 36 36 35 35 34 34 34 34 33 33 33 33 32 32 31
32 31 31 30 30 30 30 29 29 28 29 28 29 29 31 35
35 35 35 29 24 28 24 32 31 31 30 30 29 28 30 28
27 28 27 24 28 28 30 31 31 31 31 31 31 31 32 32
32 32 33 33 33 34 34 34 35 35 35 36 35 35 36 36
36 37 37 36 37 37 37 38 38 39 38 39 39 39 39 39
39 40 40 39 39 39 39 38 38 39 39 39 39 39 39 39
40 40 39 39 39 38 39 39 38 38 38 38 37 37 37 36
36 36 35 35 35 34 34 34 34 34 33 33 33 33 32 32
31 32 31 30 30 30 30 30 29 29 29 29 29 29 30 33
35 35 35 29 23 28 23 32 32 32 31 31 30 29 30 29
28 28 28 24 29 27 30 29 30 30 31 32 32 32 33 32
32 32 33 33 33 34 35 35 35 35 36 36 36 36 36 36
37 37 37 37 37 37 37 38 38 39 38 39 39 39 39 39
39 39 39 38 38 38 38 39 39 39 39 39 39 39 39 39
40 40 40 39 39 39 39 39 38 38 38 37 37 37 37 37
37 36 35 35 35 35 35 34 34 34 34 34 33 33 32 33
32 32 31 31 31 30 30 29 29 29 29 29 30 30 31 35
35 35 35 29 24 29 24 32 33 32 31 31 30 29 31 29
29 29 28 25 29 26 31 31 31 32 32 33 33 32 33 32
32 33 33 34 34 34 35 35 35 35 36 36 35 36 37 36
36 37 37 37 37 37 38 38 39 39 38 39 39 38 37 38
38 38 39 39 39 38 38 39 38 39 39 39 39 39 40 39
40 40 40 39 39 39 40 38 39 39 38 38 38 37 37 37
36 36 36 35 35 35 35 35 34 34 34 34 33 33 33 32
33 32 32 31 31 31 30 30 30 30 29 30 30 31 31 35
36 35 35 30 23 30 25 31 33 32 32 31 31 30 32 30
29 29 28 25 30 28 31 32 32 32 32 33 33 33 33 34
34 34 34 34 34 34 35 35 35 35 36 36 37 36 36 37
37 37 37 38 38 37 38 38 39 38 38 37 37 38 39 39
39 40 40 40 41 38 39 38 39 39 39 39 39 40 40 40
40 40 40 40 40 39 39 38 38 39 37 37 37 38 37 36
37 37 36 36 35 35 35 35 34 35 34 33 33 33 33 33
32 32 32 31 31 31 31 31 30 30 30 30 30 31 32 36
37 36 36 31 25 30 27 31 33 32 32 31 31 31 32 30
29 30 29 26 30 29 32 32 33 32 33 33 33 33 33 33
34 34 35 34 35 35 35 35 36 36 36 36 36 36 37 37
37 37 38 38 38 38 38 38 38 38 39 39 39 39 39 39
39 39 39 40 41 39 39 39 39 39 39 40 39 39 40 40
40 39 39 39 39 39 39 39 38 38 38 38 38 37 37 36
37 36 36 36 36 36 35 35 35 35 35 34 34 34 33 33
32 32 32 32 32 31 31 31 30 31 30 30 30 31 32 36
36 35 35 30 25 30 28 30 32 33 33 33 31 31 32 31
30 30 29 26 29 29 32 32 32 32 33 34 33 34 34 34
34 34 34 35 35 35 35 36 36 36 36 37 37 37 37 37
37 37 37 38 38 38 39 40 38 38 38 39 39 39 39 40
40 39 40 39 40 39 38 39 39 39 39 39 39 39 39 39
40 40 40 39 40 39 39 38 38 37 38 38 38 37 37 37
37 37 37 37 36 36 36 35 35 35 34 34 35 35 33 33
33 33 33 33 32 32 32 31 31 31 31 30 31 31 32 36
37 36 36 31 24 31 30 29 32 33 33 32 32 31 32 31
30 30 30 27 30 30 33 34 33 33 33 34 34 34 34 34
34 34 35 35 35 36 36 37 36 37 37 37 36 37 36 36
37 37 38 39 39 40 40 40 40 40 39 39 39 40 39 39
39 39 39 40 40 39 39 40 39 39 39 39 39 40 39 39
40 40 40 40 39 38 38 38 38 39 39 38 38 38 37 37
37 37 37 36 36 35 36 35 35 35 35 34 34 34 33 33
33 33 33 33 32 32 32 31 31 31 31 31 31 32 33 36
37 36 36 32 25 31 31 27 34 34 33 33 32 32 31 31
30 30 29 26 29 30 33 33 33 33 34 34 34 35 35 35
35 35 35 34 36 36 36 36 36 36 36 36 36 37 37 37
38 38 38 40 39 39 40 39 39 39 40 39 40 40 40 40
40 39 40 39 40 39 39 39 40 39 39 39 39 39 39 39
40 40 40 40 39 40 39 39 38 38 38 38 38 38 38 38
38 37 37 37 36 36 36 36 35 35 35 35 35 34 34 34
34 34 33 33 33 33 32 33 32 31 32 31 32 32 33 37
37 38 38 32 26 32 34 28 35 35 34 34 33 32 30 31
31 31 31 28 30 30 33 34 34 34 34 35 34 35 35 35
35 35 36 36 36 36 36 37 37 37 37 37 37 37 39 38
38 39 39 40 40 40 40 39 40 40 40 40 40 39 39 40
40 40 40 39 40 41 40 40 41 39 40 40 40 39 40 40
40 40 40 40 39 39 40 39 40 39 39 38 39 39 39 38
38 38 37 38 37 37 36 36 37 36 36 36 35 36 35 35
35 35 34 34 34 33 33 33 32 32 32 33 33 34 36 38
39 38 38 33 27 32 36 28 36 35 35 34 35 33 31 32
32 32 31 28 30 31 34 35 35 35 35 36 35 36 36 36
37 36 35 36 36 37 37 37 37 37 38 38 38 39 40 39
40 40 40 41 40 40 40 40 41 41 41 41 41 40 40 40
41 40 40 40 41 41 40 40 41 40 40 40 40 41 40 40
41 40 40 41 40 40 40 40 40 40 40 39 40 39 39 39
38 38 38 38 38 38 37 37 36 36 36 37 36 36 36 35
35 35 35 35 35 34 34 34 33 33 37 38 36 34 35 40
40 39 40 34 28 33 38 29 35 36 36 35 34 34 32 33
32 33 32 29 32 32 35 36 36 36 36 36 35 36 36 35
35 36 36 38 38 37 39 38 38 39 39 39 39 40 40 40
40 41 40 42 41 41 42 41 42 42 41 41 41 41 40 41
41 40 41 41 41 42 40 41 41 42 41 41 41 41 40 39
42 41 41 42 41 41 41 41 41 41 41 40 40 40 40 41
40 39 39 38 38 38 38 38 38 38 38 38 38 37 37 37
37 37 36 36 36 36 35 35 35 37 40 40 36 36 37 41
40 39 40 35 30 36 39 31 37 37 37 35 36 35 33 34
34 33 33 31 33 33 36 37 37 37 36 36 36 37 37 37
37 38 38 39 38 39 40 39 39 39 40 40 40 41 40 41
41 41 42 43 42 42 42 42 43 42 42 42 43 42 42 43
43 42 42 43 43 43 42 42 42 41 40 40 41 40 41 41
42 42 42 42 41 41 42 41 40 41 40 41 41 40 40 40
40 39 39 39 39 39 38 38 38 38 38 38 37 37 37 37
37 36 36 36 37 36 36 36 35 39 37 38 35 32 33 34
32 34 36 29 29 33 38 33 36 37 37 36 36 35 33 35
34 34 34 32 33 33 36 36 37 37 37 37 37 37 38 37
38 38 38 39 39 39 40 40 40 40 40 40 41 41 41 42
41 42 41 42 42 42 42 42 42 42 42 41 41 42 42 42
42 42 42 42 42 41 39 40 40 41 41 41 42 43 43 41
43 41 42 42 41 42 41 41 41 41 40 41 40 40 40 40
40 39 40 39 39 38 38 39 38 38 39 38 38 38 37 37
37 37 36 36 36 36 40 39 34 34 33 30 32 22 28 34
27 31 33 30 25 31 25 26 28 34 31 35 37 36 36 36
34 35 34 31 32 34 36 36 37 37 37 38 38 37 37 38
38 39 39 40 39 39 39 39 40 40 40 40 41 41 41 41
42 42 42 42 42 43 42 42 43 42 42 42 42 42 42 41
41 41 41 40 41 40 41 41 41 42 41 40 41 41 43 40
36 39 42 42 42 42 42 41 41 41 41 41 41 40 40 40
40 40 40 40 39 39 38 38 39 38 38 38 38 38 38 38
37 37 38 38 41 41 40 34 34 36 35 30 37 24 29 36
26 31 32 34 30 35 29 25 29 28 20 23 29 32 36 36
35 34 34 33 33 36 37 38 37 37 38 38 38 37 38 37
38 39 39 40 39 39 39 40 40 40 40 40 40 41 42 42
43 42 42 42 42 42 42 42 43 43 42 42 42 40 40 41
40 41 41 42 42 41 41 41 41 42 41 41 41 41 42 41
17 27 42 42 42 41 42 41 41 40 41 41 41 41 40 40
40 41 40 40 39 40 39 39 39 39 38 39 38 38 38 39
38 41 44 43 38 36 34 33 37 38 37 34 35 26 29 38
29 33 35 35 31 32 33 29 27 27 21 22 24 25 27 32
35 35 35 33 33 35 37 38 37 38 38 38 39 39 39 39
40 39 40 41 40 39 40 40 40 41 41 40 41 41 42 42
42 43 42 43 43 42 41 42 42 42 42 41 41 41 42 41
42 42 42 41 41 41 42 41 41 41 41 41 41 41 42 41
15 25 41 42 42 42 41 41 42 41 41 41 41 41 40 41
41 40 40 40 40 39 40 39 38 39 38 38 38 38 39 40
45 46 44 36 35 35 39 37 43 46 41 39 36 27 31 38
29 36 36 35 31 32 35 30 27 28 23 23 23 24 26 27
33 37 35 33 33 35 37 38 38 38 38 38 38 38 39 39
39 39 39 40 41 40 40 40 40 40 41 41 42 41 42 41
42 42 42 41 41 41 41 42 42 41 42 41 43 42 42 41
41 42 42 41 41 41 41 41 41 41 42 41 40 41 41 40
17 23 40 42 41 41 41 41 40 41 41 42 41 42 41 41
41 41 41 41 40 40 39 39 39 39 39 38 42 45 45 51
47 48 40 41 40 46 49 47 52 51 44 44 39 31 36 38
34 39 37 38 33 33 34 30 28 30 28 25 23 24 28 26
27 34 36 34 33 36 37 37 38 38 38 38 38 38 39 39
39 39 40 41 41 41 41 41 40 41 41 41 41 41 41 41
42 41 41 41 42 42 41 42 42 41 41 41 42 42 41 41
41 41 41 41 41 42 41 41 41 41 41 41 41 40 40 41
18 24 41 42 42 42 42 42 43 51 50 48 47 44 42 41
40 41 41 40 40 40 39 39 39 39 39 39 51 56 55 51
49 54 43 47 48 57 60 60 62 54 47 49 42 35 39 38
34 44 40 41 37 35 35 31 29 33 32 29 25 26 27 28
26 28 33 34 33 36 37 38 39 38 39 39 39 39 39 39
39 40 40 41 41 40 41 40 41 41 41 41 41 41 42 42
42 41 41 42 42 41 41 41 42 42 41 41 42 42 41 42
42 41 42 42 41 42 42 41 40 41 41 41 41 41 41 41
18 27 42 43 43 42 42 41 44 55 53 53 51 48 47 46
45 42 42 41 40 40 40 39 40 39 39 42 52 55 55 54
57 55 51 52 57 67 71 73 74 59 50 53 47 38 42 39
38 46 42 41 39 37 38 34 33 34 31 31 26 29 30 31
30 26 31 34 34 37 37 39 39 39 40 39 40 40 40 39
40 40 40 41 41 40 39 40 40 40 41 42 42 41 42 41
42 42 42 43 41 41 41 41 42 42 42 40 41 42 41 41
42 42 42 41 41 41 42 42 42 41 41 41 41 40 40 41
18 29 45 44 44 43 43 42 45 55 54 52 49 49 50 51
53 47 46 46 44 42 39 39 40 39 40 41 50 56 58 60
61 54 58 56 64 75 80 89 86 61 53 53 46 40 46 42
37 44 41 45 40 39 41 34 34 37 35 33 28 29 32 33
33 29 29 33 34 36 37 40 39 39 40 40 40 40 39 39
40 39 39 40 41 41 40 41 40 41 41 43 43 42 42 42
41 42 42 41 41 41 41 41 41 41 41 41 42 43 41 42
42 41 42 41 41 41 41 41 40 40 41 40 41 41 41 41
19 30 48 46 45 45 45 45 45 47 41 48 50 51 53 54
55 48 42 46 48 47 45 43 43 42 41 45 55 59 58 62
63 57 63 61 70 83 90 100 92 61 54 55 49 44 49 41
39 47 43 45 40 40 41 36 35 37 35 35 30 30 34 31
33 32 29 38 36 37 38 40 39 39 39 39 39 39 39 39
39 40 40 40 40 40 41 41 40 41 41 42 43 41 42 42
42 42 43 42 41 42 42 41 42 41 41 41 41 43 41 41
42 41 41 41 41 42 41 41 41 41 41 41 41 42 41 41
19 30 48 47 40 41 47 50 53 31 3 11 29 40 45 47
51 43 11 11 20 29 38 40 44 49 49 51 58 59 57 66
66 59 66 67 75 89 94 107 96 63 53 54 48 47 51 42
38 47 45 46 42 39 42 36 34 39 35 34 34 30 35 32
34 32 29 36 43 38 37 40 39 39 40 38 40 39 40 40
39 40 39 40 40 40 41 40 41 41 42 42 43 41 42 42
42 41 42 42 42 41 42 41 41 41 41 41 42 43 42 41
42 41 41 41 41 41 40 40 41 41 41 41 42 42 41 41
20 28 45 48 45 43 43 52 56 32 0 0 9 19 22 22
32 42 4 0 0 0 5 11 17 28 49 56 60 55 58 70
67 62 69 74 79 94 97 112 99 64 52 56 51 47 54 45
41 48 47 44 45 39 44 38 33 38 35 36 38 35 38 36
35 34 29 32 51 41 36 40 39 39 40 40 40 40 40 40
40 40 40 41 41 41 41 41 41 41 41 41 44 42 42 42
41 42 42 42 42 42 42 42 41 42 42 41 42 43 42 41
41 40 41 41 41 42 42 41 41 41 42 42 42 41 41 39
19 17 15 22 33 42 48 53 57 34 0 0 5 12 15 17
25 42 6 0 0 0 0 1 0 16 59 59 56 54 59 73
70 65 69 79 82 95 102 116 101 64 53 57 52 49 56 49
42 52 51 48 49 39 47 43 36 37 37 39 40 39 40 41
40 38 30 31 45 53 38 40 40 40 41 40 41 40 40 40
40 41 41 41 41 41 42 41 42 42 42 42 43 43 43 42
42 42 42 42 42 42 42 41 42 42 42 42 42 43 42 41
41 41 42 41 41 42 42 42 42 42 42 42 41 42 42 42
20 12 0 0 1 5 12 22 34 31 0 0 3 6 5 10
21 42 9 0 0 0 0 0 1 42 59 56 52 55 62 76
73 69 71 83 87 96 105 116 102 66 54 58 53 49 57 51
44 53 55 49 50 42 48 41 40 38 42 39 39 42 46 42
44 40 34 33 40 66 44 40 40 40 41 40 41 40 40 40
40 41 41 40 41 41 42 41 42 42 42 43 44 42 43 42
42 42 42 43 43 43 43 43 42 42 42 42 42 42 41 41
42 42 42 42 42 42 42 43 42 43 43 42 42 42 42 42
19 11 0 0 0 0 0 0 3 24 0 0 0 0 0 3
19 40 4 0 0 0 2 3 13 63 56 54 49 56 61 77
75 70 71 82 91 97 103 111 100 68 57 60 52 52 58 55
46 54 57 51 54 47 49 43 41 40 42 39 41 44 52 46
46 41 37 35 40 65 60 41 41 41 40 40 42 41 41 41
40 41 41 41 41 41 41 41 42 42 42 43 43 41 43 42
43 43 43 43 43 43 43 43 43 43 42 42 42 42 41 43
43 43 42 42 42 42 41 43 43 43 43 43 42 42 41 41
20 11 0 0 0 0 0 0 1 21 0 0 0 0 0 0
23 43 5 0 0 0 10 16 37 60 52 51 47 58 62 76
76 73 71 82 92 104 101 108 100 69 58 59 53 53 60 55
51 56 62 57 57 52 52 46 44 40 45 38 41 45 54 50
46 47 39 39 41 61 73 43 41 41 41 40 42 40 41 40
40 41 41 41 41 41 42 42 42 42 42 43 43 42 42 43
43 43 43 44 43 43 43 43 42 42 42 42 42 43 43 42
42 42 43 42 41 42 44 43 43 43 43 42 42 42 42 42
19 12 0 0 0 0 0 0 1 18 0 0 0 0 0 0
22 45 6 0 0 2 14 22 48 54 55 53 46 56 61 76
76 72 69 81 92 107 104 104 96 70 60 62 56 54 63 60
50 61 69 56 59 56 56 49 45 39 47 40 44 48 55 55
48 50 42 42 44 60 76 55 41 41 41 41 41 41 41 41
41 41 41 41 41 41 42 42 42 42 43 42 44 43 43 43
43 44 44 43 43 43 43 43 42 43 42 42 42 43 43 42
42 42 42 42 40 42 43 43 43 42 42 42 43 43 43 43
19 11 0 1 1 12 7 0 0 16 0 3 0 0 0 1
19 47 6 0 0 3 16 26 53 49 59 57 45 52 59 74
77 72 71 78 90 109 114 98 97 74 63 66 58 55 66 67
50 65 74 57 63 58 59 54 47 42 48 38 43 48 57 60
50 53 45 47 47 63 73 71 41 41 41 41 41 41 41 40
41 40 41 41 41 42 42 42 43 43 43 43 43 42 43 43
43 43 43 43 44 43 43 43 42 42 42 42 42 43 42 42
42 43 42 42 42 41 43 44 43 43 43 44 43 42 41 39
20 12 2 12 6 7 2 0 0 17 2 1 0 0 0 5
20 47 8 0 0 2 12 31 53 51 59 63 54 50 56 69
55 45 64 75 85 105 117 101 92 77 68 69 62 58 68 72
54 65 80 63 67 59 63 59 49 43 50 41 43 48 60 61
53 57 47 46 48 61 70 78 47 41 40 41 42 41 41 41
41 41 41 41 42 41 41 41 42 42 42 42 43 43 43 43
43 43 44 43 44 44 43 43 43 43 42 42 42 42 42 42
43 43 42 42 42 42 43 42 41 41 40 42 42 39 37 36
20 12 8 7 0 4 4 0 1 18 2 0 0 0 0 6
27 50 13 1 4 4 2 25 48 50 60 69 58 52 43 14
1 12 9 22 42 68 104 108 85 79 75 74 68 64 71 77
63 70 91 69 70 64 72 67 53 44 54 40 46 47 62 58
61 62 52 48 50 60 69 73 59 41 41 41 41 41 41 41
41 41 42 42 42 42 43 43 43 43 43 43 43 42 42 42
43 43 44 43 44 43 43 43 43 43 42 43 43 42 43 42
42 42 40 40 39 41 42 39 38 38 35 33 30 26 23 21
20 13 4 1 0 0 0 0 1 29 22 14 11 9 3 1
20 56 41 32 27 23 16 25 43 51 62 73 65 46 5 0
3 22 17 20 15 13 14 36 62 69 79 79 76 67 75 82
70 74 97 81 77 75 76 75 54 46 56 43 47 49 66 62
65 69 56 50 53 55 73 71 68 40 41 41 41 42 41 42
41 42 42 42 43 42 42 43 43 42 43 43 42 42 43 44
44 44 44 44 44 43 43 42 42 41 41 42 40 40 39 38
39 40 38 37 35 33 30 27 24 22 20 19 19 20 21 22
19 12 0 0 0 0 0 0 2 43 57 46 41 41 36 27
33 59 38 31 34 37 40 45 45 53 64 74 67 13 1 2
13 15 18 15 20 28 31 34 50 62 85 83 81 67 77 91
74 74 94 91 82 78 83 83 56 52 65 46 52 50 65 65
66 74 57 51 53 52 66 67 73 45 41 40 41 41 42 42
42 42 42 42 44 43 42 43 43 43 43 43 42 43 43 43
44 43 43 43 43 42 42 40 40 39 39 40 40 38 36 33
30 28 26 23 22 21 21 21 22 23 24 25 26 26 27 28
20 13 0 0 0 0 0 0 2 45 60 49 54 56 60 59
55 56 29 18 20 22 29 34 35 54 56 68 46 3 3 3
21 22 33 48 52 56 59 58 57 84 95 96 89 70 80 101
82 72 89 103 84 87 90 90 66 56 70 49 53 51 63 68
69 76 61 51 52 50 55 65 68 51 42 41 41 42 42 42
42 42 41 42 44 42 43 42 42 42 43 43 42 42 43 43
43 42 43 42 43 41 40 41 42 35 31 29 26 24 22 21
22 22 24 24 24 25 27 28 28 29 30 31 29 24 30 33
20 24 26 18 11 5 2 0 2 45 52 48 56 58 62 63
52 45 27 20 20 19 27 27 25 48 48 61 22 11 3 2
19 32 49 71 76 86 95 110 110 105 108 104 102 81 82 106
87 72 76 113 88 94 93 101 78 61 74 55 54 54 62 70
69 78 65 51 51 48 47 61 63 58 44 41 41 41 41 41
42 41 40 41 43 42 42 42 42 42 43 43 42 43 43 42
41 39 37 35 33 30 27 29 43 30 20 22 24 25 25 26
27 28 29 30 31 31 32 33 34 34 35 35 34 32 26 34
21 31 51 54 50 44 38 31 28 48 43 47 55 58 61 63
56 48 33 21 20 19 23 24 19 37 48 62 8 8 2 0
25 48 60 93 92 94 102 117 124 114 121 114 111 94 93 113
94 78 72 120 88 102 94 109 87 68 80 58 55 56 61 69
73 82 72 53 52 44 42 50 54 57 47 41 41 40 40 41
41 40 40 40 41 42 42 42 42 41 41 40 38 36 33 30
28 27 25 24 25 26 25 25 36 28 23 27 29 30 31 32
33 33 34 35 36 35 36 36 37 37 37 35 37 37 34 26
21 32 53 58 57 56 56 56 57 55 28 28 39 44 51 55
53 48 35 23 19 17 18 19 16 27 44 49 3 1 0 0
33 60 64 110 116 115 120 133 137 120 128 125 121 102 100 122
98 87 73 125 89 112 94 115 97 75 83 64 56 53 63 69
73 84 79 53 53 45 39 42 47 55 51 40 40 39 39 37
38 39 40 39 40 39 39 37 34 32 30 28 26 25 26 26
27 28 29 30 31 31 32 30 37 31 28 32 35 36 36 36
37 37 37 38 38 38 38 38 37 38 38 37 38 39 40 35
19 29 52 57 57 56 57 58 59 52 12 2 4 10 15 24
28 41 39 21 18 13 4 5 4 13 22 20 6 0 0 0
44 65 62 101 131 129 141 144 144 128 134 135 131 108 107 121
101 93 78 128 92 114 94 115 103 84 91 69 59 54 62 67
76 86 82 55 52 45 37 37 42 53 56 37 36 37 36 27
32 37 35 33 31 29 28 27 27 27 28 29 29 30 31 32
33 35 35 35 36 37 37 34 37 32 30 36 38 38 38 39
39 39 41 40 41 41 41 40 39 38 38 39 37 39 40 40
27 30 43 47 48 50 52 54 58 49 8 0 0 0 0 7
17 39 39 19 17 12 0 0 1 4 2 4 7 0 0 0
49 69 73 100 122 129 138 145 145 136 134 141 134 115 109 124
106 99 79 124 97 113 97 114 108 87 95 77 65 55 63 65
76 90 86 57 52 47 33 36 39 52 59 38 33 32 31 22
24 27 27 26 28 29 30 31 32 33 34 35 35 37 37 37
38 39 39 39 39 40 39 32 20 16 29 39 39 40 40 41
40 41 41 41 41 41 41 40 41 40 39 39 38 39 41 41
27 29 31 33 37 41 40 43 53 46 5 0 0 0 2 1
5 40 39 18 15 9 0 0 6 6 4 0 3 0 0 0
46 71 77 113 126 135 144 145 145 143 134 143 136 123 115 123
108 104 83 123 104 115 100 112 112 91 99 83 71 58 64 66
81 91 90 59 56 51 30 34 36 44 62 38 27 27 27 26
28 30 32 33 34 35 37 37 38 38 39 40 40 39 40 40
41 41 41 40 41 41 40 28 8 5 23 39 41 42 42 42
41 41 41 42 42 42 42 41 41 41 40 38 38 37 39 41
25 27 27 28 31 39 37 41 52 45 4 0 0 0 1 1
0 38 33 10 6 0 0 0 11 13 15 25 6 1 0 0
28 55 65 112 128 139 145 145 145 145 138 144 136 129 114 121
111 106 86 117 106 110 104 107 117 96 103 84 76 59 64 65
81 88 88 61 59 53 28 33 30 38 56 50 31 32 33 34
33 36 37 37 38 39 39 39 40 40 41 41 41 41 41 41
42 42 41 34 29 23 33 25 12 6 20 38 41 42 42 41
42 41 41 41 41 41 42 40 41 41 40 40 39 37 37 40
23 26 25 30 35 41 41 47 53 44 4 0 0 0 0 0
1 40 28 0 0 0 1 1 7 17 67 57 12 3 3 0
14 41 67 123 139 145 145 146 145 145 139 143 135 132 117 122
114 105 91 111 111 106 103 105 118 100 107 87 81 66 66 67
82 86 90 63 62 52 27 34 27 32 50 58 37 36 37 38
38 39 40 40 40 40 42 42 42 42 42 43 43 42 42 42
43 43 30 5 3 6 28 24 3 1 20 38 41 42 43 41
41 41 41 41 41 41 41 41 41 40 40 40 40 37 36 37
25 23 4 5 9 15 21 28 33 37 4 0 0 0 0 0
2 41 28 0 0 0 0 3 8 42 103 65 16 7 5 0
9 37 94 136 143 145 145 144 145 144 141 143 134 133 117 125
117 107 95 107 112 104 103 102 119 99 107 88 86 70 65 64
88 88 90 63 63 54 28 31 29 27 43 61 39 38 38 39
40 40 40 41 40 41 41 42 43 42 42 42 43 43 43 43
44 43 36 26 30 34 38 29 2 1 18 38 41 41 42 40
41 41 41 40 41 41 41 40 41 41 40 40 41 40 37 35
31 25 1 0 0 0 0 0 1 22 4 0 0 0 0 0
2 41 25 0 0 0 0 5 25 91 113 75 23 10 3 0
16 55 124 144 146 145 145 145 145 145 142 141 135 135 117 123
117 108 104 105 117 103 105 99 118 101 111 89 88 72 66 65
87 94 89 65 63 51 32 24 29 25 37 57 41 39 38 40
41 41 42 42 42 42 43 43 42 42 43 43 43 43 43 42
43 43 42 41 41 40 39 32 6 1 19 38 41 41 42 41
41 41 40 41 40 41 40 40 40 40 40 40 40 40 39 36
30 25 2 0 0 1 0 0 0 19 4 0 0 9 6 0
1 40 21 0 0 0 0 5 58 124 122 90 22 18 2 3
32 89 137 144 145 144 145 145 145 145 143 139 136 135 117 122
120 109 109 106 119 98 106 96 116 104 111 87 91 76 69 68
88 99 89 67 65 50 34 18 31 24 31 48 44 40 40 41
42 42 42 42 42 42 42 42 43 42 42 43 44 43 43 43
43 43 42 42 41 40 39 34 12 0 24 37 41 41 42 41
41 41 41 40 40 41 40 40 41 40 40 40 40 40 40 36
30 25 2 0 0 6 2 0 0 17 4 0 5 21 15 3
1 39 20 0 0 0 1 17 103 135 136 106 26 39 5 20
66 123 142 145 145 145 145 145 145 145 143 139 136 132 118 123
121 111 110 108 122 97 107 99 117 109 111 89 94 80 69 68
91 99 90 73 67 48 37 18 30 27 26 41 44 41 41 41
42 42 42 42 42 42 42 42 42 42 42 43 43 43 43 43
42 43 42 42 41 40 38 34 22 12 30 39 40 41 42 41
41 40 40 40 40 40 40 40 41 40 40 40 40 39 39 37
27 24 1 0 6 19 9 2 0 16 6 0 13 22 18 7
1 39 18 1 2 0 10 82 123 139 144 121 81 29 23 68
114 137 144 145 145 145 145 145 145 145 143 136 135 131 118 121
120 114 107 107 119 98 110 97 116 114 112 90 93 83 73 69
95 101 92 74 70 45 38 19 24 28 23 35 44 40 42 41
42 42 41 42 42 41 42 42 41 42 42 42 43 42 43 42
42 42 42 42 42 39 38 34 30 29 35 40 40 40 41 40
40 40 40 40 40 40 40 40 39 39 39 39 39 39 39 37
26 24 2 0 14 26 14 7 0 21 29 21 30 31 28 23
12 42 17 0 0 2 59 122 136 139 135 111 115 90 79 109
125 141 146 145 145 146 145 145 145 145 144 133 135 132 120 123
119 116 106 107 120 100 110 97 113 120 108 90 95 85 74 70
94 100 92 79 70 40 34 24 18 29 23 31 43 40 41 41
41 41 41 41 42 43 42 42 42 41 42 42 42 42 42 42
42 42 42 41 41 40 38 35 34 36 39 41 40 40 42 40
40 40 40 40 40 41 40 39 40 40 39 38 38 38 37 36
25 23 2 0 8 14 7 4 0 23 49 47 53 51 50 51
52 56 22 1 3 11 101 133 142 141 132 125 120 93 98 116
130 143 145 145 145 145 144 145 144 144 144 134 137 134 123 123
119 118 106 103 119 96 107 101 113 117 106 92 95 84 76 71
92 100 95 83 72 40 31 24 15 27 22 27 38 41 42 42
41 42 41 41 41 42 42 41 41 41 41 42 42 43 42 42
42 42 42 42 41 40 39 37 36 38 41 41 40 41 42 41
41 41 41 40 40 39 39 38 39 39 39 38 38 37 37 36
26 26 9 3 3 3 1 1 0 21 50 49 53 52 52 57
62 61 38 23 26 35 107 126 139 145 145 144 125 87 104 121
133 144 145 144 145 144 144 145 144 145 144 135 137 132 124 122
118 120 103 99 114 95 107 98 113 121 107 92 96 89 77 70
94 97 97 83 74 40 31 24 17 24 19 25 36 41 41 41
41 41 41 41 42 42 42 41 42 42 42 42 42 43 42 42
42 43 42 41 40 40 39 38 39 40 41 41 41 40 40 40
40 40 39 39 39 38 39 38 38 38 38 37 36 35 35 34
27 27 23 7 2 3 0 0 0 20 48 48 50 50 51 58
62 61 48 41 42 43 85 114 104 94 118 137 123 82 103 121
133 143 145 145 145 145 144 145 144 145 144 136 136 132 122 123
118 120 99 94 115 96 108 95 111 121 107 96 98 87 79 69
95 97 97 81 80 39 31 20 18 21 21 21 33 40 41 41
41 41 41 41 42 41 42 42 41 42 42 42 42 43 43 43
43 43 42 41 41 40 39 38 39 40 39 39 39 39 40 40
40 39 39 38 38 38 38 37 37 37 36 36 35 35 35 35
28 29 20 2 0 2 0 0 0 21 46 43 46 46 46 48
45 44 44 44 46 46 51 79 114 129 128 111 95 87 97 120
133 144 145 145 146 145 145 145 146 145 145 137 134 133 124 128
117 120 96 94 114 93 106 92 112 123 105 98 98 89 78 66
95 99 101 82 83 42 27 17 19 18 24 20 31 39 42 41
42 42 41 42 42 42 42 42 42 42 42 42 42 43 42 42
42 42 41 41 41 41 40 40 41 41 41 41 41 41 41 41
40 39 38 38 38 37 37 37 36 36 36 35 35 35 35 34
30 29 17 3 2 2 0 0 0 22 49 43 44 45 44 44
42 41 44 45 46 48 48 49 49 68 117 134 108 98 92 111
130 144 146 146 145 145 146 145 145 145 145 138 134 134 121 129
117 118 92 92 114 90 104 91 109 122 104 96 98 90 78 63
97 102 102 79 85 44 23 12 19 14 21 17 29 39 41 42
42 42 42 42 42 42 42 42 41 41 42 42 42 41 42 42
43 42 42 41 41 41 40 41 42 41 41 40 41 41 40 40
40 39 39 38 37 37 36 36 35 35 35 34 34 33 34 33
29 28 35 35 33 27 25 22 18 32 53 45 45 45 45 45
46 48 50 47 49 52 56 56 50 47 86 129 119 111 93 100
118 141 146 146 146 145 146 146 145 146 145 138 132 134 120 130
117 116 90 87 115 92 104 91 108 121 104 94 95 93 74 63
98 102 102 80 87 47 21 11 16 16 20 16 29 38 40 41
41 42 42 42 42 43 42 42 42 42 42 43 43 43 43 43
43 42 42 42 41 42 42 42 42 42 41 40 41 41 40 39
39 38 38 37 36 36 35 35 35 34 35 34 34 34 35 33
30 30 49 56 57 53 54 57 56 57 57 49 47 47 47 47
50 53 56 49 50 53 57 55 49 46 78 122 123 127 108 97
113 131 144 146 145 146 146 146 146 145 146 137 133 134 119 128
114 115 84 86 118 89 102 90 106 121 102 95 99 93 71 61
99 106 101 80 84 43 18 10 14 17 17 16 27 38 40 41
42 42 42 43 43 42 41 42 42 42 42 43 43 42 42 42
42 42 42 42 42 42 43 42 41 41 40 40 40 39 39 38
38 37 37 36 35 34 34 34 33 33 33 33 32 32 32 31
30 30 51 62 62 62 62 62 63 63 58 43 40 39 38 39
45 52 58 52 51 49 47 48 50 48 75 107 122 133 123 92
104 125 141 144 145 146 146 146 146 146 145 135 130 136 117 128
112 111 78 82 122 87 105 86 103 121 100 93 96 93 70 61
98 104 93 82 85 43 15 11 13 17 18 20 22 38 41 42
43 42 43 42 42 42 42 41 41 41 42 41 42 41 42 42
42 42 42 41 41 42 42 41 42 41 41 41 40 39 38 38
37 36 36 34 35 34 33 34 33 32 33 32 32 32 32 31
32 29 39 47 48 49 51 52 54 56 53 20 13 11 8 10
14 25 49 52 47 29 20 26 30 31 58 72 82 92 101 75
82 123 139 145 146 146 146 147 146 146 146 134 128 135 119 126
113 109 74 83 124 83 110 85 99 119 99 94 95 89 66 62
97 106 88 85 85 43 16 11 13 14 16 19 19 38 41 44
43 43 43 43 43 42 42 42 41 41 41 42 42 42 42 41
39 39 38 37 34 35 38 41 42 41 41 40 40 39 38 37
37 36 36 34 34 34 33 33 33 32 32 31 30 30 31 30
31 27 33 37 38 37 37 37 38 38 40 13 1 0 0 0
0 5 41 52 37 7 1 3 7 14 35 54 84 102 107 92
86 117 134 141 146 146 147 146 147 146 143 133 128 132 120 124
112 102 66 86 123 82 112 83 100 119 98 98 97 87 60 63
100 106 77 84 84 43 17 12 12 13 16 17 20 36 40 42
43 42 43 43 42 40 39 37 37 38 38 41 42 42 43 36
23 20 17 16 13 14 28 41 42 41 40 40 39 38 38 37
36 35 35 34 33 33 33 33 32 31 30 30 30 29 29 29
31 28 39 44 44 44 43 42 41 41 41 17 7 0 0 0
0 15 43 49 21 0 0 0 0 3 24 70 108 122 130 127
104 107 131 140 146 146 147 146 145 146 140 130 128 129 118 122
110 94 57 88 121 77 114 83 99 119 98 96 94 87 61 67
99 103 77 84 80 40 21 14 12 13 16 16 19 33 41 41
41 35 30 28 25 23 19 16 14 15 18 34 42 42 42 35
12 9 9 10 9 10 27 42 42 41 40 39 38 38 38 36
35 34 34 32 32 31 30 30 30 29 29 29 28 27 29 28
29 28 40 46 47 47 47 47 47 48 45 17 8 1 0 0
1 15 41 46 11 0 0 0 0 0 20 78 110 126 128 126
117 107 125 136 145 147 146 146 146 147 136 132 128 126 119 118
107 84 53 93 121 77 114 75 98 118 99 93 94 81 62 69
99 97 76 85 80 36 27 14 14 14 16 16 20 31 40 42
37 16 9 10 13 12 8 6 5 4 6 29 42 42 42 34
12 9 10 10 9 10 26 41 42 41 40 38 38 37 36 35
34 34 33 32 31 30 30 29 29 29 28 28 28 28 28 27
33 32 42 48 49 48 47 47 48 50 47 16 4 1 0 1
7 7 35 43 7 0 0 0 0 0 19 53 89 114 123 124
124 119 126 138 144 146 147 146 146 145 128 132 129 125 119 115
104 72 53 100 123 81 114 75 100 120 99 92 94 75 63 72
99 96 75 87 79 31 28 19 13 12 14 14 20 29 38 41
35 12 5 9 11 12 8 5 5 4 6 26 41 41 41 32
11 9 10 9 9 10 23 41 41 40 40 39 38 37 36 35
34 33 32 31 30 29 28 27 28 28 28 28 27 27 27 27
41 40 43 44 44 44 35 22 28 43 51 19 0 0 0 2
11 5 31 41 5 0 0 0 0 0 19 49 75 103 118 125
127 131 132 141 146 146 146 146 146 143 121 134 131 125 122 111
93 63 60 102 123 90 113 75 103 119 91 95 90 75 61 74
104 95 82 89 79 30 26 21 14 10 15 14 18 29 38 41
35 11 5 9 10 12 7 4 5 4 5 25 41 41 42 33
12 10 9 9 8 9 19 39 41 40 38 38 37 36 34 33
32 31 30 29 29 28 28 28 28 27 27 28 27 27 27 26
42 42 42 42 42 41 28 0 5 30 53 30 8 0 0 3
9 3 28 40 3 0 0 0 0 0 17 56 99 114 119 130
133 138 140 143 146 147 146 146 145 135 113 133 131 121 121 103
79 63 67 109 122 93 115 77 102 119 84 97 83 66 55 77
104 88 81 90 81 26 23 29 20 11 12 14 15 28 37 40
35 12 5 8 12 11 8 4 5 4 5 25 40 41 41 35
14 10 11 12 13 12 18 36 39 38 37 36 36 35 34 32
30 30 30 30 29 27 27 28 27 26 26 26 26 26 26 26
41 41 41 41 42 42 31 1 1 25 54 27 3 0 0 1
8 5 28 40 3 0 0 0 0 0 12 76 112 121 126 134
139 143 143 145 146 146 145 145 143 122 105 132 128 119 121 100
73 64 70 118 120 97 111 81 99 119 80 100 76 65 54 82
106 84 84 87 81 25 19 31 21 13 10 14 15 22 36 39
35 14 5 7 11 11 8 4 5 5 5 24 40 41 41 37
21 17 18 17 17 16 23 32 34 35 38 38 37 35 33 33
30 30 29 29 28 27 27 26 26 26 25 25 25 25 25 25
29 30 31 35 38 41 33 2 0 21 50 17 0 0 0 0
0 0 26 42 4 0 0 0 0 0 12 91 115 126 133 137
146 145 141 143 141 140 139 137 128 103 94 134 127 116 125 96
67 67 79 123 120 95 105 80 98 118 80 100 69 63 54 86
106 76 85 87 79 27 16 31 21 16 9 11 14 20 36 37
35 15 6 6 8 8 7 4 5 4 5 23 40 41 41 37
17 12 12 8 2 2 4 7 6 9 36 37 36 34 34 33
30 29 29 28 27 26 27 26 26 25 25 26 25 24 24 24
1 2 3 22 39 41 35 4 0 17 45 14 0 0 0 0
2 0 23 45 6 0 0 0 0 0 12 92 119 131 137 141
144 142 135 132 128 125 122 116 99 74 76 133 128 113 125 95
67 75 85 123 119 103 94 76 104 119 85 100 66 57 56 88
107 71 89 90 76 27 14 31 31 15 10 12 15 17 29 39
35 19 6 5 4 3 5 5 6 6 4 21 40 42 42 38
16 10 10 6 0 2 8 27 14 2 33 36 35 34 33 32
30 29 29 27 27 26 26 26 26 25 25 25 25 25 24 24
0 0 0 22 43 41 37 6 0 13 42 19 5 4 3 6
19 14 26 49 25 15 15 19 17 17 25 80 113 126 132 139
136 133 128 121 114 107 97 82 63 63 86 131 127 112 128 83
64 71 86 122 117 107 91 72 104 117 85 95 58 56 53 89
108 66 88 93 76 30 17 24 50 16 12 9 15 16 24 34
35 17 7 6 1 0 6 5 6 5 4 21 40 42 42 37
17 9 10 6 0 0 2 8 3 2 32 36 34 34 32 31
29 28 28 27 27 27 26 26 26 25 25 24 24 24 24 23
0 0 0 20 44 41 37 9 0 7 42 42 40 35 35 42
51 47 47 49 53 53 49 50 51 53 54 65 94 110 118 123
119 114 108 103 101 96 96 85 77 84 97 128 121 113 127 75
63 72 82 125 117 104 85 75 99 118 85 92 55 54 58 97
101 57 91 92 75 32 19 19 55 20 13 7 11 16 16 29
34 18 7 6 5 6 10 5 7 6 4 21 40 42 42 38
18 9 10 6 0 0 0 0 0 1 31 36 32 31 32 31
29 29 28 28 27 27 26 25 25 25 24 24 24 24 23 23
0 0 0 15 44 41 38 11 0 3 40 50 50 44 47 55
59 53 48 45 56 60 57 56 56 59 60 59 62 76 80 87
86 85 90 95 101 109 108 92 87 93 101 129 117 111 123 75
60 78 80 129 118 104 83 77 97 117 83 90 57 53 60 98
97 52 91 92 78 35 21 17 41 39 13 9 11 14 14 19
28 20 10 7 5 2 7 5 6 6 4 19 39 42 42 38
18 9 10 4 0 0 0 0 0 1 27 19 10 9 24 30
28 28 28 27 27 26 26 25 25 25 25 24 24 24 24 24
0 0 0 13 45 41 38 13 0 2 39 50 45 41 46 53
59 55 47 41 44 47 48 47 46 47 47 48 45 47 50 51
59 69 77 84 91 93 86 74 77 85 98 126 115 108 116 74
67 72 80 128 116 104 86 80 100 116 84 86 55 53 57 99
97 51 92 94 78 38 24 20 28 54 20 12 7 12 15 11
18 21 13 9 2 0 7 7 7 7 4 19 40 42 43 39
18 9 8 1 19 26 2 0 0 0 12 21 28 18 8 30
29 28 28 27 27 26 26 25 25 24 24 24 24 23 23 23
0 0 0 11 44 41 38 17 0 1 37 43 34 36 37 44
56 55 49 44 35 32 34 34 34 34 34 35 39 39 38 35
37 41 46 53 59 61 57 59 68 78 95 118 114 111 113 75
70 68 84 129 115 100 87 80 99 115 87 79 56 55 60 102
92 50 93 92 77 40 27 23 20 48 30 20 14 9 13 12
9 15 16 12 6 4 7 6 7 7 3 18 40 41 43 38
18 8 8 7 35 53 14 0 0 9 31 34 33 30 8 26
28 28 28 27 27 26 26 25 25 24 24 24 23 23 23 23
0 0 0 8 43 42 37 21 5 12 39 39 19 22 24 29
38 40 38 43 37 34 34 36 41 42 41 41 43 44 46 50
50 49 42 39 33 32 36 29 35 56 86 113 111 108 110 82
68 70 90 131 112 95 89 79 100 112 88 75 55 52 65 102
90 49 94 89 72 43 29 26 21 34 39 27 22 17 18 21
15 9 15 15 13 9 6 6 7 8 5 16 38 41 43 40
20 9 8 5 15 24 12 0 0 16 36 34 33 31 11 23
29 28 28 28 26 26 26 25 25 24 24 24 24 24 24 23
0 0 0 6 41 42 37 31 29 36 47 38 4 0 1 3
7 14 21 42 41 45 48 45 56 59 45 37 39 39 41 46
50 54 46 43 37 37 32 13 9 16 61 111 108 109 111 85
63 71 90 130 111 93 90 82 98 111 93 70 54 49 65 101
88 47 92 89 69 47 34 28 30 30 46 33 29 32 33 35
37 17 6 12 13 10 9 6 7 8 5 16 39 41 43 39
22 10 12 3 3 2 1 0 0 16 35 34 33 31 13 22
29 28 27 27 27 26 25 25 25 25 25 25 24 25 24 24
0 0 0 4 39 42 36 39 49 52 55 40 2 0 0 0
0 2 17 45 41 47 52 44 54 59 30 7 7 9 11 15
33 52 47 49 39 35 26 13 12 13 44 109 102 111 106 78
60 66 87 128 105 93 94 83 99 110 94 68 52 48 69 102
88 48 92 87 66 51 42 31 29 29 48 33 32 30 32 36
47 42 29 22 17 13 10 9 7 7 4 14 38 40 42 40
33 23 15 6 0 0 0 0 0 11 34 34 32 30 14 24
27 26 27 26 26 25 25 25 25 25 24 24 24 23 23 24
0 0 0 2 36 41 36 40 52 54 56 45 4 0 0 0
0 0 8 46 39 44 46 18 19 34 24 0 0 0 0 0
19 49 49 42 38 34 24 18 21 15 46 111 104 109 98 75
58 64 85 120 101 92 92 87 98 109 97 68 54 41 73 102
86 47 91 86 63 52 52 39 33 36 46 41 33 34 32 29
28 33 35 35 32 29 22 13 10 8 4 13 37 39 41 39
39 17 16 26 4 0 0 0 0 10 34 34 32 28 12 26
28 26 26 26 25 25 24 24 24 24 24 24 23 23 23 23
0 0 0 1 32 40 34 36 44 43 43 34 2 0 0 0
0 0 7 46 38 44 43 7 2 23 24 0 0 0 0 0
14 46 43 38 36 32 21 23 16 13 43 107 102 110 87 76
56 61 84 113 100 95 90 88 97 107 94 66 57 40 75 102
83 48 89 81 58 55 57 53 44 42 49 49 36 28 22 25
22 22 23 21 27 33 34 31 18 11 7 13 34 38 40 40
39 20 26 44 12 0 0 0 0 7 30 29 26 14 15 24
17 16 23 25 24 24 23 23 23 23 23 22 22 21 22 22
0 0 0 0 29 40 34 31 23 21 22 12 0 0 0 0
0 0 8 46 38 44 43 7 2 19 26 0 0 0 0 0
8 40 39 36 35 27 21 26 12 13 45 105 103 110 85 80
57 54 82 111 99 99 89 91 99 111 97 68 60 43 81 102
82 45 84 75 55 62 70 62 57 50 52 59 45 24 11 8
8 12 9 13 16 18 22 24 26 20 15 16 29 29 28 24
21 8 4 8 2 0 0 0 0 0 4 3 2 0 8 15
12 28 20 24 24 24 23 23 23 22 22 22 22 22 22 22
0 0 0 0 26 39 33 30 20 19 21 10 0 0 0 0
0 0 9 46 38 44 44 7 2 18 28 0 0 0 0 0
11 41 44 36 32 22 28 24 10 11 49 103 105 113 86 83
59 46 81 109 96 98 90 97 102 112 103 69 61 39 84 104
81 47 79 72 54 65 84 79 85 80 81 72 65 35 15 3
3 4 8 13 13 12 12 15 17 16 15 13 9 2 0 0
0 0 0 0 0 0 0 0 0 0 1 0 0 0 5 11
81 106 45 23 23 23 24 23 23 23 22 22 21 22 22 23
0 0 0 0 25 40 33 31 23 22 24 10 0 0 0 0
2 0 7 45 38 44 43 7 3 17 28 2 0 0 0 2
27 41 42 33 25 22 34 20 12 9 52 104 108 115 97 92
64 40 83 102 95 96 88 102 106 113 105 69 56 40 89 105
80 49 75 64 52 72 86 84 99 99 101 94 88 41 23 17
7 8 10 22 22 19 16 12 11 11 14 12 7 10 6 6
8 7 8 8 9 11 13 15 15 15 14 6 0 1 14 16
74 77 47 8 8 14 24 23 24 23 22 22 22 22 23 23
0 0 0 0 23 40 34 31 27 25 25 10 0 0 0 0
6 1 4 44 40 46 44 14 5 16 29 7 1 0 3 16
24 36 34 27 23 30 34 20 13 12 54 102 108 116 106 101
77 39 74 99 96 100 89 102 107 116 106 74 56 41 93 105
79 47 71 58 46 79 94 81 99 107 108 101 90 44 28 20
19 16 18 22 29 28 30 27 22 22 20 14 17 18 21 21
19 19 19 18 19 18 20 20 20 19 15 6 0 0 0 0
0 0 1 5 4 13 28 28 28 28 27 26 26 26 26 26
0 0 0 0 21 40 33 31 28 27 27 11 1 4 0 0
12 12 4 42 41 47 45 25 12 14 28 8 7 8 9 24
19 30 32 28 23 39 30 19 13 15 55 100 110 114 111 108
95 50 60 95 92 101 90 98 110 119 105 78 54 44 87 104
75 47 68 55 41 79 103 84 98 113 115 108 81 43 27 16
14 17 21 28 31 30 32 34 33 34 34 30 29 26 29 26
24 20 21 19 20 20 20 21 20 19 16 7 0 0 0 0
0 0 1 6 3 12 24 21 19 18 17 16 15 13 12 12
0 0 0 0 19 39 33 31 29 27 28 15 3 7 1 1
15 23 12 42 43 48 44 26 23 15 26 4 10 16 22 28
22 27 26 28 27 45 31 19 13 16 54 101 114 119 110 111
107 70 49 92 90 102 91 93 107 120 106 85 50 44 84 107
75 46 68 52 41 85 107 91 103 116 116 115 77 34 28 23
15 18 20 25 31 31 34 38 42 44 42 44 43 38 33 30
25 23 23 21 21 22 23 23 22 20 17 8 0 0 0 0
0 0 0 3 24 29 29 29 30 31 32 33 34 36 36 37
0 0 0 0 17 38 33 31 29 28 29 29 24 29 28 29
36 42 41 52 48 48 43 19 29 18 29 16 21 25 29 22
17 17 21 28 34 49 32 20 15 17 51 102 116 121 112 112
112 87 51 89 92 104 93 91 105 124 102 87 48 48 77 107
75 47 64 50 42 88 109 97 103 115 119 117 75 30 16 19
14 18 20 22 30 30 31 30 29 31 33 35 35 34 28 32
32 26 21 21 25 25 24 24 22 21 19 9 0 0 0 0
0 0 0 7 45 45 45 45 45 45 44 44 44 44 45 45
0 0 0 0 16 38 33 30 30 29 29 41 49 51 51 53
57 61 62 64 54 48 42 10 22 21 33 32 33 24 24 8
9 14 23 29 41 48 31 21 18 20 45 106 118 119 113 111
116 99 55 82 93 103 94 93 103 125 101 93 44 49 69 104
71 49 63 46 41 91 115 98 105 122 125 123 76 32 19 16
10 12 16 20 31 35 30 25 32 32 36 36 33 31 31 32
28 25 27 27 25 25 27 25 24 22 21 10 0 0 0 0
0 0 0 9 45 46 46 45 45 45 45 44 44 45 45 45
0 0 0 0 15 38 32 30 30 29 28 39 53 54 54 55
58 62 63 63 58 48 42 5 9 16 35 32 22 9 24 4
5 14 25 30 48 49 33 23 22 22 39 105 118 118 117 112
117 105 60 75 93 102 99 95 99 126 100 99 47 49 65 104
69 49 58 42 43 96 119 104 102 121 126 122 73 32 20 17
12 14 13 23 29 24 22 27 33 35 34 36 28 20 19 24
31 30 31 33 33 34 31 29 25 23 22 9 0 0 0 0
0 0 0 12 46 45 46 44 45 44 45 44 45 44 44 45
0 0 0 0 14 37 32 29 29 29 28 29 38 38 37 37
39 43 44 43 40 43 41 8 13 23 31 32 17 14 26 9
8 17 29 31 53 52 33 25 26 25 36 105 112 116 119 113
118 110 65 71 94 103 101 96 97 127 100 101 51 46 60 102
66 50 57 42 46 104 123 103 103 122 124 112 66 37 14 15
11 17 18 25 25 24 25 26 28 32 31 28 26 19 15 23
33 32 32 28 33 32 33 30 28 24 23 9 0 0 4 8
0 0 0 15 46 46 45 45 45 44 45 44 45 45 44 45
0 0 0 0 13 36 31 29 29 30 28 23 20 20 20 20
23 29 32 32 30 39 44 18 19 25 20 16 16 15 30 20
17 23 29 33 57 50 33 28 31 28 33 107 109 116 120 112
118 113 70 65 95 103 102 96 95 126 101 101 56 42 59 97
63 54 55 42 51 107 126 105 99 125 126 96 48 41 20 12
8 10 15 18 19 19 21 21 28 30 30 24 18 15 18 21
31 33 30 29 33 32 34 28 26 25 24 10 0 0 33 41
5 0 0 18 47 45 45 45 45 45 44 44 44 45 45 45
0 0 0 0 12 35 30 28 28 29 29 25 22 21 21 22
24 30 32 33 32 41 39 25 23 22 15 7 11 13 25 19
9 24 35 35 58 51 34 30 35 27 30 104 105 107 118 112
117 112 75 63 93 104 106 96 99 123 99 103 60 38 55 97
64 53 55 45 56 110 129 112 97 123 124 63 29 42 19 15
9 10 12 15 17 21 21 20 28 26 26 23 13 20 19 25
32 30 28 30 32 31 31 29 26 24 24 8 0 0 15 17
1 0 0 22 47 45 45 44 44 45 45 44 44 45 44 45
0 0 0 0 12 35 30 28 28 29 29 29 26 25 25 26
28 32 34 35 34 33 25 31 20 23 22 9 14 13 18 29
13 22 32 38 57 52 35 32 39 27 32 98 95 99 103 94
114 114 82 63 91 104 108 97 106 126 103 107 73 42 57 92
69 59 61 44 57 112 130 120 97 115 85 23 25 42 21 12
10 12 11 13 21 20 20 27 27 28 23 20 13 21 22 26
29 29 28 33 33 24 17 26 25 27 22 7 0 0 0 0
0 0 0 25 46 45 45 45 44 44 44 44 44 44 44 44
0 0 0 1 16 36 31 27 28 30 29 29 27 27 27 27
30 34 36 36 32 30 31 29 19 16 21 22 24 27 28 39
50 29 33 41 58 50 35 34 41 30 34 88 91 93 87 43
83 110 87 61 89 102 110 90 110 125 107 109 79 47 54 84
68 63 63 44 56 112 123 120 84 40 16 12 20 42 26 13
8 8 11 15 23 18 22 29 24 28 22 18 18 22 20 24
29 28 30 36 27 21 14 24 26 30 25 8 0 0 1 0
0 0 0 28 46 45 45 45 45 45 44 44 44 44 44 44
12 14 16 17 23 29 27 27 28 29 29 29 27 27 26 27
30 33 32 32 32 30 30 28 24 24 19 10 9 12 11 31
36 25 40 45 60 47 35 34 42 29 34 74 90 99 79 29
25 56 76 61 85 103 112 89 108 125 106 109 83 49 55 81
71 65 65 48 58 107 104 71 27 7 9 10 15 43 26 14
10 8 10 18 19 16 19 24 26 21 18 13 20 24 22 26
25 31 37 37 23 18 17 22 27 31 27 16 0 0 0 0
0 0 0 31 45 45 45 45 44 45 44 45 44 44 44 44
19 21 22 22 24 25 27 27 28 29 30 29 28 27 27 27
29 28 28 31 33 33 33 29 25 25 15 10 10 15 14 24
39 31 45 50 63 44 36 37 43 30 35 63 94 105 68 38
15 15 14 34 77 99 113 90 108 127 106 111 90 51 55 77
70 70 72 52 56 60 32 19 15 11 11 10 16 41 28 16
11 11 12 17 16 22 26 23 26 20 21 13 19 23 23 24
24 32 35 32 20 13 19 21 24 27 26 20 4 0 0 0
0 0 0 26 45 44 44 44 44 44 45 44 44 44 44 44
19 20 21 21 22 24 26 26 27 28 28 28 29 28 28 28
27 25 23 30 32 33 31 27 26 21 14 10 13 12 16 18
41 41 46 58 65 43 37 39 45 31 35 49 100 105 56 49
15 15 3 4 42 92 112 89 105 127 106 112 93 55 56 78
71 75 79 56 49 42 21 16 11 5 5 13 13 42 29 16
10 9 12 20 20 24 21 22 22 18 19 14 18 23 26 20
25 27 31 25 19 13 18 21 24 25 27 21 13 0 0 0
0 0 0 14 42 44 44 43 44 44 44 43 44 43 44 43
18 18 20 20 21 23 23 25 27 28 28 28 28 28 28 27
25 26 18 29 29 28 27 25 25 13 16 11 10 15 21 20
34 55 51 67 61 41 37 41 50 31 36 41 104 105 51 57
12 12 4 1 26 86 105 70 79 125 110 113 97 57 57 67
78 80 79 56 50 43 23 14 10 7 30 32 33 54 47 31
28 36 41 29 21 23 16 21 19 19 14 12 19 21 20 19
25 22 24 17 14 15 20 20 23 25 26 25 23 3 0 0
0 0 1 23 29 44 44 44 43 43 43 43 43 43 43 43
7 6 6 10 14 18 19 20 27 27 28 27 27 28 27 28
26 26 18 26 28 27 26 24 18 8 14 13 11 20 23 20
30 63 55 77 54 43 37 42 51 32 37 34 106 110 41 64
14 12 3 2 27 72 97 65 73 122 112 112 99 60 57 61
83 84 74 59 51 44 22 12 8 15 30 17 19 41 40 29
20 25 29 51 18 17 17 21 16 18 9 14 18 19 17 21
21 19 20 16 10 17 20 22 26 24 26 26 25 22 22 7
0 0 2 37 21 39 43 43 44 44 43 43 43 43 44 44
0 0 0 7 13 20 22 21 25 26 27 27 28 28 27 28
25 25 19 17 27 24 21 28 14 6 16 13 12 22 18 20
27 64 57 83 50 45 37 44 53 32 37 34 108 116 41 70
15 11 2 6 23 57 95 66 74 117 109 112 96 64 56 62
86 87 76 61 46 45 27 13 5 19 22 7 11 31 24 17
4 9 8 29 16 15 20 20 16 20 8 16 18 16 23 23
21 20 20 17 8 18 19 19 27 26 26 23 24 67 139 67
0 0 4 40 32 24 43 43 43 43 43 43 43 43 44 43
0 0 0 7 11 18 21 22 24 25 26 26 27 26 28 26
25 23 17 14 25 22 18 27 21 6 14 11 10 17 15 20
29 63 64 85 51 46 38 43 56 32 38 34 110 121 45 69
16 12 2 14 14 43 91 73 72 111 111 112 93 67 55 63
88 91 79 64 43 51 31 13 4 33 42 12 9 27 34 22
6 11 8 34 27 15 22 17 16 19 9 13 14 16 24 22
21 22 19 16 10 16 14 19 26 26 24 22 22 44 137 66
0 0 6 42 42 23 34 43 43 43 43 43 43 42 43 43
0 1 5 9 11 17 22 24 25 27 28 28 28 21 28 27
25 22 15 10 23 21 18 13 17 19 14 12 13 17 16 17
31 60 77 80 52 47 43 42 59 36 41 35 103 125 56 66
21 12 8 9 10 34 86 81 67 109 111 109 95 71 55 64
86 91 82 63 43 53 36 11 2 6 28 7 6 20 33 22
4 12 12 20 19 19 22 17 16 16 9 11 13 17 20 23
21 19 15 12 9 16 13 20 25 26 22 21 24 26 39 8
0 0 8 42 42 29 12 26 43 42 42 42 42 42 43 43
8 9 8 9 12 18 23 25 27 30 31 31 29 18 25 27
25 19 17 8 19 19 16 14 12 14 11 7 11 14 15 12
31 61 86 73 53 48 47 41 59 38 43 36 96 122 65 64
27 14 14 4 10 24 77 84 63 107 114 105 90 73 55 65
85 91 81 67 39 48 48 13 5 6 78 43 33 45 57 47
38 41 39 37 17 21 19 14 16 12 9 8 11 14 17 19
20 18 13 11 14 15 13 20 23 26 23 19 18 16 13 0
0 0 7 33 28 7 8 6 42 42 42 42 42 42 42 41
13 13 12 12 16 19 22 24 29 29 30 33 24 17 20 23
21 19 17 7 14 17 14 15 14 7 8 7 13 15 17 15
35 61 86 69 55 49 47 40 56 42 44 36 89 122 72 61
31 17 12 2 9 17 67 85 57 99 118 104 86 78 52 68
86 90 83 70 38 41 48 18 5 1 20 24 18 25 39 24
17 21 24 12 14 20 18 13 15 9 11 11 11 15 16 16
20 15 12 10 15 14 13 20 22 25 27 18 8 8 11 0
0 0 0 8 16 25 35 5 39 41 42 42 41 41 41 42
13 13 14 14 14 14 14 15 30 30 29 31 23 19 14 20
20 17 15 7 11 14 13 15 13 10 9 7 11 14 15 15
32 61 85 69 58 49 47 42 53 43 46 39 81 117 80 60
28 21 11 5 8 17 61 87 48 96 115 95 82 77 53 70
85 90 84 71 39 38 41 21 7 4 14 15 6 15 34 16
9 8 13 11 18 21 20 14 16 7 10 13 10 14 15 15
17 15 10 10 15 14 13 17 21 28 29 12 5 6 9 1
0 0 0 2 6 17 27 3 32 42 41 41 41 41 41 41
5 5 6 7 7 8 8 12 29 32 28 25 20 19 13 18
22 19 15 8 8 13 14 15 14 8 9 7 9 15 16 18
32 62 77 68 60 51 48 48 48 43 47 42 75 115 81 59
30 24 9 6 8 18 51 88 46 102 115 90 74 78 51 69
83 89 83 78 35 43 39 30 7 3 16 9 5 14 34 14
10 10 13 12 18 21 16 14 15 6 10 11 9 13 15 15
15 13 11 8 13 12 11 13 21 29 20 10 5 7 6 3
0 0 0 0 0 1 1 0 8 30 40 41 40 41 41 40
