P2
128 120
151
39 38 38 38 37 37 36 35 35 34 34 34 33 32 32 32
31 31 31 30 29 28 28 27 28 27 26 26 25 25 24 24
23 22 22 22 22 21 21 21 20 19 17 16 15 14 15 18
18 20 21 17 13 21 25 23 22 21 20 19 18 16 14 11
11 10 9 13 15 14 14 12 14 17 17 18 19 19 20 20
21 21 21 22 22 23 23 23 23 24 25 24 25 26 25 26
26 27 28 28 28 30 30 31 31 31 32 33 33 33 34 34
34 34 34 36 34 35 35 35 36 36 36 36 37 36 36 36
39 38 38 37 37 36 36 35 35 34 34 34 34 33 32 32
32 31 30 30 29 29 28 28 27 27 27 26 25 25 25 25
24 23 23 23 23 22 22 21 20 19 19 17 16 15 17 20
21 22 23 18 12 20 27 24 22 22 21 20 19 18 16 14
14 12 10 13 15 16 13 15 17 18 19 19 20 20 21 21
21 22 22 23 23 24 25 25 26 25 26 26 26 27 26 27
28 28 30 29 30 30 31 31 32 32 32 32 33 34 34 35
34 35 35 36 35 36 36 36 36 36 36 36 36 36 36 36
39 38 38 37 37 36 36 35 34 35 34 34 33 33 33 32
32 31 31 30 30 29 28 28 28 27 27 26 26 25 25 25
24 24 24 24 23 22 22 22 21 20 19 18 17 17 18 22
23 24 25 19 11 20 28 25 23 22 21 21 20 19 16 16
17 14 11 11 16 16 15 16 18 20 21 21 22 22 23 22
23 23 24 24 24 24 25 26 26 26 25 26 27 28 28 29
29 30 31 30 31 31 32 32 33 33 33 33 33 33 34 34
35 35 35 36 35 35 36 36 36 36 35 36 36 37 37 37
39 38 38 37 37 37 36 36 35 35 34 34 34 33 33 32
32 31 30 30 29 29 29 28 28 27 27 27 27 26 26 25
25 25 24 24 24 23 24 23 22 21 20 19 18 18 19 23
25 25 26 20 12 20 28 26 24 24 23 21 21 20 17 18
18 16 12 10 17 15 16 18 20 21 22 22 23 24 23 23
24 24 24 25 25 25 26 26 26 27 27 27 28 28 29 29
30 31 32 31 32 32 32 32 33 33 34 34 34 34 34 35
35 35 36 37 35 36 35 36 37 36 36 37 37 36 36 36
38 38 38 38 38 37 36 36 35 35 35 35 34 34 33 33
32 32 31 31 30 30 29 28 28 28 28 27 27 26 26 26
25 25 25 25 24 23 23 23 22 22 22 21 20 20 21 25
26 26 27 21 13 20 29 26 24 24 24 22 21 20 18 18
18 17 14 10 18 16 18 20 22 22 23 23 24 24 25 25
25 25 25 25 25 26 27 27 28 28 28 29 29 30 30 30
30 31 32 31 32 32 32 33 34 33 33 34 34 34 34 35
36 35 36 37 36 36 37 37 37 36 36 35 35 37 37 37
38 38 38 38 37 37 36 36 36 35 35 35 34 34 33 33
32 31 31 31 31 30 29 29 29 28 28 27 27 27 27 26
26 25 25 25 24 23 23 23 22 22 22 21 21 21 22 26
27 27 27 21 15 19 29 27 25 25 24 23 22 21 19 20
20 19 16 12 18 17 20 21 22 22 23 24 25 25 25 25
25 26 26 26 27 27 27 28 29 29 29 30 30 30 30 31
31 31 33 32 33 32 33 33 34 34 34 33 34 34 36 36
36 36 36 37 36 36 35 34 35 36 36 37 37 37 37 37
39 38 38 37 37 37 37 36 36 35 35 34 34 34 34 33
32 32 31 31 31 30 29 29 29 28 28 28 27 27 26 26
26 26 25 25 24 25 24 23 23 23 22 22 22 23 23 27
28 28 28 22 16 18 30 28 26 25 24 24 23 21 20 21
20 19 17 13 19 18 21 22 24 24 24 24 25 24 25 25
25 26 27 26 27 27 28 28 29 29 29 30 30 30 30 31
32 32 33 33 33 33 33 33 34 34 34 34 34 35 36 36
35 35 35 34 34 35 36 37 36 36 37 37 37 37 37 37
39 39 38 38 38 38 37 36 36 35 35 35 35 33 33 32
32 32 31 31 30 30 30 29 29 29 28 28 28 28 27 27
27 26 25 26 25 24 24 24 24 23 23 23 23 24 24 28
29 29 29 23 17 18 29 28 26 25 25 24 24 23 23 22
21 21 19 14 19 20 23 23 24 23 24 25 25 26 26 26
27 27 28 28 28 28 29 29 29 29 30 30 30 30 31 31
32 32 34 33 33 33 33 34 35 35 33 35 35 35 35 34
35 35 35 36 36 36 36 36 36 36 36 37 37 37 38 38
39 38 37 38 38 37 37 36 36 36 36 35 35 34 34 33
32 32 32 31 32 31 31 30 29 29 29 28 28 27 27 27
26 26 26 25 25 25 24 24 24 24 24 23 24 25 26 29
29 30 29 23 18 16 29 29 26 26 26 25 25 25 25 22
22 22 20 16 20 20 23 24 24 25 26 26 26 27 27 27
27 27 28 28 29 29 29 29 30 30 30 30 30 30 31 32
32 32 34 33 33 33 34 34 34 35 34 32 34 34 36 35
36 36 37 36 35 37 37 36 36 37 37 37 37 37 37 37
39 38 39 38 38 37 36 36 36 35 35 35 34 34 34 34
33 33 33 32 31 31 31 30 30 30 30 29 28 28 28 27
26 26 26 26 26 25 25 24 24 24 24 24 24 25 26 29
29 30 29 25 20 17 28 28 26 26 26 26 25 25 24 23
23 22 21 18 21 21 24 25 25 25 26 26 26 27 27 28
28 28 29 29 30 29 30 30 30 30 30 30 31 31 31 32
32 32 34 34 34 34 34 33 33 33 35 36 36 35 36 36
36 36 36 36 37 37 37 37 36 37 38 38 38 38 38 38
39 39 38 38 38 37 37 36 36 36 36 35 34 35 34 33
33 33 33 32 32 31 31 30 30 30 29 29 28 28 28 28
27 26 26 26 26 26 25 25 25 25 24 25 25 25 26 29
30 31 30 24 20 17 28 29 27 25 27 26 26 25 25 24
23 23 22 19 22 22 25 26 26 26 26 27 27 27 28 28
28 28 29 29 29 30 30 30 31 31 31 31 31 32 32 33
33 33 34 33 33 33 33 34 35 35 35 37 36 36 36 36
36 36 36 36 36 36 38 37 37 37 38 38 38 38 38 38
40 39 38 38 37 37 37 36 36 36 35 35 35 35 35 34
33 33 32 33 32 31 31 30 30 30 30 29 29 28 28 28
28 28 27 27 27 27 26 26 25 25 25 25 26 26 26 30
31 31 31 26 22 14 24 29 28 27 27 27 26 26 26 24
24 24 23 20 23 23 26 26 26 27 27 27 28 29 29 29
29 29 30 30 30 30 31 31 31 31 31 31 32 32 32 32
31 32 33 34 35 34 35 35 35 36 36 37 37 36 36 36
37 37 37 37 37 37 37 37 37 38 37 37 37 38 38 38
39 39 39 38 38 37 37 37 37 36 36 36 35 35 35 34
35 33 33 33 33 32 31 30 31 31 30 29 29 29 29 28
28 28 28 27 27 27 26 26 26 25 26 26 26 27 28 31
32 32 31 25 19 12 25 31 29 28 28 27 27 26 27 25
25 24 24 21 25 25 27 27 28 28 29 28 29 29 29 30
29 29 31 31 30 31 31 32 32 32 32 32 32 32 32 32
34 34 34 34 34 35 36 35 36 36 36 37 36 37 37 37
37 38 38 37 37 37 39 38 37 38 38 37 38 38 37 38
39 39 38 38 38 37 37 36 36 36 36 36 35 35 35 34
34 34 34 33 32 32 31 31 31 31 30 29 29 29 29 28
28 28 28 28 27 27 27 26 26 26 25 25 25 27 27 32
32 32 33 26 21 19 27 32 30 30 29 28 28 27 27 25
26 25 24 21 26 25 28 28 28 28 29 28 29 29 30 29
30 30 31 31 30 31 32 32 32 32 31 32 32 33 34 34
34 35 35 35 35 36 36 36 36 36 36 37 36 37 37 37
37 37 38 37 38 37 38 38 38 38 38 38 37 38 38 38
39 38 39 38 37 38 37 37 36 36 36 36 36 36 35 34
35 34 33 33 33 33 32 31 31 31 30 30 30 30 30 29
29 28 29 28 27 27 27 27 26 27 26 26 26 27 28 32
33 33 32 26 22 23 25 32 30 30 29 29 28 28 28 26
26 26 25 22 27 26 28 29 28 28 29 29 30 29 30 30
30 31 31 31 31 31 31 32 32 32 33 34 34 34 34 34
34 34 35 35 35 35 36 36 36 36 36 38 37 37 37 37
37 38 37 37 38 38 38 37 37 38 38 38 39 38 38 39
38 38 38 38 38 37 37 37 37 36 36 36 36 35 36 35
35 34 34 33 33 32 33 32 31 30 31 30 30 30 30 30
29 29 28 28 27 28 27 27 27 27 27 26 27 28 29 33
33 34 33 28 23 25 25 32 31 30 30 30 28 28 28 26
26 26 26 22 27 27 29 29 29 30 30 30 30 30 31 30
30 30 31 30 31 31 32 32 33 33 34 33 34 34 34 34
34 35 35 35 36 36 36 37 37 37 37 38 37 38 37 37
38 38 38 38 38 38 37 38 37 38 38 38 39 38 38 38
39 39 38 38 37 38 37 38 38 37 37 36 36 36 36 35
35 34 34 34 33 33 32 32 32 31 32 31 31 30 30 30
30 29 29 28 28 28 28 27 27 27 27 27 27 28 29 33
33 34 33 27 23 26 25 33 32 31 31 30 29 29 29 27
27 27 27 23 28 27 29 30 29 29 30 30 30 30 30 31
31 31 32 32 32 33 33 33 34 34 34 35 34 34 35 35
34 35 35 35 36 36 36 37 36 37 37 38 38 37 38 38
38 38 39 39 38 38 38 38 37 38 38 37 38 38 38 39
38 39 38 39 38 37 37 38 37 37 37 36 36 36 36 36
35 35 35 34 33 33 33 33 33 33 32 31 32 31 30 30
30 30 29 29 28 29 28 28 28 27 28 27 28 29 30 34
34 34 34 28 24 28 24 33 32 32 31 30 30 29 30 28
28 28 28 23 28 27 30 30 30 30 30 30 30 31 30 31
32 32 32 32 32 33 33 34 34 35 35 35 35 35 36 36
36 36 36 36 37 36 37 37 37 37 38 38 38 37 38 38
38 38 38 38 38 38 38 38 38 38 39 39 39 39 39 39
39 39 39 39 39 38 38 38 38 37 37 37 37 36 35 35
35 35 35 34 34 34 33 33 33 32 33 32 32 31 31 30
30 30 30 29 29 29 29 28 28 28 27 28 28 30 30 34
35 35 35 29 24 28 24 32 33 32 32 31 31 30 31 29
29 29 28 26 29 27 31 30 30 30 31 32 31 32 32 32
31 33 33 33 34 34 34 34 34 35 35 35 35 35 36 36
36 36 36 36 36 37 37 38 38 38 38 38 39 38 38 38
38 38 38 37 37 38 38 39 38 38 39 38 39 39 39 39
39 39 39 39 39 38 38 38 38 37 37 37 37 36 36 36
35 35 35 35 35 35 34 33 33 33 32 32 32 32 32 31
31 30 30 30 30 29 29 30 29 29 29 28 29 30 31 35
35 35 35 30 25 30 25 32 33 33 33 32 31 31 32 30
29 29 28 25 28 26 31 31 32 32 32 32 32 32 33 32
33 33 33 33 34 34 34 34 34 34 35 36 36 37 36 36
36 36 37 37 37 37 38 38 38 38 38 39 38 38 38 37
37 38 38 39 38 37 39 38 38 38 39 39 38 39 39 39
40 39 39 39 38 38 38 38 38 38 38 37 37 37 36 36
36 36 35 35 35 35 35 34 34 33 33 33 33 32 32 32
32 31 31 31 30 31 30 30 30 29 30 29 30 30 31 35
36 36 36 31 25 31 27 33 34 34 34 32 32 32 33 30
30 30 29 26 30 28 32 31 32 32 33 33 33 32 33 34
34 34 35 35 35 35 35 36 36 35 36 37 36 36 37 37
37 36 37 38 38 38 38 38 39 38 38 37 38 38 38 39
39 39 39 39 41 38 39 39 39 39 39 39 39 39 39 39
39 39 40 39 39 38 38 38 38 38 37 37 37 38 37 37
36 36 36 35 35 35 35 34 34 34 34 33 33 33 33 32
32 32 31 32 31 31 30 30 30 30 30 30 31 31 32 36
36 36 36 30 25 31 28 32 34 34 34 33 32 32 33 31
30 30 30 26 30 30 32 33 32 33 33 34 33 34 34 34
34 34 34 34 34 35 35 36 36 36 36 37 37 37 38 38
38 38 38 39 38 38 38 37 38 38 39 39 39 39 39 39
39 39 39 39 41 39 39 39 39 39 40 39 39 39 40 40
40 40 40 39 39 39 39 38 38 38 38 37 37 37 37 37
36 36 36 36 35 35 35 34 34 34 34 34 33 33 33 33
32 32 32 32 32 31 31 31 30 30 30 30 31 31 33 36
37 37 37 32 26 33 30 32 34 34 34 34 32 32 33 32
32 31 30 27 31 31 33 33 33 33 34 35 35 35 35 34
34 34 34 35 35 36 36 36 36 36 37 38 37 37 37 38
38 38 38 38 39 39 39 40 40 39 39 40 39 40 39 39
39 40 40 40 40 39 39 39 39 40 39 40 39 39 40 39
40 39 39 39 39 39 39 39 39 38 39 38 37 38 38 37
37 36 36 36 36 36 35 35 35 34 34 34 34 34 33 33
32 33 33 33 32 32 31 31 31 31 31 30 31 32 33 37
38 37 37 32 26 33 31 31 34 34 35 34 34 33 33 32
32 31 31 28 30 31 33 34 34 34 35 35 35 35 35 35
35 35 35 35 36 36 36 37 37 37 38 37 37 37 38 37
38 38 39 39 39 39 40 40 41 40 39 39 40 40 40 40
40 39 40 41 41 40 39 39 40 39 39 39 40 40 39 39
39 39 39 39 39 39 39 38 38 38 38 38 38 37 37 37
37 37 36 36 36 35 35 35 35 34 34 34 34 34 34 33
33 33 33 33 32 32 31 31 30 30 30 31 31 32 33 37
38 38 38 33 27 33 33 30 35 35 35 35 33 33 32 32
31 31 30 27 30 30 34 34 34 34 35 35 35 35 36 35
35 35 36 36 36 36 37 37 37 36 37 37 37 37 37 38
38 38 39 40 39 40 39 40 40 40 40 40 40 39 39 40
40 40 40 40 40 39 39 39 39 39 40 39 39 39 39 40
39 39 39 39 39 39 38 38 38 38 38 38 37 38 37 37
37 36 36 35 35 35 35 35 35 34 34 34 34 34 33 33
33 32 32 32 32 32 31 31 30 31 30 31 31 32 33 37
38 38 38 33 27 33 34 29 36 35 34 34 34 33 31 32
31 31 31 29 31 30 34 34 35 34 34 35 34 35 35 35
36 35 36 36 36 36 36 36 37 37 37 37 37 38 38 38
38 38 38 39 39 39 39 39 39 39 39 40 40 39 39 40
40 40 40 40 40 40 39 39 39 39 39 39 39 39 39 39
39 39 39 38 39 38 38 38 38 39 38 38 38 37 37 37
37 36 37 36 36 35 35 35 35 35 34 35 34 34 33 34
33 33 32 33 32 32 32 31 31 31 31 31 32 32 33 37
38 39 38 34 28 33 36 29 36 36 35 34 34 33 31 31
31 32 31 28 30 31 34 35 34 35 35 36 35 35 36 36
35 35 35 36 36 36 36 37 37 36 37 37 37 38 38 38
39 39 39 41 40 40 39 40 40 39 40 39 39 40 39 39
40 39 39 38 40 40 39 39 39 39 39 39 39 40 39 40
39 39 38 39 39 39 39 39 38 38 38 37 38 37 38 38
37 37 36 36 36 36 36 35 35 35 35 34 35 34 34 34
33 33 33 32 32 32 32 31 31 31 31 31 32 33 34 37
39 39 38 34 27 33 37 28 35 36 35 34 34 34 32 33
32 32 32 29 31 32 34 35 35 34 35 35 35 35 35 35
34 35 36 37 37 37 38 37 37 37 38 38 38 38 38 38
39 39 39 40 39 39 40 40 40 39 40 40 40 40 40 40
40 39 40 40 39 41 39 39 40 39 40 39 39 40 38 38
39 39 39 39 38 39 39 39 39 38 38 38 38 38 38 37
37 37 37 37 36 36 36 36 36 36 35 35 35 35 34 33
34 34 32 33 33 32 32 32 32 31 31 32 32 33 34 38
39 39 38 34 27 32 39 29 35 35 35 35 34 34 32 34
32 33 32 30 31 32 34 35 35 34 34 35 35 35 36 36
36 36 36 38 37 36 38 38 37 37 38 37 39 39 39 39
39 39 39 40 40 40 40 40 40 40 40 40 40 39 39 39
39 40 39 40 40 40 39 40 39 39 39 38 38 39 40 39
40 40 39 39 39 39 39 38 38 38 39 38 38 38 37 37
37 37 37 37 36 36 36 36 36 35 35 35 35 34 34 34
34 34 34 33 33 33 32 32 32 32 32 32 33 33 34 37
39 38 39 34 27 33 40 30 34 37 36 35 35 34 33 34
33 33 32 30 31 31 33 34 35 34 35 35 35 35 36 36
37 36 37 38 38 37 38 37 37 38 38 38 38 39 39 39
39 40 40 40 40 39 40 40 40 40 40 40 40 40 40 40
40 40 40 41 40 38 37 37 38 38 38 38 40 39 41 39
41 40 39 39 39 39 39 38 38 38 39 38 39 38 38 38
38 37 37 37 37 37 36 36 36 36 35 35 35 35 35 34
34 34 33 33 33 33 33 33 33 32 32 32 33 34 34 38
39 40 40 35 27 33 41 32 33 36 36 35 35 35 34 34
33 33 33 30 31 32 35 36 36 35 36 36 36 36 36 37
37 37 37 38 37 38 37 37 38 38 38 39 39 39 39 39
40 40 39 40 40 40 40 40 41 40 40 40 40 40 40 39
39 39 39 38 38 38 38 39 39 39 39 37 39 40 40 38
34 37 40 40 39 39 39 39 39 39 38 38 38 38 38 38
38 38 38 38 37 37 37 37 36 36 36 35 35 36 35 35
35 34 34 34 33 33 34 33 33 33 33 33 33 34 35 38
40 40 40 36 27 34 41 34 33 37 37 36 36 35 33 34
33 33 33 31 31 34 35 36 36 36 36 36 37 36 37 37
38 38 38 39 38 38 38 38 38 38 39 39 39 39 40 39
40 40 40 41 41 40 41 40 41 41 40 40 39 39 37 38
39 39 40 40 40 40 39 40 39 40 40 40 39 39 40 38
15 25 39 39 39 40 40 39 39 38 39 39 38 38 38 38
39 38 38 37 37 37 37 37 37 36 36 36 36 36 35 35
35 35 34 35 34 34 33 33 33 33 33 33 34 34 35 39
40 40 39 36 27 33 42 36 32 38 38 37 36 35 35 35
33 34 34 32 32 35 36 37 36 36 36 37 38 37 37 37
37 38 38 39 39 38 38 39 39 39 39 38 40 40 40 41
41 41 41 41 41 40 40 40 40 40 39 39 40 39 39 40
40 40 41 39 40 39 39 39 40 40 39 39 40 40 39 39
13 23 39 40 40 40 40 39 39 39 39 39 39 39 38 39
39 38 38 38 38 37 37 37 36 37 37 36 36 36 36 36
36 35 35 34 35 34 34 34 34 33 33 33 34 34 35 39
40 39 39 36 28 34 42 38 31 38 37 37 36 36 35 36
34 33 34 32 32 35 36 37 37 36 36 37 37 38 38 38
38 38 38 39 39 38 39 39 38 39 39 40 40 40 40 40
41 41 40 40 40 40 39 40 40 40 40 40 41 40 40 40
40 39 40 40 40 39 39 39 39 39 39 39 39 39 40 39
16 21 39 40 40 40 40 40 38 39 40 41 40 40 40 39
39 39 38 38 38 37 38 37 37 36 37 36 40 42 40 38
36 36 35 35 35 35 34 34 34 34 34 34 34 35 36 39
40 40 40 37 29 34 43 39 30 38 38 38 37 36 36 36
34 34 34 33 32 35 36 37 37 37 37 38 38 38 38 38
38 39 39 40 39 39 39 39 40 39 40 40 40 41 40 40
40 40 40 40 40 40 40 41 40 40 39 40 41 40 40 40
40 41 40 41 41 40 40 39 39 40 39 40 39 39 39 39
16 23 39 40 40 40 40 39 40 48 48 47 45 42 40 40
38 38 38 38 38 38 37 37 37 37 37 37 48 51 48 44
42 41 37 34 35 34 34 33 34 34 34 33 34 35 36 40
40 40 39 37 29 34 42 40 28 38 38 37 37 36 35 35
34 35 34 33 32 35 36 37 37 37 38 37 38 38 39 38
38 38 39 39 40 39 40 39 39 39 39 40 40 40 40 40
40 40 39 40 40 40 40 40 40 40 39 39 40 41 41 41
40 40 40 40 40 41 39 40 39 39 39 39 40 39 39 40
16 25 40 41 40 40 40 40 42 52 52 51 49 46 45 44
42 40 39 39 38 38 37 37 38 38 37 39 49 50 47 45
46 46 42 37 34 35 35 34 34 34 34 34 34 35 36 39
41 40 36 31 31 31 33 38 31 37 38 38 37 36 36 37
35 35 35 34 33 36 36 38 38 37 38 38 38 38 38 38
38 39 38 39 39 38 38 39 40 40 40 41 41 39 40 40
41 41 40 40 41 40 40 39 40 40 40 39 40 41 40 40
40 40 40 40 40 39 39 39 40 39 40 40 39 38 38 40
16 27 44 43 42 42 41 40 43 53 52 51 48 47 48 49
51 45 45 44 42 40 38 37 38 37 37 38 46 46 45 45
46 46 45 38 35 35 35 35 35 35 35 34 35 36 37 39
41 38 33 40 34 21 18 32 40 39 39 38 37 36 36 36
35 35 35 34 33 36 36 39 39 38 39 39 39 39 38 38
38 38 38 39 39 40 40 40 40 39 40 41 42 40 41 40
40 40 40 40 40 40 40 39 40 40 40 40 41 42 40 40
41 40 40 39 40 40 40 39 39 39 39 40 39 39 39 40
17 28 46 45 43 44 44 43 44 45 40 46 47 49 52 52
53 46 41 43 46 45 44 42 42 41 39 38 38 25 28 30
36 40 42 39 36 35 35 35 35 35 35 35 35 36 40 42
39 39 44 41 26 26 24 36 44 45 43 38 37 37 36 37
35 36 35 35 33 36 37 39 38 38 38 38 39 38 38 38
38 39 39 39 39 40 40 40 40 40 40 41 41 40 41 41
40 40 40 40 39 40 40 40 40 40 40 40 40 42 41 40
40 40 40 40 40 40 40 40 39 39 39 39 40 40 40 40
17 28 47 45 38 40 44 48 50 30 2 9 27 38 42 46
49 42 11 10 19 27 37 39 42 47 45 41 37 18 13 15
14 12 17 38 36 36 35 35 35 35 35 35 36 37 44 41
37 55 48 32 25 23 21 34 46 55 51 45 38 37 37 38
35 36 35 35 33 36 36 37 38 38 38 38 39 38 39 39
39 39 39 40 39 39 39 40 40 40 40 41 42 40 41 41
41 41 41 40 41 41 41 40 41 40 40 40 40 41 40 40
39 39 39 39 40 40 39 39 40 40 40 41 41 41 40 40
18 26 43 46 43 41 42 50 54 30 0 0 7 17 20 20
30 40 4 0 0 0 4 9 14 23 30 40 36 15 6 10
11 4 4 36 36 36 36 35 36 36 36 36 37 40 45 41
51 77 71 64 65 57 50 48 52 58 62 51 45 38 37 38
36 36 36 34 33 36 35 37 38 38 38 38 39 38 39 39
39 40 39 40 39 40 39 40 39 39 40 41 42 40 40 40
40 41 41 41 41 40 41 40 40 40 40 40 40 41 40 39
39 39 40 39 40 40 39 40 40 40 40 40 40 40 40 38
18 16 13 21 30 40 45 51 54 33 0 0 5 10 14 15
23 40 6 0 0 0 0 0 0 0 2 30 37 11 1 1
4 3 3 38 37 37 37 36 36 36 36 36 39 43 45 47
84 90 89 97 100 92 88 84 77 71 78 62 46 45 37 38
36 36 36 34 32 37 36 39 39 39 39 39 40 39 39 39
39 39 39 39 40 40 40 40 40 40 40 40 42 41 41 41
40 40 41 41 41 41 41 40 40 40 40 40 40 41 40 40
39 39 40 40 40 40 40 40 41 40 41 40 40 40 40 40
17 11 0 0 0 3 10 20 32 30 0 0 2 4 4 8
20 41 9 0 0 0 0 0 0 0 0 29 34 5 0 0
1 1 4 39 38 36 37 36 29 28 26 17 12 11 14 16
28 43 59 85 120 116 115 112 98 97 92 81 61 44 46 38
36 36 36 35 32 37 36 39 39 39 39 39 40 40 39 40
39 39 40 40 40 40 40 40 40 41 40 41 42 40 41 40
40 41 41 41 41 41 41 41 41 41 40 41 41 40 40 40
40 40 41 40 41 41 40 41 41 41 41 41 40 40 40 39
17 9 0 0 0 0 0 0 2 22 0 0 0 0 0 1
17 38 4 0 0 0 1 2 0 0 0 27 31 1 0 0
0 1 4 40 38 36 26 14 14 82 83 35 0 0 0 1
3 5 3 7 47 126 139 139 116 41 27 37 46 56 51 42
36 36 36 35 32 37 35 39 39 39 39 39 40 40 39 40
39 39 39 39 40 40 40 40 41 41 41 41 42 40 42 42
42 42 41 42 42 42 41 41 41 40 41 41 40 40 39 41
41 40 41 41 41 40 41 41 41 41 41 40 41 40 40 40
18 10 0 0 0 0 0 0 0 19 0 0 0 0 0 0
19 41 4 0 0 0 8 13 3 0 0 25 31 1 0 0
0 0 3 41 39 34 6 40 103 43 1 0 0 0 0 0
0 0 0 10 65 135 141 142 127 49 2 2 0 2 12 38
46 33 32 35 33 37 35 39 40 40 40 39 40 40 39 40
40 40 39 40 39 40 40 40 41 41 41 41 42 41 42 41
42 42 41 42 41 41 41 41 41 40 40 40 40 42 41 41
41 41 41 40 40 40 41 41 41 41 41 41 40 40 41 40
18 10 0 0 0 0 0 0 0 17 0 0 0 0 0 0
20 44 5 0 0 1 12 17 13 8 1 24 31 0 0 0
0 0 2 39 39 31 4 40 3 0 0 0 0 0 0 0
0 0 0 7 101 132 136 140 126 79 0 0 0 2 40 77
59 21 10 25 28 36 36 40 41 40 39 40 41 39 40 40
40 40 40 40 40 40 41 40 41 41 42 42 43 42 42 42
42 43 42 42 42 41 42 42 41 40 41 41 41 42 41 41
41 41 41 40 39 40 42 42 41 41 41 42 42 41 41 42
17 10 0 0 0 10 6 0 0 15 0 2 0 0 0 0
17 45 6 0 0 2 13 18 17 16 5 22 32 1 0 0
0 0 1 38 40 28 1 2 0 0 0 0 0 0 0 0
0 0 4 42 131 69 124 130 73 109 2 0 0 0 0 2
22 61 70 22 6 17 37 40 41 40 40 40 40 40 41 40
40 40 41 40 41 41 42 42 42 42 42 42 43 42 41 42
41 42 42 42 42 42 42 41 41 42 42 42 42 42 42 41
41 41 41 41 41 41 42 43 42 42 43 42 41 41 40 39
18 10 1 11 5 6 2 0 0 15 1 0 0 0 0 4
19 47 8 0 0 2 11 17 17 17 6 21 36 5 0 0
0 0 0 36 41 25 10 6 0 0 0 0 0 0 0 1
4 6 9 96 118 87 142 128 57 122 12 2 0 0 0 0
0 0 1 20 4 15 38 41 41 41 40 40 41 40 40 40
40 41 41 41 42 42 41 42 43 43 43 42 42 43 43 43
43 43 43 43 44 43 43 43 42 42 42 42 42 42 42 42
42 42 42 41 42 41 43 41 41 41 40 42 42 38 37 36
19 11 7 7 0 4 3 0 0 17 1 0 0 0 0 7
27 48 13 1 4 3 1 8 15 17 5 20 45 36 27 19
13 8 11 40 42 22 17 31 6 4 9 11 13 15 17 19
10 15 60 130 92 130 143 139 74 125 37 8 17 3 0 0
0 0 0 0 0 15 38 42 41 41 41 42 41 41 42 42
41 41 42 42 43 42 43 43 43 43 43 43 43 43 43 43
44 43 44 43 44 44 43 44 43 43 43 43 43 42 42 41
41 41 40 40 39 42 42 39 37 38 34 33 30 27 24 22
20 12 5 1 0 0 1 0 2 30 22 13 11 9 2 1
21 56 41 32 28 23 14 7 8 11 3 19 50 51 48 47
47 48 49 53 42 19 23 37 27 60 42 15 9 15 24 42
74 103 103 135 109 119 127 127 106 128 76 11 9 17 17 20
79 101 89 25 3 14 39 42 42 41 42 42 41 42 42 42
42 42 43 43 44 43 43 43 43 43 43 44 43 43 44 44
44 43 44 44 45 44 43 43 43 42 42 43 41 40 40 39
40 40 38 37 35 34 31 28 25 23 21 20 20 20 22 23
20 12 0 0 0 0 0 0 2 43 56 46 41 41 37 27
33 60 38 31 34 36 37 35 32 30 28 37 52 50 49 49
51 56 59 58 43 13 29 31 31 87 90 55 62 78 96 112
120 122 107 115 125 129 126 125 120 118 104 90 60 37 20 11
14 30 55 37 3 9 39 42 41 41 41 41 41 42 43 42
42 43 42 43 44 44 43 43 43 42 43 43 43 43 43 44
44 43 43 44 44 43 42 40 40 39 39 40 39 38 36 33
31 28 26 24 22 21 22 22 23 23 24 25 27 27 28 28
19 13 0 0 0 0 0 0 2 45 59 48 53 56 59 59
55 56 29 19 21 21 22 23 24 27 32 37 38 35 40 43
48 52 53 53 43 11 34 29 49 106 91 85 99 114 121 116
124 112 105 125 121 116 117 119 122 117 116 107 112 106 80 46
15 16 15 22 20 9 38 42 42 41 41 41 41 41 42 42
42 41 42 42 44 43 42 42 42 42 43 43 43 42 43 43
43 42 43 43 43 41 40 40 42 35 31 29 26 24 22 22
22 22 23 24 25 26 27 28 29 30 30 30 29 24 30 33
21 24 24 18 11 5 2 0 2 45 50 47 55 58 62 62
53 45 28 20 20 19 18 18 17 15 15 15 16 17 21 24
36 41 37 37 39 10 39 43 75 99 93 108 118 129 134 138
126 105 124 118 121 138 142 143 142 137 122 108 109 128 123 108
76 38 34 30 27 10 39 42 41 41 42 42 41 41 41 42
42 41 40 41 43 42 41 42 42 42 42 42 42 43 43 42
42 40 37 36 33 30 27 30 43 30 21 23 24 25 25 26
27 28 29 30 31 32 32 33 34 34 35 35 35 31 26 34
20 31 50 53 50 44 37 31 29 48 41 47 54 57 61 62
56 47 32 21 20 18 17 15 15 14 14 14 14 15 15 16
32 36 35 37 37 11 54 61 83 95 110 119 126 137 141 136
120 122 125 124 143 143 143 143 143 143 141 115 108 128 138 125
114 88 60 33 28 12 39 41 41 41 41 41 41 40 41 41
41 41 40 40 42 41 42 41 42 42 42 41 38 36 34 30
28 26 25 25 25 26 26 25 36 28 23 28 29 31 31 32
33 34 34 35 36 36 36 36 37 37 36 36 37 37 34 26
20 31 52 57 55 54 54 55 56 54 28 28 38 44 50 55
52 48 36 22 20 17 13 13 13 15 16 16 16 16 17 20
35 25 18 38 38 10 49 70 87 105 113 123 134 139 141 132
132 132 119 142 144 138 129 128 128 131 142 133 110 119 139 137
125 112 79 35 24 13 39 41 41 41 40 40 40 40 39 38
38 40 41 40 40 39 38 36 34 32 30 28 27 26 26 26
28 28 29 29 30 31 31 30 37 31 27 33 34 35 35 36
36 37 38 38 39 38 38 38 37 37 39 37 37 39 39 35
19 28 50 55 55 55 56 57 58 51 12 2 4 9 14 23
27 39 37 20 18 13 3 2 3 10 17 17 14 14 19 21
36 41 39 45 39 12 38 76 96 108 117 126 137 141 139 132
142 124 130 133 125 125 139 141 141 131 119 129 120 129 131 139
129 120 100 58 23 12 37 38 38 37 37 36 35 36 35 27
32 36 34 32 30 28 28 27 27 27 28 29 29 31 31 32
33 34 35 35 35 36 36 34 37 32 30 36 37 37 37 38
39 39 39 39 40 40 39 39 39 37 37 38 37 39 40 40
26 30 42 45 46 48 50 52 56 47 7 0 0 0 0 6
17 39 38 18 16 11 0 0 1 3 7 9 5 4 10 12
32 47 41 39 36 16 45 81 100 109 119 129 135 139 133 139
130 128 129 123 123 139 143 143 142 142 133 116 116 123 133 136
135 124 109 85 32 12 36 36 35 36 36 35 33 31 30 22
24 26 26 26 28 28 29 31 32 33 34 34 35 35 36 37
38 38 39 39 39 39 37 31 19 16 29 38 39 39 39 40
39 39 40 40 41 40 40 40 40 39 37 38 38 38 39 40
26 28 30 32 35 39 39 42 52 45 5 0 0 0 2 0
5 39 37 18 15 9 0 0 5 4 1 2 0 0 1 5
30 48 39 38 37 27 58 87 101 110 120 127 133 133 137 135
131 131 130 131 138 143 143 143 142 142 142 137 118 113 119 133
129 125 113 96 54 17 35 33 30 29 28 27 26 27 28 27
28 30 32 32 34 34 35 36 37 37 39 39 38 38 39 39
40 39 40 40 40 39 38 27 8 6 23 38 40 42 42 41
40 40 40 41 41 41 41 40 40 39 40 38 37 36 38 40
23 26 25 26 29 37 36 38 51 44 4 0 0 0 1 1
0 36 33 10 5 0 0 0 11 12 6 3 0 0 0 2
28 49 41 43 34 31 71 88 99 110 120 125 128 131 141 139
136 131 136 141 143 143 143 142 143 142 142 142 136 116 113 128
129 122 115 99 72 16 28 25 25 27 28 29 30 32 33 33
33 35 37 37 38 39 39 39 40 40 40 40 41 40 41 41
41 41 40 33 28 22 33 25 12 6 20 37 40 41 42 41
41 40 40 40 40 40 41 40 40 40 39 39 37 36 37 39
22 25 24 29 34 39 40 45 51 42 4 0 0 0 0 0
1 40 27 0 0 0 1 1 6 15 14 6 2 0 0 1
28 49 42 49 24 35 76 87 98 109 121 122 123 137 143 141
136 138 142 143 143 143 143 143 143 143 142 142 142 131 116 122
133 119 111 99 81 22 31 27 30 32 32 33 35 35 37 37
37 38 39 39 39 41 41 40 41 42 42 42 42 42 42 41
42 42 29 5 2 6 27 24 3 1 19 37 40 41 41 40
41 40 40 40 41 40 40 39 40 39 39 40 39 37 35 36
25 22 4 4 8 14 20 26 32 36 4 0 0 0 0 0
2 41 28 0 0 0 0 1 7 16 19 14 8 0 0 1
27 49 46 53 17 48 81 87 96 108 120 121 127 141 143 142
141 142 143 143 143 143 143 142 142 142 143 142 142 139 127 120
131 123 111 99 86 34 32 31 35 36 36 37 38 38 37 39
40 40 41 40 41 41 42 42 42 42 42 42 42 43 43 42
42 42 36 26 30 34 37 29 2 2 19 37 40 40 42 40
40 41 40 40 40 40 40 40 40 40 39 40 39 39 36 34
30 24 1 0 0 0 0 0 1 22 4 0 0 0 0 0
2 40 24 0 0 0 0 4 19 21 21 18 11 0 1 3
27 49 46 53 23 53 84 89 94 106 120 124 135 140 143 142
143 144 143 143 143 142 143 143 143 142 143 142 141 140 133 125
127 126 111 98 87 47 33 34 38 38 38 39 40 39 39 41
42 42 41 41 42 42 42 42 42 41 42 42 43 43 42 43
42 43 42 41 41 40 39 31 6 1 20 37 40 40 42 41
41 40 40 40 40 40 40 40 40 40 39 40 39 39 39 35
29 24 1 0 0 0 0 0 0 17 4 0 0 8 6 1
1 39 21 0 0 0 0 3 20 24 21 10 5 0 1 5
26 47 48 47 32 54 84 88 93 104 117 126 138 141 143 142
142 142 143 143 143 143 143 143 143 143 143 142 142 142 137 130
126 126 116 99 85 57 37 37 40 39 40 40 40 40 40 42
42 42 42 42 42 42 42 42 43 42 43 43 43 43 43 43
43 43 42 42 40 40 38 34 12 0 23 37 40 40 42 41
40 40 40 40 40 40 40 40 40 40 39 40 40 39 39 36
29 25 1 0 0 6 1 0 0 17 3 0 5 21 14 3
1 39 20 0 0 0 0 2 4 17 14 0 0 0 3 5
21 47 50 42 38 57 83 86 92 104 117 129 139 141 143 143
143 142 142 143 143 143 143 143 143 143 143 142 142 141 137 135
130 126 117 102 86 62 42 39 40 40 41 41 41 40 41 42
42 42 43 43 42 42 42 42 43 42 42 43 43 43 43 43
42 43 43 41 42 40 38 34 22 13 30 38 41 41 42 41
41 40 40 40 40 40 40 40 40 40 39 39 39 39 39 37
26 23 1 0 5 19 9 2 0 16 5 0 13 22 18 7
1 39 17 1 2 0 1 1 0 13 14 0 0 0 1 0
17 45 52 39 36 59 81 85 94 106 118 131 139 142 143 143
143 140 140 142 143 143 143 143 143 143 142 142 141 139 139 139
136 128 119 105 86 64 39 40 41 41 41 40 40 40 41 42
42 42 43 42 42 42 42 42 42 42 42 43 43 42 43 43
43 42 42 42 41 40 38 34 31 30 35 39 41 41 41 40
41 41 40 41 41 40 40 40 40 40 40 39 39 39 39 37
24 23 1 0 13 25 14 6 0 20 28 21 30 30 28 23
13 42 17 0 0 0 0 0 0 11 18 0 0 0 0 0
12 41 54 38 36 61 78 83 94 107 118 128 136 141 143 141
142 140 142 143 143 143 143 143 143 143 143 142 140 139 139 140
138 129 119 107 84 57 32 41 42 42 41 41 40 41 41 41
42 42 42 42 42 42 42 42 42 42 42 42 43 43 42 43
43 42 42 41 41 40 38 35 34 35 38 41 41 41 42 41
41 41 41 41 40 41 41 40 40 40 40 40 39 40 39 36
24 23 2 0 7 13 7 3 0 22 48 46 51 50 49 50
51 55 21 1 3 1 0 0 1 14 20 2 4 5 1 0
10 40 57 38 41 69 77 81 94 107 118 126 134 140 141 139
137 136 141 143 143 143 143 143 143 143 142 141 140 138 140 140
138 131 120 107 85 52 31 41 42 41 41 41 41 41 41 41
41 42 42 41 42 42 42 43 42 42 43 43 43 43 43 43
43 42 42 41 41 40 38 37 36 38 40 41 41 40 42 41
41 41 41 40 40 41 40 40 40 41 40 40 39 39 39 38
25 24 9 3 2 3 1 0 0 21 49 48 52 52 52 57
62 60 38 22 25 18 11 8 11 20 24 11 11 9 4 3
14 43 67 65 76 80 76 78 91 104 117 124 130 138 138 134
132 133 140 142 143 143 143 143 142 142 142 141 139 136 139 137
137 131 120 105 85 49 31 41 42 42 41 41 41 41 41 42
42 41 41 42 42 42 42 42 42 42 43 42 42 43 42 43
42 43 42 41 41 40 39 38 39 40 41 41 41 40 41 41
40 40 41 40 40 39 40 40 40 40 39 39 38 37 38 37
26 26 23 7 2 3 0 0 0 20 46 46 49 49 49 57
60 60 48 41 41 40 37 34 36 36 34 29 26 25 23 22
28 55 87 94 95 90 77 75 90 101 112 121 128 131 133 128
126 130 138 142 143 142 142 142 142 143 142 141 140 136 133 134
134 130 117 102 83 40 28 42 42 41 41 40 41 41 41 41
41 42 42 41 41 42 41 42 42 42 42 42 42 42 42 42
42 43 41 40 41 40 39 38 39 40 40 39 40 39 41 40
40 40 40 39 39 39 39 40 40 39 39 38 38 38 38 37
27 27 18 1 0 1 0 0 0 20 45 41 45 44 45 46
44 43 43 43 44 44 43 41 43 43 42 39 38 36 34 33
36 73 87 102 95 101 81 73 84 98 109 116 122 122 126 126
130 132 138 142 143 143 142 142 142 141 142 140 138 133 128 131
132 126 113 101 79 42 25 42 42 41 41 41 41 41 41 41
41 41 42 42 42 42 42 42 41 42 42 42 41 42 42 42
41 41 40 41 40 41 40 39 41 41 41 40 40 41 41 40
40 40 39 39 39 39 39 39 39 39 39 38 38 38 38 37
29 28 16 2 1 1 0 0 0 21 48 42 43 43 43 43
41 40 43 44 46 48 47 46 45 44 44 43 47 49 46 44
46 85 97 105 96 104 94 73 78 94 105 113 117 120 121 125
131 136 141 142 142 142 143 142 142 142 142 140 139 133 129 128
126 120 110 99 75 91 65 42 41 41 41 41 41 41 41 42
42 42 42 42 42 42 42 41 41 41 41 41 42 41 41 42
42 42 41 41 41 41 41 40 42 42 41 41 41 41 41 41
40 40 41 40 39 39 39 39 39 39 39 38 38 38 38 37
27 27 34 33 32 25 23 21 17 32 51 43 43 43 43 44
45 46 49 47 47 50 54 54 47 42 43 44 51 55 53 50
51 90 101 107 97 83 111 81 75 90 102 112 115 114 118 127
134 139 142 143 143 142 143 143 143 142 142 140 137 131 125 123
122 117 108 92 74 90 52 45 41 41 41 41 41 40 40 41
41 41 42 41 42 42 42 40 41 41 41 42 42 41 41 42
42 42 42 42 41 41 42 41 41 41 41 40 40 41 40 40
40 39 40 39 39 38 39 39 38 38 38 37 38 37 37 37
29 28 46 54 56 51 53 55 55 56 55 47 45 45 45 46
49 53 55 48 49 51 55 53 47 44 38 39 52 55 53 50
50 86 99 113 100 104 107 96 77 82 99 111 115 119 124 130
137 142 143 143 143 143 143 142 142 143 142 141 136 131 123 122
119 116 105 82 85 98 44 47 40 40 40 40 40 40 41 42
42 42 43 42 42 42 41 41 41 41 41 42 41 41 41 42
41 42 41 41 40 40 42 41 41 41 41 41 40 40 40 40
40 39 39 39 38 38 37 38 37 37 37 36 36 36 36 35
29 28 49 61 61 60 60 61 60 61 57 42 39 38 38 39
44 51 57 51 49 48 46 47 48 45 40 36 46 43 40 41
46 79 95 110 103 107 110 105 90 71 90 108 118 123 130 134
136 143 143 143 143 143 143 143 143 143 142 141 135 129 124 124
123 117 102 76 107 100 42 47 40 41 41 42 42 41 42 42
42 42 43 43 43 42 41 41 41 42 41 41 41 41 41 42
41 41 41 41 40 42 42 41 41 41 40 41 41 40 40 40
40 39 39 38 38 37 37 37 37 36 36 36 36 34 35 34
30 27 36 44 46 47 49 51 52 54 52 19 13 10 7 9
14 24 48 51 46 28 20 25 28 28 32 40 40 21 11 14
37 66 90 98 98 115 92 44 78 83 70 92 112 123 128 127
130 138 143 144 143 143 144 144 143 143 142 141 133 128 124 124
121 111 88 85 111 111 46 48 41 42 42 42 41 42 42 42
43 42 42 43 42 42 41 41 41 41 41 41 41 42 41 41
39 38 37 36 33 34 37 41 42 40 41 41 40 40 40 39
39 39 38 38 37 37 37 37 36 35 34 34 33 34 35 35
29 26 32 36 35 36 36 36 36 37 39 12 0 0 0 0
0 5 40 50 35 7 1 3 7 12 24 42 40 15 2 4
34 51 81 93 100 79 28 45 80 94 78 75 100 117 125 125
126 137 142 143 143 143 143 144 143 143 143 140 133 125 123 121
111 93 74 105 109 104 57 47 41 41 41 42 42 42 42 42
42 42 42 42 41 40 38 37 36 37 38 40 42 42 42 36
22 20 17 15 13 15 28 42 42 41 41 40 40 40 40 39
38 38 38 37 36 36 36 36 36 34 34 33 34 33 34 34
29 26 37 43 43 42 41 41 40 41 40 16 7 0 0 0
0 15 43 49 20 0 0 0 0 2 23 44 42 16 0 7
36 45 56 81 85 30 20 77 86 92 92 74 92 111 121 125
125 135 140 143 144 144 143 144 143 143 143 138 129 123 122 115
95 69 55 88 115 104 58 47 43 40 42 42 41 41 42 42
41 34 31 28 25 23 19 16 14 15 19 34 42 41 41 34
12 9 9 9 9 10 27 41 42 43 41 40 40 40 40 39
38 38 37 36 36 35 35 34 35 33 34 33 33 32 34 34
28 26 38 44 45 45 46 45 45 46 43 16 7 0 0 0
0 14 40 45 11 0 0 0 0 0 17 44 40 16 0 13
38 43 38 39 26 6 42 84 88 91 94 84 88 107 116 124
124 132 139 144 144 144 144 144 144 143 143 135 128 124 121 111
87 81 46 44 114 109 62 46 43 39 40 41 41 41 42 42
37 15 9 11 12 11 8 6 6 5 7 28 41 41 41 33
12 9 10 10 9 10 26 41 42 41 41 40 40 40 38 38
38 38 37 35 36 34 33 33 33 33 33 33 32 32 32 32
32 30 41 46 47 46 45 44 46 48 46 15 3 0 0 1
7 7 34 43 7 0 0 0 0 0 17 45 40 16 0 16
37 43 35 26 8 21 37 87 90 91 96 91 93 108 118 122
123 129 138 144 144 144 144 143 143 143 141 133 128 125 122 108
92 93 57 6 42 76 55 48 46 40 41 41 41 41 41 42
35 12 6 9 11 11 9 5 6 5 6 25 40 41 41 32
12 9 10 10 9 9 23 41 42 42 42 41 40 40 39 38
37 36 36 35 34 34 32 31 32 32 31 31 31 31 31 32
39 40 42 43 43 43 33 20 28 41 49 18 0 0 0 1
10 5 31 41 5 0 0 0 0 0 18 44 38 13 0 21
39 46 36 30 17 31 26 83 97 96 98 95 100 110 116 120
123 126 136 144 143 144 144 143 143 143 142 133 130 129 124 111
96 96 66 7 20 24 25 48 45 40 41 41 41 42 41 41
36 12 5 9 11 11 8 5 6 5 5 24 40 41 41 32
11 9 9 10 9 9 20 41 43 41 40 40 39 39 38 36
35 35 35 35 34 33 32 32 31 30 30 30 30 30 30 30
40 41 41 41 41 40 27 0 4 28 52 29 7 0 0 3
10 3 27 40 4 0 0 0 0 0 16 45 38 18 2 23
40 47 35 30 25 37 18 62 101 101 99 101 106 116 120 121
124 125 138 144 145 144 144 144 144 143 143 135 131 133 128 113
98 100 67 11 33 9 11 44 44 39 41 41 41 42 42 41
36 13 6 9 12 12 8 6 6 5 6 25 40 41 41 35
15 11 11 13 13 13 19 37 40 40 38 39 39 38 37 37
35 36 35 34 33 32 32 31 30 29 29 28 29 29 29 29
40 40 40 40 40 40 29 1 1 24 52 26 3 0 0 1
8 5 28 40 3 0 0 0 0 0 11 44 38 19 4 24
39 46 35 31 30 40 16 44 104 105 101 104 110 121 124 123
128 127 139 144 144 144 144 144 144 144 144 139 137 140 134 117
102 104 82 11 25 23 11 41 43 39 40 41 41 41 42 42
36 14 5 8 11 11 8 5 6 5 6 24 40 41 40 37
21 18 18 18 17 17 23 33 35 36 39 39 39 38 37 36
35 34 34 34 33 30 30 29 29 28 27 28 27 27 27 27
28 29 30 34 37 39 32 2 0 19 48 17 0 0 0 0
0 0 26 42 4 0 0 0 0 0 7 43 38 16 4 28
38 47 35 31 35 42 16 30 99 105 107 108 112 123 131 127
130 131 141 145 143 144 144 144 143 143 143 141 141 141 133 120
105 105 95 15 31 37 14 39 42 39 40 40 41 41 41 40
35 15 5 7 8 8 7 5 6 5 5 22 40 41 41 37
18 12 13 9 2 2 5 8 6 9 37 39 39 38 37 37
35 33 32 32 31 30 29 28 28 27 27 27 27 26 26 26
1 2 2 20 37 39 34 3 0 16 43 13 0 0 0 0
2 0 23 44 6 0 0 0 0 0 6 43 39 21 16 33
39 46 36 33 39 42 15 20 93 108 112 112 115 126 135 133
131 134 143 144 145 145 144 144 144 144 144 142 142 143 137 123
109 108 100 24 57 39 35 40 41 37 39 40 41 41 41 41
36 15 6 6 5 3 5 4 5 5 4 21 39 41 41 37
16 10 10 6 0 2 8 27 15 2 35 39 38 37 36 37
35 33 32 31 30 29 28 27 27 26 26 26 25 25 25 26
0 0 0 20 41 39 35 6 0 11 41 18 5 3 3 5
19 14 25 48 24 15 14 18 16 15 21 44 41 35 36 38
37 45 38 34 43 40 14 11 88 112 116 114 116 127 136 137
131 135 144 144 145 144 144 144 144 144 143 143 142 143 138 125
113 114 105 32 32 41 48 42 42 35 39 40 40 41 41 41
36 15 5 5 1 0 6 5 6 5 4 20 39 41 41 37
18 9 10 6 0 0 2 8 3 1 33 39 37 37 36 35
33 32 31 31 29 29 28 28 27 26 26 25 25 24 25 25
0 0 0 17 42 39 35 8 0 5 40 41 38 33 33 40
48 46 45 48 52 52 48 49 50 51 52 55 44 39 40 43
39 45 40 36 45 39 12 6 81 112 120 118 117 124 134 137
132 137 144 144 144 144 144 143 143 144 144 143 142 142 137 124
116 117 105 47 23 55 42 43 43 33 37 39 40 41 42 40
35 16 5 4 4 5 9 5 6 6 4 19 39 41 42 38
17 9 10 6 0 0 0 0 0 1 31 37 35 34 35 35
33 32 30 29 28 28 26 26 25 24 24 24 24 24 24 23
0 0 0 14 43 39 36 10 0 2 38 48 48 42 45 52
57 52 47 42 54 58 55 54 54 57 58 57 47 38 38 42
39 45 38 36 47 37 12 4 75 112 122 118 121 129 130 132
130 139 144 144 144 144 143 143 144 144 143 143 143 143 138 125
120 121 110 63 36 90 44 42 44 33 35 39 39 41 42 39
35 16 5 5 2 1 5 5 6 6 3 18 38 40 41 37
17 8 9 3 0 0 0 0 0 1 27 20 12 10 28 34
32 30 29 28 27 25 25 24 24 24 24 23 24 22 22 23
0 0 0 11 43 40 36 13 0 1 36 47 43 39 43 50
57 53 45 39 41 46 46 45 44 45 45 45 43 36 36 38
43 45 39 39 48 33 14 10 68 113 121 121 124 131 133 130
130 138 143 145 144 144 144 144 144 144 144 143 142 142 141 129
124 123 113 83 60 87 56 41 46 30 36 38 40 41 42 39
35 17 5 5 0 0 4 5 6 6 4 17 38 39 41 37
17 8 8 1 18 24 2 0 0 0 11 23 30 20 10 32
32 30 29 28 26 25 25 25 23 23 23 23 22 22 23 22
0 0 0 9 42 40 35 16 0 0 34 42 33 34 35 43
53 54 47 42 34 31 31 32 32 32 32 34 37 37 39 33
49 43 40 43 49 29 15 24 59 112 123 122 128 133 132 130
134 138 143 144 144 144 144 144 144 143 143 143 142 143 141 132
126 124 119 90 50 57 60 39 47 27 34 38 39 41 40 37
34 18 6 5 3 2 5 5 6 7 3 16 37 39 40 36
17 7 7 5 32 50 13 0 0 8 32 35 35 33 9 27
29 28 27 27 25 25 24 24 23 22 22 22 22 21 22 22
0 0 0 7 41 40 35 19 3 10 36 37 17 19 22 27
35 38 37 42 36 32 34 35 39 40 39 38 42 40 42 32
55 46 41 46 50 26 10 33 55 108 123 126 132 134 130 129
134 140 143 144 145 145 144 144 144 143 144 143 143 143 142 135
131 129 121 88 37 35 43 38 47 25 33 38 39 40 40 37
35 18 6 5 5 5 5 5 6 7 4 15 37 39 41 38
19 7 7 4 13 21 12 0 0 16 37 35 34 33 12 23
29 28 27 27 25 24 24 23 23 23 23 23 22 22 23 23
0 0 0 5 38 40 35 29 27 34 45 36 3 0 1 2
6 13 19 40 40 43 47 44 54 57 44 36 38 36 41 34
56 42 42 51 50 21 6 34 56 98 124 127 132 135 131 127
132 140 144 145 144 144 144 144 144 144 144 144 143 144 143 139
135 131 121 75 33 31 40 35 45 25 30 37 39 41 41 38
35 20 7 5 5 5 5 4 5 7 4 14 37 39 41 38
21 10 11 3 2 2 1 0 0 16 37 36 34 33 14 22
30 27 27 27 26 24 24 23 23 23 22 22 23 22 22 22
0 0 0 3 36 40 34 38 47 50 53 39 2 0 0 0
0 2 15 44 41 46 50 43 53 57 31 9 23 28 38 39
55 39 42 52 48 16 3 28 60 84 123 130 134 135 132 126
132 139 144 145 145 145 144 144 144 143 144 143 144 143 143 142
140 134 109 67 33 31 42 33 45 24 30 34 38 40 41 39
36 23 8 5 5 5 5 4 5 7 3 13 36 39 41 39
33 23 14 5 0 0 0 0 0 10 36 36 34 32 15 25
28 27 26 26 25 24 24 24 24 23 23 23 23 22 23 23
0 0 0 1 33 39 34 37 50 53 55 44 4 0 0 0
0 0 8 46 39 44 46 19 19 34 27 9 23 31 36 43
51 40 44 56 49 13 3 22 63 75 116 130 136 137 134 129
131 137 143 145 145 145 144 145 144 144 145 144 143 144 143 144
143 130 99 62 33 33 41 34 44 26 32 25 30 38 43 40
38 26 11 7 7 5 5 5 5 6 4 13 36 38 40 39
39 17 16 26 4 0 0 0 0 9 35 35 34 30 13 28
29 27 27 26 25 25 25 24 24 23 23 22 22 22 22 21
0 0 0 1 31 39 34 36 43 42 43 33 2 0 0 0
0 0 7 46 39 44 44 8 6 27 31 12 21 35 37 49
46 40 45 60 50 10 2 17 68 83 106 129 135 134 134 129
129 135 141 144 145 145 145 145 145 145 144 144 144 144 144 144
142 124 101 55 33 35 43 37 43 28 31 20 28 38 46 46
44 35 22 16 9 7 7 7 6 6 4 12 35 38 40 41
40 22 26 43 12 0 0 0 0 8 32 32 30 16 16 26
18 17 24 26 25 24 23 23 23 23 22 22 22 22 22 22
0 0 0 0 29 39 34 31 23 22 24 12 0 0 0 0
0 0 10 47 38 44 44 10 6 25 30 11 24 40 44 50
42 41 48 62 49 8 3 13 67 93 102 131 139 137 137 132
125 133 141 143 144 145 145 145 145 144 145 144 144 144 144 144
143 123 99 50 35 40 43 42 42 31 32 23 38 47 50 52
53 50 40 31 27 20 13 10 7 5 3 10 29 30 28 26
22 9 4 10 2 0 0 0 0 1 5 4 3 0 11 17
13 28 22 25 25 24 24 23 23 23 22 22 21 22 22 22
0 0 0 0 26 38 33 30 21 19 22 10 0 0 0 0
0 0 11 47 38 45 43 8 6 23 30 15 26 41 48 51
42 41 53 61 46 9 3 7 61 86 94 127 137 139 143 141
130 132 140 141 144 145 145 144 145 145 145 144 144 143 144 144
140 126 93 50 40 45 43 43 41 33 36 29 43 43 48 47
51 52 53 47 44 39 30 18 11 4 0 0 2 1 0 0
0 0 0 0 0 0 0 0 0 0 1 0 0 0 7 13
84 104 45 24 24 24 24 23 23 23 22 23 22 22 22 23
0 0 0 0 24 38 32 30 23 22 24 10 0 0 0 0
2 0 7 45 38 45 43 9 7 21 30 22 29 46 48 49
41 42 56 60 42 12 9 8 48 67 83 123 131 137 143 143
135 135 143 144 145 144 145 145 145 144 145 144 144 144 144 144
143 122 90 53 43 52 44 46 42 37 38 25 43 46 47 45
44 44 46 49 47 38 29 24 18 14 9 4 3 4 5 6
7 8 8 9 9 11 14 15 15 16 14 6 0 1 14 17
74 77 46 10 9 15 24 24 24 24 23 22 22 22 23 23
0 0 0 0 22 38 32 30 27 25 26 10 0 0 0 0
6 1 4 45 40 46 44 17 11 20 32 29 30 48 47 48
41 45 57 60 43 12 14 12 37 61 77 114 132 140 144 144
139 137 143 145 145 145 144 145 144 144 144 145 144 144 144 144
142 116 92 59 50 59 46 51 41 39 37 24 38 48 43 37
39 40 40 37 39 33 29 25 19 16 15 17 18 18 19 19
19 18 17 17 18 18 19 20 19 19 16 6 0 0 0 0
0 0 1 6 3 13 28 27 27 27 27 26 26 26 26 25
0 0 0 0 20 38 33 30 28 27 27 11 1 5 0 0
12 12 4 43 41 46 45 27 15 20 34 28 35 53 45 50
40 48 56 63 42 14 21 17 23 48 79 106 128 142 146 146
143 138 143 145 145 145 145 145 145 145 144 144 144 144 143 144
139 112 96 60 54 64 48 54 41 45 37 25 25 26 24 22
28 35 34 34 35 27 24 21 18 16 14 17 19 21 21 20
20 19 19 19 20 20 21 21 21 20 17 7 0 0 0 0
0 0 1 7 4 12 23 21 20 18 16 15 14 13 12 12
0 0 0 0 18 37 32 31 29 28 28 15 3 8 1 2
16 24 13 41 44 48 44 27 25 20 33 26 35 57 43 52
41 48 58 61 41 18 28 17 24 38 85 109 121 138 146 146
145 141 143 145 145 145 145 145 145 145 145 145 145 145 144 144
134 111 100 58 63 67 49 59 41 49 36 25 24 20 21 21
26 33 33 37 37 32 32 32 29 30 28 31 26 19 21 22
21 21 21 20 21 22 23 23 22 20 18 8 0 0 0 0
0 0 0 3 24 29 29 29 30 31 32 33 34 36 36 37
0 0 0 0 15 36 32 30 29 27 29 29 24 29 28 29
36 42 41 52 48 48 44 21 30 24 34 23 41 60 41 54
43 51 60 63 43 20 33 12 29 47 91 111 120 133 145 146
146 144 143 145 145 145 144 145 145 145 145 144 145 144 144 144
132 109 98 63 74 71 49 59 45 52 37 31 27 20 23 23
27 31 34 38 36 35 34 36 38 39 37 29 29 26 25 20
21 22 22 22 23 24 24 24 24 21 19 9 0 0 0 0
0 0 0 7 44 44 45 45 44 44 44 44 44 45 45 44
0 0 0 0 14 35 30 29 29 29 29 40 48 50 51 52
56 61 62 65 55 48 42 11 24 29 35 24 45 61 40 58
45 53 63 71 47 26 33 13 29 75 96 112 119 128 142 145
145 145 144 145 145 144 145 144 144 145 144 144 145 145 145 144
127 106 91 71 81 74 52 63 50 53 40 35 29 21 25 24
28 30 33 34 31 34 37 40 39 36 34 28 30 32 24 25
23 21 23 25 25 26 25 25 24 22 21 10 0 0 0 0
0 0 0 9 45 45 45 45 44 44 44 44 44 44 44 44
0 0 0 0 14 35 30 28 29 30 29 39 53 53 53 55
58 61 62 63 58 48 42 8 15 31 33 27 53 63 40 63
45 55 65 81 52 32 33 18 36 83 99 115 117 123 136 145
146 145 144 145 145 145 145 145 145 144 144 144 144 144 144 144
123 103 87 82 91 79 56 69 57 56 40 36 30 20 20 18
20 25 31 30 34 36 37 39 33 31 29 27 26 28 28 27
29 33 32 30 28 26 27 26 25 23 22 10 0 0 0 0
0 0 0 12 45 45 45 44 44 45 44 44 43 44 44 44
0 0 0 0 12 34 29 28 28 29 28 29 38 38 37 38
40 44 44 44 41 43 42 13 18 32 33 29 57 64 41 65
49 59 64 89 57 39 40 27 36 74 101 114 119 124 131 145
145 145 145 145 146 145 145 144 145 145 145 145 145 145 145 144
120 101 89 91 101 82 60 70 62 56 42 37 33 28 27 22
27 33 26 23 24 27 28 34 36 32 30 23 17 28 33 33
30 30 32 33 31 29 26 25 24 23 23 8 0 0 4 7
0 0 0 15 46 45 45 45 44 44 44 44 44 43 44 44
0 0 0 0 11 33 29 26 28 29 28 22 20 20 20 21
25 29 33 35 35 40 36 23 25 35 33 35 59 65 42 68
53 64 62 92 59 43 38 28 31 49 98 119 125 124 131 141
146 146 146 146 146 145 145 145 145 144 145 145 145 145 144 144
120 98 91 94 106 83 64 71 67 55 42 35 35 28 24 18
17 23 23 23 29 33 37 34 33 29 19 19 16 25 34 31
29 29 33 32 31 28 26 25 25 24 23 8 0 0 32 40
6 0 0 18 45 45 45 44 44 44 43 44 44 44 44 44
0 0 0 0 11 32 28 26 28 29 28 25 22 21 21 22
24 29 32 34 31 38 38 25 24 39 35 35 58 66 47 70
58 69 64 97 63 45 32 25 32 31 63 111 127 126 130 139
146 145 146 145 145 146 146 145 145 145 145 145 145 144 145 144
124 100 101 100 110 80 63 72 69 51 43 39 37 30 21 21
21 24 25 28 30 30 35 31 29 22 17 17 18 24 33 32
28 30 33 32 32 26 24 25 24 24 23 8 0 0 16 17
1 0 0 21 46 44 44 44 44 43 44 44 44 43 43 44
0 0 0 0 11 31 27 26 28 29 29 28 26 26 25 26
28 33 34 34 36 32 26 24 25 43 38 38 60 69 53 71
61 76 65 100 66 49 32 23 32 27 33 67 120 133 132 136
145 145 146 146 146 146 145 144 145 145 145 145 144 144 144 144
126 106 105 101 113 82 69 73 70 50 46 38 36 31 21 17
21 22 24 26 25 27 27 26 24 20 16 22 22 26 31 31
28 31 32 24 22 25 27 23 25 24 24 7 0 0 0 0
0 0 0 25 45 45 45 44 44 44 44 44 44 44 43 44
0 0 0 0 14 33 28 25 27 29 29 29 28 26 27 27
30 35 34 31 28 26 30 31 32 49 42 42 62 73 56 75
66 83 64 91 67 55 34 25 27 29 25 31 64 124 135 134
143 146 146 146 146 146 146 145 145 145 145 146 145 145 144 144
128 109 106 101 115 82 72 73 72 49 47 38 35 34 20 16
18 21 26 20 23 29 26 27 24 17 18 21 22 25 28 28
26 34 27 18 14 25 26 26 24 25 23 6 0 0 1 1
0 0 0 28 45 44 44 44 44 44 44 44 43 44 44 43
11 12 13 15 21 26 25 26 27 28 29 28 28 26 27 27
30 32 31 28 28 33 41 37 35 51 46 44 66 76 61 80
66 88 62 81 64 55 33 26 27 34 30 26 29 53 108 133
140 146 146 146 147 147 145 146 146 145 145 145 145 145 145 144
130 109 109 99 116 83 72 76 72 49 48 41 35 37 22 14
15 22 22 18 23 28 24 28 22 13 19 22 21 25 29 29
33 34 24 20 17 25 25 30 23 25 24 6 0 0 0 0
0 0 0 30 45 44 44 44 44 43 43 44 44 44 44 44
17 18 19 20 21 22 24 25 26 29 29 29 27 27 27 29
29 28 29 30 32 41 40 40 33 53 49 46 72 84 65 82
66 94 69 77 63 53 35 31 28 33 33 29 26 27 36 70
116 142 146 146 146 146 146 146 145 146 145 145 146 145 145 145
131 112 109 99 117 89 67 75 74 48 49 44 35 38 26 16
19 21 21 20 20 26 30 19 19 13 20 22 20 23 21 31
36 34 21 16 18 23 24 29 24 22 25 6 0 0 0 0
0 0 0 26 45 44 44 43 43 43 43 43 43 43 44 43
17 17 18 19 21 23 24 25 26 28 28 28 29 29 30 29
28 31 29 31 37 40 50 41 34 56 54 47 76 91 69 82
66 97 69 74 62 54 34 33 31 31 30 26 27 26 22 25
40 74 119 144 146 146 145 145 145 145 146 145 146 146 145 145
128 113 107 94 117 95 68 77 76 48 50 44 37 36 31 15
16 20 21 23 25 23 25 20 20 14 17 23 23 23 25 32
34 31 20 14 20 23 24 27 24 22 24 5 0 0 0 0
0 0 0 15 42 44 43 43 44 43 44 43 43 43 43 43
16 16 17 17 19 20 22 22 26 27 28 28 29 29 28 27
29 31 32 32 40 45 51 40 37 59 55 51 73 99 72 84
68 100 72 73 60 51 31 32 32 28 27 22 23 24 25 23
21 24 30 50 85 115 137 145 146 145 146 145 145 140 126 109
74 98 105 89 115 99 73 68 74 43 48 42 40 35 37 14
12 23 23 24 20 24 23 21 17 13 19 23 25 19 25 26
31 24 18 14 18 22 23 27 26 21 25 6 0 0 0 0
0 0 1 23 29 43 43 44 43 43 43 43 43 43 43 43
6 4 5 8 13 17 18 19 26 26 27 27 28 28 26 27
28 30 28 35 37 53 43 39 36 60 57 53 74 103 75 86
65 100 73 72 61 45 30 31 32 28 26 20 21 24 22 22
20 19 19 19 22 27 38 55 69 77 72 62 52 44 32 38
41 101 103 87 114 101 77 61 76 47 48 42 37 39 40 31
40 32 24 21 18 22 21 21 12 13 19 21 21 19 24 22
24 18 14 15 21 22 25 26 26 25 26 7 0 8 22 8
0 0 2 36 21 38 43 43 43 43 43 43 43 43 43 42
0 0 0 6 12 18 21 20 24 25 26 27 28 26 29 26
24 29 25 38 45 47 39 41 38 61 60 59 74 105 79 90
73 96 76 72 58 42 27 29 32 31 29 22 20 18 20 22
20 18 17 16 17 18 22 21 19 21 21 22 28 25 26 33
43 105 98 88 112 100 77 64 79 53 47 44 38 39 39 28
27 50 19 15 19 20 18 19 9 15 18 19 18 20 20 18
20 16 9 18 20 22 25 25 26 23 25 9 1 90 137 67
0 0 4 40 32 23 42 42 42 42 41 42 42 42 42 41
0 0 0 6 9 16 20 21 22 24 25 26 27 27 26 27
18 26 27 36 49 39 40 40 38 60 61 64 68 105 78 87
82 93 74 73 57 37 24 23 26 31 30 24 19 17 19 21
19 20 18 16 17 17 18 19 18 19 17 19 22 18 20 25
48 106 89 89 108 91 73 66 78 56 45 45 38 38 36 22
12 31 16 16 19 19 17 19 8 13 16 14 23 22 20 18
18 16 8 16 15 18 25 26 23 21 21 22 4 113 143 65
0 0 5 40 40 21 33 41 41 41 41 41 40 40 40 40
0 0 2 7 10 15 20 22 23 24 27 25 28 24 24 24
18 20 32 38 49 35 41 40 41 57 65 65 67 104 77 87
91 86 75 73 53 29 26 24 20 25 26 23 17 18 18 19
19 18 19 19 19 18 18 20 19 19 18 20 17 17 21 29
57 99 81 92 106 89 68 69 80 60 43 46 40 39 34 26
11 35 28 16 21 16 15 17 9 11 12 17 22 21 20 20
17 14 7 14 13 20 25 23 21 21 22 23 3 28 38 8
0 0 7 40 40 28 10 24 41 40 41 40 40 40 40 40
5 6 5 6 10 16 21 24 26 27 29 27 27 23 24 20
17 17 34 46 43 37 40 42 41 52 69 67 68 102 79 85
91 79 76 72 54 22 22 29 24 25 24 24 17 20 20 18
15 17 20 21 21 18 18 17 17 18 21 18 18 17 24 33
64 90 73 91 101 89 66 71 82 65 47 48 43 41 35 25
11 24 23 20 21 15 14 13 9 10 12 17 20 23 19 18
14 12 8 15 13 18 22 24 19 18 18 16 10 0 0 0
0 0 6 31 26 5 7 5 39 40 40 40 40 40 39 40
11 11 10 11 14 17 19 22 27 28 27 23 25 22 24 15
17 18 35 50 38 44 42 42 43 50 71 68 70 98 83 86
85 80 75 72 53 21 21 20 21 23 23 20 20 21 22 18
14 16 20 21 21 18 18 16 17 17 18 17 18 16 24 35
72 82 73 89 97 92 64 72 84 68 51 50 46 47 42 36
31 37 22 20 17 13 16 10 10 7 11 14 17 19 19 18
12 10 12 13 13 18 22 25 25 17 9 9 10 0 0 0
0 0 0 7 14 23 33 5 37 39 40 40 40 39 40 40
11 11 11 11 10 12 12 14 28 29 21 19 25 22 21 16
16 12 36 52 31 45 42 42 42 48 74 71 71 93 80 85
78 82 73 73 49 20 26 26 18 20 20 19 20 23 21 17
15 16 19 18 18 18 18 17 15 17 16 17 17 18 27 29
80 72 68 84 95 93 69 76 83 71 54 52 50 51 44 39
25 17 17 19 17 14 15 9 10 11 11 14 17 17 18 15
12 9 14 14 11 17 19 25 29 12 5 5 8 0 0 0
0 0 0 2 5 16 26 3 30 39 39 39 39 39 39 39
3 3 4 4 5 6 7 9 26 29 19 14 23 20 18 19
18 8 36 55 34 47 44 44 40 44 72 69 72 89 79 80
69 82 70 73 46 23 25 23 22 19 19 24 21 22 23 22
17 19 19 19 16 18 16 16 16 17 14 16 18 20 27 30
84 68 63 82 93 88 76 81 80 73 54 56 54 54 43 38
14 14 18 19 18 13 16 8 10 12 10 13 15 14 17 16
11 8 14 13 12 15 19 28 23 9 4 5 6 2 0 0
0 0 0 0 0 1 1 0 7 28 39 39 40 39 40 39
