P2
128 120
153
34 33 33 33 33 32 32 31 31 30 29 29 28 28 28 28
27 26 26 25 25 25 25 24 24 23 23 22 22 21 21 20
20 19 19 19 19 18 18 18 17 16 15 14 12 12 13 15
16 17 17 14 10 17 21 19 17 16 17 17 15 13 11 9
9 8 7 10 13 11 11 9 11 14 14 15 16 16 17 17
17 18 18 19 18 19 20 20 20 21 21 21 22 22 22 22
22 23 23 24 25 26 26 27 27 27 28 28 28 28 29 29
30 29 30 32 30 30 31 31 32 31 31 31 32 32 32 31
34 34 34 33 32 32 32 31 31 30 29 29 29 28 28 27
27 26 26 26 26 25 24 24 23 23 23 22 22 21 21 21
21 20 20 19 19 18 18 18 17 17 15 14 13 13 13 17
17 19 20 15 9 18 22 21 19 17 17 16 15 15 13 11
11 9 7 10 13 13 11 12 14 15 16 16 17 18 18 18
18 19 19 19 20 20 21 21 21 21 22 22 22 22 23 22
23 24 26 25 25 26 27 27 27 28 28 28 28 29 29 29
30 30 30 31 30 30 31 31 31 32 31 31 31 32 32 32
34 34 33 33 32 32 31 31 30 31 30 30 29 29 28 28
27 27 27 26 26 25 24 24 24 23 23 22 22 21 21 21
20 21 20 20 20 20 19 19 19 18 17 15 15 14 15 18
20 20 20 15 8 17 23 21 20 19 18 17 17 16 14 13
14 12 9 8 13 12 13 14 15 16 17 17 18 19 19 18
19 20 20 20 20 20 21 21 22 22 22 22 23 23 24 25
25 26 27 26 27 27 28 28 28 28 28 29 29 29 30 30
31 31 31 32 30 31 31 31 31 32 32 31 32 32 32 32
34 34 34 33 32 32 32 31 31 31 30 29 29 29 28 29
28 28 27 27 26 25 25 24 24 24 24 23 23 23 22 21
22 21 21 21 20 21 19 19 19 18 17 16 15 15 15 20
21 22 22 17 10 17 24 22 21 20 18 18 18 17 14 15
15 13 10 8 14 12 14 15 17 18 18 19 20 20 20 21
20 21 20 21 21 21 22 22 22 23 23 24 24 24 25 26
26 26 29 27 27 28 28 28 28 29 29 29 30 30 30 30
30 31 31 32 31 31 32 32 33 32 32 32 32 32 32 32
35 34 33 33 33 32 31 31 31 31 31 30 30 29 29 29
28 28 27 27 26 25 25 25 24 25 24 23 23 23 23 22
22 21 22 21 21 21 20 20 19 19 19 17 17 16 18 21
22 23 23 17 10 16 25 22 21 21 21 19 19 18 15 16
16 15 12 8 15 13 15 17 18 19 19 20 20 21 21 20
21 22 22 21 21 22 22 23 24 24 24 24 25 25 26 26
27 28 28 27 28 28 28 29 28 29 29 30 29 30 30 31
31 31 31 32 32 32 32 32 32 32 32 31 31 32 32 33
34 34 34 33 33 32 32 32 31 31 30 30 30 29 29 29
29 28 27 26 27 26 26 25 25 25 24 24 24 23 23 23
22 22 22 21 21 21 21 20 19 19 19 18 18 18 19 22
23 24 24 18 12 16 25 23 21 21 21 20 19 18 17 17
17 16 14 10 16 15 17 19 20 20 21 21 22 22 22 22
22 22 22 22 23 23 23 24 24 24 25 25 25 26 26 26
27 27 29 28 28 27 29 29 30 29 30 30 30 30 30 31
31 31 31 33 31 32 31 30 31 31 32 32 33 32 33 33
34 34 33 33 33 32 32 32 32 31 31 31 30 30 30 28
28 28 27 27 26 26 26 26 25 24 25 24 23 23 23 23
23 22 21 22 22 21 21 21 21 20 20 20 19 20 20 24
24 25 24 19 12 15 25 23 22 22 21 21 20 19 18 18
18 17 16 11 16 15 18 19 20 20 21 21 21 21 22 22
22 23 23 23 23 23 24 24 25 25 26 26 26 26 27 27
27 28 29 28 28 28 29 29 30 29 29 30 30 31 31 31
32 31 31 30 30 31 32 32 32 32 32 32 32 32 33 33
34 34 33 34 33 33 32 31 31 31 31 30 30 29 29 29
29 28 28 28 27 27 26 26 26 25 25 25 25 24 23 23
23 23 22 22 22 21 21 21 21 20 20 20 20 21 21 24
25 25 24 20 14 15 25 24 22 22 22 21 21 20 20 19
18 18 17 12 17 17 19 21 20 21 21 21 22 23 23 22
23 23 24 23 24 25 25 25 25 26 26 26 26 27 27 27
27 28 29 28 29 29 29 30 30 30 29 30 31 31 31 30
29 30 31 31 32 32 32 32 32 32 33 32 33 33 33 34
35 34 34 34 34 33 32 32 32 31 31 31 30 30 30 29
29 28 28 28 27 27 26 26 26 25 25 25 25 25 24 24
24 23 23 22 22 21 22 21 21 21 20 20 20 21 22 25
26 25 26 20 16 14 25 25 23 22 22 22 22 21 21 20
19 19 17 14 18 17 20 21 21 21 22 22 22 23 24 23
24 24 25 24 25 25 25 25 26 26 26 27 26 27 27 28
28 28 29 29 29 29 30 30 30 30 29 28 30 30 31 32
32 32 32 32 32 32 32 32 32 33 33 33 33 32 33 33
35 34 34 33 33 33 32 33 32 32 32 30 30 30 30 29
29 29 28 28 28 28 27 27 27 26 26 25 25 24 24 24
24 23 22 23 22 22 22 22 22 22 21 21 21 22 23 26
26 26 26 21 17 14 25 25 23 22 23 23 22 21 21 20
20 20 19 16 19 19 22 22 23 23 24 23 24 23 24 24
24 25 25 26 25 26 26 26 26 27 26 27 27 27 27 28
29 29 30 30 29 29 30 29 29 30 31 32 31 31 32 32
32 33 32 32 32 33 33 33 32 33 33 33 33 34 33 33
35 34 34 34 33 33 33 33 32 32 31 31 31 31 30 30
30 29 28 29 28 27 27 27 27 26 26 26 25 25 25 24
24 24 24 23 23 23 23 22 22 22 22 22 22 22 24 26
27 27 27 21 18 15 25 26 23 22 24 23 23 22 22 21
21 21 19 18 20 20 22 23 23 23 23 24 24 24 25 25
25 26 26 26 26 26 27 27 27 27 27 27 28 28 28 28
29 29 29 28 29 28 29 30 30 31 31 33 32 31 33 33
32 32 33 32 33 33 33 33 33 33 33 33 33 34 33 34
35 35 35 34 33 33 33 32 32 32 32 32 31 30 30 30
30 30 29 29 29 28 28 28 27 27 27 26 26 25 25 25
25 24 24 24 24 23 23 23 23 23 22 22 23 23 24 26
28 27 27 23 19 12 21 26 24 24 24 24 24 22 24 22
22 21 21 18 22 21 24 24 24 24 24 24 25 25 25 26
25 26 26 26 26 27 27 27 27 27 28 28 28 29 29 28
27 28 28 29 30 31 31 32 32 32 32 33 32 32 32 32
32 33 33 33 33 33 33 33 34 33 34 33 34 34 34 34
35 34 34 34 33 33 33 32 32 32 32 31 31 31 31 30
30 29 29 29 28 28 28 27 27 27 27 26 25 25 25 25
25 25 24 24 25 24 24 23 22 22 23 22 22 23 24 27
28 28 28 22 17 9 21 27 25 25 25 24 24 24 24 22
22 22 21 18 22 22 24 24 24 24 25 25 25 26 26 26
26 26 27 27 27 27 27 28 28 28 28 28 27 28 27 29
29 30 31 31 31 31 32 31 32 31 32 33 33 32 33 32
33 33 33 33 33 33 33 34 33 33 33 34 33 34 33 34
35 35 34 34 34 33 34 33 33 33 32 32 32 31 31 31
31 31 30 30 29 29 28 27 27 27 27 26 27 26 26 25
26 25 25 25 25 25 24 24 24 24 23 23 23 24 25 28
29 29 29 23 18 16 24 29 26 25 25 25 25 24 25 23
24 23 22 19 23 23 25 25 26 26 25 26 26 27 26 26
26 26 28 28 27 28 28 28 28 28 28 28 29 29 30 30
31 31 31 31 32 32 32 32 32 33 33 34 33 33 33 33
33 33 33 33 33 33 34 34 34 35 35 34 34 34 34 34
36 35 35 34 34 34 34 33 33 33 33 33 32 32 31 32
32 31 30 30 30 29 29 28 28 28 27 27 27 27 27 27
26 26 26 26 26 25 25 24 24 24 24 24 24 25 25 28
29 29 29 24 20 20 23 29 28 27 27 26 26 25 26 23
23 24 23 20 24 23 26 26 25 26 26 26 27 27 27 27
27 28 28 28 28 28 28 29 29 29 29 30 30 30 31 31
31 31 32 32 32 32 33 33 33 33 33 34 33 33 34 34
33 34 34 33 34 35 34 34 34 34 34 34 34 34 34 35
35 35 34 34 34 34 33 33 33 33 33 32 32 32 32 31
31 31 30 30 29 29 29 29 28 28 28 27 28 27 27 27
26 26 26 26 25 26 25 25 24 24 24 24 24 25 26 29
30 29 29 24 20 21 22 29 28 27 27 26 26 26 26 24
24 24 23 20 24 24 26 26 26 26 27 27 27 27 27 27
27 27 27 27 28 28 29 29 29 30 31 31 30 30 31 31
31 31 32 32 32 32 32 33 33 33 33 33 33 33 33 33
34 34 34 34 34 34 34 34 34 34 35 34 35 34 35 35
35 35 34 35 34 34 34 33 33 33 33 32 32 32 31 31
31 31 31 29 30 30 29 29 29 28 28 28 28 27 28 27
27 26 26 26 26 25 25 25 25 24 24 24 24 25 26 30
30 30 30 25 20 24 22 29 28 27 27 27 26 26 26 24
25 25 24 21 25 25 27 27 26 28 27 28 27 27 27 27
27 27 28 28 28 29 29 29 29 30 31 31 31 31 30 31
31 31 32 32 32 32 32 33 33 33 33 34 34 33 34 34
34 34 34 35 34 33 34 34 34 34 34 34 34 34 34 35
35 35 34 35 34 34 34 34 33 33 34 33 33 32 32 32
32 31 31 30 30 29 29 29 29 29 29 28 28 28 28 27
27 27 26 27 26 25 26 25 25 26 25 25 25 26 27 30
31 31 31 25 21 24 21 29 29 28 27 27 27 26 27 26
26 25 25 22 25 25 27 27 27 27 27 28 27 27 28 28
28 28 29 28 29 29 30 30 30 30 31 31 32 31 32 31
32 32 32 31 33 33 32 33 34 33 33 34 34 34 34 34
35 35 35 35 34 34 34 34 34 34 35 34 35 34 34 34
35 35 35 34 35 34 33 34 34 34 33 33 32 32 32 32
32 31 31 30 30 30 30 29 29 29 29 28 28 28 28 27
27 26 26 26 26 26 26 25 25 25 25 25 25 26 27 31
31 32 31 25 21 25 22 28 29 28 27 27 27 26 27 26
26 26 25 22 26 25 27 27 27 27 27 29 28 28 29 29
29 29 29 29 30 30 30 30 31 31 32 31 31 31 32 32
31 32 32 32 33 33 33 33 34 34 34 34 34 34 34 35
34 34 34 33 33 33 34 34 34 34 35 34 35 34 34 34
35 35 34 34 34 34 34 34 34 33 34 33 33 32 32 31
31 31 31 31 30 30 30 30 29 29 29 28 29 28 28 28
28 27 27 27 27 27 26 26 26 26 26 25 26 26 27 31
31 31 31 27 21 26 22 28 29 29 29 28 28 27 29 27
27 26 26 22 26 23 27 27 27 28 28 29 28 28 29 29
28 29 30 29 30 30 31 31 31 31 32 32 31 32 32 32
32 33 33 32 33 33 34 33 34 34 34 35 35 34 33 33
33 34 34 35 34 33 34 34 34 34 35 34 34 35 35 35
35 35 35 35 34 34 34 34 34 33 33 33 32 32 32 32
31 32 31 31 31 31 30 30 30 29 29 29 29 28 28 28
28 27 27 27 27 27 27 26 26 26 26 26 26 27 28 31
32 32 32 26 21 27 23 28 29 29 29 28 28 28 29 27
27 27 26 23 26 26 28 29 29 29 29 29 29 29 29 30
30 30 30 30 30 30 31 31 31 31 31 32 32 32 32 33
32 32 33 34 34 34 34 34 34 34 33 33 33 33 33 34
34 34 34 35 36 33 34 34 34 34 34 33 34 35 35 34
35 35 35 35 34 34 34 34 33 34 34 33 33 33 33 33
32 32 32 31 31 30 31 30 30 30 29 29 29 29 29 29
28 28 27 27 27 27 26 27 27 27 26 26 26 27 28 31
33 33 32 27 22 27 24 28 30 30 29 29 28 28 30 28
27 27 26 23 26 26 28 28 29 29 29 30 29 30 30 30
30 30 31 30 31 31 31 31 32 32 31 33 32 32 32 33
33 33 33 33 33 33 33 33 33 33 34 34 35 35 35 34
34 34 35 35 36 34 34 34 34 34 34 34 35 34 35 35
35 35 35 34 34 34 34 33 34 34 33 33 33 33 33 32
32 32 33 32 32 31 31 31 30 30 30 29 30 29 29 28
29 28 28 28 28 27 27 27 27 27 27 26 27 27 29 31
33 33 32 28 22 28 26 28 30 30 29 30 28 28 29 28
28 27 27 24 27 27 29 29 29 29 30 30 30 30 30 31
30 30 30 31 32 31 32 32 32 32 33 33 33 33 33 33
33 33 33 34 33 34 35 35 35 34 34 35 35 35 34 35
35 35 35 35 35 35 35 35 35 35 35 35 35 35 35 34
35 35 35 34 34 34 34 33 34 34 33 33 34 33 33 33
33 32 32 32 32 31 31 31 31 31 30 30 30 30 30 29
29 29 28 29 28 28 28 28 28 27 26 27 27 28 28 32
33 33 33 28 23 28 27 27 29 30 30 30 30 29 29 29
28 28 27 24 27 27 29 29 30 30 30 31 30 31 31 30
30 30 31 31 32 31 32 32 32 32 33 33 32 33 32 32
33 34 34 35 35 35 35 35 36 35 35 35 35 35 35 35
35 35 36 35 36 35 34 34 34 34 35 34 35 35 35 34
35 35 35 34 35 34 34 34 34 34 33 34 34 33 33 33
33 33 32 33 31 31 31 31 31 31 30 30 30 29 30 29
30 29 29 29 29 29 28 28 28 28 28 27 27 29 29 33
34 34 34 29 24 29 29 26 31 31 30 30 30 29 28 29
29 28 28 25 27 27 30 31 31 30 31 32 31 31 31 31
31 31 32 32 31 32 31 32 33 33 33 32 33 33 33 33
34 34 35 35 35 35 35 35 35 35 35 35 35 35 35 35
35 35 35 35 35 35 34 35 35 35 35 35 35 35 35 34
35 35 34 34 34 34 34 34 34 34 34 34 34 34 34 33
33 32 32 32 32 31 31 31 31 31 31 30 30 30 30 30
30 29 30 29 29 29 28 28 28 28 28 28 28 29 30 33
34 34 34 31 25 29 31 25 31 31 32 30 30 29 28 28
28 28 28 25 27 27 30 30 31 30 31 32 32 32 32 31
32 32 32 32 32 32 32 32 33 32 33 33 33 33 34 34
34 34 34 35 35 35 35 35 35 35 35 35 35 35 35 35
35 36 35 35 36 35 35 34 35 34 35 34 35 35 34 35
35 35 35 35 35 34 34 34 34 33 34 34 34 34 33 34
34 33 33 33 32 32 32 31 31 31 31 31 31 31 30 30
30 30 30 29 30 29 29 29 29 28 28 28 29 29 30 33
35 36 35 32 27 32 33 25 32 32 32 31 31 31 29 29
29 29 29 26 28 28 31 31 31 32 31 32 31 32 32 32
32 32 32 32 32 33 33 33 33 33 34 34 33 34 34 34
35 35 35 36 36 36 35 35 36 36 36 35 35 36 35 35
35 35 35 35 35 36 35 35 35 35 35 35 35 35 35 35
35 36 35 35 35 35 35 35 35 35 34 34 34 34 33 33
34 33 33 32 32 31 32 32 31 32 32 31 32 31 31 31
30 31 30 30 30 29 29 29 29 28 28 28 28 29 30 36
37 37 38 36 29 33 37 32 33 35 34 33 32 31 29 30
29 30 29 27 27 28 31 32 31 32 31 31 31 32 32 31
31 31 32 33 33 33 33 33 33 34 34 35 34 35 35 35
35 35 35 36 36 36 35 36 36 35 36 36 35 35 36 35
35 35 36 35 35 36 35 35 35 35 35 35 36 36 35 34
35 35 35 35 34 35 35 35 35 34 34 34 34 34 34 34
33 33 33 33 33 33 32 32 32 32 32 32 32 31 31 31
31 30 30 30 30 30 30 29 29 28 29 28 28 30 32 36
40 43 43 38 29 32 36 35 35 38 35 37 35 32 29 30
29 29 29 27 28 29 31 32 32 31 32 32 31 31 32 32
32 32 33 33 33 34 34 34 34 34 34 35 34 35 35 35
36 35 36 36 36 36 36 36 36 36 36 36 36 36 35 36
35 35 36 37 36 37 35 36 36 35 34 34 34 34 35 35
36 35 35 35 35 35 36 35 35 35 35 35 35 34 34 34
34 34 34 33 33 33 33 33 33 32 32 33 32 32 32 31
31 30 30 30 30 30 29 29 29 29 29 29 31 31 34 48
58 65 71 68 61 51 44 36 45 39 36 36 39 39 31 30
29 30 29 27 29 28 30 31 31 31 32 32 33 33 33 32
33 33 33 35 34 34 35 35 34 34 34 35 35 36 35 36
36 36 36 36 36 36 36 37 37 36 36 36 36 36 36 36
36 37 37 37 36 35 34 33 34 34 34 34 36 36 37 35
36 36 35 35 35 35 35 35 36 35 35 35 35 35 35 34
35 34 34 34 34 33 34 33 33 33 33 33 33 32 32 31
31 31 31 31 31 30 30 30 30 30 30 30 33 48 72 79
83 83 82 80 78 74 58 52 66 66 70 63 52 50 43 32
30 30 30 27 28 29 31 33 33 32 33 33 32 33 33 33
33 34 34 35 34 34 34 35 34 35 35 35 35 36 36 36
37 36 36 36 37 36 36 36 37 36 36 36 36 36 36 36
36 35 35 35 35 34 35 35 35 36 36 34 36 35 37 35
30 33 36 36 36 35 35 35 35 35 35 35 35 35 35 34
34 34 34 34 34 34 33 33 33 33 33 32 32 32 33 32
32 31 31 31 30 30 31 30 30 30 31 36 53 70 77 80
84 88 88 75 65 56 55 54 71 66 75 82 82 63 55 44
31 31 30 29 29 31 32 33 33 33 33 33 33 33 33 34
34 34 34 35 34 34 34 34 35 35 35 35 36 36 36 36
36 36 37 37 37 37 36 36 37 37 36 36 36 35 34 34
34 35 35 36 36 35 35 35 36 36 36 36 36 35 36 35
12 22 36 36 36 36 36 35 35 36 36 35 35 35 35 35
34 35 35 34 34 34 33 33 33 33 33 33 33 32 33 32
32 32 31 31 31 31 30 31 31 32 34 49 60 69 86 93
86 61 54 41 37 40 42 43 58 59 61 69 80 88 72 66
40 31 30 29 29 31 32 33 33 33 33 33 34 33 34 33
34 34 34 35 35 35 35 35 35 35 35 35 36 36 36 36
37 37 37 37 37 36 36 36 36 36 36 36 36 36 36 36
36 36 36 36 36 35 36 35 35 35 36 35 35 35 36 35
11 20 35 36 36 36 36 35 35 35 36 36 36 36 36 36
36 35 35 35 35 34 34 34 33 33 33 33 33 33 33 33
32 32 32 31 32 31 31 31 32 35 52 59 79 93 96 70
38 46 37 35 35 41 37 50 46 40 41 46 54 62 78 79
63 35 31 29 29 31 33 34 34 33 34 34 34 34 34 34
35 35 34 36 36 35 35 36 35 35 36 36 36 36 36 36
37 36 36 36 36 36 36 36 36 36 36 36 37 36 35 36
36 36 36 36 36 36 35 36 36 35 36 35 35 35 36 35
12 18 34 36 36 36 36 36 35 35 36 37 36 36 36 36
36 35 35 35 34 34 34 34 33 34 34 34 37 38 37 34
34 33 32 32 32 31 32 32 38 53 61 83 95 88 53 31
47 41 42 35 41 36 36 46 40 36 33 38 46 51 52 68
79 52 32 30 28 31 33 33 33 34 35 34 34 34 35 34
34 34 35 36 36 36 35 36 36 36 36 36 36 37 36 36
37 36 35 36 36 35 36 35 36 35 35 36 36 36 36 35
36 35 36 36 36 36 36 35 35 36 35 34 35 35 35 35
13 20 35 36 36 36 36 35 37 44 43 42 41 38 37 36
35 35 35 35 35 35 34 33 34 33 33 34 44 47 44 40
39 37 34 32 32 32 32 40 56 63 84 96 86 50 34 47
57 49 40 37 45 36 33 42 38 36 32 29 40 48 51 47
52 73 43 31 29 32 33 34 34 34 34 34 35 34 34 34
35 34 35 36 36 35 36 35 36 35 36 36 36 36 36 36
37 36 36 36 36 36 36 36 36 36 35 35 36 36 35 35
36 36 36 36 35 36 36 35 35 35 35 36 35 35 35 35
13 21 36 37 37 36 36 36 38 48 47 46 45 42 41 40
39 36 36 35 35 34 34 32 33 33 33 35 45 46 44 42
43 43 39 34 32 33 41 53 62 82 96 87 57 39 49 67
60 54 42 47 44 35 38 44 34 35 35 30 35 46 57 54
49 47 68 37 30 32 33 35 34 35 35 35 35 35 35 35
35 35 35 35 35 35 34 35 35 35 35 36 36 35 36 36
36 36 36 37 36 35 35 36 36 36 35 35 36 37 36 36
36 36 36 35 36 35 36 35 36 35 35 35 35 34 34 35
13 23 39 38 38 37 37 36 38 48 47 46 44 43 43 45
47 41 41 40 38 36 34 33 34 33 33 34 42 41 41 40
42 42 41 35 32 42 55 58 83 92 93 64 62 48 73 70
71 58 50 57 44 38 38 38 32 36 39 33 35 46 54 66
61 52 52 65 32 33 33 35 35 35 35 35 35 34 35 35
34 34 34 34 35 35 35 35 36 35 36 36 37 36 36 37
36 36 36 36 36 35 36 36 36 35 36 35 36 37 35 36
36 35 36 35 36 36 35 35 35 35 35 35 35 35 35 35
14 24 41 40 38 40 39 38 40 41 35 41 43 44 46 47
48 41 37 39 42 40 39 37 37 37 35 35 34 23 25 27
32 36 39 36 39 53 53 73 87 95 73 75 58 65 85 82
76 65 59 63 46 44 40 34 32 37 45 40 37 50 62 68
70 69 50 62 51 34 33 34 34 34 34 34 34 34 34 34
34 34 35 35 35 36 35 35 35 36 36 37 37 35 36 36
36 35 36 36 35 35 35 35 36 36 35 35 36 37 36 36
35 35 35 35 35 35 35 34 35 35 35 35 35 35 35 35
14 25 42 40 35 36 40 43 45 26 1 8 24 34 38 41
44 38 9 9 16 24 32 34 38 42 40 37 33 16 11 13
12 11 16 38 50 50 66 81 91 84 80 79 64 81 94 90
85 75 68 62 50 52 45 37 35 43 49 46 44 53 75 73
83 80 68 55 74 41 35 35 35 34 35 34 35 34 34 34
34 34 35 35 35 35 35 35 35 36 36 36 37 36 36 36
36 36 36 36 36 36 36 36 36 36 35 36 35 36 35 35
35 34 35 36 35 35 35 35 35 35 35 36 36 35 35 35
16 23 39 41 40 37 37 45 48 27 0 0 6 15 18 18
27 36 2 0 0 0 2 8 12 20 28 36 33 14 4 8
9 4 6 44 47 61 69 81 90 88 91 76 81 98 104 100
92 80 74 65 61 62 48 47 45 50 55 60 53 61 84 86
89 90 92 61 69 66 35 36 35 34 35 35 36 35 36 35
36 36 35 36 36 36 36 36 36 36 36 36 38 36 36 36
36 36 36 36 36 36 36 36 36 36 35 36 36 37 36 36
35 35 35 35 35 35 35 36 35 35 35 36 36 35 35 34
15 13 11 18 27 35 41 47 49 29 0 0 3 8 12 13
21 37 5 0 0 0 0 0 0 0 1 27 32 10 0 1
5 6 17 47 58 58 65 72 92 98 98 81 95 107 106 103
99 82 79 73 80 66 61 60 56 59 65 71 67 76 84 99
94 104 98 85 64 86 49 38 36 35 35 35 36 36 35 35
35 35 35 35 36 36 36 36 36 36 36 36 37 36 37 36
36 36 36 36 37 36 36 36 36 36 36 35 36 36 36 35
35 35 35 35 35 36 36 36 36 36 36 36 36 36 36 36
15 8 0 0 0 3 9 17 28 26 0 0 1 3 2 6
17 37 6 0 0 0 0 0 0 0 0 27 31 4 0 0
3 11 34 51 53 53 56 80 96 109 98 93 106 114 112 109
103 90 87 86 91 74 75 71 67 68 79 83 77 93 88 109
106 107 106 106 76 87 74 38 37 36 35 35 36 36 36 36
36 35 35 36 36 36 36 36 36 36 36 36 37 37 37 36
37 37 37 37 37 37 37 36 37 36 36 36 36 36 35 35
36 36 37 35 35 36 36 36 36 36 36 36 36 36 35 35
15 7 0 0 0 0 0 0 1 19 0 0 0 0 0 1
15 34 3 0 0 0 1 1 0 0 0 25 28 1 0 0
2 24 44 53 44 51 53 86 105 110 96 105 113 117 116 112
97 95 96 96 96 84 87 79 84 75 89 97 94 102 96 113
114 109 115 110 100 89 91 51 36 36 36 36 36 36 35 35
35 35 35 35 36 36 36 36 37 36 37 37 38 36 37 37
37 37 37 37 37 37 36 37 37 36 36 36 36 36 35 37
37 37 36 36 36 36 36 37 36 37 36 35 36 35 36 35
15 7 0 0 0 0 0 0 0 15 0 0 0 0 0 0
17 37 4 0 0 0 7 11 2 0 0 23 28 1 0 0
7 30 43 49 40 44 62 90 109 103 99 110 118 118 118 112
97 100 102 106 99 93 101 92 95 82 100 109 108 109 104 111
118 116 120 108 109 92 96 71 38 36 36 36 36 35 36 36
35 35 36 35 36 36 36 36 36 36 37 36 37 36 37 37
37 37 37 37 37 37 37 37 36 36 35 36 36 37 37 36
37 36 37 36 35 35 37 37 36 36 36 36 36 36 36 36
15 8 0 0 0 0 0 0 0 14 0 0 0 0 0 0
17 40 4 0 0 0 10 15 11 7 1 21 28 0 0 0
10 35 45 41 39 44 66 91 106 99 111 112 124 122 117 112
106 105 109 111 105 104 110 104 101 90 111 120 122 113 115 110
119 118 119 110 112 97 96 87 47 36 36 36 36 36 35 36
36 36 36 36 35 36 36 37 37 37 38 37 39 38 37 38
38 37 38 37 37 37 37 36 36 36 37 37 36 37 37 36
36 36 36 36 35 36 37 37 36 37 37 37 37 37 37 37
15 8 0 0 0 7 4 0 0 13 0 0 0 0 0 0
15 41 6 0 0 1 12 16 15 15 4 19 30 1 0 0
14 31 41 37 33 46 66 92 104 96 112 110 122 119 116 114
113 109 115 114 110 115 117 115 101 95 116 129 129 115 124 115
121 120 114 110 109 95 93 92 59 36 36 36 36 35 35 35
36 36 36 35 36 36 36 36 36 37 37 37 38 37 37 37
37 38 37 37 37 37 37 37 36 37 37 36 36 37 36 36
36 37 36 36 36 35 37 37 37 37 38 37 37 36 35 34
14 7 1 8 3 3 1 0 0 12 0 0 0 0 0 2
16 41 6 0 0 1 10 14 14 14 4 18 32 4 1 4
24 33 38 33 33 47 69 97 99 96 106 118 119 113 118 114
114 112 122 112 114 126 120 121 101 99 120 133 131 120 125 117
119 117 110 112 108 97 93 91 65 39 36 36 37 36 36 35
35 36 36 36 36 36 36 36 37 37 37 36 37 37 37 37
37 37 37 37 38 37 37 37 37 37 37 37 37 37 36 36
37 36 36 36 36 36 37 36 35 35 34 36 36 33 32 30
15 8 4 4 0 1 1 0 0 13 0 0 0 0 0 5
23 43 11 0 2 1 0 5 12 13 3 17 41 33 26 26
29 35 31 29 34 49 71 98 93 100 108 119 117 109 119 113
118 117 117 113 120 132 130 124 103 104 123 132 132 124 118 122
114 116 105 111 104 99 90 87 72 44 36 36 36 36 36 36
35 36 36 36 36 36 37 37 37 36 37 37 37 37 37 37
37 38 38 37 38 37 38 37 37 37 36 37 36 36 36 35
36 35 34 34 34 35 36 34 32 31 29 27 24 21 19 17
15 9 1 0 0 0 0 0 0 24 18 10 8 6 1 0
15 48 36 27 23 19 10 5 5 8 2 15 45 46 43 43
38 34 27 24 37 50 73 93 84 104 107 116 112 107 115 115
117 114 111 112 125 131 132 123 105 115 129 130 127 126 113 126
113 114 105 108 104 104 86 84 80 49 36 36 36 36 36 36
36 36 36 37 37 37 37 37 36 37 37 37 36 37 37 38
37 38 38 37 37 37 37 36 37 35 35 35 35 34 34 33
34 34 32 31 29 28 25 21 20 16 15 14 15 16 16 17
15 8 0 0 0 0 0 0 1 36 50 40 36 36 32 24
28 53 33 27 29 31 32 30 27 26 24 31 45 44 44 43
40 33 24 25 38 50 73 87 82 105 106 114 103 106 115 119
114 109 107 110 120 127 132 122 110 123 131 123 117 115 111 121
114 111 107 102 102 104 80 85 80 52 38 35 36 36 36 36
37 36 37 36 38 37 36 37 36 36 37 37 36 37 37 37
38 38 37 37 38 37 36 35 35 34 33 34 33 32 30 28
25 23 21 19 17 16 16 17 17 18 19 20 21 22 22 23
15 9 0 0 0 0 0 0 1 38 52 42 47 50 53 52
48 49 25 14 15 17 18 19 20 23 27 32 33 30 38 38
42 30 21 27 36 48 68 83 82 104 110 106 95 109 108 117
104 100 105 113 115 128 133 126 122 128 131 114 103 103 110 115
112 106 110 95 101 97 76 80 74 59 42 36 36 36 36 36
37 36 36 36 37 36 36 37 36 36 37 37 37 36 36 37
36 36 36 36 37 36 34 35 36 29 26 24 21 20 18 17
17 18 19 19 20 20 22 22 23 24 24 25 23 19 25 27
15 19 20 15 8 3 0 0 1 38 44 41 49 51 55 56
47 39 24 15 16 15 15 14 12 12 11 12 13 17 22 29
37 24 18 26 36 44 67 78 83 97 110 93 92 106 104 104
88 95 102 113 115 129 133 133 129 130 130 108 91 95 106 107
112 107 105 94 99 92 81 71 68 67 41 37 36 36 36 36
36 36 35 35 37 37 36 36 36 36 37 36 37 37 37 37
35 34 32 29 27 24 21 24 36 25 15 18 19 20 21 21
22 22 24 24 25 26 27 27 29 28 29 29 29 26 21 27
16 26 44 47 44 38 32 26 23 42 36 41 48 50 53 55
49 40 27 17 16 14 13 12 12 11 11 11 12 16 18 30
34 22 18 27 37 39 67 70 79 85 100 77 90 103 101 86
78 92 99 109 113 128 134 134 132 131 125 105 86 88 96 99
107 105 99 97 92 86 78 64 65 70 42 37 36 35 35 36
36 35 35 34 36 36 36 36 36 36 36 34 34 31 28 25
23 21 21 20 20 21 21 20 30 23 19 23 25 26 26 26
28 28 28 29 30 30 29 29 31 31 30 29 31 32 28 21
16 25 46 50 49 48 48 49 49 48 23 24 33 38 44 48
45 42 31 18 16 13 10 9 9 11 12 13 15 16 19 32
34 18 20 28 35 37 65 69 70 83 83 68 85 97 87 69
74 84 92 104 120 132 133 133 134 133 125 109 89 76 87 93
99 100 97 100 87 83 72 54 60 72 44 36 34 34 33 32
33 35 34 35 35 34 33 31 29 27 25 23 22 22 21 22
22 23 24 25 26 27 27 26 32 26 23 27 29 29 30 30
31 31 32 32 32 32 32 32 31 32 33 31 32 33 33 30
15 23 45 49 50 49 50 50 52 46 9 1 3 6 11 19
23 35 33 17 15 9 1 1 1 6 14 15 14 14 20 30
27 15 22 30 32 42 57 56 50 68 59 59 81 80 71 59
74 74 85 114 129 134 134 132 134 132 122 120 98 75 79 81
89 96 97 95 81 85 69 47 53 70 47 34 31 32 31 23
27 32 30 27 26 24 23 22 23 23 23 24 25 26 27 28
28 30 30 29 31 31 31 29 32 27 25 31 32 33 33 33
33 34 34 34 34 34 34 34 33 32 32 33 31 34 34 34
22 25 36 40 41 42 44 47 50 42 6 0 0 0 0 4
13 34 33 15 14 9 0 0 0 1 4 7 4 7 16 25
26 15 24 30 25 18 41 49 46 45 45 46 42 37 36 37
50 56 102 130 135 134 134 129 134 131 120 131 120 89 63 74
81 89 91 90 79 85 65 42 45 66 49 33 30 28 26 19
21 23 23 23 25 25 26 27 28 29 30 30 30 31 32 33
34 34 34 34 34 35 34 27 15 13 24 33 34 34 35 34
34 35 35 36 36 36 36 34 35 34 33 33 33 33 34 35
22 25 26 28 31 35 34 37 46 40 3 0 0 0 1 0
4 35 34 14 12 7 0 0 4 3 1 1 0 3 11 23
23 17 25 25 17 17 86 73 42 29 24 18 15 12 14 20
29 39 59 92 127 133 134 130 135 126 112 127 129 95 50 53
64 68 69 64 51 48 38 27 21 34 47 32 25 24 25 24
25 27 28 29 30 31 32 32 33 33 34 35 35 35 36 36
36 36 36 36 36 35 35 24 5 3 20 34 37 37 37 36
36 36 36 36 36 36 36 36 36 35 35 33 33 32 34 36
21 24 23 23 27 35 33 35 47 39 3 0 0 0 0 0
0 34 29 8 4 0 0 0 9 11 6 2 1 3 9 24
19 19 25 16 13 15 54 19 19 27 26 16 12 4 7 10
9 31 43 82 89 108 128 130 134 117 91 86 59 54 57 53
44 39 27 22 18 17 26 32 20 5 19 36 29 30 30 31
32 33 35 35 36 36 36 37 37 37 38 38 38 38 38 38
39 39 37 30 26 20 31 23 11 4 19 35 37 38 38 38
38 38 37 37 37 38 37 38 37 37 36 36 34 33 34 36
20 22 22 26 31 36 37 41 48 39 3 0 0 0 0 0
1 37 23 0 0 0 0 1 5 15 13 6 3 4 9 24
19 21 20 11 13 15 36 20 40 88 77 24 14 9 7 12
8 17 45 139 129 74 98 133 135 108 52 42 30 25 27 36
58 42 21 10 2 1 1 0 9 5 25 38 34 35 35 36
36 37 37 37 37 37 38 38 39 39 39 39 40 40 39 39
39 39 26 5 3 6 26 21 3 1 19 35 37 38 39 37
37 37 37 37 37 37 37 38 37 37 36 37 36 33 32 33
22 20 3 3 7 13 18 24 29 33 3 0 0 0 0 0
2 38 25 0 0 0 0 1 6 16 18 14 8 7 10 23
17 22 17 9 14 23 32 17 66 146 129 37 26 16 9 15
19 14 34 100 109 52 65 101 109 66 50 21 9 6 18 64
140 127 44 20 5 0 0 0 3 7 42 40 35 36 36 37
38 38 38 38 38 39 39 40 39 39 39 39 40 40 40 39
39 39 33 24 27 31 34 26 1 1 16 34 37 37 38 36
37 37 37 37 37 37 37 37 37 36 36 37 36 36 33 30
27 21 0 0 0 0 0 0 0 20 3 0 0 0 0 0
2 38 22 0 0 0 0 4 17 20 19 17 11 5 11 23
31 42 12 13 18 35 26 17 59 139 113 42 21 12 10 10
12 11 18 29 36 47 57 60 51 28 51 11 2 7 21 64
141 142 81 29 7 0 0 0 6 22 45 42 36 37 36 38
39 39 39 38 39 39 40 40 39 39 39 40 40 39 39 40
40 40 39 38 38 37 36 28 5 1 18 34 37 37 38 37
37 37 36 37 37 36 37 36 37 37 36 36 36 36 36 32
26 21 1 0 0 0 0 0 0 16 3 0 0 7 4 0
1 36 18 0 0 0 0 3 18 23 18 9 7 3 13 27
78 95 51 13 38 37 21 14 34 56 40 18 10 7 7 7
5 6 15 16 16 41 53 39 31 31 46 5 1 6 16 31
73 95 53 24 6 1 0 0 3 26 45 42 38 37 38 39
39 39 40 40 40 39 40 39 40 39 39 40 40 40 40 40
40 39 40 39 38 37 36 32 10 0 23 35 37 38 39 38
38 37 37 37 37 36 37 37 37 37 36 36 37 36 36 33
26 22 1 0 0 4 1 0 0 15 3 0 5 19 13 2
1 37 17 0 0 0 0 1 5 15 12 0 2 3 14 34
57 67 71 37 54 43 18 13 20 20 16 8 5 2 2 1
2 3 8 7 8 37 45 91 90 41 45 2 0 4 8 15
25 33 26 16 5 0 0 0 1 24 40 44 38 38 40 39
39 40 40 39 39 40 39 39 40 39 39 40 41 40 39 40
40 40 39 39 39 37 36 32 21 12 28 36 38 38 38 37
37 37 37 36 37 37 37 37 37 37 38 36 37 36 36 34
23 20 1 0 5 16 8 1 0 14 4 0 11 19 15 5
0 35 15 1 1 0 0 1 0 12 12 0 0 1 14 35
58 79 81 63 63 51 15 11 13 7 4 3 1 0 0 0
0 0 2 2 4 43 77 137 135 95 45 3 0 2 5 10
14 14 10 4 2 0 4 1 1 23 38 46 38 38 39 40
39 39 40 39 39 39 39 39 39 39 39 39 40 39 40 39
39 39 39 39 38 36 34 31 29 27 32 36 37 37 38 37
37 37 37 37 37 37 37 37 37 36 36 36 36 36 36 34
22 20 1 0 11 22 10 4 0 18 25 19 27 27 25 19
11 38 15 0 0 0 0 0 0 10 16 0 0 0 15 36
70 88 106 79 70 56 13 8 10 3 2 2 0 0 0 0
0 0 1 1 9 46 103 135 135 115 43 7 0 0 1 5
8 8 4 1 0 0 4 3 4 22 35 46 39 38 39 39
39 39 39 39 38 39 38 38 38 39 39 38 40 40 39 39
39 39 39 38 38 37 35 32 31 32 36 37 38 37 38 37
37 37 37 37 37 37 37 37 37 37 37 37 36 36 35 32
21 20 1 0 7 10 5 2 0 21 44 42 46 46 44 46
46 50 18 0 2 0 0 0 1 13 18 1 3 5 19 38
72 84 104 84 72 63 9 6 6 0 0 0 0 0 0 0
0 0 0 0 23 61 115 134 135 115 50 19 0 0 0 1
3 2 0 0 0 0 3 3 5 18 35 48 40 39 39 39
39 39 39 39 39 39 39 39 38 38 39 39 39 40 39 39
39 39 39 38 38 37 36 33 33 36 38 38 37 37 39 38
38 38 37 37 37 37 37 36 36 37 37 36 36 35 36 34
22 21 7 1 1 1 0 0 0 19 45 45 48 48 48 52
56 56 34 20 22 16 9 7 10 18 21 8 8 10 26 40
65 86 94 71 70 73 15 4 3 0 0 0 0 0 0 0
0 1 0 3 32 91 111 133 135 113 59 27 0 0 0 0
0 0 0 0 0 0 1 2 10 12 32 47 42 38 38 39
38 39 38 38 39 38 38 39 38 39 38 39 39 39 39 40
39 40 38 38 37 37 36 35 35 36 38 37 38 37 38 38
37 37 38 36 37 37 37 36 37 36 36 36 34 33 34 32
23 24 20 5 1 1 0 0 0 18 43 42 45 45 45 51
55 54 43 37 37 36 33 32 33 32 31 26 23 25 34 45
61 95 94 76 80 75 34 7 1 0 0 0 0 0 0 0
0 3 4 22 46 109 106 131 135 112 70 21 6 0 0 0
1 0 0 0 0 0 0 0 13 10 30 47 44 39 38 38
38 38 39 38 38 39 39 39 39 38 39 39 39 40 39 39
39 40 38 38 37 37 36 36 36 37 37 36 36 36 37 37
37 37 37 36 36 36 36 36 36 36 36 35 34 34 34 33
23 25 15 1 0 0 0 0 0 18 41 38 41 41 41 42
39 40 39 39 40 40 38 37 39 38 37 36 35 36 42 55
60 91 95 83 91 74 60 24 2 0 2 3 0 0 0 0
0 1 10 30 74 99 103 130 134 112 86 18 19 0 1 3
3 1 2 6 0 0 0 1 21 10 29 47 47 38 38 38
38 38 39 39 38 38 38 38 38 39 38 39 39 39 39 39
38 39 38 38 38 37 36 36 37 38 37 37 37 37 38 38
37 37 36 37 36 36 36 36 35 35 35 35 34 34 34 33
26 25 13 2 1 0 0 0 0 19 43 38 39 39 39 38
37 36 39 40 41 43 43 42 41 40 39 38 43 46 51 65
64 89 95 94 94 72 75 46 16 0 0 0 0 0 0 0
0 4 25 51 97 83 105 127 130 115 93 43 23 8 0 3
8 4 3 0 0 0 0 14 21 8 30 49 50 39 38 38
38 39 39 38 38 38 38 38 38 38 38 39 39 38 38 38
39 39 38 38 38 37 37 37 38 39 38 37 38 38 38 37
37 37 37 36 35 35 35 35 35 34 35 34 34 33 33 32
24 24 31 30 29 23 21 18 15 29 46 39 39 39 40 40
41 42 45 43 43 45 49 49 43 38 38 39 47 50 52 72
64 87 96 94 97 72 71 84 52 18 8 2 0 0 0 2
10 31 84 88 87 81 114 130 132 119 95 70 51 24 6 1
1 3 3 0 0 0 7 26 16 9 31 49 49 38 37 37
37 38 39 39 39 38 38 38 38 38 38 38 38 38 38 39
39 38 38 38 38 38 38 37 38 38 37 37 37 37 37 37
37 36 36 36 35 36 36 35 35 34 33 33 33 32 33 31
25 25 43 49 51 47 48 50 50 51 50 42 41 41 41 42
45 48 50 44 44 47 51 48 43 39 35 36 47 50 55 72
62 78 93 94 89 76 68 81 89 79 47 22 17 18 22 37
73 120 119 89 71 88 120 134 135 128 98 96 78 79 36 20
11 7 2 0 1 12 40 40 10 12 34 51 49 38 37 38
38 38 39 39 39 38 37 37 37 37 37 38 39 38 38 38
38 38 38 37 37 37 38 37 38 37 37 36 36 36 36 36
35 35 35 35 35 34 34 34 34 34 33 32 32 31 30 29
25 26 45 55 55 54 55 55 55 55 52 38 35 34 33 34
38 46 52 44 44 43 41 42 43 40 36 33 40 40 54 75
61 69 85 89 95 76 66 76 87 96 100 102 101 107 117 130
135 134 123 86 80 89 112 132 135 130 103 100 102 120 115 81
51 35 25 21 27 61 80 31 8 12 33 51 51 40 38 38
38 38 38 39 39 38 37 37 37 37 37 37 38 38 37 37
37 36 37 36 36 37 37 37 37 37 36 37 37 36 36 36
36 35 35 34 34 34 33 34 33 32 32 31 31 29 30 29
26 23 33 40 41 42 44 46 48 49 47 16 10 8 6 7
11 21 44 47 42 24 16 21 24 24 28 35 36 23 49 74
57 62 75 93 91 79 66 73 88 104 118 125 132 135 136 135
134 133 114 91 95 84 90 116 128 113 92 103 109 124 134 133
131 125 113 101 98 96 76 19 6 14 37 56 55 39 38 38
38 38 37 38 38 37 37 37 36 36 36 37 37 37 37 36
35 34 33 32 30 30 33 37 37 37 36 36 36 35 36 36
35 35 34 34 33 33 33 33 33 32 31 30 29 29 29 28
26 22 28 32 32 32 32 32 32 33 35 10 0 0 0 0
0 3 35 45 31 5 0 1 4 9 21 38 36 22 49 71
53 58 61 78 95 90 66 71 86 103 117 123 131 135 134 120
128 135 114 92 83 55 80 97 102 84 71 104 120 127 134 133
133 133 132 128 112 94 67 13 6 18 39 60 60 39 39 38
38 37 37 37 36 36 34 33 32 32 34 36 37 37 37 32
19 16 14 12 10 11 24 36 37 37 36 36 36 36 35 36
35 34 34 33 33 33 32 33 32 31 30 30 29 29 29 28
25 22 32 38 38 38 37 36 35 36 36 13 4 0 0 0
0 12 38 44 18 0 0 0 0 2 20 40 37 25 50 67
48 57 55 61 83 92 68 70 85 101 115 124 133 135 133 119
131 135 124 97 89 92 95 83 86 101 93 108 127 134 134 133
133 133 133 127 111 89 65 9 5 22 43 70 66 38 39 38
37 31 27 24 22 19 16 13 12 12 15 30 37 37 38 30
10 7 6 7 7 7 23 37 37 37 36 36 36 36 36 35
34 34 34 33 33 33 32 31 32 31 30 30 29 28 29 27
24 23 35 41 41 41 41 41 42 41 39 13 5 0 0 0
0 11 36 40 9 0 0 0 0 0 15 41 38 29 53 65
47 55 50 53 45 56 67 72 85 101 116 126 132 135 135 135
135 136 134 129 119 121 129 120 128 127 117 124 132 134 134 134
134 133 131 124 107 86 72 10 5 22 52 84 70 38 38 38
32 13 6 8 9 9 6 3 4 2 4 24 37 36 36 29
9 7 7 7 7 7 22 37 37 37 37 36 36 36 35 35
34 34 34 33 33 32 31 31 30 30 29 29 28 27 26 25
27 26 36 41 41 41 40 40 41 43 40 12 2 0 0 0
5 4 30 37 5 0 0 0 0 0 14 40 36 31 53 61
45 55 45 49 39 32 63 74 83 97 112 122 127 132 136 136
136 134 135 134 133 134 134 134 134 134 131 131 132 133 133 133
133 133 130 122 102 83 74 4 5 20 58 97 76 39 37 37
30 9 3 6 8 8 5 2 3 3 3 22 36 36 36 27
8 6 8 7 6 6 20 36 37 37 37 36 35 35 35 34
34 34 34 32 32 31 30 29 29 29 28 28 27 26 26 25
35 35 37 38 38 38 29 17 23 36 44 15 0 0 0 1
7 2 26 36 4 0 0 0 0 0 15 40 35 37 58 63
44 55 44 49 41 32 56 75 83 95 108 120 125 131 135 135
134 133 133 134 135 135 134 135 134 134 133 130 129 131 133 133
133 133 128 117 98 82 50 0 5 18 64 109 79 43 37 38
31 10 2 7 8 8 5 2 3 2 3 21 35 36 36 28
8 6 6 7 6 5 16 36 38 37 36 36 35 35 33 33
32 32 32 31 32 31 30 29 29 28 27 27 26 25 24 24
36 35 36 36 36 35 23 0 3 24 47 25 5 0 0 1
6 1 23 35 2 0 0 0 0 0 13 41 36 46 65 66
44 56 46 52 43 33 47 77 85 96 106 118 126 130 130 132
130 128 128 131 130 127 128 130 129 124 123 122 122 127 132 134
134 133 126 113 95 86 31 0 7 17 67 117 80 45 37 36
31 11 2 6 9 8 6 2 3 2 3 21 36 36 36 31
12 8 9 9 9 10 15 33 35 35 34 34 34 34 34 33
32 33 32 32 32 30 30 30 29 27 25 25 25 24 23 23
36 36 36 36 36 36 26 0 0 21 47 22 2 0 0 0
5 2 23 36 2 0 0 0 0 0 8 41 38 54 75 71
46 58 47 54 45 37 33 77 86 99 106 117 130 134 132 119
107 109 105 106 110 111 106 109 108 104 104 103 102 111 119 134
134 134 128 110 93 89 26 1 11 17 74 119 83 44 39 37
31 11 3 6 9 8 6 3 4 3 3 20 36 36 36 32
17 15 15 14 15 14 24 31 32 33 37 36 36 35 34 34
33 33 32 32 31 30 29 28 27 26 26 25 24 24 23 23
25 26 27 30 33 35 28 1 0 17 43 14 0 0 0 0
0 0 22 37 3 0 0 0 0 0 6 41 43 62 82 81
50 60 47 57 49 38 19 75 85 101 107 116 129 136 135 105
75 70 71 77 92 101 104 107 108 104 98 80 77 77 94 131
136 134 128 106 97 89 20 1 13 18 81 120 81 44 39 36
32 12 3 5 7 6 4 3 3 3 3 19 36 37 37 33
15 10 10 6 1 1 8 7 5 7 34 36 36 35 35 35
34 32 33 32 32 30 29 28 27 26 25 25 24 22 22 22
1 1 1 17 33 35 30 3 0 13 39 11 0 0 0 0
1 0 19 41 5 0 0 0 0 0 7 41 48 67 87 85
53 63 49 59 53 38 12 65 84 103 108 113 126 137 137 136
125 100 91 97 109 124 130 133 133 127 122 104 97 106 130 135
135 134 123 105 100 84 17 2 14 18 88 117 82 44 38 37
33 13 4 3 3 2 3 2 4 3 3 18 35 37 37 33
14 7 8 5 0 1 8 24 13 1 32 35 35 35 34 33
33 32 32 31 30 29 29 27 26 25 25 23 23 22 21 21
0 0 0 17 37 35 31 5 0 9 36 17 4 2 2 4
16 11 22 43 21 12 12 15 14 14 19 43 51 69 90 90
57 66 49 61 56 37 12 47 83 98 108 105 120 134 137 136
135 123 105 101 104 107 109 114 116 111 108 104 104 118 135 135
135 133 117 109 101 76 21 6 16 23 91 113 80 43 40 37
32 14 4 3 0 0 4 3 4 4 2 16 35 37 37 33
14 7 8 6 0 0 1 6 2 1 30 35 34 34 34 34
33 32 31 31 29 28 27 27 26 25 24 22 22 21 21 20
0 0 0 15 38 35 32 7 0 4 36 36 35 29 29 36
44 41 41 44 47 47 43 44 45 46 48 52 52 73 90 91
65 71 48 60 58 37 14 24 79 95 108 113 116 129 136 136
134 131 119 111 112 112 108 105 103 105 109 113 116 127 131 134
134 129 116 110 97 56 19 11 16 30 99 114 78 44 43 36
31 13 3 3 2 3 7 3 4 3 1 16 35 36 37 34
15 7 7 5 0 0 0 0 0 1 30 35 32 32 34 33
32 32 31 30 29 28 27 26 25 24 22 22 21 21 19 19
0 0 0 12 40 36 32 8 0 1 35 43 43 38 41 48
52 47 43 38 49 53 50 49 49 52 53 56 54 81 90 96
75 76 51 59 62 38 15 7 64 88 104 114 117 128 136 135
132 133 132 131 133 126 120 123 122 116 126 130 128 130 130 134
134 126 114 107 89 58 23 13 17 38 104 107 78 42 42 36
31 14 4 3 1 1 4 4 5 3 2 15 34 36 37 33
15 6 6 2 0 0 0 0 0 0 25 18 11 9 27 34
33 32 31 30 29 28 26 25 24 23 22 21 20 19 19 19
0 0 0 10 40 36 32 10 0 1 33 43 39 35 39 46
52 48 41 36 38 42 41 41 41 42 44 48 51 89 91 105
81 82 55 57 66 42 17 9 41 78 96 110 117 124 135 136
129 129 134 136 135 128 130 133 130 124 124 134 135 132 130 132
134 124 111 101 73 21 27 13 19 48 107 104 76 40 43 35
30 15 4 3 0 0 2 3 4 4 1 14 34 36 37 33
14 6 6 0 17 23 1 0 0 0 10 20 28 18 9 32
31 30 30 29 28 26 25 24 23 21 21 21 20 19 19 18
0 0 0 8 39 36 33 13 0 0 31 37 29 31 32 39
50 49 42 38 30 28 28 28 29 29 33 40 49 94 88 106
86 87 60 59 67 47 20 13 34 70 85 103 113 119 129 135
132 126 132 135 128 125 132 136 135 131 124 130 135 133 130 132
129 116 108 92 44 56 28 20 21 58 113 100 72 40 43 33
30 15 4 4 2 1 2 3 4 4 1 14 33 35 36 33
14 5 5 6 33 48 12 0 0 8 30 34 34 31 9 29
31 30 30 29 27 26 25 24 22 21 20 20 19 19 19 19
0 0 0 6 38 36 33 17 1 8 33 34 15 17 20 24
32 34 33 38 32 29 30 30 36 37 39 41 55 102 85 105
93 91 68 62 69 52 20 14 33 80 71 90 106 114 122 128
133 127 128 135 124 123 128 135 135 133 127 126 131 132 127 124
117 110 101 67 38 60 26 22 25 70 114 101 70 38 40 33
31 15 3 2 3 3 3 2 4 5 2 13 33 35 37 34
16 5 5 4 14 21 10 0 0 15 34 34 33 33 12 24
31 30 29 28 27 26 24 22 22 21 20 20 19 19 18 19
0 0 0 4 36 37 32 26 23 30 41 32 2 0 0 1
4 10 16 36 36 39 42 39 48 51 41 41 60 105 83 106
97 95 80 65 69 58 20 16 32 86 77 73 93 106 110 117
123 128 128 129 127 129 125 127 133 132 129 126 129 127 120 112
107 104 85 33 40 58 53 23 30 84 116 99 66 39 40 35
32 17 3 3 3 4 3 3 3 4 2 12 33 35 37 34
17 7 9 2 2 2 1 0 0 14 35 35 34 33 14 23
30 30 29 28 26 25 23 22 21 21 20 20 19 19 19 18
0 0 0 3 34 37 32 34 43 45 48 35 1 0 0 0
0 1 12 40 36 41 46 39 48 51 29 16 50 105 80 106
100 98 93 70 68 62 20 16 30 81 95 76 70 88 97 103
112 121 126 126 133 135 128 123 130 129 129 128 130 122 110 98
95 87 66 17 37 64 51 28 40 97 117 102 63 38 41 34
31 18 4 2 3 2 2 2 3 4 1 11 32 35 37 35
29 21 12 4 0 0 0 0 0 10 33 34 33 32 15 26
30 29 28 27 26 25 23 22 22 21 21 21 20 19 19 19
0 0 0 2 32 37 31 35 45 47 49 39 3 0 0 0
0 0 7 41 34 39 41 15 17 31 22 6 57 106 79 108
102 93 105 82 72 67 21 17 28 73 96 95 73 64 80 87
95 107 120 125 129 134 130 118 121 123 122 123 123 110 96 85
79 87 71 22 37 39 34 29 52 109 113 101 63 36 38 35
30 19 4 2 2 2 2 2 2 3 1 10 31 33 35 35
34 15 16 25 3 0 0 0 0 9 34 34 33 30 12 29
30 29 28 27 26 24 22 21 21 20 20 19 19 18 18 18
0 0 0 1 29 36 31 32 39 38 38 29 2 0 0 0
0 0 6 41 34 39 39 6 3 24 24 8 67 103 82 111
102 97 109 94 84 66 26 16 28 64 96 99 93 70 59 67
74 86 102 114 115 122 120 113 110 108 111 115 107 91 78 71
92 113 63 32 60 50 38 31 70 114 111 94 67 41 37 34
31 20 6 2 2 1 2 1 2 3 1 8 30 33 35 36
36 19 29 43 12 0 0 0 0 7 30 30 29 15 16 27
19 17 25 27 25 23 20 20 20 19 18 18 18 17 18 18
0 0 0 0 27 36 30 27 19 18 19 9 0 0 0 0
0 0 7 42 34 39 39 6 1 22 27 9 70 101 80 110
107 100 115 105 97 75 33 15 28 55 96 102 100 88 68 57
56 60 70 87 97 103 108 106 100 94 95 84 72 66 66 95
118 111 54 39 63 51 37 36 84 113 107 87 58 40 43 35
28 20 6 3 3 2 2 1 1 1 0 6 25 26 24 22
19 8 6 9 2 0 0 0 0 0 4 3 2 0 10 17
11 25 22 25 25 22 21 20 20 20 18 18 18 18 18 18
0 0 0 0 23 36 30 28 17 16 18 7 0 0 0 0
0 0 7 41 33 39 39 6 2 20 28 9 77 99 81 113
110 106 115 108 106 89 46 16 30 46 94 103 103 98 83 69
63 55 51 51 51 53 60 59 56 55 52 53 57 64 92 116
122 103 51 50 66 54 37 47 97 115 99 89 52 24 27 29
31 22 13 7 6 5 1 0 0 0 0 0 1 1 0 0
0 0 0 0 0 0 0 0 0 0 0 0 0 0 6 10
77 97 44 24 24 22 21 19 20 19 18 18 18 18 18 18
0 0 0 0 23 36 30 27 19 17 19 8 0 0 0 0
1 0 5 40 34 40 39 6 3 18 27 16 79 96 81 114
116 108 118 109 109 96 62 15 33 39 93 102 106 101 95 83
76 70 61 53 47 46 44 41 44 46 49 54 67 91 113 121
123 95 55 60 65 57 36 71 99 113 89 93 52 34 37 37
33 27 21 17 17 18 14 0 0 0 1 1 2 3 4 4
5 6 6 6 7 8 10 12 12 13 11 4 0 1 15 14
68 70 44 8 7 12 21 21 20 20 19 19 19 18 19 19
0 0 0 0 22 36 30 28 23 22 22 8 0 0 0 0
3 0 3 39 35 41 40 11 5 18 28 19 82 93 80 114
118 108 119 107 111 98 77 19 40 37 88 101 105 105 100 94
89 86 83 78 66 54 46 42 43 49 62 78 97 112 121 125
117 88 65 67 66 60 45 92 100 111 78 90 43 30 40 45
54 56 50 32 23 43 84 1 1 9 11 13 14 16 15 16
15 14 14 14 15 15 16 16 16 15 13 4 0 0 0 0
0 0 0 3 1 10 25 23 23 23 23 21 21 22 22 21
0 0 0 0 19 36 30 28 24 23 23 8 0 2 0 0
9 9 2 37 36 41 40 22 12 17 27 21 90 91 80 116
121 110 119 101 111 96 87 21 38 40 77 101 103 105 102 98
95 92 92 93 90 86 83 84 89 98 102 106 112 121 126 128
115 89 78 69 69 58 66 95 106 101 72 89 33 25 30 35
45 48 51 54 48 45 37 7 4 11 13 16 16 17 17 17
17 15 15 16 16 17 18 18 17 16 13 5 0 0 0 0
0 0 0 3 1 9 20 18 16 14 13 12 11 9 9 8
0 0 0 0 17 36 30 27 25 24 24 13 1 4 0 0
11 19 10 35 38 42 39 22 22 19 27 24 87 91 81 118
125 110 120 100 115 93 95 30 36 44 63 98 105 106 105 100
99 100 103 110 115 118 118 119 119 120 119 121 128 132 134 133
122 98 91 74 71 62 85 95 108 92 76 84 31 26 28 37
42 43 41 34 30 28 28 24 19 17 14 16 18 18 17 18
17 17 17 17 18 19 19 19 18 16 14 6 0 0 0 0
0 0 0 1 21 26 25 24 25 26 27 28 29 30 30 32
0 0 0 0 16 36 29 28 25 24 24 25 20 24 23 25
31 37 36 46 43 42 38 16 26 22 30 27 88 92 80 115
127 109 118 98 117 88 100 40 28 42 66 91 109 114 115 112
106 107 112 121 128 132 131 131 130 127 127 128 132 133 134 134
124 103 95 78 75 79 89 97 106 82 86 74 31 26 28 32
36 37 44 47 51 36 20 16 16 14 14 16 17 18 19 19
18 18 18 18 19 20 21 20 19 17 15 7 0 0 0 0
0 0 0 5 41 41 40 39 39 39 39 38 39 39 39 39
0 0 0 0 15 36 30 27 26 25 25 36 43 44 46 47
50 54 56 58 49 42 37 8 21 27 31 35 88 92 83 103
123 104 109 98 118 92 99 46 24 37 68 87 109 121 125 120
114 110 117 125 132 135 135 135 135 133 132 131 135 135 136 134
122 102 96 82 79 82 89 102 102 74 93 57 18 14 20 26
30 30 31 26 24 27 27 23 17 13 12 14 17 19 19 19
19 19 20 20 21 22 22 21 20 18 17 7 0 0 0 0
0 0 0 8 42 41 40 40 39 39 38 39 38 39 39 39
0 0 0 0 14 36 29 27 26 26 25 35 48 48 48 49
52 55 56 57 52 44 37 8 13 19 31 36 91 92 85 86
119 101 103 94 115 90 95 49 23 31 67 94 104 118 128 125
114 113 116 122 132 135 136 136 136 134 132 134 134 135 135 134
116 94 96 79 87 76 95 104 101 72 102 39 12 11 12 18
25 28 34 40 37 28 22 21 17 17 15 15 16 17 20 21
21 21 21 21 22 22 22 21 21 19 18 7 0 0 0 0
0 0 0 10 41 40 40 39 39 39 39 39 39 40 39 39
0 0 0 0 14 35 29 26 26 26 24 25 34 33 32 33
35 38 39 38 36 38 38 14 8 16 29 41 93 91 85 77
112 98 95 87 114 89 91 51 25 26 67 92 104 113 125 128
116 109 115 122 128 134 135 135 135 133 131 131 134 135 135 133
109 86 97 79 88 75 101 103 92 83 101 28 10 12 13 17
20 27 27 29 27 28 29 28 25 25 23 24 22 16 16 20
22 22 21 22 23 23 22 21 21 20 19 7 0 0 3 6
0 0 0 13 41 40 39 40 39 39 39 39 39 39 39 39
0 0 0 0 12 34 29 26 25 26 24 20 17 16 17 18
21 25 27 28 26 35 39 14 12 20 26 43 84 90 86 68
100 93 90 76 110 89 84 51 27 26 67 91 105 115 122 123
118 107 106 112 121 131 134 134 132 128 123 130 136 136 135 129
99 84 96 82 79 79 104 103 78 99 84 28 15 15 15 19
22 22 25 30 31 31 33 35 31 31 29 22 23 20 19 12
18 22 23 22 22 22 21 20 20 19 20 7 0 0 29 36
4 0 0 15 41 40 39 39 39 39 39 39 39 39 39 39
0 0 0 0 12 34 28 25 25 25 25 21 19 18 18 19
21 26 28 29 28 37 37 22 20 18 29 39 78 89 88 62
88 87 82 63 102 86 77 51 26 28 70 92 108 112 123 126
117 109 104 102 109 118 122 122 121 120 123 132 136 136 135 125
91 85 94 84 76 91 104 101 72 109 59 29 14 15 14 16
19 20 22 28 27 24 25 31 33 36 31 23 24 24 17 17
16 15 20 23 22 22 22 22 21 21 20 6 0 0 13 14
0 0 0 18 41 39 39 39 39 39 39 39 39 39 39 39
0 0 0 0 11 33 28 25 25 26 25 24 23 21 21 22
24 28 29 29 30 32 29 24 19 10 30 39 65 89 88 60
77 81 77 59 95 75 66 48 27 29 69 91 106 112 121 127
125 114 107 103 104 109 116 118 118 120 126 135 136 136 135 125
87 86 91 87 76 98 100 91 83 104 44 31 21 21 16 19
20 28 30 27 27 32 33 31 30 27 26 26 26 27 21 20
21 26 24 24 22 21 22 21 21 21 20 5 0 0 0 0
0 0 0 21 41 40 40 40 39 39 39 39 39 38 39 39
0 0 0 0 15 34 28 24 24 25 25 25 23 23 23 23
26 30 32 31 28 26 22 19 17 18 31 40 55 88 85 60
74 75 73 57 90 67 58 49 27 32 73 93 105 111 119 127
129 123 117 110 109 112 118 120 121 125 135 136 135 136 134 123
84 87 89 84 77 99 97 74 97 86 43 34 22 13 13 13
19 29 28 24 21 24 24 25 29 28 24 17 17 24 23 22
23 27 29 28 24 23 21 21 21 21 20 5 0 0 0 0
0 0 0 23 40 39 39 39 39 39 39 38 38 38 39 38
12 13 15 17 22 28 26 25 24 25 25 25 23 23 23 23
25 29 30 28 24 19 15 10 7 23 30 40 50 82 79 61
71 70 68 46 84 62 54 45 26 38 83 99 104 109 120 127
131 129 124 120 116 116 120 122 126 131 136 136 136 136 135 124
81 88 85 80 86 98 90 72 109 67 47 38 29 17 19 20
24 18 15 15 20 24 30 34 32 26 14 11 11 23 27 26
22 23 26 27 25 23 21 20 20 20 20 4 0 0 0 0
0 0 0 26 40 38 38 38 38 38 39 38 38 38 38 38
19 21 22 22 22 24 25 24 24 25 24 24 24 23 23 23
25 28 25 23 25 19 21 8 6 25 31 35 47 73 73 62
69 66 62 37 79 57 51 42 23 33 87 103 103 112 119 126
132 131 127 124 123 123 125 129 135 136 135 135 135 135 135 122
81 91 85 82 93 100 75 85 98 56 48 43 28 21 19 17
21 18 20 24 27 32 34 32 25 20 10 8 11 22 30 24
21 25 26 26 25 19 19 20 20 20 20 4 0 0 0 0
0 0 0 22 39 39 38 38 38 38 38 38 38 38 38 38
19 20 21 22 23 23 24 24 23 24 24 24 25 23 24 26
25 24 25 26 23 19 18 14 10 27 34 32 46 67 69 62
69 65 61 37 77 55 51 43 20 21 68 103 109 114 117 124
131 134 130 127 123 122 125 129 135 136 136 136 135 135 135 122
83 94 83 83 96 100 66 95 78 59 51 43 31 18 16 18
21 17 21 23 23 27 24 24 18 18 10 10 12 20 28 26
23 26 26 27 26 19 17 18 20 20 19 3 0 0 0 0
0 0 0 11 37 38 37 38 38 37 37 37 37 38 37 38
19 19 20 21 21 22 21 22 24 24 24 24 24 25 27 25
25 26 26 26 23 15 20 21 24 36 37 35 46 63 64 60
67 66 61 36 74 55 51 42 18 16 34 79 112 118 118 122
129 134 131 127 125 123 124 128 134 135 135 135 136 136 135 122
87 93 82 82 100 97 71 104 62 60 52 44 38 16 15 17
18 15 20 18 16 23 21 23 19 13 10 14 17 22 25 26
23 28 27 25 23 20 20 17 21 21 21 3 0 0 0 0
0 0 0 18 24 37 38 38 37 37 37 37 38 38 38 38
7 5 6 10 14 16 17 17 24 23 24 24 26 26 24 25
28 25 27 26 22 21 16 12 18 38 34 34 44 60 62 61
63 67 62 40 72 57 52 46 19 15 22 35 82 117 117 120
127 133 133 131 128 126 125 127 133 135 136 136 136 136 135 122
93 95 81 80 104 98 77 99 56 63 51 44 41 18 16 14
17 17 18 17 22 22 22 20 19 9 13 13 17 22 22 22
25 29 25 14 15 21 20 19 19 23 24 4 0 6 19 7
0 0 1 32 17 32 38 37 37 37 37 37 37 37 38 37
0 0 0 4 10 17 19 18 22 23 23 23 25 23 22 26
27 27 29 26 23 22 15 13 25 42 36 34 43 58 61 62
61 68 61 49 68 57 52 48 18 17 21 19 30 69 108 118
127 133 133 133 132 129 128 130 134 136 136 136 136 136 135 121
96 94 82 80 106 99 82 93 50 65 54 44 41 24 13 10
15 18 16 18 23 20 23 16 17 10 13 14 15 23 23 25
30 27 17 11 10 21 19 21 15 23 24 3 0 82 129 63
0 0 3 35 28 19 37 37 38 37 37 37 37 37 37 37
0 0 0 5 9 16 19 20 21 22 22 23 24 22 22 24
26 26 27 23 21 21 13 14 25 47 36 37 42 55 63 61
64 68 62 58 64 60 55 52 18 18 21 20 18 24 43 85
118 129 135 136 134 133 131 131 135 137 137 137 137 137 136 122
98 92 84 83 111 99 84 87 47 64 51 45 37 33 14 11
18 16 15 16 20 21 19 13 14 12 15 15 16 19 23 30
31 24 12 9 10 18 17 21 15 13 2 0 3 107 135 60
0 0 4 36 36 19 29 36 37 37 37 36 37 36 36 37
0 0 3 8 10 16 20 22 22 23 24 25 22 22 22 20
24 25 22 20 19 17 11 15 30 52 41 41 44 53 70 64
67 69 65 65 62 66 57 59 17 16 21 19 18 17 17 27
50 91 126 137 137 136 135 133 136 137 136 137 137 136 136 118
99 90 81 84 116 96 84 76 50 64 51 46 40 38 17 13
17 14 17 21 17 22 16 16 11 11 14 18 20 18 26 30
29 19 12 8 11 18 16 20 17 16 4 0 0 25 35 7
0 0 6 37 37 25 9 22 37 37 37 37 36 37 37 37
8 10 9 8 11 16 21 23 25 26 26 24 22 22 23 14
22 24 21 18 17 13 8 18 30 55 45 44 44 50 73 66
69 71 69 74 59 70 59 58 14 16 20 17 18 18 16 14
16 21 35 64 95 118 132 137 137 137 137 137 131 119 98 66
84 85 78 84 119 97 86 65 51 60 50 45 41 41 18 10
17 18 19 18 18 20 13 19 9 10 15 19 19 17 23 23
24 14 10 9 12 16 16 21 21 15 16 0 3 0 0 0
0 0 6 29 24 5 7 5 36 37 37 37 37 37 36 37
14 14 12 11 15 18 21 22 27 26 24 24 21 21 21 13
17 23 20 15 15 13 5 19 36 55 47 48 43 49 76 70
72 76 78 80 58 74 62 62 15 19 21 17 17 16 17 15
13 13 12 16 21 28 41 55 62 61 54 44 35 31 29 36
87 89 78 86 121 98 90 57 54 58 50 46 44 41 25 16
21 20 19 15 20 18 16 16 9 12 18 18 16 19 19 17
17 12 7 11 14 17 18 21 21 17 21 1 4 0 0 0
0 0 0 7 13 22 31 4 34 37 37 37 37 37 37 37
15 14 15 15 14 14 14 15 28 27 22 23 20 20 16 13
14 19 20 24 14 10 7 20 40 56 51 52 42 50 81 77
77 83 85 81 60 83 69 68 24 21 22 16 13 16 17 15
13 11 11 12 14 16 15 14 16 16 17 19 22 23 22 39
100 94 81 94 121 103 92 53 56 56 51 49 47 44 45 44
55 18 16 14 19 15 14 11 9 15 17 15 16 18 16 15
14 11 4 14 13 18 19 21 18 16 19 5 0 0 0 0
0 0 0 2 4 15 23 2 28 36 36 37 37 36 37 37
6 6 7 8 9 9 10 12 28 25 17 25 20 19 13 10
12 18 17 20 27 13 9 18 42 52 51 56 43 51 91 89
85 92 91 82 67 90 80 67 26 23 24 17 15 17 17 16
17 14 13 14 14 14 14 14 15 14 14 17 16 14 22 44
107 98 89 99 117 110 95 51 58 57 50 54 47 39 30 11
34 22 12 16 18 11 17 9 12 17 17 18 22 18 18 15
13 11 6 12 10 13 20 21 18 16 20 16 0 0 0 0
0 0 0 0 0 0 1 0 6 26 36 36 36 36 36 36
