P2
128 120
151
39 38 37 37 36 35 35 35 34 34 33 33 33 32 32 32
31 30 30 29 28 27 27 27 27 26 26 25 25 25 24 24
23 22 22 22 22 21 21 20 20 18 17 16 14 13 15 18
18 20 20 17 13 21 25 23 22 20 20 19 18 16 14 11
11 10 9 13 15 14 14 12 14 16 17 17 19 19 20 20
20 20 21 21 21 22 22 23 23 24 24 24 25 25 25 26
26 27 27 28 28 29 30 30 30 31 31 32 32 32 32 33
33 34 34 36 34 35 35 35 35 35 35 36 36 35 35 36
38 37 37 36 36 36 35 34 35 34 33 33 32 32 31 31
30 30 30 29 29 28 28 27 27 26 26 25 24 24 24 23
23 22 22 22 22 21 21 21 20 19 18 17 15 14 15 19
20 22 22 18 12 21 26 23 21 21 20 19 18 17 15 13
13 11 10 12 14 15 13 15 17 18 19 19 20 21 20 20
21 22 22 23 22 23 23 24 24 25 25 25 26 25 26 26
26 28 29 28 29 29 31 31 32 32 32 32 33 33 33 34
34 34 34 35 33 35 35 35 35 36 35 35 35 35 36 35
38 38 37 36 36 35 35 34 34 34 34 34 33 33 32 32
31 30 30 29 28 28 28 27 27 26 26 26 25 25 25 25
24 24 23 22 22 22 21 21 20 19 19 18 16 16 17 22
23 24 24 18 11 19 26 24 23 22 21 20 19 19 16 17
17 14 10 11 15 15 14 16 18 19 20 20 21 21 22 22
23 22 23 24 24 24 24 25 26 25 25 26 27 27 28 28
29 30 31 30 30 30 31 31 31 32 31 32 33 33 34 34
35 35 35 36 35 35 35 35 35 36 35 35 36 36 36 36
38 37 37 37 36 36 36 35 35 34 34 34 33 33 32 32
31 31 30 29 29 29 28 28 28 27 27 26 26 25 25 25
25 23 23 22 23 23 22 22 21 20 19 19 18 18 19 23
24 25 26 19 12 19 28 25 24 23 22 21 20 19 17 17
17 16 12 10 17 15 17 18 20 21 22 21 22 23 23 22
23 24 24 24 25 25 25 25 26 26 27 27 28 28 29 29
29 30 31 30 31 31 32 32 32 32 33 33 33 34 34 34
34 34 35 36 34 35 35 36 36 36 36 36 36 36 36 36
38 37 37 37 36 36 36 35 35 34 34 34 34 33 33 32
32 31 31 30 29 28 28 27 27 27 27 27 26 26 26 25
25 24 24 24 23 22 22 22 21 21 20 20 19 19 20 25
25 26 26 20 13 19 27 25 24 23 23 22 22 20 18 18
19 18 15 10 18 15 18 19 21 22 22 23 23 23 24 24
24 25 25 25 25 25 26 26 27 27 28 28 28 29 29 29
30 31 32 31 32 32 32 32 33 32 32 33 33 34 34 34
35 35 35 36 35 36 36 36 36 36 35 35 35 35 36 36
38 37 37 37 36 37 36 36 35 35 34 34 33 33 32 31
31 31 31 31 30 29 29 28 28 28 27 27 26 26 25 25
24 24 24 24 23 23 23 22 22 22 21 21 21 21 21 26
26 26 26 21 14 18 28 25 25 23 24 23 22 21 19 20
19 19 16 12 18 17 19 21 23 23 23 23 25 25 25 25
24 25 25 25 26 26 27 27 28 28 28 29 29 29 30 30
30 30 32 31 31 32 32 32 33 34 33 34 34 34 35 35
35 35 35 36 35 35 35 34 34 35 35 36 37 36 37 37
39 38 37 37 37 37 36 35 35 35 34 34 34 33 33 32
31 31 31 30 30 29 29 28 28 28 27 27 27 26 26 26
25 25 25 24 24 23 23 23 22 22 22 22 22 23 23 26
27 28 28 21 15 17 29 27 25 24 24 23 22 22 21 21
20 20 19 14 19 18 22 22 23 23 24 24 24 24 25 25
26 27 27 27 27 28 28 28 27 28 29 29 29 29 30 30
30 30 32 31 32 32 33 33 33 34 34 34 34 35 35 35
35 35 34 34 34 35 36 36 36 36 36 36 37 36 36 37
38 38 38 37 37 37 36 35 34 34 35 34 34 33 33 32
32 32 32 31 30 30 30 30 29 29 28 27 26 26 26 26
26 25 24 25 24 23 24 23 23 23 23 22 23 23 24 27
28 28 28 23 16 17 29 27 25 26 25 25 24 23 23 22
21 21 18 14 19 19 22 23 23 24 24 25 25 26 26 26
27 28 27 27 28 28 28 28 28 29 30 30 30 30 30 30
31 32 33 32 32 33 33 34 34 34 33 34 35 35 34 34
34 34 35 35 36 36 35 36 36 36 36 37 37 37 38 38
39 39 38 38 38 36 36 36 35 35 35 34 34 33 33 33
32 32 32 32 31 30 30 29 29 29 29 27 28 27 27 27
26 26 26 25 25 24 24 24 24 22 23 23 23 24 25 28
28 28 28 23 18 17 29 28 26 26 26 26 25 24 24 22
21 21 20 16 20 19 23 24 24 24 25 25 26 26 27 27
28 28 28 28 28 29 29 29 29 29 30 30 30 30 31 31
32 32 33 33 33 34 34 34 34 35 34 32 34 34 35 36
36 36 36 36 36 36 36 36 36 37 37 37 38 37 37 37
39 38 39 37 37 36 36 36 36 35 35 35 34 34 33 33
32 32 32 32 31 30 30 30 29 29 28 28 28 27 27 27
27 26 25 25 26 25 25 25 25 24 24 24 23 24 25 29
29 29 29 24 20 17 28 28 26 26 27 26 26 24 24 23
23 22 21 18 22 21 24 25 26 26 26 26 27 27 27 28
28 28 29 28 29 29 29 29 29 30 30 31 31 31 32 32
32 33 33 34 33 34 34 33 33 33 35 35 35 35 36 35
36 36 36 35 36 36 37 36 36 37 37 37 37 37 38 38
39 39 38 38 37 37 36 36 35 35 35 34 35 35 34 33
33 32 32 32 31 31 30 30 29 29 29 29 28 28 28 27
27 26 27 26 26 25 25 25 24 25 24 24 24 25 26 30
30 30 30 24 20 17 28 29 26 25 27 26 25 25 25 24
24 23 22 19 22 23 25 26 26 25 27 27 28 28 29 28
29 29 29 30 30 30 30 30 31 30 31 31 31 31 32 32
33 32 33 32 32 32 33 34 35 35 35 36 36 35 35 36
36 36 36 36 37 37 37 37 37 37 37 36 37 37 37 37
39 38 38 37 37 37 37 36 35 35 35 35 35 34 34 34
34 34 33 32 32 31 30 30 30 30 30 29 29 28 28 28
28 27 27 26 26 26 26 25 25 25 25 24 25 25 26 29
30 31 31 25 22 14 24 29 27 27 28 26 26 26 26 25
24 24 23 20 24 23 26 26 26 27 27 27 28 29 28 28
29 29 29 30 29 30 30 31 31 31 31 32 32 33 32 32
32 31 31 33 34 35 34 34 35 36 36 36 36 36 36 36
36 37 36 37 37 37 37 37 38 38 37 37 37 37 37 37
40 38 38 38 37 37 36 36 36 36 35 35 35 34 34 34
34 33 33 32 32 31 31 31 30 30 30 29 29 28 28 28
28 28 27 27 27 26 26 26 25 25 25 24 25 25 27 30
31 31 31 25 19 12 24 30 28 28 28 27 27 26 27 25
25 25 24 21 25 24 27 27 27 27 28 27 28 29 28 29
29 29 30 30 30 30 30 31 31 31 32 31 32 31 31 32
33 34 34 34 34 35 35 36 36 35 36 37 36 36 36 36
36 37 37 37 36 37 37 37 37 37 37 37 37 37 37 37
38 38 37 37 37 37 36 36 36 36 36 36 35 34 34 34
33 33 33 32 32 31 31 30 31 30 30 29 29 29 28 28
28 27 27 27 26 26 26 26 25 26 25 26 25 26 27 30
31 31 31 25 20 18 25 31 29 29 29 28 27 27 27 25
25 25 24 21 25 25 28 28 28 28 28 29 29 29 30 30
29 30 30 30 30 30 31 30 31 31 31 31 32 33 33 33
33 34 34 34 34 35 35 35 35 35 36 37 36 36 37 36
36 37 37 37 37 37 37 37 37 37 38 37 36 37 37 37
38 38 38 38 38 38 37 36 36 36 36 35 34 34 34 34
34 33 33 33 32 31 31 31 31 31 30 30 29 29 29 28
28 28 28 28 27 27 26 26 25 26 25 25 26 27 28 31
32 33 32 26 22 22 25 31 30 29 29 29 27 26 28 26
25 26 25 22 27 26 28 28 28 28 29 29 29 29 30 30
30 30 31 31 31 31 31 31 31 32 33 33 33 32 33 33
34 34 34 35 35 35 36 35 35 36 36 37 36 36 37 37
37 37 37 37 37 37 37 37 37 37 37 37 38 38 36 38
38 37 37 37 37 37 36 36 36 36 36 35 35 34 34 34
34 34 33 32 32 31 31 31 31 31 31 30 30 30 29 29
28 28 27 27 27 27 26 27 26 26 26 26 26 27 28 31
32 32 32 26 22 24 24 31 30 30 29 29 28 27 28 27
26 26 26 22 27 26 28 29 29 29 29 29 29 30 30 30
29 30 30 30 30 30 31 32 32 33 34 33 33 33 33 34
34 34 35 34 34 35 35 35 35 36 36 37 37 36 36 36
37 37 37 37 36 37 36 37 37 37 37 38 38 37 37 38
38 38 38 38 38 37 37 37 36 36 35 35 35 35 34 34
34 33 33 33 32 32 32 31 31 32 31 30 30 29 29 29
29 28 28 28 27 27 27 26 26 26 26 26 26 27 28 32
33 33 33 27 23 25 24 32 31 30 30 30 29 28 29 27
27 27 26 23 28 27 30 29 29 29 30 30 29 29 30 29
29 30 31 31 31 32 33 32 33 33 33 34 33 33 34 34
34 35 35 35 36 35 36 36 37 37 37 37 37 37 36 36
37 37 37 37 37 37 37 37 37 38 37 37 37 37 38 38
38 38 38 38 37 37 38 37 37 37 36 36 36 35 35 35
34 34 34 33 33 32 32 32 32 31 32 31 31 30 30 30
29 29 28 28 28 28 28 27 27 27 27 28 27 28 29 33
34 34 33 28 24 26 24 31 31 31 31 30 29 29 30 28
28 28 27 24 28 27 30 30 30 30 30 30 30 30 31 31
31 31 31 32 32 33 33 33 34 34 34 34 34 35 35 34
34 35 35 35 36 36 36 36 37 37 37 38 38 37 37 38
38 38 38 38 37 37 37 37 37 37 37 37 38 38 38 38
38 38 38 37 37 37 37 37 36 36 36 36 35 35 35 35
34 34 34 34 34 33 33 32 32 31 31 31 31 30 30 29
29 29 28 28 28 28 28 28 27 28 28 27 27 28 29 33
34 34 34 28 24 28 24 31 33 32 31 30 30 29 30 28
28 28 27 25 29 27 29 30 30 30 30 31 31 32 31 32
32 32 32 32 32 33 33 33 34 34 34 34 34 35 34 35
35 36 35 36 36 36 36 37 37 37 37 38 38 37 37 38
37 37 37 36 36 37 37 38 38 38 38 38 38 38 38 37
39 38 38 37 37 37 37 37 37 37 37 36 36 36 35 36
35 35 34 34 33 34 33 33 32 32 32 31 32 31 31 30
30 30 29 29 28 28 28 28 28 28 28 28 28 28 30 34
34 34 34 29 24 29 25 31 33 32 32 31 31 31 32 30
30 29 28 25 27 26 30 31 30 31 31 32 32 32 32 32
32 33 33 33 33 34 34 34 34 34 35 35 35 35 35 35
36 37 36 37 37 37 37 37 37 37 36 38 38 37 36 36
37 37 37 38 38 37 38 37 37 38 39 38 38 38 38 38
38 38 38 38 37 37 37 37 37 37 37 36 36 35 36 35
35 36 34 35 34 34 33 33 33 32 32 32 31 32 31 31
30 30 30 30 29 30 29 28 29 28 29 28 29 29 30 34
35 35 35 30 25 30 26 31 34 33 32 32 32 30 32 30
29 29 29 26 30 29 31 32 32 32 32 33 32 33 32 33
33 33 33 33 33 33 33 34 35 35 36 35 36 36 36 36
36 36 37 37 38 38 38 38 38 38 37 36 37 37 37 38
38 38 38 39 39 38 38 38 38 38 38 38 38 39 39 38
38 39 38 38 38 38 38 37 37 37 37 37 37 36 36 36
35 35 36 35 34 34 34 33 34 33 33 33 32 32 31 32
31 31 31 30 31 29 29 29 29 28 29 28 29 30 31 36
36 36 35 30 25 31 27 32 34 34 33 32 32 32 33 31
30 30 29 26 30 29 32 31 32 33 33 34 33 34 33 34
34 34 34 34 34 34 35 35 36 36 35 36 36 36 37 37
37 37 38 37 38 37 37 37 37 38 38 38 38 39 38 39
38 39 39 39 41 39 38 39 38 38 39 38 39 38 39 39
39 38 38 38 38 38 38 38 37 37 37 37 37 37 37 36
36 36 36 35 35 34 34 34 34 33 33 33 33 31 32 32
31 31 31 31 30 30 30 30 29 29 29 29 30 31 31 35
36 36 36 31 25 32 29 31 34 34 33 33 32 31 33 31
30 30 29 27 30 30 32 32 33 33 34 34 34 34 34 34
34 33 34 34 35 35 35 35 36 37 36 37 37 38 38 37
37 37 37 37 38 38 38 39 39 39 38 38 39 39 39 39
38 39 39 39 40 39 38 39 39 39 39 39 39 39 39 38
39 39 39 38 38 38 37 37 37 38 38 38 37 37 36 36
36 35 36 36 35 35 35 34 34 34 33 33 33 33 33 33
32 32 32 31 31 30 30 30 30 30 30 29 30 31 32 36
37 37 37 32 26 32 31 30 34 34 34 34 33 33 33 32
31 31 30 28 30 30 33 33 33 34 34 34 34 34 34 34
34 35 35 35 35 36 36 36 37 36 37 37 37 36 37 37
37 37 38 39 39 38 39 39 39 39 39 39 39 40 40 39
39 39 39 40 40 40 39 39 39 39 39 38 39 39 39 39
39 39 39 38 38 39 38 39 38 38 38 37 38 37 37 36
37 37 36 36 36 35 35 34 34 34 34 34 34 33 33 33
32 32 32 31 32 31 31 31 31 31 30 30 31 32 32 36
38 38 38 33 26 32 32 29 34 35 34 34 33 33 32 32
31 31 31 28 31 31 34 34 35 34 35 35 35 35 35 35
35 35 35 35 36 36 36 36 37 37 37 37 37 37 37 37
38 38 39 40 39 39 39 40 40 39 39 39 39 39 40 40
39 39 39 39 40 39 38 38 39 39 40 39 39 39 39 40
39 39 39 38 38 38 38 38 38 38 38 38 38 37 37 37
37 36 36 36 35 35 35 34 34 34 34 34 34 34 33 33
33 33 33 32 31 31 31 31 30 31 31 31 31 32 33 37
38 39 38 33 26 32 34 29 35 35 34 35 33 33 31 32
32 31 31 29 31 31 33 33 34 34 35 35 35 35 35 35
36 36 36 36 36 36 36 36 37 37 37 37 37 38 38 38
37 38 39 40 40 39 40 39 39 39 40 40 40 40 40 40
39 40 39 39 40 39 39 39 39 39 39 39 38 39 39 39
39 39 39 39 39 39 38 38 39 38 38 38 38 37 37 37
37 36 36 36 36 36 36 35 35 35 35 34 34 33 33 33
33 33 33 32 32 32 32 31 32 31 31 32 32 32 33 37
38 38 38 33 26 33 36 29 36 36 35 35 34 34 31 33
32 32 31 29 31 31 34 35 35 34 35 35 35 35 35 35
35 35 35 36 36 37 37 37 38 37 37 38 37 39 38 38
38 38 39 40 39 40 40 39 40 40 40 39 39 40 39 39
40 40 39 38 40 40 39 39 39 40 39 39 39 40 40 40
39 39 39 39 39 38 38 38 38 38 38 38 38 37 37 37
37 37 37 36 36 36 35 35 35 35 35 34 34 34 34 33
33 33 33 32 32 31 32 31 31 31 31 32 32 32 33 37
38 39 38 34 27 33 37 28 35 37 36 35 34 34 33 34
33 33 32 30 31 32 34 35 35 35 35 35 35 35 35 35
35 35 36 37 37 37 37 37 37 37 38 38 38 38 38 38
39 39 40 40 40 40 40 40 41 41 40 40 40 40 40 39
39 39 40 39 40 40 39 39 40 39 39 40 40 39 39 38
39 39 39 39 39 39 39 38 39 38 38 38 37 37 37 37
37 37 36 36 36 36 36 35 35 35 35 35 35 35 34 34
34 33 33 33 33 32 32 32 32 32 32 32 32 33 34 38
39 39 38 34 27 32 39 29 36 36 36 36 35 34 33 34
32 33 32 31 32 32 35 35 36 35 35 35 35 35 35 35
36 36 37 38 37 37 38 38 37 38 38 38 39 39 39 39
39 40 40 40 40 40 40 40 41 40 40 40 40 40 39 40
40 40 40 40 40 41 39 40 40 40 39 39 39 39 39 39
40 39 40 39 39 39 39 38 38 39 39 38 38 38 38 38
38 38 38 37 37 37 36 35 36 36 35 35 34 35 35 34
34 34 34 33 33 33 32 32 32 32 32 33 33 33 34 38
40 39 39 35 27 33 40 30 35 36 36 36 35 35 33 33
33 34 33 30 31 32 34 35 35 35 35 36 36 36 37 37
37 37 37 38 38 38 37 37 38 38 38 38 38 39 39 39
39 40 40 41 41 41 41 41 41 40 40 40 39 39 40 40
40 40 41 40 40 39 37 38 38 38 39 39 40 40 41 39
40 39 39 39 39 39 39 39 38 38 39 38 38 38 38 38
38 37 37 36 36 37 36 36 36 36 36 35 35 35 35 34
34 33 33 33 33 34 33 33 33 32 32 33 33 34 35 38
40 39 39 36 27 33 41 32 34 37 37 36 36 35 35 35
34 33 33 30 31 33 35 36 35 36 36 37 36 36 36 37
37 37 38 38 38 38 38 38 38 39 38 38 40 39 39 39
40 40 40 40 41 41 40 40 41 41 40 40 40 40 41 40
40 39 39 39 39 39 38 39 39 39 40 38 39 39 40 39
34 37 39 39 39 39 39 39 39 38 38 38 38 38 39 38
38 38 38 37 37 37 37 37 36 37 35 35 35 35 35 35
35 34 34 34 34 34 33 33 33 33 33 33 33 34 35 38
40 40 40 36 28 33 42 34 33 38 37 37 36 35 34 35
34 34 34 32 32 34 36 37 37 37 37 37 37 38 38 37
38 38 38 39 38 38 38 38 38 39 39 39 39 40 40 40
40 40 40 41 41 41 41 41 41 41 40 40 39 38 37 38
39 39 40 40 40 40 40 40 40 40 39 39 40 39 40 39
15 25 39 39 40 40 39 40 40 39 39 39 39 39 39 38
38 38 38 37 37 37 36 36 36 36 36 35 36 35 35 35
35 35 34 34 34 34 34 33 33 33 33 33 34 34 35 38
40 39 39 36 28 33 42 36 33 38 38 37 36 36 35 36
34 34 34 32 32 34 36 37 37 37 37 37 38 38 38 38
38 38 39 39 39 39 38 39 39 40 40 39 40 40 40 41
41 41 41 41 41 41 40 40 40 40 40 40 40 40 40 40
40 40 40 40 40 39 40 39 40 39 40 40 39 39 39 39
13 23 39 40 40 39 39 39 39 38 38 39 39 39 39 39
39 39 38 38 38 37 37 37 37 36 36 36 36 36 36 36
35 35 35 35 34 34 34 34 34 33 33 33 34 34 35 39
41 40 39 37 29 35 43 38 31 39 38 37 37 36 35 36
34 34 35 33 32 35 36 38 37 37 38 37 39 38 38 38
38 38 39 39 40 39 39 40 39 39 40 40 40 41 40 41
41 41 41 40 40 40 40 40 40 40 40 40 41 40 40 40
40 40 40 41 40 40 40 39 41 40 39 40 40 40 40 39
15 22 39 40 40 40 40 40 39 39 40 41 40 40 39 39
39 38 38 38 37 38 37 37 37 38 37 36 41 42 41 38
37 36 35 34 35 35 35 35 34 34 34 34 34 35 36 39
40 40 40 38 36 32 34 34 30 37 38 38 38 37 36 36
34 35 34 33 32 35 36 37 37 38 38 38 38 38 39 38
39 39 39 39 40 40 40 39 40 40 40 41 40 41 40 40
41 40 40 40 39 40 40 40 40 40 40 40 41 41 40 41
41 40 41 41 40 40 40 39 39 40 39 39 39 39 40 40
16 23 39 40 40 40 40 39 41 49 48 46 45 42 41 39
38 39 39 39 38 38 38 37 38 37 38 38 48 51 49 44
43 41 37 35 35 35 34 34 34 34 34 34 34 36 36 40
41 41 42 42 35 34 37 29 23 27 32 37 38 36 36 37
35 35 35 34 33 36 36 38 38 37 38 38 39 38 38 38
38 39 40 40 41 40 39 39 40 40 40 40 40 41 41 40
42 41 40 40 40 41 40 40 41 41 41 39 41 41 40 40
41 40 40 40 40 40 40 39 39 40 40 40 40 39 39 40
17 25 41 41 40 41 40 39 43 52 52 50 49 46 44 44
43 40 39 39 38 38 37 37 38 37 38 39 49 50 48 45
46 46 42 37 35 35 35 35 34 34 34 35 35 36 37 40
41 44 46 36 38 44 29 27 29 29 34 41 39 38 36 37
35 36 35 34 33 36 37 38 38 38 39 39 39 39 39 39
39 39 39 40 39 39 39 39 40 40 40 41 41 39 40 40
41 41 41 41 40 39 40 39 40 40 40 41 41 41 41 41
41 41 40 40 39 40 40 39 39 39 40 40 40 39 39 40
17 28 44 43 43 42 41 40 43 53 52 51 48 48 48 49
52 45 45 44 42 40 38 37 38 38 38 39 46 46 46 45
46 47 45 39 36 35 36 35 35 35 35 35 35 36 37 41
45 47 46 38 53 36 24 31 29 29 36 43 44 40 38 38
36 37 36 35 34 37 37 40 39 39 39 39 39 39 38 39
39 39 39 39 40 41 40 41 40 40 41 42 41 41 41 41
41 42 41 41 41 41 41 40 41 41 40 41 41 42 40 40
41 40 41 40 40 41 40 40 40 40 40 41 41 40 39 40
18 30 47 45 44 44 44 44 45 45 40 46 48 49 52 53
54 46 41 45 47 46 45 43 43 42 40 39 38 26 29 31
37 41 43 39 36 36 36 36 36 35 36 36 36 37 38 42
50 47 43 52 60 38 41 43 42 42 43 46 49 46 41 39
36 37 36 35 34 38 37 40 39 39 40 39 39 39 40 39
39 40 40 40 41 41 41 40 41 41 41 42 42 41 42 42
42 42 41 41 41 41 41 41 41 41 41 41 42 42 41 41
41 40 41 40 40 41 41 40 40 40 40 41 41 41 41 42
18 29 47 45 39 40 45 48 50 29 2 10 28 39 44 47
50 42 11 12 20 29 37 39 43 47 44 42 37 19 14 16
15 14 19 38 37 36 37 36 36 36 35 36 36 37 39 48
56 45 51 72 80 83 91 92 85 76 67 61 55 53 41 41
37 37 37 35 34 37 38 39 40 39 40 39 40 39 39 40
40 39 40 40 41 41 41 41 41 41 41 42 43 41 42 42
41 41 42 42 42 42 41 41 41 41 41 41 41 42 41 40
40 41 40 40 41 41 40 41 41 41 41 42 42 42 41 40
18 28 44 46 44 41 42 51 54 30 0 0 8 19 21 22
32 40 4 0 0 0 4 10 16 24 32 41 37 16 7 10
12 5 5 38 37 37 37 36 36 36 37 36 37 38 40 47
47 44 58 77 100 107 110 107 103 98 83 73 60 62 52 41
42 38 37 36 34 37 36 39 38 40 39 40 41 40 41 41
41 41 41 40 41 41 41 41 41 40 41 41 43 42 42 42
42 42 42 42 42 42 42 42 41 41 41 41 41 42 41 41
40 40 41 41 41 41 41 41 41 41 41 41 41 41 41 39
19 16 14 21 32 40 46 51 55 32 0 0 5 11 14 16
25 41 6 0 0 0 0 0 0 0 2 31 37 12 1 2
5 3 4 39 38 37 37 37 37 37 32 25 21 23 21 16
24 27 25 17 21 80 127 138 129 111 94 68 51 58 57 40
35 39 37 36 34 38 37 41 40 41 40 40 41 40 40 41
40 40 40 40 41 40 41 41 41 41 41 42 43 42 42 42
41 41 41 42 42 41 41 41 41 41 41 41 41 42 42 40
40 40 41 40 41 41 41 41 41 41 41 41 41 41 41 40
18 10 0 0 0 4 11 20 32 30 0 0 2 5 4 8
20 41 8 0 0 0 0 0 0 0 0 30 34 5 0 0
2 2 5 40 38 37 37 36 28 17 21 62 93 56 4 0
0 0 0 1 6 100 134 143 140 108 12 7 16 17 20 21
17 18 21 28 32 38 37 40 40 40 40 40 42 40 40 41
41 40 39 40 41 40 40 40 41 42 41 41 42 42 42 42
42 42 42 42 42 42 41 41 41 41 41 40 41 41 40 40
41 41 41 41 41 41 41 41 42 42 41 41 41 40 40 39
17 9 0 0 0 0 0 0 2 22 0 0 0 0 0 2
17 38 3 0 0 0 1 2 0 0 0 28 30 1 0 0
0 2 5 41 38 37 37 36 13 22 99 60 2 0 0 0
0 0 0 0 21 128 133 142 139 131 26 0 0 0 0 0
11 53 48 22 14 23 34 39 40 40 39 40 41 39 40 39
40 40 39 40 40 40 40 41 41 41 42 42 42 41 42 42
41 42 41 41 41 41 41 42 41 41 41 41 41 40 40 41
41 41 41 41 40 40 41 41 41 41 41 40 40 40 40 40
18 9 0 0 0 0 0 0 0 19 0 0 0 0 0 0
20 41 4 0 0 0 8 12 2 0 0 25 31 1 0 0
0 0 3 40 38 36 36 34 14 85 20 0 0 0 0 0
0 0 0 1 62 123 84 143 93 126 58 0 0 0 0 0
0 6 39 71 85 49 7 15 40 40 39 39 41 40 39 40
39 40 40 40 40 40 40 40 40 41 41 42 42 41 41 41
42 42 42 42 42 42 41 40 40 40 39 40 40 41 41 41
40 41 41 40 40 40 41 41 41 41 40 40 40 40 40 40
17 9 0 0 0 0 0 0 0 17 0 0 0 0 0 0
18 43 5 0 0 0 11 17 13 8 1 23 31 0 0 0
0 0 2 38 39 37 37 33 4 0 0 0 0 0 0 0
0 0 0 17 128 77 107 142 76 92 92 2 0 0 0 0
0 0 0 0 0 28 25 8 40 40 40 39 40 40 40 39
39 39 40 39 39 40 41 41 41 41 42 42 43 42 42 42
42 42 42 42 41 41 41 40 41 41 41 41 41 42 41 40
40 41 40 40 38 39 41 41 41 41 41 41 42 41 42 42
17 10 0 1 0 9 5 0 0 15 0 1 0 0 0 0
18 45 6 0 0 2 14 17 17 16 5 22 32 0 0 0
0 0 1 38 39 37 37 33 1 0 0 0 0 0 0 1
6 13 8 50 128 87 140 142 120 71 126 10 5 2 0 0
0 0 0 0 0 0 5 4 40 41 40 40 40 40 40 39
40 40 41 40 41 41 41 41 42 42 42 42 43 41 41 42
42 42 42 42 42 42 42 41 41 41 42 41 41 41 41 40
41 41 40 40 40 40 41 42 42 42 41 41 42 40 39 38
17 10 1 10 4 6 2 0 0 15 1 0 0 0 0 3
19 45 7 0 0 2 11 16 17 16 5 20 35 5 0 0
0 0 0 36 40 37 37 31 2 13 3 4 10 17 14 14
13 22 40 98 136 114 141 141 137 100 136 59 6 14 15 7
1 3 50 76 75 51 9 1 38 40 39 39 40 40 39 39
40 40 40 40 41 41 41 41 41 41 41 41 41 42 41 41
42 42 42 41 43 41 41 41 41 41 42 41 41 41 41 41
41 41 40 40 40 40 41 40 40 40 39 41 40 38 36 35
19 11 5 6 0 2 2 0 0 16 1 0 0 0 0 5
25 49 12 0 3 3 1 7 14 15 4 17 44 35 26 18
12 8 9 38 40 37 37 29 4 37 25 25 19 11 23 54
88 109 115 101 118 117 129 130 127 118 127 102 88 53 27 14
15 19 71 96 88 71 14 6 36 40 40 40 40 39 40 40
40 40 40 40 41 41 41 42 42 42 42 41 40 41 41 41
42 42 43 42 42 42 42 42 41 42 42 41 41 41 40 39
40 40 39 38 38 40 40 38 37 36 33 31 29 25 23 20
18 11 3 0 0 0 0 0 0 27 20 12 9 8 2 1
18 53 39 30 26 22 12 6 6 10 3 17 48 50 47 46
45 45 47 51 41 38 38 29 8 36 28 64 73 71 102 110
114 126 121 102 112 122 123 125 122 120 106 109 125 121 109 87
47 15 8 11 13 12 35 9 35 39 40 40 40 40 41 41
40 40 40 41 42 41 41 41 41 41 42 41 41 41 42 42
42 42 42 42 42 42 41 42 40 40 39 40 39 38 38 37
38 38 36 36 34 32 28 26 23 20 18 18 18 19 20 21
17 10 0 0 0 0 0 0 1 39 54 44 40 40 35 26
31 58 37 30 33 35 35 33 30 28 27 34 51 49 48 48
49 54 57 57 43 38 38 27 11 37 41 85 90 112 125 131
137 131 107 117 124 123 115 113 118 121 122 106 116 135 135 129
119 92 43 36 63 25 31 11 33 40 39 40 40 41 40 40
41 41 41 40 42 41 42 41 41 41 41 41 41 41 42 42
42 42 42 42 42 41 40 39 38 38 37 38 37 36 34 31
29 27 24 22 20 20 19 20 21 21 22 23 25 25 25 26
19 12 0 0 0 0 0 0 1 43 57 47 52 55 58 58
54 55 29 17 19 20 21 21 23 26 31 36 37 33 39 42
46 50 52 52 42 38 39 26 15 50 62 89 110 129 141 142
140 118 114 121 110 121 133 137 138 126 116 120 113 130 141 140
136 124 102 82 85 38 33 12 32 41 41 40 41 41 41 41
41 41 41 40 43 41 41 41 41 41 42 42 42 41 42 42
42 42 41 41 41 41 39 39 41 34 31 28 25 23 22 21
21 21 23 23 24 25 26 27 27 28 29 29 28 23 29 32
18 23 24 17 10 5 1 0 2 42 49 46 54 57 61 61
52 44 27 19 19 18 17 17 16 15 14 14 14 16 19 23
34 39 37 36 37 38 39 22 19 46 76 102 124 138 143 142
138 123 121 108 129 142 142 142 142 142 132 110 122 130 140 141
140 136 125 97 83 53 39 14 31 41 41 41 41 40 40 40
40 40 39 40 42 41 40 40 41 41 42 42 42 41 42 41
40 39 36 34 32 29 26 28 41 29 19 21 22 24 24 25
26 27 28 30 30 30 31 32 33 34 33 34 33 30 24 32
19 29 49 52 48 42 36 29 27 47 40 45 53 55 59 61
54 47 31 20 20 18 16 15 14 14 14 13 14 14 14 16
32 35 34 36 37 39 39 20 17 51 91 111 132 142 143 142
142 129 107 119 141 137 130 130 130 135 141 121 114 139 141 140
141 140 133 114 88 70 40 14 31 41 40 39 40 39 40 40
41 39 39 39 40 40 41 41 41 40 41 39 38 36 33 30
28 26 24 24 25 25 25 24 35 27 22 26 28 29 30 31
32 33 34 34 34 34 34 35 36 36 35 34 36 36 33 25
19 29 51 56 55 53 54 54 54 53 26 27 37 43 49 53
51 47 34 21 19 16 12 12 12 14 14 15 15 16 17 19
34 24 18 37 40 40 39 15 22 68 97 118 135 143 143 143
142 119 107 123 122 123 136 139 139 128 123 126 113 136 141 141
141 140 138 122 101 83 47 21 30 41 40 39 39 38 37 36
37 39 39 39 39 39 38 36 33 31 30 28 26 26 25 25
26 28 28 29 29 31 31 29 36 30 27 32 34 35 35 35
36 36 36 37 37 37 37 37 36 36 37 36 36 38 38 34
17 27 49 55 55 54 55 55 57 50 11 2 4 8 14 22
27 39 37 19 17 12 2 2 2 8 17 17 14 13 19 20
36 41 38 44 46 45 40 12 35 81 101 123 137 143 143 143
135 114 115 111 124 139 142 142 142 141 133 114 114 119 140 141
141 141 139 127 108 92 64 24 31 39 37 36 35 36 35 27
31 36 34 31 30 27 27 26 26 27 27 28 29 30 30 32
32 33 34 34 35 36 35 33 36 31 29 35 36 36 37 38
39 38 38 38 39 38 39 38 38 36 36 37 36 38 39 39
25 28 41 44 46 47 49 51 56 47 7 0 0 0 0 5
16 38 38 18 16 11 0 0 0 3 6 8 4 4 9 12
31 47 41 38 38 40 43 22 51 86 106 125 136 139 142 140
124 116 111 121 140 142 143 142 142 142 141 133 111 113 126 141
141 141 140 130 112 96 78 19 28 38 35 34 32 31 29 22
23 26 26 26 28 29 29 31 31 33 34 33 34 35 35 35
37 38 38 37 38 38 37 31 18 16 28 38 39 39 39 39
38 39 39 40 40 39 40 39 39 39 37 37 37 37 39 40
25 27 29 31 35 39 38 40 50 44 5 0 0 0 1 0
4 37 38 17 14 8 0 0 5 5 1 1 0 0 1 4
29 47 39 30 31 32 36 20 61 87 109 124 133 139 143 138
122 112 120 138 143 143 143 143 142 142 142 141 129 111 117 138
141 140 138 127 111 98 87 25 25 36 28 27 27 27 27 27
28 30 31 32 34 34 35 36 37 37 38 39 38 38 39 39
40 40 40 40 40 39 38 27 7 5 22 38 40 41 41 39
39 39 40 39 40 40 40 40 39 39 39 37 38 36 38 39
23 26 26 27 29 37 36 38 50 43 3 0 0 0 0 0
0 36 32 9 4 0 0 0 10 11 5 3 0 0 0 1
27 48 39 24 34 39 39 14 67 87 111 122 126 140 141 129
115 117 133 143 143 143 142 142 142 142 142 142 138 123 113 129
141 139 135 126 111 99 89 43 22 38 28 29 30 31 32 33
33 35 37 37 38 38 39 39 39 39 40 40 40 40 40 40
41 40 39 32 28 22 33 25 11 6 20 37 40 40 41 40
40 40 39 39 39 40 39 40 40 40 39 38 37 36 36 38
21 24 24 29 33 38 39 44 50 42 3 0 0 0 0 0
1 39 27 0 0 0 0 1 6 15 13 5 1 0 0 1
28 49 40 19 29 33 38 23 74 88 112 122 129 140 137 123
118 130 141 143 142 142 142 142 142 142 142 142 142 135 125 121
137 141 135 124 110 100 89 57 28 39 34 34 35 36 36 37
38 39 40 40 39 40 40 40 41 41 41 42 42 42 41 41
42 42 29 6 4 6 27 23 3 1 19 37 40 41 41 40
40 40 40 39 40 40 40 40 40 39 39 39 39 36 34 36
24 21 3 4 8 13 19 25 32 35 4 0 0 0 0 0
2 40 27 0 0 0 0 1 6 16 19 14 7 0 0 1
26 49 42 21 24 29 37 35 76 88 111 122 133 135 131 123
129 138 142 143 142 142 142 143 143 142 143 142 142 140 136 128
131 139 136 125 110 97 90 66 32 41 38 37 39 38 38 39
41 41 41 40 41 41 41 42 42 41 42 42 43 43 42 42
42 43 35 26 29 33 37 29 2 1 18 37 40 40 41 40
40 40 40 40 40 40 40 40 40 40 39 40 40 38 36 33
29 23 1 0 0 0 0 0 0 21 3 0 0 0 0 0
2 41 24 0 0 0 0 4 19 21 21 17 10 0 0 3
26 50 43 30 28 30 37 43 75 88 108 121 132 135 131 129
134 138 142 142 142 142 143 143 142 142 142 141 141 142 140 135
132 136 135 125 112 98 90 74 39 46 41 38 39 39 39 40
41 41 41 42 41 42 42 42 42 42 42 43 43 43 43 43
43 43 42 42 41 40 39 30 5 1 19 36 40 40 41 40
40 40 40 40 40 40 41 40 40 39 38 39 39 38 38 35
29 23 1 0 0 0 0 0 0 18 3 0 0 8 5 0
1 39 19 0 0 0 0 4 19 24 20 9 5 0 2 5
25 49 45 33 26 27 37 43 74 89 107 122 132 134 136 134
136 137 140 142 142 143 143 143 143 143 143 142 142 142 142 141
138 138 136 127 113 98 88 74 48 43 42 40 40 40 41 42
41 42 41 42 42 42 43 42 42 41 42 43 44 44 43 43
43 43 42 42 41 40 38 33 11 1 25 38 40 41 42 40
41 40 40 40 40 39 40 40 40 40 39 39 39 40 39 35
29 24 1 0 0 5 1 0 0 17 3 0 5 21 15 3
1 39 19 0 0 0 0 1 4 16 12 0 1 0 2 2
21 49 47 32 22 31 36 37 72 91 106 121 131 135 136 139
138 136 139 142 143 143 143 143 142 143 142 142 141 141 142 142
140 140 136 128 115 99 87 69 50 37 42 41 41 40 41 42
43 42 42 42 42 43 43 42 43 42 43 42 44 43 43 43
43 43 42 42 41 39 38 34 22 13 31 38 41 41 41 41
40 40 40 40 40 41 40 40 40 40 40 40 40 39 39 37
25 22 1 0 6 18 8 1 0 17 4 0 13 22 17 7
1 39 17 1 1 0 1 2 0 13 14 0 0 0 0 0
16 48 45 22 18 34 38 36 72 92 106 118 127 134 135 135
136 137 142 143 143 143 144 143 143 143 142 142 141 141 141 141
141 140 136 129 115 99 85 63 42 31 40 41 40 42 42 42
42 42 42 42 42 42 43 43 42 43 42 43 43 43 42 43
42 42 42 41 41 39 38 33 31 30 35 40 41 41 41 40
40 40 39 40 40 40 40 40 40 40 39 39 40 40 39 37
25 22 1 0 12 24 13 6 0 20 28 21 30 30 28 22
12 41 16 0 0 0 0 0 0 11 18 0 0 0 0 0
10 47 43 16 19 41 42 52 72 90 104 115 124 131 134 133
131 132 140 142 143 143 142 143 143 142 142 142 141 140 141 141
142 140 138 129 116 100 83 61 38 30 38 41 41 41 42 42
41 42 42 41 42 42 42 42 43 43 42 42 43 43 42 42
43 42 42 42 41 40 38 34 34 36 38 40 41 41 41 40
41 40 40 40 41 40 41 40 40 40 40 39 39 39 39 36
23 22 2 0 7 13 7 3 0 23 48 46 51 50 48 49
50 55 20 0 2 0 0 0 1 14 20 3 3 3 0 0
7 44 41 14 22 67 86 85 73 86 102 111 121 128 130 127
127 127 136 141 143 143 143 143 143 143 143 141 140 138 139 139
140 140 137 125 114 99 80 64 33 29 36 43 42 42 42 43
42 42 41 42 41 42 42 42 42 42 42 42 43 43 43 42
42 42 43 42 41 40 39 37 36 38 41 41 41 41 42 41
41 42 41 40 40 40 40 39 40 40 40 39 39 39 39 38
24 24 8 3 2 2 1 0 0 20 48 48 52 52 51 56
61 60 38 23 24 17 11 9 10 19 24 9 8 7 4 2
8 35 40 14 35 79 88 89 75 81 96 107 117 123 126 123
123 124 132 138 143 142 142 143 142 142 142 141 141 136 133 134
137 139 134 123 112 98 77 86 64 34 32 42 41 41 41 42
42 42 42 42 42 42 42 43 42 42 42 42 42 42 42 43
42 43 41 41 40 40 39 39 38 40 41 41 41 40 40 41
41 40 41 40 40 40 40 40 40 39 39 39 38 36 37 36
25 27 22 6 1 3 0 0 0 19 47 46 49 49 50 56
60 60 47 40 41 39 36 35 36 35 33 28 26 23 22 21
25 37 43 24 54 84 99 99 85 74 91 101 111 115 121 120
123 124 131 138 141 142 142 142 142 142 142 141 140 136 130 130
133 132 128 119 110 93 72 93 102 87 46 41 41 41 42 41
42 42 41 42 41 42 42 42 42 42 42 42 42 42 42 43
43 42 41 40 41 40 40 39 39 40 40 39 39 39 41 40
40 40 39 39 39 39 39 39 39 39 39 38 38 37 37 37
26 27 18 1 0 1 0 0 0 19 44 42 44 45 45 47
44 44 43 43 44 45 42 41 43 42 41 39 37 35 33 33
33 41 50 41 70 92 101 97 101 72 84 97 105 110 115 115
120 125 132 138 140 142 142 142 142 142 143 141 140 136 133 129
129 127 124 117 105 86 74 98 104 89 70 42 40 41 42 41
41 42 42 42 42 42 42 42 42 41 42 42 42 42 42 42
41 41 40 41 41 41 40 39 41 41 40 41 41 40 41 40
40 40 39 39 40 39 39 39 39 38 38 38 37 37 37 36
29 28 16 2 1 1 0 0 0 20 48 42 42 43 43 43
40 40 43 44 45 47 46 46 45 44 43 42 46 48 45 42
42 45 52 50 73 91 108 95 107 85 78 94 106 108 109 113
120 127 134 138 140 141 142 142 142 142 141 141 140 137 132 126
124 123 121 111 97 75 87 107 110 100 65 44 41 43 43 42
42 42 42 42 42 41 41 41 40 41 41 42 42 42 41 42
42 42 41 41 41 41 40 40 42 42 42 40 41 41 41 40
41 40 40 39 39 39 38 39 38 38 38 38 37 36 37 35
27 27 34 32 31 25 23 21 17 30 50 43 43 43 43 44
45 46 49 46 47 50 54 52 46 42 42 42 50 54 51 49
48 48 44 40 65 91 111 104 104 100 76 90 107 114 118 115
121 132 136 140 142 142 142 142 143 142 142 141 139 137 133 132
128 125 119 108 89 72 109 110 112 95 58 45 40 40 41 41
41 41 42 42 42 42 41 41 42 41 42 42 42 41 41 42
42 42 41 42 41 41 41 41 42 41 41 41 40 41 40 40
40 39 40 39 38 39 39 38 37 37 37 36 36 35 36 35
28 27 46 53 55 51 52 56 54 55 55 46 45 45 45 46
49 52 54 48 48 51 55 52 48 43 39 40 51 55 52 49
50 49 45 41 58 85 98 98 107 91 77 77 101 116 121 121
121 132 138 141 142 143 143 142 142 142 142 142 140 137 133 134
132 127 117 101 80 90 114 114 121 88 55 46 40 41 42 41
42 42 42 43 43 42 41 41 41 41 41 41 43 42 42 43
42 42 41 41 41 41 41 41 41 41 40 41 40 40 40 40
40 39 39 39 38 38 37 37 37 36 35 36 35 35 34 33
28 27 49 60 60 59 60 60 60 60 56 41 38 38 37 38
43 50 56 50 49 47 46 46 47 44 40 37 44 43 39 40
44 46 45 44 46 77 89 91 65 30 58 71 78 103 116 118
116 123 134 143 143 142 143 143 143 142 142 141 138 136 131 132
131 122 107 86 82 110 112 113 110 90 56 45 40 41 42 42
42 43 42 42 42 42 41 40 41 41 41 41 42 41 41 41
41 41 40 41 40 41 41 41 41 41 41 41 40 39 39 39
39 38 38 37 38 37 36 36 35 34 35 34 33 33 34 33
29 26 36 44 45 46 48 50 52 54 52 19 13 10 7 9
14 23 47 51 46 27 20 24 27 27 31 39 39 20 9 6
12 21 25 38 38 57 76 56 16 29 77 84 70 88 110 117
116 121 131 141 143 143 143 143 143 143 142 142 139 133 130 131
126 110 87 74 87 90 119 114 103 83 56 45 40 42 42 42
43 42 42 42 42 41 41 41 41 41 41 41 42 42 42 40
39 39 37 36 34 34 37 41 41 41 40 41 40 40 40 39
39 39 39 37 37 36 36 36 35 34 34 33 32 33 33 33
29 25 31 35 36 35 35 35 36 36 39 12 0 0 0 0
0 4 39 50 35 7 0 2 6 12 23 42 40 14 0 0
0 7 17 35 38 32 53 21 2 53 83 87 82 77 101 112
116 119 127 137 143 143 143 143 143 143 142 141 136 130 129 127
120 97 82 96 67 47 126 120 104 82 43 46 39 42 41 42
42 42 42 41 40 40 38 38 36 37 38 40 41 42 41 36
22 19 17 16 13 14 28 41 42 41 41 41 41 40 40 40
39 38 38 37 36 36 35 35 35 34 33 33 33 32 33 32
27 25 35 41 41 42 41 40 39 39 39 16 6 0 0 0
0 13 42 48 20 0 0 0 0 2 22 44 40 14 0 0
0 3 17 35 36 23 20 8 11 55 85 86 89 79 97 109
115 116 124 136 144 143 143 143 143 143 143 139 133 129 130 127
116 99 102 103 81 22 51 86 86 55 36 45 39 42 42 41
40 34 30 28 25 24 19 16 14 15 19 34 42 41 41 34
12 10 9 9 9 10 26 41 41 41 41 40 40 41 40 39
38 38 37 37 36 36 34 34 34 32 32 32 31 31 32 31
28 25 38 44 46 45 45 44 45 46 43 16 6 0 0 0
0 14 40 45 11 0 0 0 0 0 17 44 40 14 0 0
0 2 18 36 37 22 23 15 12 42 85 85 87 83 96 108
113 114 120 135 144 144 144 143 143 143 143 139 133 131 130 128
116 106 108 104 89 40 15 20 39 15 38 45 38 41 42 42
36 15 9 11 12 12 9 6 6 5 7 29 41 41 41 33
13 9 9 10 9 10 26 41 42 42 42 41 40 40 39 38
38 37 37 36 35 35 34 33 32 32 32 30 30 30 30 29
30 29 40 45 46 45 44 44 45 47 45 14 3 0 0 1
6 6 33 41 7 0 0 0 0 0 17 44 38 13 0 0
0 2 15 35 39 23 26 25 13 20 82 89 86 89 101 107
112 113 117 134 143 143 143 143 143 142 143 141 134 135 134 131
121 110 111 107 95 40 30 24 10 9 38 44 37 39 41 41
35 12 6 9 11 11 8 5 6 5 6 25 40 41 41 32
12 9 10 9 9 10 24 41 42 41 41 41 40 40 39 39
38 36 36 36 35 34 32 31 31 31 30 30 29 28 29 29
38 38 41 42 42 42 33 20 26 40 48 17 0 0 0 1
9 5 31 41 5 0 0 0 0 0 17 44 37 13 0 0
0 2 9 37 38 25 28 32 17 12 79 92 87 92 107 112
113 116 116 133 144 144 143 144 143 144 143 142 137 138 140 136
125 111 112 112 96 30 38 38 11 11 36 42 38 40 42 41
35 12 6 9 11 11 8 5 6 4 5 25 41 41 41 32
12 9 9 10 9 9 20 41 43 42 40 40 39 39 38 37
36 36 35 35 34 33 32 32 31 30 30 29 29 29 28 28
39 39 40 40 40 40 26 0 5 29 52 29 7 0 0 3
9 3 27 40 4 0 0 0 0 0 15 44 38 17 0 0
0 1 10 41 35 26 32 37 21 9 76 94 93 95 111 118
116 117 119 134 144 144 144 144 144 144 143 143 142 143 144 140
130 116 114 118 102 29 41 44 13 11 35 41 38 40 42 42
36 14 7 10 13 13 9 5 6 5 7 25 41 41 41 35
15 12 12 14 13 14 19 38 40 40 39 39 39 39 38 37
36 37 36 36 35 33 32 31 31 29 29 28 28 28 28 27
39 39 39 39 40 39 29 1 1 24 52 25 3 0 0 1
9 6 28 40 3 0 0 0 0 0 10 44 38 19 0 0
0 1 14 45 32 28 36 39 19 9 72 98 99 98 112 122
120 118 122 136 145 144 145 144 145 144 144 143 143 144 143 140
132 117 116 120 104 32 66 28 23 16 35 41 36 41 43 42
36 14 5 8 12 11 8 5 6 6 6 25 41 40 41 37
22 18 19 18 18 18 25 34 35 38 41 41 40 39 38 37
37 36 35 36 33 31 31 29 29 28 27 27 28 27 26 27
26 27 29 32 36 38 31 2 0 19 48 16 0 0 0 0
0 0 26 41 4 0 0 0 0 0 7 43 38 15 0 0
0 2 18 47 32 32 41 39 17 8 67 101 103 101 114 125
125 121 126 141 144 144 145 144 144 144 145 143 144 143 144 142
134 121 119 121 101 41 51 41 36 23 36 40 34 39 42 41
36 15 6 8 9 9 8 5 6 6 5 23 40 41 42 37
18 13 14 9 3 2 4 8 7 10 38 40 40 39 38 38
36 35 35 34 33 31 30 29 29 27 27 27 26 25 25 25
1 1 2 20 35 38 32 3 0 16 44 13 0 0 0 0
2 0 24 44 6 0 0 0 0 0 6 43 39 20 3 2
2 9 29 47 33 35 45 37 19 4 64 106 110 104 116 126
130 125 130 143 145 145 145 144 144 145 144 144 144 144 144 143
134 123 122 124 104 38 45 36 36 27 37 40 32 37 40 41
37 15 5 5 5 3 6 6 6 6 6 22 40 42 42 38
17 11 11 6 0 2 9 28 14 3 37 40 39 39 38 37
36 35 34 33 32 30 29 28 27 26 26 26 26 25 25 24
0 0 0 18 39 38 34 6 0 11 42 19 5 3 3 6
20 14 26 47 24 14 14 18 16 15 21 45 41 35 34 34
35 36 40 45 34 39 48 34 22 4 59 108 113 109 118 124
130 127 133 143 144 144 144 144 144 144 144 144 144 143 144 141
133 124 125 122 107 52 78 55 40 32 36 39 31 36 40 41
36 16 7 6 2 0 6 5 6 6 4 21 40 41 42 37
18 10 11 6 0 0 2 8 2 2 33 39 39 38 38 37
36 34 33 32 31 30 29 28 27 26 25 25 24 24 24 23
0 0 0 15 40 37 35 8 0 6 40 41 38 33 33 40
49 46 45 48 52 51 48 48 50 51 52 55 43 39 46 48
50 47 48 39 36 44 46 33 20 10 55 110 115 114 121 126
125 125 134 143 143 144 144 143 143 144 143 143 143 142 142 141
133 127 127 123 106 73 90 49 40 36 35 40 29 33 40 40
35 16 5 5 4 5 10 6 7 6 4 19 39 40 41 37
17 9 10 6 0 0 0 0 0 1 33 39 36 35 37 37
34 33 32 31 29 28 27 26 26 24 24 24 23 23 23 23
0 0 0 12 40 38 34 10 0 2 38 47 47 41 45 53
57 51 47 43 54 58 55 54 54 57 58 57 47 35 42 47
50 44 51 38 39 48 46 31 17 25 55 111 116 118 124 129
128 128 133 142 144 144 144 143 144 144 143 144 142 143 143 142
135 131 131 124 109 77 72 67 46 40 33 41 26 30 40 39
35 17 7 6 3 1 6 6 7 6 4 18 38 41 41 37
17 9 9 4 0 0 0 0 0 1 27 20 13 12 29 35
34 33 31 30 28 27 26 25 25 24 24 23 23 22 22 22
0 0 0 10 40 37 34 12 0 1 36 47 43 38 42 50
56 52 44 39 42 46 46 45 45 46 45 45 42 33 36 41
40 38 49 37 37 50 44 24 17 36 56 111 119 122 126 127
127 131 135 142 144 143 144 144 144 143 143 143 143 143 143 142
135 132 133 126 112 73 48 44 48 42 33 42 24 26 38 38
33 17 6 5 0 0 4 6 7 6 4 18 38 40 41 37
17 8 8 1 18 24 2 0 0 0 12 23 31 21 11 34
33 31 30 28 27 26 26 25 24 23 23 22 22 22 22 23
0 0 0 8 39 37 34 14 0 0 34 41 32 34 35 42
54 53 47 42 34 31 32 31 32 32 32 32 36 36 39 40
37 38 51 32 38 55 41 18 17 43 56 105 121 124 129 127
126 131 137 143 144 144 144 144 144 143 143 143 143 142 143 141
138 135 138 128 112 71 33 25 46 40 33 41 23 22 37 37
34 20 8 6 3 2 5 6 6 7 3 16 37 39 41 37
17 8 8 6 33 51 14 0 0 10 33 37 36 34 10 29
32 31 29 28 27 26 25 24 24 22 22 22 21 22 22 21
0 0 0 5 36 36 33 18 3 9 37 37 17 20 22 27
36 38 36 42 36 33 34 34 40 40 38 38 41 42 43 43
39 39 49 29 41 56 40 15 16 44 65 97 123 126 130 130
125 130 138 143 144 144 144 144 144 144 144 143 143 143 143 143
140 138 138 127 112 70 36 47 42 40 35 39 23 22 37 38
35 20 6 6 5 5 5 4 5 7 4 15 37 39 41 38
19 7 8 4 13 21 11 0 0 17 38 37 36 35 13 24
32 30 28 28 26 25 24 23 23 23 23 23 22 22 22 22
0 0 0 3 34 35 32 27 26 34 44 35 3 0 1 2
6 13 19 40 39 43 46 43 53 56 43 35 37 38 38 40
38 41 45 27 46 57 36 15 17 42 79 86 119 129 133 131
126 131 137 142 144 144 144 144 144 144 143 143 143 143 143 142
141 142 140 127 105 53 48 45 41 38 36 35 24 22 32 36
35 20 5 5 6 5 5 4 5 6 3 14 37 39 40 37
21 9 11 3 2 1 1 0 0 16 38 37 35 34 15 23
31 29 28 27 26 24 24 24 24 23 23 22 22 22 21 20
0 0 0 2 31 35 31 36 47 50 52 38 2 0 0 0
0 2 15 44 39 45 50 42 52 57 29 7 9 12 14 18
29 46 42 25 52 56 29 17 12 38 92 85 118 127 132 132
128 128 135 140 143 143 143 143 144 143 144 144 143 144 144 143
144 143 141 122 88 44 60 37 42 37 40 33 27 22 28 33
33 24 6 5 5 5 5 5 6 7 5 14 36 39 41 38
33 23 15 6 0 0 0 0 0 11 36 37 35 34 16 26
29 28 27 26 26 25 25 24 24 23 23 22 22 22 22 22
0 0 0 1 29 35 31 36 50 52 54 43 3 0 0 0
0 0 8 45 38 43 44 17 19 33 23 0 1 1 2 9
26 48 36 30 56 52 29 20 12 27 88 79 118 126 126 131
130 126 134 139 141 144 144 144 145 144 144 143 143 144 143 143
143 143 137 106 74 50 53 38 45 38 43 31 32 26 30 36
39 30 12 8 8 6 5 5 5 7 4 13 35 37 40 38
39 17 16 26 4 0 0 0 0 10 37 37 36 32 13 30
31 29 28 26 26 26 24 24 24 23 22 22 22 21 21 22
0 0 0 0 25 33 29 33 41 42 42 32 2 0 0 0
0 0 7 45 38 42 43 7 2 22 24 0 0 2 4 14
29 53 32 34 55 48 28 24 18 17 70 73 117 131 133 138
136 126 131 140 140 141 144 144 144 144 144 144 144 143 143 144
144 143 123 104 63 68 48 41 47 37 46 29 30 25 29 31
45 44 37 21 13 10 8 7 5 6 4 12 34 38 40 40
40 21 26 43 12 0 0 0 0 8 33 32 31 17 18 29
20 17 25 27 25 25 23 23 23 22 22 21 22 21 21 21
0 0 0 0 22 32 29 27 22 21 22 12 0 0 0 0
0 0 9 46 38 43 43 8 3 21 28 1 0 3 4 20
33 53 28 40 57 45 26 29 21 13 55 70 110 129 136 140
142 133 132 139 140 143 145 145 144 144 144 144 143 143 143 143
143 140 124 98 64 77 48 45 51 35 49 28 30 28 31 34
46 51 58 40 28 21 15 10 8 6 4 11 29 30 28 24
21 8 4 9 2 0 0 0 0 0 5 4 3 1 11 18
12 28 22 26 25 24 24 23 23 23 22 21 22 21 22 21
0 0 0 0 19 32 28 26 19 19 21 10 0 0 0 0
0 0 9 45 37 43 43 7 2 17 28 1 0 6 11 25
36 55 27 46 59 45 30 32 24 12 42 74 106 126 137 144
143 138 135 141 144 143 144 144 144 144 144 144 143 143 143 143
144 141 125 90 68 77 44 43 51 34 49 27 32 30 34 33
45 49 51 46 42 38 35 27 15 8 2 1 3 1 0 0
0 0 0 0 0 0 0 0 0 0 1 0 0 0 7 11
80 105 46 24 24 23 23 23 22 22 21 21 21 21 21 21
0 0 0 0 17 31 28 26 22 21 23 10 0 0 0 0
2 0 6 44 37 44 43 8 4 17 27 4 2 8 19 24
39 54 26 53 61 44 32 34 29 21 31 73 104 121 138 144
144 142 137 142 143 144 144 143 143 143 143 143 143 143 143 142
143 143 118 87 76 80 43 46 50 35 52 30 34 30 35 28
40 42 45 43 36 31 28 28 24 20 16 11 6 5 6 5
7 7 8 8 9 11 12 14 16 15 14 6 0 1 15 15
73 75 48 8 8 14 23 22 23 23 21 22 21 21 23 23
0 0 0 0 15 30 27 26 25 23 24 10 0 0 0 0
5 1 3 42 39 44 44 15 5 16 29 10 3 11 26 26
45 55 29 58 60 48 33 38 34 25 35 77 104 115 130 144
145 145 141 142 144 144 144 144 144 144 144 144 144 143 143 143
143 141 113 87 76 87 44 51 51 37 53 32 35 31 38 28
42 42 45 40 36 32 27 23 19 18 15 16 16 17 18 19
18 18 17 17 18 18 18 19 20 19 15 7 0 0 0 0
0 0 1 5 3 12 28 26 27 27 26 25 25 25 25 24
0 0 0 0 14 30 27 25 25 26 25 10 1 4 0 0
11 11 3 41 40 46 45 25 13 15 29 11 10 19 29 27
49 55 32 60 63 53 34 41 39 33 42 86 105 114 125 140
145 144 143 142 143 143 144 144 144 144 144 144 143 143 143 143
143 138 109 92 78 89 53 58 51 39 54 37 38 35 42 25
28 27 29 32 37 33 26 22 22 19 20 15 16 18 18 20
20 19 19 18 19 20 21 21 20 19 16 7 0 0 0 0
0 0 1 5 2 11 22 20 19 18 16 15 14 13 12 11
0 0 0 0 12 30 26 25 26 26 27 14 2 7 1 0
13 22 12 40 42 47 43 26 23 20 34 23 23 29 29 30
57 52 38 63 66 56 37 41 43 43 53 88 107 114 123 137
145 145 145 143 144 144 144 144 144 144 144 144 144 144 143 143
144 135 109 94 79 92 63 64 51 39 55 40 40 36 44 26
24 26 29 33 36 37 33 33 33 29 30 27 30 26 22 22
21 21 20 21 21 22 22 22 21 19 16 8 0 0 0 0
0 0 0 2 23 28 28 29 29 30 31 32 33 34 35 36
0 0 0 0 11 29 25 24 26 26 27 28 23 27 26 27
35 41 39 51 46 47 42 19 30 25 34 28 22 29 27 31
62 49 43 65 69 59 40 41 48 46 62 91 108 116 122 133
144 145 145 144 143 144 144 144 143 144 143 143 143 143 143 144
143 131 105 92 76 91 76 66 55 41 57 45 42 36 45 27
25 27 30 32 34 35 37 41 41 40 40 36 32 27 29 24
23 19 21 22 23 24 23 23 22 20 18 9 0 0 0 0
0 0 0 6 44 44 44 44 43 43 44 43 43 43 43 43
0 0 0 0 9 27 24 23 25 27 27 38 46 49 50 52
55 59 61 63 52 46 40 13 22 23 30 22 20 29 29 33
66 49 45 64 69 62 44 43 52 47 62 97 109 121 121 127
144 145 145 144 144 143 144 143 144 144 144 143 143 143 143 143
143 126 105 87 79 88 89 69 61 46 61 49 45 40 46 30
28 26 28 34 36 37 37 39 37 38 34 30 26 29 33 25
23 22 19 21 24 25 25 24 23 21 20 9 0 0 0 0
0 0 0 9 44 44 44 44 44 43 43 43 43 43 43 43
0 0 0 0 8 26 23 22 25 27 26 37 51 52 52 53
57 60 61 61 57 47 40 14 15 19 23 17 15 32 32 30
68 50 49 66 72 66 47 46 51 50 58 105 113 125 125 127
142 145 144 144 144 143 144 144 143 143 143 143 143 143 143 143
143 123 102 82 84 82 96 76 67 55 64 53 45 43 49 31
26 22 29 29 28 24 26 28 29 31 34 32 29 28 28 28
27 28 31 29 26 27 25 24 23 22 21 9 0 0 0 0
0 0 0 11 44 44 44 43 43 43 42 43 43 43 43 43
0 0 0 0 7 25 23 22 25 27 25 27 35 36 36 36
38 42 42 41 39 40 38 18 17 19 20 15 16 37 36 28
72 53 58 67 79 71 50 49 49 43 39 91 114 125 128 127
138 144 144 144 144 144 144 144 144 144 144 144 143 143 143 142
142 121 103 80 90 82 96 83 71 60 66 54 45 46 50 32
24 21 28 28 20 19 25 30 36 40 37 29 21 17 28 32
32 30 30 33 32 30 27 25 24 22 21 8 0 0 3 7
0 0 0 14 45 43 43 43 42 43 42 43 42 43 43 43
0 0 0 0 6 24 21 21 25 27 25 21 19 18 18 19
22 27 29 30 28 34 32 18 18 25 23 18 19 40 38 28
76 52 65 62 84 75 54 51 52 40 25 51 94 123 133 132
136 144 144 144 143 144 143 143 143 142 143 143 143 143 143 142
142 120 103 82 92 88 90 93 71 58 67 57 41 47 55 37
30 23 26 26 22 26 28 34 36 38 31 20 18 17 25 33
31 29 29 32 30 29 27 24 23 22 21 8 0 0 31 39
5 0 0 16 44 43 43 42 42 42 42 42 42 42 42 42
0 0 0 0 6 24 21 20 24 26 26 23 20 19 19 20
23 28 30 31 29 34 32 25 26 8 15 14 16 44 42 34
86 54 66 62 83 79 56 51 53 36 23 32 50 107 136 136
136 143 145 145 144 145 144 144 144 143 144 143 143 143 142 142
142 125 109 87 96 92 85 98 79 63 67 63 43 45 55 39
31 24 22 22 26 24 27 35 32 27 22 15 18 19 24 31
30 27 30 31 31 30 24 23 24 23 23 8 0 0 15 16
1 0 0 20 44 43 43 43 42 42 42 42 42 42 42 42
0 0 0 0 6 23 20 19 23 26 26 25 24 23 23 23
26 29 32 32 26 23 24 17 12 10 12 15 19 47 44 36
92 57 71 66 71 82 60 52 51 33 22 29 29 47 107 138
137 142 144 145 144 145 143 143 144 143 144 144 143 143 143 143
142 129 113 91 96 92 89 100 85 62 64 69 43 42 54 39
34 22 18 19 23 21 24 27 28 25 19 16 22 22 26 30
30 27 31 30 23 22 23 24 22 24 23 6 0 0 0 0
0 0 0 23 44 43 43 42 42 42 42 43 43 42 42 43
0 0 0 0 9 25 21 20 23 26 26 26 25 25 25 25
28 32 33 31 24 26 23 18 25 25 25 28 32 50 47 42
94 63 74 71 62 83 60 51 50 34 23 31 33 25 36 86
130 140 144 145 144 145 144 144 144 144 144 144 144 143 143 143
142 133 118 98 97 91 95 93 86 55 65 74 43 42 57 43
37 23 18 21 19 23 28 24 25 22 16 20 23 21 25 29
26 28 34 26 17 16 25 25 25 23 23 6 0 0 1 0
0 0 0 26 43 43 43 43 43 43 43 42 42 42 42 43
8 9 10 11 16 20 19 19 24 26 26 26 25 25 26 26
28 31 30 29 28 28 23 24 18 10 10 18 29 52 50 44
93 67 77 74 60 85 61 51 50 33 25 30 37 29 24 29
52 100 137 145 145 145 145 144 145 144 144 145 144 144 144 144
144 137 120 99 99 91 101 81 83 56 68 78 47 40 59 44
39 33 21 19 17 21 25 27 24 20 15 22 24 22 27 26
30 34 32 21 18 20 26 27 28 22 23 5 0 0 0 0
0 0 0 30 44 43 43 43 42 43 43 42 43 42 43 43
15 15 15 16 16 17 18 20 24 26 26 26 27 26 26 27
27 32 31 29 30 29 23 26 16 12 14 21 31 55 55 44
94 73 78 75 62 85 63 50 49 33 26 30 31 31 26 24
23 34 56 100 136 146 145 145 145 145 145 145 145 145 144 145
144 135 117 100 97 90 108 80 84 62 67 81 55 40 59 45
39 38 22 21 22 26 24 27 21 20 14 21 23 22 24 24
32 35 30 17 15 20 24 27 30 23 22 5 0 0 0 0
0 0 0 27 45 44 44 44 43 43 44 44 43 43 44 43
15 14 16 16 16 17 18 19 23 26 27 27 27 28 28 27
28 30 32 33 33 29 23 28 17 11 14 25 32 56 59 47
95 77 79 76 68 79 64 50 46 32 26 26 26 27 26 24
24 23 21 26 38 69 102 129 143 146 146 146 146 145 143 135
119 87 84 95 96 85 112 78 80 70 58 78 63 40 57 47
43 38 32 21 24 24 26 25 21 20 17 20 25 26 21 26
30 33 27 18 16 20 25 24 29 23 20 5 0 0 0 0
0 0 0 15 42 44 43 43 43 44 44 43 43 43 44 43
14 14 15 15 14 15 16 18 23 25 25 26 27 28 28 28
24 28 31 31 30 26 24 23 15 15 19 25 36 57 61 48
94 79 79 77 71 70 67 47 43 32 27 24 26 24 26 25
23 22 20 21 19 20 25 33 47 64 74 73 64 55 46 37
32 38 67 96 94 84 112 80 72 77 47 61 72 41 58 48
44 41 38 20 24 20 24 21 21 14 14 22 23 23 20 26
25 28 21 16 18 21 24 23 28 26 23 9 0 0 0 0
0 0 1 23 29 44 43 44 44 44 43 44 43 43 43 43
4 3 3 5 9 13 15 17 25 25 26 26 27 28 25 28
23 23 29 29 27 25 21 15 12 12 21 23 39 55 63 52
92 82 80 77 73 69 70 45 41 31 28 26 27 25 21 21
25 22 21 18 17 18 19 22 22 19 21 22 22 26 25 28
24 32 65 96 94 83 112 85 67 77 47 45 78 46 59 50
46 41 44 24 20 19 24 18 20 10 15 19 20 19 22 23
21 21 18 12 20 20 24 24 27 27 23 21 0 9 22 8
0 0 3 37 21 39 44 43 43 43 43 43 43 42 43 42
0 0 0 1 7 15 19 19 23 24 24 25 25 27 24 25
25 17 26 28 27 24 17 10 14 14 19 21 42 54 65 55
89 84 75 78 71 67 69 43 40 27 25 27 27 22 20 21
23 22 22 20 19 19 19 20 20 19 20 19 19 20 18 19
18 27 69 96 89 85 107 86 63 78 45 39 77 54 60 46
46 41 37 30 16 22 21 17 19 9 18 19 17 23 22 21
20 20 15 10 19 20 23 25 25 25 23 25 4 92 137 66
0 0 4 41 32 24 42 42 43 43 42 42 43 42 43 42
0 0 0 1 4 12 18 20 21 23 23 24 25 28 25 24
23 15 21 25 20 28 23 9 10 15 17 23 45 54 67 60
87 88 71 75 70 67 67 42 40 23 23 22 23 19 19 21
21 21 21 21 21 21 20 21 21 20 21 20 17 17 20 19
20 31 71 93 84 86 102 83 70 79 48 37 75 61 61 45
48 43 32 36 16 22 19 17 19 10 15 14 17 25 23 22
21 19 15 12 18 15 21 26 27 23 23 24 18 114 143 65
0 0 6 41 41 23 34 42 42 42 42 42 41 42 41 41
0 0 1 3 5 13 19 21 23 24 24 25 26 27 23 23
20 14 18 21 20 17 22 20 13 13 18 27 45 49 68 61
88 90 63 75 68 68 63 41 40 28 24 23 23 18 20 22
21 19 19 21 22 24 21 20 18 18 20 20 19 19 21 19
20 37 71 89 80 81 96 84 61 84 55 37 70 74 63 47
48 41 31 34 18 21 17 16 16 10 13 15 19 22 23 21
21 16 11 11 14 14 22 25 26 22 24 25 23 29 39 8
0 0 8 42 41 29 11 26 42 41 42 42 41 41 41 41
5 5 4 5 7 13 19 22 24 26 28 26 23 28 24 22
16 12 13 20 16 13 13 17 14 8 16 28 42 50 68 60
86 89 58 73 65 70 57 39 33 23 23 22 20 19 22 25
23 18 19 21 22 22 21 19 18 18 18 17 17 19 18 17
20 42 72 82 78 73 91 84 65 86 66 43 64 78 67 49
48 43 32 34 21 20 16 17 11 9 9 12 16 19 22 20
18 13 10 13 15 15 21 25 24 20 19 19 18 2 0 0
0 0 7 33 27 6 8 6 40 41 41 40 40 40 41 41
8 9 8 9 12 15 17 20 24 25 26 21 19 25 24 19
17 14 8 16 15 12 12 12 8 10 20 28 43 49 66 61
86 86 55 72 63 68 59 40 29 25 22 20 22 22 24 30
18 17 18 21 20 19 19 19 18 17 17 16 17 19 17 15
17 47 75 76 77 67 84 82 69 71 70 49 61 73 70 52
52 45 39 29 24 18 15 16 10 11 11 11 15 18 17 20
15 12 9 15 13 14 20 23 26 25 15 10 11 5 0 0
0 0 0 8 15 24 34 5 38 40 40 41 41 40 41 41
10 10 10 10 9 9 9 9 23 23 22 18 14 21 20 17
18 14 6 15 13 10 13 11 4 12 21 29 45 49 67 65
88 83 57 71 60 68 59 39 29 23 25 22 22 22 28 33
19 19 20 20 21 17 17 18 17 17 16 15 16 18 17 17
21 51 75 69 72 64 81 81 72 61 70 52 57 71 73 52
52 44 40 29 26 20 17 17 7 11 13 10 15 16 15 18
15 11 9 16 14 14 18 21 28 26 9 6 7 7 0 0
0 0 0 2 5 16 26 3 31 40 40 39 40 40 40 40
2 2 2 3 3 4 4 6 22 25 22 18 12 16 18 16
15 12 5 12 11 11 13 11 7 12 18 29 44 45 64 64
90 75 57 69 57 68 61 39 30 18 24 24 27 22 26 20
18 19 19 17 19 18 17 17 18 17 15 16 18 19 19 17
27 55 73 66 67 63 77 80 79 54 68 59 59 77 77 51
53 46 45 28 31 17 15 16 6 10 11 10 14 15 15 16
13 11 8 13 13 12 16 23 29 17 8 5 6 6 0 0
0 0 0 0 0 0 1 0 7 29 40 39 40 40 40 39
