P2
128 120
145
35 35 34 34 33 33 32 31 32 31 31 30 30 29 29 29
28 27 27 26 25 25 25 24 24 23 23 22 22 22 21 21
21 20 19 20 20 19 19 18 18 17 15 14 12 12 12 15
16 17 19 15 11 18 23 20 19 18 18 17 16 14 12 10
9 9 8 12 14 12 13 11 13 15 16 16 17 17 17 18
18 18 18 19 19 20 20 20 21 22 23 22 23 23 23 24
24 24 24 25 25 26 26 27 28 28 28 29 29 30 30 30
30 31 31 33 31 32 32 32 32 32 33 32 33 33 33 32
35 34 35 34 33 33 32 32 31 31 30 30 29 29 28 28
27 27 26 26 26 25 25 24 24 24 23 23 23 22 22 22
22 21 20 20 20 20 19 18 17 17 16 15 13 13 13 17
18 20 21 15 10 19 23 21 20 19 19 18 17 16 14 13
12 10 9 11 14 14 12 14 16 17 17 17 18 18 19 19
19 20 20 20 20 21 21 22 22 22 23 23 23 24 24 24
24 26 27 26 27 27 28 28 28 29 29 29 30 30 30 31
30 31 32 33 31 32 31 32 32 32 32 32 32 33 32 33
35 34 34 33 33 33 32 32 31 31 31 30 30 29 29 29
28 27 27 27 26 25 25 24 24 24 23 23 23 22 22 22
22 21 21 21 20 20 19 19 19 18 17 16 15 15 15 19
21 21 22 16 9 18 24 22 21 20 19 18 17 17 15 14
15 12 9 10 14 14 13 15 17 18 19 19 20 20 20 20
20 20 21 21 21 21 22 22 23 23 23 23 24 24 25 26
26 26 28 26 27 28 29 28 29 29 30 30 30 30 31 31
32 32 32 33 31 32 32 32 33 32 31 33 33 33 33 33
35 34 34 34 34 33 32 32 31 31 31 30 30 29 29 29
28 28 27 27 26 25 25 25 25 24 24 24 24 23 23 22
22 22 21 21 21 20 20 20 19 18 17 17 16 16 17 21
22 23 23 18 11 18 25 23 21 21 20 19 18 17 15 16
17 15 11 9 16 14 15 16 18 19 19 20 21 21 21 22
22 21 23 22 22 23 23 23 23 24 24 25 25 25 26 26
27 27 29 28 28 29 29 29 29 30 30 31 30 30 31 31
31 32 32 34 32 32 32 33 33 34 33 32 33 33 33 33
35 34 35 34 33 33 33 32 32 32 31 30 30 30 29 29
29 28 28 27 26 26 26 25 25 25 25 24 24 24 23 22
22 22 21 21 21 21 21 20 19 19 19 18 17 17 18 22
23 24 23 18 11 16 25 22 22 21 21 20 20 19 17 17
17 16 13 9 16 14 16 18 20 20 21 21 21 22 22 22
22 22 23 23 23 23 23 24 25 25 25 26 26 26 27 27
28 28 29 28 28 29 29 29 30 30 30 30 30 31 31 32
32 32 32 33 31 32 33 32 32 33 33 32 33 33 34 34
35 35 35 34 34 33 32 32 32 32 31 31 30 30 29 29
28 28 28 28 28 27 26 26 26 25 25 24 24 24 23 23
22 22 22 22 21 21 21 20 20 20 19 19 19 19 20 24
24 24 24 19 12 16 26 23 22 22 22 21 21 19 18 18
18 17 15 11 17 16 19 20 21 21 22 22 22 23 23 23
23 23 24 23 24 24 25 25 25 26 26 26 26 27 27 27
28 28 29 29 29 30 30 30 31 31 31 31 31 31 32 32
32 32 32 33 32 32 31 31 31 32 33 33 33 33 33 34
36 35 34 34 34 34 33 33 33 32 32 31 31 31 30 30
29 29 28 28 28 27 27 26 26 25 25 25 25 24 23 24
23 23 22 22 22 22 21 21 21 21 20 20 20 20 21 24
25 25 25 20 14 15 26 24 23 23 22 22 21 20 19 19
19 18 16 12 17 16 19 21 22 21 22 22 23 23 23 24
23 24 25 25 25 26 25 25 25 26 26 27 26 27 28 28
28 29 30 29 30 30 30 31 31 31 31 31 31 32 32 32
32 32 31 31 31 31 33 33 34 33 33 33 33 33 34 34
36 35 35 34 34 33 33 32 32 32 31 31 31 30 30 30
29 29 28 28 28 28 27 26 26 26 26 25 25 24 24 23
23 23 23 22 22 22 21 21 21 21 21 20 20 21 22 25
26 26 26 20 15 15 26 25 24 23 23 22 21 21 21 20
19 19 18 13 18 18 20 21 22 21 22 22 23 25 24 24
25 25 25 25 26 25 26 26 26 26 27 27 27 27 28 28
28 28 30 29 30 30 30 31 31 31 30 31 32 32 31 30
30 31 32 32 32 33 33 33 34 33 33 33 34 34 34 34
35 35 35 34 34 34 33 32 32 33 32 31 31 31 30 30
29 30 29 28 28 28 27 26 26 26 25 25 25 25 25 25
24 23 23 23 22 23 23 22 21 21 21 21 21 21 22 25
26 26 26 21 16 15 26 26 24 24 24 23 23 22 22 20
19 19 19 14 18 18 21 22 22 22 23 24 24 25 25 25
25 25 25 25 26 26 26 27 27 27 27 27 28 28 28 29
29 29 31 30 30 31 31 31 32 31 30 29 30 31 31 32
33 33 33 33 33 34 34 33 33 33 34 33 34 34 34 34
36 35 35 35 34 34 33 33 32 32 32 32 31 31 30 30
30 29 29 29 28 28 28 27 27 26 26 25 25 25 25 24
24 23 24 23 23 23 23 22 22 22 22 21 21 22 23 26
27 27 27 21 17 15 26 26 24 23 24 23 23 21 22 21
20 21 19 16 20 20 22 23 24 24 24 25 24 25 26 25
25 25 26 26 26 26 26 27 27 27 27 27 28 29 29 29
30 30 31 31 31 30 31 30 30 30 32 32 32 32 32 32
33 33 32 33 33 33 34 34 33 33 34 33 33 34 34 34
35 35 35 34 34 33 33 33 32 32 32 32 31 31 31 30
29 29 29 28 28 27 27 26 27 27 26 26 25 25 25 24
25 24 24 24 24 23 23 22 22 22 22 22 22 22 23 27
27 27 27 22 18 15 25 26 24 23 24 24 24 22 22 20
21 21 20 17 20 21 23 24 24 24 25 25 25 26 26 26
26 26 27 27 27 27 27 27 27 28 28 28 28 29 29 29
30 30 30 29 29 29 29 30 31 32 32 33 33 32 32 33
34 33 33 33 34 33 33 33 33 33 33 33 33 34 34 34
35 35 34 34 33 33 33 33 32 32 32 32 32 31 31 30
30 30 29 29 28 28 28 27 27 26 26 26 25 25 25 25
25 24 24 24 23 23 23 23 22 22 22 22 22 23 24 27
27 28 28 23 20 12 21 26 25 24 25 24 23 23 23 21
21 21 20 18 21 21 24 24 25 25 25 25 26 26 25 26
26 26 27 27 27 27 27 27 28 28 28 29 29 29 29 29
28 28 28 30 30 31 30 31 32 32 32 33 32 33 33 33
33 33 33 34 33 33 33 33 33 34 34 33 33 34 34 34
35 35 34 34 33 33 33 33 33 32 32 31 31 31 31 30
29 29 29 29 28 28 28 28 27 27 27 26 27 26 25 25
25 25 24 24 24 23 23 22 23 22 21 21 22 23 24 27
27 28 28 22 16 9 22 27 26 25 25 24 24 23 24 22
22 22 22 18 22 21 25 25 25 25 25 25 26 26 26 26
27 26 27 27 27 27 27 28 28 28 29 29 28 28 28 29
30 30 31 31 31 31 32 31 32 32 32 33 32 32 33 33
33 33 33 33 32 33 33 32 33 33 33 33 33 34 33 34
34 34 34 34 34 34 33 33 32 33 32 31 31 31 31 30
30 30 30 29 29 28 28 27 27 27 26 26 27 26 26 26
25 25 25 24 24 24 24 24 23 23 23 23 23 24 25 28
28 29 28 22 18 16 23 28 26 26 26 25 25 24 25 22
23 23 22 20 23 23 25 25 25 26 26 26 26 27 27 27
27 27 27 28 27 28 28 28 29 28 28 29 29 29 30 30
31 31 31 31 31 32 31 32 32 33 32 34 33 33 34 33
33 33 33 33 33 33 33 33 34 34 34 34 33 34 34 34
35 35 35 35 34 34 34 34 33 33 33 32 32 31 31 31
31 30 30 30 29 29 28 27 28 28 27 27 27 26 26 26
25 25 25 24 24 24 24 24 23 23 23 24 23 24 25 29
29 29 29 23 20 19 22 29 27 26 26 26 25 24 25 23
23 23 23 20 24 24 25 26 26 26 27 27 27 27 28 28
27 28 28 29 28 28 28 29 29 29 29 30 30 29 30 30
31 31 31 32 32 32 33 33 33 33 33 35 34 33 34 34
34 35 34 34 34 34 33 34 34 34 34 34 34 35 35 35
35 35 34 34 34 33 33 34 33 32 33 32 32 32 32 31
31 30 31 30 30 29 28 28 28 28 28 27 27 27 26 26
25 26 25 25 25 24 25 25 24 24 24 24 25 25 26 29
29 29 29 24 19 21 21 29 28 27 27 26 26 26 26 25
24 24 23 20 24 24 26 26 27 27 27 26 28 28 28 27
28 28 28 27 27 28 29 30 30 30 31 31 31 30 31 31
31 31 31 31 32 32 32 33 32 33 33 34 34 33 33 33
34 34 34 34 34 34 34 34 34 34 36 35 35 35 34 35
35 35 35 34 34 34 33 33 33 33 32 32 32 32 32 31
31 31 30 30 30 30 29 29 29 28 28 28 28 27 27 27
26 26 26 25 25 25 25 25 24 24 24 24 25 25 26 29
30 30 30 24 20 23 21 29 28 28 27 27 26 26 27 25
25 25 24 21 26 25 27 27 27 27 27 28 28 28 28 28
28 29 29 28 29 29 29 30 30 30 31 31 30 31 31 31
32 32 32 33 33 33 33 34 33 34 33 34 34 34 34 34
34 34 34 34 34 34 34 34 34 35 34 34 35 34 34 35
35 35 34 35 34 34 34 34 34 34 33 33 33 32 32 32
31 31 31 31 30 30 29 29 29 28 28 28 28 27 27 27
27 27 27 26 26 26 26 26 25 25 25 25 25 26 27 30
30 30 30 25 21 24 21 29 29 29 28 28 28 26 28 26
26 25 25 22 25 25 27 28 28 27 28 28 28 28 29 29
29 30 30 30 29 30 30 30 31 30 31 31 32 32 31 32
32 32 32 33 33 33 34 34 34 34 34 35 34 34 34 34
35 35 35 35 34 35 34 35 35 35 35 35 35 34 35 34
35 35 35 35 35 34 34 34 34 34 33 33 33 33 33 33
32 32 32 32 31 31 30 30 30 29 29 29 29 28 28 28
27 27 27 27 26 26 26 26 25 25 25 25 26 26 27 31
32 32 32 26 21 25 22 29 30 29 29 28 28 27 28 27
27 26 25 22 27 25 28 28 28 28 28 29 30 30 30 31
31 31 30 31 31 31 31 31 31 32 32 32 31 32 33 33
33 33 33 34 34 34 34 35 34 34 34 35 35 35 35 35
36 35 35 34 34 34 35 35 36 35 36 35 35 35 35 35
35 35 35 35 35 34 35 34 34 34 34 34 34 33 33 33
33 32 31 31 30 31 31 30 30 30 30 29 29 28 29 28
28 28 28 28 27 27 27 26 26 26 25 26 26 27 28 32
32 32 32 27 22 27 23 30 31 30 30 30 29 28 29 27
27 26 26 22 26 24 28 29 29 30 30 31 30 30 31 31
30 31 30 31 31 31 31 32 32 32 33 33 33 33 33 33
33 34 33 34 34 34 34 34 34 34 34 35 35 35 34 34
34 35 35 36 35 35 35 35 35 35 35 36 35 35 35 35
36 36 35 35 35 35 35 35 34 34 34 34 33 33 33 33
33 32 33 33 32 31 30 30 30 30 30 29 30 29 29 29
29 28 28 28 28 27 27 26 26 27 26 26 26 28 28 32
33 32 32 27 22 28 24 29 31 31 30 30 29 29 30 28
27 27 27 24 27 27 30 30 30 30 31 31 31 31 30 31
31 31 32 31 31 31 31 32 32 32 33 33 33 33 34 34
34 34 35 35 35 35 35 35 35 35 34 34 34 35 35 35
35 36 36 36 37 35 35 35 35 36 36 35 35 35 36 35
35 35 35 35 35 35 35 35 34 35 34 35 34 33 34 33
33 32 32 32 32 31 31 30 30 31 31 30 30 30 29 29
29 29 29 28 28 27 27 27 27 27 27 27 27 28 29 32
33 33 33 28 23 29 25 29 31 30 31 30 29 29 30 29
28 28 27 24 28 28 30 31 31 31 31 32 32 31 32 32
31 31 31 31 32 31 32 33 33 33 33 34 34 34 34 34
35 34 35 35 35 34 34 34 35 35 36 36 36 36 36 36
36 36 36 36 37 35 35 35 35 35 35 36 35 35 36 36
36 35 35 35 35 34 35 35 34 34 34 34 34 33 33 33
33 33 32 32 33 32 31 31 31 31 30 30 30 29 30 29
29 29 29 29 28 28 27 28 27 27 27 27 27 28 29 33
34 34 33 29 24 29 26 28 31 31 30 31 30 29 30 29
28 28 28 25 28 28 30 31 31 32 31 32 31 32 32 31
32 31 31 32 33 33 33 33 33 33 34 34 34 34 34 34
34 34 34 34 35 35 36 36 35 36 36 36 36 36 36 36
36 36 36 36 37 36 35 35 35 35 35 35 36 35 35 35
36 35 36 35 35 35 35 35 35 35 35 34 34 34 33 33
33 33 33 32 32 32 31 31 32 32 31 31 31 31 30 30
30 29 29 29 28 28 28 27 28 27 27 28 28 29 30 33
33 34 35 29 23 29 28 28 31 31 32 31 31 31 30 30
29 29 28 26 28 28 31 31 31 31 31 32 32 32 32 32
31 32 32 32 33 33 33 34 33 34 34 34 34 33 33 33
34 34 35 35 36 36 36 36 36 36 36 37 36 36 37 36
36 36 36 37 37 36 36 36 35 35 35 35 35 36 36 36
36 36 36 36 36 35 35 35 35 35 34 34 34 34 34 33
33 33 33 33 33 32 32 32 31 31 31 31 30 30 29 30
29 29 29 29 29 29 28 28 28 27 28 28 28 29 30 34
35 34 34 30 24 30 29 27 32 32 31 31 31 31 30 30
29 29 28 27 29 29 31 32 32 32 32 32 31 32 32 32
32 32 33 32 33 34 34 33 34 34 34 33 34 34 34 34
34 35 35 37 36 36 36 36 37 37 36 36 36 36 36 36
36 36 36 36 37 36 36 35 36 35 36 36 36 36 36 36
36 36 35 36 35 35 35 35 35 35 35 35 34 33 34 34
33 33 33 33 33 32 31 32 32 32 31 32 32 31 31 31
30 29 29 29 29 29 29 28 29 29 28 28 29 30 31 34
36 35 35 30 24 30 32 26 33 33 32 33 33 34 32 33
32 30 29 27 30 29 31 32 32 32 32 33 33 33 33 33
33 33 34 33 34 34 34 34 34 34 34 34 34 35 35 35
35 35 35 37 37 36 37 37 36 37 37 37 36 36 36 38
37 36 36 36 37 37 35 36 36 35 35 36 36 36 36 36
36 36 36 36 36 35 35 35 35 35 35 35 34 34 35 34
34 34 34 34 34 33 32 32 32 32 31 31 31 31 30 30
30 30 30 30 30 29 29 29 29 29 29 28 29 30 31 34
35 36 35 32 25 31 34 27 34 34 34 34 33 34 32 31
35 34 30 27 29 31 32 33 32 32 33 34 33 33 33 33
33 33 33 33 34 34 35 34 34 34 35 34 34 35 35 35
35 35 36 38 37 37 37 37 37 37 37 36 36 36 36 36
36 36 36 36 36 37 36 36 37 36 36 37 36 36 36 35
36 35 36 36 35 36 35 35 35 36 35 34 34 35 34 34
34 34 34 33 33 33 33 33 33 32 32 32 31 32 31 31
31 30 30 30 30 30 30 30 29 29 29 29 30 30 31 35
36 35 36 35 41 44 38 34 37 41 43 40 39 35 33 33
33 38 32 28 29 29 33 33 33 33 33 33 33 33 33 33
32 33 34 35 35 34 35 35 34 35 35 35 35 35 36 36
36 36 37 37 37 37 37 37 37 37 37 37 37 36 37 36
37 36 36 36 37 37 36 36 36 37 37 36 36 37 36 35
36 36 36 36 36 36 35 35 35 35 35 35 35 35 35 35
34 34 34 34 34 34 33 33 33 33 32 31 32 31 31 31
31 31 31 30 30 30 30 30 30 29 29 29 30 30 32 35
37 40 58 67 57 50 52 55 54 46 36 34 30 32 32 30
31 35 33 31 31 31 33 33 33 33 33 32 33 33 34 33
33 34 34 35 34 35 35 35 35 35 35 36 36 36 36 36
37 36 37 37 37 37 37 37 37 37 37 36 37 36 36 36
37 37 36 37 37 38 37 37 37 36 36 35 35 36 36 36
37 36 36 35 36 36 35 35 35 35 36 36 35 35 35 35
35 34 35 34 34 33 33 33 33 33 33 32 32 31 32 31
32 31 31 31 30 30 30 30 29 29 29 29 30 31 32 37
56 72 61 66 71 69 57 48 40 38 37 32 34 37 38 31
25 23 28 31 31 31 34 34 33 33 34 34 34 34 35 34
34 35 35 36 35 35 35 35 35 35 35 36 36 36 37 37
37 37 37 38 38 37 37 38 38 37 37 37 36 37 37 37
37 37 37 37 36 36 34 34 35 35 35 35 37 37 38 36
37 36 35 36 36 36 35 36 35 36 35 35 36 35 35 35
35 34 34 34 34 33 33 33 32 33 33 32 31 32 32 31
31 31 31 31 31 31 30 30 30 30 30 29 31 32 34 60
67 71 83 75 58 44 40 40 40 39 27 33 36 42 30 29
24 26 30 30 27 31 31 38 35 34 34 34 35 34 35 34
34 35 35 35 35 35 35 35 35 36 36 36 36 37 36 36
37 37 37 37 37 37 37 37 37 37 37 37 37 36 37 36
36 36 35 36 36 35 35 36 36 36 36 34 36 36 37 35
31 33 36 36 36 36 36 36 35 36 36 35 35 36 35 35
35 35 35 35 34 34 34 33 33 34 33 33 33 32 33 33
33 32 32 31 31 31 31 31 31 30 30 31 34 36 52 73
87 74 63 43 36 36 43 46 40 31 33 41 46 37 37 31
27 29 33 37 28 33 28 35 40 39 37 36 36 35 35 35
35 35 35 36 35 35 36 35 36 36 36 36 36 37 37 38
38 38 37 38 38 38 38 37 37 37 37 37 36 36 35 36
35 36 37 37 37 37 36 36 36 37 36 36 36 36 37 36
13 23 36 36 37 36 36 36 36 36 36 36 36 35 35 35
35 35 35 34 35 34 34 34 34 33 33 33 33 33 33 33
33 32 32 32 32 32 31 31 32 31 31 34 36 50 82 69
59 57 43 35 39 50 52 48 39 39 42 47 47 45 38 39
37 33 38 40 34 34 31 30 42 38 42 39 37 36 36 35
35 36 36 37 36 36 37 36 37 37 37 37 37 38 38 38
37 38 38 38 38 38 37 37 38 37 37 37 38 37 37 37
38 37 37 37 37 36 37 36 37 36 36 36 36 37 37 36
12 21 36 37 37 37 36 36 36 36 36 37 37 36 36 36
36 35 35 35 35 34 34 34 34 34 34 34 33 34 33 33
33 33 32 32 32 32 32 31 32 33 34 38 45 74 49 53
57 46 37 39 55 57 63 47 46 50 49 59 54 53 47 52
47 40 41 46 41 40 38 30 41 36 35 42 39 38 36 35
36 36 36 37 37 36 36 37 37 37 37 37 37 38 38 38
38 38 38 37 37 37 37 37 38 37 37 37 38 37 37 37
37 37 37 36 37 36 36 36 36 36 37 36 36 36 37 37
13 20 36 38 37 37 37 36 35 36 37 37 37 37 36 36
36 35 35 35 35 35 35 35 35 34 34 34 38 39 37 35
34 33 33 32 32 32 32 32 32 34 38 48 69 43 54 56
49 40 42 51 62 73 64 49 62 53 60 71 65 56 61 68
56 43 46 50 46 45 44 37 44 39 35 36 43 38 38 37
35 36 37 37 38 37 37 37 37 37 38 38 38 38 37 37
38 37 37 36 37 37 37 37 37 37 38 37 38 38 37 37
37 37 37 37 38 37 36 36 36 36 36 37 36 37 36 37
15 21 36 37 37 37 37 37 38 45 45 43 41 39 37 37
35 35 36 36 36 35 35 35 35 35 34 35 45 48 45 41
39 38 34 32 33 33 33 33 34 38 50 77 45 47 55 54
47 46 46 68 79 75 68 56 65 58 70 82 75 69 81 84
64 48 52 56 52 50 49 44 45 43 38 35 39 45 38 38
37 37 37 38 38 37 37 37 37 37 38 38 38 37 37 38
38 38 38 37 37 38 37 37 38 37 37 37 37 38 37 37
37 37 37 37 37 37 37 37 36 36 37 37 37 36 36 37
15 23 37 39 38 37 38 37 39 49 47 47 45 42 41 40
39 38 37 36 36 36 35 34 35 36 35 36 46 47 45 43
43 43 40 35 33 33 33 34 38 48 70 50 45 55 54 50
50 50 63 86 87 90 68 62 70 66 85 95 86 83 103 94
71 55 58 59 57 59 55 48 47 47 40 38 36 42 44 38
39 37 37 37 37 37 36 37 37 37 38 38 38 37 38 38
38 37 37 38 37 37 37 37 38 38 37 36 37 38 37 38
37 36 37 37 36 37 37 36 37 37 37 38 36 36 36 37
15 25 41 40 39 38 38 37 40 50 49 47 45 44 45 46
49 43 43 42 40 37 36 35 35 35 35 36 43 42 42 42
44 44 43 36 33 34 34 36 43 66 55 44 59 56 60 50
53 57 84 97 91 94 69 70 72 73 97 106 96 97 118 102
75 61 64 62 64 66 65 56 52 54 45 39 36 39 52 40
38 38 36 37 36 37 37 37 37 37 38 38 38 38 38 38
38 39 38 38 38 38 37 38 38 38 37 37 37 38 37 36
38 38 38 37 37 37 37 37 37 36 37 38 37 37 36 37
16 27 43 42 41 41 41 40 41 42 37 42 44 46 48 49
49 43 38 41 44 43 41 40 39 38 36 36 35 24 26 29
34 38 40 38 34 34 34 40 60 60 48 55 55 54 53 57
57 73 97 96 100 95 69 75 74 84 107 112 104 111 126 100
80 68 65 67 67 71 70 57 53 53 45 42 32 42 50 49
37 38 37 37 37 37 38 38 37 37 38 38 39 38 38 38
38 38 38 38 37 38 38 37 37 37 38 37 38 38 38 37
37 37 37 37 37 37 37 36 37 37 37 37 37 37 37 37
16 26 43 41 35 37 41 44 46 27 2 9 25 36 41 43
47 39 10 10 18 25 34 36 39 43 41 38 34 16 12 14
13 12 17 35 35 35 37 49 69 52 54 60 52 56 58 59
61 91 100 99 108 90 72 83 75 94 115 115 109 121 129 102
90 74 69 69 72 78 74 61 56 55 49 50 43 48 43 60
38 38 37 37 37 37 36 37 37 37 37 38 39 38 38 38
38 37 38 38 38 38 38 37 37 36 37 36 37 38 37 36
36 36 36 37 37 37 37 36 37 37 36 38 38 37 37 36
16 24 40 41 39 37 39 46 50 27 0 0 6 15 18 18
28 37 3 0 0 0 3 8 13 22 29 37 33 14 5 9
10 4 3 35 34 35 41 59 54 55 58 49 52 56 57 63
68 104 99 108 112 86 76 82 81 101 119 120 114 129 127 105
99 77 73 70 75 82 75 64 60 57 52 56 60 51 45 68
41 37 37 37 37 37 37 37 37 36 37 38 39 38 38 37
38 37 37 37 37 37 37 37 37 36 37 37 37 38 37 36
36 36 36 36 36 37 36 37 36 36 36 37 37 36 36 34
15 12 10 17 27 36 41 46 49 29 0 0 3 8 12 13
21 37 4 0 0 0 0 0 0 0 1 27 33 10 0 1
4 3 3 35 34 35 46 59 49 60 53 50 53 60 59 65
90 107 100 111 109 85 79 75 87 107 121 122 118 131 124 109
104 78 74 74 76 84 75 67 65 59 57 60 67 60 47 70
48 37 36 36 37 36 37 37 36 36 36 37 38 37 38 37
37 37 36 37 37 37 36 36 36 36 36 36 36 36 36 36
35 36 36 36 36 37 36 36 36 36 36 36 36 36 36 35
15 7 0 0 0 3 9 18 28 27 0 0 1 2 2 5
17 36 6 0 0 0 0 0 0 0 0 26 32 4 0 0
1 1 3 36 35 40 50 52 61 59 50 56 61 59 62 72
107 102 103 109 108 86 80 82 100 112 121 121 122 133 122 119
104 81 75 77 79 88 76 66 70 63 67 64 79 63 47 72
59 36 37 35 36 36 36 36 36 37 36 37 38 37 38 37
37 37 37 37 37 37 37 37 37 37 37 36 37 37 36 36
36 36 36 36 36 36 35 36 37 37 36 36 36 36 36 35
14 7 0 0 0 0 0 0 1 19 0 0 0 0 0 1
14 34 3 0 0 0 0 1 0 0 0 24 28 1 0 0
0 1 4 37 37 43 53 51 67 60 54 61 59 55 69 79
104 97 102 111 103 89 80 91 107 116 123 122 127 133 117 126
98 82 80 81 83 84 78 73 82 71 78 74 87 71 48 77
64 36 36 36 36 36 36 37 37 37 37 38 38 36 37 37
37 37 37 37 38 37 37 37 37 38 36 37 36 36 35 37
37 37 37 37 37 36 36 37 37 36 36 36 35 35 35 35
15 7 0 0 0 0 0 0 0 16 0 0 0 0 0 0
17 37 4 0 0 0 7 11 2 0 0 23 28 0 0 0
0 0 3 38 40 40 58 56 63 56 54 63 64 56 74 83
93 97 103 110 96 86 87 100 108 119 126 124 130 129 120 124
95 84 82 83 87 84 79 85 84 89 78 94 93 77 53 84
68 38 37 37 37 37 36 38 37 37 37 38 38 37 38 37
37 38 38 38 38 37 37 38 37 37 36 37 37 38 37 37
37 37 37 36 36 35 37 36 36 37 36 37 36 36 37 37
15 8 0 0 0 0 0 0 0 14 0 0 0 0 0 0
16 39 4 0 0 0 10 15 11 6 1 21 28 0 0 0
0 0 2 37 39 43 58 56 58 56 60 66 66 64 77 81
92 100 106 100 92 87 94 110 111 124 126 125 134 124 121 118
93 70 78 85 93 87 86 100 90 102 86 101 99 82 52 84
62 38 37 38 36 37 38 38 38 38 38 38 39 38 38 38
38 38 38 38 38 37 38 38 37 37 38 37 38 37 37 37
37 37 37 36 35 37 38 37 37 37 37 37 37 38 38 38
15 8 0 0 0 8 4 0 0 12 0 0 0 0 0 0
15 41 5 0 0 1 12 15 15 14 4 20 30 0 0 0
0 0 2 37 40 48 55 56 62 57 72 64 68 75 77 76
97 108 101 93 93 96 103 115 115 129 126 131 132 119 112 63
18 11 5 20 50 78 98 97 98 100 97 100 106 88 58 84
55 39 37 37 37 37 38 38 38 38 38 38 39 37 38 38
38 38 39 39 39 38 38 37 37 37 38 37 38 38 37 36
37 37 36 36 37 36 37 38 38 38 38 38 38 37 36 34
16 8 1 8 3 4 1 0 0 12 0 0 0 0 0 2
17 42 7 0 0 1 10 14 14 14 4 19 32 4 0 0
0 0 3 35 41 57 56 58 66 53 75 58 79 79 73 81
96 100 92 93 97 99 114 116 124 129 125 132 101 45 5 0
16 27 1 0 0 3 33 76 99 105 104 99 105 95 72 86
48 40 38 38 38 38 38 38 38 38 38 38 38 39 38 38
38 38 39 39 40 39 39 39 39 38 38 38 38 38 38 37
38 38 37 37 37 37 38 37 37 37 36 37 37 34 33 32
16 9 4 4 0 1 1 0 0 14 0 0 0 0 0 5
24 45 11 0 2 2 1 6 12 14 3 17 41 31 23 16
11 10 11 33 42 65 53 60 68 58 74 67 87 86 74 77
85 81 81 97 101 103 121 116 128 120 78 29 0 0 0 3
8 29 3 1 3 5 0 1 38 100 110 104 107 107 88 85
47 41 39 38 38 38 39 38 38 38 39 39 38 39 38 39
39 39 40 40 40 39 39 39 39 38 38 38 38 37 37 37
37 37 36 35 35 37 38 35 34 33 31 29 26 23 20 18
15 9 2 0 0 0 0 0 0 26 18 11 8 6 2 0
17 50 37 29 24 20 11 5 5 9 1 16 45 47 43 43
43 44 44 44 40 63 48 63 66 64 72 77 92 87 64 69
70 73 82 97 101 114 121 96 59 13 1 0 5 12 18 18
16 21 3 1 2 7 5 0 0 22 105 109 115 108 93 74
48 42 41 39 40 39 39 39 39 39 39 39 38 39 39 40
40 40 40 40 40 39 39 38 39 37 37 38 37 36 36 35
36 35 34 33 31 30 27 24 21 19 17 16 16 17 18 19
16 9 0 0 0 0 0 0 1 37 50 41 38 37 33 25
29 54 34 27 30 32 33 30 27 26 24 33 47 45 45 45
48 52 53 45 42 65 46 65 65 71 71 93 99 90 56 65
70 70 85 106 101 121 53 3 1 5 17 30 50 63 66 47
54 21 1 0 0 1 2 0 0 1 25 103 115 108 94 63
49 40 41 38 40 40 39 39 39 39 40 39 39 39 40 40
40 41 40 39 40 39 37 37 36 35 35 36 34 34 32 30
27 25 22 20 19 18 18 19 19 19 20 21 22 22 23 24
16 10 0 0 0 0 0 0 1 40 54 43 48 50 54 53
49 51 26 15 17 18 18 19 21 24 28 33 34 31 36 41
44 48 49 41 46 63 43 67 65 76 78 101 103 90 58 59
54 67 83 86 101 111 10 14 46 66 94 104 101 95 83 64
68 20 2 1 0 0 0 0 0 4 4 63 116 107 88 54
47 39 40 38 40 39 39 39 39 38 40 40 39 38 39 39
39 39 38 38 39 38 36 37 38 32 28 26 23 21 20 19
19 20 20 21 22 23 24 23 25 26 26 26 25 21 26 29
16 19 21 15 8 4 1 0 1 39 46 42 51 53 57 56
48 41 25 16 17 16 15 14 13 12 12 12 13 15 19 24
32 37 35 37 50 62 43 70 68 80 88 107 106 82 26 42
50 46 83 73 112 91 53 102 118 130 136 129 117 102 93 83
81 28 2 1 0 0 0 0 0 3 10 21 108 96 63 38
36 38 37 37 39 38 38 38 39 39 39 39 39 40 39 39
38 36 34 32 30 26 24 25 38 27 17 19 21 22 22 23
24 25 26 27 28 28 29 29 30 30 30 31 31 28 23 29
17 27 45 48 45 39 33 27 24 43 37 42 49 52 54 56
50 42 28 18 17 15 14 12 12 12 12 11 11 12 17 15
29 33 32 36 54 62 44 73 67 84 95 112 110 64 13 14
19 46 76 86 120 91 98 117 134 136 135 135 132 131 116 98
93 31 2 0 0 0 0 0 0 0 6 13 64 57 19 0
0 6 30 37 38 38 38 38 38 38 38 37 35 34 30 27
25 23 22 22 22 23 22 22 32 25 20 24 26 28 27 29
29 30 30 31 31 31 32 32 32 32 33 31 33 33 31 23
16 27 46 51 51 49 49 49 51 49 23 24 34 39 45 49
46 43 31 18 16 14 10 10 10 12 12 13 14 14 17 17
32 24 23 38 58 64 49 82 64 90 105 117 113 57 5 8
36 78 69 104 119 95 121 132 136 135 135 134 134 134 112 95
83 35 3 2 0 0 0 0 0 0 1 11 8 3 1 0
1 0 3 30 37 36 35 33 31 29 27 26 24 23 23 23
25 25 26 27 27 28 28 27 34 27 24 28 31 32 32 33
33 33 34 33 34 33 33 34 33 34 34 32 33 35 35 31
16 25 46 51 51 50 51 52 53 46 9 1 3 7 12 20
23 35 33 17 15 10 1 2 2 7 14 15 13 13 18 18
32 38 37 39 59 63 53 86 62 100 112 124 114 118 60 43
77 87 84 112 115 119 136 135 136 135 135 135 135 134 105 87
82 44 5 3 0 0 0 0 0 0 0 5 8 0 0 0
1 3 1 8 28 26 25 25 25 25 26 26 27 27 28 29
29 31 31 31 32 33 33 31 34 29 28 33 34 34 34 35
35 35 35 35 36 36 36 36 35 33 33 34 34 36 36 36
22 26 37 41 42 44 46 47 51 43 6 0 0 0 0 4
14 35 34 16 14 10 0 0 0 2 5 6 3 3 11 10
29 42 38 41 56 61 54 81 65 106 114 122 111 103 123 97
97 88 95 116 111 131 136 135 135 135 135 135 134 134 110 91
90 36 6 4 0 0 0 0 0 0 0 8 90 42 0 0
0 2 4 0 24 26 28 29 29 30 31 31 32 32 33 33
34 35 35 36 36 36 35 28 17 14 26 35 36 36 36 37
36 36 36 37 37 37 36 36 36 36 34 34 34 34 36 36
22 24 27 28 32 36 35 37 46 40 4 0 0 0 0 0
3 35 35 15 13 7 0 0 4 3 0 0 0 0 3 3
26 41 37 47 58 60 61 84 70 111 117 124 113 63 122 124
113 100 108 116 113 135 136 136 135 135 136 136 135 135 120 92
86 36 3 2 0 0 0 0 0 0 5 29 131 109 10 0
0 0 6 0 28 32 33 33 34 34 35 36 36 35 36 36
37 37 37 37 37 36 36 25 6 4 21 34 37 38 37 36
36 37 37 37 37 37 37 37 37 37 35 35 35 33 35 36
21 24 23 24 26 34 32 35 46 39 3 0 0 0 0 0
0 33 30 8 3 0 0 0 8 10 4 2 0 0 0 1
25 41 36 48 57 62 65 82 78 112 122 126 118 83 111 120
121 104 113 115 121 136 135 135 135 135 135 135 135 134 130 98
86 50 1 2 0 0 0 0 0 1 13 56 136 128 57 0
0 0 3 5 34 36 36 36 37 37 37 37 37 38 37 38
38 38 37 31 26 20 30 23 10 4 18 35 37 38 38 37
37 37 37 36 37 37 37 37 37 37 36 36 34 33 33 35
19 22 21 25 30 35 36 41 46 39 3 0 0 0 0 0
1 36 25 0 0 0 0 0 4 13 12 4 1 0 0 1
25 42 36 51 60 63 69 81 82 114 123 123 122 106 106 120
117 110 118 112 129 136 136 136 136 136 135 136 136 135 134 115
94 77 8 1 0 0 0 0 0 19 14 95 136 133 103 8
0 0 2 12 35 37 37 37 38 38 38 39 39 39 38 38
39 39 28 5 2 5 25 21 2 1 17 35 37 38 38 37
37 37 37 37 37 37 37 37 37 36 36 37 36 33 32 33
22 19 2 3 7 12 17 23 29 32 3 0 0 0 0 0
2 38 25 0 0 0 0 0 4 14 17 12 6 0 0 2
25 42 36 54 58 62 73 80 86 116 125 121 108 66 90 123
113 118 120 111 135 137 136 136 136 135 136 136 135 135 135 132
103 87 46 1 0 0 0 0 16 32 30 128 135 133 123 48
0 0 2 11 36 39 39 40 39 39 39 39 39 39 40 39
40 39 32 23 27 31 34 26 1 1 16 34 36 38 38 37
37 37 38 37 37 37 37 37 38 37 36 36 36 36 32 30
26 20 0 0 0 0 0 0 0 19 3 0 0 0 0 0
2 38 22 0 0 0 0 3 16 18 19 16 9 0 0 4
24 41 37 56 58 64 72 73 89 117 126 122 104 83 100 122
118 122 122 112 136 136 137 136 136 136 136 136 136 136 135 135
128 99 84 34 1 0 0 16 49 18 87 136 134 132 125 99
9 0 2 11 37 39 39 39 39 39 39 39 41 40 40 40
40 40 39 38 38 37 35 28 5 0 18 34 37 36 38 37
38 37 37 37 37 37 37 37 37 36 35 36 36 35 36 32
26 20 0 0 0 0 0 0 0 16 2 0 0 7 4 0
0 36 18 0 0 0 0 3 18 22 18 8 4 0 2 5
24 41 39 58 58 64 75 70 88 115 124 122 111 94 100 125
127 126 122 113 136 136 136 136 136 136 136 135 135 135 135 135
134 131 112 85 51 15 3 18 21 69 131 135 134 132 125 117
70 1 2 11 38 39 39 39 40 39 40 40 40 40 39 40
40 39 39 38 38 36 36 31 9 1 22 35 38 37 38 38
37 36 37 36 36 36 36 36 37 36 35 36 36 36 36 32
25 21 0 0 0 3 1 0 0 15 3 0 4 19 12 2
1 36 16 0 0 0 0 0 3 14 12 0 0 0 1 1
22 41 38 58 58 61 79 71 88 112 126 123 112 97 94 128
128 127 119 116 136 136 136 136 135 136 135 135 135 135 136 135
135 135 134 132 118 99 73 66 97 130 130 113 125 130 133 131
116 39 2 10 39 39 39 39 39 39 39 40 41 40 39 39
40 39 39 38 38 37 35 31 20 11 28 35 37 38 38 37
38 37 37 37 37 36 37 36 36 36 36 36 36 36 35 33
22 19 0 0 4 16 7 1 0 14 4 0 11 19 15 5
0 35 15 0 1 0 0 0 0 11 12 0 0 0 0 0
16 38 40 59 60 61 84 68 88 110 126 123 116 100 88 112
129 125 120 119 136 136 136 136 136 136 135 135 136 135 135 135
135 135 135 134 134 132 125 119 123 131 121 107 122 131 133 133
130 83 4 14 40 39 39 39 39 39 39 39 39 38 39 39
38 38 38 38 37 36 34 30 28 27 32 36 37 38 38 37
37 37 36 36 36 36 37 36 36 36 36 36 35 35 35 33
21 19 1 0 10 22 10 4 0 17 24 18 26 27 25 19
10 38 15 0 0 0 0 0 0 10 16 0 0 0 0 0
13 36 42 58 63 61 90 64 85 109 124 121 106 111 95 102
134 124 115 121 135 135 135 135 135 136 135 135 135 136 135 135
136 136 135 134 134 133 131 120 116 121 130 132 133 134 132 131
128 93 6 17 39 39 39 39 39 39 39 39 40 40 39 39
39 39 39 38 38 37 35 31 31 32 35 37 37 37 38 37
37 37 36 37 36 36 37 36 36 36 36 35 35 35 34 33
21 20 1 0 6 11 5 2 0 20 43 42 46 45 44 46
46 50 18 0 2 0 0 0 0 12 18 1 2 2 0 0
11 35 46 57 62 62 92 66 87 108 122 118 102 113 131 124
134 128 113 121 136 135 136 136 136 136 135 135 135 136 136 135
135 135 135 134 134 133 128 112 109 117 134 133 117 106 111 127
118 55 3 29 39 39 39 39 39 39 39 39 39 39 39 39
39 39 39 38 37 37 36 34 34 35 38 38 38 38 38 37
38 37 37 37 37 36 36 35 36 36 36 35 35 34 35 32
21 22 7 2 1 1 0 0 0 19 45 45 48 47 47 52
57 55 34 20 22 15 9 7 8 17 21 7 7 6 3 2
12 33 46 57 63 64 94 69 85 106 121 113 103 117 131 124
135 131 111 122 134 134 136 136 136 135 135 135 136 136 135 135
135 135 135 134 135 133 122 103 113 114 123 117 125 132 116 99
64 5 7 38 39 39 39 39 39 38 39 39 38 39 39 39
39 40 39 38 38 37 37 35 35 37 38 38 37 37 37 38
37 37 37 36 37 36 36 36 36 35 35 35 33 32 32 31
23 24 20 5 0 1 0 0 0 17 43 42 45 45 46 52
56 55 44 37 38 36 34 32 32 33 30 26 23 20 20 21
26 33 46 54 60 62 95 65 81 107 119 109 104 121 132 125
137 133 107 120 136 135 135 136 136 136 136 135 136 136 136 135
134 134 134 134 133 132 120 111 126 128 122 130 134 119 71 62
41 29 34 40 39 39 39 38 38 39 38 39 39 40 39 39
39 39 39 38 38 37 36 36 37 37 36 37 36 37 36 37
36 36 35 35 35 35 35 35 35 35 35 34 33 32 31 31
24 24 15 1 0 0 0 0 0 18 41 38 41 41 42 43
41 40 40 40 41 40 39 37 39 39 37 36 34 33 31 31
31 35 49 53 59 60 97 64 78 105 117 103 78 100 123 122
136 132 105 117 134 135 135 136 135 135 136 136 135 136 136 135
136 135 135 134 134 129 118 120 133 133 134 134 129 106 93 86
43 40 40 40 39 39 39 39 38 39 39 39 39 39 39 39
39 39 38 38 38 38 36 36 38 38 37 37 37 37 38 37
37 36 36 37 36 35 35 35 34 34 34 33 32 32 31 30
26 25 13 2 0 0 0 0 0 18 44 38 39 40 40 39
37 37 40 41 42 44 44 43 41 40 40 39 42 45 43 41
40 37 51 51 57 60 96 64 78 106 115 103 64 42 78 102
122 130 98 112 131 135 136 136 136 136 136 136 136 136 136 136
136 135 135 135 134 127 118 131 134 134 134 134 121 121 101 89
44 39 40 39 39 39 38 39 38 38 38 38 39 39 38 39
39 39 39 38 38 38 38 38 39 39 38 38 38 38 38 37
37 36 37 36 35 35 34 34 34 33 33 32 32 31 30 29
24 24 30 29 28 22 21 18 15 28 47 40 40 40 40 41
41 43 45 42 43 46 49 49 43 38 39 40 47 51 48 46
45 39 54 47 56 58 94 63 74 104 114 103 78 44 63 101
108 126 91 104 126 132 135 136 136 135 135 135 135 136 136 136
135 135 135 134 132 123 127 135 134 134 133 134 120 122 101 89
43 39 39 39 39 38 39 38 38 38 38 38 39 38 39 39
39 39 38 38 38 38 38 38 38 38 37 37 37 37 37 37
37 36 36 36 35 35 34 34 33 32 31 31 30 29 29 28
25 25 42 49 51 47 48 50 50 51 50 42 41 42 42 42
45 48 50 44 44 46 50 48 44 40 35 36 47 51 48 47
45 39 56 44 59 58 92 62 73 101 112 102 83 56 85 122
124 125 84 94 120 126 134 134 136 136 135 135 135 135 135 135
135 135 135 134 128 120 132 134 134 131 124 115 108 106 93 82
40 39 39 39 39 39 37 38 38 38 38 38 39 38 38 38
38 38 38 38 37 38 38 38 37 37 38 37 36 36 37 37
36 35 35 35 34 34 33 33 32 31 31 30 30 29 29 27
25 25 45 55 55 54 55 55 56 56 52 37 35 34 33 35
39 46 51 45 45 43 42 43 44 41 37 33 40 39 37 39
41 38 58 41 58 52 89 61 69 98 110 100 87 61 93 121
126 124 86 84 114 121 129 133 135 135 135 134 135 135 136 135
135 135 135 133 120 103 123 119 107 95 97 97 93 80 74 73
39 40 40 40 40 39 39 38 38 38 38 38 38 38 38 38
37 37 37 37 37 37 38 37 38 37 37 37 37 36 36 36
36 36 36 34 34 33 32 32 32 30 30 29 29 28 29 27
26 23 33 40 41 43 44 46 48 50 47 16 10 8 6 7
12 20 43 46 42 24 16 22 25 25 28 36 37 18 9 7
18 31 56 38 55 48 82 59 69 97 108 101 91 67 93 119
123 124 91 74 108 117 125 131 135 136 136 136 136 136 135 135
135 135 134 133 107 81 89 96 97 94 85 73 65 55 70 61
39 39 39 40 40 39 38 38 37 38 38 38 38 38 38 37
36 36 34 33 30 31 34 37 38 38 37 38 38 37 36 36
36 35 34 34 32 32 32 32 31 30 30 29 28 28 28 27
26 23 28 33 33 33 33 33 33 34 35 10 0 0 0 0
0 3 36 46 31 5 0 1 4 9 21 39 38 13 0 0
9 27 55 34 55 47 80 64 69 95 108 100 93 76 90 116
121 123 97 75 104 115 124 129 132 134 136 136 136 136 136 136
134 135 135 132 123 133 132 130 130 127 121 108 96 70 79 48
40 40 40 39 39 37 36 35 34 34 35 36 38 38 38 33
19 17 15 14 12 13 26 38 39 38 38 38 37 37 37 36
35 35 35 34 32 32 32 32 31 29 29 28 27 26 25 25
25 22 33 38 39 38 38 37 36 35 36 13 4 0 0 0
0 12 38 44 18 0 0 0 0 1 20 41 38 13 0 0
7 24 55 30 57 46 77 62 68 89 106 100 91 86 87 112
119 122 98 78 98 113 118 126 131 133 137 136 136 136 136 136
134 136 136 131 129 135 135 135 134 133 125 110 103 85 79 40
38 33 29 26 23 21 17 15 13 14 17 31 39 38 38 31
10 8 8 7 8 8 25 38 39 39 38 37 37 37 36 35
34 35 34 33 33 32 31 30 30 29 28 28 26 26 25 25
25 23 35 41 41 41 41 41 41 42 39 14 4 0 0 0
0 12 37 41 9 0 0 0 0 0 15 41 37 13 0 0
7 24 55 31 55 43 74 62 67 88 104 99 89 89 85 106
119 124 99 82 90 109 116 121 126 131 136 136 137 136 136 137
136 136 135 133 134 135 135 135 135 134 130 111 97 82 70 39
35 15 9 10 11 11 7 5 5 4 5 26 38 38 38 30
11 8 8 9 8 9 24 39 39 39 39 38 37 37 36 35
35 34 34 33 33 32 31 29 29 28 27 27 26 24 25 24
28 27 37 42 42 42 41 42 42 45 42 12 2 0 0 0
5 5 31 38 5 0 0 0 0 0 16 41 35 13 0 0
8 28 57 33 58 44 73 64 67 88 105 101 84 89 88 102
120 124 104 88 83 104 113 119 123 131 136 137 137 137 137 136
136 136 136 136 136 135 135 135 135 135 128 119 106 92 58 40
33 12 5 9 10 10 7 5 6 5 5 23 37 38 38 29
10 8 9 8 8 8 23 38 39 39 39 38 37 37 37 36
36 35 34 33 32 30 30 28 29 28 28 27 26 25 25 25
35 35 37 38 39 39 30 18 24 37 45 15 0 0 0 1
8 3 28 37 4 0 0 0 0 0 17 40 35 11 0 0
8 31 58 35 59 47 70 67 70 88 106 102 80 83 91 97
118 125 110 96 76 99 110 115 121 126 134 137 137 136 137 136
136 137 136 136 135 136 135 135 135 134 126 118 100 87 45 40
33 12 6 9 11 10 8 5 5 4 4 23 37 37 37 29
10 8 8 9 8 8 20 39 39 39 38 37 36 36 35 34
34 34 33 32 31 31 30 29 28 27 27 26 25 24 24 24
35 35 36 36 36 36 23 0 3 26 48 26 5 0 0 2
7 2 24 36 3 0 0 0 0 0 13 41 34 15 0 0
10 32 59 35 56 52 69 70 74 87 106 104 85 79 91 93
115 126 116 100 70 85 102 109 115 123 128 134 138 137 137 136
137 137 136 136 136 135 136 135 135 135 134 128 112 76 40 40
34 13 5 8 11 11 8 4 5 4 5 23 37 38 38 32
13 10 11 11 11 12 17 35 37 37 36 36 36 36 35 35
33 34 33 33 32 31 30 29 27 26 25 24 24 23 23 22
35 34 36 35 35 36 26 0 1 21 48 23 2 0 0 0
6 3 24 37 2 0 0 0 0 0 8 40 35 18 0 0
11 34 62 39 55 52 69 73 77 88 105 102 84 76 93 87
110 125 124 107 78 73 85 98 105 113 120 126 132 137 137 137
136 136 136 136 135 135 135 135 136 135 134 133 124 83 40 39
34 13 5 8 10 10 7 4 4 4 5 22 36 37 37 34
19 16 16 15 16 16 24 32 33 34 37 37 37 35 35 35
33 33 33 33 31 29 28 27 26 25 24 23 23 23 22 21
23 23 25 28 32 35 27 1 0 17 44 14 0 0 0 0
0 0 23 37 3 0 0 0 0 0 6 39 35 14 0 0
18 37 64 42 50 52 64 74 76 86 105 101 87 73 93 85
106 123 131 118 92 69 87 81 88 98 107 115 122 129 134 136
136 137 136 136 136 135 135 135 135 135 135 134 131 101 42 38
33 14 5 6 8 7 6 4 4 4 4 21 37 38 38 33
15 11 11 8 2 1 6 8 5 8 35 36 37 36 36 35
34 32 32 32 30 28 27 25 25 24 23 22 22 21 21 21
0 1 1 17 32 34 29 2 0 13 39 11 0 0 0 0
1 0 20 40 5 0 0 0 0 0 4 38 36 17 3 5
23 43 63 42 50 55 62 77 75 85 106 95 86 70 92 88
98 121 136 132 112 74 100 92 81 77 85 95 103 112 121 128
131 135 135 135 136 135 135 135 135 135 135 134 130 105 47 39
34 14 4 5 4 3 4 4 5 4 4 19 37 38 38 34
14 9 9 5 0 2 9 25 14 2 33 37 36 36 35 35
33 32 31 30 30 27 27 26 25 23 23 22 21 21 20 19
0 0 0 15 36 34 30 4 0 10 37 17 3 2 2 4
15 11 22 43 21 12 11 15 13 13 18 41 38 32 31 32
39 51 61 44 48 62 62 84 76 86 110 96 90 69 89 88
93 118 136 137 127 89 104 107 100 86 75 73 76 86 99 109
116 124 129 131 134 134 135 135 135 135 134 132 120 98 47 38
34 14 4 4 1 0 5 4 4 4 3 19 36 38 38 34
15 7 9 6 0 0 2 7 2 1 31 36 35 35 35 35
34 32 31 30 29 28 27 25 24 24 22 21 21 20 20 20
0 0 0 14 36 33 31 7 0 4 36 36 34 29 29 36
44 41 41 44 48 47 43 45 46 47 47 50 39 35 43 45
46 56 59 46 49 66 64 84 74 86 114 95 90 76 88 86
92 116 137 136 130 102 100 113 113 108 98 86 74 67 68 76
85 97 106 111 116 121 124 128 130 130 125 116 105 82 41 38
33 14 5 4 3 5 9 4 5 5 3 17 35 37 38 34
15 7 8 5 0 0 0 0 0 1 30 36 34 32 34 33
32 31 31 29 29 27 25 25 24 22 22 20 21 20 20 19
0 0 0 10 36 34 31 8 0 1 34 43 43 38 40 48
52 48 42 38 49 53 51 49 50 53 53 53 43 33 39 43
47 61 55 48 47 71 61 83 76 85 113 92 89 82 83 87
88 114 137 136 132 113 97 116 117 117 114 108 99 92 83 77
72 70 74 79 81 84 87 95 99 102 96 89 77 53 39 38
32 16 5 4 2 1 5 4 5 4 2 16 35 37 38 34
15 7 7 3 0 0 0 0 0 0 26 19 11 10 27 34
32 31 30 29 28 26 25 24 23 22 21 21 20 19 19 19
0 0 0 8 36 34 31 10 0 1 33 43 38 34 39 47
52 48 41 36 39 42 43 42 41 42 41 41 39 31 32 37
43 59 52 48 47 71 63 86 79 85 115 93 80 88 77 89
88 111 136 137 135 122 99 117 122 121 119 117 110 105 102 95
88 81 76 74 71 67 61 56 53 52 52 45 48 43 40 37
32 17 5 4 0 0 3 5 6 6 3 16 35 37 38 34
15 7 7 1 18 23 1 0 0 0 11 22 29 19 10 33
32 30 29 28 27 25 25 23 23 21 21 21 20 19 20 19
0 0 0 6 35 34 30 12 0 0 30 38 29 31 32 38
50 49 44 38 30 28 28 29 29 29 29 30 34 32 35 39
43 59 56 52 48 70 63 90 83 79 115 99 71 98 76 92
86 107 135 137 137 132 107 117 128 126 125 122 117 109 103 94
84 75 69 64 58 52 49 43 35 26 31 32 43 42 39 36
32 17 6 5 2 1 4 4 5 6 2 13 34 36 37 34
15 6 7 6 33 50 13 0 0 8 30 34 34 32 9 28
31 30 29 29 27 25 24 23 23 21 20 20 19 18 19 19
0 0 0 5 33 33 31 16 2 8 33 34 14 17 19 24
32 35 33 38 33 30 31 31 36 37 35 35 38 38 40 41
44 67 57 52 49 69 65 86 83 76 118 102 67 103 73 95
84 103 136 138 137 137 118 122 136 137 137 136 131 122 112 102
89 70 55 48 40 25 15 13 11 13 27 31 42 42 37 35
32 18 5 4 4 3 4 4 5 5 2 13 34 37 38 35
17 6 6 5 14 20 11 0 0 15 36 35 34 33 12 24
31 30 29 28 27 25 24 22 22 21 22 20 20 19 19 19
0 0 0 3 32 33 29 25 23 30 40 32 2 0 0 1
5 10 17 36 36 39 42 39 49 52 40 32 33 35 36 37
44 67 60 52 49 68 66 86 83 74 120 106 64 108 68 97
85 102 135 138 137 137 127 122 137 137 137 137 136 133 121 109
89 65 46 29 7 1 1 10 10 12 26 31 41 43 35 34
34 20 8 5 5 5 3 3 4 4 2 12 33 35 38 34
19 8 10 2 3 1 1 0 0 15 36 35 33 33 14 23
31 30 28 28 27 25 23 22 21 21 21 20 20 19 19 18
0 0 0 1 29 32 29 33 43 45 48 35 1 0 0 0
0 1 12 39 36 42 46 39 48 53 27 5 6 10 15 21
34 71 61 52 52 69 71 78 90 77 121 108 67 108 70 93
86 96 132 137 138 137 131 122 137 137 138 137 136 133 122 108
90 74 52 22 9 7 2 13 13 14 30 33 48 44 34 36
34 26 13 7 4 3 3 2 3 4 2 12 34 36 38 36
30 21 13 5 0 0 0 0 0 10 34 34 34 33 15 26
30 29 28 27 26 25 23 22 22 21 21 21 20 19 19 19
0 0 0 0 26 32 28 33 45 48 50 39 3 0 0 0
0 0 6 42 35 40 41 15 16 29 21 0 0 0 11 12
30 75 59 51 54 68 74 66 94 77 119 107 76 108 75 92
85 92 123 135 138 138 134 123 137 138 137 137 135 130 118 106
99 97 90 52 20 14 7 18 17 20 37 37 54 46 33 37
43 43 36 22 12 4 4 4 3 4 2 11 33 35 37 36
36 16 16 26 4 0 0 0 0 9 35 35 34 30 13 30
31 30 29 28 26 25 23 21 20 20 20 19 19 19 18 19
0 0 0 0 24 32 28 30 39 39 39 30 2 0 0 0
0 0 6 41 34 39 39 5 1 19 21 0 0 3 14 11
28 74 59 53 54 69 73 56 92 78 115 106 85 106 72 85
82 88 118 129 138 138 136 124 135 137 137 136 132 125 116 109
110 117 110 76 33 21 15 23 21 23 39 40 54 45 33 34
36 41 42 34 21 11 8 4 3 5 2 10 32 35 37 38
37 20 28 44 12 0 0 0 0 7 31 31 29 16 18 28
20 17 26 27 25 23 22 20 20 20 20 18 19 19 19 19
0 0 0 0 21 32 27 25 19 18 19 10 0 0 0 0
0 0 7 42 34 40 39 6 1 18 24 0 0 8 7 10
33 72 61 53 56 71 71 51 96 76 108 104 87 104 74 81
80 81 113 127 138 138 137 124 131 137 137 135 128 120 115 116
125 122 118 83 43 30 19 27 27 24 42 38 55 40 30 31
30 30 29 37 40 25 12 10 6 4 2 8 26 28 25 23
19 8 6 10 2 0 0 0 0 0 4 4 3 0 11 18
11 26 23 27 25 23 22 21 21 20 19 19 19 19 18 19
0 0 0 0 19 31 26 24 17 16 19 7 0 0 0 0
0 0 7 41 33 39 39 6 1 16 25 1 3 11 5 10
40 68 61 54 60 71 69 47 95 77 108 102 87 102 74 75
75 73 110 122 138 137 137 130 131 137 137 133 123 118 119 126
133 130 120 80 51 37 24 32 27 26 43 37 54 38 22 27
22 29 29 27 26 32 28 12 3 2 0 0 2 1 0 0
0 0 0 0 0 0 0 0 0 0 1 0 0 0 7 11
77 98 44 25 24 22 21 20 20 19 19 19 18 19 19 20
0 0 0 0 17 30 26 25 19 17 20 7 0 0 0 0
0 0 5 40 34 40 39 6 2 14 25 5 7 6 7 15
48 67 63 50 65 72 72 43 92 77 104 100 89 100 70 66
74 63 104 119 137 137 138 132 132 136 135 126 118 117 126 135
136 134 118 79 54 47 27 39 31 31 44 36 56 39 18 31
25 24 23 22 22 21 27 24 17 7 4 2 3 3 5 4
5 6 6 7 8 9 11 12 14 13 12 4 0 1 16 15
69 71 43 8 7 12 22 21 21 20 19 20 20 20 20 20
0 0 0 0 15 30 26 24 22 21 22 8 0 0 0 0
3 0 2 39 35 41 40 12 3 13 26 12 12 8 13 26
61 61 61 46 72 70 70 44 90 75 96 97 91 96 68 60
69 60 98 112 135 137 137 130 128 136 132 124 119 122 134 137
136 134 118 80 53 53 32 44 35 40 41 37 57 40 21 30
25 25 31 31 24 23 29 24 21 21 21 19 17 17 17 16
16 15 15 14 15 15 16 17 17 16 13 5 0 0 0 0
0 0 0 3 1 10 25 24 24 24 23 22 23 22 22 22
0 0 0 0 14 30 25 24 22 22 22 8 0 2 0 0
8 9 2 38 37 41 41 22 11 12 26 16 16 16 22 35
64 61 61 46 76 72 71 40 84 73 92 96 80 91 70 52
62 61 97 105 130 138 136 125 118 129 126 119 116 127 135 136
136 133 121 80 43 60 38 48 41 44 39 40 55 43 25 26
28 24 29 30 30 32 35 32 32 28 32 28 23 20 18 18
17 16 16 16 17 18 18 18 18 17 14 5 0 0 0 0
0 0 0 4 1 9 20 18 17 15 14 13 12 10 9 8
0 0 0 0 11 28 25 24 23 23 23 12 1 4 0 0
11 19 9 35 39 42 40 22 21 14 26 13 18 20 27 32
66 63 60 46 76 72 71 39 77 67 88 97 70 87 68 51
57 59 96 103 124 135 131 120 111 120 120 115 119 133 137 137
136 135 123 84 32 58 46 50 45 47 40 45 57 42 29 27
31 27 32 35 38 39 40 37 40 38 32 24 21 19 18 19
19 18 18 18 18 19 19 19 18 17 15 6 0 0 0 0
0 0 0 1 21 26 26 25 26 27 27 29 30 31 32 32
0 0 0 0 11 29 24 23 24 24 25 25 20 24 23 25
31 38 36 47 43 43 38 16 26 19 24 18 19 18 23 34
66 66 61 48 67 76 66 39 73 60 86 94 62 86 63 54
55 65 90 102 127 134 126 117 106 113 113 115 126 136 136 136
136 136 124 83 25 54 62 51 56 54 42 48 60 45 32 31
34 24 25 29 27 29 30 29 31 30 23 23 26 22 20 18
18 21 20 20 21 21 21 21 20 18 16 8 0 0 0 0
0 0 0 6 42 42 41 40 40 40 40 39 39 39 40 40
0 0 0 0 9 28 24 23 24 24 24 35 43 45 46 47
51 55 56 58 48 42 37 7 20 21 22 22 15 16 20 44
64 66 61 49 63 80 61 45 68 54 84 91 56 83 59 52
58 73 78 101 127 137 131 120 108 111 115 122 134 136 137 136
136 136 119 79 24 43 71 55 66 62 46 50 63 47 35 33
36 29 25 19 19 22 25 26 27 24 23 26 26 22 23 25
29 27 25 23 22 23 22 22 20 19 18 7 0 0 0 0
0 0 0 9 42 41 41 40 40 39 39 39 39 39 39 39
0 0 0 0 8 27 23 22 23 24 23 34 47 48 48 49
52 55 56 56 52 43 37 5 14 19 19 18 10 10 18 58
64 64 60 52 60 86 53 47 63 48 81 88 50 79 56 52
63 81 66 98 128 137 136 126 115 114 121 133 136 136 137 136
136 135 115 75 27 35 70 60 69 65 49 56 64 47 39 38
37 38 29 23 24 27 31 34 35 25 18 15 25 27 27 27
26 27 26 25 24 22 22 21 21 19 18 7 0 0 0 0
0 0 0 10 41 41 40 39 40 39 39 39 39 39 39 39
0 0 0 0 7 26 22 21 23 24 23 24 33 32 32 32
34 37 38 37 36 37 35 12 15 18 13 8 4 13 21 68
63 60 57 55 64 89 49 56 61 47 79 84 48 78 52 55
74 77 58 97 128 138 137 131 120 119 130 137 136 136 137 136
136 136 110 74 34 28 57 64 71 71 52 62 67 51 44 41
38 34 32 25 24 26 30 30 28 17 12 14 24 29 27 25
28 29 28 24 22 23 23 22 21 20 19 7 0 0 3 6
0 0 0 12 41 40 40 39 39 39 39 39 39 38 39 39
0 0 0 0 7 26 22 21 23 24 24 18 16 16 15 17
20 24 27 28 26 31 30 18 17 14 6 4 7 15 26 72
63 63 57 58 65 89 50 58 61 49 80 81 49 78 49 59
85 63 53 96 131 138 137 130 120 123 134 137 136 137 136 136
136 134 107 73 39 29 41 68 71 77 56 65 69 50 46 50
40 39 30 32 24 24 27 27 23 13 14 16 23 29 28 24
27 28 27 25 20 21 22 22 21 20 20 7 0 0 29 37
4 0 0 16 41 40 40 39 39 39 39 39 39 39 39 39
0 0 0 0 7 25 21 20 23 25 24 21 18 17 17 18
21 25 27 28 26 28 26 3 8 15 2 1 1 7 35 72
64 65 54 60 68 91 45 57 58 50 81 77 55 74 48 67
89 58 48 93 135 138 136 127 120 126 136 137 137 137 137 137
137 132 104 70 44 31 30 69 66 82 61 70 74 51 47 56
47 41 40 31 33 24 24 26 21 12 17 20 25 27 27 26
29 25 17 17 20 20 20 22 22 21 21 7 0 0 14 14
1 0 0 19 42 41 40 40 39 40 39 39 39 39 39 40
0 0 0 0 7 25 22 21 22 24 25 24 23 22 21 21
24 27 29 29 28 21 12 7 11 14 6 3 10 11 11 71
64 65 53 61 71 90 42 57 55 54 82 71 63 66 50 75
89 69 44 87 136 139 135 126 123 129 138 138 138 138 137 138
137 131 101 68 48 34 26 59 66 86 64 74 77 51 51 53
55 46 41 35 32 26 23 23 17 17 19 21 24 27 24 27
30 20 15 17 23 22 22 22 22 22 22 6 0 0 0 0
0 0 0 22 42 40 40 40 40 40 40 40 40 40 40 40
0 0 0 0 10 27 23 21 22 25 25 25 23 23 24 24
26 30 30 26 22 15 20 23 21 22 17 14 36 5 9 71
64 62 54 61 75 86 44 65 52 58 81 67 68 53 55 82
95 77 48 84 136 139 130 125 125 134 139 138 138 138 138 138
138 128 99 67 50 34 27 45 63 85 70 76 81 52 58 49
61 51 45 42 31 32 25 20 15 18 20 20 25 26 29 32
30 18 16 19 23 23 25 21 22 22 21 5 0 0 1 0
0 0 0 25 41 41 40 40 41 40 40 40 40 40 40 40
8 10 11 12 17 22 21 21 23 24 25 24 23 23 23 24
26 27 22 24 22 21 15 10 9 7 1 0 5 2 12 66
63 62 54 61 76 82 45 72 52 59 82 64 74 50 63 85
99 84 54 81 135 138 126 127 131 137 138 139 139 138 138 138
138 123 95 64 52 33 20 34 61 80 69 75 83 59 60 53
57 60 49 44 40 31 26 22 14 19 21 21 25 24 32 33
26 16 14 21 23 21 24 19 21 22 21 5 0 0 0 0
0 0 0 28 41 40 40 40 40 41 40 40 40 39 40 40
14 15 16 16 16 18 19 20 22 23 24 25 24 24 24 24
28 26 23 26 21 23 12 7 9 5 1 0 3 1 11 62
63 58 55 62 79 78 47 78 46 60 80 60 75 48 72 74
92 89 64 78 132 137 126 131 135 138 139 138 138 138 138 138
137 117 90 57 42 29 18 29 54 73 69 74 88 66 65 58
55 65 48 49 45 29 34 21 14 16 23 24 22 26 28 29
22 16 15 18 21 21 25 19 19 22 21 4 0 0 0 0
0 0 0 24 40 40 40 40 40 40 40 39 40 40 39 40
14 14 15 15 16 18 19 20 21 23 24 24 25 24 26 30
29 26 26 25 21 22 12 7 9 6 4 0 2 1 12 55
64 56 55 59 81 77 51 81 46 66 79 63 75 54 76 36
28 54 63 74 127 138 125 133 139 139 139 139 139 139 138 138
131 90 67 39 34 27 21 21 43 58 76 65 92 74 67 58
56 66 54 51 49 43 28 26 17 18 22 25 20 26 23 23
18 14 18 19 21 22 25 21 20 23 21 4 0 0 0 0
0 0 0 12 38 40 40 39 40 40 40 40 39 39 39 39
13 14 14 14 14 16 17 18 21 23 23 23 25 25 25 28
29 28 28 26 20 19 10 9 7 7 8 4 5 3 14 49
65 53 55 58 85 75 59 83 45 70 79 70 71 65 66 30
13 12 19 37 77 106 117 133 139 139 139 138 136 125 104 79
44 38 48 36 32 27 21 20 36 47 78 51 89 84 72 57
54 59 66 50 50 47 30 32 16 22 19 19 22 22 20 20
16 11 20 20 24 23 24 21 21 25 23 4 0 0 0 0
0 0 1 20 26 40 40 39 39 40 39 39 39 39 39 39
4 3 3 5 9 13 14 17 22 22 23 24 23 22 21 27
27 28 28 24 19 11 7 11 9 10 10 6 3 0 16 43
63 54 52 60 85 75 69 86 43 74 80 77 70 79 57 26
9 10 8 12 18 20 32 51 68 71 64 51 39 30 25 22
20 39 42 36 29 27 21 24 40 42 76 53 76 93 81 62
48 58 71 52 53 51 39 30 23 25 20 21 23 22 20 20
19 11 18 16 19 24 24 19 21 24 26 4 0 8 21 6
0 0 2 34 18 35 40 39 39 39 39 39 39 39 39 39
0 0 0 1 7 14 17 17 21 22 22 23 21 23 18 22
26 25 27 25 17 5 7 9 8 6 9 2 1 0 21 41
60 53 53 65 85 76 71 86 45 76 76 83 73 85 57 24
11 10 9 10 10 12 18 19 15 17 18 18 20 19 20 18
16 38 37 37 29 27 20 23 28 38 59 67 64 100 87 69
41 61 66 63 54 52 49 27 27 21 25 23 24 21 22 20
18 10 16 14 21 24 23 19 21 24 26 3 1 86 131 62
0 0 3 37 29 22 39 39 39 38 38 39 39 38 39 38
0 0 0 2 6 13 17 18 19 21 21 24 22 23 21 16
24 23 21 25 25 10 8 8 8 6 9 1 2 2 20 44
59 54 54 65 84 76 75 86 44 73 77 88 85 78 57 27
12 9 9 9 10 13 14 17 15 16 15 15 16 15 14 14
17 40 34 37 26 25 19 43 52 38 43 73 61 100 92 73
54 53 63 73 54 52 53 28 29 18 27 24 23 22 20 17
16 10 16 14 19 22 23 16 19 18 17 0 3 109 137 62
0 0 4 38 38 20 31 38 38 38 38 38 38 38 38 38
0 0 1 4 6 12 17 19 20 21 22 23 22 20 21 12
19 22 18 14 13 16 12 8 9 6 6 1 0 7 22 48
57 56 55 65 82 78 76 83 43 72 75 86 84 71 59 28
13 10 8 10 13 15 15 16 15 16 15 13 13 15 15 15
22 38 32 34 24 24 21 16 31 33 38 78 54 91 99 73
69 45 68 76 55 54 54 35 26 15 22 27 21 19 19 14
13 15 14 13 19 21 23 19 13 11 12 2 0 25 36 8
0 0 6 37 37 26 9 22 38 38 38 38 38 38 38 38
4 5 4 5 8 13 18 21 23 25 22 25 21 20 18 11
15 19 15 12 11 11 9 4 7 5 7 2 1 13 20 50
54 57 59 68 78 79 74 81 44 74 73 88 70 71 62 32
17 9 10 13 18 15 16 15 16 16 17 15 16 16 16 16
29 32 32 30 24 23 20 13 64 33 44 75 59 81 98 74
76 51 67 72 68 56 53 45 21 20 14 19 25 18 17 12
12 16 14 13 17 19 23 23 7 4 5 7 3 0 0 0
0 0 6 30 24 5 6 4 36 37 37 37 37 37 37 37
9 9 8 9 12 14 18 20 25 24 21 24 20 20 16 10
11 17 15 12 11 11 4 5 4 7 6 4 3 11 21 46
51 57 62 72 73 79 76 82 46 75 77 90 58 74 72 38
16 8 11 17 20 18 16 14 16 16 16 15 15 15 13 15
32 27 31 28 26 22 24 7 31 37 43 64 70 72 98 74
77 63 54 71 78 58 57 51 26 26 9 14 20 21 16 11
11 14 13 11 14 19 26 20 5 4 4 8 5 0 0 0
0 0 0 7 13 22 31 5 35 37 37 37 37 37 36 37
10 10 10 10 10 10 10 12 25 22 18 23 21 17 15 12
7 15 12 10 9 9 4 5 2 5 9 4 9 10 22 48
52 57 65 74 68 79 73 86 48 73 77 91 53 75 81 39
20 7 12 17 17 16 17 17 16 14 13 13 14 15 13 14
32 24 32 26 24 22 28 11 22 28 36 44 80 62 96 83
71 69 47 75 83 66 59 55 32 23 9 12 16 22 19 9
11 12 11 10 11 17 21 15 3 5 6 6 2 0 0 0
0 0 0 1 5 14 23 2 28 37 37 36 36 36 37 37
2 3 3 3 4 5 5 8 23 18 14 20 19 15 14 13
5 11 11 8 8 8 3 4 2 3 7 5 13 12 22 47
52 57 66 75 64 81 72 87 49 73 78 97 51 79 86 44
24 11 14 17 16 16 15 15 15 14 12 13 14 14 14 19
30 24 29 26 21 22 26 8 18 25 45 36 86 56 89 93
69 74 47 70 81 76 61 55 38 23 11 11 16 18 20 12
8 12 9 9 12 13 12 15 0 5 7 5 2 0 0 0
0 0 0 0 0 0 1 0 6 26 37 36 36 36 36 36
