P2
128 120
141
9 10 11 9 10 10 11 15 19 22 25 28 28 28 28 28
28 27 27 26 26 26 26 25 26 25 25 25 24 23 24 23
22 23 22 22 22 22 22 22 22 22 21 21 21 20 21 20
20 20 20 19 19 19 20 21 26 25 25 25 19 14 24 25
14 20 21 20 20 19 18 17 17 17 17 16 14 18 17 20
20 20 20 20 20 20 21 21 21 21 21 21 22 21 21 22
21 22 22 22 22 23 22 23 23 23 24 24 24 24 24 23
24 24 24 24 24 24 24 24 25 25 25 25 25 25 22 22
12 10 11 9 10 9 10 6 3 5 13 28 28 28 27 28
28 27 27 27 26 26 26 25 25 25 24 24 25 24 24 24
24 24 23 23 23 22 22 22 21 21 21 21 21 21 20 20
21 20 20 19 19 19 21 21 26 25 25 24 19 14 23 26
15 20 21 20 20 19 18 17 17 17 16 16 14 18 17 20
21 20 20 21 21 21 21 21 21 21 21 21 22 21 22 22
21 22 23 22 23 23 23 23 23 24 24 24 24 24 24 24
24 25 25 25 24 25 24 25 24 22 22 22 23 23 23 24
22 18 14 9 7 8 11 9 6 7 13 28 29 28 28 27
27 26 26 26 27 27 27 26 26 25 25 25 24 24 24 24
23 23 23 23 23 22 22 23 23 22 22 21 21 21 20 20
20 20 19 19 20 20 20 21 26 26 25 25 19 15 24 27
15 20 21 20 20 19 19 18 18 17 17 17 14 19 18 20
21 20 20 20 20 21 21 21 21 21 22 22 23 22 22 22
23 23 23 22 23 23 23 24 24 24 24 24 24 24 24 24
24 24 24 23 22 23 22 23 24 25 25 25 25 24 24 24
30 34 36 31 28 24 17 12 6 8 11 27 29 28 28 28
28 26 29 28 28 27 27 26 25 25 25 25 26 25 24 24
24 24 24 23 23 31 31 28 24 22 22 21 21 21 21 21
21 20 20 20 20 20 21 22 26 26 25 25 19 15 24 27
16 19 22 21 21 20 19 19 18 18 17 17 14 19 18 20
21 20 21 22 22 21 22 21 21 22 22 22 23 22 22 23
23 23 24 24 24 24 24 24 24 24 24 24 23 23 23 24
24 24 24 25 26 25 25 24 25 25 24 24 24 24 24 23
33 36 38 28 39 39 39 34 8 9 13 28 29 28 28 28
27 29 38 35 34 33 30 28 26 25 25 25 24 24 24 24
23 23 23 23 26 36 35 32 30 29 28 23 21 21 21 20
20 20 20 20 20 20 21 22 26 26 26 25 18 15 25 27
17 17 21 21 21 20 19 19 18 18 18 18 14 20 18 21
21 20 21 21 21 21 20 21 21 22 22 22 23 23 22 22
23 22 23 23 23 23 23 23 24 23 22 23 23 23 23 23
24 23 23 23 24 24 24 23 24 24 24 24 24 24 24 23
34 37 38 39 41 41 41 38 9 8 15 29 30 29 29 28
27 29 39 36 36 33 31 31 31 32 27 26 25 25 24 24
23 24 24 24 26 34 33 30 29 30 29 27 21 21 21 21
20 21 21 20 21 21 21 22 26 25 25 25 19 14 24 27
19 15 22 21 21 20 19 19 17 18 18 17 15 19 18 21
21 20 21 21 21 22 22 22 21 22 22 22 23 22 22 22
22 23 23 23 23 23 24 22 23 23 22 23 23 23 23 23
24 24 23 24 25 25 24 23 24 24 23 24 23 23 23 23
34 36 38 39 41 41 42 40 13 9 17 32 31 30 30 29
28 29 39 37 35 33 33 34 36 37 30 32 32 30 26 24
24 23 23 23 25 26 25 27 28 30 30 28 22 20 20 20
21 20 20 20 20 20 21 22 25 26 25 24 17 14 12 24
20 13 21 21 20 21 19 20 18 18 19 18 16 20 18 21
21 21 21 21 21 21 21 21 22 21 21 22 21 22 21 22
22 22 23 23 23 21 22 22 23 23 23 23 23 22 23 23
23 23 23 23 24 24 24 24 24 23 24 23 23 24 24 23
35 34 36 39 40 40 40 39 13 9 18 34 32 30 31 31
32 32 24 17 27 33 34 37 37 37 27 17 24 30 30 31
30 30 28 25 25 18 7 7 9 13 18 24 22 21 21 20
20 20 20 21 20 21 21 21 26 26 26 22 9 13 9 24
21 12 22 21 21 21 20 20 18 18 18 17 15 20 18 21
21 22 22 22 21 21 22 21 22 21 21 21 22 22 22 23
22 22 23 22 24 23 23 23 23 23 23 23 23 23 23 22
23 23 23 23 24 25 24 23 24 23 23 23 23 23 23 23
5 13 20 31 36 37 37 38 14 10 18 34 32 24 24 30
34 37 14 0 0 8 17 20 24 31 24 0 0 1 6 13
16 25 29 29 26 17 4 2 6 3 0 9 24 21 21 21
21 21 20 20 20 20 21 22 26 27 26 24 17 15 22 27
23 12 21 21 21 20 19 21 19 19 19 19 16 20 18 21
21 21 21 21 21 21 21 22 21 21 21 22 21 22 23 22
22 22 23 23 24 22 23 23 22 23 23 23 23 23 23 23
24 23 23 23 23 24 23 23 23 23 24 22 23 23 23 24
0 0 2 0 3 5 8 37 14 10 14 29 32 33 32 31
37 40 16 0 0 2 6 8 6 17 22 0 0 0 0 0
0 0 3 9 26 17 2 1 0 3 0 9 25 21 21 21
21 21 20 21 21 21 22 22 27 26 26 25 19 15 24 27
24 11 21 22 21 19 20 21 19 19 19 18 15 20 16 20
21 21 22 22 23 22 22 23 22 22 22 22 22 22 21 22
22 22 23 23 24 23 24 23 23 23 24 23 23 23 23 23
24 23 24 23 23 24 24 24 23 23 24 24 24 23 23 23
0 0 0 0 0 0 0 34 13 11 5 0 4 11 19 29
35 39 17 0 0 0 2 5 5 16 24 0 0 0 0 0
0 0 0 0 26 14 0 0 0 1 0 9 26 22 21 21
21 21 21 20 21 21 21 22 27 27 26 26 20 16 25 28
25 12 21 22 21 20 20 21 19 19 19 18 17 20 18 22
23 22 22 21 23 22 22 23 22 22 22 22 23 23 23 23
23 23 23 22 24 23 23 22 22 23 23 23 24 23 23 24
23 23 23 23 24 24 24 22 23 23 23 23 23 24 24 23
0 0 2 0 0 0 0 35 13 9 4 0 0 0 0 0
2 9 16 0 0 0 0 0 1 12 23 0 0 0 0 0
0 0 0 0 26 9 0 0 0 0 0 10 26 22 21 21
21 22 21 21 21 22 23 23 27 26 26 26 20 16 25 28
26 14 20 22 22 21 21 21 19 20 19 19 16 20 18 22
22 22 23 22 24 23 23 23 23 22 22 22 22 22 22 23
22 22 23 23 25 24 24 24 24 23 23 24 24 23 23 22
23 23 23 23 23 24 24 23 23 23 24 23 24 24 23 23
0 0 11 4 0 0 0 36 13 10 4 0 0 0 0 0
0 0 13 0 0 0 0 0 0 14 22 0 0 0 0 3
1 0 0 0 26 8 0 0 0 0 0 10 28 22 22 22
21 21 21 21 21 21 22 23 28 27 27 27 21 18 26 28
26 15 17 23 22 21 21 21 19 20 19 19 17 21 18 22
23 22 23 23 23 22 22 22 22 22 22 23 22 23 23 23
23 23 24 24 24 23 24 23 23 23 24 24 24 23 24 24
24 23 24 24 24 24 24 24 23 23 23 24 24 24 25 25
0 0 2 16 0 0 0 35 12 10 4 0 0 0 0 0
0 0 11 0 0 0 0 0 0 18 25 0 0 0 0 5
5 1 0 0 26 7 0 0 0 0 0 8 28 22 21 21
21 21 21 21 21 22 23 23 27 27 27 26 20 17 25 28
25 18 15 23 22 22 21 21 19 20 20 19 17 20 18 22
24 23 23 22 23 23 23 22 22 22 23 22 23 22 22 23
23 23 23 24 24 22 24 24 24 24 24 24 24 24 23 24
24 23 24 24 25 23 23 24 24 24 24 24 24 24 23 24
0 0 0 1 0 0 1 35 11 10 4 0 0 0 3 1
0 0 9 0 0 0 0 0 0 14 27 0 0 0 0 7
7 6 4 0 24 8 0 0 0 0 0 6 30 21 22 22
22 21 21 21 22 21 22 22 27 27 28 27 21 18 25 28
27 19 13 23 23 22 21 20 19 20 20 19 17 20 19 23
23 23 23 23 23 22 22 22 23 23 22 23 22 23 24 23
23 24 24 24 24 23 24 24 24 24 24 24 24 24 24 23
24 24 24 24 23 25 25 25 25 25 25 25 25 24 24 25
0 0 0 0 0 0 1 35 10 10 4 0 2 0 6 2
0 0 8 0 0 0 0 0 0 16 28 0 0 0 0 7
7 7 6 0 24 8 0 0 0 0 0 5 28 22 22 21
21 20 21 22 21 22 22 23 28 28 28 27 20 16 25 27
27 20 13 22 22 22 21 21 20 20 20 20 17 21 18 22
23 23 23 22 23 23 23 22 23 23 23 22 23 23 23 23
23 24 24 24 25 24 24 24 24 24 24 24 24 24 24 24
23 24 24 23 25 25 25 24 24 24 25 24 23 24 25 25
0 3 0 0 0 0 2 36 11 11 5 2 5 0 1 0
0 0 8 0 0 0 0 0 2 15 29 0 0 0 0 2
6 7 5 0 23 18 6 2 0 0 0 4 29 22 22 22
22 21 21 21 21 22 22 22 28 27 28 27 20 17 26 28
27 22 12 21 23 22 21 20 19 20 20 20 18 20 19 23
23 23 23 22 24 23 22 22 22 23 23 23 24 24 24 24
24 24 25 23 24 24 23 23 24 24 24 24 24 24 24 24
24 25 25 25 25 25 24 24 24 24 24 23 23 24 25 25
7 9 11 7 4 2 6 36 11 11 4 2 0 0 0 0
0 0 12 0 0 0 0 0 6 22 34 11 6 2 0 0
0 3 4 0 22 33 32 28 25 21 20 21 29 21 21 23
24 21 21 22 23 23 24 24 29 29 28 26 21 17 26 27
27 22 13 21 23 22 21 21 21 21 21 20 18 21 18 23
23 23 23 23 23 23 23 23 24 23 23 24 24 24 24 24
24 24 24 24 24 24 24 24 24 24 25 25 25 24 24 24
24 24 24 24 24 24 24 24 25 24 24 25 24 24 26 25
21 28 31 35 35 32 31 30 11 10 4 0 0 0 0 0
0 1 33 30 20 16 14 7 1 15 42 26 28 29 27 20
14 9 5 2 23 33 31 30 29 31 35 36 30 21 23 24
24 23 24 30 30 29 28 29 31 31 31 25 22 17 26 28
27 23 15 19 23 22 22 21 20 20 20 20 18 21 18 24
24 23 23 23 23 24 24 23 23 23 23 24 24 23 24 24
24 24 24 24 24 24 24 24 24 25 24 24 25 24 24 25
25 24 24 24 24 25 25 24 25 24 24 24 24 24 25 24
22 31 38 42 40 40 41 32 10 11 4 0 0 0 0 0
0 2 39 42 30 35 37 39 36 40 39 9 9 10 11 13
16 19 24 30 36 27 27 29 30 34 36 37 31 23 25 27
26 24 22 19 23 24 23 26 31 33 41 32 24 20 25 28
26 23 16 17 23 22 22 21 20 20 21 20 19 21 19 24
23 23 23 23 23 23 24 24 24 25 24 24 25 24 24 24
24 24 24 24 24 24 25 25 25 25 26 26 26 25 25 25
24 24 24 25 24 24 24 23 24 24 23 22 24 27 26 23
25 33 39 40 39 44 42 33 10 11 8 1 0 0 0 0
0 1 41 35 33 39 40 44 40 33 29 9 9 9 8 8
7 6 5 5 6 7 11 15 20 25 23 23 25 25 29 31
28 23 22 17 14 15 15 13 19 24 26 28 28 37 37 34
31 25 19 16 23 22 22 21 21 20 20 20 19 21 20 24
24 24 24 24 24 24 25 24 25 25 23 24 25 25 24 25
24 25 25 25 25 24 25 25 25 25 25 25 26 24 24 23
22 22 22 23 24 24 24 23 23 22 20 19 17 14 12 9
8 15 22 24 29 32 37 33 11 12 21 34 31 24 15 9
4 5 36 26 34 39 41 44 43 35 28 11 10 9 7 6
5 5 4 3 3 3 4 4 9 23 21 13 26 33 35 28
24 19 15 14 11 11 14 14 19 21 22 24 31 33 30 36
49 42 25 14 24 23 23 22 21 21 21 21 20 21 20 24
25 24 24 23 24 24 24 24 24 24 24 23 25 23 23 24
24 25 25 25 25 24 25 25 25 25 26 25 25 25 25 25
25 20 20 18 16 13 11 10 8 8 7 6 7 7 7 7
0 0 0 0 0 0 8 33 11 12 22 39 42 41 39 39
38 38 37 20 30 37 39 41 41 36 31 14 10 9 6 4
5 4 5 5 5 5 6 6 12 20 11 15 24 25 28 28
27 21 17 18 16 16 12 12 17 22 26 29 26 31 39 38
37 51 54 41 25 22 22 22 21 20 20 20 19 21 20 24
25 24 24 24 24 24 24 24 24 23 23 22 24 24 24 23
25 25 26 26 26 26 26 25 23 22 19 18 16 13 12 16
24 9 5 6 7 7 8 8 10 10 11 10 11 11 12 12
0 0 0 0 0 0 6 33 11 11 22 40 42 41 40 40
40 42 32 1 2 7 11 17 22 22 31 15 9 7 2 0
0 1 5 7 7 5 8 8 13 19 17 21 27 35 31 27
21 17 18 21 22 18 18 17 19 21 23 32 38 35 32 36
41 38 47 55 50 25 22 21 20 20 21 20 19 21 20 24
24 23 23 23 23 22 23 22 22 23 23 24 24 25 25 24
24 23 22 19 17 15 13 10 9 8 8 8 8 9 9 12
22 6 7 10 12 12 13 14 14 15 15 16 16 17 18 17
0 0 0 0 9 8 11 30 13 10 18 34 37 37 39 40
42 43 28 0 0 0 0 0 5 10 31 14 8 5 0 0
0 0 2 4 3 1 4 5 8 24 27 24 29 31 30 30
22 22 21 18 15 14 14 17 19 21 26 30 32 40 41 41
38 41 45 47 55 49 26 19 19 19 19 19 18 20 19 22
22 21 21 20 19 21 20 13 18 23 21 19 18 16 14 12
11 10 10 9 10 9 10 11 12 12 12 12 13 14 14 13
20 7 12 15 17 18 18 19 19 19 19 20 20 19 19 20
0 0 0 2 23 22 19 24 23 19 21 24 27 27 29 29
31 38 23 0 0 0 0 0 0 7 34 13 6 5 1 0
0 0 0 0 0 0 2 6 21 32 31 33 36 33 31 28
26 25 20 23 19 19 20 19 20 23 28 29 38 40 46 47
52 48 46 45 44 45 44 19 14 16 17 19 19 18 19 20
20 20 20 20 18 17 15 8 9 11 10 9 10 10 11 12
12 13 13 13 14 15 15 16 16 18 18 18 19 19 19 18
24 10 15 20 20 20 21 20 22 21 21 21 22 21 22 22
0 0 0 0 22 23 19 20 18 13 17 14 15 21 27 24
28 38 23 0 0 0 0 0 0 1 35 10 5 1 0 0
0 4 2 0 2 0 1 15 33 34 25 32 33 31 31 27
23 22 24 17 16 18 21 20 24 26 30 34 30 40 46 46
45 50 54 45 44 46 44 35 11 9 9 10 10 14 16 16
13 12 11 10 11 11 10 10 10 13 13 14 15 15 16 17
17 18 20 20 20 19 20 20 21 21 21 21 22 21 20 13
9 6 18 22 22 22 23 23 23 24 24 23 23 23 22 22
0 0 0 0 3 5 9 19 16 15 17 20 21 23 26 25
30 37 21 0 0 0 0 0 0 3 36 3 0 0 0 0
0 5 6 5 9 6 10 24 40 31 31 34 39 37 31 27
25 23 18 19 21 22 22 23 30 33 34 36 40 40 44 55
48 42 46 52 47 46 46 34 22 11 10 9 7 9 7 8
10 12 12 12 14 14 15 15 16 18 19 20 20 20 22 21
21 21 22 21 22 21 22 22 22 22 22 22 23 23 22 7
0 0 18 22 24 24 23 22 22 22 23 23 24 23 23 23
0 0 0 0 0 0 2 18 11 13 11 4 9 14 19 24
30 33 20 0 0 0 0 0 0 3 36 3 0 0 0 0
0 4 12 8 6 9 17 41 45 31 33 41 39 35 41 36
34 33 29 23 26 28 30 32 33 38 43 45 41 46 45 53
54 51 51 45 53 44 48 40 25 16 12 11 9 10 9 12
15 16 16 17 18 19 20 20 20 21 22 21 21 21 22 22
23 22 23 23 24 24 24 24 24 24 22 16 13 11 19 5
3 0 15 23 24 25 23 24 24 23 24 23 24 23 23 23
0 0 2 0 0 0 3 25 19 18 12 0 0 0 0 0
0 2 15 0 0 0 0 0 0 6 35 2 0 0 0 0
4 8 10 6 4 15 31 59 45 39 49 58 59 62 61 59
62 56 49 44 37 38 36 35 42 45 45 51 54 46 51 54
57 57 54 41 43 47 35 43 29 19 17 16 13 13 12 15
19 19 19 21 21 20 20 22 22 23 23 23 23 23 24 25
24 24 24 24 24 24 24 23 24 24 8 0 0 2 16 4
0 0 15 23 24 24 23 23 23 23 23 23 23 24 24 24
0 0 2 3 0 0 4 31 21 18 13 0 0 0 0 0
0 0 14 0 0 0 2 0 0 4 32 0 0 0 0 0
8 11 12 2 3 22 56 69 66 72 86 96 97 96 98 100
101 104 103 99 88 68 48 43 46 54 53 51 57 53 45 57
59 56 51 46 35 46 45 25 28 19 19 18 16 15 13 17
20 21 21 21 22 22 21 23 24 23 23 23 24 23 23 23
23 24 24 24 25 24 24 24 25 25 21 17 20 22 21 7
0 0 15 22 23 24 23 23 23 23 23 23 23 23 23 23
0 0 2 6 0 0 3 33 23 19 13 0 0 0 0 0
0 0 13 0 0 4 11 3 0 5 32 0 0 0 0 0
0 2 10 0 11 47 78 87 93 100 104 111 113 116 120 120
120 120 120 119 118 115 97 69 46 58 70 63 55 59 51 50
55 58 55 45 35 25 37 30 18 16 16 19 18 16 16 20
22 22 22 22 22 22 23 23 23 23 23 24 23 24 24 24
24 23 24 25 25 24 24 23 24 24 24 23 21 21 20 9
0 0 15 22 23 24 23 24 23 23 24 23 24 23 23 23
10 6 6 12 7 2 2 34 19 16 12 0 0 0 9 0
0 0 13 0 0 11 12 5 0 5 30 0 0 0 0 0
0 0 2 6 39 72 85 95 100 105 107 109 116 119 121 122
122 122 122 121 121 121 117 110 90 59 62 76 60 55 52 53
48 48 46 45 36 31 17 25 22 15 14 17 17 16 18 21
22 22 23 22 23 22 23 24 24 24 24 23 23 24 24 23
24 24 24 25 25 24 25 25 25 24 24 23 22 21 20 13
0 0 16 22 23 24 23 24 24 23 23 23 23 23 22 22
33 30 28 34 34 31 30 37 20 15 12 0 0 9 18 4
1 0 19 8 7 14 12 11 2 6 30 0 0 0 0 0
0 0 1 23 66 78 87 95 101 103 107 110 117 120 121 122
122 122 121 122 122 121 121 120 114 104 72 60 65 60 54 45
48 39 37 36 28 23 22 15 18 13 13 15 18 17 19 22
23 23 23 22 22 22 23 23 23 24 24 24 24 24 24 24
24 24 24 25 25 25 25 24 24 24 24 23 23 21 19 14
4 6 18 23 24 24 23 23 23 22 22 23 23 23 23 23
2 5 12 17 27 35 40 38 24 14 12 0 0 5 10 1
0 0 28 33 34 37 34 33 34 35 31 0 0 0 0 0
0 0 5 47 73 79 88 95 99 103 109 112 118 121 122 122
122 122 122 122 122 122 122 122 121 118 113 87 61 54 50 46
36 35 30 28 25 19 17 13 15 12 10 14 17 17 20 22
23 23 23 22 23 23 23 23 24 23 24 23 23 24 24 24
23 24 24 24 25 24 24 24 25 24 24 24 23 21 19 15
14 14 21 23 24 24 24 24 24 23 22 23 23 23 22 23
0 0 0 5 0 20 39 37 21 14 14 0 0 0 0 0
0 0 27 33 35 37 35 36 41 44 36 11 8 11 4 2
1 1 9 61 75 79 87 95 100 102 109 113 119 122 122 123
123 122 122 122 122 122 122 122 122 122 119 113 90 63 44 40
40 32 25 27 20 18 13 12 10 8 9 13 17 18 21 23
24 23 23 23 23 23 23 23 24 23 24 24 23 24 25 24
24 24 25 25 25 25 24 24 24 23 23 23 23 22 19 18
18 20 23 24 24 24 23 24 23 22 23 23 23 23 23 23
0 0 10 29 8 28 38 33 19 16 17 13 1 0 0 0
0 0 26 34 35 36 35 37 44 45 41 26 26 25 23 21
16 2 20 68 76 80 89 98 101 104 111 116 121 123 122 122
123 122 123 122 122 122 122 123 122 122 122 121 113 89 46 33
32 30 22 19 21 15 12 12 10 8 6 10 17 17 21 22
23 23 22 23 23 23 24 24 24 24 23 24 23 24 24 24
23 24 24 24 24 24 24 24 24 24 24 23 22 22 20 19
19 23 23 23 24 24 24 23 24 24 24 24 24 24 24 24
0 0 1 24 21 32 37 28 17 17 18 9 0 0 0 0
0 0 26 27 29 30 30 31 30 28 30 27 29 29 28 25
19 1 29 72 78 83 92 100 103 106 111 120 123 123 123 123
123 122 122 122 122 123 122 122 122 122 122 122 120 109 76 32
26 23 25 18 15 13 10 9 6 7 4 6 16 18 21 23
24 23 24 23 24 24 24 23 24 23 23 24 24 24 24 25
25 24 25 24 24 25 24 24 24 25 23 22 22 23 21 21
22 24 25 25 24 24 24 24 24 24 23 23 23 23 22 23
0 0 0 2 9 32 38 25 18 21 20 2 0 0 0 0
0 0 28 29 28 29 29 29 27 24 25 29 29 31 31 28
22 4 39 74 77 85 89 100 105 108 111 121 123 123 123 123
122 122 122 122 123 123 122 122 122 122 122 121 121 116 87 52
22 19 22 21 15 14 10 8 4 6 5 4 10 18 21 22
23 22 22 22 23 24 23 24 24 23 24 24 24 24 24 24
23 23 24 24 24 24 24 25 25 24 23 24 23 22 21 22
22 22 21 21 22 21 23 23 23 23 23 23 23 23 23 23
0 0 0 0 2 30 38 25 19 18 18 21 18 15 12 9
7 5 30 32 28 28 28 28 28 29 31 31 30 33 36 38
28 8 45 77 79 84 91 102 105 110 116 122 124 123 122 123
123 123 122 122 122 122 122 121 122 121 121 122 121 120 102 68
43 15 17 15 17 10 12 7 5 2 5 1 6 16 21 22
23 23 23 23 24 24 23 23 24 24 24 23 24 24 24 24
24 23 24 24 24 24 23 23 23 23 23 22 22 22 21 23
23 23 23 23 24 23 24 23 23 22 22 22 22 22 22 23
0 0 0 0 0 29 40 24 19 18 20 37 38 40 36 38
42 41 42 34 31 31 31 31 32 34 37 35 31 34 38 41
27 9 49 76 79 86 96 101 107 109 114 121 123 123 122 123
123 122 122 122 122 122 122 122 122 122 122 121 121 121 114 81
50 32 10 9 10 10 7 9 5 3 1 1 5 13 20 21
22 22 22 23 22 21 22 23 23 23 23 23 23 23 24 23
22 23 23 23 22 22 23 24 24 24 23 23 23 23 22 22
24 23 22 22 23 23 23 23 23 23 23 23 23 22 22 22
0 0 0 0 1 31 41 25 18 19 21 44 47 46 46 45
45 44 45 36 30 25 28 26 28 34 39 37 32 34 34 30
30 15 55 78 84 87 95 103 108 109 113 121 123 123 123 123
123 123 122 123 122 122 122 122 122 121 122 121 121 121 116 103
61 35 27 10 8 7 6 7 5 2 1 0 2 14 20 21
22 22 23 23 23 23 23 23 23 24 24 24 24 23 23 23
23 23 23 23 24 24 24 24 23 23 23 23 22 23 23 23
24 23 23 23 24 24 24 23 23 23 23 22 22 22 22 22
0 0 0 0 0 30 40 23 15 20 18 31 35 36 38 39
40 41 44 29 4 8 3 4 6 9 21 38 32 25 8 11
15 14 62 79 86 89 95 100 106 109 114 120 123 123 123 123
123 122 123 122 122 122 122 122 122 122 122 122 121 121 121 112
85 43 20 18 7 8 8 4 4 4 1 1 1 13 19 22
23 22 22 22 23 23 23 23 24 24 24 24 24 23 23 23
22 22 22 23 23 23 23 24 23 23 23 22 22 23 23 23
23 23 23 22 22 22 22 22 22 23 23 22 22 22 22 21
0 0 0 0 0 26 35 20 15 20 16 21 23 22 22 22
22 22 24 20 0 0 0 0 0 0 8 37 30 8 0 0
0 8 67 83 89 90 95 101 105 109 113 119 122 123 119 108
97 99 118 106 104 94 109 120 110 119 119 118 118 119 119 116
94 58 34 17 14 4 6 5 3 4 3 1 1 11 21 21
23 23 23 23 24 23 24 23 24 23 23 24 23 23 22 22
22 22 22 23 23 23 23 23 22 21 22 22 22 23 23 23
23 23 23 23 23 23 23 23 22 22 23 22 22 21 22 22
0 0 0 0 0 28 39 22 15 19 17 27 30 29 29 27
26 25 27 20 3 0 0 0 0 3 14 36 22 0 0 0
0 7 72 84 92 93 96 103 106 108 114 114 106 79 58 59
69 87 95 74 73 49 40 29 22 6 6 5 5 6 6 4
3 2 3 5 9 7 6 12 9 5 4 3 6 14 22 22
23 23 23 23 23 23 24 24 24 23 24 24 23 23 23 23
23 22 22 23 23 24 23 19 18 17 16 14 13 17 22 23
23 22 23 23 23 23 22 23 23 23 22 22 22 23 23 23
0 0 0 0 0 32 42 23 14 18 18 30 32 33 32 32
32 32 33 22 1 0 0 0 0 3 16 35 14 0 0 0
0 9 75 86 94 95 96 98 103 108 104 83 42 33 40 40
32 39 48 58 67 74 76 36 22 2 0 0 0 2 4 5
5 4 4 1 0 0 3 10 34 45 16 2 4 12 23 23
24 24 24 24 24 24 24 24 22 18 16 14 12 11 9 8
7 11 15 24 24 24 23 7 1 1 0 0 0 7 22 24
24 24 24 24 24 23 24 24 23 23 23 22 22 21 23 22
11 7 6 2 2 33 38 19 14 20 19 31 33 33 33 32
33 33 35 23 0 1 0 0 2 2 7 34 9 0 0 0
2 19 58 62 69 80 91 91 96 100 82 43 29 32 23 22
26 29 46 97 93 24 13 17 16 32 42 34 61 67 66 58
45 26 26 18 11 7 18 89 123 122 107 24 2 15 23 23
24 23 24 24 24 24 24 24 16 0 0 4 4 3 0 0
0 0 5 23 24 23 23 6 0 0 1 0 0 7 25 25
25 25 23 24 24 24 24 23 24 23 23 23 23 22 23 24
36 34 34 32 31 34 33 27 26 27 24 17 18 19 19 15
14 22 37 27 1 0 0 0 2 3 5 34 7 0 0 8
13 14 37 34 42 57 53 65 81 88 56 40 31 9 8 6
7 17 56 134 125 42 13 9 53 36 49 28 21 7 9 16
25 31 26 34 21 14 61 113 101 98 112 87 2 15 23 23
24 24 24 24 25 25 25 25 16 0 0 4 2 3 0 0
0 0 4 22 24 24 23 6 1 1 2 1 1 7 25 25
25 25 25 25 25 24 24 24 24 23 23 23 23 23 22 23
34 34 34 33 33 34 34 33 32 32 33 32 32 30 29 9
0 6 35 32 11 0 0 0 4 3 5 35 7 0 7 17
11 11 17 24 29 38 62 77 60 76 42 23 5 1 0 1
3 14 40 105 77 18 9 12 48 25 59 34 70 87 102 112
115 105 78 50 37 55 86 91 112 109 74 112 21 16 23 24
25 24 25 25 25 25 25 24 16 0 0 5 3 4 0 0
0 0 4 22 24 23 22 4 2 1 2 1 1 7 24 25
26 26 26 25 25 24 24 25 24 25 24 24 24 24 24 24
35 34 35 34 34 34 33 33 33 33 32 32 31 31 31 14
0 4 33 32 5 0 0 0 3 3 5 33 6 0 17 17
13 12 20 34 37 41 64 110 58 66 28 0 0 0 0 3
3 11 26 39 29 15 5 7 37 55 59 106 125 124 124 123
122 115 99 82 86 96 98 91 108 124 84 108 40 15 23 24
24 25 24 25 25 26 25 25 16 0 0 5 4 4 0 0
0 0 4 23 24 24 24 6 1 1 2 1 1 3 25 26
25 24 25 24 25 24 23 23 23 22 23 22 22 22 22 23
33 32 32 32 32 32 32 32 32 32 31 32 31 32 31 16
0 2 28 26 0 0 0 0 0 0 4 33 6 2 4 1
0 0 0 4 18 27 40 67 52 55 7 0 0 0 0 1
4 15 16 17 15 8 3 2 27 50 83 126 125 123 124 123
122 121 115 104 105 109 121 114 116 124 99 102 44 16 23 24
25 24 25 25 25 25 25 24 17 0 0 4 4 3 0 0
0 0 4 23 24 24 23 10 5 5 5 6 6 6 21 22
24 23 24 24 24 23 23 23 25 24 25 25 24 24 25 24
8 8 8 8 8 8 8 8 9 9 9 11 21 27 30 20
0 1 24 24 0 0 0 0 0 0 0 4 0 0 0 0
0 0 0 0 1 20 14 14 39 25 4 0 0 0 0 0
4 7 11 9 11 4 6 3 16 47 123 125 125 124 124 123
124 123 118 110 117 120 102 101 120 124 115 107 31 16 23 23
25 24 24 25 25 24 25 23 17 1 0 3 1 2 0 0
0 0 3 22 25 25 25 13 7 7 6 6 7 7 18 24
25 25 25 24 24 23 24 23 24 25 25 24 23 23 23 23
0 0 0 0 0 0 0 0 0 0 0 0 22 32 30 22
0 0 21 24 3 2 1 1 4 8 0 0 0 0 0 0
0 0 0 0 0 0 11 3 21 13 24 0 0 0 0 0
0 0 0 2 2 1 6 1 13 76 124 125 125 123 124 124
124 124 119 114 120 122 107 64 78 116 121 110 13 18 23 23
24 24 24 24 25 24 25 24 17 0 0 0 0 0 0 0
0 0 3 22 24 25 24 10 2 2 2 2 1 5 20 25
25 25 24 25 24 24 24 24 22 23 24 24 23 23 24 24
0 0 0 0 0 0 0 0 0 0 0 0 22 34 29 25
0 0 16 32 31 29 24 26 28 28 13 0 0 0 0 0
0 0 0 0 0 0 1 0 10 13 34 5 0 0 0 0
0 0 0 0 0 0 6 2 7 70 121 122 124 124 123 121
124 125 121 113 116 118 117 115 73 104 123 91 12 19 23 21
24 24 25 24 25 26 25 24 16 1 0 0 0 0 0 0
0 0 3 22 24 25 24 10 2 2 2 0 0 5 7 9
13 25 24 24 24 23 24 24 24 24 23 23 23 23 23 23
0 0 0 0 0 0 0 0 0 0 0 0 20 35 31 26
1 0 13 34 35 30 29 30 29 24 20 0 0 0 0 0
0 0 0 0 0 0 0 1 21 36 22 17 0 0 0 0
0 0 0 0 0 0 4 1 3 58 123 124 125 125 124 121
123 124 123 118 119 119 114 123 91 99 124 65 14 19 23 22
24 23 24 24 24 25 25 22 16 0 0 0 1 5 1 0
1 0 3 22 24 26 23 11 1 2 2 2 0 0 12 9
3 25 25 25 24 25 25 24 23 23 23 23 23 22 23 23
0 0 0 0 0 0 0 0 0 0 0 0 17 36 30 26
1 0 11 35 31 26 27 30 31 27 23 5 0 0 0 0
0 0 0 0 0 0 0 9 86 113 44 27 2 0 0 0
0 0 0 0 0 0 0 1 8 55 124 125 124 124 124 120
122 123 124 122 122 124 120 117 90 113 123 36 16 18 22 21
23 23 24 25 25 26 24 22 16 1 0 0 0 0 0 0
1 0 3 22 24 25 23 10 1 2 3 4 0 1 9 7
3 23 24 24 23 24 24 23 23 23 23 23 24 24 23 22
0 0 0 0 0 0 0 0 0 0 0 0 15 37 30 27
4 0 8 33 18 22 22 22 27 27 24 10 0 0 0 0
0 0 0 0 0 0 0 39 104 118 100 28 10 7 0 0
0 0 0 0 0 0 0 3 8 63 125 125 124 124 123 117
120 124 124 123 121 122 120 108 105 124 117 17 18 19 22 20
22 22 24 24 24 25 23 21 16 1 0 0 0 0 0 0
1 0 2 22 23 25 23 10 0 1 1 4 4 6 2 1
2 24 24 24 24 23 24 23 23 22 22 23 23 22 22 23
0 0 0 0 0 0 0 0 0 0 0 0 13 37 30 27
6 4 16 34 9 7 9 11 13 14 13 11 0 0 0 0
0 0 0 0 0 0 9 81 110 117 118 55 20 7 0 0
0 0 0 0 1 1 0 4 8 88 126 124 125 125 124 119
121 123 123 123 123 109 100 124 124 124 97 17 24 21 21 20
21 21 22 24 24 25 22 21 17 1 0 0 0 0 0 0
1 0 2 21 23 25 23 8 0 2 1 2 3 6 3 0
2 23 22 18 21 23 24 22 23 23 23 23 23 22 22 22
0 0 0 0 0 0 0 0 0 0 0 0 11 37 30 28
21 26 30 35 5 0 0 0 0 0 2 14 0 0 0 0
0 0 0 0 0 0 49 101 117 124 124 102 31 16 6 0
0 0 0 0 0 0 0 3 28 121 126 124 125 124 124 120
121 123 124 123 123 119 121 124 124 122 69 29 30 29 28 23
18 21 23 24 24 24 22 20 16 1 0 0 0 0 0 0
0 0 2 21 23 24 22 10 0 1 0 13 12 0 0 0
1 9 4 7 2 15 25 22 22 22 22 23 22 22 22 22
0 0 0 0 0 0 0 0 0 0 0 0 9 36 30 26
33 37 39 38 6 0 0 0 0 0 1 23 4 0 0 0
0 0 0 0 0 3 78 111 125 126 126 123 95 26 11 0
0 0 0 0 0 0 0 13 91 125 123 124 124 124 124 122
121 123 123 123 123 123 123 123 124 101 27 32 31 29 28 25
16 20 22 24 24 25 22 21 17 1 0 0 0 0 0 0
0 0 2 21 23 24 23 10 0 1 10 42 42 3 0 0
4 16 22 23 18 3 24 23 23 22 23 23 22 22 23 22
0 0 0 0 0 0 0 0 0 0 0 0 7 36 31 27
33 39 41 40 11 0 0 0 0 0 0 24 12 0 0 0
0 0 0 0 0 3 71 107 121 123 118 124 126 88 24 13
1 0 0 0 1 8 20 80 122 124 125 124 124 124 124 115
122 124 124 123 120 123 123 123 119 42 22 31 29 29 29 26
16 20 22 24 24 25 23 21 17 1 0 0 0 0 0 0
0 0 1 21 23 24 23 16 9 11 12 28 29 5 0 0
16 25 24 23 23 6 19 23 22 23 23 23 23 22 22 22
0 0 0 0 0 0 0 0 0 0 0 0 5 35 30 26
27 27 26 24 5 0 0 0 0 0 0 26 19 0 0 0
0 0 0 0 0 0 53 87 105 87 38 38 107 125 47 36
25 11 13 18 35 64 108 123 124 125 125 124 124 124 124 121
121 123 123 122 118 116 122 120 72 17 33 31 29 29 29 26
15 18 21 23 24 24 23 22 19 2 0 0 0 0 0 0
0 0 1 20 22 25 23 23 24 23 5 5 6 0 0 0
16 23 23 23 23 8 17 22 22 22 22 23 22 22 22 21
0 0 0 0 0 0 0 0 0 0 0 0 4 34 31 26
17 8 9 8 0 0 0 0 0 0 0 26 24 14 0 0
0 0 0 0 0 0 42 54 78 110 120 92 84 104 70 84
86 75 72 88 101 109 114 121 123 124 124 125 124 124 124 124
123 123 123 121 109 83 100 85 40 27 34 32 30 28 29 26
15 17 20 22 23 23 22 21 18 2 0 0 0 0 0 0
0 0 1 19 22 23 24 24 19 13 3 0 0 0 0 0
14 25 24 24 24 8 17 24 23 23 24 23 23 23 23 22
0 0 0 0 0 0 0 0 0 0 0 0 2 32 31 25
18 9 11 9 0 0 0 0 0 0 0 27 22 28 13 0
0 0 0 0 0 1 37 63 67 83 108 122 124 117 120 122
117 97 79 77 82 91 101 109 119 125 125 124 124 124 122 123
123 123 121 118 107 110 101 76 41 45 37 33 31 29 29 26
16 14 19 21 23 23 22 21 18 3 0 0 0 0 0 0
0 0 1 21 23 24 24 24 6 20 20 0 0 0 0 0
13 23 23 22 22 5 22 22 22 23 22 22 22 21 21 21
0 0 0 0 0 0 0 0 0 0 0 0 1 31 31 25
20 12 13 11 0 0 0 0 0 0 0 25 22 30 28 1
0 0 0 0 4 38 71 60 71 86 94 109 122 124 124 124
124 123 114 104 93 87 108 113 115 124 124 124 124 124 120 123
123 123 121 117 109 117 96 61 40 45 37 34 32 28 28 26
18 13 19 20 22 23 22 21 18 6 3 2 0 0 0 0
0 1 6 20 22 23 23 22 13 36 37 4 0 0 0 0
14 23 22 21 14 9 23 22 23 22 22 21 21 21 21 21
0 0 0 0 0 0 0 0 0 0 0 0 1 31 31 24
20 15 15 11 0 0 0 0 2 0 0 24 24 32 34 10
1 8 18 37 63 74 72 64 80 97 96 95 114 122 125 125
125 124 125 122 117 98 98 123 123 123 125 124 124 123 117 123
123 123 119 115 108 114 91 51 47 41 32 37 31 28 28 26
21 10 18 20 21 22 21 20 19 18 16 13 9 5 3 0
0 1 3 6 6 6 5 3 2 8 4 0 0 0 0 0
2 4 4 6 3 19 7 5 14 23 22 21 22 22 21 21
0 0 0 0 0 0 0 0 0 0 0 0 1 30 30 25
22 16 17 12 0 3 0 0 3 9 1 22 26 32 34 15
9 15 59 68 74 68 67 70 86 97 94 100 111 118 122 125
126 125 125 125 118 111 106 118 119 120 124 124 124 124 124 124
123 122 119 113 109 114 85 43 53 34 31 33 32 30 29 26
23 10 17 19 21 22 22 20 19 19 18 13 10 0 0 0
0 0 0 0 0 0 0 0 0 0 0 0 0 0 0 0
0 0 0 0 0 7 4 30 11 22 22 22 22 21 21 21
0 0 0 0 0 0 0 0 0 0 0 0 0 29 30 24
21 17 17 16 1 4 2 1 6 13 8 22 29 33 33 11
18 7 45 64 68 62 65 73 77 79 94 99 102 105 106 107
112 114 110 96 95 119 115 122 124 121 126 124 124 124 124 123
123 120 118 109 110 113 81 36 56 38 24 30 39 29 28 25
23 10 16 18 20 21 21 20 19 19 18 16 13 1 0 8
11 13 14 15 16 17 17 17 17 17 18 18 19 20 21 20
17 7 0 1 18 3 9 64 31 22 22 22 23 22 23 24
0 0 0 0 0 0 0 0 0 0 0 0 0 28 31 25
22 18 18 22 24 28 29 29 30 32 32 38 35 33 31 5
20 10 30 59 67 65 65 68 63 57 73 84 75 79 81 77
80 96 99 120 123 124 123 124 124 124 124 124 124 124 124 124
121 119 116 110 114 111 76 30 47 43 21 31 39 28 28 25
23 11 14 18 20 20 20 20 19 13 10 8 10 1 0 12
15 18 20 21 21 20 21 20 20 20 20 21 22 22 23 22
18 8 0 0 3 1 0 10 6 2 2 7 33 33 32 31
0 0 0 0 0 0 0 0 0 0 0 0 0 28 31 24
22 18 17 24 37 38 39 39 39 40 41 44 42 33 31 1
9 10 24 53 75 72 65 59 56 48 55 74 97 113 98 107
118 120 124 125 125 125 124 125 124 125 124 124 124 124 124 121
120 118 113 110 114 112 80 32 48 44 24 25 42 33 27 25
24 12 11 17 18 19 20 19 18 6 0 0 0 0 0 12
15 19 21 22 22 22 22 22 21 21 23 24 24 25 24 23
20 8 0 0 0 0 0 0 0 0 0 6 40 39 39 37
0 0 0 0 0 0 0 0 0 0 0 0 0 28 31 25
22 19 19 19 39 39 39 38 38 38 38 40 41 33 31 1
2 5 24 35 87 91 82 65 35 54 80 86 90 100 113 117
122 125 125 125 125 125 124 124 124 124 124 124 124 122 123 121
119 115 112 116 120 114 82 34 39 48 28 18 40 36 27 26
23 15 10 16 18 19 19 19 18 6 0 0 0 0 0 11
15 18 21 23 23 24 24 23 23 24 25 25 26 25 25 24
21 9 0 0 0 0 0 0 0 0 0 6 39 38 37 34
0 0 0 0 0 0 0 0 0 0 0 0 0 28 31 24
22 19 18 13 16 15 14 13 13 13 13 15 15 26 30 1
1 4 23 22 73 95 93 80 57 63 82 90 97 108 110 118
125 126 125 125 125 125 124 124 125 124 125 124 123 122 123 119
116 114 115 122 122 112 69 33 36 47 38 18 29 41 29 26
23 18 8 14 16 18 19 18 18 8 1 0 0 0 0 12
15 19 22 23 24 24 24 24 25 25 26 27 27 27 26 24
23 10 0 0 0 0 0 0 0 0 24 32 36 35 34 32
0 0 0 0 0 0 0 0 0 0 0 0 0 27 31 24
22 19 19 14 10 8 8 8 8 8 9 12 12 26 31 2
0 2 24 20 48 89 94 77 67 65 82 84 90 92 105 120
126 126 126 126 126 126 125 125 125 125 124 124 124 121 119 116
116 116 118 121 121 111 64 31 42 46 44 20 26 42 35 26
24 21 7 14 17 18 16 17 17 15 11 0 0 0 0 12
15 18 20 23 24 25 26 25 26 27 28 28 28 27 27 25
24 11 0 0 0 0 0 0 0 1 33 33 33 32 31 29
0 0 0 0 0 0 0 0 0 0 0 0 0 27 31 23
21 19 19 17 13 12 12 11 10 11 11 13 14 28 32 8
11 14 27 19 29 72 88 78 76 63 64 68 78 92 106 120
124 126 126 125 126 125 125 125 125 123 125 124 123 120 116 115
117 118 121 121 122 112 65 32 33 54 54 24 27 34 36 28
24 21 11 18 19 12 9 9 5 7 6 29 2 0 1 13
16 19 21 23 24 24 25 25 27 27 27 28 28 28 27 26
25 11 0 0 0 0 0 0 0 3 31 31 30 30 29 28
0 0 0 0 0 0 0 0 0 0 0 0 0 27 31 24
22 19 19 19 16 16 16 15 15 14 14 15 15 30 34 24
37 39 33 19 25 49 79 81 77 76 73 80 87 98 111 123
121 125 126 126 126 125 125 125 125 125 124 124 122 117 115 116
118 120 122 123 122 114 66 34 27 49 48 33 29 40 35 27
28 25 24 21 22 11 11 8 1 5 3 0 0 0 1 13
15 18 20 22 23 24 25 26 27 27 27 27 27 28 27 26
25 10 0 0 0 0 0 0 0 5 30 28 27 27 26 26
0 0 0 0 0 0 0 0 0 0 0 0 2 31 32 24
22 19 19 18 16 16 16 16 16 16 16 16 14 26 26 20
27 28 25 20 24 28 65 78 75 81 82 87 98 109 123 125
126 126 126 125 125 125 125 125 125 125 125 123 118 117 117 118
121 122 123 124 122 115 68 29 32 46 53 43 27 39 43 31
28 29 24 17 16 9 7 6 1 5 3 28 0 0 2 15
16 17 19 20 22 23 24 25 26 26 27 27 27 27 27 27
26 9 0 0 11 21 3 0 0 6 27 26 26 25 25 25
4 5 7 9 10 12 12 13 15 17 18 19 20 27 26 23
22 19 19 13 9 15 16 16 16 15 15 15 16 20 20 17
17 20 21 22 24 25 39 72 76 80 83 86 100 113 124 125
126 127 126 126 127 126 126 126 126 124 121 120 118 117 118 120
121 123 123 123 123 116 74 28 40 39 55 42 24 40 50 31
26 20 13 8 7 7 6 8 1 4 1 1 0 0 3 14
15 16 18 19 21 22 23 25 26 27 27 27 27 27 27 27
27 9 0 0 17 27 3 0 0 9 26 25 25 24 25 24
15 15 12 14 24 27 26 26 25 25 25 25 24 24 24 24
22 18 17 6 14 8 17 15 15 15 15 15 18 22 22 21
18 21 21 22 23 24 25 54 72 77 82 90 100 110 123 127
126 126 127 127 126 125 123 123 120 122 122 121 118 119 120 121
123 124 124 124 123 119 86 25 39 29 47 39 20 34 43 19
11 9 9 6 6 5 8 8 1 3 1 1 0 0 4 15
16 17 18 20 21 23 23 25 25 26 27 27 27 28 28 28
28 8 0 0 0 0 0 0 0 11 25 25 25 25 25 26
27 27 26 19 11 19 27 27 26 25 25 24 23 23 23 23
20 18 12 10 19 11 11 3 6 16 15 16 18 22 22 21
19 21 22 22 23 24 25 29 65 73 82 87 100 109 119 125
125 126 126 126 122 121 122 123 122 122 121 120 119 119 121 122
124 123 124 124 124 119 92 37 39 23 42 30 16 19 30 22
9 8 6 7 6 7 10 10 4 4 4 4 0 0 4 14
15 16 17 19 20 22 23 24 25 26 26 27 27 28 28 28
27 7 0 0 0 0 0 0 0 14 26 25 25 25 25 24
29 28 27 27 26 16 14 26 25 25 24 24 24 23 22 19
16 37 16 13 18 16 3 0 5 16 16 16 19 22 22 21
21 21 21 22 23 24 24 24 37 66 77 85 92 103 113 118
120 117 121 118 111 115 121 123 124 122 122 121 120 121 123 123
125 124 125 124 124 119 101 39 32 21 27 28 15 11 21 20
12 11 9 9 9 9 10 12 7 3 4 1 0 0 5 14
15 16 18 18 20 20 22 23 24 25 26 26 28 28 28 28
28 7 0 0 0 0 0 0 0 16 25 24 24 24 24 25
27 26 26 24 23 21 10 12 14 11 9 9 9 10 3 0
2 56 32 18 17 16 4 0 14 17 16 17 19 22 22 21
21 21 21 22 22 23 24 24 24 44 71 78 82 89 102 106
112 111 106 101 106 116 123 124 123 123 122 121 121 123 123 124
124 125 124 124 123 118 106 40 23 15 18 27 11 9 14 15
12 10 12 9 9 9 9 12 8 1 7 0 0 0 6 14
15 16 17 19 19 21 22 23 25 26 27 27 28 28 28 28
27 6 0 0 0 0 0 0 0 17 25 24 24 24 24 25
14 13 13 10 4 1 0 0 0 0 0 2 2 1 0 0
0 43 34 21 4 11 34 2 11 12 14 16 21 22 22 22
22 22 21 22 22 23 23 23 23 25 54 69 70 76 82 84
89 85 85 99 114 119 120 121 120 119 119 122 122 123 124 126
125 125 125 125 124 118 108 59 26 12 12 19 11 7 7 10
8 9 7 11 10 11 9 11 8 0 10 0 0 0 7 15
15 16 18 19 20 21 22 23 24 25 25 26 27 27 27 28
28 5 0 0 0 0 0 0 0 10 24 24 23 24 24 24
26 26 30 29 27 27 26 6 0 1 1 1 0 0 0 0
0 36 27 10 3 44 40 11 0 0 0 3 13 22 21 21
22 21 20 21 22 23 23 23 23 23 28 59 64 61 59 59
68 85 103 111 116 118 118 117 118 119 122 123 112 122 125 125
125 125 125 124 124 118 108 77 61 26 10 13 7 5 6 6
3 7 14 13 15 19 23 26 26 9 10 0 0 0 8 16
16 16 17 19 20 21 22 23 25 25 26 26 27 27 28 29
30 5 0 0 0 0 0 0 0 6 21 24 24 24 24 23
48 46 45 44 41 39 33 14 0 0 1 3 0 0 0 0
10 27 24 9 3 18 27 19 0 0 0 0 0 12 22 21
21 22 21 21 21 22 22 21 21 22 22 29 64 71 71 77
89 98 105 109 112 110 110 113 115 118 121 123 124 124 126 125
125 125 125 124 124 118 108 95 41 72 51 42 23 23 24 6
4 0 7 18 20 18 16 31 36 11 7 0 0 0 10 18
17 18 19 20 21 22 23 25 25 25 26 25 26 27 28 30
32 5 0 0 2 0 0 0 1 18 8 23 23 23 23 22
45 44 40 37 34 39 35 25 3 0 1 0 0 0 0 0
12 11 25 12 0 20 29 24 3 0 0 0 0 3 21 21
21 21 21 20 20 20 20 20 20 21 22 22 30 63 72 75
82 89 97 100 102 105 107 110 113 118 120 124 125 125 126 125
125 125 124 124 124 117 109 104 70 80 81 74 68 32 64 58
12 0 0 6 16 26 24 15 24 5 3 0 0 0 9 18
16 16 18 19 20 22 23 25 25 26 27 27 28 29 30 32
35 4 0 56 92 28 0 0 2 23 8 18 24 23 23 22
53 50 51 47 38 36 34 24 1 1 3 5 1 0 0 0
0 2 23 21 0 21 32 20 10 0 0 0 0 3 21 21
21 21 20 19 18 17 17 17 18 19 22 22 32 60 70 70
74 77 82 89 94 96 100 105 111 117 121 124 125 125 126 125
125 126 125 125 124 117 110 107 74 81 83 80 78 65 62 78
72 51 39 35 29 25 29 19 19 2 1 0 0 0 0 0
0 0 1 1 1 2 8 6 6 2 2 2 2 2 3 3
4 0 1 98 125 44 0 0 4 23 19 7 22 22 22 22
43 41 38 31 24 22 19 3 0 35 75 51 4 0 0 0
0 0 1 1 0 35 37 1 11 2 0 0 0 9 22 20
20 20 19 17 16 15 16 16 19 29 38 52 59 63 73 74
68 70 71 76 82 90 96 102 111 119 123 125 126 126 126 126
125 125 125 125 123 116 110 108 75 82 82 85 91 82 67 84
82 80 77 71 71 72 70 60 42 16 0 0 0 0 0 0
0 0 0 0 0 0 0 0 0 0 0 0 0 0 0 0
0 0 0 33 46 8 0 0 7 23 22 8 16 22 22 22
29 29 26 19 16 15 14 0 0 4 30 6 0 0 0 0
0 0 0 0 0 46 52 0 7 5 0 0 2 17 20 20
19 18 17 16 15 14 17 28 44 30 46 57 59 63 73 82
74 68 69 70 76 83 93 102 110 116 121 124 125 125 126 125
125 125 125 125 123 114 110 105 83 85 83 92 95 82 73 82
83 87 87 86 85 80 77 76 76 76 68 48 30 9 0 0
0 0 0 0 0 0 0 0 0 0 0 0 0 0 0 0
0 1 3 0 0 0 0 0 8 22 15 4 0 13 21 21
17 22 24 16 16 15 15 10 15 1 4 1 0 0 0 0
0 0 0 0 0 36 51 1 4 4 0 0 0 1 9 18
17 15 16 23 27 36 42 47 41 30 56 58 62 64 71 88
85 78 73 74 76 83 92 102 108 114 119 123 125 125 125 125
125 125 124 123 121 115 111 97 90 81 87 96 97 83 80 89
91 93 93 93 91 87 85 82 80 78 82 80 76 73 63 46
26 7 0 0 0 0 0 0 0 0 0 0 0 0 0 0
0 1 5 0 0 0 0 0 0 10 2 11 5 8 22 21
0 9 15 7 5 11 8 4 3 1 3 0 0 0 0 0
0 0 12 30 19 23 49 0 6 4 0 0 0 0 4 21
23 29 40 35 38 45 48 52 41 43 55 57 60 64 70 88
95 91 83 80 80 82 90 97 105 111 117 121 124 125 125 126
126 126 125 125 121 116 110 95 87 83 94 98 99 84 85 95
97 98 99 97 93 87 88 89 92 96 97 90 80 78 78 77
76 73 54 26 4 4 3 1 0 0 0 1 0 0 0 0
0 0 0 0 0 0 0 0 0 4 0 18 11 7 21 21
0 0 0 0 0 0 0 0 0 1 33 4 0 0 0 0
0 0 28 66 36 17 53 0 0 6 20 30 35 40 40 41
43 47 42 37 38 46 49 52 46 38 56 57 60 66 65 86
94 99 94 87 84 82 86 95 103 111 116 120 124 126 125 126
125 125 125 123 122 117 105 93 85 88 97 101 99 82 93 102
103 103 100 95 92 91 96 100 103 102 95 81 81 84 84 85
85 85 80 78 60 19 0 0 0 0 0 0 0 0 0 0
0 0 0 0 0 0 0 0 0 0 0 0 0 2 18 21
0 0 0 0 0 0 2 6 8 1 7 0 0 0 0 3
12 0 24 77 46 13 64 13 36 50 48 46 46 42 44 44
45 47 48 41 40 46 50 48 45 37 55 56 58 66 64 78
93 98 101 99 94 90 91 97 103 110 117 123 125 125 125 125
126 125 125 124 124 115 97 87 87 93 98 100 95 87 102 104
103 101 97 95 96 99 105 107 105 100 85 80 85 87 88 91
90 89 89 86 82 76 39 1 0 0 0 0 0 0 0 0
0 0 3 0 0 0 0 0 0 0 0 0 0 0 3 19
0 0 0 0 3 13 22 21 19 3 0 3 0 0 0 8
17 0 17 72 58 22 58 55 60 62 63 60 59 52 50 48
52 52 54 47 41 46 52 50 47 38 54 54 58 66 66 69
93 97 102 101 101 101 104 106 111 116 122 123 125 126 127 126
122 117 126 125 122 102 89 86 91 97 102 101 91 97 106 102
99 96 96 98 99 103 108 107 102 93 82 85 89 92 94 94
94 92 93 93 91 86 79 49 3 0 0 0 0 0 0 0
0 0 2 0 1 0 0 0 0 0 0 0 0 0 0 6
5 14 13 14 17 18 21 21 19 5 0 0 0 0 0 7
23 9 14 44 42 53 63 69 73 76 78 78 76 72 66 66
67 65 67 66 58 54 59 60 56 41 54 53 56 62 65 61
83 98 102 105 106 105 105 104 110 116 120 124 125 125 125 126
126 126 125 122 104 93 87 87 93 99 100 98 93 101 101 99
98 101 102 105 105 109 110 105 97 86 84 93 95 93 94 98
96 90 98 98 96 93 89 82 52 2 0 0 0 0 0 0
0 0 0 0 0 0 0 0 0 0 0 0 0 0 0 0
27 30 27 24 25 27 26 25 23 19 20 23 27 15 8 6
20 21 15 30 56 65 73 78 80 82 85 87 87 85 83 81
84 84 85 83 84 81 73 72 73 61 61 60 55 59 65 67
75 92 101 106 109 110 108 109 110 116 121 124 125 125 126 127
126 125 121 102 91 88 86 92 96 98 99 93 100 105 101 102
105 105 106 107 108 108 105 99 91 83 90 96 95 96 98 99
94 93 101 101 98 98 96 90 78 49 2 0 0 0 0 0
0 0 0 0 0 0 0 0 0 0 0 0 0 0 0 0
30 31 30 28 30 30 30 25 23 22 25 28 29 12 16 8
37 13 16 54 66 73 78 82 85 86 89 88 89 89 87 87
92 93 93 92 93 92 91 88 89 82 75 79 69 56 61 66
70 86 93 102 107 109 111 111 114 117 120 123 124 124 125 125
125 118 101 91 89 85 89 96 97 100 96 96 104 106 104 104
107 108 108 107 107 104 100 96 82 86 95 97 95 98 99 100
88 98 104 102 101 100 100 96 87 79 49 1 0 0 0 0
0 0 0 0 0 0 0 0 0 0 0 0 0 0 0 0
34 34 35 34 30 27 30 24 19 18 20 17 10 4 15 6
2 3 47 64 71 77 83 84 88 90 90 90 90 93 93 89
90 92 96 96 95 93 91 92 93 90 84 89 88 66 58 62
63 66 88 92 105 111 111 112 112 118 120 124 126 125 124 117
107 95 90 88 86 86 90 94 97 98 95 103 105 106 106 106
107 108 107 106 104 98 97 89 80 93 99 97 98 100 101 98
84 103 106 104 103 103 103 94 89 82 81 44 0 0 0 0
0 0 0 0 0 0 0 0 0 0 0 0 0 0 0 0
34 35 35 34 32 24 24 19 13 12 13 10 0 0 14 6
1 37 60 69 78 81 84 86 90 92 92 90 91 94 95 92
90 92 96 96 96 95 91 90 92 88 88 84 90 84 63 59
61 62 65 76 88 100 109 112 114 115 118 116 112 106 99 93
90 88 86 85 88 91 97 101 96 95 103 106 108 108 106 106
108 107 106 105 101 97 97 82 88 99 101 100 101 103 100 91
87 105 108 106 105 107 104 91 92 86 88 77 16 0 0 0
0 0 0 0 0 0 0 0 0 0 0 0 0 0 0 0
31 37 36 37 26 18 11 10 8 9 12 9 9 13 6 2
24 57 63 77 81 84 83 88 93 94 94 92 92 94 96 95
92 89 93 96 95 94 92 91 90 90 91 89 86 91 82 63
59 60 61 61 68 82 88 89 94 91 94 89 92 90 87 87
88 86 85 86 90 96 97 98 97 105 107 106 107 107 106 107
108 107 105 102 99 97 93 80 94 101 103 101 102 103 98 85
93 106 108 106 107 107 100 86 93 89 89 85 69 5 0 0
0 0 0 0 0 0 0 0 0 0 0 0 0 0 0 0
10 8 14 21 24 14 8 8 9 8 12 9 22 23 3 21
53 59 74 85 82 90 81 87 93 96 94 93 93 91 96 95
94 89 91 93 95 95 94 92 92 90 89 95 87 86 91 87
72 65 60 62 64 68 68 74 80 86 85 84 84 84 85 82
84 85 86 91 96 97 97 94 104 107 108 106 107 108 107 107
107 104 102 100 100 98 84 87 100 105 105 103 102 101 95 80
97 105 106 106 108 107 93 87 94 94 92 93 90 48 0 0
0 0 0 0 0 0 0 0 0 0 0 0 0 0 0 0
27 23 18 18 15 5 3 2 2 3 14 21 61 34 32 50
58 63 88 89 85 91 79 85 93 97 96 92 94 90 94 97
95 93 91 93 94 95 95 92 92 90 86 95 93 90 86 90
91 82 70 65 69 69 69 71 71 75 76 76 79 77 84 87
90 88 94 95 98 94 97 105 105 106 108 107 108 106 106 106
104 103 102 102 100 93 82 92 103 106 105 104 102 100 92 82
100 105 107 107 109 107 83 93 95 95 93 99 95 89 28 0
0 0 0 0 0 0 0 0 0 0 0 0 0 0 0 0
29 29 27 24 14 6 6 2 1 1 67 59 40 42 55 56
58 74 93 90 86 93 81 81 94 95 96 91 92 91 90 97
95 94 93 92 93 94 96 95 95 93 87 94 95 94 91 89
90 90 85 79 69 73 88 78 82 81 86 86 88 87 89 90
93 95 96 96 94 99 108 105 105 108 108 107 107 106 105 105
103 102 103 102 98 85 84 97 104 107 104 103 100 99 89 83
102 103 105 108 109 102 78 98 96 95 99 103 96 96 80 12
0 0 0 0 0 0 0 0 0 0 0 0 0 0 0 0
30 30 29 22 12 10 10 8 8 7 59 75 36 46 56 59
63 83 95 91 87 91 80 78 93 95 97 91 92 94 90 96
97 96 95 94 94 95 96 95 96 94 89 93 96 95 94 95
92 85 91 86 85 84 89 83 89 89 87 87 89 93 91 94
97 95 94 97 105 108 107 103 105 107 109 107 107 105 105 104
104 104 101 101 95 82 88 101 107 105 104 102 101 96 87 86
103 103 105 107 109 91 81 102 93 92 102 103 98 95 94 65
4 0 0 0 0 0 0 0 0 0 0 0 0 0 0 0
30 29 22 14 10 10 11 9 9 8 46 89 33 49 58 59
66 87 96 93 89 92 78 75 93 95 97 93 90 95 93 93
97 97 97 96 94 95 97 97 98 97 94 92 96 96 92 95
96 92 86 85 86 90 93 89 89 89 88 91 93 92 93 93
91 94 101 107 107 106 104 104 106 110 108 106 105 105 105 104
105 104 101 97 91 82 96 106 109 106 104 102 99 94 85 89
103 102 102 107 106 77 88 102 85 98 104 104 99 98 100 87
49 0 0 0 0 0 0 0 0 0 0 0 0 0 0 0
30 27 15 10 10 9 9 10 9 9 27 94 40 58 58 61
70 89 97 96 91 90 76 73 91 95 98 95 87 93 95 95
97 99 99 98 98 97 98 98 99 98 97 97 96 97 93 93
95 98 96 85 71 72 85 87 90 92 92 90 89 91 89 95
104 108 107 107 107 105 103 105 109 108 107 104 103 105 105 104
105 104 99 96 88 87 102 107 106 106 103 100 96 95 85 90
104 104 100 109 98 75 96 96 79 104 104 104 100 100 100 93
84 31 0 0 0 0 0 0 0 0 0 0 0 0 0 0
30 27 13 9 9 9 9 9 10 9 16 106 53 64 61 61
71 92 95 95 93 91 74 71 91 96 98 99 87 92 96 95
96 99 99 99 98 98 97 98 100 99 98 99 97 95 95 95
96 97 99 100 100 90 82 79 80 80 83 87 91 97 102 105
107 107 108 108 106 102 104 107 108 107 104 102 105 105 103 102
105 103 99 92 82 94 104 107 106 104 102 99 94 96 87 92
104 104 99 108 81 78 100 86 81 103 105 104 100 103 101 97
91 79 17 0 0 0 0 0 0 0 0 0 0 0 0 0
31 26 13 10 10 9 10 9 9 9 9 46 64 65 65 62
74 94 95 98 94 89 69 70 89 97 99 101 87 88 97 96
97 98 100 101 100 99 99 99 98 99 98 98 97 95 96 96
96 97 100 100 100 100 97 98 97 96 97 98 99 102 102 106
108 107 108 108 105 102 104 106 106 103 103 103 104 103 103 103
104 100 96 87 89 99 107 108 106 105 102 98 95 96 89 93
104 103 98 104 72 83 102 79 82 103 105 104 99 103 103 100
95 88 70 7 0 0 0 0 0 0 0 0 0 0 0 0
30 27 14 11 10 10 9 10 10 9 8 27 66 66 66 63
72 93 97 97 96 89 66 71 87 96 100 102 89 86 96 98
98 99 98 100 98 99 100 100 98 99 98 99 98 98 97 96
96 98 98 101 99 99 100 99 99 102 102 102 103 103 104 106
107 106 108 104 103 102 104 106 105 102 103 104 104 104 103 102
102 99 93 84 95 103 106 108 105 104 101 97 97 96 92 94
103 102 97 94 72 88 100 70 89 103 104 102 101 105 104 103
98 95 85 57 1 0 0 0 0 0 0 0 0 0 0 0
24 27 16 10 10 10 10 9 10 16 16 55 66 65 66 66
71 93 96 99 99 88 65 69 86 98 101 101 91 83 96 99
98 98 99 100 100 99 100 100 98 99 98 100 98 98 99 97
97 97 100 100 99 100 101 101 100 100 101 103 103 104 104 106
107 106 107 105 103 103 105 105 104 102 103 102 103 103 103 103
102 99 90 89 101 106 107 107 106 103 99 97 99 95 92 96
104 99 93 82 72 91 97 66 90 103 104 102 102 105 103 104
100 98 91 84 39 0 0 0 0 0 0 0 0 0 0 0
14 18 13 11 10 11 10 10 13 23 39 64 67 65 64 65
68 90 96 98 99 85 64 69 87 99 101 100 92 81 94 98
98 97 98 98 99 99 99 98 100 100 99 100 99 100 100 98
99 99 99 99 99 100 101 100 102 101 103 104 104 103 105 106
107 106 104 103 102 102 105 105 103 102 103 103 105 104 104 104
102 94 86 96 104 107 107 107 105 103 98 97 99 95 92 98
103 99 91 73 74 95 89 63 92 104 104 99 104 104 103 105
101 99 96 88 81 21 0 0 0 0 0 0 0 0 0 0
14 13 8 14 18 19 11 9 14 26 57 65 66 65 64 64
66 90 96 98 98 84 63 68 84 97 100 100 94 80 89 98
99 98 98 99 100 100 99 99 99 100 100 100 100 101 100 100
100 99 98 100 99 100 102 102 100 102 102 104 105 105 105 107
106 104 104 104 103 104 105 105 102 102 102 104 105 105 104 102
97 91 90 100 107 107 109 109 105 101 97 99 99 96 94 99
104 98 87 68 74 96 83 64 91 104 103 97 103 104 104 105
101 99 99 92 87 74 7 0 0 0 0 0 0 0 0 0
14 12 7 16 25 23 11 8 16 41 64 65 64 64 64 62
63 81 96 97 98 80 60 66 85 99 99 99 95 80 90 97
98 98 98 98 99 99 98 99 100 99 99 99 100 101 99 98
99 100 97 100 98 99 100 101 101 101 104 104 105 105 105 105
105 102 104 102 103 103 104 102 100 103 102 105 104 104 102 98
93 89 94 101 104 105 106 104 103 101 97 97 98 95 94 101
104 95 79 66 74 96 78 64 88 102 100 96 104 102 104 103
100 100 99 96 88 86 54 0 0 0 0 0 0 0 0 0
23 17 11 19 26 22 10 7 19 56 63 66 64 64 63 60
61 74 96 96 98 75 57 64 85 98 99 98 94 78 86 95
100 100 99 99 99 99 100 100 100 100 100 99 99 101 99 99
99 100 100 99 99 98 101 100 101 102 103 103 103 105 103 104
105 104 103 102 103 104 103 102 101 104 102 104 104 102 101 95
89 93 98 105 107 105 105 105 102 98 97 96 96 93 95 101
103 96 75 66 74 95 77 63 86 103 96 97 104 103 102 100
100 100 100 99 91 86 87 30 0 0 0 0 0 0 0 0
26 25 19 22 25 20 8 7 37 62 65 66 64 66 61 59
59 66 94 96 95 72 58 61 82 98 101 98 96 83 81 93
98 97 98 99 98 98 100 99 100 100 100 100 100 101 100 100
99 99 99 99 100 99 101 101 102 101 103 103 104 104 103 103
103 104 103 102 103 102 104 100 101 101 100 103 102 102 98 89
89 97 101 104 105 104 102 103 100 98 97 95 95 93 96 101
102 94 73 65 72 94 74 60 85 101 91 101 102 102 103 101
100 100 99 99 94 86 86 79 10 0 0 0 0 0 0 0
26 26 22 20 23 17 7 11 54 63 64 67 64 66 60 58
58 61 89 95 94 69 56 62 78 96 98 98 97 83 79 91
98 98 98 99 98 99 99 99 99 101 100 98 99 100 99 99
98 99 99 98 100 99 102 101 100 102 104 103 103 103 103 103
103 103 101 102 102 101 101 100 99 100 102 102 102 97 91 88
92 99 104 104 105 103 101 101 100 97 97 94 93 93 96 101
101 91 71 67 71 92 72 58 83 98 89 100 101 101 101 99
100 99 100 98 98 91 86 88 63 1 0 0 0 0 0 0
25 25 23 18 21 15 6 33 60 63 66 69 67 66 61 58
58 59 80 93 92 68 56 59 78 96 98 98 97 84 77 89
97 97 97 98 97 99 99 99 100 99 99 100 100 100 99 100
99 99 100 99 100 100 101 101 102 103 103 102 102 102 101 103
102 102 101 101 102 102 101 100 101 102 103 103 101 92 89 92
98 103 105 106 105 100 99 99 99 97 96 94 94 95 97 102
100 89 70 74 72 91 69 55 83 93 91 100 101 101 99 99
100 99 100 99 98 93 86 87 89 38 0 0 0 0 0 0
26 25 24 19 20 15 11 53 62 65 65 69 71 70 64 58
58 57 73 95 96 67 54 57 77 97 99 97 96 85 76 87
96 98 98 98 99 99 100 100 100 100 100 100 100 100 100 100
99 100 100 100 100 101 101 101 101 102 103 103 103 102 102 103
102 101 101 102 103 102 101 101 101 102 101 102 95 86 91 96
101 103 105 104 102 99 100 100 99 98 97 92 92 94 99 102
99 86 64 78 78 93 67 52 84 89 95 97 98 99 97 98
99 100 101 100 100 97 86 88 91 85 14 0 0 0 0 0
26 25 24 21 17 12 28 60 64 66 67 71 76 74 68 59
56 56 65 91 95 64 56 55 77 95 99 100 96 86 76 84
97 97 97 97 99 99 99 100 100 100 99 101 100 100 100 99
99 100 100 101 101 100 101 100 101 102 102 103 102 103 104 104
103 102 101 102 103 101 101 101 99 101 103 98 90 88 95 102
105 105 106 103 100 99 99 97 98 95 95 90 93 95 101 104
98 81 57 83 84 90 59 48 85 86 95 97 100 99 97 99
100 101 100 99 101 98 88 88 91 91 67 1 0 0 0 0
25 25 24 24 19 12 49 62 63 66 70 70 78 77 71 63
57 57 60 88 94 65 54 53 75 95 100 99 96 88 77 81
94 97 96 98 100 99 100 100 99 100 99 100 98 99 100 99
99 101 100 101 101 101 101 102 102 102 102 102 102 102 101 102
103 101 102 102 102 100 100 100 101 102 101 92 88 92 101 104
105 104 104 100 99 100 100 99 98 97 94 90 93 97 101 103
98 77 58 85 85 91 52 47 89 86 95 97 99 97 98 99
99 100 98 100 101 99 94 87 90 93 90 38 0 0 0 0
26 24 24 22 19 24 59 63 66 66 71 73 74 75 79 68
59 55 58 84 92 66 51 54 76 97 98 98 95 88 78 79
94 97 97 98 98 100 100 100 100 100 101 101 100 101 101 100
101 101 101 101 100 101 101 102 100 102 101 102 103 101 101 102
101 101 101 102 102 101 101 102 101 100 97 89 90 98 103 106
107 103 103 100 98 100 100 99 97 96 93 90 92 97 100 104
98 72 61 87 88 93 48 46 89 82 96 98 98 95 97 99
99 98 100 100 100 97 96 89 88 93 91 84 13 0 0 0
