P2
128 120
137
11 11 12 10 10 11 13 15 19 24 27 30 31 30 30 30
30 29 29 28 27 27 28 27 27 26 26 26 26 25 25 25
24 24 24 23 23 23 22 22 22 21 21 21 21 21 20 20
20 20 20 20 20 20 21 22 26 26 26 26 20 16 25 28
16 23 23 22 22 21 21 20 19 20 20 19 16 22 21 23
24 23 23 24 23 23 24 23 23 24 23 23 24 24 24 24
24 24 24 25 25 25 25 25 25 26 25 25 26 26 26 26
27 27 27 27 27 27 27 26 27 27 27 26 26 26 24 24
12 10 11 10 12 11 11 7 3 6 15 29 30 30 30 30
29 28 28 28 28 27 27 27 26 27 26 26 26 25 25 24
24 24 23 23 24 23 23 22 22 22 21 21 21 21 20 20
20 20 20 20 20 20 20 22 27 26 26 25 20 16 25 28
16 22 23 22 22 21 21 21 20 20 20 20 17 22 20 23
23 22 23 23 23 23 23 22 24 23 25 24 25 24 24 24
24 24 24 24 24 25 25 25 26 26 26 26 27 27 26 26
27 27 27 26 26 26 27 26 26 24 24 25 25 25 25 26
23 19 16 10 8 10 12 10 8 8 14 30 30 30 30 30
29 29 28 28 29 27 27 27 27 27 26 26 26 26 26 25
24 24 24 24 23 22 23 23 23 22 21 22 21 21 21 20
21 20 20 19 20 20 21 22 26 26 26 26 19 16 25 28
17 22 23 23 22 22 21 21 20 19 21 20 17 23 21 24
24 23 24 24 24 24 24 24 23 24 24 24 25 24 24 25
25 24 25 25 25 26 26 26 26 26 26 26 26 26 26 26
27 27 26 25 25 24 24 25 25 27 27 27 26 25 26 26
30 35 38 34 30 26 19 13 7 9 12 29 30 30 30 29
29 27 29 29 29 29 28 28 27 27 27 26 26 26 25 25
24 24 24 23 24 32 32 28 25 23 23 22 22 21 21 21
20 20 20 20 20 20 21 22 26 27 26 26 19 15 25 29
16 20 23 23 23 22 21 21 21 20 20 20 17 22 20 23
24 24 23 24 24 24 25 24 24 24 25 24 26 25 25 24
24 24 25 25 25 25 25 26 26 26 26 26 26 26 25 26
26 26 26 27 27 26 26 25 26 26 26 26 26 26 26 26
35 38 40 30 42 41 41 35 8 10 15 30 30 30 30 30
29 31 39 38 36 34 31 29 27 25 27 26 26 26 26 25
25 25 24 24 26 37 35 32 30 30 28 24 21 21 21 21
21 20 20 20 20 20 21 21 26 26 26 26 19 16 26 29
19 19 24 24 22 22 21 22 20 20 19 19 17 22 20 23
24 24 24 25 25 24 25 24 24 24 24 24 25 25 25 24
25 25 25 25 25 26 25 25 26 25 25 25 25 24 26 25
26 25 25 26 26 27 26 26 26 26 26 26 26 25 26 25
36 39 41 40 44 44 43 40 11 10 16 31 31 30 30 29
29 31 41 38 38 35 33 32 33 34 29 28 27 26 25 24
24 24 24 24 26 35 33 31 31 31 31 28 22 21 21 20
21 20 20 19 20 20 21 22 27 27 27 26 20 16 25 29
20 16 23 23 23 22 22 22 20 21 21 20 18 22 21 24
24 24 24 24 24 24 24 24 24 25 25 25 26 24 25 25
24 25 25 25 25 25 26 26 26 26 25 25 26 25 26 25
25 25 25 25 26 26 25 26 26 26 25 26 27 26 26 25
37 39 40 41 43 43 44 42 13 10 18 34 32 32 31 30
30 32 41 39 38 35 35 36 37 38 32 33 32 31 28 25
25 25 24 24 26 27 26 28 30 30 30 29 22 21 21 21
21 21 21 20 21 20 21 21 26 26 26 25 19 14 14 25
22 15 23 23 23 22 22 21 21 20 20 20 18 23 21 24
24 25 25 25 25 24 25 24 24 23 24 24 23 22 23 24
25 25 25 26 26 24 25 26 26 25 25 25 25 25 25 25
25 25 25 25 26 27 26 26 26 26 26 26 25 26 26 25
37 35 39 42 42 43 43 41 15 11 19 36 34 32 33 33
33 33 25 18 28 34 37 39 40 39 29 18 26 31 31 32
31 30 29 26 26 19 8 7 10 14 20 26 24 22 21 21
21 21 20 21 20 21 22 22 27 27 27 23 10 14 9 25
23 13 23 23 22 22 22 23 20 20 21 21 18 24 21 25
25 25 25 25 24 24 24 24 24 24 24 24 25 25 25 25
25 25 25 25 26 25 26 25 25 26 26 26 25 26 25 25
25 26 25 25 25 27 26 26 26 26 26 26 25 26 26 26
6 15 21 33 38 40 39 39 14 10 18 36 33 26 26 32
37 41 16 0 0 8 19 21 25 32 25 0 0 1 7 14
18 27 31 31 28 18 4 2 6 3 0 9 25 22 22 21
22 21 21 21 21 22 22 23 27 27 27 25 17 16 23 28
25 13 24 23 22 21 21 24 21 21 21 21 18 24 20 24
25 24 25 25 24 25 24 24 24 24 24 23 24 25 24 25
25 25 26 26 27 25 26 26 26 26 25 25 25 25 25 25
25 25 25 26 27 27 26 26 26 26 26 25 26 26 26 25
0 0 2 0 3 6 9 39 15 12 17 31 36 36 35 32
39 42 17 0 0 2 6 8 8 18 24 0 0 0 0 0
0 0 3 9 27 17 2 1 0 3 0 9 26 22 22 22
21 21 21 22 22 22 22 23 28 29 28 27 21 17 26 29
26 13 23 23 22 21 22 23 20 22 22 22 19 23 20 24
25 24 24 24 25 25 25 25 25 24 25 25 25 25 25 25
25 25 25 25 27 25 26 26 25 25 26 26 26 26 26 26
26 26 26 26 26 27 26 26 25 25 26 26 26 26 26 25
1 0 0 0 0 0 0 37 14 11 6 0 4 12 21 31
38 40 18 0 0 0 2 5 4 17 25 0 0 0 0 0
0 0 0 0 28 15 0 0 0 1 0 9 26 22 22 22
22 22 22 22 22 22 23 23 28 28 27 27 20 17 26 29
26 13 22 24 24 23 23 24 21 22 21 21 19 23 20 25
25 25 24 25 26 25 25 25 25 24 24 24 25 25 25 25
25 25 25 25 27 26 26 26 26 25 25 25 25 26 25 26
25 25 26 26 26 27 26 26 26 25 25 26 25 25 25 25
0 0 2 0 0 0 0 37 15 12 5 0 0 0 0 0
2 9 17 0 0 0 0 0 0 12 24 0 0 0 0 0
0 0 0 0 27 10 0 0 0 0 0 10 28 23 23 22
22 21 22 22 22 22 23 24 28 29 28 27 21 17 26 29
27 15 20 24 23 23 22 23 21 22 22 21 19 24 21 26
25 25 26 25 26 24 25 25 25 25 25 25 25 25 25 25
25 25 25 25 26 26 26 25 25 25 25 26 26 26 26 25
26 26 26 26 26 27 26 25 25 25 26 25 26 26 26 26
0 0 13 5 0 0 0 37 14 11 4 0 0 0 0 0
0 0 13 0 0 0 0 0 0 14 23 0 0 0 0 2
0 0 0 0 27 8 0 0 0 0 0 11 28 22 23 22
22 22 22 22 22 23 23 24 29 28 28 27 20 17 26 28
26 16 19 24 24 23 23 23 20 22 21 21 18 23 20 25
25 25 25 25 25 25 25 25 25 25 25 25 25 24 25 26
25 25 25 25 26 25 26 26 26 26 26 25 26 26 26 25
25 25 25 26 26 26 26 25 26 26 26 25 26 26 26 26
0 0 3 17 0 0 0 37 13 12 5 0 0 0 0 0
0 0 11 0 0 0 0 0 0 19 27 0 0 0 0 7
6 1 0 0 27 7 0 0 0 0 0 8 29 23 23 23
22 22 22 22 22 22 23 23 29 28 28 28 21 18 27 29
27 18 17 24 24 23 22 22 21 21 21 21 19 23 21 25
25 26 26 25 26 25 24 25 25 25 25 24 25 25 26 26
25 25 26 26 26 24 26 26 26 26 26 26 26 27 26 27
26 26 26 26 27 25 25 25 26 26 26 26 26 26 26 27
0 0 0 2 0 0 1 37 11 11 5 0 0 0 3 0
0 0 9 0 0 0 0 0 0 15 28 0 0 0 0 7
8 7 5 0 26 8 0 0 0 0 0 7 30 23 23 23
22 23 22 22 23 22 24 24 29 28 28 27 21 17 25 29
26 20 15 24 25 24 23 23 22 22 21 21 19 22 20 25
25 25 25 25 26 25 24 25 25 25 25 25 25 25 25 26
25 25 26 26 26 26 26 27 27 27 27 27 27 26 26 26
25 26 25 25 25 26 26 27 27 27 27 27 27 26 26 27
0 0 0 0 0 0 2 37 12 11 4 0 2 0 6 2
0 0 9 0 0 0 0 0 0 16 29 0 0 0 0 8
7 7 6 0 24 9 0 0 0 0 0 5 31 23 23 23
22 22 22 22 22 22 24 24 28 28 29 28 21 17 26 29
28 22 14 23 24 23 22 22 20 21 22 21 19 23 20 26
25 25 25 25 26 25 25 25 25 25 25 25 25 25 25 26
26 26 26 26 27 26 26 26 27 26 26 26 26 25 26 26
26 26 26 26 26 27 26 26 26 26 26 26 25 26 27 27
0 4 0 0 0 0 3 37 11 11 4 2 5 0 1 0
0 0 9 0 0 0 0 0 2 16 31 0 0 0 0 2
6 7 5 0 24 18 7 2 0 0 0 4 31 22 23 22
23 22 22 22 22 23 24 24 30 29 29 28 20 17 27 28
27 22 14 24 25 24 22 22 21 21 22 21 19 23 20 25
26 26 25 25 27 26 26 25 25 25 25 26 26 26 26 26
26 26 26 25 26 26 26 26 26 27 27 27 27 26 26 25
25 26 26 26 27 27 26 26 27 27 27 26 26 27 28 28
7 9 11 8 4 2 6 38 11 12 5 3 0 0 0 1
0 0 12 0 0 0 0 0 6 23 36 11 6 2 0 0
0 4 4 0 22 34 33 29 27 22 20 22 31 23 24 23
23 23 23 22 23 24 26 25 29 29 29 28 21 18 27 28
28 23 15 22 24 22 22 22 21 21 22 22 21 24 21 26
26 26 26 26 26 25 25 25 25 25 25 26 26 26 26 27
26 27 27 27 27 28 27 27 26 27 27 26 28 26 27 27
26 26 26 27 27 27 27 26 27 27 26 26 27 27 28 28
23 30 34 38 37 34 33 32 11 12 4 0 0 0 0 0
0 1 35 31 21 17 14 7 1 16 44 28 30 30 27 21
14 9 5 2 25 35 34 32 31 35 39 40 33 22 23 23
23 23 22 23 23 24 25 26 29 29 29 25 22 21 28 27
28 26 17 20 24 25 22 22 21 23 23 22 20 23 21 26
26 25 26 26 26 26 26 26 25 26 26 26 26 26 27 26
26 26 27 26 26 26 26 27 27 27 27 27 28 26 27 28
27 26 27 27 27 27 27 27 27 28 27 27 28 27 28 26
24 32 40 44 42 43 42 33 11 12 5 0 0 0 0 0
0 2 41 44 32 36 38 40 38 42 42 9 9 11 13 15
19 21 26 32 39 28 28 31 32 36 40 40 34 22 24 23
23 23 24 23 23 24 25 26 31 29 28 25 24 29 33 31
33 29 25 24 22 19 22 20 21 21 22 23 20 23 21 27
26 27 26 25 26 26 26 26 26 26 25 26 27 26 27 27
27 27 27 27 27 27 27 27 27 27 27 27 28 26 27 27
28 27 28 28 27 27 27 25 26 26 25 24 26 28 28 25
27 35 41 42 41 46 45 35 12 12 8 1 0 0 0 0
0 2 43 36 35 41 43 47 42 35 30 10 9 9 8 8
8 6 6 5 7 7 12 17 21 26 25 24 25 23 24 23
24 23 24 23 23 25 26 26 28 33 34 32 34 32 30 31
32 28 28 26 27 27 24 14 14 14 21 23 20 23 22 27
27 28 26 25 25 26 26 27 27 27 26 26 28 27 27 27
26 27 26 27 27 27 27 27 27 28 27 27 28 27 26 25
25 25 24 26 26 25 26 25 26 25 22 20 19 16 13 11
8 16 23 25 30 33 39 35 11 12 21 36 33 25 16 10
5 5 37 27 34 40 42 45 44 36 29 12 10 10 8 7
5 5 4 3 3 3 4 3 7 24 23 20 20 23 24 24
24 23 24 23 22 20 19 23 32 35 32 29 30 30 27 24
20 19 17 21 27 33 36 22 15 11 7 13 20 23 22 25
26 26 27 27 26 25 26 26 26 26 25 25 27 26 26 26
27 27 28 27 27 26 27 27 27 27 27 27 28 27 27 28
27 23 23 20 19 16 14 11 10 9 8 7 7 7 7 8
0 0 0 0 0 0 9 34 12 13 23 41 43 42 40 40
39 39 38 21 31 38 40 43 43 38 33 15 11 9 6 5
5 4 4 4 5 5 6 6 12 22 6 19 23 23 24 24
24 22 23 20 15 17 24 30 33 33 31 29 29 27 24 21
19 18 19 19 21 25 37 46 37 27 15 12 9 18 22 27
25 25 26 26 26 26 26 26 26 25 25 25 27 26 27 26
27 27 27 28 28 28 28 27 26 24 22 20 18 15 14 19
27 10 7 8 9 9 9 10 11 11 12 12 13 13 14 15
0 0 0 0 0 0 7 34 12 11 23 42 44 42 42 42
42 44 33 0 2 7 11 18 23 24 32 16 9 7 3 1
0 1 5 7 7 5 8 8 14 24 17 20 30 28 27 12
10 22 16 15 21 25 31 31 30 29 23 20 21 18 17 15
16 15 13 13 14 17 26 41 54 49 38 39 21 10 11 22
25 25 25 26 26 25 25 25 25 25 25 25 26 27 27 27
26 26 24 21 19 17 15 12 11 10 10 10 10 11 11 14
24 8 9 13 14 15 15 15 16 17 16 17 18 19 18 19
0 0 0 0 9 9 12 32 15 12 20 36 38 39 40 42
42 44 28 0 0 0 0 0 5 10 33 15 7 5 1 0
0 0 2 4 3 0 4 5 11 28 32 27 28 30 31 24
13 11 12 19 28 33 27 26 27 27 27 23 19 18 20 17
11 12 11 12 14 16 21 31 48 57 53 43 37 21 7 11
22 24 23 22 21 22 22 15 21 26 23 22 20 18 17 14
12 11 11 11 10 11 12 12 13 15 15 15 15 16 16 16
23 8 14 17 19 19 19 20 21 21 21 22 22 22 21 23
0 0 0 2 25 24 21 25 25 20 21 25 28 28 30 29
32 39 26 0 0 0 0 0 0 6 35 14 6 6 2 0
0 0 0 0 0 0 0 0 4 28 30 19 18 15 20 22
13 8 16 21 23 26 28 26 30 30 30 28 24 22 24 22
22 22 20 22 26 25 24 25 37 50 61 52 49 34 12 9
11 22 25 23 22 19 18 10 11 12 11 11 11 12 13 13
14 15 16 16 17 17 18 18 18 20 20 19 21 20 21 19
26 12 18 21 22 22 23 23 23 23 24 23 24 23 24 23
0 0 0 0 23 23 20 21 19 14 18 14 16 22 27 24
29 39 24 0 0 0 0 0 0 2 36 10 5 0 0 0
0 3 0 0 0 0 0 0 4 28 32 17 15 24 20 10
7 12 12 14 22 24 27 32 34 31 30 29 27 25 24 22
18 18 18 17 19 22 29 35 34 44 62 69 62 44 28 16
6 11 18 14 13 12 13 12 12 14 15 16 17 17 18 19
19 20 21 22 21 21 22 22 23 23 23 23 24 23 22 15
11 6 20 23 23 23 24 25 25 25 25 25 25 25 25 25
0 0 0 0 4 6 9 20 17 15 18 20 21 23 27 26
32 38 23 0 0 0 0 0 0 2 37 3 0 0 0 0
0 4 6 1 0 0 0 0 3 28 33 13 12 22 14 8
10 8 17 23 20 24 31 34 27 25 30 31 31 25 21 19
21 15 17 15 17 20 26 24 29 38 44 60 69 55 45 20
11 9 11 16 17 18 19 18 18 19 21 21 21 22 23 23
24 24 24 24 25 24 25 25 25 25 25 25 25 24 23 9
0 0 19 24 26 26 26 25 25 25 25 25 26 25 25 25
0 0 0 0 0 0 2 20 12 14 13 4 9 15 20 25
31 34 22 0 0 0 0 0 0 4 37 4 0 0 0 0
0 1 12 4 2 0 0 0 4 29 35 15 7 11 6 4
4 11 14 15 25 32 29 23 26 29 32 28 26 28 28 24
22 29 25 24 25 24 21 22 30 42 53 63 78 72 60 34
17 7 5 13 20 21 21 22 22 24 24 24 24 24 24 25
26 26 26 26 26 25 26 25 26 27 24 19 15 12 22 7
5 0 18 25 27 27 26 26 26 26 26 25 26 26 26 26
0 0 3 0 0 0 3 26 19 18 12 0 0 0 0 0
0 2 17 0 0 0 0 0 0 5 36 2 0 0 0 0
3 8 10 7 10 0 0 0 4 28 34 19 13 6 2 2
5 5 8 17 25 18 21 25 34 34 32 32 33 32 33 32
37 34 27 26 26 25 26 30 38 56 69 77 89 91 78 50
23 15 8 9 23 23 23 25 25 25 25 25 25 26 26 27
26 26 27 27 27 27 27 26 27 27 10 0 0 2 18 5
1 0 17 25 26 28 26 26 27 26 26 26 26 26 26 25
0 0 2 3 0 0 4 32 23 20 14 0 0 0 0 0
0 0 14 0 0 0 1 0 0 4 34 0 0 0 0 0
8 13 16 4 5 0 0 0 3 28 35 21 12 1 1 1
1 4 9 13 13 22 23 33 35 36 33 32 34 37 40 41
38 30 27 24 29 33 41 54 69 79 91 100 108 108 101 70
47 39 23 12 16 21 23 25 25 25 26 26 26 26 27 27
27 26 27 27 27 27 27 27 27 27 23 20 22 24 23 9
0 0 17 25 26 27 26 25 26 26 26 25 26 26 26 26
0 0 2 6 0 0 3 35 24 20 14 0 0 0 0 0
0 0 14 0 0 4 11 2 0 5 32 0 0 0 0 0
1 2 16 0 0 0 0 0 2 27 35 20 6 0 0 0
2 5 7 15 21 20 23 33 33 33 35 39 41 39 42 36
34 32 31 37 45 56 69 89 95 106 110 117 120 122 115 103
91 79 58 32 10 16 25 26 26 25 26 26 26 26 27 26
26 26 27 28 28 27 27 27 27 27 27 25 25 24 22 11
0 0 17 25 25 26 26 26 26 26 26 26 26 26 26 25
11 6 5 13 8 3 3 35 20 18 13 0 0 0 10 0
0 0 12 0 0 10 12 5 0 6 31 0 1 0 0 0
0 0 13 0 0 0 0 0 0 26 36 15 2 1 0 0
3 4 10 9 11 17 23 28 33 36 42 37 36 40 34 39
39 41 51 62 78 91 101 112 115 121 124 125 125 125 125 122
117 116 103 60 28 14 22 25 25 25 26 26 26 26 26 26
27 26 27 26 27 26 26 26 27 26 25 26 25 24 23 16
0 1 19 25 26 26 26 26 25 25 25 25 25 25 26 25
35 31 30 37 36 33 32 39 21 16 11 0 0 9 18 3
1 0 19 7 7 15 13 12 2 7 31 0 0 0 0 0
0 0 14 0 0 0 0 0 0 23 31 8 0 0 0 0
2 5 8 8 10 13 21 30 32 34 30 32 34 37 46 47
52 66 78 89 101 107 114 122 125 125 125 125 125 124 124 124
124 124 122 106 56 15 17 26 26 26 27 26 26 26 26 25
25 26 26 27 26 27 27 26 27 26 26 26 25 23 21 16
5 7 20 25 26 26 26 26 26 25 25 25 25 25 25 25
2 5 12 17 28 36 41 40 24 14 12 0 0 5 10 0
0 0 27 32 34 37 35 33 34 36 33 0 0 0 0 0
0 0 16 0 0 0 0 0 0 20 30 4 0 0 0 0
4 4 5 5 10 13 22 26 28 22 29 30 33 46 49 57
75 93 105 113 119 121 125 124 125 125 126 125 125 125 125 125
125 124 124 120 100 28 12 25 25 26 25 26 26 26 26 26
26 26 26 26 27 26 27 26 26 25 26 26 25 24 21 17
17 17 22 26 26 26 25 25 25 24 24 25 25 25 25 25
0 0 1 6 0 22 42 38 22 15 14 0 0 0 0 0
0 0 27 34 37 39 37 37 43 45 38 10 8 11 3 1
0 1 18 1 0 0 0 0 0 12 27 1 0 0 0 0
3 0 4 5 8 14 22 25 18 22 23 27 41 51 68 90
103 109 116 121 124 125 126 125 125 125 126 125 125 125 125 124
124 125 125 123 116 61 12 25 26 26 26 26 25 26 26 26
26 25 26 26 27 27 27 26 27 27 26 26 26 25 22 19
19 21 25 26 26 26 26 25 26 25 26 26 26 26 26 25
0 0 10 29 8 30 40 35 20 16 18 14 1 0 0 0
0 0 26 35 36 36 36 38 46 46 42 27 27 27 24 22
23 20 22 15 14 11 11 9 10 16 21 0 0 0 0 3
0 2 3 3 10 15 24 16 19 19 20 32 48 75 99 106
110 117 121 123 125 125 125 125 125 125 126 125 126 125 125 125
125 125 125 124 119 87 14 22 26 26 25 25 25 26 26 26
26 26 26 26 26 27 27 27 26 26 26 25 25 25 23 22
21 26 26 26 26 26 26 25 25 26 25 25 26 26 26 25
0 0 1 25 22 34 38 29 17 18 18 9 0 0 0 0
0 0 27 28 31 32 32 33 32 30 31 28 30 30 28 26
28 28 28 26 24 21 18 17 17 21 18 0 0 0 0 0
0 1 1 6 7 15 12 14 13 14 23 40 64 94 108 112
119 123 123 125 125 126 126 125 126 125 126 126 126 126 125 125
124 125 124 125 123 106 23 24 27 26 26 26 26 26 26 26
26 26 26 26 26 27 27 27 27 27 25 26 25 25 23 24
24 26 26 26 26 27 27 27 27 27 26 26 26 25 25 25
0 0 0 2 9 33 39 26 18 21 20 2 0 0 0 0
0 0 30 30 29 29 30 30 28 26 27 30 31 32 33 30
30 29 29 28 28 32 30 27 24 25 12 0 0 0 0 0
0 0 2 4 6 5 9 10 10 16 28 56 74 97 112 121
123 125 125 125 125 125 125 125 125 125 126 126 126 125 125 125
125 125 125 124 124 115 39 24 26 26 26 26 26 26 26 26
26 26 27 27 27 27 27 27 27 26 25 25 26 24 23 24
24 24 25 25 25 25 26 25 26 25 25 24 25 25 25 25
0 0 0 0 2 32 41 25 19 17 18 22 19 15 11 9
7 4 31 33 30 30 29 30 29 30 32 33 32 34 37 39
33 27 28 29 32 38 37 34 31 31 8 0 0 0 0 0
0 0 2 4 1 4 8 9 12 23 43 64 82 100 116 124
124 125 125 125 125 125 126 126 127 126 126 126 125 125 125 125
125 124 125 124 124 119 52 25 27 27 27 26 26 26 26 25
25 26 26 26 26 25 26 25 26 26 26 26 26 25 24 25
26 25 25 26 26 26 26 25 25 25 25 25 25 25 24 25
0 0 0 0 0 30 41 24 19 19 22 39 40 42 38 40
44 42 44 36 32 32 31 31 32 35 37 37 33 36 39 43
31 28 24 25 32 39 36 34 32 30 5 0 0 0 0 0
0 1 5 1 3 5 8 10 13 32 54 69 85 106 119 125
124 125 125 125 125 125 126 125 125 125 125 125 126 126 125 126
125 125 125 125 124 120 66 24 26 25 26 26 25 26 26 25
25 25 25 26 26 25 26 26 26 26 25 25 25 25 25 26
27 26 26 26 26 27 26 25 25 25 25 24 24 25 24 25
0 0 0 0 1 31 42 25 19 20 22 45 48 47 47 46
47 46 46 37 31 26 29 27 29 35 40 38 34 35 35 30
33 30 28 23 24 32 29 29 32 30 3 0 0 0 0 0
0 3 1 0 0 4 7 8 19 36 53 77 97 109 118 124
125 125 125 125 126 125 126 126 126 125 125 125 125 125 126 125
124 124 125 124 124 121 81 26 26 27 27 26 27 26 25 25
25 25 25 25 26 26 26 26 26 25 25 25 25 26 26 26
26 25 25 24 26 25 26 25 25 25 25 25 25 25 24 24
0 0 0 0 0 30 41 24 15 20 18 32 36 37 39 40
42 43 45 30 3 9 3 3 5 9 22 40 34 27 8 12
16 15 16 24 24 14 2 1 3 7 1 0 0 0 0 0
0 4 0 0 2 4 6 11 22 32 58 87 102 115 123 125
125 125 126 125 126 126 126 125 125 125 125 125 125 125 125 125
125 124 125 124 124 123 95 29 28 27 27 27 26 26 25 25
25 25 25 26 25 25 26 25 25 25 25 25 25 25 25 25
26 25 25 25 25 25 26 25 24 24 25 24 24 23 24 24
0 0 0 0 0 28 37 21 17 21 16 21 24 23 22 22
21 21 24 20 0 0 0 0 0 0 8 38 31 8 0 0
0 2 6 24 26 12 0 0 0 0 0 0 0 0 0 0
0 1 0 2 3 3 6 15 22 41 67 88 108 115 119 123
125 125 125 125 126 125 125 125 125 126 126 126 126 125 125 125
125 125 124 124 124 123 106 32 27 26 26 27 26 26 25 25
24 24 25 25 25 25 25 25 25 25 25 25 25 26 25 25
25 25 25 25 25 25 25 24 24 25 24 24 24 24 24 25
0 0 0 0 0 28 40 23 15 19 17 29 31 30 29 28
27 26 27 20 2 1 0 0 0 3 15 38 23 0 0 0
0 0 4 27 26 14 0 0 0 0 0 0 0 0 0 0
0 1 2 4 2 3 11 14 26 48 70 96 108 116 117 122
125 126 125 126 126 125 125 126 126 126 126 126 126 126 125 125
126 125 125 125 125 124 114 40 26 26 26 26 25 25 24 24
24 24 24 25 25 25 24 20 20 18 18 16 15 19 24 26
25 25 26 26 25 24 24 24 25 24 23 23 24 24 24 24
0 0 0 0 0 32 43 23 14 19 17 30 32 33 33 31
32 32 33 22 0 0 0 0 0 3 15 36 14 0 0 0
0 0 1 28 26 14 0 0 0 0 0 0 0 0 0 0
0 1 2 0 1 6 9 16 31 49 83 105 113 116 118 121
126 125 125 126 125 126 125 125 126 127 125 126 126 126 126 125
125 125 125 126 125 125 117 51 24 21 19 16 14 13 10 8
8 11 17 24 25 25 24 8 1 2 1 2 2 8 25 26
26 25 25 25 25 24 24 25 24 25 24 23 24 25 25 25
12 8 6 3 2 32 39 20 13 19 19 31 33 34 34 34
34 35 36 24 0 1 0 0 2 1 7 36 10 0 0 0
0 0 2 29 26 13 0 0 0 0 0 0 0 0 0 0
1 1 0 1 2 4 9 20 31 61 100 112 114 116 121 124
125 126 127 127 127 127 127 126 127 127 127 127 127 127 127 127
127 126 127 127 126 126 121 60 18 2 2 5 5 4 0 0
0 0 6 26 26 26 26 8 2 2 2 2 1 8 26 27
26 27 26 26 26 26 25 25 26 25 25 25 25 24 25 26
38 36 35 33 31 36 36 28 26 28 24 17 17 18 19 14
15 22 37 27 1 0 0 0 2 3 5 36 8 0 0 0
0 0 2 29 25 13 0 0 0 0 0 0 0 0 0 0
0 0 3 0 0 5 10 17 43 84 108 113 115 118 125 124
124 125 126 127 127 127 125 119 121 120 116 119 125 128 128 127
127 126 127 127 126 126 119 63 17 1 2 7 4 5 0 0
0 0 4 24 26 25 25 7 2 2 3 2 3 9 27 27
27 27 26 26 26 26 25 24 26 25 25 25 25 25 25 26
36 36 36 35 35 35 34 34 34 33 33 32 32 31 31 10
0 6 36 34 10 0 0 0 3 2 4 35 7 0 0 0
0 0 3 32 26 14 1 0 0 0 0 0 0 0 0 2
1 0 0 0 0 1 5 17 49 78 99 109 114 121 125 125
123 124 122 115 105 87 70 102 119 124 84 65 70 74 97 123
129 128 128 128 127 118 98 54 25 9 4 7 4 5 0 1
0 0 5 25 27 27 25 6 4 3 4 3 3 9 26 28
28 28 27 27 28 27 27 27 27 27 26 26 26 26 25 26
36 35 35 35 35 34 35 34 34 33 33 33 33 32 32 14
0 4 34 33 5 0 0 0 2 3 5 35 7 0 0 0
0 0 0 30 27 16 0 0 0 0 0 0 0 0 17 60
60 21 0 0 0 0 0 0 0 0 2 8 20 37 54 71
84 95 99 96 82 47 68 87 103 131 69 41 35 38 57 77
112 129 128 120 88 71 60 37 28 27 22 10 6 7 2 1
1 0 6 25 26 26 26 8 3 3 4 3 3 5 28 29
28 28 28 28 27 26 26 25 26 25 25 25 25 25 25 26
35 34 34 34 34 33 33 32 32 32 32 32 32 32 32 17
0 2 30 27 0 0 0 0 0 0 4 35 7 0 0 0
0 0 0 29 27 13 0 0 0 0 0 0 0 16 83 114
117 86 22 0 0 2 4 8 10 13 8 1 0 0 0 0
0 0 3 16 42 84 79 66 65 70 64 52 43 38 37 68
73 120 118 102 67 63 59 37 21 20 15 6 4 19 1 0
0 0 5 25 27 26 27 13 8 7 7 8 8 7 22 25
26 26 27 27 27 27 26 26 27 27 28 27 27 26 27 26
8 8 8 8 8 8 9 9 9 10 10 11 22 28 31 19
0 0 25 23 0 0 0 0 0 0 3 36 11 0 0 0
0 0 0 27 28 15 1 0 0 1 1 0 2 62 85 77
89 91 65 15 8 23 17 7 1 5 19 30 35 35 31 15
2 0 0 6 20 25 24 18 17 19 19 17 17 15 14 27
68 94 79 82 107 94 82 31 10 3 0 0 0 0 0 1
1 0 4 25 27 27 27 14 8 8 7 8 9 10 22 28
28 28 27 27 27 25 26 25 25 26 27 25 25 25 26 26
0 0 0 0 0 0 0 0 0 0 0 0 23 34 31 22
0 0 21 24 3 2 1 1 4 8 5 34 23 11 10 12
13 11 13 31 30 25 28 28 26 27 19 0 9 88 70 97
99 78 78 40 27 46 50 54 67 67 58 37 18 3 3 16
42 16 24 8 6 8 7 14 20 19 17 9 7 2 4 5
12 68 58 70 70 45 25 7 0 0 0 0 0 0 0 1
1 0 4 24 26 27 26 11 4 4 3 3 4 7 22 26
28 27 27 28 27 27 27 26 25 26 26 25 26 25 25 25
0 0 0 0 0 0 0 0 0 0 0 0 23 34 31 25
0 0 16 32 31 29 24 26 28 30 31 32 41 44 40 39
41 42 42 43 33 24 33 34 36 38 27 0 14 93 76 109
100 80 80 66 49 48 52 59 81 93 103 104 105 94 77 53
43 19 34 12 3 5 12 13 13 10 9 1 0 0 2 4
3 25 68 34 22 36 5 0 0 0 0 0 0 0 0 0
1 0 4 23 26 27 24 11 2 3 3 1 1 7 9 11
15 27 27 26 27 25 26 25 25 25 25 25 25 25 25 26
0 0 0 0 0 0 0 0 0 0 0 0 19 36 30 26
1 0 12 35 36 30 29 31 30 25 25 27 35 45 43 42
40 44 44 45 37 21 30 32 35 39 37 6 13 87 81 110
102 92 95 72 60 62 60 64 80 92 98 101 103 106 105 100
88 46 27 34 9 7 8 9 12 9 7 0 0 0 0 0
0 2 37 24 20 7 0 0 0 0 0 0 0 0 0 0
1 0 3 23 25 27 25 12 3 3 3 2 0 0 13 10
3 26 26 26 26 26 27 26 25 25 25 25 25 24 25 25
0 0 0 0 0 0 0 0 0 0 0 0 18 37 31 26
1 0 10 35 31 25 27 30 31 27 24 27 26 29 31 31
30 30 29 30 30 20 20 25 27 28 25 9 7 81 89 106
93 79 59 70 71 65 59 63 83 93 96 99 103 107 101 101
99 93 34 43 9 4 6 12 13 7 5 0 0 0 0 0
0 5 17 22 1 0 0 0 0 0 0 0 0 0 0 1
1 0 3 23 25 26 25 12 2 3 4 5 0 2 11 9
4 26 27 26 26 25 26 25 25 25 25 25 25 25 25 26
0 0 0 0 0 0 0 0 0 0 0 0 15 37 30 27
3 0 9 35 19 23 22 23 28 28 25 27 23 15 18 18
19 19 18 19 23 24 25 27 27 27 24 13 2 66 94 87
52 49 86 78 77 72 64 75 83 94 93 98 101 103 101 99
100 100 72 7 8 3 6 9 9 5 2 0 0 0 0 0
1 13 8 4 1 0 0 0 0 0 0 0 0 0 0 0
1 0 3 23 25 26 25 11 2 3 3 6 6 8 3 2
3 26 26 26 26 25 26 25 26 25 25 25 25 24 24 24
0 0 0 0 0 0 0 0 0 0 0 0 13 37 30 27
6 5 16 34 9 6 9 11 13 14 14 24 26 20 23 22
27 28 27 26 29 31 31 35 36 35 28 23 7 45 96 72
41 92 102 78 88 87 76 79 83 93 95 97 101 107 98 95
102 99 94 31 4 0 3 1 2 0 0 0 0 0 0 0
12 23 77 62 2 0 0 0 0 0 0 0 0 0 0 0
1 0 3 23 25 26 25 10 1 2 1 3 5 8 4 0
3 25 24 20 23 26 26 25 25 25 25 25 25 25 25 24
0 0 0 0 0 0 0 0 0 0 0 0 11 37 31 28
22 26 31 37 5 0 0 0 0 0 2 21 28 31 37 28
38 46 33 22 23 25 26 30 34 38 29 23 13 21 92 81
46 99 86 70 96 98 83 80 85 94 94 96 101 103 99 101
102 97 96 49 3 0 4 1 0 0 0 0 0 0 2 17
25 56 125 120 32 0 0 0 0 0 0 0 0 0 0 0
1 0 2 22 25 27 25 12 2 2 0 15 13 0 0 0
1 11 5 8 3 18 27 26 26 26 25 25 25 25 24 24
0 0 0 0 0 0 0 0 0 0 0 0 9 38 31 28
34 39 40 39 7 0 0 0 0 0 0 25 27 31 38 25
35 42 22 0 0 0 0 1 15 37 30 25 13 11 77 96
61 71 81 92 101 97 87 79 87 91 94 95 93 99 105 102
100 96 95 44 0 1 4 0 0 0 0 0 0 0 5 10
28 86 122 126 102 9 0 0 0 0 0 0 0 0 0 0
1 0 3 23 25 26 25 12 1 2 11 44 45 4 0 0
4 18 25 26 21 4 26 25 25 25 25 24 25 25 24 24
0 0 0 0 0 0 0 0 0 0 0 0 7 36 31 28
34 41 42 42 11 0 0 0 0 0 0 24 25 29 36 6
4 14 20 0 0 0 0 0 11 37 30 22 12 10 51 100
93 79 78 96 93 93 88 83 89 92 92 93 94 99 103 99
93 96 90 41 3 2 4 1 1 0 0 0 0 0 6 13
37 105 124 127 126 74 0 0 0 0 0 0 0 1 0 0
1 0 2 22 24 26 25 18 11 13 15 30 32 5 0 0
19 26 25 25 25 7 21 26 25 25 25 25 25 24 24 24
0 0 0 0 0 0 0 0 0 0 0 0 6 37 32 28
28 28 27 25 5 0 0 0 0 0 0 27 25 30 35 5
0 11 21 0 0 0 0 0 6 33 28 17 12 3 30 102
98 102 94 62 78 89 89 86 93 93 90 91 92 97 98 85
87 68 81 44 4 8 6 4 2 0 0 0 0 0 12 21
66 114 129 128 127 116 7 0 0 0 0 0 1 0 0 0
1 0 2 23 25 27 25 25 26 25 5 6 8 0 0 0
20 26 26 26 26 9 19 24 24 24 24 24 24 24 24 23
0 0 0 0 0 0 0 0 0 0 0 0 4 35 31 26
17 7 9 8 0 0 0 0 0 0 0 28 24 31 36 5
0 10 22 0 0 0 0 0 4 31 27 19 11 2 12 74
104 98 102 92 83 90 88 89 94 92 90 89 89 89 91 74
73 85 92 64 2 9 10 11 6 0 0 0 0 1 16 51
111 121 122 126 126 108 3 0 0 0 0 3 8 0 0 0
0 0 2 21 23 25 26 27 20 15 4 0 0 0 0 0
17 27 26 26 26 9 20 26 25 25 25 25 25 25 24 24
0 0 0 0 0 0 0 0 0 0 0 0 3 33 31 27
18 8 11 9 0 0 0 0 0 0 0 28 23 31 36 5
0 8 23 0 0 0 0 0 2 27 23 14 20 4 6 28
94 101 102 101 95 92 88 90 93 93 91 88 89 89 83 71
68 86 100 89 11 8 8 4 1 0 0 0 0 2 31 110
123 85 75 110 115 59 0 0 0 0 0 7 1 0 0 0
1 0 2 22 25 26 26 26 6 22 22 0 0 0 0 0
16 26 25 24 24 7 24 25 24 24 24 23 24 23 23 23
0 0 0 0 0 0 0 0 0 0 0 0 2 31 31 25
19 11 13 10 0 0 0 0 0 0 0 26 24 32 35 4
0 7 22 0 0 0 0 0 2 24 17 19 25 8 3 12
59 101 102 96 91 94 85 90 91 95 90 89 86 86 86 81
84 95 98 95 53 8 7 2 0 0 0 0 7 27 63 121
60 71 88 92 87 15 0 0 0 0 0 3 2 2 1 0
0 1 8 22 24 25 25 25 16 40 41 5 0 0 0 0
15 25 25 24 15 10 25 25 25 24 24 24 24 23 24 24
0 0 0 0 0 0 0 0 0 0 0 0 1 32 31 26
22 15 15 11 0 0 0 0 1 0 0 24 24 32 35 10
1 6 23 4 0 0 1 0 4 19 14 22 31 16 2 5
29 76 94 96 94 92 84 88 92 95 93 91 85 89 91 90
91 96 96 92 89 52 17 13 7 4 9 23 68 79 67 104
110 125 114 101 95 38 12 2 1 2 11 15 11 6 4 1
0 2 4 7 7 6 5 4 3 9 4 1 0 0 0 0
3 5 6 7 4 22 9 7 16 24 24 24 24 24 23 24
0 0 0 0 0 0 0 0 0 0 0 0 1 31 31 25
21 16 17 13 0 3 0 0 4 9 1 23 26 33 34 14
8 5 21 1 4 5 4 0 5 17 25 25 33 26 3 1
19 58 74 79 67 72 82 87 91 95 95 92 89 90 91 93
96 96 95 92 83 81 72 57 47 53 77 112 127 124 115 113
126 127 122 116 112 118 96 72 35 20 20 16 12 0 0 0
0 0 0 0 0 0 0 0 0 0 0 0 0 0 1 1
0 0 0 0 0 8 5 35 12 25 25 24 25 24 23 23
0 0 0 0 0 0 0 0 0 0 0 0 0 29 31 25
23 17 17 16 0 4 2 1 6 13 8 21 30 33 34 11
18 6 20 0 4 7 3 0 7 19 23 27 30 31 18 2
11 49 72 83 78 70 78 84 90 94 95 94 92 91 94 98
103 107 110 111 111 112 117 122 125 126 126 127 127 127 127 126
127 126 126 123 109 116 118 107 43 19 19 16 14 1 0 8
11 14 16 16 17 18 19 18 18 18 18 19 20 21 21 21
18 9 0 1 19 4 11 76 37 23 24 24 25 25 24 25
0 0 0 0 0 0 0 0 0 0 0 0 0 29 32 25
22 18 17 23 25 28 30 30 31 33 33 39 36 33 32 4
20 8 22 11 14 15 13 14 17 21 25 31 28 27 21 4
5 37 67 82 87 75 75 83 89 93 94 95 95 96 98 105
109 116 122 124 125 125 126 127 126 126 126 126 127 127 126 127
126 126 125 122 111 110 115 108 36 15 12 9 11 2 0 13
17 20 21 22 22 22 22 22 22 22 22 24 24 25 25 24
20 9 0 0 4 1 0 15 9 2 3 8 36 35 35 33
0 0 0 0 0 0 0 0 0 0 0 0 0 29 33 26
23 20 19 24 39 40 40 41 40 40 41 45 44 33 32 1
9 10 24 18 19 18 17 19 19 28 27 32 25 24 19 10
6 26 65 81 87 79 73 83 88 93 93 95 97 99 97 105
110 117 123 124 126 127 127 127 127 127 127 127 127 127 127 127
127 126 123 120 108 108 111 101 29 7 0 0 0 0 0 14
17 21 23 24 25 24 24 23 24 23 24 25 26 26 26 25
22 10 0 0 0 0 0 0 0 1 0 6 42 43 42 39
0 0 0 0 0 0 0 0 0 0 0 0 0 29 33 26
23 19 19 20 40 41 40 40 40 40 39 41 42 33 31 1
2 4 24 18 21 21 20 21 25 25 31 31 23 25 17 9
7 17 62 79 87 82 74 82 88 94 92 94 95 99 100 104
110 114 121 123 125 124 126 127 127 128 127 127 128 128 128 127
120 111 109 103 97 101 106 94 23 7 0 0 0 0 1 14
18 22 23 24 25 25 25 25 25 25 27 28 28 28 27 26
24 11 0 0 0 0 0 0 0 1 0 7 42 41 41 37
0 0 0 0 0 0 0 0 0 0 0 0 0 29 33 25
23 20 20 14 17 15 15 13 13 13 13 14 15 26 30 1
1 3 24 20 23 23 22 29 26 25 34 28 21 23 11 4
10 16 56 78 88 87 76 83 89 93 93 93 96 94 100 104
108 110 119 123 124 126 128 128 127 128 127 127 127 127 121 108
101 87 87 82 80 89 105 79 20 9 2 0 0 0 1 14
17 21 24 25 26 27 27 27 27 28 29 29 30 29 28 26
25 12 0 0 0 0 0 0 0 0 26 34 38 38 36 34
0 0 0 0 0 0 0 0 0 0 0 0 0 29 32 25
22 20 19 14 9 8 8 8 8 9 9 12 13 27 31 1
0 2 24 19 23 23 23 25 24 27 34 26 19 18 6 0
8 13 48 77 87 90 81 82 89 93 94 94 97 97 101 104
109 111 116 118 122 127 127 128 128 127 123 116 107 100 96 99
108 108 114 108 92 92 104 53 19 18 14 0 0 0 2 15
17 21 23 25 26 27 27 27 28 29 29 30 31 30 30 28
27 13 0 0 0 0 0 0 0 2 35 35 35 35 34 32
0 0 0 0 0 0 0 0 0 0 0 0 0 27 32 25
22 20 19 17 14 12 11 10 10 11 11 13 14 28 32 8
11 14 27 19 24 24 22 25 26 27 31 24 17 14 2 0
7 14 44 76 87 92 86 82 86 89 92 94 95 96 98 100
104 110 113 116 123 127 128 128 128 119 99 91 101 113 122 125
126 123 121 114 99 106 98 23 8 9 8 31 2 0 2 15
17 20 22 24 26 26 27 28 29 29 30 31 31 30 30 28
27 12 0 0 0 0 0 0 0 4 33 33 32 32 31 30
0 0 0 0 0 0 0 0 0 0 0 0 0 28 32 24
22 19 19 18 16 16 16 15 15 14 14 15 15 31 35 25
38 40 33 18 23 24 21 25 30 27 30 20 18 10 0 0
5 14 39 77 87 93 90 87 87 89 93 94 95 96 98 99
103 106 109 114 120 126 127 126 121 118 125 117 112 108 108 108
113 110 104 96 94 103 70 10 3 8 5 0 0 0 3 16
18 19 22 24 25 25 26 27 28 29 30 30 30 30 30 29
29 12 0 0 0 0 0 0 0 5 31 30 30 30 29 28
0 0 0 0 0 0 0 0 0 0 0 0 0 30 33 24
22 19 19 19 17 17 16 16 17 16 16 16 14 26 27 20
28 29 25 20 24 23 22 25 26 24 26 17 18 7 0 0
6 13 37 78 88 94 93 91 89 89 92 93 89 93 94 99
98 104 107 111 114 120 122 121 116 120 126 122 111 101 86 73
78 85 98 109 106 96 28 9 3 8 5 31 0 0 4 15
17 19 21 22 24 25 26 27 29 30 30 30 30 30 30 29
29 12 0 0 14 27 5 0 0 7 29 29 28 28 28 27
5 6 8 10 11 12 13 14 16 17 19 20 21 28 27 24
21 18 19 13 9 15 16 16 16 16 16 16 16 21 21 18
17 21 22 22 23 23 22 21 23 20 23 16 20 4 0 0
1 14 35 78 87 93 94 92 92 90 92 91 92 91 93 98
99 99 102 105 109 115 116 116 114 119 123 125 125 124 125 126
127 127 126 115 107 61 9 11 3 6 1 2 0 0 4 16
17 18 20 21 23 24 25 27 27 29 29 29 30 30 30 30
30 11 0 0 21 34 4 0 0 10 28 27 27 27 27 27
16 16 13 16 26 28 27 27 27 25 25 25 24 24 24 24
22 19 17 6 14 7 17 16 16 15 15 15 18 22 21 21
18 21 22 22 23 24 21 22 17 16 19 19 22 1 0 0
1 8 38 80 89 94 94 95 96 94 91 90 88 91 90 93
95 96 98 102 104 108 108 117 122 123 123 127 127 127 127 128
127 128 126 117 95 17 10 11 4 5 2 1 0 0 4 15
16 18 20 21 22 24 25 26 28 29 29 29 30 30 30 30
30 9 0 0 0 0 0 0 0 13 28 27 27 27 27 26
29 29 27 19 11 19 27 27 27 26 26 25 25 25 25 24
21 18 12 10 19 11 11 4 6 16 16 16 19 22 22 23
20 21 23 22 23 23 21 20 13 17 16 18 26 2 0 0
0 3 35 82 88 94 95 96 96 96 94 91 90 91 90 93
92 83 92 102 105 107 109 117 121 124 127 127 128 128 128 128
128 128 124 115 54 9 12 13 5 5 5 4 0 0 6 16
17 18 20 20 22 23 24 25 27 28 28 29 29 30 31 31
30 9 0 0 1 1 0 0 0 15 27 27 27 26 27 27
30 30 29 30 28 16 15 27 26 26 25 24 24 23 22 20
17 38 17 14 19 16 4 0 6 17 17 16 20 22 23 21
21 21 22 23 23 24 21 15 10 15 10 20 22 7 1 0
0 0 28 82 87 95 96 98 97 97 96 94 92 91 90 88
90 89 90 96 100 105 107 110 119 122 123 125 128 128 128 128
127 126 119 101 22 12 13 15 9 5 5 2 0 0 6 16
16 18 19 21 21 23 25 26 27 28 29 29 30 30 30 31
30 7 0 0 0 0 0 0 0 19 28 27 27 27 26 27
29 28 27 25 23 21 11 12 15 12 10 10 10 11 4 0
2 58 33 18 17 16 4 0 14 17 17 18 21 23 23 23
23 22 22 22 23 23 16 11 8 11 5 18 18 12 4 2
0 0 25 82 90 96 97 99 98 94 96 94 93 91 91 89
86 86 90 91 92 94 98 105 106 113 118 123 125 125 127 126
123 118 110 63 12 12 12 15 10 3 8 0 0 0 7 16
17 18 20 21 22 23 24 25 27 27 28 29 30 30 30 31
30 7 0 0 0 0 0 0 0 19 27 26 26 26 26 27
16 15 14 11 4 1 0 0 0 0 0 3 2 1 0 0
0 45 35 22 4 12 35 3 12 12 15 17 21 24 22 23
22 23 23 23 24 24 14 12 11 6 5 12 16 13 10 11
7 1 28 82 91 96 98 100 100 99 96 95 92 89 92 90
88 87 87 89 83 84 78 80 85 98 103 111 114 113 113 112
109 104 72 16 13 14 12 13 11 2 13 0 0 0 8 17
17 18 19 21 22 23 23 26 28 28 29 28 29 30 30 31
30 6 0 0 0 0 0 0 0 12 27 26 26 26 26 26
28 27 31 30 28 28 27 6 0 1 2 1 0 0 0 0
0 37 29 10 2 44 42 11 0 0 0 4 14 23 23 23
23 22 22 21 22 22 13 9 5 3 0 6 13 10 17 18
24 26 45 82 90 94 98 101 101 101 98 95 94 91 91 90
93 94 97 97 102 102 96 87 78 77 81 90 91 90 88 84
76 44 20 16 17 22 25 28 29 11 11 0 0 0 9 18
18 19 20 21 22 23 24 26 27 27 28 28 29 30 30 31
32 6 0 0 0 0 0 0 0 7 22 26 25 25 26 26
49 48 47 45 43 41 35 15 0 0 2 3 0 0 0 0
9 28 25 9 3 19 28 20 0 0 0 0 0 13 22 22
22 22 21 21 21 23 12 6 3 1 0 0 6 9 13 22
24 26 52 83 89 95 98 100 101 101 100 98 96 93 93 90
92 96 101 103 107 109 111 111 101 85 72 65 61 59 63 74
25 0 7 20 21 20 19 34 39 12 9 0 0 0 11 20
19 19 20 22 22 23 26 27 27 28 28 29 30 31 31 33
35 5 0 1 2 0 0 0 2 20 10 25 25 25 25 26
47 46 42 38 35 41 37 25 4 0 1 0 0 0 0 0
12 12 26 13 0 19 29 25 3 0 0 0 0 4 23 22
22 22 21 20 20 20 9 1 1 0 0 0 0 10 19 49
17 11 57 85 89 95 98 98 101 101 101 100 97 95 95 91
81 98 99 105 107 108 109 110 110 108 101 98 96 96 95 59
6 0 0 8 19 27 26 18 27 5 3 0 0 0 11 19
17 18 20 21 23 24 25 27 27 28 29 29 31 31 33 35
37 5 0 59 94 29 0 0 3 25 8 20 25 24 24 25
54 52 53 49 40 38 36 26 1 1 4 5 1 0 0 0
0 2 23 21 0 23 33 21 10 0 0 0 0 3 22 21
21 21 20 19 18 17 10 1 0 0 0 0 1 15 53 61
18 12 69 85 90 96 99 100 101 103 102 101 99 97 97 96
96 96 97 100 103 105 106 103 105 109 104 102 101 95 69 38
56 29 2 3 5 15 29 20 22 2 0 0 0 0 0 0
0 0 0 1 1 2 9 8 7 2 3 3 3 3 4 4
4 0 2 103 129 42 0 0 5 25 20 8 25 24 24 24
45 43 40 33 25 23 21 3 1 37 77 53 4 0 0 0
0 0 1 1 0 36 38 1 11 2 0 0 0 9 23 21
21 20 19 17 16 15 12 0 0 0 16 35 49 55 61 62
30 57 77 87 91 97 100 102 102 103 104 104 103 101 100 98
98 96 98 97 99 101 101 101 101 100 97 94 89 84 74 31
50 68 54 30 18 13 19 15 6 0 0 0 0 0 0 0
0 0 0 0 0 0 0 0 0 0 0 0 0 0 0 0
0 0 0 34 48 9 0 0 8 25 24 9 18 24 25 25
31 30 28 20 17 17 16 1 0 6 32 6 0 0 0 0
0 0 0 0 0 49 54 1 8 6 0 0 2 18 21 20
20 18 17 15 15 14 11 1 18 40 41 40 57 57 62 64
46 69 81 88 91 97 100 103 105 104 107 107 106 104 104 102
100 100 100 98 97 97 98 96 93 91 86 88 86 82 77 43
50 76 66 64 62 57 44 29 24 1 0 0 0 0 0 0
0 0 0 0 0 0 0 0 0 0 0 1 0 0 0 0
0 1 2 0 0 0 0 0 10 24 18 5 0 14 25 24
19 25 25 18 17 17 16 11 16 1 4 1 0 0 0 0
0 0 0 0 0 38 53 0 4 5 0 0 0 1 10 20
19 17 16 15 15 18 29 38 51 58 42 44 58 60 63 67
55 73 85 88 91 97 100 104 107 109 107 109 108 106 106 106
104 102 101 99 98 91 89 87 82 80 93 111 88 82 77 53
45 75 72 69 68 70 67 58 59 54 39 20 3 1 1 1
1 0 0 0 0 0 0 0 0 0 0 0 0 0 0 0
0 0 3 0 0 0 0 0 0 12 3 14 6 10 24 23
0 10 16 8 5 11 9 5 4 2 3 0 0 0 0 0
0 0 13 31 20 25 51 0 8 4 0 0 0 0 2 19
18 19 29 42 48 40 46 49 48 57 46 55 57 59 63 67
65 70 87 90 91 96 101 104 108 110 112 108 109 109 108 107
105 104 103 99 96 93 88 83 83 95 116 110 85 85 82 61
44 74 79 75 72 77 69 57 71 71 66 65 65 53 30 9
6 5 4 5 4 4 4 1 1 1 1 2 1 0 0 0
0 0 0 0 0 0 0 0 0 5 1 20 12 9 24 23
0 0 0 0 0 0 0 0 0 1 35 4 0 0 0 0
0 0 31 69 38 18 56 0 0 0 11 33 50 58 63 65
65 66 67 69 69 55 51 57 57 64 61 52 60 58 63 66
68 64 88 93 93 95 100 103 107 110 112 113 110 111 110 109
106 105 103 100 97 94 88 90 100 118 123 99 86 85 84 69
50 68 84 79 77 81 66 72 84 83 81 82 80 76 76 73
54 29 7 0 0 1 1 0 0 0 0 0 0 0 0 0
0 0 0 0 0 0 0 0 0 0 0 1 1 3 20 23
0 0 0 0 0 0 2 6 9 1 8 0 0 0 0 4
13 0 26 81 48 14 66 2 19 54 73 76 78 78 79 82
87 85 81 80 82 78 68 70 67 66 73 62 69 62 60 65
67 65 78 93 94 95 99 102 106 110 112 114 116 113 113 111
110 107 104 101 98 96 98 107 122 128 119 89 88 87 86 66
72 70 90 86 87 84 78 90 96 94 93 95 87 80 79 78
79 78 75 53 22 1 0 0 0 0 0 0 0 0 0 0
0 0 1 0 0 0 0 0 0 0 0 0 0 0 5 22
0 0 0 0 3 14 24 22 20 3 0 3 0 0 0 9
19 0 18 76 61 20 73 51 69 75 78 80 84 83 84 84
89 93 95 94 91 90 81 83 75 80 87 80 83 75 69 66
67 68 68 89 96 95 97 101 105 110 111 112 116 119 118 114
113 112 110 108 108 109 116 126 129 126 108 86 89 86 87 82
93 85 96 91 95 91 87 98 100 98 95 89 82 82 83 85
86 88 86 82 79 59 18 0 0 0 0 0 0 0 0 0
0 0 0 0 0 0 0 0 0 0 0 0 0 0 0 7
6 15 14 15 17 19 22 23 20 6 0 0 0 0 0 8
24 9 14 45 37 37 61 71 76 81 85 87 89 89 90 89
88 94 97 99 94 92 91 86 89 93 94 93 92 93 86 76
68 66 73 77 94 95 95 97 104 110 112 113 116 119 122 124
124 121 119 120 122 126 128 128 128 113 95 84 89 87 101 94
102 88 99 93 98 92 90 102 103 98 92 80 85 89 87 90
93 92 90 89 86 82 77 38 1 0 0 0 0 0 0 0
0 0 0 0 0 0 0 0 0 0 0 0 0 0 0 0
28 32 29 26 27 28 28 26 24 20 21 23 28 16 8 7
21 22 15 18 35 63 71 78 81 87 88 90 90 91 91 92
89 90 98 101 97 95 96 94 91 94 95 97 92 96 96 91
80 70 68 85 82 95 94 95 101 110 113 115 117 119 120 123
124 125 125 123 128 129 129 129 122 102 84 82 86 94 99 99
102 88 100 95 100 92 96 106 103 93 83 87 95 90 91 95
96 94 91 93 95 92 88 84 54 2 0 0 0 0 0 0
0 0 0 0 0 0 0 0 0 0 0 0 0 0 0 0
31 32 32 29 31 31 32 26 25 24 26 31 31 13 16 8
38 13 10 32 60 71 77 83 87 88 90 93 94 95 91 93
92 93 92 101 99 97 99 99 97 94 93 96 92 93 97 94
90 72 65 71 85 78 91 93 99 107 112 117 119 121 121 123
124 124 125 126 129 129 128 117 98 83 79 82 91 103 96 103
103 90 103 97 100 92 101 107 101 89 86 98 101 93 94 97
97 95 92 99 99 96 94 92 87 55 5 0 0 0 0 0
0 0 0 0 0 0 0 0 0 0 0 0 0 0 0 0
37 37 38 36 34 29 32 26 20 20 21 17 10 4 15 6
2 0 20 57 66 80 83 86 88 89 92 96 97 96 92 92
97 95 94 96 101 98 100 98 97 98 99 98 94 90 95 94
95 87 67 65 69 85 83 85 94 103 112 115 116 120 123 123
123 125 126 129 129 123 111 98 84 81 82 90 101 100 95 105
102 92 103 102 101 96 103 106 98 82 94 104 98 91 96 99
97 92 95 102 101 99 98 98 90 82 60 7 0 0 0 0
0 0 0 0 0 0 0 0 0 0 0 0 0 0 0 0
36 37 37 36 33 26 26 20 14 13 14 10 0 0 14 7
0 12 47 60 75 88 86 89 89 88 93 98 100 99 95 91
98 98 97 97 98 99 100 99 97 96 98 98 95 93 93 96
95 92 84 66 64 71 87 93 91 101 109 113 119 121 121 121
122 124 125 118 109 98 92 85 79 78 88 101 101 95 103 108
101 94 105 103 101 98 105 104 92 79 100 105 96 93 99 102
98 90 100 105 103 101 99 102 87 83 78 61 7 0 0 0
0 0 0 0 0 0 0 0 0 0 0 0 0 0 0 0
33 40 39 39 28 19 13 11 10 10 12 10 9 14 7 2
9 47 58 65 92 91 89 92 93 87 94 98 102 99 96 93
93 100 98 95 97 99 101 100 98 96 96 96 97 97 93 93
95 94 93 81 67 63 66 78 95 95 98 107 107 111 112 111
110 103 99 96 91 89 84 82 85 87 99 102 98 99 108 110
98 94 106 103 101 100 107 103 87 84 106 107 96 96 102 102
95 88 104 108 105 103 104 105 80 87 82 81 42 0 0 0
0 0 0 0 0 0 0 0 0 0 0 0 0 0 0 0
11 9 15 22 26 15 9 8 9 9 13 10 23 25 3 9
29 59 61 74 97 93 91 94 98 84 93 96 102 100 97 95
92 99 99 96 96 97 99 99 99 99 99 98 96 97 102 93
95 96 97 94 81 65 62 68 77 78 86 92 92 95 94 92
94 91 89 88 86 85 81 81 88 99 104 99 96 106 108 110
97 98 107 106 102 102 107 100 84 90 109 106 97 99 103 102
92 90 107 109 107 105 107 105 71 90 89 87 80 17 0 0
0 0 0 0 0 0 0 0 0 0 0 0 0 0 0 0
30 24 20 19 16 5 5 3 3 4 14 21 63 34 31 29
57 60 62 83 99 96 94 97 98 82 93 95 99 100 96 97
90 99 100 98 98 99 100 99 99 99 98 99 96 95 102 100
94 93 96 98 96 89 76 68 75 79 73 71 83 81 82 86
86 86 82 83 86 84 85 92 97 103 100 97 102 109 110 108
96 100 107 106 104 105 107 94 85 99 110 107 100 99 103 99
88 93 107 109 106 107 109 100 67 93 94 90 92 67 2 0
0 0 0 0 0 0 0 0 0 0 0 0 0 0 0 0
32 31 30 26 15 7 7 2 1 1 67 63 40 41 53 55
60 60 64 90 99 97 95 97 99 82 90 95 98 102 97 97
92 96 101 99 98 99 100 99 100 101 101 100 98 96 102 100
100 95 95 96 96 94 93 79 91 86 82 86 79 80 81 80
80 85 87 89 88 90 93 96 98 98 103 98 106 109 112 108
99 103 107 107 105 106 106 91 87 103 112 107 101 99 102 98
84 95 108 108 105 109 109 93 69 95 94 90 98 90 44 0
0 0 0 0 0 0 0 0 0 0 0 0 0 0 0 0
32 32 31 24 13 12 12 9 9 8 62 76 35 42 58 58
62 63 68 93 100 98 95 97 99 80 89 96 97 101 96 97
96 95 102 100 100 100 100 100 101 101 100 102 99 97 101 103
100 101 101 95 97 96 94 92 91 91 88 89 93 88 89 91
92 91 92 93 96 97 99 96 96 106 107 98 109 110 112 106
101 103 107 106 106 107 104 90 90 105 112 108 102 100 100 95
82 98 108 109 107 109 108 80 75 98 90 91 103 93 88 21
0 0 0 0 0 0 0 0 0 0 0 0 0 0 0 0
31 30 23 15 11 11 11 10 10 9 49 91 30 42 60 65
63 61 70 93 98 100 96 97 99 77 87 98 98 103 98 96
100 95 102 102 101 101 101 100 101 101 101 103 102 99 102 103
101 100 102 103 96 95 95 97 98 98 95 96 95 95 95 98
95 96 97 99 97 96 94 100 108 111 96 104 110 112 112 106
102 104 107 106 107 105 100 88 92 106 112 109 103 100 99 93
83 102 108 109 108 110 107 72 82 98 86 98 104 98 95 76
6 0 0 0 0 0 0 0 0 0 0 0 0 0 0 0
32 29 16 11 11 11 11 10 11 10 28 96 32 46 67 70
64 63 71 93 96 100 99 98 98 75 86 98 98 105 101 94
101 98 101 104 103 103 102 102 102 101 102 104 101 101 102 103
103 100 102 103 104 101 84 85 92 95 96 99 98 99 96 97
98 98 95 95 91 100 108 112 111 102 98 109 111 112 110 105
102 102 108 109 106 106 99 86 95 109 113 110 104 100 98 91
82 102 107 108 109 110 101 67 88 96 88 103 105 101 97 95
53 0 0 0 0 0 0 0 0 0 0 0 0 0 0 0
32 29 15 11 11 11 10 10 10 10 18 109 42 56 71 70
67 65 70 92 96 101 101 99 97 74 84 97 98 104 103 92
100 101 100 103 104 104 104 102 102 101 103 104 102 102 103 103
102 102 103 105 106 105 106 97 82 79 80 87 91 93 95 94
91 94 98 104 110 110 110 111 106 96 104 110 112 110 107 105
103 103 108 108 107 104 95 85 100 111 113 109 103 99 96 88
85 103 107 107 109 110 91 70 94 89 93 105 105 103 98 100
90 30 0 0 0 0 0 0 0 0 0 0 0 0 0 0
33 28 14 11 11 11 11 11 11 10 10 46 40 67 71 71
68 66 67 90 97 100 101 100 97 73 83 98 98 104 105 90
99 101 101 102 103 103 104 103 104 103 103 103 102 102 103 101
102 103 105 105 104 107 107 106 106 103 102 99 94 92 95 98
104 108 108 112 109 111 111 109 98 100 109 110 111 109 106 106
103 102 107 110 108 103 93 87 106 113 112 109 103 98 97 87
84 103 107 105 108 109 79 74 99 82 98 107 105 105 101 101
97 81 9 0 0 0 0 0 0 0 0 0 0 0 0 0
32 29 16 12 11 11 11 10 10 11 9 4 49 71 72 72
68 70 67 88 96 102 102 101 95 70 81 97 99 105 106 90
95 103 101 102 103 103 103 103 103 103 103 102 102 101 103 103
104 105 104 106 108 108 107 107 106 105 106 105 106 107 108 107
109 109 109 112 110 110 110 102 96 105 110 110 110 108 108 106
105 102 108 110 108 101 87 93 108 111 111 108 103 96 95 88
85 104 107 106 110 105 72 78 100 80 102 105 105 106 102 101
101 94 61 1 0 0 0 0 0 0 0 0 0 0 0 0
25 29 17 12 12 12 11 11 12 17 13 17 67 72 75 73
68 67 67 83 98 102 105 104 93 70 80 96 99 104 107 91
92 102 103 103 104 105 103 104 104 104 105 103 104 102 105 103
104 105 104 105 106 107 107 107 107 107 108 107 108 107 110 110
109 109 110 111 111 111 106 98 100 108 111 110 109 108 107 106
106 102 107 109 107 97 87 100 109 112 111 109 102 98 96 90
87 105 106 103 111 100 70 84 99 76 106 106 105 106 105 104
104 100 91 30 0 0 0 0 0 0 0 0 0 0 0 0
17 20 14 13 12 13 11 10 15 24 22 52 72 74 78 78
70 67 66 77 98 101 104 104 91 68 79 94 99 105 107 90
91 102 103 103 104 104 103 103 104 104 102 103 103 103 104 104
107 107 106 107 108 108 107 107 107 108 108 108 108 108 109 110
110 110 110 111 110 109 103 98 102 109 111 111 108 107 107 107
106 104 107 109 107 89 91 105 110 113 111 108 104 98 96 88
89 104 106 100 109 96 70 86 100 80 107 104 104 104 105 104
105 101 98 80 8 0 0 0 0 0 0 0 0 0 0 0
15 14 9 16 20 20 13 10 16 26 39 68 73 77 79 87
76 67 63 71 100 100 103 105 90 67 77 93 99 102 105 91
88 100 103 103 104 103 104 105 104 104 104 105 103 104 104 105
106 106 106 106 107 106 108 107 109 109 109 109 108 109 109 109
109 110 112 110 107 106 100 100 106 110 112 110 108 106 108 108
107 105 108 111 104 87 96 106 109 112 112 109 102 100 96 88
91 105 104 99 106 94 68 86 92 83 106 99 106 103 103 105
106 102 100 95 57 0 0 0 0 0 0 0 0 0 0 0
16 14 9 18 26 25 12 10 17 28 58 70 75 79 76 90
82 69 63 66 95 100 102 104 88 65 75 92 99 101 105 92
88 99 103 103 103 103 103 103 103 104 103 103 103 103 104 105
105 105 104 106 107 106 107 106 106 107 108 107 107 108 108 111
110 111 111 110 107 103 100 104 108 109 111 108 106 106 107 108
107 106 109 108 99 88 101 108 111 112 111 106 101 99 95 88
92 105 103 97 105 94 69 86 88 83 103 98 106 101 104 105
104 102 101 99 90 28 0 0 0 0 0 0 0 0 0 0
24 18 12 21 28 24 11 9 18 41 66 72 76 83 75 88
90 73 60 61 87 100 99 102 84 62 71 90 100 100 104 94
87 97 103 103 102 104 104 104 104 103 103 104 102 103 103 103
105 106 104 106 107 106 106 106 107 108 107 108 108 108 109 109
110 109 109 107 105 102 100 107 110 110 108 108 107 106 109 108
106 106 107 101 93 92 103 108 110 112 111 106 101 100 95 89
95 105 99 93 102 96 73 85 82 83 101 98 104 104 105 103
103 103 102 99 94 76 5 0 0 0 0 0 0 0 0 0
29 28 22 24 27 22 10 8 21 58 68 74 76 83 78 84
94 80 62 60 77 100 99 100 83 62 68 86 100 100 103 93
84 94 103 103 102 103 103 103 103 103 103 103 104 103 103 105
106 104 105 106 105 105 106 106 105 107 106 107 106 107 108 109
109 109 107 107 105 102 101 107 111 110 108 107 106 107 108 106
105 104 101 94 90 98 106 107 110 110 109 105 100 99 94 87
95 105 97 91 98 98 80 83 80 83 97 100 103 102 104 103
103 103 103 101 97 93 47 0 0 0 0 0 0 0 0 0
27 27 23 21 25 19 8 7 35 65 71 75 77 82 85 78
92 88 68 59 68 98 99 98 81 62 66 83 100 100 104 97
83 90 101 102 102 103 104 103 103 104 103 103 105 104 102 105
103 104 104 105 105 105 105 106 106 108 107 106 108 108 108 109
108 106 106 104 103 101 104 109 110 110 107 105 105 106 107 105
104 102 94 92 95 102 107 107 108 110 108 105 100 98 93 87
94 104 95 90 92 94 86 85 78 82 94 100 102 102 102 104
103 102 102 102 98 97 83 18 0 0 0 0 0 0 0 0
28 27 25 21 24 17 8 13 58 68 72 74 76 83 86 79
86 90 80 59 62 92 98 99 85 60 63 82 99 98 104 100
81 88 101 103 102 103 104 101 102 102 103 103 105 104 104 104
105 104 105 105 106 107 106 106 106 107 106 106 106 108 107 108
108 107 106 105 102 101 104 109 110 109 106 105 106 107 107 105
100 97 90 94 101 105 107 109 109 111 108 105 101 97 92 88
96 104 94 87 91 91 90 91 72 81 90 101 102 102 101 102
104 103 103 102 100 100 91 67 3 0 0 0 0 0 0 0
27 27 26 20 22 16 9 36 65 71 74 79 78 81 93 82
81 90 90 59 58 88 101 100 86 59 61 81 101 99 104 101
81 87 99 103 103 103 102 102 103 103 103 104 104 103 105 104
104 104 103 104 105 106 105 107 107 106 108 107 108 108 108 108
107 106 106 105 102 102 106 109 110 108 107 106 107 107 108 101
95 93 94 102 107 107 107 107 107 109 108 105 103 97 92 89
98 104 93 83 91 92 91 93 64 81 86 100 101 101 99 102
102 102 103 103 102 100 92 86 42 0 0 0 0 0 0 0
28 27 26 24 19 14 13 58 67 72 73 79 78 79 95 86
82 84 93 69 55 79 99 102 85 61 59 82 101 101 103 101
81 84 97 103 103 102 102 104 103 103 103 104 103 103 105 103
104 104 104 105 105 105 106 105 105 106 105 105 108 108 109 108
108 107 107 103 101 104 109 111 109 107 107 105 106 106 105 97
91 96 100 105 107 109 109 108 108 108 108 106 102 95 92 91
97 104 90 81 90 93 91 96 62 81 85 100 102 100 101 102
103 102 102 102 103 102 94 92 81 23 0 0 0 0 0 0
27 26 26 25 20 11 32 65 69 73 75 79 80 82 93 87
86 80 93 80 52 70 98 100 86 61 58 83 100 101 105 100
82 83 96 103 103 102 102 103 102 102 103 103 103 103 104 102
103 104 104 103 104 104 104 105 105 106 107 107 108 108 107 107
108 108 106 103 102 106 108 110 109 108 105 106 106 108 102 92
93 100 106 108 108 109 108 107 108 107 107 105 103 96 93 93
99 103 90 77 91 92 93 97 59 82 83 99 99 99 101 102
102 102 102 102 103 100 97 96 90 69 7 0 0 0 0 0
27 27 26 25 21 14 53 66 71 74 78 79 80 84 93 86
86 86 89 91 52 67 96 100 87 59 59 84 101 102 104 101
84 80 92 102 102 103 103 103 102 103 103 102 103 103 104 102
104 105 105 105 105 106 106 105 106 106 108 107 107 106 107 106
107 106 104 103 103 108 110 109 108 106 105 107 108 105 95 90
98 106 108 107 108 108 107 106 107 106 107 104 102 94 93 93
101 103 89 73 93 95 92 98 58 83 84 100 100 97 99 101
101 101 103 102 103 101 100 98 92 87 54 1 0 0 0 0
