P2
128 120
127
18 20 40 38 30 31 31 31 30 30 30 29 30 29 29 28
28 28 27 27 27 27 27 26 26 26 25 25 24 25 24 23
23 22 22 21 21 21 21 21 20 20 20 20 20 19 19 19
19 19 18 18 18 18 18 18 18 19 21 24 24 24 23 15
13 23 15 18 19 19 18 18 18 17 17 15 16 15 15 12
15 17 18 19 18 19 19 19 19 20 19 20 20 19 20 19
19 19 20 20 20 20 19 19 21 20 21 21 21 21 23 21
23 22 22 23 22 22 22 22 22 22 22 23 22 22 23 24
34 35 35 34 31 31 30 30 30 29 29 29 28 29 29 28
27 28 27 27 27 26 26 25 26 25 24 24 25 24 24 24
23 23 22 22 22 22 21 21 20 20 20 19 19 19 19 19
19 18 19 18 19 18 18 18 18 18 21 24 24 23 23 16
14 24 18 17 20 19 20 18 17 16 16 15 15 15 14 12
15 17 19 18 19 19 19 19 19 19 18 18 19 18 19 19
20 20 20 20 20 20 21 20 21 21 21 21 21 21 22 21
22 22 22 23 23 22 23 22 22 22 22 22 22 22 22 23
29 30 31 33 32 31 31 31 30 30 30 29 29 28 29 28
28 27 27 27 27 27 27 26 26 26 26 25 25 24 24 24
23 22 22 22 22 22 22 21 21 21 21 21 21 21 20 20
19 19 19 18 18 18 18 18 18 19 21 24 25 24 24 17
14 24 20 16 21 20 19 18 18 18 18 16 16 16 16 13
16 17 19 19 19 18 18 18 19 19 19 19 20 20 20 19
20 20 20 20 21 21 21 21 22 21 22 22 22 22 23 22
22 22 22 22 22 22 22 22 22 22 22 23 23 23 22 24
12 16 20 25 28 31 31 31 31 31 30 30 29 29 29 29
28 28 28 27 27 27 26 26 26 26 25 25 25 24 24 24
23 23 23 22 22 22 22 22 21 21 20 20 20 20 20 19
19 20 19 19 20 18 18 19 19 20 21 24 25 25 24 17
14 25 22 15 21 20 20 19 19 18 17 16 17 16 15 12
16 17 19 19 20 20 20 19 20 20 19 20 20 20 21 19
20 20 20 20 20 21 21 21 22 21 21 21 22 22 22 22
23 23 22 23 22 23 23 23 22 22 22 23 22 22 22 23
8 10 10 9 10 11 14 17 22 26 29 30 31 29 29 28
28 28 28 27 27 27 27 27 26 26 25 25 25 24 24 24
24 23 22 21 22 22 22 22 21 22 22 21 20 20 20 20
20 19 19 19 19 19 19 19 18 20 22 26 26 25 25 17
15 25 24 14 21 20 20 19 19 19 19 16 17 17 16 12
18 18 20 20 20 19 20 19 20 20 20 20 20 21 21 21
21 20 20 20 21 21 21 21 22 22 21 22 22 22 23 22
22 22 23 22 22 22 22 23 22 22 23 23 23 23 24 24
11 10 10 9 9 10 9 9 9 9 10 13 16 20 29 29
29 28 28 28 27 27 27 26 26 26 25 25 24 24 24 24
24 24 23 23 23 22 22 22 22 21 21 20 20 21 20 20
20 19 20 19 20 19 19 19 20 20 22 26 25 26 25 18
15 25 25 15 21 21 20 20 19 18 18 17 17 17 16 14
18 19 20 20 20 20 21 20 21 20 20 21 21 20 21 21
20 21 21 21 21 21 22 22 22 22 22 22 22 22 22 22
22 22 22 23 22 23 22 22 23 23 22 23 23 23 23 22
32 25 11 13 9 9 9 10 10 11 6 1 4 13 29 28
29 28 28 28 27 27 27 27 26 27 26 25 25 25 24 24
24 23 24 23 23 23 23 22 22 22 22 22 21 21 20 20
21 20 20 19 19 19 19 19 19 21 22 26 25 25 25 18
15 26 26 14 22 21 21 20 20 19 19 18 18 18 17 15
19 19 20 20 20 20 20 20 20 20 20 20 21 20 21 22
21 21 22 21 22 22 22 21 22 22 23 22 22 22 22 22
23 23 23 23 23 23 23 23 22 22 21 21 21 22 22 22
43 38 18 25 24 23 14 10 8 9 9 8 8 12 28 29
29 29 28 28 27 25 27 26 26 26 26 25 25 25 25 24
24 24 24 24 23 23 23 22 23 22 22 21 21 20 20 20
21 20 20 20 20 20 19 19 20 21 22 26 25 24 25 18
16 25 27 13 21 21 20 20 20 19 20 18 18 17 17 15
19 19 21 20 20 20 21 20 21 21 20 21 21 20 21 21
21 22 21 21 22 22 22 22 23 23 22 23 23 23 23 23
23 22 23 23 22 22 22 23 22 22 23 24 23 22 22 22
44 39 25 30 34 37 32 34 33 27 19 7 8 11 29 30
29 29 28 28 27 31 30 29 28 27 26 26 25 25 25 25
24 24 24 23 23 23 22 23 33 32 28 26 24 23 21 21
21 21 21 20 20 20 20 20 21 21 22 26 25 25 25 18
16 25 27 14 20 22 21 21 20 19 20 18 18 18 17 14
19 19 21 21 20 21 21 20 21 22 22 21 22 22 23 23
22 21 22 22 22 22 23 22 22 22 22 22 22 22 21 22
22 22 23 23 23 22 23 23 22 23 22 23 23 23 22 22
44 40 30 33 36 39 32 40 41 40 37 10 9 13 28 29
29 28 28 27 29 38 37 36 35 30 29 27 25 26 25 25
25 25 24 24 23 23 23 26 35 32 31 29 30 28 24 21
21 21 21 20 21 20 20 20 20 22 22 26 26 25 25 17
16 25 27 15 20 22 22 21 21 20 20 18 18 18 17 15
19 19 21 21 21 21 22 21 21 21 22 22 22 21 23 22
22 22 22 22 22 22 22 22 22 21 22 22 22 22 22 22
22 22 22 22 22 22 22 23 22 22 23 22 23 22 22 22
15 39 32 34 37 38 39 42 42 42 41 12 10 16 31 31
30 29 28 27 29 39 37 36 33 33 32 33 34 29 28 27
25 24 23 23 23 23 23 26 33 32 31 29 30 29 27 21
21 21 21 21 20 20 20 20 21 21 22 26 26 26 26 19
16 24 28 16 18 22 22 21 20 20 21 18 19 19 18 15
20 20 21 21 21 21 22 21 21 21 21 22 22 22 23 22
22 21 21 22 22 22 23 22 22 22 22 22 22 22 22 22
22 22 23 22 22 22 22 23 22 22 23 22 22 22 22 22
8 39 32 36 37 39 40 42 42 42 41 14 9 18 33 32
31 31 30 28 30 38 36 36 33 34 35 36 37 30 32 32
31 28 26 25 24 23 24 25 22 20 22 26 29 29 28 22
21 21 21 20 20 20 20 21 21 21 22 25 26 25 22 15
12 11 26 18 17 22 22 21 20 20 21 18 19 19 18 15
20 19 21 21 22 22 22 22 22 22 22 21 21 21 21 21
21 21 21 21 21 22 23 21 22 22 22 22 23 23 23 22
22 22 22 22 22 22 22 23 22 23 23 22 22 22 22 22
10 38 23 29 32 35 40 40 40 40 39 15 10 18 34 33
30 32 33 33 33 18 8 16 28 33 36 37 37 25 9 16
23 27 30 28 30 29 26 25 17 7 6 6 7 11 21 23
21 21 21 20 21 20 21 20 20 21 22 25 26 26 21 11
13 14 26 20 14 22 22 21 20 20 21 18 19 19 18 16
20 19 22 22 22 22 21 21 21 21 22 21 21 22 22 21
22 22 22 22 21 21 22 22 22 22 21 22 22 22 21 22
22 21 22 22 22 22 22 23 22 22 22 22 23 22 22 22
14 38 6 0 4 9 20 27 31 33 39 14 10 17 33 33
27 24 28 36 39 15 0 0 5 12 13 16 26 21 0 0
0 1 6 11 18 24 27 26 17 3 2 4 3 0 11 23
21 21 21 22 21 21 21 21 21 22 23 27 27 26 25 18
16 25 27 21 13 22 22 20 20 19 22 19 19 19 18 16
20 19 22 21 22 22 22 22 22 22 22 22 22 21 22 21
21 22 21 22 22 22 23 22 22 23 22 23 23 22 22 21
22 22 22 22 22 22 22 23 23 23 23 23 23 22 22 23
13 38 4 0 0 1 0 0 1 1 34 15 11 13 20 28
33 35 35 38 40 17 0 0 1 5 7 8 18 21 0 0
0 0 0 0 0 0 4 28 15 1 1 0 2 0 11 25
22 22 21 20 21 21 21 21 21 22 23 27 27 27 26 19
17 26 28 22 13 22 22 21 21 20 21 19 19 19 19 16
21 18 22 22 22 21 22 22 22 22 22 22 22 22 22 22
22 22 22 22 22 22 23 22 22 22 22 22 22 22 22 22
22 23 23 22 22 22 22 23 23 23 22 22 22 22 22 23
13 39 3 1 0 0 0 0 0 0 34 14 10 5 0 0
2 9 17 26 34 18 0 0 0 0 3 2 16 23 0 0
0 0 0 0 0 0 1 28 12 0 0 0 1 0 11 25
21 21 22 21 21 21 21 21 22 22 23 27 28 27 26 20
17 26 28 23 12 21 22 22 21 20 21 19 20 19 20 16
21 19 23 22 22 22 23 24 23 22 22 22 22 21 22 22
22 22 22 22 22 22 23 23 23 22 22 22 22 22 23 22
22 21 22 21 22 22 22 23 23 23 22 23 22 22 22 22
13 38 2 0 0 6 2 0 0 0 35 15 11 4 0 0
0 0 0 0 2 15 0 0 0 0 0 0 11 21 0 0
0 0 0 0 0 0 0 27 7 0 0 0 0 0 12 26
21 22 22 21 21 21 22 21 21 22 24 27 28 27 26 19
17 26 28 23 13 20 22 22 21 20 21 20 20 20 19 16
21 20 23 22 22 22 22 22 22 22 22 22 22 22 22 22
22 23 22 22 23 22 22 22 22 22 22 22 22 22 22 22
22 22 22 23 23 23 22 23 22 23 22 22 22 22 22 23
14 37 1 0 0 7 7 0 0 0 36 14 10 4 0 0
0 0 0 0 0 12 0 0 0 0 0 0 17 21 0 0
0 0 5 1 0 0 0 28 6 0 0 0 0 0 13 27
22 22 22 21 21 22 22 22 22 23 23 27 28 27 26 19
17 26 27 24 15 19 22 22 22 21 22 20 20 20 20 16
21 19 23 23 23 22 23 23 22 22 22 21 22 22 22 23
22 22 23 23 23 22 23 23 23 23 22 22 23 22 22 22
22 22 22 22 22 22 23 23 23 23 22 22 23 22 22 23
14 37 1 0 0 1 13 0 0 0 36 13 11 5 0 0
0 0 0 0 0 10 0 0 0 0 0 0 19 24 0 0
0 0 7 6 3 0 0 27 6 0 0 0 0 0 11 27
22 22 22 22 22 21 21 22 22 23 23 28 28 27 27 19
18 27 27 24 16 18 23 22 22 21 21 19 20 20 20 15
21 19 24 23 23 22 22 23 22 22 22 23 22 22 23 23
23 23 22 23 23 23 23 23 23 23 22 22 23 23 23 23
23 23 23 23 24 24 23 23 21 23 23 23 23 23 23 22
15 34 0 0 0 0 1 0 0 0 36 13 10 4 0 0
0 6 1 0 0 8 0 0 0 0 0 0 17 25 0 0
0 0 7 8 7 5 0 27 6 0 0 0 0 0 10 28
22 22 22 22 22 22 21 22 22 23 24 28 27 27 26 18
16 25 28 25 18 16 23 22 22 21 22 20 20 20 20 16
21 19 23 23 23 22 22 22 22 22 22 23 23 22 22 23
22 22 23 22 23 23 23 23 23 23 23 23 24 23 24 23
23 23 22 22 22 22 22 22 23 24 24 24 23 23 23 22
16 32 0 0 2 0 0 0 0 1 36 12 11 4 0 5
1 2 1 0 0 8 0 0 0 0 0 0 17 27 0 0
0 0 7 7 7 5 0 25 7 0 0 0 0 0 8 29
22 22 22 22 22 21 20 21 22 23 24 27 27 27 26 19
16 25 28 26 19 14 22 22 22 21 21 19 19 20 19 16
21 20 23 22 23 22 22 23 23 22 22 23 23 23 23 23
23 23 23 22 24 23 24 24 22 22 22 23 23 23 22 23
23 24 23 23 23 23 24 23 23 23 22 22 23 22 20 21
24 32 0 0 1 0 0 0 0 2 36 12 11 4 3 2
0 1 0 0 0 9 0 0 0 0 0 6 19 29 0 0
0 0 0 4 7 4 0 24 24 15 8 4 1 0 8 29
22 22 22 22 22 21 21 23 23 24 24 28 27 27 26 19
18 26 28 25 20 13 22 22 22 20 22 20 21 20 20 17
22 19 23 22 23 22 23 24 23 23 23 23 23 22 23 23
23 22 23 23 23 22 22 23 22 22 23 23 23 23 23 23
23 24 22 22 23 22 22 22 23 23 23 23 23 23 23 23
32 46 35 16 18 22 20 17 12 13 35 11 11 5 1 0
0 0 0 0 0 17 5 1 1 0 0 2 20 38 21 16
10 6 1 0 1 2 0 23 32 32 31 30 30 30 32 30
22 22 22 22 22 21 21 22 23 22 23 27 27 27 24 20
19 26 27 26 21 14 21 22 22 20 21 19 20 20 20 17
22 19 23 23 23 23 23 23 23 23 23 23 23 23 24 23
23 23 23 23 23 23 23 23 23 23 23 24 23 23 23 24
23 23 23 23 22 23 23 23 23 22 22 23 23 23 22 22
44 55 45 22 29 36 40 39 38 36 32 10 10 4 0 0
0 0 0 0 1 36 39 29 27 25 18 10 23 41 19 20
24 26 26 22 18 15 12 30 33 32 30 30 34 37 38 30
22 22 22 22 21 20 21 19 19 20 21 25 25 23 17 15
19 22 26 26 22 13 21 23 23 21 22 20 21 20 19 16
22 19 23 23 23 22 23 22 23 23 23 23 23 24 24 23
24 24 23 23 23 23 23 22 23 23 24 23 24 23 23 24
23 24 23 23 23 22 23 22 23 22 23 23 23 23 23 23
52 55 38 23 30 37 42 40 43 42 34 11 11 5 0 0
0 0 0 0 1 39 40 31 38 39 43 40 41 38 8 8
9 9 10 11 12 17 23 28 21 23 27 29 33 36 37 31
22 22 22 20 21 21 17 10 11 13 14 21 27 26 24 24
21 16 17 21 22 16 20 23 22 21 22 20 21 20 20 17
23 20 24 23 23 24 24 24 24 23 24 24 24 23 24 24
24 24 23 24 24 24 24 24 24 24 24 24 24 24 24 24
23 23 23 23 23 23 23 22 21 21 22 23 21 22 21 24
50 50 28 23 33 41 41 40 44 43 35 12 12 13 11 6
2 0 0 0 2 40 32 34 40 41 45 43 34 27 10 9
9 8 8 6 6 5 4 4 5 7 10 15 24 21 19 21
22 22 21 19 15 7 4 8 16 23 25 34 52 47 43 36
29 29 22 16 12 13 18 23 23 21 22 20 21 21 20 18
23 21 25 24 24 23 24 24 24 24 24 24 23 24 24 25
24 24 25 23 24 24 24 24 24 24 24 24 23 24 23 23
22 23 22 22 21 22 22 23 22 20 20 18 15 13 10 9
49 46 14 0 3 6 9 12 16 24 35 12 12 21 40 41
38 31 24 17 17 37 26 34 39 41 44 44 37 30 12 11
10 8 7 5 5 5 5 4 5 5 4 11 24 21 21 20
22 23 18 11 4 5 10 12 20 27 32 44 47 49 54 53
45 38 32 26 19 13 11 20 22 22 23 21 21 21 21 18
23 21 25 24 25 24 24 24 24 24 25 25 24 22 23 25
24 23 24 25 25 25 25 25 24 25 25 25 25 25 25 24
22 22 25 19 15 13 11 10 9 7 7 7 7 7 7 8
49 47 12 0 0 0 0 0 0 7 34 13 13 22 41 43
41 40 40 40 43 36 13 22 29 34 39 41 37 33 16 11
9 6 4 4 5 6 6 6 6 7 7 15 19 1 16 23
23 15 4 2 6 11 18 23 30 41 50 45 36 33 34 41
40 41 40 29 22 19 16 13 14 21 23 21 22 21 21 19
23 21 25 24 23 23 23 22 23 23 24 24 23 23 24 25
24 25 25 25 25 26 25 25 24 22 20 18 15 13 12 10
9 9 23 16 3 6 8 9 9 9 10 10 11 11 12 13
49 47 10 0 0 0 0 0 0 6 34 13 12 20 41 44
43 41 42 42 43 31 0 0 0 2 7 13 16 33 16 9
8 1 0 0 0 6 9 7 4 9 11 16 26 26 26 27
14 3 3 4 5 10 15 23 33 52 60 52 39 32 37 43
54 61 52 39 28 24 17 16 9 9 19 21 21 21 20 18
23 20 25 24 24 24 24 23 22 21 21 23 24 24 24 25
25 24 22 20 18 16 15 12 11 10 9 9 9 9 10 11
11 11 17 13 6 11 13 15 15 15 16 16 16 17 17 17
45 43 7 0 0 0 1 21 20 18 30 21 17 21 32 34
34 36 37 39 42 26 0 0 0 0 0 4 13 35 15 8
7 1 0 0 0 1 2 0 0 1 2 9 27 28 19 9
1 0 0 4 8 15 23 32 40 52 71 61 43 35 42 46
58 60 55 39 37 35 25 11 11 9 6 18 20 20 21 18
21 18 20 21 21 20 20 20 21 19 10 20 20 18 16 14
13 12 11 11 11 11 11 11 12 12 13 13 14 14 15 16
16 16 21 17 9 15 17 18 18 19 19 19 20 20 21 20
41 41 5 0 0 0 0 22 22 17 22 21 16 19 19 22
25 28 26 30 38 24 0 0 0 0 0 0 6 37 13 7
5 1 0 0 1 0 0 0 0 0 0 6 26 25 5 0
0 5 8 5 10 20 27 32 40 55 79 73 49 41 47 51
58 61 55 46 41 35 24 23 16 9 7 8 13 15 17 17
18 20 21 20 19 18 17 15 14 12 8 10 11 12 12 12
12 13 15 15 16 16 16 16 17 17 18 19 19 20 19 20
19 18 18 16 12 19 20 20 20 20 21 21 21 21 21 21
41 40 3 0 0 0 0 16 20 21 22 20 15 18 17 17
21 26 24 29 38 22 0 0 0 0 0 0 3 37 6 3
0 0 0 1 5 1 0 0 0 0 0 6 24 10 3 4
7 8 5 7 10 19 28 37 44 62 79 71 58 37 40 48
59 60 61 57 49 32 22 17 14 8 5 5 7 13 11 10
14 14 13 12 11 11 12 12 13 13 13 14 15 16 17 18
18 19 20 20 20 21 21 20 20 21 21 22 22 22 21 21
20 18 4 2 9 20 21 21 22 22 22 22 23 22 23 22
43 40 2 0 0 0 0 0 0 3 18 14 13 16 17 22
26 29 29 34 38 21 0 0 0 0 0 0 5 37 2 0
0 0 0 0 3 9 2 0 0 0 0 6 17 0 0 0
0 3 4 7 15 17 25 37 49 59 76 80 59 48 43 50
58 57 55 47 38 39 31 18 15 12 5 2 4 9 12 9
11 8 12 14 15 15 16 17 17 19 19 19 20 21 21 21
22 22 22 22 22 22 22 22 22 23 23 23 23 23 23 23
21 17 0 0 6 20 22 24 23 23 22 23 23 23 23 22
44 39 2 0 0 1 0 0 0 3 24 15 16 12 0 1
3 6 10 16 21 19 0 0 0 0 0 0 6 36 3 0
0 0 0 0 2 11 6 6 0 0 0 5 6 0 0 1
2 0 2 8 11 20 32 45 67 79 97 86 63 48 45 57
72 71 57 45 38 31 26 23 16 10 8 6 2 6 12 12
15 11 16 18 19 19 20 20 21 21 22 22 23 22 22 22
23 22 23 24 24 24 24 24 24 23 23 24 23 11 7 4
11 13 3 1 5 20 23 23 23 23 23 23 23 23 23 23
45 38 1 0 0 3 2 0 0 3 29 21 20 13 0 0
0 0 0 0 0 15 0 0 0 0 0 0 7 34 0 0
0 0 0 7 11 13 8 9 0 0 0 2 0 0 0 0
2 4 9 13 23 32 42 58 91 99 109 93 70 63 61 67
74 65 66 65 49 34 29 19 15 14 8 8 4 4 11 14
17 13 19 20 21 21 22 22 22 22 24 23 23 24 24 24
24 24 24 24 24 24 24 25 24 23 24 24 21 3 3 6
12 14 0 0 5 20 22 24 24 23 23 23 23 23 23 23
44 38 2 0 0 2 4 0 0 3 33 23 18 14 0 0
0 0 0 0 0 14 0 0 1 6 0 0 7 32 0 0
0 0 0 6 10 16 2 1 0 0 0 0 0 0 0 2
3 8 18 28 43 52 67 85 106 115 115 106 103 99 98 100
96 82 76 77 59 54 42 24 15 14 10 7 5 4 5 15
20 15 22 22 23 23 22 23 22 22 23 24 24 23 24 24
25 25 25 25 24 25 25 25 25 24 24 24 23 22 22 22
21 17 0 0 4 19 22 22 23 22 22 23 23 22 22 23
36 34 8 0 0 3 10 3 1 2 34 23 19 14 0 0
0 3 0 0 0 13 0 0 9 13 4 0 8 31 0 0
0 0 0 0 0 12 0 0 0 0 0 0 0 0 2 2
7 19 35 51 63 80 101 113 118 118 118 118 117 117 116 118
117 113 106 94 83 81 68 40 23 14 10 6 6 6 3 11
19 20 23 22 23 23 23 23 23 23 24 24 24 23 24 24
24 24 24 24 24 25 25 25 24 24 24 24 24 22 22 21
21 17 2 0 6 19 22 22 23 23 23 22 22 23 22 22
37 34 29 30 23 16 24 20 14 12 36 19 17 12 0 0
5 15 2 0 0 14 0 1 12 11 8 0 8 29 0 1
0 0 0 0 0 14 0 0 0 0 0 0 0 2 2 8
26 42 59 75 93 109 117 118 118 118 118 118 118 117 118 118
118 117 117 116 113 109 100 78 51 25 9 5 3 4 3 9
19 20 24 24 24 24 24 22 23 24 23 24 24 24 25 25
25 24 25 25 24 25 25 24 24 24 23 23 23 23 23 21
21 18 6 0 10 20 23 23 24 23 22 22 22 22 22 22
38 35 21 19 20 27 34 40 40 40 40 25 15 13 0 1
10 17 4 1 0 26 23 22 26 22 21 14 17 29 0 0
0 0 0 0 0 15 0 0 0 0 0 0 0 3 9 25
45 62 76 95 109 117 119 118 119 118 118 118 118 117 117 117
117 117 117 117 117 116 117 113 93 54 30 9 4 4 5 5
17 19 23 24 23 23 22 22 23 24 24 24 24 24 24 24
24 24 23 24 24 24 24 23 24 23 23 24 24 23 23 21
20 16 11 6 15 21 23 23 24 22 23 22 22 21 22 22
39 35 14 0 0 0 3 9 26 42 41 24 15 14 0 0
2 3 0 0 0 28 33 35 39 37 37 41 43 33 1 0
2 0 0 0 0 17 0 0 1 0 0 0 1 8 20 43
68 83 95 107 115 118 118 118 118 118 118 118 117 118 117 117
118 118 118 117 117 117 117 117 116 93 56 16 5 1 5 5
16 20 23 23 23 23 23 23 23 23 24 24 24 24 24 24
24 25 25 25 25 24 24 24 24 23 23 23 23 23 23 21
20 17 15 15 19 23 23 23 23 22 22 22 21 22 22 21
40 36 12 0 0 5 19 3 25 42 38 22 17 15 6 1
0 0 0 0 0 28 35 36 37 36 38 44 45 39 22 20
20 13 10 8 8 19 5 6 3 2 0 0 4 15 37 64
83 94 100 109 116 118 118 118 118 118 118 118 117 117 117 118
117 117 117 117 117 117 117 117 117 114 86 42 9 2 3 4
14 19 23 23 23 23 23 24 23 24 24 24 23 24 24 24
24 23 24 24 23 24 24 24 24 23 23 24 24 23 23 22
21 18 18 19 22 22 22 22 23 22 23 22 22 22 22 22
42 38 11 0 0 5 28 16 31 38 32 19 18 19 14 0
1 0 0 0 0 26 30 32 34 33 36 42 43 39 28 29
29 27 26 27 26 24 21 20 17 8 0 0 6 28 59 79
90 98 103 111 117 119 118 118 118 118 117 117 118 117 117 117
118 118 118 117 117 117 118 117 117 117 108 72 16 4 0 4
11 21 24 24 23 23 23 24 24 24 24 24 23 24 24 23
23 24 23 23 24 24 24 23 24 23 24 23 23 22 22 22
21 20 20 22 23 23 23 23 23 23 22 22 22 22 22 22
44 39 11 0 0 0 13 19 33 39 28 17 19 18 5 0
0 0 0 0 0 29 30 31 32 33 32 29 26 27 29 30
30 30 27 28 28 27 27 27 24 8 1 1 9 38 72 88
94 99 105 111 117 119 118 118 118 118 118 119 118 118 118 118
118 117 118 118 118 118 117 117 117 117 116 103 41 5 1 3
9 19 23 23 23 23 23 24 24 24 24 25 24 24 24 24
24 24 23 24 23 24 23 24 24 24 23 24 24 23 23 22
22 21 21 22 22 22 21 21 22 22 22 23 23 22 22 22
45 41 15 0 0 0 0 3 32 39 26 20 20 18 8 2
2 1 0 0 0 30 32 29 30 29 29 29 29 30 32 32
34 35 34 32 29 29 28 31 33 10 0 1 10 42 82 94
95 100 105 113 118 119 118 118 118 118 118 118 117 118 118 118
118 118 118 118 118 118 118 117 117 117 116 114 69 8 2 5
8 19 23 23 23 24 23 24 24 24 24 24 24 23 24 24
25 24 24 24 24 24 24 24 24 24 24 23 23 22 23 22
21 20 22 22 21 21 21 22 22 22 23 22 22 21 21 21
44 42 14 0 0 0 0 0 29 40 26 20 19 20 33 33
32 27 27 27 23 37 34 31 32 31 32 32 34 36 35 32
35 38 40 32 29 26 27 34 35 7 1 2 13 49 88 93
96 101 108 114 118 119 118 118 119 119 119 118 118 118 117 118
118 119 118 118 118 117 117 118 117 116 117 117 84 14 1 6
12 19 24 23 23 23 24 24 24 24 24 24 24 23 24 23
23 23 23 23 23 24 24 23 23 23 23 24 23 23 23 22
22 22 23 22 22 21 22 22 22 22 22 22 22 22 22 22
44 41 10 0 0 0 0 0 30 41 26 20 20 21 42 45
45 43 44 46 44 45 37 33 31 32 31 33 37 39 38 33
35 39 37 31 31 26 23 29 36 7 0 2 16 53 86 93
97 104 110 115 118 119 118 118 119 118 119 118 118 118 118 118
119 118 118 118 119 118 117 117 117 117 117 116 93 19 2 0
9 21 26 24 24 23 23 23 22 23 23 23 23 24 24 24
23 23 24 23 24 23 24 23 23 23 24 23 23 23 22 22
22 22 23 23 22 22 23 23 23 22 22 22 23 22 21 21
44 39 8 0 0 0 0 0 29 42 26 17 21 21 41 45
45 45 45 46 46 46 33 19 21 17 18 21 28 36 38 34
32 24 25 30 28 26 25 24 21 4 0 2 19 57 86 91
98 105 111 117 118 118 118 119 119 119 119 119 119 119 118 118
118 118 118 118 118 117 117 117 117 117 117 116 96 23 2 1
6 18 23 23 23 23 23 23 23 24 24 24 24 24 24 24
23 23 23 23 22 23 24 23 23 23 23 23 23 22 22 22
23 22 22 22 22 21 21 22 22 22 21 21 22 22 21 21
44 40 8 0 0 0 0 0 28 37 22 16 21 18 23 26
27 28 29 30 32 34 24 0 1 0 0 0 1 15 39 33
16 1 4 5 8 10 26 26 11 1 0 2 22 64 86 91
99 107 114 117 119 119 119 119 119 118 119 119 119 118 119 118
119 118 118 118 118 118 118 118 118 117 117 116 92 24 1 1
7 19 23 23 23 23 23 23 23 23 24 24 24 24 25 25
24 23 23 23 23 23 23 23 23 23 23 21 21 22 22 22
22 22 22 22 22 23 22 22 23 22 22 21 21 21 21 21
44 40 8 0 0 0 0 0 27 38 23 17 20 17 27 29
28 27 26 25 25 26 20 2 0 0 0 0 1 12 38 27
2 0 0 0 1 8 28 27 12 0 0 3 25 68 85 91
99 106 112 118 118 118 118 119 119 119 119 119 119 118 119 119
119 118 118 118 118 117 118 118 118 117 118 117 88 24 1 0
10 21 23 23 23 23 23 23 23 24 23 23 23 24 24 24
23 23 23 23 23 23 22 23 23 22 22 21 21 22 21 22
22 22 23 21 22 22 22 22 21 22 22 21 21 21 21 21
43 40 8 0 0 0 0 0 30 42 25 15 20 18 31 32
34 33 32 32 31 31 21 1 0 0 0 0 5 21 37 17
0 0 0 0 0 4 29 27 13 0 0 2 27 71 84 91
98 106 115 119 119 119 119 119 119 119 119 119 118 118 118 118
118 118 118 118 118 118 118 117 118 117 117 116 95 24 1 1
8 21 23 23 23 23 23 23 24 23 23 23 23 23 23 21
20 20 19 20 20 21 22 22 22 18 9 9 7 6 4 6
15 22 22 22 22 22 23 22 22 21 21 21 21 20 21 20
32 23 6 1 0 0 0 0 31 41 22 13 19 18 32 33
33 32 33 33 33 35 22 2 2 0 0 0 1 11 36 11
0 0 0 0 0 2 28 26 11 0 0 4 29 78 86 91
96 106 114 116 119 119 119 119 118 119 119 119 119 118 118 118
118 118 118 117 118 117 117 117 118 117 117 117 103 31 2 1
7 21 23 23 23 23 22 23 23 24 23 14 8 7 6 5
3 1 0 1 3 14 22 22 21 17 0 0 0 0 0 0
14 23 23 22 21 22 22 21 21 21 21 21 21 20 21 20
36 32 34 32 28 26 21 17 33 35 22 18 22 18 18 21
24 25 27 29 32 37 23 0 0 0 0 4 3 8 34 7
0 0 0 0 0 4 29 25 11 0 0 5 35 81 87 91
97 102 99 102 110 117 119 119 119 119 118 118 118 118 118 118
118 117 115 104 102 101 106 103 95 107 118 116 109 42 3 2
10 22 25 22 23 23 23 23 23 23 23 8 0 0 3 2
1 0 0 0 0 11 21 21 22 17 1 0 0 0 0 0
15 23 22 23 22 22 22 22 21 21 21 20 21 20 20 20
36 36 36 35 35 35 35 35 35 34 33 32 32 30 27 25
23 20 3 1 10 35 29 5 0 0 0 1 2 6 34 6
0 0 0 0 0 5 30 24 9 0 0 8 50 85 88 86
100 92 85 78 81 91 91 95 106 117 119 119 119 119 118 119
116 96 85 89 97 100 102 103 104 106 114 116 115 60 8 0
14 23 26 24 23 23 23 23 23 23 23 7 0 1 3 3
1 0 0 0 0 9 21 22 22 14 0 0 1 0 0 0
15 23 23 23 23 22 22 22 21 21 21 21 21 21 22 21
36 36 36 35 36 35 35 35 35 34 34 33 33 32 32 32
32 31 8 0 5 35 33 9 0 0 0 5 4 6 34 5
0 0 0 0 0 2 30 25 17 5 4 19 57 86 72 77
60 77 115 58 58 56 53 60 82 96 111 120 119 119 120 118
106 100 91 79 80 93 109 118 120 113 115 110 104 76 18 6
32 27 25 25 24 24 25 24 25 25 24 9 0 1 4 4
2 0 0 0 0 10 22 23 23 16 1 1 0 1 0 0
13 24 25 23 24 23 23 23 23 22 22 22 22 21 21 21
36 36 36 35 35 35 34 35 34 33 34 33 33 33 33 33
32 31 11 0 3 32 29 0 0 0 0 0 0 8 35 6
0 0 0 0 0 1 30 25 40 39 8 17 60 65 52 82
79 84 106 99 103 97 86 79 81 91 104 117 120 120 120 118
116 107 100 99 103 109 113 116 121 119 116 101 65 69 21 44
102 78 25 26 24 25 25 25 25 25 24 9 0 1 6 4
3 0 0 0 0 11 23 24 24 18 2 2 2 2 2 1
12 24 24 23 23 22 22 22 20 21 22 22 22 22 22 22
24 24 23 23 23 23 23 23 23 23 24 24 25 25 26 28
31 32 13 0 2 28 23 0 0 0 0 0 0 6 36 7
0 0 0 0 0 1 31 31 59 38 8 9 41 40 61 89
82 56 86 86 80 78 71 66 76 83 101 112 120 119 120 117
119 107 89 73 60 70 91 95 105 120 119 104 68 50 20 62
88 84 29 25 25 25 25 25 25 25 24 9 0 1 4 4
2 0 0 0 0 11 24 24 24 20 9 8 7 8 8 8
12 22 24 24 24 24 24 24 24 22 23 23 24 23 23 22
0 0 0 0 0 0 0 0 0 0 0 0 0 0 2 27
33 32 16 0 1 24 21 0 0 0 0 2 4 6 37 13
1 1 2 2 1 3 30 34 53 28 18 17 38 56 75 92
69 44 60 46 31 17 28 42 51 72 90 107 111 109 120 119
113 90 67 59 24 29 56 59 70 116 120 106 68 58 51 61
70 75 38 25 24 24 25 25 24 24 23 10 0 1 2 1
1 0 1 0 0 11 24 25 24 20 3 3 4 4 3 4
10 23 25 24 25 25 23 24 23 23 24 23 24 24 22 23
0 0 0 0 0 0 0 0 0 0 0 0 0 0 1 31
36 31 19 0 0 20 28 19 17 14 14 20 25 24 35 36
33 30 32 33 32 32 39 35 57 31 28 18 14 45 56 67
37 55 45 57 47 21 28 73 44 70 88 98 107 115 119 120
115 89 85 81 22 29 87 90 57 85 115 78 61 43 31 68
86 78 38 27 25 25 25 26 25 25 24 10 0 0 0 0
0 0 0 0 0 11 23 24 24 20 3 2 1 2 3 6
10 22 24 24 24 24 23 24 24 24 23 22 23 23 23 23
0 0 0 0 0 0 0 0 0 0 0 0 0 0 0 29
37 32 22 0 0 16 34 35 30 29 31 33 35 37 32 41
45 41 40 40 42 43 44 35 56 38 26 28 12 52 62 37
40 76 71 90 85 58 71 102 71 77 90 89 111 120 119 118
119 107 104 102 86 100 114 114 106 75 50 72 70 59 35 85
96 84 28 24 24 25 25 25 25 24 23 10 0 0 0 0
2 0 1 0 0 11 23 24 24 20 2 1 0 0 0 1
0 2 16 24 23 24 23 23 23 23 23 22 22 22 22 22
0 0 0 0 0 0 0 0 0 0 0 0 0 0 0 27
37 31 23 0 0 14 34 33 27 29 32 32 34 33 29 32
40 39 39 38 40 40 40 36 40 61 37 50 51 58 79 65
60 93 92 99 109 110 109 109 84 83 93 93 116 120 120 115
119 112 112 112 115 119 119 119 117 105 51 108 80 78 66 82
108 77 23 23 23 24 25 24 26 24 21 10 0 0 1 2
3 0 0 0 0 10 22 23 23 20 2 1 5 0 0 0
6 4 12 23 23 23 23 23 23 23 22 22 22 22 22 21
0 0 0 0 0 0 0 0 0 0 0 0 0 0 0 25
38 31 25 0 0 11 33 24 24 23 25 31 35 35 31 24
20 22 22 21 21 21 22 27 28 68 70 53 72 66 80 94
80 104 111 110 110 112 113 112 91 90 96 94 117 120 120 119
120 119 119 118 119 119 119 119 118 115 81 117 79 88 82 82
117 53 23 23 23 24 24 24 25 23 21 10 0 0 0 0
0 0 0 0 0 9 22 23 24 20 2 0 4 0 0 0
0 2 12 24 23 23 23 22 23 22 22 22 22 21 22 22
0 0 0 0 0 0 0 0 0 0 0 0 0 0 0 23
38 30 25 1 1 13 34 13 16 18 20 25 29 31 32 25
20 21 21 24 25 23 24 27 29 74 83 58 76 77 71 100
66 98 118 120 120 120 119 117 99 97 92 101 117 120 120 120
118 119 119 119 119 118 119 119 119 102 85 118 82 104 92 79
113 30 21 22 23 24 24 25 25 22 20 12 0 0 0 0
0 0 0 0 0 9 22 23 24 20 2 0 2 5 9 9
1 0 11 23 21 22 22 22 22 22 22 22 21 21 21 21
0 0 0 0 0 0 0 0 0 0 0 0 0 0 0 20
38 30 27 10 16 24 33 4 0 0 1 2 6 10 27 28
28 32 27 36 38 31 27 28 31 57 92 62 77 85 59 99
59 95 118 120 119 119 119 119 104 98 87 104 119 120 120 119
118 119 120 119 119 119 119 119 119 91 83 110 79 110 95 98
102 24 20 20 22 23 24 24 24 21 20 11 0 0 0 0
0 0 0 0 0 9 22 22 22 19 1 0 0 1 1 2
0 0 10 18 11 9 18 22 22 21 20 21 21 21 20 21
0 0 0 0 0 0 0 0 0 0 0 0 0 0 0 17
38 30 28 32 35 38 35 4 0 0 0 0 0 7 30 28
34 39 29 41 47 21 7 9 10 30 100 65 73 88 61 92
64 92 115 119 119 120 120 120 111 91 93 112 120 120 120 120
119 119 119 119 119 119 119 119 118 97 93 88 96 113 99 112
82 26 21 19 21 23 24 24 24 22 21 12 0 0 0 0
0 0 0 0 0 8 21 22 23 20 2 0 13 33 10 0
0 0 1 6 12 11 2 19 22 21 21 21 21 21 21 21
0 0 0 0 0 0 0 0 0 0 0 0 0 0 0 15
38 30 28 34 37 39 38 7 0 0 0 0 0 2 32 27
32 36 12 16 27 17 0 0 0 6 92 86 72 86 76 78
81 86 117 119 121 120 120 119 102 84 95 115 120 120 120 120
119 115 120 120 119 119 119 119 119 108 99 78 114 111 107 118
60 27 23 17 21 23 24 25 24 21 20 12 0 0 0 0
0 0 0 0 0 9 22 22 23 20 3 1 31 45 30 0
0 1 17 22 22 21 11 9 22 21 21 21 22 21 21 21
0 0 0 0 0 0 0 0 0 0 0 0 0 0 0 12
38 30 28 33 35 35 33 8 0 0 0 0 0 0 33 26
32 34 3 0 15 17 0 0 0 1 72 96 72 76 69 80
85 94 113 120 120 119 113 94 86 88 98 110 120 121 120 120
120 115 109 116 119 119 119 119 117 111 102 117 118 108 108 114
38 27 24 16 20 22 24 24 23 22 21 12 0 0 0 0
0 0 0 0 0 9 22 22 23 22 18 13 18 6 16 0
0 2 23 22 22 22 18 5 22 22 22 21 21 22 21 21
0 0 0 0 0 0 0 0 0 0 0 0 0 0 0 10
38 31 28 17 11 13 11 0 0 0 0 0 0 1 35 27
33 35 4 1 14 18 0 0 0 0 44 105 76 70 80 94
94 103 100 103 113 115 106 98 101 95 95 95 115 121 120 116
118 120 119 116 119 116 116 113 110 117 119 119 118 108 111 102
29 28 25 15 19 22 23 24 24 22 20 12 0 0 0 0
0 0 0 0 0 8 21 22 23 22 22 17 0 0 1 0
0 2 23 22 22 22 20 4 22 21 21 21 21 21 21 21
0 0 0 0 0 0 0 0 0 0 0 0 0 0 0 8
36 31 27 16 10 11 9 0 0 0 0 0 0 2 35 26
33 35 3 0 13 19 0 0 0 0 24 104 79 67 80 94
99 112 120 121 121 120 114 98 93 95 59 26 89 112 96 28
81 121 120 119 119 119 119 119 119 118 119 119 117 108 112 80
28 28 26 13 17 20 21 22 22 22 21 13 0 0 0 0
0 0 0 0 0 7 22 22 24 21 5 7 0 0 0 0
0 1 21 23 22 22 18 7 23 22 22 22 21 21 21 21
0 0 0 0 0 0 0 0 0 0 0 0 0 0 0 7
35 30 26 17 12 14 10 0 0 0 0 0 0 1 33 26
33 34 3 2 12 20 1 0 0 0 6 84 84 71 87 96
100 116 118 121 121 121 117 95 92 86 51 52 93 99 118 89
97 119 120 120 119 119 120 119 119 119 119 119 118 107 101 38
29 28 26 14 17 20 22 23 23 22 20 13 0 0 0 0
0 0 0 0 0 9 22 22 23 18 14 34 17 0 0 0
0 1 22 22 22 22 10 14 23 22 21 21 21 20 20 20
0 0 0 0 0 0 0 0 0 0 0 0 0 0 0 7
36 30 26 19 15 15 10 0 0 0 0 1 0 0 32 27
34 34 5 2 12 20 5 0 0 3 1 26 77 71 88 94
100 109 118 121 121 121 120 109 102 85 70 102 114 116 121 118
110 119 120 119 119 119 119 119 120 119 119 119 118 104 50 30
29 28 26 16 15 19 21 22 23 22 20 19 13 11 7 5
5 2 1 0 5 13 18 18 17 13 22 30 23 0 0 0
0 0 17 17 19 15 4 19 18 18 22 21 20 20 21 20
0 0 0 0 0 0 0 0 0 0 0 0 0 0 0 5
36 31 26 20 17 17 10 0 2 0 0 4 6 0 31 27
35 34 15 5 10 20 5 3 3 5 0 5 35 63 86 93
95 103 115 121 121 121 121 120 118 114 103 117 120 120 120 120
120 120 120 120 120 119 119 119 119 119 119 119 116 101 39 31
30 29 26 18 14 19 20 21 22 21 21 20 19 17 10 1
1 0 0 0 0 0 0 0 0 0 0 0 0 0 0 0
0 0 0 0 0 0 10 10 4 3 22 21 21 21 21 21
0 0 0 0 0 0 0 0 0 0 0 0 0 0 0 5
35 30 26 20 17 17 13 0 3 0 0 5 13 5 29 30
35 32 14 14 10 20 2 6 8 4 0 3 30 54 83 95
97 103 111 116 121 121 121 121 120 120 119 120 120 120 121 121
120 119 120 119 119 119 119 119 119 119 119 119 114 94 33 30
29 27 25 20 11 16 19 21 22 21 20 20 20 18 10 0
0 1 2 2 2 3 4 4 4 4 4 4 5 5 6 7
7 6 4 0 0 4 2 2 56 13 21 21 21 22 21 20
0 0 0 0 0 0 0 0 0 0 0 0 0 0 0 4
35 31 27 21 18 17 21 14 18 19 18 22 25 26 37 33
35 30 9 21 10 19 6 10 10 7 5 7 25 42 81 93
97 103 110 116 121 121 121 120 119 120 120 120 120 120 120 120
120 120 120 120 120 120 119 119 119 119 118 119 111 78 31 30
28 27 24 21 9 16 18 20 20 20 20 19 18 17 9 0
2 11 13 15 15 16 17 16 17 16 16 16 17 17 18 18
17 16 11 0 0 9 9 2 53 65 12 14 13 22 25 25
0 0 0 0 0 0 0 0 0 0 0 0 0 0 0 4
35 31 26 22 18 17 25 35 36 37 38 38 40 43 48 38
34 28 1 16 11 25 19 20 20 18 17 18 18 30 76 91
96 101 109 114 120 120 120 116 117 119 118 118 120 120 120 120
120 120 119 119 119 118 119 119 119 119 118 117 103 58 30 29
28 27 25 22 8 14 17 18 19 19 18 4 2 2 2 0
3 11 13 16 17 17 17 17 17 17 17 17 19 19 20 20
19 17 12 0 0 0 0 0 0 0 0 0 0 29 36 36
0 0 0 0 0 0 0 0 0 0 0 0 0 0 0 4
35 32 26 22 19 18 23 40 39 39 39 39 40 43 47 44
34 28 0 4 8 23 18 20 20 20 20 19 20 24 67 87
94 98 108 113 118 118 114 109 117 112 102 94 93 108 106 112
114 114 116 119 119 119 119 119 119 119 118 116 100 38 30 29
27 26 25 22 9 12 16 18 18 19 17 1 0 0 0 0
3 10 13 16 18 18 19 18 19 19 19 18 20 20 20 20
20 18 13 0 0 0 0 0 0 0 0 0 0 28 36 36
0 0 0 0 0 0 0 0 0 0 0 0 0 0 0 3
34 32 25 22 19 18 16 24 24 23 22 22 23 25 27 25
30 29 0 2 6 23 21 23 23 23 22 23 23 23 53 84
91 98 109 113 111 109 104 95 96 83 79 80 76 83 91 98
100 100 93 93 99 114 119 119 119 119 119 113 78 31 30 30
29 28 25 23 11 10 15 16 17 17 17 1 0 0 0 0
3 10 13 16 17 18 19 19 20 20 20 20 22 23 23 22
21 19 15 0 0 0 0 0 0 0 0 2 10 31 36 35
0 0 0 0 0 0 0 0 0 0 0 0 0 0 0 3
34 32 26 22 20 19 14 10 9 8 8 9 11 14 19 19
29 29 1 1 5 25 21 24 24 25 24 24 24 24 38 80
88 96 106 113 112 107 74 62 62 76 98 112 117 119 120 120
120 120 120 120 119 119 119 120 119 118 117 107 51 32 29 30
29 28 26 23 14 8 14 15 17 17 17 10 3 0 0 0
3 10 14 16 18 19 20 21 21 21 21 22 23 24 23 22
21 20 16 0 0 0 0 0 0 0 0 20 35 34 33 32
0 0 0 0 0 0 0 0 0 0 0 0 0 0 0 3
34 31 25 22 20 18 15 12 11 11 11 11 12 16 22 20
31 29 4 4 9 25 20 24 25 24 24 24 24 25 28 69
85 93 103 111 114 114 98 89 85 86 102 118 121 120 120 119
116 113 118 120 120 120 119 119 119 118 114 91 37 31 29 30
29 27 26 23 17 8 15 15 13 11 12 10 4 14 0 0
4 11 13 16 17 19 19 21 21 22 23 24 24 24 24 24
23 21 17 0 0 0 0 0 0 0 0 21 32 31 30 30
0 0 0 0 0 0 0 0 0 0 0 0 0 0 0 4
34 31 26 22 19 19 18 16 16 15 14 14 14 17 22 21
33 33 24 34 36 29 21 24 24 24 23 24 23 24 26 54
81 88 96 107 115 115 109 97 87 80 78 86 89 86 84 90
99 114 120 120 119 120 119 119 119 115 107 61 35 32 30 31
28 25 26 24 22 20 23 15 11 11 3 3 1 13 0 0
5 11 13 16 17 19 20 21 22 22 23 23 24 24 24 24
23 21 17 0 0 0 0 0 0 0 0 23 30 29 28 28
0 0 0 0 0 0 0 0 0 0 0 0 0 0 0 5
36 32 25 21 19 19 18 17 16 16 16 16 17 20 23 21
32 29 27 35 35 27 21 24 24 25 24 24 24 24 31 34
75 84 90 101 110 104 105 103 100 97 96 99 102 106 116 120
120 121 120 121 120 120 119 118 118 110 91 40 37 34 31 30
25 29 33 29 29 21 21 15 9 8 2 2 6 6 0 0
6 11 13 14 17 18 19 20 21 21 23 23 24 24 24 24
24 23 18 0 0 0 6 2 0 0 0 24 27 26 26 26
1 1 2 2 3 4 5 6 7 8 9 11 12 13 14 19
31 28 25 21 19 18 13 16 16 16 15 15 16 19 22 20
22 21 18 19 22 21 22 23 24 23 23 23 24 26 25 14
46 80 85 90 97 105 105 106 113 120 121 120 121 120 120 120
121 120 120 120 120 120 120 118 109 102 59 36 35 32 23 17
16 28 34 31 26 14 10 8 8 7 4 1 7 10 0 0
7 12 13 15 16 17 19 19 21 22 23 23 23 23 23 23
23 22 16 0 0 9 39 17 0 0 0 24 24 24 23 23
23 14 10 13 15 17 23 27 28 27 27 27 27 26 26 25
25 25 25 20 18 9 10 8 16 16 15 16 16 19 22 22
23 22 20 19 21 21 22 23 23 23 23 23 24 23 14 2
14 72 81 87 88 98 102 106 114 120 120 121 120 121 121 121
121 121 121 120 120 119 114 109 100 90 42 36 34 31 21 15
15 19 20 14 10 8 5 5 5 7 6 0 0 0 0 0
7 12 13 14 16 17 18 19 20 21 22 23 23 23 24 23
24 24 16 0 0 4 14 5 0 0 2 23 23 22 22 22
10 19 26 28 28 23 15 17 28 28 28 27 27 26 25 25
25 25 24 20 16 6 18 12 10 12 7 14 16 19 21 22
23 22 21 19 22 22 22 23 23 23 23 23 24 17 4 0
4 65 78 84 87 87 97 100 105 114 119 120 121 120 121 121
120 120 121 120 120 114 100 93 90 94 41 35 34 31 24 13
11 9 8 7 7 5 5 5 6 8 5 0 6 0 0 0
7 11 12 13 14 15 17 18 19 21 21 23 23 23 23 23
23 23 14 0 0 0 0 0 0 0 3 24 23 22 22 22
30 31 31 30 30 30 28 22 14 25 28 26 27 26 25 25
24 24 21 23 23 6 17 16 7 5 0 11 17 20 22 22
23 22 22 21 21 21 21 22 22 22 23 25 21 9 2 0
4 61 78 81 83 84 88 91 97 104 114 118 121 121 121 121
121 121 120 118 111 94 91 93 94 93 33 29 30 29 25 12
9 7 8 8 8 6 7 7 9 10 9 1 6 0 0 1
7 11 12 13 14 15 16 17 18 20 20 21 22 22 23 23
23 23 13 0 0 0 0 0 0 0 5 23 22 22 22 22
32 31 30 29 29 28 27 25 20 11 20 18 15 14 13 13
12 5 1 21 51 19 18 17 6 0 3 16 17 19 22 23
23 22 22 21 21 22 22 22 23 23 24 25 15 7 1 3
8 58 83 76 76 76 78 82 88 96 102 110 116 119 121 120
120 114 111 104 97 103 102 97 103 93 36 29 8 7 10 8
7 8 7 8 9 8 8 9 9 9 11 1 1 0 0 1
7 10 11 12 13 14 15 17 17 18 20 21 21 22 22 23
23 23 13 0 0 0 0 0 0 0 8 23 22 22 22 22
20 18 18 17 16 15 11 4 1 0 0 0 0 0 3 3
0 0 0 11 46 35 11 7 25 6 5 14 15 19 23 24
23 22 22 22 21 21 22 22 23 22 24 23 12 4 3 5
12 54 90 82 80 81 80 80 81 85 88 92 99 103 109 109
104 93 90 98 108 107 102 101 109 90 17 23 19 6 1 0
0 1 2 4 6 9 8 9 8 8 10 1 8 0 0 1
8 10 11 12 14 14 16 17 18 19 20 20 21 22 23 22
23 24 13 0 0 0 0 0 0 0 4 22 22 21 22 22
17 22 26 27 28 31 28 25 26 22 2 0 1 1 1 0
0 0 0 6 40 31 0 31 49 12 0 1 1 5 14 22
23 22 22 21 22 21 22 22 22 24 24 22 12 7 4 5
17 49 92 89 80 83 86 88 87 79 74 72 72 73 72 71
76 86 103 108 106 102 101 109 114 97 51 32 17 16 16 7
3 1 0 4 10 9 8 14 16 14 15 4 7 0 0 2
9 11 11 12 13 14 15 16 17 19 20 21 21 22 23 22
23 24 13 0 0 0 0 0 0 0 1 17 22 22 22 21
47 49 50 49 48 47 46 45 44 39 9 0 0 3 1 0
0 0 0 11 28 27 0 18 29 20 0 0 0 0 0 7
23 22 22 22 22 22 22 22 22 23 22 20 10 14 6 11
21 43 93 96 88 83 86 89 90 88 84 76 73 77 84 96
106 107 107 105 103 101 104 115 117 97 41 48 35 23 25 25
17 11 6 0 3 14 15 14 17 26 30 6 3 0 0 1
11 13 12 13 15 15 17 17 19 20 20 20 21 22 22 23
25 26 14 0 0 0 0 0 0 0 11 6 21 21 21 21
51 48 48 47 46 42 39 41 48 40 18 0 2 0 0 0
0 0 4 10 11 28 0 14 30 25 4 0 0 0 0 0
17 22 22 22 22 21 21 21 22 22 23 21 16 22 11 16
21 38 93 99 96 89 85 87 89 86 89 87 92 101 106 107
107 105 100 100 103 106 116 120 119 103 49 20 22 27 18 5
5 1 1 0 0 4 16 20 20 14 19 5 1 0 0 2
16 16 15 15 16 17 18 19 21 22 23 22 23 24 24 25
27 29 14 0 9 39 19 0 0 0 16 10 14 21 21 21
45 45 52 53 52 51 51 46 42 35 13 0 3 4 2 0
0 0 0 0 4 36 2 14 32 25 12 0 0 0 0 0
16 22 21 21 21 20 19 19 20 20 22 21 23 23 26 19
35 32 93 99 101 96 89 86 86 86 87 86 88 92 96 96
95 94 98 102 108 115 120 120 119 110 70 78 39 17 25 17
0 0 0 0 0 0 2 10 23 21 8 0 0 0 0 0
4 4 4 4 5 7 8 10 12 11 9 10 10 11 12 13
14 16 7 0 53 122 77 0 0 0 17 18 4 20 20 20
37 49 48 44 43 42 39 31 25 13 0 15 53 80 13 0
0 0 0 0 0 5 0 24 41 3 9 2 0 0 0 0
19 21 19 19 18 18 17 17 18 20 20 22 21 27 28 54
36 28 94 101 103 102 96 90 87 85 82 83 82 82 84 84
87 90 100 107 114 119 120 120 120 113 80 92 91 84 55 45
27 0 0 0 0 0 0 5 14 21 5 0 0 0 0 0
0 0 0 0 0 0 0 1 3 4 0 0 0 0 0 0
0 0 0 0 46 97 49 0 0 0 19 20 11 12 20 20
27 29 30 30 30 30 26 19 17 6 0 2 19 31 0 0
0 0 0 0 0 0 0 31 61 1 8 6 0 0 0 10
22 20 18 16 16 15 14 15 15 17 18 26 32 42 59 68
37 69 93 102 106 104 100 96 91 85 81 80 77 76 78 81
90 99 109 115 119 120 121 120 120 113 83 92 90 90 88 43
66 28 7 0 0 0 0 1 0 0 0 0 0 0 0 0
0 0 0 0 0 0 0 0 0 0 0 0 0 0 0 0
0 0 0 1 0 0 0 0 0 1 20 19 14 1 10 20
22 21 20 18 26 29 23 17 16 12 12 0 2 6 0 0
0 0 0 0 0 0 0 26 60 1 6 5 0 0 0 1
6 17 16 14 14 14 13 14 14 17 31 42 58 62 69 70
54 77 92 102 106 105 103 101 96 92 88 85 85 87 91 97
104 109 115 119 120 120 120 120 120 114 92 92 91 91 88 51
77 78 69 59 43 24 8 0 0 1 1 0 0 0 0 0
0 0 0 0 0 0 0 0 0 0 0 0 0 0 0 0
0 0 0 9 0 0 0 0 0 1 10 8 2 5 3 20
0 0 0 0 14 16 7 8 9 5 2 0 3 0 0 0
0 0 0 0 1 25 30 22 56 1 9 6 0 0 0 0
0 11 15 14 13 13 13 13 25 51 56 38 68 69 71 72
60 80 92 102 105 108 107 104 101 97 93 92 95 98 102 106
112 117 121 121 121 121 121 120 120 114 89 91 92 92 92 62
87 84 88 84 77 73 72 57 30 4 0 0 0 0 1 1
1 2 1 1 1 0 1 0 1 0 0 0 0 0 0 0
0 0 0 3 0 0 0 0 0 0 2 3 14 15 2 19
0 0 0 0 0 0 0 0 0 0 0 0 20 21 0 0
0 0 0 0 4 61 57 23 59 2 0 0 0 0 0 0
0 7 13 14 15 25 30 43 52 60 54 53 66 68 70 74
64 84 91 101 105 108 109 110 106 103 103 103 105 107 111 116
119 120 120 120 120 120 120 120 119 107 92 90 94 98 100 85
97 91 98 97 92 88 87 82 85 82 48 16 0 0 0 0
0 0 0 0 0 0 1 2 0 0 0 0 0 0 0 0
0 0 0 0 0 0 0 0 0 0 0 0 3 5 0 16
0 0 0 0 0 0 0 0 1 3 7 5 3 5 0 0
0 0 16 2 1 68 66 29 73 4 0 0 0 0 0 0
0 7 18 34 59 53 39 50 55 60 57 56 66 67 72 75
69 84 93 101 105 109 111 114 118 114 111 110 114 117 120 120
121 121 121 121 121 120 120 120 119 107 90 91 99 107 105 98
99 94 98 101 99 95 89 89 85 89 92 88 69 34 5 0
0 0 0 0 0 0 0 0 0 0 0 0 0 0 0 0
0 0 0 0 0 0 0 0 0 0 0 0 0 0 0 3
0 0 0 0 0 0 3 8 21 22 20 14 0 1 1 0
0 3 27 2 0 59 74 42 79 15 0 0 0 4 14 27
29 40 49 54 62 53 44 58 59 65 63 51 68 68 69 73
73 77 95 99 103 110 114 117 117 119 121 121 120 120 121 121
121 121 121 120 120 120 120 120 115 99 90 93 105 108 103 105
100 99 100 105 102 96 94 95 90 87 87 88 87 86 78 47
15 0 0 0 0 0 0 0 0 0 0 0 0 0 0 0
0 0 0 3 0 0 0 0 0 0 0 0 0 0 0 0
0 1 4 11 19 19 17 17 18 20 19 15 0 0 0 0
0 3 31 13 4 38 46 30 77 29 8 37 55 70 62 54
58 57 49 61 72 65 52 62 64 68 69 56 70 69 70 74
75 74 94 99 104 111 117 119 119 119 120 121 121 120 121 121
121 121 121 121 121 115 121 119 107 90 89 100 107 110 103 108
101 103 102 106 105 99 102 105 104 98 96 89 87 86 85 82
81 62 34 7 0 0 0 0 0 0 0 0 0 0 0 0
0 0 0 0 0 0 0 0 0 0 0 0 0 0 0 0
15 21 24 26 29 28 24 25 26 25 23 20 16 17 19 19
6 12 21 22 12 17 15 13 64 71 76 82 84 85 78 76
76 75 65 68 77 79 68 70 73 74 80 73 82 83 83 76
75 81 93 99 102 107 114 119 121 121 121 121 122 121 120 121
121 121 120 120 121 121 120 112 93 89 95 106 110 107 109 109
103 106 103 109 106 99 106 108 103 98 92 93 99 96 90 88
89 87 84 77 46 10 0 0 0 0 0 0 0 0 0 0
0 0 0 0 0 0 0 0 0 0 0 0 0 0 0 0
26 27 29 30 31 30 27 27 31 26 23 21 20 20 23 16
9 18 31 25 6 21 27 54 76 83 85 88 90 91 89 86
92 90 81 80 86 86 86 81 81 81 92 93 93 97 97 93
79 75 94 97 102 103 112 116 119 121 121 121 121 121 120 120
121 121 120 120 121 119 109 96 89 93 101 106 108 104 113 109
102 107 104 108 105 104 109 108 100 97 100 105 103 92 92 93
93 90 91 91 86 76 34 1 0 0 0 0 0 0 0 0
0 0 0 0 0 0 0 0 0 0 0 0 0 0 0 0
28 31 34 35 36 37 35 34 35 30 24 20 20 16 10 7
10 14 3 1 6 36 66 83 86 89 90 93 95 96 97 93
101 100 94 87 93 88 95 95 96 86 99 107 99 103 105 103
91 75 80 99 97 106 109 113 119 120 120 120 122 121 121 121
121 121 121 121 119 108 96 90 90 99 106 109 106 108 114 109
104 109 106 111 106 106 111 109 102 101 106 107 101 95 94 98
96 92 99 98 94 89 84 60 10 0 0 0 0 0 0 0
0 0 0 0 0 0 0 0 0 0 0 0 0 0 0 0
25 29 37 38 37 37 35 35 34 23 17 14 12 9 0 0
6 15 0 8 22 67 89 92 91 94 94 95 97 98 98 95
100 103 100 98 102 93 101 108 104 89 103 109 97 102 105 104
101 80 73 81 96 99 112 118 118 120 121 121 121 121 121 121
121 121 120 113 104 96 94 91 98 106 109 110 106 112 116 109
104 108 107 110 108 109 111 110 101 104 108 107 102 91 97 99
94 97 101 100 97 93 92 90 72 18 0 0 0 0 0 0
0 0 0 0 0 0 0 0 0 0 0 0 0 0 0 0
35 20 23 31 28 51 29 31 26 14 11 11 10 7 6 17
9 3 3 30 61 85 98 93 95 98 97 96 98 102 102 98
101 106 106 105 107 97 102 107 104 92 107 110 99 99 105 106
106 95 73 73 82 101 102 115 121 121 121 121 120 120 121 121
118 113 105 101 96 94 91 97 103 107 108 103 112 114 116 106
102 109 107 112 109 110 113 108 100 106 109 108 98 95 101 101
92 102 106 104 101 97 97 98 93 79 31 0 0 0 0 0
0 0 0 0 0 0 0 0 0 0 0 0 0 0 0 0
24 18 11 13 20 24 29 29 21 10 10 10 9 4 18 23
9 11 9 58 73 95 100 97 98 100 100 97 100 105 105 102
99 107 107 106 107 101 100 106 104 97 108 111 97 99 102 104
104 104 85 70 72 77 90 100 112 118 120 119 118 113 112 107
103 100 98 97 94 93 98 102 106 106 105 111 113 114 115 106
103 110 108 111 110 112 113 105 101 110 111 107 98 99 104 101
89 107 110 107 105 101 100 101 99 92 83 31 0 0 0 0
0 0 0 0 0 0 0 0 0 0 0 0 0 0 0 0
30 32 29 23 20 21 23 22 15 8 6 7 6 19 66 57
42 32 50 64 79 99 102 100 100 103 101 99 102 107 108 105
100 109 111 109 108 105 98 107 104 101 109 111 97 100 103 104
106 105 102 85 73 68 72 82 92 95 97 104 100 102 100 99
98 94 94 95 92 98 104 106 107 104 110 114 115 115 116 109
105 111 110 113 112 114 113 103 103 112 111 106 99 101 106 99
89 109 112 108 108 103 101 103 103 97 91 63 2 0 0 0
0 0 0 0 0 0 0 0 0 0 0 0 0 0 0 0
27 33 33 32 29 26 23 15 10 6 1 0 16 52 46 61
62 54 66 68 87 101 105 103 103 108 105 99 102 105 109 108
102 107 111 109 108 108 98 107 108 108 111 112 97 98 108 103
103 105 106 102 90 80 78 77 76 75 82 87 89 91 89 86
91 93 94 95 100 105 107 105 104 109 111 113 114 115 115 108
105 111 110 111 113 113 108 103 108 112 109 106 102 106 108 90
95 109 112 110 110 102 103 104 103 99 95 91 42 0 0 0
0 0 0 0 0 0 0 0 0 0 0 0 0 0 0 0
32 34 34 33 33 31 28 17 13 13 8 7 14 55 42 63
68 64 69 72 92 102 107 104 107 109 104 96 104 104 110 109
104 107 112 111 108 110 100 105 109 110 111 110 95 98 108 108
106 103 104 106 104 102 92 91 85 88 88 85 89 91 91 94
95 101 101 104 106 107 104 104 114 112 111 114 116 115 114 109
104 111 111 112 113 113 107 104 109 113 108 107 105 108 106 84
98 110 114 111 111 103 104 106 103 99 96 94 88 23 0 0
0 0 0 0 0 0 0 0 0 0 0 0 0 0 0 0
34 33 33 32 31 27 20 13 13 13 11 10 13 53 40 58
67 70 73 74 95 104 108 107 109 111 106 96 105 102 110 112
105 105 112 112 109 111 105 103 110 113 112 110 97 97 109 110
108 107 102 105 105 103 103 100 94 103 98 101 97 98 102 102
102 102 106 105 107 103 106 115 115 109 113 114 116 116 115 109
105 111 112 112 112 112 107 104 109 112 110 109 108 108 103 81
102 110 113 113 111 101 106 106 103 102 95 99 97 77 4 0
0 0 0 0 0 0 0 0 0 0 0 0 0 0 0 0
33 34 33 33 32 22 13 11 11 11 10 10 9 42 45 55
73 74 69 71 98 105 108 108 109 111 106 94 106 103 110 113
109 104 113 113 110 111 108 103 111 113 110 108 96 98 109 111
108 109 110 106 105 103 106 105 105 106 105 103 104 104 105 105
105 106 106 102 106 114 116 114 112 110 114 115 116 115 114 110
105 112 113 112 113 111 107 105 108 112 111 108 108 107 98 84
104 112 114 114 111 101 106 107 104 103 97 105 101 96 46 0
0 0 0 0 0 0 0 0 0 0 0 0 0 0 0 0
30 34 33 33 31 19 12 11 11 10 10 10 9 36 52 62
80 77 72 73 101 105 107 110 111 111 105 94 106 103 110 113
111 106 111 113 111 111 112 105 112 113 110 109 97 101 109 111
109 108 108 111 110 98 95 96 104 106 106 105 106 104 104 103
100 101 106 113 115 116 116 113 109 111 115 116 116 114 115 110
105 110 111 112 113 110 107 105 110 112 111 109 108 105 93 84
106 112 114 114 109 99 104 105 105 102 100 108 104 100 91 12
0 0 0 0 0 0 0 0 0 0 0 0 0 0 0 0
26 34 34 33 31 20 13 12 11 12 11 10 10 7 28 75
84 80 77 76 104 106 110 110 112 110 104 92 106 104 109 115
114 108 109 113 111 111 112 107 110 111 108 108 96 103 109 112
111 110 111 113 113 113 108 92 90 88 91 89 92 97 98 103
108 114 117 117 117 117 115 110 110 113 116 117 115 113 114 110
104 110 113 112 112 110 107 108 112 113 111 109 107 103 92 82
106 113 112 114 109 100 104 107 107 101 104 109 106 106 101 67
1 0 0 0 0 0 0 0 0 0 0 0 0 0 0 0
20 30 33 33 33 21 13 11 12 12 11 11 12 3 46 85
88 82 76 77 105 107 108 110 111 112 103 90 106 106 108 115
115 111 110 113 112 112 113 111 113 109 109 108 97 104 109 110
112 112 111 112 113 115 113 113 113 111 110 110 109 111 112 114
114 114 116 115 115 116 112 108 111 114 116 117 115 114 114 110
103 109 111 112 112 110 105 108 111 110 111 111 106 102 93 86
108 112 112 114 109 98 104 107 107 100 108 108 108 108 105 97
36 0 0 0 0 0 0 0 0 0 0 0 0 0 0 0
17 20 30 33 32 23 13 11 11 11 10 11 15 19 73 90
93 85 75 76 103 109 109 109 111 111 102 89 105 108 108 115
114 111 110 112 111 112 112 111 109 107 110 104 98 103 109 111
113 112 112 114 114 114 115 113 112 113 112 112 114 114 114 114
113 115 115 116 117 114 110 110 112 115 115 114 114 113 112 110
103 108 112 111 112 109 107 109 113 111 111 109 107 101 91 85
107 112 112 113 108 99 104 109 108 102 110 109 109 109 108 103
87 11 0 0 0 0 0 0 0 0 0 0 0 0 0 0
16 15 17 23 29 25 14 12 13 12 12 11 20 53 81 94
98 89 74 73 100 109 109 111 112 111 99 88 103 108 106 114
114 112 110 112 110 111 111 110 109 109 109 104 102 104 109 110
112 111 111 112 113 113 114 113 113 112 113 113 112 113 115 114
114 115 116 115 116 113 110 110 113 115 116 115 114 113 112 109
103 106 111 111 111 108 107 110 113 111 112 110 105 102 90 92
109 112 109 112 106 100 103 110 107 106 110 109 110 110 108 106
101 63 1 0 0 0 0 0 0 0 0 0 0 0 0 0
18 15 16 16 21 25 20 19 20 14 10 11 31 76 88 95
101 98 78 73 95 110 110 110 111 111 97 87 104 108 106 113
114 112 111 112 110 110 110 110 108 109 109 103 103 105 110 111
113 113 112 113 114 113 114 113 114 113 113 112 112 112 114 113
115 116 117 114 115 112 110 111 114 117 116 115 113 113 113 110
104 107 111 112 112 110 108 111 113 112 112 107 105 100 90 93
108 111 108 112 107 102 104 111 103 110 110 110 110 111 109 108
104 93 29 0 0 0 0 0 0 0 0 0 0 0 0 0
26 19 15 13 16 22 25 27 27 16 10 13 55 83 91 94
102 103 83 71 91 108 110 110 111 112 92 86 103 109 105 111
112 112 111 112 110 110 111 110 109 109 106 105 103 106 110 113
112 113 113 113 111 112 113 112 114 113 112 112 113 113 114 114
115 116 115 114 112 111 110 112 114 116 114 114 113 114 113 110
105 105 110 113 111 111 108 110 112 112 110 106 105 101 90 95
110 110 105 111 106 103 104 110 100 111 111 110 110 110 109 109
105 100 80 6 0 0 0 0 0 0 0 0 0 0 0 0
33 29 24 18 20 24 26 29 26 15 10 24 74 86 96 97
100 106 93 70 88 108 110 111 111 112 89 83 103 109 104 110
112 112 110 111 109 110 110 110 109 108 105 105 104 105 110 112
112 112 112 113 112 113 113 112 113 112 113 112 112 114 115 114
115 115 114 114 113 110 111 113 114 114 114 114 112 114 114 110
106 104 110 113 112 111 109 111 113 113 110 107 106 101 88 99
111 107 102 109 105 106 107 110 97 110 111 109 112 110 110 108
105 102 96 50 0 0 0 0 0 0 0 0 0 0 0 0
32 31 31 28 28 27 24 27 26 15 10 52 81 91 96 100
97 108 98 70 82 108 109 110 109 110 84 82 103 108 105 109
111 109 109 109 109 110 109 109 109 107 105 106 104 107 110 112
112 113 113 113 113 112 111 111 113 112 112 113 113 113 115 115
114 115 115 115 114 109 112 114 114 115 115 113 112 113 113 110
107 102 108 110 109 109 108 109 114 113 110 106 105 99 90 100
111 105 103 108 103 106 106 108 95 110 109 110 110 110 110 110
108 106 102 89 15 0 0 0 0 0 0 0 0 0 0 0
32 31 31 30 29 28 23 25 23 12 23 73 86 92 96 100
99 105 102 73 79 108 108 108 109 109 80 79 102 109 103 108
111 110 109 109 108 108 109 109 108 106 104 105 105 107 110 113
113 113 113 112 113 113 112 112 114 112 113 112 113 113 115 113
113 113 113 113 112 110 112 114 115 113 113 111 112 111 111 111
107 101 106 108 108 108 108 110 113 112 108 105 102 97 91 99
110 103 100 107 104 106 107 108 97 107 107 108 108 108 109 108
108 107 103 97 65 1 0 0 0 0 0 0 0 0 0 0
30 29 29 28 28 27 22 24 23 13 49 80 88 92 98 100
101 102 103 75 75 104 105 108 109 109 78 77 101 108 105 108
110 110 110 109 109 107 109 109 109 107 105 105 107 108 109 112
112 112 111 112 113 112 112 112 113 112 111 112 114 113 114 114
114 114 114 112 110 110 111 113 113 113 112 111 111 112 111 109
108 101 106 108 108 108 109 111 113 111 107 105 101 96 90 102
110 101 99 104 104 106 106 102 91 106 106 106 105 107 108 107
108 107 105 102 93 31 0 0 0 0 0 0 0 0 0 0
