P2
128 120
133
9 9 10 9 9 10 11 14 18 21 24 27 27 27 27 27
26 26 26 26 26 25 25 24 24 25 24 24 23 23 23 22
21 22 22 21 21 21 21 21 21 20 20 20 20 19 19 19
19 19 19 18 18 19 20 21 25 25 24 24 18 14 23 25
14 21 20 20 20 19 19 18 18 18 17 16 13 19 17 20
20 20 20 20 20 21 21 20 20 20 21 21 21 21 21 21
21 21 21 22 22 22 23 23 23 24 23 24 24 24 24 23
24 24 24 23 23 23 24 24 24 24 24 24 24 24 21 22
11 9 9 8 10 8 10 5 3 5 12 27 28 28 27 27
27 26 26 26 25 25 25 24 24 24 24 24 24 23 23 22
22 22 22 22 21 21 21 20 20 20 21 20 20 20 20 19
19 19 18 18 18 18 19 20 25 25 25 25 19 15 23 27
15 20 21 20 20 20 19 18 18 18 17 17 14 19 18 21
21 20 21 21 21 20 20 20 20 21 21 21 22 21 21 21
22 23 23 23 23 23 23 23 24 23 23 23 24 23 24 23
24 24 24 24 24 24 24 24 23 22 22 22 23 22 22 23
21 17 14 9 7 8 10 8 5 6 12 27 27 27 27 27
27 26 25 26 26 26 25 26 25 24 24 24 23 23 23 23
22 22 22 22 21 21 21 21 21 20 20 20 20 19 20 19
19 19 19 19 19 19 19 21 26 25 25 25 19 15 24 26
15 19 21 21 20 19 19 19 19 18 18 18 14 19 18 20
21 20 20 20 20 21 21 21 21 21 22 21 23 22 21 22
22 22 22 22 23 23 23 24 24 24 24 23 24 24 23 23
23 24 23 22 22 22 21 23 23 25 26 24 24 23 24 23
29 32 35 30 27 23 16 10 6 7 11 27 28 28 28 28
27 26 28 27 27 26 26 25 25 24 24 24 24 24 24 23
23 23 23 22 22 30 30 27 23 22 21 21 20 20 20 19
19 19 19 18 19 19 20 21 25 25 25 25 19 15 24 27
16 19 22 21 21 20 19 19 19 18 18 18 15 19 18 21
21 21 21 21 21 21 21 21 21 21 22 21 22 22 22 22
23 23 23 24 24 24 24 23 24 24 24 23 23 23 23 23
24 23 24 24 26 24 23 24 24 24 24 23 23 23 24 23
32 35 37 26 39 39 38 33 8 9 13 28 28 28 28 27
27 28 37 35 34 32 29 27 26 24 24 25 24 24 23 23
23 22 22 23 25 35 34 31 29 28 27 22 20 20 20 20
20 19 19 19 20 20 20 21 26 26 25 25 18 14 24 27
17 17 21 21 21 20 20 20 19 19 19 18 15 20 19 22
21 21 21 21 21 21 22 22 22 22 22 22 24 23 23 22
23 23 23 23 23 23 23 23 24 23 23 23 23 23 24 23
23 23 23 23 25 25 24 23 23 24 24 24 23 23 24 23
33 37 37 38 40 41 41 38 9 9 15 29 29 28 28 28
27 29 38 36 35 33 31 30 31 31 27 26 25 24 24 23
23 23 23 23 25 33 32 30 28 29 29 26 20 20 21 20
20 20 20 20 20 19 20 21 25 25 25 25 19 15 24 27
19 16 22 21 21 21 20 20 18 18 19 19 16 20 19 21
22 21 22 22 22 22 22 22 21 21 22 23 23 23 23 24
22 23 23 24 24 23 24 23 23 23 22 23 23 23 24 24
23 24 24 24 25 25 24 24 25 24 23 24 24 24 23 23
34 37 37 39 40 41 42 40 12 9 18 32 31 29 29 28
27 29 38 36 35 33 33 34 36 37 30 32 31 29 26 23
23 23 23 22 25 26 25 27 28 29 29 28 22 21 20 20
21 20 20 20 19 20 21 22 26 26 26 25 18 13 13 25
20 13 22 22 21 21 20 21 20 19 19 19 16 21 19 21
21 22 22 22 22 22 22 22 22 22 22 23 22 22 22 22
23 22 23 23 23 22 23 23 23 23 24 23 23 23 23 23
24 24 24 22 23 24 23 24 24 23 24 24 23 25 24 23
34 33 36 39 40 40 40 38 12 9 18 34 32 30 31 31
31 31 23 18 26 32 34 37 37 36 27 18 25 31 31 31
30 29 28 25 25 17 7 7 9 13 19 25 22 21 21 21
21 21 20 20 21 20 21 21 25 26 25 21 8 13 9 24
22 13 23 22 22 21 21 21 19 19 19 19 17 21 19 22
23 23 23 22 22 23 22 23 22 22 22 22 23 23 23 23
23 23 24 24 25 23 24 24 24 23 23 23 23 23 23 23
23 24 24 24 24 25 24 24 24 24 24 24 23 23 24 23
6 14 21 32 37 38 38 38 13 11 19 34 31 24 24 29
34 38 14 0 0 8 18 20 24 31 23 0 0 1 7 14
17 25 30 29 26 17 5 2 6 4 0 10 24 21 21 21
21 20 20 20 20 21 21 22 27 27 26 24 17 15 22 27
23 13 22 22 22 20 21 23 20 19 20 20 17 22 19 22
22 22 22 22 22 23 22 23 23 23 22 23 23 23 23 22
23 23 23 23 24 23 24 24 24 24 25 24 23 24 24 24
24 24 24 24 24 25 24 24 24 24 25 24 24 24 24 24
0 0 1 0 3 5 9 37 14 10 16 30 34 34 33 31
37 40 16 0 0 2 6 7 7 17 22 0 0 0 0 0
0 0 3 9 26 16 2 1 0 3 0 9 26 22 22 22
21 21 21 21 21 21 22 22 27 27 27 26 20 16 25 28
25 12 23 23 22 21 21 22 20 20 20 19 17 21 18 22
22 22 23 23 24 24 24 23 24 23 22 23 23 23 23 23
24 24 23 24 25 23 24 24 24 24 24 24 24 24 24 23
24 24 24 24 25 26 25 24 24 23 24 24 24 25 24 23
0 0 0 0 0 0 0 34 12 10 5 0 4 11 19 28
35 38 17 0 0 0 2 5 5 16 24 0 0 0 0 0
0 0 0 0 26 14 0 0 0 1 0 9 25 22 22 21
21 20 21 20 20 20 22 22 27 27 27 26 20 17 25 28
25 12 21 22 23 21 21 22 20 20 20 20 17 21 19 22
23 23 22 23 23 23 23 23 23 22 23 23 23 23 23 22
23 23 22 22 24 23 23 24 23 24 23 24 24 24 23 24
23 23 23 23 23 23 24 22 23 23 23 24 24 24 23 24
0 0 2 0 0 0 0 33 13 9 4 0 0 0 0 0
2 8 16 0 0 0 0 0 0 11 23 0 0 0 0 0
0 0 0 0 26 9 0 0 0 0 0 9 26 21 22 21
21 20 20 20 21 20 21 21 26 26 26 25 19 16 24 28
26 15 19 23 22 21 21 22 19 20 19 19 16 21 17 22
22 22 23 22 23 23 22 22 22 22 21 22 22 22 22 22
22 22 22 22 24 24 24 23 23 23 22 22 22 23 23 23
23 23 23 23 24 24 24 23 23 22 23 23 23 23 23 23
0 0 11 3 0 0 0 35 12 9 4 0 0 0 0 0
0 0 12 0 0 0 0 0 0 12 21 0 0 0 0 2
0 0 0 0 24 7 0 0 0 0 0 10 27 21 21 21
20 20 19 20 20 20 20 22 26 26 26 26 20 17 24 27
25 15 16 22 21 21 20 21 19 20 19 18 17 20 18 22
22 22 21 22 22 21 22 22 22 21 21 21 22 22 22 22
21 22 22 22 23 22 23 23 22 23 22 23 23 23 22 22
22 22 22 22 23 22 23 22 21 22 23 22 22 23 23 23
0 0 2 14 0 0 0 33 11 8 3 0 0 0 0 0
0 0 10 0 0 0 0 0 0 16 24 0 0 0 0 5
5 0 0 0 24 7 0 0 0 0 0 6 26 19 20 20
20 20 20 19 20 20 21 21 26 25 25 25 19 16 24 26
24 17 14 22 21 21 20 20 18 18 19 18 16 20 17 21
22 22 22 21 22 22 22 22 21 21 21 21 22 21 21 21
22 22 22 22 23 21 22 22 22 22 22 22 22 22 22 22
22 23 23 23 24 23 22 23 23 23 23 23 23 22 22 22
0 0 0 1 0 0 0 33 10 8 3 0 0 0 2 0
0 0 8 0 0 0 0 0 0 12 25 0 0 0 0 5
5 5 3 0 22 7 0 0 0 0 0 5 27 20 20 20
20 20 19 19 19 20 21 21 26 26 27 26 20 17 23 27
25 18 12 21 21 21 20 20 18 19 19 18 16 20 17 22
22 22 21 21 22 21 21 20 21 21 21 21 21 22 22 22
22 22 22 23 22 22 22 22 23 22 23 23 23 23 22 22
22 22 22 22 21 23 23 24 23 23 23 23 23 22 23 24
0 0 0 0 0 0 1 34 9 8 4 0 1 0 5 1
0 0 7 0 0 0 0 0 0 14 26 0 0 0 0 7
6 6 5 0 23 8 0 0 0 0 0 4 28 20 20 20
20 20 20 21 20 21 22 22 27 27 26 25 19 16 24 27
26 20 13 23 22 21 20 20 19 19 19 19 16 19 17 22
22 22 22 22 22 21 22 21 22 21 22 22 22 22 22 22
23 23 23 23 24 22 23 23 23 23 23 23 22 22 23 22
22 23 23 23 23 24 24 23 24 23 23 22 22 22 24 23
0 2 0 0 0 0 3 34 9 10 4 2 4 0 1 0
0 0 7 0 0 0 0 0 2 15 27 0 0 0 0 2
5 6 4 0 21 16 6 1 0 0 0 4 29 21 21 21
21 20 21 20 20 20 21 21 27 27 27 25 19 17 24 27
27 22 14 22 22 21 21 21 20 20 20 20 18 21 18 23
23 23 22 22 23 22 21 21 22 22 22 23 23 23 23 23
24 24 23 23 23 22 22 22 23 24 23 23 24 24 24 23
23 24 23 24 24 24 22 23 23 23 24 23 22 23 25 24
6 7 9 6 3 2 5 34 9 10 4 1 0 0 0 0
0 0 11 0 0 0 0 0 4 20 33 9 4 1 0 0
0 3 3 0 20 31 30 26 23 19 18 20 28 20 21 21
21 21 21 21 21 21 23 22 26 26 25 24 20 16 25 26
25 22 15 21 23 22 21 21 19 20 20 20 17 20 17 22
22 21 22 23 23 22 23 23 22 22 23 23 23 23 22 23
22 23 23 23 24 23 22 23 23 24 24 24 25 24 23 23
24 23 24 23 24 24 24 23 23 23 23 23 23 22 24 24
20 26 29 33 33 30 29 29 9 9 4 0 0 0 0 0
0 0 30 28 19 14 12 6 0 14 41 26 27 27 25 19
13 7 4 2 22 31 30 28 28 31 35 36 30 20 21 21
21 21 21 21 20 21 23 23 28 26 26 24 21 20 26 27
25 22 15 18 22 22 21 20 20 20 20 20 18 20 17 23
23 22 21 22 22 22 23 22 22 23 23 23 23 23 24 24
24 23 23 23 23 23 22 23 23 23 24 23 24 23 24 24
24 24 24 23 24 23 24 23 24 23 23 23 24 23 24 24
20 29 37 41 38 39 38 30 9 9 4 0 0 0 0 0
0 1 37 40 29 34 35 38 35 38 38 8 7 9 11 13
16 19 24 29 35 26 25 28 28 33 36 37 31 20 21 21
21 21 21 20 20 22 23 22 26 29 33 32 34 33 29 31
27 23 18 17 22 22 22 21 20 20 20 20 18 20 18 23
23 22 21 22 23 24 23 23 23 23 23 23 23 22 23 23
23 23 24 23 23 23 23 24 24 24 24 24 24 23 23 23
23 23 23 23 24 23 23 22 23 22 22 21 22 25 24 21
23 31 37 38 37 42 41 32 9 9 7 1 0 0 0 0
0 1 38 32 31 38 39 43 39 32 28 8 7 8 7 7
6 5 4 4 5 5 10 13 18 24 22 22 23 21 22 22
21 21 22 22 20 18 17 19 23 34 33 28 31 32 34 42
43 33 24 18 25 22 22 21 20 20 20 19 19 21 19 23
23 23 23 22 23 22 23 23 24 23 22 22 24 23 24 23
23 23 24 24 23 24 24 24 24 24 24 23 25 23 23 21
21 21 21 22 22 23 22 21 22 20 19 18 15 13 11 9
7 14 21 23 27 31 36 31 9 10 19 32 29 22 15 8
4 3 35 25 33 37 39 42 42 34 26 10 8 8 6 5
3 3 2 2 1 2 3 3 7 22 21 18 19 20 22 21
20 19 20 21 20 22 25 28 28 37 33 32 30 36 41 44
44 43 39 33 28 24 22 22 20 20 20 19 18 20 19 23
23 23 23 23 23 24 23 23 24 23 22 22 24 23 23 23
23 23 24 24 24 23 24 24 24 24 25 24 25 24 23 24
23 19 19 17 15 13 11 9 7 7 6 5 5 5 6 6
0 0 0 0 0 0 7 31 10 10 20 38 40 39 37 37
36 37 35 19 29 34 37 39 40 35 30 13 10 7 5 3
3 3 3 3 3 3 4 4 10 19 6 17 21 21 24 24
22 19 14 9 15 25 28 33 41 42 36 33 31 39 39 42
43 43 38 41 35 28 24 21 21 20 20 20 18 21 20 23
24 23 22 22 22 22 22 23 23 22 22 22 24 24 24 23
24 24 25 25 25 25 25 24 23 21 18 17 15 12 11 15
23 8 4 5 6 7 7 8 9 9 10 9 10 10 11 12
0 0 0 0 0 0 6 31 10 10 20 38 40 39 38 39
39 41 31 0 2 6 10 16 21 22 30 14 8 5 1 0
0 1 4 6 6 4 7 7 13 23 15 17 26 26 25 17
12 11 9 14 18 29 33 41 52 50 43 40 39 48 51 48
53 44 43 48 44 37 29 24 20 19 19 19 18 21 19 23
23 22 22 22 22 22 22 22 22 22 23 23 24 24 24 23
23 23 21 19 17 15 13 11 9 8 7 8 8 8 8 11
21 5 6 9 11 11 12 13 14 14 14 15 16 16 16 16
0 0 0 0 8 8 9 30 13 10 17 34 37 37 38 39
40 41 27 0 0 0 0 0 5 10 30 14 7 5 0 0
0 0 1 3 2 0 3 5 9 25 27 24 27 28 28 19
3 0 5 12 21 33 47 62 78 62 57 57 57 60 55 48
48 52 48 43 40 46 39 30 19 19 20 19 18 21 19 22
22 21 21 20 19 20 20 13 18 22 21 20 18 16 14 13
12 11 10 10 9 9 11 11 12 12 12 12 13 13 13 13
20 6 12 15 17 17 18 18 19 18 18 19 19 19 19 19
0 0 0 2 23 22 19 23 22 18 20 24 26 27 28 28
30 37 23 0 0 0 0 0 0 6 33 13 5 5 1 0
0 0 0 0 0 0 0 0 4 24 28 17 17 17 17 7
1 6 8 18 30 47 73 91 96 91 94 94 100 101 92 78
66 55 52 48 43 35 41 36 24 17 19 18 19 18 18 20
20 20 21 19 18 17 15 8 9 11 10 9 10 10 10 11
12 12 14 14 14 15 15 16 17 17 17 18 18 18 18 17
24 10 15 18 20 20 21 20 21 21 21 20 21 21 21 21
0 0 0 0 20 21 18 19 18 12 16 13 15 21 26 23
27 37 22 0 0 0 0 0 0 1 34 9 5 0 0 0
0 3 0 0 0 0 0 0 3 25 30 17 15 22 10 1
6 12 24 41 60 78 98 105 108 111 113 115 117 118 118 114
108 96 81 68 59 44 32 32 32 28 17 12 11 14 16 16
13 12 11 10 10 10 11 10 10 12 13 14 15 15 16 17
18 18 19 19 19 19 20 20 20 20 21 20 21 20 20 13
9 5 18 21 22 21 22 22 23 22 23 23 23 22 22 22
0 0 0 0 3 5 9 18 16 14 16 19 20 21 25 24
30 36 21 0 0 0 0 0 0 2 35 3 0 0 0 0
0 4 5 0 0 0 0 0 3 26 31 14 13 12 0 5
13 27 48 71 90 99 107 110 114 115 117 119 119 119 120 120
119 119 115 107 88 57 45 34 28 32 28 17 9 9 7 9
9 12 12 13 13 14 15 15 16 18 19 19 19 20 21 21
20 21 22 21 21 21 22 21 22 22 22 22 22 22 20 7
0 0 17 22 23 23 23 22 21 23 23 22 23 22 23 22
0 0 0 0 0 0 2 18 10 12 12 4 9 14 19 23
30 32 20 0 0 0 0 0 0 3 35 3 0 0 0 0
0 1 12 5 2 0 0 0 3 26 31 14 7 2 4 12
26 49 76 92 99 104 109 114 117 117 118 119 120 120 121 120
120 121 120 119 116 101 70 40 35 28 29 22 13 12 11 12
15 16 17 17 18 19 19 19 20 21 22 22 22 21 22 22
23 23 23 23 23 23 23 23 24 23 22 17 13 11 19 5
4 0 15 23 24 24 23 24 23 23 23 23 24 23 23 23
0 0 2 0 0 0 3 24 18 18 12 0 0 0 0 0
0 2 15 0 0 0 0 0 0 6 34 2 0 0 0 0
3 6 9 7 8 0 0 0 4 27 30 18 7 3 12 28
48 70 88 97 103 107 110 117 119 119 121 120 120 120 120 120
120 120 120 120 120 117 105 65 46 31 22 26 20 16 13 16
19 19 19 20 20 21 20 21 23 23 22 23 23 23 23 24
24 23 24 24 25 23 23 23 24 24 8 0 0 2 16 4
0 0 15 22 23 24 23 23 24 24 23 24 24 24 24 23
0 0 2 2 0 0 3 30 21 18 14 0 0 0 0 0
0 0 13 0 0 0 2 0 0 4 33 1 0 0 0 0
8 12 15 4 4 0 0 0 3 26 31 17 5 7 22 45
68 85 93 100 105 110 114 118 120 120 121 121 121 121 120 121
121 121 120 121 120 120 116 100 55 41 25 21 21 20 17 19
21 21 21 22 23 22 22 23 24 24 23 23 23 24 24 24
24 24 24 25 25 24 25 24 24 24 20 17 19 21 21 8
0 0 15 22 23 24 23 22 23 23 23 23 23 23 23 23
0 0 1 5 0 0 3 33 23 18 13 0 0 0 0 0
0 0 12 0 0 4 10 3 0 5 32 0 0 0 0 0
0 2 15 0 0 0 0 0 2 25 31 10 5 17 35 62
78 87 94 101 105 110 117 120 120 121 121 121 121 121 121 121
121 120 120 121 120 120 120 113 89 50 31 19 20 18 21 21
22 22 22 22 23 22 23 24 24 24 24 24 24 24 24 24
24 24 25 25 26 24 25 25 25 25 24 24 23 22 20 9
0 0 15 22 23 24 23 23 23 23 24 24 24 24 24 23
10 6 5 12 7 2 2 33 19 16 12 0 0 1 9 0
0 0 13 0 0 11 12 6 0 5 29 0 0 0 0 0
0 0 13 0 0 0 0 0 0 23 27 7 10 21 50 73
82 87 94 101 103 111 115 119 119 121 121 121 121 121 121 121
122 121 121 121 120 121 120 119 110 74 42 18 14 16 19 23
24 23 24 24 24 23 25 24 24 24 24 23 24 24 24 24
25 24 25 25 26 25 25 25 25 25 24 24 23 21 20 14
0 1 17 23 24 24 24 24 24 24 23 24 22 23 23 23
33 30 27 35 33 31 30 36 19 15 12 0 0 8 17 3
1 0 18 7 7 14 12 11 3 7 29 0 0 0 0 0
0 0 14 0 0 0 0 0 0 23 19 7 15 32 63 75
81 86 94 100 104 108 113 119 121 121 121 121 121 121 121 121
120 120 120 121 120 120 120 118 114 101 61 22 14 14 16 25
24 24 23 22 22 22 24 24 24 24 24 24 24 25 25 24
25 25 25 25 25 25 25 25 24 24 24 24 24 22 20 15
4 6 19 23 23 25 24 23 24 24 23 23 23 23 23 23
2 4 11 17 27 33 39 37 22 13 11 0 0 6 10 1
1 0 28 32 33 35 33 32 32 33 31 0 0 0 0 0
0 0 16 0 0 0 0 0 0 17 8 8 25 45 68 74
80 87 92 97 105 110 115 118 121 121 121 121 121 121 121 121
121 121 121 120 120 120 120 118 116 114 94 37 12 11 17 24
24 23 24 24 24 24 24 24 24 23 24 24 24 25 24 24
24 24 24 25 25 24 25 24 25 24 24 23 23 21 19 15
14 15 22 24 25 25 23 23 24 24 23 24 23 23 23 23
0 0 0 5 0 20 39 36 20 14 13 0 0 0 0 0
0 0 26 32 35 36 35 36 41 43 36 10 8 11 2 1
0 0 17 1 0 0 0 0 0 10 7 13 34 59 70 74
81 84 90 97 105 111 114 118 120 121 121 122 121 121 121 121
121 120 120 120 120 120 120 119 117 114 114 72 14 10 14 18
24 23 24 23 23 23 24 23 24 24 24 24 24 24 24 24
25 24 25 25 25 24 24 24 24 24 24 24 23 22 19 17
18 20 23 24 24 24 23 23 23 23 22 23 24 23 23 23
0 0 9 27 7 27 37 32 18 15 17 13 1 0 0 0
0 0 25 33 34 34 34 36 43 44 40 25 26 25 23 22
22 20 21 15 13 11 11 8 10 11 4 15 41 66 70 75
81 86 93 99 107 112 116 120 120 121 120 121 121 121 120 121
121 120 120 120 120 120 121 120 118 113 112 81 19 7 13 16
22 23 24 23 24 24 24 24 24 23 24 24 23 23 24 24
24 24 25 25 25 25 25 24 25 25 23 23 22 22 20 19
19 23 23 24 24 24 24 24 24 24 24 23 23 23 23 23
0 0 1 23 20 31 36 26 16 17 18 8 0 0 0 0
0 0 25 26 29 30 30 31 30 29 30 27 29 28 27 25
26 27 26 24 22 19 17 16 15 9 4 14 48 67 71 76
81 87 93 101 108 115 119 120 121 121 121 122 121 121 121 121
121 120 120 119 120 120 121 119 118 114 109 94 26 7 6 14
22 25 23 23 23 24 23 23 24 24 24 24 24 25 25 25
25 24 24 24 24 24 24 24 25 25 24 23 23 22 22 22
22 24 25 24 24 24 24 24 24 24 23 23 22 23 22 23
0 0 0 2 8 31 37 24 17 19 18 1 0 0 0 0
0 0 28 28 28 28 28 28 27 24 25 28 29 30 30 29
28 27 27 27 27 31 29 25 21 8 2 14 50 66 72 78
82 88 92 104 113 118 120 121 121 121 121 121 121 120 120 120
120 116 108 103 103 105 105 104 108 112 109 100 36 6 4 10
19 23 23 23 23 23 24 23 24 24 24 24 24 24 25 23
24 24 24 24 25 25 25 25 25 24 23 23 23 22 21 21
22 22 22 22 22 23 24 23 23 23 22 22 23 23 23 22
0 0 0 0 2 30 38 23 18 17 17 20 18 14 10 9
6 4 29 31 28 27 28 28 29 29 31 32 30 33 36 37
31 26 26 27 29 36 34 32 24 4 2 18 53 69 76 82
88 90 87 90 100 110 120 121 121 121 121 121 121 122 119 104
85 72 64 60 71 76 90 103 100 94 95 97 42 7 7 8
17 24 24 23 24 24 24 24 24 24 25 24 24 24 24 24
24 24 24 25 24 24 24 23 23 24 23 24 24 24 23 24
24 24 23 24 24 24 23 23 22 23 22 22 23 23 22 23
0 0 0 0 0 28 38 23 18 18 20 36 38 39 35 38
41 40 41 34 30 30 30 30 31 33 36 34 31 34 37 40
29 27 23 24 30 37 35 32 22 2 2 22 56 69 99 107
100 104 79 65 57 51 62 89 113 121 121 121 120 112 101 82
67 69 76 74 82 73 64 82 107 98 75 91 44 5 7 6
13 23 23 23 23 22 23 23 24 23 23 23 23 24 24 23
23 23 24 24 24 23 24 25 25 24 23 24 23 23 22 24
24 24 23 24 24 24 23 24 23 23 23 23 23 22 22 23
0 0 0 0 1 30 40 24 17 18 21 42 46 45 44 44
44 43 44 35 30 25 28 26 28 34 38 37 32 33 34 30
31 28 26 20 23 30 28 27 22 0 3 25 55 59 79 77
73 42 33 37 42 50 63 70 89 106 119 121 109 111 101 91
93 103 113 119 120 118 97 85 86 96 77 67 47 8 5 6
11 24 24 23 23 23 24 24 24 24 24 24 25 23 23 23
24 24 24 24 25 24 25 24 24 24 24 23 23 24 23 24
24 24 23 23 24 23 23 22 23 23 24 22 23 23 22 23
0 0 0 0 0 29 39 23 15 19 18 31 35 36 38 39
41 42 44 29 4 9 3 4 5 9 21 37 32 25 8 11
15 15 15 23 24 14 3 1 3 1 4 29 40 55 70 62
36 57 87 87 86 90 86 80 91 104 110 110 107 119 111 112
112 108 111 118 120 121 108 80 93 97 77 69 50 13 4 5
9 23 24 24 24 24 24 24 25 25 25 25 24 24 24 24
23 23 24 24 24 23 24 24 24 24 24 23 23 24 23 23
23 24 23 23 23 23 23 23 23 23 23 23 23 22 22 22
0 0 0 0 0 27 35 19 16 20 15 21 23 22 22 22
22 22 24 19 0 0 0 0 0 0 9 37 30 8 0 0
0 2 6 23 25 12 0 0 0 1 5 27 47 54 62 40
64 94 106 110 108 103 97 83 86 103 110 93 113 122 119 113
106 95 85 84 96 103 97 61 105 103 81 75 71 56 4 4
11 24 24 24 24 24 25 24 25 24 25 25 24 24 24 23
23 23 24 24 24 24 24 24 23 23 23 23 23 24 23 24
23 23 23 24 23 23 24 23 23 22 23 23 23 22 22 23
0 0 0 0 0 28 38 22 15 18 17 27 29 29 28 27
26 25 27 20 2 1 0 0 0 3 15 36 21 0 0 0
0 0 4 27 26 13 0 0 0 1 5 34 72 50 64 46
78 95 97 94 91 85 86 74 80 95 103 105 115 121 114 109
92 64 31 11 24 59 74 91 100 112 104 103 79 91 5 3
9 26 25 25 24 24 24 24 24 24 24 24 24 23 23 23
23 22 22 23 23 24 23 20 19 17 17 15 13 17 23 24
23 23 24 24 23 23 23 23 23 23 22 22 22 22 23 23
0 0 0 0 0 31 41 22 13 18 17 30 32 32 32 31
32 31 32 21 1 0 0 0 0 3 15 35 14 0 0 0
0 0 1 27 26 13 0 0 0 1 9 39 73 59 74 61
79 80 60 37 33 49 48 63 76 85 94 108 116 120 114 115
88 79 45 22 44 81 60 110 125 116 117 120 87 91 8 3
8 26 25 26 24 24 24 24 22 17 16 14 13 11 9 8
8 11 16 24 24 24 23 6 1 1 0 0 0 7 23 24
24 23 24 23 23 23 23 22 22 22 22 22 22 22 22 23
10 6 5 2 1 32 37 19 13 18 18 29 32 33 31 32
32 33 34 22 0 1 0 0 2 1 7 34 9 0 0 0
0 0 2 28 25 13 0 0 0 1 32 62 76 88 111 99
78 89 50 19 15 49 49 46 76 77 85 109 121 113 114 122
81 82 72 47 68 95 90 99 82 68 93 80 72 55 8 3
8 23 26 24 25 25 25 24 16 0 0 4 3 3 0 0
0 0 5 22 23 23 24 6 0 0 1 0 0 7 24 24
24 24 24 24 24 24 23 22 23 22 23 22 22 22 23 23
35 33 33 31 29 33 32 26 24 25 23 16 16 18 18 14
14 22 35 25 0 0 0 0 1 2 5 33 7 0 0 0
0 0 2 28 23 11 0 0 0 2 39 64 104 116 129 107
71 116 87 31 20 52 55 51 71 69 83 104 115 116 101 107
90 94 99 104 112 116 109 102 66 85 106 70 39 36 13 4
9 24 25 24 24 24 24 23 15 0 0 4 2 3 0 0
0 0 3 21 23 23 22 5 0 1 1 0 1 6 24 24
24 24 24 24 24 23 23 23 23 22 22 22 22 22 22 22
32 32 32 32 32 32 32 31 31 30 30 30 30 28 27 8
0 5 32 31 8 0 0 0 2 2 3 33 6 0 0 0
0 0 2 28 23 12 0 0 0 4 38 63 115 110 119 101
67 77 79 81 85 79 60 63 73 68 87 103 110 114 102 104
102 100 104 110 114 118 115 88 65 108 107 61 71 68 14 5
14 25 24 24 24 25 24 23 16 0 0 4 2 4 0 0
0 0 2 20 22 22 22 4 1 0 0 0 0 5 22 24
24 25 24 23 23 23 22 22 22 22 22 23 23 22 21 22
33 33 32 32 32 32 31 31 31 31 30 31 30 30 29 13
0 3 31 31 4 0 0 0 2 2 4 32 6 0 0 0
0 0 0 27 24 15 1 0 0 3 15 38 71 81 69 80
75 86 96 103 103 79 67 73 69 74 99 111 117 118 109 95
109 111 110 111 112 114 113 100 63 107 97 80 103 101 29 21
63 45 25 25 24 25 25 24 16 0 0 5 3 3 0 0
0 0 4 22 24 24 23 6 1 1 1 0 1 3 23 25
24 24 24 24 24 23 22 22 22 22 22 21 21 21 21 23
32 31 32 31 31 31 31 30 30 30 30 29 29 29 29 15
0 1 27 25 0 0 0 0 0 0 4 33 6 0 0 0
0 0 0 26 24 11 0 0 0 3 9 24 44 91 81 57
81 93 99 100 89 77 77 81 66 92 114 122 122 122 121 98
106 110 115 115 115 115 119 117 81 112 69 90 113 102 65 44
88 87 29 25 25 25 24 23 16 0 0 4 4 3 0 0
0 0 4 22 23 22 22 9 5 4 5 6 6 5 20 22
22 22 23 22 22 23 22 22 23 23 24 24 24 24 24 23
8 8 7 7 7 7 7 7 8 8 9 10 19 26 29 19
0 0 22 23 0 0 0 0 0 0 2 33 10 0 0 0
0 0 0 24 26 14 0 0 4 3 8 54 39 73 80 53
86 95 95 87 77 77 82 72 74 93 107 122 123 122 122 115
94 105 118 122 121 120 121 118 86 105 77 110 111 103 84 55
63 71 49 24 24 24 23 22 16 0 0 2 1 2 0 0
0 0 2 21 23 23 23 11 6 6 5 5 5 7 17 23
24 24 24 24 23 23 24 21 23 23 24 22 22 22 22 22
0 0 0 0 0 0 0 0 0 0 0 0 21 31 28 20
0 0 19 22 3 2 1 1 3 7 5 33 22 10 9 11
11 10 11 28 28 23 26 25 23 9 21 67 69 59 77 55
86 93 88 80 77 81 74 65 87 84 92 119 121 80 96 123
102 83 104 113 115 115 117 106 94 110 119 116 111 101 95 72
93 60 62 24 25 24 25 24 17 1 0 0 0 0 0 0
0 0 3 21 23 24 23 10 2 2 2 2 2 4 19 24
24 24 23 23 23 23 23 23 22 22 22 23 22 23 22 23
0 0 0 0 0 0 0 0 0 0 0 0 20 32 28 24
0 0 15 31 29 26 22 23 26 27 28 30 38 41 38 37
39 39 40 40 32 23 30 30 27 15 31 64 72 52 75 56
78 93 94 89 78 67 63 83 83 35 18 101 108 15 29 107
122 111 109 109 106 106 110 115 121 121 120 116 109 101 98 98
110 61 71 24 24 25 24 23 16 1 0 0 0 0 0 0
0 0 3 22 23 24 22 10 1 1 1 0 0 5 7 9
12 24 23 23 23 23 24 23 23 23 22 22 22 22 22 22
0 0 0 0 0 0 0 0 0 0 0 0 17 33 28 24
0 0 12 32 33 28 27 29 28 23 23 25 33 43 40 39
37 40 42 42 34 20 27 31 33 15 38 64 72 80 69 74
75 81 91 76 64 73 89 95 77 14 28 96 116 76 40 111
120 116 121 121 121 121 122 121 121 121 119 116 110 102 102 97
113 69 68 22 24 25 24 22 15 1 0 0 1 4 0 0
0 0 2 21 22 24 22 10 0 2 1 1 0 0 11 8
2 23 23 23 23 23 23 22 22 22 22 22 22 22 22 22
0 0 0 0 0 0 0 0 0 0 0 0 16 34 29 25
2 0 10 33 29 23 25 27 28 25 22 24 24 27 29 29
28 29 28 28 29 19 20 26 46 28 46 62 72 68 74 81
92 101 108 110 98 90 92 89 110 52 71 110 121 121 105 115
112 118 122 122 121 121 122 121 121 121 120 115 110 100 90 83
110 90 59 23 25 25 24 21 16 1 0 0 0 0 0 0
0 0 2 20 22 23 22 10 0 1 2 4 0 1 8 7
2 22 24 23 23 23 24 23 23 22 22 22 22 22 22 22
0 0 0 0 0 0 0 0 0 0 0 0 14 35 28 25
3 0 7 31 16 21 20 20 26 25 23 26 22 14 17 17
17 17 17 18 22 21 23 26 43 49 59 59 66 57 75 82
97 109 118 120 117 106 94 79 88 82 112 122 122 122 120 103
112 122 122 121 121 121 121 122 121 121 121 117 110 100 98 80
107 105 37 23 23 24 22 20 15 1 0 0 0 0 0 0
0 0 2 20 22 23 22 9 0 1 0 3 4 6 2 1
2 22 22 22 22 22 22 21 22 22 21 22 21 20 21 21
0 0 0 0 0 0 0 0 0 0 0 0 12 35 28 26
5 4 15 32 8 5 8 9 11 12 12 21 24 19 21 20
26 27 26 25 28 29 30 33 57 70 66 60 61 69 79 85
98 109 118 122 123 122 114 90 70 89 120 122 122 121 122 121
121 121 122 121 121 122 122 121 122 121 120 117 111 100 105 89
103 100 24 23 23 24 22 20 15 1 0 0 0 0 0 0
0 0 2 20 22 23 22 8 0 0 0 2 3 6 2 0
1 22 21 18 20 22 22 21 21 22 21 21 21 21 20 20
0 0 0 0 0 0 0 0 0 0 0 0 10 35 28 25
19 23 28 33 4 0 0 0 0 0 1 19 26 29 34 26
35 42 30 20 21 23 24 28 46 82 75 59 59 73 82 86
98 108 116 122 123 122 110 92 93 106 120 119 113 112 118 121
121 121 121 121 121 120 121 121 121 121 121 117 113 102 104 89
104 81 21 23 23 24 21 19 16 1 0 0 0 0 0 0
0 0 1 19 21 23 21 9 0 0 0 12 11 0 0 0
1 9 3 6 2 14 22 21 21 21 21 21 21 21 21 20
0 0 0 0 0 0 0 0 0 0 0 0 7 33 28 25
30 35 38 36 6 0 0 0 0 0 0 22 25 29 36 23
31 39 21 0 0 0 0 1 18 82 79 58 60 77 82 85
96 106 116 121 123 117 98 93 99 101 104 106 113 115 119 121
121 121 121 121 121 121 121 121 121 121 121 119 112 99 100 97
113 63 21 23 24 24 22 20 17 1 0 0 0 0 0 0
0 0 1 19 21 22 21 10 0 0 8 39 40 3 0 0
3 14 22 21 17 2 21 21 21 21 21 21 21 20 20 20
0 0 0 0 0 0 0 0 0 0 0 0 6 34 28 25
30 36 39 38 10 0 0 0 0 0 0 22 24 27 33 6
3 11 19 0 0 0 0 0 9 67 84 62 63 77 82 84
95 104 109 121 117 106 95 96 98 99 99 96 107 107 116 119
120 122 121 121 121 121 121 121 121 121 121 120 111 100 106 115
112 40 21 23 23 24 21 20 16 1 0 0 0 0 0 0
0 0 1 20 22 23 21 15 8 9 11 28 29 5 0 0
15 22 22 21 21 5 16 21 22 21 21 21 21 21 20 21
0 0 0 0 0 0 0 0 0 0 0 0 3 32 28 24
25 25 24 22 5 0 0 0 0 0 0 23 23 27 34 5
0 8 19 0 0 0 0 0 6 48 86 61 63 77 84 87
94 104 110 117 107 98 94 101 100 98 94 87 90 88 90 97
107 109 118 122 121 121 121 121 122 121 121 119 110 100 110 118
98 26 21 23 23 24 22 21 17 1 0 0 0 0 0 0
0 0 1 19 21 24 22 22 22 22 4 5 6 0 0 0
15 23 22 21 21 8 15 20 20 20 21 21 21 21 21 20
0 0 0 0 0 0 0 0 0 0 0 0 3 32 29 24
15 5 7 6 0 0 0 0 0 0 0 25 23 28 34 5
0 8 20 0 0 0 0 0 3 37 85 74 59 75 85 89
94 101 106 109 101 97 93 99 96 84 73 64 68 85 102 104
106 99 92 108 119 121 121 121 121 121 121 117 107 100 112 120
74 16 20 21 22 22 21 20 16 1 0 0 0 0 0 0
0 0 1 18 21 22 23 23 17 12 3 0 0 0 0 0
14 23 23 22 23 7 16 22 21 22 22 22 22 21 22 21
0 0 0 0 0 0 0 0 0 0 0 0 2 29 29 24
17 8 9 7 0 0 0 0 0 0 0 25 21 28 33 4
0 7 21 0 0 0 0 0 2 30 74 79 57 72 84 87
90 98 100 99 101 101 88 85 75 76 98 111 111 114 116 119
118 117 108 101 110 121 121 121 121 121 120 117 102 99 113 109
34 14 19 21 22 23 22 21 18 2 0 0 0 0 0 0
0 0 1 20 22 23 23 22 5 18 19 0 0 0 0 0
13 22 22 21 20 4 20 22 22 22 22 21 21 21 20 20
0 0 0 0 0 0 0 0 0 0 0 0 1 29 29 23
18 10 11 9 0 0 0 0 0 0 0 23 21 29 34 4
0 6 21 0 0 0 0 0 3 26 54 83 57 69 81 85
90 97 100 99 106 96 63 58 75 93 107 111 109 108 106 105
112 119 122 122 121 121 121 121 121 121 120 117 107 95 79 49
19 13 19 21 22 22 22 20 17 6 3 2 0 0 0 0
0 1 6 20 22 22 22 22 13 35 37 4 0 0 0 0
13 22 22 21 13 8 22 22 21 21 21 21 21 20 21 21
0 0 0 0 0 0 0 0 0 0 0 0 1 29 29 23
19 13 14 10 0 0 0 0 1 0 0 22 22 30 33 8
1 6 20 3 0 0 2 0 2 27 46 85 62 64 77 83
88 97 100 105 110 72 59 72 75 77 84 83 80 82 90 104
117 121 122 121 121 121 121 121 121 121 121 114 106 81 28 27
21 11 17 20 21 22 21 20 19 18 16 13 9 4 2 0
0 1 3 6 6 6 5 3 2 8 4 0 0 0 0 0
2 4 4 6 2 18 8 6 14 21 21 21 21 21 20 20
0 0 0 0 0 0 0 0 0 0 0 0 0 28 29 23
20 15 15 10 0 2 0 0 2 7 0 21 23 31 33 13
8 5 20 1 3 4 3 0 1 26 33 73 70 63 74 79
87 97 102 108 111 86 83 83 88 92 99 106 106 113 120 122
121 122 122 122 122 121 121 121 121 121 118 112 104 62 28 27
23 11 17 19 20 21 21 20 19 18 17 13 10 0 0 0
0 0 0 0 0 0 0 0 0 0 0 0 0 0 0 0
0 0 0 0 0 6 4 31 10 21 21 21 21 21 20 21
0 0 0 0 0 0 0 0 0 0 0 0 0 27 28 22
20 16 15 14 0 3 1 1 5 11 6 20 27 31 32 9
16 5 19 0 4 6 3 0 0 23 26 32 50 55 73 78
85 94 102 109 106 95 97 96 103 110 113 107 115 120 122 122
122 121 122 121 121 121 121 120 121 120 115 109 98 41 26 24
23 10 15 17 20 20 20 20 19 18 18 15 12 1 0 6
10 12 13 14 15 16 16 16 15 15 16 17 18 19 19 19
16 7 0 1 16 3 9 69 33 21 21 22 22 22 22 22
0 0 0 0 0 0 0 0 0 0 0 0 0 27 29 23
20 17 15 21 22 25 27 27 28 30 31 36 33 30 31 4
19 8 21 9 12 12 11 11 10 19 21 22 24 44 69 75
82 89 98 107 95 95 99 104 110 110 104 109 119 122 122 122
122 122 122 122 121 120 121 121 120 116 112 101 82 31 27 25
23 11 14 17 19 20 20 19 18 13 10 8 10 1 0 11
15 17 19 20 20 20 20 19 19 18 19 20 20 21 21 20
18 7 0 0 3 1 0 13 8 2 2 6 32 32 31 31
0 0 0 0 0 0 0 0 0 0 0 0 0 26 29 22
20 16 15 22 36 36 37 37 38 37 38 42 40 31 30 1
7 9 21 16 17 16 16 16 15 15 20 21 22 32 64 74
79 83 93 98 95 95 96 105 111 104 101 116 122 122 123 121
122 122 122 121 121 121 121 121 117 112 106 95 49 30 27 24
23 12 12 17 18 19 19 19 18 6 0 0 0 0 0 11
14 18 20 20 21 21 21 20 20 21 21 22 23 23 23 22
18 8 0 0 0 0 0 0 0 0 0 6 38 38 37 36
0 0 0 0 0 0 0 0 0 0 0 0 0 26 30 23
20 17 16 18 37 37 37 36 35 35 36 37 39 30 29 1
1 3 21 16 19 20 19 20 18 19 21 21 22 23 55 70
76 79 86 88 94 94 95 101 106 104 105 115 122 122 122 122
122 122 122 122 122 121 118 117 109 107 100 72 32 31 27 25
23 15 9 15 17 18 18 18 17 6 0 0 0 0 0 11
14 17 20 21 22 22 22 22 22 22 23 23 24 24 24 22
20 9 0 0 0 0 0 0 0 0 0 4 37 37 37 33
0 0 0 0 0 0 0 0 0 0 0 0 0 25 29 22
20 17 16 11 14 13 13 12 12 11 11 13 13 23 28 1
0 2 20 17 21 21 21 23 21 20 22 21 21 21 40 67
72 76 81 82 88 89 92 94 99 102 105 111 120 121 122 122
122 121 122 121 119 113 108 108 106 101 88 47 30 30 27 25
23 17 7 14 16 17 18 18 17 7 1 0 0 0 0 10
14 17 19 20 22 23 23 22 23 24 24 25 26 25 24 22
20 9 0 0 0 0 0 0 0 0 22 30 34 34 33 30
0 0 0 0 0 0 0 0 0 0 0 0 0 25 28 22
20 17 16 12 8 6 6 6 7 7 7 10 10 23 30 2
0 1 20 17 21 22 21 22 21 21 22 20 21 21 25 57
70 74 81 81 78 84 86 89 96 98 102 102 110 117 120 121
119 117 121 115 104 96 98 98 99 91 88 45 28 30 26 25
24 20 6 13 15 16 15 16 16 14 10 0 0 0 0 10
14 17 19 22 22 23 24 24 24 25 25 26 26 25 24 23
22 10 0 0 0 0 0 0 0 0 31 31 31 30 28 27
0 0 0 0 0 0 0 0 0 0 0 0 0 23 28 21
19 16 16 14 11 10 9 9 8 9 9 11 11 25 30 6
8 12 24 16 21 22 22 22 21 22 21 21 21 21 21 38
65 65 76 79 78 79 75 80 89 94 100 97 102 107 109 108
111 110 108 98 99 98 94 94 91 90 96 46 28 28 25 26
23 20 10 17 17 12 9 8 5 6 5 27 2 0 0 11
14 17 19 21 22 23 23 24 25 26 26 27 27 26 26 24
23 10 0 0 0 0 0 0 0 3 29 29 28 28 27 26
0 0 0 0 0 0 0 0 0 0 0 0 0 24 29 22
20 17 17 17 14 13 13 12 12 12 11 12 12 27 32 22
35 37 31 15 21 22 22 21 21 21 21 20 21 21 21 23
53 69 74 77 76 76 71 77 79 86 93 94 97 101 98 95
95 92 92 99 106 104 102 99 94 98 95 43 31 27 24 27
27 25 24 21 21 11 10 7 0 4 2 0 0 0 0 11
14 16 19 20 22 23 24 24 25 25 26 26 26 25 25 25
23 10 0 0 0 0 0 0 0 4 28 26 26 26 25 24
0 0 0 0 0 0 0 0 0 0 0 0 0 27 29 21
19 17 16 16 15 14 13 14 14 14 14 14 12 23 24 17
25 26 23 17 20 21 21 22 21 21 21 21 21 20 20 21
39 61 69 72 68 69 67 71 71 73 77 80 83 84 86 87
92 99 108 112 112 109 105 101 99 101 97 43 24 21 23 34
30 30 23 16 15 8 7 5 0 4 2 27 0 0 2 13
15 15 17 19 20 21 23 23 25 26 26 26 26 27 26 26
25 9 0 0 11 22 4 0 0 5 25 25 24 24 24 24
4 5 7 8 9 10 11 12 13 14 16 17 19 25 24 22
20 17 17 12 8 13 14 13 13 13 13 14 14 19 19 16
16 19 19 20 22 22 22 22 21 21 21 21 21 21 22 21
38 60 65 68 70 73 74 76 75 71 70 72 81 92 103 110
114 116 117 116 113 111 108 103 102 104 99 37 17 16 20 32
27 20 13 8 7 7 6 8 1 4 1 1 0 0 3 13
15 16 18 20 21 22 23 24 25 26 26 26 26 26 26 26
26 8 0 0 19 31 4 0 0 9 26 24 24 24 23 24
14 13 10 14 23 25 25 24 24 24 24 23 22 22 22 22
20 16 15 5 12 6 15 14 14 14 14 14 16 21 21 19
17 19 19 20 22 21 22 22 22 22 22 21 22 21 21 21
39 66 66 68 71 74 78 80 83 83 84 92 102 110 115 117
119 118 116 113 112 109 108 105 105 107 102 37 16 18 13 17
10 9 8 6 6 4 7 8 1 3 1 0 0 0 4 14
15 16 18 19 20 21 22 24 25 26 26 27 27 27 28 28
27 7 0 0 0 0 0 0 0 11 25 25 24 24 24 24
27 27 25 18 10 18 26 25 25 24 24 24 23 23 24 23
20 17 12 9 18 10 10 2 6 15 14 15 18 21 21 20
19 21 21 21 22 23 23 23 23 23 22 22 22 22 22 22
39 71 72 71 75 76 80 83 84 84 89 91 102 109 114 116
117 115 111 111 112 110 109 107 109 109 105 33 19 15 12 12
9 9 7 7 7 8 10 10 4 4 5 3 0 0 5 14
15 16 18 19 21 22 23 25 25 26 26 27 27 28 28 28
28 7 0 0 1 1 0 0 0 15 26 25 25 24 25 24
28 27 27 26 25 15 14 25 25 25 24 23 23 21 21 18
16 36 14 12 17 15 3 0 5 17 17 16 19 22 21 21
20 20 21 21 22 22 23 22 22 22 22 22 21 22 22 23
37 74 77 75 74 76 80 84 85 83 89 95 103 108 112 113
113 112 111 112 111 111 108 108 113 113 106 32 20 22 15 11
10 9 8 9 9 10 10 12 7 3 5 1 0 0 5 14
15 16 17 19 19 20 22 23 25 25 26 27 27 28 28 29
28 6 0 0 0 0 0 0 0 17 25 24 24 24 25 25
27 25 25 23 22 20 9 11 13 10 9 8 9 10 4 0
2 56 30 18 16 15 4 0 14 16 16 16 19 22 22 21
21 21 21 21 22 22 22 22 21 21 22 21 21 21 21 21
34 76 81 80 79 74 82 84 85 86 89 92 99 105 108 109
109 110 111 111 113 107 104 111 115 114 106 30 15 20 29 14
8 9 11 10 10 9 10 12 8 1 7 0 0 0 6 14
14 16 17 18 20 20 22 23 25 25 26 26 26 27 27 28
27 5 0 0 0 0 0 0 0 18 24 24 24 23 24 24
14 13 13 10 3 0 0 0 0 0 0 2 2 0 0 0
0 42 32 19 3 10 32 2 11 12 14 16 20 22 21 21
21 21 20 20 21 21 22 21 21 20 22 21 21 21 21 19
29 78 85 84 81 82 82 82 84 86 88 91 97 103 106 107
109 108 110 112 112 110 110 114 118 116 108 30 15 20 25 35
10 6 7 8 10 10 9 10 8 0 10 0 0 0 7 15
15 16 17 18 19 20 21 23 24 25 25 26 27 27 27 28
27 5 0 0 0 0 0 0 0 10 24 23 24 23 24 24
25 25 29 28 26 26 25 6 0 1 1 0 0 0 0 0
0 35 27 10 2 42 39 10 0 0 0 3 12 21 21 21
21 21 21 20 21 21 21 21 22 22 21 21 21 21 19 18
25 77 88 88 87 84 84 85 85 85 87 91 95 101 103 106
108 109 110 114 113 112 113 117 119 118 108 40 20 18 25 30
22 8 14 12 14 19 23 25 26 9 9 0 0 0 7 15
16 16 17 18 20 21 22 24 24 25 25 25 26 26 27 27
29 5 0 0 0 0 0 0 0 6 21 23 23 23 23 23
46 45 44 43 40 38 32 14 0 0 1 3 0 0 0 0
9 27 24 8 2 17 26 19 0 0 0 0 0 12 21 21
20 21 20 20 19 20 21 21 21 21 21 21 21 20 18 17
23 75 87 91 90 87 86 86 88 88 85 88 94 99 103 104
108 110 113 114 114 114 116 119 120 117 107 46 23 19 18 18
26 4 5 17 19 17 16 31 35 10 7 0 0 0 10 19
18 18 19 19 21 22 23 24 25 25 25 26 27 27 29 30
32 5 0 0 2 0 0 0 1 17 8 23 23 24 23 24
45 43 40 36 33 38 34 23 3 0 1 0 0 0 0 0
12 12 24 11 0 19 28 23 2 0 0 0 0 3 21 20
20 20 20 20 19 19 19 19 19 19 20 20 19 17 16 18
28 74 88 92 92 91 89 89 89 88 90 93 98 101 105 107
110 114 117 116 115 116 118 120 120 117 106 63 31 7 1 8
12 7 0 6 16 25 23 15 24 4 2 0 0 0 10 18
16 16 18 20 21 22 24 25 26 26 27 27 27 28 30 32
34 4 0 57 90 26 0 0 3 23 8 19 23 22 22 22
51 49 50 46 37 36 34 24 0 1 4 4 1 0 0 0
0 2 22 19 0 21 30 20 8 0 0 0 0 3 21 20
20 20 19 18 17 16 16 17 17 18 19 20 19 18 20 49
25 72 89 91 93 92 90 91 92 91 92 98 102 107 110 112
115 117 119 117 115 117 118 120 120 116 105 61 76 66 43 27
24 10 0 1 4 13 26 17 19 1 0 0 0 0 0 0
0 0 1 1 1 2 9 7 5 2 2 2 3 3 4 4
5 0 2 99 123 40 0 0 4 22 17 7 22 22 22 22
43 40 37 31 24 22 19 3 0 34 75 51 4 0 0 0
0 0 2 1 0 33 36 1 10 2 0 0 0 9 20 19
19 19 18 17 16 15 15 15 15 16 17 19 20 27 51 60
19 71 89 94 94 94 92 92 93 93 96 100 105 109 112 115
116 117 118 117 117 117 118 122 121 116 104 74 76 78 74 55
32 36 0 0 2 8 18 13 5 0 0 0 0 0 0 0
0 0 0 0 0 0 0 0 0 0 0 0 0 0 0 0
0 0 0 35 47 9 0 0 7 23 22 8 16 21 22 21
29 28 25 18 15 15 13 0 0 4 31 6 0 0 0 0
0 0 0 0 0 45 51 0 6 5 0 0 2 17 19 18
18 17 16 14 13 13 12 13 13 14 23 38 52 57 62 61
38 75 91 96 97 93 92 94 94 94 97 101 105 110 114 116
117 118 117 117 115 115 121 121 121 114 101 80 75 77 75 74
37 66 36 14 4 0 0 9 13 0 0 0 0 0 0 0
0 0 0 0 0 0 0 0 0 0 0 0 0 0 0 0
0 1 3 0 0 0 0 0 8 21 15 4 0 13 22 22
17 22 23 16 16 15 15 10 15 1 3 1 0 0 0 0
0 0 0 0 0 37 49 0 3 3 0 0 0 1 9 18
17 15 14 13 13 12 12 12 20 39 44 40 59 60 63 61
48 74 91 97 97 97 94 94 94 95 97 101 104 108 111 114
116 116 116 115 115 120 122 122 121 113 103 78 77 75 76 76
54 75 72 69 62 47 33 18 3 0 0 0 0 0 0 0
0 0 0 0 0 0 0 0 0 0 0 0 0 0 0 0
0 2 6 0 0 0 0 0 0 11 2 12 5 9 22 21
0 9 14 7 4 9 7 3 2 1 2 0 0 0 0 0
0 0 11 28 18 23 48 0 6 3 0 0 0 0 2 16
16 14 12 13 12 13 22 36 51 58 40 48 61 61 64 63
53 72 89 96 98 98 97 94 94 94 95 99 103 107 111 113
115 115 116 116 120 121 122 122 119 113 104 77 79 78 81 88
70 79 78 83 83 75 71 72 59 31 4 0 0 1 1 1
3 3 3 3 2 2 3 0 0 0 0 0 0 0 0 0
0 0 0 0 0 0 0 0 0 4 1 17 11 7 21 21
0 0 0 0 0 0 0 0 0 1 32 4 0 0 0 0
0 0 28 63 34 16 51 0 0 0 0 0 0 0 0 14
14 13 17 33 39 36 43 46 49 55 41 56 58 59 62 65
55 70 86 95 99 100 98 97 95 94 96 98 102 106 110 113
114 115 117 120 120 122 123 122 120 113 102 81 79 80 90 96
74 80 84 87 93 85 82 79 74 74 74 43 13 0 0 0
0 0 0 0 0 0 0 0 0 0 0 0 0 0 0 0
0 0 0 0 0 0 0 0 0 0 0 0 0 2 18 21
0 0 0 0 0 0 1 5 7 1 8 0 0 0 0 3
11 0 24 75 44 12 62 1 0 0 0 0 0 0 1 19
26 35 47 53 53 39 42 50 51 59 47 54 57 59 63 65
61 69 84 94 98 100 97 97 98 99 100 101 102 106 109 112
116 120 121 121 120 123 123 122 120 114 98 85 80 87 97 99
82 80 90 87 93 92 87 79 80 76 76 83 79 61 29 4
0 0 0 0 0 0 0 0 0 0 0 0 0 0 0 0
0 0 3 0 0 0 0 0 0 0 0 0 0 0 4 19
0 0 0 0 2 12 22 20 18 3 0 2 0 0 0 7
16 0 16 70 56 17 73 7 0 0 0 10 26 36 49 48
51 50 50 58 58 44 48 53 55 60 53 47 59 58 59 64
64 63 81 91 96 100 99 98 98 98 102 107 111 113 117 119
121 121 121 122 122 121 120 122 120 112 93 81 79 91 97 98
88 83 93 87 96 93 87 83 85 80 78 80 81 81 78 71
43 13 0 0 0 0 0 0 0 0 0 0 0 0 0 0
0 0 2 0 1 0 0 0 0 0 0 0 0 0 0 5
5 13 12 13 15 15 19 19 17 4 0 0 0 0 0 6
23 9 13 42 33 21 75 17 5 31 56 70 70 70 69 67
70 66 65 66 70 65 57 60 59 61 61 49 58 56 59 63
65 61 76 89 94 101 103 101 99 98 101 105 109 110 115 120
122 123 122 123 123 115 120 122 119 102 85 77 86 95 99 93
97 82 95 90 94 95 89 88 94 95 89 87 81 76 76 75
74 71 52 23 2 0 0 0 0 0 0 0 0 0 0 0
0 0 0 0 0 0 0 0 0 0 0 0 0 0 0 0
24 28 26 23 24 25 24 23 21 17 18 21 24 14 6 4
18 18 12 15 11 10 64 49 60 68 72 74 77 74 76 77
80 78 77 72 75 80 73 73 66 73 73 62 65 59 59 60
63 63 64 85 93 97 103 103 102 101 102 105 107 113 116 120
123 122 122 122 122 122 122 122 110 92 77 82 92 98 100 92
101 83 98 92 98 98 90 93 99 101 96 88 79 84 88 84
77 77 77 74 66 36 9 0 0 0 0 0 0 0 0 0
0 0 0 0 0 0 0 0 0 0 0 0 0 0 0 0
28 29 28 25 27 28 28 23 22 20 23 27 27 11 14 7
34 12 8 19 24 30 56 66 71 73 76 78 80 81 79 84
83 83 82 88 80 78 85 83 74 80 83 81 79 76 71 64
60 63 71 79 90 95 102 103 100 100 103 105 106 111 115 119
122 122 121 122 123 122 122 108 94 80 79 85 95 98 96 96
103 84 98 94 97 97 91 98 99 92 86 84 91 95 90 80
80 82 81 80 80 77 68 30 1 0 0 0 0 0 0 0
0 0 0 0 0 0 0 0 0 0 0 0 0 0 0 0
33 32 33 32 30 25 30 23 18 17 18 14 9 2 13 5
2 0 11 25 35 62 72 74 76 78 82 84 84 86 84 89
90 87 83 86 81 78 89 88 85 78 82 90 83 88 87 79
64 60 63 79 83 90 97 102 105 105 103 102 107 111 115 119
120 121 122 122 123 121 106 90 84 79 85 91 95 98 92 103
103 84 99 97 100 98 95 101 102 93 89 94 98 95 86 80
85 85 81 83 87 85 80 75 52 9 0 0 0 0 0 0
0 0 0 0 0 0 0 0 0 0 0 0 0 0 0 0
33 33 33 32 29 22 22 16 10 11 11 8 0 0 12 5
0 6 9 35 59 78 78 77 80 82 82 85 87 88 86 89
94 90 89 92 87 78 91 94 87 75 87 91 80 86 89 87
78 61 62 65 79 82 90 102 106 105 108 110 110 111 117 119
122 122 123 122 118 102 90 85 81 82 89 91 98 97 96 104
101 87 98 98 101 98 97 100 102 92 89 97 99 97 83 81
88 86 81 87 91 89 86 83 80 68 16 0 0 0 0 0
0 0 0 0 0 0 0 0 0 0 0 0 0 0 0 0
29 35 35 34 25 16 10 8 8 7 10 7 7 11 4 1
5 17 25 54 73 86 80 82 85 84 82 87 90 90 88 86
92 94 92 93 88 79 89 91 85 80 92 91 85 83 89 88
88 76 59 59 62 77 84 93 106 110 111 112 113 115 118 121
122 121 116 105 94 87 83 81 80 88 90 96 96 94 104 106
100 86 99 99 100 97 98 101 101 87 89 99 99 93 80 87
89 87 81 92 95 91 87 85 87 86 72 29 0 0 0 0
0 0 0 0 0 0 0 0 0 0 0 0 0 0 0 0
8 6 12 19 23 12 7 6 7 6 10 7 20 22 2 7
3 29 52 60 81 88 83 84 86 85 83 88 92 91 90 84
92 93 94 91 92 79 87 90 86 85 93 92 84 86 87 91
91 89 75 61 59 62 78 88 90 103 107 110 111 112 111 109
104 98 92 89 87 85 83 84 88 94 100 95 95 102 106 108
99 86 99 99 101 101 101 104 101 85 93 101 100 90 80 90
93 84 81 97 98 96 92 89 91 92 86 78 46 1 0 0
0 0 0 0 0 0 0 0 0 0 0 0 0 0 0 0
25 20 17 15 13 3 2 1 2 2 11 18 58 29 25 14
3 48 55 65 85 89 87 88 87 86 83 88 92 93 91 85
90 95 95 95 95 82 84 91 88 90 95 93 85 89 90 89
92 91 89 75 60 57 61 68 71 85 86 88 89 92 88 89
88 85 84 82 83 81 81 88 94 93 95 93 101 106 106 106
100 89 100 102 101 101 102 104 98 84 98 102 99 89 84 94
95 79 84 99 100 98 95 92 92 93 91 86 76 14 0 0
0 0 0 0 0 0 0 0 0 0 0 0 0 0 0 0
28 27 26 22 12 4 4 0 0 0 60 56 35 35 45 37
34 55 57 71 87 91 89 87 91 86 83 88 91 95 93 89
87 95 95 94 95 87 82 91 93 93 97 95 85 86 94 90
91 92 92 90 83 73 67 63 62 63 66 77 80 82 82 79
80 81 78 80 81 83 88 92 95 95 92 96 103 105 107 105
99 89 99 102 101 103 103 102 91 89 100 102 98 89 89 96
94 72 88 101 101 99 97 92 92 95 90 88 83 53 1 0
0 0 0 0 0 0 0 0 0 0 0 0 0 0 0 0
28 28 27 21 11 9 9 6 7 5 55 71 31 35 50 47
53 55 59 75 86 91 90 90 94 85 81 88 89 95 94 90
89 94 95 95 94 92 82 91 94 97 96 96 85 86 96 93
93 87 90 92 89 86 82 69 77 78 69 71 72 77 76 75
75 78 85 87 88 91 95 94 92 94 101 100 104 106 106 105
99 92 100 102 101 102 102 100 86 93 102 102 95 91 93 97
92 68 93 102 102 100 97 91 94 95 91 88 86 81 35 0
0 0 0 0 0 0 0 0 0 0 0 0 0 0 0 0
28 27 21 14 10 9 9 7 8 7 44 85 26 33 49 51
54 57 62 79 88 92 92 93 94 84 82 88 88 95 96 93
87 95 96 96 96 96 86 90 95 97 97 97 86 85 97 96
94 96 86 90 91 89 88 81 84 83 81 83 85 83 83 84
87 88 89 91 93 95 95 92 94 105 101 100 106 106 106 105
99 91 98 103 101 103 103 99 88 94 102 101 96 97 95 98
83 68 94 103 104 102 98 90 96 97 90 91 83 84 78 16
0 0 0 0 0 0 0 0 0 0 0 0 0 0 0 0
28 26 13 8 8 8 8 8 8 7 24 89 28 34 48 58
57 58 60 80 87 90 93 93 94 85 78 89 88 96 98 96
89 94 97 96 96 97 91 89 97 98 96 97 88 86 97 97
94 95 96 93 88 91 91 90 90 89 88 88 88 88 89 92
91 91 94 97 93 93 93 100 105 103 97 103 105 108 108 105
100 92 98 103 102 103 102 95 93 94 101 103 99 98 96 96
74 73 96 102 105 104 97 86 97 98 90 92 82 93 89 65
1 0 0 0 0 0 0 0 0 0 0 0 0 0 0 0
29 25 12 8 9 8 8 8 8 7 13 102 34 36 55 64
61 57 58 82 89 92 94 95 95 84 79 89 89 95 98 96
93 92 99 98 97 98 95 88 98 98 97 97 90 88 95 98
95 95 98 97 96 90 82 89 92 93 91 94 92 92 92 92
92 93 90 90 91 99 105 106 102 99 98 104 107 107 105 103
98 91 97 103 102 104 104 97 92 94 101 102 101 99 97 92
69 75 97 102 105 103 97 86 96 97 92 93 86 98 93 87
36 0 0 0 0 0 0 0 0 0 0 0 0 0 0 0
29 24 12 9 9 8 8 8 8 8 7 41 28 32 63 67
64 61 61 85 89 91 94 95 94 84 78 91 91 94 100 98
98 93 99 98 98 99 98 90 95 96 96 98 89 91 95 99
97 95 97 99 100 98 91 76 72 77 87 90 91 90 91 91
87 89 94 101 105 104 106 105 100 97 101 107 108 107 105 102
100 91 95 104 102 104 102 95 91 96 102 104 102 99 96 87
65 76 99 103 105 102 94 85 94 97 94 91 91 99 96 94
79 9 0 0 0 0 0 0 0 0 0 0 0 0 0 0
28 26 13 9 9 9 9 8 8 9 7 2 9 43 67 66
65 63 63 87 91 92 95 97 95 84 78 90 91 94 101 99
99 95 98 99 99 98 99 93 97 97 98 98 91 91 95 97
98 97 98 99 100 102 102 100 98 93 83 84 82 84 88 94
98 101 102 105 104 105 106 103 98 98 104 106 107 105 103 103
100 91 94 103 102 103 102 96 91 99 102 102 102 99 95 84
65 78 100 103 105 102 95 84 93 98 98 90 97 100 97 98
92 60 1 0 0 0 0 0 0 0 0 0 0 0 0 0
21 24 13 9 8 8 8 8 9 14 10 1 19 63 68 67
66 62 62 86 93 93 94 97 96 84 76 90 93 93 101 99
98 97 98 98 98 98 99 96 94 95 97 95 91 92 96 96
98 99 98 99 101 101 102 101 101 99 100 100 100 100 100 101
101 101 103 105 105 104 104 100 97 100 105 106 105 105 103 104
100 93 92 102 103 102 101 92 91 99 102 103 103 99 91 82
65 79 100 102 105 103 94 83 93 98 99 88 98 100 99 100
97 89 32 0 0 0 0 0 0 0 0 0 0 0 0 0
13 16 12 9 9 9 9 9 11 20 17 2 44 65 70 68
65 61 61 85 94 94 94 98 96 82 76 88 95 93 101 98
98 98 98 97 97 98 99 96 95 96 98 94 92 90 95 95
99 99 98 100 101 102 102 100 101 101 100 101 101 102 102 102
102 101 104 105 104 106 102 98 99 102 105 105 104 103 102 101
99 92 91 100 102 103 100 92 94 102 104 103 104 100 90 80
63 81 100 101 104 101 93 84 91 99 97 91 100 100 101 100
98 95 79 11 0 0 0 0 0 0 0 0 0 0 0 0
12 11 6 12 16 17 9 8 12 22 22 20 61 68 74 74
66 62 58 78 95 96 96 97 96 81 77 87 93 93 99 99
98 97 98 97 96 96 98 95 95 96 98 92 95 92 97 96
98 99 99 99 101 101 101 101 101 101 101 101 100 100 101 102
103 102 105 105 105 104 102 99 101 103 106 105 103 103 101 102
99 94 92 99 102 102 99 95 93 103 104 104 104 98 88 79
67 84 101 101 102 100 92 86 91 100 95 96 101 101 102 101
99 98 92 59 1 0 0 0 0 0 0 0 0 0 0 0
12 10 6 15 24 21 10 7 14 22 23 44 66 72 77 81
73 62 59 75 95 94 96 96 96 76 76 87 95 93 97 99
96 98 99 98 96 97 98 96 96 96 97 94 95 93 96 97
99 98 98 100 100 100 100 101 102 101 100 101 100 101 102 102
103 102 105 103 103 102 100 99 100 104 107 105 103 102 101 102
100 93 91 100 102 101 100 95 93 101 104 105 101 95 88 76
68 86 100 98 100 98 92 86 92 101 91 100 100 101 101 101
101 99 95 85 29 0 0 0 0 0 0 0 0 0 0 0
21 16 10 18 25 21 8 7 15 22 27 60 68 74 77 81
83 63 60 69 92 96 96 96 98 74 74 87 94 94 96 98
96 98 97 97 96 96 97 96 96 95 95 95 96 94 96 98
100 99 99 101 101 99 101 99 100 101 102 100 101 101 103 104
104 105 105 104 104 102 100 100 101 102 106 103 102 102 102 102
100 95 90 98 103 102 99 96 94 100 104 104 100 91 88 75
71 90 102 98 99 98 92 89 93 100 89 102 102 101 102 102
101 100 97 91 75 8 0 0 0 0 0 0 0 0 0 0
26 24 19 21 25 19 7 6 14 22 42 64 68 76 80 80
89 70 58 65 92 94 95 97 96 72 71 84 95 92 94 97
95 97 97 97 94 97 96 97 97 95 94 94 96 94 95 97
98 98 98 100 100 99 100 101 101 101 101 101 100 102 103 103
103 103 102 103 103 102 99 100 102 103 103 101 102 100 102 101
99 95 90 96 103 101 99 95 94 101 107 105 98 92 89 74
71 92 102 94 96 96 90 92 95 99 87 101 102 100 103 101
101 100 98 94 89 50 0 0 0 0 0 0 0 0 0 0
26 25 22 20 23 17 6 6 14 24 56 66 72 77 83 77
90 77 59 61 90 94 95 94 95 69 67 83 96 92 94 99
95 96 97 96 95 95 95 96 97 94 93 95 95 94 95 97
99 99 100 101 100 100 100 100 100 101 101 101 101 102 103 104
104 104 103 104 104 102 100 102 103 103 104 102 103 100 102 101
99 95 88 94 101 97 95 94 95 102 106 104 97 89 87 74
74 94 102 92 97 94 90 94 94 99 85 101 100 100 101 100
101 100 100 98 93 83 19 0 0 0 0 0 0 0 0 0
25 24 23 18 22 15 7 5 11 35 63 69 73 78 82 82
85 82 58 60 90 93 95 96 95 67 65 82 96 93 92 99
96 96 97 96 97 95 97 98 97 96 96 95 96 96 96 97
99 98 99 99 99 101 100 102 101 102 102 102 102 103 104 104
103 102 102 102 102 102 101 101 103 105 103 102 102 100 101 100
98 95 90 93 99 94 94 96 101 103 107 104 96 89 83 73
77 94 101 90 95 93 90 94 96 98 85 100 99 101 99 100
101 100 100 98 96 91 66 2 0 0 0 0 0 0 0 0
25 24 23 18 20 14 6 6 10 52 65 69 75 79 82 83
86 84 58 59 85 92 94 96 95 65 64 81 96 94 93 97
97 96 98 98 98 95 97 98 96 96 95 96 97 96 94 97
98 99 100 100 102 101 100 101 101 102 101 101 103 103 103 103
103 103 103 102 102 101 101 101 103 103 103 101 100 101 101 100
94 93 91 93 97 96 97 100 103 105 106 102 94 89 82 73
80 96 99 87 94 92 92 96 96 95 82 97 98 98 97 100
99 99 100 99 98 95 87 36 0 0 0 0 0 0 0 0
25 24 23 20 17 11 6 6 23 62 68 71 77 78 83 85
89 85 61 57 83 95 95 97 95 61 65 80 96 93 95 100
98 95 97 97 97 95 98 98 96 95 95 95 96 96 96 96
98 98 97 99 100 101 100 102 101 102 103 103 104 103 103 103
103 102 102 102 101 101 100 101 102 102 102 101 101 101 100 99
89 91 92 95 100 102 101 102 103 103 104 100 95 90 80 75
83 97 98 85 92 91 94 95 96 88 81 99 97 98 99 100
100 99 101 100 99 96 92 75 4 0 0 0 0 0 0 0
25 24 23 23 18 9 6 6 44 65 69 73 77 80 84 87
89 87 66 53 80 97 93 96 93 60 63 79 95 94 95 99
99 98 97 97 96 95 97 97 96 96 95 95 94 95 97 96
97 98 98 99 100 101 100 101 101 101 100 100 102 103 104 104
104 103 103 102 101 101 101 103 102 101 102 102 99 100 98 94
87 93 96 97 101 103 103 103 103 103 102 98 95 90 79 77
86 98 98 86 90 91 94 96 96 85 80 99 98 98 98 99
99 100 100 100 100 97 96 90 35 0 0 0 0 0 0 0
24 23 23 22 18 8 6 16 61 67 71 73 79 83 83 88
87 89 70 51 75 96 93 98 91 57 61 79 96 96 95 98
98 97 97 97 95 95 96 96 96 97 96 96 96 97 96 96
97 99 98 99 100 100 100 101 100 101 102 102 103 102 103 103
103 104 103 101 101 102 101 103 103 102 102 101 100 101 97 89
88 95 99 100 102 103 104 104 102 103 101 99 94 88 78 79
88 99 95 83 85 92 96 95 95 77 83 99 97 99 99 99
98 99 99 100 98 99 96 93 75 6 0 0 0 0 0 0
