P2
128 120
135
10 9 10 9 9 11 11 14 18 22 26 29 29 29 29 29
28 28 27 27 26 26 26 25 25 25 25 24 24 24 24 24
23 23 23 22 22 21 21 21 20 20 20 20 20 19 19 19
19 18 18 18 18 18 19 21 25 25 25 24 18 14 24 26
15 21 21 20 21 19 19 18 18 18 19 18 15 21 19 22
22 22 22 22 22 22 23 22 22 21 23 23 23 23 22 23
23 23 23 24 24 24 24 24 24 24 23 24 25 25 25 25
25 25 25 26 25 25 25 25 26 26 25 25 26 25 23 22
11 9 10 9 10 9 10 6 2 5 13 29 29 29 28 27
27 27 27 26 27 27 26 26 25 25 25 25 24 24 24 23
23 22 22 22 22 21 22 21 21 20 20 20 20 19 18 19
18 18 18 18 19 19 20 21 25 25 24 24 18 14 24 27
14 20 21 21 20 20 20 19 19 19 19 19 16 21 19 22
22 21 21 22 22 22 22 23 23 23 23 23 24 22 23 23
23 23 23 22 23 23 24 24 25 25 25 25 26 25 25 25
26 26 26 26 25 25 25 25 25 23 23 24 24 23 24 25
22 18 15 10 7 8 10 8 7 7 13 29 29 28 29 28
28 27 26 27 27 27 26 26 26 26 25 25 25 25 24 24
24 23 23 22 22 22 22 22 21 20 21 20 20 20 20 20
20 19 19 19 19 19 19 21 25 25 24 25 18 14 24 27
15 20 22 21 21 21 20 20 19 19 18 19 16 21 19 22
22 22 22 22 22 23 23 22 22 23 23 23 24 23 23 23
24 24 24 24 24 24 25 25 25 25 25 25 25 25 25 25
25 25 26 24 24 23 23 24 25 25 26 25 25 24 25 25
30 35 37 32 29 24 18 12 6 7 11 28 29 29 29 27
27 26 29 28 28 28 27 26 26 26 25 25 25 25 24 24
24 23 23 22 22 31 31 27 24 22 21 21 21 20 20 20
19 19 19 19 19 19 20 21 26 25 24 25 19 14 24 28
17 19 22 22 22 21 20 21 20 19 20 20 16 21 19 23
22 23 23 23 23 23 23 23 23 23 24 24 24 24 24 24
24 23 24 24 24 24 24 25 25 25 25 25 25 25 24 24
25 25 25 25 26 25 25 24 25 26 25 25 25 25 25 25
34 37 39 29 40 40 40 35 8 9 13 28 29 29 29 29
28 29 39 36 35 34 30 28 26 24 26 25 25 24 24 24
24 23 23 23 25 36 34 31 29 29 27 22 20 21 20 19
20 19 19 20 20 19 20 21 25 25 25 24 18 14 25 27
18 17 23 22 22 21 20 20 19 19 19 19 16 21 19 22
23 23 24 24 23 24 24 24 23 23 23 23 25 24 24 23
24 24 25 24 24 25 25 24 24 24 24 24 24 24 24 24
25 24 25 24 25 26 25 25 24 25 25 25 25 24 25 24
35 38 39 39 43 43 42 39 9 9 15 30 30 29 29 28
28 30 40 37 37 34 33 32 32 33 27 27 26 25 24 23
23 23 23 23 25 34 32 30 29 30 30 26 21 20 20 20
19 19 19 18 19 19 20 21 26 26 26 25 20 15 24 27
19 16 22 22 22 21 20 21 19 19 20 19 17 22 20 23
23 23 23 24 24 23 23 23 23 23 24 24 24 23 23 23
23 24 24 24 24 24 25 24 25 25 24 24 25 25 25 24
24 24 24 24 25 25 24 25 25 25 24 25 25 25 25 25
36 38 40 40 43 43 44 41 13 10 18 33 32 31 30 29
29 30 40 38 37 34 34 35 36 37 31 33 32 31 27 24
24 24 24 24 25 27 26 27 29 30 30 28 22 21 20 20
20 20 20 19 20 20 21 21 26 26 26 24 17 14 13 25
21 14 23 23 23 22 21 21 20 20 20 19 17 21 19 23
24 23 24 24 24 24 24 24 24 24 23 23 22 23 23 23
24 24 25 25 26 24 25 25 25 25 25 25 24 24 23 24
24 25 24 24 25 26 25 25 26 25 25 25 25 26 25 24
36 34 37 41 42 42 41 40 14 10 19 36 34 31 32 33
33 32 25 18 27 34 36 39 39 38 28 18 25 31 31 32
29 30 28 26 25 18 7 8 9 14 19 25 23 21 21 21
20 20 20 20 20 20 21 22 26 26 26 23 9 13 9 24
22 13 23 22 21 21 21 21 20 19 20 20 18 22 20 24
24 24 24 24 24 23 23 22 23 23 23 23 24 24 25 25
24 24 24 25 26 25 25 24 25 25 25 25 25 24 24 24
25 25 24 25 24 26 25 25 25 25 25 25 25 25 25 25
6 14 21 32 37 39 39 39 14 10 18 34 33 25 25 31
36 40 17 0 0 7 18 20 24 31 24 0 0 1 6 14
17 26 31 30 27 19 4 2 5 2 0 8 24 21 21 21
21 21 21 21 21 21 21 22 27 27 27 25 17 15 22 27
24 12 22 22 22 21 21 22 20 20 21 20 18 22 20 24
24 24 24 24 24 24 24 24 24 24 24 24 24 24 25 24
24 24 25 25 26 25 26 25 25 25 25 25 24 24 24 25
25 25 25 25 25 27 26 25 25 26 25 24 25 25 25 25
0 0 1 0 3 5 9 37 15 10 16 30 34 35 34 32
39 41 17 0 0 2 6 7 7 17 24 0 0 0 0 0
0 0 3 9 26 17 2 1 0 3 0 8 25 21 22 21
20 20 21 20 21 21 22 23 28 27 27 27 21 16 24 28
25 12 22 23 22 20 21 21 19 20 21 21 18 23 19 23
23 24 24 24 24 24 24 24 24 24 24 24 24 24 24 24
24 25 25 24 26 24 25 24 24 25 25 24 25 25 25 25
26 25 25 24 25 26 26 26 25 25 25 25 25 25 25 25
0 0 0 0 0 0 0 35 14 10 5 0 4 11 20 29
36 40 18 0 0 0 1 5 3 16 25 0 0 0 0 0
0 0 0 0 27 15 0 0 0 0 0 9 26 22 21 22
21 21 22 21 21 21 23 23 27 27 27 27 20 16 25 29
26 12 21 23 23 22 22 23 20 21 20 21 18 22 19 24
24 24 24 24 25 25 25 25 24 24 24 25 25 25 25 24
25 24 25 24 26 25 25 25 25 25 25 26 25 25 25 25
25 25 25 25 26 26 26 25 25 25 25 25 25 25 25 24
0 0 2 0 0 0 0 36 14 10 4 0 0 0 0 0
1 9 17 0 0 0 0 0 0 13 24 0 0 0 0 0
0 0 0 0 27 9 0 0 0 0 0 10 28 22 22 22
22 22 21 21 21 21 22 23 28 28 28 27 20 17 25 28
27 14 20 23 23 22 21 23 20 21 21 21 19 23 20 25
24 25 25 24 25 24 24 24 24 24 24 23 24 24 25 25
24 25 25 25 26 26 25 25 25 25 25 25 25 26 25 24
25 25 26 25 26 26 26 25 25 24 25 25 25 25 25 26
0 0 13 5 0 0 0 37 13 11 4 0 0 0 0 0
0 0 13 0 0 0 0 0 0 14 22 0 0 0 0 2
0 0 0 0 27 8 0 0 0 0 0 11 28 22 23 22
22 22 22 22 22 22 23 23 28 28 28 26 20 17 25 28
26 17 18 24 23 22 22 23 21 21 21 21 18 22 20 24
25 24 25 25 25 25 25 25 25 24 24 24 25 25 25 25
25 25 25 25 25 25 26 26 25 26 26 25 25 26 25 25
26 25 25 25 26 25 26 25 25 26 26 26 25 26 26 26
0 0 3 16 0 0 0 37 13 11 4 0 0 0 0 0
0 0 11 0 0 0 0 0 0 19 27 0 0 0 0 6
6 1 0 0 26 7 0 0 0 0 0 8 29 23 22 22
22 22 22 21 22 22 23 23 28 27 27 27 21 17 26 28
26 18 16 23 23 23 22 22 20 21 21 21 18 22 20 25
25 25 25 25 25 24 24 25 24 24 25 24 25 25 25 25
25 25 25 26 26 24 25 25 26 26 25 26 26 26 27 26
26 26 26 26 27 25 25 26 25 26 25 26 26 26 26 26
0 0 0 2 0 0 1 37 12 10 5 0 0 0 3 0
0 0 10 0 0 0 0 0 0 15 28 0 0 0 0 6
8 7 4 0 26 8 0 0 0 0 0 6 30 22 23 23
22 23 22 22 22 23 23 23 28 28 28 27 21 17 25 28
27 19 15 23 24 23 22 22 20 21 21 21 18 22 19 24
25 25 25 25 25 25 24 25 25 25 25 25 25 24 25 25
25 25 26 25 26 26 26 27 26 26 26 27 27 27 26 26
26 25 26 25 24 26 26 27 27 27 27 26 26 25 26 26
0 0 0 0 0 0 2 37 11 11 4 0 2 0 6 2
0 0 8 0 0 0 0 0 0 16 29 0 0 0 0 8
7 7 6 0 24 9 0 0 0 0 0 5 31 23 23 22
22 22 22 22 22 22 23 23 28 28 28 27 21 17 26 29
27 22 14 24 24 23 22 21 20 20 21 21 19 22 20 25
25 25 25 25 26 25 25 24 24 25 24 24 25 24 25 25
25 26 26 26 27 26 26 26 26 27 26 26 26 25 26 26
26 26 26 26 27 27 27 26 26 26 26 25 25 26 27 27
0 4 0 0 0 0 3 37 12 11 4 2 4 0 1 0
0 0 9 0 0 0 0 0 2 16 30 0 0 0 0 2
6 6 4 0 24 19 6 1 0 0 0 4 31 22 23 22
22 23 22 22 23 22 24 24 29 29 29 28 20 17 27 28
27 21 13 22 25 24 22 22 20 21 21 21 19 22 21 25
25 25 25 25 26 25 25 25 25 25 25 25 25 26 26 25
25 26 26 25 25 26 26 26 26 27 27 26 27 26 26 26
25 26 26 26 26 26 26 26 27 26 26 26 25 26 27 27
7 9 11 7 4 2 6 37 11 11 4 3 0 0 0 0
0 0 12 0 0 0 0 0 5 22 35 10 6 2 0 0
0 3 3 0 22 33 32 29 26 22 19 22 31 22 23 23
22 23 22 22 23 23 25 24 29 29 28 27 21 19 26 28
26 22 14 22 24 23 21 22 21 21 21 21 20 23 21 26
26 25 26 26 26 25 26 25 25 25 25 25 25 25 25 26
26 26 26 26 26 26 26 26 26 26 27 26 28 26 26 26
27 26 26 26 26 27 26 25 26 27 26 26 26 26 28 27
23 29 33 37 36 33 32 31 11 10 4 0 0 0 0 0
0 1 34 31 21 17 14 7 1 15 43 28 29 29 27 21
14 8 5 2 24 34 33 32 31 35 38 39 33 22 22 22
22 23 22 22 23 24 25 25 30 28 30 27 22 21 26 28
27 27 19 20 24 23 25 21 20 22 22 22 20 22 20 25
25 25 25 25 25 25 26 26 25 25 26 26 26 26 26 26
26 25 26 26 26 26 26 26 27 27 27 27 27 26 27 27
26 26 27 26 26 26 27 27 27 27 26 27 27 26 28 27
23 32 39 44 41 41 41 33 10 11 5 0 0 0 0 0
0 1 39 43 32 36 37 40 37 41 41 9 9 11 12 14
17 20 25 30 37 28 28 30 31 35 39 40 34 22 23 23
23 22 22 22 23 23 25 26 31 30 29 27 26 27 30 33
30 31 26 24 25 20 21 23 20 21 21 21 20 22 21 26
26 25 28 25 25 26 25 25 26 25 25 25 26 26 26 26
26 27 27 26 26 26 27 27 26 26 26 26 27 26 26 26
27 27 27 27 27 26 25 25 26 25 24 23 25 27 27 24
26 34 40 42 40 45 44 34 11 12 8 1 0 0 0 0
0 2 42 35 34 40 42 45 41 34 30 9 8 8 8 7
7 5 5 5 6 7 11 16 20 26 24 22 25 22 23 22
22 22 23 22 23 24 26 25 30 33 36 34 32 32 29 26
26 26 23 24 23 26 29 22 13 14 15 21 21 23 21 26
27 25 26 25 24 26 26 26 25 25 25 26 27 26 26 26
26 26 26 26 26 26 26 26 27 27 26 27 27 26 26 24
24 24 23 25 25 25 25 24 25 23 22 20 18 15 13 11
7 16 23 25 29 32 37 34 11 11 21 36 32 24 16 9
4 4 37 26 34 39 41 44 43 35 28 11 10 9 7 7
5 4 3 3 3 2 3 3 7 24 23 20 19 22 23 23
23 23 22 22 23 21 21 25 31 34 31 29 26 26 26 22
21 18 15 15 21 26 30 34 22 14 9 8 15 23 22 26
26 24 26 28 26 25 25 25 26 25 24 25 26 26 25 25
26 26 27 27 27 25 26 26 27 27 27 26 27 27 27 27
27 21 22 20 18 16 13 11 9 8 7 7 7 7 7 8
0 0 0 0 0 0 9 34 12 12 22 40 42 41 39 39
38 38 37 20 31 37 39 42 42 37 31 14 11 8 6 4
4 3 4 4 4 4 5 5 12 21 6 17 21 22 23 22
23 22 22 22 17 20 26 32 32 34 33 27 23 25 22 19
16 16 18 19 20 20 27 37 46 39 27 15 11 12 20 26
25 24 24 25 25 25 26 25 25 25 24 23 26 26 26 26
26 26 27 27 27 27 27 27 25 23 21 19 18 14 13 18
25 10 6 7 8 8 9 9 10 11 12 12 12 12 13 14
0 0 0 0 0 0 6 34 12 11 22 40 43 41 40 41
41 43 33 0 2 6 11 17 22 23 32 16 9 7 3 0
0 1 5 7 6 4 7 8 14 24 17 19 30 28 26 13
8 22 18 14 22 28 32 31 27 24 24 19 19 18 16 13
14 15 12 11 12 14 16 23 38 52 48 39 37 19 9 14
23 25 24 25 26 25 25 25 24 24 25 24 25 26 26 26
26 24 23 21 19 16 14 12 11 10 9 9 10 11 10 13
24 8 9 12 13 14 14 15 15 16 16 17 17 18 18 18
0 0 0 0 9 9 11 32 14 11 18 36 38 38 39 41
42 44 28 0 0 0 0 0 4 10 32 15 7 5 1 0
0 0 2 3 2 0 3 5 10 27 32 26 27 29 30 24
15 13 12 18 25 34 32 25 26 27 28 26 18 17 17 17
14 11 13 13 16 16 20 24 33 45 55 53 44 36 17 6
17 23 23 22 21 22 21 15 20 24 24 21 20 17 16 13
12 11 11 11 10 10 11 12 13 14 14 15 16 16 16 15
22 8 13 17 18 18 19 19 20 21 20 21 22 21 21 21
0 0 0 2 24 23 20 24 24 20 21 25 27 28 30 29
32 38 25 0 0 0 0 0 0 7 34 13 7 5 1 0
0 0 0 0 0 0 0 0 5 28 30 18 18 16 20 24
17 10 15 23 23 24 28 27 29 30 28 27 26 23 21 21
23 22 19 18 22 26 28 26 26 36 47 59 53 49 32 10
9 17 23 24 21 20 18 10 12 12 11 11 11 11 12 12
14 15 15 15 16 17 18 19 19 19 20 20 20 20 20 19
26 12 17 21 22 23 22 23 23 23 23 23 24 23 24 23
0 0 0 0 22 24 19 21 19 13 17 14 15 22 27 24
29 39 23 0 0 0 0 0 0 1 36 10 5 0 0 0
0 3 0 0 0 0 0 0 3 27 32 17 15 25 21 14
8 14 16 14 24 24 30 31 32 31 27 28 27 25 24 21
17 15 17 17 15 16 20 27 36 35 44 57 65 63 42 29
15 7 14 19 12 12 13 12 13 14 15 15 17 17 18 19
19 20 21 21 21 21 22 22 23 24 23 23 24 23 22 15
11 6 20 23 23 23 24 25 25 24 25 25 25 25 25 25
0 0 0 0 3 5 9 19 16 15 17 20 21 23 27 26
31 38 23 0 0 0 0 0 0 2 37 3 0 0 0 0
0 4 5 0 0 0 0 0 3 28 32 13 12 21 18 7
10 8 16 26 25 27 31 32 31 24 24 27 30 28 22 18
19 18 15 17 16 16 21 25 24 25 37 48 53 69 56 43
19 11 9 15 18 18 18 18 18 19 20 20 22 22 22 22
23 23 24 24 25 24 25 25 25 25 25 25 25 24 23 8
0 0 19 24 25 26 26 24 24 25 26 25 26 25 25 25
0 0 0 0 0 0 3 20 12 14 12 4 8 14 19 25
32 34 20 0 0 0 0 0 0 4 37 3 0 0 0 0
0 0 12 4 3 0 0 0 4 28 33 14 8 12 7 6
4 10 18 16 23 34 34 26 22 26 29 29 26 26 26 28
22 22 30 26 22 22 26 24 24 35 45 51 61 75 74 59
33 16 6 6 17 21 22 22 22 23 24 24 24 24 24 24
25 25 25 25 26 25 25 25 26 26 24 19 15 12 21 7
5 0 17 25 26 27 26 26 26 26 26 26 26 26 26 25
0 0 3 0 0 0 3 26 19 18 12 0 0 0 0 0
0 2 17 0 0 0 0 0 0 6 35 2 0 0 0 0
3 7 10 7 10 0 0 0 4 28 34 19 13 11 3 3
6 7 7 16 26 26 20 24 27 34 31 30 30 32 31 32
34 35 30 26 25 25 25 29 36 45 58 76 84 92 95 82
51 22 15 9 14 25 22 25 24 25 25 25 25 26 26 26
26 27 26 27 27 26 27 26 28 27 9 0 0 3 19 5
1 0 17 25 26 27 26 27 27 26 25 26 26 26 26 25
0 0 2 3 0 0 4 32 23 19 14 0 0 0 0 0
0 0 14 0 0 0 1 0 0 4 34 0 0 0 0 0
8 13 16 5 4 0 0 0 3 27 35 20 14 4 1 3
2 3 9 14 19 21 25 27 35 34 35 31 32 34 36 37
39 33 28 27 26 31 40 46 63 75 89 92 102 109 112 104
73 50 41 24 12 18 23 25 25 25 26 26 26 26 26 27
27 26 26 26 27 26 26 26 26 26 22 19 22 24 23 10
0 0 17 25 25 26 26 25 25 26 26 25 25 25 25 26
0 0 2 6 0 0 3 34 24 19 13 0 0 0 0 0
0 0 13 0 0 5 11 2 0 6 32 0 0 0 0 0
1 2 15 0 0 0 0 0 2 27 35 22 10 1 1 0
1 5 8 12 21 23 25 29 35 36 34 36 38 38 38 39
34 31 32 33 41 51 64 78 95 100 106 114 121 121 124 119
108 94 83 58 27 10 20 27 26 27 26 26 26 27 27 26
26 26 27 28 28 27 27 27 27 27 27 25 24 24 22 10
0 0 17 25 26 27 26 26 26 26 26 26 26 26 25 25
11 7 6 13 7 2 3 35 20 17 13 0 0 1 10 0
0 0 12 0 0 11 12 5 0 6 31 0 0 0 0 0
0 0 13 0 0 0 0 0 0 26 35 17 7 1 0 1
2 5 7 16 13 16 24 29 33 35 36 41 37 36 39 34
40 43 48 58 71 85 97 104 115 120 123 125 125 125 125 124
123 119 118 102 56 23 15 23 26 26 26 26 26 27 27 26
27 27 27 27 28 27 27 27 27 26 26 26 25 24 23 16
0 2 19 25 26 27 26 26 25 25 25 26 25 25 25 25
34 31 30 37 36 33 32 39 21 17 12 0 0 9 18 3
1 0 19 8 7 15 13 12 3 6 31 0 0 0 0 0
0 0 15 0 0 0 0 0 0 24 34 11 1 0 0 0
1 5 11 11 13 15 19 28 36 35 36 28 32 33 35 47
48 56 71 87 97 107 114 118 124 125 125 125 125 124 124 124
124 124 124 121 103 43 13 23 27 26 27 27 27 26 26 26
26 26 26 27 26 27 27 27 27 27 27 26 25 24 22 17
5 7 21 25 26 26 26 26 26 26 26 26 26 25 26 25
2 5 12 18 28 36 41 40 25 14 13 0 0 6 10 0
0 0 28 33 34 38 35 34 35 35 33 0 0 0 0 0
0 0 16 0 0 0 0 0 0 20 33 8 0 0 0 0
1 7 6 6 10 15 19 26 33 30 23 34 33 37 49 52
62 85 101 111 116 123 124 125 125 125 125 125 125 125 125 125
125 124 125 123 119 87 15 20 27 26 26 26 26 27 27 27
27 26 27 27 27 26 27 27 27 27 26 26 26 24 22 18
16 18 24 26 26 27 26 25 26 26 25 26 26 26 25 26
0 0 1 6 0 22 42 38 22 16 15 0 0 0 0 0
0 0 28 35 37 39 37 38 43 45 39 11 8 12 3 1
0 1 19 2 0 0 0 0 0 13 31 5 0 0 0 0
2 3 3 10 10 14 20 26 31 22 28 27 31 44 55 76
99 108 113 120 123 126 126 126 126 126 126 126 125 126 125 124
125 125 125 124 123 111 35 19 27 28 27 27 27 27 26 26
27 26 27 27 28 27 27 27 27 27 27 26 27 25 22 20
20 22 26 26 27 27 27 26 27 25 27 27 26 26 26 26
0 0 11 30 8 30 39 35 20 17 18 14 1 1 0 0
0 0 27 35 36 37 37 38 46 47 42 28 28 27 25 23
23 22 22 16 14 11 12 9 11 18 31 3 0 0 0 0
4 0 6 6 7 15 21 27 21 24 23 26 37 50 78 102
109 113 120 124 124 125 125 125 125 125 125 125 125 125 125 125
125 125 125 125 124 117 62 16 26 27 26 26 26 26 27 27
26 26 27 27 27 27 27 27 26 27 26 26 25 25 23 23
22 26 26 26 26 27 26 26 26 26 26 26 26 26 26 26
0 0 1 25 22 34 39 29 17 18 19 9 0 0 0 0
0 0 27 29 32 32 32 33 32 30 31 28 29 30 28 27
28 28 27 26 23 20 19 17 17 21 28 2 0 0 0 0
0 2 3 5 9 12 17 15 19 17 18 25 41 63 91 109
115 120 124 124 125 125 125 126 126 126 125 126 125 125 126 125
125 125 125 125 124 122 86 19 27 27 27 26 26 26 26 26
27 26 27 26 27 27 27 27 28 28 25 25 25 25 24 25
24 27 27 27 26 27 27 26 27 27 27 26 26 26 25 25
0 0 0 2 9 33 39 25 18 20 20 2 0 0 0 0
0 0 30 30 29 29 30 30 28 25 27 30 30 32 33 30
30 29 29 29 29 32 30 27 25 25 24 0 0 0 1 0
0 1 1 4 7 8 8 13 14 14 19 32 55 73 94 111
121 125 125 125 125 124 125 124 125 125 125 125 125 125 125 125
125 125 125 125 124 122 102 26 26 26 26 26 26 26 26 26
27 27 27 27 27 27 27 27 26 26 25 25 25 25 23 24
25 25 25 25 25 25 26 26 26 26 25 24 25 26 26 26
0 0 0 0 2 33 40 25 20 18 19 21 19 15 11 9
6 4 31 33 30 30 29 30 30 30 32 33 32 34 37 39
32 28 29 29 32 39 38 34 32 31 19 0 0 0 0 0
0 0 1 7 6 4 8 11 12 15 25 45 66 80 96 115
124 124 124 125 125 125 125 126 126 126 126 125 125 125 125 125
125 124 124 124 124 123 111 33 27 27 27 26 27 26 26 26
25 25 26 26 26 26 26 26 25 26 25 26 26 25 25 25
25 26 26 26 26 26 26 26 26 26 26 25 25 25 25 25
0 0 0 0 0 30 41 25 19 19 21 39 40 42 38 41
44 42 43 36 32 32 31 31 32 35 37 37 33 35 40 43
31 29 25 24 32 39 37 34 33 31 16 0 0 0 0 0
0 0 2 6 3 5 7 10 11 16 35 56 71 86 105 118
124 125 125 125 125 125 125 125 125 125 125 125 125 125 125 125
125 125 126 125 125 124 116 44 25 26 26 26 26 26 26 26
26 26 26 26 26 26 26 27 26 26 26 26 26 25 25 26
27 26 26 26 27 27 26 26 25 25 26 25 25 25 25 25
0 0 0 0 1 31 42 26 19 20 21 44 48 47 47 46
46 46 46 37 31 26 29 27 30 35 40 38 34 35 35 31
33 30 28 22 24 32 29 29 32 32 12 0 0 0 0 0
0 0 6 1 2 3 8 10 12 24 39 55 83 101 111 119
125 125 125 125 125 125 126 125 126 125 126 126 125 125 125 125
125 125 124 124 124 123 118 55 26 26 27 27 27 26 25 25
25 25 26 26 26 25 26 26 26 26 25 26 26 26 26 26
26 26 25 25 26 25 26 25 25 26 26 24 25 25 24 24
0 0 0 0 0 30 40 24 15 20 20 33 37 37 39 40
43 43 46 30 3 9 3 3 5 9 23 40 34 26 9 12
16 15 16 24 25 14 2 1 4 8 4 0 0 0 0 0
0 0 4 0 3 4 6 9 16 25 36 65 92 106 118 124
125 125 125 125 126 125 125 125 125 125 125 125 125 124 125 125
125 124 125 125 125 124 121 70 27 27 27 27 27 26 25 25
25 26 25 27 26 26 26 26 26 25 25 25 25 25 25 26
26 26 26 25 26 25 26 26 25 24 25 24 24 24 24 24
0 0 0 0 0 29 37 21 17 20 16 22 23 23 22 22
21 21 24 20 0 0 0 0 0 0 9 39 31 8 0 0
0 2 6 24 26 12 0 0 0 0 2 0 0 0 0 0
0 0 2 2 6 6 5 11 19 25 46 72 94 114 121 123
125 126 125 125 125 125 126 126 126 126 126 125 126 126 125 125
124 124 125 125 124 124 122 86 26 27 27 27 27 26 25 25
25 25 25 25 25 25 25 25 25 25 25 25 26 26 26 26
26 26 25 26 26 25 25 25 24 25 25 24 24 24 24 24
0 0 0 0 0 30 40 23 15 19 17 28 31 30 30 28
27 26 27 20 2 0 0 0 0 3 15 37 22 0 0 0
0 0 4 28 26 14 0 0 0 0 1 0 0 0 0 0
0 0 2 5 6 2 8 12 17 30 51 73 102 115 124 123
124 126 126 126 126 126 125 125 125 125 126 125 125 125 125 126
125 125 125 125 125 125 123 100 28 26 26 26 25 25 25 25
24 24 25 25 26 25 24 21 20 19 18 16 15 20 25 26
26 25 26 26 25 25 25 25 25 25 24 24 23 24 24 24
0 0 0 0 0 32 43 23 14 19 18 30 33 33 32 32
32 32 33 21 0 0 0 0 0 3 15 37 15 0 0 0
0 0 1 28 27 14 0 0 0 0 1 0 0 0 0 0
0 0 4 3 0 3 7 11 20 32 50 87 112 123 123 124
125 125 126 126 126 125 125 126 126 126 125 125 126 126 126 125
125 125 125 125 124 125 124 111 33 20 19 17 15 13 10 9
8 11 17 25 25 24 24 8 2 2 2 2 2 8 25 26
26 26 25 25 25 24 25 24 24 24 24 24 25 24 24 25
12 7 6 2 1 32 38 19 13 19 18 30 33 33 33 33
33 34 35 23 0 0 0 0 1 1 6 35 9 0 0 0
0 0 2 29 26 13 0 0 0 0 0 0 0 0 0 0
0 2 0 0 2 2 7 12 20 31 67 102 115 120 121 125
126 125 125 126 126 125 125 125 125 124 125 125 125 125 126 126
126 126 125 125 125 125 124 115 32 1 1 5 4 3 0 0
0 0 6 24 25 25 25 8 1 1 1 2 1 8 25 26
26 26 25 25 25 24 25 24 24 24 24 23 24 23 24 25
36 35 35 32 30 35 34 28 25 27 24 17 17 17 18 14
14 22 36 26 1 0 0 0 2 3 5 35 8 0 0 0
0 0 2 29 24 12 0 0 0 0 0 0 0 0 0 0
1 0 1 3 0 0 3 5 9 23 44 58 63 65 67 71
72 71 75 77 80 77 77 84 72 72 71 69 74 86 94 116
126 125 125 126 125 125 124 113 37 0 1 6 3 4 0 0
0 0 4 23 24 24 23 7 2 2 2 1 2 8 26 27
26 26 26 25 25 25 24 24 24 24 24 24 25 24 24 25
35 34 34 34 33 33 33 33 32 31 31 31 31 29 29 9
0 5 34 33 9 0 0 0 2 1 3 33 6 0 0 0
0 0 2 30 25 13 0 0 0 0 0 0 0 0 0 2
7 8 1 0 0 0 0 0 0 0 0 0 0 0 0 0
0 0 0 0 0 18 50 72 55 41 37 38 33 24 22 29
67 121 127 126 125 119 99 76 42 15 4 4 2 3 5 0
0 0 3 23 25 26 24 6 2 2 3 1 2 7 25 27
27 27 26 25 26 26 25 25 25 25 25 25 25 25 24 24
34 35 34 34 34 33 33 33 32 32 32 31 31 31 31 14
0 3 33 32 4 0 0 0 2 2 4 33 6 0 0 0
0 0 0 28 25 14 0 0 0 0 0 0 0 0 2 42
95 91 47 3 0 2 14 18 25 33 37 43 42 38 35 29
21 10 4 2 0 4 24 22 10 14 17 10 8 3 3 4
8 33 113 126 110 62 53 31 11 3 0 0 0 0 0 0
0 0 5 24 25 25 25 8 2 2 3 2 2 4 26 27
27 26 27 26 26 24 24 24 24 23 23 24 23 24 23 24
34 33 33 32 32 32 31 31 31 30 30 31 31 30 30 16
0 1 27 27 0 0 0 0 0 0 3 34 7 0 0 0
0 0 0 27 25 12 0 0 0 0 0 0 0 1 36 96
112 115 100 37 2 0 1 7 18 31 49 76 95 107 117 116
107 86 58 20 16 19 7 11 31 28 19 7 4 0 0 0
0 3 28 107 75 34 14 14 2 0 0 0 0 0 0 0
0 0 4 24 25 25 25 11 6 5 6 5 7 6 20 23
24 24 25 25 25 25 25 25 25 25 25 26 25 25 25 24
8 7 7 7 7 7 8 8 9 8 9 10 20 27 30 19
0 0 23 22 0 0 0 0 0 0 2 35 10 0 0 0
0 0 0 25 26 14 0 0 0 0 0 0 0 7 85 78
76 85 86 73 23 17 41 39 27 22 15 6 2 10 27 43
55 72 60 52 33 52 12 15 18 16 14 9 3 0 0 0
0 2 1 29 56 15 23 1 0 0 0 0 0 0 0 0
0 0 3 23 25 25 25 12 6 7 7 7 7 8 20 26
27 27 26 25 26 25 25 24 24 25 26 24 23 24 25 24
0 0 0 0 0 0 0 0 0 0 0 0 21 32 30 21
0 0 20 24 3 1 1 1 3 7 5 33 23 10 9 11
12 10 12 30 29 24 27 25 25 25 25 0 0 23 102 79
110 99 72 79 55 36 44 50 56 72 84 91 78 64 44 29
14 42 19 51 10 20 16 7 8 13 12 6 0 0 0 0
0 1 1 17 40 9 3 0 0 0 0 0 0 0 0 0
0 0 3 23 25 26 25 10 2 3 3 3 2 5 20 25
26 25 26 26 26 26 26 25 24 25 26 25 24 24 24 24
0 0 0 0 0 0 0 0 0 0 0 0 21 33 29 23
0 0 14 31 29 27 23 25 27 28 29 31 40 42 39 38
40 40 40 42 31 22 31 33 35 38 34 4 0 32 98 88
116 98 83 84 74 56 53 53 61 76 87 96 97 100 103 102
96 78 50 40 10 14 14 3 7 15 5 3 0 0 0 0
0 0 8 12 19 1 0 0 0 0 0 0 0 0 0 0
0 0 3 22 24 25 23 10 1 1 1 0 0 6 8 10
14 26 25 25 26 24 25 24 24 24 24 24 24 24 24 25
0 0 0 0 0 0 0 0 0 0 0 0 18 34 29 25
1 0 12 34 34 29 28 30 29 24 23 26 34 44 42 40
39 42 43 43 36 20 28 31 33 38 39 15 0 28 93 89
114 100 92 92 75 64 64 64 62 79 92 97 100 103 106 101
95 95 85 33 43 32 11 0 2 5 1 0 0 0 0 0
0 0 19 7 5 1 0 0 0 0 0 0 0 0 0 0
1 0 2 22 24 25 23 11 1 2 3 2 0 1 12 10
3 25 25 25 25 24 25 24 24 24 24 24 24 24 23 23
0 0 0 0 0 0 0 0 0 0 0 0 17 35 29 26
1 0 10 34 30 25 26 29 29 26 23 25 25 28 30 30
29 29 29 29 29 18 19 23 26 27 23 13 0 18 92 96
104 86 61 52 76 76 72 61 69 86 94 97 100 105 104 102
96 95 93 79 18 18 5 0 0 1 0 0 0 0 0 0
0 0 25 61 14 1 0 0 0 0 0 0 0 0 1 0
0 0 2 22 24 25 24 10 1 1 2 4 0 1 10 8
3 25 25 25 25 24 25 24 24 24 24 24 24 23 25 24
0 0 0 0 0 0 0 0 0 0 0 0 14 35 29 25
3 0 8 33 18 21 20 21 27 26 24 26 22 14 17 16
17 17 17 18 22 22 23 25 26 26 22 17 1 6 84 98
83 43 60 99 84 87 76 70 81 85 96 96 98 101 106 102
97 98 95 92 51 5 3 1 0 0 0 0 0 0 0 0
0 3 34 108 58 1 0 0 0 0 0 0 0 0 1 0
1 0 2 21 23 25 24 10 1 2 2 4 5 7 3 1
2 24 25 24 24 23 24 23 24 24 24 24 23 23 23 23
0 0 0 0 0 0 0 0 0 0 0 0 12 36 29 26
5 4 15 33 8 6 8 10 12 13 13 23 25 20 21 21
26 28 26 24 28 29 30 34 35 33 27 25 6 6 62 99
76 45 99 97 72 92 96 82 84 86 94 96 97 102 108 98
85 101 97 94 85 12 0 1 0 0 0 0 0 0 0 0
8 18 58 122 112 15 0 0 0 0 0 0 0 0 2 0
1 0 2 21 23 25 24 10 0 1 1 2 4 7 3 0
2 24 23 19 21 24 24 23 23 24 23 23 23 23 23 22
0 0 0 0 0 0 0 0 0 0 0 0 9 36 29 26
21 24 28 35 5 0 0 0 0 0 1 19 26 29 36 28
36 43 32 21 21 23 24 28 33 36 28 24 10 8 32 102
98 54 93 78 74 98 100 86 83 86 93 96 96 99 104 105
101 101 94 93 92 37 0 2 1 0 0 0 0 0 0 7
19 24 88 121 123 84 5 0 0 0 0 0 0 1 1 0
0 0 1 20 23 26 23 11 0 1 0 13 13 0 0 0
1 10 4 7 3 16 25 23 23 24 24 24 23 22 22 22
0 0 0 0 0 0 0 0 0 0 0 0 7 36 30 26
32 37 39 38 7 0 0 0 0 0 0 23 26 30 38 24
32 40 22 0 0 0 0 1 13 35 30 22 16 4 14 96
111 77 64 80 97 101 98 91 82 86 92 95 96 94 95 107
102 98 96 92 89 50 1 6 5 2 0 0 0 0 0 14
18 40 106 121 124 122 67 0 0 0 0 0 0 5 0 0
0 0 1 21 23 25 24 11 0 0 8 41 43 4 0 0
3 16 24 24 20 3 24 24 24 24 23 23 23 23 23 22
0 0 0 0 0 0 0 0 0 0 0 0 6 35 30 26
32 39 41 40 11 0 0 0 0 0 0 23 25 28 35 7
2 12 20 0 0 0 0 0 9 35 30 21 18 1 13 68
118 104 87 81 86 91 94 92 86 90 93 93 93 96 100 103
97 87 88 79 86 67 4 12 11 9 1 0 0 0 0 22
28 63 109 125 126 125 119 22 0 0 0 0 2 14 0 0
0 0 2 21 24 25 24 17 10 12 14 30 32 6 0 0
17 25 25 24 23 6 19 25 24 24 24 24 24 24 22 23
0 0 0 0 0 0 0 0 0 0 0 0 5 35 32 27
27 27 26 25 5 0 0 0 0 0 0 26 25 30 36 6
0 10 21 0 0 0 0 0 6 33 26 18 16 1 10 45
116 109 105 101 67 75 92 93 89 95 95 90 92 92 95 99
88 82 76 78 89 82 24 15 18 8 0 0 0 0 2 26
58 105 121 126 126 126 124 31 0 0 0 0 4 2 0 0
1 0 2 22 24 27 25 25 25 25 5 6 7 0 0 0
18 26 26 25 25 10 19 24 24 24 24 24 23 23 24 23
0 0 0 0 0 0 0 0 0 0 0 0 4 35 32 26
17 7 9 8 0 0 0 0 0 0 0 28 25 31 36 5
0 9 22 0 0 0 0 0 5 30 27 18 16 1 4 21
85 114 108 106 98 91 95 93 93 96 94 94 91 93 91 90
79 62 83 98 99 90 71 16 17 5 0 0 0 1 20 39
105 126 122 116 122 124 106 9 0 0 0 0 0 1 1 0
1 0 2 21 24 25 27 28 20 15 4 0 0 0 0 0
17 27 27 27 27 9 21 26 26 26 26 25 25 26 25 25
0 0 0 0 0 0 0 0 0 0 0 0 3 34 32 28
19 10 12 9 0 0 0 0 0 0 1 29 24 33 37 5
0 10 23 0 0 0 0 0 3 27 23 19 25 6 4 15
46 104 115 108 103 94 95 92 93 95 97 95 93 92 93 88
81 76 88 101 99 93 90 73 38 19 11 10 17 55 61 70
125 98 51 55 93 103 61 15 5 1 0 0 1 1 1 1
1 0 3 24 26 27 28 27 6 22 22 0 0 0 0 0
17 27 27 26 25 8 25 26 26 25 26 25 25 24 24 24
0 0 0 0 0 0 0 0 0 0 0 0 2 34 32 26
20 12 13 11 0 0 0 0 0 0 0 27 24 32 36 5
1 9 22 0 0 0 0 0 3 23 16 23 28 16 1 8
31 75 113 110 100 93 97 89 94 95 99 96 94 90 92 98
99 101 107 110 106 100 98 92 89 89 85 92 115 126 85 86
111 86 110 110 95 107 119 89 58 16 6 5 3 2 2 1
0 2 8 23 25 26 26 26 16 40 41 5 0 0 0 0
16 26 25 25 16 11 25 25 25 25 25 24 25 24 24 25
0 0 0 0 0 0 0 0 0 0 0 0 2 33 31 26
22 16 16 11 0 0 0 0 1 0 0 26 25 33 36 11
2 8 23 5 1 0 2 1 6 17 18 25 34 24 1 7
20 58 83 101 101 91 90 87 91 95 98 98 96 91 96 104
109 116 122 125 126 126 126 126 127 127 127 127 126 126 122 98
103 123 127 118 109 118 126 121 108 33 19 15 11 7 4 2
0 3 5 7 7 6 5 5 3 9 5 1 0 0 0 0
3 5 6 8 4 22 9 8 16 25 25 24 24 24 23 24
0 0 0 0 0 0 0 0 0 0 0 0 1 31 31 25
22 17 16 12 0 4 0 0 4 9 1 23 26 33 35 15
8 6 21 2 5 5 4 0 8 13 29 26 36 30 6 1
13 51 72 79 81 59 70 86 90 94 97 99 96 94 96 102
108 117 123 125 126 126 127 127 127 127 127 127 127 127 126 126
126 126 126 123 119 112 122 119 106 31 20 16 12 0 0 0
0 0 0 0 0 0 0 0 0 0 0 0 0 0 0 1
1 0 0 0 0 8 5 34 12 25 25 25 24 24 24 24
0 0 0 0 0 0 0 0 0 0 0 0 0 30 31 25
22 18 17 17 0 4 2 1 6 13 8 22 30 33 34 12
18 6 21 0 4 7 3 0 10 21 26 29 33 31 22 3
10 45 70 80 89 83 76 80 87 92 96 98 98 97 98 102
109 115 123 125 128 127 127 127 127 126 126 127 127 127 127 127
127 127 127 126 123 111 116 117 103 27 21 18 15 2 0 9
13 15 16 17 19 19 19 19 19 20 19 20 21 23 23 22
19 9 0 1 20 4 12 76 37 24 24 25 25 25 25 26
0 0 0 0 0 0 0 0 0 0 0 0 0 29 31 24
22 19 17 23 25 29 30 30 32 33 34 40 35 34 33 4
21 9 22 11 15 14 13 12 14 27 26 32 26 31 23 5
5 32 67 78 89 89 78 78 86 92 95 97 98 99 101 103
109 113 119 126 126 126 127 127 126 126 127 127 128 128 127 126
127 126 125 123 121 109 112 115 96 18 12 10 12 2 0 15
18 20 22 23 23 23 23 23 22 22 24 24 24 26 25 24
21 9 0 0 4 1 1 16 9 3 3 9 37 36 35 34
0 0 0 0 0 0 0 0 0 0 0 0 0 29 32 26
23 19 18 25 39 40 40 40 40 41 41 45 43 33 32 1
9 10 24 18 19 19 18 16 17 31 27 33 22 26 18 10
6 23 63 76 88 91 82 76 84 90 95 95 97 99 102 100
108 113 120 125 126 126 127 127 127 127 127 127 127 126 126 126
126 126 123 120 113 103 106 111 84 8 0 0 0 0 0 14
18 21 24 24 25 25 25 24 24 24 25 26 27 27 26 25
22 10 0 0 0 0 0 0 0 1 0 7 42 42 41 39
0 0 0 0 0 0 0 0 0 0 0 0 0 30 32 26
22 19 19 20 40 40 40 39 40 39 39 41 42 33 31 1
1 5 23 18 20 21 20 18 24 27 33 31 23 26 16 10
8 16 59 75 86 91 86 77 86 90 96 95 96 98 99 102
108 111 115 122 125 126 125 126 127 127 127 127 127 127 127 125
119 109 99 98 91 89 98 108 69 7 0 0 0 0 2 14
18 21 24 25 25 26 25 26 26 26 27 27 28 28 28 26
24 11 0 0 0 0 0 0 0 1 0 7 42 42 40 37
0 0 0 0 0 0 0 0 0 0 0 0 0 28 33 25
24 20 20 15 16 15 15 14 13 13 13 14 15 25 31 2
1 3 24 20 23 24 21 23 28 27 35 27 19 22 12 3
12 15 52 74 87 92 90 79 86 90 94 96 95 97 97 102
106 110 112 119 124 125 126 127 128 127 127 123 117 114 111 95
94 95 87 92 85 81 99 108 50 9 1 0 0 0 1 14
17 21 23 25 26 27 26 27 27 28 29 29 29 28 28 26
24 13 0 0 0 0 0 0 0 0 26 34 38 37 36 34
0 0 0 0 0 0 0 0 0 0 0 0 0 28 32 25
22 19 19 13 9 8 7 8 8 9 10 12 13 26 32 2
0 2 24 20 23 23 21 21 24 27 36 25 19 17 5 0
10 14 43 74 85 92 94 85 86 90 93 95 97 98 99 101
106 109 113 117 119 123 127 127 128 128 122 98 83 89 99 116
121 121 120 121 111 104 110 99 27 18 14 0 0 0 2 14
17 20 23 24 26 26 27 27 27 27 29 29 30 30 28 27
26 13 0 0 0 0 0 0 0 1 34 35 35 34 34 31
0 0 0 0 0 0 0 0 0 0 0 0 0 27 32 24
23 19 19 17 13 12 11 11 10 10 11 13 14 28 33 9
11 14 27 19 23 24 22 26 24 25 30 24 19 12 1 0
12 13 39 73 86 93 95 88 86 87 91 94 96 96 98 99
101 104 111 114 117 122 127 128 128 125 118 122 120 116 112 115
119 122 119 114 104 104 110 71 9 10 8 31 3 0 2 14
17 20 23 24 26 26 27 28 28 29 30 30 30 29 29 28
27 13 0 0 0 0 0 0 0 4 33 33 32 32 31 30
0 0 0 0 0 0 0 0 0 0 0 0 0 28 31 24
22 19 19 19 16 15 15 15 15 14 14 15 15 31 36 25
38 40 33 18 23 23 21 25 22 23 28 18 20 9 0 0
8 13 35 75 86 94 97 93 90 89 91 94 95 93 96 97
101 103 107 111 115 118 124 125 126 120 124 127 126 116 106 92
82 85 85 92 102 108 102 30 3 9 5 0 0 0 4 15
17 19 21 23 25 25 26 27 28 29 30 30 30 30 29 29
28 12 0 0 0 0 0 0 0 5 31 30 30 29 29 28
0 0 0 0 0 0 0 0 0 0 0 0 1 31 33 24
22 19 19 19 17 16 16 16 16 16 16 16 14 26 27 19
28 29 25 20 24 23 20 20 25 21 23 16 20 5 0 0
6 12 32 77 88 95 98 96 93 91 91 93 93 92 93 94
101 99 104 108 112 115 119 123 121 118 124 126 127 126 122 117
109 111 119 122 116 107 70 10 4 9 6 30 0 0 4 15
17 18 21 22 24 25 26 27 28 29 29 29 29 29 29 29
28 10 0 0 14 26 4 0 0 8 29 28 28 28 27 27
5 6 7 9 10 12 13 14 16 17 18 19 21 27 27 23
21 19 18 13 9 14 16 16 16 15 15 15 16 21 21 17
17 20 21 22 22 22 20 17 22 18 19 15 21 2 0 0
3 14 29 78 88 94 97 97 95 95 91 92 91 92 92 92
98 99 101 103 106 110 114 114 118 123 125 125 126 127 127 126
127 126 126 125 114 99 25 11 4 6 1 2 0 0 5 16
17 18 20 21 23 24 25 27 28 28 29 29 30 29 30 30
30 10 0 0 21 34 4 0 0 10 28 27 27 27 26 27
15 16 13 16 26 27 27 26 26 25 25 24 23 23 24 24
21 18 16 5 14 7 17 16 15 16 15 15 17 22 21 20
18 20 21 22 23 24 20 16 17 14 17 19 21 1 0 0
0 9 29 79 89 94 96 97 97 97 96 93 90 88 90 91
94 94 95 99 105 108 110 112 119 124 127 126 127 127 127 127
127 127 126 124 115 65 10 11 3 5 1 1 0 0 5 16
16 17 19 21 22 24 25 27 28 29 29 30 30 30 31 30
30 9 0 0 0 0 0 0 0 12 27 27 26 26 26 26
28 28 26 20 10 19 28 27 26 25 25 25 24 24 23 23
21 18 12 9 18 11 11 3 6 15 15 16 18 22 22 21
20 20 21 22 22 23 19 19 14 13 15 18 24 0 0 0
0 4 29 80 88 94 97 98 98 98 97 96 94 91 91 89
92 92 85 89 102 105 110 112 116 124 125 125 126 126 127 127
127 127 126 121 111 33 12 13 6 5 5 4 0 0 5 15
16 18 19 20 21 23 24 26 27 27 28 29 30 30 30 31
30 9 0 0 1 0 0 0 0 15 27 26 26 26 26 26
30 29 28 28 27 16 14 26 26 25 25 24 23 22 21 19
16 37 17 13 18 16 3 0 5 16 16 16 18 22 22 21
21 20 21 22 22 23 19 13 10 15 12 18 20 4 1 0
0 0 22 80 87 95 98 99 100 98 97 96 95 93 90 89
88 89 90 94 96 101 105 108 109 118 120 124 125 126 127 127
126 127 124 117 88 14 12 15 8 5 5 2 0 0 5 15
16 18 19 20 21 22 24 25 26 27 28 28 29 29 30 30
29 7 0 0 0 0 0 0 0 18 27 27 26 26 25 25
28 27 26 24 23 20 10 12 14 11 9 9 9 10 4 0
2 57 34 18 17 16 4 0 13 17 16 17 20 22 22 22
22 22 22 22 22 22 18 11 9 11 6 16 17 11 5 1
0 0 16 81 90 95 98 100 100 99 97 98 95 92 91 91
89 86 85 88 90 89 93 94 99 99 108 109 119 123 121 123
123 119 114 104 43 11 12 14 10 2 7 0 0 0 7 16
16 17 19 20 22 23 23 24 26 27 27 27 29 29 29 30
29 7 0 0 0 0 0 0 0 18 26 26 26 26 26 25
15 15 14 10 4 0 0 0 0 0 0 2 1 0 0 0
0 44 35 21 4 11 35 3 11 12 14 17 20 22 21 22
22 22 21 21 24 24 16 10 9 8 3 11 14 14 9 11
5 0 19 82 91 95 99 101 103 102 102 98 95 94 89 90
89 88 88 88 90 90 90 81 81 83 91 98 106 108 108 106
106 102 95 49 14 14 11 12 10 1 12 0 0 1 8 16
17 17 19 20 21 22 23 25 26 27 27 27 29 29 28 29
29 6 0 0 0 0 0 0 0 11 27 26 26 26 25 25
27 27 31 29 27 28 26 6 0 1 2 1 0 0 0 0
0 37 29 10 2 43 41 11 0 0 0 3 12 22 22 22
22 22 22 22 22 22 13 8 6 4 1 6 10 8 17 16
24 23 40 82 90 94 97 100 103 102 102 99 98 96 93 91
91 92 93 97 96 102 104 104 99 87 77 76 80 82 81 77
73 55 32 16 17 21 25 28 29 10 11 0 0 0 9 17
18 18 19 20 21 22 23 25 26 27 27 27 28 28 29 30
32 6 0 0 0 0 0 0 0 6 22 25 25 25 25 25
49 47 47 45 43 40 34 15 0 0 2 3 0 0 0 0
10 28 25 9 3 17 29 20 0 0 0 0 0 12 22 21
22 22 21 21 22 22 14 3 4 2 0 1 6 7 12 21
22 26 47 85 90 95 99 101 103 103 103 102 100 98 96 95
89 83 97 99 102 105 107 108 111 106 96 80 70 63 61 67
48 1 7 20 21 20 19 34 39 12 8 0 0 0 11 19
19 19 20 21 22 23 25 26 27 27 28 28 29 29 31 32
34 5 0 0 2 0 0 0 1 20 10 25 25 25 25 24
47 45 41 37 35 40 36 24 3 0 1 0 0 0 0 0
12 12 26 12 0 20 29 25 3 0 0 0 0 4 23 22
22 22 21 20 20 19 13 1 2 0 0 0 0 9 17 48
18 10 55 86 90 95 99 101 103 104 105 103 102 100 99 99
96 94 99 99 101 104 105 106 104 106 107 100 97 97 93 74
10 0 0 9 19 29 26 17 26 5 3 0 0 0 11 19
18 18 20 22 23 24 26 27 27 29 29 29 30 31 33 35
37 5 0 60 94 28 0 0 3 24 9 20 24 24 24 24
54 51 52 48 39 38 37 26 1 1 4 5 1 0 0 0
0 2 23 20 0 23 32 22 9 0 0 0 0 3 22 21
21 21 21 19 18 17 12 0 0 0 0 0 0 15 53 61
19 12 69 87 91 96 100 102 103 106 107 106 106 104 103 101
100 99 98 98 98 100 102 101 100 101 102 100 97 89 71 39
57 29 2 3 5 15 29 20 21 2 0 0 0 0 0 1
1 0 0 1 1 2 9 8 7 3 2 3 3 4 4 4
5 0 2 103 127 41 0 0 5 25 19 8 24 24 24 24
45 42 40 33 25 23 20 4 0 36 77 53 4 0 0 0
0 0 1 1 0 35 39 1 11 2 0 0 0 9 23 21
21 20 19 17 16 15 12 0 0 0 16 35 49 55 61 62
32 57 77 89 92 96 101 102 107 105 109 109 108 108 107 105
103 102 101 101 99 97 97 97 97 95 91 87 83 80 73 30
50 66 52 28 17 12 19 15 6 0 0 0 0 0 0 0
0 0 0 0 0 0 0 0 0 0 0 0 0 0 0 0
0 0 0 35 48 9 0 0 7 25 24 9 18 23 24 24
30 30 28 20 17 17 15 1 0 5 32 7 0 0 0 0
0 0 0 0 0 48 54 1 8 7 0 0 2 17 21 20
19 18 17 15 15 13 12 1 17 40 41 39 57 57 62 63
45 68 81 89 91 96 101 105 108 111 109 112 112 110 109 108
108 105 105 102 100 97 92 91 87 83 81 89 87 80 76 40
50 74 65 63 60 55 42 29 23 1 0 0 0 0 0 0
0 0 0 0 0 1 0 0 0 0 0 1 0 0 0 0
0 0 2 0 0 0 0 0 9 24 17 5 0 15 25 24
19 24 25 18 17 16 16 11 15 1 4 1 0 0 0 0
0 0 0 0 0 38 53 1 5 5 0 0 0 1 10 20
19 17 16 15 15 17 28 38 51 58 43 44 58 59 63 67
56 72 85 90 92 96 101 105 109 112 114 111 112 111 111 109
109 107 105 103 100 96 92 85 79 77 95 114 88 81 75 50
44 74 70 67 66 69 65 57 59 52 37 18 3 0 1 0
0 0 0 0 0 0 0 0 0 0 0 0 0 0 0 0
0 0 3 0 0 0 0 0 0 12 3 13 6 9 24 23
0 10 16 7 5 11 9 4 3 2 3 0 0 0 0 0
0 0 13 30 20 25 50 0 7 4 0 0 0 0 2 19
18 20 29 43 51 42 46 49 48 57 49 53 56 58 63 66
64 68 88 91 91 95 100 103 108 111 116 114 112 114 113 112
110 108 106 104 101 96 91 86 87 99 119 111 84 84 80 60
42 73 77 72 70 74 67 58 71 69 64 64 64 51 29 8
5 4 4 5 4 4 4 1 1 0 0 2 0 0 0 0
0 0 0 0 0 0 0 0 0 5 1 20 12 9 24 23
0 0 0 0 0 0 0 0 0 1 34 4 0 0 0 0
0 0 31 69 36 18 55 0 0 0 10 33 49 58 63 66
66 69 69 72 73 63 58 61 59 64 65 56 62 59 62 65
67 64 88 93 93 96 100 102 107 111 114 117 116 114 115 113
112 110 107 104 100 97 92 95 106 121 124 98 84 84 82 66
49 68 83 76 77 81 68 75 85 83 79 80 77 75 75 71
53 29 7 0 0 1 1 0 0 0 0 0 0 0 0 0
0 0 0 0 0 0 0 0 0 0 0 1 0 3 20 23
0 0 0 0 0 0 2 6 9 1 8 1 0 0 0 3
12 0 25 79 48 14 66 2 18 53 72 75 77 77 78 80
85 84 80 80 82 80 75 76 72 69 78 73 76 67 62 65
67 65 75 93 96 95 97 102 106 111 115 116 119 122 117 116
115 112 109 106 104 104 106 113 124 128 120 90 87 86 85 67
76 77 89 86 90 85 81 91 95 93 91 93 85 79 78 78
78 78 76 54 23 1 0 0 0 0 0 0 0 0 0 0
0 0 1 0 0 0 0 0 0 0 0 0 0 0 4 21
0 0 0 0 4 14 23 22 20 4 0 2 0 0 0 8
18 0 17 74 60 19 72 50 69 73 77 79 83 82 83 83
88 90 94 92 90 88 82 83 76 81 88 85 90 84 75 68
66 68 71 88 97 95 96 99 104 110 113 114 117 121 125 123
120 117 115 113 114 116 123 128 128 125 106 87 88 84 88 86
95 84 94 89 94 91 87 97 99 96 93 87 80 81 82 84
85 86 85 80 77 59 18 0 0 0 0 0 0 0 0 0
0 0 0 0 0 0 0 0 0 0 0 0 0 0 0 6
6 15 13 14 17 18 22 22 20 5 0 0 0 0 0 8
24 9 14 44 36 37 60 71 76 79 83 85 88 88 88 88
87 93 95 97 92 91 90 86 89 92 94 93 93 95 91 81
69 66 74 80 95 96 94 96 103 110 115 117 119 121 122 124
128 128 126 126 127 128 128 127 127 113 93 83 88 85 99 93
99 86 97 90 96 90 89 100 101 96 89 78 85 87 85 90
91 91 89 88 86 81 76 37 1 0 0 0 0 0 0 0
0 0 0 0 0 0 0 0 0 0 0 0 0 0 0 0
27 32 28 25 26 27 27 25 24 20 21 24 27 15 7 5
21 21 15 19 35 62 71 77 81 85 87 89 89 90 90 91
88 89 96 100 96 93 95 94 90 92 95 97 91 95 95 92
81 67 67 83 82 96 93 94 99 107 116 118 120 122 122 125
126 126 126 123 128 128 128 127 120 100 83 80 86 93 98 97
100 86 99 93 99 90 95 105 101 92 81 87 94 89 91 94
95 92 90 93 93 90 87 83 53 2 0 0 0 0 0 0
0 0 0 0 0 0 0 0 0 0 0 0 0 0 0 0
30 32 30 28 30 30 31 26 24 24 25 30 30 13 16 7
37 12 10 32 58 70 75 82 86 87 90 92 93 94 90 91
91 93 91 99 98 97 98 98 96 93 92 96 92 92 95 93
88 72 65 70 83 78 92 91 95 105 111 116 121 123 124 125
126 125 126 126 128 127 127 115 95 81 77 80 90 101 94 102
100 89 101 96 99 91 100 106 99 87 86 98 99 92 92 96
96 94 90 98 97 95 92 91 85 53 4 0 0 0 0 0
0 0 0 0 0 0 0 0 0 0 0 0 0 0 0 0
36 35 37 35 32 28 32 25 19 19 20 17 10 3 15 6
2 0 20 56 65 79 82 85 87 88 91 95 96 95 92 91
96 94 93 95 100 97 100 97 96 97 98 97 95 89 95 94
94 86 66 64 68 83 84 83 93 100 110 117 118 121 122 123
124 125 127 128 128 122 108 94 83 76 80 90 100 98 93 104
99 91 102 100 99 95 103 104 96 80 93 103 96 90 96 98
96 91 94 100 99 98 97 97 88 80 58 7 0 0 0 0
0 0 0 0 0 0 0 0 0 0 0 0 0 0 0 0
36 36 36 35 32 25 25 18 13 13 13 10 0 0 14 6
0 11 47 60 74 86 85 88 88 87 92 96 98 97 93 89
96 96 96 95 97 98 98 98 96 95 96 96 94 92 89 94
94 91 83 65 63 68 84 93 89 97 109 113 118 124 124 123
124 123 123 115 104 95 89 83 79 81 85 97 100 93 102 107
98 92 104 102 99 96 104 102 89 79 100 104 95 92 98 100
96 89 100 105 101 99 98 101 84 82 77 60 6 0 0 0
0 0 0 0 0 0 0 0 0 0 0 0 0 0 0 0
32 39 38 38 27 18 12 10 9 8 12 9 8 12 6 2
8 46 57 64 90 90 88 91 92 86 92 97 100 98 94 91
91 99 96 94 95 97 98 98 96 94 96 94 96 95 93 90
93 93 91 79 67 61 66 80 92 88 96 105 106 107 108 106
105 100 96 92 89 87 83 83 81 85 98 99 94 98 106 108
95 93 104 102 100 100 105 101 86 84 105 104 94 95 100 100
94 87 103 106 103 101 102 103 76 87 82 79 39 0 0 0
0 0 0 0 0 0 0 0 0 0 0 0 0 0 0 0
10 8 14 21 25 14 8 8 8 8 12 9 22 24 3 8
28 58 59 72 97 91 90 92 96 83 91 95 100 98 96 94
90 97 97 94 94 96 96 97 99 97 97 97 95 95 100 92
93 95 96 92 83 66 59 63 70 75 86 86 91 90 92 90
90 89 88 87 86 83 80 78 89 96 96 96 95 105 107 108
94 97 105 104 100 101 105 97 82 91 107 104 95 97 102 99
90 89 105 108 105 103 106 102 69 89 88 85 78 16 0 0
0 0 0 0 0 0 0 0 0 0 0 0 0 0 0 0
28 23 19 18 15 4 3 2 2 2 12 20 61 32 29 27
56 58 61 82 98 94 92 96 97 81 91 93 98 98 94 95
88 97 98 97 96 97 98 97 98 99 97 98 95 94 101 99
92 91 94 96 94 87 73 69 79 75 70 74 78 80 80 82
84 81 80 82 83 82 81 91 97 100 99 95 100 107 108 107
95 98 105 104 101 104 105 93 84 99 108 104 97 98 102 98
86 92 105 107 104 106 106 96 66 92 92 88 90 65 2 0
0 0 0 0 0 0 0 0 0 0 0 0 0 0 0 0
31 30 28 24 13 5 6 1 1 1 63 63 39 40 51 54
59 59 63 87 98 95 93 95 97 81 88 94 97 101 95 96
91 94 99 97 97 97 98 96 98 99 99 99 97 94 101 100
99 95 92 93 95 93 91 81 91 86 85 84 82 80 81 82
81 86 85 88 87 90 92 95 97 95 101 96 105 107 110 105
97 101 106 104 103 104 104 90 87 102 109 105 99 98 100 96
83 95 106 107 104 107 107 89 68 94 92 88 97 88 43 0
0 0 0 0 0 0 0 0 0 0 0 0 0 0 0 0
31 31 30 23 12 11 11 8 8 7 59 76 34 41 56 57
61 61 66 91 98 98 94 95 98 78 87 94 96 100 94 95
95 93 101 99 99 98 99 98 100 100 99 101 98 95 100 101
99 99 99 94 93 94 93 91 92 90 90 88 92 91 90 88
91 91 90 93 94 95 97 95 94 105 104 96 108 109 110 103
97 101 105 105 104 106 103 88 89 103 110 106 101 98 98 93
81 98 106 107 106 108 107 77 75 96 87 90 100 92 86 20
0 0 0 0 0 0 0 0 0 0 0 0 0 0 0 0
30 29 21 14 10 10 10 9 9 8 46 90 29 41 59 63
61 60 68 92 96 98 94 96 98 76 85 96 96 101 96 94
98 94 100 101 101 99 99 99 100 99 99 100 101 97 100 103
100 98 100 102 95 92 93 96 97 96 96 96 94 93 94 96
94 96 96 97 95 93 94 100 107 108 94 104 109 111 109 104
100 102 106 105 106 105 99 87 90 104 110 107 100 98 97 91
82 100 105 107 107 109 105 69 82 95 84 96 102 96 94 75
6 0 0 0 0 0 0 0 0 0 0 0 0 0 0 0
30 27 15 10 10 10 10 10 9 9 26 95 32 44 66 69
63 63 69 92 94 99 98 96 96 75 84 97 96 103 99 91
100 98 99 101 102 101 101 101 101 99 100 101 98 99 100 101
101 98 100 102 104 101 86 79 90 93 96 98 95 98 96 97
97 95 93 92 90 98 107 110 109 100 96 107 110 110 108 103
100 101 107 106 104 104 97 84 94 108 112 108 101 98 96 88
82 101 105 107 108 108 97 66 88 94 87 101 103 99 96 93
52 0 0 0 0 0 0 0 0 0 0 0 0 0 0 0
31 28 13 10 10 9 9 9 9 10 16 107 41 55 70 69
66 64 69 90 95 99 99 98 97 73 82 95 97 102 103 90
99 99 99 101 103 102 101 101 100 100 101 103 100 101 101 102
101 101 102 103 105 104 104 100 84 80 80 82 83 88 91 91
89 93 97 105 109 109 109 110 104 93 104 109 110 108 105 103
101 102 106 107 105 103 95 84 100 110 112 107 101 96 94 87
84 102 105 105 107 108 87 69 93 85 92 103 104 101 97 99
88 29 0 0 0 0 0 0 0 0 0 0 0 0 0 0
31 27 14 10 10 10 10 10 10 9 8 45 39 66 70 69
67 65 66 89 95 99 101 99 96 71 82 96 97 103 103 89
97 100 100 101 102 102 103 102 102 101 102 100 100 100 102 99
101 102 103 103 104 106 106 104 105 103 102 101 100 96 97 101
104 107 106 110 109 110 110 107 96 99 107 108 110 107 105 105
101 102 107 108 107 101 91 87 104 112 110 107 101 96 95 86
83 102 105 104 107 107 75 74 98 79 98 105 103 104 100 99
95 78 9 0 0 0 0 0 0 0 0 0 0 0 0 0
31 28 14 11 10 10 10 9 9 10 8 4 49 70 70 70
67 68 66 86 94 100 100 99 94 68 80 95 97 103 105 89
94 102 100 101 101 102 103 101 101 102 102 101 101 100 101 101
102 103 103 105 106 106 105 106 105 104 104 104 106 107 107 107
107 107 108 110 109 109 108 100 95 103 108 108 109 106 106 105
102 100 106 108 106 99 85 93 107 110 110 107 102 94 93 85
84 102 104 104 109 103 70 78 98 76 101 104 103 105 101 100
99 92 58 0 0 0 0 0 0 0 0 0 0 0 0 0
24 27 16 11 11 11 11 10 11 16 12 17 67 71 74 71
67 66 66 81 96 99 102 102 92 68 79 94 97 103 105 89
91 101 101 102 102 103 102 102 103 103 103 101 101 101 103 101
102 103 102 104 104 105 106 105 106 105 106 106 106 105 108 109
108 108 108 109 109 110 104 96 98 105 109 110 108 106 105 104
103 101 106 107 106 95 86 99 108 111 109 107 101 96 94 88
85 103 103 101 109 96 68 83 97 75 105 104 104 105 102 103
102 98 89 28 0 0 0 0 0 0 0 0 0 0 0 0
16 19 14 12 12 12 10 9 13 23 21 52 70 73 76 77
69 66 65 76 97 99 103 103 90 67 77 92 97 103 105 88
90 101 102 101 101 102 101 102 103 102 101 102 102 101 103 102
105 105 105 105 107 106 106 105 105 106 106 106 106 107 108 109
109 109 109 110 110 108 100 97 101 108 109 109 107 105 105 105
103 102 106 108 106 89 90 104 108 111 109 107 101 96 94 86
88 103 104 98 107 93 68 86 96 80 105 101 103 102 102 102
103 98 96 78 8 0 0 0 0 0 0 0 0 0 0 0
14 13 8 14 19 20 11 9 15 25 38 67 71 76 77 86
73 66 62 69 98 98 102 103 89 66 76 91 98 101 104 88
86 98 102 101 102 102 102 103 102 102 102 103 102 102 103 103
104 105 104 105 105 105 105 105 107 107 108 107 107 108 109 108
108 108 110 109 106 104 99 99 105 108 111 108 107 105 107 106
105 103 106 109 103 87 95 105 108 110 110 107 101 98 95 87
90 104 101 97 105 91 67 86 88 83 105 98 104 101 101 104
104 100 98 93 54 0 0 0 0 0 0 0 0 0 0 0
16 14 8 17 26 24 12 9 16 27 57 69 74 78 75 89
82 68 62 65 93 99 100 103 88 63 73 90 98 100 103 91
88 98 103 102 102 102 103 102 103 102 103 103 102 102 103 104
104 104 103 104 105 104 106 105 105 105 107 106 106 107 108 109
110 110 110 109 107 102 99 102 107 108 110 107 106 105 107 106
106 104 108 108 98 87 100 106 109 111 109 106 99 98 94 87
92 103 101 95 104 92 68 86 86 85 102 97 105 100 103 104
103 101 100 98 88 27 0 0 0 0 0 0 0 0 0 0
23 18 11 21 28 23 11 9 18 41 66 71 75 83 75 88
90 72 60 60 86 99 99 102 84 62 70 89 99 99 104 92
86 96 102 103 102 103 103 103 103 102 104 103 102 102 103 103
104 105 105 105 107 106 105 105 106 107 107 107 108 108 108 109
109 109 108 107 105 101 99 107 109 109 108 106 107 106 108 107
106 105 107 103 93 92 103 107 110 112 110 106 101 100 94 88
95 105 98 92 101 96 71 85 80 86 100 99 104 103 104 102
102 103 101 99 93 75 5 0 0 0 0 0 0 0 0 0
29 28 22 24 28 22 10 8 22 59 69 74 77 83 78 84
94 80 62 60 79 100 100 100 83 63 68 86 100 101 102 92
84 94 104 103 103 103 103 103 103 103 103 102 103 103 103 104
106 104 105 106 105 105 106 107 106 106 108 107 107 108 110 110
110 109 108 107 105 101 101 108 110 109 109 107 106 107 108 107
105 103 101 95 91 99 106 107 110 111 110 106 100 99 93 87
96 105 95 90 98 97 79 85 77 87 96 102 103 102 104 104
104 103 103 101 97 92 44 0 0 0 0 0 0 0 0 0
28 27 24 22 25 19 9 9 39 66 71 76 78 83 85 79
93 89 68 60 68 99 99 98 81 63 67 84 101 100 105 97
84 91 101 103 103 104 104 102 103 105 103 103 105 104 102 105
104 104 105 105 106 106 104 106 106 108 108 107 108 109 109 111
109 107 106 106 103 101 104 109 111 111 107 106 106 107 107 106
104 101 94 94 96 103 108 108 108 110 108 105 101 98 92 87
96 105 95 90 93 94 87 88 74 86 93 102 102 102 103 103
104 103 103 102 98 97 81 16 0 0 0 0 0 0 0 0
28 27 26 21 25 18 9 15 60 68 73 74 76 83 86 79
87 90 80 60 63 93 99 99 84 61 64 82 99 99 104 100
82 88 101 104 103 103 104 103 103 103 103 103 104 104 104 104
105 104 105 106 106 107 106 107 107 108 107 106 109 109 108 109
108 107 108 106 103 102 105 110 111 109 107 106 106 107 107 104
100 98 92 95 101 105 108 109 109 111 109 105 101 97 93 89
97 105 93 88 91 92 90 92 67 85 90 102 102 102 101 102
104 103 102 102 100 100 90 65 3 0 0 0 0 0 0 0
28 27 26 21 22 16 9 39 66 71 74 79 78 82 93 82
80 90 90 60 58 88 100 100 87 60 62 81 101 99 103 100
81 87 99 103 102 103 102 103 103 103 103 104 103 103 104 105
104 104 103 104 106 105 105 107 106 106 107 107 107 108 108 109
107 106 107 104 101 102 106 109 109 109 107 106 106 108 107 102
95 95 94 102 108 107 107 107 108 109 109 105 103 96 91 89
98 104 91 82 91 91 91 94 62 84 86 99 102 101 100 102
102 102 103 103 102 100 92 86 43 0 0 0 0 0 0 0
28 27 26 24 19 14 14 59 67 72 73 79 78 79 94 86
82 84 93 69 56 79 99 101 85 60 59 82 101 100 103 101
81 83 97 103 103 103 102 103 103 103 103 103 103 103 104 103
104 104 104 104 105 105 105 105 106 106 105 105 107 108 109 108
108 107 107 103 102 105 108 111 109 108 107 105 106 106 105 96
91 98 100 106 108 109 109 107 108 108 108 106 102 96 93 91
97 103 89 80 90 94 91 96 61 82 85 101 101 99 100 102
103 103 102 101 103 101 94 92 81 25 0 0 0 0 0 0
27 27 26 26 21 12 35 65 70 74 74 79 81 83 92 87
86 81 92 80 52 71 98 100 86 61 59 83 100 102 105 100
80 83 96 103 103 103 102 103 102 102 102 104 103 104 104 102
103 104 104 104 105 105 105 105 105 106 108 108 108 108 107 108
108 108 107 102 102 106 108 109 109 108 106 105 106 108 100 91
94 101 106 108 108 109 108 107 108 107 107 105 103 96 93 93
99 103 89 77 90 92 93 97 58 85 85 101 99 99 102 102
103 102 102 102 102 100 97 95 89 69 7 0 0 0 0 0
27 27 27 26 22 15 56 67 72 75 78 79 80 84 93 86
86 85 89 90 51 67 96 100 88 59 59 85 102 102 103 101
83 81 92 102 102 103 103 103 102 103 104 102 102 103 104 102
105 106 105 105 105 105 106 105 106 107 108 107 107 107 108 107
106 106 105 103 102 108 111 109 108 107 105 106 107 105 95 91
100 106 108 108 108 108 107 106 107 106 107 103 102 95 93 94
101 103 88 72 94 95 93 98 58 86 85 100 100 98 99 102
101 102 103 102 102 101 100 97 92 86 54 1 0 0 0 0
