P2
128 120
133
18 20 40 38 30 30 30 30 30 29 29 28 29 28 28 28
28 27 27 26 27 26 26 25 25 24 24 23 24 23 23 23
23 22 22 22 22 22 21 21 22 21 21 20 20 20 19 19
19 18 18 18 18 18 17 17 17 18 21 24 24 23 22 15
12 22 14 16 18 18 17 17 17 15 15 13 14 14 13 11
14 16 18 18 18 18 19 19 19 18 19 19 19 19 19 19
19 19 20 20 20 20 21 20 21 21 22 21 22 21 23 22
22 22 22 22 23 23 23 23 23 23 23 23 23 23 22 23
34 34 35 33 30 30 30 30 30 30 29 29 29 29 28 28
28 27 27 26 26 26 26 25 25 25 25 24 24 24 24 23
22 22 23 22 22 22 21 21 21 21 21 20 21 20 20 19
19 18 19 18 18 18 18 18 18 19 21 24 24 24 22 16
13 23 17 15 18 18 17 17 16 15 17 14 15 15 14 12
15 17 18 18 18 18 19 18 18 18 18 18 18 19 20 20
20 21 20 20 20 20 21 21 22 21 21 21 22 22 23 22
23 23 23 23 23 23 23 22 23 22 24 23 23 23 23 24
28 29 31 32 30 31 30 30 30 30 29 29 28 28 29 28
28 27 27 27 27 26 26 26 25 25 24 24 23 23 23 24
23 23 22 22 22 23 23 23 22 21 21 21 20 19 20 19
19 19 18 18 18 18 18 18 18 19 21 25 24 24 23 16
13 23 19 14 19 18 18 18 17 16 16 14 15 15 14 12
16 17 18 18 18 18 18 18 19 19 19 19 20 19 20 20
20 20 20 21 21 20 21 21 22 21 22 22 22 22 23 22
22 22 23 23 22 24 23 23 23 24 23 23 24 23 22 24
13 16 20 24 28 31 31 31 31 30 30 31 30 29 29 29
29 28 28 27 27 27 27 26 25 26 26 25 25 25 24 24
24 23 23 23 23 22 22 22 22 22 22 21 22 21 20 21
21 20 20 19 19 19 19 19 19 20 21 25 26 24 24 17
14 24 21 14 20 19 19 18 18 17 16 15 17 16 16 12
17 17 19 19 19 19 19 20 20 20 20 20 20 21 21 21
21 22 22 21 22 22 22 22 22 22 23 23 23 23 24 24
24 24 24 24 24 24 24 24 24 24 23 24 24 23 24 25
9 11 11 10 11 13 15 19 24 27 29 31 31 30 29 29
29 29 28 28 28 27 27 27 27 26 26 25 25 25 25 25
24 24 25 24 24 24 24 24 23 22 22 22 22 22 21 21
20 20 20 20 20 20 20 20 20 21 22 26 25 25 24 17
14 25 23 14 21 20 20 19 18 18 20 17 18 17 16 13
17 18 20 20 20 21 21 21 20 21 21 22 22 21 23 21
21 21 22 22 22 22 23 23 23 23 23 23 23 24 25 24
24 24 25 25 25 24 24 25 25 24 25 24 25 25 26 25
11 12 11 10 10 11 10 11 11 10 12 15 19 23 30 30
30 29 29 29 28 28 28 28 27 27 26 26 27 26 26 26
26 25 25 25 24 24 24 24 23 23 23 23 23 23 23 23
22 22 22 21 21 21 21 20 20 21 23 27 26 26 26 18
15 26 26 15 22 21 21 20 19 19 19 17 18 18 17 15
19 20 21 21 21 21 21 21 22 22 21 22 23 22 23 23
23 23 23 23 24 23 24 24 25 24 24 24 25 25 25 25
25 25 26 26 25 26 25 25 25 25 25 26 26 25 26 25
32 26 12 15 11 11 11 12 11 12 7 2 5 14 29 30
30 29 28 28 29 28 27 27 28 27 27 27 27 26 26 26
25 25 26 25 25 24 24 24 24 24 24 23 23 23 22 22
22 22 21 22 21 21 21 21 21 22 23 27 26 26 25 18
15 26 27 14 22 22 21 20 21 19 20 18 18 18 17 15
19 20 21 21 21 21 22 22 22 22 22 22 23 22 23 23
22 23 23 23 23 23 23 23 24 24 25 24 25 25 25 24
25 24 25 25 25 25 26 25 24 24 24 23 23 24 24 25
45 39 18 26 25 22 16 10 9 10 10 9 10 14 29 30
30 29 29 29 27 26 27 27 27 27 27 27 27 26 26 26
26 25 25 25 25 24 25 24 24 24 24 23 23 23 23 22
22 22 22 22 21 21 20 21 20 21 23 26 26 25 25 19
16 26 27 14 22 22 21 20 20 20 20 18 18 18 18 14
20 20 21 21 21 21 22 21 21 21 21 21 21 22 23 23
23 23 23 23 23 23 23 24 24 24 25 25 25 25 25 25
25 24 25 25 25 24 24 24 24 24 25 25 25 25 25 25
45 40 25 31 35 38 33 35 34 27 19 8 9 11 28 29
29 29 28 28 27 32 31 30 29 27 27 26 25 25 26 26
25 25 25 25 25 24 25 26 35 35 31 27 25 23 22 22
22 21 21 21 21 21 20 20 21 22 23 27 26 26 26 18
15 26 27 14 21 22 22 20 20 19 19 18 18 18 18 14
19 19 21 21 21 21 22 22 22 21 22 22 22 23 23 23
22 22 23 22 22 24 24 23 24 24 24 24 24 24 23 23
24 23 24 24 24 24 24 25 24 25 25 25 25 24 24 24
45 40 31 34 37 39 33 41 41 41 38 10 9 15 29 30
29 29 29 28 30 39 37 37 35 32 29 28 26 26 26 25
25 25 25 25 25 24 24 27 37 35 32 31 31 30 25 22
22 22 22 21 21 20 21 21 21 22 23 27 26 26 26 19
16 25 28 15 19 22 21 20 20 19 19 17 18 18 18 15
20 20 22 21 22 22 22 22 21 22 22 22 22 22 23 23
23 23 23 23 23 24 24 23 24 23 24 23 23 23 23 23
24 24 23 23 24 24 24 26 24 24 25 24 24 24 25 25
15 39 33 36 39 39 40 43 43 43 41 12 10 16 31 31
30 29 28 28 31 40 38 37 33 33 33 34 36 29 29 26
26 25 24 24 25 25 25 28 35 34 32 31 31 31 28 22
22 22 21 21 21 21 21 21 21 22 24 27 26 26 26 19
16 25 28 16 18 22 21 21 20 20 20 18 19 18 18 16
20 19 22 22 21 22 22 22 22 22 23 22 23 23 23 23
22 22 22 23 24 23 24 23 23 24 23 24 25 23 24 24
23 23 24 24 24 24 24 26 24 24 24 25 25 24 24 25
9 39 33 36 37 38 40 42 42 43 41 14 10 18 34 32
32 32 30 29 31 39 37 36 34 35 36 38 37 31 33 34
33 29 27 26 25 25 25 27 23 21 24 28 31 32 29 24
22 22 23 22 21 21 21 21 21 22 22 27 27 26 24 16
12 10 27 18 17 22 22 21 21 20 21 18 19 19 18 16
21 20 22 22 22 22 22 23 22 22 22 22 21 21 22 22
22 23 24 23 24 24 25 24 23 24 23 24 24 24 23 24
23 23 24 24 24 23 24 26 24 25 25 24 24 24 24 24
11 38 24 30 33 36 41 41 41 41 39 14 10 19 35 33
30 32 33 34 34 18 8 17 29 34 37 38 37 25 9 16
23 29 32 29 32 31 28 27 18 9 8 7 9 12 22 23
22 22 21 21 21 21 21 22 21 22 23 27 28 26 21 11
13 14 26 19 15 22 21 21 21 20 22 18 19 19 19 15
20 19 22 22 22 22 22 22 22 22 22 22 22 22 22 23
23 23 23 23 23 23 24 23 23 24 23 23 24 24 23 23
23 23 24 24 23 23 24 25 24 24 24 24 25 23 23 23
14 38 6 0 4 8 19 27 30 34 39 15 11 18 34 33
27 24 29 36 40 16 0 0 5 12 14 16 26 22 0 0
0 1 6 11 18 25 28 27 17 3 2 5 5 0 11 24
22 22 22 21 21 21 21 21 21 22 23 27 27 26 25 19
15 25 28 21 13 22 22 20 19 19 21 18 19 19 19 16
20 19 21 21 22 22 21 22 22 22 22 21 21 22 21 22
23 22 23 24 23 23 25 23 23 23 23 23 23 23 23 22
23 23 23 24 23 24 24 25 25 24 24 24 23 24 22 24
12 38 4 0 0 1 0 0 1 1 35 16 11 12 20 28
33 35 35 38 41 17 0 0 1 5 8 8 19 23 0 0
0 0 0 0 0 0 4 28 16 1 1 0 3 0 12 25
22 22 22 21 22 22 22 22 22 22 24 28 28 28 26 19
17 27 28 22 13 22 22 21 20 20 21 19 20 19 19 16
20 18 21 21 22 22 22 23 22 22 23 22 23 23 23 23
23 22 23 23 22 22 24 23 23 23 24 23 23 24 24 24
24 24 24 24 24 23 23 25 24 24 24 24 23 24 24 24
13 39 2 0 0 0 0 0 0 0 34 14 10 6 0 0
3 9 18 27 35 18 0 0 0 1 3 2 18 24 0 0
0 0 0 0 0 0 1 29 12 0 0 0 1 0 13 26
23 22 22 22 22 22 23 22 22 23 24 28 27 27 26 19
17 26 28 24 12 22 23 22 21 21 21 19 20 19 19 16
21 19 23 23 22 22 22 23 22 23 22 23 22 22 23 23
22 23 23 24 23 23 23 25 23 24 23 23 23 23 24 23
24 24 23 23 24 24 24 24 25 24 23 23 23 24 23 23
14 38 2 0 0 7 3 0 0 0 36 15 11 5 0 0
0 0 0 0 2 15 0 0 0 0 0 1 13 22 0 0
0 0 0 0 0 0 1 29 7 0 0 0 0 0 14 27
23 22 22 22 22 22 22 22 23 23 24 28 28 28 27 20
17 26 28 24 13 21 23 22 21 21 22 19 20 20 18 16
21 19 23 23 22 22 22 23 23 22 23 23 23 23 23 23
23 23 23 22 23 23 23 24 24 24 24 23 24 24 24 24
24 24 24 24 24 23 23 25 24 24 23 23 24 24 24 25
14 37 1 0 0 7 8 0 0 0 36 14 12 5 0 0
0 0 0 0 0 13 0 0 0 0 0 0 17 22 0 0
0 0 5 2 0 0 0 28 6 0 0 0 0 0 14 27
23 23 23 22 22 22 22 22 22 23 23 28 28 27 26 20
18 27 28 24 14 20 23 22 21 20 21 19 20 19 19 15
21 19 23 22 23 22 23 23 23 23 23 22 22 22 22 23
23 22 24 23 24 23 24 24 24 24 23 23 23 23 23 23
23 24 24 24 24 24 24 24 24 24 24 24 24 24 24 24
14 37 1 0 0 1 14 0 0 0 36 13 11 5 0 0
0 0 0 0 0 11 0 0 0 0 0 0 20 25 0 0
0 0 7 7 3 0 0 28 6 0 0 0 0 0 11 28
22 22 22 22 22 22 22 22 22 23 24 28 29 28 27 19
18 27 28 25 16 18 23 22 22 20 21 19 20 19 20 16
21 19 23 23 22 23 23 23 22 23 23 22 23 23 23 23
23 23 23 23 24 23 24 23 23 24 24 24 24 25 25 24
25 24 25 24 24 24 24 24 22 24 24 24 25 24 25 24
15 34 0 0 0 0 1 0 0 0 36 12 10 4 0 0
0 7 2 0 0 9 0 0 0 0 0 0 17 26 0 0
0 0 8 8 8 5 0 27 6 0 0 0 0 0 10 28
23 23 23 23 22 22 22 22 22 24 24 28 28 27 27 19
17 26 29 26 18 16 24 23 22 20 21 19 19 19 18 15
21 19 23 23 23 22 23 23 22 23 22 23 23 22 23 23
23 23 23 24 24 24 25 24 24 24 24 25 24 24 25 24
24 24 23 23 23 23 23 24 25 25 25 25 25 25 24 24
16 32 0 0 2 0 0 0 0 1 36 12 11 5 0 5
1 2 1 0 0 8 0 0 0 0 0 0 18 27 0 0
0 0 7 7 7 6 0 26 8 0 0 0 0 0 9 30
22 23 23 22 22 22 22 22 23 24 24 29 29 28 27 19
18 27 29 26 19 14 22 23 21 20 21 19 21 20 20 17
22 20 24 23 23 23 23 23 23 23 23 22 23 23 23 24
24 23 24 24 25 24 24 25 25 25 24 24 25 25 25 24
24 25 25 24 25 24 25 24 25 24 24 24 24 24 23 24
25 33 0 0 1 0 0 0 0 2 36 12 12 5 3 3
0 2 0 0 0 9 0 0 0 0 0 6 19 29 0 0
0 0 1 5 8 5 0 25 25 16 9 4 1 0 8 30
22 22 22 23 22 22 22 22 22 24 24 29 29 28 27 19
18 27 29 26 21 13 22 23 22 20 21 19 20 20 19 17
22 20 23 23 23 22 23 24 23 23 23 23 24 23 24 24
24 24 24 24 24 24 24 24 24 24 24 24 25 24 24 24
24 24 23 24 24 24 24 25 25 24 25 25 25 24 23 24
32 45 35 16 18 22 19 16 13 13 34 12 11 5 1 0
0 0 0 0 0 18 5 2 2 0 0 2 21 38 23 17
11 7 1 0 1 2 0 24 34 32 31 31 29 30 32 30
23 23 22 23 22 23 22 22 24 24 26 29 29 29 26 22
20 27 28 26 21 13 22 22 22 20 21 20 21 21 20 18
22 20 24 23 23 23 23 22 23 23 23 23 23 24 24 24
24 24 24 24 24 25 24 24 24 24 24 25 25 25 24 26
25 25 25 25 24 24 25 25 25 24 25 24 24 24 25 23
44 55 45 23 30 35 41 39 38 36 31 11 11 5 0 0
0 0 0 0 1 37 40 30 27 24 19 11 23 41 19 21
25 27 27 23 19 16 14 31 34 33 32 31 34 36 37 29
22 23 23 23 24 24 23 24 25 26 26 30 29 28 24 21
20 28 28 27 23 14 21 23 23 21 21 19 20 20 19 17
21 19 24 23 23 22 23 22 24 24 24 24 24 23 24 24
24 24 24 25 24 24 24 24 24 24 25 24 25 24 24 25
24 25 25 25 25 25 25 25 25 24 25 25 24 24 24 24
52 54 38 23 30 37 41 40 44 42 34 11 11 5 0 0
0 0 0 0 1 39 40 31 37 38 43 40 41 37 9 9
9 9 10 11 12 17 23 29 21 22 27 29 32 34 36 31
23 23 22 26 31 30 30 32 34 33 32 38 31 26 23 20
22 28 28 26 22 14 18 23 22 21 22 19 20 21 20 17
23 19 24 23 23 23 23 23 24 23 23 23 24 23 24 25
24 25 24 24 24 24 24 24 24 24 24 25 25 24 24 25
24 24 24 24 23 25 23 22 22 21 22 23 21 24 22 25
50 49 26 22 33 41 42 41 44 43 34 11 12 13 11 7
2 0 0 0 2 40 31 34 40 41 45 41 32 26 8 9
8 8 7 6 5 5 4 4 4 7 11 15 23 20 18 22
22 25 28 30 25 20 23 26 32 33 34 42 47 38 28 22
24 27 28 26 23 17 17 23 22 21 22 19 20 20 19 16
22 19 24 23 23 23 23 24 24 24 24 24 23 23 24 24
24 24 24 23 23 24 24 23 24 24 24 24 24 24 23 24
23 23 22 22 22 24 23 24 23 21 20 17 15 13 11 8
49 45 13 0 2 6 9 12 15 24 34 12 12 21 39 41
37 30 23 17 16 36 25 34 39 40 44 43 36 29 12 11
10 7 6 5 5 4 4 3 4 5 7 12 24 22 23 24
29 27 25 21 17 16 14 14 16 17 22 24 29 42 48 51
48 39 33 27 23 18 15 23 22 22 22 19 20 20 20 17
22 20 25 24 23 24 23 23 23 23 24 23 22 22 23 24
23 23 24 24 24 25 24 25 24 24 25 25 25 25 25 24
22 22 25 19 15 13 11 9 7 6 6 6 6 6 7 7
49 46 12 0 0 0 0 0 0 6 34 11 12 22 40 42
41 40 40 40 42 36 12 21 29 33 39 39 35 31 15 11
8 6 4 4 5 5 5 6 7 8 12 14 19 16 28 34
32 27 27 20 18 16 16 14 15 15 16 17 17 17 25 35
41 49 47 45 32 21 14 23 22 21 22 20 20 19 19 17
22 19 24 23 23 23 23 23 23 23 24 24 23 23 22 24
24 24 24 25 25 26 25 25 24 22 20 17 15 12 12 10
8 8 23 17 3 6 8 8 9 10 11 11 12 12 13 12
48 46 9 0 0 0 0 0 0 5 34 13 11 20 39 43
42 41 42 41 43 30 0 0 0 2 6 12 15 32 15 9
7 1 0 0 0 6 8 7 4 9 13 10 21 31 36 39
31 27 21 15 18 15 13 13 14 15 16 20 20 25 25 22
29 40 47 48 53 34 20 20 21 21 19 19 20 20 19 18
22 19 24 24 24 22 22 22 21 20 20 22 23 24 25 25
24 23 21 20 17 15 13 11 10 9 8 9 8 9 10 11
10 10 16 13 6 11 13 14 14 15 16 16 16 16 18 18
44 42 7 0 0 0 0 20 20 18 29 21 16 20 31 33
34 35 37 39 42 26 0 0 0 0 0 3 10 33 13 7
5 0 0 0 0 0 2 1 0 6 7 9 20 21 25 23
24 24 21 17 14 13 13 11 14 17 16 15 20 21 28 31
34 31 46 52 53 52 37 17 16 17 19 19 19 19 19 17
20 18 20 20 20 20 20 20 21 19 9 19 19 17 14 13
11 11 9 10 9 10 10 11 11 12 13 14 15 14 15 16
16 16 20 17 9 15 18 19 19 19 20 20 20 21 21 20
41 40 5 0 0 0 1 21 22 18 22 21 17 19 20 22
26 29 27 30 38 23 0 0 0 0 0 0 6 36 13 7
4 1 0 0 1 0 0 0 0 8 10 15 14 21 26 28
29 26 24 24 20 19 16 14 11 15 24 31 27 26 25 31
35 34 37 46 56 58 55 36 13 9 10 12 13 15 16 17
19 20 21 21 20 19 17 14 13 11 6 9 10 10 10 12
12 13 14 15 15 16 16 17 17 18 19 19 19 19 20 21
20 19 20 17 12 20 21 21 21 21 22 22 22 22 23 23
41 39 3 0 0 0 0 16 20 20 22 19 16 18 16 17
21 26 24 29 38 22 0 0 0 0 0 0 2 35 5 2
0 0 0 1 6 2 0 0 11 16 19 16 22 30 30 34
28 24 22 24 23 17 20 16 18 21 18 21 27 31 27 29
30 35 42 43 46 52 58 49 28 13 12 10 10 10 8 9
13 12 12 10 10 10 11 12 12 12 13 13 15 15 16 18
18 18 20 19 20 20 21 21 21 21 22 22 22 22 22 22
21 19 4 2 10 22 23 22 23 23 23 23 24 24 24 24
43 39 3 0 0 0 0 0 0 2 17 13 13 16 16 21
27 29 29 35 38 21 0 0 0 0 0 0 5 36 2 0
0 0 0 0 3 9 3 2 16 25 23 19 21 30 34 33
28 26 26 22 17 15 15 15 14 16 21 20 23 28 35 38
43 44 45 45 48 46 55 53 39 21 15 13 12 12 11 8
11 8 11 13 14 14 15 15 17 17 18 17 20 21 21 22
22 22 22 22 23 24 23 23 23 23 23 23 23 23 24 23
22 18 0 0 6 22 24 25 25 24 24 24 24 24 24 24
44 38 1 0 0 0 0 0 0 3 23 15 16 12 0 1
3 7 11 16 21 19 0 0 0 0 0 0 7 35 2 0
0 0 0 1 4 11 3 11 29 32 22 25 31 33 34 32
35 28 26 21 16 17 14 14 18 20 19 24 30 31 35 38
41 49 51 45 41 54 54 41 37 27 18 16 14 14 13 10
13 10 15 18 19 19 19 20 21 21 22 21 22 22 22 22
23 23 24 24 24 24 24 24 24 24 24 24 23 11 8 4
11 13 3 1 6 22 24 25 26 25 24 24 24 25 24 25
45 38 1 0 0 3 2 0 0 3 28 21 20 14 0 0
0 0 0 0 0 15 0 0 0 0 0 0 7 34 1 0
0 0 0 10 14 4 1 20 37 28 18 26 28 35 35 28
24 28 28 23 23 17 15 16 19 21 23 22 25 35 43 41
38 42 49 52 48 44 61 48 30 23 19 18 20 19 17 14
16 13 20 21 22 22 22 23 22 21 23 23 23 23 24 24
24 24 25 25 25 25 26 26 25 24 25 25 21 3 3 7
13 15 0 0 6 22 24 25 26 24 24 24 24 24 25 25
44 37 1 0 0 2 4 0 0 3 34 23 19 14 0 0
0 0 0 0 0 13 0 0 1 5 1 0 7 32 0 0
0 0 1 10 17 9 13 33 40 27 26 28 38 36 30 28
27 21 18 16 17 18 20 22 22 24 28 30 34 38 41 48
44 44 45 55 55 48 46 52 37 24 17 18 21 20 20 17
19 14 21 21 23 23 23 23 22 23 24 24 25 25 25 26
26 25 25 25 25 25 25 25 25 25 25 26 25 23 23 24
23 18 0 0 5 21 24 24 25 24 24 25 24 24 24 24
35 33 9 0 0 2 10 3 1 2 34 23 19 15 0 0
0 3 0 0 0 13 0 0 9 13 4 0 8 31 0 0
0 2 3 3 12 11 22 43 35 22 26 37 36 31 36 33
24 20 19 20 22 24 22 25 30 31 34 31 36 37 43 48
50 54 57 41 54 58 41 35 39 27 19 14 20 19 19 17
18 18 23 23 23 24 23 23 23 24 24 24 25 24 24 24
25 25 25 25 25 26 26 26 26 26 25 25 25 25 24 22
22 18 3 0 7 21 24 24 25 23 24 24 24 24 24 24
35 33 29 28 24 17 25 21 14 13 37 20 17 13 0 0
4 14 2 0 0 14 0 1 11 11 9 0 8 29 0 1
0 0 1 1 5 19 40 51 30 27 36 37 36 45 41 37
38 31 24 24 24 22 28 31 35 37 41 46 39 45 50 51
56 53 58 47 40 54 55 34 23 27 13 13 18 19 20 18
19 19 23 24 24 24 24 23 23 25 25 25 25 25 25 25
25 25 25 25 25 25 26 25 25 25 25 26 25 25 24 23
22 20 6 0 11 22 24 24 25 24 24 24 24 24 24 24
37 34 21 19 20 28 34 39 41 40 39 24 15 13 0 1
11 18 5 2 0 26 23 22 26 22 21 14 17 29 0 0
0 0 0 1 7 28 56 54 47 53 66 67 64 64 65 65
65 62 53 42 36 32 30 35 39 43 49 51 49 42 48 59
56 60 56 53 40 30 45 39 23 17 16 10 15 19 20 18
20 20 24 24 24 24 23 24 24 25 24 25 24 24 25 25
25 25 25 25 25 25 26 25 26 26 25 25 25 24 24 23
21 17 13 6 17 22 24 24 26 24 24 24 23 24 23 23
37 33 13 0 0 0 4 10 26 41 40 23 15 13 0 0
2 3 0 0 0 29 33 35 39 37 37 41 43 32 1 0
2 0 0 2 14 52 72 72 80 88 96 99 99 103 104 106
109 111 107 100 82 58 44 43 55 57 58 52 62 52 48 53
60 51 59 49 43 32 17 26 26 17 15 9 9 16 19 17
20 19 23 24 23 23 23 24 24 24 24 24 24 24 24 24
24 25 25 24 24 24 25 25 24 24 25 24 24 24 23 22
21 17 15 15 20 23 23 23 24 23 23 24 22 23 23 23
39 36 12 0 0 5 19 3 23 40 37 21 16 17 7 1
1 0 0 0 0 28 35 37 37 36 38 43 45 39 21 19
20 12 5 6 40 71 83 90 96 99 106 109 114 119 119 120
121 121 121 120 118 107 82 53 57 72 73 54 53 57 57 55
53 54 48 48 34 32 27 18 18 15 12 10 6 12 19 18
19 19 24 24 23 23 23 24 23 23 24 24 23 23 23 23
24 23 24 24 24 25 25 25 25 24 24 24 24 23 23 22
21 18 17 19 23 23 23 23 24 24 24 24 23 23 23 23
40 36 11 0 0 5 29 17 31 38 32 18 18 19 15 0
0 0 0 0 0 26 30 33 34 34 36 41 41 39 27 28
28 24 6 18 65 77 85 93 98 102 105 113 118 121 122 122
123 122 122 122 122 119 117 103 75 58 73 71 63 61 48 57
52 42 39 35 30 21 22 16 16 10 10 10 7 10 19 18
20 21 23 23 23 22 23 24 23 23 24 24 23 23 24 23
24 24 24 24 24 23 24 24 24 24 24 24 24 24 23 22
22 20 20 22 24 24 24 24 24 23 23 23 24 23 23 24
43 38 11 0 0 0 13 19 32 39 27 18 19 19 5 0
0 0 0 0 0 29 30 31 31 31 31 27 23 25 28 29
31 23 6 36 74 79 89 96 99 104 109 116 120 122 123 122
122 122 123 122 123 122 122 119 116 94 66 63 65 61 56 45
45 38 35 28 24 22 13 13 12 8 6 7 10 8 17 17
20 19 23 22 23 23 23 24 24 23 23 24 23 24 23 24
24 24 24 25 24 24 24 24 24 24 25 25 23 22 22 22
22 21 22 23 23 23 24 23 24 24 23 24 23 23 23 23
43 39 14 0 0 0 0 4 33 40 27 21 20 19 8 3
2 1 0 0 0 30 30 29 29 29 29 29 28 30 32 31
32 24 6 52 77 83 91 96 100 108 113 121 123 123 123 123
123 122 123 122 122 123 122 121 121 119 110 83 64 58 53 55
41 35 34 31 22 18 15 11 10 8 4 5 8 9 15 20
21 20 23 22 23 24 23 23 23 23 23 23 24 24 24 24
24 24 24 23 23 24 24 24 25 24 24 23 22 23 23 23
21 21 22 23 22 22 23 22 24 23 23 23 23 22 22 22
43 40 13 0 0 0 0 0 28 40 26 19 18 20 33 35
33 29 29 28 24 37 34 30 30 29 30 30 32 35 34 32
34 31 11 62 80 86 93 99 103 111 118 122 123 123 123 123
123 122 123 123 122 122 122 122 122 122 120 109 86 52 44 37
42 31 27 23 22 16 14 12 6 8 4 3 5 4 14 19
20 20 23 22 23 23 23 24 23 23 23 23 24 23 23 23
23 23 23 23 23 24 24 24 23 23 23 24 23 23 22 22
21 22 23 23 23 22 24 24 24 24 23 23 23 22 22 22
43 39 10 0 0 0 0 1 31 42 27 20 21 22 43 46
46 44 45 46 45 45 37 33 31 32 31 33 37 39 38 33
35 34 22 72 84 90 97 102 105 113 121 123 124 124 123 123
123 123 123 123 122 123 122 122 122 122 122 121 109 82 39 35
28 35 26 23 17 15 12 10 7 5 6 3 1 3 11 19
21 21 23 23 23 22 22 22 22 22 23 23 23 23 24 24
24 24 24 23 24 23 24 23 23 24 24 24 23 24 24 24
23 23 24 24 24 23 23 24 23 23 23 23 23 23 22 22
43 39 7 0 0 0 0 1 30 42 27 17 21 22 43 46
46 46 47 47 47 47 33 19 21 16 17 20 27 36 38 33
32 24 25 74 86 91 99 104 106 112 122 124 124 124 124 123
124 123 124 122 123 124 123 123 123 123 123 122 117 97 63 31
29 28 29 24 15 16 12 10 8 5 4 4 1 2 7 19
20 20 23 22 23 23 24 23 24 24 24 24 25 24 25 24
23 23 23 24 24 24 24 24 24 24 24 24 23 23 23 23
23 24 24 24 23 23 23 24 23 24 23 23 24 23 23 23
43 39 7 0 0 0 0 0 29 38 23 17 22 18 23 26
26 27 28 30 31 34 24 0 1 0 0 0 1 16 39 34
17 2 19 77 86 90 97 104 108 111 123 124 124 124 124 124
124 123 123 124 124 124 123 123 124 123 123 123 121 103 78 55
27 24 21 21 19 12 14 10 6 3 3 2 2 1 7 18
20 20 24 24 24 24 24 24 24 24 24 24 24 25 25 25
24 24 24 24 23 24 24 23 23 24 23 23 23 23 23 24
24 24 24 24 23 24 23 22 24 23 23 23 23 23 23 23
43 40 7 0 0 0 0 0 28 39 23 17 21 18 27 29
28 27 26 25 24 26 20 3 0 0 0 0 2 14 38 26
3 0 17 77 83 91 98 103 108 114 123 124 125 124 124 124
124 124 124 124 124 124 123 123 123 123 123 123 123 118 86 65
49 23 19 17 13 13 12 13 8 5 3 2 3 1 5 19
20 20 23 23 23 24 24 24 24 24 25 25 24 25 24 24
23 24 23 23 23 23 23 24 24 24 23 23 23 23 22 23
23 24 24 23 23 23 23 24 23 24 24 23 23 23 23 23
44 41 9 0 0 0 0 0 32 43 26 17 21 20 31 33
34 33 33 32 31 32 21 2 1 0 0 0 7 22 38 18
0 0 17 79 86 91 97 102 105 111 121 124 125 125 125 125
125 125 124 124 124 124 123 123 124 124 124 123 124 122 112 72
48 39 23 14 22 14 10 9 10 5 2 2 2 3 3 18
21 22 24 24 24 24 24 24 24 25 25 24 24 24 22 22
21 21 20 20 21 23 24 24 24 19 10 10 8 7 5 7
17 24 25 24 24 24 24 24 24 23 24 23 23 22 23 23
33 24 6 2 0 0 0 0 34 42 24 15 21 19 33 35
35 34 34 35 35 36 24 3 2 0 0 0 1 12 35 10
0 0 23 81 88 91 96 103 106 110 120 123 125 125 125 124
125 124 125 125 124 124 124 124 124 124 124 124 123 123 120 99
60 32 26 21 14 18 14 10 7 10 2 1 5 3 2 17
23 22 23 23 23 24 24 24 24 25 24 15 9 7 6 5
3 2 1 1 4 16 24 24 24 19 1 0 0 0 0 1
16 25 25 24 24 24 24 24 24 24 24 23 24 23 23 23
37 33 35 34 29 28 22 19 35 36 23 19 23 21 20 23
25 27 28 30 34 38 24 0 0 0 0 5 5 9 34 8
0 0 29 84 90 93 96 101 104 109 118 123 125 125 126 125
124 124 125 125 125 124 124 124 124 124 124 124 124 124 123 112
87 59 37 26 19 12 14 14 8 8 5 1 1 5 4 19
22 22 24 24 24 24 24 24 24 24 24 7 0 1 5 3
1 0 0 0 0 13 23 23 23 18 1 0 0 1 0 0
17 25 25 25 25 24 24 25 23 23 23 23 23 23 23 23
37 37 36 36 36 36 36 35 35 35 34 33 33 31 28 26
24 22 4 1 11 37 31 6 0 0 0 1 2 7 35 6
0 0 38 85 94 95 98 100 104 108 116 123 125 125 125 125
125 124 123 125 124 124 124 125 125 124 124 124 123 124 124 121
101 71 45 30 26 21 16 32 75 75 30 2 1 2 4 18
21 22 23 23 24 24 24 25 24 24 23 8 0 0 3 2
1 0 0 0 0 10 23 23 23 16 1 1 1 0 0 0
16 24 25 24 25 24 24 24 23 23 24 24 23 23 24 23
36 36 36 35 35 35 34 34 34 34 34 33 33 33 33 33
32 31 8 0 6 35 33 9 0 0 0 5 5 6 34 6
0 0 45 87 94 94 97 100 100 105 111 120 116 103 98 100
102 102 88 84 105 120 125 125 125 124 124 124 123 124 124 122
113 95 63 38 28 27 53 117 123 123 116 35 3 0 5 18
21 22 24 23 24 24 24 24 24 24 23 7 0 0 4 3
1 0 0 0 0 11 23 23 24 17 1 0 0 0 0 0
13 26 25 24 25 25 24 24 24 23 23 23 23 23 22 22
36 35 35 35 34 34 34 34 33 33 34 32 33 33 33 32
32 31 11 0 3 32 29 0 0 0 0 0 0 7 34 6
0 0 43 84 94 94 94 96 98 100 98 73 54 45 43 46
59 83 109 85 61 86 118 125 125 125 125 124 124 124 124 120
82 54 38 18 16 34 96 110 96 83 99 96 5 1 4 18
20 22 23 23 23 24 24 24 25 24 24 9 0 0 5 4
2 0 0 0 0 10 23 23 24 17 1 1 1 1 1 1
12 24 24 23 22 23 22 22 21 21 23 23 23 23 22 23
22 22 22 21 21 21 21 21 22 22 22 23 23 23 25 27
30 31 13 0 2 26 24 0 0 0 0 0 0 5 34 11
14 22 46 64 66 82 91 91 92 86 53 32 29 43 62 91
113 125 126 110 91 67 86 110 126 124 125 125 118 85 50 16
22 38 46 57 33 73 98 86 112 118 74 113 27 1 6 19
18 21 23 24 23 24 24 24 24 24 23 9 0 0 3 3
1 0 0 0 0 11 23 23 23 19 8 7 7 7 8 7
12 22 24 24 24 25 24 24 24 21 23 23 23 23 23 23
0 0 0 0 0 0 0 0 0 0 0 0 0 0 2 24
31 30 15 0 1 24 21 0 0 0 0 1 3 5 23 20
23 14 11 20 36 44 64 92 89 63 43 48 57 72 86 100
110 120 122 122 95 108 103 75 84 105 80 43 14 33 70 103
113 101 77 62 80 99 105 94 115 124 87 111 47 1 10 20
19 20 22 23 23 24 23 23 23 24 23 9 0 0 1 0
0 0 0 0 0 10 22 24 24 20 3 3 3 2 3 3
9 22 24 25 24 24 24 24 24 23 23 22 23 24 23 22
0 0 0 0 0 0 0 0 0 0 0 0 0 0 1 29
34 31 19 0 0 20 29 20 17 14 14 19 22 16 21 20
22 21 25 43 36 40 48 66 86 59 65 73 75 72 66 63
76 82 89 100 84 102 113 46 53 57 51 72 110 125 125 124
122 114 103 101 113 113 121 116 120 124 107 105 44 1 16 20
19 21 23 24 24 24 24 25 25 24 23 9 0 0 0 0
0 0 0 0 0 10 23 24 23 20 2 2 1 1 1 5
9 23 24 24 23 24 24 24 24 23 23 23 22 22 21 22
0 0 0 0 0 0 0 0 0 0 0 0 0 0 0 27
34 30 20 0 0 16 34 35 31 29 31 30 27 23 26 26
25 24 29 64 61 53 55 50 57 62 84 87 77 69 38 18
22 27 35 39 51 84 68 44 54 74 123 126 125 124 124 124
124 123 113 114 117 120 80 87 112 124 121 113 27 1 16 21
19 21 22 23 23 24 24 24 25 24 23 10 0 0 0 0
1 0 0 0 0 10 22 24 23 19 3 1 0 0 0 1
0 2 17 24 24 24 24 24 24 24 23 23 23 23 23 23
0 0 0 0 0 0 0 0 0 0 0 0 0 0 0 25
35 31 23 0 0 15 35 33 27 29 31 30 26 23 25 14
28 19 12 41 38 39 43 45 66 74 89 90 83 72 36 24
10 36 49 51 55 70 99 86 68 121 126 125 125 124 124 124
124 122 116 119 123 122 111 74 75 112 123 115 13 3 17 19
19 22 22 23 23 23 24 24 25 24 21 9 0 0 0 1
3 0 0 0 0 10 23 24 24 20 2 1 5 0 0 0
5 3 12 24 23 23 24 23 24 23 23 23 23 23 23 22
0 0 0 0 0 0 0 0 0 0 0 0 0 0 0 24
36 29 24 0 0 12 34 24 24 23 26 30 28 23 26 21
36 10 1 15 3 14 49 41 71 81 81 86 98 107 64 53
64 85 80 72 81 74 95 58 102 126 126 125 125 125 125 125
125 123 121 120 123 117 118 117 84 104 124 99 4 6 17 19
19 20 21 22 22 24 24 25 25 22 20 11 0 0 0 0
0 0 0 0 0 9 23 23 23 20 2 1 4 0 0 0
0 2 12 24 23 24 23 23 23 23 23 23 23 22 23 23
0 0 0 0 0 0 0 0 0 0 0 0 0 0 0 22
37 30 25 1 1 14 34 14 16 19 20 24 23 21 25 22
35 20 21 25 19 10 57 45 97 104 75 76 93 109 86 74
86 92 85 89 107 65 56 56 128 126 125 125 124 125 124 124
124 123 119 118 121 116 105 118 98 108 124 74 1 13 19 19
18 19 20 21 22 24 24 24 25 22 20 10 0 0 0 0
0 0 0 0 0 10 23 24 24 21 2 1 1 5 8 8
0 0 12 24 23 23 24 23 23 23 23 23 23 23 23 22
0 0 0 0 0 0 0 0 0 0 0 0 0 0 0 19
37 30 26 11 19 26 34 4 0 0 1 1 3 5 25 24
18 17 6 35 47 50 58 52 116 124 87 76 89 108 106 95
91 87 84 96 119 69 70 107 126 125 125 125 125 125 125 125
124 124 123 121 122 123 115 98 89 120 123 43 9 28 31 28
25 23 20 20 21 23 24 24 24 22 20 11 0 0 0 0
0 0 0 0 0 8 22 23 24 20 1 0 0 1 1 2
0 0 12 20 11 10 19 23 23 22 22 23 23 23 22 23
0 0 0 0 0 0 0 0 0 0 0 0 0 0 0 17
38 30 29 34 38 39 38 5 0 0 0 0 0 4 23 26
22 14 17 41 57 55 54 74 123 127 112 86 88 105 102 96
94 93 91 102 121 64 67 125 126 125 125 125 125 125 124 124
124 124 124 123 124 123 115 105 118 124 118 22 29 33 31 31
29 27 22 19 21 23 24 24 24 21 20 11 0 0 0 0
0 0 0 0 0 9 23 23 24 21 3 0 13 33 10 0
0 0 2 6 14 13 2 20 23 23 23 23 23 23 23 22
0 0 0 0 0 0 0 0 0 0 0 0 0 0 0 15
37 31 29 35 39 42 40 7 0 0 0 0 0 1 25 35
25 27 24 53 68 65 66 98 125 128 126 101 82 101 106 94
94 97 103 105 118 66 88 127 126 126 126 126 126 126 124 125
125 125 125 124 123 100 107 124 124 124 96 18 35 35 32 31
30 28 23 17 21 23 24 24 24 22 20 12 0 0 0 0
0 0 0 0 0 9 23 23 24 21 4 1 31 46 30 0
0 1 19 24 24 22 12 11 23 23 23 23 23 23 23 22
0 0 0 0 0 0 0 0 0 0 0 0 0 0 0 13
37 30 29 36 38 38 35 8 0 0 0 0 0 0 27 29
29 30 21 60 71 76 83 110 124 127 127 124 92 94 110 100
98 102 108 109 105 72 118 125 127 126 127 125 125 124 123 124
125 124 125 124 123 117 124 124 125 122 50 17 49 35 30 30
29 28 24 15 20 22 24 25 25 23 21 12 0 0 0 0
0 0 0 0 0 9 24 24 25 23 19 13 18 5 16 0
0 3 25 24 24 23 20 6 25 24 24 23 23 23 23 23
0 0 0 0 0 0 0 0 0 0 0 0 0 0 0 12
38 31 28 17 13 13 11 0 0 0 0 0 0 2 31 17
43 33 18 67 77 80 94 116 126 127 127 128 116 96 96 107
106 101 102 91 88 115 125 126 127 126 126 126 126 125 124 125
124 124 125 124 124 124 124 124 123 91 19 45 42 40 33 31
29 28 25 13 20 22 24 24 24 23 21 13 0 0 0 0
0 0 0 0 0 9 22 22 24 23 24 17 0 0 1 0
0 3 25 25 25 24 21 5 24 22 22 22 23 23 23 23
0 0 0 0 0 0 0 0 0 0 0 0 0 0 0 9
37 30 27 16 10 12 9 0 0 0 0 0 0 2 31 22
38 32 31 75 86 87 104 123 127 128 127 127 125 106 101 84
79 78 86 106 122 126 126 127 126 126 126 125 125 124 123 124
125 124 124 124 124 124 124 124 117 59 18 46 50 41 38 30
29 28 26 12 18 20 22 23 23 22 21 13 0 0 0 0
0 0 0 0 0 8 23 24 26 22 5 8 0 0 0 0
0 1 23 25 24 24 19 8 24 24 24 24 23 23 23 22
0 0 0 0 0 0 0 0 0 0 0 0 0 0 0 8
35 30 26 18 12 13 10 0 0 0 0 0 0 1 30 25
29 33 39 63 63 80 109 126 127 127 127 127 127 116 107 106
108 117 123 125 126 125 125 126 126 125 126 125 126 125 124 125
124 125 124 122 115 118 124 116 91 39 47 48 46 31 40 33
30 27 26 13 17 20 22 22 23 22 21 14 0 0 0 0
0 0 0 0 0 10 22 23 23 18 14 35 16 0 0 0
0 1 23 23 23 23 10 14 23 22 22 22 22 22 22 21
0 0 0 0 0 0 0 0 0 0 0 0 0 0 0 7
35 29 26 19 15 15 10 0 0 0 0 1 0 0 28 24
33 34 47 74 83 76 98 115 99 65 77 122 127 110 98 100
102 115 123 125 126 126 126 126 124 125 125 125 125 120 119 124
124 124 123 120 97 92 107 94 81 31 54 50 36 32 29 32
29 27 26 15 14 19 21 22 23 22 20 17 12 10 6 4
4 1 0 0 5 12 18 18 18 13 20 28 20 0 0 0
0 0 16 17 19 15 4 20 19 19 23 22 22 22 21 21
0 0 0 0 0 0 0 0 0 0 0 0 0 0 0 5
34 29 25 20 17 17 10 0 3 0 0 5 6 0 27 25
34 35 54 86 90 83 70 93 108 87 50 86 119 92 98 94
93 101 111 118 122 124 124 124 125 125 124 125 125 124 124 124
124 124 123 118 106 117 110 91 76 25 44 48 30 33 27 35
33 27 26 18 12 18 20 21 22 21 19 19 18 16 9 1
0 0 0 0 0 0 0 0 0 0 0 0 0 0 0 0
0 0 0 0 0 0 10 10 2 3 22 21 21 21 21 21
0 0 0 0 0 0 0 0 0 0 0 0 0 0 0 4
32 28 25 20 17 17 13 0 3 0 0 5 12 4 25 26
34 32 48 84 88 91 74 65 92 115 121 111 104 117 117 93
84 86 93 103 111 119 121 124 125 124 124 124 124 123 123 124
123 123 121 116 110 119 107 89 64 24 41 49 32 28 33 38
30 27 23 18 9 16 19 20 20 19 19 18 18 15 8 0
0 1 2 2 2 3 3 3 4 5 5 5 5 6 6 7
7 6 4 0 0 3 1 1 51 11 22 22 22 22 22 21
0 0 0 0 0 0 0 0 0 0 0 0 0 0 0 3
32 30 24 21 17 16 20 14 18 18 18 21 25 23 33 31
35 31 34 79 85 87 82 66 78 94 114 124 124 126 125 113
91 80 79 84 96 108 117 123 124 124 124 124 124 123 124 124
124 123 121 113 111 119 106 84 54 24 33 40 33 23 42 40
37 26 23 20 9 16 18 19 19 19 19 17 17 16 8 0
1 11 13 15 16 17 16 17 16 16 16 16 17 17 18 19
19 16 12 0 0 9 9 0 42 53 12 14 13 22 26 26
0 0 0 0 0 0 0 0 0 0 0 0 0 0 0 3
32 29 24 22 19 18 26 36 38 38 39 38 39 39 43 37
34 28 12 71 81 83 78 71 87 90 95 116 123 125 125 125
123 112 101 85 99 106 111 122 125 125 124 124 118 122 124 123
123 122 120 112 112 119 106 82 48 27 28 39 36 19 37 42
40 25 24 22 8 14 17 18 19 19 17 3 2 1 1 0
2 11 14 16 18 18 18 19 18 17 18 18 19 19 20 20
20 17 12 0 0 0 0 0 0 0 0 0 0 31 39 38
0 0 0 0 0 0 0 0 0 0 0 0 0 0 0 3
33 30 24 22 19 18 23 41 40 40 40 40 41 41 44 44
34 28 2 53 75 78 74 77 94 92 91 110 120 125 126 125
125 124 119 98 92 115 119 122 124 124 124 125 122 124 124 124
123 121 117 109 114 117 105 86 45 27 28 36 43 28 37 44
41 29 23 22 9 13 16 18 18 19 17 1 0 0 0 0
2 11 14 17 19 19 19 19 18 19 19 19 21 21 22 21
21 19 14 0 0 0 0 0 0 0 0 0 0 30 39 38
0 0 0 0 0 0 0 0 0 0 0 0 0 0 0 3
32 30 25 22 20 18 16 24 24 23 22 22 21 21 22 22
29 27 0 26 71 77 72 77 84 92 99 108 115 119 122 124
125 121 102 99 100 111 117 120 125 125 125 125 124 124 124 124
122 119 115 111 117 118 108 90 40 28 22 32 45 37 40 46
43 38 24 22 11 10 14 16 17 18 17 1 0 0 0 0
3 11 13 17 18 19 20 20 20 20 21 22 23 23 24 23
22 20 15 0 0 0 0 0 0 0 0 3 10 32 37 37
0 0 0 0 0 0 0 0 0 0 0 0 0 0 0 3
32 30 25 21 19 18 13 9 8 7 7 8 9 10 12 14
28 28 0 7 62 74 68 68 62 74 82 82 86 85 92 93
96 99 110 115 110 115 123 119 126 125 125 125 124 124 124 122
120 118 112 116 118 120 106 82 35 30 23 33 52 46 39 42
38 38 27 23 14 8 14 16 17 17 17 10 3 0 0 0
3 11 14 16 19 20 21 21 21 21 22 23 24 25 25 24
23 22 18 0 0 0 0 0 0 0 0 19 34 33 33 32
0 0 0 0 0 0 0 0 0 0 0 0 0 0 0 3
32 30 24 21 20 19 16 13 11 11 10 10 11 11 13 14
29 28 4 5 49 77 64 58 53 42 47 49 66 88 108 116
119 125 125 124 121 122 125 125 126 125 126 125 125 124 123 120
119 115 113 120 122 119 104 72 25 33 28 43 60 58 45 33
36 42 28 23 17 7 15 14 12 10 12 10 5 15 0 0
3 12 14 16 18 20 21 22 23 23 24 25 26 26 26 25
24 23 18 0 0 0 0 0 0 0 0 21 32 31 31 31
0 0 0 0 0 0 0 0 0 0 0 0 0 0 0 3
32 29 24 21 20 19 19 16 16 15 15 14 14 13 15 16
32 33 23 34 46 82 78 60 38 57 71 88 111 117 117 124
126 127 127 127 126 124 125 125 125 125 125 123 123 123 120 119
116 114 118 122 121 119 105 73 20 25 27 36 62 55 46 33
30 39 26 24 21 19 23 15 11 10 3 2 1 14 0 0
5 12 14 16 18 20 21 22 23 24 24 25 26 26 26 26
25 24 19 0 0 0 0 0 0 0 0 23 29 28 28 28
0 0 0 0 0 0 0 0 0 0 0 0 0 0 0 4
33 30 24 21 20 19 19 17 16 16 16 16 16 16 16 16
30 28 25 35 36 70 86 82 63 80 89 97 106 109 116 125
127 126 126 126 125 122 125 126 125 125 125 121 122 122 118 115
115 116 119 120 121 119 106 72 20 20 32 36 60 48 48 30
21 38 32 26 27 20 21 15 9 7 2 1 5 7 0 0
6 13 14 16 18 19 21 22 22 24 25 26 26 26 27 26
25 24 19 0 0 0 5 2 0 0 0 23 26 26 27 26
1 1 2 2 4 5 6 6 8 8 9 10 12 13 14 19
30 28 23 21 19 18 13 16 16 16 16 16 16 16 16 16
22 21 17 19 22 42 83 76 64 72 75 79 78 95 115 126
127 127 127 127 127 126 125 125 125 124 123 119 118 117 114 116
118 118 121 122 122 120 109 76 14 16 30 30 47 39 34 26
18 36 32 29 26 14 10 8 7 6 4 0 7 10 0 0
7 13 14 16 17 19 20 22 23 24 25 25 26 26 26 25
25 25 18 0 0 8 37 16 0 0 0 24 25 24 24 24
21 14 12 15 13 14 22 26 26 26 26 25 25 25 24 24
24 23 24 20 18 8 11 8 16 17 16 16 15 15 16 18
21 21 20 18 22 24 63 74 73 61 57 62 79 101 116 123
128 126 127 126 125 125 125 121 122 122 122 117 116 113 114 115
120 121 122 123 122 120 110 84 14 12 30 26 37 32 20 19
15 31 20 12 9 8 5 5 4 7 6 0 0 0 0 0
8 13 14 15 17 17 19 20 22 23 24 25 25 24 25 25
25 25 16 0 0 3 12 4 0 0 2 25 24 24 24 24
10 19 26 27 26 21 12 14 26 26 26 25 25 25 25 24
24 24 24 20 17 6 18 13 12 11 7 14 16 16 16 19
22 21 21 19 21 23 35 69 73 76 78 87 101 115 122 122
127 126 127 126 125 126 126 123 121 119 118 115 113 112 115 118
121 122 123 123 123 121 111 90 14 5 29 27 27 26 13 11
11 29 10 7 7 5 5 4 6 8 5 0 6 0 0 0
7 12 13 15 15 17 18 20 21 22 23 23 24 24 24 24
25 24 14 0 0 0 0 0 0 0 3 25 24 24 23 23
28 29 28 28 28 28 27 21 12 25 27 26 26 25 25 24
23 23 20 23 25 7 18 17 7 6 0 11 17 16 16 19
22 22 21 21 21 22 23 47 72 79 82 94 109 122 127 126
126 126 126 126 126 124 122 119 117 117 114 112 114 116 119 119
121 122 124 123 123 121 113 98 20 3 30 25 21 20 10 11
13 24 13 7 7 5 6 6 8 10 9 1 7 0 0 0
7 11 12 13 14 16 16 18 19 20 21 22 23 23 24 24
24 24 14 0 0 0 0 0 0 0 5 24 24 24 23 23
30 29 29 28 27 26 26 24 19 10 19 17 15 13 12 13
11 5 1 22 52 20 18 17 6 0 4 17 17 16 16 20
22 21 22 22 21 22 23 27 61 77 83 95 108 123 126 127
127 127 127 127 124 118 116 114 112 112 113 113 115 119 119 121
122 123 125 124 123 121 114 105 32 1 17 20 17 17 5 8
14 21 11 8 9 9 8 8 8 9 11 1 1 0 0 0
7 11 11 13 14 16 17 17 19 20 21 22 22 23 24 23
24 24 13 0 0 0 0 0 0 0 8 25 24 23 23 23
18 17 16 15 14 13 11 4 1 0 0 0 0 0 3 2
0 0 0 11 45 35 11 8 27 5 6 15 16 16 18 21
23 22 22 22 22 22 22 23 34 73 84 94 105 119 126 125
126 126 124 122 114 112 112 111 115 117 118 118 117 121 121 122
124 125 125 125 123 122 114 108 45 2 10 14 12 13 3 7
7 20 4 3 5 7 8 8 8 8 10 1 7 0 0 0
8 11 12 13 14 15 16 17 18 20 21 21 22 23 24 24
25 25 13 0 0 0 0 0 0 0 4 24 24 23 23 23
17 21 24 25 25 29 26 23 24 20 1 0 1 1 1 0
0 0 0 6 40 31 0 32 49 12 0 1 1 4 10 21
23 22 22 23 23 22 23 24 24 52 81 89 99 110 117 116
117 119 115 109 109 114 117 119 119 119 119 119 120 120 122 123
125 125 125 125 124 121 116 111 65 0 2 8 5 6 2 4
4 16 2 4 9 9 9 14 16 14 16 4 7 0 0 0
10 13 13 13 15 16 17 18 19 20 22 22 23 23 24 25
25 26 14 0 0 0 0 0 0 0 2 18 23 23 23 23
45 47 47 46 46 45 44 42 39 33 9 0 1 4 1 0
0 0 1 12 30 28 0 18 29 20 0 0 0 0 0 7
22 22 22 22 22 22 21 23 23 28 67 80 88 99 105 105
103 102 97 98 109 116 119 118 118 119 119 120 121 122 122 125
126 126 126 125 124 120 115 112 92 29 4 4 4 2 1 2
4 13 10 0 2 14 15 15 17 28 31 6 4 0 0 1
13 15 15 15 16 17 17 18 20 22 22 22 23 24 25 26
27 29 15 0 0 0 0 0 0 0 12 6 23 23 22 22
50 47 47 46 45 41 38 36 40 35 17 0 1 0 0 0
0 0 4 12 13 31 0 14 31 24 5 0 0 0 0 0
17 22 21 22 22 21 21 21 21 22 30 60 70 75 76 80
76 76 88 106 113 116 116 116 116 114 118 119 116 121 124 126
125 125 125 125 125 121 116 112 102 49 42 3 0 0 0 1
2 9 3 0 0 4 16 22 21 14 19 5 1 0 0 1
16 17 16 16 18 19 21 22 23 24 25 25 25 25 27 27
29 32 15 0 10 43 21 0 0 0 17 11 15 23 23 22
45 44 51 52 51 51 46 38 38 35 14 0 2 4 2 0
0 0 0 0 5 40 2 15 34 24 12 0 0 0 0 0
17 22 21 21 21 21 20 20 20 19 20 22 46 60 57 61
71 89 102 108 110 111 110 112 113 115 118 119 112 124 125 127
127 126 126 125 124 120 114 111 105 85 56 64 38 15 13 4
1 5 0 0 0 0 3 11 25 22 8 0 0 0 0 0
4 5 4 5 5 7 7 10 12 11 10 12 12 12 13 14
16 17 7 0 57 128 80 0 0 0 19 20 5 22 22 22
38 50 48 44 42 40 32 26 24 13 0 18 66 72 10 0
0 0 0 0 0 5 0 27 41 3 10 3 0 0 0 1
20 22 20 20 21 20 19 18 17 17 18 18 22 51 70 75
82 89 96 102 102 103 105 107 109 114 116 119 122 124 125 126
126 126 125 125 124 119 112 112 108 99 66 79 75 67 36 51
15 4 0 0 0 0 1 5 15 22 4 0 0 0 0 0
0 0 0 0 0 0 0 1 2 3 0 0 0 0 0 0
0 0 0 0 48 99 48 0 0 0 21 22 12 14 23 22
29 30 30 29 30 26 19 17 17 6 0 3 21 24 0 0
0 0 0 0 0 0 0 35 61 1 9 7 0 0 0 10
22 22 20 20 19 18 16 15 15 16 20 35 50 57 65 71
75 79 84 88 89 93 97 102 106 111 116 121 123 125 127 127
127 127 127 126 124 117 111 112 110 99 72 78 79 81 77 57
63 23 0 0 0 0 0 1 0 0 0 0 0 0 0 0
0 0 0 0 0 0 0 0 0 0 0 0 0 0 0 0
0 0 0 1 0 0 0 0 0 2 22 21 15 2 13 23
24 22 21 19 26 23 18 17 17 12 21 0 3 4 0 0
0 0 0 0 0 0 0 30 61 1 4 5 0 0 0 1
7 18 19 18 17 16 15 15 20 37 44 40 59 60 65 65
74 69 69 73 76 82 88 93 103 110 116 119 122 125 125 126
126 126 125 125 123 117 112 112 111 93 84 78 87 92 90 65
79 69 62 48 35 21 6 0 0 2 2 0 0 0 0 0
0 0 0 0 0 0 0 0 0 0 0 0 0 0 0 0
0 0 0 9 0 0 0 0 0 1 12 9 3 5 3 23
1 0 0 0 13 12 5 8 10 6 5 0 5 0 0 0
0 0 0 0 1 25 31 23 55 1 5 6 0 0 0 0
0 12 19 17 16 18 25 35 48 56 38 49 60 62 65 63
81 84 69 65 67 69 79 90 99 107 113 118 121 124 125 126
127 128 126 125 122 117 113 113 113 95 85 79 92 95 94 71
87 81 85 83 79 76 72 49 23 1 0 0 0 0 1 1
1 2 1 2 1 1 1 1 1 0 0 0 0 0 0 0
0 0 0 2 0 0 0 0 0 0 2 3 16 17 2 22
0 0 0 0 0 0 0 0 0 0 0 0 20 20 0 0
0 0 0 0 4 60 57 25 56 2 0 0 0 0 0 0
0 9 19 35 44 38 39 44 49 53 40 55 58 60 64 62
74 94 89 75 71 72 77 86 96 103 109 115 119 121 123 125
126 125 126 124 121 118 115 117 114 93 83 85 96 98 92 79
92 94 98 96 90 88 83 75 73 67 31 4 0 0 0 0
0 0 0 0 0 0 1 2 0 0 0 0 0 0 0 0
0 0 0 0 0 0 0 0 0 0 0 0 3 5 0 19
0 0 0 0 0 0 0 0 1 4 7 6 4 5 0 0
0 0 13 1 1 65 64 29 64 4 0 0 0 0 0 7
14 30 43 49 53 37 38 48 50 57 42 54 57 60 65 65
69 92 99 93 82 78 78 81 90 98 106 112 117 120 125 127
127 127 126 125 123 120 120 121 103 90 85 91 98 101 89 87
96 95 99 99 97 90 82 81 78 81 85 76 48 16 0 0
0 0 0 0 0 0 0 0 0 0 0 0 0 0 0 0
0 0 0 0 0 0 0 0 0 0 0 0 0 0 0 3
0 0 0 0 0 0 3 9 21 23 20 15 0 1 1 0
0 2 22 1 0 55 69 41 72 12 0 8 21 26 37 42
45 40 40 54 53 38 43 51 53 57 43 52 57 58 63 67
64 89 97 101 98 89 85 85 90 98 105 111 117 123 125 125
125 126 125 125 124 123 122 113 95 89 86 95 100 101 90 93
97 96 99 99 94 85 85 87 81 79 81 83 82 79 62 30
4 0 0 0 0 0 0 0 0 0 0 0 0 0 0 0
0 0 0 3 0 0 0 0 0 0 0 0 0 0 0 0
0 1 4 12 19 15 16 17 18 21 20 16 1 0 0 0
0 1 24 11 4 35 42 29 67 37 40 48 47 41 41 45
45 37 41 57 58 43 41 51 54 55 48 48 55 57 61 66
62 83 95 100 101 101 99 96 96 101 109 117 121 123 125 126
125 126 125 125 125 124 121 99 89 86 91 98 101 100 95 97
99 97 99 97 95 88 94 98 96 91 90 80 78 78 76 74
68 40 13 0 0 0 0 0 0 0 0 0 0 0 0 0
0 0 0 0 0 0 0 0 0 0 0 0 0 0 0 0
15 21 24 27 30 26 25 26 27 26 25 22 20 22 24 23
4 8 16 22 13 18 15 30 53 56 58 58 56 52 45 47
44 40 41 52 65 52 40 49 57 57 51 46 56 56 59 65
65 67 94 99 103 104 103 103 101 108 113 117 121 123 124 126
126 115 125 125 125 124 104 94 87 90 96 100 102 95 103 99
100 98 100 100 96 89 100 103 100 94 85 86 91 90 83 80
79 78 75 57 22 0 0 1 0 0 0 0 0 0 0 0
0 0 0 0 0 0 0 0 0 0 0 0 0 0 0 0
27 28 30 31 31 29 28 29 30 28 23 23 23 27 29 20
8 15 26 24 6 24 48 61 66 69 71 74 73 72 63 61
58 54 48 56 64 64 51 49 60 63 60 50 59 57 57 61
65 66 80 98 103 107 109 106 106 107 113 118 122 124 125 125
125 125 126 125 123 105 94 86 87 92 98 100 101 96 106 98
100 100 100 100 93 95 104 100 88 87 92 98 95 85 81 83
84 83 82 81 76 53 11 0 0 0 0 0 0 0 0 0
0 0 0 0 0 0 0 0 0 0 0 0 0 0 0 0
27 27 32 34 35 35 33 30 28 29 20 19 19 20 8 5
9 12 2 0 13 57 73 75 78 80 83 84 85 85 80 79
78 73 67 67 69 72 74 69 67 69 82 73 72 74 67 59
62 65 79 90 99 106 109 110 110 111 114 118 121 122 124 126
125 125 125 122 105 95 88 86 90 94 99 100 96 103 106 98
100 102 101 100 95 99 104 98 90 93 99 100 93 84 87 87
86 85 89 89 84 80 71 30 1 0 0 0 0 0 0 0
0 0 0 0 0 0 0 0 0 0 0 0 0 0 0 0
29 23 29 35 35 34 33 27 22 22 13 12 11 13 0 0
6 14 0 13 52 78 86 79 84 84 84 86 89 89 88 87
91 88 85 85 84 78 89 91 76 76 94 83 81 88 87 69
58 61 64 81 91 102 111 111 111 111 115 117 121 123 125 125
126 125 118 102 94 90 85 87 94 95 101 98 98 106 107 99
100 102 102 101 98 101 103 99 89 95 101 99 90 82 88 88
85 89 92 92 89 86 84 81 45 2 0 0 0 0 0 0
0 0 0 0 0 0 0 0 0 0 0 0 0 0 0 0
38 20 20 31 27 43 26 23 13 10 9 9 9 11 7 17
7 3 8 50 67 86 88 85 87 87 84 87 92 93 91 84
91 95 92 92 90 80 89 91 79 81 97 86 80 86 90 89
69 58 61 62 79 93 101 112 114 114 115 119 121 123 125 124
116 104 95 91 86 86 86 89 95 97 97 97 105 107 106 97
100 104 103 102 99 102 104 95 85 98 101 99 85 85 91 91
84 95 98 95 91 88 90 91 82 56 7 0 0 0 0 0
0 0 0 0 0 0 0 0 0 0 0 0 0 0 0 0
20 19 16 12 12 17 24 19 9 7 7 8 9 8 18 22
9 10 44 57 78 90 88 88 89 89 84 89 93 93 93 85
92 95 94 91 92 81 87 90 83 85 97 83 80 84 89 91
87 70 58 59 63 68 80 97 107 111 114 114 111 110 102 97
93 90 89 88 85 86 90 94 99 97 96 105 106 108 106 96
100 103 103 102 101 103 105 91 90 101 103 97 85 91 94 90
82 100 101 100 96 93 94 95 92 84 68 10 0 0 0 0
0 0 0 0 0 0 0 0 0 0 0 0 0 0 0 0
27 29 28 27 22 19 17 7 3 2 1 2 11 35 54 43
36 42 56 61 83 91 91 90 90 90 85 89 92 95 93 89
88 95 96 94 94 83 86 92 87 91 98 86 78 93 87 91
92 89 75 61 58 60 67 78 81 82 91 91 92 90 91 89
88 84 86 85 85 90 96 101 99 95 104 108 108 107 105 98
102 105 104 103 102 104 102 85 94 103 103 95 86 94 98 87
83 102 103 101 99 96 95 97 94 90 82 34 0 0 0 0
0 0 0 0 0 0 0 0 0 0 0 0 0 0 0 0
25 31 31 30 29 27 20 8 7 4 2 2 35 90 35 37
54 55 59 65 86 91 92 90 94 91 83 91 90 97 95 92
89 96 96 95 95 87 84 94 93 95 98 85 77 95 93 89
91 92 92 84 75 70 68 69 65 70 75 82 80 83 80 80
81 83 85 86 89 96 98 96 96 100 104 107 108 106 105 99
102 104 104 104 104 105 94 88 100 104 101 94 91 97 98 79
89 103 105 102 102 95 95 97 95 92 88 76 11 0 0 0
0 0 0 0 0 0 0 0 0 0 0 0 0 0 0 0
24 31 31 29 29 26 16 10 12 9 9 9 29 97 36 42
53 57 60 68 88 91 94 93 95 89 81 89 89 96 97 95
90 96 97 96 95 93 84 93 96 99 99 85 76 96 97 94
92 90 92 91 88 85 80 81 73 76 78 77 80 82 82 81
88 91 91 96 98 98 96 98 107 102 105 107 107 106 105 100
102 105 104 104 103 103 91 91 102 105 98 96 96 100 96 73
93 105 106 104 101 94 97 98 95 91 87 85 64 3 0 0
0 0 0 0 0 0 0 0 0 0 0 0 0 0 0 0
23 30 30 30 25 17 11 10 10 10 9 9 20 98 38 46
57 59 61 70 89 92 95 95 96 91 81 90 88 96 99 97
89 98 100 98 98 96 85 93 98 99 98 87 77 95 100 96
96 93 89 94 90 90 90 88 82 90 87 90 87 86 91 91
91 94 95 98 97 95 101 107 105 102 106 108 108 106 104 100
102 105 105 105 104 103 91 92 102 105 101 101 98 100 89 71
96 105 106 105 102 93 99 99 94 95 86 89 87 44 0 0
0 0 0 0 0 0 0 0 0 0 0 0 0 0 0 0
20 29 30 30 21 11 10 9 10 10 10 10 12 91 53 57
65 60 58 72 90 91 95 96 96 91 81 91 90 96 100 99
93 95 100 98 98 99 90 92 101 99 99 89 78 95 101 98
96 97 96 89 93 89 93 93 91 91 94 92 90 94 94 95
96 98 96 94 99 107 107 106 102 104 108 108 107 107 105 101
101 106 105 105 104 99 93 94 101 105 103 101 100 99 80 76
100 106 108 107 101 89 99 100 95 96 85 97 93 83 14 0
0 0 0 0 0 0 0 0 0 0 0 0 0 0 0 0
17 26 31 30 21 11 10 10 9 9 9 9 8 77 71 65
68 63 60 73 91 91 95 98 98 89 80 92 91 95 102 100
97 95 101 99 99 99 94 90 98 98 98 90 78 94 102 100
96 95 96 99 95 75 87 88 92 92 95 93 93 93 93 92
91 92 97 105 108 109 107 103 102 106 107 108 108 106 104 100
101 105 105 104 105 99 93 92 102 105 104 102 100 95 72 78
100 105 107 105 100 88 99 101 97 94 91 102 98 93 63 1
0 0 0 0 0 0 0 0 0 0 0 0 0 0 0 0
16 22 30 30 20 11 11 11 10 9 10 10 10 17 60 69
68 65 65 76 94 93 96 98 97 90 80 92 95 95 103 103
100 96 101 100 100 100 97 92 99 99 100 90 80 95 101 101
100 97 99 100 100 100 87 79 78 79 80 81 82 87 90 94
100 107 109 109 109 109 105 101 103 108 109 109 106 104 106 101
101 107 105 107 104 100 91 95 103 105 105 103 99 90 68 79
103 106 108 105 99 87 98 100 99 92 95 102 99 98 91 32
0 0 0 0 0 0 0 0 0 0 0 0 0 0 0 0
15 17 26 30 22 12 11 10 10 10 10 10 10 15 65 69
68 66 64 76 95 93 95 98 99 90 77 91 95 94 102 102
101 98 100 100 100 102 99 94 97 99 99 90 80 92 99 102
101 98 98 99 101 101 101 101 100 99 97 96 97 100 102 102
103 107 107 107 108 106 100 101 105 106 107 106 105 105 105 100
98 105 105 105 103 97 88 98 102 104 105 103 97 87 69 80
102 106 107 105 98 86 96 100 100 90 100 102 101 102 96 80
10 0 0 0 0 0 0 0 0 0 0 0 0 0 0 0
15 15 17 23 21 12 10 10 10 9 10 14 18 47 69 71
68 65 63 74 96 96 95 98 99 88 76 89 96 94 104 102
101 99 100 98 100 100 100 95 96 100 98 91 81 91 99 101
102 100 100 100 100 101 100 100 101 100 100 101 103 103 103 103
105 108 107 108 106 102 100 102 104 105 105 104 105 104 104 101
97 104 105 105 102 92 90 100 105 104 105 102 95 85 68 82
103 104 108 106 98 87 95 101 100 89 101 102 101 102 100 94
60 1 0 0 0 0 0 0 0 0 0 0 0 0 0 0
17 14 14 15 14 10 12 13 12 9 9 18 30 63 69 77
70 65 62 70 96 97 98 99 99 86 76 89 94 93 101 100
100 99 99 98 97 100 100 97 97 100 97 93 81 91 97 101
101 99 99 98 100 99 101 101 101 102 102 101 102 103 104 103
104 106 106 107 106 102 100 101 104 106 105 105 104 104 103 101
97 102 105 105 101 93 89 102 106 104 106 103 92 84 70 84
102 103 105 102 96 86 94 103 99 96 104 103 103 103 101 98
90 35 0 0 0 0 0 0 0 0 0 0 0 0 0 0
25 17 13 12 10 8 18 21 16 9 9 20 48 70 75 81
81 67 62 66 92 97 97 98 98 83 76 88 96 92 99 102
100 100 100 99 98 98 99 96 96 99 96 93 84 90 96 102
102 101 100 101 99 99 100 102 100 101 102 101 102 104 103 103
106 107 106 105 104 101 100 102 105 105 103 103 101 104 105 102
97 102 104 105 100 94 89 101 105 106 105 99 92 82 70 88
104 103 104 102 95 88 95 102 94 100 101 102 103 102 101 100
95 79 10 0 0 0 0 0 0 0 0 0 0 0 0 0
28 26 19 14 10 10 23 25 16 8 10 27 63 70 76 78
86 72 62 64 89 96 97 98 99 78 73 88 96 93 99 99
98 99 100 98 96 99 100 97 98 97 94 95 86 89 97 100
101 101 100 99 99 100 99 103 101 101 101 101 102 103 103 103
106 106 104 103 102 99 101 102 105 105 102 103 103 104 104 102
98 101 104 104 100 94 89 101 105 106 103 95 91 81 70 92
103 101 103 101 94 90 94 103 91 103 102 102 104 102 102 101
98 89 56 0 0 0 0 0 0 0 0 0 0 0 0 0
28 28 26 23 16 15 24 25 14 7 11 43 67 73 82 80
88 83 63 60 87 95 96 97 97 77 69 86 96 92 95 99
99 100 98 97 97 98 97 97 96 95 94 94 88 89 97 100
100 100 100 100 99 100 99 100 100 101 101 101 103 102 105 104
105 104 103 103 101 99 101 102 103 102 102 101 101 103 104 102
98 101 103 104 99 94 90 100 107 106 101 94 90 78 73 94
104 98 101 99 93 94 95 101 88 103 102 101 103 102 102 100
98 94 86 26 0 0 0 0 0 0 0 0 0 0 0 0
28 27 26 26 24 20 24 23 12 7 16 60 68 76 81 82
85 88 62 59 85 95 97 96 97 73 68 86 97 92 95 100
96 97 99 97 96 96 97 97 96 95 95 95 89 90 95 99
101 101 102 102 101 100 98 100 102 100 102 103 102 103 103 103
103 104 104 103 100 99 102 102 103 102 102 102 103 105 104 102
99 100 104 102 95 90 92 101 107 106 100 93 90 76 75 97
104 95 100 97 90 95 97 100 85 102 101 102 102 102 102 102
100 97 92 70 3 0 0 0 0 0 0 0 0 0 0 0
27 27 26 26 25 20 22 23 10 7 36 66 73 77 81 86
84 90 65 59 83 95 95 97 96 70 65 84 98 94 95 101
98 99 99 98 95 97 97 98 97 95 95 96 92 90 96 100
102 102 102 101 101 101 99 101 101 101 103 103 103 104 104 104
103 103 104 104 101 101 102 103 104 101 101 101 102 103 103 101
98 97 101 95 90 91 97 103 107 105 100 91 87 75 79 98
102 92 98 96 92 97 97 98 89 102 100 101 100 101 102 102
101 98 96 89 41 0 0 0 0 0 0 0 0 0 0 0
27 26 26 25 25 21 20 21 10 11 57 68 73 78 83 85
86 88 68 57 77 95 95 98 98 67 65 84 98 93 95 99
98 99 100 99 97 96 98 98 98 97 96 97 96 91 95 99
101 102 102 103 102 100 101 101 102 101 102 103 104 104 104 103
103 104 103 102 101 100 101 103 102 101 101 101 104 104 102 99
96 95 95 89 90 97 102 105 108 104 98 92 85 75 82 100
100 90 98 93 94 96 98 94 87 101 100 100 99 101 102 101
101 99 97 93 80 12 0 0 0 0 0 0 0 0 0 0
