P2
128 120
131
8 8 9 7 8 9 9 13 17 21 24 27 27 27 26 26
25 25 25 25 25 24 24 24 24 24 24 23 23 22 22 22
22 21 21 21 20 20 20 20 20 20 20 19 19 19 19 18
18 17 18 18 18 18 19 20 24 24 24 23 17 13 23 24
14 20 20 19 19 18 18 17 17 17 17 16 13 18 17 19
19 18 19 19 19 19 19 19 20 20 20 21 21 20 21 20
21 21 21 21 21 21 21 21 22 22 22 22 23 23 23 23
23 23 23 23 22 23 23 23 24 23 23 23 23 22 21 21
10 8 9 7 9 8 9 5 2 4 11 26 27 27 27 26
26 25 25 25 24 25 24 23 23 23 23 23 23 22 22 22
22 21 22 21 21 21 20 20 20 19 19 19 19 19 18 18
18 18 18 18 18 18 18 19 24 23 23 23 17 13 22 25
14 19 20 20 19 19 18 18 18 16 17 16 13 18 16 19
19 19 19 19 19 19 19 20 20 20 20 20 21 20 21 20
21 21 21 21 21 22 22 22 22 23 23 22 23 22 23 22
23 23 23 23 23 23 24 23 22 21 21 21 21 21 21 22
20 15 12 8 6 7 9 7 5 5 11 26 27 27 26 26
25 24 24 24 25 25 24 24 24 24 24 23 23 22 22 22
21 21 21 21 20 20 20 20 20 20 20 20 20 19 19 19
19 18 18 18 18 18 18 19 24 24 23 23 18 14 22 26
14 18 20 20 19 19 18 18 17 17 17 17 13 18 17 19
19 19 19 19 19 20 19 19 20 20 20 21 22 20 21 21
21 21 21 21 21 21 22 22 22 22 22 23 23 23 23 23
23 23 23 22 22 21 20 21 22 22 23 23 23 23 22 22
27 32 35 30 26 22 16 10 4 6 9 25 26 26 26 26
26 25 26 27 26 25 24 24 24 24 24 23 23 22 23 22
22 21 21 21 22 28 28 25 22 21 20 19 19 19 18 19
18 18 18 18 19 18 19 20 25 23 23 23 17 13 23 26
15 17 20 20 20 19 19 18 18 17 17 16 13 18 16 19
19 19 20 20 20 20 21 20 20 20 20 21 21 21 20 21
21 21 22 21 22 22 23 23 22 23 23 22 22 22 21 22
22 22 22 23 24 23 23 22 23 23 23 22 23 22 22 22
30 34 35 26 37 37 36 33 7 8 12 26 27 26 26 26
25 26 35 34 32 31 28 26 25 22 24 24 23 23 22 22
21 21 21 20 23 33 32 29 28 27 26 21 20 20 19 19
19 18 17 17 18 18 19 20 24 23 24 24 18 14 23 26
17 16 20 20 19 19 18 18 17 17 17 16 14 18 17 20
20 19 20 20 20 20 20 20 20 21 21 21 22 21 21 21
21 21 21 21 21 22 21 21 21 22 21 22 21 22 22 22
22 22 22 22 22 23 22 22 21 22 22 22 22 22 22 22
32 36 36 36 39 39 39 37 8 8 13 27 27 27 27 26
25 28 38 35 34 31 30 29 29 30 25 24 23 23 23 22
21 22 22 21 24 32 30 29 28 28 29 25 19 19 19 19
18 19 18 18 19 19 19 20 24 24 24 23 17 14 22 26
18 15 21 21 20 19 19 19 17 17 17 17 15 19 16 20
20 19 20 21 21 20 20 20 21 21 21 21 22 21 21 21
21 21 22 22 22 22 23 22 23 23 22 21 21 22 21 22
21 21 22 22 22 22 22 22 23 23 22 23 23 23 21 22
33 35 36 37 40 39 40 38 10 7 17 31 29 28 28 27
26 28 37 35 34 31 31 32 34 35 28 31 30 28 25 22
22 22 22 21 22 25 24 25 27 28 29 27 20 19 19 19
19 19 19 18 18 18 19 19 24 24 24 23 17 13 13 23
19 12 21 20 20 19 18 19 17 17 17 17 15 20 17 21
21 21 20 20 20 20 20 21 20 20 21 21 20 20 20 21
21 21 22 22 22 20 21 22 22 22 21 22 22 22 21 22
22 22 22 21 22 23 22 22 23 21 22 22 21 22 22 21
33 31 34 38 38 39 38 37 12 8 16 32 30 28 29 29
30 30 23 17 25 31 33 35 36 35 25 16 23 28 28 29
28 27 27 24 23 17 7 6 8 13 17 23 20 19 19 19
19 19 19 18 18 19 20 21 24 25 24 21 7 11 8 21
20 11 21 20 20 19 19 20 17 18 18 17 15 19 16 20
21 21 20 20 21 20 20 20 20 21 21 21 21 21 21 21
21 21 21 21 23 22 22 21 22 22 22 22 21 21 21 21
21 21 21 22 22 23 22 23 22 22 22 21 22 22 22 22
5 12 18 29 34 36 36 36 12 8 16 32 30 23 22 29
33 36 14 0 0 6 17 18 22 29 22 0 0 1 6 13
15 23 28 28 25 17 3 1 4 1 0 8 23 20 20 19
19 19 18 18 18 19 19 20 25 26 25 24 15 14 21 26
22 11 21 20 20 18 18 21 18 18 18 18 15 20 18 21
21 20 20 20 20 20 20 20 20 21 21 20 21 21 22 21
21 22 22 22 23 21 22 22 21 22 22 22 21 21 22 22
22 22 22 22 22 23 22 22 21 22 22 21 22 22 22 22
0 0 1 0 2 4 8 34 12 8 13 27 31 31 31 29
35 37 15 0 0 1 5 6 5 15 21 0 0 0 0 0
0 0 3 8 24 15 1 1 0 2 0 7 23 20 20 19
19 19 20 19 19 19 20 21 26 25 25 24 18 14 23 25
23 10 20 21 20 18 19 20 18 18 18 18 16 20 16 20
20 20 21 20 21 21 21 21 21 21 21 21 21 21 21 21
21 21 21 21 23 21 23 22 22 21 22 21 22 22 21 22
22 22 22 21 22 23 22 22 22 22 22 22 22 22 22 21
0 0 0 0 0 0 0 32 11 8 4 0 4 10 19 27
34 37 16 0 0 0 0 4 3 15 22 0 0 0 0 0
0 0 0 0 24 12 0 0 0 0 0 8 24 20 20 20
20 19 19 19 19 19 20 21 25 25 25 25 18 15 23 27
24 11 19 21 21 19 19 21 18 19 19 18 16 20 17 21
21 21 21 21 21 21 21 21 20 21 21 21 22 22 21 21
21 21 21 21 22 22 21 22 21 21 21 22 22 22 22 22
22 21 21 22 22 23 22 22 22 21 21 21 21 21 21 21
0 0 1 0 0 0 0 32 11 8 3 0 0 0 0 0
1 7 15 0 0 0 0 0 0 11 21 0 0 0 0 0
0 0 0 0 24 8 0 0 0 0 0 8 25 20 20 19
19 20 19 19 19 19 21 21 25 26 25 24 18 15 23 26
24 12 18 21 21 20 20 21 18 19 19 18 16 19 17 21
21 21 21 20 21 21 21 21 21 21 21 21 21 21 21 21
21 21 21 21 23 22 22 21 21 22 21 22 22 22 22 21
21 22 21 21 22 23 23 21 21 21 22 21 22 21 21 21
0 0 10 3 0 0 0 33 11 8 3 0 0 0 0 0
0 0 11 0 0 0 0 0 0 12 20 0 0 0 0 2
0 0 0 0 24 7 0 0 0 0 0 9 26 20 20 20
20 19 19 19 19 19 20 20 25 25 25 24 19 15 24 26
24 14 16 21 21 20 20 19 18 18 18 18 16 19 16 21
21 21 21 21 21 21 21 21 21 20 20 21 21 21 21 21
21 22 21 21 22 21 22 21 21 21 21 21 22 22 22 21
22 22 22 22 22 22 22 21 21 21 21 21 22 23 22 22
0 0 2 14 0 0 0 34 10 9 3 0 0 0 0 0
0 0 9 0 0 0 0 0 0 17 23 0 0 0 0 4
4 0 0 0 24 6 0 0 0 0 0 7 26 20 20 20
20 19 19 19 19 19 21 21 25 26 25 24 19 15 23 25
24 16 15 22 21 21 20 20 18 18 18 18 16 19 17 21
21 21 21 21 22 21 21 21 22 21 21 21 21 21 21 21
21 21 21 21 22 21 22 21 22 22 22 22 22 22 22 22
22 22 22 21 22 20 21 22 22 22 22 22 22 22 22 22
0 0 0 1 0 0 0 33 9 8 3 0 0 0 2 0
0 0 7 0 0 0 0 0 0 13 24 0 0 0 0 5
6 5 3 0 23 6 0 0 0 0 0 5 28 20 20 21
20 20 19 20 20 20 21 21 26 26 26 25 19 16 24 27
26 18 13 22 21 20 20 20 18 18 19 18 16 19 17 21
22 22 22 22 22 21 21 21 21 21 21 21 21 21 22 21
22 22 22 22 22 22 22 22 22 23 23 22 23 23 22 22
22 22 22 22 22 23 23 23 23 23 23 23 23 22 23 23
0 0 0 0 0 0 2 34 9 9 3 0 1 0 5 1
0 0 7 0 0 0 0 0 0 15 26 0 0 0 0 6
6 5 5 0 22 8 0 0 0 0 0 5 29 21 21 21
20 21 20 20 21 21 22 22 27 26 27 26 19 16 24 27
26 20 13 22 22 21 21 21 19 19 20 19 17 20 18 23
23 22 22 22 22 22 22 22 22 22 22 22 22 22 22 22
22 23 23 23 24 24 23 23 24 24 23 23 23 23 23 23
22 23 23 23 23 23 23 24 23 23 24 23 23 24 24 24
0 3 0 0 0 0 3 34 9 9 4 2 4 0 0 0
0 0 8 0 0 0 0 0 2 15 28 0 0 0 0 2
6 6 4 0 22 17 6 1 0 0 0 4 29 21 22 22
22 21 21 20 21 21 23 23 27 27 26 26 19 16 26 28
28 23 14 22 24 22 21 21 19 20 20 19 17 21 19 24
23 23 23 23 24 23 23 22 23 22 23 23 23 23 23 23
24 24 24 24 24 24 23 24 23 24 24 23 24 24 24 23
23 24 24 24 24 25 25 24 24 24 24 23 22 24 25 25
6 8 10 7 4 2 6 35 11 11 4 3 0 0 0 0
0 0 12 0 0 0 0 0 6 22 34 10 5 1 0 0
0 4 4 0 22 32 31 28 25 21 19 21 30 22 22 22
22 21 21 20 22 22 23 24 28 27 26 28 22 18 26 27
28 24 15 21 24 23 22 21 21 21 21 21 19 22 20 24
24 23 24 24 24 24 24 24 24 24 24 24 25 25 24 24
24 25 25 25 25 25 25 24 25 25 25 25 26 25 25 25
26 24 24 24 25 25 25 24 25 25 25 25 25 25 26 26
21 28 31 35 34 31 30 30 10 11 4 0 0 0 0 0
0 1 33 29 20 16 13 6 1 14 42 27 28 29 26 20
14 8 5 2 24 33 32 29 29 33 36 38 31 21 22 22
22 22 22 21 22 23 24 24 27 28 27 26 24 19 27 27
28 23 15 20 24 23 22 21 21 21 21 21 19 22 19 25
24 24 24 24 24 24 25 24 24 24 24 25 24 24 25 24
25 25 25 25 24 24 25 25 25 25 25 24 26 24 24 25
25 25 25 25 25 26 25 25 25 25 24 24 25 24 25 24
22 30 37 42 39 40 39 31 10 11 4 0 0 0 0 0
0 1 38 41 30 35 36 39 36 39 39 9 9 10 12 14
17 19 24 30 36 26 27 29 30 35 38 38 33 21 23 22
22 22 21 21 23 23 24 25 31 33 31 34 31 26 29 28
27 24 17 17 24 22 22 22 21 21 21 21 19 22 19 24
23 23 23 23 23 24 24 24 24 24 24 24 25 24 24 24
24 24 24 24 24 24 25 24 25 25 25 25 26 25 25 25
25 24 25 25 24 24 24 23 24 23 23 22 24 26 26 23
24 31 38 39 37 42 41 31 10 10 7 1 0 0 0 0
0 1 40 34 32 38 40 44 39 32 28 8 8 9 8 8
7 6 5 5 6 6 10 15 19 23 22 22 24 21 22 22
22 22 21 22 19 19 21 24 36 33 30 30 34 34 42 43
35 27 21 20 24 23 22 21 21 20 20 20 18 21 20 24
24 24 24 24 24 24 24 24 24 24 24 24 25 24 24 25
24 24 25 24 24 25 24 24 24 24 24 24 25 23 23 22
22 22 22 23 24 24 23 22 23 22 20 18 16 13 11 9
7 15 22 23 27 31 36 32 11 11 20 33 30 23 15 8
4 4 34 25 32 38 39 42 42 34 27 11 10 9 7 6
5 4 3 2 2 2 3 3 8 22 22 19 19 21 23 23
22 22 22 17 17 21 26 28 36 31 32 31 34 40 44 44
44 40 35 27 26 23 23 22 22 21 21 20 19 21 19 24
24 23 23 23 23 23 23 24 24 23 23 23 25 24 24 23
25 24 24 24 24 23 25 25 24 24 25 24 25 25 24 25
25 20 20 18 15 13 11 10 8 7 6 6 6 6 6 7
0 0 0 0 0 0 8 31 11 11 20 38 40 39 38 38
37 37 36 19 30 35 36 40 41 35 30 13 10 7 6 4
4 4 4 4 4 4 5 4 11 20 5 16 20 22 21 21
18 18 15 20 25 29 31 39 43 35 31 31 37 38 43 43
39 40 38 36 29 27 23 24 22 21 20 19 19 21 20 23
24 23 23 23 23 23 23 24 24 23 22 22 24 24 23 23
24 24 25 25 26 26 25 25 23 21 19 17 16 12 12 16
24 8 4 6 7 8 7 8 9 9 10 9 10 10 11 12
0 0 0 0 0 0 6 31 10 10 21 38 41 39 38 39
39 41 31 0 2 7 11 17 22 22 30 15 9 6 2 0
0 1 4 6 5 4 6 7 14 24 16 19 29 28 27 18
14 12 11 16 28 29 36 47 42 39 36 37 41 43 46 45
41 45 53 44 38 30 25 20 20 19 21 20 19 21 20 24
23 23 22 22 22 22 23 22 22 23 23 23 24 25 25 24
24 22 21 19 17 14 12 10 10 8 7 8 9 9 9 12
21 6 7 10 11 12 12 12 13 14 14 15 16 17 17 17
0 0 0 0 8 8 10 30 12 9 17 33 35 36 37 39
40 42 27 0 0 0 0 0 4 10 31 14 7 5 0 0
0 0 2 3 2 0 3 4 8 25 28 23 25 26 25 16
1 7 12 21 34 38 52 66 53 47 44 46 52 50 47 50
52 45 42 44 48 41 31 20 19 19 19 19 17 20 18 21
21 21 21 20 19 20 20 14 18 23 22 19 18 15 14 12
11 9 9 9 9 9 10 11 11 12 12 12 13 13 13 13
20 6 11 15 16 17 18 18 18 18 19 19 19 19 18 19
0 0 0 2 22 21 18 23 22 19 20 24 25 26 28 26
30 36 23 0 0 0 0 0 0 6 33 12 6 6 1 0
0 0 0 0 0 0 0 0 4 24 29 17 18 17 11 0
2 7 13 23 39 57 80 84 73 74 76 80 83 72 61 58
51 51 48 43 39 44 37 26 19 18 17 18 18 18 19 20
20 19 20 20 18 17 15 8 9 11 10 10 10 10 11 12
12 13 13 14 14 15 15 16 16 17 17 18 18 19 18 18
24 10 15 19 20 20 20 20 21 20 21 20 21 21 21 21
0 0 0 0 21 21 18 19 17 11 15 12 15 20 25 23
27 37 22 0 0 0 0 0 0 1 34 9 4 0 0 0
0 3 0 0 0 0 0 0 4 25 30 16 16 16 1 3
5 10 25 41 62 88 100 101 103 108 108 112 113 110 104 94
81 67 61 57 40 34 34 34 31 19 13 10 10 14 16 16
13 12 11 10 10 10 11 9 10 12 12 13 14 14 16 16
17 17 19 19 19 19 20 19 21 21 21 21 20 21 19 13
8 5 17 20 21 20 21 22 22 22 22 23 23 22 21 21
0 0 0 0 3 5 8 18 16 14 16 19 19 22 25 24
30 36 21 0 0 0 0 0 0 2 35 3 0 0 0 0
0 3 4 0 0 0 0 0 3 26 30 14 12 4 2 8
17 31 52 74 89 103 107 111 114 117 119 119 119 120 120 119
116 109 98 77 52 43 33 29 31 30 19 12 9 9 8 9
10 12 12 12 13 14 14 15 15 17 17 18 20 20 20 20
21 21 22 22 21 21 21 21 21 22 21 22 21 22 21 7
0 0 17 22 23 23 22 21 22 23 23 23 23 22 22 22
0 0 0 0 0 0 2 18 10 12 11 3 8 14 19 23
30 33 21 0 0 0 0 0 0 3 35 3 0 0 0 0
0 1 11 5 2 0 0 0 3 27 30 13 2 1 6 15
34 59 81 95 102 109 113 116 117 118 120 119 119 120 120 120
120 119 117 112 96 64 39 35 27 29 25 16 11 11 10 12
15 15 16 17 17 18 19 20 20 21 21 21 21 21 21 22
23 23 23 23 23 24 23 24 23 23 21 16 13 10 19 5
3 0 15 22 23 24 23 24 24 24 23 22 23 23 23 23
0 0 1 0 0 0 3 24 17 17 11 0 0 0 0 0
0 2 16 0 0 0 0 0 0 5 34 2 0 0 0 0
3 6 9 7 9 0 0 0 3 26 29 12 0 5 15 32
57 81 95 101 106 110 116 119 118 120 121 120 121 121 120 120
120 120 120 119 114 103 62 45 31 23 26 20 18 15 13 16
19 19 20 20 20 21 20 21 22 22 22 22 22 23 24 25
24 24 24 24 24 23 23 23 24 24 8 0 0 2 16 4
1 0 14 22 24 24 23 23 24 23 22 23 23 23 23 23
0 0 2 2 0 0 3 29 21 18 13 0 0 0 0 0
0 0 14 0 0 0 2 0 0 4 32 0 0 0 0 0
8 12 15 4 5 0 0 0 3 24 28 8 3 14 34 53
76 91 98 104 108 112 118 120 120 121 121 121 120 120 121 120
120 121 120 120 120 117 100 56 42 25 20 23 18 21 15 18
21 21 21 21 22 22 22 23 23 23 24 24 24 23 24 24
24 24 24 24 24 25 24 24 25 24 20 17 19 20 21 8
0 0 14 22 23 24 23 22 23 24 23 22 23 23 23 23
0 0 1 5 0 0 3 32 22 18 13 0 0 0 0 0
0 0 12 0 0 3 10 2 0 5 31 0 0 0 0 0
0 2 14 0 0 0 0 0 1 23 22 3 8 26 48 71
86 93 100 105 110 114 118 120 120 121 121 121 121 120 120 121
121 120 120 120 120 119 113 90 52 31 17 16 17 20 17 21
21 22 22 22 22 21 22 23 23 23 23 23 24 24 25 24
24 24 25 25 25 24 24 24 24 24 23 22 22 21 20 9
0 0 15 22 23 24 23 23 23 22 23 23 23 23 22 22
10 6 5 11 6 2 2 33 18 15 11 0 0 0 8 0
0 0 12 0 0 11 11 5 0 5 29 0 0 0 0 0
0 0 12 0 0 0 0 0 0 21 11 3 16 37 64 77
86 92 99 104 109 116 120 119 121 121 120 120 120 120 120 120
120 120 120 120 120 120 119 111 78 44 18 13 16 15 20 22
23 22 22 23 23 22 24 24 23 24 24 23 24 24 23 23
24 23 24 24 25 24 24 24 25 24 24 23 23 21 20 13
0 1 16 22 23 23 23 23 23 23 23 23 22 23 23 22
31 29 27 34 32 30 29 36 19 15 11 0 0 8 16 2
0 0 18 6 6 13 11 11 2 6 29 0 0 0 0 0
0 0 14 0 0 0 0 0 0 16 6 8 21 51 72 80
84 92 100 102 109 112 118 119 120 120 120 120 120 120 120 121
120 119 120 120 120 119 118 115 104 67 25 13 13 14 21 22
23 23 22 22 21 22 23 23 23 23 24 23 24 24 24 24
24 24 23 24 24 23 24 23 23 23 23 23 22 21 20 14
4 6 18 23 23 24 23 23 22 22 21 22 22 22 22 22
2 4 11 16 26 34 38 37 22 13 11 0 0 4 9 1
0 0 26 31 32 35 32 32 32 33 31 0 0 0 0 0
0 0 15 0 0 0 0 0 0 7 6 13 32 61 73 78
83 91 98 102 107 111 119 120 121 120 120 120 120 120 120 120
120 119 120 120 120 120 119 116 114 98 47 12 9 15 17 23
22 22 23 22 22 23 23 23 24 23 23 22 23 23 23 23
23 23 23 24 25 23 24 24 24 23 23 23 23 20 18 14
13 14 20 22 23 23 23 22 22 22 22 23 22 23 22 23
0 0 0 5 0 19 38 35 19 14 13 0 0 0 0 0
0 0 25 31 34 36 34 35 40 42 35 10 7 11 3 1
0 0 16 0 0 0 0 0 0 2 7 22 44 66 73 79
85 89 94 103 109 113 117 120 120 120 120 120 121 121 120 120
120 120 120 120 119 119 119 118 113 114 81 17 9 11 13 21
23 23 23 23 23 23 23 23 23 23 23 23 24 23 24 23
23 23 24 23 24 24 24 24 23 23 23 22 23 21 19 17
17 19 23 23 23 23 23 22 22 22 22 22 22 23 23 22
0 0 9 27 6 27 36 32 18 15 16 12 0 0 0 0
0 0 25 33 34 34 34 36 43 43 40 25 25 24 22 21
20 19 20 14 13 10 10 8 8 4 10 31 57 69 73 79
83 88 95 103 111 114 118 119 120 120 120 120 120 120 120 120
119 119 119 119 119 119 119 118 115 112 89 26 7 9 14 19
22 23 22 22 23 23 23 23 24 23 22 23 23 23 23 23
23 23 24 23 23 24 24 24 24 24 23 23 22 21 19 19
18 22 22 22 22 23 23 22 23 23 23 23 23 23 23 22
0 0 1 22 20 30 35 26 15 15 16 7 0 0 0 0
0 0 25 25 28 29 29 30 30 27 29 27 28 28 27 25
26 26 25 23 22 18 17 15 11 4 10 36 63 69 75 81
86 91 98 106 112 116 119 120 120 120 121 121 120 121 121 121
121 120 120 120 120 119 119 118 115 108 101 37 7 3 9 17
24 24 23 22 22 23 23 23 23 23 23 23 23 23 23 22
23 24 24 24 24 24 24 24 24 25 22 22 22 21 20 21
21 22 23 24 23 24 23 23 23 23 23 23 22 22 21 22
0 0 0 2 8 31 36 24 17 19 18 1 0 0 0 0
0 0 28 28 27 28 28 28 27 24 25 27 29 29 29 27
27 27 26 26 27 30 28 24 14 3 9 39 65 70 78 83
87 92 99 108 115 119 120 120 121 121 121 120 120 120 120 120
120 120 119 116 114 114 116 118 116 111 104 52 8 5 7 11
22 22 22 22 22 23 23 22 23 23 23 23 23 23 23 23
24 23 24 24 24 24 24 24 24 24 23 23 22 21 21 21
22 22 21 21 22 22 23 23 23 23 22 21 22 23 22 22
0 0 0 0 1 29 37 22 17 16 17 20 17 14 11 9
7 4 29 30 27 28 28 26 27 27 29 30 29 32 35 37
30 26 26 27 30 35 33 27 13 1 10 42 67 74 81 84
89 93 101 114 118 120 121 121 121 121 121 120 120 121 120 113
97 88 81 90 93 97 94 94 101 105 103 58 8 6 7 10
22 23 23 24 24 23 23 23 24 23 23 22 23 24 23 23
23 23 23 24 23 23 23 23 23 22 22 23 23 22 21 22
23 23 22 23 23 23 24 23 23 22 22 22 22 21 21 22
0 0 0 0 0 28 38 23 17 18 19 36 38 39 36 37
41 39 41 33 30 30 30 30 31 33 36 34 30 34 37 40
29 26 23 22 29 36 34 28 9 1 12 45 69 78 84 89
92 89 90 97 108 118 121 121 121 121 121 121 120 112 90 72
63 54 47 51 54 60 91 111 99 74 102 61 12 4 6 7
21 24 23 22 23 22 22 23 22 23 23 24 24 24 24 24
23 23 23 24 24 22 23 24 24 23 23 23 23 23 22 23
25 23 23 23 24 23 23 23 22 23 23 23 22 22 22 22
0 0 0 0 0 29 39 23 17 18 20 42 45 44 45 44
44 43 43 35 29 24 27 25 28 33 37 36 31 33 33 29
31 29 26 21 23 30 28 23 6 0 15 51 69 91 112 106
115 91 69 58 52 57 81 107 120 121 121 119 108 100 83 72
82 95 102 112 109 89 82 91 103 81 74 70 15 2 4 5
19 23 22 23 23 23 24 23 23 24 24 24 24 23 23 23
23 23 23 24 24 24 24 24 24 24 23 22 23 24 23 23
24 23 22 22 23 23 23 22 23 22 22 22 22 22 22 22
0 0 0 0 0 29 38 22 16 19 18 31 35 35 37 38
40 41 42 27 4 8 3 3 6 9 21 37 32 25 8 11
15 14 15 23 23 14 3 2 1 2 20 54 63 89 79 82
55 34 41 41 51 62 66 86 101 116 121 106 113 103 98 106
109 114 120 121 121 110 84 91 99 90 75 65 23 3 3 5
18 23 23 23 23 23 23 23 24 24 25 24 25 24 24 23
23 23 23 23 23 23 23 23 23 23 23 23 23 24 23 23
24 24 23 22 22 22 22 22 23 22 23 22 22 22 22 22
0 0 0 0 0 27 35 19 16 19 15 20 22 22 21 22
21 21 24 19 0 0 0 0 0 0 8 37 29 7 0 0
0 2 6 23 25 12 0 0 1 2 21 44 54 70 71 39
48 75 83 84 84 85 79 86 101 110 106 106 119 115 114 109
108 110 114 116 117 108 64 106 106 96 84 74 57 5 2 5
20 23 24 23 24 24 24 24 24 23 24 24 24 23 23 23
23 22 22 23 23 23 23 23 22 23 23 22 23 23 23 23
23 23 23 23 22 23 23 23 22 23 22 22 22 21 21 22
0 0 0 0 0 27 38 22 14 18 17 28 29 29 28 26
25 24 26 19 2 1 0 0 0 3 14 36 21 0 0 0
0 0 4 26 24 13 0 0 1 1 23 41 57 67 48 56
87 103 109 109 105 98 80 81 99 109 97 111 121 118 113 108
97 89 83 87 100 94 77 89 114 110 108 95 97 10 2 2
19 25 26 24 23 23 23 24 23 23 24 24 24 23 22 22
22 21 23 22 23 22 22 18 19 17 16 15 14 18 22 23
24 23 23 23 23 21 22 22 22 22 21 21 22 22 23 23
0 0 0 0 0 31 40 22 13 18 16 29 31 31 31 30
31 31 31 21 1 0 0 0 0 3 15 34 13 0 0 0
0 0 1 27 26 13 0 0 1 2 27 59 55 75 53 74
94 100 106 105 100 93 73 75 91 97 107 110 122 117 114 104
71 47 21 23 38 59 100 122 120 118 121 101 95 15 3 2
18 26 24 25 24 24 24 24 22 18 16 14 12 12 9 7
7 10 16 23 23 24 23 7 0 0 0 0 0 6 22 24
23 23 23 23 23 22 22 23 22 22 22 22 23 21 22 23
11 7 5 2 1 31 37 19 12 19 18 29 31 32 31 30
32 32 33 22 0 1 0 0 2 1 6 33 9 0 0 0
0 0 2 27 24 13 0 0 1 5 36 71 61 114 105 88
86 85 75 69 72 58 57 72 82 87 107 119 119 117 122 96
71 72 23 22 60 71 86 96 89 90 93 80 74 20 4 3
17 25 24 24 24 22 24 24 15 0 0 3 3 3 0 0
0 0 5 23 23 23 22 7 0 0 0 0 0 7 24 24
24 24 23 23 23 22 22 21 22 22 22 22 22 22 22 23
35 33 33 31 29 33 32 25 23 25 22 15 16 16 17 14
14 21 35 26 1 0 0 0 1 2 4 33 7 0 0 0
0 0 2 27 24 12 0 0 2 35 71 85 75 127 127 105
104 95 23 19 29 37 36 68 75 78 104 119 116 108 112 91
87 89 87 94 104 102 103 72 66 103 80 50 41 24 5 5
18 25 24 24 24 24 24 23 16 0 0 4 1 2 0 0
0 0 3 21 23 23 22 6 1 0 1 0 1 5 23 24
23 23 23 23 23 23 22 22 22 22 22 21 22 22 21 22
32 32 32 31 31 31 31 31 30 30 30 29 29 28 27 9
0 5 32 31 9 0 0 0 2 1 3 32 6 0 0 0
0 0 1 28 24 12 0 0 2 53 91 112 87 122 119 78
80 82 37 18 25 48 51 69 68 79 101 114 119 104 107 95
94 101 108 111 116 113 97 77 96 119 76 62 90 35 9 13
27 25 24 24 24 24 23 23 15 0 0 4 2 3 0 0
0 0 2 21 23 22 21 4 0 0 0 0 0 5 22 24
23 25 24 23 23 22 22 22 22 22 22 22 22 22 21 22
33 32 32 31 31 31 31 31 30 29 29 30 29 29 29 13
0 3 30 30 4 0 0 0 2 2 4 32 6 0 0 0
0 0 0 27 25 16 0 0 1 34 76 103 77 58 67 67
66 73 73 80 80 62 64 72 67 85 102 110 113 111 99 108
107 105 110 112 113 113 101 64 98 115 67 91 106 74 9 63
92 42 23 23 23 24 23 23 15 0 0 4 2 4 0 0
0 0 3 21 23 23 22 6 0 1 0 0 0 2 22 23
23 23 23 22 23 22 22 21 21 21 21 20 20 20 20 21
31 31 30 30 30 30 29 29 29 30 29 30 29 30 29 16
0 1 26 25 0 0 0 0 0 0 3 32 6 0 0 0
0 0 0 25 25 12 0 0 0 12 36 58 70 51 64 79
81 89 96 99 82 65 71 75 69 96 112 118 120 117 95 106
112 114 112 113 114 116 118 84 101 98 77 110 106 98 40 66
81 77 23 24 23 24 24 23 16 0 0 3 3 3 0 0
0 0 3 21 22 22 22 9 3 3 4 4 5 4 19 21
22 21 21 22 22 22 21 21 22 22 23 23 22 23 23 22
7 7 7 7 7 7 7 7 7 8 8 10 19 25 28 17
0 0 22 21 0 0 0 0 0 0 3 32 9 0 0 0
0 0 0 24 26 14 1 1 0 7 16 36 81 81 53 73
91 97 97 90 77 76 83 70 86 107 121 122 122 121 111 97
110 116 119 119 118 119 121 97 110 73 90 115 105 97 64 72
61 73 30 23 23 23 23 21 15 0 0 2 0 1 0 0
0 0 3 20 23 23 22 10 5 5 5 4 5 6 17 23
23 23 23 22 22 21 22 21 21 22 23 21 21 21 21 21
0 0 0 0 0 0 0 0 0 0 0 0 20 30 28 20
0 0 19 22 2 1 1 0 3 6 4 31 22 9 9 10
11 9 10 27 27 23 25 22 17 7 32 40 57 85 51 78
93 95 89 79 77 80 79 67 89 99 121 122 122 121 120 96
95 112 121 121 121 121 120 96 97 109 118 112 104 99 84 95
84 72 37 23 23 22 23 22 15 0 0 0 0 0 0 0
0 0 2 20 22 23 22 8 0 1 0 1 1 3 17 23
23 23 22 23 23 22 22 22 21 21 22 21 21 21 21 22
0 0 0 0 0 0 0 0 0 0 0 0 19 31 27 22
0 0 14 29 28 26 22 23 26 26 28 29 37 40 36 36
38 38 38 39 29 22 30 28 19 6 47 65 54 81 52 79
93 90 83 79 82 79 65 78 85 80 111 120 80 68 117 116
94 97 104 103 103 105 105 107 118 121 118 112 104 99 90 110
91 71 40 22 23 24 23 22 16 0 0 0 0 0 0 0
0 0 2 20 22 23 21 8 0 0 1 0 0 5 7 9
11 22 22 22 22 21 22 22 22 22 22 21 21 21 21 21
0 0 0 0 0 0 0 0 0 0 0 0 17 33 27 24
0 0 11 31 32 27 26 28 27 23 23 25 33 42 39 39
37 40 40 41 34 19 27 30 17 16 49 71 53 63 63 69
90 92 90 83 73 62 78 88 61 11 72 112 52 15 91 122
115 121 120 119 118 119 121 120 120 119 118 112 105 100 96 105
104 80 37 22 23 24 23 21 14 0 0 0 0 4 0 0
0 0 1 20 22 23 21 9 0 1 1 1 0 0 10 7
2 22 23 22 22 22 22 21 21 20 20 21 21 21 21 21
0 0 0 0 0 0 0 0 0 0 0 0 15 33 27 24
1 0 9 33 28 23 25 27 28 25 22 23 23 26 28 28
27 27 27 28 28 19 21 33 21 22 51 68 76 68 69 70
83 96 86 66 70 85 92 99 43 14 81 110 113 59 109 120
111 121 121 121 121 121 121 121 121 121 117 113 106 98 77 85
111 90 25 23 23 24 23 20 15 1 0 0 0 0 0 0
0 0 1 19 21 23 21 9 0 0 1 3 0 0 8 6
1 21 22 22 21 21 22 21 21 21 21 21 22 21 22 21
0 0 0 0 0 0 0 0 0 0 0 0 13 35 28 25
3 0 7 32 17 20 20 20 25 26 22 25 22 13 16 16
17 17 17 17 21 22 23 34 40 38 53 69 73 72 78 83
93 102 107 101 93 94 87 98 98 59 107 118 122 118 104 105
116 122 122 121 121 120 120 121 120 120 120 114 106 99 97 85
112 82 22 24 24 25 22 19 15 1 0 0 0 0 0 0
0 0 1 20 21 23 22 9 0 0 0 3 4 6 2 1
1 22 22 22 22 22 22 21 22 21 21 21 21 21 21 21
0 0 0 0 0 0 0 0 0 0 0 0 11 34 27 24
5 3 14 32 8 6 8 10 12 13 12 21 24 18 20 19
25 26 24 23 27 28 29 33 47 54 57 65 60 66 76 91
104 116 120 119 114 102 89 73 76 97 122 122 122 122 116 117
121 121 121 120 121 121 121 121 121 120 119 116 108 99 105 86
110 63 21 22 23 24 21 20 15 1 0 0 0 0 0 0
0 0 1 19 21 23 21 7 0 0 0 1 3 5 2 0
1 22 20 17 19 21 22 21 21 21 21 21 21 21 20 21
0 0 0 0 0 0 0 0 0 0 0 0 9 34 28 26
20 24 28 33 4 0 0 0 0 0 1 18 26 29 35 27
35 42 31 21 21 24 25 30 66 72 60 61 61 77 81 93
103 116 121 122 122 121 105 81 75 108 123 122 119 122 122 121
121 121 121 121 121 121 121 121 121 121 120 116 111 101 103 86
113 46 22 24 23 24 21 19 16 1 0 0 0 0 0 0
0 0 2 20 22 24 22 9 0 0 0 12 11 0 0 0
0 9 3 6 2 15 23 21 21 21 21 21 21 21 21 21
0 0 0 0 0 0 0 0 0 0 0 0 8 34 28 25
31 35 37 36 6 0 0 0 0 0 1 23 25 29 35 23
32 39 20 0 0 0 1 2 47 88 64 58 63 81 82 94
102 113 121 122 122 119 102 95 100 114 120 116 110 115 120 121
121 121 121 121 121 121 121 121 121 121 121 120 108 100 101 113
109 29 22 23 23 23 21 19 16 1 0 0 0 0 0 0
0 0 1 20 21 23 21 9 0 0 9 40 40 3 0 0
3 14 22 21 17 2 23 22 21 21 21 21 21 21 21 20
0 0 0 0 0 0 0 0 0 0 0 0 6 34 29 26
31 37 39 38 10 0 0 0 0 0 0 23 24 28 33 7
3 14 19 0 0 0 0 0 21 88 70 58 66 82 85 91
103 112 119 123 122 109 96 99 102 103 106 110 114 117 121 122
122 122 122 121 122 121 121 121 121 121 121 119 110 101 112 116
96 21 22 23 24 24 22 20 17 1 0 0 0 0 0 0
0 0 1 20 22 24 23 15 9 10 12 27 29 4 0 0
16 23 23 22 22 6 18 22 22 22 22 21 22 21 21 21
0 0 0 0 0 0 0 0 0 0 0 0 5 33 29 25
25 26 25 23 5 0 0 0 0 0 0 24 24 28 33 4
0 10 19 0 0 0 0 0 8 76 76 60 69 81 85 90
101 106 117 121 113 102 97 100 97 100 94 99 109 110 117 117
118 121 121 121 121 121 121 121 122 122 122 119 109 102 116 118
66 18 21 22 23 23 22 20 17 2 0 0 0 0 0 0
0 0 1 20 21 23 22 22 23 22 5 5 6 0 0 0
16 23 23 22 22 8 16 21 21 21 21 21 21 21 21 20
0 0 0 0 0 0 0 0 0 0 0 0 4 32 30 25
16 6 8 7 0 0 0 0 0 0 0 25 23 29 34 5
0 9 21 0 0 0 0 0 4 57 84 58 69 82 87 92
102 108 116 115 103 97 98 101 99 101 91 87 85 86 90 95
104 108 119 122 122 122 122 122 122 121 121 116 106 102 117 116
36 17 20 22 23 23 22 21 18 2 0 0 0 0 0 0
0 0 1 19 21 22 24 23 18 13 3 0 0 0 0 0
15 24 24 23 23 7 17 23 22 22 22 22 22 22 22 21
0 0 0 0 0 0 0 0 0 0 0 0 2 31 28 24
16 8 9 7 0 0 0 0 0 0 0 27 22 29 33 4
0 7 20 0 0 0 0 0 2 42 88 69 65 82 88 91
99 104 109 105 100 98 96 100 91 81 79 87 95 108 112 115
111 96 92 104 121 122 122 122 121 121 121 117 101 102 114 79
16 15 20 21 22 22 22 21 17 2 0 0 0 0 0 0
0 0 1 20 22 23 23 23 5 19 19 0 0 0 0 0
14 23 23 22 21 5 21 21 21 21 22 21 21 21 21 21
0 0 0 0 0 0 0 0 0 0 0 0 1 30 29 24
18 10 12 10 0 0 0 0 0 0 0 24 22 30 34 4
0 8 21 0 0 0 0 0 3 30 77 76 60 79 87 90
95 101 101 101 103 96 88 83 72 89 107 114 113 115 119 120
118 119 118 117 120 122 122 121 121 122 121 116 106 91 55 29
19 14 20 21 22 23 22 21 18 7 3 2 1 1 0 0
0 0 6 20 22 22 23 23 14 36 38 4 0 0 0 0
13 22 22 22 13 8 22 22 21 22 21 21 21 21 21 20
0 0 0 0 0 0 0 0 0 0 0 0 1 29 29 23
20 14 14 9 0 0 0 0 1 0 0 22 23 30 33 9
1 6 21 3 0 0 2 1 3 26 63 84 58 75 85 87
93 98 98 101 107 85 57 62 83 102 112 112 109 106 103 107
116 122 122 122 121 121 121 121 122 121 120 114 107 71 28 26
22 12 19 20 22 22 22 20 19 18 17 13 9 5 3 0
0 1 4 6 6 5 5 4 2 8 4 0 0 0 0 0
2 4 4 6 3 18 7 6 13 21 21 22 22 21 21 22
0 0 0 0 0 0 0 0 0 0 0 0 0 29 29 24
20 15 16 11 0 3 0 0 3 8 1 22 25 32 33 13
8 5 20 1 4 4 3 0 2 26 54 85 60 69 81 85
93 98 101 108 106 60 64 70 74 79 87 83 83 87 99 116
122 122 123 122 122 122 122 122 122 121 119 112 103 52 28 26
23 11 18 19 21 22 22 21 20 19 18 14 10 0 0 0
0 0 0 0 0 0 0 0 0 0 0 0 0 0 0 0
0 0 0 0 0 7 4 30 11 22 22 21 21 21 21 21
0 0 0 0 0 0 0 0 0 0 0 0 0 28 29 22
20 16 16 15 0 4 1 1 5 12 8 21 28 32 32 10
17 5 19 0 5 6 2 0 0 24 33 71 66 67 77 82
91 98 102 111 104 84 83 82 88 94 103 110 110 118 122 123
122 122 122 122 122 121 121 121 121 120 117 109 93 34 28 25
23 10 16 19 20 21 20 19 19 18 18 15 13 1 0 7
11 13 15 15 16 16 17 17 16 17 17 17 19 20 20 20
17 7 0 1 17 3 10 69 32 21 21 22 22 22 22 23
0 0 0 0 0 0 0 0 0 0 0 0 0 27 29 23
21 17 16 22 23 27 28 27 28 31 30 36 33 31 30 4
20 9 21 11 14 14 13 13 11 20 21 27 37 59 76 81
90 98 103 110 102 95 98 100 107 114 114 112 118 121 122 123
122 122 123 122 122 121 121 121 121 117 112 100 69 28 28 26
24 11 15 18 20 21 21 19 18 14 10 8 10 1 0 13
15 18 20 21 21 21 21 21 20 20 21 21 21 22 22 21
17 7 0 0 4 1 0 14 7 2 2 7 33 33 31 30
0 0 0 0 0 0 0 0 0 0 0 0 0 28 31 24
21 18 17 23 36 37 38 38 38 38 38 42 40 31 29 1
9 9 21 16 17 17 17 16 15 16 20 22 23 49 72 78
84 92 101 106 92 96 100 106 113 112 110 115 122 123 123 123
123 122 122 121 121 121 121 121 119 113 106 91 43 31 27 26
24 14 12 18 19 19 20 19 18 6 0 0 0 0 0 12
15 20 21 22 22 22 22 21 21 21 22 23 24 24 24 22
20 9 0 0 0 0 0 0 0 0 0 6 40 39 38 36
0 0 0 0 0 0 0 0 0 0 0 0 0 27 31 24
21 18 18 18 38 39 38 38 37 36 36 38 39 31 29 1
2 4 22 18 20 20 20 21 20 20 22 21 22 34 66 76
81 87 96 98 94 94 96 107 110 106 112 122 123 122 123 123
123 122 122 122 122 122 121 119 111 110 99 61 31 30 27 25
24 15 10 16 18 19 20 19 19 6 0 0 0 0 0 11
15 19 21 22 23 23 23 23 23 23 24 25 26 25 24 22
20 9 0 0 0 0 0 0 0 0 0 5 38 38 37 34
0 0 0 0 0 0 0 0 0 0 0 0 0 28 31 24
21 17 17 12 15 13 13 12 12 12 12 14 14 25 29 1
1 3 22 18 22 22 22 23 21 21 23 22 22 24 58 71
78 81 86 90 94 93 94 101 105 109 112 122 124 123 123 123
123 122 123 122 122 118 114 112 108 102 86 39 33 33 28 26
24 18 8 15 16 18 18 18 18 7 1 0 0 0 1 12
16 19 21 22 23 24 24 24 24 25 25 26 26 25 24 23
21 10 0 0 0 0 0 0 0 0 23 31 35 34 34 31
0 0 0 0 0 0 0 0 0 0 0 0 0 26 30 23
20 18 18 12 9 7 7 7 7 8 8 11 12 25 29 1
0 1 22 18 22 22 22 23 22 22 24 22 22 22 40 69
75 80 83 83 90 88 91 92 99 106 112 120 122 123 123 122
123 122 123 121 114 104 103 103 102 92 91 37 29 30 27 26
24 20 7 14 16 17 16 17 17 16 11 0 0 0 0 12
15 18 21 22 23 24 25 25 25 25 26 27 27 27 26 24
23 10 0 0 0 0 0 0 0 1 32 32 32 31 30 29
0 0 0 0 0 0 0 0 0 0 0 0 0 25 30 23
21 18 18 16 13 11 10 10 10 10 10 12 13 27 31 7
10 12 26 17 22 22 22 23 22 22 22 21 21 23 26 58
72 77 83 82 79 85 86 89 94 98 107 111 117 121 123 122
118 117 117 107 99 96 93 94 92 94 97 38 30 29 26 26
25 22 12 18 18 12 10 10 6 7 6 29 2 0 1 12
16 18 20 22 23 24 25 25 25 26 27 27 27 27 27 25
25 11 0 0 0 0 0 0 0 3 30 30 29 29 28 27
0 0 0 0 0 0 0 0 0 0 0 0 0 26 29 22
20 18 18 17 15 15 15 14 14 13 12 14 14 29 33 23
36 38 31 17 22 23 23 23 22 22 22 22 22 22 23 39
66 67 80 82 80 79 77 81 89 92 97 101 105 111 111 110
109 105 99 98 104 101 99 97 96 102 93 37 31 28 25 28
28 25 24 22 22 12 11 8 1 6 4 0 0 0 2 13
15 17 19 21 22 23 24 25 26 27 28 27 27 28 27 26
25 9 0 0 0 0 0 0 0 5 29 27 28 27 27 26
0 0 0 0 0 0 0 0 0 0 0 0 1 29 31 23
20 17 18 17 15 14 14 15 15 15 15 15 13 25 26 19
27 28 24 19 22 22 23 22 21 22 22 22 22 22 23 25
55 71 77 80 78 76 72 77 80 84 88 87 93 94 90 90
89 90 100 108 110 108 105 102 103 106 95 36 25 22 24 35
30 31 24 18 16 10 8 6 1 5 3 28 0 0 3 14
16 17 19 20 22 23 24 25 26 26 27 27 27 27 27 26
26 10 0 0 12 23 4 0 0 6 27 25 25 25 25 25
4 5 7 8 10 11 12 13 15 15 16 18 19 25 24 22
20 17 17 12 9 14 15 14 15 15 15 14 15 19 20 17
15 19 20 21 22 22 23 23 23 22 22 22 22 22 22 22
49 63 71 73 70 69 69 71 71 72 73 74 76 78 83 91
102 111 115 115 113 110 108 104 106 108 96 30 20 17 21 33
28 21 14 9 7 8 8 10 1 5 1 2 0 0 4 14
16 16 18 19 21 22 23 25 26 27 28 27 27 27 27 28
27 8 0 0 20 30 3 0 0 10 26 25 25 25 25 24
14 14 12 14 24 25 25 25 24 24 24 24 23 23 22 23
20 17 16 5 13 7 15 15 14 14 15 14 17 21 20 20
18 20 20 21 21 22 22 23 22 22 22 22 22 22 23 23
49 65 66 70 71 75 76 78 77 73 72 77 89 100 109 115
118 118 118 114 112 111 109 106 109 109 99 29 17 16 15 16
11 10 10 7 7 5 8 8 1 3 1 1 0 0 4 15
16 17 19 20 22 22 24 25 26 26 27 27 27 28 28 28
28 8 0 0 0 0 0 0 0 12 25 25 25 25 24 25
26 26 25 18 10 17 26 25 24 23 24 23 23 22 22 22
20 17 12 10 18 10 11 3 6 15 15 15 17 21 20 20
19 20 21 20 22 22 23 23 22 22 22 22 21 22 22 22
48 70 69 71 73 75 79 81 84 84 86 94 104 111 115 117
119 117 114 112 111 109 110 109 111 111 101 27 21 17 11 10
8 9 7 7 6 7 10 10 4 4 4 3 0 0 5 14
15 16 18 19 21 22 23 25 26 26 27 27 27 28 28 28
28 7 0 0 1 0 0 0 0 15 26 25 25 24 25 25
27 27 28 26 25 14 14 25 24 24 23 23 22 22 21 19
16 36 15 13 18 15 3 0 5 16 15 15 18 22 21 21
21 20 21 22 22 22 23 22 22 22 22 22 22 22 23 22
47 74 76 73 75 78 81 83 84 82 91 94 104 109 113 115
116 113 111 112 113 113 110 111 115 113 103 29 20 24 17 10
10 9 9 9 9 9 10 12 6 3 5 1 0 0 6 15
15 17 18 19 20 21 22 23 25 25 26 26 27 28 28 28
28 6 0 0 0 0 0 0 0 17 25 24 24 24 24 25
26 25 25 23 21 20 9 12 13 10 9 8 9 10 3 0
2 55 29 17 16 16 3 0 13 16 16 15 18 21 20 21
21 20 20 21 22 23 22 22 22 21 22 21 21 21 21 21
44 76 80 77 75 73 81 83 86 85 89 94 101 107 111 111
112 112 112 112 113 106 108 114 117 115 104 27 18 23 33 16
9 9 10 10 9 9 9 11 7 1 6 0 0 0 5 14
14 15 17 18 19 20 21 23 24 25 25 26 27 27 27 27
26 5 0 0 0 0 0 0 0 18 24 24 23 23 23 24
14 12 12 9 2 0 0 0 0 0 0 1 1 0 0 0
0 41 32 20 3 9 32 2 10 11 13 15 19 21 21 20
20 21 20 20 21 21 21 20 21 21 21 21 21 21 20 19
40 79 84 83 79 78 81 82 85 86 87 92 98 103 106 106
107 107 111 112 113 110 112 116 119 116 105 23 12 19 25 37
9 7 5 8 9 10 8 9 7 0 9 0 0 0 6 14
14 15 17 18 19 19 20 22 23 24 24 24 25 26 26 26
26 5 0 0 0 0 0 0 0 10 23 22 23 22 22 23
23 23 28 26 24 24 24 5 0 0 0 0 0 0 0 0
0 34 26 9 1 40 38 9 0 0 0 3 12 20 20 20
20 20 19 20 20 20 21 20 19 20 20 19 20 19 18 17
34 80 86 86 83 83 83 82 83 86 88 90 95 101 104 106
108 109 110 112 112 113 114 118 119 117 105 38 21 17 23 28
18 6 12 10 11 17 20 24 24 8 8 0 0 0 7 14
14 15 15 17 18 19 20 21 22 23 23 24 24 25 25 26
28 4 0 0 0 0 0 0 0 4 19 22 22 22 22 21
44 43 42 40 38 37 31 13 0 0 0 1 0 0 0 0
7 24 22 8 2 15 24 16 0 0 0 0 0 10 20 20
19 20 19 18 19 19 19 18 19 19 18 19 18 18 17 16
31 79 87 88 88 85 83 84 86 85 84 88 93 97 101 104
105 107 111 114 114 114 116 119 119 116 104 37 22 18 16 15
22 2 4 14 16 14 14 29 34 9 5 0 0 0 7 16
15 16 17 18 19 20 22 22 23 23 23 24 24 25 26 27
30 4 0 0 1 0 0 0 0 15 7 20 21 20 21 20
43 41 37 34 31 37 33 22 2 0 0 0 0 0 0 0
10 9 22 11 0 17 26 22 3 0 0 0 0 3 20 19
19 19 18 18 18 17 17 18 17 18 19 19 19 16 15 15
33 78 87 91 90 88 87 86 87 87 87 89 95 99 103 104
108 112 115 115 115 115 118 120 119 116 105 59 23 6 0 4
10 4 0 5 15 23 21 13 22 4 2 0 0 0 8 15
14 15 16 17 19 21 22 22 23 25 26 26 26 27 29 31
33 3 0 54 87 26 0 0 2 21 6 17 21 21 21 21
50 48 48 44 36 35 33 23 0 1 3 4 0 0 0 0
0 2 20 19 0 19 29 19 8 0 0 0 0 2 20 19
19 19 18 17 15 15 15 15 15 17 18 18 18 17 18 46
33 78 88 91 92 91 89 90 90 88 90 94 99 103 107 110
112 115 118 117 115 117 118 120 120 115 104 56 73 62 38 24
21 8 0 1 4 12 25 17 18 1 0 0 0 0 0 0
0 0 0 0 1 1 7 5 5 1 1 2 2 2 3 3
4 0 1 97 122 41 0 0 4 21 17 6 21 21 21 21
41 38 36 29 23 20 18 3 0 34 73 50 3 0 0 0
0 0 1 1 0 32 36 1 9 1 0 0 0 8 20 18
18 17 16 14 14 13 13 13 14 14 16 18 18 25 49 58
22 78 90 90 94 93 91 91 91 91 93 99 103 107 110 113
115 116 116 116 116 115 118 121 120 115 103 69 75 76 73 46
35 32 0 0 2 6 16 12 4 0 0 0 0 0 0 0
0 0 0 0 0 0 0 0 0 0 0 0 0 0 0 0
0 0 0 33 47 9 0 0 6 21 20 7 15 21 21 21
28 27 25 18 14 14 13 0 0 3 28 6 0 0 0 0
0 0 0 0 0 43 52 0 5 4 0 0 1 15 18 18
17 16 14 13 12 12 13 12 12 14 20 36 48 55 60 58
36 78 90 94 94 94 92 92 93 93 95 99 105 109 112 114
116 117 117 116 115 116 121 121 120 114 101 78 73 75 74 72
31 63 33 11 1 0 0 7 13 0 0 0 0 0 0 0
0 0 0 0 0 0 0 0 0 0 0 0 0 0 0 0
0 1 3 0 0 0 0 0 7 21 14 4 0 12 21 21
16 21 23 16 14 14 14 9 14 0 3 1 0 0 0 0
0 0 0 0 0 34 49 0 3 3 0 0 0 0 8 17
16 14 12 12 11 11 12 11 17 36 44 40 58 58 63 60
47 77 91 95 96 95 92 94 94 94 96 99 103 107 111 113
114 115 116 115 114 119 121 121 120 113 102 78 76 75 75 75
53 75 70 67 60 45 32 18 2 0 0 0 0 0 0 0
0 0 0 0 0 0 0 0 0 0 0 0 0 0 0 0
0 1 6 0 0 0 0 0 0 10 2 11 5 8 21 20
0 8 14 6 4 9 7 3 2 1 2 0 0 0 0 0
0 0 11 28 18 22 47 0 5 3 0 0 0 0 1 15
15 12 13 12 12 12 19 34 51 57 41 45 60 60 63 61
51 76 91 97 98 99 95 94 94 95 95 98 102 105 109 111
115 116 116 115 119 121 122 122 118 112 104 79 77 77 80 85
68 80 77 85 82 75 74 72 57 28 2 0 0 1 0 0
2 1 1 2 1 2 2 0 0 0 0 0 0 0 0 0
0 0 0 0 0 0 0 0 0 4 0 17 10 8 21 20
0 0 0 0 0 0 0 0 0 1 31 4 0 0 0 0
0 0 27 63 34 16 52 0 0 0 0 0 0 0 0 14
14 12 16 28 34 34 44 45 49 56 40 54 58 59 63 64
57 72 89 95 99 100 98 96 94 95 96 99 102 106 110 114
115 115 115 120 121 121 122 121 120 114 104 79 78 80 87 96
73 81 84 90 93 85 82 81 73 73 70 35 6 0 0 0
0 0 0 0 0 0 0 0 0 0 0 0 0 0 0 0
0 0 0 0 0 0 0 0 0 0 0 0 0 2 18 20
0 0 0 0 0 0 1 4 7 1 7 0 0 0 0 3
11 0 23 75 44 12 61 1 0 0 0 0 0 0 0 16
23 33 48 53 53 37 41 48 51 56 44 55 57 58 61 64
58 71 87 96 99 100 98 98 99 97 97 99 102 107 111 113
115 118 121 121 122 123 123 123 120 115 101 86 80 84 94 98
78 82 89 90 94 92 89 80 79 76 78 84 76 50 17 0
0 0 0 0 0 0 0 0 0 0 0 0 0 0 0 0
0 0 3 0 0 0 0 0 0 0 0 0 0 0 3 19
0 0 0 0 2 12 21 19 18 3 0 2 0 0 0 8
16 0 16 70 56 16 73 7 0 0 0 3 16 28 41 43
46 48 47 56 55 40 46 51 53 60 52 48 59 59 60 64
61 68 83 94 97 99 99 99 99 100 104 108 110 113 116 119
122 122 122 122 122 123 123 122 120 114 96 83 79 90 97 98
87 82 92 88 95 93 85 80 84 79 78 80 82 81 79 61
30 3 0 0 0 0 0 0 0 0 0 0 0 0 0 0
0 0 2 0 1 0 0 0 0 0 0 0 0 0 0 5
5 13 11 12 14 16 19 19 17 4 0 0 0 0 0 6
22 8 12 42 34 21 75 16 1 21 46 65 68 66 64 62
64 58 59 64 65 57 51 55 57 60 56 47 58 55 58 62
63 60 80 90 96 101 101 100 100 99 103 106 111 113 118 121
122 122 121 123 123 114 118 122 120 105 87 78 83 93 97 94
93 83 94 90 95 93 86 87 93 91 86 85 81 75 76 76
73 67 39 11 0 0 0 0 0 0 0 0 0 0 0 0
0 0 0 0 0 0 0 0 0 0 0 0 0 0 0 0
24 27 25 22 24 24 23 23 21 17 17 21 24 14 6 4
18 18 12 15 11 10 65 45 54 67 71 73 75 75 75 75
78 74 70 68 74 74 66 66 61 65 67 53 60 56 58 61
62 62 69 87 93 99 104 103 101 100 102 105 109 113 116 121
122 122 122 123 122 122 122 122 114 95 80 78 90 97 98 92
99 84 96 91 95 97 88 93 100 101 96 88 79 81 86 82
77 76 75 71 56 24 3 0 0 0 0 0 0 0 0 0
0 0 0 0 0 0 0 0 0 0 0 0 0 0 0 0
27 29 28 26 27 28 28 23 22 20 23 26 26 11 13 6
33 11 7 18 23 26 53 64 71 72 75 77 79 80 77 82
82 81 80 82 76 80 81 79 70 77 78 72 71 66 61 58
61 61 64 78 92 97 103 103 102 102 104 104 106 111 115 120
121 122 122 122 123 122 122 115 99 84 77 84 91 97 96 94
101 84 98 93 99 97 90 97 100 93 87 82 90 95 90 79
79 80 79 78 77 74 58 17 0 0 0 0 0 0 0 0
0 0 0 0 0 0 0 0 0 0 0 0 0 0 0 0
33 33 33 32 30 26 29 22 17 17 18 15 9 2 13 5
2 0 11 24 30 57 71 72 75 78 80 82 84 85 82 87
88 85 81 86 80 78 87 86 83 78 81 88 82 84 80 71
60 62 67 81 84 93 100 105 103 102 102 104 107 111 115 120
122 122 122 123 123 122 115 97 84 79 80 88 95 99 92 101
102 86 100 95 99 95 94 102 101 90 89 93 100 96 84 82
84 84 81 83 85 84 79 72 40 3 0 0 0 0 0 0
0 0 0 0 0 0 0 0 0 0 0 0 0 0 0 0
32 33 33 33 30 23 23 17 12 11 11 9 0 0 13 5
0 7 9 31 54 74 79 77 81 82 84 84 86 86 85 87
91 89 87 89 85 78 90 92 88 76 85 93 83 87 89 85
70 60 61 70 85 86 98 103 105 107 108 107 109 111 117 119
122 122 122 122 122 113 96 84 80 79 88 94 97 96 95 104
100 87 99 98 100 97 97 102 101 91 90 97 100 95 82 81
86 84 79 87 89 88 85 81 80 58 8 0 0 0 0 0
0 0 0 0 0 0 0 0 0 0 0 0 0 0 0 0
30 35 35 35 24 16 10 8 7 7 10 7 8 11 5 1
6 18 19 51 70 85 82 81 84 83 83 85 89 90 88 86
93 94 91 91 88 79 89 94 88 78 90 92 84 85 88 89
86 67 59 61 67 86 88 101 109 108 109 111 112 115 119 122
123 123 123 119 106 93 85 83 79 84 93 96 98 93 102 107
101 88 99 99 101 98 99 102 101 87 90 98 99 94 78 86
89 86 83 93 95 91 87 85 86 84 66 19 0 0 0 0
0 0 0 0 0 0 0 0 0 0 0 0 0 0 0 0
8 7 12 19 23 13 7 6 7 6 10 7 20 22 2 7
2 24 50 57 79 88 84 85 86 86 83 87 92 91 90 84
90 95 93 92 91 80 88 91 86 83 93 92 85 83 89 88
89 84 64 57 60 65 85 94 103 110 113 116 117 118 119 120
119 113 102 94 86 84 83 80 85 90 92 95 94 100 105 107
99 85 99 99 101 98 100 103 101 84 93 100 100 89 80 91
92 83 82 97 98 95 90 88 91 91 84 75 33 0 0 0
0 0 0 0 0 0 0 0 0 0 0 0 0 0 0 0
26 21 17 16 13 3 2 1 1 1 10 18 58 29 25 14
1 43 55 63 85 89 86 88 87 85 81 87 91 93 91 86
90 94 94 94 93 81 85 92 87 88 94 94 85 90 85 90
91 88 83 64 57 57 68 79 79 94 98 101 103 102 100 98
93 91 87 84 84 82 80 85 92 97 97 94 99 104 106 108
99 87 100 100 101 100 101 103 95 84 98 101 98 87 83 94
94 78 86 101 101 99 93 92 93 93 90 84 71 7 0 0
0 0 0 0 0 0 0 0 0 0 0 0 0 0 0 0
28 28 26 22 12 4 5 1 0 0 63 56 36 35 45 37
26 55 57 67 87 90 88 88 89 86 83 88 90 95 92 89
85 94 96 95 96 86 82 92 93 93 97 96 85 89 92 87
90 90 90 85 69 58 60 61 67 74 74 83 82 87 84 83
85 83 81 81 82 81 85 93 94 94 91 95 105 106 107 106
99 90 100 101 101 102 102 103 91 88 102 102 98 88 88 96
94 71 91 100 100 99 95 93 93 95 91 87 81 39 0 0
0 0 0 0 0 0 0 0 0 0 0 0 0 0 0 0
29 28 27 21 11 10 10 6 7 6 57 71 31 35 50 49
53 56 58 71 86 91 90 88 93 87 81 88 88 96 94 91
89 94 96 96 96 91 81 91 94 96 96 96 85 86 96 92
89 88 90 92 88 83 70 61 67 67 66 65 74 75 75 76
74 77 80 80 82 87 94 95 95 94 97 101 104 106 107 105
98 90 100 103 102 103 104 99 87 94 102 101 95 89 94 98
90 69 94 103 102 101 95 92 94 95 91 88 84 79 23 0
0 0 0 0 0 0 0 0 0 0 0 0 0 0 0 0
27 26 20 13 9 9 9 8 9 7 46 84 26 33 48 50
54 56 60 74 87 91 92 91 93 85 81 88 88 94 95 94
88 94 97 96 95 95 84 90 95 97 97 97 87 85 96 94
93 88 89 90 90 88 85 74 85 79 74 78 78 78 79 80
82 81 88 88 91 94 95 93 89 102 104 101 105 107 106 104
99 90 99 102 101 103 103 98 90 96 104 101 96 96 95 98
82 72 96 104 104 102 96 91 95 96 89 90 83 86 73 8
0 0 0 0 0 0 0 0 0 0 0 0 0 0 0 0
28 25 13 9 9 8 8 8 8 8 25 89 28 33 48 56
56 58 59 76 86 90 93 93 94 86 77 88 87 94 97 95
89 95 99 97 97 97 88 88 96 98 96 98 89 85 97 97
95 96 94 89 92 89 89 84 87 82 86 86 86 86 87 87
86 89 90 93 93 95 92 94 104 104 100 102 105 107 107 105
98 90 98 103 102 103 103 95 90 95 103 102 98 97 96 95
73 74 98 102 104 103 95 88 96 98 89 92 83 93 86 53
0 0 0 0 0 0 0 0 0 0 0 0 0 0 0 0
28 24 12 8 8 8 8 8 8 7 14 102 33 35 53 64
60 56 56 77 87 89 93 93 95 87 78 89 88 94 97 96
93 92 98 97 97 98 94 86 97 98 97 98 89 86 95 98
95 94 98 96 90 87 90 91 92 91 90 91 89 89 90 92
92 92 92 93 89 91 100 105 103 101 99 104 107 107 106 104
98 88 98 103 102 102 102 96 92 95 101 103 99 98 96 91
65 75 98 102 104 101 94 86 96 97 92 92 87 98 91 85
23 0 0 0 0 0 0 0 0 0 0 0 0 0 0 0
29 25 12 9 8 8 8 8 7 7 6 41 26 28 62 67
64 59 59 79 89 90 94 95 95 86 76 90 90 93 99 99
97 93 99 99 97 98 97 87 95 96 96 98 90 88 95 98
96 94 96 97 99 93 80 75 84 89 91 91 91 92 92 93
90 88 88 92 99 104 106 105 103 99 99 105 106 106 105 103
98 89 96 103 101 105 103 96 91 94 101 103 100 98 95 85
64 78 99 103 105 102 93 85 96 97 94 90 92 99 94 92
71 4 0 0 0 0 0 0 0 0 0 0 0 0 0 0
28 25 13 9 9 8 8 8 8 8 6 2 8 36 66 65
64 61 62 81 91 92 94 96 95 86 77 89 93 93 100 99
97 94 96 98 98 99 99 90 95 96 98 99 89 90 95 99
97 95 96 99 99 99 101 93 77 76 75 79 77 80 82 88
88 95 100 105 105 104 105 104 99 97 102 106 107 106 104 102
98 90 94 103 103 103 101 94 92 97 102 102 101 97 93 80
64 78 101 102 105 101 92 84 95 98 97 87 97 100 97 98
91 47 0 0 0 0 0 0 0 0 0 0 0 0 0 0
22 25 14 9 9 8 8 8 9 13 10 1 15 58 67 67
65 63 62 82 93 92 94 97 97 86 75 87 93 91 101 98
98 97 97 98 98 100 99 95 95 96 97 97 90 90 95 96
98 98 98 99 99 101 101 100 100 98 96 97 96 95 98 100
100 101 102 105 104 104 105 102 98 100 103 105 106 105 102 103
99 91 93 103 102 103 102 93 92 99 100 101 102 100 89 79
63 81 101 102 105 102 92 84 95 98 98 88 98 99 99 98
95 85 22 0 0 0 0 0 0 0 0 0 0 0 0 0
13 16 12 10 9 9 8 8 11 20 16 2 38 66 71 70
64 60 60 79 94 94 94 98 97 86 74 87 94 91 101 98
98 97 97 96 97 99 99 97 96 95 99 94 91 91 95 96
97 99 97 99 101 100 101 100 100 100 100 98 100 102 102 101
100 101 102 104 104 104 102 98 99 101 104 105 105 104 104 103
98 91 91 102 102 102 99 92 94 101 103 102 101 97 88 77
64 81 101 101 103 101 91 85 94 99 96 92 100 100 99 100
98 95 72 5 0 0 0 0 0 0 0 0 0 0 0 0
12 11 6 12 16 17 9 7 12 21 22 15 57 66 74 77
68 62 59 74 95 95 95 96 96 83 73 85 92 91 99 99
97 97 98 97 97 98 98 97 95 97 98 94 93 91 95 96
97 98 97 99 100 101 102 101 100 101 101 101 100 99 101 102
102 101 104 104 103 105 103 99 99 101 104 106 104 103 102 101
98 92 91 99 102 102 99 93 95 102 102 100 102 97 87 76
67 84 101 99 101 99 89 84 93 101 94 97 100 100 101 100
97 97 89 48 0 0 0 0 0 0 0 0 0 0 0 0
13 10 6 15 23 21 9 6 13 22 23 40 65 72 76 81
77 63 58 69 93 95 96 97 97 81 73 85 95 91 97 99
97 98 98 99 98 97 98 96 95 96 97 93 95 92 95 96
99 100 99 100 100 101 101 101 101 100 100 101 101 101 101 101
102 102 104 103 102 103 101 99 100 103 105 105 104 104 101 102
98 92 91 99 102 102 100 95 94 102 103 103 101 94 87 75
67 86 102 98 101 97 89 85 94 100 89 100 99 100 101 101
101 99 95 82 21 0 0 0 0 0 0 0 0 0 0 0
21 16 10 18 25 20 8 6 14 22 25 57 67 72 77 81
86 67 60 65 90 95 95 96 97 77 70 84 95 92 97 98
96 98 99 98 98 97 98 97 96 97 95 94 95 93 95 96
100 99 99 100 100 100 102 101 101 101 101 100 100 100 100 102
103 103 104 103 102 101 101 100 102 103 106 104 103 101 102 101
98 92 89 97 103 101 99 96 94 101 104 103 98 90 87 75
70 91 101 95 99 97 90 89 93 101 90 101 100 101 101 100
100 99 95 90 68 3 0 0 0 0 0 0 0 0 0 0
25 25 18 21 24 18 7 6 16 23 37 64 69 76 81 78
89 77 59 62 89 94 95 96 97 76 67 83 94 92 94 98
95 98 97 96 95 95 95 97 95 96 94 96 96 94 95 98
99 99 97 100 101 99 100 99 99 100 102 100 100 101 102 103
104 104 103 104 103 102 100 100 101 102 104 103 103 101 102 101
99 93 89 97 102 101 100 95 94 100 104 103 97 90 87 73
72 92 102 92 97 95 89 93 95 99 87 101 101 100 102 101
102 100 98 94 87 40 0 0 0 0 0 0 0 0 0 0
25 25 22 20 23 17 7 6 14 24 53 65 70 77 82 77
88 84 59 59 87 94 95 95 95 73 66 82 95 92 93 98
94 95 97 97 96 96 97 96 96 95 94 96 95 93 95 97
97 99 99 100 101 100 101 100 101 101 100 101 101 101 101 102
101 102 103 104 103 103 101 102 102 102 103 101 104 100 101 100
98 93 88 95 101 100 97 95 95 101 107 103 95 89 86 72
74 94 101 90 96 92 88 95 96 98 85 100 100 101 100 100
101 101 99 97 93 79 11 0 0 0 0 0 0 0 0 0
25 24 22 18 22 15 6 6 11 33 62 68 74 78 81 81
84 87 60 58 84 94 95 95 95 71 62 80 97 92 93 100
96 96 97 97 94 95 95 96 96 95 94 95 95 95 96 98
99 98 100 101 100 100 100 101 100 100 101 101 101 102 103 103
104 103 102 102 104 103 100 101 102 102 103 102 102 99 102 101
97 94 87 92 100 97 94 94 98 102 105 102 94 87 85 72
76 95 100 86 96 91 89 94 96 94 88 99 99 100 99 100
101 100 100 98 95 89 57 0 0 0 0 0 0 0 0 0
25 25 24 18 20 14 7 6 10 48 65 69 73 78 81 83
85 87 63 57 81 93 94 96 97 69 62 79 96 93 91 97
95 96 97 98 97 95 96 97 97 96 95 96 96 95 95 97
98 99 100 99 100 101 100 101 101 102 101 101 102 102 102 102
103 102 102 103 102 102 101 101 102 103 103 101 100 99 100 98
95 92 88 93 99 95 96 98 103 105 107 101 93 87 82 72
78 96 98 85 92 90 93 95 97 89 86 99 99 97 97 100
100 99 100 99 96 93 84 25 0 0 0 0 0 0 0 0
25 24 23 20 17 11 6 6 19 61 67 70 78 78 82 86
87 85 68 55 77 94 93 97 95 64 61 79 95 93 94 100
97 96 98 98 97 96 98 98 98 97 97 95 97 97 96 97
99 99 100 99 100 101 100 101 101 101 102 101 103 103 102 103
104 103 103 103 102 101 99 101 103 102 102 100 100 101 99 99
91 92 91 93 98 100 99 101 104 104 104 99 93 88 80 74
82 97 97 84 90 89 95 95 96 87 86 98 97 97 100 100
99 99 101 100 100 96 91 67 1 0 0 0 0 0 0 0
25 24 23 23 18 10 6 7 40 64 69 73 77 80 83 88
89 88 74 51 74 96 94 98 96 61 61 78 95 94 93 99
99 96 97 97 96 95 97 98 98 96 96 96 97 97 96 97
98 98 99 99 100 102 101 102 101 101 102 101 103 102 102 102
104 103 103 102 102 101 100 101 102 102 102 102 100 100 100 97
88 92 93 96 100 103 103 104 103 104 102 98 94 88 79 76
83 97 96 82 88 91 95 95 96 76 88 99 98 98 98 99
99 99 99 100 99 96 95 88 27 0 0 0 0 0 0 0
25 24 23 22 18 9 6 11 57 65 71 72 79 83 84 88
88 90 78 53 69 95 93 97 93 60 60 77 96 96 94 98
99 96 97 98 97 96 97 97 97 96 96 95 97 97 97 96
98 100 100 98 101 101 102 102 101 101 101 100 103 103 104 103
103 103 104 103 101 101 101 103 103 101 102 102 99 99 97 91
88 94 97 99 101 103 104 104 102 103 100 98 93 88 77 78
87 98 96 83 83 93 96 94 97 71 88 98 98 98 97 100
98 100 100 100 99 99 97 94 71 3 0 0 0 0 0 0
