P2
128 120
125
17 20 40 38 31 31 31 31 30 30 30 30 29 29 29 28
28 28 28 28 27 27 27 26 26 26 26 25 24 24 23 23
23 22 22 21 22 22 22 21 21 20 20 19 20 19 19 18
18 17 18 17 17 17 17 18 18 19 21 24 25 24 23 16
14 23 15 18 20 19 19 19 18 18 18 16 17 17 16 14
17 19 20 20 20 20 20 20 20 20 20 20 21 20 21 20
20 20 20 21 21 21 21 20 22 22 21 21 22 22 23 22
22 23 23 23 23 22 23 22 23 23 23 23 23 23 23 24
35 36 36 34 31 31 31 30 30 30 30 30 29 30 29 29
29 28 28 28 27 27 26 26 26 25 25 24 25 24 24 24
23 23 23 21 22 22 22 21 21 20 20 20 20 19 19 19
20 19 19 19 18 18 18 18 18 18 21 24 24 24 23 16
14 24 18 18 21 20 20 19 19 18 19 17 17 17 17 14
18 19 20 20 21 20 20 19 20 20 19 19 19 19 20 20
21 21 21 21 21 21 22 21 22 21 22 22 22 22 23 22
22 23 23 23 23 23 24 23 23 22 23 24 24 22 23 24
29 30 32 33 32 32 32 31 31 31 31 30 30 29 29 29
29 28 28 28 27 27 27 26 26 26 26 25 25 25 25 24
24 23 23 23 23 22 22 22 22 21 21 20 20 20 20 19
19 19 18 18 18 18 18 18 19 20 22 25 25 25 25 17
14 25 20 17 21 20 20 20 20 19 19 17 18 18 18 15
18 19 21 21 20 20 20 19 20 21 20 21 21 21 22 21
21 21 22 21 21 21 22 22 22 22 22 22 23 23 24 24
24 24 24 23 23 24 23 24 23 23 23 24 24 23 23 25
13 17 21 25 28 31 32 32 32 31 31 30 30 29 29 29
29 29 28 28 28 27 26 26 26 26 25 26 25 25 25 24
24 23 23 23 23 22 22 22 21 21 21 20 20 20 20 20
19 19 19 19 19 19 19 19 19 19 21 25 25 25 24 16
15 25 22 16 21 21 21 20 20 20 19 18 18 18 17 14
18 19 20 20 20 21 21 21 21 21 21 21 21 21 22 22
22 22 22 21 21 22 22 22 23 22 22 23 23 23 23 23
23 23 23 24 23 23 24 24 24 24 24 23 24 23 24 24
9 11 11 11 11 13 15 18 23 27 30 31 31 30 29 29
28 28 28 28 27 27 26 26 26 26 26 26 25 25 25 25
24 23 23 23 23 23 22 22 22 22 21 21 21 20 20 20
20 19 19 19 19 18 18 19 19 20 22 26 26 25 25 17
15 25 24 15 22 21 21 20 20 20 20 17 18 19 17 14
19 20 22 21 21 21 21 21 21 21 21 22 21 22 22 22
22 22 22 21 21 21 22 22 22 22 23 23 23 23 23 23
23 24 24 24 23 24 23 23 23 23 23 24 24 24 25 25
11 11 10 9 9 10 9 10 10 10 11 13 17 21 29 28
29 28 28 28 27 27 27 26 26 26 25 25 24 25 24 24
24 23 23 23 22 22 22 21 21 21 21 21 20 20 20 20
20 19 20 19 19 19 19 19 18 20 21 25 25 24 24 17
14 25 25 15 22 21 22 21 20 19 19 18 18 18 18 15
19 20 21 21 21 21 21 21 21 21 21 21 21 21 22 21
21 21 21 22 22 22 22 22 23 23 22 23 22 22 23 23
22 22 23 23 23 23 22 23 23 23 23 23 24 24 23 22
31 25 11 13 9 9 9 10 9 10 6 1 4 12 28 29
28 27 27 26 26 26 27 26 26 25 26 25 25 24 24 23
24 23 22 22 23 22 22 22 21 21 21 20 20 20 20 20
20 19 19 18 18 18 18 18 18 19 21 25 25 24 24 17
14 24 25 14 21 21 20 20 19 19 19 17 19 18 18 15
19 20 21 21 21 21 21 21 20 20 21 21 21 21 22 21
22 21 21 20 21 21 21 21 22 22 21 22 22 22 23 22
22 22 22 23 22 22 22 22 22 21 21 20 20 22 22 22
42 38 17 24 24 22 14 9 8 8 8 7 7 11 26 27
28 27 27 27 26 25 26 26 26 25 25 24 24 24 23 23
23 22 22 22 22 22 22 21 21 21 21 20 20 19 19 19
19 19 18 18 18 18 18 18 18 19 20 23 23 23 24 16
14 24 26 13 21 21 20 20 19 18 19 17 18 17 17 14
19 19 20 20 20 20 21 21 20 20 20 20 21 21 21 21
21 21 21 20 21 21 21 21 21 21 22 22 22 21 22 21
21 20 21 21 21 21 21 21 21 21 22 23 22 22 22 21
43 38 23 29 32 35 30 32 31 25 17 6 6 9 26 27
26 26 26 25 24 29 28 26 26 25 24 24 24 23 23 23
23 22 22 21 21 21 20 22 31 30 27 23 22 20 18 18
18 18 17 18 17 17 18 17 17 19 20 24 23 23 23 16
14 24 25 12 19 19 19 19 18 18 18 17 17 18 17 14
19 18 20 20 20 20 20 19 20 19 20 20 20 20 20 20
20 20 20 20 20 21 21 20 21 21 21 21 21 20 20 20
20 20 21 21 21 21 21 21 20 20 21 21 21 21 21 20
43 39 29 31 34 37 31 38 39 38 35 8 7 11 27 27
27 27 26 26 27 37 36 34 32 29 27 25 23 23 23 23
23 22 21 21 22 22 21 24 34 31 29 28 28 26 22 19
19 18 18 18 18 18 18 17 18 19 21 24 24 23 23 16
13 23 25 14 18 20 20 20 19 19 19 17 18 17 17 15
19 18 21 20 20 20 20 20 20 20 20 20 21 20 20 20
20 20 20 21 20 20 20 21 21 21 20 21 21 20 20 20
20 21 21 20 21 21 20 22 21 21 21 21 21 21 21 21
13 38 31 33 36 37 38 40 40 40 39 10 8 14 29 29
28 27 26 26 28 36 35 34 31 30 30 31 33 27 26 24
23 23 21 21 22 21 21 24 31 30 28 27 27 28 25 19
18 18 19 18 18 18 18 18 18 19 20 24 24 24 23 17
14 22 25 14 16 21 20 20 19 19 20 17 18 18 18 15
20 19 21 21 21 21 21 21 21 20 20 20 20 20 21 21
21 20 20 20 21 21 22 21 20 21 20 20 21 20 20 21
21 21 22 21 21 21 20 22 21 21 21 21 22 21 21 21
7 37 31 34 35 37 38 40 40 40 39 13 8 16 32 31
30 29 29 27 29 37 35 35 32 32 34 35 35 28 30 30
30 26 24 23 23 22 22 24 20 18 21 25 27 28 26 19
19 19 19 19 19 19 18 19 19 20 20 24 24 23 21 14
11 9 25 16 15 21 21 21 20 20 21 18 18 19 18 16
20 19 21 20 21 21 21 21 21 21 21 21 20 20 20 20
20 20 21 21 21 21 22 21 21 21 20 21 21 21 21 21
20 20 21 21 21 20 21 22 21 21 22 22 22 22 21 21
10 36 22 28 31 35 38 39 40 39 38 13 8 17 33 31
28 30 31 31 32 17 7 15 27 32 35 36 35 24 9 15
22 26 29 26 29 28 25 24 15 5 4 4 6 10 20 21
20 20 20 20 19 19 19 18 19 20 21 25 25 25 20 10
11 12 25 19 14 21 21 20 19 19 21 18 19 19 18 16
21 19 22 22 21 21 21 21 20 20 21 21 20 21 21 21
22 22 22 21 21 21 23 21 21 21 21 21 21 22 21 21
22 21 21 21 21 21 21 22 21 21 21 21 21 21 21 21
13 36 5 0 4 8 19 26 30 33 38 14 9 16 33 32
26 23 27 35 38 14 0 0 3 11 12 14 25 20 0 0
0 1 5 9 17 23 27 26 15 2 1 3 3 0 10 22
20 19 20 19 19 20 19 20 20 20 21 26 26 25 23 17
15 23 26 20 14 22 21 20 19 19 22 19 19 19 19 16
20 18 21 21 21 21 21 21 21 21 21 21 21 21 21 21
22 21 21 21 21 21 22 21 21 22 21 21 22 21 22 21
21 21 21 21 21 22 21 23 22 22 21 22 21 22 21 21
12 38 4 0 0 1 0 0 0 1 34 14 10 12 19 26
31 33 33 36 38 15 0 0 0 4 7 7 17 21 0 0
0 0 0 0 0 0 3 26 14 0 0 0 2 0 10 23
21 21 20 20 20 20 20 19 20 21 22 26 26 25 25 18
16 25 27 22 12 21 22 21 20 20 21 19 20 19 19 16
20 18 22 21 21 22 22 22 21 22 21 22 21 22 22 21
21 21 22 22 22 21 22 22 22 22 22 21 22 22 22 22
22 22 22 22 21 22 21 22 22 21 21 21 21 22 22 22
12 37 2 0 0 0 0 0 0 0 33 14 9 4 0 0
2 9 17 25 33 17 0 0 0 0 2 1 15 22 0 0
0 0 0 0 0 0 1 27 11 0 0 0 0 0 11 24
21 20 20 20 20 20 20 20 21 21 23 26 27 26 25 18
17 25 27 23 12 21 22 22 21 20 21 19 20 20 19 16
21 19 22 22 22 22 22 23 22 22 22 22 22 22 22 22
22 22 22 21 21 21 22 23 21 22 22 22 22 21 22 22
23 21 21 21 21 22 21 21 22 23 22 22 22 21 22 22
13 38 2 0 0 5 2 0 0 0 34 14 10 4 0 0
0 0 0 0 1 15 0 0 0 0 0 0 12 21 0 0
0 0 0 0 0 0 0 27 7 0 0 0 0 0 12 25
21 21 21 20 20 20 20 21 21 22 22 26 26 26 25 19
17 26 28 24 13 21 22 21 21 20 21 19 19 19 20 17
21 20 23 22 23 22 22 23 22 22 22 22 21 22 22 22
22 22 22 22 23 22 23 23 23 22 22 22 22 22 22 22
22 21 22 22 22 22 21 23 22 22 21 21 22 22 21 23
14 37 1 0 0 7 7 0 0 0 35 13 10 4 0 0
0 0 0 0 0 11 0 0 0 0 0 0 16 21 0 0
0 0 3 1 0 0 0 27 6 0 0 0 0 0 13 26
20 20 21 20 20 20 20 20 21 22 22 26 27 26 25 19
17 26 27 23 14 19 22 22 22 21 22 20 20 20 20 16
21 19 23 22 22 22 22 23 22 22 22 22 22 22 22 22
22 22 22 22 22 22 23 23 22 21 23 22 22 23 22 23
22 22 22 22 21 22 22 22 22 22 22 22 22 22 22 22
14 36 1 0 0 1 13 0 0 0 34 12 10 4 0 0
0 0 0 0 0 10 0 0 0 0 0 0 18 23 0 0
0 0 6 5 2 0 0 26 5 0 0 0 0 0 10 27
22 22 22 21 21 21 21 21 21 22 22 27 27 27 25 19
17 26 27 24 15 17 23 22 21 20 21 19 20 20 19 15
22 20 24 23 23 23 23 23 22 22 22 22 22 22 22 22
22 22 22 23 23 23 24 22 22 22 22 22 23 23 23 22
22 22 22 22 23 23 22 22 21 22 22 22 23 22 23 22
14 34 0 0 0 0 1 0 0 0 35 12 10 4 0 0
0 5 1 0 0 8 0 0 0 0 0 0 16 25 0 0
0 0 6 7 6 5 0 25 6 0 0 0 0 0 9 27
21 21 21 21 21 21 21 21 22 22 23 27 27 27 25 18
17 25 27 25 17 15 23 22 22 20 20 19 20 20 20 16
21 19 23 23 23 22 22 23 22 22 23 23 23 23 23 22
22 22 23 23 23 23 23 22 23 23 23 23 22 24 23 22
23 22 22 22 22 22 22 23 22 23 23 23 24 23 23 22
16 32 0 0 2 0 0 0 0 1 35 11 10 4 0 4
1 2 0 0 0 8 0 0 0 0 0 0 16 26 0 0
0 0 6 7 6 5 0 24 7 0 0 0 0 0 8 28
21 21 21 21 21 21 21 21 22 23 23 27 26 26 26 19
18 25 27 26 19 14 22 22 21 20 21 19 20 20 20 16
22 20 23 23 23 23 23 23 22 22 22 23 22 22 23 23
23 23 24 23 24 24 24 24 23 23 23 23 23 23 22 22
23 23 23 22 23 23 23 23 23 22 23 23 22 22 20 22
24 31 0 0 0 0 0 0 0 2 35 11 11 4 3 3
0 1 0 0 0 8 0 0 0 0 0 5 19 27 0 0
0 0 0 4 6 4 0 24 24 15 8 4 1 0 8 28
21 22 22 21 21 21 21 21 22 23 24 27 26 28 26 19
19 27 27 25 20 14 22 22 22 21 22 20 21 20 20 17
22 20 24 23 23 23 23 23 22 23 23 22 23 23 24 23
24 23 23 23 23 22 22 23 22 23 23 23 23 23 24 23
23 23 22 23 23 22 22 23 23 23 23 23 23 23 22 22
32 45 34 16 18 22 19 15 13 13 35 11 11 4 1 0
0 0 0 0 0 17 5 1 1 0 0 2 19 36 21 15
10 5 1 0 1 2 0 23 32 32 29 29 29 29 31 29
22 22 22 22 22 21 22 22 22 22 23 27 26 27 24 20
20 28 26 25 20 13 22 22 22 21 22 20 21 21 21 18
23 20 24 23 23 24 24 23 23 23 23 22 23 23 24 23
23 23 23 23 23 24 24 24 23 23 23 23 24 23 23 24
23 23 24 23 23 24 23 24 23 23 23 23 22 22 23 22
43 54 44 21 29 34 40 39 38 36 32 11 10 4 0 0
0 0 0 0 1 36 38 27 26 24 18 11 22 40 18 20
24 26 25 22 17 15 12 29 32 31 30 30 34 37 38 30
22 22 21 22 23 23 22 22 22 22 23 27 26 26 23 21
21 26 26 25 22 15 21 23 22 21 22 20 21 21 20 18
23 20 24 24 23 22 23 23 24 24 24 23 24 24 24 24
24 24 23 24 24 23 23 22 23 23 23 23 23 23 24 24
23 23 23 24 23 23 23 22 23 23 23 23 23 23 23 23
52 55 38 22 30 37 41 39 42 41 33 11 11 4 0 0
0 0 0 0 1 38 40 30 36 37 42 40 40 36 8 7
9 8 9 10 12 17 23 28 20 22 27 28 33 35 37 30
22 22 23 23 22 22 21 22 23 21 17 20 24 24 24 26
24 21 17 18 19 15 20 23 22 21 22 21 22 22 20 18
22 20 24 23 23 23 24 24 24 24 24 24 24 23 24 25
24 24 23 24 25 24 24 23 24 23 24 24 24 24 24 24
23 23 23 23 23 23 22 22 22 21 22 23 21 23 21 23
49 49 27 22 33 40 41 40 44 43 35 12 12 12 11 6
2 0 0 0 2 39 30 33 39 41 44 42 33 26 9 9
8 7 7 6 6 5 4 3 4 7 10 15 24 21 19 21
22 22 22 22 22 22 25 21 19 16 17 24 27 30 31 37
33 31 23 14 10 10 12 19 23 22 22 21 22 23 20 19
23 20 24 24 24 23 24 23 24 24 24 24 24 24 24 25
24 24 24 23 24 24 23 23 24 23 24 24 24 24 23 24
22 23 22 22 21 22 22 22 22 20 19 17 15 13 11 9
49 45 13 0 3 6 9 12 15 24 34 11 11 21 39 40
37 29 23 17 16 36 25 33 38 40 44 43 37 29 12 9
9 7 5 4 4 4 3 3 4 4 4 10 23 20 21 20
21 23 23 22 22 18 17 20 20 23 28 30 29 28 28 26
29 35 39 32 16 14 8 6 9 19 23 20 21 22 20 19
24 21 25 24 24 24 24 24 24 24 24 24 23 22 23 24
23 23 23 24 24 24 24 24 24 24 24 25 25 25 24 24
22 21 24 19 14 13 11 9 8 7 7 6 7 7 7 8
48 46 12 0 0 0 0 0 0 6 33 12 12 22 39 41
41 39 39 39 42 35 12 20 28 33 38 40 36 33 14 10
8 5 2 3 4 5 5 4 6 6 6 14 18 1 16 23
22 22 21 16 9 9 16 21 25 26 30 30 34 32 29 27
27 30 35 45 37 32 17 17 9 5 11 20 20 20 20 18
24 21 25 25 24 24 23 23 23 23 24 24 23 23 22 25
24 24 24 24 25 25 24 24 23 21 19 18 15 13 12 10
9 9 22 16 3 6 8 9 9 9 10 10 11 11 12 12
48 46 9 0 0 0 0 0 0 5 33 12 10 19 39 42
41 40 41 40 42 30 0 0 0 2 6 12 16 32 15 8
6 1 0 0 0 5 8 6 3 8 10 15 25 27 27 30
27 26 10 4 12 17 23 24 26 31 31 28 27 29 26 23
21 22 33 49 63 53 41 45 32 18 9 9 17 19 21 20
24 21 24 24 23 23 23 22 22 21 21 22 23 24 24 24
24 22 22 20 18 16 14 12 11 9 9 9 9 9 10 10
11 10 16 11 5 10 12 14 14 15 15 16 16 17 17 17
44 43 7 0 0 0 0 20 19 18 29 20 16 20 31 33
33 35 36 38 41 25 0 0 0 0 0 3 12 34 14 7
6 1 0 0 0 0 1 0 0 1 2 9 28 28 21 23
23 11 7 14 21 28 26 23 25 32 31 30 31 27 21 19
20 23 29 37 56 63 55 48 44 34 21 14 6 12 21 19
22 20 21 22 21 21 20 20 21 19 10 20 19 17 16 13
12 12 11 11 10 11 11 12 12 13 13 14 15 15 15 16
16 16 21 17 10 15 17 18 18 19 19 20 20 20 20 19
41 40 5 0 0 0 1 21 21 16 21 20 16 18 19 21
24 27 25 30 38 24 0 0 0 0 0 0 6 35 12 6
4 0 0 0 1 0 0 0 0 0 0 6 28 28 17 15
8 9 14 19 16 18 20 23 31 35 36 32 26 30 35 34
28 26 27 36 50 69 72 55 52 39 22 13 7 6 13 19
19 21 22 21 20 19 17 16 14 12 7 10 11 11 12 13
13 13 15 15 16 16 16 17 17 18 18 19 19 20 19 20
19 18 19 16 11 19 20 20 21 21 21 22 22 22 22 21
41 39 3 0 0 0 0 16 20 19 21 18 14 18 16 17
20 25 24 28 37 22 0 0 0 0 0 0 2 37 6 2
0 0 0 0 5 1 0 0 0 0 0 6 29 30 14 6
7 4 6 10 11 19 31 31 31 35 33 38 38 38 34 29
24 22 28 32 50 64 74 75 64 46 33 16 12 7 4 12
15 15 16 12 12 12 12 13 14 13 14 15 16 16 17 18
19 19 19 20 20 21 21 20 20 21 21 21 22 21 22 21
20 19 4 3 10 21 22 22 22 22 22 22 22 22 23 22
43 39 2 0 0 0 0 0 0 2 18 13 12 16 17 22
26 29 29 34 38 21 0 0 0 0 0 0 5 36 2 0
0 0 0 0 3 9 2 0 0 0 0 5 29 30 10 4
2 4 9 9 17 23 23 23 29 26 31 29 29 27 22 23
26 35 37 35 37 56 72 86 65 60 40 24 17 7 6 5
14 14 15 15 15 15 16 17 18 19 19 18 20 21 22 22
22 22 23 23 23 23 23 23 23 23 23 23 23 23 23 22
22 18 0 0 6 20 23 23 24 23 23 23 24 23 24 23
44 39 2 0 0 0 0 0 0 3 23 15 16 11 0 1
3 6 10 15 20 18 0 0 0 0 0 0 6 36 2 0
0 0 0 0 2 11 6 5 0 0 0 5 28 26 5 1
3 5 5 10 13 14 20 21 23 32 31 28 32 31 35 34
35 31 24 28 43 51 73 81 76 72 53 36 20 10 6 3
12 14 19 21 20 19 20 21 21 21 22 22 22 22 22 22
23 23 24 24 24 24 24 24 24 24 24 24 23 11 7 4
12 14 4 1 6 20 23 23 23 23 23 23 23 23 23 23
44 38 1 0 0 2 2 0 0 3 28 21 19 13 0 0
0 0 0 0 0 14 0 0 0 0 0 0 7 33 0 0
0 0 0 7 11 13 8 9 0 0 0 6 26 10 0 1
2 4 5 5 10 12 13 19 33 37 33 33 39 36 35 32
29 27 28 35 49 65 83 96 96 86 68 42 28 18 14 6
8 14 20 21 22 21 22 22 22 22 23 24 24 24 24 24
24 24 24 24 24 24 24 25 24 23 24 25 21 3 3 6
13 14 0 0 5 21 23 24 24 23 24 24 23 23 24 23
43 37 1 0 0 1 4 0 0 3 33 23 18 13 0 0
0 0 0 0 0 13 0 0 1 5 0 0 7 32 0 0
0 0 0 6 9 16 1 1 0 0 0 4 17 1 0 0
1 2 2 7 8 9 16 25 28 33 35 38 42 37 35 34
33 41 46 56 76 93 107 111 112 100 81 65 56 39 26 22
10 4 21 22 24 23 23 23 22 23 24 24 24 24 24 24
25 25 25 25 24 25 24 25 24 24 24 25 24 23 23 23
22 18 0 0 5 20 22 22 23 22 23 23 22 22 22 22
35 33 8 0 0 2 9 2 0 2 34 22 19 13 0 0
0 2 0 0 0 13 0 0 8 13 4 0 7 30 0 0
0 0 0 0 0 12 0 0 0 0 0 2 7 0 0 2
1 2 5 6 8 8 15 23 28 28 37 42 39 41 44 42
49 59 75 97 108 114 116 117 117 112 107 100 95 82 68 37
15 7 18 22 24 23 22 23 23 24 24 24 25 24 24 24
24 24 24 24 24 24 25 25 24 25 25 24 24 23 22 21
21 17 3 0 6 19 22 22 24 22 22 23 22 23 23 22
36 34 29 29 23 16 24 20 14 11 36 19 16 12 0 0
4 14 1 0 0 13 0 0 11 11 7 0 8 29 0 1
0 0 0 0 0 14 0 0 0 0 0 0 1 0 0 0
4 2 4 4 6 12 20 21 22 24 38 42 45 46 52 66
80 99 110 114 117 117 117 117 117 117 117 116 116 112 103 76
43 22 12 21 23 24 23 23 23 25 23 24 24 24 24 24
24 24 24 25 25 25 25 25 24 25 24 25 24 23 23 22
21 18 6 0 10 21 23 23 23 23 22 22 22 21 22 21
37 34 21 18 19 28 33 39 40 40 40 24 14 12 0 0
9 16 3 1 0 25 21 21 25 22 21 13 16 28 0 0
0 0 0 0 0 14 0 0 0 0 0 1 0 0 0 2
1 2 3 4 11 17 18 15 19 33 46 50 58 73 85 101
108 116 117 117 117 117 117 117 117 117 117 116 116 116 115 110
88 37 12 17 23 24 22 23 24 24 25 25 24 24 24 24
24 24 24 24 24 24 24 23 24 24 24 24 23 23 23 22
20 17 12 6 15 21 22 23 23 23 23 22 22 22 22 22
39 35 14 0 0 0 3 9 25 42 39 23 14 13 0 0
2 2 0 0 0 28 33 34 38 36 36 40 43 32 1 0
1 0 0 0 0 16 0 0 0 0 0 0 0 0 1 2
1 3 5 10 13 13 10 13 30 48 57 66 84 99 109 116
118 118 117 117 117 117 117 116 117 116 116 116 116 116 116 116
115 88 22 10 23 24 24 24 24 24 24 24 23 23 23 24
24 24 25 24 24 24 25 24 24 24 24 23 23 23 23 22
20 16 15 15 19 22 22 23 23 22 22 22 21 22 22 22
40 35 12 0 0 5 19 2 23 40 36 22 16 16 6 1
0 0 0 0 0 28 34 36 37 36 38 43 44 38 21 19
20 12 9 9 8 19 5 4 2 2 2 0 0 1 2 0
0 3 9 11 9 8 11 21 39 54 76 96 110 116 117 118
117 117 117 117 117 117 116 117 117 117 116 117 117 116 116 116
115 111 55 10 19 23 23 24 24 24 24 24 24 24 24 24
24 24 24 24 24 24 24 24 23 24 23 23 24 22 23 22
21 18 18 19 22 22 22 22 23 22 23 22 22 22 22 22
42 37 11 0 0 5 28 16 30 38 31 18 17 18 14 0
0 0 0 0 0 26 29 32 33 34 36 41 42 39 28 29
29 28 26 27 26 24 21 19 16 15 7 0 1 2 0 0
1 5 10 9 7 10 14 33 55 86 107 111 116 117 118 118
117 117 117 117 117 117 117 117 117 117 116 116 116 117 116 116
116 116 78 17 17 24 24 25 24 23 23 23 23 23 24 24
24 24 24 23 24 25 25 25 24 25 24 24 24 23 22 22
21 20 20 22 24 23 23 23 24 22 22 23 22 22 22 22
44 38 11 0 0 0 13 19 33 39 28 17 19 19 4 0
0 0 0 0 0 29 29 30 31 32 31 28 25 26 29 29
30 30 27 28 28 28 27 26 24 21 8 0 1 0 0 0
4 7 8 6 8 9 21 47 83 105 113 117 118 117 118 117
117 118 117 117 118 117 117 118 117 118 118 118 117 117 116 117
116 116 93 21 19 23 24 24 24 24 24 25 25 25 25 24
24 24 25 25 24 24 24 24 24 24 24 24 24 23 23 23
23 21 22 23 23 23 23 22 23 22 23 23 23 22 22 22
45 40 14 0 0 0 0 3 32 39 26 19 19 18 7 2
2 0 0 0 0 30 31 29 29 29 29 29 28 29 31 31
33 35 34 32 29 29 28 29 34 32 6 0 0 0 0 1
2 6 4 5 5 11 30 66 96 113 117 118 118 117 117 117
117 117 117 118 117 117 118 118 117 117 117 117 117 117 117 117
116 117 106 28 19 24 25 25 24 24 24 24 25 25 25 24
24 24 24 24 25 24 25 25 25 24 24 24 23 23 23 23
22 21 22 23 23 22 23 22 23 23 23 23 22 22 21 22
44 41 13 0 0 0 0 0 29 40 26 20 18 21 33 33
32 27 27 27 23 37 34 31 31 31 31 31 33 36 35 33
35 39 41 33 29 26 28 33 37 33 6 0 0 0 0 0
3 0 4 3 11 19 46 78 99 114 119 118 118 118 117 118
118 118 118 118 118 117 118 118 118 118 118 118 118 118 118 118
117 117 112 34 21 25 25 25 25 24 25 24 25 25 25 25
24 24 24 24 24 24 25 24 23 24 24 24 24 24 24 24
23 23 24 23 23 23 23 23 23 23 23 23 22 23 22 22
44 41 10 0 0 0 0 1 32 41 25 20 20 22 42 44
45 43 44 45 45 44 37 33 31 32 32 34 38 40 38 34
37 40 38 31 31 27 23 30 37 34 7 0 0 0 0 2
0 3 4 6 10 29 53 77 100 117 119 118 118 118 118 118
118 118 118 118 119 118 118 118 118 118 118 118 118 118 118 117
117 117 116 53 23 26 25 25 24 24 24 24 25 25 25 25
25 25 24 24 25 25 25 25 24 25 25 25 24 24 24 24
23 23 24 24 24 24 24 24 24 23 24 23 23 23 23 23
44 39 8 0 0 0 0 1 31 42 27 18 21 21 42 46
44 45 45 45 46 46 33 19 22 17 18 21 28 37 39 34
32 24 27 31 28 27 25 24 21 14 6 0 0 0 2 1
0 1 3 7 13 32 51 81 105 115 119 118 119 118 118 118
119 119 118 118 119 118 118 118 118 118 119 119 119 118 118 118
118 118 117 74 25 27 26 25 25 25 25 25 26 26 26 26
24 24 25 24 24 24 25 25 24 24 25 24 24 24 23 23
24 24 23 24 23 22 23 23 24 23 23 23 23 23 23 23
44 41 7 0 0 0 0 0 29 38 22 17 21 17 23 26
26 27 28 30 32 34 24 0 1 0 0 0 1 16 39 33
16 1 4 6 8 10 26 26 11 1 0 1 0 0 4 0
0 2 5 7 19 32 61 90 105 113 119 119 119 118 118 119
119 118 118 118 118 119 118 118 118 118 118 118 118 118 118 118
117 117 117 89 25 26 30 26 26 25 26 26 25 26 25 25
24 24 24 24 24 24 25 24 24 24 24 24 23 24 23 24
23 24 24 24 23 24 23 23 24 24 23 23 23 23 22 22
44 40 7 0 0 0 0 0 27 39 23 16 20 17 27 29
28 27 27 25 25 26 20 2 0 0 0 0 2 13 38 27
2 0 0 0 2 9 29 28 11 0 0 0 0 0 1 0
1 2 4 10 17 36 67 94 105 110 116 119 119 118 118 119
119 119 118 119 118 118 118 119 118 117 118 118 118 118 118 118
118 118 118 99 26 25 26 25 25 25 25 25 25 25 25 25
24 24 23 23 24 23 23 23 24 23 23 23 23 23 22 23
23 23 23 23 23 23 23 22 22 24 23 22 23 22 23 22
43 40 8 0 0 0 0 0 31 41 24 15 19 18 31 32
33 33 32 31 31 32 20 1 1 0 0 0 6 22 37 17
0 0 0 0 0 5 30 27 12 0 0 0 0 0 0 1
2 2 4 10 19 45 74 99 104 105 113 118 119 118 118 118
118 119 118 118 118 118 118 118 119 118 118 118 118 117 118 118
117 117 117 106 29 25 26 25 25 25 25 24 24 23 23 22
21 20 19 20 21 22 24 24 24 20 11 11 9 7 6 8
17 23 23 23 22 22 23 23 22 22 23 22 22 21 21 21
33 24 6 1 0 0 0 0 32 41 23 14 20 19 32 34
34 33 34 33 34 35 23 2 2 0 0 0 1 11 36 11
0 0 0 0 0 3 29 27 12 0 0 0 0 0 0 3
2 1 5 9 22 47 84 104 104 103 111 118 119 119 119 119
119 118 118 118 119 118 118 118 119 119 118 118 118 118 119 118
118 117 117 111 33 25 25 25 25 25 25 16 9 8 7 6
4 3 1 1 4 16 23 23 23 18 1 0 1 1 0 1
16 24 24 24 23 23 23 22 22 23 22 22 22 21 21 21
36 33 34 33 28 26 21 18 33 34 22 17 21 19 18 22
23 25 27 29 32 37 23 0 0 0 0 4 3 9 34 7
0 0 0 0 0 4 30 25 10 0 0 0 0 0 1 1
0 2 4 10 26 59 101 110 106 107 111 116 118 118 118 118
118 118 118 118 118 118 118 119 118 118 118 118 118 118 118 117
117 117 117 113 36 24 25 25 24 24 23 7 0 1 4 4
2 0 0 0 0 12 23 23 23 18 2 1 0 1 0 1
16 23 23 23 23 22 23 23 22 21 22 22 22 21 21 21
36 36 36 35 34 35 34 34 34 34 33 32 32 30 27 25
23 21 3 1 10 35 30 5 0 0 0 1 1 6 34 6
0 0 0 0 0 5 30 25 9 1 0 1 0 0 0 0
2 1 4 12 36 83 108 110 108 111 113 117 119 119 119 119
115 110 110 114 118 117 117 118 118 118 118 118 118 118 118 118
117 112 108 92 34 25 25 24 24 24 24 9 0 1 4 4
2 0 0 0 0 10 22 22 22 15 1 0 1 0 1 1
16 24 24 24 24 23 23 23 22 22 22 22 21 21 22 21
35 35 35 34 34 34 34 33 33 33 33 32 32 31 31 31
31 30 7 0 5 34 32 8 0 0 0 4 3 6 33 5
0 0 0 0 0 2 30 25 15 1 0 0 1 1 0 2
1 2 8 26 69 97 109 110 111 116 114 117 116 110 98 87
86 98 107 103 114 115 99 96 106 117 118 118 118 118 117 103
79 70 70 69 46 40 34 25 25 24 23 8 0 1 4 4
1 0 0 0 0 11 22 23 22 16 1 1 1 0 0 0
13 24 24 22 23 23 22 22 22 22 22 22 21 21 21 21
35 34 34 34 34 33 33 33 33 33 32 32 32 32 32 31
30 29 10 0 2 29 27 0 0 0 0 0 0 6 33 5
0 0 0 0 0 1 29 26 12 0 0 1 33 64 33 7
2 5 19 53 79 95 108 109 116 117 116 115 109 104 90 66
91 104 99 85 103 112 69 63 80 100 115 118 118 117 112 103
98 85 72 70 30 27 33 31 22 24 23 9 0 1 5 3
2 0 0 0 0 10 22 22 22 17 2 0 1 1 1 1
11 23 23 22 21 21 21 21 20 19 21 21 20 20 20 20
21 21 21 21 21 21 21 21 21 21 21 22 22 23 23 26
29 29 12 0 1 24 21 0 0 0 0 0 0 5 34 6
0 0 0 0 0 0 28 25 10 0 0 23 94 112 90 30
1 6 23 48 65 92 107 112 118 118 118 113 107 65 69 67
112 118 113 116 117 112 96 79 67 89 107 115 118 108 93 111
119 113 98 77 27 21 23 31 34 22 22 9 0 0 3 2
1 0 0 0 0 10 22 22 22 19 8 7 7 7 7 7
11 21 22 23 22 22 22 21 21 20 21 21 21 21 20 21
0 0 0 0 0 0 0 0 0 0 0 0 0 0 1 24
31 29 15 0 0 20 19 0 0 0 0 1 3 4 35 13
0 0 1 1 0 2 28 27 19 11 11 62 70 82 91 57
15 13 14 9 12 38 68 97 117 119 118 80 38 51 95 84
110 97 87 98 102 88 96 100 86 70 99 109 117 92 103 105
113 106 90 74 27 25 26 32 53 20 23 9 0 0 0 0
0 0 0 0 0 9 22 23 22 19 3 2 3 2 2 3
9 21 23 24 23 23 22 22 21 22 21 21 22 21 21 20
0 0 0 0 0 0 0 0 0 0 0 0 0 0 0 28
33 29 18 0 0 18 27 18 16 13 13 19 25 24 33 34
31 29 30 31 30 30 37 28 26 32 34 82 68 100 97 70
33 32 43 42 49 43 22 7 25 56 52 43 79 109 79 81
71 53 56 41 41 38 62 95 95 90 94 104 112 100 93 83
64 37 37 56 25 26 29 31 72 24 23 10 0 0 0 0
0 0 0 0 0 9 22 23 23 20 3 1 1 1 2 5
8 22 23 23 22 22 22 21 22 22 22 21 22 22 21 22
0 0 0 0 0 0 0 0 0 0 0 0 0 0 0 27
35 29 19 0 0 13 31 32 28 26 29 31 33 35 31 39
43 40 38 39 41 41 42 31 23 30 34 83 77 104 101 84
56 46 45 55 81 95 99 93 71 44 20 33 57 87 65 60
42 57 91 51 25 58 62 100 102 98 107 113 116 99 92 105
54 19 49 48 12 13 50 49 79 24 22 9 0 0 0 0
1 0 0 0 0 10 22 23 22 19 2 0 0 0 0 1
0 2 15 24 22 22 22 22 22 21 21 21 21 21 21 21
0 0 0 0 0 0 0 0 0 0 0 0 0 0 0 25
35 29 21 0 0 12 32 32 26 27 30 31 33 32 27 30
38 37 38 37 38 37 38 33 21 25 31 83 84 110 106 101
72 61 52 56 86 95 100 105 115 118 77 36 66 97 67 70
76 108 110 92 68 99 107 113 110 102 97 106 117 99 99 108
87 55 86 73 6 13 40 46 75 23 21 9 0 0 0 2
3 0 0 0 0 9 21 23 23 20 2 1 5 0 0 0
5 4 11 22 21 22 21 21 22 21 21 21 21 21 21 21
0 0 0 0 0 0 0 0 0 0 0 0 0 0 0 23
36 30 24 0 0 10 32 22 22 20 23 29 33 33 30 22
18 21 20 20 20 20 20 23 21 23 26 69 94 105 91 72
65 67 60 64 86 95 98 104 115 118 119 83 74 110 80 94
106 119 116 117 116 117 117 115 116 105 92 109 117 107 93 116
110 105 103 92 10 17 22 36 71 22 20 10 0 0 0 0
0 0 0 0 0 9 22 22 22 19 2 0 4 0 0 0
0 2 10 23 22 22 22 22 22 21 21 21 21 21 21 20
0 0 0 0 0 0 0 0 0 0 0 0 0 0 0 20
37 29 24 1 1 12 32 13 15 17 19 23 27 29 30 23
18 20 20 23 22 22 22 26 27 31 30 57 101 82 54 76
89 77 68 73 83 94 95 100 113 118 119 118 54 75 84 111
115 118 117 117 117 117 117 117 117 106 97 116 118 116 93 116
115 114 114 104 24 19 22 45 62 20 19 11 0 0 0 0
0 0 0 0 0 9 21 22 23 18 1 0 2 4 8 9
1 0 10 21 20 21 21 20 21 21 21 21 21 21 21 20
0 0 0 0 0 0 0 0 0 0 0 0 0 0 0 18
37 29 26 9 16 23 31 3 0 0 0 1 5 9 25 27
28 31 26 35 37 31 27 28 29 30 35 44 97 73 59 109
99 86 92 79 83 93 94 100 109 107 117 119 99 69 76 114
117 118 118 118 118 118 117 117 114 95 107 118 117 118 102 114
117 117 117 113 48 30 27 62 45 21 20 11 0 0 0 0
0 0 0 0 0 8 21 22 23 19 2 0 0 0 1 3
0 0 10 18 10 9 17 22 21 21 21 20 20 20 20 20
0 0 0 0 0 0 0 0 0 0 0 0 0 0 0 16
37 29 27 31 34 36 34 4 0 0 0 0 0 6 29 27
33 37 28 40 45 21 6 7 8 14 16 28 87 91 64 111
94 97 98 82 86 92 94 99 107 111 119 118 118 76 78 108
116 117 117 118 117 117 117 117 108 99 117 117 118 117 116 113
117 117 117 116 70 32 36 81 32 21 20 11 0 0 0 0
0 0 0 0 0 8 21 22 22 19 2 0 12 32 10 0
0 0 2 6 13 11 2 19 22 21 21 21 21 21 20 20
0 0 0 0 0 0 0 0 0 0 0 0 0 0 0 14
38 30 27 32 36 38 37 7 0 0 0 0 0 1 32 26
30 36 12 16 25 17 0 0 0 0 3 17 66 103 83 83
100 105 98 81 86 92 94 93 99 108 116 118 119 105 76 96
115 118 118 118 118 118 118 117 102 111 110 114 118 117 117 117
117 117 117 117 84 16 36 54 24 21 20 12 0 0 0 0
0 0 0 0 0 8 21 22 22 19 4 0 29 44 31 0
0 1 16 22 22 21 11 9 22 21 21 20 21 20 20 20
0 0 0 0 0 0 0 0 0 0 0 0 0 0 0 11
36 29 27 31 34 33 31 7 0 0 0 0 0 0 32 25
31 33 3 0 13 16 0 0 0 0 2 15 45 104 103 100
85 88 93 84 87 92 92 92 99 103 104 116 112 119 92 95
115 118 118 118 118 118 118 116 111 112 103 116 117 118 118 117
117 117 117 117 85 24 57 26 23 21 20 12 0 0 0 0
0 0 0 0 0 7 21 21 22 21 17 12 17 5 16 0
0 2 22 22 21 21 18 4 22 21 21 20 21 21 21 20
0 0 0 0 0 0 0 0 0 0 0 0 0 0 0 9
36 29 26 14 9 11 9 0 0 0 0 0 0 1 33 26
32 35 4 0 13 17 0 0 0 0 3 11 32 91 105 105
98 77 90 85 91 91 88 89 95 94 93 102 91 119 118 113
117 118 118 118 118 118 116 115 109 109 114 117 117 117 118 117
113 111 116 116 90 64 44 24 23 22 20 13 0 0 0 0
0 0 0 0 0 6 20 20 22 21 22 16 0 0 1 0
0 2 23 22 21 21 19 3 21 19 19 20 20 20 20 19
0 0 0 0 0 0 0 0 0 0 0 0 0 0 0 8
35 28 25 14 8 9 7 0 0 0 0 0 0 1 33 24
31 33 3 0 11 18 0 0 0 0 2 6 27 51 104 106
108 108 100 87 91 90 88 89 89 86 86 104 113 117 117 116
116 114 115 117 117 117 118 114 104 116 117 113 111 117 117 113
111 111 104 95 92 58 21 22 22 21 20 12 0 0 0 0
0 0 0 0 0 6 21 22 23 21 5 6 0 0 0 0
0 0 20 21 22 21 17 6 21 21 20 21 20 20 20 20
0 0 0 0 0 0 0 0 0 0 0 0 0 0 0 5
33 29 24 16 9 12 8 0 0 0 0 0 0 0 31 24
32 33 2 0 10 18 0 0 0 1 0 7 23 25 83 107
106 108 103 86 90 92 89 87 89 85 88 105 119 119 118 118
118 118 118 118 118 118 118 105 108 116 51 30 63 101 104 94
116 118 117 117 117 63 21 23 22 21 20 13 0 0 0 0
0 0 0 0 0 8 21 21 22 17 13 33 16 0 0 0
0 1 20 20 20 20 10 12 20 21 20 20 20 19 19 18
0 0 0 0 0 0 0 0 0 0 0 0 0 0 0 5
34 29 24 17 12 13 9 0 0 0 0 0 0 0 31 25
32 33 4 0 9 19 2 0 0 6 4 9 26 18 32 100
104 105 104 84 88 94 90 87 86 93 101 112 119 119 119 118
118 118 118 118 118 117 118 101 99 115 79 98 109 100 106 110
117 117 117 117 116 61 19 22 22 21 20 18 12 10 6 4
4 2 0 0 4 11 17 16 16 12 20 29 22 0 0 0
0 0 15 16 18 14 3 18 17 17 20 20 20 20 20 19
0 0 0 0 0 0 0 0 0 0 0 0 0 0 0 5
34 29 24 19 15 15 9 0 1 0 0 3 5 0 30 26
34 32 14 5 9 19 3 3 4 9 6 21 18 18 9 34
87 94 89 82 87 93 96 89 91 95 104 114 119 119 119 119
119 119 119 118 119 118 118 115 99 105 117 118 118 116 112 115
117 117 117 117 116 56 19 22 22 21 19 19 18 16 9 1
0 0 0 0 0 0 0 0 0 0 0 0 0 0 0 0
0 0 0 0 0 0 10 9 4 3 21 20 20 20 20 20
0 0 0 0 0 0 0 0 0 0 0 0 0 0 0 4
34 30 25 20 16 16 12 0 2 0 0 4 11 4 28 28
34 31 14 13 8 17 1 8 10 8 15 21 16 11 10 10
13 58 57 74 85 93 95 91 92 94 103 113 118 119 120 120
119 119 119 119 119 118 118 118 118 119 119 118 119 118 118 118
118 118 118 118 115 45 19 21 21 21 20 20 19 18 9 0
0 1 2 2 3 3 4 4 4 4 4 4 5 6 6 7
7 7 5 0 0 4 2 1 56 13 22 21 21 21 21 21
0 0 0 0 0 0 0 0 0 0 0 0 0 0 0 4
35 31 26 22 18 17 21 14 19 18 18 21 25 26 37 32
35 30 9 20 10 19 7 10 12 14 23 15 13 8 13 16
7 39 82 74 84 93 96 96 94 96 102 111 118 120 120 119
119 119 120 119 119 118 119 119 118 119 119 119 119 119 119 118
119 118 119 118 114 36 20 22 21 21 20 20 19 17 9 0
2 11 13 14 16 17 17 17 17 16 17 17 17 18 19 18
18 17 12 0 0 10 9 2 54 66 13 14 14 23 26 26
0 0 0 0 0 0 0 0 0 0 0 0 0 0 0 4
35 32 27 23 18 18 26 35 37 38 38 38 40 44 48 39
35 28 2 16 12 24 22 20 23 22 17 15 9 9 17 18
13 25 79 75 81 90 94 96 97 97 103 109 118 121 121 121
121 120 120 120 120 120 120 119 120 119 119 119 119 119 119 119
119 118 119 118 107 28 19 20 21 22 19 5 2 2 3 0
4 13 15 17 18 18 18 18 18 18 18 18 19 20 21 21
20 18 13 0 0 0 0 0 0 0 0 0 0 31 38 37
0 0 0 0 0 0 0 0 0 0 0 0 0 0 0 5
36 32 26 22 20 19 24 40 40 40 40 40 41 45 48 45
35 28 0 6 10 24 20 22 25 21 18 11 9 7 19 16
14 17 71 77 78 91 93 96 98 98 102 108 116 120 121 121
120 120 120 120 120 120 120 120 120 120 120 118 118 118 112 111
115 119 119 117 97 17 18 19 21 20 19 1 0 0 0 0
4 12 15 18 19 19 20 20 20 20 20 20 21 23 23 22
21 19 14 0 0 0 0 0 0 0 1 0 0 32 38 38
0 0 0 0 0 0 0 0 0 0 0 0 0 0 0 4
36 33 27 22 20 19 16 24 24 24 23 22 23 25 28 26
31 29 0 3 8 25 24 29 27 18 18 13 8 12 17 12
14 15 58 82 75 88 92 94 96 98 102 105 111 118 120 121
120 120 121 121 120 120 120 120 120 118 113 104 98 102 94 95
96 113 117 118 78 13 17 18 19 19 18 2 0 0 0 0
5 11 14 17 19 20 20 21 20 21 22 22 23 24 24 23
22 21 17 0 0 0 0 0 0 0 0 3 10 32 37 36
0 0 0 0 0 0 0 0 0 0 0 0 0 0 0 4
34 31 26 22 20 19 13 10 9 9 9 9 11 15 20 20
30 29 1 1 6 25 22 29 22 17 15 14 2 21 13 10
12 11 46 85 76 87 94 94 97 97 101 103 107 115 118 120
120 119 120 120 119 119 118 118 107 94 99 90 90 99 103 94
82 96 113 112 51 10 16 17 18 18 18 11 4 0 0 0
5 12 14 17 18 19 21 21 22 22 22 24 24 24 25 24
23 21 17 0 0 0 0 0 0 0 0 21 35 34 34 33
0 0 0 0 0 0 0 0 0 0 0 0 0 0 0 3
34 31 26 22 19 19 16 12 11 11 10 11 12 16 21 21
31 30 4 4 9 25 23 26 18 20 16 9 9 23 10 12
8 2 38 87 80 83 89 93 97 97 99 102 107 110 117 121
122 121 120 120 113 92 86 95 106 115 119 118 119 119 117 108
103 114 110 101 28 10 17 16 14 12 14 12 5 15 0 0
6 12 14 16 18 20 21 22 22 22 23 24 25 25 25 25
24 23 18 0 0 0 0 0 0 0 0 21 32 31 31 30
0 0 0 0 0 0 0 0 0 0 0 0 0 0 0 4
33 30 25 21 18 19 17 16 15 15 14 14 15 17 22 21
34 32 24 34 36 29 25 26 17 22 16 3 21 21 7 13
6 0 30 86 87 81 87 93 96 96 97 99 104 107 113 119
120 120 119 119 113 115 112 114 114 115 118 119 116 114 106 93
104 110 107 75 23 21 24 16 12 12 4 4 2 13 0 0
6 11 14 16 18 20 21 21 22 23 24 25 25 26 25 25
24 23 17 0 0 0 0 0 0 0 0 24 30 29 28 28
0 0 0 0 0 0 0 0 0 0 0 0 0 0 0 5
36 32 25 21 19 18 18 17 16 16 16 16 17 20 23 21
32 29 26 35 34 29 26 21 25 25 15 3 27 20 9 12
7 0 25 84 92 86 87 91 89 94 97 96 100 104 108 115
120 120 120 119 119 118 109 99 88 80 78 75 78 89 101 106
107 106 97 43 29 23 22 17 10 9 3 3 6 6 0 0
7 13 14 15 18 19 21 21 23 23 24 24 25 25 25 25
24 24 18 0 0 1 6 3 0 0 0 24 27 26 26 26
1 1 2 2 3 4 5 6 7 8 10 11 12 13 15 19
31 28 24 21 18 17 13 16 16 16 16 16 17 19 22 20
22 20 17 19 23 24 28 21 35 28 8 3 29 24 10 13
8 0 22 85 94 90 88 89 92 92 96 98 96 99 104 109
116 118 117 114 119 119 118 114 109 104 108 115 118 119 118 117
112 103 71 32 27 16 12 10 8 7 5 1 7 10 0 0
7 12 14 14 17 18 19 21 21 22 23 24 24 24 25 24
24 23 16 0 0 9 39 16 0 0 0 24 25 24 24 23
22 14 10 13 15 17 23 26 27 26 27 26 26 26 26 25
25 25 25 20 18 8 10 8 16 16 15 15 15 19 21 21
23 21 20 20 22 26 30 24 37 27 3 6 28 27 13 12
8 3 17 83 94 94 93 88 88 90 92 95 94 95 99 102
109 110 117 118 118 118 118 118 118 118 118 118 118 118 118 115
110 90 28 15 12 10 6 7 5 8 6 0 0 0 0 1
7 12 12 14 16 17 18 20 20 21 21 22 23 23 24 23
23 22 15 0 0 4 14 4 0 0 2 23 23 23 22 22
9 20 27 28 27 23 14 16 27 27 27 26 26 26 25 24
24 25 24 20 16 5 17 12 11 12 6 13 16 18 21 22
22 21 21 21 22 29 27 35 35 19 3 7 27 29 19 13
13 1 14 84 94 96 96 93 89 89 91 93 88 84 97 101
104 107 115 119 119 119 119 119 120 119 119 119 119 119 118 114
101 36 10 9 9 6 5 5 7 8 5 0 6 0 0 1
7 12 13 13 15 16 17 19 20 21 22 22 23 22 23 23
23 22 14 0 0 0 0 0 0 0 3 24 23 22 22 22
30 30 30 30 30 29 28 22 14 26 28 27 26 27 25 25
24 24 21 22 24 6 17 16 6 5 0 10 16 19 21 22
22 22 22 23 27 37 27 42 32 14 0 8 22 27 27 20
19 12 15 82 95 98 98 95 93 89 90 91 91 86 91 97
101 104 108 117 118 119 119 119 119 119 119 119 119 118 117 108
50 9 9 9 9 7 7 7 9 10 8 1 7 0 0 0
7 10 12 13 14 14 16 17 18 20 20 21 22 22 22 22
23 23 13 0 0 0 0 0 0 0 5 23 22 21 21 21
30 30 29 29 28 27 27 25 20 10 19 17 15 14 13 13
11 5 1 21 50 18 18 17 6 0 3 16 17 19 22 22
23 22 22 23 31 37 28 41 25 7 0 9 21 24 33 26
27 23 28 83 96 99 99 96 95 92 91 91 88 87 88 90
92 95 102 106 113 117 119 119 119 119 119 119 119 117 108 76
11 9 10 10 9 10 9 9 9 9 11 1 1 0 0 1
7 10 12 12 13 14 15 16 18 19 20 21 21 22 22 22
23 23 13 0 0 0 0 0 0 0 8 23 22 22 22 22
19 18 18 16 15 14 11 4 1 0 0 0 0 0 3 2
0 0 0 10 45 34 10 7 25 5 5 14 15 19 23 23
22 22 22 28 36 31 30 31 19 5 0 10 16 20 27 31
36 21 34 83 96 99 103 100 96 93 90 92 89 87 85 81
79 81 81 86 97 102 113 116 116 113 113 113 111 101 73 10
0 2 4 5 6 9 9 9 9 9 10 2 8 0 0 1
8 11 11 12 14 15 16 16 17 19 20 20 21 21 22 22
23 23 12 0 0 0 0 0 0 0 4 22 22 21 21 21
17 23 26 26 27 30 27 25 25 22 2 0 1 1 1 0
0 0 0 5 40 30 0 31 49 11 0 1 2 5 13 22
23 22 23 31 35 25 27 19 14 6 0 8 13 17 14 24
25 22 22 83 95 100 104 103 98 96 93 91 91 91 90 91
92 88 82 80 81 85 92 98 99 96 90 83 77 79 26 9
5 2 0 5 11 9 9 14 16 15 16 4 7 0 0 2
10 12 13 13 14 15 16 16 18 19 21 21 22 22 23 23
24 25 13 0 0 0 0 0 0 0 1 17 22 22 21 21
47 49 49 48 48 47 46 44 44 39 9 0 0 3 1 0
0 0 0 10 26 26 0 17 28 19 0 0 0 0 0 7
23 22 23 35 33 19 25 11 13 3 0 4 7 8 9 10
18 17 26 86 96 99 102 103 101 99 96 94 90 92 95 97
101 102 100 95 86 77 71 67 64 63 70 82 92 47 30 27
18 12 7 0 3 15 16 15 18 27 30 6 4 0 0 2
12 14 14 14 15 16 17 18 19 20 21 21 22 22 23 23
25 27 14 0 0 0 0 0 0 0 11 6 21 21 21 21
50 48 47 47 45 42 39 41 48 39 17 0 0 0 0 0
0 0 3 10 11 27 0 14 30 24 4 0 0 0 0 0
17 22 23 33 31 19 21 10 12 1 0 2 5 5 5 8
18 10 24 87 97 100 102 104 104 101 98 97 90 86 95 97
102 104 105 106 104 101 95 95 97 101 104 100 46 1 2 4
6 1 1 0 0 5 16 21 20 14 19 5 1 0 0 2
16 16 15 15 16 18 19 20 21 22 22 23 24 24 25 26
28 30 13 0 9 39 19 0 0 0 16 9 14 21 21 21
45 44 51 52 51 52 50 46 42 35 12 0 2 4 1 0
0 0 0 0 4 35 1 14 32 24 11 0 0 0 0 0
16 22 25 32 23 16 18 7 10 3 1 0 4 2 4 24
50 6 44 88 97 101 102 105 104 104 100 100 97 95 93 95
98 101 103 100 104 109 105 105 106 102 98 94 61 28 17 15
1 0 0 0 0 0 4 11 24 22 8 0 0 0 0 0
4 4 4 5 5 7 7 10 11 11 10 10 11 11 12 13
14 16 6 0 54 121 74 0 0 0 18 18 4 20 20 20
37 49 48 44 42 41 37 30 24 12 0 16 52 78 11 0
0 0 0 0 0 4 0 25 40 3 10 2 0 0 0 0
19 20 22 26 19 13 14 7 7 3 4 1 6 7 32 64
46 14 68 90 97 101 103 103 105 105 104 101 98 95 94 93
93 96 97 97 99 99 97 98 94 90 104 104 91 87 72 41
45 3 0 0 0 0 1 5 14 20 4 0 0 0 0 0
0 0 0 0 0 0 0 1 3 4 1 0 0 0 0 0
0 0 0 0 45 94 46 0 0 0 19 20 10 12 21 20
27 28 30 30 30 30 27 19 16 6 0 2 18 30 0 0
0 0 0 0 0 0 0 33 59 1 8 5 0 0 0 10
21 20 25 27 18 11 12 5 4 4 3 23 43 55 62 68
48 60 80 91 98 102 104 105 105 107 106 102 102 99 97 95
93 91 90 92 90 88 86 85 87 105 118 102 91 89 89 69
42 42 5 0 0 0 0 1 0 0 0 0 0 0 0 0
0 0 0 0 0 0 0 0 0 0 0 0 0 0 0 0
0 0 0 0 0 0 0 0 0 1 20 19 13 1 11 20
22 20 21 18 26 29 22 16 16 11 12 0 2 5 0 0
0 0 0 0 0 0 0 27 59 1 6 4 0 0 0 1
7 17 22 22 14 8 6 2 4 24 45 39 57 65 67 70
55 74 86 91 97 101 104 106 108 107 107 105 104 103 101 97
95 91 87 84 82 79 80 89 105 117 119 97 91 90 90 77
45 78 68 53 35 17 3 0 0 1 1 0 0 0 0 0
0 0 0 0 0 0 0 0 0 0 0 0 0 0 0 0
0 0 0 6 0 0 0 0 0 1 10 9 2 4 3 20
1 0 0 0 13 16 7 7 8 5 2 0 3 0 0 0
0 0 0 0 1 25 30 22 55 2 8 5 0 0 0 0
0 12 24 19 8 9 13 24 42 55 59 37 64 66 68 71
63 76 91 93 97 102 105 108 111 110 109 109 108 106 104 101
99 96 94 89 87 88 96 107 117 119 118 96 92 91 90 80
49 80 77 74 71 67 62 41 16 0 0 0 0 0 0 1
0 2 1 2 1 1 1 1 1 0 0 0 0 0 0 0
0 0 0 1 0 0 0 0 0 0 2 3 14 16 2 19
0 0 0 0 0 0 0 0 0 0 0 0 21 20 0 0
0 0 0 0 4 61 57 24 58 1 0 0 0 0 0 0
0 9 19 23 41 50 41 48 50 53 59 52 64 64 66 70
72 74 93 95 97 101 104 108 111 115 113 113 112 110 109 106
104 101 99 97 97 102 111 118 119 119 116 90 92 93 90 78
50 81 85 82 77 78 73 68 68 57 28 3 0 0 0 0
0 0 0 0 0 0 2 2 0 0 0 0 0 0 0 0
0 0 0 0 0 0 0 0 0 0 0 0 3 5 0 16
0 0 0 0 0 0 0 0 1 4 7 6 3 5 0 0
0 0 16 1 1 68 64 29 73 4 0 0 0 0 2 17
27 40 55 62 65 66 54 57 59 61 69 56 69 68 68 71
72 69 93 98 99 100 104 107 112 114 118 118 116 115 113 110
108 107 106 107 110 114 119 120 119 119 108 90 92 93 92 79
67 87 90 87 87 88 80 80 82 78 81 76 51 18 0 0
0 0 0 0 0 0 0 0 0 0 0 0 0 0 0 0
0 0 0 0 0 0 0 0 0 0 0 0 0 0 0 3
0 0 0 0 0 0 2 8 20 22 19 14 0 1 2 0
0 3 26 1 0 59 72 41 79 14 0 18 39 58 73 76
75 76 80 79 81 83 71 73 74 70 73 73 79 79 73 72
74 75 83 99 99 100 103 107 111 114 116 118 120 118 117 116
116 115 116 116 117 119 119 119 119 118 104 88 92 93 101 92
95 97 94 97 98 94 88 90 87 84 85 86 86 84 67 35
6 0 0 0 0 0 0 0 0 0 0 0 0 0 0 0
0 0 0 0 0 0 0 0 0 0 0 0 0 0 0 0
0 0 3 10 17 18 17 16 17 20 19 14 0 0 0 0
0 3 29 12 4 38 45 30 75 50 63 80 83 84 82 83
84 89 86 88 86 90 86 84 84 75 85 89 89 91 88 82
78 78 85 97 102 100 100 106 112 115 118 119 119 119 119 119
119 119 119 119 119 119 119 119 113 110 91 84 92 100 108 100
101 98 98 99 102 99 94 100 103 97 94 90 83 83 82 80
74 49 21 1 0 0 0 0 0 0 0 0 0 0 0 0
0 0 0 0 0 0 0 0 0 0 0 0 0 0 0 0
14 19 22 25 28 26 24 24 25 23 22 19 16 16 18 18
5 11 19 21 11 17 15 31 70 80 83 86 88 90 87 89
92 92 91 93 95 94 93 88 91 83 94 95 95 100 100 97
88 79 85 96 102 99 97 101 110 116 118 119 119 119 119 119
120 119 119 119 119 120 120 119 114 97 84 87 98 108 105 106
102 101 100 102 106 99 98 105 107 102 95 88 92 96 92 86
85 85 81 70 35 6 0 0 0 0 0 0 0 0 0 0
0 0 0 0 0 0 0 0 0 0 0 0 0 0 0 0
26 27 28 30 30 30 27 26 31 27 22 20 19 19 22 15
8 17 30 23 6 23 50 78 82 87 89 92 94 93 93 92
97 97 94 93 99 96 95 95 96 96 95 101 101 103 105 103
97 88 77 92 94 102 98 97 105 112 117 120 120 119 119 119
120 119 119 119 120 119 119 114 99 85 87 92 104 108 102 112
102 102 103 103 105 98 103 107 102 94 93 100 104 97 88 89
90 89 88 87 83 70 27 0 0 0 0 0 0 0 0 0
0 0 0 0 0 0 0 0 0 0 0 0 0 0 0 0
26 29 33 34 35 35 35 33 35 29 22 19 18 15 9 6
9 14 2 1 9 56 81 89 89 91 94 96 96 97 96 95
100 100 99 97 102 98 97 104 102 99 93 104 105 101 105 106
104 94 76 79 96 90 101 97 100 109 115 117 118 119 119 120
120 120 120 120 119 118 109 94 89 84 91 102 107 105 106 114
102 103 106 103 105 102 106 109 102 97 100 106 104 95 91 95
95 91 92 95 93 87 81 53 7 0 0 0 0 0 0 0
0 0 0 0 0 0 0 0 0 0 0 0 0 0 0 0
24 29 37 37 37 37 35 34 33 23 16 13 11 8 0 0
6 14 0 11 49 76 95 93 94 97 97 95 97 100 100 97
101 105 105 103 105 100 100 106 107 99 100 108 104 99 104 104
105 103 87 73 76 96 92 98 104 110 112 116 120 120 119 120
120 120 119 118 112 103 94 90 85 91 98 108 107 103 112 114
102 104 106 106 106 105 107 109 103 96 105 107 105 93 92 97
96 91 97 98 97 92 88 88 69 14 0 0 0 0 0 0
0 0 0 0 0 0 0 0 0 0 0 0 0 0 0 0
34 19 22 31 27 51 28 30 25 13 10 10 9 6 6 17
8 3 5 50 66 90 99 96 97 98 99 97 100 104 104 100
99 106 108 107 107 105 100 104 103 100 105 111 106 100 100 105
105 106 99 77 72 77 97 97 102 112 118 118 118 119 120 119
118 114 110 103 98 93 89 88 90 97 106 106 103 109 114 114
100 104 107 105 107 106 109 109 100 99 107 108 103 92 98 101
98 93 104 104 101 96 93 95 93 75 28 0 0 0 0 0
0 0 0 0 0 0 0 0 0 0 0 0 0 0 0 0
23 18 11 13 19 23 28 28 20 10 9 9 9 3 17 22
9 10 35 63 74 97 100 99 101 101 100 96 101 105 106 103
99 108 108 108 108 108 99 105 107 104 108 111 105 101 102 102
105 105 104 95 74 69 75 84 99 104 109 111 111 109 109 104
103 100 98 95 93 89 90 92 99 106 107 102 108 112 115 113
100 105 108 105 109 109 111 110 97 101 110 109 101 94 102 103
93 93 107 107 104 101 96 98 98 92 83 40 0 0 0 0
0 0 0 0 0 0 0 0 0 0 0 0 0 0 0 0
29 31 29 22 19 20 21 21 14 7 6 6 6 19 66 57
43 41 63 67 81 99 102 102 102 104 100 99 103 108 109 106
102 105 110 110 110 110 102 105 107 108 110 111 106 98 106 104
103 106 106 104 96 77 73 72 80 81 85 97 96 101 98 98
96 97 92 92 92 91 94 100 107 107 104 108 112 114 115 112
102 105 109 106 111 110 112 108 96 107 112 108 101 97 104 105
89 99 110 109 107 104 100 100 101 97 91 71 2 0 0 0
0 0 0 0 0 0 0 0 0 0 0 0 0 0 0 0
26 32 32 31 28 25 23 15 9 6 1 0 15 52 45 61
63 59 66 69 88 101 105 104 104 108 102 100 103 107 111 108
103 105 110 110 109 108 104 104 109 109 109 108 107 96 106 107
103 101 105 106 104 100 93 89 87 82 80 79 86 86 89 88
88 90 91 93 94 98 102 105 104 104 109 110 113 115 114 110
102 106 110 107 110 111 111 101 100 109 111 107 100 101 107 103
84 102 108 110 109 103 101 100 102 97 94 88 44 0 0 0
0 0 0 0 0 0 0 0 0 0 0 0 0 0 0 0
31 33 33 32 32 31 27 16 12 11 8 6 14 54 43 64
65 65 70 74 93 103 107 106 108 108 101 100 104 105 110 111
105 105 110 110 108 110 108 104 109 109 109 108 106 97 106 109
108 106 105 105 106 102 100 99 97 90 91 94 92 92 96 94
97 100 100 100 101 104 106 103 103 113 111 111 113 115 114 109
103 105 109 107 109 111 111 100 103 110 112 105 105 105 108 101
84 104 110 112 110 104 101 101 103 97 95 91 86 25 0 0
0 0 0 0 0 0 0 0 0 0 0 0 0 0 0 0
32 33 32 32 31 27 20 13 12 13 11 10 12 53 40 58
67 69 71 73 96 103 107 109 109 110 102 100 105 104 111 112
107 103 111 112 108 110 110 106 109 110 109 107 106 98 106 110
109 108 108 106 103 106 103 101 103 97 102 99 101 99 98 101
103 102 103 106 103 104 102 107 115 114 108 112 114 115 114 110
104 105 110 106 110 110 108 101 103 110 111 108 108 106 108 94
85 106 110 113 111 105 100 103 104 98 97 93 95 79 8 0
0 0 0 0 0 0 0 0 0 0 0 0 0 0 0 0
32 33 31 32 31 21 12 11 11 10 9 10 8 41 46 59
75 73 68 70 98 104 107 108 110 110 100 99 104 104 111 113
110 106 109 111 108 109 110 107 109 110 107 107 106 99 106 110
110 107 109 111 107 102 100 104 103 104 104 103 102 101 103 104
105 104 105 102 100 106 114 115 114 110 109 113 115 114 113 109
104 105 111 109 110 110 106 103 104 109 112 108 108 107 105 88
89 106 109 114 111 105 99 103 104 100 98 95 101 94 56 0
0 0 0 0 0 0 0 0 0 0 0 0 0 0 0 0
29 33 32 32 30 18 11 11 10 10 10 10 8 35 53 70
81 76 72 73 101 104 107 110 111 109 100 97 107 104 110 113
112 107 107 111 110 109 110 108 108 109 106 107 105 103 107 110
110 107 110 111 111 110 100 87 86 99 103 105 104 104 103 100
100 97 100 106 112 114 115 115 111 108 112 114 115 114 112 109
104 105 110 108 111 111 105 101 103 110 113 110 107 106 100 82
91 107 109 113 111 103 98 102 104 101 97 102 104 98 92 22
0 0 0 0 0 0 0 0 0 0 0 0 0 0 0 0
25 32 33 32 30 19 11 10 10 10 10 10 9 7 43 79
83 78 75 76 104 107 107 110 111 109 102 96 106 104 108 114
113 110 107 111 111 110 110 109 108 108 106 108 106 102 107 110
110 110 110 111 111 113 113 111 101 93 88 90 88 91 96 99
105 109 114 115 116 115 115 113 108 108 113 114 114 111 109 108
104 103 110 110 111 111 107 101 107 111 112 111 107 105 98 80
91 108 110 113 110 102 97 103 104 103 96 106 105 102 99 72
3 0 0 0 0 0 0 0 0 0 0 0 0 0 0 0
19 29 33 32 31 20 12 11 11 10 10 10 10 6 65 84
85 79 75 75 103 106 107 109 111 111 103 93 106 105 107 114
113 110 109 110 110 109 111 110 108 106 107 107 105 103 107 109
109 111 110 111 112 113 113 112 112 110 110 111 110 111 111 112
113 113 114 115 114 114 114 109 107 110 113 114 113 111 111 108
106 102 109 110 110 109 104 100 107 109 110 111 108 102 95 83
94 108 109 113 111 102 97 104 104 103 99 107 106 104 104 96
46 0 0 0 0 0 0 0 0 0 0 0 0 0 0 0
16 20 28 31 31 22 12 11 10 10 10 9 14 37 78 89
91 83 74 75 102 109 109 109 111 109 102 92 106 106 106 115
112 112 110 111 109 111 110 110 108 107 108 107 106 104 107 108
110 110 111 111 112 112 113 111 110 111 111 111 112 113 113 113
113 113 115 115 116 115 111 108 110 112 114 113 112 110 109 108
106 102 109 110 110 109 102 103 109 113 112 112 107 101 96 81
94 108 109 112 111 101 97 105 106 101 103 108 107 105 105 101
90 18 0 0 0 0 0 0 0 0 0 0 0 0 0 0
15 14 16 22 29 23 13 11 11 10 10 10 21 65 82 91
96 86 74 71 97 109 109 109 111 110 101 92 104 105 104 112
111 110 109 109 108 107 108 109 107 107 109 106 106 105 108 108
109 110 111 111 111 112 112 111 111 111 111 111 111 111 113 113
113 113 114 114 114 113 110 108 109 112 114 113 111 111 110 108
105 103 108 110 110 108 104 101 109 113 112 113 107 100 95 83
98 109 108 110 108 101 98 104 108 101 108 107 106 106 105 103
100 71 4 0 0 0 0 0 0 0 0 0 0 0 0 0
17 14 13 14 20 24 19 18 18 12 9 10 39 77 88 93
99 96 77 71 92 109 109 110 110 110 97 91 103 106 104 112
113 111 111 111 110 109 110 109 108 108 109 106 107 106 107 108
110 111 111 111 112 113 112 112 113 112 111 111 111 112 112 112
112 114 115 114 114 112 110 110 111 114 113 111 112 109 110 110
106 103 109 111 110 109 106 103 110 114 114 111 105 100 93 87
100 109 107 110 109 102 99 105 106 100 108 106 108 107 106 105
103 93 43 0 0 0 0 0 0 0 0 0 0 0 0 0
26 18 14 12 14 21 23 26 25 15 9 13 63 81 90 94
98 102 81 71 87 106 108 109 110 111 95 91 103 107 104 111
111 110 111 110 109 107 108 108 107 107 107 106 108 106 107 110
111 110 111 111 111 111 111 110 110 111 112 111 110 112 112 113
114 115 115 114 112 112 110 111 111 114 114 111 111 110 111 110
107 103 108 112 111 108 104 103 111 113 113 109 102 100 93 88
103 110 105 109 108 102 101 105 106 100 108 107 108 108 107 107
104 99 85 14 0 0 0 0 0 0 0 0 0 0 0 0
31 28 22 17 19 23 25 28 26 14 9 31 75 84 93 98
96 105 90 71 84 107 108 109 110 110 93 87 101 106 103 108
111 110 110 109 108 108 108 108 109 108 107 107 107 106 107 108
110 110 110 110 112 110 112 111 112 111 111 111 111 112 112 114
113 114 114 113 112 111 110 112 112 112 112 111 110 110 112 110
106 103 106 111 111 108 105 105 112 115 114 107 103 101 93 90
104 110 103 106 105 101 105 106 104 102 110 108 108 109 108 107
105 101 95 64 0 0 0 0 0 0 0 0 0 0 0 0
31 30 29 27 26 26 23 26 24 13 11 58 80 89 95 100
95 105 95 71 79 107 107 109 108 109 90 84 101 108 103 108
112 107 109 109 108 106 107 107 108 107 105 107 108 107 108 109
110 111 112 112 112 111 112 111 110 111 110 111 112 112 114 114
114 114 114 113 113 111 110 112 112 113 111 112 111 111 112 110
107 103 105 109 107 104 103 106 112 114 112 106 101 101 93 92
106 109 100 106 105 101 104 106 98 100 107 106 108 107 108 108
107 104 101 92 28 0 0 0 0 0 0 0 0 0 0 0
30 29 29 28 28 27 22 25 24 12 27 74 84 91 96 99
99 102 99 72 77 107 107 109 109 109 89 81 100 109 104 106
112 110 110 109 109 107 108 108 109 108 107 106 107 107 107 109
111 110 112 111 112 112 111 112 112 112 112 112 113 113 115 115
114 113 112 112 113 112 112 112 114 114 112 111 111 111 110 108
106 102 104 109 105 105 107 111 114 115 112 105 101 99 91 95
106 108 98 105 103 102 105 106 99 103 106 107 107 106 108 107
107 105 102 97 76 5 0 0 0 0 0 0 0 0 0 0
30 30 29 28 28 27 22 23 23 13 54 79 87 92 96 100
101 102 101 73 73 103 106 108 109 110 88 80 100 109 105 106
111 110 110 112 110 107 108 110 109 109 108 107 108 109 107 109
111 111 112 110 112 112 110 112 111 111 112 112 113 114 113 114
114 115 114 113 113 110 111 113 114 112 112 110 111 112 110 106
104 103 106 108 106 107 111 113 114 114 110 104 102 98 92 97
107 107 97 103 104 105 106 107 93 102 106 106 104 106 108 106
106 105 103 101 94 46 0 0 0 0 0 0 0 0 0 0
