P2
128 120
146
11 11 12 10 10 11 12 16 20 23 26 30 30 30 30 29
28 29 29 28 28 28 28 27 27 26 26 26 25 25 25 25
25 24 24 23 23 23 23 22 22 22 22 22 21 21 21 21
22 21 20 21 20 20 22 22 26 26 26 26 19 16 26 28
16 23 23 23 22 21 21 19 20 19 19 19 16 21 20 23
23 22 22 23 23 23 23 23 23 23 23 22 23 23 23 23
23 23 24 24 24 24 25 25 26 25 25 25 26 25 25 25
26 26 26 26 25 26 27 26 27 26 27 27 26 26 24 24
13 11 11 10 11 11 12 7 3 6 14 30 31 30 29 28
29 28 28 28 28 28 27 27 27 27 27 26 26 25 25 24
24 24 24 23 23 23 23 23 22 22 22 22 22 22 22 21
20 20 20 20 20 20 21 22 27 26 26 26 20 16 25 28
16 22 23 22 22 21 20 20 20 19 20 19 17 22 20 23
23 22 22 22 22 22 22 23 22 23 23 23 24 23 24 23
23 24 24 23 24 24 25 24 25 26 26 26 26 26 25 26
26 26 26 26 25 26 26 25 25 24 24 24 25 24 24 26
23 19 16 11 9 9 11 9 7 8 13 29 30 30 29 29
29 28 27 28 28 27 27 27 26 26 26 26 25 25 25 25
24 24 24 24 23 23 23 23 22 22 22 21 22 21 21 21
21 20 21 20 20 20 21 22 27 26 26 25 20 16 25 28
17 22 23 22 22 21 21 21 20 20 19 19 16 22 19 23
23 23 22 22 23 23 23 23 23 23 23 23 24 23 23 23
23 24 24 24 25 25 25 25 26 25 26 25 25 25 25 25
25 25 25 25 25 24 23 24 25 26 27 26 26 25 25 25
31 35 38 33 30 26 19 13 7 9 12 29 30 30 30 29
29 27 29 29 29 29 28 27 27 27 27 26 27 26 25 25
25 24 24 24 24 32 33 29 25 24 23 22 22 22 21 22
22 20 20 20 20 21 21 22 27 27 27 27 20 16 26 29
18 20 23 23 22 21 20 21 20 20 20 20 18 22 20 23
23 23 23 23 24 23 23 23 23 24 23 24 25 24 24 24
24 24 25 25 25 25 25 25 26 26 25 25 26 25 25 25
26 26 26 26 27 26 26 25 26 26 26 25 26 26 26 25
34 37 39 29 41 41 40 36 9 9 14 29 30 30 30 29
29 31 40 38 36 35 31 29 27 25 26 26 25 25 25 25
24 25 24 25 26 37 36 33 31 30 29 24 22 21 22 21
21 21 21 20 21 21 22 22 27 27 27 26 20 16 25 29
19 18 23 23 22 22 21 21 20 20 20 20 17 22 20 23
23 23 23 23 23 24 23 24 24 24 24 23 25 24 24 24
25 24 25 25 24 26 25 25 25 24 24 24 24 24 25 25
25 24 24 25 26 26 25 26 25 26 26 25 25 25 25 24
36 39 40 40 43 43 44 40 10 9 16 31 31 30 30 29
29 31 41 39 38 35 33 33 33 34 29 28 27 26 26 24
25 25 25 24 27 35 34 32 31 32 32 29 23 22 22 22
21 21 21 20 21 21 22 23 27 27 28 27 21 16 26 29
21 17 23 23 23 22 21 22 21 21 21 21 19 23 21 24
24 23 24 23 24 24 23 23 24 24 25 24 25 25 24 25
24 25 25 25 25 24 26 25 26 25 25 25 25 25 25 25
25 25 25 26 26 26 26 26 26 25 25 26 26 26 25 25
37 40 40 42 44 44 44 42 14 10 19 34 33 32 32 30
30 32 41 39 38 35 35 36 38 39 32 34 33 31 28 25
25 25 25 25 27 29 27 29 30 31 31 30 23 22 22 22
21 22 21 21 21 21 22 22 27 28 27 26 18 15 14 26
21 14 24 23 23 22 22 23 21 21 21 21 19 23 20 24
24 24 24 24 24 24 24 24 24 24 23 24 23 23 23 24
25 24 26 25 25 24 25 25 25 25 25 25 25 24 25 25
25 25 25 25 25 27 26 26 26 25 26 26 25 26 25 24
37 35 38 42 43 43 43 41 15 11 20 36 34 32 33 33
33 33 26 19 28 35 37 39 40 39 29 19 27 32 32 33
31 31 29 27 26 20 9 8 11 15 21 27 25 22 22 22
22 22 21 21 21 21 22 23 27 27 28 23 9 14 10 26
24 14 24 23 23 22 22 23 21 21 22 21 19 24 21 25
25 25 24 24 24 24 23 23 23 24 24 24 25 25 25 25
25 25 25 25 27 25 25 25 25 25 25 25 25 25 25 26
25 25 25 25 26 26 26 25 26 26 25 25 25 26 26 25
7 15 22 34 39 40 40 41 15 11 19 36 34 26 25 32
37 40 16 0 0 9 20 21 26 33 25 0 0 1 7 15
19 28 32 32 28 19 6 3 7 4 0 10 25 23 22 23
23 22 22 22 23 22 23 24 29 28 28 26 18 17 23 28
25 13 24 24 24 22 22 24 22 22 22 22 19 24 21 24
24 24 24 24 24 24 25 25 25 24 24 24 25 25 25 25
25 25 26 26 27 25 26 26 26 25 25 25 25 25 25 25
25 25 26 26 26 27 26 26 26 26 26 25 26 26 26 26
0 0 2 1 4 6 10 39 16 11 17 32 35 36 34 33
39 43 17 0 0 2 7 9 9 19 25 0 0 0 0 0
0 0 3 10 28 18 2 2 0 4 0 9 27 24 23 23
23 23 22 22 22 22 23 24 28 29 28 27 21 18 27 30
27 14 24 24 23 22 23 23 21 22 22 22 20 25 20 24
25 25 24 24 25 25 24 25 24 24 25 25 26 25 25 25
25 25 26 25 27 25 26 25 25 26 26 26 26 25 26 26
26 26 26 25 26 27 27 25 25 25 26 25 25 26 26 26
1 0 0 0 0 0 0 37 15 12 6 0 4 12 21 31
38 41 19 0 0 1 2 6 6 18 26 0 0 0 0 0
0 0 0 0 29 15 0 0 0 1 0 10 27 24 23 24
24 23 23 22 22 23 24 25 29 29 29 28 21 17 27 30
27 14 23 25 24 23 23 24 21 23 22 22 19 24 21 25
25 24 25 25 25 25 25 25 25 25 25 25 25 25 25 25
25 24 25 25 26 25 26 26 26 26 26 26 26 26 26 26
25 25 25 26 26 26 27 26 25 25 25 26 26 26 26 26
1 0 2 0 0 0 0 37 14 11 5 0 0 0 0 0
2 9 17 0 0 0 0 0 1 15 25 0 0 0 0 0
0 0 0 0 28 10 0 0 0 0 0 11 29 24 24 24
24 23 23 23 23 22 23 25 29 29 30 28 22 19 28 31
28 16 22 25 25 23 23 24 21 23 23 23 21 24 22 26
26 26 26 25 26 26 25 26 25 25 25 25 25 26 26 25
25 26 26 25 27 26 26 26 26 26 25 26 26 25 26 25
26 26 26 25 27 27 27 25 26 26 26 26 26 26 26 27
0 0 13 5 0 0 0 38 14 11 5 0 0 0 0 0
0 0 14 0 0 0 0 0 0 15 24 0 0 0 0 3
1 0 0 0 29 8 0 0 0 0 0 12 30 24 24 23
24 24 23 23 23 23 24 25 29 30 29 29 22 18 27 30
28 17 20 25 24 24 23 24 21 23 23 22 20 24 21 26
26 26 26 25 26 26 26 25 25 25 25 25 25 25 25 26
25 26 26 26 26 26 27 26 26 26 26 27 27 26 26 26
26 25 25 25 26 26 26 26 26 27 26 26 27 26 27 26
1 0 3 18 0 0 0 38 13 11 5 0 0 0 0 0
0 0 12 0 0 0 0 0 0 21 28 0 0 0 0 8
7 2 0 0 28 8 0 0 0 0 0 9 30 24 24 24
23 23 23 23 23 23 24 25 29 30 29 28 22 19 28 30
28 20 18 26 25 24 23 24 21 22 22 22 19 24 21 26
26 25 26 26 26 26 25 25 25 25 25 25 25 26 26 26
26 26 27 26 27 25 27 26 27 27 27 26 27 27 26 26
27 26 27 26 26 26 26 27 27 26 27 26 27 27 26 27
0 0 0 3 0 0 1 38 12 12 5 0 0 0 3 1
0 0 10 0 0 0 0 0 0 16 29 0 0 0 0 9
8 8 5 0 28 8 0 0 0 0 0 8 31 23 24 24
23 23 23 23 23 22 23 25 30 30 29 29 22 19 27 30
28 21 16 25 24 24 23 23 22 23 22 22 20 24 20 26
26 25 25 25 26 25 25 25 25 25 26 25 25 25 26 26
26 26 27 26 27 27 27 27 27 27 27 27 27 27 27 26
26 26 26 26 25 27 27 28 28 28 27 27 27 27 27 27
0 0 0 0 0 0 2 38 12 12 5 0 2 0 7 2
0 0 9 0 0 0 0 0 1 17 29 0 0 0 0 9
9 9 7 0 26 9 0 0 0 0 0 6 32 23 23 24
24 24 23 23 23 24 25 25 30 30 29 28 22 18 27 31
29 23 15 25 25 25 23 23 21 22 22 22 19 23 21 26
26 26 26 26 26 25 25 25 26 25 26 26 25 26 26 27
26 26 27 27 28 27 27 27 27 27 27 27 26 26 26 26
26 26 27 27 28 28 27 27 27 27 27 26 26 27 27 26
0 5 0 0 0 0 3 38 12 12 5 3 6 0 2 0
0 0 9 0 0 0 0 0 3 18 31 0 0 0 0 3
8 8 6 0 26 20 7 2 0 0 0 5 31 23 24 24
23 22 23 22 23 24 25 26 30 30 30 29 22 18 27 31
27 24 15 23 24 24 23 23 22 22 22 22 20 23 21 25
26 25 24 25 26 25 25 25 26 26 26 27 27 27 26 26
27 27 27 25 27 26 26 26 27 26 27 27 27 27 26 25
26 27 27 27 27 27 27 27 27 27 27 27 26 27 28 28
7 9 11 8 4 3 6 38 12 12 5 4 0 0 0 1
0 0 13 0 0 0 0 0 6 23 36 11 6 2 1 0
0 5 5 0 24 34 34 30 27 22 20 22 32 23 24 23
24 24 24 24 23 24 24 24 28 29 29 27 23 22 26 29
28 23 15 23 25 24 23 23 22 23 23 22 21 23 21 25
26 25 25 26 26 26 26 25 26 26 26 26 26 26 27 26
27 27 27 27 27 27 27 26 26 27 27 27 28 27 26 27
27 26 28 27 27 27 27 26 27 27 26 26 26 26 28 28
24 29 33 38 37 35 33 32 13 12 5 0 0 0 0 0
0 1 36 31 21 17 15 7 1 16 45 29 30 30 28 22
15 9 5 2 25 35 34 32 32 36 40 41 33 22 23 24
24 23 23 22 22 22 22 20 22 21 23 28 30 30 29 24
23 20 16 23 26 24 23 23 23 23 23 23 21 23 21 26
26 25 25 26 25 26 26 26 26 26 27 27 27 27 27 27
27 27 27 26 26 26 26 27 27 28 27 27 28 27 27 27
27 27 27 27 27 27 26 27 27 27 27 27 28 27 27 27
23 33 40 45 42 43 42 34 11 12 6 0 0 0 0 0
0 1 41 44 33 38 39 41 39 43 43 10 10 12 14 16
18 22 27 32 39 29 29 31 32 36 40 40 35 23 24 24
24 24 23 23 21 18 11 12 17 21 21 43 45 41 44 39
38 38 28 19 20 25 24 23 22 22 23 22 20 23 20 25
25 25 25 26 26 26 26 27 26 26 26 26 27 26 27 27
27 27 27 26 26 26 27 27 27 27 27 27 28 27 27 27
28 27 27 28 27 26 26 25 26 26 25 24 25 28 28 25
27 35 41 43 42 46 45 35 12 12 8 1 0 0 0 0
0 2 43 36 35 41 44 47 43 36 31 11 11 10 9 8
8 6 6 6 7 8 12 17 21 26 25 24 26 24 24 24
24 23 20 17 10 9 12 18 23 27 31 39 33 33 37 42
40 40 34 25 24 22 22 22 22 23 22 22 21 23 22 26
27 26 26 25 25 26 26 26 27 26 26 26 28 27 27 27
27 26 26 27 27 27 27 27 27 27 27 27 27 27 26 25
25 24 24 26 26 25 25 25 26 24 22 21 19 17 14 11
8 16 24 27 31 35 39 35 12 12 22 36 33 25 16 10
5 5 38 28 36 41 43 45 45 37 30 13 11 11 9 8
6 6 5 5 4 4 4 4 8 25 24 21 20 23 24 23
23 21 14 7 7 13 18 26 33 44 46 40 32 28 33 39
49 51 47 37 29 23 22 19 20 22 23 22 21 23 22 26
26 26 26 26 26 26 26 27 27 26 25 26 27 26 26 26
27 27 28 28 27 27 27 28 28 27 28 28 28 27 27 28
27 22 23 20 18 16 14 12 10 9 9 8 8 7 8 8
0 0 0 0 0 0 9 35 13 13 24 42 44 43 41 41
39 39 39 22 33 39 40 44 44 39 33 16 12 9 7 6
5 5 5 5 5 6 7 7 13 23 7 19 24 23 24 22
20 12 4 7 11 13 23 29 34 47 54 48 35 32 40 41
50 52 52 42 37 33 24 16 16 17 22 22 22 23 23 27
26 26 26 25 25 25 26 26 26 25 25 25 27 26 26 26
27 28 28 27 29 28 28 27 27 24 22 20 18 15 13 19
27 11 6 7 9 9 9 10 11 12 13 12 13 14 14 15
0 0 0 0 0 0 7 35 13 13 23 42 44 44 43 43
43 45 36 1 2 8 12 18 24 24 33 17 10 9 4 0
1 2 6 8 8 6 9 10 15 26 18 22 31 28 26 15
6 6 6 6 11 21 29 31 37 51 64 56 42 36 40 45
51 55 56 50 44 33 28 24 17 15 18 22 21 23 24 26
27 26 26 26 26 27 26 25 26 26 26 26 27 27 28 27
27 26 24 22 20 18 15 13 12 11 10 10 11 11 12 14
25 9 9 13 14 15 16 16 17 17 17 19 19 19 19 20
0 0 0 0 9 9 12 34 15 13 20 37 41 40 42 43
44 46 30 0 0 0 0 0 7 13 34 17 9 7 1 0
0 0 2 5 3 0 5 6 12 29 33 27 27 28 22 8
10 9 5 7 13 21 26 37 42 55 64 60 42 34 35 47
47 53 59 54 46 40 26 23 21 9 11 16 21 25 23 24
25 24 24 23 22 23 23 16 22 26 25 23 21 19 18 15
14 13 12 12 12 12 13 14 15 15 15 16 16 16 16 17
23 9 14 18 20 20 21 21 22 22 23 23 23 23 22 23
0 0 0 2 26 25 21 26 26 21 23 27 29 30 32 31
34 41 27 0 0 0 0 0 0 8 37 15 9 8 2 0
0 0 0 0 0 0 0 0 6 29 30 19 19 13 4 3
2 4 4 8 16 21 30 42 49 59 74 66 50 43 41 50
55 53 44 39 40 42 38 25 21 15 7 10 19 22 22 23
24 24 24 23 22 20 19 11 13 14 13 13 13 12 14 15
16 16 17 18 18 18 19 19 20 21 21 21 22 22 22 21
28 13 19 23 24 24 24 24 24 25 25 24 25 25 25 25
0 0 0 1 24 25 21 23 21 15 19 16 18 25 28 26
31 41 24 0 0 0 0 1 0 3 38 11 7 1 0 0
0 5 1 0 0 0 0 0 5 30 32 19 15 4 1 1
1 1 4 10 15 23 36 52 68 83 95 74 55 49 50 57
63 59 61 54 41 32 31 28 22 16 13 9 8 17 21 21
17 15 14 14 13 13 13 12 13 15 16 17 19 19 20 21
22 22 23 23 23 22 24 23 24 24 24 25 25 25 24 17
12 9 22 25 25 25 26 27 26 27 27 27 27 27 26 26
0 0 0 0 5 7 11 21 18 17 20 22 23 26 29 28
34 40 24 0 0 0 0 0 0 3 39 3 0 0 0 0
0 6 7 1 0 0 0 0 5 30 33 15 4 0 1 1
2 5 9 14 24 37 48 67 95 102 104 85 81 78 76 76
72 62 58 62 48 42 34 27 21 18 15 13 8 11 11 13
14 15 15 16 17 18 19 19 19 21 22 22 23 23 24 25
24 25 25 26 26 25 26 26 26 26 26 26 26 25 24 9
1 0 21 26 27 28 27 26 26 27 27 27 27 26 26 26
0 0 0 0 0 0 3 20 13 15 14 5 10 16 21 26
33 36 21 0 0 0 0 0 0 5 39 4 0 0 0 0
0 1 14 6 3 0 0 0 4 29 33 13 1 0 0 3
4 10 20 33 47 57 74 93 113 116 114 112 112 110 115 117
110 96 86 73 59 61 50 25 19 18 18 15 11 9 14 15
17 19 18 19 20 21 21 22 22 24 24 24 24 25 25 25
26 25 26 26 27 26 26 26 26 27 24 19 15 12 22 8
5 0 18 25 26 27 26 26 26 26 26 26 27 27 26 26
0 0 3 1 0 0 4 26 20 19 13 0 0 0 0 0
0 3 17 0 0 0 0 0 0 6 37 2 0 0 0 0
4 8 12 8 10 0 0 0 4 28 30 8 0 0 2 5
7 18 35 53 68 85 104 112 119 122 125 124 125 125 125 125
125 123 118 109 98 89 74 53 32 17 11 8 10 7 9 17
21 22 22 22 23 23 22 23 25 25 24 24 25 25 26 26
26 27 27 27 27 26 26 26 27 27 9 0 0 2 18 5
1 0 17 24 26 26 25 26 26 25 25 25 26 26 25 25
0 0 2 3 0 0 3 32 22 20 14 0 0 0 0 0
0 0 14 0 0 0 2 0 0 4 34 1 0 0 0 0
8 13 16 5 5 0 0 0 3 27 25 0 0 2 3 5
20 35 55 74 92 104 111 117 121 123 125 125 125 125 124 125
125 125 125 124 123 120 110 86 58 35 14 9 7 9 7 16
22 23 23 23 23 22 22 24 24 25 25 25 25 25 25 26
26 25 25 26 26 26 26 25 26 26 22 18 21 23 23 9
0 0 16 24 25 25 24 24 24 24 24 24 24 24 25 25
0 0 2 6 0 0 3 35 24 19 14 0 0 0 0 0
0 0 14 0 0 4 11 3 0 5 33 0 0 0 0 0
1 2 15 0 0 0 0 0 2 25 16 0 0 2 3 19
38 55 70 88 101 109 114 117 121 124 125 125 125 124 125 124
126 125 124 124 125 124 124 117 99 56 37 13 6 7 6 11
22 23 24 24 24 24 24 25 25 26 25 25 25 26 25 25
25 25 25 27 27 26 26 26 27 26 25 24 24 23 21 9
0 0 15 23 25 25 25 25 25 25 24 25 25 25 24 24
11 6 5 12 7 2 2 35 20 17 14 0 0 1 9 0
0 0 13 0 0 12 13 6 0 5 31 0 1 0 0 0
0 0 13 0 0 0 0 0 0 22 6 0 2 3 14 33
56 71 86 96 102 109 113 116 119 124 125 125 125 125 125 125
125 125 125 125 124 124 124 123 117 93 55 26 8 5 8 9
21 24 25 25 25 24 25 25 26 25 25 25 25 26 25 25
26 26 27 26 27 26 26 26 26 26 25 26 24 23 22 15
0 1 18 24 24 25 25 25 25 24 25 25 24 25 25 25
35 32 30 38 36 33 32 38 21 16 13 0 0 9 18 3
1 0 20 8 8 15 13 12 3 6 31 0 0 0 0 0
0 0 15 0 0 0 0 0 0 16 1 0 2 7 23 48
67 79 85 96 103 109 113 117 120 124 125 125 126 126 125 126
126 125 125 125 125 125 125 125 123 113 86 47 15 5 5 7
18 24 25 24 23 24 26 25 26 26 26 26 26 26 26 25
26 26 26 27 26 27 26 27 27 26 26 26 25 22 21 16
4 6 20 25 26 25 25 26 25 25 25 25 25 25 25 25
3 5 13 18 28 36 41 40 25 15 14 0 0 6 11 2
1 0 28 34 35 38 36 34 35 35 34 0 0 0 0 0
0 0 16 0 0 0 0 0 0 8 0 0 4 17 38 63
75 84 88 95 101 108 113 118 123 125 125 126 125 125 126 125
125 125 126 125 125 125 125 124 124 121 106 76 21 6 4 8
17 25 25 25 25 25 25 25 25 25 25 25 26 26 26 26
26 26 26 26 27 26 27 27 27 26 25 25 25 23 21 16
15 16 23 25 25 26 26 25 25 25 24 25 25 24 24 25
0 0 0 5 0 21 41 38 22 15 15 0 0 0 0 0
0 0 28 35 38 39 38 38 43 46 38 11 8 11 3 1
0 1 18 1 0 0 0 0 1 4 0 0 6 31 53 67
76 83 88 94 102 109 111 120 126 126 126 126 126 126 125 125
125 125 125 125 125 125 124 124 124 123 117 100 48 8 3 5
13 25 26 26 26 25 26 25 26 26 26 26 26 26 26 26
26 26 26 26 26 27 26 26 27 27 26 26 25 24 21 19
19 21 25 26 25 26 25 25 26 25 25 26 25 25 25 25
0 0 10 29 8 29 40 35 20 17 18 14 1 1 0 0
0 0 27 36 37 38 37 38 46 47 43 28 28 28 25 23
23 22 23 16 14 11 12 11 10 4 0 3 10 40 64 74
78 83 88 95 103 110 115 123 124 125 125 126 126 125 126 126
126 125 125 125 125 125 125 125 125 123 121 116 85 14 5 6
11 25 26 26 26 26 26 25 26 26 25 26 25 26 26 27
26 26 26 27 27 27 27 27 27 26 26 26 25 24 23 21
21 26 26 26 26 26 26 25 26 26 25 25 26 26 25 25
0 0 1 25 23 34 39 29 18 18 19 10 0 0 0 0
0 0 27 28 31 33 33 34 32 31 32 29 30 30 29 27
29 29 28 26 24 21 19 18 15 3 0 1 11 43 70 77
79 84 91 98 103 110 115 122 125 127 127 127 126 126 126 126
126 125 125 125 125 125 125 125 125 125 121 121 99 24 3 8
11 24 26 26 25 26 26 26 26 26 26 26 26 27 26 26
27 26 27 26 26 27 27 26 27 27 26 26 25 25 23 23
24 26 26 26 26 26 26 26 25 26 26 25 25 26 24 25
0 0 0 2 9 34 40 26 19 22 20 2 0 0 0 0
0 0 31 32 31 31 30 30 30 26 27 31 32 33 33 31
31 31 30 29 29 33 30 29 19 1 0 1 15 50 74 78
83 89 95 100 107 113 121 124 126 126 126 126 126 126 125 125
126 126 126 125 125 126 126 125 125 125 122 117 103 34 5 2
9 23 28 27 27 27 26 25 26 26 26 27 26 26 26 26
26 26 26 26 27 28 27 27 27 27 26 25 26 24 24 25
25 25 25 25 25 25 26 26 26 25 25 24 25 26 26 25
0 0 0 0 2 33 41 26 20 19 19 22 19 16 12 10
7 5 33 34 31 31 30 31 30 31 33 34 33 35 38 40
33 29 29 30 32 39 38 34 22 0 0 3 19 55 75 80
87 92 98 106 109 115 123 126 126 126 127 127 126 126 126 126
125 126 125 125 125 125 125 126 126 125 123 116 107 47 5 3
6 20 26 26 26 26 26 27 27 27 27 26 26 26 26 26
25 25 26 27 26 25 26 25 26 26 26 26 26 26 25 25
26 26 25 26 26 26 26 26 25 25 25 25 26 25 25 25
0 0 0 0 0 30 41 25 20 20 22 39 41 43 39 41
46 43 45 37 33 33 33 32 34 36 39 38 34 37 41 45
32 30 26 26 33 40 38 34 20 0 0 4 22 58 77 82
90 95 101 106 113 120 124 126 127 127 127 126 125 125 125 126
125 126 126 126 126 125 125 125 125 124 122 117 107 55 5 4
5 20 27 26 26 25 25 25 26 26 26 26 26 26 26 26
25 25 27 26 26 26 27 27 27 27 26 26 26 25 25 26
27 26 26 26 27 27 26 25 25 26 26 25 25 25 25 26
0 0 0 0 1 33 44 27 20 21 23 46 49 48 48 47
47 47 47 39 32 27 30 28 31 37 41 40 35 37 37 32
34 31 28 24 26 34 31 31 23 0 0 4 29 65 77 84
90 96 101 109 114 122 126 127 126 126 127 126 126 126 126 126
126 126 125 125 125 125 125 126 126 125 122 118 106 53 8 3
6 20 25 26 25 26 26 26 27 27 27 27 27 26 25 26
26 25 26 26 26 26 26 26 26 26 26 26 26 27 26 27
26 26 25 25 25 25 25 25 25 25 25 24 25 25 25 25
0 0 0 0 0 32 42 25 17 22 20 34 38 39 40 42
44 45 46 32 4 10 4 4 6 11 23 40 35 28 9 13
17 17 17 26 26 16 3 1 4 0 0 5 34 69 79 83
90 97 104 110 112 125 127 127 127 126 126 126 126 126 126 125
126 126 126 125 127 126 126 126 125 125 121 115 105 54 20 7
6 24 28 27 27 27 26 27 27 27 27 27 27 26 26 25
26 25 26 26 26 26 26 26 26 26 25 26 25 26 25 26
27 26 26 25 26 26 26 25 25 26 26 24 25 24 24 25
0 0 0 0 0 29 38 22 18 21 18 23 25 24 24 23
23 23 26 22 0 0 0 0 0 0 10 40 33 9 0 0
0 3 7 25 27 13 0 0 0 0 0 8 39 72 80 84
88 98 102 103 109 121 126 127 127 127 127 127 127 127 127 126
126 126 126 121 110 91 76 64 58 57 60 65 67 75 71 48
7 25 28 27 27 27 27 27 27 27 27 28 27 26 26 26
25 25 25 25 25 26 26 26 26 26 26 25 26 26 26 27
26 26 26 26 25 26 26 26 25 26 25 25 26 25 25 25
0 0 0 0 0 31 41 24 17 20 19 30 32 32 31 29
29 28 30 23 4 2 0 0 0 4 16 39 24 0 0 0
0 0 5 29 28 16 0 0 0 0 0 9 33 51 52 52
53 49 44 40 38 42 55 74 99 114 126 126 126 126 126 126
120 94 59 29 17 15 19 19 23 30 39 47 68 82 113 84
9 25 30 29 29 28 27 28 27 27 27 27 26 26 26 25
25 26 26 26 26 27 26 22 22 20 20 17 16 20 25 26
26 26 27 26 26 26 26 26 26 26 25 25 26 25 25 25
0 0 0 0 0 35 45 25 16 21 19 32 34 35 34 34
34 34 35 24 2 1 0 0 0 4 18 38 16 0 0 0
0 0 2 30 29 15 0 0 0 0 0 28 59 61 57 52
44 35 22 15 11 9 10 11 21 46 80 113 126 127 127 103
65 37 12 9 5 4 5 4 7 15 35 96 134 113 52 46
14 27 30 29 28 29 27 27 26 21 19 18 16 14 12 10
10 13 18 26 27 27 26 9 3 3 4 3 3 9 26 27
27 27 26 26 26 26 26 25 25 25 25 25 25 25 26 26
12 8 7 3 2 34 40 21 15 20 20 32 35 35 34 35
36 36 37 25 1 1 0 0 2 1 7 36 10 0 0 0
0 0 3 30 28 15 0 0 0 0 2 35 48 24 24 67
61 25 8 2 1 1 0 1 3 8 35 67 109 123 97 69
27 10 4 1 0 0 3 2 7 17 31 104 141 134 54 27
19 28 30 30 29 28 28 27 19 2 1 5 5 5 0 0
0 0 6 26 27 26 26 8 3 3 3 3 2 9 27 27
27 27 27 27 27 27 27 26 26 26 25 25 25 24 25 26
38 36 36 33 32 36 35 29 26 28 25 18 19 19 20 16
16 24 38 28 1 0 0 0 3 4 5 36 8 0 0 0
0 0 2 30 26 14 0 0 0 1 10 13 15 14 56 135
125 40 16 1 0 0 0 0 0 1 7 42 80 76 49 34
13 4 0 0 0 0 1 4 9 27 31 73 124 112 50 29
24 29 27 29 28 27 27 26 18 1 1 6 4 5 0 0
0 0 4 24 26 25 25 6 3 3 4 3 3 9 27 27
27 27 27 26 27 26 26 25 25 25 24 25 25 25 24 26
36 35 35 35 34 34 34 34 33 33 33 32 32 31 30 10
0 7 36 34 10 0 0 0 3 2 4 34 7 0 0 0
0 0 2 32 26 14 0 0 0 2 4 7 12 15 49 131
115 26 8 5 1 0 0 0 0 0 2 17 33 26 46 26
18 0 0 0 0 0 1 7 11 22 26 36 49 45 30 28
30 49 31 30 29 28 28 27 18 1 1 6 4 5 0 0
0 0 4 23 26 26 24 6 3 3 3 2 2 7 25 27
27 28 27 27 27 26 26 25 25 26 26 25 25 25 24 25
36 35 35 35 34 34 34 34 34 33 33 33 33 33 32 14
0 3 34 34 5 0 0 0 3 3 5 35 7 0 0 0
0 0 0 30 26 16 0 0 13 11 1 11 10 9 22 51
44 20 7 3 1 0 0 0 0 0 1 20 21 20 38 30
22 0 0 0 0 0 0 4 5 12 17 26 22 25 18 32
72 103 60 28 28 28 27 27 18 1 1 7 5 6 0 1
0 0 5 24 26 26 25 7 3 3 3 3 3 5 27 28
28 27 27 27 26 25 25 25 24 24 24 24 24 24 24 26
35 34 34 34 33 34 33 33 33 32 33 32 32 32 32 17
0 2 29 28 0 0 0 0 0 0 5 35 7 0 0 0
0 0 0 29 28 14 0 11 51 21 0 10 7 6 16 22
21 12 3 1 0 0 0 0 0 0 1 19 12 16 19 23
29 0 0 0 0 0 0 0 0 7 7 11 14 14 13 35
73 81 79 29 28 28 28 27 19 2 1 6 6 6 1 0
0 0 5 24 26 25 26 11 7 7 8 7 8 7 22 24
25 24 25 26 26 26 26 25 26 26 27 27 26 26 26 25
9 8 8 9 9 9 9 9 9 10 11 11 22 29 31 20
0 1 25 24 0 0 0 0 0 0 3 37 11 0 0 0
0 0 0 27 28 16 5 21 49 19 11 16 6 3 10 10
8 3 0 0 0 0 0 0 0 0 3 19 27 88 47 15
38 0 0 0 0 0 0 0 0 4 6 13 16 11 15 39
68 59 76 30 28 27 27 26 19 1 1 5 3 3 0 0
0 0 4 24 26 27 26 13 8 8 8 8 8 10 21 27
27 27 27 27 26 26 26 25 25 26 27 25 25 25 26 25
0 0 0 0 0 0 0 0 0 0 0 0 23 33 31 23
0 0 22 24 3 2 1 1 4 8 6 35 24 11 10 12
13 11 13 31 30 25 28 38 44 22 21 19 9 0 4 5
2 0 0 0 0 0 0 0 0 0 8 17 54 118 99 21
35 3 0 0 0 0 0 0 0 2 7 14 14 6 14 44
82 66 76 29 28 27 28 27 19 1 1 1 0 0 0 0
0 0 3 23 26 27 25 11 4 4 3 3 4 6 21 26
26 26 27 26 27 26 26 26 25 25 26 25 26 25 24 25
0 0 0 0 0 0 0 0 0 0 0 0 23 35 31 25
0 0 16 33 31 29 25 26 29 30 31 32 41 44 40 40
41 42 42 43 33 24 34 40 54 27 23 28 12 0 2 7
0 0 0 0 0 0 0 0 0 0 12 18 81 119 121 53
24 20 0 0 0 0 0 0 0 0 2 15 12 8 16 54
102 74 72 26 27 28 27 26 18 2 1 0 0 0 1 0
1 0 4 24 26 27 25 11 3 3 3 1 1 6 9 10
15 27 26 26 26 25 26 25 25 25 25 25 25 25 25 25
0 0 0 0 0 0 0 0 0 0 0 0 20 36 31 27
1 0 14 35 36 31 30 32 31 26 26 28 36 45 43 42
41 44 45 45 37 22 30 34 59 39 36 40 10 0 0 5
0 0 0 0 0 0 0 0 0 0 14 37 96 118 121 96
18 34 0 0 0 0 0 0 0 1 4 15 11 12 20 65
109 98 50 26 27 28 27 25 18 3 2 1 2 7 1 1
1 0 3 23 25 27 25 12 3 4 4 2 0 1 13 10
3 26 26 26 26 25 26 25 26 25 25 25 25 25 25 24
0 0 0 0 0 0 0 0 0 0 0 0 18 37 31 27
2 0 11 37 32 27 28 31 31 28 25 27 26 30 32 32
31 31 31 30 31 21 22 27 47 58 65 49 19 1 0 5
1 0 0 0 0 0 0 0 0 6 15 67 105 119 123 116
49 22 18 0 0 0 0 0 0 5 8 16 12 16 33 71
98 102 30 27 27 28 27 24 18 2 1 0 0 1 1 0
2 0 3 23 26 27 25 12 3 3 4 5 0 2 11 9
3 26 26 26 26 26 26 25 26 26 25 25 26 25 25 25
0 0 0 0 0 0 0 0 0 0 0 0 16 38 31 28
3 0 10 35 19 23 22 23 29 28 25 28 24 16 18 18
19 19 19 20 24 24 26 29 42 90 74 52 38 12 1 0
0 0 0 0 0 0 0 0 0 14 25 94 117 125 127 126
93 12 42 6 0 0 0 0 4 10 10 12 14 19 63 86
100 81 25 26 27 28 25 23 18 3 2 0 0 0 1 1
2 0 3 23 25 27 25 12 3 3 3 5 6 8 3 2
3 26 26 26 26 25 26 25 26 25 25 25 25 25 25 24
0 0 0 0 0 0 0 0 0 0 0 0 14 39 32 29
7 5 18 36 10 7 10 11 13 15 14 24 27 21 23 22
28 30 28 27 30 32 32 36 38 76 77 56 52 29 2 1
1 3 0 0 0 0 0 0 9 8 53 102 122 129 129 128
124 45 16 46 6 0 0 8 13 13 13 16 17 37 100 91
116 59 24 26 27 28 25 22 18 3 1 0 0 1 1 1
3 0 3 23 25 26 25 11 2 2 1 3 5 7 4 0
2 26 24 21 23 25 27 25 25 25 25 25 24 25 24 24
0 0 0 0 0 0 0 0 0 0 0 0 11 38 32 29
22 26 32 37 5 0 0 0 0 0 3 21 28 31 38 29
38 45 34 23 24 25 27 31 36 61 85 59 65 38 9 3
1 0 0 0 0 0 0 6 14 20 82 91 109 127 128 127
124 96 16 20 34 11 1 9 15 16 15 18 44 105 101 100
118 36 25 26 26 26 24 23 19 3 1 1 1 1 1 0
2 0 2 23 25 26 25 12 2 2 0 15 12 0 0 0
1 11 5 7 3 18 26 24 25 25 25 25 24 24 24 24
0 0 0 0 0 0 0 0 0 0 0 0 9 38 32 28
34 39 41 40 7 0 0 0 0 0 1 25 27 32 39 26
35 43 23 0 0 0 2 2 16 47 91 67 63 64 33 13
5 1 0 0 0 3 10 13 19 61 87 67 82 116 120 67
79 123 66 52 68 45 33 28 27 34 65 96 116 113 103 116
108 25 24 27 27 27 24 22 20 3 1 1 1 0 1 0
1 0 3 23 25 26 25 12 0 1 11 43 44 4 0 0
4 17 25 25 20 4 26 25 25 24 25 25 24 24 24 24
0 0 0 0 0 0 0 0 0 0 0 0 7 37 32 28
34 41 42 41 12 0 0 0 0 0 0 26 26 30 37 7
3 14 20 0 0 0 0 0 12 39 84 85 62 63 72 65
42 24 14 15 21 35 38 51 74 82 60 13 42 96 107 44
53 121 110 118 124 119 117 113 116 123 127 126 120 111 105 122
83 21 24 25 26 26 24 23 19 2 0 0 0 1 0 0
0 0 2 22 24 26 24 18 11 12 15 31 33 5 0 0
19 26 26 24 24 6 20 25 24 24 25 25 25 24 24 24
0 0 0 0 0 0 0 0 0 0 0 0 5 36 32 28
28 28 27 25 6 0 0 0 0 0 0 26 25 31 37 6
0 11 22 0 0 0 0 0 7 32 68 91 69 61 76 85
84 87 87 98 113 118 106 86 81 77 65 52 82 96 115 118
92 109 111 125 127 125 126 127 127 126 126 125 120 113 106 125
66 19 23 24 26 26 25 23 20 2 0 0 0 0 0 0
0 0 2 22 24 27 25 25 25 24 6 6 7 0 0 0
17 25 25 25 24 10 18 23 23 24 23 24 23 23 23 23
0 0 0 0 0 0 0 0 0 0 0 0 4 35 32 27
18 8 9 8 0 0 0 0 0 0 0 28 25 31 36 6
0 9 23 0 0 0 0 0 4 33 53 95 71 66 81 86
89 100 108 118 126 128 125 110 95 79 64 83 114 114 123 128
119 120 126 127 127 126 126 126 126 126 126 126 120 113 104 120
39 17 21 23 24 24 24 22 19 3 0 0 0 0 0 0
0 0 1 20 22 25 26 26 20 15 4 0 0 0 0 0
16 26 26 25 26 8 19 25 24 25 25 25 25 25 25 24
0 0 0 0 0 0 0 0 0 0 0 0 3 33 32 26
19 10 11 9 0 0 0 0 0 0 0 28 23 31 37 6
0 9 24 0 0 0 0 0 3 32 43 90 74 66 80 86
86 96 108 116 124 128 128 126 111 102 91 102 124 125 126 128
127 128 127 127 127 126 126 127 127 126 126 126 124 114 104 81
19 16 21 23 24 25 25 23 20 3 0 0 0 0 0 0
0 0 2 22 25 26 26 26 7 21 21 0 0 0 0 0
15 24 25 24 23 6 23 24 24 24 25 23 23 23 22 23
0 0 0 0 0 0 0 0 0 0 0 0 2 33 31 26
20 12 14 11 0 0 0 0 0 0 0 27 24 32 36 5
1 8 23 0 0 0 0 0 2 32 34 70 78 64 79 85
87 95 104 111 121 126 127 119 104 104 108 118 129 128 122 127
128 128 128 127 127 126 126 127 127 127 127 126 125 114 68 31
22 15 21 23 25 25 24 22 20 8 5 3 2 2 1 0
0 1 7 21 24 25 25 25 15 39 41 5 0 0 0 0
15 25 25 24 15 10 25 25 24 25 24 23 24 24 24 24
0 0 0 0 0 0 0 0 0 0 0 0 1 32 33 26
22 16 17 12 0 0 0 0 1 1 0 25 26 33 37 12
2 8 23 5 2 0 2 0 2 30 32 31 57 58 78 86
88 93 104 108 119 123 119 111 104 108 112 117 122 119 118 121
126 127 128 127 128 127 127 127 127 127 128 127 124 112 57 28
24 13 21 22 24 25 24 23 22 20 18 15 11 7 4 1
0 2 4 8 7 7 6 5 3 10 5 1 0 0 0 0
2 6 6 7 3 21 10 8 16 25 24 24 24 23 23 24
0 0 0 0 0 0 0 0 0 0 0 0 1 32 32 26
22 18 18 13 0 4 0 0 5 10 1 23 27 34 36 16
9 7 23 3 5 6 4 0 2 29 31 26 27 50 77 87
88 92 100 107 117 117 109 103 103 110 107 109 110 113 117 115
120 124 127 128 127 127 127 127 127 127 128 127 122 107 46 29
26 14 20 21 23 24 24 22 22 21 20 16 13 1 0 0
0 0 0 0 0 0 0 0 0 0 0 0 0 0 0 1
1 0 0 0 0 8 5 34 12 25 25 25 25 24 25 25
0 0 0 0 0 0 0 0 0 0 0 0 1 31 33 26
24 19 19 17 1 6 2 1 7 13 9 23 31 34 35 12
19 7 22 0 7 9 4 0 1 26 29 25 26 41 74 86
90 91 100 106 113 109 103 99 104 107 98 93 82 86 101 97
104 106 109 113 121 123 126 127 128 128 128 126 119 102 37 28
26 13 19 21 24 24 24 23 22 22 21 18 15 1 0 9
13 15 17 18 19 20 20 20 20 19 20 21 21 23 23 22
20 9 0 2 20 4 12 76 37 25 24 25 26 25 26 26
0 0 0 0 0 0 0 0 0 0 0 0 1 31 33 26
24 19 19 24 26 30 31 31 32 35 35 40 36 34 33 6
21 10 23 13 16 16 14 13 14 23 23 24 26 34 71 82
88 91 101 105 103 99 95 90 90 87 80 84 77 76 84 96
99 101 102 92 92 97 117 129 128 128 127 126 119 90 32 29
27 14 17 21 23 23 23 22 21 16 13 10 12 1 0 16
18 22 23 23 24 24 24 23 23 23 24 25 25 26 26 25
22 10 0 0 5 1 1 16 9 3 3 9 37 36 36 34
0 0 0 0 0 0 0 0 0 0 0 0 0 30 34 27
23 20 20 26 40 40 42 42 42 42 42 46 44 34 33 1
10 11 25 18 20 19 18 20 17 18 20 24 25 27 61 80
86 91 102 109 106 100 80 64 56 60 77 99 110 117 117 121
125 128 121 117 124 126 126 127 128 128 126 123 114 71 28 28
27 15 14 19 21 22 23 22 21 8 0 0 0 0 0 15
17 21 24 25 25 25 25 24 25 25 25 26 27 27 27 26
23 10 0 0 0 0 0 0 0 1 0 7 43 43 42 40
0 0 0 0 0 0 0 0 0 0 0 0 0 31 34 26
23 20 19 20 41 41 41 41 40 40 41 43 44 34 33 2
3 5 24 19 22 23 22 22 22 23 22 24 24 25 50 79
84 90 101 109 112 111 87 69 71 73 90 109 119 122 118 118
116 113 114 124 128 127 128 127 128 128 125 120 110 50 31 29
27 18 12 18 20 21 21 21 21 8 0 0 0 0 1 14
18 22 24 25 26 26 26 26 26 27 27 29 28 29 28 27
24 12 0 0 0 0 0 0 0 0 0 6 42 41 41 38
0 0 0 0 0 0 0 0 0 0 0 0 0 30 33 26
24 20 20 15 18 16 15 15 14 14 15 16 16 27 32 2
1 4 24 20 25 25 24 25 24 24 24 24 24 24 37 72
82 88 97 108 113 115 102 89 83 77 73 83 95 93 89 89
93 107 123 128 129 128 128 128 128 127 122 115 94 33 31 30
27 21 10 17 19 20 21 21 20 9 1 0 0 0 1 14
18 21 24 25 26 27 28 27 28 28 29 30 30 29 28 27
25 12 0 0 0 0 0 0 0 0 27 34 38 38 37 35
0 0 0 0 0 0 0 0 0 0 0 0 0 29 33 25
23 20 20 14 10 9 9 9 9 10 10 13 14 27 32 2
0 2 24 20 24 25 25 25 23 24 24 24 24 25 28 64
79 85 90 101 111 106 93 93 91 86 84 87 90 94 104 119
126 129 129 129 128 128 128 125 125 124 116 109 64 32 31 29
27 23 9 17 18 19 17 19 18 17 13 0 0 0 2 15
17 21 23 25 26 27 27 27 28 28 30 30 30 30 29 28
26 12 0 0 0 0 0 0 0 2 35 36 35 35 34 32
0 0 0 0 0 0 0 0 0 0 0 0 0 27 31 25
23 21 20 18 15 14 12 11 11 11 11 14 14 28 34 9
10 14 27 20 24 24 24 24 24 23 23 24 24 24 24 47
74 80 84 95 103 98 98 101 105 110 115 119 119 120 127 129
130 129 128 128 128 128 128 127 124 118 112 95 37 31 28 28
26 23 13 20 21 15 12 12 7 8 7 31 2 0 2 13
17 20 22 24 26 26 27 28 28 28 30 30 30 30 29 28
26 12 0 0 0 0 0 0 0 4 34 33 33 32 31 30
0 0 0 0 0 0 0 0 0 0 0 0 0 29 32 25
23 19 20 20 17 17 16 16 16 15 15 16 16 32 37 25
38 41 34 19 24 24 24 24 24 23 24 24 24 24 24 30
68 77 80 84 90 98 101 100 108 115 117 115 119 125 130 130
130 130 129 129 129 128 127 122 118 108 104 60 32 31 27 30
31 27 27 24 23 14 12 8 2 7 4 0 0 0 3 15
18 20 21 24 25 26 27 27 28 29 29 30 30 29 29 28
28 11 0 0 0 0 0 0 0 5 31 30 30 29 29 29
0 0 0 0 0 0 0 0 0 0 0 0 1 32 33 25
22 20 20 20 18 17 17 17 17 17 16 17 15 26 27 20
28 30 25 20 24 25 25 24 24 24 24 24 23 23 24 25
46 72 77 83 84 89 95 99 104 111 112 110 121 129 129 129
129 129 129 128 128 127 123 114 108 103 86 35 28 24 26 36
32 34 26 20 17 11 9 8 2 7 4 30 0 0 4 15
17 19 20 22 24 26 27 28 29 29 29 30 30 30 29 29
28 10 0 0 14 26 4 0 0 8 30 28 28 27 27 27
5 6 8 9 11 12 13 14 16 17 19 20 22 28 27 25
22 19 19 14 10 16 17 16 16 16 17 16 16 22 22 18
17 20 22 23 24 24 24 24 24 24 24 23 24 24 23 24
31 67 72 80 82 80 88 92 95 100 106 111 115 126 129 129
129 129 129 129 127 122 107 99 96 94 78 30 19 18 21 35
30 23 15 11 8 8 9 10 2 6 1 2 0 0 5 16
18 18 20 22 24 25 26 27 28 29 30 29 29 30 30 30
30 11 0 0 22 35 5 0 0 10 28 27 27 27 27 27
15 16 14 16 26 28 27 27 27 26 26 25 24 24 24 24
22 19 18 7 14 8 17 16 17 16 16 15 17 22 21 21
19 21 21 22 23 24 25 24 24 23 23 23 23 22 23 24
27 62 71 77 80 80 83 82 88 94 97 105 110 119 122 127
128 126 124 123 116 103 97 98 99 95 79 37 20 17 15 15
13 11 10 7 7 6 9 10 3 5 2 1 0 0 5 16
17 18 20 21 23 24 25 27 27 29 29 29 30 29 30 30
30 9 0 0 0 0 0 0 0 13 28 27 27 26 27 26
29 29 27 20 10 19 27 27 27 26 26 25 25 25 24 25
22 19 13 10 19 11 11 3 6 16 16 17 19 23 23 22
21 22 23 23 23 24 24 24 24 24 23 23 23 24 23 24
25 63 71 72 75 72 74 75 80 86 89 94 98 107 112 119
119 116 108 108 100 105 108 106 101 102 78 44 22 16 12 11
9 10 8 8 7 9 11 11 5 4 5 4 0 0 6 16
17 19 20 21 22 24 25 27 27 28 29 29 30 29 30 31
31 9 0 0 2 1 0 0 0 15 27 27 27 26 26 27
30 30 29 29 28 17 16 28 27 26 25 25 24 24 23 20
17 39 16 14 19 16 4 0 5 18 17 17 20 23 23 22
22 22 23 23 24 24 25 24 24 24 23 23 24 23 23 23
25 64 77 71 73 75 75 73 76 77 81 82 83 87 92 94
94 93 89 95 108 113 111 107 103 108 71 37 35 13 13 12
12 11 10 10 10 11 12 14 8 4 5 1 0 0 6 16
17 18 20 21 22 24 24 26 28 28 29 30 30 31 30 31
30 7 0 0 0 0 0 0 0 19 27 27 26 26 27 27
29 28 27 25 23 21 11 13 15 12 11 10 11 11 4 0
2 59 34 19 17 17 4 0 14 18 17 18 20 23 23 23
23 22 22 22 24 24 24 23 23 22 23 23 23 23 23 23
25 60 84 77 75 78 80 83 84 78 71 68 66 65 65 68
76 89 103 111 114 111 108 105 108 113 61 22 40 11 9 10
10 12 13 12 11 11 11 14 9 2 7 0 0 0 7 15
16 18 19 20 22 22 24 24 27 27 28 28 29 29 29 31
30 7 0 0 0 0 0 0 0 19 26 26 26 26 26 26
16 15 14 11 4 1 0 0 0 0 0 3 2 0 0 0
0 45 35 22 4 11 35 3 12 13 15 17 21 23 23 23
23 22 22 23 23 23 23 23 23 23 22 23 22 22 22 21
22 56 88 85 78 75 81 84 86 87 84 79 81 87 97 105
112 115 115 114 110 107 104 106 115 116 54 19 29 12 0 3
6 7 8 9 11 12 10 12 10 1 13 0 0 0 8 16
16 17 19 20 21 22 23 25 26 27 27 28 29 29 29 30
30 6 0 0 0 0 0 0 0 12 27 26 26 26 26 26
27 27 32 30 28 29 27 7 0 1 2 1 0 0 0 0
0 38 29 10 2 44 42 12 0 0 1 4 14 23 23 23
23 23 22 22 23 23 24 23 23 23 22 22 23 22 21 21
22 53 89 90 84 78 81 84 86 84 85 89 90 101 107 112
113 114 112 106 105 107 103 111 119 118 58 28 22 24 13 3
2 8 16 14 15 21 25 27 28 10 11 0 0 0 9 17
18 19 19 20 22 22 24 26 26 28 27 27 28 29 29 31
31 6 0 0 0 0 0 0 0 6 23 26 25 26 26 25
50 48 47 45 43 41 36 17 0 0 3 3 0 0 0 0
10 29 26 10 3 19 29 20 0 0 0 0 0 13 23 22
23 23 22 22 22 23 23 22 23 23 23 22 23 22 20 21
28 51 89 95 91 85 82 81 84 85 85 87 90 97 101 104
105 105 103 103 105 107 110 119 123 118 61 18 18 25 20 11
7 0 6 19 20 19 18 34 39 11 8 0 0 0 12 20
19 19 21 21 22 23 25 27 28 27 28 28 29 29 31 32
35 6 0 1 2 0 0 0 1 20 10 26 26 25 25 25
48 46 43 39 36 41 37 25 4 0 2 0 0 0 0 0
13 13 27 13 0 21 31 25 3 0 0 0 0 4 23 22
22 22 22 21 21 21 21 21 21 22 22 22 22 19 23 55
26 43 90 95 96 91 85 83 84 82 84 84 86 88 93 94
97 95 98 103 107 111 117 123 123 116 88 74 53 37 31 25
5 0 0 8 19 28 26 17 26 5 3 0 0 0 11 20
18 19 20 22 24 25 26 27 28 29 29 30 30 31 32 35
38 5 0 60 95 30 0 0 3 25 9 21 25 25 25 25
55 52 53 50 40 39 37 27 1 1 4 4 1 0 0 0
0 2 24 21 0 23 33 23 10 0 0 0 0 3 23 22
21 22 21 20 19 18 19 18 18 20 21 23 23 30 57 65
25 39 91 96 98 97 91 88 87 85 82 82 81 82 86 89
91 94 98 107 111 114 121 124 124 115 80 86 84 78 40 44
57 23 0 3 5 15 29 20 21 2 0 0 0 0 0 0
0 1 1 1 2 2 10 8 8 2 3 3 4 4 4 4
5 0 2 104 129 44 0 0 6 25 20 8 25 25 25 24
46 43 41 33 26 24 21 4 1 37 78 55 4 0 0 0
0 0 2 2 0 36 40 1 12 2 0 0 0 10 23 22
22 21 20 18 17 17 17 16 17 18 31 41 54 59 64 66
35 65 91 98 100 99 96 92 90 87 84 82 84 84 89 91
95 101 107 112 114 120 123 125 123 114 80 85 84 81 72 30
68 71 56 34 20 13 19 16 6 0 0 0 0 0 0 0
0 0 0 0 0 0 0 0 0 0 0 0 0 0 0 0
0 0 0 36 51 10 0 0 8 25 25 9 18 24 24 24
31 30 28 21 17 17 15 1 0 6 32 7 0 0 0 0
0 0 0 0 0 48 56 1 8 6 0 0 2 18 21 21
20 19 18 16 15 14 15 17 31 49 47 41 61 61 66 66
43 69 91 99 102 100 98 97 94 90 89 88 90 93 97 100
104 108 110 114 118 121 125 126 122 113 86 86 81 82 74 38
74 81 82 79 75 66 56 42 31 3 0 0 0 0 0 0
0 0 0 0 0 1 1 0 0 0 0 1 0 0 0 0
0 1 4 0 0 0 0 0 9 24 17 5 0 14 24 24
19 24 26 18 16 17 16 11 16 1 4 1 0 0 0 0
0 0 0 0 0 39 53 0 4 4 0 0 0 1 10 20
19 17 16 17 23 25 33 45 52 59 44 49 61 62 65 68
52 69 90 98 102 104 101 100 97 95 93 92 94 97 102 105
108 111 115 119 121 125 128 126 122 112 82 86 83 81 78 59
85 85 92 93 89 87 84 78 77 74 56 30 9 0 0 0
0 0 0 0 0 0 0 0 0 0 0 0 0 0 0 0
0 2 7 0 0 0 0 0 0 12 3 13 6 9 24 23
0 10 16 7 5 11 9 5 3 1 3 0 0 0 0 0
0 0 12 30 20 23 52 0 7 4 0 0 0 0 2 18
18 19 29 46 46 35 43 51 52 59 48 54 58 60 65 68
61 69 89 99 102 104 105 103 101 100 98 98 101 102 105 108
113 116 119 121 125 128 128 127 122 112 83 86 85 84 92 79
90 89 96 97 96 94 87 84 88 83 79 81 77 61 39 16
5 4 4 4 4 4 3 1 1 0 0 1 0 0 0 0
0 0 0 0 0 0 0 0 0 4 1 19 12 8 23 23
0 0 0 0 0 0 0 0 0 0 33 5 0 0 0 0
0 0 28 68 38 16 56 0 0 0 6 25 39 41 42 46
46 48 51 57 52 37 44 54 56 61 54 47 60 61 64 68
67 65 88 98 101 104 105 108 109 104 103 104 107 109 113 116
119 119 122 127 128 129 129 127 122 107 88 85 86 95 99 87
93 95 93 100 100 95 86 93 93 91 87 88 82 78 77 75
64 41 17 0 0 1 1 0 0 0 0 0 0 0 0 0
0 0 0 0 0 0 0 0 0 0 0 0 0 2 19 22
0 0 0 0 0 0 1 5 9 1 8 1 0 0 0 3
12 0 23 79 48 13 66 2 14 48 69 73 73 70 67 65
65 60 57 64 64 49 45 53 57 58 57 45 60 59 62 67
69 64 84 96 101 104 106 109 111 113 114 113 112 115 117 120
123 127 128 128 128 128 128 127 121 101 84 84 90 102 99 98
95 98 94 102 98 94 91 98 99 96 95 93 85 83 81 81
82 80 77 64 33 3 0 0 0 0 0 0 0 0 0 0
0 0 4 0 0 0 0 0 0 0 0 0 0 0 3 20
0 0 0 0 3 13 23 22 19 3 0 2 0 0 0 7
18 0 17 75 62 20 73 46 68 73 76 79 83 82 80 79
79 76 78 78 78 73 58 62 63 66 65 55 64 61 62 64
68 67 72 94 100 106 110 111 112 111 115 117 121 123 125 127
128 129 128 128 128 128 118 127 111 91 79 85 96 102 94 102
97 99 96 99 99 94 95 103 102 99 96 88 84 87 87 86
87 87 87 83 79 68 26 0 0 0 0 0 0 0 0 0
0 0 2 0 0 0 0 0 0 0 0 0 0 0 0 6
6 15 13 14 17 18 22 23 20 6 0 0 0 0 0 7
24 10 13 45 37 33 59 71 76 80 84 86 89 89 89 88
87 89 88 90 87 86 82 79 81 83 83 78 77 76 70 65
66 68 75 83 98 103 111 113 114 114 116 118 120 121 124 129
130 129 129 129 130 128 126 119 99 83 84 92 101 103 96 106
99 101 100 100 100 94 99 105 104 98 91 87 93 91 89 92
93 92 91 90 89 84 80 47 3 0 0 0 0 0 0 0
0 0 0 0 0 0 0 0 0 0 0 0 0 0 0 0
28 32 29 26 27 28 28 26 24 21 21 24 28 16 8 7
22 21 15 19 31 62 71 79 82 87 88 90 91 91 91 92
91 93 95 99 94 92 96 93 94 88 89 95 89 93 91 80
65 66 73 88 90 101 108 111 115 117 119 119 118 123 125 128
130 130 130 130 130 129 119 98 86 82 88 97 103 101 100 108
99 101 102 104 100 95 104 108 102 94 90 96 99 92 95 97
96 95 92 96 95 93 89 87 61 5 0 0 0 0 0 0
0 0 0 0 0 0 0 0 0 0 0 0 0 0 0 0
32 33 32 30 31 31 32 27 25 24 27 31 31 13 17 8
38 13 11 31 59 71 77 84 87 88 91 93 95 95 90 92
93 98 97 101 95 95 101 103 96 89 95 100 89 96 96 91
73 65 68 76 84 91 103 111 114 116 117 120 122 124 128 130
132 131 131 130 129 115 96 88 83 86 95 102 103 97 107 109
100 104 105 106 101 99 108 108 101 92 96 104 101 95 96 100
98 95 96 102 100 97 96 94 89 61 8 0 0 0 0 0
0 0 0 0 0 0 0 0 0 0 0 0 0 0 0 0
37 38 38 36 34 30 34 27 21 21 22 18 12 4 17 8
3 0 20 57 66 82 84 87 88 89 93 97 97 97 93 92
96 98 100 101 99 95 100 100 95 94 100 100 94 93 95 95
89 68 65 69 78 91 94 108 111 118 121 121 123 124 129 130
131 132 129 120 105 96 89 86 85 93 101 103 99 101 108 108
100 104 107 108 102 102 109 107 98 90 103 107 98 94 100 101
98 93 100 103 102 100 100 100 88 83 65 11 0 0 0 0
0 0 0 0 0 0 0 0 0 0 0 0 0 0 0 0
37 38 38 37 34 26 27 20 15 14 15 11 0 0 17 7
0 12 45 61 77 89 87 90 90 89 94 98 101 99 95 92
97 98 101 100 101 95 98 100 97 97 101 99 91 91 93 95
95 82 66 65 68 78 92 101 112 115 119 122 123 126 128 128
122 113 103 95 93 88 86 87 93 99 105 101 101 109 110 109
99 107 108 108 101 104 109 105 93 92 108 107 97 95 102 102
97 92 104 107 103 101 101 103 83 87 80 66 8 0 0 0
0 0 0 0 0 0 0 0 0 0 0 0 0 0 0 0
34 40 40 40 29 20 14 12 11 10 13 10 10 15 7 2
9 45 60 66 93 92 90 94 94 87 95 98 102 100 96 92
93 99 99 100 102 96 97 101 97 100 101 97 91 95 92 94
95 93 77 65 63 66 68 89 92 93 105 107 108 103 103 100
95 92 90 90 89 87 87 92 98 106 104 98 107 110 112 108
98 106 107 108 102 106 109 102 91 99 111 105 96 99 104 101
94 92 108 108 106 104 107 103 75 91 86 82 39 0 0 0
0 0 0 0 0 0 0 0 0 0 0 0 0 0 0 0
11 10 16 23 27 16 10 9 10 10 14 10 24 26 4 10
26 60 62 75 98 93 92 94 98 84 94 97 101 101 97 95
92 98 99 98 100 98 97 101 101 101 102 98 89 97 100 91
95 97 96 82 71 67 63 70 74 83 86 91 91 94 93 90
92 89 90 88 87 85 93 98 102 98 97 106 110 111 111 107
100 108 109 109 103 108 108 99 91 103 112 104 99 101 104 100
92 96 109 110 107 106 108 100 72 94 92 88 84 18 0 0
0 0 0 0 0 0 0 0 0 0 0 0 0 0 0 0
29 25 21 20 16 6 5 3 4 4 13 22 63 35 31 27
56 60 62 83 100 96 94 98 99 83 92 96 101 101 97 97
89 98 98 98 100 101 98 101 103 102 100 99 87 97 101 99
90 94 96 96 89 84 80 79 76 71 76 76 82 79 82 84
86 86 87 87 88 96 98 101 100 98 103 105 110 111 111 106
101 107 109 108 104 109 108 95 96 107 111 105 99 100 103 98
89 98 108 108 106 109 109 90 73 96 94 89 93 70 3 0
0 0 0 0 0 0 0 0 0 0 0 0 0 0 0 0
32 32 30 26 15 7 7 3 2 2 66 63 41 41 53 53
61 60 65 90 99 97 95 97 99 82 89 95 98 102 96 96
91 95 100 98 100 101 98 99 103 102 102 99 89 97 103 102
100 94 95 96 95 87 90 86 81 90 82 87 85 86 88 89
89 95 93 93 96 97 100 98 100 110 101 107 110 112 109 104
104 108 108 108 106 109 106 94 97 108 112 105 100 101 102 98
86 101 108 109 107 110 109 83 76 97 93 92 100 91 50 0
0 0 0 0 0 0 0 0 0 0 0 0 0 0 0 0
32 32 31 25 14 13 13 10 10 8 61 77 35 41 58 58
61 62 67 92 99 99 95 96 99 79 89 97 98 103 96 96
95 93 101 99 99 102 101 102 104 102 100 100 90 98 104 104
99 102 99 92 97 94 92 93 87 95 88 93 93 91 90 93
95 95 96 100 99 100 97 103 111 105 102 108 110 111 109 104
104 108 108 109 107 107 104 94 98 109 112 107 102 98 99 94
86 103 107 109 108 109 107 71 84 98 87 96 103 94 91 26
0 0 0 0 0 0 0 0 0 0 0 0 0 0 0 0
32 31 23 16 11 12 12 10 10 9 48 91 31 42 59 65
62 61 69 93 97 100 97 97 99 77 87 98 98 103 96 95
99 93 101 102 101 103 103 101 103 101 101 101 93 99 104 104
100 101 102 100 93 92 91 94 97 96 95 94 95 92 98 96
98 97 99 96 94 101 109 110 108 101 105 110 112 110 109 106
106 107 110 109 108 108 99 93 99 109 113 107 100 99 98 92
86 103 106 109 109 109 102 68 89 96 86 101 104 98 96 78
8 0 0 0 0 0 0 0 0 0 0 0 0 0 0 0
31 29 16 11 11 11 11 10 10 10 28 96 33 44 67 69
65 64 70 92 95 100 99 98 98 76 86 97 98 103 99 92
100 96 99 103 102 102 102 102 102 101 101 101 94 100 103 106
102 101 100 103 105 96 77 79 91 95 96 96 98 97 96 95
94 93 96 99 108 110 111 110 102 100 109 110 111 111 108 106
105 107 110 109 108 107 97 92 103 112 112 106 102 99 97 90
87 104 106 107 108 110 90 70 94 90 91 105 105 101 97 97
60 1 0 0 0 0 0 0 0 0 0 0 0 0 0 0
32 28 14 10 11 10 10 10 10 10 17 108 42 55 70 70
67 65 70 91 96 100 100 100 97 75 83 96 98 103 102 90
100 99 99 103 103 103 103 102 101 102 103 102 97 100 103 104
104 102 103 104 105 105 105 94 84 82 82 84 85 85 91 93
99 104 109 111 112 110 112 106 99 103 110 111 111 108 107 108
106 107 111 109 108 104 96 93 107 113 112 107 101 96 95 88
88 105 106 107 108 109 80 76 99 82 97 105 104 103 99 100
92 36 0 0 0 0 0 0 0 0 0 0 0 0 0 0
32 28 14 11 11 10 11 10 11 10 9 46 38 65 70 70
68 67 67 89 96 100 102 100 97 72 82 96 98 104 103 89
98 99 98 102 103 103 103 103 102 103 102 101 97 100 103 103
105 104 103 103 106 107 106 106 105 103 103 104 102 103 103 105
107 106 110 110 110 111 109 99 99 106 110 111 110 108 109 107
105 105 110 110 107 101 92 96 109 112 110 106 101 95 95 87
88 104 105 106 108 105 72 80 99 80 102 106 105 105 101 100
97 83 13 0 0 0 0 0 0 0 0 0 0 0 0 0
32 29 15 11 11 11 11 10 10 10 8 4 46 71 72 72
67 70 68 87 95 101 102 101 95 69 81 96 98 104 104 88
96 101 99 102 103 103 104 102 102 104 102 101 99 99 103 104
105 104 103 105 106 107 108 105 104 105 105 105 106 107 107 106
106 108 110 110 111 110 105 99 103 108 111 111 109 109 107 107
107 105 110 109 106 97 91 101 109 111 109 106 100 95 95 89
89 105 104 105 109 99 70 84 99 78 104 104 105 106 102 102
101 96 65 1 0 0 0 0 0 0 0 0 0 0 0 0
25 28 16 11 11 11 10 10 11 16 12 14 66 72 75 72
68 67 66 81 97 100 103 102 92 69 79 94 98 104 103 86
93 101 100 101 103 102 102 102 102 104 101 102 98 101 103 103
104 103 104 104 105 106 106 106 106 105 106 107 105 106 107 107
107 108 110 110 111 108 101 99 104 109 112 111 109 107 107 107
105 106 109 109 105 92 94 103 109 111 108 107 101 96 95 89
90 104 104 103 108 92 70 88 95 81 106 104 105 105 102 104
104 100 91 34 0 0 0 0 0 0 0 0 0 0 0 0
16 19 15 12 11 12 10 10 13 23 22 49 71 73 77 78
70 66 64 76 98 100 103 103 91 68 78 93 98 104 104 84
93 102 101 101 102 103 103 103 103 104 102 103 101 100 102 104
107 105 105 106 107 106 106 106 107 106 106 106 104 107 106 106
108 110 111 110 110 106 101 102 106 110 111 109 109 107 109 107
106 106 107 108 103 91 98 106 110 112 109 106 101 97 94 89
90 105 104 100 107 90 70 89 91 84 106 101 105 103 103 105
104 100 98 83 12 0 0 0 0 0 0 0 0 0 0 0
15 14 9 15 19 19 12 9 15 25 36 66 72 76 78 86
75 66 62 69 99 98 102 104 90 67 77 91 98 102 103 83
88 100 102 100 103 102 102 103 103 103 102 104 101 101 102 105
105 104 105 104 104 105 106 106 108 107 107 105 105 106 107 108
107 110 110 108 107 103 99 104 108 110 110 108 108 107 109 108
107 108 108 107 98 92 102 106 109 111 109 106 100 98 95 88
93 106 100 97 104 88 69 90 86 87 105 98 106 102 104 105
105 101 100 95 62 1 0 0 0 0 0 0 0 0 0 0
15 14 8 18 26 24 12 9 16 26 56 69 74 78 75 88
82 68 62 64 93 99 101 103 88 64 73 91 99 100 103 84
89 100 102 100 102 102 102 102 102 101 102 102 102 100 103 104
106 104 104 106 106 105 105 105 107 106 107 104 104 106 107 109
109 110 109 109 107 102 101 106 109 111 109 108 107 108 108 107
106 107 107 104 95 95 104 107 109 111 109 105 100 99 93 88
94 105 99 96 103 91 68 88 81 90 101 99 105 102 105 104
104 102 101 99 90 34 0 0 0 0 0 0 0 0 0 0
24 18 12 21 29 24 11 9 17 39 66 71 76 83 75 88
91 73 60 59 86 99 99 102 86 63 70 89 100 101 104 84
88 99 102 102 102 103 102 103 103 102 103 104 100 102 104 104
105 105 105 105 107 107 106 105 107 107 105 106 107 108 108 108
108 108 109 109 106 101 102 108 110 109 107 109 107 109 108 107
106 105 104 99 93 98 105 107 110 112 110 105 101 101 94 89
98 106 97 93 101 95 74 89 72 90 99 102 105 105 104 103
104 103 103 101 95 81 8 0 0 0 0 0 0 0 0 0
29 28 22 24 28 22 10 8 20 58 69 74 77 84 79 83
95 81 62 60 78 100 100 101 84 64 68 87 101 101 103 83
86 96 103 101 102 104 103 103 104 103 103 103 103 103 104 105
105 106 106 106 106 106 107 105 107 107 107 106 106 107 110 109
109 108 108 108 105 101 105 109 111 110 108 107 106 107 107 105
105 102 97 96 95 103 107 108 109 110 109 106 100 99 93 89
97 105 95 92 97 96 82 90 71 90 96 104 104 103 105 104
104 104 103 102 99 94 53 0 0 0 0 0 0 0 0 0
29 28 25 23 26 20 9 8 35 66 71 75 78 83 86 78
92 88 69 61 70 99 99 99 83 63 67 84 101 100 105 87
85 94 102 101 103 103 104 103 104 104 103 104 105 104 103 106
106 105 105 106 107 105 106 106 107 108 106 106 108 108 108 109
109 108 108 107 103 101 106 110 110 109 108 106 107 109 107 106
103 99 95 97 99 104 107 108 109 110 108 103 101 98 94 90
98 105 93 91 93 95 88 91 68 88 92 104 104 103 103 103
105 104 104 103 100 99 84 25 0 0 0 0 0 0 0 0
28 28 26 21 25 18 9 13 58 69 73 75 76 82 88 79
86 90 81 60 63 94 99 99 86 62 64 84 100 99 105 88
82 90 103 104 103 103 104 103 104 103 104 103 105 104 103 104
105 105 105 106 106 107 107 107 107 107 107 107 107 108 108 109
109 109 109 105 102 102 106 110 110 109 107 106 108 106 107 101
99 98 95 99 105 106 107 109 110 110 108 105 102 96 91 92
99 105 92 88 91 93 91 94 63 87 90 101 103 102 102 103
104 103 103 103 101 101 90 73 7 0 0 0 0 0 0 0
28 27 27 21 22 17 9 35 66 71 74 79 78 82 94 84
81 89 91 61 58 88 100 102 87 61 62 83 101 101 103 90
81 88 101 102 103 103 103 103 103 104 104 103 103 103 104 104
105 104 104 105 106 106 106 107 107 107 107 107 107 108 109 109
110 109 108 104 101 103 106 109 108 109 108 107 107 107 104 98
97 97 99 105 108 108 109 107 108 108 108 106 102 96 92 91
100 104 92 87 91 93 91 96 62 85 86 101 102 101 100 102
103 104 104 104 103 101 93 88 55 1 0 0 0 0 0 0
28 27 27 24 20 15 14 58 67 72 73 80 79 79 94 87
82 83 94 71 56 81 100 102 86 62 59 83 101 102 104 90
79 85 100 103 103 102 103 104 103 104 103 103 103 104 103 103
104 104 103 104 105 106 105 106 106 106 106 106 107 108 109 108
109 109 108 103 102 104 108 111 109 108 107 106 105 106 100 94
96 101 103 106 108 109 108 106 108 107 107 104 102 96 93 92
99 104 89 81 91 94 93 98 60 84 87 102 102 100 101 103
104 104 103 102 104 101 94 94 84 33 0 0 0 0 0 0
28 27 26 26 21 12 31 65 69 74 75 79 81 84 94 88
86 82 92 80 52 72 98 100 86 62 59 85 101 102 105 90
79 83 98 103 102 103 103 103 103 102 103 103 102 104 103 102
103 104 104 105 105 105 105 106 106 107 107 107 107 107 108 109
110 109 107 103 102 105 108 108 108 107 105 107 108 103 96 95
99 105 106 108 108 109 106 106 107 106 106 104 102 95 93 94
102 103 88 77 92 93 92 98 57 87 85 101 100 100 102 102
103 103 102 103 104 102 100 97 90 77 14 0 0 0 0 0
28 27 26 25 21 13 54 68 72 75 79 80 80 84 94 87
86 86 89 89 52 68 97 101 88 59 59 87 102 102 104 92
79 82 95 102 103 103 103 104 103 104 103 102 103 103 103 102
104 105 105 106 106 105 105 105 107 108 108 106 106 107 108 109
107 107 105 100 103 106 108 108 109 108 106 107 106 99 95 96
103 107 108 108 107 106 105 106 107 106 106 103 102 95 95 96
102 103 87 73 95 96 94 99 56 86 85 100 99 99 100 103
101 101 103 103 103 101 100 98 92 88 63 3 0 0 0 0
