P2
128 120
154
37 36 37 38 38 38 39 39 40 40 40 40 41 41 41 42
42 42 42 43 44 44 44 44 44 44 45 44 45 45 46 46
46 45 46 46 46 46 46 47 47 47 47 46 47 47 46 46
46 46 46 46 46 45 46 46 46 45 45 44 44 44 44 43
43 42 42 42 42 42 40 40 41 40 39 39 38 37 37 36
36 35 36 35 35 35 35 34 34 34 33 33 33 33 33 32
32 32 32 32 33 32 32 33 33 33 34 34 34 34 34 35
35 36 37 37 37 38 38 38 39 40 41 41 41 42 42 42
36 37 37 37 37 38 39 39 40 40 40 41 42 42 42 42
43 43 42 43 43 43 43 43 44 44 45 45 45 45 46 45
46 46 46 46 46 46 46 46 46 46 47 46 47 47 47 46
46 46 46 45 46 46 45 46 45 45 45 44 44 45 44 43
43 43 43 42 42 41 41 40 40 39 39 39 39 38 38 37
37 36 36 35 35 34 34 34 34 34 34 33 33 33 33 33
33 33 33 33 33 33 33 33 33 34 34 34 34 35 35 36
36 36 37 38 38 38 39 39 39 40 41 41 41 42 42 42
36 36 37 37 37 38 39 39 39 40 40 40 41 42 42 42
42 42 43 43 43 44 43 44 44 44 44 44 45 44 45 45
45 46 45 45 46 46 46 46 47 46 47 47 46 46 46 45
46 46 45 45 46 45 46 46 45 44 45 45 44 44 44 44
43 43 43 42 42 42 41 41 41 40 39 39 38 38 38 37
36 37 36 35 35 35 34 34 34 34 34 34 33 34 33 33
33 32 33 33 33 33 33 33 34 33 34 34 35 35 36 35
36 37 37 38 38 38 39 39 40 40 41 41 41 42 43 43
36 37 37 37 38 38 38 39 39 40 40 41 41 41 42 43
43 43 43 43 43 44 44 43 44 44 44 45 45 45 46 45
45 45 45 46 46 46 46 46 46 46 46 46 46 46 46 46
46 46 46 45 46 45 45 45 44 45 44 44 44 44 44 43
44 43 43 43 42 42 41 41 40 40 39 39 39 38 38 38
37 37 37 36 35 35 35 35 35 34 34 33 33 33 33 33
32 33 34 33 34 34 33 33 34 34 34 34 34 35 35 36
37 36 37 38 38 38 39 39 39 39 41 41 41 42 42 42
36 36 37 37 38 38 39 39 40 40 41 41 41 41 42 42
43 42 43 44 44 44 44 44 44 45 45 45 45 45 45 45
45 45 45 45 45 45 46 46 46 46 46 46 46 46 46 46
46 46 45 45 46 44 45 45 45 45 45 45 45 45 44 44
44 44 43 43 42 42 41 41 41 41 40 39 40 39 38 38
37 37 37 36 36 36 36 35 35 35 35 35 35 34 34 34
34 33 33 33 33 33 33 33 34 34 34 35 35 35 36 36
37 36 37 37 38 38 39 39 39 40 41 42 42 43 43 43
36 37 37 37 38 38 39 39 40 40 40 40 41 41 43 43
43 43 44 44 44 44 45 44 45 44 45 45 45 45 45 45
46 45 45 45 46 45 46 46 46 46 46 46 45 45 45 46
46 46 46 46 46 45 46 46 45 45 45 44 44 45 44 43
43 43 43 43 43 42 42 41 41 41 40 40 40 39 39 38
38 37 37 37 37 36 36 36 35 35 35 35 34 34 34 34
34 34 34 34 34 34 34 34 34 35 35 35 36 36 36 35
36 37 37 38 38 38 39 40 40 41 41 41 42 43 42 43
36 36 37 37 38 38 39 39 40 40 40 41 41 41 42 42
42 43 43 43 44 44 44 45 45 45 45 45 45 46 45 45
46 45 45 45 46 45 46 46 46 45 46 46 46 46 46 46
46 46 45 45 45 45 45 45 44 45 45 45 45 44 45 44
44 44 43 43 42 42 42 41 40 40 41 40 40 39 39 39
38 38 38 37 37 36 36 35 35 35 35 35 35 34 35 34
35 34 34 34 34 34 34 34 34 34 35 35 35 35 35 36
37 37 37 37 39 38 39 40 39 40 41 41 42 42 42 43
36 36 37 38 38 39 39 39 40 40 40 40 41 41 41 41
42 42 43 44 44 44 45 44 45 45 45 45 45 45 45 45
45 45 45 45 46 46 46 46 46 46 46 46 46 45 46 45
46 46 46 45 45 45 46 45 45 45 45 45 45 45 44 43
43 43 43 43 43 42 42 41 41 41 41 40 40 39 39 38
38 37 37 36 37 36 36 36 36 36 36 35 35 35 35 35
34 34 34 34 34 34 35 35 35 35 35 35 35 35 36 36
36 36 37 37 38 38 38 39 40 40 41 42 42 41 43 43
36 37 38 38 38 38 39 39 40 40 40 41 42 42 42 42
42 42 44 43 44 44 44 44 44 45 45 44 45 45 45 46
45 45 46 45 45 46 45 45 46 45 46 46 46 46 46 46
46 45 46 46 46 46 45 46 45 45 45 45 45 44 45 44
44 43 44 43 42 43 43 42 41 40 41 40 40 40 39 39
39 38 38 38 38 37 37 36 36 35 36 35 35 35 35 35
35 35 35 35 35 35 35 35 34 34 35 35 35 36 36 36
37 37 38 38 38 39 39 40 40 40 41 41 41 41 42 42
37 37 38 37 38 38 39 39 40 40 40 40 41 42 41 41
42 42 43 43 44 43 44 44 44 45 45 45 45 45 45 45
45 45 45 45 45 45 46 45 45 45 46 45 45 46 46 46
45 45 45 45 46 45 45 45 46 46 45 45 45 44 44 44
44 43 44 42 43 42 42 41 42 41 41 41 41 40 40 40
39 38 38 37 37 37 36 37 37 36 36 36 36 36 35 35
35 35 35 35 35 34 35 34 35 35 35 35 36 36 36 37
37 37 38 38 38 38 39 39 40 40 41 41 41 42 42 43
38 37 38 38 38 38 39 39 39 40 40 39 41 41 42 41
42 43 43 43 43 43 44 44 44 44 44 45 45 45 45 45
45 46 46 46 46 45 45 45 45 45 45 45 46 45 45 45
45 45 45 45 46 45 45 45 46 45 45 45 45 44 45 45
45 44 43 43 44 43 42 42 42 41 41 41 41 40 39 39
39 39 38 38 37 38 37 37 37 36 36 36 35 36 35 35
35 35 35 35 35 35 35 35 35 36 35 35 36 36 36 36
37 37 38 38 38 38 39 40 40 40 41 40 41 41 42 42
37 37 37 38 38 38 39 39 40 40 41 41 41 41 42 42
42 42 42 42 43 43 43 43 44 44 44 44 45 45 45 45
45 45 45 45 45 45 46 45 46 45 46 45 46 46 46 45
45 45 45 45 46 46 45 45 45 45 45 45 45 45 44 44
44 44 44 43 43 43 42 42 42 42 41 41 41 40 41 40
39 39 38 38 38 37 37 37 36 37 36 36 36 36 36 35
36 35 36 34 35 35 34 34 35 35 35 36 36 36 36 37
37 38 38 38 38 38 39 39 39 40 40 40 41 41 42 41
37 37 37 37 38 38 38 39 39 39 41 40 41 41 42 42
42 42 43 43 43 43 43 43 44 44 44 44 44 44 44 44
45 45 45 46 46 46 46 46 46 45 46 45 45 45 45 45
45 46 45 45 46 45 46 46 45 45 44 44 44 44 44 44
44 43 43 43 43 43 42 42 42 41 41 41 41 40 40 39
39 39 38 38 38 37 37 37 37 37 36 36 36 36 36 35
35 35 35 35 35 35 35 35 35 35 35 35 35 35 36 36
36 37 37 37 37 38 39 39 39 40 40 40 41 41 41 41
37 37 38 38 38 38 39 39 39 40 40 40 40 41 42 41
42 42 42 43 43 43 43 43 43 44 44 44 45 44 45 45
45 45 45 45 45 45 46 45 45 45 46 45 46 45 46 45
45 46 45 45 45 45 45 44 45 44 45 45 45 45 44 44
44 44 44 43 43 42 42 42 41 41 41 41 41 41 40 40
40 39 39 38 38 38 37 37 36 36 36 36 37 36 37 36
36 35 35 35 35 35 35 35 35 35 35 35 36 35 36 36
37 37 37 38 38 39 39 39 39 40 40 40 40 40 41 42
37 37 37 38 38 39 39 39 40 40 40 40 40 41 41 41
41 41 42 42 43 43 43 43 44 44 44 44 44 44 44 44
44 45 45 45 45 45 46 45 46 46 46 46 45 46 45 45
45 45 45 45 45 45 45 45 45 45 45 45 44 44 45 43
44 43 43 43 42 43 43 42 42 42 42 41 41 40 40 39
40 39 38 38 38 37 37 37 37 36 37 36 36 36 36 36
35 35 35 35 35 35 35 35 35 35 35 36 36 36 36 36
37 37 37 37 37 38 37 38 39 39 39 40 40 40 41 41
37 37 37 37 38 38 39 38 39 40 40 40 41 40 41 42
42 42 42 42 42 42 43 43 43 43 43 43 44 44 45 44
44 44 44 45 45 45 44 45 45 45 45 46 45 45 46 45
46 45 45 45 45 45 45 44 44 44 44 44 44 44 44 44
44 43 44 43 43 43 42 42 42 41 41 40 40 40 40 39
39 39 39 38 38 38 37 37 37 36 36 36 36 36 36 36
36 35 36 35 36 35 36 35 35 34 35 35 36 36 36 36
37 37 37 37 37 38 38 38 38 38 39 39 39 40 40 40
36 37 37 38 38 38 38 38 39 39 40 40 40 40 41 41
41 41 42 42 42 42 43 43 43 43 43 43 44 43 44 44
44 44 44 44 44 44 45 45 45 45 45 45 45 45 45 45
45 44 44 45 44 45 44 44 45 44 45 44 44 44 44 43
43 43 43 42 42 42 42 41 41 41 41 41 41 40 40 39
40 39 38 37 37 37 37 37 36 37 36 36 36 36 36 36
36 35 35 35 34 35 34 35 35 35 35 35 36 35 36 36
36 36 36 36 37 37 37 37 38 38 39 39 39 39 40 40
36 37 37 38 38 37 37 38 39 39 39 40 40 40 41 41
41 41 42 42 42 43 43 43 43 43 43 43 43 43 44 43
44 45 44 44 44 44 45 44 45 45 44 44 45 45 45 45
45 44 45 45 45 44 44 45 44 44 44 43 43 43 44 44
43 43 43 42 42 42 42 42 42 42 41 40 40 40 39 39
39 39 38 38 38 38 38 37 38 37 37 36 36 36 36 35
35 35 35 35 35 35 35 35 35 35 35 35 35 35 36 35
36 36 37 37 37 38 38 38 38 39 39 39 39 39 40 40
36 37 37 38 37 38 38 38 39 39 40 39 40 40 40 41
41 41 41 42 42 42 42 42 43 43 44 43 44 44 44 44
44 44 44 44 44 44 44 44 45 44 45 44 45 45 45 45
44 45 45 45 45 44 44 44 45 44 44 44 44 43 44 43
43 43 43 43 42 42 42 41 41 41 40 41 41 40 40 40
39 39 39 38 38 37 37 37 37 36 37 37 36 36 36 36
36 36 36 35 35 35 35 35 35 34 35 35 36 36 36 36
37 36 36 37 37 37 37 38 37 38 38 39 39 39 39 39
37 37 37 38 38 38 39 39 39 40 40 40 41 40 41 41
41 42 43 42 43 43 43 43 43 43 43 43 43 44 44 44
44 44 44 44 45 44 45 45 45 45 45 46 45 45 45 45
45 45 45 45 45 44 44 44 44 45 45 44 44 44 44 44
43 43 43 43 42 42 42 42 42 42 41 42 41 41 40 40
39 39 39 39 39 38 38 38 37 38 37 37 37 37 36 36
36 36 36 36 35 36 36 35 35 36 36 36 36 36 36 36
37 36 37 36 37 37 38 38 38 39 39 39 39 39 40 40
38 38 38 38 39 39 39 39 40 40 40 41 41 41 41 41
42 43 42 42 43 42 43 42 43 43 44 44 44 44 45 45
45 45 45 44 45 45 45 45 45 45 45 45 45 45 46 46
46 45 46 46 45 45 46 45 45 44 45 45 44 44 44 44
44 44 44 43 43 42 43 42 42 42 42 42 42 41 41 41
41 40 40 40 39 39 39 39 38 38 38 38 37 38 37 37
37 37 37 37 37 37 37 37 37 36 36 36 36 36 37 37
37 37 38 38 38 38 39 39 39 39 39 39 39 40 40 40
38 38 38 38 39 39 40 40 41 40 40 41 41 41 41 42
42 42 43 43 43 43 44 44 44 44 44 44 44 44 44 44
45 44 45 45 46 45 45 46 46 46 46 46 45 45 45 46
46 45 46 46 46 46 46 46 46 45 46 46 46 45 45 44
44 44 44 43 44 43 43 43 43 42 43 42 43 42 41 41
41 41 40 40 40 40 39 39 39 38 39 39 39 38 38 38
37 38 37 37 37 36 37 37 37 37 37 37 37 37 37 37
38 38 38 38 38 38 39 39 39 39 40 40 40 40 41 40
39 39 39 40 39 40 40 40 40 40 41 42 42 42 42 43
43 43 44 44 44 44 44 44 44 44 44 44 45 45 46 45
45 46 46 46 46 45 45 46 46 46 45 46 46 46 46 46
46 46 46 46 46 46 46 46 46 46 45 45 45 45 45 46
45 45 45 44 44 44 44 43 43 43 43 43 43 42 42 42
42 41 41 40 40 40 40 40 39 39 39 39 38 38 38 38
38 38 38 38 38 38 38 38 37 37 37 37 37 37 37 37
37 38 38 38 39 39 39 39 39 40 40 40 40 40 40 40
39 39 39 39 40 40 40 40 41 41 41 42 42 42 42 42
43 43 43 43 44 43 43 44 44 44 44 44 45 45 45 45
45 46 45 46 46 45 46 45 46 46 46 46 46 46 45 45
45 46 46 45 45 46 45 46 45 45 46 46 46 46 45 45
45 44 44 44 44 44 44 43 43 43 43 43 42 42 42 41
42 41 41 40 40 40 39 39 39 39 39 38 39 38 38 38
38 38 38 38 37 37 38 37 37 37 38 37 37 37 37 37
38 38 38 39 38 38 39 39 38 39 39 39 40 40 40 40
39 39 39 40 41 40 41 41 41 41 41 42 42 42 42 43
43 43 43 44 43 43 44 44 44 44 44 44 44 44 44 45
45 45 45 45 46 46 45 46 46 46 46 46 45 46 46 46
46 46 46 46 46 46 46 46 46 46 45 45 45 45 45 45
44 44 44 44 44 43 44 44 44 43 43 43 43 42 42 41
41 41 41 40 40 40 40 40 40 39 39 39 38 38 39 38
37 37 38 37 37 37 38 37 38 37 37 37 37 37 37 37
37 37 38 37 38 38 38 38 39 39 39 39 40 40 40 40
39 39 39 39 39 39 40 40 41 41 42 42 41 42 43 42
42 42 42 42 42 43 43 43 44 44 44 43 45 44 45 45
45 45 45 45 45 44 44 45 45 45 45 45 46 45 45 45
46 46 45 45 45 45 45 45 45 45 45 45 44 44 45 44
45 43 44 42 42 42 43 42 42 42 42 42 42 42 42 42
42 41 41 40 40 40 39 39 39 38 38 38 38 38 38 38
37 38 38 37 37 37 37 37 36 36 37 36 37 37 37 37
38 38 37 38 38 38 38 38 38 38 38 38 39 39 39 39
38 39 39 39 40 40 41 41 40 40 41 41 41 42 42 42
42 42 42 43 44 43 44 44 44 44 44 44 44 44 44 44
44 44 44 44 45 45 45 44 45 44 45 45 45 45 44 45
45 45 45 45 45 45 45 45 45 45 45 45 45 44 45 44
43 42 43 39 37 42 43 43 42 43 41 42 41 42 41 41
40 40 40 40 40 39 40 39 39 39 39 38 38 38 38 38
37 37 37 37 37 37 37 37 37 37 37 37 37 38 37 37
37 37 37 37 37 37 38 38 38 38 38 38 39 40 39 39
40 40 40 40 40 40 40 40 40 41 41 41 41 41 42 42
43 42 42 43 43 43 43 43 43 43 44 44 44 44 45 45
45 45 45 45 45 44 45 44 44 45 45 45 45 45 45 46
45 45 45 46 45 45 45 45 45 45 44 45 44 44 44 44
42 38 38 38 37 41 42 42 42 41 41 42 41 41 41 41
41 41 40 40 40 39 39 39 38 38 39 38 38 38 38 38
38 38 38 37 37 37 38 37 37 37 36 36 37 37 37 37
37 37 37 37 38 38 38 38 38 38 38 38 38 38 38 39
38 38 40 40 41 40 41 41 41 41 41 41 41 42 42 42
42 42 42 42 43 43 43 43 44 44 44 44 44 44 44 44
44 44 44 44 44 44 44 44 44 45 45 45 45 45 45 45
45 45 45 45 45 44 44 45 44 44 44 44 44 44 43 40
36 30 30 32 35 37 39 41 41 39 41 41 42 42 42 41
40 40 40 40 39 39 39 39 38 39 39 38 38 38 38 38
38 37 37 37 36 36 37 36 37 37 37 37 37 37 37 37
37 37 37 37 37 37 37 37 37 37 38 38 38 38 38 39
26 27 28 30 32 34 36 38 39 40 41 41 42 42 42 43
42 42 43 43 43 43 43 44 44 43 43 43 43 44 44 44
44 44 44 45 45 45 44 45 44 44 44 44 44 44 45 44
45 45 45 45 45 45 45 45 45 44 44 44 44 42 41 32
27 24 22 25 32 31 35 38 38 39 39 40 42 41 41 40
40 41 40 40 40 39 39 39 39 39 38 38 38 37 37 37
37 37 37 37 37 37 37 37 37 37 36 36 37 36 37 36
37 37 37 37 37 37 37 37 37 37 38 38 38 38 38 37
22 21 22 22 22 22 24 24 24 25 26 27 29 32 34 36
38 40 41 41 42 43 44 44 45 44 44 44 45 44 44 44
44 44 44 44 44 44 44 44 44 44 44 44 44 44 44 45
44 44 44 44 45 44 44 43 44 44 44 43 43 41 28 23
22 18 14 16 20 25 21 22 31 33 35 37 40 40 41 41
41 40 40 39 40 39 39 39 39 38 38 38 38 38 38 38
38 37 37 37 37 37 37 36 37 36 36 36 36 36 37 39
50 47 44 41 39 37 38 36 37 37 37 38 38 38 39 39
19 19 19 20 21 21 21 21 21 21 21 20 20 22 22 23
23 23 24 25 27 28 30 33 35 37 39 41 42 43 44 44
45 44 45 45 45 44 45 45 45 44 45 44 44 44 44 44
44 43 44 44 45 44 44 45 44 43 43 39 33 26 25 23
13 8 6 4 8 17 15 15 25 29 29 35 35 31 38 40
40 40 40 40 40 39 39 39 39 39 39 39 38 38 38 38
38 37 37 37 37 37 37 37 37 36 37 37 37 37 36 36
55 55 55 56 51 50 50 50 46 43 40 37 38 38 40 47
14 14 15 16 16 17 18 18 18 19 19 18 18 19 20 20
20 20 20 20 19 18 18 18 19 19 20 21 23 25 27 29
32 35 37 39 41 43 44 45 44 45 46 45 45 44 45 44
45 44 44 44 44 45 44 44 43 40 30 25 26 22 17 17
16 13 9 10 8 9 10 17 20 25 23 33 27 23 24 34
40 40 41 41 40 40 39 39 39 38 38 38 38 38 38 38
38 37 38 38 37 37 37 37 37 36 37 36 36 36 36 34
49 46 20 24 28 29 35 48 54 58 58 40 37 38 36 41
22 19 16 17 17 17 16 15 15 15 16 17 16 17 18 19
19 19 19 18 18 19 19 19 18 18 19 18 18 18 18 17
17 18 18 19 20 23 25 27 30 33 36 37 41 45 45 45
44 44 44 44 45 45 45 43 33 25 19 26 19 17 15 12
9 11 14 17 18 14 17 25 19 20 21 21 13 15 30 35
36 40 40 40 40 39 39 39 40 38 39 39 39 38 38 38
38 38 38 38 38 37 37 37 37 37 37 36 37 36 37 34
45 44 3 0 0 2 9 7 11 30 58 45 37 38 33 33
31 26 31 31 28 29 29 27 26 25 21 21 20 19 17 16
15 15 15 16 15 16 16 16 15 15 15 16 18 18 18 17
16 17 17 17 17 16 15 13 11 12 13 15 30 44 45 44
44 45 45 45 45 44 38 26 27 18 21 19 15 12 5 3
3 7 2 8 13 13 17 21 21 17 16 11 14 26 31 33
30 39 40 40 40 40 39 39 39 39 39 39 39 38 38 38
38 38 38 38 38 37 37 38 37 37 37 36 36 37 36 33
45 47 6 0 0 1 4 2 0 11 58 49 37 37 31 26
32 25 29 32 28 33 34 31 33 29 26 31 34 33 33 31
30 28 27 24 23 23 20 19 16 16 15 15 16 16 16 15
13 13 14 14 15 15 16 13 11 10 10 12 29 45 45 45
45 45 45 44 44 43 34 29 27 24 20 16 10 2 0 3
6 13 2 0 0 4 8 10 6 17 12 13 20 27 33 31
29 37 39 39 40 39 39 39 39 39 39 39 39 38 38 39
39 38 38 38 38 38 37 37 37 37 37 37 37 37 37 33
46 52 10 0 0 0 0 0 0 5 54 51 37 37 31 22
32 26 31 31 28 31 34 30 32 26 30 29 35 35 35 35
36 36 32 30 34 33 31 30 31 32 29 28 27 25 23 21
19 18 17 15 15 14 14 14 13 13 14 15 29 44 44 44
44 44 44 44 40 34 26 23 19 18 14 15 4 2 1 1
4 15 10 7 0 0 0 4 1 7 9 9 21 32 31 28
30 33 40 38 40 40 39 39 39 40 39 39 38 38 38 38
38 38 38 38 38 37 38 38 38 38 37 37 37 37 37 33
44 56 16 0 0 0 1 0 0 1 48 55 37 36 31 21
33 31 31 30 29 30 33 29 32 29 34 29 35 35 36 36
36 35 31 31 35 32 30 35 36 34 31 36 32 31 31 34
35 34 32 31 29 28 26 24 22 17 16 16 30 44 44 44
45 43 43 41 36 30 33 26 19 16 8 4 2 10 29 51
69 64 80 78 66 43 19 1 0 3 10 15 22 28 23 30
27 28 38 39 38 39 40 39 39 38 39 38 38 38 40 39
39 38 38 38 37 38 38 38 37 37 37 36 37 37 37 33
39 57 24 0 0 0 0 0 0 0 38 56 37 36 30 20
32 32 32 33 33 33 34 34 34 34 35 32 35 35 35 35
36 35 34 33 31 35 32 38 37 32 31 36 34 33 37 35
35 35 34 32 36 37 37 36 35 22 15 17 30 44 44 44
44 43 42 37 32 26 16 13 12 12 5 5 35 73 81 85
90 82 91 93 92 89 82 59 24 3 6 19 19 22 26 30
30 31 33 38 38 39 40 39 39 38 38 39 38 38 40 40
41 42 44 42 41 39 39 38 38 37 37 37 37 36 36 32
35 56 31 0 0 0 0 0 0 0 32 58 39 36 30 20
33 33 33 33 33 33 34 34 34 34 34 35 35 36 35 36
36 35 32 31 33 35 34 37 35 31 33 35 35 36 37 35
35 34 36 34 36 38 38 37 36 25 15 17 31 44 44 44
44 43 40 30 19 17 15 17 21 18 17 22 43 62 70 84
92 94 99 93 70 51 34 20 15 14 14 19 23 28 32 33
31 30 33 38 37 40 39 38 39 39 39 39 39 38 38 44
44 47 48 49 50 47 44 41 40 37 37 37 37 36 36 32
32 57 41 1 14 11 2 0 0 0 26 57 42 35 30 20
31 32 32 33 33 33 33 34 34 34 34 34 35 35 36 35
35 35 36 36 36 37 36 36 36 37 36 36 38 38 38 36
32 36 37 34 32 36 38 38 37 25 17 17 30 44 43 44
43 43 30 22 18 12 4 2 1 10 44 58 82 92 17 40
53 58 60 36 26 12 30 70 84 83 79 66 47 19 13 23
20 22 35 36 37 40 39 39 39 39 39 39 39 38 39 47
44 47 47 48 49 49 46 41 40 37 37 37 37 37 36 31
28 51 46 7 27 26 14 5 9 7 35 54 42 34 30 19
33 33 33 33 34 34 34 34 34 34 34 34 35 35 35 35
36 34 33 33 34 35 35 36 36 36 37 37 37 37 38 38
37 37 38 35 35 37 38 37 37 24 18 17 31 44 44 44
43 26 13 15 0 0 0 10 71 125 96 49 6 3 3 23
20 19 23 32 99 130 71 52 47 47 47 51 71 91 54 14
10 14 30 34 38 39 39 39 39 39 39 39 38 38 40 49
46 44 44 45 45 45 44 40 38 24 25 28 31 32 34 30
25 42 44 27 32 30 28 22 24 22 33 50 41 33 29 19
33 33 33 34 34 34 34 35 34 34 35 35 35 35 35 36
36 36 36 35 36 35 35 35 35 35 35 36 36 37 38 38
38 38 38 38 38 38 38 38 36 22 16 17 31 44 44 44
44 16 10 3 0 0 42 112 68 8 0 0 0 0 24 93
108 90 31 60 55 3 0 0 0 0 2 4 0 0 1 0
9 6 25 30 33 37 38 39 39 39 39 39 39 39 41 49
45 46 45 45 46 46 45 45 36 15 18 19 20 20 21 22
21 30 33 33 34 34 36 35 37 35 32 38 35 32 29 19
33 34 34 34 34 34 35 34 35 35 34 35 35 36 36 36
36 36 36 37 37 37 37 37 38 37 37 37 37 37 36 36
37 37 36 36 37 38 38 38 36 24 17 16 32 44 44 44
42 16 2 0 0 48 77 11 0 0 0 0 0 8 89 115
118 111 87 23 0 0 0 0 0 0 0 1 3 0 0 0
9 2 15 21 30 34 36 37 38 39 40 39 39 39 41 50
48 47 47 47 47 45 46 48 37 17 20 20 20 20 20 20
20 20 19 19 19 17 17 17 18 19 22 24 26 32 29 20
34 34 34 34 34 34 34 35 35 35 35 35 36 35 36 36
36 37 37 37 37 37 37 37 38 38 37 37 38 39 39 39
39 38 39 38 38 38 38 38 37 26 20 21 34 44 44 44
41 18 0 0 0 9 1 0 0 0 0 0 0 56 109 120
124 122 103 61 5 0 0 0 0 0 17 51 47 32 6 0
9 1 13 18 27 31 34 36 37 39 39 39 39 38 42 51
48 47 47 49 48 48 49 48 36 20 19 18 15 17 18 19
20 20 21 22 22 23 22 27 21 16 16 16 19 22 22 17
33 33 34 34 34 35 35 35 35 35 35 35 35 36 36 36
36 36 37 37 37 37 38 37 38 38 38 38 38 38 38 38
38 39 38 38 39 38 39 38 37 25 21 22 34 44 44 42
33 11 0 0 0 0 0 0 0 0 0 0 13 101 106 124
121 128 108 100 18 3 0 0 0 0 32 93 86 90 101 68
5 0 8 12 18 23 27 34 37 39 38 39 39 38 42 51
51 48 45 46 46 46 46 46 36 23 20 19 13 25 24 20
19 23 30 31 30 31 34 41 33 19 20 20 20 20 20 15
34 34 34 34 34 35 34 35 35 35 35 36 36 35 36 36
36 37 37 37 38 38 37 38 38 38 38 38 38 39 39 38
39 39 39 39 39 39 39 38 36 23 18 19 33 44 44 36
20 7 2 0 0 0 0 1 41 15 0 3 46 98 38 110
117 69 39 100 69 4 4 0 0 0 0 0 1 1 3 14
4 0 7 12 13 19 22 24 34 39 39 39 39 39 42 52
50 49 45 45 45 45 45 46 38 23 20 20 13 27 31 36
43 42 43 36 36 39 44 48 42 28 30 25 23 21 19 14
29 31 28 32 32 31 34 34 35 34 36 35 35 34 36 36
36 36 37 37 38 37 38 38 38 38 38 38 39 39 39 39
39 39 39 40 39 39 39 39 37 25 19 18 34 45 43 27
15 5 9 3 0 0 2 74 117 25 3 12 92 56 13 99
112 75 8 44 108 34 1 5 6 6 4 2 6 5 11 22
10 2 9 18 15 14 22 17 25 37 39 40 39 39 42 52
49 49 48 48 48 47 47 48 39 24 21 20 11 25 27 37
51 50 49 42 39 46 46 46 44 28 30 35 40 37 34 29
30 25 25 33 29 30 35 32 32 29 33 32 31 32 34 36
36 36 37 37 38 38 38 38 38 38 38 39 39 38 39 38
39 39 38 38 39 39 39 39 37 24 20 19 33 44 38 17
18 4 2 11 22 19 12 14 5 1 28 88 99 31 39 109
113 113 38 15 99 98 50 15 3 4 5 10 12 24 33 51
50 1 6 10 12 18 17 18 23 31 40 39 39 39 42 52
49 48 47 49 50 49 50 50 40 24 20 19 10 22 21 27
49 50 47 42 35 28 19 12 39 23 21 30 22 11 13 15
31 28 27 33 31 30 34 32 33 31 31 32 33 32 33 37
37 37 38 37 37 38 37 38 38 39 38 39 39 40 40 39
39 39 40 39 39 39 39 38 37 21 18 19 33 44 30 18
14 3 4 1 43 89 60 4 12 63 92 101 96 38 87 114
118 114 101 56 94 100 78 78 74 29 7 54 98 105 91 68
67 15 0 9 7 14 22 16 18 29 37 39 39 39 42 52
48 46 46 47 49 50 52 51 40 24 19 19 11 17 6 8
32 22 14 9 5 2 1 2 33 32 19 29 15 0 0 0
35 33 34 34 34 34 34 35 34 35 32 34 34 35 36 36
36 37 37 38 38 38 38 38 39 39 39 39 39 38 39 39
39 39 39 39 40 39 39 39 37 22 16 18 35 43 28 15
15 5 5 14 87 101 54 51 87 88 85 97 104 96 91 99
107 103 105 102 103 96 96 109 120 105 74 43 71 102 106 81
60 37 0 4 6 11 15 15 21 22 35 39 39 39 42 52
47 45 45 46 49 49 50 50 39 24 18 18 11 14 3 0
18 8 2 3 3 4 3 3 22 39 20 26 15 0 0 9
35 35 36 35 35 35 35 35 35 35 35 35 36 36 36 37
37 37 37 38 38 38 38 38 38 38 39 38 39 39 39 39
39 39 40 40 40 39 39 39 36 23 19 21 36 43 25 15
13 1 6 46 104 94 85 106 114 86 93 96 93 95 97 103
104 104 105 102 94 96 112 114 122 119 107 92 74 88 105 95
70 43 3 3 7 7 17 20 11 13 32 39 39 39 40 51
47 46 46 47 48 48 48 49 40 24 17 17 12 13 2 1
12 15 3 4 5 14 16 5 8 42 19 23 17 0 1 5
34 34 35 35 35 35 35 35 36 36 36 36 36 36 37 37
37 37 37 37 38 38 39 39 39 38 39 39 39 39 39 39
39 39 39 39 39 39 39 39 37 23 22 23 35 44 26 22
14 1 16 80 95 93 108 119 119 93 99 98 104 105 100 99
96 100 101 105 109 100 101 113 113 121 117 105 99 91 97 107
87 37 6 1 5 8 9 17 15 12 33 39 39 39 41 52
47 46 47 47 48 47 48 49 41 24 17 17 15 10 2 0
6 22 6 1 5 7 8 5 2 40 21 19 17 0 0 5
34 35 35 35 36 36 36 36 36 36 36 36 36 36 36 37
38 37 38 38 38 39 39 38 39 39 39 38 39 39 39 39
40 39 40 39 40 39 40 40 37 22 21 22 35 43 24 21
14 0 23 86 96 108 113 113 93 102 103 103 84 65 65 73
75 70 56 64 86 109 108 102 91 106 122 111 106 105 97 101
95 45 3 4 5 11 5 16 14 17 36 40 40 39 40 51
47 46 48 48 48 48 49 50 43 26 19 17 24 28 19 2
1 27 15 2 1 0 0 1 0 33 22 18 22 0 0 5
35 35 36 35 35 35 36 35 36 35 36 36 37 37 37 37
38 38 38 38 38 39 39 39 39 39 39 39 40 40 40 40
39 39 39 40 39 40 40 39 37 21 20 23 35 39 12 9
16 0 30 92 108 112 108 92 85 101 111 81 64 62 82 100
99 90 66 46 71 97 116 103 95 79 120 115 109 111 109 98
94 70 2 1 6 16 19 14 15 17 37 40 40 40 40 52
52 49 48 48 48 47 48 48 43 26 19 18 11 7 7 1
0 21 19 6 0 0 0 0 0 26 35 34 29 0 1 6
35 35 35 35 35 36 36 36 36 36 37 36 36 36 37 37
37 37 38 38 38 38 39 39 39 39 39 39 39 39 38 39
39 39 39 39 40 40 40 39 37 17 17 21 35 31 4 11
11 0 47 106 113 113 109 92 97 111 105 78 61 84 108 132
117 110 86 66 47 85 108 109 100 97 121 117 111 113 112 107
93 85 9 0 1 9 24 19 14 17 37 42 41 40 39 51
50 49 48 49 50 49 50 49 43 26 20 20 7 0 0 1
1 13 20 7 0 0 0 0 0 15 45 41 32 0 0 0
35 35 34 35 35 36 36 35 36 35 36 36 37 37 37 37
37 37 38 38 38 38 39 37 38 38 39 39 39 39 39 39
39 39 39 39 40 40 40 39 36 16 14 19 34 29 2 8
10 4 72 112 117 115 108 100 102 110 92 36 77 120 134 146
127 146 126 119 97 56 98 114 103 114 124 117 113 114 115 113
99 87 23 0 0 8 15 12 12 17 41 45 43 39 39 51
49 48 47 47 47 49 51 51 43 27 20 19 10 1 3 8
9 7 25 8 0 0 0 0 0 4 44 44 34 0 0 0
34 34 35 35 35 35 36 36 36 36 36 36 36 36 37 37
37 37 37 38 38 38 39 38 39 39 39 39 39 39 39 39
39 39 39 39 39 40 40 40 37 18 14 20 34 27 6 19
9 12 91 114 115 113 107 107 110 104 48 54 119 139 131 126
115 127 120 134 127 79 83 113 110 121 123 122 114 116 118 117
104 91 37 2 0 6 17 13 9 14 41 46 45 40 38 50
48 47 48 47 47 46 47 50 44 27 20 19 12 4 9 13
5 2 22 0 0 0 0 0 0 0 38 39 24 2 0 0
34 34 33 34 34 33 34 36 35 34 35 36 36 36 36 37
38 38 38 38 38 38 37 38 38 38 38 38 39 38 39 39
39 39 39 39 39 40 40 39 36 19 13 16 35 30 9 16
12 25 103 116 116 116 115 111 112 83 50 98 111 108 108 108
107 109 110 114 111 101 54 109 118 120 123 123 116 116 119 120
110 98 54 8 2 4 14 19 9 24 44 47 46 40 37 50
49 48 48 48 49 49 50 51 46 28 19 18 12 1 6 12
9 1 16 3 0 0 2 9 12 16 20 15 13 2 1 0
31 32 31 30 32 32 34 35 33 32 31 34 34 32 32 34
34 37 37 35 35 35 36 35 36 36 39 39 38 37 39 38
39 39 39 39 39 40 40 39 37 22 15 16 36 36 10 11
14 36 110 115 115 118 116 114 110 100 114 121 118 104 96 92
90 100 108 116 117 114 98 94 101 114 123 125 117 119 120 120
114 100 72 13 4 8 17 21 11 19 40 47 47 41 37 49
50 48 47 48 49 50 51 53 48 30 20 18 10 0 1 3
6 0 10 24 22 27 29 21 18 10 6 4 5 5 4 2
34 34 34 33 34 34 35 35 34 34 35 35 35 35 35 36
36 38 38 36 37 36 37 36 36 35 38 39 37 36 37 36
38 39 40 39 40 40 40 40 37 23 19 19 36 31 7 12
18 47 114 115 115 118 113 106 104 113 115 112 104 97 98 98
96 99 102 105 116 122 120 111 102 99 111 123 118 119 120 120
117 101 86 21 9 12 17 16 10 17 30 44 48 41 37 49
49 48 48 48 49 51 52 54 50 31 21 21 10 0 0 1
3 5 2 41 44 38 21 12 10 8 6 3 0 1 4 2
35 34 35 35 34 35 36 35 35 36 36 36 36 37 37 38
37 37 38 37 38 38 38 38 38 38 38 39 39 38 39 39
39 39 39 39 39 40 40 39 37 24 22 21 36 37 9 12
16 58 114 114 115 114 109 109 110 112 112 108 105 102 103 106
105 105 111 110 112 115 118 116 112 105 104 120 118 119 120 121
121 103 94 26 12 9 9 15 15 15 29 41 47 42 37 49
48 47 47 48 50 53 53 54 51 32 23 28 22 9 6 11
22 16 7 33 45 24 7 4 2 2 1 0 0 0 0 0
32 32 33 33 33 33 35 36 36 36 36 36 36 37 37 37
37 37 38 38 38 38 39 38 38 39 38 39 39 39 40 40
39 39 39 40 40 40 40 40 37 24 22 22 36 36 10 5
12 70 115 114 115 111 109 110 110 107 105 103 100 110 114 111
111 111 112 114 113 115 113 112 112 113 113 121 120 119 119 120
122 106 97 37 14 3 7 11 17 19 35 45 48 43 37 48
49 46 47 49 50 52 55 56 53 33 30 36 33 18 24 26
34 30 31 27 11 1 0 0 0 0 0 0 0 0 0 0
31 30 32 30 31 32 31 33 34 36 36 36 37 37 37 37
38 38 38 38 38 38 38 38 38 39 38 38 39 39 40 39
40 39 40 40 40 40 40 39 36 23 21 21 36 41 17 2
14 91 114 113 117 110 109 108 106 107 103 105 110 118 118 113
116 115 116 118 112 115 116 116 115 115 116 123 121 121 120 120
120 109 98 46 15 6 12 10 18 21 35 47 47 43 37 48
50 48 49 50 50 51 53 57 54 34 31 36 38 27 30 26
29 27 21 3 0 0 0 0 0 0 0 0 0 0 0 0
34 34 35 34 34 34 34 34 36 36 37 37 37 37 37 37
37 37 38 38 38 38 38 38 38 39 39 39 40 40 40 40
40 40 40 40 40 40 40 39 36 24 22 21 37 43 19 4
21 105 116 114 118 112 110 106 109 107 109 113 119 124 119 116
120 117 121 122 116 115 116 117 114 116 117 122 123 122 121 122
120 112 99 54 16 5 8 9 22 23 36 47 48 43 37 48
50 48 47 49 50 52 55 57 52 29 26 35 40 30 28 23
20 18 3 0 0 0 0 0 0 0 0 0 0 1 6 7
36 35 36 36 36 36 36 36 36 36 36 37 36 37 37 37
37 38 38 38 39 39 39 39 39 39 39 38 39 39 39 40
40 40 40 40 40 41 40 40 37 25 22 21 37 44 18 4
31 113 117 115 118 116 109 106 109 109 114 119 119 119 117 117
111 110 116 121 121 118 116 116 117 116 116 120 122 123 121 121
119 113 101 70 31 7 6 5 18 24 35 47 48 43 37 47
49 46 47 47 49 51 56 57 47 9 6 11 15 15 15 32
28 18 0 0 0 0 0 0 0 0 0 0 0 7 13 12
35 35 36 36 35 36 36 36 36 36 37 37 37 37 37 38
38 38 37 37 38 38 39 38 39 39 39 39 40 40 40 40
40 40 40 40 40 40 40 40 37 24 20 21 37 43 16 7
51 117 118 114 119 117 112 110 110 111 113 108 106 106 108 108
111 111 117 117 119 119 114 113 117 117 117 119 124 123 121 121
120 113 103 80 78 64 30 4 13 20 31 47 48 44 37 47
50 48 47 47 48 51 54 54 31 0 0 0 1 0 3 38
12 1 0 0 0 0 0 0 0 0 0 0 2 12 20 23
36 35 35 35 35 36 36 36 36 36 36 37 37 37 38 37
38 38 38 39 39 39 39 39 39 39 39 40 40 40 40 40
40 40 40 40 41 41 40 40 37 23 18 20 37 42 13 33
78 118 118 116 118 117 118 110 108 111 109 99 91 89 90 101
108 110 109 108 112 112 111 112 116 118 121 122 121 123 122 119
119 114 104 91 113 99 72 14 12 18 31 48 48 43 38 46
49 48 46 45 47 49 50 50 16 0 0 0 0 0 4 37
5 0 0 0 0 0 0 0 0 0 0 0 7 25 33 32
35 35 36 35 35 36 36 36 36 36 37 37 37 37 37 38
38 38 38 38 38 39 39 38 39 39 39 39 39 39 41 40
40 40 40 40 40 41 41 40 37 22 18 21 38 42 13 61
88 117 117 117 118 119 117 108 102 101 95 86 74 71 73 79
85 84 85 90 98 105 106 110 112 115 121 119 120 123 122 120
118 115 106 98 120 113 71 36 9 16 35 48 47 43 38 46
51 51 48 45 46 46 48 43 8 0 0 0 0 0 1 33
3 0 0 0 0 0 0 0 0 0 0 1 14 28 33 35
35 35 35 36 36 36 36 36 37 37 37 37 37 37 37 38
38 38 38 38 39 39 39 39 39 39 40 39 39 40 40 40
39 40 40 40 41 41 41 40 37 22 20 23 39 44 26 82
104 113 118 117 116 119 116 107 98 95 84 73 62 50 56 56
52 53 62 70 74 90 97 105 110 115 118 118 119 123 122 120
120 115 103 103 116 112 68 50 8 17 44 47 47 43 39 46
48 46 46 46 45 46 46 36 3 0 0 0 0 0 0 27
2 0 0 0 0 0 0 0 0 0 0 3 20 31 38 40
36 35 36 36 36 36 36 36 36 36 37 36 37 37 38 38
38 38 39 39 39 38 39 39 39 39 40 39 39 40 40 40
40 40 40 40 40 41 41 40 36 22 22 22 38 43 29 87
102 111 118 119 116 114 111 106 98 95 86 80 74 60 56 54
55 59 66 69 76 87 94 99 105 110 115 117 119 120 120 118
118 115 104 104 120 109 72 58 8 20 47 48 47 42 38 44
46 45 45 44 43 42 43 31 2 0 0 0 0 0 0 18
0 0 0 0 0 0 0 0 0 0 0 11 31 37 41 39
36 35 35 35 36 36 36 35 36 36 37 37 37 38 38 37
38 38 38 38 38 38 39 39 38 39 39 40 39 40 40 40
40 40 40 40 40 40 40 39 36 22 22 21 38 45 45 89
104 107 114 114 114 112 106 99 96 92 89 83 89 90 87 85
86 88 89 90 89 91 92 94 102 107 110 114 117 118 117 116
115 111 102 105 93 110 80 56 7 16 47 48 48 43 39 47
48 47 47 46 44 45 43 30 1 1 0 0 0 0 0 1
0 0 0 0 0 0 0 0 0 0 0 18 35 38 39 37
35 36 36 36 36 36 36 36 37 36 37 36 37 37 37 37
38 38 38 39 38 39 39 39 39 39 39 38 39 39 39 39
40 40 40 40 40 40 40 40 37 22 22 20 38 46 52 97
105 105 112 110 109 109 101 96 93 91 89 87 91 91 95 95
93 92 95 95 93 92 89 89 98 104 107 111 114 113 114 115
114 110 100 107 72 94 88 59 11 20 44 46 45 42 39 48
46 44 44 43 42 43 41 32 11 0 0 0 0 0 0 0
0 0 0 0 0 0 0 0 0 0 9 34 40 41 39 35
35 35 35 35 35 35 36 36 36 36 37 37 37 37 38 38
38 38 38 38 37 38 38 38 38 39 39 39 39 40 40 40
41 40 40 40 40 40 40 40 37 22 22 20 38 46 68 118
111 101 112 106 103 102 98 90 90 90 87 86 89 97 98 99
101 97 96 97 91 93 92 91 97 102 107 111 112 110 113 112
108 104 96 102 113 102 90 59 13 27 47 47 47 45 39 49
49 44 43 41 39 40 37 39 29 4 0 0 0 0 0 0
0 0 0 0 0 0 0 0 0 5 29 45 47 41 40 33
35 35 35 36 36 36 36 36 37 36 36 37 37 37 37 37
38 37 39 38 38 39 39 39 39 38 39 40 40 39 40 39
40 40 40 40 40 40 40 40 36 23 23 21 39 46 76 122
113 95 107 106 98 95 95 89 92 96 91 89 92 98 97 102
102 99 95 99 97 95 95 99 102 104 107 109 105 105 109 111
105 100 93 90 113 114 100 56 11 30 51 52 51 48 40 49
49 46 44 43 41 41 40 41 26 12 0 2 3 1 0 0
0 0 0 0 0 0 0 0 0 15 40 51 50 42 39 33
35 35 35 36 36 36 36 36 36 36 36 36 37 37 37 38
38 38 38 37 38 38 38 39 39 39 39 39 39 39 39 39
40 40 40 41 40 40 40 40 36 24 23 22 38 45 61 110
111 89 101 103 101 95 94 92 96 99 95 85 90 97 98 104
100 102 99 99 102 96 96 100 102 105 107 100 102 105 105 107
102 94 79 66 116 113 105 54 7 32 49 49 50 47 39 48
48 45 45 44 44 42 45 46 34 18 3 17 19 6 0 0
0 0 0 0 0 0 0 0 4 21 45 52 51 41 36 31
35 35 35 35 36 36 36 36 36 36 36 37 37 37 37 37
38 37 38 38 38 38 38 39 39 39 39 39 39 39 40 39
40 39 39 40 40 40 40 40 36 26 23 22 40 46 51 99
111 69 89 96 100 95 95 95 97 100 96 89 91 96 102 106
106 107 104 104 104 98 96 100 105 108 108 107 105 103 100 96
96 86 56 34 101 115 106 61 10 39 48 48 49 47 40 49
50 47 45 42 40 39 41 50 52 46 42 44 44 40 11 0
0 0 0 0 0 0 0 0 5 21 44 53 49 40 34 29
35 35 36 35 36 36 36 36 36 36 37 37 37 37 37 37
38 37 38 38 38 38 39 38 39 39 39 39 39 39 40 39
40 39 40 40 40 40 40 40 36 26 21 22 38 45 47 92
100 33 55 88 95 96 98 100 101 100 93 90 91 95 100 106
106 108 107 105 105 103 100 104 109 112 111 111 107 102 96 89
83 86 40 5 51 93 88 51 14 44 48 48 48 47 39 49
52 50 48 44 41 40 41 50 58 56 54 54 54 49 17 0
0 0 0 0 0 0 0 0 4 18 42 53 46 37 30 26
35 35 35 35 36 36 36 36 36 36 36 36 37 37 37 37
38 37 38 38 38 37 38 38 39 39 39 39 39 39 39 39
40 40 40 39 40 39 40 39 36 26 21 24 39 45 46 68
69 13 30 72 88 98 101 101 101 101 98 95 92 93 100 106
108 108 106 106 107 107 104 106 111 113 116 114 109 103 94 85
90 95 49 8 0 6 15 15 19 45 48 48 48 47 39 49
53 51 49 45 42 41 41 49 58 58 58 56 45 36 20 0
0 0 0 0 0 0 0 0 2 16 39 44 43 35 27 23
35 34 36 35 36 37 36 36 36 36 36 37 37 37 37 37
38 37 38 38 39 38 39 38 39 39 39 39 39 39 39 39
39 39 39 40 40 40 40 40 37 25 22 23 38 45 45 45
25 10 53 81 71 92 100 104 102 102 100 96 94 94 100 108
108 108 108 109 108 110 107 108 112 114 116 116 111 103 97 92
98 99 94 35 0 0 10 10 26 45 48 48 50 47 39 49
52 48 48 46 43 41 41 43 43 48 56 47 33 29 29 0
0 0 3 0 0 0 0 0 0 20 41 41 40 33 25 22
36 36 35 36 36 36 36 35 36 36 36 36 37 37 37 37
38 37 38 38 39 38 38 38 38 39 38 39 39 39 39 39
40 39 39 40 40 40 40 40 36 25 22 23 38 45 45 44
28 6 71 95 80 85 100 103 103 100 99 97 95 96 98 108
112 111 113 112 111 111 110 110 112 115 117 116 113 103 101 101
103 102 101 25 2 2 9 12 37 45 47 48 48 46 39 49
52 50 48 46 44 41 40 37 33 36 51 44 20 19 33 5
0 17 48 24 0 0 0 0 3 32 45 40 35 31 23 22
36 36 35 36 36 36 36 36 37 36 37 37 37 37 36 37
37 37 37 38 38 38 38 38 38 38 39 39 39 38 39 39
39 39 39 39 40 40 40 40 36 24 22 22 37 45 45 45
35 5 51 97 92 84 96 102 102 103 98 99 97 99 101 108
115 114 113 113 115 114 114 113 115 117 117 117 114 106 105 106
105 103 93 8 5 7 12 23 42 47 47 47 47 46 38 49
53 50 49 46 43 41 41 38 34 29 47 42 10 17 30 10
0 33 51 49 26 1 0 0 9 39 46 40 31 26 24 23
37 36 36 36 36 37 37 36 37 36 36 37 37 37 38 37
38 38 38 38 38 38 38 38 38 38 39 39 39 39 39 39
40 40 39 39 40 40 41 40 36 24 22 21 37 45 44 44
39 8 26 94 98 90 89 100 100 102 101 100 99 99 102 107
117 119 117 119 118 116 115 116 115 117 119 117 111 108 102 108
109 106 81 3 7 11 14 30 43 45 47 47 47 46 37 48
52 48 49 47 45 43 45 44 39 28 41 45 23 25 24 8
3 42 66 51 46 15 0 0 15 45 45 39 29 23 22 23
36 36 36 36 36 36 36 36 36 37 37 37 37 37 37 37
38 37 38 37 38 38 38 38 39 39 39 39 39 39 39 40
40 39 39 39 39 39 40 39 36 24 21 21 37 45 44 44
39 11 8 80 98 95 87 98 102 102 104 103 103 102 103 110
120 124 121 121 121 121 116 115 117 118 119 116 113 110 108 110
111 107 71 1 7 13 15 36 41 43 45 48 49 46 38 46
53 51 50 47 45 43 44 43 39 28 33 49 31 24 28 13
6 49 53 31 43 37 9 2 21 45 45 39 26 14 10 10
37 37 36 36 36 36 36 36 36 36 37 37 36 37 37 37
38 37 38 38 38 38 38 38 38 38 39 39 38 39 38 38
39 38 39 39 38 39 39 39 36 22 20 20 37 43 43 43
40 23 4 56 96 99 90 95 102 102 105 107 106 102 105 110
120 126 122 124 124 123 119 115 118 120 120 117 115 111 109 113
110 107 57 0 4 10 33 37 44 46 47 48 49 46 37 45
52 47 48 48 47 43 44 43 39 31 25 47 40 36 33 26
5 49 43 48 46 43 34 31 35 44 46 40 24 10 2 1
37 37 36 36 35 35 36 35 36 35 36 35 36 36 36 36
37 37 36 37 37 37 37 37 37 38 37 38 38 38 39 39
39 39 38 38 38 39 38 38 34 20 20 19 36 43 43 42
42 33 5 24 91 97 91 94 102 104 105 108 109 106 107 111
122 133 132 130 126 124 120 119 119 119 120 117 115 113 111 112
110 106 54 0 0 14 40 38 42 44 46 47 46 44 35 41
48 45 47 46 44 43 42 41 39 33 20 39 41 35 31 26
3 45 49 44 53 48 35 37 43 44 45 41 28 9 0 0
36 36 36 34 35 35 35 35 35 36 36 36 36 36 36 36
36 36 36 37 36 37 37 37 37 37 37 38 38 38 38 38
38 38 38 38 38 38 38 37 33 20 20 19 34 43 42 42
41 37 14 6 83 96 94 96 103 106 108 111 112 110 112 116
124 134 135 136 133 127 123 122 121 119 118 118 116 112 113 112
112 106 57 0 0 24 37 38 41 45 46 46 46 45 35 40
46 43 43 43 44 44 45 42 41 34 20 30 43 35 28 31
10 35 53 48 40 40 33 38 43 43 44 41 32 22 6 0
36 36 35 35 35 35 34 34 34 35 35 34 35 35 35 36
36 36 36 36 36 36 36 36 36 36 37 37 37 37 37 37
37 37 37 37 37 37 37 36 33 19 17 16 33 41 41 40
40 39 24 2 74 98 97 96 104 108 111 114 113 114 117 120
129 138 141 138 134 129 125 123 123 121 117 117 114 111 112 112
110 106 72 0 0 23 36 39 42 44 44 45 44 43 34 39
44 41 40 41 42 43 43 41 40 33 21 20 42 35 35 37
29 14 54 56 48 35 31 36 42 42 42 39 33 27 18 6
36 34 34 34 34 34 34 34 34 34 34 35 35 35 35 35
35 35 35 35 35 36 36 36 36 36 37 36 37 37 37 36
37 37 36 36 36 35 36 35 32 19 15 14 31 40 40 39
40 38 20 7 70 100 99 100 107 111 115 117 119 120 120 121
131 138 140 140 136 133 119 124 124 123 118 117 116 113 112 112
110 107 86 3 0 17 26 38 40 44 44 44 44 42 34 40
42 38 39 40 41 42 42 43 41 34 22 13 37 37 36 41
41 6 37 61 51 35 32 35 37 39 36 34 33 30 27 20
37 36 35 35 35 35 34 34 34 34 35 35 34 34 35 35
35 35 35 35 36 36 36 35 36 36 36 36 37 36 36 36
36 36 36 36 35 36 35 34 31 19 14 15 31 39 38 39
39 37 18 8 70 104 102 104 109 114 116 117 119 121 121 124
133 141 143 143 138 133 127 127 126 122 121 119 115 114 112 111
109 107 95 8 0 8 27 38 41 44 44 42 41 39 32 42
42 37 38 40 39 40 40 42 45 37 22 12 26 43 40 41
36 13 15 43 36 33 32 35 35 35 33 30 27 25 25 23
38 36 35 34 34 34 34 34 34 34 34 35 34 35 35 35
35 35 35 35 36 35 35 36 36 36 37 37 37 37 37 36
36 35 37 39 35 34 34 33 30 17 14 14 31 39 39 38
39 36 17 1 72 104 105 106 110 114 116 118 119 121 122 125
133 142 144 143 138 130 127 127 126 125 123 119 116 114 114 112
111 110 101 20 0 22 36 41 44 45 45 44 46 43 34 44
47 42 40 40 39 42 43 43 45 37 22 12 18 42 32 29
28 24 20 35 32 32 31 35 32 31 29 28 22 20 20 22
39 36 35 35 35 34 34 34 34 34 35 35 34 35 35 35
35 35 35 36 35 36 36 37 36 36 37 36 37 36 36 35
34 27 31 35 34 34 34 33 30 18 13 14 30 37 37 37
37 29 17 3 77 105 105 108 113 114 116 117 119 118 123 123
130 141 145 144 137 132 129 127 124 125 124 120 119 117 113 112
113 110 103 30 2 29 39 42 45 50 55 57 56 50 38 46
50 46 46 46 47 47 47 47 48 39 22 12 14 34 28 27
28 26 23 33 33 31 31 33 32 28 27 26 22 17 20 21
41 38 36 36 35 35 35 34 34 34 34 34 35 35 35 35
35 35 35 36 36 36 36 36 36 36 36 37 36 37 36 36
35 31 39 44 45 44 43 43 41 35 32 31 39 42 41 41
41 32 5 4 79 105 107 109 113 115 117 116 117 118 123 122
125 139 145 145 135 132 131 128 127 124 123 121 117 114 113 108
112 110 107 47 30 46 48 47 50 66 68 68 69 65 54 46
47 46 45 44 43 42 45 49 48 41 22 13 12 15 24 28
28 26 26 33 31 32 31 33 31 27 24 25 22 15 17 18
42 39 37 36 35 34 35 35 35 34 35 35 35 34 35 35
34 35 35 35 35 36 36 35 36 37 37 37 36 36 35 28
26 25 42 50 50 50 50 49 50 49 49 48 46 44 42 41
41 39 18 3 85 105 108 110 113 115 116 114 115 119 122 121
122 137 145 141 134 131 131 129 127 124 124 122 119 116 115 113
115 113 108 57 34 46 46 46 48 64 69 67 66 67 64 46
45 44 43 42 40 37 40 46 47 40 21 13 12 4 22 28
23 23 27 32 30 31 31 33 31 26 23 23 20 16 16 16
43 39 37 36 35 35 34 34 34 34 34 34 34 34 35 35
35 35 36 36 36 35 34 33 35 36 36 36 36 36 34 22
21 22 41 51 51 51 51 50 50 50 49 48 46 44 42 41
42 41 31 15 92 107 109 111 113 115 116 114 114 118 122 121
120 128 142 138 132 131 128 128 126 124 122 119 118 114 113 113
117 114 110 62 23 30 32 32 33 40 45 39 39 42 48 33
31 30 29 28 31 37 38 43 47 40 21 13 13 7 15 4
2 8 29 31 31 31 31 31 30 26 22 22 21 17 14 13
43 39 36 35 34 34 33 33 34 34 34 34 35 35 36 35
35 35 35 35 35 34 31 30 33 36 37 36 37 36 32 22
19 21 41 51 49 47 47 47 47 47 46 45 43 41 39 40
39 39 30 24 97 106 110 110 113 116 116 115 115 117 122 120
118 122 132 133 129 126 129 125 125 124 123 120 113 117 115 117
118 115 110 66 8 10 10 8 6 5 4 4 4 3 5 4
4 3 4 4 23 39 36 41 45 37 19 14 18 20 13 0
0 12 30 31 31 30 31 31 29 25 22 20 19 16 14 11
44 39 37 35 34 33 33 32 32 33 32 33 35 35 35 35
36 35 35 35 34 32 31 32 34 35 35 35 35 35 31 21
19 21 41 51 40 22 23 23 23 23 22 21 20 18 18 18
17 18 16 18 100 108 108 112 114 115 116 115 115 118 121 120
116 116 121 125 126 128 131 122 126 124 122 120 116 115 114 116
118 116 111 70 15 22 22 19 14 8 3 1 1 0 0 0
0 0 0 0 17 40 36 35 34 28 17 16 21 23 16 0
0 21 31 32 30 28 30 30 28 26 22 19 17 14 11 10
45 40 37 35 34 33 32 32 32 32 32 33 36 36 36 35
36 36 36 35 31 27 28 29 29 31 31 32 32 32 28 20
20 21 40 52 39 20 22 23 24 24 24 23 23 22 22 22
21 21 21 30 102 109 109 111 113 115 114 116 117 117 121 120
118 118 121 124 125 128 132 124 124 122 122 119 117 118 115 115
119 116 111 85 25 30 31 28 22 12 6 3 4 3 2 2
2 1 1 0 10 39 35 22 15 12 10 10 20 23 19 3
9 28 32 34 33 26 28 28 28 26 22 18 15 12 10 9
46 40 38 36 34 33 33 32 32 32 32 33 37 36 36 36
36 35 35 34 30 27 27 28 29 28 29 29 29 29 24 19
19 21 40 52 40 22 30 57 63 63 63 59 55 56 54 52
52 52 52 51 102 109 111 113 114 116 116 116 116 116 120 117
119 120 122 123 126 129 129 124 125 123 122 117 116 116 119 119
118 116 109 98 31 20 24 22 17 11 6 4 4 3 3 2
2 1 1 0 4 36 34 18 10 11 13 20 21 20 19 9
17 31 33 34 36 24 25 26 27 25 21 18 15 12 11 6
47 42 40 37 34 34 32 31 32 31 31 33 36 37 36 36
36 37 37 35 31 28 27 27 28 28 28 29 29 29 22 19
19 20 38 52 42 22 33 80 90 90 92 90 89 90 90 88
90 90 88 40 99 109 112 112 115 114 116 117 116 115 116 119
119 122 123 123 126 130 128 123 122 121 121 118 118 119 119 119
117 114 108 103 83 8 20 15 12 9 6 4 3 3 3 2
2 1 0 0 1 32 35 21 9 18 30 27 20 17 18 13
14 29 34 35 39 28 22 25 26 24 20 15 13 10 8 4
47 43 39 37 35 34 33 31 31 32 32 33 37 38 36 36
36 36 36 35 31 27 27 28 28 29 29 29 30 29 22 19
19 20 37 51 42 22 31 78 90 92 93 90 88 89 90 88
90 87 66 25 98 109 112 113 116 114 116 118 119 116 116 119
119 122 124 125 126 126 124 122 123 122 122 119 121 119 119 119
117 113 108 107 108 55 23 19 14 8 6 5 5 3 3 2
2 1 1 0 0 25 35 24 17 20 27 26 21 15 17 17
15 27 35 36 38 36 18 21 22 23 19 11 8 5 3 4
48 44 39 36 34 34 33 31 32 31 31 33 36 36 36 35
36 35 36 35 31 27 27 27 28 28 28 28 28 27 20 19
18 20 36 50 42 21 30 76 90 91 91 89 84 85 87 83
55 22 15 29 98 108 112 114 115 113 116 118 120 117 116 118
119 121 122 122 123 124 122 120 120 123 120 118 121 122 119 118
117 112 109 109 112 73 25 27 22 22 12 9 8 8 7 6
6 5 4 2 2 20 33 29 27 25 25 24 23 17 15 16
14 18 38 38 37 38 22 15 19 21 18 8 4 2 1 1
49 43 39 36 34 32 32 31 31 31 32 33 36 37 36 35
36 36 35 35 31 27 27 27 27 28 28 29 28 25 19 18
19 20 34 50 43 22 28 72 87 88 89 86 82 83 79 46
15 7 25 27 91 108 112 115 116 117 116 118 119 116 116 116
118 121 123 122 123 123 123 120 121 120 118 119 125 126 122 120
117 114 111 111 114 57 26 27 22 23 23 23 29 33 33 33
32 31 28 24 25 29 31 29 27 20 21 22 21 18 14 16
15 14 33 42 42 37 31 11 13 18 17 8 1 0 0 0
49 42 38 36 34 33 32 31 32 31 32 33 35 36 35 35
35 35 35 34 31 27 27 27 27 28 28 28 28 24 17 18
18 19 33 49 43 21 25 65 81 81 82 79 65 47 27 19
7 16 26 23 70 109 112 114 115 118 118 119 119 118 115 115
117 118 121 121 121 121 121 120 120 123 121 121 130 126 123 121
119 114 113 113 100 29 26 26 24 22 22 26 17 25 34 38
38 35 27 26 26 25 25 23 23 19 14 21 21 19 14 13
15 14 20 41 45 40 35 19 7 12 16 13 3 0 2 1
49 43 39 36 34 34 33 32 32 31 31 33 35 36 36 35
36 36 36 35 31 27 27 27 27 27 28 28 28 22 17 20
19 19 33 50 44 21 24 63 79 75 58 36 25 27 24 19
9 22 25 23 40 105 112 114 116 117 118 119 119 117 115 115
117 118 118 121 122 121 122 120 119 120 123 128 131 128 123 121
119 115 114 111 50 24 26 24 23 22 22 28 25 18 20 29
31 32 30 28 25 25 24 23 23 21 11 3 15 17 15 11
13 16 15 26 46 46 39 29 12 7 11 13 6 0 0 0
47 41 38 36 34 33 33 33 32 31 31 32 35 36 35 35
35 36 35 34 30 26 26 26 27 27 27 27 27 22 18 19
18 19 32 50 44 21 24 57 52 29 22 19 21 25 27 21
11 19 21 21 21 62 110 113 115 118 118 118 120 118 116 118
120 118 120 120 122 121 122 121 119 121 127 132 133 131 125 122
118 116 115 76 22 23 25 24 21 19 22 27 28 18 18 23
29 29 32 35 32 30 27 26 23 21 19 6 2 11 9 8
10 15 16 14 34 49 45 37 22 7 4 6 7 0 0 0
46 41 38 36 35 34 34 32 32 31 31 32 33 35 36 35
36 36 36 35 30 26 26 26 26 27 27 27 26 23 18 18
19 19 31 50 45 24 26 25 17 14 20 22 21 21 25 23
15 17 20 20 18 23 71 110 113 117 118 118 117 117 115 116
119 117 119 120 121 124 124 122 120 124 130 134 135 129 124 121
118 118 92 30 20 21 24 22 19 20 23 26 25 23 21 25
29 30 30 33 34 33 34 36 37 35 25 16 2 2 9 3
10 11 16 16 15 38 48 42 31 17 5 1 0 0 0 0
45 40 36 37 37 33 33 32 31 31 32 32 34 35 36 36
36 36 36 36 30 25 26 26 25 26 26 26 26 23 18 18
18 19 30 45 40 24 17 18 13 13 20 23 19 17 20 23
18 13 17 19 17 16 20 59 108 117 122 120 119 119 116 113
119 120 121 121 121 123 123 122 122 126 134 134 133 128 123 122
117 88 34 21 17 20 23 19 18 23 26 26 25 27 28 31
32 33 33 35 36 36 37 37 35 34 35 33 24 5 5 11
15 10 8 3 14 14 27 40 34 24 14 4 0 0 0 0
43 38 29 36 42 34 33 32 31 31 31 32 34 35 35 35
36 36 36 36 30 25 25 26 27 26 26 26 26 22 18 19
19 23 32 30 28 23 13 18 13 16 20 20 18 17 17 20
19 13 14 17 17 16 16 20 42 92 119 121 121 117 113 111
115 118 120 121 122 124 126 124 124 128 134 132 132 127 115 84
43 24 19 19 18 20 19 18 21 26 25 27 31 34 34 36
35 34 34 35 35 36 37 35 32 29 30 30 30 30 14 9
13 3 1 0 6 7 5 12 24 27 22 13 3 0 0 0
42 37 26 36 41 33 32 31 31 31 31 32 33 35 36 36
36 36 36 35 31 26 25 26 25 25 25 25 25 23 18 20
22 27 27 24 26 26 22 13 13 15 18 18 18 17 15 18
20 17 13 18 18 15 16 16 17 22 52 94 119 116 113 112
115 117 120 122 123 123 124 124 126 129 131 127 101 64 33 23
20 18 18 18 18 18 17 19 24 24 26 31 33 35 34 34
36 36 35 33 34 35 33 32 30 27 27 27 30 31 33 28
11 8 9 1 11 9 5 3 9 28 22 17 12 8 0 0
39 31 25 40 44 34 32 32 32 32 32 32 33 35 36 36
36 35 35 35 31 25 25 25 25 25 25 25 26 22 21 30
31 27 24 23 24 24 26 24 18 16 17 17 16 17 16 16
18 19 15 16 17 16 16 15 16 16 16 18 34 61 82 97
109 115 118 117 117 120 118 112 102 89 69 38 22 21 18 18
18 18 17 17 17 17 17 24 23 25 31 36 35 34 34 36
37 35 33 32 31 31 32 30 29 26 27 27 29 28 29 31
38 31 17 20 1 6 0 1 8 19 20 15 14 11 0 0
37 27 19 29 41 34 32 31 32 32 31 31 33 35 36 36
36 35 35 36 31 25 25 24 25 25 25 25 26 30 34 33
33 34 33 28 24 24 26 25 24 20 17 17 17 17 15 15
16 17 17 15 16 17 16 14 15 15 14 12 15 13 15 18
24 34 44 42 39 33 32 25 23 22 22 22 20 17 17 18
18 17 17 19 17 18 20 21 22 27 32 33 35 34 35 35
34 33 32 32 30 30 29 27 27 26 26 26 27 26 27 28
27 35 39 22 6 1 1 0 1 9 13 12 14 10 0 0
35 23 14 23 39 33 32 31 31 31 31 31 33 35 36 36
35 35 35 35 30 24 24 25 24 25 26 29 33 31 30 29
28 30 33 32 28 25 25 25 26 26 22 15 15 17 17 16
16 17 17 18 15 15 16 15 14 13 12 11 14 13 13 11
13 14 16 16 17 18 18 18 19 19 21 19 19 16 18 16
17 17 18 19 18 20 22 20 25 28 32 32 33 34 34 32
32 34 33 33 28 28 29 27 26 27 25 27 26 26 25 27
26 28 30 33 17 2 0 1 0 1 10 7 10 5 0 0
34 21 17 26 31 32 31 31 32 31 30 31 32 34 34 35
34 34 35 34 30 25 24 24 24 28 33 31 29 27 26 28
29 29 32 31 29 26 26 27 25 25 26 22 14 14 16 15
16 15 16 16 18 16 15 15 15 14 14 13 14 13 14 14
15 16 16 17 17 17 19 18 17 20 18 17 17 18 16 18
18 18 18 18 22 23 21 23 28 29 31 30 31 32 33 32
31 33 33 30 28 27 27 27 27 26 25 26 26 26 24 24
24 26 26 28 30 9 0 1 1 1 1 4 4 1 0 0
32 19 7 10 22 30 31 32 31 30 31 31 32 34 35 34
35 34 34 34 29 25 24 25 30 32 27 24 24 23 24 25
28 26 28 29 28 28 26 29 25 25 27 25 20 14 15 16
15 16 16 16 16 16 15 14 15 16 17 18 18 18 18 17
17 16 17 18 15 17 17 19 19 20 22 20 21 20 21 21
20 17 18 22 23 22 23 28 28 29 28 28 32 32 31 31
30 30 32 28 27 26 26 26 25 25 25 23 24 24 23 22
24 27 25 25 26 26 4 0 1 0 0 0 0 0 0 0
31 17 2 9 25 31 31 31 31 30 30 30 32 33 34 34
33 33 34 33 29 25 26 30 28 27 23 21 21 23 22 25
26 26 26 27 26 28 29 30 27 25 27 28 25 20 16 16
15 15 15 14 14 15 15 16 14 13 14 17 20 19 20 19
18 19 19 18 20 18 19 21 21 21 23 22 22 21 19 18
17 23 22 21 20 23 27 29 28 29 29 30 32 31 32 30
29 30 31 27 25 25 26 25 25 23 24 22 21 21 22 21
23 25 22 24 22 27 18 0 0 0 0 0 0 0 0 0
31 17 3 8 27 30 30 30 30 30 30 30 32 33 34 33
33 34 34 33 30 28 33 23 23 21 21 20 22 24 24 25
25 26 25 27 26 27 27 28 28 27 27 28 26 25 22 20
18 17 16 15 16 14 14 15 13 11 11 10 11 15 18 19
20 20 21 20 19 21 22 21 20 20 19 16 13 13 17 19
22 24 22 20 21 26 28 28 27 29 29 30 30 29 29 28
29 28 29 26 24 23 24 25 25 23 23 22 21 20 20 21
23 24 22 24 21 24 29 7 0 0 0 0 0 0 0 0
34 19 7 10 29 30 31 31 30 30 30 31 31 33 34 34
33 33 34 33 31 32 24 20 21 20 20 19 21 22 24 25
27 26 28 26 25 26 26 26 26 27 25 26 26 26 27 24
22 21 18 16 15 15 14 13 13 12 11 9 8 8 8 9
9 12 12 13 13 14 12 12 12 13 13 14 16 16 19 22
22 21 20 20 23 26 25 26 25 26 27 28 28 29 29 27
28 29 27 26 24 23 23 23 24 23 21 21 22 22 21 21
20 23 20 20 20 23 25 21 1 0 0 0 0 0 0 0
36 21 14 26 36 31 31 31 30 30 30 30 32 33 34 34
33 34 33 33 35 23 19 18 19 19 18 19 21 24 24 25
27 28 27 26 25 26 26 25 26 26 26 26 25 26 26 25
24 23 22 19 18 17 15 15 13 13 14 13 14 15 12 11
12 13 11 11 12 13 14 16 15 15 17 17 19 22 23 23
21 20 21 23 26 26 27 26 26 27 28 27 28 28 27 28
27 25 25 25 23 22 23 22 24 24 22 21 23 21 22 20
19 23 20 17 19 24 24 24 13 0 0 0 1 0 0 0
33 20 17 33 38 31 31 31 30 31 31 31 32 33 34 34
34 34 34 36 27 19 19 18 17 18 19 21 22 24 24 26
27 30 27 26 25 26 26 25 26 25 26 25 25 26 26 26
25 23 25 25 22 19 19 19 19 16 17 15 15 18 18 18
19 19 16 15 16 16 16 17 19 19 19 21 24 24 24 22
20 20 25 25 24 26 26 24 25 26 27 27 28 29 29 28
26 26 25 24 23 23 24 22 24 24 23 22 21 21 22 19
20 22 21 16 16 23 25 23 23 5 0 0 0 0 0 0
