P2
128 120
144
33 34 35 35 36 36 37 37 37 38 38 38 39 39 39 40
40 40 40 40 41 41 41 42 42 42 43 43 43 43 43 43
43 43 44 44 44 44 44 44 44 44 45 44 45 45 45 44
45 44 44 43 44 44 44 43 43 42 43 43 42 42 42 42
42 41 41 40 40 40 39 39 38 38 38 37 36 36 35 35
35 34 34 33 33 33 32 32 32 32 31 31 31 31 31 30
31 31 30 31 31 31 30 31 31 31 31 32 33 32 33 33
34 34 35 35 36 36 35 36 37 38 38 39 39 39 40 40
34 35 35 35 35 36 37 36 37 38 38 39 39 39 39 40
40 40 41 41 41 41 42 42 42 42 42 43 43 43 43 43
43 43 43 44 44 44 44 44 44 44 44 44 44 45 45 45
45 44 44 44 44 44 44 44 43 43 43 43 42 43 42 42
41 41 41 40 41 40 39 39 39 38 38 37 37 36 36 36
35 35 35 34 34 33 33 32 32 32 32 32 32 31 31 31
31 31 31 31 31 31 31 32 31 32 32 32 32 33 33 34
34 34 35 36 36 36 37 37 38 38 39 39 40 40 41 41
34 34 35 35 36 35 36 37 38 38 38 38 39 39 40 40
40 40 41 41 41 41 42 41 42 42 42 42 42 43 43 43
44 43 43 44 44 44 44 44 44 44 44 45 45 44 44 44
44 45 44 43 43 43 44 43 43 43 43 43 42 42 43 42
42 42 41 41 40 40 40 39 39 38 38 37 37 36 36 36
35 35 35 35 33 34 33 33 33 33 33 32 32 32 31 31
31 31 32 32 31 31 32 32 32 32 33 32 33 33 33 34
34 34 35 36 36 36 37 37 38 38 39 40 40 41 40 41
34 35 36 36 36 36 36 37 37 37 38 38 39 39 40 40
41 41 41 42 41 42 42 42 42 42 42 43 43 43 42 43
44 44 44 43 44 44 44 44 45 44 44 44 45 45 44 44
44 44 44 43 43 44 44 44 43 43 43 43 43 42 42 42
42 41 41 41 41 40 40 39 39 39 38 38 38 37 37 37
36 35 35 34 34 34 33 32 33 33 33 32 33 32 32 32
32 32 32 32 32 32 32 32 32 32 33 32 32 34 34 34
35 34 35 36 36 36 37 37 38 38 39 39 40 41 40 41
35 34 35 36 36 37 37 37 37 38 39 38 39 39 40 40
40 41 41 41 42 42 42 42 42 42 42 42 43 43 43 42
43 43 43 43 44 44 44 44 44 44 44 44 45 44 44 44
44 44 43 44 44 44 44 43 44 43 43 43 43 43 43 42
42 41 41 40 41 40 39 39 39 39 38 38 38 38 38 36
36 36 36 35 35 34 34 34 33 33 33 32 33 32 32 32
32 32 32 32 32 32 32 32 32 32 32 32 33 34 33 34
34 35 35 35 36 37 37 37 38 39 39 39 40 41 41 41
34 35 35 35 35 35 37 36 38 38 38 39 39 39 40 40
41 41 41 41 42 43 42 42 42 42 43 42 43 43 43 43
43 44 43 43 44 43 44 44 44 44 45 44 44 44 45 44
44 44 44 43 44 44 44 44 43 44 43 43 43 42 42 42
42 41 42 41 41 40 40 40 39 39 38 38 38 37 37 36
37 36 35 35 35 34 34 34 34 33 33 33 33 33 33 33
33 33 32 33 32 33 33 32 32 32 33 33 33 33 34 34
35 35 35 36 36 37 37 37 38 38 39 39 40 40 41 41
34 34 35 36 36 36 37 37 37 38 38 38 39 39 39 39
40 40 41 41 41 41 42 43 42 42 43 42 43 43 43 43
43 43 43 43 43 44 44 43 44 44 44 44 43 44 44 44
44 43 44 44 44 44 44 43 43 43 43 43 43 43 42 42
42 42 42 41 41 41 40 39 39 39 39 39 38 38 37 37
36 36 35 35 35 35 34 33 33 33 33 33 34 33 32 33
33 32 32 32 33 32 32 32 32 33 34 33 34 33 33 34
34 35 35 36 36 36 37 37 38 38 39 39 39 39 40 40
34 34 35 35 36 36 36 36 38 38 38 38 39 39 40 40
40 40 40 41 41 42 42 42 42 42 43 43 43 43 43 43
43 43 43 43 43 43 44 43 44 44 43 43 44 43 44 43
44 44 44 44 44 44 43 44 43 43 43 42 42 42 42 42
42 42 41 41 41 41 40 40 39 40 39 39 38 38 38 37
37 36 36 35 35 35 35 34 34 33 33 33 33 33 33 33
33 33 32 32 32 32 32 32 33 33 33 33 33 33 34 34
34 35 35 35 36 37 37 37 37 38 38 39 39 39 40 40
35 34 35 36 36 36 37 37 37 38 38 38 39 39 39 39
40 40 40 41 41 41 41 42 42 42 43 42 43 43 43 44
43 43 43 43 43 43 43 43 44 43 43 43 43 44 43 44
44 44 43 44 44 44 44 43 44 42 43 42 43 43 43 41
42 41 41 41 40 40 40 40 40 39 39 39 39 38 37 37
37 37 36 36 35 36 35 35 34 34 34 33 34 33 33 32
33 32 33 32 32 32 33 32 32 33 34 34 34 34 34 34
35 34 36 35 36 36 37 37 38 39 38 39 39 40 40 40
34 35 35 35 35 36 36 37 38 38 38 38 38 39 39 39
39 40 40 40 41 41 41 42 42 43 42 43 43 43 43 43
43 43 44 43 43 43 44 43 43 43 43 43 44 43 44 43
43 44 44 44 43 43 43 43 43 43 43 43 42 42 42 42
42 41 42 41 41 40 41 40 40 39 40 39 39 38 38 37
37 37 36 35 36 36 35 35 35 34 34 34 33 34 34 33
33 33 33 33 32 32 33 32 33 32 32 33 33 34 34 34
34 34 36 35 36 37 36 37 38 38 38 38 39 39 39 40
34 35 35 36 36 36 37 37 37 37 38 38 38 39 39 40
39 39 40 40 40 41 41 41 42 42 42 42 42 43 43 43
43 43 43 43 43 43 43 43 43 43 43 43 43 43 43 43
44 43 43 43 44 43 43 43 43 43 43 43 42 42 42 42
42 41 41 41 41 40 40 40 40 39 39 39 38 38 38 37
37 37 36 36 36 36 35 34 35 34 34 34 34 33 33 33
33 33 33 33 32 33 33 33 33 33 33 34 34 34 34 34
35 35 35 35 36 36 37 37 37 37 38 38 39 39 40 39
35 35 35 35 36 37 37 37 37 38 38 38 38 39 39 39
40 40 40 40 41 41 41 42 42 42 42 42 43 43 43 42
43 43 43 44 43 43 44 43 44 43 43 44 44 43 43 44
44 43 44 44 43 44 43 43 43 43 43 43 42 42 42 42
42 41 42 41 41 41 41 40 40 39 40 39 39 38 37 38
37 36 37 36 36 35 35 35 36 35 35 34 34 34 34 34
33 33 33 33 33 33 33 32 33 33 33 34 34 34 34 35
35 35 36 36 36 36 36 37 37 37 38 38 39 39 39 39
35 35 35 35 36 36 36 36 37 37 38 38 38 38 39 39
40 39 40 40 40 40 41 41 42 42 42 42 43 43 43 43
43 43 43 43 43 43 43 44 44 43 44 43 43 43 44 43
44 43 44 43 43 43 44 43 43 43 42 43 43 42 42 42
42 42 41 41 41 41 40 39 39 39 39 39 39 38 38 38
37 37 37 36 36 36 36 35 35 35 35 34 34 34 34 34
34 33 33 33 33 33 34 34 33 33 34 34 34 34 34 34
35 35 35 35 35 36 36 36 37 37 37 38 39 39 39 39
35 35 35 36 36 36 37 37 37 37 37 38 39 38 39 39
39 39 40 40 40 41 41 41 42 41 42 41 43 42 42 42
43 42 42 43 43 43 43 44 44 44 44 44 43 43 43 44
43 43 43 43 43 43 43 43 43 42 43 43 43 42 42 42
42 41 42 41 41 41 40 40 40 40 39 39 38 38 38 38
37 37 37 36 36 36 35 35 35 35 35 35 34 34 34 34
33 33 34 33 33 33 33 33 33 33 34 34 34 34 34 34
34 34 35 35 36 36 36 37 37 37 38 38 38 39 39 39
34 35 35 35 36 36 36 36 37 38 38 38 38 38 38 39
39 39 40 40 41 41 40 41 41 41 42 42 42 42 42 42
42 42 43 43 43 43 43 43 43 43 43 43 43 44 43 43
43 43 44 43 43 43 43 43 43 43 43 43 42 42 42 42
42 41 41 42 41 40 40 40 40 39 39 38 39 38 38 38
38 37 37 37 36 36 36 35 35 35 34 34 34 34 34 33
33 33 34 33 33 33 34 33 34 33 33 34 34 34 34 34
34 35 35 35 35 36 36 37 37 37 38 38 38 38 39 39
34 35 35 35 36 36 37 37 36 37 37 38 38 38 39 39
39 39 40 40 41 40 41 41 41 41 41 41 42 43 42 42
42 42 42 42 42 43 43 43 43 43 43 43 44 43 44 43
43 43 43 43 43 43 43 43 42 43 43 43 43 43 42 42
42 41 42 41 41 41 41 40 40 40 39 38 39 38 38 38
38 37 37 36 37 36 36 35 35 35 35 35 35 34 34 34
34 34 34 33 33 33 33 33 33 34 33 33 33 34 34 35
34 34 35 35 35 36 37 36 36 37 37 37 38 38 38 39
35 35 35 35 36 35 36 37 37 37 38 37 38 39 39 39
40 40 40 41 40 40 41 41 41 42 42 42 42 42 42 42
43 42 43 43 43 43 44 43 43 43 43 44 43 43 44 44
44 43 43 43 44 43 43 43 43 42 43 42 43 42 43 42
41 41 41 41 41 40 40 40 40 40 40 40 39 39 39 39
38 38 38 37 36 36 36 36 36 35 35 35 35 35 35 34
34 35 34 34 34 34 34 34 34 34 34 35 34 35 34 34
34 35 35 35 36 36 37 37 37 37 37 37 38 38 38 39
35 35 36 36 36 37 37 37 37 38 38 38 39 39 39 40
40 40 40 41 41 41 41 41 42 42 41 42 42 42 42 43
43 43 43 43 43 43 43 43 44 44 44 44 44 44 44 44
44 43 44 44 44 44 43 43 43 43 43 42 42 42 42 42
42 42 41 40 41 41 41 40 40 40 40 40 40 39 39 39
39 38 38 37 37 37 36 36 36 35 35 36 35 35 35 35
35 34 35 34 34 34 34 34 34 34 34 34 34 34 34 35
35 35 36 36 36 36 36 37 37 37 38 37 38 38 38 38
35 35 35 36 36 36 37 37 37 38 38 38 39 39 39 39
40 40 41 40 41 41 42 42 42 41 42 42 43 42 43 42
42 43 43 43 43 43 43 44 44 43 44 43 43 44 44 44
44 44 44 44 44 44 44 43 43 43 43 43 43 43 42 42
41 42 40 35 40 41 41 40 40 40 40 39 40 40 39 39
38 38 37 38 37 36 36 36 36 36 36 36 36 36 35 35
35 35 34 34 35 34 34 34 34 34 33 34 35 34 35 34
35 35 36 37 36 36 36 37 37 38 38 38 38 38 38 38
35 35 36 36 36 36 37 37 38 38 38 39 38 39 39 39
40 39 40 41 41 41 41 42 42 42 42 42 42 42 43 43
43 43 43 43 44 43 44 43 44 43 43 43 43 43 43 44
44 44 43 43 44 43 43 43 43 43 43 43 43 42 42 42
38 40 40 35 39 41 41 40 40 40 41 39 39 39 39 39
39 38 37 38 37 37 37 36 36 36 36 36 36 35 36 36
36 35 35 35 35 34 34 34 34 34 34 34 35 35 34 34
35 35 36 36 36 36 36 36 36 37 37 38 38 38 37 38
36 35 36 36 36 37 37 37 38 38 38 39 39 39 39 39
40 40 40 41 41 41 41 41 42 42 42 41 42 43 42 43
43 43 43 43 43 43 43 43 43 43 44 44 43 44 44 44
44 44 44 44 44 43 44 43 43 43 42 43 42 43 41 39
39 37 35 37 40 40 41 41 40 40 41 41 40 40 39 39
39 38 38 38 37 37 37 37 37 36 36 36 36 36 35 35
35 35 35 35 35 35 35 35 34 34 34 35 35 35 35 35
35 35 36 36 36 36 36 36 37 37 37 37 38 38 38 37
35 35 36 36 37 37 37 37 38 38 38 39 39 39 39 40
40 40 40 41 41 41 41 41 41 42 42 42 42 42 42 43
43 43 43 43 43 43 43 43 44 44 44 43 44 43 44 44
44 44 44 44 44 44 44 44 43 43 43 43 43 42 41 38
33 29 32 32 36 37 40 41 40 38 38 40 40 40 39 39
38 38 38 38 38 38 38 37 37 37 36 37 36 35 36 35
35 35 35 34 34 35 35 34 35 34 34 35 34 35 35 35
35 36 36 36 36 36 37 36 37 36 37 38 37 37 38 38
36 35 36 35 36 36 37 37 38 38 38 38 39 39 39 39
40 39 40 40 40 41 41 41 41 41 41 41 42 42 43 42
42 43 43 42 43 43 42 42 43 43 43 43 43 43 43 43
43 43 43 44 43 43 43 43 43 42 43 42 42 40 32 27
27 24 25 29 30 36 38 39 37 38 37 40 39 39 39 39
38 38 37 37 37 37 37 36 37 36 36 36 36 36 36 35
36 35 35 35 34 34 35 34 34 34 34 34 34 35 34 35
35 35 35 35 35 35 36 36 36 36 36 36 37 37 37 37
36 36 36 36 37 37 37 37 37 38 38 38 39 38 39 39
39 40 39 39 40 40 40 41 41 41 42 41 42 42 42 42
42 42 42 42 42 42 42 42 43 43 43 43 42 43 42 43
43 43 43 43 43 42 43 43 43 43 42 41 40 34 25 25
17 15 17 17 24 27 32 32 33 36 35 39 39 39 39 38
38 38 38 37 37 37 37 36 36 36 36 36 36 36 35 35
35 35 35 35 35 35 35 34 34 35 35 34 34 34 34 34
34 34 35 34 35 34 35 35 36 36 36 36 36 37 37 37
35 36 36 36 37 37 37 37 38 37 38 38 38 39 38 39
39 39 40 40 40 40 40 40 40 40 41 41 42 42 41 42
42 42 42 42 42 42 41 42 42 43 43 43 43 43 43 42
43 43 43 43 43 42 42 42 42 42 40 40 34 20 20 16
13 8 6 8 14 17 21 23 33 28 32 36 36 37 39 38
38 38 38 37 37 37 37 37 36 36 36 36 36 35 36 35
35 35 34 35 34 34 34 34 34 34 34 34 34 34 34 35
35 34 35 35 35 35 35 35 36 36 36 36 36 36 37 36
35 35 36 37 36 37 37 37 37 37 38 38 38 39 39 39
39 39 39 39 40 40 41 41 41 41 41 40 41 42 41 41
42 41 41 41 42 42 41 42 42 42 42 42 42 42 42 42
43 43 43 43 43 42 42 42 41 37 30 25 22 24 21 15
7 4 1 1 9 7 13 19 28 25 29 28 25 30 35 38
38 38 37 37 37 37 36 36 36 36 35 35 35 35 35 35
35 35 35 34 34 34 34 34 34 34 34 34 34 34 33 34
34 34 35 34 35 35 34 35 35 36 36 35 36 37 37 36
36 36 36 36 36 37 37 37 37 37 38 38 39 38 38 38
39 39 40 39 40 40 40 40 40 41 41 41 41 42 42 42
41 41 41 41 42 42 43 41 42 41 42 42 42 41 42 42
42 42 42 42 42 42 41 41 35 21 23 25 19 15 9 11
8 2 5 4 6 6 14 16 25 21 24 22 16 19 26 34
36 37 37 37 37 37 37 36 36 36 36 36 35 35 35 35
35 34 35 34 35 34 34 34 35 34 34 34 34 33 34 34
34 34 34 34 34 34 34 35 35 35 35 35 35 35 36 36
36 36 37 37 37 37 37 37 38 37 38 38 38 38 39 39
39 40 40 40 40 40 40 41 41 41 40 41 41 41 42 42
41 41 41 41 42 42 41 42 42 42 42 42 42 43 42 42
42 43 43 42 42 39 31 25 18 19 23 16 13 13 11 8
7 10 14 17 11 11 21 17 17 17 15 10 17 25 33 31
38 38 38 37 37 37 37 36 36 36 36 36 35 35 35 35
35 35 35 35 35 34 35 35 34 35 34 34 34 34 34 34
35 34 34 34 34 35 35 35 35 35 35 35 36 35 36 36
35 36 37 38 38 38 38 39 38 38 38 38 39 39 39 39
40 39 40 40 40 41 41 41 41 40 41 41 41 41 41 41
41 42 42 42 42 41 42 42 42 42 42 42 42 42 42 42
43 42 42 42 39 28 26 23 17 18 16 11 8 4 2 2
6 7 11 5 6 15 22 19 20 14 11 14 23 27 31 28
31 37 37 37 37 37 37 36 37 36 36 36 36 35 35 35
35 35 35 35 34 34 35 34 34 35 34 34 34 34 34 34
34 34 34 34 35 34 35 35 35 35 35 35 36 36 36 35
23 24 26 28 30 31 33 34 37 38 38 39 39 40 40 40
40 41 40 40 40 41 41 41 41 41 41 41 41 42 42 42
42 42 42 42 42 42 42 43 43 42 42 41 42 42 42 42
42 41 42 41 35 26 22 23 21 15 13 8 1 0 1 5
8 2 4 7 6 6 11 6 15 14 12 20 23 29 30 28
29 37 37 38 37 37 37 37 36 36 36 36 36 35 35 35
35 35 35 35 35 35 35 35 34 34 35 34 35 34 34 34
34 34 35 34 35 35 35 35 35 35 35 35 35 36 35 36
19 19 20 20 20 21 21 22 23 24 25 25 27 29 32 34
35 37 39 39 41 40 41 41 42 41 41 42 42 41 42 42
42 41 42 42 42 42 42 42 42 42 42 42 42 42 42 42
42 41 40 31 29 22 20 17 12 12 12 4 1 2 1 2
14 2 1 0 0 2 5 5 4 8 11 16 28 26 28 30
26 36 36 37 37 37 37 36 36 36 36 36 35 35 36 36
36 35 35 35 35 35 36 34 34 34 35 35 34 34 34 37
47 44 42 38 37 35 35 35 35 35 35 35 35 35 37 37
17 17 17 18 18 19 19 20 20 20 20 18 19 21 21 21
21 22 22 23 25 26 28 30 33 35 37 38 41 42 42 42
43 42 43 42 42 43 42 43 43 42 43 42 42 42 41 41
42 39 34 29 32 29 19 16 10 5 4 2 5 14 31 44
50 66 60 44 25 7 0 1 1 7 13 18 24 21 28 24
23 31 36 36 36 37 37 36 36 37 36 36 36 36 36 36
36 36 36 35 35 35 35 35 35 35 34 34 34 34 34 35
52 53 52 53 50 47 47 47 44 40 37 35 35 35 37 43
13 12 13 14 14 15 16 17 16 17 18 17 17 18 17 18
18 18 19 18 17 17 17 17 18 18 19 20 22 23 25 27
30 33 35 38 39 41 41 42 43 43 43 42 42 42 42 42
40 36 32 28 20 18 12 14 15 5 3 14 46 77 87 90
76 96 98 95 89 74 42 12 0 4 15 19 23 28 26 27
30 30 36 36 35 37 37 36 37 36 36 36 36 37 36 35
35 35 35 34 34 35 35 35 35 34 34 34 34 34 34 33
47 44 19 22 26 27 33 45 51 54 55 38 35 35 34 38
21 17 15 15 15 14 14 14 14 14 15 14 14 16 17 18
17 17 18 18 16 17 17 17 17 17 17 16 16 16 16 16
15 17 17 18 19 21 23 25 28 31 33 36 39 42 43 43
41 33 18 14 10 5 8 11 7 11 35 67 93 93 98 99
88 102 102 101 97 96 90 72 41 5 11 28 21 20 24 26
29 27 37 36 37 36 36 36 36 36 36 36 36 36 36 35
36 36 36 35 35 35 35 35 34 34 34 34 35 34 34 31
43 41 3 0 0 2 8 7 10 27 54 41 35 35 30 30
29 24 27 28 26 27 27 25 25 23 19 20 18 18 16 15
14 13 14 14 14 13 15 15 13 14 14 15 16 17 17 15
15 16 15 15 15 15 14 12 10 10 11 14 29 42 42 41
38 23 19 12 7 11 8 7 21 61 84 98 98 93 97 99
100 102 103 100 99 97 98 96 81 62 8 15 16 8 10 15
19 29 35 34 37 37 37 37 37 36 36 36 36 36 36 35
36 35 35 35 35 35 34 35 34 34 35 34 35 34 34 31
43 45 5 0 0 0 3 1 0 10 53 45 35 35 29 24
29 23 27 30 25 31 31 29 30 27 24 28 31 31 30 29
28 27 25 23 22 21 19 17 15 14 13 14 15 15 15 14
12 12 13 14 14 14 14 12 9 8 8 10 27 42 42 41
27 18 10 9 10 5 5 22 64 90 99 100 100 103 104 105
105 106 108 108 104 101 100 99 96 85 62 4 10 6 8 13
17 26 32 34 36 37 37 36 37 36 36 36 36 36 36 36
35 35 35 35 34 35 35 34 35 34 34 34 34 33 34 31
41 49 10 0 0 0 0 0 0 4 50 49 33 34 28 19
29 23 28 28 25 29 31 28 30 23 27 27 32 32 32 33
33 34 30 28 31 31 30 28 29 30 27 27 25 23 22 20
18 17 15 14 13 12 13 12 11 11 13 13 26 42 41 35
15 8 3 7 5 9 18 59 99 97 103 104 107 111 111 110
112 113 112 111 109 106 101 100 101 99 92 47 3 7 7 11
20 25 29 32 34 35 36 36 36 36 36 35 35 36 36 35
35 35 35 35 35 35 35 34 34 35 34 34 34 34 34 30
40 52 16 0 0 0 0 0 0 0 44 52 34 34 28 19
30 28 28 28 27 28 30 28 29 26 31 28 32 33 33 33
34 33 29 29 33 31 27 33 34 33 28 33 29 29 29 31
33 31 31 28 28 26 24 22 21 16 15 15 27 41 39 27
13 9 5 12 9 7 30 87 103 102 102 108 110 108 111 112
114 114 111 108 110 110 106 100 99 101 99 92 24 1 4 9
15 26 25 31 31 31 34 34 36 37 36 36 36 36 37 36
36 35 35 35 35 34 35 35 34 34 34 34 34 34 34 31
36 52 22 0 0 0 0 0 0 0 34 52 35 33 27 17
30 30 30 31 31 31 32 31 32 32 33 30 33 33 32 33
34 34 32 31 30 33 30 34 34 30 29 33 32 31 35 33
34 32 33 29 34 36 35 34 32 20 13 16 28 39 32 17
14 9 16 17 9 7 56 101 97 88 80 78 76 84 96 102
106 107 104 103 88 81 74 67 79 85 97 100 83 11 2 5
15 16 21 29 28 30 32 35 36 36 36 36 36 36 37 38
38 41 41 39 38 37 36 36 35 35 34 34 34 34 34 30
31 53 30 0 0 0 0 0 0 0 28 55 36 33 27 18
30 30 30 31 31 31 32 32 32 32 32 32 32 32 33 33
34 32 30 29 31 34 32 34 33 30 31 32 32 33 35 33
32 32 33 31 34 36 36 36 34 23 13 15 28 35 19 12
8 15 17 12 6 24 83 74 69 52 48 54 75 84 93 101
101 101 102 97 78 66 52 37 36 52 55 75 100 68 1 0
8 20 17 22 24 25 30 35 36 37 37 37 36 35 36 42
42 44 45 46 46 44 41 38 37 34 34 34 34 34 34 29
29 53 38 0 12 9 2 0 0 0 22 55 39 32 28 18
29 29 30 30 30 30 31 31 31 30 30 32 32 33 32 33
33 33 34 33 34 34 34 34 34 34 33 33 35 35 36 34
30 33 35 32 30 34 36 36 35 23 16 15 28 26 13 10
7 18 12 9 8 50 56 49 39 45 60 80 83 93 104 100
104 98 101 105 97 83 77 69 56 45 44 51 70 98 32 0
3 21 14 15 22 17 21 28 36 35 35 36 35 35 36 43
41 44 45 46 46 46 43 39 38 34 35 35 34 34 33 28
25 47 43 5 24 24 12 3 7 6 31 51 39 31 26 17
30 30 31 31 31 31 31 32 32 32 32 32 33 33 33 33
34 32 30 31 32 32 33 33 34 35 35 35 36 35 36 36
35 36 35 33 32 35 36 36 34 22 17 16 26 14 14 9
3 10 7 8 26 54 56 70 93 100 99 104 111 112 105 106
117 113 98 109 109 105 105 100 106 107 85 59 58 75 81 6
2 16 18 15 22 17 15 21 30 36 35 36 35 35 37 45
43 42 41 41 43 43 41 37 35 22 23 25 28 30 31 27
23 39 41 24 29 28 25 20 21 19 30 47 38 29 26 17
30 30 30 31 31 32 32 31 31 31 32 32 33 33 33 33
34 33 34 34 33 33 33 32 33 33 33 33 34 34 35 36
36 36 36 36 36 35 36 36 34 21 15 15 18 13 9 5
4 8 24 13 51 79 97 107 106 96 89 95 110 113 106 118
119 120 111 105 111 105 89 75 90 105 111 103 76 59 85 44
2 6 14 10 18 14 17 17 26 35 36 35 36 36 38 45
41 42 42 42 43 43 42 41 34 13 15 16 17 17 18 19
18 26 29 30 30 31 33 33 35 32 29 36 32 29 26 17
30 31 31 31 31 32 32 31 32 32 32 32 33 33 33 33
33 34 34 34 34 34 35 35 35 35 35 35 35 35 35 34
35 35 35 35 35 35 37 36 35 22 15 15 19 11 8 8
6 12 11 36 83 105 113 107 76 67 57 71 105 109 113 121
121 127 119 107 106 97 63 46 54 61 92 111 111 91 67 83
9 1 10 8 14 16 18 20 23 33 36 36 36 36 39 47
44 45 44 44 44 42 42 45 33 15 17 18 17 18 17 17
18 18 18 17 16 15 15 14 16 17 18 20 23 29 26 17
30 31 31 31 31 31 32 32 32 32 32 33 33 33 34 34
33 34 35 34 34 34 35 35 35 35 36 36 36 36 36 36
36 36 36 36 35 36 36 36 35 23 19 19 19 9 10 19
10 11 27 69 109 113 94 70 39 29 27 39 68 106 111 117
115 122 114 113 96 59 32 21 23 37 65 95 114 110 78 89
43 6 4 6 10 13 18 19 20 29 37 36 36 36 39 48
45 44 44 45 45 45 46 46 33 18 17 16 13 15 16 16
17 18 19 19 20 20 20 23 19 14 14 14 16 19 19 15
31 31 32 32 32 32 32 32 33 33 34 33 34 34 35 34
35 35 35 35 35 36 36 36 36 36 36 36 36 36 37 36
37 37 37 37 37 37 37 37 35 23 19 21 16 11 15 12
9 19 61 92 117 110 67 33 11 11 31 45 71 109 60 65
111 107 34 92 107 67 39 23 6 5 29 72 102 112 101 80
81 9 6 8 9 14 19 16 14 22 38 37 37 37 40 49
49 47 43 44 44 44 44 45 34 21 18 18 11 24 23 19
19 22 29 29 29 29 33 39 31 18 19 18 18 18 18 13
32 31 32 33 32 32 33 33 33 33 34 34 34 34 34 34
35 35 35 35 35 36 36 36 36 36 37 37 37 37 38 38
37 37 37 37 37 37 37 37 35 21 18 18 22 21 14 7
8 45 83 111 116 88 46 29 30 28 41 59 98 93 13 48
112 108 24 35 113 95 52 38 31 36 38 42 90 107 118 86
94 25 9 7 9 12 19 16 9 19 39 38 38 38 41 50
48 46 43 44 43 43 42 43 36 22 19 18 12 26 31 35
41 40 40 34 34 37 41 44 39 26 28 23 21 19 18 13
27 30 26 31 31 30 32 33 33 32 33 34 33 34 35 35
36 36 36 36 36 36 37 37 37 37 37 37 38 38 38 39
39 38 38 38 38 38 38 38 36 23 18 21 24 24 17 6
19 78 87 120 114 72 55 83 90 75 77 100 112 66 8 91
113 116 72 10 104 113 100 76 72 88 86 61 60 104 116 99
93 47 7 12 10 7 19 14 16 28 38 38 38 38 41 50
48 47 46 46 46 45 45 47 37 23 20 19 10 24 27 35
49 48 47 40 38 43 45 43 42 26 29 34 38 36 32 27
28 24 24 32 28 29 33 31 31 28 32 31 30 31 32 34
35 35 35 37 36 37 37 37 37 37 37 38 37 38 38 38
38 38 38 38 38 38 38 37 36 23 20 19 16 13 15 9
29 96 101 121 110 92 104 109 98 91 102 105 118 63 35 108
115 116 104 26 87 121 103 102 98 96 104 105 90 101 114 111
93 64 6 10 12 8 17 15 15 30 38 38 38 38 41 50
47 46 45 46 47 47 48 48 38 22 19 19 11 21 21 27
48 48 46 42 34 26 17 12 38 22 19 28 20 10 12 13
30 26 26 30 29 29 32 30 31 29 30 31 31 30 32 34
35 35 35 36 36 36 37 37 37 37 37 38 38 38 38 38
38 38 38 38 37 38 38 37 35 21 17 14 4 11 17 15
41 101 110 117 105 99 102 101 101 103 104 104 113 102 96 98
105 108 104 100 108 115 101 101 102 101 100 99 95 97 110 115
99 74 9 4 15 20 19 20 20 30 37 37 38 37 40 49
45 44 43 45 47 48 49 48 38 23 18 18 10 16 6 8
30 20 12 8 4 1 1 2 32 29 18 27 14 0 0 0
33 32 33 32 33 33 33 33 32 33 31 33 33 33 35 35
36 36 36 36 37 36 37 37 37 37 38 37 38 38 38 37
38 38 38 37 38 38 38 38 36 21 16 11 5 15 11 13
56 104 115 110 101 100 100 102 103 104 103 99 101 103 92 103
102 101 103 95 104 103 101 103 105 105 103 103 102 99 102 112
102 87 12 5 13 19 21 18 19 29 38 38 38 37 40 50
45 43 43 44 46 47 48 48 38 23 17 17 10 14 3 1
18 7 1 2 2 4 3 3 21 37 19 24 15 0 0 9
32 33 33 33 34 33 33 34 34 34 34 34 35 35 35 35
35 35 35 36 37 36 36 37 37 37 37 37 37 38 38 37
38 38 38 38 38 38 38 38 34 23 18 8 3 18 12 13
66 105 112 101 103 104 106 108 108 102 99 96 91 92 101 106
104 105 107 99 92 94 99 102 108 112 111 106 106 105 102 104
104 94 20 4 14 13 13 14 14 26 37 37 37 37 39 49
45 44 44 44 46 45 46 47 38 23 16 16 11 13 2 1
11 14 3 3 4 12 14 4 7 39 18 22 16 0 0 4
32 32 33 33 33 33 34 33 34 34 34 34 35 35 35 35
35 36 36 36 36 37 37 37 37 37 37 36 38 38 37 37
38 38 38 38 38 37 38 38 36 23 20 9 11 18 16 15
69 102 101 101 106 109 110 112 108 100 100 95 96 105 107 105
102 104 108 108 105 96 100 105 108 114 113 111 108 109 108 102
99 96 28 4 9 15 17 6 17 29 38 38 38 37 39 49
45 45 45 45 46 45 46 47 39 23 17 16 14 10 1 0
5 20 5 0 4 7 8 4 2 38 19 17 17 0 0 4
33 33 33 32 33 33 34 33 34 34 34 35 35 35 35 35
35 36 36 36 36 36 36 36 36 37 37 37 37 38 37 38
38 38 37 38 38 38 37 38 36 21 19 10 11 13 17 13
71 95 100 107 109 113 113 110 103 103 100 100 109 106 105 103
99 100 101 104 110 108 99 101 106 108 112 113 111 110 110 106
98 94 39 8 9 13 17 9 14 31 37 37 38 37 38 49
45 44 46 46 46 46 47 48 40 24 17 16 21 26 18 2
1 25 13 1 1 0 0 0 0 31 20 16 20 0 0 5
33 33 33 33 33 33 33 33 34 34 34 35 35 35 35 35
36 36 36 36 36 37 36 37 37 37 36 37 37 37 37 37
37 37 37 38 38 38 38 38 35 19 18 9 10 11 17 17
76 94 107 109 115 117 114 111 105 102 103 109 109 99 91 87
81 84 85 88 99 113 112 104 104 108 110 114 113 114 113 108
104 94 50 11 10 15 16 11 8 27 36 37 37 37 38 49
48 46 45 45 45 45 45 46 39 24 18 16 9 6 6 0
0 20 17 4 0 0 0 0 0 25 32 31 26 0 0 5
33 32 33 32 33 33 34 34 34 33 34 34 34 35 35 35
36 36 36 36 37 37 37 36 37 37 37 37 37 37 37 37
38 38 37 37 38 37 38 37 35 16 15 8 10 20 15 26
79 100 111 115 119 118 117 110 105 103 109 111 88 83 94 101
104 101 101 94 85 89 112 110 104 107 113 115 116 115 117 113
107 97 62 14 11 10 17 13 8 24 37 40 39 37 37 49
47 46 46 46 47 47 47 47 40 24 19 18 6 0 0 0
1 13 19 7 0 0 0 0 0 14 42 39 30 0 0 0
33 33 33 33 33 33 33 33 33 34 34 34 34 35 35 35
35 36 36 36 36 37 36 36 36 36 37 37 37 37 37 38
38 38 37 37 38 38 38 38 35 15 13 8 11 15 16 26
85 106 112 116 121 120 118 111 109 110 110 77 75 107 111 104
105 103 105 107 103 82 74 113 110 115 118 118 119 115 117 114
109 102 75 18 11 12 17 15 9 30 40 43 42 37 36 48
47 46 44 44 43 46 48 49 41 25 18 18 9 1 2 7
9 8 22 7 0 0 0 0 0 4 42 42 33 0 0 0
33 32 33 33 34 33 33 33 34 34 34 35 35 35 35 35
35 35 36 36 37 36 36 36 36 37 37 37 38 37 37 38
37 37 38 37 38 38 38 37 35 17 13 13 12 7 18 32
93 108 113 119 122 122 118 114 114 107 92 69 107 111 106 96
85 80 91 105 110 106 67 86 107 119 119 120 120 119 119 114
110 103 89 21 16 9 13 19 14 32 42 43 43 38 37 48
46 45 46 45 45 45 46 48 42 26 19 18 11 4 9 12
5 2 20 0 0 0 0 0 0 0 38 43 36 0 0 0
32 32 31 32 32 31 33 34 33 33 34 35 35 34 35 35
36 36 36 36 36 36 35 37 37 37 38 37 37 37 38 38
37 38 37 37 38 38 38 38 35 19 13 12 9 2 13 34
99 111 115 119 121 120 118 118 105 85 79 104 112 108 106 101
101 101 103 105 112 114 106 71 78 108 124 123 121 121 118 117
113 105 95 27 14 13 7 21 17 33 44 46 44 38 36 48
47 45 45 46 46 46 48 48 44 27 19 16 10 0 7 12
8 0 16 3 0 0 2 9 19 32 45 43 39 3 0 0
29 31 29 27 30 30 32 34 31 30 29 32 32 30 29 32
33 35 35 33 33 33 34 34 34 35 37 37 36 34 36 36
37 37 37 38 37 38 37 37 35 20 13 9 8 1 14 39
102 112 117 119 122 119 120 117 96 75 104 113 113 115 114 111
109 107 109 115 116 115 114 105 62 96 121 124 121 121 119 116
114 106 97 37 10 12 8 18 20 35 43 45 45 38 35 47
46 45 44 45 46 48 49 50 45 27 18 16 9 0 1 3
5 0 10 22 21 26 30 36 47 48 49 43 37 33 28 17
32 32 31 31 32 32 33 33 32 32 33 33 33 33 33 34
32 35 35 34 34 33 35 33 34 33 36 37 35 34 36 35
36 37 38 38 38 39 38 37 35 22 17 10 7 1 15 39
103 113 116 119 121 120 121 118 105 109 115 112 115 115 114 106
110 109 106 113 117 117 115 114 108 107 120 125 122 121 118 118
113 107 98 46 9 9 7 14 21 32 42 42 45 39 35 46
47 45 45 45 46 48 49 51 47 28 19 19 9 0 0 0
2 4 3 39 41 38 39 43 48 48 47 42 29 35 35 37
32 32 33 33 33 33 33 33 34 34 34 34 35 34 35 35
35 35 36 36 37 36 36 36 36 36 37 37 37 37 37 37
37 38 37 37 38 38 38 38 35 22 19 8 6 1 15 40
104 114 118 121 122 120 121 118 113 115 114 111 113 112 107 106
112 112 109 108 112 118 118 116 116 116 120 122 123 121 120 119
113 107 97 50 9 2 4 10 21 32 43 41 44 40 35 46
46 44 45 46 47 49 50 51 48 31 23 27 21 8 5 10
21 15 6 34 50 47 45 43 39 30 19 20 4 9 14 24
30 30 31 31 31 31 33 34 33 34 34 34 35 35 35 35
35 35 36 36 36 36 36 37 37 36 37 37 37 37 38 38
37 37 37 38 38 38 38 37 35 23 21 6 5 4 16 52
104 112 119 122 121 121 122 116 116 117 113 112 115 111 104 109
114 111 109 107 108 113 116 118 118 121 120 122 122 122 122 119
112 110 98 61 21 2 7 7 15 35 46 45 45 40 35 46
46 44 45 46 47 50 52 54 51 32 29 35 30 18 23 25
32 29 29 30 36 32 30 26 21 16 10 18 0 0 0 3
29 28 29 29 29 30 30 30 32 33 34 34 35 34 35 35
35 35 35 35 36 37 37 37 37 37 36 37 37 37 37 38
37 37 37 37 38 38 37 37 34 22 21 10 4 6 35 57
106 112 117 121 121 120 119 115 118 116 112 115 114 106 105 113
117 114 114 112 108 112 116 117 121 121 118 117 122 123 120 117
114 110 99 76 69 28 4 9 15 39 45 45 45 40 35 45
47 44 45 46 47 48 51 54 51 33 30 33 35 25 28 24
26 26 25 19 16 21 27 28 28 29 28 27 0 0 0 0
32 31 32 32 32 32 31 31 33 34 34 34 34 34 35 35
35 35 36 35 35 36 36 36 36 36 37 37 37 36 37 37
37 37 37 38 38 37 38 37 35 22 20 12 6 33 78 76
105 114 118 119 121 120 120 116 118 113 114 116 109 106 111 117
119 117 117 114 111 110 115 117 117 119 118 120 122 122 119 118
112 109 100 86 109 89 16 4 18 41 44 45 45 40 34 44
47 44 44 46 48 49 53 54 50 29 24 32 37 28 25 21
17 17 11 1 3 2 3 3 4 19 38 33 2 1 0 0
32 32 33 33 32 33 33 33 33 33 34 34 34 34 35 35
35 35 35 36 36 36 36 36 36 36 36 37 36 37 36 37
37 38 37 38 38 38 38 37 35 23 21 16 5 56 85 99
105 113 116 120 119 121 120 119 118 113 114 112 110 112 117 117
116 117 115 115 114 110 113 118 118 118 119 120 121 123 121 118
114 109 102 92 115 67 35 3 18 38 42 44 44 40 34 44
46 43 44 44 45 48 53 53 45 8 4 9 13 14 13 30
26 26 17 0 0 0 0 10 1 14 41 36 19 24 8 0
32 32 32 33 33 33 34 33 33 33 34 34 34 34 35 35
35 36 35 36 36 36 36 36 37 36 37 36 37 37 38 38
38 38 37 38 38 38 38 38 35 23 19 19 7 63 96 101
105 112 117 119 119 121 119 121 120 118 114 111 115 117 117 117
117 118 115 117 121 115 113 118 118 118 116 120 120 121 118 117
113 109 103 96 108 67 41 6 17 36 42 44 45 40 35 43
47 45 44 43 45 48 51 51 31 0 0 0 0 0 3 35
12 13 20 0 0 0 1 21 4 12 42 40 22 17 11 1
32 32 32 32 32 33 33 33 33 33 34 34 34 34 35 35
35 35 36 36 36 36 35 36 36 37 36 37 37 37 37 37
38 37 38 38 38 38 39 38 35 21 16 18 11 69 98 103
105 113 116 116 118 121 119 120 120 120 113 113 118 118 119 111
109 114 118 119 121 120 114 116 122 120 117 115 121 121 116 113
112 110 102 100 115 70 49 9 23 36 42 44 45 40 34 43
47 44 43 42 44 45 46 47 16 0 0 0 0 0 2 34
11 9 17 0 0 0 1 16 6 11 43 39 6 2 3 5
32 32 32 33 33 33 33 33 33 33 33 34 34 35 34 35
35 35 35 35 36 36 36 36 36 36 37 37 37 37 37 37
38 38 37 38 38 38 38 37 34 21 17 20 18 65 110 105
106 114 115 118 116 118 119 121 121 120 120 124 121 121 118 110
106 110 114 117 121 124 120 119 121 121 119 119 119 120 114 115
112 110 103 102 114 75 40 15 26 37 42 44 44 40 35 43
47 47 45 42 42 43 44 41 7 0 0 0 0 0 0 32
11 6 14 0 0 0 0 11 16 13 43 37 2 6 1 1
32 32 32 32 32 33 33 33 34 33 34 34 34 35 35 35
35 35 35 35 36 36 36 36 36 36 37 37 37 37 37 38
37 37 38 38 38 38 38 38 34 20 19 21 24 60 116 105
104 111 112 117 119 118 120 119 119 117 119 120 116 114 110 103
102 103 107 115 116 119 119 120 122 122 122 120 119 117 115 114
111 109 102 105 113 96 33 11 32 39 44 44 44 40 35 42
44 43 43 43 42 42 43 34 3 0 0 0 0 0 0 30
19 17 22 0 0 0 1 7 19 13 42 37 2 1 0 0
32 32 32 32 33 33 33 33 34 34 34 34 34 34 35 35
35 35 35 35 36 35 36 36 36 36 37 37 37 37 37 37
37 38 38 38 38 38 38 37 34 20 20 21 33 80 116 112
101 106 110 114 116 113 120 117 112 111 111 111 111 104 102 99
96 96 98 103 107 113 120 118 119 119 120 121 118 116 115 113
113 111 102 108 107 109 27 13 39 40 45 45 44 40 36 42
43 42 41 41 40 40 40 30 2 0 0 0 0 0 0 29
30 31 27 0 0 1 3 1 4 7 41 37 2 0 0 0
32 32 32 33 33 33 34 34 34 33 34 34 35 34 35 35
35 35 35 35 35 36 36 36 36 36 37 36 37 37 37 37
38 37 37 37 38 38 38 37 34 20 21 20 57 120 124 116
98 104 108 111 113 113 115 112 107 103 103 98 94 96 92 86
87 87 87 92 99 101 107 111 111 115 116 116 114 116 115 114
112 109 98 104 120 113 30 19 41 40 45 45 45 41 36 43
45 43 43 42 41 42 40 28 1 0 0 0 0 0 0 26
39 37 29 0 0 3 16 0 0 6 44 41 23 19 14 10
32 33 32 32 33 34 33 33 33 34 34 33 34 34 34 35
35 35 35 35 36 36 36 36 36 37 37 37 37 37 37 37
37 37 37 37 37 37 37 37 34 20 20 19 53 117 121 109
93 101 106 109 111 111 109 106 102 97 92 82 83 83 76 74
69 72 76 81 88 86 92 97 104 107 114 114 114 114 113 112
109 105 96 95 118 115 59 22 37 37 43 42 43 40 37 45
44 41 41 41 39 40 38 30 9 0 0 0 0 0 0 21
42 43 32 2 0 6 19 0 0 6 45 36 39 45 40 35
32 32 32 33 33 33 33 33 33 33 34 34 34 34 35 35
35 35 35 36 35 35 36 36 36 36 37 37 37 37 37 37
37 37 37 37 38 37 37 37 34 21 20 19 41 100 117 105
86 100 104 104 105 105 102 98 95 89 84 71 68 67 64 61
56 60 62 67 65 70 77 88 95 100 104 108 111 110 109 108
106 105 85 72 118 118 61 31 41 39 45 45 45 42 37 47
45 42 40 38 37 36 35 37 27 3 0 0 0 0 0 18
40 41 40 29 2 6 16 0 0 5 34 28 39 47 43 41
33 33 33 34 33 34 34 34 34 34 33 34 34 34 35 35
35 35 36 35 35 36 36 36 36 36 36 37 37 37 37 37
37 37 37 37 37 38 38 38 34 21 21 20 38 85 115 96
62 99 101 96 97 95 92 85 84 80 73 63 61 60 61 61
59 57 59 60 57 60 68 80 87 93 100 101 105 106 106 107
105 96 61 41 109 118 98 42 41 44 47 48 48 45 38 47
47 43 42 40 40 38 38 37 24 12 0 2 2 1 0 18
43 40 26 29 15 12 16 5 1 3 19 29 39 40 42 38
32 32 33 33 34 34 34 33 34 34 34 34 34 35 35 35
35 35 35 35 35 36 36 36 36 36 37 37 37 37 37 36
37 37 37 37 38 38 37 37 34 23 21 20 36 68 107 78
30 90 97 92 84 80 77 72 73 73 69 62 57 61 63 67
65 60 57 60 63 63 68 72 76 87 91 96 100 101 101 102
100 91 40 7 73 105 89 42 36 41 45 46 47 45 37 45
45 42 42 41 41 40 42 42 31 16 3 16 18 6 3 27
39 10 0 14 39 33 34 36 32 9 6 12 15 16 17 21
32 33 33 33 33 33 34 34 34 34 34 34 34 34 34 35
35 35 35 35 36 36 36 36 37 37 37 37 37 37 37 36
37 36 37 37 37 37 37 37 34 24 21 20 36 45 66 37
14 73 93 87 79 70 63 66 67 72 69 61 57 60 67 69
70 68 63 63 62 61 67 71 74 82 86 91 90 89 92 98
97 84 30 0 7 29 38 41 35 41 45 45 46 44 37 46
47 44 42 39 38 37 39 47 49 44 41 42 41 38 36 33
14 2 2 4 37 14 12 15 16 2 0 0 0 0 0 3
32 33 33 34 33 33 34 33 33 34 34 34 34 34 34 35
36 36 36 36 36 36 36 36 36 37 36 37 37 37 37 37
37 37 37 38 38 38 38 38 34 24 20 21 37 40 15 4
34 90 79 79 76 71 70 73 75 78 75 66 60 63 70 70
75 73 68 67 69 69 69 77 82 86 85 82 79 83 86 88
86 91 61 2 6 17 42 42 37 43 45 45 45 44 37 46
49 47 45 41 39 38 38 48 54 53 51 51 51 46 28 7
1 20 19 3 28 12 0 0 1 0 0 0 0 0 0 1
33 32 33 33 33 33 34 33 34 34 34 34 34 35 35 35
35 35 35 36 36 36 36 36 36 36 37 36 36 37 37 37
37 37 38 38 38 38 38 37 35 24 19 22 37 42 27 3
32 103 82 62 71 76 78 82 81 82 79 70 60 63 69 73
77 74 74 68 72 74 75 80 87 90 91 88 88 87 81 76
85 101 64 4 13 30 44 42 35 43 44 45 46 44 37 46
50 47 46 42 39 38 39 47 56 54 54 53 43 35 19 0
0 19 20 10 20 27 2 0 5 0 0 0 0 0 0 0
33 32 33 33 34 33 33 33 33 34 34 34 34 34 34 35
35 35 35 35 36 35 36 36 36 36 36 36 36 37 37 37
37 36 37 38 38 37 38 37 35 23 20 22 36 41 32 9
11 93 99 73 66 80 87 86 86 85 81 71 67 64 67 74
82 80 80 76 79 78 82 85 93 99 98 100 100 94 84 87
101 103 47 5 14 34 43 42 35 41 45 45 46 43 36 46
49 45 46 43 40 38 39 40 40 46 53 45 30 27 30 2
0 5 23 22 26 37 9 0 5 0 0 0 0 0 0 0
33 33 33 33 33 33 34 33 33 34 34 33 34 34 34 35
35 35 35 35 36 36 35 36 36 36 36 36 36 36 37 37
37 37 37 38 37 37 37 37 34 22 20 21 35 42 38 16
2 70 100 92 79 80 88 91 88 86 84 80 73 67 69 79
84 84 81 80 83 85 87 94 100 103 107 107 106 99 97 103
106 104 32 5 17 42 42 42 38 42 44 45 46 43 36 45
50 46 45 43 41 37 37 34 30 34 49 41 18 17 31 10
0 8 22 20 24 38 13 0 9 1 4 6 0 0 0 0
33 33 33 33 34 33 33 33 34 34 34 34 34 35 34 34
34 35 35 35 35 35 35 35 36 35 36 36 36 36 36 36
36 36 37 37 37 37 38 37 34 22 20 20 34 42 41 23
2 42 97 99 88 84 87 93 91 89 87 85 80 74 73 80
87 87 87 82 86 90 96 99 102 106 108 111 106 102 106 108
110 104 21 5 30 44 42 38 40 44 44 44 44 43 35 45
50 47 46 43 41 38 38 35 31 26 44 39 9 15 27 19
5 12 13 8 14 30 22 0 11 3 11 9 0 1 0 0
33 33 32 32 33 32 33 33 33 33 34 34 34 34 34 34
35 34 35 35 35 35 35 35 35 36 36 35 36 35 36 36
36 36 37 36 37 37 38 37 34 22 20 19 34 41 40 35
6 15 91 103 96 89 88 92 93 92 92 91 86 81 80 87
92 93 92 91 92 95 100 104 103 108 110 112 109 107 105 109
111 102 14 5 36 44 41 33 39 42 44 44 44 42 34 44
49 44 45 42 41 40 40 39 35 24 38 42 20 23 22 25
27 22 9 6 8 25 33 2 15 4 10 11 0 0 0 0
33 33 32 32 33 32 32 32 32 33 33 33 33 33 33 33
34 34 34 34 34 34 34 35 35 36 35 36 36 35 35 36
36 36 36 36 36 36 37 36 33 21 19 18 33 41 41 38
19 1 70 102 100 94 90 92 95 96 95 95 94 92 90 90
100 103 97 97 99 100 104 106 108 109 109 108 110 109 107 111
112 102 14 0 22 43 40 34 37 38 41 44 45 42 34 41
48 46 45 43 42 39 40 39 36 25 28 45 29 21 24 26
23 21 20 18 25 24 35 9 15 3 8 11 0 0 0 0
33 33 33 32 33 32 32 32 33 33 33 33 33 33 34 34
34 34 33 34 34 34 34 34 34 35 35 35 35 35 35 35
36 36 36 36 36 37 36 36 33 20 18 18 34 42 40 40
29 2 46 102 102 99 97 96 98 99 102 101 102 98 97 99
106 109 107 105 105 104 105 110 108 109 110 109 111 113 111 113
113 103 16 0 20 40 40 33 40 42 43 44 44 42 34 40
47 43 44 45 43 40 39 39 36 28 21 43 37 32 29 33
14 18 33 40 41 37 39 21 17 3 6 9 0 0 0 0
33 34 34 33 33 32 32 32 33 33 33 33 33 33 34 34
34 33 34 34 34 35 34 34 35 35 35 35 35 35 35 35
36 36 36 36 36 36 36 36 33 20 20 17 34 41 41 40
21 11 33 103 104 104 103 101 103 99 105 108 108 105 103 105
112 116 112 110 109 108 109 110 111 112 111 113 115 114 113 113
111 105 21 0 15 33 39 35 39 42 43 44 43 42 33 39
46 43 43 42 40 39 39 38 37 30 18 36 39 34 28 25
2 31 39 41 43 40 36 17 21 10 11 12 13 16 20 25
33 33 33 32 32 32 33 32 33 32 33 33 33 33 34 33
33 34 34 34 34 34 34 34 34 35 35 35 35 35 35 36
36 36 36 36 36 36 36 36 32 19 19 18 34 41 40 38
16 7 22 103 107 108 106 107 107 106 108 111 113 108 108 109
116 119 117 115 114 111 112 109 113 115 114 116 116 115 114 112
111 106 28 0 11 32 37 36 38 42 43 43 42 41 32 37
43 40 40 40 41 42 42 40 38 31 18 26 40 32 25 29
19 40 43 42 39 29 10 0 26 45 46 47 48 50 51 52
33 33 33 32 32 32 33 31 32 32 32 33 33 32 33 33
33 33 34 34 34 34 34 34 35 34 34 35 35 35 35 35
36 35 36 35 36 36 36 36 32 20 17 17 33 40 40 34
16 0 14 102 110 109 109 109 111 109 110 113 115 111 111 112
118 123 123 119 118 116 114 115 114 115 115 118 117 115 115 114
111 107 43 0 19 41 36 37 40 42 42 43 43 41 32 36
41 39 38 38 39 41 41 38 38 31 19 17 40 33 33 35
38 42 42 39 29 12 6 5 27 52 51 52 53 54 54 53
34 33 33 33 32 32 32 32 32 32 33 33 33 33 33 34
34 33 34 34 35 34 35 34 34 35 35 34 35 35 35 35
36 36 36 36 36 36 36 36 33 21 16 16 33 41 40 25
10 2 12 101 110 109 109 109 112 112 112 116 116 113 113 116
120 124 125 124 122 119 118 117 118 117 115 119 116 116 116 115
112 107 55 0 26 37 34 38 38 42 42 42 42 40 32 38
39 36 37 39 39 40 41 41 39 33 20 12 34 36 33 39
42 41 39 31 29 34 32 29 34 49 46 44 41 37 33 18
35 34 33 33 32 32 33 32 32 32 33 33 33 33 34 33
34 34 34 34 34 35 35 34 35 34 35 35 35 35 35 35
36 36 36 36 36 37 36 36 32 21 16 17 33 41 41 32
4 0 12 101 111 110 109 114 113 112 115 115 116 116 117 120
124 128 129 127 121 118 117 118 120 118 117 119 118 118 116 115
112 110 71 18 38 37 35 37 39 43 42 41 40 38 32 40
40 36 37 39 37 38 39 41 43 35 22 11 24 41 39 39
35 31 28 27 29 29 28 27 28 29 27 26 25 23 22 15
36 34 33 33 33 33 32 33 33 33 33 33 33 33 33 34
34 34 34 34 34 34 34 34 35 34 35 35 35 36 36 36
36 35 37 39 37 37 36 36 33 21 17 17 34 41 41 39
21 1 10 100 110 111 111 114 115 115 116 117 118 118 117 120
128 132 133 128 124 121 113 119 121 121 117 119 119 119 116 114
111 109 85 34 44 41 36 40 42 43 42 43 44 42 32 42
45 39 39 39 38 40 42 42 43 35 20 11 16 40 31 28
27 26 26 26 27 26 26 26 26 25 25 25 24 23 22 22
37 36 34 33 33 33 33 32 33 33 33 33 33 34 34 34
34 34 34 34 35 34 34 35 34 34 34 35 35 35 35 35
34 27 31 36 36 36 37 37 33 21 17 17 33 41 41 39
29 11 12 101 111 111 111 114 117 116 116 116 118 117 117 122
129 131 132 130 123 120 116 121 122 121 121 118 118 118 118 115
113 111 96 38 43 40 38 41 43 48 52 54 53 48 37 44
48 45 45 44 45 46 46 46 45 37 21 11 12 31 25 26
26 26 26 25 23 22 22 22 21 21 21 21 21 21 19 20
39 36 34 34 33 33 33 33 33 33 33 32 33 34 34 33
34 34 34 34 35 34 34 35 34 34 35 35 35 35 34 35
35 31 37 44 45 44 44 44 42 36 34 33 41 45 45 42
23 8 14 101 109 110 113 117 117 114 116 116 117 118 119 123
131 137 137 131 126 119 118 120 122 123 122 120 120 119 118 114
115 111 100 44 46 46 46 45 47 63 66 65 65 63 52 44
44 43 42 42 42 40 43 46 46 38 20 11 10 13 24 26
26 27 27 14 1 1 1 1 1 1 1 1 1 1 1 1
40 37 35 34 34 33 33 33 33 33 32 33 33 33 33 33
33 34 34 34 34 34 34 34 34 34 35 35 35 35 35 27
26 24 40 48 48 48 48 48 47 48 47 47 47 47 47 46
35 4 12 101 110 111 115 116 118 117 116 117 117 119 120 122
129 132 136 131 125 120 120 121 121 123 123 121 120 119 116 110
113 111 103 49 45 45 45 44 45 62 67 64 64 64 61 44
43 42 42 40 38 36 39 44 45 37 19 11 10 3 21 29
24 26 27 12 0 0 0 0 0 0 0 0 0 0 0 0
41 37 35 34 34 33 33 33 33 33 33 33 33 33 34 33
34 33 33 34 33 33 32 30 33 34 35 35 35 35 33 21
19 22 40 49 49 49 49 48 48 48 48 48 48 48 48 48
47 31 20 101 109 112 113 116 119 116 115 115 117 119 120 120
126 137 138 133 122 121 121 120 123 122 122 121 120 117 117 114
116 112 104 41 29 30 30 31 31 38 42 37 37 41 46 31
30 29 28 27 30 35 36 41 45 37 19 12 12 4 20 25
20 25 26 13 0 0 0 0 0 0 0 0 0 0 0 0
40 36 34 33 32 32 32 32 32 31 32 32 33 34 34 33
34 33 34 33 33 32 29 29 33 34 34 34 35 34 32 20
18 20 39 49 48 45 45 45 45 45 45 45 45 45 45 46
46 43 43 101 109 112 114 114 118 115 115 114 117 118 117 118
123 137 135 129 122 119 120 121 122 122 122 121 119 118 116 116
117 113 105 29 10 9 9 7 6 4 3 4 3 3 4 3
3 3 3 4 22 37 35 40 42 35 19 13 17 16 21 19
14 24 26 13 0 0 0 0 0 0 0 0 0 0 0 0
42 36 34 33 32 31 31 31 31 31 31 32 33 33 34 33
34 33 34 33 32 30 29 31 32 33 33 33 34 33 30 19
18 20 38 49 37 19 19 19 20 19 19 19 19 19 19 19
20 21 33 101 109 112 114 115 118 117 113 113 115 118 118 115
120 135 137 128 121 120 118 121 121 119 120 117 118 116 116 117
117 113 105 44 12 22 21 18 13 7 2 1 1 0 1 0
0 0 0 0 16 37 33 33 32 25 15 14 19 18 20 15
16 24 27 15 0 0 0 0 0 0 0 0 0 0 0 0
42 37 34 32 31 31 30 31 30 29 30 31 33 33 33 33
33 33 33 33 29 26 26 27 28 29 30 29 30 30 26 18
18 19 37 49 36 16 17 18 20 19 19 19 18 18 18 18
18 18 28 99 110 111 113 115 116 116 113 113 114 118 118 115
117 127 131 123 119 120 121 120 121 120 121 115 116 118 116 118
117 113 105 88 11 19 31 28 22 12 7 5 4 4 3 3
2 1 1 0 9 37 32 20 13 10 9 9 15 16 20 15
19 25 26 16 0 0 0 0 0 0 0 0 0 0 0 0
44 38 36 34 32 31 30 30 29 29 30 31 34 35 34 34
34 33 33 33 29 26 26 26 26 27 27 27 28 28 23 18
17 19 37 49 38 18 24 47 52 52 52 49 47 47 46 43
39 27 13 95 110 110 112 114 114 115 114 113 114 116 117 113
112 118 122 120 118 120 118 117 122 121 119 116 117 117 113 116
117 114 105 103 73 13 28 26 19 12 7 5 5 4 4 3
3 2 2 1 4 34 32 17 9 9 8 8 14 17 20 19
21 24 26 17 0 0 0 0 0 0 0 0 0 0 0 0
45 39 37 35 32 32 31 30 30 30 30 31 35 35 34 34
34 34 35 34 30 26 26 27 27 27 27 28 28 27 21 17
17 19 36 48 39 18 28 69 78 79 80 79 78 79 75 38
17 13 6 92 109 111 112 115 114 113 114 114 115 115 116 112
108 109 113 116 118 120 121 116 120 118 120 117 115 118 118 117
117 114 104 107 101 26 26 24 25 17 8 7 6 5 5 4
4 3 2 2 0 30 32 20 8 7 8 8 12 16 20 20
21 24 26 18 0 0 0 0 0 0 0 0 0 0 0 0
45 41 38 35 33 32 31 30 29 30 30 31 35 35 34 34
34 35 34 33 30 27 27 26 27 27 27 27 27 27 21 17
17 18 34 48 40 20 29 73 85 87 87 86 81 77 44 15
5 19 10 93 107 112 113 115 115 117 116 114 115 114 114 111
109 110 114 114 117 118 119 117 118 119 119 115 114 116 119 118
117 113 106 111 105 29 25 24 22 24 19 15 9 5 5 4
4 3 3 2 0 24 33 23 8 8 7 7 10 15 20 20
21 23 26 20 0 0 0 0 0 0 0 0 0 0 0 0
45 41 38 34 32 32 31 30 30 30 29 31 35 35 34 34
34 34 35 33 29 26 26 26 26 26 27 27 27 26 20 18
18 18 34 48 40 21 30 75 88 88 85 57 34 25 16 8
12 23 13 90 107 111 114 115 116 115 116 115 115 114 114 110
109 111 114 114 118 120 118 116 116 118 116 116 114 117 119 117
116 112 106 113 92 25 25 24 20 21 25 18 19 17 9 7
7 6 6 3 0 17 34 25 9 8 7 7 10 15 19 20
21 23 26 20 0 0 0 0 0 0 0 0 0 0 0 0
46 40 37 33 32 32 30 30 29 29 30 31 34 35 34 34
34 34 34 32 29 26 26 25 25 26 26 26 27 24 18 16
17 19 33 48 40 22 29 73 83 60 31 26 22 20 13 3
20 22 14 78 106 111 113 116 114 115 117 117 115 114 114 112
111 113 113 114 118 117 115 116 117 118 119 118 118 116 118 118
116 112 107 113 52 24 25 24 21 18 24 23 18 18 26 29
32 31 31 17 0 12 34 27 9 7 7 7 10 15 20 20
21 23 26 20 0 0 0 0 0 0 0 0 0 0 0 0
47 41 37 34 32 32 31 30 30 30 30 31 34 34 34 34
34 34 34 33 29 26 26 26 26 26 26 26 27 22 16 17
18 18 32 48 42 22 27 50 32 22 18 23 24 22 14 4
22 23 16 54 107 111 114 116 114 115 118 118 116 114 114 112
110 113 114 115 116 116 114 116 118 118 115 115 118 117 118 117
116 114 108 89 22 25 24 21 21 18 24 29 21 13 16 25
27 29 31 24 1 7 33 29 12 8 8 9 10 17 19 19
20 22 26 22 0 0 0 0 0 0 0 0 0 0 0 0
46 40 37 34 32 32 32 30 30 30 30 31 33 34 34 34
34 34 34 33 29 25 25 26 26 26 26 26 27 21 17 19
18 18 32 48 43 27 24 20 17 19 15 20 24 24 14 8
21 22 20 34 106 111 115 115 117 117 117 117 115 114 114 112
113 116 114 114 115 115 114 116 117 117 115 118 119 120 119 119
117 114 107 40 22 25 24 20 19 18 23 27 23 15 13 17
22 26 29 31 27 21 34 31 16 9 9 9 9 16 19 19
21 22 26 22 1 0 0 0 0 0 0 0 0 0 0 0
45 39 36 33 33 32 31 31 30 30 30 31 33 34 33 34
34 34 34 33 28 25 25 25 25 26 26 26 26 20 17 18
18 18 31 40 29 20 18 12 14 19 19 19 21 25 17 10
18 21 19 23 96 109 112 113 117 117 118 117 116 114 112 110
111 113 113 111 115 115 113 116 117 117 114 118 121 121 120 120
118 113 84 19 20 23 23 19 17 20 24 25 24 19 17 16
21 26 28 32 32 31 31 35 35 25 12 7 9 15 19 19
20 22 26 23 1 0 0 0 0 0 0 0 0 0 0 0
43 39 35 34 33 32 32 30 30 30 29 30 32 34 35 34
34 34 34 33 28 24 25 25 25 25 26 25 25 21 17 18
19 24 28 21 17 16 16 11 15 20 19 17 17 23 20 12
16 19 18 18 59 107 113 115 116 116 117 117 116 114 110 109
110 111 113 113 112 113 115 114 116 116 116 118 122 121 121 120
118 108 40 19 19 21 20 17 18 23 23 24 23 23 21 21
25 29 30 34 35 34 36 35 33 35 36 27 19 15 19 20
20 22 26 23 2 0 0 0 0 0 0 0 0 0 0 0
42 38 34 35 36 32 31 30 30 30 29 30 32 34 34 34
34 34 35 34 29 24 24 25 25 25 25 25 25 22 18 25
28 22 20 17 9 16 14 12 16 18 19 15 16 19 21 15
12 18 19 18 23 79 109 113 116 115 116 117 115 113 113 110
109 110 111 111 114 114 113 113 115 117 119 122 124 123 122 119
113 61 21 16 19 21 19 17 22 22 21 24 27 27 25 26
27 30 31 33 34 35 36 34 33 30 31 29 29 29 22 19
20 21 25 24 2 0 0 0 0 0 0 0 0 0 0 0
40 35 27 34 39 32 31 29 29 29 30 30 32 34 34 34
34 34 34 34 28 24 25 25 25 24 24 24 25 23 22 23
25 21 18 17 14 6 13 13 15 17 16 15 16 16 21 17
11 15 18 16 16 27 85 111 113 114 114 115 114 113 111 112
109 110 111 112 113 115 115 113 117 118 122 125 124 121 120 99
51 21 18 17 19 17 16 19 23 20 21 27 29 30 29 29
30 32 31 31 32 33 31 31 28 26 26 27 30 31 32 27
20 21 25 24 3 0 0 0 0 0 0 0 0 0 0 0
39 34 25 34 40 32 31 30 30 29 29 30 32 33 34 34
34 34 35 33 29 24 25 24 24 24 24 26 29 29 25 23
21 19 20 18 15 13 7 12 15 16 15 15 15 15 18 20
14 14 18 16 15 17 27 77 111 116 115 115 114 113 110 111
111 111 111 112 115 114 114 115 118 121 123 124 121 106 66 26
19 18 18 17 18 15 19 22 20 21 26 30 30 31 30 34
33 32 29 29 30 30 31 30 28 26 26 27 28 27 29 33
35 26 25 24 3 0 0 0 0 0 0 0 0 0 0 0
36 29 24 37 41 32 30 30 30 30 30 29 31 33 34 33
34 33 34 33 29 24 24 23 24 25 29 29 27 28 26 27
26 22 20 20 18 15 13 9 11 14 14 14 15 15 15 17
17 12 17 17 15 16 17 23 59 102 111 113 111 110 106 107
109 110 111 112 113 117 116 116 117 122 120 104 66 28 20 17
14 17 15 16 16 14 21 21 19 22 27 31 30 32 31 34
32 31 27 28 26 28 28 26 26 25 24 25 26 25 26 27
30 39 33 24 4 0 0 0 0 0 0 0 0 0 0 0
35 23 17 27 38 31 30 29 29 29 29 29 30 32 33 33
33 32 33 33 28 23 24 23 27 29 26 26 26 26 25 25
27 26 21 20 19 18 15 13 10 10 14 14 14 14 14 16
18 14 14 16 16 14 15 13 14 28 63 94 107 108 106 106
108 109 110 112 113 113 112 114 111 87 52 25 18 18 15 16
15 14 16 16 15 19 18 17 18 23 28 30 30 30 31 31
29 28 28 26 25 27 25 24 25 24 23 25 25 23 24 26
25 30 34 32 17 14 15 15 16 16 16 16 16 16 17 16
32 21 13 21 36 30 29 29 28 28 29 29 30 31 32 32
32 32 32 32 28 22 26 29 29 27 26 25 23 25 25 25
27 28 24 24 20 19 20 18 15 10 9 12 14 14 13 14
16 16 13 14 15 13 13 13 11 11 12 17 34 59 77 86
97 99 94 90 84 76 60 40 26 19 17 17 15 14 15 16
15 16 16 16 17 20 17 17 20 26 27 28 29 30 30 29
30 29 29 28 25 25 25 24 24 23 23 24 24 23 22 23
23 25 27 29 33 24 22 22 21 21 20 20 19 18 17 17
31 18 13 22 28 28 28 28 28 27 27 28 28 30 31 32
32 31 31 31 27 28 30 29 24 23 23 22 22 23 24 25
25 26 26 23 21 22 21 19 18 15 10 8 12 13 13 14
14 15 16 13 15 14 13 13 10 10 10 11 9 9 10 12
15 18 17 15 15 14 14 16 15 16 15 14 14 13 15 13
14 15 15 17 21 19 16 18 22 25 25 27 28 28 28 28
29 29 30 25 24 23 23 23 22 22 23 23 23 23 21 20
20 24 23 24 28 27 21 21 21 20 20 19 19 18 18 17
30 17 5 8 19 27 28 29 27 27 27 27 29 30 32 31
31 31 32 31 30 27 26 26 22 20 20 20 21 21 24 24
23 25 26 23 24 24 26 22 22 22 16 9 8 11 12 13
15 15 15 16 15 13 12 11 11 9 9 9 9 7 8 10
12 13 13 14 14 13 14 14 16 15 14 14 12 14 13 15
15 15 17 21 18 17 18 22 24 25 25 26 27 29 27 30
28 28 28 24 23 21 23 24 22 22 24 21 20 21 20 19
20 23 21 22 24 26 25 16 16 15 14 13 12 11 10 10
29 15 0 6 22 28 28 28 28 28 28 27 29 31 32 31
31 32 32 33 28 23 22 23 20 19 18 20 20 22 24 24
23 24 24 22 25 25 26 22 22 23 21 14 7 8 12 13
14 14 14 14 14 14 12 13 12 11 11 10 10 11 10 12
12 12 14 12 14 15 14 14 17 16 16 16 17 17 19 18
16 18 20 20 19 19 22 24 24 25 25 27 28 29 28 27
28 28 26 23 22 22 22 23 22 20 21 19 19 19 20 19
21 22 20 24 22 22 30 16 16 14 14 14 14 13 13 13
29 16 1 6 26 28 28 28 28 27 27 28 29 30 31 31
32 31 31 27 23 20 18 19 19 19 19 20 20 22 23 24
23 25 23 23 24 23 25 23 24 24 23 19 12 8 10 11
13 14 14 13 13 13 13 13 12 15 15 16 15 14 12 12
13 14 13 14 14 14 17 17 18 19 19 19 19 17 15 16
21 21 19 18 19 22 25 25 25 26 27 25 27 28 27 25
27 25 26 21 21 19 21 21 23 19 21 19 20 19 19 18
21 23 18 24 19 20 27 27 17 15 13 12 11 9 8 8
31 17 5 8 26 28 28 28 27 27 27 28 29 30 31 31
31 31 29 22 19 19 16 18 17 17 18 20 21 23 23 24
23 25 24 22 24 24 24 23 22 23 23 21 17 12 10 10
12 13 13 14 13 14 13 11 10 11 13 16 17 18 16 16
17 17 16 17 17 18 18 17 18 19 18 14 11 15 16 16
20 19 17 17 22 22 24 24 24 24 25 25 26 26 25 25
24 26 23 22 20 20 20 20 21 20 19 19 21 20 18 18
20 21 16 21 19 20 24 29 7 0 0 0 0 0 0 0
34 19 12 23 33 29 29 29 28 28 29 29 29 31 32 32
32 29 24 17 18 19 15 16 17 17 18 22 22 24 24 25
26 25 23 24 24 22 23 23 23 23 23 22 22 19 15 13
12 12 14 14 14 13 13 12 10 8 8 7 9 12 14 15
16 16 16 16 18 17 16 14 12 10 10 12 14 16 18 19
19 18 16 19 22 23 24 23 23 26 25 26 25 25 24 24
24 22 21 20 18 19 20 20 22 21 19 20 21 20 19 17
21 21 13 20 17 21 24 24 16 0 0 0 0 0 0 0
32 18 15 30 35 29 29 28 29 28 28 29 29 31 32 31
30 28 23 13 19 20 15 14 17 19 20 21 22 23 23 26
26 24 23 23 24 22 24 24 23 24 22 22 24 23 21 19
15 14 14 13 13 12 12 11 11 9 8 6 5 5 5 5
6 7 8 7 8 7 8 8 11 13 13 16 20 21 22 19
18 18 20 23 22 24 24 22 23 24 24 25 27 26 25 24
22 22 22 20 19 20 20 19 22 20 20 20 19 19 18 17
23 18 10 20 18 20 23 24 26 14 14 14 14 13 11 7
