P2
128 120
153
38 37 38 38 38 39 40 40 40 41 41 41 42 43 43 43
43 43 44 44 44 45 45 45 46 46 46 46 47 47 46 47
48 47 47 48 48 48 48 48 48 49 49 49 49 49 49 48
48 48 47 47 47 47 47 47 47 46 46 45 45 45 44 45
44 44 43 43 43 42 41 41 40 40 39 39 39 38 38 38
37 36 36 36 35 35 34 34 34 34 33 33 34 33 33 33
34 33 34 33 33 33 34 34 33 33 34 34 34 35 36 36
36 37 37 38 39 39 40 40 40 40 41 42 42 43 43 43
37 37 38 38 38 39 39 40 41 41 41 42 42 42 43 43
43 44 43 44 44 45 45 45 46 46 46 46 46 46 46 46
47 47 47 47 47 48 48 48 49 48 48 48 48 48 48 48
48 47 47 48 47 47 47 47 47 46 46 45 45 45 45 44
43 43 43 43 42 42 42 41 40 40 40 40 39 39 38 37
37 36 36 35 35 34 35 35 35 34 34 34 34 34 33 33
33 33 33 34 33 33 33 33 34 34 35 35 35 36 35 36
37 37 38 38 38 39 39 40 40 41 41 42 42 43 43 43
37 38 38 38 38 39 39 41 40 40 41 42 43 43 43 44
44 44 44 45 45 44 45 44 45 45 45 46 45 46 47 47
47 47 47 47 48 48 48 48 48 47 48 48 48 48 48 48
48 48 47 47 47 47 46 47 46 46 46 45 45 45 45 44
44 44 43 43 43 42 42 41 41 40 40 40 39 39 38 38
37 37 37 36 36 36 36 35 35 35 34 34 34 34 34 34
33 33 34 34 34 33 34 34 34 34 35 35 35 36 36 36
37 37 38 39 39 40 40 40 41 41 42 42 43 43 43 44
37 37 37 38 39 39 40 40 41 41 42 41 42 43 43 43
44 44 44 45 45 44 45 45 45 45 45 46 46 47 47 46
47 46 47 47 47 47 47 48 48 48 48 48 48 48 48 47
47 47 47 47 47 46 47 46 46 46 45 45 45 45 44 44
44 44 44 43 43 42 42 42 41 40 40 40 40 39 39 38
38 37 36 36 36 35 35 35 35 34 35 34 35 35 34 34
33 34 34 34 34 34 34 34 35 34 35 35 35 36 36 37
37 38 38 37 38 39 39 40 40 41 42 42 43 43 44 44
37 37 38 38 39 39 40 40 40 41 41 41 43 43 43 44
44 44 44 44 45 45 45 45 45 45 45 45 46 46 46 47
47 47 47 47 48 48 48 48 48 48 47 47 48 48 48 47
47 47 47 46 47 47 46 46 46 46 46 45 45 44 45 44
44 44 44 43 42 43 42 42 42 41 41 40 39 39 38 38
38 38 37 37 37 36 36 36 35 35 35 35 35 34 34 34
34 34 34 34 34 34 34 35 35 35 35 35 36 36 36 36
37 37 38 38 39 40 40 40 41 42 42 43 43 43 44 44
37 37 38 37 38 39 39 40 40 41 41 41 43 42 43 43
43 43 44 44 44 45 45 45 45 45 46 46 46 47 46 46
47 47 47 47 47 47 47 47 47 47 47 48 47 47 47 48
48 47 47 47 47 46 46 45 46 46 46 45 45 44 45 43
44 43 43 43 43 42 42 41 40 40 40 40 40 39 39 38
38 37 37 36 36 36 36 35 35 35 35 35 35 35 34 34
34 34 34 34 34 34 35 34 34 34 35 35 35 35 36 36
37 37 38 38 38 39 39 39 40 40 41 42 42 43 43 44
37 37 38 38 39 39 39 40 41 41 41 41 41 42 43 43
44 43 44 45 45 44 45 45 45 46 46 46 46 46 46 46
46 46 46 46 47 47 47 47 47 47 47 47 47 47 47 46
47 46 46 47 47 46 46 46 46 45 45 45 45 45 45 44
44 43 43 43 43 43 42 42 42 41 41 40 40 39 39 39
38 38 37 37 37 36 37 36 36 36 36 36 36 35 34 34
34 34 34 35 34 34 34 35 34 35 35 35 36 36 36 37
37 37 38 38 38 39 40 40 40 41 42 42 42 43 43 43
37 38 39 39 39 39 40 40 41 41 41 41 41 42 43 43
43 43 44 44 44 45 45 45 45 46 46 46 46 47 47 47
47 47 47 46 47 47 47 47 47 47 47 47 48 47 48 47
47 48 47 47 47 46 47 46 46 46 45 45 46 45 45 44
44 44 44 44 43 43 43 41 42 41 41 40 40 40 39 39
39 38 38 37 37 37 37 36 36 35 35 35 35 35 35 35
34 35 35 35 35 35 35 35 36 35 35 36 36 36 37 37
37 37 38 39 39 39 40 40 40 41 42 42 42 43 44 44
38 37 39 39 40 40 40 41 41 42 42 42 43 42 43 43
44 43 44 44 45 46 45 46 46 47 47 47 47 47 47 47
47 47 47 47 47 48 48 47 48 48 48 48 48 48 47 48
47 47 48 47 47 47 47 47 47 47 46 46 46 46 46 45
45 45 44 44 44 43 43 43 43 42 42 41 41 40 40 39
39 38 38 38 38 38 38 37 37 37 37 37 36 36 36 36
36 36 35 36 36 35 36 35 36 37 36 36 37 37 37 38
38 39 39 39 40 39 40 41 41 42 42 43 43 43 44 45
39 39 39 39 40 40 41 41 41 42 42 42 42 43 43 44
44 44 44 45 46 45 46 46 47 47 47 47 47 47 47 47
47 47 48 48 48 48 48 48 48 47 48 48 48 48 48 48
48 48 48 48 48 47 47 47 47 47 47 46 47 46 46 45
45 45 45 45 45 44 44 43 43 42 42 41 41 41 41 41
40 40 40 39 39 38 38 38 38 37 37 36 37 37 36 36
36 36 36 36 36 36 37 36 36 36 37 37 37 37 38 38
38 38 39 40 40 40 41 41 41 42 43 42 43 43 44 44
39 39 40 40 40 40 41 41 41 42 43 43 43 43 44 44
44 44 45 45 45 45 46 46 47 47 47 47 47 48 48 47
48 48 48 48 49 48 48 49 48 48 49 48 48 48 49 48
48 48 48 48 48 48 48 47 47 47 48 47 47 47 47 47
46 46 46 45 44 44 44 44 44 42 43 42 42 42 42 41
40 40 40 40 40 39 39 38 39 38 38 38 38 38 38 38
37 37 37 37 37 36 37 37 37 37 38 37 38 38 39 39
39 39 40 40 41 41 41 41 41 42 43 43 44 44 45 45
40 40 40 40 41 41 41 42 42 42 42 43 43 43 44 44
45 44 45 45 45 46 46 46 47 47 47 47 47 47 47 47
48 48 49 48 49 49 49 49 49 49 49 49 49 48 48 48
49 48 48 48 49 48 48 48 48 47 48 48 47 47 47 46
46 46 46 45 45 45 45 44 44 44 43 42 42 42 42 41
40 40 40 40 40 39 39 39 39 38 38 38 38 38 38 37
37 38 37 37 37 37 38 38 38 38 38 38 38 38 38 39
39 39 39 40 41 40 41 41 42 42 43 43 43 44 45 45
40 39 40 40 41 41 41 41 41 42 43 43 43 44 44 44
44 44 45 44 45 45 46 46 46 47 47 47 47 47 48 48
48 48 48 48 49 48 48 49 49 48 48 49 48 49 48 48
48 48 48 48 48 48 47 48 47 47 48 47 47 47 46 46
46 46 45 45 45 44 44 44 44 43 43 42 43 42 42 42
41 40 40 40 40 40 39 39 38 38 39 38 38 38 38 37
38 38 37 38 38 37 37 37 37 37 37 38 38 38 38 38
39 40 40 40 41 40 41 41 41 42 42 43 43 43 44 44
39 39 39 40 40 40 41 41 41 42 42 42 43 43 44 44
44 44 44 45 45 45 45 46 46 46 46 46 46 46 47 47
47 47 48 48 48 48 48 49 49 48 48 48 49 48 48 48
47 48 47 47 48 47 48 48 47 47 47 47 47 46 46 46
45 45 45 45 44 44 44 43 43 43 43 43 43 42 42 41
41 40 40 40 40 39 39 38 38 39 39 38 38 38 38 37
37 37 37 37 37 37 37 37 37 37 38 37 38 38 38 39
39 39 39 40 40 40 41 41 42 41 42 43 43 44 44 44
39 39 40 40 40 41 41 41 42 42 42 42 43 43 43 44
44 44 44 44 45 45 45 45 46 46 46 46 47 46 47 48
48 48 47 47 48 48 48 48 48 48 48 48 48 49 48 49
48 48 48 48 48 47 48 47 47 47 47 47 46 46 46 46
46 46 46 45 45 44 44 43 43 43 43 42 42 42 41 41
41 40 41 40 40 39 39 38 39 38 39 38 38 38 38 37
37 37 38 37 37 37 38 37 37 37 37 37 38 37 38 39
39 39 39 40 40 40 41 41 41 41 42 42 42 43 43 43
39 38 39 39 40 40 41 41 42 42 42 43 43 43 44 43
44 44 44 44 45 45 45 46 46 46 46 46 46 47 48 47
47 47 47 47 47 48 47 48 48 48 48 48 48 49 48 48
48 47 47 47 48 47 47 47 47 47 47 46 46 46 46 46
45 46 45 45 44 45 44 44 44 43 43 43 42 42 41 41
41 40 40 40 40 39 40 39 38 39 39 38 39 38 38 38
37 37 37 37 37 37 37 38 38 37 37 38 38 38 39 39
39 39 39 40 40 40 40 41 41 41 42 42 42 43 43 43
39 40 39 40 40 41 41 42 42 42 42 42 43 43 43 44
44 44 44 45 45 46 45 45 46 45 46 46 46 47 46 47
47 47 47 48 47 47 47 48 48 47 47 50 48 48 48 48
48 48 48 48 48 47 48 47 47 46 47 46 46 45 46 45
45 45 45 45 45 44 44 44 43 43 43 42 42 42 41 41
41 40 40 40 40 39 39 39 39 39 38 38 39 37 38 37
38 37 37 37 37 37 37 37 37 37 38 38 38 38 38 38
38 38 39 39 39 40 40 41 41 41 42 41 42 42 42 43
38 39 39 39 40 40 41 41 42 42 42 42 43 43 43 43
44 44 44 44 45 44 45 45 46 45 46 46 46 46 47 46
46 47 46 47 47 46 47 47 47 48 48 47 47 47 48 48
48 48 47 48 48 47 47 46 46 46 46 46 46 46 46 45
45 44 45 44 44 44 43 43 42 42 42 42 42 41 42 41
41 40 40 40 39 39 38 38 39 39 38 38 39 38 38 38
38 37 37 37 37 37 37 36 37 36 37 37 38 38 38 38
39 38 39 39 39 40 40 40 41 41 41 42 41 42 42 42
39 39 39 39 40 40 41 41 41 41 42 42 42 42 43 43
43 43 45 44 45 45 45 45 46 46 46 45 46 46 46 46
46 46 47 47 47 47 47 47 47 47 48 46 46 47 47 47
48 47 48 47 48 47 47 46 47 46 46 46 45 45 45 45
45 45 45 44 44 43 43 43 44 43 43 42 42 42 42 41
41 40 40 39 40 39 40 39 39 39 39 38 38 39 38 38
38 37 37 37 37 37 37 37 37 37 38 37 37 37 38 38
38 38 38 38 39 39 40 40 40 40 40 41 41 42 42 42
39 39 39 39 40 40 41 41 41 42 42 42 43 43 43 43
44 44 43 45 44 44 45 44 44 45 46 46 46 46 46 47
46 46 47 47 46 46 47 47 47 49 47 45 47 48 48 48
47 47 47 47 48 47 46 46 46 46 46 46 46 45 45 45
45 44 45 44 44 44 44 43 43 42 42 42 42 41 41 40
41 40 40 40 40 39 39 39 38 39 38 38 38 38 38 38
37 38 38 37 37 37 38 37 37 37 37 37 38 37 37 38
38 39 39 39 39 39 40 39 39 40 40 40 41 41 41 42
38 39 39 39 40 40 41 41 41 41 41 42 42 42 43 42
43 43 43 44 44 44 44 45 45 45 45 45 46 45 46 45
46 45 46 46 46 47 47 46 47 47 47 44 46 47 47 47
47 46 46 46 46 47 46 46 46 46 46 45 46 45 45 45
45 44 44 44 43 43 44 43 42 42 42 42 42 42 41 41
41 40 40 40 39 39 39 39 39 39 38 38 38 38 38 38
37 37 37 37 37 37 37 37 37 37 37 37 38 37 37 38
37 38 38 38 38 39 39 39 39 40 40 41 41 41 41 42
38 39 39 40 40 40 41 40 41 42 41 42 42 42 43 43
44 44 44 44 45 45 44 45 45 45 45 45 45 45 46 45
46 45 46 46 46 46 47 46 47 47 47 44 43 46 45 46
45 44 45 47 46 46 46 46 46 45 46 44 45 46 45 45
45 45 44 44 43 43 44 43 42 42 42 42 43 41 41 41
40 40 40 40 40 39 39 39 39 39 39 38 38 38 38 38
37 38 38 37 38 37 37 38 37 37 37 37 37 37 38 37
38 38 38 38 39 39 39 39 40 40 40 40 40 41 40 41
39 39 39 39 40 40 41 40 41 41 42 42 42 42 43 43
43 43 44 44 44 44 45 44 44 45 45 45 45 45 46 45
45 46 46 46 46 46 45 44 46 46 47 45 44 44 44 44
46 44 44 45 44 45 46 46 45 45 45 45 46 45 46 45
45 44 44 44 44 43 43 43 42 42 42 42 42 42 42 41
41 41 40 40 39 39 39 39 39 38 38 38 38 38 38 38
38 38 38 38 37 37 37 38 37 37 37 37 38 37 37 38
38 38 38 38 38 38 38 39 39 39 40 40 40 41 41 41
40 40 39 40 41 41 41 40 41 41 42 42 42 42 43 43
43 43 44 44 45 44 44 44 44 44 45 45 45 45 45 45
45 46 46 46 47 46 46 42 46 45 42 39 39 39 41 44
43 43 46 43 40 43 43 40 43 43 45 43 45 45 45 45
44 44 44 44 44 42 42 43 43 43 42 42 42 41 41 41
40 41 40 40 40 40 40 39 39 39 39 39 38 38 38 38
38 37 37 38 38 37 38 37 37 38 37 37 37 38 37 38
38 37 38 38 38 38 39 39 39 39 40 40 40 40 40 40
40 39 40 40 40 40 41 41 42 41 42 42 43 43 43 43
43 44 44 44 44 44 45 44 45 44 45 45 45 45 46 46
46 46 46 46 46 46 44 39 46 42 42 45 43 43 40 34
40 36 39 37 38 40 40 41 42 45 44 44 43 45 45 43
45 44 44 44 42 42 41 43 42 43 42 42 42 42 42 42
41 41 41 41 40 40 39 39 39 39 39 38 38 39 38 38
38 38 38 38 38 38 38 37 38 37 38 37 37 37 37 37
37 37 38 38 38 38 39 38 39 39 39 39 39 40 40 40
39 39 40 39 40 42 42 41 42 41 42 42 42 42 42 43
43 43 43 43 44 44 44 44 45 45 44 45 45 46 45 45
45 45 45 46 46 46 43 38 44 42 46 45 41 35 42 38
38 38 38 36 36 37 35 38 39 37 37 38 42 44 41 43
42 42 41 40 41 38 41 41 43 41 43 42 42 41 41 41
41 41 40 40 40 39 39 39 39 39 39 39 39 38 38 38
38 37 38 38 37 37 37 38 37 37 38 37 38 37 37 38
37 38 37 38 38 37 38 38 38 39 39 39 39 40 40 39
40 40 40 41 40 40 41 41 41 41 42 42 43 43 43 43
43 43 44 44 44 44 44 44 44 44 44 45 46 45 45 46
46 46 46 46 46 46 45 36 35 40 42 38 34 33 33 30
27 28 27 25 24 26 25 25 25 25 27 28 31 34 38 37
40 38 35 33 34 35 39 38 40 40 42 42 41 41 42 41
41 41 41 40 40 40 39 39 39 38 39 38 38 38 38 38
38 38 38 38 38 38 38 38 38 37 37 37 37 37 37 37
37 37 38 38 38 38 39 39 39 39 39 39 39 39 39 40
40 40 40 40 40 41 42 41 42 41 42 42 43 42 43 43
43 43 43 43 43 44 44 44 45 44 45 45 45 45 46 46
45 45 45 45 45 45 45 34 35 35 31 24 25 24 25 23
21 18 16 16 17 15 14 18 18 14 15 19 19 19 24 26
29 30 29 27 24 28 34 35 33 39 39 38 40 41 41 41
40 40 41 40 39 39 39 39 39 39 39 39 38 38 39 38
38 38 37 37 37 37 37 37 37 37 37 37 38 37 37 37
37 38 38 37 38 37 38 38 38 38 38 39 39 39 39 40
39 40 41 41 42 42 42 42 42 42 43 42 42 43 43 44
44 44 44 44 44 44 44 44 44 45 45 45 45 46 45 46
46 45 46 46 46 45 42 38 33 30 25 22 23 21 21 17
19 16 15 16 16 16 16 14 15 14 13 14 13 15 14 17
20 23 18 20 17 20 25 31 30 32 34 34 34 38 40 41
40 40 40 40 40 40 40 40 39 38 39 38 39 38 39 38
38 38 38 38 38 38 38 38 38 37 37 37 37 37 37 37
37 37 38 38 38 38 38 38 38 39 38 39 39 38 39 39
26 27 29 31 32 35 36 38 40 41 42 43 43 43 44 43
44 44 43 43 44 44 44 44 45 44 45 45 46 45 45 46
45 45 45 44 46 44 41 35 34 26 21 21 20 19 20 20
20 19 24 18 19 12 12 11 10 10 11 10 10 13 12 11
10 11 10 16 12 14 13 24 22 21 25 30 33 34 37 40
40 40 41 40 40 39 39 39 39 38 39 38 39 38 38 38
38 38 38 37 38 37 37 37 37 37 37 37 37 37 37 37
37 38 38 38 38 37 38 37 37 38 38 38 38 39 39 39
22 22 23 23 23 24 24 25 25 27 27 28 30 33 35 37
39 41 42 43 44 44 44 45 45 45 45 45 45 46 45 46
45 45 45 45 46 40 40 36 24 19 22 17 13 15 14 13
12 10 10 7 7 8 10 10 8 10 9 13 11 11 8 5
7 5 12 11 6 12 11 17 14 16 17 24 26 30 35 39
39 37 41 39 40 40 40 39 39 39 39 39 39 39 39 38
39 38 38 38 38 38 37 38 37 37 37 37 37 37 37 39
50 47 45 42 40 38 38 38 38 38 38 38 39 39 39 40
21 20 21 21 21 22 22 21 22 22 22 21 21 23 24 24
24 24 25 26 28 29 31 34 37 38 40 43 44 45 46 45
47 46 46 45 43 33 28 22 16 16 14 14 13 14 8 5
7 6 6 4 3 10 8 7 6 11 6 12 11 11 7 6
7 11 13 10 13 12 15 8 11 10 10 14 18 23 30 35
36 37 40 41 40 40 39 39 39 39 39 39 39 39 38 39
39 38 38 38 39 38 37 38 37 37 37 37 38 37 37 37
56 57 56 57 53 51 51 51 47 44 41 39 38 38 41 47
15 15 16 16 17 18 19 20 19 21 21 19 19 20 20 21
20 21 21 20 21 19 20 20 20 21 21 23 24 26 28 30
32 36 40 40 32 24 24 14 14 13 15 17 15 6 3 9
10 3 4 4 9 6 4 6 11 13 10 13 13 12 10 9
9 11 7 7 12 10 15 9 13 9 9 12 8 16 22 29
33 35 39 42 39 40 40 40 39 39 39 40 39 39 39 39
39 38 38 38 38 37 38 37 37 37 38 37 38 37 38 35
51 48 21 24 29 30 36 49 55 59 59 42 39 39 37 42
24 20 17 18 18 17 17 16 15 16 17 17 17 18 20 20
20 20 20 20 19 20 20 19 19 19 19 18 18 18 18 17
18 19 19 22 22 20 18 15 14 14 18 16 11 10 11 7
3 3 7 7 5 10 3 7 8 3 9 13 16 15 13 12
12 12 7 6 14 11 18 9 11 10 10 9 8 9 14 20
27 32 37 40 40 39 40 40 40 39 39 39 39 39 39 38
39 38 38 38 38 38 38 38 38 37 37 38 38 37 37 34
47 44 3 0 0 3 11 8 12 31 60 45 39 39 33 34
32 27 30 31 29 31 30 28 28 26 22 22 21 20 19 18
16 15 16 16 16 16 17 17 16 17 17 18 19 19 19 18
17 18 17 20 20 18 16 14 13 15 17 15 9 9 8 4
4 5 8 8 5 13 6 11 10 9 9 20 22 21 14 14
16 11 4 8 9 9 14 15 7 5 11 12 9 7 10 11
16 25 32 42 40 39 40 40 40 39 39 39 39 39 39 39
38 39 39 38 38 37 38 38 38 37 37 37 38 37 37 34
47 48 6 0 0 2 5 2 0 12 59 49 38 39 32 28
33 26 30 34 29 35 35 32 33 30 27 32 34 34 33 32
32 30 29 26 24 23 22 20 18 16 16 16 16 17 17 17
14 15 19 23 24 16 15 9 15 19 22 10 13 14 17 14
11 7 11 11 13 9 6 3 5 13 19 17 18 18 14 15
13 9 4 13 9 6 12 18 12 6 8 15 12 8 13 11
11 15 25 35 40 40 40 40 40 40 39 39 39 39 38 39
39 38 39 39 39 38 39 38 39 39 38 38 38 37 37 34
46 53 10 0 0 0 0 0 0 6 56 53 38 38 32 22
33 26 32 32 29 33 34 31 34 28 31 31 36 37 37 37
38 37 33 31 35 34 33 31 32 33 31 30 28 26 25 22
20 21 21 22 25 19 20 14 17 21 23 20 19 29 33 34
18 17 16 22 13 8 7 6 3 8 20 19 7 12 12 15
8 8 2 10 9 11 8 12 17 13 4 13 19 7 8 7
8 9 12 25 35 37 40 39 40 40 40 39 39 39 39 40
39 39 39 39 39 38 39 37 38 38 38 37 38 37 38 34
44 58 18 0 0 0 1 0 0 1 49 56 37 38 31 21
33 32 32 32 31 32 35 31 33 30 35 31 36 36 37 37
37 37 32 33 37 35 31 36 38 36 32 37 32 32 32 34
34 33 25 27 26 19 16 13 23 23 27 25 28 38 49 43
27 35 24 27 13 8 8 6 4 8 10 7 5 6 8 23
14 9 4 9 8 9 9 11 14 15 11 9 16 14 4 6
7 6 8 12 23 33 37 39 40 39 40 40 40 39 40 40
40 38 39 38 39 39 39 38 39 38 38 38 38 38 38 34
40 57 23 0 0 0 0 0 0 0 40 58 38 37 31 22
34 34 35 35 36 35 36 35 35 35 35 33 36 37 37 37
38 37 36 35 33 37 34 38 38 33 32 37 35 35 38 37
36 34 24 17 23 22 17 15 16 16 14 34 59 64 80 51
38 48 38 28 21 12 12 9 9 18 21 16 6 6 13 18
26 12 10 3 15 17 18 21 16 12 10 8 12 19 11 4
4 5 3 7 12 25 33 37 39 39 40 39 39 39 41 41
42 44 45 44 42 41 40 40 39 38 38 38 38 37 37 33
36 58 32 0 0 0 1 0 0 0 33 59 40 37 31 21
34 34 34 35 35 35 36 36 37 37 36 37 36 37 37 37
37 36 33 33 34 37 36 38 37 33 34 36 36 37 39 36
36 33 25 15 19 17 10 13 13 13 38 79 70 90 95 66
55 50 40 32 26 15 12 9 14 22 22 11 6 10 9 16
18 19 19 5 12 14 15 11 17 12 19 11 6 15 19 7
4 4 4 3 7 15 23 33 39 40 40 39 40 39 40 46
45 49 50 50 51 48 44 42 40 38 38 37 38 38 37 32
32 58 42 1 14 11 3 0 0 0 28 59 43 36 31 21
34 34 34 34 34 34 35 35 35 35 35 36 36 38 37 37
38 37 38 37 38 38 38 38 38 37 37 37 38 39 40 37
34 36 28 10 9 9 15 10 11 33 64 96 79 99 109 86
80 64 50 44 31 15 16 9 16 12 6 4 4 5 8 16
19 24 19 7 12 9 8 13 14 14 21 7 2 17 21 9
6 4 4 3 3 8 17 28 38 40 40 40 39 39 40 47
44 48 49 50 51 51 47 43 42 38 38 38 38 38 37 32
29 52 47 8 28 28 15 6 11 9 36 56 43 35 30 20
34 34 35 35 36 35 36 35 36 36 36 37 37 37 38 37
37 35 34 34 36 36 37 37 38 38 39 39 39 40 40 39
39 38 24 9 7 10 12 8 22 60 69 95 87 98 108 103
101 92 73 62 45 25 16 15 11 8 7 11 13 13 5 8
18 12 15 9 3 7 10 13 18 21 15 13 8 5 22 25
5 6 4 3 3 5 10 20 30 39 39 39 40 40 42 50
47 46 46 45 47 47 45 41 38 25 26 29 32 33 35 31
26 44 46 27 33 32 29 24 25 23 34 51 42 34 30 20
34 34 35 36 35 36 36 36 36 36 37 36 37 37 37 37
38 37 37 38 38 37 37 36 36 36 37 37 38 38 39 38
40 39 24 7 6 12 15 10 64 82 93 99 95 106 109 111
109 104 91 74 56 34 19 10 7 5 9 11 11 16 10 6
8 10 9 16 3 4 8 15 12 16 11 18 15 2 17 29
11 10 5 3 4 7 6 10 26 35 40 40 40 40 42 49
46 47 46 45 47 47 46 46 37 16 19 19 22 22 22 22
21 30 33 33 34 35 36 37 39 37 33 40 36 33 31 21
35 35 35 35 35 35 35 36 36 36 36 37 37 37 38 37
38 38 38 38 38 38 39 39 39 38 39 39 38 38 38 38
38 37 26 8 12 23 15 21 100 107 95 108 97 109 109 115
114 110 101 91 70 56 35 18 13 5 2 6 6 12 16 9
3 6 6 13 9 6 11 7 10 14 18 16 27 5 15 24
9 20 11 3 4 11 5 5 18 29 40 39 40 39 42 51
48 49 48 49 48 46 46 49 37 17 20 20 20 20 20 21
21 21 21 20 20 18 18 17 18 20 23 24 26 33 30 21
34 35 35 36 36 36 36 36 36 36 37 37 37 37 37 37
38 38 38 38 38 38 39 39 39 39 39 39 39 39 40 39
39 39 32 14 15 17 19 51 109 114 114 114 114 103 116 116
115 114 109 100 95 70 46 25 12 12 9 14 19 16 12 8
4 2 7 6 5 6 7 8 10 7 15 20 28 12 16 17
7 26 22 7 6 6 3 4 10 20 37 39 39 39 43 52
48 47 47 48 49 48 50 49 36 20 19 19 15 18 19 19
20 20 21 22 22 23 23 27 22 16 17 17 20 22 24 18
35 35 35 35 36 36 36 36 37 36 37 37 37 37 38 38
38 38 38 39 39 39 38 39 39 39 39 40 40 40 39 39
41 39 35 19 12 19 18 77 114 120 118 118 120 116 118 120
119 116 118 114 108 94 57 29 14 9 15 5 12 14 10 9
1 2 6 6 7 8 5 12 10 10 19 20 16 12 23 22
8 27 28 16 7 6 4 3 8 17 31 40 39 39 42 51
52 49 45 47 47 48 48 48 37 23 20 19 13 25 24 20
20 23 30 31 31 31 36 42 35 20 21 20 20 20 20 15
35 35 35 35 35 35 36 36 36 36 36 36 37 37 37 37
38 38 38 39 38 39 39 39 39 39 40 39 40 40 41 40
40 39 37 30 15 17 17 96 113 118 120 120 120 119 120 122
123 121 121 118 117 99 68 39 18 13 13 15 9 7 9 8
7 5 6 3 3 4 6 7 9 9 14 22 13 11 22 19
17 26 22 24 11 8 3 4 7 13 23 38 39 39 42 52
50 48 45 45 46 45 44 46 37 23 20 20 13 28 32 37
43 42 43 37 36 39 44 48 42 27 30 26 23 22 20 14
30 32 29 34 34 32 35 35 36 35 36 35 35 35 37 38
37 38 38 38 39 39 39 39 39 40 39 39 39 39 39 40
40 39 39 36 24 13 31 109 116 118 120 120 119 120 121 124
127 126 126 125 122 108 76 37 18 11 12 7 10 9 7 5
14 10 5 3 2 6 6 15 4 10 6 13 9 21 21 22
24 22 16 28 20 10 9 8 10 11 20 36 39 39 42 52
49 49 48 48 49 47 47 49 39 24 20 19 10 24 28 37
51 50 48 42 40 46 47 46 45 28 31 36 40 38 34 28
31 27 27 34 30 31 36 33 34 30 35 33 33 34 36 37
38 39 38 39 38 39 39 39 39 39 39 40 39 40 41 40
41 40 39 37 18 11 56 115 120 119 96 99 116 121 118 124
126 127 126 124 121 116 81 39 18 14 16 9 10 14 15 14
12 13 10 9 2 6 6 12 9 3 6 10 13 28 27 16
17 24 17 23 32 12 11 7 15 13 17 33 39 39 43 53
50 48 48 49 50 51 50 50 40 23 19 19 10 21 21 27
50 51 48 44 36 28 19 13 39 23 20 30 22 11 13 15
32 29 28 34 32 32 35 33 35 32 33 33 34 32 34 37
38 38 38 38 39 39 39 39 40 40 40 40 40 40 40 40
40 39 40 37 28 27 88 118 91 24 16 4 8 20 36 52
70 87 102 119 123 119 98 50 22 17 20 14 19 19 15 13
7 17 14 11 6 4 7 16 6 3 7 10 16 18 28 11
11 28 20 23 28 24 15 8 20 16 16 34 40 40 43 53
47 46 46 47 49 51 52 52 41 24 19 20 11 17 6 9
33 22 14 9 5 2 1 3 34 32 20 29 16 0 0 0
35 35 35 36 35 35 35 35 35 35 34 36 36 37 38 38
38 38 39 39 39 39 40 39 39 39 39 39 40 40 40 40
40 40 40 40 38 43 111 69 3 2 23 1 1 1 2 2
3 4 6 7 12 26 32 28 16 14 13 9 23 21 23 13
11 11 12 5 7 4 4 11 8 0 5 18 21 17 22 9
6 20 22 20 36 39 15 12 24 25 27 36 41 40 43 53
48 47 47 47 50 51 51 52 40 25 18 19 12 15 3 2
19 9 2 4 3 6 5 4 23 41 21 27 16 0 0 9
36 36 37 37 37 36 37 37 37 37 38 37 38 38 38 38
39 38 39 40 40 40 40 40 40 40 40 41 40 40 41 40
40 40 40 41 40 71 83 3 2 2 10 5 6 6 6 7
8 8 7 6 5 4 2 2 1 3 4 3 3 9 13 12
6 5 3 7 5 4 4 4 5 4 2 8 18 20 12 10
3 14 15 16 25 41 17 21 23 26 26 37 42 41 43 54
49 48 47 48 50 50 49 51 41 25 18 18 12 14 4 2
12 16 4 5 5 15 17 6 8 44 21 25 19 0 1 7
36 36 37 36 37 37 36 37 38 37 38 38 38 38 38 38
39 39 40 39 39 40 40 39 40 40 40 40 41 40 40 41
41 41 41 41 42 90 24 4 1 2 28 3 4 4 4 9
22 33 36 41 46 46 41 37 27 11 3 0 0 0 0 2
3 4 4 4 9 5 6 8 5 6 8 10 7 8 7 8
1 8 11 11 24 32 15 21 18 24 31 34 39 41 43 54
49 48 50 49 50 50 50 51 43 26 18 18 15 11 2 0
6 23 7 2 5 9 9 7 2 42 23 20 20 0 0 6
36 37 37 36 37 37 37 37 37 38 38 38 39 38 39 39
39 39 39 39 40 40 41 40 40 40 41 41 41 41 41 41
41 41 41 41 47 79 2 3 0 0 26 3 6 10 16 37
91 109 113 119 120 120 118 117 100 60 21 14 18 17 9 5
2 2 2 3 4 8 10 6 5 4 4 5 2 4 7 4
5 4 8 3 8 27 18 19 9 11 25 29 38 40 41 53
49 49 50 49 49 50 51 52 44 26 19 18 25 29 21 3
2 29 15 3 2 0 1 1 0 34 24 19 23 0 1 7
36 36 37 37 37 37 37 37 38 38 38 38 39 38 39 39
39 39 40 40 40 40 41 40 40 41 40 41 40 40 40 40
40 40 41 41 52 53 4 4 0 0 28 5 9 14 18 51
104 112 119 123 125 126 128 128 113 76 35 17 17 19 17 11
9 7 7 3 5 8 14 10 9 6 6 6 8 4 4 2
1 3 9 2 3 20 20 25 10 7 13 19 32 41 41 53
52 50 49 49 49 48 49 49 43 27 21 18 11 7 8 1
0 23 19 5 0 0 0 0 0 28 36 35 29 0 1 7
37 37 37 37 37 38 38 37 37 38 38 38 38 38 39 39
39 39 40 40 40 40 41 40 41 41 41 41 41 41 41 41
42 41 41 33 38 31 6 2 0 0 27 7 10 15 18 34
106 118 122 123 126 127 126 126 117 89 52 23 16 12 12 12
13 15 16 21 63 113 117 97 41 5 5 4 9 10 6 4
3 0 3 7 1 13 21 22 17 16 8 14 25 39 41 53
52 51 50 51 52 52 52 51 44 27 21 20 8 0 0 1
1 15 21 9 0 0 0 0 0 17 46 43 32 0 0 0
37 37 37 37 37 38 38 38 38 38 38 38 39 38 39 39
39 39 40 40 40 40 40 41 41 41 41 41 41 40 41 41
40 41 38 10 10 16 8 1 0 0 23 13 17 13 14 19
92 127 122 122 126 126 126 124 118 96 62 40 23 15 15 14
12 20 28 56 89 65 60 99 120 44 4 5 5 4 3 4
5 3 1 7 5 9 23 17 29 27 3 8 17 35 40 53
52 49 48 49 48 51 52 53 44 28 22 21 10 2 4 10
10 10 25 8 0 0 0 0 0 6 35 35 29 0 0 0
38 37 37 37 38 37 38 37 38 38 39 39 39 39 39 40
40 40 40 40 40 41 41 40 40 40 40 41 41 41 42 41
41 41 35 10 7 25 9 0 0 0 21 13 14 23 13 14
64 126 127 126 127 126 126 125 122 106 83 59 45 35 31 31
28 38 77 114 57 56 85 75 104 116 17 2 0 2 5 10
6 6 8 12 19 10 13 16 21 30 7 11 11 32 40 53
51 49 49 50 49 50 50 53 46 29 21 20 13 5 10 14
6 4 23 1 0 0 0 2 3 6 16 16 15 1 0 0
35 36 36 37 37 35 37 38 38 37 38 39 39 38 39 39
39 40 40 40 41 41 40 40 41 41 41 42 42 41 42 41
41 41 32 10 6 10 7 0 0 0 21 11 7 10 12 14
49 123 126 126 125 124 125 126 124 115 92 76 61 43 53 63
76 92 116 130 73 85 130 109 90 121 60 0 0 0 5 3
4 2 10 10 21 8 9 9 12 19 13 15 7 28 39 52
52 50 50 50 50 51 52 53 48 29 21 19 12 2 9 14
10 1 18 4 1 3 2 3 5 9 12 11 7 1 0 0
33 34 33 33 35 34 37 37 35 34 33 35 36 35 34 36
37 40 40 38 37 37 38 38 38 38 41 40 39 38 40 39
41 41 35 11 38 26 9 0 0 0 13 11 13 29 17 15
54 122 125 125 125 125 127 126 124 116 93 92 80 61 64 72
92 115 138 129 95 115 145 139 87 117 104 0 0 0 1 3
10 9 12 9 9 6 3 3 10 18 16 11 9 24 39 51
51 49 49 50 50 53 53 54 50 30 21 19 11 0 2 3
7 0 8 13 7 6 3 4 6 9 8 5 1 0 5 8
37 37 36 35 36 36 38 37 36 36 37 37 38 37 37 38
38 40 40 38 39 38 39 38 38 38 40 41 39 37 39 39
40 42 39 27 98 48 18 0 0 0 6 10 14 22 17 21
81 122 125 125 123 124 126 124 125 125 106 96 94 90 95 107
113 119 135 107 116 127 136 140 103 117 120 4 0 0 7 1
9 13 9 7 6 4 1 2 8 15 19 10 10 23 39 51
51 50 50 50 50 53 54 56 51 32 22 21 10 0 1 1
3 7 3 12 9 8 2 0 0 1 2 0 0 0 2 9
36 37 37 38 38 38 38 38 38 38 38 38 38 39 40 39
39 39 40 40 40 40 41 40 40 40 40 41 41 41 41 41
42 41 42 83 112 61 25 4 0 0 3 8 11 14 20 40
109 122 125 125 118 122 125 124 125 126 118 109 104 106 118 123
129 129 132 92 85 136 132 138 116 106 125 9 0 0 7 8
7 12 12 4 7 3 0 0 7 17 11 7 20 23 39 51
50 49 49 49 51 54 55 56 53 33 25 29 23 10 7 12
21 9 3 4 5 4 1 0 0 0 0 0 0 0 0 2
34 35 37 36 36 36 38 38 38 38 39 39 39 39 40 40
40 40 41 40 41 41 41 41 41 41 42 41 41 42 42 42
42 43 73 107 107 79 22 19 1 1 2 6 10 16 32 95
119 122 125 124 123 123 125 125 124 125 127 120 112 111 121 130
135 140 128 118 29 99 139 138 121 95 116 5 3 4 7 12
12 16 9 5 7 3 11 1 12 16 4 6 28 28 40 51
51 48 50 51 52 55 57 58 55 36 32 40 33 20 25 26
18 4 0 0 1 1 0 0 0 0 1 0 0 0 0 0
33 32 33 33 33 35 34 36 36 39 39 39 39 39 40 40
40 40 40 40 41 41 41 41 42 41 41 42 42 42 43 43
43 63 104 99 101 95 20 38 4 1 4 9 14 22 81 120
121 122 126 125 126 125 125 123 123 125 127 123 112 116 128 134
140 146 98 104 81 80 130 139 108 95 104 1 5 8 7 17
8 3 6 1 2 6 19 1 13 4 1 7 20 31 42 50
52 49 51 51 52 53 55 59 56 36 34 37 39 28 32 18
0 0 0 0 0 0 0 0 0 5 11 9 10 5 2 0
38 36 37 37 36 37 37 36 37 38 39 39 39 40 40 40
40 40 41 40 41 40 40 41 41 41 41 41 42 41 42 42
50 102 104 96 103 107 42 36 27 5 11 12 19 78 119 123
124 125 128 129 125 123 124 123 124 126 123 121 114 114 128 137
142 145 78 39 87 118 117 137 101 105 69 0 6 17 14 22
11 2 2 0 3 6 25 6 7 0 1 6 18 34 40 49
51 48 49 51 52 54 58 60 55 32 27 35 41 32 21 1
0 0 0 0 0 0 0 0 0 9 16 22 25 20 16 11
37 37 38 38 37 38 38 38 39 38 39 39 40 40 40 40
41 40 41 40 40 41 41 41 40 41 41 42 42 43 43 43
84 113 99 93 100 110 100 34 21 17 16 37 90 121 125 127
129 128 127 127 125 123 124 124 123 123 119 121 112 108 122 135
143 146 87 30 70 125 127 137 102 116 30 0 8 14 15 12
13 2 2 0 4 5 23 18 8 1 2 11 28 32 35 49
51 49 49 49 50 52 58 59 50 11 6 11 15 16 4 0
0 0 0 0 0 0 0 0 4 18 30 36 37 31 26 18
37 37 38 38 38 38 38 38 38 39 39 39 39 39 40 40
40 40 40 41 41 41 41 41 41 41 41 41 42 42 43 49
105 110 98 89 91 114 120 112 95 82 99 110 115 122 123 127
130 128 131 123 124 123 124 125 123 124 122 121 114 114 127 137
141 130 79 31 80 128 128 129 113 98 12 5 9 10 11 7
5 6 8 0 5 10 28 26 11 5 8 19 22 36 34 48
51 49 48 47 49 52 56 56 34 1 0 0 1 0 0 0
0 0 0 0 0 0 0 0 8 28 40 45 45 42 34 21
38 37 37 37 38 38 38 38 38 39 39 39 40 39 40 40
40 41 40 41 41 41 41 41 41 41 42 42 42 42 43 67
113 112 103 94 83 108 124 124 116 114 116 116 118 124 125 132
131 130 131 126 125 123 124 124 124 124 124 121 113 116 126 139
141 116 64 56 125 132 128 115 124 75 13 11 7 6 9 10
6 8 13 1 6 14 20 23 12 8 8 16 17 37 36 48
51 49 48 47 48 50 51 52 18 0 0 0 0 0 0 0
0 0 0 0 0 0 0 0 13 32 44 52 50 48 39 30
37 37 37 38 38 38 38 38 39 39 38 39 40 39 40 40
40 40 40 40 41 41 41 41 41 41 42 42 42 43 43 89
137 134 120 106 81 87 119 126 119 117 116 117 122 127 127 132
131 132 129 123 124 122 123 121 124 125 122 121 117 116 130 136
133 119 98 128 140 131 115 121 116 77 19 16 9 6 7 7
10 7 8 1 6 21 18 31 19 13 5 15 20 36 37 48
52 52 49 46 47 47 49 45 8 0 0 0 0 0 0 0
0 0 0 0 0 0 0 0 19 39 49 54 53 48 41 35
37 37 38 38 38 38 38 39 39 39 39 39 40 40 40 40
40 40 41 40 41 40 40 41 41 42 42 42 42 43 44 97
135 114 118 116 91 80 100 122 117 119 119 118 123 129 131 132
129 130 128 124 125 122 122 122 123 122 122 122 120 121 128 134
125 124 137 135 139 132 121 119 110 81 35 22 17 12 6 4
10 7 3 3 2 9 15 28 23 14 12 21 24 38 37 47
48 47 47 47 46 47 48 39 5 0 0 0 0 0 0 0
0 0 0 0 0 0 0 3 28 44 51 53 53 53 49 43
37 38 38 38 38 38 39 39 39 40 39 40 40 40 40 41
40 40 40 41 40 41 42 41 42 41 41 42 42 42 43 76
116 102 77 111 115 85 88 117 120 122 120 120 126 135 131 130
127 129 128 124 123 122 121 120 122 124 124 123 122 121 126 132
120 124 131 137 136 131 121 111 116 103 57 28 25 23 7 1
5 2 0 4 0 6 16 22 27 25 13 16 23 40 39 47
48 46 46 45 44 44 44 33 3 0 0 0 0 0 0 0
0 0 0 0 0 0 0 6 37 47 53 58 59 57 52 49
37 38 38 38 38 39 39 39 39 39 39 39 40 40 40 40
41 40 41 41 41 41 41 41 42 42 42 42 42 42 43 49
87 52 34 89 105 101 80 112 118 121 121 121 126 130 128 131
132 128 129 125 125 121 123 121 123 123 125 123 123 123 124 126
99 132 132 133 130 127 111 111 118 112 71 28 21 25 10 1
0 0 0 0 0 4 8 18 23 34 23 20 31 43 41 48
49 48 48 47 45 47 45 31 1 1 0 0 0 0 0 0
0 0 0 0 0 0 0 20 48 56 59 63 63 59 57 55
38 38 38 38 38 39 39 38 38 39 39 39 40 41 40 41
41 41 40 41 41 41 41 41 41 42 42 42 43 42 43 43
50 61 84 112 92 103 88 111 119 120 121 123 126 129 130 130
131 123 125 124 124 123 124 123 123 125 125 125 124 124 123 112
81 133 133 127 124 115 109 111 118 119 72 27 21 23 5 1
0 0 0 0 0 2 10 13 19 26 22 22 35 44 41 51
49 46 46 46 44 45 43 34 12 1 0 0 0 0 0 0
0 0 0 0 0 0 8 38 59 64 62 65 67 65 62 58
38 37 38 38 39 39 39 38 39 38 39 39 39 40 40 40
40 40 41 40 40 41 41 41 41 41 41 41 42 42 42 42
43 44 58 110 115 107 99 115 120 120 121 121 125 129 129 128
127 125 127 125 123 122 123 124 122 123 125 124 123 121 122 96
55 111 123 117 112 114 113 112 114 118 76 27 19 16 6 0
0 0 0 0 0 1 13 18 18 14 21 32 42 46 41 51
50 45 44 42 41 41 39 41 30 4 0 0 0 0 0 0
0 0 0 0 0 0 16 45 62 68 66 65 66 66 63 61
37 38 38 38 37 38 38 38 38 38 38 39 39 39 40 40
40 41 40 39 39 40 41 40 41 40 41 41 42 41 42 42
43 43 49 101 108 108 111 118 118 118 119 121 122 126 127 130
126 124 124 125 122 120 120 121 121 121 124 122 123 119 121 92
45 74 107 102 111 120 117 114 116 118 73 24 8 11 7 1
5 1 0 0 0 1 20 23 14 9 24 39 52 48 40 50
51 47 45 44 43 42 42 41 27 13 0 0 0 0 0 0
0 0 0 0 0 1 19 45 63 70 68 68 67 65 62 60
36 36 37 37 37 38 38 38 38 38 39 38 39 39 39 39
39 39 39 39 39 40 40 40 40 41 41 40 41 41 41 41
42 41 46 91 100 104 113 117 116 116 118 120 123 125 126 126
124 120 124 121 120 120 119 119 119 121 123 123 121 117 116 103
67 100 124 128 127 120 116 114 117 115 55 9 5 16 6 6
7 0 0 0 0 0 30 23 16 14 32 38 50 47 40 49
48 45 45 45 44 43 45 45 34 18 3 1 0 0 0 0
0 0 0 0 0 1 18 40 67 71 69 67 67 63 60 59
35 36 36 37 37 37 37 37 37 37 37 38 38 37 38 38
39 39 39 38 39 39 39 40 40 39 40 40 40 40 40 41
41 41 46 90 94 98 107 109 110 111 113 115 119 122 121 121
120 120 119 119 119 114 117 117 121 117 120 119 122 118 114 112
110 116 120 123 126 127 125 121 117 108 38 8 7 9 5 1
1 1 2 0 0 5 15 18 20 20 30 41 48 46 38 48
50 46 45 42 40 39 41 50 52 46 40 12 0 0 0 0
0 0 0 0 0 1 14 33 61 67 69 67 65 63 58 55
36 36 36 36 36 37 37 37 37 37 38 38 38 38 38 38
38 39 39 39 39 39 39 39 40 39 40 40 40 40 41 41
40 41 49 98 97 97 101 103 104 108 113 116 117 120 120 121
117 112 117 117 116 115 115 117 117 115 120 119 119 114 115 112
110 111 118 122 128 129 128 127 122 104 40 16 12 14 3 2
2 3 5 1 1 6 11 9 15 21 26 44 47 47 39 49
52 49 47 44 41 40 40 50 57 55 53 21 0 0 0 0
0 0 0 0 0 0 9 30 54 61 66 65 64 62 58 57
36 36 36 37 37 37 37 37 37 37 37 38 38 38 38 38
39 39 39 39 40 39 39 39 40 40 39 40 40 40 40 40
41 41 61 100 104 101 100 100 100 109 111 115 117 122 122 119
115 116 114 114 114 115 115 116 118 118 118 117 117 113 109 106
106 108 113 117 125 126 126 124 121 101 35 19 15 9 4 6
1 7 5 0 1 7 9 10 12 18 35 46 47 46 39 48
52 50 49 45 42 41 41 49 59 58 58 28 0 0 0 0
0 0 0 0 0 0 4 34 58 60 61 63 63 62 60 59
37 37 36 36 36 37 37 37 37 37 38 38 38 38 38 38
39 39 39 39 39 39 40 39 40 39 40 40 40 41 40 41
41 41 56 84 94 104 107 96 101 106 111 116 119 121 119 116
117 112 113 113 112 113 113 115 114 112 116 116 112 110 107 104
103 107 110 114 120 125 125 122 121 110 48 28 20 11 5 7
6 9 0 0 0 1 2 9 10 22 44 47 48 46 38 49
53 49 48 47 44 42 42 43 43 48 56 35 0 0 0 0
0 0 0 0 0 0 7 43 60 60 56 59 63 65 60 56
36 36 36 37 37 37 37 37 37 38 38 38 38 38 38 38
38 38 39 39 39 39 39 39 40 40 40 40 40 40 40 41
40 41 44 65 70 79 91 100 97 105 111 117 120 121 121 117
116 112 111 109 110 107 110 113 111 112 114 112 108 106 104 101
99 103 107 110 116 123 123 121 122 114 53 24 11 9 6 6
12 6 0 0 0 0 3 6 16 36 46 48 49 46 38 49
53 49 48 45 43 41 40 37 33 36 52 41 3 0 0 1
15 4 0 0 0 0 11 45 59 59 56 56 57 53 39 33
37 37 36 36 37 37 37 37 38 37 37 37 38 38 38 38
39 39 39 39 38 39 39 39 39 39 40 40 40 40 40 41
40 40 41 46 47 68 64 62 70 90 111 119 123 123 122 118
116 113 109 108 106 107 107 108 107 111 111 109 108 104 99 101
103 105 107 108 114 122 123 119 120 117 84 19 13 10 9 15
14 3 0 0 0 0 5 11 23 44 47 47 47 46 38 48
53 50 50 47 44 41 42 38 35 28 48 43 4 0 0 21
49 47 17 1 0 0 13 48 59 61 57 46 37 32 25 18
37 37 37 37 37 37 37 38 38 37 38 38 38 38 38 38
39 39 39 39 39 39 39 39 40 40 40 40 40 40 40 40
41 40 41 46 81 98 100 92 81 83 106 120 125 124 123 121
114 112 112 107 108 108 105 103 104 103 103 104 105 102 101 100
103 109 109 109 112 119 121 117 119 118 109 42 13 11 14 27
18 9 2 0 0 0 4 13 25 44 47 48 48 46 38 47
53 48 49 46 45 43 44 43 38 27 41 46 13 0 0 34
56 48 49 22 1 0 13 48 58 65 57 42 31 24 27 28
38 38 37 37 37 38 37 37 37 37 38 38 38 38 38 38
39 39 39 39 39 39 39 39 40 39 40 39 40 39 39 40
40 40 41 56 81 101 111 113 109 109 104 116 124 125 124 120
115 111 112 109 107 103 102 100 98 93 97 98 99 100 103 102
105 108 107 108 113 120 123 119 117 117 118 97 37 33 54 52
24 17 2 0 0 0 6 9 37 42 45 48 48 47 37 45
53 50 49 46 45 43 44 44 39 28 32 50 30 1 0 36
61 49 38 43 24 19 28 50 60 66 59 42 34 34 48 36
37 38 37 37 37 37 37 37 38 37 38 38 38 38 38 39
39 39 39 39 39 39 39 39 39 39 40 40 40 40 40 40
40 40 40 47 55 82 103 111 112 111 112 108 117 121 120 118
113 111 112 111 109 104 98 99 97 94 95 97 95 98 105 108
113 111 109 110 113 118 122 120 118 116 118 117 88 66 52 40
23 12 7 0 0 0 3 12 38 46 47 49 48 46 37 44
51 48 48 49 47 44 44 44 40 31 24 48 39 8 0 37
53 36 47 48 37 39 45 53 58 65 61 51 49 44 37 26
38 38 38 37 37 37 36 37 38 38 38 38 37 38 38 38
38 37 38 38 38 39 39 39 39 39 39 39 39 40 39 39
40 40 40 41 67 101 110 111 111 115 116 108 112 117 119 116
113 108 108 109 106 103 98 95 95 94 87 93 97 104 108 114
115 114 110 108 113 118 123 124 119 116 117 118 115 93 55 40
26 10 9 0 0 0 4 25 40 46 48 48 47 46 36 43
50 46 47 47 45 43 43 42 41 33 20 40 42 20 0 31
51 49 47 56 38 38 45 52 56 63 63 59 55 51 43 34
38 38 37 37 37 37 37 37 37 37 37 38 38 38 38 38
39 38 39 39 39 39 38 39 39 38 39 39 39 39 39 39
40 40 40 43 90 110 115 116 115 114 113 110 110 114 115 111
111 110 108 105 103 99 97 94 90 89 90 95 105 110 113 117
119 115 114 113 113 117 120 122 118 116 116 117 119 117 90 49
24 16 4 0 0 0 8 32 40 46 47 48 47 45 35 41
47 44 44 45 46 46 47 44 43 34 20 30 44 31 2 20
52 46 45 49 37 36 44 51 53 58 62 64 61 55 49 40
38 38 37 37 38 37 37 37 37 38 37 38 38 38 38 38
38 38 38 38 38 38 39 39 39 39 39 39 39 40 39 39
39 39 39 54 101 110 115 116 114 111 111 109 108 109 112 111
108 108 105 104 100 98 93 92 94 96 99 104 109 114 116 116
110 111 115 116 115 115 121 123 117 116 115 116 118 119 115 62
33 22 0 0 0 0 16 38 44 46 46 47 47 45 36 41
46 43 42 43 44 46 45 44 42 35 23 20 45 37 12 6
49 54 55 45 36 37 42 47 51 52 56 59 60 57 52 47
38 38 37 37 37 37 37 37 37 37 37 37 37 37 38 38
38 39 39 39 39 38 38 38 39 38 39 39 39 39 39 39
39 39 39 63 102 110 113 118 115 113 112 109 109 110 109 106
102 105 103 101 102 97 96 99 101 102 105 108 111 112 116 116
114 113 115 115 116 118 123 122 119 115 115 115 117 118 118 103
88 42 0 0 0 2 28 40 42 46 46 46 46 44 36 42
43 40 41 43 43 45 45 45 44 36 23 14 38 39 30 2
23 55 60 51 36 36 41 44 45 48 53 53 57 57 55 50
39 38 37 37 37 37 37 38 37 37 37 37 38 38 38 38
37 38 38 38 38 38 38 38 38 39 39 39 39 39 38 39
38 37 37 63 102 111 113 116 118 117 116 112 111 109 104 100
101 100 99 98 98 95 98 102 106 107 111 112 111 113 117 116
116 114 111 114 114 117 120 119 118 115 114 115 117 118 119 117
108 55 0 0 0 12 36 40 43 46 46 44 44 41 35 44
45 40 41 42 40 41 42 43 46 37 24 13 27 45 42 14
1 35 55 44 34 35 40 40 40 43 49 49 49 51 49 44
40 38 38 37 37 36 37 36 37 37 37 37 37 37 38 37
37 37 38 38 38 38 38 38 38 39 38 39 38 38 38 37
37 36 39 53 97 104 113 115 118 119 116 111 106 103 100 96
96 93 95 96 95 96 105 107 109 112 113 113 114 116 117 116
117 115 113 113 113 117 121 120 118 117 114 115 116 118 120 120
112 68 3 0 7 33 39 42 46 47 47 46 48 45 36 46
48 42 42 41 41 44 45 46 47 38 23 14 19 44 34 19
0 20 35 29 34 34 39 40 38 41 45 47 44 44 42 35
41 39 38 37 37 37 37 36 37 37 37 37 37 37 38 38
38 38 38 38 38 38 38 38 38 39 38 38 38 38 37 37
35 29 34 40 74 92 106 110 112 112 113 107 101 99 96 90
90 91 93 93 97 99 106 108 111 113 114 114 112 113 117 116
117 116 114 114 115 117 120 120 118 115 114 114 115 116 118 118
113 97 14 7 31 43 41 44 47 51 56 58 58 52 40 48
51 48 48 47 48 49 50 49 49 41 24 13 14 34 29 27
10 22 35 33 32 32 39 39 37 37 42 44 42 40 36 30
43 39 38 37 37 37 37 37 38 37 37 36 37 37 37 37
37 37 38 38 38 38 38 38 39 38 38 38 37 37 36 36
36 32 41 47 55 88 93 102 106 105 104 99 90 84 83 84
83 89 94 96 96 98 103 109 111 113 114 116 115 117 119 119
119 116 114 113 115 117 119 120 118 115 113 113 115 116 118 117
114 105 46 36 47 48 49 48 51 67 71 70 71 68 56 47
48 47 46 45 44 43 46 49 50 42 23 13 12 15 26 29
21 24 33 30 31 31 37 39 37 35 39 43 42 40 34 34
45 41 39 38 37 37 37 37 37 37 36 37 36 37 37 37
37 37 37 38 38 38 38 38 38 38 38 38 37 36 35 29
28 28 45 54 54 72 78 87 91 93 87 79 75 72 71 72
79 86 88 93 98 100 103 106 111 113 115 119 119 118 121 122
119 117 116 115 114 117 119 120 120 114 112 113 114 115 116 117
115 110 75 46 48 49 49 48 50 66 71 69 68 68 65 48
46 46 44 44 42 39 42 48 49 42 23 14 12 5 23 30
21 25 32 30 29 30 35 38 36 34 35 38 39 38 35 37
45 41 39 38 37 37 37 36 37 37 37 37 37 37 37 37
37 37 37 36 38 37 35 34 36 39 38 37 37 36 34 23
23 24 44 54 54 57 65 58 62 64 56 52 53 58 59 64
76 83 87 92 98 102 104 108 112 115 118 120 122 122 121 123
122 115 114 115 114 116 119 120 120 116 113 114 114 116 117 117
116 113 98 36 32 32 33 33 33 41 45 41 40 44 50 35
32 31 31 30 32 38 39 45 48 40 22 14 14 13 6 7
13 27 32 32 29 28 32 35 35 32 34 36 38 37 38 35
45 41 39 38 36 36 36 36 36 36 36 36 37 37 37 37
37 37 37 37 37 36 33 33 36 38 38 37 36 35 32 23
21 24 44 54 53 51 52 47 36 29 24 21 27 31 37 49
61 69 79 92 100 104 110 116 118 119 120 123 122 122 122 123
122 118 116 113 112 116 119 121 121 116 113 112 113 115 117 117
116 114 107 41 11 11 11 10 8 6 4 4 4 4 5 4
4 4 5 4 25 41 38 44 47 39 21 16 18 15 0 0
12 29 31 33 29 27 30 34 36 35 36 35 37 39 37 21
46 41 39 36 36 36 35 35 35 35 35 35 37 38 38 38
38 37 37 37 35 34 33 34 36 37 36 37 37 35 31 23
22 23 43 54 42 24 23 23 20 17 15 14 15 14 17 24
38 52 68 85 100 111 116 118 122 124 126 125 125 123 121 123
122 118 115 114 114 115 117 114 116 115 113 113 114 116 118 117
118 116 113 78 13 14 22 20 15 8 3 2 2 1 1 1
0 0 0 0 18 42 37 37 35 28 18 17 22 17 2 0
19 30 32 34 29 26 27 29 33 34 34 35 35 38 33 22
47 42 38 36 36 35 35 34 34 34 35 35 37 37 37 37
37 37 37 37 33 30 30 31 32 33 33 33 33 32 29 21
20 23 42 54 41 19 21 23 23 23 22 22 22 21 21 20
21 25 43 70 93 105 115 118 120 124 127 125 127 124 121 121
122 118 115 115 115 114 116 118 120 116 114 113 114 116 117 116
117 116 114 103 31 0 10 29 23 14 7 5 5 4 4 3
3 2 2 0 10 40 36 23 16 13 12 16 22 19 5 6
24 30 33 36 31 26 24 26 31 32 32 34 34 34 27 29
49 43 40 38 36 35 34 34 33 34 34 35 38 39 38 38
38 38 38 37 33 29 29 29 29 30 31 30 31 31 27 21
21 22 41 54 42 20 27 52 57 56 56 56 56 55 54 53
52 51 52 41 66 99 111 118 122 124 127 125 124 125 124 123
121 121 118 115 113 113 118 119 118 116 114 113 114 116 117 116
118 118 115 109 96 29 0 17 21 13 7 5 5 4 4 3
3 2 2 1 4 38 36 20 11 15 20 21 18 18 11 8
27 30 33 38 36 25 23 25 29 30 31 29 28 26 23 27
50 44 41 39 36 36 34 34 34 33 34 35 39 39 37 38
38 38 38 38 33 30 29 30 30 30 30 31 31 31 24 20
21 22 40 54 43 20 30 70 79 80 81 78 77 79 79 77
79 78 79 60 45 80 106 114 120 121 122 124 123 123 123 124
124 120 117 117 115 114 115 118 119 116 112 113 112 115 116 117
118 117 115 113 109 103 28 17 27 19 9 6 6 5 5 5
4 3 3 2 1 33 36 22 16 29 27 21 16 17 15 9
25 31 34 37 38 29 22 23 25 27 28 24 22 23 23 23
49 45 42 38 37 36 34 34 33 33 33 35 39 39 38 38
38 38 38 37 33 29 29 29 30 30 30 30 31 31 24 20
20 22 39 53 43 19 27 64 75 75 76 75 75 77 77 76
77 75 41 21 59 102 101 109 114 118 121 122 122 122 122 123
122 121 119 117 115 114 116 119 119 114 112 112 113 113 116 117
119 119 117 116 116 116 70 21 29 26 27 16 7 6 6 5
4 4 4 3 0 26 33 24 20 26 26 22 16 15 16 13
18 32 36 36 40 35 22 19 21 25 25 21 17 18 21 23
50 45 41 37 35 35 34 34 34 33 34 36 38 39 38 38
38 38 38 37 33 29 29 29 29 29 30 30 31 29 23 20
20 21 38 52 43 18 24 60 70 71 72 68 65 67 68 65
63 41 18 7 33 105 108 104 109 111 117 119 121 119 121 121
122 121 117 114 113 114 118 120 115 112 113 112 114 113 114 115
119 118 119 119 119 119 61 24 28 23 24 26 20 13 11 12
11 10 9 13 16 26 29 28 25 23 23 22 18 14 16 15
13 33 38 39 39 37 27 15 16 20 24 21 15 13 19 23
51 45 41 37 36 35 34 34 34 34 34 35 38 38 38 37
37 38 37 37 33 29 29 29 29 29 30 30 30 28 21 20
20 22 38 53 44 19 24 59 71 72 72 69 65 66 54 37
28 18 10 13 23 94 113 109 107 109 113 118 117 118 119 120
118 119 117 114 109 112 116 119 116 113 113 113 114 114 116 116
118 118 120 122 122 112 34 27 28 23 22 21 30 23 29 33
39 32 26 28 29 28 27 24 18 18 23 22 19 14 14 17
15 24 41 42 40 36 32 19 11 13 19 22 19 11 15 20
52 45 40 37 35 35 34 33 33 33 33 35 37 38 37 37
38 37 38 36 32 28 28 28 28 28 29 30 30 26 19 20
20 21 36 53 45 20 23 58 71 72 72 67 50 33 28 24
21 14 4 20 25 82 110 113 107 106 111 116 117 117 117 119
118 118 118 115 113 112 116 120 120 115 112 112 114 116 118 119
120 121 121 124 122 71 23 26 25 23 21 20 27 25 25 26
32 32 31 31 27 26 25 24 22 18 18 21 20 16 11 14
16 15 34 44 44 38 33 26 14 8 11 16 18 13 7 10
49 43 40 37 36 35 35 34 34 33 33 34 36 37 37 37
37 37 37 36 32 28 29 28 29 29 30 30 30 24 18 21
20 21 34 52 45 21 23 58 74 71 54 32 24 19 22 24
22 14 4 23 24 65 109 115 115 102 103 105 111 114 116 117
118 118 116 117 113 111 115 119 118 114 113 114 116 117 119 120
121 123 122 124 94 25 21 25 24 21 20 21 27 26 23 23
25 23 26 27 33 31 29 23 23 19 8 7 16 15 11 10
16 16 17 38 47 43 35 29 23 13 5 4 8 9 3 0
48 43 40 37 36 35 34 34 33 33 33 34 36 37 37 37
37 37 38 36 32 27 27 27 28 28 29 28 29 24 19 21
20 21 34 52 46 24 25 60 55 30 21 17 21 18 21 23
25 14 8 22 23 38 104 116 118 111 94 93 101 106 112 116
115 116 117 116 114 114 117 121 115 113 113 115 117 118 121 122
122 124 123 98 29 20 23 25 23 20 19 23 25 26 23 24
25 26 26 29 30 30 34 34 35 35 28 9 5 10 4 8
12 17 16 20 44 47 41 34 27 23 14 4 0 0 0 0
47 42 39 37 36 35 35 34 34 33 33 34 36 37 36 37
37 37 37 36 31 27 27 27 28 28 28 28 29 24 20 20
20 20 33 52 46 26 28 28 21 19 14 16 21 21 20 20
25 17 10 20 22 21 68 113 119 116 106 91 93 101 106 113
115 116 115 115 114 116 121 121 116 113 114 117 118 118 120 124
124 123 90 29 21 18 20 22 21 18 23 26 27 24 25 27
29 29 29 29 31 32 32 32 34 35 35 36 30 25 10 13
9 12 9 14 20 37 43 37 29 24 18 10 1 0 0 0
46 41 37 39 38 35 34 33 33 32 33 33 35 37 37 38
37 38 38 37 31 27 27 27 27 27 27 27 28 24 20 20
19 20 32 47 36 27 22 17 17 17 13 16 20 21 16 18
23 18 12 17 21 19 24 80 117 119 115 104 98 100 105 109
111 112 115 115 116 114 120 121 117 113 115 117 119 118 120 120
120 82 31 24 17 17 20 21 19 20 27 28 27 26 28 30
32 32 32 32 34 36 37 39 37 34 31 32 30 30 32 24
9 1 0 6 9 7 19 31 30 24 20 14 5 1 0 0
44 39 29 37 43 36 34 33 32 32 32 33 35 37 37 38
38 37 38 37 31 27 27 27 27 27 27 27 27 25 20 21
20 21 29 30 23 18 17 12 14 16 14 16 19 19 17 17
19 20 15 13 20 18 18 21 65 111 117 111 105 100 101 106
112 114 115 115 115 116 121 123 117 114 116 117 120 119 117 101
57 28 21 17 17 18 19 17 18 24 29 27 30 33 33 34
35 36 36 37 37 37 37 36 33 31 29 29 28 30 31 32
25 11 2 7 12 5 4 12 28 25 20 12 7 3 0 0
42 37 27 38 43 35 33 33 33 32 32 33 34 36 37 37
37 37 38 37 32 27 27 27 27 27 27 27 27 24 19 21
21 23 21 24 22 18 16 15 12 12 15 16 17 17 16 16
15 19 18 12 18 19 17 18 18 35 79 109 108 102 99 101
108 113 113 113 116 118 120 121 117 115 115 115 116 92 52 25
20 18 18 17 17 18 16 17 22 26 29 30 34 34 35 33
35 36 38 37 34 35 33 32 32 29 28 28 29 30 30 32
37 40 28 5 6 1 2 6 21 25 22 15 13 4 0 0
41 32 27 41 46 35 33 33 33 32 33 33 35 36 37 37
38 37 37 37 33 27 27 27 26 26 27 27 27 24 21 26
28 23 21 20 21 21 19 16 13 14 13 15 16 15 15 15
15 16 20 16 16 19 18 17 16 15 17 29 63 84 98 98
103 110 113 115 116 118 122 120 116 110 99 74 42 21 20 17
17 15 17 17 17 17 16 19 24 26 28 33 36 34 34 32
38 38 37 34 32 32 30 32 30 27 27 27 28 28 27 28
27 32 40 34 13 3 1 2 11 16 18 17 15 3 0 0
39 27 20 31 42 36 34 34 34 33 34 33 35 37 38 37
37 37 37 37 32 27 25 26 26 26 26 27 27 28 29 28
26 21 20 20 20 18 20 19 15 12 13 13 15 15 16 15
15 13 17 19 16 19 18 17 15 15 14 14 16 19 29 44
63 73 85 90 89 84 79 69 51 36 27 21 19 20 17 16
18 18 18 17 17 16 19 22 23 26 30 33 34 33 35 36
38 36 34 32 32 29 29 27 27 26 27 26 27 28 27 28
28 27 32 33 34 14 2 0 3 13 12 16 14 2 0 0
37 24 16 25 41 34 33 33 33 32 33 33 34 36 37 37
37 36 37 37 32 27 26 26 26 26 26 28 33 31 29 27
27 25 22 23 23 18 17 18 17 15 13 13 11 13 15 15
14 13 17 19 18 16 19 17 16 13 12 13 15 13 13 12
11 13 16 17 19 19 20 20 20 20 20 19 17 17 17 18
17 16 17 17 18 20 23 24 27 29 31 31 33 34 36 36
33 34 34 33 31 28 29 28 28 27 26 26 27 26 26 24
26 26 29 29 31 33 10 2 2 5 9 11 10 1 0 0
36 22 18 27 34 33 33 33 33 33 33 33 35 36 37 37
37 37 37 36 31 26 26 26 26 28 32 34 31 29 28 27
28 29 29 29 29 24 20 16 18 19 17 15 11 10 12 15
16 14 16 17 20 18 17 17 15 15 14 14 12 13 12 13
12 13 17 18 18 19 20 19 19 19 18 17 18 15 18 17
19 18 18 19 22 24 25 25 29 30 30 31 33 35 36 34
33 33 34 34 30 28 28 28 28 26 26 25 26 26 26 25
25 26 27 26 28 29 27 6 2 0 3 6 5 1 0 0
34 20 9 13 24 32 33 33 33 33 33 33 34 35 37 36
36 36 37 35 31 27 26 26 29 33 33 28 25 24 24 25
26 28 29 29 30 31 27 25 22 21 19 19 17 12 9 12
13 13 14 16 19 19 18 16 16 16 16 15 15 16 13 14
15 16 17 18 17 18 19 20 19 19 19 18 18 19 20 21
22 18 16 23 25 24 26 28 30 30 29 29 32 34 34 31
33 31 33 32 27 27 25 26 26 24 27 26 25 25 24 23
23 25 27 24 25 25 31 19 3 0 0 1 2 0 0 0
33 18 3 10 27 32 32 34 32 32 32 33 33 36 37 36
36 36 36 35 31 26 26 30 33 26 27 24 23 23 25 24
27 28 28 27 29 29 28 30 30 28 23 23 24 19 12 9
12 12 14 16 17 18 18 17 16 15 17 19 19 20 19 18
18 18 18 18 18 18 18 19 21 21 23 22 23 22 21 20
18 21 24 24 23 25 27 30 29 29 30 31 31 32 33 32
30 30 32 29 28 26 26 26 27 24 24 24 22 22 23 23
23 23 26 24 26 23 28 33 9 0 0 0 0 0 0 0
33 18 4 9 29 32 33 33 32 32 33 33 34 35 36 35
35 35 36 35 31 27 31 32 24 22 22 22 22 23 25 24
27 26 28 26 28 27 28 28 28 29 28 27 28 25 20 13
11 12 12 14 16 17 16 17 17 15 14 13 15 19 21 21
21 21 21 20 20 20 20 22 21 22 22 22 18 15 15 19
21 25 23 22 24 27 27 28 28 29 30 31 31 31 31 31
29 30 30 29 26 24 24 24 25 25 22 23 24 23 22 23
22 24 26 23 25 22 27 29 25 1 0 0 0 0 0 0
35 20 8 12 31 32 33 32 31 32 32 32 33 35 36 35
35 35 35 35 32 31 32 22 20 20 22 20 21 21 23 24
26 27 28 29 28 27 28 27 27 27 28 25 26 26 25 23
18 14 12 13 15 17 16 16 17 14 13 12 11 11 11 13
16 19 20 19 20 20 21 20 20 16 14 13 14 16 19 21
23 22 22 22 25 26 26 27 26 26 28 29 29 29 29 29
28 28 29 27 26 24 24 24 24 24 22 21 21 22 22 22
19 19 24 21 21 22 25 26 28 13 0 1 2 0 0 0
37 23 15 27 38 32 32 32 32 32 33 33 34 35 36 36
35 35 35 35 35 34 23 18 19 19 20 20 21 22 26 26
27 28 30 29 27 26 27 28 26 26 27 27 27 25 26 26
23 22 17 14 14 15 16 15 15 14 15 13 12 10 10 10
9 9 11 10 11 11 11 11 11 12 16 16 17 21 24 24
23 21 23 25 25 26 26 26 26 25 28 27 29 28 28 27
27 27 26 24 24 22 23 24 24 25 23 21 23 23 22 23
18 20 24 20 19 23 26 25 24 25 3 0 0 0 0 0
35 21 18 34 40 32 32 33 32 32 32 32 33 34 35 35
35 35 35 35 37 28 20 19 19 19 18 18 22 24 24 24
26 27 30 29 27 26 27 27 26 26 26 26 26 25 26 25
24 24 22 22 18 16 15 15 15 13 15 17 15 15 15 14
14 13 13 10 11 12 13 14 15 17 17 20 22 24 23 23
21 20 24 25 25 25 26 26 25 25 27 27 27 29 28 27
28 25 25 24 23 22 24 24 23 25 25 23 23 23 23 22
16 19 23 20 16 19 25 25 25 24 17 0 0 0 0 0
