P2
128 120
152
36 37 36 37 37 38 37 38 38 38 39 39 40 40 40 41
41 42 42 42 42 43 43 43 43 43 44 44 44 44 45 45
45 45 45 45 46 46 46 46 45 46 46 46 46 46 46 45
45 45 46 45 45 45 44 44 45 44 44 43 43 43 43 42
43 42 42 41 41 41 40 40 39 38 38 38 37 37 36 36
35 35 35 35 34 33 34 33 33 32 32 31 31 31 31 32
31 32 32 31 32 32 32 33 32 32 33 33 33 34 34 34
35 35 36 37 36 37 37 38 39 39 40 40 41 40 40 41
36 36 36 36 37 37 38 39 40 40 40 41 41 41 42 42
43 43 42 42 43 43 43 43 44 45 45 44 45 45 45 45
45 46 45 45 46 46 45 46 47 46 47 47 47 46 47 46
46 46 46 45 45 45 46 45 45 45 45 45 44 44 44 43
43 42 42 42 42 41 41 40 40 39 39 39 38 38 37 37
37 36 36 35 35 34 34 34 33 33 33 33 33 33 33 33
33 33 33 33 33 33 33 32 33 33 33 33 34 34 35 36
36 36 37 37 38 37 38 39 39 40 40 41 41 42 42 43
36 36 37 37 38 39 39 39 39 40 41 40 41 42 42 42
43 43 43 44 44 44 44 44 44 44 45 44 45 44 45 45
46 45 46 46 46 47 47 46 47 47 46 47 47 47 47 46
46 46 46 46 46 46 46 46 46 45 45 45 44 44 43 43
43 43 43 43 43 42 41 41 41 41 40 39 39 38 38 37
38 37 37 36 36 36 36 35 35 35 35 34 34 34 34 33
34 33 33 33 34 33 34 34 34 34 35 34 35 35 35 35
36 36 37 38 39 38 40 40 40 41 42 42 43 43 43 43
37 37 37 38 39 39 39 40 40 41 41 41 41 42 43 43
43 44 44 44 44 44 44 44 45 45 45 45 46 46 46 47
47 46 46 46 47 47 47 47 47 47 47 47 47 47 47 47
47 47 46 47 46 46 47 46 46 46 46 46 46 45 45 45
45 45 44 44 44 43 43 42 42 42 41 41 41 40 40 39
38 38 37 37 37 37 36 36 36 35 35 35 35 35 34 34
35 35 35 35 35 34 34 35 34 34 35 35 36 36 37 37
38 38 39 39 40 40 41 41 40 41 42 42 43 43 44 44
37 37 38 38 39 39 40 40 40 41 41 42 42 42 43 43
44 44 44 44 44 45 45 45 45 46 46 46 46 46 46 46
46 47 47 47 47 47 47 47 47 47 47 47 47 47 47 46
46 46 46 46 46 46 47 47 46 45 46 46 46 46 45 44
44 44 44 43 43 43 42 43 42 42 42 41 41 40 39 39
38 38 38 37 37 37 37 36 36 36 36 36 36 35 35 35
35 35 35 35 35 35 35 35 36 35 36 36 36 36 36 37
38 37 38 39 39 39 40 40 41 42 42 42 43 43 44 44
37 37 38 38 38 39 39 40 41 41 41 41 42 42 43 43
43 44 44 44 45 44 44 45 45 45 45 45 45 46 45 46
46 46 46 46 46 46 46 46 46 46 46 46 46 47 47 47
47 47 47 47 46 46 46 45 46 45 45 45 45 44 44 44
44 44 43 43 43 43 43 42 42 41 40 40 39 40 39 39
38 38 38 38 37 37 37 36 36 36 35 35 35 35 35 34
35 34 34 35 35 35 34 35 34 35 35 35 35 36 36 37
37 37 38 38 39 39 40 40 40 41 41 42 42 43 43 43
36 37 38 38 38 38 40 40 40 40 40 41 41 42 42 42
43 43 43 44 44 44 45 45 45 45 45 45 46 45 45 45
46 45 46 46 46 46 46 45 46 46 46 46 46 46 47 46
46 46 46 46 46 46 46 45 45 45 45 45 44 44 44 44
44 43 43 42 42 42 42 42 41 41 41 40 40 40 39 39
39 38 38 37 37 36 36 36 36 36 36 36 36 35 35 35
34 34 34 34 34 34 34 34 35 34 35 35 36 36 36 36
37 37 38 38 39 39 40 40 40 41 41 42 42 43 43 43
37 37 38 38 38 38 39 39 40 40 40 41 41 41 41 42
42 42 43 43 43 44 44 44 44 45 45 45 46 46 46 46
45 46 45 45 46 46 46 46 46 46 45 45 45 45 45 46
46 45 46 45 45 46 45 45 45 45 45 45 45 44 44 44
44 44 44 43 43 42 43 42 42 41 41 40 40 39 39 39
39 38 38 37 37 37 37 36 36 36 36 36 36 35 35 34
35 34 34 34 34 34 35 35 35 35 36 36 36 36 36 36
37 37 37 38 38 38 39 39 40 40 41 41 42 42 43 43
37 37 38 38 39 38 39 39 40 40 40 41 41 42 42 43
42 42 43 43 44 44 44 44 44 45 46 45 45 45 46 46
46 45 45 45 45 45 45 46 46 46 46 46 46 46 46 46
46 46 46 46 45 46 45 45 45 45 45 45 45 45 45 44
44 44 44 43 43 43 43 42 42 41 41 40 40 40 40 39
39 39 38 37 37 37 37 36 36 37 36 35 36 35 35 35
35 35 35 35 35 35 35 35 35 35 36 35 36 36 36 36
37 37 37 38 38 38 39 39 40 40 41 41 41 41 42 43
37 37 38 39 39 39 40 40 40 40 41 40 41 41 42 42
42 43 43 43 44 44 45 44 45 45 45 45 45 45 45 45
45 46 45 45 46 46 45 46 46 45 46 46 46 46 46 46
46 46 45 46 46 46 45 45 46 45 45 45 45 44 45 44
44 43 43 43 43 43 43 42 42 41 41 41 40 40 40 40
39 38 38 38 38 38 37 37 37 37 36 36 36 36 35 35
35 34 35 35 35 34 35 35 35 35 36 36 36 36 37 37
37 37 37 37 38 38 39 39 39 40 41 41 42 43 43 42
37 37 38 38 38 39 39 39 39 40 40 40 41 41 41 42
42 43 42 43 43 43 43 44 44 44 45 45 45 45 45 45
46 46 46 46 46 45 46 45 45 46 46 45 46 46 45 46
45 46 46 46 45 45 46 45 45 45 45 45 45 44 44 44
44 44 44 44 43 42 42 42 41 42 41 40 41 40 40 39
39 39 39 38 38 37 37 37 37 36 36 36 36 36 35 35
35 35 36 35 35 35 36 35 35 35 35 35 36 35 36 36
37 37 38 38 38 39 40 40 40 40 40 41 42 42 42 42
37 37 38 38 38 38 39 39 40 40 40 40 40 41 41 41
41 41 42 42 43 43 44 44 45 44 45 45 45 44 44 44
45 45 46 45 46 45 46 45 46 45 45 45 46 45 45 45
45 45 45 45 45 45 45 45 45 45 45 45 45 45 44 44
44 43 43 43 43 43 42 42 42 42 42 41 41 40 40 40
39 39 39 38 38 37 37 36 36 36 36 36 35 35 36 35
35 35 34 35 35 35 35 35 35 35 35 36 36 36 36 36
36 37 37 38 38 38 39 39 39 40 40 41 41 41 41 42
37 37 38 38 38 38 39 39 39 40 40 40 41 41 41 42
42 43 43 43 43 43 44 44 44 44 44 44 44 44 45 45
46 46 45 46 46 46 46 45 45 45 45 45 45 45 45 45
46 45 45 45 45 46 45 45 45 45 45 44 44 45 44 44
44 44 44 43 43 43 43 42 41 41 42 41 40 40 40 39
40 39 39 38 38 38 38 37 37 37 36 36 36 36 36 36
35 35 35 35 36 36 36 36 36 35 36 35 35 36 36 36
37 37 37 37 38 39 39 38 40 39 40 41 40 41 41 42
37 37 37 37 38 39 39 38 39 40 40 41 41 41 41 41
42 42 42 42 42 42 43 44 44 44 44 44 44 45 45 45
45 44 45 45 46 45 45 46 46 45 45 45 45 46 45 46
45 45 45 45 45 45 45 45 46 45 45 45 45 44 44 44
44 44 44 43 42 43 42 41 42 41 42 41 41 41 41 40
40 39 39 38 38 38 38 37 38 37 37 36 37 36 36 36
36 35 35 35 35 35 35 35 36 35 35 35 36 36 36 36
37 37 38 38 38 38 39 39 39 39 40 40 41 42 42 42
37 37 38 38 38 39 38 39 39 39 40 40 40 41 41 42
42 42 42 42 43 43 43 43 43 44 44 44 44 44 44 45
45 45 46 46 45 45 46 46 46 45 45 46 45 45 45 45
45 45 45 45 45 45 45 45 45 45 45 45 45 44 44 44
44 44 44 43 43 43 43 43 42 42 42 41 41 41 40 40
39 39 39 38 38 38 38 37 37 37 37 37 36 36 36 36
36 35 36 35 35 35 36 35 36 35 36 36 36 36 36 36
37 37 37 38 38 39 38 39 40 40 41 40 40 41 40 41
37 37 37 37 38 38 39 39 40 40 40 40 41 41 41 41
42 42 42 42 43 43 43 43 44 44 44 44 44 44 45 45
45 45 45 45 44 45 45 46 45 45 46 46 46 46 46 45
45 46 46 45 45 45 45 45 45 44 45 45 45 44 45 44
44 44 44 44 43 43 43 42 42 42 42 41 41 41 41 40
39 39 39 39 38 38 38 37 37 37 37 37 37 36 36 36
36 36 37 36 36 35 36 36 36 35 36 36 36 37 36 37
37 37 38 38 38 38 38 39 39 39 40 40 40 40 40 41
37 37 37 37 38 38 39 39 39 40 40 41 41 41 41 42
42 42 42 42 43 43 43 43 44 44 44 44 44 44 45 44
45 45 45 44 44 45 45 45 46 45 46 45 45 45 45 45
46 45 46 45 46 45 45 45 45 45 45 45 45 44 44 44
43 43 43 43 43 42 42 42 42 41 42 41 41 41 41 40
40 39 39 38 38 38 38 37 38 38 37 37 38 36 37 36
37 36 36 36 35 35 36 35 35 35 35 36 36 36 36 37
37 37 37 38 37 38 38 38 39 39 39 40 40 40 41 41
37 37 37 38 37 39 39 39 39 40 40 40 40 41 41 41
41 42 42 42 42 43 43 43 43 44 44 44 44 44 44 45
45 45 45 45 45 44 46 45 45 45 45 45 45 45 46 46
46 46 46 46 46 45 45 45 45 44 45 44 44 44 44 44
44 43 43 43 43 43 42 42 42 42 42 42 42 40 41 40
40 40 39 39 39 39 38 38 38 37 37 37 37 36 36 36
36 36 36 36 36 35 36 35 35 35 35 36 36 36 36 37
37 37 37 38 38 38 38 38 38 39 39 39 40 40 40 40
37 37 37 38 38 38 39 39 40 40 40 40 40 41 40 41
41 41 42 42 43 43 43 43 43 43 44 43 44 44 44 44
44 44 45 44 44 45 45 45 45 45 46 45 45 45 45 46
45 45 45 45 45 45 45 44 45 44 44 44 44 44 44 44
44 43 43 43 42 42 42 42 41 42 41 41 41 41 41 40
40 39 39 39 38 38 38 37 38 37 37 37 37 37 37 36
36 36 36 36 35 35 36 35 35 35 36 36 36 36 37 36
37 37 38 38 38 37 37 38 39 38 39 39 40 40 41 40
37 37 37 37 38 38 39 38 39 39 40 39 40 41 41 41
41 42 42 42 43 43 43 43 43 43 44 44 44 44 44 44
44 43 43 44 44 44 45 44 45 44 45 45 45 45 45 45
45 45 45 45 45 45 45 45 45 45 44 44 44 43 43 43
44 43 43 43 42 42 42 42 42 42 41 40 41 41 40 40
40 39 38 38 38 38 38 38 38 38 37 37 37 36 36 37
36 36 36 36 36 36 36 36 36 36 36 36 36 36 36 36
36 36 37 37 37 37 37 38 38 39 39 39 39 39 39 39
37 36 37 37 38 38 39 39 39 40 40 40 41 41 41 41
42 41 42 42 42 42 43 43 43 43 43 43 44 44 43 44
44 44 44 44 44 44 44 44 44 45 45 45 45 45 46 45
45 45 45 45 44 45 45 44 45 44 44 44 44 44 44 44
44 44 43 42 42 42 42 42 41 41 41 41 41 41 40 40
40 40 39 38 38 38 38 38 38 37 37 37 37 37 37 37
36 36 36 35 36 35 36 35 36 35 35 35 36 35 36 37
37 36 36 36 37 37 37 37 38 37 38 38 39 39 39 40
36 37 37 37 38 39 39 39 39 39 39 39 40 40 41 40
41 41 42 42 42 42 43 43 42 43 43 43 44 43 43 43
43 43 44 44 44 44 45 45 45 45 44 44 44 44 45 45
45 44 45 45 45 45 45 45 44 44 44 44 44 44 43 43
43 43 42 42 42 42 42 42 41 41 42 41 41 40 41 40
40 39 39 38 38 38 38 38 38 38 37 38 37 36 37 36
36 36 36 36 36 36 36 36 36 36 36 36 36 36 36 36
36 36 36 37 37 37 37 38 38 38 38 38 39 39 39 39
37 37 38 38 38 38 39 38 39 39 40 39 40 41 41 41
42 42 42 42 42 42 42 42 43 43 43 43 43 44 44 44
44 44 44 44 44 44 44 44 44 44 44 44 44 44 44 44
44 44 45 45 45 45 44 44 44 43 43 44 44 44 44 43
43 43 43 43 42 42 42 42 41 41 41 41 41 40 40 40
40 39 39 39 39 39 38 38 37 37 37 37 37 37 37 35
36 36 36 36 36 35 36 36 36 36 35 36 36 36 36 36
37 36 37 37 37 37 37 38 37 37 38 38 38 38 38 39
37 37 38 38 38 38 39 39 39 39 39 40 40 40 40 41
41 41 42 42 42 42 42 43 43 43 43 43 43 44 43 43
43 43 44 43 44 43 44 44 44 44 44 44 44 44 44 45
44 44 44 44 44 44 44 45 44 44 44 44 44 44 44 43
43 43 42 42 42 42 42 42 42 41 41 41 41 40 40 39
40 39 39 39 39 38 38 38 38 38 38 37 37 37 37 37
36 36 36 36 36 36 36 36 35 36 36 36 36 35 35 36
35 36 36 36 36 37 37 37 37 37 38 38 39 39 38 38
38 38 38 38 39 38 39 39 39 39 40 40 40 40 41 41
41 41 42 42 42 42 42 42 43 43 42 43 43 43 43 43
44 43 44 45 44 44 43 44 44 43 44 44 44 44 44 44
44 44 44 44 45 44 44 44 44 44 44 44 44 44 44 44
44 43 42 42 41 42 42 41 41 41 41 41 41 41 41 40
40 40 40 39 40 39 38 38 38 38 38 37 38 37 37 37
37 37 37 36 36 37 37 37 36 36 36 35 36 36 36 36
36 36 36 36 36 37 37 37 38 38 38 38 38 38 39 39
38 38 38 38 39 39 39 39 40 39 40 40 41 41 41 41
41 41 42 42 42 42 42 42 43 43 43 43 43 43 43 43
44 43 43 44 44 44 43 44 44 44 44 45 44 45 44 44
45 44 44 44 44 44 44 44 44 44 44 44 44 44 43 43
43 42 42 41 36 41 42 41 41 40 42 41 41 41 41 40
40 40 40 39 38 38 38 38 38 38 37 37 38 38 37 37
37 37 37 36 36 36 36 35 36 36 35 36 36 35 36 36
36 36 36 37 37 36 37 37 37 37 38 38 38 38 38 38
38 39 39 39 39 39 40 40 40 40 41 40 41 40 41 42
41 41 42 42 43 43 42 43 43 43 43 43 44 43 44 43
44 44 44 44 45 44 45 44 44 44 44 44 44 43 44 44
44 44 45 45 45 44 45 44 45 45 44 43 44 44 44 43
42 38 37 39 35 38 43 42 41 42 41 41 42 41 41 40
40 40 40 40 39 39 39 38 38 37 38 37 37 37 37 37
37 36 36 36 36 37 37 36 36 36 36 36 36 36 36 36
37 36 37 37 37 37 37 37 37 38 37 38 38 38 38 38
38 38 39 39 39 39 40 40 39 40 40 40 41 41 41 42
42 42 43 42 42 42 42 43 43 43 43 43 43 44 44 44
44 44 44 43 43 43 44 43 44 43 44 44 43 44 44 44
44 44 45 44 44 44 44 44 44 44 44 44 44 44 44 41
37 35 29 32 35 37 39 39 41 40 40 41 41 40 40 40
40 40 40 39 39 38 39 38 38 38 38 38 38 38 38 37
38 37 37 36 37 37 36 36 37 36 36 36 35 35 36 36
36 36 36 36 36 37 37 37 37 37 37 37 38 38 38 37
37 38 40 39 40 40 41 41 41 40 41 41 41 41 41 41
42 41 42 42 42 43 43 43 43 42 43 43 44 43 43 43
44 43 44 44 44 44 44 44 44 44 44 44 44 44 44 44
44 44 44 44 45 44 45 45 44 44 44 44 43 43 42 36
28 25 21 22 32 34 32 39 38 39 39 40 41 41 41 40
40 40 40 39 39 39 39 39 39 38 38 38 38 38 37 38
38 37 37 36 36 36 36 36 37 36 36 36 37 36 35 36
36 36 36 36 37 37 36 36 37 37 37 37 38 37 38 38
26 26 28 30 32 34 36 37 38 40 41 41 41 42 43 42
42 42 43 43 43 42 42 43 43 44 43 43 44 44 44 44
44 44 45 44 44 44 44 44 45 44 44 44 44 44 44 44
44 44 45 44 45 44 44 44 44 43 43 43 42 42 34 23
21 18 17 13 19 29 26 26 27 34 35 35 39 40 40 40
41 40 40 41 40 38 39 39 38 38 38 38 38 37 38 37
37 37 37 36 37 36 37 36 37 36 36 36 36 36 36 36
37 36 37 37 37 37 37 37 37 37 37 37 37 38 38 37
21 21 21 22 22 23 23 24 24 25 26 27 29 32 34 35
37 39 40 41 43 43 43 44 44 44 44 44 44 45 44 44
44 44 44 44 44 43 44 44 44 43 44 44 43 43 44 44
44 43 44 44 45 44 44 44 44 43 42 39 32 26 24 24
18 8 7 7 7 16 19 16 17 32 29 30 36 37 38 40
40 40 39 39 39 39 38 38 38 38 38 39 38 38 38 37
37 37 37 36 37 36 36 36 36 36 36 37 36 36 36 39
50 46 43 41 39 37 37 36 37 37 36 37 37 37 38 39
19 19 19 19 21 20 21 20 20 21 21 20 20 22 23 23
22 23 24 25 27 28 30 33 34 36 38 41 43 43 44 44
45 45 44 44 44 44 44 44 44 44 44 44 44 44 44 44
44 43 44 44 45 44 45 44 43 42 33 23 27 23 16 11
18 13 9 10 8 10 11 13 17 28 28 28 33 28 27 33
38 40 40 39 40 39 39 39 39 38 39 38 38 38 38 38
37 37 37 37 37 37 37 36 36 37 37 36 36 36 36 37
55 56 54 55 52 50 50 49 46 43 40 37 37 37 39 46
15 14 15 15 16 17 18 18 18 19 19 18 18 19 19 20
20 20 20 19 19 18 18 18 18 19 20 21 23 25 27 28
32 35 37 39 41 41 43 44 44 45 45 45 45 45 44 45
44 44 44 44 43 44 44 41 30 25 19 23 19 16 14 12
9 8 12 15 21 16 13 18 23 23 25 24 24 16 18 30
36 38 41 40 40 40 39 38 39 38 38 38 38 38 38 37
37 38 37 37 37 37 37 36 36 36 36 36 36 36 36 34
50 47 20 24 28 29 35 48 53 57 58 41 37 37 37 41
22 18 16 17 17 16 15 15 14 15 16 16 15 17 18 19
18 19 19 18 18 18 19 19 18 18 18 17 17 17 18 16
17 18 18 19 20 22 24 27 30 32 35 37 41 45 44 44
44 44 44 44 44 43 39 29 32 22 19 20 18 12 5 3
1 6 7 3 9 14 15 20 21 20 18 17 10 17 29 33
33 37 39 40 40 40 39 39 39 39 39 38 38 38 38 37
38 37 37 37 37 37 37 36 37 37 36 37 37 37 36 33
45 43 3 0 0 2 9 8 12 31 58 44 37 38 32 33
30 26 30 31 28 29 29 27 26 25 21 21 21 19 17 16
15 14 15 15 15 15 16 16 15 15 16 17 18 18 18 16
16 17 16 16 16 16 15 13 10 11 13 15 30 44 45 44
44 44 44 44 44 43 35 25 22 23 21 16 15 5 1 1
4 4 13 2 2 1 5 12 12 11 18 13 16 25 30 33
30 30 39 40 40 39 39 39 39 39 38 38 38 38 38 38
38 38 38 38 38 38 38 37 37 37 36 37 36 37 37 34
46 48 6 0 0 1 4 2 0 11 57 48 37 37 31 26
31 25 29 32 28 33 34 30 33 29 26 30 34 33 32 31
30 28 27 25 23 22 21 18 16 15 15 15 15 16 16 15
13 14 14 14 15 16 15 13 11 10 10 11 29 45 45 44
44 44 44 44 40 31 29 28 23 19 14 12 6 2 3 2
1 7 16 4 1 0 1 1 6 5 8 10 18 27 31 30
29 29 39 39 40 39 39 39 39 39 39 39 39 38 38 38
39 38 38 38 37 37 37 37 37 37 37 36 36 36 37 33
45 51 10 0 0 0 0 0 0 5 54 52 36 37 31 21
32 26 31 31 28 31 33 30 32 25 30 29 35 35 35 36
36 36 32 30 34 33 31 30 30 32 30 29 27 24 23 21
19 17 17 16 15 14 15 14 13 13 14 14 28 44 45 45
45 44 44 41 36 30 32 26 19 19 10 5 1 7 27 47
68 78 70 83 72 49 21 4 0 0 7 12 18 30 28 26
31 27 35 40 40 40 40 39 39 39 39 39 38 38 38 38
38 38 38 37 37 37 38 37 37 37 37 36 36 36 36 33
43 56 17 0 0 0 0 1 0 1 47 55 36 37 31 21
32 30 31 30 29 30 32 30 31 29 33 29 35 35 35 35
35 35 30 31 35 32 29 35 36 35 30 35 31 30 31 33
35 33 33 30 30 28 25 23 21 17 16 16 29 44 44 44
44 43 42 38 30 25 15 12 10 13 5 6 28 71 84 87
93 91 87 98 95 94 88 72 34 4 4 12 22 24 24 30
28 27 32 38 38 37 38 39 38 38 38 38 38 38 39 39
38 37 37 37 37 37 37 37 37 36 36 36 36 36 37 33
39 56 24 0 0 0 0 0 0 0 37 56 36 36 30 20
32 33 33 32 33 33 34 33 34 33 34 32 35 35 35 35
36 35 35 33 31 35 32 37 36 31 31 35 33 33 37 35
35 34 35 32 36 37 37 36 34 22 15 17 29 43 43 43
44 43 41 30 20 13 8 12 10 7 18 55 84 91 93 92
95 95 95 99 98 94 93 93 87 63 14 7 28 24 27 28
29 33 29 36 38 37 39 38 39 38 39 38 38 38 39 39
39 42 43 42 41 39 38 38 37 37 36 36 36 36 35 32
34 55 32 0 0 0 0 0 0 0 30 58 39 35 29 19
32 32 33 33 33 33 33 33 34 34 34 34 35 35 36 35
35 34 31 30 32 35 33 36 35 31 32 34 34 35 37 35
34 33 34 32 35 37 37 36 36 23 14 16 29 44 43 43
43 43 39 23 20 23 21 18 16 13 12 17 31 33 58 82
104 106 109 110 107 88 60 43 34 27 21 14 20 25 28 28
29 30 29 37 35 38 38 37 37 37 38 38 37 37 37 44
43 46 47 48 49 46 43 40 39 36 35 36 36 36 36 31
31 56 41 1 13 10 2 0 0 0 24 56 40 34 29 19
31 31 31 31 32 32 33 33 32 32 33 34 34 34 35 34
35 35 35 35 36 36 36 36 36 36 36 35 37 37 37 35
32 35 37 33 31 36 38 37 37 25 17 17 29 44 44 44
43 41 17 20 12 3 0 1 34 88 115 75 76 57 7 17
50 82 81 85 45 39 54 86 118 120 116 111 91 61 13 13
19 17 31 34 36 39 38 38 38 38 38 38 38 38 38 46
43 46 47 48 49 48 45 41 40 36 36 36 36 36 35 31
27 50 45 7 26 26 13 4 9 7 33 54 42 33 29 19
33 33 33 33 33 33 33 34 34 33 33 34 35 35 35 35
35 34 31 33 33 34 34 35 36 37 37 37 37 38 38 38
37 38 37 35 34 37 38 37 36 24 17 17 30 44 44 43
43 36 4 18 7 0 31 108 110 55 9 1 0 0 0 1
22 44 39 19 31 94 69 18 10 5 9 13 24 41 58 15
13 11 18 32 35 37 39 39 38 38 38 38 38 38 40 48
46 45 44 44 45 46 44 39 37 23 25 28 30 32 34 29
25 42 44 27 31 30 28 22 24 22 32 50 40 32 29 19
32 32 33 33 33 33 34 34 34 34 35 35 35 35 36 36
35 35 36 35 35 36 35 35 35 35 35 34 36 36 37 37
37 38 38 37 37 37 38 37 36 22 16 17 31 44 44 43
42 31 3 2 1 69 112 35 0 0 0 0 0 0 0 8
77 117 110 62 15 1 0 0 0 0 0 0 2 0 0 0
0 7 10 27 33 34 37 38 39 39 39 39 39 38 41 48
45 46 45 44 45 46 44 45 36 15 18 18 20 20 21 22
20 29 32 32 33 34 35 36 37 34 32 38 34 32 29 20
33 33 34 34 33 34 34 34 34 34 34 35 35 35 35 35
36 36 36 37 36 37 37 37 37 37 37 36 37 36 36 35
36 36 36 36 36 37 38 37 36 23 16 16 32 44 44 43
39 22 3 0 19 55 5 0 0 0 0 0 0 0 7 57
113 122 122 109 50 0 0 0 0 0 0 0 0 1 0 0
0 5 2 18 27 33 34 37 38 38 39 38 38 38 41 50
47 47 47 47 47 45 44 48 36 17 20 19 20 20 20 20
21 20 20 19 19 17 17 17 18 19 21 23 26 31 29 19
33 33 33 34 34 34 34 34 35 35 34 35 35 35 36 36
35 36 36 36 36 36 37 37 37 38 38 38 38 38 38 38
38 38 38 37 37 38 38 38 36 25 20 20 33 44 44 39
28 9 3 0 0 0 0 0 0 0 0 0 0 0 14 102
122 125 129 120 96 13 0 0 0 0 0 33 54 48 43 18
0 6 1 15 22 28 32 34 37 39 38 38 38 38 42 50
47 46 47 47 48 47 48 48 35 20 19 18 14 16 18 18
19 19 21 21 22 22 21 25 21 15 16 16 19 22 22 17
33 34 34 34 34 34 34 34 34 35 34 34 35 35 36 35
36 36 37 37 37 37 37 37 37 38 38 38 39 38 39 38
38 39 39 38 39 39 38 38 37 24 20 22 33 44 43 31
18 7 2 0 0 0 0 0 3 0 0 0 0 0 49 115
117 122 127 121 115 47 1 0 0 0 0 31 44 39 47 64
36 6 0 10 15 21 25 34 37 39 38 39 39 39 42 52
51 48 44 46 47 47 47 47 36 23 20 19 12 25 25 21
20 23 30 31 30 31 35 41 33 20 20 19 19 19 20 14
33 33 34 33 34 34 35 35 35 34 35 35 36 35 36 35
37 36 37 37 37 37 37 37 38 38 38 38 39 38 38 38
39 38 38 39 38 39 39 38 37 23 18 19 33 44 41 20
15 9 1 1 0 0 3 50 110 8 0 0 0 7 86 85
56 116 116 40 95 93 5 1 0 0 0 0 0 0 0 0
0 9 0 13 14 15 22 24 33 37 38 39 39 39 42 52
50 48 45 45 46 45 45 46 37 23 20 20 13 27 32 37
42 42 42 36 35 39 43 47 41 27 30 25 23 22 20 14
29 31 28 32 33 31 34 34 34 34 35 34 34 34 36 36
36 36 37 37 38 38 38 38 38 38 39 38 39 39 38 38
39 38 38 38 39 39 39 39 37 25 19 18 33 44 31 15
17 5 1 8 3 4 66 116 21 0 1 3 4 26 105 23
27 113 113 35 25 114 44 3 4 1 0 0 0 3 5 2
9 6 0 11 17 17 20 20 23 36 40 40 40 39 43 52
49 49 48 48 47 47 47 49 39 23 21 20 11 25 27 36
51 50 48 42 39 46 47 45 44 27 31 35 40 37 33 28
30 26 26 34 30 30 35 32 33 30 34 32 31 33 35 36
37 37 37 38 38 37 38 38 38 38 39 38 39 39 40 39
39 40 40 40 40 40 39 39 36 24 20 20 34 43 24 16
12 6 2 5 21 32 62 19 5 4 2 0 7 85 81 7
82 115 118 94 9 79 115 22 0 3 8 7 7 10 15 22
22 7 3 5 10 18 18 19 24 31 40 39 39 39 43 52
49 48 48 49 50 50 50 50 40 24 20 19 11 22 21 27
50 50 48 43 36 28 19 13 40 24 20 30 23 12 13 15
31 28 27 32 31 31 33 32 33 31 31 32 33 32 33 37
36 37 37 37 38 38 38 38 39 39 39 39 39 39 39 39
40 39 39 39 39 39 39 39 37 21 19 19 34 41 22 12
13 10 4 9 49 94 80 31 5 5 21 46 86 120 67 47
111 118 119 116 69 63 132 99 64 33 14 4 7 28 50 65
50 32 2 3 7 11 20 18 17 26 37 39 39 39 42 52
47 46 45 48 49 49 52 50 40 24 19 19 11 17 6 9
32 21 13 9 5 2 2 3 34 31 20 28 15 0 0 0
34 34 34 34 34 34 34 34 34 34 32 34 34 35 36 37
37 37 38 38 38 39 39 38 38 38 39 38 39 38 39 39
39 39 39 39 40 40 40 39 37 22 16 19 35 42 19 13
13 2 4 25 85 115 95 66 74 67 82 95 103 116 109 99
102 104 110 106 106 111 120 103 99 90 87 71 71 71 100 108
74 44 6 1 8 9 17 15 18 19 34 40 39 39 42 52
46 45 45 46 48 49 50 50 40 24 18 18 11 14 3 1
19 9 2 3 3 5 4 3 22 39 20 26 15 0 0 9
35 35 35 35 35 35 35 35 36 36 36 36 36 37 37 37
37 37 37 38 38 38 38 39 38 38 39 39 39 39 39 39
40 39 39 40 40 40 39 39 36 23 19 21 36 40 23 20
12 2 13 52 103 107 91 97 103 102 97 97 97 102 98 96
102 103 101 101 99 99 104 101 100 105 115 117 110 92 88 106
96 52 14 0 9 10 15 24 14 10 32 39 39 40 42 52
48 46 46 47 48 48 48 48 40 24 17 17 12 13 3 1
12 15 4 5 5 15 16 6 8 42 20 24 18 0 1 5
34 35 35 35 35 35 35 36 36 36 37 36 36 36 36 37
37 37 37 38 38 38 38 39 39 39 39 39 39 39 39 39
40 40 39 39 40 40 40 39 37 24 22 22 35 37 21 23
14 1 16 78 105 99 108 116 120 117 105 101 101 96 99 107
111 107 106 109 108 102 96 103 110 115 120 121 118 112 103 97
105 69 12 2 4 8 7 17 14 11 34 40 39 39 41 51
47 46 47 47 48 48 48 49 41 25 17 17 15 11 2 0
6 23 6 2 5 8 9 5 2 40 21 19 18 0 0 5
35 35 35 35 35 35 35 35 35 35 36 36 37 37 37 37
38 38 38 38 38 39 38 39 38 38 39 39 40 39 39 40
40 39 39 40 40 39 39 39 37 22 20 22 34 28 9 11
11 0 25 91 102 111 117 120 118 110 106 108 101 107 111 110
106 103 101 105 109 110 109 102 108 114 116 120 121 119 112 106
98 85 17 0 5 13 10 15 14 18 38 39 39 39 40 51
48 47 48 48 48 48 49 50 42 26 19 17 23 27 19 3
1 27 15 2 1 0 1 0 0 32 22 18 22 0 0 6
34 35 34 35 35 35 35 36 36 36 37 37 37 37 37 37
37 37 38 38 38 39 39 38 39 39 39 39 39 39 39 39
40 39 39 39 39 40 40 39 37 20 20 23 34 20 5 17
9 0 41 90 113 116 120 120 107 106 111 105 115 115 110 102
99 97 88 90 89 102 111 115 106 109 111 114 122 122 116 114
107 86 41 0 2 15 26 18 17 18 38 40 40 40 41 52
51 48 47 47 47 46 47 47 42 25 19 17 11 7 7 1
0 21 18 5 0 0 0 0 0 26 34 33 29 0 1 7
35 35 35 35 35 36 36 36 35 36 36 36 37 37 36 36
37 38 37 38 38 38 38 38 39 38 39 38 39 38 39 39
40 39 39 39 40 40 40 39 36 17 17 22 32 16 4 10
7 4 52 103 117 119 123 111 98 104 105 111 117 103 94 97
128 140 118 136 85 79 97 115 123 111 107 107 116 124 121 116
116 96 62 2 0 6 22 20 14 19 39 42 41 39 39 51
50 48 48 49 50 49 50 49 42 26 20 19 7 0 0 1
1 14 20 8 0 0 0 0 0 15 45 41 32 0 0 0
35 35 35 35 35 35 35 36 36 36 36 36 36 37 37 37
37 37 37 37 38 38 38 39 39 39 40 39 40 39 39 39
39 39 40 39 40 39 39 39 36 16 14 19 31 14 10 22
8 10 65 113 120 120 123 110 97 102 109 109 90 76 112 136
140 126 111 132 125 130 81 87 106 114 107 105 115 125 124 121
119 109 72 7 0 5 15 12 11 18 42 45 44 39 38 51
49 48 47 47 46 49 50 50 44 27 20 20 10 2 4 9
10 8 25 8 0 0 0 0 0 4 45 44 35 0 0 0
34 35 35 35 35 35 36 36 36 36 36 36 36 37 37 37
37 38 38 38 39 39 39 39 39 39 40 39 39 39 39 39
39 39 39 40 40 40 40 40 37 17 14 20 33 17 15 17
6 18 81 118 122 121 126 116 100 108 103 80 64 109 126 88
67 54 55 54 52 113 121 83 74 101 113 108 119 121 125 121
121 115 85 18 4 3 18 17 9 17 43 47 46 40 38 51
49 48 49 47 48 47 48 51 45 28 21 19 13 5 10 14
5 2 22 1 0 0 0 0 0 1 40 45 37 1 1 1
34 34 34 34 35 33 35 36 36 35 36 36 36 36 36 37
37 38 38 38 38 38 38 38 39 39 39 39 39 39 40 40
40 39 40 40 40 40 40 40 37 19 14 16 34 19 14 12
11 26 93 118 120 118 125 123 102 106 76 39 75 127 106 106
111 115 114 113 110 104 109 116 49 63 105 108 119 119 127 122
120 117 97 32 8 6 14 20 11 26 47 48 47 40 38 50
49 48 48 49 50 49 51 51 47 28 20 18 12 2 8 14
10 1 17 4 0 0 3 10 20 31 34 24 14 3 0 0
31 33 31 31 32 32 35 36 34 33 31 35 35 33 31 34
35 37 38 35 35 35 36 36 36 36 39 39 38 37 39 38
39 40 39 39 40 41 40 40 37 23 15 17 34 13 10 13
14 28 102 118 120 119 127 126 97 94 41 33 108 108 115 118
114 110 109 112 116 116 108 105 85 30 78 98 114 126 128 122
123 118 105 47 12 10 15 26 14 23 43 48 48 41 37 50
50 48 47 48 49 50 52 53 48 29 20 18 10 0 2 4
7 0 11 25 23 28 33 39 39 22 14 9 5 4 4 2
35 34 34 34 34 35 36 35 34 34 35 35 36 35 36 36
36 38 38 37 37 37 37 36 36 36 38 39 37 36 38 36
38 39 40 40 40 40 40 40 37 24 19 20 35 15 11 16
18 37 108 117 120 119 125 113 99 90 79 97 112 113 111 112
108 105 104 109 111 114 115 115 107 79 74 89 111 124 130 123
122 119 107 64 17 9 16 18 11 16 35 46 47 42 37 49
50 48 48 48 49 52 53 54 51 32 22 21 10 0 0 2
3 6 3 41 45 42 42 35 16 11 8 7 2 0 0 3
35 35 35 35 35 35 36 36 36 36 37 37 37 37 38 38
38 37 38 38 38 38 39 38 39 39 39 39 39 40 39 40
39 40 39 39 40 40 40 40 36 24 22 21 35 15 11 8
15 41 112 118 120 118 120 110 111 114 114 113 112 114 117 120
118 114 110 116 120 119 117 115 115 115 115 111 111 120 133 122
121 118 108 75 17 10 7 10 17 18 32 43 48 43 38 49
49 47 48 49 50 53 54 55 51 32 24 29 22 10 7 12
23 17 8 35 54 49 28 9 5 3 2 1 0 0 0 0
33 34 35 34 34 34 36 36 36 37 36 36 37 37 37 38
38 38 38 38 38 39 39 39 39 39 39 39 39 40 39 39
40 40 40 40 40 40 41 40 37 25 22 22 37 27 10 5
15 49 113 119 119 118 120 113 114 116 114 111 112 117 122 122
117 114 112 114 122 123 121 117 117 117 120 119 116 123 131 121
121 118 109 84 24 7 8 9 16 25 37 47 49 43 38 49
49 46 48 50 50 53 56 57 55 34 31 39 32 19 25 27
35 30 31 33 38 20 1 0 0 0 0 0 0 0 0 0
32 31 31 31 32 32 32 33 35 36 37 37 37 38 38 38
38 38 38 39 39 38 38 38 39 39 39 39 39 40 40 41
40 41 40 40 41 40 40 40 37 24 23 22 37 29 10 6
15 60 116 119 119 120 118 114 115 117 112 112 116 117 118 111
107 111 112 111 117 123 122 120 118 118 120 119 115 123 127 122
121 118 112 89 28 9 7 9 16 26 42 47 48 43 38 49
51 48 49 50 50 51 54 57 54 35 33 36 38 27 32 27
30 29 28 22 11 0 0 0 0 0 0 0 0 0 0 0
35 35 35 35 35 35 35 34 36 36 37 37 37 38 37 38
38 38 38 38 39 39 39 39 39 40 40 40 40 40 40 40
40 40 41 40 40 40 41 40 37 24 23 22 36 26 7 8
15 69 117 119 118 119 120 118 116 117 114 117 115 111 106 106
118 120 117 116 112 113 114 117 120 119 120 117 115 124 124 124
119 116 112 89 35 9 2 7 18 27 44 48 49 43 38 48
51 48 47 50 51 53 57 59 53 32 27 35 40 32 28 23
21 20 13 1 0 0 0 0 0 0 0 0 0 0 1 6
36 36 35 36 36 36 36 36 36 37 37 37 37 38 38 38
38 38 38 38 39 39 39 38 38 39 39 40 40 40 40 40
41 41 41 40 41 41 40 40 36 25 22 21 36 23 6 10
27 82 117 119 118 121 122 120 119 115 114 116 111 106 109 117
124 123 120 125 122 114 111 115 119 119 120 117 116 120 122 123
120 117 112 95 54 21 3 3 15 27 42 48 48 43 38 47
50 47 48 48 49 51 57 58 49 11 6 11 16 16 16 33
29 30 20 0 0 0 0 0 0 0 0 0 0 0 5 14
35 35 35 36 36 36 36 37 36 37 37 37 37 37 38 38
38 38 38 38 39 38 39 39 39 39 39 39 39 40 40 39
41 40 40 40 41 40 40 40 36 24 20 21 35 17 8 44
53 89 118 120 115 119 122 119 121 116 114 112 110 110 117 123
125 123 125 124 123 118 113 112 115 117 119 116 116 119 122 122
120 120 113 97 70 71 47 6 10 22 42 47 48 43 37 47
50 48 47 46 48 51 54 55 34 1 0 0 1 0 4 38
13 16 19 0 0 0 0 0 0 0 0 0 0 1 18 32
35 34 35 35 34 35 35 35 36 35 36 36 37 37 37 37
37 37 37 37 38 37 38 38 39 38 39 38 39 39 40 39
40 39 40 40 40 40 40 39 36 22 17 20 35 12 18 68
84 101 117 120 118 117 121 122 119 117 114 109 109 114 121 122
123 121 121 121 126 127 116 112 113 116 117 116 116 120 122 121
118 115 111 99 92 102 66 26 10 20 41 46 47 41 36 45
49 47 45 44 46 48 49 51 19 0 0 0 0 0 4 37
12 9 5 0 0 0 0 0 0 0 0 0 0 9 25 35
34 34 34 34 34 34 35 35 35 35 35 36 36 36 37 37
37 37 37 37 37 37 38 37 38 38 38 39 38 39 39 39
39 38 39 39 39 39 39 38 36 21 17 20 35 24 34 86
106 103 117 119 118 119 119 120 118 119 110 109 113 118 120 119
117 114 116 119 123 128 120 112 109 110 115 117 119 121 122 118
118 115 113 100 96 110 74 39 10 19 42 46 46 42 37 45
49 49 47 44 44 45 46 44 8 0 0 0 0 0 0 33
12 4 0 0 0 0 0 0 0 0 0 0 0 16 31 40
33 34 34 33 34 34 34 35 35 35 35 36 36 36 36 36
36 36 37 36 37 37 37 37 38 37 38 38 38 38 38 38
38 38 38 39 39 39 39 39 36 21 19 21 33 19 48 89
108 101 114 117 118 119 116 120 117 116 110 112 117 120 117 110
108 106 109 112 113 119 125 117 110 110 114 119 120 120 120 119
117 114 111 101 103 110 70 55 7 25 47 46 45 42 37 44
46 44 44 44 43 44 45 36 4 0 0 0 0 0 0 30
19 10 0 0 0 0 0 0 0 0 0 0 7 29 39 43
34 34 34 35 35 34 35 35 35 34 35 35 36 36 36 36
36 37 37 37 38 37 37 37 37 37 38 37 39 38 38 38
39 39 39 39 39 39 39 39 36 21 21 20 35 31 52 92
114 98 110 115 118 120 117 119 118 112 110 114 119 116 109 105
101 101 101 104 106 111 118 123 115 112 113 115 118 118 120 119
116 115 112 100 105 108 76 58 6 34 46 47 46 42 36 43
45 43 43 42 42 42 42 31 2 0 0 0 0 0 0 29
31 18 0 0 0 0 0 0 0 0 0 0 17 35 41 43
34 34 34 34 34 35 35 35 36 35 36 35 36 36 36 36
36 36 37 37 37 37 38 38 38 38 39 38 39 39 39 39
38 38 38 38 39 39 40 39 36 22 21 20 36 39 58 99
113 97 107 115 120 121 118 119 118 112 108 112 109 104 102 96
96 98 97 98 98 105 108 116 120 112 114 119 120 120 121 120
117 115 111 99 106 101 82 57 8 33 47 46 46 42 38 44
46 45 45 44 43 44 42 30 1 0 0 0 0 0 0 27
40 11 0 0 0 0 0 0 0 0 0 9 35 43 45 48
34 34 35 34 35 35 35 35 35 35 35 35 36 36 37 37
37 37 38 37 38 38 38 38 38 38 38 38 38 38 38 38
39 39 39 39 39 40 40 39 35 21 21 19 36 42 69 115
117 98 103 111 115 118 118 120 120 112 107 105 98 95 94 89
88 87 87 92 96 98 101 102 112 114 116 116 119 121 119 118
116 113 108 97 107 90 89 58 15 31 45 45 45 42 38 47
46 43 43 42 41 42 41 32 10 0 0 0 0 0 0 22
28 1 0 0 0 0 0 0 0 0 5 30 48 50 48 49
34 34 35 35 34 35 35 35 36 36 36 36 37 37 37 37
37 37 37 37 37 38 38 38 38 39 39 39 39 38 38 38
39 38 38 39 39 39 39 39 35 21 21 20 38 44 86 119
112 94 102 109 111 115 118 116 113 109 102 98 87 82 80 77
77 75 78 80 87 86 87 93 103 109 112 117 118 117 117 116
113 110 107 97 100 112 105 56 16 38 47 47 46 44 39 49
47 43 43 40 39 39 37 38 28 4 0 0 0 0 0 17
11 0 0 0 0 0 0 0 0 0 14 39 52 53 49 49
35 34 35 35 35 35 36 36 35 35 36 36 36 36 37 37
37 37 37 37 36 38 37 38 38 38 38 38 38 38 38 38
39 39 39 39 40 40 40 39 36 22 21 20 38 45 73 111
107 82 97 109 105 107 110 112 107 103 96 89 80 74 72 72
72 69 74 74 76 76 77 84 95 103 106 112 113 115 114 112
112 110 101 95 88 111 106 47 19 43 50 50 49 47 39 48
48 45 43 42 41 40 40 39 26 11 0 2 3 1 0 17
13 0 0 0 0 0 0 0 0 3 19 43 54 55 51 48
34 35 35 35 35 35 35 35 36 35 36 35 36 37 37 37
37 37 37 36 37 38 38 38 38 38 39 38 38 38 39 39
39 39 39 40 39 39 39 39 36 23 22 21 38 45 58 106
109 61 90 105 104 98 99 102 95 92 87 83 75 69 71 74
76 76 74 72 73 75 77 82 88 92 97 105 110 114 111 109
110 106 96 82 59 114 110 60 19 43 48 48 49 46 39 48
48 44 44 43 43 42 44 44 33 17 3 17 19 6 3 28
13 0 0 0 0 0 0 0 0 4 20 45 61 55 51 47
34 34 35 35 35 35 35 35 36 36 36 36 36 36 37 37
37 37 37 37 37 37 38 38 38 38 38 38 38 39 39 38
39 39 39 40 39 40 39 39 35 25 21 21 38 44 52 103
97 32 81 101 102 97 92 88 84 83 84 80 74 68 71 75
79 82 80 78 76 77 75 75 83 88 95 102 105 106 102 103
106 103 93 63 21 94 111 89 29 42 47 48 48 46 39 48
50 46 44 41 40 39 41 49 51 46 41 43 42 39 38 34
5 0 0 0 0 0 0 0 0 4 17 44 59 57 51 46
34 34 35 35 35 35 35 35 36 36 36 36 37 36 37 37
37 37 37 37 38 37 37 37 38 38 38 38 38 38 39 38
39 38 39 39 39 39 40 39 36 26 21 22 38 45 46 83
68 7 55 94 98 94 86 83 81 83 85 83 76 71 73 79
80 85 86 83 80 80 81 77 84 91 95 97 99 95 98 103
102 97 92 45 0 33 70 48 32 46 47 47 47 46 39 49
51 49 47 43 40 40 40 50 57 55 53 53 54 48 29 8
0 0 0 0 0 0 0 0 0 1 16 43 52 56 50 42
34 34 34 35 35 35 36 36 36 36 36 36 36 37 36 37
37 36 37 37 37 37 37 38 38 38 38 39 38 39 39 39
39 39 39 39 39 39 40 39 36 25 20 23 38 44 44 26
17 6 56 80 92 91 86 85 85 86 88 87 78 71 75 80
83 88 85 86 85 84 87 83 88 91 95 98 96 97 99 101
97 87 96 38 0 1 14 14 34 45 47 47 48 46 39 48
53 51 49 44 41 40 41 48 58 56 57 55 44 36 21 0
0 0 0 0 0 0 0 0 0 0 23 49 51 51 48 41
34 34 35 35 35 35 35 35 35 36 36 36 36 36 36 37
37 36 37 37 38 37 38 38 38 38 38 37 38 38 38 38
39 38 39 39 39 40 39 39 36 24 20 23 37 44 44 25
7 10 83 84 72 82 88 91 87 90 89 85 78 75 75 78
85 92 90 93 89 91 92 88 94 96 101 100 100 101 99 95
88 93 99 54 0 0 11 16 37 43 47 47 48 45 38 48
51 48 47 45 42 41 41 42 43 48 56 47 31 28 31 2
0 0 0 27 30 2 0 0 0 3 33 50 50 45 43 37
34 34 34 35 35 35 35 35 35 36 36 36 36 36 36 36
37 36 37 36 36 37 37 37 38 38 38 38 38 39 38 39
38 38 38 39 39 38 39 38 35 23 22 22 37 44 44 29
3 4 73 94 78 71 84 91 94 89 90 88 82 78 77 80
87 90 92 92 92 94 95 95 98 102 105 106 107 105 102 92
92 102 100 41 3 3 9 29 41 44 47 47 48 45 38 48
52 49 47 45 42 39 39 36 32 35 51 43 20 19 34 11
0 0 10 39 53 37 5 0 0 6 37 48 48 42 39 36
35 35 35 35 36 35 35 35 36 36 36 35 36 35 36 36
36 37 37 37 37 37 38 38 38 38 38 37 37 38 38 38
38 38 38 39 38 39 39 39 35 23 21 21 36 44 43 34
5 2 44 96 92 80 81 90 94 93 91 89 86 82 79 80
85 93 94 95 94 96 97 101 102 105 108 110 111 109 100 98
102 105 99 28 4 8 14 38 42 47 47 47 47 45 37 47
52 49 48 45 43 40 40 37 34 28 46 42 10 16 29 20
6 2 18 50 58 48 33 0 0 9 43 50 50 41 32 28
35 36 35 35 35 35 35 35 35 34 35 35 36 36 36 36
36 36 36 36 36 37 37 37 37 38 38 38 38 38 38 39
39 38 39 38 38 39 39 38 35 23 21 20 35 44 43 38
10 1 18 89 98 90 83 88 94 93 93 91 89 85 83 84
92 99 101 99 102 103 103 105 107 107 110 112 113 109 103 104
107 107 100 21 7 13 22 35 41 44 46 46 46 45 36 46
51 47 47 45 43 42 43 42 38 26 39 45 23 25 24 28
29 4 24 56 46 37 45 18 5 16 44 50 52 37 21 12
35 35 34 34 35 35 35 35 35 35 36 36 36 35 36 36
36 36 37 36 37 37 37 37 38 37 37 38 38 38 37 38
38 38 38 38 38 38 39 39 34 22 20 20 36 44 42 40
19 2 5 73 98 96 89 87 93 94 95 92 92 91 91 92
95 103 109 105 108 108 109 109 111 110 113 113 113 108 107 102
107 108 100 13 7 13 33 36 39 41 43 47 47 45 36 45
51 49 48 46 44 42 43 42 39 28 32 48 31 23 26 28
25 3 25 50 38 46 44 33 34 38 46 53 53 38 19 7
36 36 35 35 35 35 35 35 35 35 35 35 36 36 37 36
37 36 37 37 37 37 37 37 37 37 37 37 37 38 38 38
38 38 38 38 38 38 38 38 34 22 20 19 35 43 42 41
33 9 1 46 97 99 94 91 93 94 96 97 96 97 94 97
100 109 115 115 116 115 114 112 114 113 112 113 112 109 109 109
110 110 101 15 4 22 44 37 43 45 46 47 47 45 35 42
50 46 47 47 46 43 42 42 39 31 23 46 40 35 31 35
16 7 22 52 44 49 51 34 36 44 47 53 54 41 26 12
36 36 36 35 34 34 35 34 35 35 35 35 35 36 36 36
36 36 36 36 37 36 37 37 37 37 37 37 37 38 38 38
38 38 38 37 38 38 38 37 35 21 19 19 36 43 42 41
36 17 0 21 95 99 97 94 93 97 94 101 101 103 102 102
107 115 121 121 119 119 119 117 116 114 115 114 113 113 112 111
112 111 103 20 0 28 42 37 42 45 46 47 46 45 35 42
48 45 46 45 43 42 41 41 40 32 20 38 41 35 30 26
2 22 16 51 47 41 46 33 37 44 46 51 52 43 34 22
36 36 35 35 35 35 35 35 35 35 35 35 35 35 36 36
36 36 36 36 37 37 37 37 37 37 37 37 38 38 38 38
38 38 38 38 38 38 38 37 33 20 20 18 34 41 41 40
39 21 1 8 90 99 101 99 99 102 101 105 107 109 107 108
112 120 126 126 124 125 123 120 118 115 118 116 115 115 114 113
112 110 104 27 0 26 37 37 41 45 46 46 46 44 35 40
46 42 43 43 45 45 46 43 42 34 21 30 43 35 28 31
21 39 10 47 53 49 39 32 37 41 44 46 49 45 40 31
36 36 35 34 35 34 35 35 35 35 35 35 36 36 36 36
36 37 37 36 36 36 37 37 37 37 37 37 37 38 37 38
38 38 38 38 38 38 37 37 33 21 18 17 34 41 41 41
39 30 5 5 84 101 104 103 105 107 107 108 112 114 113 114
118 124 132 135 133 127 126 122 120 119 117 117 117 117 115 114
113 111 107 37 0 25 37 39 43 44 45 46 46 44 35 40
44 43 42 42 43 44 44 42 41 34 22 20 43 36 36 38
41 46 19 23 60 55 41 33 38 40 41 42 44 43 40 34
37 36 35 35 35 35 35 35 35 35 35 35 36 36 35 36
36 36 36 36 37 37 37 37 37 37 38 37 37 37 38 38
38 38 38 38 38 37 37 37 33 21 16 16 33 40 40 40
39 34 6 3 82 106 106 106 105 108 111 113 116 116 115 117
122 128 135 136 136 136 129 122 121 120 119 117 118 117 114 115
114 110 106 50 1 20 30 41 42 45 45 45 45 43 35 41
42 39 40 42 42 43 44 44 42 35 23 14 38 39 37 42
45 44 28 4 43 44 38 33 39 39 37 38 40 37 35 31
38 36 36 35 35 35 35 35 35 34 35 35 35 35 36 36
36 37 36 36 36 36 37 36 36 36 37 37 37 37 38 38
39 39 38 38 37 38 37 37 32 19 15 16 32 39 39 39
39 33 5 1 82 106 107 107 110 111 112 114 116 117 118 119
124 131 137 141 138 135 131 124 122 121 120 117 118 117 116 115
114 111 107 68 0 11 30 39 42 45 45 43 42 39 34 43
43 38 40 41 39 40 41 43 46 37 22 12 27 44 41 42
38 33 28 4 33 31 36 34 39 38 35 35 38 33 30 29
38 36 35 35 35 34 35 35 35 35 35 35 35 35 36 35
35 35 36 36 36 36 36 36 37 37 37 37 37 37 38 38
38 37 39 40 37 37 36 35 31 18 15 15 32 39 39 38
37 30 8 1 82 107 108 108 111 113 115 117 118 119 120 120
123 131 136 137 137 137 131 121 123 123 121 118 118 117 116 114
113 111 108 81 0 22 37 42 44 45 45 44 46 44 35 45
48 42 42 41 40 42 44 44 45 37 23 14 19 43 33 29
29 28 28 18 31 32 34 33 38 37 33 32 35 32 28 26
39 37 36 35 35 34 34 34 35 34 35 34 35 35 36 35
36 36 36 36 36 36 36 36 36 36 36 37 36 37 37 37
36 28 32 37 37 36 36 34 30 18 14 14 30 38 37 37
35 17 7 2 83 108 110 109 111 114 116 115 117 118 120 120
124 132 138 142 141 136 131 124 121 123 121 121 117 116 114 114
113 110 108 92 8 31 40 43 45 51 56 57 56 51 39 47
50 47 47 47 47 47 47 47 48 39 22 13 14 33 28 27
28 28 28 23 31 30 33 33 38 36 31 30 34 32 26 24
41 38 36 35 35 35 35 35 35 35 35 35 35 36 36 35
35 35 36 36 36 36 36 36 36 36 37 37 37 37 38 37
36 32 40 45 45 44 44 43 42 35 33 33 41 44 44 43
42 27 0 3 85 107 108 109 112 114 115 115 116 117 118 120
123 131 138 140 140 134 127 124 122 123 122 122 119 117 117 116
114 113 111 100 45 46 47 47 49 66 68 68 68 66 54 46
47 46 45 45 43 42 45 48 48 40 21 12 12 14 25 28
28 29 29 25 31 30 31 34 37 36 30 29 33 32 26 22
42 38 37 36 36 35 35 35 35 34 34 34 35 34 35 35
35 35 35 35 35 35 35 35 36 36 36 37 36 37 36 28
27 26 42 50 51 50 50 50 50 50 49 49 49 49 48 47
45 39 12 4 89 107 109 111 112 114 115 114 114 116 117 120
121 127 136 143 141 133 127 125 124 122 123 123 119 118 116 113
108 109 111 103 53 45 47 47 48 64 69 67 66 66 63 46
45 44 43 42 40 38 41 46 47 39 22 13 12 4 24 31
26 27 27 25 30 29 30 32 35 34 29 27 30 29 24 19
43 39 37 35 35 34 34 34 34 34 34 34 34 35 35 35
35 35 35 35 36 35 34 32 35 35 36 36 36 37 35 22
20 22 42 51 50 50 50 50 50 50 49 50 50 49 48 47
46 41 25 12 91 107 109 111 112 115 114 114 113 115 117 119
119 123 135 142 139 132 125 124 124 123 122 121 119 117 113 114
112 114 111 105 51 29 31 31 32 40 43 39 39 42 48 34
31 30 30 29 31 37 38 44 46 39 21 12 12 5 21 25
9 5 6 25 31 30 29 31 33 33 28 26 26 25 21 16
42 38 37 35 34 34 34 34 34 34 34 34 35 35 35 35
35 35 35 34 35 34 31 31 34 36 36 36 36 36 33 21
19 21 41 50 49 47 47 46 47 47 47 47 47 46 46 45
43 37 17 17 96 107 111 111 111 114 114 115 111 114 118 119
118 119 131 142 138 128 125 124 124 124 122 121 119 116 115 114
113 115 112 106 40 10 10 8 7 5 4 4 3 4 5 4
4 3 4 4 24 38 37 41 44 37 19 14 18 18 23 21
3 0 3 27 32 30 26 29 31 31 29 27 25 23 19 16
44 39 36 34 33 33 33 33 33 32 32 33 35 35 35 35
35 35 36 35 33 32 31 32 34 34 35 34 35 35 31 21
19 21 41 51 39 22 22 22 23 23 23 22 22 21 22 20
19 18 10 10 98 108 111 112 111 114 116 113 114 114 117 119
118 117 124 134 133 127 125 126 124 124 122 118 117 114 115 113
115 116 113 106 50 22 23 20 15 8 4 2 2 1 1 0
1 0 0 0 18 40 36 35 34 26 18 15 20 20 23 22
6 0 13 29 34 35 27 27 29 30 28 27 25 23 20 18
45 39 36 34 34 33 32 32 32 31 32 33 34 36 35 35
35 35 35 35 30 28 28 29 30 31 30 31 32 32 27 20
19 20 39 51 39 19 21 22 23 23 23 23 23 22 22 21
20 20 19 20 98 108 109 110 112 113 114 114 113 114 116 119
118 115 117 122 125 123 123 125 121 123 122 119 117 113 115 113
116 117 113 107 50 31 31 28 22 13 7 5 4 2 3 3
2 2 1 1 10 38 34 22 14 12 10 10 17 21 22 22
11 2 27 31 34 37 29 23 26 27 26 23 23 21 20 15
46 40 38 36 34 33 32 32 31 32 32 33 36 36 35 35
35 36 35 36 31 27 28 28 29 28 29 29 29 30 24 18
18 20 39 51 40 20 27 52 58 58 58 55 52 51 51 49
49 48 48 41 98 109 110 112 112 113 113 113 113 114 114 117
117 113 112 114 119 122 123 127 122 121 120 119 117 115 115 111
113 115 113 106 55 13 25 22 18 11 6 4 4 3 2 2
2 1 0 0 4 37 35 19 10 10 10 20 26 23 19 19
14 9 28 32 35 38 35 21 24 25 25 22 19 16 12 9
48 42 40 37 35 34 32 31 32 32 32 33 37 37 36 36
36 36 36 35 31 27 27 28 28 28 28 28 28 29 22 19
18 20 37 52 41 19 28 69 78 79 80 79 78 80 79 78
79 79 77 30 95 108 110 111 112 111 112 112 114 113 114 117
115 114 113 116 118 120 122 124 120 121 119 119 114 113 113 116
116 116 113 105 92 18 18 15 12 9 6 4 4 3 3 2
1 1 1 1 1 32 35 22 9 10 14 27 27 23 17 17
17 14 25 34 36 38 41 24 20 21 22 20 13 10 10 8
47 43 39 36 35 34 33 32 32 31 32 33 36 36 36 36
35 35 35 35 31 27 27 27 28 28 28 28 29 28 21 19
18 19 36 51 41 19 27 68 78 80 80 78 76 78 79 77
76 62 42 18 92 107 110 111 111 112 113 112 114 112 111 114
115 114 116 116 118 120 123 123 120 119 120 118 116 114 116 117
117 115 112 105 102 76 18 23 17 9 7 5 5 3 3 2
2 2 1 1 0 26 34 24 17 21 21 25 26 24 18 15
17 16 19 36 38 39 40 31 15 18 20 20 11 5 7 6
48 43 40 36 33 33 32 31 31 31 31 32 36 36 35 35
36 36 36 35 31 27 27 27 27 27 28 28 28 27 20 19
19 20 36 51 42 19 26 66 78 79 80 77 74 75 76 68
36 15 14 22 90 107 111 111 112 113 112 114 116 113 113 113
115 114 118 118 118 120 123 121 119 119 118 119 117 116 115 116
116 116 112 105 108 95 25 27 23 23 14 9 8 7 6 6
5 5 4 4 11 25 30 30 31 29 29 20 23 22 19 14
16 16 16 33 42 42 39 37 17 12 17 19 13 4 3 6
48 42 38 35 33 32 32 31 32 31 32 33 36 36 36 35
36 36 35 34 30 26 27 27 27 27 28 29 28 26 19 18
19 19 34 50 41 19 25 64 78 79 80 77 73 69 55 33
13 6 24 23 80 105 110 111 113 112 111 115 117 115 115 113
115 114 115 118 118 119 120 119 118 119 119 119 118 116 115 115
116 115 111 105 110 81 24 28 22 23 23 23 27 33 33 33
32 31 29 25 26 25 25 24 24 22 19 14 23 22 20 15
14 17 16 23 44 44 41 35 26 9 10 15 17 6 1 4
49 43 38 35 34 33 32 31 31 31 31 32 35 36 35 35
35 35 35 34 31 27 26 26 27 27 28 27 27 23 16 17
18 18 33 50 43 20 23 63 78 79 79 71 49 31 21 19
7 13 26 21 62 106 110 112 114 113 113 115 116 114 113 113
113 115 117 118 118 117 118 117 116 117 118 117 116 117 118 118
117 115 113 107 109 47 26 27 24 22 21 27 16 24 33 38
37 30 26 26 26 25 25 23 23 22 21 12 8 18 18 16
11 14 16 16 33 46 47 39 32 20 7 9 13 9 0 1
48 42 38 35 34 33 33 32 32 31 31 32 35 36 36 35
35 35 35 34 29 26 26 26 27 26 27 27 28 23 16 20
19 19 33 50 43 19 22 58 74 67 47 26 22 27 25 19
8 19 23 22 39 103 109 113 113 114 115 115 116 115 113 112
112 113 116 117 116 116 118 116 116 118 120 118 117 119 119 119
119 117 113 108 82 24 26 25 23 20 20 27 24 18 20 28
29 28 23 19 24 23 23 21 21 21 21 18 5 3 13 12
10 11 16 16 18 42 51 47 38 30 14 4 5 6 1 0
47 41 38 35 34 33 33 32 31 31 31 32 34 35 35 35
35 35 35 34 30 26 27 26 27 27 28 27 26 21 17 19
18 19 31 49 44 19 20 47 42 24 21 20 19 24 26 21
10 17 20 21 22 76 110 111 112 115 115 116 116 115 114 111
111 112 114 115 118 117 115 117 116 118 119 119 117 121 121 120
119 117 113 105 36 23 26 25 21 20 21 26 28 19 16 20
25 25 26 30 30 27 26 25 23 20 21 19 16 2 3 9
3 8 12 17 16 21 48 51 45 36 25 11 5 1 0 0
46 41 38 36 35 34 33 32 32 31 31 32 34 35 36 36
36 36 36 35 30 26 26 26 26 26 27 26 27 23 18 18
18 19 31 50 45 23 24 23 16 13 18 22 20 20 24 24
14 16 20 20 19 28 90 111 114 115 115 115 116 116 115 112
114 114 114 113 115 116 117 116 115 116 119 119 121 124 124 120
120 116 112 71 22 22 26 23 21 20 22 25 27 21 19 20
23 26 29 32 32 33 33 35 37 35 26 20 18 11 0 7
8 13 10 15 13 14 25 45 46 40 29 18 10 3 0 0
44 39 36 37 37 34 33 32 32 31 31 32 34 36 36 36
36 36 36 35 29 25 25 26 27 27 26 26 26 23 19 18
19 18 30 42 36 23 16 19 14 13 20 23 20 16 19 23
18 13 17 19 18 17 32 90 111 113 114 115 114 114 113 111
114 115 113 114 115 115 117 118 116 116 119 121 125 129 125 121
119 116 85 27 19 21 23 20 18 21 25 26 24 25 24 23
28 30 31 33 35 35 35 36 34 34 36 34 30 20 7 1
12 17 8 1 0 10 10 12 32 37 29 21 16 9 0 0
43 39 29 36 42 35 33 32 31 30 31 32 33 35 36 36
36 36 36 36 31 26 26 26 26 25 26 26 25 23 18 19
18 23 32 27 26 23 12 18 13 15 19 20 19 16 17 21
21 13 14 18 18 16 16 26 76 110 115 117 113 115 114 111
112 116 114 115 115 117 119 118 117 118 120 124 128 129 123 120
107 65 27 20 19 20 22 20 19 25 25 25 25 28 28 30
31 34 34 33 36 37 37 34 33 30 31 30 29 31 24 7
3 6 4 5 0 8 7 4 6 20 33 23 16 11 3 0
42 36 26 35 41 33 32 31 31 30 31 32 33 35 35 36
35 35 36 36 31 25 26 26 26 26 26 26 26 23 18 20
23 26 26 22 23 25 22 11 13 15 17 17 17 16 14 17
20 16 13 17 17 15 15 17 20 50 97 115 115 115 113 111
108 113 114 115 116 115 118 119 118 116 122 126 127 124 106 65
29 20 19 18 19 19 17 18 22 23 23 26 30 31 32 33
34 35 36 32 34 35 32 33 31 27 27 28 30 31 33 31
17 11 9 9 5 5 6 3 5 13 30 24 18 13 6 0
39 31 25 39 44 34 31 32 32 30 31 32 33 35 35 35
35 35 36 35 30 25 25 25 25 25 25 25 25 22 23 31
32 28 24 22 22 23 25 23 17 14 16 15 15 16 15 15
17 19 14 15 17 15 16 16 15 14 24 59 94 111 110 107
108 111 112 114 115 117 118 116 117 119 122 118 91 52 27 19
18 17 18 18 17 18 17 22 23 22 25 32 32 33 32 34
36 36 34 31 30 33 32 31 29 27 27 27 28 27 29 31
38 34 19 22 22 1 6 0 1 6 16 20 17 14 8 0
37 26 18 28 41 33 32 32 31 31 31 31 32 35 35 36
35 35 35 35 30 25 24 23 24 24 24 24 27 32 33 32
30 33 33 28 24 23 24 24 24 19 15 16 16 16 15 14
16 18 18 14 17 15 15 13 13 14 12 14 20 36 62 84
99 107 110 112 112 111 112 107 95 82 62 35 22 21 15 18
18 18 16 18 17 17 17 22 21 21 29 32 33 32 34 34
35 34 32 32 29 28 29 27 26 26 26 25 26 26 26 28
27 34 38 22 10 5 0 1 0 0 8 12 12 13 8 0
35 22 14 23 39 32 31 31 31 31 30 31 32 34 34 35
34 34 34 34 29 25 24 24 24 24 26 30 33 29 28 28
27 28 32 32 28 25 24 25 25 26 23 16 14 15 16 14
15 15 17 17 14 15 15 14 13 13 10 12 13 11 13 15
18 28 40 42 38 33 31 26 21 19 20 20 19 16 18 15
14 15 17 18 17 17 22 19 20 23 28 31 32 33 32 33
32 32 31 31 29 28 28 27 26 26 25 27 25 25 25 26
26 28 29 32 18 6 1 0 2 0 1 8 6 8 3 0
33 20 16 25 31 31 30 30 30 30 30 31 32 34 34 34
35 34 35 34 29 24 24 24 24 28 32 30 27 26 25 26
28 27 30 30 29 25 25 26 24 25 25 23 15 13 16 15
15 15 16 17 17 14 15 14 13 12 10 11 11 12 11 10
10 12 14 15 15 17 17 15 18 18 18 17 18 15 15 14
17 16 17 17 18 23 21 18 22 26 30 29 31 32 33 31
32 33 33 30 28 27 26 26 27 25 24 25 25 24 23 24
24 25 26 27 30 12 4 0 2 2 1 0 3 3 0 0
32 18 6 9 22 29 30 31 30 30 30 30 32 34 34 34
34 34 33 33 28 24 24 26 30 31 26 23 23 23 22 23
27 25 27 29 28 27 26 28 25 24 26 26 23 14 13 14
15 15 16 16 17 15 14 13 14 14 14 13 12 13 12 12
13 14 15 15 16 15 16 16 16 18 17 17 16 17 17 18
18 19 17 18 22 21 19 21 25 28 28 27 30 32 32 31
31 30 32 29 26 25 25 25 24 23 25 23 24 24 23 22
23 26 24 25 26 26 7 3 0 2 0 0 0 0 0 0
31 16 1 7 24 29 30 30 30 29 29 29 31 32 33 33
34 33 33 33 29 24 28 30 26 25 22 20 21 22 22 25
26 25 26 26 26 27 29 29 27 24 26 27 26 22 15 14
14 14 14 14 14 14 14 13 13 14 17 17 18 17 16 15
14 14 15 16 14 16 15 17 19 18 20 19 20 20 20 21
18 16 19 22 21 19 22 26 28 27 28 29 31 30 31 30
28 28 30 27 25 24 24 24 25 22 24 22 21 21 21 20
21 24 22 22 22 26 21 4 1 0 0 0 0 0 0 0
30 17 2 7 27 29 29 30 29 29 29 29 31 32 33 32
33 33 33 32 29 29 31 22 22 20 20 20 21 23 23 25
25 26 24 26 25 25 26 26 26 25 25 27 25 25 22 19
16 14 14 14 14 13 13 13 12 11 11 14 17 18 19 19
18 18 18 18 18 17 18 19 20 20 22 22 21 19 16 16
16 23 22 21 19 18 25 27 26 27 27 29 28 29 30 28
28 29 29 26 24 23 22 24 24 22 23 22 21 21 21 21
21 24 22 22 21 23 30 9 0 0 0 0 0 0 0 0
32 17 6 9 28 29 29 30 30 30 29 30 31 33 33 33
33 32 33 32 33 31 21 19 19 19 19 18 20 21 23 24
25 26 26 26 25 25 26 26 26 26 24 25 25 25 26 24
21 19 17 14 14 14 13 14 13 11 11 10 10 11 14 17
19 19 20 18 18 18 20 20 19 18 18 15 13 13 15 17
20 22 21 18 18 22 25 27 25 26 27 27 28 28 28 27
27 26 27 25 23 22 22 24 23 22 21 21 22 20 20 20
18 22 21 19 19 22 25 22 2 0 0 0 0 0 0 0
35 20 14 25 35 30 30 30 30 30 30 30 32 33 34 34
33 33 33 34 32 21 18 18 18 19 18 19 19 24 24 25
25 27 26 27 25 25 26 24 25 25 25 25 24 25 26 25
25 23 22 18 16 15 15 12 13 12 11 9 7 6 6 7
7 10 11 12 13 11 11 11 11 11 13 13 13 14 18 21
22 21 19 18 20 24 26 26 25 26 27 26 27 26 28 26
26 27 25 24 23 21 22 23 24 24 22 20 23 21 21 20
17 21 21 16 19 23 24 24 14 0 0 0 0 1 0 0
33 19 17 33 38 30 31 31 31 30 30 30 31 32 34 33
33 33 34 35 25 19 18 17 17 18 18 21 22 24 23 25
26 28 27 25 25 26 26 25 25 25 26 25 25 26 25 25
26 23 25 24 21 17 15 15 13 12 14 12 13 13 12 12
11 11 11 10 10 11 11 12 12 13 14 15 18 22 23 23
22 19 19 22 24 24 26 25 24 24 26 27 27 29 28 27
27 24 24 23 22 22 23 22 23 24 23 23 22 22 22 19
17 22 21 16 14 23 23 22 23 6 0 0 0 0 0 0
