P2
128 120
155
40 40 40 41 41 42 42 42 43 44 44 44 45 45 46 45
46 46 46 46 47 47 47 48 49 48 49 49 50 49 50 49
50 49 50 50 50 50 50 50 50 50 51 51 51 51 51 50
50 50 50 49 49 49 48 48 48 48 48 48 48 47 48 47
47 46 46 46 45 45 44 44 43 43 43 42 41 41 41 40
40 39 40 38 39 38 38 37 37 37 37 36 36 36 36 36
36 36 36 36 36 36 36 36 36 37 37 38 38 38 39 39
40 40 41 41 41 42 42 43 43 43 44 45 45 46 46 46
39 39 41 41 42 42 42 43 43 43 44 44 45 45 45 45
46 46 47 47 47 47 48 48 48 48 49 48 48 49 49 49
49 49 49 50 49 50 50 50 51 50 51 50 50 50 50 50
50 49 49 49 49 49 49 48 49 48 48 48 48 48 46 47
46 45 45 45 45 44 44 44 43 44 43 42 42 41 41 41
39 40 39 39 39 38 38 38 38 37 37 37 36 36 36 35
36 37 36 36 36 37 37 37 37 37 37 38 38 38 38 38
39 40 41 41 42 42 42 43 43 44 45 46 46 46 47 46
40 40 40 41 41 42 42 42 43 43 44 44 45 45 46 46
46 47 47 48 48 47 48 48 48 48 48 48 49 49 49 49
49 49 49 50 50 50 50 50 50 50 50 50 51 51 50 49
50 50 49 49 49 49 48 48 48 48 48 48 48 47 47 47
47 46 46 46 45 45 44 44 43 42 42 42 42 42 41 41
40 41 41 40 39 39 38 38 38 38 38 37 38 37 37 37
37 37 37 37 37 37 37 37 37 38 37 38 38 38 39 39
40 40 41 41 43 43 43 43 44 44 45 45 46 46 47 47
39 40 41 41 41 42 42 43 44 44 44 44 45 45 46 46
46 47 47 47 47 48 48 48 48 48 48 48 49 49 49 49
49 49 49 50 50 50 50 50 50 50 50 50 50 50 50 49
49 48 49 49 49 48 48 49 49 48 48 48 48 47 48 46
46 46 46 45 45 45 45 44 44 43 43 43 43 42 41 41
41 40 40 39 40 39 39 38 38 38 38 37 38 38 37 37
37 37 37 37 36 37 37 37 38 37 38 38 39 38 39 39
40 40 40 41 42 42 43 43 45 45 45 46 46 46 47 47
40 40 41 41 41 42 42 42 43 43 44 44 45 45 46 47
47 47 48 48 48 49 48 48 48 48 48 48 48 48 49 50
49 49 49 50 50 50 50 50 50 50 50 50 49 50 50 49
49 48 49 48 48 48 49 48 48 48 47 48 47 48 48 47
47 46 46 46 46 45 45 44 44 44 43 43 43 43 42 41
41 41 41 40 40 40 40 39 39 38 39 38 38 38 37 38
37 38 38 38 38 38 38 38 38 38 38 39 38 39 39 39
40 40 40 41 42 43 43 44 44 44 45 45 46 46 47 47
40 40 41 41 42 42 42 43 43 44 44 44 45 46 46 46
47 47 48 48 48 48 48 48 49 48 49 49 49 50 49 49
48 49 50 49 49 49 49 50 50 50 50 50 50 50 50 49
50 50 49 49 49 49 49 48 49 48 48 48 48 48 47 47
47 47 46 46 46 45 44 45 45 44 44 44 43 42 42 42
42 42 41 40 41 40 40 39 39 39 38 39 39 39 39 38
39 38 38 38 38 38 38 38 38 38 38 39 39 39 40 40
41 40 41 42 42 43 44 43 44 44 45 45 46 46 47 47
40 40 41 41 42 42 43 43 43 44 44 44 44 46 46 45
47 47 47 47 48 48 48 49 48 48 48 49 49 49 48 49
49 49 49 49 49 49 50 50 49 49 49 49 49 49 49 49
49 49 49 49 49 48 49 49 48 48 48 48 48 47 47 47
46 46 46 46 46 45 45 45 44 43 44 43 43 43 42 42
41 41 41 41 40 41 40 40 39 39 39 39 39 38 38 38
38 37 37 38 38 38 37 38 38 38 38 39 39 39 39 40
40 40 41 42 42 42 43 43 44 44 45 46 46 46 47 46
40 40 41 41 41 42 42 43 44 44 44 45 45 45 45 46
46 46 47 47 47 48 48 48 49 48 49 49 50 49 49 49
50 49 49 49 49 49 49 49 49 49 49 49 49 49 49 49
49 49 49 49 49 49 48 48 48 48 48 48 47 47 47 47
47 47 46 46 46 45 45 45 44 44 44 44 44 43 43 42
42 42 42 41 40 40 40 40 40 39 39 39 39 38 39 38
38 39 39 38 38 38 38 38 38 38 38 39 38 39 39 40
40 40 41 42 42 43 43 43 43 44 45 45 45 46 46 46
39 40 41 41 42 43 43 43 43 44 44 44 45 45 45 46
45 45 46 47 48 47 48 48 48 48 49 49 49 48 49 49
49 49 49 49 49 49 49 50 49 50 49 49 49 49 49 49
48 48 48 49 48 48 49 48 48 48 48 48 48 48 48 47
46 46 46 45 46 45 45 45 44 44 44 44 44 43 43 42
42 42 41 40 40 40 40 40 40 39 39 39 39 39 39 38
39 38 38 38 38 38 38 38 38 39 39 39 40 40 39 40
41 41 41 41 42 42 43 43 43 44 44 45 46 45 46 47
40 41 41 41 42 42 43 43 43 44 44 44 45 45 45 45
46 46 47 47 47 48 47 48 47 48 49 48 49 49 49 49
49 49 49 49 50 49 49 49 49 48 49 49 49 49 49 49
49 49 49 49 49 49 48 48 48 48 48 47 47 47 46 47
47 47 47 47 46 46 45 45 45 44 44 44 43 43 43 43
42 42 41 41 41 41 41 40 40 40 40 40 39 39 39 39
39 38 39 38 38 39 39 38 39 38 39 39 39 40 40 40
41 41 41 41 42 42 43 43 43 44 44 45 45 45 45 46
40 40 41 41 41 42 43 43 44 44 44 44 45 45 44 45
45 46 45 46 46 47 47 47 48 48 48 48 48 49 49 49
49 49 49 49 49 49 49 49 49 49 49 49 49 49 49 48
48 49 48 48 48 48 48 48 48 48 48 47 48 48 48 48
47 47 46 46 46 45 45 45 45 45 44 44 44 44 43 43
42 42 42 41 41 40 41 40 41 40 40 40 40 40 40 39
39 38 39 38 38 38 38 38 38 38 39 39 40 39 40 40
41 41 41 41 41 42 42 43 43 43 44 44 45 46 46 46
40 41 41 42 42 42 43 43 43 43 43 44 44 44 44 44
45 45 46 46 46 47 47 47 47 48 48 48 48 48 48 48
49 49 49 49 50 49 49 49 49 49 49 48 48 48 49 48
48 49 49 48 48 48 48 48 48 48 48 47 47 47 47 46
47 46 47 46 46 46 45 45 45 44 44 44 44 43 43 42
42 43 42 42 41 41 42 41 41 41 40 40 40 39 39 38
39 39 39 38 39 39 39 39 39 39 40 39 39 38 39 39
40 40 41 41 41 42 42 42 43 43 44 45 45 45 46 46
40 40 41 41 41 42 42 43 43 43 43 43 44 45 45 45
45 45 46 46 46 47 47 47 47 48 48 48 48 49 48 48
49 49 49 49 49 49 49 49 49 49 49 49 49 49 49 49
48 48 48 48 48 47 48 47 48 48 47 47 47 47 48 47
47 47 47 46 46 46 45 44 45 44 44 43 44 43 43 43
43 42 42 42 41 41 41 40 40 40 40 40 39 40 40 39
39 39 39 39 39 39 39 39 39 39 39 39 39 39 40 40
41 40 41 41 41 41 42 42 42 43 44 43 44 44 46 45
41 40 41 41 42 42 42 42 43 43 43 44 44 44 44 44
45 45 46 46 46 46 47 47 47 47 47 47 48 47 48 48
48 48 49 49 49 49 50 49 49 49 49 49 49 49 49 48
48 47 48 48 48 48 48 47 48 48 48 47 48 48 47 47
46 46 47 46 46 46 46 44 45 44 44 44 44 44 43 43
43 42 42 42 41 41 42 40 41 41 40 40 40 40 40 39
39 39 39 39 39 39 39 39 39 39 39 40 40 40 40 40
40 40 41 40 41 42 42 42 43 43 43 44 44 44 45 45
41 41 41 41 42 42 42 42 43 43 43 43 44 44 45 45
46 45 46 46 46 46 46 46 47 47 48 48 48 48 48 48
48 48 49 49 48 49 49 49 49 49 50 49 48 49 50 49
48 48 48 48 48 48 48 48 48 47 48 47 47 47 47 47
47 47 46 46 46 45 45 45 44 44 44 44 44 43 44 43
43 43 43 42 42 42 42 41 41 40 40 40 40 40 40 39
39 39 39 39 39 40 39 39 39 39 39 39 39 39 39 40
40 41 41 41 41 42 42 42 43 43 43 43 44 44 45 45
40 40 40 41 42 42 42 42 43 43 43 43 44 44 45 44
45 45 46 46 46 46 47 47 47 47 48 48 47 48 47 48
48 48 48 48 48 49 49 49 49 49 49 49 50 49 49 48
49 48 48 48 48 48 47 48 48 47 48 48 48 47 47 47
47 47 46 46 46 45 45 45 45 44 44 44 44 43 43 43
43 42 42 42 42 41 41 41 41 41 41 40 40 40 40 40
40 39 39 39 39 39 39 39 39 38 39 39 40 39 39 40
40 41 40 41 41 41 42 42 43 43 44 44 44 45 45 45
41 41 41 42 42 42 41 42 43 43 44 43 43 44 45 45
45 45 46 46 46 47 47 47 46 47 47 47 47 48 48 48
48 49 48 49 49 48 49 49 49 49 49 49 49 48 49 49
48 48 49 49 48 48 48 48 48 47 47 47 47 47 47 47
47 47 46 46 46 46 45 45 45 45 44 44 44 44 44 43
43 43 42 43 42 42 42 42 41 41 41 40 40 40 40 40
40 40 40 39 39 39 39 39 40 40 39 40 39 40 40 40
40 40 41 41 41 41 42 42 42 43 43 43 44 44 44 44
40 40 41 41 42 42 42 43 43 43 44 44 44 44 45 45
45 45 46 46 46 46 46 46 47 47 47 47 48 48 48 48
48 48 48 48 48 48 48 49 49 49 49 48 49 49 49 49
48 48 49 48 48 48 48 47 48 47 47 47 47 47 47 47
47 46 46 46 46 45 45 45 44 45 45 45 45 45 44 43
43 43 43 42 42 41 42 41 41 41 41 40 41 41 41 41
40 40 40 40 40 39 39 39 39 39 39 39 40 39 40 40
41 41 41 41 41 42 42 42 42 42 43 43 44 44 44 44
40 40 41 41 41 42 43 42 43 43 43 43 43 44 45 44
45 45 46 46 46 46 46 47 47 47 47 48 47 47 47 48
47 48 48 48 48 48 48 49 49 49 49 48 48 49 49 48
49 48 49 48 49 48 48 48 48 47 47 47 47 47 47 46
46 46 45 46 46 45 45 45 45 45 44 44 44 43 43 43
43 42 42 43 42 42 42 42 41 41 41 41 40 40 41 40
41 39 40 40 39 39 39 39 39 39 39 39 40 40 40 41
40 40 41 41 41 41 42 42 43 43 43 43 43 43 44 43
40 40 41 41 41 41 42 42 43 43 44 44 44 45 45 45
45 45 46 45 46 46 46 46 46 46 47 47 48 48 48 48
48 48 48 48 48 48 48 48 48 48 49 48 48 49 48 48
48 48 48 48 48 48 48 48 47 47 47 47 47 46 47 47
47 47 46 45 45 45 45 45 45 44 44 44 44 44 44 43
43 43 43 42 42 42 41 42 41 41 40 41 41 41 41 41
41 40 40 40 40 39 40 39 39 39 39 39 39 39 39 40
40 40 41 41 42 41 42 42 42 42 42 43 43 43 43 44
40 40 40 41 41 42 42 42 43 44 44 44 44 44 44 44
45 45 45 46 46 46 47 47 47 47 47 47 48 47 48 48
48 48 47 47 48 48 48 48 48 48 49 48 48 48 49 48
48 48 48 48 48 48 48 48 47 46 47 47 47 47 46 46
47 46 46 46 46 45 45 45 45 44 45 45 44 44 43 43
43 43 42 42 41 41 42 42 42 41 41 41 41 41 41 40
40 40 40 39 39 39 39 39 39 39 40 39 40 40 40 40
40 40 41 41 41 41 41 41 41 41 42 42 42 43 43 43
41 40 40 41 41 42 42 42 43 43 43 43 44 44 45 45
45 45 46 46 46 45 46 46 46 46 46 46 46 47 47 47
48 48 48 48 48 48 48 48 48 48 48 47 48 47 48 48
48 48 48 48 48 48 47 48 47 47 47 47 47 46 47 46
46 46 46 46 46 46 46 45 45 44 43 43 44 43 43 43
43 43 43 42 42 42 42 42 41 41 41 41 41 40 41 40
40 40 40 40 40 40 40 39 39 39 39 39 39 39 39 39
40 40 40 41 41 41 41 42 41 42 41 42 42 42 43 43
40 40 41 41 42 42 42 42 43 43 44 44 44 44 44 44
45 45 45 45 46 46 46 46 46 47 46 47 47 47 47 47
47 47 47 47 47 47 48 48 48 47 48 48 48 48 48 48
47 48 47 47 47 47 47 47 47 47 47 47 47 47 47 46
46 46 46 46 46 45 44 45 44 44 44 44 42 41 43 43
43 43 43 42 42 42 42 42 41 41 41 41 40 41 41 40
40 40 40 40 40 39 39 39 39 40 40 40 40 39 40 40
40 40 40 41 41 41 40 40 41 41 41 43 43 43 43 43
40 41 41 42 42 43 42 42 43 42 43 44 44 44 45 44
44 44 45 45 45 46 46 46 46 46 46 46 47 47 47 47
47 48 47 47 48 48 48 48 48 47 47 47 47 47 47 48
47 47 47 48 47 47 47 47 48 47 46 47 47 46 47 46
46 46 46 46 45 45 45 44 45 42 41 40 36 27 29 40
42 41 41 41 42 42 42 42 42 42 41 41 41 40 39 39
40 39 40 39 40 39 40 39 39 39 39 40 40 39 40 39
40 40 40 40 40 41 40 41 41 41 43 42 42 42 42 43
41 41 42 41 41 42 42 43 43 43 43 44 44 45 45 45
45 45 45 45 44 46 46 46 46 46 47 46 47 47 47 47
47 47 47 48 47 47 46 47 47 47 48 48 48 48 48 48
47 47 47 47 47 47 47 47 46 46 47 47 47 47 47 47
47 46 46 45 46 45 45 44 39 33 29 28 22 24 21 23
32 35 34 35 36 39 38 41 41 41 39 39 39 38 38 39
40 40 40 39 40 39 39 40 39 39 39 40 39 39 39 39
39 40 40 40 41 40 40 40 41 41 42 41 42 43 43 42
41 41 42 42 42 43 43 43 43 43 44 44 44 44 45 44
45 45 46 46 45 46 46 46 47 47 46 46 47 47 47 46
47 47 47 47 48 47 46 47 48 48 48 48 48 48 48 47
47 47 48 47 47 47 47 46 47 47 47 48 46 47 47 46
42 37 36 36 36 36 36 36 32 29 21 17 22 21 18 17
18 27 34 25 29 33 31 34 38 39 39 36 32 32 35 38
38 36 38 39 39 39 39 40 40 39 40 40 40 40 39 40
40 40 40 40 40 40 40 41 41 41 42 42 42 42 42 42
42 41 42 42 43 43 43 43 43 43 44 44 44 45 45 45
46 46 45 45 47 46 46 46 47 47 46 47 47 47 47 47
47 47 47 47 48 47 48 47 48 47 48 48 47 48 47 47
48 47 47 47 47 47 47 47 47 46 47 46 47 47 47 38
34 36 38 36 33 29 24 24 22 19 17 16 11 13 19 15
18 17 26 27 25 27 26 30 30 37 29 21 21 29 32 29
33 35 38 37 38 37 40 38 39 40 40 40 40 39 39 39
40 40 40 40 40 40 41 41 41 41 42 42 42 42 42 42
42 41 42 43 43 42 44 43 43 43 43 43 44 44 45 45
45 45 45 45 46 46 47 46 47 46 47 47 47 48 47 47
47 47 47 47 47 47 47 47 47 48 48 47 48 47 48 47
47 47 47 46 47 47 47 47 47 47 47 47 47 47 41 37
37 38 34 31 30 28 23 18 17 18 14 11 13 15 18 12
12 14 18 17 18 22 22 15 17 23 13 14 23 31 28 32
34 36 39 37 33 31 36 36 40 39 40 40 40 40 40 40
40 40 40 40 40 40 41 40 40 40 41 41 42 42 41 42
41 42 43 44 44 43 44 44 44 44 44 43 43 45 45 45
45 46 46 46 46 46 46 46 47 46 46 46 46 46 46 47
47 47 47 47 47 48 47 47 47 47 47 47 47 47 47 47
48 47 47 47 47 47 47 47 47 46 46 47 45 42 35 35
35 31 28 24 24 21 14 18 18 15 17 15 13 18 14 14
17 13 14 15 12 18 18 8 7 7 9 11 14 22 27 29
30 29 35 37 37 28 34 40 41 40 40 39 39 39 40 39
40 40 40 40 40 40 41 41 41 41 41 41 41 41 42 41
28 29 30 32 34 37 39 40 41 43 44 45 46 45 46 46
45 45 45 46 46 46 46 46 47 46 47 47 47 47 47 48
47 47 47 47 47 47 47 48 48 47 47 47 47 47 48 47
47 47 47 47 47 46 46 46 46 46 47 45 38 35 32 31
26 23 21 24 18 15 18 15 10 11 13 19 21 18 11 13
13 12 8 4 5 13 7 8 5 5 6 9 17 23 21 23
25 21 26 33 31 23 30 39 39 39 39 39 40 40 39 39
40 40 40 40 41 40 40 40 41 40 41 40 41 41 41 41
23 23 24 24 24 25 26 26 26 28 29 29 30 34 37 38
41 43 44 44 45 46 46 46 47 46 46 46 46 47 47 46
47 47 47 47 47 47 47 47 47 47 47 46 46 47 47 46
46 46 46 46 46 46 46 46 46 46 42 35 32 30 24 20
18 21 22 19 17 17 16 11 14 12 19 17 13 9 11 13
18 20 17 14 15 8 5 5 6 6 4 2 7 7 11 16
20 18 23 24 15 23 38 38 39 40 39 39 40 39 39 42
53 49 46 44 42 41 41 40 40 40 40 41 41 41 42 42
21 21 20 21 22 22 23 22 23 23 22 22 22 24 24 25
24 25 26 26 28 29 32 35 37 38 41 43 45 46 47 47
47 47 47 47 47 47 47 47 47 47 46 46 46 46 47 46
46 46 46 46 47 46 46 46 45 40 26 27 24 16 12 16
18 14 14 8 9 10 8 12 9 12 16 14 15 10 11 8
6 7 12 16 10 7 8 4 6 0 2 1 3 6 7 11
10 12 9 11 17 33 35 38 39 39 39 38 39 39 39 40
58 60 59 59 56 53 53 53 49 46 43 40 40 40 42 49
16 15 16 17 18 19 20 20 19 21 21 20 19 21 21 21
22 21 22 21 21 20 20 20 20 20 21 23 25 26 29 31
33 37 39 41 44 45 46 47 47 47 48 47 46 46 47 46
46 46 46 46 47 46 46 45 41 27 26 26 20 16 18 9
7 7 6 3 4 3 7 6 9 11 11 12 10 12 11 7
8 11 11 10 11 9 7 7 6 1 0 0 1 7 6 9
8 6 7 8 19 24 31 35 38 39 39 39 40 39 39 37
53 50 22 26 31 31 38 51 57 62 62 44 39 40 39 44
25 21 18 18 19 17 17 17 16 17 17 17 18 19 20 20
20 20 21 21 19 20 20 20 19 19 19 18 19 18 19 19
18 20 19 20 22 23 25 28 31 34 37 39 44 47 47 47
47 47 47 47 46 47 45 42 31 25 24 17 17 17 14 8
5 5 4 2 4 1 5 9 10 9 8 14 15 13 7 5
4 5 10 14 14 12 7 4 8 4 2 1 5 3 8 11
5 7 5 5 13 16 19 35 38 40 40 40 40 39 39 36
48 46 4 0 0 3 11 9 13 32 62 47 40 40 34 36
33 28 32 32 30 31 31 30 29 27 23 24 23 21 20 17
16 15 16 16 16 16 17 17 16 17 17 18 19 20 19 17
17 18 17 17 18 17 16 14 12 12 13 17 32 47 47 47
47 46 46 46 46 45 43 40 30 22 16 13 14 17 7 4
8 6 1 1 2 2 8 5 8 8 12 16 19 12 8 6
1 1 10 10 5 0 0 1 15 8 3 3 5 2 6 8
8 1 5 6 11 15 23 28 37 40 40 39 39 40 39 37
49 51 7 0 0 2 5 4 0 12 61 51 40 40 34 29
34 27 32 35 30 36 36 33 34 31 28 33 36 35 34 33
31 30 29 26 25 24 22 20 18 17 16 16 17 17 17 16
14 14 15 15 16 17 16 14 12 10 10 12 30 46 47 47
47 47 46 46 45 44 42 33 21 14 11 9 12 6 1 2
7 2 4 2 1 2 7 5 7 8 15 14 21 10 8 3
3 6 12 7 5 2 2 1 5 10 5 3 5 3 6 3
7 1 0 1 3 10 18 34 36 38 40 40 39 39 39 36
48 55 11 0 0 0 1 0 0 6 58 55 40 40 34 24
33 27 33 33 29 34 35 32 35 28 32 32 37 37 38 38
37 38 33 32 36 35 33 32 33 34 32 31 29 27 26 23
20 19 18 16 16 14 15 14 13 14 15 16 30 47 47 47
47 46 46 46 45 42 36 20 12 10 8 10 5 0 2 5
6 7 4 2 6 3 5 6 5 12 19 20 18 15 9 7
10 21 13 10 12 5 8 11 10 3 5 3 7 3 6 5
8 7 2 2 2 4 9 26 37 39 39 39 38 40 40 36
46 60 19 0 0 1 2 2 0 2 51 58 39 39 33 24
35 33 33 33 32 33 36 32 34 31 35 32 37 37 37 38
38 37 33 34 38 35 32 37 38 37 32 37 34 33 32 35
37 35 35 32 31 29 27 26 23 18 17 18 32 47 47 46
47 47 47 46 45 35 22 10 11 8 7 4 2 4 2 5
9 8 0 1 4 8 9 1 8 14 12 13 21 13 8 8
20 15 17 17 10 8 18 10 8 4 3 5 7 5 13 6
5 8 5 4 2 6 7 14 27 35 39 39 39 40 40 36
43 60 25 0 0 0 1 0 0 0 43 60 40 40 33 23
36 36 36 36 36 36 36 37 37 37 37 35 38 37 38 38
39 37 37 35 34 38 35 39 39 34 33 38 36 36 39 37
38 37 37 34 39 41 40 39 37 23 17 19 33 47 47 47
47 47 47 47 45 26 11 6 8 8 8 5 5 6 3 6
10 3 2 1 6 12 10 2 12 14 11 20 25 16 8 13
16 14 19 13 6 13 13 15 10 8 5 7 14 4 7 4
4 6 10 4 5 5 9 13 19 29 40 40 39 40 39 35
38 61 35 0 0 0 3 2 0 0 35 63 42 39 33 22
35 35 36 36 36 37 37 37 37 38 38 37 38 38 38 38
39 37 34 34 36 38 37 40 39 34 35 38 37 39 41 37
37 36 37 35 38 41 40 40 39 26 17 19 33 47 47 47
47 46 46 45 38 12 3 6 6 6 5 7 7 1 7 9
7 4 3 2 8 16 2 3 16 11 15 17 18 12 12 12
16 28 12 1 5 11 16 12 7 7 8 15 16 7 7 12
8 6 9 6 5 5 7 10 15 26 39 40 39 40 40 35
35 61 45 1 16 13 5 2 0 0 29 62 46 39 33 24
35 35 35 36 36 36 36 36 36 36 36 37 38 38 38 39
39 39 39 39 40 40 39 40 39 39 39 38 40 40 41 38
35 39 40 37 35 39 42 41 39 27 19 19 33 47 47 46
47 47 47 42 24 3 8 5 6 3 2 8 6 1 9 10
9 9 2 4 11 14 0 6 13 13 11 18 22 13 13 17
18 14 5 6 11 12 21 7 7 7 20 19 15 8 7 9
14 8 12 14 5 9 6 14 16 21 36 35 38 40 40 35
31 55 49 10 31 30 16 8 12 10 39 60 46 38 33 23
36 36 36 36 36 37 37 38 37 37 38 38 38 39 39 39
40 37 36 36 37 38 39 38 39 40 41 40 41 41 41 41
41 41 40 38 37 40 41 41 39 26 20 19 34 47 47 47
47 45 42 22 9 3 6 8 7 0 2 7 4 4 14 11
11 15 1 9 15 11 2 8 14 11 8 11 15 17 19 15
8 4 12 3 14 8 5 7 9 12 21 19 24 14 12 5
10 10 16 17 12 10 11 19 21 21 27 31 34 35 37 34
29 47 48 31 35 35 31 26 27 25 37 55 45 37 33 23
37 36 36 37 37 38 38 37 37 37 38 38 38 38 39 38
39 39 39 39 39 39 39 38 38 38 38 38 38 39 40 41
41 41 41 41 41 41 42 42 40 25 18 19 34 48 47 46
47 42 25 11 4 5 5 9 7 0 3 8 2 8 15 10
21 13 2 13 17 8 5 7 18 11 11 12 14 15 17 9
9 16 7 9 18 3 3 8 10 10 19 22 26 16 15 6
11 5 11 25 22 11 10 21 29 23 26 22 24 24 24 25
24 33 36 36 38 38 39 40 42 39 36 43 38 36 32 23
37 37 37 37 37 37 37 37 38 37 38 38 39 39 40 39
39 40 40 40 40 39 40 40 40 40 40 40 40 40 39 39
39 40 40 39 39 41 42 41 39 27 18 18 35 47 48 47
45 28 15 6 3 4 6 14 12 6 3 9 4 15 20 14
27 4 4 15 19 11 5 13 19 11 9 10 21 32 19 18
20 18 10 17 11 4 1 15 13 11 16 16 27 20 10 12
21 15 27 19 19 8 8 15 28 24 25 21 23 23 23 24
24 24 24 24 23 21 20 20 22 23 25 27 29 36 33 23
36 36 37 37 37 37 38 38 38 38 38 38 38 38 39 38
39 39 40 40 39 40 40 41 40 41 41 41 41 41 41 41
41 41 41 41 40 42 41 41 39 27 22 23 37 48 48 46
38 14 8 5 3 5 9 28 26 10 6 14 9 19 21 24
23 4 5 21 22 13 1 15 17 6 6 4 7 11 16 19
24 17 16 9 6 10 9 22 15 14 22 30 15 30 30 30
30 25 44 32 17 18 16 22 31 29 26 22 17 20 21 22
23 23 24 25 25 26 25 29 24 18 19 19 22 25 25 20
37 36 37 37 37 37 38 37 38 38 38 39 38 38 39 39
39 39 40 40 40 40 40 39 40 40 40 41 41 41 41 41
42 42 42 42 42 42 41 41 40 26 22 24 36 47 47 45
26 6 7 3 4 6 19 32 31 17 10 25 17 26 28 26
16 10 7 21 29 11 3 20 16 10 4 10 8 7 15 19
19 15 21 8 16 16 11 20 16 12 17 23 26 36 40 39
54 28 63 50 31 28 24 31 32 23 22 21 16 28 27 23
23 26 34 35 34 35 39 45 36 22 24 23 22 23 23 17
36 37 36 37 37 37 38 38 38 38 38 38 39 38 39 39
40 39 39 40 39 40 40 40 41 41 41 41 41 42 42 42
42 42 41 41 41 41 42 41 40 25 21 21 36 48 47 42
11 7 4 5 4 14 17 15 13 12 17 33 14 29 16 17
16 14 11 23 28 7 15 20 12 0 4 7 8 6 10 21
20 14 13 17 18 15 21 24 12 8 25 27 27 43 44 49
75 78 87 68 39 35 36 32 33 22 26 23 16 31 36 40
47 47 47 40 39 43 47 50 44 30 32 28 26 24 22 16
31 33 30 35 35 34 37 37 37 36 38 37 37 37 38 39
39 39 40 39 40 40 40 40 40 41 41 41 41 41 41 41
42 42 41 42 42 42 42 41 39 26 21 19 36 48 48 30
2 4 4 4 11 24 5 6 7 10 30 30 10 23 16 7
21 13 11 23 22 9 21 21 3 4 6 3 2 8 16 11
13 17 28 27 27 26 26 17 10 8 16 29 40 59 64 82
103 107 115 89 45 37 38 36 23 21 23 22 14 28 30 41
55 53 53 45 43 49 51 49 47 30 34 39 43 40 37 31
33 28 28 36 32 32 38 35 35 32 36 35 34 35 37 39
40 40 40 40 40 39 40 40 41 41 41 41 42 42 42 42
42 42 42 42 42 41 42 41 39 26 22 21 36 48 45 15
5 8 7 4 16 31 1 5 2 15 17 18 14 20 15 4
22 12 14 19 7 8 13 15 5 5 3 3 7 10 10 17
27 43 52 55 36 31 24 13 7 11 21 25 61 91 106 114
116 121 118 100 43 44 36 33 22 18 20 22 13 24 24 30
53 54 51 47 39 31 22 14 42 26 23 33 24 13 15 17
34 31 30 36 34 33 37 35 36 34 34 35 36 34 35 39
39 40 40 40 40 40 40 41 41 41 41 41 42 42 42 42
42 42 42 42 41 42 42 42 40 23 21 21 36 48 36 6
5 9 15 10 29 11 6 2 3 21 13 12 18 20 10 4
19 17 10 11 4 7 12 9 12 3 2 4 7 12 21 29
48 55 66 60 50 31 15 8 9 16 25 35 84 108 117 115
123 126 122 111 50 40 38 26 28 25 21 21 14 20 9 11
35 24 16 11 7 3 3 5 37 35 22 32 18 0 0 1
37 37 37 37 37 37 37 37 37 37 35 37 37 38 38 40
40 40 40 40 41 41 41 41 41 41 41 42 42 42 42 42
43 43 43 42 43 42 42 42 39 24 18 21 38 46 27 2
6 9 29 18 26 2 8 5 11 32 7 12 19 20 11 8
9 12 3 5 4 7 7 8 4 1 2 4 9 14 24 35
43 60 74 68 48 26 20 21 19 25 28 57 102 109 121 119
125 128 126 115 67 45 33 31 40 26 21 21 14 17 6 3
22 11 5 5 5 8 7 6 25 43 23 29 18 0 0 12
37 37 38 38 39 39 38 38 38 39 39 40 40 39 40 40
40 40 40 41 41 41 41 41 41 42 42 41 42 41 42 42
42 42 41 42 42 42 43 42 39 25 21 23 39 47 25 1
9 14 34 18 16 2 8 6 13 25 5 9 15 12 8 7
8 8 9 5 4 10 6 8 5 2 3 8 12 22 27 41
54 65 77 85 72 56 34 26 30 37 63 100 110 119 123 127
129 132 128 120 82 39 26 38 42 27 21 21 15 17 6 3
15 17 7 7 7 17 18 8 10 46 23 27 20 0 2 8
38 38 39 38 39 38 38 38 38 39 39 39 39 40 40 40
40 40 41 41 41 41 41 42 42 41 42 41 42 42 42 42
43 43 42 42 43 43 43 43 40 25 24 25 38 46 21 1
7 19 24 10 4 1 11 5 16 18 2 9 13 13 12 7
8 6 10 11 11 7 8 7 1 3 13 21 19 22 25 36
57 82 102 110 113 107 97 87 88 103 111 113 118 123 127 132
132 132 133 125 96 42 33 52 45 28 21 20 19 13 4 1
8 24 8 4 8 10 11 8 3 45 25 22 20 0 1 7
38 38 39 38 38 38 39 39 39 39 39 40 40 40 40 40
41 40 41 40 42 41 41 42 42 42 42 42 43 42 42 43
43 43 43 43 43 43 43 42 40 24 24 25 39 46 23 0
3 25 25 9 1 3 12 6 14 9 3 11 14 20 16 11
12 16 15 7 8 8 7 4 9 8 12 11 9 7 8 10
18 25 30 33 35 34 37 33 34 35 37 38 40 41 38 61
53 97 133 130 117 60 47 55 48 29 22 21 27 32 23 5
4 32 18 4 4 0 3 3 0 39 26 22 26 0 2 10
39 39 39 39 39 39 39 39 40 40 40 40 40 40 40 41
41 41 41 42 42 42 42 42 42 42 42 42 42 42 42 42
43 42 43 43 44 43 44 43 40 22 23 26 39 44 22 2
2 25 25 13 2 11 12 5 13 3 7 17 21 12 11 19
16 13 4 7 11 14 23 31 21 17 13 10 9 5 2 1
1 1 2 2 2 4 5 6 7 9 10 13 17 21 16 65
9 8 39 105 125 85 51 54 48 30 24 22 15 11 10 1
0 27 22 8 0 0 1 0 1 33 39 39 32 0 2 10
39 39 39 39 39 39 39 39 39 39 40 40 40 40 40 41
41 41 42 42 42 42 42 42 42 42 42 43 43 42 43 43
44 43 43 43 43 43 43 43 40 18 19 24 38 44 27 1
4 7 19 11 5 21 6 8 8 5 10 11 8 12 8 8
7 7 5 17 62 12 14 13 11 3 3 1 4 7 17 21
31 39 46 41 32 27 31 30 20 18 11 8 7 6 7 12
5 5 4 12 95 100 55 55 47 30 25 24 10 0 0 2
2 19 24 11 0 0 0 0 1 20 50 46 35 0 0 1
38 38 39 39 39 39 39 39 39 39 40 40 41 41 41 41
42 41 41 41 41 41 42 42 42 42 43 43 43 42 43 42
43 42 43 43 43 44 44 43 40 18 17 21 37 43 21 7
3 4 12 9 8 24 6 6 3 9 5 6 8 6 2 8
16 63 83 96 40 13 14 13 11 5 4 7 14 25 46 66
83 96 97 92 85 71 66 59 45 35 19 11 7 3 7 21
6 10 13 10 13 92 56 57 48 31 24 24 13 4 7 13
13 13 29 11 0 0 0 0 0 8 51 50 39 1 0 0
40 40 39 39 39 39 39 40 39 39 39 39 40 40 40 41
41 41 42 42 42 42 42 42 42 42 42 42 42 43 43 43
43 43 43 44 44 44 44 43 40 20 16 21 37 44 17 12
3 9 14 7 11 17 11 4 5 5 1 0 4 6 10 35
114 122 103 103 106 62 40 27 12 9 9 17 22 42 67 91
117 123 122 116 108 97 84 74 52 39 22 19 20 14 13 31
0 2 6 11 6 51 59 57 49 32 24 22 15 8 13 17
8 5 25 2 0 0 0 0 0 2 45 50 43 1 0 0
37 36 36 37 37 36 38 39 39 38 39 39 40 39 39 40
40 40 40 40 40 40 40 40 41 41 42 41 42 42 43 42
42 42 42 42 43 43 42 42 39 21 16 18 38 42 12 12
6 5 22 9 13 11 11 6 10 3 2 5 8 8 21 111
107 57 70 73 72 109 67 30 20 17 15 21 33 48 74 106
122 130 127 125 122 118 108 85 54 27 21 29 30 20 18 21
0 0 0 5 6 27 68 45 43 31 23 21 14 4 11 17
13 3 21 6 0 1 4 12 24 38 52 51 45 5 0 0
33 35 33 33 35 35 38 39 36 35 34 36 37 34 33 37
38 41 40 37 38 37 38 38 38 39 42 42 40 39 41 40
42 42 42 42 42 43 43 42 40 24 16 18 38 40 14 10
4 6 19 19 8 13 13 10 12 6 6 8 9 8 70 126
89 117 124 68 68 103 58 40 35 29 27 33 49 70 91 109
124 131 129 127 123 121 115 94 62 28 26 50 37 20 25 21
0 0 0 3 3 9 48 6 7 31 24 21 12 1 3 6
8 1 13 27 25 31 35 43 54 56 57 50 43 39 33 21
37 37 36 35 36 37 38 38 36 36 37 38 38 38 37 38
38 40 40 38 38 38 39 37 38 37 40 41 39 38 40 39
40 42 42 42 42 42 42 41 39 25 20 20 38 38 12 11
7 9 16 16 5 15 16 19 12 6 17 11 7 24 117 114
101 149 139 78 98 108 99 67 45 43 36 50 66 77 92 111
122 128 131 128 124 122 117 89 54 29 27 30 12 8 22 10
0 0 0 2 1 4 18 3 3 24 24 23 12 0 2 2
5 7 4 45 47 44 45 50 55 56 54 48 34 41 40 44
37 37 37 37 37 38 38 38 38 38 38 38 39 38 38 39
38 39 39 40 40 40 40 40 40 41 40 41 42 41 41 41
41 41 41 41 41 42 42 41 39 25 22 22 38 36 15 14
5 10 17 8 5 13 22 15 2 13 11 8 19 52 137 98
123 148 146 118 124 128 116 71 58 60 60 50 71 95 102 118
122 126 126 126 123 120 113 84 44 18 8 12 9 1 22 5
0 0 0 0 5 18 4 1 1 26 27 31 25 11 8 13
25 19 9 39 57 54 51 49 45 36 22 25 7 12 19 28
34 36 37 36 36 36 38 38 38 38 38 39 39 38 40 39
40 40 41 40 40 40 40 40 40 40 41 41 42 42 42 42
43 42 42 43 42 42 42 42 39 26 23 23 37 35 13 10
8 10 20 12 6 10 10 10 7 15 11 24 29 71 138 89
139 147 142 143 111 113 114 86 73 76 84 63 84 92 109 119
125 129 128 126 125 123 116 90 48 25 21 31 27 7 15 1
0 0 0 0 9 30 2 2 4 34 34 41 35 21 27 29
37 34 35 36 42 38 36 31 26 19 14 22 0 0 0 5
34 33 34 33 34 35 34 35 37 39 39 39 39 39 40 40
40 40 40 40 41 40 41 41 41 41 41 42 42 41 42 42
41 42 42 42 42 43 42 42 39 25 24 23 39 41 17 12
9 10 16 10 8 4 13 10 13 12 18 21 36 78 133 86
142 145 144 124 46 130 115 108 95 97 91 82 94 107 116 127
125 129 126 122 122 123 121 100 56 39 28 22 17 10 6 0
0 0 0 0 23 70 58 0 9 38 36 39 41 30 34 29
33 31 29 24 20 26 33 34 33 35 33 32 0 0 0 0
37 37 38 38 38 37 37 36 38 38 39 39 39 40 40 40
40 40 40 40 41 41 41 41 41 41 41 41 42 42 42 43
43 43 43 43 43 43 43 43 40 26 24 23 39 45 17 13
10 11 13 3 6 6 11 2 11 13 15 21 40 92 127 85
136 139 141 84 114 126 133 125 116 113 98 92 111 110 118 127
129 128 125 125 125 124 123 109 64 45 39 20 12 9 2 0
0 0 0 7 38 93 104 6 17 36 29 38 43 33 30 25
22 22 15 2 5 4 5 6 7 23 44 40 3 2 0 0
38 38 38 38 38 38 39 39 39 39 39 39 40 40 40 40
41 40 41 41 41 41 41 41 41 41 41 42 42 42 43 43
43 43 43 43 44 43 43 42 40 26 24 23 40 47 30 13
11 11 7 0 3 4 2 1 7 9 18 21 50 107 129 97
130 143 126 127 93 77 144 141 124 127 115 106 126 121 120 126
130 130 129 128 127 127 123 117 83 52 43 31 19 11 1 0
0 0 2 33 43 104 114 46 19 14 7 14 17 18 18 36
32 32 23 0 0 0 2 16 2 18 48 43 24 30 12 0
37 38 38 38 39 39 39 39 39 39 39 39 40 39 40 40
40 40 40 41 41 41 41 42 42 42 42 41 42 42 42 43
43 43 43 43 44 43 44 43 40 26 22 22 39 48 40 18
12 12 6 0 0 0 0 2 10 11 21 28 58 119 135 103
121 145 114 139 129 54 126 149 141 135 126 124 124 123 126 125
126 127 127 126 128 125 123 123 113 64 52 40 26 16 3 0
0 3 25 36 60 106 109 103 27 2 1 1 3 0 5 42
16 19 25 0 0 0 4 26 6 17 50 47 28 22 16 4
38 38 38 38 38 38 39 38 39 39 39 40 40 40 40 41
41 41 41 41 41 41 41 41 41 42 42 42 42 43 43 43
43 43 43 44 44 44 43 43 40 25 19 22 39 48 46 27
13 10 6 1 0 0 0 2 10 10 17 28 63 126 138 114
121 143 112 139 146 88 112 149 137 138 124 124 126 127 126 128
129 128 128 129 128 124 124 127 127 102 60 44 33 22 8 0
0 24 41 27 85 101 101 113 69 0 0 0 0 0 5 41
15 14 23 0 0 0 2 21 10 15 50 46 9 4 7 10
38 37 38 38 38 39 39 39 39 39 40 40 40 40 39 40
40 40 41 41 41 41 41 41 41 42 42 42 43 42 43 43
44 43 43 43 44 44 43 43 40 24 20 23 40 48 47 31
13 8 6 1 0 0 0 4 8 12 15 28 72 130 142 122
121 135 118 131 142 122 125 148 134 139 131 129 133 130 131 129
128 127 131 128 125 125 125 124 129 129 108 61 41 28 15 3
2 39 21 43 102 85 87 108 108 13 0 0 0 0 1 39
17 10 20 0 0 0 2 17 20 17 50 45 3 12 4 4
38 38 38 38 38 38 39 38 39 39 39 39 40 39 40 40
41 41 41 41 41 41 41 41 41 42 42 42 42 42 43 43
43 43 43 44 44 43 44 43 39 24 21 24 39 48 47 40
13 8 9 1 0 0 0 8 7 17 18 32 72 127 136 133
120 110 113 141 148 144 105 146 130 138 131 129 132 129 128 129
127 128 128 126 125 125 126 126 127 131 128 122 88 43 17 13
12 22 25 95 87 73 82 99 113 47 0 0 0 0 0 36
24 21 28 0 3 2 5 12 25 19 49 44 4 2 0 0
38 38 38 38 39 39 39 39 39 39 40 39 40 40 41 40
40 40 41 41 40 40 40 41 42 41 43 42 43 43 44 43
44 43 43 43 43 43 43 43 39 23 24 23 40 48 48 46
21 7 14 4 0 0 3 5 3 13 19 32 74 122 127 136
118 107 111 134 142 145 104 140 130 137 133 129 129 127 126 128
128 128 127 126 124 125 126 127 127 127 130 131 132 124 98 72
58 70 89 100 74 67 86 102 116 79 0 0 0 0 0 36
37 38 33 0 0 3 6 3 7 12 48 43 4 0 0 0
38 38 38 38 38 39 38 39 39 39 39 39 40 39 39 40
40 41 41 41 41 41 41 41 41 42 42 42 42 42 42 43
43 42 43 43 43 43 44 43 39 23 24 22 39 48 47 45
28 3 10 5 0 0 0 4 4 13 21 27 70 115 123 132
128 114 124 129 134 140 135 131 128 134 130 126 126 125 126 126
127 127 125 124 124 127 130 130 127 125 128 126 137 135 127 121
115 97 76 92 84 80 96 107 128 107 8 0 0 0 0 32
45 43 35 0 0 6 20 0 0 9 51 48 29 25 19 14
38 38 38 38 38 39 39 38 39 39 39 39 39 40 40 40
40 40 40 40 40 41 40 41 41 42 42 43 42 42 42 43
43 43 43 43 43 43 43 42 38 23 23 21 40 48 47 47
34 4 6 6 0 0 3 6 5 10 24 31 68 112 121 123
123 119 133 136 142 145 134 112 128 128 124 124 125 125 126 126
127 124 123 124 125 129 131 128 127 123 125 125 132 135 129 123
119 79 68 94 102 112 114 116 129 120 21 0 0 0 0 26
49 49 38 4 0 8 24 1 0 9 52 41 47 52 47 42
37 37 37 38 38 39 38 39 39 39 39 38 39 40 40 40
40 39 40 40 40 40 41 41 42 42 42 42 42 42 42 42
42 42 43 43 43 42 43 43 39 24 23 21 40 48 47 46
37 8 5 4 5 0 3 8 7 12 24 30 77 114 119 117
116 117 131 142 141 145 143 106 129 124 123 128 125 123 125 124
122 121 122 124 126 125 128 127 126 124 122 124 131 133 128 121
126 69 67 87 100 105 99 103 109 106 13 0 0 0 0 22
48 48 47 35 4 9 21 2 0 7 37 34 48 55 51 48
38 38 38 38 38 39 39 39 38 38 39 39 39 40 39 39
40 40 41 40 40 41 41 41 41 41 42 42 42 42 42 42
43 43 43 43 43 43 43 42 39 24 24 22 40 48 48 47
42 13 5 2 5 2 1 8 6 11 23 26 67 115 119 114
112 113 121 137 139 144 145 87 124 124 124 128 127 124 125 125
122 123 124 128 128 126 129 127 126 125 124 125 130 132 125 122
127 94 70 69 59 27 11 68 97 70 0 4 5 3 0 21
50 46 32 35 19 16 21 7 3 6 24 37 46 48 49 45
38 38 38 38 38 39 39 39 39 39 39 40 40 40 40 40
40 40 40 39 40 41 41 42 41 41 42 42 42 42 43 43
43 42 43 43 43 43 43 42 39 27 25 24 41 49 48 46
40 12 2 2 4 0 0 3 5 11 25 30 55 109 118 112
110 110 111 121 129 133 127 61 117 120 124 125 124 126 128 127
123 123 125 127 129 129 130 131 129 125 125 130 131 131 125 127
126 119 112 108 105 67 28 49 63 27 5 21 23 9 4 33
45 14 0 18 46 40 41 41 36 10 10 16 19 21 22 26
38 38 39 39 39 39 39 38 39 39 39 39 39 39 39 40
40 41 40 41 42 41 41 41 42 42 42 41 42 42 42 42
42 43 43 43 44 44 43 43 39 28 24 24 41 48 47 45
42 13 0 1 1 0 0 3 3 11 20 34 44 91 113 114
110 108 109 108 102 104 61 56 114 117 120 123 122 124 124 123
120 121 124 125 126 128 129 128 126 127 129 130 133 131 123 121
119 114 109 99 89 57 36 51 58 52 47 49 47 45 43 39
19 4 4 6 43 18 16 20 21 2 0 0 0 0 0 4
37 38 38 38 38 38 39 39 38 39 39 39 40 40 40 41
40 41 41 41 41 41 41 41 41 41 41 42 42 42 42 43
43 43 43 43 44 43 44 43 39 28 23 24 40 48 47 48
44 12 0 0 0 0 0 0 0 3 16 47 52 89 115 115
113 113 115 114 117 104 54 90 113 114 119 121 121 120 121 123
123 121 123 123 127 128 127 129 130 128 131 133 133 131 123 117
110 106 107 108 94 71 45 55 63 60 58 58 58 54 34 11
3 25 25 6 33 17 0 0 5 0 0 0 0 0 0 1
37 37 38 38 39 39 38 39 39 39 39 39 40 39 39 40
40 41 40 40 41 41 41 41 41 42 42 41 41 42 42 42
42 42 43 43 44 44 43 43 39 28 23 25 41 48 47 46
41 15 0 0 0 0 0 0 0 0 9 38 66 108 112 113
116 116 114 112 115 112 99 108 108 109 113 117 119 120 119 122
123 124 121 123 123 126 129 128 130 128 129 134 129 127 120 116
109 115 119 115 103 68 46 55 64 62 62 60 49 40 25 0
0 24 24 14 24 33 6 1 10 0 0 1 0 0 0 1
38 38 38 38 39 39 38 39 38 39 39 39 40 39 40 40
41 40 41 41 41 41 41 41 40 41 41 41 42 42 42 42
43 43 43 43 43 43 43 43 39 28 24 25 41 49 48 47
44 22 3 0 0 0 0 0 0 0 5 17 64 108 108 107
118 116 113 110 108 107 106 104 104 103 103 108 117 119 120 119
122 123 119 122 123 125 129 127 132 131 132 131 123 124 120 118
124 128 134 121 111 91 48 46 48 53 61 51 35 32 35 3
0 8 28 28 33 44 13 0 10 0 1 3 0 0 0 0
38 38 38 38 39 39 38 39 39 39 39 39 39 40 40 40
40 40 40 40 40 41 41 42 42 41 41 41 42 42 42 43
42 42 43 42 43 43 44 42 39 27 25 26 41 48 48 47
46 32 9 0 0 0 0 0 0 1 12 26 78 102 106 105
109 110 108 107 101 102 98 98 98 100 99 104 111 116 118 119
118 119 119 120 121 123 125 125 127 128 132 131 129 124 122 118
125 124 85 67 74 91 68 40 37 40 56 48 23 23 39 14
0 14 27 25 30 45 17 0 15 6 9 10 0 0 0 0
39 38 39 38 39 39 39 39 39 39 40 39 40 39 39 40
40 40 40 40 40 41 41 40 41 41 40 41 42 42 42 43
42 43 42 43 43 43 43 43 39 26 24 24 40 47 48 47
46 39 11 0 0 0 0 0 0 1 16 29 80 105 103 104
107 106 105 102 97 95 94 93 92 89 97 98 107 113 114 113
115 117 118 120 120 120 122 122 123 127 132 129 128 123 115 103
93 88 72 29 24 52 68 42 39 33 51 46 13 20 34 22
8 16 17 13 20 38 28 1 18 9 17 15 0 5 1 0
39 39 38 38 38 38 38 38 39 39 39 39 40 40 40 40
40 40 39 40 40 40 40 40 41 41 41 42 41 42 42 42
42 42 42 42 43 42 42 43 38 26 23 24 41 48 48 47
45 26 1 0 0 0 0 0 0 1 14 40 88 103 102 101
105 103 104 100 93 90 88 88 88 92 95 98 103 107 110 109
111 112 112 117 120 120 121 123 123 126 126 125 122 117 97 91
103 139 135 66 14 28 54 47 42 30 45 49 25 28 28 31
34 27 13 10 14 31 39 4 21 8 15 17 0 0 0 0
39 39 39 38 39 39 39 38 39 38 39 40 39 39 39 39
40 39 40 40 40 40 40 40 40 40 41 41 41 41 41 42
41 42 42 42 42 43 43 43 39 26 23 23 40 48 47 46
41 20 2 0 1 0 0 0 1 4 16 46 100 101 100 99
103 106 106 99 87 83 83 83 87 92 93 94 94 101 107 104
106 105 106 113 113 117 118 118 121 123 124 128 118 106 88 116
108 142 147 104 25 44 48 47 43 32 36 53 35 27 30 32
29 27 25 24 31 30 43 14 23 9 14 18 0 3 1 0
39 39 39 38 38 38 38 38 38 38 39 39 39 39 39 39
39 40 39 39 40 40 40 40 40 40 41 41 41 41 41 42
42 41 42 42 42 42 42 41 38 24 23 22 40 47 47 47
45 37 13 0 2 0 2 6 15 19 33 74 104 101 100 99
103 108 106 98 84 79 83 83 86 91 93 90 90 93 99 99
102 102 108 108 112 117 119 117 119 121 124 124 118 108 106 120
111 116 137 105 42 49 47 47 43 34 27 51 44 39 35 40
20 26 40 48 49 45 48 28 25 9 11 15 0 0 0 0
39 39 39 38 38 38 38 38 39 39 39 39 38 39 39 39
39 39 39 40 40 40 40 40 40 40 41 41 41 41 42 41
41 41 41 42 41 41 42 42 37 24 23 22 40 47 47 46
46 43 18 7 3 0 0 13 55 54 69 100 106 103 102 103
104 111 108 97 81 79 83 83 86 89 89 92 92 91 94 96
97 98 103 104 109 113 118 117 121 121 121 120 118 106 99 106
117 114 77 58 51 47 48 46 45 37 24 43 45 40 34 31
4 38 46 49 50 47 43 22 28 16 17 19 20 24 29 35
39 39 39 38 38 38 38 38 38 38 38 38 39 39 39 39
39 40 40 39 40 39 40 40 40 40 40 40 41 41 40 41
41 42 41 42 42 42 42 42 37 24 23 21 39 47 47 46
46 43 34 24 10 0 0 14 68 81 102 107 108 105 103 105
108 115 113 99 81 75 77 86 91 94 90 90 89 87 90 89
91 94 98 101 109 112 115 116 119 118 121 117 117 107 104 111
118 110 90 68 50 50 51 48 46 38 24 34 48 39 31 36
24 48 51 50 47 36 14 0 33 55 55 56 58 60 61 62
40 40 38 38 38 38 38 38 38 38 38 38 38 38 39 39
39 39 39 39 39 40 39 39 40 40 40 40 41 41 40 41
41 41 41 42 42 41 42 42 38 24 22 21 39 47 47 46
46 46 44 36 21 3 0 18 81 99 110 113 110 107 106 107
110 116 116 102 82 69 79 92 100 102 99 93 86 82 82 82
82 87 95 100 105 108 114 115 116 113 116 115 114 109 102 103
108 117 115 88 67 49 49 47 45 38 26 24 48 40 40 43
46 51 50 46 36 17 9 8 33 61 60 62 63 63 63 62
40 39 38 38 38 38 38 38 38 38 38 38 38 38 38 39
39 38 39 39 39 39 40 39 40 39 39 39 40 40 40 40
41 41 41 41 42 42 42 41 38 25 20 20 39 46 46 46
46 46 45 43 31 16 4 33 92 106 112 114 112 107 107 107
114 119 117 103 83 70 79 97 108 108 104 99 90 80 74 74
78 83 89 98 104 108 110 112 114 110 113 114 112 112 102 97
98 95 96 92 89 53 48 49 48 40 26 17 42 43 41 46
49 48 46 37 35 41 38 35 41 57 54 50 47 43 37 20
41 39 39 38 37 37 37 38 38 37 38 38 38 38 39 39
39 39 39 39 39 39 39 39 39 40 40 40 41 41 41 41
41 42 41 42 41 42 42 41 37 24 20 20 38 46 47 46
46 45 46 45 43 37 24 54 97 107 111 115 114 109 107 110
115 119 117 107 91 78 87 102 110 108 107 101 92 82 77 77
77 82 84 91 96 99 101 106 112 110 109 112 114 115 113 107
100 84 57 50 65 49 46 48 50 41 26 16 29 48 45 45
41 37 35 34 35 36 34 33 33 34 32 31 30 29 27 20
41 40 39 38 37 38 37 38 38 38 38 38 38 38 38 38
39 39 39 39 39 39 39 39 40 40 40 39 39 39 41 41
41 40 41 44 41 42 41 41 38 25 21 21 39 46 46 45
45 45 45 45 45 45 42 66 105 111 112 115 115 110 108 110
115 122 117 115 107 96 96 105 110 107 105 101 91 84 83 75
76 84 84 86 91 92 97 103 113 118 112 105 112 115 118 118
117 112 100 70 46 47 49 49 50 42 26 17 22 47 37 32
32 32 31 32 32 32 32 32 31 31 31 30 30 29 28 27
43 41 39 39 39 38 38 37 37 37 38 37 38 38 39 39
39 39 38 39 39 39 39 39 39 39 39 39 40 40 40 41
40 31 35 42 42 42 41 41 37 24 19 20 38 46 45 45
46 45 45 46 45 45 42 78 107 110 114 113 113 109 108 111
116 121 120 117 116 113 109 107 106 106 104 99 89 85 85 82
83 85 82 78 80 86 91 101 114 118 118 109 106 111 120 124
124 122 112 91 52 53 53 53 53 43 25 15 17 38 31 31
32 32 32 31 28 27 27 27 27 27 26 26 25 25 25 25
45 41 39 39 39 39 38 38 38 38 38 38 38 38 38 38
39 38 39 39 39 38 39 39 40 39 39 40 40 40 40 40
39 35 43 49 50 50 50 49 47 41 38 38 47 50 50 49
49 49 49 48 48 48 46 89 107 112 114 116 113 108 108 112
115 120 121 117 118 117 116 112 109 106 103 99 93 92 89 88
83 83 76 76 76 78 80 90 100 110 119 122 117 112 119 126
131 129 118 104 57 47 50 53 53 44 25 15 15 18 29 31
31 32 32 18 2 2 2 2 2 2 2 2 2 2 3 3
46 42 40 39 39 38 38 37 37 37 37 38 38 38 38 38
38 38 38 39 39 39 39 38 38 39 39 39 39 40 39 31
29 28 45 54 54 54 54 54 53 53 53 53 52 52 52 52
53 52 52 52 52 51 53 97 110 112 114 115 113 108 108 111
114 119 120 118 118 115 112 111 110 107 105 102 98 95 91 86
82 75 72 69 70 69 69 70 84 98 110 118 122 124 122 124
129 127 121 110 73 42 46 51 52 44 24 15 15 6 26 34
30 31 32 15 0 0 0 0 0 0 0 0 0 0 0 0
47 43 41 39 38 37 37 37 38 38 38 38 38 38 39 38
38 38 38 38 38 38 36 35 37 39 39 39 39 40 39 25
23 24 45 55 54 55 54 54 54 54 54 54 54 54 53 53
54 53 53 52 52 51 63 103 111 114 115 115 112 108 110 112
116 119 120 116 112 112 110 109 108 109 107 103 100 98 93 83
69 58 56 58 62 67 64 62 64 73 90 102 112 120 123 121
122 121 117 112 82 40 43 48 51 43 24 16 15 7 24 30
25 30 32 17 0 0 0 0 0 0 0 0 0 0 0 0
47 42 40 39 38 37 37 37 37 37 37 37 37 38 38 38
38 38 38 38 38 37 34 34 37 39 39 39 39 39 37 24
21 23 45 55 53 51 52 51 51 51 51 51 50 50 51 51
50 51 51 50 50 47 72 106 111 114 115 113 112 109 110 110
115 120 119 116 115 113 114 112 109 109 108 106 98 93 84 63
47 45 58 68 73 74 70 64 62 59 64 74 92 108 116 111
110 110 110 108 79 42 41 46 49 42 24 17 22 21 25 23
18 30 32 18 0 0 0 0 0 0 0 0 0 0 0 0
48 42 40 38 36 36 36 36 36 35 36 37 38 38 38 39
39 38 39 38 36 35 33 34 37 37 38 38 38 38 35 24
22 24 44 55 43 24 25 25 25 25 24 24 24 24 24 24
24 24 25 25 29 14 80 108 112 114 115 113 112 111 110 112
117 120 117 118 118 118 116 112 111 110 110 107 102 92 71 50
48 60 70 77 81 75 69 63 58 54 51 49 57 79 96 101
92 95 97 99 52 44 40 39 38 30 20 19 24 24 26 20
20 30 33 20 0 0 0 0 0 0 0 0 0 0 0 0
48 42 40 38 37 37 36 36 35 35 36 37 38 39 39 39
39 38 39 38 34 31 31 32 33 34 34 35 35 35 31 23
21 22 43 56 42 22 24 26 26 27 27 27 26 25 25 25
24 24 23 24 20 17 101 110 112 114 113 112 109 110 111 112
115 121 121 121 119 118 119 117 115 116 112 108 104 97 88 77
72 75 78 77 71 58 53 51 48 44 43 38 37 43 61 72
68 72 74 55 15 44 38 26 18 15 14 14 21 22 26 21
25 30 32 21 0 0 0 0 0 0 0 0 0 0 0 0
51 45 43 40 38 37 36 35 35 35 35 37 40 40 39 39
39 39 39 39 34 30 30 31 32 31 32 32 32 33 28 22
21 23 44 56 45 25 33 61 67 67 66 67 67 65 64 63
62 59 48 36 17 56 108 112 112 112 112 111 110 110 111 113
117 123 122 121 119 123 121 119 118 116 113 113 115 115 113 108
97 87 73 56 50 47 44 44 37 31 27 22 20 20 21 26
34 41 42 11 7 42 39 22 14 13 13 12 19 22 26 24
26 30 32 22 0 0 0 0 0 0 0 0 0 0 0 0
52 46 44 41 38 38 36 35 35 35 35 37 41 40 40 39
39 40 39 39 34 30 31 31 32 31 32 32 33 33 26 21
21 22 41 56 44 24 36 83 93 94 96 94 92 93 94 92
84 40 17 28 21 81 110 112 111 111 111 111 111 110 112 113
117 123 124 121 123 124 120 119 116 116 118 121 124 125 125 124
117 99 69 50 43 35 33 28 22 18 15 14 12 11 10 9
10 9 8 6 3 36 39 25 13 12 12 12 17 21 26 25
27 30 32 24 0 0 0 0 0 0 0 0 0 0 0 0
53 47 44 41 39 39 36 35 35 35 36 36 40 41 39 40
39 39 40 39 34 31 32 31 32 32 32 31 32 31 24 22
21 22 41 55 45 23 32 78 88 89 91 90 90 91 88 75
33 16 17 30 22 75 112 113 113 112 112 110 112 111 113 112
114 121 121 120 123 123 121 119 117 117 122 126 129 133 132 130
121 109 85 44 24 20 20 21 21 25 18 9 8 7 7 6
6 5 5 5 1 31 40 28 13 12 12 12 16 21 25 25
27 28 32 24 0 0 0 0 0 0 0 0 0 0 0 0
53 48 44 40 37 37 36 35 35 35 35 36 40 41 40 40
40 40 39 39 34 31 31 30 30 31 32 32 33 30 23 21
21 22 40 54 46 22 29 71 84 85 86 84 80 72 36 28
20 10 23 28 21 39 105 114 114 112 111 111 110 111 112 113
114 120 121 122 123 123 122 117 118 119 122 125 126 134 133 130
124 115 91 47 22 17 22 30 22 25 27 21 14 11 10 9
10 8 8 6 1 23 40 31 13 12 11 11 14 19 24 25
26 28 32 26 0 0 0 0 0 0 0 0 0 0 0 0
53 47 43 39 38 37 36 36 35 35 35 36 40 40 39 38
39 40 39 38 34 30 30 30 30 31 31 31 32 29 21 20
21 22 38 54 45 22 29 70 84 85 86 83 69 40 28 23
19 9 23 23 21 19 61 112 114 114 113 110 109 110 112 112
113 118 119 119 122 124 123 119 118 118 121 124 125 129 131 128
121 113 93 40 14 8 20 32 23 22 21 29 22 29 33 37
36 35 33 20 1 15 40 32 14 12 12 11 13 20 24 24
26 28 32 26 0 0 0 0 0 0 0 0 0 0 0 0
54 47 43 39 38 36 36 35 34 34 35 35 38 39 39 39
39 39 39 38 34 30 29 29 29 30 30 31 30 26 19 20
21 21 37 54 47 23 26 68 83 82 67 41 25 26 27 26
21 11 19 20 20 18 22 70 112 111 110 110 109 110 112 114
115 119 122 120 122 123 123 120 118 118 120 123 123 125 129 125
120 112 77 36 26 15 21 32 24 20 19 25 25 24 26 35
40 41 41 29 2 8 39 34 16 12 12 12 15 21 24 24
25 26 31 27 1 0 0 0 0 0 0 0 0 0 0 0
53 46 42 39 37 36 37 35 35 34 34 35 38 39 38 39
38 38 39 37 33 29 29 29 30 30 31 31 31 25 19 22
21 21 36 53 47 23 26 65 60 32 24 25 24 24 23 27
25 15 16 18 18 18 18 23 70 109 110 110 110 110 112 112
113 118 122 121 123 121 122 121 119 119 119 119 121 124 125 122
117 105 92 86 80 32 24 31 23 20 19 25 26 22 21 26
25 27 27 29 14 6 37 35 19 12 12 12 13 21 24 24
25 26 31 28 1 0 0 0 0 0 0 0 0 0 0 0
51 45 42 39 38 37 36 36 36 34 34 35 37 38 38 39
38 39 39 37 33 29 29 28 29 29 30 29 29 24 18 21
20 20 34 53 47 25 29 32 24 18 19 24 24 20 19 21
25 19 12 16 17 18 17 17 22 63 108 110 111 111 112 112
113 119 122 121 124 124 123 121 119 119 117 116 120 122 121 116
112 113 115 113 108 46 27 31 23 20 20 23 26 22 20 19
23 21 22 24 22 25 29 31 24 16 12 11 12 19 24 23
24 25 31 28 2 0 0 0 0 0 0 0 0 0 0 0
50 44 41 39 37 37 36 35 35 34 34 36 37 39 39 39
39 39 38 37 32 28 28 27 28 29 29 29 29 25 20 20
20 21 33 40 33 31 22 17 19 18 20 21 22 21 19 18
21 20 15 13 16 17 17 16 17 21 63 107 110 112 113 112
113 116 117 120 123 124 124 121 118 118 117 116 117 116 113 112
113 121 120 120 111 48 28 29 22 20 23 23 22 24 23 20
22 22 22 23 19 19 22 24 26 27 25 19 15 17 22 23
24 25 30 28 3 0 0 0 0 0 0 0 0 0 0 0
48 43 39 40 40 37 36 35 34 34 34 34 36 39 38 39
39 39 38 38 32 27 28 27 28 28 28 28 28 24 20 20
20 26 31 31 27 28 28 17 17 17 18 20 21 19 18 15
18 20 17 12 14 17 16 17 16 17 22 57 104 111 112 111
112 116 118 119 124 126 128 123 122 119 116 118 114 108 104 108
119 120 119 118 96 27 27 25 21 22 26 23 20 24 25 23
24 22 22 21 20 22 26 25 25 26 26 25 25 25 22 24
24 25 29 28 3 0 0 0 0 0 0 0 0 0 0 0
46 41 31 39 45 37 35 34 33 33 34 34 36 38 38 39
39 39 39 39 32 28 28 28 28 28 28 28 28 25 20 25
30 27 23 25 23 25 26 28 21 16 18 19 18 19 19 18
16 17 19 17 13 17 17 16 16 17 18 19 46 99 111 112
112 115 120 121 124 125 127 124 123 122 119 115 110 102 105 113
116 118 118 90 36 24 25 23 21 26 26 22 19 24 28 28
26 25 24 21 24 26 25 25 25 24 24 24 25 27 30 26
23 24 29 29 5 0 0 0 0 0 0 0 0 0 0 0
44 39 29 38 44 37 36 34 35 34 35 35 36 38 39 39
39 39 39 38 33 28 28 28 28 27 28 28 29 29 32 37
37 35 33 26 23 24 25 26 27 27 21 19 19 19 18 17
16 16 17 18 15 14 17 16 17 18 17 17 18 29 69 104
112 115 117 121 123 124 124 121 121 121 119 115 107 103 107 112
100 75 39 20 20 23 23 20 23 27 24 22 22 22 28 27
27 26 25 23 24 24 24 26 26 25 27 28 30 29 32 37
33 26 29 29 5 0 0 0 0 0 0 0 0 0 0 0
42 34 28 43 48 37 34 35 35 34 34 34 36 37 38 39
39 38 38 38 34 28 27 27 27 27 27 29 34 35 34 33
32 31 34 35 30 24 22 24 24 27 28 25 19 19 19 17
16 17 16 17 17 15 16 17 16 15 16 17 15 15 18 34
72 104 115 119 122 124 122 121 119 117 114 109 103 90 70 44
23 19 17 19 21 20 21 22 28 26 22 23 20 22 26 27
28 24 24 21 23 25 27 29 29 27 28 29 28 29 29 30
39 41 33 28 6 0 0 0 0 0 0 0 0 0 0 0
40 28 20 32 44 36 34 35 34 34 34 34 36 37 38 38
38 38 38 37 33 27 27 27 27 27 32 35 33 32 29 29
31 31 31 34 35 30 27 24 24 26 27 29 28 23 19 20
18 17 16 15 16 17 15 16 17 15 15 15 15 15 15 17
17 25 46 68 88 97 96 94 92 82 68 53 38 26 21 19
19 15 18 18 19 19 20 21 26 23 21 19 19 22 27 26
25 23 23 23 24 27 28 28 27 27 27 28 28 28 29 30
29 37 40 35 21 19 19 20 21 21 21 21 21 21 21 21
38 27 18 26 42 36 35 34 34 33 34 34 35 37 38 38
38 38 38 37 34 28 27 27 30 34 33 29 27 26 27 26
28 30 30 33 33 32 29 27 27 24 26 28 28 29 24 20
18 17 17 17 17 18 18 16 16 16 14 13 15 15 14 15
16 14 16 17 19 18 18 18 19 18 17 18 19 20 18 15
17 13 17 18 20 19 20 25 23 21 19 16 18 21 26 25
23 26 27 27 27 29 29 28 28 29 27 28 27 27 26 28
27 32 31 33 35 29 28 28 27 26 26 25 25 24 24 23
37 23 19 28 34 35 34 34 33 34 33 34 35 37 38 38
38 37 38 37 32 27 27 32 33 31 30 25 23 23 25 25
26 29 29 29 31 31 29 30 31 27 25 28 29 28 28 26
24 21 19 18 17 17 17 18 17 15 17 16 14 14 13 13
14 15 17 19 20 19 18 16 14 15 16 17 17 18 17 15
15 14 18 19 20 20 24 23 22 18 19 16 16 21 29 27
28 32 33 33 28 29 28 28 27 26 26 26 26 26 25 25
26 28 28 30 33 32 28 27 26 26 26 25 24 23 23 22
36 21 9 12 24 33 34 34 33 33 33 34 35 37 38 37
37 37 37 36 32 28 35 33 26 27 26 24 22 23 25 25
28 28 28 28 29 29 30 32 32 29 26 27 28 28 28 27
27 24 24 22 19 17 16 16 16 17 16 17 20 19 18 16
15 14 17 19 19 19 16 16 17 16 16 19 17 17 18 19
18 18 19 19 18 24 24 21 20 17 17 19 24 28 32 31
32 33 34 31 27 25 26 27 26 26 27 25 26 25 24 24
23 26 25 26 26 32 28 22 22 21 19 19 17 16 15 14
36 20 3 10 28 33 34 33 33 32 33 33 35 36 38 37
38 37 37 36 33 35 32 27 23 24 22 23 22 23 25 25
27 27 29 27 29 28 28 29 29 30 28 26 26 26 26 27
27 26 26 25 23 20 18 17 17 16 14 14 14 17 21 20
20 18 17 19 19 18 18 18 20 21 20 21 22 20 21 21
21 22 19 19 23 25 21 20 19 17 20 25 30 30 32 30
31 31 34 30 27 26 26 27 28 23 25 24 22 23 23 22
21 26 24 26 24 27 34 21 21 20 19 20 19 19 18 18
35 19 4 9 31 33 33 34 34 33 33 33 35 37 37 37
37 36 37 36 36 32 25 22 21 21 22 20 21 21 25 25
27 28 29 29 29 28 28 28 29 29 29 24 26 26 27 28
26 26 26 26 25 23 21 19 17 14 14 12 12 11 13 16
20 22 22 21 20 19 21 21 23 22 22 23 23 22 21 19
16 19 21 23 25 21 20 18 19 22 27 30 30 29 32 30
30 31 32 28 25 25 24 27 26 24 24 23 23 22 23 23
18 24 24 24 22 25 30 31 22 20 18 16 15 13 13 12
37 21 8 12 31 33 34 34 33 33 33 33 34 36 37 36
36 36 36 38 34 27 23 21 20 19 20 21 22 22 26 25
27 29 30 30 29 28 28 28 26 27 27 27 26 24 26 27
26 26 25 27 26 25 23 20 19 17 15 15 11 11 9 9
10 13 17 19 20 20 20 20 20 20 18 16 15 14 14 17
19 20 22 23 21 19 16 18 23 26 29 28 29 30 30 29
30 29 29 27 24 23 24 26 25 24 23 23 23 23 22 21
17 23 23 19 20 25 27 30 12 1 0 0 0 0 0 0
39 24 16 27 38 33 34 33 33 33 34 34 35 36 37 37
37 37 38 36 30 24 23 21 20 21 20 20 24 25 26 26
28 28 30 31 28 27 28 28 26 28 27 27 26 25 26 25
26 25 23 26 27 25 22 22 21 19 19 18 17 15 13 10
9 10 9 9 10 11 10 11 12 12 13 16 18 17 19 21
22 23 23 21 17 16 17 23 25 25 28 28 29 28 29 28
28 29 28 26 24 23 25 24 25 26 23 22 24 23 23 21
15 23 23 20 18 26 26 27 23 0 0 0 0 0 0 0
37 23 19 35 41 34 34 34 34 34 34 33 34 36 36 36
36 36 33 28 26 22 22 21 21 21 21 22 25 26 25 24
26 28 29 29 27 27 28 27 26 26 26 28 27 25 24 26
24 24 24 24 24 25 23 23 22 21 21 18 19 17 17 18
15 14 14 16 14 13 12 13 14 16 18 20 21 23 24 25
24 23 20 18 17 18 24 26 25 26 27 28 28 30 29 29
29 27 26 25 23 24 25 23 25 26 25 24 24 23 23 18
16 23 25 19 17 24 26 26 26 21 18 19 19 17 15 11
