P2
128 120
153
37 36 37 38 38 38 39 39 40 40 40 41 42 42 42 43
42 43 43 44 44 44 44 44 45 45 45 45 45 45 46 46
46 46 46 46 47 46 47 47 47 47 47 48 48 48 48 47
47 47 46 46 46 46 46 46 46 46 45 45 45 45 45 44
44 43 43 42 42 41 41 41 40 40 39 39 39 38 38 37
37 36 36 35 35 35 34 34 34 34 34 33 33 33 33 33
33 33 33 33 33 32 33 33 33 33 34 34 34 35 35 36
36 36 37 37 38 38 39 39 40 41 41 42 42 43 43 43
36 37 38 38 38 39 39 39 40 40 41 41 41 41 42 42
43 43 43 44 44 44 45 45 45 45 45 45 45 46 46 46
46 46 46 47 47 47 47 47 47 47 47 47 47 47 47 46
47 47 47 46 47 47 46 46 46 46 45 45 44 45 44 44
44 44 43 43 42 42 42 41 41 40 40 40 39 39 38 38
37 36 37 36 35 35 36 35 35 35 34 34 34 34 34 33
34 34 34 33 34 34 34 34 34 35 35 34 35 36 35 36
36 36 37 38 38 39 40 40 40 41 41 42 43 43 43 43
37 37 38 38 38 39 39 40 40 41 41 42 42 42 43 44
43 44 44 43 44 44 44 44 45 45 46 46 46 46 46 46
46 46 47 46 47 47 47 47 47 47 47 47 47 47 47 47
47 47 46 46 46 46 45 46 45 45 45 45 45 45 45 44
45 44 43 43 43 42 42 40 41 40 40 40 40 39 39 39
38 38 37 36 36 36 36 35 35 34 35 34 35 34 34 34
35 35 34 34 34 34 35 34 34 34 34 35 35 35 36 37
37 37 38 39 39 40 40 40 40 41 42 42 42 43 44 44
37 37 38 38 39 40 40 40 41 41 41 41 42 43 43 43
44 44 44 44 45 45 45 45 45 45 45 45 46 46 46 45
46 46 46 47 47 47 47 48 48 47 48 47 47 47 47 47
47 47 46 47 47 46 46 46 47 46 46 45 45 45 45 44
44 43 44 44 43 43 43 42 41 41 41 41 40 40 40 39
38 38 38 37 37 37 36 36 36 36 35 35 35 35 35 35
35 34 34 34 34 34 34 35 35 35 36 36 36 36 36 37
37 38 38 39 40 39 41 41 41 42 42 43 43 43 44 44
38 37 38 38 38 39 40 41 41 41 41 42 42 43 44 44
44 44 44 44 45 45 45 45 45 45 45 46 45 46 46 46
46 46 47 46 47 47 47 47 47 47 47 47 47 47 47 47
47 47 47 46 47 46 46 47 46 46 46 46 45 45 45 45
44 44 44 44 44 43 42 42 42 41 41 40 40 40 39 39
39 39 38 38 37 37 37 36 36 36 36 35 36 36 35 35
35 35 35 35 35 35 35 35 34 35 35 35 36 36 36 37
38 38 38 38 39 40 41 41 41 41 42 42 43 44 43 44
37 37 39 38 38 39 40 41 41 41 41 42 42 42 43 43
43 43 44 45 45 45 46 45 45 46 46 46 46 46 46 46
46 46 46 47 47 47 47 47 47 47 47 47 47 47 47 47
47 46 46 46 46 46 46 46 46 46 46 46 46 46 45 45
45 44 44 44 43 43 43 42 42 42 42 41 41 41 40 39
40 38 38 37 37 37 37 37 36 36 36 36 36 36 36 36
35 35 35 35 35 35 35 35 35 35 36 36 36 36 36 37
38 38 39 38 39 39 40 40 41 42 42 43 43 44 44 45
37 38 38 39 39 40 40 41 41 41 41 42 42 42 43 43
44 44 44 45 45 45 45 45 46 46 46 46 46 46 47 46
46 46 47 47 47 47 46 47 47 47 47 46 47 46 47 47
47 47 47 47 47 47 47 46 46 46 46 45 46 46 45 45
45 45 45 44 44 44 43 43 43 41 42 41 41 40 40 40
39 39 39 38 37 37 38 37 37 37 36 36 36 36 35 35
35 35 35 35 35 35 35 35 35 36 36 36 37 36 37 37
37 38 38 39 39 40 40 40 41 42 42 43 43 43 44 44
37 37 38 38 39 39 39 40 41 41 41 42 42 42 43 43
43 43 43 44 44 45 45 45 45 45 46 46 46 46 46 46
46 46 46 46 46 46 46 46 46 46 47 47 47 46 46 47
46 46 46 46 46 46 46 46 46 45 45 45 45 45 45 44
44 44 44 44 43 43 43 42 42 42 41 41 41 40 40 40
40 39 38 37 37 37 37 37 37 36 36 36 36 36 36 35
35 35 35 35 35 35 35 34 35 35 35 35 36 36 36 36
38 38 38 39 39 39 40 39 40 40 41 42 42 42 44 44
37 37 38 38 38 38 39 39 40 40 40 40 41 41 41 42
42 42 43 43 43 44 44 44 45 44 44 45 45 45 45 46
46 45 45 45 45 46 45 46 46 45 46 46 46 46 46 46
45 46 46 46 46 45 45 46 46 45 45 45 45 45 44 44
44 44 43 43 43 42 42 42 42 41 42 41 40 40 39 39
39 38 38 37 37 37 37 37 37 36 35 36 36 35 35 34
34 34 34 34 34 34 35 35 35 35 35 35 35 36 37 36
36 37 37 37 38 39 39 39 40 41 41 41 42 42 43 43
37 37 37 37 38 38 38 39 39 39 40 40 41 41 42 42
42 42 43 43 43 43 44 43 44 44 45 45 45 45 46 45
46 46 45 46 45 45 45 45 45 45 45 45 45 46 45 45
46 45 46 46 45 45 45 45 44 45 45 45 44 44 44 45
44 44 44 44 43 42 42 41 41 40 40 40 40 40 40 38
39 38 38 38 38 37 36 36 36 36 36 35 36 35 35 35
35 34 35 35 34 34 35 35 35 34 35 35 35 36 36 36
36 37 37 37 38 38 39 39 39 40 41 41 41 41 42 42
36 36 37 37 38 38 38 38 39 39 39 39 40 40 40 40
40 40 41 42 42 42 43 43 44 44 44 44 45 44 44 44
45 44 44 45 45 45 44 45 45 45 45 45 45 45 45 44
45 45 44 44 44 44 44 44 44 44 44 44 44 44 44 44
44 43 42 42 42 42 41 41 41 40 40 40 40 39 39 38
38 38 37 36 37 36 36 36 36 35 35 35 35 35 35 34
34 33 34 34 34 33 34 34 34 35 34 34 35 35 36 35
36 36 36 36 37 37 38 38 38 39 39 40 40 41 41 42
36 37 37 37 38 38 38 38 38 39 39 40 40 40 41 41
41 42 42 42 42 42 43 43 43 44 44 44 44 44 44 44
44 45 45 45 45 45 45 45 45 45 45 45 45 45 45 44
45 45 45 45 46 45 45 45 45 44 45 44 44 44 44 43
44 43 43 43 43 42 42 42 41 41 40 40 40 39 39 39
39 39 39 38 37 37 38 37 36 36 35 35 35 35 35 35
34 34 34 34 35 35 35 34 35 34 34 35 35 35 36 36
36 36 37 37 37 38 38 38 39 39 40 40 40 41 41 41
37 37 37 37 37 38 38 38 39 40 39 40 40 41 41 41
41 42 42 42 42 42 43 43 43 44 44 44 45 44 44 44
45 44 45 45 45 45 46 45 45 45 45 46 46 45 46 45
45 45 45 44 44 44 45 45 45 44 44 44 44 45 44 44
44 43 43 43 42 42 42 41 41 41 41 41 40 40 40 39
39 39 39 38 38 37 37 36 36 36 36 36 36 36 35 35
35 34 34 34 34 34 35 35 35 35 35 35 36 35 36 36
37 37 37 37 37 38 38 39 38 39 39 40 40 41 42 42
37 37 37 38 38 38 38 38 39 39 39 40 40 40 41 42
42 41 42 42 43 43 43 44 44 44 44 44 44 44 44 44
45 45 45 45 46 46 46 45 45 45 46 45 45 45 45 45
44 44 45 45 45 45 45 45 45 44 45 44 44 44 44 44
43 44 43 43 43 42 42 41 42 41 41 41 40 40 40 39
39 39 38 38 38 38 37 37 37 37 37 37 36 36 36 35
35 35 35 34 35 35 35 35 35 35 36 35 36 36 36 36
36 37 37 37 37 38 38 38 39 39 40 40 40 41 41 41
38 37 38 37 38 38 38 39 39 39 40 40 41 41 41 41
42 41 42 42 42 42 42 43 43 43 44 44 44 44 45 45
45 45 44 45 45 45 44 45 45 45 46 46 45 45 45 45
45 45 45 45 45 45 45 45 45 45 45 44 44 44 44 44
44 44 43 43 43 43 42 42 41 41 41 41 40 40 40 40
39 39 39 38 38 37 37 37 36 36 36 37 36 35 36 36
36 36 35 35 35 35 35 35 35 35 35 35 36 36 36 36
37 36 37 38 38 38 38 38 39 39 39 40 40 41 40 41
37 37 37 38 39 39 39 39 40 40 40 40 41 40 41 41
42 42 42 43 43 43 43 43 43 43 44 43 44 44 44 44
45 44 44 45 45 45 46 45 46 45 46 46 45 45 45 45
45 45 46 45 46 45 45 45 45 45 45 45 45 44 44 44
44 44 43 43 43 43 43 43 42 42 42 41 41 41 40 39
39 39 39 38 38 37 37 37 37 37 37 37 37 36 36 36
35 36 35 36 36 35 35 35 35 35 35 36 36 36 36 36
37 37 37 38 38 38 39 39 39 39 40 40 40 41 41 41
37 37 38 38 39 38 39 39 39 40 40 40 40 41 42 42
42 42 42 43 43 43 43 43 43 44 44 44 44 44 45 45
45 45 45 45 45 45 45 45 45 45 46 45 45 46 45 46
46 46 45 45 46 45 45 45 45 45 45 45 44 44 45 44
44 44 44 44 43 43 42 42 42 42 42 41 41 41 41 40
40 40 39 39 39 38 37 38 37 37 37 37 37 37 36 36
35 36 36 36 36 36 36 36 36 36 36 36 36 36 36 36
37 37 37 38 38 39 39 39 39 39 39 40 40 40 40 40
37 37 38 38 38 39 39 39 40 40 41 41 41 41 41 41
42 42 43 43 43 43 44 44 44 44 44 44 45 45 44 45
45 45 44 44 44 45 45 45 46 46 46 46 46 46 46 46
46 45 46 46 46 45 46 45 45 45 45 44 45 45 45 44
44 44 44 43 43 42 43 42 42 42 42 41 41 41 41 40
40 40 39 39 38 38 38 38 38 38 38 37 37 37 37 37
36 36 36 36 36 35 36 35 36 36 36 36 36 36 37 38
37 37 38 38 38 38 38 38 39 39 39 39 40 40 41 41
37 38 38 38 38 38 39 39 40 40 40 40 40 41 41 41
42 42 43 43 43 43 44 44 43 43 44 44 44 44 44 44
44 45 45 45 46 45 45 45 45 46 45 45 45 46 46 46
46 46 46 47 46 46 46 45 45 45 45 45 45 44 44 44
44 44 44 43 43 43 43 42 43 42 42 42 41 41 41 40
40 40 39 39 39 39 38 38 38 38 38 37 37 37 37 37
37 36 36 36 36 36 37 36 36 36 36 36 36 36 37 36
36 37 38 38 38 38 38 39 40 40 39 40 40 40 41 40
38 38 38 38 38 39 39 39 40 40 41 40 42 41 41 42
42 42 42 42 43 43 43 43 43 44 44 44 45 44 44 45
45 44 45 45 45 45 45 45 45 45 46 45 46 46 45 46
47 46 45 46 45 45 45 45 45 45 45 45 45 44 44 44
44 44 44 43 43 43 43 42 42 41 42 41 41 41 40 40
40 40 39 39 39 38 38 38 38 38 37 37 37 37 37 36
37 37 37 36 37 36 36 36 36 36 36 36 37 37 37 37
37 37 38 38 38 38 38 38 38 39 39 38 39 40 40 40
37 37 37 38 38 38 39 39 40 40 40 41 40 41 41 41
42 41 42 43 42 43 43 43 43 44 44 43 44 44 44 44
44 44 44 45 45 45 45 45 45 45 45 45 45 45 46 45
45 45 46 45 45 45 45 45 45 45 44 44 45 44 44 44
43 43 43 43 43 43 42 42 42 42 42 42 41 41 41 40
40 40 40 39 39 38 38 38 38 38 38 37 37 37 37 37
36 36 36 36 36 36 37 36 36 36 36 36 36 36 36 36
36 36 37 37 37 37 38 38 38 38 39 39 39 39 40 40
38 38 38 38 39 39 40 39 40 39 40 40 41 41 42 42
42 42 43 42 43 43 43 43 43 43 43 43 44 44 44 45
44 44 44 44 44 44 45 44 44 45 45 45 45 45 45 45
45 46 45 45 46 45 45 45 45 44 44 44 45 44 44 45
44 44 44 44 43 43 43 43 42 41 41 41 41 41 41 40
40 40 40 39 39 39 39 39 38 38 38 37 37 37 37 37
37 37 37 37 37 36 37 36 36 36 36 36 36 37 37 36
36 37 37 38 38 38 39 38 38 38 39 39 39 39 40 39
37 37 38 38 38 39 39 39 40 40 40 41 41 41 41 41
42 42 42 42 43 43 43 43 43 44 43 43 44 44 44 44
44 44 44 44 44 45 45 45 45 45 45 45 45 45 45 45
45 45 45 45 45 45 45 45 45 44 44 44 44 44 44 44
43 43 43 43 43 43 43 42 42 42 42 42 41 41 41 41
40 40 40 39 39 38 39 38 38 38 38 38 38 38 38 37
37 37 37 37 36 36 36 36 36 36 37 36 36 36 37 36
37 37 36 37 37 37 37 37 38 38 39 39 39 39 40 40
38 38 39 39 39 39 39 39 40 40 41 41 41 41 41 42
42 42 42 43 43 43 43 43 44 43 44 44 44 44 44 44
44 45 45 45 45 45 45 45 45 45 45 45 45 45 45 45
45 45 45 45 45 45 44 45 45 45 45 44 44 44 44 44
44 43 43 43 43 43 43 42 42 43 42 41 41 41 41 40
41 40 40 40 40 40 40 39 39 38 38 37 37 37 37 37
37 37 37 37 37 37 37 37 37 36 37 36 37 36 36 36
37 37 37 37 38 38 38 38 39 38 38 38 39 39 39 39
38 38 38 39 39 39 40 40 41 40 40 41 41 41 41 41
42 42 42 42 43 43 44 43 43 43 44 43 44 44 44 44
44 44 44 44 44 44 43 45 45 45 45 45 46 45 45 46
45 45 45 45 45 44 44 45 45 45 44 44 44 44 45 45
44 43 43 42 42 43 43 42 42 42 42 42 41 41 42 41
41 41 40 40 39 39 39 38 39 38 38 37 38 38 38 37
37 37 37 36 36 36 37 37 37 36 36 36 37 36 37 37
36 37 37 37 38 37 37 38 38 38 38 38 39 39 39 39
39 39 39 39 40 39 40 40 39 40 41 40 41 41 42 42
42 42 42 43 44 43 43 43 43 44 44 43 44 44 43 44
44 44 44 44 45 45 44 44 45 44 44 44 45 45 44 45
45 45 45 45 45 45 45 44 44 45 45 44 45 44 44 44
44 42 43 39 39 43 42 42 42 41 41 41 41 41 41 41
40 40 39 39 40 39 39 39 39 39 38 38 38 38 37 37
37 37 37 37 37 37 37 37 37 37 37 37 37 36 37 37
36 36 36 37 37 37 38 37 38 38 38 38 39 39 39 39
38 39 39 40 39 39 40 40 40 41 40 41 42 42 42 42
42 42 42 42 43 42 43 43 43 43 43 43 44 44 44 44
44 44 44 44 45 44 44 44 45 45 45 44 45 45 45 45
45 45 45 44 44 44 44 44 45 45 44 44 44 44 45 44
43 39 40 38 35 42 43 42 42 42 41 42 42 41 41 40
41 40 41 40 39 39 39 38 39 38 38 38 38 38 38 38
38 37 37 38 37 37 37 37 37 36 36 37 36 36 37 36
37 36 37 37 37 37 37 37 38 37 38 38 38 38 39 39
39 39 40 40 40 40 40 40 41 41 41 41 41 41 41 42
42 42 42 42 43 43 43 43 44 44 44 44 44 44 44 44
43 44 44 44 45 45 44 44 45 45 45 45 45 45 45 44
45 44 45 45 45 45 45 44 45 45 45 44 44 44 44 42
37 33 34 36 36 40 40 41 42 40 41 42 42 41 41 41
41 40 40 40 39 39 40 39 38 38 38 38 38 37 38 37
37 37 38 37 37 36 37 36 37 37 37 37 37 37 36 37
36 36 37 36 37 37 37 37 37 37 38 38 38 38 38 39
38 39 40 40 40 40 41 41 41 40 41 41 42 42 42 42
42 42 43 43 43 43 43 43 43 43 44 44 44 44 44 44
44 44 44 45 45 44 45 45 45 44 44 45 45 45 45 45
45 45 45 45 46 45 45 44 44 44 44 44 44 44 41 33
30 25 24 30 35 32 39 39 40 40 40 40 42 41 41 41
41 40 41 40 40 39 39 39 40 39 38 38 38 38 38 37
37 37 37 37 37 37 37 37 37 36 37 36 37 36 36 37
36 37 37 37 37 37 37 38 38 38 38 38 38 38 38 38
25 26 28 30 32 34 35 37 39 40 42 42 42 43 43 43
43 43 44 42 43 43 43 44 44 43 44 44 44 45 45 44
44 44 44 44 44 45 45 45 45 44 45 44 44 45 44 45
45 44 44 45 45 45 46 45 45 45 44 44 44 41 31 26
23 19 15 20 25 29 26 28 35 34 36 39 41 41 42 41
41 40 40 40 40 39 39 39 39 39 39 38 38 38 38 38
38 38 38 38 37 37 37 37 37 36 36 37 36 36 36 37
37 37 37 37 38 37 37 37 37 37 38 38 38 38 39 38
22 22 23 22 23 24 24 24 25 26 27 27 29 32 35 37
38 40 41 42 43 43 44 44 44 44 44 44 44 44 44 44
44 44 45 45 45 45 45 45 45 45 45 45 45 44 45 45
44 44 45 45 45 45 45 44 44 44 43 41 37 29 24 20
13 10 7 8 15 21 19 18 27 31 30 36 38 37 41 41
41 40 40 40 40 40 40 40 39 39 39 39 38 38 38 38
38 38 37 37 37 38 37 37 37 37 37 36 36 37 37 39
50 46 44 41 39 38 38 37 38 38 38 38 37 39 39 40
20 19 20 20 21 21 21 21 21 22 22 20 21 23 23 23
23 24 24 25 27 28 30 33 35 38 39 41 43 44 45 45
45 45 45 45 45 45 45 45 45 45 45 45 45 45 45 45
45 44 45 45 45 45 45 45 44 41 32 26 25 23 21 23
14 8 6 6 8 12 13 14 25 28 26 35 30 27 31 38
40 41 40 39 40 39 39 39 39 39 39 39 38 38 38 38
38 39 38 37 38 37 37 37 36 37 36 36 37 37 37 38
56 57 56 56 52 50 51 50 47 43 40 38 38 37 40 47
15 14 16 16 17 18 19 19 19 19 19 19 18 20 20 19
20 19 20 20 19 19 19 20 19 19 20 22 23 25 27 29
32 35 37 39 42 43 44 44 45 46 46 45 45 44 44 44
44 45 44 44 44 45 45 44 37 27 21 29 24 17 14 14
14 15 17 18 15 12 13 25 22 24 24 28 19 15 26 33
37 40 40 40 40 40 40 40 40 39 39 39 38 38 38 38
38 38 38 37 36 37 37 37 37 37 37 37 37 37 36 34
50 46 20 24 28 29 35 48 54 58 58 41 37 38 37 41
22 19 17 16 17 16 16 16 15 15 16 16 17 18 19 19
20 19 20 19 18 19 18 19 18 18 18 18 18 17 18 17
17 18 18 19 21 22 24 26 29 32 36 37 42 45 45 45
45 45 45 45 45 44 38 27 24 17 21 18 14 11 8 5
4 7 5 14 18 15 20 24 21 17 19 14 11 24 30 35
35 41 40 40 40 39 39 40 39 39 38 39 39 38 38 38
38 38 38 37 38 37 37 38 37 37 36 37 37 37 36 34
46 44 3 0 0 3 10 7 11 30 58 44 37 38 32 33
31 27 30 31 28 29 30 28 27 26 22 22 21 19 18 16
15 14 14 15 14 15 17 16 15 15 16 17 18 19 18 16
16 17 16 16 16 16 16 13 11 12 13 16 30 45 45 45
44 44 44 44 44 41 33 30 26 24 17 15 11 2 1 2
6 10 1 1 3 7 12 13 10 21 14 12 19 27 33 33
28 38 39 40 40 40 39 40 39 39 39 39 39 39 38 39
38 38 38 37 38 37 37 38 37 37 37 37 37 37 37 33
46 48 6 0 0 1 3 2 0 11 58 48 37 38 31 26
33 25 30 33 28 34 34 31 33 28 26 30 34 33 32 32
30 29 27 25 24 22 21 18 16 16 15 15 16 16 17 15
14 14 15 15 16 16 16 13 11 10 9 12 28 44 45 44
45 45 44 44 40 35 26 21 18 18 16 15 3 1 0 1
3 12 3 1 0 2 2 7 3 9 9 12 23 30 32 29
27 37 40 39 41 40 39 39 39 39 39 38 38 38 38 38
38 38 38 38 38 38 38 37 37 37 37 37 37 37 37 33
45 52 11 0 0 0 0 0 0 5 54 52 37 37 31 22
32 25 31 31 27 32 33 30 33 26 30 29 35 35 35 35
36 35 32 31 34 33 31 31 31 32 30 28 28 25 23 21
19 18 16 15 15 14 14 13 13 13 14 15 29 44 45 45
44 44 43 40 35 30 30 27 21 15 9 5 2 6 16 33
50 57 65 58 39 16 2 0 0 5 11 13 24 31 27 30
30 30 40 40 39 40 40 39 39 39 39 39 39 38 39 39
38 38 38 38 38 38 38 37 38 38 37 37 37 37 37 33
44 56 17 0 0 0 1 0 0 1 47 55 37 37 31 21
32 31 31 31 29 31 33 30 32 28 34 29 35 35 35 36
36 36 31 32 36 33 30 35 36 34 31 35 31 30 31 33
34 33 32 30 30 28 26 24 21 17 16 16 30 45 44 44
44 43 43 37 33 26 20 15 16 13 5 4 28 66 82 91
92 85 96 97 94 86 70 35 6 2 7 19 20 25 24 31
26 30 35 38 38 39 40 39 39 39 39 38 39 38 39 38
39 38 37 37 37 38 38 37 37 37 37 37 37 36 37 33
39 55 24 0 0 0 0 0 0 0 38 56 37 37 30 20
33 33 34 34 34 34 34 34 35 34 35 32 35 35 36 35
36 35 35 33 32 35 32 37 37 32 31 36 34 34 37 36
36 35 34 32 37 38 37 36 35 22 15 18 30 44 44 45
44 43 39 29 21 13 7 9 11 7 16 57 86 91 92 93
96 94 99 99 96 96 96 91 69 27 2 21 25 25 29 29
31 30 33 38 38 40 40 38 38 39 39 38 38 39 40 40
40 43 44 43 41 40 39 39 38 37 37 37 36 37 37 32
35 56 32 0 0 0 1 0 0 0 31 58 39 36 30 21
32 33 33 33 33 34 34 34 35 35 35 35 35 35 35 35
36 34 32 31 33 36 35 37 36 32 33 35 34 36 38 35
34 34 35 33 36 38 38 37 37 24 15 17 30 44 44 44
44 44 34 23 14 9 15 19 18 20 45 62 73 87 100 103
102 104 109 110 104 87 71 60 52 44 20 19 26 25 26 31
30 27 35 37 37 39 39 38 39 39 39 39 38 38 38 44
43 46 48 48 49 46 43 41 39 37 37 37 37 37 37 32
31 57 41 1 13 11 2 0 0 0 25 58 41 35 29 20
32 32 33 32 33 33 33 33 33 33 34 35 35 35 35 36
37 36 36 36 37 37 37 37 36 37 36 36 37 38 38 36
32 36 37 34 32 37 38 37 36 24 17 16 30 44 44 44
44 40 22 23 22 18 11 6 3 12 28 50 75 44 43 89
113 115 110 76 46 16 13 34 50 51 48 44 28 14 18 20
19 27 35 37 39 40 40 40 39 39 39 39 38 38 39 46
44 48 49 49 50 49 47 42 41 37 37 37 37 37 36 31
28 51 45 7 28 27 14 5 10 8 34 55 41 34 29 20
33 33 33 33 33 33 34 34 35 34 35 35 36 35 36 36
36 34 32 34 34 35 35 36 37 37 37 38 38 38 38 38
37 38 37 35 34 37 38 38 36 24 18 18 31 45 45 44
43 19 15 10 0 0 2 30 93 128 95 36 38 14 3 25
25 23 30 22 66 111 103 79 82 80 79 81 91 90 44 15
13 13 31 33 36 38 38 38 38 38 39 39 38 38 41 49
46 45 44 44 46 45 43 40 37 23 25 28 30 32 34 30
26 43 44 27 32 31 27 23 24 22 33 50 41 33 29 20
33 33 33 33 34 34 35 34 35 34 34 35 35 35 36 35
37 36 36 36 36 36 36 35 35 35 35 35 36 36 37 38
38 39 39 39 38 39 38 38 37 23 16 17 30 44 44 43
42 8 15 7 0 12 91 116 54 6 0 0 0 0 5 62
103 66 22 59 98 34 1 0 0 0 1 3 2 0 3 1
9 10 25 28 33 36 37 38 39 39 39 39 39 39 41 48
45 45 45 45 46 46 45 45 37 16 19 19 20 20 21 22
20 29 32 32 34 35 36 36 38 36 33 39 36 32 29 20
33 33 34 34 34 34 35 34 35 35 35 35 35 36 37 36
36 37 37 37 37 37 37 38 37 37 37 38 38 38 37 37
37 37 37 37 37 38 38 38 37 25 17 16 32 45 45 44
39 7 1 0 18 100 51 1 0 0 0 0 0 0 45 115
122 112 62 16 0 0 0 0 0 0 0 0 1 1 0 0
8 2 17 21 31 33 35 38 37 39 39 39 39 39 42 50
48 48 47 48 48 46 45 48 37 17 20 20 20 20 20 21
21 21 21 21 19 18 18 17 19 20 22 24 26 32 29 21
34 33 34 34 35 34 35 35 36 35 35 35 35 36 36 36
36 36 37 37 37 37 38 37 38 38 38 38 38 39 38 39
38 38 38 38 38 38 39 39 36 25 20 20 34 45 44 42
33 6 0 0 14 12 0 0 0 0 0 0 0 8 102 123
126 124 106 29 2 0 0 0 0 0 1 12 13 9 2 0
7 0 11 17 24 30 33 36 39 40 40 39 40 39 43 51
48 47 47 48 49 48 49 49 36 21 19 19 15 17 18 19
20 20 21 22 22 22 22 26 21 16 16 16 20 22 23 18
34 34 34 35 35 34 35 35 35 35 35 35 35 36 36 36
37 37 37 37 37 37 37 38 38 38 38 38 39 39 38 39
39 39 39 39 39 39 39 39 37 24 20 22 34 45 44 35
21 6 0 0 0 0 0 0 0 0 0 0 0 50 117 126
128 132 117 70 7 0 0 0 0 0 9 93 93 93 96 68
11 0 8 12 17 21 26 33 38 39 39 40 39 39 42 51
52 49 45 47 47 47 48 47 36 23 20 19 13 25 24 20
20 24 31 31 31 32 36 42 34 20 21 20 19 19 20 14
34 34 34 34 34 34 35 35 35 35 35 36 36 36 36 36
36 36 37 37 37 38 38 39 39 39 39 39 39 39 39 39
39 39 39 39 39 40 39 39 37 23 19 19 33 45 42 25
14 2 0 0 0 0 0 9 25 0 0 0 6 88 104 117
125 116 107 104 8 7 0 0 0 0 0 0 2 4 4 21
12 0 7 15 11 17 22 22 34 39 39 40 40 40 43 53
50 49 46 45 46 45 44 47 38 23 21 21 14 28 32 37
43 43 43 37 36 40 44 47 42 28 30 26 23 22 20 15
30 31 29 33 33 32 34 35 34 34 35 35 35 34 36 37
37 37 37 38 38 38 39 38 38 39 39 39 39 39 39 39
39 40 40 40 40 40 39 40 37 25 19 18 33 45 36 17
17 1 5 0 0 4 26 120 71 0 1 4 13 105 40 80
124 65 34 112 56 1 6 3 0 0 0 0 4 6 3 11
9 2 8 16 17 15 23 19 26 37 40 40 40 40 43 52
49 49 48 48 49 48 47 50 40 24 21 20 11 25 28 37
51 51 49 42 41 47 48 46 45 28 32 36 41 37 34 28
30 26 26 34 30 31 36 33 34 30 35 33 32 33 35 36
37 37 39 37 38 38 39 39 39 39 39 40 39 40 40 40
40 39 39 40 40 39 39 39 37 24 21 21 35 44 24 17
13 0 7 16 11 22 103 48 4 4 3 1 40 92 15 72
125 97 8 94 114 34 0 2 5 7 7 7 12 16 25 26
58 5 3 10 10 18 17 20 24 32 40 40 40 40 44 53
50 49 48 49 50 50 50 51 41 24 20 20 12 22 22 28
50 51 48 43 36 28 19 13 40 23 21 31 23 12 14 15
32 29 28 33 32 31 35 33 34 32 32 32 32 32 33 37
37 38 38 38 38 39 39 39 39 39 40 39 39 40 39 40
40 39 40 40 40 40 40 39 38 22 20 20 34 41 24 16
16 0 7 15 53 45 24 5 2 2 2 39 104 73 15 102
125 119 27 64 130 98 50 12 0 0 8 16 39 49 76 72
63 19 0 9 8 14 22 16 20 31 38 40 40 40 43 52
48 46 46 48 50 51 52 51 41 25 19 20 11 18 6 9
32 21 14 9 6 2 2 4 35 32 21 30 16 0 0 1
36 34 35 35 35 34 35 35 35 35 33 35 35 36 37 37
38 38 38 38 39 39 39 38 39 39 40 39 40 39 40 39
40 40 40 40 40 40 40 39 37 22 16 19 35 40 19 13
14 1 10 49 112 115 65 22 14 22 65 95 116 81 61 103
111 109 77 57 131 106 96 82 58 36 47 46 74 103 113 90
60 43 1 4 7 10 17 15 18 20 37 40 40 40 42 53
47 46 46 47 49 50 51 51 39 24 19 18 12 15 3 1
19 9 3 3 3 5 5 4 23 39 20 26 15 0 0 10
35 35 35 36 35 36 36 35 35 35 35 36 37 36 37 37
37 37 37 38 38 38 38 38 39 39 39 39 39 38 39 39
39 39 39 40 40 40 39 39 36 23 19 22 36 41 22 18
7 1 20 78 116 104 80 82 78 87 98 105 111 109 94 104
103 102 95 100 115 102 102 95 91 88 81 85 82 93 109 105
75 46 5 3 8 8 18 21 11 14 35 39 39 40 42 52
48 46 46 46 48 48 48 50 40 24 17 17 12 13 3 1
12 14 4 5 4 14 15 5 8 42 20 24 18 0 1 5
35 35 35 35 35 35 35 35 35 35 36 36 36 37 37 37
38 38 37 38 38 39 39 39 39 38 38 39 39 39 39 39
40 39 40 40 40 40 39 39 37 23 21 22 35 38 23 22
12 4 35 99 111 95 84 83 95 100 104 103 97 93 102 109
103 111 106 94 100 98 103 105 110 106 96 88 83 85 101 110
92 43 6 3 6 7 10 16 15 17 36 39 39 39 41 52
47 47 47 47 49 48 48 50 42 25 17 17 14 10 2 0
5 23 6 1 5 8 9 5 2 40 21 18 17 0 0 5
35 34 34 35 35 35 35 35 36 36 36 36 37 37 36 37
37 36 38 38 38 38 38 38 38 38 39 39 40 39 40 40
39 39 39 39 39 39 39 39 37 22 20 23 35 36 18 14
7 5 52 106 98 89 94 102 104 102 101 97 93 101 108 111
111 115 111 106 98 97 101 104 110 115 110 102 97 95 95 106
98 56 2 2 7 13 7 14 12 19 38 39 39 39 40 51
47 47 48 48 48 48 49 50 42 25 18 16 23 27 19 2
1 28 15 2 1 0 0 1 0 33 22 18 21 0 0 6
34 35 35 35 35 35 35 36 35 36 36 36 36 36 37 37
37 38 38 38 38 38 39 38 38 38 39 39 39 38 38 38
39 39 39 39 39 39 40 39 36 20 19 22 34 24 3 15
10 2 66 99 91 100 106 108 106 103 101 97 104 107 109 107
108 109 109 112 109 101 103 108 108 111 113 110 105 102 100 95
98 78 4 0 3 20 22 16 16 19 38 40 40 39 39 51
50 48 47 47 47 46 47 48 42 26 19 17 10 7 7 0
0 20 18 5 0 0 0 0 0 26 35 33 28 0 0 6
35 35 35 35 34 35 35 35 35 36 36 36 37 37 37 37
38 37 37 38 38 38 38 38 38 39 39 39 39 39 39 40
39 39 40 39 39 40 39 39 36 16 16 21 32 17 4 12
2 4 76 91 100 109 111 109 105 104 101 106 108 107 108 105
108 105 108 108 112 110 104 104 107 108 113 113 111 108 104 100
93 89 18 0 1 9 22 17 12 22 40 42 41 39 39 51
50 49 48 49 50 50 50 49 42 26 19 19 7 0 0 1
1 13 20 7 0 0 0 0 0 15 44 40 32 0 0 0
35 35 35 35 35 35 35 35 35 36 36 36 36 36 36 37
37 37 38 38 38 38 38 39 39 39 39 39 39 38 39 38
39 38 39 39 39 40 40 40 37 15 14 19 32 14 4 16
4 14 75 99 109 113 111 110 105 103 108 111 109 104 99 93
91 94 97 102 107 115 113 106 105 109 114 114 114 112 110 105
96 89 32 0 0 8 15 11 12 19 44 46 44 39 39 51
49 47 46 46 46 48 50 50 43 27 20 20 10 1 3 8
9 8 24 7 0 0 0 0 0 4 44 44 34 0 0 0
35 35 35 35 35 35 35 35 35 36 36 36 37 37 37 38
37 38 38 38 38 37 39 38 38 38 39 39 39 39 39 39
39 39 39 39 39 40 39 39 36 17 14 19 33 17 14 20
5 25 88 106 113 115 114 108 105 109 111 104 104 107 113 110
106 111 115 105 96 102 113 113 112 110 112 115 114 114 112 108
103 92 46 3 1 7 19 14 9 19 44 47 45 39 38 51
48 47 48 47 47 47 48 50 44 27 19 18 12 4 9 13
5 2 22 1 0 0 0 0 0 0 36 39 25 2 1 0
33 34 33 34 35 33 35 36 35 35 36 37 37 36 36 37
37 37 37 38 38 38 38 39 39 39 39 39 39 39 39 39
39 39 39 39 40 39 40 40 37 20 14 16 35 21 12 14
9 39 98 110 116 116 115 111 114 109 96 104 118 113 99 94
96 100 109 118 115 104 93 114 117 119 115 115 117 116 114 110
105 99 60 10 3 5 17 19 11 27 46 47 47 41 37 50
49 49 48 48 49 49 50 51 46 28 20 18 11 1 7 14
9 1 18 4 0 0 2 9 13 13 16 11 13 2 0 0
31 33 31 31 32 32 35 36 33 32 31 33 34 32 32 34
35 38 37 35 35 35 36 35 36 36 39 39 37 37 38 38
39 39 39 40 40 40 40 40 37 22 15 16 34 20 11 9
15 51 105 112 118 116 115 115 112 98 106 116 106 98 103 113
111 110 106 105 116 121 112 96 110 120 119 116 117 117 114 113
107 100 77 14 5 12 20 19 13 22 42 47 47 40 37 49
49 47 47 48 49 51 52 53 49 29 21 18 10 0 1 3
6 0 10 24 22 27 31 30 18 16 11 5 2 1 3 1
34 34 34 33 34 34 35 35 35 34 35 36 36 35 35 36
36 37 37 36 36 35 37 36 35 35 38 39 37 36 38 36
38 39 39 39 40 40 40 39 37 24 19 20 35 20 8 16
19 64 109 115 117 115 115 106 102 111 116 110 106 104 114 117
115 116 112 107 107 110 117 118 103 97 118 119 117 118 118 115
110 100 89 23 11 12 17 16 11 19 31 45 47 41 37 49
49 48 48 48 49 50 52 53 49 31 21 20 10 0 1 1
3 5 2 41 43 40 28 13 10 6 6 3 0 0 1 4
35 35 35 35 35 35 36 35 35 36 36 37 36 37 37 37
37 37 38 38 38 38 38 38 39 38 38 39 39 39 39 39
39 39 39 39 40 40 40 39 37 25 22 21 35 21 10 13
20 75 112 116 118 117 111 104 115 117 112 111 110 111 118 120
119 119 117 113 110 113 112 114 116 108 112 121 120 119 118 117
110 102 94 29 14 7 7 17 16 20 34 42 47 42 37 48
48 46 47 48 49 53 53 54 52 33 24 29 22 9 6 11
22 16 7 33 51 26 9 2 2 2 1 0 0 0 0 0
32 33 34 33 33 33 35 35 35 36 36 36 37 37 37 38
37 38 38 38 38 38 38 38 39 39 39 39 40 40 39 40
40 40 40 39 40 40 39 40 36 25 22 21 36 28 11 5
18 88 115 118 117 116 111 117 119 113 114 113 114 118 118 119
121 119 119 118 111 113 116 114 114 115 112 122 121 118 120 117
110 105 96 40 14 4 10 11 15 24 37 46 47 42 37 48
49 46 48 49 51 53 56 57 53 33 30 37 32 18 24 26
35 30 31 31 22 1 0 0 0 0 0 0 0 0 0 0
31 30 31 31 32 33 32 33 34 35 36 36 37 36 37 37
37 37 38 37 38 38 38 39 39 39 39 39 39 39 39 39
39 39 39 39 40 39 40 40 36 24 22 21 36 34 9 4
22 100 115 117 117 114 113 116 113 116 117 118 120 118 118 121
122 119 120 123 117 115 117 117 116 117 116 120 120 119 119 116
112 107 95 50 15 7 9 10 19 22 39 47 47 43 37 48
50 47 49 49 49 51 53 56 54 34 31 36 38 27 31 26
28 27 25 12 0 0 0 0 0 0 0 0 0 0 0 1
35 34 35 35 34 34 34 33 35 36 36 37 37 37 38 38
38 38 38 38 38 38 38 38 39 39 39 39 39 39 40 39
40 40 40 40 41 40 40 39 37 23 22 20 36 35 8 6
31 107 116 118 118 110 114 114 113 118 117 119 119 120 116 112
116 122 120 121 122 118 120 122 117 117 116 118 120 119 119 118
112 107 98 58 16 4 8 9 23 23 40 47 48 42 37 47
50 46 46 49 51 52 56 58 53 30 26 35 40 30 27 23
19 19 11 0 0 0 0 0 0 0 0 0 0 0 5 7
35 35 35 35 35 36 36 35 36 36 36 37 37 37 37 37
38 37 37 37 38 38 38 39 38 39 38 39 39 39 39 39
39 40 39 39 40 40 40 40 36 25 22 20 37 34 6 5
40 110 116 117 120 112 114 111 114 116 120 120 120 120 114 108
114 115 117 121 124 121 121 121 122 118 117 119 121 119 121 117
112 108 98 71 29 5 5 6 17 23 38 47 48 42 36 46
49 46 47 47 48 50 55 56 47 9 6 10 14 15 15 32
29 27 11 0 0 0 0 0 0 0 0 0 0 1 11 16
35 35 35 35 35 35 36 36 35 36 36 36 37 36 37 37
37 37 38 38 38 38 38 38 38 39 39 39 39 39 39 39
40 40 40 40 40 40 40 40 37 23 19 20 35 30 4 10
57 109 115 118 121 117 115 114 116 115 119 117 116 112 108 102
103 105 113 117 118 120 119 119 121 121 117 117 118 119 118 117
113 108 100 81 75 56 16 3 12 22 36 47 48 43 36 46
49 46 46 46 47 50 53 54 32 0 0 0 1 0 3 37
12 5 0 0 0 0 0 0 0 0 0 0 0 7 27 31
35 35 35 34 35 35 35 35 35 35 36 36 36 37 37 37
37 37 38 37 38 38 38 37 38 39 39 38 39 40 39 39
40 40 39 40 40 40 40 39 36 22 17 20 36 27 4 43
84 109 112 118 119 118 119 116 112 109 112 112 108 105 106 107
101 102 104 110 113 118 117 115 116 117 119 117 116 117 117 114
112 108 103 91 110 97 67 6 11 18 36 47 47 42 36 46
49 48 46 44 46 48 49 50 16 0 0 0 0 0 3 37
11 0 0 0 0 0 0 0 0 0 0 0 3 17 31 35
34 34 34 35 35 35 35 36 35 35 36 36 36 36 36 37
37 37 37 37 37 37 38 38 39 39 39 39 39 39 39 39
39 39 40 40 40 39 39 39 36 21 18 20 37 29 19 68
93 110 112 114 119 118 119 115 107 104 103 97 99 99 96 95
94 95 96 98 99 105 108 108 111 112 116 116 114 116 113 114
112 111 103 96 114 102 67 17 13 17 42 47 47 43 37 45
49 50 47 44 44 45 47 42 7 0 0 0 0 0 1 34
10 0 0 0 0 0 0 0 0 0 0 0 6 23 33 41
34 34 34 34 34 35 35 35 35 35 35 36 36 37 36 37
37 38 38 38 38 38 37 38 38 38 38 38 38 38 38 39
39 39 39 40 40 40 39 39 36 21 19 21 36 33 31 85
100 110 109 114 116 118 114 109 101 98 92 87 89 85 83 83
86 86 88 86 89 90 97 100 103 107 109 110 112 115 115 114
112 112 105 100 114 109 67 34 10 21 46 47 46 43 37 44
46 44 45 45 44 44 45 36 3 0 0 0 0 0 0 31
15 0 0 0 0 0 0 0 0 0 0 0 16 33 39 43
34 34 34 34 35 35 35 35 35 36 36 36 36 37 37 37
37 37 37 37 37 37 38 38 39 38 38 39 39 39 39 39
39 39 39 39 39 40 39 39 36 21 21 21 36 36 42 89
100 105 108 109 109 114 109 101 96 92 91 83 84 81 78 75
81 82 83 81 79 87 90 93 98 102 108 108 110 117 114 113
114 112 105 100 116 104 67 41 8 27 47 47 46 42 37 44
45 44 44 43 42 42 42 31 2 0 0 0 0 0 0 30
17 0 0 0 0 0 0 0 0 0 0 2 25 36 42 42
34 34 35 34 35 35 35 35 36 35 36 35 36 36 36 37
37 37 38 37 37 38 38 38 38 38 39 38 39 39 38 39
39 39 39 39 39 40 40 39 36 21 21 20 36 42 54 92
102 102 107 107 107 106 101 94 92 89 85 81 82 88 88 89
87 84 86 86 85 87 88 88 93 98 102 108 112 113 113 112
112 111 102 102 99 108 74 42 9 24 48 47 47 43 38 44
47 45 45 44 43 44 42 29 1 0 0 0 0 0 0 23
7 0 0 0 0 0 0 0 0 0 0 15 38 42 44 43
35 34 35 34 35 35 35 35 35 36 35 36 37 36 37 37
37 38 37 37 38 37 38 38 39 39 39 39 40 39 39 39
40 39 39 39 39 39 39 39 36 21 21 20 37 45 59 98
101 101 106 105 103 102 94 84 86 88 85 83 88 88 91 90
89 87 87 89 89 88 85 83 90 97 101 106 112 110 110 111
111 109 100 104 86 102 82 42 14 26 44 45 45 42 38 48
46 43 43 43 41 42 41 31 10 0 0 0 0 0 0 3
0 0 0 0 0 0 0 0 0 0 11 35 48 48 45 44
35 35 35 36 35 36 36 35 36 36 36 36 37 37 37 37
38 37 38 38 38 38 39 38 39 38 39 39 39 39 39 39
39 39 40 40 39 40 40 40 36 22 22 20 38 46 81 116
109 97 107 103 99 98 93 83 82 86 85 83 85 91 93 95
96 94 89 91 88 86 86 82 89 95 100 105 109 108 107 110
110 107 97 98 115 109 87 40 13 34 48 47 47 44 40 49
48 43 43 41 39 39 37 39 29 3 0 0 0 0 0 0
0 0 0 0 0 0 0 0 0 2 24 45 53 51 45 44
35 35 36 36 36 36 36 36 36 36 36 36 37 37 38 37
38 38 38 37 38 39 39 39 39 39 39 39 40 39 40 39
39 40 40 40 40 39 40 40 36 23 23 21 39 47 95 118
108 94 105 101 96 92 92 87 83 91 89 85 87 94 94 96
98 96 93 93 95 90 88 91 93 97 101 106 106 103 107 108
105 100 92 89 114 113 99 33 15 38 51 50 51 48 40 49
50 46 45 43 43 40 41 40 26 13 0 2 3 1 0 0
0 0 0 0 0 0 0 0 0 9 29 49 55 53 46 42
35 36 36 36 37 37 37 37 37 37 37 37 38 38 38 38
38 38 38 38 38 39 39 40 39 40 40 39 40 40 40 40
40 39 40 40 40 40 40 41 37 25 23 23 39 46 78 112
109 85 100 101 96 91 89 93 90 96 95 88 85 94 96 100
97 99 96 95 99 93 92 95 97 99 103 102 98 99 103 107
102 95 77 67 117 114 101 32 13 43 49 50 51 48 40 50
49 46 45 44 44 43 45 45 34 18 4 19 20 7 3 1
0 0 0 0 0 0 0 0 0 11 31 55 57 53 46 41
36 36 37 37 36 38 37 37 37 37 37 37 38 38 38 38
38 39 39 39 39 39 39 39 40 39 40 40 40 40 40 40
40 40 41 41 41 41 41 41 37 27 23 23 39 47 64 107
108 61 92 97 99 95 93 97 93 96 97 89 86 93 97 102
104 103 103 100 103 97 95 95 100 102 105 102 101 103 98 98
96 86 56 39 104 116 104 42 17 44 49 49 49 47 41 50
51 47 46 43 41 40 42 51 53 48 44 45 44 41 38 7
0 0 0 0 0 0 0 0 1 12 29 55 58 51 44 38
36 35 35 36 36 36 36 36 37 37 37 37 38 38 38 38
38 38 38 39 38 39 39 39 39 39 40 39 40 39 40 40
40 40 40 40 40 41 41 41 37 27 22 23 39 46 55 102
95 29 61 86 94 96 95 99 98 96 97 88 88 93 97 102
105 105 104 102 103 100 98 100 104 107 108 108 105 103 95 87
84 84 39 7 61 97 90 41 23 47 48 48 49 47 40 50
53 50 48 44 41 41 42 51 59 56 55 55 56 50 30 4
0 0 0 0 0 0 0 0 0 7 28 49 54 50 42 33
35 35 36 36 36 36 36 36 36 36 37 37 37 37 37 37
38 38 38 38 39 39 39 39 39 39 39 39 39 39 39 39
39 40 39 40 40 40 40 40 37 26 21 24 39 45 47 73
62 10 49 66 81 95 97 98 99 97 96 95 92 90 96 103
106 105 104 103 106 105 103 104 108 108 112 111 107 103 92 82
86 94 50 5 1 12 20 14 29 46 48 49 49 47 39 49
53 50 49 45 43 41 42 50 60 58 59 57 45 38 21 0
0 0 0 0 0 0 0 0 0 4 34 49 50 47 39 32
35 35 36 36 36 36 36 36 36 36 37 37 37 37 37 37
37 38 38 38 38 38 38 38 38 39 39 39 39 40 40 39
40 40 40 40 40 40 40 40 36 25 21 23 38 45 45 41
12 13 74 80 67 88 98 99 99 95 97 97 93 91 95 103
107 107 107 105 107 108 106 106 107 109 114 114 110 105 97 92
97 99 92 21 0 1 12 11 34 44 48 49 49 46 39 48
53 49 48 47 43 42 42 42 43 48 56 47 32 29 31 2
0 0 14 31 5 0 0 0 0 12 44 50 46 41 35 29
35 35 37 35 36 36 36 36 37 37 37 37 37 36 37 38
37 37 38 37 38 38 38 39 39 38 39 39 39 39 39 39
39 39 39 40 40 40 40 39 36 25 22 23 38 45 46 42
11 12 89 94 81 82 96 99 100 97 95 98 94 93 96 102
109 111 110 110 108 110 110 108 108 111 115 114 112 104 102 100
102 100 96 12 2 4 9 21 41 46 47 48 49 47 39 49
53 49 48 45 43 40 39 37 33 37 52 44 21 20 35 12
0 1 35 53 43 9 0 0 0 19 46 49 45 38 33 30
36 36 36 36 36 36 36 36 36 36 37 36 37 37 37 37
37 37 37 37 38 38 38 37 38 38 38 38 38 39 39 39
40 40 40 39 40 40 40 39 35 23 21 22 37 44 45 42
18 5 69 96 91 84 92 99 99 99 95 98 97 97 99 104
112 115 112 112 112 113 112 111 113 112 114 115 113 106 104 104
103 102 87 4 6 9 11 32 43 46 46 46 47 45 38 48
53 50 49 45 44 41 41 38 35 29 47 42 10 17 30 20
0 7 46 63 48 43 5 0 1 24 46 48 42 34 27 26
36 35 35 35 35 36 36 35 36 36 37 37 37 37 37 37
37 37 37 37 37 37 38 38 38 38 39 38 39 38 38 39
39 39 39 39 39 39 39 39 35 23 21 21 37 44 44 42
25 2 39 93 94 88 88 99 98 99 96 98 100 98 101 105
114 119 118 118 116 115 113 115 112 113 115 115 110 108 100 105
107 103 73 1 9 13 15 34 41 45 46 47 47 46 37 47
52 48 47 46 45 42 43 42 38 27 40 45 23 25 24 27
4 12 52 59 37 47 28 3 1 30 47 48 42 28 16 10
36 36 36 35 36 36 36 36 36 36 36 36 36 36 36 36
37 37 37 37 38 37 38 37 38 38 38 38 38 38 38 39
38 39 39 39 39 39 39 39 35 23 20 20 36 44 43 42
30 4 15 84 95 93 86 96 100 99 97 100 103 102 102 108
116 123 122 119 120 120 115 114 115 113 117 115 112 108 104 107
107 104 62 0 8 13 24 37 41 42 44 48 48 45 36 44
52 50 48 46 44 43 43 43 39 28 32 49 31 23 26 28
10 13 53 40 45 44 39 32 27 38 48 50 42 25 11 4
36 36 36 35 35 35 35 35 35 36 36 36 36 36 36 36
36 36 37 37 37 37 37 37 37 38 37 38 38 38 38 39
39 38 38 38 38 38 38 38 35 22 20 19 36 43 42 43
36 15 3 62 92 95 88 92 99 96 100 103 107 103 103 108
116 124 124 122 123 121 118 114 115 115 117 115 113 110 106 110
107 104 47 0 6 15 41 36 42 44 46 47 47 45 36 43
50 46 47 48 46 43 43 42 39 30 23 46 40 35 32 36
13 11 54 46 49 54 40 36 39 45 48 51 45 27 11 1
36 37 37 36 35 35 36 35 35 35 36 36 35 36 36 36
37 37 36 37 37 37 38 37 37 38 38 38 38 38 38 38
39 38 38 38 38 38 38 38 35 22 20 19 36 42 42 42
40 23 1 30 88 94 90 94 102 102 102 106 110 106 108 111
119 128 132 129 125 124 121 119 118 117 119 115 113 111 108 109
107 105 45 0 1 22 42 38 43 45 46 48 47 45 35 41
49 45 46 46 44 43 43 41 41 33 21 39 42 36 31 27
1 5 48 50 42 50 37 34 39 45 47 49 45 33 23 8
36 37 36 35 35 35 35 35 35 35 36 36 36 36 36 36
36 36 37 37 37 37 36 38 37 37 37 38 38 37 38 38
39 38 38 38 38 38 38 37 34 20 19 18 34 42 42 41
40 33 3 7 78 93 93 97 104 105 106 109 112 111 111 116
122 129 134 135 132 127 123 121 119 116 117 116 115 110 110 110
110 105 52 0 1 30 38 38 41 45 46 47 46 44 35 40
45 43 43 44 45 45 46 43 41 33 20 30 44 35 28 32
20 9 38 55 52 41 35 34 40 44 44 47 44 37 30 18
37 36 35 35 36 36 35 35 36 36 36 36 36 36 36 36
36 37 37 37 37 37 38 37 37 38 37 37 38 38 37 38
38 38 38 37 38 37 37 37 34 21 18 17 33 41 41 41
41 36 11 0 66 96 95 97 104 108 110 114 114 115 117 120
127 133 139 136 132 128 122 121 122 120 118 116 114 111 111 111
109 105 68 0 1 29 37 40 43 45 45 46 46 44 35 40
45 42 41 41 43 44 44 42 41 34 22 20 44 37 36 38
41 29 13 57 60 47 34 35 37 41 42 41 40 37 34 28
37 36 36 35 34 35 35 35 35 35 35 35 36 35 36 36
36 36 37 37 37 37 37 36 37 37 37 37 37 37 37 38
38 37 38 37 37 37 37 37 33 20 15 15 32 39 39 39
39 36 13 2 55 100 98 101 108 109 113 115 118 119 119 121
127 136 139 138 135 132 119 122 123 121 118 116 115 112 111 111
109 106 83 2 2 19 30 40 41 45 45 45 44 42 34 40
42 39 40 42 43 43 44 44 43 35 23 14 37 38 36 41
45 37 1 35 53 44 33 36 38 37 37 38 36 31 29 27
38 36 36 35 35 35 35 35 35 34 35 35 35 35 36 36
36 36 36 36 37 37 37 37 37 37 38 38 37 38 38 38
38 37 37 37 37 36 36 35 32 19 14 15 32 39 39 40
39 35 9 3 53 102 100 103 110 112 115 116 118 119 120 122
130 138 140 140 134 131 123 123 124 121 119 118 115 114 112 111
109 107 93 6 0 11 30 39 42 45 45 43 42 40 34 43
44 38 40 41 39 40 41 43 45 37 23 13 27 43 42 42
37 32 8 23 34 33 32 35 36 34 33 35 33 28 26 25
38 36 36 35 35 35 35 35 35 35 35 35 35 35 36 36
36 36 36 36 36 37 37 37 36 37 37 37 37 37 38 37
37 36 38 40 37 35 35 34 31 18 14 15 30 38 38 38
38 33 8 0 50 103 104 106 110 113 115 117 118 119 120 123
128 137 142 141 137 130 124 122 125 122 121 117 114 113 113 111
110 109 99 16 0 25 37 42 45 46 45 45 46 44 35 44
47 41 42 40 40 43 43 45 46 37 23 13 18 42 33 30
28 28 22 25 34 35 32 35 37 33 31 32 32 27 24 23
40 37 36 36 36 34 35 34 34 34 35 35 35 35 36 36
36 36 36 36 36 36 36 36 36 37 37 37 37 37 38 37
36 28 32 37 36 34 34 34 30 18 14 14 30 38 38 38
38 24 12 0 53 103 103 107 111 112 115 115 118 118 120 122
129 138 144 144 137 130 127 124 124 123 122 119 118 115 113 111
112 109 101 25 6 33 40 43 45 50 55 57 57 50 39 47
50 47 47 47 47 48 48 48 48 39 23 12 14 33 28 27
28 29 24 28 32 33 32 34 35 31 29 29 31 25 21 21
41 38 37 36 36 35 35 35 35 35 35 35 35 35 35 35
36 35 36 36 36 36 36 36 36 37 37 37 37 37 37 37
36 31 39 45 45 44 44 44 42 35 33 32 40 43 42 41
40 22 2 0 58 103 105 108 113 114 116 115 116 117 120 121
125 135 144 144 135 130 128 125 124 124 122 119 117 115 113 107
112 110 104 38 37 46 48 48 49 66 69 69 69 66 55 47
47 46 45 44 43 42 45 48 49 40 22 13 12 15 25 28
28 29 25 29 31 31 33 34 34 31 26 28 29 24 20 17
43 38 37 36 35 35 34 34 34 34 34 34 35 35 35 35
35 35 36 36 36 35 36 35 35 36 36 36 38 37 36 28
27 25 42 51 50 50 50 50 50 49 49 49 48 47 45 43
42 37 9 0 64 104 106 109 113 113 114 113 113 116 120 120
122 132 145 141 134 129 127 126 125 123 122 121 118 116 114 112
114 112 106 51 38 46 46 46 48 64 69 67 66 67 64 47
45 44 44 42 41 38 41 46 47 40 22 13 12 4 22 26
20 21 22 30 31 30 32 33 32 29 25 24 25 21 17 13
43 39 36 35 36 35 35 34 35 34 34 35 35 35 35 34
35 35 35 35 35 35 33 32 35 36 37 36 36 37 34 22
20 22 42 51 50 50 51 50 50 50 50 50 48 47 45 44
43 40 24 4 72 104 108 110 111 113 115 112 112 116 120 119
119 127 142 140 134 127 125 125 125 123 121 119 118 114 113 112
116 113 107 54 26 30 31 32 33 40 44 39 39 43 48 33
31 30 30 29 31 37 38 43 47 39 21 13 13 5 20 11
0 0 16 31 31 30 30 31 31 27 23 21 21 18 14 10
43 39 36 35 35 34 34 33 34 33 33 34 34 35 35 35
35 35 35 35 35 34 31 31 34 35 35 36 36 36 33 22
19 22 41 51 49 47 47 47 47 47 47 46 46 44 42 40
41 38 24 11 79 104 108 110 112 114 115 113 115 115 121 119
117 122 134 137 131 125 127 124 124 123 122 119 113 116 114 115
116 113 108 54 9 10 10 9 7 4 4 3 3 3 4 4
3 3 4 4 23 40 37 42 45 37 20 14 19 17 22 9
0 0 22 31 31 28 29 30 30 28 24 21 18 16 12 10
44 39 36 35 33 33 33 33 33 33 33 33 34 35 35 35
35 35 35 34 33 32 31 32 35 35 35 35 36 35 32 21
19 21 41 51 39 20 20 21 21 21 21 20 19 18 18 17
17 16 11 2 82 106 106 110 113 114 114 113 114 116 120 119
116 116 123 127 125 124 128 121 123 123 121 119 115 114 113 116
117 115 109 60 16 22 21 19 14 7 3 1 1 1 0 0
0 0 0 0 17 40 35 35 34 27 17 15 21 22 24 15
0 5 27 33 34 29 26 28 27 26 24 21 18 15 15 11
45 40 36 35 34 32 33 32 32 31 32 32 35 35 35 35
35 35 35 35 30 28 28 28 30 30 31 31 32 32 28 19
19 20 40 52 38 18 19 22 22 21 22 21 20 19 18 18
18 17 17 11 85 106 108 110 113 114 114 115 115 116 118 118
115 115 118 123 124 125 129 124 123 122 121 120 117 118 113 114
117 114 107 78 20 30 31 28 22 13 6 4 4 3 3 3
1 1 0 0 10 39 35 22 15 12 11 11 19 22 22 17
2 19 29 33 35 33 23 24 25 25 23 21 19 15 14 10
47 40 38 36 34 33 33 32 32 32 32 33 36 36 36 36
36 36 36 35 31 27 27 28 28 28 29 29 29 29 24 19
19 20 39 51 40 21 28 54 60 60 60 57 53 53 52 50
50 48 49 37 85 106 108 111 112 113 114 114 115 115 117 116
116 116 120 122 123 125 125 122 123 121 122 117 114 115 118 117
117 113 107 98 27 16 26 22 18 11 5 4 4 3 2 2
2 1 1 1 4 37 35 18 10 9 17 25 26 19 20 18
10 19 31 34 36 38 24 23 24 24 21 18 16 12 9 7
47 42 39 37 34 34 32 32 32 32 32 34 37 37 36 36
36 36 36 35 31 28 28 28 28 28 28 29 29 29 23 18
19 20 37 51 41 22 33 81 90 91 92 91 90 90 90 89
90 89 88 28 81 106 110 110 113 114 115 115 115 114 114 117
116 118 120 121 123 126 126 122 120 119 121 117 118 117 118 118
116 112 106 104 85 9 20 14 12 9 6 4 4 4 3 3
2 2 1 0 1 32 34 21 9 13 23 28 25 19 16 17
15 16 31 35 36 40 31 18 20 21 21 17 11 7 6 6
48 43 40 37 35 35 33 31 32 31 31 34 36 37 36 36
36 37 36 35 31 28 28 28 28 28 28 29 29 28 22 19
18 20 37 52 43 22 32 78 90 91 92 91 89 90 91 88
90 81 59 15 85 105 111 112 114 114 115 117 118 115 114 116
116 118 121 122 123 124 123 121 121 120 122 118 120 117 118 117
116 111 107 109 108 60 21 24 18 9 6 5 5 3 3 2
2 2 1 1 0 26 34 27 21 23 21 27 25 21 15 16
16 14 27 37 37 39 38 18 16 19 20 16 8 4 3 3
48 43 40 35 34 34 32 32 32 32 32 34 36 37 36 36
36 36 36 35 31 28 27 27 28 28 29 29 29 28 21 19
19 20 36 51 42 22 30 77 90 92 93 90 86 88 89 82
48 17 13 20 87 105 109 112 114 112 115 117 119 116 115 116
118 117 120 120 121 122 121 120 120 121 120 118 119 119 118 118
116 111 109 112 113 73 24 27 21 23 15 10 10 8 7 8
7 7 6 10 19 28 31 31 31 27 20 23 22 22 16 15
17 15 19 40 41 38 38 25 11 14 18 17 10 2 2 3
50 43 39 35 34 33 32 32 32 31 32 33 36 36 36 35
36 35 36 35 32 27 27 27 28 28 28 28 28 26 18 18
18 20 35 50 43 23 30 76 91 92 93 90 85 85 71 41
14 6 25 22 77 106 109 112 115 116 115 117 118 116 115 115
117 118 121 121 121 121 122 120 119 119 118 117 121 123 120 118
115 112 110 115 115 56 25 28 22 23 23 24 30 39 40 39
39 37 30 27 27 27 26 26 25 24 16 20 22 20 18 13
15 15 15 33 43 42 37 33 14 9 14 17 14 3 0 2
50 43 39 35 34 33 32 31 32 31 31 32 35 36 36 36
36 35 35 34 30 27 26 27 27 27 28 28 29 24 17 18
19 19 34 50 43 23 28 73 90 91 91 88 68 39 23 20
8 14 26 22 51 107 109 113 114 117 117 117 118 116 115 114
116 117 119 120 119 121 120 118 119 121 119 117 124 122 120 119
117 113 112 117 103 30 26 25 23 21 21 27 17 26 36 46
44 30 25 25 27 25 25 24 23 22 20 11 12 19 18 14
12 16 16 20 41 47 43 35 25 8 7 12 14 6 0 0
48 42 39 36 34 34 34 32 32 31 31 33 34 35 35 35
35 35 36 35 31 27 26 27 28 27 28 27 28 22 16 20
19 19 33 50 43 23 27 71 89 85 64 37 24 26 24 19
7 20 24 22 29 98 109 112 113 116 117 118 118 116 115 112
115 116 116 120 121 119 120 119 119 118 120 123 125 123 121 119
117 113 113 113 49 23 26 24 22 20 21 28 25 19 20 28
30 28 24 18 21 23 23 22 21 22 21 17 3 7 13 11
9 12 16 15 25 47 48 41 32 19 6 5 8 6 0 0
47 42 38 36 34 34 33 32 32 31 31 32 34 35 35 35
35 36 36 34 30 26 26 25 26 27 27 27 27 22 17 20
18 20 32 50 45 22 24 59 54 29 22 19 20 24 26 21
11 19 21 20 20 47 105 111 113 116 116 117 118 116 115 115
117 116 118 119 121 120 120 120 117 119 122 127 129 126 121 120
117 115 113 74 22 23 27 24 21 19 21 26 27 18 17 21
27 27 29 33 30 29 27 25 23 21 20 19 13 1 6 6
3 10 15 17 14 32 50 47 39 28 15 5 1 1 0 0
46 40 38 36 35 34 33 32 32 32 31 32 34 36 35 35
36 36 35 35 30 25 25 25 26 26 26 26 26 23 18 18
18 19 31 50 45 24 25 25 17 13 19 22 21 21 25 24
15 16 19 19 17 19 57 107 111 114 115 117 116 116 114 113
118 115 116 118 118 121 122 121 118 121 125 130 131 126 122 119
117 115 90 27 20 22 24 21 18 19 23 25 24 22 22 23
27 28 29 32 33 32 32 35 36 34 25 19 17 8 1 8
9 11 11 14 12 15 34 46 41 32 23 12 4 0 0 0
44 39 36 38 38 34 33 32 31 31 31 32 33 35 36 36
36 36 36 35 30 25 26 25 26 26 26 26 25 22 18 18
18 19 30 45 39 23 17 19 14 12 20 22 19 17 19 22
18 12 16 18 17 16 19 52 105 115 118 119 116 117 115 112
116 116 118 119 119 121 121 121 120 123 128 131 130 126 120 120
117 98 36 21 17 20 23 19 18 22 25 25 24 25 26 29
31 32 32 34 36 35 36 36 34 34 35 33 29 17 5 3
15 14 5 0 1 12 9 19 35 34 24 18 11 3 0 0
43 38 28 36 41 34 32 31 31 31 31 31 34 36 36 36
36 36 36 35 30 26 26 26 26 25 25 26 26 23 18 19
19 23 31 28 26 22 12 18 13 14 19 20 18 17 17 20
21 13 14 18 16 16 16 19 38 91 116 118 119 116 113 110
113 116 117 119 119 121 124 123 122 124 130 130 129 124 120 103
62 28 21 19 17 20 19 18 20 26 23 25 29 32 32 34
35 35 35 35 36 36 36 34 33 29 30 29 28 31 23 4
4 4 5 3 0 10 5 3 7 26 28 19 14 8 1 0
41 36 26 36 41 33 32 31 31 30 31 32 33 34 35 35
35 35 36 35 30 25 25 25 25 25 25 25 26 22 18 20
21 26 26 23 23 24 21 11 14 16 19 18 17 16 15 17
20 16 13 17 17 15 15 17 18 24 59 100 118 115 112 110
113 115 117 120 121 121 122 122 124 126 128 127 120 91 53 26
20 17 17 18 17 18 16 19 24 23 25 30 32 33 33 33
35 35 35 33 33 33 32 31 30 27 28 28 31 31 33 30
14 9 9 9 3 9 3 2 4 21 29 21 16 14 6 0
39 31 26 39 44 34 32 31 31 30 31 32 34 35 36 36
36 35 35 35 30 25 25 24 24 24 25 25 26 22 21 30
31 27 23 22 23 23 25 23 17 14 16 17 16 16 16 15
17 18 16 14 18 16 16 14 16 15 15 23 46 78 96 106
111 113 117 117 116 119 120 120 119 112 98 65 35 22 17 18
19 18 17 17 17 16 17 23 22 23 29 34 33 33 33 35
36 35 33 32 31 31 31 30 28 26 27 27 28 27 28 31
38 33 18 27 17 1 5 0 1 9 17 19 15 15 5 0
37 26 18 29 41 34 31 31 32 32 31 31 32 34 35 35
35 34 35 35 30 24 24 25 24 24 25 24 26 30 33 32
31 33 32 27 23 23 24 24 23 19 16 17 16 16 16 14
15 17 16 14 15 17 15 14 15 14 13 14 13 15 18 32
46 58 70 69 65 61 58 47 34 27 22 22 21 16 18 16
17 18 17 17 17 17 18 20 20 24 31 32 34 34 35 35
34 33 31 31 29 29 28 27 27 26 26 26 27 26 27 27
27 35 38 20 9 3 0 0 0 1 8 12 13 13 4 0
35 23 14 23 39 32 31 31 31 30 30 30 32 34 35 34
35 35 35 35 30 25 24 24 24 24 25 29 32 29 28 29
28 28 32 31 28 25 25 25 25 25 22 15 15 16 16 15
15 16 16 17 15 15 16 14 14 13 11 13 12 13 12 10
12 13 15 15 15 18 19 18 19 20 20 18 18 17 15 13
15 16 18 18 17 20 21 18 22 25 31 31 32 32 31 32
32 32 31 32 28 28 28 26 26 26 26 26 25 25 24 25
25 28 29 32 18 6 1 1 1 0 3 8 7 7 0 0
34 21 16 26 31 31 31 31 30 31 30 30 32 34 35 34
35 34 34 34 29 24 24 24 24 28 33 30 28 27 25 26
28 28 31 30 29 26 25 26 24 24 26 22 16 13 16 16
15 15 16 16 17 15 14 15 14 13 13 12 11 13 13 13
14 16 16 17 16 16 16 17 17 18 18 18 16 15 15 17
17 17 17 17 20 22 20 20 25 27 30 29 30 33 32 31
31 33 33 30 28 28 26 27 26 25 24 25 25 25 23 24
24 26 26 27 30 12 4 0 2 1 0 1 4 2 0 0
32 18 7 10 22 30 31 31 30 30 30 31 31 33 34 34
34 34 34 33 29 24 24 25 30 32 27 24 24 23 23 24
27 26 27 29 29 27 27 29 26 25 27 26 22 14 14 15
15 15 16 15 16 15 16 13 14 15 17 17 16 15 15 15
15 17 16 17 15 15 17 17 18 19 19 19 19 18 19 20
20 17 17 22 23 21 21 26 28 28 28 28 30 31 30 31
30 31 31 28 26 25 25 26 25 24 26 24 24 24 23 22
23 26 25 24 27 26 6 1 0 1 0 0 0 0 0 0
31 16 1 8 24 29 30 31 30 29 29 30 31 33 34 34
34 34 34 33 29 24 26 31 27 26 23 20 21 23 23 25
27 26 26 26 26 27 28 29 27 24 26 27 26 21 14 15
15 15 15 14 14 14 14 15 13 12 16 17 19 19 19 18
16 17 18 17 18 18 18 20 20 22 22 21 22 20 21 17
16 21 23 21 20 22 26 28 27 27 27 29 30 30 31 29
29 29 30 27 26 25 26 26 25 22 23 22 20 21 21 20
22 24 22 24 22 27 20 2 0 0 0 0 0 0 0 0
30 16 2 8 28 30 30 30 30 30 29 30 32 33 34 33
33 33 33 32 29 28 33 23 23 21 21 21 21 22 23 25
25 26 25 26 25 25 26 27 27 26 26 28 26 24 22 19
16 16 15 14 15 14 14 15 13 12 12 10 13 16 19 19
20 19 19 18 19 20 21 20 20 21 20 20 16 13 16 17
20 23 21 21 20 23 26 27 27 29 28 30 30 29 30 28
29 28 29 25 23 23 24 23 24 21 22 22 21 20 21 20
22 25 21 23 21 24 30 8 0 0 0 0 0 0 0 0
33 19 7 10 28 30 30 30 30 30 30 30 31 33 34 34
34 34 33 33 32 32 23 20 19 19 19 18 20 22 23 25
27 26 27 27 26 26 26 26 26 26 24 26 26 25 26 24
21 21 19 17 16 16 15 14 13 12 11 9 9 8 10 11
12 15 16 17 17 16 17 16 15 14 13 12 13 16 18 20
23 22 20 19 22 25 25 26 25 26 27 28 29 29 28 27
28 28 27 26 24 23 23 24 23 22 21 21 22 21 20 21
19 22 20 19 21 23 25 22 2 0 0 0 0 0 0 0
35 20 14 26 36 30 31 31 31 31 31 31 32 33 34 34
33 34 34 34 34 22 19 18 19 20 19 20 21 24 24 26
26 28 28 26 25 26 26 25 26 26 26 26 25 26 27 25
25 23 23 20 18 16 14 14 12 13 13 12 12 11 10 11
9 10 9 10 12 12 13 13 14 15 16 16 18 21 23 24
22 20 19 22 25 25 26 26 25 27 28 27 28 28 27 27
27 26 25 24 23 22 24 23 24 24 21 21 23 21 22 21
19 24 21 18 19 24 24 24 14 0 0 0 0 0 0 0
33 20 17 33 38 31 31 31 30 30 31 31 32 33 35 34
34 34 35 36 28 21 19 19 18 18 19 22 22 24 24 26
27 29 28 27 26 26 26 25 26 26 26 25 25 26 26 25
26 23 25 25 24 20 20 19 19 16 16 15 15 17 17 16
17 16 14 14 13 14 15 16 17 19 18 20 22 24 24 21
21 19 23 26 26 25 26 26 25 27 27 27 28 29 28 28
26 25 25 24 23 23 24 22 24 24 24 23 22 22 22 20
19 22 21 16 17 23 25 23 24 6 0 0 0 0 0 0
