P2
128 120
154
38 38 39 40 40 41 41 41 41 42 42 43 43 43 44 44
44 45 45 46 46 46 47 46 47 47 47 47 48 47 47 47
48 48 48 49 49 49 49 49 49 49 49 49 49 49 49 48
48 49 48 48 48 48 48 47 47 47 47 46 46 46 46 45
45 45 44 44 44 44 43 43 42 42 42 41 40 40 40 39
39 38 38 37 37 37 37 37 37 36 36 36 36 36 35 35
35 35 35 35 35 35 35 36 35 36 36 36 36 37 37 37
38 38 39 39 40 40 41 42 42 43 43 44 44 45 45 45
38 39 39 39 40 40 41 41 42 42 43 43 43 44 44 44
45 45 45 46 46 46 46 46 46 47 47 47 48 47 48 48
48 48 48 49 48 48 49 49 49 49 49 49 49 49 49 49
49 48 48 48 48 47 48 47 47 47 47 47 47 46 46 45
46 45 45 44 44 44 43 43 42 42 42 41 41 40 40 40
40 39 39 38 38 37 37 37 37 37 36 36 36 36 36 36
36 36 36 36 35 36 36 35 36 36 37 36 37 37 37 38
38 39 40 40 41 41 42 42 43 43 44 44 44 46 46 45
38 39 39 40 40 41 41 42 42 42 43 43 44 44 45 45
45 45 45 45 46 46 46 46 47 47 47 47 48 48 47 48
49 48 49 49 49 49 49 49 49 49 49 49 49 49 48 48
49 49 48 48 48 48 48 47 48 48 48 47 48 46 47 46
46 45 45 45 45 44 43 43 44 43 43 42 41 41 41 40
40 39 39 39 38 38 38 38 38 37 37 37 37 37 37 36
37 36 37 36 36 36 36 36 36 36 37 37 37 37 38 39
40 39 40 40 41 41 42 43 43 43 44 44 45 45 45 46
38 39 40 40 40 41 41 42 42 42 43 43 44 45 45 45
46 46 47 47 46 46 46 46 47 47 47 47 47 47 48 48
48 48 48 49 48 49 49 49 49 49 49 48 49 49 49 49
49 48 48 48 49 48 48 48 48 48 47 47 47 47 46 46
46 45 45 45 45 44 44 44 43 43 42 42 42 41 42 41
40 40 39 39 39 39 39 38 38 38 38 38 38 37 37 37
36 37 36 37 36 37 37 37 37 37 37 37 37 38 38 39
39 39 40 41 41 42 42 42 43 44 45 44 45 45 46 46
39 39 40 40 41 41 42 41 42 43 43 43 44 44 44 45
45 46 46 47 47 47 47 47 47 47 47 48 48 48 48 48
48 48 49 49 49 49 49 49 49 49 49 49 49 49 49 48
48 49 48 48 48 48 48 47 48 48 47 48 47 47 47 46
46 45 45 46 45 44 44 44 44 43 43 43 42 42 41 41
41 40 40 40 40 39 39 39 39 38 38 38 38 38 38 38
37 37 37 37 37 37 37 37 36 37 37 38 38 39 39 39
39 40 40 41 41 42 43 43 43 43 44 45 45 45 46 46
39 40 40 40 40 41 42 42 42 43 43 43 44 44 45 45
46 46 46 46 47 47 47 48 48 47 48 48 48 48 48 48
49 49 48 49 49 49 49 49 49 49 49 49 49 49 48 49
49 49 49 48 48 48 48 48 48 48 47 47 47 46 47 47
46 46 45 45 45 46 45 45 44 43 43 43 43 43 42 42
41 41 41 40 40 39 39 39 39 39 39 38 38 38 38 38
37 38 37 37 38 37 38 37 37 38 38 39 38 39 39 39
40 40 41 41 41 42 43 43 43 44 44 45 46 46 46 46
39 40 40 40 40 41 42 42 43 43 43 44 44 45 45 45
46 46 46 46 47 47 47 48 48 48 48 48 48 49 48 48
48 48 49 48 48 49 49 50 49 49 49 49 49 49 49 48
49 49 48 49 48 48 49 48 48 47 48 48 47 47 47 47
46 46 46 45 45 45 44 45 44 43 43 43 43 42 42 41
42 41 41 41 40 40 40 39 39 39 39 38 39 38 38 37
38 38 37 38 38 37 37 38 37 38 38 39 39 39 39 39
40 41 41 41 42 42 43 42 43 43 44 45 45 45 46 46
39 39 39 40 41 41 41 42 42 42 42 43 43 44 45 44
45 45 46 46 46 46 47 47 47 48 48 48 48 48 48 47
48 47 48 48 49 48 49 48 48 48 48 48 48 48 49 48
48 48 48 48 48 48 48 47 48 48 47 47 47 46 46 46
46 46 46 45 45 45 45 44 44 44 44 43 43 43 42 41
41 41 41 40 40 40 40 39 40 39 39 39 39 38 38 38
38 38 37 37 37 37 38 38 38 38 38 38 39 38 39 39
39 39 40 41 40 41 42 42 43 43 44 45 45 45 45 46
39 39 40 40 40 40 41 41 41 42 42 42 43 43 44 44
44 44 45 45 45 46 46 47 46 46 47 47 47 47 48 47
48 47 48 48 47 47 48 47 47 47 47 48 48 48 48 48
48 48 48 47 47 47 47 47 47 47 47 46 47 46 47 46
45 46 45 45 44 44 44 44 43 43 43 42 42 42 41 41
41 40 41 40 40 40 40 39 39 39 39 38 38 38 37 37
38 37 37 37 37 36 37 36 37 37 37 37 37 38 38 39
38 39 40 40 40 41 41 41 42 43 43 43 44 44 45 45
39 38 39 40 40 40 41 41 41 42 43 42 43 43 43 43
44 44 44 44 45 45 46 46 47 47 47 47 47 47 47 47
47 47 47 47 47 47 47 48 48 47 48 47 47 47 48 48
47 47 48 47 47 47 47 47 46 47 47 46 46 46 46 45
46 45 45 45 45 44 44 43 43 43 43 43 42 42 42 41
41 41 40 40 40 39 39 39 39 38 38 38 38 39 38 38
38 37 38 37 37 37 37 37 37 37 38 38 38 38 38 38
38 39 39 40 40 40 40 41 42 42 43 43 43 44 44 44
38 38 39 39 40 40 40 41 40 41 42 42 42 42 43 43
43 44 44 44 45 45 45 45 46 45 46 46 46 45 46 46
46 47 47 47 47 47 47 47 47 47 47 46 46 47 46 46
46 46 47 46 47 46 46 46 47 46 46 46 46 46 45 46
45 44 44 44 44 44 43 43 43 43 42 42 42 41 41 41
40 40 40 39 39 40 39 39 39 38 38 38 38 37 37 37
36 36 37 36 36 36 37 37 36 36 36 37 37 37 37 37
37 38 39 39 39 39 40 40 41 41 42 42 43 43 43 43
38 38 38 39 39 39 39 40 40 41 41 41 42 42 42 42
43 43 44 44 44 44 45 45 45 45 46 46 45 46 46 46
46 46 46 46 46 46 47 47 47 46 46 47 47 47 47 47
46 46 46 46 46 46 46 46 46 46 46 46 46 45 45 45
45 45 44 44 44 43 43 43 43 42 42 43 42 41 41 41
41 40 40 40 40 39 39 39 38 38 38 38 38 38 38 37
37 37 37 36 36 36 37 36 37 37 37 36 37 37 37 37
38 38 39 39 39 39 40 40 40 41 42 42 42 43 43 43
38 39 39 39 39 40 40 40 41 41 41 41 42 42 43 43
43 44 44 44 45 44 45 45 45 45 46 46 46 46 45 46
46 47 47 47 47 48 47 47 47 47 47 46 47 46 47 46
46 46 46 46 47 46 46 46 46 46 46 46 46 46 45 45
45 45 45 45 44 44 44 43 43 43 43 42 43 42 42 42
41 40 41 40 40 40 40 39 40 39 39 39 38 38 38 38
38 37 37 37 37 36 37 36 37 37 37 37 37 38 38 38
38 38 39 39 39 39 40 40 41 41 42 42 42 43 43 43
39 39 39 39 39 40 40 41 41 41 41 42 43 43 43 43
44 44 44 44 44 45 45 45 46 46 45 46 46 46 46 47
46 46 47 47 48 47 47 47 47 47 47 47 46 47 47 47
47 46 47 47 47 46 47 47 46 45 46 46 46 46 46 46
45 45 44 44 45 44 44 43 43 43 43 42 43 42 42 42
41 41 41 41 40 40 40 39 40 39 39 39 38 39 39 38
38 38 38 38 38 37 38 37 37 37 37 37 37 37 38 38
39 39 39 39 40 40 41 41 41 41 42 42 42 43 43 43
38 39 39 39 39 40 40 40 41 41 42 42 42 43 42 43
43 43 44 44 44 45 45 45 45 45 46 46 46 46 46 46
46 46 46 47 46 47 47 47 47 47 47 47 47 47 47 47
46 46 47 46 47 47 46 46 46 47 46 46 47 45 46 45
45 45 44 45 44 44 43 43 43 43 43 43 43 42 42 42
42 41 41 40 41 40 40 40 40 40 39 39 39 39 39 39
38 38 38 37 37 37 37 38 38 37 37 38 38 38 38 38
39 39 39 40 40 39 40 41 41 41 42 42 43 43 43 43
39 39 39 39 40 40 40 41 41 41 42 43 42 43 43 43
44 44 44 44 45 45 45 45 45 46 46 46 45 46 47 46
47 47 47 47 46 47 47 47 47 47 47 47 48 47 48 47
47 47 47 47 47 46 47 47 47 46 46 46 46 46 46 45
45 46 45 45 44 45 45 44 44 43 43 43 43 42 42 42
42 41 41 41 41 41 40 40 40 40 40 40 40 39 39 39
38 38 38 37 38 38 38 37 38 38 37 37 38 38 38 38
39 39 39 40 40 40 40 40 41 41 41 42 42 43 43 43
39 39 39 40 40 40 41 41 41 42 43 42 42 43 43 43
44 43 44 44 45 44 45 45 45 45 45 46 46 46 46 47
47 46 46 47 47 47 47 47 47 47 47 47 47 48 47 47
47 47 47 47 47 47 47 47 47 46 46 47 46 46 45 45
45 45 45 44 44 44 44 43 44 43 44 43 43 43 43 42
42 41 42 41 41 41 41 40 40 40 40 40 40 40 39 39
39 38 39 38 38 37 38 38 38 38 38 38 38 39 38 39
40 39 40 40 40 40 40 41 41 41 42 41 42 42 43 43
38 39 39 39 40 40 41 41 42 42 42 43 43 43 43 43
43 44 44 44 45 45 46 46 46 45 46 46 46 46 46 46
47 47 47 46 47 47 47 48 47 47 47 47 47 47 47 47
47 47 48 47 48 47 47 47 47 46 47 46 46 46 46 45
45 45 45 45 45 45 44 44 44 43 43 43 43 42 42 42
42 41 41 41 41 41 41 41 41 40 40 40 41 40 40 40
39 39 38 38 38 38 38 38 38 38 38 38 38 38 39 39
39 39 39 40 40 40 40 41 41 41 41 42 42 42 42 42
39 39 39 40 39 40 41 41 42 42 42 42 43 43 43 43
43 43 44 44 44 45 44 45 45 45 46 46 46 46 46 47
47 46 47 46 46 47 47 47 47 47 48 47 47 47 47 47
47 47 48 47 47 47 47 46 46 46 46 46 46 45 46 45
45 45 45 45 45 44 44 43 44 43 43 43 43 42 42 42
42 42 42 42 41 41 40 40 41 40 40 40 40 40 40 39
39 39 39 39 38 38 38 38 38 38 38 37 38 38 38 39
39 39 40 40 40 40 40 40 41 41 41 41 42 42 42 42
39 39 40 39 40 40 41 41 42 42 42 42 43 43 43 43
43 44 44 45 45 45 45 44 46 45 46 46 46 46 46 46
46 46 47 46 47 47 47 47 47 48 47 47 47 47 47 47
48 48 47 47 48 46 47 46 47 46 47 46 46 46 46 45
45 45 45 45 44 44 44 44 44 44 44 43 44 43 43 42
42 42 41 41 41 41 41 41 41 40 40 40 40 41 40 39
39 39 39 39 39 38 38 38 39 38 38 39 39 39 39 39
39 40 39 39 40 40 40 40 41 41 42 42 42 42 42 42
39 39 39 40 40 40 41 41 41 41 42 42 42 43 43 43
43 44 44 45 44 45 45 45 45 45 46 46 46 46 46 46
46 46 46 46 46 46 47 47 47 47 47 47 47 47 47 47
48 47 47 47 47 47 47 47 47 46 46 46 45 46 46 44
45 44 44 44 44 42 42 38 34 36 41 41 45 42 42 42
42 42 42 42 41 42 42 41 41 40 40 39 38 39 39 39
39 39 38 39 39 39 39 38 38 38 38 38 39 38 39 39
39 39 39 40 40 40 40 40 41 41 41 40 42 41 42 42
39 39 40 40 41 40 41 41 41 42 42 42 43 43 43 43
43 44 44 44 44 45 45 45 45 45 45 46 46 46 46 46
46 46 46 46 47 46 46 47 47 47 47 47 47 47 47 46
47 47 47 47 46 46 46 46 47 46 46 46 47 46 46 45
45 44 44 44 38 34 33 27 24 24 27 35 39 36 37 36
40 39 41 41 42 40 39 40 39 39 38 38 38 39 40 39
39 40 39 39 39 38 38 38 38 38 39 38 39 38 39 39
39 38 39 39 39 39 40 40 41 41 41 41 41 42 42 42
39 39 40 40 40 41 41 41 41 41 41 42 42 42 43 43
44 43 44 44 44 44 45 44 45 44 45 45 46 45 45 46
46 46 46 46 46 46 46 46 47 46 47 47 46 46 46 47
46 47 47 46 47 46 46 46 46 47 46 45 43 40 41 41
43 40 36 35 29 20 19 22 25 22 21 21 26 34 30 32
34 32 29 37 38 40 38 35 38 33 31 34 37 39 36 36
38 36 39 38 39 38 38 38 38 39 39 39 38 38 38 39
38 39 39 39 39 39 40 40 40 40 41 41 41 41 41 41
40 40 40 40 41 40 41 41 42 41 42 43 43 43 43 43
44 44 44 44 44 45 45 45 45 45 45 46 46 46 46 46
46 46 46 46 47 46 47 46 47 47 47 47 47 47 47 47
46 46 46 46 46 46 46 46 47 47 43 34 34 36 35 32
30 31 28 25 20 21 21 13 15 16 14 19 17 24 28 24
30 28 27 34 37 36 31 23 30 25 31 30 29 31 36 38
37 36 38 39 38 38 39 39 39 39 39 39 39 39 39 39
39 39 40 39 40 40 40 40 40 41 41 41 41 41 42 41
40 40 41 41 41 41 41 41 42 41 42 42 43 42 43 43
44 43 44 44 44 45 45 45 45 45 46 45 46 45 45 46
46 46 46 46 46 46 45 46 47 46 47 47 46 46 47 47
46 46 47 47 46 46 46 46 47 44 35 34 37 35 34 33
32 25 21 18 15 10 13 13 16 13 18 15 15 18 22 20
23 22 22 24 34 24 20 17 21 31 30 29 33 37 38 37
33 36 34 34 37 38 39 39 39 39 39 39 39 38 39 38
39 39 38 39 39 39 39 40 40 40 41 41 41 41 41 42
40 40 41 41 41 41 41 41 42 42 42 43 42 42 44 43
44 43 43 44 44 44 45 45 45 45 45 45 46 46 46 45
46 46 47 46 46 46 46 46 47 46 46 46 46 46 46 46
46 46 46 46 47 46 46 46 44 37 36 37 38 31 29 26
24 17 17 19 16 14 13 14 13 11 8 11 14 10 8 14
22 19 10 11 17 11 12 12 24 26 21 28 28 29 33 36
36 32 30 33 40 38 39 39 39 39 39 38 39 38 39 39
39 39 39 39 39 39 39 40 40 40 40 40 41 41 41 41
40 40 40 41 41 41 42 42 42 42 43 43 43 43 43 44
44 43 44 44 45 45 45 45 45 45 45 45 46 46 46 46
46 46 45 46 46 46 47 47 46 46 46 46 46 46 46 46
47 46 46 46 46 46 45 45 39 33 31 32 29 27 23 16
17 20 17 16 19 21 22 24 17 15 15 14 12 11 6 17
24 7 7 8 6 11 9 3 15 16 23 25 25 24 27 33
32 23 29 36 40 39 39 39 39 39 39 39 39 39 39 39
39 40 39 40 40 39 40 40 40 40 41 41 41 41 40 41
41 41 41 41 41 41 41 42 42 42 43 43 43 43 44 44
44 44 44 44 45 44 44 45 45 44 45 45 46 46 46 46
46 46 46 46 46 46 47 46 46 46 46 46 47 46 46 46
46 46 47 46 46 45 45 38 35 32 30 24 21 22 16 18
22 13 13 14 18 22 23 18 14 13 14 11 9 4 3 14
7 9 7 5 2 9 6 16 13 13 15 18 19 18 20 26
19 23 33 39 39 39 39 39 39 39 38 39 39 39 39 39
39 39 39 39 40 40 40 40 40 40 40 40 40 40 41 40
39 40 41 42 42 42 43 42 42 43 43 42 43 43 43 44
44 44 44 44 44 44 45 45 45 45 45 45 46 46 46 45
46 45 46 46 45 45 46 46 46 46 46 46 46 46 46 46
46 46 46 45 44 39 33 31 29 24 22 22 21 16 15 17
12 14 14 17 24 16 14 12 16 15 18 20 20 20 14 13
7 6 2 6 6 4 3 5 3 5 9 10 11 15 11 10
16 32 37 39 39 39 39 39 39 38 38 38 39 39 38 39
39 39 39 39 39 39 39 39 39 39 40 40 40 40 40 40
26 28 30 32 33 35 37 39 40 42 43 43 44 44 44 44
45 44 44 45 45 44 45 45 45 45 45 45 46 46 46 46
46 46 46 46 46 46 47 46 46 46 47 46 45 45 46 46
46 45 46 45 34 26 32 25 19 16 15 14 11 9 11 8
11 11 13 19 17 16 16 14 12 15 13 11 20 21 12 9
10 5 8 1 3 1 2 1 4 8 9 9 9 5 6 11
20 24 31 34 39 39 39 39 39 39 38 39 39 39 39 39
39 39 40 39 39 39 40 40 40 39 40 40 40 40 40 40
23 22 23 23 24 24 25 25 26 27 28 29 31 34 36 38
40 41 43 43 45 45 45 46 46 45 45 45 46 46 46 46
46 46 46 46 46 46 46 46 47 46 46 46 46 46 47 46
46 45 45 38 27 31 27 22 13 9 8 8 6 6 4 7
6 9 12 13 15 11 12 18 16 11 11 17 14 10 10 7
5 11 6 3 1 2 1 4 9 8 8 3 5 7 6 8
14 17 21 37 39 39 39 39 39 39 39 39 39 39 39 42
52 50 47 44 42 40 41 39 40 39 40 39 40 40 41 41
20 20 20 21 22 21 22 22 22 23 23 22 22 24 24 24
24 24 25 26 28 30 32 34 37 39 41 43 44 46 46 46
46 47 46 47 46 46 46 47 46 46 47 46 46 46 46 46
46 43 39 30 28 26 19 13 7 7 6 4 4 5 4 8
9 8 11 12 12 15 15 13 9 8 6 5 15 17 19 18
16 7 8 6 5 1 3 6 6 8 12 1 4 5 4 10
14 19 26 30 37 39 39 39 39 39 39 39 39 39 39 40
58 59 58 58 55 52 53 52 49 46 42 40 40 40 43 49
16 16 16 17 18 19 19 19 19 20 20 19 19 21 21 21
21 21 21 21 20 20 20 20 21 21 22 23 24 26 28 30
33 36 38 41 43 44 45 46 46 47 47 47 46 46 46 46
45 42 39 31 23 15 14 12 6 4 4 3 1 2 2 9
7 9 13 14 17 23 23 15 12 7 3 8 12 9 4 3
0 2 15 8 2 3 6 2 6 6 9 5 0 1 2 5
7 13 22 32 35 40 40 39 39 39 39 40 39 39 39 37
52 50 22 26 30 31 38 51 57 61 61 43 39 40 39 43
23 20 17 18 18 17 17 17 16 16 17 17 18 19 20 20
20 19 21 19 19 19 19 20 19 19 20 19 19 19 19 18
18 19 19 20 21 23 25 28 31 33 36 39 43 46 45 45
42 43 31 18 12 9 10 5 2 5 2 1 4 1 3 7
4 10 10 15 20 25 19 14 7 2 5 11 14 5 3 1
5 1 8 15 1 3 4 5 6 6 4 9 0 0 2 3
3 10 12 26 33 37 39 39 39 39 40 39 39 39 39 36
48 46 4 0 0 3 11 9 13 32 61 46 40 40 34 35
33 29 32 33 30 30 31 29 28 26 22 23 22 20 19 17
16 16 16 17 17 16 18 17 16 16 16 17 19 19 19 18
17 17 18 17 17 17 17 14 12 13 14 17 32 46 46 44
41 31 17 10 8 9 3 0 4 2 1 2 1 3 2 6
5 7 15 18 18 21 18 11 6 11 17 17 9 11 10 6
8 12 12 5 3 4 8 5 11 4 6 11 4 0 1 2
6 8 9 12 24 34 37 39 39 39 40 39 39 39 39 35
48 50 7 0 0 2 5 4 0 13 61 51 39 40 33 29
34 27 31 34 30 35 35 33 35 30 28 32 35 35 34 33
32 30 28 26 25 24 22 20 17 16 17 16 17 17 18 16
14 14 16 16 16 16 17 14 12 11 10 12 30 46 46 44
29 15 9 5 6 2 0 2 3 4 5 0 2 4 3 5
2 8 14 14 10 14 18 10 13 18 23 12 18 18 9 13
21 11 11 3 4 6 10 5 14 6 6 5 9 1 5 3
1 5 11 19 14 25 34 38 38 40 39 40 40 39 39 36
48 55 12 0 0 0 1 1 0 6 57 55 39 40 33 23
34 27 32 32 29 33 35 32 34 28 31 31 36 37 37 37
37 37 33 32 35 35 33 32 32 33 31 30 29 26 24 23
20 18 18 16 16 15 15 15 14 14 15 16 30 46 46 36
12 8 7 4 3 2 4 1 4 5 1 2 4 4 6 1
6 13 12 8 15 21 14 11 12 20 13 22 28 15 10 14
15 13 10 5 5 12 12 4 7 4 5 7 12 3 5 5
6 11 8 16 12 17 29 35 37 40 40 39 39 39 39 35
47 59 17 0 0 1 3 2 0 2 51 58 39 39 32 23
34 32 32 32 31 32 35 32 33 30 35 31 37 37 37 37
38 38 33 33 37 35 31 36 38 37 31 36 33 33 33 35
37 36 34 32 31 29 27 25 22 18 17 17 31 45 43 18
4 6 5 4 5 6 1 4 4 4 1 2 5 8 7 0
7 15 8 10 18 15 11 14 17 15 15 25 13 3 12 14
17 15 8 11 7 14 17 7 8 4 4 3 13 10 6 5
9 6 10 14 12 15 22 34 39 40 40 38 39 39 39 35
42 59 25 0 0 0 1 1 0 0 42 59 39 39 33 22
35 35 35 35 35 35 36 36 36 35 36 34 36 37 37 37
38 37 36 35 33 37 34 39 39 33 32 37 35 35 39 37
37 37 36 33 38 39 39 38 36 23 17 19 32 46 33 3
6 5 3 2 4 4 1 6 6 4 6 3 7 12 7 0
11 13 10 8 11 10 13 15 12 19 24 10 4 7 11 20
20 6 8 5 16 19 13 11 13 14 12 6 11 22 9 12
11 6 14 15 19 15 22 32 42 39 39 39 39 39 39 34
37 59 34 0 0 0 2 2 0 0 35 60 41 38 32 23
34 35 35 35 36 36 36 35 36 36 36 37 37 36 37 37
37 37 33 33 34 37 36 38 37 33 34 36 36 37 40 36
36 35 37 35 37 40 40 39 38 25 16 18 30 36 9 5
6 7 1 1 7 1 3 10 5 5 3 4 13 15 2 1
10 13 9 9 14 12 17 15 20 17 6 6 7 13 12 12
5 3 8 14 25 20 16 11 10 9 16 14 16 25 15 12
10 15 12 22 28 22 30 36 40 39 40 40 39 39 39 34
34 60 43 1 15 13 5 2 0 0 28 61 44 37 32 22
34 33 33 34 34 34 34 34 35 35 35 37 37 37 37 37
38 37 37 37 38 38 38 39 37 37 38 37 39 39 40 37
34 38 38 35 33 38 40 39 38 27 19 19 26 13 3 5
9 7 0 3 7 1 9 13 6 12 1 8 13 13 3 5
11 16 8 6 7 9 14 19 10 10 6 13 7 23 8 4
9 9 10 12 17 20 26 17 9 5 10 13 10 23 38 21
11 12 12 19 29 30 33 35 39 39 39 39 40 39 40 33
30 54 48 9 30 29 16 7 12 9 36 58 44 36 32 22
35 35 35 35 35 35 36 36 36 36 36 36 36 37 37 38
37 36 34 35 36 36 37 38 38 39 39 39 40 40 40 39
39 39 39 37 37 39 40 39 38 25 19 17 11 6 5 4
11 7 0 4 6 4 12 11 11 15 0 10 16 11 8 6
18 19 11 7 10 15 23 22 10 13 14 14 11 23 5 2
6 12 14 10 17 16 26 21 12 10 16 25 15 38 38 14
10 15 14 12 29 34 31 33 36 26 28 30 33 36 36 32
28 45 46 29 34 33 30 25 26 25 36 53 44 36 32 21
35 35 35 35 35 35 36 36 36 36 37 37 37 37 38 37
38 38 37 37 37 37 37 37 36 36 37 37 37 38 39 39
40 40 40 40 40 40 40 39 38 24 17 11 9 3 5 5
18 14 7 5 11 8 23 13 20 15 6 13 26 10 10 7
22 17 11 6 10 14 25 18 19 21 21 13 18 15 4 3
11 21 13 10 21 17 26 27 17 20 25 47 27 76 54 19
17 18 25 25 32 38 26 34 31 18 20 20 22 22 23 24
23 32 34 35 36 37 39 39 40 38 34 41 37 34 32 22
35 35 35 35 36 35 36 36 36 37 37 37 38 37 37 38
38 38 38 38 38 38 38 39 39 39 39 39 39 38 38 38
38 39 38 38 38 40 40 40 38 26 15 8 6 4 7 11
29 31 13 15 17 20 22 24 24 12 12 19 33 17 9 8
20 14 7 6 4 4 7 10 15 19 20 16 16 5 6 7
17 21 10 10 20 27 19 33 36 37 35 42 34 90 67 53
17 23 33 34 33 40 24 43 33 20 21 22 22 22 22 22
23 22 22 22 21 19 19 18 20 21 24 26 29 34 31 23
35 35 36 36 36 37 36 36 36 36 37 37 37 37 37 37
37 38 39 38 39 39 39 39 39 39 39 40 40 40 40 40
40 40 39 39 39 40 40 39 39 26 11 11 6 4 10 19
26 29 21 25 22 27 25 28 17 10 17 18 35 21 2 14
21 23 15 10 11 6 5 10 20 20 18 16 7 6 15 10
21 25 15 10 20 22 26 38 44 36 63 69 57 103 84 91
22 30 38 38 33 31 28 39 31 23 21 20 16 19 20 20
21 22 23 24 24 24 24 28 23 17 18 18 21 24 24 18
35 35 36 36 36 36 36 36 36 36 37 37 37 38 38 38
38 38 39 39 39 39 39 39 39 40 40 40 41 40 40 40
41 40 41 40 41 41 41 40 39 26 5 10 4 10 17 11
18 9 14 34 25 26 19 18 12 19 16 23 36 22 4 30
26 10 1 7 11 9 6 8 14 18 15 11 11 13 14 25
28 31 12 11 24 28 31 41 41 51 94 95 114 120 96 101
38 33 44 34 28 35 22 30 33 25 22 21 15 27 27 23
22 26 32 33 32 33 38 44 36 22 23 22 22 22 22 17
35 35 35 36 36 36 36 36 36 37 37 36 37 37 37 37
37 38 38 38 39 39 39 39 40 39 40 40 41 40 41 40
41 41 41 40 41 40 40 40 39 18 4 6 7 14 24 5
6 3 17 35 17 13 16 11 13 27 17 20 23 11 11 24
13 1 7 14 7 2 6 7 12 13 12 15 17 19 31 38
31 16 11 9 18 28 38 61 57 95 118 112 121 126 102 99
45 37 46 33 24 35 29 33 38 25 23 22 15 30 34 39
45 45 45 39 38 41 46 49 44 29 32 27 24 23 22 16
31 33 30 34 34 33 36 36 36 36 37 36 36 37 38 38
39 38 39 39 39 39 40 40 40 40 40 40 41 40 41 41
41 41 41 41 41 41 41 41 36 12 8 10 10 17 26 1
5 1 14 13 12 12 17 6 12 22 21 19 17 8 12 15
10 2 9 3 3 6 6 10 10 18 25 31 35 40 45 38
23 18 10 13 17 36 47 83 94 121 123 121 131 127 114 97
55 32 34 38 25 42 45 47 40 26 23 22 13 27 30 39
54 52 51 45 42 49 50 48 47 30 33 38 42 39 36 30
32 27 28 35 31 32 37 35 35 31 36 34 33 34 36 38
38 39 39 39 39 39 40 40 40 40 41 40 41 41 41 41
41 41 41 41 42 41 41 41 27 9 7 19 12 30 11 4
2 4 19 10 9 19 21 6 17 19 21 13 6 11 13 14
8 10 9 5 3 5 10 12 18 32 45 60 62 52 44 31
18 11 9 13 21 40 74 99 108 125 121 129 132 131 119 96
65 26 33 35 31 42 51 52 42 26 22 22 13 25 24 30
52 53 50 47 38 31 21 15 42 26 23 33 25 13 15 17
34 30 29 34 33 33 36 33 35 32 33 34 34 33 35 38
39 39 39 39 39 40 40 41 41 40 40 40 41 41 41 41
42 41 42 42 42 42 42 41 23 5 10 25 24 28 4 3
4 14 26 9 9 17 18 9 10 11 9 7 7 7 11 9
13 13 10 4 5 7 12 16 18 34 55 67 69 60 41 23
13 11 14 21 33 50 89 98 116 126 120 132 133 133 126 102
75 25 32 31 36 48 53 52 43 26 21 21 13 19 8 10
34 24 16 11 7 3 3 5 36 34 22 31 17 0 0 1
36 36 36 36 37 36 36 37 36 37 34 37 36 37 38 39
39 39 39 39 40 40 40 40 40 40 41 41 41 41 41 41
42 41 41 41 42 42 42 40 23 3 16 37 20 10 0 8
4 19 20 4 9 12 9 9 10 8 9 11 7 5 10 19
15 9 3 3 6 11 17 22 33 47 60 74 77 68 51 33
24 22 24 30 41 82 100 112 120 120 128 134 133 136 129 104
80 27 35 32 44 52 53 53 42 27 21 20 13 17 6 3
21 11 5 5 5 8 7 6 25 42 22 29 17 0 0 11
36 36 36 37 37 37 37 37 37 37 38 38 38 38 39 39
38 39 39 40 40 40 40 40 40 40 40 40 41 41 41 41
41 42 42 42 42 42 42 39 21 5 16 26 12 2 1 16
8 19 11 2 8 12 20 17 9 13 15 12 12 11 17 6
12 9 6 6 6 12 18 27 45 54 75 91 102 97 77 55
49 45 50 69 99 114 118 123 126 129 130 133 138 142 131 112
92 28 38 42 50 51 51 53 42 27 20 20 13 16 5 3
14 16 5 6 7 16 18 7 10 45 22 26 20 0 2 7
36 36 36 37 36 37 37 37 37 38 37 37 38 38 39 39
39 39 39 39 40 40 40 40 40 41 40 41 41 41 41 41
42 41 41 40 41 41 41 38 24 5 13 27 17 3 6 20
14 14 7 3 15 20 22 14 15 19 20 17 13 11 10 10
18 6 4 6 8 11 21 31 53 76 91 105 119 119 118 113
106 107 113 117 117 119 124 124 126 126 131 131 136 136 136 128
121 42 42 48 52 50 51 52 43 26 19 19 16 12 3 1
7 24 8 3 7 9 10 6 2 43 23 20 19 0 1 7
36 36 36 36 36 37 37 38 37 37 37 37 38 38 38 38
39 39 39 39 39 39 40 40 40 40 40 41 41 40 41 41
41 41 41 41 41 41 42 39 21 2 6 20 16 3 16 21
12 14 2 5 24 26 17 13 18 23 18 7 5 10 16 15
11 3 6 7 11 18 20 38 65 86 107 118 120 122 117 113
123 120 120 122 122 121 122 123 124 130 131 132 131 131 127 131
126 68 48 49 51 50 51 51 44 27 21 19 25 30 21 3
2 29 16 3 2 0 2 1 0 36 24 20 24 0 1 7
36 36 37 36 36 36 37 37 37 37 37 37 38 38 38 39
39 39 39 39 40 40 40 40 40 40 40 40 40 41 41 40
41 41 41 41 41 41 41 39 26 1 4 12 12 4 23 16
10 5 3 11 15 11 13 9 11 13 6 4 12 12 2 8
7 8 8 9 15 16 28 46 72 94 114 124 124 124 122 120
123 123 122 121 118 119 122 129 124 130 132 129 129 125 124 130
128 85 50 49 50 49 50 51 45 27 21 19 12 8 8 1
0 23 20 7 0 0 0 0 0 29 36 35 30 0 1 7
36 36 37 36 36 37 37 37 38 37 38 38 38 38 38 39
39 38 39 39 39 39 40 40 40 40 40 41 41 41 41 41
41 41 41 41 41 41 41 40 33 6 6 9 7 6 21 12
10 3 15 9 5 10 6 1 5 23 36 27 19 9 9 6
5 9 6 7 13 22 37 58 88 105 121 127 125 125 125 124
124 121 118 115 110 108 110 108 99 110 122 122 124 124 123 125
127 91 50 53 53 53 52 52 45 28 22 21 9 0 0 1
1 16 23 9 0 0 0 0 0 17 47 43 35 0 0 0
36 36 36 37 37 37 37 37 37 37 37 38 38 37 38 37
39 39 39 38 39 39 40 40 40 40 40 40 40 40 41 40
41 41 41 41 41 42 40 41 31 11 3 12 13 6 14 12
6 5 8 4 3 4 8 19 92 126 123 107 57 22 13 7
7 4 5 10 20 25 51 73 97 115 125 125 124 124 122 122
119 113 108 101 95 94 86 97 96 84 100 123 122 121 125 124
121 92 48 50 49 51 53 53 46 29 23 22 12 3 5 10
11 9 27 9 0 0 0 0 0 5 47 47 37 0 0 0
36 36 36 37 37 37 37 37 38 37 38 38 38 38 38 38
38 39 39 39 39 39 40 39 40 40 40 41 41 41 40 41
41 41 41 41 41 41 41 41 32 13 6 14 19 15 14 12
11 16 6 4 10 10 19 96 111 57 78 95 99 70 52 33
15 14 14 21 24 36 55 80 109 125 125 126 123 122 122 121
117 104 101 89 81 82 86 86 86 81 77 95 110 124 128 126
125 101 51 51 50 50 51 53 47 30 22 21 14 6 11 16
7 4 25 2 0 0 0 0 0 1 42 48 41 1 0 0
35 35 35 36 36 34 36 37 37 36 37 38 38 38 38 38
39 39 39 39 39 39 39 40 40 40 41 41 41 41 41 40
41 41 41 41 42 42 42 41 36 16 6 10 20 11 11 16
16 15 9 10 12 15 48 111 45 98 128 88 101 98 57 35
42 30 25 24 34 46 73 101 114 126 128 125 125 122 120 114
112 112 103 100 106 110 108 99 84 61 40 36 52 104 121 125
113 102 50 52 52 52 53 54 50 31 22 20 14 4 9 15
11 2 19 4 0 1 3 11 23 36 51 49 44 5 0 0
33 35 32 32 33 33 36 37 34 34 32 35 35 34 33 35
36 39 39 36 36 36 37 36 37 38 40 41 39 38 40 40
41 41 40 41 41 42 42 41 37 20 7 13 17 7 6 10
17 15 11 18 12 9 90 84 74 148 120 86 118 107 68 47
46 38 37 36 52 68 79 101 117 128 128 128 124 120 120 117
115 115 120 110 113 103 87 82 72 64 43 28 34 59 95 91
117 94 49 52 53 54 55 56 51 32 22 20 12 0 2 5
7 0 12 27 25 30 35 42 52 54 54 48 41 38 32 21
36 35 35 35 36 36 37 38 36 36 36 37 37 37 37 37
36 39 39 37 38 38 38 37 37 37 40 40 38 37 39 38
40 41 41 41 41 42 42 40 35 21 10 14 12 8 6 19
16 5 16 14 7 19 120 75 112 146 114 104 129 123 88 64
50 54 48 48 62 82 92 104 118 123 126 127 125 119 119 119
120 119 115 104 79 44 31 26 20 17 19 26 29 45 61 100
131 103 50 51 52 54 55 57 53 33 24 23 13 0 2 2
5 8 3 43 46 43 44 49 53 55 54 47 33 40 39 43
37 36 37 37 37 37 37 37 37 37 37 38 38 38 39 39
40 39 40 40 40 40 40 40 40 40 40 41 41 41 41 41
41 41 41 41 42 42 42 41 37 16 11 14 14 9 4 7
11 9 14 8 22 34 128 67 129 143 131 128 119 104 103 78
73 70 85 53 71 90 93 115 121 121 125 124 122 120 117 115
118 119 104 90 75 96 94 79 68 39 27 21 23 44 71 92
122 107 49 51 53 56 57 57 56 36 26 31 25 11 8 13
25 19 10 38 56 53 51 49 45 36 23 25 7 13 19 28
33 34 35 34 34 35 37 37 37 37 37 37 38 38 39 39
39 39 39 39 40 39 39 40 39 40 40 40 41 41 41 41
42 41 41 41 41 41 41 41 38 19 10 13 14 5 3 3
11 16 9 13 23 42 128 69 130 140 143 137 46 103 105 103
93 81 92 70 80 94 107 115 123 125 125 122 121 120 118 118
121 122 123 121 111 107 109 109 110 90 87 73 41 66 92 107
120 119 55 53 54 56 59 59 56 36 33 40 34 21 26 28
36 33 33 35 40 38 35 30 25 19 14 22 0 0 0 5
33 32 33 33 33 34 33 34 36 37 37 37 38 38 38 38
39 39 39 39 39 40 40 40 40 40 40 41 41 41 41 41
41 41 41 41 41 42 42 42 39 20 10 13 12 5 4 6
3 14 7 9 19 39 117 71 126 138 143 62 66 125 114 125
118 107 100 79 95 107 111 123 124 125 123 118 119 118 119 120
120 121 119 116 120 115 114 109 104 95 92 103 74 62 89 105
121 128 66 53 53 54 56 60 57 37 35 38 40 28 33 29
31 30 29 23 20 26 32 33 32 33 32 31 0 0 0 0
36 36 36 36 35 35 35 34 36 37 38 38 38 38 39 39
39 39 39 39 39 39 39 40 40 40 40 40 41 41 42 41
41 41 42 42 42 42 41 41 38 22 10 14 6 1 2 1
1 4 9 14 18 48 103 76 124 141 116 88 111 82 122 135
128 125 112 84 110 113 113 123 126 126 123 120 122 121 119 119
118 119 121 123 120 117 107 103 97 100 109 102 100 111 130 130
135 134 104 53 53 55 58 60 56 33 28 36 42 32 29 25
21 21 15 2 5 4 5 5 6 23 43 38 3 1 0 0
36 37 37 36 36 37 37 37 37 38 38 37 38 38 38 39
39 39 40 39 40 39 40 40 41 40 41 41 41 41 41 41
41 42 41 41 41 41 41 41 38 27 14 15 6 1 1 2
1 8 13 18 26 54 112 97 123 146 109 140 100 46 119 136
128 132 123 107 125 124 121 121 127 125 126 124 122 124 121 119
118 120 123 125 125 124 115 108 110 113 117 118 119 126 136 135
132 127 125 79 51 53 58 59 51 12 7 12 17 17 17 34
30 30 21 0 0 0 2 14 1 17 46 41 23 28 12 0
36 36 36 37 36 37 37 37 37 37 37 37 38 38 39 38
39 38 39 39 39 40 40 39 40 40 40 40 42 41 41 41
41 41 42 42 41 41 41 41 37 25 15 12 6 0 0 0
0 6 12 20 29 57 122 109 118 140 107 147 142 69 86 149
133 135 132 122 124 125 123 125 125 123 123 123 122 121 119 119
120 123 124 126 129 125 122 117 114 120 119 122 120 120 132 131
132 126 121 111 56 52 56 57 37 1 0 0 2 0 4 39
15 17 24 0 0 0 3 24 5 15 47 45 26 21 14 3
36 36 36 36 37 37 37 37 37 37 38 38 38 38 39 38
39 38 39 39 39 39 39 40 41 40 40 41 41 41 41 41
42 41 41 41 42 42 41 41 38 25 15 10 6 0 0 0
1 8 9 13 25 68 128 120 119 140 110 141 138 106 104 149
132 131 127 123 127 130 128 126 124 125 125 125 124 121 120 119
121 123 125 128 131 130 128 124 122 120 123 122 115 100 120 126
131 126 113 115 78 50 52 53 20 0 0 0 0 0 4 39
14 13 21 0 0 0 2 19 8 14 48 43 8 3 6 9
35 35 36 36 36 36 37 37 37 37 38 38 38 38 38 38
39 39 39 39 39 39 40 40 40 40 40 41 41 41 41 41
41 41 41 42 42 42 42 41 38 23 16 11 6 1 0 0
2 13 15 13 26 71 129 127 123 128 119 135 142 127 108 148
129 132 132 130 130 132 129 127 126 123 126 126 122 121 121 121
121 123 124 124 129 129 130 128 125 123 122 119 99 84 104 117
120 123 119 115 98 48 49 47 10 0 0 0 0 0 1 36
15 8 18 0 0 0 1 15 19 15 48 42 3 10 2 3
36 36 36 36 36 37 37 37 36 37 37 37 38 38 38 38
38 39 39 39 39 40 40 39 40 40 40 41 41 41 41 41
42 41 41 41 42 42 41 41 38 23 18 12 13 2 0 3
8 3 15 16 27 68 124 127 122 113 115 137 143 142 95 144
126 133 134 129 128 130 128 127 124 124 124 124 124 122 122 120
121 120 123 122 124 128 135 136 130 125 121 115 82 78 96 111
115 118 118 119 112 55 49 40 6 0 0 0 0 0 0 33
23 20 27 0 2 1 4 10 23 16 46 42 3 2 0 0
36 36 36 36 37 37 37 37 37 37 37 37 38 37 38 38
38 38 39 38 39 39 39 40 40 40 40 40 41 40 40 41
41 41 41 41 41 41 41 41 37 23 21 14 13 4 0 0
5 0 10 15 24 69 120 125 120 116 120 131 136 142 110 137
122 130 131 126 128 129 125 127 124 123 123 121 122 119 121 120
120 121 118 121 121 128 135 140 133 126 119 102 51 65 97 109
110 116 121 134 120 66 45 34 3 0 0 0 0 0 0 33
34 35 31 0 0 2 5 2 6 10 46 42 3 0 0 0
36 36 36 36 36 37 37 37 37 37 37 37 37 38 38 38
39 39 39 39 39 39 39 39 40 40 40 40 41 41 41 41
42 41 41 41 42 42 41 41 38 22 23 17 9 8 0 0
6 3 6 17 23 65 112 123 125 116 126 124 128 132 133 127
113 129 128 125 124 126 124 123 123 123 122 119 119 119 119 121
120 119 119 120 120 122 130 135 134 124 122 98 34 50 89 107
106 105 107 122 130 79 46 33 2 1 0 0 0 0 0 30
43 41 33 0 0 5 19 0 0 8 48 46 27 22 17 12
36 36 36 36 37 37 37 37 38 37 37 37 38 38 38 38
38 39 39 39 39 39 40 40 40 40 41 40 41 41 41 41
41 41 41 41 41 41 41 41 38 22 21 18 11 6 3 0
5 7 6 16 22 64 114 120 121 116 127 132 135 138 129 108
115 126 124 120 121 123 124 123 123 121 121 117 118 119 120 121
118 119 118 116 117 122 127 132 130 123 126 103 33 37 44 56
58 78 99 105 110 68 43 34 13 1 0 0 0 0 0 25
47 48 37 3 0 7 23 0 0 7 50 40 44 49 45 39
36 36 36 36 36 36 37 36 36 37 37 37 38 39 38 38
38 39 39 39 39 39 40 40 40 40 40 40 41 41 42 41
41 41 41 41 42 42 41 41 37 22 22 17 8 6 5 1
10 6 7 19 23 60 113 119 118 115 123 136 134 138 140 109
117 125 120 120 122 123 124 123 122 117 118 117 119 119 117 119
118 117 116 115 116 122 123 130 130 126 133 121 69 57 38 12
4 18 80 96 94 47 40 42 32 5 0 0 0 0 0 21
46 46 46 34 4 9 20 1 0 6 38 33 45 52 49 46
37 37 37 37 37 37 38 38 37 37 38 38 39 39 39 38
39 39 40 39 39 40 40 40 41 41 41 42 42 42 42 41
41 41 42 42 42 42 42 42 37 24 24 17 7 5 3 0
6 4 5 16 22 49 109 118 114 113 115 128 131 137 143 98
98 122 119 120 123 123 123 123 119 121 120 120 121 119 118 119
116 118 117 117 119 122 122 128 131 122 125 120 111 92 87 72
35 39 83 75 59 44 44 42 29 15 0 3 5 2 0 21
49 45 31 34 19 16 21 7 2 5 23 35 44 45 47 43
36 37 37 37 37 38 38 38 38 38 38 38 38 38 39 39
39 39 39 39 40 41 40 41 41 41 41 40 41 41 41 41
42 41 42 42 42 42 42 42 38 26 21 15 4 4 2 0
2 2 5 13 25 37 95 114 110 109 108 112 120 127 129 62
86 117 116 116 118 121 122 125 120 118 117 121 119 121 118 119
120 118 117 119 120 121 125 131 129 123 120 112 110 101 79 81
42 40 47 50 47 46 48 48 36 20 5 21 21 8 4 33
44 12 0 18 45 39 40 41 37 12 9 16 18 21 21 26
37 38 38 38 38 38 38 38 38 38 39 39 40 39 39 39
40 40 40 40 41 40 41 41 41 42 42 42 42 42 42 42
42 43 43 43 43 43 43 42 39 28 23 13 2 1 0 0
0 1 1 11 20 32 68 107 106 106 105 103 94 98 79 27
86 111 111 113 114 117 122 121 116 116 116 117 117 117 118 118
118 118 118 121 121 123 126 131 127 121 109 106 107 112 99 81
82 80 48 46 45 44 45 54 56 51 46 48 47 44 43 39
20 5 4 7 43 19 16 21 21 3 0 0 0 0 0 5
37 37 37 38 38 38 38 38 38 39 39 39 40 39 40 40
40 40 40 40 41 40 41 41 41 41 41 41 42 42 42 42
42 42 42 42 43 43 43 43 39 27 21 10 0 0 0 0
0 0 0 4 21 52 74 107 106 106 106 107 106 110 76 49
100 109 110 110 110 111 112 117 116 115 114 114 114 118 118 117
117 118 119 119 122 124 124 128 122 118 110 115 122 120 109 90
97 84 50 47 45 44 44 54 61 59 57 58 58 52 33 11
3 25 25 6 33 16 0 0 5 0 0 0 0 0 0 2
37 37 37 37 37 37 38 38 38 38 38 39 39 39 39 40
40 40 40 40 40 41 41 40 41 41 41 41 42 41 41 42
42 42 43 42 42 43 43 42 38 27 22 17 9 4 0 0
0 0 0 0 7 33 96 105 106 106 106 106 105 109 107 90
104 105 105 106 107 109 114 113 118 116 114 111 115 115 116 117
117 117 119 118 122 123 119 122 120 109 111 124 134 126 116 107
104 74 52 48 45 44 45 52 62 60 61 59 48 40 23 0
0 24 24 14 25 31 5 1 9 0 0 1 0 0 0 2
37 36 37 37 37 38 38 38 37 38 38 38 39 39 39 39
39 39 39 39 40 40 40 40 40 40 41 41 41 42 42 42
42 41 41 42 43 42 42 41 38 27 23 23 29 6 0 0
0 0 0 0 4 29 89 104 102 104 106 105 105 105 105 104
104 105 101 102 107 110 112 113 114 117 116 111 115 113 115 117
116 118 118 118 121 121 124 121 112 95 109 106 73 67 83 96
105 93 51 49 45 44 44 45 46 51 59 50 35 32 34 3
0 8 27 27 31 42 12 0 9 0 1 1 0 0 0 0
37 36 37 38 37 37 38 38 38 38 38 38 39 38 38 39
39 39 39 39 40 40 40 40 41 41 41 41 41 40 42 41
41 41 41 42 42 42 42 41 38 26 24 24 29 4 0 0
0 0 0 0 9 34 88 103 102 102 102 103 104 100 100 100
100 100 101 99 103 109 111 114 114 115 112 113 113 113 115 115
115 115 118 118 121 120 124 119 92 71 75 59 26 20 23 45
68 84 52 49 47 43 42 39 36 39 55 47 23 23 37 13
0 12 26 24 29 44 16 0 13 5 8 8 0 0 0 0
37 38 37 36 37 37 37 38 38 38 38 38 39 39 39 39
39 39 39 39 39 40 40 40 40 40 40 41 41 41 41 41
41 42 41 42 42 42 42 42 37 25 23 23 30 5 0 0
0 0 0 0 10 42 96 104 103 102 103 104 101 99 97 99
98 97 98 101 100 106 111 114 114 115 115 113 113 113 114 114
112 113 116 119 119 119 120 110 75 91 115 124 111 97 17 22
33 59 53 49 47 44 44 41 36 31 49 44 12 19 32 23
8 16 17 12 19 36 27 0 16 8 15 12 0 4 0 0
38 37 37 36 37 37 37 37 38 37 37 38 38 38 38 38
38 39 39 39 39 39 40 40 40 40 41 40 41 40 40 41
40 40 41 40 41 41 42 41 37 25 22 22 24 4 0 0
0 0 0 0 13 48 99 105 104 104 104 102 103 101 97 97
97 97 99 102 103 107 107 110 110 111 112 112 116 115 114 114
115 115 116 117 118 120 120 111 85 114 100 122 123 126 58 31
54 53 51 48 47 45 47 45 40 29 44 47 24 26 26 29
32 26 12 9 12 30 37 3 19 8 14 15 0 0 0 0
38 38 37 37 37 37 37 37 37 37 37 37 38 37 38 38
38 38 39 39 39 39 39 39 40 40 40 40 41 40 40 41
41 40 40 40 41 41 41 41 37 25 23 22 30 11 0 1
0 0 0 2 15 50 103 106 105 105 106 109 107 100 97 97
98 97 101 102 104 103 106 109 108 112 107 109 114 112 113 115
114 114 114 116 118 120 122 121 102 120 99 138 138 145 76 60
77 52 51 49 48 45 46 45 41 30 34 51 33 26 29 30
28 26 24 23 30 29 41 13 21 7 12 16 0 2 1 0
38 37 37 37 37 37 37 37 37 38 38 38 37 37 38 37
38 38 39 39 39 39 39 39 39 40 40 40 39 40 40 40
40 40 40 40 41 41 41 41 37 23 22 21 35 15 6 4
0 1 2 21 30 76 110 109 107 108 109 109 107 103 97 97
97 98 103 101 100 99 102 106 104 107 106 107 113 111 115 116
113 113 115 115 117 117 119 122 108 102 99 132 142 146 104 105
67 49 50 51 49 45 45 45 42 32 26 49 43 38 34 38
18 24 39 46 47 43 46 26 22 8 11 14 0 0 0 0
38 38 37 37 37 37 37 37 37 37 36 37 37 37 38 38
38 38 39 38 39 39 39 39 39 39 39 40 39 40 40 40
40 40 40 40 41 41 41 40 37 23 22 21 36 32 21 7
0 1 5 54 69 99 111 111 110 110 107 110 109 103 100 99
100 97 101 99 99 96 96 99 101 103 106 110 110 110 112 115
115 114 116 116 116 115 118 123 109 107 107 107 118 127 99 103
56 48 48 48 46 45 45 44 43 35 22 42 44 38 33 29
4 36 44 47 48 46 42 22 26 14 15 16 17 20 24 29
38 38 37 36 37 36 36 36 37 37 37 37 38 38 38 38
38 38 39 38 38 38 38 39 39 39 39 39 40 40 40 40
40 40 40 40 40 41 40 39 36 23 22 21 38 41 37 16
3 0 5 64 98 108 113 112 110 108 110 111 109 106 103 100
100 99 99 97 97 96 94 96 98 100 101 103 105 107 112 111
112 112 114 115 115 112 118 124 115 106 111 114 104 56 50 71
54 47 46 47 48 48 49 46 44 36 23 32 46 37 30 33
23 46 49 49 45 35 14 0 32 52 52 53 55 57 58 59
38 38 37 37 37 37 38 36 37 37 38 37 38 37 38 38
38 38 38 38 38 39 39 39 39 39 40 39 40 39 39 40
40 40 40 40 41 41 41 41 36 23 21 20 38 45 43 30
9 3 8 75 106 113 113 111 110 110 111 110 110 108 104 102
101 103 103 94 92 91 91 92 91 95 98 101 102 107 104 107
110 111 112 114 115 113 118 122 117 105 96 101 115 91 56 72
70 45 45 44 45 47 46 45 43 37 24 22 46 39 38 41
43 49 48 45 34 16 8 7 33 58 58 59 60 61 61 60
39 38 37 37 37 36 37 37 37 37 37 37 38 37 38 38
38 38 39 38 38 39 38 38 38 39 39 39 39 40 40 40
40 40 40 40 40 40 40 40 37 24 19 20 37 45 45 43
37 22 24 88 108 113 113 109 110 110 110 109 111 108 104 103
105 106 105 100 92 86 86 88 88 86 87 92 97 100 105 107
107 109 110 114 114 113 114 119 117 105 94 81 90 110 90 85
79 43 43 46 46 46 47 46 46 38 25 17 40 41 39 44
47 47 44 36 35 39 37 34 41 55 53 50 47 42 38 22
39 38 37 37 36 36 36 36 36 37 37 37 37 37 37 37
37 37 38 38 38 38 38 38 38 39 39 39 40 40 39 39
40 40 40 40 40 40 40 40 36 24 19 20 37 45 45 44
44 42 41 95 108 113 115 108 107 110 112 110 109 108 104 104
104 107 107 102 97 89 86 83 84 81 83 87 92 97 100 100
102 104 109 113 117 113 107 111 116 113 99 78 61 72 86 92
77 41 42 44 42 43 44 45 48 39 25 15 29 46 44 44
40 36 34 32 33 34 33 31 32 32 31 30 28 27 26 19
40 39 37 37 37 37 36 36 36 36 37 37 37 37 38 37
38 38 37 38 38 39 39 38 38 38 39 39 39 39 39 40
39 39 41 43 40 40 41 40 36 24 20 19 37 45 44 45
44 44 46 102 109 114 116 112 108 110 111 109 110 107 106 107
107 106 104 104 100 95 89 85 84 78 77 78 85 92 98 97
101 100 107 114 116 114 106 108 115 116 113 91 54 37 51 70
59 45 45 44 43 46 47 47 48 40 25 15 21 44 34 31
31 30 30 31 31 31 31 31 31 30 30 29 28 28 27 26
41 39 37 37 37 37 36 36 37 36 37 37 37 37 37 37
37 37 37 37 38 38 38 38 38 39 38 39 39 39 39 39
38 30 34 40 41 40 40 40 36 24 19 19 37 45 45 44
45 45 54 104 111 112 113 112 108 110 110 111 112 109 107 104
107 105 103 103 103 98 94 90 82 77 78 79 82 86 90 95
98 102 110 112 116 116 111 110 117 119 116 116 101 68 62 52
55 51 50 50 50 50 51 50 51 41 24 15 16 36 30 30
30 31 31 29 27 25 26 25 25 25 24 24 24 24 24 24
43 40 38 38 37 36 37 36 37 36 37 36 37 36 37 37
37 37 37 38 38 38 38 37 38 39 39 38 38 39 38 39
38 33 42 48 49 48 48 48 46 39 37 37 45 49 49 49
48 48 65 107 112 114 114 112 109 110 110 111 111 110 104 101
103 100 103 103 103 98 94 92 86 83 79 77 77 80 87 92
94 99 104 107 115 121 118 114 121 123 123 120 112 102 96 50
50 49 48 47 46 44 48 51 51 43 24 15 13 17 27 30
29 30 31 17 2 1 2 2 2 2 2 2 1 2 2 3
45 41 39 37 37 37 37 37 36 36 36 36 37 36 37 37
38 37 37 38 38 38 38 37 37 38 38 39 39 38 38 30
28 27 44 53 53 52 52 52 52 52 51 51 52 52 51 52
52 53 79 109 113 115 114 112 108 110 110 111 112 109 103 99
101 101 104 101 101 97 96 94 88 81 77 76 78 80 82 83
86 95 101 107 114 120 123 122 122 127 128 124 116 108 98 51
49 48 47 46 44 41 44 49 50 42 23 14 13 6 25 32
29 29 31 14 0 0 0 0 0 0 0 0 0 0 0 0
45 41 39 37 37 37 37 37 36 36 36 37 37 37 37 37
37 37 36 37 37 36 35 34 36 38 38 38 39 38 37 24
22 23 43 53 53 53 52 53 52 52 53 52 52 52 52 52
52 41 89 109 114 114 114 111 109 110 111 111 113 110 103 97
96 100 102 99 98 98 97 91 85 77 74 78 78 78 79 79
80 85 94 100 110 112 121 124 123 125 129 127 119 109 99 37
34 33 32 31 33 39 40 46 49 42 23 15 15 6 23 29
23 28 30 15 0 0 0 0 0 0 0 0 0 0 0 0
46 41 39 37 36 36 36 35 36 36 36 36 36 36 37 37
36 36 37 37 36 36 33 33 35 37 38 38 38 38 35 24
21 23 43 54 52 49 50 49 49 49 49 49 49 49 49 49
29 11 99 111 115 115 114 111 111 110 112 111 111 107 102 96
93 97 100 101 98 97 92 88 79 74 74 80 82 81 83 81
77 80 84 92 96 104 114 120 121 121 123 123 117 110 97 13
5 5 5 5 25 42 39 44 47 40 22 16 20 19 24 21
16 28 30 16 0 0 0 0 0 0 0 0 0 0 0 0
46 40 38 36 35 34 34 34 34 34 34 35 36 37 37 37
37 37 37 36 35 33 32 33 35 36 36 36 37 37 33 22
21 22 41 53 41 21 21 22 22 22 22 22 21 22 22 26
5 30 106 110 115 115 114 114 111 110 111 113 114 112 107 102
99 96 98 100 100 95 85 81 75 74 78 84 84 84 83 82
77 76 74 76 80 86 99 110 113 108 115 115 110 109 93 8
1 1 0 0 18 42 38 37 36 28 18 17 22 22 24 19
19 28 31 18 0 0 0 0 0 0 0 0 0 0 0 0
47 42 38 36 36 35 34 34 34 33 33 35 36 37 37 37
37 37 37 37 33 30 30 30 31 32 32 32 33 33 29 20
20 22 42 54 40 19 20 21 22 22 22 21 21 21 24 26
3 71 108 111 114 114 113 114 112 111 113 111 111 115 113 109
106 103 102 101 101 95 91 82 78 77 80 83 83 84 82 77
72 66 66 63 61 66 76 92 102 95 98 102 106 107 86 6
5 4 4 2 11 42 36 24 17 14 12 12 19 20 24 19
22 28 30 19 0 0 0 0 0 0 0 0 0 0 0 0
49 42 40 37 36 35 34 33 33 33 34 36 38 39 38 38
38 37 38 37 32 29 29 29 30 30 30 30 31 31 26 21
20 22 41 54 42 21 27 52 58 58 57 54 40 30 19 28
24 102 110 110 113 114 114 113 112 111 111 112 115 119 117 113
111 108 106 106 103 99 95 87 83 83 84 83 83 82 74 66
63 58 52 50 48 47 50 63 75 77 75 88 96 101 58 4
5 4 4 3 5 39 37 20 11 12 10 11 17 20 24 22
25 28 31 21 0 0 0 0 0 0 0 0 0 0 0 0
50 44 42 38 36 36 34 33 33 33 34 35 39 39 38 37
38 38 38 37 32 29 30 29 30 30 30 31 30 30 24 20
20 21 40 54 43 22 34 80 90 90 89 71 27 13 24 26
40 108 111 110 110 114 113 112 112 111 111 114 116 118 117 118
117 115 114 112 109 106 100 93 90 87 88 88 85 75 63 55
48 42 38 34 32 27 27 35 37 41 45 58 73 75 16 6
6 5 4 3 2 34 37 24 12 11 11 10 15 20 24 23
25 28 30 22 0 0 0 0 0 0 0 0 0 0 0 0
50 46 42 39 37 36 35 34 33 33 34 35 39 38 38 38
38 38 38 37 33 29 29 29 30 29 30 30 31 30 23 20
20 21 38 53 44 23 33 82 90 56 36 28 16 12 30 25
33 107 113 113 113 114 113 112 111 109 112 114 115 118 122 121
119 117 119 117 115 115 110 102 96 89 88 85 69 55 50 40
33 27 22 20 16 16 15 17 16 16 17 25 37 18 8 8
7 6 5 5 1 28 38 27 12 11 11 10 15 19 24 24
25 27 30 23 0 0 0 0 0 0 0 0 0 0 0 0
50 45 41 37 35 35 35 33 33 33 34 35 38 39 38 37
38 38 38 37 33 29 29 29 29 30 30 30 31 29 21 20
20 21 37 53 44 23 32 80 64 30 24 23 11 15 27 23
22 81 115 113 112 112 112 112 112 112 112 114 117 119 123 120
119 118 118 120 119 119 118 112 107 100 89 66 53 42 30 21
20 19 21 23 21 20 19 25 28 24 25 30 19 15 14 13
13 12 11 8 1 20 39 29 12 11 10 10 13 18 23 24
26 27 30 24 0 0 0 0 0 0 0 0 0 0 0 0
51 46 41 38 36 35 34 34 33 33 34 34 38 39 38 37
37 38 38 37 33 29 28 28 29 29 29 29 29 27 20 19
20 21 36 53 45 25 33 52 30 27 26 23 11 16 23 21
19 36 108 115 113 112 111 111 111 111 110 114 114 120 121 120
119 118 118 118 121 121 121 122 119 112 91 62 37 20 17 19
68 56 25 28 24 21 18 25 32 26 21 23 30 30 35 41
47 46 44 27 2 13 39 31 13 10 10 10 12 19 23 23
25 26 29 24 0 0 0 0 0 0 0 0 0 0 0 0
51 45 40 37 35 35 35 33 33 33 34 35 37 38 37 37
37 37 37 36 32 28 28 28 28 29 29 29 29 26 19 19
20 21 35 49 40 29 26 25 22 24 26 26 16 13 19 20
19 19 57 113 113 112 110 109 108 109 110 113 117 120 121 119
117 116 119 116 117 119 121 124 122 119 106 73 34 17 16 23
92 58 26 27 21 19 17 22 29 26 19 18 24 24 25 28
35 43 48 35 4 8 38 33 15 10 11 11 13 20 23 23
24 25 30 26 1 0 0 0 0 0 0 0 0 0 0 0
51 44 40 38 36 35 35 34 34 33 33 34 36 37 37 37
37 37 37 36 32 28 28 28 28 29 29 29 29 24 18 21
21 24 34 31 23 18 21 25 24 21 21 27 20 12 16 17
18 17 21 70 112 111 111 110 110 109 110 113 115 119 119 119
117 116 114 113 114 116 117 120 120 118 113 96 61 20 14 49
102 46 28 27 21 19 18 22 27 27 22 18 17 21 20 23
24 25 29 29 25 20 37 34 19 12 12 12 12 19 23 22
24 25 29 26 1 0 0 0 0 0 0 0 0 0 0 0
49 44 40 37 36 35 36 34 34 33 34 34 36 38 38 38
38 37 38 37 32 28 28 27 28 29 29 28 28 26 26 28
28 28 20 20 20 19 21 24 23 18 18 22 24 15 13 17
18 17 17 23 75 112 112 111 109 108 111 112 115 117 119 119
117 115 114 111 112 114 114 115 116 115 116 110 76 21 37 88
99 27 28 25 20 18 20 23 26 27 26 23 20 21 19 22
24 23 24 25 24 26 33 34 26 14 11 10 11 18 22 23
24 25 30 27 2 0 0 0 0 0 0 0 0 0 0 0
48 43 39 37 37 35 35 35 34 34 33 34 35 37 37 38
38 37 38 36 31 28 27 27 28 28 29 28 30 33 30 24
22 20 13 11 17 17 20 21 22 19 18 17 22 19 11 13
17 16 16 17 23 78 111 112 109 108 109 112 115 118 118 116
117 115 112 110 109 110 110 110 110 110 113 112 78 63 88 108
71 22 26 22 18 19 22 21 24 27 29 27 24 22 21 23
22 24 28 29 25 23 24 27 26 24 19 10 10 16 22 22
22 24 29 27 2 0 0 0 0 0 0 0 0 0 0 0
47 41 38 40 39 36 35 34 33 33 33 33 35 37 37 38
38 38 38 37 32 27 27 28 28 27 29 30 27 20 24 23
20 20 19 11 8 17 18 19 20 20 18 15 20 21 14 12
15 17 16 16 17 24 78 110 109 108 108 113 116 119 119 116
116 115 112 112 108 108 109 108 106 105 109 108 100 99 110 101
31 22 25 21 19 24 22 18 25 30 31 29 27 22 21 20
19 23 29 26 25 22 21 23 24 26 27 25 10 12 20 22
23 23 28 27 3 0 0 0 0 0 0 0 0 0 0 0
45 40 30 38 44 36 34 33 33 32 33 34 35 37 37 37
38 38 38 37 31 27 27 27 29 31 30 30 29 26 23 20
21 21 21 18 14 8 16 18 18 18 18 17 17 19 18 13
15 17 16 15 16 18 24 69 108 109 109 112 112 117 119 117
116 114 112 110 110 107 106 104 102 102 104 110 114 115 113 56
20 23 21 19 20 23 18 18 25 26 29 28 27 23 19 19
19 22 24 25 24 20 19 21 22 24 25 30 32 19 19 22
22 23 28 27 4 0 0 0 0 0 0 0 0 0 0 0
42 38 28 37 43 35 34 33 33 32 32 34 35 36 37 37
37 37 37 37 32 27 29 32 32 30 30 29 27 26 27 23
20 21 20 20 18 15 10 15 17 18 18 17 15 17 18 16
13 16 15 16 16 18 20 23 64 104 107 110 108 116 117 117
117 113 112 109 106 106 101 96 89 90 101 115 115 104 50 20
21 21 18 20 24 20 18 18 23 26 28 27 28 23 19 14
15 18 20 24 21 19 19 20 22 22 23 23 27 38 33 23
21 22 27 26 4 0 0 0 0 0 0 0 0 0 0 0
41 33 27 42 46 36 34 33 33 33 33 33 35 37 37 38
37 37 38 37 33 31 33 31 30 29 27 28 28 28 28 29
24 19 20 20 20 20 17 13 13 18 18 17 15 16 16 17
16 14 17 16 17 17 16 17 24 59 102 109 112 114 117 118
119 115 114 112 107 104 99 90 85 91 108 110 81 34 20 20
21 19 18 22 23 19 16 18 20 23 27 27 27 23 19 15
15 14 15 20 21 20 22 21 23 24 23 25 25 27 35 38
29 23 27 27 6 0 0 0 0 0 0 0 0 0 0 0
38 27 19 30 43 35 34 33 33 33 33 33 34 36 37 37
37 37 37 37 38 34 30 28 27 27 28 27 28 29 29 31
28 24 21 19 21 22 21 18 14 13 17 17 16 15 16 16
16 15 15 17 15 14 16 18 18 19 46 99 111 112 113 117
116 114 111 109 106 102 96 88 89 96 73 39 22 17 19 20
18 19 19 21 20 17 14 15 18 21 24 27 26 21 18 16
13 13 15 19 23 23 26 26 27 26 26 24 28 26 32 32
39 32 26 27 19 18 17 19 19 20 20 20 20 20 20 19
37 25 16 25 40 35 33 32 32 32 32 32 34 36 37 36
36 36 37 34 31 33 28 25 24 23 24 24 26 28 27 29
29 27 23 22 22 21 23 23 19 15 12 14 15 15 16 15
16 17 16 15 17 16 17 16 16 16 16 27 64 93 110 112
114 112 109 106 102 96 87 72 53 30 20 17 15 15 18 19
18 18 21 21 18 15 15 15 16 17 24 26 24 22 20 22
19 14 17 23 26 26 26 25 27 26 26 25 26 27 30 31
33 36 32 27 27 27 26 25 25 24 24 23 23 22 21 20
35 22 17 26 32 33 33 33 32 32 32 32 34 36 36 36
37 37 33 28 25 28 27 23 22 23 24 23 25 27 27 27
29 28 25 25 25 23 22 24 25 20 15 12 13 14 16 17
16 17 17 17 15 15 15 15 15 15 15 14 14 18 29 46
56 56 55 51 47 35 25 21 18 16 17 16 16 17 18 18
19 21 25 20 18 16 14 14 15 18 23 25 23 23 22 26
23 21 21 23 26 25 26 27 25 26 26 26 24 26 30 30
29 30 33 31 24 25 25 25 25 24 24 23 23 23 21 21
34 20 8 12 23 32 33 33 32 32 32 32 33 35 36 36
36 32 26 24 22 22 23 23 22 23 24 24 28 27 27 27
28 28 28 28 27 25 21 24 25 25 21 15 14 12 13 14
15 15 16 17 16 15 15 15 15 15 15 15 14 12 15 15
16 14 14 15 13 13 15 15 17 13 15 15 17 17 18 18
20 24 21 17 18 15 13 14 14 16 23 24 24 23 25 27
25 24 24 26 27 27 26 26 24 23 24 25 23 25 27 27
29 27 26 34 27 22 21 20 20 18 18 17 17 15 14 13
34 18 2 9 25 32 32 33 32 32 32 32 33 35 36 36
32 28 21 19 22 19 20 22 20 23 24 25 26 26 27 27
29 28 28 28 27 27 24 22 24 24 23 22 18 14 14 14
14 15 16 15 16 16 16 15 14 15 14 14 13 14 17 17
17 15 14 13 14 13 13 13 13 12 13 16 16 16 16 18
23 22 19 17 18 15 13 16 15 20 26 28 26 28 30 31
27 25 26 24 26 26 23 25 24 24 23 22 23 23 26 25
27 23 23 28 30 20 19 19 19 18 17 17 18 17 17 17
33 18 3 9 29 32 32 32 31 31 31 32 33 34 36 34
28 22 16 16 22 17 16 20 20 22 24 25 25 27 27 28
27 27 28 27 28 27 26 20 22 23 26 25 23 20 17 15
13 15 16 15 16 15 14 15 14 14 15 13 13 14 15 16
17 14 15 15 15 15 16 17 16 17 16 16 16 16 19 22
22 19 17 16 16 15 17 20 22 27 29 31 29 31 30 31
25 23 23 24 25 25 22 22 22 23 23 22 21 21 23 22
24 21 21 26 29 28 21 20 20 18 17 15 14 13 11 10
35 21 8 11 31 32 32 32 32 32 32 32 33 35 35 32
27 21 16 16 23 18 13 21 22 22 26 25 27 28 30 28
28 27 27 25 26 27 27 24 23 21 25 26 25 23 20 16
15 16 17 16 15 14 14 13 14 13 15 17 18 15 16 18
18 18 18 18 20 19 20 21 21 20 18 16 17 19 21 24
20 18 15 17 19 20 25 26 26 28 30 30 29 29 30 29
26 22 24 23 24 25 25 22 22 24 23 23 20 21 24 21
22 21 21 26 26 29 6 3 4 1 0 0 0 0 0 0
38 22 16 27 38 33 34 33 33 32 33 34 34 36 31 26
23 20 15 15 21 21 12 19 24 25 25 26 27 28 31 29
28 27 27 27 26 27 27 26 24 23 25 25 26 26 22 22
20 17 16 15 15 14 13 14 13 12 12 13 17 20 20 20
19 19 20 22 22 20 19 17 15 14 15 18 18 19 23 21
17 17 17 21 22 24 27 28 28 28 28 29 30 29 27 26
25 22 23 23 23 25 25 23 23 22 23 22 18 23 24 19
21 23 22 25 26 28 18 0 0 0 0 0 0 0 0 0
36 22 19 35 41 33 34 33 33 33 33 33 35 31 28 23
23 21 14 15 19 23 15 18 25 24 25 24 26 28 28 27
26 26 27 28 26 27 27 27 25 22 24 24 24 23 23 25
24 23 19 17 17 14 13 16 14 13 12 11 11 10 14 16
15 17 15 14 12 11 12 14 14 14 16 17 18 21 21 17
16 18 23 26 26 27 28 28 29 29 31 30 30 28 27 26
24 22 24 23 22 24 23 23 23 24 23 18 18 23 23 17
21 23 21 24 26 27 25 13 14 17 18 19 18 17 14 10
