P2
128 120
147
36 36 36 37 37 37 38 39 39 39 39 40 40 40 41 41
42 42 42 42 42 43 43 43 43 43 44 44 44 45 45 45
45 45 45 46 46 46 46 46 46 46 46 46 47 46 46 46
46 45 45 45 45 46 46 45 44 45 44 44 43 44 44 43
43 42 42 42 41 41 41 40 39 39 39 38 38 37 37 36
36 36 35 34 34 34 34 33 33 33 33 32 33 32 32 32
32 32 32 32 32 32 32 33 33 33 34 33 34 34 34 35
35 35 37 37 37 37 38 38 39 39 40 40 41 41 42 42
35 36 36 36 37 37 38 38 38 39 40 39 40 41 42 41
42 41 42 42 42 43 43 43 43 44 44 44 43 44 45 44
45 44 45 45 45 44 45 45 46 46 46 46 46 46 45 45
45 45 46 45 45 44 46 45 45 45 44 44 44 44 44 43
43 42 42 42 41 42 41 40 40 39 39 38 38 37 37 37
36 36 35 35 34 35 34 34 34 33 33 33 33 33 32 32
32 32 32 32 32 32 32 32 33 33 33 34 34 34 35 35
35 36 36 36 37 38 38 38 39 39 40 40 41 41 42 42
35 36 36 36 36 37 37 37 38 39 39 40 40 41 41 41
41 42 42 42 42 43 43 43 43 43 44 44 44 44 44 44
44 44 44 44 45 45 45 45 45 45 45 46 45 45 45 45
44 44 44 45 45 45 44 44 44 44 44 44 44 44 43 43
42 42 42 42 41 40 40 40 40 39 40 38 38 38 38 37
37 36 35 35 35 35 34 34 34 33 33 33 33 33 33 32
33 32 33 32 33 32 32 33 33 33 33 34 34 34 35 35
36 35 36 37 37 38 38 38 39 40 39 41 41 41 41 42
35 36 36 36 37 37 38 38 38 39 39 40 40 40 41 41
41 42 42 42 42 43 43 42 43 43 43 44 44 43 44 44
44 44 44 44 45 45 45 45 45 45 45 45 45 45 45 45
45 45 45 45 45 45 44 44 45 44 43 43 44 43 43 43
43 42 43 42 41 41 41 40 39 39 40 39 38 38 37 37
37 36 36 35 34 35 34 34 35 34 34 34 34 33 33 33
33 33 33 33 32 33 33 33 33 33 33 33 34 34 35 34
35 35 36 37 37 37 38 38 39 40 41 40 41 41 42 42
35 35 36 36 37 38 37 38 38 39 39 39 40 40 41 41
42 41 42 42 42 43 43 43 43 43 43 43 44 44 44 44
44 44 44 44 45 45 45 45 45 45 45 46 45 45 45 45
44 45 45 45 44 45 45 45 45 44 43 43 44 43 43 43
43 42 42 42 41 41 41 40 40 40 39 39 39 39 38 37
37 36 36 35 35 35 34 34 34 34 34 33 33 33 33 33
33 33 33 33 33 33 33 32 33 34 33 34 35 34 35 34
35 35 36 37 37 37 38 38 39 39 40 40 41 41 42 42
34 35 35 35 35 36 37 38 38 38 38 39 39 40 41 41
41 42 42 42 42 42 42 43 43 43 43 43 44 43 44 43
43 44 44 44 44 44 44 44 44 44 44 44 44 44 44 44
45 45 44 44 44 44 44 44 44 44 43 43 43 43 43 42
43 42 42 41 42 41 40 40 40 39 39 39 39 38 37 37
37 36 36 36 35 35 35 34 34 34 34 33 33 33 32 33
33 32 32 33 33 33 33 33 33 33 34 34 34 34 34 34
35 36 36 36 37 37 38 38 39 39 40 40 40 40 41 41
35 35 36 36 36 36 37 38 38 38 39 38 39 40 41 41
41 41 41 41 42 42 43 43 43 43 43 43 43 43 44 44
44 44 44 44 44 44 44 44 44 44 44 44 44 44 44 44
44 45 45 44 44 44 44 44 44 44 44 44 44 43 43 43
43 42 42 42 42 41 40 40 40 40 40 39 39 38 38 37
37 36 36 36 35 35 35 34 35 34 34 34 33 33 34 33
33 33 33 33 33 33 33 33 33 33 33 34 34 34 35 34
35 35 36 36 36 37 37 38 39 39 39 40 40 41 41 42
35 35 36 36 37 37 37 38 38 38 39 39 39 39 40 40
41 41 41 42 42 42 42 42 43 43 44 43 43 44 43 43
44 44 44 44 44 44 44 44 44 44 44 44 44 44 44 44
44 44 44 44 44 44 44 44 44 44 43 43 43 43 43 42
42 42 42 42 42 41 40 40 40 40 39 39 39 38 38 38
37 36 37 36 35 35 35 35 34 34 34 34 34 34 34 33
33 32 32 33 33 33 33 33 33 33 34 33 34 34 34 35
35 35 36 36 36 37 38 37 38 39 39 40 40 40 41 41
35 35 36 36 37 37 37 38 38 38 39 39 40 40 40 40
40 40 41 42 42 42 42 42 43 42 43 43 44 43 44 44
44 44 44 44 44 44 43 44 44 44 44 44 44 44 44 44
44 44 44 44 44 44 44 44 44 44 44 43 43 43 43 43
43 42 42 42 42 41 41 40 40 40 40 39 39 39 39 38
38 37 37 37 36 36 35 35 36 34 35 34 34 34 34 33
33 33 34 33 33 33 33 33 33 33 34 33 34 34 34 35
35 35 36 36 36 36 37 37 38 38 39 39 40 40 40 41
35 36 36 36 36 37 37 37 38 38 39 39 39 39 40 40
40 40 41 41 42 42 42 42 43 43 43 43 43 43 43 43
44 43 44 44 43 43 44 43 44 44 44 44 44 44 44 44
44 44 44 44 44 45 44 44 43 44 44 44 43 43 43 43
43 42 42 42 41 41 41 40 40 40 39 40 39 38 38 38
38 37 37 36 36 36 36 36 36 35 35 35 35 34 34 33
33 33 33 33 33 33 33 33 34 33 33 34 34 35 35 35
35 36 36 36 37 37 37 37 38 39 39 40 40 41 40 41
35 35 36 36 36 37 37 38 38 38 39 39 39 39 39 40
40 40 40 41 42 41 42 43 43 43 43 43 43 43 44 43
44 44 44 43 44 44 44 44 44 44 43 43 44 44 44 44
44 44 44 44 44 44 44 44 44 44 44 43 44 43 43 43
43 43 42 42 41 41 41 41 41 40 40 39 39 39 38 38
38 37 37 36 36 36 36 35 36 35 35 35 34 34 34 34
34 34 34 34 34 33 34 34 33 33 33 34 35 35 35 35
35 35 36 36 37 36 37 38 38 38 39 39 39 40 40 40
35 36 36 36 36 37 37 37 38 38 39 39 39 39 39 40
40 40 40 41 41 41 42 42 42 42 43 43 43 43 43 43
44 44 44 44 45 44 45 44 45 44 44 44 45 44 44 44
44 44 44 43 44 44 44 44 43 44 44 44 43 43 43 43
43 42 42 41 42 41 40 41 40 40 40 40 40 39 39 39
38 38 38 37 37 36 36 36 36 35 35 35 35 35 34 34
34 34 34 34 34 34 34 34 34 34 34 35 35 35 35 35
35 36 36 36 37 37 37 37 37 38 39 39 39 40 40 40
36 36 36 36 36 37 37 38 38 38 39 38 39 39 40 40
40 41 41 41 42 42 42 42 42 42 43 42 43 43 43 43
44 44 44 44 45 44 44 44 45 44 45 44 44 44 44 44
44 44 44 44 44 44 44 44 44 43 44 44 43 43 43 43
43 42 42 42 42 41 41 41 41 40 40 40 40 40 39 39
38 38 38 37 37 36 37 36 36 36 36 35 35 35 34 34
34 34 35 34 34 34 34 34 34 35 35 34 35 34 35 35
36 36 36 37 37 37 37 37 38 39 39 39 39 40 39 40
35 36 36 36 37 37 37 37 38 38 39 39 39 39 40 40
41 40 41 41 41 41 42 42 42 42 43 43 43 43 43 43
43 43 43 44 44 44 44 44 44 44 45 44 44 44 44 44
44 44 44 44 44 44 44 44 44 44 43 44 43 43 43 43
43 42 42 41 41 41 41 40 40 40 40 40 39 39 39 39
38 38 38 37 37 37 36 36 36 35 35 35 35 35 35 34
34 34 35 34 34 34 34 34 34 34 34 34 35 34 35 35
35 36 36 36 36 37 37 38 38 38 38 39 39 39 40 40
36 36 37 37 37 37 37 37 37 38 38 39 38 39 39 40
40 40 41 41 41 41 42 42 42 42 42 43 42 43 43 43
43 43 44 44 43 44 44 44 44 44 44 44 44 44 44 44
44 44 44 44 44 44 44 44 43 43 43 43 43 43 42 43
42 42 42 42 42 41 41 41 40 40 40 40 40 39 39 38
38 38 37 37 37 37 37 36 36 35 35 35 35 35 35 35
34 34 35 34 34 34 34 34 34 34 34 34 34 35 35 35
35 35 36 36 36 37 36 37 38 38 38 38 39 39 40 40
36 36 36 36 37 37 37 37 38 38 39 39 40 39 40 40
41 41 41 41 41 41 41 42 42 42 43 43 43 43 43 43
44 43 44 43 44 44 44 44 44 43 44 44 44 44 44 45
44 44 44 44 43 44 44 44 43 43 43 43 43 43 43 42
42 43 42 42 41 42 41 40 40 40 41 40 40 39 39 39
39 38 38 37 37 37 36 36 36 36 36 35 36 35 35 35
35 35 34 34 34 34 34 34 34 34 34 34 35 35 35 35
36 36 36 36 37 36 37 37 38 37 38 38 38 39 39 39
35 36 36 36 37 36 37 37 37 38 38 39 39 39 39 40
40 40 41 41 41 41 41 41 42 42 42 42 43 43 42 43
43 43 43 43 44 43 43 44 44 44 44 44 44 44 45 44
44 44 44 44 44 44 44 43 43 43 43 43 43 43 42 42
42 42 42 42 42 41 41 40 41 40 40 40 40 39 40 38
38 38 38 37 37 36 37 36 36 36 36 36 35 35 35 35
34 34 35 34 34 34 34 34 34 34 34 34 34 34 34 35
35 35 36 37 36 36 37 37 37 38 38 38 38 39 39 39
35 35 36 36 37 36 37 38 38 38 38 39 39 39 38 39
40 40 40 40 41 41 41 41 42 42 42 42 43 43 43 43
43 43 44 43 42 43 44 43 44 44 44 44 44 44 44 44
44 44 44 44 44 44 44 44 43 43 43 43 43 43 42 42
42 42 42 41 41 41 41 40 41 40 40 40 40 39 39 39
39 38 38 38 37 37 37 36 37 36 36 36 36 35 35 35
35 34 35 34 34 34 34 34 34 34 34 34 35 34 35 35
35 35 36 36 36 36 37 37 37 38 38 38 38 39 38 38
35 35 36 36 37 37 37 37 38 38 39 38 39 39 39 39
40 40 41 41 41 41 41 41 41 42 42 42 42 43 43 42
42 43 43 43 43 43 43 44 44 44 44 43 44 44 44 44
44 44 44 43 44 44 43 43 43 43 43 43 42 42 42 42
42 42 41 40 42 41 40 40 41 41 40 40 40 39 39 39
39 38 37 38 37 37 36 37 36 36 36 37 36 36 36 35
35 35 35 34 35 34 35 34 34 34 34 34 35 35 35 35
36 35 36 36 36 36 36 37 37 37 37 38 38 38 38 38
35 35 36 36 36 36 38 37 38 38 38 38 39 39 39 39
40 39 41 40 41 41 41 41 41 42 42 42 42 43 43 43
43 43 43 43 43 43 43 43 43 44 44 43 43 44 44 44
44 45 44 44 44 44 43 44 43 43 43 43 43 43 43 42
40 41 39 34 40 41 40 40 41 40 40 39 40 39 39 39
38 38 38 37 37 37 37 37 36 36 36 36 36 36 35 35
35 34 34 34 35 35 34 34 35 34 34 34 35 34 35 35
35 35 36 36 36 36 36 36 37 37 37 37 38 38 38 38
36 35 36 36 37 37 38 37 38 38 38 38 39 38 39 39
40 40 40 40 40 41 41 41 41 42 42 42 43 42 43 43
43 42 43 43 43 43 43 43 43 43 44 43 44 44 44 44
44 44 44 43 44 44 43 43 43 42 43 42 43 43 43 41
38 39 39 35 40 41 41 40 39 40 41 39 40 39 39 39
38 38 38 37 37 37 37 37 36 36 36 36 36 35 36 35
35 35 34 35 34 35 35 34 34 34 34 35 35 34 35 35
35 35 35 36 36 36 36 36 37 37 37 37 38 38 37 38
36 35 36 36 37 38 38 38 38 38 39 38 38 39 39 39
39 40 40 40 40 41 41 41 41 42 42 41 42 42 42 42
43 43 43 42 43 43 43 43 44 44 43 43 44 43 43 44
43 43 44 44 44 43 44 43 43 42 43 43 42 42 41 39
38 36 34 39 40 40 40 40 39 39 40 40 39 39 39 39
39 38 38 38 37 37 37 37 37 36 36 36 35 36 36 35
35 35 35 34 35 35 34 34 34 34 34 34 35 35 35 35
35 35 36 36 36 36 36 36 37 37 37 36 37 38 38 38
36 36 36 36 37 37 37 37 38 38 38 39 39 39 39 40
40 40 41 41 41 41 41 41 41 41 41 41 42 42 42 43
43 42 43 43 43 43 43 43 43 43 43 43 43 44 44 44
44 43 43 44 44 44 43 43 43 43 42 42 43 42 41 38
31 27 28 33 35 38 39 40 39 39 39 39 39 40 39 39
39 38 38 38 38 38 38 37 36 36 36 36 36 36 36 35
35 35 35 35 35 35 35 35 34 35 35 35 35 35 35 35
35 35 35 36 36 36 36 36 36 36 37 37 37 38 38 38
36 36 36 36 37 37 38 38 38 38 38 38 39 39 39 39
40 40 40 41 41 41 41 41 42 42 42 42 42 42 42 43
43 43 43 43 43 42 43 43 43 43 44 43 43 43 43 43
43 43 44 43 43 43 43 43 43 43 43 43 43 40 34 26
26 23 22 26 30 35 39 39 36 39 37 39 39 40 40 39
39 38 38 38 38 37 37 37 37 37 36 36 36 36 36 36
35 35 35 35 35 35 34 35 35 34 35 34 35 34 34 35
35 36 36 36 36 35 36 36 36 37 37 37 37 37 37 37
36 37 37 37 37 38 37 38 38 38 38 38 39 39 39 39
40 40 40 40 41 41 41 41 41 41 41 41 42 42 42 43
42 43 42 43 43 43 42 43 43 43 43 43 43 43 43 43
43 43 43 43 43 43 43 43 43 43 43 43 40 37 26 25
19 13 14 17 24 26 29 31 34 36 36 39 39 40 40 40
39 39 39 38 38 38 37 37 37 37 37 36 36 36 36 35
36 36 35 35 35 35 35 35 35 35 35 35 34 34 35 35
35 35 35 35 36 35 36 36 36 36 37 37 36 37 37 37
37 37 37 37 37 38 38 38 38 39 39 38 40 40 40 40
41 40 40 41 41 41 42 41 41 41 42 42 42 42 43 42
43 42 43 43 43 43 42 43 43 43 43 43 43 43 44 43
43 44 44 43 43 43 43 43 43 42 41 42 37 20 20 17
13 9 5 7 11 14 18 23 34 31 32 36 35 36 39 40
39 40 39 38 38 38 38 37 37 37 36 36 36 36 36 36
36 35 35 35 35 35 35 35 36 35 35 35 35 35 35 35
34 35 35 36 36 36 36 36 36 36 37 37 36 37 37 37
36 36 37 38 38 37 38 38 38 38 39 39 40 40 40 40
40 40 40 41 41 41 41 41 42 41 41 42 42 42 42 42
42 42 42 43 43 43 43 43 43 43 43 43 43 43 43 43
43 43 43 43 43 43 43 43 42 41 36 29 23 24 22 15
9 3 0 1 7 7 12 18 28 28 28 30 26 27 34 37
39 39 38 38 38 38 37 37 37 37 37 36 36 36 36 36
36 35 35 35 35 35 35 35 35 35 35 35 35 35 35 35
35 35 35 35 36 36 36 36 36 36 36 36 37 36 37 37
38 37 38 37 37 38 38 38 38 39 39 39 39 39 39 40
40 40 41 41 41 41 41 42 42 41 42 42 42 43 43 42
43 43 43 42 42 42 43 43 43 43 43 43 43 43 43 43
43 43 43 43 43 43 43 42 38 27 24 26 20 16 9 8
6 2 4 4 6 9 13 15 23 21 22 20 13 20 28 32
36 38 39 38 38 38 37 37 37 37 37 37 37 36 36 36
36 36 36 36 36 35 35 35 35 35 35 35 35 35 35 35
35 35 35 35 35 36 36 35 35 36 36 36 36 37 37 36
36 37 38 38 38 39 39 39 39 39 40 40 40 40 40 40
40 41 41 41 41 41 42 42 42 41 42 42 43 43 43 43
43 43 43 43 42 43 43 43 43 43 43 43 43 43 43 43
43 43 43 43 43 42 37 31 23 19 26 18 14 11 12 11
7 11 15 19 13 11 18 21 17 16 12 10 18 24 34 31
37 39 38 39 38 38 38 37 38 36 37 37 37 36 36 36
36 36 36 36 36 36 36 35 35 36 36 35 35 35 35 35
35 35 35 36 36 35 36 36 36 36 37 36 36 37 37 36
24 25 27 29 31 33 34 36 37 38 40 40 40 41 41 41
41 41 42 41 42 42 41 42 42 42 42 42 42 43 42 42
42 43 43 42 43 43 43 43 43 43 43 42 43 43 43 43
43 43 44 44 41 35 23 22 18 19 15 13 12 7 3 0
4 6 9 5 4 13 20 18 19 12 10 16 24 27 31 31
29 38 39 39 38 38 38 37 38 38 37 37 37 36 37 36
36 36 36 36 35 36 36 35 35 35 36 36 35 35 35 35
35 35 36 35 36 35 36 36 36 35 36 37 36 36 36 36
20 20 21 20 21 22 22 22 23 24 25 26 28 30 32 35
36 38 38 40 41 41 41 42 42 42 42 43 43 43 43 43
43 43 43 43 42 42 42 42 43 42 43 42 42 43 43 43
43 42 43 43 39 30 24 25 24 14 15 10 3 0 0 3
8 3 3 6 8 4 13 7 12 15 12 21 24 28 30 30
29 37 37 38 38 38 37 38 37 37 37 36 37 36 36 37
37 36 36 35 36 35 35 35 35 35 35 35 35 35 36 37
47 44 42 40 37 36 36 35 35 35 36 36 36 36 37 37
19 18 18 19 20 20 20 20 20 20 20 19 20 21 22 22
22 22 23 24 26 27 29 32 33 35 38 39 41 42 43 43
43 43 43 43 43 43 43 43 43 43 43 43 43 42 43 43
42 42 42 35 33 23 18 19 16 13 13 9 2 1 0 1
11 7 1 0 2 3 6 7 4 8 10 16 26 24 27 32
25 35 38 38 37 38 38 37 38 37 37 37 37 37 37 37
36 37 36 36 36 35 36 35 35 35 36 35 35 35 36 35
53 55 53 53 51 48 48 48 45 41 38 36 36 36 38 45
13 13 14 15 15 17 18 17 17 19 18 17 18 18 19 18
19 19 19 19 18 17 17 18 18 18 20 20 22 24 27 28
31 34 36 38 40 41 42 43 43 43 44 43 43 42 43 43
43 42 36 31 30 28 21 13 8 7 7 2 3 11 29 46
46 60 66 55 34 14 2 1 1 8 12 18 24 23 28 27
25 29 38 37 36 37 38 37 37 37 37 37 37 37 36 36
37 36 36 36 36 36 36 36 35 35 35 36 36 35 35 33
48 45 19 23 27 28 33 45 52 55 56 38 35 36 35 39
20 17 16 15 16 15 14 14 14 14 15 15 15 17 17 18
18 18 18 17 17 18 17 18 17 17 17 17 17 17 17 16
16 17 17 18 20 21 23 25 28 31 34 36 39 43 43 43
41 38 33 31 21 21 16 14 18 9 4 12 35 65 80 88
82 79 95 90 88 75 50 21 1 4 11 22 24 27 25 28
31 28 35 37 36 38 37 37 37 37 37 37 37 37 36 37
36 36 36 35 35 36 35 35 35 35 35 35 35 35 35 32
43 42 3 0 0 2 8 7 11 28 55 42 36 36 30 31
29 25 29 29 26 28 27 26 25 23 19 20 19 17 16 15
14 13 13 14 14 15 15 15 14 14 15 15 16 17 17 15
15 16 16 15 15 15 14 11 10 10 12 14 29 43 43 43
42 37 21 16 14 7 7 11 8 8 25 48 85 90 92 96
90 90 99 96 96 94 90 71 52 10 9 26 21 16 22 26
27 25 38 36 38 37 37 37 37 37 37 36 37 36 36 35
36 36 36 35 35 35 36 35 35 35 35 35 35 35 34 31
43 45 5 0 0 0 3 1 0 10 54 45 35 35 29 24
30 23 28 30 26 31 32 29 31 27 25 29 32 32 30 30
29 27 25 23 22 21 19 17 15 14 14 14 15 15 15 13
13 12 14 14 15 14 15 13 10 9 8 10 26 42 43 42
41 28 19 13 8 6 12 8 13 41 69 88 95 89 90 93
91 96 99 93 93 94 94 93 79 68 17 9 17 9 8 15
21 29 35 34 37 38 37 37 37 37 37 37 36 36 36 36
36 36 35 35 36 36 35 35 35 35 34 35 34 34 34 31
42 49 10 0 0 0 0 0 0 4 51 49 34 35 28 19
29 23 28 28 25 29 31 29 31 24 28 27 33 33 33 33
33 33 30 28 32 32 29 29 29 30 28 27 25 23 21 20
18 16 15 14 13 12 13 12 12 11 13 14 27 42 43 42
33 21 16 10 8 7 4 11 42 75 90 96 93 97 101 102
104 104 110 106 103 96 94 96 94 81 72 8 7 6 8 11
15 23 32 33 36 36 36 36 37 37 37 35 36 36 36 36
36 35 36 35 35 35 35 35 35 35 35 35 34 34 34 31
41 54 16 0 0 0 0 0 0 0 44 52 34 34 28 19
31 29 29 29 27 28 31 28 30 27 31 28 33 33 34 34
34 34 29 30 34 31 28 33 35 33 29 34 30 29 30 32
33 32 31 29 28 26 25 22 20 16 15 15 28 42 41 38
20 9 5 5 7 5 11 38 77 92 98 99 106 110 110 105
109 112 106 111 111 109 101 96 98 94 89 57 3 6 8 10
19 24 25 34 32 35 36 36 37 37 36 36 36 35 37 36
37 36 36 36 35 35 35 35 35 35 35 35 34 34 34 31
37 54 22 0 0 0 0 0 0 0 36 53 35 34 28 18
31 31 32 31 32 32 32 32 32 33 33 31 33 33 34 34
34 34 34 32 30 34 31 36 36 31 30 34 32 32 35 34
34 33 33 31 35 36 36 35 33 21 14 17 29 42 40 28
12 12 3 11 9 9 14 54 97 99 104 107 109 110 105 98
103 117 107 100 107 111 105 103 101 99 95 88 34 0 3 8
14 22 24 29 31 31 34 34 36 37 37 36 37 36 38 38
39 40 41 40 39 38 37 36 36 35 35 35 35 35 35 30
32 53 29 0 0 0 0 0 0 0 29 55 37 34 28 19
31 31 31 32 31 32 32 32 33 33 33 32 33 34 34 34
34 33 30 29 31 33 32 35 34 30 32 34 33 34 37 34
33 32 34 32 34 36 37 36 34 23 13 15 28 40 31 16
10 13 10 17 11 7 22 79 102 105 107 106 105 102 99 89
112 111 108 99 107 107 105 106 104 102 99 97 81 17 1 3
13 17 19 26 26 28 32 36 37 37 37 37 37 36 36 42
41 44 45 47 47 45 41 39 38 35 35 34 35 35 34 29
28 54 40 0 12 10 2 0 0 0 23 55 39 32 28 18
30 30 30 30 31 31 31 31 31 31 32 33 34 33 34 34
35 35 35 35 35 35 35 35 35 35 35 35 36 36 36 34
31 35 35 32 30 35 37 36 35 23 17 16 29 36 20 12
10 13 13 18 9 11 48 97 100 99 99 90 75 70 73 108
104 103 107 101 83 95 97 98 89 86 89 98 97 70 3 0
7 19 15 22 24 24 26 35 36 36 37 37 37 37 37 44
42 45 45 47 48 47 45 40 38 35 36 35 35 35 35 29
26 49 44 5 25 25 12 3 8 7 32 52 40 32 28 18
32 31 32 32 32 33 33 32 33 33 33 34 34 35 35 35
35 33 31 32 33 34 34 34 35 36 36 36 36 37 37 37
37 38 37 35 34 36 37 37 35 23 17 17 29 28 13 10
6 13 20 14 10 24 77 71 59 56 60 49 43 73 81 99
112 111 100 99 69 65 44 39 50 49 49 62 92 98 38 0
3 26 20 16 26 18 20 26 38 36 37 37 38 38 39 47
45 43 43 43 44 44 43 38 36 23 25 27 30 31 33 29
25 41 43 26 31 29 26 21 22 21 31 48 39 31 28 18
32 32 32 32 33 33 33 32 33 33 34 34 34 34 34 35
35 35 35 35 35 34 34 34 34 34 34 35 35 35 36 37
37 38 38 37 37 38 37 38 36 22 16 16 26 17 14 12
3 10 12 9 9 52 62 62 49 38 23 24 49 72 94 108
117 118 112 99 92 61 30 20 26 48 55 60 61 92 85 13
3 17 25 17 23 20 17 20 29 38 37 37 37 37 40 47
44 44 43 43 45 44 43 44 36 15 18 18 19 20 20 22
20 28 31 31 32 33 35 34 36 34 32 37 34 31 28 18
32 32 32 32 32 33 33 33 33 34 33 34 34 34 34 34
35 35 35 35 35 36 36 36 36 36 37 37 36 36 36 36
36 35 36 36 35 37 37 37 36 23 16 16 21 15 9 6
5 7 16 16 28 65 75 81 77 56 50 47 74 90 106 115
121 121 124 107 98 78 58 40 41 59 74 87 72 68 96 61
3 6 15 11 18 14 18 21 27 36 37 38 37 37 40 48
46 46 46 46 45 44 43 46 35 16 18 18 19 20 19 19
20 20 20 19 18 16 16 15 18 19 20 22 25 30 28 19
32 32 32 33 33 33 33 33 34 33 34 34 34 34 34 35
35 35 36 36 36 36 36 36 37 37 37 37 37 37 38 38
38 37 37 37 37 38 38 38 36 24 19 19 22 13 9 8
8 11 14 17 66 76 94 58 42 21 20 24 57 103 109 111
120 117 127 109 109 104 50 20 19 25 42 66 102 73 81 95
28 5 11 8 14 16 20 23 24 32 37 38 38 37 41 49
46 46 45 47 48 46 47 47 35 19 18 17 14 16 16 17
18 19 20 20 21 21 21 25 20 14 15 15 19 20 21 16
32 32 32 33 34 33 34 34 34 34 35 34 35 35 35 35
35 35 36 36 36 36 36 37 37 37 37 37 38 37 38 37
38 38 38 38 38 38 38 37 36 24 20 23 18 11 10 21
14 14 20 55 76 97 62 28 28 35 26 31 99 106 55 43
111 112 73 37 92 109 91 31 28 26 22 44 74 101 70 98
66 8 6 5 12 12 20 19 18 23 38 37 38 38 41 50
50 47 44 45 45 46 46 46 35 22 20 19 12 25 23 20
20 22 29 30 29 30 34 40 32 19 19 19 19 18 19 13
32 32 32 32 33 33 34 34 34 34 34 34 34 35 34 35
35 36 36 36 37 36 37 36 37 37 37 38 38 38 38 37
38 38 38 38 38 38 38 38 36 23 19 20 18 15 17 14
10 13 44 81 96 81 49 82 98 84 84 104 108 80 12 22
103 105 68 8 33 105 109 97 78 88 94 61 44 87 94 88
88 16 9 9 11 16 17 18 10 17 39 37 38 38 41 50
49 46 43 44 44 43 43 44 36 23 20 19 13 27 31 35
41 40 41 35 34 38 42 45 40 26 28 24 22 20 19 13
28 30 27 31 30 29 32 33 33 32 34 33 33 33 35 35
35 35 36 36 36 36 36 37 37 37 37 38 38 39 38 38
38 38 38 37 38 38 38 37 36 24 18 17 22 23 14 7
5 27 78 86 107 75 96 98 92 92 89 93 101 55 9 70
105 106 107 36 17 85 103 90 92 95 98 103 84 76 108 86
94 34 9 8 8 10 19 15 11 21 38 38 38 38 41 50
47 47 46 45 46 45 45 47 37 22 19 18 10 23 26 35
49 47 46 40 37 44 45 43 42 26 29 34 38 35 32 26
28 24 24 31 27 28 33 31 31 28 32 31 30 31 32 35
35 35 36 35 36 37 36 36 36 37 36 37 37 38 38 37
38 38 37 38 38 38 37 38 35 23 19 20 21 24 18 7
10 55 94 104 101 94 97 97 96 83 71 87 102 68 61 104
112 113 113 98 73 94 103 84 77 97 102 98 100 88 100 100
92 49 7 12 10 4 17 14 16 30 38 38 38 38 41 50
48 46 45 46 47 47 47 48 39 22 18 18 10 21 20 25
47 48 46 41 34 26 18 11 37 21 18 29 21 10 12 13
30 27 26 32 30 30 33 31 31 30 30 31 31 31 32 35
36 35 36 36 36 37 37 36 37 37 37 37 37 38 38 38
38 38 38 38 38 38 39 38 36 21 19 19 12 9 18 8
18 74 99 102 97 100 106 113 110 77 69 98 97 104 94 97
103 109 106 102 102 101 97 102 86 118 116 108 100 99 98 107
95 66 10 9 12 16 16 17 15 30 38 38 37 38 40 50
46 44 43 45 47 48 50 49 39 23 18 18 11 16 5 7
30 20 12 8 4 1 0 2 32 31 18 27 14 0 0 0
33 32 32 32 33 32 32 33 33 32 31 33 33 33 35 36
36 36 36 36 36 37 37 37 37 38 38 38 37 38 38 38
38 38 38 38 38 39 38 37 36 21 16 13 3 8 17 14
20 87 98 99 103 109 116 121 121 92 91 97 91 89 91 95
101 101 101 101 97 94 98 108 110 120 122 116 108 104 102 102
98 76 10 4 14 19 21 17 20 28 37 38 38 37 41 50
45 43 43 44 46 47 49 49 38 23 17 17 11 14 3 1
18 8 1 2 2 4 4 3 21 37 19 25 15 0 0 8
33 33 33 34 33 33 33 34 34 34 33 34 35 35 35 35
36 35 36 37 37 37 38 37 37 38 38 37 38 37 38 38
38 38 39 38 38 38 38 38 35 23 18 12 3 11 13 15
24 93 93 103 111 113 118 124 117 104 102 90 97 104 106 105
100 97 104 107 107 106 100 97 108 112 122 118 112 109 109 102
95 87 13 6 12 15 17 15 14 27 38 38 38 38 39 50
45 44 45 45 47 46 46 47 38 23 17 16 11 12 2 1
11 13 3 4 4 13 14 5 8 40 19 22 16 0 0 4
34 33 33 33 34 33 34 34 34 34 35 35 35 35 35 35
36 36 36 36 37 36 36 37 37 37 38 38 38 38 38 38
39 38 38 38 39 38 38 38 36 22 20 11 3 16 15 14
28 90 100 110 115 117 121 116 89 98 98 107 98 88 81 77
82 82 80 78 83 94 108 110 100 99 97 120 116 110 114 111
100 90 20 6 13 11 13 7 14 25 38 37 38 38 39 50
45 45 45 46 47 46 47 48 40 23 16 16 14 10 2 0
5 21 6 1 5 6 8 4 2 38 20 18 17 0 0 5
33 34 33 34 34 34 34 34 35 34 34 35 35 35 35 36
36 36 37 37 37 37 38 37 37 37 38 38 37 38 38 38
38 38 38 39 39 38 39 38 36 22 20 12 8 17 16 16
30 92 108 116 120 119 119 81 74 100 114 92 60 47 46 73
75 75 72 54 38 53 81 111 112 99 75 101 119 115 117 117
108 90 31 7 9 15 20 8 16 29 38 38 38 38 39 50
46 45 46 47 46 46 48 49 41 24 18 16 22 27 19 2
1 26 14 2 1 0 0 0 0 32 20 17 21 0 0 5
33 34 34 34 34 34 34 34 35 34 34 35 36 35 35 36
36 36 36 37 37 37 37 37 37 38 38 38 38 38 38 38
38 38 38 38 38 38 39 38 35 20 19 13 9 12 16 17
37 96 112 120 123 121 114 86 95 109 111 91 62 52 77 80
102 99 92 72 40 42 77 101 114 105 102 100 119 119 120 122
115 95 46 11 11 16 14 9 8 26 38 38 39 38 38 50
49 47 46 45 46 45 45 46 40 24 18 16 10 7 6 1
0 21 18 5 0 0 0 0 0 25 32 32 27 0 1 5
34 33 33 33 33 33 34 34 34 34 35 35 35 35 35 36
36 37 37 36 37 37 37 37 37 37 38 38 38 37 38 38
38 38 38 38 38 39 39 38 35 16 15 12 7 12 18 19
45 103 116 123 122 119 118 105 105 112 100 78 24 60 97 116
135 120 119 103 90 49 31 90 107 114 109 115 125 119 122 125
120 102 58 15 11 12 16 12 6 23 39 40 40 38 38 50
48 47 47 48 47 48 48 48 40 25 18 18 6 0 0 1
1 14 19 7 0 0 0 0 0 15 43 39 30 0 0 0
33 33 34 34 34 34 35 35 34 35 34 35 35 35 36 36
36 36 37 37 37 38 37 37 38 38 38 38 39 38 39 38
38 38 39 38 39 39 39 39 36 15 13 11 8 20 16 20
50 109 121 125 123 118 123 121 107 110 93 26 59 114 127 132
144 126 143 134 114 120 66 64 101 113 116 122 125 121 124 125
123 108 74 15 13 10 17 16 8 28 41 44 42 37 37 50
48 46 45 45 45 47 48 49 42 26 19 19 10 2 3 8
8 8 23 7 0 0 0 0 0 4 43 43 33 0 0 0
34 34 33 34 34 33 34 34 35 34 35 35 35 35 36 37
36 36 37 36 37 37 37 37 38 38 38 38 38 38 38 38
38 38 38 38 39 39 39 39 35 16 14 13 11 12 9 22
56 112 122 124 123 122 124 126 110 106 65 28 100 105 109 111
118 111 113 111 106 102 102 48 90 109 114 125 125 122 124 129
122 111 89 21 15 8 13 20 11 32 42 45 44 39 37 50
47 46 47 46 46 46 47 49 43 27 19 18 12 5 9 13
5 3 21 0 0 0 0 0 0 1 39 44 37 0 0 0
33 33 33 33 34 32 34 35 35 34 35 36 35 35 35 36
36 36 37 37 36 37 37 37 38 38 38 38 39 38 39 38
38 39 39 39 39 39 39 39 36 19 14 14 13 4 9 19
66 115 124 124 123 120 124 122 116 88 60 100 110 113 109 101
104 101 103 107 118 113 109 95 82 102 114 121 127 124 125 128
124 114 96 28 13 12 9 19 14 34 44 47 45 39 37 49
48 47 47 47 48 48 50 50 45 28 19 18 12 1 7 13
10 1 17 3 0 0 3 9 20 33 47 45 40 4 0 0
30 31 30 30 31 31 33 35 32 31 31 33 34 32 31 34
34 37 37 34 34 34 36 35 35 35 38 38 37 36 37 36
38 38 39 39 39 39 40 39 36 22 15 13 12 3 7 19
72 115 123 125 123 119 121 115 112 108 108 111 111 108 101 93
88 83 92 100 107 111 114 117 115 111 103 109 122 123 125 129
124 117 101 39 11 14 10 17 19 36 45 46 46 40 36 49
49 46 46 47 47 49 51 52 47 29 20 17 10 0 1 4
6 0 11 23 22 27 32 38 49 50 51 45 38 34 29 17
33 33 33 33 33 34 35 35 34 33 34 34 35 35 34 35
35 36 37 35 36 35 36 35 35 35 37 38 36 35 37 36
37 39 39 39 39 39 40 39 36 23 18 14 10 2 9 19
77 118 122 123 122 121 117 110 115 114 115 114 110 106 102 95
95 95 103 108 111 113 115 114 116 117 113 108 120 122 124 126
125 120 102 50 11 8 9 13 21 34 44 45 47 41 37 48
49 47 47 47 48 49 51 52 48 30 21 20 10 0 0 1
3 5 4 41 43 40 41 45 50 51 49 43 30 37 37 40
34 34 35 34 34 34 35 34 35 35 35 35 36 36 36 36
37 37 37 37 37 37 37 38 37 37 38 38 39 38 39 39
38 38 39 39 39 39 39 38 36 24 21 12 8 2 11 17
84 120 124 123 123 120 116 112 115 112 110 110 114 114 114 108
106 104 110 118 121 121 117 117 117 119 116 112 121 123 125 125
123 121 102 56 12 2 6 8 20 35 45 42 47 41 36 48
48 46 46 47 49 51 53 53 50 32 24 28 21 9 6 11
22 16 8 36 52 50 47 44 41 32 19 21 5 10 16 26
31 32 33 32 32 32 34 34 35 35 35 36 36 36 36 37
36 36 36 37 37 37 37 37 37 38 38 38 39 38 38 39
39 38 38 39 39 39 39 39 36 23 21 10 7 1 14 31
94 120 122 124 122 121 118 114 115 111 107 109 112 111 104 102
105 106 104 111 115 118 117 116 117 119 119 117 121 124 126 126
124 120 106 69 27 3 4 4 18 36 46 46 47 41 36 47
47 45 46 48 49 51 54 55 52 33 30 36 31 18 23 25
33 29 30 32 37 33 31 26 22 15 11 19 0 0 0 3
29 28 29 29 30 31 30 31 32 34 35 35 35 35 36 36
36 36 36 36 37 36 37 37 37 37 37 38 38 37 38 38
38 38 38 38 38 38 38 38 35 23 21 11 5 2 31 41
97 121 125 124 123 124 120 117 114 110 112 111 107 102 104 112
114 111 111 112 111 112 114 116 117 118 119 118 121 124 127 126
123 119 106 79 68 45 9 5 15 40 46 46 46 41 36 46
47 45 47 48 48 49 51 54 52 33 30 34 36 25 29 25
28 26 25 19 17 22 28 29 29 30 28 27 0 0 0 0
32 32 33 32 32 32 32 31 33 34 34 35 34 34 35 35
35 35 36 36 35 36 36 36 37 37 37 37 37 37 37 37
38 37 37 37 37 38 38 38 34 22 20 13 6 18 63 78
102 120 126 123 123 123 118 117 111 110 112 106 104 107 112 117
116 111 115 114 113 113 111 114 117 117 116 116 119 123 126 123
122 118 107 87 104 82 39 4 19 41 44 45 45 41 35 44
47 44 45 46 47 49 52 54 50 28 24 33 37 27 25 20
17 17 11 0 3 2 3 3 4 18 38 33 1 0 0 0
32 32 33 33 33 33 33 33 34 34 34 34 34 34 35 35
35 35 35 36 35 35 36 35 36 36 37 37 37 37 37 38
38 37 37 38 38 38 38 38 35 23 20 16 7 38 74 104
107 122 126 127 123 124 120 119 114 110 111 108 108 112 118 120
116 113 118 115 115 116 110 112 116 117 117 117 119 123 124 121
118 116 108 93 108 75 45 2 21 38 42 44 45 41 35 43
46 44 44 44 46 48 53 53 44 8 5 9 13 14 13 30
26 26 18 0 0 0 0 10 0 13 41 36 18 24 9 0
32 33 33 33 33 33 33 33 33 34 34 34 34 34 35 35
35 36 36 36 36 36 36 36 36 36 36 36 37 37 37 37
37 37 38 37 38 38 38 38 35 22 18 20 10 50 92 109
107 121 124 125 127 123 121 119 115 112 108 110 113 114 113 114
112 116 110 108 113 117 114 113 114 116 116 118 120 123 124 120
118 116 109 97 107 76 54 2 18 36 42 44 45 40 34 42
47 45 44 43 45 48 51 51 29 0 0 0 0 0 2 35
11 13 20 0 0 0 1 20 4 12 42 40 22 17 11 1
32 32 33 32 32 33 33 33 34 34 34 34 34 35 35 35
35 36 36 35 36 36 36 36 37 37 37 37 37 37 38 38
38 38 37 38 38 38 38 37 35 21 16 19 14 57 93 115
105 118 121 125 127 123 121 119 116 110 110 112 108 104 102 102
105 104 106 105 114 115 115 113 110 113 116 119 122 121 123 121
117 114 110 99 117 78 57 8 22 37 43 45 44 40 35 43
47 45 43 42 44 45 46 47 14 0 0 0 0 0 3 35
10 10 18 0 0 0 1 15 6 12 43 38 6 2 3 5
32 32 33 33 33 33 34 33 33 34 34 34 34 35 35 35
35 36 35 36 36 36 36 37 37 36 37 37 38 37 37 37
38 38 38 38 38 38 38 38 35 21 18 20 22 57 101 122
103 111 119 120 124 121 121 118 114 109 109 110 102 93 89 88
91 97 104 108 107 107 113 113 113 114 115 120 121 120 122 119
117 115 110 97 117 90 55 13 28 37 43 45 45 41 35 44
48 48 45 43 43 43 45 41 6 0 0 0 0 0 1 32
11 6 15 0 0 0 0 12 16 13 44 38 2 7 1 2
33 32 33 33 33 34 34 34 34 34 34 34 35 35 35 35
35 36 35 36 36 36 36 37 36 37 37 37 37 38 38 37
38 38 38 38 38 38 38 38 35 21 19 21 31 53 112 120
102 110 117 120 122 118 119 117 110 105 106 103 92 83 73 72
69 77 83 84 89 92 101 109 113 113 116 117 118 118 122 119
116 115 109 100 105 107 54 12 33 40 45 45 44 40 36 43
45 43 43 43 41 43 43 34 3 0 0 0 0 0 0 31
19 17 23 0 0 0 1 7 20 14 42 37 2 1 0 0
33 33 34 33 33 34 34 34 34 34 35 35 35 35 35 36
36 35 36 36 37 37 36 37 36 37 37 37 37 37 37 37
38 37 38 39 38 38 38 38 35 21 21 21 35 84 117 122
102 106 114 115 116 117 116 114 108 100 98 88 73 67 57 50
52 51 51 54 67 77 86 99 103 109 113 120 119 120 119 118
117 113 106 101 107 95 60 14 40 42 46 46 45 41 36 42
44 43 42 41 40 40 41 30 2 0 0 0 0 0 0 30
31 32 28 0 0 1 3 1 4 8 43 38 3 0 0 0
33 33 33 33 33 34 34 34 34 34 34 34 35 35 35 35
36 36 36 36 36 36 37 37 38 37 37 38 38 38 37 38
39 38 38 38 38 38 38 37 34 20 21 20 40 115 125 124
102 104 110 111 113 114 113 111 105 96 93 80 68 61 54 45
43 41 41 50 55 60 67 86 97 103 108 112 116 117 116 115
112 111 106 102 119 121 81 21 42 41 47 46 46 42 37 44
45 44 44 44 42 43 42 29 1 0 0 0 0 0 0 27
39 38 30 0 0 3 16 0 0 7 45 42 24 19 15 11
33 33 33 34 33 34 34 34 34 35 34 35 35 35 35 35
36 36 36 36 36 36 37 37 37 37 38 38 38 38 38 38
38 38 38 38 39 39 38 38 35 21 21 19 39 105 122 117
97 102 108 106 106 106 107 101 98 93 86 79 68 67 64 60
59 59 59 62 63 61 67 77 89 95 102 108 110 114 113 112
112 109 102 84 116 114 97 28 37 37 44 44 44 41 38 46
44 42 42 41 40 41 39 30 10 0 0 0 0 0 0 22
43 44 33 2 0 6 19 0 0 6 46 37 41 46 40 36
33 33 33 34 34 34 34 34 34 34 34 35 35 35 35 35
36 35 36 36 37 36 37 37 37 37 37 37 37 38 38 37
38 38 38 38 38 38 38 38 35 21 21 19 38 78 116 115
80 97 105 105 100 100 100 94 90 88 84 79 71 73 76 78
76 74 72 74 74 76 76 78 84 87 99 102 106 109 109 109
109 102 92 40 108 120 105 47 41 40 45 45 45 43 37 47
46 41 41 39 37 37 36 37 27 3 0 0 0 0 0 18
41 42 42 30 3 6 16 1 0 5 34 29 40 48 44 41
33 33 33 33 34 34 34 34 34 34 35 35 35 35 35 36
35 36 36 35 35 37 37 37 37 37 37 37 37 37 37 37
38 37 37 38 39 39 39 39 35 22 22 20 37 67 112 109
47 83 101 101 99 94 89 85 80 82 83 79 72 72 75 81
83 82 76 77 81 77 74 77 80 83 93 97 102 102 102 104
107 100 72 7 80 118 114 70 40 44 48 48 48 46 38 47
48 43 42 40 39 38 39 38 25 12 0 2 2 1 0 17
44 40 27 30 17 12 17 5 2 3 20 30 40 41 42 38
33 33 33 34 34 34 34 34 34 34 34 34 34 35 35 35
36 36 36 35 36 36 36 37 37 37 38 37 38 38 38 38
37 37 38 38 38 38 39 38 35 23 21 21 37 51 103 90
25 51 95 96 94 90 85 82 79 87 86 79 74 72 80 78
85 88 86 79 82 81 79 80 85 90 95 95 95 93 97 98
101 92 48 1 24 88 88 49 36 43 46 47 48 45 37 46
46 42 42 42 41 40 43 43 32 17 3 17 18 6 3 27
40 10 0 14 40 34 35 36 32 9 6 12 15 16 18 21
32 33 33 33 34 34 34 34 34 34 34 35 35 36 36 35
36 36 36 36 36 36 36 37 37 37 37 37 37 37 37 37
38 38 38 38 38 38 39 38 36 25 21 20 36 43 54 42
13 39 84 90 89 84 86 85 84 90 90 85 73 72 79 82
85 83 87 83 82 86 81 84 90 95 95 95 91 92 94 93
89 82 55 4 1 11 35 42 35 41 45 46 47 45 37 46
48 44 43 40 38 37 39 47 50 44 40 42 41 38 37 34
15 2 2 4 37 15 12 16 17 2 0 0 0 0 0 3
33 33 34 33 34 34 34 34 34 34 34 34 35 35 35 36
35 36 36 36 36 36 37 37 37 37 37 37 37 37 37 37
37 38 37 38 38 38 38 38 35 25 20 20 37 43 23 3
17 78 86 75 81 83 87 88 90 92 91 83 73 74 77 80
89 86 89 87 85 89 84 87 90 97 100 97 97 94 92 86
79 90 89 9 5 15 41 42 37 44 46 46 46 45 37 47
50 47 45 42 39 38 39 48 56 53 51 52 52 47 28 8
1 21 20 4 28 12 0 0 1 0 0 0 0 0 0 1
33 32 33 33 34 33 33 33 34 34 34 34 34 35 35 36
36 35 36 35 36 36 36 36 37 37 37 37 37 38 37 37
38 38 38 38 38 38 38 38 35 24 19 22 37 43 35 6
10 91 100 70 72 83 89 91 90 92 89 80 76 73 75 81
87 88 92 90 89 91 90 90 96 102 104 104 104 101 93 82
87 100 86 5 12 26 44 43 35 43 46 45 46 44 37 46
50 48 46 43 40 39 40 46 56 54 55 53 43 35 20 0
0 20 20 10 21 27 3 0 5 0 0 0 0 0 0 0
33 33 33 33 34 34 34 33 34 35 34 34 35 35 35 35
35 36 36 36 36 36 36 36 36 37 37 36 37 37 37 37
38 38 38 38 38 38 38 38 34 24 20 23 37 43 38 14
5 71 103 90 73 80 88 94 93 90 90 87 82 76 75 81
89 89 90 90 90 94 95 97 101 105 107 109 110 105 96 93
102 104 71 3 15 29 43 43 35 41 45 45 47 44 36 47
50 46 46 44 41 39 40 40 41 46 54 44 30 27 30 2
0 5 23 22 27 38 8 0 5 0 0 0 0 0 0 0
33 33 33 33 34 34 34 34 34 34 34 34 35 35 35 35
35 35 36 36 36 36 36 37 36 36 37 37 37 36 37 37
37 37 38 37 38 38 38 38 34 23 20 22 36 42 41 24
4 41 100 98 85 80 89 94 94 93 90 88 83 80 78 82
89 92 92 92 92 94 99 100 103 105 108 111 112 104 99 103
106 106 58 2 16 40 43 43 39 43 45 46 46 43 36 46
49 46 45 43 41 37 37 35 31 34 49 42 18 17 33 10
0 9 23 20 25 40 13 0 9 2 5 6 0 0 0 0
34 34 33 33 33 33 34 34 34 34 34 34 35 34 34 35
35 35 35 36 35 36 37 37 36 36 36 36 37 37 37 38
37 37 37 37 38 38 38 38 34 23 20 21 35 42 42 31
7 18 89 100 93 83 87 93 95 96 94 92 88 85 84 85
95 96 94 97 98 97 101 105 104 107 110 112 112 105 104 106
110 108 48 3 28 44 42 38 40 44 45 44 45 43 36 46
51 48 47 44 41 39 39 36 32 27 45 40 9 15 28 19
6 12 13 8 14 31 23 0 12 4 12 9 0 1 0 0
33 33 33 33 34 34 34 34 35 34 34 34 34 34 35 35
35 35 35 35 35 35 36 35 36 36 37 37 36 37 38 37
37 37 38 38 38 38 38 37 34 22 20 21 35 43 41 37
16 3 73 98 99 89 85 92 94 95 94 94 93 92 90 89
98 103 99 101 102 103 104 108 108 111 110 111 108 108 105 108
112 109 41 2 28 44 41 34 40 43 44 45 45 43 35 45
49 45 45 43 42 40 41 40 36 25 38 43 21 23 23 26
28 22 9 6 9 26 33 1 15 4 11 12 0 0 0 0
34 34 34 34 34 33 34 34 34 34 35 35 34 34 35 35
35 35 36 35 35 36 36 35 36 36 37 36 36 36 37 37
37 37 37 37 37 38 38 38 34 22 20 20 36 42 42 41
31 2 44 98 101 96 90 90 95 96 98 98 99 95 95 95
103 108 107 107 107 106 106 110 111 110 111 112 110 110 110 113
113 109 40 0 17 43 42 35 38 40 42 45 46 44 34 43
49 47 46 44 42 41 41 40 36 27 31 46 30 22 25 27
24 22 20 19 26 25 36 10 17 4 9 13 0 1 0 0
34 34 34 33 34 34 33 33 34 34 34 34 34 34 35 34
35 35 35 36 36 36 36 36 36 36 36 36 37 36 37 37
37 37 37 37 37 37 37 37 33 21 20 19 35 43 42 41
38 11 17 93 101 99 96 94 97 95 102 104 105 104 101 102
109 114 115 111 112 111 111 111 111 112 113 111 113 112 112 113
113 109 45 0 18 40 41 35 41 43 45 46 46 44 34 41
48 44 45 46 44 41 40 40 37 29 22 44 39 34 31 34
15 20 34 42 43 38 42 23 19 4 7 10 0 0 0 0
34 34 34 33 33 34 33 33 34 34 34 34 34 34 34 34
35 35 35 35 36 36 36 36 36 36 36 36 36 36 37 36
36 37 37 37 37 37 37 37 33 21 20 19 36 42 42 41
34 16 10 87 102 103 101 101 102 102 106 108 111 107 107 107
112 119 120 115 117 114 115 114 111 115 115 114 114 115 114 113
114 109 49 0 13 30 39 36 41 43 45 45 44 43 34 40
46 44 44 44 42 40 40 40 38 31 18 37 39 34 29 25
2 33 40 42 43 41 37 17 22 11 12 13 15 18 22 26
35 35 35 34 34 34 34 34 34 34 34 34 34 35 35 34
35 35 35 35 35 35 35 35 36 35 36 36 36 36 37 37
37 37 37 37 37 38 37 36 33 21 20 18 35 42 42 41
33 9 6 83 105 106 105 104 106 106 108 112 114 112 111 111
116 122 125 122 120 118 117 115 115 114 116 116 117 115 116 114
113 110 59 0 11 31 38 37 40 43 44 45 44 43 33 38
44 41 41 42 43 42 44 42 40 32 19 29 41 33 26 30
20 42 45 43 40 30 11 0 28 47 47 48 50 51 53 54
35 34 33 34 34 33 34 33 34 34 34 34 35 34 35 35
35 35 35 35 35 35 36 35 36 36 36 36 37 36 36 36
37 37 37 37 37 37 37 37 33 21 19 18 35 43 42 40
29 4 1 79 108 109 108 107 109 110 111 114 116 115 113 115
119 123 128 126 125 122 118 118 117 117 115 119 119 116 117 116
113 110 75 0 18 42 37 38 41 43 43 44 44 43 33 38
42 41 40 39 41 42 41 40 39 32 21 19 41 35 34 36
39 44 44 41 30 13 7 5 29 54 53 54 55 55 55 54
35 35 34 34 33 33 33 33 33 33 33 33 34 34 34 34
35 35 35 35 36 35 35 35 36 36 36 36 36 37 37 36
36 37 37 37 37 37 37 37 34 22 17 17 34 42 41 36
17 9 1 77 109 110 106 111 113 111 114 116 115 116 117 119
124 127 132 129 126 121 117 119 119 119 117 119 119 117 117 117
114 110 89 3 26 38 36 39 40 43 43 43 43 42 33 39
41 37 39 40 41 42 42 42 41 33 22 13 36 37 34 40
43 42 40 32 30 35 33 30 36 50 47 45 43 38 33 18
36 34 34 34 34 33 34 33 33 34 34 34 34 34 34 34
35 35 35 34 35 35 36 35 35 36 36 35 35 37 36 36
36 37 37 37 36 37 37 37 34 22 17 18 34 42 41 39
12 2 0 79 110 110 109 113 115 115 116 117 119 119 118 119
125 131 134 131 127 124 117 118 121 122 118 121 120 119 118 116
113 111 98 23 39 38 35 38 40 43 43 42 40 38 33 41
42 37 38 39 37 39 39 41 43 35 22 11 25 42 40 40
36 32 29 28 30 30 29 28 29 30 28 26 25 24 22 15
37 35 34 34 33 34 34 33 34 34 34 34 33 34 35 34
35 34 35 35 34 35 35 34 35 35 35 35 36 36 36 37
36 36 37 39 37 37 37 37 33 21 18 18 34 42 42 41
30 3 1 82 110 111 111 113 116 116 116 117 119 119 118 119
126 132 134 132 128 123 118 120 123 123 122 120 118 118 118 117
114 112 104 47 44 42 36 40 43 44 43 43 44 42 33 43
46 40 39 39 38 41 42 42 44 35 21 12 17 41 31 28
27 26 26 26 27 26 27 27 26 26 26 25 25 24 23 22
38 36 34 34 33 33 34 33 33 33 33 33 33 34 34 34
35 34 34 34 35 35 35 35 35 35 36 36 36 36 36 36
35 27 31 37 37 37 37 37 33 22 17 17 34 42 41 41
36 19 4 82 109 111 111 115 116 116 117 119 118 119 118 121
127 134 137 136 131 124 120 119 123 124 123 121 121 120 119 116
115 114 107 57 44 41 39 42 44 49 53 55 54 50 37 44
49 45 45 45 45 45 45 46 46 37 20 11 12 31 26 26
27 27 27 25 23 22 22 22 22 21 22 20 21 21 20 20
39 36 35 34 34 33 33 33 33 33 33 33 33 34 34 34
34 34 35 34 34 35 35 34 35 35 35 35 35 36 36 35
35 31 38 44 45 45 44 45 42 36 34 33 42 45 45 45
36 15 9 88 108 111 113 114 118 117 117 117 118 117 120 120
126 131 135 137 129 124 123 122 122 122 124 122 122 120 118 112
112 114 109 68 45 46 46 45 48 64 66 66 66 63 52 45
45 44 43 42 42 40 43 46 47 39 20 11 11 13 24 26
26 27 27 14 1 1 1 1 1 1 1 1 1 1 1 1
41 37 35 34 34 33 33 33 34 33 33 33 33 34 34 34
34 34 34 34 34 34 34 34 35 35 35 35 35 35 35 27
26 25 41 49 49 48 49 49 48 48 48 48 48 48 48 48
43 15 5 91 108 111 114 115 119 117 116 115 117 116 120 119
123 131 138 137 129 122 122 123 123 124 123 122 122 117 118 115
116 115 111 74 44 45 45 45 46 62 67 65 64 65 62 44
44 42 42 40 39 36 39 45 45 38 20 12 10 3 22 29
25 26 27 12 0 0 0 0 0 0 0 0 0 0 0 0
42 38 35 34 33 34 33 33 33 33 33 33 33 34 33 34
34 34 34 35 34 34 32 31 33 35 35 34 36 36 33 21
20 21 41 49 49 49 49 48 48 49 49 48 49 48 48 48
48 40 21 96 109 113 114 114 118 116 117 114 116 117 119 117
121 130 139 134 126 121 121 122 123 123 124 123 122 120 118 117
118 115 111 72 29 30 30 31 31 39 42 38 37 41 46 32
30 29 28 27 30 35 36 42 45 38 20 11 11 4 20 25
20 25 27 13 0 0 0 0 0 0 0 0 0 0 0 0
41 38 35 34 33 33 33 32 32 32 32 32 33 33 34 34
34 34 34 34 34 32 30 30 33 35 35 34 35 35 32 21
19 21 40 49 48 45 46 46 46 45 46 46 45 45 46 46
46 46 44 99 109 113 115 114 118 118 115 114 115 118 119 117
118 128 139 133 125 122 119 122 123 122 121 120 121 118 117 117
119 117 111 67 9 10 9 8 6 4 4 3 3 3 5 3
3 3 3 3 22 37 35 40 43 36 18 13 17 17 20 18
13 24 26 14 0 0 0 0 0 0 0 0 0 0 0 0
42 37 35 33 32 32 31 31 31 31 31 32 33 34 34 34
34 34 34 33 32 30 29 30 32 33 33 33 34 33 30 20
18 20 39 49 38 20 20 20 20 20 21 20 19 19 20 19
20 21 33 101 110 112 113 114 117 117 114 115 114 118 119 116
116 123 131 129 122 121 121 121 123 123 122 121 117 120 119 120
120 117 112 76 13 22 21 19 15 7 4 2 2 1 1 0
0 0 0 0 16 38 34 34 32 25 15 14 19 18 21 16
16 24 27 15 0 0 0 0 0 0 0 0 0 0 0 0
43 38 35 32 32 31 32 30 30 30 30 31 34 34 34 34
34 34 34 34 29 27 27 27 29 30 30 30 30 30 26 19
18 19 39 49 37 16 18 19 20 20 20 20 19 19 18 18
19 19 29 101 111 112 113 114 116 116 115 114 115 116 119 116
111 116 121 123 119 119 121 118 122 122 121 119 118 118 115 118
119 117 111 98 25 18 31 28 22 13 7 4 4 3 3 2
2 1 1 0 9 37 32 20 13 10 9 9 16 17 20 16
19 24 27 16 0 0 0 0 0 0 0 0 0 0 0 0
45 39 36 34 32 32 31 30 30 30 31 32 35 35 34 34
35 34 34 34 29 26 27 27 27 27 28 28 28 28 24 18
18 19 37 50 39 19 25 50 55 55 55 52 49 50 49 47
45 33 17 101 111 113 113 115 115 115 114 115 115 116 118 115
109 109 114 116 118 119 124 119 121 121 121 120 118 121 119 119
120 117 111 101 86 15 28 23 17 10 6 3 3 3 2 2
2 1 1 0 4 35 33 17 9 9 8 8 14 16 21 19
21 25 27 17 0 0 0 0 0 0 0 0 0 0 0 0
46 40 38 35 33 33 31 31 30 30 30 32 35 35 34 34
35 34 34 33 29 26 26 26 27 27 27 28 27 28 22 18
18 19 36 50 40 21 33 77 87 88 89 87 87 88 85 48
23 14 14 99 109 113 114 115 115 116 116 115 114 114 116 112
110 109 113 115 118 119 121 118 121 120 122 117 117 118 121 120
119 117 110 105 107 38 27 26 24 15 5 4 3 3 2 2
1 1 0 0 0 30 32 20 9 8 8 8 12 16 20 21
22 24 27 18 0 0 0 0 0 0 0 0 0 0 0 0
46 42 38 35 34 33 31 30 30 30 30 32 35 36 35 35
35 35 35 34 30 27 27 26 27 27 28 27 28 27 21 18
18 19 36 49 40 21 31 77 88 89 90 89 87 85 51 17
6 21 25 99 108 113 114 115 117 116 116 116 114 113 114 113
110 112 114 115 118 120 120 117 119 120 120 117 119 119 121 121
118 116 110 108 112 39 25 26 21 24 18 11 6 3 2 2
2 1 1 0 0 25 34 23 8 8 8 7 11 16 20 21
22 24 27 20 0 0 0 0 0 0 0 0 0 0 0 0
47 41 38 34 32 32 31 30 31 30 31 32 35 36 35 35
34 35 35 34 30 27 26 27 27 27 28 28 28 27 20 18
18 19 34 49 41 22 30 76 88 89 89 69 44 29 16 9
12 24 26 96 107 112 114 116 116 116 117 118 114 115 114 114
111 113 114 114 118 119 118 117 119 119 121 119 120 119 121 120
120 115 110 111 104 28 26 27 22 22 25 19 17 15 8 5
5 5 4 2 0 18 35 26 9 8 8 7 11 16 20 21
22 24 26 21 0 0 0 0 0 0 0 0 0 0 0 0
48 42 38 34 33 32 31 31 31 31 31 32 35 35 35 35
35 35 35 34 31 27 26 26 26 27 27 28 28 25 18 18
18 19 34 49 42 22 29 75 87 68 38 28 23 20 14 5
22 23 21 86 107 112 114 115 114 115 118 119 116 115 114 114
110 112 115 116 117 117 117 117 120 120 119 119 121 119 120 120
119 116 111 112 65 24 25 24 22 20 25 25 18 17 26 30
31 30 29 17 0 12 35 28 11 8 8 8 10 17 20 20
22 23 27 22 0 0 0 0 0 0 0 0 0 0 0 0
48 41 38 34 33 32 31 30 30 30 31 32 34 35 34 34
34 34 34 34 30 26 26 26 26 26 27 27 28 23 17 18
18 19 33 49 42 22 27 54 37 23 18 23 25 22 14 6
24 23 19 62 108 111 115 117 117 117 118 118 115 115 113 112
112 114 113 114 115 115 114 115 118 119 118 118 121 122 121 121
119 117 112 99 27 24 24 22 21 18 23 30 23 13 16 25
29 31 32 24 1 6 34 29 13 8 9 9 11 17 20 19
21 22 27 22 0 0 0 0 0 0 0 0 0 0 0 0
47 41 38 34 33 33 32 31 31 31 30 31 34 35 34 35
34 35 35 34 30 27 26 26 27 27 27 27 27 22 16 19
18 19 32 48 43 27 25 22 18 20 16 21 24 26 15 10
21 22 20 39 106 110 114 114 117 118 118 118 116 114 113 111
111 114 114 112 114 116 115 115 117 118 119 119 123 122 122 123
121 117 113 58 22 24 25 22 20 19 23 28 26 15 13 17
23 27 30 33 26 20 33 32 16 9 10 9 10 17 20 20
21 23 27 23 1 0 0 0 0 0 0 0 0 0 0 0
46 40 37 35 33 32 32 31 31 30 30 31 33 34 34 34
34 34 34 33 28 25 25 26 26 26 26 26 26 21 16 18
18 18 30 43 31 21 18 12 14 20 18 19 20 26 18 10
18 20 20 23 85 109 112 115 116 117 117 117 116 114 111 110
110 111 113 114 114 114 114 115 117 117 118 118 123 123 123 122
120 117 99 25 20 23 23 20 17 20 23 26 24 19 17 17
22 27 30 34 34 33 33 36 34 22 11 8 9 15 20 19
20 21 26 23 1 0 0 0 0 0 0 0 0 0 0 0
44 39 36 34 33 32 32 31 30 30 30 31 33 34 34 34
34 34 34 34 28 24 24 25 25 25 26 25 25 22 17 18
17 23 29 22 16 16 17 11 14 20 20 16 17 22 20 12
15 18 18 17 37 99 109 112 116 115 116 117 115 113 111 111
110 109 110 112 113 115 114 113 115 117 119 121 124 125 122 122
119 111 49 19 19 21 19 17 18 23 24 25 24 23 21 20
25 29 31 34 35 34 36 35 34 37 35 24 15 13 18 19
20 21 26 23 2 0 0 0 0 0 0 0 0 0 0 0
42 37 34 35 35 32 31 30 30 29 29 30 32 34 34 34
34 34 35 34 29 24 25 24 25 25 25 25 25 21 17 22
28 24 21 18 11 15 14 12 15 18 19 16 16 18 21 15
11 16 18 17 19 50 104 111 114 113 114 115 114 112 110 112
111 110 111 113 113 114 115 112 115 117 120 124 126 124 123 119
113 62 21 16 17 20 18 16 21 22 21 25 27 27 26 27
29 30 30 31 34 36 37 34 33 30 31 31 29 27 21 19
19 21 25 23 2 0 0 0 0 0 0 0 0 0 0 0
40 36 27 34 39 32 30 29 30 28 29 30 32 33 35 34
34 34 34 34 28 24 24 24 24 24 25 24 24 22 21 23
24 22 19 18 15 7 13 13 15 16 16 15 16 15 20 17
11 14 16 15 15 17 51 103 112 116 116 114 114 112 108 110
111 110 111 111 114 115 114 113 117 118 122 125 126 121 120 93
42 21 18 17 18 15 15 17 23 21 21 27 29 31 29 29
31 31 31 29 31 32 31 30 28 27 27 26 29 31 30 24
19 20 24 24 3 0 0 0 0 0 0 0 0 0 0 0
39 34 25 34 39 32 31 30 29 29 29 30 31 33 34 34
34 34 34 34 29 24 24 24 24 24 24 25 29 30 28 23
21 20 20 20 17 15 9 11 14 15 14 14 16 15 18 18
15 12 17 16 15 17 18 43 95 114 114 113 114 111 107 106
110 110 112 112 113 116 116 115 116 122 125 124 122 100 55 23
18 15 17 16 16 14 17 23 20 22 25 31 31 32 30 33
33 32 29 28 29 30 31 30 28 26 27 26 27 26 28 33
33 24 23 23 3 0 0 0 0 0 0 0 0 0 0 0
37 29 23 38 42 33 30 30 30 29 30 30 31 33 34 34
34 34 34 33 29 24 23 24 23 24 27 30 28 29 28 29
27 24 21 21 20 19 16 12 11 14 14 15 15 15 16 17
17 13 16 16 15 16 16 15 31 73 106 112 112 109 106 105
108 110 111 113 114 116 115 115 117 121 118 96 54 25 18 17
18 17 16 16 16 14 20 20 20 23 29 31 30 32 30 34
33 31 28 29 27 27 28 27 25 24 24 25 26 26 26 27
31 40 32 24 4 0 0 0 0 0 0 0 0 0 0 0
35 24 16 27 38 31 30 30 29 29 29 29 31 33 34 34
34 33 34 33 29 24 23 24 26 29 28 26 27 27 26 27
30 28 24 22 21 20 19 16 12 11 14 15 15 14 14 16
17 15 13 16 16 15 14 14 13 15 32 64 92 104 105 104
106 108 110 111 111 113 113 110 99 75 41 23 18 15 16 15
16 16 16 16 16 18 19 18 19 24 30 29 31 32 31 33
31 29 28 27 26 27 25 24 24 25 25 25 24 24 25 27
25 30 36 33 17 15 15 16 17 17 17 17 17 17 17 16
34 22 14 21 37 31 30 30 29 30 28 30 31 32 33 33
33 33 33 33 29 24 25 29 30 29 28 26 24 25 26 26
28 30 26 25 22 22 22 21 17 13 11 12 15 15 14 15
16 16 15 13 16 14 14 13 11 11 13 13 17 29 50 63
74 82 77 73 68 60 45 27 22 19 18 17 16 16 13 13
15 16 16 16 18 21 18 19 22 28 27 29 29 32 31 30
31 31 31 29 26 26 26 26 25 25 24 24 25 24 23 24
24 26 29 30 33 25 23 23 22 22 21 20 20 20 19 18
32 20 15 24 30 30 30 30 29 29 29 29 31 33 33 33
33 33 33 32 28 27 32 30 26 24 25 23 25 25 26 26
27 28 27 26 24 24 24 21 21 19 13 9 13 15 15 15
15 16 17 15 15 16 13 13 11 11 12 10 11 9 8 10
12 14 14 14 15 15 15 17 17 17 16 15 14 15 13 17
15 15 15 19 21 20 18 21 24 27 26 27 30 31 30 31
31 31 32 29 26 24 24 24 24 24 25 23 24 24 23 21
23 25 24 26 30 29 23 22 21 21 21 20 20 19 19 18
31 18 6 10 21 28 29 30 29 29 29 29 31 32 33 33
33 33 33 33 31 30 28 28 24 22 22 21 21 21 24 25
24 26 27 24 25 26 28 23 23 24 19 11 9 12 14 14
15 16 16 17 16 14 14 14 13 12 10 11 9 10 9 11
12 14 13 14 15 14 15 14 16 15 15 16 14 15 18 17
18 15 18 23 20 18 20 25 26 27 26 28 29 30 28 31
28 30 29 25 23 24 25 24 23 22 24 22 21 22 22 21
22 25 23 23 25 28 25 18 17 15 15 14 13 12 11 10
30 16 1 7 24 29 30 29 29 28 29 29 30 32 33 32
33 32 33 33 31 24 23 25 22 20 20 22 22 22 25 25
24 25 26 24 26 26 27 24 24 25 23 16 9 10 13 13
15 15 15 14 15 15 13 14 14 13 13 13 12 12 11 13
14 14 16 13 15 15 15 15 17 17 18 18 18 20 21 17
16 19 21 20 20 21 25 26 26 26 27 27 29 31 30 28
29 29 29 26 24 23 22 23 24 22 22 21 20 21 22 20
22 23 21 25 23 22 31 17 16 15 15 15 15 15 14 14
30 16 2 7 27 29 29 29 29 28 29 29 30 31 32 32
32 32 33 30 24 21 20 20 20 20 19 21 21 23 24 25
23 25 24 24 25 24 25 25 25 26 25 21 15 10 12 12
14 15 14 14 13 14 14 13 14 15 16 18 16 16 16 15
15 15 15 15 15 15 17 18 20 21 20 21 19 16 16 16
21 21 20 19 20 24 26 25 27 27 28 27 28 29 29 27
27 26 26 23 20 20 21 23 24 21 21 20 21 20 20 20
21 23 19 24 21 21 28 27 18 15 14 13 11 10 9 8
32 18 6 9 27 29 29 29 29 28 28 29 30 31 32 32
32 32 31 25 20 20 17 19 19 18 18 20 20 22 23 24
24 25 24 24 25 24 25 24 24 24 25 22 20 16 13 13
14 14 14 14 14 14 14 11 11 10 10 14 16 17 18 18
19 19 17 17 18 18 17 18 19 18 17 13 13 14 17 19
22 20 18 18 23 24 26 24 23 26 26 27 28 28 27 25
25 26 24 23 20 21 20 20 21 21 20 19 21 20 20 20
20 22 16 21 20 20 25 29 7 0 0 0 0 0 0 0
35 19 13 24 34 29 29 29 29 29 29 29 30 32 32 32
32 32 27 19 18 21 17 17 18 18 18 22 23 24 25 25
25 26 24 25 25 22 24 23 24 24 25 22 24 21 19 16
15 14 15 15 15 13 13 13 12 10 8 7 8 9 10 14
15 16 16 16 15 15 14 13 10 11 11 12 14 17 20 20
19 18 18 21 23 24 25 24 24 26 26 27 26 26 26 26
25 24 23 21 20 20 20 20 22 23 20 20 22 21 20 19
21 22 13 19 18 21 24 25 16 0 0 0 0 0 0 0
33 19 16 31 36 29 30 30 29 29 29 29 30 31 32 33
32 30 25 16 18 21 17 15 18 19 20 22 23 24 25 27
27 25 24 23 24 24 24 24 24 25 23 23 25 24 23 21
18 17 16 14 14 12 12 11 12 11 9 8 8 6 6 5
7 7 7 9 9 9 10 10 12 14 14 17 20 21 22 19
18 18 22 24 24 25 25 23 24 25 25 25 27 27 26 25
23 23 22 21 20 20 21 19 22 21 20 20 21 20 19 19
23 19 10 20 18 20 23 23 26 14 15 15 16 14 12 8
