P2
128 120
148
39 40 40 40 41 42 41 42 42 43 43 43 44 44 45 45
45 45 46 46 46 47 47 47 47 48 48 48 48 48 48 49
49 49 49 49 50 49 49 50 49 50 50 50 50 50 50 50
49 49 49 49 49 49 49 48 48 48 48 47 47 47 47 46
46 46 46 44 44 44 43 43 42 43 42 41 41 40 40 40
39 39 38 38 38 37 37 37 37 36 36 36 36 35 35 35
35 35 35 35 35 35 35 35 35 36 36 36 36 37 38 38
39 39 39 40 40 41 41 42 43 43 44 45 45 45 46 46
39 39 40 40 40 41 41 42 43 43 43 43 44 44 45 45
44 45 46 46 46 46 46 47 47 48 48 47 48 48 48 48
48 49 49 49 49 49 49 50 50 50 50 50 50 50 50 49
49 49 49 49 48 48 48 48 48 48 48 47 48 47 47 47
47 46 46 46 45 44 44 43 43 42 42 41 41 40 40 40
40 38 38 38 38 37 37 36 37 37 36 36 36 36 35 36
35 35 35 36 35 35 35 36 36 36 36 37 37 37 37 39
39 39 39 40 41 41 41 42 43 43 44 44 45 45 46 46
39 39 40 40 41 41 42 42 43 43 44 44 44 44 45 45
45 46 46 46 46 47 47 47 47 47 48 48 49 48 48 48
49 49 49 48 49 49 50 50 50 50 51 50 49 49 50 49
49 49 48 48 49 48 49 48 48 48 47 47 47 47 47 46
46 46 46 45 46 45 44 43 43 43 43 42 42 41 41 41
40 40 39 39 38 38 38 37 37 37 37 36 37 36 36 36
36 35 35 35 36 36 36 36 37 36 36 37 38 38 38 39
39 39 40 40 41 41 42 42 43 43 44 44 45 45 46 46
39 40 40 40 41 41 42 43 43 43 43 44 44 45 45 45
46 46 46 47 47 48 48 47 47 47 48 48 48 48 49 48
49 48 49 49 50 50 50 50 49 49 50 50 50 50 49 49
48 49 50 49 49 49 48 48 48 48 48 47 48 48 47 47
47 47 47 46 46 45 45 44 44 43 43 43 42 42 42 41
41 40 40 40 39 39 39 38 38 37 38 37 37 36 36 36
36 36 36 36 36 36 37 36 37 36 37 37 38 38 38 39
39 39 41 40 41 42 43 43 43 44 44 44 45 46 46 47
40 39 40 41 41 41 42 42 43 43 43 44 45 44 45 46
46 46 47 47 47 47 48 47 48 48 47 48 48 48 49 48
48 49 49 49 49 49 50 50 49 49 49 50 50 50 50 49
49 49 49 48 48 48 49 49 48 48 48 48 48 48 47 47
47 47 46 46 46 45 44 44 43 43 43 43 43 41 41 41
41 40 40 39 39 39 38 38 38 38 38 37 37 37 37 37
37 37 37 36 36 36 37 36 37 37 37 38 38 38 38 39
39 40 40 40 41 42 42 43 43 44 44 45 45 46 46 46
40 40 40 41 41 41 42 42 42 43 43 44 44 44 45 46
46 46 47 47 47 48 48 48 48 48 48 48 48 48 48 49
49 49 49 49 49 49 50 50 49 49 49 50 49 49 49 49
49 49 49 48 48 49 49 49 48 48 48 48 48 48 48 47
47 47 46 46 46 45 45 44 44 44 43 43 42 42 42 42
41 41 40 40 40 40 39 38 38 38 38 37 37 37 37 37
37 37 37 37 37 37 37 37 38 37 37 38 38 39 39 39
39 39 41 41 41 42 42 43 43 44 44 45 44 46 46 47
39 40 40 40 41 42 42 42 43 43 43 44 45 44 45 45
46 46 46 47 47 47 48 48 48 48 48 48 48 49 48 48
49 48 49 49 49 49 49 50 49 49 49 49 49 49 49 49
49 49 49 49 49 49 49 49 48 48 48 48 48 48 48 47
47 46 47 46 45 45 45 45 44 44 44 44 44 43 43 42
41 41 40 40 39 39 39 39 39 38 38 38 38 38 37 37
37 37 37 37 38 37 38 37 37 37 38 38 38 38 38 39
40 40 41 41 41 42 42 43 43 44 44 45 45 45 46 45
39 40 40 41 42 41 42 43 43 43 44 44 44 44 45 45
46 46 46 47 47 47 48 47 48 49 48 48 49 48 48 48
49 49 49 49 49 49 49 49 49 49 49 49 49 49 49 49
49 49 49 49 48 48 48 49 49 48 48 48 48 48 48 47
48 47 46 46 46 46 45 45 45 44 44 44 43 43 42 42
42 41 41 41 40 40 40 39 39 39 39 38 38 38 38 38
37 38 37 37 37 37 38 38 38 38 38 38 39 39 39 39
39 40 41 41 41 42 42 43 43 44 44 45 45 45 46 46
40 40 41 41 41 42 42 42 42 43 43 44 44 45 45 45
45 45 46 47 47 47 48 47 48 48 48 49 48 48 49 49
49 49 49 49 49 48 49 49 49 49 49 49 49 49 49 49
49 49 48 49 49 49 49 48 49 48 48 48 48 47 48 47
48 47 47 46 46 46 46 45 45 45 45 44 43 43 43 42
42 42 41 40 41 40 39 39 39 39 39 38 39 38 38 38
38 38 38 38 37 38 38 38 38 38 38 38 38 39 39 39
39 40 41 41 41 42 43 43 43 44 44 45 45 45 45 46
40 41 41 41 42 42 42 43 43 44 44 45 45 45 45 45
45 45 46 46 47 47 47 47 47 48 48 48 48 49 49 49
49 49 49 49 49 49 49 48 49 49 49 49 49 49 49 49
49 49 49 49 49 49 49 49 49 49 48 49 48 47 48 47
47 47 47 46 46 46 45 45 45 44 45 44 44 43 43 43
42 42 41 41 41 41 40 40 39 40 39 39 39 39 38 38
38 38 38 37 38 38 38 38 38 39 38 39 39 39 39 40
40 40 41 40 41 42 42 43 43 43 44 44 45 45 45 46
40 40 41 41 41 41 42 42 43 43 44 44 44 45 45 45
45 45 46 46 47 47 47 47 48 48 48 48 48 48 49 48
48 49 49 49 49 49 49 49 49 49 49 48 49 49 49 49
49 49 49 48 49 49 49 48 49 48 48 48 48 48 47 47
47 48 47 46 46 46 46 45 46 45 44 44 44 43 43 42
42 41 41 41 41 41 40 39 40 40 40 39 39 39 39 38
38 38 38 38 38 38 38 38 38 38 38 38 39 39 39 40
40 40 41 42 42 42 42 43 43 44 44 44 44 45 45 45
40 40 41 41 41 41 42 42 43 43 44 44 44 44 45 45
45 45 45 45 46 46 46 47 47 48 48 48 48 49 49 48
49 49 49 49 49 49 49 49 49 48 48 49 49 49 49 49
49 49 48 49 49 49 49 49 48 48 48 48 48 48 47 47
47 47 47 46 46 46 45 45 45 44 44 44 44 43 43 43
42 42 43 42 41 41 40 40 40 39 39 39 39 39 38 38
38 38 38 38 39 38 38 38 38 38 38 39 39 39 40 40
40 40 41 41 41 41 42 42 43 43 43 44 45 45 45 45
40 40 41 41 41 42 42 42 43 43 44 44 44 44 45 46
45 46 46 45 46 47 47 47 47 48 48 48 48 48 48 48
49 49 49 49 49 49 49 50 49 49 50 49 49 49 49 49
49 48 49 48 49 49 49 48 48 48 48 48 48 48 48 47
47 47 47 47 46 46 46 45 44 45 44 44 45 43 43 43
43 42 42 42 41 41 41 40 41 40 40 40 40 39 39 39
39 39 38 38 38 38 38 38 38 39 39 39 39 40 39 40
40 40 40 40 41 42 42 43 42 43 44 44 44 45 45 45
40 40 41 41 42 42 42 42 43 43 44 44 44 44 45 45
44 45 45 45 46 46 46 47 47 47 47 48 48 48 49 48
48 48 48 49 48 49 49 49 49 49 49 49 49 49 49 49
49 48 49 48 48 48 48 48 48 47 47 48 47 48 47 47
47 47 47 46 45 46 45 45 45 44 45 43 43 44 43 43
43 42 42 41 41 41 41 40 40 40 40 40 39 40 39 39
39 39 39 38 39 38 38 38 38 38 39 39 39 39 39 39
40 40 41 41 41 41 41 42 43 43 43 43 44 45 44 45
40 40 41 41 41 42 42 43 43 43 44 43 44 44 44 45
45 45 45 46 46 46 47 47 47 47 48 48 48 47 48 48
48 48 49 49 48 49 49 49 49 49 49 49 49 49 49 48
48 48 48 48 48 48 48 48 48 48 48 49 48 47 48 48
47 47 47 45 44 43 43 45 45 44 44 43 44 43 43 43
43 43 42 42 42 42 41 40 41 40 40 40 40 39 39 40
39 39 39 39 39 38 39 39 38 38 39 39 40 39 40 40
40 40 41 41 41 41 41 42 43 43 43 44 44 44 45 45
41 41 42 41 42 42 42 43 43 43 43 43 44 44 45 45
45 45 46 46 46 47 47 47 47 47 48 47 48 48 48 48
48 48 48 49 48 49 49 49 49 49 49 49 49 49 49 49
49 49 48 48 48 48 48 47 48 47 48 47 47 47 47 47
46 47 45 43 46 43 39 42 44 45 43 43 44 44 43 43
43 42 42 41 42 42 41 41 41 41 40 40 40 39 39 39
39 39 39 39 39 39 39 39 39 39 39 39 40 40 40 40
41 40 40 41 41 41 41 42 42 43 43 43 44 44 44 44
40 41 40 41 41 42 42 42 43 44 44 44 44 44 45 45
45 45 46 46 47 46 47 46 47 47 47 47 47 47 48 48
48 48 48 48 48 49 49 49 49 49 49 49 49 49 50 49
49 48 49 49 48 48 48 48 47 47 48 47 47 47 47 47
44 46 44 35 37 42 41 42 42 43 42 45 44 43 43 43
43 42 42 41 42 42 42 41 41 40 40 40 40 39 39 39
39 39 38 38 39 38 39 38 38 38 39 39 39 39 40 40
41 40 41 41 41 41 42 42 42 42 43 43 44 44 44 44
40 40 40 41 41 41 42 42 43 43 43 43 44 44 44 45
45 45 46 46 46 46 47 47 47 47 47 47 48 48 48 48
48 48 48 49 48 49 49 49 49 49 49 49 49 49 48 48
49 49 49 49 48 48 48 47 48 47 47 46 47 46 46 45
47 43 35 28 26 28 34 37 41 40 41 44 43 44 43 43
43 42 42 42 42 41 41 41 40 41 40 40 41 40 40 39
39 39 39 39 39 39 39 38 39 38 39 39 39 39 40 40
40 40 41 41 41 41 42 42 42 42 43 43 43 44 44 44
40 40 41 41 41 41 42 42 43 42 43 44 43 44 44 45
45 45 45 45 46 46 46 46 46 47 47 47 47 47 48 48
48 48 49 48 49 48 48 49 48 49 49 48 48 49 49 48
49 48 48 48 48 48 47 47 48 47 47 47 44 45 44 42
40 35 31 32 28 30 27 28 32 35 40 41 43 44 42 43
43 43 42 42 42 41 41 41 41 40 41 40 39 39 40 40
39 40 40 39 39 39 39 39 39 38 38 39 39 39 39 39
40 40 40 41 41 41 42 42 42 42 42 43 42 43 43 43
40 40 40 41 41 41 42 42 43 43 43 43 43 44 45 44
45 45 45 46 47 46 46 46 46 46 47 47 48 47 47 48
48 48 48 48 48 48 49 48 48 48 49 49 49 48 49 49
49 48 48 48 48 48 48 47 47 46 46 43 36 35 38 40
33 29 28 23 20 29 27 24 21 32 36 44 43 43 42 43
42 42 42 41 42 41 41 40 40 40 41 40 41 40 40 40
40 39 39 40 39 39 39 39 39 39 39 39 40 39 40 40
40 40 41 41 41 41 42 41 42 42 42 42 43 43 43 43
40 40 40 41 41 41 42 42 43 43 43 43 44 44 44 44
45 46 45 46 46 46 46 46 46 46 46 46 47 47 47 47
48 48 48 48 48 48 48 48 48 49 49 48 48 48 48 48
49 48 48 48 47 47 44 41 41 41 36 34 35 35 34 31
23 25 22 18 11 16 15 18 20 23 32 43 44 43 43 43
43 42 42 42 42 42 41 41 41 41 40 40 40 40 40 40
40 39 39 39 40 39 39 39 39 39 39 40 39 39 40 39
40 40 41 40 41 41 41 42 42 42 43 42 42 42 43 42
40 40 41 41 41 41 42 42 42 43 43 43 43 44 44 44
45 45 45 46 46 46 46 46 46 46 47 47 47 47 48 48
47 48 48 48 48 48 48 48 48 48 48 48 48 48 48 48
48 48 48 48 45 37 38 30 35 28 29 26 28 25 25 23
26 26 18 12 11 7 6 10 12 16 23 40 41 40 42 41
42 42 43 42 42 41 41 42 41 41 40 41 41 41 41 40
39 40 39 39 39 39 39 39 39 38 39 39 39 39 39 39
40 40 40 40 41 41 41 42 42 42 42 43 43 42 43 43
40 40 41 41 42 42 43 42 43 42 43 43 43 44 44 44
45 45 45 45 45 45 46 46 46 46 46 47 47 47 47 47
48 48 48 48 48 48 48 48 48 48 48 48 48 48 47 48
47 47 48 46 30 26 25 27 27 25 21 21 21 23 15 15
14 13 11 8 3 4 5 6 4 7 15 32 41 40 40 42
42 41 41 41 42 42 42 41 41 41 41 40 40 40 40 40
40 40 39 39 39 39 40 39 39 39 39 39 39 39 39 40
39 40 40 40 40 40 41 41 41 41 42 42 42 42 42 42
41 41 41 41 41 42 42 43 43 43 44 44 44 44 44 44
44 45 45 45 46 46 45 46 46 46 45 46 47 47 47 47
48 47 48 48 48 47 48 47 48 47 48 48 48 48 48 48
48 47 46 27 22 26 26 24 32 23 17 13 11 16 10 8
15 19 10 8 5 2 5 3 1 1 9 21 35 38 40 42
42 41 42 41 41 42 42 42 41 41 41 41 41 40 40 40
40 40 39 40 39 39 39 39 39 39 39 39 39 39 39 40
40 40 40 41 41 41 40 41 41 41 41 41 42 42 42 42
41 41 41 42 42 43 42 43 42 43 43 43 44 44 44 44
44 45 45 45 45 45 46 46 46 46 46 46 47 46 47 47
47 47 47 47 47 47 47 47 47 48 48 47 48 47 48 48
48 47 35 21 20 21 21 19 17 13 15 14 10 9 8 14
14 16 13 7 4 5 3 1 0 2 10 14 27 32 34 34
36 37 39 41 41 42 42 41 42 41 41 41 41 41 40 39
39 39 40 39 40 39 39 39 39 39 39 39 39 40 39 39
39 39 40 40 40 40 40 40 40 40 41 42 41 42 42 42
41 41 41 42 42 43 42 43 43 43 43 43 44 44 45 44
44 44 45 45 45 45 46 46 46 46 46 46 47 46 47 46
47 46 47 47 47 47 46 47 47 47 47 47 47 47 47 46
47 46 25 16 18 20 17 21 16 15 9 10 9 5 6 17
19 26 20 8 5 1 0 3 6 2 9 14 18 18 22 26
28 29 31 35 39 42 41 42 42 41 41 40 41 41 40 40
39 39 39 39 40 39 40 39 39 39 40 39 39 39 39 39
39 39 40 40 40 40 40 40 41 40 41 41 42 41 42 42
41 41 42 42 42 42 43 43 43 43 44 43 44 44 45 44
45 44 45 45 46 45 45 46 46 47 46 46 47 47 47 47
47 47 47 47 48 47 48 47 47 48 47 47 48 47 47 47
45 32 14 16 20 16 16 13 7 6 5 2 1 5 12 18
19 14 12 3 0 0 1 7 12 6 7 9 16 16 17 20
20 22 28 29 28 36 38 41 42 41 41 40 41 40 41 40
40 40 40 40 39 39 39 40 40 39 40 40 40 39 40 40
39 39 40 40 40 39 40 40 40 41 41 41 41 41 42 42
42 42 42 42 42 43 43 43 43 43 44 44 44 44 44 45
45 46 45 45 46 46 45 46 46 46 46 46 47 46 47 46
47 47 47 47 47 47 47 47 47 48 47 48 48 48 47 46
40 20 23 18 14 12 12 10 7 6 5 1 1 7 17 15
14 16 7 1 2 0 1 12 14 9 6 8 11 17 17 18
17 18 21 23 27 28 35 38 39 42 41 41 40 40 40 41
41 40 39 40 40 40 40 39 40 39 40 39 40 40 40 40
39 40 40 40 40 40 40 40 41 41 41 42 42 42 41 41
41 42 43 43 44 44 44 44 45 44 45 44 44 45 44 45
45 46 46 46 46 46 47 46 46 47 47 47 47 48 48 47
48 47 47 47 47 47 47 48 48 48 48 47 48 48 48 44
28 21 24 15 16 10 8 7 5 5 8 5 7 8 16 18
17 10 9 4 3 2 1 9 12 11 7 9 7 12 17 19
18 17 17 19 19 26 30 31 37 41 41 41 42 40 40 41
41 40 40 41 40 40 40 40 40 40 40 40 40 40 40 39
40 40 40 40 40 40 41 41 41 41 42 41 42 41 42 42
28 30 31 33 36 37 39 40 42 43 45 45 46 45 46 46
46 46 46 46 46 46 47 47 48 47 47 47 47 47 48 48
48 48 48 48 48 48 48 48 48 48 48 48 48 48 44 28
22 25 24 14 14 10 4 8 9 8 6 5 6 6 10 16
21 10 8 7 4 1 1 8 10 12 9 12 8 9 11 17
17 17 16 16 18 21 28 28 35 39 41 42 42 41 41 41
41 41 41 40 41 41 41 40 40 40 41 40 40 40 41 40
40 40 41 41 41 41 40 41 41 41 42 42 42 42 42 41
24 24 25 25 25 26 27 26 28 29 30 30 32 34 37 40
41 43 45 45 46 46 47 48 47 47 48 48 48 48 48 48
48 48 48 48 48 48 48 48 48 48 48 48 48 45 23 16
12 21 17 13 9 6 10 8 11 6 3 3 3 12 11 16
17 21 12 4 6 1 5 11 15 15 12 14 12 8 9 19
20 16 13 12 17 18 21 25 30 34 41 42 41 41 41 42
41 41 41 40 41 40 40 41 40 40 41 40 40 40 40 43
53 50 48 45 43 42 42 41 41 41 41 41 41 42 43 42
22 21 21 22 23 23 23 23 23 24 24 23 23 25 26 26
26 26 27 28 30 31 34 35 38 40 42 44 46 47 48 48
48 48 48 48 48 49 48 48 48 48 48 48 47 38 17 17
24 20 13 14 8 10 10 12 7 2 5 3 7 11 16 10
14 10 16 12 8 8 10 19 21 19 17 19 16 10 7 16
25 21 16 10 13 16 18 22 26 32 38 41 42 41 41 41
41 41 41 41 41 41 41 41 40 40 40 40 40 40 40 41
60 61 59 60 57 55 55 54 51 47 44 41 41 42 44 50
17 17 17 18 19 20 21 21 21 22 22 21 21 22 22 22
23 22 23 23 22 21 22 22 22 22 22 24 26 28 30 32
35 39 41 43 45 46 47 48 48 49 49 48 45 29 16 19
32 23 11 11 11 9 11 4 3 7 4 3 7 15 14 16
16 23 21 17 15 15 14 26 26 29 31 21 15 12 11 25
21 27 18 11 13 15 20 23 23 31 37 41 42 41 41 41
41 41 41 41 41 41 41 40 41 40 40 40 41 40 40 38
54 50 22 27 32 32 38 52 59 62 62 45 41 41 40 45
25 21 18 19 19 18 17 17 17 17 18 19 19 20 20 22
21 21 21 21 19 20 21 21 20 20 21 20 20 19 19 20
19 20 21 21 23 25 27 29 32 35 38 40 38 21 16 19
17 11 8 9 9 11 6 2 5 9 4 8 8 12 12 18
19 24 28 28 23 21 20 30 48 40 45 34 27 17 19 25
27 27 29 15 11 12 16 20 23 31 33 44 41 41 41 41
41 41 41 41 41 40 40 40 40 40 39 40 40 40 40 37
49 47 4 0 0 4 12 10 13 32 62 47 41 41 34 36
34 29 32 33 30 32 32 30 29 27 23 24 23 21 19 18
17 16 17 17 17 18 18 18 17 17 18 18 19 21 20 18
18 18 18 18 18 18 17 14 12 13 14 17 24 23 24 26
18 16 16 7 11 9 5 7 9 7 12 14 12 20 22 23
17 18 32 29 29 31 30 29 50 51 55 50 40 25 30 34
33 29 27 15 8 11 13 19 29 32 34 34 40 41 42 41
41 41 41 40 40 40 40 40 40 40 40 40 39 39 39 36
50 51 7 0 0 2 6 3 0 13 62 52 40 40 34 29
34 28 32 35 30 36 36 34 35 31 29 33 36 36 35 33
32 30 29 26 25 24 22 20 18 17 17 16 18 18 18 17
15 16 16 16 17 17 18 14 12 11 11 12 22 16 28 25
19 24 14 10 9 5 10 12 11 13 11 9 15 21 24 28
17 17 25 30 32 35 37 34 38 57 73 60 52 38 35 43
38 23 24 19 10 13 12 18 31 38 26 30 39 41 41 41
41 41 40 40 40 40 40 39 40 40 39 39 39 39 39 36
48 55 11 0 0 0 0 0 0 6 58 55 40 40 33 23
33 27 33 33 30 34 36 33 36 28 33 32 38 38 38 38
38 38 34 32 36 36 34 33 33 34 32 31 29 27 25 23
21 20 18 17 16 15 16 15 14 14 15 15 12 23 35 32
27 26 11 13 6 7 18 15 12 21 15 13 16 15 23 26
16 23 32 40 46 55 63 51 42 58 73 73 61 56 42 37
31 30 24 23 16 17 16 13 26 36 24 24 39 40 41 41
41 40 40 40 40 40 40 40 40 40 40 40 40 39 39 36
47 60 18 0 0 1 1 1 0 1 51 58 39 40 33 23
35 33 33 33 32 33 35 33 35 31 36 33 38 38 38 38
38 38 33 34 38 36 32 38 39 38 33 38 34 33 33 36
37 36 35 32 31 30 27 25 23 18 17 16 12 25 37 25
22 20 20 17 12 19 27 10 18 21 13 11 19 20 30 32
22 32 48 57 66 74 82 73 45 65 67 82 65 74 52 43
30 28 30 23 20 22 24 19 19 31 16 16 36 40 41 41
41 40 40 39 39 40 40 40 40 40 39 39 39 39 39 36
42 60 25 0 0 0 1 1 0 0 41 60 39 39 32 22
35 35 35 36 36 36 36 36 36 37 37 34 37 37 37 38
38 38 36 36 34 38 34 40 39 34 33 37 37 36 39 37
38 37 36 34 39 40 39 39 36 23 16 15 15 22 28 18
19 17 24 22 16 11 10 11 25 13 11 28 31 39 45 44
34 49 71 81 85 84 90 88 67 66 80 78 70 72 65 52
34 28 29 30 21 26 24 27 20 20 14 14 37 40 42 43
43 46 46 45 43 42 41 41 40 39 39 39 39 39 39 34
37 59 33 0 0 0 1 0 0 0 34 62 42 38 32 22
35 35 36 36 36 36 36 37 37 37 37 37 38 38 38 37
38 37 34 33 35 38 37 39 38 34 36 38 37 38 40 37
37 36 38 35 38 40 40 40 39 26 16 16 9 15 21 14
25 16 30 15 14 8 8 10 9 8 19 28 39 62 72 68
67 72 93 95 88 85 91 94 91 73 92 78 77 76 74 66
46 31 24 34 28 28 24 29 28 22 17 20 39 40 40 47
46 49 51 52 52 49 46 44 43 39 40 40 40 40 39 34
33 60 44 1 15 12 3 1 0 0 27 62 44 38 32 21
34 34 35 35 35 35 36 36 36 36 36 37 37 38 38 38
39 39 39 38 39 39 39 39 38 39 39 38 39 40 41 39
34 38 39 36 34 39 41 40 39 27 19 16 6 10 19 15
15 14 35 19 8 10 8 9 9 20 32 38 57 82 98 96
96 90 112 109 95 88 90 97 93 92 90 107 98 84 94 73
60 33 22 27 28 26 26 24 28 14 10 16 38 40 40 49
46 50 51 52 52 52 49 44 43 39 39 40 40 40 39 33
30 54 49 9 29 28 16 6 11 9 36 58 45 36 32 21
36 35 36 36 36 36 36 36 37 37 36 37 38 38 38 38
39 37 36 36 37 38 38 39 39 40 40 40 40 41 41 41
40 41 40 38 37 40 41 40 39 26 19 10 2 5 13 15
9 10 32 20 15 17 9 9 20 29 67 62 88 110 101 106
110 98 117 110 110 104 102 110 104 92 102 111 113 97 101 96
71 44 23 20 24 20 21 20 13 6 14 14 38 40 43 52
49 47 47 46 48 49 46 42 39 26 27 30 33 34 36 32
27 45 47 29 34 33 30 24 26 24 35 53 44 35 32 21
36 36 36 36 36 36 37 36 37 36 37 37 38 38 38 38
39 39 39 39 38 38 38 37 38 37 38 38 39 40 40 40
41 41 41 41 42 42 42 41 39 25 18 8 1 3 17 18
8 4 16 13 17 8 11 17 33 53 79 60 100 106 107 118
116 91 113 118 118 116 116 120 117 105 97 109 115 115 100 112
95 54 32 18 17 15 17 15 6 8 9 12 39 41 43 50
47 48 47 47 48 49 48 48 39 17 20 20 21 21 22 23
22 31 34 34 36 37 39 38 41 37 35 41 37 34 31 21
36 37 37 36 37 37 37 37 37 37 38 38 38 38 38 38
39 39 39 39 40 40 40 39 40 40 40 40 40 40 39 39
39 39 40 39 40 40 41 41 39 27 19 6 0 6 16 16
8 6 12 15 11 9 21 46 55 77 69 79 108 116 121 118
120 95 107 127 121 114 116 117 120 119 109 105 116 123 115 113
112 82 44 15 12 9 13 9 8 6 1 23 41 41 44 52
50 51 50 50 49 48 47 51 39 19 21 21 21 22 21 21
22 22 22 22 21 19 19 18 20 21 23 25 28 34 31 22
35 36 36 36 36 36 37 36 37 38 37 38 38 39 39 38
39 39 40 40 40 39 40 40 40 40 41 41 41 41 41 41
41 42 41 42 41 41 41 41 40 27 21 6 0 3 7 10
5 4 6 15 17 18 33 51 91 103 104 109 120 123 119 118
118 100 99 126 123 113 117 117 122 122 124 116 116 120 120 116
117 106 67 20 6 2 5 4 4 1 1 36 41 41 43 54
50 49 48 50 51 50 52 51 38 22 20 20 16 18 19 20
22 22 22 23 24 24 24 28 23 17 18 18 21 23 24 19
36 36 36 36 37 37 37 37 38 37 37 37 38 38 39 39
39 39 40 40 40 40 40 40 41 41 41 41 41 41 41 41
42 41 42 42 42 41 41 41 40 27 23 7 0 0 1 4
4 3 4 9 13 22 35 70 111 115 119 120 124 124 120 120
121 114 97 119 119 112 115 119 123 125 127 122 119 120 121 122
118 114 95 31 8 5 9 1 0 0 9 40 41 41 45 54
55 51 47 49 49 49 49 49 38 24 21 20 13 27 26 22
22 25 33 33 32 33 37 44 35 21 22 21 21 21 21 16
35 36 35 36 36 37 37 38 37 37 37 38 38 38 38 38
39 39 39 40 40 40 40 40 40 41 41 41 41 41 42 42
41 42 42 42 42 42 42 41 40 25 19 11 0 0 0 0
2 6 3 6 9 20 43 94 120 117 123 124 123 121 120 114
117 116 108 116 112 116 120 124 125 126 125 123 125 122 121 119
115 113 109 60 18 1 10 5 0 0 19 42 41 41 44 54
52 50 47 47 48 47 47 48 39 24 22 21 14 29 34 38
45 45 45 38 37 42 46 49 44 29 31 27 24 22 21 15
31 33 29 34 35 33 36 36 37 36 37 36 36 37 38 38
39 39 40 39 40 40 40 40 41 41 41 41 41 41 42 42
42 41 41 42 42 42 41 41 39 26 20 14 0 0 0 0
3 9 2 4 4 25 60 113 118 120 126 125 125 124 124 122
119 120 120 119 119 126 127 126 126 128 124 122 123 122 123 120
115 115 113 68 23 1 4 5 3 0 31 42 41 41 44 54
51 50 50 50 50 49 49 51 41 25 21 21 12 26 29 38
53 53 51 44 41 48 49 48 47 29 32 37 42 39 35 30
32 27 27 35 31 32 37 35 35 32 36 34 33 34 37 38
39 39 38 39 39 39 40 40 41 41 41 41 41 41 41 41
42 42 41 42 41 41 41 41 39 25 21 18 4 0 0 0
6 23 14 2 11 42 95 120 116 123 124 122 124 123 125 125
126 123 125 124 123 124 124 126 123 128 124 122 125 121 121 118
114 114 113 73 21 6 3 4 5 6 36 42 40 41 45 55
51 50 49 50 51 51 51 51 42 25 21 20 12 22 22 28
51 53 50 45 37 29 20 13 40 24 21 31 24 12 14 15
33 30 28 34 33 32 36 34 35 33 33 34 34 33 35 38
39 39 40 39 39 40 40 40 40 40 41 41 42 41 41 42
41 41 41 41 42 42 41 41 39 23 20 19 14 0 0 0
5 25 9 6 29 71 108 115 118 124 123 122 123 128 124 126
125 125 124 125 124 125 124 124 123 125 126 122 121 106 98 95
92 90 87 62 14 6 1 0 1 10 38 41 40 40 44 54
49 47 47 48 50 51 54 53 42 25 20 20 12 18 6 9
33 22 15 9 5 1 2 3 35 33 21 30 16 0 0 1
37 35 36 36 37 36 36 37 36 36 35 36 36 37 38 39
39 38 39 40 40 40 39 40 40 41 40 41 41 41 41 41
41 41 41 41 41 41 41 41 38 23 17 19 29 2 0 0
4 27 28 15 29 52 57 56 61 69 77 91 108 123 127 123
124 123 123 123 124 122 120 119 100 68 44 23 11 10 11 14
16 20 30 63 67 5 0 0 0 10 39 41 41 41 44 55
49 47 47 49 51 52 53 53 41 26 20 19 12 16 4 2
20 9 3 3 4 6 4 4 23 41 22 27 16 0 0 10
36 36 37 37 37 37 37 37 37 38 38 37 38 38 39 39
39 38 40 40 40 41 41 41 40 41 40 41 41 41 41 41
41 41 41 42 41 41 42 41 38 25 20 22 31 3 0 0
4 67 34 19 11 8 7 5 3 2 1 1 5 21 60 101
115 120 121 120 117 106 75 29 4 2 2 1 1 1 1 1
2 2 7 43 53 0 0 0 0 9 40 42 42 42 44 55
50 49 49 49 51 51 51 52 43 27 20 19 13 15 4 2
13 16 5 6 6 14 17 7 9 45 22 26 20 0 2 6
37 37 38 37 37 37 38 37 37 37 37 38 38 38 38 38
39 39 39 40 40 39 40 41 40 40 41 40 41 41 41 41
41 41 41 41 42 41 41 41 39 24 23 23 30 3 0 0
4 37 11 2 0 3 0 0 0 0 0 0 0 0 2 14
61 107 116 113 100 38 4 0 1 0 0 0 0 0 0 0
2 10 6 10 10 1 0 0 2 18 40 41 42 41 43 54
50 49 50 50 51 51 52 53 44 26 19 18 16 11 3 0
6 24 7 2 6 8 10 6 2 43 23 20 19 0 0 6
37 37 37 37 38 37 38 37 38 38 38 38 39 38 39 39
39 39 39 39 40 40 40 40 40 41 41 41 41 41 40 41
41 41 41 41 41 42 42 41 39 23 22 24 34 12 0 0
7 7 2 9 9 3 0 0 0 0 0 0 0 0 0 0
16 60 109 99 41 4 0 0 0 0 0 0 0 0 0 1
2 10 26 8 20 1 0 1 21 37 41 42 42 41 43 54
50 49 51 51 52 52 52 54 45 27 20 18 25 30 21 3
2 29 16 3 1 0 1 1 0 36 24 20 24 0 1 8
37 37 37 37 37 37 37 37 37 38 38 38 39 38 39 39
40 40 40 40 40 41 41 41 41 41 41 41 42 41 41 41
41 41 41 41 41 41 42 42 38 21 20 24 37 24 0 0
2 11 12 36 17 0 0 0 0 0 0 0 0 0 0 0
3 28 37 34 24 5 0 0 0 0 0 0 0 0 0 2
6 17 29 22 56 1 3 20 37 42 43 42 42 41 42 55
54 52 50 51 50 50 51 51 45 28 21 19 12 8 8 0
0 23 20 6 0 0 0 0 0 29 37 36 31 0 1 7
37 37 37 37 37 38 38 38 38 38 38 39 39 39 39 39
40 40 40 40 41 40 41 41 40 41 41 41 41 41 41 41
42 41 41 42 42 42 42 42 39 17 18 22 36 39 6 1
2 12 19 30 19 3 0 0 0 0 0 0 0 0 0 0
6 15 13 19 23 11 0 0 0 0 0 0 0 0 0 4
9 15 21 21 69 5 7 35 63 45 46 45 44 43 42 55
54 53 53 53 54 53 54 53 45 28 22 21 8 0 0 2
1 16 22 9 0 0 0 0 0 18 48 45 35 0 0 0
38 38 38 38 38 38 38 38 38 39 38 39 39 39 40 39
40 40 40 41 41 40 41 41 41 41 41 41 42 42 41 41
41 42 42 42 43 43 42 42 39 17 15 20 37 44 27 3
2 16 17 21 18 5 1 0 0 0 0 0 0 0 0 0
12 8 31 32 15 17 0 0 0 0 0 0 0 0 0 3
8 14 17 20 81 14 8 42 75 51 51 50 47 42 42 55
54 52 51 51 50 53 55 55 46 30 23 23 12 3 5 11
12 11 26 9 0 0 0 0 0 7 49 48 38 0 0 0
38 38 39 39 39 39 39 39 39 40 40 40 40 41 41 41
41 41 41 41 41 41 41 42 41 42 42 42 42 43 42 43
43 43 43 43 43 44 43 43 40 19 16 21 39 49 76 46
4 23 14 17 17 7 2 0 0 0 0 0 0 0 0 0
15 53 106 113 42 24 0 0 0 0 0 0 0 0 0 6
9 16 17 20 89 24 44 62 70 53 52 51 50 44 43 56
53 53 53 52 51 52 53 56 48 31 24 22 16 8 13 17
7 6 25 2 0 0 0 0 0 2 45 50 41 1 0 0
37 38 38 38 38 36 39 39 39 39 39 40 40 40 40 41
41 41 42 41 41 41 41 42 42 42 43 43 43 42 43 43
43 43 43 43 43 43 44 42 39 21 16 18 40 49 70 31
9 28 15 16 16 9 2 0 0 0 0 0 0 0 0 3
19 104 120 118 90 20 4 0 0 0 0 0 0 0 1 6
12 17 17 23 96 36 92 81 72 53 53 52 52 44 42 56
54 53 53 53 54 54 56 56 50 32 23 21 14 4 11 17
12 2 22 4 0 1 5 13 24 38 53 51 45 5 0 0
34 36 34 34 35 35 38 39 37 36 34 38 38 36 34 37
38 41 41 38 38 37 39 38 38 39 42 42 41 40 42 42
43 43 43 43 43 44 44 43 39 24 16 19 40 49 68 50
19 41 12 14 17 11 4 0 0 0 0 0 0 0 0 11
34 120 122 120 113 23 17 0 0 0 0 0 0 0 3 11
15 18 17 37 106 54 111 94 67 52 51 52 52 44 41 55
54 52 52 53 54 55 57 58 52 33 23 21 12 0 3 6
8 0 14 27 27 32 36 44 54 56 57 49 43 39 33 21
37 38 37 36 37 37 39 39 37 37 38 38 39 39 39 39
39 40 40 38 40 39 40 39 38 38 41 42 40 38 40 39
41 42 42 42 43 43 43 42 39 25 20 22 40 49 63 80
30 48 17 14 19 16 11 3 0 0 0 0 0 0 0 16
60 119 121 121 118 55 22 0 0 0 0 0 0 0 4 15
20 22 21 44 109 72 114 99 65 51 49 49 51 45 41 54
53 52 53 53 53 55 56 58 54 35 24 23 12 0 3 3
5 8 5 46 48 45 46 51 55 56 54 48 35 41 41 44
37 37 38 38 38 38 39 39 39 39 39 39 39 40 40 40
40 40 41 41 41 41 41 41 42 41 41 42 41 42 43 42
42 42 42 42 43 42 43 42 38 26 23 23 39 48 58 94
43 57 35 18 21 21 20 7 0 0 0 0 0 0 7 20
86 114 119 119 114 94 12 14 0 0 0 0 0 0 8 25
27 25 31 64 108 71 108 105 70 50 49 47 52 46 41 53
53 50 51 52 53 56 57 58 55 35 27 32 25 11 9 14
25 19 9 41 58 55 52 50 46 36 23 25 7 13 20 29
36 36 37 36 36 37 38 38 38 39 39 39 39 40 40 40
41 40 41 41 41 41 41 41 42 42 42 42 42 43 43 43
43 42 42 42 43 42 42 42 39 26 24 24 40 49 51 102
68 65 65 33 26 26 26 11 0 0 0 0 0 0 30 20
105 113 120 118 112 112 40 27 3 0 0 0 0 0 10 25
27 30 35 99 106 84 71 116 74 50 52 52 53 47 41 53
53 51 52 53 55 57 60 61 57 37 34 41 35 21 27 29
38 33 35 37 42 38 36 30 26 20 14 22 0 0 0 6
34 33 35 34 34 35 35 36 37 39 39 39 39 40 40 40
40 40 40 40 41 41 41 41 42 41 41 42 42 42 43 43
43 42 43 42 42 44 43 43 39 25 24 23 40 48 49 86
86 65 96 28 24 26 28 14 0 0 0 0 0 21 18 60
109 114 122 124 115 113 95 12 32 2 0 0 0 0 11 22
25 16 64 116 106 107 70 104 77 50 52 52 52 47 41 52
54 51 52 53 54 55 57 61 58 38 35 39 41 30 35 29
32 30 30 23 21 27 33 33 33 35 33 32 0 0 0 0
38 38 38 38 37 38 37 36 38 39 39 39 40 40 40 41
40 41 41 40 41 41 41 41 41 41 41 41 42 42 43 42
42 42 42 42 43 43 43 42 39 26 24 23 39 48 49 88
105 91 103 91 20 18 25 15 1 1 0 0 8 15 23 105
106 114 124 126 121 112 119 72 8 17 6 0 1 3 11 15
13 61 116 116 105 106 96 87 84 47 50 51 51 46 40 51
53 50 51 53 54 56 60 62 57 34 29 37 43 33 30 25
22 22 15 2 5 4 5 6 6 23 44 39 4 2 0 0
38 38 38 39 38 39 39 38 39 39 40 39 40 40 40 40
40 40 41 41 41 41 41 41 42 42 42 42 42 42 42 43
43 43 42 43 43 43 43 43 39 26 23 23 40 48 49 96
107 112 103 110 105 55 20 7 6 5 3 7 7 20 89 115
105 115 128 128 126 114 118 118 64 18 12 13 13 18 45 70
107 122 120 115 103 107 102 107 91 42 48 50 52 46 40 50
52 50 50 50 52 54 59 60 51 11 7 12 17 17 17 35
31 31 22 0 0 0 2 14 1 18 47 42 23 30 12 0
38 38 38 38 38 38 38 38 39 38 39 39 40 40 40 40
40 40 41 40 41 41 41 41 41 42 41 41 42 42 42 42
43 43 43 43 43 43 43 43 40 26 21 22 40 49 49 100
111 120 101 109 116 121 120 104 64 25 18 26 50 97 113 112
111 119 126 129 125 117 115 118 118 100 83 75 80 99 114 118
122 121 120 113 103 100 102 118 97 41 48 50 51 46 39 49
53 50 50 49 51 54 57 58 35 1 0 0 1 0 5 40
14 17 23 0 0 0 3 25 5 16 49 46 27 22 14 4
37 37 38 37 38 38 38 38 39 38 39 39 39 40 39 39
40 40 40 40 41 41 41 41 41 41 41 41 42 42 43 42
43 42 42 42 43 43 42 42 39 24 19 22 39 48 50 97
124 126 105 108 116 118 120 118 110 103 100 107 111 114 111 107
110 126 130 127 136 119 114 113 116 114 111 115 114 114 117 119
121 118 119 114 104 112 123 120 94 40 47 49 50 45 39 49
52 50 49 47 49 51 52 53 18 0 0 0 0 0 4 39
14 13 21 0 0 0 2 19 8 14 49 44 8 4 5 9
37 37 37 38 37 37 38 38 38 38 39 39 39 40 40 40
40 41 40 41 41 41 41 41 41 42 41 41 42 42 42 42
42 43 42 43 43 43 43 42 40 24 19 22 40 48 49 96
132 124 106 107 117 118 117 119 118 107 115 112 116 111 104 106
108 122 129 123 134 112 111 114 113 108 116 118 116 116 115 119
119 119 120 114 103 120 129 122 82 40 48 50 50 46 40 49
53 53 50 48 47 49 50 47 9 0 0 0 0 0 1 37
15 8 19 0 0 0 1 15 20 16 49 43 3 10 3 3
38 38 38 38 38 38 38 38 38 39 39 39 40 39 40 40
40 41 41 41 41 41 42 41 41 41 42 42 42 42 42 42
43 43 43 43 44 43 43 42 39 24 21 24 40 48 49 73
123 127 105 108 116 116 116 117 116 115 114 113 107 100 105 105
100 105 110 110 114 104 104 115 112 103 110 116 119 118 118 119
121 119 118 114 105 123 130 123 65 44 50 50 50 46 41 49
50 48 49 48 47 48 49 39 4 0 0 0 0 0 0 35
23 21 27 0 2 1 4 11 24 18 47 43 3 2 0 0
38 38 38 37 38 38 39 38 39 39 39 39 39 40 40 40
41 40 40 40 40 40 41 41 41 41 41 42 42 42 42 42
43 42 42 42 43 43 43 42 39 24 23 24 40 48 48 52
102 124 106 107 113 114 113 116 115 115 113 108 99 96 105 95
60 85 89 88 100 67 51 104 112 105 102 109 118 118 119 121
124 120 116 113 106 126 128 113 52 46 51 51 51 46 41 47
49 48 47 46 45 45 45 33 3 0 0 0 0 0 0 34
35 37 32 0 0 3 5 2 6 11 48 42 3 0 0 0
38 38 38 38 38 38 38 38 39 39 39 39 39 40 40 40
40 40 40 40 40 40 41 41 42 41 42 42 41 42 42 42
42 41 42 42 43 43 42 42 38 23 24 22 39 49 48 49
88 125 108 106 113 114 113 116 118 114 113 104 92 99 101 67
26 68 70 55 91 64 33 78 108 107 100 107 115 122 120 121
122 119 118 114 104 108 122 93 47 45 52 51 51 46 41 49
50 49 49 48 47 48 46 32 1 1 0 0 0 0 0 31
44 43 34 0 0 5 20 0 0 9 50 47 28 23 18 13
37 37 38 38 38 38 38 38 38 39 39 39 39 39 39 40
40 40 40 40 40 40 40 41 41 41 41 42 42 42 42 42
43 42 43 42 43 42 42 42 38 23 23 21 39 48 48 48
75 120 106 105 112 112 113 118 117 115 112 102 93 106 107 84
88 107 80 57 97 115 103 92 108 111 106 105 111 119 122 123
122 118 117 111 101 75 93 54 42 42 48 48 48 46 43 51
49 46 47 46 45 46 44 34 12 1 0 0 0 0 0 26
48 49 37 3 0 7 23 0 0 8 51 40 45 51 46 40
37 37 38 37 38 38 38 38 38 38 39 39 39 39 40 39
40 40 40 40 41 40 40 41 41 41 42 41 41 41 42 42
42 42 42 42 42 43 42 42 39 24 23 21 40 48 48 48
56 103 100 104 109 110 111 117 118 115 109 98 101 110 111 107
100 97 98 95 99 105 109 111 115 116 112 106 111 119 123 122
121 119 116 112 100 53 50 47 46 44 50 50 50 47 42 52
50 47 46 43 41 41 40 41 31 5 0 0 0 0 0 21
46 47 46 34 3 8 19 1 0 6 37 33 45 54 49 46
37 37 37 38 38 38 39 38 38 38 39 39 39 39 39 39
40 40 40 40 39 41 41 40 40 40 41 42 41 41 42 41
41 42 42 42 42 42 42 42 38 24 23 22 40 48 48 47
48 60 82 105 110 109 110 117 117 114 111 101 106 112 112 107
103 99 99 96 102 106 109 117 120 120 119 112 113 120 122 121
120 118 116 111 95 52 50 47 46 48 53 53 53 50 42 51
52 48 46 45 44 42 43 41 27 13 0 2 3 2 0 20
49 45 30 34 19 14 20 6 2 4 22 34 44 45 47 43
37 37 38 38 38 38 39 38 39 38 38 38 39 39 39 39
40 39 40 39 40 40 40 40 41 41 41 41 42 41 41 41
42 41 42 42 42 41 42 42 38 26 23 23 40 48 48 48
48 48 68 104 109 111 110 115 116 116 114 110 114 114 111 106
100 101 107 101 106 109 105 112 116 122 123 124 122 124 122 122
118 117 113 111 88 52 50 45 40 47 51 52 52 49 41 51
51 47 46 46 45 44 46 47 35 19 3 19 21 6 3 32
44 11 0 17 44 37 39 40 36 11 8 15 17 20 20 24
37 37 38 38 38 38 38 38 38 38 39 38 38 38 39 39
39 39 40 39 40 40 40 41 41 41 42 41 41 41 41 41
41 41 41 42 42 42 42 42 39 27 24 23 40 48 47 47
47 48 61 102 107 107 108 113 117 116 115 114 109 109 106 101
105 108 117 108 115 114 108 109 113 115 121 123 123 123 121 121
119 117 114 109 84 50 49 46 38 45 49 50 51 49 41 51
53 48 47 43 42 41 43 52 55 49 44 46 46 42 41 38
17 3 3 5 41 17 14 18 19 2 0 0 0 0 0 3
37 37 38 37 38 38 38 38 39 38 39 39 39 38 40 39
40 40 40 41 40 40 41 41 41 41 41 41 41 41 41 41
42 41 41 42 42 43 42 42 39 28 23 23 40 48 48 48
48 48 55 100 106 107 108 111 114 114 112 109 103 103 103 104
108 115 123 119 124 121 118 116 112 112 112 116 122 124 123 120
117 115 114 110 76 50 49 46 40 48 49 50 50 49 41 51
54 52 49 46 43 42 43 53 60 58 56 57 57 51 32 9
1 24 23 5 31 16 0 0 3 0 0 0 0 0 0 1
37 37 37 37 38 38 38 38 39 38 39 39 38 39 39 39
39 39 39 40 41 40 40 40 41 41 41 41 41 40 41 41
41 41 42 42 42 42 42 42 39 27 22 24 40 47 47 47
47 47 50 93 104 106 105 106 109 109 107 100 93 98 102 108
107 101 104 109 109 108 118 120 111 109 104 110 120 121 122 120
119 115 112 108 67 51 48 47 39 47 50 49 51 49 41 51
55 52 51 47 44 43 44 51 62 60 60 58 47 39 23 0
0 22 23 12 23 31 4 0 8 0 0 0 0 0 0 1
37 37 38 38 37 38 38 38 38 38 39 38 38 39 39 39
39 40 40 40 40 40 41 41 40 40 41 40 41 41 41 41
41 41 41 42 42 42 42 42 39 27 22 25 40 47 47 47
47 47 48 83 100 103 104 103 107 107 103 93 85 94 99 86
72 65 60 65 71 74 83 92 107 111 95 99 113 120 121 120
117 114 112 104 56 51 48 47 40 45 50 51 51 48 40 50
55 51 51 49 46 43 44 45 45 51 59 48 33 30 33 2
0 7 26 26 31 42 11 0 7 0 0 1 0 0 0 0
38 38 37 38 38 38 38 38 39 38 38 38 39 39 39 39
39 39 40 40 40 40 40 40 40 40 41 40 41 41 42 42
41 41 41 42 42 42 42 42 38 27 23 25 40 47 47 47
47 46 47 68 96 101 100 102 105 106 100 85 68 80 68 43
39 46 44 47 49 50 51 48 60 83 73 75 106 118 122 121
116 112 109 90 52 51 48 48 43 47 49 50 51 48 40 52
55 52 51 48 46 43 42 39 35 39 54 46 21 21 37 12
0 12 25 23 29 43 15 0 12 4 7 8 0 0 0 0
38 38 37 38 38 38 38 38 38 39 39 38 39 39 39 39
39 39 40 40 40 40 40 40 40 41 41 40 41 40 41 42
42 42 42 42 42 43 43 42 38 25 23 24 39 47 47 47
47 47 47 54 87 97 99 100 102 102 96 70 44 53 55 64
78 87 88 91 95 96 98 92 81 70 60 56 91 116 122 119
116 109 107 70 50 50 47 43 45 50 49 49 50 48 40 51
56 53 51 48 47 43 43 40 36 31 49 44 11 18 32 22
7 15 16 11 18 36 26 0 15 7 15 12 0 3 0 0
38 38 37 38 38 38 38 38 39 38 38 38 39 39 39 39
39 39 39 39 40 40 40 40 40 40 40 41 41 40 40 41
41 41 41 41 42 41 42 41 37 25 23 22 39 47 47 47
47 47 46 47 73 89 96 98 101 101 96 84 81 93 91 91
96 99 99 105 101 103 111 110 108 108 108 89 99 113 118 118
113 106 93 50 52 50 47 38 44 47 50 49 49 48 39 50
54 50 50 48 47 45 46 44 40 28 42 47 25 27 26 29
32 26 12 9 11 29 38 3 19 6 14 14 0 0 0 0
38 38 38 37 38 38 38 37 38 38 38 38 38 38 39 39
39 39 39 39 39 40 39 39 39 40 40 40 40 40 40 40
41 40 41 41 41 42 42 41 37 24 22 21 38 47 46 46
46 45 45 46 55 86 94 96 101 100 97 89 97 104 98 91
88 83 87 91 90 92 98 98 106 112 113 104 103 109 116 118
111 103 71 45 51 50 46 39 42 44 47 49 51 48 39 47
55 52 51 49 47 44 46 45 41 29 33 51 33 24 28 30
27 25 23 23 29 29 41 12 20 6 12 16 0 2 1 0
39 39 38 38 37 37 38 38 39 38 38 38 38 39 39 38
39 38 39 39 39 39 39 40 40 40 40 40 40 41 40 40
41 41 40 41 41 41 41 41 37 23 21 20 39 46 46 45
46 46 46 46 47 70 90 97 101 100 94 96 104 106 101 94
77 65 50 49 50 59 76 94 106 110 114 110 102 104 114 114
107 97 66 44 50 50 47 39 45 47 49 50 50 48 38 46
53 49 50 50 48 46 45 45 42 32 25 50 42 37 34 39
17 23 39 47 47 43 46 25 22 6 9 13 0 0 0 0
39 39 38 38 38 38 37 38 38 38 38 38 39 39 39 38
39 39 39 39 40 39 40 40 40 39 40 40 40 40 41 41
41 41 42 41 41 41 41 41 37 23 22 21 38 46 46 45
46 45 46 46 46 56 86 95 100 102 97 101 104 104 100 94
86 78 71 73 77 77 89 102 108 111 111 108 104 108 112 112
101 100 62 44 51 49 45 41 46 48 50 50 49 48 38 45
51 48 49 48 46 45 44 43 43 34 21 42 44 39 33 29
3 37 45 48 49 46 42 21 26 14 16 16 18 22 27 32
39 39 38 37 38 38 37 38 38 38 38 38 38 38 38 39
39 39 39 39 39 39 39 39 40 40 40 40 40 40 40 41
41 41 41 41 41 41 41 40 37 23 23 21 39 47 46 45
46 46 45 46 46 55 90 93 100 102 102 100 101 99 99 99
103 107 107 104 104 108 111 111 110 108 106 106 106 108 109 105
96 105 54 44 51 47 42 41 45 48 50 50 49 47 37 43
48 46 46 47 47 48 49 46 44 36 22 32 46 37 31 34
23 47 50 49 45 35 13 0 32 53 54 54 57 59 60 61
39 39 38 38 38 38 38 38 38 38 38 38 38 38 39 39
39 39 39 39 39 39 39 39 40 40 40 40 41 41 41 41
41 41 41 41 41 41 41 40 37 24 21 20 38 46 46 46
46 45 45 45 45 54 97 90 94 99 102 101 96 95 96 100
108 112 113 117 117 119 121 116 110 108 105 104 104 105 108 99
101 105 49 44 50 47 41 43 46 48 48 49 49 48 38 43
47 45 44 44 45 47 46 45 43 36 24 23 46 39 39 41
44 49 49 45 34 16 8 6 33 60 59 60 61 62 62 61
40 39 38 38 38 37 37 38 38 38 38 37 38 38 38 38
38 39 38 39 39 39 39 39 39 39 40 40 40 40 40 40
41 40 40 40 40 40 41 40 37 24 20 20 39 46 46 46
46 45 45 45 45 52 98 98 89 96 103 101 99 98 102 105
110 116 116 119 120 121 124 119 114 112 109 107 106 109 104 96
109 102 43 42 47 42 40 43 43 48 47 48 47 46 37 44
45 41 42 44 45 46 47 47 45 38 25 16 40 41 39 44
48 47 44 36 34 39 37 33 40 55 53 49 47 42 37 19
40 40 38 38 37 37 38 37 38 38 38 38 38 38 38 38
39 39 39 39 39 39 39 38 40 40 39 40 40 40 40 40
40 40 40 41 40 41 41 40 37 24 19 20 38 46 45 46
45 45 45 45 45 51 99 104 92 94 102 105 106 103 107 110
113 115 115 118 119 118 119 117 117 115 114 111 110 107 101 106
112 100 41 42 46 42 38 42 45 48 48 46 45 42 36 45
46 40 42 43 42 43 44 46 48 40 25 14 29 46 44 44
40 36 34 32 33 34 33 32 32 33 31 30 29 27 26 19
41 40 39 38 38 38 38 37 38 37 38 37 38 37 39 38
38 38 39 39 39 39 39 39 39 39 40 40 40 40 40 40
40 39 41 44 41 41 41 41 37 24 20 20 38 46 45 45
45 45 45 45 45 50 99 105 100 90 98 107 110 110 110 109
105 106 113 117 114 117 118 115 115 115 116 112 108 105 103 112
113 97 40 44 51 46 40 45 47 48 48 48 50 47 37 48
50 45 44 44 42 46 47 48 49 40 25 15 20 46 35 32
30 30 31 31 32 31 31 31 30 30 30 29 29 28 28 27
43 41 39 38 38 38 37 37 38 37 38 37 38 38 38 39
38 39 39 39 38 38 39 39 39 39 39 39 40 39 40 40
39 31 34 41 41 41 41 41 37 24 20 20 38 45 45 45
45 45 45 45 45 50 98 107 105 98 90 103 107 110 110 107
103 98 106 112 109 109 111 110 111 113 112 112 107 102 113 115
113 96 43 46 50 46 43 46 49 54 59 60 60 54 42 50
54 50 50 50 50 51 51 51 51 42 24 14 16 36 30 29
31 31 31 29 27 26 26 26 25 25 25 24 24 25 24 24
44 41 39 39 38 38 38 37 37 37 37 37 38 38 38 38
38 38 39 38 39 39 38 38 39 39 39 39 39 39 39 39
38 34 42 49 49 49 48 48 46 39 37 36 45 49 49 49
49 48 48 47 47 52 99 106 109 106 95 92 102 107 106 103
98 92 93 98 98 98 94 103 107 107 108 107 98 107 117 117
112 94 49 50 51 50 50 50 52 70 72 73 73 70 58 49
50 49 48 47 47 45 48 52 52 43 24 14 14 16 27 30
30 30 30 16 2 2 2 1 1 1 1 1 1 2 2 2
46 42 40 39 38 37 37 37 37 37 37 36 37 37 38 38
38 37 38 38 38 38 38 37 38 39 39 39 39 39 38 30
28 27 44 53 53 53 53 53 52 52 52 51 52 52 51 51
51 51 51 51 50 55 98 107 111 109 105 95 91 100 102 96
89 80 76 79 80 78 80 94 100 101 104 96 102 113 117 116
108 95 50 49 50 50 49 49 50 67 73 70 70 71 67 49
48 47 47 45 43 40 44 49 50 42 23 14 13 5 25 32
28 30 30 14 0 0 0 0 0 0 0 0 0 0 0 0
45 42 39 39 37 37 36 36 37 36 37 37 37 37 37 37
37 38 38 37 38 37 36 34 37 38 38 39 39 39 37 24
21 23 44 54 53 53 53 53 53 53 53 53 52 52 52 52
53 52 52 50 37 33 100 107 110 112 112 106 93 85 89 84
76 62 53 50 54 60 67 79 85 92 88 96 114 117 118 117
109 103 54 34 33 33 33 33 34 43 46 42 41 45 51 36
33 32 32 31 33 39 40 46 50 41 22 14 13 5 23 28
23 29 31 15 0 0 0 0 0 0 0 0 0 0 0 0
46 42 40 38 37 36 36 36 36 36 36 37 37 37 38 37
38 38 38 38 38 36 33 33 36 38 38 38 38 38 36 24
21 23 44 54 52 50 50 50 50 49 50 49 49 49 49 49
50 50 49 32 2 27 102 108 112 114 114 112 110 94 70 62
53 40 29 24 26 31 39 49 58 68 95 112 118 119 119 115
110 107 87 9 18 12 11 10 7 6 4 4 4 4 5 4
4 4 4 4 25 41 39 45 47 39 21 16 20 19 24 21
16 29 31 17 0 0 0 0 0 0 0 0 0 0 0 0
47 42 39 37 36 35 35 35 35 35 35 35 37 38 37 38
37 38 38 37 35 33 32 34 35 37 37 37 38 38 34 22
20 22 43 54 42 23 24 24 24 24 23 23 23 23 23 22
23 23 25 11 6 83 103 108 111 114 114 114 112 110 104 77
49 28 23 22 23 22 28 43 72 100 111 116 120 120 119 113
111 108 112 71 5 22 23 20 16 8 4 2 2 1 1 1
0 0 0 0 18 42 37 37 36 29 19 17 22 21 24 19
18 29 31 18 0 0 0 0 0 0 0 0 0 0 0 0
48 42 39 37 36 35 35 34 34 34 35 36 37 38 38 37
37 37 37 37 32 30 29 31 32 32 33 33 34 34 30 21
20 22 42 55 41 21 23 24 25 25 26 25 24 23 23 23
24 25 24 7 42 106 103 107 109 114 114 113 112 112 112 106
97 83 61 38 34 50 72 90 103 108 115 118 121 121 118 114
112 110 115 116 54 23 32 30 23 13 7 4 4 3 2 2
3 1 1 0 11 41 36 23 16 13 12 11 18 20 23 19
22 28 30 18 0 0 0 0 0 0 0 0 0 0 0 0
49 43 40 39 37 36 35 34 34 34 34 36 39 39 39 38
38 38 38 37 32 29 29 29 30 30 30 31 31 31 26 20
20 22 41 54 42 23 31 59 65 64 64 62 60 60 58 44
26 12 26 13 49 108 102 107 110 113 113 113 111 112 113 110
105 102 96 90 88 86 94 103 106 109 117 117 119 117 114 112
110 112 118 121 75 25 29 29 28 14 7 5 5 4 3 3
2 2 1 1 4 38 36 20 11 11 10 10 16 19 24 22
24 27 31 20 0 0 0 0 0 0 0 0 0 0 0 0
51 44 43 40 37 36 35 35 34 34 35 36 40 40 38 38
39 38 38 37 33 30 30 30 30 30 30 30 31 31 25 20
20 21 40 54 43 22 33 80 90 91 91 91 91 89 71 32
13 16 27 19 30 102 105 107 109 112 114 112 110 110 113 111
107 104 101 99 101 100 102 106 110 114 117 117 116 117 115 114
112 113 119 121 52 27 28 23 26 24 16 8 5 4 4 3
3 2 2 1 1 34 37 23 10 11 9 10 15 19 23 23
25 27 30 21 0 0 0 0 0 0 0 0 0 0 0 0
51 47 43 40 38 37 35 35 34 35 34 35 39 40 38 37
38 39 39 38 33 30 30 30 30 30 31 31 32 30 23 20
19 21 39 54 44 20 30 73 83 84 86 85 78 39 25 20
8 20 24 21 19 78 106 108 110 111 113 112 111 110 114 113
109 105 100 97 98 98 104 108 112 115 116 117 117 118 113 113
112 114 119 96 29 30 27 24 22 23 30 22 21 12 4 3
3 2 2 1 0 29 38 26 11 10 9 9 14 19 23 24
25 27 30 23 0 0 0 0 0 0 0 0 0 0 0 0
52 47 43 39 37 36 35 35 35 34 35 36 40 40 39 39
39 39 39 37 33 30 30 30 31 30 31 31 31 29 23 20
20 21 38 53 44 21 28 70 82 83 73 53 34 27 26 20
10 20 22 21 21 46 107 109 111 112 112 111 110 110 112 112
109 105 101 99 99 102 106 109 110 113 115 116 120 118 114 113
113 117 112 40 27 29 25 23 21 23 30 29 23 26 26 16
10 7 5 4 0 21 39 30 12 11 10 10 13 19 23 24
25 27 30 25 0 0 0 0 0 0 0 0 0 0 0 0
53 47 43 39 37 36 35 35 34 34 34 36 39 39 39 39
38 39 39 38 34 29 30 30 30 30 31 30 31 29 21 20
20 21 37 54 45 22 28 68 63 38 25 22 25 26 28 20
12 16 20 20 19 23 88 109 112 113 113 114 112 110 112 112
110 109 106 103 104 106 110 112 111 111 116 120 120 116 116 113
114 116 64 20 26 29 25 22 21 23 28 30 23 22 24 27
28 27 31 19 0 14 38 32 13 10 11 10 12 19 24 24
25 26 30 25 0 0 0 0 0 0 0 0 0 0 0 0
53 46 43 39 37 36 35 35 34 34 34 36 38 39 39 38
38 38 38 37 34 29 30 30 30 30 30 31 31 27 19 20
21 21 37 54 46 22 26 32 18 17 22 24 23 23 25 21
15 15 18 19 18 20 35 98 112 110 113 116 115 110 111 112
110 108 108 109 111 113 113 112 113 113 118 121 121 116 115 113
114 86 25 22 23 27 23 20 21 23 26 27 25 22 22 23
23 26 29 28 18 15 38 33 15 11 11 11 13 20 24 23
24 26 30 26 1 0 0 0 0 0 0 0 0 0 0 0
53 46 43 39 37 37 37 35 35 34 34 35 38 39 38 38
38 39 39 37 33 30 29 29 30 29 30 30 30 24 18 22
21 21 36 50 42 26 20 20 16 18 22 22 21 20 21 18
15 11 14 18 18 17 20 43 95 111 113 117 121 118 113 110
110 108 109 111 112 111 113 115 115 117 122 122 117 114 115 112
88 30 22 18 22 24 21 19 25 25 25 26 27 26 25 24
23 23 26 25 24 25 30 32 22 13 12 12 13 20 23 23
24 26 30 26 1 0 0 0 0 0 0 0 0 0 0 0
51 45 41 39 37 37 36 35 34 34 34 35 37 38 38 39
39 38 39 37 33 28 28 28 29 29 29 29 29 23 19 21
20 23 32 26 22 20 16 19 16 16 19 20 20 21 20 18
16 14 13 16 17 17 16 20 35 79 109 113 120 121 117 111
110 110 109 113 113 114 114 112 115 119 121 120 114 109 83 48
26 19 19 18 22 22 20 22 26 24 26 29 30 29 29 26
26 25 26 27 28 30 26 25 27 25 20 15 11 18 23 22
23 25 29 26 2 0 0 0 0 0 0 0 0 0 0 0
50 44 41 39 38 37 36 35 35 34 34 35 37 38 39 39
39 38 39 38 33 28 27 28 28 28 29 28 29 25 20 20
22 27 26 19 18 17 18 18 18 17 19 18 18 19 19 16
14 15 14 16 19 17 17 18 18 22 46 85 111 121 120 115
111 110 109 111 110 111 112 114 116 120 118 95 62 34 23 20
18 18 18 18 19 18 20 25 26 27 32 31 32 31 30 29
29 27 26 28 30 28 27 27 26 27 24 24 22 17 22 23
24 25 30 27 2 0 0 0 0 0 0 0 0 0 0 0
48 43 38 40 40 37 36 35 35 34 34 35 37 39 39 39
39 39 39 38 33 28 28 28 28 28 29 28 28 25 21 26
25 21 22 21 21 19 19 21 24 21 20 18 18 19 18 15
14 15 16 14 18 18 17 16 17 15 14 17 29 51 79 95
103 109 109 109 108 106 100 88 78 61 38 23 22 19 18 17
18 16 18 18 17 21 25 25 30 34 38 34 34 32 35 33
32 29 28 31 29 30 29 25 27 27 29 31 29 29 22 23
23 24 29 27 3 0 0 0 0 0 0 0 0 0 0 0
46 41 31 40 46 37 35 35 34 34 34 35 37 38 39 39
39 39 39 39 33 28 28 28 28 28 28 28 28 29 29 27
23 25 25 23 21 21 22 22 24 27 27 22 20 20 20 16
13 13 16 16 16 18 17 15 16 13 14 14 15 13 14 15
19 25 28 28 26 28 24 22 22 22 21 21 18 16 16 18
18 18 19 18 19 22 24 28 33 36 36 35 36 35 37 35
33 30 29 30 31 32 29 28 28 28 29 29 30 31 36 27
23 25 29 28 4 0 0 0 0 0 0 0 0 0 0 0
44 39 29 39 44 36 35 34 34 34 34 35 36 38 39 39
38 39 39 38 33 27 27 28 27 28 28 30 33 30 26 26
24 24 29 29 25 23 23 24 25 27 29 29 22 20 19 17
14 12 14 16 17 17 19 15 15 14 14 14 15 15 13 14
15 17 17 18 18 18 18 20 21 21 18 20 15 16 17 17
17 19 19 19 23 24 24 30 33 35 33 34 35 36 35 36
33 33 31 31 32 30 30 29 29 28 28 28 29 30 30 40
32 25 29 28 4 0 0 0 0 0 0 0 0 0 0 0
42 34 28 43 48 37 35 35 35 34 34 34 36 37 38 39
38 39 38 38 33 27 27 27 27 28 32 32 28 26 25 27
28 28 31 30 29 27 27 27 25 26 29 29 27 21 19 18
16 13 13 15 18 18 17 16 15 15 15 16 16 16 16 18
18 17 19 17 18 18 18 17 22 19 19 18 18 18 19 19
20 18 21 24 26 25 30 32 32 32 32 34 35 34 35 36
37 35 31 29 30 32 30 29 27 29 29 28 28 28 29 33
39 38 31 28 6 0 0 0 0 0 0 0 0 0 0 0
40 28 21 32 44 37 35 35 35 34 34 35 36 38 38 38
38 38 38 38 33 27 27 27 29 32 29 24 23 23 24 24
28 28 29 30 30 29 29 31 27 25 29 30 29 26 22 21
19 17 15 14 14 16 17 16 16 17 19 19 20 19 19 19
18 19 19 18 19 18 20 20 21 22 21 21 22 23 23 20
20 24 26 25 28 30 33 32 32 31 32 33 34 32 35 34
35 34 30 27 27 29 28 26 28 27 28 28 27 28 28 30
33 35 39 31 20 19 19 20 21 21 20 21 21 21 22 21
38 26 17 26 42 36 35 34 34 33 34 34 35 37 38 37
38 38 38 37 33 27 28 32 30 29 24 23 22 24 24 26
28 28 27 28 28 29 31 31 28 26 29 30 29 27 24 22
24 24 20 16 15 14 16 17 16 13 14 17 20 21 21 20
21 21 20 20 21 21 22 21 22 24 23 22 20 19 19 25
28 26 23 26 30 32 32 31 32 33 33 33 35 33 31 32
34 31 27 27 28 28 28 24 26 25 24 25 27 26 27 29
29 31 33 33 30 28 27 26 26 26 25 25 25 23 22 22
37 23 19 28 34 35 34 34 34 33 33 34 35 37 37 37
37 37 37 37 32 28 34 29 23 23 22 23 22 24 24 26
27 28 28 29 28 28 29 29 29 27 26 28 27 28 27 24
25 27 25 20 15 14 15 15 14 14 12 11 11 13 16 19
20 21 21 20 21 21 20 20 19 17 16 14 16 21 23 27
25 22 22 29 29 31 30 30 31 32 32 33 32 31 31 31
32 29 26 25 26 27 28 24 23 23 25 24 25 25 27 28
28 28 27 26 33 27 27 26 26 25 25 24 24 23 22 22
36 21 9 13 25 34 35 35 34 33 33 34 34 37 38 37
37 37 37 36 33 35 28 22 20 22 20 20 20 24 24 26
28 29 31 29 29 29 28 28 28 29 27 28 27 30 27 25
26 27 28 26 20 16 15 15 14 15 13 11 11 11 11 10
10 12 12 12 14 14 13 14 16 18 18 18 22 26 27 24
23 22 26 29 30 30 29 30 32 32 32 30 31 30 29 31
31 28 27 26 26 27 27 24 22 23 25 25 25 26 27 27
26 28 24 25 29 30 23 21 21 20 19 18 17 16 15 15
35 20 4 11 28 34 34 35 33 33 34 33 34 36 37 37
38 37 37 37 37 29 21 20 19 21 20 21 22 25 25 27
29 31 31 29 28 28 29 27 28 28 28 26 27 28 28 26
25 27 28 28 24 23 22 20 18 17 16 16 17 17 18 17
16 14 14 14 15 15 17 17 18 19 21 25 28 27 25 24
23 28 29 29 30 30 29 30 30 31 31 32 32 31 32 29
29 26 26 26 27 25 27 25 22 23 24 23 26 27 24 25
23 25 22 23 25 26 23 19 20 19 20 19 19 19 18 18
35 20 5 11 31 34 34 34 33 33 33 33 34 36 37 37
37 37 37 38 33 25 23 20 19 20 19 22 24 26 25 27
28 30 30 27 28 29 29 27 27 28 28 26 25 25 27 25
25 27 25 26 25 23 23 24 24 21 19 19 18 20 21 21
21 19 18 19 20 19 20 22 22 24 27 28 27 25 22 21
27 30 29 28 29 29 27 28 30 31 31 33 34 33 32 30
30 28 27 27 27 24 26 24 22 22 22 23 24 24 24 24
22 22 20 25 26 25 29 23 23 20 18 17 16 14 13 11
38 22 9 13 32 33 34 33 33 33 34 33 35 36 37 37
37 37 38 33 27 22 23 20 20 20 22 24 25 26 25 26
27 27 29 27 27 28 27 26 26 25 26 26 24 26 24 24
25 25 26 27 26 25 23 22 24 26 24 21 21 19 21 22
22 24 24 24 25 25 25 26 28 30 28 26 24 21 22 26
30 28 27 28 27 26 27 28 31 32 32 34 33 31 30 30
31 28 28 26 27 24 23 23 24 22 20 23 21 23 24 22
21 22 21 24 26 26 25 20 4 1 0 0 0 0 0 0
40 24 17 29 40 35 35 35 34 34 34 35 36 37 38 38
37 36 32 25 24 22 21 20 20 20 23 24 26 27 26 27
27 26 27 27 26 27 27 26 24 23 25 25 25 26 24 24
24 25 24 27 26 24 22 20 21 23 24 25 29 28 26 28
29 28 29 27 29 29 30 30 29 28 26 23 22 22 25 28
27 26 26 25 26 27 27 28 31 32 33 33 31 29 30 30
30 27 27 26 26 24 23 23 23 21 21 20 20 24 25 24
21 22 24 26 27 27 25 25 9 0 0 1 1 1 1 0
38 22 20 37 42 34 35 34 34 34 34 34 35 37 38 37
36 28 23 20 22 21 21 22 22 21 23 25 26 25 27 26
26 24 27 26 26 26 27 25 23 23 26 25 24 23 24 23
24 23 24 25 24 25 22 19 21 20 22 22 23 25 25 27
27 26 25 25 24 23 25 25 26 24 22 22 21 23 26 26
25 25 27 27 28 26 26 29 31 33 33 33 31 29 29 28
28 27 26 25 27 24 23 23 21 20 21 18 18 23 25 25
22 23 24 24 26 27 27 23 24 19 19 20 19 18 15 11
