P2
128 120
156
39 40 40 41 41 41 42 42 42 43 43 44 44 44 45 45
46 45 46 46 47 47 47 47 47 47 48 48 48 48 49 49
49 50 50 49 49 49 49 49 50 49 50 50 50 50 50 50
50 49 49 49 49 49 49 48 48 48 48 47 47 47 47 46
47 45 45 45 45 44 44 43 43 42 42 41 41 40 40 39
39 39 38 38 38 37 38 37 36 36 36 36 36 35 35 35
36 35 35 36 36 36 36 36 36 36 37 36 37 37 38 38
38 39 40 40 41 41 41 42 43 43 44 44 45 44 45 46
39 39 39 40 41 41 42 42 42 43 44 43 44 44 45 44
45 45 45 45 46 46 46 47 47 47 48 48 48 47 48 49
48 49 49 48 49 49 49 49 49 49 49 49 50 50 50 49
49 48 48 48 48 48 48 48 48 47 47 47 47 47 47 46
46 45 45 45 44 44 43 43 43 42 42 42 41 41 41 40
40 39 39 37 37 37 37 36 37 37 37 36 36 36 36 36
35 36 36 35 36 36 36 36 36 36 37 37 38 37 38 38
39 39 40 40 40 41 41 42 43 43 44 44 44 45 46 46
39 40 40 40 41 41 42 42 42 43 43 43 44 44 45 45
46 46 47 47 47 47 47 47 47 47 48 47 48 48 48 49
48 48 49 49 49 49 49 49 50 49 49 49 49 49 49 49
49 49 49 48 48 48 48 48 48 48 47 47 47 47 47 46
46 46 45 45 45 44 43 43 43 42 43 42 42 41 40 40
39 40 39 39 38 38 38 38 37 37 37 36 36 36 36 36
36 36 36 37 36 37 37 36 36 36 37 37 37 38 38 38
39 39 40 40 42 41 42 42 43 44 44 45 45 45 46 46
39 40 40 40 41 41 42 42 42 43 44 44 44 44 45 45
46 46 46 46 47 47 47 47 47 47 47 48 48 49 48 49
49 49 49 48 49 49 49 49 50 49 49 50 49 49 49 49
49 49 48 48 49 48 48 47 48 48 48 47 48 47 47 47
47 46 45 45 45 44 44 43 43 42 43 42 42 42 41 41
40 41 40 39 39 39 38 38 38 37 38 37 37 37 37 37
36 36 37 37 36 36 36 37 36 36 37 38 37 38 38 39
39 40 41 41 42 42 42 42 43 43 45 45 45 45 46 46
39 39 39 40 41 41 42 42 43 42 43 43 44 44 45 45
46 46 46 47 47 47 47 47 47 47 48 48 48 47 48 48
48 48 48 49 49 49 50 50 50 49 49 49 49 49 49 48
48 48 48 48 48 47 48 48 48 48 48 48 47 47 47 47
46 46 45 45 45 45 45 44 44 43 43 42 42 42 42 41
41 40 40 39 39 39 39 38 38 38 38 37 38 37 37 36
37 36 37 37 37 36 37 37 37 37 37 38 38 38 38 39
39 39 40 40 41 42 43 43 43 44 44 45 46 45 46 47
40 40 40 40 41 41 41 42 43 43 43 44 45 45 45 46
46 46 47 47 47 47 47 47 47 48 48 48 48 48 49 49
49 49 49 49 49 49 49 49 49 49 49 49 49 49 49 49
49 49 48 48 49 48 48 48 48 47 48 47 48 47 47 47
47 46 46 46 45 45 44 44 44 44 43 43 43 42 42 41
41 41 40 40 40 39 39 39 39 38 38 38 38 38 37 37
37 37 37 37 38 37 38 37 37 37 38 37 37 38 39 39
39 40 41 41 41 42 42 43 43 44 44 44 45 45 46 47
39 39 40 40 41 41 42 42 43 43 43 44 44 44 45 45
46 46 45 46 47 47 47 47 48 47 47 48 48 48 48 48
48 48 48 49 49 48 48 49 49 48 49 49 49 48 48 48
48 48 48 48 48 48 48 48 48 48 48 48 47 47 47 46
46 46 45 45 44 44 44 44 44 44 44 43 43 42 42 41
41 41 41 39 39 39 39 39 38 39 38 38 38 37 38 38
37 37 37 37 37 37 37 37 37 37 38 38 38 38 38 39
39 40 40 40 41 41 42 42 43 43 44 45 45 45 46 45
39 39 40 40 41 41 42 42 42 43 43 44 44 44 45 45
46 45 46 46 47 47 47 47 47 47 48 48 48 48 49 48
49 48 49 48 49 48 48 48 48 48 48 48 48 48 49 48
48 48 48 49 49 48 48 48 48 48 48 47 47 47 47 46
46 46 46 46 46 45 45 44 43 43 43 43 43 42 42 42
41 41 40 41 41 40 40 39 39 39 39 39 38 38 38 37
38 37 37 37 37 37 37 37 37 37 38 37 38 38 38 39
39 40 40 41 41 41 42 42 43 43 44 45 45 45 45 45
39 39 40 40 41 41 41 42 43 43 44 44 44 44 44 44
45 44 45 46 46 46 46 46 47 48 48 48 48 48 49 48
48 49 48 48 48 48 48 48 48 48 49 48 49 48 49 48
48 48 48 48 48 48 48 48 47 48 48 47 48 47 47 47
46 46 46 45 45 44 45 44 44 44 43 43 43 43 42 42
42 40 40 40 40 40 39 39 39 39 39 39 39 38 39 38
38 37 38 38 37 37 37 37 37 37 37 38 38 39 39 39
40 39 40 40 41 41 42 42 42 43 44 44 44 45 45 45
40 40 40 41 41 41 42 42 43 43 43 43 43 44 44 44
45 45 45 46 46 46 46 47 47 47 47 48 47 47 48 48
48 48 49 48 48 48 49 48 48 48 48 48 48 47 48 48
48 48 48 48 48 48 48 48 48 48 48 48 47 47 46 46
46 46 46 46 46 45 45 45 44 44 44 43 42 42 42 41
41 41 41 41 40 40 40 40 39 39 39 39 39 39 38 38
38 37 37 37 38 38 37 37 38 38 39 38 38 39 39 39
39 40 40 40 41 41 42 42 42 43 43 44 45 44 45 45
39 39 40 40 40 41 42 42 42 42 43 44 44 44 44 44
44 44 44 45 45 46 46 46 47 47 47 47 48 47 47 48
48 48 48 48 48 48 48 48 48 48 48 48 48 48 49 48
48 48 48 48 48 48 48 47 48 47 47 47 47 47 47 47
46 46 46 45 45 44 44 44 44 44 43 43 43 43 43 42
42 41 42 41 40 40 40 40 40 39 39 39 39 38 39 38
38 37 37 38 37 37 38 37 37 37 38 38 38 39 39 39
39 39 40 40 40 41 41 41 42 42 43 44 44 44 44 45
39 40 40 41 41 41 42 41 42 42 43 43 43 43 44 44
44 44 45 45 46 46 46 47 47 47 48 47 47 47 48 47
48 48 48 49 48 48 49 48 49 48 48 48 48 48 48 48
48 47 48 47 48 48 47 48 48 48 47 47 47 47 47 46
46 46 45 45 45 45 45 45 44 44 44 43 43 43 42 42
42 41 42 40 40 41 40 40 40 39 39 39 39 39 39 38
38 37 37 37 37 37 38 38 38 38 38 39 39 38 39 39
40 39 40 40 40 41 41 41 42 42 43 44 44 44 45 45
40 40 40 41 41 41 41 41 42 42 43 43 44 43 44 44
44 44 45 45 45 46 46 46 46 46 47 47 47 47 47 48
48 48 48 48 48 48 49 48 48 48 48 48 48 48 48 48
48 48 48 48 47 47 47 47 47 47 47 47 47 47 46 46
47 46 46 45 46 45 45 44 44 44 44 43 43 42 42 42
42 42 42 42 41 41 41 40 40 40 40 40 40 39 39 38
39 38 38 38 38 38 39 38 38 38 38 39 38 38 39 39
39 40 40 40 40 42 42 42 42 42 43 43 43 44 44 44
40 40 40 41 41 41 42 41 42 42 43 43 43 43 44 44
44 44 45 45 45 46 46 47 47 47 48 47 47 47 47 47
48 48 48 48 48 48 49 48 48 49 48 48 48 48 48 48
48 47 47 48 47 47 48 47 48 47 47 47 48 47 47 47
47 46 46 45 45 44 45 44 44 44 44 44 44 43 43 43
42 42 42 41 41 40 40 40 40 40 40 40 39 39 39 39
39 38 38 38 38 38 38 38 38 38 38 39 39 39 39 39
40 40 40 40 41 41 41 41 41 42 43 43 43 44 44 44
39 40 40 40 41 41 41 42 41 42 42 43 43 43 44 44
45 44 45 45 45 46 46 46 46 46 46 47 47 47 47 48
47 47 47 48 48 48 48 48 48 48 48 48 48 48 48 47
47 47 48 47 47 48 47 48 48 47 47 48 47 46 47 47
46 46 46 46 45 45 45 45 44 44 44 43 43 43 43 42
42 41 42 41 41 41 41 40 41 40 40 40 39 39 39 38
38 38 38 38 38 38 39 38 38 38 38 38 39 38 38 39
39 39 40 40 41 41 41 41 41 42 43 43 43 43 44 44
40 39 40 40 40 41 41 41 42 42 43 43 43 44 44 45
45 45 45 45 45 46 46 46 46 46 47 47 47 47 47 47
47 47 47 47 47 48 48 48 48 48 48 48 49 48 48 48
48 48 48 48 47 47 47 47 47 47 47 47 47 47 47 47
46 46 45 46 45 45 44 44 44 44 44 44 43 43 43 43
43 42 42 42 41 41 40 40 40 39 40 40 39 39 39 39
39 39 38 38 38 38 38 38 38 38 38 38 39 39 39 39
40 40 40 41 40 41 41 41 41 42 42 42 43 43 44 44
39 40 40 40 41 41 41 41 42 42 42 42 43 43 43 44
44 44 45 45 46 46 46 46 46 46 47 46 46 47 47 47
47 47 48 47 47 48 48 48 48 48 48 48 48 48 48 48
48 47 47 47 47 47 47 47 47 47 47 47 46 46 46 47
46 46 45 45 45 45 45 44 44 44 44 44 43 43 43 42
42 42 42 41 41 41 41 40 40 40 40 40 40 40 40 39
38 39 38 38 38 38 38 38 38 38 38 39 39 39 39 39
39 39 39 40 40 41 41 41 42 42 43 43 43 43 44 43
40 40 40 40 40 41 41 41 42 42 43 43 43 43 44 44
45 44 45 45 46 46 46 46 46 46 46 46 47 47 48 47
48 47 47 48 47 48 48 48 48 48 48 47 48 48 48 48
48 48 48 48 48 48 48 47 46 47 47 47 47 46 47 46
47 46 46 46 46 45 44 44 44 44 44 44 44 43 43 43
43 42 42 42 41 41 41 40 40 40 39 39 40 39 40 39
40 39 39 39 39 38 39 39 38 38 39 38 38 39 39 39
39 40 40 41 41 41 41 41 41 42 42 42 43 42 43 43
39 39 40 40 40 41 42 42 42 43 43 42 43 43 44 44
44 44 45 45 45 45 46 46 46 46 46 46 47 47 47 47
47 47 47 48 48 47 48 48 49 48 48 48 48 48 48 47
48 48 48 47 48 48 47 48 47 47 48 48 47 46 46 46
46 46 45 45 45 44 45 44 44 44 44 44 44 44 44 43
43 42 42 41 42 41 41 40 40 40 41 40 40 40 40 39
39 39 39 39 38 38 39 38 39 38 38 38 39 39 39 40
40 40 40 40 40 41 40 41 41 42 41 42 42 43 43 43
39 40 40 40 41 40 41 42 42 42 43 43 43 43 44 44
45 45 45 45 46 46 46 45 45 45 46 46 47 47 47 47
47 47 47 47 47 48 48 47 48 48 48 47 48 48 48 48
48 48 48 48 48 48 47 47 47 46 47 47 47 46 46 46
46 46 45 45 45 45 45 45 44 44 44 44 44 43 43 42
43 43 42 42 41 41 41 41 41 40 40 40 39 39 40 39
39 39 39 39 39 38 39 39 39 39 39 39 38 39 38 39
39 39 40 41 41 41 41 40 42 42 42 41 42 42 42 43
39 39 39 40 40 41 42 42 42 42 43 42 43 43 43 44
44 44 44 45 45 45 45 46 46 46 46 46 47 47 47 46
47 47 47 47 47 47 47 47 48 48 47 47 47 47 48 47
48 48 48 47 47 47 47 47 47 47 47 47 47 47 47 46
46 45 45 45 45 44 44 44 44 44 44 43 43 43 43 43
43 42 41 42 41 41 41 40 41 40 40 40 40 40 39 40
40 39 39 39 38 39 38 38 38 38 38 38 39 39 38 39
40 39 40 40 40 40 41 40 41 41 41 42 42 42 42 42
40 40 40 40 41 41 42 41 42 42 42 43 43 43 44 44
44 45 45 45 45 45 46 46 45 45 46 46 46 46 46 46
47 47 47 47 47 47 47 47 48 47 47 47 47 47 47 47
47 47 47 47 48 48 47 47 47 46 46 46 46 47 47 46
45 45 45 45 45 44 45 45 44 44 44 44 43 42 43 43
42 41 42 41 41 41 41 41 41 40 40 40 40 40 40 39
39 39 39 39 39 38 39 39 38 38 39 39 38 39 39 39
39 39 39 40 40 40 40 40 41 41 41 41 42 42 41 42
40 40 41 40 41 41 42 42 42 42 43 43 44 43 44 44
45 45 45 44 45 45 45 45 45 46 46 46 47 47 47 47
47 47 47 47 47 47 47 47 47 47 47 47 47 47 47 47
47 48 48 47 47 47 47 47 46 46 46 47 46 46 46 46
47 46 45 45 45 44 42 41 43 43 43 43 43 42 43 43
43 42 42 42 42 42 41 40 40 40 40 40 40 40 40 40
40 39 39 39 39 39 39 39 39 39 38 39 39 39 39 39
39 39 40 40 40 40 40 40 40 40 41 41 41 41 41 42
40 40 41 41 41 42 42 42 42 42 43 43 43 43 43 44
44 44 44 44 45 45 46 46 46 46 46 46 46 46 47 46
46 47 46 47 47 47 47 47 47 47 47 48 47 47 47 47
47 47 47 47 47 47 47 47 47 47 47 47 46 47 46 46
45 45 45 45 43 41 30 26 31 39 42 40 41 41 43 42
43 42 41 41 40 40 40 41 40 39 40 40 40 40 39 39
39 39 39 39 38 39 38 38 39 39 39 39 39 39 39 39
39 39 40 40 39 40 40 40 40 41 41 41 41 42 42 41
40 41 41 41 42 41 42 42 42 42 43 43 43 43 44 44
44 44 45 45 45 45 45 45 46 45 45 46 46 46 46 46
47 47 47 47 47 47 46 47 47 47 47 47 47 47 47 47
47 47 47 47 47 47 47 47 47 47 47 47 47 46 46 45
45 45 44 39 31 26 23 24 22 24 28 36 35 33 38 37
35 39 42 42 40 36 39 38 37 37 39 38 38 38 39 39
39 38 39 39 40 39 40 39 39 39 39 39 39 39 39 39
39 39 39 39 40 39 40 40 40 40 41 41 41 41 42 41
40 40 41 41 41 42 42 43 43 43 43 44 44 44 44 44
44 44 44 44 45 45 45 45 46 46 46 47 47 46 46 46
46 46 46 46 47 46 46 47 47 47 48 47 47 47 47 47
47 47 47 47 47 46 46 47 47 46 47 47 47 46 46 46
43 38 32 24 20 16 18 19 15 19 20 26 32 31 29 30
27 31 33 34 33 24 33 29 29 32 34 33 36 38 34 36
38 40 39 39 39 39 39 39 39 39 39 39 39 39 39 39
40 39 40 39 40 39 40 40 40 40 41 40 41 41 41 42
42 41 42 42 42 42 42 43 42 43 43 43 43 43 44 44
44 45 45 44 45 45 46 45 46 45 45 45 46 46 47 46
46 46 47 46 47 47 47 47 47 47 47 47 46 47 47 46
47 47 47 47 47 47 47 47 47 46 47 45 40 37 37 36
35 31 25 20 20 14 16 17 19 16 16 17 27 23 23 22
13 13 23 23 17 16 21 27 33 31 32 36 37 36 32 30
36 38 40 39 39 39 39 39 40 40 39 39 39 39 39 39
39 39 39 39 40 40 40 40 40 41 41 41 41 41 41 41
41 42 42 42 42 42 42 43 43 43 43 44 44 44 44 44
45 45 44 45 45 45 45 45 46 46 46 46 46 47 47 46
47 46 47 46 46 46 46 47 47 47 48 47 47 47 47 47
47 47 47 47 47 46 46 47 47 46 41 32 33 34 34 27
23 21 21 18 19 18 21 20 18 17 16 14 14 16 17 17
16 10 13 12 14 10 21 30 25 27 29 25 33 38 35 27
33 39 40 40 39 39 39 39 39 39 39 39 39 39 39 39
39 39 40 39 40 40 40 40 40 40 40 40 41 41 41 41
40 41 42 43 43 43 44 43 43 44 43 43 44 44 44 44
45 45 45 45 45 46 46 46 46 46 46 46 46 46 46 46
47 46 47 47 46 47 47 47 47 47 47 47 46 46 46 46
47 46 47 47 47 47 47 47 47 43 31 34 39 34 29 20
17 17 14 14 19 21 17 16 15 19 20 14 14 11 16 11
12 7 10 7 8 8 18 18 21 26 27 22 27 33 24 25
34 39 39 40 40 39 39 39 40 40 39 39 39 39 39 39
39 39 39 39 39 39 39 40 40 40 40 41 41 41 41 40
27 28 30 32 33 36 38 39 40 42 43 43 44 45 45 45
46 45 45 45 45 45 45 45 46 45 46 45 46 46 46 47
46 47 46 47 46 46 47 47 46 46 46 46 46 46 46 46
46 46 46 47 47 46 46 46 44 34 35 37 31 24 18 18
17 14 14 20 20 13 13 10 10 15 17 20 23 23 9 9
6 9 2 3 1 3 7 9 14 14 16 19 22 20 14 29
39 41 38 39 39 39 39 39 39 39 39 39 39 39 38 38
39 39 39 40 39 40 39 40 39 39 40 39 40 40 40 40
23 23 23 24 24 25 25 25 26 27 28 29 30 33 36 38
40 41 43 43 45 45 45 45 46 46 46 46 46 46 46 46
46 46 46 46 46 46 46 46 46 46 46 46 46 46 46 46
46 45 46 45 46 46 45 43 36 30 28 27 21 16 14 14
10 11 11 14 13 13 16 13 14 10 10 12 16 20 16 13
10 6 2 0 0 2 4 7 8 11 13 12 8 7 17 26
31 35 40 39 39 39 39 39 39 38 38 39 39 39 39 41
52 49 46 43 41 40 39 39 38 39 40 39 40 40 41 41
21 20 21 21 22 22 22 22 22 22 22 21 22 23 24 24
24 25 26 26 28 29 31 34 36 38 40 42 44 45 46 47
47 47 47 47 47 47 47 47 46 46 47 46 45 45 46 45
46 45 45 46 46 45 42 38 32 25 16 12 10 7 6 6
7 8 8 9 10 13 13 11 5 4 6 12 12 11 7 9
4 10 7 3 2 5 4 6 11 11 4 10 6 8 19 17
22 36 38 39 39 39 39 39 39 39 38 38 38 38 38 39
57 59 57 59 55 53 53 53 49 45 42 39 40 39 41 48
16 15 16 16 17 18 19 19 20 20 20 19 20 21 21 21
21 21 21 20 20 20 20 20 20 20 22 23 25 26 28 30
34 36 39 41 43 44 45 46 47 47 47 47 46 46 46 46
46 46 46 45 44 38 33 25 21 11 7 6 4 3 4 5
6 5 10 10 15 17 14 10 7 3 2 7 12 5 0 0
2 7 11 2 2 3 4 5 6 7 8 2 6 7 10 15
25 30 36 40 40 40 39 39 39 38 39 38 38 38 39 37
52 49 22 26 30 31 37 51 56 60 61 43 39 40 39 43
24 20 18 18 18 17 17 17 16 16 17 18 18 18 19 20
20 20 20 19 19 19 19 20 19 18 19 17 19 18 19 18
17 19 19 19 21 23 25 28 30 34 37 39 43 46 46 45
45 45 46 45 39 31 26 24 10 6 7 5 1 4 2 4
5 5 9 12 14 16 12 9 3 5 9 12 9 7 4 5
8 11 5 5 3 7 5 5 3 4 10 0 2 4 4 11
18 36 38 37 39 38 38 39 39 38 39 39 39 38 38 35
47 46 3 0 0 3 11 9 13 32 61 46 40 39 34 34
33 28 32 33 30 31 31 29 28 26 22 23 22 20 19 17
16 16 16 16 15 16 17 17 15 16 17 17 19 19 19 18
18 17 17 17 17 17 16 14 11 12 14 17 32 47 46 46
47 46 45 42 27 23 23 15 7 5 4 3 2 3 1 3
6 7 10 17 17 17 16 8 7 14 19 14 14 12 6 14
13 7 3 3 4 7 6 10 4 6 8 6 1 3 3 8
7 30 35 40 39 39 39 39 39 40 39 38 39 39 39 36
48 50 6 0 0 2 5 3 0 12 60 51 39 39 33 28
33 27 31 34 30 35 35 33 35 31 28 33 35 34 34 33
32 30 28 26 25 23 22 19 17 17 17 16 16 17 17 17
14 14 16 16 16 17 17 14 12 11 10 12 30 46 46 46
46 44 42 36 23 16 12 8 2 2 2 5 3 2 4 2
4 3 10 13 10 17 13 9 10 16 12 21 18 5 11 13
12 8 6 5 6 14 5 5 5 5 4 12 5 5 5 5
9 16 23 36 39 38 39 40 40 39 39 39 40 39 39 35
48 55 11 0 0 0 0 0 0 6 57 54 39 40 33 23
33 27 32 32 29 33 36 32 35 27 31 31 37 37 37 38
38 38 34 32 36 35 33 31 32 33 31 30 28 26 25 23
20 20 18 17 16 15 15 15 14 14 15 16 31 46 47 46
46 42 42 31 16 9 8 1 2 3 7 5 1 3 3 7
1 6 12 8 17 22 12 12 12 14 21 18 3 3 9 12
11 2 5 8 13 11 6 6 13 12 8 9 11 7 7 8
6 12 18 29 39 40 39 40 40 40 39 39 39 39 39 35
46 59 18 0 0 0 2 1 0 1 50 58 38 39 33 22
34 33 33 33 31 32 35 32 34 31 36 32 37 38 38 37
38 38 32 34 37 35 31 37 39 37 32 37 34 33 34 36
36 36 34 31 31 29 27 25 22 18 17 17 32 46 46 45
44 43 32 16 7 7 2 4 4 6 9 2 3 4 8 7
0 8 10 12 14 15 11 15 14 19 21 4 1 6 10 14
4 4 9 23 17 16 11 7 8 10 14 17 21 5 12 4
8 13 14 21 35 38 38 40 40 40 40 39 40 39 40 35
42 60 26 0 0 0 0 1 0 0 41 59 40 39 33 23
36 35 36 36 36 36 36 36 36 36 37 34 37 37 37 37
38 37 37 35 33 38 35 39 39 34 33 38 35 35 39 37
38 37 36 34 39 40 40 39 37 24 17 19 32 46 46 46
43 32 14 9 6 6 6 5 4 6 4 2 2 4 9 2
0 8 12 12 13 18 12 16 20 15 3 6 5 10 9 5
3 6 10 18 21 22 17 13 3 10 9 6 12 17 10 7
10 14 18 19 29 37 40 42 41 40 40 40 40 40 40 35
38 60 34 0 0 0 2 1 0 0 34 62 42 38 32 23
35 35 35 36 36 36 36 36 36 37 37 37 38 38 37 38
38 37 34 34 35 38 36 39 38 34 36 37 36 39 41 37
37 36 37 35 38 40 40 40 38 26 17 19 32 47 47 46
37 12 8 8 3 6 7 1 6 5 4 5 1 8 8 1
3 7 11 9 10 10 14 17 14 7 6 9 2 18 3 1
7 13 17 16 14 27 16 10 6 13 8 5 16 26 11 9
10 19 22 21 26 49 47 45 42 40 40 40 40 40 40 34
35 61 44 2 17 14 5 2 0 0 28 62 44 38 32 22
35 35 35 35 36 35 35 36 36 36 36 37 37 38 38 38
39 38 38 39 40 39 39 40 39 39 39 38 40 40 40 38
34 38 39 36 35 39 41 40 39 26 19 19 33 47 47 45
19 6 6 3 1 6 3 2 9 6 9 5 3 9 10 5
6 11 11 11 14 19 24 20 13 17 15 9 10 13 2 1
12 14 14 15 22 15 24 14 12 15 21 15 32 12 10 3
7 14 24 19 28 44 49 45 43 40 40 40 40 40 40 33
31 54 48 9 30 29 16 7 12 10 38 59 45 37 33 22
36 36 36 36 36 36 37 37 37 36 36 37 38 38 38 38
39 37 36 36 37 37 38 38 38 40 40 40 40 41 40 40
40 41 41 38 38 40 41 40 39 26 20 19 33 46 46 35
5 9 6 1 1 3 2 5 11 6 19 3 3 11 7 8
5 15 13 9 9 10 18 18 21 18 20 11 15 6 5 8
22 18 16 17 25 17 23 23 35 33 31 23 64 25 16 13
9 10 21 26 33 37 46 43 40 26 28 31 33 36 36 33
28 46 47 30 35 33 30 25 26 25 36 54 44 36 32 23
36 36 36 36 36 36 37 37 37 37 37 38 37 37 38 39
39 38 38 38 38 38 38 38 37 37 38 37 39 39 40 40
40 41 41 40 41 41 41 41 39 25 19 20 34 46 43 15
5 5 4 1 0 4 2 9 14 10 21 3 5 18 13 11
6 17 13 9 7 7 8 10 15 25 17 20 9 7 17 13
25 27 14 16 17 15 24 36 40 35 46 32 84 56 23 23
14 16 24 27 31 39 45 48 39 18 21 21 23 23 24 25
24 33 35 36 37 37 39 39 41 38 36 42 38 35 32 22
35 36 36 36 36 36 37 36 36 37 37 37 38 38 38 38
39 39 40 39 39 39 40 39 39 40 39 39 39 39 39 38
39 39 39 39 39 40 41 41 39 26 18 18 34 42 23 4
5 6 8 8 1 7 7 10 14 17 20 4 8 21 18 3
9 16 13 5 10 10 7 8 17 23 18 10 10 17 20 28
32 17 11 18 25 20 34 40 46 55 79 93 106 88 43 26
24 25 27 27 26 41 45 52 39 19 22 22 22 22 23 23
23 23 22 22 21 20 20 19 21 22 24 26 28 35 31 22
35 35 36 36 36 36 37 36 37 37 37 37 38 38 38 38
38 38 39 39 39 39 39 39 40 39 40 40 40 41 41 40
41 40 41 40 40 41 41 41 39 27 21 22 34 26 8 4
3 7 21 17 2 15 10 18 22 24 14 12 7 19 25 4
17 17 4 5 9 7 5 10 11 14 13 14 18 23 32 39
22 17 11 14 24 27 57 76 90 96 110 104 111 106 67 34
31 34 33 33 31 39 51 50 37 21 21 20 16 19 21 21
22 22 24 24 24 24 24 28 23 17 18 18 21 24 25 19
36 36 36 37 37 37 37 37 37 38 37 37 37 38 37 38
39 39 39 39 39 39 40 40 40 40 40 41 41 41 41 41
41 41 41 41 41 41 41 41 39 25 22 23 24 13 5 3
3 14 37 25 10 20 13 24 22 20 15 14 10 23 22 11
24 14 1 12 3 7 5 13 12 15 24 39 45 43 41 33
22 11 9 16 20 39 85 104 112 113 116 118 116 111 80 43
40 38 32 33 31 38 49 49 39 25 22 21 14 28 27 22
22 25 33 33 33 33 38 44 35 22 23 22 22 21 22 16
36 36 36 36 36 36 37 37 37 37 37 37 38 38 38 38
39 39 39 39 39 39 39 40 40 40 40 41 41 41 41 41
42 41 42 41 41 41 41 41 39 24 20 20 16 12 2 3
8 14 14 9 13 27 17 24 15 8 22 12 13 20 7 14
16 12 8 7 3 5 12 12 22 31 48 60 63 54 38 29
18 9 14 19 24 53 104 108 117 113 121 120 118 112 88 54
42 37 29 29 30 37 44 48 39 25 22 22 15 29 34 39
45 45 45 39 38 42 47 49 44 29 32 27 24 22 22 15
30 33 31 34 34 33 36 36 36 36 37 37 36 36 38 38
39 38 39 39 40 39 40 41 40 40 40 41 41 41 41 41
42 41 41 41 42 41 41 41 39 26 20 18 10 5 4 9
13 7 9 4 25 23 18 20 16 2 21 17 15 15 6 10
11 10 10 2 1 4 10 16 28 40 52 64 70 58 42 26
17 15 20 25 41 92 101 111 114 121 124 122 118 114 98 56
41 31 26 29 30 42 46 52 42 25 23 22 12 27 30 39
54 53 51 45 42 48 49 48 47 29 33 38 43 39 36 30
32 27 28 36 31 32 37 34 35 32 36 35 34 34 36 38
39 38 39 40 40 40 40 40 40 40 40 41 41 41 42 41
41 41 42 42 42 41 41 41 38 25 21 12 5 4 2 10
24 5 10 4 16 11 18 25 15 6 19 17 7 7 6 7
9 8 2 2 3 5 13 25 33 44 55 69 77 73 58 42
32 26 39 66 98 106 113 118 123 126 127 123 120 115 103 61
33 29 25 36 37 47 51 52 42 26 22 21 13 24 23 29
52 53 51 46 38 30 21 14 42 25 22 32 24 13 14 16
33 30 29 35 33 33 36 34 36 33 33 34 35 33 35 38
39 39 40 40 40 40 40 40 41 40 41 41 41 41 42 42
42 41 41 42 42 41 41 41 39 23 19 9 7 7 4 19
13 7 3 9 13 9 17 21 15 12 10 9 11 9 7 12
9 7 4 3 10 15 24 28 31 45 59 81 99 103 93 74
70 62 62 62 58 47 40 32 41 60 112 127 124 120 113 76
35 31 27 47 51 50 55 53 43 26 21 21 13 19 8 11
35 24 15 11 8 3 3 5 36 34 22 31 18 0 0 1
37 36 37 37 37 37 36 36 37 37 35 37 37 37 38 39
39 40 40 40 40 41 41 41 41 41 41 42 41 42 41 42
42 42 42 42 42 42 42 42 39 24 13 7 6 14 10 21
4 11 8 17 19 5 12 17 11 9 10 7 10 11 14 10
10 3 1 7 21 15 16 13 11 13 16 13 10 9 8 8
8 10 12 15 17 25 34 24 56 8 13 66 119 120 117 100
43 35 39 49 52 53 54 54 43 27 21 20 14 18 6 3
22 11 5 5 4 8 7 6 26 43 23 29 18 0 0 12
37 38 38 38 37 38 38 38 38 38 38 39 39 39 39 39
40 40 40 40 41 41 41 41 41 41 41 41 42 42 42 42
42 43 43 42 42 42 42 42 38 25 11 3 7 23 22 22
2 12 4 16 25 2 12 15 22 13 13 13 18 10 10 10
11 36 56 61 51 36 26 18 11 9 11 12 16 17 21 24
24 22 21 18 20 17 15 10 24 3 4 3 27 106 121 113
59 38 48 53 54 52 51 53 43 28 21 21 14 16 6 3
15 18 7 7 7 17 19 8 10 46 23 27 21 0 2 8
38 38 38 38 38 38 38 38 38 39 39 39 38 39 39 39
40 40 40 41 40 41 41 42 41 41 41 41 42 42 42 42
42 42 42 42 42 42 42 42 40 25 13 1 10 22 19 7
0 9 5 17 16 6 17 20 17 17 21 18 9 9 13 13
28 21 7 3 2 2 7 10 18 25 36 54 59 54 48 40
36 33 27 23 19 16 14 17 25 5 9 9 7 21 109 116
76 45 51 51 53 52 53 54 45 28 21 21 18 13 4 1
8 25 8 4 8 10 11 7 4 45 24 22 20 0 1 8
38 38 38 38 38 38 38 38 38 38 39 39 40 39 40 40
41 40 41 41 41 41 41 41 41 41 42 42 42 42 42 42
43 43 43 42 43 42 43 43 40 24 10 1 8 22 11 1
1 9 5 9 6 9 23 12 10 12 10 9 4 11 40 9
15 15 11 6 5 9 15 26 48 73 96 110 108 104 96 90
85 82 75 66 54 38 27 26 25 2 5 5 8 6 41 117
92 50 52 52 53 52 53 55 46 29 22 20 26 30 22 4
4 30 18 4 4 1 3 3 0 38 25 22 25 0 2 9
38 37 38 38 38 39 39 39 39 39 39 40 39 39 40 40
41 40 40 41 41 42 41 41 41 42 42 43 43 43 42 43
42 42 42 42 43 43 43 42 40 23 11 3 8 26 19 1
7 9 6 12 4 11 8 13 10 1 10 56 87 87 53 19
12 14 9 5 7 16 25 46 73 97 121 128 125 122 117 106
91 76 67 55 51 45 37 24 17 0 3 2 6 7 5 98
99 53 52 51 52 51 51 52 45 29 23 20 13 9 10 1
0 26 21 8 0 0 0 0 1 31 38 38 30 0 2 9
38 38 39 38 39 38 38 39 38 38 39 39 40 40 40 40
40 41 41 41 42 42 41 41 41 41 42 42 42 42 42 41
43 43 43 43 43 43 43 43 39 19 10 0 6 18 16 7
13 8 8 6 14 6 5 6 3 19 105 120 90 91 103 78
62 33 12 13 17 24 35 58 81 115 128 130 129 125 121 115
93 66 53 45 43 42 37 34 11 0 0 2 5 5 2 66
98 52 52 54 54 53 54 54 46 29 24 22 9 0 0 2
2 17 23 10 0 0 0 0 1 20 49 45 34 0 0 1
38 38 38 38 38 38 38 38 39 39 39 39 40 40 40 41
41 40 40 41 40 41 41 41 41 42 42 42 42 42 43 43
43 42 43 42 43 42 42 42 39 19 15 1 7 8 11 9
22 8 7 3 8 2 1 5 11 83 118 65 99 91 72 104
67 33 28 23 22 29 45 72 104 118 131 133 129 126 123 115
97 75 49 47 52 50 38 35 8 0 0 0 3 5 3 43
79 19 16 39 51 53 55 55 47 30 23 22 13 3 6 12
12 11 28 11 0 0 0 0 0 6 49 48 38 0 0 0
37 37 37 37 38 38 38 38 38 39 39 39 39 39 39 40
40 40 40 41 40 41 41 41 41 41 42 41 41 42 42 42
42 41 42 43 43 43 42 42 39 20 15 5 3 6 8 4
18 9 5 10 4 5 6 10 32 127 97 123 138 83 74 97
63 55 48 37 33 48 68 80 100 119 130 132 130 123 121 114
93 76 46 35 49 28 19 30 3 0 0 0 1 3 8 20
24 4 3 4 44 51 52 54 47 30 22 22 14 7 12 16
7 5 24 2 0 0 0 0 0 1 43 49 41 1 0 0
36 36 36 36 36 35 37 38 38 37 38 39 39 38 39 39
39 39 40 40 40 40 40 40 41 41 41 41 42 42 42 42
42 42 42 42 42 43 42 42 38 21 13 9 4 6 11 10
17 14 13 11 7 5 9 12 61 130 102 148 142 96 100 115
103 83 62 50 49 57 81 96 104 120 126 129 129 123 119 114
88 67 42 22 18 22 9 29 0 0 0 0 0 1 19 25
9 5 4 2 26 54 55 55 49 31 22 20 13 3 9 16
11 2 20 5 0 1 3 11 22 36 51 49 44 5 0 0
32 34 32 32 34 33 36 37 34 34 32 35 36 35 33 35
36 39 39 36 36 36 37 37 37 38 41 41 39 39 40 39
41 41 41 41 41 42 41 41 38 23 15 6 1 3 11 15
11 14 14 13 7 15 9 9 94 121 108 145 143 126 126 115
111 94 68 77 65 60 89 91 114 123 124 129 126 124 121 113
88 57 32 16 25 51 32 11 0 0 0 0 0 0 17 26
4 1 2 3 20 54 54 55 50 31 22 20 11 0 2 4
7 0 11 26 23 29 34 41 52 54 55 48 41 37 32 20
36 36 36 35 35 36 37 37 36 35 36 36 37 37 36 38
37 39 39 37 38 37 38 37 37 37 39 40 38 37 38 38
40 41 41 41 41 42 42 41 38 24 19 7 2 4 20 11
8 15 20 6 9 11 10 24 104 109 110 142 140 141 111 86
114 107 86 91 85 72 94 104 116 126 129 128 125 123 121 120
100 65 48 40 36 34 32 4 0 0 0 0 0 4 27 81
61 0 1 1 24 55 55 56 53 33 23 22 12 0 1 2
4 6 3 43 46 43 44 49 53 54 53 47 33 40 39 42
36 37 37 37 37 37 37 37 38 38 38 38 38 38 39 39
39 39 39 39 40 39 40 40 40 39 40 41 41 41 41 41
41 41 41 41 41 42 41 41 38 25 20 8 3 5 14 8
11 14 10 2 16 10 23 33 100 104 116 135 142 128 45 118
120 127 115 105 90 87 107 115 123 131 128 128 121 121 122 122
115 80 54 49 41 24 16 1 0 0 0 0 2 23 28 92
106 15 0 1 34 56 56 57 54 34 26 31 23 10 7 13
24 18 9 38 57 54 51 49 45 35 22 24 7 12 18 28
34 34 36 35 35 36 36 37 38 37 38 38 38 38 38 39
39 39 40 40 40 40 40 41 40 41 41 41 42 42 42 41
42 41 42 41 43 42 42 42 39 25 21 8 4 8 18 15
7 6 14 8 13 16 21 35 92 99 125 131 141 91 115 111
125 133 127 127 100 100 122 115 124 130 130 128 125 123 123 120
120 106 70 55 41 25 13 2 0 0 0 4 23 21 45 93
102 67 1 3 45 56 59 60 56 36 34 41 34 21 27 28
37 32 33 35 40 37 34 29 26 19 13 22 0 0 0 5
34 32 33 33 34 34 33 35 36 38 38 39 39 39 39 39
40 40 40 39 40 40 40 41 40 41 41 42 42 42 42 42
42 42 42 42 42 42 41 42 39 24 19 8 5 9 17 11
7 10 12 9 11 12 19 37 98 106 113 133 133 121 125 60
120 145 133 134 120 119 129 124 125 127 130 129 127 126 124 122
122 122 111 77 53 39 19 7 0 2 2 40 29 18 63 84
91 103 44 8 52 54 57 60 58 38 34 38 40 28 33 29
32 30 29 23 20 26 32 33 33 34 33 31 0 0 0 0
37 36 36 36 36 36 36 36 38 38 38 39 38 39 39 39
39 40 39 40 40 41 41 41 41 41 41 41 42 42 42 41
42 41 42 42 42 42 42 42 39 25 21 12 7 5 13 5
7 5 1 7 9 13 18 44 109 117 104 133 120 130 144 87
84 150 141 139 129 125 123 125 128 130 128 127 128 126 123 121
123 126 128 121 93 48 25 12 4 0 36 46 26 33 76 78
80 96 103 32 52 55 59 61 56 33 28 38 42 33 30 25
22 21 14 2 4 3 5 5 6 23 44 38 3 2 0 0
37 37 38 38 37 37 38 38 38 37 38 38 38 39 39 39
40 40 41 40 40 40 41 40 41 41 41 42 42 42 43 42
42 42 43 43 43 43 43 42 39 26 21 12 6 7 13 3
4 3 1 6 11 10 22 50 117 127 113 131 119 121 137 117
102 151 141 138 125 125 130 131 130 128 128 129 129 126 123 123
124 128 131 129 129 116 79 33 14 8 31 27 21 79 85 79
75 88 105 93 51 54 59 60 50 10 7 12 17 17 17 35
31 31 22 0 0 0 2 15 2 17 47 42 23 29 11 0
37 37 37 37 37 38 38 38 38 39 39 39 39 39 39 39
40 40 40 40 40 40 40 41 41 41 41 42 42 42 42 43
43 42 42 42 43 43 42 43 39 26 20 13 6 7 12 2
0 0 0 5 10 13 19 57 124 136 122 124 121 132 146 140
111 149 139 141 134 130 133 131 130 129 129 129 130 126 124 126
126 127 128 128 126 124 120 112 85 51 38 59 93 103 82 81
74 87 105 113 62 53 57 58 35 1 0 0 2 0 5 41
15 18 24 0 0 0 3 25 6 17 48 45 26 22 14 4
37 37 37 37 37 37 38 38 38 38 39 39 39 39 39 39
40 39 40 40 41 40 41 41 41 41 41 41 41 42 42 42
43 43 43 43 43 43 42 42 39 24 18 19 15 8 8 0
0 0 1 9 7 9 20 61 126 140 128 119 110 130 145 145
109 141 138 139 133 129 131 128 131 129 127 128 127 126 124 125
125 125 126 126 128 128 129 122 116 114 115 119 116 91 75 74
84 103 115 117 85 51 52 54 19 0 0 0 0 0 4 40
14 13 21 0 0 0 2 20 9 15 49 44 8 3 6 9
37 37 37 38 37 37 38 38 39 39 38 39 40 39 40 40
40 40 40 40 41 40 41 41 41 41 41 42 42 43 43 42
43 42 43 43 43 43 43 42 39 24 20 22 15 8 8 1
0 0 1 8 9 12 24 63 122 133 138 118 119 131 138 142
131 139 133 138 132 127 130 128 129 128 128 127 125 125 127 127
129 125 123 125 126 136 137 131 122 121 119 121 95 74 85 104
113 118 122 131 107 51 50 47 9 0 0 0 0 0 2 38
15 9 19 0 0 0 2 16 21 17 49 43 3 11 3 4
37 37 37 37 37 38 38 38 38 39 39 39 38 39 39 40
40 40 41 40 41 41 41 41 40 41 42 42 42 42 42 42
43 43 42 42 43 42 43 42 39 23 22 23 20 8 6 0
0 0 4 5 9 13 24 61 118 126 138 129 128 132 140 142
138 130 128 135 129 127 126 125 126 126 128 125 122 123 126 127
126 123 123 124 125 131 138 132 125 123 118 113 72 68 97 115
118 119 119 135 123 60 49 39 5 0 0 0 0 0 0 36
23 21 26 0 2 1 4 11 24 18 48 42 3 2 0 0
37 37 37 37 37 37 37 38 38 38 38 38 39 40 40 40
40 40 40 40 40 40 41 40 41 41 41 41 42 41 42 42
43 43 42 43 43 42 42 42 38 22 22 22 28 8 12 2
0 0 4 3 8 13 22 55 109 123 127 126 127 140 144 144
141 120 130 131 124 122 124 126 127 125 123 122 123 123 124 125
124 123 122 120 122 129 135 131 126 120 115 103 55 67 103 120
112 102 110 115 114 57 46 34 3 1 0 0 0 0 0 34
35 37 32 0 0 3 6 2 6 11 48 43 4 0 0 0
37 37 37 37 38 38 38 39 38 38 38 39 40 39 39 39
40 40 40 40 40 40 41 41 41 41 42 43 42 42 42 42
42 42 42 42 42 43 43 42 37 23 23 23 34 16 12 5
0 0 3 5 6 17 23 59 111 122 122 120 122 140 140 144
145 110 125 127 124 127 124 125 128 123 123 123 124 127 123 126
123 123 123 121 123 127 130 128 122 114 118 107 48 62 83 56
23 19 86 103 91 48 47 32 2 2 0 0 0 0 0 32
45 43 34 0 0 6 19 0 0 9 50 47 28 23 18 14
37 37 37 37 38 38 38 38 38 38 39 38 39 40 39 39
39 40 40 40 40 40 41 40 41 41 42 41 42 41 42 42
43 42 42 42 43 43 42 42 38 23 23 21 37 27 6 7
1 0 2 7 7 14 25 56 113 121 118 116 116 126 136 140
143 88 110 126 125 125 127 126 127 124 123 122 126 126 127 125
125 124 121 122 124 125 126 125 119 116 120 119 84 71 110 106
74 46 86 75 54 46 45 35 13 1 0 0 0 0 0 26
48 49 37 3 0 8 23 1 0 9 52 42 45 50 45 40
37 37 37 37 38 38 37 38 38 39 38 39 39 40 39 40
40 40 40 40 40 40 41 41 42 42 42 42 42 42 43 42
42 43 43 42 42 42 42 42 38 23 23 21 38 33 7 3
5 0 1 5 5 12 23 44 105 120 115 113 114 112 118 123
115 49 108 121 123 124 125 128 130 124 123 123 123 124 125 125
124 122 121 123 122 124 125 122 116 119 121 121 118 109 103 103
75 45 48 47 42 43 41 42 31 5 0 0 0 0 0 22
47 48 47 35 4 9 20 2 0 7 38 34 45 53 49 46
37 37 38 38 38 39 39 38 38 38 38 39 39 39 39 39
40 39 40 39 40 40 40 41 41 41 42 41 42 42 42 41
42 42 42 42 42 43 43 42 38 24 24 22 39 32 8 1
2 0 1 5 4 11 24 37 86 115 116 113 113 116 111 106
53 55 116 120 121 122 121 121 125 124 125 122 123 123 125 122
123 125 123 123 124 122 123 120 117 115 117 115 114 109 106 98
89 56 48 46 44 44 43 43 29 14 0 3 5 2 0 21
50 45 31 34 18 15 20 7 2 4 24 35 45 46 47 43
38 38 37 38 38 38 38 38 39 38 39 39 39 39 40 40
40 40 41 40 40 41 41 41 41 41 41 41 42 41 42 42
42 42 42 42 43 42 43 42 38 26 25 23 39 38 8 0
2 0 0 2 2 12 21 32 68 113 115 120 119 118 120 124
104 104 117 117 120 120 122 122 122 126 126 124 121 124 124 124
124 121 122 122 124 119 119 117 110 111 113 112 112 109 107 99
95 60 48 48 46 46 49 48 37 20 4 20 21 8 4 32
44 13 1 17 45 38 40 41 37 12 8 15 18 20 21 26
36 36 37 37 38 38 39 38 39 38 39 38 38 39 39 39
39 40 40 39 40 40 41 40 41 42 41 41 41 42 42 41
41 41 42 42 42 43 42 42 39 28 24 23 38 35 7 0
0 0 0 0 0 3 26 64 82 116 120 123 121 118 117 120
112 110 114 111 113 117 121 123 122 124 127 124 122 123 123 126
124 123 123 123 122 119 117 111 104 106 111 119 124 121 116 106
95 58 48 46 43 41 44 53 55 50 45 47 46 43 42 39
19 4 4 6 42 17 14 19 20 3 0 0 0 0 0 5
37 37 37 37 38 38 38 38 38 38 39 38 38 39 39 40
40 40 41 40 40 40 40 41 41 41 41 42 41 42 41 41
42 42 43 43 43 43 42 42 39 28 22 23 38 38 7 0
0 0 0 0 0 0 13 40 100 114 114 121 120 118 118 116
113 113 110 110 108 113 120 123 123 123 123 121 123 122 123 125
123 122 123 123 121 120 115 94 92 101 113 125 129 124 117 111
100 55 50 47 44 43 44 53 62 60 57 57 57 52 33 10
2 24 23 6 32 16 0 0 4 0 0 0 0 0 0 2
37 38 37 37 38 38 38 38 38 38 39 38 39 39 39 39
40 39 40 40 40 41 40 41 41 41 41 41 42 41 42 42
42 42 42 42 42 42 43 42 39 28 22 24 39 39 5 0
0 0 0 0 0 0 5 31 96 113 112 115 116 116 116 110
109 107 106 106 107 108 114 120 122 123 123 124 122 124 124 122
120 119 122 121 118 119 113 64 53 63 69 75 87 98 99 98
99 57 53 49 46 44 45 53 62 61 61 60 49 40 25 0
0 24 24 13 24 32 4 1 9 0 0 0 0 0 0 2
37 38 38 38 38 38 38 38 38 38 39 38 39 39 39 40
39 39 40 40 40 40 40 41 41 41 41 41 41 41 42 41
42 42 42 43 43 43 43 43 39 27 23 25 39 43 19 3
0 0 0 0 0 1 11 40 99 109 109 111 112 114 112 104
104 102 101 97 105 105 112 115 116 116 117 119 120 123 123 120
120 118 120 119 117 121 119 91 53 49 74 56 79 68 71 77
84 55 52 50 47 45 45 46 46 52 60 51 35 31 35 3
0 8 27 27 31 43 12 0 8 0 0 2 0 0 0 0
38 38 38 38 38 38 38 38 39 39 39 39 39 39 40 39
40 39 40 39 40 40 40 40 41 40 41 41 42 41 42 42
42 43 42 42 43 43 43 42 39 26 24 24 39 44 33 8
0 0 0 0 0 0 15 41 100 106 105 107 106 111 108 102
99 98 97 99 100 103 105 109 111 111 114 110 115 117 118 119
116 116 115 117 117 121 125 125 100 79 103 94 136 136 92 39
65 54 52 49 47 43 42 39 35 39 55 47 23 21 38 14
0 12 27 24 30 45 17 0 12 5 7 8 0 0 0 0
38 37 37 38 38 38 38 38 38 38 38 39 39 39 39 39
39 39 40 39 40 40 40 40 40 41 41 41 41 41 42 41
41 42 42 42 43 42 42 42 38 26 23 24 39 46 39 11
0 0 0 0 0 0 11 46 97 104 102 104 109 111 106 98
93 94 94 97 96 96 98 103 107 105 108 104 113 112 116 118
114 113 115 116 116 119 125 128 123 107 96 95 115 139 132 34
55 53 53 49 47 44 43 41 37 30 50 45 12 19 33 22
8 16 17 12 18 36 26 0 15 7 15 12 0 4 0 0
38 39 38 38 38 38 38 38 38 38 38 38 38 39 39 39
39 40 39 39 40 40 40 40 40 41 40 41 41 41 41 41
42 42 42 42 42 42 42 42 38 26 23 23 39 47 40 14
0 0 0 0 0 0 12 53 104 102 100 103 107 109 104 95
91 92 94 96 96 94 94 98 101 103 105 108 111 109 113 114
114 113 115 116 118 118 123 128 127 122 118 114 111 103 114 74
55 52 52 49 47 46 47 46 41 30 43 49 25 28 26 30
33 27 13 9 12 30 38 3 18 7 14 15 0 0 0 0
38 37 37 37 38 37 38 38 38 38 38 39 39 39 39 38
38 39 39 39 39 39 39 40 40 40 41 40 41 41 40 41
41 42 41 42 41 41 42 42 38 25 23 23 39 46 33 7
0 0 0 0 0 9 27 74 103 101 101 101 107 109 105 95
93 95 93 95 93 93 94 95 97 100 103 106 107 108 114 113
113 112 115 116 118 118 125 129 129 126 123 118 120 118 89 64
56 54 52 50 48 46 46 45 41 30 34 52 34 26 29 31
29 26 24 23 30 29 41 12 20 7 12 15 0 2 0 0
39 38 38 38 38 38 38 37 38 38 38 38 38 38 38 39
39 39 39 40 39 40 40 40 41 40 40 40 40 41 41 41
41 41 41 41 42 42 42 42 38 24 22 22 39 45 29 6
0 0 0 1 8 39 51 93 102 101 100 103 108 109 105 96
91 94 97 98 92 90 88 89 92 96 98 103 106 110 109 111
115 116 114 118 119 121 125 126 127 124 124 119 112 107 95 81
53 50 50 51 49 46 46 46 43 33 26 50 43 38 35 38
18 24 39 47 49 44 47 25 23 8 11 13 0 0 0 0
38 39 38 37 37 37 38 37 38 37 38 38 39 38 39 38
39 38 38 39 39 39 39 39 40 40 40 40 40 41 41 41
42 41 42 41 41 41 42 41 37 23 22 21 39 46 42 20
3 2 0 0 10 58 86 100 103 102 102 104 109 112 109 99
93 97 101 102 96 89 82 83 87 88 91 96 102 107 111 113
113 112 114 119 119 123 120 121 122 122 121 114 102 94 92 80
52 49 50 49 47 46 45 44 42 35 21 41 45 39 33 30
4 37 46 48 49 46 42 21 26 13 14 15 16 19 23 28
38 39 38 37 38 37 37 37 37 38 37 38 38 38 38 38
38 38 39 39 39 39 39 39 39 39 40 40 40 40 40 40
40 41 41 41 41 41 41 41 36 23 23 21 39 46 45 33
18 11 1 0 11 73 99 106 104 102 104 108 110 115 113 102
95 100 104 104 100 94 88 83 84 86 91 95 101 106 108 111
111 112 115 117 122 122 119 119 122 122 122 119 105 86 74 53
49 46 46 47 48 48 49 46 44 36 23 32 47 38 31 35
23 46 50 48 45 34 13 0 32 52 53 53 55 57 58 59
39 39 38 37 37 37 38 37 37 38 37 38 38 38 38 38
38 39 39 39 38 38 39 39 39 39 39 40 40 40 41 41
41 41 41 41 41 41 41 41 37 23 21 20 38 45 45 43
35 26 5 0 12 87 105 109 107 103 106 110 112 117 119 111
100 99 105 106 103 98 94 89 89 86 87 89 97 103 111 110
113 112 117 120 121 122 120 119 125 128 124 122 115 96 66 43
47 46 45 44 46 47 47 45 43 36 24 22 46 39 39 41
44 50 49 45 34 16 9 7 33 59 58 59 60 60 60 60
39 39 37 37 37 37 37 38 37 37 37 37 37 38 38 38
38 38 38 38 39 39 39 39 39 39 40 40 40 40 40 40
40 40 40 40 40 41 41 41 37 25 19 20 38 46 46 45
43 37 18 2 22 91 104 110 111 105 106 110 113 118 121 121
114 106 105 102 105 102 98 95 93 86 88 92 95 101 105 112
115 116 121 121 121 125 123 122 125 130 127 122 114 101 55 45
46 42 43 45 45 47 46 47 45 38 25 16 40 42 39 45
48 47 44 36 34 39 37 34 41 55 53 50 48 44 39 25
40 39 39 38 37 37 38 37 38 37 37 37 38 38 38 39
39 39 39 39 39 39 39 39 39 39 39 39 40 40 40 40
40 40 41 41 41 41 41 41 37 24 19 20 37 46 46 45
46 42 32 21 34 100 107 111 113 106 105 109 114 120 125 126
122 116 109 104 107 105 101 98 96 92 91 91 89 93 103 111
113 118 120 123 123 131 128 127 127 133 131 126 115 103 45 47
47 42 43 44 42 44 44 46 49 40 26 15 28 47 45 44
40 36 34 32 34 35 33 32 33 34 32 31 30 28 26 19
40 39 38 38 37 37 37 37 37 37 38 37 38 38 38 38
38 38 38 38 39 39 39 39 39 39 40 39 40 40 40 40
40 39 41 44 40 40 41 40 37 24 20 20 38 45 45 45
45 44 43 38 54 103 110 111 111 107 107 110 114 120 126 127
123 118 111 109 108 106 103 102 99 93 89 89 86 93 98 104
109 114 122 123 126 127 129 133 131 129 132 129 118 107 46 49
52 46 45 44 43 46 47 47 48 40 24 15 20 45 35 32
31 30 31 32 32 31 31 31 31 30 30 29 29 28 28 27
42 40 38 38 38 38 38 37 38 37 37 37 37 38 38 38
38 38 38 38 39 39 39 39 39 39 39 40 40 39 39 39
39 30 35 41 42 41 41 41 37 25 20 20 37 45 44 45
45 45 44 44 66 105 110 113 112 107 107 109 114 120 125 123
122 119 116 111 108 105 105 104 100 95 89 90 89 88 91 96
103 110 116 120 122 123 127 132 133 132 131 126 119 111 59 50
54 51 50 50 51 51 52 51 51 42 25 15 15 35 30 30
30 31 31 30 26 26 26 26 26 25 25 25 25 24 24 24
44 41 39 38 38 38 37 37 37 37 37 37 37 38 38 38
38 39 39 39 38 38 39 38 39 38 40 39 39 40 40 40
39 35 43 50 50 49 49 48 47 40 37 37 46 50 50 50
49 49 49 47 77 107 111 113 113 108 106 109 112 119 125 122
119 119 119 115 111 107 106 104 99 94 90 90 92 89 91 93
95 102 107 115 117 118 124 129 131 126 127 125 119 114 75 50
51 50 49 48 48 45 50 52 51 43 24 14 13 16 28 30
31 31 32 17 2 2 2 2 1 2 1 2 1 2 2 3
45 41 39 39 37 37 38 37 38 37 37 37 37 37 38 37
37 37 38 38 38 39 38 38 39 39 40 39 39 40 39 30
29 27 45 53 53 53 54 53 53 52 53 52 53 52 52 52
52 52 51 52 89 107 112 113 111 107 106 109 112 117 119 121
118 118 117 117 116 112 108 104 101 98 94 93 93 93 93 92
89 93 98 104 107 110 117 120 124 121 118 117 114 111 81 50
49 48 47 46 44 40 44 50 50 43 23 15 14 6 26 33
29 31 31 15 0 0 0 0 0 0 0 0 0 0 0 0
46 42 40 38 38 37 37 37 37 36 37 37 37 38 38 38
38 38 38 38 38 38 37 35 37 38 38 39 39 39 37 25
23 25 45 54 54 54 54 53 54 53 54 53 53 53 52 53
53 52 52 56 97 109 113 113 112 108 107 109 112 117 121 121
122 121 118 121 120 118 110 112 109 104 97 92 92 91 92 90
82 80 84 91 94 102 108 112 115 113 106 105 107 105 66 37
35 34 33 32 35 41 42 47 50 42 23 15 14 6 23 29
24 30 31 16 0 0 0 0 0 0 0 0 0 0 0 0
47 42 40 38 37 37 36 36 36 37 37 37 38 37 38 37
37 38 37 38 37 36 34 34 37 39 39 39 39 40 36 24
21 24 44 54 52 50 50 51 50 50 51 50 50 50 50 50
50 50 50 59 101 107 113 113 112 111 107 109 110 115 123 123
124 123 123 122 123 123 122 121 119 113 105 96 91 90 88 78
77 71 67 70 76 82 87 96 98 94 93 92 94 76 10 6
6 5 5 6 26 42 40 45 48 40 22 17 20 20 25 22
18 29 32 17 0 0 0 0 0 0 0 0 0 0 0 0
47 42 39 38 37 36 36 36 36 36 35 36 38 38 38 38
38 38 38 38 35 34 33 35 36 37 38 38 38 38 34 23
22 24 44 55 42 22 23 23 23 23 22 22 22 22 22 22
22 23 26 56 105 109 114 114 113 110 107 107 112 118 124 125
124 125 126 126 127 128 130 128 126 124 117 104 92 84 77 66
60 58 55 55 55 52 55 62 67 72 70 68 72 25 2 2
1 1 0 0 21 43 39 38 37 30 19 18 23 23 25 20
20 29 32 19 0 0 0 0 0 0 0 0 0 0 0 0
48 43 40 38 36 37 35 35 35 34 35 36 39 39 39 39
39 39 39 38 33 30 31 32 32 33 34 34 35 35 31 22
21 23 43 55 41 19 20 22 23 23 23 23 22 22 21 21
22 22 14 68 107 109 113 114 113 110 107 108 114 119 122 125
126 129 129 130 131 132 133 133 134 134 127 118 100 74 58 50
44 40 36 35 34 29 27 29 34 38 42 44 28 6 6 5
5 5 4 2 12 44 38 25 18 15 13 13 20 21 25 21
24 29 32 21 0 0 0 0 0 0 0 0 0 0 0 0
50 44 41 39 37 36 36 35 35 35 36 37 39 39 39 39
39 39 39 38 34 30 31 30 31 31 32 32 32 32 27 21
21 23 42 55 43 21 28 52 57 57 58 55 53 53 52 50
49 40 11 92 108 108 111 115 112 110 107 109 113 119 124 127
126 127 127 129 130 134 134 132 134 136 132 126 106 68 42 30
27 23 21 20 18 17 16 16 16 20 25 17 8 7 6 6
5 4 4 3 6 40 37 21 12 12 12 12 18 20 25 24
25 29 31 21 0 0 0 0 0 0 0 0 0 0 0 0
51 46 43 40 38 37 36 35 35 35 35 36 40 40 39 39
39 39 39 38 34 30 30 31 31 31 31 32 32 31 25 21
21 22 41 55 44 21 33 75 83 85 85 85 84 85 84 68
43 33 34 105 109 110 112 114 113 110 109 108 113 117 124 127
125 127 126 127 129 130 131 133 133 135 133 126 115 79 31 19
21 38 48 9 23 28 29 22 15 12 10 7 7 6 5 5
5 4 4 3 2 36 38 24 12 12 11 11 16 20 24 24
26 28 31 23 0 0 0 0 0 0 0 0 0 0 0 0
51 46 42 40 38 37 35 34 35 35 35 37 40 40 39 39
38 38 39 38 34 30 30 31 31 31 32 32 32 31 24 21
21 22 40 54 45 21 30 74 84 85 86 85 85 84 48 19
17 28 41 107 109 110 111 111 110 109 108 106 112 117 124 125
125 125 123 125 123 126 127 131 132 137 133 127 117 95 42 19
16 71 68 10 26 27 22 26 22 12 9 8 8 7 6 5
5 4 4 2 0 29 38 27 12 11 11 11 15 20 24 24
26 28 31 24 0 0 0 0 0 0 0 0 0 0 0 0
52 47 43 39 37 37 35 34 34 34 34 35 39 39 39 38
38 39 39 38 34 30 30 30 30 30 31 31 31 29 22 21
20 21 38 54 45 22 30 73 85 86 87 85 61 43 17 11
26 24 25 89 111 111 110 111 108 108 107 105 111 117 123 124
125 123 123 121 120 123 123 127 130 129 127 123 118 100 40 15
20 87 53 14 26 26 19 22 24 27 20 16 11 10 9 8
8 7 6 4 0 21 39 30 13 11 10 11 13 18 23 24
25 27 30 23 0 0 0 0 0 0 0 0 0 0 0 0
52 46 42 38 36 36 35 34 35 34 34 36 39 39 39 38
38 39 39 38 33 29 29 29 29 30 31 31 31 28 21 20
20 21 37 53 45 23 30 74 89 90 90 69 26 23 16 10
25 22 19 42 106 111 111 110 108 107 106 106 109 116 123 123
125 123 120 117 117 120 121 121 123 123 123 121 115 97 74 51
58 98 50 19 27 25 21 20 20 27 21 26 30 35 37 36
36 34 33 20 1 13 39 32 12 10 10 10 12 19 24 24
25 27 31 26 1 0 0 0 0 0 0 0 0 0 0 0
53 46 42 38 36 36 35 34 34 34 34 35 38 38 38 37
38 38 38 37 33 29 29 30 29 30 30 30 30 26 18 20
20 20 36 53 47 25 30 77 94 80 53 32 26 25 16 11
20 19 19 19 61 109 110 110 110 108 105 106 109 115 122 123
124 123 122 119 117 119 120 120 121 121 119 117 110 112 108 100
98 102 49 22 26 23 20 17 19 26 26 23 23 28 31 36
38 41 40 28 2 8 38 33 16 11 11 12 13 21 23 23
24 26 30 26 1 0 0 0 0 0 0 0 0 0 0 0
52 45 42 39 37 36 36 34 34 34 33 35 37 38 38 38
38 38 38 37 33 29 28 28 29 29 30 29 30 24 18 21
20 21 35 53 47 25 29 58 46 28 24 24 23 27 21 13
18 18 18 18 22 69 109 110 110 107 106 105 109 116 122 123
122 124 122 120 119 118 118 118 118 116 114 112 113 117 115 113
106 97 31 24 26 22 19 17 19 24 24 19 20 21 24 23
24 30 33 31 6 4 36 35 20 12 11 11 12 19 23 22
24 25 30 27 2 0 0 0 0 0 0 0 0 0 0 0
49 43 40 38 36 36 35 34 34 33 34 34 36 37 38 38
37 37 37 37 32 28 28 28 28 28 29 28 28 23 18 21
19 20 33 52 47 27 26 20 19 24 25 21 20 24 24 16
13 17 17 16 17 24 70 110 110 107 106 105 109 114 122 124
124 124 122 121 120 118 116 116 114 112 110 110 118 118 114 114
106 66 19 24 25 20 17 18 21 23 23 22 20 20 21 20
22 23 22 24 25 24 32 34 21 12 11 10 11 18 23 22
23 25 30 26 2 0 0 0 0 0 0 0 0 0 0 0
49 43 40 39 37 37 36 35 34 34 34 34 36 38 38 38
38 38 38 38 32 27 27 27 28 28 28 28 28 25 20 20
20 21 32 41 35 21 20 18 19 21 23 19 17 18 22 19
12 14 18 16 16 17 23 71 107 107 107 106 107 109 120 123
124 125 123 120 120 119 116 112 106 101 105 116 119 118 117 113
85 27 19 22 24 19 17 21 24 23 22 23 23 22 23 22
20 21 21 22 23 24 25 27 29 24 20 12 10 16 22 23
23 24 29 27 2 0 0 0 0 0 0 0 0 0 0 0
47 41 38 39 39 36 35 34 34 33 33 34 36 38 38 39
38 38 38 37 31 27 27 27 28 28 27 28 28 25 20 20
25 30 25 22 19 12 18 16 18 20 21 20 18 16 19 19
15 12 15 16 16 16 17 23 62 102 105 106 107 111 118 122
126 126 123 123 120 117 114 105 98 98 110 119 120 118 114 86
30 19 17 21 20 17 18 23 21 23 24 26 26 27 26 25
24 23 24 26 30 30 30 28 30 28 26 27 16 12 19 23
23 24 29 27 3 0 0 0 0 0 0 0 0 0 0 0
46 40 30 38 44 36 35 34 33 33 33 34 36 37 38 38
38 38 38 38 32 27 27 28 28 27 27 27 27 24 20 23
25 26 22 20 20 18 11 15 18 18 19 19 18 17 16 18
18 13 14 16 16 16 18 19 22 55 101 107 108 114 117 122
124 127 125 123 121 119 113 106 100 107 114 117 116 96 50 22
19 19 19 19 16 17 23 22 21 25 26 26 26 25 26 25
24 24 27 32 32 32 31 30 29 29 31 31 31 24 20 22
22 23 28 27 3 0 0 0 0 0 0 0 0 0 0 0
43 39 28 38 44 36 35 34 34 33 33 35 35 38 38 39
38 38 39 38 33 27 27 27 26 27 27 28 28 29 31 29
25 21 21 21 20 20 17 14 14 17 18 18 18 17 16 16
18 17 13 17 17 16 17 18 17 18 40 87 107 112 117 121
123 124 124 122 120 116 112 105 103 107 100 77 43 20 18 17
19 18 18 16 17 22 22 21 22 25 24 25 25 26 28 27
26 29 32 32 33 33 30 27 28 29 30 29 30 35 37 29
22 24 28 28 4 0 0 0 0 0 0 0 0 0 0 0
42 33 28 42 47 37 34 34 35 34 33 34 35 36 37 38
37 37 38 37 33 27 27 27 27 26 27 30 33 32 32 29
29 27 23 20 21 21 18 17 16 16 18 18 18 17 15 15
16 16 15 14 16 16 16 16 18 16 17 22 59 95 112 119
122 122 123 119 115 111 100 86 70 47 25 21 16 18 18 19
16 18 18 16 19 21 21 19 21 22 23 25 26 27 27 29
28 30 30 29 32 29 27 28 27 28 29 29 30 28 34 42
35 25 27 27 5 0 0 0 0 0 0 0 0 0 0 0
40 28 20 31 43 36 34 34 34 34 34 33 35 37 38 38
38 38 38 37 33 27 26 26 26 27 33 32 29 28 29 29
29 31 31 23 21 20 20 21 19 16 14 15 16 18 17 16
16 16 18 16 15 17 15 15 16 14 17 16 17 22 35 53
69 71 68 61 54 39 27 23 21 20 18 16 16 18 17 16
18 16 16 18 20 19 19 18 20 21 24 27 30 31 31 32
32 32 30 30 27 27 27 27 27 28 27 27 26 28 29 35
38 38 32 28 20 19 19 19 21 21 21 20 20 21 21 20
38 25 17 26 42 36 34 34 34 33 33 34 35 37 38 37
37 37 37 36 33 27 26 27 30 33 30 27 27 27 27 29
29 31 32 29 25 21 23 22 21 21 17 14 13 15 16 16
16 16 16 18 17 16 16 14 13 14 16 15 16 14 15 17
18 18 17 17 17 16 17 18 18 18 18 15 17 18 18 17
18 17 20 21 20 19 19 19 23 25 28 32 33 32 34 35
34 32 28 28 29 28 27 26 25 27 27 26 26 27 28 31
31 34 37 30 28 27 26 26 26 25 25 25 24 24 23 23
36 23 18 28 34 34 34 34 33 33 33 33 35 36 37 37
37 37 37 36 32 26 28 32 33 29 24 24 23 24 24 27
28 28 29 31 27 26 25 24 22 24 24 18 14 13 14 14
15 16 16 17 17 17 15 15 15 14 14 14 13 13 16 19
20 19 19 17 17 17 17 18 17 17 17 14 17 17 16 17
17 20 22 21 19 22 24 25 28 28 32 33 33 33 33 34
35 30 28 26 27 26 25 26 27 26 25 27 25 25 27 30
28 29 31 34 26 26 27 26 26 25 25 24 24 23 22 21
35 21 8 12 24 32 33 34 32 32 33 33 35 36 37 37
37 37 37 36 31 29 34 28 28 25 22 21 24 24 24 28
28 27 28 28 27 29 28 25 22 24 25 24 20 16 15 13
14 15 15 15 15 15 16 15 14 13 14 14 14 13 17 18
19 19 17 17 17 18 18 19 19 18 20 19 20 20 19 17
21 23 23 22 25 29 28 28 28 30 31 33 31 32 31 32
32 28 26 26 27 26 25 25 26 22 22 23 24 23 26 28
26 26 26 28 33 24 22 21 21 19 18 17 16 16 15 13
33 19 3 10 27 33 33 34 32 32 32 32 34 35 36 35
36 36 36 36 35 34 25 23 23 21 22 21 24 23 26 26
27 26 28 27 27 28 28 28 25 23 25 24 23 22 18 15
15 14 14 14 14 15 16 15 14 14 14 16 16 15 16 18
18 19 20 20 20 22 22 23 23 22 21 21 18 18 20 23
23 22 23 26 28 28 28 29 29 29 31 32 33 29 31 31
30 28 25 25 24 26 26 23 25 23 23 22 22 23 25 27
24 27 22 25 31 27 19 19 20 19 19 18 18 18 18 17
34 19 4 10 30 33 32 32 32 32 32 32 34 35 36 36
36 36 36 36 35 23 20 19 21 20 20 19 23 23 26 27
28 28 29 27 27 28 28 27 26 22 24 24 26 24 22 19
17 16 15 16 15 15 14 14 14 13 12 13 16 18 19 20
21 20 21 22 24 22 21 21 20 16 14 17 19 20 25 24
21 21 27 26 28 28 27 28 29 29 30 29 29 30 29 29
29 26 25 24 26 26 26 23 23 22 22 22 22 22 22 24
21 24 22 24 26 31 25 21 22 19 17 16 14 12 12 11
36 20 8 11 31 32 33 32 33 32 32 33 33 34 35 36
35 36 36 36 25 17 19 19 19 19 20 21 24 25 26 26
29 29 28 26 26 26 25 26 27 24 24 23 25 25 23 22
20 20 19 16 15 13 13 12 14 12 12 11 11 12 13 16
19 18 18 18 15 14 13 14 14 16 18 19 22 24 23 21
21 23 25 25 27 25 26 26 28 29 29 28 30 27 29 30
27 26 23 24 23 23 24 24 21 22 23 21 22 20 21 24
20 21 21 25 26 25 25 4 4 1 0 0 0 0 0 0
39 23 16 27 38 33 32 33 32 32 32 33 34 35 36 36
37 36 38 31 22 18 19 20 18 18 21 23 24 25 26 27
29 30 27 26 27 27 26 26 26 25 24 24 24 24 23 23
23 24 24 19 18 16 13 12 14 14 12 12 10 10 8 9
9 10 11 12 14 15 14 16 19 20 23 25 25 24 22 21
25 25 26 26 28 26 27 27 29 28 30 29 29 30 29 27
26 23 23 24 25 23 25 24 23 23 21 21 22 19 20 23
20 18 19 24 26 25 26 14 0 0 0 0 0 1 0 0
37 22 18 34 41 33 33 33 33 33 33 33 34 35 36 37
36 36 30 25 19 17 18 21 19 20 23 24 25 24 26 27
27 28 26 25 27 27 25 24 25 26 24 23 23 24 23 23
24 23 23 22 21 19 16 14 13 14 12 13 14 12 14 16
15 14 13 13 16 17 19 21 22 24 25 25 24 21 20 24
26 26 24 26 26 24 25 27 28 28 29 32 31 30 28 27
27 25 24 25 24 22 23 23 22 23 21 22 20 17 20 24
23 18 22 25 25 26 23 23 15 16 18 18 18 16 14 10
