P2
128 120
153
38 38 39 39 40 40 40 41 41 42 42 42 43 43 43 43
44 44 45 45 45 45 45 46 46 46 47 46 47 47 48 48
48 48 48 48 49 49 48 48 48 48 49 48 49 49 48 48
48 48 48 48 48 47 47 47 47 46 46 46 46 45 46 45
45 44 44 44 44 43 43 42 43 41 41 40 40 40 39 38
38 38 37 38 37 37 37 37 36 36 36 35 35 35 34 34
35 35 35 35 35 34 35 35 35 35 36 36 36 36 37 36
38 38 39 39 39 40 40 41 41 41 42 43 43 43 44 44
37 37 38 38 39 39 40 40 42 42 42 42 43 43 43 44
44 43 44 44 45 45 46 46 46 46 47 46 47 47 47 47
47 47 47 47 48 48 48 47 48 48 49 48 48 49 48 48
48 47 47 47 47 47 46 46 46 47 46 46 46 46 46 45
45 44 44 43 43 43 42 42 42 41 41 41 40 40 40 39
38 38 38 37 37 37 37 37 36 36 35 36 35 35 35 35
35 35 34 35 35 34 35 35 35 35 35 36 37 37 36 38
39 39 39 39 40 40 40 40 41 42 42 43 43 44 44 45
37 38 38 39 39 39 40 41 41 41 41 42 42 43 44 44
44 45 45 45 45 45 45 46 46 46 46 46 47 47 46 46
47 47 48 48 48 48 48 48 48 48 48 48 48 48 47 47
48 47 47 46 47 47 47 46 47 47 46 46 46 46 45 45
45 44 44 44 44 43 43 42 42 42 42 41 40 40 40 39
39 38 38 38 37 38 38 37 37 37 36 36 36 35 36 35
35 35 35 35 35 35 35 35 36 35 36 36 36 37 37 37
38 38 39 40 40 41 41 42 42 43 43 43 44 44 45 45
38 39 39 39 39 40 40 41 41 42 42 42 44 44 44 45
45 45 45 45 45 46 46 45 45 46 46 47 47 47 47 47
47 47 47 47 48 48 48 48 48 48 48 48 48 48 48 49
48 48 47 47 47 47 47 47 47 47 47 46 46 46 46 46
45 45 45 44 44 44 43 43 42 42 42 42 42 41 41 41
40 39 39 38 38 38 38 38 37 36 37 36 37 36 36 36
36 36 36 36 36 36 35 36 36 36 36 36 37 37 37 38
38 39 40 40 40 41 42 42 42 42 43 44 44 44 46 45
38 39 39 39 40 40 40 41 42 42 42 42 43 43 44 44
45 45 45 45 46 46 46 46 46 46 46 47 46 46 47 47
47 47 48 47 48 48 48 48 48 48 48 48 48 47 47 47
47 47 47 47 47 47 47 47 47 46 46 46 46 46 46 45
45 45 45 44 44 43 43 43 43 43 42 42 41 41 41 40
40 39 39 38 38 38 38 38 38 37 37 37 37 37 36 36
36 35 36 36 36 36 36 36 36 36 37 37 37 37 38 38
38 39 39 39 40 41 42 42 41 43 43 43 44 45 45 45
38 38 38 39 39 39 40 40 41 41 42 42 43 44 44 44
45 45 45 46 46 46 46 46 46 46 46 46 47 47 47 47
48 47 48 48 48 47 48 47 47 47 48 48 48 48 48 47
47 48 48 48 48 47 47 47 47 46 46 46 46 46 46 45
45 44 45 44 44 44 44 43 42 42 42 42 42 42 41 41
40 40 40 38 39 38 39 38 38 37 37 37 37 37 37 36
37 37 37 37 36 36 37 36 36 37 37 37 37 37 37 38
38 39 39 39 40 41 41 41 42 43 43 44 44 44 44 45
38 38 38 39 39 40 40 41 41 42 42 42 43 43 43 44
44 44 45 45 45 45 46 46 46 46 47 47 46 47 46 46
46 46 47 47 47 47 47 47 48 48 48 48 47 47 47 47
47 47 47 47 47 47 47 47 47 46 46 46 46 45 46 46
45 44 44 44 43 44 43 43 42 42 43 42 42 41 41 41
40 40 39 39 39 39 38 38 38 38 38 37 38 37 38 36
37 36 36 36 36 36 36 36 36 36 37 36 37 37 38 38
38 39 40 40 40 40 41 41 41 42 43 43 43 44 45 45
38 39 38 39 39 40 41 40 41 41 42 42 42 42 43 44
44 45 45 45 45 46 46 46 46 46 47 47 47 47 47 47
47 47 47 47 47 47 48 47 47 47 47 47 47 47 47 47
47 47 47 47 47 47 47 47 47 46 46 46 46 46 46 45
45 45 45 45 45 44 44 44 43 43 43 42 42 41 41 41
41 40 40 39 39 39 39 39 38 38 38 38 37 37 37 37
37 37 36 36 36 36 37 36 36 37 37 37 38 37 38 37
38 38 39 39 40 40 41 41 42 42 43 43 44 43 44 44
38 38 39 39 40 40 40 41 41 42 42 43 42 43 43 43
44 43 44 44 45 45 45 45 45 47 47 47 47 47 47 47
47 47 47 47 47 47 47 47 47 47 47 47 47 47 47 47
47 47 47 47 47 46 47 46 46 46 46 46 46 46 45 46
45 45 45 44 44 44 43 43 43 43 43 43 42 41 41 41
41 40 40 39 39 39 39 38 38 38 38 38 37 38 38 37
37 37 37 37 36 36 37 36 36 36 37 36 37 38 38 38
39 39 39 40 41 41 40 41 41 42 42 43 43 43 44 44
38 38 39 39 39 40 40 41 41 41 42 42 42 42 43 43
43 43 44 44 45 45 45 46 46 46 46 46 46 46 46 46
47 46 47 46 47 46 47 47 47 46 47 47 47 46 47 47
46 46 47 46 47 46 47 47 47 46 46 46 46 46 45 44
45 44 44 44 44 44 44 43 44 43 42 42 43 42 41 41
40 40 40 40 40 39 39 39 38 38 39 38 38 38 38 37
37 36 37 37 36 36 36 36 37 37 37 37 37 37 38 38
38 38 38 39 40 40 40 41 41 41 42 43 43 44 44 44
39 39 39 39 39 39 41 40 41 41 41 42 43 43 43 43
43 43 43 45 44 45 45 45 45 46 46 46 46 46 47 47
47 47 47 47 47 47 47 47 47 47 47 47 47 47 47 47
47 47 47 47 46 46 46 46 46 46 46 46 46 45 46 46
45 45 45 45 45 44 43 43 43 42 42 42 42 42 41 41
41 41 41 41 40 40 39 39 39 39 38 38 38 38 38 38
37 37 38 36 37 37 37 37 37 37 37 37 37 37 37 38
38 39 39 39 40 39 40 41 41 42 42 43 43 43 43 44
37 38 38 38 39 40 40 40 41 41 42 42 42 42 42 42
43 42 44 44 44 44 45 45 45 46 46 46 46 46 46 46
46 46 47 47 47 47 47 47 47 46 47 47 47 46 47 46
46 47 46 45 46 46 46 46 46 46 46 46 46 45 45 45
45 44 44 44 44 44 44 44 44 43 43 42 42 42 42 41
41 40 40 40 40 39 39 39 39 39 39 39 38 38 38 38
37 37 37 37 37 37 37 36 37 37 37 37 37 38 37 38
38 38 38 39 40 39 40 40 41 41 42 42 42 43 43 43
39 39 39 39 39 39 40 40 40 41 41 41 42 43 43 43
43 44 44 44 44 44 45 45 45 45 46 45 46 46 46 46
46 47 47 47 47 47 47 47 47 47 47 47 46 47 47 47
46 46 47 46 47 46 47 46 46 46 46 46 46 46 46 45
46 45 44 45 44 44 43 43 43 43 43 42 42 42 42 41
41 41 41 40 41 40 40 39 39 39 39 38 38 38 38 37
37 37 38 36 37 37 37 37 37 37 37 37 37 37 37 38
38 38 39 39 39 40 40 41 41 41 42 42 42 42 43 43
38 38 39 39 40 40 40 40 41 42 42 42 42 42 43 43
43 43 43 44 45 45 45 45 45 45 46 46 46 46 46 46
47 46 46 47 47 47 47 47 48 48 47 47 47 47 48 47
46 46 47 46 46 46 46 46 46 46 46 46 47 46 46 46
46 45 45 44 45 44 44 43 43 43 43 43 43 42 42 41
41 41 41 41 40 40 41 39 40 39 39 39 39 39 39 38
38 38 38 37 37 37 37 37 37 37 38 38 38 38 38 39
39 39 39 39 40 40 40 41 41 41 42 42 43 43 43 43
39 39 39 40 40 41 40 41 41 41 41 42 41 43 42 43
43 43 44 44 44 45 45 45 45 45 46 45 45 45 45 46
46 46 47 47 47 47 47 47 48 47 47 47 47 47 47 46
46 46 47 46 46 46 46 47 47 46 47 46 46 45 46 45
45 45 45 44 44 44 44 44 43 43 43 43 43 42 42 42
41 42 41 41 41 40 40 40 40 39 40 39 39 39 39 38
38 38 37 37 37 37 38 37 38 37 38 38 38 38 38 38
38 39 39 39 40 39 40 40 41 41 42 42 42 42 43 42
39 39 39 39 40 39 40 41 41 41 42 42 42 42 43 43
44 44 44 44 44 45 45 45 45 45 46 45 46 46 46 47
46 47 46 46 46 47 47 47 47 47 48 47 47 47 48 48
47 46 47 47 47 46 46 47 46 46 46 46 46 46 46 46
46 45 45 45 45 45 45 44 44 44 43 43 43 43 43 42
42 42 42 42 41 41 40 40 40 39 39 39 39 39 39 39
39 39 39 38 37 38 38 38 37 37 37 38 38 38 38 38
39 39 40 40 40 40 41 41 41 41 41 42 42 42 42 43
39 39 39 39 40 40 41 41 41 41 42 42 42 42 43 43
44 44 44 44 44 44 45 45 44 45 46 45 45 46 46 46
46 47 46 47 46 47 47 47 47 47 47 47 47 47 48 47
47 46 47 46 47 47 47 46 47 46 46 47 46 46 46 45
46 45 45 44 44 44 44 43 44 43 43 43 44 42 42 42
42 41 41 41 40 41 41 40 40 39 40 40 40 39 39 39
39 38 38 38 38 38 38 37 38 38 38 38 38 38 38 38
38 39 39 39 39 40 40 40 41 41 41 42 42 43 43 43
39 39 40 40 40 40 40 41 42 41 42 42 42 43 43 43
44 44 45 45 45 45 44 44 45 45 45 45 46 46 46 46
46 47 46 47 47 47 46 47 47 47 47 47 47 47 48 47
47 47 47 47 47 47 47 46 47 46 46 46 46 45 46 45
45 45 45 45 44 44 44 43 44 44 43 44 43 43 42 42
42 42 42 41 41 41 41 40 40 40 40 39 40 40 40 39
39 38 39 38 39 38 38 38 37 37 38 37 38 38 38 38
39 39 40 40 40 40 41 41 41 41 41 41 42 42 42 42
38 38 39 39 39 39 40 41 41 42 42 42 42 43 43 43
43 43 44 44 44 44 45 45 45 45 46 46 46 46 46 46
46 47 46 46 47 47 47 47 47 47 47 46 47 48 47 47
47 47 47 47 47 47 47 46 47 46 47 46 45 45 45 46
46 45 44 45 45 43 44 43 43 44 44 43 43 42 43 42
42 41 42 41 41 40 40 40 40 40 40 40 40 40 40 40
39 39 39 39 38 38 38 38 38 38 37 38 38 38 38 38
39 39 39 40 39 40 40 40 40 40 41 41 41 42 42 42
38 39 39 39 40 40 41 41 41 41 42 41 42 42 43 42
43 44 44 44 44 45 45 44 44 44 45 45 45 46 46 46
47 46 46 46 46 46 47 46 47 47 47 47 47 47 46 47
46 46 47 47 47 47 47 46 46 47 46 46 46 45 46 45
45 45 45 45 44 44 44 43 43 43 43 43 43 42 42 41
41 41 41 41 41 41 40 41 41 40 39 39 40 39 39 39
39 39 39 38 38 38 38 38 38 38 38 38 38 39 38 37
39 39 39 39 40 40 40 40 40 41 41 42 42 41 41 42
39 39 39 39 39 40 41 40 41 41 41 42 42 43 43 43
43 44 44 43 44 44 44 44 44 45 45 46 46 46 46 46
47 47 46 46 46 46 46 47 47 47 47 47 47 47 48 46
47 47 47 47 47 46 46 46 47 46 46 45 46 46 46 46
46 45 44 44 43 42 38 33 32 40 42 44 43 41 41 43
42 41 41 41 42 40 40 40 40 40 38 38 40 40 39 39
39 39 38 38 39 39 39 38 38 38 38 38 38 38 38 39
39 39 39 39 40 40 40 40 40 40 40 40 41 41 42 42
38 39 39 39 40 40 41 41 42 41 42 42 42 42 43 42
43 43 44 44 44 44 44 44 44 45 44 45 45 45 45 45
46 46 46 46 46 47 46 46 46 46 47 47 46 46 47 46
46 46 47 47 47 46 47 46 47 46 46 46 46 46 44 44
44 44 42 40 35 31 25 23 23 23 31 37 38 33 35 37
37 37 41 41 41 39 39 39 39 38 36 37 39 39 39 38
38 38 40 38 39 38 38 37 38 37 38 38 39 38 38 39
39 38 39 39 40 39 40 40 40 40 40 40 41 41 41 41
39 39 39 39 40 41 40 40 41 41 41 42 42 42 43 43
43 43 44 43 44 43 44 44 44 44 44 45 45 46 46 46
46 45 46 46 46 46 46 46 47 46 46 46 46 46 46 46
46 46 47 46 46 47 47 46 46 46 46 46 45 44 45 45
43 39 34 28 21 18 22 22 19 20 21 25 33 31 30 35
34 29 36 38 40 36 33 37 32 29 29 38 35 34 37 38
37 39 38 38 38 38 38 38 38 38 38 38 38 38 39 38
39 38 39 39 40 40 40 40 40 41 40 41 41 41 41 41
39 39 39 40 40 41 41 41 41 41 42 42 42 42 42 43
43 43 43 43 43 44 44 45 45 45 45 45 46 45 45 46
45 45 46 45 46 46 46 46 47 46 46 46 46 46 46 46
46 46 46 45 46 46 46 46 46 46 45 40 36 33 33 33
33 30 29 23 24 18 13 13 17 17 18 15 25 29 25 28
27 23 26 34 29 26 20 26 25 31 31 29 34 38 37 33
36 36 37 37 39 39 38 38 38 38 39 38 39 39 39 38
38 39 39 39 39 39 39 39 40 40 40 40 41 41 42 42
39 40 40 41 40 40 41 41 41 41 41 42 42 43 43 43
43 43 43 43 43 44 44 44 44 44 44 44 45 45 45 45
46 46 46 46 46 45 45 45 46 46 46 46 46 46 47 46
47 46 45 46 46 46 46 46 46 45 34 32 35 34 34 30
25 21 17 17 16 13 17 14 16 17 12 16 19 19 19 22
18 11 14 20 14 13 15 20 32 30 29 31 34 35 35 34
29 32 36 38 39 39 39 39 39 39 38 38 38 38 38 38
39 38 39 38 39 38 40 40 39 40 40 40 40 40 41 41
39 40 40 40 40 41 41 41 42 41 42 42 43 42 43 43
43 43 43 44 43 43 44 44 44 45 45 45 45 45 45 45
45 45 45 46 45 45 45 46 46 46 46 46 46 46 46 46
46 46 46 46 45 46 46 45 45 38 34 37 36 34 30 23
18 20 16 16 18 19 19 17 13 17 14 12 13 10 13 22
12 10 9 8 12 10 6 24 23 20 28 26 26 31 34 33
24 31 37 38 38 38 39 38 38 38 38 39 38 38 39 38
38 39 39 39 39 39 39 39 39 39 40 40 40 40 41 40
39 40 40 41 41 41 41 41 41 41 42 42 42 42 43 43
43 43 44 44 44 44 44 45 45 45 45 44 45 45 45 45
45 45 45 45 46 46 46 46 46 46 46 47 46 46 46 46
46 46 46 46 46 45 46 45 40 32 32 37 28 26 21 15
20 12 13 14 21 22 20 16 14 17 15 12 9 4 13 9
10 8 7 4 8 8 18 15 15 20 21 21 19 25 29 20
23 32 40 38 39 39 39 39 39 39 38 38 39 38 38 38
39 38 39 39 39 39 39 39 40 40 40 40 40 40 40 41
40 40 41 41 40 40 41 40 41 41 41 41 41 42 43 43
43 43 43 43 43 44 44 44 44 44 44 44 45 44 45 45
45 45 45 45 46 45 45 45 45 45 45 45 46 45 45 46
45 45 46 45 45 45 44 41 33 32 30 26 21 17 16 18
14 13 14 20 20 14 10 13 13 17 16 19 20 18 13 8
5 5 5 7 4 1 4 6 6 10 13 18 19 15 11 15
32 37 39 40 39 38 38 38 38 38 38 38 38 38 38 38
38 37 38 38 39 38 39 39 39 39 39 39 39 39 39 39
38 39 41 41 41 41 42 43 42 42 42 42 42 42 42 42
43 43 44 43 43 44 44 44 45 44 45 44 44 45 45 45
45 44 45 45 45 45 45 46 46 45 46 45 45 45 45 45
45 45 45 45 44 41 38 34 31 26 22 19 13 12 14 10
11 10 15 16 15 15 15 12 12 10 8 15 17 16 8 11
8 11 1 0 1 0 3 7 9 8 8 8 4 2 11 21
24 30 36 38 38 38 38 39 39 38 38 37 38 38 38 38
38 38 38 38 38 38 39 38 39 39 39 39 39 40 40 39
25 27 29 31 33 35 37 38 39 41 42 42 43 44 43 44
44 44 44 44 44 44 44 44 44 44 45 44 45 45 45 45
45 45 45 46 45 45 45 45 46 45 45 45 45 45 45 45
45 45 46 44 40 32 29 27 19 12 10 10 8 7 5 7
7 8 10 10 10 12 13 11 6 9 11 11 17 18 19 12
10 8 5 2 1 2 1 7 6 10 3 8 7 5 11 14
15 22 38 38 39 39 39 39 38 38 38 38 38 38 38 38
37 38 38 38 39 38 39 39 39 39 38 39 39 39 40 39
22 22 23 22 23 23 24 25 25 27 27 28 30 32 35 37
39 41 42 43 43 44 44 44 45 45 45 45 45 46 45 45
45 45 45 45 45 45 45 45 46 45 46 46 45 45 46 45
45 44 45 41 31 26 29 19 9 7 7 4 3 5 5 6
7 7 11 9 12 14 17 10 6 4 3 13 14 10 5 5
3 9 12 2 2 5 5 3 8 11 4 1 4 5 10 13
17 24 31 36 38 39 38 38 38 38 38 38 38 38 38 41
51 48 46 43 41 40 39 39 39 39 39 39 39 40 40 41
20 20 20 21 21 21 21 21 21 22 22 21 21 22 23 23
23 24 25 25 27 29 31 33 36 38 40 42 44 44 45 46
45 46 46 45 45 46 46 45 45 45 45 45 45 44 45 45
45 43 41 31 24 27 20 10 7 6 4 3 4 2 3 9
4 8 9 11 17 18 14 12 6 2 3 8 11 3 0 1
1 5 12 7 1 3 5 5 5 4 8 1 0 2 4 7
12 23 34 35 39 39 39 38 38 38 38 38 38 38 38 38
57 58 56 58 54 52 52 51 48 44 41 38 39 39 40 48
15 15 15 16 17 18 18 19 18 19 20 19 19 21 20 20
20 20 20 20 20 19 19 19 19 19 20 22 24 25 27 30
33 36 38 40 42 43 44 45 45 46 46 46 46 45 45 46
45 41 37 28 23 16 14 11 3 3 3 1 3 1 3 5
3 9 12 17 16 22 16 6 4 4 11 12 8 7 7 3
7 10 6 2 4 5 5 4 5 2 12 5 0 0 3 5
8 10 27 33 38 39 38 37 38 38 38 38 38 38 38 36
51 49 21 25 30 30 37 49 56 60 60 43 39 39 38 42
23 19 17 18 18 18 16 16 15 16 17 17 17 18 19 19
19 20 20 19 19 19 20 19 18 19 19 18 18 18 18 17
17 19 19 19 21 23 25 28 30 34 36 38 42 46 45 45
42 42 36 23 15 10 8 3 2 2 1 3 2 3 2 5
5 10 15 17 16 16 17 7 9 18 20 12 16 11 7 14
15 7 5 2 6 8 6 8 7 6 7 8 1 2 2 2
6 11 18 21 33 37 37 38 39 39 39 39 39 39 39 35
47 46 4 0 0 3 11 9 12 31 60 46 39 39 34 34
32 28 31 32 29 31 31 28 27 26 22 23 21 20 19 17
16 15 16 16 16 16 17 17 15 16 17 17 18 18 19 18
17 18 17 17 17 16 16 13 11 12 14 17 31 45 45 44
43 40 23 12 9 7 2 1 3 5 4 0 3 5 4 3
3 11 17 12 11 16 8 11 13 19 13 24 21 10 11 13
13 11 6 4 6 14 9 6 5 2 5 11 6 5 4 6
9 9 14 15 26 36 38 38 39 39 39 39 39 39 39 35
48 51 7 0 0 2 5 3 0 11 59 51 39 39 32 28
33 26 30 33 29 34 35 32 34 30 28 31 36 34 33 32
31 30 28 25 24 23 22 19 17 16 17 16 16 17 17 16
14 14 15 16 16 16 16 14 11 10 10 12 30 46 46 44
36 20 13 6 6 1 2 2 4 5 2 2 5 5 7 1
5 14 9 11 20 18 12 11 16 13 16 22 6 4 12 12
14 8 7 8 9 15 8 8 11 6 4 11 17 7 6 10
6 7 12 11 18 29 33 38 39 40 39 39 39 38 39 36
48 54 11 0 0 0 0 0 0 6 56 54 39 39 33 23
33 27 32 32 29 33 35 32 34 27 31 31 36 36 36 37
37 37 33 32 35 34 33 31 32 33 31 30 28 25 24 22
20 19 17 17 15 15 15 15 14 14 15 15 30 46 46 42
20 12 8 5 5 5 4 3 5 4 1 3 4 7 9 0
8 13 9 13 14 9 12 13 16 22 22 6 1 10 10 18
8 4 7 15 19 13 11 8 12 16 10 13 27 9 13 11
4 11 13 13 16 24 36 40 39 40 39 39 39 39 39 35
47 58 17 0 0 0 3 1 0 1 51 57 39 39 33 23
34 32 33 32 31 32 35 31 33 30 35 32 36 37 37 37
37 37 32 33 37 34 31 36 38 36 32 36 33 32 32 35
36 35 33 31 31 29 27 25 22 17 17 18 31 46 46 29
7 6 7 4 7 4 1 5 4 3 4 2 7 10 4 0
9 12 11 8 15 13 13 15 21 16 6 5 3 16 10 9
8 5 12 22 19 17 17 13 8 7 18 10 16 20 15 12
15 11 18 20 14 22 34 41 39 39 39 39 40 39 40 35
42 59 24 0 0 0 2 2 0 0 42 59 39 39 32 23
34 35 35 35 36 36 36 36 36 35 36 34 36 36 37 37
38 37 36 35 33 37 34 39 39 34 32 37 35 35 38 36
37 36 36 34 38 40 39 39 36 23 16 19 31 45 38 9
6 5 4 1 7 3 1 8 5 6 5 2 9 11 3 1
9 13 7 8 10 9 15 16 13 6 8 10 5 19 4 2
9 8 10 13 17 26 21 16 9 10 13 4 17 31 19 9
10 13 19 27 21 28 33 40 40 40 39 40 40 39 39 34
38 59 34 0 0 0 3 2 0 0 35 61 41 38 32 22
34 35 35 35 35 35 35 36 36 36 36 36 37 37 37 37
38 36 34 33 34 37 36 38 37 33 35 37 36 38 40 37
36 35 37 35 37 40 39 39 37 25 16 18 33 44 23 4
8 11 1 1 5 2 6 12 5 10 2 6 14 12 5 6
12 15 10 8 10 14 17 18 9 12 18 7 15 14 4 2
10 17 11 15 14 25 26 15 9 12 24 14 35 35 14 10
9 9 11 26 28 31 31 40 43 40 40 39 39 38 39 34
34 60 43 1 16 13 5 2 0 0 28 61 44 37 32 22
33 34 34 34 34 34 35 34 35 34 34 36 37 36 37 37
37 37 38 37 38 38 39 39 38 38 38 38 39 39 39 37
33 37 38 35 34 38 40 39 38 28 20 18 30 30 5 5
9 5 0 2 6 3 8 9 7 15 1 7 15 8 9 7
15 15 14 8 12 18 33 17 18 19 17 9 15 8 4 3
17 13 11 15 23 16 25 26 23 21 31 21 55 55 20 18
12 16 14 26 32 29 33 42 41 39 40 39 39 39 40 33
30 53 48 9 30 29 16 7 12 10 37 58 44 36 32 22
35 34 35 36 35 36 36 36 35 35 36 37 37 36 37 37
38 36 35 35 36 36 36 37 38 38 39 39 39 39 40 40
39 40 39 37 37 39 40 40 39 25 19 20 22 10 5 4
8 7 3 2 9 4 16 11 15 19 5 9 21 10 10 5
17 16 7 8 7 7 11 15 16 22 17 14 11 5 11 10
23 21 11 17 28 20 27 30 38 28 47 27 74 77 53 22
22 22 25 31 38 29 36 39 39 26 27 30 33 34 37 32
28 45 47 29 34 33 30 25 26 25 36 53 44 35 32 22
35 34 35 35 36 35 36 36 36 36 37 37 37 37 38 38
38 37 38 38 37 37 37 36 36 37 37 36 37 38 39 39
40 40 40 40 40 40 40 40 38 24 18 16 11 5 5 3
14 19 12 5 13 13 17 17 25 14 9 17 24 18 7 7
18 16 14 9 8 6 5 13 21 18 16 18 7 14 18 20
28 27 12 17 22 20 25 38 37 43 69 66 91 98 87 29
28 30 31 33 38 25 39 42 38 17 20 21 21 23 23 25
23 32 35 35 36 37 38 38 40 37 34 41 37 34 31 21
35 35 35 35 36 36 36 36 36 37 36 36 37 37 38 37
38 38 38 38 38 39 39 39 39 39 39 39 39 38 38 38
38 38 38 38 39 40 40 40 38 26 18 10 10 3 5 5
25 40 24 8 25 17 27 28 17 10 12 12 26 26 4 16
19 14 3 6 12 11 7 11 16 19 14 10 11 15 22 35
30 20 11 17 24 30 33 47 50 80 94 103 116 109 90 53
24 35 34 34 37 29 40 44 39 19 21 22 22 22 22 23
22 22 23 22 21 19 19 19 21 22 24 26 29 35 32 22
35 35 35 35 35 36 36 36 37 36 36 37 37 37 37 37
38 38 38 38 38 38 39 38 39 39 39 39 40 40 40 40
40 40 40 39 39 40 40 40 39 27 17 9 7 3 7 10
28 25 16 23 32 17 25 24 14 20 14 18 27 24 7 28
22 4 3 10 8 3 6 11 13 13 12 18 23 23 44 39
24 17 12 13 22 31 53 71 86 119 116 117 118 118 91 78
27 42 36 30 33 24 32 44 36 22 21 20 16 19 19 20
21 22 23 23 24 24 24 28 23 18 18 18 21 23 24 19
35 35 36 36 36 36 37 37 37 37 37 37 38 37 37 37
38 38 38 38 39 38 39 39 40 40 39 40 40 40 41 41
40 41 40 40 41 40 41 41 39 26 13 10 4 7 15 9
18 7 9 31 29 11 24 14 9 26 12 13 24 13 10 19
17 0 9 8 4 6 8 14 14 18 29 39 42 41 45 32
24 12 7 12 23 35 73 97 111 123 113 121 124 119 95 90
35 40 36 25 38 35 33 45 37 25 22 21 15 28 27 22
23 25 32 33 33 33 37 44 35 22 22 22 22 22 22 16
35 35 35 36 35 35 36 36 36 37 36 36 37 37 37 37
38 38 38 38 38 38 39 39 39 39 39 40 41 40 40 40
41 41 40 40 41 40 41 41 38 24 7 5 7 6 25 12
8 5 12 22 17 11 23 10 5 22 16 19 15 7 11 13
12 8 9 7 4 8 14 16 23 34 49 63 62 57 45 25
13 10 13 19 27 46 93 103 115 124 116 122 121 118 98 98
34 35 39 27 37 44 43 46 39 25 22 22 15 30 34 39
44 44 44 38 37 41 46 49 44 29 32 27 24 23 21 16
30 32 29 34 33 33 35 35 36 36 37 36 35 35 38 38
38 38 38 38 39 39 40 39 40 40 40 40 40 40 40 41
40 41 40 41 40 40 41 40 39 18 6 9 8 9 31 4
3 3 17 14 10 21 24 8 13 16 20 13 4 8 8 12
10 13 14 4 6 10 13 18 21 41 58 73 69 61 35 20
18 19 19 24 35 74 102 105 119 117 125 128 124 119 105 98
34 30 35 27 41 47 48 50 41 26 22 22 12 27 29 39
53 52 51 44 41 48 49 48 46 30 33 38 42 39 36 30
31 27 27 35 31 32 36 34 34 31 34 33 32 34 35 37
38 38 38 39 39 39 40 40 40 40 40 40 40 40 41 41
41 41 40 41 40 41 41 41 36 11 7 12 13 18 19 4
7 5 20 10 9 16 20 13 9 7 11 2 7 5 6 13
14 9 9 4 7 15 18 24 36 52 67 78 86 77 57 42
33 31 33 55 98 115 114 119 125 128 128 129 126 121 112 95
41 30 31 35 49 51 52 52 42 25 22 22 13 24 23 29
51 52 50 45 37 30 20 14 41 25 22 33 24 13 15 17
33 30 29 34 33 32 35 34 35 33 33 34 34 33 34 38
39 38 39 39 39 39 39 39 39 40 40 40 41 41 41 40
40 41 41 40 41 41 41 41 32 6 6 14 24 24 16 4
7 9 31 5 7 14 13 10 10 10 11 13 11 6 14 14
11 9 6 7 8 15 22 29 51 61 88 101 111 109 104 91
85 89 108 118 118 123 123 122 128 126 129 129 127 124 119 106
52 33 31 41 51 52 55 53 42 26 21 20 12 19 8 10
34 24 15 11 8 4 3 5 36 33 21 31 16 0 0 1
36 35 36 35 36 35 35 36 36 36 34 36 35 36 38 38
38 38 39 39 40 40 41 41 40 41 41 40 41 41 41 41
41 41 41 41 42 41 41 41 30 6 10 20 29 17 5 4
9 12 24 6 7 11 17 21 9 12 11 14 15 11 14 7
12 9 6 6 8 14 27 39 63 87 103 115 124 124 122 120
121 122 127 126 127 123 122 120 125 127 133 132 129 124 121 118
72 34 38 46 51 52 52 52 41 26 20 20 13 17 5 3
21 10 4 5 5 7 6 5 25 41 22 29 17 0 0 11
37 37 37 37 37 37 37 37 38 38 37 37 38 38 38 39
39 39 39 40 40 39 40 40 40 40 41 40 41 41 41 42
41 41 42 42 42 41 42 41 29 5 8 22 21 6 3 8
8 12 22 5 15 20 23 17 17 17 22 18 11 7 16 14
13 5 7 9 13 20 24 46 75 94 112 122 124 124 110 122
125 126 125 121 121 121 121 120 123 128 132 134 133 130 124 120
97 36 45 49 52 51 50 52 43 27 20 19 13 16 5 3
14 17 6 8 7 17 18 8 10 45 22 26 20 0 2 7
36 36 37 37 37 37 37 38 37 38 38 38 38 38 38 38
39 39 40 39 39 40 40 41 41 41 41 41 41 41 41 41
41 41 41 42 42 42 42 41 32 7 4 27 22 9 2 12
14 7 10 2 18 28 16 13 19 18 18 5 7 13 8 10
9 8 9 10 17 21 33 54 82 103 120 127 128 127 124 125
125 124 121 119 117 109 99 99 106 116 130 134 132 131 127 123
111 48 50 51 52 51 51 53 44 27 20 20 17 13 4 2
8 25 9 4 8 10 11 7 3 43 24 22 20 0 2 8
36 37 37 37 37 37 38 38 37 37 38 38 38 38 39 39
39 39 40 40 40 41 40 40 41 41 41 41 41 41 41 42
42 42 42 42 42 42 42 41 32 5 1 17 20 12 3 19
12 12 5 10 15 14 15 12 8 8 6 8 19 11 7 7
6 9 9 10 15 24 40 67 95 115 126 129 130 129 128 125
122 119 109 103 93 93 98 97 88 98 116 129 132 130 130 122
117 55 51 51 52 52 53 54 46 28 22 20 26 31 22 4
3 30 18 5 3 1 3 3 0 37 25 21 24 0 2 8
37 37 37 37 37 37 37 37 38 38 38 38 39 39 38 39
40 39 40 40 41 40 41 40 41 41 41 41 42 41 41 41
42 42 42 42 42 42 42 41 35 8 1 8 15 9 12 22
10 9 10 11 6 9 10 1 5 20 44 48 31 21 13 10
8 7 8 10 20 30 56 83 106 122 130 129 130 126 126 122
115 107 101 104 101 97 91 89 85 73 71 74 102 125 127 122
117 63 51 51 51 50 51 51 45 29 23 20 13 9 9 1
0 25 21 8 0 0 0 0 1 30 37 36 30 0 2 9
36 36 37 37 37 38 37 37 37 37 37 38 38 38 38 38
39 39 39 40 40 40 40 40 40 40 40 40 41 40 41 41
41 41 41 41 42 41 42 40 35 13 2 6 9 7 13 16
10 3 10 7 3 2 5 13 71 122 124 117 85 46 36 29
14 11 12 20 26 40 61 90 118 127 128 127 126 124 124 115
105 103 96 95 93 92 91 80 59 46 33 39 55 85 113 120
114 64 52 52 52 52 53 52 45 28 22 21 9 0 0 2
1 16 22 10 0 0 0 0 1 18 47 43 34 0 0 0
36 36 37 36 36 36 36 36 37 37 37 38 37 38 38 38
38 39 39 39 39 39 39 39 39 39 40 40 41 40 41 41
41 41 41 41 41 42 41 40 36 17 5 6 14 7 13 13
10 10 9 5 3 8 12 62 120 61 78 102 109 97 69 47
30 28 22 23 30 47 78 107 120 128 127 127 125 124 120 114
107 101 103 101 99 101 97 94 91 87 56 46 51 71 98 113
106 54 50 49 49 51 53 53 46 29 22 21 12 2 4 10
12 10 27 10 0 0 0 0 0 5 47 46 38 0 0 0
35 35 36 36 36 36 36 36 36 37 36 37 37 37 37 38
37 38 38 38 38 39 39 39 39 40 40 40 40 40 40 40
40 40 40 40 40 40 41 40 36 17 7 2 18 12 13 15
16 14 8 4 10 10 21 108 57 83 141 101 93 106 66 45
48 34 34 34 48 69 88 108 120 128 127 125 123 123 123 119
115 111 104 98 87 87 94 99 94 56 56 56 62 81 100 111
81 39 51 50 49 49 50 52 45 29 21 20 14 6 10 15
6 3 23 2 0 0 0 0 0 1 40 47 40 1 0 0
34 34 35 35 35 33 35 36 36 35 36 36 36 36 37 37
38 38 38 38 38 39 38 38 39 39 39 40 40 40 40 40
40 40 40 40 41 41 41 40 36 21 7 2 18 19 7 14
14 17 13 12 14 10 40 113 63 138 136 93 104 117 83 57
58 49 42 46 65 77 91 110 121 128 127 124 122 123 122 119
115 111 105 90 90 85 78 66 47 30 33 41 64 91 107 114
55 42 50 51 52 51 52 53 48 30 21 19 12 2 8 15
11 1 18 4 0 0 3 10 21 35 49 48 43 5 0 0
31 33 31 30 33 32 35 36 34 33 32 34 35 33 32 34
35 38 38 35 35 35 36 36 37 37 40 40 39 38 39 39
40 39 40 40 40 41 40 40 36 21 9 6 12 14 6 10
19 14 7 19 8 11 76 104 93 139 127 101 118 127 102 77
73 64 68 50 71 93 102 117 123 125 125 124 122 122 124 124
120 112 104 95 76 53 66 58 42 72 58 50 52 86 109 124
61 47 50 50 51 53 54 54 50 31 22 19 12 0 2 5
8 1 11 26 24 29 33 40 50 52 53 47 41 37 32 19
35 35 34 34 34 35 36 37 35 35 36 36 36 36 36 37
36 39 39 37 37 37 38 37 37 36 39 39 38 36 38 37
39 40 40 41 41 41 41 41 37 22 10 8 13 12 8 13
11 7 15 9 15 23 95 93 109 137 137 128 126 84 111 92
86 76 85 60 81 84 106 121 124 126 126 124 123 121 122 125
124 118 111 102 99 110 100 79 64 99 78 67 47 69 98 121
89 49 50 51 51 52 54 56 52 32 22 22 11 0 1 2
4 6 3 43 45 43 44 48 53 54 53 46 33 39 38 41
35 35 36 36 36 36 36 36 36 37 37 37 37 37 37 38
38 38 39 39 39 39 39 39 39 39 40 40 41 40 41 41
40 41 40 40 40 41 41 40 37 22 10 6 17 14 4 4
11 10 19 14 21 28 97 96 109 133 140 139 60 71 114 113
111 95 92 75 88 102 113 125 125 127 126 124 125 123 123 127
126 124 125 118 111 113 119 99 73 89 106 79 66 71 96 116
114 52 50 51 52 55 55 56 54 35 25 30 24 11 8 13
24 18 9 37 55 52 50 48 44 34 21 23 6 11 18 28
33 34 34 34 34 35 36 36 37 37 37 38 38 37 38 38
38 38 38 39 39 39 40 40 40 40 40 40 41 41 41 40
40 40 41 41 41 41 41 41 38 23 13 7 16 11 5 5
13 6 12 10 16 26 84 89 107 129 143 78 66 126 117 135
125 115 98 81 103 112 119 126 127 126 122 123 123 123 125 126
127 126 127 123 119 116 110 110 105 106 97 89 81 80 104 117
124 77 50 51 53 55 58 58 55 36 32 41 34 20 26 28
36 32 33 34 39 36 34 29 25 19 14 21 0 0 0 4
32 31 32 32 32 33 33 34 34 36 37 37 37 38 38 39
38 39 39 39 40 39 39 39 39 40 40 40 40 41 41 41
41 41 41 41 41 41 41 41 38 23 11 7 15 3 3 4
2 3 7 11 15 30 79 88 110 134 129 108 113 76 103 137
126 130 111 94 119 115 118 125 129 127 124 124 124 123 124 124
125 127 127 126 124 123 117 112 104 97 93 101 99 103 113 119
122 108 56 52 53 54 56 59 57 37 34 37 39 28 33 28
31 29 28 23 20 26 32 32 32 33 32 31 0 0 0 0
36 35 35 35 35 35 35 35 36 37 37 37 38 38 38 38
39 39 39 39 39 39 39 39 40 40 40 40 40 41 41 41
42 41 41 41 42 41 42 41 38 23 13 8 11 2 3 4
0 5 9 12 17 34 90 108 107 139 114 137 137 53 94 146
132 132 126 113 125 121 121 123 128 129 127 124 125 121 124 124
126 126 124 125 128 125 120 115 107 104 112 117 117 116 117 116
118 118 90 52 53 54 58 60 55 33 27 35 41 33 29 25
21 21 14 2 5 3 5 6 6 22 42 37 3 1 0 0
36 36 37 37 37 37 37 36 37 37 37 37 38 38 38 38
39 39 39 39 40 40 39 40 40 40 41 40 41 41 41 41
41 42 42 41 41 41 41 41 38 25 20 9 12 3 0 0
0 3 10 11 22 40 101 121 109 138 109 145 146 105 62 148
140 134 127 118 121 124 126 127 125 126 126 125 124 122 122 123
126 128 130 130 131 129 123 120 118 119 127 124 123 119 115 114
114 116 115 70 51 53 58 59 51 13 7 12 17 17 17 34
30 30 21 0 0 0 2 14 1 17 46 41 22 28 11 0
36 36 36 37 36 36 37 36 37 38 38 38 38 38 38 38
39 39 39 39 40 39 39 39 40 40 40 41 41 41 41 41
42 41 42 41 41 41 41 41 38 25 20 12 10 3 0 0
0 5 10 9 16 42 109 127 116 135 115 126 130 119 85 149
141 135 123 123 124 126 129 128 129 127 128 125 124 122 122 123
127 129 133 131 133 130 126 122 122 126 128 121 122 122 117 113
111 113 118 104 53 53 56 57 37 1 0 0 2 0 4 40
15 18 24 0 0 0 4 25 6 15 47 44 26 21 14 3
36 36 36 36 36 37 37 36 36 37 37 37 38 38 38 38
39 39 39 39 40 40 40 40 40 40 40 40 40 41 41 41
41 41 41 42 42 42 42 41 38 24 18 12 13 4 0 0
0 8 12 12 15 44 111 131 122 119 119 132 143 139 97 137
138 135 129 126 130 131 130 128 126 127 128 126 122 121 123 124
125 128 128 131 133 129 124 123 125 125 126 121 124 122 119 115
113 110 115 119 70 51 51 53 21 0 0 0 0 0 4 39
14 13 22 0 0 0 2 20 9 14 48 44 8 4 6 8
36 36 36 36 36 36 36 36 37 37 37 37 37 38 39 39
39 39 39 39 39 39 39 39 40 40 40 40 41 42 42 41
42 41 41 42 42 42 41 41 38 23 18 15 10 5 0 0
3 12 8 17 20 44 106 128 121 119 115 129 141 144 122 116
135 136 132 126 125 126 128 129 126 127 127 125 123 122 123 123
127 129 129 130 128 128 126 122 126 128 125 122 123 115 113 113
116 117 121 121 90 48 49 47 11 0 0 0 0 0 1 36
16 9 19 0 0 0 2 15 20 16 48 43 3 10 3 3
35 35 36 36 36 36 37 36 37 37 38 38 38 37 38 38
39 38 39 39 39 39 39 40 40 40 40 40 41 41 41 41
41 40 41 42 42 42 42 41 38 23 20 19 10 10 0 0
3 6 4 13 18 41 101 122 126 114 119 125 127 135 139 130
122 132 129 123 124 125 126 127 126 126 126 125 124 123 123 124
127 127 128 128 129 131 129 124 127 126 128 128 112 106 108 112
117 118 121 128 109 52 48 40 6 0 0 0 0 0 0 35
23 20 26 0 2 1 4 11 23 18 47 41 3 2 0 0
36 36 36 36 36 37 37 37 37 37 37 37 37 38 39 38
39 39 39 39 39 39 40 39 39 39 40 40 41 41 41 41
41 41 41 41 42 42 42 42 38 22 22 18 11 10 4 0
2 3 5 11 19 37 97 120 126 118 119 121 122 125 127 123
105 127 126 123 122 122 126 125 127 125 124 124 122 123 123 123
123 127 123 126 127 129 131 129 128 132 132 120 88 105 108 111
112 117 119 134 125 62 45 34 4 1 0 0 0 0 0 33
35 36 32 0 0 3 6 3 6 11 47 42 3 0 0 0
36 36 36 36 36 37 37 37 38 38 37 38 38 38 38 39
39 39 39 39 39 39 39 39 40 40 40 40 41 41 41 41
42 41 41 41 41 41 41 41 37 22 24 22 14 10 6 0
0 8 8 10 20 35 98 119 120 120 119 131 135 133 133 120
101 125 119 120 121 122 123 125 124 122 121 122 123 124 124 123
123 122 125 127 127 132 130 127 127 128 129 106 72 112 115 116
113 107 107 117 119 63 46 33 2 1 0 0 0 0 0 30
44 42 34 0 0 6 20 0 0 8 49 47 27 22 17 13
36 36 37 37 37 37 37 37 37 37 37 38 37 38 38 38
38 38 39 39 39 39 40 40 40 41 41 41 41 41 41 41
41 41 42 42 41 41 41 41 37 23 22 22 18 7 5 2
0 7 5 10 20 31 94 117 118 115 114 131 134 135 139 124
91 122 117 122 121 122 122 124 123 120 119 121 121 123 125 122
122 122 125 124 131 133 133 126 128 128 126 95 68 121 114 100
61 59 101 104 99 50 44 35 13 2 0 0 0 0 0 26
47 48 36 3 0 8 23 0 0 9 50 42 44 50 45 40
37 36 37 36 37 37 37 37 37 38 38 37 38 38 39 39
39 39 39 39 39 40 39 40 40 40 40 40 41 41 41 41
42 42 42 41 41 42 41 41 37 23 22 19 20 5 3 3
1 8 3 8 18 28 81 116 115 112 113 117 128 131 136 112
73 121 119 121 123 122 124 122 122 121 121 122 120 121 123 121
123 121 124 124 127 133 132 128 127 127 123 92 46 96 92 47
20 33 91 84 62 42 40 41 31 4 0 0 0 0 0 21
46 46 46 34 3 9 19 2 0 7 40 33 43 52 48 45
36 36 37 37 37 37 38 37 38 37 37 37 38 38 38 38
38 39 39 38 39 39 40 40 40 40 41 40 41 41 41 41
41 41 41 41 41 41 41 42 38 24 23 21 17 6 3 2
0 4 2 8 16 27 59 109 114 112 110 108 109 116 116 61
70 117 117 117 119 121 126 123 121 120 122 123 120 119 121 122
121 120 121 123 128 132 131 130 128 125 125 114 60 81 112 101
65 63 59 53 45 43 43 42 28 14 0 3 5 2 0 21
49 44 30 33 19 15 20 7 2 5 24 34 44 45 47 42
37 37 37 37 37 37 37 37 37 38 38 37 38 38 39 39
39 39 39 39 39 39 39 40 40 41 40 39 41 41 41 41
41 42 42 42 42 42 42 42 38 26 24 20 15 3 2 0
0 1 1 4 15 27 41 98 109 112 110 114 107 99 76 30
88 115 116 117 117 122 124 123 121 119 121 120 122 119 120 119
122 121 122 122 128 130 132 127 127 124 122 123 113 97 100 103
95 54 48 47 46 46 47 48 36 21 5 19 21 8 4 32
44 13 0 17 45 39 39 41 37 14 8 15 18 19 21 25
36 36 37 37 37 37 37 37 37 37 37 37 38 38 38 38
39 38 39 39 39 39 40 40 40 40 41 41 40 41 41 41
41 41 41 42 41 41 42 41 38 27 23 21 11 1 0 0
0 0 0 0 9 40 67 104 112 113 112 113 111 115 110 79
107 112 113 114 114 114 117 118 117 118 119 118 119 117 119 122
121 119 120 123 126 129 131 130 126 123 123 123 118 110 106 106
98 52 48 45 43 41 44 52 55 49 44 46 45 42 41 38
18 4 4 6 41 17 15 19 20 3 0 0 0 0 0 5
35 36 36 36 37 37 37 37 37 37 37 37 38 37 38 38
39 38 39 39 39 39 39 40 40 40 40 40 40 40 40 41
41 41 41 41 42 42 42 41 38 27 21 21 10 0 0 0
0 0 0 0 1 17 67 107 107 108 113 110 110 108 107 101
106 106 107 107 110 113 114 117 119 115 116 113 115 116 116 117
118 117 120 122 123 127 130 132 127 123 121 120 116 111 108 107
94 53 50 46 43 42 43 53 60 58 56 56 56 51 32 10
2 24 23 5 32 16 0 0 3 0 0 0 0 0 0 2
36 36 36 37 37 36 36 36 37 37 38 37 38 38 38 38
39 39 39 39 39 39 40 39 40 40 40 40 41 41 41 41
41 41 41 42 41 42 42 41 38 27 22 23 26 16 2 0
0 0 0 0 0 10 60 104 104 105 107 107 108 105 101 101
104 103 100 105 108 110 111 114 115 115 113 113 114 115 116 117
118 119 118 122 124 126 130 130 127 123 117 116 114 111 114 115
102 55 52 48 45 44 45 52 61 59 60 58 47 38 23 0
0 23 24 13 24 32 5 1 8 0 0 0 0 0 0 1
35 35 36 36 37 37 37 37 38 37 38 38 37 38 38 38
38 38 39 38 40 39 39 40 40 40 40 40 40 40 40 41
41 40 41 41 41 42 42 42 39 26 23 24 36 30 2 0
0 0 0 0 2 15 60 99 104 104 105 106 105 99 96 96
98 98 98 100 104 110 111 111 114 113 111 112 112 114 116 115
116 117 116 119 123 124 123 129 126 117 113 114 118 122 123 122
113 59 50 49 45 43 44 44 45 50 59 49 35 31 34 3
0 8 27 26 30 42 11 0 8 0 0 2 0 0 0 0
36 36 36 37 36 36 37 37 36 37 37 37 37 37 38 38
39 39 39 38 39 39 39 39 39 39 40 40 41 40 40 40
40 41 41 41 41 41 41 41 37 26 23 24 38 32 1 0
0 0 0 0 2 21 72 103 102 103 104 103 103 97 91 94
96 92 96 98 101 105 107 109 110 110 108 111 111 112 114 115
116 116 116 118 122 124 123 125 122 115 108 112 125 130 121 108
109 75 50 48 46 42 42 39 35 38 54 46 22 21 37 13
0 11 26 24 29 43 16 0 12 4 6 8 0 0 0 0
37 36 36 36 37 37 36 37 37 37 38 37 38 37 37 38
38 38 38 38 38 38 39 39 40 39 40 40 40 40 40 40
41 40 41 40 41 41 41 41 37 25 22 22 37 36 6 0
0 0 0 0 2 25 74 103 102 102 103 103 104 97 91 92
94 91 95 96 100 101 103 103 105 108 109 110 110 111 111 112
113 115 115 118 122 122 124 123 120 106 99 110 112 95 92 87
86 71 51 48 46 43 43 40 36 30 49 45 12 18 32 22
8 16 17 12 18 36 26 0 14 7 15 11 0 3 0 0
37 37 36 37 37 37 37 37 37 37 37 37 38 38 38 38
38 39 38 39 38 39 39 39 39 39 40 40 40 39 40 40
40 41 41 40 41 41 42 41 37 25 22 22 36 24 1 0
0 0 0 0 4 23 81 102 102 103 106 106 104 95 90 91
93 91 94 97 97 98 99 100 101 103 103 109 111 110 110 111
112 112 115 117 120 120 122 118 107 69 67 72 69 66 71 62
73 62 50 48 47 45 46 45 40 30 43 47 25 27 26 30
32 26 12 9 12 29 37 3 18 7 14 14 0 0 0 0
37 37 36 36 36 36 37 37 37 37 37 38 37 38 38 37
38 37 38 38 38 38 38 38 39 39 39 40 40 40 40 40
41 40 40 40 40 40 41 40 37 24 22 21 37 31 5 0
1 0 1 5 18 43 97 104 102 104 106 107 105 98 88 92
96 94 94 94 92 92 95 94 96 98 97 105 108 109 108 109
111 111 114 115 119 121 118 114 108 85 83 94 100 101 96 79
58 54 52 50 47 44 45 45 40 30 33 51 33 25 29 31
28 25 24 23 30 29 40 12 20 6 12 14 0 2 1 0
37 37 36 36 36 36 36 36 37 37 37 37 37 37 37 37
37 38 38 38 38 38 39 39 38 39 39 39 39 39 39 40
40 40 39 40 40 41 40 39 37 23 21 21 38 39 11 4
2 0 1 19 55 80 103 108 106 107 107 111 109 100 93 97
100 98 96 93 93 90 90 92 94 95 97 104 104 108 110 107
108 109 112 116 117 119 118 119 121 116 109 110 113 118 116 98
77 48 49 50 48 45 45 44 41 32 25 49 42 37 33 37
18 22 38 45 47 42 45 26 22 7 10 13 0 0 0 0
37 37 37 37 36 36 36 35 36 36 36 36 36 36 36 37
38 37 38 38 38 38 38 38 39 38 39 39 39 40 39 39
39 40 40 40 40 40 40 40 36 22 21 20 38 43 33 20
7 0 0 23 81 103 109 110 107 108 111 114 111 104 96 97
102 105 104 95 91 91 90 90 92 93 100 103 102 107 108 109
109 112 115 114 115 116 116 120 123 121 117 113 108 103 96 97
88 47 49 48 46 45 44 43 42 35 21 40 43 37 32 29
4 35 43 46 48 45 41 20 24 13 14 15 16 19 23 28
37 37 37 36 36 36 37 37 36 36 37 37 37 37 37 37
37 38 38 37 37 38 38 37 39 38 39 39 39 39 40 40
40 40 40 39 40 40 40 40 35 22 22 20 37 45 41 34
14 1 0 27 95 109 112 109 108 109 111 113 113 107 100 98
105 110 111 103 93 88 88 89 90 92 97 101 103 107 108 108
109 110 112 112 113 112 112 120 123 123 118 114 103 85 69 71
70 46 46 47 47 47 47 45 44 36 23 32 46 37 30 34
23 46 49 48 44 34 12 0 31 51 51 52 54 56 57 59
38 38 37 36 37 36 36 37 36 37 37 36 37 37 37 38
38 37 38 38 38 38 38 38 38 38 39 39 39 39 39 39
40 40 40 40 40 40 40 40 36 24 20 20 38 45 45 43
32 12 3 40 101 110 114 109 107 109 112 112 113 108 101 100
107 111 112 108 100 90 90 89 89 89 92 98 104 103 104 107
108 106 111 110 112 112 115 119 120 118 117 114 109 91 68 63
49 45 44 44 45 47 46 44 43 36 24 22 45 39 38 40
43 49 48 44 34 16 9 7 33 58 57 58 59 59 60 59
38 37 36 36 36 36 36 36 36 36 36 37 36 37 37 37
38 38 37 38 37 38 38 37 38 38 39 39 39 39 39 39
40 39 39 40 40 40 40 40 36 24 18 19 36 45 44 44
43 37 20 53 102 110 114 111 106 110 112 112 112 109 102 99
104 110 112 109 104 101 93 92 90 91 91 93 97 102 105 106
106 106 107 109 109 111 111 111 111 112 114 118 119 111 99 62
45 42 43 45 45 45 46 46 45 38 25 15 38 41 38 44
47 46 44 36 34 39 37 33 39 54 52 49 47 42 38 23
39 38 37 37 36 36 36 36 36 36 36 36 36 36 36 37
37 37 38 38 37 38 38 37 38 38 38 39 38 38 39 39
39 39 40 40 40 40 40 39 36 24 19 20 37 44 44 44
44 44 38 68 107 111 113 114 107 109 111 112 114 108 102 101
103 107 108 109 105 102 98 96 94 90 87 83 90 95 99 101
101 106 107 108 110 111 108 108 110 114 118 123 121 115 105 52
46 41 42 43 42 43 43 45 48 39 25 14 28 46 43 43
39 35 33 31 32 33 32 31 31 33 31 30 29 27 25 18
39 38 37 37 36 36 36 36 36 36 36 37 36 36 37 37
37 37 37 37 37 37 38 37 37 38 38 38 38 39 39 39
39 38 40 42 39 40 40 39 36 23 19 19 37 44 44 44
45 44 42 77 109 111 112 112 107 109 111 115 116 111 103 98
101 106 106 109 106 101 99 96 92 87 82 78 83 91 94 99
103 105 110 110 112 113 112 113 115 121 122 125 123 114 100 48
51 44 44 43 42 45 46 46 47 39 24 15 20 44 34 31
30 30 30 30 31 30 30 30 30 29 29 28 27 27 26 25
41 39 37 36 36 36 36 36 36 36 36 36 36 36 37 37
37 37 37 37 37 38 37 38 38 38 38 38 39 39 39 39
37 30 34 40 40 40 40 40 36 23 20 19 37 44 44 44
44 45 44 89 110 113 114 112 108 109 112 116 116 113 104 97
96 100 106 108 105 101 98 97 93 84 78 78 79 82 89 95
100 107 111 111 116 120 120 120 121 123 126 129 124 116 104 50
54 51 50 49 50 50 50 50 50 41 24 14 16 35 30 30
30 30 30 29 26 25 26 25 25 25 25 25 24 24 24 23
42 40 38 37 37 37 36 36 36 36 36 36 37 36 37 37
37 37 37 37 38 37 38 38 38 37 37 38 38 39 39 38
38 34 41 48 48 48 47 47 45 39 36 35 44 49 48 48
49 48 51 98 111 113 114 111 107 108 111 115 116 114 105 97
96 102 105 106 103 101 101 97 88 79 80 76 80 83 85 84
93 101 107 112 117 120 122 126 125 124 123 121 119 117 106 53
50 48 47 48 45 45 48 51 51 42 23 14 13 16 27 30
30 31 30 16 2 2 2 1 1 1 1 1 2 2 2 2
44 41 38 37 37 36 36 36 36 37 37 36 37 37 37 37
37 37 37 37 37 37 37 37 38 37 38 38 38 38 38 30
28 27 44 52 52 52 52 52 52 52 51 51 51 52 52 51
51 51 60 105 111 113 114 112 108 109 111 115 119 118 110 99
95 99 102 103 100 100 98 92 83 77 82 85 84 86 85 83
83 92 100 106 114 114 117 122 123 122 122 117 114 113 105 54
49 48 47 46 44 41 44 49 50 41 23 14 14 6 25 33
29 30 30 14 0 0 0 0 0 0 0 0 0 0 0 0
45 41 39 38 37 36 36 36 37 36 36 36 36 37 37 36
37 37 36 36 37 37 35 34 37 37 38 37 38 38 36 24
22 24 44 54 53 53 53 53 52 52 52 52 52 52 52 52
52 39 55 107 113 114 115 112 109 109 112 114 116 115 114 104
101 102 103 103 102 100 96 85 79 79 82 88 86 86 88 83
81 82 87 95 100 105 111 116 118 114 112 108 106 105 95 38
34 33 32 31 33 40 41 46 49 42 24 15 15 7 23 29
24 29 31 15 0 0 0 0 0 0 0 0 0 0 0 0
45 41 39 38 36 36 36 35 36 35 36 36 37 37 38 38
37 37 37 37 37 36 33 33 37 38 38 38 38 39 35 24
22 23 43 53 51 49 50 49 49 49 49 49 49 49 50 49
41 4 67 108 113 115 114 114 110 109 112 115 118 118 117 115
108 101 105 106 105 98 93 87 85 84 86 89 87 87 87 82
78 77 74 78 82 89 99 103 108 106 99 99 96 97 53 5
6 6 6 6 27 42 40 45 47 40 22 16 21 20 24 22
17 29 31 16 0 0 0 0 0 0 0 0 0 0 0 0
46 41 38 36 35 35 35 35 35 34 34 35 36 36 36 37
37 37 37 36 35 33 32 34 35 36 37 36 37 37 33 22
20 22 43 53 41 22 22 22 22 22 23 22 22 21 21 23
20 3 90 109 112 114 112 113 111 110 112 112 115 120 121 119
114 112 111 110 108 103 99 94 90 87 87 87 86 86 82 75
69 64 62 59 59 68 77 86 89 90 85 82 79 71 11 2
2 1 1 0 19 43 38 37 36 29 19 17 23 22 25 19
19 29 31 18 0 0 0 0 0 0 0 0 0 0 0 0
47 42 39 37 35 35 34 34 34 34 34 35 37 39 38 38
37 38 38 37 33 30 29 31 32 33 33 33 34 34 30 21
20 22 42 54 41 20 21 23 23 23 23 23 22 22 25 25
17 30 106 110 111 114 115 114 111 108 111 114 118 120 121 119
116 117 116 117 116 114 111 105 99 94 91 88 87 87 71 65
61 54 50 48 43 38 38 48 57 59 54 50 57 23 6 6
5 4 4 2 12 42 37 24 17 14 13 12 19 21 24 20
23 28 31 20 0 0 0 0 0 0 0 0 0 0 0 0
49 43 40 37 36 36 35 33 33 33 34 34 38 38 37 37
37 37 38 37 33 29 29 30 30 30 31 31 31 31 26 20
20 22 41 54 42 23 30 59 65 65 65 61 49 29 15 28
20 66 110 111 109 113 113 112 110 108 112 116 118 120 121 122
121 120 122 122 122 122 119 115 109 101 95 91 86 73 62 54
48 42 34 31 26 19 17 17 21 24 24 29 18 7 6 5
5 4 3 2 5 39 36 21 12 12 10 11 17 20 25 23
25 28 31 21 0 0 0 0 0 0 0 0 0 0 0 0
50 44 41 39 36 36 34 34 33 33 34 35 38 38 37 37
37 37 38 37 32 29 29 30 29 30 30 30 30 30 24 20
19 21 39 54 43 23 35 83 92 93 83 71 31 16 14 29
23 76 111 112 111 113 112 111 109 107 111 114 117 119 123 121
121 122 122 124 126 128 127 125 121 113 104 91 69 57 50 41
34 26 20 18 15 15 14 17 17 12 11 9 8 6 6 5
4 4 3 3 1 35 37 24 12 11 10 10 15 19 24 23
24 28 30 22 0 0 0 0 0 0 0 0 0 0 0 0
50 45 42 39 36 36 34 33 33 33 34 35 39 39 37 37
37 37 37 36 32 29 28 29 29 30 30 31 30 30 23 20
20 21 38 53 44 22 32 81 92 68 31 27 17 9 21 28
22 54 112 112 110 111 111 112 110 108 110 115 117 122 123 120
121 121 123 124 126 127 125 126 127 123 114 95 72 54 35 25
21 20 20 22 21 19 22 26 26 22 20 10 7 6 6 5
5 4 3 3 0 29 38 26 11 11 10 9 14 19 24 24
25 27 30 23 0 0 0 0 0 0 0 0 0 0 0 0
50 45 41 38 35 35 34 33 33 33 33 35 38 39 38 37
37 37 38 36 32 29 29 29 29 29 29 29 30 28 21 20
19 20 38 52 44 23 31 78 79 35 26 23 18 8 22 23
21 24 93 114 111 110 110 109 109 108 109 114 115 122 121 120
120 119 121 121 123 124 126 127 129 126 119 109 89 59 35 22
49 67 23 28 24 21 19 24 29 23 24 28 16 10 10 9
8 7 7 5 0 21 37 29 11 10 10 9 13 18 22 23
25 26 29 23 0 0 0 0 0 0 0 0 0 0 0 0
51 46 41 37 35 34 34 33 33 32 33 34 37 38 38 37
37 37 37 36 33 29 28 28 28 29 29 29 30 27 20 19
20 21 36 53 45 25 31 40 26 24 26 26 20 9 18 20
20 18 40 105 113 111 110 108 108 106 108 112 118 121 121 119
118 118 120 117 120 121 124 125 129 127 123 115 101 76 40 22
84 79 26 28 24 20 17 22 30 25 18 20 30 29 31 34
35 34 33 20 1 13 38 31 13 10 10 9 12 18 22 23
24 25 30 25 0 0 0 0 0 0 0 0 0 0 0 0
51 45 40 37 36 35 34 33 33 33 33 34 36 37 37 36
37 36 37 36 32 28 27 28 29 29 29 29 29 25 18 19
20 21 35 48 35 24 23 24 24 22 22 26 24 13 15 18
18 18 18 55 110 111 110 108 108 106 106 111 116 121 121 120
118 118 115 115 118 117 121 122 123 121 120 114 106 81 62 66
99 71 25 27 20 19 17 22 27 25 18 16 19 22 25 31
37 39 41 28 2 8 37 32 14 11 12 11 13 20 23 23
24 26 30 24 1 0 0 0 0 0 0 0 0 0 0 0
49 43 40 37 36 35 35 33 33 32 32 33 36 36 36 36
37 37 37 36 32 28 28 28 28 28 29 28 29 23 18 21
22 25 32 27 22 18 19 23 24 20 18 21 25 18 12 16
18 17 16 19 60 110 111 110 107 105 107 111 114 119 120 121
118 116 114 112 115 115 116 117 117 119 118 114 103 102 100 100
103 51 26 28 20 19 18 22 26 26 22 19 16 18 20 24
28 28 32 31 20 12 36 34 18 11 11 10 11 18 22 22
22 24 29 25 1 0 0 0 0 0 0 0 0 0 0 0
48 42 39 37 35 35 34 33 33 32 33 34 35 36 37 37
37 36 36 35 32 27 26 27 27 28 28 28 29 25 27 28
24 24 17 15 19 18 20 21 22 19 17 17 21 20 13 12
17 17 16 17 21 62 110 111 108 106 106 112 116 120 119 119
118 116 113 112 113 112 113 113 113 115 114 109 111 112 113 109
94 27 26 25 20 17 22 22 24 25 25 21 18 18 18 21
26 28 27 28 26 28 35 34 22 11 10 10 10 17 22 22
23 24 29 27 2 0 0 0 0 0 0 0 0 0 0 0
47 42 39 37 36 35 35 34 34 33 33 33 35 36 36 37
37 37 37 36 31 27 27 27 27 28 28 27 28 30 27 26
22 21 18 9 15 17 18 20 20 20 17 15 17 20 17 11
14 17 16 15 16 21 67 109 108 106 106 112 116 120 120 116
118 115 112 113 110 110 110 110 109 109 110 110 115 113 114 108
55 21 25 22 19 20 21 20 24 27 29 25 22 18 18 19
21 25 29 30 27 26 25 28 28 23 16 9 9 15 21 22
22 24 28 26 2 0 0 0 0 0 0 0 0 0 0 0
46 41 37 38 38 35 34 33 33 33 32 34 35 37 37 38
37 37 37 36 31 26 27 27 27 27 28 31 30 24 21 22
21 21 20 18 9 12 17 18 19 18 18 17 15 18 19 14
13 17 16 17 16 18 23 60 105 107 107 110 113 119 119 121
118 115 114 113 112 108 108 106 104 104 106 114 116 113 113 79
23 22 23 20 19 23 21 18 25 28 28 27 23 18 16 17
17 22 26 25 25 23 21 23 24 26 26 19 8 12 20 22
22 24 28 27 3 0 0 0 0 0 0 0 0 0 0 0
44 39 29 37 43 36 34 33 33 32 32 33 35 37 37 37
37 37 37 37 32 27 27 27 28 31 32 29 30 27 26 20
19 20 20 20 17 14 11 17 18 18 18 18 16 15 18 17
13 16 17 16 16 17 19 22 55 102 105 109 110 118 120 120
118 116 113 111 110 107 103 96 90 95 109 116 115 111 71 26
20 22 19 17 21 22 18 18 24 25 27 27 26 22 17 15
16 18 20 23 25 21 20 22 23 25 25 30 24 12 19 21
22 23 28 27 4 0 0 0 0 0 0 0 0 0 0 0
42 38 28 37 43 34 34 33 32 32 32 32 34 36 36 37
37 37 37 36 31 26 27 30 32 30 30 29 29 26 28 27
23 19 20 20 20 17 15 12 17 18 18 16 14 15 15 17
15 13 17 16 16 17 18 16 21 52 98 109 112 115 119 121
120 116 116 112 107 105 94 88 85 99 112 112 92 44 19 18
21 18 18 20 24 20 18 18 21 24 26 25 26 21 17 12
12 14 16 22 23 23 23 24 24 25 25 25 30 36 25 22
21 23 27 26 4 0 0 0 0 0 0 0 0 0 0 0
40 32 26 40 45 36 33 33 33 33 32 33 34 36 37 37
37 36 37 36 32 29 32 31 30 29 28 27 28 28 27 30
30 21 20 19 18 21 20 17 13 15 17 18 16 15 16 16
16 15 14 16 16 14 14 18 17 18 42 96 112 113 117 120
118 117 114 111 109 102 95 89 96 102 82 48 24 20 20 20
19 19 18 20 21 18 15 16 19 22 25 27 26 20 18 14
12 13 16 21 24 24 26 25 27 27 27 28 27 31 39 34
23 22 27 27 5 0 0 0 0 0 0 0 0 0 0 0
38 27 19 30 42 36 33 32 33 32 32 33 34 36 36 36
36 36 36 37 35 36 32 27 26 26 26 26 27 28 29 30
32 28 24 20 22 21 22 20 17 14 13 16 16 15 15 14
15 18 16 15 17 16 16 16 15 17 18 29 62 96 113 116
117 115 112 108 104 98 87 74 58 33 20 18 18 16 18 18
17 17 20 22 19 17 15 16 18 20 24 25 24 22 18 17
17 16 19 24 26 27 27 27 28 27 28 26 29 29 34 36
38 26 26 27 19 17 18 19 19 20 20 19 19 19 19 19
37 24 16 24 40 34 32 32 33 32 32 32 34 35 36 36
36 36 36 36 30 31 31 26 24 23 23 24 24 27 28 28
29 29 26 24 23 22 22 23 23 19 14 12 14 15 15 17
16 16 18 17 16 15 14 14 14 15 17 17 14 18 28 46
57 58 58 53 49 38 27 22 19 17 16 17 16 17 18 18
19 19 24 21 19 17 15 16 16 18 24 27 23 22 21 25
25 21 22 24 26 26 26 25 27 27 26 26 26 28 31 32
35 38 29 26 27 27 26 26 25 25 24 24 23 22 22 21
35 22 17 27 33 33 33 33 32 32 32 32 33 35 36 36
36 36 35 30 25 25 26 24 23 21 23 22 24 27 28 26
28 28 26 29 26 26 21 23 25 23 20 14 13 13 14 15
15 15 16 16 17 14 16 15 15 14 15 15 13 13 15 16
16 15 14 15 14 14 16 16 16 14 15 16 18 18 19 17
18 23 24 19 18 17 15 15 16 18 24 26 25 25 26 30
27 24 22 23 25 24 26 26 25 26 26 26 25 27 31 30
31 31 34 29 23 25 26 25 25 24 24 23 23 22 22 21
34 20 8 11 23 31 32 32 32 32 31 32 33 35 36 36
36 35 28 23 22 20 20 23 22 22 24 23 26 25 28 25
28 27 27 28 29 27 24 23 24 24 23 20 16 14 14 15
15 15 16 15 15 16 16 15 14 13 14 12 13 14 18 19
17 16 15 14 14 13 14 14 13 12 14 16 17 16 17 17
22 23 20 17 19 16 15 16 17 20 26 27 28 29 29 31
27 24 24 24 26 25 23 23 23 22 23 24 23 25 27 27
29 26 27 34 24 22 21 21 20 19 17 17 15 14 14 13
33 18 2 8 26 31 32 32 32 31 31 31 32 34 36 35
35 30 22 18 20 21 17 20 20 20 23 23 25 26 26 26
28 27 25 27 26 26 27 23 23 23 24 24 22 18 15 14
13 15 15 15 15 15 15 15 15 14 15 14 14 14 17 16
17 15 15 14 15 16 16 17 18 17 17 17 17 17 19 22
22 21 18 17 18 16 17 21 23 27 30 31 27 31 30 31
28 24 24 23 24 26 22 23 22 23 23 22 23 24 27 24
28 22 23 28 26 18 18 18 18 17 17 17 17 17 17 16
33 19 4 9 29 32 31 32 31 31 31 31 33 34 35 35
32 24 20 16 19 21 14 18 21 20 23 24 26 26 27 27
28 26 28 26 27 27 27 25 23 21 23 26 23 23 19 16
15 16 16 16 15 14 14 13 14 14 14 17 16 16 17 18
18 19 18 18 21 21 21 21 21 20 19 16 16 18 21 22
21 18 15 17 20 21 26 28 28 29 29 30 30 29 29 28
25 22 22 23 23 24 22 21 22 23 23 21 22 22 23 21
23 20 22 25 30 25 21 20 21 17 16 15 14 12 11 10
35 20 7 10 30 31 32 32 31 31 31 31 32 34 35 33
29 25 17 14 17 22 14 15 21 22 24 24 25 27 29 29
27 26 25 26 25 26 25 26 24 22 24 25 24 24 21 19
19 17 16 15 14 13 12 14 13 11 11 13 16 18 20 19
20 18 20 21 22 18 19 17 15 13 14 17 18 19 22 21
17 17 17 22 23 24 27 27 27 28 29 29 28 29 29 28
26 21 23 22 23 24 23 20 20 21 22 22 20 22 23 20
21 20 21 25 26 25 2 2 3 1 0 0 0 0 0 0
37 22 15 25 37 32 32 32 31 31 32 32 32 34 32 28
21 22 16 13 16 22 16 13 21 23 24 23 25 25 27 28
27 25 25 26 25 26 26 25 25 23 23 23 24 24 22 23
23 22 17 17 16 12 12 14 12 13 11 10 10 9 13 15
16 16 15 13 13 12 11 13 13 14 15 17 17 19 21 17
15 16 22 25 25 24 26 27 28 28 29 29 30 29 26 26
23 21 21 21 21 24 22 22 22 20 21 20 18 22 21 18
21 20 20 24 26 27 9 0 0 0 0 0 0 0 0 0
35 21 17 34 39 31 32 32 32 31 32 32 33 33 27 25
18 21 17 12 14 20 18 12 21 24 25 23 24 26 26 27
26 25 25 26 25 23 24 26 26 23 22 24 23 23 24 23
24 24 22 19 18 15 13 14 14 11 12 11 10 9 9 9
8 8 9 10 11 11 12 15 16 18 21 22 22 22 20 17
17 22 25 26 25 25 27 27 27 30 31 29 29 26 27 26
24 22 23 23 20 21 23 21 23 21 22 17 18 23 21 15
21 22 20 24 25 26 23 9 13 16 17 17 17 16 13 9
