P2
128 120
156
40 39 38 38 37 37 35 35 33 33 32 31 31 30 29 29
28 27 27 26 26 25 25 24 24 23 22 21 21 20 19 19
19 19 18 6 0 0 0 0 0 0 0 0 0 0 0 4
8 5 1 0 0 0 0 0 0 0 0 0 0 0 1 0
0 0 0 0 0 0 0 0 0 0 0 0 0 0 0 0
0 1 4 10 14 17 17 17 18 18 19 19 19 20 20 20
22 22 22 23 24 25 26 26 26 27 29 29 29 30 31 30
30 31 32 32 33 34 35 36 37 36 37 37 37 37 37 37
39 39 38 37 37 36 35 34 34 33 32 32 32 31 30 30
29 27 27 27 26 26 25 24 24 23 22 22 21 20 20 19
19 19 19 15 4 0 0 0 0 0 0 1 5 5 1 12
16 14 11 7 2 0 0 0 0 0 0 0 0 0 2 0
0 0 0 0 0 0 0 0 0 0 0 0 0 1 4 9
13 16 18 18 18 18 19 19 19 20 21 21 21 22 23 24
24 25 25 26 27 27 29 28 29 30 29 30 30 31 32 33
34 34 35 36 37 37 37 37 37 38 38 38 38 38 39 39
40 39 38 38 37 36 36 35 34 33 33 32 31 30 30 30
28 28 28 27 27 26 26 25 24 24 23 22 22 21 20 20
20 20 19 19 14 9 4 0 0 2 7 11 13 10 2 13
17 14 13 12 12 9 4 0 0 0 0 0 0 0 0 0
0 0 0 0 0 0 0 0 0 0 1 5 11 15 17 17
17 18 18 19 20 20 21 21 22 22 23 23 24 24 25 26
26 27 27 28 29 29 30 30 30 31 31 33 34 34 35 35
35 36 37 37 37 37 38 38 38 39 39 39 40 39 39 40
40 40 38 38 37 36 36 35 34 34 33 32 32 32 31 30
30 29 28 27 27 26 26 25 24 24 24 23 23 22 22 21
21 21 20 19 16 12 10 10 7 9 14 16 17 14 4 14
19 16 15 14 13 13 11 8 2 0 0 0 0 0 0 0
0 0 0 0 0 0 1 4 8 13 15 17 17 17 19 19
20 20 21 21 22 22 22 23 23 24 25 25 26 27 27 28
29 30 30 31 31 31 32 33 33 33 34 34 35 36 37 37
37 37 38 38 39 39 38 38 38 38 39 39 39 40 40 40
40 39 39 38 37 37 36 35 35 34 33 33 33 32 32 30
30 29 28 27 27 27 26 26 25 24 23 23 23 22 21 21
21 20 20 19 17 15 12 11 12 15 18 19 18 14 7 14
21 19 18 16 14 14 13 11 9 6 4 0 0 0 1 1
0 0 0 1 6 11 15 17 17 18 19 19 20 21 21 21
21 21 22 23 24 24 24 25 25 26 27 27 28 29 29 29
30 29 30 32 32 33 33 34 35 35 36 35 37 37 37 38
38 38 39 38 38 38 39 39 39 39 39 39 39 39 39 39
40 40 39 37 37 37 35 36 36 35 34 33 33 32 32 31
30 29 29 28 27 27 26 26 25 25 24 24 23 23 23 22
22 21 21 20 18 16 14 12 13 16 18 18 20 17 11 17
24 22 20 20 18 16 14 13 10 9 6 6 6 10 13 13
3 5 11 15 17 17 18 19 19 19 20 21 21 21 22 22
23 24 24 24 25 25 26 27 27 28 28 28 29 29 30 31
31 32 33 33 34 34 35 34 36 36 36 37 37 38 38 38
38 38 39 38 39 39 39 38 39 39 39 39 40 39 39 39
39 39 38 38 38 37 36 36 35 34 34 33 32 32 31 30
30 28 28 28 27 27 26 26 26 25 24 24 24 23 22 22
21 21 21 20 19 17 16 14 13 17 19 20 21 19 14 19
26 23 20 19 19 18 17 14 11 11 9 9 14 15 14 14
13 16 17 18 19 20 20 21 21 21 22 22 22 23 23 23
23 25 24 25 26 26 27 27 27 28 28 29 31 30 31 32
33 33 34 34 34 35 35 35 36 37 37 37 37 37 37 37
37 37 38 38 38 38 38 38 38 38 38 38 39 39 39 39
40 39 39 38 37 37 36 36 35 34 34 33 33 32 31 31
30 30 28 28 27 27 26 26 25 25 25 25 24 23 23 23
22 22 22 21 21 18 17 15 15 19 22 23 25 21 15 18
27 24 21 20 20 19 17 16 13 13 11 9 12 15 15 14
17 19 20 20 21 22 22 22 22 23 23 23 24 25 25 25
25 26 26 26 27 27 27 27 29 29 29 30 31 31 33 32
33 34 35 35 36 36 36 36 37 38 37 37 37 37 37 38
37 38 38 38 39 38 38 38 38 38 39 39 39 39 40 39
40 39 39 38 38 37 36 36 35 35 34 33 33 32 32 31
30 29 29 29 28 28 28 27 27 26 25 25 24 23 23 22
22 22 21 21 21 19 18 17 17 21 25 25 27 24 14 17
28 25 23 21 20 19 18 17 15 17 16 11 11 16 14 17
19 20 21 21 22 23 23 23 23 23 25 25 25 26 26 26
26 26 26 27 27 28 28 29 31 32 30 32 32 33 33 34
34 34 34 35 36 36 37 37 37 38 37 38 38 39 38 38
38 38 38 38 38 38 38 39 39 39 39 39 39 38 37 38
41 40 39 39 38 37 37 36 36 35 34 34 33 33 32 32
31 31 30 30 29 29 28 27 27 27 26 26 25 24 24 24
24 23 23 23 22 21 19 19 18 23 26 27 27 24 16 16
29 26 24 23 22 21 20 18 16 18 16 13 11 18 16 19
20 22 22 23 24 24 25 25 25 25 25 25 26 25 26 27
27 27 27 29 30 30 30 30 32 33 32 32 33 34 33 34
34 35 35 36 36 37 37 37 38 38 37 37 38 37 38 37
38 38 39 39 39 39 39 39 38 38 38 38 39 39 39 39
40 40 39 38 38 37 37 36 36 35 35 34 33 33 32 32
31 31 30 29 29 28 28 28 28 27 27 26 26 25 25 24
24 24 23 22 22 22 21 21 21 24 28 28 29 24 17 16
29 26 24 23 22 21 21 19 18 19 19 16 12 18 18 21
22 23 24 24 24 25 26 25 26 27 26 26 27 26 27 28
29 28 29 30 31 30 31 31 32 34 32 33 33 34 35 35
35 35 36 36 36 37 38 38 38 39 38 38 38 38 39 39
38 38 38 38 38 37 37 39 39 40 39 39 39 40 39 39
41 40 40 39 38 37 37 36 35 35 35 35 33 33 32 32
32 31 30 30 30 29 29 28 27 27 27 26 26 26 25 25
24 25 24 24 23 23 22 23 23 26 28 29 29 26 18 15
29 27 25 24 23 23 22 20 20 20 20 17 13 18 20 22
24 24 25 26 26 26 27 26 27 26 27 27 28 28 28 29
29 30 30 30 31 31 31 32 32 34 32 33 34 34 35 35
35 35 36 36 37 37 37 38 38 39 38 39 38 38 38 38
37 37 38 39 40 39 40 40 39 39 39 40 40 39 39 39
40 40 39 38 38 37 37 36 36 36 35 34 34 33 33 33
32 32 30 30 30 29 29 28 28 28 27 27 26 26 25 25
25 25 24 23 23 23 23 24 24 27 30 30 29 26 20 16
30 28 25 25 24 23 23 21 22 21 21 19 15 19 21 24
25 25 26 25 26 26 26 27 27 27 28 28 29 29 29 29
30 30 31 31 31 31 32 31 32 34 33 34 34 35 36 36
36 36 36 37 38 37 37 37 37 38 37 37 36 37 38 38
39 39 38 39 39 39 40 39 40 39 39 39 40 39 39 39
40 39 40 39 38 38 37 36 36 35 35 34 34 33 33 33
32 32 31 31 30 30 29 28 29 28 27 27 27 26 26 25
25 24 25 25 24 23 23 24 24 27 29 30 30 27 20 16
29 29 26 26 26 25 24 25 23 22 21 20 16 20 21 24
25 25 26 26 27 27 28 28 28 28 29 29 29 29 29 29
30 30 31 31 31 32 32 33 33 35 34 34 35 35 36 35
36 36 37 37 38 37 37 36 36 37 38 39 39 39 39 38
38 39 39 39 39 38 40 39 39 39 39 39 39 39 38 38
40 40 39 38 38 37 37 36 36 36 36 35 35 34 34 33
33 32 31 31 30 30 29 29 29 28 28 27 27 27 27 26
26 25 25 25 25 24 24 24 25 28 31 31 31 27 21 17
29 28 27 26 26 25 24 23 24 22 22 21 19 21 23 26
27 26 27 27 27 27 28 28 29 29 30 29 30 30 30 31
30 31 31 30 32 32 32 33 33 34 34 35 35 36 37 37
36 34 37 36 37 37 38 38 38 37 38 38 38 38 39 38
39 40 39 39 40 39 39 39 39 39 38 39 39 39 38 39
40 40 40 39 38 37 37 36 36 36 36 35 35 34 34 33
33 32 32 31 31 30 30 29 29 28 28 28 27 26 27 27
26 25 25 25 25 25 25 25 26 29 31 31 31 27 22 18
28 29 27 26 26 26 25 24 24 23 23 21 20 23 24 26
27 27 28 28 28 29 29 29 29 30 31 30 30 30 30 31
31 31 31 31 32 32 33 34 34 35 35 35 35 35 35 34
36 36 36 37 38 38 38 38 38 38 38 39 39 38 39 39
39 39 39 39 40 39 40 39 40 39 39 39 39 39 39 39
39 39 38 38 38 37 37 37 37 36 36 36 35 35 34 34
33 33 31 31 30 31 29 29 29 29 29 28 28 27 27 26
26 26 26 25 25 25 24 25 26 29 31 32 32 29 24 18
26 30 27 25 26 26 26 25 24 24 23 23 20 24 26 28
28 28 28 28 28 29 29 29 29 29 30 30 30 30 31 31
32 31 32 32 32 33 33 34 34 34 33 34 34 34 36 37
37 39 37 38 38 38 38 37 37 38 37 38 39 38 39 38
39 39 39 39 40 39 40 40 39 39 39 39 39 38 38 38
39 40 39 38 38 38 37 37 37 36 36 35 35 34 34 33
33 32 32 31 31 31 30 30 30 29 29 28 28 27 27 27
26 26 26 25 25 25 25 25 26 30 32 32 33 29 25 13
21 30 28 27 28 27 26 26 26 25 25 24 21 26 26 28
28 28 29 29 29 29 29 29 29 30 31 30 31 31 31 31
31 31 32 32 33 32 32 32 32 33 35 36 36 36 37 37
36 38 37 37 37 38 38 38 38 38 38 38 38 38 39 38
39 38 38 39 39 39 39 39 39 39 39 38 39 39 38 38
40 39 39 39 38 38 37 37 37 37 36 35 36 34 34 33
33 32 31 31 31 31 31 30 29 29 29 29 28 28 28 27
26 26 26 25 26 25 25 26 27 30 33 33 33 30 22 17
25 31 28 28 28 27 26 27 25 24 25 23 21 26 27 29
29 29 29 30 30 30 30 30 30 30 30 30 31 31 32 32
32 32 31 32 31 32 33 34 34 34 35 36 36 37 36 37
38 39 38 38 38 38 38 38 38 38 38 38 39 39 39 39
39 39 39 39 38 39 39 39 39 38 38 38 38 38 39 38
40 39 39 39 38 39 37 37 37 36 36 35 35 34 34 33
33 33 32 32 31 31 31 31 30 30 29 29 29 29 28 27
26 26 26 26 26 25 26 26 27 30 33 34 33 30 23 22
24 31 29 29 27 27 27 27 26 24 25 24 21 26 27 29
29 29 30 30 30 30 31 30 30 30 31 31 31 32 32 32
32 32 33 33 33 34 34 34 35 35 36 36 37 37 37 37
37 38 38 38 38 38 38 39 39 38 39 39 39 38 39 39
39 38 38 38 39 39 39 39 40 39 39 40 40 39 37 37
40 39 39 38 38 38 38 38 37 37 36 36 36 35 35 35
34 33 33 32 32 32 30 30 30 29 29 29 29 29 28 28
28 27 27 26 26 25 26 27 27 30 33 33 33 30 23 24
24 32 30 28 28 27 22 18 23 22 18 12 11 16 18 27
29 29 29 30 30 30 30 30 31 30 30 30 30 31 32 32
33 34 34 34 34 34 34 35 35 36 36 36 37 37 37 37
38 39 38 38 39 39 38 38 38 39 38 38 39 38 39 39
39 39 39 38 40 39 39 40 39 38 38 38 38 39 39 40
40 40 39 39 39 39 39 37 37 37 36 35 35 35 34 34
33 33 33 32 33 32 32 31 31 30 30 29 29 28 28 28
27 27 26 27 27 27 27 27 28 32 34 34 33 31 24 25
23 31 29 23 19 19 9 4 6 10 7 3 2 1 1 2
7 13 20 27 29 30 30 30 30 31 31 31 32 32 33 32
33 33 34 34 34 34 35 35 35 36 36 37 37 38 38 37
38 39 39 39 38 38 39 39 39 39 39 38 39 38 39 39
39 38 38 39 39 38 38 38 39 39 40 40 40 39 39 39
40 39 39 39 39 39 38 37 37 37 37 36 36 36 35 35
34 34 33 33 33 32 31 31 31 31 30 30 29 29 28 28
28 27 27 27 27 27 27 28 29 32 34 34 33 31 25 26
22 28 14 4 6 2 0 0 0 1 2 0 0 0 1 0
1 3 4 9 13 21 28 31 31 31 32 31 32 33 33 33
34 35 35 34 35 35 35 35 35 36 36 37 37 37 38 38
38 38 39 38 38 39 39 39 39 39 39 39 38 38 39 39
39 39 38 39 39 39 40 39 39 39 39 39 39 39 39 39
40 40 39 39 39 38 37 38 38 37 37 36 36 36 36 35
34 34 33 33 33 33 32 32 31 31 30 31 30 29 29 29
28 28 27 27 27 27 28 28 29 32 35 35 31 29 25 25
16 8 4 1 0 0 0 0 0 0 1 2 0 0 0 2
1 0 2 2 5 4 9 20 28 31 32 32 33 34 34 34
34 35 35 34 36 35 36 36 37 36 37 37 38 38 39 38
39 39 40 39 39 40 40 40 39 38 39 38 39 39 39 39
39 39 39 39 39 38 39 39 40 39 39 39 39 39 39 39
40 40 40 39 39 38 38 38 37 37 36 37 36 36 36 35
34 35 34 34 33 33 32 32 31 31 30 30 30 30 30 30
29 28 28 28 28 28 27 27 28 30 33 30 27 19 11 7
4 1 0 0 0 0 0 0 0 0 0 1 2 1 1 1
3 1 1 3 7 6 2 5 11 17 28 32 34 34 34 34
35 35 36 35 36 36 36 37 37 37 37 37 38 38 39 38
39 39 40 40 39 40 39 38 38 38 38 39 39 38 38 39
39 39 39 38 39 39 39 39 39 39 39 39 39 38 38 39
40 39 39 39 39 39 38 38 39 38 38 38 37 36 36 36
35 34 34 34 34 33 33 32 32 32 32 31 31 31 30 30
29 29 29 29 29 28 28 27 27 28 19 9 3 3 7 6
2 0 0 0 0 0 0 0 0 0 0 0 3 1 0 1
3 0 1 1 4 8 8 3 6 10 14 24 32 34 35 35
35 35 36 35 36 35 36 36 37 37 37 37 38 39 39 39
39 38 39 38 38 38 39 39 40 41 38 39 39 39 39 39
39 39 39 39 39 38 39 39 39 40 39 39 39 39 39 39
41 40 40 40 40 39 39 39 38 38 37 37 37 37 37 36
36 36 35 35 34 33 33 33 33 32 32 32 31 31 31 31
30 30 29 29 29 28 28 24 19 15 8 5 5 6 2 0
0 0 0 0 0 0 0 0 0 1 2 1 1 4 7 4
3 3 2 1 1 2 8 11 4 3 6 7 22 32 35 36
35 36 37 36 37 37 37 38 38 38 38 38 38 38 37 38
38 39 39 40 40 40 40 40 40 41 41 39 40 39 40 40
40 40 40 40 40 39 39 40 40 40 41 39 40 39 39 39
40 40 40 39 39 39 39 39 38 39 38 38 38 38 37 36
36 36 35 34 34 33 34 33 33 33 33 33 32 32 32 31
31 30 30 29 29 27 23 13 5 4 4 1 0 0 0 0
0 0 0 0 0 0 0 0 1 0 1 3 4 4 9 5
4 4 3 4 0 1 1 5 8 3 1 5 8 23 34 36
37 36 37 37 37 37 37 37 38 38 38 38 39 40 40 40
40 40 40 40 40 40 40 39 40 40 40 39 39 40 40 39
40 40 40 41 40 39 39 39 40 40 40 39 40 40 40 39
41 41 41 40 39 40 39 39 39 38 38 37 37 37 37 36
36 35 36 35 35 34 34 33 34 33 33 33 33 32 32 31
31 31 30 29 26 12 2 0 3 3 0 0 0 0 0 0
0 0 0 0 0 0 0 0 0 1 1 2 3 6 11 10
9 5 5 4 0 0 1 2 4 6 5 3 6 6 22 35
36 37 37 36 37 36 37 37 39 38 40 40 40 40 40 40
40 40 40 41 41 40 40 40 41 41 41 40 39 39 40 40
39 40 39 39 39 39 40 39 40 40 41 39 40 40 40 40
41 40 40 40 39 39 39 39 39 39 38 38 38 37 37 36
36 35 35 34 34 34 34 34 34 33 34 33 33 33 32 30
29 26 26 27 12 0 1 0 0 0 0 0 0 1 1 1
0 0 3 1 1 1 0 0 0 0 0 0 3 3 7 6
5 8 7 2 1 0 1 1 1 3 5 7 7 5 4 25
35 36 36 37 37 37 37 38 39 39 40 40 40 40 40 40
40 40 40 40 41 40 40 40 40 41 41 39 40 40 40 40
40 40 40 39 40 40 40 39 39 40 39 39 39 40 39 40
41 41 40 40 40 40 39 39 39 39 38 38 37 37 37 36
36 35 36 36 35 34 35 35 34 34 33 33 32 32 31 26
22 18 14 11 3 0 1 0 0 0 0 0 0 0 2 2
2 1 1 1 1 1 1 1 1 1 1 0 0 2 2 1
3 5 4 0 1 1 0 2 3 1 1 7 6 7 3 4
29 37 37 36 37 38 38 39 39 39 40 39 39 40 39 39
39 40 40 40 39 40 40 41 40 40 42 40 40 40 40 40
40 39 40 40 40 40 39 40 40 40 40 40 40 40 38 38
40 40 39 40 39 39 39 39 38 38 38 38 38 38 37 37
37 36 36 35 34 34 34 34 34 34 34 33 33 31 24 17
6 5 5 4 0 0 0 0 0 0 0 0 0 0 0 3
3 2 0 1 1 0 0 2 4 6 10 15 14 6 4 2
3 4 1 1 2 3 1 3 3 3 1 3 4 3 6 0
9 35 37 37 38 38 38 38 39 39 40 40 39 40 40 40
40 40 40 40 40 40 40 40 39 39 41 40 39 40 40 39
39 40 40 40 40 40 40 39 39 39 38 38 35 35 36 37
41 40 41 41 39 39 39 39 38 38 37 38 37 36 37 36
36 36 36 35 35 35 35 35 34 33 33 33 33 28 24 9
5 2 2 1 0 0 0 0 0 0 0 1 1 0 0 1
3 3 2 1 0 0 0 2 5 7 8 9 4 6 6 4
2 4 2 2 5 4 6 2 2 3 2 1 3 2 6 3
1 24 37 37 38 38 38 39 39 39 40 39 39 40 40 40
40 39 39 40 40 39 40 40 40 40 41 39 40 40 40 39
39 40 40 39 38 38 37 37 38 38 39 39 39 39 38 38
41 41 41 40 40 39 39 38 38 38 38 38 38 37 37 37
36 36 36 36 35 35 35 34 34 34 34 33 33 24 13 4
2 3 0 0 0 0 0 0 0 0 0 1 2 3 6 8
6 4 4 1 0 0 0 2 4 7 8 9 6 4 4 5
7 4 5 4 5 7 6 9 2 2 0 0 1 5 4 11
3 9 34 39 38 38 38 39 38 38 39 39 39 40 40 40
40 39 40 40 40 40 40 41 41 41 41 40 39 40 39 39
39 38 39 38 39 39 40 40 39 38 38 39 38 38 37 37
41 40 40 39 40 39 39 38 39 38 38 38 37 37 37 37
37 36 36 36 35 35 35 34 34 34 33 33 31 23 10 0
0 0 0 0 0 0 0 0 0 1 2 1 0 0 0 5
6 5 3 0 0 2 5 7 7 10 13 13 12 5 5 4
6 8 7 6 8 9 8 9 11 5 5 1 1 6 6 8
9 5 24 39 38 38 39 38 39 39 40 40 40 39 40 39
39 39 39 40 40 40 40 40 40 40 39 37 37 38 38 39
39 40 40 40 38 38 38 38 38 39 38 38 37 38 37 36
40 40 40 40 39 39 38 38 38 39 38 38 38 38 37 37
38 37 36 36 36 36 35 35 34 35 34 33 32 25 9 0
0 0 0 0 0 0 0 0 0 2 2 1 3 2 0 0
0 0 0 0 0 0 1 5 8 10 16 15 9 6 9 7
6 7 9 7 8 13 13 11 11 8 6 3 2 3 3 6
10 10 13 36 38 39 39 39 40 39 40 40 40 40 40 41
41 41 40 40 40 40 38 38 38 39 39 39 39 39 39 39
38 39 40 41 38 39 39 38 39 38 37 38 37 37 37 36
24 37 40 40 40 40 39 39 38 38 38 38 38 38 37 37
36 36 36 36 35 36 36 35 35 35 34 33 32 24 8 0
0 0 2 0 0 0 0 0 0 2 3 6 4 5 5 4
1 0 1 0 1 3 0 0 0 3 4 4 6 7 7 9
10 13 8 7 9 13 14 13 9 12 14 7 5 4 1 1
9 11 12 26 39 38 39 39 40 39 40 40 40 40 40 40
40 39 39 38 38 39 40 40 40 39 39 39 39 39 39 39
39 38 39 39 38 38 38 38 39 38 37 38 37 37 37 36
18 36 41 40 39 39 39 39 38 38 39 38 38 38 38 38
37 37 36 36 35 36 35 35 34 34 34 34 31 25 6 0
0 0 0 8 6 1 0 0 0 0 3 8 12 13 14 7
4 7 4 2 2 3 1 1 0 1 4 4 6 8 14 14
10 14 17 15 14 12 14 12 16 12 13 12 8 4 2 0
8 10 16 22 37 39 39 39 39 39 40 39 39 38 39 40
40 40 41 40 40 40 40 40 40 39 39 39 38 39 39 39
39 40 39 40 39 38 38 38 39 38 37 37 37 36 36 36
18 34 40 40 40 40 39 37 39 40 39 40 39 38 38 38
37 37 36 36 36 36 35 35 37 42 39 36 33 28 9 0
1 0 0 8 11 9 2 0 1 1 2 4 9 15 16 14
11 4 4 11 6 2 4 4 5 5 4 3 5 6 13 20
17 14 11 16 18 14 14 14 16 14 13 13 13 10 8 4
2 9 18 19 33 38 38 38 38 38 38 39 39 40 39 39
38 39 40 40 39 39 39 39 39 39 39 38 39 39 40 39
39 39 38 40 38 38 38 38 38 38 38 37 36 36 37 36
18 34 40 40 39 39 39 44 48 46 45 42 40 39 37 38
37 37 37 36 36 36 36 35 42 50 47 43 40 36 19 2
1 1 1 27 63 39 31 15 5 4 2 8 10 13 18 21
10 6 7 6 5 5 6 9 9 11 13 10 7 7 4 12
21 16 14 13 14 13 6 13 12 9 8 16 18 13 7 5
1 9 16 13 28 39 39 39 38 38 39 38 39 38 38 39
39 39 40 40 40 40 40 39 39 39 39 39 38 38 38 39
39 38 38 39 37 38 38 37 37 38 38 37 37 37 37 36
20 36 40 40 40 40 39 48 52 50 49 46 44 43 43 38
38 37 36 36 35 36 36 36 42 49 46 44 43 43 29 4
0 0 0 24 74 82 62 54 39 12 9 13 15 12 17 22
14 12 15 17 14 9 7 10 12 10 15 18 13 13 8 6
18 18 11 12 12 14 7 10 12 11 7 14 13 13 10 6
5 5 18 11 23 35 38 38 39 39 39 39 38 39 39 39
39 38 39 40 39 39 39 39 38 38 38 39 39 39 38 38
39 38 38 39 38 38 38 38 37 37 37 36 37 37 37 36
21 40 43 42 42 41 40 47 53 51 47 46 47 49 49 44
45 43 41 37 36 36 36 35 40 39 40 40 41 43 39 18
0 0 0 2 26 70 96 96 93 80 37 20 24 25 17 13
15 12 16 13 16 13 19 15 14 14 16 19 16 18 12 3
11 28 11 13 10 10 9 9 13 12 8 12 12 15 10 13
5 5 11 12 14 34 38 39 39 38 38 39 39 39 38 38
38 39 40 40 39 39 39 39 39 38 39 39 39 38 38 38
39 38 37 38 38 38 38 38 37 38 38 37 37 36 36 36
21 42 45 42 44 44 42 46 33 38 45 49 52 53 51 37
33 41 43 44 42 42 41 38 38 23 18 19 23 28 33 31
12 0 0 0 3 17 58 96 115 114 101 72 42 33 31 24
22 18 24 21 16 17 20 20 22 19 18 21 23 22 18 12
7 17 21 11 8 8 9 14 17 13 11 12 15 15 12 13
15 4 9 8 13 33 39 38 39 39 38 38 39 39 39 39
39 38 39 40 39 39 39 39 38 38 39 39 38 38 38 39
39 38 38 39 38 38 38 38 38 37 38 37 38 37 36 36
21 42 46 37 38 44 49 49 4 1 14 30 34 38 45 23
0 4 11 20 27 36 42 42 39 22 9 13 13 5 13 42
63 15 0 0 0 19 47 78 100 125 129 125 103 71 48 32
22 19 19 24 23 22 30 25 21 21 20 15 18 24 19 14
10 10 17 12 5 7 9 11 11 11 11 10 13 20 12 17
13 5 7 7 12 32 38 39 39 39 39 39 39 39 39 38
38 38 39 40 39 39 39 38 39 39 39 38 38 38 38 38
39 39 38 38 38 38 38 38 37 37 37 36 35 36 37 37
20 34 43 45 44 45 52 51 6 0 4 14 17 16 33 23
0 0 0 0 1 2 7 18 39 20 3 4 7 3 10 52
88 75 25 3 3 18 76 118 128 140 146 144 135 118 96 64
39 25 16 9 11 8 14 25 32 25 26 21 19 23 23 15
8 13 9 11 8 4 7 9 9 11 15 19 17 19 14 14
13 10 10 6 12 29 38 38 39 39 39 39 40 38 38 39
39 39 40 40 39 38 39 38 38 38 38 38 39 38 38 39
39 38 38 37 36 37 36 36 37 37 38 38 38 37 37 37
17 3 6 14 25 37 46 49 8 0 2 8 10 12 32 26
1 0 0 0 0 0 0 8 40 15 0 0 3 1 11 58
96 97 81 33 11 20 49 103 144 147 148 147 146 140 125 103
60 38 23 13 10 8 8 10 10 22 28 25 18 21 21 21
12 13 12 12 10 8 6 7 9 12 13 19 17 19 23 19
17 13 12 10 11 27 38 39 39 39 39 39 38 38 38 39
39 39 40 39 39 38 38 39 39 39 39 39 38 39 39 39
38 38 39 38 39 38 38 38 37 38 37 38 39 37 37 36
16 1 0 0 0 0 4 21 10 0 0 2 0 6 27 24
0 0 0 0 0 0 0 6 39 7 0 0 0 3 12 64
99 107 105 88 62 59 86 122 149 148 147 148 146 146 144 124
77 46 28 21 15 12 11 16 17 19 22 18 17 21 17 17
17 12 15 16 13 8 9 6 8 12 12 18 17 18 23 18
22 16 18 14 16 27 38 39 39 39 40 39 39 39 39 40
39 39 40 39 39 39 39 39 39 39 39 38 39 39 40 40
39 38 38 38 38 39 38 38 37 37 37 37 39 37 37 38
16 0 0 0 0 0 0 10 9 0 0 0 0 2 29 24
0 0 0 7 10 1 0 4 38 7 0 0 0 1 11 72
107 114 116 119 116 129 142 146 148 147 147 146 147 145 145 139
103 54 39 28 27 27 16 22 23 18 18 17 19 18 14 15
16 14 13 17 19 11 13 14 6 15 15 15 17 19 19 22
22 20 15 18 23 24 37 39 39 39 40 39 40 39 39 39
39 39 38 39 39 41 40 39 39 39 39 39 39 39 39 38
38 38 38 38 38 38 38 39 38 38 38 38 39 38 38 38
17 1 0 0 0 0 0 9 8 0 0 0 0 1 32 28
0 0 0 10 16 10 4 3 38 5 0 0 0 0 10 88
115 119 122 129 139 145 148 148 147 147 147 146 147 147 146 146
117 78 41 36 34 30 25 21 19 17 15 13 17 14 16 11
14 20 18 13 17 15 18 19 13 13 16 14 19 15 18 19
25 21 18 19 22 26 36 37 39 39 39 39 38 39 38 38
38 39 39 40 39 39 39 39 38 37 38 38 39 39 39 39
39 39 39 39 39 39 39 38 38 39 38 37 37 36 34 34
16 1 0 0 10 3 0 8 7 1 0 0 0 1 29 29
0 0 1 12 17 16 13 3 37 6 0 0 0 0 16 103
95 46 18 22 43 52 63 70 79 84 90 100 110 115 118 122
121 105 50 34 38 32 28 31 22 26 23 15 9 17 19 15
12 18 16 13 19 15 23 20 25 18 22 19 17 18 17 23
25 24 22 19 24 22 34 38 39 40 40 39 40 40 39 39
39 38 39 39 39 38 39 39 38 38 38 40 41 39 40 40
40 40 40 40 40 38 38 39 39 38 36 35 35 34 32 30
16 1 9 5 6 2 0 7 7 1 0 0 0 5 29 32
0 0 1 10 16 15 13 3 36 12 1 0 0 0 33 67
8 1 16 16 11 13 12 12 11 11 14 14 13 12 13 13
15 15 13 14 30 33 29 26 30 27 25 21 15 15 16 17
16 15 15 16 19 17 20 19 26 25 31 21 18 21 15 25
29 24 27 18 19 21 35 39 40 40 40 40 39 40 41 40
39 39 39 39 39 38 39 39 38 39 38 40 40 40 41 41
41 39 38 37 36 37 38 36 34 30 27 23 20 16 15 13
17 4 9 0 4 3 0 8 8 0 0 0 0 10 32 36
2 2 3 0 6 13 13 2 38 41 32 24 17 14 49 5
3 1 4 6 4 7 9 14 16 17 16 15 14 13 13 13
14 12 13 12 18 34 26 24 33 34 26 28 18 21 21 20
16 20 20 18 18 19 22 20 26 25 34 30 20 21 15 21
21 19 23 18 23 21 32 40 40 40 40 41 40 40 40 39
39 39 39 39 39 39 39 39 38 38 39 40 39 38 38 37
37 35 31 28 25 21 19 16 14 13 13 14 15 15 16 17
17 5 2 0 0 1 0 10 29 17 11 10 3 1 28 53
37 32 27 18 9 6 7 2 37 48 45 44 45 49 36 1
8 4 11 1 4 10 18 27 31 33 37 53 62 71 74 76
78 80 83 79 62 49 27 16 22 23 25 25 25 36 32 33
24 24 23 19 19 27 22 25 29 28 31 26 26 25 17 20
16 15 23 19 22 21 33 38 39 39 39 40 39 39 38 38
39 39 38 38 37 36 39 36 37 35 36 34 31 27 24 20
17 16 15 14 14 14 15 16 17 18 19 20 20 20 20 21
16 1 0 0 0 0 0 13 56 50 42 43 41 32 43 51
24 25 29 32 32 33 34 36 49 45 44 45 47 47 18 4
9 7 35 6 21 39 85 122 133 137 140 145 146 146 146 146
146 145 144 140 128 99 48 29 26 22 26 21 53 66 66 52
59 36 20 22 19 25 27 28 30 13 28 24 22 27 12 16
11 15 14 23 14 21 31 37 39 38 39 39 37 37 36 36
35 37 36 35 34 32 29 26 23 20 18 16 16 16 15 16
17 18 19 20 18 13 21 22 23 24 25 24 26 25 14 25
18 3 0 0 0 0 0 13 57 47 49 54 57 55 50 44
18 17 18 17 17 17 19 22 25 23 27 33 37 25 7 3
10 6 39 21 46 66 120 148 147 147 147 147 146 147 147 147
146 146 146 146 145 130 100 59 42 37 40 60 46 71 110 102
101 79 52 23 19 22 23 28 26 13 23 24 19 33 14 17
14 15 8 21 19 19 31 37 39 39 39 38 36 36 38 32
27 25 23 20 18 18 18 19 19 19 20 21 22 22 23 23
25 25 26 26 26 8 26 28 29 29 26 25 30 19 25 31
22 32 31 22 13 6 3 16 51 42 52 55 59 58 48 38
21 19 19 16 15 14 14 12 12 12 14 15 28 9 1 6
7 2 30 12 30 56 102 148 149 149 148 148 148 148 148 148
147 147 147 147 146 144 127 93 59 56 62 101 86 74 117 143
144 115 104 32 19 19 21 23 28 22 19 25 24 37 22 20
22 20 2 16 16 18 31 34 33 30 28 25 22 23 36 28
15 19 20 21 22 22 24 24 26 26 27 27 28 30 30 31
30 24 25 31 32 19 21 33 33 33 21 30 29 21 34 34
23 45 56 55 51 48 44 46 44 38 49 53 57 58 51 43
25 21 18 16 14 14 14 13 14 14 15 17 32 14 5 10
6 1 32 14 19 31 76 141 147 149 149 148 148 148 148 148
148 147 148 148 147 147 144 120 100 74 73 110 121 115 128 143
147 141 122 79 10 13 20 23 25 25 17 17 31 26 27 24
27 21 0 12 16 17 22 21 21 21 21 22 23 22 30 25
19 25 28 29 30 31 31 32 32 33 33 33 33 34 34 34
34 34 29 27 36 31 14 36 36 33 18 32 20 30 31 35
23 46 56 56 54 54 55 57 35 10 17 24 33 39 38 44
27 19 16 8 8 8 14 17 16 15 19 21 35 13 22 7
6 1 23 19 17 26 39 123 146 147 149 149 149 149 149 149
148 147 148 148 148 147 148 144 131 98 89 114 133 144 146 146
147 146 128 116 5 6 13 20 26 20 22 20 28 15 24 23
25 17 8 12 13 19 24 25 26 27 27 29 30 29 35 30
25 31 33 33 34 35 35 35 35 35 35 35 35 36 36 35
37 37 37 30 28 35 14 30 36 32 19 23 28 32 33 36
22 40 51 52 52 54 55 57 28 0 0 0 3 13 22 43
26 18 14 1 0 1 8 12 10 5 13 15 32 17 20 12
5 1 14 26 32 58 55 107 145 147 149 148 149 148 148 148
148 149 148 149 148 148 148 148 147 135 114 128 129 84 146 147
147 146 133 135 20 5 9 16 23 18 15 23 23 6 19 22
19 11 19 11 16 15 26 32 33 33 34 35 34 33 30 27
27 34 35 36 37 37 38 38 37 38 38 38 37 36 37 36
36 38 37 37 29 28 26 17 36 29 22 18 36 32 33 35
28 33 37 39 41 40 45 52 24 0 0 0 2 1 14 45
25 16 13 1 0 5 2 0 1 0 2 6 30 27 46 13
3 2 7 31 45 64 73 122 148 149 149 149 148 148 148 148
149 148 148 147 148 147 147 148 148 147 145 144 135 49 123 147
148 147 138 140 30 5 7 10 19 15 12 21 19 6 17 14
14 15 17 14 11 15 26 35 36 36 36 37 37 32 12 9
24 37 39 39 38 37 37 38 38 38 38 37 37 38 37 37
37 38 37 37 37 28 24 9 16 13 15 27 35 31 34 33
24 25 26 29 37 35 41 51 21 0 0 0 2 1 5 45
19 10 2 0 1 12 9 4 2 0 0 1 29 86 78 21
0 2 2 22 37 63 82 129 149 148 149 148 148 148 148 149
149 147 148 148 148 148 148 148 148 147 142 108 141 90 104 139
147 146 139 134 33 8 7 10 16 18 14 19 15 9 18 10
12 11 18 14 14 13 27 38 38 37 37 34 33 30 11 6
18 35 38 39 38 38 38 39 38 38 39 39 38 38 37 36
36 36 36 36 37 35 27 9 0 0 23 31 33 30 33 31
25 25 29 32 38 38 45 50 21 0 0 0 0 0 6 46
7 0 0 0 1 7 16 10 3 0 0 2 58 118 95 32
4 4 1 13 28 59 83 134 149 149 149 149 148 148 149 149
149 149 148 148 147 147 148 148 147 147 114 69 110 128 115 129
148 146 141 114 24 15 11 9 13 18 11 17 11 7 17 10
10 10 17 15 13 20 31 38 38 22 9 5 15 27 9 5
17 35 38 39 38 38 38 38 38 38 37 38 38 38 37 37
36 35 37 36 36 35 35 22 0 4 31 32 27 27 32 33
24 10 6 11 18 24 32 38 19 0 0 0 0 0 8 46
7 0 0 0 2 7 19 16 13 1 2 24 108 117 106 33
30 4 3 7 20 52 83 141 149 148 149 148 148 148 148 148
148 148 148 148 148 147 147 147 147 147 98 89 112 123 131 129
147 144 143 65 36 25 9 9 12 13 7 16 6 5 15 13
5 9 16 13 12 14 34 39 39 24 19 24 30 30 4 0
16 35 38 38 38 37 37 38 38 38 38 38 38 37 36 36
36 35 34 33 34 34 36 30 1 6 33 30 24 24 31 34
28 8 0 0 0 0 0 7 17 0 0 0 0 0 9 44
5 0 0 0 5 20 22 18 17 1 5 86 118 117 115 37
48 8 1 6 15 44 90 147 149 149 149 149 149 149 149 149
148 148 147 148 148 147 147 147 145 147 92 113 123 134 123 131
147 145 127 34 55 34 18 11 11 8 8 12 11 7 10 9
7 13 15 14 10 15 34 39 38 38 37 37 36 31 8 1
16 34 38 38 38 38 37 37 38 37 37 37 37 37 36 36
37 36 35 34 35 35 35 32 3 4 33 33 24 23 34 34
28 10 0 0 0 0 0 4 16 0 0 10 7 0 7 42
3 0 0 0 4 18 26 12 8 1 36 115 118 119 116 58
45 36 3 8 14 47 118 150 150 149 149 149 149 148 148 148
148 148 148 148 147 147 147 147 147 141 105 126 134 131 124 140
146 145 121 115 82 51 23 10 10 13 10 14 10 9 16 9
6 18 16 10 7 17 37 39 39 38 38 36 35 32 15 0
20 35 38 38 38 37 37 37 37 37 36 37 36 37 36 35
36 35 35 33 34 35 35 33 4 3 33 34 25 23 34 35
29 11 0 0 7 2 0 3 16 0 3 22 15 3 6 42
3 0 0 1 2 2 18 4 0 3 83 116 117 115 118 96
27 50 19 12 19 70 143 149 149 149 148 149 148 149 148 148
149 148 148 147 148 148 147 146 143 142 113 134 142 142 144 146
145 137 115 118 90 71 28 14 9 9 8 9 5 9 12 13
11 15 13 9 7 21 37 38 38 38 38 37 34 32 22 10
26 36 38 38 38 38 38 37 36 36 37 36 36 36 36 36
36 36 35 34 34 36 36 34 6 2 31 34 24 22 33 34
25 10 0 6 21 10 2 2 19 1 10 21 18 7 6 39
2 4 0 0 1 0 19 7 1 18 113 121 115 107 107 118
71 25 23 19 47 124 149 149 149 149 149 149 149 148 148 148
148 148 147 147 147 148 147 140 137 146 141 137 147 147 146 145
144 123 118 117 98 81 37 17 12 8 9 11 8 6 11 15
15 11 14 6 5 20 38 38 38 38 38 37 35 31 28 27
32 37 38 38 39 37 37 36 36 38 37 37 37 36 36 36
36 35 35 34 33 30 33 31 7 0 21 24 17 20 31 34
24 11 0 10 23 11 4 2 37 34 38 38 36 31 29 43
2 0 0 0 0 0 18 9 2 49 128 136 120 105 97 117
129 102 64 72 113 140 149 149 149 149 149 148 149 149 148 148
148 148 148 147 147 147 147 145 137 134 144 146 147 147 146 146
138 125 128 121 105 84 46 19 12 8 10 16 15 5 10 13
14 10 16 6 3 21 37 37 38 37 36 36 36 32 31 32
36 38 38 38 38 38 38 37 37 37 37 37 37 36 36 36
36 36 35 33 32 29 23 25 8 0 25 34 27 23 31 33
23 12 0 4 7 3 1 2 41 46 51 51 50 54 57 50
11 8 8 1 1 4 21 12 6 72 140 148 134 115 117 126
109 111 106 111 124 144 149 149 148 149 149 149 148 148 148 148
148 148 147 147 147 146 147 147 136 140 137 146 147 146 146 144
126 127 131 129 113 89 50 24 11 10 9 11 13 5 9 16
15 11 17 10 8 25 38 38 38 37 37 36 36 34 33 35
38 38 38 38 38 38 37 37 37 36 36 36 36 36 36 36
36 35 36 34 32 34 35 33 11 0 23 32 27 21 28 30
26 22 11 2 3 1 0 1 40 46 49 49 50 58 61 56
37 35 33 28 24 25 29 24 21 90 143 147 149 145 146 142
104 101 109 116 129 144 149 148 149 148 148 148 147 148 147 148
148 148 147 147 147 147 147 147 127 146 144 145 145 146 146 131
130 132 133 132 121 95 55 28 12 10 8 9 10 8 11 13
13 7 15 11 13 32 38 38 39 37 37 37 36 35 35 37
37 37 37 36 38 37 37 37 36 36 36 37 36 36 35 36
35 34 34 34 33 33 34 34 15 0 21 32 27 21 28 31
25 25 8 1 2 0 0 1 38 40 44 45 45 48 48 47
40 41 40 39 38 40 39 37 35 91 128 128 135 146 149 148
112 91 108 118 130 146 148 149 148 149 148 148 148 148 148 148
148 147 146 147 146 146 147 143 115 144 146 146 146 145 132 134
138 137 139 139 132 97 58 30 13 11 10 10 7 8 14 17
7 8 15 14 21 34 38 38 38 36 37 37 37 35 36 37
37 37 36 37 37 37 37 36 35 35 35 36 35 36 36 36
35 35 35 34 33 33 33 34 16 0 20 33 28 20 28 32
29 23 2 0 1 0 0 1 41 40 41 42 42 41 37 38
42 43 44 43 41 41 40 40 41 71 119 108 65 96 101 130
108 89 107 115 126 142 149 149 149 148 148 148 148 148 148 148
148 148 147 148 148 147 147 139 105 123 143 143 137 132 134 135
139 141 145 145 134 104 65 34 15 14 13 8 5 7 12 12
4 11 17 16 25 36 37 37 37 36 37 37 37 36 37 38
38 36 38 38 38 37 37 37 37 37 36 36 36 36 36 35
35 35 35 34 32 33 34 33 19 0 17 33 28 20 27 31
26 27 26 21 16 14 10 9 44 43 41 41 41 41 42 44
44 43 47 50 50 42 40 41 44 55 86 115 123 109 115 101
81 103 107 108 120 136 148 149 148 148 148 149 148 147 148 148
148 147 148 148 146 147 147 144 117 103 111 126 139 139 140 142
144 145 146 145 138 110 63 38 15 10 10 5 3 7 9 3
2 5 16 14 30 37 38 38 38 37 38 37 38 37 38 38
37 37 37 37 36 36 36 36 36 35 36 36 35 35 36 35
35 35 35 33 32 32 34 33 19 0 15 32 29 20 26 32
27 34 51 53 49 50 53 51 54 46 43 43 42 43 47 50
49 45 48 54 53 43 38 35 42 54 52 57 61 57 102 112
99 108 108 105 116 130 146 148 148 147 147 148 148 148 147 148
147 148 147 147 146 145 146 146 144 138 143 145 146 145 146 146
146 146 146 144 138 110 72 35 18 10 5 3 5 4 1 1
0 7 8 13 29 37 37 37 37 37 37 36 37 37 37 38
36 37 36 37 37 37 36 36 36 36 35 35 35 35 34 34
35 34 34 33 31 31 34 33 22 0 12 32 28 20 24 31
27 36 59 59 59 60 59 59 59 47 39 36 36 38 44 51
52 45 46 46 44 44 40 36 36 42 37 38 43 45 66 103
101 105 104 100 113 126 136 146 147 148 148 149 148 149 148 148
147 147 146 146 145 146 145 147 145 146 146 147 146 147 147 147
147 146 145 145 140 112 86 36 20 9 7 6 6 2 1 0
2 7 3 19 30 36 37 36 36 36 36 36 38 37 37 37
37 36 36 36 36 37 36 35 35 35 35 35 36 35 35 34
34 33 34 32 31 31 33 33 24 0 10 32 29 20 24 31
28 29 41 43 45 47 49 51 54 32 9 8 5 7 11 27
51 45 31 14 19 22 22 31 37 26 8 3 8 17 33 92
105 103 99 88 107 122 132 142 146 148 146 147 146 148 148 147
148 147 148 146 144 146 146 144 146 146 145 146 147 146 146 147
146 146 146 146 143 125 84 31 18 11 7 7 4 0 1 0
1 4 7 25 34 36 35 35 34 33 32 31 33 36 37 36
36 37 37 35 36 36 36 36 35 35 35 34 35 35 34 34
33 33 34 33 32 31 33 33 26 0 9 33 31 22 23 30
27 26 33 33 32 32 32 32 35 23 2 0 0 0 0 12
49 39 10 0 1 4 10 29 40 26 1 0 0 8 27 97
116 115 104 86 82 117 130 137 142 145 147 147 145 147 147 148
148 147 147 146 144 144 143 142 145 146 148 147 146 147 147 147
147 147 146 145 143 122 67 25 28 20 8 4 1 1 0 1
3 2 15 35 36 37 28 16 15 13 12 11 19 36 37 37
37 37 37 36 36 36 35 35 34 34 35 34 35 35 35 34
34 34 34 34 32 32 33 34 28 1 8 32 31 21 22 30
26 29 40 41 41 39 39 38 39 24 7 1 0 0 4 23
49 29 0 0 0 0 2 31 40 27 0 0 0 4 25 72
86 102 105 90 59 92 128 132 138 141 141 144 145 146 147 147
146 147 147 147 146 145 143 145 147 144 145 146 147 147 147 147
146 146 146 145 141 121 77 63 43 18 5 1 1 1 0 0
0 3 23 35 34 36 25 8 8 8 8 7 17 36 38 38
37 36 37 37 36 35 35 35 35 35 35 34 34 34 33 34
33 33 34 33 31 31 34 34 29 2 7 31 29 19 21 30
26 30 43 43 42 42 43 44 44 27 7 2 0 0 3 15
46 20 0 0 0 0 0 28 39 26 0 0 0 2 17 38
31 84 77 63 49 74 116 127 136 135 139 139 142 141 144 146
146 147 144 145 140 141 139 144 145 145 147 147 147 147 147 147
147 147 146 146 140 123 108 86 46 15 9 2 3 1 0 0
0 6 19 35 35 35 24 8 7 8 8 8 16 36 38 38
38 37 37 37 36 36 36 35 34 35 34 34 34 34 34 34
34 34 33 32 31 30 31 31 28 2 6 27 27 20 21 31
31 32 38 40 41 42 43 43 47 27 1 0 0 3 10 9
44 16 0 0 0 0 0 30 38 24 0 0 0 1 10 32
25 111 96 82 93 104 103 123 128 133 136 134 139 139 140 140
142 146 145 141 138 137 141 144 148 148 147 147 147 147 147 146
147 147 147 146 137 119 109 102 57 32 16 6 4 0 1 0
1 8 17 34 35 35 22 8 8 8 8 8 14 35 37 37
38 37 36 36 36 35 34 34 34 34 33 33 32 34 34 34
34 33 33 33 31 30 30 31 30 4 3 28 30 21 19 27
39 38 38 38 38 38 38 33 44 36 6 0 0 3 7 4
42 14 0 0 0 0 0 29 38 23 0 0 0 0 4 34
13 87 101 109 105 106 96 110 119 126 130 132 136 133 135 139
137 137 145 138 138 137 140 145 146 147 147 147 148 148 147 147
148 147 146 145 135 118 110 111 103 69 32 6 3 0 1 1
9 8 17 34 35 35 24 8 7 9 8 7 11 33 37 36
35 35 35 34 33 33 33 33 34 33 33 33 33 33 33 33
33 33 32 32 30 30 31 31 30 4 1 26 29 21 19 27
38 38 38 38 39 38 38 33 42 40 10 0 0 3 9 5
40 13 0 0 0 0 0 23 39 27 4 0 0 0 3 35
27 91 109 125 117 109 102 97 111 121 122 127 130 134 135 133
136 135 132 136 139 146 142 147 147 147 148 147 147 148 147 147
147 147 147 145 133 117 111 114 112 99 57 17 3 0 0 1
9 4 17 33 34 35 27 13 13 13 14 15 16 29 34 35
35 35 34 28 34 60 22 25 34 33 32 32 32 32 32 32
32 32 31 31 29 28 30 30 29 6 0 24 29 22 18 27
37 37 37 37 37 37 37 34 41 36 1 0 0 0 1 4
41 14 0 0 0 0 0 19 40 24 1 0 0 0 1 36
33 87 107 115 120 120 112 98 102 113 121 122 128 130 133 137
137 131 133 133 140 144 145 147 147 148 148 147 147 147 148 147
147 147 147 145 132 115 111 114 113 106 88 32 4 6 3 7
5 3 16 33 34 34 28 13 12 12 11 12 13 27 35 36
35 35 27 0 1 44 0 6 34 33 32 33 32 32 32 32
32 31 31 31 29 28 30 29 29 7 0 22 29 22 18 27
10 11 12 13 16 30 36 35 39 32 0 0 0 0 0 1
38 16 0 0 0 0 0 16 41 25 2 0 0 0 2 34
19 39 72 97 117 125 124 113 105 111 118 122 127 128 122 129
135 131 134 133 142 144 148 148 147 147 148 148 148 147 148 147
147 147 147 144 130 113 109 114 114 111 101 76 15 20 4 4
4 2 14 32 34 34 27 9 9 9 8 8 10 28 35 35
35 35 26 0 0 17 0 5 33 33 33 33 33 33 32 33
32 31 32 31 28 28 30 30 30 9 0 21 30 23 18 27
0 0 0 0 3 33 38 35 35 32 2 1 1 2 12 4
35 27 9 8 11 10 10 23 44 32 30 28 27 30 34 46
24 11 46 87 110 124 127 122 115 116 121 124 122 124 123 122
129 136 140 141 141 139 143 147 148 148 148 147 148 148 147 147
147 147 147 145 131 114 110 116 119 116 106 93 36 54 5 4
5 3 14 33 35 35 29 9 8 8 8 7 9 28 36 35
35 34 28 0 0 0 0 3 33 34 34 33 33 32 33 32
32 32 32 32 30 29 31 31 31 12 0 20 31 24 18 26
0 0 0 0 2 35 39 35 33 43 37 33 30 33 37 34
37 43 49 46 46 48 49 51 50 34 42 45 48 52 57 57
42 34 48 96 109 122 131 133 125 124 126 124 124 122 123 120
122 130 137 140 135 124 145 148 148 148 148 147 148 148 148 147
148 147 147 143 128 114 112 118 122 117 111 102 50 62 24 4
5 3 13 32 34 35 30 10 8 8 8 8 9 28 36 35
34 34 28 0 0 0 0 2 33 34 34 34 34 33 33 32
33 32 32 31 30 28 30 30 30 13 0 19 31 25 17 26
0 0 0 0 1 33 40 35 32 47 48 42 42 45 42 35
32 40 56 54 52 52 55 55 53 33 37 43 47 52 56 56
45 35 54 102 114 123 124 134 132 126 127 125 121 122 120 123
124 126 136 139 131 128 147 147 148 148 148 147 148 148 147 147
148 147 147 143 127 113 113 119 124 120 114 108 70 60 63 4
6 4 12 33 35 35 30 10 7 7 8 8 9 28 34 21
15 11 9 0 0 0 0 1 33 35 34 33 34 33 33 33
33 32 32 31 30 29 30 31 31 15 0 16 31 25 17 25
0 0 0 0 0 32 41 36 32 47 44 38 40 44 43 35
29 31 39 40 40 40 40 39 41 33 30 35 38 39 35 35
36 36 53 101 112 118 121 131 129 130 123 120 120 120 118 122
125 127 133 140 139 140 146 148 148 148 148 148 148 148 148 148
147 147 147 142 126 113 113 120 121 121 118 114 76 68 91 4
7 3 13 33 34 35 31 10 7 8 8 8 10 29 28 2
0 0 0 0 0 0 0 1 32 34 34 35 34 34 33 33
33 33 33 32 31 29 31 32 31 17 0 14 31 27 18 24
0 0 0 0 0 28 41 35 31 44 30 33 32 36 42 36
30 30 26 28 28 29 29 29 32 34 35 37 39 37 34 31
34 36 45 90 106 111 116 118 121 123 119 116 115 114 118 121
123 130 133 133 141 143 142 147 148 148 148 148 148 147 148 147
147 147 147 143 125 112 114 119 122 121 120 115 73 79 112 7
4 4 11 32 35 36 31 10 8 7 8 8 9 28 33 6
0 0 0 0 0 0 0 0 30 35 34 34 33 33 32 33
33 32 32 32 31 30 31 32 32 19 0 12 32 27 18 24
0 0 0 0 0 25 41 35 33 45 15 10 13 15 19 19
21 31 30 34 33 41 41 38 39 41 42 46 48 47 39 35
35 36 38 68 93 103 106 111 115 117 108 109 110 112 118 120
122 128 124 127 133 139 144 148 145 147 148 148 148 148 148 148
148 147 147 143 123 110 112 119 123 124 121 116 62 93 113 18
4 3 11 32 34 36 31 11 6 8 8 7 7 27 37 22
0 0 0 0 0 0 0 0 30 35 34 34 34 34 33 33
33 32 33 33 31 29 31 32 32 20 0 10 30 26 17 23
0 0 0 0 0 21 42 34 37 48 11 0 0 0 1 5
17 32 37 48 44 53 56 29 22 24 26 30 39 49 39 36
35 36 37 43 65 84 91 100 106 99 96 97 102 103 109 117
118 127 126 127 129 141 147 147 147 147 148 148 147 148 148 148
147 148 147 142 123 111 109 116 123 125 123 109 50 124 114 27
4 2 5 13 17 21 23 14 14 14 9 13 14 28 36 32
9 1 0 0 0 0 0 0 8 27 35 34 33 33 33 33
33 33 33 32 31 30 31 34 33 23 0 9 29 26 19 23
0 0 0 0 0 17 41 34 38 52 15 0 0 0 0 0
19 33 34 47 31 34 44 12 0 0 0 1 19 48 42 36
36 36 36 36 41 53 64 76 75 73 78 88 100 101 104 107
115 118 122 123 134 136 143 144 148 148 148 148 148 148 148 148
148 148 147 139 122 110 109 114 120 125 124 86 69 137 116 31
6 5 3 1 0 0 0 0 6 16 23 33 33 35 27 18
10 0 0 0 0 0 0 0 0 22 35 34 35 35 34 34
34 34 34 34 33 30 30 32 31 23 0 5 25 23 17 21
0 0 0 0 0 14 41 34 36 49 19 0 0 0 0 0
16 32 31 44 13 4 27 13 0 0 0 0 13 46 41 36
36 35 36 36 36 31 30 29 35 42 55 68 77 84 92 98
104 109 122 127 129 141 147 148 149 147 148 148 148 147 147 147
147 147 147 142 124 110 109 114 119 124 111 51 119 132 120 31
4 4 2 3 1 0 0 0 2 5 7 12 25 32 8 0
8 17 0 0 0 0 0 0 0 20 35 33 33 34 33 33
33 33 32 33 33 30 29 32 32 25 0 3 22 21 18 21
0 0 0 0 0 11 40 34 31 23 4 0 0 0 0 0
18 31 31 44 14 1 24 16 0 0 0 0 8 44 41 36
36 36 36 35 35 35 34 32 28 25 27 35 46 58 69 75
86 98 108 117 127 135 145 145 149 149 148 148 148 148 148 148
148 147 147 143 125 109 108 113 116 117 65 85 142 134 122 37
9 5 3 3 2 2 0 0 0 4 6 5 5 6 3 0
5 13 0 0 0 0 0 0 0 18 35 34 34 34 34 34
34 34 34 34 33 30 29 31 31 24 0 2 19 20 16 20
0 0 0 0 0 9 39 34 30 17 0 0 0 0 0 0
20 30 32 44 13 1 22 18 0 0 0 0 4 41 41 35
36 35 35 35 35 35 35 35 35 36 35 26 12 19 32 46
60 70 84 98 109 121 128 147 149 148 149 148 147 147 147 147
147 147 147 143 125 111 109 114 114 73 67 145 139 132 125 39
7 6 7 5 4 4 4 0 1 6 6 4 5 6 7 4
4 2 0 0 0 0 0 0 0 14 31 35 35 35 34 34
34 33 34 34 34 31 30 31 30 24 1 1 18 19 17 20
0 0 0 0 0 8 38 34 30 18 0 0 0 0 0 0
18 31 31 44 13 2 20 19 0 0 0 0 3 40 41 35
35 35 35 35 34 34 35 33 26 15 4 2 1 1 2 2
11 34 60 80 99 115 130 146 149 148 148 148 148 148 148 148
148 148 147 141 129 111 109 111 77 56 140 141 136 135 126 43
10 8 7 8 6 7 10 6 1 3 5 4 5 8 9 10
8 8 6 4 2 0 0 0 0 0 4 14 12 15 35 35
35 35 35 36 35 33 31 31 28 24 2 1 19 20 18 21
0 0 0 0 0 6 38 34 30 19 0 0 0 0 2 0
14 32 31 44 17 3 18 23 5 0 1 3 3 38 41 34
34 35 35 35 34 33 23 10 3 2 1 0 0 1 5 2
2 3 49 73 91 106 124 141 148 148 149 148 148 147 147 147
147 148 146 145 132 112 108 86 55 137 146 142 137 137 126 43
10 8 8 5 6 8 10 9 6 3 8 8 8 7 8 8
10 8 6 6 7 6 3 4 6 6 5 4 3 9 37 38
37 38 38 39 38 36 34 33 31 27 3 0 23 27 25 29
0 0 0 0 0 5 38 34 30 20 0 5 0 0 10 5
12 34 32 45 27 9 16 23 6 7 7 2 3 36 41 34
35 35 35 32 21 6 3 3 2 0 1 2 3 4 6 7
6 8 74 87 86 99 118 137 147 148 149 148 147 147 148 148
147 148 148 146 134 114 92 60 136 147 142 142 140 138 132 50
12 11 8 5 8 10 9 7 7 2 4 7 5 6 8 8
9 10 9 7 7 9 7 6 7 9 8 6 8 16 50 52
52 52 53 53 53 49 46 42 40 37 5 0 23 13 9 9
0 0 0 0 0 4 37 34 30 24 2 7 2 2 14 16
14 38 33 46 26 20 16 21 4 12 9 1 1 32 38 34
35 31 18 5 3 3 2 1 3 2 4 3 7 6 5 5
6 7 73 115 104 89 104 127 143 149 148 149 148 148 148 148
148 148 148 147 136 108 74 140 147 144 142 140 141 142 131 58
14 12 8 7 7 8 9 9 8 6 1 7 7 7 6 8
8 9 9 9 8 9 9 7 7 7 7 14 34 51 55 55
56 56 55 56 54 51 46 42 41 39 8 0 25 1 0 0
0 0 0 0 0 3 35 34 29 30 29 33 34 34 38 40
40 46 36 46 20 27 18 27 18 21 19 17 17 30 33 31
18 5 2 1 3 3 2 3 3 4 3 6 8 5 4 4
6 7 70 115 125 121 95 112 136 145 146 149 148 148 148 148
149 149 148 148 136 101 144 148 146 146 146 141 140 139 134 57
15 13 12 10 9 10 12 12 11 12 8 2 8 6 7 7
7 9 11 9 8 9 10 9 7 7 7 6 5 13 32 49
54 54 53 50 52 48 42 40 40 39 10 0 18 0 0 0
0 0 0 0 0 3 36 34 28 32 48 50 52 52 52 52
53 53 39 45 12 16 19 32 28 28 28 27 27 21 14 7
6 4 3 2 1 0 0 1 2 4 5 10 9 7 5 4
5 8 70 114 121 131 121 93 120 139 145 147 147 148 148 147
149 148 148 147 127 146 148 147 146 143 140 139 140 137 133 39
11 10 9 9 11 10 9 9 9 9 10 3 7 9 8 8
8 9 10 10 9 9 10 9 8 8 7 7 7 7 7 9
25 38 42 33 39 37 29 34 40 39 11 0 11 0 0 0
0 0 0 0 0 2 35 34 28 27 47 51 50 50 50 49
49 48 40 44 10 6 13 32 30 32 29 21 12 9 9 10
10 10 9 7 6 4 2 2 2 3 9 8 7 6 7 7
8 8 60 117 119 130 134 111 97 123 134 140 144 145 144 145
148 149 148 142 148 148 147 148 148 145 142 138 138 134 129 24
14 14 10 8 11 9 10 8 11 9 11 9 3 9 10 6
6 9 10 11 11 8 10 10 9 8 8 7 7 7 6 7
6 6 12 19 23 28 26 34 38 39 13 0 6 0 0 0
0 0 0 0 0 2 34 34 28 23 23 24 24 23 23 22
21 20 25 42 12 3 11 33 27 19 11 9 10 9 11 10
11 9 11 11 10 8 7 6 6 7 10 8 7 8 8 4
5 6 32 112 117 127 143 142 114 88 112 121 128 135 139 143
147 145 144 148 148 148 148 147 145 141 139 136 137 138 119 27
16 13 10 9 9 9 10 11 10 10 10 12 12 5 9 9
8 9 8 11 11 10 8 10 10 9 8 7 7 8 7 7
6 5 5 5 5 12 20 32 37 38 15 0 3 0 0 0
0 0 0 0 0 2 33 33 28 24 18 17 17 17 17 18
18 17 23 43 15 2 9 18 9 9 9 8 9 10 11 10
10 9 12 11 10 9 10 11 10 14 13 11 8 7 6 4
7 10 9 98 113 126 142 147 148 128 88 107 118 128 136 142
142 143 149 149 149 148 148 147 144 142 136 137 141 143 113 31
18 16 13 11 11 12 14 14 13 15 15 13 10 7 4 9
9 8 10 8 9 10 8 9 10 12 7 7 7 8 7 6
8 6 6 5 5 4 4 16 33 37 17 0 0 0 0 0
0 0 0 0 0 2 33 34 28 27 24 23 22 21 20 20
20 17 24 43 21 9 7 8 8 11 10 10 10 12 11 12
10 11 12 10 11 11 10 10 14 13 13 13 12 10 7 7
9 13 3 69 114 121 137 146 148 150 130 96 118 123 129 129
143 150 149 149 149 148 147 145 142 140 136 139 141 143 121 39
17 15 15 15 13 13 12 12 14 12 9 10 11 11 6 8
10 9 10 9 9 11 9 9 9 10 9 8 7 8 8 7
7 9 7 7 6 5 5 5 8 25 17 0 0 0 0 0
0 0 0 0 1 5 35 34 28 27 26 24 24 24 25 23
23 19 21 18 9 8 8 8 11 10 8 9 11 11 10 9
10 12 13 10 11 10 10 14 15 14 12 12 12 11 9 9
11 17 6 46 113 116 136 146 147 149 149 132 91 115 119 142
149 149 149 148 149 148 148 144 142 137 139 142 144 144 113 18
17 15 14 12 11 11 12 12 11 11 12 9 10 10 10 6
8 9 9 9 11 11 11 9 9 9 11 7 9 7 7 9
7 8 8 8 8 5 8 8 8 8 13 0 0 0 0 0
19 20 21 22 23 25 31 30 28 27 26 25 24 24 24 24
20 12 7 7 7 8 8 9 9 9 8 11 10 11 11 12
12 12 10 10 11 9 15 18 18 17 17 15 14 13 11 11
13 19 12 45 116 115 132 143 145 149 149 120 118 98 144 150
149 149 149 149 148 148 145 142 138 138 140 147 144 148 100 14
16 13 13 12 12 11 10 11 10 9 10 10 12 11 11 8
6 10 9 10 10 10 11 12 9 9 10 10 9 8 8 9
8 7 9 8 6 6 7 6 9 10 6 0 0 0 0 0
30 29 29 29 29 28 27 28 27 26 26 25 24 23 18 10
6 6 7 7 7 7 8 11 10 9 10 11 10 11 9 12
13 11 10 11 11 12 14 15 14 17 16 17 14 13 11 9
11 16 17 57 124 116 130 138 146 148 105 66 135 118 138 150
149 149 149 149 149 146 146 143 137 141 145 146 147 144 66 27
15 13 14 12 12 10 10 11 11 12 11 12 9 8 10 11
8 5 10 11 11 12 12 11 11 10 11 14 11 8 7 7
9 7 7 9 8 7 7 8 6 8 5 0 0 0 0 0
31 30 29 29 28 27 27 28 27 26 26 27 24 11 7 7
5 6 7 5 7 8 9 10 9 9 11 11 11 11 10 12
13 10 10 9 9 14 12 13 15 15 15 14 15 15 13 10
13 20 23 82 127 117 126 139 145 133 51 108 125 112 115 149
149 149 149 148 149 144 141 139 140 144 143 147 147 134 31 34
17 13 13 11 10 12 11 12 12 11 8 8 10 9 9 8
9 8 6 10 10 12 12 13 13 11 10 13 10 10 9 9
10 8 8 10 8 9 8 6 3 7 3 0 0 0 0 0
28 27 26 25 24 24 23 23 24 26 26 16 6 4 6 5
6 7 7 8 7 11 11 10 9 9 10 9 11 11 10 13
12 10 11 8 16 14 14 13 13 14 14 16 16 12 12 12
15 17 29 99 129 121 122 137 142 86 82 120 142 139 121 140
149 149 149 148 144 143 142 139 143 141 145 147 146 126 71 43
15 14 14 16 15 12 9 9 9 10 9 9 9 8 9 10
11 10 6 6 11 11 13 14 11 12 11 12 11 8 8 10
8 10 9 10 8 9 8 6 4 7 4 0 0 0 0 0
6 5 4 11 18 20 19 25 25 25 12 6 4 5 7 6
6 8 8 8 8 10 10 10 10 12 10 11 11 11 13 13
12 11 9 13 17 18 17 14 14 16 16 15 14 14 15 14
15 18 34 111 130 127 121 134 131 51 111 132 146 140 116 126
148 149 149 147 146 144 144 142 145 144 146 147 145 126 119 51
16 13 14 12 11 13 11 11 10 9 10 10 11 13 13 11
11 11 12 7 7 12 15 12 14 10 10 9 12 8 7 9
9 11 9 11 10 12 9 5 5 7 2 0 0 0 0 0
11 0 0 9 19 23 22 25 25 22 5 6 5 7 6 6
9 9 9 8 9 10 9 10 10 12 10 10 11 10 13 12
13 12 11 15 15 14 15 15 13 15 14 15 17 16 15 18
15 19 51 124 131 128 120 131 104 47 129 145 142 144 113 129
140 149 149 146 139 141 144 145 145 146 148 146 140 126 122 53
15 15 17 13 12 14 12 12 11 11 13 14 13 12 11 10
10 11 12 10 4 8 12 15 14 13 11 10 13 11 9 9
11 9 10 10 9 10 10 4 7 10 2 0 0 0 0 0
40 6 1 9 17 22 23 24 24 15 5 6 9 6 7 7
10 9 10 8 11 9 8 8 10 11 11 11 12 12 12 10
10 8 15 16 14 13 15 13 15 14 14 14 15 15 16 16
18 19 64 135 128 136 124 131 71 40 133 146 132 128 136 129
132 148 149 145 144 146 144 147 146 147 148 146 136 136 103 49
15 17 16 14 13 12 12 14 15 15 13 12 12 12 11 10
11 12 12 11 10 2 11 14 12 12 11 9 11 11 8 8
11 10 11 9 11 10 10 1 5 7 1 0 0 0 0 0
53 25 15 16 16 20 22 23 24 8 5 7 10 7 8 9
9 9 8 9 13 9 9 10 12 10 9 12 11 15 13 10
8 15 16 14 15 15 14 15 15 15 15 15 15 16 15 16
20 21 63 136 138 133 132 129 47 44 130 148 129 122 126 135
138 141 147 147 147 145 147 145 146 148 148 145 133 121 100 60
15 16 17 16 14 14 15 16 17 14 12 12 12 11 11 12
13 12 15 17 6 1 8 13 12 14 12 10 11 12 10 11
10 10 11 10 10 12 11 0 8 8 1 0 0 0 0 0
57 38 22 21 17 19 22 24 24 4 5 6 7 8 8 9
9 9 8 11 10 9 11 12 11 9 9 10 12 15 13 11
13 16 18 18 16 16 14 13 13 13 15 14 14 15 16 16
18 21 71 139 140 136 122 134 68 53 141 151 138 117 126 137
143 135 145 146 147 145 147 146 149 146 148 139 123 122 118 67
15 18 16 16 14 13 14 14 14 15 13 12 11 12 13 13
13 15 15 9 2 3 10 13 12 13 13 9 11 11 12 11
10 12 11 10 9 10 8 1 7 6 1 0 0 0 0 0
37 28 22 22 20 19 18 17 14 2 5 5 6 7 8 11
7 8 7 11 8 9 10 12 10 11 10 10 14 13 11 10
16 17 15 14 14 17 17 17 18 18 17 16 14 17 16 16
19 20 66 141 143 139 133 124 99 51 142 151 149 124 123 131
141 135 136 148 147 147 148 148 148 144 147 134 127 129 114 64
13 16 15 15 14 12 17 13 13 14 12 12 13 13 14 15
14 13 12 2 0 7 9 13 11 13 12 11 10 10 13 11
9 11 10 8 6 9 3 3 7 5 0 0 0 0 0 0
32 22 13 13 13 13 13 13 9 0 5 7 5 9 10 10
8 9 10 13 9 8 10 12 11 11 10 11 13 11 8 13
14 14 15 15 13 13 15 15 15 15 15 15 17 18 17 15
18 22 78 140 143 143 134 106 131 68 145 150 149 135 124 124
136 140 120 148 149 149 148 147 146 147 141 124 136 144 137 71
15 19 16 15 14 14 15 14 14 12 14 14 16 15 14 12
14 14 7 0 3 12 10 12 11 11 12 12 10 11 13 10
10 11 9 10 8 9 1 4 8 3 0 0 0 0 0 0
32 21 12 13 12 12 12 13 8 1 6 8 3 8 12 10
9 7 10 10 9 11 11 11 11 11 12 13 12 8 11 14
15 13 16 13 12 14 15 15 15 14 13 16 19 16 16 15
17 21 68 142 145 137 106 110 145 94 145 150 149 142 133 123
132 141 108 132 147 148 148 148 146 148 123 124 144 148 148 84
15 20 15 16 16 17 16 15 15 13 13 16 14 15 14 12
13 9 0 0 7 11 8 9 9 9 12 13 11 10 12 12
11 8 9 9 8 5 0 7 6 2 0 0 0 0 0 0
33 23 12 11 11 11 10 10 5 0 5 7 2 8 12 8
9 9 13 10 10 11 13 10 10 10 10 13 12 10 6 15
16 15 14 14 13 13 14 15 15 13 14 13 18 17 15 14
16 21 65 142 141 138 74 131 144 117 144 149 147 138 139 136
129 130 104 114 144 149 149 147 147 148 133 138 139 147 146 81
16 16 15 16 15 14 14 15 13 15 14 14 11 13 11 12
9 2 0 5 12 14 10 9 9 12 12 11 10 8 10 12
10 8 8 7 6 2 1 8 5 2 0 0 0 0 0 0
32 23 12 13 15 18 20 18 6 0 5 8 2 6 12 7
8 8 11 8 10 10 11 10 11 12 10 13 9 10 6 10
14 14 15 15 16 16 14 15 14 13 14 14 16 15 14 14
15 20 65 141 140 112 98 150 142 125 141 150 148 139 137 134
138 138 108 111 117 148 148 148 147 143 138 138 144 147 137 83
15 15 14 13 13 14 14 14 13 13 15 12 12 11 13 12
6 1 1 8 12 10 8 8 10 10 11 10 9 9 9 12
9 7 7 2 3 1 2 9 4 2 0 0 0 0 0 0
