P2
128 120
150
36 35 34 34 33 32 32 30 30 29 28 27 27 27 26 25
25 24 24 23 22 22 21 20 21 20 19 18 18 17 17 16
16 16 15 4 0 0 0 0 0 0 0 0 0 0 0 3
6 4 0 0 0 0 0 0 0 0 0 0 0 0 1 0
0 0 0 0 0 0 0 0 0 0 0 0 0 0 0 0
0 1 4 9 13 15 16 15 16 16 16 17 17 17 18 19
19 20 20 21 22 22 23 23 23 24 25 26 26 27 27 26
27 28 29 29 31 31 31 32 33 32 33 34 34 35 34 34
35 35 34 33 33 32 32 31 30 30 29 29 28 27 26 26
25 25 24 23 22 22 22 21 21 20 20 19 19 18 17 17
16 15 15 12 2 0 0 0 0 0 0 1 3 3 0 9
13 11 9 5 2 0 0 0 0 0 0 0 0 0 1 0
0 0 0 0 0 0 0 0 0 0 0 0 0 0 3 7
11 14 15 15 16 16 17 17 18 18 18 18 19 20 21 21
22 22 23 23 24 25 25 26 26 27 27 27 27 27 28 29
30 31 31 32 32 33 33 33 34 34 34 35 35 35 36 36
36 36 35 35 34 33 33 32 31 30 29 29 28 28 27 27
26 25 24 24 23 23 22 22 21 20 20 19 19 18 18 17
17 17 16 15 11 6 3 0 0 1 5 8 10 8 1 11
15 12 12 11 10 6 2 0 0 0 0 0 0 0 0 0
0 0 0 0 0 0 0 0 0 0 1 4 9 13 15 15
16 16 17 17 18 19 19 19 20 20 20 20 21 22 23 23
23 24 25 26 27 27 28 28 27 28 29 30 30 31 31 32
32 33 34 34 34 34 35 35 35 35 35 36 36 35 36 36
36 35 35 34 34 33 32 32 31 31 30 30 29 29 28 27
27 26 25 25 24 23 23 22 22 21 20 20 20 18 18 18
17 17 16 15 13 9 8 7 4 7 11 13 15 11 2 12
17 14 12 12 12 10 9 6 2 0 0 0 0 0 0 0
0 0 0 0 0 0 1 3 7 11 14 15 16 16 18 18
18 19 18 19 20 20 20 21 21 22 22 22 24 24 25 25
26 26 28 28 28 28 28 29 31 30 31 31 32 33 33 33
34 34 35 34 35 35 36 36 35 35 36 36 37 36 37 36
36 36 35 35 34 33 33 31 31 30 30 29 29 28 28 27
27 26 25 25 24 24 24 23 22 22 21 20 20 19 19 18
18 17 17 16 14 11 9 8 9 12 14 15 14 12 4 11
18 17 15 14 12 12 11 10 7 5 3 0 0 0 0 1
0 0 0 1 5 9 13 15 16 16 17 17 18 17 19 18
18 20 20 20 21 21 22 23 23 23 24 24 25 25 26 26
27 27 28 28 30 30 30 31 32 31 32 32 33 33 33 33
34 34 34 34 35 35 35 35 35 35 36 36 34 35 36 36
36 35 34 34 33 32 32 32 31 30 30 29 29 28 28 27
27 26 25 24 24 24 23 23 22 21 21 20 20 19 19 19
18 18 18 17 15 13 10 9 9 13 15 15 16 14 8 13
21 19 16 17 15 13 11 11 8 7 5 5 6 9 10 11
2 4 9 14 15 15 15 16 17 18 18 19 19 20 20 20
20 21 21 21 22 22 22 23 24 24 25 25 25 26 27 27
28 29 30 30 31 31 31 31 31 33 32 33 32 34 33 34
34 35 35 35 34 34 34 35 35 35 34 35 35 36 36 35
35 35 35 34 33 33 32 32 31 30 29 29 29 28 28 27
26 25 25 24 24 23 23 22 22 21 21 20 20 19 18 18
18 17 17 16 16 14 12 11 10 13 15 16 18 15 10 14
22 19 18 16 16 15 14 11 9 8 8 7 11 13 11 12
10 13 15 15 16 17 18 18 19 19 19 19 19 20 20 20
21 22 21 22 23 24 24 24 24 25 25 25 26 27 28 28
28 29 30 30 30 31 31 31 33 33 33 33 33 33 33 33
33 33 34 34 34 34 34 34 34 34 34 34 35 35 34 35
35 34 33 33 32 32 32 31 30 30 30 29 28 27 27 27
26 25 24 24 24 23 23 22 22 21 21 20 20 20 19 18
18 17 17 16 15 14 12 12 11 14 17 18 19 17 10 14
22 20 18 17 16 15 14 13 11 9 8 6 10 12 12 11
14 15 16 17 18 18 18 19 19 19 20 20 20 21 21 21
22 23 23 23 23 22 23 23 24 25 25 26 28 28 28 28
29 30 30 30 30 31 31 31 31 32 32 32 32 33 33 33
33 33 33 33 34 33 33 34 33 33 34 34 34 34 34 34
35 34 33 33 32 31 32 31 31 30 29 28 27 27 27 25
26 24 24 23 23 23 22 23 21 21 21 20 20 19 18 18
17 17 16 16 16 15 14 12 12 16 18 19 20 17 10 12
23 20 18 17 16 16 15 14 11 13 11 7 7 13 11 12
14 16 17 18 18 19 19 19 20 20 20 20 21 21 22 22
22 22 21 23 23 23 24 25 26 27 27 27 28 28 29 29
29 29 30 30 30 31 31 31 31 32 31 32 32 33 33 33
32 32 33 33 32 32 33 33 33 33 34 34 34 33 32 32
35 34 34 33 32 32 31 31 31 30 29 29 28 27 27 26
27 25 24 24 23 23 23 22 22 21 21 20 20 20 19 19
18 17 18 17 16 15 14 13 13 17 20 21 22 18 11 11
24 21 19 18 18 16 15 13 13 14 13 9 7 14 12 14
16 17 19 19 20 20 21 21 21 21 21 21 22 22 22 22
22 23 24 24 25 25 25 26 26 28 27 28 28 29 29 29
30 30 30 30 31 31 32 32 32 32 31 32 33 33 33 32
33 33 34 33 33 34 34 33 32 32 32 32 33 33 34 34
35 34 34 33 33 32 32 31 31 31 30 29 28 28 27 27
26 26 25 25 25 23 23 23 23 22 21 21 20 20 19 19
19 18 17 18 17 16 16 16 16 19 22 22 23 19 13 11
24 21 20 19 18 17 16 15 14 14 14 12 8 14 14 16
18 20 19 19 20 21 22 21 22 22 22 22 22 22 23 24
24 24 24 25 26 26 26 27 28 29 28 28 29 29 29 30
30 30 30 30 32 31 32 32 33 34 32 33 33 34 33 33
33 33 33 33 32 32 32 33 33 34 34 34 34 34 34 33
35 34 34 34 33 32 32 31 31 30 29 29 28 28 27 27
27 26 26 25 25 24 24 23 23 23 22 22 21 21 21 20
20 19 19 18 18 18 17 17 17 20 23 23 24 21 14 11
26 23 20 20 19 19 18 16 16 16 16 14 9 15 16 18
20 21 21 22 22 22 23 22 22 23 23 23 23 24 24 24
25 25 25 26 27 27 27 27 28 29 28 29 29 29 30 30
30 30 30 32 32 32 33 32 33 34 33 34 33 33 33 32
32 32 33 34 35 34 35 35 35 34 34 34 35 34 34 34
35 34 34 33 33 33 32 31 31 31 30 29 28 28 28 27
26 26 26 25 25 25 25 24 23 23 23 22 22 21 21 21
20 19 18 18 18 18 18 18 19 22 24 24 24 21 15 11
24 22 20 20 19 19 19 16 17 17 16 15 12 16 17 20
21 21 22 21 21 22 23 23 24 24 25 24 25 25 25 25
25 26 26 26 26 27 27 28 28 29 29 29 30 30 31 30
31 31 31 32 33 33 33 33 33 34 32 32 32 32 32 34
34 34 33 34 34 33 34 34 34 34 34 34 35 35 34 34
36 35 34 34 34 33 32 31 31 31 30 30 29 29 28 28
28 27 27 26 25 25 25 24 24 23 23 22 22 21 21 21
20 20 20 20 19 19 19 19 20 22 25 25 25 22 16 12
24 24 21 22 21 20 20 20 19 18 17 16 13 17 18 21
21 22 23 23 23 24 24 24 24 24 25 25 26 26 26 26
26 26 27 27 28 28 28 28 28 30 29 30 30 30 31 32
32 31 32 33 33 33 32 32 32 31 33 34 35 34 33 34
34 34 34 34 35 34 35 34 34 34 34 34 34 34 34 33
35 35 34 33 33 33 32 31 31 31 30 30 30 29 28 28
28 27 26 26 26 26 25 25 24 24 24 23 22 22 21 20
20 20 20 20 19 20 19 20 20 24 26 26 26 22 17 13
24 24 22 21 21 21 21 19 20 19 19 18 15 18 19 22
22 22 23 23 24 24 24 25 25 25 26 25 26 26 26 26
27 27 27 27 28 28 28 28 29 30 29 30 31 31 32 32
31 30 32 31 31 31 33 34 34 32 34 34 33 34 33 34
34 34 34 35 35 34 35 34 34 34 35 34 35 34 34 34
36 35 34 34 33 33 32 32 32 31 31 30 30 29 29 28
28 28 27 27 26 26 25 25 24 24 23 24 23 22 22 22
21 21 21 21 20 20 20 20 21 24 25 25 26 23 17 14
23 24 22 22 22 22 21 20 20 19 20 18 17 19 21 23
24 24 24 24 25 25 25 25 25 26 26 26 26 26 26 27
27 28 27 27 28 28 29 29 29 31 30 31 31 30 31 30
32 32 32 33 33 34 33 33 33 34 33 34 34 33 33 34
34 34 34 35 35 35 35 35 35 35 34 34 34 34 34 34
35 34 34 34 33 33 32 32 31 32 32 31 30 31 30 29
28 27 27 27 26 26 26 25 25 24 24 24 23 23 22 22
22 22 21 21 20 20 20 20 21 24 27 27 27 24 18 13
21 25 22 21 22 22 22 22 21 21 21 19 18 20 22 24
25 25 25 25 25 25 26 26 26 26 27 27 28 27 27 27
28 27 28 27 28 29 29 29 29 30 29 29 29 31 32 33
32 35 33 33 33 33 34 33 33 34 34 34 34 34 34 34
34 34 34 35 34 34 34 35 34 35 35 34 34 34 34 33
35 35 35 34 34 33 33 32 32 32 32 31 30 30 30 29
28 28 28 27 26 27 26 25 25 25 24 24 23 23 22 23
22 22 21 21 21 21 21 21 22 25 27 27 27 24 19 9
17 26 24 24 23 23 22 22 22 21 21 20 17 22 22 25
24 25 26 25 26 26 26 26 27 27 27 27 27 27 28 28
28 28 28 29 29 29 28 28 28 29 30 32 32 32 32 32
33 34 33 33 34 34 34 34 34 35 35 34 34 34 34 34
35 34 35 35 35 35 35 35 35 34 34 34 33 33 33 33
35 34 34 33 33 33 33 33 33 32 32 31 30 31 30 29
29 28 27 27 27 26 26 26 25 24 24 24 24 24 23 22
22 22 22 21 21 20 20 21 22 25 28 28 28 25 18 13
20 27 25 24 23 23 22 23 22 21 22 21 19 22 23 25
25 25 26 26 26 26 27 27 27 27 27 28 28 28 28 28
28 28 28 27 28 28 29 30 31 31 32 32 32 33 33 33
34 34 34 34 34 33 34 34 33 33 34 34 34 35 34 35
35 34 35 35 35 35 34 35 34 34 35 34 34 35 34 34
35 35 35 34 34 34 33 33 32 32 32 31 30 30 30 29
28 28 28 27 27 27 26 26 26 26 26 25 24 24 23 23
23 22 22 21 21 21 21 21 22 25 28 27 27 25 18 18
20 27 25 24 25 24 24 24 23 22 22 21 19 23 24 26
26 26 27 26 27 27 27 28 27 27 28 28 27 27 27 28
27 28 29 29 29 30 30 31 31 31 32 32 32 33 33 33
33 34 34 34 34 34 34 34 35 34 34 34 34 34 35 35
34 34 34 35 34 34 34 34 35 35 35 35 35 34 33 33
35 34 34 33 34 34 34 33 32 32 32 31 31 30 30 29
29 28 28 27 27 27 26 26 26 26 25 24 25 24 24 24
23 22 22 22 21 21 21 22 23 26 28 28 28 26 19 20
20 27 25 25 24 24 23 23 23 22 22 22 19 24 24 26
27 26 27 27 27 27 27 27 27 27 27 27 27 27 28 28
29 29 30 30 29 30 31 31 31 32 32 32 32 33 33 34
34 35 34 34 34 34 34 34 34 34 34 34 34 34 34 34
35 34 34 34 35 34 35 35 34 34 34 34 33 35 35 35
36 35 34 35 34 34 33 33 33 32 32 31 30 31 30 30
29 28 28 29 28 28 27 27 26 26 26 25 25 24 24 23
23 23 22 22 22 22 22 22 23 27 29 29 29 26 20 22
20 27 26 25 25 25 25 24 24 23 23 23 19 24 25 27
27 27 27 27 27 27 27 27 27 27 28 27 28 28 29 29
29 29 31 29 30 31 31 32 32 32 32 32 33 33 33 33
33 34 34 34 34 34 35 35 34 34 35 34 35 34 35 35
35 35 34 35 35 34 35 34 34 35 35 35 35 35 34 35
35 35 34 34 34 33 33 33 33 32 32 32 32 31 30 30
30 29 29 28 28 28 28 27 26 26 26 25 26 25 24 24
24 23 23 22 22 22 22 22 24 26 30 30 30 27 20 22
20 27 26 26 26 25 25 24 24 22 23 24 21 25 26 28
27 27 27 27 27 27 27 28 27 28 28 28 28 28 29 29
30 30 31 30 31 31 31 32 32 32 32 33 33 33 33 34
34 34 34 34 34 34 35 35 34 34 34 34 35 34 34 34
34 34 34 34 35 35 36 35 34 34 35 35 35 34 35 35
35 36 35 35 35 34 34 34 34 33 33 32 31 30 31 30
30 29 29 29 29 29 28 28 27 27 26 26 26 25 24 24
24 24 24 23 23 23 23 23 24 27 30 30 30 27 21 22
20 27 27 26 26 24 23 21 22 22 23 24 21 25 25 27
27 27 28 28 28 28 29 29 29 29 28 29 29 30 30 30
30 31 31 30 31 31 32 33 33 32 33 33 34 34 34 34
34 35 36 35 35 35 36 36 35 35 35 34 34 35 35 35
35 35 34 34 34 34 35 35 35 35 35 35 35 35 35 34
36 35 36 35 34 34 34 34 33 33 33 32 32 32 32 31
31 31 30 30 29 28 28 28 27 27 27 26 26 27 25 25
25 24 24 24 24 24 24 24 25 28 31 30 30 28 21 24
22 27 27 26 24 22 22 20 17 18 20 22 22 25 25 28
29 29 29 29 29 29 29 29 29 28 29 29 29 30 31 31
31 31 32 32 32 32 32 32 33 33 33 33 34 34 35 35
34 35 36 35 36 35 34 35 34 34 34 34 35 35 35 35
35 34 34 35 35 35 34 34 35 34 34 35 34 34 34 34
36 35 35 35 35 35 34 34 33 33 32 32 32 32 32 30
31 30 30 30 30 29 29 28 28 27 27 26 26 26 26 25
25 24 24 24 25 24 24 24 26 28 31 31 30 28 21 24
23 26 27 26 22 23 20 14 13 8 7 12 20 26 27 28
29 28 29 29 29 29 29 29 30 30 30 30 30 31 31 31
31 31 32 32 31 32 32 32 33 33 34 34 34 34 34 34
34 34 34 33 32 34 34 35 36 36 34 35 35 35 35 35
35 35 35 35 35 35 35 35 35 35 36 35 34 35 34 34
35 35 35 35 34 34 34 33 34 33 33 33 33 32 32 32
32 31 30 30 30 29 28 28 28 28 28 27 27 26 26 25
26 25 26 25 25 24 25 24 25 28 31 31 31 28 22 25
24 26 28 26 22 19 13 8 2 0 0 0 6 16 27 29
29 30 29 30 30 30 30 29 30 29 30 30 30 30 31 32
32 32 33 33 33 33 33 33 33 34 34 34 34 33 34 34
35 35 35 35 35 35 35 35 35 36 36 35 34 34 35 35
35 35 36 36 36 35 36 35 35 35 35 36 36 35 35 35
36 35 35 35 35 34 34 34 34 33 33 33 33 32 32 31
31 30 31 30 29 29 29 29 28 28 28 27 27 27 27 27
26 26 26 25 24 25 25 25 26 28 31 31 31 29 21 25
25 25 27 25 18 15 7 0 0 0 0 0 0 2 15 26
26 29 29 29 29 30 31 30 30 30 31 31 31 31 32 32
32 32 32 32 32 32 33 33 33 33 34 34 34 35 36 35
36 36 35 35 35 35 36 35 35 36 36 35 35 35 35 36
35 35 35 35 35 34 34 34 34 35 36 35 36 36 35 35
36 35 35 35 35 35 34 35 34 34 33 33 33 33 33 32
32 31 30 31 30 29 29 29 29 28 28 28 27 27 27 27
27 26 26 26 25 25 25 25 26 29 32 31 31 30 22 25
27 24 28 25 15 10 1 0 0 0 0 0 0 0 0 9
23 19 26 30 31 31 31 31 31 31 31 30 32 31 32 32
33 33 33 32 32 32 33 33 33 34 34 35 35 35 36 36
36 36 36 36 36 36 36 36 36 36 36 35 35 35 35 35
35 36 35 35 35 35 35 35 35 35 36 34 35 35 35 35
35 35 35 34 34 34 34 34 34 34 33 33 33 32 32 32
31 31 31 30 30 30 30 29 29 28 28 28 28 27 27 27
26 26 26 25 25 25 25 25 26 29 32 32 32 30 22 25
29 24 29 26 14 11 5 0 0 0 0 0 0 0 0 0
5 18 19 22 30 31 32 31 31 31 32 32 32 32 32 32
32 32 32 32 33 33 33 34 34 34 36 35 36 35 36 35
35 35 35 35 35 35 35 35 35 35 36 34 35 35 35 36
35 35 35 35 35 35 35 35 35 35 35 35 35 35 35 35
35 35 35 35 35 34 34 33 33 33 32 33 33 32 31 32
31 32 31 31 30 30 30 29 29 28 28 28 27 27 27 27
27 26 26 25 25 25 25 25 26 28 31 31 32 29 22 23
29 23 28 19 13 15 17 20 33 45 57 58 48 31 13 1
0 2 13 21 19 29 31 31 31 31 31 31 31 31 31 32
32 32 32 33 33 33 34 33 34 34 35 35 35 35 35 35
35 35 35 35 34 36 35 35 35 35 36 35 35 35 34 35
35 34 35 35 35 34 35 35 35 35 35 35 35 35 33 33
36 35 34 34 34 34 34 34 33 33 33 33 32 31 31 31
31 30 30 30 30 29 29 29 29 29 29 28 28 28 28 27
26 25 25 25 25 25 25 25 26 28 32 32 31 30 22 25
30 22 27 18 37 67 88 96 100 105 109 108 106 103 96 86
62 26 7 13 18 15 27 31 31 30 30 31 31 31 32 32
31 31 32 32 33 33 33 33 34 34 35 35 35 35 35 35
36 35 35 35 34 35 34 35 34 34 35 34 34 34 35 34
35 34 34 34 34 34 35 34 35 34 33 33 30 31 31 32
35 35 35 35 35 34 34 33 33 33 33 32 32 32 32 31
31 31 31 31 31 30 30 29 30 29 29 28 28 27 27 27
27 27 26 26 26 26 26 26 27 29 33 32 30 28 21 25
31 23 35 81 108 110 108 110 108 109 109 110 107 104 102 103
103 96 51 11 12 11 14 26 31 31 31 32 32 31 32 31
32 33 33 33 33 33 34 34 34 34 35 34 34 34 34 35
35 35 35 35 35 35 35 35 36 35 36 35 35 35 35 35
35 34 35 34 33 34 33 33 33 33 33 34 33 34 33 33
35 35 35 34 34 34 34 34 33 33 33 33 33 32 32 32
31 31 30 30 31 30 30 29 29 29 29 28 28 27 28 27
27 26 26 25 26 25 26 26 27 28 30 28 23 17 14 22
24 35 90 110 109 103 99 99 100 101 104 104 105 107 108 106
102 99 95 53 10 9 6 16 27 32 32 33 31 32 32 32
32 33 33 33 33 33 33 34 34 35 35 34 35 35 35 35
35 34 34 34 34 35 35 35 35 35 36 35 35 35 35 34
34 34 34 33 34 34 35 35 34 33 34 34 33 33 32 32
35 35 35 34 34 33 34 33 33 33 32 32 32 32 32 32
31 32 31 31 31 30 30 30 30 30 29 29 28 28 28 28
27 27 27 26 26 26 26 25 26 28 28 21 14 12 10 12
23 85 101 103 101 90 94 110 116 116 117 117 120 120 118 113
113 113 104 89 42 8 9 11 18 27 32 33 32 32 32 32
32 32 33 33 34 33 34 35 34 34 35 34 34 34 35 34
35 34 34 34 35 35 36 35 35 35 34 32 32 32 33 33
33 34 34 35 33 32 33 32 33 34 33 33 32 33 32 31
35 35 35 35 34 34 33 33 34 33 33 33 33 32 32 31
32 31 31 31 31 31 30 30 30 29 29 29 29 28 28 27
28 27 27 26 26 26 27 26 26 26 21 16 16 16 8 13
73 93 97 88 62 58 75 101 120 127 125 121 125 122 102 87
76 60 76 98 86 40 11 10 12 16 32 33 32 32 32 32
32 33 33 33 34 34 33 33 34 34 35 34 34 35 35 35
36 36 35 35 34 34 33 33 33 33 33 34 34 34 34 34
33 34 34 35 32 33 33 33 34 34 32 33 32 32 33 31
20 32 36 35 35 34 34 34 33 34 33 33 32 33 33 32
32 32 32 32 32 31 31 30 30 30 30 29 28 28 28 27
28 28 27 27 27 27 27 27 27 23 17 16 10 2 3 54
90 92 71 38 35 60 92 115 131 135 131 118 113 120 115 89
62 40 35 39 75 84 45 13 10 9 25 33 32 33 33 33
33 33 33 34 34 34 34 35 34 35 35 35 34 34 35 35
34 34 35 34 34 35 36 35 35 35 35 34 34 34 34 33
34 34 33 34 33 33 33 34 35 33 32 33 33 31 31 31
14 30 35 34 34 34 34 34 33 34 34 34 33 33 33 33
33 32 32 32 32 31 30 30 30 30 30 30 30 29 28 28
28 28 27 27 27 26 25 26 25 19 16 7 2 0 29 86
89 60 29 35 57 86 115 131 137 137 123 94 105 107 117 120
90 63 52 50 45 42 66 25 12 6 20 32 34 33 34 33
33 34 34 33 34 34 34 34 34 34 34 34 34 35 35 35
35 35 36 35 35 34 35 35 34 34 34 34 34 34 34 34
34 35 34 35 34 33 33 33 35 33 33 32 32 32 32 32
13 30 35 35 34 34 33 33 33 34 34 33 34 33 32 33
33 32 32 31 31 31 31 30 32 37 35 32 30 29 28 28
28 28 28 27 27 27 27 26 23 16 12 2 0 4 70 85
49 47 86 109 117 132 137 137 131 122 94 104 121 122 116 121
131 123 119 114 116 92 46 42 6 9 8 26 33 33 32 32
32 32 33 33 34 33 33 33 33 33 33 33 34 34 34 34
34 34 35 35 34 35 34 34 34 35 34 34 33 33 33 33
33 33 33 34 33 33 33 33 33 33 33 32 31 32 32 31
13 29 35 35 34 34 34 38 43 40 39 36 34 33 32 32
33 32 32 31 31 31 31 30 36 45 42 39 37 35 31 29
29 28 28 27 29 27 26 26 20 15 8 0 0 29 85 56
69 118 127 118 112 121 125 119 113 103 96 121 134 136 127 109
117 100 71 66 99 117 104 46 18 4 7 19 32 33 33 32
32 33 33 33 33 33 34 33 34 33 34 34 34 34 35 34
34 34 35 35 34 35 34 34 34 34 34 33 33 33 33 34
34 34 33 34 33 33 33 32 32 33 33 32 32 32 32 31
16 31 35 35 35 35 34 42 47 45 43 39 39 39 37 34
34 33 32 31 31 32 31 31 37 43 41 38 39 39 36 29
28 28 28 28 28 27 25 25 17 14 7 0 0 59 73 67
119 127 102 62 48 66 100 111 104 95 108 119 136 137 122 102
97 47 36 36 42 85 115 86 33 9 6 12 30 32 32 32
33 33 33 34 32 33 33 34 33 34 34 34 34 34 34 34
34 34 35 34 35 35 35 34 34 34 34 34 34 34 34 34
35 33 33 33 34 33 34 33 33 33 33 32 33 32 32 32
17 35 38 37 37 35 34 42 47 46 41 41 43 44 45 39
40 38 36 33 32 32 32 32 36 34 35 36 39 39 38 30
29 29 28 28 27 27 27 23 17 11 2 0 9 75 66 106
126 90 65 54 37 41 61 102 96 96 117 108 131 137 113 105
77 71 60 33 35 46 86 105 56 14 2 8 28 34 34 34
33 33 34 35 34 34 34 34 35 35 34 34 34 34 35 34
34 35 35 35 35 34 35 34 34 33 34 34 34 34 33 34
35 33 34 34 34 34 33 33 32 33 33 33 33 32 32 32
17 37 40 37 38 39 38 40 27 33 39 43 46 46 45 32
28 36 38 39 38 37 37 34 34 19 16 16 19 24 30 31
29 28 28 28 28 27 26 22 16 9 0 0 29 78 75 115
106 69 90 72 50 44 58 69 91 106 124 33 88 128 54 98
87 62 76 86 83 72 56 100 77 26 9 8 19 34 33 33
33 33 34 35 33 34 34 35 35 34 34 34 34 35 34 34
35 35 34 36 34 34 35 34 34 34 34 35 34 34 34 34
34 34 34 34 34 34 34 34 34 33 34 33 33 33 31 31
17 37 41 33 33 39 43 43 3 0 10 25 30 33 40 20
0 2 7 17 22 31 37 37 34 18 6 10 9 2 11 32
30 29 29 29 29 27 24 20 12 5 0 0 48 78 89 115
71 80 110 106 76 56 53 71 97 124 83 2 83 121 53 74
109 68 80 93 105 101 67 88 88 42 12 10 14 31 34 33
34 34 34 35 34 35 34 34 34 34 34 35 35 35 35 34
34 34 35 36 36 34 35 34 34 34 34 34 34 34 34 34
35 34 35 35 34 34 34 33 33 33 32 31 31 32 33 33
17 30 38 39 39 41 47 45 4 0 2 11 14 13 29 19
0 0 0 0 0 2 5 16 35 17 1 2 4 1 9 33
30 29 28 28 28 27 25 19 10 3 0 5 63 83 99 102
63 107 121 111 89 70 75 92 106 134 47 18 115 127 75 57
126 84 87 96 102 105 91 95 95 65 13 5 12 28 34 33
34 34 34 36 34 34 35 35 35 34 35 35 36 35 35 35
34 35 36 36 35 35 34 34 35 34 35 35 35 35 34 35
35 34 35 32 32 32 33 33 33 33 34 34 34 34 33 33
14 2 4 11 22 32 42 43 6 0 1 5 7 9 27 23
0 0 0 0 0 0 0 6 35 12 0 0 2 0 9 36
30 30 30 30 29 27 24 20 9 3 0 13 69 84 100 103
90 117 124 118 97 87 91 102 111 135 54 67 126 132 101 68
129 95 95 97 103 109 109 94 98 78 17 5 11 19 33 34
35 34 35 36 35 35 35 35 35 35 35 35 35 35 35 35
35 35 36 35 36 34 35 35 35 35 35 35 35 35 35 35
34 34 34 34 34 34 34 34 34 34 34 34 35 33 33 32
13 0 0 0 0 0 3 18 8 0 0 0 0 3 23 20
0 0 0 0 0 0 0 5 35 5 0 0 0 0 10 37
31 31 30 30 29 27 23 12 10 3 0 23 73 88 101 94
102 118 121 118 105 103 106 105 106 133 101 111 124 125 112 97
118 103 99 99 103 114 115 102 94 87 37 3 6 13 32 35
35 36 35 35 34 34 35 34 35 35 35 36 36 36 35 35
36 36 36 35 36 36 36 35 35 35 35 34 36 36 35 35
35 35 35 33 34 34 34 34 33 33 33 34 35 34 34 34
13 0 0 0 0 0 0 8 7 0 0 0 0 1 25 20
0 0 0 4 7 0 0 3 34 5 0 0 0 0 9 37
31 31 30 30 30 28 18 7 9 5 0 32 81 91 99 92
104 115 120 115 116 122 129 118 96 95 101 118 121 122 113 94
92 106 115 116 115 118 120 112 95 89 61 6 2 12 27 35
35 35 35 35 35 35 35 35 35 35 35 35 35 35 35 35
35 35 35 36 36 36 36 36 36 35 35 35 35 35 36 35
34 35 35 34 35 35 35 35 34 34 35 35 35 34 34 34
13 0 0 0 0 0 0 7 6 0 0 0 0 0 27 23
0 0 0 7 13 8 2 2 33 4 0 0 0 0 6 37
31 31 30 30 29 27 9 8 7 4 2 44 86 94 97 96
111 119 121 123 127 133 134 116 93 98 109 118 117 121 122 104
92 97 120 127 123 122 122 119 105 90 74 12 1 11 16 34
35 35 35 35 35 35 36 35 35 35 35 34 36 35 34 35
35 35 35 35 35 35 35 34 34 33 33 34 34 35 35 34
35 35 35 35 35 35 35 35 35 35 35 34 34 32 31 31
14 0 0 0 7 2 0 5 5 0 0 0 0 0 25 26
0 0 0 10 13 13 10 2 32 4 0 0 0 0 4 38
31 31 32 30 29 24 3 6 4 2 3 52 85 94 96 106
119 124 127 132 135 137 125 101 95 109 110 107 105 105 111 116
107 93 105 127 130 127 125 123 114 98 79 23 0 5 7 26
35 35 35 35 35 34 34 34 35 35 35 35 36 35 34 35
35 34 35 35 35 35 35 35 34 34 34 35 35 35 35 35
35 35 35 35 35 34 34 35 36 35 32 31 31 30 29 27
13 0 5 3 3 0 0 5 5 0 0 0 0 3 25 28
0 0 0 7 12 12 10 1 32 9 0 0 0 0 3 38
31 30 30 30 29 17 1 4 2 4 8 59 86 94 100 113
123 130 132 137 138 130 107 94 104 101 98 98 101 101 97 100
103 98 96 111 129 131 128 124 117 106 85 37 0 2 6 15
34 34 34 34 34 35 34 34 35 35 35 36 35 35 35 35
35 35 35 35 35 34 35 34 33 34 34 35 35 35 35 35
36 35 33 32 31 32 33 31 30 26 23 19 16 13 11 10
13 1 6 0 1 0 0 5 6 0 0 0 0 7 29 32
1 0 1 0 4 10 9 1 32 35 27 19 14 10 14 37
30 31 30 31 29 11 1 3 1 2 6 64 88 93 104 115
126 132 133 137 131 114 94 91 88 103 106 112 110 111 111 113
107 95 92 96 117 126 131 124 119 109 93 51 0 1 5 11
30 34 34 33 34 34 35 35 35 35 35 36 34 35 35 35
34 35 34 34 35 35 35 35 34 33 34 36 34 33 33 32
34 31 27 24 21 18 15 12 11 10 10 10 11 12 12 13
12 1 0 0 0 0 0 8 25 13 8 7 1 1 24 46
32 27 22 14 7 4 5 1 32 43 41 39 40 44 46 44
31 30 30 30 27 6 0 2 0 0 6 66 89 95 107 117
126 130 133 132 123 95 96 83 101 110 109 101 84 81 90 103
112 113 95 104 97 118 126 124 118 109 97 64 1 0 2 9
25 35 34 33 34 34 35 34 35 35 35 36 35 35 34 34
33 35 33 32 33 32 34 32 32 30 32 29 27 24 20 17
15 13 12 11 11 11 12 13 14 15 15 15 16 17 16 17
12 0 0 0 0 0 0 10 49 44 37 37 35 27 37 45
19 21 25 27 28 28 29 30 43 39 39 40 41 47 49 45
30 30 30 29 24 3 0 2 1 0 7 71 90 96 107 115
124 126 130 128 111 92 97 100 109 99 84 65 55 60 66 83
102 121 116 101 99 106 122 122 116 109 100 75 7 0 0 8
20 33 33 33 34 34 35 35 35 35 34 35 34 33 32 32
32 33 32 32 30 27 26 22 20 17 15 14 13 12 12 12
14 15 16 16 15 10 18 19 20 21 21 21 22 22 11 21
14 1 0 0 0 0 0 10 52 41 44 48 51 49 45 38
14 13 13 13 13 13 14 17 22 19 23 28 34 36 36 36
31 31 30 30 23 3 0 0 1 1 12 74 92 97 107 116
122 123 130 123 104 96 92 115 128 128 113 102 106 109 109 115
127 131 124 100 100 103 118 122 113 108 100 80 16 0 0 9
12 33 35 33 33 34 35 35 34 34 34 34 32 32 34 28
24 21 19 17 15 14 14 15 15 16 16 17 18 19 20 21
21 21 22 23 22 6 22 24 25 24 21 21 25 15 21 27
16 27 25 17 9 4 1 12 44 36 45 49 52 51 41 32
15 14 14 12 11 9 9 8 7 8 10 10 24 29 26 26
29 31 30 30 26 3 0 0 4 1 18 80 93 98 105 112
120 121 127 116 110 98 104 129 137 135 117 121 116 116 117 119
128 137 133 115 100 113 115 119 114 108 100 83 28 0 0 3
8 31 35 35 34 34 32 31 29 26 23 21 18 18 31 24
11 14 15 16 17 18 19 20 21 22 22 23 25 25 25 25
26 20 20 26 27 15 17 28 28 27 16 25 25 17 29 29
17 38 48 47 43 41 37 38 37 31 42 45 49 50 43 36
19 15 12 9 9 9 9 9 8 10 10 11 26 17 19 30
30 30 29 29 25 2 0 0 8 1 29 83 92 95 102 109
114 120 124 120 117 102 120 137 138 127 123 122 117 118 117 116
122 138 137 129 110 117 119 116 112 107 98 83 42 0 0 0
6 25 29 26 24 21 19 17 16 16 16 17 18 18 25 20
14 19 22 23 24 25 26 26 26 26 27 26 27 28 28 28
29 29 24 21 29 26 9 30 30 27 14 26 16 24 26 30
17 37 49 48 47 47 48 49 28 5 11 18 25 31 31 36
21 13 10 3 3 3 9 11 11 10 13 15 28 26 24 36
35 33 16 16 24 2 0 8 10 1 41 83 92 95 100 106
112 121 123 126 121 109 129 138 137 120 120 119 120 120 121 117
114 136 136 132 119 117 124 116 113 105 99 84 56 1 1 0
3 12 18 17 17 19 19 20 21 22 23 23 24 24 28 25
18 25 27 28 29 28 29 30 30 30 30 30 30 30 30 29
30 31 30 25 22 28 9 24 31 27 14 18 21 28 27 30
16 33 44 44 45 47 48 49 22 0 0 0 0 7 15 35
20 12 8 0 0 0 2 7 4 1 8 9 26 39 34 33
35 37 31 27 26 2 1 12 9 1 54 85 90 92 100 106
111 119 123 127 123 113 126 138 136 117 119 121 124 124 120 119
115 127 136 133 125 117 127 114 111 104 98 86 65 8 3 0
1 12 24 23 24 24 26 26 27 27 27 29 28 27 24 21
21 29 30 30 31 32 32 32 33 32 32 32 31 30 31 30
30 32 32 32 24 22 21 12 30 24 16 13 30 27 28 29
22 26 29 32 34 34 38 44 18 0 0 0 0 0 9 38
18 10 8 0 0 1 0 0 0 0 0 1 23 39 28 24
23 26 30 32 23 3 1 12 7 11 68 84 92 91 97 103
112 119 124 126 122 116 125 134 128 114 117 126 130 134 130 125
120 115 126 135 125 117 123 117 112 104 96 85 70 18 4 0
1 11 29 29 28 29 30 30 30 30 31 30 30 27 8 5
18 30 32 33 33 32 32 32 32 32 33 32 32 32 31 31
30 31 31 31 31 24 20 6 13 9 11 22 29 26 29 27
18 20 19 22 31 28 34 43 17 0 0 0 0 0 2 39
13 6 0 0 0 7 4 0 0 0 0 0 20 40 28 19
31 29 27 30 22 6 3 14 4 30 76 79 91 91 96 103
111 118 123 129 121 120 124 122 121 125 124 128 136 135 127 125
122 125 117 131 126 115 120 116 111 102 97 84 75 46 7 2
2 11 32 31 31 31 32 32 32 31 31 28 27 25 8 3
13 30 33 34 33 33 32 33 32 33 33 33 32 32 31 31
30 30 31 31 32 30 23 6 0 0 17 26 28 25 28 25
19 20 23 26 31 31 38 43 16 0 0 0 0 0 3 39
4 0 0 0 0 3 11 4 0 0 0 0 21 41 28 13
25 23 24 28 22 3 8 14 5 54 82 80 88 89 93 99
110 115 121 124 113 115 115 118 122 135 132 130 132 126 125 129
126 119 122 117 118 110 118 117 110 104 97 85 76 92 58 10
1 14 33 32 33 32 32 33 32 18 6 3 11 23 5 2
13 30 33 34 33 33 32 32 32 33 33 33 32 32 32 31
31 30 31 31 31 29 29 18 0 3 25 26 22 22 26 27
19 7 3 7 13 18 26 31 15 0 0 0 0 0 5 39
4 0 0 0 0 2 13 10 7 0 0 0 19 41 29 13
18 17 21 29 22 3 9 27 78 98 87 79 84 87 94 98
105 112 119 120 111 109 108 122 129 135 128 123 126 124 124 134
130 124 124 107 106 109 116 115 107 104 95 85 78 100 73 30
2 14 34 33 34 33 33 34 33 19 13 19 24 24 2 0
11 29 32 33 33 33 32 33 32 32 32 32 32 32 31 32
31 30 29 29 30 29 30 25 0 4 27 24 19 18 25 28
22 6 0 0 0 0 0 3 13 0 0 0 0 0 5 37
3 0 0 0 2 14 16 13 11 0 0 0 19 41 32 22
19 14 20 27 17 5 14 44 89 103 94 83 81 86 91 99
105 110 118 116 106 100 99 113 116 126 119 119 119 112 117 123
126 119 113 105 102 101 113 115 107 101 95 86 86 104 82 49
8 13 35 34 34 34 34 33 34 33 32 31 31 26 5 0
11 29 32 33 32 32 32 32 32 32 31 32 31 32 32 30
31 30 29 28 29 30 30 27 1 2 28 27 20 19 28 29
22 7 0 0 0 0 0 1 11 0 0 4 2 0 3 35
2 0 0 0 1 12 20 7 2 0 0 0 16 41 34 23
11 2 13 25 13 4 30 75 96 103 102 86 81 81 90 96
102 106 112 109 98 97 95 106 107 111 110 109 114 108 108 118
111 105 102 102 94 96 109 110 106 100 92 84 88 112 101 73
20 12 35 35 33 34 34 34 34 33 32 31 30 27 11 0
15 30 33 33 32 32 32 32 31 31 31 31 31 31 30 31
31 31 29 27 28 30 30 28 2 1 26 28 20 19 28 29
22 7 0 0 3 0 0 1 11 0 1 15 9 0 4 34
1 0 0 0 0 0 13 2 0 0 0 0 12 41 34 17
6 2 9 25 16 7 60 105 101 102 114 90 82 81 89 93
96 102 104 101 91 87 89 91 99 100 99 106 110 112 114 110
104 90 92 91 86 94 102 105 103 98 90 81 93 113 102 102
31 10 33 34 34 34 33 33 33 32 32 31 29 27 18 7
22 31 33 33 33 32 32 31 31 32 32 31 31 31 31 31
31 31 30 28 28 29 30 29 4 1 26 29 19 17 28 29
20 6 0 3 15 4 0 1 14 0 6 15 12 3 4 33
1 0 0 0 0 0 13 4 0 0 0 0 9 39 30 8
5 0 10 24 24 9 86 114 103 98 118 101 82 76 85 88
90 94 93 91 88 84 78 84 94 100 100 99 114 105 107 100
97 89 87 80 83 90 99 100 94 97 87 77 98 112 114 113
48 7 32 35 33 34 33 33 33 32 32 31 29 26 23 22
26 32 32 32 33 32 32 32 31 32 32 32 31 31 30 31
31 30 30 28 28 25 27 26 5 0 17 19 12 15 26 28
18 7 0 5 16 5 1 0 30 28 31 32 29 25 22 36
1 0 0 0 0 0 12 5 0 0 0 0 5 38 26 5
4 0 16 24 27 6 91 107 109 113 113 103 83 75 80 84
83 83 81 85 81 79 75 76 89 98 105 105 109 108 105 98
94 89 82 77 81 86 91 92 92 92 85 77 103 114 113 109
63 6 33 34 34 33 33 33 33 32 32 32 30 27 26 27
31 33 32 32 33 32 32 32 32 32 32 31 32 30 31 31
31 31 30 28 27 24 18 21 5 0 20 28 23 19 26 28
17 7 0 0 2 0 0 0 33 38 43 43 42 46 49 41
7 4 4 0 0 0 15 6 0 0 0 0 3 33 25 3
0 1 8 23 29 18 95 105 113 110 109 98 82 65 74 82
80 75 78 77 74 71 72 80 88 94 99 106 115 112 104 104
101 90 86 78 80 81 88 86 91 85 79 73 91 119 118 106
85 9 32 33 33 33 33 33 33 32 32 31 31 29 28 29
32 33 33 33 33 33 32 32 32 32 31 30 29 30 31 30
30 30 30 28 27 29 29 29 9 0 19 27 22 17 23 25
20 17 6 0 0 0 0 0 33 40 42 42 42 49 53 48
30 28 27 21 18 19 22 16 13 10 9 7 11 29 28 10
8 10 3 17 30 36 97 99 107 109 115 84 65 70 75 79
78 78 74 72 74 72 72 77 89 93 100 111 116 115 110 109
104 97 92 81 87 83 86 87 92 81 74 59 48 118 110 96
100 25 33 33 34 33 33 33 33 32 32 31 31 29 30 32
32 32 32 31 32 32 32 32 32 31 31 32 31 32 31 31
31 30 30 29 28 28 29 29 11 0 17 27 23 17 23 27
20 21 5 0 0 0 0 0 32 33 37 38 38 41 41 40
34 34 34 33 31 33 32 30 27 24 22 20 22 32 36 25
23 19 14 18 29 41 91 104 108 110 89 21 33 76 68 76
78 72 73 73 71 69 78 83 89 94 103 109 120 114 115 114
105 98 91 88 87 87 86 91 88 80 73 37 18 97 110 99
90 28 33 33 34 34 34 34 33 32 32 32 31 31 31 31
32 31 32 32 32 33 32 31 32 31 30 31 31 31 31 30
30 30 30 28 28 29 29 29 14 0 16 29 23 16 24 27
24 17 1 0 0 0 0 0 35 34 35 36 36 35 31 31
35 37 38 37 35 35 35 33 33 37 35 31 31 35 43 42
42 40 37 32 30 32 76 99 104 75 18 2 36 82 70 74
80 76 70 79 78 83 82 87 96 97 107 113 117 118 114 108
103 100 91 92 93 94 96 93 86 79 74 26 0 46 108 101
57 23 34 34 33 33 33 33 33 33 33 33 32 32 34 34
33 33 33 34 33 32 32 32 32 32 31 32 31 32 31 31
30 31 31 30 29 29 30 29 15 0 14 29 25 16 23 27
21 23 21 17 13 10 7 6 37 36 35 35 35 35 35 38
39 38 41 45 44 36 34 35 37 45 44 41 39 39 34 29
29 29 30 30 31 31 54 81 49 4 2 18 79 86 76 75
81 82 75 82 78 82 86 85 95 102 108 110 112 117 117 114
109 103 99 96 98 99 100 87 88 83 77 25 0 2 55 77
21 30 33 33 33 34 34 34 34 34 34 34 34 34 34 34
33 33 33 33 33 33 33 32 32 32 32 32 32 32 31 32
31 31 31 30 28 29 31 29 17 0 13 29 25 18 24 28
22 31 45 47 43 44 47 46 49 41 38 38 38 39 42 45
44 39 42 48 47 37 33 30 37 47 45 42 42 41 37 30
25 23 23 26 31 32 21 24 5 0 5 58 97 93 84 82
83 89 88 86 86 87 88 84 99 102 108 109 115 119 117 114
107 102 99 104 101 98 97 79 92 88 87 55 1 0 2 5
7 35 35 35 34 34 34 34 34 34 34 33 35 34 35 35
34 34 33 34 34 34 33 33 34 32 32 33 33 32 33 32
32 32 31 30 29 29 31 30 19 0 11 29 25 17 23 28
23 32 53 54 53 54 54 53 53 40 33 32 31 33 39 46
46 40 41 40 39 38 35 31 31 37 33 32 37 38 37 35
30 28 29 30 32 32 23 2 0 0 20 78 94 96 93 90
91 91 90 84 92 90 92 93 98 100 109 114 116 119 122 114
107 104 101 104 104 101 96 96 101 95 91 81 13 0 0 0
11 34 34 34 34 33 34 34 33 33 33 33 34 34 34 33
33 33 33 33 32 33 33 33 33 32 32 32 32 32 31 32
31 31 32 29 29 28 31 31 21 0 10 30 27 18 22 28
24 25 36 38 39 41 43 45 47 27 6 6 3 5 8 22
46 40 26 11 15 17 17 26 32 21 4 1 5 11 18 34
32 31 35 37 39 38 28 2 0 0 14 75 90 96 97 96
95 94 93 88 94 94 98 98 103 106 113 110 118 120 120 116
111 106 108 106 102 101 102 104 103 100 96 89 20 0 0 0
15 33 33 33 34 33 33 31 31 30 29 28 30 32 33 33
33 34 33 33 33 32 33 32 32 32 31 31 32 31 31 31
30 30 31 30 29 29 30 31 23 0 7 29 28 19 22 28
23 22 28 29 28 27 27 27 30 18 0 0 0 0 0 9
43 33 7 0 0 2 7 25 34 20 0 0 0 4 15 27
13 17 20 21 28 40 32 7 0 0 0 54 85 95 97 98
100 98 97 94 92 93 96 97 104 112 113 117 123 122 123 122
116 111 112 111 106 103 104 106 107 103 100 95 28 0 0 0
14 29 31 32 33 33 24 14 13 11 10 8 18 33 34 33
33 33 33 32 32 32 32 32 32 31 31 32 32 32 31 31
31 31 31 30 29 28 29 30 24 0 7 30 29 19 20 27
23 25 36 36 36 34 33 33 34 20 3 0 0 0 2 19
43 23 0 0 0 0 0 26 35 22 0 0 0 1 13 23
0 3 4 0 6 38 34 8 0 0 0 21 78 94 99 101
102 100 98 97 94 100 99 104 106 113 119 118 120 121 128 123
111 114 113 109 106 109 108 110 111 106 102 100 49 0 0 0
5 9 23 33 33 32 23 5 5 5 6 5 15 32 34 33
33 33 33 33 33 32 32 32 32 31 32 31 31 31 31 31
31 30 31 30 28 28 30 30 26 1 5 27 26 16 18 26
22 24 36 37 37 37 37 38 38 22 2 0 0 0 1 12
40 15 0 0 0 0 0 24 34 20 0 0 0 0 10 24
1 7 10 1 3 36 35 13 0 1 0 4 66 93 99 101
103 102 98 98 96 97 103 111 112 117 121 126 123 122 130 125
118 116 118 114 107 107 108 110 111 108 104 101 72 0 0 0
3 3 17 31 32 32 21 5 6 6 6 6 13 33 34 33
33 33 32 31 31 31 31 31 31 31 31 30 30 30 31 31
30 30 29 28 27 26 28 27 24 1 3 23 25 17 19 27
27 27 33 34 35 36 37 37 39 21 0 0 0 1 5 5
38 12 0 0 0 0 0 25 33 19 0 0 0 0 6 26
1 2 3 0 2 36 35 17 0 0 0 0 55 91 98 103
105 104 104 103 99 100 106 108 116 119 120 124 122 133 138 134
129 116 121 118 110 109 110 114 114 110 106 103 88 6 0 0
2 2 15 31 32 31 20 6 6 6 5 5 11 31 33 33
33 33 32 32 32 31 31 31 30 29 28 29 28 30 30 30
29 29 29 29 27 27 27 28 26 2 2 25 27 18 17 25
33 33 32 33 33 33 33 27 38 30 3 0 0 0 3 2
36 10 0 0 0 0 0 24 33 18 0 0 0 0 1 28
2 4 6 1 2 35 35 21 9 0 0 0 36 91 98 102
105 106 106 106 103 101 107 108 120 122 121 134 130 138 135 135
132 122 118 119 117 113 115 118 115 114 108 104 94 16 0 1
2 1 14 30 31 31 20 5 4 6 5 5 8 29 33 32
31 30 31 31 29 29 30 30 30 30 30 30 30 30 29 29
29 29 28 28 26 26 27 27 25 3 0 23 25 18 16 24
33 33 33 33 33 32 32 27 36 34 6 0 0 1 5 2
35 9 0 0 0 0 0 19 34 21 2 0 0 0 1 29
4 0 1 0 2 33 34 24 16 0 0 0 24 88 98 102
107 109 110 106 103 105 107 110 117 125 134 138 139 140 140 139
139 134 119 118 117 115 119 118 118 116 112 105 96 24 0 1
1 1 14 30 30 30 23 9 9 9 11 11 12 25 30 31
31 31 30 25 30 54 19 22 30 29 29 29 29 28 28 27
28 28 28 27 26 25 27 26 25 4 0 20 25 18 15 23
32 31 31 31 31 31 31 28 35 31 0 0 0 0 0 2
35 10 0 0 0 0 0 15 34 20 0 0 0 0 0 29
8 0 0 0 1 31 33 26 23 2 0 0 16 86 96 100
106 110 113 111 109 105 104 114 122 129 133 139 140 141 141 140
138 136 131 125 123 121 121 120 120 121 116 107 96 28 0 2
2 1 12 29 30 31 24 10 10 9 8 9 11 24 31 32
32 31 23 0 0 39 0 4 30 29 29 29 28 28 28 29
28 28 28 28 26 25 26 27 26 6 0 19 26 19 15 23
8 8 9 9 12 25 30 30 33 27 0 0 0 0 0 0
32 13 0 0 0 0 0 13 35 19 0 0 0 0 0 28
11 0 0 0 2 29 31 26 28 8 0 0 7 81 94 101
108 112 115 115 110 104 107 116 123 137 138 140 140 141 141 140
140 138 133 127 123 123 125 124 123 122 117 107 96 29 0 2
1 0 11 28 30 29 25 6 6 6 6 5 7 24 31 31
30 30 22 0 0 14 0 4 29 29 28 29 28 29 28 29
28 28 27 27 25 25 26 27 27 8 0 18 26 20 15 24
0 0 0 0 2 28 33 30 30 27 1 1 0 1 8 2
30 22 6 5 8 7 7 18 38 26 25 23 22 25 28 40
18 4 2 2 5 29 29 25 28 18 1 0 1 70 93 101
109 113 116 114 107 106 108 117 125 138 140 141 141 141 141 140
140 139 135 128 123 125 124 124 123 122 118 109 98 34 1 2
2 1 10 28 30 30 24 7 5 6 6 5 6 25 32 32
31 31 24 0 0 0 0 2 28 30 29 29 29 29 29 29
28 28 28 28 26 25 27 26 26 9 0 17 26 21 15 23
0 0 0 0 1 30 33 30 28 37 32 27 25 28 32 29
32 38 44 40 40 42 42 44 43 27 36 39 41 45 50 51
36 27 27 26 26 31 29 25 29 25 3 0 0 54 89 98
107 111 115 116 113 109 108 114 125 137 141 140 141 139 140 139
139 139 135 129 124 124 122 124 126 125 119 108 96 32 2 2
2 0 10 28 30 30 26 7 5 5 5 5 6 24 31 31
30 30 24 0 0 0 0 1 29 30 31 30 30 29 29 28
28 29 27 27 26 25 27 26 27 10 0 15 27 21 15 22
0 0 0 0 0 27 34 30 26 40 42 36 37 39 35 29
27 34 49 47 45 45 48 49 46 29 31 37 40 46 49 49
38 28 29 28 28 28 28 26 27 26 9 0 0 35 87 96
105 111 113 116 112 107 107 112 124 135 141 141 140 141 140 140
140 138 133 127 122 123 124 127 129 125 119 108 92 27 2 2
3 1 9 28 30 31 26 7 5 4 4 5 6 24 30 17
12 9 6 0 0 0 0 0 28 30 30 29 29 29 28 29
29 28 28 28 26 25 26 26 26 12 0 13 27 22 14 22
0 0 0 0 0 26 35 30 27 41 37 32 34 38 37 30
24 26 33 35 35 35 35 34 36 28 25 30 33 33 29 29
30 29 30 30 30 28 29 28 27 28 20 0 0 17 81 93
105 112 117 119 115 108 106 111 120 131 141 141 141 141 141 141
140 138 136 130 124 124 125 131 134 129 120 108 87 10 3 3
3 0 9 28 31 32 26 7 5 5 5 6 6 25 24 1
0 0 0 0 0 0 0 0 28 31 30 30 29 30 28 28
28 27 28 28 26 25 26 27 27 14 0 12 28 23 14 20
0 0 0 0 0 23 35 29 26 39 24 27 27 30 35 30
25 24 20 22 22 23 23 23 27 28 29 32 33 32 29 26
29 30 30 30 30 29 29 28 30 30 29 7 0 4 72 89
103 112 116 118 115 110 107 114 121 129 135 141 141 141 141 140
139 138 135 128 125 124 126 132 135 130 119 106 71 3 3 3
4 1 9 28 31 31 27 7 4 5 5 5 6 23 29 4
0 0 0 0 0 0 0 0 26 30 29 29 29 29 29 29
29 28 28 28 27 25 27 26 27 15 0 10 27 23 15 20
0 0 0 0 0 20 36 29 28 39 11 6 9 11 15 14
16 25 25 29 29 35 36 32 33 35 36 40 42 40 32 28
28 30 30 30 30 30 30 29 29 32 34 26 5 0 57 84
98 109 115 117 116 111 107 111 118 123 131 141 141 141 141 138
136 133 131 131 129 125 128 135 136 129 117 104 74 2 3 3
4 0 7 28 30 32 27 8 3 5 5 4 4 23 32 19
0 0 0 0 0 0 0 0 27 31 30 30 29 29 28 29
28 28 28 28 27 25 28 27 28 18 0 8 25 23 14 19
0 0 0 0 0 16 35 28 31 42 8 0 0 0 0 2
13 27 32 42 37 46 50 24 18 20 21 25 33 43 34 30
29 30 30 30 30 30 29 28 29 31 33 34 18 1 47 79
91 104 113 118 118 113 109 111 115 118 121 135 141 141 141 134
132 129 134 134 131 127 129 136 135 129 116 100 94 3 3 2
3 1 7 28 31 32 28 13 11 11 7 9 11 23 31 28
8 1 0 0 0 0 0 0 6 23 30 30 29 29 29 29
28 29 29 29 27 26 27 30 29 20 0 7 26 23 16 19
0 0 0 0 0 14 35 29 32 45 11 0 0 0 0 0
15 27 29 41 27 30 39 9 0 0 0 0 15 43 35 30
30 29 31 30 30 30 30 30 29 30 33 35 27 10 75 77
82 101 112 120 119 116 111 113 116 116 115 125 140 141 138 127
129 133 135 136 132 125 131 138 136 127 113 114 100 5 3 2
2 1 6 28 30 32 30 28 29 29 24 29 29 30 23 15
8 0 0 0 0 0 0 0 0 19 31 31 30 30 30 29
29 28 28 29 28 26 26 28 27 20 0 4 22 20 15 19
0 0 0 0 0 11 35 29 31 43 15 0 0 0 0 0
13 27 27 39 10 1 22 10 0 0 0 0 10 40 36 31
31 30 30 30 30 29 29 29 29 30 32 33 29 19 100 80
95 106 115 122 124 120 116 115 116 116 115 118 136 141 134 124
128 132 136 138 135 131 137 138 135 126 119 131 100 7 1 1
1 1 4 20 26 31 31 32 31 32 32 32 32 28 6 0
6 15 0 0 0 0 0 0 0 17 30 29 29 30 29 29
29 29 29 29 29 27 26 27 27 21 0 2 19 18 14 18
0 0 0 0 0 9 35 29 26 18 2 0 0 0 0 0
16 26 27 38 11 0 20 12 0 0 0 0 5 37 36 29
30 30 29 29 29 29 29 28 29 30 32 32 26 14 105 81
98 106 115 122 125 124 122 121 121 122 119 117 128 141 128 127
134 138 139 139 136 133 139 138 134 125 135 123 104 7 0 0
0 0 0 0 0 1 7 13 19 23 24 23 21 6 0 0
4 10 0 0 0 0 0 0 0 16 31 29 30 30 30 29
29 29 30 29 29 27 26 27 27 21 0 1 16 17 14 17
0 0 0 0 0 6 33 28 25 12 0 0 0 0 0 0
16 25 27 39 11 0 17 15 0 0 0 0 2 36 36 30
30 30 30 29 29 28 28 28 28 29 30 31 15 10 111 104
103 109 118 123 124 126 123 123 123 123 125 123 119 132 125 134
138 139 139 139 138 138 139 138 134 136 130 124 101 5 0 0
0 0 0 0 0 0 0 2 2 1 2 3 1 0 0 0
0 0 0 0 0 0 0 0 0 11 26 30 30 30 30 30
30 30 30 31 30 27 26 27 26 20 0 0 15 16 14 17
0 0 0 0 0 5 33 29 25 14 0 0 0 0 0 0
14 25 26 38 10 0 16 15 0 0 0 0 2 35 36 29
29 29 29 29 29 29 28 28 23 16 9 4 5 10 99 130
108 113 118 123 125 128 125 124 126 125 126 129 128 127 132 138
140 140 140 139 139 139 139 135 139 136 129 126 95 8 1 0
0 0 0 0 0 2 4 4 3 2 5 4 3 3 3 2
0 0 0 0 0 0 0 0 0 0 3 12 10 12 31 31
30 31 31 32 31 28 26 26 24 20 1 0 15 17 15 17
0 0 0 0 0 4 33 29 25 14 0 0 0 0 0 0
11 27 27 39 14 0 14 18 1 0 0 0 1 32 35 29
29 29 29 29 27 19 10 3 0 0 0 4 4 8 86 128
132 116 122 124 127 130 128 125 127 130 131 134 135 135 138 140
140 141 140 141 140 138 138 138 137 131 131 129 94 5 2 1
0 0 0 0 0 4 6 5 4 4 6 6 7 6 5 4
4 3 2 2 4 4 4 4 4 3 2 1 1 6 32 33
33 33 34 35 34 32 30 29 27 23 2 0 19 23 21 24
0 0 0 0 0 3 32 30 25 17 0 2 0 0 6 3
9 29 27 40 22 5 12 18 2 4 3 0 1 31 35 29
29 25 18 11 4 2 2 0 0 0 1 5 5 6 78 119
130 134 121 126 129 132 132 130 132 131 135 138 140 140 141 141
140 140 140 140 138 138 139 139 138 134 132 127 91 4 2 3
1 0 0 0 0 3 7 4 3 5 5 5 6 6 6 5
5 5 6 4 6 8 10 9 7 6 5 3 5 13 45 47
47 47 48 48 47 45 40 38 36 32 4 0 20 11 8 7
0 0 0 0 0 2 31 29 24 19 0 3 0 0 10 13
10 33 29 40 22 16 12 16 1 9 6 0 0 26 30 16
9 7 7 8 10 10 4 0 0 0 4 5 4 6 69 120
124 134 138 127 134 135 134 133 133 134 139 140 141 140 140 141
141 140 140 140 140 141 140 137 135 135 129 132 91 5 5 5
1 0 0 0 0 3 5 4 4 3 3 4 6 6 7 6
4 6 6 5 5 4 5 4 5 31 35 39 43 46 49 50
50 50 50 50 49 46 41 37 37 34 6 0 21 0 0 0
0 0 0 0 0 2 31 29 24 25 24 28 28 28 32 34
34 39 29 39 15 21 13 22 13 16 14 12 9 12 7 6
8 7 7 8 11 8 0 0 0 3 3 4 4 6 55 124
123 127 137 139 129 135 136 134 134 136 140 141 142 142 141 141
141 140 138 141 140 139 138 137 137 130 130 133 88 6 8 7
1 1 2 5 4 3 4 5 3 4 2 3 4 5 5 8
7 5 6 7 7 5 5 5 5 15 33 46 46 46 46 47
48 47 47 44 45 42 37 35 34 33 8 0 15 0 0 0
0 0 0 0 0 1 30 29 24 26 42 44 46 46 46 46
48 47 34 40 9 12 14 27 23 23 19 10 5 5 5 6
7 5 4 4 5 7 0 0 4 3 3 3 5 11 54 122
121 124 132 140 142 132 136 137 135 138 141 141 141 141 141 141
140 139 141 141 140 141 140 137 132 129 131 127 87 10 11 9
2 1 3 4 4 3 3 5 3 5 2 1 3 3 5 8
7 5 6 7 8 6 6 5 6 5 4 9 21 35 40 40
43 38 37 28 34 32 26 29 35 34 9 0 9 0 0 0
0 0 0 0 0 1 29 29 24 22 41 44 44 43 43 43
42 42 35 37 8 2 8 26 16 8 6 6 6 5 6 7
6 5 5 3 3 4 3 8 7 5 4 4 6 8 46 123
124 123 126 135 141 142 134 132 138 139 141 141 142 141 141 140
141 142 140 141 140 139 138 133 132 127 129 132 88 10 8 8
6 4 4 4 4 4 3 4 3 3 5 3 3 3 5 6
7 8 6 8 7 7 6 6 4 4 4 5 6 5 12 21
36 27 26 23 21 23 21 29 33 34 11 0 4 0 0 0
0 0 0 0 0 1 29 28 23 18 18 19 18 18 18 17
17 15 20 37 9 1 6 8 6 5 6 5 5 5 7 6
5 4 5 6 7 6 11 11 8 6 6 5 4 10 28 117
120 123 125 132 140 142 143 137 132 141 141 141 141 141 139 141
142 141 141 140 141 138 136 135 132 126 132 132 72 11 11 9
6 5 5 4 5 5 5 7 3 3 2 5 3 3 6 7
7 8 7 6 8 8 6 6 5 5 6 4 6 4 4 3
6 15 21 29 31 31 28 28 33 34 12 0 1 0 0 0
0 0 0 0 0 0 28 28 22 19 14 13 13 13 14 14
14 13 18 33 9 4 4 3 5 6 5 6 6 6 8 5
6 7 5 8 9 12 14 12 9 7 6 4 5 12 16 94
123 122 123 127 137 141 142 142 139 133 138 140 135 136 142 142
142 142 141 142 140 139 135 133 128 126 129 130 48 13 10 10
8 6 6 5 5 4 6 5 4 1 3 3 3 4 5 6
6 7 8 7 8 8 10 6 7 6 6 6 3 5 4 4
3 2 3 6 21 31 30 29 30 32 13 0 0 0 0 0
0 0 0 0 0 1 27 28 23 22 20 18 17 16 15 15
15 12 9 6 4 6 4 5 6 5 6 6 6 7 6 5
5 5 6 10 11 11 12 12 11 8 6 6 6 9 14 50
119 124 122 126 138 141 142 142 143 141 131 129 118 140 142 142
141 141 140 140 140 137 133 129 127 127 132 131 39 14 12 11
9 9 7 6 6 6 5 6 7 6 2 2 4 4 3 5
6 7 8 7 6 7 8 6 5 4 6 6 5 6 6 5
2 3 3 3 3 11 24 29 31 30 14 0 0 0 0 0
0 0 0 0 0 3 30 29 23 22 21 20 20 19 20 18
11 4 3 4 5 4 4 6 5 7 6 8 9 6 5 6
7 7 13 13 12 11 10 10 11 9 9 5 7 13 17 17
111 122 122 125 137 142 143 142 142 109 122 138 115 123 142 142
141 141 141 139 136 137 131 127 130 133 135 130 51 14 14 15
13 11 11 11 11 11 11 11 10 6 4 2 3 5 4 5
8 8 10 8 7 7 8 10 6 6 5 5 6 4 6 6
5 5 3 4 4 2 6 17 21 20 13 0 0 0 0 0
14 15 17 17 18 21 26 25 23 22 21 20 20 19 12 4
2 2 3 5 4 5 5 6 6 6 6 8 8 6 5 6
7 11 11 13 12 13 14 13 14 14 12 9 7 10 14 11
100 124 123 125 132 139 140 141 130 78 134 129 108 107 137 142
142 141 141 136 137 134 130 130 132 135 137 136 56 12 9 9
8 6 7 6 7 7 7 5 5 5 6 4 3 5 6 6
8 9 9 11 9 5 8 8 6 6 5 5 8 6 5 6
6 5 4 5 4 5 9 7 18 21 16 0 0 0 0 0
25 24 24 24 23 23 23 23 22 22 21 20 13 4 2 2
3 1 4 4 4 4 6 6 7 7 6 7 7 5 6 5
9 10 10 10 12 12 12 10 10 13 13 9 9 13 16 23
97 130 124 124 136 139 141 138 93 111 140 141 121 116 132 140
142 142 140 136 137 132 133 132 136 137 137 135 60 12 11 10
9 7 8 7 7 6 6 8 5 5 6 6 4 3 9 6
9 9 9 9 9 7 8 9 11 8 5 6 5 7 5 7
7 6 5 3 5 3 6 4 23 28 19 0 0 0 0 0
25 24 24 24 23 22 23 23 22 21 14 4 0 2 2 1
2 4 5 4 5 5 7 7 8 9 9 9 9 7 6 11
14 14 11 11 10 11 11 10 13 12 12 10 9 14 16 63
107 129 127 124 127 138 142 122 83 117 136 136 119 94 126 129
141 140 138 132 137 134 135 137 135 138 137 130 41 11 12 10
8 8 6 5 6 6 6 6 8 7 6 6 6 4 7 7
8 7 9 10 9 8 7 7 12 6 7 6 6 8 7 5
6 5 5 3 5 1 4 2 19 31 22 0 0 0 0 0
24 22 21 21 20 19 18 18 15 4 1 1 0 2 2 2
2 5 5 4 5 7 6 7 7 6 10 9 8 7 7 11
11 11 13 12 12 11 12 12 13 11 12 11 11 12 18 89
129 133 128 124 126 134 137 78 104 131 139 138 122 102 118 122
141 141 137 135 134 137 136 136 137 138 136 123 49 13 9 10
8 7 7 8 8 8 10 8 6 5 5 6 5 4 4 7
7 8 9 10 10 10 8 7 10 8 7 5 6 6 7 6
8 7 6 6 4 1 4 1 12 30 25 0 0 0 0 0
5 2 2 7 13 15 14 7 1 1 1 1 0 3 2 3
3 5 5 6 5 8 6 7 6 6 9 8 6 6 11 12
10 10 11 10 9 9 10 10 11 14 14 14 14 14 19 93
140 131 129 125 126 136 130 39 96 139 141 137 120 118 114 109
129 141 136 135 137 136 137 137 138 138 138 126 46 11 10 12
11 10 10 7 7 6 5 5 5 6 5 6 7 10 8 4
7 7 9 9 10 10 9 8 8 10 5 6 7 7 8 6
7 6 7 5 4 2 4 0 7 30 26 0 0 0 0 0
8 0 0 5 14 17 5 3 1 2 2 2 2 4 5 4
6 6 5 6 6 9 6 6 7 10 8 4 3 11 11 9
10 9 10 11 12 11 10 12 11 13 12 12 14 16 18 96
142 136 132 127 126 136 92 27 98 141 141 140 125 108 115 116
117 139 138 136 138 138 137 138 138 137 130 118 43 12 11 10
10 9 9 7 6 7 5 7 5 7 8 9 10 9 8 7
3 8 8 10 9 10 10 7 7 11 9 5 7 6 8 5
7 5 7 4 1 3 5 0 3 30 27 0 0 0 0 0
33 4 0 4 12 13 1 1 2 2 2 4 6 5 5 4
8 5 4 5 7 6 8 8 8 11 8 2 8 11 14 14
12 12 10 10 10 10 12 11 11 10 12 12 15 16 20 100
141 138 139 132 127 134 79 32 95 141 143 143 133 116 105 115
98 125 138 134 138 134 137 136 136 136 117 126 38 14 12 13
10 11 11 9 8 6 7 9 10 11 9 9 9 7 8 9
5 3 8 9 11 9 9 8 7 10 9 6 7 7 7 7
6 7 8 6 2 4 5 0 1 28 29 0 0 0 0 0
48 22 11 12 11 7 1 2 4 2 3 3 5 4 5 4
10 5 5 7 9 6 6 8 9 10 4 5 11 11 11 11
10 13 13 12 13 11 12 11 10 11 13 14 14 15 19 94
136 137 137 134 130 129 88 49 106 136 141 143 141 127 110 115
92 102 139 139 138 136 139 135 136 129 116 116 37 12 12 13
11 9 9 10 11 10 11 10 11 8 8 7 8 8 7 8
7 3 4 7 9 8 10 10 7 9 9 7 5 6 6 7
4 6 7 8 0 3 4 0 0 29 32 2 0 0 0 0
50 33 17 17 13 4 1 1 5 4 3 5 5 5 4 6
7 4 5 9 8 6 5 5 8 5 1 9 9 10 12 10
11 10 12 12 13 14 14 14 13 12 14 13 14 17 17 101
139 136 138 135 133 119 91 67 123 136 138 142 142 139 124 117
91 105 135 140 139 138 137 134 136 125 123 104 36 12 13 12
12 11 9 12 13 13 12 10 8 8 8 9 8 10 10 10
11 5 2 8 9 9 10 9 7 9 8 7 6 6 5 8
5 6 7 6 0 4 4 0 0 26 32 1 0 0 0 0
32 24 18 17 15 1 1 1 2 4 4 8 4 7 5 8
7 5 7 8 6 6 5 6 7 0 7 10 9 8 10 9
9 11 11 10 12 11 10 11 14 13 13 13 13 17 20 101
133 137 140 140 126 103 104 99 135 139 136 140 141 141 135 121
87 111 127 139 138 140 137 140 135 121 130 101 44 11 14 13
11 10 10 11 10 12 12 9 8 7 8 9 10 9 10 14
8 0 4 5 8 8 11 9 7 8 8 8 7 4 7 7
5 5 7 3 0 3 5 0 0 27 32 2 0 0 0 0
26 17 8 8 6 0 1 2 2 4 5 8 4 6 6 9
6 5 6 8 7 7 7 7 3 0 4 10 13 12 10 9
9 10 10 9 11 11 8 9 13 14 11 12 12 15 20 100
136 139 137 135 109 99 116 131 138 139 135 139 142 142 141 128
93 118 126 132 139 140 137 138 122 118 126 129 53 11 14 11
12 11 11 14 10 10 12 9 9 9 9 11 11 11 11 9
2 1 5 5 10 8 9 9 8 7 7 10 6 6 7 7
5 4 6 1 1 5 2 0 0 19 30 2 0 0 0 0
27 17 8 8 5 0 2 4 0 4 6 7 5 5 5 8
5 5 6 9 7 7 8 9 6 0 0 6 9 12 12 12
12 10 9 9 10 9 9 11 11 13 12 12 11 14 17 90
139 138 135 130 97 106 129 135 135 135 133 141 142 142 141 135
97 118 125 130 140 142 138 134 118 129 134 135 50 9 12 11
11 9 10 11 10 10 8 10 10 13 13 11 10 10 9 5
0 4 7 6 8 6 8 9 8 7 7 9 6 6 5 5
6 4 5 0 1 3 1 0 0 14 28 1 0 0 0 0
27 18 8 7 2 0 2 4 0 4 7 8 5 5 6 7
5 7 7 8 6 5 6 8 6 2 0 1 8 10 10 10
11 12 12 11 11 11 10 11 10 13 11 11 11 14 18 67
140 140 135 115 99 125 140 130 129 129 138 142 142 142 142 138
116 123 124 126 136 141 134 134 126 126 137 129 47 12 13 12
12 11 12 12 9 11 9 9 13 9 9 10 8 10 9 0
1 7 7 5 5 5 8 10 9 6 7 9 9 8 4 6
5 2 2 0 3 3 0 0 0 6 24 0 0 0 0 0
27 18 8 9 1 0 2 4 0 2 7 7 5 4 7 8
6 5 7 5 7 6 5 8 6 5 0 0 1 8 9 10
8 10 9 9 12 11 10 11 10 15 10 12 10 12 15 37
137 140 132 102 131 139 141 128 128 133 141 142 142 142 141 139
131 138 128 124 135 139 136 122 137 129 134 122 39 13 14 10
10 11 11 11 12 13 9 11 10 11 12 8 8 7 0 0
6 8 9 4 5 5 8 8 8 7 6 7 9 5 5 3
3 3 0 0 3 1 0 0 0 1 20 0 0 0 0 0
