P2
128 120
156
40 39 38 38 37 36 35 35 34 34 32 31 31 31 30 29
29 28 27 26 26 25 25 24 23 23 23 22 21 21 20 19
19 19 18 6 0 0 0 0 0 0 0 0 0 0 0 4
9 5 1 0 0 0 0 0 0 0 0 0 0 0 1 0
0 0 0 0 0 0 0 0 0 0 0 0 0 0 0 0
0 2 5 10 14 17 17 17 18 19 19 20 20 20 21 22
22 23 23 24 24 25 26 26 26 27 28 29 29 30 31 30
30 31 33 33 34 35 35 36 36 36 36 38 37 38 39 38
39 38 38 37 37 36 35 35 34 34 33 32 31 30 30 29
28 28 27 26 26 25 25 24 24 23 22 22 22 21 20 19
19 19 18 15 4 0 0 0 0 0 0 1 5 4 0 12
16 13 11 7 2 0 0 0 0 0 0 0 0 0 2 0
0 0 0 0 0 0 0 0 0 0 0 0 0 1 4 8
13 16 17 17 18 18 19 20 20 20 21 21 21 22 23 24
25 25 25 26 27 28 28 29 29 30 31 31 31 31 32 33
34 34 34 36 36 37 36 36 37 38 37 38 38 38 40 39
40 40 39 38 38 37 36 35 35 34 33 32 32 31 31 30
29 29 28 27 27 26 26 25 24 24 23 22 22 22 21 20
20 20 19 19 13 9 4 0 0 2 7 11 14 10 3 14
18 15 13 13 12 8 3 0 0 0 0 0 0 0 0 0
0 0 0 0 0 0 0 0 0 0 1 5 11 15 17 17
18 19 20 20 21 21 21 22 22 24 23 23 24 25 26 26
27 28 29 29 30 31 31 31 31 32 33 34 34 35 35 35
36 37 37 37 38 38 38 39 39 39 38 39 39 39 39 40
40 40 39 38 38 38 37 36 35 34 33 33 32 31 32 31
29 29 28 28 26 27 26 26 25 24 24 23 22 22 22 21
21 20 20 19 16 12 10 9 8 11 14 16 18 14 4 15
19 17 15 15 14 13 11 8 3 0 0 0 0 0 0 0
0 0 0 0 0 0 1 4 9 13 16 17 18 19 20 20
20 21 21 22 22 23 23 24 24 25 25 25 27 27 28 28
29 30 30 30 30 31 32 32 34 33 35 35 36 37 36 37
37 38 38 38 39 39 39 39 40 39 39 39 39 40 40 40
41 40 40 38 38 37 36 35 35 34 34 33 32 32 31 31
30 30 30 29 28 27 27 26 26 24 25 23 23 22 22 22
22 21 21 20 18 15 12 11 13 15 18 18 19 15 7 14
21 21 19 16 15 15 14 11 9 6 4 0 0 0 0 2
0 0 0 1 7 11 15 17 18 18 18 19 20 20 21 21
22 23 24 24 24 25 25 26 27 26 27 28 29 29 30 30
31 31 31 33 34 34 34 35 36 36 35 36 37 37 37 37
38 39 38 39 40 40 39 39 39 40 40 40 40 40 41 40
41 40 40 39 38 38 37 36 36 35 34 34 33 32 32 31
31 30 30 28 28 27 27 27 26 26 25 25 24 24 23 23
23 22 21 21 19 17 15 13 14 17 19 20 20 18 11 17
25 23 20 19 18 16 15 14 10 10 7 7 7 11 13 14
4 5 12 15 18 18 18 19 20 20 21 22 22 23 23 24
23 25 24 25 25 26 27 27 28 28 29 29 29 30 31 32
32 33 34 35 35 35 35 36 36 37 37 37 38 38 38 38
38 38 39 39 39 40 39 39 39 39 39 40 41 40 40 40
41 40 39 39 38 38 37 37 36 35 34 34 33 33 32 31
32 30 30 29 28 28 28 26 26 25 25 24 24 23 23 23
22 21 21 21 20 18 17 15 15 18 20 21 23 20 15 19
27 23 21 20 20 19 17 14 12 11 10 10 14 16 14 15
13 16 18 19 20 21 21 21 22 22 23 23 23 23 24 24
25 26 26 26 27 28 28 28 28 29 29 29 31 32 32 33
33 33 34 35 36 36 36 37 38 38 37 38 38 37 38 38
38 39 38 39 39 39 39 39 39 39 40 40 39 39 39 39
40 40 39 39 38 37 37 36 36 35 35 34 33 33 32 32
31 30 30 29 28 28 28 27 27 26 26 25 24 24 23 23
22 22 22 21 20 19 18 16 17 20 22 24 25 22 15 19
28 25 22 21 20 19 19 18 14 14 12 10 13 17 16 15
17 19 20 21 21 22 22 22 22 24 23 24 24 25 25 26
26 27 27 28 28 28 28 28 29 30 31 32 32 33 34 34
35 35 35 35 35 36 36 36 37 38 38 37 38 38 39 39
39 39 39 39 40 39 39 39 38 38 39 39 40 39 40 40
40 39 40 39 38 37 37 36 35 35 34 34 33 32 32 32
31 30 30 29 28 28 28 27 27 26 26 25 25 24 24 23
23 23 22 22 22 20 19 18 18 21 24 25 26 22 14 17
28 25 23 22 21 20 19 18 16 17 16 11 11 17 15 16
18 20 21 22 23 24 24 24 24 24 24 25 25 25 26 26
26 26 27 27 28 29 29 29 31 32 32 33 33 34 34 34
35 35 36 36 36 37 37 37 37 38 37 38 37 38 38 38
38 37 39 38 39 38 39 39 39 39 40 40 40 38 37 38
41 40 40 39 38 37 37 36 36 35 35 34 33 33 33 32
31 30 29 29 28 28 28 27 27 27 26 25 25 25 25 24
24 23 22 22 22 20 20 18 18 23 26 27 27 23 16 16
29 25 24 23 22 20 19 18 16 18 17 13 11 18 16 18
20 22 22 23 23 24 25 24 25 25 26 26 26 26 26 26
27 28 27 28 29 29 30 30 31 33 32 33 34 34 34 35
35 35 36 35 36 37 37 37 37 38 36 38 38 39 39 38
39 38 39 39 39 39 39 38 37 37 37 37 38 39 39 39
40 39 39 39 38 37 37 36 36 35 34 34 33 33 32 31
31 31 30 29 29 29 28 28 27 26 26 25 25 24 24 24
24 23 23 23 23 22 21 21 21 24 27 28 28 24 17 15
29 26 24 23 23 22 21 18 18 19 18 14 11 18 17 20
22 23 24 24 24 25 25 25 25 26 26 26 26 27 27 28
28 28 29 29 30 30 31 31 32 33 32 33 33 33 34 34
34 35 35 35 36 36 37 36 37 39 37 38 38 38 39 38
38 38 39 39 38 37 37 38 39 39 39 39 39 39 39 39
40 39 39 38 38 37 37 36 35 35 34 34 33 33 32 32
31 31 30 30 29 29 29 28 28 27 26 26 25 25 25 25
24 23 23 22 22 22 22 22 22 26 28 29 29 25 17 15
29 27 25 24 24 22 21 20 20 19 19 17 13 18 19 22
24 24 25 25 25 26 25 25 26 26 27 27 27 28 28 29
29 30 29 30 31 31 32 32 33 34 33 33 34 34 35 35
35 35 36 37 36 37 37 37 37 39 37 37 38 38 38 38
37 37 39 39 39 39 39 39 39 39 38 39 39 39 39 39
40 39 39 38 38 37 36 36 35 35 35 34 33 32 32 32
31 31 30 29 29 29 29 28 28 27 27 26 26 26 24 25
24 24 24 24 23 22 23 22 24 26 29 29 30 26 19 15
29 27 25 24 23 23 23 20 21 20 19 18 14 19 20 23
24 25 25 25 25 26 26 27 27 27 28 27 28 28 29 29
29 29 30 29 30 31 32 32 32 34 33 34 34 34 35 35
35 36 36 36 37 37 36 37 38 39 37 37 36 36 37 38
38 38 37 39 39 38 39 39 39 39 39 38 39 39 38 39
40 39 39 38 38 37 37 36 36 35 35 34 34 33 33 32
32 31 31 30 29 29 29 28 28 27 27 27 26 26 25 25
25 24 24 24 24 23 23 23 24 27 30 30 30 26 20 16
29 29 25 25 24 23 23 23 22 21 21 20 15 19 21 24
25 25 26 26 27 28 28 27 28 27 28 28 29 29 29 30
30 31 31 31 31 32 32 32 33 34 33 34 35 35 35 35
36 36 36 37 38 37 36 36 36 36 37 38 39 38 38 38
38 39 38 39 39 38 39 39 39 38 38 38 38 39 38 38
40 39 39 38 38 38 37 36 36 36 35 35 34 34 33 33
32 31 31 31 30 30 29 29 28 27 27 27 26 26 25 25
24 25 24 24 24 24 23 24 25 28 30 31 30 27 20 16
28 28 26 25 25 24 24 22 23 22 22 20 18 21 22 25
26 26 27 27 27 27 28 28 28 29 29 29 30 29 29 30
30 31 31 31 31 32 33 33 33 34 34 34 35 35 36 36
35 33 35 35 35 36 37 38 38 37 37 39 39 38 38 38
38 39 38 39 39 39 39 39 39 39 38 39 39 39 38 38
40 39 39 38 37 37 37 36 35 35 35 34 34 33 34 33
33 32 32 31 30 30 29 29 28 28 27 27 27 26 26 26
25 25 24 24 24 24 24 24 26 28 30 30 31 28 22 18
28 29 26 25 26 25 24 24 24 22 22 21 20 22 24 26
27 27 28 28 28 28 28 29 29 28 29 29 29 30 30 31
31 31 31 31 32 32 33 33 33 35 34 34 35 35 35 34
36 36 36 37 38 37 38 37 37 38 38 38 38 38 38 38
39 38 38 39 39 39 39 39 39 39 39 39 38 38 39 38
39 39 39 39 38 37 37 37 36 36 36 34 34 34 33 32
32 32 32 30 31 30 30 29 29 28 28 28 28 27 26 26
26 26 25 25 24 24 25 25 26 29 31 31 31 28 22 16
24 29 25 25 26 26 25 25 25 24 24 23 20 23 25 27
27 27 28 28 28 29 29 29 28 29 30 30 30 30 31 31
31 31 31 31 32 32 33 33 34 34 33 33 33 35 36 36
36 38 37 37 37 37 38 37 37 37 37 39 38 38 39 38
38 38 38 39 39 39 39 39 39 39 39 39 39 38 38 38
40 40 39 39 38 37 37 36 37 36 35 35 35 35 34 34
33 33 32 32 31 30 30 30 28 29 28 28 28 27 27 27
27 26 26 26 26 26 25 25 27 30 32 32 32 29 24 13
20 29 27 27 27 26 26 26 25 24 24 23 21 25 26 28
28 29 29 29 29 29 29 30 30 30 31 30 31 31 31 32
32 32 32 33 33 32 32 32 32 33 34 35 36 36 36 36
37 39 38 38 38 38 39 38 38 38 38 38 38 38 38 38
38 38 39 39 39 39 39 39 39 39 39 38 38 37 38 38
40 39 39 39 39 37 37 38 38 37 37 35 35 35 34 33
33 32 32 30 31 31 31 30 30 29 29 28 28 28 27 27
27 26 26 25 25 25 25 26 27 30 33 33 33 29 22 17
25 31 28 28 27 27 27 27 27 25 25 24 21 26 27 28
28 28 29 29 29 29 30 30 30 30 31 31 32 32 32 32
32 32 31 31 31 33 33 35 35 35 36 36 36 36 37 37
37 38 37 37 38 37 38 38 38 38 38 38 39 39 39 39
39 39 39 39 39 38 39 38 39 38 39 38 38 38 38 38
40 39 39 38 38 37 37 37 36 36 36 35 35 34 34 33
33 33 33 32 31 31 30 30 29 29 29 29 28 28 28 27
26 26 26 26 25 25 25 25 26 30 32 33 32 30 23 23
23 32 28 29 28 27 27 27 26 25 25 24 22 26 27 29
30 29 29 30 30 30 30 30 30 31 31 31 31 31 32 32
31 31 32 32 33 33 34 35 35 35 35 36 37 37 36 37
37 38 39 38 38 38 38 38 38 38 38 38 38 38 38 39
38 38 39 39 38 39 39 39 39 39 39 39 40 39 37 36
40 39 39 39 38 37 38 37 37 37 36 36 35 35 34 34
33 33 33 32 31 32 31 31 30 30 29 29 29 28 28 28
27 27 27 26 26 25 26 26 27 30 33 33 33 31 23 24
24 32 29 28 28 27 27 27 26 25 24 23 20 27 28 29
29 29 29 30 30 30 30 31 30 31 31 31 31 31 32 32
32 32 33 33 33 34 35 35 36 35 36 36 37 37 37 38
38 38 38 38 38 38 38 38 38 38 38 38 39 39 39 39
39 39 39 39 39 40 39 39 39 38 38 38 38 39 39 40
40 39 39 39 39 38 38 38 37 37 36 36 35 34 35 34
34 33 32 32 31 32 31 31 30 30 29 29 29 28 28 27
28 27 27 26 26 26 26 27 28 31 33 34 33 31 24 25
23 31 29 29 25 22 24 25 20 11 7 9 8 10 15 18
21 26 29 29 30 30 31 31 30 31 31 31 32 32 32 32
33 33 34 34 34 34 34 35 36 36 36 36 36 37 37 38
37 38 38 38 38 38 39 39 39 38 38 38 38 38 39 38
39 39 39 39 39 38 39 38 38 39 39 39 39 39 38 38
40 39 39 39 39 38 38 37 37 37 37 36 36 35 35 34
34 33 33 33 32 32 31 31 31 30 30 29 29 28 28 28
28 26 27 26 26 26 26 27 28 32 35 34 34 31 25 26
24 29 25 26 18 6 6 9 7 3 1 0 0 0 1 2
3 8 11 15 22 27 30 31 31 31 31 31 32 33 33 33
34 34 35 34 35 34 35 35 35 36 36 37 37 38 38 37
38 39 38 38 38 38 38 39 39 39 39 38 39 39 40 39
38 38 38 38 38 39 39 39 38 38 39 39 39 38 39 39
40 39 39 39 39 39 38 38 37 36 36 36 35 35 36 35
34 34 33 33 33 33 32 31 31 30 30 29 29 29 29 28
28 28 27 27 27 27 27 27 28 31 34 33 33 31 23 25
20 17 7 3 1 1 0 0 1 0 0 0 0 0 0 1
2 2 5 4 3 11 18 24 29 31 32 32 32 33 33 33
33 34 35 34 35 36 36 36 37 36 37 37 37 37 38 38
38 39 39 38 38 39 39 39 39 38 38 38 38 38 39 39
38 38 38 39 38 38 38 39 39 39 39 39 39 39 38 38
40 40 40 39 39 38 38 37 37 36 37 37 36 35 35 35
34 34 34 33 33 33 32 32 31 31 30 30 30 29 29 28
28 28 28 27 27 27 27 28 28 32 35 34 34 32 24 21
11 0 3 1 0 0 0 0 0 2 1 0 0 0 2 0
1 2 4 7 6 0 6 8 14 23 30 33 32 33 34 34
34 34 35 35 35 34 35 36 36 36 37 37 37 38 38 38
38 39 39 39 39 39 38 38 38 38 38 38 38 39 39 39
39 39 39 39 38 38 38 38 38 38 38 39 38 38 38 38
41 40 40 39 38 38 38 38 38 37 37 36 36 35 35 35
35 34 34 34 33 32 32 32 31 31 31 30 30 30 29 29
29 28 29 28 29 28 28 29 29 32 34 30 31 26 13 3
2 0 0 0 0 0 0 0 0 1 1 0 0 0 1 0
0 0 2 6 9 6 3 6 9 8 16 27 32 33 34 33
34 34 35 35 35 35 35 36 36 36 37 37 37 37 38 38
38 37 38 37 37 38 38 39 39 39 38 38 39 38 38 38
38 38 38 39 39 38 39 38 38 39 39 38 38 38 38 38
39 39 39 39 38 38 38 38 38 38 37 36 36 36 36 35
35 34 34 34 33 33 32 32 32 31 31 31 31 30 29 29
29 28 28 28 28 28 28 27 27 28 30 20 13 7 7 0
0 0 0 0 0 0 0 0 0 0 2 3 1 0 0 1
2 0 1 0 2 10 7 0 2 3 6 14 25 33 34 35
35 35 36 36 36 36 36 36 36 37 37 37 37 36 36 36
37 38 39 39 39 38 39 39 39 39 39 38 38 38 38 38
38 38 39 39 38 38 38 38 38 39 39 39 39 39 38 38
40 39 39 39 38 38 38 38 38 37 37 37 36 36 35 36
35 34 34 33 33 33 33 32 32 32 31 31 31 30 30 30
29 29 29 28 29 28 26 25 23 10 4 1 5 4 1 0
0 0 0 0 0 0 0 0 0 0 0 2 6 2 2 1
1 3 1 0 1 1 6 4 1 0 3 5 12 26 34 33
34 35 36 35 36 36 36 36 36 36 37 37 37 38 39 39
39 39 38 39 39 38 39 39 39 39 40 38 38 38 38 38
38 38 39 39 38 38 38 38 38 39 39 38 39 39 38 38
40 40 39 38 38 38 38 38 37 37 37 36 36 36 36 36
35 34 34 34 33 33 32 32 31 32 32 31 31 31 31 30
29 30 29 28 28 27 22 19 9 5 3 5 2 0 0 0
0 0 0 0 0 0 0 0 0 1 0 3 6 5 5 2
3 3 1 0 0 1 2 0 3 4 4 5 4 9 27 35
35 36 35 34 35 35 35 36 36 37 37 38 38 39 39 39
39 39 39 40 39 39 39 39 39 39 39 38 38 38 38 38
38 39 39 39 38 38 38 37 38 38 39 38 38 38 39 38
39 39 39 39 39 39 38 38 38 37 37 37 36 36 36 36
35 35 34 33 34 33 33 33 32 32 32 32 31 31 30 30
30 30 30 29 27 25 15 6 5 2 0 0 0 0 0 0
0 0 0 0 0 0 0 0 0 0 1 2 5 8 8 6
3 2 0 0 0 1 2 0 1 4 6 8 6 4 8 30
35 35 34 35 36 36 37 37 37 38 39 38 39 39 39 39
39 38 38 39 39 39 39 39 39 39 40 39 39 39 39 39
39 38 38 38 38 38 39 38 38 39 39 38 38 38 38 38
40 39 39 39 38 38 38 38 38 37 37 37 37 36 36 36
36 35 35 34 34 33 33 33 33 32 33 33 32 31 32 31
30 30 29 28 19 6 1 3 1 0 0 0 0 0 0 0
1 0 0 0 0 0 0 0 0 0 0 2 4 2 1 2
3 0 0 0 0 1 2 1 0 0 4 2 5 5 1 12
33 36 36 36 37 37 37 37 37 38 39 38 39 39 39 39
39 39 39 39 39 39 40 39 39 39 40 39 39 39 39 39
39 39 39 39 40 39 39 39 39 39 39 39 39 39 38 37
40 39 39 39 39 39 38 38 38 38 37 36 36 36 36 35
35 35 35 35 34 34 34 33 33 33 33 33 33 32 32 30
30 30 29 15 1 1 0 0 0 0 0 0 0 0 0 0
0 0 0 0 0 0 1 0 1 1 2 4 2 0 0 0
0 0 1 2 1 1 4 4 4 1 1 5 1 7 1 0
24 35 37 37 37 37 38 39 38 39 40 39 39 40 39 39
40 39 39 39 39 39 40 39 39 39 40 39 40 40 40 39
39 39 39 39 39 39 39 38 39 38 38 38 35 35 35 36
41 41 40 40 39 39 39 39 38 38 38 38 38 37 37 37
37 36 36 36 35 34 35 34 34 33 33 33 33 33 32 32
28 26 19 2 0 0 0 0 0 0 0 0 1 1 2 0
0 2 0 0 0 1 1 4 6 9 11 6 4 2 2 3
1 2 5 5 6 4 1 3 3 3 1 4 4 4 7 2
9 31 38 38 38 38 39 39 40 39 40 39 39 40 40 40
41 40 40 41 40 40 41 40 40 40 41 40 40 41 41 40
40 41 40 40 39 39 39 38 38 39 40 39 39 39 38 38
41 41 42 41 41 41 40 39 39 39 39 38 38 38 38 37
37 37 36 36 36 36 35 36 36 35 35 34 34 33 28 21
14 11 5 0 0 0 0 0 0 0 0 0 0 3 2 1
1 1 0 0 0 3 5 5 7 8 5 1 3 4 3 6
6 4 6 7 6 8 5 5 5 2 1 4 8 5 10 5
3 18 37 39 39 39 39 40 40 40 41 40 41 41 41 40
41 40 40 41 41 41 41 41 41 42 42 41 42 42 41 40
40 40 39 39 39 40 40 41 40 40 39 40 40 39 39 39
41 41 41 41 40 40 40 39 39 39 39 39 38 38 38 38
38 37 37 36 36 36 36 36 35 35 35 34 34 28 21 9
6 5 2 0 0 0 0 0 0 0 0 0 1 0 2 2
2 0 0 0 0 2 3 6 6 6 6 3 3 5 8 5
8 9 9 9 9 11 12 6 6 4 2 2 6 4 8 11
5 9 31 41 39 40 40 40 40 40 41 40 41 40 41 41
41 41 42 41 42 41 41 42 41 41 40 37 38 39 39 39
40 41 41 42 39 39 40 39 39 40 39 39 39 39 38 37
42 41 41 40 41 40 40 39 39 39 39 39 38 38 38 38
38 37 37 36 36 36 36 36 35 36 35 35 32 27 11 8
3 4 1 0 0 0 0 0 0 1 1 3 6 10 11 8
3 0 0 1 2 3 3 6 6 9 7 3 10 7 5 9
10 7 8 13 13 13 16 12 9 2 5 7 2 2 6 10
10 8 19 39 39 39 39 40 40 40 41 40 41 41 41 42
41 41 41 41 41 40 39 39 40 40 40 40 40 40 40 39
39 40 40 41 39 39 38 38 39 39 38 39 38 38 38 37
26 38 42 41 41 39 40 40 39 39 39 39 39 39 39 38
38 38 38 37 37 36 36 35 35 35 35 34 31 18 8 1
3 0 0 0 0 0 0 0 2 2 0 0 0 2 3 0
1 0 0 1 3 6 6 10 15 12 10 7 8 10 9 8
7 7 9 11 16 13 15 12 20 10 5 8 7 2 1 10
12 15 16 29 39 40 40 40 41 40 41 40 41 40 40 41
41 40 40 39 40 41 41 41 41 41 40 40 40 40 41 39
40 39 40 41 39 40 39 39 41 40 39 39 38 38 38 37
19 36 41 40 40 40 40 39 39 39 40 39 39 38 38 39
37 37 37 37 36 36 36 36 35 35 35 34 27 14 2 0
0 0 0 0 0 0 0 1 1 1 1 1 0 2 0 1
1 0 1 2 1 0 2 3 6 5 4 8 9 9 10 16
15 10 10 11 13 15 15 12 14 11 10 9 11 4 2 5
9 17 17 24 39 40 40 40 41 40 40 40 40 40 40 40
40 39 42 41 40 40 41 41 40 40 39 39 39 40 40 39
40 40 40 40 39 39 39 39 40 39 38 39 38 38 37 38
19 35 42 40 40 40 39 38 39 39 40 39 39 38 38 38
38 38 37 37 36 37 36 36 38 43 40 36 30 14 0 0
0 0 0 0 0 0 0 1 2 3 4 4 6 5 5 1
0 1 0 1 1 1 0 2 6 3 4 5 12 12 9 8
15 18 18 14 13 15 14 12 11 12 12 6 14 9 3 2
6 13 11 18 36 39 39 39 39 39 40 40 40 40 40 39
40 40 41 40 40 40 40 41 40 40 40 39 39 39 39 39
39 39 39 40 39 39 39 39 39 38 39 38 37 37 37 36
18 35 41 40 40 40 39 45 49 46 45 42 40 39 38 39
38 37 37 36 36 36 36 36 43 51 49 42 34 17 0 0
0 3 1 0 0 0 0 0 1 5 9 8 7 5 2 6
7 6 2 1 2 1 2 1 2 2 5 6 12 17 21 18
10 12 19 14 8 16 14 11 7 12 13 11 9 8 7 4
5 13 12 14 33 38 38 40 39 39 40 40 40 39 40 40
41 39 41 41 40 40 40 39 40 40 39 39 39 39 39 40
39 39 39 40 38 38 38 38 39 39 38 37 37 37 37 37
20 37 42 41 41 40 41 48 53 51 49 45 44 43 43 40
39 38 37 37 36 37 37 35 42 48 46 42 36 16 0 0
0 0 8 6 1 0 0 0 0 2 7 12 11 11 11 5
1 5 5 2 3 5 5 8 7 6 8 7 2 8 20 15
16 16 11 14 10 8 13 13 11 9 12 12 8 11 11 4
6 9 12 8 26 39 40 40 40 40 40 39 39 40 40 40
39 39 40 40 40 40 40 40 39 40 39 39 39 39 40 39
39 38 38 39 39 39 39 38 38 39 38 37 38 37 37 37
21 40 43 42 42 41 40 48 54 51 48 47 48 51 51 45
46 44 41 38 37 37 37 36 41 40 41 40 38 23 1 0
0 0 10 20 15 6 1 1 1 4 5 8 14 17 9 6
7 6 7 3 4 7 11 7 13 12 11 10 7 3 11 23
10 11 12 10 9 11 14 13 12 10 13 12 10 11 15 9
4 7 5 11 21 39 39 39 40 39 39 40 39 39 40 40
40 40 40 40 40 39 40 40 39 38 39 39 39 39 39 39
40 39 39 39 39 39 38 38 38 38 39 39 38 38 37 38
22 43 46 43 44 44 44 46 31 37 45 49 52 53 51 37
33 41 44 44 42 43 42 38 38 23 19 19 21 20 3 1
0 0 27 63 54 45 25 8 5 6 11 9 11 16 12 9
11 13 14 13 10 10 11 12 11 15 16 17 12 6 6 20
21 10 6 9 9 13 15 13 10 9 9 15 13 10 13 11
3 6 5 9 21 36 40 39 40 39 39 39 39 39 39 39
39 39 40 41 40 40 40 39 39 39 40 40 39 39 39 39
39 39 39 39 39 38 39 39 39 39 39 38 38 38 36 36
22 43 46 38 39 44 49 49 4 1 14 30 35 38 46 24
0 4 10 21 27 35 42 43 40 22 10 13 13 5 3 0
1 0 14 48 68 68 77 64 25 15 19 24 16 14 13 9
15 12 12 9 15 18 18 17 20 17 20 22 20 14 6 13
21 18 4 7 6 9 11 12 10 12 13 17 19 12 13 11
9 10 4 10 18 34 40 39 39 39 39 40 40 39 40 39
40 40 40 41 41 39 40 39 39 39 39 39 39 39 39 39
40 40 39 40 39 40 39 38 37 37 37 36 36 37 38 38
21 35 44 46 45 46 53 51 6 0 5 14 17 18 34 23
0 0 0 0 1 2 7 19 40 20 3 5 7 3 7 4
0 0 0 7 28 69 87 98 94 64 34 29 31 25 18 15
19 21 16 19 19 17 19 20 20 16 13 23 18 11 9 11
10 10 11 7 4 9 9 12 13 19 14 15 20 19 16 14
12 14 10 10 15 30 40 40 40 40 40 40 40 39 39 39
39 39 40 40 40 39 39 39 40 39 40 39 40 39 39 39
40 40 39 38 37 37 37 37 38 39 39 39 39 38 38 38
18 3 6 14 25 37 47 50 8 0 2 8 10 12 32 27
1 0 0 0 0 0 0 8 40 16 0 0 4 2 11 22
1 0 0 0 7 32 70 93 112 118 103 72 48 40 28 22
17 22 21 12 20 25 25 24 24 20 21 19 24 17 8 12
9 10 11 10 7 5 6 9 11 15 15 16 15 22 15 20
13 15 14 14 19 26 38 39 39 40 40 40 40 40 40 40
40 40 41 40 40 39 39 39 39 39 39 39 40 40 39 39
40 40 40 39 40 39 40 38 38 38 38 39 40 38 38 38
17 1 0 0 0 0 4 21 10 0 0 1 0 6 27 24
0 0 0 0 0 0 0 6 39 8 0 0 0 1 12 50
41 5 2 1 22 67 109 128 137 144 135 123 101 81 56 38
23 12 11 9 6 9 13 20 27 24 20 22 21 21 17 11
14 15 13 9 9 9 5 8 12 12 17 19 15 20 17 21
15 16 18 20 15 24 38 39 39 40 39 41 40 39 40 40
40 39 40 39 39 40 40 40 39 40 40 39 40 40 40 40
40 39 39 38 39 39 38 38 38 38 38 38 40 39 39 39
17 1 0 0 0 0 0 11 9 0 0 0 0 2 29 24
0 0 0 6 10 1 0 5 38 6 0 0 0 1 11 57
81 60 14 4 11 42 103 143 147 148 147 144 136 128 105 55
37 20 15 11 8 11 12 14 19 19 18 22 17 16 18 14
16 18 17 16 12 14 14 8 15 12 12 17 16 18 19 24
21 15 20 19 22 25 36 37 40 40 40 40 40 40 40 40
40 39 39 40 41 41 40 40 40 40 38 39 39 40 40 39
39 39 39 39 39 39 39 39 38 39 39 39 39 38 38 39
17 1 0 0 0 0 0 9 8 0 0 0 0 1 32 27
0 0 0 10 17 12 5 3 39 5 0 0 0 0 9 61
96 97 66 35 36 67 113 148 148 148 148 147 146 144 127 85
49 29 20 22 16 16 19 19 18 16 17 17 15 15 16 16
14 13 15 15 15 20 17 10 15 17 17 18 16 17 19 25
24 21 19 22 22 18 37 39 40 40 40 39 40 39 39 39
39 39 39 40 40 40 39 39 39 37 39 40 41 40 40 40
40 40 39 39 40 40 40 40 39 41 40 39 39 37 36 35
17 1 0 0 10 3 0 7 7 1 0 0 0 2 30 30
0 0 2 13 18 16 14 4 38 7 0 0 0 0 6 68
106 110 108 94 104 133 144 148 148 147 148 147 146 146 143 113
56 39 29 30 29 21 20 20 14 13 15 14 16 12 13 17
17 19 16 16 13 21 19 21 17 22 18 17 20 17 21 26
25 26 16 20 20 19 36 39 40 40 40 40 40 40 39 40
40 39 40 40 39 39 39 38 39 38 38 39 40 40 40 40
40 40 40 41 40 39 39 39 40 39 37 35 36 35 33 31
16 1 9 6 7 2 0 7 7 1 0 0 0 5 30 31
0 0 1 10 16 16 15 3 37 11 1 0 0 0 6 81
113 116 120 128 137 148 147 147 147 147 147 147 147 147 146 128
97 46 37 32 27 28 27 24 25 19 12 13 17 17 16 14
18 17 16 17 15 19 22 24 23 28 21 17 21 14 23 21
20 27 19 18 22 18 32 39 39 40 40 40 40 40 40 39
39 39 39 40 39 39 39 39 38 39 38 40 41 40 40 39
40 39 37 36 36 36 37 36 34 30 26 22 19 17 15 13
17 4 10 0 4 2 0 8 9 0 0 0 0 11 34 37
2 1 3 0 6 13 12 2 37 41 32 23 18 13 22 98
112 91 89 107 115 119 118 117 116 114 114 114 112 109 106 102
83 43 32 38 31 29 25 27 26 25 18 14 14 16 17 18
20 19 16 18 19 22 21 24 25 32 31 22 23 15 22 20
17 25 21 21 21 21 33 38 40 40 40 40 39 40 40 40
40 40 39 40 40 40 40 39 39 38 39 40 39 38 38 37
38 36 32 29 26 22 19 16 14 13 14 14 15 15 16 17
17 4 2 0 0 1 0 11 30 16 11 10 3 1 29 52
38 31 27 18 9 7 8 3 38 49 46 45 45 50 59 81
22 15 11 11 12 12 11 11 12 13 13 13 10 11 11 12
11 11 12 29 30 30 30 33 28 27 23 24 19 21 20 21
21 24 17 18 27 23 25 29 27 32 27 28 29 19 22 16
18 19 27 22 20 20 32 39 40 41 40 41 40 40 40 39
39 40 39 38 37 37 39 37 37 36 37 35 32 28 25 21
18 17 16 14 15 15 15 17 18 19 20 20 21 22 21 22
18 1 0 0 0 0 0 14 56 50 43 43 41 33 44 52
24 26 30 33 33 34 35 36 49 45 45 45 48 54 50 9
2 23 18 7 8 7 9 10 13 14 14 13 13 15 17 17
17 16 16 24 30 26 18 24 25 23 24 31 37 35 41 32
25 20 21 19 30 28 29 30 16 31 27 24 33 17 18 20
19 10 24 21 19 26 31 38 40 40 40 41 39 39 38 38
37 39 38 37 36 33 30 27 24 21 19 18 17 17 16 17
18 20 21 21 19 15 23 24 24 26 26 26 27 27 16 27
18 3 0 0 0 0 0 14 58 47 51 54 58 56 51 44
18 17 18 18 18 18 19 22 26 24 28 34 40 42 20 2
5 2 1 2 5 12 21 23 24 25 37 52 66 78 89 99
109 117 120 108 80 38 23 25 21 22 23 63 68 63 62 61
49 28 20 19 25 28 28 26 18 25 29 21 40 26 18 30
20 8 13 21 14 22 34 38 39 40 40 40 38 37 40 33
29 26 23 21 19 18 19 19 20 20 21 22 22 23 23 25
25 25 26 27 26 9 26 28 29 29 26 26 30 19 26 33
21 33 31 22 12 6 3 16 50 42 52 54 58 58 47 37
21 18 18 16 15 14 12 12 11 12 13 15 29 34 9 4
10 20 3 3 13 35 66 86 106 117 136 145 148 147 147 147
147 147 146 144 126 86 54 43 33 38 44 72 79 110 122 109
90 74 22 20 20 22 25 28 23 23 20 26 38 27 26 35
23 9 8 15 15 23 27 32 32 29 27 24 21 21 36 27
15 17 19 21 22 22 23 25 25 26 27 27 29 29 30 30
30 24 24 30 32 19 21 33 33 32 20 30 28 20 33 33
21 44 54 52 49 46 43 45 43 37 48 52 56 57 50 42
24 20 16 14 13 13 13 13 13 13 14 15 31 21 4 3
10 30 11 19 43 86 144 146 148 147 148 147 147 147 147 147
146 146 146 146 143 124 90 52 52 57 85 81 85 120 145 145
128 117 57 12 13 18 23 24 23 18 17 31 23 19 28 33
17 13 7 13 15 18 23 20 20 19 20 21 22 21 28 24
18 24 26 27 28 28 30 30 30 32 32 31 32 32 33 33
33 33 28 25 34 30 13 34 34 32 18 31 20 29 30 34
21 44 56 55 53 54 54 56 34 8 15 23 31 37 37 43
25 18 15 7 6 7 13 15 15 14 17 19 33 24 4 8
9 20 15 18 40 72 138 148 147 146 147 147 147 147 147 147
146 146 146 146 146 143 116 91 64 61 108 109 112 122 144 146
144 125 106 7 10 13 20 26 22 21 21 25 15 13 26 24
14 11 16 11 15 15 23 24 25 26 26 28 28 28 32 29
22 29 31 32 33 33 34 34 34 35 34 34 34 34 34 34
35 35 35 28 26 33 13 28 35 31 18 22 26 31 31 35
22 38 50 50 51 53 55 55 27 0 0 0 2 11 19 42
25 16 13 1 0 0 6 10 8 5 12 13 31 27 2 6
7 17 23 7 25 42 120 142 143 142 146 148 148 148 148 147
147 147 147 147 147 146 141 125 95 75 109 130 130 138 146 146
145 131 135 22 9 7 16 21 22 15 20 26 10 9 25 16
12 13 20 10 10 13 18 30 32 31 32 33 33 32 29 26
26 33 35 35 36 36 36 36 36 36 36 37 36 35 36 35
35 37 36 36 28 27 25 15 34 28 20 17 34 30 32 34
28 33 36 39 41 41 45 51 23 0 0 0 1 1 13 46
24 15 13 1 0 4 2 0 1 0 1 4 28 34 8 5
4 9 29 0 14 25 72 134 141 139 147 148 148 147 148 147
148 147 148 148 147 147 147 146 132 106 119 144 75 130 146 146
144 135 141 46 12 9 11 19 19 13 14 20 13 13 17 15
14 16 21 12 11 13 17 34 36 35 35 36 35 31 11 8
22 35 37 38 37 37 37 38 38 38 38 38 37 37 36 36
35 36 36 36 37 28 24 9 16 13 15 27 34 30 33 32
24 25 25 28 37 34 41 51 21 0 0 0 2 0 5 46
19 10 2 0 0 11 8 3 1 0 0 1 26 35 14 7
2 5 31 3 24 48 64 126 141 142 147 148 149 148 148 149
148 148 148 148 147 147 147 147 146 143 144 146 69 94 140 147
145 136 142 51 20 9 11 15 23 15 22 15 9 18 16 11
8 15 17 14 11 17 18 36 37 37 36 33 32 30 11 6
18 35 38 39 38 38 37 37 38 37 38 38 38 37 37 36
36 36 36 37 38 35 27 9 0 0 22 32 32 30 34 31
24 26 29 32 38 38 45 50 21 0 0 0 0 0 6 45
7 0 0 0 1 7 15 9 2 0 0 0 26 38 6 7
0 1 31 8 33 55 82 137 145 145 147 148 148 148 148 147
148 148 148 147 147 147 147 147 147 147 133 130 121 92 124 147
145 138 139 46 32 15 11 11 20 10 15 11 6 13 17 12
7 16 14 12 10 13 24 38 38 23 9 5 14 27 8 4
16 35 38 39 38 38 38 37 37 38 38 38 37 37 37 36
36 35 35 36 35 34 34 22 0 4 30 31 27 27 32 32
24 11 6 11 18 24 31 38 20 0 0 0 0 0 8 46
7 0 0 0 1 6 18 16 13 1 0 1 25 46 61 13
0 1 18 12 30 54 89 142 147 147 148 148 148 148 148 148
148 148 148 147 147 147 147 147 147 141 69 82 124 122 124 146
146 143 117 30 26 22 13 12 15 7 16 14 9 10 13 13
5 17 16 13 6 12 24 38 38 24 17 24 30 30 4 0
15 35 38 39 38 38 38 38 38 37 38 37 37 38 36 36
37 35 34 34 35 35 36 31 1 5 33 30 24 24 31 34
28 9 0 0 0 0 0 7 17 0 0 0 0 0 9 44
5 0 0 0 5 20 22 18 16 1 0 3 26 76 99 24
3 0 7 13 21 53 90 145 148 149 148 148 149 148 148 148
148 148 148 148 148 148 148 146 146 133 31 108 119 125 130 145
145 144 63 14 42 35 16 9 14 9 16 13 15 11 13 8
6 16 16 8 6 8 25 39 39 39 38 37 36 31 8 1
16 34 38 38 38 37 38 38 38 39 38 38 38 38 37 36
37 36 35 34 34 35 35 32 3 5 34 33 25 24 34 34
28 10 0 0 0 0 0 3 16 0 0 10 6 1 6 42
3 0 0 0 4 17 25 11 7 0 1 4 36 113 114 41
10 1 3 9 15 45 90 146 149 149 148 149 149 149 149 149
149 149 149 148 147 147 147 144 144 128 60 118 134 127 123 146
145 141 73 71 66 55 21 12 11 14 12 16 9 13 14 14
9 20 14 8 8 9 30 40 39 39 38 37 35 32 15 0
20 35 39 38 39 38 38 37 38 37 37 37 37 37 36 36
36 37 36 34 35 35 36 33 4 3 32 35 25 23 34 35
28 10 0 0 7 1 0 3 16 0 3 21 15 2 7 42
3 0 0 1 2 1 18 3 0 1 2 5 86 119 117 50
36 1 1 8 12 38 97 149 149 149 149 149 149 148 148 147
148 148 148 148 147 147 147 143 145 113 113 128 126 126 135 147
145 129 116 114 84 72 29 18 12 11 10 12 8 10 11 15
11 13 14 12 7 8 33 39 39 38 38 37 35 32 22 10
26 36 38 39 38 38 38 37 37 37 37 36 36 36 36 36
36 36 35 33 33 35 35 34 5 2 32 35 24 23 33 34
25 10 0 7 21 9 2 2 19 1 11 20 18 7 7 40
2 4 0 0 1 0 18 6 0 0 0 34 116 121 120 67
49 17 6 8 10 37 115 150 149 149 149 149 149 149 148 148
148 148 148 148 146 148 148 142 146 125 123 140 137 143 147 144
144 118 118 116 94 83 43 22 14 10 13 13 11 6 14 19
16 13 17 10 8 6 32 38 38 38 37 37 35 31 28 27
32 37 38 39 39 38 38 37 37 37 37 37 37 36 36 36
37 36 35 35 33 30 33 32 7 0 21 24 17 20 30 34
24 11 0 11 23 11 4 2 38 34 38 39 36 31 29 42
2 0 0 0 0 0 18 8 1 2 2 85 118 120 120 96
33 46 10 9 14 49 136 150 149 150 149 149 149 149 148 149
148 148 147 147 148 147 146 134 140 144 130 143 147 146 146 145
132 121 124 121 104 92 55 24 15 11 14 17 14 8 10 16
17 12 17 11 9 8 31 38 38 37 37 37 36 32 31 33
36 38 38 38 38 37 38 38 37 37 37 37 37 36 36 37
37 36 35 33 33 29 22 25 7 0 25 34 28 24 31 34
23 12 0 4 6 3 1 2 41 45 50 50 49 54 58 50
12 8 8 1 0 3 21 11 5 6 24 108 115 115 113 114
45 38 20 14 24 93 145 149 148 148 148 148 148 148 149 148
148 148 147 148 147 147 146 141 127 136 146 146 147 146 146 145
125 125 131 131 118 99 62 29 14 12 12 11 12 7 11 17
15 10 12 14 8 18 35 38 39 37 37 37 35 33 33 35
38 38 38 38 39 38 37 38 37 37 36 36 35 36 36 36
35 35 35 34 33 34 34 34 12 0 23 32 26 21 28 30
24 22 10 2 3 1 0 1 40 47 49 49 49 57 61 56
36 34 33 27 25 25 29 23 19 17 64 115 118 112 103 102
104 49 30 27 75 134 147 149 148 148 149 148 148 148 148 148
148 148 147 147 147 147 147 145 129 129 138 146 146 146 146 135
124 132 133 137 130 103 64 35 17 10 13 12 9 11 13 19
14 5 15 15 11 21 36 38 38 37 36 37 36 36 36 37
37 38 37 37 37 37 37 37 36 35 36 37 36 36 36 35
35 34 34 33 33 33 33 34 14 0 21 32 27 20 28 32
26 26 8 0 2 0 0 1 37 40 43 44 45 48 47 47
41 40 41 39 39 40 38 36 34 31 89 126 121 111 107 113
109 98 91 102 120 138 148 148 147 148 148 147 147 147 148 148
147 147 147 147 147 147 147 142 132 143 137 141 144 146 139 126
131 135 138 143 139 105 67 36 17 13 11 11 9 9 15 17
9 9 14 16 16 26 36 38 37 36 36 36 35 35 35 36
36 36 36 37 37 37 37 36 35 36 36 35 35 35 35 35
34 34 34 33 32 33 33 33 17 0 19 33 28 18 26 31
28 22 3 0 1 0 0 1 40 41 41 42 42 40 37 37
41 42 44 43 42 41 40 40 40 47 107 145 142 131 133 142
119 89 100 113 124 138 147 148 148 148 148 148 148 148 148 148
147 147 147 147 147 146 146 137 121 147 145 145 145 139 125 127
135 139 144 144 140 113 78 38 21 18 15 12 8 10 14 11
5 5 13 14 14 30 36 36 37 37 37 37 36 36 38 38
38 37 37 38 38 37 36 36 36 36 36 35 36 35 36 35
35 35 35 33 32 32 33 33 18 0 16 33 28 20 27 31
26 28 26 22 17 13 10 9 43 42 40 40 41 41 42 44
45 44 47 51 51 42 40 41 44 56 111 141 142 147 149 149
136 89 93 114 125 140 146 148 148 147 148 148 148 147 147 148
147 148 147 147 147 147 146 133 106 135 143 138 130 126 125 130
140 144 146 145 143 119 71 45 20 14 14 8 5 6 10 3
1 4 13 14 11 30 39 38 38 37 38 37 37 37 38 38
37 37 38 37 37 37 36 36 36 35 36 35 35 35 35 35
35 34 34 33 32 33 34 33 20 0 15 32 29 20 26 31
27 35 51 53 49 50 53 52 55 47 43 44 43 44 47 51
49 45 47 54 53 42 39 36 42 56 103 127 117 99 110 121
120 85 91 110 122 137 147 148 148 148 148 148 148 148 148 148
147 147 147 147 147 145 146 143 110 108 123 134 137 132 135 141
146 146 146 145 143 119 76 44 25 11 9 5 5 5 4 3
0 7 10 9 14 32 37 37 37 37 37 36 38 36 37 37
37 37 37 37 36 36 36 35 36 35 35 35 36 35 35 35
35 35 35 33 31 31 34 33 22 0 12 33 28 20 24 31
27 37 60 60 59 60 60 59 60 47 38 37 36 38 44 51
52 46 46 46 45 43 40 36 36 43 66 119 101 98 108 96
86 78 105 104 118 134 147 148 148 148 148 148 148 148 148 148
148 148 148 148 146 147 147 147 144 141 146 147 146 146 146 146
146 145 145 145 143 119 94 49 29 13 10 9 5 4 5 1
0 5 5 8 23 35 37 37 36 36 37 36 37 37 37 37
36 36 36 35 36 37 36 36 36 35 36 35 36 35 35 35
34 34 34 33 32 31 33 33 24 0 11 33 30 20 24 31
27 29 41 42 44 47 50 51 53 32 9 8 5 7 12 28
51 46 31 15 19 22 22 31 38 27 11 46 97 90 77 102
103 98 107 104 113 129 145 148 148 148 149 149 148 148 148 149
149 148 148 147 145 146 146 147 147 147 147 146 147 147 147 147
146 146 146 146 145 132 100 43 23 14 11 8 5 4 1 0
2 5 4 17 34 37 35 35 34 33 32 31 33 37 38 37
37 37 37 36 36 36 36 36 35 35 35 35 36 35 34 34
34 34 35 34 32 32 34 34 26 0 9 32 31 21 25 31
28 27 34 34 33 33 33 33 35 24 2 0 0 0 0 13
50 40 10 0 1 4 11 30 41 26 2 0 0 10 24 76
97 97 101 104 114 123 138 148 148 149 149 149 149 148 147 148
148 148 148 147 147 147 147 148 147 147 147 147 147 147 147 147
146 147 146 146 146 133 86 31 27 29 15 7 4 5 0 1
1 2 9 28 37 37 28 17 15 13 12 11 20 36 38 37
37 37 37 36 37 36 36 36 36 35 36 35 36 35 35 35
35 34 34 34 32 32 34 34 28 1 9 33 32 21 24 31
27 29 41 42 41 40 40 39 40 26 7 1 0 0 4 25
50 29 1 0 0 0 2 31 41 28 1 0 0 5 19 55
97 104 99 102 117 122 133 147 148 147 148 148 150 149 149 149
149 148 148 146 147 147 145 147 148 147 148 147 147 148 148 148
148 147 147 147 146 134 87 58 57 33 14 6 4 4 0 1
1 1 16 35 37 37 26 8 8 8 9 9 18 38 38 38
38 38 37 37 37 36 36 36 36 35 35 35 35 35 35 35
35 34 35 35 33 33 34 34 29 2 8 31 29 19 21 30
26 31 43 44 44 43 44 44 45 27 7 2 0 0 3 16
47 20 0 0 0 0 0 30 40 27 0 0 0 3 17 56
108 115 104 94 119 125 130 141 148 148 149 147 149 148 148 148
148 147 148 148 148 144 146 146 147 147 148 148 147 148 147 147
147 146 146 147 144 133 115 97 68 29 12 7 5 3 1 0
0 4 18 36 36 36 25 8 8 9 8 8 17 37 38 38
38 37 37 36 35 36 36 35 35 36 35 34 35 35 35 35
35 34 34 33 32 31 32 31 28 2 6 28 29 21 21 31
32 32 39 40 41 42 43 43 47 28 1 0 0 3 10 9
45 17 0 0 0 0 0 30 39 26 0 0 0 2 12 57
67 67 93 88 114 129 131 137 144 145 147 148 148 149 148 148
147 148 148 148 146 142 146 147 148 148 148 148 147 148 147 147
147 148 147 147 145 129 116 110 83 37 19 10 5 3 1 0
2 9 21 35 36 36 24 9 9 8 8 9 14 35 38 38
38 37 37 36 36 35 35 35 34 34 33 33 32 34 35 34
34 33 33 34 32 31 31 31 30 4 3 29 30 21 20 29
40 40 38 39 39 39 39 33 45 36 6 0 0 3 7 4
43 14 0 0 0 0 0 30 39 24 1 0 0 0 4 41
29 18 70 71 101 127 130 137 141 145 144 147 145 147 147 147
147 146 146 143 142 143 146 148 148 148 148 147 148 148 148 147
148 148 147 147 143 128 116 116 112 93 57 21 4 2 0 1
5 12 19 35 35 36 25 8 8 9 9 9 12 35 38 37
36 35 35 34 34 33 35 34 35 35 34 35 35 34 33 33
33 34 33 32 31 30 31 32 30 5 1 27 30 22 20 28
39 39 38 39 38 39 38 33 43 40 12 0 0 4 10 6
41 13 0 0 0 0 0 24 40 26 4 0 0 0 4 47
74 101 95 95 97 124 131 134 139 143 138 143 145 144 143 142
146 147 144 139 138 140 145 147 147 148 148 148 148 148 148 148
147 148 148 147 143 127 115 116 117 109 89 46 6 2 2 1
7 8 18 35 35 35 28 13 13 13 14 14 15 30 35 35
35 36 35 29 34 60 22 26 35 34 33 33 33 33 33 32
32 33 33 32 30 29 31 31 30 6 1 24 29 22 18 27
37 37 37 37 37 37 38 35 42 37 1 0 0 0 1 5
41 14 0 0 0 0 0 20 41 25 1 0 0 0 2 73
108 121 124 115 101 114 127 129 137 142 142 142 141 140 140 138
136 144 141 141 142 140 146 147 147 148 149 148 148 147 148 147
147 147 147 146 141 125 115 115 119 115 106 81 17 7 6 4
7 5 16 34 34 35 29 14 13 13 12 13 14 28 36 36
36 36 27 0 1 44 0 7 35 34 33 33 33 33 33 33
33 32 32 32 30 28 30 30 29 7 0 23 30 22 19 27
11 12 12 13 17 30 36 35 39 33 0 0 0 0 0 1
39 17 0 0 0 0 0 17 42 26 2 0 0 1 5 84
119 135 131 124 110 106 121 126 132 133 139 141 141 139 135 136
136 131 138 138 148 143 147 148 148 148 148 148 148 148 148 148
147 148 147 146 140 123 114 116 121 119 111 97 59 21 14 5
5 3 15 33 35 35 29 10 9 9 9 8 10 29 36 36
35 35 28 0 0 17 0 5 34 34 33 33 33 33 33 32
33 32 32 32 30 29 31 31 31 10 0 22 30 24 19 27
0 0 0 0 4 34 38 36 36 32 2 1 1 2 12 5
35 26 9 9 12 11 10 23 45 32 31 29 29 32 36 70
103 121 129 126 118 108 114 120 125 131 131 135 136 138 139 138
128 131 131 137 140 147 148 148 148 149 148 148 148 148 148 148
148 147 148 146 139 121 114 118 125 123 116 105 88 28 49 3
5 3 14 32 34 34 28 10 8 9 8 8 9 29 36 36
36 35 28 0 0 0 0 3 33 34 34 34 34 33 33 33
33 32 32 32 30 29 31 31 31 12 0 21 31 25 18 26
0 0 0 0 3 35 39 36 34 43 38 33 30 34 39 35
38 45 50 47 47 49 49 51 50 34 42 46 48 53 58 60
79 107 121 123 122 116 113 116 124 128 134 136 136 128 131 132
128 132 131 139 141 146 147 148 148 148 148 147 148 147 147 147
147 148 147 147 138 123 117 122 130 125 117 110 100 33 82 7
6 3 13 32 35 35 30 11 8 9 8 7 9 28 36 36
34 35 28 0 0 0 0 2 33 35 35 34 35 33 34 33
33 33 32 33 31 29 31 31 31 14 0 18 31 25 18 26
0 0 0 0 1 33 41 36 32 47 50 43 43 46 42 36
32 40 56 54 52 52 56 56 54 35 38 44 47 53 58 57
65 98 112 119 121 121 120 120 123 126 130 128 132 124 122 128
129 135 137 135 129 139 148 148 148 148 148 148 148 148 148 148
147 147 147 147 137 123 117 123 132 127 120 113 108 46 96 31
6 4 13 32 35 36 30 11 8 7 8 8 9 29 35 21
16 12 8 0 0 0 0 1 32 35 34 34 34 34 33 33
33 33 32 32 31 29 30 31 31 15 0 16 31 26 18 26
0 0 0 0 0 32 41 36 32 47 44 38 40 44 43 36
30 31 39 41 41 40 40 39 41 34 30 35 38 40 37 36
63 100 106 112 117 119 119 120 126 127 127 129 124 125 118 120
124 132 136 134 123 140 148 149 149 148 148 148 148 148 148 148
147 148 147 147 139 124 118 125 129 125 122 118 113 52 106 65
3 5 12 33 35 36 31 10 8 8 8 8 10 28 28 2
0 0 0 0 0 0 0 0 32 35 34 35 34 33 33 33
33 32 33 32 31 30 31 32 31 18 0 14 32 27 18 24
0 0 0 0 0 29 42 36 32 46 31 33 33 37 42 36
31 29 26 27 28 28 29 29 32 34 35 38 40 39 35 33
60 106 113 107 114 122 125 125 130 132 128 125 121 119 120 121
120 130 133 131 128 143 148 149 148 148 147 148 148 148 148 147
148 148 148 146 136 122 119 124 127 125 123 120 115 52 123 89
2 4 12 33 35 36 31 10 8 8 9 9 10 28 33 6
0 0 0 0 0 0 0 0 31 36 34 34 34 34 33 33
33 32 33 32 31 30 30 31 31 19 0 13 32 27 19 24
0 0 0 0 0 26 42 36 34 46 16 11 14 16 20 19
22 32 31 35 35 42 43 38 39 42 43 47 49 47 39 36
49 102 114 110 109 122 128 126 125 125 123 120 119 116 117 120
122 127 134 136 140 141 145 147 149 149 149 149 148 148 149 148
148 148 147 146 134 121 119 124 129 129 125 121 110 56 131 98
9 4 10 31 35 37 33 12 7 8 9 8 8 27 36 23
0 0 0 0 0 0 0 0 31 36 35 35 34 34 34 33
33 33 33 34 32 30 32 33 32 21 0 11 30 27 18 23
0 0 0 0 0 22 42 35 38 49 11 0 0 0 1 6
18 34 38 49 44 53 57 31 24 25 27 31 41 50 41 37
38 80 105 105 105 117 122 129 131 123 117 118 114 113 116 118
123 124 123 130 135 140 148 145 145 149 149 149 148 149 149 149
148 148 148 147 134 120 115 119 128 129 127 122 90 82 135 110
14 5 3 3 3 10 15 11 13 16 11 14 15 28 37 33
10 2 0 0 0 0 0 0 8 28 35 34 34 34 34 34
34 34 34 33 32 30 31 35 34 24 0 9 30 28 20 24
0 0 0 0 0 19 42 35 39 52 14 0 0 0 0 0
20 34 36 48 33 36 46 13 0 0 1 1 20 50 43 38
38 51 90 100 105 113 118 128 120 113 114 107 110 113 115 114
121 121 124 125 137 147 148 147 148 149 149 149 149 149 149 148
148 148 147 144 134 120 115 118 125 128 129 119 61 125 130 112
13 7 5 5 0 0 0 0 3 14 18 33 34 36 28 19
10 0 0 0 0 0 0 0 0 23 37 36 35 35 35 34
35 34 34 34 33 31 31 33 33 24 0 6 26 24 18 23
0 0 0 0 0 16 42 35 37 51 19 0 0 0 0 0
18 33 34 45 14 5 28 13 0 0 0 0 15 48 43 38
38 39 62 86 93 103 114 116 113 103 100 101 100 105 111 110
117 120 120 130 133 140 145 148 149 148 149 149 149 149 149 149
149 149 149 148 134 118 114 116 124 129 129 89 85 141 132 115
14 6 4 4 5 1 0 0 0 6 7 9 19 27 9 0
10 18 0 0 0 0 0 0 0 22 36 35 35 35 35 34
34 34 35 34 34 32 31 33 33 25 0 4 23 22 18 23
0 0 0 0 0 14 42 35 32 24 4 0 0 0 0 0
21 32 34 46 14 3 27 16 0 0 0 0 10 45 42 37
37 38 40 58 74 93 101 100 94 87 91 96 94 96 99 106
106 115 123 125 137 145 148 149 149 150 149 150 149 149 148 149
149 148 148 146 135 116 114 117 122 126 109 67 140 138 134 117
15 8 5 5 5 5 3 0 0 5 8 7 6 7 5 3
6 13 0 0 0 0 0 0 0 20 36 35 37 36 35 35
34 34 35 35 35 32 31 32 32 25 0 3 21 21 18 21
0 0 0 0 0 10 40 35 31 18 0 0 0 0 0 0
22 31 34 46 14 3 24 18 0 0 0 0 5 44 43 37
37 37 37 37 44 57 62 58 65 63 68 72 72 79 78 85
93 103 112 119 130 140 144 148 149 150 150 149 149 149 149 149
149 149 149 147 134 119 114 117 121 113 66 130 143 137 133 123
19 12 9 9 6 7 6 4 0 2 10 8 6 6 8 7
5 4 1 0 0 0 0 0 0 15 32 36 36 36 35 35
35 36 36 36 36 33 32 32 31 25 1 2 20 21 18 22
0 0 0 0 0 9 40 35 31 20 0 0 0 0 1 0
19 31 33 46 13 4 22 21 0 0 0 0 5 42 43 36
37 37 37 37 36 31 27 25 22 24 27 31 34 41 46 52
63 72 85 97 111 121 141 150 150 150 150 150 150 149 149 149
149 149 148 147 140 121 114 117 112 67 122 148 142 139 134 117
16 10 8 9 9 8 7 10 4 0 5 6 7 6 10 10
11 9 9 7 5 1 0 0 0 0 5 15 13 17 36 36
36 37 36 37 37 33 32 32 29 25 1 1 21 22 20 23
0 0 0 0 0 7 39 36 31 20 0 0 0 0 4 0
16 33 33 46 17 4 20 22 5 0 2 3 5 39 42 36
36 37 36 36 36 36 29 17 8 4 4 4 3 3 3 6
9 25 56 80 100 116 134 147 149 149 149 149 149 149 149 149
149 149 148 148 142 123 113 110 65 120 147 143 140 140 137 124
16 14 10 9 7 9 11 11 11 4 3 6 5 7 8 9
10 11 10 8 8 8 8 5 7 6 6 5 4 11 38 40
39 40 40 41 40 38 35 34 32 28 3 1 25 28 25 29
0 0 0 0 0 5 38 35 31 21 0 6 0 0 10 5
12 34 33 46 27 10 17 24 7 8 8 2 4 36 42 35
35 35 35 34 24 10 3 4 3 2 1 1 1 2 1 0
0 0 18 71 90 105 126 144 149 149 149 149 149 148 148 148
148 148 148 147 144 126 111 68 116 149 145 144 140 141 139 124
20 12 10 8 7 7 8 9 8 7 1 6 6 6 7 8
8 9 9 8 8 8 9 6 6 7 8 7 8 17 51 53
52 53 53 53 53 50 47 43 40 37 6 0 24 14 9 9
0 0 0 0 0 3 36 34 29 24 2 7 1 1 14 17
13 38 33 46 26 20 15 21 3 12 10 1 1 31 39 34
35 34 23 7 3 4 2 2 1 0 0 2 3 5 0 0
0 1 12 93 84 97 115 137 148 149 149 148 148 148 148 148
148 148 148 147 145 125 83 114 148 146 145 143 142 142 138 125
24 14 11 9 7 7 8 8 8 8 5 1 7 5 6 6
8 9 10 9 8 9 8 8 7 6 6 8 23 46 55 54
55 55 55 56 55 52 47 42 41 39 8 0 24 1 0 0
0 0 0 0 0 3 35 34 28 30 29 32 33 33 37 39
39 45 34 45 19 25 17 27 17 20 19 16 17 29 33 31
22 7 2 1 1 3 2 1 1 2 3 4 5 7 2 1
3 4 12 100 110 91 100 124 143 148 148 149 149 148 148 147
148 148 148 148 145 110 121 148 147 146 142 141 142 142 135 130
25 16 12 10 8 6 8 8 8 8 9 3 4 8 5 7
6 7 9 10 8 7 9 9 9 7 6 6 6 6 22 42
53 53 51 49 51 46 41 38 38 38 9 0 18 0 0 0
0 0 0 0 0 2 34 34 28 30 49 50 52 52 52 52
53 53 40 44 11 15 17 31 27 27 27 26 26 23 15 5
3 2 2 0 0 0 1 0 1 2 4 4 8 7 4 4
5 5 11 100 114 121 103 109 138 146 147 148 147 147 148 148
148 148 148 147 135 133 148 147 145 145 144 141 140 137 136 121
20 14 11 10 10 10 11 12 11 9 9 8 1 5 7 6
7 7 7 10 9 9 9 10 9 8 8 7 7 6 6 6
16 32 41 32 38 36 29 33 38 38 11 0 10 0 0 0
0 0 0 0 0 2 34 34 29 27 47 50 50 50 49 48
48 47 40 43 10 5 12 32 29 31 30 24 13 5 5 5
4 5 4 2 1 0 0 0 1 2 3 8 8 7 5 4
5 6 11 98 115 125 129 110 122 142 146 148 148 148 147 147
148 148 147 144 142 147 147 146 146 143 141 137 139 138 139 103
14 13 12 10 10 9 8 9 8 10 8 10 7 2 8 8
6 6 9 9 10 9 7 9 9 8 8 7 7 7 6 7
7 6 9 16 22 27 25 33 38 38 13 0 6 0 0 0
0 0 0 0 0 2 33 34 28 22 23 23 22 22 22 21
21 19 24 42 12 3 10 32 29 22 11 8 8 8 8 10
9 8 8 7 7 4 2 2 1 2 6 9 7 5 5 6
5 4 6 92 116 120 131 137 116 124 135 141 143 145 146 146
147 147 143 146 148 148 148 147 146 142 142 137 138 138 138 89
19 13 12 10 10 9 10 10 10 10 11 10 10 6 4 8
6 7 7 8 10 11 9 9 11 9 7 6 5 6 7 6
7 5 5 5 5 10 17 30 37 38 14 0 2 0 0 0
0 0 0 0 0 2 33 33 27 23 20 17 17 16 16 17
17 16 22 42 13 1 7 21 11 8 10 9 10 10 10 10
9 9 10 12 10 8 7 5 6 7 11 9 8 8 7 6
4 6 6 63 113 121 135 144 144 135 101 117 128 138 143 147
147 143 147 149 147 148 148 146 146 143 140 139 138 143 142 87
19 15 13 11 10 10 8 11 13 12 13 13 14 9 4 6
8 8 8 8 8 10 9 8 9 10 10 7 7 7 9 8
5 7 6 5 5 4 4 6 28 37 15 0 0 0 0 0
0 0 0 0 0 2 33 34 28 26 24 22 20 20 19 19
19 17 24 43 24 11 7 8 9 9 10 9 8 10 10 10
10 10 11 11 10 10 10 9 9 12 11 9 9 7 5 5
6 8 7 25 109 116 131 144 148 148 137 92 115 127 137 138
139 148 148 149 149 148 148 147 142 142 138 138 140 142 143 92
21 17 16 16 16 17 16 15 15 16 13 11 10 11 9 2
8 7 8 9 8 9 12 9 9 9 11 8 8 7 8 8
6 7 8 7 5 5 5 5 5 17 15 0 0 0 0 0
0 0 0 0 1 5 35 35 27 27 26 24 25 25 24 23
22 19 24 24 9 7 7 8 9 10 9 9 9 11 10 9
9 10 12 11 10 10 10 10 13 13 12 13 11 9 8 7
7 10 9 5 95 112 127 142 148 148 149 140 97 117 120 133
149 149 149 148 148 148 147 145 144 138 137 138 145 145 146 65
16 14 12 13 12 10 11 13 12 11 11 10 9 9 9 9
4 8 8 9 10 10 11 10 9 9 11 10 9 8 8 9
8 7 9 8 8 7 6 7 5 6 6 0 0 0 0 0
19 20 21 22 23 25 30 29 27 27 25 24 24 23 24 24
22 13 7 7 7 7 8 9 10 10 8 9 11 9 11 9
11 12 11 10 10 10 9 14 16 15 15 14 12 10 11 9
10 13 15 4 83 112 125 141 146 147 148 145 118 99 124 148
148 149 148 148 149 148 148 144 139 139 140 142 144 148 142 48
18 14 14 14 12 13 11 11 11 9 10 10 11 13 11 10
5 4 9 10 9 10 11 11 12 8 11 9 9 8 7 7
9 7 7 9 8 7 6 7 8 11 9 0 0 0 0 0
30 29 28 28 28 27 27 27 27 27 26 25 25 24 22 13
8 6 6 7 7 8 6 9 9 8 9 11 10 11 10 11
13 13 11 9 11 9 12 16 15 16 19 17 16 13 12 11
9 13 16 12 87 114 120 137 142 146 143 72 114 129 122 147
150 149 149 148 148 147 145 144 139 137 142 142 146 148 129 30
19 15 15 13 11 11 9 10 11 9 10 12 12 11 9 9
10 6 7 10 12 10 12 12 11 9 10 11 12 9 8 8
8 9 7 8 9 8 7 6 7 7 9 1 0 0 0 0
30 30 30 29 29 28 28 28 28 26 27 26 25 16 7 6
7 6 7 7 6 8 9 11 9 10 10 11 11 10 10 10
13 10 10 10 10 12 14 14 14 15 15 15 13 13 13 11
12 15 18 26 100 118 117 133 140 145 91 65 134 116 108 130
149 149 149 148 148 146 142 143 139 142 144 144 147 148 92 34
21 15 13 13 10 11 12 10 12 12 13 9 9 10 9 9
9 8 6 8 11 11 13 13 13 12 11 11 14 10 10 10
8 10 8 8 10 9 8 7 6 5 7 3 0 0 0 0
29 27 26 25 24 23 23 23 24 26 26 22 8 5 6 7
6 7 8 7 7 8 11 9 9 8 10 10 11 12 11 12
13 12 9 10 8 14 14 13 13 14 16 13 14 15 14 12
12 16 19 34 117 125 117 130 141 130 55 109 139 145 129 124
148 149 149 148 147 142 141 139 142 143 146 146 148 143 107 75
19 16 16 17 17 16 12 11 11 9 8 8 8 11 9 9
12 15 11 5 9 11 14 13 13 12 10 10 12 10 9 8
9 11 8 11 11 9 8 9 6 5 7 2 0 0 0 0
7 5 4 12 18 20 19 25 25 25 21 6 5 5 6 7
6 8 8 8 8 10 11 10 11 10 12 10 12 12 12 14
12 12 11 8 17 19 18 16 15 15 16 14 14 13 13 13
13 16 20 44 130 128 120 127 136 89 72 123 141 144 131 101
140 149 149 149 146 143 143 144 142 146 145 145 148 140 126 98
18 16 13 13 13 11 11 11 11 9 9 11 10 11 12 13
15 12 11 11 4 11 13 14 13 13 13 12 12 11 8 8
11 9 12 10 10 9 10 9 5 7 6 3 0 0 0 0
11 0 0 9 19 23 22 24 25 25 10 10 4 8 7 7
7 10 8 8 8 9 9 9 10 11 12 10 10 10 12 14
14 12 10 13 15 14 15 15 14 15 15 16 16 16 17 17
17 16 20 61 134 126 123 123 132 61 91 146 145 145 134 109
131 144 149 148 145 140 141 142 146 146 147 148 148 129 134 99
21 16 17 15 12 14 12 14 12 10 12 13 14 14 13 12
12 11 11 12 8 6 11 15 14 14 12 9 11 13 9 8
10 10 11 10 12 9 10 9 3 8 7 0 0 0 0 0
39 6 2 9 17 22 23 24 24 23 5 7 6 9 7 7
9 9 9 8 10 12 8 9 10 12 10 11 11 11 13 10
11 10 10 15 15 14 16 15 14 15 13 13 13 15 15 15
16 18 23 77 130 130 126 121 122 40 83 150 140 127 128 131
125 138 149 147 143 143 146 144 146 146 147 148 145 135 133 81
17 16 17 15 15 12 13 14 15 15 16 15 14 12 12 10
11 11 11 11 10 4 5 12 14 13 12 10 10 13 11 9
9 11 11 9 10 10 12 10 2 8 8 1 0 0 0 0
54 26 15 16 15 19 21 22 24 18 2 8 7 8 6 7
10 7 10 8 12 11 9 9 10 11 9 11 11 13 15 11
10 9 16 15 14 13 14 15 15 14 15 14 14 14 16 14
18 19 24 91 131 131 133 120 104 36 82 149 143 125 129 128
135 133 146 147 146 145 145 147 146 147 145 147 138 125 118 96
22 16 19 16 16 14 12 16 17 16 14 12 12 12 12 12
12 13 12 14 14 3 1 10 14 13 13 12 11 11 12 10
11 11 11 12 10 10 11 10 0 7 6 0 0 0 0 0
57 37 21 21 17 20 22 24 26 16 3 7 6 7 8 8
9 8 8 9 11 8 9 11 12 10 10 10 12 15 13 12
10 15 17 18 16 16 15 13 13 14 13 13 13 13 15 15
18 18 28 107 135 131 133 133 100 37 91 151 147 124 114 127
136 144 136 146 144 144 146 147 147 147 143 144 133 124 123 103
21 16 19 15 13 15 14 14 14 16 14 13 11 12 13 14
13 13 15 16 8 1 4 11 13 11 13 12 10 12 12 10
12 10 11 11 8 9 12 7 1 8 6 0 0 0 0 0
37 28 23 21 20 19 18 16 15 8 3 6 5 7 8 10
8 9 7 9 10 9 10 11 11 10 10 10 10 14 11 10
13 15 15 15 14 16 17 18 16 16 15 14 14 14 16 16
18 18 26 107 138 138 131 124 113 52 90 151 150 141 117 118
128 139 135 142 145 147 147 145 148 145 145 139 129 143 141 112
23 16 16 16 16 15 14 17 13 14 15 12 12 12 12 14
14 13 13 11 1 1 6 10 12 14 14 11 10 10 11 12
11 8 11 11 8 9 9 3 2 6 5 0 0 0 0 0
31 21 12 12 13 12 12 12 13 3 3 8 5 7 9 11
8 8 9 13 9 9 9 11 11 11 11 10 12 12 11 8
13 14 15 14 14 13 15 15 15 17 16 17 17 18 16 15
16 20 26 109 139 141 137 127 120 83 83 152 150 149 132 114
120 125 132 131 147 148 148 148 146 146 147 117 124 141 145 127
22 18 17 15 14 13 13 13 14 11 13 14 14 15 16 15
13 14 12 4 0 3 9 10 12 10 12 12 11 9 10 13
11 10 12 9 7 8 8 1 4 7 3 0 0 0 0 0
33 23 13 12 12 12 12 11 11 2 2 8 3 6 11 11
8 8 9 12 8 10 11 12 10 11 12 11 14 10 8 13
13 14 14 14 12 14 15 15 16 14 13 12 18 17 14 15
15 20 26 113 142 144 138 105 112 121 97 151 149 149 144 122
119 121 126 123 146 149 147 146 147 149 148 137 143 141 139 118
23 16 16 15 16 14 17 14 14 12 11 15 16 13 13 13
12 14 8 0 0 9 11 9 12 10 11 13 11 10 11 11
12 11 8 8 8 8 6 0 6 6 2 0 0 0 0 0
32 22 11 11 10 11 10 10 8 1 3 8 4 6 11 10
9 7 10 10 8 10 10 11 8 10 10 11 13 10 7 13
16 15 15 13 11 13 13 13 14 15 12 13 16 18 16 14
14 19 28 110 143 140 133 89 140 144 105 151 150 150 149 140
124 113 117 116 136 147 147 147 146 147 147 148 145 139 145 100
28 18 16 15 14 14 14 13 13 15 12 13 11 14 14 11
12 7 2 0 4 11 11 9 9 8 11 13 12 9 9 11
12 10 8 8 8 5 2 1 6 3 0 0 0 0 0 0
32 24 12 14 16 18 20 18 10 1 3 9 4 4 10 10
9 10 12 10 8 11 11 10 13 11 10 12 11 10 9 6
13 15 15 16 16 15 15 13 15 12 14 14 14 15 15 14
14 19 24 109 145 139 130 130 147 137 111 143 148 149 149 147
144 130 115 106 128 143 147 148 147 146 146 145 138 145 138 96
38 17 15 15 15 15 16 13 14 13 14 17 11 10 12 12
12 4 0 2 11 14 12 9 9 10 11 11 12 11 9 9
13 8 8 7 5 4 0 3 8 3 1 0 0 0 0 0
