P2
128 120
154
37 37 36 35 35 33 33 33 31 31 31 30 30 28 28 27
26 25 25 24 23 22 22 22 21 21 20 19 19 18 18 17
18 16 17 5 0 0 0 0 0 0 0 0 0 0 0 2
6 3 1 0 0 0 0 0 0 0 0 0 0 0 1 0
0 0 0 0 0 0 0 0 0 0 0 0 0 0 0 0
0 2 6 11 15 18 18 18 18 19 18 19 20 20 20 21
22 22 22 23 24 25 25 25 26 27 27 28 28 29 29 29
29 30 31 32 33 33 33 34 35 33 35 35 35 36 36 36
37 36 36 36 35 34 33 33 32 32 31 30 29 28 28 27
27 25 25 24 24 24 23 22 22 21 21 20 20 19 18 17
17 17 16 12 2 0 0 0 0 0 0 0 3 3 0 10
13 11 8 5 1 0 0 0 0 0 0 0 0 0 1 0
0 0 0 0 0 0 0 0 0 0 0 0 0 2 5 9
14 17 17 18 18 19 19 20 21 21 21 21 22 22 23 23
23 24 24 25 26 27 27 28 28 29 29 30 30 30 31 32
32 33 34 34 34 35 35 35 36 36 36 37 36 37 37 36
38 37 35 35 34 34 33 32 32 32 31 31 30 29 28 28
27 26 26 25 24 24 23 22 22 21 21 20 20 19 19 19
18 17 17 16 11 5 2 0 0 0 4 7 10 8 0 11
15 12 11 11 10 6 2 0 0 0 0 0 0 0 0 0
0 0 0 0 0 0 0 0 0 0 1 5 11 15 17 18
19 19 19 21 21 21 22 22 23 22 23 23 24 24 25 25
26 26 27 28 29 29 29 29 29 29 30 31 32 33 33 33
35 35 36 35 36 36 36 36 36 37 37 37 37 37 37 37
37 37 37 36 35 34 34 33 32 31 31 30 29 29 28 28
27 26 26 25 25 24 24 23 23 22 22 21 21 19 19 18
18 17 17 15 13 10 7 7 4 6 11 13 14 10 1 11
15 13 12 12 11 10 9 5 1 0 0 0 0 0 0 0
0 0 0 0 0 0 1 4 9 13 15 17 17 18 19 19
20 21 20 21 22 23 23 24 25 25 25 25 26 26 27 28
28 28 29 29 30 29 30 31 33 32 33 33 34 35 35 35
35 34 35 36 37 36 36 36 36 36 37 37 38 38 38 39
38 37 36 36 36 35 34 33 32 32 32 31 31 30 28 28
28 27 26 25 25 25 24 23 23 22 22 21 21 20 20 19
19 18 18 17 15 12 9 8 9 13 15 15 15 12 4 11
19 18 16 14 13 11 11 9 7 4 3 0 0 0 0 2
0 0 0 2 6 11 15 17 18 17 18 19 20 20 21 21
22 22 23 23 24 24 25 25 26 26 27 27 28 28 28 28
29 30 30 31 32 33 33 33 35 34 34 34 35 36 36 36
36 37 37 37 37 38 37 37 37 37 37 37 37 38 38 37
37 37 37 36 35 35 34 34 33 33 32 32 31 29 29 29
29 27 27 26 25 25 24 24 24 23 22 22 21 20 19 19
18 18 17 17 15 13 12 9 10 13 16 15 17 14 8 14
21 19 17 17 15 13 12 11 8 8 5 5 6 10 12 12
3 4 11 14 17 17 17 18 19 19 20 21 22 22 22 24
24 25 25 25 25 26 26 26 27 27 28 28 29 28 29 30
31 31 32 32 33 34 34 34 35 35 35 35 36 36 36 37
36 36 37 37 36 36 36 36 37 38 37 38 38 38 38 37
38 37 37 36 35 34 34 33 33 32 31 31 31 30 29 29
28 27 27 26 26 26 25 24 23 23 22 22 22 21 20 19
20 19 19 18 17 15 13 11 11 13 16 17 19 16 11 16
23 21 18 17 17 16 14 12 10 9 9 8 12 15 13 14
12 16 17 18 19 20 20 20 21 20 22 22 22 23 24 24
25 26 26 27 27 28 28 28 29 29 29 29 30 31 31 31
33 33 33 34 34 34 35 34 36 36 35 35 36 35 35 35
36 36 36 37 37 37 37 37 37 37 38 37 37 38 37 37
38 37 37 36 35 35 34 33 33 33 32 31 31 30 29 29
28 27 27 27 26 26 26 25 24 23 23 22 22 21 21 21
20 19 18 18 17 16 14 13 13 16 19 21 21 19 11 15
24 21 19 18 17 16 15 15 12 12 11 9 12 15 15 14
16 18 20 20 20 21 21 22 22 22 23 24 24 25 26 25
26 27 27 27 27 27 27 27 28 29 30 30 31 32 33 33
34 34 34 35 35 35 35 35 35 36 35 36 36 36 36 36
36 36 36 36 36 37 36 37 36 37 37 37 37 37 38 38
38 37 37 36 36 35 35 34 33 33 32 32 31 30 30 29
28 28 27 27 26 26 25 25 24 23 23 22 22 21 21 20
20 20 20 19 19 17 16 15 15 18 21 22 23 19 11 13
25 22 20 19 19 18 17 15 14 15 14 10 10 15 14 16
17 20 22 21 22 23 23 24 24 24 25 25 25 26 26 27
27 27 27 28 28 29 29 30 31 31 31 31 32 32 33 33
33 34 34 35 35 35 36 35 36 37 36 36 36 37 36 37
36 37 37 37 37 37 37 37 37 38 37 37 37 36 35 35
38 37 36 36 35 35 34 34 33 33 32 32 31 31 31 30
29 29 28 27 26 25 25 24 25 24 23 23 22 22 21 22
21 21 20 19 19 18 16 16 16 20 22 24 25 21 13 13
26 22 21 20 20 18 17 16 15 17 15 12 10 17 15 17
19 20 21 21 22 23 24 24 24 25 26 26 27 27 27 28
28 28 29 29 29 30 30 30 31 32 32 32 33 33 34 34
34 35 35 35 35 35 36 35 35 37 35 36 36 36 36 36
37 37 37 37 38 38 38 37 36 36 36 36 37 37 38 37
38 37 37 36 36 35 35 33 33 32 32 32 31 31 30 30
28 28 28 27 27 26 26 25 25 24 23 23 23 22 22 21
21 21 20 20 19 19 18 18 17 21 23 24 24 21 14 12
25 23 22 21 20 20 19 18 17 17 17 13 10 17 16 19
21 22 23 23 24 25 25 25 26 26 26 26 27 27 27 28
28 29 29 30 31 30 31 32 32 34 32 33 33 34 34 34
34 34 34 34 35 35 36 36 36 37 36 36 37 37 37 37
37 36 37 37 36 36 36 37 38 38 37 38 37 38 37 37
38 38 37 36 35 35 34 34 34 33 32 32 32 31 31 29
29 28 27 26 26 26 25 25 25 25 24 24 24 22 22 22
21 21 20 20 20 19 19 19 19 22 25 25 25 22 15 13
27 24 22 21 21 21 19 18 18 18 18 15 12 17 18 21
23 23 24 24 25 25 26 26 26 27 27 27 28 28 29 29
29 29 30 30 30 31 31 31 32 33 32 33 33 34 34 34
35 35 35 35 36 36 36 35 36 37 36 37 37 36 37 36
36 35 37 37 37 37 37 37 37 37 37 38 37 38 37 38
38 37 37 37 36 34 35 34 33 33 33 32 31 30 31 30
29 29 28 27 27 26 26 26 25 25 24 24 23 22 22 22
22 22 21 21 21 20 20 20 21 23 26 26 26 23 16 12
26 24 22 22 22 21 20 19 19 19 18 16 13 17 19 21
23 24 25 24 24 26 26 27 27 28 28 28 29 29 29 29
29 30 30 30 31 31 32 32 32 34 33 33 33 34 34 34
34 34 35 35 36 36 36 36 36 37 35 36 35 35 36 37
38 37 36 36 37 37 38 37 37 37 37 37 37 37 37 37
37 37 37 35 35 34 34 33 33 33 32 32 31 31 30 30
30 29 28 28 27 27 26 26 25 25 25 24 24 23 22 22
22 21 21 21 20 20 20 19 20 23 26 26 27 23 17 13
26 25 23 22 22 21 21 21 20 18 18 17 13 19 20 23
23 24 24 25 26 26 27 27 28 28 28 28 29 29 29 30
30 30 31 31 31 32 32 32 32 34 33 33 34 34 35 35
34 34 35 36 36 35 34 34 34 34 36 36 37 37 37 37
36 37 37 37 38 36 37 36 37 36 37 36 36 37 36 36
38 37 36 35 36 35 35 34 33 32 32 32 31 30 31 29
29 29 28 28 28 27 27 26 26 25 25 25 24 23 23 23
22 22 21 22 21 21 20 20 21 24 26 26 27 24 17 13
24 25 23 22 23 22 22 21 21 20 20 19 16 19 21 23
25 25 26 26 27 27 27 28 28 28 29 29 29 29 30 30
30 31 31 31 32 32 32 32 33 34 33 34 34 34 35 34
34 32 34 34 34 35 36 37 37 36 36 37 36 36 36 36
36 37 36 36 37 36 37 37 37 37 37 37 38 37 37 36
38 37 37 36 35 35 34 34 33 33 33 32 31 31 31 30
29 29 28 28 28 27 26 26 25 25 25 25 24 23 23 23
22 22 22 22 21 21 20 21 22 25 27 27 28 25 19 15
24 26 23 22 23 22 22 21 21 21 20 20 18 22 23 25
26 27 27 27 28 28 28 28 29 29 29 29 29 30 30 30
30 31 32 31 32 32 32 33 33 34 34 34 34 34 33 33
35 35 35 36 36 36 37 36 36 36 36 37 37 36 37 37
37 37 37 37 37 37 37 37 37 37 37 37 37 37 37 37
38 37 37 36 35 35 34 35 34 33 33 32 32 31 31 30
30 29 29 28 28 27 27 27 26 26 26 26 24 24 24 24
23 22 22 22 21 21 22 21 23 25 28 28 28 25 19 14
21 26 23 22 23 23 23 23 22 22 22 21 19 22 24 26
25 27 27 27 27 28 29 29 29 30 30 30 31 31 31 31
32 32 32 32 33 33 33 33 33 34 33 33 32 32 34 35
35 37 36 36 36 36 37 36 36 37 37 37 38 37 37 37
37 37 37 37 37 37 37 37 38 38 37 38 37 37 37 37
38 38 36 36 36 35 35 35 34 33 33 33 32 32 32 31
31 30 30 29 29 28 28 28 26 27 27 26 26 25 25 24
25 24 23 23 23 22 23 23 24 27 29 29 29 26 21 11
18 27 25 25 25 24 24 25 23 22 23 23 20 25 26 28
28 28 28 29 29 29 29 30 30 30 31 31 31 31 32 32
33 33 33 34 34 34 33 32 32 33 34 34 35 36 36 37
37 38 37 36 37 37 38 38 37 37 37 37 37 38 37 37
37 37 38 38 38 38 39 38 38 37 38 37 37 37 37 36
37 38 37 37 36 36 35 35 35 35 34 34 33 32 32 31
31 31 30 30 29 29 29 29 28 28 27 27 27 26 25 25
25 24 24 24 24 24 23 24 25 28 30 30 30 27 19 14
21 28 26 26 26 25 25 26 25 25 25 24 21 25 27 28
28 28 28 29 29 30 31 31 31 31 32 32 33 33 33 33
34 33 33 32 33 34 34 35 35 35 36 36 37 37 37 38
37 38 38 38 38 38 38 38 38 37 37 38 38 38 38 38
38 38 39 38 38 38 38 38 38 38 39 38 38 38 38 38
38 39 39 38 37 37 36 36 36 35 34 35 35 34 34 34
32 33 31 31 30 30 30 29 28 28 28 28 28 27 27 26
26 26 25 25 25 24 24 25 26 28 31 31 31 28 21 21
22 30 28 28 27 27 26 27 26 25 25 25 22 26 27 30
30 29 29 30 31 30 32 32 32 33 33 33 33 33 34 34
34 34 35 35 35 35 35 36 36 37 37 37 37 39 38 38
38 39 39 40 39 39 39 39 40 39 39 39 39 39 39 39
40 39 39 39 39 39 40 39 40 39 39 39 39 38 37 37
39 38 37 37 37 37 37 36 36 36 35 35 34 34 34 33
33 32 31 31 31 31 30 30 29 29 29 29 28 27 27 26
26 25 25 25 25 24 24 25 26 29 32 31 31 28 22 23
22 30 28 28 28 27 27 28 27 26 26 26 23 27 28 28
27 30 28 27 25 28 32 33 32 33 33 33 33 33 33 34
34 34 35 35 35 34 36 36 36 37 37 38 38 38 38 39
39 40 39 39 39 38 39 39 38 38 39 39 39 39 39 39
40 39 39 39 39 40 39 39 39 38 38 39 38 39 39 39
39 38 38 38 37 37 37 36 36 36 35 35 34 34 33 33
33 33 32 32 31 30 30 30 29 28 29 28 28 27 27 27
27 26 26 25 25 25 25 25 26 29 31 31 31 29 22 24
22 30 29 28 28 28 28 28 27 26 26 24 23 25 24 24
26 24 21 16 17 19 28 31 29 30 32 31 29 31 33 34
35 33 33 35 35 36 36 37 37 37 38 37 37 38 38 38
39 39 39 38 39 39 38 39 39 39 39 38 39 38 39 39
39 39 39 39 39 38 38 38 39 39 39 39 38 38 37 38
38 37 38 37 37 37 37 36 36 36 35 34 35 34 34 33
32 32 32 31 31 30 31 30 30 29 29 29 28 27 28 27
26 26 25 26 25 25 25 25 26 29 32 32 32 29 23 25
21 29 29 28 28 28 27 28 28 23 16 13 14 14 18 21
21 18 15 14 17 7 12 23 23 27 26 23 25 32 31 30
30 33 33 33 35 35 36 35 37 36 36 37 38 38 39 39
39 39 39 39 39 39 39 39 39 39 39 39 39 39 40 39
39 39 38 38 39 39 39 38 38 38 39 38 38 38 39 38
39 38 38 38 38 37 37 36 36 36 36 35 34 34 34 34
33 33 32 32 31 31 30 30 30 29 29 28 28 28 27 27
27 26 26 25 26 26 25 25 26 29 32 32 32 29 23 25
23 29 29 29 29 28 28 26 16 5 2 4 4 4 5 9
9 8 10 8 5 1 4 6 7 10 15 18 19 22 18 22
26 28 30 34 36 36 36 35 36 37 37 36 38 38 39 39
39 39 39 38 39 39 40 40 39 38 39 39 38 38 39 39
39 39 38 38 38 39 38 38 39 38 38 38 38 38 38 37
38 37 38 37 37 37 36 36 37 36 36 35 35 34 34 34
33 33 32 32 31 31 31 31 30 29 29 29 29 28 28 27
27 26 26 25 25 25 25 25 26 30 33 33 33 30 23 26
24 29 29 29 29 28 22 9 1 0 2 1 0 0 2 4
3 1 1 0 0 0 2 5 7 9 11 13 16 15 15 13
13 18 23 28 29 35 37 37 36 36 37 37 36 38 39 39
39 39 40 39 39 39 38 38 38 38 38 39 39 39 38 39
38 38 38 39 37 37 38 37 38 37 37 38 38 38 37 37
38 38 38 37 37 37 37 36 36 35 35 35 35 34 33 33
33 32 33 32 31 31 31 31 30 30 29 29 28 28 28 28
27 27 27 26 26 26 26 26 27 30 33 33 32 30 23 26
25 28 30 29 29 19 8 0 0 2 1 0 0 0 1 0
1 0 0 0 0 0 0 1 6 8 5 9 12 12 16 20
21 19 19 23 24 28 33 33 34 33 35 37 37 37 39 39
38 37 38 38 37 37 38 39 40 40 38 39 39 38 38 38
38 38 38 39 38 38 38 38 39 38 38 38 38 38 38 37
38 37 37 37 37 37 37 36 36 37 36 35 35 34 34 34
34 33 33 32 32 31 31 30 30 30 30 29 29 28 28 28
27 27 26 26 26 26 27 27 27 30 34 34 33 31 23 26
26 28 29 28 15 6 0 0 2 3 0 1 0 0 0 2
2 1 0 0 0 0 0 1 6 1 1 1 4 4 6 10
11 13 13 14 16 21 24 23 23 23 28 35 35 34 37 38
38 38 39 40 40 39 39 39 39 40 39 38 39 38 39 39
39 38 39 38 38 38 38 38 38 38 38 38 39 38 38 38
39 38 38 38 37 37 37 36 36 35 35 35 35 34 34 34
34 33 33 32 32 32 31 30 31 30 30 30 29 29 28 27
28 28 27 27 27 27 27 27 28 31 34 33 34 31 23 27
28 26 28 17 8 0 0 3 8 0 1 0 1 0 2 2
2 0 0 0 0 0 1 9 3 0 0 1 1 0 1 5
9 8 9 8 8 12 12 13 15 19 21 22 32 31 37 39
39 39 39 40 40 39 40 40 40 40 40 39 39 39 39 38
39 38 39 38 38 38 38 38 38 39 39 38 39 39 38 38
38 38 37 37 37 37 37 36 36 36 36 35 35 35 35 34
34 33 33 33 32 32 31 31 31 31 30 30 29 29 29 28
28 28 27 27 27 26 27 27 28 31 34 34 34 32 24 27
29 25 21 10 0 0 1 8 0 1 1 0 0 1 2 3
0 0 0 0 1 0 5 9 0 0 1 2 0 2 4 4
4 7 8 8 9 7 9 8 10 13 13 17 24 34 33 40
41 40 40 40 40 39 39 39 39 39 40 38 38 38 38 38
39 39 39 39 38 38 38 38 37 38 39 38 38 39 38 38
38 38 38 38 37 37 37 36 36 36 36 35 35 34 34 34
34 33 33 33 32 32 32 32 31 30 30 30 30 29 29 28
29 28 28 28 28 28 28 28 28 31 35 34 35 32 23 26
30 19 10 3 0 1 7 4 2 3 0 1 1 1 3 1
0 0 2 0 0 1 12 1 0 2 2 3 4 5 5 8
9 12 11 9 10 9 7 5 4 5 10 11 15 25 36 36
40 40 40 40 40 39 39 39 40 40 40 38 39 39 38 39
39 38 38 38 38 38 39 39 39 39 39 38 39 39 38 38
38 38 38 37 37 37 37 37 36 36 36 36 36 35 34 34
35 33 33 32 32 32 31 31 30 30 31 30 30 29 30 29
29 28 28 28 28 27 28 28 29 31 35 35 34 32 24 27
28 8 7 0 3 6 6 3 7 1 0 0 1 3 6 1
0 1 1 0 0 6 8 0 0 3 4 3 6 5 7 13
19 30 25 25 29 22 16 13 10 7 5 10 15 17 34 33
40 40 40 40 40 40 40 40 39 39 40 38 39 39 39 39
39 39 39 39 39 39 39 38 39 39 39 38 38 38 37 36
38 38 38 38 37 37 37 37 37 36 35 36 35 35 35 34
34 33 33 33 32 33 32 32 31 31 31 30 30 30 30 29
29 28 28 28 28 28 28 28 30 32 35 35 35 32 24 24
11 10 3 3 6 10 7 6 4 2 3 1 3 8 4 1
1 0 1 0 5 13 2 1 2 7 6 5 9 9 10 23
32 57 51 58 66 65 43 25 14 8 6 5 11 15 24 30
39 39 39 39 39 39 39 39 38 39 40 38 39 39 39 39
39 39 39 39 39 38 39 39 39 38 38 37 34 34 34 35
38 38 38 37 37 37 36 37 36 36 36 35 35 35 35 34
34 34 33 33 32 32 32 32 31 31 30 31 30 30 30 30
29 29 28 28 28 28 28 29 29 32 36 35 35 33 24 17
7 6 1 6 7 9 8 6 6 2 4 2 8 10 1 1
1 1 1 4 9 8 3 3 6 7 5 6 14 10 12 33
45 68 71 85 96 96 83 58 21 5 4 7 5 14 19 28
38 40 39 40 39 38 39 39 39 39 39 38 38 39 39 39
39 39 40 38 38 38 37 37 37 37 38 38 37 37 37 37
38 38 38 37 37 37 37 36 36 36 36 35 35 35 34 34
33 33 33 33 33 33 32 32 32 32 31 31 31 30 30 30
29 29 28 29 28 28 28 29 30 32 35 36 36 33 20 8
9 2 9 8 10 10 6 10 6 5 5 9 11 6 1 2
1 3 1 7 7 7 3 9 8 6 10 10 18 12 17 37
49 74 84 98 107 110 103 89 60 4 0 0 5 7 15 25
36 39 40 39 39 39 39 39 40 39 40 39 40 39 39 38
38 38 37 37 38 38 39 39 38 38 37 37 38 38 37 36
38 38 38 37 38 37 36 36 36 36 35 36 35 35 35 34
34 33 33 32 32 32 32 31 32 31 31 31 31 30 31 30
30 29 29 29 28 29 29 29 30 32 36 35 36 31 16 7
4 8 11 7 12 8 8 7 7 4 9 10 7 4 1 6
3 4 3 7 6 8 10 12 2 8 9 14 21 13 27 36
58 82 94 104 114 117 114 104 89 48 1 0 0 5 9 22
34 39 39 39 39 40 40 40 40 39 38 36 36 37 37 37
38 39 40 40 37 37 38 37 36 37 36 36 35 36 36 35
37 38 37 37 37 36 36 36 37 36 36 35 36 34 34 34
33 34 34 33 33 32 32 32 32 31 32 31 31 30 31 30
29 29 29 29 28 29 29 28 30 32 36 36 35 28 8 8
4 13 8 9 12 9 9 8 4 8 8 10 6 2 2 3
4 4 7 6 10 11 12 3 4 11 11 16 24 14 36 44
71 92 105 107 115 121 118 114 105 85 32 0 0 0 3 20
33 39 39 39 39 38 37 37 38 38 38 38 39 38 38 38
37 39 39 39 37 37 37 37 37 37 36 37 36 37 36 35
22 35 37 38 37 37 36 36 36 36 35 35 35 35 34 34
34 34 34 33 33 33 33 32 32 32 32 31 31 31 31 30
30 30 30 30 29 29 28 29 30 32 36 36 34 19 13 5
8 10 9 13 12 9 14 11 10 10 11 9 5 4 7 4
10 7 9 10 16 13 5 5 9 13 10 20 26 18 42 58
83 100 111 116 120 122 120 121 116 106 79 13 0 0 0 13
34 38 38 38 37 38 40 39 39 39 38 38 38 37 38 38
38 38 38 39 37 38 37 38 38 37 37 37 36 36 36 35
15 33 37 37 37 37 36 36 36 36 36 36 35 35 34 34
34 33 33 33 33 32 33 33 32 32 32 32 32 31 31 30
30 30 29 29 29 29 29 30 30 32 36 36 28 12 9 5
12 12 12 12 7 16 16 10 18 12 10 5 11 8 10 11
11 11 10 12 14 10 6 14 18 15 12 26 27 30 49 78
94 110 112 122 128 124 121 125 123 116 100 53 0 0 0 10
35 39 40 38 39 38 39 39 38 38 38 38 37 38 38 38
38 37 37 38 37 36 36 36 37 36 36 36 36 35 36 35
16 33 38 38 37 37 36 35 35 36 36 36 35 35 35 35
35 34 34 33 33 33 33 32 35 39 37 34 32 31 30 30
30 30 30 30 30 29 29 30 31 33 36 34 19 13 8 7
14 9 13 8 12 17 13 9 15 10 9 11 15 12 10 14
15 18 12 17 13 12 15 17 20 19 17 31 28 42 63 94
102 114 120 128 130 127 129 130 130 124 112 88 16 0 0 8
34 38 40 39 38 39 39 39 38 39 38 38 38 38 38 38
37 37 38 38 36 37 38 37 37 36 36 36 35 35 35 34
15 32 37 38 37 36 36 41 45 43 41 38 37 35 34 35
35 34 34 33 33 33 34 32 40 48 45 41 39 37 32 30
30 30 30 29 30 29 30 30 31 32 36 28 16 9 7 9
12 11 14 10 14 15 9 12 13 9 16 22 18 15 15 14
17 17 12 19 20 16 13 27 22 18 22 32 31 50 74 96
109 121 127 133 130 130 133 134 133 127 117 103 55 0 0 6
34 38 39 39 38 38 38 37 38 38 38 38 37 37 38 38
37 37 37 38 37 37 36 37 36 37 37 36 36 35 36 35
18 34 39 37 37 36 36 44 49 47 45 42 40 40 40 36
36 35 34 34 33 33 34 33 40 45 43 40 41 42 38 32
31 32 30 30 30 30 30 30 31 32 34 23 16 11 7 8
11 17 11 10 14 15 8 17 15 12 20 20 18 20 17 16
17 12 15 23 20 20 23 29 22 22 27 35 37 54 88 94
119 123 137 139 137 134 133 134 133 129 120 109 85 6 0 5
37 37 39 39 39 39 39 38 38 37 37 38 37 38 38 37
38 37 37 38 37 37 38 37 36 37 37 35 36 35 35 35
19 37 40 40 38 38 37 44 50 48 44 43 45 47 47 41
42 40 38 34 34 34 33 33 38 37 38 38 41 42 40 33
31 31 31 30 30 30 30 30 32 32 32 18 14 11 7 11
14 16 9 15 11 13 13 13 12 15 25 18 20 20 18 19
14 15 18 24 24 21 34 26 24 28 32 43 43 75 99 105
124 133 142 141 141 139 135 131 130 127 120 111 99 29 0 8
37 37 39 39 38 38 39 38 38 37 38 38 38 37 37 38
38 38 37 37 37 37 37 36 36 36 36 37 36 35 36 36
19 40 43 39 40 42 40 43 29 35 42 46 48 50 47 34
31 39 41 41 40 39 38 35 36 21 16 17 21 26 32 34
32 32 31 31 30 30 30 31 32 32 30 22 15 15 9 11
8 12 10 12 14 12 12 11 14 20 23 22 26 16 21 22
19 17 23 21 22 24 31 23 28 30 37 37 56 87 102 115
129 141 142 142 142 141 139 133 129 126 119 110 102 53 0 11
38 38 39 39 39 38 38 38 38 38 39 39 38 37 38 38
38 38 38 38 38 37 38 38 37 37 36 36 36 35 34 34
18 39 43 35 35 41 46 46 4 0 13 27 31 35 43 21
0 3 9 18 24 32 39 39 36 19 6 11 10 3 11 35
31 31 31 31 30 30 30 31 32 33 30 22 16 7 7 13
10 12 11 11 14 9 11 11 10 18 17 25 24 22 28 23
19 19 24 21 17 26 27 25 28 30 31 43 63 89 100 124
141 142 143 143 142 142 141 137 129 124 118 107 104 73 0 18
39 38 39 39 39 37 38 37 37 37 38 38 38 38 38 38
39 39 39 39 38 38 38 37 36 36 36 34 34 35 36 37
18 31 40 42 42 42 49 48 4 0 2 11 14 14 30 20
0 0 0 0 0 2 5 16 37 17 1 3 5 1 10 36
31 32 32 32 31 31 31 31 32 33 25 17 13 6 11 12
13 12 16 11 13 11 12 11 14 17 16 21 15 27 25 23
20 24 21 21 21 27 25 28 26 27 36 47 71 88 111 133
143 142 142 142 142 142 142 140 134 128 120 111 102 83 1 25
38 39 39 39 39 38 37 37 38 38 38 37 38 37 37 38
38 38 38 36 35 36 36 36 37 37 37 37 37 36 36 36
15 2 5 12 23 34 43 46 7 0 1 6 8 9 28 24
0 0 0 0 0 0 0 6 37 13 0 0 2 1 10 37
33 32 32 31 31 31 31 32 33 32 16 15 10 9 15 13
16 12 11 8 10 12 10 15 15 14 20 18 20 28 25 17
16 26 19 23 22 25 25 26 25 28 43 57 82 106 128 141
142 143 143 143 142 142 142 141 137 131 125 115 103 91 9 35
40 39 39 39 39 38 38 38 38 38 39 38 38 39 39 38
38 38 38 38 38 37 37 36 36 36 37 36 37 36 36 36
14 0 0 0 0 0 4 19 8 0 0 0 0 4 25 20
0 0 0 0 0 0 0 5 36 6 0 0 0 0 11 39
32 32 33 32 32 32 32 33 34 28 16 14 15 14 14 13
13 11 10 8 14 13 12 14 14 14 14 12 22 26 17 17
15 17 18 20 22 23 20 26 28 33 50 71 107 128 141 143
143 142 140 133 124 118 110 101 88 77 70 60 98 98 33 36
39 39 40 38 39 39 39 39 39 39 39 39 40 40 40 39
39 38 38 38 38 37 37 37 37 37 37 37 38 37 37 37
15 0 0 0 0 0 0 9 7 0 0 0 0 1 27 22
0 0 0 5 8 0 0 4 36 5 0 0 0 0 10 40
33 33 33 32 33 32 33 33 32 24 16 13 14 15 13 11
10 12 12 12 14 12 15 9 12 12 11 14 16 22 28 19
22 19 20 24 21 21 17 17 19 31 42 40 44 44 39 33
25 19 15 14 14 14 13 15 17 14 20 12 14 84 66 38
40 40 39 40 41 41 41 40 40 40 40 40 40 40 40 40
39 39 39 39 39 39 39 39 39 39 38 39 40 38 38 39
15 0 0 0 0 0 0 8 6 0 0 0 0 1 29 24
0 0 0 8 15 9 3 3 37 4 0 0 0 0 8 40
33 33 33 33 33 33 32 33 32 19 13 11 14 15 16 13
14 14 17 18 15 10 12 13 10 9 9 14 16 23 23 24
21 23 24 17 33 34 31 24 20 24 17 13 13 12 11 13
14 15 16 16 14 12 11 11 12 10 18 9 1 14 73 42
40 40 40 41 40 40 40 40 39 38 39 40 40 40 40 39
40 39 39 39 40 40 40 39 40 40 39 39 38 37 36 35
15 1 0 0 9 2 0 6 5 0 0 0 0 1 27 27
0 0 0 10 15 14 12 3 35 5 0 0 0 0 6 41
34 33 34 33 33 33 33 33 32 17 17 13 10 17 19 16
16 15 22 20 14 14 14 8 8 10 10 13 17 28 31 19
16 22 14 18 22 16 17 16 17 23 26 29 32 32 32 31
30 28 26 26 26 25 20 15 11 8 9 9 3 2 28 52
41 40 41 41 40 39 41 40 40 38 39 40 40 40 40 40
40 41 40 40 40 39 39 39 40 38 36 35 35 34 33 31
14 0 7 4 5 1 0 6 6 0 0 0 0 4 28 29
0 0 0 8 14 14 12 2 35 10 0 0 0 0 4 40
33 33 34 33 34 33 34 34 29 13 16 12 9 15 14 13
14 19 23 16 17 15 14 15 12 12 12 17 18 18 15 6
11 17 14 25 29 30 40 52 83 109 119 120 118 118 113 110
102 93 84 82 81 72 55 25 11 3 12 25 2 7 4 44
40 40 40 40 39 40 40 39 39 39 39 40 41 41 41 40
40 39 37 36 36 36 37 36 35 31 27 23 21 17 15 13
15 3 8 0 2 1 0 6 7 0 0 0 0 8 31 35
1 1 2 0 5 12 11 1 35 39 30 21 16 11 16 41
34 34 34 34 34 33 33 32 21 12 11 9 9 13 17 15
18 19 22 17 20 15 16 15 11 11 15 28 62 89 78 32
23 38 51 52 47 56 80 109 133 143 143 143 143 143 143 143
143 143 143 143 142 131 98 44 27 13 13 18 0 4 8 22
41 40 40 40 40 39 39 39 38 37 38 40 38 37 38 37
38 35 32 29 26 22 20 17 15 14 15 14 16 16 16 17
15 2 1 0 0 0 0 9 27 15 9 8 2 1 27 49
34 29 24 15 8 5 5 1 35 46 43 43 43 47 49 46
33 33 33 33 33 33 33 31 16 13 3 6 6 13 19 23
24 18 17 16 18 15 13 11 13 12 42 122 112 103 92 99
82 53 59 62 66 90 123 139 144 143 143 143 143 143 142 142
142 143 142 142 141 141 107 52 41 22 21 11 0 1 5 14
39 39 38 37 37 36 39 36 37 34 36 34 31 27 24 21
18 16 15 15 15 15 15 16 17 19 20 19 20 21 21 21
15 1 0 0 0 0 0 11 52 47 39 40 38 30 41 49
21 23 27 30 30 30 31 32 45 42 41 43 45 51 53 48
34 34 34 34 33 34 33 29 17 10 4 11 13 17 21 21
20 20 17 17 10 13 14 11 13 11 113 126 133 138 130 96
123 93 83 80 93 118 139 143 143 142 143 142 142 142 142 142
143 142 142 142 142 137 85 50 38 19 27 10 0 2 9 6
28 37 36 36 35 32 29 26 24 21 19 18 17 16 16 16
18 19 20 20 20 14 22 23 24 24 25 24 25 25 14 25
15 2 0 0 0 0 0 12 55 44 48 51 55 52 48 41
15 14 14 14 14 15 16 19 23 21 26 31 36 39 38 39
33 33 33 33 33 33 32 30 16 7 14 15 11 23 17 22
18 16 15 13 12 13 16 15 6 43 140 139 143 144 135 76
121 110 105 113 123 139 142 142 142 143 143 142 142 142 141 142
142 142 142 141 141 125 58 37 25 7 28 7 0 1 10 4
8 25 23 20 19 18 18 18 19 19 19 21 23 23 24 24
25 26 26 27 26 10 26 27 28 28 25 25 29 19 25 31
18 29 28 19 11 5 2 13 46 39 48 52 55 54 44 34
17 15 15 14 12 11 10 9 9 9 11 13 26 32 30 30
33 34 34 33 33 33 32 28 12 11 11 20 14 23 17 21
14 19 18 15 16 12 16 10 5 82 141 144 144 144 134 86
129 135 129 140 142 143 143 143 143 143 142 142 142 143 142 142
141 142 142 141 140 100 39 27 9 0 24 4 0 1 9 13
4 18 20 21 21 22 24 24 25 26 27 27 29 29 29 30
30 25 24 30 31 19 22 32 32 31 20 28 28 20 32 31
19 40 51 49 46 43 40 41 40 33 44 49 52 53 46 38
20 15 13 11 10 10 10 10 10 11 12 14 29 18 22 33
33 34 32 32 33 32 31 29 13 13 13 18 20 24 11 16
14 14 16 17 13 15 13 3 8 109 144 145 144 144 142 122
132 144 143 143 142 142 143 143 142 143 143 143 142 142 142 143
142 142 142 141 135 75 34 21 16 1 23 0 0 1 9 8
11 24 26 27 28 28 30 30 31 32 31 31 32 33 33 33
33 33 28 26 33 30 13 34 33 31 17 30 19 29 30 34
18 41 52 51 50 51 50 52 30 6 12 20 27 33 33 38
22 15 11 4 4 4 9 12 12 12 15 17 30 28 26 41
39 37 19 19 34 33 33 31 15 14 11 19 18 20 5 13
13 14 22 17 16 20 9 4 18 118 144 144 144 144 144 124
122 144 143 143 143 143 143 143 143 143 143 143 143 143 143 142
142 143 142 142 140 95 56 40 16 4 10 0 0 0 10 16
15 29 32 32 33 33 34 34 34 34 34 34 34 35 35 34
35 35 34 29 26 33 13 27 35 31 18 22 26 30 31 34
18 35 46 47 48 50 51 52 24 0 0 0 0 8 16 39
21 13 9 0 0 0 3 9 6 3 9 12 28 43 37 37
38 40 34 30 33 33 33 33 14 16 14 17 14 17 8 13
8 14 18 20 17 18 10 9 36 117 145 143 145 144 124 51
130 144 144 143 143 143 143 143 143 142 143 143 143 143 143 143
143 143 142 142 142 110 63 43 22 6 3 0 0 1 19 77
44 33 34 35 35 36 36 36 37 36 36 36 36 34 36 35
36 36 36 36 28 27 24 16 33 27 20 17 34 30 32 34
24 29 33 34 37 37 41 47 20 0 0 0 0 0 9 40
20 11 9 0 0 1 0 0 0 0 0 2 25 42 30 26
26 29 32 35 33 33 33 31 12 12 12 20 14 18 2 8
4 15 15 22 22 18 21 14 56 114 144 143 145 139 122 57
139 141 141 144 143 143 143 143 143 143 143 143 142 143 143 143
143 143 142 142 142 118 67 43 20 7 1 0 0 5 34 99
106 43 37 38 37 36 37 36 37 37 37 37 36 36 35 35
34 35 36 36 35 28 24 9 15 13 15 26 33 30 32 32
21 23 21 25 33 31 37 47 18 0 0 0 0 0 3 42
15 6 0 0 0 8 5 0 0 0 0 0 24 44 31 22
34 31 29 33 34 34 33 32 17 12 12 15 10 8 0 5
5 16 17 21 27 24 19 22 81 90 143 144 145 139 119 121
139 92 111 145 144 143 143 142 143 144 143 144 143 143 143 143
143 143 143 143 142 125 66 45 24 10 1 0 0 26 35 116
121 92 40 39 38 38 38 38 38 37 38 38 37 37 37 35
35 35 35 35 36 34 26 9 0 0 21 30 32 29 32 30
21 22 26 29 34 34 40 46 17 0 0 0 0 0 4 41
5 0 0 0 0 4 12 6 0 0 0 0 23 44 30 16
28 25 28 32 34 34 34 33 23 13 18 14 14 1 0 0
7 15 21 24 27 24 19 29 103 103 128 143 144 137 135 136
117 88 81 146 143 142 143 143 144 144 143 143 143 143 143 143
143 143 143 143 143 135 70 42 26 13 6 0 7 49 48 127
122 117 69 38 38 38 38 37 37 38 38 38 38 37 36 36
35 34 35 35 35 34 34 22 0 5 30 31 26 27 31 31
21 8 4 9 15 20 28 34 17 0 0 0 0 0 6 43
5 0 0 0 0 4 15 12 10 0 0 0 22 45 33 16
21 21 25 32 34 34 34 34 25 11 15 14 7 0 0 2
9 14 24 23 26 24 17 43 111 126 127 144 144 143 141 137
131 114 66 140 144 143 143 143 143 143 143 143 143 143 143 143
144 143 144 143 143 142 101 40 24 15 10 0 29 45 82 133
128 123 110 47 38 38 38 37 37 37 37 37 37 37 36 37
37 35 34 34 34 34 36 31 1 6 32 29 23 23 30 33
25 7 0 0 0 0 0 4 14 0 0 0 0 0 6 40
3 0 0 0 3 16 19 15 13 0 0 1 23 45 35 25
22 17 24 31 34 34 34 33 28 13 17 10 12 1 0 1
5 11 22 21 23 22 19 50 112 121 124 136 144 145 142 142
136 121 90 113 145 144 144 144 143 144 144 144 144 143 143 143
143 143 143 143 142 142 134 57 23 17 17 14 53 31 119 134
128 126 121 80 38 38 38 38 38 38 37 37 37 37 36 35
36 35 34 33 34 35 35 32 3 4 33 32 24 23 33 34
25 7 0 0 0 0 0 3 14 0 0 6 3 0 5 39
2 0 0 0 2 14 21 8 4 0 0 1 20 45 38 27
14 5 17 31 35 34 35 33 31 15 15 8 10 3 1 2
4 12 16 16 25 20 19 61 110 115 119 121 145 145 144 144
144 142 119 127 145 144 144 144 143 143 143 144 144 143 144 143
143 144 143 144 143 143 141 112 35 19 25 37 44 100 138 132
126 125 122 111 45 38 38 38 37 38 36 37 37 37 36 36
37 36 36 34 35 35 35 32 4 3 32 34 25 23 33 34
24 8 0 0 4 0 0 2 13 0 2 18 12 1 5 37
2 0 0 0 0 0 15 2 0 0 0 0 15 45 37 20
9 5 13 29 34 35 35 34 32 18 8 7 3 3 0 3
5 12 16 14 21 22 24 66 107 113 115 115 134 146 145 145
145 144 144 143 143 143 143 143 143 143 144 144 144 144 143 143
143 143 143 143 143 143 142 139 105 55 49 88 138 143 138 118
116 128 130 121 63 37 38 37 37 37 37 37 37 37 37 36
36 36 36 33 34 35 35 34 6 2 31 33 24 22 32 34
23 8 0 4 18 6 1 1 15 0 7 17 14 4 5 36
1 2 0 0 0 0 15 4 0 0 0 0 11 44 34 12
8 0 13 29 34 35 35 34 31 19 4 1 0 0 0 6
5 14 14 12 14 19 28 75 106 110 113 113 117 142 145 145
144 144 145 142 139 143 142 143 143 143 143 143 143 143 143 143
144 143 143 143 143 143 143 141 132 123 120 130 140 140 138 126
128 137 140 128 79 37 38 37 37 37 37 37 36 36 35 36
36 36 36 34 34 31 33 31 7 1 22 24 17 20 31 33
21 8 0 8 19 8 2 1 35 31 34 34 32 27 25 38
1 0 0 0 0 0 15 6 0 0 0 0 7 43 30 8
7 0 19 28 33 35 35 35 31 20 4 1 0 0 0 1
4 9 16 11 12 21 32 81 107 111 112 113 116 121 142 145
145 145 144 144 139 143 143 143 143 143 143 144 144 143 143 143
143 143 143 143 143 143 142 142 139 131 128 130 129 132 135 138
142 142 141 133 89 38 38 38 38 37 38 37 37 37 37 36
36 36 35 33 32 28 22 24 8 0 25 33 27 23 31 33
21 10 0 2 4 1 0 1 37 42 47 47 46 50 53 46
9 6 5 0 0 1 18 8 1 2 0 0 4 37 29 6
1 3 11 27 33 35 35 35 29 25 4 1 0 0 2 0
3 9 17 9 15 24 32 83 107 111 113 115 117 116 116 138
145 145 145 144 136 135 143 143 143 142 142 143 143 144 142 143
144 143 143 143 143 143 143 142 140 134 130 127 123 130 140 141
142 142 138 134 98 38 38 39 38 38 37 37 36 37 37 36
36 35 35 34 33 34 34 33 12 0 23 31 26 22 27 29
22 18 7 0 1 0 0 0 37 43 46 45 46 53 56 52
33 31 30 24 22 22 26 20 16 13 13 10 15 32 32 13
11 13 5 20 33 35 35 34 29 31 13 4 0 0 2 2
4 8 16 4 16 27 34 77 104 111 115 118 117 116 112 103
129 143 144 143 130 120 141 143 143 143 143 144 144 143 144 143
143 143 143 143 143 143 142 142 141 135 132 124 119 134 143 140
129 109 118 124 90 38 38 38 37 36 37 37 37 37 36 36
36 35 35 34 34 33 33 34 15 0 21 32 28 21 28 32
24 23 6 0 0 0 0 0 33 36 40 40 41 45 44 44
37 37 38 36 35 36 35 33 30 27 26 24 25 35 40 29
26 22 17 20 33 35 35 33 28 35 19 4 3 0 3 4
4 9 12 6 10 25 39 77 106 112 118 122 123 121 117 106
102 116 125 124 109 117 144 143 143 143 143 142 143 143 143 143
143 143 143 143 143 142 143 142 141 138 132 121 119 136 132 92
79 46 109 109 63 38 39 38 37 37 36 36 36 36 36 35
35 34 34 33 33 33 34 34 18 0 20 34 29 21 28 32
26 20 1 0 0 0 0 0 37 37 38 38 38 37 33 34
38 38 40 39 39 38 37 37 37 40 39 35 34 38 48 45
45 43 41 35 34 34 35 34 30 35 21 10 3 0 4 4
2 8 11 4 9 20 44 76 109 119 127 134 139 136 131 121
113 121 138 135 120 133 142 142 143 143 143 144 144 144 143 143
143 143 143 143 142 142 143 142 141 136 131 122 122 118 109 120
126 122 101 63 41 39 38 38 38 37 37 37 37 37 36 36
36 35 35 34 33 34 34 33 19 0 17 34 29 21 27 31
23 25 23 19 14 12 8 7 40 39 37 37 38 38 38 41
42 41 44 48 47 39 37 37 40 49 47 44 42 42 38 32
32 33 33 33 34 35 35 34 30 34 26 9 1 0 1 4
3 6 10 8 17 20 49 85 113 119 131 140 145 145 145 144
144 145 145 144 144 143 140 137 143 143 142 143 143 143 143 143
143 143 143 143 143 143 142 142 142 135 130 127 129 124 122 125
88 48 41 40 40 38 39 38 38 37 37 36 36 36 36 36
35 35 35 34 32 33 34 33 21 0 16 33 29 21 27 32
24 32 47 49 45 46 50 48 52 43 40 41 40 41 44 47
46 42 45 51 50 39 35 33 39 50 47 45 44 44 40 32
27 26 25 27 33 35 35 33 28 35 34 9 0 0 1 1
4 3 6 7 16 19 54 91 113 121 132 139 145 145 146 145
145 144 144 143 144 142 140 135 136 139 142 143 139 143 142 143
143 143 143 143 142 142 142 142 142 136 132 134 135 128 119 116
64 39 39 39 39 37 37 36 36 36 35 35 36 35 35 35
35 35 34 33 32 33 35 33 24 1 14 33 29 20 26 31
25 34 56 56 56 56 56 55 55 43 34 33 33 34 40 48
49 43 43 42 42 41 37 33 33 39 34 34 39 40 39 38
33 32 31 33 35 36 35 33 30 37 39 20 1 0 6 2
8 5 9 3 15 21 52 96 113 120 132 140 144 145 145 145
145 144 144 144 144 142 139 133 124 135 143 141 142 143 142 143
143 143 142 143 142 142 143 143 142 137 132 133 129 122 114 107
53 39 38 38 38 38 38 37 37 36 36 35 35 35 35 34
34 34 35 33 32 32 35 34 25 1 12 33 31 20 25 31
26 27 37 40 41 43 46 48 50 29 7 7 3 6 9 24
48 42 28 12 16 19 19 27 34 22 5 2 6 14 21 37
35 35 38 41 43 42 36 32 31 37 39 33 5 0 6 5
10 2 8 4 12 23 52 102 111 118 130 138 144 146 146 145
145 145 145 145 145 143 141 135 132 133 140 138 142 143 144 144
144 143 143 143 143 142 142 142 142 135 127 121 120 115 109 101
46 39 39 38 38 38 37 37 36 35 36 36 37 36 35 36
35 34 35 34 32 32 34 34 27 1 10 33 31 22 25 31
25 23 31 31 30 29 29 29 32 20 1 0 0 0 0 11
47 37 8 0 0 2 8 27 37 22 0 0 0 5 17 29
16 20 23 26 31 44 37 31 32 37 39 38 15 1 5 3
3 8 5 11 12 27 51 105 113 117 129 137 142 145 145 145
145 145 145 145 144 144 142 137 141 139 138 138 143 143 143 143
143 142 142 143 143 142 143 142 142 135 125 113 113 117 116 100
41 38 38 37 37 37 36 36 36 35 36 35 36 36 36 35
35 34 35 34 32 33 34 34 28 2 10 33 32 22 23 31
23 26 37 38 38 37 36 35 36 22 4 0 0 0 3 21
46 25 0 0 0 0 1 28 37 24 0 0 0 2 15 26
1 5 6 1 7 41 38 31 33 37 39 39 22 3 5 4
4 10 5 8 12 27 52 104 116 119 126 137 143 146 146 146
146 146 145 145 145 145 143 140 138 140 135 135 141 138 143 143
143 143 144 144 144 142 143 142 143 129 115 111 119 126 107 84
41 39 38 38 37 36 36 35 36 35 35 35 35 35 34 36
35 34 36 35 33 33 34 33 29 2 9 31 30 20 21 30
24 28 40 41 40 40 40 41 41 23 4 0 0 0 1 13
43 16 0 0 0 0 0 27 37 23 0 0 0 1 13 27
1 10 13 2 5 41 39 31 35 38 39 40 31 8 4 7
6 2 3 8 11 26 58 106 116 118 125 135 143 146 146 145
146 146 145 145 145 144 144 143 139 135 136 134 135 139 140 142
142 143 143 143 143 143 143 143 141 127 114 112 117 104 85 67
39 39 39 38 37 36 36 37 36 36 36 35 36 36 35 35
35 34 34 33 32 31 32 31 29 3 7 28 29 21 23 32
29 30 36 37 38 39 40 40 44 25 0 0 0 1 7 6
41 13 0 0 0 0 0 27 35 22 0 0 0 0 9 30
2 4 6 1 4 39 39 30 35 37 39 40 37 11 4 8
7 3 3 11 16 31 62 106 119 119 123 129 139 145 146 146
146 146 145 146 145 144 144 143 139 138 140 138 136 138 140 142
143 143 144 143 143 143 142 142 142 127 103 93 102 111 105 72
44 39 38 37 37 36 36 35 35 35 35 34 33 35 35 35
35 34 34 34 32 31 32 32 30 5 5 29 30 22 21 29
37 36 36 36 36 36 36 31 41 33 4 0 0 1 4 3
40 11 0 0 0 0 0 27 36 21 0 0 0 0 3 30
3 8 9 2 4 39 39 30 36 37 40 40 40 24 1 2
3 2 2 10 24 51 76 108 122 120 123 129 138 146 146 146
146 146 145 145 145 144 145 144 142 144 142 140 134 135 135 141
140 142 142 143 143 142 142 141 139 121 104 117 116 112 100 85
60 37 36 36 34 34 35 35 35 35 35 35 36 34 34 34
34 34 33 32 31 31 32 32 30 6 3 27 30 22 20 28
37 36 36 35 35 35 35 30 39 36 8 0 0 2 7 3
38 11 0 0 0 0 0 22 37 24 3 0 0 0 2 33
5 1 3 1 2 37 38 30 35 37 39 40 39 35 8 1
0 0 2 14 40 67 104 117 123 122 121 126 136 146 147 146
146 146 146 145 145 144 144 143 144 143 140 134 131 133 132 134
134 142 142 141 142 137 138 133 129 115 118 124 127 117 93 71
57 38 36 31 35 60 23 27 35 35 34 33 33 34 33 33
33 32 33 32 30 30 31 32 30 7 1 25 30 22 19 27
35 34 34 34 34 34 35 31 38 34 0 0 0 0 0 2
37 11 0 0 0 0 0 18 39 22 0 0 0 0 0 32
9 0 1 0 2 34 36 30 35 36 39 40 39 37 26 4
0 0 1 24 65 97 115 124 125 123 120 125 134 145 146 146
146 146 145 145 145 145 143 143 144 144 142 136 129 132 127 129
134 139 136 137 137 134 133 128 123 125 127 119 96 52 29 32
41 37 28 0 2 44 0 7 35 34 34 33 33 33 32 33
32 32 32 31 30 28 30 30 30 8 0 24 29 23 19 27
9 9 10 11 15 27 34 32 35 29 0 0 0 0 0 0
36 15 0 0 0 0 0 14 38 22 1 0 0 0 1 32
13 0 0 0 4 34 35 29 34 36 38 39 36 34 32 21
13 12 8 40 85 104 118 125 125 123 118 122 134 144 146 145
145 145 145 145 145 144 144 144 144 143 142 134 121 128 129 125
123 124 130 135 137 135 133 129 128 125 117 94 88 79 19 27
36 36 27 0 1 19 0 6 34 34 33 33 33 33 32 32
32 32 32 32 30 28 30 31 31 10 0 22 30 23 18 26
0 0 0 0 2 30 34 32 32 28 2 0 0 0 9 3
32 23 7 7 9 8 8 20 41 28 26 24 24 27 30 42
19 4 3 3 6 32 32 28 34 35 37 36 32 35 34 25
25 34 32 57 93 106 118 126 126 121 116 121 131 142 145 144
144 144 144 143 143 143 143 143 143 142 135 124 120 124 128 125
122 119 123 128 133 133 130 124 126 115 102 91 110 85 38 36
35 35 28 0 0 0 0 4 32 33 33 33 33 32 32 32
32 32 32 31 29 28 30 30 30 12 0 20 30 23 17 25
0 0 0 0 1 31 35 31 29 38 33 29 26 29 34 30
33 40 46 43 42 44 44 46 45 29 37 41 44 48 53 53
39 30 29 28 29 33 30 27 31 33 35 33 34 35 33 26
24 35 43 68 94 107 119 125 126 121 115 117 127 138 144 144
144 145 144 144 143 143 143 143 141 136 130 125 127 127 122 114
118 120 119 116 120 122 127 122 114 106 99 102 104 73 36 36
35 34 29 0 0 0 0 2 32 33 34 33 33 32 32 31
32 31 32 31 29 28 30 30 30 14 0 17 30 23 16 24
0 0 0 0 0 29 36 31 27 42 44 37 38 41 37 31
29 35 51 49 48 47 51 51 49 31 33 40 43 48 53 53
41 30 31 31 31 31 31 28 29 32 32 34 36 34 34 27
25 35 67 73 96 106 119 128 126 120 114 116 126 140 144 144
144 144 144 144 143 142 143 140 139 129 127 123 127 119 120 116
116 115 114 115 118 117 128 122 118 107 97 93 89 63 34 22
16 12 9 0 0 0 0 1 31 34 33 32 33 32 32 32
32 32 31 31 30 27 28 30 29 14 0 15 29 23 16 24
0 0 0 0 0 27 37 32 28 43 38 33 36 39 39 31
26 27 35 37 37 36 36 36 37 30 26 31 34 35 32 31
33 32 32 32 32 31 31 30 30 30 32 37 37 35 34 26
26 33 78 80 98 108 118 128 129 119 112 115 123 139 145 145
145 144 144 144 144 145 142 142 139 132 131 132 122 118 117 117
109 115 112 113 117 114 118 117 118 104 81 67 67 43 28 4
0 0 0 0 0 0 0 1 31 34 33 34 33 33 32 32
32 31 31 31 30 28 29 30 30 17 0 13 29 25 16 23
0 0 0 0 0 25 37 32 28 41 27 29 29 32 37 32
27 25 21 23 24 24 25 25 28 30 32 34 36 34 30 27
30 32 33 33 32 32 31 31 32 33 36 38 37 35 32 25
27 27 93 86 99 108 119 125 128 120 112 113 123 135 144 145
145 144 144 143 143 142 143 140 139 129 130 126 128 121 117 117
115 109 107 106 108 107 106 108 109 88 67 71 49 29 35 7
0 0 0 0 0 0 0 0 30 34 34 33 33 33 33 32
32 32 32 32 30 28 29 30 30 18 0 11 30 26 17 23
0 0 0 0 0 21 37 30 29 41 12 7 10 12 15 15
18 28 27 31 31 37 39 35 36 38 39 43 45 43 34 31
30 32 33 33 32 32 32 31 32 34 36 38 37 32 29 28
21 40 108 88 101 109 118 125 125 119 112 111 119 135 143 145
145 145 144 145 144 143 143 143 139 138 140 128 127 121 115 115
113 110 105 103 98 93 88 91 79 64 67 53 17 28 37 23
0 0 0 0 0 0 0 0 30 35 34 33 33 33 32 32
32 32 32 31 30 28 31 31 31 20 0 10 29 26 17 22
0 0 0 0 0 18 38 31 34 44 8 0 0 0 0 2
13 28 33 44 39 49 53 26 20 22 23 27 36 47 37 33
31 32 33 32 32 31 32 32 32 33 36 38 34 28 26 27
9 57 123 90 102 108 117 124 123 118 109 110 117 135 146 146
145 146 145 144 144 143 143 141 142 140 138 131 124 120 112 103
100 102 95 88 90 81 74 57 48 44 42 21 17 29 37 32
10 2 0 0 0 0 0 0 8 27 35 34 34 33 33 33
33 33 32 32 30 29 30 33 32 23 0 8 28 26 18 22
0 0 0 0 0 16 39 31 35 48 12 0 0 0 0 0
16 29 31 44 29 31 42 10 0 0 0 0 16 45 37 33
33 32 32 33 33 33 32 32 32 33 36 38 32 22 5 9
8 78 124 106 108 110 119 125 124 119 109 104 116 134 145 145
146 145 145 145 145 145 145 144 144 144 139 137 125 109 103 95
93 87 80 71 65 62 56 41 37 31 30 34 33 35 28 19
10 1 0 0 0 0 0 0 0 23 36 35 35 34 34 33
33 32 32 33 32 30 30 31 31 23 0 6 26 23 17 21
0 0 0 0 0 12 38 31 34 47 17 0 0 0 0 0
15 29 29 41 12 2 24 10 0 0 0 0 11 43 38 33
33 33 33 33 32 32 32 31 32 33 36 36 31 23 7 7
7 83 122 130 110 115 120 125 123 117 108 103 116 134 145 145
146 146 145 145 145 144 145 143 144 142 136 131 125 115 102 90
77 70 60 50 39 30 19 13 9 8 17 27 35 33 9 0
9 18 0 0 0 0 0 0 0 20 34 33 34 34 33 34
33 33 33 33 33 31 30 32 31 25 0 4 22 21 17 21
0 0 0 0 0 10 37 31 28 19 2 0 0 0 0 0
17 28 29 42 12 0 22 14 0 0 0 0 6 40 38 32
32 32 33 33 32 32 32 32 33 33 35 33 22 16 7 7
11 96 119 137 114 120 123 126 122 117 107 105 110 134 145 146
146 145 145 145 145 144 145 144 144 144 139 127 115 98 85 71
54 36 23 13 7 2 1 1 2 2 2 1 5 8 0 0
6 13 0 0 0 0 0 0 0 19 35 34 34 34 33 33
33 33 33 34 33 31 30 32 31 25 0 2 20 20 18 21
0 0 0 0 0 8 36 31 27 14 0 0 0 0 0 0
19 28 29 41 12 0 20 16 0 0 0 0 4 39 39 33
33 33 33 32 32 32 32 32 30 22 11 2 1 6 6 5
12 102 122 128 139 104 124 128 124 115 107 104 100 129 144 146
146 145 145 145 145 145 145 145 145 143 135 118 98 79 62 43
9 0 0 0 0 0 0 0 1 0 0 1 2 2 2 2
2 0 0 0 0 0 0 0 0 15 31 35 34 35 34 34
34 34 35 35 34 31 30 31 29 24 1 1 19 19 17 21
0 0 0 0 0 6 37 32 28 16 0 0 0 0 0 0
16 28 29 42 12 1 18 16 0 0 0 0 2 38 38 32
32 32 32 32 32 32 31 21 6 0 0 0 7 7 7 7
15 115 122 124 136 123 100 128 124 115 108 106 112 125 142 145
146 145 145 145 145 145 145 145 145 143 137 114 100 99 89 28
0 0 1 3 0 0 0 0 0 0 0 0 0 0 1 0
1 3 4 1 0 0 0 0 0 0 5 15 12 16 35 35
35 35 35 36 36 33 30 30 29 23 1 1 19 20 19 21
0 0 0 0 0 5 36 31 27 17 0 0 0 0 1 0
13 30 30 42 16 2 16 20 2 0 0 0 2 35 39 32
33 33 33 32 31 23 10 6 2 0 0 6 7 7 8 10
15 115 127 126 129 140 115 100 120 115 108 108 113 129 142 145
145 146 145 145 145 145 144 145 145 143 131 113 117 108 87 7
4 5 5 5 2 0 0 0 0 0 0 0 0 1 4 7
7 7 8 8 7 5 5 7 7 7 6 5 4 10 37 37
37 38 38 39 39 37 35 34 31 27 3 0 23 27 25 28
0 0 0 0 0 4 36 31 27 18 0 3 0 0 8 3
10 31 30 43 25 6 14 20 4 5 5 0 1 33 38 31
32 32 30 21 11 8 10 7 1 1 7 6 6 9 7 9
16 116 127 127 127 136 144 103 93 111 110 108 115 129 142 145
145 145 145 144 145 144 145 145 145 138 117 112 111 115 87 7
6 6 6 5 3 2 0 0 0 0 0 1 5 6 8 9
8 9 8 9 9 7 6 8 9 10 8 7 8 17 50 51
51 52 52 52 52 49 45 41 39 36 5 0 24 13 9 9
0 0 0 0 0 3 34 32 27 22 1 6 0 1 12 14
11 35 31 42 24 17 13 18 2 10 8 0 0 30 37 31
29 18 10 8 9 11 13 7 2 9 8 7 6 6 9 11
20 115 129 128 129 130 138 144 85 86 109 110 116 131 142 145
145 146 145 145 145 146 146 144 144 127 113 119 130 122 84 6
8 6 6 5 6 6 2 0 0 1 6 6 7 8 9 10
10 10 8 9 9 9 9 7 7 7 12 29 47 51 55 55
55 55 55 55 53 51 46 41 40 38 8 0 24 1 0 0
0 0 0 0 0 3 34 32 28 28 27 30 31 31 35 37
36 43 32 42 17 23 15 24 15 18 16 14 15 27 28 16
7 6 10 12 11 11 11 4 8 13 10 6 6 7 8 9
20 106 130 128 130 129 134 144 142 71 90 111 119 134 142 145
145 146 145 145 145 145 145 144 138 117 128 136 131 124 85 7
8 6 5 4 5 3 4 3 4 6 8 8 6 7 9 7
9 10 8 8 10 11 8 8 8 7 7 6 14 32 48 51
52 52 51 49 50 46 41 39 39 38 9 0 19 0 0 0
0 0 0 0 0 2 33 32 26 28 45 47 48 49 49 49
51 50 37 42 10 13 16 29 25 26 25 24 18 12 7 8
8 8 9 9 8 8 6 5 12 10 9 7 7 5 8 10
19 95 128 131 129 132 132 139 144 140 73 99 118 132 142 145
146 145 146 146 145 145 144 142 130 132 142 139 129 120 78 8
10 9 6 5 6 6 7 6 6 7 5 8 7 6 6 8
7 10 9 9 10 11 11 8 9 8 7 6 7 8 9 22
40 42 40 32 38 36 29 33 38 38 11 0 11 0 0 0
0 0 0 0 0 1 32 32 26 25 44 48 47 47 46 45
45 44 37 40 9 2 11 29 27 27 18 10 8 8 7 8
8 9 9 8 8 7 2 13 13 12 8 8 8 10 10 12
19 74 129 130 130 130 134 136 143 146 138 80 115 135 144 145
146 146 145 145 145 144 137 135 141 143 143 136 124 119 65 9
11 9 8 9 9 10 10 10 9 6 8 8 9 8 7 8
8 9 10 9 8 10 10 9 8 8 7 8 7 7 8 6
6 10 19 24 24 27 25 32 37 38 13 0 6 0 0 0
0 0 0 0 0 1 31 31 25 20 21 21 20 20 19 20
19 17 22 40 11 1 8 26 16 9 6 6 8 7 9 7
9 9 9 8 9 5 11 15 16 14 11 11 10 8 6 9
16 52 127 129 131 130 132 139 143 145 146 137 98 135 146 146
146 145 145 146 144 127 134 146 144 143 140 134 118 115 35 12
13 11 9 10 9 9 9 9 8 8 6 8 8 8 5 6
9 9 11 10 9 10 12 12 9 8 7 8 8 7 8 7
5 5 5 5 10 22 32 33 37 38 14 0 3 0 0 0
0 0 0 0 0 1 31 32 26 21 17 15 15 15 15 15
16 14 20 40 13 2 6 7 7 8 8 8 10 7 8 8
9 9 8 7 5 7 12 13 13 14 11 8 8 6 7 10
19 36 125 127 129 133 130 132 139 145 146 147 138 119 146 146
146 146 146 144 128 135 146 145 145 143 138 129 113 101 7 16
13 12 10 9 9 10 9 9 10 9 8 6 8 10 7 7
9 8 8 9 9 9 10 11 11 8 8 7 10 7 7 10
8 6 6 5 4 5 15 29 34 36 16 0 0 0 0 0
0 0 0 0 0 1 31 31 25 24 21 19 20 18 18 17
18 16 23 35 11 6 5 7 6 7 7 9 7 8 8 8
10 8 9 9 5 13 14 12 12 12 12 10 8 7 8 10
18 47 125 131 130 130 130 135 136 144 147 146 147 141 131 146
146 146 145 126 137 146 146 146 145 144 137 124 111 79 4 16
14 14 13 13 12 11 14 12 13 12 13 9 6 6 9 8
7 9 8 12 10 9 10 11 11 9 8 8 8 8 6 7
8 8 6 6 5 6 4 7 26 35 16 0 0 0 0 0
0 0 0 0 0 3 33 32 25 25 24 22 22 22 22 21
20 16 11 6 5 6 7 8 6 7 8 9 8 8 9 10
10 9 8 5 13 15 14 13 12 12 10 10 10 9 10 14
20 67 131 133 131 130 131 131 138 144 147 147 147 147 144 135
145 145 131 139 146 146 146 145 143 144 133 116 116 74 9 20
18 18 16 16 14 13 15 15 13 12 11 10 7 7 9 8
8 9 9 11 12 12 9 9 11 10 8 10 6 8 8 8
9 9 8 7 6 7 5 10 9 20 15 0 0 0 0 0
17 18 19 20 21 23 28 28 25 25 23 22 22 22 22 21
12 5 5 5 6 6 9 7 6 8 8 8 8 8 10 9
7 8 6 10 14 16 17 18 18 16 14 13 14 12 13 15
22 79 139 138 136 133 131 131 139 141 145 146 147 146 145 127
134 128 135 146 146 146 146 145 144 141 129 116 121 79 16 15
13 13 12 12 11 11 11 10 10 10 10 9 9 8 6 8
7 10 10 10 12 13 11 9 11 11 9 9 9 8 9 8
8 9 9 8 6 6 7 10 10 14 20 0 0 0 0 0
28 27 26 27 26 25 25 26 25 24 24 23 23 21 13 6
3 4 5 5 5 8 6 6 6 9 8 10 8 10 12 9
7 6 6 15 12 12 13 13 13 13 13 13 13 11 10 13
19 83 145 145 138 134 133 132 137 142 145 144 146 146 109 115
143 131 105 137 146 145 144 144 143 135 125 119 131 86 20 18
15 13 13 13 14 11 11 10 9 10 10 11 10 10 6 8
9 11 11 11 12 11 11 9 11 12 14 9 8 8 9 10
8 7 9 8 8 6 5 5 7 9 22 0 0 0 0 0
28 27 27 27 26 26 26 26 25 24 24 22 13 4 4 4
5 4 5 5 6 7 7 7 7 9 8 8 8 9 11 7
7 4 13 12 11 12 13 14 14 13 14 15 14 13 12 14
22 95 148 145 140 138 134 131 134 142 144 145 146 134 88 131
138 119 90 105 144 146 145 146 141 131 119 124 132 103 21 14
13 12 12 12 11 10 11 10 10 11 13 12 11 10 10 7
11 10 11 11 12 13 13 12 10 11 13 9 10 9 8 10
8 9 10 9 7 7 5 4 6 6 23 0 0 0 0 0
26 25 24 23 22 21 21 21 21 23 21 7 4 5 3 5
5 4 5 5 7 7 7 7 8 9 11 10 9 10 10 9
5 11 17 17 13 12 13 12 14 13 14 13 11 11 13 16
18 74 148 147 145 141 136 132 132 139 142 145 141 113 123 143
147 128 111 111 123 146 146 143 137 125 122 128 135 107 28 17
14 15 12 11 10 11 11 12 13 10 8 9 9 8 9 9
9 10 12 12 12 13 13 12 12 11 11 10 8 9 11 10
10 11 10 10 9 9 3 6 6 3 18 0 0 0 0 0
5 3 3 10 16 18 17 23 22 11 2 3 4 4 3 5
5 5 5 7 9 7 8 8 10 8 10 10 11 12 10 7
6 13 13 13 16 14 13 14 15 14 16 13 13 15 13 15
19 50 147 147 145 142 139 133 132 137 143 143 124 113 119 140
145 138 83 112 100 134 144 144 133 124 127 131 134 118 32 15
14 15 16 14 12 11 11 10 9 9 10 10 9 9 11 14
11 8 11 12 13 12 12 12 12 9 10 13 8 8 10 10
11 9 10 10 10 8 2 8 6 2 14 0 0 0 0 0
10 0 0 7 16 20 19 22 10 4 2 3 5 4 3 6
4 5 5 8 8 7 8 9 9 9 9 7 12 11 8 4
12 14 13 11 12 12 12 12 11 11 13 16 16 18 16 14
19 40 139 147 147 144 144 138 130 132 139 143 82 129 134 139
147 130 96 102 103 98 142 144 129 126 130 132 132 123 53 15
14 14 13 12 12 10 11 11 9 10 10 11 12 13 13 12
12 12 7 11 11 13 13 13 12 9 12 12 9 9 10 9
11 8 12 10 11 9 1 9 8 1 9 1 0 0 0 0
36 5 1 8 15 20 21 18 4 6 2 4 4 4 5 7
6 5 7 7 7 8 8 12 8 8 8 8 11 7 3 8
13 13 13 12 12 13 13 14 13 14 13 15 12 14 15 17
19 33 122 147 144 143 142 140 134 134 139 121 49 123 142 143
145 140 114 99 89 84 125 142 128 130 131 133 134 132 61 14
14 17 13 13 14 12 11 10 11 13 15 14 13 12 12 11
12 12 9 6 10 11 14 13 12 10 11 12 11 8 10 11
10 8 8 10 11 7 0 6 5 1 5 1 0 0 0 0
52 24 13 14 13 17 19 12 3 2 5 5 4 4 7 5
7 6 9 8 6 7 8 10 9 9 9 11 11 4 4 14
15 13 12 11 12 11 12 13 11 13 12 12 14 12 16 19
18 26 95 148 145 144 145 144 139 133 138 75 47 129 144 143
141 145 123 101 98 89 105 140 129 131 131 134 134 138 64 16
17 16 16 15 13 13 14 14 16 14 12 12 13 10 11 11
11 12 10 6 7 11 13 12 13 11 10 10 11 9 10 8
9 10 8 10 11 7 1 7 6 0 4 2 0 0 0 0
54 36 20 19 15 17 20 8 3 4 7 4 4 6 7 6
7 6 11 6 6 7 9 7 8 9 9 13 8 2 10 11
13 15 15 15 14 13 12 12 11 13 12 14 14 15 15 17
19 22 61 145 142 141 143 142 140 136 133 47 46 142 146 144
137 146 141 108 98 84 100 135 134 131 132 136 137 139 67 14
17 17 17 14 14 14 16 17 14 13 13 13 12 11 12 12
12 14 14 3 8 10 11 12 13 11 9 11 11 11 10 9
10 10 8 9 10 5 1 6 8 0 6 2 0 0 0 0
34 26 20 19 18 16 15 3 2 4 6 4 4 6 6 6
6 7 8 6 7 9 10 6 8 7 8 10 3 6 11 12
14 12 11 13 15 15 15 16 15 13 13 12 14 15 15 17
17 17 35 136 143 143 143 143 143 138 116 42 55 145 147 145
137 146 145 123 99 89 111 128 134 135 136 134 136 134 64 17
17 16 16 14 14 16 14 16 16 13 12 11 12 13 12 13
14 13 7 2 8 10 11 12 12 10 10 9 10 11 8 7
9 10 7 8 8 1 4 7 4 0 8 2 0 0 0 0
29 19 10 11 10 10 9 0 2 3 3 5 5 9 4 6
5 8 7 6 7 8 8 7 7 7 10 6 3 10 12 11
11 11 11 10 13 13 13 13 14 14 13 15 15 14 14 16
17 23 39 126 142 139 141 143 141 139 109 43 62 144 147 144
138 146 146 139 117 90 126 119 137 138 138 133 136 138 54 15
17 16 15 14 13 18 13 14 15 11 13 13 13 14 15 13
13 12 0 6 9 9 12 10 11 12 9 9 10 12 9 9
9 9 8 8 8 0 5 6 2 0 7 2 0 0 0 0
30 20 10 11 10 10 9 0 1 6 3 5 6 8 5 6
7 10 6 6 7 9 7 9 7 6 8 0 6 13 12 12
13 12 9 12 12 12 14 12 11 10 14 16 12 12 13 16
19 44 50 117 144 140 142 143 142 115 93 46 70 147 146 146
143 143 143 145 137 103 120 104 127 136 140 135 134 136 43 16
19 16 16 15 14 16 14 14 12 13 15 16 13 13 11 13
13 4 0 9 11 8 9 8 11 11 12 9 10 12 10 9
8 9 8 7 5 0 7 4 2 0 5 2 0 0 0 0
29 20 9 9 9 8 6 0 2 6 2 5 7 8 6 5
7 9 5 7 7 9 7 7 8 9 7 0 3 10 13 14
12 11 9 10 10 11 10 11 9 10 11 15 15 13 12 13
18 46 62 122 138 141 143 141 136 102 76 41 65 143 145 147
146 146 144 143 140 134 127 86 89 140 140 137 128 132 38 15
18 17 15 16 15 17 14 15 14 14 13 13 14 13 12 13
7 0 5 10 11 7 8 8 11 10 10 9 10 9 12 8
8 8 8 6 1 1 6 3 1 0 2 1 0 0 0 0
29 21 10 11 14 15 13 0 1 6 0 5 8 6 6 4
9 8 6 7 9 8 7 6 7 9 8 1 0 3 11 11
11 14 15 14 12 12 11 10 11 11 10 14 12 12 11 13
17 28 47 120 135 142 144 137 136 122 82 38 82 143 142 143
142 142 142 144 145 136 135 83 62 130 142 139 124 131 33 18
18 15 16 15 15 14 15 14 15 14 15 12 14 12 12 9
1 1 10 11 11 7 8 9 9 12 10 9 8 9 11 8
8 5 5 5 0 3 9 3 2 0 0 0 0 0 0 0
