P2
128 120
152
38 37 36 36 35 34 33 33 32 31 30 29 29 28 28 27
26 25 25 24 23 23 23 22 22 21 21 20 19 19 18 17
17 17 16 5 0 0 0 0 0 0 0 0 0 0 0 3
7 3 0 0 0 0 0 0 0 0 0 0 0 0 1 0
0 0 0 0 0 0 0 0 0 0 0 0 0 0 0 0
0 1 4 9 14 16 16 16 17 17 18 18 19 19 20 20
21 21 22 22 23 23 24 24 25 26 27 27 28 29 29 28
29 30 30 31 32 33 33 34 35 34 35 35 36 36 37 37
38 37 36 36 35 34 34 33 32 31 31 31 30 29 28 28
27 26 25 25 25 24 23 23 21 21 21 20 19 19 18 18
18 17 17 13 4 0 0 0 0 0 0 1 3 3 0 10
14 11 9 6 2 0 0 0 0 0 0 0 0 0 1 0
0 0 0 0 0 0 0 0 0 0 0 0 0 1 4 8
13 16 16 17 17 17 18 19 19 20 19 20 21 21 22 22
23 24 24 24 26 26 27 27 28 29 29 29 29 29 30 31
32 34 34 34 35 35 36 36 36 36 36 37 37 37 37 37
37 36 36 35 35 34 33 33 32 32 31 31 30 28 29 27
27 26 26 25 23 24 24 23 22 23 22 21 21 19 19 18
18 17 17 15 11 6 3 0 0 1 5 8 11 8 1 12
15 12 11 10 10 6 2 0 0 0 0 0 0 0 0 0
0 0 0 0 0 0 0 0 0 0 1 5 11 14 16 17
17 17 18 18 19 19 20 20 21 21 21 22 22 23 24 24
25 25 26 27 28 28 28 28 29 29 31 31 32 33 34 33
34 34 35 36 36 36 36 36 36 36 36 38 37 38 37 38
37 38 37 36 35 34 34 33 33 32 31 30 30 29 28 28
27 27 26 25 25 25 24 24 22 22 22 21 20 20 19 19
19 18 17 16 13 10 8 7 4 7 11 13 15 11 1 12
16 14 13 12 12 11 9 6 2 0 0 0 0 0 0 0
0 0 0 0 0 0 1 4 8 11 14 16 16 17 17 18
18 19 19 20 20 21 22 22 23 23 24 24 24 26 26 26
27 27 28 28 28 29 30 31 32 31 33 33 34 35 35 35
35 35 36 36 37 37 37 37 37 37 38 37 38 37 38 38
38 37 36 36 36 35 34 33 33 33 32 31 30 30 29 29
28 26 27 26 25 25 24 24 23 23 22 22 21 20 20 20
19 18 18 17 15 12 10 8 9 13 16 16 16 13 5 12
19 18 16 14 13 12 11 9 6 4 3 0 0 0 1 2
0 0 0 1 6 11 14 16 16 16 17 18 19 19 20 21
21 21 21 22 22 23 23 24 25 25 25 26 26 27 27 27
28 29 30 30 31 32 32 33 34 34 34 34 35 36 36 36
37 36 37 36 37 36 37 37 36 37 37 37 37 38 38 38
38 38 37 36 36 35 34 34 33 32 32 31 30 29 29 29
28 28 27 26 26 26 25 25 23 23 23 22 21 21 20 20
19 19 18 17 16 14 12 10 11 14 16 16 17 14 8 13
22 20 18 17 16 14 13 12 9 8 6 5 7 10 11 12
3 4 11 15 17 17 18 19 19 19 20 21 21 21 21 22
22 23 22 24 24 25 26 25 26 27 26 27 28 27 28 29
30 30 31 32 33 33 33 33 35 35 35 35 35 36 36 36
36 37 37 37 37 37 37 37 37 38 37 38 38 37 38 37
38 38 37 36 35 35 35 34 34 33 32 32 31 31 30 30
29 28 27 27 26 26 26 25 24 24 23 23 23 21 21 20
20 19 19 18 17 15 14 12 11 14 17 18 20 17 13 17
24 21 19 18 17 16 15 12 11 10 9 8 13 16 14 14
13 16 17 17 19 19 20 20 21 21 22 22 22 23 23 23
24 25 25 26 26 26 26 26 27 27 27 28 29 30 30 32
32 32 33 33 34 34 35 35 35 36 35 36 36 36 36 36
36 36 37 37 37 37 37 37 37 37 37 37 38 37 38 38
39 38 38 37 36 35 35 34 34 33 32 32 31 30 30 30
29 28 28 27 27 27 26 26 25 25 24 23 22 22 21 21
21 20 20 19 18 17 15 14 14 17 20 21 22 19 12 16
25 22 20 19 19 17 17 16 14 13 11 10 13 15 15 14
17 19 20 20 21 22 22 22 22 23 23 24 24 24 25 24
25 26 26 26 27 26 26 27 28 29 30 30 31 32 32 32
33 33 33 34 35 35 36 36 36 37 36 36 36 37 37 37
36 37 37 37 37 37 37 37 37 38 38 38 38 38 39 38
39 38 37 37 37 35 35 34 34 34 33 32 32 31 31 31
29 29 28 27 27 27 26 26 25 24 24 23 23 23 22 22
22 21 21 20 18 18 16 15 15 19 22 24 24 21 12 16
27 23 21 20 20 19 18 16 14 16 14 11 11 16 15 17
18 20 21 21 22 23 23 24 24 24 24 25 25 25 25 26
26 26 26 26 26 27 27 28 29 30 30 31 32 32 32 33
33 34 34 35 36 36 36 36 36 37 36 36 37 37 37 37
37 37 37 38 38 37 37 38 38 37 38 38 37 36 36 36
39 38 37 37 37 36 36 36 35 34 34 33 32 31 31 31
30 29 28 28 28 27 26 26 25 25 25 24 23 22 22 22
22 21 21 20 20 19 18 16 17 21 23 24 25 21 13 15
27 24 22 21 21 20 19 17 16 18 16 13 11 17 15 18
20 21 22 22 23 24 24 25 25 25 26 25 26 26 27 26
26 27 28 27 28 28 30 30 31 32 31 32 33 32 34 34
34 34 34 35 35 36 36 36 36 37 36 37 37 37 37 37
37 37 38 38 38 38 38 38 37 37 37 37 37 37 38 38
38 37 37 37 36 35 35 34 34 34 33 33 32 32 31 31
30 29 29 28 27 27 27 26 25 25 25 24 24 24 24 23
22 22 21 21 20 19 19 18 17 21 24 25 26 22 15 14
27 24 23 22 21 20 20 18 17 18 17 14 11 17 17 20
22 23 23 24 24 25 25 25 25 25 25 26 26 25 26 27
28 28 28 28 29 29 30 30 31 32 32 32 32 33 34 33
34 34 35 35 35 36 36 36 35 37 36 36 36 36 37 37
37 37 37 37 37 36 36 37 38 37 37 37 37 37 37 38
38 38 37 37 36 36 35 34 34 34 33 32 32 31 30 30
29 29 28 28 27 27 27 27 26 25 25 24 24 23 22 22
22 21 21 21 20 20 19 19 20 22 25 26 26 22 14 13
26 25 23 22 22 22 20 19 18 18 19 16 12 17 19 21
22 23 23 25 24 25 25 25 25 26 25 26 27 27 27 27
28 28 28 28 29 29 30 30 31 32 31 32 33 33 34 33
34 33 34 34 35 35 36 36 36 37 36 37 36 37 36 36
35 36 36 37 37 37 37 37 37 37 37 38 37 38 37 37
38 37 37 36 36 35 35 34 34 33 33 33 32 31 31 31
30 29 28 27 27 27 26 25 25 25 24 24 24 23 23 22
22 21 21 21 20 20 19 20 20 23 25 26 26 23 17 14
27 25 23 22 22 21 21 19 19 19 18 16 12 17 19 22
23 23 24 24 25 25 25 26 26 26 26 27 27 27 27 27
27 28 28 28 29 30 30 30 30 32 31 32 32 33 33 33
33 34 34 35 35 35 35 36 35 36 35 34 34 34 35 36
36 37 36 36 37 36 36 36 36 36 36 36 36 37 36 36
36 36 36 36 35 35 34 33 34 33 32 32 31 30 30 29
29 28 28 27 27 26 26 26 25 24 24 24 23 23 22 22
21 20 20 20 20 20 19 19 20 23 26 26 26 23 17 13
26 25 22 23 22 21 21 21 21 19 19 17 14 18 19 22
23 23 24 24 24 26 26 26 26 26 27 27 27 27 27 27
27 28 28 29 29 29 30 30 31 32 31 32 32 32 33 33
32 33 34 34 34 34 33 33 33 34 35 35 36 36 36 36
36 36 35 35 36 35 36 36 36 36 36 36 36 36 36 36
37 36 36 36 36 34 34 33 33 32 33 32 32 31 31 30
30 29 28 28 27 27 27 26 25 25 25 24 24 24 23 22
22 22 21 21 20 20 20 20 21 24 27 26 27 24 18 13
25 25 23 23 23 22 22 21 21 19 19 18 15 19 20 23
24 24 25 26 25 26 26 26 26 26 27 27 27 27 28 28
28 29 29 29 30 30 30 31 31 33 31 32 33 33 34 34
32 31 33 33 34 34 35 35 36 35 35 35 35 35 35 35
35 36 36 36 36 36 36 36 36 36 36 36 36 36 35 35
37 36 36 36 36 34 34 34 34 33 32 32 31 31 30 30
29 29 28 28 27 27 27 26 26 26 25 24 24 24 23 23
22 22 21 21 21 20 20 21 22 25 28 28 27 24 19 15
24 26 23 22 23 22 22 22 21 21 21 20 18 20 22 24
25 25 26 26 26 27 27 27 27 27 28 28 28 28 28 29
29 28 29 29 29 30 30 31 31 33 32 33 33 33 32 32
34 33 34 34 35 34 35 35 35 35 36 36 36 36 36 36
36 36 35 36 36 36 36 36 36 36 36 36 36 36 37 37
37 37 37 36 36 35 35 34 34 33 33 33 32 32 31 31
30 30 29 28 28 28 28 27 26 26 25 25 25 25 24 23
23 23 23 23 22 21 22 21 23 25 28 29 28 25 20 14
23 26 23 23 24 24 23 22 22 21 22 21 17 21 24 26
26 26 27 27 27 27 28 28 28 28 29 28 28 29 29 29
29 30 30 30 31 31 32 31 32 32 31 31 31 32 33 34
34 36 35 35 35 36 36 35 36 36 35 36 36 36 36 36
36 36 36 37 37 37 37 37 37 37 36 37 36 36 36 35
38 37 36 36 36 35 35 33 34 34 33 33 32 32 31 30
30 30 29 29 29 28 28 28 27 26 26 25 24 24 24 24
23 22 23 22 22 21 21 22 23 26 29 29 29 26 21 10
17 26 24 25 24 24 23 24 23 22 22 21 19 24 25 26
26 26 27 27 28 27 28 28 28 28 29 29 29 29 30 30
30 30 31 30 30 30 30 30 30 31 33 33 34 34 35 35
35 36 35 35 35 35 36 35 36 35 36 36 36 36 36 36
36 36 36 37 36 36 36 36 36 36 37 36 36 36 36 36
37 37 37 36 36 35 35 34 34 34 34 32 32 32 31 31
30 30 30 30 29 29 28 28 26 27 26 26 26 24 25 24
24 24 24 23 23 22 23 22 24 27 29 29 29 26 19 13
21 28 26 26 25 25 25 25 24 23 23 23 20 24 25 26
27 27 28 27 28 28 29 28 29 29 29 29 30 30 31 30
30 30 31 30 30 31 31 33 33 33 34 34 34 34 35 35
35 36 36 36 36 36 36 36 36 35 36 36 36 36 36 36
36 36 36 36 36 37 37 37 37 36 38 37 37 36 36 36
38 37 36 36 36 35 35 35 35 34 34 33 33 32 32 31
31 31 30 30 29 29 28 28 27 27 26 26 26 25 25 26
25 24 24 23 23 23 23 24 25 27 30 30 30 27 20 20
21 29 26 26 26 25 25 25 24 23 24 23 21 25 26 28
28 28 29 28 29 29 29 29 30 30 30 31 30 30 31 31
30 31 31 32 31 32 33 33 33 34 34 34 35 35 35 35
36 36 36 36 36 37 37 36 36 35 35 36 37 37 36 37
37 37 37 36 37 37 38 36 38 37 37 38 38 37 35 35
38 37 37 37 36 35 35 35 35 34 34 34 33 33 32 32
31 31 30 30 29 29 29 28 28 27 27 27 26 25 26 25
25 25 25 24 24 24 24 24 25 28 30 30 30 27 20 21
21 29 27 27 27 26 26 26 25 23 24 23 21 26 27 28
28 28 29 29 29 30 30 30 30 29 30 30 30 30 31 31
32 32 33 32 33 33 33 33 33 34 34 34 35 34 35 35
36 36 36 37 36 36 36 37 36 36 37 37 37 37 37 36
37 37 37 37 38 38 38 38 37 37 36 37 36 36 37 37
37 37 37 36 36 35 36 35 35 35 34 34 33 33 33 32
31 31 31 30 30 29 28 28 28 28 28 27 27 26 26 26
26 25 24 24 24 23 24 24 25 28 31 31 31 28 21 23
21 29 28 27 27 27 25 26 26 24 25 24 21 26 27 29
29 29 29 29 29 29 29 29 29 29 30 31 31 31 32 32
32 33 33 32 33 33 33 33 34 34 35 35 35 35 36 36
36 37 36 36 36 36 36 36 36 36 36 36 36 37 37 37
37 37 37 37 37 37 37 36 37 37 38 37 37 37 36 36
37 37 37 37 37 36 35 35 35 34 34 33 33 33 32 32
32 31 30 31 30 29 29 28 29 28 28 27 27 27 27 26
25 25 25 25 24 24 24 24 25 29 31 31 31 28 21 23
21 29 28 27 27 27 26 26 27 25 25 24 22 27 27 29
29 29 29 29 30 30 30 30 31 31 31 31 31 31 31 32
32 32 33 33 33 33 34 34 34 34 35 35 36 35 36 36
36 37 37 36 36 36 37 37 37 37 37 37 37 36 37 36
36 36 36 36 37 37 38 37 37 36 37 37 37 38 37 36
38 38 37 37 36 36 35 36 35 35 34 34 33 33 33 33
32 31 31 30 30 30 29 29 29 28 28 28 28 28 27 27
27 26 26 25 25 24 24 24 26 29 32 32 31 29 22 24
22 29 29 27 27 26 26 26 27 25 25 25 22 27 26 29
29 30 30 31 31 31 31 32 31 31 32 31 32 32 32 32
32 33 33 32 33 33 34 34 34 34 35 35 35 36 36 37
37 37 38 37 37 37 37 37 37 36 37 37 37 37 38 38
37 37 37 37 37 36 37 36 37 37 37 36 36 37 37 36
38 37 37 37 37 36 36 35 35 35 34 34 34 33 33 32
32 32 31 31 30 30 30 29 29 29 28 27 27 27 27 27
27 25 26 25 25 25 25 25 27 29 33 32 32 29 22 24
23 28 29 28 29 27 27 27 27 24 25 25 22 27 27 30
30 30 30 31 31 31 31 32 31 31 32 32 32 32 33 32
33 33 34 33 33 34 34 35 35 35 35 35 35 35 36 36
36 37 37 37 37 37 37 36 36 36 36 37 38 37 37 37
36 37 36 36 37 37 36 36 37 36 36 37 36 36 36 35
37 37 37 36 36 36 36 35 35 35 35 34 34 34 34 33
33 32 32 31 31 30 30 30 29 29 29 29 28 28 28 27
27 26 26 26 25 25 25 26 26 30 33 33 32 31 23 25
24 28 29 29 29 27 25 24 22 21 23 26 23 28 29 30
30 31 31 31 31 31 31 31 31 32 32 32 32 32 33 33
33 33 35 34 34 34 34 34 34 35 36 36 35 36 36 36
36 36 36 36 35 35 36 37 37 38 36 36 37 36 37 37
37 37 37 37 37 36 37 36 37 37 37 36 36 36 36 36
38 37 37 37 36 36 35 35 35 34 34 34 33 33 33 33
32 32 32 31 31 31 31 30 30 29 29 28 28 28 27 27
27 26 26 26 26 26 26 25 27 30 33 32 32 30 22 24
25 26 29 28 27 27 22 22 19 15 14 17 24 30 29 31
31 31 30 31 31 32 32 32 32 31 31 32 32 33 33 33
34 34 34 33 34 34 34 35 35 35 36 36 36 35 35 35
36 36 36 36 37 37 37 37 38 39 38 37 37 37 37 37
36 37 37 36 36 36 37 36 36 36 37 37 38 37 37 36
38 37 38 37 36 36 36 36 35 35 35 34 34 34 34 33
33 33 32 32 31 31 30 30 30 29 29 29 29 29 28 28
28 27 27 26 26 26 26 26 27 30 33 32 33 30 23 26
28 25 28 28 28 23 22 16 10 7 3 5 9 22 26 31
31 32 32 33 32 32 33 32 32 32 32 32 33 33 34 34
34 35 34 35 35 34 34 35 35 35 35 35 35 36 37 36
37 37 37 37 38 37 38 37 38 38 38 37 37 37 37 37
37 37 37 37 37 37 37 36 36 37 37 36 37 37 36 36
38 37 37 36 36 36 36 36 36 35 35 34 34 34 34 33
33 33 32 32 32 31 32 31 31 30 29 29 29 28 28 28
28 27 27 26 26 26 26 27 28 30 34 33 34 31 23 26
28 24 28 29 27 20 15 11 3 0 0 0 0 8 15 21
30 32 31 32 33 32 33 32 32 32 34 32 33 34 34 34
34 35 35 33 34 34 34 34 35 35 36 37 37 37 37 37
37 37 37 38 38 37 37 37 38 38 39 37 37 37 37 37
37 38 37 36 36 37 36 36 37 37 38 36 37 37 37 37
38 37 37 37 36 36 36 36 35 35 35 35 34 35 34 34
33 33 33 33 32 31 31 30 31 30 30 30 29 30 29 29
28 28 28 27 27 26 27 27 28 30 34 34 34 31 23 27
31 25 31 29 27 18 13 5 0 0 0 0 0 1 10 14
15 28 33 32 33 33 33 33 33 33 33 34 34 34 34 35
35 35 34 35 36 35 36 35 36 37 38 37 37 37 38 38
38 38 38 38 38 38 38 37 38 38 38 36 37 37 37 38
37 37 37 38 38 38 37 38 37 37 37 37 36 37 36 37
37 37 37 36 37 37 37 36 35 35 35 35 34 34 34 33
34 33 33 32 32 32 31 31 31 31 31 30 30 30 29 28
28 28 28 27 27 26 27 27 28 30 34 34 33 31 24 27
32 23 31 28 25 16 10 1 0 0 0 0 0 0 6 15
12 10 27 33 32 33 33 33 34 34 34 34 34 34 34 34
34 35 35 34 35 36 36 36 36 36 38 37 37 38 38 38
38 38 38 37 38 38 38 38 37 38 39 37 37 38 37 37
37 37 37 37 38 37 37 37 37 37 37 37 37 37 36 35
38 37 37 36 37 37 37 36 35 35 35 35 35 34 34 34
34 34 33 32 31 31 31 32 31 31 30 30 30 29 30 29
29 28 28 28 28 27 27 28 28 31 34 34 34 32 23 26
33 24 31 30 29 17 10 5 1 0 0 0 0 0 0 2
18 20 11 20 29 33 34 33 33 33 33 35 34 34 35 34
34 35 35 35 36 35 36 36 37 37 38 37 38 38 38 37
38 37 37 38 38 38 38 38 37 38 39 38 37 37 37 37
37 36 37 37 38 37 38 37 37 36 36 35 32 33 33 34
37 37 37 37 37 36 36 36 36 36 36 35 35 35 35 34
33 33 33 33 32 32 32 32 31 32 31 30 30 29 29 29
29 28 28 28 27 27 27 27 28 31 36 35 34 33 24 26
33 24 29 30 24 15 17 14 31 44 62 76 83 78 62 39
17 14 17 15 12 16 27 33 33 34 35 35 34 35 35 35
34 35 35 35 36 36 36 37 37 36 38 37 37 37 38 37
38 38 37 38 37 37 38 38 38 37 39 37 38 38 38 38
38 37 38 37 36 36 35 35 35 35 37 37 36 36 35 35
38 37 37 37 37 37 37 36 36 36 35 35 35 35 34 34
34 34 33 33 33 32 32 31 31 30 31 30 30 30 30 30
30 28 28 28 28 27 27 28 28 31 35 35 34 33 24 26
33 25 29 31 24 31 73 99 105 107 109 111 113 111 109 105
100 76 30 18 13 8 5 17 32 34 34 36 33 34 35 34
34 35 36 36 36 36 37 37 37 37 37 37 37 38 38 37
37 37 37 38 38 37 37 37 38 38 39 37 37 37 37 36
36 36 36 35 36 37 37 37 37 36 36 36 35 36 35 34
38 37 37 37 37 36 36 36 36 36 35 35 35 35 34 34
33 33 33 33 32 32 32 31 32 31 31 30 30 30 29 30
29 29 29 28 27 27 27 28 28 30 35 35 35 32 24 24
32 25 25 28 61 109 113 111 107 102 99 101 102 100 100 100
99 99 92 43 13 11 8 4 11 31 34 35 34 34 35 34
35 34 35 35 36 36 36 36 36 37 37 37 38 37 37 37
37 37 37 37 38 37 38 37 38 37 36 34 35 35 36 35
36 37 38 38 35 35 35 34 35 35 35 35 35 36 35 34
38 38 37 38 37 37 36 36 36 36 35 36 35 35 34 34
34 34 33 33 33 32 32 32 31 31 30 31 30 30 30 30
29 29 28 28 28 28 28 28 30 31 34 33 33 32 23 21
23 15 11 14 24 23 25 30 44 65 96 111 111 114 119 120
118 98 66 60 33 25 23 15 7 15 32 36 34 35 34 35
35 35 35 36 36 37 37 37 37 37 38 37 38 37 38 38
38 38 37 37 38 37 36 35 36 37 37 37 37 37 37 36
35 37 37 37 35 36 35 35 36 36 35 36 35 35 35 33
22 35 38 38 37 37 36 36 36 36 36 36 36 35 35 35
34 34 34 34 33 33 33 33 32 31 32 32 31 31 30 30
29 30 29 29 29 28 28 28 29 31 35 34 27 15 8 10
5 2 0 0 0 1 1 0 2 15 16 62 114 97 112 96
30 12 22 11 6 6 10 9 15 13 14 20 30 35 36 36
36 37 36 36 37 37 37 37 37 37 38 38 38 38 37 38
38 37 37 37 36 37 38 38 37 37 37 37 37 37 38 37
37 37 36 37 36 36 36 36 37 36 35 35 36 35 35 34
16 33 38 38 37 37 37 36 36 36 36 36 36 35 35 35
34 34 34 34 34 33 33 33 32 32 32 31 31 31 30 29
30 30 30 29 29 29 29 29 30 31 34 30 12 10 33 8
0 0 0 0 0 0 0 0 0 0 0 9 15 22 54 52
13 0 0 0 0 0 0 0 0 0 1 3 16 19 25 36
36 36 37 37 38 38 38 38 39 38 38 38 37 37 37 37
38 38 39 38 38 38 39 38 38 37 37 37 37 37 37 36
37 37 37 38 36 36 36 36 38 36 36 36 36 36 35 35
16 33 38 37 38 37 37 35 36 37 37 36 36 36 35 35
35 34 34 34 33 33 33 32 34 39 37 34 33 32 31 31
31 31 30 29 29 29 29 29 30 31 32 23 3 4 1 0
0 0 0 0 0 0 0 0 0 0 0 6 25 87 110 114
102 32 0 0 0 0 0 0 0 0 0 2 7 9 14 37
36 37 38 36 37 37 36 37 36 36 36 37 37 37 38 38
37 38 39 38 38 38 38 38 37 37 37 37 37 37 37 37
37 36 37 37 36 36 36 36 37 36 36 35 35 35 35 34
16 33 38 38 38 37 37 41 46 43 42 38 37 35 34 35
34 35 34 35 34 33 33 33 39 47 44 40 39 37 33 31
30 29 30 29 29 29 29 29 30 31 33 15 1 0 2 23
9 0 0 0 0 0 0 0 0 0 0 8 69 110 132 137
133 107 11 0 0 0 0 0 0 26 95 93 71 28 8 36
36 36 36 36 36 37 36 37 36 36 36 37 37 37 37 37
37 37 38 38 37 37 38 37 38 38 37 37 36 36 36 37
37 36 36 37 35 36 36 36 36 36 36 36 35 35 35 34
18 34 38 37 38 36 36 44 50 47 47 43 41 41 40 36
36 35 34 34 33 33 33 33 39 45 43 40 42 41 38 32
31 30 30 30 30 29 30 29 29 30 27 10 1 0 54 81
1 0 0 0 0 0 11 7 0 0 1 35 98 125 137 142
139 114 45 0 0 0 0 0 0 0 3 10 28 34 10 36
36 37 37 37 36 37 37 37 37 37 37 37 36 37 37 37
37 37 38 38 37 38 37 37 37 36 36 36 36 36 36 37
37 36 36 37 36 37 37 36 36 36 36 35 36 35 35 35
19 38 40 39 39 38 37 45 50 47 44 43 44 47 47 41
42 41 38 35 34 34 34 33 37 37 38 38 40 42 40 32
31 31 30 30 30 30 30 29 29 28 18 8 1 13 93 24
0 0 0 0 1 44 107 62 0 0 7 79 109 127 129 141
136 108 66 19 48 2 0 0 0 0 0 0 0 0 11 36
36 36 37 37 36 36 36 36 37 37 37 37 37 37 37 36
37 37 38 38 37 37 37 37 37 36 37 36 37 36 36 36
37 36 36 36 36 37 36 36 35 36 37 36 36 34 35 35
19 39 43 39 41 41 40 43 29 35 42 46 49 50 48 35
31 38 41 41 40 39 38 35 35 21 16 17 21 26 33 34
31 31 32 30 30 30 30 29 30 26 14 5 0 33 80 1
0 0 0 1 49 134 69 1 0 1 29 100 125 104 66 133
120 70 101 104 101 6 0 0 0 0 0 0 0 0 8 36
37 37 36 37 36 36 36 36 37 37 36 37 37 37 37 37
36 37 38 38 38 37 37 37 37 35 36 37 36 36 36 36
37 37 37 37 37 36 37 37 36 36 36 35 35 34 33 33
19 40 43 35 35 41 46 46 3 0 12 27 31 35 42 20
0 3 9 18 24 32 39 39 36 19 7 10 10 2 12 34
31 32 31 30 30 30 30 29 29 22 11 4 0 10 41 0
0 0 0 28 131 62 0 0 11 7 76 116 126 19 41 119
102 25 113 48 8 0 0 0 0 0 0 1 0 1 4 36
37 36 36 37 36 37 37 36 37 37 37 37 38 38 37 37
37 36 37 38 38 36 37 36 37 36 37 36 37 37 37 37
39 37 37 37 37 37 37 37 35 35 35 34 34 35 35 36
18 31 40 42 42 43 49 48 5 0 3 11 15 14 31 20
0 0 0 0 0 1 5 16 36 17 1 3 5 2 9 36
33 32 32 31 31 30 30 30 28 16 10 1 0 0 4 2
0 0 0 45 66 7 14 21 10 48 106 132 78 16 108 125
115 44 92 75 2 7 9 5 2 1 1 0 0 2 1 35
37 36 36 38 37 37 37 37 36 37 37 37 37 36 36 37
37 37 37 38 38 36 37 36 37 36 36 37 37 37 37 37
38 37 37 36 34 35 36 36 36 36 35 36 36 35 35 35
14 2 5 12 23 34 43 46 6 0 1 5 7 9 28 23
0 0 0 0 0 0 0 6 37 13 0 0 2 1 9 37
32 31 31 30 31 30 31 31 24 15 5 1 0 11 36 25
22 19 11 10 12 13 12 10 61 104 108 135 84 89 134 139
132 85 94 117 63 21 7 12 16 20 16 4 1 4 1 34
37 36 36 38 37 37 37 36 37 37 37 37 37 37 37 37
36 37 37 37 37 37 37 36 37 36 38 37 37 38 37 38
37 36 37 36 36 36 35 36 35 35 35 36 38 36 35 35
14 0 0 0 0 0 3 18 8 0 0 0 0 4 24 22
0 0 0 0 0 0 0 5 36 6 0 0 0 0 10 39
32 32 32 32 31 31 31 30 25 12 3 0 0 22 45 82
93 78 20 17 32 50 50 96 130 113 105 132 118 116 138 139
135 106 116 116 112 117 74 23 13 15 60 22 6 9 0 30
36 37 37 38 36 37 37 37 37 37 37 36 37 36 37 37
37 37 37 36 37 37 37 37 37 37 37 36 38 38 38 37
37 37 37 36 36 36 36 36 35 35 35 35 37 35 36 35
14 0 0 0 0 0 0 9 7 0 0 0 0 1 26 21
0 0 0 5 7 0 0 3 36 5 0 0 0 0 10 39
33 32 32 31 31 31 31 27 25 9 3 0 0 28 52 85
95 89 79 91 87 90 113 136 144 134 107 96 102 116 120 123
120 106 95 104 126 142 136 113 85 66 87 50 1 2 0 25
37 37 37 37 36 37 37 36 37 37 38 38 38 37 37 37
37 37 36 37 37 37 37 38 37 37 37 37 37 38 38 38
37 37 36 36 36 36 36 37 36 36 36 37 37 35 36 36
14 0 0 0 0 0 0 7 6 0 0 0 0 1 29 24
0 0 0 8 15 9 4 2 35 4 0 0 0 0 7 40
33 33 32 31 32 31 31 27 19 6 2 0 2 26 69 86
95 84 89 89 105 124 137 143 142 131 101 96 115 119 118 116
117 118 117 107 122 140 142 138 121 98 88 73 4 0 0 17
37 37 37 38 38 38 38 37 38 38 38 37 37 37 37 37
37 37 38 38 38 38 38 37 37 35 36 37 38 37 38 37
37 37 37 37 38 38 38 37 37 38 37 36 37 35 33 33
14 0 0 0 8 2 0 7 5 0 0 0 0 1 27 26
0 0 0 11 15 14 11 3 35 5 0 0 0 0 6 40
33 33 32 32 32 31 31 27 12 7 0 0 4 26 82 90
93 85 92 110 127 140 143 143 130 103 100 118 112 115 124 125
131 128 114 112 106 107 135 142 139 120 100 83 17 0 0 9
34 38 37 38 36 37 37 37 37 37 37 37 38 38 37 37
38 37 37 38 37 37 38 37 37 36 36 38 38 38 38 38
38 38 38 38 38 36 37 37 38 36 35 34 33 33 32 29
14 0 7 4 4 1 0 6 5 0 0 0 0 4 28 28
0 0 0 9 14 14 12 2 35 10 0 0 0 0 4 40
34 33 33 33 33 32 31 24 5 7 0 0 4 39 84 93
91 93 111 127 139 143 141 125 105 105 115 93 119 140 133 125
126 134 138 108 102 105 107 132 140 133 114 93 36 0 0 9
28 37 37 37 38 37 37 37 37 37 38 38 37 37 37 37
37 37 38 37 38 38 38 38 37 37 37 38 39 39 38 37
38 37 36 34 34 34 36 34 33 29 25 21 18 15 13 11
15 2 7 0 1 1 0 6 7 0 0 0 0 9 31 34
1 1 2 0 5 11 11 1 35 39 30 21 15 11 15 41
33 33 33 33 33 32 30 17 2 8 1 0 3 50 83 94
94 104 123 134 141 140 130 110 116 123 88 109 134 131 124 115
116 129 133 132 108 116 110 110 130 137 124 104 58 0 0 9
22 36 37 37 37 36 37 37 37 38 38 39 38 38 38 38
38 37 38 38 37 37 38 37 36 36 37 38 36 36 36 35
36 34 30 27 24 21 18 15 12 12 13 12 13 14 15 16
15 3 1 0 0 0 0 10 27 14 8 8 2 1 27 49
35 29 25 16 8 5 7 2 36 46 44 42 44 47 48 46
33 33 33 33 33 32 29 11 3 5 2 0 4 64 86 93
98 112 128 135 141 138 123 117 130 107 96 127 136 139 124 114
115 125 138 137 121 101 107 115 120 135 129 113 81 3 0 5
18 37 36 37 37 37 37 38 38 38 38 39 38 38 38 37
37 38 37 36 36 35 38 36 35 34 35 33 30 26 23 19
16 14 14 13 13 13 14 15 16 17 18 18 19 20 20 20
15 1 0 0 0 0 0 12 54 48 40 41 38 30 42 48
22 23 28 30 30 30 31 33 46 42 42 43 45 51 52 48
33 33 33 33 32 32 28 5 3 4 2 0 7 71 89 92
103 116 128 134 141 134 121 126 113 88 114 130 137 127 121 122
124 122 135 141 129 108 97 121 120 127 131 115 97 16 0 2
14 32 37 36 36 37 37 37 37 36 37 38 36 36 36 35
35 36 36 35 34 30 28 25 22 19 17 16 15 14 14 16
17 18 19 19 18 13 21 21 21 23 23 23 24 24 13 24
15 1 0 0 0 0 0 12 55 43 48 51 54 52 48 40
16 15 15 15 15 15 17 19 23 21 25 30 36 38 38 38
32 33 33 33 32 33 25 2 4 3 1 0 11 74 91 93
107 118 127 131 140 132 128 124 107 109 124 137 131 121 129 126
127 121 122 135 136 122 112 119 126 125 128 118 105 36 0 0
8 27 36 36 36 37 38 37 37 37 37 36 35 35 37 31
26 23 21 19 17 17 17 17 18 18 19 20 21 22 22 23
23 24 25 25 24 7 24 26 27 27 24 24 28 18 24 29
18 29 27 19 11 5 2 12 46 39 48 51 55 55 44 35
18 16 14 13 12 11 10 9 8 9 11 12 27 33 29 29
32 33 32 32 32 31 21 0 5 1 0 0 16 76 92 95
107 118 124 130 139 135 136 127 115 124 133 137 121 122 126 127
128 124 114 124 138 129 124 123 130 130 123 117 108 62 0 0
6 20 37 38 38 37 36 34 31 28 26 23 20 20 34 26
13 16 19 19 20 21 22 22 23 24 24 25 26 27 28 28
29 22 23 29 30 17 19 30 31 30 18 27 27 18 32 31
18 40 51 50 46 44 39 41 40 34 44 48 52 53 46 38
21 16 14 11 10 10 10 11 10 11 11 12 28 18 21 32
32 33 31 32 32 30 18 2 5 0 0 0 23 79 92 95
106 115 122 133 137 137 141 131 125 130 137 131 116 122 125 129
131 129 120 113 130 132 128 128 130 134 122 119 110 85 2 0
1 16 30 28 25 22 20 19 18 18 19 20 20 19 27 23
16 21 24 26 26 27 28 29 29 30 30 29 30 30 31 30
31 30 25 23 31 27 10 31 32 29 16 28 18 27 29 32
19 40 52 52 50 50 50 52 30 7 13 20 28 34 34 39
22 15 11 4 3 4 9 12 12 11 14 16 30 28 26 39
38 36 18 17 32 31 20 1 6 3 0 0 30 83 90 97
108 116 123 130 133 137 141 135 126 128 131 128 112 126 126 137
132 130 126 119 118 127 127 128 132 134 123 119 110 98 13 0
0 12 21 20 20 21 22 22 23 24 24 26 26 26 31 27
20 28 30 31 31 31 32 32 32 32 32 32 32 33 33 32
33 33 33 27 25 30 11 26 32 29 16 19 24 29 29 33
18 35 46 46 47 50 51 52 24 0 0 0 0 8 16 38
21 12 9 0 0 0 3 9 6 2 8 10 28 41 35 36
37 38 32 28 33 32 17 0 3 3 2 2 42 85 89 97
105 115 123 132 137 138 141 136 128 125 126 117 115 125 134 139
138 139 133 125 118 116 122 122 129 134 125 118 111 98 30 0
0 9 23 25 27 27 28 28 30 30 31 32 31 29 26 23
24 31 31 32 33 34 34 34 34 35 34 34 33 33 34 33
33 34 34 34 26 24 22 14 32 26 18 15 32 29 31 33
24 29 32 34 37 37 40 46 20 0 0 0 0 0 9 41
21 12 9 1 0 1 0 0 0 0 0 1 23 41 30 26
25 28 32 33 32 31 14 0 3 5 5 1 48 83 88 95
104 116 123 128 133 142 141 134 126 119 114 120 127 134 142 143
142 138 138 132 125 113 115 120 120 130 126 114 108 99 43 0
0 1 22 32 31 33 32 33 33 33 33 33 32 30 9 6
19 32 35 35 35 34 34 35 34 34 34 34 33 34 33 32
33 33 34 33 34 26 22 7 14 11 13 24 32 28 30 30
21 22 21 25 33 32 37 47 18 0 0 0 0 0 3 40
15 7 0 0 0 8 6 1 0 0 0 0 22 43 30 20
33 30 28 32 32 31 15 0 6 11 6 4 60 83 88 93
103 112 121 126 130 139 135 124 118 112 114 126 141 140 142 141
135 133 140 137 131 119 106 109 118 127 125 116 110 100 54 0
0 1 18 35 34 34 34 35 35 34 33 31 30 28 9 4
15 33 35 37 36 36 35 36 35 35 36 36 35 35 34 33
33 33 32 33 34 32 24 7 0 0 20 29 30 28 31 29
21 22 25 29 34 34 41 45 17 0 0 0 0 0 4 41
5 0 0 0 0 4 11 5 0 0 0 0 21 43 30 15
27 25 27 32 34 32 18 0 10 4 9 18 73 76 85 89
101 109 116 121 127 134 129 120 109 109 115 129 142 133 136 135
129 127 137 139 128 121 103 104 111 121 122 114 107 98 62 0
0 0 17 37 36 35 35 35 35 20 8 4 11 24 6 3
14 33 35 36 36 36 35 35 35 36 36 35 34 34 34 34
34 32 33 34 34 32 32 20 0 4 28 29 24 25 29 29
21 8 4 8 15 20 28 34 17 0 0 0 0 0 6 42
5 0 0 0 0 3 16 12 9 0 0 0 22 44 31 14
20 19 23 31 33 32 16 3 10 9 7 39 84 77 82 88
101 109 115 118 124 129 124 114 107 104 110 117 125 122 122 120
115 117 121 126 118 108 105 103 108 116 119 114 108 98 74 23
8 0 12 38 37 36 36 37 35 22 16 23 28 28 4 0
13 32 36 36 35 35 36 35 35 35 35 35 35 35 34 34
34 33 32 32 32 32 34 29 0 5 31 28 22 22 29 32
25 7 0 0 0 0 0 4 14 0 0 0 0 0 7 40
3 0 0 0 3 16 18 15 13 0 0 0 21 44 35 24
21 17 23 31 33 31 16 6 10 13 28 77 93 81 76 83
96 107 112 116 119 122 113 107 104 103 103 106 110 109 108 110
109 108 116 107 104 95 97 97 101 110 113 109 105 97 83 54
53 1 9 37 38 37 37 37 37 36 35 35 34 29 6 0
14 33 35 36 36 36 36 35 35 35 35 35 34 34 34 33
34 33 32 32 33 33 33 30 2 4 32 31 22 21 31 32
24 7 0 0 0 0 0 2 13 0 0 6 4 0 4 38
2 0 0 0 2 13 21 8 4 0 0 0 19 44 37 25
13 3 15 29 33 31 17 8 12 46 97 107 101 89 74 80
92 100 107 111 110 112 104 99 93 93 95 98 101 98 106 109
113 114 108 101 88 87 88 87 96 104 109 105 104 93 92 96
96 22 9 37 37 36 36 36 36 35 35 34 33 30 14 0
18 32 36 36 35 35 35 35 34 35 34 35 35 35 34 34
34 34 33 31 32 33 33 31 3 2 30 31 23 22 32 33
25 8 0 0 4 0 0 2 13 0 2 17 11 0 5 37
1 0 0 0 0 0 15 2 0 0 0 0 15 43 36 19
8 4 13 29 33 32 12 11 25 80 96 106 110 100 77 75
89 100 102 106 102 101 96 96 90 84 88 95 98 100 99 115
105 108 102 97 91 87 80 85 94 101 99 98 100 87 102 109
116 53 10 38 37 37 37 36 36 35 35 34 33 29 20 8
24 34 36 36 36 36 35 35 34 35 35 35 35 34 34 34
34 33 34 31 32 34 33 32 4 2 29 32 21 20 30 32
21 7 0 4 17 6 0 1 15 0 8 16 14 4 4 36
1 1 0 0 0 0 14 4 0 0 0 0 10 43 33 10
6 0 11 26 32 30 12 13 60 103 108 104 116 113 86 71
82 91 94 95 92 92 90 85 82 78 84 90 101 106 106 112
110 105 101 98 89 84 82 82 87 92 94 93 96 86 109 113
119 81 6 36 36 36 36 36 36 35 35 35 33 28 26 25
30 35 35 35 35 34 35 34 34 34 34 34 35 34 34 34
34 34 34 32 31 28 31 29 5 0 19 22 15 18 28 31
20 8 0 7 19 7 2 1 33 29 33 33 31 27 24 38
1 0 0 0 0 0 14 5 0 0 0 0 6 41 29 6
5 0 18 26 32 30 7 11 82 116 106 100 114 123 99 71
73 84 86 87 85 87 84 77 73 80 86 94 93 98 106 113
112 108 106 107 98 94 84 84 85 88 88 93 85 79 116 120
113 87 4 34 37 36 36 36 36 35 35 34 33 29 29 30
34 35 35 35 36 35 36 35 35 35 35 35 34 34 34 34
33 33 33 30 29 26 21 23 7 0 22 31 26 22 28 31
20 9 0 1 3 0 0 0 36 41 47 46 45 49 52 44
8 5 5 0 0 1 17 7 1 1 0 0 4 36 27 5
0 2 10 25 31 30 12 15 101 116 109 113 121 116 106 74
63 78 86 84 85 82 82 77 73 76 80 91 94 101 111 117
115 112 114 107 99 93 86 88 86 87 88 94 81 78 122 126
118 95 6 31 37 36 36 36 36 34 35 34 33 32 31 32
36 35 36 36 36 35 35 35 35 34 34 34 34 34 35 34
34 33 33 31 30 31 32 31 10 0 21 29 24 19 25 28
21 18 7 0 1 0 0 0 36 42 44 44 45 52 55 51
32 31 29 23 21 21 25 18 15 11 11 8 13 31 30 12
9 11 4 19 32 34 19 12 103 109 114 117 111 114 98 79
61 71 78 83 84 78 78 75 77 82 85 92 95 106 111 118
116 113 110 100 99 91 93 91 91 90 92 88 71 50 119 122
112 100 22 32 37 36 36 36 36 35 34 34 34 32 32 34
34 34 34 33 35 35 35 35 34 34 35 35 34 35 34 33
33 32 32 31 31 31 31 31 13 0 20 30 24 18 26 29
22 22 6 0 0 0 0 0 33 36 39 40 41 44 44 43
36 37 37 35 35 35 34 32 29 26 25 23 25 34 39 27
25 20 16 19 31 33 23 15 102 104 110 113 115 114 63 45
70 62 76 74 73 83 82 85 87 88 93 94 100 107 112 112
115 115 109 105 100 94 94 95 97 95 90 78 55 20 82 119
114 100 60 32 37 36 36 36 35 34 34 34 34 33 34 34
34 34 34 35 35 35 35 34 34 34 34 33 34 34 34 33
33 33 33 32 31 31 32 31 15 0 17 32 26 18 25 30
25 19 1 0 0 0 0 0 36 36 36 36 37 36 32 33
37 38 39 39 37 37 37 36 36 39 37 33 32 36 46 43
43 42 38 34 32 33 30 30 96 102 112 110 110 71 7 36
80 65 71 76 71 80 84 82 87 88 88 100 102 107 107 113
120 114 114 106 101 99 100 102 98 97 79 75 42 2 27 106
114 96 58 33 35 35 35 35 35 34 35 35 34 33 35 35
35 34 35 35 35 35 34 34 34 34 34 33 33 33 33 32
32 32 32 30 29 30 31 31 16 0 16 31 26 18 24 29
22 24 22 18 13 11 8 6 39 38 36 36 36 37 37 40
41 39 43 47 45 38 35 36 38 46 45 42 41 41 36 31
30 31 32 31 32 33 32 27 88 98 110 102 55 8 17 81
89 76 72 78 85 85 91 89 93 91 92 102 102 108 112 114
120 122 115 107 104 97 106 103 99 85 80 81 61 5 0 33
93 85 30 35 35 35 35 35 35 35 35 34 35 35 35 36
35 35 36 36 35 34 35 34 34 33 33 34 33 33 33 33
33 32 33 31 29 31 31 30 18 0 13 30 26 18 24 28
22 31 46 48 44 45 49 47 51 42 38 38 38 40 43 46
44 41 44 49 49 38 34 31 37 48 45 42 43 42 37 30
25 23 23 25 31 32 32 21 49 91 74 20 0 11 67 100
95 85 81 79 88 84 86 96 96 99 96 102 102 113 110 118
122 120 116 109 107 105 104 101 100 96 95 87 86 30 0 0
17 19 20 36 35 35 35 35 35 34 35 34 35 35 35 35
35 35 34 34 35 34 33 33 34 33 33 33 33 33 33 33
33 31 32 30 29 29 32 31 20 0 11 30 26 18 22 28
23 32 54 55 54 54 54 54 54 42 34 32 33 33 40 47
48 42 43 42 40 39 35 31 31 38 33 33 38 39 38 37
31 29 30 31 32 33 32 27 10 31 16 0 4 48 99 106
99 94 90 88 90 89 93 98 102 103 104 105 113 115 116 123
122 123 123 117 110 112 107 104 98 100 100 94 90 70 2 0
0 0 23 36 34 34 35 34 34 34 34 34 35 34 35 35
35 35 34 34 34 34 34 33 33 33 33 32 32 32 32 32
32 31 32 31 30 30 32 31 22 0 8 29 27 17 22 29
24 25 37 39 40 42 45 46 49 28 6 6 3 4 9 23
47 41 27 11 15 18 18 27 33 22 4 1 5 11 18 35
32 32 35 38 41 40 34 28 10 0 0 0 19 78 93 101
99 97 96 93 95 94 93 96 99 102 106 112 117 120 121 122
125 130 122 112 117 114 110 106 105 104 105 99 96 88 9 0
0 0 24 35 35 35 34 32 32 32 30 29 31 34 35 34
34 35 34 34 34 33 34 33 34 33 32 33 33 33 32 32
31 31 32 31 29 29 31 31 24 0 7 30 29 20 22 28
25 23 30 30 29 29 28 28 31 20 0 0 0 0 0 10
46 36 7 0 0 1 7 26 36 20 0 0 0 4 15 29
14 18 21 24 29 41 35 29 17 0 0 0 19 81 91 100
100 99 99 99 98 96 95 97 107 111 110 116 116 127 127 128
128 135 127 121 119 120 113 110 107 108 109 105 101 94 12 0
0 0 23 35 35 34 26 14 14 12 11 9 19 34 36 36
35 35 35 34 34 35 34 34 34 33 33 33 34 34 33 33
33 32 33 32 30 30 31 31 26 1 7 30 29 20 21 29
23 25 37 38 37 36 36 35 35 21 4 0 0 0 2 21
45 25 0 0 0 0 0 28 37 23 0 0 0 2 14 24
0 3 4 0 7 40 37 29 22 1 0 0 2 63 88 98
101 103 104 102 101 99 100 100 105 114 118 122 126 130 131 130
138 142 139 128 126 125 117 108 104 111 111 109 104 100 29 0
0 0 21 35 34 35 24 7 7 7 7 7 17 36 37 37
36 35 34 35 34 34 34 34 34 33 33 33 33 34 33 33
33 32 33 32 30 30 32 31 27 1 7 29 28 18 20 29
25 28 39 40 40 40 41 42 41 24 4 1 0 0 1 14
43 17 0 0 0 0 0 27 36 23 0 0 0 1 12 26
1 9 13 2 4 39 38 29 29 2 0 0 0 27 83 95
102 103 105 103 104 101 102 102 108 111 116 127 129 133 139 137
144 142 142 135 124 129 122 116 112 115 115 112 107 102 54 0
0 1 20 35 35 35 24 8 8 9 8 9 16 36 37 36
37 35 35 35 34 35 34 34 34 34 34 33 33 33 33 34
33 33 33 32 31 30 31 30 27 2 6 27 27 20 21 31
30 30 36 38 39 40 41 40 44 25 0 0 0 2 7 6
41 14 0 0 0 0 0 28 35 22 0 0 0 0 8 29
1 2 5 0 3 39 38 30 33 8 0 0 0 7 73 92
101 103 106 107 106 106 108 106 110 115 118 130 133 138 145 145
145 145 144 144 139 122 122 117 118 118 117 115 109 104 75 0
0 2 17 34 35 35 22 8 8 9 8 9 14 34 37 37
37 37 36 35 35 34 34 34 33 33 33 32 32 33 33 33
33 32 32 32 30 29 29 30 28 3 3 28 29 21 20 28
37 36 36 36 36 37 36 30 41 32 4 0 0 1 4 3
39 12 0 0 0 0 0 28 35 20 0 0 0 0 2 31
2 7 9 2 3 38 38 29 34 14 0 0 0 1 59 89
99 102 106 108 110 110 107 109 112 112 120 124 135 143 145 145
145 145 144 143 139 132 125 122 122 120 120 118 113 104 87 3
0 2 19 34 34 34 23 8 8 8 8 8 11 33 36 35
34 34 33 33 32 32 33 33 34 33 33 33 33 32 32 32
32 32 31 31 29 29 30 31 29 5 2 26 29 21 19 27
37 36 35 35 35 36 35 30 40 37 9 0 0 2 7 3
38 10 0 0 0 0 0 22 37 24 2 0 0 0 2 32
4 1 2 0 2 36 36 29 35 22 2 0 0 0 40 85
97 102 105 110 110 114 113 113 108 115 125 130 142 142 145 145
145 145 144 144 142 138 128 126 125 124 121 123 118 108 91 10
0 3 18 34 33 34 26 12 12 12 13 15 15 29 34 34
34 34 33 27 33 58 21 25 34 32 32 32 32 32 31 31
32 31 31 30 28 28 29 29 28 5 0 24 28 21 18 27
35 35 35 35 34 34 35 31 38 33 0 0 0 0 0 3
38 11 0 0 0 0 0 17 38 21 0 0 0 0 0 32
9 0 0 0 2 34 35 29 34 29 12 0 0 0 14 77
95 99 104 110 113 116 116 114 109 117 124 132 144 144 146 144
145 145 145 144 143 139 129 127 127 125 125 125 119 108 93 15
0 3 16 33 34 34 27 13 12 12 11 11 12 26 34 35
34 34 25 0 1 43 0 6 34 33 32 31 31 31 31 31
30 30 31 31 29 28 30 29 29 8 0 23 29 22 18 26
9 10 10 11 14 27 34 33 36 29 0 0 0 0 0 1
36 14 0 0 0 0 0 15 38 22 1 0 0 0 1 31
12 0 0 0 3 32 33 29 34 34 21 1 0 0 2 62
92 97 104 110 113 114 115 110 113 120 125 134 144 146 146 146
145 145 144 143 143 139 131 128 127 126 126 126 121 110 96 17
1 3 14 31 33 33 26 8 8 7 8 7 10 27 35 35
35 34 25 0 0 16 0 5 33 32 31 32 31 32 31 32
32 31 31 30 28 28 30 30 30 9 0 22 30 23 17 27
0 0 0 0 2 31 35 33 33 29 1 0 0 1 10 3
32 24 7 7 10 9 8 21 41 28 27 25 24 27 31 43
20 4 3 3 6 32 32 29 33 34 31 4 0 0 0 35
85 95 104 111 113 116 119 115 113 118 125 133 142 145 145 145
144 144 144 143 143 139 131 128 127 126 131 129 121 110 93 12
2 3 14 31 33 33 27 9 7 7 8 7 8 27 34 34
33 33 26 0 0 0 0 3 32 32 32 32 32 32 31 32
32 31 31 31 29 28 30 29 30 11 0 20 30 23 17 25
0 0 0 0 1 32 36 33 30 40 35 30 27 31 35 32
35 40 46 43 43 45 45 47 46 30 38 42 45 49 54 54
39 30 29 28 29 34 31 28 32 34 32 12 0 0 0 10
73 91 100 105 110 116 119 114 110 116 123 129 138 144 145 145
145 145 144 143 141 140 132 129 128 129 134 131 122 110 88 5
5 3 13 31 33 33 28 9 6 7 7 7 8 26 35 35
34 33 27 0 0 0 0 2 31 33 33 32 33 32 32 31
31 31 32 31 29 28 30 29 30 13 0 17 29 23 17 25
0 0 0 0 0 30 37 32 28 43 44 39 39 41 38 32
30 37 52 50 48 48 52 52 50 31 34 40 43 48 53 53
41 31 31 31 31 31 30 28 29 32 32 24 1 0 0 0
48 88 98 108 112 119 121 116 110 113 122 126 134 140 144 145
145 144 143 142 142 140 133 131 130 131 135 134 122 110 83 3
6 2 12 31 33 33 29 9 7 7 7 7 8 27 33 19
14 10 8 0 0 0 0 1 31 33 33 32 32 32 32 31
32 31 30 31 29 27 29 30 30 14 0 15 29 24 17 24
0 0 0 0 0 28 37 32 28 44 40 34 37 40 39 32
26 27 35 37 37 36 37 36 38 30 27 32 35 36 33 32
33 32 33 32 32 31 31 31 29 30 32 31 7 0 0 0
17 82 94 106 113 120 121 119 113 116 124 127 130 135 145 145
145 145 140 140 140 139 136 134 131 134 137 134 125 110 89 11
7 3 12 31 33 34 29 9 6 6 6 7 8 27 26 2
0 0 0 0 0 0 0 0 31 33 33 32 32 33 32 32
32 31 31 32 30 28 29 31 30 16 0 13 29 25 17 23
0 0 0 0 0 25 38 32 28 41 26 29 30 32 37 32
27 25 22 24 24 25 25 25 29 31 32 35 35 34 30 28
30 33 32 32 32 32 31 31 32 34 36 37 22 0 0 0
1 68 91 103 112 118 121 121 115 116 123 125 126 130 139 145
145 144 135 136 137 141 139 136 135 138 138 135 126 111 98 33
6 2 10 31 33 34 29 9 6 7 7 7 8 26 31 5
0 0 0 0 0 0 0 0 30 34 33 33 32 32 31 32
32 30 31 31 29 28 29 29 29 17 0 12 30 25 17 23
0 0 0 0 0 22 37 32 30 41 12 8 11 13 16 16
19 28 27 31 31 38 38 34 35 38 39 43 45 44 36 32
31 32 33 33 32 32 32 32 32 33 36 37 31 4 0 0
0 49 86 99 111 118 121 122 117 117 125 127 126 123 131 144
145 143 133 138 140 142 142 139 134 138 140 135 124 112 115 49
5 3 11 32 33 35 30 10 5 7 7 6 6 26 35 21
0 0 0 0 0 0 0 0 29 34 33 34 32 32 32 32
32 32 32 31 30 28 30 30 30 19 0 10 28 25 16 22
0 0 0 0 0 18 38 31 33 44 9 0 0 0 0 2
14 29 34 45 40 50 53 27 20 22 23 27 36 47 36 32
31 32 32 33 32 32 32 32 32 33 35 38 34 14 0 0
1 75 82 86 106 116 123 122 119 118 126 131 127 124 128 139
145 138 132 138 141 143 144 140 138 141 141 136 126 122 127 59
4 3 9 30 33 34 31 14 12 12 9 12 13 26 34 31
9 1 0 0 0 0 0 0 8 26 34 32 32 32 33 32
31 31 31 31 29 28 30 33 31 21 0 8 29 25 17 21
0 0 0 0 0 16 38 31 35 48 12 0 0 0 0 0
15 30 31 43 29 32 41 10 0 0 0 0 17 45 38 33
33 33 32 33 32 32 31 31 31 32 35 37 32 20 1 0
6 99 84 95 109 119 124 127 122 122 128 134 133 127 127 130
146 133 136 141 144 144 144 142 142 143 141 136 126 138 126 67
2 3 5 17 21 25 27 28 31 31 26 30 31 32 25 17
9 0 0 0 0 0 0 0 0 21 34 33 33 33 33 33
32 31 31 32 31 29 28 31 29 21 0 5 24 21 16 20
0 0 0 0 0 13 38 31 34 46 16 0 0 0 0 0
15 29 29 41 12 2 24 11 0 0 0 0 11 43 38 33
33 32 32 32 32 31 31 32 32 33 35 35 30 22 6 1
9 113 93 106 110 119 126 127 126 125 133 137 136 135 134 129
136 134 142 143 144 144 144 143 143 143 142 135 141 134 128 72
1 1 0 0 0 0 0 3 9 14 20 26 31 31 7 0
8 16 0 0 0 0 0 0 0 20 33 32 32 32 32 32
32 31 31 31 30 29 28 30 29 23 0 3 21 20 16 20
0 0 0 0 0 10 37 30 27 20 2 0 0 0 0 0
17 29 29 42 12 1 22 13 0 0 0 0 7 41 38 33
33 33 32 32 33 31 31 31 31 32 33 33 29 27 21 18
17 113 131 112 115 122 125 126 129 127 134 138 137 138 143 140
141 144 144 144 144 144 144 143 143 142 141 143 137 131 128 75
2 2 0 0 0 0 0 2 6 9 8 4 5 6 2 0
5 12 0 0 0 0 0 0 0 18 34 32 32 33 32 32
32 32 32 33 31 29 29 30 30 23 0 2 18 18 16 19
0 0 0 0 0 8 36 31 27 14 0 0 0 0 0 0
18 27 29 42 11 0 21 16 0 0 0 0 3 38 38 32
32 31 32 32 31 31 31 31 31 31 33 33 26 16 11 8
17 108 129 132 121 124 127 129 131 128 134 139 141 141 144 144
144 144 145 144 144 144 144 144 143 142 141 140 137 135 132 75
6 2 0 0 0 0 0 0 3 8 8 6 6 8 6 3
4 3 0 0 0 0 0 0 0 14 30 34 33 33 33 32
32 32 32 33 33 30 29 29 28 22 0 1 17 18 16 19
0 0 0 0 0 6 36 31 27 15 0 0 0 0 0 0
16 27 29 41 11 1 18 16 0 0 0 0 2 36 38 32
32 32 32 32 32 32 31 30 29 23 15 6 0 0 0 4
16 111 122 136 141 130 129 132 132 132 133 140 143 143 145 144
145 145 144 145 144 144 144 143 143 143 142 140 138 138 132 73
5 4 2 0 0 0 0 0 2 7 6 6 5 7 5 7
7 7 7 5 2 0 0 0 0 0 4 13 11 14 32 33
34 33 34 34 34 30 29 29 26 22 1 0 17 19 16 19
0 0 0 0 0 5 36 31 27 17 0 0 0 0 0 0
13 30 29 42 15 1 16 20 2 0 0 0 2 35 38 31
32 31 31 31 31 30 24 14 6 1 0 0 0 0 2 7
15 109 124 126 135 143 135 135 139 137 136 141 143 145 145 145
145 145 144 145 144 143 144 144 144 142 142 138 141 136 135 75
6 4 4 2 0 0 0 0 1 5 4 4 4 5 7 7
8 6 6 7 6 6 3 4 5 5 4 3 2 8 36 36
36 37 36 38 37 34 32 31 29 25 2 0 22 25 23 27
0 0 0 0 0 4 34 31 26 17 0 2 0 0 7 3
10 31 30 43 25 7 14 20 4 4 5 0 1 32 37 31
31 31 31 26 18 10 10 10 4 0 0 0 0 0 6 7
13 106 128 128 132 141 146 143 137 141 138 142 144 145 144 145
145 145 145 144 144 144 145 144 144 144 140 140 136 135 136 76
5 6 5 1 1 0 0 0 1 3 6 4 5 5 5 6
7 6 7 7 7 7 7 6 6 8 6 5 6 14 47 50
50 49 50 50 50 47 43 40 38 34 5 0 21 12 8 8
0 0 0 0 0 3 34 31 27 21 1 5 1 1 12 14
10 34 30 41 23 17 13 18 1 10 8 0 0 29 36 31
31 23 11 7 8 10 12 10 1 0 0 0 0 3 8 8
12 103 129 126 130 134 137 144 145 138 140 143 144 145 145 145
145 145 144 143 144 145 145 143 143 142 141 138 134 138 134 78
10 9 8 2 1 3 5 4 5 5 5 6 4 3 5 6
6 7 7 7 6 7 8 7 5 6 7 15 36 49 53 52
53 53 52 53 52 49 44 39 38 36 7 0 22 1 0 0
0 0 0 0 0 2 33 32 27 28 26 30 30 30 34 35
36 42 32 42 16 23 15 24 14 18 16 13 14 26 30 22
10 3 6 11 11 11 11 10 1 0 0 0 2 6 8 9
13 98 131 133 129 134 136 144 145 145 141 138 144 145 144 144
145 145 145 145 145 145 145 144 143 143 139 135 134 132 136 82
8 9 9 5 3 3 4 4 4 5 5 5 6 3 4 3
4 5 9 7 6 7 8 8 6 6 6 6 5 16 34 48
51 50 50 47 48 44 39 37 37 37 9 0 17 0 0 0
0 0 0 0 0 2 33 32 26 29 45 48 49 49 50 49
50 50 36 41 9 13 15 29 25 25 25 24 23 16 11 6
7 7 8 10 11 9 10 10 3 0 0 2 6 7 9 8
16 94 130 130 130 130 138 140 144 146 146 144 141 144 145 145
144 145 145 145 144 144 143 143 143 139 138 138 133 137 137 84
12 11 10 7 6 5 7 6 5 5 5 5 6 5 4 5
4 7 7 8 8 6 8 8 8 7 6 6 6 6 7 11
27 38 40 30 37 34 27 31 37 36 10 0 10 0 0 0
0 0 0 0 0 1 32 31 26 24 44 47 46 46 46 45
44 44 37 40 9 2 10 30 26 28 27 17 9 7 6 7
7 7 8 8 6 6 10 10 3 1 2 6 6 6 9 9
18 91 131 129 129 129 134 141 146 146 146 146 146 142 142 136
140 146 145 145 145 145 144 143 142 140 136 133 132 137 135 74
14 10 10 8 6 6 6 6 7 5 6 4 6 5 6 4
3 5 7 7 9 8 7 9 9 7 8 5 7 5 6 6
5 5 13 18 21 25 23 31 36 37 12 0 5 0 0 0
0 0 0 0 0 1 31 31 25 21 21 21 20 19 20 19
18 17 22 39 10 1 7 29 25 18 8 5 6 8 8 8
7 9 9 7 6 6 5 7 6 6 9 7 8 10 9 9
14 70 125 129 131 126 131 138 145 146 145 145 135 116 142 130
124 142 146 146 145 145 144 143 143 137 138 134 135 140 137 52
14 14 14 11 9 6 6 6 5 6 7 7 4 4 5 3
5 6 6 7 7 7 8 8 8 10 6 7 7 5 6 5
6 5 3 5 5 12 22 31 35 36 14 0 2 0 0 0
0 0 0 0 0 1 31 31 26 21 16 15 14 14 14 15
15 13 20 39 12 0 5 14 7 6 7 7 7 8 6 6
7 8 8 7 6 7 8 8 11 12 11 9 9 8 7 9
17 37 126 128 130 129 131 139 142 143 146 144 78 128 143 120
108 121 146 145 145 145 144 141 140 140 134 137 139 138 139 55
18 15 15 14 14 15 12 12 9 9 11 11 7 4 4 5
5 4 6 6 8 9 9 8 9 9 7 8 6 8 7 6
7 6 6 3 3 4 5 19 32 35 14 0 0 0 0 0
0 0 0 0 0 1 30 31 25 24 21 19 19 18 18 17
17 15 22 40 20 6 6 5 6 6 6 8 8 8 8 8
9 8 7 7 7 9 9 11 15 14 12 8 8 8 8 12
17 18 113 131 130 127 129 137 143 144 142 115 97 137 146 136
121 136 141 145 145 145 140 142 137 137 136 135 138 140 141 61
16 14 12 11 10 8 8 9 9 10 7 7 7 8 4 5
7 6 6 8 9 9 9 7 8 8 10 6 8 7 6 7
6 8 6 5 6 5 5 4 7 27 15 0 0 0 0 0
0 0 0 0 0 4 33 32 25 24 23 22 22 22 21 21
20 16 21 21 5 5 6 8 7 6 6 9 7 7 8 8
9 8 7 8 8 9 12 12 12 13 12 11 10 9 9 13
18 24 96 131 132 130 130 135 144 144 143 86 121 138 146 137
97 127 128 145 146 144 141 141 139 138 137 141 141 143 140 60
14 13 11 10 9 10 8 8 8 9 8 7 7 8 8 4
4 8 7 9 9 10 11 11 8 9 10 8 7 8 6 7
6 5 7 7 5 4 6 6 9 8 14 0 0 0 0 0
17 18 19 20 20 22 28 26 25 24 23 22 22 21 22 22
20 10 5 4 4 5 6 7 5 6 8 6 9 7 9 10
8 7 8 8 10 13 15 14 14 13 13 13 14 13 12 13
18 45 117 133 133 128 131 131 137 143 116 79 138 142 145 140
102 122 121 138 145 144 141 137 142 139 143 141 143 143 135 33
15 14 12 11 11 8 8 7 8 7 8 9 8 7 7 6
4 7 8 9 9 11 10 11 9 8 10 13 9 7 7 7
9 5 8 7 6 5 6 5 7 7 8 0 0 0 0 0
27 27 27 26 25 25 25 26 25 24 24 23 22 21 20 14
6 3 4 4 4 6 7 6 5 9 7 8 7 8 10 8
7 6 8 7 12 16 14 14 16 16 14 14 13 12 12 14
19 67 135 138 135 134 127 129 136 141 76 80 142 145 145 134
117 122 118 114 143 143 139 142 141 142 140 142 143 142 133 55
15 12 14 14 13 12 10 9 11 10 8 6 7 7 6 6
7 5 7 7 9 11 11 12 12 8 9 11 9 8 8 7
9 7 7 8 8 7 6 4 4 6 4 0 0 0 0 0
28 28 26 26 26 25 25 25 24 23 24 23 22 15 6 3
3 4 3 4 4 7 5 6 6 8 7 9 8 9 11 8
8 7 7 13 11 11 11 14 15 14 15 15 15 14 12 14
19 71 142 143 137 134 134 131 136 131 40 88 143 145 145 140
122 118 114 115 136 143 138 143 141 142 141 143 142 143 138 56
14 12 13 14 13 10 8 9 7 6 6 7 7 7 7 9
10 8 5 7 10 11 11 11 10 10 9 11 10 6 7 8
9 8 9 9 8 7 8 3 4 5 3 0 0 0 0 0
26 24 23 23 21 21 20 20 21 23 23 20 6 3 3 3
4 3 4 5 5 6 5 6 7 7 8 10 8 10 9 10
8 7 15 16 13 12 13 11 13 13 13 14 13 14 13 14
18 71 143 142 138 137 134 130 137 113 33 73 146 146 146 138
111 114 126 115 118 141 141 140 141 141 142 142 142 135 126 59
13 12 14 11 12 11 9 9 8 7 8 8 10 10 10 9
9 7 9 4 7 10 12 10 12 10 9 8 12 7 6 9
8 9 9 9 7 8 7 2 7 5 1 0 0 0 0 0
5 3 3 9 16 17 17 23 22 22 12 3 2 3 3 3
5 3 4 5 8 7 7 7 9 8 9 7 10 13 10 10
7 12 13 13 14 13 14 13 14 15 15 16 16 17 17 15
19 78 145 141 142 140 136 134 133 96 47 85 146 146 146 145
126 110 121 111 113 140 143 142 140 140 142 139 140 114 130 67
14 13 15 12 11 11 11 10 10 9 12 11 10 9 7 7
8 9 10 7 4 8 10 13 12 12 10 10 13 10 7 9
8 10 8 10 7 8 7 1 7 5 0 0 0 0 0 0
9 0 0 6 16 20 20 21 22 9 3 2 3 3 2 4
5 4 5 6 7 6 8 8 9 7 8 7 8 8 9 5
10 14 12 11 13 12 12 13 13 12 13 13 14 16 15 18
19 66 144 138 137 142 140 135 132 87 73 93 144 146 146 146
144 119 114 109 109 133 143 143 141 142 140 142 131 125 140 69
13 15 15 13 12 10 13 13 15 14 11 10 9 10 9 7
9 9 10 9 7 1 9 11 11 12 10 8 11 11 8 8
10 9 7 8 8 10 7 1 7 5 0 0 0 0 0 0
37 5 0 6 14 18 20 21 15 3 2 3 2 4 4 7
5 4 6 8 5 7 6 9 8 9 8 9 11 7 4 10
13 11 11 12 13 13 12 13 12 13 12 14 14 13 15 18
19 39 141 138 136 141 144 138 120 95 111 124 143 144 145 146
146 139 120 102 103 126 139 143 142 141 137 137 125 135 135 64
12 14 15 14 11 12 11 12 14 12 10 10 8 8 10 11
10 9 13 11 2 2 10 11 10 12 10 8 10 9 8 8
7 8 9 7 8 9 7 0 6 4 0 0 0 0 0 0
50 23 12 13 12 16 18 19 8 3 2 5 2 3 4 4
6 5 6 6 5 5 6 8 7 9 8 12 10 7 7 12
14 17 14 14 12 11 12 11 10 12 14 12 13 14 15 17
20 26 121 139 137 140 141 138 109 97 117 134 143 143 144 145
146 145 133 106 103 126 128 143 143 141 141 137 129 132 131 73
12 13 12 12 12 11 13 11 10 14 10 9 10 9 9 10
11 11 10 4 0 5 8 9 11 12 10 8 9 9 8 8
7 9 9 6 7 10 4 2 4 4 0 0 0 0 0 0
53 35 20 18 15 17 19 21 4 4 2 4 1 3 5 4
5 4 9 6 5 7 9 6 7 7 8 12 7 4 10 13
15 13 12 13 15 15 15 17 16 14 13 13 15 15 14 17
17 20 104 144 139 144 139 123 109 116 126 132 144 138 141 144
146 145 145 119 104 128 121 142 145 141 137 132 134 141 135 84
12 14 13 13 12 11 13 11 11 9 10 10 12 12 12 11
11 11 8 0 1 6 8 11 10 11 11 9 8 7 11 8
7 7 8 6 6 7 2 2 5 3 0 0 0 0 0 0
33 25 18 18 16 15 14 13 1 3 2 3 3 4 6 4
5 4 7 4 6 6 9 5 5 6 7 9 2 7 10 10
12 10 10 11 11 12 10 10 13 12 13 15 15 14 13 15
18 27 105 139 140 142 135 109 105 126 139 136 144 139 138 143
145 145 145 135 108 122 116 135 143 140 139 136 127 139 137 96
12 16 13 12 12 11 12 10 11 11 9 13 11 10 10 10
11 11 2 0 4 8 7 10 7 9 10 10 8 8 10 8
7 8 8 5 6 6 0 3 4 2 0 0 0 0 0 0
28 18 10 9 9 9 9 7 0 1 1 2 3 5 5 4
4 6 6 5 6 8 7 8 8 6 8 2 4 11 12 11
11 11 8 10 12 11 13 12 11 9 12 17 13 12 12 16
20 56 121 132 142 141 133 106 111 137 137 135 146 143 137 136
142 145 145 142 126 114 111 127 144 141 140 123 121 141 142 92
12 15 13 13 13 13 14 13 12 12 12 11 11 12 10 9
9 3 0 1 8 8 7 6 7 10 10 10 8 8 10 10
7 5 5 5 6 4 0 4 4 1 0 0 0 0 0 0
29 19 9 9 9 9 9 6 0 3 3 3 4 7 4 5
4 9 5 4 5 7 6 7 8 7 8 0 1 8 11 14
13 12 10 11 10 10 10 10 10 10 10 14 15 14 12 13
18 61 118 127 140 140 112 141 138 144 136 134 146 146 142 136
139 141 143 145 136 117 123 144 139 139 135 125 137 143 135 86
14 14 11 11 12 12 11 12 10 11 11 13 7 9 12 10
6 0 0 6 10 10 7 6 7 9 10 9 7 7 7 10
6 6 7 6 4 1 0 4 2 0 0 0 0 0 0 0
29 20 9 8 8 8 8 4 0 3 3 1 5 7 4 4
5 8 4 7 8 8 7 6 6 7 9 3 0 0 9 10
10 11 13 12 13 11 11 10 11 11 11 14 13 13 11 12
16 18 85 113 131 137 101 147 146 145 138 135 146 145 144 142
140 139 140 145 135 132 137 144 139 141 133 132 144 139 138 91
18 14 12 9 11 13 12 12 11 10 12 11 10 10 8 12
1 0 2 9 11 7 6 6 9 8 10 9 7 7 6 9
6 6 4 2 3 0 2 5 2 1 0 0 0 0 0 0
28 20 9 11 12 15 17 9 0 2 3 1 5 8 5 5
7 7 5 7 7 6 7 7 7 9 7 7 1 0 2 11
12 10 11 9 11 11 11 11 11 12 11 14 14 12 12 12
17 13 79 125 120 126 68 137 141 138 130 134 146 147 145 144
139 140 141 144 139 138 123 143 142 142 137 139 143 138 143 93
23 14 11 11 10 14 12 14 11 10 13 11 10 8 11 10
2 0 7 11 9 7 7 7 8 7 8 10 10 8 8 8
6 5 3 3 2 0 3 5 0 0 0 0 0 0 0 0
