P2
128 120
157
40 39 39 38 37 37 36 34 34 33 33 32 31 31 30 30
29 28 27 26 26 25 25 24 24 23 22 21 21 21 20 20
20 20 19 6 0 0 0 0 0 0 0 0 0 0 0 4
8 5 1 0 0 0 0 0 0 0 0 0 0 0 1 0
0 0 0 0 0 0 0 0 0 0 0 0 0 0 0 0
0 1 4 9 14 17 16 16 18 18 18 19 19 20 20 21
22 22 23 23 25 25 26 26 26 28 29 29 29 31 30 30
30 31 33 34 35 35 35 36 37 36 36 37 38 38 37 37
39 38 38 37 36 36 35 35 34 33 33 32 32 31 30 29
29 27 27 27 26 25 25 24 25 23 23 22 22 21 20 20
20 19 18 15 5 0 0 0 0 0 0 1 4 4 0 10
15 13 10 6 2 0 0 0 0 0 0 0 0 0 1 0
0 0 0 0 0 0 0 0 0 0 0 0 0 0 3 8
12 16 16 17 17 17 18 19 19 20 21 21 22 22 23 23
24 24 25 25 26 26 28 28 29 30 30 30 30 31 32 33
34 34 35 35 36 37 37 37 37 37 37 38 38 38 39 39
39 38 38 36 37 36 35 34 33 33 33 32 31 31 30 30
29 28 28 27 26 26 26 24 24 23 23 22 22 21 21 21
20 20 19 18 14 8 3 0 0 1 5 9 12 9 1 13
16 14 12 12 11 8 3 0 0 0 0 0 0 0 0 0
0 0 0 0 0 0 0 0 0 0 1 5 9 13 16 16
17 17 17 18 18 19 20 21 21 22 22 23 24 24 25 25
26 27 27 28 29 30 30 29 30 30 31 32 33 34 34 34
35 36 36 37 37 37 37 38 38 38 37 38 38 39 39 39
40 39 38 38 37 36 36 35 35 34 33 32 32 31 31 30
29 28 27 27 26 26 25 25 24 24 23 23 23 22 21 21
21 19 19 18 15 12 10 8 6 9 13 15 17 12 2 13
18 15 14 13 12 11 9 7 2 0 0 0 0 0 0 0
0 0 0 0 0 0 0 2 7 12 14 15 16 16 17 18
18 19 19 20 21 21 22 23 23 23 24 24 25 26 27 27
29 29 29 29 30 30 31 31 33 32 34 34 35 36 36 36
37 36 37 37 38 38 38 38 38 37 39 38 39 39 39 40
40 39 39 38 38 37 36 35 35 34 33 32 32 32 31 30
29 29 28 28 28 27 26 25 25 24 24 23 23 22 22 21
20 20 19 19 17 14 12 10 11 14 17 17 17 14 6 13
20 19 17 15 14 13 11 10 8 5 3 0 0 0 0 1
0 0 0 0 5 10 14 16 16 16 17 18 18 19 20 19
20 21 22 22 22 22 24 24 25 25 26 26 27 27 28 28
29 29 30 30 32 33 33 34 35 34 35 35 36 36 37 37
37 37 38 37 38 38 38 38 38 38 38 39 38 39 39 39
39 38 38 38 37 37 35 35 35 34 33 33 32 32 31 31
30 28 28 28 27 27 26 26 25 25 24 24 23 23 22 21
21 20 19 19 17 16 13 11 12 15 17 17 19 16 10 15
23 21 19 18 16 14 12 12 9 8 5 5 6 10 11 11
3 4 10 13 16 16 16 17 17 18 18 19 19 20 21 21
22 23 23 24 24 25 26 26 26 27 27 28 28 28 29 30
31 31 32 32 34 33 34 34 35 35 35 35 37 37 37 37
37 37 37 37 37 38 37 37 37 38 38 38 39 39 39 39
39 39 39 38 37 36 36 35 34 34 33 32 32 31 30 30
30 29 28 28 27 27 27 26 26 25 24 24 23 22 22 21
21 20 20 20 19 17 15 13 12 15 18 19 20 18 13 17
25 22 20 19 18 17 16 13 10 10 8 8 12 14 13 13
11 14 16 16 17 18 18 19 19 19 20 20 21 21 21 22
23 24 24 25 26 26 26 27 27 27 27 28 29 30 30 31
32 32 33 33 34 35 35 35 36 36 35 35 36 36 36 36
36 36 37 36 38 37 38 37 37 38 38 38 39 38 38 39
40 39 39 38 37 37 36 35 35 35 34 33 33 32 32 31
30 29 29 29 27 27 27 26 26 25 25 24 24 23 23 22
22 21 21 21 20 19 16 15 15 18 21 22 23 21 13 17
26 23 21 19 19 18 17 16 13 13 11 9 12 14 15 13
16 17 18 19 20 21 21 20 20 21 22 22 23 23 24 24
25 26 26 26 26 26 26 26 28 28 29 30 31 32 32 32
33 34 34 35 36 35 36 36 36 38 37 36 37 37 37 38
37 37 37 37 37 38 38 38 38 38 38 38 38 39 39 39
40 39 39 38 38 37 36 36 35 35 34 33 32 32 32 31
31 30 30 29 29 28 27 27 27 26 25 25 24 24 23 23
23 22 22 21 21 19 18 17 17 20 24 24 26 22 13 16
27 24 22 21 19 19 17 16 15 16 14 10 10 15 13 15
17 19 19 20 21 22 22 22 23 23 23 24 24 24 25 25
26 26 26 26 27 27 28 28 30 31 30 31 32 32 33 33
33 34 34 35 36 36 37 37 37 38 37 37 37 38 38 37
37 37 38 38 38 38 39 38 39 39 39 39 39 38 37 37
40 40 39 38 37 36 37 36 35 35 35 34 33 33 33 32
31 31 30 29 28 28 28 27 27 26 26 25 25 25 25 24
24 23 23 22 22 21 19 18 18 22 25 26 26 23 15 16
28 25 23 22 21 20 19 17 16 18 16 12 11 17 15 17
19 21 22 21 22 23 24 24 23 24 24 24 26 25 26 27
27 27 27 29 29 30 30 30 31 32 31 32 33 33 34 34
35 35 35 36 36 36 36 37 37 37 36 37 37 37 38 37
38 38 39 39 39 39 39 39 37 37 38 37 39 39 39 39
41 40 39 39 38 37 37 37 36 36 35 34 34 33 33 32
32 31 31 30 29 29 28 28 28 28 27 26 26 26 25 25
25 25 24 23 23 23 22 21 21 25 27 27 28 24 16 15
29 26 24 24 23 22 21 19 19 19 18 15 11 17 17 19
21 22 23 23 24 25 26 26 26 26 26 26 26 26 27 27
28 28 28 29 30 30 31 31 32 34 33 33 34 35 35 35
35 36 36 36 37 37 37 37 37 39 37 38 39 39 38 39
38 38 39 39 38 38 38 39 40 40 40 40 40 40 40 39
42 41 40 40 39 38 38 36 37 37 36 36 35 34 34 34
33 31 31 31 31 30 29 29 29 29 28 28 28 27 27 27
27 27 26 25 25 24 23 23 24 26 29 29 29 26 19 16
30 27 26 25 25 23 22 21 21 20 20 17 13 18 20 22
24 24 25 25 26 26 27 26 27 27 27 28 29 30 30 30
30 30 31 31 31 32 33 33 34 34 34 35 35 36 36 36
37 37 37 38 38 38 39 38 38 40 38 39 39 39 39 38
38 39 39 40 41 40 41 41 40 40 40 41 41 41 40 40
41 41 40 39 40 39 39 38 37 37 36 36 35 35 34 34
33 32 32 30 31 30 30 30 29 29 28 28 28 27 27 27
26 26 25 25 24 24 24 24 25 27 30 30 30 27 20 17
30 28 26 26 25 24 23 21 22 21 20 18 15 19 20 23
24 25 25 25 26 26 27 28 28 28 29 29 29 29 29 30
30 31 31 31 32 32 33 33 34 35 35 35 36 36 37 36
36 37 37 37 38 38 38 38 39 40 38 38 37 38 39 40
40 40 40 40 40 40 40 40 40 40 40 41 40 40 40 40
41 40 40 39 39 38 38 37 37 36 37 35 35 35 35 33
34 33 33 32 31 30 30 30 29 29 29 28 28 28 27 27
26 26 26 25 25 24 24 24 25 28 30 31 30 27 21 17
30 29 27 27 26 26 24 24 23 22 21 19 16 20 22 25
25 25 25 26 27 27 27 28 28 28 29 29 29 30 30 30
30 31 31 32 33 32 33 33 34 36 35 35 36 36 37 36
36 37 38 38 38 38 36 36 36 37 38 39 40 39 39 39
39 40 40 41 41 40 40 40 40 40 40 40 39 40 39 39
40 40 40 39 39 39 38 38 37 37 36 36 35 34 33 33
33 32 32 31 32 31 31 30 30 30 29 29 29 28 28 27
27 26 26 25 26 25 25 25 26 29 30 31 31 27 21 17
29 29 26 26 26 25 24 23 23 22 22 20 18 21 22 25
26 26 27 27 27 27 29 29 29 28 29 29 30 30 30 30
31 31 31 31 32 33 33 33 34 35 35 36 36 36 37 37
35 34 36 36 36 37 38 38 39 38 38 39 39 39 39 39
39 40 39 39 40 39 40 40 40 40 40 40 40 40 39 40
41 41 40 40 39 39 38 37 37 37 36 35 35 35 35 34
33 33 32 31 31 31 30 30 30 29 30 29 29 28 28 28
27 27 26 26 26 26 26 25 26 30 31 32 32 29 23 19
28 29 26 25 27 25 25 23 23 23 23 21 20 23 24 26
27 27 28 28 29 29 29 29 29 30 30 29 30 30 31 31
32 31 32 32 32 33 33 34 34 35 35 35 35 35 35 34
37 37 37 38 38 38 39 39 39 39 39 40 39 39 39 40
39 39 39 40 40 40 40 40 40 40 40 40 39 40 39 39
40 40 40 40 39 38 38 37 38 37 36 35 35 34 35 33
32 32 32 32 31 31 31 30 30 30 30 29 28 28 28 28
28 26 26 26 26 25 26 26 27 30 32 32 33 30 23 17
26 29 26 25 26 26 25 25 24 23 23 22 20 23 25 27
28 27 28 28 28 29 28 29 29 29 30 30 30 30 31 31
32 31 33 32 33 34 34 34 34 35 34 34 33 34 36 36
37 38 37 37 38 38 39 38 38 39 38 39 40 39 40 39
40 39 39 40 40 40 39 40 39 40 40 40 40 39 39 39
40 40 40 39 38 38 38 37 37 36 36 35 35 35 35 34
34 33 33 32 32 32 32 31 31 30 30 29 29 28 28 28
28 28 27 27 26 26 26 26 27 30 32 32 32 29 24 13
20 30 28 28 27 26 25 26 25 24 24 23 20 25 26 28
28 28 28 28 28 29 29 29 30 30 30 30 30 30 31 32
32 32 33 33 33 33 33 32 32 34 35 36 36 36 36 37
37 39 38 38 38 38 38 39 39 39 39 39 39 39 39 38
39 39 39 40 40 39 40 40 40 40 40 39 39 39 38 38
41 40 40 39 38 38 38 38 37 37 36 36 35 34 35 34
34 33 33 32 32 32 32 31 31 30 30 30 30 29 28 28
28 27 27 27 27 26 26 27 28 31 33 33 33 29 22 16
24 31 27 28 27 26 26 27 26 25 25 25 22 26 27 28
29 29 29 28 29 29 29 29 30 30 31 31 31 31 32 32
32 32 32 32 31 33 33 34 35 35 35 36 37 37 37 37
38 39 39 38 38 39 39 39 39 38 39 39 39 39 39 39
39 39 39 39 39 39 40 39 39 39 40 40 40 39 40 39
41 40 40 40 39 39 38 38 37 37 37 36 36 36 35 35
34 34 33 33 32 32 31 31 31 31 30 30 30 29 29 28
28 27 28 28 28 27 27 27 28 31 33 34 33 30 23 22
23 31 29 29 28 28 26 27 26 25 25 25 22 27 27 29
29 29 29 30 30 30 30 30 31 31 31 31 31 31 32 32
32 33 32 33 33 34 34 34 35 35 35 36 37 37 37 37
37 39 39 39 38 39 39 39 39 38 38 39 39 38 39 39
39 39 39 40 40 39 40 40 40 40 39 40 40 39 38 37
41 40 39 38 38 38 38 38 38 38 37 36 36 36 35 34
35 34 34 33 33 32 32 31 31 30 31 30 30 29 29 29
29 28 28 28 27 27 27 28 28 31 34 33 33 31 23 23
23 30 28 26 28 28 27 27 27 25 25 25 22 27 28 29
29 29 30 29 29 30 30 30 30 30 31 30 31 31 32 33
33 34 34 33 34 34 35 35 36 36 36 36 37 37 38 38
39 39 39 38 39 39 39 39 38 38 39 39 40 39 39 39
40 40 40 40 41 40 40 40 39 38 38 38 38 39 39 40
40 40 40 39 39 39 38 38 38 37 37 36 36 36 35 35
35 35 34 33 33 33 33 32 32 31 31 30 30 30 30 29
29 29 28 28 28 27 28 27 28 32 33 32 32 29 22 23
20 18 14 16 16 19 20 20 22 24 25 24 22 26 28 30
29 30 30 30 30 30 30 30 30 30 31 31 32 32 32 33
33 33 34 33 34 34 35 35 36 36 37 36 37 37 38 38
38 39 39 39 39 39 40 39 39 39 39 38 39 39 39 39
39 40 39 40 40 39 40 39 39 40 40 40 40 40 39 39
40 40 39 39 39 38 38 38 38 38 37 37 37 36 36 35
35 35 34 33 33 33 33 32 32 31 31 31 31 30 30 30
29 29 28 28 28 28 27 27 28 31 33 31 24 15 16 14
9 4 2 0 1 1 4 3 6 7 10 13 16 19 20 24
28 29 30 30 30 30 31 31 31 31 32 32 32 33 32 33
34 34 35 34 35 35 35 35 36 36 37 37 38 39 39 39
39 40 39 39 39 39 40 39 39 40 39 39 39 39 40 39
39 39 39 40 40 40 40 40 40 39 39 39 39 39 39 39
40 40 40 39 39 39 38 38 38 37 37 36 36 36 35 35
35 35 34 34 33 33 33 33 33 32 31 31 31 31 31 30
29 29 29 29 28 28 28 27 29 30 25 22 10 4 4 3
3 0 0 0 0 0 0 1 1 3 4 1 4 8 6 8
12 19 26 31 32 32 33 32 32 33 32 32 33 33 33 33
33 34 35 34 34 36 36 36 36 37 37 37 37 37 38 38
38 39 40 39 40 40 40 40 40 39 39 39 39 39 39 40
40 40 40 39 39 39 39 40 40 39 39 39 39 39 39 38
40 40 40 40 39 39 38 38 38 38 38 37 37 36 36 36
35 35 35 33 34 33 33 32 32 32 32 31 32 31 30 30
30 29 29 28 28 28 28 27 23 12 6 1 0 0 0 0
0 0 0 0 0 1 0 1 0 2 7 6 2 4 5 8
14 12 14 22 29 31 32 32 32 32 33 32 33 33 34 34
34 35 35 35 35 36 36 36 36 37 37 37 37 38 38 38
38 39 40 39 40 39 39 38 38 38 38 38 39 40 39 40
39 39 40 39 39 39 38 38 39 38 38 39 38 38 38 38
40 40 40 40 40 39 39 38 38 38 38 37 37 36 36 36
35 35 35 35 34 34 34 34 33 32 33 32 31 30 30 30
28 27 28 28 28 27 27 22 8 1 3 0 0 0 0 0
0 2 1 0 1 1 0 0 0 2 5 7 7 5 1 2
4 7 10 14 20 29 32 33 32 32 32 32 32 32 34 34
34 34 35 35 35 36 36 36 36 37 38 39 38 38 38 38
37 37 38 38 37 38 39 39 40 40 39 39 39 38 39 39
39 38 38 39 39 39 39 38 39 39 39 39 38 39 39 39
41 40 39 39 39 39 38 39 38 38 38 37 37 36 36 36
36 35 35 34 34 34 34 33 33 32 32 32 32 29 26 28
29 26 28 27 28 25 17 5 1 0 0 0 0 0 0 0
0 1 2 1 1 0 0 1 2 4 1 1 7 7 1 0
0 1 4 7 10 20 27 32 32 32 33 32 33 33 34 35
35 35 36 36 36 37 37 36 36 37 38 38 38 37 37 37
38 38 39 39 39 40 39 40 40 41 40 39 39 39 40 39
39 39 39 40 39 38 38 39 39 39 40 39 40 39 39 39
40 40 41 40 40 40 39 39 39 39 38 37 37 37 37 36
35 35 35 35 34 35 34 34 34 33 33 31 27 25 30 29
27 25 25 23 16 6 2 0 0 0 0 0 0 0 0 0
0 0 2 7 6 6 1 1 2 4 1 1 1 2 2 1
2 0 1 3 5 5 16 29 32 33 33 33 34 34 35 35
35 35 37 36 36 37 37 37 37 37 37 37 38 39 39 39
40 39 39 39 39 39 40 40 40 40 41 39 39 39 40 39
39 39 39 39 39 39 39 38 38 40 40 39 40 40 39 39
41 41 40 40 39 39 39 39 38 38 38 38 37 37 37 37
36 36 35 35 35 35 34 34 33 33 33 30 27 31 31 28
28 16 8 4 5 3 0 0 0 0 0 0 0 0 0 0
4 1 0 2 4 7 7 6 3 0 0 0 1 1 0 2
1 5 6 2 5 8 7 19 28 33 33 34 34 34 36 35
36 37 36 36 36 36 36 37 37 38 38 39 39 39 39 39
39 40 40 40 40 40 40 40 40 39 41 39 39 38 39 39
39 39 39 39 39 39 39 38 39 39 40 40 39 39 39 39
41 40 40 40 40 39 39 39 39 38 38 38 37 37 36 36
36 35 36 36 35 35 35 34 34 33 32 30 28 31 30 23
13 4 2 2 2 0 0 0 0 0 0 0 0 0 0 0
1 1 1 2 9 7 4 6 3 1 0 0 1 2 0 1
2 1 2 4 5 6 6 6 23 32 35 34 34 34 35 35
36 35 35 36 37 36 37 37 37 38 39 39 39 40 39 39
40 39 40 39 40 39 40 39 40 40 41 39 40 38 39 39
39 39 39 39 39 39 39 39 39 40 40 40 40 40 39 39
41 40 41 40 40 39 39 39 38 38 38 38 37 37 37 37
37 37 36 35 35 35 35 34 34 33 32 28 29 30 28 17
4 1 1 0 0 0 0 0 0 0 0 0 0 0 0 1
4 4 2 4 2 1 3 2 1 0 1 0 1 1 2 2
0 4 1 4 8 6 2 3 10 31 33 35 35 35 36 36
36 36 37 36 37 37 37 38 38 38 39 38 39 39 39 39
40 40 40 40 40 40 40 40 40 39 41 38 39 39 39 39
39 39 40 40 40 39 40 40 39 39 40 39 39 39 37 37
41 40 40 40 39 40 39 39 39 38 38 38 37 37 37 37
37 36 36 35 35 35 35 34 34 34 33 27 29 22 9 1
1 0 0 0 0 0 0 0 0 0 0 0 0 1 4 5
5 8 11 9 12 4 2 0 1 0 2 3 4 4 2 2
1 1 1 2 4 9 3 4 9 13 32 35 36 36 36 36
36 36 37 37 37 38 37 38 38 38 41 40 39 40 40 40
40 39 40 39 40 40 40 39 39 39 41 40 39 39 40 39
39 39 39 40 40 39 40 39 40 39 39 38 35 35 36 36
40 41 41 40 39 39 39 39 38 38 38 38 38 37 37 37
37 37 36 36 35 35 34 34 34 34 33 29 19 2 0 0
0 0 0 0 0 0 0 1 2 0 0 0 1 1 1 2
6 12 9 5 3 0 1 2 0 1 3 4 4 8 3 2
1 2 2 1 7 10 6 3 7 6 20 35 35 36 36 36
36 36 37 37 37 38 37 38 39 39 40 39 39 39 39 40
40 40 40 40 40 39 39 40 40 39 40 39 39 39 40 39
39 40 40 39 39 38 38 38 38 38 39 39 38 39 38 37
41 41 40 40 40 39 40 39 39 39 39 38 38 37 37 37
37 36 36 35 36 35 35 35 34 34 33 26 4 0 0 0
0 0 0 0 0 0 0 0 0 0 0 0 0 1 5 5
6 5 4 1 1 1 1 3 4 4 7 8 12 15 14 6
4 2 8 4 4 7 9 5 2 8 6 32 35 36 36 36
36 36 37 37 38 37 38 38 39 39 40 39 40 40 40 40
40 39 39 39 40 39 39 40 40 40 41 40 40 40 39 39
39 39 38 38 39 39 40 40 39 39 38 39 38 38 37 37
41 40 40 40 40 39 39 39 39 39 38 38 38 38 38 38
37 36 36 36 35 35 35 34 34 33 22 5 0 0 0 0
0 0 0 0 0 0 0 0 0 0 0 0 0 1 3 5
6 4 6 5 2 3 6 5 6 9 8 11 10 13 15 15
8 6 9 7 0 10 8 12 6 3 7 14 36 35 36 36
37 37 37 38 38 37 38 39 38 39 40 39 39 40 39 40
40 39 40 39 41 40 41 40 40 40 39 36 37 38 38 39
39 40 40 41 38 38 39 38 38 38 37 38 38 38 38 36
40 40 40 39 40 40 40 39 39 39 39 38 39 38 38 37
36 36 36 36 35 35 34 29 22 16 7 0 0 0 0 0
0 0 0 0 0 1 1 0 0 0 0 0 0 1 3 8
13 14 9 6 4 6 4 8 9 8 9 14 14 13 14 11
11 10 14 9 6 0 9 9 14 7 11 9 32 37 37 37
37 37 37 37 38 38 39 39 39 39 40 39 40 39 40 40
40 40 39 39 39 38 37 37 38 39 39 39 40 40 40 39
38 39 39 40 37 39 38 38 39 38 38 38 37 37 37 36
25 37 41 40 40 40 40 39 39 39 39 38 38 38 37 37
37 37 36 37 36 33 26 16 8 6 1 0 0 0 0 0
0 0 0 0 1 2 2 0 0 0 0 0 2 2 2 2
4 5 8 3 7 9 9 12 8 8 9 12 17 18 17 12
11 6 11 7 5 2 3 6 12 12 5 14 21 36 37 37
37 38 38 38 38 39 39 40 40 39 40 39 40 39 40 40
40 39 39 38 38 39 40 40 40 40 39 39 39 39 39 39
39 39 39 40 38 39 39 39 39 38 38 38 38 37 37 37
18 36 41 41 41 40 40 40 39 39 39 39 38 38 37 38
37 37 36 36 34 32 21 7 0 1 0 0 0 0 0 0
0 0 0 0 0 0 0 0 0 0 1 1 0 0 0 0
2 2 6 9 7 11 18 18 20 16 19 14 14 15 11 14
8 11 6 14 7 8 4 9 7 13 1 12 16 33 37 37
37 38 38 38 38 39 39 39 39 39 39 39 38 38 39 39
39 39 40 39 39 40 39 40 39 39 39 39 39 39 39 39
40 39 39 39 38 38 38 38 39 38 38 37 38 37 37 37
18 36 41 41 40 40 39 38 39 40 39 39 39 38 38 38
37 37 37 37 35 26 15 1 0 0 0 0 0 0 0 0
0 1 0 0 1 0 0 0 0 0 0 0 0 0 0 0
2 1 4 6 13 17 18 22 17 17 19 16 12 12 8 7
8 13 7 12 10 8 4 5 5 10 7 4 14 31 37 38
37 38 38 38 39 38 38 38 38 38 38 38 39 38 39 39
38 39 40 39 39 39 40 40 39 39 39 39 39 39 39 39
38 39 38 39 38 38 38 39 38 38 38 37 37 37 36 36
18 35 41 40 40 40 39 45 49 46 45 42 40 39 37 38
37 37 37 37 34 25 11 0 0 0 0 0 0 0 0 0
0 0 0 0 0 0 0 0 0 0 0 0 0 0 0 3
2 2 4 6 6 11 14 13 13 17 15 17 13 11 12 11
9 14 8 10 10 7 4 5 4 5 9 5 12 25 38 38
38 38 39 38 38 39 38 39 38 38 38 40 39 39 39 39
39 39 40 40 39 40 40 39 39 39 39 39 39 38 39 39
39 39 39 39 38 38 38 39 38 39 38 38 37 37 37 37
21 38 42 41 41 41 39 47 53 50 49 44 44 43 43 39
39 38 38 36 32 25 4 0 0 0 0 0 0 0 0 0
0 0 0 0 1 0 0 0 1 0 0 2 1 2 4 5
2 4 7 11 13 14 17 17 11 10 16 12 14 5 10 14
13 17 17 6 10 8 5 3 5 3 8 2 14 21 35 37
37 38 38 39 37 39 38 39 39 39 39 39 39 38 39 39
39 38 40 40 39 40 40 40 39 39 39 39 39 39 38 39
39 38 38 39 39 39 39 39 38 39 39 38 38 38 37 37
22 41 43 43 42 41 40 48 54 52 48 47 49 51 51 45
46 44 41 37 28 20 0 0 0 0 0 0 0 0 0 0
1 3 4 5 6 1 1 0 1 1 0 1 2 3 4 10
11 10 8 13 21 20 24 20 18 8 14 16 15 8 9 10
11 10 15 10 10 9 7 4 8 3 8 6 8 19 36 38
38 38 39 40 38 38 38 38 39 39 39 38 38 39 39 39
39 40 41 41 40 40 40 40 39 39 39 39 40 39 38 39
40 39 39 39 40 39 39 39 39 38 38 38 38 37 37 37
22 43 47 43 44 44 44 46 33 38 45 49 52 53 51 38
34 42 44 42 38 18 6 0 0 0 0 0 0 0 0 0
0 0 1 2 0 0 1 2 1 1 1 0 1 3 5 6
11 14 13 11 16 17 12 17 24 15 3 11 13 12 16 8
12 6 11 17 11 10 12 7 10 6 6 9 7 15 27 37
38 38 38 39 38 38 39 39 40 39 39 39 39 39 39 39
39 39 39 41 40 40 40 39 40 39 40 40 39 39 39 39
39 39 39 40 40 39 39 40 38 38 39 37 38 37 37 36
22 42 46 38 38 44 49 49 4 1 14 30 35 39 46 24
0 4 10 18 24 17 12 5 0 0 0 0 0 0 0 0
0 0 0 0 0 0 0 0 0 0 1 1 3 4 6 9
14 13 12 10 5 8 14 11 14 17 13 6 8 12 12 12
15 9 12 19 11 14 12 16 13 10 7 10 9 16 23 37
38 38 38 40 38 38 38 39 39 39 39 39 39 39 39 39
39 40 39 40 40 39 39 39 39 38 39 38 39 39 39 39
40 39 40 40 39 40 39 39 38 37 36 36 35 36 37 38
21 35 44 45 45 46 53 51 5 0 5 15 17 17 34 22
0 0 0 0 2 2 1 2 2 0 0 0 0 0 0 1
0 0 1 3 5 2 2 1 0 1 2 4 5 7 9 13
20 23 19 11 6 8 11 13 10 8 7 5 8 6 11 10
17 13 14 17 18 14 17 13 14 14 12 14 10 16 20 38
38 37 38 40 39 38 39 38 39 39 39 39 40 39 39 40
39 39 40 40 40 39 39 39 39 38 39 39 39 39 39 39
40 40 40 39 37 37 38 37 37 38 39 39 39 38 37 37
18 4 6 15 25 37 47 50 8 0 3 9 11 13 32 27
1 0 0 0 0 0 0 6 24 10 2 1 1 2 1 0
0 1 2 4 5 6 1 2 2 1 3 5 8 10 10 14
15 19 21 14 12 14 11 11 10 11 9 5 4 5 8 14
13 15 15 14 19 13 19 15 17 16 16 18 12 14 18 35
38 38 38 39 39 39 38 38 38 39 39 39 39 39 39 39
39 39 40 40 39 39 39 39 39 39 40 39 40 40 40 39
39 39 40 40 39 38 38 38 37 38 38 38 39 37 37 37
16 0 0 0 0 1 5 22 9 0 0 1 0 6 28 23
0 0 0 0 0 0 0 6 34 27 24 5 5 2 0 0
0 0 3 4 6 7 7 9 8 4 6 11 10 14 14 14
20 16 17 15 11 10 10 9 14 12 9 8 7 5 8 12
11 15 15 16 17 14 17 17 13 17 19 19 17 14 16 33
36 37 38 39 38 39 39 38 40 39 40 40 40 39 39 39
39 39 40 38 39 39 39 39 39 39 39 39 40 41 41 40
40 39 39 38 38 38 38 39 37 37 37 38 39 38 38 38
17 1 0 0 0 0 0 10 9 0 0 0 0 2 29 24
0 0 0 7 10 1 0 5 39 57 55 30 10 9 5 1
0 2 3 4 7 6 6 8 7 8 8 13 19 19 17 15
17 16 15 18 16 13 13 11 15 16 12 9 11 11 7 14
12 10 14 13 15 14 20 19 23 18 18 18 18 14 18 33
37 38 39 39 38 39 40 39 39 39 39 40 39 40 39 40
39 39 39 40 40 40 40 40 39 39 39 39 40 40 40 39
39 39 39 38 38 38 39 39 38 38 38 38 39 38 39 39
17 1 0 0 0 0 0 9 8 0 0 0 0 1 32 27
0 0 0 10 16 11 5 4 40 69 96 86 66 44 29 20
9 2 5 10 7 9 11 11 11 14 15 18 19 19 23 15
16 17 14 18 14 12 14 14 17 17 16 14 16 15 11 13
15 16 12 19 14 18 17 21 24 19 17 16 18 15 14 33
39 38 38 38 38 39 39 39 39 40 40 39 39 40 39 38
39 39 39 39 39 40 39 39 39 37 39 39 40 39 40 39
39 39 39 39 39 39 39 39 39 40 39 38 38 37 35 35
17 1 0 0 11 3 0 8 7 1 0 0 0 1 30 30
0 0 2 13 18 17 14 5 39 74 100 102 108 101 83 60
46 26 11 10 13 17 17 18 19 16 23 18 21 23 25 18
11 14 20 22 15 13 15 17 18 16 16 14 17 16 18 17
20 17 15 18 13 19 19 24 25 23 16 21 21 12 14 30
38 39 40 40 39 39 39 39 39 39 39 39 40 39 39 39
39 39 39 40 39 40 40 39 40 39 38 40 40 40 39 40
40 40 41 40 39 38 38 39 40 38 36 36 35 35 33 31
17 1 9 6 8 2 0 7 8 1 0 0 0 6 30 32
0 0 2 11 17 17 16 5 41 84 104 106 120 125 118 103
101 84 58 27 23 25 29 29 29 24 28 30 30 25 25 18
18 11 14 20 18 15 15 17 17 15 18 15 20 18 23 21
26 19 15 18 15 22 18 21 21 22 15 19 22 20 16 28
37 38 38 38 39 39 38 38 39 39 40 40 39 40 39 39
38 39 39 39 39 38 39 39 38 39 38 39 41 40 40 40
40 39 37 36 36 36 37 36 35 30 27 23 20 16 14 13
18 5 10 0 5 3 0 7 9 0 0 0 0 10 33 38
2 2 4 1 7 15 15 3 44 99 107 113 125 137 137 133
121 111 107 94 61 66 56 45 31 24 29 33 28 27 29 25
25 22 15 17 18 17 16 14 17 15 16 18 20 16 25 21
27 27 23 26 19 22 18 19 16 23 22 19 22 22 14 26
38 38 39 38 38 38 40 39 39 40 39 40 39 39 40 39
39 39 39 39 40 39 40 39 38 38 39 39 38 37 37 36
37 35 31 28 25 22 19 16 14 14 14 14 15 15 16 16
18 6 2 0 0 1 0 11 30 17 12 10 3 2 30 53
38 32 28 19 10 8 10 4 55 107 111 120 129 142 146 142
140 125 122 128 126 113 102 100 70 34 36 39 26 24 23 26
21 21 18 17 19 21 18 22 19 15 16 26 18 22 29 18
25 29 29 30 25 23 20 17 18 17 27 19 18 23 22 24
36 38 38 38 38 39 39 39 40 39 40 40 39 39 39 38
38 39 39 38 38 37 39 37 37 35 37 34 31 27 24 20
18 16 15 14 15 15 15 17 17 18 19 19 21 21 21 22
18 2 0 0 0 0 0 15 57 51 44 44 42 34 45 53
25 27 32 33 35 35 35 37 72 107 111 120 135 144 149 145
147 145 135 143 146 145 142 138 113 67 46 42 27 34 21 22
25 17 25 20 22 24 13 20 19 17 16 22 22 23 30 21
24 30 25 30 31 22 23 24 22 9 22 17 12 23 23 22
34 39 39 38 38 39 39 39 39 39 39 39 38 38 37 37
37 38 37 37 35 32 30 27 24 21 19 17 16 16 15 16
18 19 19 21 19 14 23 23 24 25 25 26 26 26 15 26
19 4 0 0 0 0 0 15 59 49 52 56 60 57 52 45
19 18 19 18 19 19 20 25 71 107 111 122 137 148 149 148
148 148 147 148 147 147 148 148 141 114 78 53 33 30 27 24
27 20 24 18 22 27 24 24 20 20 18 27 24 30 28 25
23 28 26 29 34 28 26 31 19 6 13 17 12 16 21 21
33 37 39 39 39 39 40 40 39 40 40 39 37 37 40 34
29 26 23 21 18 18 18 18 18 19 20 21 22 23 24 25
26 26 27 28 27 10 27 29 30 30 26 27 31 20 27 33
23 34 32 22 13 7 3 17 51 43 53 56 59 59 48 38
22 20 19 17 16 15 15 14 65 100 94 102 120 140 149 149
149 149 149 149 148 148 148 148 147 133 115 87 46 30 28 25
29 25 22 25 33 40 48 55 33 23 25 21 22 25 26 25
22 17 24 27 32 28 28 38 16 10 9 15 15 14 19 26
34 38 39 39 40 39 38 36 33 30 28 25 22 22 37 28
15 18 20 21 22 23 24 24 25 26 27 27 29 29 29 30
30 25 25 31 32 19 23 34 34 33 20 31 29 22 34 34
24 46 57 55 51 48 44 46 45 39 49 54 57 58 51 43
24 20 17 14 14 14 15 15 50 57 55 73 89 118 141 150
149 149 147 148 149 148 148 148 148 146 140 120 96 55 39 33
38 35 43 58 43 48 52 58 72 36 20 19 18 23 23 23
24 21 20 34 19 17 26 26 15 11 13 11 15 15 15 22
29 34 33 30 28 24 22 21 20 20 20 22 22 22 30 25
18 25 26 28 29 29 31 30 31 32 32 31 33 34 34 34
35 35 29 26 35 31 14 35 35 33 18 32 20 30 31 36
23 46 57 57 55 55 56 58 36 11 17 25 32 38 38 43
26 19 16 8 7 8 14 18 27 26 25 63 90 108 126 146
149 149 149 149 149 149 149 149 149 148 147 143 126 103 76 49
52 58 66 60 57 87 94 102 99 98 28 16 18 25 22 29
22 23 23 23 12 13 26 20 17 12 20 13 8 14 13 19
18 23 22 21 22 23 24 24 26 26 27 28 28 28 33 29
22 29 32 33 33 33 34 35 34 35 35 35 35 36 36 35
37 37 36 29 28 34 13 29 36 32 19 23 27 32 33 35
23 39 51 51 52 55 56 57 29 0 0 0 3 12 20 42
26 17 13 1 0 1 8 13 23 16 29 86 105 120 130 142
147 148 148 149 148 148 148 148 148 148 148 148 148 131 109 82
69 84 104 100 82 104 134 143 132 120 94 11 16 19 21 24
22 16 23 20 6 11 19 12 12 12 20 14 9 13 10 14
19 26 27 27 28 28 30 31 32 32 33 33 33 31 28 25
25 32 34 34 36 36 36 36 37 37 37 36 36 35 36 35
36 37 36 36 29 27 26 16 35 29 20 17 35 31 33 36
28 33 37 39 42 42 45 52 24 0 0 0 1 1 12 45
24 16 12 2 0 5 3 2 21 53 53 77 94 112 125 136
142 143 144 149 149 148 148 149 148 148 149 148 148 145 128 128
110 99 122 135 121 134 143 148 143 126 134 26 16 16 21 22
24 16 16 19 10 14 16 8 10 9 21 10 10 12 14 12
24 31 32 32 32 34 34 35 35 35 35 35 35 30 11 7
21 34 36 37 37 36 36 37 37 37 37 36 37 37 35 36
35 36 36 37 37 28 24 9 16 13 15 27 35 31 34 33
25 27 27 30 38 35 42 51 21 0 0 0 2 0 4 45
19 10 1 0 0 12 10 5 13 82 94 65 59 89 105 124
135 138 140 148 149 149 148 148 148 148 149 148 148 148 145 145
146 135 131 144 111 143 146 147 144 130 142 56 26 15 21 22
21 18 16 13 7 19 14 11 8 5 14 7 10 10 11 12
26 35 36 36 35 36 37 36 37 37 35 33 32 29 10 5
16 34 38 39 38 38 38 38 38 38 38 38 38 38 37 36
36 36 36 36 37 35 26 8 0 0 21 31 32 30 34 31
25 26 30 34 38 39 45 50 21 0 0 0 0 0 6 45
7 0 0 0 2 9 17 12 10 91 99 45 26 54 78 101
125 134 137 148 149 149 149 149 149 148 149 149 148 148 148 148
148 147 144 146 86 77 139 148 146 134 143 74 41 20 17 17
20 17 15 18 5 10 15 7 8 5 16 9 8 5 8 12
27 37 37 37 38 37 37 37 38 22 9 4 13 26 8 4
15 34 37 38 38 38 38 38 38 38 38 38 38 37 37 36
36 35 36 36 36 34 34 22 0 4 31 32 28 27 31 33
26 12 6 11 18 25 32 38 20 0 0 0 0 0 8 46
8 0 0 0 3 9 20 18 33 115 127 110 66 71 104 118
127 136 139 147 149 149 149 149 149 148 149 148 148 148 148 148
148 148 148 146 127 73 116 146 147 136 141 81 54 31 20 15
17 14 12 16 10 8 9 7 8 5 17 11 6 4 5 12
28 38 38 39 39 38 38 38 37 23 17 23 29 29 4 0
14 34 37 38 38 37 37 38 37 37 37 37 37 37 36 36
36 35 34 35 35 35 36 31 1 6 33 30 23 24 31 34
29 9 0 0 0 0 0 7 18 0 0 0 0 0 8 44
5 0 0 0 6 22 24 23 87 125 130 122 86 85 115 130
138 141 143 148 149 149 149 149 149 149 149 148 149 148 148 148
147 147 129 87 117 111 122 140 148 142 140 101 72 43 29 17
13 14 12 11 14 7 10 11 6 8 11 10 5 8 4 14
29 38 39 38 39 38 38 38 38 38 36 36 36 31 7 0
15 34 37 38 38 37 37 37 37 37 37 38 38 37 36 36
36 35 35 34 34 35 35 32 3 4 34 33 25 24 34 34
29 12 0 0 1 0 0 4 17 0 0 10 7 0 7 43
3 0 0 0 4 19 28 50 125 126 123 117 101 90 114 137
143 145 147 149 150 150 149 149 149 149 148 148 147 148 148 148
143 148 67 41 99 115 131 137 148 143 135 114 88 55 49 22
13 13 14 11 16 7 13 12 13 15 11 12 5 6 2 13
35 38 39 40 39 38 39 39 38 37 37 35 35 32 14 0
19 35 38 39 39 38 38 37 37 37 37 37 37 36 36 36
37 36 35 34 34 36 37 33 4 3 33 34 26 23 33 34
29 11 0 1 8 2 0 3 17 0 4 22 16 3 7 42
3 0 0 2 3 3 28 111 136 125 123 119 111 92 114 137
144 147 149 149 149 149 148 149 149 149 148 149 148 148 148 147
139 146 71 65 111 129 122 134 148 144 125 116 98 72 67 29
17 13 12 13 16 6 10 11 15 16 14 12 11 4 1 12
35 38 38 39 38 38 38 38 38 38 37 36 35 31 21 10
26 36 38 38 38 37 37 36 37 37 37 37 37 37 36 37
36 36 36 34 35 36 36 34 5 2 32 34 24 22 33 35
27 11 0 7 22 10 2 2 19 1 11 22 18 8 7 41
2 5 1 2 3 3 72 143 145 129 125 120 112 97 115 136
146 150 150 149 149 149 149 149 148 149 149 149 148 148 148 146
136 142 81 115 112 131 124 140 144 144 119 116 106 87 85 44
21 14 12 16 18 13 11 14 14 16 12 16 9 6 1 12
35 38 39 39 38 38 38 38 38 37 38 36 34 30 28 27
32 38 38 38 38 38 37 37 36 37 37 37 37 36 36 36
36 36 36 35 34 30 34 32 7 0 22 25 17 20 31 33
25 11 0 11 24 12 5 3 39 35 38 39 36 32 30 43
2 0 0 0 0 19 124 148 148 137 124 122 114 100 113 133
148 149 149 149 149 149 149 148 148 148 149 148 148 148 148 146
139 141 109 126 126 124 137 146 141 135 117 121 112 100 97 58
31 15 12 13 14 17 11 15 18 14 13 16 12 8 5 15
37 37 38 38 38 37 38 38 37 37 37 37 36 32 31 32
36 37 38 38 38 37 37 37 37 37 37 37 38 37 37 37
37 36 35 33 33 29 23 25 7 0 25 34 28 24 31 34
25 13 0 5 8 5 2 2 42 47 51 51 51 55 59 50
12 10 9 1 1 62 140 149 150 143 129 121 115 103 111 132
148 150 150 150 149 149 149 149 149 149 148 148 148 148 149 145
134 146 122 126 141 148 148 140 144 120 120 125 122 117 104 66
35 18 14 11 13 13 13 15 22 18 11 13 11 5 10 24
37 38 38 38 38 38 39 38 38 38 37 36 36 34 34 35
38 38 38 38 38 38 38 38 37 37 36 37 36 37 37 37
37 36 36 34 34 34 35 34 12 0 23 32 27 21 28 30
26 23 12 3 4 3 0 2 41 48 51 51 51 58 62 57
37 35 35 30 31 106 141 150 151 147 132 125 115 109 113 130
147 150 149 149 149 149 149 149 148 149 149 149 148 149 149 146
132 136 142 144 148 147 148 146 141 117 121 128 136 134 109 73
41 21 13 13 11 12 13 15 23 14 12 12 17 9 19 29
37 38 37 38 38 38 39 38 39 37 37 37 36 35 35 37
37 37 37 36 37 37 37 37 36 36 36 37 37 37 36 37
36 35 35 34 34 33 34 34 14 0 21 32 28 21 29 33
28 27 9 1 4 1 0 2 39 41 45 45 46 49 49 49
42 42 43 42 55 122 142 150 150 140 128 124 118 112 114 127
145 149 149 149 150 150 149 149 149 149 149 148 148 149 149 148
140 123 131 144 148 147 148 147 129 119 125 132 144 143 111 79
45 26 15 14 14 8 13 14 21 12 9 13 19 15 20 32
38 38 38 38 39 39 39 39 38 37 37 37 36 35 36 37
36 36 37 37 38 37 37 37 36 37 36 36 36 36 36 36
35 35 35 34 33 34 34 34 17 0 21 34 29 21 29 33
31 24 4 0 3 0 0 2 43 42 43 43 43 41 37 39
43 44 46 45 70 129 148 150 148 131 115 117 117 116 118 130
146 149 149 150 149 149 149 150 149 149 149 150 149 150 149 149
141 130 134 139 146 146 148 139 121 126 131 140 147 145 119 88
50 28 18 14 14 10 11 13 14 6 5 15 18 13 17 34
37 37 38 38 38 37 38 38 38 38 38 37 37 37 38 39
37 38 38 38 38 37 37 37 37 37 36 36 37 37 36 36
36 35 35 34 33 33 34 34 18 0 18 35 29 21 28 32
28 30 28 24 19 16 12 10 45 44 42 42 43 43 44 46
47 46 49 54 82 136 151 150 149 140 109 105 114 117 119 129
146 148 150 150 150 150 150 150 150 149 149 149 149 149 149 149
138 131 148 144 143 147 144 123 120 129 136 146 147 146 127 91
59 28 19 16 9 7 7 11 6 3 4 17 12 11 15 35
37 38 38 38 38 39 39 39 39 38 38 38 38 38 38 38
38 37 38 38 38 37 38 38 38 36 37 36 37 36 36 36
36 35 35 34 33 34 35 34 20 0 17 34 29 22 27 33
29 38 53 55 51 52 55 54 57 48 45 45 44 46 49 52
52 47 51 57 87 141 150 150 150 147 122 92 108 117 122 128
144 148 149 149 150 150 150 150 150 150 150 148 150 149 149 149
130 119 148 148 145 139 124 120 122 133 146 148 147 147 133 94
65 35 22 12 6 9 6 5 5 2 4 13 10 12 20 36
38 37 38 38 38 38 38 38 38 38 38 37 39 38 38 38
38 38 37 37 38 38 37 37 37 37 36 36 36 35 36 36
35 35 35 33 33 33 35 34 23 0 14 34 30 21 26 33
29 39 61 62 61 61 61 61 62 48 40 38 38 39 46 53
54 48 49 49 77 126 130 139 148 150 142 91 101 117 122 130
141 149 149 150 150 150 150 149 149 149 149 149 148 148 147 148
132 105 120 129 128 127 123 124 132 146 148 148 147 147 134 101
78 41 25 12 10 10 6 3 2 2 5 7 8 15 31 37
37 37 37 37 36 37 38 37 37 37 37 37 38 37 38 37
38 37 37 37 37 37 37 36 36 35 35 35 36 35 34 35
34 34 34 33 32 32 35 34 25 0 11 33 31 21 25 32
29 31 42 44 46 48 51 52 55 34 10 9 5 8 13 28
53 47 33 16 44 112 115 72 89 107 133 95 98 114 121 133
143 147 147 149 149 149 149 149 149 149 149 149 149 148 148 148
147 125 123 141 144 140 138 142 147 147 147 147 147 146 141 119
84 37 20 16 13 6 6 2 1 2 3 4 8 23 36 36
36 36 36 36 36 37 35 34 34 32 32 31 33 36 38 37
37 37 37 37 36 36 37 36 35 34 34 35 35 35 34 34
34 34 34 33 32 32 34 33 26 0 9 33 31 22 24 31
28 27 34 35 34 34 33 33 36 24 3 0 0 0 0 14
51 40 11 0 6 71 116 100 113 99 97 87 107 112 120 132
144 146 146 148 148 149 149 148 148 149 149 148 149 148 148 148
148 148 148 148 148 148 148 148 148 147 148 147 146 146 144 123
63 29 37 33 16 6 3 4 0 2 1 1 11 33 32 31
30 31 34 36 36 36 27 16 15 12 11 11 19 36 38 37
36 36 36 36 35 35 35 34 34 34 34 33 35 35 34 34
34 33 34 34 32 31 34 33 28 1 8 32 32 21 22 30
26 29 40 41 41 40 39 38 39 26 7 1 0 0 4 24
49 30 1 0 0 2 38 79 75 105 108 104 111 110 115 127
142 146 146 148 148 148 148 147 148 148 148 147 148 146 148 148
146 148 148 147 148 147 147 147 147 147 147 147 146 146 144 123
73 69 61 37 16 6 4 3 0 0 0 2 11 14 10 8
8 9 24 35 35 35 25 7 7 6 7 6 16 36 38 37
37 35 36 35 35 35 34 34 33 33 33 32 33 34 33 34
33 33 34 33 31 31 33 32 28 2 5 30 29 18 20 29
26 30 43 43 44 43 43 44 45 28 7 2 0 0 2 16
46 20 0 0 0 0 0 30 42 82 108 109 112 110 116 125
138 146 148 148 148 149 149 148 147 148 148 147 147 145 147 147
146 147 148 147 147 147 148 148 147 146 147 147 146 147 143 129
114 98 74 27 11 8 7 3 2 0 0 5 11 9 3 3
2 2 19 33 34 35 23 7 7 7 7 7 15 36 37 37
36 36 35 35 34 34 34 33 33 34 34 33 33 34 33 34
33 32 33 32 31 29 30 29 26 2 4 26 27 20 20 30
32 33 39 41 41 42 43 43 47 28 1 0 0 3 10 9
44 16 0 0 0 0 0 30 40 63 99 105 108 110 116 124
130 144 146 143 146 147 148 148 148 148 147 146 146 147 147 145
143 146 147 147 146 147 147 147 147 146 146 146 146 146 143 127
117 113 96 57 36 26 8 2 2 1 2 12 9 9 4 3
3 2 16 34 35 35 22 7 7 7 6 6 13 33 37 36
36 36 35 35 34 34 34 34 33 32 32 31 31 33 33 33
32 33 32 32 30 30 30 30 29 3 2 28 29 20 19 27
39 39 38 39 39 40 40 34 44 37 7 0 0 2 7 4
42 14 0 0 0 0 1 30 40 45 92 98 103 107 115 124
130 138 143 145 146 146 148 147 148 145 146 147 147 147 146 144
147 146 146 146 148 147 147 147 147 147 147 146 147 146 142 127
116 119 122 110 86 57 15 4 2 1 4 15 10 10 3 3
2 2 16 33 34 35 24 7 6 7 8 6 10 32 35 34
33 33 34 32 32 31 32 32 33 32 33 33 33 33 32 32
32 32 32 31 29 29 30 30 29 4 0 25 29 21 18 28
40 39 39 39 39 39 38 33 42 41 12 0 0 3 10 4
40 14 0 0 0 0 0 25 41 35 90 95 98 105 113 123
129 134 140 140 143 146 144 145 146 147 147 142 144 140 144 144
144 148 147 148 148 147 147 147 148 147 147 147 146 147 142 127
117 121 127 121 111 86 45 15 12 2 9 10 10 9 3 3
3 2 15 33 34 34 27 12 12 12 12 13 13 28 33 34
34 34 33 27 32 59 21 24 33 33 32 32 32 31 30 31
31 31 31 30 29 28 30 30 29 6 0 23 29 22 18 26
38 38 38 38 38 38 38 36 41 37 1 0 0 0 1 4
40 15 0 0 0 0 0 20 42 31 86 102 97 102 113 123
130 134 137 137 138 143 143 143 143 142 145 144 141 139 139 140
144 146 145 147 148 148 147 148 147 147 148 148 148 147 143 127
118 122 129 126 116 103 86 37 32 11 5 8 8 8 3 3
3 2 14 32 34 34 28 13 11 11 11 11 12 26 34 35
34 34 26 0 1 43 0 5 34 34 32 32 32 32 32 31
32 31 31 30 29 27 29 29 29 8 0 22 30 22 18 27
12 12 13 13 18 30 37 36 39 33 0 0 0 0 0 1
39 18 0 0 0 0 0 17 43 28 59 86 90 90 108 121
129 131 134 137 134 138 139 138 140 137 137 143 140 141 143 140
145 148 148 148 148 148 148 148 147 148 148 148 147 148 143 125
118 123 132 128 121 112 100 79 54 21 4 5 4 4 3 3
3 2 13 32 33 34 28 8 7 7 7 6 8 27 35 35
34 34 26 0 0 16 0 5 33 33 33 33 32 32 32 32
32 32 31 31 29 28 30 30 30 10 0 21 30 24 18 27
0 0 0 0 3 34 39 36 36 32 3 1 1 2 13 5
35 27 10 9 12 11 11 25 45 35 76 113 106 81 89 116
127 127 129 132 134 138 134 137 135 133 137 136 138 139 147 144
145 148 148 148 148 148 148 148 148 149 148 149 148 148 142 124
117 123 134 132 129 118 107 97 46 56 4 4 0 2 4 4
5 2 13 32 33 34 27 8 6 8 8 7 8 28 35 35
34 34 27 0 0 0 0 3 32 34 33 33 33 33 33 33
32 32 32 32 29 28 31 31 31 12 0 20 31 24 18 26
0 0 0 0 3 35 40 36 33 43 38 34 30 34 38 35
39 45 51 47 48 49 50 52 51 48 84 102 117 126 98 97
117 122 125 122 124 128 133 135 138 138 131 131 134 135 139 145
148 149 148 148 148 148 148 148 148 148 148 147 147 147 142 125
118 124 137 137 131 122 113 106 59 81 15 4 2 8 6 3
4 2 11 32 34 34 29 9 7 7 7 6 8 27 36 35
34 34 28 0 0 0 0 2 32 34 34 33 34 32 33 32
32 32 32 32 30 29 31 31 31 13 0 18 31 24 17 25
0 0 0 0 1 33 40 36 32 47 49 43 43 46 43 37
33 40 56 54 53 52 56 56 54 49 74 96 107 119 121 104
103 112 115 118 121 122 127 127 127 134 130 131 136 138 140 144
146 148 149 148 148 148 148 148 147 148 148 149 147 148 141 126
118 125 136 140 133 126 118 113 77 81 55 3 1 4 5 5
5 2 12 32 34 34 29 9 6 6 7 7 8 28 34 20
15 12 8 0 0 0 0 1 32 35 33 33 33 33 33 32
33 32 31 32 30 29 31 31 30 14 0 15 30 25 17 25
0 0 0 0 0 32 41 37 33 48 44 38 42 45 44 36
30 32 40 41 41 41 41 41 43 37 38 24 43 82 106 116
110 108 110 116 117 119 122 121 120 126 132 138 141 139 134 134
147 149 148 149 149 149 149 149 149 148 148 148 148 148 140 126
118 124 137 136 133 129 124 118 85 86 96 2 1 1 4 4
5 2 11 32 34 35 30 9 7 7 7 7 8 28 27 1
0 0 0 0 0 0 0 0 32 34 33 34 33 33 33 33
33 32 32 32 31 29 31 31 31 18 0 14 31 26 17 23
0 0 0 0 0 29 42 36 31 46 32 34 33 37 42 37
32 30 26 27 28 29 29 29 33 35 33 35 53 85 71 89
110 116 117 117 118 117 118 117 118 121 125 131 139 141 129 126
148 149 149 149 149 149 149 149 149 149 148 148 148 148 141 125
118 124 134 135 132 131 126 121 85 92 111 12 3 4 4 4
5 2 10 32 34 36 31 9 6 7 8 7 8 27 34 6
0 0 0 0 0 0 0 0 29 34 33 33 33 33 32 32
33 32 33 32 31 29 31 31 30 18 0 12 31 27 18 24
0 0 0 0 0 25 43 36 34 46 16 11 14 16 20 19
21 31 30 35 35 41 42 38 40 42 43 47 55 89 91 82
101 114 120 122 121 115 116 113 118 120 124 127 136 140 129 132
147 148 148 149 148 149 149 149 149 148 149 148 148 148 141 123
118 125 134 137 134 133 129 124 75 97 120 25 2 1 4 3
5 1 8 31 33 35 31 11 6 7 8 7 6 26 36 22
0 0 0 0 0 0 0 0 29 34 34 33 33 33 33 33
33 32 32 32 31 29 30 31 31 20 0 9 29 26 17 23
0 0 0 0 0 22 42 35 38 49 12 0 0 0 1 6
18 33 38 49 44 54 58 31 24 26 27 31 42 74 100 80
94 112 117 116 114 114 115 114 116 119 121 124 131 137 139 139
140 145 147 149 148 149 149 148 148 149 148 149 148 148 141 124
117 120 131 136 136 136 130 122 61 110 119 30 6 2 2 3
4 2 8 30 34 35 32 16 13 14 9 12 14 27 36 31
9 1 0 0 0 0 0 0 7 27 35 34 33 34 33 33
33 32 33 33 30 29 30 34 32 23 0 8 29 26 19 23
0 0 0 0 0 19 43 35 39 53 15 0 0 0 0 0
20 33 35 48 33 36 46 13 0 0 1 2 22 57 88 85
92 105 118 119 115 111 112 110 115 116 120 122 121 123 132 135
142 147 142 146 148 149 149 148 149 148 149 148 148 148 140 125
116 118 126 133 137 137 133 107 59 133 116 35 6 5 4 1
0 0 0 0 8 18 25 31 34 33 28 33 33 34 26 17
9 0 0 0 0 0 0 0 0 22 36 35 35 35 34 34
34 33 33 33 32 30 30 31 31 23 0 5 26 23 17 22
0 0 0 0 0 15 41 35 37 51 20 0 0 0 0 0
17 33 33 46 15 4 28 14 0 0 0 0 15 48 57 74
82 99 112 110 103 105 105 108 110 113 114 120 118 121 125 137
145 145 146 148 149 149 149 149 149 148 149 149 148 147 140 124
115 118 122 130 137 137 130 72 82 138 119 45 4 3 4 4
4 1 0 0 0 4 5 8 18 30 36 36 36 32 8 0
8 18 0 0 0 0 0 0 0 20 35 34 33 33 33 33
32 33 33 33 33 30 30 32 32 25 0 3 22 22 17 21
0 0 0 0 0 13 42 35 32 25 3 0 0 0 0 0
20 32 33 45 15 3 26 16 0 0 0 0 10 45 43 45
64 82 99 95 92 91 96 98 100 106 107 112 114 115 125 129
137 142 147 146 149 149 149 149 149 149 149 149 149 149 143 125
113 115 122 129 135 134 98 56 132 131 125 47 4 5 4 3
5 5 4 0 1 4 4 5 4 5 13 25 25 7 0 0
5 12 0 0 0 0 0 0 0 19 36 35 35 35 33 33
33 33 33 34 33 31 29 32 31 25 0 2 21 20 17 21
0 0 0 0 0 10 41 35 31 18 0 0 0 0 0 0
21 31 33 46 15 2 24 19 0 0 0 0 5 42 43 36
40 54 63 67 72 76 85 86 87 88 97 97 108 116 117 129
140 143 148 149 149 149 149 149 149 149 149 148 149 148 143 125
115 117 122 126 131 113 57 110 141 136 127 52 9 6 6 7
8 7 8 5 1 4 7 6 3 4 6 7 6 2 1 0
0 0 0 0 0 0 0 0 0 14 31 35 35 35 34 34
35 34 34 35 35 32 31 32 30 25 1 1 19 20 18 21
0 0 0 0 0 9 41 36 32 20 0 0 0 0 1 0
20 32 34 46 15 4 24 21 0 0 0 0 5 41 43 36
36 35 30 27 32 38 46 50 57 62 67 78 90 99 108 119
129 136 146 150 150 150 150 150 150 150 150 149 149 149 144 130
116 116 121 126 117 63 99 146 139 135 125 54 9 10 13 11
9 8 8 10 4 2 8 7 6 7 9 9 10 8 7 7
4 1 0 0 0 0 0 0 0 0 5 14 12 16 36 35
36 35 36 36 36 33 31 32 29 24 1 1 19 21 20 22
0 0 0 0 0 7 40 35 31 21 0 0 0 0 5 0
16 34 34 47 20 5 20 24 5 0 3 5 5 40 42 36
37 37 29 16 6 7 7 9 12 18 25 37 48 66 82 98
111 131 146 151 150 150 150 150 150 150 149 149 149 148 147 135
118 116 120 116 69 99 147 145 138 137 129 58 11 10 9 10
10 11 12 13 12 3 5 10 7 8 9 10 10 11 11 7
9 7 7 4 4 7 7 7 6 5 4 3 3 9 38 38
38 39 39 40 40 38 35 35 32 28 3 1 24 27 26 29
0 0 0 0 0 6 39 36 31 21 0 7 0 0 12 6
14 35 34 47 29 11 19 24 8 9 9 3 5 38 42 34
22 10 5 5 4 4 2 0 1 0 0 0 8 41 69 87
103 121 140 150 150 150 149 150 149 149 149 150 149 148 149 138
121 117 113 67 103 149 145 142 142 139 134 58 11 12 11 8
9 10 11 10 10 8 2 8 8 7 7 9 9 9 10 9
9 9 10 7 7 8 10 12 11 9 8 6 8 17 51 53
53 53 54 54 53 51 47 44 41 37 5 0 24 14 10 9
0 0 0 0 0 5 38 36 32 26 4 9 2 3 16 19
16 39 35 47 28 21 17 22 5 14 11 2 2 30 23 5
4 3 3 2 2 2 2 2 4 5 1 0 0 4 50 85
96 112 132 148 150 150 150 148 148 149 149 148 149 149 148 142
122 112 65 100 150 147 146 142 140 142 136 60 13 13 10 9
10 9 11 11 11 10 6 3 9 8 7 8 10 10 10 11
8 10 9 10 9 7 8 7 8 18 38 44 49 52 56 56
56 56 57 57 56 52 48 43 42 39 8 0 25 1 0 0
0 0 0 0 0 4 38 36 31 32 30 35 36 36 39 41
41 47 36 46 21 27 19 28 19 22 20 14 8 5 4 1
1 0 0 0 0 0 1 2 9 10 5 3 4 5 19 88
90 102 122 142 150 149 149 149 149 148 148 149 149 149 149 142
121 77 110 149 147 147 144 143 143 143 137 66 15 14 13 10
9 10 10 10 10 10 11 3 6 9 7 7 8 9 10 11
10 8 9 10 10 7 8 6 6 5 8 27 45 52 54 53
55 54 53 51 52 48 42 39 40 40 9 0 20 0 0 0
0 0 0 0 0 3 36 35 30 33 50 52 53 53 54 54
54 54 40 46 14 17 19 33 29 23 12 6 5 4 3 1
0 0 0 0 0 0 0 6 8 7 6 5 4 5 11 100
104 92 107 130 141 146 149 148 147 148 148 148 149 149 149 144
100 120 150 149 148 144 143 140 141 138 136 70 17 16 14 11
12 11 13 13 12 13 11 10 3 9 10 7 9 8 8 12
10 8 8 10 10 7 7 7 8 7 6 8 7 18 35 44
49 43 42 33 39 37 29 34 40 40 12 0 11 0 0 0
0 0 0 0 0 3 37 36 30 29 49 51 51 50 50 49
49 48 40 44 11 7 14 24 13 8 8 10 8 9 6 7
4 2 0 1 1 1 5 8 7 5 6 7 4 5 10 97
120 125 102 115 136 145 147 147 148 146 146 149 150 149 149 130
133 150 149 148 147 145 142 138 140 140 131 46 15 12 12 10
10 11 10 13 11 11 9 10 6 6 9 10 7 7 10 10
10 11 9 10 10 10 8 8 8 7 6 7 8 7 6 10
23 27 31 27 25 27 25 33 39 38 13 0 6 0 0 0
0 0 0 0 0 2 36 35 29 24 25 24 23 23 23 23
22 21 26 44 14 7 10 9 9 9 10 10 10 10 10 11
10 8 5 3 4 6 9 9 7 7 7 7 4 6 9 83
115 127 133 111 119 131 138 142 143 142 143 147 149 149 142 143
150 149 149 149 146 143 141 138 140 138 131 31 16 14 12 10
10 10 10 11 9 11 12 12 10 4 7 9 6 6 8 9
11 10 8 8 9 10 8 8 7 8 9 7 8 6 7 6
6 5 9 16 30 36 32 32 37 39 14 0 2 0 0 0
0 0 0 0 0 2 34 35 29 25 20 18 18 18 18 18
19 17 22 27 12 9 10 8 9 10 11 11 11 10 12 13
10 11 11 9 9 10 8 7 6 7 6 6 4 6 7 54
114 124 140 143 126 97 114 122 129 136 140 145 149 143 148 150
150 149 148 146 146 142 138 136 139 142 128 36 19 13 11 11
10 11 11 11 12 10 12 14 15 10 4 9 8 8 9 9
11 11 9 9 11 10 10 8 7 7 7 8 7 7 6 7
6 5 5 5 6 25 34 33 35 37 16 0 0 0 0 0
0 0 0 0 0 2 33 35 28 27 25 23 22 21 21 20
20 15 10 9 9 11 10 9 9 11 10 10 10 11 13 12
11 11 10 11 15 14 11 9 9 8 7 6 5 7 9 14
106 116 139 147 149 130 87 112 123 130 138 142 142 150 150 150
149 148 148 146 143 142 139 138 141 144 129 48 14 14 12 12
14 13 13 15 17 16 16 14 12 10 6 5 10 8 7 10
8 10 11 9 10 9 12 7 8 8 10 10 8 8 8 7
7 5 6 6 7 5 13 32 36 35 17 0 0 0 0 0
0 0 0 1 1 5 36 35 28 27 26 25 25 25 24 17
9 7 8 8 10 9 9 8 11 10 12 11 13 14 12 10
11 12 9 16 18 16 15 14 13 13 10 9 8 11 15 1
68 112 132 145 148 149 129 87 116 122 125 138 150 150 150 150
149 150 147 143 142 139 137 141 145 144 131 45 17 19 19 17
17 16 14 13 13 14 10 10 11 11 10 4 7 9 7 9
8 10 12 10 10 10 11 10 8 7 8 9 10 8 11 9
7 8 7 7 7 6 9 11 26 23 16 0 0 0 0 0
20 21 22 23 24 25 31 30 29 28 26 25 24 18 9 7
7 8 7 9 10 9 9 11 11 10 11 11 12 13 12 9
11 10 14 15 15 15 15 15 15 15 14 10 8 10 13 1
35 111 126 145 147 149 149 129 75 108 137 150 150 150 149 149
149 148 146 144 140 138 140 143 145 148 123 31 18 13 15 13
12 11 12 14 11 10 11 11 9 11 10 11 3 8 8 9
9 11 12 11 11 9 11 12 8 10 8 8 10 9 9 11
9 9 7 7 7 7 14 8 18 25 20 0 0 0 0 0
30 30 29 29 29 28 28 28 28 27 26 17 9 7 9 8
6 8 8 10 9 10 10 11 10 12 12 11 13 12 9 11
10 12 15 13 12 13 14 14 12 13 14 11 9 13 19 8
31 114 123 139 146 148 135 91 131 115 150 150 150 150 149 149
148 149 147 141 139 140 141 146 145 148 113 49 16 15 14 13
13 12 12 11 11 10 10 11 11 12 11 10 8 3 9 10
12 11 11 12 12 8 10 11 10 10 9 8 9 10 9 10
10 10 9 8 9 7 9 9 16 34 24 0 0 0 0 0
31 30 29 29 29 28 29 28 27 19 7 6 7 6 8 7
8 7 11 11 10 10 11 11 12 12 13 12 13 12 10 12
12 18 15 14 14 12 13 14 14 14 13 10 9 14 17 22
48 121 118 133 145 139 52 108 130 119 141 151 150 149 149 149
149 145 144 141 140 142 146 148 147 147 76 59 14 13 14 12
11 10 10 11 11 11 12 12 11 8 9 11 11 6 6 10
11 12 12 13 12 12 11 13 15 11 10 10 9 12 8 9
10 9 8 7 8 5 8 6 10 37 26 0 0 0 0 0
29 28 26 26 24 23 23 19 9 4 6 7 6 6 9 7
8 9 11 10 12 11 13 11 12 11 10 15 12 13 13 10
15 18 18 16 15 15 15 14 13 14 12 14 12 14 18 32
69 132 119 131 140 103 62 125 124 122 132 150 149 150 150 149
146 144 143 140 142 145 146 149 147 140 73 57 13 13 14 12
11 11 11 10 12 13 12 8 9 11 10 9 10 10 6 8
12 12 15 14 14 13 11 10 14 10 10 8 10 11 10 11
11 11 11 10 9 3 8 6 6 33 29 0 0 0 0 0
7 5 4 12 19 21 18 7 8 6 8 7 7 10 10 9
9 11 11 11 11 11 15 11 11 12 11 13 12 12 9 14
16 14 14 14 14 12 12 13 14 16 15 16 16 15 18 31
97 135 123 128 131 68 98 131 146 138 114 146 150 150 149 147
145 143 143 143 145 145 148 148 147 136 122 57 16 14 16 16
15 15 13 12 10 9 9 9 11 10 10 10 13 12 10 4
9 12 12 13 14 12 12 11 12 13 9 9 10 10 12 10
13 11 11 8 8 2 8 5 2 30 30 0 0 0 0 0
11 0 0 9 19 22 14 5 6 9 7 7 9 11 9 9
10 13 10 10 10 12 13 12 13 12 14 12 10 9 12 17
16 14 14 15 13 15 13 13 12 14 13 15 16 17 20 41
121 134 128 123 126 58 133 139 144 138 109 138 150 150 148 145
142 144 144 144 149 147 148 148 148 147 130 57 13 14 13 14
13 12 11 12 11 10 10 10 11 12 12 13 14 12 11 11
5 12 14 14 13 13 12 10 11 13 9 8 11 10 13 10
12 12 11 9 7 3 10 4 1 24 32 0 0 0 0 0
40 6 2 9 17 22 8 8 7 11 7 9 9 10 11 9
10 15 10 11 12 13 11 11 13 14 16 13 12 12 18 16
15 16 15 14 14 13 14 14 13 13 15 14 16 18 21 61
127 127 132 123 106 48 141 142 141 132 121 129 147 149 148 144
141 143 147 147 148 147 148 149 142 134 112 55 16 14 16 12
14 14 11 12 11 10 11 13 15 13 14 13 12 11 13 13
5 6 12 14 13 14 12 11 11 13 11 9 10 12 11 9
11 12 12 10 4 5 10 5 1 19 34 1 0 0 0 0
54 27 16 17 16 19 3 7 5 9 10 9 10 9 11 9
13 12 10 11 13 12 11 12 11 15 13 14 12 16 16 18
19 18 17 15 14 13 12 14 13 14 16 15 17 18 21 82
136 138 136 124 95 46 143 146 128 136 131 129 138 149 147 144
146 147 145 147 148 148 149 148 124 137 117 57 14 15 17 14
12 14 15 15 13 14 17 15 15 12 13 12 12 13 12 12
9 2 8 11 15 14 12 11 11 14 12 10 10 11 11 10
9 11 10 12 3 3 8 4 0 17 37 2 0 0 0 0
57 38 23 21 18 14 2 6 5 8 10 9 13 10 11 10
15 11 11 13 14 12 13 11 11 16 13 11 12 16 18 16
13 15 17 16 16 18 18 17 16 15 17 17 17 20 20 95
146 133 134 132 86 46 144 145 126 128 142 134 129 145 148 144
147 145 147 147 148 149 148 143 137 144 114 65 16 17 17 15
16 14 15 16 16 18 14 13 13 13 13 11 13 13 12 14
13 2 3 12 13 12 14 12 11 11 13 11 10 10 11 13
8 10 11 12 1 5 9 2 0 17 38 2 0 0 0 0
37 29 24 22 21 10 1 6 6 6 10 10 12 10 11 11
15 11 11 13 14 12 13 12 13 13 11 10 15 14 14 14
15 14 14 15 14 15 15 15 17 18 16 15 15 19 23 86
146 138 139 124 105 47 149 147 134 122 137 143 139 140 147 146
149 147 149 148 149 147 148 135 139 148 125 80 13 17 17 14
13 13 15 15 17 15 13 13 13 12 12 13 13 12 16 15
5 0 7 11 12 12 14 13 11 12 13 10 10 9 11 11
9 9 10 9 0 6 9 4 0 16 38 2 0 0 0 0
32 22 13 13 13 3 2 8 7 5 11 12 12 11 10 12
14 10 12 13 14 12 12 12 15 12 8 15 17 15 15 17
13 13 14 15 15 15 15 13 17 19 16 15 15 19 22 86
147 148 138 134 111 50 145 150 143 123 128 135 142 140 146 148
146 150 148 148 148 147 141 121 128 145 134 89 15 17 16 16
15 15 15 14 13 15 13 12 10 12 13 15 15 16 15 11
0 2 9 10 12 14 13 11 9 11 11 14 12 8 9 10
8 8 9 5 2 7 6 2 0 12 35 3 0 0 0 0
33 23 13 13 12 1 2 9 7 3 11 13 12 10 11 12
12 10 12 14 14 12 12 12 14 12 9 9 16 18 16 15
13 14 13 14 16 14 13 14 15 19 17 14 14 17 23 89
148 147 144 112 109 91 144 151 148 133 122 118 131 140 129 148
148 150 148 149 146 149 134 122 137 135 131 77 13 17 16 15
14 13 16 14 13 13 13 13 13 15 16 14 13 12 12 3
0 7 9 11 13 11 11 13 12 11 11 14 11 11 11 9
7 7 9 2 2 7 5 1 0 10 32 2 0 0 0 0
32 23 12 11 9 0 2 9 9 2 8 13 10 11 9 14
12 11 12 12 10 12 11 12 14 11 11 6 12 15 15 16
17 17 16 14 15 14 14 15 14 17 16 14 14 16 24 88
150 147 139 78 126 111 142 151 150 146 130 113 122 134 127 145
149 149 148 148 147 147 128 140 147 146 139 78 14 18 15 15
14 12 15 12 14 12 13 14 16 14 14 12 13 15 8 0
1 11 10 9 12 9 11 12 12 10 10 12 10 9 7 9
9 7 7 0 5 7 3 0 0 5 29 1 0 0 0 0
32 24 12 14 9 0 2 7 8 1 8 13 9 9 10 14
9 10 12 12 12 12 11 14 13 11 11 9 5 13 15 13
13 14 15 15 15 16 16 15 14 18 14 14 13 16 27 87
148 143 128 102 129 125 134 144 150 149 146 129 113 117 113 137
149 147 149 145 149 137 133 149 149 148 147 84 13 17 15 14
14 15 17 13 15 13 13 14 13 14 14 13 13 9 1 0
7 11 11 9 9 8 12 13 12 9 9 11 11 9 9 8
8 5 2 0 6 6 1 0 0 0 21 0 0 0 0 0
