P2
128 120
143
33 31 31 31 30 30 29 28 27 27 26 25 25 25 24 24
23 22 22 21 21 20 20 19 18 18 17 16 16 15 15 14
14 13 13 3 0 0 0 0 0 0 0 0 0 0 0 2
6 3 0 0 0 0 0 0 0 0 0 0 0 0 0 0
0 0 0 0 0 0 0 0 0 0 0 0 0 0 0 0
0 0 3 6 10 13 12 13 13 14 15 15 15 15 16 17
17 17 18 19 19 20 21 21 21 23 23 23 24 24 25 24
25 26 26 27 28 29 28 30 30 29 30 31 30 32 32 31
32 32 32 30 30 29 29 28 27 27 27 26 26 25 25 24
24 22 22 21 21 19 20 19 19 18 18 17 17 16 15 15
15 14 13 10 2 0 0 0 0 0 0 0 2 2 0 8
12 10 7 4 1 0 0 0 0 0 0 0 0 0 1 0
0 0 0 0 0 0 0 0 0 0 0 0 0 0 3 6
9 12 13 13 14 14 15 15 15 16 16 16 17 18 19 19
20 19 21 21 22 22 23 23 24 24 25 25 25 25 26 27
27 28 29 29 30 30 30 30 31 31 31 32 31 32 33 32
32 32 32 31 31 30 29 29 28 27 26 26 25 25 24 24
23 22 22 21 20 20 20 20 19 18 18 18 17 16 16 15
15 14 14 13 9 3 1 0 0 0 3 6 9 6 0 10
13 10 10 9 8 5 2 0 0 0 0 0 0 0 0 0
0 0 0 0 0 0 0 0 0 0 0 3 8 11 13 13
13 14 14 15 15 16 16 17 17 18 19 19 19 20 20 21
21 22 22 23 23 24 24 24 24 25 26 27 28 28 28 28
29 29 30 30 31 30 31 31 31 32 32 32 33 32 33 33
32 32 32 32 30 30 29 29 29 28 27 26 26 26 25 24
24 23 22 22 21 20 20 19 19 19 18 18 17 17 16 15
16 15 15 14 11 7 6 5 3 6 9 11 13 9 1 10
14 12 11 11 10 8 7 5 1 0 0 0 0 0 0 0
0 0 0 0 0 0 0 2 6 10 11 13 13 14 14 15
15 16 16 16 17 18 18 19 19 20 20 20 21 21 23 23
23 24 24 25 25 25 25 26 28 27 28 28 29 29 29 30
31 30 31 32 32 32 32 32 32 32 33 32 32 32 32 33
33 32 32 31 30 30 30 29 29 27 27 27 26 25 25 25
24 23 23 22 22 21 20 20 20 19 19 18 18 17 16 16
16 15 14 14 12 9 7 6 7 10 13 13 13 10 3 10
16 16 14 12 11 10 10 7 5 3 2 0 0 0 0 1
0 0 0 0 4 7 11 13 14 14 14 15 15 16 16 16
17 17 18 18 18 19 19 20 21 21 22 21 23 23 24 23
24 24 24 25 26 27 27 28 29 29 29 29 31 31 30 31
31 31 31 31 32 32 32 32 31 32 33 32 32 33 33 33
33 33 32 31 31 30 29 28 29 28 27 26 26 25 25 25
24 24 23 23 22 22 21 21 20 20 19 18 18 18 17 17
16 15 15 15 13 11 9 7 7 11 13 13 14 12 7 11
20 17 16 15 14 12 10 9 7 6 4 3 4 8 9 10
2 3 8 12 14 14 14 14 15 16 16 16 17 17 18 18
18 20 20 20 20 21 21 21 22 23 23 23 23 24 24 25
25 25 27 28 28 28 28 28 29 30 30 30 31 31 31 30
30 31 31 31 31 32 32 32 31 32 32 32 33 33 33 33
33 33 32 31 31 30 30 29 29 28 27 27 26 26 25 24
24 24 23 22 22 21 21 21 20 20 20 19 18 17 17 17
16 16 15 14 14 12 11 9 9 12 14 15 17 14 10 15
21 18 16 15 14 13 12 10 9 7 7 7 10 13 12 12
10 13 14 14 15 16 16 16 17 17 18 18 18 19 19 19
20 20 20 21 21 22 22 22 23 23 23 24 24 25 26 27
27 27 28 28 29 29 30 30 30 31 31 31 31 31 31 31
31 31 31 31 32 31 31 31 31 31 32 32 33 33 33 32
33 33 32 31 31 31 30 30 29 28 27 27 27 26 26 25
25 25 24 23 22 22 21 21 20 20 19 19 19 18 17 17
17 17 16 16 14 13 12 11 10 13 16 17 19 16 10 14
22 19 16 16 16 15 14 13 10 10 9 7 9 12 12 11
13 14 15 16 17 17 18 18 18 18 19 19 20 21 20 20
21 22 21 22 22 22 22 22 23 24 25 25 26 26 27 27
27 28 29 29 29 30 30 30 30 31 31 31 31 31 31 31
31 31 31 31 32 32 32 32 32 32 32 32 33 32 33 32
33 32 32 32 31 30 30 29 29 28 28 27 27 26 26 25
24 24 24 23 23 22 22 21 21 20 20 19 19 19 18 17
17 16 15 16 15 14 13 12 12 16 19 20 20 17 10 13
22 20 18 17 16 15 14 13 11 13 12 7 8 13 12 13
14 16 17 17 17 18 18 19 19 19 20 20 21 21 21 22
23 22 22 22 23 23 23 23 25 26 25 26 27 27 27 28
28 28 29 29 30 30 30 30 30 31 31 31 30 31 31 31
31 31 31 31 31 31 32 32 32 32 32 33 32 31 30 31
34 33 32 32 32 31 30 29 29 28 28 27 27 26 26 25
25 24 24 23 22 22 22 21 21 21 21 19 19 19 19 18
18 18 17 16 16 16 14 13 13 16 20 20 20 18 10 12
23 20 18 17 17 16 16 14 13 14 13 9 8 14 12 14
16 18 18 19 19 19 20 20 20 21 21 21 21 21 22 21
22 22 23 23 24 25 25 25 26 27 26 27 27 28 28 28
29 29 28 30 30 30 30 30 30 31 30 31 31 31 31 31
31 31 32 31 32 32 32 32 31 31 31 32 32 32 32 32
33 33 32 31 31 30 30 30 29 29 28 28 27 27 26 26
25 25 24 23 23 23 22 21 21 21 21 20 19 20 19 19
18 18 18 17 17 16 16 15 15 19 21 22 22 19 11 11
25 20 19 18 18 17 17 14 14 15 15 11 7 14 14 16
18 19 19 19 20 21 21 21 21 22 22 22 22 22 23 23
23 24 24 24 25 25 25 25 26 28 27 27 28 28 29 29
29 29 30 30 30 30 30 30 31 32 31 31 31 32 32 32
32 31 32 32 31 31 31 31 32 32 32 33 32 32 32 32
33 33 32 32 31 31 30 30 30 30 29 28 28 27 27 26
26 25 25 24 24 23 23 22 22 22 21 21 20 20 19 19
19 19 18 18 18 17 17 17 18 20 22 22 22 19 13 11
25 22 20 20 19 18 17 16 16 15 15 13 9 14 15 17
19 20 20 20 21 21 22 22 22 22 23 23 24 23 23 23
24 24 25 25 25 25 26 27 27 28 28 28 28 29 29 29
29 29 29 30 31 31 31 31 32 32 31 32 32 32 32 32
31 31 32 32 33 33 33 33 33 33 33 33 33 32 32 32
33 32 32 31 31 30 29 29 29 29 28 28 28 27 27 26
25 25 25 24 23 23 23 22 22 22 21 21 20 20 20 19
19 18 18 17 17 17 17 17 18 20 23 23 23 20 14 11
23 23 20 20 19 19 18 16 16 16 15 14 10 15 16 19
20 21 21 19 21 21 22 22 22 23 23 23 23 24 25 24
24 25 25 25 25 26 26 27 26 28 27 28 29 29 29 30
29 30 30 30 31 30 30 31 31 31 30 30 30 31 31 32
32 32 32 32 32 32 32 33 33 33 32 32 32 33 32 32
33 33 32 31 32 31 30 30 29 29 28 27 27 27 26 25
25 24 24 24 23 23 22 22 22 22 22 21 21 20 20 19
19 19 19 18 18 18 18 17 19 21 22 22 23 20 15 11
23 22 20 20 20 19 18 18 18 20 18 15 11 14 17 19
19 20 20 21 22 22 22 23 24 23 24 23 24 24 24 24
24 25 25 25 25 26 26 26 27 29 28 28 29 30 29 29
29 29 30 30 30 30 29 29 29 29 31 32 32 32 32 31
31 32 31 32 32 31 32 32 32 31 32 32 32 32 31 31
34 32 32 32 31 31 30 29 29 29 29 28 28 27 27 27
26 24 24 24 23 23 23 22 22 22 22 22 21 21 20 20
20 20 19 18 18 18 17 18 19 23 24 24 24 21 16 12
23 22 21 20 21 20 19 17 18 16 16 16 12 14 14 18
21 22 22 22 22 23 23 23 24 24 25 24 24 25 25 25
25 26 26 25 25 26 26 27 27 28 28 29 29 29 30 30
29 27 30 29 30 30 31 31 32 31 31 31 32 31 31 32
32 32 32 32 33 32 33 32 32 32 32 32 32 32 32 32
33 32 32 32 31 31 31 30 29 29 28 28 27 27 26 26
26 26 25 25 24 24 24 23 22 22 22 22 21 20 21 19
20 20 19 19 18 18 19 19 20 23 26 26 24 22 16 12
21 22 21 20 22 20 18 18 19 21 20 16 15 18 19 18
18 20 22 23 23 23 23 23 24 24 25 24 24 25 25 25
26 25 26 26 27 27 27 28 28 29 29 29 29 29 28 28
29 29 30 30 30 31 31 31 31 31 32 32 32 32 32 31
32 32 32 32 32 32 32 32 32 32 33 32 32 32 32 32
33 32 33 32 32 30 30 29 29 29 29 28 28 28 27 27
26 26 25 25 25 24 24 23 23 23 23 22 22 22 21 21
20 20 20 19 19 19 19 19 20 23 25 25 26 23 18 13
20 22 20 21 21 20 19 21 21 18 17 18 16 20 20 22
22 19 22 23 23 24 24 24 24 24 25 25 25 25 25 26
26 26 27 26 27 28 28 28 28 28 28 27 27 28 30 30
31 31 30 31 31 31 32 31 31 31 31 32 32 31 31 31
32 32 33 32 33 33 33 32 32 33 33 32 32 32 31 31
33 33 33 32 32 31 30 30 29 30 28 28 28 27 27 27
26 25 26 25 25 25 24 25 24 23 23 22 23 22 21 21
21 20 20 20 19 19 19 20 21 23 26 26 26 22 19 9
15 22 21 21 20 21 20 21 19 19 18 14 13 13 14 16
17 20 21 22 23 24 24 24 25 25 25 26 25 26 26 26
27 26 27 27 27 27 26 26 27 27 29 30 30 30 30 31
31 32 31 31 31 31 32 32 32 32 32 32 32 32 32 32
32 31 32 31 32 32 32 32 32 32 32 32 32 32 32 32
33 33 33 33 32 31 31 31 30 30 29 29 28 28 27 27
27 27 27 26 25 25 25 24 24 24 23 23 23 22 22 22
21 21 21 21 21 20 20 20 22 24 26 27 26 24 17 12
18 24 22 22 20 20 18 19 17 8 5 4 7 8 13 15
17 15 11 15 24 25 25 25 25 25 26 26 26 26 27 27
27 27 27 27 27 27 27 29 29 29 29 30 29 30 31 31
31 33 32 32 33 32 32 32 33 32 32 32 33 32 33 32
32 32 33 33 33 33 33 33 33 32 32 32 32 32 31 32
33 33 32 32 32 32 31 31 31 30 30 29 29 28 28 28
27 27 27 26 26 25 26 25 25 25 24 23 23 23 22 22
21 21 21 21 20 21 20 21 21 25 27 26 27 24 18 17
16 21 20 20 18 16 12 9 8 11 12 2 2 5 8 14
16 18 16 13 12 18 24 26 26 26 27 27 27 27 27 27
27 28 28 28 27 29 29 30 30 30 30 30 31 31 31 32
32 33 32 32 32 33 32 32 32 32 33 33 33 33 33 33
33 33 33 33 33 33 33 32 34 33 33 34 33 33 31 31
33 33 32 32 32 31 31 30 30 30 30 29 30 28 28 29
28 27 28 27 26 26 26 25 25 24 24 24 24 24 23 22
22 22 22 21 21 21 21 21 22 24 27 27 26 23 18 16
13 11 13 14 15 10 3 1 3 4 10 20 15 11 5 7
15 16 11 12 14 11 11 21 25 26 26 26 26 26 27 28
28 29 29 29 28 29 29 30 30 30 30 30 31 31 32 32
32 33 32 32 33 33 33 33 32 33 33 32 32 32 33 33
33 33 33 33 34 34 34 34 33 32 33 32 32 33 33 33
34 33 33 32 32 32 32 31 31 30 30 30 30 29 29 29
28 28 27 27 27 27 26 26 26 25 25 25 24 24 23 23
23 22 22 21 21 21 21 22 23 26 29 27 21 19 17 17
14 8 4 6 3 1 0 0 0 0 3 9 22 24 22 12
9 20 24 19 11 7 11 9 17 23 27 27 28 28 28 28
28 29 29 28 29 29 29 29 30 31 31 31 31 32 32 33
33 33 33 33 33 33 33 34 33 33 33 32 33 33 34 33
33 33 33 33 33 33 33 32 33 33 33 33 34 33 32 33
34 34 33 32 33 32 32 31 31 30 30 30 30 29 29 28
28 28 28 27 26 26 26 26 25 25 25 24 24 23 24 23
23 23 22 22 22 21 21 22 22 26 26 22 18 20 18 18
15 8 3 0 0 0 0 0 0 0 0 6 15 15 16 19
16 11 19 19 23 13 8 12 14 16 23 27 28 28 28 28
28 28 30 29 29 29 30 30 30 30 30 31 31 32 32 32
33 33 33 32 33 33 33 33 33 33 32 32 33 33 33 32
32 33 32 33 33 33 34 33 32 32 33 32 32 32 32 32
32 32 32 32 32 31 31 31 31 31 30 30 30 30 29 28
28 28 27 27 26 26 26 26 25 25 25 24 24 23 23 22
22 22 22 22 21 21 21 21 22 25 25 20 21 21 18 16
10 4 3 0 0 0 0 0 0 0 0 0 7 14 12 12
14 13 13 9 11 14 15 12 16 21 13 23 27 28 28 28
28 28 29 28 29 30 30 30 31 30 31 31 31 32 32 32
32 32 33 32 32 33 33 33 32 31 32 32 32 32 33 33
33 33 33 33 32 31 32 32 32 32 32 33 32 32 32 32
33 33 32 32 31 31 32 31 31 30 30 29 29 29 28 28
28 28 27 27 27 26 26 26 25 25 25 24 24 24 24 23
23 22 22 22 22 21 21 22 23 25 25 20 20 19 19 17
7 3 0 0 0 1 0 1 2 2 2 2 3 11 21 13
11 10 12 12 8 7 8 11 15 17 22 20 20 27 28 28
28 28 29 29 29 30 30 30 31 31 31 31 32 32 32 32
32 33 33 33 32 32 33 32 31 31 31 32 32 32 32 32
32 32 32 32 31 32 31 32 32 31 31 32 31 31 31 31
32 32 32 31 31 31 31 31 31 31 31 30 30 29 29 29
28 28 27 27 27 26 26 26 26 25 25 25 25 25 24 23
23 22 23 22 21 21 21 21 23 23 24 16 18 18 19 9
6 7 7 6 10 19 22 23 24 26 25 23 20 23 20 23
12 10 9 10 11 12 8 5 6 14 20 24 24 21 28 28
28 29 29 29 29 29 29 29 30 30 31 31 32 32 32 32
32 32 32 32 31 32 32 33 32 33 31 33 32 32 32 32
32 32 31 32 31 32 32 31 31 32 32 32 32 31 32 32
32 32 33 32 32 32 31 31 31 30 30 29 29 29 28 28
28 28 28 27 27 27 26 26 26 26 25 24 24 24 23 23
23 23 22 22 22 22 22 22 21 21 19 15 17 20 13 5
3 4 10 17 34 57 67 68 65 67 65 64 58 53 41 28
22 12 6 9 11 10 10 8 7 9 16 27 25 17 19 28
29 29 29 29 30 30 30 30 30 31 31 31 31 30 30 30
31 31 32 32 32 32 32 32 33 34 34 32 32 32 32 32
31 31 32 32 31 31 32 31 31 32 32 31 32 31 31 31
32 32 32 31 31 32 31 31 30 30 30 30 30 29 29 29
29 28 28 27 27 27 26 27 26 25 25 25 25 24 25 23
23 23 23 22 22 22 21 21 20 21 19 14 22 20 11 1
0 5 24 51 72 83 98 102 102 95 86 77 76 67 63 45
27 18 14 8 9 16 11 11 10 12 15 18 24 24 17 25
28 29 30 29 30 29 30 30 30 30 30 31 31 32 33 32
32 33 32 33 32 32 32 32 32 32 33 32 31 32 31 31
32 32 32 32 31 31 31 30 31 32 32 31 32 32 31 31
33 32 32 32 32 32 31 31 31 30 30 30 29 29 29 29
28 27 28 28 27 27 27 27 27 26 26 25 25 24 24 24
24 23 23 23 23 22 22 20 22 21 16 18 28 19 6 0
3 25 64 83 95 105 113 112 112 111 104 94 90 87 76 62
47 27 15 19 12 14 20 14 11 13 22 24 17 14 17 18
29 29 29 28 29 29 29 30 31 31 31 32 32 32 32 32
32 32 32 32 33 32 33 32 33 33 33 32 31 31 31 31
31 30 31 31 31 31 31 31 31 32 32 31 31 31 32 31
33 33 32 32 31 31 31 31 31 30 30 30 30 29 29 29
29 28 29 28 27 28 27 27 27 26 25 26 26 25 25 25
24 24 23 24 23 23 21 20 20 20 16 28 29 17 1 1
22 64 88 96 105 115 119 120 118 115 116 115 109 102 98 85
66 53 30 26 27 17 27 33 24 18 20 26 30 8 8 14
26 30 28 29 30 30 30 31 31 31 32 31 32 32 32 33
33 32 33 33 33 33 33 33 32 32 33 31 31 31 32 32
31 31 32 31 31 32 31 31 32 32 32 31 31 32 31 32
33 33 32 32 32 32 32 31 31 31 31 30 30 29 29 29
29 29 29 29 28 28 28 27 27 27 27 25 25 25 25 25
25 24 24 23 23 24 20 20 21 18 22 34 30 11 0 13
54 86 97 104 111 120 125 126 128 126 122 122 125 119 110 99
94 76 55 36 29 17 21 33 29 30 19 16 16 13 1 5
15 29 30 29 30 30 31 30 31 31 32 32 32 32 32 32
32 32 32 32 32 33 33 33 32 33 33 31 32 32 32 32
32 31 32 31 32 32 31 32 32 32 32 33 32 32 30 29
33 32 32 31 32 31 31 31 31 31 30 30 30 30 30 30
30 29 29 28 28 28 27 27 27 27 26 26 25 25 25 25
25 25 24 24 24 24 19 22 16 18 29 32 28 4 3 33
77 95 101 109 117 123 130 131 131 131 129 125 129 130 131 126
108 94 85 67 39 23 6 9 18 18 30 30 7 8 4 0
2 25 30 30 30 31 31 31 31 31 32 32 32 32 33 33
33 33 32 32 33 32 33 32 32 31 33 31 31 32 32 31
32 32 32 32 31 32 33 32 32 31 31 30 27 28 28 28
33 33 33 32 32 32 31 31 31 31 31 30 30 29 30 29
29 29 29 29 28 28 28 27 27 26 27 27 26 26 25 25
25 25 24 24 24 24 20 20 15 22 33 34 31 2 14 55
89 96 104 112 120 127 132 132 132 132 132 131 132 132 131 131
130 121 106 90 73 46 22 3 1 4 8 29 20 3 2 3
0 11 30 29 30 30 31 31 31 32 33 32 32 32 32 33
32 32 32 33 32 32 33 32 32 32 33 32 31 32 32 31
32 32 32 31 30 31 30 30 30 30 31 32 31 31 30 30
33 32 32 32 32 31 31 31 31 31 31 31 31 31 30 30
30 29 29 28 28 28 28 27 27 27 27 26 26 26 25 26
26 25 25 25 25 23 20 19 20 25 37 33 22 4 29 70
94 101 107 116 125 131 132 132 132 131 132 132 131 132 131 131
131 131 130 124 110 94 45 21 7 0 0 3 18 5 0 2
0 0 24 31 31 30 31 31 32 31 32 32 32 33 32 32
33 33 33 33 32 32 32 32 33 32 33 32 32 32 31 31
31 31 32 31 31 32 32 32 31 30 31 31 30 30 29 29
33 33 33 32 32 32 32 31 31 31 31 31 31 31 30 30
29 29 29 28 28 28 28 28 28 28 27 27 27 26 26 26
25 25 25 25 24 24 20 17 23 28 43 31 14 9 42 82
99 106 112 121 128 132 133 133 132 133 132 132 132 132 131 131
131 131 131 131 129 118 98 38 24 5 0 0 3 12 0 0
0 0 12 32 31 31 31 32 32 32 33 32 32 33 32 32
32 32 32 32 33 32 32 32 32 32 31 29 30 30 31 31
32 32 32 33 30 30 31 30 30 31 30 30 30 30 29 29
33 32 32 32 32 31 31 31 31 31 30 30 30 30 30 30
29 29 29 28 29 28 28 27 27 27 27 27 27 26 26 26
26 25 25 25 24 24 14 15 22 26 35 28 16 15 55 90
104 109 116 123 131 133 133 132 131 132 132 131 131 132 132 131
131 131 131 131 131 130 115 84 36 12 2 0 0 2 0 0
0 1 3 30 31 32 31 31 32 32 33 32 32 32 32 33
32 32 32 32 31 31 31 30 30 31 31 31 32 31 31 31
30 31 31 32 30 31 30 30 31 30 29 30 29 29 29 27
18 30 32 32 32 31 31 31 31 31 31 31 30 29 29 30
29 29 29 29 28 28 28 28 28 28 27 27 27 27 27 26
26 25 25 24 25 24 11 13 17 27 36 21 13 24 67 93
105 113 119 124 130 132 133 133 132 132 132 132 132 132 131 132
131 131 130 131 131 131 129 109 73 33 9 0 0 0 0 0
0 0 1 25 31 31 31 31 31 31 33 32 32 32 33 32
32 31 31 30 30 31 32 32 32 31 31 31 31 31 31 31
31 31 31 32 30 30 30 30 31 30 30 30 29 29 29 28
11 28 33 31 32 32 31 31 31 31 31 31 30 30 30 29
30 29 29 28 29 28 28 28 28 27 28 28 27 27 27 26
26 26 26 25 25 23 8 12 14 28 35 15 14 31 74 95
107 115 121 125 129 133 133 132 132 132 131 132 131 131 132 132
132 131 131 131 131 131 130 125 105 66 22 0 0 0 0 0
0 0 0 18 32 32 32 32 31 31 31 32 31 30 32 32
32 31 32 32 32 31 32 32 32 32 31 31 31 30 31 31
31 30 31 31 30 30 30 30 31 29 30 29 29 29 29 28
11 27 32 32 32 32 31 29 30 32 32 31 31 30 29 29
29 29 30 29 29 29 29 28 30 34 33 29 28 27 27 26
26 25 25 25 24 20 6 12 9 23 32 8 16 38 77 95
108 117 122 124 127 132 132 131 132 132 132 132 132 132 132 132
132 131 132 131 130 130 130 125 121 110 69 10 0 0 0 0
0 0 0 7 30 31 30 31 30 30 31 31 31 31 31 31
31 31 32 32 31 31 31 31 31 31 31 31 31 31 31 31
31 31 30 31 30 29 30 30 30 29 30 29 29 29 29 28
12 27 33 32 32 32 31 35 39 37 35 32 31 30 29 30
30 30 30 29 29 29 29 28 35 42 40 36 34 33 29 26
26 26 26 25 25 15 4 7 8 23 22 4 15 41 78 93
107 118 121 121 127 131 133 132 132 132 132 132 131 132 131 132
131 132 131 131 130 130 128 123 121 117 107 50 1 0 0 0
0 0 0 0 25 31 31 31 30 30 31 32 31 31 31 31
30 31 32 32 32 32 32 32 31 31 32 31 31 30 31 31
30 30 30 30 29 30 30 30 30 30 30 29 29 29 29 28
13 28 33 32 32 31 31 38 43 41 40 36 36 35 34 31
31 30 30 29 28 29 29 28 35 40 38 36 37 37 33 27
27 26 26 25 24 12 2 3 9 17 17 7 17 49 78 91
105 117 120 122 126 130 132 132 132 132 132 132 132 132 132 132
132 132 131 131 131 131 130 124 120 117 111 83 12 0 0 0
0 0 0 0 15 31 30 31 31 31 31 31 30 31 31 31
30 30 32 32 31 32 31 31 31 30 31 31 30 31 31 31
31 30 30 30 30 30 30 30 29 30 30 29 29 29 29 29
15 31 34 34 33 32 31 38 43 41 38 37 38 40 41 35
37 35 33 30 29 30 29 29 32 32 32 32 35 36 35 29
27 27 26 26 24 9 0 1 5 12 11 4 21 54 79 89
104 115 118 123 127 132 133 132 132 132 132 132 132 131 131 131
131 132 131 131 131 131 131 130 125 120 110 94 36 0 0 0
0 0 0 0 5 29 30 31 31 31 30 30 30 30 30 30
31 31 32 32 31 31 32 31 31 30 31 30 31 31 30 30
31 30 30 30 30 30 30 29 29 30 29 30 30 28 28 28
14 33 36 33 34 34 34 36 24 29 36 39 43 43 42 30
26 33 35 36 35 34 34 31 31 18 13 13 17 21 27 29
26 26 26 25 24 7 3 0 2 12 8 2 27 58 81 90
102 112 119 124 129 132 132 133 133 133 132 132 132 132 132 132
132 132 131 131 131 131 130 131 129 121 111 95 60 8 0 0
0 0 0 0 1 27 31 30 30 30 30 30 31 31 31 31
31 31 32 32 31 31 31 30 31 30 31 30 30 30 30 30
31 31 31 31 30 30 31 30 29 29 30 29 29 29 27 27
14 33 37 29 29 35 39 39 3 0 8 22 26 29 37 18
0 2 7 14 20 28 34 34 32 16 4 7 7 1 8 29
27 27 26 26 23 6 2 0 2 10 10 3 28 58 81 88
100 111 119 127 132 133 133 133 133 133 133 133 132 132 132 131
131 131 131 132 132 131 131 131 130 122 113 94 76 27 0 0
0 0 0 0 1 27 31 30 30 30 31 31 31 32 31 30
30 30 31 32 32 31 31 30 31 31 31 30 30 31 30 30
31 30 30 31 31 30 30 30 29 28 29 27 27 28 28 29
13 25 34 36 35 36 42 42 4 0 2 8 12 10 26 18
0 0 0 0 0 1 4 13 32 14 0 1 3 1 7 32
27 27 27 26 23 3 2 0 2 8 7 4 31 64 82 87
99 110 120 130 133 131 124 119 121 131 133 132 132 132 132 132
132 132 132 132 131 127 130 132 131 124 114 95 80 50 4 0
0 0 0 0 1 28 30 30 31 31 31 31 32 31 31 31
31 31 32 32 32 31 31 31 30 30 31 31 31 31 31 32
32 31 31 30 28 29 29 29 29 29 30 30 29 29 28 28
11 1 3 9 18 29 37 40 5 0 0 3 5 6 24 20
0 0 0 0 0 0 0 4 32 11 0 0 1 0 8 32
28 27 27 27 22 2 4 3 1 7 6 8 35 69 81 87
98 108 112 115 101 88 73 75 84 110 132 133 133 132 133 132
133 130 120 106 95 79 81 90 109 103 102 98 81 67 19 0
0 0 0 0 1 29 32 31 31 31 32 32 32 32 32 32
32 31 32 32 33 31 31 31 31 32 32 31 32 33 32 31
31 32 32 31 31 31 31 30 30 30 31 30 31 30 29 29
10 0 0 0 0 0 2 15 6 0 0 0 0 2 21 18
0 0 0 0 0 0 0 4 32 5 0 0 0 0 9 34
28 28 27 28 23 2 4 5 1 8 1 9 40 71 82 86
94 80 71 66 51 41 36 51 75 97 113 126 133 134 133 134
133 122 99 77 54 49 43 44 50 55 62 71 76 80 44 0
0 0 0 0 1 29 33 33 33 33 34 34 33 32 33 33
33 33 33 32 33 32 32 33 33 32 32 32 34 33 34 33
33 32 32 31 32 31 31 30 30 30 30 31 32 31 31 31
11 0 0 0 0 0 0 8 6 0 0 0 0 0 23 17
0 0 0 4 6 0 0 3 33 4 0 0 0 0 9 36
29 28 28 28 26 5 1 0 1 4 1 10 50 75 83 81
65 49 50 41 30 25 29 39 66 91 102 118 129 133 133 134
128 111 88 60 33 29 36 52 60 56 46 45 63 87 60 4
0 0 0 0 4 32 34 33 33 34 35 34 34 34 34 34
33 33 33 34 34 34 34 34 34 33 34 33 34 33 34 33
32 32 32 32 32 32 32 32 32 32 32 33 33 33 32 32
11 0 0 0 0 0 0 7 5 0 0 0 0 0 27 21
0 0 0 6 13 7 2 3 32 3 0 0 0 0 7 35
29 29 29 28 28 13 3 0 2 1 1 11 59 80 84 68
54 58 75 90 104 103 90 84 86 91 99 109 122 134 135 134
125 107 93 85 85 100 117 125 123 110 92 67 60 88 70 10
2 0 0 0 8 33 34 33 34 34 33 33 33 34 33 33
33 33 34 34 34 34 34 33 33 31 32 33 34 33 34 33
33 33 33 33 33 33 33 32 32 33 31 32 32 30 29 29
11 0 0 0 6 1 0 5 4 0 0 0 0 0 24 23
0 0 0 9 13 12 9 2 31 4 0 0 0 0 5 36
29 28 28 29 28 19 1 0 0 0 0 13 69 85 86 67
72 93 108 120 127 127 119 110 103 95 91 106 122 132 134 134
121 100 95 103 106 115 122 125 124 114 102 91 79 88 74 21
1 0 0 0 15 34 33 34 34 34 34 33 34 33 33 33
33 33 34 34 33 33 34 33 33 32 32 33 34 34 33 33
34 34 33 33 33 32 32 32 33 32 30 30 29 29 27 25
11 0 5 2 3 0 0 4 4 0 0 0 0 2 24 25
0 0 0 7 12 11 10 1 31 9 0 0 0 0 3 36
29 29 29 29 28 22 0 0 0 0 2 21 76 87 90 88
89 92 101 106 109 105 101 82 81 93 81 97 116 129 134 132
117 92 88 83 81 81 86 102 101 99 94 91 90 91 75 33
0 0 0 0 13 34 33 33 33 34 34 34 33 34 34 33
33 33 34 34 33 33 34 32 32 32 33 33 34 33 34 33
33 33 31 29 30 30 31 30 29 24 21 18 15 13 11 9
12 1 5 0 1 0 0 5 6 0 0 0 0 6 27 30
1 0 0 0 3 10 10 0 31 34 26 19 13 10 13 37
29 29 29 28 29 24 0 0 0 0 5 32 76 88 92 90
86 83 81 78 55 33 37 56 67 72 80 90 108 120 133 128
112 94 77 72 75 35 18 28 52 74 75 88 95 94 78 47
0 0 1 0 15 33 34 34 34 34 34 35 33 34 34 33
34 34 33 33 34 34 34 33 32 32 33 34 32 32 32 30
31 28 25 23 20 17 14 12 10 10 10 10 10 11 12 12
13 1 0 0 0 0 0 8 23 12 7 6 1 1 23 44
30 25 22 14 7 4 4 1 31 41 39 37 38 41 43 41
29 29 29 29 29 28 3 0 0 0 10 49 77 89 94 91
86 73 44 27 22 19 40 95 101 67 96 91 105 119 130 128
112 104 92 63 112 49 16 29 47 30 54 87 96 95 81 53
3 0 0 1 20 34 34 33 33 33 33 34 33 33 33 33
33 33 33 32 32 31 33 31 32 30 31 29 25 22 19 16
13 11 12 11 10 10 11 12 13 14 15 15 16 16 16 16
11 0 0 0 0 0 0 10 47 42 35 35 34 26 36 43
19 20 24 27 27 27 28 29 41 37 37 38 40 44 46 42
29 29 29 28 28 27 6 1 5 11 26 59 79 90 95 93
87 59 28 52 66 66 79 110 101 96 92 95 106 115 130 129
115 103 96 79 100 98 81 85 87 66 53 86 100 95 83 55
20 8 0 0 25 33 33 33 33 33 32 34 32 32 32 31
30 32 31 31 29 26 23 21 18 16 14 13 12 12 12 12
14 15 15 15 15 10 17 18 19 20 20 20 21 21 11 21
13 1 0 0 0 0 0 10 49 39 41 45 49 46 42 36
13 13 13 12 13 12 14 17 20 18 21 26 32 34 34 34
29 29 29 29 29 29 20 21 25 46 48 67 81 91 98 97
88 76 78 101 115 111 107 106 104 90 92 100 105 112 129 129
117 104 98 69 79 106 114 121 115 99 87 97 106 98 85 62
39 19 7 2 29 33 33 33 33 33 33 32 31 31 33 27
23 20 18 16 14 13 14 14 14 14 15 16 16 17 18 19
19 20 20 22 21 5 21 23 23 23 20 20 24 15 19 25
14 24 23 17 9 3 1 11 41 34 42 46 49 48 39 30
14 13 12 10 10 8 7 7 6 7 8 10 23 28 26 25
28 29 29 28 28 29 42 63 59 64 77 74 82 93 101 102
100 95 93 104 109 105 102 102 105 96 97 101 104 109 129 134
124 104 104 98 79 84 98 106 110 105 102 105 109 101 87 75
54 36 25 5 30 32 31 29 27 23 22 20 18 17 30 23
10 13 15 16 17 17 18 18 20 20 21 21 22 23 24 24
24 18 18 24 25 14 16 25 26 26 14 23 22 15 27 27
15 36 46 45 41 38 34 36 35 29 39 43 47 47 41 33
17 13 11 8 7 7 8 7 7 8 9 10 24 15 18 28
28 29 28 28 29 29 62 90 93 87 87 78 82 94 102 109
112 110 110 113 116 112 115 121 117 101 101 101 102 110 130 133
127 106 106 110 105 105 116 119 121 121 120 113 113 103 87 78
79 63 68 17 22 19 17 16 15 15 15 16 16 16 23 18
13 18 20 22 22 23 24 24 25 25 25 24 25 25 26 26
27 26 22 20 28 24 9 27 27 25 12 24 14 23 24 27
14 35 45 44 43 44 44 46 26 4 10 17 24 29 29 34
19 11 8 3 2 2 6 9 9 8 12 13 26 24 23 34
33 31 15 15 28 29 75 102 100 99 87 81 83 92 101 111
119 121 127 132 132 129 131 129 119 107 102 101 101 112 124 133
130 111 105 113 114 112 119 131 132 131 130 120 116 107 86 78
92 97 102 41 15 16 17 19 20 20 20 22 22 22 26 22
17 22 25 26 26 26 27 27 27 27 27 27 27 28 28 27
29 29 28 22 20 26 8 21 27 24 12 16 20 24 25 28
15 30 41 41 42 44 45 46 20 0 0 0 0 5 13 33
18 9 6 0 0 0 2 6 4 1 6 8 24 36 32 31
33 35 29 25 29 29 76 106 104 103 74 86 81 90 99 111
120 126 133 134 134 133 133 131 127 109 102 101 101 112 122 132
131 118 104 112 116 116 119 130 133 132 131 126 120 108 85 81
96 108 109 53 21 23 24 25 26 26 26 27 26 24 22 19
19 26 27 27 28 28 29 29 29 30 30 29 28 27 28 28
28 28 28 28 22 20 19 10 27 21 15 11 27 24 26 27
20 24 27 30 32 32 35 42 17 0 0 0 0 0 7 35
16 9 6 0 0 0 0 0 0 0 0 0 20 37 26 23
22 24 28 30 29 29 73 100 110 89 72 93 81 90 99 111
120 131 134 134 133 133 133 133 125 109 103 98 98 112 126 134
133 128 108 112 116 118 119 129 132 132 132 130 122 110 85 98
98 114 108 52 26 27 27 28 28 28 28 28 28 24 7 4
16 28 30 30 30 29 29 30 30 30 30 30 29 30 29 29
28 29 29 29 29 21 18 5 11 7 9 19 26 24 26 26
17 19 18 21 28 26 32 41 15 0 0 0 0 0 2 36
11 4 0 0 0 5 3 0 0 0 0 0 19 38 26 17
29 26 25 28 29 29 59 95 107 75 97 97 80 88 97 111
122 133 134 135 134 134 134 134 128 111 103 93 95 113 128 134
133 132 115 113 119 120 121 128 133 133 132 131 124 110 84 107
98 117 105 41 29 30 30 29 29 29 28 26 25 22 5 1
11 27 30 31 31 31 31 30 31 30 31 30 30 30 29 28
28 28 28 28 29 27 19 5 0 0 16 24 26 23 26 23
16 18 21 24 28 28 35 39 14 0 0 0 0 0 3 36
4 0 0 0 0 2 9 3 0 0 0 0 19 38 26 12
23 21 23 28 29 29 45 99 97 77 109 100 77 87 97 110
123 134 135 135 134 134 135 134 129 110 97 93 100 114 132 134
133 133 120 112 122 122 122 127 132 132 132 131 123 109 84 113
100 113 93 32 32 31 30 30 30 16 6 3 9 20 4 1
11 28 30 31 30 30 30 30 30 30 30 30 30 30 29 29
29 27 28 28 28 28 27 16 0 2 23 24 20 21 24 25
17 6 3 7 11 17 24 29 14 0 0 0 0 0 4 36
4 0 0 0 0 2 12 10 7 0 0 0 18 39 27 12
17 16 20 27 29 29 36 99 93 88 106 107 77 83 96 109
121 133 135 134 134 134 134 134 125 106 95 99 98 106 125 133
132 131 110 104 118 119 123 126 133 132 132 131 124 108 86 113
100 110 80 30 32 31 31 32 31 18 13 18 23 23 2 0
10 27 30 30 30 30 30 31 30 30 30 29 30 29 29 29
28 27 27 27 27 26 28 24 0 3 26 23 18 17 24 26
21 5 0 0 0 0 0 3 11 0 0 0 0 0 5 35
2 0 0 0 2 13 14 11 10 0 0 0 17 39 30 20
18 14 20 26 29 29 33 93 96 89 105 112 82 83 95 108
120 133 134 134 134 134 134 133 110 100 98 105 95 86 104 123
129 119 94 103 111 112 119 126 132 132 132 132 123 107 88 110
95 104 67 31 32 32 31 31 31 30 29 29 28 24 4 0
10 28 30 30 31 30 30 29 30 30 29 30 29 30 29 28
28 28 27 26 27 27 28 25 1 2 26 25 18 17 26 26
19 5 0 0 0 0 0 1 10 0 0 4 2 0 3 33
1 0 0 0 1 11 18 6 1 0 0 0 15 38 31 20
8 1 12 25 29 29 32 87 100 105 96 108 83 81 94 103
117 128 134 135 134 134 135 129 102 102 98 92 59 36 80 103
111 95 45 85 110 106 111 122 130 133 133 131 121 105 87 100
95 101 56 32 32 32 32 32 32 31 30 29 28 25 10 0
14 27 30 30 31 30 30 30 30 30 29 30 29 29 29 29
28 29 28 26 27 28 28 26 2 1 25 27 20 17 26 27
20 6 0 0 2 0 0 1 10 0 1 14 8 0 4 33
1 0 0 0 0 0 12 1 0 0 0 0 12 38 32 16
6 2 10 24 29 29 31 79 105 112 114 109 88 76 91 101
111 122 130 134 134 134 134 125 105 107 98 63 42 76 83 79
84 82 63 84 117 107 104 113 128 132 132 130 118 101 88 112
116 101 46 33 32 32 31 31 30 30 30 29 28 25 16 6
20 29 31 31 31 30 30 30 29 30 29 29 29 29 30 29
29 29 28 26 27 28 28 27 3 0 24 26 17 15 25 27
17 5 0 2 13 3 0 0 13 0 5 13 10 2 3 31
0 0 0 0 0 0 12 3 0 0 0 0 8 37 28 7
4 0 8 23 28 30 29 57 105 104 113 111 97 75 84 95
102 115 125 133 134 134 134 129 116 109 106 89 83 92 85 70
76 90 92 106 116 112 102 110 128 132 132 126 112 97 92 112
105 98 37 31 31 31 31 31 31 30 30 29 27 24 22 21
24 30 30 31 30 29 30 29 29 29 29 28 29 28 28 28
29 28 28 27 26 23 26 24 4 0 15 18 11 14 23 27
16 6 0 5 15 4 0 0 29 25 29 29 27 23 21 33
0 0 0 0 0 0 11 4 0 0 0 0 4 36 25 4
4 0 15 23 28 29 29 36 96 101 108 110 95 72 84 92
96 107 121 131 133 134 129 124 121 117 109 103 100 107 106 102
106 102 99 106 114 112 100 107 129 131 130 119 106 93 95 112
102 95 32 32 31 30 31 31 30 30 30 29 28 24 24 25
29 30 30 30 30 30 30 30 30 29 29 29 29 28 29 28
29 28 27 26 25 22 16 18 4 0 18 26 20 16 24 26
15 6 0 0 1 0 0 0 32 36 41 41 39 43 46 38
6 4 3 0 0 0 13 6 0 0 0 0 2 30 23 2
0 0 7 21 28 29 29 30 66 101 108 112 81 66 82 88
92 103 118 127 132 123 109 115 113 111 109 114 117 121 113 111
113 109 106 109 110 109 106 102 126 131 128 114 101 93 77 109
101 72 30 31 31 30 31 31 31 31 30 29 28 27 26 28
30 30 30 30 31 29 30 30 30 29 28 29 28 29 29 29
28 28 28 26 25 26 27 26 8 0 17 24 19 15 21 23
17 14 5 0 0 0 0 0 31 37 39 39 39 46 49 46
28 26 25 20 17 17 21 15 12 9 8 6 11 26 26 9
7 8 2 14 28 28 29 28 28 65 89 77 22 52 79 89
91 99 114 122 123 100 101 102 104 109 113 120 127 130 124 123
126 122 115 114 109 105 107 104 105 127 122 107 98 92 44 70
76 37 32 32 32 31 31 31 32 30 30 29 29 28 28 30
30 30 30 29 30 30 30 30 29 28 29 30 29 29 29 28
29 27 27 26 26 26 26 26 10 0 16 25 20 14 21 25
18 18 4 0 0 0 0 0 29 31 34 35 34 39 38 37
32 31 32 30 29 30 30 27 25 22 20 19 21 30 34 23
21 16 12 16 27 29 28 29 24 31 33 20 3 38 75 87
91 97 112 118 111 86 88 89 100 111 115 120 122 124 131 131
129 125 121 118 110 103 95 99 95 122 117 104 98 85 37 31
32 31 32 31 32 32 32 32 31 30 30 30 30 28 29 30
30 29 29 30 30 30 29 29 29 29 29 28 29 29 29 28
28 27 27 26 26 25 26 26 11 0 15 27 22 15 22 25
21 16 0 0 0 0 0 0 32 31 32 32 33 31 28 29
32 33 35 34 33 32 32 31 32 34 32 29 28 33 40 39
38 37 34 30 28 29 29 28 24 29 33 27 8 44 71 85
94 98 111 116 107 83 57 54 70 72 70 75 77 86 90 93
89 82 81 76 80 76 53 73 104 123 114 103 98 82 29 30
31 31 32 31 31 31 30 31 31 30 30 30 30 29 31 31
30 30 31 31 31 31 31 30 30 30 30 29 30 29 28 28
28 28 27 26 26 26 27 26 13 0 12 26 22 15 21 25
19 20 19 15 11 9 7 5 35 34 32 32 32 32 33 34
36 35 37 41 41 33 31 32 34 42 40 37 36 36 31 26
26 26 28 27 27 29 29 28 25 29 34 32 18 48 68 84
94 94 109 121 122 107 102 71 42 59 88 105 109 127 118 119
128 114 106 92 68 68 89 95 119 128 109 101 94 79 29 31
31 31 31 31 31 31 31 31 31 31 31 30 31 30 31 31
30 30 30 30 30 29 30 29 29 29 29 29 29 29 29 28
28 28 28 27 26 26 27 26 14 0 11 26 23 15 20 25
19 27 41 43 39 40 44 42 44 37 34 34 33 35 38 41
40 36 39 45 44 34 30 27 33 43 40 37 38 37 33 26
21 20 20 22 27 28 29 28 23 30 33 34 26 35 68 78
90 95 106 119 134 122 111 104 88 88 95 113 132 134 134 134
134 130 113 101 93 100 115 121 132 126 104 99 91 69 29 31
31 30 31 32 32 31 31 30 30 30 31 30 30 30 30 30
30 29 30 30 30 30 29 29 29 29 28 28 28 28 27 28
27 27 27 26 25 25 27 26 17 0 9 26 23 15 19 25
20 28 49 49 49 49 49 48 48 37 30 27 28 29 35 41
43 37 37 37 36 34 31 27 27 33 28 28 33 34 34 31
27 26 26 27 29 30 29 27 24 31 34 35 30 31 73 69
85 94 101 115 133 129 115 107 96 92 95 109 112 126 130 128
126 111 109 101 98 105 122 127 132 120 101 97 87 55 29 31
31 30 30 31 30 30 30 30 29 30 30 30 31 30 31 30
30 31 30 29 29 30 29 29 28 28 29 28 28 28 27 27
27 27 27 25 25 25 27 26 18 0 7 26 23 15 19 25
21 22 32 35 36 37 40 41 44 24 4 4 2 4 7 20
42 36 23 9 13 15 15 23 28 18 2 1 3 9 15 31
29 28 31 34 36 36 30 26 26 31 33 35 31 26 75 61
81 88 99 111 126 134 122 117 97 96 98 108 124 118 118 118
125 126 109 100 105 106 124 127 129 111 100 95 78 39 31 30
30 30 30 30 31 30 29 28 28 27 26 25 27 30 30 30
30 30 30 30 30 30 30 30 29 28 28 29 29 28 27 28
27 27 28 27 26 25 28 27 20 0 6 26 25 16 19 24
21 19 25 25 25 24 24 24 27 16 0 0 0 0 0 8
40 31 5 0 0 0 4 22 31 17 0 0 0 2 12 24
11 15 18 19 26 37 31 25 26 30 33 35 33 28 71 60
74 86 91 105 117 130 120 119 111 99 96 107 109 109 110 111
116 113 107 107 107 112 123 125 122 104 95 90 66 30 28 26
27 27 29 30 30 30 22 12 11 9 8 7 15 30 32 31
30 30 30 29 29 28 29 29 28 27 28 28 29 29 28 28
28 27 28 28 26 26 27 27 22 0 5 27 25 16 17 24
19 21 32 33 32 31 30 29 30 18 1 0 0 0 1 17
40 21 0 0 0 0 0 24 32 19 0 0 0 0 10 20
0 2 2 0 4 35 32 26 28 31 33 34 33 29 65 72
59 80 88 100 114 123 120 116 118 114 103 91 94 95 93 98
97 101 102 108 116 119 120 122 114 102 93 82 40 11 8 6
6 7 21 30 30 31 21 4 4 5 5 4 13 30 31 31
31 30 31 30 30 28 28 28 29 28 28 27 28 28 28 28
28 27 28 28 26 26 27 27 23 1 4 25 24 14 16 24
20 22 33 35 34 34 34 35 35 19 1 0 0 0 0 10
37 13 0 0 0 0 0 21 30 18 0 0 0 0 9 23
0 6 9 1 3 34 32 25 28 31 32 34 33 30 55 82
60 67 83 93 107 116 115 110 119 122 121 112 97 89 84 85
91 100 113 122 123 117 118 119 109 98 91 73 20 8 3 2
2 1 16 29 30 29 19 4 4 5 4 4 12 30 31 31
31 30 30 30 29 28 28 28 28 28 28 28 27 28 28 28
28 28 27 26 25 24 25 24 21 1 2 21 23 15 17 25
24 24 30 32 33 34 34 34 38 19 0 0 0 0 4 3
35 10 0 0 0 0 0 22 29 17 0 0 0 0 5 23
1 0 1 0 2 33 33 25 29 30 33 34 34 31 48 86
72 56 74 85 99 105 113 112 116 119 127 127 125 113 99 99
111 120 128 129 125 114 112 110 107 96 79 63 15 7 2 1
1 1 12 29 28 29 17 4 4 5 4 4 10 28 31 30
30 30 29 29 29 28 28 27 27 27 27 26 26 27 27 28
27 27 27 26 24 23 24 25 23 2 1 22 24 16 15 22
31 30 30 29 30 30 29 25 36 27 2 0 0 0 2 1
33 8 0 0 0 0 0 22 30 16 0 0 0 0 1 25
2 3 4 0 1 32 32 24 29 30 33 34 33 33 41 85
83 63 55 75 90 94 102 108 113 121 129 134 134 131 131 132
132 134 133 132 123 116 112 104 99 87 64 68 11 8 2 2
1 1 13 29 28 28 19 4 3 4 4 3 6 27 30 29
28 28 28 27 27 26 27 27 27 27 27 27 27 27 26 27
27 26 26 25 24 24 25 25 24 2 0 20 24 16 14 22
30 30 29 30 30 30 29 25 33 31 5 0 0 0 3 1
31 8 0 0 0 0 0 17 31 19 1 0 0 0 0 26
3 0 0 0 1 30 31 24 29 30 33 34 33 33 37 82
88 76 53 60 75 83 90 99 112 116 125 130 132 134 132 134
133 131 131 131 120 111 105 97 91 70 62 74 9 7 1 0
0 0 12 27 27 28 21 8 8 8 9 10 10 23 27 28
27 28 26 22 27 51 16 19 27 27 26 26 26 26 26 26
26 26 25 25 23 22 24 24 23 3 0 18 23 16 13 21
28 29 28 29 28 28 29 25 31 27 0 0 0 0 0 1
31 9 0 0 0 0 0 14 31 17 0 0 0 0 0 26
6 0 0 0 1 28 29 24 28 30 32 33 33 31 33 80
91 83 63 53 66 72 80 86 103 106 113 122 131 130 129 132
133 130 125 120 113 108 93 83 77 60 76 76 7 6 1 1
0 0 11 27 28 28 22 8 8 7 7 6 8 21 28 29
29 28 20 0 0 36 0 4 27 27 26 25 26 26 25 25
26 25 25 25 23 22 23 24 23 5 0 17 23 16 13 21
6 7 7 8 11 22 28 27 30 24 0 0 0 0 0 0
29 11 0 0 0 0 0 11 33 17 0 0 0 0 0 25
9 0 0 0 1 26 28 24 28 30 32 33 30 29 29 75
89 88 76 53 57 66 74 74 90 96 101 112 117 122 123 123
122 116 117 113 105 94 83 73 63 64 89 70 2 1 1 0
1 0 10 25 27 27 23 5 4 3 4 4 5 22 28 28
27 27 19 0 0 12 0 3 27 27 26 27 26 26 26 25
26 25 25 25 23 22 24 25 24 7 0 16 24 18 13 22
0 0 0 0 1 24 29 26 26 23 0 0 0 0 5 1
26 20 6 5 7 6 6 16 34 23 22 20 19 22 25 36
16 2 1 1 3 25 26 22 27 28 31 31 27 30 30 68
89 91 83 61 52 58 66 66 77 88 95 97 100 107 112 111
111 110 105 105 98 80 70 61 57 78 94 69 1 0 1 1
1 0 9 26 28 28 22 5 3 4 4 3 3 21 29 28
27 27 21 0 0 0 0 1 26 27 27 26 27 26 26 26
25 25 26 26 24 23 24 24 24 8 0 14 25 18 13 20
0 0 0 0 0 26 30 26 24 33 29 24 21 25 29 26
28 34 39 36 37 38 39 41 39 25 33 36 38 42 46 46
33 24 23 23 23 28 25 22 27 29 30 29 30 30 29 61
90 91 87 75 56 53 55 61 67 75 87 90 94 93 102 94
94 92 95 93 80 67 58 56 69 92 98 64 1 4 3 1
1 0 8 25 28 27 22 5 4 4 3 3 4 22 29 29
28 28 21 0 0 0 0 1 26 27 28 27 28 27 27 26
26 25 25 25 23 22 24 24 25 9 0 13 25 19 12 19
0 0 0 0 0 24 31 27 23 37 39 33 34 35 33 27
25 31 46 44 42 42 45 45 42 25 28 34 36 42 46 46
35 25 26 26 26 26 25 24 24 27 27 28 30 30 29 55
89 93 90 82 62 55 54 54 53 57 75 81 85 83 81 80
82 85 78 73 63 53 58 63 83 99 98 61 0 1 1 1
2 0 8 26 28 28 23 5 2 2 2 3 4 21 28 15
10 8 5 0 0 0 0 0 25 28 27 26 27 26 26 26
26 26 25 25 23 23 24 25 24 11 0 11 24 19 12 18
0 0 0 0 0 23 32 26 23 38 34 29 31 34 34 26
21 23 30 31 31 30 31 30 32 24 22 26 29 29 27 25
26 26 26 26 26 25 26 25 24 24 27 31 31 30 29 45
87 92 94 90 75 63 57 53 50 51 47 48 58 61 53 52
56 64 57 45 48 55 62 79 98 103 97 59 0 0 1 1
2 0 7 25 27 28 23 5 3 3 3 3 4 22 21 0
0 0 0 0 0 0 0 0 25 27 27 27 26 26 26 26
26 25 25 26 24 23 24 25 25 12 0 9 24 20 12 18
0 0 0 0 0 21 32 26 23 35 22 24 25 28 32 28
23 22 18 19 20 21 21 20 24 25 27 29 30 29 25 23
25 27 27 27 27 26 26 25 26 27 29 32 31 30 24 30
85 93 95 95 86 73 67 56 52 51 46 42 38 45 46 47
44 41 39 45 53 64 75 95 106 105 98 62 1 1 1 1
2 0 7 26 28 29 24 5 3 4 4 4 5 22 27 4
0 0 0 0 0 0 0 0 24 28 28 27 27 27 26 26
26 25 26 26 25 24 25 25 24 14 0 9 25 20 12 18
0 0 0 0 0 18 32 27 26 36 10 6 8 10 13 12
14 23 23 26 26 32 32 29 30 32 34 37 39 37 29 26
26 27 27 28 27 26 26 27 27 28 30 33 32 27 13 41
84 95 97 94 93 88 81 69 55 50 48 45 42 46 46 42
39 44 43 49 65 83 96 107 108 107 97 85 4 1 1 1
2 0 6 26 28 28 24 6 2 3 4 3 4 21 30 17
0 0 0 0 0 0 0 0 24 28 28 28 27 27 27 27
27 26 27 26 25 24 25 25 25 14 0 7 23 20 12 17
0 0 0 0 0 15 33 26 29 39 6 0 0 0 0 0
11 24 29 39 34 44 46 22 15 18 19 22 31 40 31 27
26 27 27 28 27 26 27 27 26 27 30 33 29 20 4 62
80 94 100 98 94 90 84 78 76 66 50 49 43 42 42 43
43 45 52 70 85 98 107 110 113 108 97 95 7 0 1 1
1 0 5 26 28 29 26 11 9 10 5 9 9 22 29 25
7 0 0 0 0 0 0 0 6 22 28 28 27 27 27 27
27 27 27 27 25 23 25 27 27 17 0 6 24 20 14 17
0 0 0 0 0 13 33 26 30 43 9 0 0 0 0 0
13 25 27 38 23 26 35 8 0 0 0 0 13 39 32 28
27 27 27 26 27 26 26 26 26 27 30 32 26 7 3 72
80 91 98 102 100 96 94 92 92 85 74 68 63 58 60 68
73 85 94 100 104 105 109 114 112 107 97 103 9 1 1 0
1 0 5 25 28 29 27 26 27 26 22 26 27 28 21 14
6 0 0 0 0 0 0 0 0 17 28 28 28 28 27 28
27 26 27 28 26 24 24 25 25 17 0 3 20 18 13 17
0 0 0 0 0 10 33 26 29 40 13 0 0 0 0 0
12 24 25 36 9 0 21 8 0 0 0 0 9 37 32 27
27 27 27 27 27 26 26 26 27 27 29 30 14 1 4 84
85 86 98 100 103 101 97 100 103 106 114 112 114 115 122 123
125 126 117 114 112 110 118 116 114 110 100 104 7 0 0 0
0 0 0 4 5 9 14 19 26 31 30 30 29 26 4 0
7 13 0 0 0 0 0 0 0 16 28 28 27 27 27 26
27 26 26 27 26 24 24 25 25 19 0 2 17 16 12 16
0 0 0 0 0 8 32 26 24 16 1 0 0 0 0 0
14 23 24 36 9 0 18 10 0 0 0 0 5 36 32 27
28 27 27 27 27 26 26 26 25 19 14 10 3 2 4 82
88 84 92 105 106 107 106 100 106 113 124 130 133 135 135 135
135 130 121 114 113 119 121 123 118 114 117 99 5 1 0 0
0 0 0 0 0 0 0 0 0 5 14 21 19 5 0 0
4 9 0 0 0 0 0 0 0 15 29 28 28 28 28 27
27 27 27 27 27 24 24 25 24 18 0 1 15 15 13 15
0 0 0 0 0 7 31 26 23 10 0 0 0 0 0 0
15 23 26 36 9 0 17 12 0 0 0 0 2 33 32 27
27 27 27 26 26 25 18 8 1 0 0 2 3 2 6 74
93 94 100 108 113 114 111 108 104 109 121 133 135 135 136 136
134 125 115 117 117 120 125 124 124 110 124 95 4 1 0 0
0 0 0 0 0 0 0 1 3 2 4 3 1 0 0 0
0 0 0 0 0 0 0 0 0 11 25 29 28 29 28 27
27 27 28 28 28 25 24 25 24 18 0 1 14 15 12 16
0 0 0 0 0 5 31 26 22 12 0 0 0 0 0 0
13 23 25 36 9 0 15 13 0 0 0 0 2 32 33 27
27 27 27 26 16 3 0 0 0 0 1 3 2 3 6 73
125 95 105 113 117 117 117 111 110 110 112 122 133 136 136 135
128 120 117 115 119 124 125 128 115 116 121 96 7 3 0 0
0 0 0 0 0 0 1 3 4 4 7 5 6 5 4 2
1 0 0 0 0 0 0 0 0 0 3 10 8 11 28 28
28 28 29 30 29 26 25 24 23 18 0 0 14 15 14 16
0 0 0 0 0 4 31 27 23 13 0 0 0 0 0 0
10 25 25 37 12 0 13 16 0 0 0 0 1 30 32 26
27 25 16 4 2 0 0 0 0 2 2 3 3 4 6 68
127 99 109 113 120 124 120 114 110 109 111 116 127 136 136 134
125 115 112 120 123 129 133 124 104 128 119 89 5 3 3 1
0 0 0 0 0 3 3 3 4 6 6 6 7 7 4 5
4 2 2 1 3 3 3 3 3 2 1 0 0 5 30 31
31 31 32 32 32 30 28 27 25 22 2 0 18 22 20 24
0 0 0 0 0 3 30 26 23 14 0 0 0 0 5 2
8 27 25 37 21 4 10 16 1 2 2 0 0 28 32 24
16 7 4 4 5 1 0 0 2 1 1 4 4 4 4 63
121 119 96 117 121 124 127 123 114 111 112 109 118 132 136 127
113 114 117 123 132 134 129 101 130 125 118 81 3 4 3 2
2 1 1 1 3 4 3 5 4 3 5 4 5 7 5 3
5 6 5 3 3 7 9 8 7 4 3 2 3 11 42 44
44 44 44 45 45 42 39 36 33 30 4 0 18 10 6 7
0 0 0 0 0 2 29 27 22 18 0 2 0 0 9 11
8 30 27 37 20 13 10 14 0 7 4 0 0 20 16 5
5 7 5 4 5 3 1 3 7 4 2 2 4 5 7 62
115 131 102 113 122 124 128 130 124 120 113 108 112 123 128 117
111 114 125 132 132 132 106 125 131 124 120 79 4 6 5 2
1 3 6 4 3 3 5 4 6 2 4 5 5 6 6 6
4 5 6 4 3 3 1 2 2 26 32 37 40 44 47 47
47 46 47 47 46 43 39 35 34 32 5 0 20 0 0 0
0 0 0 0 0 1 28 27 23 24 22 26 27 27 30 32
32 38 28 37 14 19 11 20 11 14 12 8 3 4 4 5
7 6 5 4 2 4 4 7 6 3 2 2 3 4 6 52
114 123 131 92 121 127 132 131 128 123 120 115 108 108 111 105
115 127 131 132 133 112 124 134 128 123 121 83 4 7 5 2
3 3 4 4 2 2 5 3 6 4 3 5 4 5 7 6
5 4 4 6 4 4 2 2 2 3 20 37 43 43 44 44
44 44 44 42 44 40 35 33 33 32 7 0 14 0 0 0
0 0 0 0 0 1 28 27 22 24 40 42 43 43 43 43
44 43 30 36 7 9 12 24 20 17 10 3 3 5 4 5
6 5 5 4 5 4 8 9 8 5 4 3 4 5 9 45
115 118 132 116 100 128 133 134 131 126 122 119 116 110 108 116
124 130 134 134 113 120 133 131 126 122 123 82 9 9 6 2
3 3 4 4 3 3 3 4 4 6 3 5 4 4 6 7
4 4 5 6 4 4 3 3 2 2 2 2 11 27 36 37
40 36 35 26 32 30 23 26 32 32 8 0 7 0 0 0
0 0 0 0 0 1 27 27 22 21 39 42 41 41 40 40
39 38 32 35 7 1 6 18 7 2 4 3 5 4 5 5
6 4 4 5 7 6 9 9 6 3 4 5 6 7 12 40
117 115 126 136 99 116 133 135 134 130 127 123 122 121 121 125
132 134 134 115 119 135 134 131 125 123 124 84 9 8 9 5
5 4 5 4 4 5 4 4 4 5 5 4 3 5 5 7
7 5 6 7 6 5 5 4 2 3 3 2 2 2 5 13
29 25 25 21 19 22 20 27 31 32 9 0 3 0 0 0
0 0 0 0 0 1 27 27 22 17 17 17 17 16 15 15
15 13 18 34 8 1 3 3 4 4 5 4 4 4 6 5
4 5 4 6 5 10 12 11 9 8 6 6 2 4 10 29
113 117 123 135 134 93 126 136 135 134 131 130 129 129 132 134
135 134 113 116 134 135 131 126 123 121 120 78 9 8 7 5
4 5 4 5 5 5 5 2 3 5 7 4 3 4 6 6
6 3 3 5 4 4 3 3 2 2 3 2 3 2 1 2
2 5 11 23 29 29 26 26 30 31 10 0 1 0 0 0
0 0 0 0 0 0 25 26 21 17 13 11 10 11 11 12
11 10 15 22 5 4 3 2 3 5 4 5 5 5 7 5
6 6 5 6 8 7 9 9 8 6 4 4 3 6 12 16
108 117 118 131 138 126 90 130 135 135 134 134 134 134 134 135
134 114 111 135 135 134 131 126 120 120 117 47 10 8 8 6
6 6 5 5 5 6 5 6 2 4 5 4 3 4 4 5
7 6 3 6 6 7 4 4 3 3 4 2 2 3 3 1
0 0 1 1 17 27 28 27 28 30 13 0 0 0 0 0
0 0 0 0 0 0 26 26 21 19 17 16 15 13 14 13
12 8 3 2 3 4 2 2 4 4 5 5 4 6 8 5
5 5 5 9 8 8 7 7 8 8 6 5 5 7 12 8
87 115 118 124 133 137 112 97 134 135 135 136 135 136 136 135
112 114 136 134 135 135 131 124 119 119 114 20 13 8 7 6
5 4 5 5 6 4 5 7 7 3 4 5 4 4 5 3
5 7 4 4 4 6 5 4 4 4 4 4 3 4 3 2
1 2 1 2 1 6 22 27 28 27 13 0 0 0 0 0
0 0 0 0 0 2 28 28 21 20 18 17 17 18 17 13
5 2 2 2 4 3 2 5 5 4 5 5 6 7 5 5
6 4 9 11 12 10 10 10 8 7 8 5 5 8 13 7
57 118 116 122 134 137 136 101 107 135 136 135 135 135 132 109
114 136 136 136 134 132 130 122 119 123 109 12 13 11 11 9
10 9 8 9 9 9 11 10 6 4 2 5 4 2 3 4
4 7 7 5 6 6 8 4 5 5 4 5 3 4 5 3
3 3 2 3 2 5 5 16 20 18 12 0 0 0 0 0
13 14 15 16 16 18 23 22 21 20 19 18 17 14 6 1
1 1 2 3 3 4 2 6 4 6 5 6 7 6 4 6
6 5 9 9 9 10 12 13 11 11 10 10 8 9 15 7
38 114 116 120 131 135 137 135 99 115 135 135 134 128 106 117
137 135 136 135 134 132 126 122 120 123 106 32 14 11 12 12
9 10 8 10 8 8 5 5 6 6 4 2 5 4 3 5
6 6 6 5 6 6 7 5 3 5 4 4 5 3 5 4
5 3 3 2 2 7 6 9 16 20 15 0 0 0 0 0
24 22 22 21 21 21 21 21 20 19 19 14 6 1 1 1
1 1 3 4 3 4 5 6 5 6 5 6 8 6 5 5
4 9 8 9 9 10 10 9 8 9 9 7 6 8 11 8
29 113 117 120 133 137 137 137 133 102 120 136 124 103 120 137
137 136 136 135 132 132 125 121 122 125 117 63 10 8 8 7
8 7 7 6 6 6 6 5 4 5 6 4 2 5 4 6
6 6 8 9 7 6 7 8 7 4 5 3 6 4 4 6
5 4 2 3 1 3 4 7 25 27 19 0 0 0 0 0
23 23 23 22 22 21 21 21 20 17 6 1 1 2 2 0
2 3 4 3 4 3 5 6 6 5 6 8 7 7 6 5
10 10 9 7 8 9 10 9 10 11 10 9 7 10 14 13
37 117 116 122 133 137 137 137 138 131 103 101 105 124 137 137
136 136 135 133 133 127 122 122 126 125 124 73 10 9 8 8
7 6 6 7 6 5 5 6 7 6 6 4 3 7 6 7
7 7 8 8 6 5 7 9 8 6 5 5 7 6 4 5
5 6 5 3 2 3 3 2 26 30 20 0 0 0 0 0
22 21 20 19 18 17 17 16 9 1 1 1 1 2 2 1
2 5 6 4 5 5 7 5 6 7 7 9 6 8 7 5
11 13 12 10 11 9 10 10 11 10 9 8 7 9 13 22
47 122 114 120 131 135 136 138 136 110 114 86 113 136 137 137
136 136 136 134 130 127 122 125 127 132 132 73 9 9 9 7
8 6 6 6 6 7 7 8 6 4 4 6 5 3 7 6
6 8 9 9 9 7 6 7 8 5 5 5 6 7 5 7
5 6 5 6 1 4 3 1 21 29 22 0 0 0 0 0
4 2 1 6 12 14 10 2 0 0 1 2 1 3 3 3
4 5 5 5 6 7 7 6 6 5 7 8 7 8 4 9
9 9 9 10 10 10 10 11 10 12 10 10 10 10 13 38
63 123 121 120 133 136 137 135 106 53 125 119 103 133 138 136
136 136 135 131 129 126 123 125 127 130 130 77 10 9 8 8
6 8 8 8 8 8 6 4 5 5 5 5 5 5 5 6
7 7 7 9 9 8 6 7 7 4 4 6 6 7 5 7
6 6 6 6 0 5 1 0 15 29 24 0 0 0 0 0
6 0 0 4 12 15 1 2 0 1 0 2 2 5 4 3
4 6 5 5 4 8 6 6 6 5 8 5 5 3 6 10
10 8 9 9 8 8 8 7 8 11 11 11 12 10 12 46
86 124 119 119 130 134 133 124 55 96 125 108 91 108 136 137
135 135 134 130 126 123 123 128 132 134 133 56 10 9 9 10
10 7 6 5 4 5 6 5 5 4 5 7 9 8 4 4
6 8 8 7 9 6 5 4 8 5 3 4 5 5 5 5
7 6 5 3 0 5 2 0 10 28 25 0 0 0 0 0
31 3 0 3 10 10 0 0 2 2 1 2 4 3 3 3
5 5 2 3 3 6 5 5 7 6 8 4 4 3 9 8
9 7 8 8 8 9 7 9 8 8 9 9 10 12 13 47
104 125 120 121 128 134 129 60 84 107 136 130 100 107 125 136
135 134 132 125 126 124 125 130 131 131 129 33 10 9 8 7
6 6 5 4 5 4 5 5 6 7 7 8 7 6 6 2
6 6 6 8 7 7 7 6 7 7 3 4 6 4 5 4
6 5 7 2 0 4 1 0 6 27 25 0 0 0 0 0
43 18 7 9 8 4 0 1 4 1 2 2 3 2 4 1
6 4 3 4 4 5 2 4 4 8 6 5 2 7 10 10
9 8 6 7 6 6 6 8 7 7 9 7 9 12 13 45
117 122 123 117 126 130 90 43 117 118 134 130 98 87 111 131
134 134 128 122 123 127 130 131 133 131 122 13 10 8 10 8
7 8 5 6 4 4 6 7 8 7 6 6 4 4 6 4
1 3 4 5 5 7 5 4 6 6 4 3 4 5 5 3
4 3 6 1 0 3 0 0 3 28 27 0 0 0 0 0
45 29 14 13 9 1 0 0 2 1 2 1 4 3 2 1
5 3 3 5 7 2 4 3 5 8 5 3 4 7 7 9
8 9 10 8 6 7 5 7 8 7 8 9 9 12 14 53
119 132 120 117 127 121 37 37 117 131 132 119 96 108 108 109
133 133 128 123 127 128 128 129 129 131 99 5 10 9 10 8
6 7 7 7 8 7 8 7 4 5 5 3 5 4 6 4
3 1 4 5 6 6 5 3 4 5 5 4 4 4 4 3
3 4 5 0 0 2 1 0 1 28 28 0 0 0 0 0
28 20 15 14 11 0 0 0 0 3 2 4 3 4 1 3
6 2 3 4 6 4 3 4 5 8 3 1 6 6 9 7
8 6 8 7 9 9 11 8 8 7 8 10 9 10 12 46
130 130 128 121 126 91 33 38 124 134 129 117 113 107 117 111
120 135 130 125 130 131 130 132 131 130 65 4 9 10 10 7
7 6 8 10 10 9 7 6 5 6 6 5 7 6 6 8
3 2 3 5 5 7 6 4 4 5 7 4 4 6 4 3
3 3 3 0 0 1 0 0 0 30 29 1 0 0 0 0
23 14 7 6 3 0 0 1 0 2 3 5 2 4 3 4
4 3 3 5 6 5 5 3 6 4 1 4 6 6 6 6
5 6 7 8 7 8 7 7 7 10 10 8 9 11 15 44
128 136 127 125 125 102 53 33 127 136 135 109 109 111 124 122
98 134 130 129 129 129 129 132 131 132 45 8 10 11 11 9
7 7 8 7 8 8 7 5 4 5 6 7 6 8 10 6
0 3 3 5 6 6 6 4 4 4 6 4 3 4 4 4
2 3 1 0 1 0 0 0 0 24 26 1 0 0 0 0
24 14 6 6 2 0 0 2 0 2 6 7 3 4 4 6
4 3 5 5 4 5 6 4 7 3 0 7 8 7 7 8
5 5 6 6 6 8 7 6 7 12 9 8 7 10 13 45
129 131 130 126 110 99 94 50 133 137 136 123 110 105 123 124
99 124 129 127 131 131 131 132 128 125 46 40 9 9 9 9
8 7 10 7 7 7 6 6 5 5 7 8 7 7 6 1
1 3 3 6 5 4 6 5 5 5 5 4 4 2 3 4
2 3 1 0 1 0 0 0 0 18 24 1 0 0 0 0
24 15 5 4 1 0 0 2 0 2 4 6 3 3 3 6
3 5 5 8 4 4 5 4 6 3 1 2 6 10 8 7
7 6 6 6 7 7 6 7 6 10 10 8 8 8 13 41
129 133 130 125 107 117 112 84 131 136 137 135 122 102 113 120
115 119 129 133 133 132 132 132 132 123 108 73 7 11 9 9
8 8 9 7 7 5 7 6 8 8 8 6 7 5 3 0
4 4 3 4 4 5 6 7 6 4 5 7 4 3 3 4
1 0 0 0 1 0 0 0 0 10 23 0 0 0 0 0
24 16 6 6 0 0 1 4 0 1 3 5 2 4 3 7
3 4 4 5 3 3 4 5 5 3 3 0 3 6 6 7
8 9 9 7 6 6 6 6 7 9 8 7 7 8 12 41
130 131 129 105 108 126 124 96 131 136 137 137 134 114 109 118
109 119 114 131 133 133 131 130 133 122 127 63 8 11 8 8
8 9 10 6 9 7 5 9 8 8 6 6 8 6 0 2
4 6 4 3 3 4 7 6 4 3 3 7 6 2 3 1
1 1 0 1 1 0 0 0 0 3 19 0 0 0 0 0
