P2
128 120
145
34 32 32 31 30 29 29 28 27 26 26 25 25 24 24 23
22 22 21 21 20 20 19 18 19 18 17 16 16 16 15 15
14 14 14 4 0 0 0 0 0 0 0 0 0 0 0 2
6 3 0 0 0 0 0 0 0 0 0 0 0 0 0 0
0 0 0 0 0 0 0 0 0 0 0 0 0 0 0 0
0 0 3 7 10 12 13 13 13 13 14 14 15 15 15 16
17 17 18 19 19 19 21 21 20 22 23 23 24 24 25 24
25 26 27 27 28 29 28 29 30 29 30 30 31 31 31 31
33 32 31 30 31 29 29 29 28 27 26 26 25 24 24 23
23 22 21 21 20 19 19 19 19 18 17 16 16 15 14 14
14 14 13 11 2 0 0 0 0 0 0 0 2 2 0 8
11 10 7 4 1 0 0 0 0 0 0 0 0 0 0 0
0 0 0 0 0 0 0 0 0 0 0 0 0 0 2 5
9 12 12 13 13 14 14 14 15 15 16 16 16 17 17 18
19 18 19 20 21 22 22 23 24 25 25 25 24 25 26 27
28 28 28 29 29 30 30 30 31 31 31 32 31 31 32 32
33 32 32 30 30 29 29 28 28 27 26 26 25 25 24 24
23 23 22 21 21 20 20 19 19 18 18 17 17 17 16 15
14 15 13 13 9 4 1 0 0 0 2 6 8 6 0 9
13 11 10 8 8 5 1 0 0 0 0 0 0 0 0 0
0 0 0 0 0 0 0 0 0 0 0 3 6 10 13 13
13 13 14 14 15 15 16 16 17 17 18 18 18 19 20 20
21 21 22 23 24 24 24 24 24 25 25 26 27 28 28 28
29 29 30 30 31 31 31 32 32 31 31 32 32 32 32 33
33 33 32 31 30 30 29 29 27 27 26 26 25 24 24 24
23 22 22 22 21 21 20 20 19 19 18 17 17 17 16 16
16 15 14 13 11 7 6 5 3 5 9 10 12 8 0 9
13 11 10 9 9 8 7 4 1 0 0 0 0 0 0 0
0 0 0 0 0 0 0 2 5 9 11 12 13 12 13 14
14 15 15 15 16 17 17 18 19 19 19 20 20 21 21 22
22 23 24 24 24 24 25 26 27 27 28 28 29 29 29 30
30 30 30 31 31 31 31 31 32 31 32 32 32 32 33 32
33 32 32 31 31 30 29 28 28 27 27 27 26 26 25 25
24 24 23 22 22 21 21 20 19 19 18 18 18 17 16 16
16 16 15 14 12 10 7 5 7 10 12 13 13 10 3 10
16 15 13 12 10 10 8 7 5 3 2 0 0 0 0 1
0 0 0 1 4 8 11 13 13 13 14 14 15 16 16 16
17 17 18 18 18 18 19 19 20 20 21 21 22 23 23 23
24 24 25 25 27 27 27 28 29 29 29 29 30 29 30 30
31 31 31 32 32 32 31 32 32 32 32 32 31 32 32 32
32 32 32 31 31 30 29 29 29 28 27 27 26 26 25 24
24 24 23 22 22 21 21 21 20 20 19 18 17 17 16 16
16 16 15 14 13 11 9 7 8 12 13 14 15 12 6 11
19 18 15 15 13 11 10 9 7 6 4 3 4 7 9 9
1 3 8 11 13 13 14 14 15 15 15 16 17 17 18 17
18 18 18 19 20 20 20 21 21 22 22 23 23 23 23 25
25 25 26 27 28 28 28 29 29 30 30 30 31 31 31 31
31 31 31 32 31 32 32 32 31 32 32 32 32 32 32 32
33 32 31 31 30 30 29 28 28 28 28 27 26 26 26 25
25 24 23 23 22 22 21 20 20 19 19 19 18 18 17 17
16 16 16 15 14 12 10 9 8 11 13 15 17 14 10 13
20 18 16 15 15 14 13 10 8 7 6 6 9 12 11 11
10 12 14 14 15 16 16 16 17 17 17 17 18 18 18 18
19 21 20 20 21 22 22 22 22 22 22 23 24 25 26 26
27 27 27 28 29 29 30 29 29 30 30 30 31 30 31 31
31 31 31 32 31 32 32 32 32 32 32 32 32 31 32 32
32 32 31 31 30 30 30 29 29 28 27 27 27 26 26 24
24 24 23 22 22 22 22 21 21 21 20 19 19 18 18 18
17 16 16 15 15 13 12 11 11 13 16 17 18 16 9 13
21 19 17 16 15 14 13 13 10 11 8 6 10 12 12 10
13 14 15 15 17 17 17 18 18 18 19 19 19 19 20 20
20 20 20 21 21 21 21 21 23 24 24 25 26 26 27 27
28 28 28 29 29 29 30 29 30 31 30 30 31 31 31 31
31 31 31 31 32 32 31 31 31 32 32 32 32 32 33 33
33 32 33 32 31 30 30 29 29 28 28 28 26 26 25 25
25 24 24 23 22 22 22 21 20 20 20 19 19 18 18 18
17 16 17 16 16 14 13 12 11 15 18 19 20 17 9 12
23 20 18 17 16 15 14 12 11 13 11 7 8 12 11 13
13 15 17 17 18 19 18 19 19 20 20 20 20 20 21 21
21 21 21 21 22 23 23 23 25 25 25 26 26 27 27 27
28 28 28 29 30 29 30 30 30 31 30 31 31 31 31 31
31 31 31 32 31 31 32 32 32 31 32 32 32 31 30 30
33 32 32 32 30 31 30 30 29 29 29 28 27 26 26 25
25 24 23 23 23 22 22 22 21 21 21 20 19 19 18 18
17 17 16 16 15 14 13 13 13 17 20 20 21 18 11 12
23 20 19 18 17 16 15 14 13 14 13 9 8 14 11 14
16 17 18 18 19 19 20 19 20 21 21 20 21 21 21 22
22 21 22 23 24 24 24 25 25 27 26 27 27 28 28 28
28 29 29 29 29 30 30 30 31 32 30 31 32 31 31 31
32 31 32 32 32 32 32 31 30 30 30 31 31 32 32 32
33 33 32 32 31 30 30 29 29 29 29 28 28 27 26 26
25 25 24 23 23 23 23 22 21 21 21 20 21 20 19 18
18 18 18 17 17 16 15 15 15 18 21 22 22 19 12 11
24 20 19 19 18 17 16 15 14 15 14 11 8 13 13 15
18 19 19 20 20 20 20 21 20 21 20 21 21 21 22 22
23 23 23 24 25 25 25 25 26 28 26 27 27 28 28 29
29 29 29 29 30 30 30 31 31 32 31 31 31 31 32 32
31 31 32 31 31 30 31 31 32 32 32 32 32 33 32 32
33 33 32 32 31 31 31 30 29 29 28 28 27 27 26 25
25 25 24 24 23 23 22 22 22 21 22 21 20 20 19 19
18 18 17 17 17 16 16 16 17 19 22 22 23 19 13 11
23 21 19 19 18 17 17 15 15 15 15 13 9 14 15 17
18 19 19 20 21 21 21 21 21 22 22 22 23 22 22 23
23 23 24 24 25 25 26 26 26 28 27 27 29 28 29 29
28 29 29 30 30 30 30 30 30 32 31 32 31 32 31 31
30 30 31 32 32 32 32 32 32 32 32 33 32 32 32 33
33 33 33 32 31 31 30 29 29 29 28 28 27 27 26 26
25 25 25 24 24 24 23 22 22 21 21 20 20 20 19 19
19 18 18 18 18 17 17 18 18 20 22 23 24 20 14 11
24 22 20 20 19 18 18 16 16 15 15 14 10 14 16 18
20 20 21 20 21 21 22 22 22 22 23 22 23 23 24 23
24 24 24 24 25 26 26 26 26 27 27 28 28 28 29 29
29 29 29 30 31 30 31 31 31 32 31 30 29 29 31 31
32 32 31 32 32 32 33 32 32 32 32 32 32 32 32 32
33 33 33 32 31 30 31 30 29 29 28 28 27 27 27 26
26 25 25 24 24 23 24 23 22 22 22 21 21 20 19 19
19 19 18 18 18 18 17 17 18 21 23 24 26 21 15 11
24 23 20 20 19 19 19 18 18 17 17 15 12 16 16 19
20 20 20 21 21 22 22 22 23 23 23 23 24 24 25 25
25 25 25 25 26 26 26 26 26 28 28 28 28 29 29 30
29 29 30 30 30 31 29 29 29 30 31 32 32 32 32 32
31 32 32 32 32 32 32 32 31 31 32 32 32 33 32 32
33 32 32 31 31 31 30 29 29 29 28 27 27 27 27 26
26 26 25 25 24 24 23 23 22 21 22 21 20 20 20 20
19 19 18 19 19 18 18 18 19 22 24 23 24 22 16 12
22 22 20 20 21 22 22 18 17 17 17 15 13 15 17 19
20 21 21 22 22 23 23 22 23 23 23 23 24 24 24 24
24 25 25 26 26 26 27 27 28 28 28 28 29 29 29 29
28 27 29 29 29 29 31 32 32 31 30 31 31 31 31 31
31 31 31 31 32 32 32 32 32 33 32 32 32 32 32 31
34 33 32 32 31 30 30 30 30 29 29 28 28 27 28 27
26 26 25 25 25 24 24 23 23 22 22 22 21 21 21 20
20 19 19 19 18 18 18 19 20 23 25 25 25 23 17 13
21 23 20 19 21 19 19 18 16 15 15 15 15 17 19 21
22 22 22 22 22 23 23 23 24 24 24 24 24 25 25 25
25 25 25 26 26 26 27 27 27 28 28 28 29 28 29 28
30 30 30 31 31 31 31 31 31 31 31 31 31 32 32 32
32 32 32 32 32 32 32 32 33 32 32 32 31 32 32 32
33 33 32 32 32 31 31 30 29 29 29 28 28 28 27 27
26 26 26 25 24 24 24 23 23 22 22 21 22 21 21 20
20 21 20 19 19 19 19 19 20 23 25 25 25 22 18 12
22 23 19 20 22 24 20 20 19 19 19 18 13 15 20 22
22 22 23 22 23 23 24 24 23 25 25 25 25 25 25 25
26 25 26 26 27 27 28 27 28 28 27 27 27 27 29 30
30 31 30 30 31 31 31 31 31 31 31 31 31 32 32 31
32 32 32 32 32 32 32 32 33 32 32 33 33 32 31 31
33 32 32 32 31 30 30 30 30 29 29 29 28 28 28 27
26 26 26 25 25 24 23 24 23 23 23 22 22 22 21 21
21 20 20 20 19 19 19 19 21 23 25 25 24 23 19 11
16 22 21 24 22 20 19 18 19 17 17 17 15 18 18 21
22 22 23 23 23 23 24 24 24 25 25 25 25 25 25 26
26 27 27 27 27 26 26 26 26 27 28 28 30 29 30 31
30 32 31 31 31 31 31 31 31 31 31 31 31 32 31 31
31 32 32 32 32 32 33 32 32 32 32 31 31 32 31 31
33 32 32 32 31 31 30 30 30 30 29 29 28 27 28 27
27 25 26 25 24 25 24 23 24 23 23 22 22 21 21 21
21 20 20 19 20 19 19 19 21 23 25 25 25 21 15 12
18 23 22 22 20 20 17 14 14 13 15 14 13 15 14 15
22 23 23 23 24 24 24 24 24 25 26 25 25 25 26 26
26 26 25 25 25 26 27 28 28 28 28 29 30 30 30 30
30 31 31 30 31 30 30 31 31 31 31 31 31 31 32 31
31 31 32 31 31 31 32 32 32 32 32 32 32 31 32 32
33 32 32 31 31 31 31 30 30 29 29 29 28 28 28 27
27 26 25 25 25 25 24 24 24 23 23 23 23 22 22 22
21 21 21 20 20 20 19 20 21 23 26 27 25 22 16 17
18 21 21 19 15 8 6 2 4 5 10 11 16 17 12 9
11 15 24 24 24 25 25 25 25 25 25 25 26 26 26 26
26 26 27 27 27 28 28 28 28 28 29 29 30 30 30 30
31 32 32 31 31 31 31 31 31 31 31 31 31 31 32 32
32 32 32 32 32 32 32 32 32 32 31 32 32 31 31 30
33 32 32 32 31 31 31 31 30 30 30 28 28 28 27 27
27 26 26 25 25 25 25 24 24 24 23 23 23 22 22 22
21 21 21 20 19 20 20 20 22 25 26 24 22 21 17 16
14 17 17 12 8 3 1 0 2 2 4 9 16 19 19 16
17 15 11 19 24 25 25 26 25 25 25 25 25 26 26 27
27 27 28 27 27 27 28 28 29 29 30 30 31 30 30 30
31 31 31 31 31 31 31 32 31 31 32 32 32 31 32 32
33 32 32 32 32 33 33 32 32 31 31 31 31 32 33 32
33 33 33 32 32 31 31 31 31 30 30 29 29 29 29 28
27 27 27 26 26 25 25 25 25 24 24 24 24 23 22 22
22 22 22 21 21 21 20 20 23 25 24 23 19 18 17 14
12 11 4 4 4 9 18 8 7 2 0 5 11 14 13 14
14 12 10 7 17 26 25 26 25 25 26 26 26 27 27 27
27 28 29 28 29 29 29 29 30 30 31 30 30 31 32 31
31 32 32 32 32 32 32 32 32 32 32 31 32 32 32 33
33 33 32 33 33 32 32 32 33 33 33 33 33 32 31 32
33 33 33 33 32 32 32 31 31 31 30 30 29 29 29 28
28 27 27 27 27 26 27 26 26 25 26 25 25 24 23 23
23 22 22 22 22 21 22 24 23 24 24 19 18 12 7 9
3 1 0 0 0 2 5 18 22 25 15 7 7 19 20 22
16 8 9 12 9 12 22 25 27 27 27 27 27 27 28 28
28 29 29 29 29 29 30 30 30 30 30 31 32 32 32 32
33 33 33 32 32 33 32 33 33 33 33 33 33 33 33 33
32 32 32 32 33 33 33 33 33 32 34 33 33 33 33 33
34 34 34 33 33 33 32 32 32 32 31 31 31 30 30 29
29 29 28 28 28 27 27 27 26 26 26 25 25 25 25 24
24 24 24 24 23 23 24 27 22 20 20 20 19 13 5 1
0 0 0 0 0 0 3 10 15 20 19 15 12 12 23 21
29 21 11 10 15 18 12 23 27 29 28 28 28 29 29 29
30 30 30 30 31 31 31 31 31 31 31 32 32 32 32 33
33 34 34 34 34 34 35 35 34 33 34 33 33 33 33 34
34 34 33 34 34 34 34 34 34 34 34 34 33 33 33 33
34 34 34 33 33 33 33 32 32 32 31 31 31 30 30 30
29 29 29 28 28 28 28 27 27 26 26 26 26 26 25 24
24 23 23 23 22 21 23 23 21 21 19 20 18 9 2 0
0 0 0 0 0 0 0 12 13 12 18 19 16 19 15 12
16 17 19 14 13 19 16 17 23 26 29 29 28 29 30 30
29 30 31 31 31 30 30 31 31 32 32 32 32 33 33 33
33 34 34 34 34 34 33 34 33 33 33 33 34 34 34 34
34 33 34 33 33 33 33 33 33 33 34 34 34 33 33 32
35 34 33 33 33 33 32 32 31 31 31 31 31 30 31 30
30 30 30 29 29 28 28 27 27 27 26 26 26 26 25 24
25 24 24 24 23 25 25 22 21 20 19 17 12 3 2 0
0 0 0 0 0 1 2 4 11 18 13 17 14 15 16 13
12 11 8 14 15 15 22 22 21 21 26 29 29 29 30 30
30 30 31 31 31 31 31 32 31 32 32 32 33 33 33 33
33 32 33 33 33 33 34 34 34 35 33 33 34 33 33 34
33 34 33 34 34 34 34 33 34 34 34 33 33 32 33 32
34 33 33 33 33 32 32 32 32 32 31 31 31 31 31 30
30 29 29 29 29 28 28 28 28 27 27 26 26 26 25 25
25 25 24 24 22 24 24 25 19 20 20 19 10 4 2 2
3 9 12 14 17 19 20 19 20 20 25 13 14 10 10 15
17 11 8 3 8 13 15 25 24 23 16 25 30 29 30 30
30 30 30 30 31 31 30 31 31 32 33 33 33 32 32 33
33 33 33 34 34 34 34 33 34 35 35 34 34 33 34 33
34 33 34 34 33 33 33 33 33 33 34 33 34 34 34 33
34 33 33 33 33 32 32 32 32 32 32 31 31 30 30 30
30 30 30 29 28 28 27 27 27 26 26 26 26 26 25 25
25 25 24 23 24 23 24 19 18 21 20 11 7 7 6 10
21 42 50 52 53 57 59 61 55 45 31 25 13 11 9 10
12 16 12 6 7 11 15 18 30 27 18 19 27 29 30 30
30 31 31 31 31 31 32 31 31 31 31 32 32 32 33 33
33 33 34 33 33 34 34 34 34 34 34 32 33 33 33 33
33 33 33 33 34 33 33 32 33 33 34 32 33 33 32 32
34 33 33 32 33 32 32 33 32 31 31 31 32 31 31 30
30 30 29 29 28 28 28 28 27 27 27 26 27 26 26 25
25 24 24 23 21 23 21 19 19 22 15 8 3 4 14 30
54 72 89 92 91 88 83 77 72 68 55 35 20 13 7 7
13 12 14 10 10 13 16 17 16 25 23 16 20 30 30 30
31 30 31 30 30 30 30 31 32 32 32 33 34 34 34 34
34 34 34 34 34 34 33 33 34 33 34 33 33 32 33 33
33 33 33 33 33 33 33 32 32 32 33 32 33 33 33 33
34 33 33 33 33 32 32 32 32 31 31 31 31 30 31 30
30 29 30 28 28 28 28 28 28 27 26 26 26 26 25 25
25 25 24 23 21 24 21 18 23 20 12 1 0 5 35 70
84 97 107 110 108 100 94 88 87 81 71 51 27 17 18 11
11 19 13 10 13 15 23 23 21 13 13 18 13 28 30 29
29 30 29 29 31 31 31 31 32 32 33 33 33 34 34 34
33 33 33 34 33 34 34 33 34 33 35 32 33 33 32 32
32 32 32 33 32 32 33 33 32 32 32 32 32 32 32 32
33 32 33 32 32 32 32 32 31 32 31 31 31 31 31 30
30 29 29 28 28 28 28 28 28 27 27 27 26 26 26 26
25 24 24 22 22 22 24 20 29 21 7 0 4 36 77 89
100 109 116 117 117 114 108 100 97 101 89 75 57 29 20 26
17 16 26 25 18 16 23 24 32 12 7 7 8 18 29 30
30 30 30 29 30 30 31 31 31 32 33 32 33 33 33 33
34 34 33 33 33 33 33 33 33 33 34 32 32 33 32 33
33 33 33 32 32 32 32 32 32 32 32 33 33 33 31 31
33 33 33 33 33 33 33 32 32 32 31 31 31 31 30 30
30 29 29 29 29 28 28 28 28 27 26 26 26 26 26 25
25 24 25 23 20 20 23 33 32 21 0 0 25 72 90 99
107 117 122 122 122 123 122 122 118 105 104 99 85 62 37 30
25 20 30 34 33 23 18 15 16 20 5 1 0 4 26 29
30 30 30 30 31 31 32 32 32 33 34 32 33 32 33 33
33 32 32 32 32 33 33 33 32 33 34 33 33 33 33 32
32 32 32 32 32 32 33 32 32 32 31 30 28 28 29 29
33 33 33 32 33 33 32 32 32 31 32 31 31 31 31 31
30 30 30 29 29 28 28 28 28 28 28 27 27 26 26 26
26 25 24 21 19 20 26 36 33 13 0 8 56 88 97 105
113 120 127 130 130 128 124 124 128 129 123 109 103 95 74 48
30 22 13 30 25 30 33 26 4 9 11 3 2 0 11 30
30 31 31 31 31 31 32 32 32 32 33 32 33 33 33 33
33 33 33 33 33 32 33 33 33 32 33 32 33 33 33 32
33 32 33 32 31 31 31 30 31 31 32 32 31 32 31 31
34 33 34 33 32 33 32 32 32 31 31 31 31 30 31 30
30 30 29 29 29 28 29 29 28 28 27 27 27 26 26 26
26 26 25 21 23 23 29 33 36 8 0 28 75 94 100 108
117 124 131 134 133 132 132 132 133 132 133 129 120 108 98 84
57 33 12 3 8 10 17 34 16 0 1 9 0 0 0 23
30 30 30 31 31 31 31 32 33 33 34 33 33 33 33 33
33 33 32 32 33 32 33 33 33 33 34 33 33 33 32 31
32 30 31 31 31 32 33 32 32 31 31 31 32 31 30 30
34 33 33 33 32 33 32 32 32 32 32 31 31 32 32 31
31 31 30 30 29 29 29 29 28 28 28 28 28 27 27 27
26 26 24 21 19 23 34 37 36 2 6 50 88 96 104 111
120 130 134 133 133 133 133 133 133 133 133 133 132 132 125 116
104 79 37 16 4 0 1 8 20 4 0 1 1 1 0 11
31 31 31 31 32 31 32 32 32 32 33 32 32 33 33 33
33 33 33 33 33 34 34 34 34 33 32 30 30 31 31 32
31 32 33 33 31 31 31 31 31 31 31 31 30 30 31 30
33 33 33 33 33 33 33 32 33 32 32 32 31 31 31 31
30 30 30 30 30 29 29 29 29 28 28 27 27 27 26 26
26 26 24 22 14 25 35 36 24 0 16 64 92 102 106 116
124 133 134 134 134 134 133 134 133 133 133 133 133 133 133 132
128 121 83 41 23 4 0 0 6 9 0 0 0 2 1 1
29 31 31 31 32 32 32 32 32 32 34 33 33 33 33 34
33 33 33 33 32 31 31 31 31 32 32 32 32 32 32 31
31 32 32 32 31 31 30 31 31 31 30 31 31 31 30 29
19 30 33 33 33 33 32 32 32 32 33 32 31 31 32 31
31 31 31 30 30 29 29 28 29 29 28 28 27 28 27 27
26 26 25 21 14 25 39 35 17 0 28 74 98 105 110 120
126 134 134 134 134 133 134 134 134 133 133 133 133 133 133 133
132 130 116 75 38 14 1 0 0 3 0 0 0 0 2 0
22 32 32 31 32 33 33 33 33 32 33 33 33 33 33 33
33 32 32 31 31 32 33 33 33 32 32 32 31 31 31 31
32 32 32 33 31 32 32 32 33 32 31 31 30 31 30 29
13 29 34 33 33 33 33 32 32 32 32 32 32 31 31 31
31 30 30 30 30 30 29 29 29 29 29 28 28 27 27 27
27 26 25 12 15 28 34 29 13 2 42 83 100 109 114 120
128 133 133 134 134 134 134 133 134 134 134 134 133 133 133 133
133 131 130 111 72 34 12 0 0 0 0 0 0 0 0 0
14 31 31 31 32 33 32 32 33 32 33 32 32 32 33 33
33 32 34 33 33 32 33 33 32 33 32 32 32 32 32 31
32 31 32 32 31 30 31 31 32 31 31 31 31 30 30 30
13 29 34 33 33 33 33 31 31 33 33 33 32 32 32 31
32 31 30 30 30 29 29 29 30 35 33 30 29 28 28 28
28 28 26 10 15 25 34 27 9 7 52 87 103 111 118 123
127 133 135 134 135 134 134 133 133 134 134 134 133 133 133 133
133 132 132 128 112 77 32 3 0 0 0 1 0 0 0 0
6 30 32 32 33 31 31 32 32 31 31 32 32 32 32 32
32 32 34 33 33 32 32 33 32 32 32 31 31 32 31 32
32 32 32 33 32 32 32 31 31 30 31 30 29 30 29 29
12 28 33 33 33 33 33 37 41 38 37 34 33 32 31 31
31 30 31 30 30 30 30 29 36 43 41 37 35 34 29 27
26 27 23 8 13 18 30 20 5 12 59 88 103 114 120 120
125 133 134 134 134 133 135 134 134 133 134 134 133 133 132 132
132 132 130 129 123 117 89 23 0 0 0 0 0 0 0 0
0 24 32 31 31 31 31 32 31 31 32 33 32 32 32 33
32 31 32 32 32 33 32 32 32 32 33 32 31 31 32 32
32 31 31 32 30 31 31 31 30 31 31 30 31 30 30 29
15 30 34 33 33 33 32 39 44 42 41 38 37 36 36 33
33 31 31 30 29 30 30 29 35 41 39 37 37 37 34 28
28 27 22 6 12 12 25 13 7 15 61 88 101 113 120 120
124 129 134 134 134 134 134 134 134 133 133 134 132 133 132 133
133 132 131 125 124 121 117 80 10 0 0 0 0 0 0 0
0 16 32 32 31 32 31 32 32 32 32 32 32 32 32 32
32 31 32 33 33 32 32 31 32 31 31 31 31 31 31 31
32 31 31 32 31 31 32 31 31 32 31 30 30 30 30 29
15 33 35 35 34 33 33 39 45 43 39 39 40 41 42 36
38 36 33 30 29 30 30 30 33 33 34 34 37 37 36 29
27 27 16 8 6 17 24 12 3 21 64 86 101 113 118 118
123 128 132 134 134 134 134 134 133 133 133 133 133 132 133 132
133 132 132 129 122 122 116 103 38 1 0 0 0 0 0 0
0 4 29 32 31 31 31 32 32 32 32 32 31 32 32 31
32 32 32 32 32 32 32 32 31 31 32 31 31 31 31 32
32 31 31 30 31 31 31 31 30 30 30 30 31 30 30 29
16 35 38 35 36 36 36 38 26 31 37 40 44 45 43 31
27 34 36 37 35 35 34 31 31 18 13 14 18 23 29 30
27 27 16 4 3 13 17 7 7 25 67 84 98 111 117 120
124 130 135 135 134 135 134 134 133 133 133 133 133 132 133 133
133 133 133 132 129 125 116 106 68 14 0 0 0 0 0 0
0 1 26 33 31 32 32 31 32 32 32 31 32 31 31 31
31 31 32 32 32 32 32 31 32 31 32 32 31 31 31 32
32 31 32 32 32 31 31 32 31 30 31 30 30 29 28 28
14 34 38 30 30 36 40 40 3 0 9 23 28 31 37 18
0 2 7 15 21 29 35 35 32 17 5 8 8 1 9 30
27 26 13 1 2 9 10 5 5 30 72 84 97 109 115 121
127 133 134 135 134 135 134 133 134 134 134 133 133 133 133 133
133 133 132 133 131 125 118 102 82 41 2 0 0 0 0 0
0 0 25 33 31 32 31 31 31 31 32 32 32 32 32 31
30 31 31 32 32 31 31 30 31 31 31 32 32 32 32 31
32 32 32 32 31 31 31 30 30 30 29 29 29 29 30 30
15 27 35 37 37 37 43 43 4 0 1 8 11 11 27 18
0 0 0 0 0 1 4 14 33 15 0 2 3 1 7 32
27 26 13 1 0 7 9 5 5 33 70 84 96 107 116 123
130 134 135 135 135 135 135 134 135 134 134 134 133 134 133 134
133 134 133 134 133 127 120 103 86 65 14 0 0 0 0 0
0 0 26 33 32 32 32 32 32 32 32 32 32 31 31 32
31 31 32 32 32 32 31 31 31 32 32 31 32 31 31 31
32 31 32 30 29 29 30 30 30 30 31 31 31 30 29 29
12 1 3 10 19 30 38 41 6 0 0 3 5 6 25 20
0 0 0 0 0 0 0 5 33 11 0 0 1 0 8 33
28 26 11 3 0 5 5 6 4 36 73 84 95 105 115 125
134 134 134 129 129 134 134 134 134 135 135 135 134 134 135 134
133 128 130 131 132 129 119 105 89 76 36 4 0 0 0 0
0 0 25 32 31 32 31 31 31 31 32 32 32 32 32 32
32 32 32 32 32 32 31 32 32 32 32 32 32 32 33 32
32 31 32 31 31 31 31 30 30 30 31 30 32 30 30 30
11 0 0 0 0 0 2 16 7 0 0 0 0 2 20 19
0 0 0 0 0 0 0 4 32 5 0 0 0 0 8 34
28 27 9 2 1 4 6 6 3 39 77 83 92 105 115 123
119 106 88 86 88 116 134 135 134 136 135 134 134 132 121 106
95 79 79 83 103 99 97 102 91 82 67 18 0 0 0 0
0 0 23 33 32 32 32 32 32 32 32 32 32 32 32 32
32 32 33 32 33 33 33 33 33 32 33 32 33 33 33 33
32 32 32 31 32 32 31 31 30 30 31 31 32 30 30 30
11 0 0 0 0 0 0 7 6 0 0 0 0 0 24 19
0 0 0 4 6 0 0 3 32 5 0 0 0 0 8 35
29 27 8 1 1 2 6 6 4 42 76 82 91 97 89 82
64 54 44 55 72 95 116 129 135 135 134 135 133 122 100 79
54 49 39 40 43 50 57 63 74 86 83 37 1 0 0 0
0 2 27 33 31 33 32 32 32 32 33 33 33 33 33 33
33 33 32 33 34 34 33 33 33 33 32 32 33 33 33 32
33 32 33 32 32 33 32 32 32 32 31 32 33 31 31 32
11 0 0 0 0 0 0 6 5 0 0 0 0 0 25 22
0 0 0 6 13 7 2 2 32 3 0 0 0 0 6 35
29 27 11 4 4 5 3 3 4 41 77 80 81 59 51 48
35 23 22 31 58 86 101 117 127 134 135 135 129 112 88 61
34 29 38 60 74 73 58 49 57 86 89 57 7 1 0 0
0 3 28 33 33 33 33 33 33 33 34 33 33 33 33 33
32 33 33 34 33 34 33 32 32 31 32 33 33 33 33 33
33 32 32 32 33 32 33 33 33 34 32 31 32 30 29 28
11 0 0 0 6 1 0 5 4 0 0 0 0 0 23 24
0 0 0 8 12 12 9 2 31 4 0 0 0 0 3 35
29 28 19 1 0 2 3 4 3 51 77 78 54 44 46 52
64 72 64 62 70 82 93 105 120 134 136 135 128 108 93 85
86 101 119 125 127 118 105 90 65 86 90 69 11 5 0 0
0 6 32 33 33 31 32 32 33 33 33 33 33 33 33 33
33 33 33 34 33 33 33 33 32 31 31 32 34 33 33 33
34 33 34 33 33 32 32 32 33 31 30 29 29 28 27 24
11 0 4 2 3 0 0 4 5 0 0 0 0 2 23 25
0 0 0 6 12 11 9 1 30 8 0 0 0 0 3 35
28 28 24 3 0 1 1 2 4 59 80 75 52 69 94 111
123 125 119 109 101 94 88 101 118 131 135 135 126 103 93 100
103 107 115 120 122 116 104 97 88 89 90 75 21 2 2 0
0 2 29 31 32 31 32 32 32 33 33 34 32 32 32 32
32 32 32 32 32 32 32 32 32 32 31 33 34 33 33 33
33 32 30 29 29 29 30 29 27 24 21 17 14 11 9 8
10 1 4 0 0 0 0 5 5 0 0 0 0 7 27 31
1 0 0 0 3 9 8 0 31 34 25 18 13 9 13 36
28 29 27 6 0 0 0 0 10 68 86 81 78 86 98 108
114 113 106 91 81 92 80 90 113 127 134 134 121 98 87 84
81 75 68 80 96 96 93 91 93 95 92 77 32 0 1 0
0 3 29 32 32 32 32 33 33 33 33 33 32 33 33 33
33 33 32 32 33 32 33 32 32 30 32 33 32 30 31 30
31 29 25 23 20 17 14 11 9 9 8 9 9 10 10 11
11 1 0 0 0 0 0 7 23 12 7 6 1 0 22 44
30 25 21 14 7 4 4 1 31 41 39 38 38 41 43 41
29 28 28 8 0 0 0 2 20 72 87 88 85 81 86 83
77 53 36 48 66 67 73 84 105 118 134 130 116 98 84 78
80 57 31 27 28 54 69 84 95 98 94 81 46 0 0 0
0 8 32 32 32 33 33 33 33 33 33 34 33 33 33 32
32 32 32 31 31 30 32 31 31 30 30 28 25 22 18 15
12 11 10 10 9 9 10 11 12 13 14 14 15 16 15 16
12 0 0 0 0 0 0 9 47 43 35 36 34 27 36 45
19 21 24 26 26 27 27 29 41 38 38 38 40 45 48 43
30 29 29 12 0 0 0 3 31 73 89 91 86 78 61 40
22 28 22 62 110 67 85 88 101 116 130 129 116 103 106 69
114 89 29 27 47 49 37 81 97 99 94 83 57 6 1 0
0 11 33 32 32 32 33 33 33 33 33 33 32 32 32 31
30 32 31 30 29 27 24 22 18 16 14 12 11 11 12 12
14 15 15 15 14 9 17 17 18 19 19 19 20 20 10 20
11 1 0 0 0 0 0 10 50 40 42 46 49 47 42 36
12 12 13 12 13 12 14 17 21 18 22 27 32 34 33 34
28 29 29 15 0 0 1 11 48 76 91 92 89 77 34 28
64 40 48 88 113 84 89 92 104 112 131 130 117 104 103 85
101 109 75 76 94 87 62 80 101 101 97 84 64 27 18 4
1 16 33 32 32 32 33 33 33 33 33 33 31 30 33 27
22 20 17 16 14 13 13 13 14 14 16 16 17 18 18 19
20 20 20 21 20 5 20 22 23 23 20 20 24 14 20 25
15 25 24 16 9 4 1 11 41 34 43 46 49 49 39 31
15 13 13 11 9 9 8 7 6 7 8 9 23 28 26 25
27 29 28 20 3 8 21 35 55 77 92 96 92 74 54 76
96 107 104 111 106 89 87 96 105 109 130 130 118 106 103 81
83 107 113 121 122 108 93 99 106 106 97 86 69 48 35 14
7 17 33 33 33 33 31 30 27 24 22 19 17 17 29 23
10 13 15 15 16 17 18 19 20 20 20 21 22 23 23 23
24 18 19 24 26 14 16 26 26 26 15 23 23 15 27 26
16 36 46 45 42 39 35 36 35 29 40 43 47 47 41 34
18 14 11 9 8 8 8 8 8 9 9 10 25 15 18 28
28 29 28 25 39 33 50 59 67 80 93 100 98 91 89 98
112 115 108 106 101 87 92 99 102 106 128 135 124 105 106 97
79 96 106 110 114 114 110 108 111 109 98 89 78 66 58 33
26 17 27 25 22 19 18 17 15 15 15 17 17 16 23 19
13 18 20 21 22 23 24 25 25 26 26 25 26 26 26 26
27 26 22 19 27 24 8 27 28 26 13 24 15 23 25 28
16 36 46 46 45 45 45 47 27 5 11 17 24 30 30 34
19 12 9 3 2 2 7 10 10 9 11 13 27 25 23 35
34 33 17 16 72 75 80 76 77 81 95 103 105 100 98 104
113 114 112 111 110 97 101 100 100 105 128 135 127 106 107 110
100 100 118 127 129 128 123 117 115 112 101 88 79 79 87 74
72 14 16 17 17 17 18 19 20 20 20 21 22 21 26 23
17 23 25 26 27 27 28 27 27 28 27 27 27 28 28 27
29 28 28 23 20 26 8 22 28 25 13 16 19 25 25 28
15 31 41 41 42 45 46 46 21 0 0 0 0 5 13 34
18 10 7 0 0 0 2 6 4 1 6 8 24 36 31 31
33 34 28 30 91 101 98 85 80 82 95 105 110 112 113 118
125 128 124 125 117 103 102 99 98 106 122 135 129 109 106 113
113 109 117 130 133 132 132 126 121 115 101 86 83 88 107 102
96 22 21 21 22 22 23 24 25 26 26 27 27 25 22 19
19 26 27 27 28 29 29 29 30 30 29 29 29 28 28 28
28 29 29 29 21 20 19 10 27 21 15 12 27 25 26 28
21 25 28 30 32 32 36 41 17 0 0 0 0 0 7 36
17 10 6 0 0 0 0 0 0 0 0 0 20 37 26 22
22 25 28 39 96 109 104 89 82 79 93 104 112 119 123 131
135 133 132 132 117 106 103 99 98 105 118 133 132 113 104 113
116 116 118 132 133 132 132 131 126 117 103 85 85 76 111 111
102 36 26 27 26 27 28 28 28 28 28 28 27 24 6 3
15 27 30 31 30 29 29 30 30 29 29 30 28 29 28 28
27 29 28 29 29 21 17 5 11 8 9 20 27 23 26 25
17 19 17 21 28 26 32 41 16 0 0 0 0 0 2 36
11 4 0 0 0 5 3 0 0 0 0 0 19 38 26 17
29 27 25 35 94 106 109 70 87 78 91 103 114 124 131 135
135 135 133 130 118 107 105 98 96 107 123 134 134 122 106 114
117 118 121 130 133 132 132 132 130 118 103 83 98 90 113 114
100 33 29 29 29 29 29 29 29 28 28 26 25 23 6 2
11 27 30 31 30 30 30 30 30 30 30 30 30 30 29 28
28 28 28 28 29 27 19 5 0 0 15 24 25 23 26 23
17 19 22 25 29 30 35 40 15 0 0 0 0 0 3 37
4 0 0 0 0 2 9 3 0 0 0 0 19 38 26 12
24 21 23 31 88 105 99 77 100 77 88 101 114 126 135 136
136 136 134 129 118 109 108 97 92 109 128 134 134 130 110 115
118 119 121 128 132 132 132 133 131 118 101 82 105 97 105 112
92 31 30 31 31 31 30 30 30 16 6 2 9 20 4 1
10 27 30 31 31 30 30 31 30 30 30 30 30 30 28 28
28 27 28 28 29 27 27 16 0 2 23 24 20 20 24 25
17 6 2 6 12 17 24 29 15 0 0 0 0 0 4 37
4 0 0 0 0 2 12 9 6 0 0 0 18 39 28 12
17 16 21 29 74 105 86 92 107 78 85 98 113 127 135 135
135 136 135 132 122 113 108 94 93 112 131 135 134 134 116 116
123 122 123 127 132 132 132 132 131 117 98 80 109 105 96 112
70 31 32 32 32 31 31 31 30 18 12 17 23 23 2 0
10 27 30 30 30 29 29 29 29 29 29 29 30 30 29 29
28 27 27 27 27 27 28 24 0 3 26 23 17 17 24 26
21 5 0 0 0 0 0 3 12 0 0 0 0 0 5 34
2 0 0 0 1 13 15 12 10 0 0 0 18 39 30 21
18 14 20 28 61 105 84 97 111 80 81 95 111 124 134 135
135 136 135 134 123 115 106 90 96 109 131 135 134 132 111 111
130 127 126 127 132 133 133 133 130 114 95 79 111 105 100 111
52 31 33 32 32 32 32 32 32 31 30 29 28 24 5 0
10 27 30 30 31 30 30 30 30 30 29 30 29 29 29 28
29 28 27 26 27 28 28 25 1 2 26 26 18 17 26 27
20 6 0 0 0 0 0 1 11 0 0 4 2 0 3 34
2 0 0 0 1 11 17 6 2 0 0 0 15 39 33 23
10 2 13 27 49 104 86 103 113 87 79 91 107 120 134 136
136 136 136 133 124 116 104 98 94 92 114 128 132 121 97 106
126 131 131 130 132 133 132 133 127 112 93 81 108 102 97 102
39 32 32 32 32 31 32 31 31 31 30 29 28 26 10 0
14 28 31 31 30 30 30 29 29 29 29 29 29 30 29 28
29 29 29 26 27 28 29 26 2 1 25 27 19 17 26 27
21 6 0 0 3 0 0 1 11 0 1 14 8 0 4 33
1 0 0 0 0 0 12 1 0 0 0 0 12 39 32 16
6 3 10 25 44 102 97 87 97 96 78 88 105 117 130 135
136 135 136 132 121 112 103 100 88 64 94 111 118 98 71 102
122 130 132 131 133 133 133 132 124 109 91 80 103 91 99 93
33 32 32 32 32 33 32 32 32 32 31 30 28 25 16 6
20 28 31 31 31 31 31 30 30 30 30 30 30 30 30 29
29 29 28 26 27 28 28 27 3 0 25 28 18 16 26 28
18 6 0 2 14 4 0 0 13 0 6 14 10 3 4 31
0 0 0 0 0 0 12 3 0 0 0 0 9 39 30 8
5 0 10 25 37 101 105 115 111 100 76 86 101 113 126 136
136 136 136 133 118 107 105 90 46 9 61 91 97 61 37 91
121 129 132 131 133 134 133 131 121 108 91 84 110 121 106 83
31 32 32 33 32 32 32 31 31 31 31 29 27 24 22 20
26 30 31 32 31 30 30 29 30 30 30 30 30 30 29 30
30 29 29 28 27 24 27 25 4 0 16 18 11 14 24 27
17 6 0 6 16 5 1 0 29 26 29 30 27 23 21 33
1 0 0 0 0 0 12 4 0 0 0 0 5 37 26 5
5 0 16 24 33 92 104 113 112 106 76 84 99 109 122 133
134 135 135 134 119 110 109 88 61 78 91 74 76 93 90 104
122 125 129 131 134 134 133 131 119 107 90 86 112 111 102 68
31 32 31 33 32 31 31 31 31 31 30 30 28 26 24 25
29 30 30 31 31 30 31 31 30 31 31 31 30 30 30 29
29 28 28 26 25 23 17 19 5 0 19 27 22 18 25 27
17 7 0 0 2 0 0 0 32 37 41 42 41 44 48 40
7 4 4 0 0 0 14 6 0 0 0 0 3 32 25 4
0 1 9 23 31 67 102 106 111 111 77 81 95 108 121 129
133 136 136 135 128 118 111 98 85 99 113 108 115 109 101 110
122 124 130 134 133 133 133 129 114 105 88 84 114 102 109 53
32 33 32 32 32 32 31 32 32 31 30 30 29 27 27 28
31 31 32 31 32 31 31 31 31 30 30 30 29 30 30 30
30 29 29 28 27 27 28 28 8 0 18 26 20 16 22 24
18 15 5 0 0 0 0 0 32 38 40 40 40 47 50 46
29 27 26 20 18 18 22 16 13 10 9 7 11 27 27 9
8 9 3 16 29 41 98 102 111 112 76 80 91 106 116 127
134 136 135 135 135 130 119 113 109 115 132 135 132 115 109 115
126 131 133 133 133 133 133 125 113 101 88 70 106 103 97 37
32 31 31 31 32 31 31 31 32 31 30 30 30 28 29 29
30 30 30 29 30 30 30 30 30 29 30 31 30 30 30 29
28 28 28 27 26 27 27 27 10 0 16 26 22 15 23 25
19 19 5 0 0 0 0 0 29 31 35 35 36 40 39 39
33 33 33 31 31 32 30 28 26 22 21 20 21 30 35 24
23 18 14 17 29 31 61 94 104 88 46 76 88 103 115 122
133 136 135 136 135 131 121 113 109 115 132 129 129 114 106 118
127 134 135 134 134 133 132 124 113 101 86 38 61 89 53 32
32 32 32 32 32 32 32 32 31 30 30 30 29 28 29 30
30 30 31 31 31 30 30 30 29 30 29 29 29 29 29 29
29 28 29 27 26 27 28 27 13 0 15 27 22 15 21 26
22 15 0 0 0 0 0 0 32 32 33 33 33 32 29 29
33 34 36 35 34 33 33 32 32 35 33 30 29 33 41 39
39 37 35 30 29 31 32 44 53 28 15 73 85 100 113 118
133 136 136 135 131 120 112 109 116 123 124 124 123 114 111 114
119 126 133 134 134 133 131 118 111 99 83 30 13 33 32 32
31 31 31 31 31 30 30 30 31 30 31 30 30 30 31 32
32 31 31 31 31 30 30 30 30 30 30 29 29 30 29 29
28 28 28 27 26 26 27 27 14 0 13 27 22 16 21 25
19 21 19 16 12 9 7 5 34 34 33 33 33 33 34 36
37 36 39 42 42 34 31 32 34 42 41 38 37 36 33 28
27 28 29 28 29 30 31 30 25 22 11 61 80 95 111 117
132 136 136 132 114 112 109 111 119 128 129 126 130 123 118 118
114 118 123 134 134 133 130 118 107 93 81 21 15 28 32 32
31 31 31 32 31 31 32 31 31 30 31 30 31 30 31 31
32 30 31 31 32 30 31 30 30 29 29 29 29 29 29 29
29 28 28 27 26 27 28 26 15 0 11 26 23 15 20 25
19 27 42 43 40 41 44 43 46 38 35 35 35 35 39 42
41 37 40 45 44 35 30 28 34 44 41 39 39 38 34 27
22 21 21 22 28 30 30 29 25 28 20 44 77 92 107 116
131 135 136 122 106 104 111 121 127 128 135 133 131 129 131 126
121 116 115 125 134 132 128 115 106 92 78 15 27 32 32 31
32 31 31 31 31 31 31 30 31 30 31 30 31 31 31 31
31 31 30 30 30 30 30 29 30 29 29 29 29 29 28 29
28 28 28 26 25 26 28 27 17 0 9 26 22 15 19 25
20 28 49 50 49 49 49 49 49 37 29 29 29 30 36 43
43 38 39 38 36 35 31 27 27 34 29 29 34 35 35 33
28 27 27 28 29 30 29 27 25 31 28 35 74 87 101 113
127 134 132 110 106 110 116 117 100 93 101 107 102 104 112 125
128 124 113 113 132 133 128 112 101 92 66 8 28 31 31 30
31 30 30 31 31 30 30 30 30 30 30 30 31 30 31 31
31 31 30 30 30 30 30 30 29 29 29 28 29 28 28 28
27 27 28 27 26 25 27 27 19 0 7 26 23 14 19 25
20 22 32 35 36 38 40 42 45 25 5 5 2 3 7 20
42 36 24 9 12 15 15 23 30 19 2 1 3 10 16 32
31 29 32 35 37 36 30 27 26 32 32 34 67 83 98 109
123 129 123 104 109 112 103 95 90 87 93 96 97 96 96 99
111 123 120 109 127 131 122 110 98 86 64 25 32 31 31 30
29 30 29 30 31 30 29 28 28 28 27 25 27 30 31 31
31 31 30 30 29 30 30 29 29 28 28 28 29 29 28 28
28 27 28 27 25 25 27 27 20 0 6 26 25 17 19 25
19 20 26 25 25 25 25 25 27 17 0 0 0 0 0 8
41 32 6 0 0 0 5 22 32 17 0 0 0 2 12 24
12 15 18 20 26 37 32 26 27 31 34 34 61 76 95 104
117 125 118 107 92 74 79 104 107 108 111 111 109 109 115 106
84 79 103 109 122 127 116 106 94 81 63 31 30 29 27 26
26 26 28 30 31 30 23 12 11 9 8 7 15 30 31 31
30 30 31 30 30 29 29 29 29 28 29 28 29 29 29 28
28 28 28 28 26 26 27 27 22 0 5 26 25 16 17 24
19 22 32 33 33 32 32 30 31 18 2 0 0 0 1 18
40 21 0 0 0 0 0 24 32 20 0 0 0 1 11 21
0 1 3 0 5 35 32 26 27 32 34 34 57 69 89 100
108 117 116 98 75 73 71 89 117 112 110 113 108 115 115 92
90 90 87 105 123 122 108 103 89 71 65 16 13 12 8 6
5 7 21 30 30 30 20 4 5 4 5 4 13 31 32 32
31 31 31 30 30 29 29 29 29 28 28 28 28 30 28 29
28 28 29 28 26 27 27 26 23 0 3 25 23 15 17 25
20 23 34 36 35 35 36 35 36 19 1 0 0 0 0 10
38 14 0 0 0 0 0 22 32 20 0 0 0 0 8 22
0 6 9 0 3 35 33 25 29 32 34 35 54 62 80 95
102 108 112 92 80 81 84 87 88 89 92 92 92 94 95 101
103 93 99 104 120 113 103 94 84 63 68 8 7 7 2 2
1 1 16 30 30 30 20 5 5 5 4 4 12 31 32 31
31 31 31 30 29 30 29 30 29 29 29 28 28 28 28 28
28 27 27 26 26 25 25 25 22 1 2 22 23 16 17 25
24 25 31 33 33 34 36 35 38 21 0 0 0 1 5 4
36 11 0 0 0 0 0 23 30 18 0 0 0 0 5 24
1 1 2 0 2 34 33 26 30 32 35 36 47 68 71 86
94 100 104 87 83 83 70 58 53 46 42 39 42 45 55 75
90 98 105 100 111 106 98 90 75 64 71 7 7 7 2 2
1 1 14 29 30 30 18 4 4 5 4 5 10 29 32 32
32 31 31 31 30 30 29 29 29 28 27 27 27 28 28 28
28 28 27 28 25 25 25 26 24 2 1 23 24 16 15 23
32 31 31 31 32 32 31 26 37 29 3 0 0 0 2 2
34 9 0 0 0 0 0 24 31 17 0 0 0 0 1 26
2 3 5 1 2 33 33 26 31 32 35 36 40 75 58 77
87 93 94 87 93 99 94 89 92 113 119 121 121 114 91 92
100 103 103 102 101 99 94 84 67 75 71 8 7 8 2 2
1 1 14 29 29 30 20 5 4 5 5 4 7 28 31 30
29 29 29 28 28 27 28 28 29 29 29 28 28 28 27 27
27 27 26 25 24 25 26 26 24 3 0 22 25 17 15 23
32 32 31 31 31 31 30 26 34 33 6 0 0 1 5 2
33 9 0 0 0 0 0 18 32 20 2 0 0 0 1 28
3 0 0 0 1 32 32 25 31 31 34 35 37 71 64 63
80 88 90 86 89 103 108 107 112 119 123 126 131 126 116 103
103 102 101 98 98 95 87 72 69 87 70 6 9 8 2 2
1 1 13 29 29 29 23 9 9 9 9 11 11 25 29 30
29 30 29 24 28 52 17 21 29 27 27 27 27 27 26 26
27 27 26 26 25 25 26 26 24 4 0 20 24 18 15 23
30 30 30 30 30 30 30 27 33 28 0 0 0 0 0 1
33 9 0 0 0 0 0 16 33 18 0 0 0 0 0 27
6 0 0 0 1 30 31 26 30 32 33 35 35 65 78 52
67 82 84 87 89 105 113 115 111 106 108 113 123 122 116 114
111 109 106 93 93 89 77 67 79 92 69 5 7 6 2 1
1 0 12 28 28 28 23 9 9 8 8 8 9 22 30 30
30 30 21 0 1 37 0 4 28 28 28 27 27 27 27 26
26 26 26 26 24 23 25 25 25 6 0 19 25 18 15 23
7 8 8 9 12 24 29 28 31 24 0 0 0 0 0 0
32 12 0 0 0 0 0 13 34 18 0 0 0 0 0 28
10 0 0 0 2 29 30 26 30 32 34 35 34 57 84 64
51 69 76 78 85 99 110 110 106 110 104 106 111 109 109 114
119 112 105 91 86 79 68 70 91 98 68 2 2 2 2 2
2 0 11 28 29 30 23 5 5 5 5 5 6 23 30 30
30 30 21 0 0 13 0 4 28 28 27 27 27 27 27 27
28 27 27 27 25 24 26 26 26 7 0 18 26 19 15 23
0 0 0 0 2 27 31 29 29 25 1 0 0 0 7 2
29 20 6 6 7 7 7 19 37 24 23 21 21 24 27 38
16 3 2 2 5 28 28 24 30 31 34 33 30 49 84 77
52 55 62 70 74 93 102 95 94 95 102 100 100 101 104 109
113 108 94 77 71 71 69 78 98 101 72 2 0 1 2 2
2 0 11 27 29 29 23 6 5 6 5 5 6 25 31 30
29 29 22 0 0 0 0 2 28 29 29 28 29 28 28 28
27 27 27 27 25 25 26 26 26 9 0 17 26 20 15 22
0 0 0 0 1 28 31 28 26 35 31 26 24 27 30 28
31 36 42 38 38 40 40 42 41 26 34 38 40 44 49 49
34 26 26 25 25 30 27 24 28 30 32 30 31 42 81 84
68 46 57 63 65 83 91 92 78 77 83 96 91 96 96 107
104 93 75 71 69 67 72 89 101 101 72 2 1 5 3 2
2 0 10 28 29 29 25 6 5 5 4 4 6 23 31 30
29 29 23 0 0 0 0 1 28 29 29 28 28 28 28 27
28 28 28 27 25 25 26 26 26 10 0 15 26 20 14 21
0 0 0 0 0 26 32 28 25 39 40 34 35 37 33 28
25 32 46 44 43 44 46 46 44 27 30 35 38 43 47 47
36 27 27 27 27 28 27 24 26 29 29 30 32 35 78 86
76 56 46 53 54 68 83 93 83 77 77 82 85 82 84 88
83 71 66 64 65 67 80 100 105 101 73 2 0 1 2 1
2 0 8 26 28 28 24 6 4 4 5 4 6 23 29 16
11 8 5 0 0 0 0 1 27 28 28 27 28 28 28 27
28 27 26 26 24 23 25 26 25 11 0 13 26 20 13 20
0 0 0 0 0 24 33 28 24 38 35 30 31 35 34 27
22 24 31 32 32 31 32 31 33 26 23 28 30 30 28 27
28 27 28 28 27 27 27 26 26 26 28 32 33 33 68 89
84 73 49 45 49 52 58 77 80 73 71 66 63 68 75 74
70 61 57 63 69 71 88 104 106 100 76 5 0 0 1 1
2 0 8 27 28 29 25 6 4 3 3 4 5 22 22 0
0 0 0 0 0 0 0 0 26 28 28 28 27 27 27 27
27 26 26 26 25 24 25 26 26 13 0 10 25 21 13 18
0 0 0 0 0 21 33 27 24 36 22 24 25 28 32 28
22 21 17 19 20 21 20 21 24 26 27 29 30 29 25 22
25 27 27 27 27 26 26 26 27 28 31 33 32 31 60 87
88 82 64 50 46 45 46 46 50 53 54 47 49 56 61 51
46 53 57 65 72 83 102 109 107 100 83 19 0 1 1 1
1 0 6 26 28 29 24 5 2 3 4 3 4 21 27 4
0 0 0 0 0 0 0 0 24 28 27 27 27 27 26 26
27 25 26 26 24 23 23 25 24 13 0 8 25 21 13 18
0 0 0 0 0 17 32 26 24 35 9 5 7 9 12 11
14 23 22 26 26 32 32 29 30 32 33 37 39 37 29 25
26 26 27 26 27 26 26 25 26 28 30 33 31 25 40 86
89 88 77 63 52 44 45 44 45 47 56 57 57 53 47 44
48 53 60 69 80 97 109 110 109 99 91 37 0 0 0 0
1 0 5 26 28 29 25 7 1 3 3 1 2 19 28 16
0 0 0 0 0 0 0 0 23 28 27 27 27 26 26 26
26 26 26 26 24 23 25 24 25 15 0 7 23 20 12 16
0 0 0 0 0 15 32 26 28 38 6 0 0 0 0 0
9 24 28 38 34 43 47 22 15 17 19 22 31 40 31 27
26 26 27 27 27 27 26 26 27 28 30 33 30 17 31 84
93 91 87 80 74 56 47 41 42 40 44 46 44 41 47 46
47 55 70 87 99 108 111 112 109 100 100 53 0 0 0 0
1 0 4 24 27 28 26 10 8 9 5 8 9 21 28 25
6 1 0 0 0 0 0 0 5 21 28 27 27 26 27 26
26 26 26 25 24 22 24 26 26 17 0 5 23 20 14 18
0 0 0 0 0 12 32 26 29 42 9 0 0 0 0 0
12 24 26 38 24 26 35 8 0 0 0 0 12 39 32 27
27 26 27 27 27 27 26 27 26 27 29 32 25 5 43 80
93 96 92 86 78 72 66 56 44 43 40 39 42 41 44 49
56 75 89 101 108 112 115 114 110 101 95 55 0 0 0 0
0 0 5 25 27 29 27 26 26 26 20 25 25 27 20 13
7 0 0 0 0 0 0 0 0 17 28 28 28 27 27 27
27 26 26 26 26 24 24 25 25 17 0 3 18 16 11 15
0 0 0 0 0 9 32 26 28 41 14 0 0 0 0 0
11 24 24 36 9 0 20 9 0 0 0 0 8 36 32 27
27 27 27 26 27 26 26 27 27 27 30 31 11 1 52 79
92 97 99 93 90 87 86 78 66 60 55 54 58 67 74 89
96 103 107 108 110 115 116 113 111 102 107 52 1 0 0 0
0 0 1 10 13 18 23 27 29 29 29 30 29 26 5 0
6 14 0 0 0 0 0 0 0 15 28 27 27 27 27 27
26 25 26 26 26 24 23 25 25 18 0 1 16 16 12 16
0 0 0 0 0 7 31 25 23 15 1 0 0 0 0 0
14 24 25 37 10 0 18 11 0 0 0 0 4 34 32 27
27 27 27 27 27 27 26 26 26 27 29 20 2 2 53 91
87 97 98 99 94 94 96 97 105 107 112 114 122 124 128 128
120 117 115 113 118 120 119 117 114 100 115 50 1 0 0 0
0 0 0 0 0 0 0 0 5 13 20 20 18 5 0 0
3 9 0 0 0 0 0 0 0 14 28 27 27 27 26 26
26 26 27 27 26 25 24 25 25 19 0 1 14 14 11 15
0 0 0 0 0 6 31 26 22 11 0 0 0 0 0 0
14 23 23 36 9 0 16 13 0 0 0 0 2 33 33 27
27 27 27 27 27 26 26 24 20 15 12 6 1 1 46 94
78 95 101 101 102 96 97 104 116 126 131 135 136 136 136 132
125 119 118 121 123 126 126 122 115 102 118 48 1 0 0 0
0 0 0 0 0 0 0 1 1 1 2 2 1 0 0 0
0 0 0 0 0 0 0 0 0 10 24 28 27 28 27 27
27 26 27 27 28 25 24 25 23 18 0 0 13 14 12 15
0 0 0 0 0 5 31 26 22 12 0 0 0 0 0 0
13 23 25 36 9 0 14 13 0 0 0 0 1 32 33 27
27 27 27 26 23 12 4 0 0 0 1 2 2 4 47 112
89 100 106 110 110 104 101 100 111 126 136 136 136 135 135 127
118 119 121 121 126 127 128 127 99 125 113 48 3 0 0 0
0 0 0 0 0 1 1 3 3 4 5 4 3 2 2 1
0 0 0 0 0 0 0 0 0 0 3 10 8 10 28 28
28 28 29 29 29 26 24 25 22 18 0 0 13 15 13 15
0 0 0 0 0 4 30 27 23 13 0 0 0 0 0 0
10 25 25 37 12 0 12 16 0 0 0 0 1 30 33 26
27 27 19 8 0 0 0 0 0 0 3 2 3 4 42 121
107 105 114 116 114 111 105 105 102 112 130 137 137 136 130 122
120 118 121 126 128 132 132 109 111 126 117 46 6 2 3 0
0 0 0 0 0 3 3 2 5 5 5 6 7 6 4 4
3 1 2 1 3 3 3 3 2 2 1 0 0 5 31 31
31 32 32 33 32 31 27 27 25 21 1 0 18 21 20 22
0 0 0 0 0 2 30 27 23 14 0 1 0 0 4 2
8 27 26 37 20 3 10 17 1 2 2 0 0 28 32 26
17 5 0 0 0 0 0 0 1 1 1 4 2 3 31 116
125 103 116 122 122 116 109 105 103 105 116 133 136 134 125 117
116 121 125 128 134 133 122 100 132 122 113 47 2 1 3 2
0 0 1 0 2 4 4 6 3 4 7 6 5 6 5 3
5 5 2 2 4 7 9 8 5 5 3 2 3 11 41 44
44 44 45 45 44 42 39 35 33 30 4 0 18 10 6 6
0 0 0 0 0 2 29 27 22 18 0 2 0 0 8 10
8 30 26 37 20 13 9 14 0 7 5 0 0 22 18 4
4 4 1 0 0 0 0 0 2 1 1 2 4 5 23 111
128 111 113 121 124 125 119 110 105 100 105 123 135 129 118 116
120 124 131 134 134 129 99 131 129 120 116 46 4 5 4 1
1 3 6 4 3 4 3 4 5 3 3 5 6 6 5 4
4 4 5 4 3 2 4 1 3 28 32 36 41 44 46 47
47 47 47 47 46 43 38 34 33 31 5 0 19 0 0 0
0 0 0 0 0 2 29 27 23 24 22 26 27 26 30 32
31 37 27 37 13 19 11 20 11 14 12 8 3 4 4 4
5 3 1 0 1 0 1 6 4 1 2 3 3 5 22 110
119 135 105 121 125 128 125 122 116 105 101 109 124 120 114 116
125 134 132 134 133 102 127 132 127 122 117 45 5 6 4 1
2 2 3 2 2 2 4 4 6 4 4 3 4 5 6 5
4 3 5 3 3 3 2 3 2 10 27 42 44 44 44 44
44 44 44 41 43 39 34 32 32 32 6 0 14 0 0 0
0 0 0 0 0 1 28 27 22 24 40 42 43 43 44 43
45 44 31 36 7 10 12 25 20 19 11 4 4 4 5 6
5 4 2 1 1 2 7 5 5 3 2 2 5 8 22 110
115 127 130 103 127 131 129 125 120 117 109 100 103 106 116 128
131 133 135 134 106 120 134 131 124 120 122 51 6 7 5 1
3 4 5 4 3 3 4 3 3 4 2 4 3 3 6 6
3 4 6 5 3 3 3 3 2 1 2 3 15 31 37 37
41 35 35 26 32 29 23 27 32 31 8 0 6 0 0 0
0 0 0 0 0 1 27 27 22 20 39 42 41 41 40 40
39 39 32 35 7 1 7 20 8 3 4 3 3 4 4 5
3 3 4 3 4 6 9 9 5 4 3 3 5 9 15 103
117 121 134 117 111 131 134 129 126 120 115 113 111 116 122 129
134 135 134 109 118 135 132 126 123 121 121 54 10 8 7 4
3 3 4 4 5 4 3 4 4 5 5 3 3 4 4 4
6 4 5 5 6 4 4 3 2 2 2 3 1 1 7 15
31 24 23 20 18 21 19 26 31 32 10 0 4 0 0 0
0 0 0 0 0 0 26 26 21 17 17 17 16 15 15 15
15 13 18 34 8 1 3 4 2 4 4 4 5 4 6 5
4 3 4 6 5 11 10 9 5 6 6 4 3 6 11 97
115 117 129 137 110 119 135 134 131 126 123 121 123 125 130 133
136 134 111 114 135 134 131 124 119 120 117 36 8 7 6 6
5 6 5 6 6 4 5 1 5 4 5 3 2 4 5 6
5 4 4 5 5 5 4 4 3 4 1 1 2 1 1 1
2 7 14 24 29 29 25 26 30 31 11 0 0 0 0 0
0 0 0 0 0 0 26 26 21 17 13 11 10 11 11 12
11 10 16 24 5 3 3 3 5 5 4 5 4 5 7 4
5 5 5 5 8 10 10 11 8 5 5 3 4 8 13 75
115 116 124 135 137 102 126 135 134 132 131 130 129 133 135 136
134 110 108 136 134 134 129 124 119 119 106 12 10 9 8 5
7 5 4 5 4 4 5 5 2 3 5 4 3 3 5 5
7 5 5 6 5 5 4 4 2 3 4 2 3 2 2 1
1 0 1 3 21 28 28 27 28 30 12 0 0 0 0 0
0 0 0 0 0 0 25 26 21 20 17 16 14 14 14 13
14 9 5 3 4 3 2 3 5 3 5 4 5 7 6 5
5 5 6 9 9 8 9 9 8 7 6 4 5 7 12 50
117 117 119 133 138 134 97 128 135 135 135 134 135 135 136 134
111 108 136 136 136 134 129 124 119 119 82 5 12 8 7 6
4 5 6 5 6 5 6 7 6 3 4 5 3 4 5 3
5 5 4 5 4 7 5 3 3 3 4 2 2 3 3 1
2 1 1 1 0 9 24 28 29 28 12 0 0 0 0 0
0 0 0 0 0 2 28 28 21 21 19 18 18 18 18 14
6 1 1 2 4 3 3 4 4 6 5 5 6 5 4 5
5 5 10 10 9 10 9 7 8 7 6 5 5 8 12 19
110 117 119 126 138 136 128 97 129 136 136 135 135 136 135 110
108 136 135 136 133 131 127 121 119 122 71 6 13 10 9 8
8 7 8 9 8 9 10 10 7 3 3 5 5 3 4 4
5 7 6 5 5 6 6 4 4 4 3 4 3 5 5 2
2 2 2 3 1 5 8 18 20 18 12 0 0 0 0 0
13 15 16 17 17 19 24 23 20 20 19 18 18 16 8 2
1 2 3 4 3 2 4 5 4 5 6 6 8 5 5 6
5 7 11 12 12 13 13 11 12 9 9 7 8 11 15 5
95 117 117 124 136 139 138 123 100 129 135 135 134 130 108 110
136 136 137 134 135 132 125 120 122 124 65 24 14 12 14 12
9 8 8 8 9 9 6 6 5 5 2 3 6 3 4 6
6 8 7 6 5 5 7 5 5 4 2 4 5 3 5 5
4 3 3 3 4 8 5 12 17 20 15 0 0 0 0 0
23 22 22 22 22 21 21 21 21 20 20 17 10 1 1 1
2 1 3 3 3 2 5 5 5 5 5 7 6 4 5 5
6 10 9 9 8 9 10 10 10 10 9 7 6 9 13 4
75 118 118 121 133 138 137 137 123 103 128 134 126 107 110 137
137 137 137 135 135 130 122 121 123 124 88 46 10 8 8 9
7 8 8 7 6 6 6 5 5 5 6 3 3 5 5 6
7 6 7 7 5 5 6 7 5 4 4 4 6 4 5 6
5 4 3 4 3 4 4 9 25 26 18 0 0 0 0 0
24 24 22 22 22 21 21 22 21 17 8 2 1 1 1 1
2 3 4 3 3 4 5 4 6 6 5 7 7 4 6 4
9 8 8 8 9 10 10 10 10 10 10 8 8 12 12 10
71 120 118 122 136 138 138 137 139 125 104 114 102 112 135 136
136 136 135 135 133 127 122 122 125 128 119 55 9 10 8 7
5 8 6 6 6 5 4 6 8 8 6 4 2 7 4 6
6 7 6 6 6 5 7 9 7 5 4 4 7 6 4 5
5 5 4 3 1 3 3 4 27 30 21 0 0 0 0 0
22 21 19 18 18 17 17 17 11 1 1 1 0 1 1 1
2 4 5 3 3 5 5 5 6 7 8 7 8 7 4 8
13 12 10 9 9 9 9 9 10 10 8 7 8 11 14 32
74 123 116 122 133 136 137 137 137 127 111 79 106 136 137 138
137 137 135 134 131 127 121 125 126 130 128 50 8 9 8 7
8 6 5 5 5 6 8 7 6 5 5 6 4 4 6 7
5 7 8 7 8 6 3 7 7 5 5 4 5 7 5 6
6 6 6 4 0 3 2 1 22 28 23 0 0 0 0 0
4 2 2 6 12 14 10 4 0 1 1 0 1 2 0 2
3 5 4 4 5 7 5 6 5 4 9 7 7 6 5 9
9 9 11 10 9 10 11 10 11 9 9 9 9 11 17 62
87 124 120 123 132 135 137 137 128 61 119 121 104 133 137 135
136 135 134 133 127 124 122 126 126 132 129 52 10 8 8 7
7 6 6 6 7 7 5 3 5 6 4 4 4 3 6 5
6 6 7 8 7 7 6 7 8 4 5 6 5 7 5 7
6 6 4 4 0 4 2 0 18 29 24 0 0 0 0 0
7 0 0 4 13 13 1 1 1 1 1 1 3 2 3 2
4 4 4 5 5 8 6 6 6 6 7 7 6 3 9 10
8 8 9 8 8 9 7 8 10 13 13 13 12 12 17 79
111 124 120 121 134 136 137 133 78 84 127 112 87 106 137 138
137 137 135 128 125 122 124 126 133 134 130 30 10 8 11 10
11 8 6 7 5 5 5 4 5 5 4 6 7 7 3 5
6 7 7 8 8 6 6 5 7 5 3 5 6 6 7 6
6 5 4 3 0 5 1 0 12 29 25 0 0 0 0 0
32 3 0 4 11 6 1 0 2 1 1 1 4 3 2 3
6 4 4 4 6 7 6 7 7 9 6 4 2 7 9 8
8 8 8 9 9 9 9 10 9 10 9 10 12 12 16 87
124 126 121 120 130 134 137 105 78 112 136 135 102 107 125 136
136 135 134 124 123 123 126 130 131 134 125 23 10 8 8 7
7 6 6 6 5 5 6 5 6 7 8 9 7 6 6 4
5 5 7 8 7 7 7 6 8 8 4 5 7 4 5 4
5 7 6 1 1 5 1 0 8 28 26 0 0 0 0 0
45 19 9 10 10 1 2 1 4 2 3 3 4 4 4 4
8 3 3 4 7 5 5 7 7 11 8 5 4 11 11 10
9 8 8 8 8 9 8 9 9 10 11 10 12 14 17 91
130 124 123 120 127 134 127 50 105 112 138 132 106 88 107 129
137 136 132 125 125 127 129 131 135 131 111 10 10 10 11 7
8 9 7 7 6 5 7 7 8 6 6 5 6 5 7 5
1 5 7 7 7 8 7 4 7 7 5 4 6 5 6 4
7 6 8 2 0 5 0 0 7 30 28 1 0 0 0 0
47 31 16 15 9 0 1 0 4 1 1 5 2 4 4 5
6 3 5 6 7 6 5 6 7 7 6 2 8 8 9 10
10 11 10 9 9 8 9 10 8 10 10 11 12 14 18 91
131 131 125 120 127 134 76 42 120 134 134 130 94 103 112 106
132 135 130 124 126 129 132 133 134 134 83 8 11 11 12 9
8 6 8 8 8 9 11 8 7 6 6 5 6 6 6 4
3 3 4 7 7 8 7 6 6 7 6 6 5 4 6 6
5 4 6 1 1 5 1 0 5 32 30 1 0 0 0 0
29 21 15 15 8 0 1 0 2 2 2 5 2 4 4 6
4 5 6 7 6 4 5 4 8 7 2 5 8 9 10 8
7 9 10 10 10 12 10 10 9 9 11 10 11 14 17 87
136 136 126 123 128 118 39 38 126 134 134 127 114 106 111 106
120 137 131 125 129 132 131 134 134 132 53 9 10 11 11 10
8 7 9 10 11 9 6 6 7 6 6 6 6 7 9 10
4 3 5 6 6 8 7 5 6 6 6 5 5 5 4 4
3 6 5 0 2 3 1 0 2 32 30 1 0 0 0 0
24 16 7 7 2 0 0 0 2 1 3 5 3 4 4 6
5 4 5 7 7 6 5 5 7 4 2 5 7 8 7 6
7 8 9 8 8 9 10 10 10 10 10 9 11 13 16 88
135 132 131 123 126 101 41 30 124 138 136 119 109 109 122 123
98 132 132 127 132 132 131 131 129 130 37 18 10 10 11 9
9 7 9 8 9 8 7 6 5 6 7 8 7 8 11 6
0 4 4 5 6 6 6 6 5 4 8 7 5 5 5 4
2 3 3 0 3 1 0 0 0 28 27 1 0 0 0 0
25 16 7 7 0 0 2 1 1 3 4 7 4 4 6 8
4 4 5 7 6 6 5 6 7 0 4 9 8 7 9 9
6 8 9 7 9 9 7 4 10 11 8 8 9 12 17 91
133 136 132 127 126 108 68 40 129 138 138 135 117 101 116 124
98 123 132 130 131 132 133 134 132 127 54 46 9 12 9 9
8 7 10 7 7 8 7 5 6 6 7 8 8 7 6 0
2 5 4 7 7 6 7 7 5 6 7 6 6 6 5 5
2 4 1 0 1 1 0 0 0 20 25 1 0 0 0 0
24 16 5 5 0 0 2 1 0 4 7 4 5 2 5 6
4 5 7 6 5 5 5 6 6 1 1 6 9 10 8 7
8 7 6 7 7 8 7 8 9 11 10 9 8 12 17 92
134 134 132 128 114 111 94 59 131 133 138 138 134 113 106 111
105 115 128 133 132 132 132 133 133 122 107 70 7 11 9 8
7 7 9 8 8 6 7 7 9 9 9 8 8 9 5 0
4 4 3 4 4 5 6 7 6 4 6 9 5 2 3 5
2 2 0 0 2 0 0 0 0 13 22 0 0 0 0 0
24 17 6 5 0 0 1 2 0 3 6 5 3 3 7 5
4 5 6 6 4 5 5 7 4 4 0 1 8 7 7 9
10 9 9 7 8 5 6 7 6 9 8 8 8 10 20 95
134 132 131 123 97 108 114 98 137 131 135 138 137 134 118 108
95 113 112 133 135 134 133 131 134 125 129 71 8 10 9 8
7 7 9 6 8 7 6 11 7 7 7 7 8 6 0 1
4 7 5 3 5 4 6 6 4 3 5 7 3 3 5 1
1 0 0 1 1 0 0 0 0 6 20 0 0 0 0 0
