P2
128 120
157
40 39 39 38 37 36 35 34 33 33 32 31 30 30 29 28
28 27 27 26 26 25 25 24 23 22 23 22 21 20 20 20
19 19 18 6 0 0 0 0 0 0 0 0 0 0 0 4
8 5 1 0 0 0 0 0 0 0 0 0 0 0 2 0
0 0 0 0 0 0 0 0 0 0 0 0 0 0 0 0
0 1 5 9 15 17 17 17 18 18 19 20 20 21 20 21
21 22 23 23 24 25 26 26 26 28 29 29 29 30 30 29
30 31 32 33 34 34 35 36 37 36 37 38 38 38 38 38
39 39 39 38 36 36 36 35 34 33 33 32 31 30 30 29
28 28 27 27 26 25 25 24 23 23 22 22 22 21 20 20
19 19 19 15 4 0 0 0 0 0 0 1 4 5 1 11
15 12 11 6 2 0 0 0 0 0 0 0 0 0 2 0
0 0 0 0 0 0 0 0 0 0 0 0 0 1 4 8
13 17 17 17 18 18 18 19 20 20 21 21 22 22 23 23
25 25 26 26 27 27 28 29 29 30 30 30 30 30 31 33
33 34 34 35 36 36 37 37 37 38 38 38 38 38 39 39
40 39 39 38 37 36 36 35 34 33 32 32 31 30 30 30
29 28 28 27 26 26 25 24 23 23 23 22 22 21 20 20
20 19 19 19 14 9 4 0 0 2 7 10 13 10 2 14
17 14 13 12 11 8 3 0 0 0 0 0 0 0 0 0
0 0 0 0 0 0 0 0 0 0 1 5 10 15 17 18
18 18 19 19 20 20 21 21 22 22 23 23 24 24 25 25
26 27 28 29 29 30 30 30 31 31 32 33 34 35 35 35
35 36 37 37 37 37 38 39 38 39 38 39 40 39 39 39
40 39 39 38 37 36 36 35 35 34 33 32 32 31 31 30
29 29 28 28 27 27 25 25 25 24 23 23 23 22 21 21
21 20 20 19 16 12 10 9 7 10 14 16 17 14 4 14
19 16 15 14 13 12 11 8 3 0 0 0 0 0 0 0
0 0 0 0 0 0 1 3 8 12 15 17 18 18 18 19
20 20 21 22 22 22 23 23 24 24 25 25 26 27 28 28
29 30 30 30 30 31 32 32 33 32 34 34 36 36 36 37
37 37 38 38 39 39 39 39 39 38 39 39 39 39 39 39
40 39 39 38 38 37 36 35 35 34 34 33 32 32 31 31
30 29 29 28 27 27 27 26 25 24 25 23 23 22 22 21
21 21 20 19 18 15 12 11 12 16 18 18 18 15 7 14
20 20 18 16 15 13 13 11 9 6 4 0 0 0 1 2
0 0 0 1 6 10 14 17 17 18 18 19 20 19 20 21
21 22 22 24 23 24 25 25 25 27 27 28 28 28 30 29
30 30 31 32 32 33 33 34 36 35 35 36 36 37 37 37
38 38 39 39 39 39 39 39 39 39 40 39 39 40 40 39
40 40 39 38 38 37 36 36 35 35 34 33 33 32 32 31
30 29 29 27 27 27 27 26 25 25 25 24 24 23 23 22
22 22 21 20 19 16 14 13 13 17 18 18 19 17 11 16
24 22 20 19 18 15 14 13 9 9 7 6 6 11 12 13
3 5 11 15 17 17 18 19 19 20 20 20 21 22 22 22
23 24 24 25 25 25 26 26 27 28 28 28 28 29 29 31
31 33 33 34 35 35 34 35 36 36 36 36 37 38 38 38
38 38 38 38 38 39 39 38 38 39 39 39 39 39 39 39
40 40 39 38 38 37 37 36 36 35 34 33 33 32 32 31
30 29 29 28 28 27 27 26 25 25 24 24 24 23 23 22
22 21 21 21 20 18 16 15 14 17 20 20 22 20 14 18
26 23 21 20 19 18 16 13 12 10 9 9 13 16 14 14
12 15 18 18 19 20 21 21 21 21 22 22 23 23 23 23
24 25 25 26 26 27 27 28 28 28 29 30 30 31 31 32
33 33 33 34 35 35 35 36 37 37 36 37 37 37 38 38
38 38 38 38 38 38 38 38 38 38 39 39 39 39 39 39
40 39 38 38 38 37 37 35 36 35 34 34 33 32 32 31
30 29 29 29 28 27 27 26 26 26 25 24 24 24 23 23
23 22 21 21 20 18 17 15 15 19 21 23 24 21 15 18
27 24 22 21 20 19 18 16 14 13 11 9 11 15 15 14
16 18 19 20 21 22 22 21 22 22 23 23 24 24 24 25
26 26 26 26 27 27 27 28 29 30 30 31 32 32 32 33
34 34 34 35 36 35 36 36 36 38 37 37 37 38 38 38
38 38 38 38 38 39 38 38 38 38 38 39 39 39 39 39
40 39 39 38 38 37 37 36 36 35 34 34 33 32 32 31
30 30 29 28 28 28 28 27 26 27 26 25 25 24 24 23
22 22 22 21 22 20 19 17 17 21 24 25 26 23 14 17
28 24 22 21 21 19 19 17 15 16 15 11 11 17 15 17
18 20 21 21 22 23 23 23 24 24 24 24 24 25 26 26
26 26 27 27 27 28 29 30 30 32 31 32 33 33 33 33
34 34 35 35 36 36 37 36 37 38 37 37 38 38 38 38
38 38 38 38 38 38 38 39 39 38 39 39 39 37 37 38
40 40 39 39 38 38 37 36 35 35 34 33 33 32 31 31
31 30 30 29 29 28 28 27 27 26 26 25 25 25 24 24
24 23 23 23 21 21 19 19 19 22 25 26 27 24 16 16
29 25 23 23 21 20 19 18 16 18 17 13 11 18 16 18
20 22 23 23 24 24 25 24 24 25 25 26 26 26 26 26
27 27 28 28 30 30 30 30 31 33 32 32 33 33 34 34
35 35 36 36 36 37 37 37 38 38 38 37 38 38 38 38
38 38 39 38 39 39 39 38 38 37 37 37 39 39 39 39
40 40 39 39 38 38 37 36 36 35 35 34 34 33 32 31
31 31 30 29 28 29 29 28 28 26 26 26 26 25 25 24
24 24 23 23 22 22 21 21 21 25 27 28 28 24 17 16
29 26 23 23 23 21 21 19 18 19 18 16 12 18 17 20
22 23 23 24 25 25 25 25 26 26 26 26 26 27 27 28
28 28 29 29 30 30 30 32 32 33 33 33 34 34 34 34
34 35 35 36 36 36 37 37 37 39 38 38 39 39 39 39
38 38 38 38 38 37 37 39 39 39 39 39 39 39 39 38
40 40 40 39 38 37 37 36 35 35 34 33 33 33 33 32
32 31 31 30 30 29 28 28 28 27 27 26 26 25 25 24
24 24 24 23 23 22 23 22 23 26 28 29 28 25 18 15
29 26 25 24 24 23 22 20 19 20 19 17 13 18 19 22
24 24 25 25 25 26 26 26 26 26 26 27 27 27 27 29
29 30 30 30 30 31 31 31 32 34 32 34 34 34 34 34
34 35 36 36 37 37 37 37 37 39 38 38 38 38 38 37
37 37 38 39 40 39 39 40 40 39 39 40 39 39 39 39
40 39 39 38 38 38 37 36 36 35 34 34 34 33 33 32
32 31 31 30 29 29 29 28 28 27 27 26 26 26 25 25
25 24 24 23 24 23 23 23 24 26 30 29 30 26 19 16
29 27 25 24 24 23 23 21 21 21 20 19 15 19 21 24
25 25 25 24 25 26 26 27 27 27 27 28 28 28 28 29
29 30 30 30 31 31 32 31 31 34 33 34 34 34 35 35
36 36 36 36 37 37 38 37 38 39 37 37 36 36 38 38
39 39 38 38 38 38 39 39 39 39 39 38 39 39 39 38
40 40 40 39 38 37 37 36 36 35 35 34 34 33 33 33
32 32 31 31 30 29 29 28 28 27 27 26 26 26 25 25
25 24 24 24 24 24 24 25 25 28 30 30 30 26 20 16
29 28 25 25 25 24 24 24 23 22 21 19 15 20 22 25
25 25 26 26 26 27 27 27 28 28 29 29 29 29 29 30
30 30 30 31 31 31 32 33 33 35 33 34 34 35 36 35
36 36 36 37 38 37 37 36 36 37 38 38 39 39 38 38
37 39 38 39 39 38 39 39 39 39 39 38 39 39 38 38
40 40 39 38 38 37 36 36 35 35 36 35 34 34 33 33
32 32 31 31 30 30 29 28 28 28 28 28 27 26 26 26
25 24 25 25 25 24 24 24 25 28 31 31 31 27 21 17
28 28 26 26 26 25 24 24 23 22 21 20 18 22 23 25
26 26 27 26 27 27 28 28 28 28 29 29 29 29 30 30
30 31 31 31 32 32 32 32 33 34 34 35 35 35 36 36
35 34 36 36 36 36 38 38 38 37 38 38 38 38 38 39
38 39 38 39 40 39 39 39 39 38 38 38 38 38 38 39
40 39 39 38 38 38 37 35 36 36 35 34 33 34 34 33
32 32 32 31 30 30 29 29 29 28 28 27 27 26 26 25
25 25 25 25 25 24 24 24 26 28 31 31 31 27 22 17
27 28 26 25 25 25 25 24 23 22 22 22 20 22 24 26
26 27 27 27 27 27 28 28 28 28 29 29 29 30 30 30
30 30 30 31 31 32 33 33 33 35 34 34 35 35 34 34
36 36 36 37 38 38 37 37 37 37 38 38 38 37 38 38
38 38 38 39 39 39 40 38 39 39 39 38 38 38 39 38
39 39 39 38 38 37 37 36 36 36 35 34 35 35 34 33
32 32 31 31 30 29 30 29 29 29 28 28 27 26 27 27
26 25 25 25 25 24 24 25 26 29 31 31 31 28 22 16
25 29 26 25 26 26 26 25 24 23 24 22 20 23 25 27
27 27 28 27 28 28 28 28 29 29 30 30 30 30 30 30
31 31 31 31 31 32 32 33 33 34 33 33 33 34 36 37
37 38 37 37 38 37 38 38 37 37 37 38 39 38 38 38
38 38 39 39 39 39 39 39 38 38 39 38 38 38 38 37
39 39 39 39 38 38 37 37 36 36 36 35 34 34 34 33
32 32 32 31 31 30 30 29 29 28 28 27 28 27 27 26
26 25 25 25 25 24 25 25 27 29 32 31 31 28 23 12
20 30 27 27 27 26 27 26 24 24 23 22 20 25 26 27
28 28 28 28 28 28 29 30 29 30 30 30 30 30 30 30
31 31 31 32 32 32 32 31 32 32 34 35 36 36 36 36
37 38 37 37 37 37 38 38 38 38 37 38 38 38 38 38
38 38 38 39 38 38 39 39 38 39 39 38 38 37 37 37
39 39 38 38 38 37 37 37 37 36 36 35 35 34 34 33
33 33 32 32 31 31 30 29 29 29 29 29 29 28 27 26
26 26 26 26 25 25 25 25 26 29 32 33 32 29 22 17
24 31 28 28 28 27 26 27 25 25 25 24 21 26 26 28
29 29 28 28 29 29 29 29 30 29 30 30 31 31 31 32
31 32 31 31 31 33 33 34 34 34 35 36 36 36 36 37
37 39 38 38 38 37 38 37 38 37 38 38 38 39 39 39
38 39 39 39 39 38 39 39 38 38 38 39 38 38 38 38
39 39 38 38 38 38 37 37 37 36 36 35 35 34 34 33
33 32 32 31 31 31 31 30 30 29 29 28 29 28 27 27
27 26 25 26 26 25 25 26 27 30 33 33 32 29 22 22
23 31 29 28 28 26 26 27 26 25 25 25 21 26 27 28
29 28 29 28 29 30 30 29 30 30 31 30 30 31 31 31
30 31 32 32 32 34 34 34 35 36 35 36 36 37 37 37
37 38 38 38 38 37 38 38 38 38 38 38 39 38 38 39
38 38 38 38 38 39 39 38 39 39 39 39 39 39 37 37
40 40 39 39 38 38 39 37 37 37 36 36 35 35 35 35
34 33 32 32 31 31 31 30 30 30 29 29 29 28 28 28
27 27 27 26 26 26 26 26 27 31 33 33 32 31 24 24
23 30 27 28 27 26 23 18 17 18 21 24 21 26 28 29
30 30 30 30 31 31 31 30 30 31 30 31 31 31 32 32
32 33 34 33 34 34 34 34 35 36 36 36 36 37 37 37
38 39 39 38 38 38 39 39 39 38 39 38 39 39 39 39
39 39 39 39 39 39 39 39 39 38 38 38 38 38 39 39
40 39 39 39 39 39 38 38 37 37 37 36 35 35 35 34
33 33 33 32 32 32 32 31 30 31 30 29 29 28 28 27
27 27 27 27 27 26 27 27 29 31 34 34 34 31 24 24
22 30 17 11 15 15 10 4 4 3 4 5 7 10 17 22
27 29 29 30 30 30 31 30 30 30 31 32 32 32 33 33
33 33 34 34 35 34 35 35 36 37 37 37 37 37 38 38
38 38 38 38 38 38 39 39 39 39 39 38 39 38 39 40
39 39 39 39 39 38 38 38 39 39 39 39 40 40 38 39
41 40 40 39 38 38 38 38 38 37 37 37 36 36 35 35
35 34 34 33 33 33 32 31 31 31 31 30 30 29 29 29
28 28 28 27 27 27 27 27 28 31 35 35 34 31 23 20
8 8 6 3 5 3 3 0 0 0 0 0 1 0 4 7
7 12 21 24 27 30 31 31 31 32 32 32 32 33 34 33
34 34 36 35 36 35 35 36 36 36 36 36 37 38 38 39
38 39 39 39 39 39 39 39 39 39 39 39 39 39 40 39
38 39 38 39 39 40 40 39 39 39 40 39 39 39 40 39
41 40 39 39 40 39 39 38 38 37 37 37 36 35 35 35
34 34 34 34 33 34 33 32 32 31 31 31 30 30 29 29
29 28 28 28 28 28 28 29 29 32 35 35 33 27 12 1
6 0 0 0 0 0 0 0 0 0 1 0 0 2 2 3
4 1 6 10 10 16 25 30 32 32 33 33 33 34 34 33
34 35 35 35 36 36 36 36 37 37 37 38 38 38 38 39
39 39 39 39 39 40 40 40 40 39 39 39 40 39 39 40
39 39 39 39 38 39 39 39 40 40 40 39 39 40 40 39
41 40 40 40 40 39 39 38 38 37 37 38 37 37 36 36
35 35 34 35 33 33 33 32 32 32 31 31 31 30 30 30
30 29 29 29 29 29 28 29 30 31 34 33 24 11 4 0
1 0 0 0 0 0 1 1 0 0 0 1 1 0 1 3
9 6 1 4 8 12 14 20 27 32 33 33 33 34 35 36
35 35 36 36 36 36 36 37 37 37 38 38 38 38 39 39
39 40 41 40 40 40 40 39 39 38 39 39 39 39 39 40
39 39 39 39 39 40 39 39 40 39 39 40 39 38 39 38
41 40 40 39 40 39 39 39 39 38 38 38 37 37 36 36
36 36 35 34 34 34 33 33 32 32 32 32 32 31 30 30
30 29 29 30 29 28 27 28 27 24 22 9 5 1 0 0
0 0 0 0 0 0 0 3 1 0 0 0 0 0 1 2
4 8 8 2 2 5 8 10 17 26 33 34 34 35 35 36
35 36 36 36 36 37 37 37 37 38 38 39 39 39 39 39
38 38 39 39 38 38 39 40 40 41 39 40 40 40 40 40
39 40 40 40 40 39 40 39 40 40 40 40 39 39 39 39
41 40 40 40 40 39 39 38 38 38 38 37 37 37 37 37
37 35 36 35 35 34 33 33 32 33 33 31 32 32 31 31
31 30 30 30 28 27 25 16 11 4 6 5 3 0 0 0
0 0 0 0 0 0 0 1 3 4 4 2 2 2 2 3
1 2 8 8 2 0 3 6 9 14 25 34 35 35 35 35
36 36 36 36 37 37 38 38 37 38 39 38 38 38 38 38
39 39 40 40 41 40 40 40 40 41 41 39 39 39 40 39
39 40 40 40 40 40 40 40 40 41 40 40 40 40 40 40
41 41 41 40 40 39 39 39 39 39 38 38 38 37 37 37
36 35 35 34 34 34 34 33 33 33 33 33 32 32 31 31
31 29 30 30 25 22 11 6 4 5 5 1 0 0 0 0
0 0 0 0 0 0 3 1 5 5 3 3 2 4 1 1
0 0 2 3 4 1 1 2 4 6 16 27 35 35 36 35
36 36 37 36 37 37 38 37 37 37 38 38 39 39 40 40
40 40 40 40 40 40 39 40 41 40 41 40 39 40 40 40
40 40 40 39 40 39 39 38 39 40 41 39 40 41 39 39
41 41 41 40 40 40 39 39 39 38 38 38 37 38 38 37
37 36 35 35 35 34 34 34 34 33 33 32 32 32 31 31
31 30 29 26 20 12 8 4 2 1 0 0 0 0 0 0
0 0 0 0 0 1 1 1 2 7 9 10 4 3 2 0
0 0 0 0 2 3 2 6 5 5 7 12 29 36 37 36
36 37 37 36 37 37 37 37 38 39 39 40 39 40 40 40
40 40 40 41 41 41 41 40 41 40 41 40 40 39 39 39
40 40 41 40 40 40 41 40 39 39 41 40 39 40 40 39
40 40 40 39 39 39 39 39 39 39 39 39 38 37 37 37
36 36 36 35 35 34 34 34 33 33 33 33 33 33 32 32
31 29 23 11 2 3 1 0 0 0 0 0 0 0 0 0
0 0 0 0 0 0 0 1 1 4 6 5 5 5 0 0
0 0 1 2 1 2 3 4 5 5 5 5 17 31 36 37
37 36 36 36 37 36 38 38 38 39 40 40 39 40 41 40
40 40 40 40 40 40 40 40 40 40 41 39 40 40 40 41
40 40 40 40 40 39 40 40 39 40 40 39 39 40 40 40
40 40 40 40 40 39 39 38 38 38 38 38 37 37 37 36
36 36 36 35 35 34 34 34 34 33 33 33 33 32 31 28
26 22 3 2 1 1 0 0 0 0 0 0 0 0 0 0
0 0 0 0 0 0 0 0 2 2 0 1 1 0 0 1
1 0 2 2 2 1 3 2 1 3 6 3 2 24 33 36
36 36 36 36 38 38 38 38 38 39 40 40 40 40 40 39
40 41 40 40 40 40 40 40 39 40 41 39 39 40 39 39
39 39 40 40 40 39 40 40 40 40 40 40 40 40 38 38
41 40 40 40 40 40 40 39 39 38 38 38 37 37 36 36
37 36 36 35 34 34 34 34 34 34 34 33 33 29 27 23
19 4 0 0 0 0 0 0 0 0 0 0 0 0 1 1
0 1 1 1 2 5 7 9 5 2 0 0 1 0 1 2
3 3 3 1 2 1 1 4 0 3 5 5 1 9 31 36
37 36 37 37 38 38 38 38 39 39 40 39 40 40 40 40
40 40 40 40 40 39 40 39 40 40 41 40 40 41 40 40
40 40 40 40 40 39 41 40 39 38 38 38 35 35 36 36
41 41 41 40 40 39 40 39 39 39 39 38 38 37 37 37
36 37 36 35 35 35 35 34 34 34 34 33 31 23 17 14
6 0 0 0 0 0 0 0 0 0 0 1 0 0 0 0
0 0 0 3 3 4 7 8 4 1 1 1 3 1 2 5
6 4 7 4 2 1 1 2 2 3 6 6 2 4 17 36
38 37 38 38 38 38 39 39 39 39 41 39 39 39 39 40
40 40 39 39 40 40 41 41 40 40 42 40 40 41 41 40
41 40 40 39 39 39 39 38 39 39 40 40 39 39 38 38
41 40 40 40 40 39 39 39 39 39 38 38 38 38 38 37
37 36 37 36 36 35 35 35 34 34 34 28 22 10 7 5
1 0 0 0 0 0 0 0 0 0 1 1 1 1 0 0
0 0 0 3 5 5 5 3 2 1 2 3 3 6 7 6
9 6 8 11 3 3 0 2 7 2 5 5 4 2 6 28
39 38 38 39 39 38 39 39 40 39 40 39 40 41 41 39
40 39 40 40 40 40 40 40 41 41 42 40 41 41 40 39
39 39 39 39 40 40 41 40 39 39 39 39 39 38 38 38
41 40 40 40 40 40 40 39 39 39 38 38 37 37 37 37
37 36 37 36 36 35 36 35 35 35 33 27 14 7 3 3
1 0 0 0 0 0 0 1 0 2 4 6 8 6 2 0
0 0 2 4 5 7 8 8 1 4 4 5 8 9 7 6
10 11 11 15 14 6 2 2 6 3 1 10 11 4 3 14
36 38 38 39 39 39 39 39 40 40 40 40 40 40 40 40
40 40 40 40 41 41 41 41 41 41 39 37 38 38 39 39
39 40 41 41 38 38 39 38 38 39 39 39 38 38 38 36
41 41 41 41 40 39 39 39 39 39 39 38 38 38 38 37
37 37 37 36 36 36 35 35 35 34 32 19 7 1 1 0
0 0 0 0 0 0 0 1 0 1 0 2 1 0 0 0
0 0 1 3 4 8 12 9 4 5 7 7 6 8 5 7
9 13 15 13 14 14 5 4 7 3 0 8 9 11 7 10
27 39 39 39 39 40 39 39 39 40 40 39 39 40 41 41
41 41 40 41 41 40 40 39 39 39 40 39 40 40 39 39
39 40 40 41 38 39 38 38 39 39 38 38 37 38 37 37
26 38 41 41 40 40 40 40 40 39 39 39 39 38 38 38
38 37 37 37 37 36 36 36 35 34 30 20 1 0 0 0
0 0 0 0 0 0 2 1 3 2 2 2 1 0 0 1
1 3 0 0 1 3 2 3 5 7 9 9 13 10 8 8
7 12 14 16 9 18 11 7 8 4 0 0 9 12 14 15
18 37 38 38 40 39 40 40 40 40 41 41 40 40 40 41
41 39 40 38 39 40 41 41 41 41 41 40 41 40 40 40
40 39 40 40 39 40 38 40 40 39 39 39 38 38 37 36
18 36 40 40 40 40 40 39 39 39 39 39 39 39 39 39
38 38 38 37 36 36 36 36 35 34 29 22 0 0 0 1
0 0 0 0 0 0 1 2 5 6 10 7 9 5 3 1
0 1 0 0 1 2 4 3 4 7 10 11 11 16 15 14
13 11 15 16 10 11 10 9 7 8 3 1 6 8 13 12
15 33 39 39 39 40 40 40 40 40 40 40 40 39 40 40
41 41 42 41 40 41 40 41 40 40 39 39 39 40 40 39
40 39 40 41 40 40 40 38 40 38 38 38 38 37 37 37
18 35 41 41 41 40 40 39 40 40 40 40 39 38 38 38
38 38 37 37 38 37 37 36 38 42 34 20 0 0 0 1
1 2 0 0 0 0 0 3 7 11 10 7 7 3 5 5
0 2 3 3 2 2 1 3 2 3 15 18 17 9 12 19
13 10 15 12 9 6 13 12 12 7 9 6 3 8 12 9
13 27 38 38 39 39 39 39 39 39 40 40 40 40 40 40
40 40 42 41 41 40 40 41 40 40 41 40 40 40 39 39
40 39 39 40 39 39 39 39 39 38 39 38 37 38 38 37
19 36 42 41 41 40 39 45 49 47 45 42 41 40 38 39
39 38 38 37 37 37 37 36 43 50 43 25 1 0 0 1
3 6 3 1 0 0 0 2 3 6 10 13 8 1 2 3
3 1 3 6 5 9 10 7 8 8 6 12 16 15 16 14
15 8 11 14 10 9 11 10 14 8 12 6 3 10 13 12
10 24 38 39 39 39 39 40 39 39 40 40 40 39 40 41
40 40 41 41 41 41 41 40 41 40 41 40 39 39 40 40
40 40 40 40 39 39 39 39 39 39 39 38 38 38 38 37
21 37 42 41 41 41 41 49 54 52 50 47 46 45 44 41
39 39 38 37 37 38 37 37 44 49 43 34 6 0 2 0
15 43 30 26 10 2 1 2 6 8 10 15 11 8 11 11
12 8 4 7 9 9 15 14 12 11 8 5 16 14 13 15
11 11 10 11 13 13 10 13 13 12 12 12 5 6 8 7
10 19 39 41 39 40 39 40 40 40 40 40 40 41 40 41
39 39 40 41 40 40 41 40 40 40 40 41 40 40 41 41
41 40 40 39 39 39 39 39 39 40 39 38 38 38 38 38
22 42 45 43 42 42 41 48 54 52 48 48 49 52 52 45
47 45 43 39 38 38 38 37 41 40 40 37 14 1 1 0
11 55 69 57 52 34 11 8 12 14 10 13 11 9 11 10
12 9 13 11 14 13 15 16 16 19 15 4 12 22 12 11
10 9 13 14 12 12 11 13 15 14 11 12 6 3 6 3
7 16 34 41 40 40 40 40 41 41 40 40 40 40 40 40
40 40 41 42 41 40 41 40 40 39 40 39 40 40 39 40
40 40 40 40 40 40 40 40 39 39 39 39 39 38 38 38
23 44 47 44 44 45 45 47 33 39 46 50 53 53 51 39
34 42 44 45 43 43 42 39 39 25 19 20 18 4 0 0
0 7 37 70 87 95 77 45 25 25 22 16 12 10 15 18
14 13 15 16 18 21 22 15 21 22 19 12 9 18 22 5
6 6 8 12 10 10 11 10 19 14 12 11 11 5 8 3
9 16 30 41 39 39 40 39 40 40 40 40 40 39 40 40
40 40 41 41 40 40 40 39 39 39 40 40 40 39 39 40
40 39 39 40 39 39 39 39 38 38 39 38 39 38 37 36
22 43 47 39 38 45 50 49 4 1 15 30 35 39 46 24
0 4 11 21 27 35 42 42 39 22 10 13 13 8 2 0
0 0 5 29 61 88 115 105 90 61 41 30 24 17 16 19
22 16 21 24 18 21 22 17 14 23 18 7 8 12 10 12
6 4 6 6 11 13 18 12 14 21 14 13 12 9 10 6
9 11 24 39 38 39 39 39 39 39 39 39 40 39 39 39
39 39 39 40 40 39 39 39 39 39 39 39 39 39 39 39
39 39 39 39 39 39 38 38 38 37 37 36 36 37 37 38
21 34 43 45 45 46 51 51 6 0 4 15 18 17 33 23
0 0 0 0 1 2 7 19 39 21 4 5 7 16 46 5
0 1 17 61 85 111 126 139 134 112 96 68 42 27 17 7
6 6 3 12 21 25 23 21 22 19 22 15 8 10 8 8
7 4 5 5 8 9 16 13 15 17 20 14 17 9 12 10
12 12 21 38 38 38 39 39 39 39 39 39 40 38 38 38
38 38 39 39 39 37 38 38 38 38 38 38 39 39 39 39
40 39 39 37 36 36 37 37 37 37 37 38 38 37 37 36
17 3 5 13 25 36 45 48 8 0 2 8 10 12 30 27
1 0 0 0 0 0 0 7 40 16 0 0 3 22 83 61
9 1 8 42 103 139 147 147 147 137 125 108 68 44 23 12
5 3 3 5 7 9 24 21 18 21 19 17 14 11 11 12
9 5 6 4 7 11 10 13 15 13 19 13 19 11 15 16
13 12 18 37 38 38 38 38 38 38 39 39 39 38 38 38
38 38 39 38 38 38 38 38 38 38 38 38 38 38 39 38
38 37 38 38 38 37 38 38 37 37 38 37 38 37 36 36
16 1 0 0 0 0 4 20 9 0 0 1 0 5 25 23
0 0 0 0 0 0 0 6 38 7 0 0 0 32 95 94
58 23 25 52 91 139 147 148 147 146 141 132 92 53 30 19
10 9 6 9 12 13 14 17 16 20 17 14 13 12 13 17
14 9 11 11 5 11 10 12 16 14 15 17 20 16 16 20
16 17 15 34 35 38 38 38 38 38 38 38 38 38 39 38
39 39 39 39 39 39 38 38 39 39 38 38 39 39 39 39
38 38 39 37 37 37 37 37 36 36 37 37 38 37 37 38
16 1 0 0 0 0 0 10 9 0 0 0 0 2 29 23
0 0 0 6 9 0 0 4 38 6 0 0 0 37 100 105
101 78 82 113 133 147 148 148 148 147 145 143 122 68 44 24
17 20 14 16 15 16 11 11 15 14 13 11 14 16 13 10
17 11 17 15 10 12 15 11 15 15 17 15 24 22 18 19
20 18 15 34 36 39 39 38 39 39 39 39 38 38 38 39
39 39 38 40 39 40 40 40 39 39 39 38 39 39 39 38
38 38 38 38 38 38 39 39 38 38 38 38 39 37 37 37
17 0 0 0 0 0 0 9 7 0 0 0 0 2 32 27
0 0 0 10 16 10 4 3 38 5 0 0 0 46 107 112
116 120 129 145 147 147 148 147 147 147 147 146 138 95 50 31
33 26 24 18 15 15 13 11 10 14 19 14 12 19 18 13
17 11 19 16 19 15 18 15 17 19 16 15 26 24 21 16
19 18 14 31 39 39 39 39 39 39 39 38 39 39 39 38
38 39 39 40 39 39 39 39 38 37 38 39 39 39 39 39
39 39 39 39 40 39 39 39 39 39 38 38 38 36 35 35
16 1 0 0 10 2 0 8 6 1 0 0 0 1 29 29
0 0 1 13 17 16 13 3 37 7 0 0 0 72 112 116
123 134 143 147 147 148 147 147 147 147 147 146 145 126 79 38
36 28 27 28 23 21 21 17 9 9 14 15 12 15 14 13
16 13 17 18 21 21 28 18 16 20 16 21 24 23 26 15
19 18 15 26 39 39 39 39 39 40 40 39 39 39 38 39
39 39 39 39 38 38 39 38 39 37 38 39 39 39 39 39
40 40 40 40 39 38 39 39 39 37 36 35 35 34 33 30
16 1 9 6 7 1 0 7 8 1 0 0 0 5 30 31
0 0 1 10 16 16 14 3 37 11 1 0 7 96 74 43
52 63 66 65 61 60 59 60 60 57 53 51 50 45 33 18
19 37 25 27 26 26 23 21 17 16 13 17 16 19 19 17
13 18 19 18 22 22 31 29 21 22 17 24 22 18 27 19
19 19 17 29 37 39 39 39 40 40 40 41 39 40 40 40
39 40 39 40 40 39 40 39 38 39 38 40 41 40 40 40
41 39 37 36 36 37 37 36 35 30 27 22 20 16 15 13
17 5 9 0 4 3 0 9 9 0 0 0 0 11 34 36
1 2 4 1 6 14 12 2 39 41 33 24 33 35 2 26
15 11 16 12 12 12 12 13 12 10 9 9 10 9 8 8
8 32 28 25 23 30 27 26 21 21 21 19 18 22 19 19
18 23 20 24 28 22 30 28 27 26 21 21 19 15 24 27
21 21 17 29 38 40 40 41 40 40 41 42 40 41 41 40
39 40 40 39 39 40 40 39 39 39 40 40 39 39 39 38
39 36 32 29 25 22 19 16 14 14 14 14 15 16 17 17
17 4 2 0 0 1 0 12 30 16 11 10 2 2 31 53
37 32 28 18 10 7 8 3 39 49 46 45 27 2 2 19
8 4 6 9 15 16 17 18 20 22 24 28 33 40 47 51
52 51 35 25 18 23 24 22 20 37 47 38 53 35 19 20
19 27 26 27 28 16 26 26 23 32 20 20 20 20 16 28
18 17 23 25 36 40 40 40 40 40 40 41 40 40 40 39
39 40 39 38 38 38 39 38 38 36 37 35 32 28 25 21
18 17 16 15 15 15 16 17 17 19 20 20 21 22 21 22
17 1 0 0 0 0 0 14 56 51 43 44 41 33 44 51
24 26 30 33 34 33 34 36 50 46 45 45 14 6 3 6
2 4 11 21 32 40 49 61 89 107 120 129 136 140 145 144
137 120 82 40 29 30 22 28 32 48 77 75 72 72 44 23
20 22 22 29 26 18 22 30 22 37 25 18 27 18 9 19
18 16 26 27 37 38 40 40 40 40 40 40 39 38 37 37
36 38 37 36 34 32 30 27 24 21 19 18 17 16 16 17
18 19 20 21 19 14 22 23 24 25 25 26 26 25 16 25
18 4 0 0 0 0 0 14 58 48 51 55 59 56 51 43
18 18 18 18 18 17 19 22 26 23 28 33 7 5 13 27
1 13 39 94 125 137 143 145 147 148 147 147 147 147 148 147
147 143 122 88 55 47 42 60 82 47 81 115 127 109 103 46
21 16 22 24 26 23 21 20 24 37 26 24 32 19 8 11
17 15 19 23 34 38 39 39 38 39 39 38 36 36 39 32
28 25 22 20 19 18 18 19 20 20 20 21 22 22 23 24
25 25 26 27 26 9 26 28 29 28 26 25 30 20 25 31
21 33 31 22 13 6 3 16 50 43 52 56 59 58 47 38
21 18 18 16 15 14 13 12 11 12 14 15 4 5 10 25
6 29 53 124 148 148 148 148 148 148 147 147 148 148 147 147
147 146 144 119 84 56 63 78 115 89 101 130 145 142 117 109
19 10 15 23 23 22 20 15 26 25 20 26 30 19 12 9
15 14 15 25 36 38 37 35 32 30 28 24 22 21 35 28
14 17 19 20 21 22 23 24 25 26 27 27 28 29 30 30
31 24 24 30 31 18 21 32 33 32 20 29 29 21 32 33
22 44 54 53 50 46 43 45 44 37 49 52 56 57 51 42
25 20 17 14 13 13 13 13 12 13 14 15 7 8 8 32
6 23 43 101 143 147 147 147 148 147 147 147 147 148 147 147
147 146 146 137 112 93 71 75 120 125 134 140 146 146 134 131
38 7 10 17 23 23 21 21 24 15 11 23 26 19 12 19
12 14 16 26 25 25 22 21 20 20 20 22 22 20 29 23
17 23 26 27 29 30 30 30 31 32 32 31 31 32 33 33
33 33 28 26 34 30 13 35 35 32 18 31 20 29 31 35
22 44 55 55 53 54 55 57 34 9 16 23 31 37 37 43
26 18 15 7 6 6 13 15 15 14 18 17 5 5 5 26
5 15 29 67 134 141 144 146 148 148 148 148 148 147 147 147
146 146 147 146 143 125 99 98 121 124 145 146 147 146 136 135
76 8 5 11 17 20 14 21 27 12 7 27 18 17 14 18
7 9 12 16 21 21 23 23 25 26 26 28 28 28 33 29
22 29 32 33 33 33 34 34 34 34 34 34 35 34 35 34
36 35 35 29 26 33 13 28 35 31 18 22 26 31 32 35
22 39 50 51 52 54 55 56 28 0 0 0 2 11 21 43
25 17 13 1 0 0 6 11 9 5 12 11 3 5 2 23
14 3 19 33 105 137 142 144 148 148 148 148 148 148 148 147
148 147 148 147 147 146 135 126 136 103 81 143 147 146 139 139
96 15 7 9 15 21 12 17 25 16 10 17 16 15 16 19
12 9 14 12 26 29 30 31 32 32 33 34 33 31 29 25
26 34 34 35 36 37 37 37 37 37 36 36 36 35 36 35
35 36 36 37 29 27 25 16 34 28 21 17 35 30 33 34
28 33 36 38 41 40 45 51 23 0 0 0 1 1 14 45
23 15 12 1 0 4 2 0 1 0 1 3 8 7 1 14
20 5 27 47 96 134 143 146 147 148 148 148 148 148 147 148
148 147 147 147 147 146 147 147 145 122 60 124 147 147 140 141
93 24 9 9 13 25 13 13 16 12 16 17 14 9 16 17
13 13 16 16 30 34 35 35 35 35 36 36 35 31 12 8
22 36 38 38 38 37 36 37 37 37 38 37 36 37 36 36
36 37 36 37 37 27 24 8 15 12 15 27 35 31 34 32
25 25 25 29 37 35 41 51 21 0 0 0 2 0 4 45
18 10 2 0 0 11 9 3 1 0 0 1 9 5 0 5
24 7 39 55 111 142 145 147 148 148 148 148 148 148 147 148
148 147 148 148 148 148 147 138 99 138 103 110 140 147 142 142
71 29 16 12 9 16 13 12 17 10 11 17 12 5 16 15
12 12 13 18 33 36 37 37 37 37 36 34 33 31 11 6
17 35 38 39 38 38 38 38 38 38 38 38 38 37 36 36
36 36 35 36 38 35 27 9 0 0 22 32 33 29 34 30
25 25 29 32 38 38 45 50 21 0 0 0 0 0 6 46
6 0 0 0 1 7 15 9 3 0 0 10 77 12 2 1
19 9 33 58 118 143 147 148 148 148 148 148 148 148 148 148
148 148 147 148 147 146 147 94 64 108 120 128 135 148 143 140
31 34 28 13 11 14 10 10 14 8 10 13 12 7 17 16
12 10 10 20 35 38 37 38 38 22 9 5 14 27 9 5
17 36 38 39 39 38 38 37 37 38 37 38 38 38 37 36
36 34 35 35 36 35 35 22 0 4 31 32 27 27 31 33
24 11 6 11 18 24 32 39 20 0 0 0 0 0 8 46
7 0 0 0 2 7 19 16 13 1 2 71 107 27 1 1
10 7 25 58 120 146 148 149 148 149 149 148 148 148 148 148
148 148 148 148 148 144 147 74 80 116 123 126 133 147 143 111
31 59 42 21 10 12 7 14 13 12 10 17 9 5 14 14
10 9 9 18 37 39 38 39 38 24 19 23 30 30 4 0
15 34 37 38 38 37 38 37 37 37 37 37 38 37 37 36
36 35 34 34 34 34 36 31 1 7 34 30 24 24 31 33
28 9 0 0 0 0 0 7 17 0 0 0 0 0 8 44
5 0 0 0 5 20 22 19 17 1 36 115 114 47 13 1
4 7 18 51 124 148 149 149 149 149 148 149 149 149 149 149
149 148 148 149 147 142 145 77 112 120 134 123 136 147 145 116
115 83 61 30 12 10 12 11 10 8 12 13 15 11 16 11
16 9 6 23 39 39 39 39 39 39 37 37 36 32 9 1
16 34 38 38 38 38 38 38 38 38 37 38 37 37 37 36
37 36 35 34 35 35 36 32 3 4 33 33 24 23 34 35
28 10 0 0 1 0 0 4 17 0 0 10 6 0 6 42
3 0 0 0 4 18 26 12 7 9 97 117 117 58 39 1
2 9 14 47 132 149 149 149 149 149 149 148 148 148 148 148
148 147 147 148 147 144 139 104 128 131 124 132 147 144 138 113
116 93 81 44 18 14 11 8 9 9 10 11 14 14 16 13
12 11 7 27 39 39 40 39 39 38 38 37 36 33 14 0
20 34 38 38 38 38 38 37 37 38 36 37 37 36 36 35
36 35 35 33 34 35 35 33 4 3 33 35 26 24 34 35
28 11 0 0 7 2 0 3 16 0 4 22 16 3 7 41
2 0 0 1 2 1 19 4 1 51 117 118 118 76 48 21
3 9 12 57 141 149 149 149 149 149 149 149 148 149 149 148
148 147 148 148 145 138 143 115 130 143 148 147 145 146 123 116
118 101 92 60 25 15 10 8 12 11 9 11 14 15 14 13
12 9 4 23 38 39 39 38 38 37 38 37 35 32 22 10
27 36 38 39 39 37 38 37 37 37 37 37 37 36 36 36
36 36 35 34 34 35 36 34 5 2 31 34 24 22 33 34
25 9 0 7 21 9 2 3 19 1 11 21 18 6 7 40
2 4 0 0 1 0 19 7 7 96 115 118 121 105 35 48
8 10 16 86 145 149 149 150 149 149 149 149 148 148 148 148
148 148 148 147 141 132 142 144 144 148 147 147 146 140 120 127
124 111 102 71 32 16 9 11 12 13 8 6 13 16 13 12
15 13 8 25 38 38 39 38 39 38 38 37 35 31 28 27
32 38 37 38 38 37 38 37 37 37 37 37 37 36 36 36
36 36 35 33 33 30 33 31 6 1 22 24 16 20 31 34
24 11 0 11 23 11 4 2 38 34 38 38 36 32 29 43
2 0 0 0 0 0 18 9 34 112 115 114 113 116 73 29
21 17 36 117 145 149 149 149 149 149 149 149 149 149 148 148
148 148 148 148 147 137 128 138 147 147 147 147 147 128 120 131
134 125 111 77 40 17 13 10 11 12 7 8 14 16 9 10
15 8 13 28 40 38 38 38 38 38 37 37 36 32 31 32
37 37 38 38 39 38 38 37 37 37 37 37 37 36 36 36
36 36 36 33 33 29 23 26 8 0 26 35 28 24 31 34
24 12 0 4 6 4 1 2 41 47 50 51 50 54 57 49
12 8 8 1 0 4 22 14 67 117 118 112 102 113 126 97
56 51 96 129 145 150 149 149 149 149 149 149 148 148 148 148
148 148 147 148 148 137 137 135 146 147 147 147 138 124 127 133
138 139 118 84 46 24 11 13 13 7 8 9 17 11 7 11
17 11 18 32 39 38 38 38 39 38 37 37 36 34 33 35
38 38 38 38 38 38 38 38 37 37 37 37 35 36 37 36
36 35 35 34 33 34 34 34 12 0 23 33 27 21 28 30
26 22 11 2 3 2 0 1 41 47 50 50 50 57 61 57
37 35 34 28 26 26 30 26 95 133 127 115 119 131 115 109
106 107 115 131 146 149 149 149 149 149 149 148 149 149 148 148
148 147 147 147 147 129 141 145 146 145 146 141 126 129 132 137
145 145 123 87 50 29 14 12 12 6 8 9 18 10 3 9
16 13 21 35 38 38 39 38 38 37 36 36 36 35 36 37
37 37 37 36 37 38 37 37 36 35 36 37 36 36 36 36
36 35 35 34 33 33 34 34 14 0 21 32 27 21 28 32
27 26 9 1 3 0 0 1 38 40 44 45 46 49 48 48
41 41 42 40 39 41 39 43 111 148 148 145 147 144 119 98
108 111 119 133 145 148 149 149 149 149 148 148 148 148 148 147
146 148 148 147 146 117 135 147 147 146 138 127 125 131 135 143
146 144 127 94 54 28 19 13 13 3 9 10 11 2 1 7
13 13 19 37 39 38 39 38 37 36 37 37 36 35 37 37
37 36 37 37 37 37 37 36 36 37 36 36 36 36 36 36
36 35 35 34 33 33 34 34 16 0 20 34 28 20 28 32
30 23 3 0 1 0 0 1 41 41 42 42 42 41 37 38
42 43 44 43 42 42 41 49 112 133 136 146 149 149 138 91
106 114 122 136 143 149 148 149 148 149 148 148 148 148 149 148
147 148 148 147 146 117 111 130 133 130 131 127 130 137 145 146
146 145 131 95 63 29 20 11 7 3 5 8 3 1 0 8
8 11 18 38 38 37 37 38 38 37 38 37 37 37 38 38
38 38 38 38 37 37 36 37 36 36 36 35 36 35 36 35
35 35 35 34 33 33 35 34 18 0 17 33 29 20 27 32
26 28 26 22 17 14 11 10 44 43 41 41 40 41 42 44
44 43 46 51 51 43 40 43 97 123 100 85 111 132 141 90
103 113 123 135 147 148 149 149 149 148 148 148 148 148 148 148
147 147 146 147 147 139 116 124 140 142 141 139 144 146 146 146
146 145 134 96 72 36 21 11 8 8 4 3 2 1 2 6
3 9 23 37 37 37 37 38 37 37 38 37 37 37 38 38
37 37 37 37 37 36 37 36 36 35 36 36 36 36 36 35
35 34 34 33 32 33 33 32 19 0 15 33 29 21 26 32
26 35 51 53 49 51 53 52 56 47 44 43 44 45 47 51
49 45 48 54 53 42 38 36 58 111 104 115 109 104 99 85
108 111 120 132 147 148 148 148 148 148 148 147 148 148 148 148
148 148 146 147 147 147 147 146 146 146 146 146 146 146 146 146
145 145 138 112 81 37 23 13 9 7 4 2 2 0 1 3
3 16 32 37 37 37 37 37 37 37 37 36 37 37 37 37
36 37 36 36 37 37 36 35 36 35 35 35 36 35 35 35
35 34 34 33 32 32 34 33 21 0 14 32 29 19 25 31
27 36 59 60 59 59 60 59 60 47 39 37 36 37 44 51
52 46 47 46 45 44 41 36 36 50 69 59 80 122 102 103
109 109 116 129 145 148 149 148 148 148 148 148 147 149 148 148
146 147 146 147 147 147 147 147 147 147 147 146 146 147 146 146
146 145 142 119 67 28 20 24 13 8 2 3 0 0 2 1
4 26 36 37 37 37 37 37 36 36 36 37 38 37 37 36
37 37 36 36 36 36 36 35 35 35 35 35 35 36 35 35
35 34 34 33 32 31 34 33 24 0 11 32 30 20 25 32
28 29 41 43 45 47 49 51 54 32 9 8 5 6 11 26
52 46 32 15 19 23 22 31 38 27 9 4 19 105 105 107
109 111 120 128 138 147 149 148 148 148 148 148 147 148 148 147
148 147 147 147 146 147 146 147 147 146 147 146 147 147 146 146
146 146 143 117 57 42 46 31 12 5 3 1 1 0 0 0
14 33 36 36 37 37 36 35 34 33 32 31 33 36 38 36
36 37 36 36 36 36 36 36 35 35 35 34 36 35 34 35
33 33 34 33 32 32 34 33 26 0 8 33 31 22 25 31
27 27 33 34 33 33 33 32 35 23 2 0 0 0 0 13
49 40 10 0 1 4 12 30 40 26 2 0 0 73 107 105
104 110 122 126 133 145 148 148 146 147 148 149 149 148 148 148
147 147 147 146 144 143 146 146 147 146 148 147 147 147 147 147
147 147 141 123 100 86 55 23 11 6 4 2 0 0 0 2
18 32 35 37 37 36 27 15 15 13 12 10 20 36 38 37
37 37 36 36 36 36 36 35 35 35 35 35 36 36 35 34
35 34 34 34 32 32 33 33 28 1 8 32 32 21 23 31
26 30 41 42 41 40 40 38 39 25 7 1 0 0 4 24
49 29 0 0 0 0 2 31 40 26 0 0 0 59 114 107
97 104 122 131 133 141 146 148 148 148 146 148 147 148 146 147
148 147 147 145 146 146 147 145 147 147 147 147 147 147 147 147
147 146 139 123 114 106 68 34 17 9 5 3 0 0 0 3
10 11 26 37 36 37 26 8 8 7 8 8 18 37 37 37
37 36 37 36 36 36 36 35 35 35 35 34 34 35 34 35
34 33 34 33 31 32 34 34 29 2 8 31 29 19 21 30
26 29 42 43 43 43 43 44 44 27 7 2 0 0 3 16
47 20 0 0 0 0 0 29 39 27 0 0 0 60 106 115
98 89 112 131 136 137 141 145 145 146 148 144 147 147 148 147
144 145 143 142 144 146 147 147 147 147 147 148 147 147 147 146
147 146 138 122 115 116 106 87 51 24 3 3 0 1 1 9
6 5 21 35 36 36 24 8 8 9 8 8 16 36 37 38
37 36 36 36 36 35 35 35 34 35 34 34 34 35 34 34
34 34 33 32 31 30 31 30 27 2 5 27 28 20 22 31
32 33 39 40 41 42 43 43 46 28 1 0 0 2 10 9
44 17 0 0 0 0 0 30 39 26 0 0 0 26 39 53
84 80 92 122 135 135 142 142 144 141 141 144 144 142 143 146
145 142 141 139 144 146 147 147 148 148 148 148 147 147 147 147
147 146 139 120 114 120 121 110 92 45 10 0 1 1 2 13
4 4 17 34 35 35 23 8 8 9 8 8 14 34 39 37
38 37 36 36 35 35 35 35 34 34 33 33 32 34 34 34
34 34 33 33 31 30 31 32 30 4 3 28 31 21 20 28
40 39 38 38 39 39 39 34 44 36 7 0 0 2 8 4
42 14 0 0 0 0 0 29 39 24 1 0 0 0 4 32
86 46 65 102 128 136 138 140 142 136 141 138 141 141 140 138
146 142 144 141 144 148 146 146 148 148 148 148 148 148 148 148
147 147 137 121 116 120 124 119 106 80 25 4 4 3 8 8
5 4 18 35 35 36 25 8 7 8 8 8 11 34 37 37
36 36 35 35 34 34 34 34 34 34 34 34 34 34 33 33
33 34 33 32 30 30 32 32 30 5 1 26 30 22 19 29
40 40 39 40 40 39 38 34 43 41 12 0 0 4 10 6
41 13 0 0 0 0 0 25 40 28 5 0 0 0 4 41
75 84 93 86 112 130 132 137 138 140 141 139 139 135 139 138
139 141 145 147 144 148 148 148 148 149 148 148 148 148 148 148
148 147 136 119 115 122 128 123 113 99 66 12 13 12 7 5
5 4 17 35 35 35 28 13 13 14 15 15 15 30 35 36
35 35 34 28 35 60 22 26 35 35 34 34 34 34 33 33
33 33 33 32 30 29 31 31 30 6 1 25 30 22 19 27
38 37 38 37 38 38 38 35 41 37 1 0 0 0 2 5
42 15 0 0 0 0 0 20 41 25 1 0 0 0 2 51
94 106 103 97 89 113 123 130 130 131 133 138 140 142 142 134
137 139 142 147 149 149 148 149 148 149 149 148 149 148 149 148
148 147 137 118 114 123 131 127 119 108 94 53 30 10 6 5
5 4 17 34 35 35 29 14 13 13 12 13 14 28 36 37
37 36 28 0 1 44 0 6 34 34 32 33 33 32 33 33
33 33 33 33 31 29 31 31 30 8 0 24 30 24 19 28
11 12 12 13 18 31 37 36 39 33 0 0 0 0 0 2
39 17 0 0 0 0 0 18 43 26 3 0 0 1 4 52
93 110 107 103 98 98 112 121 127 130 134 134 130 134 138 134
139 138 144 144 148 148 149 149 148 149 149 148 147 148 148 148
148 147 136 119 116 125 134 131 123 113 102 69 61 13 5 5
4 3 15 33 35 35 28 10 9 9 9 9 10 29 36 36
36 35 26 0 0 17 0 6 34 33 33 34 33 33 33 32
33 32 32 31 29 28 31 31 30 10 0 22 31 24 19 28
0 0 0 0 3 35 38 36 37 32 2 2 1 2 12 5
36 27 9 8 12 10 10 24 44 32 31 29 29 32 36 50
50 70 97 106 108 105 107 115 122 126 129 132 124 125 133 138
143 144 143 136 144 148 149 148 148 148 148 148 148 148 148 148
148 146 134 119 115 126 136 133 126 118 110 90 48 57 4 5
5 3 14 33 34 35 29 9 8 9 9 8 9 29 37 36
35 35 28 0 0 0 0 3 33 35 34 34 34 33 33 34
33 33 33 33 30 30 31 31 31 12 0 20 31 24 18 26
0 0 0 0 2 35 40 36 34 44 38 33 31 34 38 34
37 44 50 46 47 49 50 51 49 34 42 46 48 52 57 59
44 42 80 104 110 111 112 116 123 125 125 125 124 123 126 129
140 143 141 123 139 149 149 148 148 149 148 147 148 147 148 147
147 147 132 118 115 125 135 133 129 122 115 104 36 99 4 6
6 3 13 32 34 35 30 10 8 9 8 9 9 28 36 35
34 34 28 0 0 0 0 2 33 34 35 35 35 34 34 32
33 33 33 32 30 29 31 31 31 13 0 18 31 25 18 26
0 0 0 0 1 33 40 35 32 47 49 42 43 45 42 36
33 40 56 54 52 52 55 56 53 34 37 43 47 53 57 57
46 42 89 102 111 115 117 119 124 124 122 122 118 124 122 128
134 140 138 127 143 148 147 147 148 147 147 147 147 147 148 147
148 146 133 116 115 125 134 132 130 125 119 109 31 107 20 4
6 4 12 32 35 35 30 10 8 7 7 8 9 28 34 21
15 12 9 0 0 0 0 1 32 34 34 33 33 33 33 33
33 32 31 32 31 29 30 31 31 15 0 16 30 25 17 25
0 0 0 0 0 32 41 36 32 47 43 37 40 43 43 35
29 30 39 40 40 39 40 40 42 33 30 35 39 39 36 35
37 45 97 107 110 117 124 120 118 119 115 117 116 119 122 123
130 138 138 140 142 146 148 148 148 148 148 148 148 148 148 147
148 146 134 115 115 124 134 134 132 128 122 112 37 112 46 2
4 3 12 32 35 35 30 10 9 7 8 8 9 29 28 2
0 0 0 0 0 0 0 1 32 35 34 34 33 33 33 33
33 32 32 32 30 29 30 31 31 17 0 15 31 26 18 24
0 0 0 0 0 29 41 35 31 45 30 33 33 36 42 36
30 29 25 27 27 28 29 28 32 34 35 38 39 38 34 32
35 44 94 105 109 114 121 120 119 113 110 112 112 117 117 126
129 127 132 139 142 146 148 145 148 148 147 147 147 147 148 148
148 147 133 117 114 121 133 136 135 130 124 108 39 119 60 4
3 4 12 33 35 36 31 10 7 8 8 8 9 27 33 5
0 0 0 0 0 0 0 0 31 35 34 34 33 33 32 32
33 32 33 32 31 29 30 31 31 18 0 12 31 27 18 23
0 0 0 0 0 25 42 35 34 45 16 11 12 15 19 19
21 30 30 34 34 41 42 38 38 41 42 46 49 47 38 35
35 39 78 99 100 106 108 113 109 103 105 103 110 115 114 121
124 124 126 136 145 148 145 147 148 148 148 147 148 148 148 148
148 146 132 116 112 118 129 135 138 133 126 95 44 124 69 4
3 3 9 31 34 36 32 11 6 8 8 7 7 26 36 22
0 0 0 0 0 0 0 0 30 34 34 34 33 33 33 33
33 32 33 32 31 29 32 31 32 21 0 10 29 26 17 23
0 0 0 0 0 22 42 35 37 48 11 0 0 0 1 5
17 33 38 48 44 54 57 30 22 24 26 30 39 50 40 36
35 37 53 80 90 92 96 101 95 90 91 96 99 107 113 116
123 121 126 134 140 146 145 147 149 149 149 148 148 148 148 148
148 146 132 116 112 118 124 133 139 136 128 74 60 132 77 4
5 5 4 12 30 34 32 17 14 15 10 13 15 27 36 32
9 1 0 0 0 0 0 0 7 27 35 34 33 33 33 33
32 32 33 33 31 29 31 34 34 23 0 9 30 26 19 23
0 0 0 0 0 18 41 34 39 52 13 0 0 0 0 0
19 32 34 47 32 35 44 12 0 0 0 1 20 49 41 36
36 36 37 46 63 72 80 75 68 71 84 94 93 98 106 109
113 121 124 132 139 143 148 148 148 148 150 149 148 148 149 148
148 147 135 116 111 115 124 133 138 136 110 55 102 133 82 5
5 4 3 4 4 1 1 4 10 18 20 31 33 35 27 19
10 0 0 0 0 0 0 0 0 22 36 35 35 35 34 34
34 33 33 33 32 30 31 32 31 23 0 6 26 23 17 22
0 0 0 0 0 16 42 34 37 50 18 0 0 0 0 0
18 33 33 45 14 4 28 12 0 0 0 0 14 46 41 37
37 36 37 36 35 34 39 36 40 49 60 67 75 85 89 94
101 110 117 126 138 145 145 149 149 149 149 148 148 148 147 148
148 148 138 118 112 117 124 130 136 125 67 73 141 129 87 9
8 5 3 4 4 5 2 0 1 3 6 6 13 24 8 0
9 17 0 0 0 0 0 0 0 21 35 35 34 34 34 33
33 33 33 34 34 31 30 32 32 25 0 4 22 21 18 21
0 0 0 0 0 12 41 34 31 24 4 0 0 0 0 0
20 31 33 45 13 2 26 15 0 0 0 0 9 45 42 36
37 36 37 36 37 32 26 26 25 26 30 35 42 52 57 67
81 89 101 111 120 131 145 149 149 149 149 149 149 149 148 148
148 148 137 121 112 117 124 130 129 81 64 136 140 135 101 9
8 9 8 6 7 7 9 3 1 4 5 4 4 6 7 3
7 13 0 0 0 0 0 0 0 20 35 34 34 35 34 34
34 34 35 35 35 32 31 32 32 25 0 3 21 20 18 21
0 0 0 0 0 9 40 34 30 17 0 0 0 0 0 0
21 30 32 45 14 2 23 18 0 0 0 0 5 42 42 35
36 36 36 36 36 35 35 35 35 36 35 26 12 7 11 19
35 55 74 92 109 126 142 149 150 149 149 148 148 148 147 148
148 147 142 124 112 117 123 125 92 65 131 145 139 133 111 9
7 5 7 7 9 11 12 10 5 5 6 4 6 8 6 7
7 6 3 0 0 0 0 0 0 14 31 35 34 35 35 34
35 35 35 35 34 32 31 31 30 24 1 1 19 20 17 21
0 0 0 0 0 8 39 34 30 19 0 0 0 0 1 0
18 30 32 45 13 2 21 19 0 0 0 0 4 41 42 35
36 36 36 35 35 35 35 34 30 17 6 4 3 1 0 0
1 30 67 86 99 115 133 147 149 149 149 148 148 147 148 148
148 148 146 128 114 118 119 92 72 133 147 141 140 136 112 10
10 10 7 6 7 10 10 9 7 2 9 8 9 8 8 9
10 9 7 8 5 3 0 0 0 0 5 15 12 15 35 35
35 36 36 37 36 33 31 31 29 24 1 1 19 20 19 22
0 0 0 0 0 7 40 35 30 20 0 0 0 0 3 0
15 32 32 46 17 4 19 23 4 0 2 3 4 39 42 35
35 36 35 35 35 32 24 11 4 5 2 2 1 1 1 1
3 6 55 83 93 107 127 144 149 149 149 148 148 148 148 147
148 149 146 130 116 114 84 76 140 148 144 140 138 137 117 12
12 9 8 8 9 9 9 9 9 5 5 8 7 6 8 7
7 8 8 6 8 8 6 4 5 6 6 5 3 9 38 39
38 39 39 40 39 37 35 34 31 28 3 0 24 27 25 29
0 0 0 0 0 5 38 34 30 21 0 5 0 0 11 5
12 35 33 45 27 9 16 23 6 7 8 2 4 36 42 35
35 35 34 27 15 6 3 3 4 3 2 1 2 5 6 6
6 7 54 102 88 94 114 136 148 149 148 148 148 147 148 149
149 148 148 132 113 83 84 145 148 146 143 144 143 141 124 20
15 13 9 9 8 10 9 9 9 10 3 7 9 7 7 9
8 10 9 7 9 9 7 6 6 7 7 6 8 16 50 53
53 53 54 54 53 50 46 43 40 36 6 0 23 13 9 9
0 0 0 0 0 4 37 35 30 24 2 7 2 1 13 16
13 38 33 46 27 20 16 21 4 13 10 1 1 32 39 34
33 22 8 2 2 4 3 3 3 3 1 3 3 6 5 4
5 7 47 113 117 97 98 124 139 147 149 147 147 147 147 148
148 148 147 132 90 101 148 147 148 145 145 144 143 142 123 29
15 14 12 10 10 13 13 12 11 10 10 2 8 7 7 7
7 7 9 8 6 7 8 8 7 7 6 6 13 35 54 55
55 55 55 56 55 52 46 42 41 39 8 0 25 1 0 0
0 0 0 0 0 3 36 34 29 30 29 33 34 34 38 40
39 46 35 46 20 26 18 27 18 20 19 17 17 29 29 17
10 5 4 2 1 1 0 0 1 1 2 2 9 7 4 5
4 6 44 115 123 127 108 104 130 144 146 148 148 145 145 148
149 149 148 116 120 149 148 148 145 146 143 141 142 140 132 36
12 11 10 10 11 10 10 9 10 8 9 7 5 9 8 7
7 8 10 9 8 9 11 9 7 7 6 6 6 6 11 30
50 53 53 51 51 48 42 39 39 39 10 0 19 0 0 0
0 0 0 0 0 3 36 34 29 31 48 50 52 52 52 52
53 53 39 45 12 16 18 32 28 28 28 26 20 12 9 9
7 9 8 7 7 4 2 1 0 0 2 8 7 7 5 4
5 6 41 111 116 131 133 99 102 123 134 139 142 141 143 147
148 148 136 137 148 148 148 146 146 143 140 142 140 136 125 23
15 13 10 9 10 9 11 9 10 10 10 10 5 7 10 6
6 9 9 10 10 8 10 9 8 8 8 7 6 6 6 7
8 22 35 32 38 36 29 33 38 39 11 0 11 0 0 0
0 0 0 0 0 2 34 34 28 26 47 50 49 49 49 49
48 47 40 44 11 5 12 32 29 26 18 11 9 8 8 10
10 9 10 9 10 8 7 4 3 2 7 7 6 5 6 6
4 6 20 110 117 132 141 144 103 91 110 121 130 137 142 146
148 143 147 148 148 148 147 146 145 143 139 138 135 136 115 16
15 12 10 10 9 10 9 10 8 12 13 14 9 4 9 8
8 8 9 10 11 8 7 10 9 6 7 5 6 6 4 7
4 4 5 8 15 21 25 33 38 39 13 0 5 0 0 0
0 0 0 0 0 2 33 33 28 22 23 23 22 21 22 21
20 19 24 42 12 3 10 26 15 9 8 8 8 8 9 10
8 9 9 11 10 9 9 8 9 11 11 8 8 7 6 4
5 8 5 86 111 128 142 148 149 102 96 114 123 129 137 142
144 148 148 148 148 148 146 146 144 143 139 137 141 140 98 21
17 16 13 11 12 13 14 15 15 14 11 11 10 8 5 10
9 9 9 8 9 9 8 9 8 10 7 8 7 6 6 4
6 5 4 4 4 5 8 27 36 37 14 0 2 0 0 0
0 0 0 0 0 1 33 33 27 23 18 17 17 17 18 17
17 16 22 42 15 4 7 8 8 9 9 8 7 9 9 9
11 10 11 12 11 11 11 10 11 11 12 12 9 7 7 6
7 11 4 48 109 122 142 146 148 148 101 100 118 119 124 142
149 149 149 148 148 146 148 144 145 140 137 140 144 145 105 29
17 15 16 14 12 11 12 10 11 9 10 11 10 11 6 7
10 8 10 9 9 10 9 7 8 10 7 7 5 8 7 6
7 6 6 6 5 4 5 8 23 35 16 0 0 0 0 0
0 0 0 0 0 1 32 33 27 26 23 22 21 20 19 18
19 17 23 31 12 7 7 8 8 9 8 8 7 9 9 9
9 10 12 11 10 11 10 11 13 13 12 12 11 10 7 7
8 15 5 21 106 118 139 148 147 149 148 95 90 119 144 148
148 148 148 148 148 147 145 144 142 138 139 144 145 143 109 22
14 12 13 10 11 10 10 10 9 11 11 10 12 11 12 5
8 10 9 10 9 11 10 8 9 8 10 8 8 7 7 7
6 8 7 6 6 4 5 4 4 15 16 0 0 0 0 0
0 0 0 0 0 4 34 34 27 26 24 24 24 24 24 23
22 16 9 6 7 6 7 8 9 8 7 8 10 8 10 10
12 12 11 10 10 9 11 15 16 14 14 13 12 9 11 9
11 17 9 15 106 113 133 142 146 145 94 118 110 142 149 149
148 149 147 148 147 146 145 140 140 139 139 142 146 146 84 11
17 13 13 11 11 11 11 11 10 9 11 12 14 11 9 9
3 8 8 10 10 10 11 10 8 10 9 7 8 7 7 7
7 6 7 7 6 4 6 6 9 9 8 0 0 0 0 0
18 19 20 22 22 24 30 29 27 26 25 24 23 23 22 16
9 5 6 6 6 7 6 9 8 8 8 11 10 10 10 11
12 13 9 9 11 9 13 14 14 14 14 14 13 12 10 9
10 15 15 27 113 115 129 137 144 93 62 133 118 133 149 149
148 148 148 147 146 146 142 139 140 143 146 146 145 144 77 23
13 12 12 10 9 9 9 10 11 12 11 9 9 9 10 10
8 5 9 12 10 10 9 9 8 9 10 12 10 8 7 7
9 6 8 7 8 6 5 5 5 7 4 0 0 0 0 0
29 29 28 28 28 27 27 27 27 26 26 25 24 17 7 7
6 6 6 6 5 7 7 8 8 8 9 11 9 10 10 10
13 10 9 9 8 13 12 14 13 14 14 11 12 14 12 9
12 18 21 49 124 116 125 136 129 47 105 123 127 122 148 148
148 149 148 147 146 144 142 141 142 144 144 146 147 139 97 30
15 13 14 12 14 13 11 12 12 9 7 8 10 9 7 8
8 7 3 10 8 11 13 11 12 9 10 13 8 7 8 8
9 7 7 9 8 7 6 6 4 6 3 0 0 0 0 0
29 29 28 28 27 27 27 27 27 26 26 22 11 5 5 6
5 5 7 6 6 8 10 9 9 10 11 10 10 12 11 12
12 10 10 8 12 14 12 12 13 12 13 13 14 13 11 11
14 17 32 76 126 121 122 135 88 77 119 141 142 125 133 149
149 149 148 146 146 142 142 144 144 145 147 147 146 128 85 35
15 13 15 15 14 12 10 10 8 9 9 8 9 9 9 11
12 10 5 4 10 11 11 13 11 10 10 11 10 8 8 8
10 8 9 10 10 8 8 5 3 7 3 0 0 0 0 0
29 28 27 25 24 24 23 23 23 25 21 6 4 4 5 6
5 7 8 8 8 9 10 9 10 10 12 11 10 10 12 15
12 13 11 10 18 19 17 16 14 15 14 14 13 13 14 14
14 18 35 101 131 128 120 128 65 103 143 141 141 126 123 150
150 149 148 146 144 144 144 147 146 147 147 148 140 130 101 37
16 14 14 13 12 13 12 10 10 9 10 9 12 12 12 13
11 10 11 4 7 12 13 12 14 12 9 10 12 7 7 9
10 11 10 10 9 10 9 4 6 6 2 0 0 0 0 0
7 5 4 12 19 21 20 26 26 27 10 9 4 8 7 7
7 11 9 8 10 12 10 10 10 12 12 11 12 10 12 13
13 12 9 16 15 16 15 15 15 14 14 15 17 17 17 17
16 20 59 126 129 129 122 130 42 114 146 139 141 123 131 146
150 149 147 145 144 148 146 147 148 148 149 148 142 145 108 37
18 15 17 14 14 15 13 13 11 12 14 14 13 12 12 12
12 11 11 10 3 10 14 14 14 13 12 11 14 11 9 11
10 12 9 12 10 11 9 5 9 8 2 0 0 0 0 0
12 0 0 10 20 24 23 25 26 24 5 8 7 9 7 8
10 9 10 10 12 12 9 10 10 11 10 11 12 12 14 10
11 9 16 17 15 15 16 16 15 15 15 14 15 14 16 18
18 20 74 129 130 139 125 110 38 119 148 134 133 138 133 142
150 149 145 144 148 147 148 148 148 148 148 145 123 137 102 35
16 17 16 16 14 13 13 15 17 16 15 14 12 12 10 12
13 12 12 12 7 2 12 14 13 14 12 10 13 12 9 10
12 10 10 10 11 12 10 3 8 8 2 0 0 0 0 0
40 6 2 10 18 22 24 24 26 18 3 8 8 9 7 9
11 9 10 9 13 10 9 11 12 11 11 11 12 15 15 11
8 14 17 15 16 16 16 16 15 15 14 14 15 16 16 16
20 23 77 145 137 132 128 103 33 116 152 133 121 120 140 143
149 149 148 146 148 148 148 148 148 148 148 138 127 126 109 54
16 17 17 16 15 13 17 18 16 15 13 13 11 13 13 12
14 13 17 16 4 1 11 13 13 14 13 11 12 13 10 9
10 10 13 10 12 12 12 1 8 8 2 0 0 0 0 0
54 26 16 17 16 20 22 22 24 12 3 6 6 8 9 9
10 8 9 10 13 9 10 12 12 10 11 11 10 15 12 13
12 15 18 19 17 16 17 15 14 12 14 13 14 15 17 16
17 22 80 146 137 140 132 119 39 124 152 146 125 117 138 143
144 149 147 147 149 148 148 149 149 148 147 130 122 132 116 63
15 18 16 15 13 15 17 14 14 15 12 11 12 13 14 14
14 15 16 7 1 6 10 13 13 15 12 10 11 12 10 10
9 11 11 9 9 12 9 2 9 7 0 0 0 0 0 0
57 39 23 20 17 20 23 25 26 9 4 6 6 8 9 11
9 9 8 12 10 8 11 11 12 11 11 10 12 14 11 9
14 16 16 15 15 18 18 18 18 17 17 17 15 18 17 15
19 21 87 145 148 136 129 108 64 114 152 149 134 116 134 140
145 146 147 148 149 149 149 149 144 147 138 136 142 135 116 59
14 17 15 16 14 13 16 13 13 14 12 12 12 13 16 16
14 14 12 1 2 8 10 12 12 12 10 10 10 10 14 10
8 11 12 9 9 9 5 3 8 5 0 0 0 0 0 0
37 29 22 21 20 19 18 17 16 3 3 9 4 7 9 12
9 9 9 14 10 9 10 12 10 11 11 9 13 10 10 11
14 15 15 15 14 15 15 14 15 15 15 15 18 17 16 14
19 23 95 146 147 144 112 102 102 119 151 150 140 114 123 132
142 136 148 148 148 148 148 147 149 141 123 139 149 146 131 53
13 17 14 14 13 13 14 13 13 12 13 15 16 15 14 12
12 11 4 0 4 10 10 13 10 11 12 12 9 11 14 9
10 11 11 7 8 9 1 5 7 3 0 0 0 0 0 0
32 21 13 12 13 12 12 12 11 1 3 9 3 7 10 12
9 8 10 12 9 10 10 12 10 10 10 12 13 9 10 16
14 14 15 14 12 14 15 14 16 14 13 15 19 16 15 14
19 23 87 150 146 138 68 125 125 121 150 150 147 127 119 123
139 114 145 149 149 149 148 148 148 129 105 138 145 148 145 73
16 19 15 15 15 17 17 15 15 14 13 16 14 14 15 13
13 8 0 0 9 10 8 9 8 11 12 12 10 10 12 11
10 8 10 10 8 9 0 7 6 3 0 0 0 0 0 0
32 22 12 12 12 12 12 12 10 0 3 7 3 5 10 9
8 7 11 10 8 10 10 10 10 10 10 11 11 11 7 12
16 15 13 13 13 14 13 14 14 13 14 14 18 17 14 13
16 23 94 148 143 122 68 138 125 123 139 148 149 144 131 115
123 105 125 148 149 148 147 149 144 126 135 141 137 145 146 84
15 15 14 15 14 15 13 14 13 15 14 12 12 13 11 11
9 2 0 4 10 13 8 8 9 11 12 11 9 9 10 11
12 9 9 6 6 2 1 7 4 1 0 0 0 0 0 0
32 23 11 11 10 10 10 10 7 0 3 7 4 4 11 9
9 9 12 7 9 10 11 10 12 10 10 11 9 9 7 8
14 15 15 16 16 15 14 15 13 13 14 14 16 15 14 12
17 26 87 144 134 75 123 139 125 130 139 140 143 147 149 147
141 112 117 142 149 149 149 146 143 148 148 144 136 145 145 82
14 14 14 13 12 16 13 13 14 11 15 12 11 10 14 11
5 0 1 10 12 11 7 8 10 10 12 10 10 8 8 13
9 7 6 6 5 1 3 7 3 1 0 0 0 0 0 0
31 22 12 13 15 17 20 18 9 0 3 8 6 2 11 10
8 8 10 7 9 9 10 10 11 10 13 12 10 10 8 2
10 13 13 13 13 14 15 15 15 15 16 14 18 15 13 12
14 23 86 142 90 94 142 140 134 141 149 146 141 139 140 141
146 145 107 113 148 149 148 146 147 145 139 142 147 146 133 74
16 15 14 12 12 17 13 15 14 11 14 12 11 11 10 11
2 0 6 11 10 9 7 8 10 10 12 11 9 9 10 10
8 7 5 5 2 0 4 8 2 1 0 0 0 0 0 0
