P2
128 120
155
37 37 36 35 34 34 33 32 31 31 30 30 29 28 28 27
27 26 25 24 24 23 23 22 21 21 20 19 19 18 17 17
17 17 17 5 0 0 0 0 0 0 0 0 0 0 0 2
6 3 0 0 0 0 0 0 0 0 0 0 0 0 1 0
0 0 0 0 0 0 0 0 0 0 0 0 0 0 0 0
0 2 6 11 16 18 18 18 18 19 19 19 20 20 20 21
22 22 23 23 24 25 25 25 26 26 27 27 29 29 29 29
29 30 31 32 33 33 33 34 35 34 35 36 36 36 36 36
37 36 36 35 34 34 33 32 32 31 31 30 30 28 28 28
27 26 25 24 24 23 23 23 23 22 21 20 19 19 18 17
17 17 17 13 3 0 0 0 0 0 0 0 3 3 0 10
13 10 8 5 2 0 0 0 0 0 0 0 0 0 1 0
0 0 0 0 0 0 0 0 0 0 0 0 0 2 5 9
14 18 19 18 19 19 19 19 21 21 21 21 22 22 23 24
25 25 25 26 26 27 28 28 28 29 30 30 29 30 31 32
33 34 34 35 35 35 35 36 35 36 36 36 36 36 37 37
37 37 36 35 35 34 33 33 32 31 30 30 29 29 28 28
27 26 25 25 25 24 23 23 22 22 21 20 20 19 19 19
18 17 17 16 11 6 2 0 0 0 4 8 10 6 0 11
15 12 11 10 10 6 2 0 0 0 0 0 0 0 0 0
0 0 0 0 0 0 0 0 0 0 1 6 11 15 18 18
18 18 19 20 20 21 21 22 22 23 23 23 24 25 25 26
26 26 27 28 28 29 30 29 29 30 31 32 32 33 33 33
35 34 36 35 36 36 36 36 37 37 36 37 37 37 38 37
37 36 36 35 35 34 33 33 32 32 31 30 30 29 28 28
27 26 25 25 25 24 24 23 23 22 22 21 21 20 19 19
19 18 17 16 13 9 6 6 4 6 11 13 14 10 1 11
15 14 12 12 11 10 8 6 2 0 0 0 0 0 0 0
0 0 0 0 0 0 1 4 9 13 16 17 18 18 19 20
20 21 21 21 22 22 23 23 24 24 25 25 26 27 27 29
29 29 29 29 30 29 30 31 32 32 33 33 34 35 35 36
36 36 37 36 37 37 37 36 36 36 37 37 38 37 38 38
38 37 36 36 35 34 34 33 33 32 31 31 30 29 28 28
28 27 26 25 25 25 24 23 22 22 22 21 21 20 20 20
18 18 18 16 14 12 9 8 9 12 14 15 15 12 4 11
18 17 15 13 12 11 11 9 6 4 3 0 0 0 0 2
0 0 0 1 6 11 14 17 18 18 19 19 20 20 21 21
21 23 22 24 24 25 25 25 26 26 27 27 28 28 29 28
29 29 30 31 32 32 32 33 34 33 34 35 35 36 35 36
36 36 36 36 37 37 36 37 36 37 36 37 37 38 37 37
37 37 36 35 35 35 34 33 33 31 31 31 30 30 29 29
28 27 27 25 25 25 24 24 23 22 22 21 21 20 20 19
19 18 18 16 16 13 11 10 9 13 16 15 16 14 8 14
22 19 18 17 16 13 12 11 8 7 5 5 6 9 12 12
3 5 11 15 18 17 18 18 19 19 20 21 21 21 23 23
24 25 25 25 26 26 26 27 27 28 28 28 28 28 29 30
30 31 32 32 33 34 33 33 35 35 35 35 35 35 36 36
37 36 36 37 36 36 37 36 36 37 36 37 37 38 37 37
37 36 36 36 35 35 34 33 33 32 31 31 30 29 28 28
27 27 26 26 25 25 25 24 23 23 22 22 21 20 20 19
19 18 18 18 16 14 13 11 11 13 16 17 18 16 11 16
22 20 17 17 17 16 15 12 10 9 8 8 12 15 14 13
12 15 17 17 19 19 20 20 21 21 21 22 22 23 23 24
24 26 25 26 27 27 28 28 28 28 29 29 30 30 31 31
32 32 33 33 33 34 34 35 35 36 35 35 36 36 35 35
36 36 36 35 36 36 36 36 35 36 37 37 37 37 37 37
37 37 37 36 35 35 33 33 32 32 31 31 30 30 29 28
28 27 27 26 25 25 24 24 23 22 22 22 22 21 21 19
19 19 18 18 17 15 14 13 13 15 18 20 21 19 11 15
24 21 18 17 17 16 15 14 12 11 10 8 11 14 15 13
17 18 19 20 20 21 21 21 21 22 23 23 23 23 24 25
26 27 27 27 28 27 27 27 28 29 29 30 31 32 32 32
33 33 33 34 35 34 35 35 35 36 36 35 36 36 36 35
36 35 36 36 36 36 37 36 35 36 37 37 37 37 37 38
38 37 36 36 36 34 34 33 33 32 32 31 30 29 29 28
28 27 27 26 26 25 25 25 24 23 23 22 22 20 20 20
19 19 18 18 17 16 15 14 14 17 20 22 22 19 10 14
24 21 20 19 18 17 16 15 13 15 14 10 10 15 14 15
16 19 20 21 21 22 22 22 23 23 25 24 25 25 26 26
26 26 26 27 27 28 29 29 30 31 31 31 32 32 32 33
33 33 33 34 35 35 35 36 35 36 36 36 35 36 36 36
36 35 36 36 36 36 36 36 36 36 37 37 37 35 35 35
38 37 36 36 35 35 34 33 33 32 32 31 31 30 30 29
29 28 27 27 26 26 26 24 24 24 23 23 22 22 21 21
20 20 19 19 18 17 16 15 15 19 22 23 24 20 13 13
26 23 21 21 19 18 17 16 15 16 15 12 10 17 15 17
19 21 21 23 22 24 24 24 24 25 25 25 26 26 27 27
27 28 28 29 29 30 30 30 32 32 31 32 32 33 33 34
34 34 35 35 35 35 36 36 36 36 35 36 36 35 36 36
36 36 37 37 37 37 37 36 36 35 36 36 36 37 37 37
38 37 37 36 35 35 34 34 33 33 32 32 31 30 29 29
29 28 27 27 26 26 25 25 25 24 23 23 23 22 21 21
20 20 19 19 19 19 18 17 18 21 23 24 25 21 13 12
26 23 21 20 20 19 18 16 17 17 17 14 10 17 16 18
20 21 22 24 23 24 25 25 25 26 26 26 27 26 27 27
28 28 29 29 30 30 30 31 32 33 32 32 33 33 34 34
34 34 34 34 35 35 35 35 36 36 35 36 36 36 37 37
36 36 36 36 35 35 35 36 37 37 37 36 37 37 37 36
38 37 36 36 36 35 34 33 33 32 32 32 31 30 30 29
28 28 28 27 26 26 25 25 24 24 23 23 23 22 22 21
21 21 21 21 20 20 19 19 19 22 25 25 25 22 15 12
26 23 22 22 21 20 19 18 18 18 17 15 11 17 18 21
22 22 24 24 25 25 26 25 26 26 27 27 28 27 28 28
29 30 30 30 31 31 31 32 32 33 32 33 33 33 34 34
34 35 35 35 36 36 36 35 36 37 36 36 36 36 36 36
35 35 36 37 38 37 38 38 37 38 37 38 37 37 36 37
38 37 37 36 35 35 34 33 34 33 32 32 31 31 30 30
29 28 28 27 27 27 26 26 26 25 25 24 23 22 23 22
21 21 20 21 21 20 20 20 20 24 26 26 26 22 16 13
27 24 22 22 22 21 20 19 19 19 19 17 14 18 20 22
24 24 24 24 25 26 27 27 28 27 29 28 29 29 30 30
30 30 31 31 31 32 32 32 32 34 33 33 34 34 35 35
35 35 35 35 36 36 36 36 36 37 36 36 35 36 36 37
37 38 37 37 37 37 38 37 37 37 38 38 37 37 37 37
38 37 37 36 36 35 34 34 34 33 33 32 32 31 31 30
30 29 29 28 27 27 26 26 25 25 25 25 24 24 23 23
23 23 22 22 21 20 21 21 22 24 26 26 27 24 17 14
27 26 23 23 23 22 22 22 21 20 20 19 14 18 21 23
24 25 25 26 26 27 27 28 28 29 29 29 29 29 30 30
31 31 31 32 32 32 33 33 34 34 34 34 34 35 35 35
35 36 36 37 36 36 35 35 35 36 36 36 37 37 36 37
38 38 37 38 37 37 38 38 37 37 37 37 37 37 36 37
38 37 36 36 36 36 35 34 35 34 33 33 33 32 30 30
30 29 29 27 27 27 27 26 26 25 25 25 25 24 24 23
23 22 22 21 21 21 21 21 22 25 28 27 28 24 18 14
26 26 23 23 23 23 22 22 21 20 20 20 17 20 21 25
25 25 27 26 27 28 28 28 29 29 30 29 30 31 30 31
31 31 31 32 32 32 33 33 33 35 34 35 36 35 36 36
34 33 35 35 35 35 36 37 37 36 36 37 37 37 37 37
37 38 38 38 38 37 38 38 37 37 37 36 37 38 38 37
38 38 38 37 36 36 35 35 34 34 33 33 33 32 32 31
31 31 29 28 28 27 27 27 26 26 26 25 25 24 25 24
23 23 23 23 23 22 22 22 23 26 28 28 28 25 19 16
26 26 24 23 25 24 23 22 22 22 21 20 19 22 23 26
27 26 28 28 29 29 30 30 30 30 30 30 31 31 32 32
32 32 32 32 33 33 34 34 35 35 34 35 35 35 35 34
35 35 36 37 36 37 38 37 37 37 37 38 38 37 38 37
38 38 38 39 39 39 38 38 38 38 37 38 37 38 37 37
38 37 36 36 36 35 35 35 35 34 34 33 33 32 32 31
31 30 30 29 29 28 28 27 27 27 26 26 25 25 24 24
24 23 22 22 22 22 22 22 23 27 29 29 29 26 20 14
23 27 24 23 24 24 24 23 22 22 22 22 20 23 25 27
27 28 28 28 29 29 29 30 30 30 31 31 31 31 32 32
32 33 33 33 33 34 34 34 34 34 33 33 33 34 35 36
36 37 36 36 37 36 37 37 37 37 37 37 38 38 38 37
38 38 38 38 38 38 38 38 38 38 38 38 37 38 37 37
37 37 37 37 36 36 35 35 35 34 33 33 32 32 31 31
31 31 30 30 29 28 28 28 27 26 26 26 26 25 25 25
25 24 23 23 23 22 22 23 23 27 29 29 29 25 21 10
18 27 25 25 25 25 24 24 23 23 23 22 20 25 25 28
28 29 29 29 29 30 30 30 31 31 31 31 31 32 32 32
32 33 33 34 34 34 33 32 33 34 35 35 36 36 36 37
36 37 37 37 37 37 37 38 37 37 37 37 38 37 37 37
37 38 38 38 38 38 38 38 38 37 38 37 37 37 37 37
38 37 37 36 36 36 35 34 35 34 34 34 33 33 32 32
30 30 30 30 29 29 28 28 28 28 26 26 26 26 25 25
24 24 24 23 23 23 22 23 24 27 30 30 30 27 19 15
22 28 25 25 25 24 24 24 24 23 24 23 21 26 27 28
29 29 29 30 30 29 30 30 30 31 32 32 32 33 33 33
33 33 33 32 33 33 34 34 35 35 35 36 36 36 36 37
37 38 37 37 38 37 38 37 37 37 37 37 38 38 38 38
37 37 38 37 37 38 38 38 38 37 38 38 37 38 38 37
38 38 37 37 37 36 35 35 35 34 34 33 33 32 32 32
31 31 30 30 29 29 29 29 28 27 27 27 26 25 25 25
24 24 24 24 24 23 23 23 25 27 31 30 30 27 20 20
21 29 27 26 26 25 25 25 25 24 25 24 22 26 26 28
29 28 29 30 30 30 31 31 31 32 32 32 32 33 32 33
33 32 33 34 35 34 34 35 35 35 36 35 36 36 36 36
36 37 37 38 37 38 38 37 38 38 38 38 38 38 38 38
37 38 38 38 38 38 39 38 38 38 38 38 38 37 37 35
38 38 37 36 36 36 35 35 34 34 34 33 33 33 33 31
32 31 31 30 30 30 29 29 28 27 27 27 27 26 26 25
25 24 24 24 24 24 23 23 25 28 30 30 30 28 21 21
21 29 27 27 26 25 25 26 26 24 24 24 22 27 27 28
28 28 29 28 27 30 30 31 31 31 31 31 32 31 32 33
34 33 34 34 35 34 35 35 35 36 36 36 37 37 37 38
38 38 38 37 38 37 38 37 37 38 38 37 38 37 37 37
38 38 38 38 38 38 38 38 38 37 37 37 37 37 38 38
38 38 37 37 37 36 36 35 34 35 34 33 34 33 32 32
32 31 31 30 30 30 30 29 29 28 28 27 27 26 27 26
25 25 25 25 25 24 24 24 26 28 31 30 30 27 21 22
21 29 28 27 27 27 26 27 27 26 26 26 23 27 26 27
27 26 25 22 19 20 27 31 30 30 31 32 31 30 32 33
34 34 32 33 34 34 35 35 36 36 37 36 36 37 37 38
38 38 38 38 38 39 38 38 38 38 38 37 38 37 38 38
38 38 38 38 38 38 37 37 38 38 38 38 38 37 37 37
38 37 37 36 36 36 36 35 35 34 34 34 34 34 33 33
32 32 31 30 30 29 29 28 28 28 28 27 27 27 27 26
26 26 25 25 25 24 24 25 26 29 31 31 31 28 22 23
21 29 28 27 27 27 26 27 27 25 24 24 22 25 21 21
22 22 22 16 17 13 20 28 26 26 29 27 22 27 32 31
31 31 32 32 35 34 35 35 36 35 36 36 37 37 37 38
38 39 39 39 38 38 38 38 39 38 38 38 37 38 38 38
37 37 38 38 38 38 39 38 38 37 38 37 37 38 37 37
38 38 37 37 36 36 36 35 35 35 34 34 34 33 33 33
32 32 31 31 30 31 30 29 29 28 28 28 27 27 26 26
26 26 25 25 25 25 24 25 26 29 32 32 31 29 22 25
21 28 28 29 28 28 27 27 27 24 18 12 10 11 14 18
19 14 10 15 13 12 6 15 17 19 20 20 23 25 23 23
26 30 32 31 35 35 35 35 36 36 37 36 37 37 38 38
38 38 39 38 39 39 39 39 39 38 38 38 38 38 38 39
39 38 38 38 37 37 38 38 37 38 37 38 38 37 37 36
37 37 37 36 36 36 35 35 35 35 35 34 34 34 33 34
33 32 32 31 31 30 29 28 29 28 28 28 28 28 27 27
26 26 26 25 25 24 25 25 26 28 32 32 31 29 22 24
23 28 29 28 28 28 27 27 21 10 2 3 4 3 3 4
7 5 4 4 3 1 1 3 4 7 10 11 14 15 15 16
16 19 21 26 28 32 36 37 36 35 36 37 36 37 38 38
39 40 39 39 39 39 38 37 37 37 37 37 38 37 38 38
38 38 38 38 37 38 37 38 38 37 37 37 37 36 37 36
38 38 37 37 36 36 36 36 36 35 35 34 34 33 33 33
32 32 31 31 31 30 30 30 29 30 30 29 29 28 27 27
27 27 26 26 26 25 26 26 27 29 33 32 32 30 23 25
24 28 29 29 29 28 25 15 3 0 0 1 0 0 2 2
1 1 0 0 0 0 0 1 2 9 7 7 14 14 13 16
18 19 20 20 23 24 30 33 32 30 32 35 38 37 38 38
38 38 37 38 37 38 38 39 39 40 38 38 38 38 38 38
37 38 38 38 37 37 38 37 38 38 38 37 37 38 38 37
38 38 37 37 37 37 36 36 36 36 35 35 35 34 34 33
33 33 32 32 31 30 30 30 30 29 29 29 29 29 28 28
28 27 27 27 26 26 26 26 27 30 33 33 33 31 23 26
26 28 30 30 28 25 14 2 0 0 2 0 1 0 0 0
1 2 1 0 0 0 0 0 4 4 1 1 3 4 5 7
10 11 13 13 14 16 20 20 20 23 24 28 35 33 36 38
38 38 39 39 40 39 39 39 40 40 39 38 38 38 39 38
38 38 39 38 38 38 38 38 37 38 38 37 38 38 38 38
38 37 37 37 37 37 37 36 36 36 36 35 35 34 34 34
33 33 33 32 32 31 32 31 31 30 30 29 29 29 28 28
27 27 26 26 25 25 26 27 28 31 34 33 34 32 23 27
28 26 29 29 25 12 1 0 0 5 0 0 0 1 0 1
2 1 0 0 0 0 0 1 8 0 0 0 2 0 0 3
6 7 7 8 8 11 11 11 14 17 22 21 27 33 32 39
39 39 39 40 39 39 39 39 39 40 41 38 39 39 39 39
39 38 38 39 38 38 37 37 37 38 38 38 39 38 38 38
38 38 38 37 37 37 37 36 36 35 36 35 35 35 35 34
34 33 33 32 32 31 32 31 31 30 30 30 30 29 29 29
28 27 27 27 27 26 27 27 28 30 34 33 34 32 24 27
30 26 31 27 14 3 0 0 6 1 0 1 0 0 0 2
3 0 0 0 0 1 0 6 4 0 1 0 1 1 3 2
3 4 6 9 8 8 9 6 6 10 11 14 19 27 35 35
40 40 40 40 40 40 39 39 40 40 40 39 38 38 38 39
38 39 39 38 38 38 39 38 38 38 39 38 38 38 38 38
38 38 38 38 37 37 37 36 36 36 35 35 35 35 35 34
33 33 33 33 32 32 32 32 32 31 31 30 30 30 29 28
28 28 28 28 27 27 27 28 29 31 35 35 34 32 24 27
31 25 29 19 4 0 0 6 3 0 2 0 0 0 1 2
1 0 0 1 0 0 1 10 0 0 3 3 3 4 5 5
9 13 13 10 10 11 10 6 3 3 6 11 15 18 31 33
40 40 40 40 40 40 40 40 40 40 41 39 39 39 39 39
38 38 38 38 38 38 38 38 37 39 39 38 38 38 38 39
39 39 38 38 37 37 37 37 36 36 35 36 35 35 35 34
34 34 33 33 32 32 32 31 31 31 30 30 30 30 29 30
30 29 28 28 28 28 28 28 29 31 35 35 34 32 24 27
32 24 20 7 0 1 3 4 1 4 0 0 0 0 3 4
1 0 2 0 0 0 8 5 0 0 6 4 4 7 6 10
17 31 32 31 34 33 23 16 12 9 4 5 12 16 22 34
37 40 40 40 40 41 40 40 40 40 40 39 39 39 39 39
39 39 39 40 39 39 39 39 39 39 39 39 39 39 37 36
38 38 38 38 37 37 37 37 37 37 36 36 36 35 35 35
35 34 34 34 33 33 33 32 32 32 31 30 31 30 30 30
29 29 28 28 28 29 29 30 30 32 36 36 36 33 25 28
34 20 10 2 2 6 9 4 5 3 1 2 1 3 7 3
2 1 0 1 0 5 9 3 0 4 8 7 8 11 7 17
28 51 59 60 70 75 62 35 21 9 7 5 7 16 16 30
36 40 40 40 40 40 40 40 39 39 41 39 39 40 39 39
39 39 40 39 39 39 40 39 39 38 39 37 35 35 35 36
39 38 38 38 38 38 38 37 36 36 36 36 35 35 35 34
34 34 34 33 34 33 32 33 32 31 31 30 30 30 30 30
30 29 29 29 29 29 29 29 30 32 36 36 35 33 24 27
32 12 6 0 6 8 10 5 4 3 3 4 3 7 9 1
2 2 1 0 5 9 7 2 3 7 10 8 11 15 10 20
35 56 69 81 92 102 95 75 42 12 3 4 5 8 16 24
33 39 40 40 40 39 40 40 40 39 40 39 39 39 40 39
40 39 40 39 38 38 37 38 39 38 39 39 38 38 37 37
39 38 39 39 38 37 37 37 37 36 37 36 36 35 35 35
35 34 34 34 33 32 32 32 31 32 32 31 31 31 31 30
30 30 30 29 29 29 29 30 31 33 37 37 36 34 26 27
21 8 1 5 8 8 8 5 8 4 4 4 8 10 5 1
3 1 4 2 8 4 6 2 12 6 11 10 16 19 13 28
38 61 76 93 103 111 110 99 81 33 0 0 1 6 14 21
31 40 40 41 40 40 40 40 40 40 41 40 40 40 39 39
39 38 39 38 38 38 39 39 39 39 38 38 37 37 37 37
39 38 38 38 38 37 37 37 37 37 36 35 36 35 35 35
35 34 34 33 33 32 32 32 31 31 31 31 30 30 30 30
30 30 30 30 29 29 29 29 31 32 36 36 36 34 24 22
9 6 4 10 6 11 8 9 5 6 3 8 7 7 3 1
4 3 2 6 6 7 7 12 9 5 13 11 17 21 14 35
37 70 87 104 107 117 118 112 101 79 23 0 0 3 10 14
29 38 39 39 40 40 40 40 40 40 39 36 37 38 38 38
38 39 40 40 38 37 39 37 37 37 37 37 36 36 36 35
37 37 36 37 36 36 36 36 37 36 36 36 36 35 35 35
34 34 33 33 32 32 32 32 32 32 31 31 31 31 30 30
30 30 29 28 29 28 29 29 30 32 36 36 36 34 24 14
4 2 11 6 7 9 8 6 6 3 6 5 10 3 2 3
1 4 3 6 4 7 12 8 2 5 15 12 21 23 17 44
48 80 99 107 110 118 120 117 114 102 73 11 0 0 2 8
26 38 39 39 38 37 37 37 37 37 37 38 38 38 38 38
37 38 39 40 38 38 37 36 37 37 36 37 36 37 36 35
22 34 37 37 37 37 36 35 36 35 35 35 35 34 34 34
34 33 33 33 33 33 32 32 32 31 31 30 31 30 30 30
29 29 29 29 29 28 28 28 29 31 35 35 34 33 22 9
3 6 13 5 11 9 8 8 9 5 8 9 6 2 2 5
3 8 6 8 10 13 14 3 6 12 15 12 23 25 20 45
62 88 104 110 116 123 121 121 120 114 100 59 1 0 0 1
21 35 38 36 36 37 38 38 38 38 37 38 37 37 37 37
37 37 37 38 36 37 36 36 37 36 36 36 35 35 35 34
15 32 37 36 36 35 36 35 35 35 35 35 35 34 34 34
33 33 32 32 32 31 32 31 31 31 30 31 31 30 30 29
29 29 28 28 28 28 28 28 29 31 35 34 34 33 15 7
3 9 7 8 12 4 8 10 7 11 8 6 5 8 6 7
9 8 10 8 12 11 7 8 12 17 18 15 28 26 34 54
82 98 109 113 121 127 122 124 127 123 114 93 29 0 0 0
22 36 39 38 38 37 38 37 37 37 37 37 36 37 37 37
37 37 37 38 36 36 35 35 37 35 35 35 35 35 35 34
15 31 37 37 37 36 35 34 35 36 35 35 34 34 33 33
33 33 32 32 32 32 32 32 33 38 36 33 31 30 30 29
29 29 29 29 29 28 29 29 30 31 35 35 35 27 11 5
2 12 8 11 8 10 15 11 4 12 7 5 9 10 8 7
12 11 16 8 13 12 10 9 17 20 21 17 32 28 44 59
90 100 116 118 127 126 128 131 131 128 120 106 71 2 0 0
17 35 38 37 37 37 37 37 38 37 37 37 37 36 37 37
37 37 36 37 36 36 36 36 36 35 35 35 34 35 35 33
15 32 37 36 36 36 35 40 44 42 41 38 36 34 33 34
34 33 33 32 32 32 32 31 38 47 44 39 39 37 32 30
30 30 29 29 29 29 29 28 30 32 36 35 34 19 10 4
7 12 9 10 8 12 13 10 7 10 6 12 17 14 12 14
12 16 14 9 13 16 14 12 21 18 20 22 34 31 47 70
95 111 122 129 132 130 129 132 132 129 123 113 95 27 0 0
16 36 38 38 37 38 38 37 37 37 37 37 37 36 37 37
37 37 37 37 36 36 36 36 36 36 36 35 35 35 35 34
17 33 38 37 37 36 36 44 48 46 44 41 39 39 38 35
34 34 34 33 32 33 33 32 39 45 43 40 41 40 37 30
30 30 29 29 30 29 29 29 30 32 36 35 29 14 6 4
7 8 11 10 6 10 11 5 12 11 8 17 15 14 17 11
14 13 8 15 18 18 18 19 25 21 23 25 40 36 60 90
100 124 125 140 139 135 133 132 130 129 124 115 103 62 0 0
16 37 37 38 38 38 38 37 37 38 37 37 37 37 37 37
37 36 37 36 36 36 37 36 36 37 36 35 36 36 35 35
19 38 40 39 38 37 36 44 49 47 43 43 44 46 47 40
41 40 37 34 33 34 33 33 36 35 37 37 40 41 39 32
31 31 31 30 30 30 30 30 31 32 36 36 24 12 9 5
12 10 11 8 12 7 13 10 14 9 13 20 16 19 15 17
15 10 14 18 22 21 18 28 21 23 27 33 42 45 79 106
109 125 137 141 141 140 139 133 130 127 122 115 106 88 6 0
17 39 38 39 38 38 38 38 38 37 37 37 37 37 37 37
38 37 37 37 38 36 37 37 36 36 36 36 36 35 35 35
19 39 42 39 40 40 39 42 29 34 41 45 48 48 46 34
30 38 41 41 39 39 38 35 35 20 16 17 20 25 32 33
31 30 30 30 30 30 30 31 31 32 36 32 20 12 12 6
7 6 11 8 12 13 14 10 10 11 17 20 20 21 17 21
19 13 14 18 18 19 20 25 23 25 29 37 36 57 96 106
118 132 141 141 141 140 141 137 131 124 121 111 105 98 25 0
21 39 38 39 38 38 38 38 37 37 38 38 37 37 37 37
38 37 37 37 37 37 37 37 36 36 37 36 36 35 34 34
19 39 42 34 34 40 45 45 4 0 11 26 31 35 42 21
0 3 9 17 23 32 38 39 36 19 6 10 10 2 11 34
31 31 31 31 30 30 31 31 31 32 36 31 23 16 10 5
13 8 11 9 9 13 9 13 11 10 16 16 24 19 22 24
21 15 18 19 23 18 23 27 25 26 30 32 40 67 101 106
124 138 142 142 141 142 141 140 135 129 122 113 104 99 42 0
25 39 38 39 39 37 38 37 37 37 37 37 37 38 37 37
38 38 38 38 38 37 37 37 36 36 35 34 33 34 35 35
17 31 39 41 41 42 48 47 5 0 3 11 14 13 30 20
0 0 0 0 0 1 5 16 37 17 1 3 4 2 9 36
31 32 31 31 31 30 31 31 32 33 37 29 20 14 6 8
13 9 8 11 11 11 8 12 9 15 16 18 21 17 26 23
21 17 21 21 22 25 26 25 26 29 31 40 51 90 113 116
134 142 142 141 141 141 140 141 138 132 123 109 105 98 57 0
32 39 39 39 39 37 37 37 38 37 38 37 38 37 37 38
38 38 38 36 35 36 35 36 36 36 36 37 37 36 36 36
14 2 4 11 23 34 43 45 6 0 1 6 8 9 28 23
0 0 0 0 0 0 0 6 37 13 0 0 2 0 10 37
33 32 32 32 31 32 31 32 32 33 36 24 18 11 8 14
11 11 9 11 10 8 9 10 13 15 17 17 21 23 27 22
15 13 19 19 20 25 26 22 26 27 32 46 72 110 121 123
132 126 113 102 88 79 66 52 39 26 16 17 32 93 75 5
37 39 39 39 39 38 38 39 38 38 38 38 39 39 39 39
38 38 39 38 38 38 37 37 36 36 36 36 37 35 36 35
14 0 0 0 0 0 4 19 8 0 0 0 0 4 24 21
0 0 0 0 0 0 0 5 36 6 0 0 0 0 11 38
32 33 32 31 32 32 32 32 33 34 35 17 14 10 11 12
11 13 10 8 7 13 13 12 14 15 14 14 16 21 27 20
18 20 20 20 23 23 21 19 25 22 23 37 43 35 26 16
12 11 11 12 11 11 11 12 16 18 22 27 1 23 83 24
38 40 40 39 39 39 39 39 39 39 39 38 40 40 40 40
40 39 39 38 38 37 38 38 36 37 37 37 39 37 37 38
14 0 0 0 0 0 0 9 7 0 0 0 0 1 26 21
0 0 0 4 7 0 0 4 36 5 0 0 0 0 10 40
33 33 33 33 32 32 33 32 34 34 31 17 10 13 13 12
10 9 10 10 12 16 14 15 11 12 11 12 15 17 27 20
22 22 22 25 26 24 27 26 22 19 21 26 17 14 17 16
20 21 24 22 24 21 16 13 12 10 8 6 0 0 25 55
38 39 38 40 40 40 40 40 40 39 40 40 40 40 40 39
39 39 38 38 38 38 38 38 38 38 38 38 39 37 38 38
14 0 0 0 0 0 0 8 6 0 0 0 0 1 29 23
0 0 0 8 14 9 3 3 35 4 0 0 0 0 8 39
33 33 32 32 32 32 32 32 33 33 28 14 10 12 12 12
13 12 12 15 17 14 12 11 13 11 12 9 12 20 25 26
22 21 25 20 27 33 26 22 17 19 24 30 33 35 36 35
33 32 27 28 29 29 27 20 15 10 9 28 3 6 2 45
41 40 40 40 40 39 39 39 38 37 38 40 39 39 40 39
39 39 39 38 39 39 38 39 38 39 38 37 37 36 35 35
14 0 0 0 7 2 0 6 5 0 0 0 0 0 26 26
0 0 0 10 15 14 11 2 34 5 0 0 0 0 5 40
33 32 33 32 32 32 33 33 33 33 25 11 11 12 11 17
15 14 15 21 20 13 13 11 8 9 12 14 17 25 29 23
14 17 17 13 20 26 33 40 54 88 113 121 124 124 124 123
121 118 111 110 112 112 97 56 28 15 6 23 0 4 6 13
44 39 39 39 39 38 40 39 39 38 38 39 40 40 39 39
39 39 39 39 39 37 37 38 39 38 35 34 34 34 32 30
14 0 7 4 4 1 0 6 6 0 0 0 0 3 26 28
0 0 0 8 14 13 11 2 34 10 0 0 0 0 4 39
33 33 33 33 32 32 32 32 34 34 21 16 12 10 14 18
15 15 17 20 16 14 13 14 12 10 14 18 23 41 66 46
16 20 33 41 41 44 57 84 112 138 142 142 142 142 143 143
142 142 142 142 141 140 123 64 44 30 14 19 0 1 8 4
35 39 39 39 39 38 38 39 37 38 38 39 40 39 39 38
39 39 37 35 35 35 37 35 33 30 26 23 19 16 15 13
15 3 8 0 2 1 0 6 7 0 0 0 0 8 30 33
1 1 1 0 4 11 11 1 36 38 29 20 15 11 15 41
33 33 33 33 33 33 33 34 35 32 16 15 10 9 13 13
14 14 20 23 17 18 14 12 13 12 15 44 102 105 98 89
94 57 48 55 54 69 99 126 139 142 142 142 142 142 142 142
142 142 142 141 142 142 131 73 55 39 21 22 0 0 3 5
23 39 39 39 39 39 39 39 38 38 38 39 38 37 37 36
37 34 31 27 24 22 19 16 15 14 14 14 15 16 16 16
15 2 1 0 0 0 0 9 27 14 8 8 2 1 26 49
34 28 24 16 8 5 6 1 34 45 43 42 43 47 49 46
33 33 33 33 33 33 32 33 35 27 15 13 3 8 10 17
19 20 19 17 19 17 15 11 12 14 22 120 126 135 137 120
108 113 81 71 81 97 124 141 142 142 142 142 142 142 142 142
142 142 141 142 141 141 116 59 41 20 13 24 0 0 3 5
18 39 39 38 37 37 39 36 36 34 36 34 31 27 24 21
19 17 16 15 15 15 16 16 17 18 19 19 20 21 20 21
15 1 0 0 0 0 0 12 52 47 40 41 38 29 41 48
22 24 27 30 31 30 31 33 46 42 41 42 44 50 52 48
33 33 33 33 33 34 34 34 33 23 15 3 6 11 13 21
19 20 18 17 21 9 14 15 16 7 63 140 140 144 144 127
80 124 100 106 113 128 140 142 142 142 143 142 141 143 142 142
143 142 142 142 141 139 86 33 18 2 9 22 0 0 2 9
6 13 35 37 35 33 30 27 24 21 20 18 17 17 17 17
18 19 20 21 20 15 22 23 23 25 26 25 26 25 15 26
16 2 0 0 0 0 0 12 55 45 47 51 55 52 48 41
16 15 16 15 15 15 17 19 23 21 25 30 36 39 39 39
34 34 34 33 33 34 33 33 33 21 12 4 15 10 16 18
20 24 18 18 13 12 15 16 14 5 105 142 144 144 143 123
86 136 132 131 140 141 142 142 142 142 142 142 142 142 142 142
142 143 143 141 141 132 52 25 23 14 14 18 0 0 2 14
17 6 19 22 20 19 19 19 20 20 20 21 22 23 24 25
26 26 27 28 27 11 27 29 29 29 26 26 30 19 25 31
18 30 28 19 11 5 2 14 47 39 48 52 55 54 44 35
17 16 15 14 13 12 10 10 9 10 11 13 27 33 30 30
33 34 34 34 34 33 34 34 31 22 9 10 15 11 19 15
22 19 17 18 14 15 16 17 5 15 126 143 145 144 144 136
112 142 143 143 143 142 143 143 143 143 143 143 142 143 142 142
142 142 142 141 141 124 55 54 38 19 15 8 0 0 2 10
7 5 17 22 22 23 24 24 26 26 27 28 29 29 30 30
31 25 25 31 32 19 22 32 33 33 20 29 29 21 33 33
20 42 52 50 46 44 40 42 41 34 45 49 53 54 47 39
21 17 14 11 10 10 11 10 10 11 12 13 29 19 22 33
34 35 33 33 34 33 34 34 33 19 8 9 16 14 18 13
21 16 18 18 17 14 17 10 3 21 134 144 144 144 144 144
126 139 144 143 143 142 143 143 143 143 143 143 143 142 143 143
143 143 142 142 142 135 85 67 54 28 11 2 0 0 2 10
6 11 26 28 29 30 30 31 31 32 32 32 32 33 33 34
34 34 29 27 35 31 14 34 34 32 18 30 20 29 30 34
19 41 52 51 50 50 51 53 31 6 13 20 28 34 33 38
22 15 11 4 4 4 10 13 13 12 16 17 31 29 27 40
40 37 19 19 34 34 34 34 30 19 11 11 14 13 19 8
13 15 16 21 15 16 21 8 7 35 130 143 144 144 144 118
62 141 143 143 143 142 143 144 144 143 143 144 143 143 142 142
143 143 142 142 142 137 96 72 52 28 8 0 0 0 3 18
74 27 32 33 33 34 34 34 34 35 35 34 35 35 36 34
36 36 36 29 27 33 13 29 35 31 19 23 27 31 32 35
19 35 46 47 48 49 51 52 24 0 0 0 1 8 17 38
21 13 9 0 0 0 4 8 6 2 9 11 29 43 37 37
38 41 34 30 34 33 33 34 23 14 14 11 17 16 18 11
14 14 16 17 16 19 19 13 13 52 122 142 143 144 138 110
67 145 142 142 143 143 143 143 143 143 142 143 143 142 143 142
142 142 143 142 142 140 98 70 50 24 7 0 0 0 13 30
107 97 38 35 36 36 36 37 37 37 37 36 36 35 36 35
36 37 36 36 29 28 25 17 34 28 20 17 34 30 32 34
24 29 33 34 37 37 41 48 19 0 0 0 0 0 9 40
19 12 9 0 0 2 0 0 0 0 0 2 26 42 30 27
27 29 33 36 34 33 34 34 20 14 14 13 17 14 18 6
10 9 16 14 19 23 17 19 21 77 92 144 143 144 134 108
112 138 98 127 144 142 142 143 143 144 143 143 143 143 143 142
143 142 142 142 142 141 107 61 43 20 9 0 0 1 38 35
120 118 85 38 37 36 37 37 37 37 37 37 37 37 36 36
35 36 36 36 36 27 24 9 16 13 16 27 34 30 33 32
21 23 22 26 33 31 38 46 18 0 0 0 0 0 3 41
15 7 0 0 0 8 6 1 0 0 0 0 24 44 31 21
34 32 30 33 34 34 34 34 29 18 13 9 15 19 13 0
8 6 19 15 22 27 23 20 30 101 72 137 142 144 134 132
139 115 80 105 145 143 143 143 143 143 143 143 143 143 143 143
143 143 144 143 143 143 133 68 41 20 11 3 0 16 48 54
127 121 115 70 38 38 38 38 38 38 38 38 38 38 36 36
36 36 35 36 37 34 27 9 0 0 22 31 32 29 33 30
21 22 25 29 34 34 40 45 17 0 0 0 0 0 4 42
5 0 0 0 0 4 12 6 0 0 0 0 23 44 30 16
28 25 26 32 34 33 34 34 31 22 14 10 13 15 8 0
1 6 19 15 22 23 23 17 41 115 120 121 143 144 141 140
134 122 99 75 143 142 143 142 142 142 143 143 143 143 143 143
143 143 143 142 142 142 141 110 45 23 13 11 4 48 31 89
125 122 120 112 49 38 38 38 37 37 38 38 37 37 36 36
36 35 35 36 36 34 34 22 0 4 30 31 27 27 31 31
21 8 4 9 15 20 27 33 17 0 0 0 0 0 5 41
6 0 0 0 0 3 15 12 10 0 0 0 22 45 33 16
21 20 24 32 34 34 34 34 33 25 13 10 14 13 4 0
1 7 14 20 18 23 24 16 52 116 127 124 139 144 144 141
140 133 117 70 122 143 143 143 143 142 142 143 142 143 143 142
143 143 143 142 142 142 141 140 94 35 24 27 19 43 32 118
125 123 123 125 91 37 38 38 37 37 37 37 37 37 36 36
35 34 33 33 34 34 35 31 1 6 33 29 23 23 30 33
24 6 0 0 0 0 0 4 14 0 0 0 0 0 6 40
3 0 0 0 3 17 18 15 13 0 0 0 22 45 35 24
22 17 23 31 34 34 34 34 33 26 15 14 17 16 6 2
1 6 10 21 21 22 20 19 62 113 118 123 124 145 144 144
143 144 139 112 128 143 142 143 143 142 142 143 143 142 143 142
143 142 143 142 141 141 142 140 139 102 47 34 39 61 118 126
124 120 130 132 119 52 37 37 38 37 37 37 37 36 36 35
36 35 35 34 34 35 35 31 3 5 32 32 24 22 33 33
24 8 0 0 0 0 0 2 13 0 0 5 3 0 5 38
2 0 0 0 2 14 21 8 3 0 0 1 19 44 36 26
13 4 16 30 34 34 35 34 33 26 17 14 12 12 4 0
2 5 11 18 18 28 21 23 67 110 115 119 116 135 144 144
144 144 143 143 143 142 141 143 142 142 142 143 143 143 143 142
142 142 142 142 142 142 141 141 141 138 123 100 102 124 132 127
113 115 136 138 126 79 37 37 37 37 36 37 37 36 35 35
35 36 34 32 33 35 35 32 4 3 32 33 25 22 32 33
24 8 0 0 3 0 0 1 13 0 1 17 11 1 5 38
2 0 0 0 0 0 15 2 0 0 0 0 15 44 37 20
9 5 13 29 34 34 34 34 33 27 21 14 8 6 6 1
3 6 11 16 13 18 24 25 74 107 112 114 115 117 141 144
144 144 143 142 140 137 142 140 142 141 142 142 142 143 142 142
142 142 142 142 142 142 141 141 141 141 135 126 122 120 123 131
128 135 141 141 135 100 38 37 36 36 36 36 36 36 36 36
36 36 35 33 34 35 34 33 6 2 30 33 22 21 31 33
22 7 0 4 17 6 0 1 15 0 7 16 13 4 4 35
1 1 0 0 0 0 15 4 0 0 0 0 11 43 34 11
7 0 12 28 34 35 34 35 32 28 24 10 8 1 1 2
8 5 12 17 15 14 19 30 84 107 112 114 113 114 119 141
143 143 143 143 142 136 142 142 142 142 143 142 143 142 143 141
142 142 142 141 142 142 142 141 141 141 136 128 120 114 121 137
139 141 141 141 140 115 45 36 37 37 37 36 36 36 35 36
35 35 35 33 33 29 33 30 6 1 22 23 16 19 30 33
19 8 0 6 19 7 2 1 33 30 34 34 32 27 24 38
1 0 0 0 0 0 14 5 0 0 0 0 6 43 30 8
7 1 20 28 33 34 34 34 30 31 28 8 4 0 0 2
7 6 18 17 11 13 22 35 84 108 111 112 114 116 116 117
137 145 144 144 143 135 134 140 141 141 140 141 142 142 142 142
143 142 142 142 142 142 142 141 141 140 137 127 114 111 123 141
142 141 139 132 130 117 51 37 37 37 37 37 37 37 37 36
36 35 35 33 32 28 22 25 7 0 24 32 26 22 30 32
20 9 0 1 3 0 0 0 37 42 46 46 45 49 53 45
8 5 5 0 0 0 17 8 1 1 0 0 4 37 27 6
1 3 11 26 33 34 34 33 29 32 33 10 1 0 0 5
5 4 12 18 11 15 24 37 88 107 111 114 115 115 115 110
101 126 141 143 142 127 119 139 142 142 142 143 143 143 142 142
142 142 142 142 142 142 142 142 141 141 136 121 112 107 112 136
110 92 72 98 122 102 44 38 38 37 36 37 36 37 37 36
36 35 35 34 32 33 33 33 12 0 23 31 25 21 27 29
21 18 7 0 0 0 0 0 36 42 45 44 45 52 56 52
33 30 29 23 21 21 25 19 15 12 12 9 14 32 31 13
11 12 5 19 32 34 33 33 28 33 37 15 3 0 0 5
7 7 8 14 9 16 26 39 84 108 115 119 121 121 118 114
101 98 113 125 123 106 116 142 141 139 141 141 142 141 142 142
142 142 142 142 142 142 141 142 141 140 134 118 113 116 97 105
112 117 106 94 105 66 38 37 36 36 36 36 36 36 36 36
35 34 34 33 33 32 33 33 14 0 20 31 27 20 27 31
22 21 5 0 0 0 0 0 33 36 40 40 40 44 44 43
36 37 37 35 35 36 35 33 30 27 25 23 25 35 39 28
26 21 17 20 32 34 34 33 28 34 38 25 11 1 0 2
7 6 11 11 4 13 30 45 83 112 120 129 136 139 137 131
121 111 123 139 137 123 134 140 139 140 141 140 142 142 142 141
141 141 142 141 142 141 141 141 141 141 133 122 113 118 117 119
119 97 77 72 52 39 38 37 37 37 36 36 36 36 36 35
34 34 34 33 32 32 33 33 17 0 20 33 29 20 28 32
26 20 1 0 0 0 0 0 36 36 38 38 38 37 33 34
37 38 40 39 37 37 37 36 36 40 38 35 34 38 46 45
44 43 40 34 33 34 34 33 29 34 39 34 10 4 1 5
7 5 7 10 9 11 26 49 79 112 122 132 139 144 145 145
144 144 144 144 143 142 142 136 128 137 137 138 142 141 141 142
142 142 142 143 142 141 142 142 141 141 136 120 104 112 109 111
96 51 40 40 40 39 39 38 38 37 36 36 36 36 36 36
35 35 35 33 32 33 34 33 18 0 17 33 28 20 26 31
22 24 22 18 14 11 8 7 40 39 37 37 37 37 38 40
41 40 43 47 47 38 36 37 40 48 46 43 42 41 37 31
30 32 32 32 33 34 34 34 29 34 39 37 10 7 1 8
7 3 5 9 10 16 30 59 87 115 122 129 137 144 144 144
144 144 144 143 143 143 142 139 131 126 130 138 141 138 143 142
142 142 143 141 141 142 141 141 141 141 137 116 99 109 116 113
81 39 39 39 38 38 37 37 37 37 37 36 36 36 36 36
35 35 35 34 32 32 33 33 21 0 16 32 29 21 27 31
24 33 48 49 45 45 49 47 50 43 40 39 39 40 44 47
46 42 45 51 50 39 35 32 39 49 47 44 44 43 39 32
27 25 25 28 33 35 35 34 29 35 39 39 18 2 1 6
4 9 4 9 10 20 24 64 96 115 122 132 140 144 145 145
145 144 144 143 143 142 142 140 128 115 125 139 138 141 143 143
142 142 143 143 142 143 142 142 141 141 137 106 101 124 133 117
88 39 38 38 39 38 37 37 37 36 35 36 36 36 35 34
34 34 35 33 32 32 34 34 23 1 14 32 29 21 26 31
24 33 55 56 55 56 56 55 56 43 35 33 33 34 41 47
48 42 43 42 42 40 37 32 33 38 35 34 40 41 40 37
33 31 32 33 35 36 36 33 30 37 40 40 23 1 0 6
6 11 4 10 7 16 26 65 102 115 122 133 141 145 145 145
145 144 144 144 143 144 142 141 133 125 125 134 135 141 142 142
142 142 142 141 141 142 142 142 141 140 130 91 103 117 86 72
73 43 39 39 38 38 37 37 37 36 36 36 36 36 35 35
34 34 35 33 32 31 34 34 25 1 13 33 30 21 26 32
25 27 39 40 42 44 46 47 50 29 6 7 4 5 10 24
48 42 29 12 17 19 19 28 34 22 4 2 5 13 20 37
35 35 38 41 43 42 36 32 31 37 40 40 34 5 0 11
7 8 6 10 6 15 27 65 109 116 121 133 139 144 145 144
144 144 144 144 144 144 143 142 135 132 135 136 136 142 143 141
143 142 143 143 142 142 142 142 142 141 122 72 63 73 57 19
41 41 39 39 38 38 38 38 37 36 36 35 36 37 35 35
35 34 35 34 33 32 35 34 28 1 11 33 32 22 25 31
25 24 30 30 30 29 29 29 32 20 1 0 0 0 0 10
46 36 8 0 0 2 9 27 37 22 0 0 0 5 16 29
16 20 23 24 31 43 37 31 31 37 40 41 38 15 3 10
5 9 7 8 10 18 31 59 109 118 122 131 141 144 144 144
144 144 144 144 144 143 143 143 141 134 136 135 133 137 138 139
142 141 141 142 142 142 142 141 141 140 118 100 106 108 105 85
56 39 39 38 38 37 37 36 36 35 35 35 36 36 36 35
35 35 36 34 33 32 34 34 29 1 10 33 32 21 23 30
24 26 37 38 37 36 35 34 35 21 3 0 0 0 2 21
46 26 0 0 0 0 1 28 37 23 0 0 0 2 14 26
1 4 6 1 7 41 38 30 32 36 38 39 38 24 6 7
3 5 4 6 13 13 33 61 107 118 122 127 138 144 145 144
144 144 144 144 143 143 142 143 142 137 133 130 131 131 135 136
140 140 142 141 141 141 141 141 140 134 115 110 132 138 131 121
98 58 38 37 38 37 36 36 36 35 35 34 34 35 34 34
34 33 34 34 32 32 34 33 30 2 9 31 30 20 21 29
24 26 38 39 39 39 39 40 41 23 3 0 0 0 1 12
42 16 0 0 0 0 0 25 35 23 0 0 0 1 13 27
1 9 13 3 4 39 38 30 33 36 38 39 38 31 8 5
6 6 1 7 11 15 29 62 108 118 121 127 135 141 145 144
145 144 144 144 143 143 143 142 143 139 138 137 137 134 134 134
136 138 139 141 141 139 141 137 137 128 118 124 134 140 142 137
120 79 38 37 36 35 35 35 34 34 35 34 35 35 35 35
34 34 34 32 31 30 31 31 27 3 6 26 28 20 22 30
28 29 34 36 37 38 38 39 42 23 0 0 0 1 6 5
39 13 0 0 0 0 0 26 34 21 0 0 0 0 7 28
1 3 5 0 3 39 38 29 33 36 38 39 38 34 20 3
8 7 4 6 15 15 34 61 107 120 122 125 131 138 144 143
144 143 144 144 144 143 143 143 143 141 141 140 138 130 133 128
132 136 137 140 140 140 139 135 133 125 123 133 138 136 136 123
102 77 37 37 36 35 35 34 34 33 33 33 32 33 34 34
33 33 33 33 31 30 30 31 29 4 4 28 29 21 19 27
35 34 34 34 34 35 34 29 40 32 4 0 0 0 4 2
37 11 0 0 0 0 0 25 35 20 0 0 0 0 2 30
2 6 8 2 2 37 38 29 34 36 38 39 39 37 23 3
1 1 1 2 11 24 51 79 106 122 123 124 130 139 144 144
144 144 144 144 143 142 143 142 143 141 142 140 134 127 126 127
126 128 137 140 138 140 137 136 133 128 131 135 136 137 131 117
86 51 35 35 33 33 34 34 34 33 34 34 34 34 33 33
33 33 32 31 30 29 31 31 29 5 1 25 29 21 19 27
35 34 35 34 34 33 33 29 37 36 7 0 0 1 6 2
35 11 0 0 0 0 0 20 36 23 3 0 0 0 1 31
5 1 2 0 2 36 36 28 34 35 38 38 37 37 30 9
1 0 0 1 7 35 63 97 115 122 124 123 128 137 144 144
144 144 144 143 143 143 143 143 143 142 142 139 136 126 121 125
119 123 127 133 133 139 139 137 133 130 131 128 136 134 130 111
72 39 34 30 33 59 22 25 34 33 32 32 32 32 32 31
31 32 31 30 29 28 30 30 28 6 1 24 29 22 18 26
33 33 33 33 33 33 33 30 36 32 0 0 0 0 0 1
35 11 0 0 0 0 0 16 37 21 0 0 0 0 0 31
9 0 0 0 1 33 35 28 34 35 37 39 37 36 34 22
5 0 0 0 8 56 90 108 119 122 125 123 126 137 144 144
144 144 144 144 143 143 143 143 142 142 142 141 135 119 116 123
121 119 118 123 131 138 139 137 134 125 132 131 130 128 133 120
68 35 27 1 1 43 0 7 33 33 32 32 32 32 32 31
31 31 31 31 28 27 30 29 28 8 0 22 29 22 18 26
8 9 10 10 14 26 32 31 34 28 0 0 0 0 0 0
34 14 0 0 0 0 0 14 38 21 1 0 0 0 1 30
13 0 0 0 3 32 34 29 34 35 37 38 36 33 32 23
20 8 1 0 14 72 98 111 120 123 123 122 124 135 144 144
144 144 144 143 143 142 144 143 143 143 142 138 128 116 117 122
120 121 118 117 124 129 131 134 137 132 131 133 129 136 136 120
69 34 27 0 1 18 0 6 33 33 33 33 32 33 32 32
31 31 31 30 29 28 30 30 30 10 0 21 30 23 18 27
0 0 0 0 2 30 34 31 32 28 1 0 0 1 8 2
31 23 7 6 9 8 8 20 41 28 26 25 24 27 30 42
20 5 3 3 7 31 32 28 33 35 37 36 33 35 34 25
25 33 29 24 33 81 101 111 122 123 122 120 123 133 142 144
144 144 144 144 143 143 143 142 143 142 137 133 126 124 123 120
117 112 118 116 120 121 126 130 136 129 131 126 124 132 135 107
66 34 29 0 0 0 0 3 33 34 33 33 33 33 33 32
32 32 31 32 29 28 31 30 31 12 0 20 30 23 17 25
0 0 0 0 1 31 35 31 29 39 33 29 26 29 33 30
33 39 45 42 43 44 45 47 45 29 38 42 44 47 53 54
38 30 29 28 29 34 31 28 32 34 36 34 34 35 33 25
24 35 38 38 55 84 101 113 121 124 122 118 122 130 142 144
144 144 144 144 143 143 143 140 141 139 134 127 122 121 122 117
117 114 113 114 113 119 126 128 136 129 129 122 118 118 120 95
55 35 29 0 0 0 0 2 33 34 34 33 33 32 33 32
32 32 32 31 29 28 30 30 31 13 0 18 31 25 17 25
0 0 0 0 0 29 35 31 27 42 44 37 38 41 38 31
29 36 51 48 48 47 50 51 49 30 33 39 43 48 53 52
41 31 31 31 31 31 31 28 29 33 32 34 36 34 34 27
25 36 39 52 67 88 101 113 123 124 121 117 120 128 140 145
144 144 143 144 144 143 143 142 140 140 135 127 129 129 119 117
114 114 109 112 111 115 121 120 123 123 129 122 114 111 103 82
30 13 10 0 0 0 0 2 32 34 34 32 33 33 33 32
32 32 31 32 30 29 29 30 30 15 0 16 30 24 17 24
0 0 0 0 0 27 37 32 28 43 39 34 36 39 39 31
26 27 35 37 37 36 36 35 37 29 27 32 34 35 32 30
32 32 33 33 32 32 32 30 30 30 32 37 37 35 34 25
25 34 39 69 68 92 104 113 122 126 122 116 117 127 139 144
144 144 144 144 143 144 142 143 142 140 136 128 128 126 129 122
117 117 116 111 109 108 112 114 117 124 126 119 111 100 91 61
4 0 0 0 0 0 0 1 32 34 34 34 33 33 33 33
33 31 32 32 30 29 30 31 30 17 0 14 30 26 16 23
0 0 0 0 0 24 37 31 27 40 26 29 29 32 37 32
27 25 22 23 24 24 25 25 28 30 31 34 35 34 31 28
31 33 33 32 32 32 31 31 32 33 35 37 36 34 32 24
27 32 29 81 75 94 104 113 123 123 120 114 116 121 138 144
144 144 144 143 144 144 144 142 142 142 137 140 140 127 129 124
118 117 114 113 108 106 107 103 105 110 109 105 103 92 75 27
0 0 0 0 0 0 0 0 30 34 34 33 33 33 32 33
32 31 32 31 30 29 30 30 30 19 0 12 29 26 17 23
0 0 0 0 0 21 38 31 30 41 12 8 10 12 15 15
17 27 26 30 30 37 38 34 35 38 39 43 45 43 34 32
31 32 32 33 32 32 32 32 32 33 36 38 36 31 28 27
30 25 13 96 78 97 104 113 120 122 118 113 115 120 135 144
144 144 143 144 143 143 144 142 143 141 141 141 139 133 126 122
116 104 102 105 100 96 98 98 93 92 87 86 77 72 56 24
0 0 0 0 0 0 0 0 29 34 35 34 33 33 33 33
33 32 32 32 30 29 30 31 30 20 0 10 29 25 17 22
0 0 0 0 0 18 37 30 33 44 9 0 0 0 0 2
13 28 33 43 39 49 52 26 19 21 23 26 35 46 37 33
32 33 33 32 33 32 32 31 31 33 35 37 34 26 26 27
30 17 17 115 88 102 105 114 121 121 119 112 107 118 135 145
144 145 144 144 144 143 144 144 143 143 143 142 139 138 127 113
109 102 100 94 90 85 81 78 78 66 57 48 45 43 38 32
10 2 0 0 0 0 0 0 8 28 34 33 33 33 33 33
32 32 32 32 30 29 30 33 32 22 0 8 29 26 18 22
0 0 0 0 0 15 37 31 35 48 13 0 0 0 0 0
14 29 31 43 29 31 41 11 0 0 0 0 16 45 38 33
32 31 33 32 32 31 32 32 31 32 35 38 32 22 5 14
25 7 31 114 114 99 110 114 121 120 118 112 106 115 134 145
145 145 144 144 144 144 144 144 143 143 143 142 137 136 129 121
109 102 84 80 71 63 54 46 42 33 26 20 22 34 28 20
11 1 0 0 0 0 0 0 0 21 35 34 34 34 34 34
34 32 32 32 32 29 29 30 30 23 0 5 24 22 16 21
0 0 0 0 0 12 37 31 32 45 16 0 0 0 0 0
14 29 29 41 12 1 23 11 0 0 0 0 10 42 38 33
33 32 33 32 32 32 31 30 31 32 35 35 29 22 6 11
10 6 40 111 132 91 114 117 121 120 116 109 106 109 131 144
145 145 145 144 144 145 144 143 143 143 143 142 137 132 121 109
97 89 77 63 52 39 29 17 9 6 3 4 14 25 9 0
8 19 0 0 0 0 0 0 0 20 35 33 33 33 33 32
32 32 32 33 32 29 29 31 30 24 0 4 22 21 17 20
0 0 0 0 0 9 37 30 28 20 2 0 0 0 0 0
16 27 28 41 12 0 22 13 0 0 0 0 6 40 37 32
32 31 31 32 31 30 31 31 32 33 34 32 21 11 5 6
7 7 46 117 129 118 101 119 123 121 115 108 107 101 123 143
145 145 145 144 144 144 144 143 144 143 143 141 136 121 104 90
72 49 30 15 6 2 0 0 0 0 0 0 0 2 2 1
7 13 0 0 0 0 0 0 0 18 34 34 34 34 33 33
33 33 33 33 32 30 29 30 30 24 1 2 19 20 17 20
0 0 0 0 0 7 35 30 26 14 0 0 0 0 0 0
17 27 29 41 12 0 19 15 0 0 0 0 3 38 37 31
32 32 32 32 32 31 31 31 31 27 15 3 0 1 5 6
6 7 59 118 121 135 100 109 125 123 116 108 107 113 124 139
145 144 144 144 144 144 144 144 143 144 143 143 135 113 97 88
71 35 1 0 0 0 0 0 0 0 0 0 0 0 0 0
1 2 0 0 0 0 0 0 0 15 31 34 34 34 34 33
33 33 33 34 33 31 30 31 29 24 1 1 19 19 17 19
0 0 0 0 0 6 35 30 26 15 0 0 0 0 0 0
15 27 29 41 12 0 17 16 0 0 0 0 2 36 37 31
31 31 31 31 30 31 31 27 15 4 0 0 0 5 8 6
6 9 75 124 123 127 138 94 113 122 116 108 107 113 129 142
145 145 144 144 144 144 143 143 143 142 143 141 128 112 110 102
57 2 0 0 0 0 0 0 0 0 0 0 0 0 0 0
0 1 1 3 2 0 0 0 0 0 5 14 12 15 34 34
34 34 35 35 34 31 30 30 27 23 1 1 18 20 17 20
0 0 0 0 0 5 35 31 26 16 0 0 0 0 0 0
12 29 29 41 16 1 15 19 1 0 0 0 1 33 38 30
31 31 32 31 31 28 17 7 7 2 0 0 5 7 6 7
8 9 74 125 124 125 136 141 90 106 112 107 107 115 129 141
144 145 144 144 144 143 144 144 143 143 143 135 118 116 113 103
39 4 2 0 2 2 0 0 0 0 0 0 0 0 1 3
6 6 7 6 8 8 5 4 6 7 5 4 3 9 36 37
37 36 37 38 38 36 34 32 30 27 3 0 22 26 25 27
0 0 0 0 0 3 34 31 27 18 0 2 0 0 7 3
9 31 29 42 25 6 12 20 3 4 4 0 1 32 37 31
31 31 31 26 15 7 8 11 7 3 1 8 6 6 8 8
8 9 80 128 126 126 128 138 140 83 96 107 108 115 131 142
144 144 144 143 144 143 143 143 143 143 141 123 115 113 118 118
35 7 5 4 4 4 1 0 0 0 0 0 0 2 6 7
8 8 8 7 9 9 7 6 6 8 7 6 8 16 48 51
51 51 51 52 51 48 44 41 39 35 6 0 22 13 9 9
0 0 0 0 0 3 33 30 26 21 1 4 0 0 11 14
10 35 30 42 24 17 13 18 1 9 7 0 0 28 35 30
31 24 11 8 9 9 12 13 8 4 8 9 6 6 7 9
10 13 81 128 127 130 128 135 142 138 71 91 108 116 130 142
143 144 144 144 144 144 144 143 144 143 137 118 123 134 127 117
25 7 5 4 5 4 4 2 0 0 0 4 5 4 6 7
7 8 8 9 9 8 9 8 8 7 7 10 30 48 54 53
53 53 53 54 52 50 45 41 40 37 7 0 24 1 0 0
0 0 0 0 0 2 32 31 26 27 26 30 31 31 34 36
36 43 31 41 16 22 14 24 14 17 16 14 14 27 30 22
11 5 7 10 11 9 9 10 4 7 12 9 6 7 6 7
8 14 82 127 129 127 128 132 140 144 139 73 96 116 132 142
144 145 144 144 144 144 144 144 143 142 128 130 139 134 125 116
18 10 7 4 4 3 4 2 2 2 5 7 7 5 5 6
6 8 9 8 7 9 8 7 7 7 7 7 6 11 29 46
52 51 51 49 50 46 40 38 38 37 9 0 17 0 0 0
0 0 0 0 0 2 32 31 26 28 45 47 48 48 48 48
49 49 35 41 10 12 16 29 25 25 25 24 21 14 10 7
8 8 8 9 9 8 8 5 6 13 11 10 8 6 7 8
9 16 74 129 130 129 133 131 133 141 145 140 83 109 132 143
144 145 144 145 144 145 144 144 140 137 139 143 139 131 118 109
14 8 8 7 5 5 4 6 7 6 8 7 7 7 5 6
7 6 9 9 9 7 10 11 9 9 8 7 6 7 7 8
22 35 41 31 37 36 28 32 38 38 10 0 11 0 0 0
0 0 0 0 0 1 32 32 26 25 45 48 47 46 46 45
45 44 37 40 10 3 10 29 26 28 23 12 8 8 8 8
8 9 9 9 9 9 8 4 13 14 12 8 9 9 10 12
11 18 52 128 128 131 129 132 138 141 143 145 142 100 129 145
145 146 145 145 145 144 142 131 139 144 144 143 139 129 115 97
10 10 10 8 8 9 10 9 8 8 8 8 7 7 7 6
6 9 9 10 10 8 9 9 10 9 8 7 8 7 7 8
6 7 11 17 22 27 25 32 37 37 13 0 6 0 0 0
0 0 0 0 0 2 33 32 26 21 22 21 20 20 19 19
19 17 22 40 11 1 9 29 19 11 7 7 7 9 8 9
8 9 9 8 8 8 6 13 16 16 15 12 13 11 9 7
10 15 32 123 127 129 133 132 133 138 143 145 146 144 122 143
146 146 146 146 146 142 131 142 146 145 146 143 139 123 110 53
11 14 12 10 10 10 10 9 10 9 9 6 7 7 8 5
7 8 8 9 11 10 10 13 11 10 9 9 8 10 8 8
7 6 5 6 5 11 21 33 38 38 14 0 3 0 0 0
0 0 0 0 0 1 31 31 26 21 17 15 15 14 15 15
16 15 20 40 14 1 7 8 7 8 9 9 9 10 8 9
9 10 9 9 9 6 9 13 13 13 13 12 10 9 8 9
12 18 26 116 129 128 131 131 134 138 143 146 145 146 146 135
144 146 147 146 141 128 144 146 145 145 143 142 134 114 108 17
12 14 13 12 10 9 10 9 9 10 10 9 6 7 8 7
7 8 9 7 10 11 9 10 11 12 8 9 8 10 9 7
9 8 7 7 5 5 6 18 32 36 16 0 0 0 0 0
0 0 0 0 0 1 32 31 25 24 22 20 20 18 18 17
16 15 22 38 14 6 7 7 9 7 7 8 10 9 9 9
10 10 9 10 7 8 15 15 14 15 13 12 11 9 10 10
11 18 47 118 131 129 129 130 130 136 141 146 147 146 147 146
142 141 146 140 137 146 146 145 146 144 145 139 125 109 102 7
16 18 19 17 16 14 14 14 13 14 13 14 10 6 6 8
7 6 9 7 11 11 11 10 12 12 10 9 9 9 9 8
8 9 7 6 7 6 6 5 8 26 17 0 0 0 0 0
0 0 0 0 0 4 33 32 25 25 23 22 22 22 22 21
20 17 15 9 5 6 6 8 9 7 7 8 9 8 9 9
11 10 8 8 6 15 16 16 16 14 15 12 11 12 10 11
13 19 69 133 137 135 131 131 132 135 140 145 146 146 147 146
138 130 138 128 142 146 147 145 145 144 143 136 120 115 99 16
17 14 15 14 13 13 13 13 13 12 11 10 9 9 6 7
8 7 9 10 11 11 12 11 11 12 11 9 10 7 8 10
7 8 9 9 7 6 8 7 10 9 14 0 0 0 0 0
17 18 19 20 21 22 28 27 25 25 23 22 22 22 22 22
15 6 5 6 5 6 7 8 8 8 9 8 9 8 9 11
9 7 9 5 12 14 16 15 18 18 18 17 17 15 15 13
15 22 67 139 143 138 135 132 131 134 140 144 145 146 146 139
96 143 141 118 107 145 145 145 145 145 142 130 115 123 106 31
17 15 14 14 14 12 11 11 10 10 10 9 9 8 9 5
7 10 10 11 11 11 13 11 10 9 12 10 10 9 8 9
9 8 9 9 8 6 7 7 10 10 10 0 0 0 0 0
28 27 27 26 27 25 25 25 25 24 24 22 22 20 15 7
5 4 5 5 5 7 9 6 7 7 9 8 9 9 11 11
9 8 7 9 15 12 13 14 14 14 13 13 13 13 11 10
12 18 68 144 144 140 137 134 130 132 138 142 145 144 145 116
118 142 137 104 95 122 146 145 144 142 137 125 118 130 118 36
15 16 15 13 12 13 12 11 10 9 9 10 11 10 8 7
7 11 10 11 12 14 13 12 11 11 12 15 10 9 10 9
10 8 8 9 9 8 8 6 7 7 5 0 0 0 0 0
27 27 27 26 26 25 25 25 24 24 24 23 15 5 3 4
4 5 4 5 4 6 7 6 7 9 9 8 9 9 10 10
8 8 6 15 12 12 12 13 14 15 14 15 15 14 12 12
15 19 52 146 146 144 139 136 131 131 135 141 144 146 139 128
134 146 145 110 117 107 137 146 144 144 132 121 123 134 127 37
17 14 12 12 11 10 10 10 11 11 11 11 9 9 10 9
9 10 11 11 10 12 13 13 13 11 10 13 9 10 9 9
11 8 10 10 9 9 8 4 4 5 4 0 0 0 0 0
27 25 24 23 22 21 20 21 21 23 20 9 3 4 5 4
5 5 4 6 7 9 6 7 7 8 8 10 8 9 11 10
8 4 13 17 17 14 13 13 12 13 14 14 13 12 11 13
16 18 34 136 148 147 142 139 134 131 131 137 143 144 117 123
131 146 145 92 106 103 109 145 145 140 126 123 128 135 126 47
15 15 15 14 13 12 12 11 11 10 8 8 9 8 9 9
11 11 9 12 12 13 12 14 12 13 12 11 12 8 8 11
11 11 11 9 9 9 9 4 6 6 2 0 0 0 0 0
4 3 2 9 16 17 17 23 22 17 4 2 3 5 4 4
6 4 6 5 8 8 8 7 8 9 9 10 11 11 11 9
6 9 14 13 13 14 14 14 14 15 13 15 15 13 15 13
16 19 32 122 146 145 145 144 140 132 131 137 143 134 95 138
133 146 144 111 106 104 93 120 143 137 120 127 131 133 127 58
16 15 13 14 11 11 10 10 9 8 9 9 10 10 12 12
12 10 9 8 11 11 13 12 13 11 9 11 13 9 8 10
9 11 10 11 10 10 8 2 8 4 1 0 0 0 0 0
10 0 0 7 17 20 19 22 20 3 4 2 4 4 4 4
6 6 5 7 9 8 8 8 10 8 9 9 8 12 10 7
6 13 15 13 13 13 13 11 12 11 12 14 16 15 17 16
15 19 65 122 147 146 144 141 143 137 132 138 139 95 88 135
142 142 144 132 103 95 83 94 142 132 126 130 132 133 130 71
15 14 16 14 14 13 12 11 10 9 11 12 13 13 12 12
11 12 14 9 9 11 13 14 13 12 10 10 12 11 9 9
11 10 9 10 9 10 10 2 8 8 1 0 0 0 0 0
37 5 1 7 14 19 20 21 11 6 3 5 4 4 4 7
6 6 5 7 7 7 8 7 11 8 9 8 9 10 8 2
12 13 12 12 11 12 13 13 12 13 14 12 14 14 14 16
18 18 80 132 143 143 144 143 142 140 134 138 136 50 94 131
144 146 145 130 114 103 86 91 131 133 129 130 133 134 137 86
15 15 17 14 14 12 13 14 12 14 15 14 13 12 11 10
12 13 11 10 6 9 11 12 12 12 11 11 12 12 10 10
12 9 10 9 9 10 8 0 6 4 0 0 0 0 0 0
50 23 12 14 13 17 19 20 5 5 3 7 4 5 5 7
7 6 7 10 7 5 7 9 8 9 10 8 12 9 3 6
13 16 15 14 14 13 12 12 13 11 13 13 13 15 13 16
18 19 71 117 136 144 140 141 144 143 140 136 124 35 97 136
145 146 145 135 125 125 81 101 125 134 129 130 131 132 132 80
13 17 18 15 15 13 15 16 16 17 14 13 11 11 12 11
12 11 13 13 10 5 11 12 12 13 12 10 12 11 10 10
8 8 11 8 8 11 7 1 7 6 0 0 0 0 0 0
53 35 19 18 15 17 20 20 2 5 3 8 4 5 7 6
7 6 7 10 6 7 8 9 7 8 9 10 13 6 4 13
12 12 13 13 16 14 13 12 12 11 13 12 12 14 16 16
18 19 42 67 129 145 139 140 142 142 138 135 113 45 105 137
145 146 145 141 132 131 89 97 117 131 133 131 137 132 133 80
16 17 17 16 14 15 16 16 15 15 13 12 11 12 12 13
13 13 16 13 2 7 10 11 11 14 11 10 11 10 11 9
7 11 10 8 10 9 4 2 6 6 0 0 0 0 0 0
33 26 20 19 18 17 15 12 0 4 3 4 6 4 7 5
6 6 9 7 6 7 10 10 7 8 8 10 8 1 9 10
12 14 13 12 14 14 14 15 16 15 15 13 12 15 15 14
17 17 40 53 129 141 142 142 144 144 142 134 96 48 117 138
145 146 146 145 138 126 98 116 100 127 138 135 132 133 135 74
15 18 16 17 15 15 16 13 14 15 13 12 12 13 14 14
14 13 11 4 2 9 10 12 11 12 13 10 9 10 12 8
8 9 9 7 6 8 1 3 7 4 0 0 0 0 0 0
29 20 11 11 10 10 10 6 0 3 3 5 5 5 8 5
6 5 8 7 6 8 9 7 8 7 7 11 3 6 11 12
11 13 11 11 13 12 12 11 11 12 13 14 15 14 15 15
18 19 56 82 119 136 142 138 138 143 141 109 94 41 124 142
145 146 146 146 145 138 98 121 103 93 138 136 133 137 137 67
16 19 17 15 16 14 17 14 14 11 13 12 15 14 15 13
14 13 10 0 8 11 9 11 10 10 12 11 10 10 11 10
8 9 8 9 8 8 0 5 5 1 0 0 0 0 0 0
29 19 10 10 10 10 10 5 0 4 5 3 5 8 8 6
6 9 11 5 7 7 10 8 9 8 8 6 0 6 13 13
11 11 12 9 12 12 11 13 13 11 10 13 18 12 12 13
16 19 62 108 123 131 140 139 144 139 133 93 84 45 125 146
142 142 141 144 145 145 134 119 87 70 132 137 137 136 139 52
15 18 15 16 15 15 17 14 16 14 13 15 14 14 13 12
13 12 3 2 10 10 9 8 8 11 12 12 9 10 10 11
9 8 9 7 7 3 0 6 5 0 0 0 0 0 0 0
29 20 9 9 9 8 7 3 0 4 5 2 6 9 7 7
6 8 8 7 8 9 9 8 7 8 10 6 0 2 9 11
13 14 13 11 10 11 11 11 11 10 11 11 14 14 13 12
15 19 53 111 125 121 139 142 144 140 122 102 60 54 127 143
146 144 143 143 141 143 142 141 85 49 115 138 137 124 130 36
18 20 15 16 16 16 16 16 16 14 16 14 12 15 12 11
10 5 0 8 11 13 8 8 8 11 10 9 8 8 9 12
8 8 7 5 5 1 3 6 4 1 0 0 0 0 0 0
29 21 9 11 13 15 17 6 0 3 5 1 5 9 5 5
5 10 6 7 7 9 7 6 8 7 9 6 2 0 2 11
11 11 12 13 13 14 11 11 9 11 11 10 13 11 13 12
14 19 56 95 128 120 137 141 143 138 128 114 65 93 128 145
142 141 139 140 141 144 143 139 100 53 101 139 139 126 121 21
14 16 14 14 14 15 16 14 14 14 14 15 11 11 13 12
9 1 3 11 12 11 7 8 10 8 11 10 8 8 9 10
8 6 5 5 3 0 3 7 3 2 0 0 0 0 0 0
