P2
128 120
156
40 39 38 38 37 36 36 35 34 33 33 32 31 30 29 29
28 28 27 26 25 25 24 24 23 23 22 22 21 21 21 20
19 19 18 6 0 0 0 0 0 0 0 0 0 0 0 4
8 5 1 0 0 0 0 0 0 0 0 0 0 0 1 0
0 0 0 0 0 0 0 0 0 0 0 0 0 0 0 0
0 1 5 10 15 17 16 17 18 18 18 19 20 21 21 21
22 22 23 23 24 25 26 26 26 28 28 29 30 30 31 30
32 32 32 34 34 35 35 36 37 36 37 38 37 38 38 38
39 38 38 37 37 36 35 35 34 34 33 32 32 31 30 30
28 28 27 27 26 26 25 24 23 23 22 22 21 21 20 20
20 19 19 16 5 0 0 0 0 0 0 1 5 5 0 12
16 13 11 6 3 0 0 0 0 0 0 0 0 0 1 0
0 0 0 0 0 0 0 0 0 0 0 0 0 1 4 8
13 16 17 18 17 18 18 19 20 21 21 21 21 22 23 23
24 24 25 26 27 27 28 29 29 30 31 30 30 31 31 33
34 35 35 35 36 37 37 38 38 38 37 38 38 38 39 38
39 39 38 38 37 36 35 35 35 34 33 32 32 31 31 29
28 28 27 27 26 25 25 25 24 24 24 23 22 22 21 20
20 20 19 18 13 8 4 0 0 2 7 11 13 11 3 14
17 15 13 12 12 8 3 0 0 0 0 0 0 0 0 0
0 0 0 0 0 0 0 0 0 0 1 4 11 15 17 17
18 18 18 19 20 20 21 21 21 23 23 24 25 25 25 26
26 27 28 28 30 30 30 30 30 31 32 33 34 35 35 35
36 37 38 37 37 38 38 39 38 39 38 39 40 39 40 40
40 39 38 38 37 36 36 34 35 33 32 32 31 31 30 30
29 28 28 27 26 26 26 25 24 24 24 23 23 22 21 21
21 20 19 19 16 12 10 9 7 9 14 15 17 13 4 13
18 15 14 14 13 12 10 7 2 0 0 0 0 0 0 0
0 0 0 0 0 0 1 4 8 12 14 16 17 17 18 18
19 19 20 20 21 22 23 23 24 24 25 25 26 26 28 27
28 29 29 29 30 30 31 32 33 33 34 34 36 36 36 36
37 37 37 38 38 38 38 38 39 38 39 39 39 39 40 40
40 39 39 38 38 36 36 35 35 34 34 33 31 31 30 30
30 28 28 27 27 26 25 25 25 25 24 23 23 22 22 21
21 20 20 20 18 15 12 10 12 15 17 19 18 15 6 14
21 20 17 16 14 13 12 10 8 5 3 0 0 0 0 2
0 0 0 1 6 10 14 16 17 18 18 18 20 20 21 21
21 22 22 23 23 24 24 24 26 26 26 26 27 28 28 29
29 30 31 31 33 33 33 34 35 35 35 36 37 37 37 38
38 38 38 38 38 38 38 38 38 38 39 39 38 39 39 39
40 39 39 38 38 37 36 36 36 35 33 33 32 32 31 31
30 29 29 28 28 27 27 26 25 25 24 24 23 22 22 21
21 21 20 20 18 17 15 13 13 17 18 19 20 18 10 16
24 22 20 18 17 15 14 12 9 8 6 5 6 11 13 12
3 4 12 15 17 17 18 19 19 20 20 20 21 21 22 22
22 23 23 25 26 25 26 26 27 27 28 28 28 28 29 30
31 32 32 33 34 34 35 35 36 37 36 37 37 38 38 37
38 38 38 38 38 39 38 39 39 39 39 39 40 40 39 39
40 39 38 38 37 36 36 35 35 34 34 33 32 32 31 31
30 29 29 28 28 27 27 26 26 25 25 24 24 24 23 23
22 21 20 20 18 17 16 14 13 16 19 20 22 19 15 18
26 23 20 19 19 17 16 14 11 10 9 9 14 16 14 14
13 16 17 18 19 19 20 20 20 21 21 22 22 23 23 24
24 25 25 26 26 27 27 27 27 28 28 29 29 30 31 32
33 33 34 34 34 35 36 36 36 37 36 36 37 36 37 38
37 38 39 38 38 38 38 38 38 38 38 39 39 39 39 39
39 39 39 38 38 37 37 36 35 34 33 33 32 32 31 31
30 29 29 29 28 28 27 27 27 26 25 24 24 24 23 23
22 21 21 21 20 19 18 16 16 19 22 23 24 21 14 17
26 23 21 20 19 18 17 16 15 14 12 10 13 16 16 14
17 19 19 20 21 21 21 22 22 22 23 24 24 24 24 25
25 26 26 26 27 27 27 27 28 29 30 31 32 33 33 33
33 34 34 35 36 36 37 36 37 38 37 37 38 37 38 38
38 37 37 38 38 38 38 38 38 39 39 40 40 39 39 39
40 40 39 38 38 37 37 35 35 35 34 34 33 33 32 32
31 30 30 29 28 28 27 26 26 26 25 25 25 24 24 24
24 23 22 22 21 20 19 18 17 21 24 25 26 23 14 16
28 24 22 22 20 20 18 17 15 17 16 11 11 16 15 17
18 20 21 22 22 23 23 23 23 24 24 25 25 25 26 27
26 27 27 27 28 27 28 29 29 31 31 32 32 33 33 34
34 35 35 37 36 37 37 37 37 37 37 37 37 38 38 38
37 38 39 38 39 39 39 39 39 39 39 39 39 37 37 37
40 39 39 38 38 37 37 36 35 36 35 33 34 33 32 32
32 30 30 29 28 29 28 27 27 27 26 25 24 25 24 23
23 23 23 22 21 21 21 19 19 23 26 27 27 23 15 17
29 25 23 23 22 21 20 18 17 18 17 13 12 18 16 18
20 22 22 23 23 24 25 24 25 25 26 25 26 26 26 27
27 26 28 28 29 29 30 31 31 32 32 33 33 34 34 35
35 35 35 35 36 37 37 36 37 38 37 38 38 39 38 38
38 38 39 39 39 39 39 39 38 38 38 38 38 39 39 39
40 39 39 38 38 37 37 36 36 35 35 34 34 34 33 33
32 31 31 30 29 28 28 28 27 27 26 26 26 25 25 25
24 24 24 23 23 22 21 20 20 24 26 27 27 24 16 15
29 26 25 24 23 23 21 19 18 19 18 16 11 18 18 20
22 23 23 24 24 25 26 25 25 26 26 26 26 26 27 28
28 28 29 29 30 30 30 31 32 33 33 34 34 34 35 35
36 35 36 36 37 37 37 37 38 39 37 37 38 38 38 39
38 38 39 38 38 38 39 39 40 39 39 39 39 39 38 38
40 40 39 38 38 38 37 36 36 35 35 34 33 32 32 32
31 31 30 29 29 29 29 28 28 28 27 27 26 26 25 25
25 24 24 24 23 23 23 23 23 26 28 29 28 25 17 15
29 26 25 24 24 23 21 20 20 20 20 17 13 19 20 22
23 24 24 24 25 26 26 26 26 26 27 27 28 27 28 28
29 29 29 30 30 31 32 32 32 34 33 34 35 35 36 35
36 36 36 37 36 37 37 38 37 39 38 38 38 39 38 37
37 37 38 39 39 39 39 39 39 39 38 39 39 39 39 39
40 39 39 39 38 37 37 36 36 36 36 35 34 34 33 32
32 31 31 30 29 29 28 28 27 27 27 26 26 26 26 25
25 25 24 24 24 23 23 23 24 27 29 29 30 26 19 16
30 29 26 25 25 23 22 21 21 21 20 18 14 19 21 23
24 25 25 26 26 26 27 28 27 28 28 28 28 28 28 28
29 30 30 30 31 31 32 31 32 34 33 34 34 35 35 36
35 36 37 37 38 38 38 38 38 39 37 37 37 36 37 39
39 39 38 39 40 39 40 39 39 39 39 39 39 39 38 39
40 39 39 39 39 38 37 37 37 36 36 35 35 33 33 32
32 32 31 30 30 30 29 29 28 28 28 28 27 26 26 25
25 25 24 24 24 24 24 24 25 27 30 31 31 27 21 17
30 29 25 25 25 24 24 24 23 21 21 20 16 20 22 24
25 25 25 26 26 27 27 27 28 28 29 29 29 29 29 29
31 30 31 31 31 33 32 33 34 35 35 35 35 35 36 36
36 36 37 37 37 37 37 36 36 37 38 39 40 39 39 39
39 39 39 39 39 38 39 38 39 38 39 39 39 39 39 39
40 40 39 38 38 38 37 36 36 36 35 34 34 34 33 33
33 32 32 31 30 30 29 29 29 28 28 27 27 26 26 26
26 25 25 25 24 24 24 24 25 28 30 30 30 27 21 17
29 29 27 26 26 25 25 24 23 22 21 21 18 21 22 26
26 27 26 27 27 28 28 28 28 28 29 29 29 29 30 30
30 31 32 31 32 32 33 34 34 35 35 35 35 36 36 36
35 34 36 36 36 36 38 38 38 37 38 38 38 38 38 38
39 39 38 39 39 39 39 39 40 40 39 38 39 39 39 38
40 40 40 40 39 38 38 37 37 36 36 35 35 34 33 33
32 32 31 31 31 30 30 30 29 29 28 28 28 27 27 27
26 26 25 25 25 25 24 25 26 30 32 32 32 28 22 18
28 29 26 26 26 26 25 24 24 23 23 22 21 24 25 27
27 28 28 28 28 28 29 29 29 29 30 30 30 30 31 31
31 31 32 31 33 33 33 33 34 35 35 35 35 36 35 35
37 37 37 38 38 38 38 39 38 39 39 39 39 39 39 39
39 39 39 39 39 39 39 39 39 39 40 40 39 40 40 39
41 40 40 40 39 38 38 38 38 37 36 35 35 34 34 34
33 33 33 32 31 31 30 29 29 29 29 28 28 27 27 27
26 26 25 26 26 25 26 26 27 30 32 33 32 29 24 18
26 30 27 26 27 26 26 25 25 24 24 23 21 23 26 27
29 29 29 29 29 30 29 30 30 30 30 30 31 31 31 31
32 32 33 33 33 34 34 35 35 34 34 33 33 35 36 36
36 38 38 37 39 38 39 39 38 38 38 40 40 39 39 38
39 39 39 40 40 40 40 40 40 40 40 40 40 39 39 39
40 40 40 40 39 38 38 38 38 37 37 37 36 35 35 35
34 33 33 32 32 32 31 30 30 30 30 29 28 28 28 27
26 26 26 26 26 26 26 27 28 31 33 34 34 30 25 14
22 31 29 28 27 27 26 27 26 25 25 25 22 26 28 29
29 29 29 29 29 29 29 30 30 31 31 31 31 32 32 32
33 33 33 34 34 34 33 33 33 34 35 36 37 37 38 38
38 39 38 39 38 38 39 39 39 39 39 39 39 39 40 40
40 39 40 40 40 40 40 40 40 39 40 39 40 39 39 40
41 40 40 40 39 38 38 38 37 37 36 36 35 35 34 34
34 34 34 32 32 32 31 31 31 30 29 29 29 28 28 27
27 27 27 26 26 26 26 27 28 31 34 33 33 31 23 17
25 32 28 29 29 28 28 27 27 26 26 25 22 27 28 30
30 29 29 30 30 30 30 30 31 30 31 31 31 32 32 32
33 33 32 32 33 34 34 35 36 36 36 37 37 37 37 38
38 39 38 38 39 39 39 39 39 39 39 39 39 38 39 39
38 39 39 39 39 40 41 40 40 40 40 40 40 40 40 39
41 40 40 40 39 39 39 38 38 37 37 36 36 35 35 35
34 34 33 33 32 32 32 32 30 30 30 30 30 29 29 28
28 28 27 27 27 27 27 28 28 32 34 34 34 31 24 24
25 32 30 29 29 28 28 28 27 26 26 26 23 28 29 30
30 30 30 30 31 30 30 31 31 31 32 32 33 32 33 33
33 33 34 34 34 34 35 35 35 37 37 37 37 38 38 38
38 40 40 39 39 40 39 39 39 39 39 40 39 39 40 40
40 40 40 40 40 40 40 40 40 40 40 40 41 40 39 38
40 40 40 39 39 39 39 38 38 37 37 36 36 36 35 34
34 34 33 32 32 32 31 31 30 30 30 29 29 28 28 28
28 28 28 27 27 27 27 28 28 32 34 34 33 31 23 25
24 32 30 29 29 28 27 27 26 24 24 25 23 27 28 29
31 30 30 30 31 30 31 31 31 31 31 31 31 32 32 33
33 33 34 34 34 34 35 35 36 36 36 36 37 37 37 38
38 39 39 38 38 38 39 39 38 39 39 39 39 39 38 39
39 40 39 40 40 40 40 40 40 38 38 38 39 39 40 39
40 39 39 39 39 38 37 38 37 37 37 36 36 36 35 35
34 33 33 33 32 32 31 30 30 30 30 30 29 29 29 28
28 27 27 27 27 26 27 27 29 32 34 33 34 31 24 25
23 31 26 25 27 26 19 12 9 9 8 10 12 15 20 25
28 29 29 30 30 30 31 30 31 31 31 31 32 33 33 33
34 34 35 34 35 34 34 34 36 36 36 37 37 38 38 39
39 38 38 38 38 38 38 39 38 38 38 38 38 38 39 40
40 40 39 40 40 39 39 38 39 39 39 40 39 39 38 39
40 39 39 38 38 37 37 37 37 36 36 36 35 34 34 34
33 33 32 32 31 31 31 30 30 30 29 29 29 28 28 28
27 27 27 27 27 27 26 27 28 31 33 33 33 30 23 24
21 28 18 6 8 10 6 2 1 0 0 0 0 1 2 6
8 12 21 26 29 30 30 31 30 30 31 31 31 31 32 32
32 32 33 33 33 34 34 35 35 35 36 36 37 37 37 37
37 38 38 37 37 37 38 38 38 38 38 38 38 38 38 38
37 37 37 37 38 38 38 38 38 38 38 39 38 38 38 37
40 39 39 38 38 37 37 37 36 36 35 35 35 35 34 34
33 32 32 32 32 31 30 30 30 30 30 30 30 29 28 29
28 27 27 26 26 26 26 26 27 30 33 33 34 30 22 18
7 5 2 1 0 0 0 0 0 0 0 1 0 0 1 1
4 4 3 10 18 22 29 32 31 31 31 31 32 32 33 33
33 33 34 33 34 34 34 34 35 35 36 36 36 36 37 38
38 38 38 38 38 38 38 38 38 37 38 37 37 38 38 39
38 38 38 37 37 38 38 38 38 37 37 38 37 37 38 37
38 38 38 38 38 38 38 38 37 37 36 36 35 34 34 34
33 33 33 32 32 31 31 31 31 30 30 29 29 29 29 28
28 27 27 27 27 27 27 27 28 30 34 33 32 26 9 0
4 1 0 0 0 0 0 1 1 0 0 0 1 0 0 1
4 8 7 1 6 9 12 23 29 31 32 32 32 32 33 33
33 33 34 34 34 35 35 35 36 36 36 36 36 36 37 37
37 38 38 38 37 37 37 37 36 37 37 38 38 38 38 38
38 38 38 37 37 37 37 37 38 37 37 38 37 37 37 37
39 39 39 38 38 38 37 37 37 37 36 36 35 36 35 34
34 34 34 33 32 32 32 32 31 31 31 30 30 30 29 29
29 28 28 27 27 27 27 28 29 29 34 32 23 9 3 0
0 0 0 0 0 0 0 0 1 0 0 1 1 0 0 0
2 4 8 9 3 4 7 7 16 26 31 33 32 33 33 33
34 34 35 35 35 35 36 35 36 36 36 36 36 37 38 38
37 37 37 37 37 37 37 38 38 39 38 38 38 38 38 38
38 38 38 39 39 38 38 37 38 38 38 38 38 37 38 38
39 39 39 39 39 38 38 38 37 37 36 36 36 35 35 34
35 34 33 33 34 33 33 32 32 32 31 31 31 30 29 29
29 29 28 28 27 28 27 26 26 24 20 8 5 0 0 0
0 0 0 0 0 0 0 0 1 3 4 2 2 3 2 1
1 1 1 6 8 1 1 3 7 14 26 32 33 33 34 34
34 34 35 35 35 35 36 36 36 37 37 37 37 37 36 36
37 37 38 38 39 38 39 39 38 39 39 39 39 38 38 39
38 38 39 39 38 38 38 38 38 38 39 39 39 39 38 38
40 39 39 39 38 38 38 37 38 37 37 36 36 36 36 35
34 34 34 34 33 33 33 32 32 31 31 31 31 30 30 30
30 29 28 28 27 26 25 17 12 3 5 7 3 0 0 0
0 0 0 0 0 0 0 1 1 3 5 2 3 2 3 4
0 0 0 1 3 5 4 2 4 6 10 27 33 33 34 34
34 35 36 36 36 36 36 36 36 36 37 37 37 38 39 38
38 39 39 39 39 39 40 39 39 39 40 38 38 38 39 38
39 39 39 39 38 38 38 37 39 39 38 37 38 39 38 38
40 39 39 39 38 38 38 38 38 37 37 36 36 36 35 35
34 34 35 34 34 33 33 33 32 33 32 31 31 31 30 30
29 29 29 28 25 24 14 6 2 4 3 1 0 0 0 0
0 0 0 0 0 0 0 1 1 3 6 7 9 5 4 3
1 0 0 0 1 1 3 4 6 7 4 9 28 35 35 35
36 36 36 35 35 35 35 36 36 37 38 38 38 39 39 38
39 39 39 39 40 39 39 40 40 39 40 39 39 38 39 39
39 39 39 38 38 38 38 38 38 38 39 39 39 38 39 39
40 40 39 39 38 38 38 38 37 37 38 37 37 36 36 36
35 35 35 35 34 34 34 33 33 33 33 31 32 31 31 31
29 30 28 27 20 14 5 4 1 1 0 0 0 0 0 0
0 0 0 0 0 0 0 0 0 2 8 5 4 4 5 0
0 0 0 2 2 1 0 3 6 5 7 5 8 30 36 35
35 35 35 36 36 36 37 37 37 37 39 38 38 39 39 39
39 39 39 40 40 40 40 39 39 39 40 38 39 39 39 39
39 38 39 39 39 39 39 39 39 40 39 39 39 39 37 38
40 39 39 39 39 39 38 38 38 38 37 37 36 36 36 36
36 35 35 34 34 34 34 34 33 33 33 32 32 32 31 31
31 30 27 18 5 4 3 0 0 0 0 0 0 0 1 0
0 0 0 0 0 0 0 0 2 2 2 0 2 2 1 0
0 1 0 1 2 2 2 0 4 3 5 7 1 12 34 36
35 36 36 35 36 36 37 37 38 37 39 39 39 39 39 40
39 39 40 39 39 40 40 39 39 39 40 39 39 39 38 39
40 39 39 39 39 39 39 39 39 39 39 39 39 39 38 37
40 40 40 39 39 39 39 38 38 38 37 37 37 37 37 36
36 36 36 35 34 34 34 34 33 33 32 32 33 32 32 32
30 25 7 1 0 1 0 0 0 0 0 0 0 0 1 1
1 0 0 1 2 3 6 6 6 4 2 0 0 1 0 0
2 4 5 2 3 2 4 1 2 4 2 7 2 1 22 35
36 35 37 36 37 37 38 37 38 38 39 38 39 39 40 39
40 40 39 39 39 40 39 40 40 39 40 39 39 39 39 39
39 39 39 39 39 39 40 39 39 38 38 37 35 34 35 36
40 39 40 39 39 39 39 39 38 39 38 38 38 37 37 36
36 36 35 35 35 35 34 33 34 33 33 33 32 32 31 31
29 7 0 0 0 0 0 0 0 0 0 1 2 1 0 1
0 0 0 1 3 3 5 8 8 4 3 3 1 2 2 2
4 6 4 6 2 3 3 2 1 4 5 5 9 2 6 30
37 37 37 37 37 37 38 38 38 39 40 39 39 40 40 40
40 40 39 40 40 39 40 39 39 39 40 40 40 40 40 40
41 40 41 39 38 38 38 37 37 38 39 39 38 38 37 37
40 40 39 39 39 39 39 38 38 38 38 37 37 37 37 36
36 36 36 36 35 34 34 34 34 33 33 32 30 29 23 19
10 1 0 0 0 0 0 0 0 0 0 1 1 0 1 1
0 0 0 2 5 5 6 7 5 2 2 2 4 4 6 6
7 8 8 7 10 5 7 2 0 2 6 4 7 6 3 15
35 37 37 37 38 38 39 38 39 39 40 39 39 40 40 39
39 40 39 39 39 40 40 40 39 39 40 40 40 40 39 38
39 38 39 37 38 38 40 40 39 38 38 38 38 37 37 36
39 39 39 39 39 39 39 38 38 39 38 38 38 38 37 36
36 36 36 35 35 34 35 34 34 34 34 33 27 19 13 8
5 0 0 0 0 0 0 0 0 0 0 1 2 2 2 1
0 0 0 1 3 4 6 8 7 2 4 4 4 9 10 7
7 11 11 12 15 11 7 4 4 4 3 1 6 12 5 8
29 38 37 38 38 38 38 38 38 40 40 40 40 40 41 40
40 40 40 40 40 40 40 40 41 40 38 36 37 38 38 39
39 39 40 40 37 38 38 37 37 37 37 37 37 38 37 36
40 40 40 40 39 39 39 39 39 38 38 37 38 37 37 37
37 37 36 36 35 35 34 35 34 34 33 26 18 7 5 5
2 0 0 0 0 0 0 0 1 2 4 9 12 5 4 1
0 1 2 5 6 9 15 13 8 3 8 8 7 5 8 6
8 11 15 13 14 11 17 9 6 6 3 0 3 8 9 9
16 36 38 38 38 39 39 39 40 39 40 39 39 39 39 40
40 40 39 40 40 39 38 39 39 39 39 39 40 39 39 38
38 39 39 39 38 38 37 37 39 38 37 38 37 37 37 36
25 37 40 40 40 40 39 39 39 39 39 39 38 38 38 37
37 36 36 35 36 35 35 35 35 34 30 27 9 5 4 1
0 0 0 0 0 0 0 1 1 0 0 0 1 0 1 0
0 0 0 1 2 2 5 5 4 5 5 7 10 15 11 9
9 10 11 14 14 11 13 13 8 7 8 1 1 5 9 14
16 30 38 38 39 39 39 39 39 39 40 39 40 39 40 40
40 38 39 38 38 39 40 40 39 39 39 39 39 39 40 39
40 39 39 39 38 38 37 38 38 38 37 38 37 37 37 36
18 36 41 40 40 40 40 39 39 39 39 38 38 38 37 37
37 37 37 36 36 36 35 35 35 34 29 16 5 0 0 0
0 0 0 0 0 0 1 0 2 3 2 2 0 0 0 1
0 1 2 0 0 2 6 4 4 8 13 13 10 10 19 16
15 14 12 15 14 10 10 11 12 8 13 7 2 2 8 13
12 23 39 39 40 40 40 40 40 40 39 39 39 39 39 39
39 39 40 40 40 40 40 40 40 39 39 39 38 38 38 39
39 39 39 39 38 38 38 38 40 38 38 38 38 37 37 37
18 35 41 40 40 40 39 37 39 40 39 38 38 38 38 37
38 37 37 36 36 36 36 36 37 40 33 15 0 0 0 0
1 0 0 0 0 0 1 3 7 6 8 8 7 6 5 1
1 1 2 0 0 1 1 1 3 5 10 17 16 15 10 12
19 14 10 16 13 12 7 12 12 12 7 7 5 2 6 14
9 19 34 38 39 39 38 39 38 39 39 39 39 39 40 39
39 40 41 40 39 40 39 40 40 39 39 38 39 38 39 40
39 39 38 39 38 38 38 38 38 37 38 37 36 37 37 36
18 35 41 41 40 40 40 46 49 46 44 42 40 39 37 38
38 37 37 37 37 37 36 36 43 49 39 21 0 0 0 3
0 0 0 0 0 0 0 3 8 12 10 10 9 3 4 7
7 1 1 3 5 6 4 4 6 6 5 11 23 18 17 15
12 16 8 8 12 10 10 8 13 12 10 10 7 3 6 11
12 12 34 38 39 40 40 40 40 39 39 40 39 39 40 39
39 39 40 40 40 40 40 40 40 40 40 39 38 38 39 39
39 39 38 38 37 38 38 39 38 39 39 38 38 38 37 37
21 37 41 41 40 40 40 48 52 50 49 45 44 44 44 40
39 38 38 37 36 37 36 36 43 47 36 19 0 0 0 1
6 6 1 0 0 0 0 2 5 8 14 16 11 7 3 4
4 3 3 5 10 8 13 14 10 10 8 4 11 22 9 12
12 11 11 9 12 12 12 8 12 11 11 9 13 6 5 6
7 10 27 40 38 39 39 39 39 39 39 39 39 39 39 40
40 40 41 41 39 40 40 39 39 39 39 39 39 38 39 39
40 39 39 39 39 39 39 38 38 39 39 38 38 37 37 37
22 41 43 42 42 41 41 48 53 51 48 47 48 50 50 44
46 44 41 38 37 37 36 36 40 39 33 18 0 1 1 0
6 19 19 10 3 3 1 4 9 10 12 17 14 9 9 12
13 12 6 8 10 10 10 15 14 15 14 6 6 20 21 12
11 9 8 13 15 14 11 11 10 14 14 11 14 11 3 6
5 12 23 39 39 39 39 39 40 40 39 39 39 39 39 39
40 39 40 40 39 40 40 39 40 39 39 39 39 39 39 39
40 39 39 39 39 39 39 38 38 38 38 39 38 38 37 37
22 43 46 43 44 44 43 46 32 38 46 49 52 54 51 38
34 41 44 44 42 42 41 38 38 23 17 14 4 0 1 0
21 65 51 47 38 17 7 7 13 13 10 14 14 9 12 12
13 10 14 16 16 15 16 18 19 23 20 14 3 11 21 17
5 6 6 9 12 11 12 11 11 16 17 10 13 10 7 7
3 8 21 37 39 39 39 39 39 39 39 38 40 39 39 39
39 39 40 41 40 39 40 39 39 38 39 39 39 38 39 39
39 39 40 40 39 39 40 39 39 38 38 38 38 37 37 36
22 42 45 38 38 44 49 49 4 1 15 30 35 38 46 22
0 4 10 20 27 35 42 42 39 22 10 12 5 0 1 0
12 54 76 76 75 81 55 25 20 26 27 19 14 11 13 21
15 13 15 19 19 22 20 17 15 21 19 16 10 9 11 11
9 6 4 9 7 11 11 16 15 12 21 16 15 12 10 11
6 9 16 34 38 39 39 39 39 39 40 40 40 40 39 39
39 39 39 40 40 38 38 38 39 39 38 39 39 39 39 38
40 40 40 40 40 39 39 38 37 37 37 36 36 37 38 38
21 34 44 45 44 45 52 51 5 0 4 14 18 17 34 22
0 0 0 0 1 2 6 19 40 20 3 5 6 2 0 0
0 7 33 72 99 106 107 94 62 39 33 30 25 22 19 25
26 19 25 27 22 20 24 20 19 17 25 18 7 11 9 9
10 8 6 6 7 9 11 14 16 15 15 21 16 15 12 13
11 11 15 30 39 39 39 39 39 39 40 39 40 39 39 39
40 39 39 40 39 38 38 39 39 38 39 38 39 39 39 39
40 40 39 37 36 37 38 38 38 38 38 38 39 37 37 37
17 3 6 15 25 37 46 50 7 0 3 8 11 12 31 26
1 0 0 0 0 0 0 8 40 15 0 0 5 5 1 0
0 0 5 27 65 94 122 126 122 104 74 55 36 25 20 12
12 12 5 12 19 25 27 22 23 21 21 23 15 11 13 14
12 9 8 7 5 8 12 11 17 17 16 19 15 18 14 14
16 15 14 27 38 38 39 39 39 39 39 39 40 39 40 39
39 39 40 39 39 38 38 38 39 39 39 40 40 40 40 39
39 39 39 38 38 38 39 37 37 38 38 38 40 38 37 37
17 1 0 0 0 0 4 21 9 0 0 1 0 7 27 23
0 0 0 0 0 0 0 6 39 7 0 0 1 15 32 1
0 1 13 58 97 121 134 146 145 137 123 107 82 50 33 20
11 9 8 8 11 12 19 23 19 20 21 16 16 13 13 16
16 14 10 12 12 8 15 13 12 16 18 16 18 21 19 15
17 20 19 26 36 39 39 39 40 39 39 40 40 39 39 39
39 39 40 39 39 39 39 40 39 40 39 39 40 40 40 40
39 39 39 38 39 38 39 38 37 37 38 38 39 37 38 38
16 1 0 0 0 0 0 10 9 0 0 0 0 2 29 23
0 0 0 6 10 1 0 5 40 7 0 0 0 22 78 54
12 3 8 32 89 137 147 147 148 147 143 138 119 69 42 25
18 14 11 11 15 18 18 18 17 18 20 17 15 16 14 14
16 17 15 18 17 10 14 15 15 16 16 16 17 23 23 20
21 21 23 21 36 38 39 39 40 40 41 40 40 39 39 39
39 39 38 39 40 40 40 40 40 40 39 39 40 40 40 39
39 39 38 39 38 39 38 39 38 38 38 39 39 39 38 38
17 1 0 0 0 0 0 9 8 0 0 0 0 1 31 27
0 0 0 10 17 12 5 3 38 5 0 0 0 20 91 93
67 31 23 51 93 143 148 148 147 147 147 144 135 104 58 37
22 25 23 18 18 22 14 14 15 17 16 12 12 16 20 18
14 16 13 20 17 20 14 17 17 15 20 14 19 23 25 24
15 21 19 17 37 39 40 39 40 40 39 38 39 39 38 38
38 38 39 40 39 39 39 39 39 37 38 39 39 39 39 39
39 38 39 39 39 38 39 39 39 40 39 38 39 36 35 34
17 1 0 0 10 3 0 8 7 1 0 0 0 1 29 29
0 0 1 12 17 17 14 4 38 7 0 0 0 27 100 107
105 91 90 117 137 148 148 148 148 147 147 147 146 128 73 46
35 29 28 26 24 19 22 17 11 13 17 21 17 14 18 15
15 19 12 18 18 22 20 27 18 15 19 13 21 22 22 28
21 18 22 15 32 38 39 39 39 39 39 39 40 39 39 39
40 39 39 40 39 39 39 39 39 38 38 40 40 40 40 40
40 40 39 40 39 39 39 39 40 38 36 35 35 34 33 31
16 1 9 7 7 2 0 7 8 1 0 0 0 5 29 32
0 0 1 11 17 16 14 4 37 12 1 0 0 38 108 113
117 124 130 146 148 148 148 148 147 147 147 147 147 138 118 57
36 36 31 27 27 26 23 23 17 13 13 17 15 16 20 17
15 15 17 19 17 21 22 28 27 22 20 14 24 19 19 25
20 19 21 18 32 38 39 38 39 39 39 39 39 39 39 39
38 39 39 39 39 38 40 39 38 39 39 40 41 40 40 39
40 38 37 36 36 36 37 36 35 31 27 23 19 16 14 12
17 5 9 0 3 2 0 7 9 0 0 0 0 10 34 37
3 2 4 1 6 14 13 2 38 41 33 24 18 68 112 113
102 124 133 138 134 130 126 124 122 121 120 117 113 109 97 56
33 35 33 30 28 32 28 25 25 19 19 18 18 20 22 21
17 17 23 20 22 26 26 31 25 26 25 18 21 16 19 19
27 21 18 20 33 37 39 39 40 40 39 40 39 40 40 40
40 40 39 39 39 39 39 39 38 37 39 39 39 37 37 37
38 35 32 29 25 22 19 16 14 13 14 14 15 15 16 17
17 5 2 0 0 1 0 12 29 16 12 10 3 1 30 53
38 32 28 19 10 8 9 3 39 49 46 45 48 92 69 18
14 12 15 14 13 13 12 13 13 13 11 11 11 11 10 11
10 18 32 28 21 28 32 24 28 24 23 22 22 21 23 22
18 19 27 24 27 28 16 30 29 24 32 18 19 19 21 12
27 22 18 22 30 38 41 40 40 40 40 41 40 40 40 39
39 40 39 38 38 38 40 38 38 36 37 35 32 28 24 21
19 16 15 15 15 15 16 17 18 20 20 20 21 22 21 22
17 1 0 0 0 0 0 15 57 50 44 44 42 33 45 53
25 27 30 33 33 33 34 36 50 45 45 46 51 49 4 6
28 13 8 10 9 9 9 12 14 14 13 14 16 17 18 17
17 19 31 23 16 23 22 22 22 25 41 49 48 49 31 20
23 18 26 27 31 25 17 26 31 21 35 23 19 28 18 9
14 22 16 25 29 37 39 39 39 40 39 40 39 39 39 38
37 40 38 38 36 33 31 28 24 21 19 18 17 17 16 18
18 20 21 21 20 14 23 24 24 25 25 25 27 26 15 26
18 3 0 0 0 0 0 14 59 48 51 55 58 56 51 44
18 18 18 18 18 18 19 22 26 23 28 33 37 4 3 1
3 1 3 9 16 23 24 23 28 40 52 66 81 91 103 113
120 120 102 58 36 31 24 25 20 60 74 90 78 75 73 51
22 21 20 21 27 28 20 22 22 25 39 30 23 32 19 11
7 18 16 22 27 35 39 40 39 40 40 40 38 38 40 33
28 26 23 21 19 18 19 19 20 19 21 22 22 24 24 24
26 26 26 27 26 10 27 28 29 29 26 26 30 20 26 32
21 32 30 21 13 6 2 15 50 42 52 56 59 58 48 38
21 19 18 16 15 14 13 12 11 12 13 15 19 1 10 8
14 1 7 22 46 70 87 100 120 138 145 146 147 147 147 147
147 147 141 111 74 49 46 37 49 64 67 115 133 135 110 106
54 17 17 18 23 23 23 20 19 27 26 21 28 35 20 16
6 12 15 20 28 37 37 35 32 30 27 24 22 22 36 29
15 18 20 21 21 22 23 24 24 25 26 27 28 28 30 30
30 25 24 31 32 19 21 32 32 32 20 28 28 19 33 33
22 44 54 53 50 47 43 45 44 37 48 52 56 57 49 41
23 19 17 14 12 13 13 12 13 14 14 15 16 3 7 16
25 11 34 62 127 141 146 147 147 147 146 146 146 147 146 146
146 146 145 139 108 69 52 55 87 91 80 104 140 146 143 120
115 16 10 15 22 24 22 21 20 27 20 13 25 25 17 14
13 13 15 17 27 23 21 20 20 20 20 22 22 21 29 24
17 23 25 26 27 29 29 30 30 31 31 31 32 32 33 33
33 32 28 24 33 29 12 34 34 32 17 30 19 29 31 35
22 44 56 56 54 54 55 57 34 9 16 24 32 37 37 43
26 18 14 6 6 6 12 15 15 14 17 19 13 6 7 10
29 14 37 57 122 148 148 147 147 148 147 147 147 147 148 147
147 147 147 146 131 105 76 65 84 121 105 123 137 146 146 134
135 48 9 10 16 20 22 16 21 27 15 6 24 18 17 15
18 12 14 14 19 24 23 24 25 26 26 27 28 28 33 29
22 29 32 33 33 33 34 34 34 34 34 34 35 34 35 34
36 35 35 28 26 33 12 27 35 31 18 22 26 32 32 35
21 39 50 51 52 54 55 57 28 0 0 0 2 12 20 42
24 16 13 1 0 0 6 11 9 6 12 12 7 6 9 6
31 4 22 37 98 142 146 148 148 148 148 148 149 148 148 148
148 147 147 147 146 137 114 86 95 134 121 144 144 146 146 136
136 85 13 6 12 15 20 12 18 24 16 8 23 14 15 16
22 14 13 13 16 28 30 31 32 33 33 34 34 31 29 26
26 33 34 34 35 36 36 37 37 38 37 37 36 35 36 35
35 36 36 36 28 26 25 16 34 29 20 17 35 31 33 35
28 33 37 39 41 41 45 52 23 0 0 0 1 1 13 45
24 16 13 2 0 5 2 1 1 0 2 4 5 8 6 2
35 5 11 25 51 129 143 146 147 149 149 149 149 148 148 149
149 148 148 148 148 147 144 124 121 142 98 90 143 147 147 139
140 107 20 9 10 14 23 12 12 21 15 13 18 13 12 15
16 16 16 17 17 33 36 36 36 36 36 36 35 31 12 8
22 36 38 38 38 37 37 38 38 37 37 38 37 37 36 37
35 37 37 37 37 29 25 9 17 13 16 27 34 31 34 33
25 26 25 29 38 36 42 51 21 0 0 0 2 0 5 45
18 10 1 0 0 13 9 4 1 0 0 1 4 15 5 0
24 10 16 34 42 105 141 146 148 149 150 148 149 148 148 148
149 147 147 148 148 148 148 147 146 147 116 62 124 147 147 141
142 101 31 14 12 11 21 15 15 17 9 10 16 11 9 15
17 14 11 16 19 35 37 37 38 38 36 34 33 31 12 7
19 36 38 39 38 38 39 39 38 38 39 38 38 37 37 36
36 35 35 36 37 34 26 9 0 0 22 32 33 31 35 31
25 26 30 33 38 39 46 50 20 0 0 0 0 0 6 46
7 0 0 0 1 7 16 9 2 0 0 0 3 16 0 2
16 23 17 50 59 116 145 148 148 148 148 148 148 148 148 148
148 148 148 148 148 147 147 147 141 113 140 101 111 139 147 142
142 91 29 24 14 10 17 13 10 18 9 8 13 11 9 14
19 11 10 12 22 36 38 38 38 22 9 5 14 26 8 4
16 35 38 39 39 38 39 39 38 38 38 38 38 37 36 36
36 35 36 36 36 35 35 22 0 5 30 31 27 28 32 32
25 11 6 11 18 24 32 38 20 0 0 0 0 0 9 46
7 0 0 0 2 7 18 16 13 1 1 1 21 24 1 1
6 24 19 47 64 122 147 148 148 149 149 148 149 149 148 149
149 149 147 148 148 147 146 147 88 68 109 121 128 133 148 144
140 41 22 39 18 10 13 8 12 14 14 12 14 9 7 17
18 11 9 9 23 38 38 39 38 24 18 24 30 30 4 0
15 35 38 38 38 38 38 38 37 37 38 37 38 37 36 37
36 35 35 35 35 34 36 31 1 6 34 31 24 24 31 34
29 9 0 0 0 0 0 6 17 0 0 0 0 0 9 45
5 0 0 0 5 20 21 18 16 1 0 7 86 45 4 4
1 17 13 39 68 126 148 149 149 148 148 149 148 148 148 148
148 148 147 148 148 148 145 148 68 85 118 124 128 132 147 143
119 9 41 55 32 12 10 12 12 14 15 10 15 13 12 15
13 10 9 8 25 38 39 39 39 38 37 37 36 31 8 1
15 34 38 38 39 38 38 38 37 37 37 37 36 36 36 35
36 36 35 34 35 36 36 32 3 5 34 34 24 24 34 35
28 10 0 0 1 0 0 4 16 0 0 10 7 0 7 43
3 0 0 0 4 17 25 11 7 0 2 50 118 61 19 1
3 10 11 33 64 128 149 149 149 149 148 149 149 149 149 148
148 148 148 148 147 147 142 145 77 118 123 135 123 134 146 145
109 88 93 74 39 18 10 11 10 12 9 10 13 14 14 15
12 10 7 7 30 39 39 39 39 38 37 36 36 32 14 0
20 35 38 38 38 38 38 37 37 37 36 37 37 36 36 35
36 36 36 33 34 36 36 33 4 3 32 34 25 24 34 35
28 10 0 0 7 2 0 3 16 0 4 22 15 2 8 41
2 0 0 0 1 2 18 3 0 0 16 105 118 77 39 3
1 4 9 25 58 134 150 150 149 148 148 148 148 148 148 147
148 147 148 147 148 147 143 138 105 129 131 124 130 145 144 141
116 118 107 87 51 23 15 11 10 8 12 6 11 14 16 15
15 11 8 5 29 39 39 38 38 38 37 36 34 31 21 10
26 35 38 38 38 37 37 37 36 37 37 36 37 36 36 36
36 36 35 34 34 35 35 34 5 2 31 34 23 21 33 33
25 9 0 6 21 9 2 2 19 1 11 21 18 7 7 40
2 4 0 0 1 0 18 6 0 0 66 117 118 101 39 26
6 4 10 17 56 140 149 149 149 148 149 149 149 148 148 148
148 148 147 147 147 146 140 142 114 131 139 144 147 145 144 130
121 122 111 96 65 30 16 10 10 14 17 9 8 12 15 13
14 12 10 5 27 38 38 38 38 37 37 36 35 31 28 27
32 37 38 38 37 36 37 36 35 37 36 36 37 36 35 36
36 36 35 34 34 30 33 31 6 0 21 24 17 19 30 33
23 10 0 10 23 10 4 2 37 33 37 38 35 31 28 42
2 0 0 0 0 0 17 8 1 16 108 119 120 118 39 53
16 5 11 15 70 146 149 149 148 148 148 147 148 148 147 147
147 147 148 147 147 142 134 144 142 139 147 146 146 145 143 122
128 129 121 105 78 38 19 10 11 8 12 6 6 13 17 10
13 12 10 11 29 38 37 38 38 37 37 36 35 31 30 32
36 36 36 37 37 36 37 36 36 36 36 37 36 36 36 36
36 35 34 32 31 28 23 24 7 0 24 34 27 23 30 33
23 12 0 4 6 3 1 2 41 46 50 51 50 53 57 49
11 8 7 1 0 3 21 11 6 53 116 119 122 121 75 36
38 10 14 21 98 147 148 148 148 148 148 148 148 148 149 148
148 148 146 147 147 144 138 127 137 146 146 146 146 146 133 124
132 137 132 114 83 45 21 11 10 10 10 8 8 16 14 7
10 15 9 16 33 38 38 37 38 37 36 35 35 34 33 35
38 38 37 37 38 37 37 37 37 36 36 36 35 37 36 36
35 35 35 34 33 33 34 33 11 0 23 32 26 21 28 29
25 21 10 2 3 1 0 1 40 47 49 49 49 56 60 55
36 34 33 27 25 25 30 23 21 88 115 116 111 109 121 53
29 21 20 49 123 146 149 148 148 148 148 148 148 148 148 148
147 147 147 147 147 147 139 134 131 143 146 146 146 141 127 131
136 139 140 123 86 50 26 12 9 11 9 9 10 18 9 5
10 17 15 20 34 37 38 38 39 37 36 36 36 34 34 36
37 36 35 35 36 36 37 37 36 36 36 37 36 36 36 35
35 34 34 33 32 32 33 33 14 0 21 31 26 20 28 31
26 26 8 0 2 0 0 1 37 40 44 44 45 48 48 47
41 41 41 39 39 39 39 36 41 106 119 118 108 102 127 125
101 61 64 104 127 143 148 148 148 148 148 147 148 148 148 148
147 148 147 147 146 146 134 139 143 142 143 145 145 130 133 137
139 144 144 129 97 56 28 15 9 14 6 9 11 14 5 4
11 18 16 23 37 38 38 37 37 36 36 36 36 34 36 36
36 36 36 36 38 36 36 36 35 35 36 35 35 36 35 35
34 34 35 33 33 33 34 34 17 0 19 33 28 20 27 32
28 22 3 0 1 0 0 1 40 40 42 41 41 40 36 37
41 41 43 43 41 41 41 41 51 117 138 127 119 131 135 112
110 108 110 115 128 144 148 148 148 148 148 148 147 148 147 147
147 147 146 147 146 146 122 134 147 146 145 143 131 130 135 140
142 145 145 134 101 58 30 17 11 13 4 5 8 7 1 1
10 12 14 27 37 36 36 37 37 36 37 36 36 35 38 37
37 36 37 37 37 36 37 37 37 36 36 35 36 35 35 35
35 34 34 32 32 33 33 33 18 0 17 33 29 20 26 31
26 28 26 22 17 13 11 9 43 42 40 41 40 41 42 44
45 44 47 51 50 42 40 42 57 124 149 148 147 148 143 117
99 110 114 120 129 143 148 148 148 147 148 148 148 147 148 147
147 146 147 147 146 146 118 112 136 139 134 131 131 134 138 144
146 146 145 136 103 65 29 18 10 6 5 4 7 2 1 1
11 9 14 28 37 37 38 38 37 37 36 37 37 36 37 37
37 36 38 38 37 37 37 36 37 36 36 35 35 35 35 35
34 34 34 33 32 32 34 32 21 0 14 32 29 20 25 31
26 35 51 52 48 50 53 52 55 46 43 43 43 44 47 50
50 45 48 54 53 42 39 36 57 121 137 140 147 148 148 137
88 108 115 121 133 141 148 148 148 148 147 148 148 148 147 147
147 146 147 146 146 146 137 109 114 132 141 140 137 142 145 146
145 145 144 137 103 77 36 21 9 6 9 5 3 2 1 2
7 6 15 31 37 37 37 36 36 36 36 36 37 36 37 37
37 36 36 37 36 36 35 35 36 35 34 35 35 35 35 34
34 33 34 32 31 31 33 32 22 0 13 32 29 19 24 31
27 36 59 59 58 58 59 59 59 46 38 36 37 38 44 51
53 46 47 46 45 44 40 36 43 107 124 102 89 108 133 145
91 107 116 122 133 145 148 148 147 148 148 148 147 148 147 147
147 147 147 146 146 146 146 145 146 146 146 146 146 146 146 146
146 145 144 141 118 84 35 19 10 6 6 4 1 0 0 2
4 6 26 35 36 36 37 36 36 35 36 36 36 37 37 36
36 36 36 36 36 36 36 35 35 35 34 34 35 34 33 34
34 33 34 32 31 31 34 34 24 0 10 32 29 19 23 30
28 29 41 43 44 47 49 51 54 33 9 9 5 7 12 27
51 45 32 15 20 23 23 31 39 71 119 98 117 107 91 113
94 110 114 122 132 145 147 147 148 148 148 148 147 147 147 148
147 147 147 147 146 147 146 147 147 147 147 146 147 147 146 146
145 145 145 144 122 68 26 24 21 11 8 2 1 1 0 3
3 15 34 35 36 36 35 34 34 33 32 30 33 36 37 37
37 37 36 36 36 36 36 35 35 34 35 34 35 35 34 34
33 33 34 33 31 31 33 33 26 0 9 32 31 22 24 31
27 26 33 34 33 33 32 31 35 24 2 0 0 0 0 13
50 40 10 0 1 4 11 30 40 28 42 88 87 104 131 108
110 113 114 119 131 145 149 148 148 148 148 148 148 148 148 148
147 147 147 147 147 147 147 147 147 147 147 147 146 146 147 146
146 145 146 144 120 59 50 51 26 8 5 3 2 0 0 0
5 25 34 36 36 35 27 16 14 12 11 10 20 36 37 37
36 36 36 36 36 36 36 35 35 34 34 34 35 35 34 34
34 33 35 34 32 31 34 34 27 1 8 32 31 21 21 29
26 28 40 41 41 40 39 38 39 25 8 1 0 0 4 24
49 28 1 0 0 0 2 31 41 28 1 0 0 46 123 115
117 116 113 121 131 140 147 148 146 148 148 148 149 148 148 148
147 147 147 146 147 145 146 146 147 147 147 147 147 147 147 147
147 146 145 142 126 104 85 51 23 9 5 5 3 0 0 0
6 10 25 36 35 35 25 7 8 7 8 8 17 36 38 38
37 36 36 36 36 35 35 34 34 34 34 34 35 35 34 35
34 34 34 34 32 32 33 33 28 1 7 31 29 19 21 29
26 29 42 43 44 43 43 44 44 27 6 1 0 0 3 16
46 20 0 0 0 0 0 29 40 26 0 0 0 21 107 111
117 117 114 121 131 138 147 148 148 147 146 148 147 148 147 148
148 147 148 147 146 147 147 145 147 146 147 147 146 146 146 146
146 146 145 142 127 114 101 61 23 10 6 4 2 0 0 0
7 4 20 35 35 35 24 8 8 8 8 8 16 36 38 37
37 36 37 36 35 35 35 35 34 34 34 34 34 34 33 34
34 33 33 32 31 30 31 30 27 2 5 27 28 20 21 30
31 32 38 40 41 42 42 43 46 28 0 0 0 3 10 9
43 16 0 0 0 0 0 29 38 25 0 0 0 10 89 103
110 111 113 120 133 138 145 147 148 148 148 147 149 148 147 147
147 147 145 145 145 145 146 146 146 147 147 147 146 146 147 147
146 146 146 140 123 115 114 96 66 36 10 2 0 0 0 5
10 3 16 34 34 34 22 7 8 8 7 7 14 34 37 37
37 36 35 35 35 34 34 34 33 33 32 32 31 33 33 33
33 33 32 32 30 30 29 31 28 3 2 28 29 21 19 27
39 38 38 38 38 39 39 33 44 36 6 0 0 2 7 4
42 14 0 0 0 0 0 29 38 23 0 0 0 0 70 104
105 105 111 119 133 141 144 146 147 147 147 146 145 147 146 147
146 144 145 141 146 146 147 147 147 147 147 147 146 146 146 146
146 146 145 139 123 115 119 118 104 69 29 0 0 2 0 9
7 3 17 35 35 35 25 8 7 8 8 8 10 32 36 35
34 34 33 33 33 32 33 33 33 34 33 33 33 33 32 32
32 32 31 31 29 29 30 30 29 4 1 25 29 21 18 27
38 39 38 38 38 38 38 33 41 40 11 0 0 3 10 5
39 13 0 0 0 0 0 23 40 27 5 0 0 0 57 105
107 102 107 117 131 141 144 145 147 144 145 145 143 146 144 143
146 144 139 140 142 144 146 145 146 147 147 147 147 147 147 147
146 146 145 138 122 115 118 119 112 98 62 4 5 2 5 8
4 3 17 33 33 34 27 12 12 12 13 14 14 28 34 35
34 34 33 27 32 59 21 24 33 33 32 31 32 32 30 31
31 31 31 30 28 27 29 29 28 6 0 23 29 21 18 26
37 37 37 37 36 37 37 34 40 36 1 0 0 0 1 3
40 14 0 0 0 0 0 19 40 24 1 0 0 0 31 77
101 95 100 113 128 141 141 144 145 144 142 144 144 143 138 137
141 140 138 144 140 145 147 147 146 147 147 147 147 146 147 147
146 146 145 137 119 116 120 123 118 107 89 28 11 8 5 4
4 3 14 33 34 34 28 13 12 11 11 11 12 26 35 34
34 34 26 0 0 43 0 5 33 32 31 32 31 31 31 30
31 30 30 31 28 27 29 30 28 7 0 22 29 22 18 26
10 11 12 12 16 29 35 35 37 33 0 0 0 0 0 1
38 17 0 0 0 0 0 16 41 25 2 0 0 1 35 98
120 102 78 98 125 139 138 140 141 142 145 144 141 142 138 140
137 136 139 144 145 144 146 147 146 147 147 147 147 147 147 147
146 146 145 135 118 114 121 125 122 113 100 71 46 10 4 5
4 3 13 32 33 33 28 8 7 7 7 7 9 27 34 35
34 34 26 0 0 16 0 4 32 33 31 32 31 31 31 31
31 31 31 30 28 27 29 29 30 10 0 20 29 23 17 26
0 0 0 0 3 33 38 35 35 32 3 1 0 2 12 4
34 27 9 8 11 10 11 23 44 31 29 28 27 33 71 91
111 125 124 98 109 129 133 135 134 134 136 139 139 141 141 135
129 134 136 140 147 147 147 147 147 147 147 147 147 147 147 146
147 146 145 136 120 116 125 131 127 117 106 91 39 45 3 4
5 2 12 31 33 33 28 9 7 7 7 7 8 27 35 34
34 33 27 0 0 0 0 3 32 33 33 32 33 33 31 31
31 31 31 31 29 28 30 30 30 12 0 19 30 23 17 25
0 0 0 0 2 34 38 34 32 42 37 33 31 34 38 35
38 43 49 46 46 48 49 50 49 33 41 45 48 52 67 84
104 116 128 124 108 115 124 126 129 133 135 138 135 128 137 136
137 140 141 143 145 146 147 148 148 147 147 147 147 147 147 147
147 147 146 135 120 118 128 135 128 120 112 102 36 84 7 5
6 3 13 32 34 34 29 9 7 7 7 7 8 27 36 35
34 34 28 0 0 0 0 2 32 33 33 32 33 32 33 32
32 32 32 32 31 29 31 30 31 13 0 18 30 24 17 25
0 0 0 0 1 34 40 36 32 47 48 42 43 45 42 35
32 40 56 54 52 52 55 56 53 34 38 44 47 52 40 26
27 74 103 121 123 117 118 121 128 128 131 131 127 125 127 134
139 142 142 134 136 148 148 148 149 148 148 148 148 147 147 147
147 146 145 135 121 119 130 137 130 123 117 111 48 108 27 5
7 3 13 32 35 35 29 9 8 8 8 8 9 29 35 21
16 11 8 0 0 0 0 2 32 34 34 33 33 33 33 33
33 33 32 32 31 29 30 31 31 15 0 16 31 25 17 25
0 0 0 0 0 32 41 36 32 48 44 38 41 45 44 36
30 32 39 40 40 40 40 39 41 33 30 36 40 40 33 24
32 88 76 87 108 120 125 127 130 130 128 128 124 125 126 128
134 141 143 129 130 148 149 148 149 148 148 148 147 148 148 148
148 148 147 136 122 121 132 135 130 127 122 116 55 110 67 4
7 4 13 34 36 36 31 10 8 8 9 8 10 29 28 3
0 0 0 0 0 0 0 1 32 34 34 34 34 33 33 34
34 33 33 34 32 30 31 32 32 18 0 15 32 27 18 25
0 0 0 0 0 31 42 36 33 46 31 34 34 38 42 37
31 30 26 28 28 29 30 30 33 35 36 39 40 39 36 33
43 87 100 79 95 115 122 131 133 131 125 125 120 126 126 131
132 139 139 132 138 149 149 149 150 148 149 149 149 148 148 148
148 148 147 134 120 121 131 136 132 129 124 118 53 116 85 4
6 5 13 34 35 37 32 11 9 9 10 9 10 29 34 6
0 0 0 0 0 0 0 0 32 36 35 35 34 35 34 34
34 33 34 34 32 30 31 32 32 19 0 14 32 28 19 26
0 0 0 0 0 26 42 36 35 46 16 11 14 17 20 19
23 31 31 35 35 42 42 38 39 42 43 48 50 48 40 37
38 74 108 92 86 110 121 123 123 121 119 122 119 122 124 127
129 136 139 141 143 143 148 149 148 149 149 149 148 148 148 148
149 148 147 132 119 119 128 136 133 131 126 115 51 121 103 8
4 5 12 33 36 36 33 11 7 9 9 8 8 28 37 23
0 0 0 0 0 0 0 0 31 35 35 35 35 34 34 34
34 34 34 34 32 30 33 33 33 21 0 11 30 27 18 23
0 0 0 0 0 23 42 36 39 49 10 0 0 0 1 6
18 33 37 49 44 54 58 31 25 26 28 32 41 51 41 38
36 49 95 100 88 105 115 124 123 121 115 117 117 120 120 126
128 125 127 136 139 145 148 143 147 149 149 148 148 149 149 149
148 148 146 132 119 116 123 133 133 134 128 100 66 136 108 10
4 2 2 3 7 12 16 11 13 15 11 14 15 28 36 32
10 1 0 0 0 0 0 0 8 28 36 35 35 34 34 34
34 34 34 33 31 30 31 34 34 23 0 10 31 27 20 25
0 0 0 0 0 19 42 35 39 53 15 0 0 0 0 0
19 33 36 47 32 36 46 12 0 0 0 1 21 50 43 38
37 39 62 84 88 100 111 120 113 109 112 110 116 118 117 120
126 123 127 129 142 148 147 147 148 148 149 148 148 148 148 148
148 148 145 132 118 116 121 128 133 135 128 71 100 134 110 13
6 5 5 1 0 0 0 0 5 12 18 32 33 34 27 18
10 0 0 0 0 0 0 0 0 23 36 35 35 36 35 35
34 34 34 34 33 31 31 32 32 23 0 6 26 23 18 22
0 0 0 0 0 15 41 35 37 50 19 0 0 0 0 0
18 33 34 45 15 6 29 13 0 0 0 0 15 47 42 37
37 36 38 53 63 82 102 106 104 98 100 103 103 110 112 113
121 120 122 133 133 143 145 148 148 149 149 149 148 148 149 148
149 148 147 134 117 115 119 126 133 133 103 61 139 130 116 20
7 4 4 5 3 0 0 0 3 6 7 9 19 28 8 0
9 18 0 0 0 0 0 0 0 21 35 35 35 35 34 34
34 33 33 34 34 31 30 32 32 25 0 4 23 22 18 23
0 0 0 0 0 12 41 34 32 23 3 0 0 0 0 0
21 32 34 46 15 3 27 16 0 0 0 0 9 44 42 36
37 36 37 36 42 61 74 78 83 82 90 96 94 96 100 105
107 117 123 127 138 146 146 149 148 149 149 149 148 148 148 149
148 148 147 135 116 114 119 123 130 119 59 118 140 135 121 29
7 5 4 4 5 3 1 0 2 3 7 6 5 5 4 1
5 13 0 0 0 0 0 0 0 19 36 35 35 35 34 34
34 33 33 34 33 31 30 32 32 25 0 2 20 20 18 20
0 0 0 0 0 9 40 34 30 17 0 0 0 0 0 0
21 31 32 45 14 2 23 19 0 0 0 0 5 42 42 36
37 36 36 36 35 32 33 38 48 52 61 64 69 77 78 86
94 103 112 121 131 140 144 149 149 149 149 149 149 148 149 148
148 148 148 134 120 114 118 124 121 68 99 147 139 133 124 33
10 7 7 6 5 5 5 1 1 5 6 4 4 5 8 5
5 4 1 0 0 0 0 0 0 14 32 36 35 35 35 34
35 34 34 35 35 32 31 32 30 24 1 1 19 20 18 21
0 0 0 0 0 8 39 35 30 19 0 0 0 0 0 0
19 31 33 45 14 3 21 19 0 0 0 1 4 40 42 36
36 36 36 36 36 35 34 26 16 14 20 25 32 40 46 54
65 76 90 100 116 123 146 149 150 149 149 149 148 148 148 148
149 149 147 139 121 114 119 119 72 91 147 141 138 136 120 32
9 8 9 8 8 8 11 7 2 3 4 4 4 8 10 10
10 8 8 6 3 0 0 0 0 0 5 14 12 15 35 35
36 36 36 36 36 33 32 31 29 24 1 1 19 20 18 21
0 0 0 0 0 7 39 35 31 20 0 0 0 0 4 0
15 33 33 45 18 4 19 23 4 0 3 3 5 38 42 35
35 35 36 35 35 31 19 9 3 4 3 1 1 1 4 8
22 49 70 92 107 123 141 149 150 149 150 149 149 149 149 148
148 149 148 142 123 114 115 73 89 148 146 142 140 138 129 32
12 10 10 6 8 9 12 12 7 2 7 6 8 9 10 9
10 10 8 8 8 7 5 4 6 6 5 4 3 10 39 38
38 39 39 40 40 37 35 34 31 27 3 1 23 27 25 29
0 0 0 0 0 6 38 34 30 20 0 5 0 0 11 5
13 35 34 46 28 9 18 23 7 7 8 2 4 36 41 35
36 36 35 27 13 3 4 3 2 0 0 0 0 0 0 0
0 15 66 86 99 115 134 148 150 150 149 149 148 148 149 149
148 148 148 144 125 113 75 84 146 148 143 143 141 139 127 29
12 11 9 7 9 9 10 9 9 4 4 7 7 7 8 9
9 11 9 8 8 9 7 7 7 8 8 7 8 17 51 52
52 52 53 54 53 50 46 43 41 36 5 0 24 13 9 9
0 0 0 0 0 5 37 34 30 24 3 8 2 3 15 17
14 38 34 46 27 20 16 20 4 13 10 2 2 33 40 35
35 28 10 2 4 3 2 0 1 0 2 2 4 7 3 2
4 6 73 87 94 104 125 144 150 149 149 149 149 149 149 149
148 149 148 145 126 88 89 147 147 144 142 140 141 141 131 36
13 11 10 8 9 9 10 10 8 8 2 8 8 6 7 9
10 10 10 10 9 9 9 8 8 7 7 11 29 51 56 56
56 56 56 56 55 52 46 41 41 39 7 0 25 1 0 0
0 0 0 0 0 3 37 35 30 31 29 33 34 35 38 39
40 46 35 45 19 26 18 27 17 21 20 17 17 30 33 25
11 3 1 1 2 2 2 1 2 2 4 5 6 5 4 4
5 7 77 113 99 93 111 132 147 149 149 149 148 148 148 148
148 149 148 147 114 104 149 148 147 147 146 143 142 138 134 41
16 13 12 9 8 9 10 9 10 11 9 2 8 7 6 8
7 8 11 9 7 9 10 10 8 7 7 7 6 9 28 46
54 53 52 50 51 47 42 39 39 38 9 0 19 0 0 0
0 0 0 0 0 2 36 35 29 32 49 51 53 53 53 53
54 53 39 45 11 16 18 32 28 29 28 27 26 17 9 5
3 2 0 0 0 0 0 0 2 3 3 7 9 6 6 6
6 9 72 113 124 116 98 120 142 146 148 148 149 149 148 149
149 148 148 140 124 149 148 146 145 143 139 140 139 137 132 39
14 12 11 11 11 12 13 12 10 9 11 5 5 9 9 8
8 9 9 10 8 8 11 9 8 8 7 7 6 6 7 8
21 36 42 33 40 37 29 33 39 38 11 0 11 0 0 0
0 0 0 0 0 2 35 35 29 27 47 50 49 49 49 48
48 48 40 43 11 5 14 33 30 32 27 18 8 7 7 7
6 6 4 2 1 0 0 0 1 3 7 9 8 5 5 5
7 8 69 116 121 130 126 106 128 144 147 148 149 148 147 148
149 149 145 139 149 148 148 147 147 144 140 138 139 139 127 24
14 13 10 9 11 10 11 10 11 10 10 10 4 7 11 7
7 10 10 11 10 8 9 9 11 9 8 7 6 7 6 8
6 6 9 16 21 27 25 33 38 38 14 0 6 0 0 0
0 0 0 0 0 2 34 34 29 23 24 24 23 23 22 22
22 20 24 42 13 3 10 33 25 16 10 9 9 9 12 9
11 8 9 8 7 4 2 1 2 4 10 8 7 6 7 7
5 7 58 114 119 132 135 123 108 121 133 140 143 145 146 148
149 145 146 149 149 148 148 146 145 140 138 136 140 139 118 26
18 12 11 10 10 10 10 10 10 11 10 13 12 4 10 8
7 9 8 10 12 10 9 10 10 10 8 7 7 7 7 7
7 6 6 5 6 11 18 30 37 38 15 0 2 0 0 0
0 0 0 0 0 2 34 34 28 24 19 17 17 18 17 17
18 17 23 43 15 2 9 15 9 10 9 8 9 9 10 9
9 9 10 11 10 9 7 8 7 11 11 10 8 8 7 4
5 9 28 112 116 130 143 148 144 101 105 121 130 139 145 147
142 146 149 148 149 146 147 146 142 143 139 139 141 141 115 27
16 14 13 12 11 10 12 12 13 13 17 14 11 6 3 8
8 8 9 9 9 11 9 9 10 13 8 9 8 8 9 5
8 7 7 4 4 4 4 10 32 37 16 0 0 0 0 0
0 0 0 0 0 1 33 34 28 27 24 22 21 21 20 20
20 18 25 43 20 8 7 8 9 11 9 9 10 11 9 11
10 11 12 10 10 11 10 10 12 11 11 11 8 6 6 6
7 10 6 88 113 126 142 145 149 147 102 109 125 133 138 136
148 149 148 149 148 148 146 144 142 138 137 140 144 146 123 30
20 20 19 16 16 15 15 14 14 13 10 10 10 11 6 7
11 8 9 10 10 11 10 9 8 10 9 8 7 8 9 7
7 8 8 6 6 6 6 7 7 21 17 0 0 0 0 0
0 0 0 0 1 5 35 34 28 27 26 25 24 24 25 23
22 19 19 15 8 7 8 8 11 10 9 8 10 10 9 9
9 11 12 11 12 11 10 13 15 14 13 11 10 9 7 7
9 13 3 55 111 122 141 147 148 150 148 107 111 120 128 147
149 149 148 147 148 147 147 143 141 139 138 142 144 144 108 19
18 13 14 13 12 11 12 12 11 11 11 9 9 10 10 6
8 9 7 10 10 12 11 9 9 9 12 7 8 7 7 8
7 7 8 6 7 6 7 7 4 8 9 0 0 0 0 0
19 21 21 23 24 26 31 29 27 27 26 24 24 24 24 25
19 10 7 7 7 8 8 9 9 9 7 11 10 11 10 11
13 12 10 10 11 10 15 17 17 16 15 13 13 12 12 10
12 17 7 38 113 116 137 146 147 149 148 118 107 116 148 150
149 149 148 148 148 147 144 141 138 140 140 144 145 146 91 20
17 15 14 13 13 12 11 12 11 10 10 10 11 11 12 9
3 9 9 10 11 12 12 12 10 10 10 10 7 8 8 9
9 6 9 9 9 6 7 7 8 13 5 0 0 0 0 0
29 29 29 28 28 27 27 28 28 26 27 25 25 23 17 10
6 6 7 7 7 7 8 10 8 8 9 11 9 10 10 11
13 11 9 11 11 11 15 16 15 16 17 16 14 13 11 10
10 15 11 43 117 114 133 140 148 147 80 94 130 121 146 149
148 149 148 147 148 146 146 142 137 140 144 146 149 144 57 31
15 13 13 13 12 11 8 11 10 10 11 12 11 10 10 11
9 6 9 11 10 10 11 11 10 9 11 13 11 8 8 7
11 8 10 10 9 8 7 8 6 8 7 0 0 0 0 0
30 30 29 29 28 27 27 27 27 26 27 26 23 9 6 7
6 6 7 6 8 8 9 9 9 9 11 11 11 11 10 12
13 11 11 10 9 15 13 14 15 16 15 13 14 15 13 11
13 19 19 59 121 115 129 139 146 113 52 125 118 108 127 150
149 148 149 148 148 143 140 140 140 145 146 147 148 133 38 35
15 14 13 12 11 10 11 11 13 12 10 8 9 10 9 10
9 6 6 10 11 12 13 14 12 10 10 14 11 9 10 9
10 10 8 9 9 10 8 8 4 8 5 0 0 0 0 0
28 27 26 24 23 23 23 23 24 26 26 14 5 5 7 6
5 7 6 7 7 10 10 10 9 10 12 10 12 11 11 13
13 11 11 9 15 14 14 13 14 13 13 14 15 12 12 11
14 19 22 78 127 116 124 137 134 61 95 132 143 133 121 147
149 149 149 148 143 143 142 141 146 146 146 147 148 116 81 36
15 13 16 15 15 13 12 11 10 10 9 9 11 9 10 10
12 11 7 5 10 11 13 11 11 11 10 11 12 7 9 9
9 10 8 10 9 10 8 8 2 7 4 1 0 0 0 0
7 4 4 12 19 20 20 25 24 25 11 6 4 5 6 6
5 7 7 7 8 11 9 9 9 11 10 11 11 12 14 13
12 11 9 13 17 18 17 14 14 15 14 13 13 13 14 13
14 18 26 101 130 120 120 132 109 57 118 135 144 132 104 138
149 149 149 146 144 145 144 143 144 145 145 147 146 138 112 37
15 13 14 13 12 12 11 10 11 9 10 9 10 11 12 12
11 11 11 5 7 12 13 12 14 13 11 11 12 9 7 9
9 11 10 11 10 11 9 7 2 8 3 0 0 0 0 0
10 0 0 8 18 22 22 24 25 20 6 6 5 6 6 6
8 8 8 8 9 9 9 10 9 13 10 10 11 10 12 12
11 11 10 15 13 14 14 15 12 14 13 15 18 16 16 19
16 17 28 114 128 129 119 131 77 70 144 143 141 138 108 133
145 149 148 144 138 141 143 145 142 146 147 147 144 142 108 38
16 14 16 12 14 14 12 11 10 11 11 13 14 12 11 10
11 10 11 9 4 9 12 13 12 12 11 9 13 13 7 10
10 10 9 9 12 11 10 7 4 9 3 0 0 0 0 0
39 6 2 9 17 21 22 23 24 12 5 4 8 6 6 7
9 8 8 8 12 9 8 8 11 11 10 11 11 13 11 8
9 8 15 15 14 13 14 13 14 13 13 12 14 14 14 15
17 18 39 120 127 130 123 129 53 62 146 141 126 129 131 127
136 149 148 144 144 146 144 145 146 146 147 145 126 134 110 34
15 15 16 15 13 13 13 14 13 13 15 13 12 12 10 9
11 10 10 9 8 2 10 12 13 12 11 10 12 11 9 8
12 9 10 7 11 10 11 4 3 8 3 0 0 0 0 0
54 25 14 15 14 19 21 22 23 7 5 5 10 6 6 7
8 8 9 9 12 8 9 9 12 10 10 12 12 16 12 11
8 15 15 14 14 13 14 14 15 13 14 13 13 15 15 16
18 20 47 123 135 130 120 121 36 57 144 147 123 124 128 134
136 147 147 147 146 145 146 144 147 146 147 138 132 138 95 45
16 17 16 14 13 12 15 16 15 16 12 11 13 11 12 12
12 11 13 15 8 0 6 12 12 14 12 10 10 11 10 9
10 8 11 9 9 11 12 2 3 7 2 0 0 0 0 0
56 37 22 21 17 19 22 24 23 3 5 4 6 7 7 9
7 8 8 12 9 8 10 12 11 9 9 10 12 13 11 10
12 15 16 18 16 16 14 14 13 12 13 13 13 16 16 15
17 19 52 136 132 135 128 124 41 70 150 149 126 111 125 132
143 140 147 146 146 146 145 147 147 146 147 141 136 128 103 55
13 17 15 15 13 13 15 14 15 13 12 12 11 11 12 13
12 13 15 12 1 2 9 12 12 13 12 10 10 11 10 10
8 9 8 7 8 9 10 1 4 7 3 0 0 0 0 0
36 28 22 21 19 18 17 15 13 1 4 5 6 6 8 11
7 8 8 13 9 9 10 12 9 11 10 9 14 11 10 9
15 15 15 13 14 17 17 17 18 18 17 14 15 16 17 16
19 20 54 139 141 133 124 120 69 64 149 150 144 116 121 126
139 136 144 148 145 147 146 147 146 145 144 138 141 142 113 60
15 18 16 16 14 14 16 13 13 13 11 12 12 12 13 13
14 14 12 4 0 5 9 11 12 12 11 10 10 9 13 10
7 10 10 11 8 10 8 0 6 6 3 0 0 0 0 0
31 21 12 12 12 12 12 11 7 0 5 6 3 8 9 10
8 8 11 12 8 8 10 12 10 11 10 11 12 10 8 13
14 13 14 13 13 14 15 13 14 15 15 14 16 16 15 13
18 20 60 138 142 142 134 112 108 63 150 150 149 129 118 117
129 136 132 148 148 148 148 146 143 147 128 117 136 145 138 65
12 17 14 14 13 12 15 13 12 11 13 12 14 13 14 13
13 14 10 0 0 8 9 13 12 10 12 12 10 10 11 10
8 9 11 8 7 8 4 1 7 5 0 0 0 0 0 0
32 22 11 11 12 11 12 11 7 1 5 6 2 8 11 9
9 8 11 10 9 10 11 11 10 11 11 13 11 7 11 14
13 13 15 13 12 15 15 14 14 13 11 13 18 16 15 13
17 21 60 139 143 139 118 113 130 88 150 149 149 140 123 114
126 134 123 144 149 148 147 147 145 145 114 126 137 137 137 65
16 18 15 15 14 14 14 14 13 11 11 16 14 13 14 13
14 12 2 0 5 10 9 10 11 10 11 12 10 10 10 12
10 9 7 9 7 8 2 2 7 3 0 0 0 0 0 0
31 21 11 11 10 10 10 9 5 0 6 8 2 8 12 8
8 8 12 8 9 11 12 9 10 10 9 13 10 8 7 13
17 15 14 13 13 13 13 14 14 12 14 13 17 16 15 14
15 20 56 139 142 136 101 135 145 111 149 149 149 146 135 118
117 124 116 135 147 148 146 145 147 140 140 149 148 142 134 67
14 16 15 15 13 16 14 13 14 13 13 12 13 15 13 11
11 3 0 1 9 12 10 9 9 10 12 12 10 8 10 13
10 8 9 8 6 5 0 4 6 2 0 0 0 0 0 0
32 23 12 13 14 17 20 17 5 0 6 9 3 8 12 8
10 10 11 8 10 11 11 11 10 11 12 12 9 11 4 9
14 14 15 16 16 17 16 13 12 13 13 13 16 15 15 14
15 21 62 142 143 128 129 148 143 112 145 149 149 148 142 138
128 117 99 123 138 147 148 147 144 137 148 148 147 136 133 79
17 16 15 14 14 14 13 14 12 12 14 14 10 11 13 11
8 1 0 6 13 12 9 8 9 9 11 11 10 10 9 13
11 7 8 5 4 2 0 7 5 1 0 0 0 0 0 0
