P2
128 120
154
57 60 63 65 65 62 46 45 45 45 45 44 45 45 44 44
44 43 43 43 42 42 42 41 41 40 40 39 39 38 38 37
37 36 36 35 35 34 34 33 33 33 32 32 31 31 31 29
30 29 28 28 28 27 27 26 26 26 26 25 25 25 26 30
31 31 31 26 20 18 27 29 28 27 26 25 25 25 23 23
23 19 24 24 26 25 25 25 26 26 27 27 27 27 27 28
27 28 28 28 28 27 28 27 28 28 29 30 31 31 31 31
32 32 32 33 33 33 34 33 33 33 33 33 33 33 33 33
52 53 53 53 63 67 55 50 46 45 44 44 44 44 44 44
43 43 43 42 43 42 42 42 41 41 40 39 39 39 38 37
37 37 36 36 35 35 34 34 33 32 32 31 31 31 31 30
30 29 29 29 28 28 27 27 27 26 25 25 25 26 27 30
31 31 31 27 21 22 25 29 28 27 26 25 25 26 23 23
23 20 25 25 26 27 26 27 27 27 27 27 27 27 27 28
27 27 28 27 28 29 29 30 29 29 29 30 30 30 31 31
31 32 32 32 33 33 33 33 34 34 33 34 34 33 33 33
3 3 2 2 36 65 61 65 62 55 46 45 45 44 44 44
43 44 42 42 42 41 41 41 41 41 40 39 39 39 38 38
37 37 36 35 36 35 34 34 33 33 33 32 32 31 31 30
30 29 30 28 28 27 27 26 26 26 26 26 26 26 27 30
32 33 32 28 22 24 24 30 28 27 27 26 25 26 25 24
24 20 25 25 27 27 27 28 27 27 27 28 28 27 27 27
27 28 28 29 29 29 30 30 30 30 30 30 31 31 32 32
32 32 33 32 33 33 34 33 33 33 33 34 34 33 34 33
12 2 0 0 29 62 55 56 42 44 46 47 56 58 59 55
51 44 43 42 42 42 42 41 41 41 40 39 39 39 38 37
37 37 36 36 36 36 35 34 34 33 33 33 32 32 32 31
30 30 30 29 29 28 28 28 28 26 26 26 26 26 27 31
34 33 32 28 23 26 22 30 29 28 28 27 26 27 25 24
24 21 26 26 28 28 28 27 28 27 27 27 27 27 28 28
28 28 29 29 29 30 30 31 31 30 31 31 31 32 31 32
32 32 33 33 33 33 34 34 33 34 33 34 34 34 34 33
10 4 0 0 20 60 55 51 8 2 10 20 31 42 49 56
58 46 43 42 42 42 41 41 41 40 40 40 40 39 38 38
38 37 36 36 36 35 35 34 34 34 34 33 33 32 32 32
31 31 30 30 29 28 28 28 28 27 27 26 26 27 28 33
33 33 33 29 22 26 23 30 29 28 28 27 26 28 25 25
25 21 26 26 28 28 28 28 28 28 29 28 29 28 29 29
29 29 30 29 30 30 30 30 30 30 31 31 31 31 32 32
33 33 34 34 33 33 34 33 34 33 33 34 34 34 34 34
5 1 0 0 15 60 57 50 7 0 0 0 0 0 2 33
58 47 43 42 42 43 42 41 41 40 40 40 39 39 39 38
37 37 37 36 36 36 35 35 34 34 34 33 32 32 32 32
31 30 30 30 29 29 29 28 28 27 27 27 27 28 30 31
33 32 33 29 23 28 23 30 30 29 29 28 27 28 25 25
25 21 25 24 28 28 28 29 29 29 29 29 29 29 29 29
29 30 30 30 30 30 31 31 30 31 32 31 32 32 32 32
32 32 33 33 33 33 34 34 33 34 34 35 35 33 33 34
9 7 0 3 10 58 57 48 7 0 0 0 0 0 0 28
57 46 42 42 42 41 41 41 40 40 40 39 39 39 38 38
38 37 37 37 36 35 36 35 35 35 34 33 33 32 32 32
31 31 30 30 30 29 29 28 28 28 27 27 27 28 28 32
34 34 35 30 25 29 24 30 29 28 29 27 27 29 25 26
26 22 27 27 29 29 29 29 29 29 29 29 29 29 29 30
30 30 30 30 31 30 31 31 31 31 31 31 32 31 32 32
32 33 33 34 34 33 34 34 33 33 32 32 33 34 33 34
0 1 0 2 7 57 56 50 8 0 3 10 1 0 0 27
58 47 43 43 42 42 42 41 41 41 40 40 39 39 39 38
38 38 37 37 37 36 37 35 35 35 34 33 33 33 33 33
32 31 31 31 30 30 29 29 29 29 29 28 28 28 30 32
34 32 33 30 24 29 26 29 30 30 30 30 28 30 27 27
27 23 27 27 29 29 29 29 30 29 30 30 29 30 30 30
30 30 30 31 31 31 32 32 31 32 32 32 32 32 33 33
33 33 33 33 32 31 32 33 33 34 34 35 34 35 35 34
0 2 0 3 5 56 58 52 8 1 12 14 3 0 0 27
57 46 43 42 42 42 42 41 41 41 41 40 40 39 39 39
38 38 38 37 37 37 36 35 35 35 34 34 34 34 33 33
33 33 32 31 31 31 31 30 29 29 29 29 28 29 30 33
30 31 30 30 26 29 27 29 31 31 30 28 28 29 27 28
27 25 29 28 31 30 31 30 30 30 31 30 30 30 29 30
31 31 31 32 32 32 31 32 32 32 33 32 32 33 33 32
33 33 33 33 35 35 35 35 35 34 34 34 35 35 36 33
0 0 0 4 5 52 57 52 9 0 5 8 5 0 0 27
57 47 43 43 43 43 42 42 42 41 41 40 41 39 39 39
39 39 38 38 37 37 37 36 36 35 35 34 35 35 34 33
33 33 33 32 32 31 31 31 30 29 30 30 31 31 32 31
27 22 21 19 20 26 27 28 31 31 31 30 29 29 27 28
28 24 28 28 30 30 31 31 31 32 31 32 31 31 31 32
32 32 32 32 32 32 33 32 33 33 32 32 32 33 34 34
35 34 35 35 35 35 35 35 34 35 35 35 36 36 36 35
4 0 0 0 3 48 56 52 10 0 1 7 12 2 0 26
58 46 43 43 42 42 42 42 41 42 41 40 40 39 40 39
39 40 39 38 38 38 37 36 36 36 36 34 35 35 34 34
34 34 34 33 33 32 32 31 30 31 32 32 27 27 28 27
27 26 20 17 17 18 20 24 30 32 32 30 29 29 28 28
28 26 28 28 32 32 31 32 32 32 32 32 32 31 32 32
32 32 33 33 33 34 33 33 32 33 33 34 33 34 35 35
35 35 36 36 36 35 36 36 35 35 35 35 35 35 36 35
19 18 17 19 20 45 54 55 12 0 2 7 12 3 0 26
56 46 43 42 42 42 42 42 42 41 42 41 40 40 40 39
40 39 38 38 37 38 37 37 37 37 36 36 36 36 35 35
35 34 34 33 33 32 32 31 28 26 22 24 27 27 25 26
20 18 14 18 16 18 19 19 22 32 33 33 32 29 29 29
28 26 28 28 32 32 32 32 32 33 33 33 33 33 33 32
33 33 33 32 33 33 34 33 33 34 34 34 34 35 36 36
36 36 36 36 36 36 36 35 36 35 35 36 35 35 37 35
44 42 42 43 41 39 47 55 14 0 1 5 6 8 5 27
56 47 44 43 43 42 42 42 42 42 41 41 40 40 40 39
40 39 39 38 38 38 38 37 37 36 35 35 36 36 35 35
35 34 34 33 33 31 32 29 27 28 29 27 23 25 26 28
31 32 19 16 24 20 24 23 25 23 29 30 31 29 30 29
29 27 28 29 33 32 33 33 33 33 33 33 32 32 32 32
33 33 33 34 34 34 34 34 33 34 35 35 34 35 36 35
35 35 36 35 35 36 36 36 35 36 36 36 36 35 37 35
32 32 34 35 36 37 42 49 38 27 23 16 11 10 15 36
56 46 43 44 42 43 42 42 42 42 41 41 41 40 40 40
39 39 39 39 38 38 38 37 37 37 37 37 36 35 36 35
35 34 33 32 27 25 23 25 27 32 28 26 26 27 30 29
31 28 26 24 21 25 26 24 23 24 24 28 30 29 31 31
30 28 28 29 33 33 33 33 33 32 32 33 32 32 33 33
35 34 34 34 33 33 33 34 34 35 34 35 35 36 36 36
35 36 36 36 36 36 36 35 35 35 36 35 35 35 37 35
22 25 29 34 39 42 38 36 37 39 41 42 43 42 40 45
52 45 43 43 43 43 43 43 42 41 41 41 40 40 40 40
40 39 39 39 39 38 38 38 37 37 37 36 37 36 36 36
37 32 29 21 18 20 26 26 35 36 28 24 25 26 27 29
28 30 26 27 33 34 33 29 21 19 24 18 25 27 30 30
30 30 29 29 33 33 33 32 33 33 33 34 32 33 33 33
34 33 33 34 34 33 34 34 35 35 35 36 36 35 35 36
36 35 36 36 36 36 35 36 35 36 35 36 36 36 37 35
20 19 20 20 20 21 22 22 24 27 30 34 37 41 43 44
45 44 44 44 43 42 43 42 42 42 42 41 41 40 40 40
39 39 39 39 38 38 38 38 37 37 37 36 37 35 35 32
24 18 18 15 16 17 22 29 34 31 24 22 24 28 27 34
33 33 28 21 26 34 33 32 26 11 23 20 23 24 27 29
30 30 30 30 33 33 33 34 33 33 33 34 34 34 35 34
35 34 34 34 33 34 34 34 35 35 35 35 35 35 35 36
36 36 36 37 36 36 35 36 36 36 36 36 36 36 36 34
19 20 20 20 21 20 20 20 20 19 20 20 22 26 30 35
40 43 44 44 44 44 43 43 43 42 42 41 41 41 40 39
41 40 39 39 39 39 39 38 38 37 37 37 34 27 15 7
6 9 10 11 11 9 15 22 25 24 21 29 32 31 31 31
29 33 36 28 23 27 26 22 14 18 10 26 27 26 21 29
31 32 30 33 35 35 34 34 34 34 34 35 34 34 34 34
35 34 35 34 35 35 35 35 35 36 35 35 36 36 36 36
36 36 36 37 36 36 36 36 37 37 36 35 35 35 35 34
35 34 39 35 33 30 27 23 19 19 19 18 19 19 18 20
21 22 26 29 33 37 40 42 43 42 42 41 41 41 41 41
41 40 40 39 39 39 39 39 38 37 38 34 20 12 13 7
6 3 6 5 8 8 8 8 12 13 26 27 31 28 26 18
18 17 23 23 21 23 20 29 25 17 13 17 34 34 23 24
33 32 31 33 35 35 35 34 34 34 35 34 35 34 34 34
36 35 36 36 36 36 35 35 36 36 36 36 36 36 36 37
37 36 37 37 37 36 36 35 34 34 35 36 36 36 36 35
37 35 39 40 42 50 64 53 27 24 21 19 20 20 19 20
19 19 20 19 19 21 21 22 26 32 41 42 41 41 40 41
40 40 40 39 40 39 39 39 38 38 34 21 12 6 1 3
6 8 6 2 1 6 11 12 13 14 16 18 26 34 36 35
34 31 31 36 34 34 33 33 33 32 27 19 21 38 36 20
29 31 32 35 36 37 36 34 35 34 35 35 35 35 35 35
36 36 35 35 36 35 36 35 36 36 36 37 38 37 36 36
36 35 35 36 36 36 37 37 36 36 36 36 36 36 35 35
0 12 44 40 43 50 62 62 56 52 47 46 48 43 39 33
21 22 20 19 20 19 19 12 11 23 41 42 42 42 41 41
40 40 40 40 40 39 39 39 38 33 21 5 3 2 3 4
5 7 10 12 15 17 18 21 24 22 27 29 29 34 33 36
38 35 31 29 32 33 39 36 27 32 42 38 26 20 35 26
23 32 32 35 35 35 37 36 36 35 34 35 35 35 36 36
37 36 35 36 35 35 36 36 36 36 35 36 36 34 35 35
35 36 36 36 36 36 36 37 36 36 35 36 35 36 36 35
0 12 40 40 43 49 60 62 60 62 56 54 61 59 57 49
29 36 36 30 24 21 19 17 18 23 41 42 43 42 41 40
40 42 41 41 40 39 39 37 31 25 10 6 5 4 3 3
4 7 11 16 17 20 23 25 29 29 32 40 44 51 49 48
47 42 39 40 39 36 39 44 39 38 40 41 38 29 21 24
18 22 33 35 38 37 36 37 36 36 36 36 36 36 36 36
37 36 36 36 35 36 36 36 36 36 36 36 36 35 36 36
36 35 36 36 36 35 35 37 35 36 36 36 36 36 36 36
0 6 12 11 12 33 58 60 58 59 51 53 56 60 60 53
38 45 51 46 48 50 45 29 17 22 40 42 42 42 42 44
52 50 48 45 43 41 37 34 26 11 1 1 3 4 8 9
14 11 14 17 18 22 26 25 27 32 37 34 37 40 49 55
53 51 53 50 49 44 44 41 41 40 45 43 37 26 23 24
20 11 30 36 36 37 37 36 37 37 37 37 36 36 36 36
36 35 35 35 36 36 37 37 37 35 37 36 36 36 36 36
35 36 36 36 36 36 36 37 36 36 36 36 36 36 35 35
0 12 12 2 1 25 60 53 12 29 26 33 41 48 53 53
43 48 52 50 55 58 57 40 19 25 42 43 43 42 42 45
54 52 50 47 46 47 43 33 19 3 4 5 8 5 6 5
11 17 19 21 24 29 33 34 37 37 41 41 40 41 43 53
59 53 50 51 55 60 61 60 58 59 50 46 39 35 28 33
33 22 24 31 36 38 37 36 37 37 36 37 38 36 36 36
36 37 36 37 36 36 36 36 37 36 36 36 37 36 37 37
37 36 36 37 36 36 36 38 36 36 37 36 36 35 36 36
7 26 40 7 0 28 59 52 3 8 1 0 1 6 9 49
45 50 53 54 57 58 58 46 19 26 45 45 45 43 43 45
54 52 50 49 51 53 47 32 13 3 4 1 0 0 2 7
12 20 27 30 35 36 39 44 52 46 47 45 44 50 49 50
55 56 63 63 65 70 73 79 80 76 80 76 79 64 61 59
58 44 30 35 38 39 35 36 38 36 37 36 37 36 36 36
36 36 36 36 36 36 36 37 38 36 37 36 36 36 37 36
36 36 36 36 36 36 35 37 37 37 36 36 36 36 36 36
19 32 39 32 5 22 62 53 3 0 1 0 8 16 10 48
44 48 49 54 56 56 57 47 20 26 47 46 45 47 47 48
32 21 36 46 51 52 47 19 4 3 1 2 0 0 4 8
12 17 23 30 38 43 51 50 42 41 44 41 43 48 58 64
76 77 82 92 99 96 92 99 102 97 97 102 110 105 100 93
84 72 50 40 41 35 35 36 37 37 36 37 36 36 36 36
36 37 36 36 36 37 36 36 38 36 37 37 37 37 37 37
37 36 36 36 35 36 35 36 37 36 36 36 35 36 36 37
22 38 32 23 14 17 62 58 6 0 0 0 16 21 15 49
22 19 30 41 49 52 53 48 22 26 47 46 40 41 49 55
23 0 5 21 25 26 32 16 6 5 4 0 1 5 9 13
18 23 26 22 21 26 39 53 57 52 48 52 58 68 75 84
92 85 90 104 111 111 108 112 116 117 119 118 115 113 111 105
101 91 80 52 41 39 32 36 37 38 37 36 37 36 36 36
36 36 36 36 36 36 37 36 38 37 37 37 37 37 36 36
37 37 36 36 36 36 36 37 37 36 36 36 36 36 36 36
7 26 31 17 3 15 63 60 8 1 2 0 9 12 12 49
14 0 3 6 6 12 17 48 23 23 33 41 47 48 53 56
28 0 2 13 18 17 24 21 6 3 0 0 2 6 7 7
9 10 13 16 21 26 39 41 39 41 54 66 77 78 79 99
109 95 100 112 121 118 117 125 126 121 126 123 118 116 113 111
107 98 92 76 34 34 34 37 37 38 38 37 37 36 36 37
37 37 37 37 37 37 37 37 38 37 37 37 38 37 37 38
37 37 37 37 37 37 37 38 36 36 36 36 36 36 37 37
0 1 3 0 0 14 63 62 10 0 0 0 2 0 6 50
11 1 0 0 0 0 6 47 23 18 1 2 8 17 28 40
29 0 1 8 6 10 27 15 0 0 0 1 0 0 2 4
7 8 17 24 24 32 41 54 64 75 82 90 91 89 103 109
110 95 107 123 122 126 131 130 127 126 130 125 121 119 115 113
108 105 98 89 57 36 32 35 37 39 38 37 37 36 37 37
37 37 37 37 37 37 38 38 39 38 38 38 37 38 38 37
38 37 37 37 37 37 37 37 36 38 37 37 37 37 37 36
0 0 0 0 0 12 62 64 14 0 5 4 15 0 5 50
12 5 1 10 0 0 5 47 23 17 0 0 0 0 0 2
23 0 0 1 0 9 22 4 0 0 0 0 0 1 0 6
9 18 24 40 51 59 64 75 80 88 93 95 98 99 103 113
115 111 115 124 132 135 131 127 128 131 135 128 125 121 117 111
111 109 103 95 83 48 33 35 36 37 37 36 36 36 37 37
37 37 37 38 37 38 38 37 38 37 38 37 38 38 38 38
38 37 38 37 37 36 36 37 37 38 38 37 37 36 36 37
0 0 0 0 0 10 63 65 18 0 16 16 25 2 5 49
13 6 2 19 8 0 4 47 23 17 0 0 0 0 0 0
18 0 0 0 4 5 14 0 0 0 0 0 0 0 4 11
20 31 48 55 58 67 82 84 94 95 93 96 96 105 107 114
115 117 123 130 134 133 128 128 134 135 134 133 131 126 122 119
114 111 105 100 93 72 36 35 36 38 37 36 36 36 37 37
37 37 36 37 37 38 38 38 38 38 38 38 38 38 38 38
37 37 37 36 37 37 37 38 37 37 37 37 36 35 34 36
34 33 31 26 24 30 62 65 23 3 2 3 2 1 4 48
13 6 3 12 8 0 4 46 22 18 0 0 0 3 0 0
16 0 0 0 0 1 9 0 0 0 0 0 0 4 9 22
41 55 62 61 66 75 89 86 100 100 96 99 104 108 114 115
117 126 138 134 138 134 124 123 133 135 135 134 133 130 126 121
116 113 109 101 98 86 55 36 36 38 37 36 37 37 36 36
37 37 37 37 37 37 38 37 37 36 36 37 37 37 37 37
37 37 36 37 37 37 37 37 37 36 36 37 36 35 35 37
56 52 50 45 40 36 35 37 8 0 3 11 4 0 3 44
10 2 2 0 2 0 3 45 22 17 1 3 4 14 0 0
14 1 2 0 0 2 6 0 0 0 0 0 1 11 25 42
56 64 60 59 71 83 87 94 102 101 100 104 110 112 113 119
121 127 140 141 139 134 134 132 130 134 138 136 134 130 128 122
118 114 110 103 99 92 74 38 37 37 36 36 36 36 36 36
37 36 36 36 36 36 36 36 36 37 36 37 37 37 37 37
37 36 37 37 36 36 36 36 36 35 36 35 35 36 36 36
28 31 37 46 49 48 38 33 15 10 7 11 4 0 4 44
9 0 8 0 0 0 3 44 22 17 3 12 4 5 0 0
16 3 0 0 0 5 6 0 2 0 0 0 11 24 42 52
63 64 60 67 72 84 90 93 97 92 101 106 114 115 119 122
122 131 140 142 138 141 139 135 134 140 139 140 139 134 131 126
121 118 113 106 100 98 85 53 37 37 36 37 37 36 36 36
37 36 36 37 36 36 37 36 36 36 36 37 36 37 37 37
38 36 37 36 37 36 37 36 36 35 35 35 34 33 34 36
0 0 1 3 8 24 46 45 52 52 48 49 46 39 37 49
22 8 9 10 7 4 8 45 22 19 8 5 0 2 3 0
21 8 5 6 1 2 6 0 0 0 0 12 26 40 49 58
60 58 60 69 78 83 91 91 91 100 111 111 119 118 126 127
125 124 132 139 137 142 140 139 137 140 142 143 142 140 133 128
122 120 115 109 101 100 90 69 36 37 37 37 37 37 37 36
37 38 37 36 36 36 37 36 36 36 37 37 37 38 37 38
38 37 36 35 34 33 34 34 34 33 33 33 30 29 27 23
0 0 1 0 0 10 58 49 17 22 30 38 42 46 51 56
65 44 38 44 47 44 42 43 22 19 3 0 0 0 0 0
36 52 40 38 34 25 4 0 1 4 9 22 30 38 45 54
56 55 64 73 69 81 89 96 97 104 108 115 121 119 129 133
131 121 128 137 142 143 144 142 139 141 143 143 141 137 134 130
126 121 118 112 104 101 96 83 43 38 37 37 37 38 37 37
36 38 37 36 37 37 37 37 37 37 37 37 37 36 37 36
37 35 36 36 33 33 31 28 25 22 19 17 16 16 15 15
0 0 10 15 1 9 57 49 19 12 20 18 15 5 37 70
66 39 43 53 56 56 56 47 22 20 2 0 0 0 0 0
39 60 48 54 57 53 18 3 2 10 16 26 31 36 45 48
53 56 67 67 76 83 91 99 100 106 108 116 121 125 129 135
136 133 139 141 141 143 144 144 141 142 142 141 142 139 133 130
129 125 119 115 106 103 99 90 52 37 37 37 37 37 37 36
36 38 37 36 37 37 37 37 37 37 38 38 37 36 34 34
30 26 27 37 22 15 16 16 16 17 18 19 20 21 22 23
25 6 24 10 1 7 57 50 6 6 9 4 4 0 39 68
57 36 45 54 55 58 59 49 22 22 19 14 7 3 1 0
39 51 49 55 58 54 22 2 8 15 19 26 35 46 45 47
48 59 67 77 75 81 93 101 95 102 111 116 122 123 125 133
138 134 138 143 143 144 144 143 143 143 143 141 142 141 136 129
128 127 122 115 109 103 104 94 66 36 37 36 37 37 36 35
35 37 37 30 17 38 38 37 35 33 29 26 23 21 19 18
19 19 18 33 20 17 21 23 24 25 26 27 27 28 28 28
29 14 16 15 4 6 56 49 2 1 4 0 0 0 35 64
42 9 14 20 23 27 35 48 23 24 44 55 52 45 39 33
48 40 47 53 53 48 18 6 10 16 24 32 40 47 45 44
50 56 70 76 77 82 92 98 103 108 117 118 119 118 125 129
136 136 138 139 140 142 144 144 144 144 143 143 143 141 136 130
125 127 122 117 114 104 105 97 82 39 35 34 32 33 37 37
36 36 27 6 19 27 25 22 21 20 20 21 22 23 24 25
26 26 25 31 23 23 28 30 30 30 31 32 32 32 32 31
6 0 19 30 8 7 55 47 1 0 0 0 0 0 32 63
43 1 0 0 0 0 6 43 24 24 45 58 57 56 56 57
57 23 18 26 31 32 14 5 11 16 28 37 42 51 39 43
47 56 73 75 82 82 88 102 105 112 116 122 118 127 132 130
131 138 140 137 142 144 143 143 144 145 144 143 142 140 138 137
134 131 126 119 115 106 105 104 91 51 32 33 26 22 29 26
23 17 8 18 23 24 24 24 26 26 27 27 29 29 30 30
32 31 29 32 25 27 32 32 33 33 34 34 34 35 35 35
31 32 34 17 6 9 56 47 3 22 2 0 0 0 26 64
44 0 0 0 0 2 7 41 25 22 41 55 56 56 57 58
55 12 0 0 9 20 17 8 15 19 27 39 41 45 47 52
52 63 69 73 75 91 90 97 104 115 114 119 122 125 127 128
127 137 140 140 144 144 143 144 145 144 144 144 143 143 142 142
140 137 130 122 118 110 105 107 98 70 25 23 21 20 23 23
13 19 18 29 30 30 31 32 32 31 32 33 33 34 34 34
34 33 26 11 10 29 34 36 36 35 35 34 35 36 36 35
20 51 50 18 1 11 61 51 8 33 3 0 0 0 20 59
39 0 0 0 11 33 31 37 35 30 35 42 43 45 44 51
51 8 0 3 13 23 23 11 19 20 34 36 41 41 45 51
55 62 75 82 83 88 94 101 110 115 112 118 123 125 129 135
136 137 140 141 142 141 139 144 144 145 145 144 143 143 144 144
143 140 133 123 117 111 106 110 103 85 32 27 28 28 29 17
27 23 29 34 34 34 34 35 35 35 35 35 35 34 35 35
34 34 25 5 2 25 35 37 37 36 36 36 37 36 37 36
7 45 44 18 3 10 61 53 4 19 7 0 0 0 19 55
37 0 0 0 9 34 33 30 31 26 28 28 33 39 37 47
51 8 0 5 23 29 19 14 19 23 36 37 42 43 46 48
51 63 74 93 91 89 93 102 103 108 111 116 120 122 129 135
135 134 131 139 142 144 145 145 144 145 144 142 139 144 144 142
141 131 123 122 116 110 106 110 107 88 50 32 33 34 23 27
36 33 16 22 22 19 15 21 37 37 36 36 24 6 6 11
11 12 20 8 3 24 36 37 39 37 37 37 36 37 37 37
0 35 32 12 2 9 62 55 4 2 3 0 0 0 21 56
34 0 3 0 2 14 17 28 28 26 29 31 35 40 41 49
48 8 1 12 28 23 18 16 17 26 35 37 41 49 50 53
56 69 78 84 83 92 95 100 100 104 109 115 120 120 126 133
129 130 133 142 143 144 145 144 142 145 144 142 138 131 132 124
119 117 108 108 108 101 101 110 108 81 52 35 35 33 23 34
33 37 7 1 0 1 2 18 26 18 5 5 2 6 1 0
0 0 6 1 0 23 35 36 38 36 36 37 37 36 36 36
3 20 23 2 0 8 60 53 4 0 0 0 0 0 24 58
33 0 3 1 0 0 0 26 23 25 17 11 16 22 29 34
40 9 5 16 25 19 11 13 19 24 31 37 47 50 52 59
63 73 73 77 90 94 96 97 101 111 112 117 115 119 128 137
139 139 144 143 144 145 144 143 142 140 140 140 123 106 105 98
87 75 61 53 73 78 89 102 98 72 39 33 37 20 15 3
3 44 20 0 0 0 0 0 0 0 0 0 0 0 11 0
0 0 1 2 1 22 36 37 38 37 37 37 36 37 37 36
25 7 4 7 15 20 57 49 3 0 0 0 0 0 27 58
32 0 1 8 2 0 1 32 32 31 14 0 0 0 0 0
18 10 6 23 19 13 13 14 19 23 34 46 47 51 57 61
66 74 79 82 92 93 95 100 103 109 111 116 120 127 134 138
137 141 143 142 144 144 143 142 137 134 131 117 101 85 72 57
47 29 21 28 50 60 69 87 78 57 25 26 28 4 13 13
3 5 2 0 0 0 0 0 0 0 0 0 0 0 6 0
0 0 2 7 1 26 36 37 38 37 37 37 36 37 36 37
0 7 5 16 52 52 54 47 25 19 15 9 7 4 31 58
33 0 0 6 7 0 0 36 37 31 16 0 0 1 0 0
14 9 11 22 12 13 14 14 16 24 39 47 54 57 61 68
76 87 85 88 97 97 95 100 104 108 117 119 128 139 136 138
137 140 140 137 143 143 141 138 134 120 94 86 72 53 41 35
23 20 24 37 44 62 68 80 69 39 17 14 17 22 37 17
19 25 19 18 18 18 17 13 9 12 2 0 0 0 0 0
0 0 7 18 12 30 37 38 39 38 37 37 37 36 37 37
10 34 44 34 56 59 58 50 56 53 43 40 50 42 45 50
39 7 0 5 14 7 0 34 37 31 17 0 2 10 4 2
12 11 17 15 10 9 9 16 17 25 39 48 58 62 67 77
88 96 87 88 98 95 94 103 109 111 116 120 131 138 136 135
136 139 136 134 140 138 132 119 93 71 67 62 57 61 61 69
67 57 52 61 62 66 76 71 48 23 21 11 11 26 24 35
39 39 39 39 39 38 38 37 20 17 1 0 0 0 0 1
1 3 22 28 28 34 37 37 38 37 36 37 36 36 37 36
50 49 57 56 56 59 60 58 31 21 14 14 21 24 25 46
45 36 28 25 33 28 20 40 36 28 16 0 9 25 12 2
11 21 17 10 11 10 8 17 16 29 40 52 67 98 118 126
120 94 89 92 97 100 103 104 111 108 117 121 125 135 137 137
137 138 141 140 135 131 118 96 85 82 86 89 87 92 83 66
51 59 60 77 87 86 97 71 34 35 31 11 33 31 38 38
38 38 39 38 38 38 38 33 9 0 0 0 0 1 33 34
34 33 31 30 33 36 37 37 38 37 37 37 37 37 37 37
47 33 53 48 35 40 46 52 12 0 0 0 10 22 15 48
46 34 28 34 43 50 53 54 44 27 18 0 12 23 11 3
11 32 16 8 11 7 8 17 19 30 39 61 112 108 91 103
132 133 87 104 107 103 105 105 111 110 113 119 122 130 136 134
138 138 137 137 130 124 115 100 101 106 100 92 81 73 66 59
47 58 67 85 113 116 113 83 50 28 18 28 39 39 39 38
39 38 39 39 39 38 38 29 0 0 9 5 0 0 34 37
36 35 34 33 36 37 37 37 38 38 37 37 37 37 36 37
25 3 24 18 1 0 2 41 13 0 1 4 7 19 26 49
47 19 0 3 12 16 46 55 43 26 20 1 5 6 4 1
13 31 14 9 10 5 9 16 19 30 41 111 126 130 133 125
111 129 138 125 126 112 108 106 109 119 115 122 128 129 138 137
139 139 136 129 125 126 122 113 110 103 88 71 74 66 42 21
39 59 70 96 121 132 132 100 23 12 25 39 40 39 40 39
39 39 39 39 38 38 38 31 0 0 6 6 0 0 33 37
37 35 34 35 37 36 36 36 36 37 37 37 37 36 36 37
22 0 0 4 1 0 0 40 16 0 14 40 24 13 20 51
47 15 0 10 31 16 46 52 38 27 28 16 4 5 3 3
12 26 13 11 7 7 8 20 20 28 81 140 142 146 147 145
113 87 134 145 142 125 109 106 116 121 122 123 128 132 133 134
136 140 139 134 130 126 119 118 112 94 66 50 71 86 68 33
50 84 79 98 120 142 143 120 39 13 37 39 38 39 39 39
39 39 38 39 38 38 38 31 0 0 0 1 0 0 30 37
37 36 35 36 36 37 36 36 37 37 38 37 36 36 36 36
8 2 0 11 7 0 0 40 17 6 34 42 12 2 15 54
49 12 1 7 32 33 49 49 31 29 29 12 1 3 3 1
10 24 15 14 11 12 8 19 21 32 128 142 147 147 148 147
127 86 123 143 143 135 121 117 122 130 128 130 134 129 136 134
132 140 139 135 133 132 127 114 102 87 90 88 101 87 64 57
65 97 108 117 135 144 144 129 77 29 40 39 39 39 39 39
38 39 38 38 37 36 37 29 0 0 0 0 0 0 29 37
37 36 37 38 38 37 37 38 38 38 37 37 37 37 36 36
42 43 37 42 17 0 0 39 19 4 23 49 11 0 15 56
51 12 0 1 9 21 50 49 30 32 29 9 4 4 2 1
11 20 14 11 6 12 12 18 20 33 135 143 147 147 148 147
144 123 124 138 139 136 127 116 126 135 134 135 135 133 138 137
133 138 139 136 131 126 120 121 124 123 118 115 109 97 82 75
76 95 108 127 139 142 143 137 113 51 38 38 39 38 38 38
39 39 38 37 19 10 6 6 0 0 0 0 0 0 26 38
37 37 37 38 38 37 37 38 37 38 37 37 37 36 36 36
17 10 13 14 6 0 0 39 18 0 11 30 7 6 16 56
52 12 0 0 0 9 48 49 31 30 31 38 38 33 32 31
24 15 14 13 4 8 13 14 21 40 143 147 144 146 147 147
146 145 136 129 130 129 127 114 121 128 129 131 133 131 138 137
138 138 139 140 138 141 142 141 135 130 120 104 100 91 81 75
81 97 120 132 137 140 142 139 129 85 39 40 40 40 40 40
40 40 39 30 9 19 2 4 0 0 0 1 2 1 23 38
37 37 37 37 37 37 37 37 36 37 37 36 36 37 36 36
13 0 0 0 0 0 0 36 17 0 0 0 1 5 14 55
52 11 0 0 0 6 47 51 30 31 33 54 58 57 58 55
34 12 15 12 6 9 12 16 19 50 148 148 146 141 148 148
147 147 103 106 123 126 127 121 120 122 124 131 132 132 136 141
141 140 141 142 143 143 141 140 138 134 124 109 103 98 91 93
104 120 133 135 136 140 143 142 135 111 50 39 40 40 40 39
39 39 39 40 46 43 23 19 1 0 0 0 0 0 8 25
37 37 37 38 37 37 38 37 37 37 37 37 36 36 36 36
20 0 0 0 0 0 0 35 20 0 0 0 0 0 11 55
50 9 0 0 0 6 46 52 29 31 33 55 60 58 57 53
31 12 16 17 14 6 16 17 21 46 146 148 147 140 146 147
145 108 37 101 124 137 131 124 120 113 114 124 130 131 135 140
140 140 143 143 143 144 142 140 141 135 126 110 106 106 107 110
120 130 134 135 138 141 143 142 141 125 72 39 40 40 39 38
39 39 38 35 33 33 8 2 0 0 0 0 0 0 11 6
17 29 37 38 37 37 37 36 36 36 37 36 36 36 35 36
30 0 0 0 0 0 0 33 18 0 0 0 0 0 10 54
51 9 0 0 0 4 43 48 26 32 29 34 37 37 35 35
23 8 14 23 21 6 16 16 20 31 131 148 147 140 146 142
112 82 78 118 117 146 138 127 119 117 110 119 127 133 131 123
132 137 142 138 140 142 142 139 139 136 134 122 112 108 111 115
121 127 131 135 139 141 142 143 141 137 97 41 40 39 38 36
35 32 30 24 7 3 2 0 0 0 0 0 0 0 2 7
1 17 37 37 37 37 37 37 37 36 36 36 36 35 35 35
24 0 0 0 0 0 0 31 17 0 0 0 0 0 9 53
51 9 0 0 0 2 41 49 27 31 29 39 42 39 37 32
20 11 10 24 24 17 7 22 15 23 96 149 147 141 147 131
103 95 113 101 99 147 141 127 120 118 116 120 127 130 117 113
117 130 134 130 136 142 140 140 139 138 135 128 118 113 112 114
118 124 132 139 140 140 142 141 140 139 119 56 39 38 26 13
11 11 11 6 1 1 0 0 0 0 0 0 1 0 2 7
3 14 38 38 38 37 37 37 37 36 35 35 35 35 35 35
0 0 0 0 0 0 0 31 24 6 7 9 13 17 26 54
51 10 0 0 0 3 46 54 27 29 29 42 45 43 43 33
18 9 5 23 32 35 13 22 22 23 49 145 148 143 147 126
122 108 114 101 110 147 140 127 120 119 117 121 122 122 115 110
112 119 129 129 136 138 132 139 144 142 135 132 126 119 113 113
116 121 131 139 139 138 139 135 136 134 126 88 32 25 12 3
3 4 3 2 1 9 5 3 0 0 0 0 1 0 1 7
4 12 37 38 37 38 37 37 37 36 36 36 35 36 36 35
19 19 18 15 13 13 12 37 46 44 44 47 50 53 53 48
36 17 10 7 5 5 44 50 26 30 31 43 45 45 43 29
17 10 10 13 41 33 24 10 17 20 29 102 149 144 144 128
134 126 120 106 120 145 138 124 120 117 115 116 119 117 121 116
122 124 128 134 133 129 133 137 141 141 139 137 130 123 114 111
113 115 122 133 132 134 131 135 134 134 128 111 29 5 6 7
8 9 9 9 7 6 4 13 4 0 0 0 1 0 1 7
4 10 37 39 38 37 36 36 36 35 34 34 35 34 34 34
53 54 52 51 48 49 51 53 51 48 50 50 51 51 51 48
45 45 44 42 39 36 45 46 39 40 41 41 43 43 38 21
17 8 9 8 40 31 23 6 9 12 26 46 136 145 138 133
128 137 129 122 127 137 138 123 116 115 118 117 118 115 118 119
124 123 122 130 127 125 133 140 140 140 134 142 137 126 115 106
106 107 120 124 122 122 123 129 134 132 136 119 63 10 11 11
12 11 11 10 3 2 4 12 8 0 0 0 0 0 1 5
6 12 33 35 36 35 36 36 36 36 35 36 36 36 35 30
59 58 59 57 56 58 58 49 37 36 46 47 46 46 46 46
46 45 45 45 44 44 44 43 43 42 43 42 41 41 33 18
19 10 10 12 25 29 15 8 2 4 20 31 83 146 132 138
132 137 141 133 123 125 137 120 110 111 115 118 117 113 121 120
119 118 120 127 127 126 134 137 129 139 134 138 136 125 112 102
98 103 121 122 122 125 124 124 132 134 140 128 86 9 8 6
4 3 6 11 9 2 7 7 2 0 0 0 6 2 1 5
14 17 31 37 38 37 37 36 36 36 35 35 36 25 5 5
58 53 57 54 55 58 53 30 28 32 45 46 46 45 46 45
46 45 45 44 44 44 44 43 42 42 42 42 40 41 30 17
18 9 14 17 13 25 12 6 1 0 12 25 40 117 144 127
136 145 144 127 121 131 133 118 108 111 113 116 120 118 120 120
117 118 121 127 128 132 138 136 137 139 136 132 131 115 107 92
87 85 104 121 128 130 128 124 128 133 137 129 94 4 0 0
0 0 6 11 10 7 6 5 0 0 0 0 2 0 1 9
8 11 32 38 37 37 37 37 36 36 36 35 35 20 0 4
27 29 26 25 25 32 29 26 27 31 44 46 43 37 36 36
35 34 33 32 30 30 28 27 27 25 25 25 25 25 24 20
16 11 11 21 9 11 12 3 1 0 2 20 35 69 134 146
136 128 136 141 146 144 128 115 107 105 111 114 118 120 118 121
121 121 122 130 126 127 132 130 134 136 127 127 123 107 97 83
91 83 84 100 112 113 100 95 105 113 119 118 82 2 0 0
0 0 9 12 11 9 7 6 7 7 9 10 9 10 14 18
19 17 25 26 25 24 25 35 37 36 36 35 35 16 0 0
0 2 0 0 0 11 5 26 28 31 43 45 33 8 2 2
2 1 1 1 0 0 0 0 0 0 0 0 0 7 21 14
12 12 13 21 17 2 14 5 2 0 0 10 27 54 98 142
148 145 144 140 142 139 136 109 105 107 112 115 118 122 121 121
126 123 116 130 123 123 127 133 132 128 129 123 116 104 88 93
100 107 94 79 82 74 52 50 65 92 105 96 36 0 0 0
0 0 12 12 11 9 33 17 21 24 28 25 21 27 25 22
21 17 15 37 34 14 17 34 37 37 35 35 35 14 0 0
0 2 1 1 0 12 15 25 27 30 42 46 35 8 0 0
0 0 0 0 0 0 0 0 0 0 0 0 1 11 21 14
13 14 19 19 30 8 2 4 1 0 0 3 20 46 82 105
136 145 147 147 146 147 131 101 106 109 113 115 118 121 122 124
124 127 127 131 125 128 131 131 130 127 123 114 106 91 90 103
103 120 123 117 109 107 105 109 108 95 66 27 1 0 0 0
0 2 13 12 12 11 28 17 22 28 33 50 46 62 64 67
33 18 27 78 84 9 13 33 36 36 21 12 10 4 0 0
0 1 0 4 14 21 21 25 27 30 41 46 38 12 0 0
0 0 0 0 0 0 0 0 0 0 0 1 2 13 22 12
11 17 18 13 27 15 1 2 0 0 0 0 9 38 78 89
100 121 140 142 143 141 102 91 106 108 111 116 117 124 125 123
124 128 132 133 132 127 134 131 130 122 115 105 90 82 98 110
121 122 120 122 118 107 99 66 60 35 2 0 0 0 0 0
0 5 13 12 12 8 24 16 25 31 37 91 71 95 92 96
41 17 63 115 118 52 12 32 36 31 0 0 0 0 0 0
0 1 8 19 21 21 20 25 26 29 39 45 39 16 0 0
0 0 0 1 1 0 0 0 0 0 1 0 3 15 23 8
10 15 15 6 24 19 3 0 0 0 0 0 1 32 75 88
97 96 104 111 112 98 45 89 97 104 108 110 115 122 126 125
125 131 130 133 130 129 131 130 122 113 110 96 85 96 110 126
126 130 124 123 123 107 86 65 63 12 0 0 0 0 0 0
0 8 13 12 15 5 24 25 30 34 33 63 50 55 51 48
32 26 48 57 42 32 21 28 37 29 0 0 0 0 0 0
0 0 13 21 21 22 21 25 26 29 39 45 41 21 0 0
0 0 0 1 1 0 1 1 1 2 0 0 5 18 20 8
11 18 13 0 17 21 4 0 0 0 0 0 0 19 76 88
96 101 97 98 96 70 59 90 89 100 107 110 117 121 123 124
128 131 130 132 132 127 118 123 113 108 105 95 93 108 126 137
134 133 131 123 113 101 89 83 54 1 0 0 0 0 0 0
0 12 13 14 17 3 6 30 34 37 25 27 27 23 20 24
24 24 24 24 22 23 20 27 37 35 8 0 0 0 0 0
0 0 10 21 22 22 21 25 26 29 38 45 41 24 0 0
0 0 0 0 0 1 1 1 1 0 0 1 5 17 16 7
9 21 16 1 5 30 8 2 0 0 0 0 0 9 65 85
96 103 106 113 116 111 96 89 90 97 103 106 119 121 120 122
122 126 125 130 129 117 111 115 111 110 109 97 103 116 125 131
133 133 129 121 117 103 90 86 35 0 0 0 0 0 0 0
1 13 12 14 15 0 9 28 34 37 25 27 24 23 16 17
20 25 24 24 22 23 20 26 37 36 26 3 0 0 0 0
0 0 9 21 22 22 20 24 26 28 36 45 42 27 1 0
0 0 0 0 0 0 0 0 1 1 1 4 9 12 12 10
10 17 16 2 0 20 16 1 0 0 0 0 0 5 59 86
99 107 112 115 115 111 97 88 87 96 100 109 119 117 119 121
122 122 117 125 128 118 115 108 112 119 113 99 99 107 114 114
115 113 114 113 109 99 90 78 29 0 0 0 0 0 0 0
4 13 12 14 9 0 2 4 19 37 25 26 17 18 16 19
21 26 26 25 23 21 18 20 31 15 15 0 0 0 0 0
0 0 11 21 22 22 20 23 25 28 35 45 42 28 2 0
0 0 0 0 0 0 1 1 1 1 3 2 5 11 8 13
10 12 9 2 0 6 23 3 0 0 0 1 0 2 52 88
102 108 112 115 115 109 96 82 85 94 106 113 116 114 119 122
122 123 121 123 123 121 113 104 117 126 113 98 80 70 73 72
73 73 74 77 80 76 64 47 8 0 0 0 0 0 0 0
7 13 12 14 5 0 1 1 22 35 25 25 15 21 18 19
22 26 25 25 22 21 17 13 9 0 0 10 0 0 0 0
1 0 12 21 22 22 20 24 25 28 33 44 42 30 4 0
0 0 0 0 0 0 0 1 0 0 0 1 6 9 9 14
10 12 7 3 0 0 22 9 0 0 0 0 0 0 48 88
102 110 112 115 116 108 94 81 81 88 97 108 114 117 118 119
120 121 123 120 118 121 114 109 118 125 115 97 83 83 89 97
104 95 86 68 69 68 49 51 1 0 0 0 0 0 0 0
10 13 12 15 4 0 6 7 29 34 27 25 14 20 17 17
23 25 25 24 21 21 19 1 0 0 1 0 0 0 0 0
2 0 9 20 20 21 19 23 25 27 32 43 42 31 5 0
0 0 0 0 0 0 0 1 0 0 0 2 7 5 4 11
8 8 7 0 0 0 10 21 6 0 0 0 0 0 39 86
102 110 113 115 114 107 92 83 77 81 95 101 109 114 117 117
109 115 123 123 121 118 113 110 117 122 116 102 109 119 111 105
110 112 112 103 86 71 62 54 12 0 0 0 0 0 0 0
12 12 12 13 1 2 16 10 35 31 26 23 10 16 16 16
23 24 24 24 21 21 19 1 0 1 10 0 0 0 0 0
18 10 16 19 20 21 19 22 24 26 31 43 42 31 7 0
0 0 0 0 0 0 0 1 0 0 1 1 1 2 1 7
4 6 6 0 0 0 0 18 20 2 0 1 1 0 32 85
101 109 113 116 115 106 91 80 72 76 89 100 107 114 114 114
100 111 118 118 119 118 115 113 118 119 115 109 120 127 127 121
116 113 104 107 107 97 89 77 29 0 0 0 0 0 0 2
13 12 13 10 0 5 14 9 37 30 23 10 3 11 17 14
22 24 23 22 22 22 19 1 0 4 9 0 0 0 0 0
49 35 25 17 19 20 18 21 24 26 30 42 42 33 7 0
0 0 0 0 0 0 0 1 0 0 1 0 0 1 1 2
3 4 5 0 0 0 0 11 28 6 0 1 0 0 26 82
98 107 112 116 116 107 90 78 71 77 86 98 106 110 112 115
114 115 116 109 113 114 116 114 117 116 118 117 125 127 131 126
124 126 115 100 94 89 76 65 20 0 0 0 0 0 0 5
13 11 13 8 0 2 5 13 38 27 16 6 1 10 13 14
22 23 23 22 21 21 19 4 5 9 9 6 5 4 3 2
27 4 8 17 19 20 18 21 24 25 29 41 41 33 8 0
0 0 0 0 0 0 0 0 1 0 1 0 0 0 2 1
3 4 6 1 0 0 0 1 24 13 0 0 1 0 22 84
98 107 112 116 117 111 92 82 75 76 86 96 101 107 110 112
113 114 117 113 111 109 116 116 115 109 116 120 131 133 131 130
122 116 113 109 99 81 69 53 11 0 0 0 0 0 0 7
12 12 13 5 0 30 29 22 37 27 15 5 1 9 13 14
23 23 22 22 21 21 20 6 9 10 9 6 4 3 1 0
22 0 1 16 18 19 18 19 23 25 29 40 42 34 10 0
0 0 0 0 0 0 0 0 1 0 0 0 0 0 2 0
0 4 6 2 0 0 0 0 16 18 1 1 4 2 22 84
97 107 111 116 117 111 94 84 76 71 77 85 93 101 109 111
109 109 111 112 111 111 114 116 114 114 110 115 126 129 129 130
126 119 109 97 79 62 52 29 0 0 0 0 0 0 0 10
12 13 13 2 7 70 39 22 35 26 15 4 8 13 13 15
23 23 22 21 21 21 21 4 0 0 0 0 0 0 0 0
23 0 0 15 17 18 17 18 22 23 27 39 40 33 10 0
0 0 0 0 0 0 0 0 0 0 0 0 0 0 1 1
0 0 10 2 0 0 0 2 8 17 2 2 6 2 21 84
96 106 110 114 117 114 100 91 84 68 75 80 88 91 101 103
105 107 109 110 111 111 110 111 116 115 112 109 116 125 124 120
118 117 110 95 76 66 55 11 0 0 0 0 0 0 1 11
12 13 12 0 9 49 21 28 33 25 20 13 9 17 14 17
25 24 21 20 20 21 19 4 0 0 0 0 0 0 0 1
26 0 0 14 17 18 17 17 21 23 26 39 40 34 11 0
0 0 0 0 0 0 0 0 0 0 0 1 0 0 0 1
1 2 13 1 0 1 7 3 3 15 2 3 2 0 23 86
97 104 111 114 117 117 106 94 90 75 62 68 75 82 93 100
103 107 109 105 100 111 109 110 115 116 113 108 113 121 118 114
108 115 108 98 90 69 52 4 0 0 0 0 0 0 3 13
11 14 10 0 0 12 14 34 31 27 22 16 11 17 15 20
26 25 22 20 20 20 18 4 0 0 0 0 0 0 0 6
33 10 5 15 17 18 17 16 20 22 25 37 40 33 11 0
0 0 0 0 0 0 0 0 0 0 0 0 0 0 0 1
1 10 10 0 0 0 3 0 3 15 4 1 0 0 31 86
97 103 111 115 117 118 114 100 91 80 60 54 60 68 71 89
99 103 106 105 99 109 113 113 113 113 108 116 109 116 114 111
112 114 111 105 96 75 51 7 5 4 5 5 5 4 9 13
12 13 6 0 0 4 13 40 29 28 24 15 11 17 16 20
25 23 21 20 20 19 18 5 0 0 0 0 0 0 0 2
39 36 33 27 14 15 15 15 20 21 24 36 40 34 12 0
0 0 0 0 0 0 0 0 0 0 0 0 0 0 2 2
6 12 8 0 0 1 3 0 7 12 5 0 0 0 37 87
96 101 110 115 117 119 117 108 95 84 68 55 50 55 60 71
82 89 99 105 107 105 108 111 108 105 103 109 103 111 111 110
114 117 116 111 98 74 58 14 12 12 12 12 12 12 13 13
13 15 4 0 1 4 18 38 28 27 22 15 11 16 16 21
25 23 21 20 20 19 18 5 0 0 0 0 0 0 0 0
21 9 6 7 7 8 9 10 19 21 24 35 38 34 12 0
0 0 0 0 0 0 0 0 0 0 0 0 0 0 0 3
13 12 5 0 1 7 3 2 17 11 5 0 0 0 44 89
95 102 109 115 118 118 113 106 106 92 75 57 56 52 47 58
68 82 94 100 102 107 108 107 109 109 106 108 107 114 109 109
112 116 113 107 99 78 59 13 13 13 13 12 12 12 12 12
13 16 2 0 5 7 24 37 28 27 22 13 10 16 16 22
23 22 21 20 20 19 19 6 0 0 0 0 0 0 0 0
24 2 0 2 6 7 7 8 18 20 24 34 38 34 13 0
0 0 0 0 0 0 0 0 0 0 0 6 0 0 2 10
13 10 2 0 2 0 0 5 12 12 2 0 0 0 54 90
96 101 109 115 117 117 118 111 110 102 78 64 61 60 53 47
51 64 83 98 99 103 102 104 98 100 103 101 106 107 101 108
110 115 112 105 98 79 64 24 14 13 13 12 13 14 13 7
7 12 0 0 19 25 32 34 27 26 20 12 8 13 16 22
24 22 21 20 21 19 19 5 0 0 0 0 0 0 0 0
24 3 0 1 5 6 10 12 18 20 23 33 38 34 13 0
0 0 0 0 0 0 0 0 0 0 0 5 1 0 1 7
11 5 0 0 0 0 0 8 9 8 0 0 0 3 66 89
95 101 108 113 117 116 119 116 107 110 92 75 70 68 61 57
50 49 62 80 94 99 102 107 101 95 103 99 103 105 103 104
107 114 111 105 91 74 77 96 69 64 55 30 39 36 35 32
15 0 0 22 44 16 36 31 27 26 14 6 8 10 16 22
24 22 21 21 21 19 18 5 0 0 0 0 0 0 9 0
25 4 0 0 0 5 13 13 17 18 22 32 37 33 13 0
0 0 0 0 1 2 3 4 7 8 9 12 16 14 12 11
10 1 0 0 0 0 6 5 15 3 0 0 0 4 76 87
93 100 108 113 116 119 120 115 113 109 104 90 74 72 68 63
60 55 50 56 72 87 94 99 95 94 96 90 94 98 98 99
103 108 110 103 86 72 102 144 136 122 95 29 9 8 10 12
27 25 3 92 139 31 38 29 27 25 15 14 8 7 16 21
23 22 22 21 21 19 18 6 0 0 0 0 0 1 16 0
14 1 0 0 2 3 12 13 17 19 22 31 38 34 25 15
17 20 22 24 25 27 28 28 29 30 30 30 28 23 15 8
5 0 1 0 0 4 5 19 10 0 0 0 0 16 83 90
92 101 107 113 114 115 118 116 116 110 108 98 81 77 74 74
70 64 60 53 52 61 76 88 88 87 94 91 87 92 99 100
102 106 103 92 72 68 111 142 135 122 95 21 7 8 7 7
23 22 34 112 131 22 40 27 26 23 10 8 0 4 16 18
16 16 19 20 20 18 18 7 0 0 0 0 0 12 17 0
6 7 0 1 4 0 12 12 15 18 21 30 37 37 37 35
31 34 37 36 34 34 33 33 32 31 31 31 29 24 19 17
9 5 3 0 2 6 18 23 2 1 3 2 0 28 87 90
93 98 106 112 116 118 119 114 116 112 114 107 99 89 81 83
84 77 68 61 54 54 56 69 80 84 88 82 84 87 84 90
94 98 92 74 61 44 16 71 119 118 87 17 3 3 3 9
26 0 12 54 40 18 41 22 7 4 0 0 0 0 0 2
17 25 18 16 14 15 19 8 0 0 0 0 0 17 9 0
11 7 0 1 0 0 4 6 13 16 20 30 38 38 37 36
28 34 35 35 34 33 33 33 36 36 24 18 18 19 21 20
5 2 3 2 3 21 31 12 0 4 5 5 0 33 87 90
91 97 105 108 115 119 120 118 121 116 118 116 105 101 98 92
92 86 82 75 63 52 50 53 55 58 64 69 67 69 68 77
85 83 66 51 40 8 0 0 7 36 29 4 5 2 2 21
38 19 23 50 36 40 43 19 1 0 0 0 0 0 0 0
7 20 6 13 11 12 20 10 0 0 0 0 0 5 1 0
2 0 0 0 0 0 2 5 11 13 17 27 36 36 35 35
31 31 30 31 31 28 29 46 62 35 1 0 2 6 14 22
25 18 21 26 27 28 14 2 0 9 8 5 1 39 90 89
89 95 101 108 113 116 121 119 120 119 119 118 111 104 108 103
102 95 87 81 69 57 47 42 37 32 37 37 37 39 42 47
47 46 37 18 3 0 0 1 1 0 1 3 5 21 58 73
85 90 95 88 91 90 58 29 25 0 0 0 0 0 0 0
1 15 2 10 10 5 7 10 11 4 0 0 0 0 0 0
0 0 0 0 0 0 0 1 2 4 7 11 17 15 14 12
10 8 7 9 15 16 40 74 47 5 1 5 6 2 8 11
18 19 21 24 21 12 3 1 2 14 21 5 0 44 92 90
87 89 99 104 109 113 120 124 122 119 121 120 115 114 111 109
103 100 94 82 75 62 44 35 27 21 16 10 8 4 6 5
5 3 0 0 0 0 0 0 1 0 0 0 1 7 37 70
102 96 84 79 93 91 58 17 20 0 0 0 0 0 0 0
0 8 4 11 8 9 12 0 3 0 0 0 0 0 0 0
0 0 0 0 0 0 0 0 0 0 0 0 0 0 0 0
1 3 3 4 19 26 66 62 12 1 3 3 6 28 13 0
0 2 5 4 0 0 1 1 4 28 8 0 0 53 93 93
87 83 94 102 108 114 121 125 126 123 122 119 118 120 120 114
111 107 97 87 73 60 45 30 20 9 4 1 9 0 0 0
0 0 0 0 0 0 0 0 0 0 1 0 0 0 0 4
22 58 88 89 91 91 53 1 0 0 0 0 1 0 3 2
1 2 8 5 0 0 0 0 0 0 0 0 0 0 0 0
3 0 0 0 0 0 0 0 0 2 0 0 0 0 0 0
9 14 11 9 18 43 65 28 2 0 2 9 46 41 7 0
0 0 0 0 0 0 4 14 16 2 0 0 0 50 94 95
91 84 89 100 108 115 118 123 123 125 122 119 118 119 117 120
116 112 100 88 68 46 30 12 3 0 1 11 31 0 0 0
0 0 0 0 0 0 0 0 0 0 0 0 1 0 0 0
0 2 8 28 45 51 37 19 20 16 11 10 7 0 2 1
0 0 0 0 0 0 0 0 0 0 0 0 0 0 0 0
15 4 0 0 0 0 0 0 0 4 5 4 3 0 0 0
4 14 14 11 11 52 19 1 1 5 5 31 89 25 0 0
0 0 2 0 0 1 15 11 0 1 3 1 0 47 99 100
96 89 91 98 106 113 119 121 125 127 124 119 116 115 115 118
123 116 103 89 75 56 41 21 6 13 26 46 48 0 0 0
0 0 0 0 0 0 0 0 0 0 0 0 0 0 0 0
0 0 0 0 3 12 9 5 3 1 0 0 0 0 0 0
0 0 0 0 0 0 0 0 0 0 0 0 0 0 0 0
18 1 0 0 0 0 3 3 3 4 8 7 4 0 0 1
9 22 20 8 5 5 0 0 4 6 3 2 5 9 0 0
0 1 1 0 2 1 0 0 0 3 2 2 1 43 102 104
101 94 93 97 105 113 120 123 125 128 125 118 115 114 114 116
119 121 112 105 99 76 61 50 46 60 69 73 58 0 0 0
0 0 0 0 0 0 0 0 0 0 0 0 0 7 13 26
0 0 0 0 0 0 2 1 1 0 0 0 0 0 0 2
0 0 0 1 0 0 0 0 0 0 0 0 0 0 0 0
1 0 0 0 1 2 10 14 12 8 7 7 8 11 16 19
21 19 17 2 1 1 0 2 4 5 4 5 5 0 0 0
0 4 0 4 1 0 0 0 0 2 4 3 4 36 103 107
105 97 95 96 102 107 118 124 125 126 125 120 116 113 113 112
118 120 117 110 93 68 72 74 86 92 89 83 61 0 0 0
0 0 0 0 0 0 0 0 0 0 0 0 11 74 72 41
9 0 0 0 0 0 0 1 3 1 0 0 11 31 16 23
39 37 34 58 64 70 13 0 0 0 0 0 0 0 0 0
0 0 0 0 0 0 10 13 9 3 4 6 8 12 22 24
18 10 3 1 0 0 2 2 6 6 5 2 0 0 0 0
1 4 0 4 0 0 0 0 0 5 7 3 5 27 99 110
108 103 99 98 99 107 114 121 128 127 124 124 118 115 114 112
111 114 112 101 75 71 76 89 98 98 91 85 64 0 0 1
0 0 0 0 0 0 0 1 2 3 1 0 0 47 80 28
0 0 0 0 0 0 0 1 3 3 1 0 30 125 101 104
141 80 114 120 102 103 35 0 0 0 0 0 0 0 0 0
0 0 0 0 0 0 7 7 4 0 1 2 3 10 21 22
8 1 1 1 2 2 5 4 2 0 0 0 0 0 0 0
4 0 2 9 0 0 0 0 2 7 7 5 4 25 91 114
111 108 104 100 97 104 113 120 124 130 127 124 119 115 113 111
108 105 95 74 68 78 82 98 101 98 91 86 59 0 0 2
2 0 0 0 0 0 1 0 2 2 3 0 0 27 30 23
0 0 0 0 0 0 0 0 1 4 2 0 0 8 44 48
60 68 85 59 34 50 33 0 10 2 14 1 0 0 0 0
0 0 0 0 0 0 2 2 1 2 3 3 3 11 20 11
1 2 3 3 1 0 0 0 0 0 0 0 0 0 1 0
2 1 5 7 0 0 0 0 0 4 4 4 3 22 75 114
112 112 109 103 98 101 110 118 123 126 127 123 118 118 114 108
100 89 71 64 78 80 91 102 100 97 91 85 31 0 0 1
4 0 0 0 0 0 0 1 0 0 0 0 0 5 5 1
2 0 0 0 1 2 0 0 1 1 2 1 0 0 0 10
77 85 82 55 76 55 26 1 6 2 8 1 0 0 0 0
0 0 0 0 0 0 0 1 3 6 7 6 5 12 7 3
3 2 0 0 0 0 0 0 0 1 1 0 0 0 0 0
0 1 1 2 0 0 0 0 0 3 4 4 1 19 48 107
114 113 112 106 99 99 105 113 120 123 124 124 122 113 109 105
97 80 65 73 77 86 100 103 101 96 91 71 5 0 0 1
5 0 0 0 0 0 0 1 0 0 2 3 1 0 13 2
2 2 1 0 1 1 0 0 1 1 2 2 0 0 0 0
30 52 39 23 30 28 12 0 1 0 0 0 0 0 0 0
0 0 0 0 0 0 3 8 5 9 12 9 7 4 0 0
0 0 0 0 0 0 0 0 0 0 3 4 2 0 0 0
0 0 0 0 0 0 0 0 1 5 4 4 0 9 41 72
115 114 112 108 102 98 101 109 118 121 124 123 119 115 108 101
92 80 76 79 87 99 106 108 105 95 87 30 0 0 0 0
1 0 0 0 0 0 0 1 0 0 3 5 9 5 0 4
6 8 6 7 8 6 6 5 6 6 6 1 0 0 0 0
0 5 4 2 5 0 0 0 1 0 2 0 0 0 0 0
0 0 1 0 0 0 18 17 5 10 11 7 0 0 0 0
0 0 0 0 0 0 0 0 0 2 2 6 3 0 1 0
0 0 0 0 0 0 2 0 0 3 3 5 0 1 27 49
87 117 115 111 104 98 99 104 110 117 121 120 122 116 110 104
95 90 94 96 99 106 114 111 101 92 56 4 0 0 0 0
1 0 0 0 0 0 0 0 1 0 1 6 7 5 0 0
0 0 0 0 0 0 0 0 0 0 2 2 3 5 1 0
0 0 13 15 14 0 0 2 1 0 5 4 0 0 0 0
0 0 0 0 0 0 17 19 4 9 5 0 0 0 0 0
0 0 0 0 0 0 0 1 0 2 2 3 1 0 0 0
1 0 0 1 0 1 13 0 0 5 4 3 0 0 5 38
56 95 116 112 107 100 99 104 110 117 121 120 117 113 111 107
104 99 95 92 100 112 114 108 95 76 15 0 0 0 0 0
4 0 0 0 0 0 0 0 3 0 2 3 3 1 0 0
0 0 0 0 0 0 0 1 2 3 0 0 0 1 7 9
2 0 2 21 20 0 0 5 1 0 0 0 0 0 0 0
0 0 0 0 0 0 12 23 10 3 0 0 0 0 0 0
0 1 2 0 0 0 0 1 1 1 1 1 0 1 0 0
0 0 0 0 0 9 25 2 0 6 5 4 0 0 0 10
48 60 92 112 109 101 98 103 108 114 119 120 114 109 106 103
98 89 85 94 110 116 111 102 92 31 8 0 0 0 0 0
5 0 0 0 0 0 0 0 3 0 0 0 2 2 2 1
2 3 2 1 1 1 4 6 8 11 5 0 0 0 0 0
5 7 2 30 65 0 0 4 0 0 0 0 0 0 0 0
9 0 0 0 0 0 6 22 13 0 0 0 0 0 0 0
0 0 1 0 0 0 0 0 0 1 2 0 1 0 0 0
0 0 0 0 0 10 18 3 0 7 5 3 0 0 0 0
18 54 58 86 108 104 97 101 108 113 118 119 113 107 102 93
87 84 91 106 115 115 108 98 69 9 8 0 0 0 0 1
7 0 0 0 0 0 0 0 2 2 0 0 4 3 1 1
3 3 1 3 5 6 9 10 15 16 4 0 0 0 0 0
0 0 4 13 63 0 1 3 0 0 0 0 0 0 0 0
15 3 1 0 0 0 0 2 5 0 0 0 0 0 0 0
0 0 0 0 0 0 0 0 0 1 1 0 2 0 2 0
0 0 0 0 0 2 15 8 0 3 8 4 0 0 0 0
0 25 61 64 78 98 95 99 104 112 117 115 111 105 98 92
90 92 103 115 119 115 104 92 26 17 5 0 0 0 0 0
6 0 0 0 0 0 0 0 0 6 0 0 2 2 1 3
5 2 1 7 9 11 13 13 13 13 3 0 0 0 0 0
0 0 0 0 23 0 0 0 0 0 0 0 0 0 0 0
20 0 7 0 0 0 0 4 4 0 0 0 0 0 0 1
0 0 0 0 0 0 0 0 0 0 0 1 2 1 5 0
0 0 0 0 0 2 14 13 0 2 12 4 0 0 0 0
0 2 31 69 67 66 88 100 107 111 115 114 107 103 97 94
95 103 114 122 118 111 100 62 18 21 3 0 0 0 0 0
7 0 0 0 0 0 0 0 0 6 0 0 1 1 3 6
5 1 4 6 12 15 16 14 11 12 5 1 1 2 0 0
0 0 0 0 1 0 0 0 0 0 0 0 0 0 0 0
10 2 9 0 0 0 0 2 1 0 0 0 0 0 0 0
0 0 0 0 1 0 0 0 0 0 0 3 1 3 4 2
0 0 0 0 0 2 13 12 1 0 12 6 2 0 0 0
0 0 1 23 62 60 49 81 108 114 116 114 105 102 98 98
103 112 121 124 117 107 90 32 26 9 2 0 0 0 0 0
9 0 0 0 0 0 0 0 0 3 2 0 0 2 4 6
1 1 5 11 15 17 16 12 10 12 5 1 1 9 3 0
0 0 0 0 0 0 0 0 0 0 0 0 0 0 0 0
0 0 0 0 0 0 0 1 1 0 0 0 0 0 0 0
0 0 0 1 3 0 0 0 0 0 1 6 1 5 5 5
0 0 0 0 0 2 13 15 3 0 15 8 0 0 0 0
0 0 0 0 9 38 45 38 78 111 117 113 106 100 98 102
111 120 124 121 115 100 55 30 12 1 2 0 0 0 0 0
10 0 0 0 0 0 0 0 0 1 3 0 0 4 7 3
0 3 9 16 20 21 17 11 11 14 5 3 3 10 9 0
0 0 0 2 0 4 1 0 0 0 0 0 1 0 0 0
0 0 0 0 0 0 0 0 0 0 0 0 0 0 0 0
0 0 0 0 3 1 0 0 0 0 1 2 3 3 3 5
0 0 0 0 0 5 12 8 4 0 6 14 2 0 0 0
0 0 0 0 0 3 13 25 35 70 106 109 103 99 102 109
117 124 125 120 101 55 23 9 0 1 0 0 0 0 0 0
8 0 0 0 0 0 0 0 1 0 4 0 0 2 6 0
0 6 14 20 25 22 17 11 13 11 7 3 2 5 10 2
0 0 1 9 2 4 3 0 0 0 0 0 0 0 0 0
0 0 0 0 0 0 0 0 0 0 0 0 0 0 0 0
0 0 0 0 3 3 0 0 0 0 4 2 5 3 4 5
1 0 0 0 0 4 4 1 2 0 1 12 2 0 0 0
3 1 0 0 0 0 0 2 6 15 31 52 58 63 69 73
71 67 53 30 13 7 3 0 1 1 0 2 0 0 0 0
9 0 0 0 0 0 0 0 1 0 1 2 0 0 2 0
4 11 18 21 28 22 15 7 15 12 4 3 5 1 8 0
0 0 1 10 0 0 0 0 0 0 0 1 0 0 0 0
0 0 0 0 0 0 0 0 0 0 0 0 0 0 0 0
0 0 1 1 3 4 0 0 0 0 6 2 4 4 4 7
2 0 0 0 0 1 2 0 2 0 0 10 4 0 0 0
3 2 0 0 0 0 0 0 0 2 3 4 5 6 6 6
6 6 5 7 4 3 1 0 0 0 1 0 0 0 0 0
8 0 0 0 0 0 0 0 0 0 0 3 0 3 0 0
7 16 21 24 32 19 14 11 17 11 5 3 5 1 3 0
0 0 0 6 3 0 0 0 0 0 2 3 0 0 0 0
0 0 0 0 0 0 0 0 0 0 1 0 0 0 0 0
0 0 1 2 3 3 1 0 0 3 7 3 5 4 5 6
3 2 0 0 0 0 0 0 1 1 0 4 6 0 0 0
3 3 3 0 0 0 0 0 0 1 2 3 4 5 4 4
4 4 3 3 4 2 2 0 0 0 2 0 0 0 0 0
8 0 0 0 0 0 0 0 0 0 0 1 0 0 0 3
12 21 27 29 30 19 11 12 19 11 2 3 5 0 1 0
0 0 1 7 6 0 0 0 0 2 3 1 0 0 0 0
0 0 1 0 0 0 0 0 0 0 1 0 0 0 0 0
0 0 1 2 4 6 1 0 0 8 4 4 4 2 5 2
3 6 1 0 0 0 0 0 0 2 0 0 8 2 0 0
3 5 3 2 0 0 0 0 0 0 1 1 2 2 2 2
2 4 4 2 1 0 1 0 0 1 1 0 0 0 0 1
15 0 0 0 0 0 2 0 0 0 0 0 2 0 0 6
15 25 28 32 24 14 11 11 17 10 2 3 5 0 0 0
0 1 2 7 5 0 0 0 1 2 0 0 0 0 0 0
0 0 3 5 0 0 0 0 0 0 1 0 0 0 0 0
0 0 0 4 5 5 3 0 1 15 2 5 4 2 5 3
4 5 4 2 0 0 0 0 0 2 0 0 13 7 0 0
2 8 4 2 2 0 0 0 0 0 0 0 0 1 1 1
0 1 1 0 0 1 1 0 0 1 0 0 0 0 0 1
16 0 0 0 0 0 3 1 0 0 0 0 2 1 0 6
18 27 33 26 18 11 13 14 14 7 2 3 6 0 1 0
0 2 8 5 9 0 0 0 0 2 0 0 0 0 0 0
3 4 0 0 0 0 0 0 0 0 2 0 0 0 0 0
0 0 0 3 4 6 4 0 7 13 1 5 2 3 3 2
3 3 5 3 0 0 0 0 0 2 0 0 23 16 0 0
1 7 4 3 2 2 0 0 0 0 0 0 0 1 0 0
0 1 0 0 0 0 0 0 1 0 0 0 0 0 0 3
18 0 0 0 0 0 2 3 0 0 0 0 4 6 0 6
19 31 31 23 16 12 14 20 18 8 3 3 5 1 0 0
0 2 8 0 14 0 0 0 0 9 2 0 0 0 0 0
0 20 3 0 0 0 0 0 0 2 4 0 0 0 0 0
0 0 0 1 4 6 3 0 13 8 4 5 2 3 4 4
3 3 5 3 0 0 0 0 0 1 1 0 32 22 0 0
0 7 4 4 2 1 1 3 0 1 1 0 0 0 0 1
0 0 0 0 0 0 0 1 1 0 0 0 0 0 0 3
12 0 0 0 0 0 0 3 0 0 0 0 0 13 2 7
15 21 28 18 14 13 17 22 15 7 1 1 6 1 0 0
0 5 8 0 10 1 0 0 0 3 0 0 0 0 0 0
0 19 3 0 0 0 0 0 0 5 10 0 1 0 0 0
0 0 0 0 4 6 4 5 17 4 12 5 1 5 6 4
3 3 5 2 0 0 0 0 0 3 2 2 35 15 0 0
0 3 4 4 3 2 2 1 3 5 3 2 1 0 1 1
2 1 1 1 3 3 3 1 0 0 0 0 0 0 0 4
9 0 0 0 0 0 0 8 6 0 0 0 0 10 9 7
12 19 28 11 11 14 27 23 13 4 0 0 6 1 0 0
0 5 11 0 15 1 0 0 0 0 0 0 0 0 0 0
0 10 2 0 0 0 0 0 0 7 15 1 0 0 0 0
0 0 0 0 3 5 3 16 17 6 14 2 2 5 5 5
2 2 5 2 0 0 0 0 0 2 2 4 32 15 0 0
0 0 5 5 6 4 3 0 1 1 2 3 3 2 2 1
3 5 3 6 4 3 5 1 0 0 0 0 0 0 0 1
1 0 0 0 0 0 0 6 10 0 0 0 8 5 16 11
11 20 25 13 10 19 27 20 12 2 0 0 6 2 0 0
0 6 12 3 4 0 0 0 0 0 0 0 0 0 0 0
9 7 0 0 0 0 1 0 0 6 16 2 0 0 0 0
0 0 0 0 2 3 1 32 12 25 18 1 2 4 5 3
2 1 5 2 0 0 0 0 0 3 1 14 42 4 0 0
0 0 3 5 6 5 5 2 0 0 1 4 5 4 4 5
5 4 6 4 3 4 0 1 0 0 0 0 0 0 0 0
2 0 0 0 0 0 0 7 11 3 0 0 1 6 11 35
9 20 19 13 16 29 34 24 9 0 0 0 6 2 0 0
0 7 13 5 5 1 0 0 0 0 0 0 0 0 0 0
