P2
128 120
152
55 58 60 62 63 60 44 43 43 43 43 43 44 43 43 43
43 42 42 41 41 40 40 40 39 39 38 38 37 37 36 36
35 35 35 34 33 33 32 32 31 31 30 30 29 29 28 28
28 28 27 27 26 25 25 24 24 24 24 23 24 24 25 28
30 29 30 25 19 16 25 28 25 25 25 24 24 24 22 22
22 19 23 24 25 25 25 25 25 25 26 26 26 26 26 27
27 27 27 27 27 26 26 26 26 27 28 28 28 29 29 30
31 30 31 32 32 33 32 32 32 32 32 32 32 32 31 33
51 52 52 52 60 66 54 48 45 43 42 42 42 42 42 42
42 41 41 41 41 40 40 40 39 39 39 38 38 37 36 36
35 35 35 34 34 33 33 32 32 31 30 30 30 29 29 28
28 28 27 27 27 26 27 25 25 25 25 25 24 24 26 29
30 30 30 26 20 21 24 29 27 26 26 25 24 25 22 23
22 18 24 24 25 26 26 26 26 26 26 27 27 27 27 27
27 26 27 27 27 28 29 28 28 28 29 29 30 30 30 30
31 31 31 31 31 31 32 32 32 33 32 32 33 33 32 33
3 2 1 1 35 63 59 63 59 53 45 44 44 43 43 43
42 42 42 41 41 40 40 40 39 38 39 38 38 37 37 37
36 36 35 35 34 34 33 32 32 31 31 30 30 30 30 29
29 28 28 27 27 26 26 26 25 25 25 24 24 25 26 30
32 31 31 26 21 23 23 29 27 26 25 25 24 25 24 23
23 20 25 25 26 26 27 27 26 27 27 27 27 26 26 27
27 28 28 29 28 28 29 29 29 29 29 29 30 31 30 31
31 31 32 32 32 33 34 33 33 33 33 33 32 33 33 33
12 2 0 0 28 61 54 55 42 44 45 47 55 57 57 53
49 42 41 41 41 41 40 40 40 39 39 39 38 37 38 36
36 35 35 35 34 34 33 33 33 32 32 31 31 31 30 30
29 29 28 28 28 27 27 26 26 26 26 26 25 26 26 29
32 31 32 28 22 25 23 29 27 27 27 27 26 27 25 25
24 20 24 25 27 26 27 27 27 27 27 27 27 27 27 28
28 28 28 29 29 28 30 29 29 29 30 30 30 31 31 31
32 32 33 33 33 33 33 32 33 33 33 33 34 34 33 33
10 3 0 0 20 60 54 50 7 2 9 20 30 40 48 54
57 44 42 41 41 40 40 40 39 39 39 38 38 38 38 37
36 36 36 35 35 34 34 33 32 32 32 31 31 30 30 30
30 29 29 29 28 28 27 27 26 26 26 25 25 26 27 30
33 33 32 28 22 26 22 29 28 28 27 26 26 27 25 25
25 21 25 26 27 28 28 27 28 28 28 28 28 28 28 28
28 28 28 29 29 29 30 29 29 29 30 30 30 30 30 31
32 32 32 33 33 33 34 33 33 33 33 34 34 33 34 33
4 1 0 0 15 59 55 49 7 0 0 0 0 0 2 32
56 45 42 41 41 41 41 41 40 39 40 39 39 38 38 37
37 36 35 35 35 35 34 33 33 33 32 32 32 31 31 30
30 30 29 29 28 28 27 27 27 27 27 26 26 26 28 31
33 33 33 29 22 27 22 29 30 28 28 27 27 28 25 25
25 21 24 24 27 28 28 28 29 29 28 28 29 29 29 29
29 29 30 29 30 30 30 30 29 31 30 31 31 31 31 31
32 32 32 32 33 33 34 33 33 34 34 34 34 33 33 33
8 6 0 3 11 57 55 46 6 0 0 0 0 0 0 28
57 45 41 42 41 41 41 40 39 39 38 38 38 38 38 37
36 36 37 36 35 35 35 35 34 34 33 32 31 31 31 31
30 30 30 30 29 29 28 27 27 26 26 26 26 26 28 31
34 35 33 30 23 27 23 30 29 29 29 27 27 29 25 25
25 22 26 26 29 29 29 29 29 29 29 29 29 28 29 29
29 29 29 30 30 30 31 31 31 30 31 31 31 30 31 32
32 32 33 33 34 33 34 34 33 32 32 33 33 33 32 34
0 1 0 2 7 56 55 48 7 0 3 9 1 0 0 27
57 46 41 42 42 41 41 40 40 39 39 39 39 39 38 37
37 37 36 35 36 35 35 34 34 34 33 33 32 33 32 32
31 31 31 30 29 29 28 28 28 27 28 27 27 28 29 32
35 34 33 31 24 28 25 29 30 29 28 28 28 30 27 26
26 23 27 26 29 29 29 29 30 29 29 29 29 29 30 29
30 30 30 30 31 31 31 31 31 31 31 32 31 31 32 33
33 33 33 33 32 32 32 32 33 33 34 34 34 34 34 34
0 2 0 3 6 56 57 50 8 0 11 13 3 0 0 25
56 45 42 41 41 41 41 40 40 39 39 38 39 38 38 37
37 37 37 36 36 36 35 35 35 34 33 33 32 32 32 31
32 31 31 30 30 30 29 29 28 27 28 28 28 28 29 33
34 33 33 30 24 28 26 29 30 30 29 28 28 29 27 26
26 23 27 27 29 29 30 30 30 30 30 30 30 30 29 29
30 30 30 31 31 32 31 32 31 31 31 32 32 31 32 32
31 31 33 32 34 34 34 34 34 34 34 34 34 34 35 33
0 0 0 3 4 50 56 50 8 0 3 8 4 0 0 26
55 46 41 41 41 41 40 40 40 40 40 39 39 39 38 38
37 37 37 37 36 35 36 35 34 34 34 33 33 33 33 32
32 32 31 30 31 30 29 29 28 29 28 28 28 28 30 32
35 34 34 33 29 30 28 27 30 30 29 29 28 29 28 27
27 24 27 27 30 30 30 30 30 30 30 31 30 30 30 30
30 31 32 32 32 32 32 32 32 32 31 31 32 31 33 33
33 34 35 34 35 34 34 34 34 34 34 34 34 34 35 34
2 0 0 0 3 47 55 50 9 0 0 6 11 1 0 25
55 44 41 41 41 41 41 40 40 40 39 39 39 38 38 37
37 37 37 37 36 36 36 35 35 34 34 33 33 33 32 32
32 31 31 31 31 31 30 30 29 29 28 28 28 28 30 31
35 33 32 30 26 30 31 26 31 30 30 30 30 28 28 27
27 24 27 26 30 30 30 31 31 30 30 31 31 30 31 31
31 31 31 31 31 32 32 31 31 32 31 32 33 33 34 34
34 34 34 34 34 34 34 35 34 34 34 34 35 34 35 33
18 17 16 18 19 42 52 53 12 0 2 6 10 3 0 25
55 46 41 42 41 41 40 40 41 40 40 39 39 38 38 38
38 38 37 36 36 36 35 35 35 34 34 34 34 33 33 33
33 33 32 32 31 31 31 30 29 29 29 29 29 29 31 33
35 31 29 26 20 25 31 26 32 29 30 31 30 27 28 27
27 26 27 27 30 31 31 30 31 31 30 31 31 30 31 32
32 31 31 31 32 32 33 32 32 32 32 33 32 32 33 35
34 35 34 34 35 34 34 34 35 34 35 34 34 34 35 33
42 40 40 41 39 38 46 54 14 0 1 4 5 6 4 24
54 45 41 41 41 41 40 40 40 40 40 39 39 38 38 38
38 37 37 36 36 36 36 36 35 34 35 34 33 34 33 33
33 32 32 32 31 31 31 31 30 30 29 29 29 30 33 34
32 25 22 20 17 17 19 23 26 28 30 30 29 28 29 28
27 26 27 27 30 31 31 32 31 31 31 32 31 31 31 30
32 32 32 32 32 31 32 32 32 33 33 33 34 34 34 35
34 35 34 34 34 34 34 34 34 33 34 34 34 34 36 34
31 31 33 35 35 35 39 46 37 26 22 15 10 9 14 35
54 44 42 41 41 40 40 40 39 39 39 38 38 38 38 38
38 38 37 37 37 36 35 35 36 35 34 34 34 34 34 33
33 33 32 32 32 31 30 30 29 30 31 31 33 32 30 30
31 31 28 22 23 20 17 18 19 20 25 29 31 28 29 28
28 26 27 28 31 31 31 31 30 30 31 31 30 30 32 31
32 32 32 32 32 33 33 33 33 32 33 33 34 34 34 35
34 34 35 34 35 35 35 35 35 34 34 34 34 33 34 33
20 23 28 33 37 40 36 34 36 37 39 40 41 40 38 43
49 43 42 41 41 41 40 40 40 40 40 40 39 39 38 38
38 37 37 36 36 37 35 35 35 35 35 35 34 34 33 34
33 33 32 32 32 31 31 31 30 29 25 22 25 27 29 28
27 26 22 18 14 15 21 19 21 22 25 23 30 29 31 28
28 27 27 27 30 30 30 31 31 31 32 32 31 32 32 32
33 32 32 32 32 31 32 32 33 33 33 34 34 34 35 35
35 35 35 35 34 34 34 34 34 34 34 34 35 34 36 34
18 18 19 19 18 19 21 22 22 26 29 33 36 38 41 42
43 42 42 42 41 41 41 40 40 39 40 39 39 39 38 38
38 38 37 37 37 36 36 36 35 35 35 34 34 34 34 34
33 33 33 33 33 31 31 30 30 25 25 31 31 29 25 31
31 31 29 28 28 16 18 23 23 28 24 27 23 28 30 28
28 26 27 28 31 31 31 31 32 32 32 32 32 32 32 32
34 32 33 32 33 33 33 33 34 33 33 34 34 34 34 35
34 34 35 35 35 35 35 35 35 35 35 35 34 35 35 32
18 18 19 18 19 19 19 18 18 18 18 19 22 25 28 33
38 41 42 42 42 42 41 41 41 40 40 40 40 39 39 38
38 38 38 38 37 37 36 36 36 35 36 35 35 35 35 33
34 33 33 32 29 27 32 31 23 25 29 32 26 23 23 27
31 28 27 29 25 27 26 24 28 28 27 18 26 25 26 28
29 27 28 31 32 32 32 32 33 32 32 32 33 34 34 33
33 33 33 33 33 33 33 33 34 34 34 34 35 35 35 35
35 34 35 35 35 35 35 35 35 34 34 33 33 33 33 33
33 32 37 34 32 29 26 22 17 17 17 17 18 17 17 19
19 21 24 27 31 36 38 40 41 40 40 39 40 39 38 39
39 38 38 37 38 37 37 36 36 36 36 35 35 35 35 35
34 34 33 24 24 22 17 24 26 27 31 34 29 22 27 27
27 29 34 27 27 25 28 31 38 37 31 21 12 23 22 25
28 29 29 32 35 33 33 33 33 33 33 33 33 33 33 33
34 33 34 33 34 33 33 34 35 35 35 35 34 35 34 34
35 35 35 36 35 35 34 34 32 34 34 34 35 34 34 33
35 34 37 38 40 48 61 51 26 22 19 19 19 19 18 18
17 17 18 17 17 18 20 20 25 30 40 40 40 40 39 39
39 38 37 37 37 36 36 36 36 36 36 35 35 35 34 34
34 31 22 18 19 18 22 25 25 32 40 31 25 22 22 23
25 32 35 33 27 25 19 24 33 31 25 22 13 15 24 22
29 30 29 31 33 33 33 33 34 33 33 33 33 33 33 34
35 34 34 34 34 34 34 34 34 34 35 34 35 35 34 35
34 34 35 34 35 34 35 35 34 34 34 35 35 34 34 34
0 12 41 39 42 48 60 60 53 50 45 45 46 41 37 31
19 20 17 17 18 17 18 10 10 21 39 40 40 39 39 38
38 38 38 38 38 37 37 36 36 36 36 35 35 35 32 29
19 11 5 11 14 19 19 21 20 25 28 25 22 20 24 29
29 31 33 29 31 32 29 16 22 17 17 14 13 10 18 29
31 26 29 32 33 33 34 34 34 33 33 33 33 33 34 34
35 34 34 34 34 34 34 34 34 35 34 34 34 33 34 33
34 34 34 34 34 34 34 35 34 34 34 34 34 34 34 33
0 11 39 38 40 47 57 59 58 59 54 52 58 57 55 48
28 34 35 29 22 19 18 15 16 20 38 40 40 40 39 38
39 39 39 38 37 37 37 37 37 36 36 35 35 30 21 12
13 9 10 11 10 13 12 13 16 18 16 14 20 27 32 35
33 29 18 14 15 14 16 16 20 21 22 25 23 18 8 21
36 32 25 31 33 34 34 35 36 34 34 33 33 34 34 34
35 35 34 34 35 34 35 35 35 34 34 34 34 34 34 34
34 34 34 34 34 33 34 35 34 34 34 34 34 34 34 34
0 4 10 9 10 31 56 58 56 57 48 50 53 57 57 51
35 42 48 43 45 47 43 27 16 20 38 40 40 39 39 41
49 47 45 42 40 38 36 37 37 36 36 36 32 17 11 8
6 7 4 5 5 5 2 6 7 12 13 16 16 24 23 27
33 32 29 27 26 27 29 31 28 25 30 31 30 34 28 15
20 35 29 27 32 34 36 35 35 37 35 34 34 34 34 34
34 33 33 34 34 34 34 35 35 33 35 35 34 34 35 34
34 33 35 34 34 34 34 35 34 34 34 34 34 34 34 34
0 10 12 2 0 23 57 51 11 26 23 31 38 46 51 52
41 46 50 49 53 55 55 38 16 23 40 41 41 40 40 42
52 50 48 45 44 45 45 40 39 38 37 33 20 11 7 3
5 6 9 11 10 11 14 15 20 26 28 31 34 34 34 34
32 38 36 32 27 31 29 36 39 39 37 30 34 41 43 33
19 20 29 24 31 36 38 36 36 36 35 34 34 34 34 34
35 35 35 35 35 35 35 35 35 34 34 34 34 34 35 34
34 34 34 34 34 35 35 37 35 35 35 35 34 33 34 34
6 24 39 7 0 26 57 51 3 8 1 0 1 5 8 47
43 47 51 51 55 55 56 43 18 24 43 43 43 42 40 43
52 50 48 47 48 50 49 43 45 43 35 24 7 5 6 5
7 9 7 9 13 16 19 22 27 30 35 37 38 40 49 52
49 49 47 41 39 37 35 39 39 36 36 35 32 43 44 36
30 21 19 20 19 34 38 37 37 36 36 36 36 35 35 35
34 35 34 35 34 35 35 35 36 35 35 36 36 36 35 34
34 35 34 34 34 34 34 36 35 35 34 35 35 34 35 35
18 31 38 31 5 20 60 51 3 0 0 0 7 15 9 47
42 47 48 52 54 54 54 45 18 24 45 43 43 44 45 46
30 20 35 45 49 51 49 25 14 24 21 7 4 3 3 4
6 8 10 14 17 23 27 23 23 26 31 34 36 39 37 42
47 45 47 51 47 46 51 45 44 43 43 42 47 41 37 32
28 21 19 22 17 31 38 37 36 36 36 35 36 36 36 35
35 36 35 36 35 35 35 35 37 35 35 36 35 35 35 35
36 35 35 36 35 35 35 36 36 35 34 34 34 35 34 35
20 36 30 21 13 16 60 56 6 0 0 0 14 20 14 47
20 17 28 38 47 49 50 46 20 24 45 44 39 39 48 52
22 0 4 19 23 24 39 19 0 4 3 2 3 4 7 8
16 15 8 11 15 17 22 28 33 36 34 33 34 35 39 38
39 38 42 44 47 46 45 49 56 58 60 61 59 58 48 42
38 32 32 34 28 25 36 37 38 37 36 36 36 36 36 36
36 35 35 35 35 35 35 35 37 36 36 36 36 36 36 36
36 36 35 35 36 35 35 36 35 35 34 34 35 35 35 35
7 25 29 15 2 14 60 57 7 0 1 0 8 10 11 47
13 0 2 4 6 10 16 45 21 21 31 38 45 46 51 54
25 0 1 11 16 17 32 21 2 1 0 1 3 6 10 6
5 9 14 26 33 30 30 29 35 38 38 41 45 43 42 42
42 47 46 49 54 52 57 57 60 63 68 74 80 75 82 77
81 69 68 61 56 33 40 41 36 37 36 37 35 35 35 36
36 36 35 36 35 35 36 35 36 36 36 36 35 35 36 35
36 35 35 35 35 35 36 36 35 36 35 35 35 35 35 35
0 0 2 0 0 13 61 59 9 0 0 0 1 0 5 48
11 1 0 0 0 0 5 44 21 16 0 1 7 16 26 37
27 0 0 6 4 8 28 24 1 1 2 4 3 1 2 0
0 8 21 27 32 33 38 47 55 51 47 44 40 37 39 38
39 43 53 61 72 74 78 87 96 96 91 97 102 99 97 100
110 107 99 91 80 60 41 42 39 38 37 37 36 36 36 36
36 36 36 36 36 36 36 36 37 36 36 36 36 36 36 36
36 36 36 36 36 36 36 36 33 36 36 36 36 35 36 35
0 0 0 0 0 12 61 62 12 0 4 3 13 0 4 49
11 4 0 10 0 0 5 46 21 15 0 0 0 0 0 1
20 0 0 0 0 3 27 21 1 2 1 1 3 4 0 1
6 13 18 24 32 38 35 30 32 43 51 45 43 42 43 48
58 65 74 81 88 89 85 100 109 112 110 110 114 117 117 119
115 113 111 103 98 85 53 31 38 38 37 36 36 36 36 35
35 35 36 35 36 36 37 37 37 36 36 36 36 36 37 36
36 36 36 35 35 35 35 35 36 37 37 36 36 35 35 35
0 0 0 0 0 9 61 63 17 0 15 15 23 1 4 48
12 5 1 17 7 0 3 45 21 16 0 0 0 0 0 0
17 0 0 0 0 1 30 27 6 3 2 3 1 0 1 6
14 19 24 29 30 26 26 32 42 47 49 44 40 39 47 55
69 79 76 88 106 105 93 106 115 123 117 120 126 126 124 122
119 117 112 110 103 95 80 38 33 36 36 36 36 36 36 36
35 36 36 36 37 36 37 36 37 36 36 36 36 37 36 36
36 37 37 36 36 36 36 36 36 35 36 35 35 34 34 36
33 33 30 26 24 29 61 63 22 2 2 2 2 0 3 46
12 5 1 11 7 0 4 44 21 16 0 0 0 3 0 0
14 0 0 0 0 1 25 21 7 2 2 2 0 0 3 5
8 9 12 15 16 19 24 29 32 34 40 42 50 60 74 85
87 85 90 102 112 103 95 113 125 121 124 134 133 126 125 126
122 120 115 112 105 100 93 67 31 38 35 37 36 36 36 35
36 36 36 36 36 36 37 36 36 35 36 36 36 36 37 36
36 36 36 35 36 36 36 36 36 35 36 36 35 35 35 35
56 51 49 45 40 36 34 36 7 0 3 10 4 0 3 44
9 2 3 0 2 0 3 43 21 17 0 3 3 14 0 0
14 0 2 0 0 3 18 20 4 0 0 0 0 0 0 1
4 6 6 9 15 25 27 29 41 53 59 70 78 90 95 95
101 98 104 110 119 111 108 121 125 130 134 132 128 129 132 133
127 123 119 111 108 107 100 89 52 35 36 36 36 36 36 36
37 36 37 36 37 37 36 36 36 37 36 36 36 37 37 36
37 36 37 37 36 36 36 36 35 36 36 36 35 36 35 35
27 30 37 45 48 47 38 33 15 11 8 10 4 0 4 43
9 0 7 0 0 0 3 44 21 17 3 11 4 4 0 0
15 1 0 0 0 6 19 28 2 0 0 0 0 0 1 3
2 2 9 12 22 26 43 61 59 68 78 86 93 94 96 97
97 102 107 109 116 117 120 124 132 135 135 129 132 136 136 134
133 127 123 118 113 109 103 96 81 42 37 37 37 36 36 37
36 36 36 36 36 36 36 36 36 36 36 36 37 37 37 37
37 37 37 36 36 36 37 36 35 35 35 35 34 33 34 36
0 0 0 3 7 23 45 44 49 50 46 48 45 38 36 48
22 8 8 9 7 4 8 44 21 18 7 4 0 2 2 0
21 8 5 5 0 4 18 27 0 0 0 0 0 0 0 0
0 7 12 28 37 55 62 62 68 76 94 91 102 103 98 103
100 106 109 116 119 120 130 141 136 137 134 125 127 135 139 137
135 132 128 122 117 112 107 98 93 64 37 37 37 37 36 37
37 37 36 36 36 36 37 36 36 36 36 37 37 37 36 37
37 36 35 35 34 34 34 34 33 33 33 33 31 28 26 22
0 0 1 0 0 10 57 47 17 21 29 37 40 44 49 54
63 42 36 42 45 42 41 42 21 18 3 0 0 0 0 0
36 50 38 36 33 23 22 21 0 0 1 0 0 0 0 1
5 12 28 44 61 66 68 68 77 86 93 95 106 107 104 106
109 113 113 114 121 122 135 141 141 141 137 137 134 134 139 139
137 133 128 124 119 115 110 102 98 83 45 37 37 37 37 36
36 37 36 35 36 36 36 36 36 36 36 37 36 36 36 36
36 34 36 36 32 32 30 27 24 21 19 17 16 15 15 16
0 0 9 14 1 9 56 48 18 10 18 18 14 4 36 68
65 38 41 52 55 55 54 45 20 18 1 0 0 0 0 0
38 58 47 52 55 52 40 13 0 0 0 0 1 0 2 5
17 34 48 58 71 71 62 70 77 88 96 96 105 103 101 108
114 119 116 121 122 122 135 142 143 141 141 141 137 138 140 140
139 137 133 127 121 118 112 105 100 93 63 36 36 36 35 34
35 37 36 35 36 36 37 36 36 36 37 37 36 35 33 32
28 25 26 36 21 15 16 17 17 18 18 19 20 20 21 22
24 5 23 9 0 7 56 48 6 6 8 3 3 0 37 66
55 34 43 52 53 56 57 47 21 21 18 13 7 2 0 0
37 49 48 54 58 58 36 12 0 0 0 1 0 0 5 17
33 54 59 63 75 67 69 75 84 92 94 100 99 99 111 115
118 121 123 130 127 127 127 135 141 141 142 141 141 141 141 142
142 140 137 127 122 119 115 108 101 98 80 39 36 36 36 34
34 36 36 29 15 36 36 35 34 31 28 25 22 20 18 19
19 18 18 32 20 17 21 23 23 24 25 26 26 27 28 28
28 13 15 14 3 6 54 47 1 0 3 0 0 0 35 62
40 8 13 19 22 26 33 46 21 22 43 53 49 43 37 31
46 38 45 52 56 59 50 24 0 0 0 0 1 4 19 32
44 54 63 68 61 63 70 77 82 90 97 98 100 103 111 113
120 125 122 134 135 132 122 133 140 141 142 142 142 140 141 141
141 139 134 129 126 123 117 112 103 100 91 51 31 32 35 35
35 34 25 5 19 26 23 21 20 20 19 20 21 22 22 22
24 24 23 30 21 23 27 29 29 30 30 31 31 31 31 31
5 0 18 29 8 7 53 45 1 0 0 0 0 0 32 62
42 1 0 0 0 0 5 42 23 22 44 56 56 54 55 55
55 21 17 26 32 39 39 13 0 0 3 5 11 19 30 37
44 46 57 61 59 63 71 77 79 89 96 101 106 103 112 118
123 124 130 135 138 136 134 139 140 141 142 141 142 141 141 141
140 140 137 130 127 125 120 113 105 101 97 70 25 21 28 26
23 16 8 17 22 22 23 24 24 25 26 27 28 28 29 30
31 30 28 31 24 26 31 30 32 32 33 33 33 33 34 34
29 31 33 16 6 9 55 46 3 22 2 0 0 0 25 61
42 0 0 0 0 2 7 40 24 20 40 53 54 54 55 56
53 11 0 0 1 9 22 15 0 4 9 13 16 23 33 37
40 48 49 55 58 68 73 76 82 89 96 104 106 105 111 114
121 125 127 131 139 141 138 141 143 142 142 142 142 142 142 141
141 140 139 133 126 125 122 116 108 102 101 84 28 19 23 22
12 18 18 27 28 29 30 31 31 31 31 32 32 33 32 33
33 32 25 10 9 28 33 35 35 34 34 35 34 34 34 34
18 49 48 17 1 10 58 50 8 32 3 0 0 0 19 57
38 0 0 0 9 32 30 36 33 28 34 40 41 43 44 49
50 8 0 0 1 1 8 27 6 4 8 17 20 25 30 41
47 52 53 52 56 65 71 83 82 84 95 103 103 104 110 114
118 123 122 129 134 140 140 141 141 140 141 142 142 142 141 142
142 140 140 133 128 124 123 117 111 103 101 93 53 27 28 17
26 23 28 33 33 33 34 34 34 34 34 34 34 34 34 34
34 32 24 5 2 24 34 36 36 35 35 35 35 35 35 36
6 43 42 16 2 9 59 52 3 17 6 0 0 0 17 53
35 0 0 0 8 33 31 29 30 24 26 26 31 37 35 45
48 6 0 0 0 3 4 17 6 4 13 14 19 28 35 42
48 55 46 48 55 61 77 81 80 86 91 99 109 111 116 118
118 117 125 133 134 137 142 142 141 142 142 142 142 142 142 141
141 141 138 136 135 130 127 121 113 107 101 101 79 34 23 26
34 31 14 21 21 19 14 19 35 36 35 34 23 5 6 10
11 11 19 6 2 23 35 36 37 35 36 36 35 35 34 35
0 33 31 11 2 8 60 53 4 2 3 0 0 0 19 54
34 0 2 0 1 13 16 26 26 25 27 30 33 38 38 47
48 7 0 0 0 7 21 15 6 7 12 14 22 32 41 46
54 51 48 53 51 62 77 81 83 82 90 96 105 111 116 119
118 120 126 126 131 130 139 142 140 142 142 140 142 142 142 142
142 141 141 141 140 137 131 124 116 110 104 104 94 45 21 33
31 36 7 1 0 0 1 17 25 18 5 5 1 5 1 0
0 0 5 0 0 22 34 35 36 35 35 35 36 34 35 34
2 17 22 1 0 7 58 52 4 0 0 0 0 0 22 56
33 0 2 1 0 0 0 24 21 24 16 8 14 20 27 33
39 7 0 0 7 23 29 21 8 7 14 21 26 33 44 46
48 51 56 61 60 69 75 79 78 87 93 93 102 114 120 114
121 123 124 124 132 136 139 141 141 142 142 140 142 143 142 142
142 140 141 141 140 139 134 126 117 111 105 106 101 61 15 3
2 42 20 0 0 0 0 0 0 0 0 0 0 0 10 0
0 0 0 1 0 21 34 35 36 35 35 36 35 35 35 35
24 7 4 5 13 18 55 48 3 0 0 0 0 0 24 56
33 0 1 7 2 0 0 30 30 29 13 0 0 0 0 0
15 7 0 3 20 26 25 20 8 8 16 21 26 39 39 42
48 48 57 62 62 70 78 88 88 87 91 100 104 112 117 116
120 122 123 129 134 134 135 133 141 142 142 142 142 142 142 142
142 137 141 142 141 138 126 118 115 110 104 104 106 73 17 11
2 5 2 0 0 0 0 0 0 0 0 0 0 0 6 0
0 0 1 7 1 24 35 36 36 35 36 35 35 35 35 35
0 5 4 14 50 51 52 46 24 18 13 9 7 3 29 56
32 0 0 4 6 0 0 33 35 30 15 0 0 1 0 0
12 7 0 17 23 25 18 19 11 11 18 22 30 39 39 47
47 47 54 54 56 68 78 95 98 90 89 95 102 102 108 114
119 121 121 125 131 127 130 137 142 143 143 142 142 142 142 141
141 139 130 128 126 117 114 104 104 102 97 102 106 76 31 16
18 24 18 17 17 17 16 12 8 12 1 0 0 0 0 0
0 0 6 17 10 28 34 35 36 35 36 35 34 34 35 34
9 32 42 32 54 57 56 48 54 51 40 38 47 40 43 48
37 6 0 4 13 6 0 31 35 29 15 0 1 8 1 0
10 8 6 21 25 18 17 15 11 12 19 20 31 38 41 43
48 58 56 57 63 72 79 87 85 87 93 96 97 100 108 113
117 115 118 124 128 128 127 131 128 126 123 120 119 118 116 111
107 89 58 32 28 29 32 32 41 63 70 97 97 65 20 12
15 29 38 37 37 37 37 36 19 16 1 0 0 0 0 1
0 3 20 26 26 32 36 36 37 35 36 35 34 35 35 34
47 47 55 53 54 58 58 55 29 19 13 13 20 22 23 44
44 35 25 22 30 27 18 38 34 26 15 0 7 21 9 1
9 18 11 19 18 16 12 11 9 9 18 25 29 37 38 51
54 56 58 68 67 75 82 76 79 74 64 60 59 64 75 84
93 95 98 101 104 108 110 115 124 131 135 131 125 125 108 95
106 93 43 0 0 0 0 0 0 2 37 84 80 43 7 0
0 18 38 37 37 36 37 31 9 0 0 0 0 1 31 34
33 32 30 29 31 35 36 35 36 35 35 36 35 36 35 36
44 31 52 46 33 38 43 49 11 0 0 0 8 20 13 45
45 32 25 33 41 47 50 53 42 25 16 0 10 20 9 2
9 39 31 19 16 14 12 3 9 10 15 21 27 35 50 50
53 58 65 70 72 80 73 29 12 16 24 31 40 49 56 59
62 56 56 60 63 59 65 67 77 82 84 88 86 74 67 57
41 24 11 0 0 0 0 0 0 0 4 68 68 17 0 2
4 16 38 37 38 37 37 28 0 0 8 4 0 0 33 36
34 34 32 32 34 37 36 36 37 36 37 37 37 36 36 35
24 2 23 16 1 0 1 40 13 0 1 3 6 17 24 48
45 18 0 2 10 14 43 53 41 25 19 1 3 5 3 0
9 40 27 18 11 12 7 0 11 12 19 20 30 42 53 53
62 64 67 77 82 71 8 6 14 25 28 31 36 43 47 54
55 56 61 57 55 57 56 54 47 46 41 34 27 19 11 7
2 0 0 0 0 0 0 0 0 0 0 40 36 2 0 4
7 21 39 38 38 38 37 30 0 0 6 7 0 0 33 37
37 35 34 35 36 35 36 35 35 36 36 36 36 35 36 36
20 0 0 3 1 0 0 39 15 0 13 39 22 12 18 50
46 13 0 10 30 16 45 51 36 26 26 15 2 4 1 0
8 33 22 15 12 12 5 0 11 12 17 21 29 41 48 62
66 69 72 85 90 28 5 45 82 97 92 91 99 106 109 113
119 123 133 131 130 126 126 128 125 115 107 99 73 52 40 30
22 11 12 0 0 0 0 0 0 0 1 8 5 0 0 4
6 24 39 38 38 38 38 30 0 0 0 1 0 0 30 36
36 34 33 35 36 36 36 36 36 37 37 37 36 36 36 35
7 3 0 10 6 0 0 38 16 5 32 41 11 2 13 52
48 11 0 6 31 31 47 48 30 27 28 11 0 2 0 1
10 30 16 9 8 11 2 0 13 14 18 22 33 44 50 68
71 71 83 95 76 3 30 90 92 99 99 104 105 113 110 118
123 127 138 139 137 140 141 139 139 135 128 120 100 93 82 41
25 14 23 0 0 0 0 0 0 0 0 0 0 0 0 2
8 28 38 37 36 36 35 28 0 0 0 0 0 0 28 37
36 36 36 37 37 37 36 37 37 37 36 36 36 35 35 35
40 42 35 40 15 0 0 37 19 3 22 47 10 0 13 54
49 11 0 1 8 20 48 48 29 30 28 8 2 3 1 0
10 29 13 7 9 11 2 0 13 15 20 23 35 44 53 63
71 98 123 129 130 97 73 111 107 106 103 107 111 113 115 118
122 126 133 141 141 142 142 140 133 131 131 121 110 105 71 23
10 13 23 0 0 0 0 0 0 0 6 3 0 0 0 1
9 33 38 36 19 10 6 6 0 0 0 0 0 0 26 37
37 37 36 37 37 36 36 37 37 37 37 36 37 36 36 36
17 10 13 14 4 0 0 38 16 0 12 30 6 6 16 56
52 12 0 0 0 9 47 49 31 29 31 38 38 32 32 33
30 25 14 7 11 15 8 0 12 14 20 23 35 43 54 66
116 117 98 91 112 138 123 96 124 116 111 114 107 115 124 123
128 136 137 142 143 143 143 142 139 134 124 113 108 96 39 11
20 19 14 0 0 0 0 0 0 0 19 39 43 0 0 1
10 38 40 32 11 19 3 5 0 0 0 1 2 1 24 38
37 39 38 38 38 38 38 37 37 37 37 36 37 37 36 35
12 0 0 0 0 0 0 38 16 0 0 0 1 5 15 55
50 10 0 0 0 6 48 50 30 31 34 54 59 56 57 57
41 19 12 9 8 16 7 2 15 18 20 24 35 41 49 107
128 129 137 135 117 104 135 132 131 137 121 114 114 120 128 130
131 137 139 140 141 140 142 143 138 135 128 117 107 81 19 25
25 20 6 0 0 0 0 0 0 8 30 85 92 18 0 0
11 39 39 40 46 43 23 18 1 0 0 0 0 0 9 26
38 38 38 38 37 38 38 37 37 37 37 37 37 36 37 36
19 0 0 0 0 0 0 35 18 0 0 0 0 0 12 54
49 8 0 0 0 6 47 52 28 31 33 54 60 58 58 57
39 18 15 8 10 14 12 2 12 16 21 25 28 35 83 140
140 145 146 146 135 85 82 141 140 142 138 123 118 126 134 136
139 141 138 142 142 138 142 142 140 136 131 122 113 69 38 51
56 29 3 0 0 0 0 0 2 24 34 98 106 77 2 0
15 39 39 36 34 33 9 2 0 0 0 0 0 0 11 7
17 29 37 38 38 37 37 37 37 36 37 36 36 35 35 35
28 0 0 0 0 0 0 34 17 0 0 0 0 0 10 53
49 8 0 0 0 4 43 47 26 31 29 35 36 37 38 37
30 15 17 11 13 11 17 10 8 20 19 21 23 31 124 140
145 145 145 145 140 97 99 130 141 138 138 134 129 134 142 142
142 142 139 141 142 136 141 142 142 142 140 136 130 97 59 55
52 26 1 0 0 0 0 0 17 27 45 102 116 115 35 0
19 33 31 25 7 4 2 0 0 0 0 0 0 0 3 7
2 18 38 38 37 37 36 37 36 36 35 35 36 35 35 35
25 0 0 0 0 0 0 31 16 0 0 0 0 0 8 52
51 9 0 0 0 2 41 48 26 30 28 37 39 39 37 35
30 13 16 15 14 11 18 11 5 17 17 19 22 36 132 142
146 146 145 146 143 140 126 132 137 132 135 129 116 128 137 139
139 141 133 139 140 141 141 143 143 142 142 142 137 108 63 59
40 17 0 0 0 0 0 5 33 25 63 106 125 126 83 3
11 11 11 6 1 1 0 0 0 0 0 0 2 0 2 7
3 14 38 38 38 38 37 38 37 36 35 35 35 35 35 35
0 0 0 0 0 0 0 30 25 5 7 8 13 16 25 53
50 10 0 0 0 2 44 53 26 29 28 40 44 44 43 36
27 16 13 18 17 7 15 12 4 12 15 19 25 41 139 145
146 145 145 145 145 144 144 121 130 124 130 132 127 127 132 135
136 139 138 139 140 141 139 141 141 142 141 141 136 118 66 50
36 18 0 0 0 0 6 30 38 23 82 110 132 138 113 34
4 4 3 2 1 9 5 3 0 0 0 0 1 0 1 7
4 12 38 38 38 38 37 36 36 35 35 35 36 35 35 35
19 18 17 14 13 12 12 36 45 41 43 45 48 51 51 46
35 15 9 6 5 5 43 50 25 29 29 40 43 44 41 29
21 17 13 23 22 12 14 13 5 6 18 21 21 43 141 146
146 144 145 145 144 144 136 65 119 121 133 134 130 128 124 124
135 138 135 136 142 141 140 140 141 141 141 139 136 126 72 49
38 19 0 0 0 3 26 45 28 32 101 116 139 140 129 74
8 9 10 10 8 6 5 13 4 0 0 0 0 0 1 6
4 10 35 38 37 36 36 36 36 35 34 34 34 34 34 33
52 52 51 50 47 48 50 52 50 47 49 49 50 50 49 47
45 43 43 41 38 35 44 45 39 39 40 40 41 41 37 25
16 15 12 26 28 23 10 17 6 10 19 23 24 45 140 146
146 144 145 145 144 133 62 56 121 131 142 136 132 127 122 116
125 132 139 140 139 138 137 140 141 140 141 140 135 133 90 60
47 27 0 0 0 11 40 46 10 71 111 125 139 139 134 110
31 11 11 11 4 2 3 12 7 0 0 0 0 0 1 6
7 12 32 35 35 35 35 35 35 34 33 34 35 35 34 30
57 57 58 56 55 57 57 48 36 35 45 45 45 45 44 45
45 44 44 44 44 44 43 43 42 42 42 41 41 39 32 21
17 13 16 19 33 29 16 18 8 2 16 23 25 33 122 146
146 145 144 144 124 92 71 101 103 135 144 140 133 127 125 119
125 132 140 134 120 125 132 139 137 135 140 139 135 135 115 71
58 42 6 0 2 18 40 26 35 100 117 132 133 134 130 120
82 6 6 11 9 1 6 8 2 0 0 1 6 2 1 5
14 16 31 35 37 36 36 36 36 35 35 35 35 24 5 5
57 52 55 52 53 56 52 28 27 31 44 45 45 45 45 45
45 44 44 43 43 43 42 42 41 41 41 40 40 40 29 18
10 12 14 8 35 25 26 7 15 1 7 22 24 30 82 147
146 145 144 141 110 90 92 102 80 119 145 141 133 127 128 127
127 133 133 126 115 119 126 137 132 130 137 138 135 139 135 103
67 56 33 4 4 17 21 33 95 95 118 131 134 135 134 126
111 34 6 12 11 7 6 6 0 0 0 0 2 0 0 9
8 10 31 37 37 36 36 36 36 36 34 34 34 20 0 4
26 29 26 24 24 30 28 25 27 30 42 44 41 36 35 34
33 32 31 31 29 29 27 27 26 25 25 25 27 30 22 15
5 13 14 9 25 32 27 14 7 1 1 19 27 31 49 134
146 145 144 137 117 105 101 106 100 125 144 136 132 128 125 121
126 128 125 125 117 119 120 135 131 132 138 134 131 140 142 135
109 76 54 36 18 25 62 110 95 94 115 122 126 134 135 134
120 76 9 12 11 9 7 6 7 7 9 9 9 10 14 17
18 16 24 25 24 22 24 34 36 36 35 35 35 16 0 0
0 1 0 0 0 10 4 25 26 29 42 44 31 7 2 2
1 1 1 0 0 0 0 0 0 0 0 0 6 26 19 11
7 15 17 11 5 35 20 16 3 2 0 13 25 29 36 85
147 146 143 138 120 121 110 111 117 123 141 131 128 126 124 123
121 125 122 127 123 121 129 132 137 137 135 131 135 139 142 141
138 131 116 100 92 96 104 113 92 100 115 118 122 130 136 137
129 101 19 12 12 10 34 18 21 24 27 24 21 26 24 21
21 16 14 36 34 13 17 33 36 36 34 35 34 14 0 0
0 1 0 0 0 11 15 25 26 30 41 44 35 7 0 0
0 0 0 0 0 0 0 0 0 0 0 1 8 30 17 9
10 13 15 20 3 18 18 8 3 0 0 5 22 26 34 48
119 146 140 140 119 122 126 133 133 123 133 129 123 118 119 122
124 124 120 125 124 127 133 129 131 137 133 130 136 139 141 141
136 139 132 122 110 102 104 114 109 115 123 125 121 122 129 129
125 103 23 11 12 10 28 16 22 27 32 49 44 60 62 66
33 17 26 77 81 8 12 31 35 35 20 12 10 3 0 0
0 2 0 4 13 20 20 24 25 28 39 44 37 12 0 0
0 0 0 0 0 0 0 0 0 0 1 0 14 29 18 8
12 16 16 24 9 2 17 6 2 1 0 0 12 23 29 39
73 138 139 129 134 122 132 138 130 116 122 125 119 113 117 118
122 124 120 127 128 124 126 124 132 135 131 126 134 138 135 138
132 136 133 123 111 100 100 95 109 117 113 78 42 58 97 109
113 87 16 12 13 8 24 16 25 30 36 89 69 92 90 94
41 16 62 113 117 52 12 31 35 30 1 0 0 0 0 0
0 1 7 19 21 21 19 24 25 28 38 44 39 16 0 0
0 0 0 0 0 0 0 0 0 0 1 3 25 26 18 8
13 18 16 23 8 0 5 10 3 0 0 0 4 22 28 38
63 104 141 131 125 139 143 143 130 132 142 121 118 114 115 118
121 124 123 123 128 124 125 129 133 135 135 134 139 138 134 137
139 130 130 115 107 96 99 82 92 88 62 32 50 56 83 101
88 36 12 12 15 6 23 23 29 33 32 62 49 55 49 46
31 25 48 56 41 31 20 27 35 28 0 0 0 0 0 0
0 0 11 20 21 21 20 24 25 28 37 44 39 20 0 0
0 0 0 0 0 0 0 0 0 1 2 5 32 21 14 8
12 20 18 22 10 0 0 7 2 0 0 0 0 12 26 35
62 88 116 145 139 130 129 135 136 142 138 125 113 108 108 115
118 122 125 124 127 127 132 133 132 138 133 132 137 136 132 136
134 125 125 114 104 96 107 100 83 87 106 107 113 113 101 58
17 12 12 13 16 3 5 29 33 36 24 26 26 23 18 23
22 23 23 24 22 23 21 25 36 34 8 0 0 0 0 0
0 0 9 19 20 21 20 24 25 28 36 44 41 23 0 0
0 0 0 0 0 0 0 0 1 1 1 10 35 18 15 11
11 16 13 25 13 0 0 0 3 1 0 0 0 4 20 34
59 86 93 128 145 145 144 143 142 141 140 128 110 109 113 117
118 123 126 129 128 127 134 131 122 137 132 123 131 133 133 135
131 126 119 112 99 100 110 118 122 117 114 107 93 54 14 0
1 14 13 14 14 0 8 26 32 35 24 26 22 23 16 17
19 25 24 24 23 22 21 24 35 34 25 3 0 0 0 0
0 0 8 20 21 21 19 23 24 26 34 42 40 25 1 0
0 0 0 0 0 0 0 1 0 0 2 9 33 18 9 8
16 18 9 30 26 4 0 0 0 1 0 0 0 1 16 35
55 85 90 98 126 144 145 145 145 144 144 113 106 110 114 119
120 121 128 131 131 133 134 135 128 136 130 126 130 134 134 132
132 124 114 104 95 107 116 117 123 119 114 97 75 13 0 0
4 13 12 14 9 0 1 4 18 35 24 25 16 16 15 18
19 25 25 24 22 21 19 19 30 13 15 0 0 0 0 0
0 0 10 20 20 21 19 23 25 27 33 43 41 28 2 0
0 0 0 0 0 0 0 0 0 0 3 15 36 16 10 11
13 15 7 30 28 15 1 0 0 1 0 0 0 0 10 34
61 85 90 95 99 108 132 144 143 142 133 81 102 109 113 117
123 123 128 134 137 130 136 135 137 138 132 130 134 139 131 136
130 121 109 98 97 112 125 122 119 117 115 94 77 17 0 0
7 13 12 14 6 0 1 1 20 33 24 24 14 20 17 18
21 25 25 25 22 21 19 11 8 0 0 9 0 0 0 0
1 0 10 20 20 21 19 22 23 26 32 42 40 28 3 0
0 0 0 0 0 0 0 0 0 0 2 15 27 11 15 12
7 12 2 24 20 9 1 0 0 0 0 0 0 0 4 36
65 90 91 95 101 99 97 108 111 100 75 46 98 101 110 115
116 121 127 133 137 134 135 137 136 135 134 125 136 137 138 135
126 121 107 102 103 125 131 124 122 119 108 88 82 33 0 0
10 12 12 13 4 0 6 6 28 32 25 23 12 19 15 16
21 24 24 23 22 21 19 1 0 0 0 0 0 0 0 0
2 0 9 18 19 20 18 21 24 25 30 42 41 30 5 0
0 0 0 0 0 0 0 0 0 1 3 19 20 9 21 10
2 12 1 13 22 10 0 0 0 0 0 0 0 0 1 32
67 89 90 95 102 103 100 100 105 101 80 85 98 97 105 113
117 122 128 131 134 134 135 136 132 135 133 132 132 129 137 132
125 121 114 103 111 131 135 130 127 120 105 87 82 53 0 0
11 12 12 13 1 2 15 9 33 30 25 22 9 15 16 15
22 24 23 24 23 21 20 1 0 0 10 0 0 0 0 0
17 9 15 17 18 20 18 21 23 25 29 41 40 30 5 0
0 0 0 0 0 0 0 0 3 5 6 17 15 6 22 6
0 5 2 6 29 7 3 0 0 0 0 0 0 0 0 33
73 83 90 97 103 107 110 115 120 120 114 101 95 95 103 111
108 124 130 132 132 133 132 135 128 129 133 130 123 121 134 131
124 119 115 104 118 135 137 132 128 116 103 85 77 75 9 2
13 11 13 10 0 5 14 8 36 29 22 10 3 10 16 14
22 23 22 22 22 22 20 0 0 4 10 0 0 0 0 0
48 34 25 16 17 19 18 20 23 25 28 40 40 31 7 0
0 0 0 0 0 0 0 0 0 0 3 10 11 7 20 3
0 2 4 0 27 4 2 0 0 0 0 0 0 0 0 22
69 85 93 103 109 114 117 118 119 119 112 95 92 93 101 107
115 126 125 124 131 132 131 129 120 122 132 126 125 127 134 130
125 121 108 104 121 130 127 115 97 70 60 59 57 47 5 5
13 12 14 8 0 2 4 12 37 26 16 6 1 8 13 14
22 24 24 22 23 23 21 4 5 8 8 6 4 3 2 1
25 3 7 16 18 19 17 19 23 24 28 40 41 32 8 0
0 0 0 0 0 0 0 0 0 0 1 7 6 6 11 2
0 0 2 0 15 10 2 1 0 0 0 0 0 0 0 16
71 87 95 106 113 115 118 120 121 118 109 99 87 90 100 106
116 122 122 124 128 131 128 128 127 128 130 132 133 131 125 125
123 119 99 104 109 102 80 68 72 59 29 27 14 3 0 8
13 12 13 5 0 28 27 22 35 26 15 5 1 9 13 14
23 24 23 22 23 23 22 6 9 10 9 6 4 2 1 0
21 0 0 15 17 18 17 18 22 24 27 39 40 33 10 0
0 0 0 0 0 0 0 0 0 0 2 5 2 4 8 1
0 0 0 0 6 12 0 0 0 0 0 0 0 0 0 9
69 87 95 106 115 117 120 120 119 115 106 98 83 85 92 101
111 119 123 125 125 125 124 126 129 130 121 133 135 129 123 123
124 114 94 86 68 60 92 100 120 117 82 33 0 0 0 11
13 13 13 2 7 68 40 21 35 26 16 5 8 12 13 15
23 25 24 23 22 24 23 5 0 0 0 0 0 0 0 0
21 0 0 14 17 17 16 17 22 23 27 38 40 32 9 0
0 0 0 0 0 0 0 0 0 0 2 2 1 2 6 0
0 0 0 0 3 11 0 0 0 0 0 0 0 2 0 4
66 84 94 106 115 117 119 121 119 113 106 98 84 80 84 98
103 110 120 120 124 120 112 120 129 131 128 133 131 127 121 123
123 104 82 72 102 85 118 99 97 81 58 21 0 0 1 12
13 13 12 0 9 49 20 28 33 25 19 14 10 16 14 19
26 26 23 22 22 23 21 5 0 0 0 0 0 0 0 1
24 0 0 13 17 17 16 17 21 22 26 37 39 33 10 0
0 0 0 0 0 0 0 0 0 0 0 1 0 1 3 1
0 0 1 0 0 7 0 0 0 0 0 0 0 0 0 1
63 83 92 106 115 118 120 122 121 114 105 96 80 73 78 87
103 109 117 118 119 118 106 121 124 125 127 128 127 122 122 124
116 93 88 84 99 109 134 111 94 66 35 29 0 0 3 13
12 13 10 0 0 12 14 33 31 27 22 16 12 17 15 20
26 26 24 22 23 22 21 5 0 0 0 0 0 0 0 6
32 9 5 14 16 17 16 16 19 21 24 36 39 33 11 0
0 0 0 0 0 0 0 0 0 0 0 0 0 0 3 0
0 0 5 0 0 4 1 0 0 0 0 0 0 0 0 1
60 84 97 106 114 117 121 122 121 117 110 95 85 73 83 94
101 107 113 115 118 121 120 122 121 115 122 124 122 120 122 123
107 90 106 105 87 93 100 89 71 52 47 45 6 5 9 14
12 14 7 0 0 4 12 38 29 27 24 15 12 17 16 21
26 26 23 22 22 21 20 5 0 0 0 0 0 0 0 2
38 35 32 26 14 15 14 15 19 20 24 35 39 32 11 0
0 0 0 0 0 0 0 0 0 0 0 0 0 0 1 0
0 2 7 0 0 2 0 0 0 0 0 0 0 0 0 0
57 83 98 107 113 119 120 122 121 119 112 99 86 78 78 86
95 100 109 112 115 116 120 122 122 117 116 119 121 120 123 117
100 96 118 118 105 97 92 90 77 64 59 55 16 12 14 13
13 14 4 0 1 4 19 39 28 27 23 15 12 17 16 21
26 24 22 21 22 21 20 5 0 0 0 0 0 0 0 0
20 8 6 7 6 7 8 10 19 20 24 34 39 33 12 0
0 0 0 0 6 0 0 0 0 0 0 0 0 0 0 1
4 9 7 0 0 0 0 0 0 0 0 0 0 0 0 0
59 86 99 106 114 118 120 121 122 119 115 106 88 77 76 79
85 94 102 106 113 112 115 117 119 119 116 121 122 121 115 110
95 108 120 115 108 102 98 93 89 72 65 58 16 12 13 12
14 16 1 0 5 7 23 36 27 27 22 14 11 17 16 22
25 24 23 23 22 21 20 5 0 0 0 0 0 0 0 0
24 1 0 2 6 6 6 7 18 19 23 33 38 33 11 0
0 0 0 0 9 1 0 0 0 0 0 0 0 0 0 1
6 19 4 0 0 1 0 0 0 0 0 0 0 0 0 2
64 89 101 107 112 119 121 123 122 123 120 113 99 86 70 75
81 84 89 94 101 103 107 115 117 117 120 118 119 121 119 104
97 115 119 115 109 107 98 88 83 73 59 40 13 15 13 7
7 12 0 0 19 25 32 33 27 27 20 13 10 14 17 23
25 23 22 22 22 21 20 5 0 0 0 0 0 0 0 0
24 3 0 1 5 6 9 11 17 18 22 32 37 33 12 0
0 0 0 0 3 8 0 0 0 0 0 0 0 0 0 2
11 21 5 0 1 1 0 1 0 0 0 0 0 0 0 5
71 92 99 107 112 119 121 123 122 124 121 116 107 93 79 63
66 71 76 80 91 98 105 112 111 104 115 113 114 119 115 101
99 118 120 114 102 96 88 77 63 52 52 34 39 36 35 32
16 0 0 23 44 16 37 32 28 26 14 7 11 11 16 22
25 24 23 22 23 21 19 6 0 0 0 0 0 0 8 0
24 3 0 0 1 6 13 13 17 19 21 31 37 32 12 0
0 0 0 0 1 12 5 3 8 9 9 11 12 13 2 7
19 16 7 0 8 2 0 0 0 0 0 0 0 0 0 10
80 93 101 107 111 118 122 123 124 124 123 121 114 103 87 70
71 68 66 66 71 84 94 102 103 98 107 112 114 117 113 96
99 116 115 109 102 94 80 67 56 49 81 30 10 10 10 13
27 25 3 93 137 31 39 29 28 25 16 15 11 8 16 22
24 23 23 22 22 20 18 6 0 0 0 0 0 1 16 0
14 1 0 0 2 2 12 13 17 18 20 31 37 34 25 15
17 20 22 24 26 28 29 28 29 29 29 29 27 20 9 13
19 15 9 5 12 0 0 0 0 0 0 0 0 0 0 20
86 94 102 108 112 117 123 124 124 123 114 113 117 111 95 79
79 70 63 62 76 78 79 85 99 100 105 108 110 112 105 100
99 112 114 111 111 110 102 99 94 69 69 23 8 9 7 8
23 22 35 111 131 24 40 27 27 25 12 10 2 4 16 19
16 18 21 21 22 21 20 8 0 0 0 0 0 11 17 0
6 6 0 1 3 0 11 12 15 17 21 30 38 37 36 35
31 33 36 36 34 33 28 31 31 30 30 28 27 22 14 17
17 14 4 11 4 0 0 0 0 0 0 0 0 0 0 37
89 96 101 106 112 118 122 123 122 122 120 114 116 110 95 74
70 75 72 66 70 70 75 78 84 90 92 102 100 100 95 95
94 104 109 111 111 107 107 102 97 77 61 19 5 5 4 9
27 0 12 54 39 18 41 22 7 4 0 0 1 0 0 3
18 25 20 17 14 16 20 8 0 0 0 0 0 17 10 0
10 7 0 0 0 0 3 5 11 15 19 29 36 36 36 35
28 33 34 34 34 33 31 30 32 32 22 19 20 18 16 18
16 13 12 4 0 0 0 0 0 0 0 0 0 0 1 57
90 95 100 106 113 116 120 122 123 122 123 119 110 111 91 79
76 77 73 67 65 66 66 66 73 73 81 87 90 95 93 95
95 106 107 108 110 112 108 99 98 84 64 12 5 2 2 21
38 19 22 50 36 40 43 20 1 0 0 0 0 0 0 0
8 21 7 13 12 12 21 11 0 0 0 0 0 4 1 0
2 0 0 0 0 0 2 5 11 13 16 28 37 36 35 34
30 30 29 30 29 28 28 33 36 32 17 16 17 21 21 23
23 19 5 0 0 0 0 0 0 0 0 0 0 0 8 76
91 95 99 106 112 116 119 119 121 122 122 116 112 105 96 82
73 70 69 63 60 58 59 59 58 61 64 66 74 73 83 81
92 98 98 104 107 109 104 97 94 85 64 13 4 22 59 72
84 90 95 88 92 90 59 28 26 0 0 0 0 0 0 0
1 17 4 11 10 5 6 10 10 4 0 0 0 0 0 0
0 0 0 0 0 0 0 0 2 4 7 11 16 14 13 11
10 8 8 10 15 17 36 38 25 21 19 19 23 29 33 31
20 5 0 0 0 0 0 0 0 0 1 0 0 0 14 84
95 99 100 104 111 114 119 120 116 120 120 116 114 105 101 86
71 66 61 57 56 55 54 54 49 50 49 50 55 56 62 74
78 91 92 96 98 103 103 100 94 78 58 15 9 71 100 91
102 96 84 80 93 93 60 17 23 0 0 0 0 0 0 0
0 9 5 12 8 10 12 0 3 0 0 0 0 0 0 0
0 0 0 0 0 0 0 0 0 0 0 0 0 0 0 0
1 4 4 3 19 26 62 51 18 14 14 11 13 19 20 16
6 0 0 0 0 0 0 0 0 0 3 1 2 0 25 87
98 101 101 104 108 112 116 120 121 123 119 115 115 110 109 99
87 77 67 64 64 55 52 50 51 46 44 40 38 39 43 49
56 69 83 84 91 93 96 94 85 67 47 14 61 83 88 88
98 96 92 89 92 92 56 1 1 0 0 0 1 0 3 2
1 3 10 5 0 0 0 0 0 0 0 0 0 0 0 0
3 0 0 0 0 0 0 0 0 2 0 0 0 0 0 0
8 13 11 9 18 44 64 31 4 3 6 5 4 3 1 0
0 0 0 0 0 0 0 0 0 1 4 1 2 0 31 92
99 100 100 102 106 110 114 118 120 123 122 118 118 116 113 109
101 93 93 84 80 69 55 48 46 43 39 39 35 31 30 31
35 48 63 73 79 79 83 79 58 47 16 0 4 11 23 53
52 47 50 51 50 53 38 21 21 18 12 12 8 1 2 1
0 0 0 0 0 0 0 0 0 0 0 0 0 0 0 0
15 4 0 0 0 0 0 0 0 3 5 4 3 0 0 0
4 14 13 10 10 60 52 4 1 1 2 4 20 24 0 0
0 0 0 0 0 0 0 1 0 4 8 5 3 3 26 98
103 103 100 99 104 108 113 116 118 121 122 119 120 117 117 116
110 106 105 104 97 90 78 57 43 33 28 26 24 19 13 13
11 17 31 39 47 49 53 35 18 6 2 1 0 0 1 23
73 73 60 37 24 19 8 5 3 2 0 0 0 0 0 0
0 0 0 0 0 0 0 0 0 0 0 0 0 0 0 0
16 1 0 0 0 0 3 3 2 4 8 6 3 0 0 1
9 21 19 7 16 61 23 0 0 0 5 34 45 21 0 0
0 0 0 0 0 0 0 0 0 5 5 8 9 1 29 100
106 104 102 97 99 107 111 116 117 122 127 127 125 118 122 119
116 119 118 114 110 107 91 77 52 32 18 10 5 3 1 1
0 0 0 4 7 10 10 1 0 0 1 3 1 0 0 0
1 3 16 36 43 39 7 0 0 0 0 0 0 0 0 2
0 0 0 0 0 0 0 0 0 0 0 0 0 0 0 0
1 0 0 0 0 1 8 14 11 7 6 6 7 10 16 19
21 19 16 2 13 8 1 0 1 2 16 74 61 3 0 0
0 0 1 0 0 0 1 3 3 14 25 10 1 2 38 105
108 108 106 100 99 104 109 115 121 123 128 128 127 124 123 120
121 121 118 119 115 112 99 81 52 21 3 0 0 0 0 0
0 0 0 0 0 0 0 1 0 0 0 0 0 0 0 0
0 0 1 5 21 34 9 0 0 1 4 8 14 32 18 23
39 38 34 59 64 69 14 0 0 0 0 0 0 0 0 0
0 0 0 0 0 0 9 12 9 3 4 5 6 10 20 21
16 7 4 0 0 1 0 0 2 2 2 5 8 3 0 0
0 2 1 1 3 3 11 21 20 11 1 1 2 6 43 107
111 110 108 104 102 104 109 115 122 124 125 129 125 125 123 120
121 119 117 118 121 114 101 81 65 45 4 0 0 0 0 0
0 0 0 0 0 0 0 0 0 0 0 0 0 0 0 0
0 0 0 0 0 0 7 54 94 117 113 134 136 141 103 102
140 80 113 119 101 102 36 0 0 0 0 0 0 0 0 0
0 0 0 0 0 0 5 5 2 0 0 1 2 9 19 21
7 0 1 0 0 0 1 0 1 2 3 6 2 0 0 0
0 3 0 1 0 0 7 5 1 0 4 3 3 7 43 109
114 115 112 108 105 104 109 114 120 125 126 126 130 128 124 120
119 118 117 116 115 112 101 93 78 48 5 0 0 0 0 0
0 0 0 0 0 0 0 0 0 0 0 0 4 8 2 0
0 0 0 0 0 0 1 2 28 46 55 87 102 111 89 48
64 68 89 62 36 50 35 0 10 2 14 1 0 0 0 0
0 0 0 0 0 0 1 0 0 0 1 1 2 10 20 19
4 0 1 0 0 1 1 5 7 5 4 0 0 0 0 0
1 1 0 1 0 0 0 0 1 3 1 2 4 3 40 109
117 118 117 111 107 107 108 112 115 123 127 127 127 126 123 121
118 117 115 112 114 110 102 88 65 46 30 19 16 9 0 0
0 0 0 0 0 0 0 0 0 0 0 24 49 52 35 0
0 0 0 0 0 0 0 1 1 0 0 32 82 93 71 22
79 89 86 59 77 58 26 1 6 1 7 1 0 0 0 0
0 0 0 0 0 0 0 1 1 4 6 4 4 13 20 7
1 0 1 2 3 5 6 3 0 0 0 0 0 0 0 0
2 0 2 3 0 0 1 1 0 2 1 3 4 1 34 103
119 122 121 117 111 110 108 111 114 119 124 127 127 123 124 121
118 117 114 112 107 105 94 71 58 70 72 58 49 23 0 0
0 0 0 0 0 0 0 0 0 0 0 5 52 53 14 0
0 0 0 0 0 0 0 3 4 0 0 0 11 36 48 25
61 54 41 24 30 31 13 0 1 0 0 0 0 0 0 0
0 0 0 0 0 0 3 7 3 8 11 9 9 13 3 0
2 3 4 1 0 0 0 0 0 0 0 0 0 0 0 1
0 0 3 6 0 0 1 0 2 5 4 6 3 0 30 78
121 124 125 121 116 113 110 108 115 119 121 122 127 125 123 121
119 117 112 106 100 87 66 57 70 93 94 83 71 17 0 0
1 0 0 0 0 0 0 0 0 0 0 3 50 74 25 0
0 0 0 1 0 0 0 0 3 0 0 0 0 0 0 0
3 16 5 4 5 0 0 0 0 0 2 0 0 0 0 0
0 0 1 0 0 0 15 15 3 8 9 8 11 3 2 2
1 0 0 0 0 0 0 0 0 1 1 0 0 0 0 0
0 2 2 3 0 0 0 1 6 5 4 6 2 0 18 52
110 124 125 124 122 116 112 110 112 116 120 122 123 122 122 120
118 113 110 99 83 63 56 66 88 99 95 88 68 4 0 0
3 0 0 0 0 0 0 0 0 0 0 2 19 6 5 0
0 0 0 2 2 0 0 0 1 3 1 0 0 0 1 3
18 22 21 15 13 0 0 3 1 0 5 4 0 0 0 0
0 0 0 0 0 0 14 17 4 8 9 5 2 0 0 0
0 0 0 0 0 0 0 0 0 1 3 1 0 0 0 0
0 0 0 1 0 0 0 1 4 2 2 3 1 0 7 43
77 125 127 126 124 120 114 111 111 114 117 120 122 121 122 121
117 109 102 92 71 57 63 81 96 95 93 85 38 0 0 0
2 1 0 0 0 0 0 0 0 0 0 0 2 12 2 4
3 2 2 3 2 1 0 0 0 0 2 0 0 0 0 0
13 28 23 21 19 0 0 5 1 0 0 0 0 0 0 0
0 0 0 0 0 0 10 21 12 10 5 0 0 0 0 0
0 0 0 0 0 0 0 0 0 0 5 2 0 0 0 0
0 0 0 0 0 0 0 0 2 2 2 4 1 0 1 26
62 98 129 127 125 120 116 114 112 112 114 120 120 121 123 123
116 110 101 83 71 70 83 94 99 98 90 70 9 0 0 0
0 0 0 0 0 0 0 0 0 0 0 4 0 5 0 2
1 0 0 1 1 2 2 0 0 1 1 0 0 0 0 0
4 21 32 58 62 0 0 4 0 0 0 0 0 0 0 0
9 0 0 0 0 0 4 20 15 2 0 0 0 0 0 0
1 2 0 0 0 0 0 0 0 0 3 3 0 0 0 0
0 0 0 0 0 1 2 0 2 3 2 3 0 0 0 6
48 70 106 130 127 121 117 114 113 113 113 116 120 121 120 120
117 110 101 90 80 83 91 103 106 97 85 30 6 0 0 0
0 0 0 0 0 0 0 0 0 0 0 6 4 0 3 7
9 6 6 6 5 3 4 4 4 6 3 0 0 0 0 0
0 22 52 85 68 0 1 3 0 0 0 0 0 0 0 0
14 2 1 0 0 0 0 3 1 0 0 0 0 0 0 0
0 2 1 0 0 0 0 0 0 0 1 0 0 0 0 0
0 0 0 0 0 4 11 1 1 1 1 3 0 0 0 0
14 63 76 108 124 122 119 115 113 114 115 117 121 122 121 116
112 106 99 86 80 86 103 111 106 92 64 5 4 0 0 0
1 0 0 0 0 0 0 0 1 0 0 2 1 0 0 0
0 0 0 0 0 0 1 0 0 0 1 5 10 10 0 0
0 0 1 57 43 0 0 0 0 0 0 0 0 0 0 0
19 0 5 0 0 0 0 2 0 0 0 0 0 0 0 1
0 0 2 0 0 0 0 0 0 0 0 0 0 0 0 0
0 0 0 0 0 25 19 0 0 2 2 2 0 0 0 0
1 26 73 78 103 119 118 114 112 115 117 118 120 121 117 112
105 97 87 78 79 98 113 112 102 85 25 7 2 0 0 0
2 1 0 0 0 0 0 0 0 0 0 0 1 1 0 0
0 0 0 0 1 3 7 9 11 10 1 0 0 0 9 7
2 0 0 19 13 0 0 0 0 0 0 0 0 0 0 0
8 2 8 0 0 0 3 0 0 0 0 0 0 0 2 1
0 0 0 0 0 0 0 0 0 0 0 0 0 0 0 0
0 0 0 0 1 17 17 1 2 5 3 1 0 0 0 0
0 1 40 79 79 96 116 116 113 114 117 119 120 118 112 104
96 84 76 76 96 114 119 111 96 61 1 9 0 0 0 0
5 2 0 0 0 0 0 0 0 0 0 0 3 0 0 1
1 0 2 3 6 9 10 14 16 13 3 1 0 0 0 0
3 2 0 0 0 0 0 0 0 0 0 0 0 0 0 0
0 0 0 0 0 0 6 0 0 0 0 0 0 3 4 0
0 0 0 0 0 0 0 0 0 0 0 0 0 0 0 0
0 0 0 0 1 11 12 1 1 6 4 3 0 0 0 0
0 0 3 45 84 85 91 111 112 113 119 120 119 116 107 97
89 80 82 99 117 123 119 107 89 20 9 11 0 0 0 0
3 1 0 0 3 0 0 0 0 2 0 0 1 0 0 3
1 0 5 7 10 11 8 9 14 10 6 5 0 0 0 0
0 0 1 0 0 2 1 0 0 0 0 0 0 0 0 0
0 0 0 0 0 0 3 0 0 0 0 0 0 2 2 0
0 0 0 0 0 0 0 0 0 0 2 0 0 2 1 0
0 0 0 0 0 3 11 4 0 7 3 2 0 0 0 1
0 0 0 5 55 94 88 84 101 110 117 122 122 116 102 92
87 89 103 117 126 126 116 102 62 14 23 7 0 0 0 0
2 3 0 0 1 0 0 0 0 1 0 0 0 0 3 3
1 2 5 9 11 9 7 6 15 8 5 14 7 0 0 0
0 0 0 0 0 11 5 0 0 0 0 0 0 0 0 0
0 0 0 0 0 0 2 0 0 0 0 0 0 0 0 0
0 0 0 4 3 0 0 0 0 1 2 0 1 4 2 0
0 0 0 0 0 7 11 6 0 6 5 2 0 0 0 1
0 0 0 0 5 50 96 84 76 94 113 121 122 115 100 91
94 104 118 127 130 127 115 96 36 25 22 2 0 0 0 0
1 3 0 0 0 1 0 0 0 0 0 0 0 1 3 1
0 4 8 12 10 8 5 8 16 12 7 9 14 2 0 0
0 0 0 2 4 0 0 0 0 0 0 2 0 0 0 0
0 0 0 0 0 0 0 0 1 0 0 0 0 0 0 0
0 0 0 8 9 0 0 0 0 2 0 2 1 3 4 0
0 0 0 0 1 10 11 10 0 6 8 4 0 0 0 0
0 0 0 0 0 2 27 77 82 71 91 116 122 113 98 94
104 116 127 133 131 126 115 73 28 35 10 0 1 0 0 0
1 2 0 0 0 1 0 0 0 0 0 0 0 3 1 0
0 6 13 13 11 5 2 7 20 12 11 9 23 8 0 0
0 1 0 0 1 1 0 0 0 0 2 3 0 0 0 0
0 0 0 0 0 0 0 0 0 0 0 0 0 0 0 0
0 1 2 7 11 1 0 0 0 3 1 4 2 3 4 0
0 0 0 0 3 12 14 12 0 4 15 5 0 0 0 3
2 1 0 0 0 0 1 11 51 75 71 89 113 110 96 102
114 126 133 135 134 127 99 42 38 22 3 0 2 0 0 0
1 1 0 0 0 2 0 0 0 0 0 0 0 1 0 0
3 10 14 16 11 5 2 11 19 16 15 10 19 11 3 0
0 3 3 4 0 0 0 0 0 2 4 1 0 0 0 0
0 0 1 0 0 0 0 2 0 3 0 0 0 0 0 0
0 2 3 5 14 5 0 0 3 4 3 5 5 5 3 1
0 0 0 0 7 6 5 8 1 1 15 5 1 0 0 0
8 2 1 0 0 0 0 1 4 18 47 71 93 102 100 108
123 134 138 138 133 114 60 34 17 3 2 1 0 0 0 0
1 3 0 0 0 1 3 0 0 0 0 0 0 0 0 0
7 14 15 13 9 3 3 11 16 15 12 7 10 13 1 0
0 6 6 0 0 0 10 7 3 2 0 0 0 0 0 0
0 0 2 4 0 0 0 1 2 0 1 0 0 0 0 0
1 5 5 5 12 9 0 0 7 3 5 5 4 5 1 1
0 0 0 0 1 0 0 2 2 0 12 7 1 0 0 0
6 6 1 0 0 0 0 0 0 1 4 11 31 51 70 80
93 102 100 88 70 36 11 5 2 1 2 2 0 0 0 0
0 3 0 0 0 0 3 0 0 0 0 0 0 0 0 2
10 16 15 13 6 3 1 10 13 11 15 9 5 11 1 0
0 8 10 1 0 0 2 11 5 1 0 0 0 0 0 0
2 4 0 0 0 0 1 1 10 1 9 0 0 0 0 0
1 7 8 7 15 12 0 3 11 2 6 4 5 6 3 5
1 0 0 0 0 0 0 1 3 0 9 8 0 0 0 0
9 7 6 1 0 0 0 0 0 0 1 1 3 4 6 7
9 8 8 6 6 3 4 2 1 2 2 0 0 0 0 0
2 5 0 0 0 0 4 1 0 0 0 0 0 0 0 6
16 18 13 12 5 1 5 15 17 15 12 11 1 6 1 0
0 9 11 3 0 0 0 7 13 12 2 0 0 0 0 0
0 20 2 0 0 0 0 3 18 4 11 1 0 0 0 0
1 8 10 13 17 10 0 9 11 3 6 4 5 2 5 5
1 0 0 0 0 0 0 1 4 0 2 7 3 0 0 0
4 10 5 5 2 0 0 0 0 0 0 1 2 2 2 5
4 3 3 3 2 2 1 2 0 1 1 0 0 0 0 0
2 8 0 0 0 0 2 4 0 0 0 0 0 0 0 10
18 16 12 7 2 0 7 20 14 13 11 12 1 3 0 0
2 10 6 6 0 0 0 11 19 13 1 0 0 0 0 0
0 17 2 0 5 0 0 6 19 8 0 1 0 0 0 0
0 10 14 20 21 8 3 16 7 3 5 4 3 2 5 4
1 0 0 0 0 0 0 0 3 0 0 6 3 0 0 0
1 10 9 5 4 3 1 0 0 0 0 0 0 1 1 1
2 2 1 2 4 3 1 1 0 0 0 0 0 0 0 0
2 11 0 0 0 0 0 9 1 0 0 0 0 0 0 10
18 17 9 3 0 1 6 16 13 12 14 9 1 2 0 0
7 14 7 8 0 0 0 6 12 1 0 0 0 0 0 0
0 5 0 0 14 1 0 10 33 12 0 3 0 0 0 0
0 8 14 22 21 5 8 18 2 5 6 3 2 2 4 3
2 0 0 0 0 0 0 0 2 0 0 9 6 0 0 0
0 6 7 5 5 4 2 0 0 0 0 0 0 0 0 0
0 1 0 0 0 0 0 0 0 0 0 0 0 0 0 0
3 9 0 0 0 0 0 5 4 0 0 0 0 4 0 8
18 14 6 0 0 1 5 17 14 11 13 9 1 3 0 0
10 17 9 21 0 0 0 0 0 0 0 0 0 0 0 0
8 2 0 0 14 2 0 6 41 12 1 4 0 0 0 0
0 3 13 25 16 6 16 11 4 8 4 3 2 2 3 3
2 0 0 0 0 0 0 0 1 0 0 10 14 0 0 0
0 2 7 6 2 4 2 3 1 0 0 0 0 0 0 0
0 0 0 0 0 0 0 0 0 0 0 0 0 0 0 0
4 8 0 0 0 0 0 0 4 0 0 0 0 4 2 5
7 7 3 0 0 1 8 20 14 13 9 11 0 1 0 1
12 21 9 13 0 0 0 0 0 0 0 0 0 0 0 0
