P2
128 120
156
61 63 66 69 69 66 49 48 48 47 48 47 47 47 48 48
47 47 46 46 45 45 44 44 44 43 43 42 42 41 41 41
40 39 39 38 38 37 37 36 35 35 35 34 33 33 33 32
32 32 32 31 30 30 29 28 28 27 27 27 27 27 29 32
34 33 33 27 22 19 28 30 27 27 27 26 25 26 24 24
23 20 25 26 27 27 27 27 27 28 28 28 28 28 28 29
29 29 30 30 29 29 29 29 29 30 31 31 32 32 33 33
33 34 34 34 35 35 36 35 36 36 35 35 36 35 35 36
56 56 57 58 66 71 58 53 49 48 47 47 47 47 46 46
46 46 46 46 45 45 44 44 43 43 43 42 41 41 41 40
40 39 39 39 38 37 37 36 36 35 35 34 34 34 33 32
32 31 31 31 30 30 29 29 28 28 28 28 27 28 29 32
33 33 33 28 22 22 26 31 29 28 28 27 26 27 24 24
23 19 25 25 27 27 28 27 28 27 28 28 29 29 30 30
29 29 29 29 30 30 31 31 31 31 32 32 32 33 33 34
33 34 35 34 35 35 36 35 36 36 36 36 36 36 37 36
4 3 3 2 41 69 64 69 65 58 50 49 49 48 48 48
47 47 46 46 45 45 45 44 44 43 43 43 42 41 42 41
40 40 39 39 39 38 37 37 37 36 35 35 34 34 34 35
33 32 32 32 31 31 31 31 29 30 29 28 27 28 30 33
35 35 34 29 23 25 26 31 30 29 28 28 27 28 26 25
25 20 27 27 29 28 28 28 28 29 29 29 29 28 28 28
29 29 29 30 32 32 32 32 32 32 32 33 33 33 34 34
34 35 36 35 36 36 36 36 36 36 36 36 36 35 36 36
14 2 0 0 31 66 59 59 45 48 50 52 62 63 63 59
54 47 46 46 46 45 45 44 45 44 43 43 42 42 41 41
41 40 40 39 38 38 38 37 37 36 36 36 35 35 35 34
33 33 32 32 32 31 31 30 30 30 30 30 29 28 29 33
35 35 34 30 24 27 25 32 30 30 29 29 28 28 26 26
25 21 27 27 29 28 29 29 29 29 29 29 29 30 30 30
31 31 31 31 31 32 32 32 32 32 33 33 33 34 34 34
35 35 36 36 36 36 37 36 36 36 36 37 37 37 37 36
13 5 0 0 23 64 59 55 8 3 12 23 34 45 52 59
62 49 46 46 46 46 45 44 44 43 43 43 43 42 42 42
41 40 40 40 39 38 37 37 36 36 36 35 35 34 34 34
34 35 34 34 32 31 30 29 29 29 30 30 30 28 30 33
36 35 35 31 25 28 23 32 31 30 29 28 27 28 26 26
26 22 28 27 29 29 29 29 30 30 29 30 30 30 30 30
30 30 31 32 32 31 32 32 33 33 33 33 34 33 34 34
35 35 35 36 36 36 37 36 36 36 37 37 37 37 37 36
6 2 0 0 18 64 61 53 8 0 0 0 0 0 3 36
62 49 45 45 45 45 44 44 44 44 43 43 43 42 42 42
41 40 40 39 39 39 38 38 37 37 37 36 35 35 35 34
34 33 33 33 32 30 30 30 30 30 29 30 30 30 30 34
36 36 35 32 24 29 24 31 31 30 30 29 28 30 26 27
26 21 26 25 29 29 29 29 31 30 30 31 31 31 31 31
31 31 32 32 32 32 33 32 32 32 33 33 34 34 34 35
35 34 35 36 35 35 37 36 35 36 36 36 36 35 35 36
11 9 0 4 13 62 60 51 8 0 0 0 0 0 0 32
62 50 45 45 46 45 45 45 44 44 44 43 42 42 41 42
41 41 40 40 39 39 38 38 38 37 37 35 35 35 35 34
34 34 33 33 32 31 31 30 29 29 29 29 29 31 31 34
36 36 36 32 25 30 24 31 32 31 31 30 29 30 27 27
27 23 28 28 31 31 31 31 31 31 31 30 31 30 31 31
31 31 32 32 33 33 34 34 34 33 34 34 34 35 35 35
35 35 35 36 36 36 37 36 35 35 35 36 36 37 36 37
1 2 0 4 8 61 59 53 9 0 4 11 2 0 0 30
61 49 45 45 46 45 44 44 44 44 43 43 43 42 41 42
41 40 40 39 39 39 38 38 37 37 37 36 36 36 36 35
35 34 33 33 33 32 32 30 27 27 25 25 30 30 31 34
36 37 36 33 25 30 26 31 32 31 31 30 29 31 28 28
28 24 28 28 31 31 31 31 31 31 31 32 31 31 32 32
32 32 32 32 32 33 33 33 33 34 34 34 34 34 35 35
36 36 36 36 35 34 35 35 36 36 36 36 37 37 37 37
0 3 0 4 6 61 62 55 9 1 14 16 4 0 0 28
60 50 46 45 45 45 45 45 44 44 43 43 42 41 41 41
41 41 40 40 40 39 39 38 38 37 37 36 36 35 35 34
35 33 34 33 34 33 32 29 26 22 15 15 18 29 32 35
36 38 36 33 25 30 27 30 32 31 30 30 29 30 28 28
27 25 28 28 31 31 31 31 32 31 32 32 31 31 31 31
32 32 32 32 33 33 33 34 35 35 34 34 35 35 35 34
34 34 35 35 36 37 37 36 36 37 36 37 37 37 38 36
1 0 0 5 7 56 61 54 10 0 6 11 6 0 0 29
60 50 45 45 45 46 45 44 44 44 43 44 43 42 43 43
42 41 41 40 40 40 39 38 38 38 37 37 37 36 35 36
35 35 36 34 34 32 30 27 19 15 14 15 10 14 30 30
32 34 36 35 26 31 30 30 31 32 32 32 30 31 29 29
29 26 30 29 32 32 32 32 32 33 33 33 33 32 33 33
33 34 34 34 35 34 34 35 35 35 34 33 34 34 35 36
36 37 37 37 38 37 38 37 37 37 38 37 37 37 38 37
5 1 0 1 5 52 60 55 11 0 2 8 14 2 0 29
60 49 46 46 46 46 46 45 44 44 44 43 43 42 42 42
42 41 41 40 40 40 40 39 39 39 38 38 37 37 36 36
35 35 34 35 32 28 26 19 12 10 11 11 7 6 21 21
18 19 21 26 26 31 33 28 33 33 33 32 32 31 30 29
30 26 29 29 33 33 33 33 33 33 33 33 33 33 33 33
34 34 34 34 35 35 35 34 34 35 35 35 36 35 37 37
37 37 38 37 37 37 38 38 37 38 38 38 38 38 38 36
20 20 18 21 22 47 57 58 13 0 4 9 13 4 0 27
60 50 46 46 46 45 45 44 44 44 44 43 43 43 42 42
41 42 41 41 40 40 40 39 39 38 38 37 38 37 37 36
36 35 36 36 32 24 21 14 5 4 4 6 5 5 13 15
10 7 5 5 12 25 33 29 34 33 32 31 32 29 30 30
30 27 29 29 33 34 34 33 34 34 33 33 33 34 34 35
34 34 34 34 34 35 35 34 34 35 35 35 35 35 37 37
37 37 37 38 38 38 38 38 38 37 37 37 37 37 38 36
47 44 45 45 44 42 50 58 15 0 2 7 8 9 7 28
59 49 45 45 45 45 46 45 45 44 44 43 44 42 42 42
42 41 41 41 40 40 40 39 39 38 39 38 38 37 36 36
36 35 29 27 21 15 18 14 6 3 6 7 2 2 7 12
6 5 4 5 6 10 22 23 32 33 34 33 32 30 31 30
30 27 28 29 33 33 34 34 34 33 34 34 34 34 34 34
35 35 34 35 35 35 35 35 35 36 36 36 36 36 37 38
37 37 37 38 37 37 37 37 37 37 38 38 38 37 40 37
35 35 38 38 39 40 44 52 41 29 24 17 13 12 18 39
59 49 46 46 45 45 45 45 44 44 44 44 44 43 43 42
42 42 42 42 41 41 40 39 39 38 38 37 38 37 37 37
37 30 21 13 15 14 16 17 7 4 6 4 3 5 10 9
7 5 4 3 4 2 3 7 20 28 34 32 32 30 31 29
30 28 30 31 34 34 34 34 34 33 33 34 33 34 34 35
36 35 35 35 35 36 36 36 36 37 37 37 37 37 37 38
37 37 38 38 38 38 38 38 38 37 37 38 38 37 39 37
24 26 32 37 42 45 40 39 40 42 45 46 46 46 43 48
55 48 46 46 46 46 46 45 44 44 45 44 44 43 43 43
42 42 41 41 41 40 40 40 40 40 39 37 38 36 37 39
36 22 14 20 18 18 18 17 12 10 13 7 6 13 12 10
7 6 1 2 4 1 1 0 5 10 27 32 33 30 32 31
31 29 30 30 33 33 34 33 33 34 35 35 35 35 35 36
37 35 35 35 35 35 36 37 37 36 36 37 37 37 38 38
38 38 39 38 38 37 37 38 37 38 37 38 38 38 39 38
22 22 23 22 23 24 25 25 27 30 34 38 41 43 46 47
49 48 48 48 46 47 47 46 45 45 45 44 44 44 44 43
43 43 42 42 42 42 41 41 40 38 39 39 35 32 27 23
14 12 18 18 18 21 33 22 19 13 12 10 14 19 17 17
12 5 6 4 5 3 0 2 5 2 15 29 33 33 33 31
31 30 30 32 35 35 35 35 36 35 35 36 35 35 36 36
37 36 36 36 36 37 37 37 37 37 38 38 37 38 38 39
38 39 39 39 39 38 38 38 38 39 39 38 39 39 39 36
21 21 22 22 23 23 22 22 22 21 22 23 25 29 33 38
42 46 47 47 47 46 46 45 46 45 45 45 45 44 44 43
43 43 43 42 42 41 41 40 39 40 39 36 24 11 12 11
9 12 18 22 24 24 30 29 20 16 13 9 17 25 27 25
15 10 7 5 2 0 0 0 1 0 8 30 34 31 34 32
32 30 29 32 34 35 35 35 35 35 35 36 36 36 36 37
37 36 36 36 36 37 37 37 37 37 37 37 38 38 38 38
38 38 38 39 39 39 38 38 39 38 37 36 37 37 37 37
37 36 41 38 36 33 30 25 21 21 20 20 21 20 20 22
23 25 28 31 36 40 43 45 46 45 44 44 44 43 43 43
43 43 42 42 41 41 41 40 40 39 37 23 8 7 10 12
14 17 22 29 28 28 29 37 28 21 15 10 24 32 36 26
15 9 8 8 2 6 3 3 2 3 5 27 32 32 31 31
32 30 30 32 35 35 35 36 36 36 36 36 35 35 36 35
37 35 36 36 36 36 37 36 37 37 38 39 38 39 38 38
38 37 38 38 38 38 38 37 36 36 37 38 38 38 37 37
40 38 42 42 45 53 68 56 30 26 23 22 22 22 22 21
21 20 22 21 21 22 23 24 28 34 44 44 44 44 43 43
42 42 42 42 42 40 40 38 38 38 36 6 3 12 20 20
32 32 27 25 38 33 29 37 43 32 21 17 28 42 38 30
17 10 11 6 9 8 5 5 5 5 5 16 29 31 32 31
32 35 29 33 35 35 35 35 36 36 36 36 35 36 36 36
38 37 37 37 36 36 37 37 37 38 38 37 38 38 37 38
37 37 38 38 38 38 38 38 37 37 38 38 37 38 37 36
0 14 47 43 46 53 67 65 59 55 50 49 50 45 41 35
23 23 21 21 21 21 22 13 14 25 44 44 44 44 43 43
42 42 42 42 41 41 41 40 39 36 25 4 1 2 1 8
16 14 12 20 32 34 42 48 45 49 32 25 35 47 39 23
24 15 13 11 9 13 6 7 7 10 7 11 15 30 32 30
32 35 30 33 34 35 35 36 36 35 36 36 36 36 36 36
37 36 37 36 37 37 37 37 38 38 37 37 37 36 36 36
37 36 37 37 37 37 37 38 37 37 37 38 37 37 37 37
0 13 43 42 45 51 63 65 64 64 60 57 64 63 60 52
30 38 39 32 25 23 21 19 19 23 42 44 44 44 43 42
43 43 43 42 41 41 40 40 39 37 29 13 5 5 11 10
9 8 10 18 22 32 48 51 57 50 38 30 43 53 36 35
29 23 20 16 17 13 12 14 12 7 6 9 16 32 32 32
33 34 33 33 35 36 35 36 36 36 36 36 36 36 37 37
38 37 37 37 37 37 37 38 37 37 37 37 37 36 37 37
37 37 37 37 37 37 37 38 37 37 38 37 37 37 37 37
1 6 13 13 13 34 61 63 61 62 53 56 59 63 63 55
39 47 53 48 50 52 47 30 18 24 43 44 44 44 43 45
54 51 50 46 44 42 40 40 40 38 32 15 7 10 12 11
11 16 13 13 22 30 37 52 59 63 52 49 55 64 55 46
41 33 35 31 30 25 21 13 10 8 9 12 14 19 28 32
34 33 33 34 35 36 36 36 36 36 37 37 37 36 36 36
36 36 35 36 37 37 37 38 38 36 37 38 38 37 38 37
37 36 36 37 37 36 37 38 37 38 37 37 36 37 37 37
1 14 14 3 1 26 62 56 13 29 26 34 42 50 56 56
46 51 55 53 57 59 59 43 20 25 44 45 45 44 43 47
57 55 53 49 49 49 48 43 41 38 30 12 6 12 17 20
26 25 27 25 30 38 45 53 67 91 86 79 84 89 80 66
59 50 50 42 35 35 32 29 23 16 14 13 9 16 21 29
33 33 32 35 35 37 37 37 37 36 36 36 36 36 36 36
37 37 37 37 38 37 37 38 38 37 36 37 37 37 37 37
37 36 37 38 37 37 38 39 38 38 37 37 37 36 36 36
8 28 43 8 1 29 63 54 3 10 1 0 1 7 10 51
47 52 55 56 60 60 61 47 21 28 47 47 47 45 44 47
56 55 52 51 53 55 53 45 45 38 24 15 12 11 14 22
37 40 42 53 53 61 65 71 85 104 113 112 111 112 106 92
82 76 71 64 59 53 45 36 26 17 8 6 6 10 14 27
30 34 31 34 35 36 36 36 36 36 36 36 36 37 36 37
37 37 37 37 37 37 37 37 38 37 38 37 37 37 37 36
37 37 37 37 37 36 36 38 37 38 37 36 37 37 38 37
20 34 41 34 6 22 65 56 4 0 1 0 9 17 11 51
46 51 52 57 58 59 59 50 21 28 48 47 47 48 49 49
34 23 38 49 53 55 52 29 22 25 12 16 22 24 37 48
57 70 84 85 93 98 105 113 119 124 129 128 130 133 131 120
113 106 90 79 74 67 63 53 40 25 14 7 6 5 7 21
28 30 30 33 34 35 36 36 36 36 36 37 36 36 36 36
37 36 37 37 37 37 37 37 38 37 37 37 37 37 37 37
37 37 37 37 37 37 37 38 38 37 37 36 36 36 36 37
23 38 33 23 15 17 64 60 7 0 1 0 16 23 18 51
24 20 32 43 51 53 55 50 23 27 49 48 42 43 51 57
25 0 5 21 25 27 41 24 6 17 9 13 27 41 57 75
88 96 107 116 122 126 127 128 133 139 140 136 134 133 135 134
133 124 114 101 90 84 80 70 64 44 30 14 10 10 10 22
29 31 29 34 33 36 36 36 36 37 37 37 36 36 36 36
36 37 36 37 37 36 36 36 38 37 37 37 37 37 37 37
37 37 37 37 37 36 37 38 37 36 36 36 37 36 37 37
7 27 32 19 3 15 64 62 9 1 2 0 9 12 12 51
15 0 4 7 7 12 18 50 24 24 33 43 48 50 55 58
29 0 3 14 19 21 34 25 11 14 12 29 48 66 82 88
102 113 120 134 136 133 134 137 135 137 140 139 136 133 133 136
137 130 125 124 116 110 99 84 81 73 56 37 19 14 13 21
27 30 29 34 35 37 37 37 37 37 37 37 36 37 37 36
36 36 36 37 37 37 38 37 38 37 37 37 37 37 37 37
38 37 37 37 36 36 36 38 37 37 37 37 36 36 37 37
0 1 3 0 0 15 66 65 11 0 0 0 3 0 6 52
12 1 0 0 0 0 6 49 24 19 1 3 9 18 29 41
30 0 1 8 6 12 32 28 7 12 22 44 67 88 99 107
119 130 135 138 137 139 139 138 137 138 139 139 137 138 135 133
132 132 127 126 122 116 111 106 91 83 69 48 26 16 11 18
31 32 29 34 34 37 37 37 37 38 37 37 37 37 37 37
37 38 37 38 37 38 38 38 38 37 38 38 37 38 38 38
39 38 38 37 38 38 37 38 36 38 38 38 38 38 38 37
0 0 0 0 0 13 66 67 15 0 6 5 15 0 5 52
14 6 1 11 0 0 6 50 24 18 0 0 0 0 0 2
23 0 0 1 0 7 30 25 8 15 34 59 85 103 105 112
121 128 136 137 139 144 142 139 140 141 143 140 134 137 135 136
135 132 131 128 122 118 113 108 105 98 88 64 34 20 16 18
27 32 30 34 34 39 38 38 38 38 38 38 37 37 37 37
37 37 37 37 38 38 38 38 39 38 39 39 39 39 39 39
39 38 38 38 38 37 37 37 39 39 39 38 38 38 38 37
0 0 0 0 0 10 65 67 19 0 18 17 27 3 5 52
16 7 2 20 8 0 4 49 25 19 1 0 0 0 0 0
20 0 0 0 0 3 33 29 9 20 40 72 95 105 109 116
123 130 135 140 144 142 142 144 144 142 145 144 143 142 140 138
136 134 132 132 125 118 113 109 105 101 98 83 48 30 21 22
28 32 30 34 35 38 38 38 37 38 37 37 37 38 37 38
37 38 38 38 38 38 39 38 40 39 38 38 38 39 39 38
38 38 38 38 38 38 38 39 38 38 38 38 38 37 37 38
37 36 33 29 26 33 66 69 25 4 3 3 2 1 4 50
14 7 3 14 9 0 4 49 24 19 1 0 0 4 0 0
17 0 0 0 0 2 29 33 15 26 56 80 101 109 106 117
124 126 137 143 145 145 145 146 147 144 144 143 145 144 144 140
137 137 134 131 126 119 117 111 105 101 100 93 67 43 29 24
28 32 30 35 35 38 38 38 37 38 38 37 37 37 37 37
38 38 37 38 38 39 39 38 39 38 39 38 38 38 39 39
39 38 38 37 38 38 38 38 38 38 38 38 38 38 38 38
61 56 53 49 44 39 38 40 9 0 4 13 6 1 4 48
12 4 5 1 3 0 4 48 24 19 1 4 5 16 1 0
16 1 3 0 0 6 29 36 23 39 61 87 104 110 109 118
124 134 142 147 147 147 146 146 147 143 143 145 146 146 145 140
139 138 136 135 129 125 120 113 105 101 100 95 78 54 34 22
29 32 33 35 34 38 37 38 38 38 38 37 37 37 38 37
38 38 38 38 38 38 39 38 37 39 38 38 39 38 39 39
40 39 39 39 38 39 38 38 38 38 38 38 38 38 38 38
31 34 41 49 53 52 41 37 17 12 10 13 5 0 5 47
10 1 10 0 0 0 4 48 24 20 5 14 6 7 0 0
17 2 0 0 0 10 31 34 26 42 74 96 106 104 113 119
128 135 144 147 148 147 148 148 148 146 145 146 148 147 145 142
139 138 135 138 133 125 121 115 108 102 101 96 85 67 41 26
30 30 30 34 34 39 38 38 38 38 38 38 37 38 37 37
38 38 38 39 38 38 39 38 38 38 38 39 39 39 39 39
39 38 39 39 38 38 38 38 38 37 38 38 36 35 36 38
0 0 1 4 8 26 49 48 54 55 50 52 48 42 40 52
25 10 11 11 8 4 9 47 24 21 9 5 0 3 4 0
24 10 5 6 1 4 29 38 31 51 79 99 106 108 115 119
129 132 145 147 148 148 148 148 147 143 146 147 147 147 143 142
140 140 138 138 136 131 122 113 108 103 100 97 87 78 52 30
28 32 31 35 34 39 38 38 37 38 38 39 38 38 39 38
39 40 39 38 38 38 39 38 37 38 38 39 39 39 39 39
39 38 37 36 36 36 37 36 36 35 36 35 33 31 28 24
0 1 1 0 0 12 62 51 19 24 32 41 45 49 54 59
68 46 41 46 50 47 45 45 24 21 4 0 0 0 0 0
39 54 42 40 36 26 34 43 33 57 83 99 105 107 115 122
131 137 145 146 148 147 146 148 148 147 148 147 145 145 144 141
140 138 137 134 132 131 124 118 112 107 102 96 89 84 58 36
29 32 31 34 33 39 39 38 38 38 39 38 38 39 39 38
38 40 38 38 38 38 38 38 38 38 39 38 38 37 38 37
38 36 37 38 35 34 32 29 26 22 20 18 17 16 16 17
0 0 11 16 2 10 60 52 21 13 21 21 17 6 40 73
71 42 45 57 59 59 59 49 23 21 2 0 0 0 0 0
41 63 51 57 60 59 49 45 36 65 81 93 104 112 116 124
133 140 144 147 148 148 148 148 147 146 146 146 146 144 142 141
138 135 138 134 129 129 123 121 115 110 106 96 89 83 65 40
32 33 31 34 34 39 38 38 38 38 38 37 38 38 37 36
36 39 37 38 38 39 38 39 39 38 39 39 39 36 35 33
30 26 27 38 23 16 17 18 17 18 19 20 21 21 22 23
26 7 26 10 1 8 60 53 8 8 11 5 5 0 41 71
60 38 48 56 58 61 62 51 24 22 21 15 8 3 1 0
40 53 51 59 62 60 47 37 38 72 81 93 104 112 118 123
129 138 144 147 147 147 148 148 147 146 148 147 147 145 142 142
143 140 137 132 127 126 122 117 117 112 107 97 89 86 72 50
33 33 33 33 35 38 38 38 37 37 37 37 37 37 37 36
36 38 38 31 16 38 38 37 36 33 29 26 24 21 19 20
20 19 18 34 21 18 22 24 24 25 27 28 28 29 29 29
32 15 17 16 4 7 59 51 2 1 5 0 0 0 39 67
45 10 15 22 24 30 37 50 24 25 47 58 54 47 40 35
50 42 50 56 60 57 50 37 43 76 86 96 103 111 120 124
130 138 141 146 146 147 148 147 147 146 147 147 146 140 141 139
142 141 138 133 130 127 123 119 117 114 108 99 90 87 72 55
38 33 32 34 35 38 38 37 37 36 35 34 33 33 37 37
37 36 27 6 20 28 25 23 22 20 21 21 22 23 24 25
26 26 24 32 23 24 29 31 31 32 32 33 33 33 33 32
7 1 21 32 10 8 58 49 1 0 0 0 0 0 36 67
46 1 1 0 0 0 7 45 26 26 49 62 60 59 59 60
60 23 20 28 35 39 41 39 44 74 87 96 103 112 121 126
129 135 140 142 141 145 148 147 148 147 147 147 147 144 144 140
141 142 141 135 131 130 127 121 118 113 109 102 93 89 75 57
39 32 32 32 32 34 34 34 34 33 33 34 27 22 30 27
24 17 9 19 23 23 25 25 27 27 27 29 30 31 31 32
33 32 30 33 26 29 32 33 34 35 35 35 36 36 37 37
33 34 37 19 8 11 61 50 5 25 3 0 0 0 28 67
46 0 0 0 0 3 9 45 26 24 44 58 58 59 60 61
57 13 1 1 3 12 22 37 54 73 88 93 101 113 121 126
128 130 136 141 144 147 147 146 148 147 147 147 146 147 146 143
142 143 143 141 136 134 129 123 120 114 109 104 95 90 82 58
34 28 29 30 33 34 32 31 29 27 25 24 21 20 23 23
13 19 19 30 30 31 32 33 34 33 34 35 36 36 36 36
36 34 28 12 10 30 36 38 38 37 36 37 37 37 37 36
23 55 54 20 2 13 65 55 11 36 4 0 0 0 23 64
42 0 0 0 13 37 34 40 38 32 39 45 46 48 49 54
54 9 0 0 2 3 12 39 48 75 90 95 103 113 122 126
129 132 141 146 149 150 149 148 149 149 149 149 147 148 147 146
144 140 144 144 140 135 129 124 119 114 110 104 96 93 84 64
35 23 22 25 25 25 24 25 25 26 27 28 29 29 30 18
28 25 31 36 36 36 37 37 37 37 37 37 38 37 38 38
37 36 27 6 3 28 38 40 40 39 39 39 39 39 39 40
10 49 47 20 3 12 66 57 4 22 8 0 0 0 22 59
38 0 0 0 12 38 37 34 34 29 31 30 35 42 40 51
53 8 0 0 1 5 2 39 46 72 87 94 98 112 119 125
126 133 142 149 150 151 150 150 150 149 150 149 148 148 147 148
147 141 143 143 136 131 125 122 120 113 107 102 94 92 86 69
37 25 26 23 24 25 29 31 32 33 33 35 35 35 24 28
37 34 16 23 23 20 16 22 38 39 38 38 24 6 7 12
13 14 21 8 3 26 38 40 40 39 40 40 39 39 39 40
0 38 35 14 3 11 66 58 4 3 4 0 0 0 24 60
38 0 6 0 3 17 20 32 31 29 31 34 38 43 44 52
52 8 0 0 1 4 3 41 43 70 85 93 100 111 120 124
126 134 141 149 150 149 148 150 150 150 149 147 149 148 142 146
147 142 135 132 127 125 116 112 113 111 107 98 90 93 86 74
39 27 29 25 28 31 34 35 36 36 37 36 37 33 25 36
34 40 7 2 0 1 2 19 27 20 6 6 1 6 1 0
0 0 6 0 0 25 38 39 40 39 39 39 39 38 39 38
4 22 26 3 0 10 64 57 5 0 0 0 0 0 26 61
36 0 6 2 0 0 1 28 25 28 19 11 17 25 31 38
43 8 0 0 0 0 6 41 34 64 80 92 100 108 119 120
125 130 138 137 139 132 139 140 141 148 148 148 150 148 132 130
133 126 117 115 106 99 106 100 100 96 96 93 90 90 83 76
44 31 33 29 31 34 37 38 39 38 39 37 37 20 15 3
3 46 21 0 0 0 0 0 0 0 0 0 0 0 11 0
0 0 1 2 1 25 38 39 40 39 40 40 39 39 39 39
28 10 6 7 16 21 61 53 4 0 0 0 0 0 29 63
36 0 2 10 3 0 1 35 35 34 16 0 0 0 0 0
19 9 0 0 2 1 3 40 30 57 82 94 102 105 115 119
116 118 115 119 114 107 115 119 123 134 142 141 139 132 118 108
105 98 87 70 67 63 69 67 74 78 66 62 64 83 86 81
47 35 40 65 48 38 40 39 40 40 39 39 28 4 13 13
3 5 2 0 0 0 0 0 0 0 0 0 0 0 6 0
0 0 2 9 1 28 39 40 41 40 39 39 39 39 39 39
0 8 6 19 56 56 58 51 27 21 16 11 9 5 34 62
36 0 0 7 9 0 0 39 40 34 17 0 0 3 0 0
15 9 0 6 15 5 2 42 33 60 88 95 99 102 111 104
96 96 90 76 62 54 68 82 92 113 121 123 123 117 114 104
83 56 42 34 33 35 32 38 47 49 48 57 49 59 84 84
50 37 73 95 65 38 40 40 41 40 40 40 17 24 39 17
20 27 20 19 19 19 18 13 10 13 2 0 0 0 0 0
0 0 7 19 12 32 39 39 41 39 40 39 39 39 39 39
12 38 46 37 60 62 62 53 60 57 45 44 53 45 48 54
42 8 0 6 17 9 1 37 40 34 18 0 2 12 4 0
13 9 0 20 24 11 2 41 31 61 85 92 95 94 90 82
80 68 58 40 34 36 37 60 80 91 106 113 115 113 107 87
62 40 26 21 20 29 43 49 54 57 67 72 70 68 81 86
54 55 107 100 88 41 41 41 40 39 40 28 11 27 25 37
41 42 41 41 41 40 40 39 21 18 1 0 0 0 0 1
1 3 24 30 30 36 40 40 41 39 39 39 38 39 39 38
53 52 61 60 60 63 65 61 34 24 16 17 24 26 28 49
48 39 30 26 36 31 21 44 39 30 17 0 10 26 12 2
12 18 8 24 24 21 8 42 32 65 87 89 77 58 58 54
48 41 36 22 23 22 32 46 68 86 101 101 103 105 101 85
58 36 30 25 27 39 50 66 76 77 80 86 86 82 87 89
60 92 116 101 102 51 40 41 40 40 36 12 35 33 40 40
40 40 40 41 40 40 40 34 10 0 0 0 0 2 35 37
36 35 33 32 35 38 39 39 40 39 39 39 39 39 39 39
49 36 57 51 38 43 48 55 12 0 0 0 11 24 17 51
49 36 30 37 46 52 55 57 46 28 18 0 13 24 12 3
12 47 45 50 48 53 68 52 36 60 85 85 48 45 52 53
58 69 78 77 60 43 42 47 56 70 94 102 97 105 98 73
58 59 59 52 61 69 67 77 68 56 70 83 89 92 89 90
69 108 109 100 105 69 41 41 40 40 16 29 41 40 41 39
40 40 40 40 40 40 40 30 0 0 10 5 0 1 36 38
38 37 35 34 38 39 40 40 40 40 40 40 39 39 38 38
27 3 27 19 2 0 2 45 15 0 3 5 8 20 28 53
50 21 1 4 13 18 49 58 45 28 21 1 6 7 5 1
10 51 51 55 55 74 104 67 42 58 84 79 57 67 78 86
93 91 85 83 76 56 46 56 61 71 94 108 116 122 113 87
74 70 61 65 50 29 43 34 46 57 68 93 93 98 96 94
81 112 110 100 103 90 40 40 40 24 18 40 40 41 40 40
41 40 40 39 40 40 40 31 0 0 7 6 0 0 35 39
38 38 37 37 39 38 38 38 37 38 39 39 39 38 39 39
24 0 0 5 1 0 0 44 17 0 16 43 26 15 21 54
50 16 1 12 33 18 49 56 41 30 29 18 4 6 3 0
9 48 50 53 52 63 107 105 72 58 84 82 73 83 87 83
72 72 74 62 61 73 84 68 61 67 90 120 138 136 119 89
79 71 70 91 76 44 53 70 77 47 66 84 95 103 102 96
83 103 117 101 108 105 41 40 34 11 39 40 40 40 41 40
40 40 40 40 40 39 40 32 0 0 0 1 0 0 32 38
38 37 36 38 39 38 38 39 39 40 39 39 39 38 39 38
10 3 0 12 8 0 0 43 19 7 36 45 13 2 16 56
52 13 2 9 35 34 52 52 33 31 31 13 1 5 1 0
9 47 45 48 48 56 96 115 104 62 89 86 83 93 88 71
56 50 45 46 15 51 91 76 74 77 89 122 142 139 119 93
95 89 79 103 103 84 84 86 78 76 79 95 103 111 105 98
85 100 118 103 112 100 39 39 17 30 41 40 40 41 41 40
40 40 40 39 39 38 37 30 0 0 0 0 0 0 31 39
39 38 39 40 40 39 39 39 39 39 39 39 39 39 38 38
44 46 40 45 18 0 0 42 21 5 26 52 12 0 16 59
53 13 1 2 12 23 53 52 33 34 31 10 2 4 1 0
8 50 45 45 45 56 93 104 116 79 89 92 93 96 95 71
43 65 90 62 69 83 113 87 81 94 95 116 136 140 116 97
104 96 104 105 107 103 98 100 92 93 99 111 116 116 107 98
84 84 114 105 113 81 40 38 13 40 39 39 40 40 40 39
40 40 40 38 20 11 7 6 0 0 0 0 0 0 28 39
39 39 39 39 40 39 39 40 40 39 39 39 39 38 37 38
20 12 15 16 6 1 0 41 19 0 13 32 8 8 17 59
55 13 0 0 0 11 51 52 33 32 33 41 41 35 33 33
34 55 47 47 47 51 93 104 109 99 90 97 102 102 90 78
73 92 90 93 96 100 102 102 101 93 98 115 135 139 117 101
102 95 93 101 102 104 102 102 101 106 115 119 121 119 112 101
85 66 94 109 107 63 40 34 16 39 39 40 40 40 40 41
42 41 40 32 9 19 3 4 0 0 0 1 2 1 24 39
38 40 39 40 39 39 39 38 39 39 38 38 38 38 37 38
13 0 0 0 0 0 0 40 18 0 0 0 1 6 15 58
54 11 0 0 0 7 50 53 32 33 36 59 62 60 61 64
63 62 51 47 48 50 98 108 106 95 90 101 110 113 115 112
100 100 102 100 99 100 98 100 96 96 102 121 144 142 122 101
102 101 103 117 122 122 121 120 120 124 128 124 122 120 112 99
86 83 89 110 100 52 40 33 18 40 39 40 40 40 40 40
40 40 39 40 47 44 23 19 0 0 0 0 0 0 9 26
38 39 39 39 38 38 39 38 39 38 39 38 38 37 38 37
22 0 0 0 0 0 0 37 20 0 0 0 0 0 12 58
53 10 0 0 0 6 50 55 30 33 35 59 64 63 63 64
65 64 36 28 24 29 104 107 112 82 89 102 116 124 125 123
115 108 108 108 112 112 116 117 101 101 106 124 145 141 126 101
103 105 108 120 131 134 135 133 135 136 134 127 123 119 110 97
85 96 94 109 93 42 40 34 17 40 40 40 39 39 40 39
40 40 39 35 34 34 8 2 0 0 0 0 0 0 11 6
17 30 39 39 39 38 39 38 39 38 38 37 37 36 37 37
31 0 0 0 0 0 0 35 19 0 0 0 0 0 11 56
53 9 0 0 0 4 46 50 28 34 30 37 40 39 40 42
43 46 18 1 0 3 96 108 93 53 92 103 115 123 128 133
134 129 127 126 127 127 129 123 107 103 108 128 146 141 124 104
103 105 109 117 133 139 140 138 134 136 135 131 125 118 106 94
82 97 97 109 77 36 40 35 14 39 40 40 39 39 38 37
36 32 30 25 6 3 1 0 0 0 0 0 0 0 3 7
1 18 38 39 39 38 38 38 38 38 37 37 37 37 37 37
26 0 0 0 0 0 0 34 18 0 0 0 0 0 9 56
54 10 0 0 0 3 44 52 28 32 30 40 43 42 41 41
40 42 21 7 0 0 87 109 83 58 91 102 118 127 131 139
142 138 136 137 135 135 134 124 107 105 108 130 143 140 126 104
100 104 108 119 133 138 137 137 135 132 133 128 123 118 101 93
81 89 99 107 60 36 40 37 14 38 39 39 40 39 25 11
11 11 10 6 0 1 0 0 0 0 0 0 1 0 2 7
2 15 39 39 40 39 38 39 38 37 37 37 37 37 37 37
0 0 0 0 0 0 0 33 26 7 8 11 14 17 27 57
53 11 0 0 0 3 48 56 28 31 31 44 48 48 48 48
48 47 21 9 0 0 64 110 84 80 85 98 116 128 132 139
143 140 138 137 137 138 137 126 107 106 109 129 144 140 122 102
101 102 105 116 133 140 140 139 137 131 128 124 118 112 100 92
78 90 100 94 44 37 39 38 19 35 38 35 30 25 11 2
2 3 2 2 1 8 4 3 0 0 0 0 1 0 1 7
4 12 39 39 39 40 39 39 37 37 38 37 37 37 37 36
20 20 19 16 14 13 14 40 49 45 48 49 52 55 55 50
37 18 11 8 5 6 47 53 28 31 32 44 49 49 49 49
51 50 21 5 0 1 44 111 91 89 81 92 112 128 131 136
142 142 142 141 141 142 139 125 107 106 107 125 140 138 115 100
99 102 105 116 135 141 143 141 138 135 122 118 114 104 95 87
73 98 101 77 36 35 31 25 11 10 7 4 3 4 5 6
7 8 9 9 7 5 5 13 3 0 0 0 0 0 1 6
3 11 38 40 39 39 38 38 37 37 36 36 36 36 36 36
56 56 54 54 51 52 53 56 54 51 52 53 54 53 53 51
48 48 46 44 41 38 47 47 41 42 42 44 46 47 47 48
48 48 28 2 0 1 23 105 101 89 80 86 107 121 129 134
137 142 144 145 145 145 142 127 107 104 107 123 137 137 115 100
96 99 104 115 140 145 144 142 139 134 120 112 106 100 90 86
72 92 94 47 27 10 5 5 6 7 8 9 10 10 11 10
11 11 10 10 3 2 3 12 8 0 0 0 0 0 1 5
7 12 34 37 37 36 37 36 37 37 35 37 37 37 36 31
61 60 62 60 59 62 62 52 40 39 49 49 49 49 48 48
48 48 48 47 47 47 46 46 45 45 44 44 45 44 43 43
43 42 37 11 0 1 14 84 112 94 80 85 100 114 123 128
139 144 147 148 148 148 145 125 103 102 111 127 141 141 120 101
95 96 97 112 139 145 145 144 139 133 122 113 103 96 90 81
67 96 72 32 23 11 10 10 11 10 10 10 9 8 6 4
3 2 4 9 8 1 6 7 2 0 0 0 7 2 1 4
14 16 32 38 39 38 38 38 37 37 36 36 37 25 5 6
61 57 60 57 58 61 57 32 29 34 47 49 49 48 48 48
48 47 46 46 46 46 45 45 45 44 44 44 44 44 44 43
43 42 38 6 0 0 2 45 107 108 86 78 96 109 116 126
141 148 149 148 148 147 141 112 102 103 108 131 146 146 129 102
98 94 96 105 124 143 145 144 134 127 122 110 98 92 91 76
64 91 45 29 13 13 11 6 4 2 1 0 0 0 0 0
0 0 6 12 10 7 5 6 0 0 0 0 2 0 1 9
8 10 33 39 39 38 38 38 37 38 37 36 37 21 0 4
29 32 29 27 27 34 31 28 29 34 46 49 44 39 38 37
36 35 34 33 32 31 31 29 28 27 27 26 26 26 26 27
34 40 39 7 0 0 0 5 93 107 104 77 91 102 112 123
139 147 148 147 148 144 125 107 108 107 113 134 149 149 135 109
101 102 99 99 110 133 145 144 130 126 119 108 96 92 90 73
68 73 17 29 18 11 11 0 0 0 0 0 0 0 0 0
0 0 9 12 11 9 7 7 8 8 9 10 10 11 14 18
19 17 26 26 26 24 26 37 38 38 38 37 37 17 0 0
0 3 0 0 0 12 6 27 30 33 46 48 35 9 3 2
2 1 1 1 1 1 0 0 0 0 0 0 0 0 0 1
30 44 40 12 1 1 8 11 46 108 105 75 88 99 108 121
134 144 147 145 140 129 104 100 105 103 112 130 148 148 138 108
99 99 97 100 104 115 140 140 129 128 117 99 96 96 87 72
54 15 11 23 18 12 8 0 0 0 0 0 0 0 0 0
0 0 12 12 12 10 35 19 23 26 29 26 22 28 25 22
23 18 15 38 35 14 17 36 38 38 37 37 36 15 0 0
0 2 1 1 0 14 17 28 29 33 45 48 38 9 0 0
0 0 0 0 0 0 0 0 0 0 0 0 0 0 0 1
30 46 41 38 33 33 40 41 42 82 113 83 85 95 105 118
126 132 136 138 131 110 93 95 87 67 86 113 134 136 119 87
56 45 81 112 107 105 130 139 132 122 111 100 97 94 88 70
42 0 10 19 15 11 5 0 0 0 0 0 0 0 0 0
0 2 13 10 12 11 30 18 23 30 34 52 47 64 65 70
35 18 28 80 86 9 14 35 38 38 22 12 11 4 0 0
0 3 0 6 15 23 23 27 28 32 43 48 41 14 0 0
0 0 1 0 1 1 1 0 0 0 0 0 0 0 1 1
25 47 42 45 46 47 48 41 36 45 99 85 81 89 101 111
120 131 132 133 124 96 97 106 76 41 73 90 109 109 91 77
84 58 92 115 116 108 119 130 127 120 109 100 97 93 86 71
35 0 11 20 13 12 3 0 0 0 0 0 0 0 0 0
0 5 13 12 13 9 25 16 26 32 39 94 74 98 95 99
43 18 65 119 123 55 13 33 38 33 1 0 0 0 0 0
0 3 9 22 24 23 22 26 28 32 42 48 43 19 0 0
0 0 1 1 1 1 2 2 1 1 1 1 0 0 0 0
21 48 41 40 42 45 47 43 35 31 46 64 83 89 96 106
112 121 125 124 118 102 107 106 103 89 94 91 76 69 79 100
92 86 107 114 119 117 123 132 129 122 107 94 99 95 83 74
32 1 14 18 12 11 0 0 0 0 0 0 0 0 0 0
0 8 13 12 15 6 25 25 31 35 34 66 52 58 53 50
33 27 51 60 44 34 23 29 38 30 0 0 0 0 0 0
0 0 13 22 23 24 21 27 28 31 40 47 43 23 0 0
0 0 1 2 1 2 1 1 0 0 1 0 1 0 0 0
18 48 41 38 35 36 41 41 35 31 26 36 84 91 94 102
109 116 118 118 119 116 111 101 103 100 95 94 76 62 88 97
98 100 107 112 117 124 120 129 128 124 111 99 99 90 81 73
31 1 9 18 12 10 0 0 0 0 0 0 0 0 0 0
0 11 13 13 17 3 6 31 36 39 26 28 28 24 20 25
24 25 25 26 24 25 22 27 38 36 9 0 0 0 0 0
0 0 10 22 23 24 22 26 28 31 40 47 44 26 1 0
0 0 0 0 0 1 1 1 1 0 1 0 0 0 0 0
14 47 41 32 12 12 15 18 18 29 31 39 82 88 95 101
108 111 118 124 121 119 115 111 108 110 114 113 108 108 114 120
118 114 115 118 124 131 131 131 129 121 107 101 97 93 79 73
22 0 6 14 12 7 0 0 0 0 0 0 0 0 0 0
1 13 12 13 14 0 8 29 34 37 25 28 24 24 17 18
21 27 26 26 25 25 23 27 39 38 27 3 0 0 0 0
0 0 10 23 23 25 22 26 27 30 37 47 45 28 2 0
0 0 0 0 0 0 1 1 1 0 0 0 0 0 0 0
10 46 41 31 2 0 0 2 11 32 31 40 77 90 93 100
103 115 121 124 128 122 121 121 123 125 128 126 123 122 129 135
128 124 122 123 125 125 129 132 129 116 106 97 93 94 80 67
13 0 1 12 13 4 0 0 0 0 0 0 0 0 0 0
3 13 11 13 8 0 1 4 19 38 26 27 17 18 17 19
21 27 27 26 25 24 21 21 33 15 16 0 0 0 0 0
0 0 12 22 23 24 22 26 28 30 37 47 45 31 3 0
0 0 0 0 0 0 0 0 0 0 0 0 0 0 0 0
7 44 42 32 2 0 0 0 6 35 29 37 66 88 88 98
103 110 120 124 124 119 120 125 129 125 130 130 124 127 134 128
127 123 121 122 124 115 120 126 123 112 104 95 91 90 79 62
4 0 0 10 14 1 0 0 0 0 0 0 0 0 0 0
6 13 12 13 5 0 0 0 21 35 26 26 15 21 18 19
23 28 27 26 24 23 20 13 8 0 0 10 0 0 0 0
1 0 13 23 23 24 22 25 27 29 35 46 44 31 4 0
0 0 0 0 1 0 0 1 1 1 0 0 0 0 0 0
4 42 42 33 3 0 0 0 5 37 28 36 60 88 92 98
104 111 120 120 117 109 112 121 126 129 140 137 129 129 133 127
130 127 117 117 115 108 121 123 119 104 96 91 90 86 75 56
21 17 9 5 10 0 0 0 0 0 0 0 0 0 0 0
9 12 12 13 3 0 6 7 30 35 27 26 14 20 17 17
23 27 26 26 24 23 21 1 0 0 0 0 0 0 0 0
2 0 11 22 22 23 22 25 27 29 35 46 45 33 6 0
0 0 0 0 0 0 0 0 1 0 0 0 0 0 0 0
3 39 42 34 4 0 0 0 7 36 29 36 50 85 95 96
99 110 123 123 110 86 83 84 88 99 111 122 125 128 127 121
113 103 91 97 96 96 111 121 116 104 95 90 89 87 71 49
28 20 6 9 7 0 0 0 0 0 0 0 0 0 0 0
12 12 13 13 1 2 16 11 36 33 27 24 10 17 18 17
25 27 26 26 25 24 23 1 0 1 11 0 0 0 0 0
20 11 18 21 21 23 21 24 26 28 33 46 44 34 6 0
0 0 0 0 0 0 1 0 0 0 0 0 0 0 0 0
1 36 42 34 6 0 0 0 7 36 29 38 41 75 93 100
95 106 125 125 112 72 52 57 66 68 75 88 91 89 87 81
71 67 64 59 55 74 104 115 116 106 92 91 90 82 67 36
27 20 13 13 5 0 0 0 0 0 0 0 0 0 0 2
14 12 13 11 0 6 15 9 39 32 24 11 3 12 17 15
25 25 25 25 25 25 22 1 0 5 11 0 0 0 0 0
53 38 28 20 20 21 20 23 26 28 32 44 44 34 8 0
0 0 0 0 0 0 0 0 0 0 0 0 0 0 0 0
1 35 43 34 9 0 1 1 3 34 27 37 32 60 90 98
92 97 123 124 123 106 83 83 95 99 90 90 92 91 87 88
98 106 100 89 87 104 116 124 116 97 87 87 84 77 60 41
43 31 13 12 2 0 0 0 0 0 0 0 0 0 0 4
13 11 14 8 0 2 5 13 39 28 17 6 1 10 14 15
24 26 26 25 25 26 24 5 6 10 10 7 6 4 3 2
27 5 9 18 20 21 20 22 26 27 31 44 44 35 9 0
0 0 0 0 0 0 0 0 0 0 0 0 0 0 0 0
0 32 42 34 13 0 3 6 2 34 30 39 33 49 78 92
92 91 113 131 135 119 95 91 85 109 120 121 123 122 122 121
116 101 93 89 94 104 123 122 108 93 85 84 82 66 44 42
44 24 12 10 0 0 0 0 0 0 0 0 0 0 0 8
12 12 13 5 0 30 29 24 38 27 16 6 1 10 14 15
25 26 25 24 25 26 25 7 9 11 11 7 4 3 2 1
23 0 1 18 20 21 19 21 25 26 30 43 44 36 11 0
0 0 0 0 0 0 0 0 0 0 0 0 0 0 0 0
0 29 43 35 16 0 5 17 6 34 30 40 36 30 72 83
90 90 103 123 134 129 103 102 94 91 103 112 108 107 108 103
94 89 94 94 95 110 120 114 99 85 79 84 74 54 31 43
45 19 12 9 0 0 0 0 0 0 0 0 0 0 0 11
12 13 14 2 8 72 41 24 37 27 16 4 8 14 14 16
25 27 26 25 26 27 26 5 0 0 0 0 0 0 0 0
25 0 0 17 19 20 18 20 24 25 29 42 43 36 11 0
0 0 0 0 0 0 0 0 0 0 0 0 0 0 0 0
0 27 43 35 23 14 19 28 26 40 34 40 33 21 57 74
82 88 92 115 127 128 117 99 102 103 105 103 104 98 97 97
102 103 97 90 100 113 116 107 92 82 79 80 63 44 19 34
39 16 12 5 0 0 0 0 0 0 0 0 0 0 1 12
12 13 13 0 10 52 22 30 34 26 21 14 10 18 15 20
28 28 26 25 25 26 24 5 0 0 0 0 0 0 0 1
28 0 0 16 19 20 19 19 23 24 28 40 43 36 12 0
0 0 0 0 0 0 0 0 0 0 0 0 0 0 0 0
0 25 43 35 42 50 52 52 52 54 40 39 23 15 38 67
79 84 87 100 115 124 120 111 101 96 92 86 82 82 80 91
97 95 94 100 107 108 104 99 89 81 77 72 52 56 10 38
33 14 12 2 0 0 0 0 0 0 0 0 0 0 3 13
12 13 10 0 0 13 15 36 33 29 23 17 12 18 16 22
28 28 25 25 26 25 23 6 0 0 0 0 0 0 0 7
36 11 6 16 18 18 18 17 21 24 27 40 42 36 12 0
0 0 0 0 0 0 0 0 0 0 0 0 0 0 0 0
0 24 42 34 44 56 56 54 53 53 46 29 13 22 15 53
73 78 82 88 103 115 119 116 115 108 101 98 98 94 94 95
97 102 106 105 104 99 98 93 87 81 77 63 62 62 2 33
25 12 12 4 3 3 3 3 3 3 4 4 4 4 9 14
12 14 6 0 0 4 13 41 30 28 25 16 12 18 17 23
28 28 25 24 25 24 24 6 0 0 0 0 0 0 0 2
41 39 35 29 16 16 17 16 21 22 26 38 41 36 12 0
0 0 0 0 0 0 0 0 0 0 0 0 0 0 0 0
0 21 42 33 35 37 35 32 31 30 26 16 15 14 3 34
62 75 80 81 87 106 112 108 110 116 116 114 114 106 107 107
107 104 104 102 104 100 96 90 82 77 71 55 81 65 0 5
17 12 12 11 10 11 11 11 11 11 11 12 11 11 13 12
12 14 4 0 0 4 19 40 29 28 25 16 12 18 17 23
28 26 25 24 25 23 23 6 0 0 0 0 0 0 0 0
23 10 7 9 8 9 10 12 20 23 26 38 42 36 13 0
0 0 0 0 0 0 0 0 0 0 0 0 0 0 0 0
0 22 41 32 25 18 18 19 18 17 15 13 11 3 2 37
69 68 77 78 86 96 107 111 112 117 120 119 119 114 115 114
117 108 107 104 109 104 94 86 74 68 57 73 91 68 0 0
2 11 12 12 11 11 12 12 11 12 12 11 12 12 13 12
14 16 1 0 5 7 25 38 29 28 23 15 12 18 18 25
29 26 25 26 25 24 24 6 0 0 0 0 0 0 0 0
26 2 0 3 8 8 8 10 20 21 26 37 41 36 14 0
0 0 0 0 0 0 0 0 0 0 0 0 0 0 0 0
0 20 40 33 27 22 21 20 15 8 6 2 1 0 3 31
91 64 68 68 79 94 106 110 117 119 121 120 119 107 112 118
117 115 115 116 111 103 93 78 71 61 65 96 95 69 0 0
0 1 4 8 12 13 22 23 13 12 12 12 13 15 13 7
6 12 0 0 20 26 34 35 29 28 21 14 12 15 19 25
28 26 25 26 26 25 24 7 0 0 0 0 0 0 0 0
26 4 0 1 7 8 12 13 20 21 25 36 40 36 15 0
0 0 0 0 0 0 0 0 0 0 0 0 0 0 0 0
0 24 43 31 28 26 25 24 12 1 0 0 5 0 6 23
93 85 65 69 72 89 104 110 113 119 115 116 120 116 117 118
112 109 116 118 112 93 85 73 61 55 94 100 93 70 0 0
0 0 0 0 2 20 87 97 69 64 56 30 40 38 36 34
16 0 0 23 47 17 38 34 30 28 16 8 13 12 18 24
28 28 27 26 27 26 24 8 0 0 0 0 0 0 10 0
26 4 0 0 1 8 15 16 19 21 24 34 40 35 15 0
0 0 0 0 1 2 3 5 7 8 10 12 14 16 18 20
23 31 36 31 28 27 26 26 18 4 0 6 9 0 8 11
90 95 81 56 63 83 96 107 111 113 109 107 120 113 111 115
111 108 113 111 104 88 76 65 53 81 96 97 93 76 5 0
0 0 0 0 0 0 15 61 99 121 98 29 9 9 10 13
29 27 3 97 143 32 41 31 30 28 18 17 13 9 18 24
27 27 27 26 26 25 24 8 0 0 0 0 0 1 18 0
17 1 0 1 3 4 14 15 19 20 24 33 40 37 27 18
19 23 24 26 27 30 31 32 33 32 33 33 33 33 32 33
32 31 30 30 29 27 26 25 20 12 8 9 3 4 4 7
89 95 96 76 59 73 89 100 104 108 112 109 114 110 104 109
108 104 109 104 95 82 68 54 71 96 96 98 95 81 9 0
0 0 0 0 1 1 0 1 1 13 46 19 7 9 7 7
25 23 37 116 136 25 43 30 28 26 13 10 2 5 18 21
20 21 24 25 25 25 25 10 0 0 0 0 0 12 18 0
9 8 0 2 5 1 13 14 18 19 23 33 40 39 40 38
34 38 39 39 37 37 36 36 36 35 34 34 34 33 33 31
31 30 30 30 28 28 27 26 23 16 6 0 0 6 2 5
86 99 98 96 73 58 78 92 101 103 107 110 111 108 104 107
104 100 100 95 84 74 54 61 93 97 96 99 96 85 15 0
0 0 0 2 0 0 0 0 0 0 0 2 5 5 3 10
27 0 13 58 42 21 45 24 7 4 0 0 3 0 0 4
22 29 24 22 19 19 25 11 0 0 0 0 0 20 10 0
13 10 1 2 1 0 5 8 14 18 22 32 41 40 40 39
31 37 38 38 37 37 36 36 38 38 25 21 27 30 27 16
27 27 26 27 28 28 27 17 4 0 0 0 1 6 0 1
77 100 97 98 95 63 60 84 95 99 103 105 108 101 98 102
102 96 94 86 76 54 54 84 98 100 97 101 96 89 29 0
0 0 0 0 3 0 0 0 0 0 0 0 0 3 4 15
35 20 24 54 38 44 46 21 2 0 0 0 0 0 0 0
12 27 11 19 17 15 23 12 0 0 0 0 0 5 1 0
3 0 0 0 0 0 3 8 14 16 20 31 40 40 39 38
34 34 32 34 32 31 32 49 66 36 1 0 1 4 3 0
7 15 9 15 15 13 6 0 0 0 1 2 8 7 0 0
67 97 101 98 97 90 64 60 80 89 95 95 97 92 86 93
92 89 82 68 53 46 78 93 97 102 100 101 98 90 47 0
0 0 0 0 3 0 0 0 0 0 0 0 0 0 0 1
10 43 87 94 97 96 62 31 27 0 0 0 0 0 0 0
2 22 6 17 15 7 9 12 13 5 0 0 0 0 0 0
0 0 0 0 0 0 0 2 3 7 10 13 19 17 15 13
12 10 10 12 17 20 45 78 49 5 0 0 0 0 0 0
2 4 3 2 2 0 0 0 0 0 1 1 5 3 0 0
48 98 102 103 99 97 94 66 52 64 82 77 78 73 67 73
73 70 59 51 59 72 87 96 97 103 104 103 99 92 65 1
0 0 0 0 0 0 0 0 0 0 0 0 0 0 0 0
0 2 9 34 70 96 63 19 25 0 0 0 0 0 0 0
0 13 8 16 13 13 15 1 5 1 0 0 0 0 0 0
0 0 0 0 0 0 0 0 0 0 0 0 0 0 0 0
3 6 5 6 23 29 70 65 14 0 0 0 0 0 1 3
3 9 40 18 0 0 0 0 0 5 14 13 3 0 0 0
27 98 102 103 101 98 95 89 77 58 53 49 45 44 35 30
46 43 65 76 77 79 90 98 100 104 105 103 99 94 75 9
0 0 0 0 0 0 0 0 1 0 0 0 0 2 3 1
0 0 0 1 8 19 27 1 1 0 0 0 2 0 4 3
3 7 14 8 0 0 0 0 0 0 0 0 0 0 0 0
5 0 0 0 0 0 0 0 0 4 1 0 0 0 0 1
11 16 13 12 21 48 70 34 3 0 0 0 0 2 3 4
15 59 28 0 0 0 0 1 5 11 12 1 1 0 0 0
21 95 102 103 104 101 98 94 86 84 82 76 63 43 22 27
57 82 84 84 85 86 96 101 104 106 103 101 100 95 82 18
0 0 0 0 0 0 0 0 0 1 0 0 0 1 2 0
0 1 2 1 0 0 4 6 11 19 16 15 11 1 4 2
0 0 0 0 0 0 0 0 0 0 0 0 0 0 0 0
18 5 0 0 0 0 0 0 1 6 8 6 5 1 0 0
7 16 16 12 13 65 55 5 0 9 15 0 3 5 9 8
12 40 3 0 0 0 1 0 1 0 0 0 3 0 0 0
23 91 102 104 105 104 100 95 91 87 83 80 85 88 96 99
98 91 90 88 88 91 100 97 106 106 104 100 100 95 88 25
0 0 0 0 0 0 0 0 0 0 0 0 0 1 1 0
2 1 1 2 1 1 0 0 1 3 3 0 0 0 0 0
0 0 0 0 0 0 0 0 0 0 0 0 0 0 0 0
19 2 0 0 0 0 5 5 4 6 11 9 5 1 0 2
11 24 22 10 20 74 40 11 26 31 7 2 2 7 9 4
5 10 4 1 0 0 0 0 0 0 0 0 2 0 0 0
24 87 98 104 105 103 102 99 94 91 90 90 97 110 116 114
108 99 95 91 91 96 104 105 107 106 103 102 100 96 91 33
0 0 0 0 0 1 0 0 0 1 0 0 0 0 3 2
0 13 13 45 19 0 0 0 0 0 2 3 2 1 0 2
0 0 0 1 0 0 0 0 0 0 0 0 0 0 0 0
1 0 0 0 1 2 12 17 14 10 9 9 10 13 18 22
23 20 18 2 30 64 18 18 20 4 2 2 4 5 7 8
5 0 0 0 0 1 0 0 0 0 0 0 1 0 0 0
21 87 98 103 105 106 102 103 100 95 95 99 105 109 110 108
103 101 98 96 95 105 115 115 113 108 105 102 100 98 95 38
0 0 0 0 0 2 0 0 0 0 0 0 1 2 3 0
0 38 69 62 18 0 0 0 0 0 0 0 1 1 0 0
22 38 40 67 72 76 17 0 0 0 0 0 0 0 0 0
0 0 0 0 1 0 12 14 11 5 6 7 8 13 23 24
18 10 5 0 44 63 8 2 4 3 5 5 3 3 2 0
0 0 0 0 2 3 0 0 0 0 0 0 4 0 0 0
19 87 95 103 106 109 115 114 109 104 100 102 103 103 103 101
102 102 101 98 101 116 126 127 119 113 109 105 104 100 98 39
0 0 2 0 0 2 0 0 0 0 2 1 3 6 5 0
0 23 88 86 3 0 0 0 0 0 0 0 0 3 4 0
4 31 93 134 115 114 38 0 0 0 2 0 0 0 0 0
0 0 0 0 0 0 8 7 4 2 2 2 4 11 22 23
8 0 0 0 49 41 5 5 5 3 1 0 0 0 0 0
0 0 0 0 5 1 1 0 0 0 0 0 3 0 0 0
10 89 96 101 109 116 122 125 120 107 105 105 105 105 105 104
105 106 104 102 107 123 129 126 122 116 111 107 106 106 95 15
0 0 3 1 0 1 0 0 0 0 2 0 0 0 2 0
0 4 6 8 1 0 0 0 0 0 0 0 0 1 5 1
0 0 3 39 51 63 38 1 16 4 19 2 0 0 0 0
0 0 0 0 0 1 3 2 1 2 4 4 5 12 23 22
5 0 0 2 15 7 5 1 0 0 0 0 0 0 0 0
0 0 0 1 1 2 2 0 0 0 0 1 2 0 0 0
6 80 99 103 109 118 126 131 127 116 106 108 110 107 108 110
109 107 106 106 117 125 127 124 120 115 111 110 112 112 54 1
0 0 3 4 0 2 0 0 1 0 2 1 0 0 3 1
0 0 3 0 0 0 0 0 0 0 0 0 0 0 2 3
0 0 0 0 53 83 30 2 12 3 10 2 0 0 0 0
0 0 1 0 0 0 0 2 3 6 8 6 6 16 25 19
8 8 9 5 0 0 0 0 0 0 0 0 0 0 0 2
4 0 1 0 1 1 0 0 0 0 0 1 3 1 1 0
7 48 100 102 107 115 125 128 132 123 113 109 110 111 112 109
109 110 111 116 118 123 124 124 118 114 111 112 115 82 10 0
0 0 2 2 0 2 0 0 0 0 0 3 0 1 5 4
1 0 6 0 0 0 0 0 1 0 0 0 1 0 1 3
2 0 0 0 0 38 17 0 3 1 0 0 0 0 0 0
0 1 0 0 0 0 4 9 6 11 13 11 11 23 29 21
9 2 0 0 0 0 0 0 0 0 0 0 0 0 0 0
5 0 2 0 0 0 0 0 0 0 0 0 2 3 1 0
10 15 89 102 105 111 117 125 129 126 119 114 117 117 118 118
119 120 117 115 117 124 125 121 116 114 112 115 98 22 1 0
0 0 1 1 0 2 0 0 0 0 0 4 0 0 5 7
9 7 0 3 3 4 2 4 5 5 6 9 6 6 6 2
1 0 0 0 0 0 0 0 1 0 5 0 0 0 0 0
0 0 3 0 0 0 20 18 6 11 13 11 26 38 24 5
0 0 0 0 0 0 1 0 0 0 0 0 0 3 2 0
2 2 0 0 0 0 0 0 0 0 0 0 2 2 1 0
5 19 44 99 105 108 115 123 129 128 119 117 119 121 120 121
121 117 114 114 121 126 125 119 116 113 115 107 39 3 1 0
0 0 2 2 0 1 2 0 0 1 0 3 1 1 5 6
6 4 1 0 0 0 0 0 0 0 0 0 0 0 2 2
3 2 0 0 0 0 0 5 2 0 7 6 0 0 0 0
0 0 0 0 0 0 18 20 6 11 11 7 17 26 4 0
0 0 0 0 0 0 0 6 0 0 0 2 4 4 3 0
1 3 0 0 0 0 0 0 1 4 0 0 3 1 0 0
0 13 28 55 103 107 111 117 125 127 121 116 115 115 115 114
111 110 111 115 122 125 123 118 113 114 114 65 15 0 0 0
0 0 4 3 0 0 2 0 0 0 2 2 2 2 3 5
2 1 1 0 0 0 0 0 0 0 0 0 2 2 0 0
0 0 4 2 0 0 0 2 1 0 0 1 0 0 0 0
0 0 0 0 0 0 13 25 15 16 14 6 4 8 0 0
0 0 0 0 0 0 0 3 1 0 0 2 5 4 2 1
3 0 0 0 0 0 0 0 3 3 0 0 5 2 0 0
0 2 23 31 59 103 108 115 121 125 123 119 115 111 110 109
108 110 114 119 124 123 122 116 113 113 84 36 4 0 0 0
0 0 4 3 0 0 2 0 0 0 2 2 5 0 2 3
3 3 2 0 0 3 1 0 1 1 4 8 14 14 5 0
0 0 0 0 1 0 0 0 0 0 0 0 0 0 0 0
10 0 0 0 0 0 7 24 29 18 8 1 3 5 0 0
0 0 0 1 0 0 0 0 2 0 0 1 4 3 0 3
1 0 1 0 0 0 0 0 4 7 0 0 4 1 0 0
0 0 6 32 33 57 101 109 117 122 122 120 118 113 110 108
110 112 116 121 123 123 120 115 112 92 49 21 0 0 0 0
0 0 4 4 0 0 2 0 0 0 1 0 5 0 0 2
5 3 1 1 2 1 0 1 5 8 10 15 19 21 5 0
0 0 0 0 0 0 4 2 0 0 0 0 0 0 0 0
16 3 1 0 0 0 0 2 11 0 0 0 4 1 0 0
0 0 0 2 0 0 0 0 2 0 0 0 3 0 1 4
2 3 0 0 0 0 0 0 2 7 0 0 2 2 0 0
0 0 0 11 36 34 54 102 114 121 123 120 118 116 114 112
112 114 120 123 124 122 117 114 104 57 41 7 0 0 0 0
0 0 4 2 0 0 2 0 0 0 2 1 6 2 0 1
2 1 1 3 3 0 0 6 9 13 21 19 26 21 3 0
0 0 0 0 0 0 0 6 1 0 0 0 0 0 0 0
19 0 7 0 0 0 0 0 2 0 0 0 2 0 0 0
0 0 0 1 0 0 0 0 1 1 0 0 1 0 5 2
2 5 1 0 0 0 0 0 3 9 1 0 1 4 0 0
0 0 0 0 9 30 33 52 101 119 124 122 119 117 115 115
117 119 122 124 124 121 117 109 69 43 10 0 0 0 0 0
0 0 4 5 0 0 0 1 0 0 0 2 3 2 0 0
1 0 2 4 2 0 2 7 13 17 20 20 18 11 0 0
0 2 0 0 0 0 0 0 2 0 0 0 0 0 0 0
8 2 9 0 0 0 0 0 14 0 0 0 1 0 0 0
0 0 0 1 0 0 2 0 1 1 0 0 0 2 5 3
3 4 3 0 0 0 0 0 4 13 3 0 2 2 0 0
0 0 0 0 0 4 22 35 52 94 121 124 122 118 117 117
119 120 122 124 124 120 110 70 29 5 0 0 0 0 0 0
0 0 3 4 0 0 0 0 0 0 0 2 1 4 0 0
0 1 4 2 0 0 5 13 17 19 20 18 14 9 2 0
2 9 1 0 0 0 0 0 0 0 0 0 0 0 0 0
0 0 0 0 0 0 0 0 11 8 0 0 0 0 0 0
0 0 0 1 0 0 1 1 1 1 0 0 0 5 3 5
3 4 7 0 0 0 0 0 10 11 2 0 0 4 0 0
0 0 0 0 0 0 0 9 23 46 77 107 119 119 119 121
122 122 122 108 88 60 27 9 1 0 0 0 0 0 0 0
0 0 4 1 0 0 0 1 0 0 1 1 0 5 0 0
1 6 6 0 0 4 11 20 24 25 22 17 16 8 0 2
5 17 8 0 0 0 0 0 0 0 0 0 1 0 0 0
0 0 0 0 0 0 0 0 0 0 0 0 0 0 0 0
0 0 0 0 0 0 1 1 0 1 0 0 1 9 4 5
5 5 7 0 0 0 0 0 5 2 0 0 0 2 0 0
0 0 2 0 0 0 0 2 1 5 8 14 21 29 35 35
28 21 15 11 8 4 3 2 1 0 0 0 0 0 0 0
0 0 6 0 0 0 0 0 0 0 1 2 0 1 1 0
1 5 2 0 2 9 18 24 30 28 21 16 13 11 3 3
4 8 9 1 0 0 2 4 0 3 4 0 0 0 0 0
0 0 0 0 0 0 0 0 0 0 0 0 0 0 0 0
0 0 0 0 0 0 2 1 0 0 0 0 5 6 4 6
4 7 7 0 0 0 0 0 2 0 0 0 0 2 1 0
0 0 5 0 0 0 0 1 0 1 4 4 5 5 4 4
5 5 5 4 4 3 2 1 1 0 0 0 0 0 0 0
0 0 8 0 0 0 0 0 1 0 0 0 1 1 1 0
0 5 0 0 7 14 22 28 31 26 21 13 18 9 2 1
4 7 6 1 0 0 7 5 3 1 0 0 2 0 0 0
0 0 0 0 0 0 0 0 0 0 0 0 0 0 0 0
0 0 0 0 0 0 1 2 1 0 0 0 10 3 6 4
5 8 6 1 0 0 0 0 1 0 1 0 0 0 2 0
0 1 8 4 1 0 0 0 0 0 1 3 5 4 4 4
4 4 4 2 2 2 1 1 0 0 0 0 1 0 0 0
0 0 9 0 0 0 0 0 0 0 0 0 0 1 1 0
0 0 0 3 11 19 29 36 28 26 16 14 15 7 1 3
4 2 4 0 0 0 8 2 0 0 0 0 0 0 0 0
0 0 0 0 0 0 0 0 0 0 0 0 0 0 0 0
0 0 0 1 0 0 1 1 0 0 0 3 10 3 4 1
4 7 4 3 1 0 0 0 0 0 0 0 0 0 4 0
0 0 9 5 4 1 0 0 0 0 0 1 2 2 1 1
1 3 4 2 2 1 1 0 0 0 0 1 0 0 0 0
0 0 13 0 0 0 0 0 2 0 0 0 0 1 0 0
2 0 0 8 17 23 30 41 30 25 18 20 16 6 0 3
4 1 1 0 0 0 4 4 3 0 0 0 0 0 0 0
0 0 1 0 0 0 0 0 0 0 0 0 0 1 0 1
0 0 0 0 0 0 2 2 1 0 0 10 5 5 3 0
4 6 3 4 4 1 0 0 0 0 0 1 0 2 12 0
0 0 7 7 3 3 1 0 0 0 0 0 1 0 2 1
0 0 1 0 1 0 1 0 0 0 1 1 0 0 0 0
0 0 16 0 2 0 0 0 1 0 0 0 0 0 0 0
0 0 3 12 22 27 33 42 29 18 15 19 10 3 0 3
4 1 0 0 0 0 7 6 4 0 0 0 0 0 0 0
0 0 2 4 0 0 0 0 0 0 0 0 0 1 1 0
0 0 0 0 0 0 0 2 1 0 3 12 1 4 0 1
5 6 4 3 5 5 1 0 0 0 0 1 0 4 26 0
0 0 5 8 3 3 3 2 1 2 0 0 0 0 0 0
1 1 0 0 0 0 0 0 0 0 1 0 0 0 0 0
0 1 17 0 2 0 0 0 1 1 0 0 0 1 0 0
0 0 5 15 27 41 44 35 20 19 18 17 9 1 0 2
3 1 0 0 0 0 9 7 3 0 0 0 0 0 0 0
1 4 0 0 0 0 0 0 0 0 0 0 0 5 3 1
0 0 0 0 0 0 0 2 0 0 11 9 1 3 0 1
5 6 4 4 4 5 1 0 0 0 0 1 0 16 31 0
0 0 2 6 6 2 1 1 4 1 2 1 1 0 0 1
1 1 0 0 0 1 1 1 1 0 0 0 0 0 0 0
0 6 15 0 1 0 0 0 0 2 0 0 0 0 0 4
3 0 5 18 33 42 36 29 17 21 22 21 8 2 1 5
4 0 0 0 0 2 9 12 4 0 0 0 0 0 0 0
0 21 2 0 0 0 0 0 0 0 0 0 0 9 3 0
0 0 0 0 0 0 0 1 0 0 23 3 6 1 0 3
5 6 6 3 4 4 0 0 0 0 0 2 0 18 27 0
0 0 0 5 7 5 1 1 1 3 5 4 3 1 1 0
2 1 5 4 5 6 5 3 2 0 0 0 0 0 0 0
0 5 11 1 0 0 0 0 0 5 0 0 0 0 1 3
6 0 7 20 31 37 34 29 24 20 26 16 8 0 0 2
4 0 0 0 0 6 5 13 12 0 0 0 0 0 0 0
0 20 3 0 0 0 0 0 0 0 0 0 0 8 3 1
0 0 0 0 0 0 0 1 0 9 28 3 7 0 0 1
4 5 6 2 3 3 0 0 0 0 1 2 0 18 27 0
0 0 0 4 5 6 4 3 0 1 1 1 3 4 3 4
2 3 7 5 4 5 6 3 0 0 0 0 0 0 0 0
0 3 4 0 2 0 0 0 0 8 4 0 0 0 4 1
15 4 14 27 36 47 23 17 23 28 27 14 7 0 0 4
8 3 0 0 1 13 1 12 14 2 0 0 0 0 0 0
0 9 2 0 0 0 0 0 0 0 1 0 0 4 6 0
0 0 0 0 0 0 0 0 0 23 27 8 7 0 0 1
2 4 7 2 4 4 1 0 0 0 1 2 1 34 12 0
0 0 0 2 6 6 6 7 5 1 0 2 3 5 6 7
6 6 5 3 3 3 4 1 0 0 0 0 0 0 0 0
0 0 1 0 1 0 0 0 0 9 6 0 0 0 3 8
12 11 14 22 35 47 23 18 25 34 24 15 4 0 0 5
5 1 0 0 0 13 0 19 16 1 0 0 0 0 0 0
8 7 0 0 0 0 0 0 0 0 2 0 0 3 11 1
0 0 0 0 0 0 0 0 0 28 10 10 4 0 1 5
10 10 8 3 3 4 1 0 0 0 1 2 12 34 0 0
0 0 0 0 5 6 8 6 5 2 1 0 2 3 2 1
1 1 0 3 6 7 5 0 0 0 0 0 0 0 0 0
0 0 3 3 1 3 1 0 1 9 10 1 0 0 0 9
13 21 16 21 34 46 27 17 34 40 23 11 2 0 0 5
5 2 1 0 2 14 3 14 7 1 0 0 0 1 0 0
