P2
128 120
159
66 68 72 75 74 72 54 53 53 53 52 52 52 52 52 51
51 50 50 50 49 49 49 48 47 47 47 46 46 45 44 44
43 42 42 42 41 40 40 39 39 38 37 37 36 35 35 35
34 34 33 32 32 31 31 31 30 30 29 29 29 30 31 34
36 36 36 30 23 20 30 33 31 30 30 29 29 29 26 27
26 22 27 27 30 30 30 30 31 30 31 31 32 32 32 32
33 32 33 33 33 32 33 33 33 34 35 35 36 36 36 36
37 37 37 38 38 39 39 39 39 39 39 39 40 39 40 40
61 61 62 62 72 77 63 58 54 52 52 51 51 52 51 51
50 50 50 49 49 48 48 47 47 46 46 46 45 45 44 44
43 43 42 42 41 40 40 39 39 38 37 36 36 36 36 35
34 34 34 33 32 32 32 31 31 30 30 29 29 30 31 34
36 37 36 31 25 26 29 34 32 31 31 30 29 29 26 27
26 23 28 29 30 30 30 31 31 31 31 31 31 31 32 32
32 32 33 33 34 34 34 35 34 35 35 35 35 36 37 37
38 38 38 39 39 39 40 40 39 40 39 39 39 39 39 39
5 4 3 3 42 74 70 74 71 63 55 53 53 52 52 52
51 50 50 49 49 49 49 48 48 47 47 47 46 45 45 44
43 43 42 42 41 41 41 40 39 39 39 38 37 36 36 36
35 35 35 34 34 33 33 32 32 31 31 31 30 31 32 36
37 36 36 32 25 28 28 34 33 32 31 31 30 31 28 28
28 23 29 29 31 31 31 31 32 32 32 33 32 31 32 32
32 33 34 34 35 35 35 35 35 35 36 36 36 37 38 38
38 38 39 39 39 39 40 40 40 40 40 41 40 40 41 40
17 4 0 0 33 71 64 65 49 52 54 56 65 67 68 65
59 51 50 50 50 49 49 48 48 47 47 46 47 46 45 45
44 43 43 42 42 42 41 40 39 40 39 37 37 37 37 37
36 35 35 35 35 34 34 33 32 32 31 31 30 31 32 36
38 38 38 33 27 30 26 35 33 32 31 31 30 31 28 28
28 24 30 30 32 33 33 32 32 33 32 33 33 32 33 33
34 34 35 35 35 35 36 36 36 36 36 36 36 37 37 38
38 38 39 39 40 40 40 40 40 40 40 41 41 41 40 40
15 7 0 0 26 71 64 60 10 3 13 25 38 49 57 64
67 54 50 50 49 50 48 48 49 47 48 47 46 46 46 44
44 44 43 43 42 42 42 41 40 40 40 39 39 38 37 37
37 36 35 35 34 34 33 32 32 32 32 32 32 32 34 37
39 39 39 34 27 32 26 35 34 33 32 32 31 32 30 30
30 25 30 30 32 32 32 32 33 33 33 34 34 34 34 34
34 35 35 35 35 36 36 36 37 36 37 37 38 38 37 38
39 39 39 40 40 40 41 39 40 40 41 41 41 41 41 41
9 4 0 0 20 70 66 59 9 0 0 0 0 0 4 40
67 54 50 50 49 49 49 49 48 48 47 47 46 45 46 45
45 44 44 43 43 42 42 41 41 40 40 39 38 38 38 37
37 36 36 36 35 35 35 34 33 33 32 32 32 33 33 37
39 39 39 35 28 32 27 36 35 34 34 33 32 33 30 30
30 25 30 29 33 34 34 34 35 34 34 34 34 34 35 35
34 35 36 35 36 36 37 37 37 37 38 39 38 38 38 38
39 39 40 40 40 40 42 40 40 41 42 41 42 40 40 39
13 12 0 6 13 67 66 57 10 0 0 0 0 0 0 35
68 55 50 50 50 50 49 48 48 48 48 47 47 46 46 45
45 43 44 43 43 42 42 41 41 40 40 40 40 39 39 38
37 37 36 36 36 34 34 34 34 33 33 33 33 33 34 38
40 41 40 36 28 33 28 35 35 35 34 32 32 34 31 31
31 27 32 32 34 34 34 34 35 34 34 35 35 35 35 36
36 36 36 37 36 36 37 37 37 37 37 37 38 38 39 39
39 40 40 40 41 40 42 41 40 39 39 40 40 41 40 41
2 4 0 6 9 66 65 58 11 0 5 14 2 0 0 33
67 55 51 51 50 50 49 49 49 49 48 47 47 46 46 45
45 44 44 44 43 43 42 42 41 41 40 39 39 39 38 38
38 37 37 37 37 36 36 36 35 34 34 34 34 33 35 38
41 41 40 37 29 34 30 35 36 36 35 34 33 35 31 31
32 27 32 32 35 35 35 35 36 35 36 35 35 35 36 36
36 36 36 37 37 37 37 38 38 38 39 38 39 38 40 40
40 40 40 39 39 39 38 40 40 40 41 42 43 41 42 41
1 5 0 5 8 64 68 60 11 2 16 19 6 0 0 31
66 55 50 50 49 49 49 48 49 48 47 47 47 46 46 47
45 45 45 44 44 43 42 42 42 41 40 40 40 39 40 39
38 38 37 37 37 36 36 35 34 35 35 34 34 34 36 39
41 41 41 38 29 34 31 34 35 35 35 34 34 35 32 32
32 29 33 32 35 35 35 35 36 36 36 35 35 35 35 36
37 37 37 38 37 39 38 38 38 38 38 38 38 38 39 39
39 39 40 39 41 42 41 41 41 41 41 42 41 42 43 40
1 0 0 7 9 61 66 60 12 1 8 12 8 0 0 32
66 55 50 50 50 50 49 49 49 48 48 47 47 46 45 45
45 45 44 44 44 43 43 42 42 42 41 41 40 39 40 39
38 38 38 37 37 36 36 36 36 36 35 36 35 34 36 38
42 40 41 38 29 34 34 33 35 36 36 35 34 35 33 32
32 28 32 32 35 35 36 36 36 36 36 36 36 35 36 36
36 37 37 38 38 38 38 38 38 38 38 38 38 39 40 40
41 40 42 41 41 41 41 41 41 42 42 41 41 42 42 41
8 3 0 1 6 55 65 60 13 0 4 11 16 3 0 31
66 54 50 50 49 49 49 48 48 47 48 47 47 46 46 46
46 46 45 44 43 43 43 42 42 42 41 41 40 40 40 39
39 39 38 38 37 37 37 36 36 35 34 35 36 36 36 39
43 43 43 39 29 34 36 32 36 36 36 35 34 33 33 32
33 30 33 33 36 37 36 36 37 37 36 36 37 37 37 38
38 37 38 38 38 38 38 38 38 38 38 38 39 39 41 41
41 41 42 42 42 42 42 42 42 42 41 42 41 42 43 41
23 22 20 24 25 51 63 63 16 0 4 10 15 6 0 29
65 54 49 49 49 49 49 48 48 48 48 47 47 46 46 46
45 45 44 44 43 43 42 42 41 42 42 41 41 40 40 39
39 39 38 38 38 37 37 36 36 35 35 35 35 37 36 40
45 43 44 41 31 34 39 30 38 37 36 36 35 33 33 33
33 30 32 32 36 36 36 36 37 37 37 37 37 38 38 38
38 37 38 38 38 38 38 38 39 39 39 39 39 40 41 41
41 40 41 41 41 41 42 41 42 41 42 42 41 42 43 41
52 49 48 50 48 46 55 64 18 0 3 9 10 10 8 30
65 54 50 50 49 49 48 48 48 48 48 47 47 46 46 46
46 45 45 45 45 44 43 43 42 42 41 41 41 41 39 40
40 39 39 38 38 37 37 36 36 35 35 35 35 36 37 39
43 43 44 41 31 34 40 30 38 37 36 35 35 33 33 33
33 31 32 32 37 37 37 37 38 37 37 37 36 37 37 36
38 38 38 38 39 38 39 39 39 40 39 39 40 40 41 42
41 42 42 42 42 42 42 41 41 41 41 41 41 41 42 40
38 39 40 41 43 43 48 56 45 33 28 21 16 13 20 42
64 53 50 49 49 49 49 49 48 48 48 48 47 46 46 46
46 45 45 44 44 43 43 43 43 42 42 41 41 41 41 40
40 39 39 39 38 38 37 37 36 36 36 36 36 37 38 40
44 43 42 40 30 35 42 30 38 38 37 36 36 34 36 34
34 32 33 34 37 37 37 36 37 36 37 36 37 37 38 38
39 38 38 38 38 39 39 39 39 40 40 40 41 41 41 42
42 41 42 41 41 42 41 41 41 41 41 41 41 41 43 41
27 30 35 40 45 49 44 42 43 45 48 49 50 49 46 51
60 52 50 50 50 50 49 49 48 48 48 48 46 47 47 46
46 45 45 45 44 44 43 43 42 42 42 41 41 41 40 40
40 40 39 39 39 38 38 38 38 36 38 36 37 36 38 39
43 44 44 42 31 34 43 31 37 37 37 36 36 32 35 33
34 31 32 33 36 37 37 37 38 37 38 38 38 38 38 38
39 38 39 39 38 39 39 40 40 40 40 40 41 41 40 41
41 41 41 42 42 42 42 41 41 42 42 41 42 42 43 41
24 24 25 25 25 26 27 28 29 32 36 41 44 47 50 51
52 51 51 50 50 49 49 49 49 48 48 48 48 47 47 46
46 45 45 45 44 44 44 43 43 43 42 42 42 42 41 41
40 40 39 39 39 38 38 37 37 37 39 39 37 39 39 39
44 45 44 42 31 34 44 33 36 38 38 37 36 36 36 34
35 32 31 34 37 37 37 38 37 38 38 38 39 39 39 39
40 39 39 40 39 39 39 40 41 40 40 41 41 41 41 42
41 41 42 42 41 42 41 42 41 41 42 42 42 42 43 40
23 24 26 25 26 25 25 24 24 24 25 25 27 31 36 41
46 49 51 51 51 50 51 50 49 48 48 48 48 47 47 46
46 46 46 45 45 45 44 44 44 43 43 42 42 42 42 41
41 40 40 40 40 40 39 38 37 38 39 40 38 41 39 39
45 45 44 42 32 33 45 37 35 39 39 37 37 35 36 35
35 34 33 36 38 39 39 39 39 39 38 39 38 39 38 38
40 39 39 39 39 40 41 41 40 41 42 41 42 41 42 42
42 42 42 43 43 42 42 42 42 42 41 40 40 40 40 40
40 40 44 42 39 36 32 28 23 23 24 23 24 24 22 24
25 28 31 35 39 44 47 49 49 48 48 48 48 48 47 46
46 46 46 45 45 44 44 44 44 43 43 43 43 42 42 42
42 41 41 40 40 40 39 37 37 38 38 39 38 42 42 40
46 46 45 43 33 34 46 39 34 39 39 38 37 35 37 35
35 35 33 36 39 39 39 38 38 39 38 39 39 39 40 40
41 40 40 40 40 40 41 41 41 41 41 41 41 42 42 42
42 41 42 42 42 42 41 40 39 40 41 42 42 42 42 41
43 41 46 46 49 58 73 62 33 29 26 24 24 24 23 24
23 23 24 23 24 24 26 27 31 37 48 48 48 48 47 46
46 46 46 46 45 44 44 44 44 43 43 42 42 42 42 41
41 40 40 40 40 39 39 39 39 37 37 32 34 39 39 41
43 44 44 45 37 37 45 41 33 41 40 39 37 36 37 35
36 34 32 36 39 39 39 39 39 39 40 40 39 39 40 40
41 40 40 40 40 40 41 41 41 41 41 42 42 42 41 41
41 40 41 41 41 41 42 42 41 41 42 42 42 41 41 40
0 15 50 47 50 57 71 71 63 60 55 54 56 51 46 39
26 26 24 23 23 23 24 15 15 27 47 48 48 48 47 47
46 46 47 46 46 45 44 44 44 43 43 43 43 42 42 42
42 42 40 41 42 40 43 39 37 38 31 26 24 34 36 37
41 40 45 46 44 43 47 43 31 39 39 39 38 36 38 35
36 35 32 37 39 39 39 39 40 39 39 40 40 40 40 40
42 41 41 41 41 41 41 41 41 41 40 41 40 40 41 40
41 41 42 42 41 41 42 43 41 41 42 41 40 41 41 41
0 16 47 46 50 57 68 71 70 70 64 62 69 67 65 57
34 42 43 36 28 26 24 22 22 26 46 48 48 47 47 45
46 47 47 46 46 45 44 44 44 44 43 43 42 43 43 44
56 54 48 46 44 43 38 29 30 37 42 49 55 54 57 57
49 43 41 50 54 48 53 52 41 41 39 38 38 36 37 35
36 35 32 37 38 39 39 39 40 40 40 40 40 40 40 40
42 41 40 40 40 41 41 41 41 41 41 41 42 40 41 41
41 41 41 41 41 40 40 42 41 41 41 41 41 42 41 41
2 9 15 14 15 37 66 68 66 67 58 61 64 68 68 61
44 52 58 52 55 57 52 34 21 26 46 48 48 48 47 50
59 57 55 51 49 46 44 45 44 44 44 43 43 43 43 48
58 55 51 50 51 42 37 39 56 82 99 103 105 107 106 103
98 91 83 68 48 40 47 55 46 43 40 38 37 36 36 35
36 36 34 37 39 40 40 40 40 40 40 40 41 41 40 40
41 40 40 39 40 40 41 42 42 40 41 40 41 41 41 41
41 40 41 41 42 42 41 43 41 42 42 41 41 41 40 41
2 16 17 4 2 29 68 61 15 33 29 38 47 55 60 60
50 54 59 57 62 65 64 46 22 29 48 49 49 48 47 51
62 59 57 53 52 53 53 48 47 45 44 42 43 43 44 46
53 53 50 53 50 39 66 104 120 121 120 120 120 117 116 112
110 108 108 107 97 68 45 43 46 50 44 39 38 36 38 35
36 35 32 38 39 40 40 40 41 40 40 40 40 40 40 41
40 41 41 41 41 40 41 42 43 41 41 41 41 41 41 41
41 40 41 40 41 41 41 42 41 41 41 41 41 40 41 40
10 30 47 10 1 32 68 60 5 11 2 0 2 9 12 56
52 57 60 61 65 66 66 52 23 30 51 51 51 50 48 51
61 60 57 56 58 60 58 51 53 54 50 47 47 46 45 45
40 37 45 48 59 104 120 123 126 122 121 121 121 115 112 112
114 113 111 110 110 107 83 45 39 39 49 42 38 36 37 35
36 36 33 38 39 41 41 41 40 40 40 40 41 40 40 40
41 40 41 41 41 41 41 42 43 41 42 41 41 41 41 40
41 41 41 42 41 41 41 42 42 42 41 42 41 41 41 41
23 38 45 38 7 26 70 62 5 0 3 0 10 21 13 55
50 56 56 62 63 65 65 55 25 31 54 53 52 53 54 55
36 24 40 52 57 59 57 30 19 30 39 47 47 54 52 47
41 46 49 71 111 121 121 122 123 126 125 126 125 121 111 115
119 117 113 110 106 107 104 87 41 37 39 42 38 37 39 36
37 37 33 37 38 40 40 40 40 41 41 41 41 41 41 41
41 42 41 41 42 41 41 41 42 41 42 42 41 42 42 42
42 41 42 41 40 41 41 42 42 41 41 41 41 42 41 41
26 43 38 28 17 20 70 65 8 0 2 0 19 25 19 56
26 22 35 47 56 59 60 54 25 30 53 52 46 46 56 62
28 0 6 24 29 30 46 23 0 0 1 6 16 22 31 47
47 42 67 109 118 117 120 120 123 131 135 130 135 131 117 109
99 81 64 51 49 45 42 41 32 19 21 27 32 36 37 35
36 37 33 39 39 41 41 41 42 42 42 42 42 41 41 41
41 41 41 42 42 41 41 42 43 42 42 42 42 42 42 42
42 42 42 41 42 42 41 43 43 42 42 41 42 42 42 42
10 31 37 22 4 18 71 68 10 3 3 0 12 15 16 57
16 0 5 7 8 14 21 55 27 27 38 47 54 55 60 64
30 0 3 15 20 21 40 25 0 0 2 1 5 0 11 48
41 42 103 109 101 94 92 93 103 120 133 128 127 124 117 99
52 31 16 10 7 5 2 2 4 5 8 10 5 12 31 37
37 38 34 40 39 42 42 42 42 42 42 42 42 42 42 42
42 42 42 42 43 43 43 42 43 42 43 44 43 43 43 43
43 43 43 43 43 42 42 44 42 42 42 42 43 42 43 42
0 1 4 0 0 16 72 71 13 0 1 0 4 0 7 58
15 2 0 0 0 0 7 53 27 20 1 2 9 20 32 45
33 0 1 9 7 12 35 29 1 0 0 0 5 6 27 35
34 39 39 22 17 19 22 28 43 70 121 118 116 126 96 33
17 2 0 0 0 0 0 0 0 0 0 7 11 2 22 36
37 38 34 41 40 43 44 43 43 44 43 43 43 42 42 42
42 43 43 43 43 43 44 43 45 43 44 44 44 44 44 44
44 43 44 44 44 43 43 44 41 44 44 44 44 43 43 42
0 0 0 0 0 16 72 73 15 0 8 6 18 0 7 59
16 8 2 13 0 0 8 55 28 21 1 0 0 0 0 3
26 0 0 1 0 5 33 25 0 0 0 11 17 23 23 20
20 83 98 6 0 0 0 0 4 14 52 75 56 62 22 6
0 0 0 0 0 2 8 19 0 0 0 0 4 3 14 38
37 39 35 41 41 44 44 43 43 44 43 43 43 43 43 43
43 44 44 44 44 44 44 45 45 44 44 44 45 44 45 45
44 45 44 44 44 44 43 44 45 45 45 45 44 44 44 44
0 0 0 0 0 13 72 75 21 1 21 21 30 3 7 57
17 9 3 23 9 0 5 54 28 22 1 0 0 0 0 0
22 0 0 0 0 2 38 31 0 0 3 19 20 11 3 2
62 144 29 0 0 0 0 0 4 36 19 20 20 14 14 1
0 0 0 0 0 24 95 97 13 0 0 0 0 7 6 38
35 36 34 40 40 43 44 43 43 44 44 43 43 43 43 43
43 42 43 44 44 44 45 44 46 44 44 45 45 45 45 45
43 44 44 44 44 44 43 44 44 43 44 44 43 42 42 44
41 41 38 33 29 37 72 75 28 7 5 4 3 2 6 56
17 9 4 16 11 0 5 53 27 21 1 0 0 4 0 0
19 0 0 0 0 1 33 34 0 0 4 11 23 5 0 12
135 70 0 0 0 0 0 14 97 101 21 71 75 39 14 0
0 0 0 0 29 91 65 8 0 0 0 0 0 9 2 33
38 36 33 41 40 44 43 44 42 44 43 43 43 43 43 43
43 43 44 44 44 44 45 44 43 44 44 43 43 44 44 44
44 44 43 43 44 44 44 43 44 43 44 43 43 43 43 43
66 63 59 54 48 44 42 45 11 0 6 15 8 1 5 53
13 6 6 1 5 0 5 53 27 22 2 5 6 18 1 0
18 2 4 0 0 6 33 38 0 1 3 6 4 0 0 50
113 4 0 0 0 0 16 92 67 14 79 113 106 90 20 2
0 0 0 13 77 43 1 0 0 0 0 0 0 10 3 26
36 36 34 40 40 44 44 43 43 44 43 43 43 43 43 43
44 44 44 44 43 44 44 43 43 45 44 44 44 44 45 45
46 44 45 45 44 44 44 44 44 44 44 44 43 44 43 44
36 38 45 55 58 57 46 40 19 13 11 16 7 1 6 52
12 2 12 1 0 0 5 53 27 22 6 16 7 8 0 0
19 4 0 0 0 9 34 43 0 5 6 4 0 0 0 67
30 0 0 0 0 0 32 31 0 34 120 135 120 100 55 7
0 0 0 3 15 0 0 0 0 0 0 0 0 13 11 18
35 35 36 39 40 44 44 43 43 44 43 44 43 43 44 44
45 44 44 45 44 45 44 44 44 43 43 44 44 45 44 45
45 44 45 44 44 45 45 44 44 43 43 43 42 41 41 44
0 0 1 5 11 30 55 54 60 60 56 58 54 47 44 57
27 11 12 12 9 5 11 52 27 23 12 7 0 4 6 0
26 11 6 7 1 3 33 59 37 31 25 4 0 0 7 85
6 0 0 0 0 0 0 0 2 84 145 151 144 116 88 22
2 0 0 0 0 0 0 0 0 0 0 1 2 24 31 9
36 35 33 38 39 44 44 43 42 43 43 44 44 44 44 44
44 45 44 44 44 44 44 44 44 44 45 45 45 45 45 45
46 44 43 42 41 40 42 41 40 40 41 40 37 36 34 29
0 2 2 0 0 14 68 57 22 28 37 46 49 54 60 65
75 51 45 51 54 51 49 50 25 22 5 0 0 0 0 1
43 59 46 44 40 29 40 64 34 35 36 5 0 0 19 61
0 0 0 0 0 0 0 0 23 121 150 152 147 126 102 66
7 1 0 0 0 0 10 46 3 0 0 3 6 22 50 3
32 40 35 38 39 44 45 43 43 43 43 43 44 44 43 43
43 45 44 44 44 43 44 44 44 43 44 44 44 43 44 43
44 41 44 43 40 40 38 35 31 27 25 23 21 20 20 20
0 1 14 19 3 12 67 58 24 16 25 24 19 7 44 79
76 46 50 62 65 65 65 54 26 24 3 0 0 0 0 1
46 68 54 62 66 67 63 56 24 21 21 6 0 0 30 39
0 0 0 0 0 0 0 2 61 124 142 151 140 126 122 97
31 6 1 0 0 13 113 79 1 0 0 6 12 50 51 10
25 41 36 38 39 44 44 43 43 43 44 43 43 43 43 41
42 44 43 43 44 43 44 43 44 44 44 44 44 43 41 40
36 32 33 44 27 20 21 22 21 22 23 25 26 27 28 28
31 9 30 14 1 10 66 57 9 10 13 6 7 0 46 77
66 42 53 62 64 66 68 57 27 27 24 17 9 3 1 0
44 58 56 64 68 70 60 49 28 22 21 3 0 0 1 0
0 0 12 82 3 0 0 11 93 109 124 148 121 56 116 123
85 12 8 8 8 100 54 0 1 3 5 11 39 87 48 24
16 36 35 37 39 42 43 43 43 43 43 43 43 43 43 41
41 43 43 36 21 44 44 43 41 38 35 31 28 25 23 23
24 23 23 39 25 22 27 29 30 31 32 32 33 34 34 35
36 19 21 20 6 8 65 56 2 2 7 0 0 0 43 73
49 11 17 24 27 33 41 54 28 28 51 63 60 52 45 39
55 46 54 61 65 69 62 54 33 24 21 3 2 0 0 1
0 0 70 63 0 1 7 27 128 50 76 147 93 3 52 141
114 78 19 11 17 21 19 20 22 28 28 49 105 96 67 35
10 36 39 36 38 43 43 43 42 40 40 39 38 38 42 43
43 41 32 8 24 32 29 27 25 25 26 26 27 29 29 29
31 31 29 37 27 28 34 35 36 37 37 38 38 38 39 38
10 2 24 36 12 10 65 55 2 0 0 1 0 1 39 73
51 2 2 0 0 0 9 50 29 29 53 66 65 63 64 65
66 27 22 31 39 47 47 52 36 22 18 2 3 3 1 2
0 2 78 14 13 11 5 71 127 23 57 146 106 13 30 127
127 111 94 64 51 48 38 27 23 37 80 95 104 102 83 39
4 32 37 35 37 38 39 39 38 39 38 38 31 26 34 31
28 20 12 23 27 28 29 30 30 31 33 33 34 36 36 37
38 37 35 38 30 34 38 39 39 40 41 41 41 41 42 41
37 38 41 22 10 11 65 55 6 27 5 0 0 0 30 73
52 1 0 0 0 4 10 48 30 27 47 63 64 64 66 66
63 16 0 0 3 12 22 46 36 20 16 1 13 15 14 20
25 22 20 16 9 9 45 115 123 33 87 143 134 68 35 132
132 113 113 111 119 120 117 111 105 102 98 96 101 103 90 51
6 25 34 35 37 38 36 34 33 31 29 27 25 24 27 27
17 23 22 34 35 35 36 37 37 37 38 39 39 40 40 40
40 39 33 15 13 34 41 42 43 42 41 41 43 42 42 42
24 60 58 23 3 13 70 60 13 39 5 0 0 0 23 67
47 0 0 0 13 40 37 43 41 35 42 48 49 52 52 58
58 10 0 0 1 3 10 49 35 19 16 2 22 55 79 73
52 17 16 25 45 79 100 118 133 87 127 145 146 139 121 140
126 111 125 136 139 137 133 129 120 114 111 106 100 101 93 64
8 14 23 27 27 28 26 28 28 28 30 31 32 33 33 20
31 27 33 39 40 40 40 40 41 40 40 41 41 41 41 42
41 39 30 7 4 29 41 43 44 42 43 43 43 43 42 43
11 52 51 23 5 12 70 62 6 24 10 0 0 0 23 63
43 0 1 0 11 39 39 36 36 31 33 32 38 45 43 54
58 9 0 0 1 4 1 46 29 13 2 0 24 62 104 104
93 80 90 107 107 107 116 114 129 122 135 148 147 138 121 115
109 118 142 149 147 144 140 139 133 123 121 115 107 100 99 78
19 8 24 26 26 27 31 32 33 34 35 37 38 39 27 31
41 38 19 26 26 23 17 25 43 42 41 41 28 8 8 14
14 15 23 10 4 28 41 43 44 43 43 43 42 42 43 43
0 41 37 16 4 11 70 64 6 4 5 0 0 0 24 65
41 0 6 0 3 18 22 34 33 31 34 36 40 46 46 55
56 9 0 0 0 1 2 49 18 0 4 1 27 74 107 104
101 109 116 126 135 137 130 113 105 120 142 148 146 138 126 109
106 125 140 149 150 148 141 140 140 132 125 120 114 104 101 89
31 4 25 29 30 32 37 39 39 40 41 40 40 37 26 38
37 43 8 2 0 1 2 21 31 22 7 7 2 8 2 0
0 0 7 1 0 27 41 43 44 43 42 43 43 42 43 42
4 24 28 4 0 10 69 62 6 0 0 0 0 0 28 66
41 0 6 3 0 0 1 30 28 31 21 13 19 26 34 41
47 9 0 0 0 0 4 50 19 0 1 1 25 85 106 104
113 120 132 141 147 150 146 120 107 131 145 146 146 135 124 122
117 117 127 144 151 150 146 147 141 135 127 125 117 107 101 96
52 1 28 29 33 37 40 41 41 41 42 40 41 23 17 4
3 49 24 0 0 0 0 0 0 0 0 0 0 0 13 0
0 0 1 3 2 28 42 43 44 43 43 43 42 43 43 43
30 11 6 10 19 24 66 58 5 0 0 0 0 0 31 67
40 0 2 12 4 0 1 37 38 37 18 0 0 1 0 0
20 10 0 0 1 0 3 49 14 0 0 0 25 93 104 112
118 132 144 149 151 150 134 110 120 133 145 135 132 135 126 123
122 120 121 131 144 143 147 145 139 126 129 129 122 111 103 96
70 4 26 32 37 40 42 43 43 43 43 42 31 5 14 15
3 6 3 0 0 0 0 0 0 0 0 0 0 0 7 0
0 0 2 9 2 31 41 43 44 43 43 43 42 43 42 43
1 10 6 22 61 61 63 55 30 23 18 12 10 6 36 67
40 0 0 8 10 0 0 41 42 36 19 0 0 3 0 0
17 10 0 7 17 6 1 48 12 0 0 1 26 96 111 116
123 139 146 147 151 141 117 118 125 132 131 128 135 136 128 119
122 122 124 126 125 133 143 142 139 136 130 130 126 116 108 97
82 12 20 34 39 41 43 43 44 43 42 43 20 25 41 19
22 29 23 21 21 21 20 15 11 14 2 0 0 0 0 0
0 0 8 22 13 35 42 43 44 43 43 42 42 42 43 43
12 40 49 39 64 67 67 58 65 62 50 47 57 49 52 58
46 10 0 6 18 10 1 39 44 37 21 0 2 12 4 0
13 11 0 19 25 11 1 46 11 2 3 1 28 100 112 116
124 140 146 148 148 124 116 123 122 126 120 119 122 127 131 123
124 127 129 126 129 130 137 140 129 137 137 135 128 119 107 99
90 26 16 35 42 41 44 44 43 42 42 32 12 30 27 39
44 43 44 44 43 43 43 43 23 19 1 0 0 0 0 1
1 4 25 32 32 39 42 43 44 42 42 42 41 43 43 42
56 57 65 64 65 68 69 66 37 25 17 17 25 29 29 53
52 43 33 29 39 33 23 46 41 32 19 0 11 27 13 2
12 19 8 26 25 20 5 45 11 4 4 0 33 100 111 116
132 136 143 144 133 118 119 121 123 125 117 115 114 114 117 123
130 129 128 125 133 136 137 135 125 131 139 135 130 118 105 97
88 39 12 35 43 42 44 44 43 43 39 13 37 36 43 43
43 43 44 44 43 44 43 37 11 0 0 0 0 1 37 39
38 37 35 35 38 41 43 42 43 43 43 43 42 43 42 42
53 39 61 54 41 46 53 60 14 0 0 0 12 26 19 55
53 39 32 40 49 57 60 62 51 31 21 0 14 26 14 4
12 51 48 54 51 51 49 58 13 1 4 0 40 101 112 119
131 137 135 132 126 119 120 116 117 107 102 107 108 104 105 102
115 126 132 135 139 137 137 130 123 127 135 135 129 118 107 98
86 56 15 36 43 42 44 43 43 42 18 31 44 43 44 42
43 43 43 44 44 43 43 33 0 0 11 6 0 1 39 42
42 40 38 38 41 43 43 42 43 43 42 43 43 42 42 42
27 5 31 21 2 0 2 48 18 0 2 6 9 22 30 57
54 23 1 4 15 19 52 63 49 30 23 1 6 8 6 1
11 54 55 60 59 62 69 68 35 26 26 9 53 103 115 120
130 131 130 128 127 122 118 109 108 119 124 122 121 125 121 111
101 103 128 132 139 137 138 131 124 124 133 137 129 118 105 93
85 77 44 60 72 48 44 44 44 27 19 44 44 44 44 43
44 43 43 42 44 43 43 34 0 0 8 8 0 0 37 42
41 40 40 40 42 42 42 42 41 43 43 43 43 41 42 42
26 0 0 6 1 0 0 47 21 0 17 47 29 17 23 59
56 19 2 14 37 20 52 60 45 33 33 20 6 7 4 0
10 53 54 57 56 62 69 68 52 47 47 31 58 103 114 123
131 128 128 129 131 125 103 98 111 121 120 118 119 122 119 114
107 102 107 125 136 140 131 126 120 123 126 127 128 118 104 94
88 92 120 115 97 83 43 44 37 12 42 44 43 44 44 44
44 44 44 44 44 44 44 36 0 0 0 1 0 0 34 42
43 41 40 42 43 43 42 43 43 44 43 43 42 42 43 42
10 3 0 16 7 0 0 47 22 8 39 49 15 2 17 62
57 15 2 10 38 38 57 57 37 34 34 15 2 6 2 0
9 51 49 52 52 52 49 47 50 50 50 42 67 101 110 122
126 123 123 128 138 126 92 114 126 135 131 127 124 132 144 142
137 130 122 121 128 137 132 124 117 120 122 123 123 113 104 94
84 95 127 109 105 105 47 44 21 33 45 45 45 45 45 45
44 44 44 43 43 42 42 34 0 0 0 1 0 0 33 42
43 43 42 44 44 43 44 44 44 44 44 44 43 43 42 43
47 49 42 49 16 0 0 46 25 7 28 57 14 1 18 64
59 15 2 3 12 25 57 57 36 37 35 12 3 6 3 0
9 55 49 49 49 50 49 48 52 52 54 54 74 99 109 122
125 122 124 133 137 110 125 148 150 144 124 114 118 129 145 150
151 148 142 133 136 139 131 126 121 118 116 124 120 107 104 94
85 99 126 120 110 118 63 41 15 43 43 42 43 43 44 44
44 44 45 42 23 13 8 8 0 0 2 0 0 0 32 44
43 44 44 45 44 43 43 44 43 44 43 43 43 43 42 43
24 15 19 21 6 2 2 47 22 0 16 37 10 9 20 66
60 16 0 0 1 13 56 58 37 37 37 46 45 39 37 36
37 61 53 52 52 53 54 57 59 56 58 61 76 93 108 118
118 121 124 133 128 122 142 151 150 144 138 136 135 143 147 151
151 150 146 141 139 138 130 125 119 117 116 121 120 105 106 92
84 98 118 130 110 122 83 38 20 46 45 45 45 46 46 46
46 46 45 36 13 23 4 6 0 0 1 3 4 3 30 44
44 46 45 45 45 44 44 43 44 44 44 44 44 44 43 43
17 0 0 0 0 0 1 45 20 0 0 0 3 8 19 65
61 13 0 0 0 9 56 59 36 37 41 65 69 67 68 71
70 69 57 52 53 51 56 62 65 57 63 70 82 92 108 114
111 118 121 127 125 137 147 152 153 151 142 124 123 137 150 152
152 151 149 146 144 136 129 122 114 115 117 116 118 110 105 93
82 92 119 118 116 122 101 37 22 46 45 46 45 46 46 45
46 46 46 46 54 50 28 23 2 0 0 0 0 0 11 31
44 45 44 45 45 44 45 44 44 44 44 44 44 42 43 43
26 0 0 0 0 0 0 43 24 0 0 0 0 0 15 63
59 11 0 0 0 9 55 62 35 38 40 66 70 70 70 71
71 70 40 32 26 25 30 42 62 67 107 117 95 89 105 112
110 112 116 126 129 142 149 151 152 141 125 118 120 121 137 149
152 151 151 149 142 136 124 118 115 114 114 116 113 107 105 95
81 92 86 132 116 115 114 39 21 46 45 45 46 46 46 45
46 46 45 41 39 38 12 4 0 0 0 0 0 0 15 10
21 35 45 45 45 44 44 44 44 43 43 43 43 42 42 43
37 0 0 0 0 0 0 41 22 0 0 0 0 0 13 63
59 11 0 0 0 5 51 56 32 39 35 42 45 45 46 47
48 52 22 1 0 0 1 9 54 64 84 112 103 88 103 112
113 109 115 124 138 145 141 150 144 130 131 126 128 127 123 131
147 150 149 149 143 134 121 117 115 112 114 116 110 110 105 95
81 94 86 116 132 111 123 49 18 46 45 45 45 45 44 42
41 38 36 29 10 5 4 0 0 0 0 0 1 0 4 10
3 22 45 45 45 44 44 45 44 44 43 43 43 43 42 42
31 0 0 0 0 0 0 38 22 0 0 0 0 0 11 62
60 12 0 0 0 3 48 58 32 38 34 45 49 48 46 45
44 46 24 9 0 0 0 19 53 57 98 105 104 89 100 111
112 106 110 120 136 141 142 142 129 124 140 137 134 135 131 126
128 138 139 145 131 124 116 114 113 113 118 111 109 106 105 95
79 96 107 102 135 112 122 72 18 44 45 45 46 44 30 15
14 15 14 9 1 2 0 0 0 0 0 0 2 0 4 11
5 18 45 45 45 45 44 44 43 43 42 43 42 42 43 42
1 0 0 0 0 0 0 37 30 8 9 12 16 20 31 63
59 14 0 0 0 4 52 63 33 36 35 50 53 53 53 53
53 52 25 11 0 0 1 18 51 44 93 109 104 86 102 106
110 105 103 114 129 134 138 130 125 130 139 136 136 141 135 131
124 123 131 127 124 121 115 113 114 116 118 115 112 108 103 94
74 109 111 98 122 116 120 92 21 40 43 39 36 30 15 6
5 6 5 4 2 12 7 4 0 0 0 0 1 0 2 10
6 15 45 44 44 45 44 44 43 44 43 43 43 42 42 42
24 23 23 19 17 17 17 45 55 51 52 55 58 61 62 55
42 20 13 9 7 8 51 58 31 35 37 50 54 55 54 55
56 55 25 6 0 1 12 11 44 37 84 111 116 82 103 110
110 105 103 107 121 126 125 123 131 136 144 142 143 146 144 134
129 125 122 120 119 115 107 108 111 119 118 113 111 108 102 90
76 119 127 109 107 110 113 76 13 12 10 7 6 7 8 10
11 11 12 12 11 7 7 17 5 0 0 0 1 0 2 10
6 14 43 45 45 44 44 43 43 41 41 41 41 41 41 41
63 63 61 60 57 59 60 62 60 56 59 59 60 59 59 56
54 53 52 50 47 43 53 53 46 47 48 49 51 52 52 52
52 52 31 3 0 1 11 8 39 35 78 110 110 85 102 108
107 108 103 103 112 123 122 125 133 140 143 142 135 143 142 135
128 123 123 119 110 106 99 100 111 114 116 108 105 106 98 88
83 121 119 108 109 106 104 29 9 11 12 13 13 14 14 14
14 13 14 13 5 3 6 15 9 0 0 0 1 0 2 9
10 16 39 42 42 42 42 43 43 43 41 42 43 43 42 37
68 67 68 66 65 67 68 58 45 43 55 55 55 54 54 54
54 54 53 52 53 52 52 51 50 50 50 50 50 49 49 49
48 47 42 14 0 1 13 9 34 34 67 119 89 79 96 104
105 107 99 96 109 117 124 125 133 134 136 136 128 140 143 128
124 125 117 110 108 103 100 96 99 107 107 102 102 103 96 84
86 126 112 110 109 109 77 14 14 13 14 13 13 11 9 8
6 4 8 14 11 2 8 10 4 0 0 1 8 3 2 7
18 21 37 43 45 44 44 43 43 43 42 41 42 31 7 7
67 63 66 63 64 67 63 36 34 39 53 54 54 53 53 53
52 53 52 52 52 51 51 50 50 50 49 49 49 48 48 48
47 47 42 8 0 0 3 5 35 36 80 127 92 87 92 108
108 105 93 95 106 114 119 125 132 138 133 128 131 127 131 124
120 120 113 109 106 98 96 89 101 105 106 99 98 94 91 77
70 116 115 107 113 94 23 8 6 4 2 1 0 0 0 0
0 0 8 15 13 10 8 8 0 0 0 0 3 0 1 11
11 14 37 44 44 43 43 43 43 43 42 42 42 25 0 5
34 36 33 30 31 38 36 32 33 38 52 54 50 44 44 42
41 39 39 37 36 35 34 33 32 31 31 30 30 29 30 31
38 45 43 8 0 0 0 0 28 37 65 126 106 108 94 110
107 105 92 92 99 110 121 124 129 133 122 124 120 116 123 126
120 111 105 100 100 90 84 85 97 100 102 96 92 91 85 67
25 64 92 96 91 34 14 1 0 0 0 0 0 0 0 0
0 0 12 16 14 12 10 8 10 10 11 12 12 13 18 22
23 22 31 31 31 30 30 43 43 43 43 42 42 20 0 0
0 5 0 0 0 15 9 31 34 37 51 53 39 10 4 3
3 2 2 2 2 1 1 0 0 0 0 0 0 0 0 1
34 48 44 14 1 1 10 11 26 42 70 120 121 117 91 104
100 101 92 88 92 100 109 121 122 120 118 116 114 112 114 116
106 102 103 96 88 80 84 88 93 95 94 91 88 85 79 60
33 28 40 49 30 15 12 0 0 0 0 0 0 0 0 0
0 1 15 15 14 12 39 22 26 30 33 30 27 32 29 27
27 21 19 44 40 18 22 40 44 44 42 42 42 18 0 0
0 5 2 2 0 16 20 31 33 36 50 53 42 11 0 0
0 1 1 1 1 0 0 0 0 0 0 0 1 1 1 3
35 52 45 42 36 36 43 44 44 46 90 114 115 122 89 101
99 95 89 82 85 95 102 110 108 108 104 104 106 102 101 102
97 93 91 92 82 80 83 87 89 89 88 86 83 83 76 69
55 26 36 34 19 16 8 0 0 0 0 0 0 0 0 0
0 4 16 15 16 14 34 22 27 34 38 58 53 71 72 76
39 22 32 87 88 13 18 40 43 43 25 15 14 5 0 0
0 5 1 8 19 27 27 31 32 36 49 54 45 16 0 1
1 1 2 2 2 2 3 2 1 1 2 1 2 2 2 2
29 52 45 48 50 52 52 45 39 39 84 106 113 119 86 95
98 94 85 79 84 85 89 97 104 96 85 88 90 91 86 86
89 93 83 83 79 80 77 80 84 82 81 79 74 80 70 82
43 22 34 29 16 15 4 0 0 0 0 0 0 0 0 0
0 7 16 14 16 12 29 20 30 37 45 102 82 105 102 106
47 22 71 125 127 59 17 38 42 37 1 0 0 0 0 0
0 5 12 25 27 27 25 31 33 35 47 53 46 22 0 1
2 2 2 3 4 3 3 2 2 2 2 2 2 1 1 2
25 53 45 44 45 49 52 47 38 33 61 115 110 100 53 85
93 87 85 80 76 78 80 83 86 85 81 83 87 91 94 92
90 87 83 79 78 75 70 67 72 75 72 71 73 73 68 93
38 24 34 25 16 15 1 0 0 0 0 0 0 0 0 0
0 10 16 15 19 7 29 29 35 40 39 72 58 64 58 55
38 31 56 65 49 38 25 34 43 35 0 0 0 0 0 0
0 1 16 25 26 27 25 31 32 35 45 53 48 25 1 1
1 2 3 3 3 3 2 2 2 3 2 2 2 1 1 1
20 52 45 41 38 39 45 45 37 34 32 79 92 55 35 69
85 81 82 78 72 75 78 78 84 88 97 100 103 106 107 103
104 98 89 85 79 72 67 65 64 67 67 67 67 65 79 94
54 48 46 24 15 12 0 0 0 0 0 0 0 0 0 0
0 14 16 16 20 3 7 34 39 42 30 32 32 28 24 29
29 29 29 30 27 28 25 32 43 41 10 0 0 0 0 0
0 0 13 26 27 27 25 30 31 34 43 52 48 29 1 1
1 2 2 2 2 3 2 2 2 2 2 1 1 1 1 1
15 52 46 36 14 14 17 19 19 32 33 40 53 46 49 53
75 74 78 74 72 67 71 81 91 98 105 103 107 109 105 106
102 98 94 86 81 81 75 73 71 69 67 65 59 59 90 92
58 56 44 19 15 9 0 0 0 0 0 0 0 0 0 0
1 16 15 17 18 0 10 32 39 43 29 32 28 28 21 21
24 30 29 29 28 27 25 30 43 43 31 5 0 0 0 0
0 0 13 26 27 28 25 29 31 34 42 53 49 32 3 1
1 1 1 1 1 1 2 2 2 2 2 2 2 1 1 1
11 50 46 35 3 0 0 3 13 36 36 46 48 51 60 32
62 71 71 74 68 69 70 79 90 93 97 100 108 104 106 107
102 102 98 92 88 80 77 81 77 77 71 57 53 81 95 93
58 57 39 17 15 5 0 0 0 0 0 0 0 0 0 0
5 16 14 17 11 0 2 6 22 44 30 31 21 22 20 23
25 32 31 30 28 27 23 24 36 18 19 1 0 0 0 0
0 0 14 26 27 27 25 29 31 34 41 52 50 35 4 1
1 1 1 2 2 2 2 2 2 2 2 1 1 1 1 0
8 48 46 36 3 0 0 0 7 38 32 42 36 21 38 18
43 67 69 70 69 73 76 82 90 96 105 106 104 103 99 102
99 99 94 87 78 79 79 83 81 81 71 63 74 94 99 93
60 56 32 15 15 2 0 0 0 0 0 0 0 0 0 0
8 16 14 16 7 0 2 2 26 41 31 31 19 25 21 23
27 32 31 30 28 27 23 16 11 0 0 13 0 0 0 0
2 0 14 25 26 27 25 28 30 33 40 51 50 36 6 1
1 2 1 1 2 1 2 2 1 2 1 1 1 1 0 1
5 45 46 37 4 0 0 0 5 39 31 41 30 2 25 19
41 60 64 69 72 71 71 79 91 94 96 99 101 101 102 98
100 96 89 86 85 81 83 83 87 79 71 71 91 100 103 96
61 53 26 15 14 0 0 0 0 0 0 0 0 0 0 0
12 15 15 17 5 0 8 9 34 39 31 29 17 23 21 21
28 31 30 30 28 27 24 2 0 0 1 0 0 0 0 0
3 0 13 25 25 27 24 28 30 32 38 50 49 37 7 1
1 1 1 1 2 2 2 2 2 1 1 1 0 1 0 1
3 42 46 37 6 0 0 0 7 40 31 41 30 2 24 21
35 82 57 64 72 71 69 71 78 84 92 96 95 100 102 98
98 96 91 88 85 85 84 87 83 75 71 88 101 107 101 96
61 49 20 14 10 0 0 0 0 0 0 0 0 0 0 0
15 15 15 16 1 3 20 13 41 37 31 28 13 20 20 20
28 30 29 29 27 26 24 2 0 2 14 0 0 0 0 0
22 12 21 24 25 26 24 26 30 32 37 50 50 38 8 0
1 1 1 1 1 2 1 1 1 1 0 0 1 0 1 1
2 40 47 38 8 0 0 0 7 39 30 41 30 2 21 25
30 97 68 62 67 72 72 67 74 81 88 92 98 98 97 93
98 97 97 89 90 90 88 85 77 70 77 92 103 106 104 99
61 43 18 16 7 0 0 0 0 0 0 0 0 0 0 3
16 14 17 14 0 7 18 11 44 36 28 13 5 14 21 19
29 30 29 28 29 28 25 1 0 6 13 0 0 0 0 0
57 42 31 22 24 25 24 27 30 32 36 49 49 38 10 0
0 0 1 1 2 2 2 2 1 1 1 1 0 0 0 0
1 38 47 38 10 0 1 1 4 39 31 42 30 4 19 28
32 100 84 63 65 71 73 76 76 79 88 92 94 96 95 90
92 98 97 92 94 90 85 79 75 77 91 102 108 107 106 100
62 35 15 15 3 0 0 0 0 0 0 0 0 0 0 6
16 15 17 10 0 4 7 16 45 33 21 9 3 13 18 19
29 30 30 28 29 30 27 8 9 13 13 10 9 7 6 5
31 6 11 22 24 24 22 25 29 30 35 48 49 39 12 0
1 1 1 2 2 1 1 1 1 1 1 0 0 0 0 1
1 36 47 39 16 0 4 6 2 38 32 42 35 7 16 31
33 99 97 70 70 70 73 76 81 86 90 93 89 92 95 92
95 97 98 94 94 89 84 74 77 87 95 103 110 110 108 101
62 25 15 14 2 0 0 0 0 0 0 0 0 0 0 10
16 15 17 7 1 35 34 28 43 32 20 7 2 12 18 19
29 30 29 28 29 29 28 10 13 14 13 10 7 5 3 2
27 0 2 21 23 24 22 24 28 30 34 48 49 40 13 0
0 0 1 0 1 1 1 1 1 0 1 0 0 0 0 1
0 33 48 38 18 0 5 20 8 37 35 44 40 18 15 29
29 101 101 90 71 68 73 70 78 84 92 94 92 92 91 97
96 93 93 93 88 88 81 77 84 96 105 110 112 112 109 102
59 18 18 14 5 4 1 0 0 0 0 0 0 0 0 14
16 16 17 2 9 79 47 28 42 32 20 7 11 17 17 20
30 31 30 29 29 30 29 6 0 1 0 0 0 0 0 0
29 0 1 20 23 24 23 23 27 29 33 47 49 40 14 0
1 0 0 1 1 1 1 1 1 0 0 0 0 0 1 1
0 31 47 39 28 17 22 32 29 44 39 45 36 24 16 30
32 102 105 99 83 73 68 72 77 85 91 97 96 97 95 99
100 99 99 88 91 88 83 87 94 101 109 115 110 115 102 102
57 6 8 9 5 3 3 3 1 0 0 0 0 0 1 15
15 17 16 0 12 58 26 35 40 32 25 18 14 23 19 24
32 33 31 28 29 30 28 7 0 0 0 0 0 0 0 2
30 0 0 18 21 23 21 22 26 29 32 46 48 40 15 0
0 0 0 0 1 0 0 1 0 1 1 0 0 0 0 0
0 29 47 38 46 56 57 58 58 60 47 45 30 18 19 37
41 101 100 104 96 81 73 73 79 88 94 99 104 106 106 106
109 107 106 100 95 87 82 90 98 106 114 120 120 122 109 101
63 2 6 20 24 10 5 6 7 2 0 0 0 0 4 17
15 18 13 0 0 16 18 39 37 33 27 21 16 22 20 27
34 33 30 29 29 29 28 8 0 0 0 0 0 0 0 8
38 12 7 19 21 22 21 21 25 27 31 44 47 40 16 0
0 0 0 0 1 0 0 0 0 0 0 0 0 0 0 0
0 27 47 38 49 62 62 61 61 60 53 43 28 5 12 35
39 98 105 104 104 95 83 80 80 87 103 104 110 113 115 119
120 120 117 109 98 85 82 95 102 110 122 134 135 125 116 104
68 1 7 17 25 17 12 11 7 2 1 6 6 6 11 16
15 17 8 0 1 7 16 46 35 33 29 20 16 22 21 26
32 32 28 28 29 28 27 8 0 0 0 0 0 0 0 3
43 40 37 30 19 19 20 20 24 27 30 43 47 40 16 0
0 0 0 0 0 0 0 0 0 0 0 0 0 0 0 0
0 26 47 38 39 41 39 38 36 34 31 39 29 3 9 36
41 97 110 113 113 109 93 84 87 95 104 113 118 120 123 127
130 130 122 115 100 79 88 96 105 111 129 138 133 126 117 106
75 9 14 23 26 20 15 6 1 0 0 3 13 15 16 16
16 19 5 0 1 7 23 45 34 32 28 19 16 22 21 27
32 31 30 29 29 28 27 8 0 0 0 0 0 0 0 0
23 10 8 10 11 12 13 15 24 27 30 42 47 40 16 0
0 0 0 0 0 0 0 0 0 0 0 0 0 0 0 0
0 25 47 37 29 21 21 21 21 22 20 37 30 2 7 35
39 97 112 118 123 119 106 90 92 98 108 118 127 132 136 133
136 132 124 115 105 93 92 98 109 120 133 133 134 127 116 108
79 9 16 22 16 13 11 12 5 2 0 0 11 14 15 14
16 19 2 0 7 10 30 44 34 33 28 19 16 22 21 29
32 30 30 29 29 28 28 8 0 0 0 0 0 0 0 0
27 3 0 5 10 10 10 11 24 25 30 41 46 41 17 0
0 0 0 0 0 0 0 0 0 0 0 0 0 0 0 0
0 25 46 37 30 24 24 24 24 24 22 38 36 17 22 40
37 94 112 119 128 126 115 98 97 101 113 122 133 142 145 144
143 140 134 123 110 100 97 103 115 131 134 136 135 125 117 108
81 6 0 2 8 5 1 0 0 0 0 1 13 18 16 10
10 16 0 0 23 30 38 41 33 33 26 17 15 18 22 29
32 31 30 30 31 29 28 10 0 0 0 0 0 0 0 0
27 5 0 3 9 10 14 17 23 25 28 40 45 40 17 0
0 0 0 0 0 0 0 0 0 0 0 0 0 0 0 0
1 27 48 36 33 30 29 28 28 26 24 41 43 41 46 45
34 91 112 123 129 128 123 108 100 102 115 127 140 147 148 148
147 139 136 126 116 102 99 106 118 136 137 136 135 128 119 108
84 4 0 0 1 0 0 0 0 0 2 15 32 42 41 38
19 1 0 26 50 20 43 39 34 33 19 11 16 15 20 28
32 31 30 30 31 29 27 10 0 0 0 0 0 0 13 0
26 5 0 0 2 9 17 18 22 24 27 38 45 39 18 0
0 0 0 1 1 3 5 6 8 10 12 14 16 19 21 24
26 36 40 35 33 31 31 30 30 27 22 31 30 28 31 31
33 87 115 127 128 130 127 114 104 103 115 131 142 148 151 149
147 143 138 127 115 103 103 109 118 138 138 137 133 128 119 109
89 12 0 0 7 2 4 0 0 0 22 21 11 12 12 16
32 31 4 99 148 38 45 35 33 31 21 19 15 12 21 27
31 31 31 31 30 29 27 11 0 0 0 0 0 1 21 0
15 1 0 2 4 5 17 18 22 24 27 38 45 42 32 20
22 25 28 30 32 34 35 36 37 37 38 38 37 37 37 36
36 35 34 35 32 30 30 30 30 28 26 27 25 21 25 28
31 82 114 125 133 136 131 119 108 104 113 128 142 148 151 148
148 144 133 121 114 105 106 112 126 142 141 139 137 128 120 110
91 9 4 1 8 2 1 0 0 0 31 24 10 12 10 10
28 27 41 118 140 29 47 33 32 30 15 13 4 7 22 24
23 25 28 29 29 28 29 12 0 0 0 0 0 15 21 0
8 9 0 2 7 1 15 16 20 23 26 37 45 45 43 42
38 41 44 44 41 41 40 40 39 38 38 37 37 37 36 36
35 35 34 34 33 31 30 30 30 27 26 27 27 23 25 26
12 74 113 123 133 137 138 128 113 106 108 119 132 142 148 149
145 139 127 115 113 106 108 113 128 142 142 140 134 127 121 111
91 8 5 13 6 2 0 0 0 0 8 15 5 5 5 11
31 0 15 63 46 24 49 27 11 5 1 0 4 0 0 5
26 34 29 26 23 24 29 13 0 0 0 0 0 22 12 0
11 10 2 3 2 0 6 9 17 21 25 37 45 44 44 43
34 40 41 42 41 41 40 40 43 42 29 25 30 34 31 18
30 30 29 29 31 31 30 30 30 28 27 28 27 25 24 16
4 66 114 122 131 139 141 135 120 107 110 115 123 133 141 145
141 130 121 117 112 107 108 117 135 144 143 142 136 130 121 110
92 8 2 9 17 7 1 0 0 0 1 1 3 4 4 24
41 22 26 59 42 48 51 25 3 0 0 0 0 0 0 0
14 30 14 23 21 19 25 14 0 0 0 0 0 6 1 0
3 0 0 0 0 0 4 9 16 19 22 34 45 44 44 42
38 37 36 37 37 35 36 53 71 41 2 0 1 4 4 0
8 22 22 21 17 13 12 18 28 29 28 27 23 18 11 9
7 50 112 124 130 138 145 141 130 114 108 115 121 126 134 139
134 126 119 116 112 106 107 119 138 145 142 140 136 130 120 110
92 9 2 0 1 1 0 0 0 0 0 0 0 2 14 52
88 99 103 99 103 102 69 35 32 0 0 0 0 0 0 0
3 26 9 20 20 10 11 15 16 8 0 0 0 0 0 0
0 0 0 0 0 0 0 2 4 8 12 16 22 19 17 16
13 12 11 15 20 22 48 84 55 7 0 0 0 0 0 0
0 0 0 0 1 0 0 0 12 26 15 5 1 2 11 18
6 32 108 120 131 140 143 141 136 119 111 115 119 122 124 127
123 120 118 117 110 105 113 130 143 145 144 140 135 129 121 110
93 10 1 0 0 0 0 0 0 0 0 1 2 2 0 2
16 54 81 91 104 104 69 21 28 0 0 0 0 0 0 0
0 16 10 20 16 16 17 2 6 2 0 0 0 0 0 0
0 0 0 0 0 0 0 0 0 0 1 0 0 0 0 0
4 8 8 8 24 32 75 71 16 0 0 0 0 0 0 0
0 0 1 7 8 6 1 1 5 2 0 9 20 30 25 19
0 12 99 119 128 140 146 145 140 127 115 117 121 124 122 123
122 121 122 120 112 108 118 134 145 146 143 140 136 128 120 110
95 14 3 0 0 5 0 0 0 0 0 2 3 0 2 1
0 1 8 34 74 103 65 2 2 1 0 1 4 0 5 5
4 8 16 10 0 0 0 0 0 0 0 0 0 0 0 0
6 0 0 0 0 0 0 0 0 6 2 0 0 0 0 2
13 18 16 13 24 51 75 38 4 0 0 0 0 0 0 0
0 3 6 9 26 10 1 1 1 1 5 6 10 6 8 2
0 2 89 116 126 137 143 146 146 131 115 116 124 128 128 123
124 125 123 120 114 110 122 141 146 144 144 140 136 128 120 110
96 18 4 0 0 9 1 0 0 0 0 0 2 2 2 4
2 0 0 1 9 21 31 25 28 24 18 17 13 2 5 3
1 1 1 0 1 0 0 0 0 0 0 0 0 0 0 0
20 6 0 0 0 0 0 0 2 8 10 8 6 2 0 2
9 19 19 15 16 71 60 6 0 12 19 0 0 0 0 1
5 8 19 33 38 2 2 0 0 0 0 3 6 3 11 3
0 0 75 115 126 137 144 146 147 139 121 116 122 127 131 130
127 127 124 122 114 115 127 142 145 145 145 140 133 126 118 109
97 17 5 1 0 5 3 0 0 0 1 0 2 3 6 5
1 0 0 0 0 1 9 12 11 4 1 0 0 0 0 0
0 0 0 0 0 0 0 0 0 0 0 0 0 0 0 0
20 2 0 0 0 0 5 5 5 7 12 11 7 3 1 3
13 27 26 11 20 79 46 13 29 50 48 7 0 3 3 7
11 9 18 41 1 3 0 0 1 0 1 0 1 7 11 2
1 0 64 112 123 136 143 147 148 144 126 119 124 130 134 137
133 131 126 123 123 119 127 140 145 144 142 138 131 125 118 110
100 15 5 1 0 1 1 0 0 0 2 0 0 2 7 4
0 0 1 2 1 0 0 0 5 6 3 1 0 0 1 3
1 0 0 2 0 0 0 0 0 0 0 0 0 0 0 0
1 0 0 0 2 3 13 19 16 12 10 10 12 15 20 24
26 24 21 3 34 70 21 22 44 55 54 23 1 6 7 12
12 7 11 9 15 2 0 3 2 2 0 2 2 13 9 1
1 0 61 110 120 132 142 148 149 146 136 123 125 136 138 138
139 138 134 127 122 117 127 139 144 143 141 137 131 125 120 112
99 11 5 1 0 3 0 2 0 0 1 1 0 0 4 2
0 0 1 2 2 1 2 1 2 1 2 4 4 11 8 29
47 48 43 70 78 82 20 0 0 0 0 0 0 0 0 0
0 0 0 0 1 1 12 16 12 7 8 9 11 16 26 28
22 13 8 0 46 69 10 11 48 59 49 12 5 6 8 12
10 9 1 0 0 0 3 3 2 2 0 2 5 13 6 2
0 0 63 108 120 129 139 145 149 145 136 127 127 137 142 141
141 141 136 127 119 117 128 140 145 143 139 134 128 123 121 115
98 9 7 2 0 2 1 1 0 0 1 2 0 0 1 3
2 1 17 7 22 1 0 1 1 0 0 0 1 3 4 44
123 96 127 133 123 123 47 0 1 0 4 0 0 0 0 0
0 0 0 0 0 0 10 9 6 3 4 5 6 13 25 27
11 0 0 0 55 71 9 15 36 20 10 10 7 5 3 1
0 0 0 0 0 2 7 0 3 0 3 4 6 12 6 4
0 1 61 107 118 125 136 141 146 149 143 127 123 130 137 137
138 136 129 122 118 120 131 141 143 142 138 133 126 124 124 119
100 10 8 4 0 2 1 0 1 0 1 2 0 1 0 3
0 0 21 60 64 8 0 0 0 0 0 0 1 3 2 5
6 26 64 53 60 68 45 2 21 6 25 4 0 0 0 0
0 0 0 0 0 0 3 3 2 3 5 5 6 14 25 25
7 0 0 0 61 72 12 11 15 9 5 0 0 0 0 0
3 0 0 1 0 5 0 2 1 0 4 5 11 11 5 5
0 2 49 108 118 124 133 141 145 147 146 132 121 123 125 127
128 126 120 117 117 124 136 141 141 141 136 129 125 126 127 123
94 5 8 3 0 3 1 0 3 0 0 4 2 3 1 3
0 5 63 53 90 2 0 0 0 0 0 0 0 0 2 3
4 3 1 2 34 80 37 3 16 6 13 5 1 0 0 0
0 0 1 0 0 0 1 3 4 8 11 8 8 18 28 22
10 9 2 1 44 30 10 3 0 0 0 0 0 0 1 3
10 3 0 0 2 0 0 1 0 0 3 8 12 9 5 4
0 1 28 97 116 122 128 138 141 143 143 135 125 121 119 120
120 118 117 120 120 127 137 140 140 137 133 128 126 128 130 124
48 0 8 5 0 1 2 0 2 6 0 3 2 0 2 4
0 0 33 50 33 0 0 0 0 0 0 0 0 0 1 2
5 7 2 1 0 31 21 0 4 3 1 0 0 0 0 0
0 1 1 0 0 0 5 11 7 13 16 13 14 26 34 28
22 24 14 11 5 0 0 0 0 0 0 0 3 1 2 3
8 4 0 2 1 0 0 0 0 0 0 6 11 7 5 2
0 1 17 59 116 121 124 133 141 142 141 137 130 123 120 118
116 115 117 119 123 128 136 139 137 134 129 126 127 130 130 75
7 0 8 5 0 1 4 0 0 5 2 2 3 0 0 1
0 0 2 2 4 0 0 0 1 3 1 0 1 0 0 3
5 8 3 0 0 0 1 0 2 1 10 0 0 0 0 0
0 0 2 0 0 0 19 19 7 14 15 14 29 43 35 32
23 14 3 0 0 0 0 0 0 0 0 2 5 2 2 4
4 1 2 0 0 0 0 0 0 0 0 3 11 7 5 2
0 0 9 27 86 119 120 125 133 140 141 138 132 127 124 119
118 118 120 121 125 131 138 140 135 130 127 126 131 131 97 21
1 0 7 4 0 0 4 0 0 3 2 1 5 0 0 2
1 0 0 8 1 1 1 0 1 3 2 1 1 0 1 0
5 7 4 2 0 0 0 7 5 2 10 10 0 0 0 0
0 0 0 0 0 0 19 22 8 13 12 8 19 36 34 26
6 0 0 0 0 0 1 7 4 0 0 1 5 1 2 2
2 4 1 0 0 0 0 0 0 2 0 1 10 6 4 1
0 0 4 17 43 97 120 122 128 136 140 141 135 130 125 123
121 120 121 123 129 136 138 139 135 129 127 128 131 107 43 2
0 0 6 5 0 0 4 0 0 3 5 1 5 0 0 1
3 2 0 4 2 2 1 1 3 3 5 4 4 2 2 1
2 4 5 2 0 0 0 3 2 0 1 2 3 0 0 0
1 0 0 0 0 1 15 26 17 18 17 9 8 17 30 9
0 0 0 0 0 0 1 4 10 0 0 0 4 2 0 2
3 1 3 0 0 0 0 0 2 5 0 0 10 7 4 1
0 0 3 4 34 52 99 120 127 134 139 142 138 131 128 125
123 124 124 126 129 134 139 137 134 131 129 131 117 64 13 1
0 0 4 2 0 0 4 1 0 0 5 2 4 2 0 1
5 6 2 0 1 1 0 0 0 0 2 6 7 7 12 6
3 4 4 1 0 0 0 0 0 2 0 2 1 0 0 0
12 0 0 0 0 0 8 27 32 21 11 2 0 0 8 0
0 0 0 0 2 2 1 3 8 1 0 0 3 1 2 6
3 2 0 0 0 0 0 0 6 6 0 0 10 7 4 0
0 0 2 1 15 50 58 100 124 133 140 142 142 136 130 124
124 124 125 127 131 136 139 138 135 132 132 123 78 31 1 1
0 0 5 4 0 0 4 1 0 0 3 5 4 3 0 2
5 1 0 0 0 0 0 0 0 0 0 0 0 0 0 0
4 4 7 3 0 0 0 0 0 0 0 0 0 0 0 0
20 5 2 0 0 0 0 2 13 0 0 0 0 0 6 0
1 0 0 6 5 3 6 4 5 3 0 0 1 2 7 4
5 6 1 0 0 0 0 0 5 5 0 0 9 7 3 0
0 0 1 0 3 31 57 56 103 130 138 143 143 138 133 126
127 124 123 127 134 139 140 139 135 135 128 82 55 7 1 1
0 0 5 4 0 0 3 3 0 0 3 6 3 5 0 0
2 1 1 0 0 0 0 0 1 3 3 3 7 11 6 1
0 0 0 2 2 1 0 0 0 0 0 0 0 0 0 0
22 0 10 0 0 0 0 0 4 0 0 0 0 0 1 0
0 0 4 8 5 1 8 4 4 4 0 0 1 9 7 5
7 7 1 0 0 0 0 0 8 6 0 0 7 7 3 0
0 0 0 0 1 6 39 56 61 110 139 144 146 140 135 132
128 125 126 132 138 140 141 138 135 130 86 68 23 0 0 0
0 0 4 4 0 0 1 3 0 0 4 7 2 7 0 1
3 3 0 0 0 0 0 0 5 8 9 13 17 22 15 4
1 0 0 0 0 1 3 0 0 0 0 0 2 0 0 0
10 5 12 0 0 0 0 0 17 1 0 0 0 0 1 0
0 3 3 6 2 1 5 5 4 3 0 0 6 9 7 7
6 6 1 0 0 0 0 0 10 7 0 0 6 7 3 0
0 4 2 0 0 0 6 31 55 69 110 141 147 144 141 137
133 133 132 135 140 142 142 142 136 99 71 33 3 0 0 0
0 0 4 3 0 0 0 4 0 0 2 7 1 6 1 0
3 3 0 0 1 0 0 4 8 13 16 20 24 29 17 4
2 2 0 0 0 0 0 7 6 0 0 0 2 0 2 0
0 0 0 0 0 0 0 0 14 10 0 0 0 1 5 0
0 1 1 5 0 1 3 4 6 4 1 2 11 8 10 9
8 8 2 0 0 0 0 4 13 8 0 0 5 8 2 0
0 5 8 0 0 0 0 6 25 55 81 108 136 146 147 143
142 142 139 140 143 146 145 142 110 74 33 4 1 1 0 0
0 0 3 2 0 0 0 4 1 0 0 3 3 6 3 0
0 0 0 1 1 0 0 5 11 16 20 22 22 22 14 7
4 10 5 0 0 0 0 0 6 1 0 2 0 0 0 0
0 0 0 0 0 0 0 0 0 0 0 0 0 1 1 0
0 1 0 4 0 1 3 4 5 2 1 7 10 8 9 7
9 9 3 0 0 0 1 4 4 4 0 0 4 8 1 0
0 3 12 4 0 0 0 1 2 12 38 75 108 129 141 148
146 146 146 148 147 147 140 100 52 18 3 1 0 0 0 0
0 0 3 1 0 0 0 2 3 0 0 3 4 4 4 0
0 1 1 1 0 0 4 11 18 21 22 21 15 21 13 10
8 18 18 1 0 0 0 0 0 2 0 3 7 0 0 0
0 0 0 0 0 0 0 0 0 0 0 0 0 0 1 1
0 0 0 2 0 2 5 6 5 0 2 13 9 11 8 9
12 12 3 0 0 0 1 4 0 0 0 0 4 7 0 0
0 2 11 12 2 0 0 0 1 3 5 10 16 39 56 73
84 89 87 83 72 50 25 13 8 4 1 1 0 0 0 0
0 0 3 1 0 0 0 0 5 0 1 4 4 2 4 0
0 2 3 1 0 2 8 15 21 25 24 18 22 19 15 12
11 20 31 7 0 0 2 0 0 0 0 6 3 0 0 0
0 0 0 0 0 0 0 0 0 0 0 0 0 1 1 4
0 0 0 1 0 3 5 6 6 0 8 8 8 8 10 11
14 10 6 2 0 0 2 2 0 1 1 0 4 7 0 0
0 0 13 10 9 0 0 0 0 1 4 5 7 7 8 9
9 9 10 11 9 9 8 6 4 6 2 0 0 1 2 0
0 0 2 1 0 0 0 0 4 0 0 1 3 3 3 1
0 0 2 0 1 6 13 19 28 27 25 17 18 20 17 12
15 14 22 11 1 0 4 6 0 0 2 3 1 3 7 1
0 0 0 0 0 0 0 0 0 0 0 0 0 3 4 2
0 1 0 0 0 4 7 9 5 2 12 6 8 8 9 10
12 8 7 5 2 0 0 0 0 2 1 0 2 6 0 0
0 0 9 14 8 8 2 0 0 1 1 3 5 7 8 8
7 8 8 9 6 5 6 5 3 2 0 1 0 4 1 0
0 0 3 0 0 0 0 0 3 1 0 0 1 2 3 2
0 1 0 0 5 11 18 23 31 28 22 13 20 21 14 10
14 11 19 9 2 0 3 13 3 11 1 0 2 11 2 3
0 0 2 0 0 0 0 0 0 0 0 0 0 4 6 0
0 0 0 0 0 6 9 13 1 9 8 3 4 7 9 11
11 9 6 6 7 3 1 0 0 2 1 0 3 7 0 0
0 0 5 11 11 6 8 0 0 0 0 1 3 5 4 4
5 5 5 7 8 5 5 2 3 0 1 0 3 3 0 0
0 0 5 0 1 0 0 0 2 4 0 0 0 3 0 2
0 0 0 2 7 14 21 32 31 27 17 13 21 15 12 10
16 7 12 3 0 0 5 11 1 0 0 0 0 5 0 0
0 0 4 5 0 0 0 0 0 0 0 0 0 9 10 1
1 1 2 0 1 6 11 10 1 18 2 5 2 7 9 11
12 10 6 8 10 3 1 0 0 2 1 0 8 11 0 0
0 0 2 10 11 9 6 4 1 1 0 0 1 3 4 4
4 4 3 4 4 2 2 2 3 1 0 1 3 0 0 0
0 0 7 0 3 0 0 0 1 4 0 0 0 1 0 2
1 0 0 8 12 19 29 41 39 24 12 14 27 15 8 10
18 7 7 1 0 0 5 15 5 0 0 0 0 0 0 0
4 6 0 0 0 0 0 0 0 0 0 0 0 17 10 1
2 1 4 0 1 5 12 4 8 16 1 2 1 6 8 11
13 9 5 7 8 3 1 0 0 4 1 0 14 11 0 0
0 3 0 8 12 7 7 6 6 4 3 2 1 2 2 2
2 2 3 2 3 4 2 1 2 1 1 2 1 0 0 0
0 0 11 0 5 0 0 0 0 5 1 0 0 0 2 0
2 0 1 9 16 27 32 42 26 16 13 15 24 16 9 9
16 6 7 0 0 2 5 15 11 0 0 0 0 0 0 0
0 25 3 0 0 0 0 0 0 0 2 0 0 24 15 1
4 3 6 0 4 6 11 0 27 9 2 0 0 3 7 11
14 9 5 9 5 2 0 0 0 5 1 2 29 6 0 0
0 4 1 6 9 11 7 6 5 7 5 4 4 4 3 2
2 4 2 2 2 3 2 2 2 2 4 2 0 0 0 0
0 1 13 4 4 0 0 0 0 3 1 0 0 0 3 2
5 0 2 12 24 44 42 30 16 13 14 18 24 14 5 11
16 6 5 0 1 4 10 13 17 0 0 0 0 0 0 0
0 22 3 0 0 0 0 0 0 0 3 0 0 20 18 2
5 3 6 0 7 12 11 1 34 2 3 0 1 4 7 9
12 6 6 10 4 0 0 0 0 5 0 2 37 0 0 0
0 6 3 2 9 10 8 5 4 4 5 7 9 4 4 3
4 4 5 5 3 3 4 8 4 3 4 0 0 0 0 0
0 0 10 3 4 0 0 0 0 5 3 0 0 0 2 1
6 1 2 12 22 36 40 26 13 12 16 26 23 12 8 10
14 6 5 0 1 4 15 10 22 1 0 0 0 0 0 0
0 11 2 0 0 0 0 0 0 0 4 0 0 12 34 1
7 5 9 0 10 19 10 6 23 1 0 0 1 7 8 8
11 7 9 6 2 0 0 0 1 4 0 8 34 0 0 0
0 7 5 1 8 8 10 7 6 2 2 3 3 5 4 4
4 4 4 7 7 8 7 6 8 4 1 0 0 1 0 0
0 0 4 3 4 0 0 0 0 5 7 0 0 0 1 2
8 5 3 16 29 39 29 18 14 14 19 29 22 11 9 11
14 4 3 1 0 6 13 13 47 4 0 0 0 0 0 0
8 7 0 0 0 0 0 0 0 0 5 2 0 7 38 2
9 9 12 0 8 17 5 10 13 0 0 0 3 8 7 9
8 8 8 7 5 0 0 0 2 3 1 24 5 0 0 0
0 7 7 1 4 9 7 8 10 6 3 2 2 6 8 8
8 6 6 7 10 7 5 6 3 1 0 0 0 2 0 0
0 0 2 4 1 1 0 0 0 6 10 2 0 0 0 8
7 14 8 20 33 40 22 11 13 17 32 29 18 11 7 8
17 6 4 0 0 11 9 13 32 16 0 0 0 0 0 0
