P2
128 120
155
58 60 63 64 65 63 46 45 45 45 45 44 44 44 44 44
44 44 43 43 43 42 42 41 40 40 39 39 38 38 37 36
36 36 35 35 35 34 33 33 32 32 31 31 30 30 28 29
28 28 27 27 27 26 26 26 25 25 24 24 24 24 25 29
30 30 30 25 19 17 26 28 26 26 26 25 25 25 23 23
22 20 24 25 27 27 27 26 27 27 27 28 28 27 27 28
28 28 28 29 28 28 28 28 29 29 30 30 31 31 31 31
32 32 32 33 32 33 34 33 34 34 34 34 34 33 33 34
52 53 53 54 62 67 55 50 46 45 44 44 44 44 44 43
44 43 43 42 42 42 41 41 40 40 39 38 38 38 37 37
37 36 35 35 35 34 34 33 33 32 31 30 30 30 29 29
29 28 28 28 27 26 26 26 26 25 25 25 25 26 26 30
31 31 31 26 20 21 24 29 27 26 26 26 25 26 24 24
24 20 26 26 27 27 27 28 27 28 28 28 28 29 29 29
29 28 28 28 29 29 29 30 29 30 30 31 31 31 31 32
32 33 33 33 34 34 34 33 35 35 33 34 34 33 34 34
3 3 2 2 36 64 61 65 61 54 47 45 44 44 44 43
43 43 43 42 43 42 41 41 41 40 39 39 38 38 38 37
37 36 36 35 36 34 34 34 33 32 32 31 30 30 29 29
29 28 28 28 28 27 27 27 26 26 26 25 25 25 27 30
31 31 31 27 22 23 23 29 28 28 27 26 26 27 24 24
24 20 26 27 27 28 28 28 28 28 29 29 29 28 28 28
28 29 29 30 30 30 31 31 31 30 32 31 31 32 32 32
32 32 33 33 33 33 35 34 34 34 35 34 34 34 35 34
13 2 0 0 28 62 55 56 42 44 46 48 57 59 59 56
51 44 43 42 42 41 41 41 40 40 40 39 39 38 38 38
38 37 36 36 35 35 34 34 33 33 32 31 32 31 31 30
30 29 29 28 28 27 27 27 27 26 26 25 26 26 27 31
32 32 33 28 22 25 22 30 28 27 27 27 27 27 25 25
25 22 27 27 28 28 29 28 28 28 28 28 29 28 29 30
30 30 30 31 31 31 31 30 31 31 31 31 31 32 32 33
33 33 34 33 35 34 35 34 34 34 34 34 34 35 35 34
11 4 0 0 21 61 56 52 7 2 10 21 31 41 49 56
59 46 43 43 43 41 41 41 41 40 40 39 39 39 38 38
37 37 37 36 36 35 35 35 34 34 33 33 32 32 31 30
31 30 29 29 29 28 28 28 27 27 27 26 26 27 28 31
33 33 33 29 23 26 23 31 29 29 29 28 28 29 26 26
26 23 27 27 29 29 28 29 30 30 30 30 31 30 30 30
31 30 31 30 31 31 31 32 31 32 32 32 33 32 32 33
33 33 34 34 35 34 35 34 34 35 35 35 35 35 35 34
5 2 0 0 16 60 56 49 7 0 0 0 0 0 2 33
58 46 43 43 43 42 41 41 41 40 40 40 40 39 38 38
38 37 37 37 36 35 35 35 34 33 33 32 32 32 32 31
30 30 30 29 30 29 29 28 27 27 27 27 27 27 28 31
34 33 33 29 23 28 22 30 29 29 29 28 28 29 26 26
26 22 27 26 30 30 30 30 31 31 31 30 31 30 31 31
31 31 31 32 32 31 32 32 31 32 33 32 33 32 32 33
33 33 34 34 34 34 35 35 35 35 35 35 36 33 33 33
9 7 0 3 11 58 57 49 7 0 0 0 0 0 0 29
59 47 43 42 42 42 42 41 41 41 40 40 40 39 39 39
38 38 37 37 36 36 35 34 34 34 34 34 33 32 31 32
31 30 30 29 30 28 29 28 28 28 28 27 27 27 29 32
34 34 33 31 24 28 23 31 30 30 29 29 28 30 27 27
26 23 28 28 30 30 30 31 31 30 31 32 31 31 31 32
32 31 31 32 32 31 32 32 32 32 32 32 33 33 33 34
34 34 34 34 35 34 35 35 33 33 34 34 34 34 34 35
0 1 0 3 8 58 56 50 7 0 2 9 1 0 0 28
58 46 43 43 42 41 41 41 41 40 40 39 39 39 38 39
38 37 37 37 37 36 36 35 34 34 34 33 33 32 32 32
32 31 31 30 30 30 29 29 28 28 27 27 27 27 29 32
35 34 34 31 24 29 25 30 30 31 29 29 29 34 28 28
27 24 29 28 31 31 31 31 31 31 31 31 31 31 31 31
31 32 32 33 32 33 32 33 33 33 33 34 33 33 34 34
34 34 34 34 33 32 33 34 34 35 35 35 35 35 36 34
0 2 0 3 6 57 59 52 8 1 11 14 4 0 0 26
57 46 42 42 42 41 42 41 41 40 40 40 39 39 39 38
39 38 37 37 36 36 35 35 35 34 34 34 34 33 33 33
32 31 31 31 30 30 29 29 29 28 29 28 28 29 30 33
35 35 34 32 24 28 27 29 30 30 30 30 30 30 28 28
28 25 29 28 31 31 32 32 32 31 32 32 32 32 31 32
32 32 32 32 32 32 32 33 33 33 33 34 34 34 34 33
34 33 34 35 35 35 35 35 35 35 35 35 35 35 37 34
0 0 0 4 5 52 57 51 8 0 3 8 4 0 0 27
57 47 43 42 42 42 42 42 41 40 40 40 39 39 39 39
39 38 37 37 36 36 36 35 35 35 34 34 33 33 33 32
32 32 32 31 31 31 30 30 29 29 29 28 29 29 30 33
36 34 35 33 24 29 29 28 30 30 30 30 30 30 28 29
28 25 28 29 31 32 32 32 32 32 32 32 32 31 32 32
32 32 33 33 33 33 34 33 33 33 33 33 33 33 33 34
35 34 35 35 35 35 35 35 36 36 36 36 36 36 37 35
4 0 0 0 4 48 57 51 10 0 1 6 11 2 0 26
56 46 42 42 42 42 42 41 41 41 41 40 40 39 39 39
38 39 38 38 37 37 37 36 36 36 35 35 34 33 33 33
33 32 32 32 31 31 31 30 30 30 29 29 29 30 31 34
37 36 36 34 25 29 31 28 32 31 31 30 30 29 30 29
28 26 29 29 32 32 33 32 33 33 33 33 33 33 33 33
33 34 34 34 34 34 34 33 33 34 33 34 34 34 35 35
36 36 36 36 36 35 35 35 36 35 35 35 36 36 37 35
19 18 17 19 21 45 54 55 12 0 2 7 11 3 0 25
56 46 43 43 42 43 42 41 41 41 40 40 39 38 39 38
38 38 38 38 37 37 37 37 36 36 35 35 34 35 34 34
33 33 33 32 32 32 31 30 30 30 29 29 29 29 31 34
37 37 36 34 25 31 33 27 33 32 32 32 31 30 30 29
32 28 30 29 33 33 35 34 33 33 33 33 33 33 34 33
34 33 34 33 33 34 35 34 34 34 34 35 35 35 35 35
36 36 36 35 36 36 35 36 36 36 36 36 35 36 37 35
44 42 41 42 41 39 47 55 14 0 1 5 6 7 5 27
56 47 42 43 43 42 42 41 41 41 41 40 40 40 39 39
39 39 38 38 37 37 36 36 37 36 36 35 35 34 35 34
34 34 33 33 32 31 31 31 31 30 30 30 30 31 31 34
37 37 37 35 27 32 36 29 35 32 32 33 29 26 27 28
29 31 31 30 34 34 33 34 33 34 34 34 33 33 33 33
34 34 34 34 34 34 34 34 33 35 35 34 35 35 36 37
36 36 36 36 36 36 36 36 35 36 36 36 36 35 37 36
32 32 34 36 36 37 41 49 38 27 22 15 11 9 15 36
56 46 43 42 43 42 42 42 42 41 41 40 40 40 39 39
39 38 38 37 37 37 37 37 36 36 35 35 35 35 34 34
34 33 32 33 33 32 31 32 32 31 31 30 31 30 31 34
37 36 36 36 28 30 35 30 35 36 33 28 24 22 20 21
26 28 30 30 34 34 34 33 33 33 33 33 33 33 34 34
35 34 35 35 34 34 34 35 34 35 35 35 36 35 35 37
35 36 36 36 36 36 36 37 36 36 36 36 36 36 37 35
22 25 30 35 39 42 37 36 37 39 41 42 43 42 40 45
52 45 43 43 43 42 42 42 41 40 41 41 41 40 40 40
39 39 39 38 38 37 37 37 37 36 36 35 35 35 35 34
34 33 33 33 33 32 32 32 32 31 31 31 31 31 32 31
33 37 31 26 23 21 25 25 27 29 32 26 23 17 16 16
20 19 28 30 34 33 32 32 33 34 34 34 34 34 34 34
35 34 35 36 35 35 35 35 35 36 35 35 35 36 36 36
36 36 37 37 37 37 36 36 36 36 36 36 36 36 37 35
19 19 20 20 21 21 23 23 24 27 31 35 38 41 42 44
44 44 44 43 42 43 42 42 42 41 41 40 40 40 39 40
40 39 38 38 38 37 37 36 37 36 36 36 35 35 35 35
34 34 34 33 33 32 32 32 32 31 32 31 30 28 22 23
29 34 32 31 31 26 21 22 25 29 27 27 30 29 27 26
18 19 17 25 31 33 33 34 34 34 34 35 34 35 35 35
36 35 34 35 35 34 35 35 35 35 35 36 36 36 36 36
36 37 36 36 37 36 36 36 36 36 37 36 36 37 36 34
18 19 20 19 20 20 19 19 18 19 19 20 22 26 30 35
40 42 44 44 44 43 43 42 41 41 41 41 41 40 40 40
39 39 39 38 38 37 38 37 37 36 36 35 35 35 35 35
34 34 34 34 34 33 33 34 33 33 32 29 20 12 14 21
22 21 21 23 25 30 32 28 26 26 30 28 28 21 21 23
22 15 17 20 21 28 34 35 35 34 34 34 35 35 35 35
36 34 35 35 35 35 36 35 36 36 36 35 36 36 36 37
36 37 37 38 37 37 37 37 37 37 36 34 35 35 34 34
34 33 38 35 33 30 27 23 19 19 18 18 19 18 17 19
19 21 25 28 32 37 39 42 42 42 41 41 41 40 40 40
40 39 38 38 38 38 38 37 38 37 37 36 36 36 35 35
35 34 35 34 34 33 34 33 29 29 25 17 14 22 22 25
25 24 21 20 22 25 29 27 24 25 30 33 30 29 28 16
13 21 20 18 20 20 27 34 35 36 36 36 36 36 36 35
36 35 35 36 36 36 35 35 35 36 36 36 37 36 36 37
37 36 37 37 37 36 36 35 34 35 35 36 36 36 36 36
37 36 39 40 42 50 64 53 28 24 20 19 19 19 18 18
18 18 19 18 19 19 20 21 24 30 40 41 41 41 40 40
39 39 39 39 39 38 38 38 37 37 37 36 36 35 35 35
35 35 35 34 34 36 35 26 22 17 13 11 13 18 23 24
24 24 24 24 27 30 25 23 21 20 22 25 24 27 25 27
17 11 27 26 24 25 22 28 35 36 35 36 35 35 36 36
36 36 36 36 36 36 36 36 36 36 36 37 37 37 36 36
36 35 36 36 36 36 37 36 36 36 36 36 36 35 35 35
0 12 43 40 43 49 62 62 56 52 48 47 47 43 39 33
21 21 19 18 18 18 18 11 10 22 40 41 41 41 41 40
39 39 39 39 38 38 38 38 38 37 37 36 36 36 36 36
37 37 35 35 36 32 23 16 14 13 15 10 9 13 16 21
25 25 25 20 22 23 27 24 22 27 31 30 30 25 24 24
32 26 17 23 27 24 25 24 29 33 35 36 36 36 35 37
37 36 37 36 36 35 36 36 36 37 35 36 36 35 36 36
36 37 36 37 36 36 36 37 36 36 35 36 36 35 35 36
0 12 40 40 42 49 60 61 60 61 56 53 60 58 56 49
28 35 36 30 23 21 19 17 17 21 39 41 41 41 40 38
39 40 40 40 39 38 38 38 38 37 37 36 36 36 36 37
48 46 40 34 29 15 8 7 10 7 11 11 10 14 15 23
25 23 27 29 34 38 32 24 23 27 33 32 36 39 40 32
28 33 26 16 24 29 22 26 22 29 33 36 36 36 36 36
36 36 36 38 36 36 36 37 36 36 36 37 37 36 35 36
36 35 35 36 36 35 35 37 35 36 36 36 36 36 36 36
0 6 11 10 11 31 57 59 57 58 50 52 56 59 59 52
37 44 50 45 47 48 44 28 16 21 39 41 41 41 40 43
51 48 47 44 41 39 38 38 38 37 38 37 37 36 36 40
50 44 30 22 8 6 4 4 2 3 6 7 6 8 10 11
14 19 22 23 28 30 25 22 20 23 21 22 30 32 28 30
26 24 31 27 23 29 27 25 28 24 28 33 35 35 36 36
36 36 35 36 36 37 36 36 36 35 37 36 37 36 37 36
35 36 37 36 36 36 36 37 35 36 36 35 36 35 36 36
0 12 12 2 1 24 59 52 12 28 24 31 39 47 52 52
42 47 51 50 54 56 56 39 17 23 40 42 41 41 40 44
53 51 50 46 45 46 45 42 41 39 38 36 37 36 36 38
46 33 16 6 2 5 9 12 11 12 14 13 12 12 13 9
9 13 20 22 22 23 22 20 21 18 25 34 34 38 30 26
25 28 39 40 36 29 24 11 25 28 21 28 35 34 36 37
36 36 36 36 36 36 37 37 37 36 36 36 37 36 36 36
36 35 35 36 36 35 36 37 36 36 37 37 37 35 36 36
7 24 41 8 0 26 59 52 3 8 1 0 1 6 8 49
45 49 52 53 56 57 58 45 18 24 44 44 43 43 42 44
53 52 49 48 50 52 51 44 46 47 43 41 40 39 37 38
31 15 3 1 0 3 3 6 11 10 11 15 16 18 19 20
16 12 16 13 13 12 17 27 29 28 26 27 30 39 37 31
29 22 29 35 29 28 21 15 9 31 20 22 30 37 37 38
36 37 36 37 37 37 37 37 39 36 36 37 37 36 37 36
36 36 37 37 37 37 37 38 37 37 37 37 37 36 36 36
19 31 39 32 5 21 61 53 3 0 0 0 7 16 9 47
42 48 48 53 55 55 56 47 19 25 46 45 43 45 45 47
30 20 34 45 49 51 50 26 15 24 33 39 40 45 43 39
27 8 1 1 1 6 8 14 16 15 17 14 14 13 19 21
25 29 32 37 39 31 27 29 33 38 33 24 28 26 21 31
34 23 14 22 20 17 12 15 4 20 23 24 24 34 35 38
38 37 36 36 37 36 36 36 38 36 37 37 37 36 36 37
37 36 36 36 35 36 36 37 37 36 36 36 35 36 36 36
21 37 31 22 13 16 61 56 6 0 0 0 15 20 15 48
21 18 29 39 48 49 50 46 20 24 45 45 39 39 48 53
23 0 4 20 24 24 39 19 0 0 0 4 9 17 25 38
27 10 4 9 12 9 10 14 15 20 22 18 17 21 26 31
33 30 35 40 45 44 45 41 37 34 38 36 27 21 19 18
17 16 15 20 20 17 14 10 10 8 27 32 25 29 37 37
38 37 38 37 37 37 37 37 38 37 37 37 36 37 37 36
37 37 36 36 36 37 37 38 37 36 35 35 36 36 36 35
7 25 30 16 3 14 61 59 8 0 1 0 7 10 11 48
13 0 2 4 6 10 16 46 22 22 31 39 46 47 51 55
26 0 1 10 15 16 33 21 0 0 0 0 0 0 0 29
24 11 4 1 3 4 5 7 7 6 11 13 15 20 20 21
27 27 26 31 36 40 46 48 45 40 35 37 36 27 25 27
30 25 29 29 35 32 30 21 16 8 19 37 38 25 36 37
39 37 38 38 37 37 38 37 39 38 38 38 37 38 37 38
38 37 37 37 37 37 37 38 37 37 36 37 37 36 37 37
0 1 2 0 0 13 62 61 10 0 0 0 1 0 5 50
11 1 0 0 0 0 5 45 21 16 0 1 7 16 27 38
27 0 0 6 4 8 29 24 0 0 0 0 0 0 3 21
15 3 3 6 7 5 4 5 5 5 12 21 33 39 36 25
28 36 36 38 41 39 41 43 43 49 43 44 42 34 35 33
31 36 35 31 29 39 40 28 19 22 15 24 42 27 32 36
38 39 39 39 39 38 38 39 39 38 39 38 38 38 38 38
38 38 38 38 38 38 37 39 36 38 38 38 37 37 38 37
0 0 0 0 0 12 63 63 13 0 5 4 14 0 4 49
11 4 0 9 0 0 5 46 22 16 0 0 0 0 0 1
21 0 0 0 0 3 27 21 0 0 0 8 4 0 5 19
5 1 2 2 1 0 2 3 6 9 19 32 39 37 35 29
24 25 34 42 36 32 32 33 36 38 43 46 51 45 34 33
36 41 50 48 41 37 37 41 36 32 23 16 32 30 28 35
38 39 40 39 40 38 38 38 39 38 39 39 39 39 39 39
39 39 39 38 38 37 37 38 38 38 38 38 38 38 38 38
0 0 0 0 0 10 62 65 17 0 16 16 24 1 5 50
13 6 1 18 7 0 4 46 22 17 0 0 0 0 0 0
18 0 0 0 0 1 32 26 0 0 1 15 14 7 4 9
0 0 0 0 0 1 1 5 14 24 24 24 29 33 37 43
45 45 40 38 36 41 40 34 36 36 38 43 44 49 46 40
36 39 42 45 43 40 41 48 47 36 29 21 17 31 24 32
38 41 39 40 41 39 40 38 39 39 39 39 39 39 39 39
39 39 39 38 39 38 38 38 39 38 38 38 37 36 36 38
34 34 31 27 24 30 62 65 23 3 2 3 2 0 4 48
12 5 2 11 8 0 4 45 22 17 0 0 0 3 0 0
15 0 0 0 0 0 28 29 0 0 5 16 18 15 6 1
0 0 0 0 0 1 6 11 15 20 27 37 46 46 48 48
49 45 51 48 48 44 42 43 44 42 38 38 37 41 47 47
48 45 38 37 34 33 32 40 50 42 32 23 18 23 21 21
38 41 39 39 40 39 39 38 38 38 38 39 38 39 39 39
39 38 39 38 39 38 38 39 38 38 38 39 37 38 38 39
58 54 51 47 42 37 36 38 8 0 3 11 4 0 3 45
9 2 3 0 2 0 4 45 21 17 0 3 4 14 0 0
14 0 2 0 0 4 28 32 0 0 3 15 17 15 5 0
0 0 1 0 0 1 2 6 5 11 17 19 25 31 32 34
33 32 36 46 42 37 36 36 37 39 40 42 45 43 50 50
49 54 57 60 55 49 42 38 36 31 25 20 20 23 22 16
32 41 38 41 40 40 39 38 38 40 39 39 39 39 39 39
40 39 39 39 38 39 39 39 38 38 38 38 38 39 38 39
30 33 39 47 51 49 40 34 16 11 9 12 4 0 5 45
9 0 8 0 0 0 4 45 21 18 4 13 5 5 0 0
16 1 0 0 0 7 30 36 0 3 4 5 13 18 11 5
0 0 0 1 0 0 2 5 7 8 9 12 18 22 30 38
47 57 56 51 52 45 39 39 41 42 44 48 54 57 56 55
56 59 61 67 69 68 60 54 44 33 26 24 23 27 34 20
33 42 42 42 41 41 41 40 39 39 39 40 40 40 40 40
41 40 40 40 39 39 39 39 39 38 38 38 37 36 37 40
0 0 1 4 8 26 47 47 53 52 48 50 47 40 38 50
22 8 10 10 7 4 9 45 22 18 8 4 0 3 2 0
23 8 4 5 0 3 30 52 33 26 22 12 7 14 29 10
0 0 2 0 0 0 0 4 6 6 9 14 19 26 33 30
31 44 41 38 38 39 42 40 46 55 64 67 75 78 84 79
78 74 77 80 79 78 81 70 71 63 58 46 41 46 53 32
31 37 38 40 41 40 40 40 40 40 40 40 41 40 40 40
40 39 38 38 37 37 37 37 37 36 37 36 33 31 29 25
0 1 1 0 0 11 59 49 17 22 31 39 43 47 51 57
66 44 39 44 47 45 43 43 21 18 3 0 0 0 0 0
38 52 40 38 34 25 35 56 29 30 33 35 34 35 24 0
0 0 0 2 1 2 5 1 1 8 14 19 27 27 30 36
45 48 46 47 48 49 51 55 61 64 76 82 88 93 99 99
93 100 108 104 99 101 108 102 96 100 100 87 82 80 78 60
39 39 36 40 40 39 39 39 40 40 38 39 38 38 39 38
39 36 39 38 35 35 33 31 27 24 22 19 19 17 17 17
0 0 11 15 1 10 59 50 20 11 20 19 15 4 38 70
67 39 43 54 56 56 56 46 21 19 2 0 0 0 0 0
40 60 48 53 58 60 56 49 20 18 19 19 22 31 42 1
0 0 2 2 1 4 2 8 11 18 26 39 42 51 60 63
65 62 72 70 76 82 87 91 89 92 91 88 87 95 107 108
96 109 115 118 108 111 110 113 109 102 108 114 106 102 93 81
54 40 38 39 40 40 39 39 39 39 40 39 38 37 35 35
31 27 28 38 23 17 18 18 19 19 20 21 23 23 24 24
25 6 25 10 0 8 58 49 6 7 8 4 5 0 39 68
58 36 45 54 55 57 59 48 22 21 19 14 7 2 0 0
39 51 50 57 60 63 53 43 25 19 20 25 33 44 31 0
4 8 9 7 9 9 16 19 29 41 51 56 64 68 73 69
70 73 79 90 89 93 96 99 101 102 104 97 105 113 121 106
106 114 120 127 126 124 124 123 121 121 121 118 112 109 102 93
69 36 39 32 20 40 39 37 36 34 31 27 24 22 20 20
20 20 20 34 22 19 23 25 25 26 26 27 28 29 29 29
29 14 15 15 4 6 56 48 1 1 4 0 0 0 36 63
42 8 13 20 22 27 34 47 22 23 45 55 51 44 38 33
48 39 47 54 57 60 55 46 28 21 27 28 36 33 9 7
7 13 16 15 20 25 31 37 46 62 63 66 76 80 76 70
75 79 87 97 94 103 100 100 101 101 100 107 112 121 123 104
107 123 132 134 127 129 132 133 134 126 123 119 116 112 105 100
84 43 33 18 22 28 25 22 22 21 21 22 23 24 25 25
27 27 25 32 23 25 29 31 31 31 32 33 33 33 33 32
5 0 19 30 8 7 55 46 1 0 0 0 0 0 32 64
43 1 0 0 0 0 5 43 24 24 45 57 56 55 56 57
57 23 18 27 33 40 41 45 31 26 28 25 29 20 11 10
9 13 23 21 27 34 37 42 52 61 69 72 80 79 71 71
77 85 95 97 101 109 110 102 105 101 105 110 109 116 123 115
121 137 139 131 134 140 139 135 131 128 126 121 117 114 107 103
95 61 19 25 25 24 25 26 26 27 27 28 30 30 31 31
32 32 30 32 26 29 33 34 35 35 36 36 35 35 36 36
30 31 34 16 6 9 57 48 4 22 3 0 0 0 24 63
44 0 0 0 0 2 6 41 24 21 41 55 56 56 57 58
56 12 0 0 1 9 19 40 33 26 25 24 18 18 18 10
12 15 22 23 31 34 40 46 48 54 66 69 69 71 68 76
82 86 99 101 104 110 110 110 111 109 112 110 118 123 125 127
134 136 132 138 143 141 138 137 138 137 130 125 119 117 109 107
101 85 34 33 30 31 32 33 32 32 34 33 34 35 34 35
35 34 28 12 10 30 35 36 36 36 36 36 37 37 37 36
19 51 50 19 1 10 61 52 9 32 3 0 0 0 19 58
40 0 0 0 10 33 31 36 34 29 35 41 42 44 44 50
51 8 0 0 1 2 9 42 32 25 26 16 16 16 12 9
15 20 21 24 33 36 43 49 53 54 59 62 63 67 75 81
83 94 96 104 101 107 105 106 111 115 119 117 119 125 127 133
142 142 141 143 140 138 144 143 144 141 133 126 121 115 110 108
104 95 59 36 36 36 36 36 36 36 36 37 37 36 36 36
35 34 26 6 3 26 36 38 38 37 37 37 37 36 37 37
7 44 43 17 3 9 61 54 4 19 7 0 0 0 18 55
36 0 0 0 9 34 33 29 31 25 28 27 32 39 36 46
50 7 0 0 0 2 1 36 31 24 18 17 15 13 14 14
16 21 23 30 37 43 52 52 57 55 57 59 59 68 77 81
83 89 100 103 101 100 106 115 115 119 123 120 122 126 125 137
145 145 144 144 139 136 143 144 143 142 137 130 123 116 115 111
105 100 76 27 23 20 15 21 37 38 37 36 25 6 7 12
13 13 21 9 4 25 36 38 39 38 37 37 37 37 37 37
0 35 31 12 3 8 61 55 4 2 3 0 0 0 20 55
34 0 2 0 1 14 17 28 28 26 28 30 34 39 40 48
49 8 0 0 0 0 2 35 27 23 19 15 14 5 14 17
18 22 29 28 41 48 48 53 58 60 53 58 61 75 77 79
84 92 97 103 105 104 114 117 118 125 123 125 132 127 129 141
143 144 144 144 144 143 143 144 144 143 141 133 126 121 116 113
105 101 87 20 0 1 2 19 27 21 6 5 2 7 1 0
0 0 6 1 0 24 37 37 39 38 37 38 37 37 37 37
2 21 22 1 0 7 59 54 4 0 0 0 0 0 22 57
33 0 2 1 0 0 0 25 22 26 17 10 16 22 28 35
40 8 0 0 0 0 4 32 24 21 13 16 11 4 17 19
20 27 28 32 44 49 50 56 58 54 51 58 59 68 76 88
85 90 98 101 110 106 111 115 122 127 125 129 140 132 133 135
141 145 145 145 144 144 141 144 144 142 140 133 128 122 118 113
107 103 93 33 0 0 0 0 0 0 0 0 0 0 11 0
0 0 1 2 1 23 36 38 39 38 38 38 38 38 38 37
25 7 4 7 15 19 57 49 3 0 0 0 0 0 25 58
32 0 0 7 2 0 0 32 31 31 14 0 0 0 0 0
17 8 0 0 1 0 8 27 21 14 11 14 4 9 17 16
22 28 34 41 47 44 52 53 59 57 59 57 63 70 85 85
83 86 97 105 104 103 113 115 122 125 127 133 140 139 129 127
139 145 145 145 144 144 144 144 144 143 142 135 130 123 119 114
107 103 97 49 0 0 0 0 0 0 0 0 0 0 6 0
0 0 2 8 1 27 37 38 39 38 38 38 38 38 37 37
0 6 4 18 53 52 54 47 25 19 14 9 7 4 30 58
34 0 0 5 7 0 0 34 36 31 16 0 0 1 0 0
13 8 0 5 14 6 13 25 20 10 18 13 0 7 14 16
25 30 35 42 44 48 51 52 54 63 67 62 67 75 84 82
89 90 97 102 107 105 107 112 120 125 128 132 140 143 137 137
141 144 145 145 145 144 144 144 144 143 142 139 130 123 119 116
109 103 100 73 20 19 18 14 10 13 2 0 0 0 0 0
0 0 7 20 12 31 38 38 40 39 38 38 37 37 37 37
9 34 40 33 57 59 58 50 56 53 42 40 49 41 44 49
38 7 0 4 14 7 0 33 37 31 17 0 1 10 2 0
10 8 0 16 24 15 19 25 16 9 17 7 0 7 17 18
23 30 35 41 48 47 52 51 54 63 68 67 68 77 80 81
75 90 94 103 110 112 114 114 116 122 123 127 139 143 143 143
145 144 144 144 145 144 143 144 144 142 141 135 131 124 120 114
109 102 100 87 42 40 39 38 21 18 1 0 0 0 0 1
1 3 23 28 28 34 38 38 39 38 37 38 37 38 37 37
49 49 57 55 57 59 60 57 31 20 13 14 21 24 24 46
45 37 27 23 33 28 19 39 35 27 15 0 8 23 10 2
9 17 6 23 24 23 25 23 14 11 13 8 0 10 16 17
25 27 35 43 41 49 55 59 63 60 61 64 71 79 86 84
88 94 92 100 104 116 116 119 117 117 120 128 133 140 140 139
144 144 144 144 143 143 142 142 142 142 140 136 131 124 122 114
110 103 102 92 49 40 40 34 11 0 0 0 0 1 33 35
34 34 32 32 34 38 38 38 38 38 38 37 37 38 37 37
45 34 53 46 35 40 45 52 11 0 0 0 9 21 15 47
46 33 27 34 43 50 52 54 44 26 17 0 11 22 10 2
11 45 42 47 44 38 25 18 13 9 13 10 2 13 19 21
27 28 34 42 55 61 59 60 63 64 66 68 74 80 95 99
89 90 97 101 110 118 117 116 116 119 126 131 134 136 143 142
143 142 144 144 143 142 143 142 142 142 142 137 130 125 124 117
110 103 102 94 58 39 39 31 0 0 9 6 0 1 35 38
37 36 35 34 37 38 39 38 39 39 38 38 38 38 37 37
21 3 26 16 0 0 1 41 14 0 1 3 6 17 25 50
47 19 0 2 11 15 46 55 43 25 19 1 4 5 4 0
9 48 48 52 49 39 26 23 12 9 13 13 3 13 21 19
24 31 37 49 58 57 62 63 64 69 74 74 80 84 94 96
93 93 97 102 108 117 116 115 120 120 123 120 126 128 139 142
140 141 144 144 143 143 144 143 143 142 142 138 131 122 124 118
110 105 102 97 69 40 40 32 0 0 7 7 0 0 33 38
37 37 36 36 38 37 38 37 37 38 38 38 37 37 37 37
19 0 0 3 0 0 0 39 16 0 14 40 24 12 18 50
47 14 0 9 30 15 46 52 38 27 27 16 3 4 1 0
8 44 46 48 44 37 20 22 14 14 11 17 5 17 18 20
23 29 41 50 57 63 67 68 72 80 77 77 86 86 84 85
93 95 97 101 101 108 113 117 120 119 122 123 127 133 137 141
139 144 144 143 143 143 144 142 143 142 141 135 131 126 124 118
111 107 100 100 80 40 39 32 0 0 0 1 0 0 31 38
38 36 36 37 37 37 37 37 38 38 38 38 37 37 37 37
5 1 0 11 4 0 0 39 17 5 32 42 12 1 13 52
49 12 0 6 31 32 48 49 30 28 28 11 0 2 0 0
8 43 42 44 39 30 17 26 17 15 7 22 7 15 20 22
26 30 43 51 57 71 73 76 75 83 82 86 87 90 89 92
99 94 100 95 101 105 109 113 117 117 120 123 127 128 133 134
139 142 142 137 144 143 144 143 143 142 142 139 137 133 126 119
111 106 101 102 89 43 37 31 0 0 0 0 0 0 29 38
37 37 37 38 38 37 38 38 39 38 37 37 37 38 37 36
39 40 33 40 10 0 0 38 19 3 23 48 10 0 13 54
50 11 0 0 8 19 49 48 29 31 28 8 1 3 0 0
7 46 40 39 36 25 15 25 22 19 11 24 12 17 21 22
27 33 44 51 59 71 76 72 79 89 96 102 102 93 94 93
98 94 96 98 104 112 110 114 113 116 119 124 125 121 124 124
137 140 142 140 142 142 142 142 142 142 142 142 140 135 128 121
112 107 102 103 94 29 7 7 0 0 1 0 0 0 27 39
38 38 38 38 38 37 37 38 37 37 37 36 37 37 36 37
19 12 15 16 3 0 0 37 17 0 10 29 5 5 14 55
51 12 0 0 0 8 47 49 30 29 29 37 38 32 31 31
31 49 43 39 29 20 18 23 31 24 12 21 9 17 20 25
26 32 42 48 59 65 74 79 94 95 100 109 107 96 98 103
100 99 98 100 104 109 110 117 116 116 120 127 127 120 130 132
139 139 142 143 142 141 143 144 142 139 140 141 138 133 127 118
110 105 100 103 95 40 3 5 0 0 0 1 3 2 24 38
37 38 38 38 38 37 37 38 37 38 38 37 37 37 37 36
14 0 0 0 0 0 0 35 16 0 0 0 1 4 12 54
51 11 0 0 0 5 46 50 29 31 32 55 60 57 58 59
58 56 45 36 20 16 19 16 38 30 17 22 7 10 21 22
24 31 38 48 52 77 115 123 131 132 120 106 109 105 98 103
101 99 100 104 109 111 118 120 123 130 130 135 133 133 139 137
139 141 143 143 141 139 142 142 139 134 136 137 134 127 117 110
106 102 98 102 94 43 24 21 1 0 0 0 0 0 8 25
38 38 38 39 37 38 38 37 37 37 37 37 37 36 36 35
21 0 0 0 0 0 0 35 19 0 0 0 0 0 10 54
49 8 0 0 0 5 46 52 28 30 32 56 60 59 59 60
59 59 36 30 19 19 18 17 42 29 29 16 16 9 19 20
23 26 31 44 82 126 112 98 92 117 142 126 90 111 107 102
101 103 104 109 114 115 120 122 132 139 137 137 132 136 140 137
141 142 143 143 138 140 139 139 139 134 126 126 119 114 105 98
98 96 92 98 88 34 13 4 0 0 0 0 0 0 12 7
17 30 38 39 38 38 38 38 37 37 38 37 37 36 36 36
31 0 0 0 0 0 0 32 17 0 0 0 0 0 9 53
51 9 0 0 0 3 43 48 26 32 28 34 38 38 39 40
41 45 31 26 19 14 16 17 39 33 32 11 19 7 19 22
27 26 31 77 136 131 135 136 124 113 116 140 116 104 123 111
104 109 110 114 109 113 121 123 130 140 135 136 138 137 136 131
139 140 140 138 137 135 135 141 136 118 105 103 101 90 82 74
82 83 84 89 72 27 9 0 0 0 0 0 1 0 3 8
2 19 39 39 39 38 39 38 38 38 37 37 37 36 36 36
24 0 0 0 0 0 0 32 17 0 0 0 0 0 9 53
51 9 0 0 0 2 42 50 27 32 29 39 42 41 40 38
39 42 30 21 16 11 17 26 30 43 36 19 14 4 21 25
29 32 39 122 135 143 147 148 146 123 97 105 138 125 137 119
110 112 107 115 112 116 120 122 133 138 142 141 136 139 134 126
136 138 137 136 135 134 133 124 111 97 84 71 58 43 33 27
43 55 64 70 47 18 4 0 0 0 0 0 2 0 4 9
4 16 40 40 40 39 39 39 39 37 38 38 38 38 37 37
0 0 0 0 0 0 0 32 24 6 7 9 13 17 27 55
52 11 0 0 0 3 47 55 27 30 30 44 47 46 46 45
47 47 32 22 12 12 20 23 23 49 29 24 6 10 17 26
30 29 55 136 139 148 148 148 147 137 79 76 131 138 140 133
115 111 109 115 123 119 122 127 128 138 139 137 144 141 141 138
135 136 134 130 125 112 95 84 84 66 53 37 26 17 13 23
38 42 50 55 27 16 8 5 0 0 0 0 2 0 2 10
5 15 40 41 40 41 40 40 39 38 38 39 38 38 38 38
20 19 18 16 14 14 14 40 47 44 46 48 50 53 53 47
36 17 10 7 5 6 46 51 26 31 32 43 48 46 47 47
49 46 31 19 12 13 17 24 24 34 25 19 4 5 10 30
31 35 78 143 144 146 148 148 148 141 109 111 130 136 135 134
128 114 113 122 126 127 127 136 135 139 142 142 143 140 138 138
130 129 127 107 86 70 63 55 47 38 32 33 27 27 29 34
41 48 53 31 15 10 7 16 4 0 0 0 1 0 2 10
6 14 40 41 40 39 39 39 38 38 37 37 37 37 37 37
55 56 54 52 49 50 52 54 51 48 51 52 52 52 51 49
46 47 46 43 41 37 46 47 40 41 42 43 44 45 45 44
46 44 32 21 12 14 18 28 28 24 27 11 6 2 6 27
30 31 93 149 147 147 147 148 147 147 146 136 133 130 126 130
134 127 125 128 133 132 134 136 138 137 140 141 141 137 133 126
131 126 112 93 84 78 75 73 63 60 45 27 28 38 42 53
55 68 55 17 7 4 7 15 9 0 0 0 1 0 2 8
10 15 36 39 38 38 38 38 38 38 37 38 38 37 36 32
59 58 59 57 56 59 59 50 38 37 48 48 47 46 46 46
46 46 45 45 45 45 44 44 44 43 44 44 44 43 42 42
41 43 30 20 12 13 17 30 33 17 17 7 5 0 1 21
30 32 96 149 148 147 146 147 147 147 147 144 102 124 118 125
131 117 124 136 142 139 140 140 136 137 140 137 139 140 137 128
126 123 114 99 90 87 75 58 47 37 14 31 43 51 54 74
91 97 57 14 11 2 9 10 3 0 0 1 8 3 3 7
17 19 33 39 40 39 39 38 37 37 36 36 38 26 6 6
59 55 57 55 55 59 55 31 28 32 45 47 47 46 46 46
46 45 45 45 45 45 44 44 43 43 43 42 42 42 40 41
41 43 28 19 9 14 21 20 36 14 6 5 2 0 1 15
30 36 77 150 147 147 147 147 147 146 138 77 61 114 111 124
131 125 123 133 140 140 141 143 139 142 141 132 135 138 136 130
127 115 105 100 88 69 46 56 68 72 37 50 75 69 74 89
116 123 71 14 13 10 8 8 0 0 0 0 3 0 1 11
11 13 34 39 39 39 39 39 38 39 38 37 37 22 0 4
27 29 26 25 25 33 30 27 28 32 44 46 43 38 37 36
35 34 32 31 31 30 29 28 26 26 26 26 26 27 26 27
37 42 27 17 10 16 26 12 30 12 1 4 1 1 0 5
24 33 51 144 147 147 147 147 137 104 72 48 99 112 128 137
134 130 127 129 136 134 139 140 132 141 142 135 136 139 137 132
127 120 105 95 84 80 75 85 82 75 52 66 105 97 100 114
139 141 97 18 14 12 9 8 9 9 10 11 12 13 16 20
21 20 27 28 28 25 26 37 38 38 37 37 37 18 0 0
0 2 0 0 0 11 5 26 28 31 43 45 32 7 2 2
1 1 1 1 0 0 0 0 0 0 0 0 0 0 0 5
34 38 27 10 11 24 24 18 28 18 0 1 0 0 0 2
16 28 38 122 149 147 147 145 118 92 77 96 105 99 147 145
139 135 131 124 127 136 141 140 136 141 140 139 139 140 139 135
128 117 112 114 114 115 110 107 99 78 66 74 102 106 119 134
143 142 118 31 14 13 36 20 24 26 30 27 24 28 26 23
23 18 16 39 36 16 18 35 38 38 37 37 36 15 0 0
0 2 1 0 0 12 16 26 27 31 42 45 35 8 0 0
0 0 0 0 0 0 0 0 0 0 0 0 0 0 2 5
36 34 25 11 7 23 15 3 25 24 14 1 0 1 0 0
8 22 36 83 148 147 145 142 117 106 90 102 95 98 145 147
142 137 130 125 119 128 137 137 138 140 144 142 140 143 142 142
142 143 144 139 129 122 115 104 92 75 73 81 102 112 123 139
143 142 128 68 15 13 31 20 24 30 35 52 46 63 65 69
36 20 28 78 86 10 15 34 37 37 22 13 11 4 0 0
0 2 0 4 15 22 21 26 26 30 41 46 38 12 0 0
0 0 0 0 0 0 0 0 0 0 0 1 0 0 0 7
32 29 19 11 8 19 16 0 12 23 5 0 0 0 0 0
3 16 29 51 133 148 142 140 119 116 104 112 109 114 146 144
140 135 129 128 120 128 130 141 141 143 143 143 143 144 144 144
144 142 140 136 133 119 104 89 82 78 83 98 112 124 137 141
142 141 139 104 21 12 27 18 27 32 39 93 74 96 93 97
43 19 63 115 119 55 14 33 37 32 1 0 0 0 0 0
0 1 8 20 21 21 20 24 25 29 39 46 40 17 0 0
0 0 0 0 0 0 1 0 0 0 1 0 0 0 1 10
28 22 17 19 9 20 12 0 6 27 6 0 0 0 0 0
0 11 27 41 100 147 137 139 123 123 117 126 127 125 144 139
138 135 129 132 130 127 133 141 137 132 134 139 142 145 145 144
144 141 139 138 135 122 110 100 92 90 99 117 130 138 142 141
142 141 141 122 44 8 25 26 32 35 34 65 51 57 52 49
33 27 49 60 44 34 23 30 37 31 0 0 0 0 0 0
0 0 11 21 22 22 20 25 26 29 38 45 41 21 0 0
0 0 0 0 0 0 0 0 1 0 1 0 2 4 6 14
20 18 14 16 11 21 12 0 2 24 17 0 0 0 0 0
0 5 22 42 81 133 135 131 135 127 135 144 136 128 137 137
132 131 129 128 126 132 133 135 129 118 118 127 139 143 142 143
145 144 140 138 134 131 121 108 101 106 118 130 140 142 142 141
141 142 140 129 69 4 7 31 36 38 27 29 28 25 21 25
25 25 25 26 24 25 23 26 38 36 9 0 0 0 0 0
0 0 9 21 22 22 20 24 25 28 36 45 41 24 0 0
0 0 0 0 0 0 0 0 0 1 2 1 2 2 2 13
15 17 20 12 10 15 10 0 0 10 29 2 0 0 0 0
0 3 23 39 78 107 142 125 131 145 144 135 118 116 127 134
127 123 125 126 127 126 129 126 127 113 116 118 135 138 132 140
143 143 139 137 136 139 134 120 112 113 122 130 141 141 142 142
142 141 141 136 91 3 9 30 35 39 27 29 24 25 18 19
21 27 26 26 25 25 24 26 38 37 28 4 0 0 0 0
0 0 9 21 21 22 20 24 25 28 36 44 42 27 1 0
0 0 0 0 0 0 0 0 0 1 1 0 0 1 4 9
13 11 21 14 8 12 7 0 0 3 24 8 0 0 0 0
0 0 23 39 79 93 129 146 133 127 141 146 134 137 139 126
123 114 118 123 126 124 127 122 127 122 117 121 134 133 129 138
142 141 139 141 140 142 141 130 118 114 118 126 140 143 142 142
142 141 141 139 109 13 3 7 21 38 27 28 18 20 18 21
22 29 27 27 25 24 21 21 32 15 16 1 0 0 0 0
0 0 11 21 21 23 20 23 25 28 34 44 43 28 3 0
0 0 0 0 0 0 0 1 1 1 1 0 0 0 5 8
6 10 19 11 5 13 4 0 0 1 13 16 0 0 0 0
0 0 27 45 84 94 105 143 148 144 138 134 139 146 138 124
123 116 118 119 122 128 124 121 126 123 130 134 133 138 136 138
136 131 140 144 144 144 144 139 124 115 115 120 136 141 142 142
141 140 140 140 126 47 2 3 23 36 27 27 16 21 18 20
24 28 28 27 25 24 21 13 9 0 0 11 0 0 0 0
0 0 11 20 21 22 20 23 25 28 33 43 42 30 3 0
0 0 0 0 0 0 0 1 0 1 0 0 1 2 4 3
5 9 10 6 3 9 1 0 0 0 4 19 2 0 0 0
0 0 24 50 87 96 96 114 143 148 148 145 143 139 142 124
117 110 112 118 121 126 125 124 130 126 126 130 129 131 136 134
132 136 139 142 144 143 142 141 126 115 112 115 126 136 141 142
140 140 141 140 134 87 9 8 30 36 28 26 15 22 18 18
24 27 26 26 24 23 21 1 0 0 0 0 0 0 0 0
2 0 10 20 21 22 20 23 25 27 32 43 42 30 5 0
0 0 0 0 0 0 0 0 0 1 0 0 2 1 0 4
1 5 8 5 1 9 0 0 0 0 1 11 8 0 0 3
0 0 25 65 86 94 98 102 111 139 147 147 147 147 144 106
114 110 111 116 119 124 123 126 128 128 122 126 123 133 134 129
128 135 142 144 144 141 144 141 129 114 110 109 120 136 135 138
137 139 141 142 136 112 31 13 37 34 28 25 12 18 19 18
24 26 26 26 25 24 23 2 0 1 12 0 0 0 0 0
18 10 16 19 19 21 19 22 25 27 31 43 42 32 6 0
0 0 0 0 0 0 0 0 0 1 0 0 2 1 0 3
2 2 7 2 3 6 0 0 0 0 0 2 13 2 1 4
1 0 19 65 82 92 98 104 104 107 133 141 143 142 119 83
115 112 116 119 118 121 125 125 125 128 124 131 129 133 131 132
130 136 142 136 142 135 142 138 125 111 106 106 120 132 131 131
134 139 141 141 140 118 47 10 38 31 24 12 5 13 19 16
25 26 26 25 26 25 23 1 0 5 11 0 0 0 0 0
49 35 25 17 19 20 18 21 25 26 30 42 42 32 7 0
0 0 0 0 0 0 1 0 0 0 1 0 1 2 0 1
2 2 5 3 4 8 0 0 1 0 0 0 12 6 0 2
0 0 18 69 85 95 102 104 105 103 102 106 107 94 53 90
112 114 116 120 120 123 125 130 129 127 133 133 127 133 135 133
136 142 141 136 141 142 137 132 118 105 97 89 111 135 137 141
138 136 140 140 141 123 55 14 40 30 19 8 2 11 15 16
24 26 25 24 26 26 25 6 7 10 10 8 7 5 4 3
27 4 7 17 19 20 18 20 24 25 28 41 42 33 8 0
0 0 0 0 0 0 1 0 0 0 0 1 0 0 0 1
3 2 2 3 6 11 0 0 1 1 0 0 11 8 1 1
0 0 17 71 88 97 104 104 104 103 103 105 115 101 85 103
102 109 115 119 124 123 129 130 130 132 134 133 119 131 133 126
131 136 133 136 140 133 132 122 107 96 92 69 92 120 131 133
133 129 135 139 138 122 63 24 39 30 18 7 2 11 15 17
25 27 26 25 26 26 25 7 10 11 10 7 5 4 2 1
22 0 1 16 19 19 18 19 24 25 29 40 41 33 10 0
0 0 0 0 0 0 1 0 0 0 0 1 0 0 1 0
2 7 0 2 10 17 0 0 0 1 1 0 4 12 4 0
0 0 16 74 89 97 104 107 106 108 112 118 121 116 105 102
99 101 114 116 119 121 131 134 136 130 135 133 128 133 129 120
126 130 132 135 135 127 124 113 99 91 102 80 61 96 106 94
77 85 105 114 122 112 50 26 38 29 18 7 9 15 15 17
26 27 26 25 26 26 26 5 0 0 0 0 0 0 0 0
24 0 0 16 18 19 17 18 22 24 27 39 41 34 11 0
0 0 0 0 0 0 0 0 0 0 0 1 0 0 0 0
4 10 2 4 20 12 0 0 1 8 5 4 3 14 9 1
1 0 19 77 89 98 107 112 114 117 119 121 119 113 100 101
99 103 112 114 119 124 130 134 136 132 132 133 136 135 129 125
126 131 133 133 132 126 114 105 91 102 105 107 81 77 81 74
65 58 74 96 102 79 25 31 36 28 22 16 12 19 16 21
27 28 27 26 26 27 26 7 0 0 0 0 0 0 0 1
26 0 0 14 17 18 17 17 21 23 27 38 40 33 11 0
0 0 0 0 0 0 0 0 0 0 0 0 0 0 1 4
9 13 2 12 22 6 0 0 4 3 1 4 7 21 13 3
0 1 24 77 88 99 110 114 117 119 120 120 115 108 100 96
97 105 111 108 117 126 128 130 134 134 135 136 132 132 130 124
132 133 129 132 124 113 103 88 95 105 101 111 116 115 99 88
78 84 81 56 36 21 17 36 33 29 24 18 14 20 17 23
29 28 26 24 25 26 24 6 0 0 0 0 0 0 0 7
34 10 5 15 17 18 17 16 20 22 25 37 40 34 11 0
0 0 0 0 0 0 0 0 0 0 0 0 0 0 2 5
9 15 12 20 18 3 0 1 5 0 0 3 16 22 20 4
0 0 31 80 92 101 110 115 118 119 120 116 111 104 98 90
97 104 109 115 124 128 128 128 132 131 131 132 129 130 128 123
130 130 133 124 117 106 86 85 102 106 111 115 114 114 91 69
27 19 11 0 2 9 17 42 32 30 26 18 14 19 18 23
28 28 26 25 26 25 24 6 0 0 0 0 0 0 0 2
38 35 32 26 15 15 15 15 20 22 25 36 40 34 12 0
0 0 0 0 0 0 0 0 0 0 0 0 0 0 2 1
10 18 21 24 14 1 0 2 6 0 0 15 22 27 24 7
0 0 41 79 95 103 109 114 118 120 120 115 108 102 96 88
95 101 108 117 123 123 121 127 129 128 129 128 125 128 128 125
118 125 124 117 114 98 87 98 108 119 121 121 117 111 87 73
35 18 6 0 2 7 22 41 30 29 25 17 14 20 19 24
28 27 25 25 25 24 23 7 0 0 0 0 0 0 0 0
21 8 6 7 8 8 9 10 18 20 24 35 39 34 12 0
0 0 0 0 0 0 0 0 0 0 0 0 0 2 5 7
16 24 21 17 6 0 0 5 3 0 7 23 24 29 27 11
0 0 50 84 97 104 109 115 118 121 120 117 107 98 90 84
87 92 105 113 119 120 122 125 129 127 126 118 116 125 123 114
109 121 120 116 108 97 92 106 124 133 127 124 116 98 78 79
45 19 3 0 7 10 27 39 30 29 25 17 14 19 18 25
28 27 26 26 26 25 25 7 0 0 0 0 0 0 0 0
24 2 0 2 6 6 6 8 19 20 24 34 39 34 12 0
0 0 0 0 0 0 0 0 0 0 0 0 0 0 4 11
19 21 21 11 1 0 1 1 0 1 6 12 22 22 33 12
0 2 63 88 100 105 110 114 118 120 120 118 110 96 90 80
83 85 100 105 114 120 123 122 123 122 121 124 122 122 123 120
119 119 116 113 107 91 90 111 127 132 133 126 118 103 85 83
53 14 0 0 21 27 33 36 29 28 22 15 13 16 20 26
28 27 26 26 26 25 24 8 0 0 0 0 0 0 0 0
24 3 0 1 5 7 10 12 19 20 23 33 38 33 13 0
0 0 0 0 0 0 0 0 0 0 0 0 0 0 4 15
20 19 10 4 0 0 0 0 0 1 0 0 15 21 32 3
0 8 74 94 100 106 110 114 117 119 121 117 111 97 90 83
85 93 97 105 111 119 117 120 116 112 119 123 124 115 122 123
114 107 112 115 102 79 76 106 111 110 108 97 96 90 80 79
48 0 0 25 47 19 39 34 31 29 18 10 14 13 18 24
29 27 27 26 27 25 24 8 0 0 0 0 0 0 10 0
24 3 0 0 1 6 13 14 18 20 23 33 38 33 13 0
0 0 0 0 1 2 3 4 6 8 9 11 16 18 19 18
19 10 5 1 0 0 1 0 0 0 0 5 16 30 29 0
0 21 84 97 102 107 111 116 118 120 120 120 115 103 89 81
84 90 99 104 109 114 113 114 109 97 111 122 122 119 121 118
111 108 115 116 93 56 32 41 67 60 55 44 34 35 42 35
31 28 5 94 140 34 41 32 30 28 19 17 14 11 19 25
28 28 28 27 27 26 24 9 0 0 0 0 0 1 18 0
14 1 0 1 2 3 13 14 18 19 22 31 37 35 25 15
18 21 23 25 27 28 30 30 31 31 32 29 28 24 18 14
12 2 0 0 0 0 1 0 0 0 1 18 22 31 14 0
0 44 90 98 103 107 111 115 119 120 119 121 115 107 95 81
79 81 91 95 106 111 112 114 114 111 115 116 115 117 114 111
105 107 115 112 88 85 74 62 103 96 112 101 53 30 15 11
27 25 37 113 133 25 43 30 29 27 14 12 3 6 19 21
19 21 24 25 25 24 25 10 0 0 0 0 0 13 18 0
7 7 0 1 4 0 12 13 16 18 21 30 39 37 37 36
32 35 36 37 35 34 34 33 33 33 32 29 26 26 15 14
4 0 0 0 0 0 0 0 0 0 16 13 30 33 4 0
2 68 94 101 105 108 111 114 118 119 121 121 119 110 96 88
71 80 86 92 101 104 109 108 110 112 113 110 103 112 111 107
105 111 115 106 91 101 105 94 100 82 90 73 49 58 28 12
29 0 14 57 43 22 44 25 9 5 0 0 4 0 0 4
23 30 25 22 20 20 25 12 0 0 0 0 0 19 11 0
10 7 0 1 0 0 5 7 13 17 20 31 39 38 38 37
29 34 35 36 35 35 34 34 37 37 25 15 17 19 23 4
0 0 0 0 0 0 0 0 2 14 12 24 31 22 2 0
16 85 98 101 105 109 111 116 120 120 119 119 116 112 99 89
70 62 72 81 90 95 105 105 107 107 110 109 105 100 105 106
109 112 110 102 99 111 121 108 105 97 78 48 44 59 42 23
40 20 25 54 39 44 47 23 3 0 0 0 0 0 0 0
12 27 11 19 17 16 22 12 0 0 0 0 0 5 1 0
2 0 0 0 0 0 2 5 11 14 17 28 37 37 37 35
32 32 31 31 31 29 29 46 62 34 3 3 9 13 10 16
6 0 1 4 0 0 2 10 16 5 15 32 34 4 1 0
38 92 100 101 104 109 113 115 118 119 117 117 105 111 103 90
73 65 65 69 78 85 96 99 101 104 105 106 103 102 105 106
108 103 109 105 109 115 118 110 101 102 91 60 56 62 63 75
87 93 98 91 95 94 63 31 29 0 0 0 0 0 0 0
2 22 7 16 16 8 9 13 14 7 0 0 0 0 0 0
0 0 0 0 0 0 0 1 2 5 8 12 17 15 14 12
10 8 8 10 16 17 41 75 47 7 0 2 1 0 0 0
8 17 17 18 17 17 15 8 4 12 29 39 18 3 3 0
68 95 102 104 104 109 112 116 118 119 118 120 116 111 105 87
72 61 65 62 64 66 80 96 103 107 105 98 104 104 104 106
107 106 105 105 114 115 117 108 104 90 94 79 63 65 78 95
105 99 87 83 97 96 64 19 26 0 0 0 0 0 0 0
0 13 9 16 12 13 15 1 4 1 0 0 0 0 0 0
0 0 0 0 0 0 0 0 0 0 0 0 0 0 0 0
2 5 5 5 20 27 64 62 14 0 3 8 6 1 1 4
14 7 4 2 2 3 3 10 19 31 28 23 2 7 3 2
80 102 106 106 105 106 111 115 117 118 120 120 118 108 108 88
68 58 62 63 57 66 74 85 90 99 99 91 93 103 99 108
110 108 103 106 111 112 113 103 95 86 79 76 63 57 30 54
95 99 95 92 96 97 61 2 2 0 0 1 3 0 4 4
3 6 13 8 0 0 0 0 0 0 0 0 0 0 0 0
4 0 0 0 0 0 0 0 0 3 1 0 0 0 0 1
10 14 12 10 19 44 65 32 4 5 8 11 7 4 2 2
7 21 26 31 31 26 24 24 22 22 22 4 7 8 4 9
90 105 106 106 104 105 109 114 118 116 116 120 116 112 106 93
75 67 65 63 61 60 66 74 82 89 96 96 98 105 108 112
111 108 96 100 109 110 106 97 80 67 58 53 46 22 2 4
11 29 47 54 53 56 41 24 24 20 15 15 11 2 4 3
0 1 1 0 0 0 0 0 0 0 0 0 0 0 0 0
16 5 0 0 0 0 0 0 0 3 6 5 3 0 0 0
5 15 15 12 12 62 47 7 3 6 6 9 23 27 1 0
0 4 16 31 34 27 25 20 20 17 3 6 6 7 3 10
84 108 107 107 103 104 108 111 115 118 117 116 113 113 105 100
81 66 61 62 60 59 59 63 74 85 90 92 93 100 104 105
107 101 103 101 106 101 93 88 75 49 23 30 8 2 2 1
2 3 8 30 26 20 11 7 4 2 0 0 0 0 0 0
0 0 0 0 0 0 0 0 0 0 0 0 0 0 0 0
17 1 0 0 0 0 3 4 3 5 9 8 4 0 0 1
9 22 20 8 13 28 3 2 3 4 7 36 62 28 0 0
0 5 18 33 31 28 20 13 7 0 2 6 7 8 7 21
78 112 110 107 103 101 107 110 113 116 120 118 113 114 109 107
92 69 59 56 58 56 57 59 65 74 83 83 91 95 97 102
95 97 98 94 105 99 94 89 82 86 70 51 2 0 0 1
0 0 1 2 4 12 4 0 0 0 0 0 0 0 1 4
1 0 0 2 0 0 0 0 0 0 0 0 0 0 0 0
1 0 0 0 1 2 10 14 12 8 7 7 8 11 16 19
21 19 17 3 1 0 1 5 6 3 11 69 100 22 0 0
0 0 5 9 10 8 0 0 0 0 5 8 10 13 12 24
76 112 111 108 103 98 103 106 111 113 118 119 114 118 114 111
105 88 73 56 52 55 56 54 56 61 71 76 80 81 87 90
97 96 93 100 103 100 97 95 96 98 76 51 3 7 17 26
0 0 0 0 0 2 6 1 0 0 4 8 15 35 20 27
43 43 40 65 70 73 16 0 0 0 0 0 0 0 0 0
0 0 0 0 0 0 9 12 9 4 4 5 8 11 20 22
17 8 5 0 0 0 1 1 1 1 3 9 10 8 0 0
0 0 1 0 0 3 0 0 4 2 15 18 23 11 5 27
77 114 114 110 105 98 99 103 108 110 116 121 121 119 115 113
111 102 89 78 61 52 51 51 54 52 52 63 67 75 73 73
82 86 91 96 97 98 99 100 100 101 78 53 14 34 60 35
6 0 0 0 0 0 4 2 0 0 34 121 140 144 106 105
143 86 120 128 110 108 39 0 0 0 1 0 0 0 0 0
0 0 0 0 0 0 5 6 2 0 0 1 1 8 20 21
7 1 0 0 0 0 0 1 1 1 3 4 7 2 0 0
0 0 3 0 0 3 6 14 18 19 19 19 7 3 10 33
84 117 117 114 108 102 99 104 108 114 117 124 124 122 115 117
114 108 104 95 83 65 53 46 46 47 49 49 51 56 60 64
73 76 89 90 86 97 99 98 93 96 80 43 0 36 54 16
2 0 0 0 0 0 1 2 3 0 0 10 74 117 97 56
74 76 103 78 47 57 37 0 13 4 17 2 0 0 0 0
0 0 0 0 0 0 1 0 0 0 2 2 3 10 19 11
1 0 0 0 0 0 1 2 1 5 9 6 1 0 0 0
0 3 3 0 2 0 1 4 9 4 2 5 9 5 12 38
81 119 120 117 112 106 103 103 107 114 117 120 123 122 119 115
114 114 114 109 101 85 62 48 39 39 38 39 45 44 45 47
55 59 73 81 82 88 95 97 94 89 69 31 0 3 56 25
0 0 0 0 1 0 0 0 3 0 0 0 0 31 76 27
85 104 102 75 90 74 31 1 9 2 9 1 0 0 0 0
0 0 0 0 0 0 0 1 1 4 7 4 4 10 5 0
0 0 0 0 1 6 9 13 9 4 0 0 0 0 0 0
0 5 0 4 5 0 0 0 1 1 6 6 8 5 11 40
73 120 121 122 116 109 105 104 107 112 117 117 121 121 121 117
114 113 111 106 109 102 87 51 35 26 23 24 28 32 31 37
39 47 58 70 75 81 89 90 90 77 57 8 0 0 0 2
0 0 0 0 1 0 0 0 0 1 0 0 0 0 12 30
72 67 52 32 37 41 16 0 2 0 0 0 0 0 0 0
0 0 0 0 0 0 2 7 3 9 11 9 5 1 1 0
0 1 5 10 6 4 0 0 0 0 0 0 0 1 1 0
2 2 2 9 9 0 0 3 5 2 4 5 9 5 8 36
64 121 126 126 121 114 108 104 104 106 114 118 119 123 122 119
114 114 111 108 108 110 98 68 28 8 2 2 2 4 6 11
14 22 39 52 62 67 72 76 67 46 16 1 0 0 0 4
0 0 0 0 0 0 0 0 0 0 0 0 0 0 0 0
5 23 9 7 8 0 0 0 1 0 4 0 0 0 0 0
0 0 1 0 0 0 16 16 4 9 11 6 0 0 1 7
4 5 1 0 0 0 0 0 0 5 2 0 0 1 2 0
2 0 5 12 11 0 0 3 3 4 10 8 11 6 5 26
61 119 128 128 125 119 114 107 104 106 111 116 119 118 119 116
113 111 110 106 105 102 100 79 34 2 0 0 0 0 0 0
0 0 4 12 27 39 45 35 16 2 4 4 1 5 0 1
0 0 0 0 0 0 0 1 1 0 0 0 0 0 0 0
10 30 27 17 14 0 0 4 3 0 6 6 0 0 0 0
0 0 0 0 0 0 16 18 5 9 6 3 3 3 3 0
0 0 0 0 0 0 0 0 0 8 8 2 0 0 1 2
1 1 5 10 7 0 0 3 3 8 14 10 14 7 3 15
57 113 130 130 129 126 119 111 104 107 109 112 116 121 117 117
113 111 108 107 100 99 94 80 40 1 0 0 0 0 0 0
0 0 0 0 0 3 4 0 0 0 1 4 5 7 2 0
0 0 0 0 0 0 0 0 1 4 6 8 6 0 0 0
0 25 26 24 21 0 0 7 2 0 0 1 0 0 0 0
0 0 0 0 0 0 12 23 14 10 7 3 1 0 0 0
0 0 0 0 0 0 0 0 0 3 16 6 0 0 0 2
0 2 1 5 5 0 0 4 6 4 5 7 10 6 1 8
54 86 132 132 130 128 122 113 108 106 109 113 114 118 118 114
111 110 105 100 94 85 72 52 14 0 0 0 0 0 0 0
0 0 0 1 0 2 0 0 0 3 0 4 3 2 0 0
0 0 0 0 0 0 0 0 0 0 0 0 2 11 8 4
0 4 35 63 65 0 1 7 0 0 0 0 0 0 0 0
9 0 0 0 0 0 5 22 23 9 1 0 0 0 0 0
0 0 0 0 0 0 0 0 0 0 13 12 3 0 2 0
0 1 1 1 4 0 1 5 4 2 5 5 9 5 0 1
40 69 111 134 131 128 123 115 111 107 108 110 114 117 115 115
111 105 100 93 78 59 44 32 6 0 0 0 0 0 0 0
0 0 4 5 0 4 0 0 0 1 0 0 0 1 1 0
0 2 2 0 0 0 0 1 1 6 3 0 0 0 0 1
4 1 27 90 72 0 1 5 0 0 0 0 0 0 0 0
15 3 1 0 0 0 0 2 6 0 0 0 0 0 0 0
0 0 0 0 0 0 0 0 0 0 5 14 5 0 1 0
0 0 0 1 3 0 6 17 6 6 10 10 11 4 0 0
15 65 79 120 133 128 121 116 113 110 109 110 115 114 115 114
110 105 93 82 67 49 47 45 23 5 0 0 0 0 0 0
0 0 8 7 0 2 3 0 0 0 2 0 1 4 4 2
3 5 3 1 3 2 4 4 5 8 6 0 0 0 0 0
0 0 1 52 50 0 1 0 0 0 0 0 0 0 0 0
20 0 8 0 0 0 0 4 0 0 0 0 0 0 0 0
0 4 1 0 0 0 0 0 0 0 1 10 6 1 0 0
0 0 0 2 3 0 13 28 11 12 7 7 9 4 0 0
2 37 76 87 121 125 123 118 114 110 109 108 110 114 114 113
111 103 94 79 64 63 68 64 50 30 12 1 1 0 0 0
0 0 6 10 0 0 7 0 0 0 4 0 4 3 4 4
7 7 3 4 7 6 8 6 4 7 5 0 0 0 0 0
0 0 0 4 15 0 0 0 0 0 0 0 0 0 0 0
8 3 9 0 0 0 3 1 0 0 0 0 0 0 1 1
0 4 3 1 0 0 0 0 0 0 1 6 8 1 0 0
0 0 0 1 3 0 23 39 10 12 10 6 8 3 0 0
0 6 56 81 88 114 121 118 112 109 110 110 111 115 115 110
105 100 93 82 70 67 74 79 74 57 35 2 4 2 0 0
0 0 4 11 0 0 5 1 0 0 3 1 2 1 4 7
9 7 5 6 9 10 10 7 3 8 5 2 0 1 0 0
0 0 0 0 0 0 0 0 0 0 0 0 1 0 0 0
0 0 0 0 0 0 8 0 0 0 0 0 0 0 3 0
0 1 4 0 0 0 0 0 0 0 0 0 4 0 0 0
0 0 0 0 1 0 27 20 12 12 20 7 11 2 0 0
0 0 13 75 85 86 107 118 114 107 108 113 112 113 112 106
96 88 78 68 65 72 84 93 90 75 29 2 12 2 0 0
0 0 3 11 0 0 5 2 0 0 0 2 1 0 5 10
8 5 6 9 12 11 10 6 4 11 10 6 3 5 0 0
0 0 0 0 0 2 2 0 0 0 0 0 2 0 0 0
0 0 0 0 0 0 12 0 0 0 0 0 0 1 2 0
0 0 4 3 0 0 0 0 0 0 0 0 3 0 0 0
0 0 0 0 1 0 15 15 11 6 30 8 14 3 0 0
0 0 0 23 82 88 89 100 114 108 105 112 115 114 109 100
87 75 65 66 75 91 102 105 94 77 21 24 16 1 0 0
0 0 4 11 0 0 2 8 0 0 0 2 0 1 5 10
6 3 7 14 15 14 11 7 4 15 13 10 4 7 5 0
0 0 2 1 0 12 7 0 0 0 0 0 0 0 0 0
0 0 0 0 0 0 3 0 0 0 0 0 0 0 1 0
0 0 3 7 1 0 0 0 0 0 0 0 3 0 3 0
0 0 0 0 1 0 11 16 16 2 32 14 14 6 0 0
0 0 0 0 31 94 99 92 97 109 107 110 115 115 107 93
78 70 72 83 101 113 115 108 98 63 32 36 10 1 1 0
0 0 3 9 0 0 0 8 0 0 0 0 1 1 5 6
3 4 14 16 15 13 10 5 9 18 15 10 9 6 15 3
0 0 1 8 2 0 0 0 1 0 0 3 1 0 0 0
0 0 0 0 1 4 2 1 0 0 0 0 0 0 0 0
0 0 2 7 5 0 0 0 0 0 0 1 1 0 2 2
0 0 0 0 0 0 13 18 20 3 19 26 12 7 0 0
0 0 0 0 1 34 99 102 89 88 105 111 116 119 110 90
79 81 92 107 118 124 121 112 102 48 40 23 1 0 2 0
0 0 1 10 0 0 0 4 4 0 1 0 0 1 6 3
1 8 18 16 14 14 11 6 9 14 13 10 9 1 12 3
0 0 2 15 0 0 0 0 1 0 3 4 1 0 0 0
0 0 0 0 0 2 0 0 0 0 0 0 0 1 0 0
0 0 1 6 9 1 0 0 0 0 0 3 1 4 6 6
1 0 0 0 0 0 15 19 19 7 10 46 11 9 0 0
0 0 0 0 0 1 28 91 101 89 84 105 118 119 109 90
85 95 110 122 129 130 126 117 74 44 36 6 1 1 3 0
0 0 3 14 0 0 0 0 10 0 1 0 0 2 4 0
3 13 21 13 14 10 9 4 7 13 15 12 12 0 8 5
0 0 2 13 1 0 0 0 1 3 5 1 0 0 0 0
0 0 1 2 0 0 0 0 0 1 0 0 0 1 0 0
0 1 2 7 16 5 0 0 0 0 0 4 1 3 4 6
3 0 0 0 0 1 17 26 20 11 3 53 14 14 0 0
0 0 1 0 0 0 0 11 60 97 86 78 102 117 108 91
95 108 123 131 136 136 128 91 49 33 8 2 1 2 0 0
0 0 3 16 0 0 0 0 11 3 0 0 0 0 0 0
5 17 20 13 13 11 7 2 14 20 15 12 11 1 3 6
0 1 2 13 4 0 1 9 4 3 0 0 0 0 0 0
0 0 0 0 0 0 0 1 3 3 2 0 0 0 0 0
0 2 4 7 21 12 0 0 0 0 3 2 3 3 4 6
5 0 0 0 0 5 17 25 19 14 1 46 25 18 1 0
0 2 1 1 0 0 0 0 4 27 71 82 80 100 104 94
104 121 133 137 138 130 91 40 15 4 1 2 2 3 1 0
0 0 5 24 0 0 0 0 7 8 0 1 0 0 0 0
9 21 17 12 12 7 4 5 15 22 12 9 12 3 2 3
0 3 4 16 5 0 0 9 6 3 0 0 0 0 0 0
2 3 0 0 0 0 0 4 4 2 5 0 0 0 0 0
0 3 9 11 23 23 2 0 0 0 8 1 5 6 4 5
6 1 0 0 0 8 11 7 9 16 1 30 40 11 1 0
0 1 7 1 0 0 0 0 0 2 7 20 44 68 82 90
98 103 104 88 61 32 12 6 3 1 0 3 2 1 0 0
0 0 5 24 0 0 0 0 1 17 2 0 0 0 1 0
11 16 12 11 7 5 4 6 17 21 13 11 13 2 1 2
0 6 7 13 6 0 0 0 13 13 3 0 0 0 0 0
0 3 0 0 0 0 2 3 7 11 9 2 0 0 0 0
0 3 16 19 25 32 6 0 0 4 11 4 9 9 6 5
7 2 0 0 0 2 4 0 4 14 4 14 49 13 4 0
0 1 5 5 0 0 0 0 0 1 2 2 3 6 9 11
11 10 9 7 6 6 4 4 3 4 0 1 2 0 0 0
0 0 4 28 0 0 0 0 0 15 7 0 5 0 0 5
10 13 11 12 7 2 4 8 21 18 12 12 13 6 1 3
0 7 11 9 11 0 0 0 9 15 1 0 0 0 0 0
0 0 0 0 0 0 2 6 14 24 6 13 0 0 0 0
0 4 21 31 27 34 12 0 0 12 7 6 8 7 5 4
8 2 0 0 0 0 2 0 1 14 9 4 47 14 6 0
0 0 10 6 6 2 0 0 0 0 1 1 1 1 3 4
4 5 4 4 5 4 4 3 3 0 1 0 1 0 0 0
0 0 6 23 1 0 0 2 0 4 12 1 2 2 0 14
5 3 6 7 5 1 5 9 24 19 16 12 12 6 0 3
0 11 15 5 10 0 0 0 1 1 0 0 0 0 0 0
0 0 0 0 1 1 2 9 21 35 9 15 1 0 0 0
0 2 23 37 33 40 19 1 2 24 5 10 10 6 5 4
4 2 0 0 0 0 2 0 0 12 12 1 37 22 7 0
0 0 7 11 5 5 2 1 0 0 0 0 0 1 1 2
3 3 3 3 3 4 5 2 3 0 0 1 0 0 0 0
0 0 9 18 1 1 0 3 0 1 14 6 0 5 1 8
13 2 4 4 2 4 7 13 19 15 11 8 11 8 0 5
1 8 19 5 14 1 0 0 0 0 0 0 0 0 0 0
0 0 0 0 7 4 1 11 41 50 17 5 6 0 0 0
0 0 19 37 35 35 25 0 8 20 4 10 8 5 2 3
5 3 2 0 0 0 0 0 0 8 12 1 22 28 9 0
0 0 4 8 8 4 5 2 2 0 0 0 0 0 0 0
1 1 2 1 1 1 1 1 2 0 0 2 0 0 0 0
0 0 8 11 0 1 0 2 1 2 21 17 0 13 15 2
37 1 2 1 2 3 6 17 25 21 7 8 8 9 0 3
1 6 27 3 8 0 0 0 0 0 0 0 0 0 0 0
