P2
128 120
150
57 59 62 64 64 62 46 44 45 45 45 44 44 44 44 44
43 43 43 43 42 42 42 41 41 40 40 40 39 38 38 37
37 36 36 36 35 35 35 34 34 33 33 32 32 32 31 31
30 29 28 29 28 27 27 27 26 25 25 24 24 25 26 29
30 30 29 25 19 17 26 28 26 26 25 25 24 24 22 22
21 18 22 23 24 25 25 25 25 25 25 26 25 26 26 26
26 26 27 27 27 26 27 27 27 28 29 29 30 30 30 30
30 31 31 32 32 32 33 32 33 32 33 33 33 32 33 33
52 52 52 53 61 66 54 49 45 44 44 44 44 44 44 44
43 43 43 42 42 41 41 41 40 39 39 39 39 38 38 37
37 37 36 36 36 34 35 34 34 33 32 32 32 32 31 30
30 30 29 28 28 27 28 27 26 26 25 25 24 24 26 29
30 31 30 25 20 20 24 28 26 25 25 24 23 24 22 22
22 18 23 24 25 25 25 25 25 25 26 25 26 25 26 27
26 26 27 27 27 27 28 28 28 28 28 28 29 30 30 30
31 31 32 31 32 33 33 33 33 33 33 33 33 33 33 33
3 2 2 2 37 64 60 64 61 53 47 45 45 44 44 43
43 43 42 42 42 42 42 41 41 40 40 40 39 38 39 38
37 37 37 37 36 35 35 35 34 33 33 32 32 32 31 30
30 30 29 29 28 28 27 27 27 26 26 25 26 26 26 30
31 31 31 26 20 22 22 29 27 26 26 25 25 25 22 22
22 19 23 23 25 24 25 25 26 26 26 26 27 26 26 26
27 27 27 28 28 28 28 29 28 29 29 29 29 30 31 31
31 31 32 32 32 32 33 32 33 33 33 33 33 33 33 33
13 2 0 0 29 62 55 55 41 44 46 48 56 57 58 55
50 43 42 42 42 41 41 40 41 40 39 40 39 39 39 38
38 38 37 37 36 36 35 35 34 34 33 33 32 32 32 31
31 31 30 29 29 28 28 27 26 26 25 26 25 26 26 30
32 31 31 28 22 25 21 29 28 27 27 25 24 26 23 23
22 19 24 24 25 26 26 26 26 25 25 26 26 26 27 26
27 27 28 28 28 29 29 29 29 29 29 29 30 30 30 31
32 31 33 32 33 33 34 33 33 33 33 33 33 34 33 32
11 4 0 0 21 60 55 51 7 2 11 21 32 41 49 55
58 45 43 42 42 42 41 41 40 40 40 40 39 40 39 39
38 37 37 37 36 36 35 35 34 34 34 34 33 33 32 31
31 31 30 30 29 29 28 27 27 27 26 26 26 26 27 31
33 32 32 28 22 25 21 29 28 27 27 26 25 26 24 24
23 20 25 25 26 26 25 25 26 26 27 27 27 27 28 27
27 28 28 28 28 29 29 29 29 29 30 30 30 31 31 32
31 32 32 33 33 33 34 33 33 33 33 33 34 34 34 34
5 1 0 0 16 60 56 50 7 0 0 0 0 0 2 33
58 46 43 43 42 42 41 41 41 41 40 40 40 39 38 38
38 37 37 37 37 36 36 35 35 35 34 33 33 32 32 32
31 31 31 30 30 29 29 28 28 27 27 26 26 27 27 30
33 33 33 28 23 26 22 29 29 28 27 26 26 27 24 25
24 19 24 23 26 26 27 28 28 28 27 28 28 28 27 28
28 28 28 29 29 29 30 30 30 30 31 31 31 31 31 31
31 31 32 33 33 33 35 34 33 34 34 34 34 33 31 33
9 7 0 3 11 57 56 47 7 0 0 0 0 0 0 28
58 46 42 42 42 42 42 42 40 40 41 40 40 40 39 39
38 38 37 37 36 36 36 35 35 35 34 34 33 33 33 33
32 31 31 30 30 28 29 28 28 28 27 27 27 27 27 31
34 33 33 29 22 27 22 28 28 28 27 27 27 28 24 25
24 21 25 24 27 27 28 28 28 27 28 27 28 27 28 28
28 30 29 29 29 29 29 30 30 30 30 30 31 31 31 32
32 32 33 33 33 33 34 33 33 32 32 33 33 33 33 34
0 2 0 3 7 57 56 49 8 0 3 9 1 0 0 26
57 46 41 42 42 42 41 41 41 41 40 39 39 39 38 38
38 38 38 37 37 36 36 36 35 34 34 34 33 33 33 32
32 31 32 32 31 30 29 29 28 27 27 27 27 27 28 31
34 33 33 30 23 27 24 29 29 29 29 28 27 29 25 25
24 21 25 25 28 28 28 28 28 28 28 28 29 28 28 28
29 28 29 29 30 30 30 30 30 30 31 31 31 31 32 32
32 31 32 32 31 31 31 32 32 33 33 34 34 34 34 33
0 2 0 3 5 56 58 51 9 1 12 14 4 0 0 27
57 46 42 42 42 42 42 40 41 40 40 40 40 39 39 38
39 38 38 37 37 36 36 35 35 35 35 34 34 34 33 33
32 32 32 31 31 31 30 29 28 28 28 27 28 29 30 32
35 34 34 31 22 28 26 28 29 29 29 28 27 28 26 26
26 22 26 26 29 28 29 29 29 28 29 29 29 28 29 29
30 29 30 30 30 31 30 31 31 31 31 31 31 32 31 32
31 32 32 33 33 33 34 33 34 34 33 34 33 34 35 33
0 0 0 4 5 51 56 51 9 0 4 8 5 0 0 26
56 46 42 42 42 42 42 41 41 41 40 40 40 39 38 38
38 38 37 37 37 36 37 36 35 35 35 34 34 34 33 33
33 32 32 32 32 31 31 30 30 29 29 28 28 28 29 32
35 34 34 32 24 28 28 27 30 30 30 29 27 28 26 26
25 23 26 26 28 29 29 29 29 30 29 29 30 29 29 29
29 30 30 31 30 31 32 32 31 31 31 31 31 32 32 32
33 33 34 33 33 33 33 34 34 34 34 34 34 34 35 33
4 0 0 0 3 46 55 50 10 0 1 6 11 2 0 25
56 45 41 42 42 41 41 40 41 40 40 39 39 39 39 39
39 39 38 37 38 37 36 36 35 35 35 34 34 34 33 33
33 34 33 34 32 32 31 30 29 29 29 28 28 29 30 33
36 35 35 33 24 28 30 25 30 30 29 29 28 27 27 27
26 23 27 26 29 29 29 29 29 29 29 29 29 29 29 30
29 30 30 31 31 31 31 30 30 30 31 32 31 32 33 33
33 34 34 34 34 34 35 34 34 33 33 33 34 34 34 33
17 17 16 19 19 43 53 54 13 0 2 6 11 3 0 24
55 46 42 42 42 42 41 41 41 40 40 40 39 39 38 38
38 38 38 37 37 37 37 36 36 35 35 36 35 34 34 33
35 33 33 33 34 33 31 33 31 31 30 29 28 28 28 32
35 35 34 32 25 28 32 25 31 29 30 30 29 26 27 27
27 24 26 26 29 29 29 29 30 30 30 31 30 31 30 30
30 30 30 30 31 31 31 31 30 32 32 32 32 33 33 33
33 33 33 34 33 33 33 33 34 34 34 34 34 34 35 32
43 40 40 41 40 38 46 54 14 0 1 5 6 8 5 25
55 46 42 42 42 41 42 40 40 40 40 40 39 39 39 39
38 38 38 38 37 37 36 36 35 35 35 34 34 35 35 35
35 35 34 34 34 32 30 29 31 31 29 27 27 27 28 31
34 36 35 34 25 28 34 24 31 31 30 29 29 27 28 27
27 25 26 26 30 30 30 30 30 30 30 30 29 29 30 29
31 31 32 31 31 31 31 31 31 32 32 32 32 32 33 33
33 33 34 34 34 34 34 34 34 34 34 34 33 33 35 33
31 31 34 35 35 36 40 47 38 27 22 16 11 10 15 35
55 45 41 42 41 42 41 41 41 41 40 40 40 39 39 39
38 38 38 38 37 37 37 36 36 36 35 35 35 34 35 34
34 34 32 29 29 33 35 31 29 29 29 26 26 25 28 34
37 37 36 37 27 29 35 25 32 31 31 30 29 27 28 27
27 25 26 26 29 30 30 30 30 29 29 30 30 30 30 31
32 31 31 31 31 31 31 31 32 32 32 33 33 33 33 34
33 33 34 34 34 34 33 33 34 33 34 34 34 33 35 33
22 24 29 34 38 41 36 35 36 38 40 41 43 42 39 44
51 44 43 42 42 42 41 41 40 40 40 40 39 39 40 39
39 38 38 38 37 37 36 37 36 35 36 35 36 36 35 34
32 29 31 34 37 34 33 34 33 28 28 28 31 31 31 31
34 36 38 37 31 29 35 26 32 32 31 30 30 27 28 28
27 25 26 26 30 30 30 29 30 30 30 31 30 30 31 31
32 31 32 32 31 32 32 33 33 33 32 33 33 33 33 34
34 34 34 34 34 34 34 34 34 34 34 33 34 34 35 33
19 18 19 19 19 20 21 22 23 27 30 34 37 40 41 43
45 43 42 43 42 42 42 41 41 40 40 40 40 39 39 39
39 39 38 38 38 37 38 37 36 36 36 35 37 39 33 28
26 32 38 39 32 29 31 30 27 23 24 22 23 24 24 25
28 30 32 38 33 31 32 28 31 31 32 31 30 30 29 28
27 25 25 27 30 30 30 31 31 31 31 32 31 31 31 32
33 32 32 32 32 32 32 32 32 33 33 33 33 33 33 35
34 34 35 34 34 34 33 34 34 34 34 33 34 35 35 32
18 18 19 19 20 20 20 19 19 19 19 20 22 26 29 35
39 42 43 44 43 43 43 42 41 41 41 40 40 39 40 40
40 38 39 39 38 37 39 37 37 37 36 37 39 34 32 33
36 34 31 29 29 29 27 19 19 22 20 16 19 19 23 24
20 24 27 30 24 25 23 23 27 31 32 32 29 28 30 28
28 27 27 29 31 32 31 32 32 32 32 32 32 32 32 32
33 31 32 32 33 32 33 33 33 33 33 33 34 34 33 34
34 34 35 35 35 35 34 34 35 35 34 33 33 33 33 33
33 33 37 34 32 29 26 23 19 18 19 18 19 18 18 19
20 22 25 28 32 37 39 41 42 41 40 40 41 40 39 40
39 38 38 38 38 37 39 37 36 39 40 31 29 30 34 37
34 27 22 22 22 22 19 22 23 21 23 26 26 26 26 23
22 26 25 30 28 22 16 10 13 23 26 31 31 30 31 29
28 27 27 29 31 32 32 31 32 32 32 32 32 32 33 33
34 33 33 32 32 33 33 33 33 33 34 33 34 34 35 35
35 34 34 35 34 34 34 32 31 32 33 34 34 34 34 34
36 35 38 39 42 49 63 52 27 23 20 19 19 19 18 19
18 18 19 18 18 20 20 22 26 31 41 41 40 40 39 39
39 39 39 38 38 39 38 38 39 35 31 33 32 31 35 29
22 18 22 23 24 23 27 21 22 20 22 23 25 28 31 33
32 34 35 36 31 25 21 13 5 4 11 15 28 30 31 29
29 28 26 30 32 32 32 32 32 33 33 33 32 33 32 32
34 33 33 33 33 33 33 33 34 34 34 34 35 35 34 35
33 33 34 34 34 34 35 34 34 34 34 35 35 34 33 33
0 12 42 40 43 49 61 61 54 51 47 46 47 43 39 33
21 21 19 19 19 19 20 12 12 22 39 41 41 41 40 40
39 40 39 39 39 40 39 40 39 37 37 36 30 31 24 19
24 30 27 24 22 21 22 24 24 25 26 27 29 29 33 33
33 33 36 36 36 33 25 18 11 6 5 5 10 24 31 29
30 29 27 31 33 32 33 32 33 32 33 33 33 33 33 34
35 34 34 34 34 33 34 34 34 34 33 34 34 33 33 33
34 34 34 34 34 34 35 36 34 35 34 34 34 35 34 34
0 12 39 39 42 49 59 61 60 60 55 53 59 58 56 49
28 35 36 30 23 21 19 17 17 21 39 41 41 41 40 39
39 40 39 39 39 41 38 41 39 32 32 32 32 26 21 21
24 24 24 28 32 33 35 34 37 34 34 33 28 25 27 26
27 27 30 31 28 20 15 12 6 2 0 3 1 5 25 29
30 29 26 31 32 33 32 33 33 33 33 33 33 33 34 33
35 34 34 33 33 33 34 35 35 34 34 34 35 34 33 34
34 33 33 34 33 33 33 35 34 34 34 35 34 34 34 34
0 6 11 11 11 32 57 59 57 58 50 52 55 59 59 52
37 45 50 45 47 48 44 28 17 21 40 40 41 41 41 42
51 48 47 44 42 41 39 44 35 32 32 39 31 29 29 26
27 31 38 40 38 40 43 41 42 40 38 42 39 39 40 39
39 38 40 36 31 27 22 18 14 4 0 0 2 0 4 23
31 30 27 32 33 34 34 34 34 34 34 34 34 33 34 33
33 33 33 34 34 35 35 34 35 33 34 34 34 34 34 35
34 34 34 34 35 34 34 36 34 34 34 35 34 34 34 34
0 12 13 2 1 24 59 53 12 28 25 32 40 47 52 52
42 47 51 50 54 56 55 39 18 24 41 42 41 40 40 44
53 51 49 45 47 42 45 35 30 23 34 35 34 35 35 35
41 44 44 40 37 32 34 40 44 52 56 59 60 50 46 42
41 40 37 33 30 25 25 22 16 15 14 4 1 0 0 6
27 30 28 32 33 34 34 34 34 34 34 33 34 33 34 33
33 34 34 34 34 34 35 35 35 34 34 34 35 35 35 34
34 33 34 34 34 34 34 36 35 35 35 35 35 34 34 34
7 25 40 7 0 26 58 51 3 8 1 0 1 6 9 48
44 49 52 52 55 57 57 45 18 25 43 43 44 43 42 43
52 52 49 47 49 45 38 31 26 22 35 38 37 36 36 38
44 41 37 27 28 41 52 57 60 60 59 58 53 48 52 49
47 45 38 27 24 19 14 13 14 12 8 10 8 4 4 4
17 31 28 32 33 34 34 34 34 34 34 34 34 34 34 34
34 34 34 35 34 34 34 34 35 34 34 34 34 34 34 34
34 34 35 34 34 34 34 36 35 35 35 34 34 33 34 35
18 31 38 31 5 21 60 52 3 0 1 0 8 16 9 47
43 47 48 52 55 55 56 46 20 26 46 45 44 45 46 47
32 25 37 46 48 44 28 28 24 32 45 42 39 41 39 40
40 35 29 37 47 51 54 57 55 53 57 60 56 57 53 50
49 43 40 37 31 28 26 24 20 17 13 6 9 7 3 1
3 28 29 32 31 33 33 33 34 34 34 34 34 35 34 34
35 34 35 34 34 34 34 34 36 34 35 35 34 35 34 35
35 35 34 34 34 34 34 35 35 34 34 33 34 34 34 34
21 37 31 22 13 16 60 56 6 0 1 0 16 21 16 48
22 18 30 40 47 49 50 46 21 25 45 45 39 40 48 54
25 1 9 30 31 31 29 25 28 44 47 49 45 41 46 47
44 44 44 45 47 49 42 40 50 55 59 58 54 55 58 54
54 52 45 35 27 21 16 11 10 7 7 9 2 4 7 9
3 13 28 34 34 35 35 34 34 35 35 35 34 35 35 34
34 34 35 35 34 35 34 34 37 35 35 35 35 34 34 34
35 35 34 35 35 35 35 36 35 35 34 34 34 34 34 34
7 24 30 16 3 14 61 59 8 1 2 0 9 12 12 48
14 0 3 4 6 11 17 46 22 21 31 40 46 47 52 55
28 0 10 23 28 33 32 25 35 45 47 45 47 49 54 57
50 42 41 39 38 39 48 47 46 52 45 50 56 55 51 54
54 47 31 24 21 16 18 16 9 7 9 7 3 0 1 3
3 4 25 33 33 35 35 35 35 35 35 35 35 35 34 35
35 35 34 35 34 35 35 35 36 35 35 35 35 35 36 36
35 36 35 36 35 35 35 36 35 35 35 35 35 35 35 35
0 0 3 0 0 13 62 60 10 0 0 0 2 0 5 49
12 1 0 0 0 0 5 45 22 17 0 1 7 17 29 39
30 0 7 19 20 31 32 31 33 41 37 47 50 50 53 50
42 44 43 46 52 53 47 49 43 41 47 52 47 47 45 40
33 25 31 28 24 17 13 9 4 2 0 3 1 0 0 0
1 1 12 33 33 36 36 35 35 36 36 35 35 35 35 34
34 35 35 35 35 35 36 36 36 35 36 36 36 36 36 36
36 36 36 35 35 35 36 36 34 36 36 36 36 35 36 35
0 0 0 0 0 12 62 62 13 0 5 4 14 0 4 50
12 5 0 10 0 0 5 47 23 17 0 0 0 0 0 2
24 0 2 11 23 37 37 40 38 40 49 49 49 49 59 64
67 62 58 54 53 52 50 48 54 51 43 44 47 47 57 61
56 56 59 39 34 29 23 17 14 9 4 2 0 0 0 0
0 0 0 26 33 36 36 35 36 35 35 35 35 35 36 36
35 35 36 36 36 36 36 36 37 35 36 36 36 37 37 36
36 36 36 35 35 35 35 35 36 37 36 36 36 35 36 35
0 0 0 0 0 10 62 65 18 0 16 16 24 2 4 48
13 6 2 18 7 0 4 46 23 17 0 0 0 0 0 1
23 3 4 7 23 47 59 59 59 61 60 58 63 73 80 84
85 83 81 73 76 74 73 69 75 73 71 75 79 85 90 87
75 83 88 66 60 59 54 49 38 16 5 1 0 0 0 0
0 0 0 11 33 36 36 36 35 35 35 35 35 35 35 34
34 34 35 35 35 35 37 36 37 36 36 36 37 36 37 36
35 36 35 35 36 35 35 36 35 35 35 35 35 34 33 35
33 33 30 27 24 29 61 64 24 3 2 3 2 1 4 47
14 6 2 12 8 0 3 45 22 17 0 0 0 3 0 0
19 1 4 17 34 72 89 94 91 84 83 85 91 96 102 109
107 110 109 99 92 92 86 83 85 83 89 93 88 87 89 90
91 85 81 77 73 63 59 55 51 42 30 12 3 0 0 0
0 0 0 3 32 36 35 35 35 35 35 35 34 34 35 34
35 36 35 35 35 35 36 35 35 35 35 35 35 35 35 36
35 35 35 35 36 35 35 35 35 34 35 35 34 35 34 35
57 53 50 46 41 36 35 37 8 0 3 11 5 0 3 45
10 3 3 0 3 0 4 45 22 18 1 4 4 14 0 0
17 9 20 32 62 98 106 109 106 109 111 120 120 115 114 114
118 116 111 102 89 90 90 89 94 94 95 99 99 97 99 91
85 78 81 83 78 70 61 55 48 48 44 35 17 7 0 0
0 0 0 0 28 35 35 35 35 35 35 35 35 35 35 35
35 35 35 35 35 34 35 35 35 36 35 35 35 36 36 36
36 35 36 35 35 35 35 35 35 35 36 35 35 35 35 36
29 31 37 46 49 48 38 34 16 11 8 12 4 0 4 45
10 1 9 0 0 0 3 44 21 18 4 12 5 7 1 5
22 21 29 41 91 106 112 117 118 120 121 124 132 132 132 128
127 126 123 116 101 100 101 103 107 104 99 99 101 105 101 88
87 81 84 86 76 70 68 61 56 48 42 34 29 21 15 2
0 0 0 0 25 36 35 34 35 35 35 35 35 34 35 35
35 35 36 36 36 36 36 35 35 35 35 36 36 36 35 35
36 35 36 35 35 36 36 35 35 34 34 35 33 32 33 35
0 0 1 4 8 24 47 45 51 51 47 49 46 39 37 49
23 8 9 9 7 3 8 45 22 19 8 5 0 4 6 5
28 24 21 63 100 109 114 117 121 125 129 133 133 136 136 134
130 128 126 118 115 109 103 105 107 107 104 100 99 100 98 93
92 78 83 87 73 69 68 62 60 48 45 40 28 20 20 5
0 0 0 0 21 36 36 35 34 35 36 36 36 36 36 36
35 36 35 35 35 36 35 35 35 36 36 36 37 36 36 36
37 35 34 34 34 33 33 33 33 32 33 32 30 28 26 22
0 1 1 0 0 10 58 48 18 22 30 38 43 46 51 56
65 44 38 44 46 43 42 43 21 18 4 0 0 0 1 5
37 52 46 90 106 112 114 118 125 127 130 135 135 138 135 135
137 136 129 124 121 115 110 108 107 107 101 93 97 99 93 91
94 80 77 80 72 71 68 61 62 50 49 46 36 25 21 12
4 0 0 0 15 48 36 35 35 35 35 36 35 36 35 35
35 37 36 36 36 35 36 36 35 35 35 35 35 34 35 34
35 33 35 35 32 32 30 27 24 21 18 16 15 13 13 14
0 0 10 15 1 9 57 50 19 12 20 19 15 5 37 69
66 39 41 52 55 55 55 46 21 19 2 0 0 0 0 5
38 59 67 99 108 112 112 122 126 131 136 135 136 138 139 136
138 140 137 122 121 119 117 116 110 114 106 101 99 95 94 88
88 85 84 76 72 62 61 58 57 51 49 46 36 33 22 16
13 2 0 0 8 52 43 35 35 35 35 35 36 35 35 35
35 36 35 34 35 35 35 35 35 35 36 36 35 33 32 31
28 24 25 34 21 13 14 15 16 16 16 18 19 20 21 22
25 6 24 11 1 8 57 49 7 8 10 5 5 0 39 67
57 36 45 54 55 58 59 48 22 22 19 14 7 3 1 3
38 55 91 105 113 112 115 124 132 135 138 137 138 137 138 139
138 140 138 131 127 130 123 118 114 112 110 108 103 101 105 94
81 86 76 68 64 62 64 52 59 60 47 46 40 33 30 22
14 9 2 0 19 43 37 33 34 35 35 35 35 35 35 34
33 35 35 29 15 35 36 35 34 31 28 24 21 19 18 18
18 17 17 32 19 17 21 22 23 24 25 26 26 27 27 27
30 14 17 15 4 6 56 48 2 1 5 0 0 0 36 64
42 9 14 20 23 28 35 47 23 24 44 54 51 45 39 35
49 59 98 107 114 113 119 127 135 137 137 137 138 138 141 143
143 139 139 137 135 135 123 122 112 111 112 110 108 104 102 100
94 83 80 73 64 60 65 60 57 55 57 52 47 34 28 24
16 11 5 0 32 43 29 28 33 32 33 32 30 31 35 35
35 33 25 5 18 25 23 20 19 19 19 20 21 22 23 23
24 25 23 30 21 22 27 28 29 30 30 30 32 31 31 30
7 0 19 30 9 7 55 47 1 0 0 0 0 0 32 63
43 1 1 0 0 0 6 43 25 24 45 57 56 56 56 57
58 77 102 110 113 114 123 130 134 134 136 136 137 138 141 143
142 138 137 139 135 135 127 118 119 115 115 112 108 104 97 97
94 85 77 75 76 62 57 58 61 59 56 62 45 38 30 27
19 14 6 2 22 43 28 27 27 30 30 32 25 20 27 25
22 16 7 16 21 21 23 23 24 25 26 27 27 29 29 28
30 30 28 30 23 26 31 31 32 32 33 33 33 33 34 34
31 32 34 18 7 10 57 48 4 23 3 0 0 0 26 64
45 1 0 0 0 3 7 42 25 22 42 55 55 55 57 59
60 91 105 110 113 122 127 133 135 138 140 140 141 143 143 144
144 141 141 136 134 131 133 130 127 117 116 115 110 110 104 96
94 90 77 72 69 66 66 60 57 58 54 57 46 42 39 30
21 16 11 7 27 45 28 29 26 22 24 22 19 18 22 22
12 17 18 27 28 28 29 30 30 30 31 31 32 33 33 33
33 32 25 10 8 27 33 34 34 34 33 34 34 34 35 35
20 51 50 20 2 11 61 53 10 33 4 0 0 0 20 59
40 0 0 0 11 34 32 37 35 30 36 42 43 44 46 51
64 98 105 109 116 125 130 134 133 139 141 141 142 143 144 143
143 141 142 140 133 126 132 129 127 120 116 115 109 113 110 99
92 90 82 79 76 68 67 63 57 60 61 51 51 50 43 35
27 16 10 6 24 52 30 26 32 16 18 25 26 26 27 16
25 23 27 32 32 33 33 33 34 33 34 34 34 34 34 35
33 32 24 3 1 23 34 36 36 35 35 35 35 35 35 35
8 45 44 19 3 10 61 54 4 20 8 0 0 0 19 55
38 0 0 0 9 34 33 31 31 27 29 27 32 38 38 48
71 101 104 106 118 125 130 131 133 137 141 142 143 144 145 144
141 143 143 142 133 134 132 132 127 121 119 116 106 107 106 100
92 95 79 79 71 67 64 62 56 59 63 52 50 47 38 34
28 15 13 7 17 48 36 17 24 27 13 22 31 31 22 25
35 31 14 20 21 18 13 19 36 35 35 34 22 5 5 10
10 11 19 7 2 23 34 36 37 36 36 36 36 35 36 35
0 35 33 13 3 10 62 56 5 2 4 0 0 0 21 56
35 0 4 0 2 14 18 29 28 27 29 32 35 40 40 50
76 102 105 108 119 126 133 134 136 140 142 144 144 144 143 143
143 142 143 141 139 137 135 139 131 126 120 113 109 106 104 104
96 97 85 74 73 75 72 67 61 62 65 60 54 49 44 38
29 18 11 5 13 39 41 16 16 23 20 10 28 30 21 32
31 36 6 1 0 0 1 17 25 18 5 5 1 5 1 0
0 0 4 0 0 21 34 35 37 35 36 35 36 35 36 35
4 19 26 2 0 9 60 54 5 0 0 0 0 0 24 57
34 0 5 1 0 0 1 26 24 26 18 10 16 23 30 38
81 104 106 113 122 128 134 138 138 141 142 144 144 144 144 144
144 143 144 144 144 144 140 138 137 135 122 113 115 108 103 101
98 98 93 80 82 84 79 78 68 69 68 67 66 54 51 38
34 20 14 6 11 15 43 23 9 16 20 13 17 21 13 3
2 42 20 0 0 0 0 0 0 0 0 0 0 0 10 0
0 0 0 1 0 22 35 36 37 36 36 36 36 36 36 35
25 8 5 7 15 20 57 50 4 0 0 0 0 0 27 58
33 0 1 9 3 0 1 33 32 32 15 0 0 1 0 5
85 102 109 116 123 131 137 140 141 143 144 145 145 145 145 144
144 144 143 137 144 143 136 135 139 137 129 114 112 111 105 102
99 99 97 88 79 85 92 85 76 76 75 66 63 59 53 44
33 28 18 11 10 3 27 32 13 9 14 18 14 11 13 12
3 5 2 0 0 0 0 0 0 0 0 0 0 0 6 0
0 0 2 7 1 25 35 35 37 35 36 35 35 36 35 36
0 7 6 15 52 52 54 48 25 19 15 10 8 4 31 58
35 0 0 6 8 0 0 35 37 32 16 0 0 3 0 11
98 101 114 121 128 137 139 140 142 142 144 144 145 144 144 144
144 143 144 143 143 144 142 142 142 137 130 118 110 109 104 101
99 97 93 88 82 88 92 96 87 83 75 74 66 61 55 43
38 28 19 10 8 2 9 31 20 7 10 15 20 17 35 15
19 24 19 17 17 17 16 12 9 11 1 0 0 0 0 0
0 0 6 17 10 29 35 36 38 37 36 36 35 35 36 35
11 34 44 34 56 59 58 50 56 53 43 41 50 42 45 50
39 7 0 5 16 8 0 34 38 32 18 0 2 12 5 35
103 105 117 123 131 133 130 134 140 142 143 144 143 142 141 138
144 144 143 143 139 132 116 104 93 78 70 64 58 50 49 42
39 33 29 29 35 76 111 109 115 120 105 78 69 62 51 47
39 23 16 12 8 0 0 19 22 9 3 11 18 22 22 32
37 37 37 37 37 37 36 36 19 16 1 0 0 0 0 1
1 3 20 27 26 33 36 36 37 36 35 36 35 36 36 36
51 50 58 57 57 60 61 58 32 22 15 15 22 25 26 47
46 37 28 25 34 29 21 40 37 28 17 0 10 25 14 62
103 110 119 123 127 126 118 123 126 126 107 94 97 89 85 82
81 68 56 50 49 54 63 72 78 79 74 68 67 60 48 33
28 21 19 18 14 14 102 127 106 110 117 125 85 62 53 46
39 21 17 12 12 2 0 6 19 14 4 6 15 27 30 32
36 37 38 37 38 38 37 32 9 0 0 0 0 1 32 35
33 33 31 30 33 36 37 37 37 37 37 37 36 36 36 37
46 34 53 49 35 40 46 52 12 0 0 0 11 23 16 48
46 34 28 35 44 50 53 54 44 27 18 0 13 23 17 79
101 113 118 116 112 108 93 65 33 9 37 81 98 107 109 105
104 105 90 70 62 53 45 39 35 37 43 48 55 64 67 71
80 85 90 91 77 91 127 110 126 132 128 125 130 78 44 43
36 25 16 14 12 3 0 1 14 14 4 2 11 24 26 32
33 37 38 37 37 37 37 28 0 0 8 4 0 1 33 36
35 34 33 32 35 37 37 36 37 37 36 37 37 37 36 35
27 3 24 18 2 0 2 42 15 0 2 5 8 19 26 50
48 20 0 3 13 17 46 55 44 27 21 1 5 8 13 84
95 107 115 98 62 23 2 0 0 0 24 69 78 62 53 49
38 30 34 49 68 84 100 110 126 133 127 121 116 115 108 108
107 111 113 119 104 135 111 128 143 143 143 141 135 134 56 34
32 24 17 14 9 3 0 0 9 14 9 3 12 17 31 22
31 37 37 37 37 37 37 29 0 0 6 6 0 0 32 36
36 35 34 34 36 35 35 35 35 36 37 36 36 34 35 36
23 0 0 5 1 0 0 41 16 0 15 40 24 14 21 52
48 15 1 12 32 17 47 52 38 28 28 17 4 7 20 78
85 93 84 32 1 0 0 0 0 0 3 4 6 16 32 46
71 94 112 128 137 142 143 142 142 141 138 128 123 121 111 108
106 113 124 136 135 118 94 131 143 143 143 142 141 136 110 31
30 21 15 11 11 3 0 0 1 8 7 3 9 16 30 17
27 37 37 37 37 37 38 29 0 0 0 1 0 0 29 36
36 35 34 35 36 35 36 36 37 36 36 36 34 35 35 35
10 3 0 11 9 0 0 41 18 6 34 43 13 2 15 54
49 12 2 8 33 33 50 49 32 30 30 12 2 6 22 60
80 73 47 1 1 1 0 0 0 0 3 21 41 60 72 92
114 129 139 143 145 144 145 144 143 142 141 127 128 122 113 111
111 120 140 142 143 117 86 118 143 144 143 143 142 134 129 63
29 19 16 15 11 5 0 0 0 4 7 5 10 20 27 22
17 33 35 35 36 35 35 28 0 0 0 0 0 0 28 36
36 36 36 37 37 36 36 37 37 37 36 36 36 37 36 36
42 44 39 42 19 0 0 39 21 5 23 49 12 0 14 56
51 13 1 2 10 22 50 50 31 32 29 10 3 6 11 30
67 68 22 1 5 2 0 0 0 0 18 29 41 54 70 108
122 126 137 142 145 145 144 143 143 142 140 132 131 127 125 117
115 134 144 144 143 133 117 133 140 143 143 143 142 136 128 91
27 21 16 14 11 5 1 0 0 0 4 9 13 21 26 31
12 29 37 36 19 12 6 6 0 0 0 0 0 0 25 37
36 37 37 37 37 36 36 37 37 37 36 36 37 36 36 36
18 10 13 14 6 1 1 39 18 0 13 31 8 7 16 56
52 13 0 0 0 11 49 50 32 31 32 18 1 2 2 8
38 65 10 3 4 0 0 0 0 0 10 32 20 26 48 94
123 129 139 142 145 145 145 145 144 142 142 137 138 134 132 124
128 140 144 143 141 136 140 144 143 144 144 143 143 142 133 90
27 23 17 13 12 4 1 0 0 0 1 9 15 23 21 37
16 23 33 30 9 19 3 3 0 0 0 1 2 1 23 37
36 37 37 36 37 36 36 36 36 37 37 36 37 36 35 36
13 0 0 0 0 0 0 38 17 0 0 0 2 6 15 56
52 11 0 0 0 7 49 51 31 32 34 23 0 16 5 1
13 41 3 2 4 0 0 0 0 0 2 38 49 36 29 64
114 131 140 146 146 145 145 144 144 142 141 141 138 131 131 129
127 138 142 136 137 105 140 144 144 144 144 143 143 143 137 78
32 24 20 15 12 3 0 0 0 0 0 8 19 22 18 31
28 22 30 38 45 42 24 18 0 0 0 0 0 0 8 25
37 37 37 37 37 37 37 37 37 36 37 36 36 36 35 36
19 0 0 0 0 0 0 37 20 0 0 0 0 0 12 55
51 9 0 0 0 8 48 53 30 32 34 35 0 8 4 0
0 4 0 3 4 0 0 0 0 0 0 26 31 34 32 46
99 134 145 146 146 145 145 145 146 145 145 144 140 133 130 123
123 134 140 133 127 83 62 123 143 145 144 144 144 144 138 58
30 30 24 16 11 1 0 0 0 0 0 5 15 18 17 22
34 21 30 34 34 32 10 2 0 0 0 0 0 0 12 6
17 29 37 38 37 37 37 37 37 36 36 36 36 35 35 35
30 0 0 0 0 0 0 35 18 0 0 0 0 0 11 55
52 9 0 0 0 5 45 49 28 33 30 32 1 3 5 0
0 2 4 3 3 0 0 0 0 0 0 14 35 52 50 55
92 144 147 146 146 145 146 145 145 145 145 143 138 132 137 128
122 132 140 141 131 120 74 79 124 133 145 144 144 143 134 47
33 28 25 18 6 1 0 0 0 0 0 3 15 19 22 19
29 20 27 28 12 3 2 0 0 0 0 0 0 0 2 6
1 18 37 38 38 37 37 37 37 37 36 36 36 35 35 35
25 0 0 0 0 0 0 33 18 0 0 0 0 0 10 54
52 10 0 0 0 3 42 50 27 32 29 39 9 3 6 0
0 13 13 16 2 0 0 0 0 0 0 6 37 65 66 69
95 145 146 145 145 145 145 143 145 144 144 143 138 134 134 126
126 132 141 144 132 120 125 129 125 130 141 144 143 143 113 49
34 27 23 14 3 0 0 0 0 0 0 2 12 18 17 19
25 24 25 32 18 3 0 0 0 0 0 0 1 0 2 7
3 15 38 38 38 36 37 37 36 35 35 35 35 35 35 35
0 0 0 0 0 0 0 32 25 6 8 9 13 17 27 54
51 11 0 0 0 3 46 54 27 29 29 42 20 0 3 0
3 89 76 16 15 0 0 0 0 0 0 1 24 63 71 72
97 145 146 146 146 145 144 144 144 144 143 142 138 136 126 123
123 130 141 143 130 98 116 137 133 136 135 143 143 140 89 50
35 26 22 14 0 0 0 0 0 0 0 0 11 18 14 17
21 24 29 33 29 14 5 2 0 0 0 0 1 0 1 6
3 12 37 37 37 37 36 36 36 35 35 35 35 34 34 34
20 19 18 15 14 13 14 37 46 44 45 47 50 52 53 47
36 18 11 7 6 6 45 50 26 30 31 43 32 0 1 0
34 125 105 24 27 9 0 0 0 0 0 0 12 57 68 75
106 146 145 145 144 144 144 144 144 144 143 139 139 135 125 123
121 129 140 143 132 111 112 131 135 124 129 141 142 124 75 46
32 25 22 12 0 0 0 0 0 0 0 0 5 10 10 9
24 22 26 34 37 19 4 12 3 0 0 0 0 0 1 6
3 10 36 38 37 36 36 35 35 34 34 33 34 33 33 33
52 53 52 50 48 49 50 53 51 48 49 50 50 50 50 48
45 45 44 42 39 36 45 46 39 40 41 41 40 3 0 1
85 135 126 58 18 31 2 0 0 0 0 0 4 52 65 75
113 144 144 144 144 144 143 143 144 142 140 137 135 131 122 120
119 124 135 142 131 124 126 137 138 122 133 133 138 99 71 43
28 26 21 8 0 0 0 0 0 0 0 0 0 7 8 5
17 20 16 29 41 30 9 9 7 0 0 0 0 0 0 4
5 10 31 33 34 33 34 34 34 34 33 34 35 34 33 28
58 57 58 56 55 58 58 49 37 36 46 46 46 46 46 45
45 45 44 44 44 44 43 42 43 42 43 43 42 15 1 16
117 143 132 95 15 36 26 2 0 0 0 0 2 51 67 77
122 144 144 144 143 141 141 141 141 141 139 130 129 124 116 122
118 122 127 139 122 129 136 137 135 130 132 127 129 86 73 41
28 25 20 8 0 0 0 0 0 0 0 0 0 0 5 5
9 18 16 17 31 31 19 5 2 0 0 0 5 1 0 3
12 14 29 35 35 35 35 34 34 33 33 33 33 24 4 4
56 53 55 54 55 58 53 30 28 32 45 46 45 45 45 45
44 45 44 43 44 44 43 43 42 42 41 41 42 37 6 54
129 143 137 127 45 21 49 36 2 0 0 0 5 57 70 84
138 145 143 142 143 141 135 140 140 134 132 130 129 127 121 123
120 121 120 132 110 110 116 139 141 132 126 139 112 83 74 42
26 25 19 4 0 0 0 0 0 0 0 0 0 0 0 5
7 12 11 12 16 23 22 5 0 0 0 0 1 0 0 6
6 9 29 36 35 35 35 35 34 34 34 34 33 19 0 3
28 30 26 25 25 31 28 25 27 31 44 46 42 37 36 36
35 33 32 32 31 30 29 27 26 26 26 25 26 25 18 87
137 144 141 133 103 13 40 51 26 0 0 0 17 61 67 111
146 145 144 141 143 143 137 140 140 136 130 132 128 125 123 122
120 120 118 129 126 123 138 138 128 132 141 134 92 83 74 41
32 28 20 4 0 0 0 0 0 0 0 0 0 0 0 1
8 6 9 14 15 12 17 8 7 7 8 9 8 10 12 16
17 16 23 24 24 22 23 33 35 35 34 34 33 16 0 0
0 2 0 0 0 11 6 26 28 30 43 46 32 7 2 2
1 1 1 1 1 0 0 0 0 0 0 0 0 0 15 118
144 143 141 139 138 76 12 49 37 0 0 3 43 65 95 140
145 143 140 141 141 142 138 134 138 137 133 131 125 122 122 115
116 117 113 116 136 141 135 136 141 142 140 103 87 85 73 38
34 23 13 0 0 0 0 0 0 0 0 1 0 0 0 0
7 5 9 14 13 9 15 21 20 23 26 24 20 26 22 20
20 15 12 34 32 12 15 32 35 35 34 34 33 14 0 0
0 2 1 0 0 12 15 25 26 30 41 45 35 8 0 0
0 0 0 0 0 0 0 0 0 0 0 0 0 1 52 135
144 144 141 142 142 134 80 21 19 6 12 36 64 100 140 143
142 141 134 135 141 141 141 139 137 137 131 122 123 124 120 117
114 112 106 114 135 137 142 141 142 140 121 88 91 83 70 42
33 19 3 0 0 0 0 0 0 1 4 1 0 0 0 0
5 7 6 12 15 10 11 20 22 26 30 47 43 59 61 66
32 17 25 75 83 8 11 31 34 34 19 10 9 3 0 0
0 2 0 4 14 22 22 25 26 30 40 45 38 13 0 0
0 0 0 0 1 0 1 0 0 0 1 1 1 7 101 134
137 137 137 137 141 138 125 105 78 71 80 100 119 132 141 141
140 140 140 139 139 137 137 134 127 132 128 125 126 122 119 116
113 108 95 106 141 141 138 141 139 119 92 92 91 81 69 57
35 23 3 0 0 0 0 0 0 0 4 3 1 0 0 0
0 7 7 13 12 7 6 15 24 30 35 84 70 92 90 95
40 15 60 114 117 52 11 30 34 30 0 0 0 0 0 0
0 2 8 20 22 21 20 24 26 29 38 45 40 18 0 0
0 0 1 1 2 1 2 1 1 1 2 2 2 33 127 139
140 140 134 132 132 131 120 113 111 111 114 123 134 138 139 139
138 138 142 141 139 139 138 131 125 130 131 126 121 121 120 116
114 105 93 90 123 141 137 134 117 97 96 96 95 84 73 65
42 26 1 5 2 0 0 0 0 0 0 2 0 0 0 0
0 2 4 9 11 3 4 12 26 32 30 59 48 53 49 45
30 24 46 57 41 32 20 26 36 29 0 0 0 0 0 0
0 0 12 21 21 22 20 25 26 29 38 46 41 20 0 0
0 1 0 1 1 1 1 2 1 2 2 2 4 67 135 137
134 138 129 126 132 131 128 122 116 113 117 119 134 140 138 133
137 136 138 141 139 138 138 136 137 135 130 126 122 123 118 119
116 107 96 96 60 112 117 103 99 102 101 100 95 87 77 72
54 25 0 3 3 0 0 0 0 0 1 0 1 0 1 0
0 1 2 4 8 3 2 11 25 37 23 27 25 21 18 22
22 23 22 23 22 23 20 24 35 33 8 0 0 0 0 0
0 0 10 21 22 22 21 25 26 29 37 44 41 24 1 0
0 0 0 1 1 1 1 1 1 1 1 2 3 88 135 141
140 140 136 137 134 134 130 115 111 111 118 119 131 133 139 136
138 140 138 136 138 137 136 135 132 134 127 124 124 122 114 119
111 104 96 96 76 51 104 119 108 105 104 102 98 89 78 76
65 31 0 0 0 0 0 0 0 1 1 0 0 1 4 0
0 0 1 3 4 4 3 6 16 33 24 26 21 21 15 15
18 23 23 23 22 22 20 23 35 35 25 2 0 0 0 0
0 0 9 21 22 22 20 24 25 28 36 45 42 28 2 0
0 0 0 0 0 1 1 1 1 1 1 2 5 90 133 136
135 133 131 134 137 134 118 99 107 108 114 121 129 118 131 136
140 143 141 140 140 138 136 133 128 134 131 128 125 124 116 117
110 101 94 93 96 98 116 124 121 116 110 106 101 93 82 77
71 34 0 0 0 0 0 3 4 7 0 0 0 6 1 0
0 0 2 3 5 3 4 6 11 22 23 24 15 16 15 17
19 25 25 24 22 21 18 18 29 12 14 0 0 0 0 0
0 0 11 21 22 22 20 23 26 28 34 44 42 29 3 0
0 0 0 1 1 1 1 1 2 1 1 1 3 71 121 114
107 73 36 51 94 110 103 95 113 105 113 120 121 124 127 136
140 138 141 141 141 139 135 134 135 134 130 128 128 123 118 119
113 103 100 93 99 103 116 123 125 123 117 109 104 93 85 77
76 39 0 0 0 0 0 9 16 7 2 0 5 5 3 0
0 0 2 8 6 8 7 6 10 17 19 24 13 19 17 17
20 25 24 23 22 21 18 10 8 0 0 9 0 0 0 0
1 0 11 20 21 22 20 24 25 27 33 43 42 30 5 0
0 0 0 0 1 0 1 1 1 1 1 2 2 21 90 100
89 81 87 92 101 95 95 115 122 108 108 117 123 125 123 133
139 134 138 137 138 135 132 137 134 131 130 128 125 122 119 118
115 107 95 88 98 102 112 120 125 123 118 112 104 95 88 77
79 45 0 0 0 0 5 19 18 6 2 4 10 8 4 0
0 0 0 6 5 5 8 9 13 15 20 22 13 18 15 16
21 24 23 23 22 21 19 1 0 0 0 0 0 0 0 0
2 0 10 20 21 22 21 24 25 27 32 43 42 31 5 0
0 0 0 0 1 1 1 1 1 1 1 1 2 1 14 43
71 97 102 109 114 109 118 128 125 115 106 116 128 130 123 124
138 141 140 130 135 131 128 131 134 132 134 129 127 121 118 116
114 107 85 83 96 101 111 122 126 122 120 114 106 97 88 77
76 47 0 0 0 2 12 19 16 7 9 13 12 15 2 0
0 0 0 1 5 5 10 11 15 17 19 20 10 15 16 15
22 23 23 23 22 21 20 1 0 0 10 0 0 0 0 0
18 10 17 19 21 21 19 22 25 27 31 43 42 32 6 0
0 0 0 1 1 1 1 1 0 0 1 0 1 1 1 2
4 38 56 94 108 119 122 129 125 120 102 117 127 137 138 133
137 139 138 128 134 127 126 134 135 133 132 132 130 125 113 111
111 106 79 82 90 99 110 120 124 124 121 113 105 98 90 79
77 57 0 0 1 4 14 11 9 13 15 16 17 22 4 2
1 0 0 0 4 9 10 14 15 19 17 12 3 10 15 13
22 24 23 22 23 22 21 0 0 4 9 0 0 0 0 0
49 35 26 18 20 20 19 23 25 27 30 43 42 32 8 0
0 0 0 0 1 1 1 1 1 1 0 0 1 1 1 2
2 34 46 78 108 119 121 126 127 126 109 116 131 135 137 137
138 138 133 133 136 130 125 131 131 131 128 132 130 125 115 106
107 98 71 77 88 98 107 120 125 125 121 114 107 100 92 82
80 62 3 0 1 7 8 11 7 14 20 24 30 25 10 10
3 0 0 0 5 8 13 18 19 18 18 15 4 9 13 14
22 25 23 22 23 24 22 4 5 8 7 6 4 3 2 1
27 4 9 18 20 20 19 21 24 26 29 41 41 33 8 0
0 0 0 0 0 0 0 0 0 0 0 0 0 0 1 1
1 32 46 76 102 120 121 123 127 128 116 112 129 133 138 133
135 135 133 135 133 138 131 118 132 129 128 128 123 122 118 112
107 85 65 70 84 93 104 119 125 124 122 116 108 101 94 86
79 64 5 1 4 11 4 12 8 23 23 24 36 23 19 13
3 0 0 0 10 14 13 25 26 21 19 16 8 9 13 15
24 24 23 22 23 24 23 6 8 10 8 5 3 1 1 0
23 0 1 16 19 19 19 20 24 26 29 41 41 34 10 0
0 0 0 0 0 0 0 0 0 0 0 0 0 0 0 0
0 30 47 77 95 118 120 124 130 133 116 114 121 131 134 135
130 135 127 130 129 128 130 128 125 124 125 126 122 122 118 107
104 88 67 76 80 84 102 120 126 123 122 117 111 106 98 88
80 66 12 1 6 1 6 7 13 27 25 24 26 23 23 11
2 0 0 3 2 17 18 21 29 29 28 27 24 24 24 18
24 25 24 22 24 26 23 5 0 0 0 0 0 0 0 0
25 0 0 16 19 19 18 18 22 24 27 39 41 35 12 0
0 0 0 0 0 0 0 0 0 0 0 0 0 0 0 1
0 28 59 82 100 117 116 126 133 131 119 116 113 124 123 123
130 130 126 128 124 129 131 128 125 125 123 123 120 118 112 104
97 89 69 74 78 87 106 123 122 122 123 119 113 108 102 92
82 70 14 0 0 1 9 11 26 25 23 22 15 18 12 9
3 0 2 9 14 5 11 13 12 12 13 22 34 36 30 27
27 26 24 23 24 24 22 5 0 0 0 0 0 0 0 1
27 0 0 15 18 19 18 18 22 24 27 39 41 35 12 0
0 0 0 0 0 0 0 0 0 0 0 0 0 0 0 0
0 26 56 71 80 88 94 113 124 125 120 109 111 117 127 129
131 131 124 130 127 128 115 122 126 124 121 120 117 112 105 99
95 90 79 72 84 89 112 125 122 123 123 120 116 110 104 95
85 75 17 1 0 1 9 18 23 21 22 17 12 14 18 10
3 1 5 13 22 10 1 2 2 1 1 2 16 31 28 30
30 29 25 23 23 24 22 5 0 0 0 0 0 0 0 6
33 10 6 16 18 18 18 17 21 23 26 38 40 34 12 0
0 0 0 0 0 0 0 0 0 0 0 0 0 0 0 0
0 25 43 39 37 27 39 64 76 81 80 80 94 113 128 131
127 127 129 125 127 125 119 120 123 123 120 117 115 108 100 96
91 80 69 73 89 97 120 122 122 125 124 121 118 113 107 99
91 79 18 1 2 5 10 16 14 14 17 14 17 27 25 14
8 1 2 7 17 11 3 0 0 1 0 0 0 22 33 28
30 28 28 25 26 23 23 5 0 0 0 0 0 0 0 1
39 36 32 27 14 15 17 16 20 23 25 37 40 34 13 0
0 0 0 0 0 0 0 0 0 0 0 0 0 0 0 0
0 23 42 34 35 39 67 104 103 90 69 72 82 102 120 124
123 120 121 121 121 116 123 120 118 119 115 110 106 101 97 91
78 74 67 80 93 102 116 121 121 124 123 121 117 114 109 104
95 86 29 1 6 7 6 7 12 10 6 6 13 23 25 14
4 4 0 2 1 4 3 0 0 0 0 0 0 2 18 21
29 33 31 26 28 25 22 6 0 0 0 0 0 0 0 0
20 9 7 8 8 9 10 11 20 21 24 35 39 34 12 0
0 0 0 0 0 0 0 0 0 0 0 0 0 0 0 0
0 22 41 33 36 40 48 72 84 99 104 104 113 95 110 122
118 118 118 114 125 119 121 119 113 112 105 102 99 95 85 79
75 65 72 87 96 107 113 117 124 125 124 121 118 116 112 105
98 92 45 0 8 7 7 4 5 7 0 1 5 16 12 10
8 0 0 0 0 0 0 0 0 0 0 0 0 0 10 13
22 25 31 28 25 25 23 6 0 0 0 0 0 0 0 0
24 2 0 3 7 8 8 9 19 21 25 35 40 35 13 0
0 0 0 0 0 0 0 0 0 0 0 0 0 0 0 0
0 22 41 34 56 69 72 91 103 105 109 115 117 106 99 112
117 115 110 116 121 119 116 112 111 110 107 93 89 86 75 67
64 68 78 89 96 113 117 119 124 124 122 118 118 116 112 107
102 96 60 1 4 9 2 4 8 13 0 2 6 13 17 10
1 0 0 0 0 0 0 0 0 0 0 0 0 0 8 16
10 14 23 23 23 26 25 7 0 0 0 0 0 0 0 0
23 4 0 2 7 7 12 13 19 20 24 34 39 34 13 0
0 0 0 0 0 0 0 0 0 0 0 0 0 0 0 0
0 23 42 35 68 80 85 100 95 99 107 109 114 116 103 106
112 113 110 112 115 118 113 109 108 102 96 86 76 74 66 62
66 77 83 87 101 114 119 122 122 116 119 117 118 116 113 109
103 99 58 1 6 4 3 2 13 13 0 6 7 5 0 0
0 0 0 0 0 0 0 0 0 0 0 0 0 0 5 23
6 13 16 19 20 21 24 7 0 0 0 0 0 0 8 0
23 3 0 0 1 7 13 14 18 19 23 32 38 33 15 0
0 0 0 1 1 3 4 4 6 8 10 12 13 15 18 20
22 31 35 32 58 66 81 82 81 89 94 107 113 116 106 104
111 113 112 110 113 109 108 106 102 97 88 77 70 62 61 67
76 81 88 102 105 114 119 118 117 110 118 118 120 118 115 110
107 103 72 4 5 2 1 8 12 11 0 1 0 0 0 0
0 0 0 0 0 0 0 0 0 0 0 0 0 0 5 17
8 17 19 21 22 17 27 10 0 0 0 0 0 1 16 0
14 1 0 1 2 3 14 14 18 19 23 32 38 35 26 17
18 20 23 25 26 28 30 30 31 31 32 31 31 31 31 31
30 30 30 30 33 43 47 50 53 64 91 109 112 115 104 98
104 112 116 115 115 111 109 102 97 93 85 71 68 67 72 80
81 83 89 101 108 115 115 112 123 121 123 120 121 119 115 112
109 104 94 33 8 7 5 5 12 8 1 1 6 4 1 0
0 0 0 0 0 3 3 5 0 0 0 0 0 0 5 12
6 16 21 21 24 15 18 13 0 0 0 0 0 10 18 0
7 7 0 1 5 0 12 13 16 19 21 31 38 38 37 36
32 36 37 37 35 34 34 33 32 32 32 32 32 31 31 30
30 29 30 30 29 29 35 47 60 76 88 100 108 111 105 92
103 111 112 113 109 107 105 97 88 79 68 61 64 72 77 79
80 88 96 106 111 115 118 119 123 123 122 120 120 118 117 115
112 105 98 68 16 1 0 6 7 2 1 0 0 0 0 0
0 0 0 0 0 0 2 7 12 0 0 0 0 0 1 2
13 21 21 22 22 24 15 16 0 0 0 0 0 16 9 0
9 7 0 1 0 0 4 6 13 17 20 30 38 38 37 36
29 35 35 35 35 34 34 33 36 36 24 20 25 28 25 15
25 25 25 25 27 28 31 72 97 101 101 99 106 110 105 102
99 102 104 97 104 101 94 86 74 63 57 59 68 77 79 80
85 92 98 104 111 118 122 125 123 123 120 119 118 118 119 117
114 107 88 72 26 2 0 3 1 0 0 0 0 0 0 0
0 0 0 0 0 0 0 0 12 12 0 0 0 0 1 2
8 16 13 20 22 28 14 16 2 0 0 0 0 4 1 0
2 0 0 0 0 0 2 6 12 13 17 28 37 37 36 35
31 31 30 31 30 29 29 46 62 34 1 0 0 3 3 0
6 18 20 17 15 11 17 73 99 109 112 110 111 110 104 107
97 98 102 97 96 94 82 69 62 54 58 64 76 79 82 84
87 94 99 105 113 118 123 122 121 121 118 119 120 119 120 117
113 108 85 55 19 0 1 2 0 0 0 0 0 0 0 0
0 0 0 0 0 0 0 0 0 2 1 0 0 0 4 3
2 13 5 16 21 29 12 14 17 4 0 0 0 0 0 0
0 0 0 0 0 0 0 1 3 6 9 12 18 16 14 13
10 9 8 11 15 18 41 74 47 5 0 0 0 0 0 0
0 0 0 0 0 0 9 76 99 110 111 116 110 114 102 102
99 99 91 82 80 76 68 58 59 64 68 76 82 82 86 91
97 102 105 107 111 118 119 119 122 122 121 121 121 120 119 118
115 111 93 51 22 3 1 0 0 0 0 0 0 0 0 0
0 0 0 0 0 0 0 0 0 0 0 1 0 0 4 1
0 5 7 14 19 26 12 12 20 0 0 0 0 0 0 0
0 0 0 0 0 0 0 0 0 0 0 0 0 0 0 0
2 5 5 5 20 27 66 62 13 0 0 0 0 0 0 0
0 0 0 0 0 0 10 77 91 112 113 110 108 107 103 96
97 94 84 77 73 66 53 54 61 67 75 83 81 87 90 101
101 107 110 114 118 117 117 121 123 123 123 121 121 120 121 119
116 111 100 55 24 10 1 0 0 0 0 0 0 0 0 0
0 0 0 0 0 0 0 0 0 0 0 0 5 3 2 6
2 0 8 8 10 24 6 11 18 0 0 0 0 0 0 0
3 0 0 0 0 0 0 0 0 3 1 0 0 0 0 1
10 14 12 10 19 44 65 32 3 0 0 0 0 0 0 0
0 0 0 0 0 0 2 66 79 104 111 106 105 101 94 93
86 75 68 64 60 53 57 58 61 66 77 82 88 92 97 105
103 111 113 118 119 120 119 119 123 123 123 121 122 123 123 120
117 114 110 67 34 14 0 0 0 0 0 0 0 0 0 0
0 0 0 0 0 0 0 0 0 0 0 0 0 5 7 3
0 0 0 1 4 22 5 17 20 0 0 0 0 0 0 0
15 4 0 0 0 0 0 0 0 4 6 5 3 0 0 0
5 15 14 12 11 60 53 5 0 9 15 0 0 0 0 0
0 0 0 0 0 0 0 42 72 90 101 95 94 91 87 82
74 60 52 47 46 53 56 53 61 67 74 82 93 98 98 103
109 110 113 121 121 120 118 120 123 124 122 122 123 122 123 120
119 116 115 99 36 18 1 0 0 0 0 0 0 0 0 0
0 0 0 0 0 0 0 0 0 0 0 0 0 0 1 3
0 0 0 0 0 17 4 23 16 0 0 0 0 0 0 0
16 1 0 0 0 0 2 3 3 4 9 7 4 0 0 2
10 22 20 8 17 68 38 9 24 43 41 5 0 5 2 0
0 0 0 0 0 0 0 17 57 69 85 81 80 78 74 64
47 35 31 35 40 39 38 42 53 63 66 79 92 93 88 95
111 115 119 121 119 122 122 122 123 123 123 124 123 123 124 123
122 119 118 110 41 22 2 0 0 0 0 0 0 0 0 0
0 0 0 0 1 0 0 0 0 0 0 0 0 0 0 0
0 0 0 0 0 8 0 23 9 0 0 0 0 0 0 0
1 0 0 0 1 1 9 13 11 7 6 6 8 11 16 19
20 19 16 2 29 60 17 17 37 47 46 18 3 33 32 12
0 4 11 7 0 0 0 0 16 46 54 58 57 56 46 27
15 12 17 18 22 26 30 34 40 47 57 74 89 89 85 105
117 119 119 123 119 121 124 123 125 126 125 126 125 123 123 123
122 121 120 102 36 22 3 0 0 0 0 0 0 0 0 0
0 0 0 0 2 0 0 0 0 0 0 0 0 0 0 0
0 0 0 0 0 9 12 11 2 0 0 0 0 0 0 0
0 0 0 0 0 0 8 11 8 3 3 5 6 12 21 23
17 9 6 0 40 60 8 9 41 50 46 10 22 52 48 34
3 4 7 1 0 0 0 2 4 6 9 9 11 10 5 1
2 2 2 3 5 6 7 12 19 37 61 80 95 98 105 114
116 115 120 119 121 119 123 124 125 124 124 124 124 123 123 123
123 123 122 89 39 20 2 0 0 2 0 0 0 0 0 2
0 3 4 2 4 1 0 0 0 0 0 0 0 0 0 0
0 0 1 2 1 0 1 7 3 1 2 0 0 0 0 0
0 0 0 0 0 0 5 5 2 0 0 1 2 9 20 21
7 0 0 0 48 61 6 12 31 19 39 30 46 58 47 34
9 6 4 0 0 0 0 0 0 0 0 0 0 0 0 0
4 0 0 0 0 0 0 2 9 43 70 87 98 112 120 119
117 116 117 121 121 119 125 125 123 124 122 124 124 124 123 124
123 126 124 75 44 18 3 0 0 2 1 0 0 1 1 4
1 7 10 7 5 1 0 0 0 0 0 0 0 0 0 0
0 0 0 0 0 0 0 0 1 1 7 2 0 0 0 0
0 0 0 0 0 0 0 0 0 0 1 1 2 10 20 19
4 0 0 0 53 62 9 9 12 3 29 44 60 57 39 35
15 5 1 0 0 0 0 0 0 0 0 0 1 0 0 2
0 0 0 0 0 0 0 2 7 58 78 96 109 118 122 121
117 114 116 118 117 115 122 122 123 123 123 123 124 123 122 124
125 129 124 65 48 15 4 0 0 4 7 5 1 1 3 5
3 18 12 6 2 0 0 2 0 12 1 0 0 0 0 0
0 1 0 0 0 0 0 0 0 0 0 0 0 0 0 0
0 0 0 0 0 0 0 0 0 3 5 4 3 12 21 17
7 6 1 0 54 73 25 15 8 7 39 55 66 42 7 25
6 0 0 0 0 0 0 0 0 1 2 0 3 0 0 0
0 0 0 0 1 0 0 6 26 48 78 92 105 115 117 115
113 112 114 116 120 120 119 122 122 122 123 122 123 123 124 126
127 130 117 60 52 11 3 0 1 5 9 8 2 0 2 3
1 6 7 6 2 0 1 2 26 32 13 0 0 0 0 0
2 0 0 0 1 0 0 0 3 4 0 0 0 0 0 0
0 0 0 0 0 0 1 5 2 7 9 7 8 20 27 23
18 20 6 0 45 68 39 20 2 5 39 57 52 21 0 1
0 0 0 0 0 0 2 4 5 3 2 0 2 0 0 0
0 0 0 0 0 0 0 7 61 66 63 81 97 106 108 111
110 110 113 116 118 119 122 121 121 122 123 123 124 125 124 127
128 132 104 61 44 7 5 0 2 3 5 7 4 0 2 3
2 1 9 11 4 0 0 36 67 58 7 0 0 0 0 0
0 1 0 0 0 1 2 0 0 0 0 0 0 0 0 0
0 0 0 0 0 0 12 11 2 7 9 8 22 35 28 26
20 21 7 0 38 62 51 20 0 9 43 49 21 7 0 0
0 0 0 0 0 1 6 6 5 2 3 1 0 0 0 0
0 0 0 0 0 0 0 2 60 88 73 59 78 96 103 105
106 109 113 116 119 122 121 120 120 120 122 122 122 123 124 126
130 131 91 57 11 5 3 0 2 3 1 7 13 7 5 3
3 2 2 6 4 0 0 62 79 38 1 0 0 0 0 2
2 0 0 0 1 0 0 2 0 0 0 0 0 0 0 0
0 0 0 0 0 0 11 14 2 7 7 4 14 28 27 27
26 28 13 0 30 61 51 18 0 3 14 5 0 0 0 0
0 0 1 1 3 0 4 4 2 1 3 0 0 0 0 0
0 0 0 1 0 0 0 1 32 85 89 71 57 72 87 93
100 105 110 115 121 123 121 120 121 121 121 122 122 123 125 127
130 122 74 17 3 7 5 0 3 3 1 6 21 13 4 3
3 0 3 2 1 0 0 0 4 1 0 0 0 0 1 3
2 0 0 0 0 0 0 0 1 1 0 0 0 0 0 0
0 0 0 0 0 0 7 17 10 11 10 4 3 11 25 27
24 18 6 0 5 10 4 0 0 0 0 0 0 0 0 0
0 2 1 1 3 0 3 3 0 2 4 1 1 0 0 0
0 0 0 5 1 0 0 0 5 72 87 88 73 58 62 77
89 100 109 116 118 120 119 120 121 120 121 121 122 123 125 126
127 100 29 0 3 9 5 0 4 3 3 4 19 11 6 2
3 0 2 5 1 0 0 0 0 0 0 0 0 0 0 1
1 0 0 0 0 0 0 0 0 0 1 0 0 0 0 0
8 0 0 0 0 0 4 18 23 13 5 0 0 0 1 1
0 0 0 0 0 0 0 0 0 0 0 0 1 0 0 0
1 1 0 1 2 0 3 3 4 5 2 2 1 0 0 0
0 0 0 3 4 2 0 3 1 44 85 92 85 73 63 65
82 100 109 114 117 121 122 120 120 121 123 121 122 122 124 123
100 41 1 0 3 11 3 0 4 4 2 3 9 9 7 3
2 0 0 4 2 0 0 7 0 0 0 0 0 0 0 1
1 0 0 0 0 0 0 0 0 1 0 1 0 0 0 0
15 3 1 0 0 0 0 0 4 0 0 0 0 0 0 0
0 0 0 0 0 2 17 22 11 0 10 4 0 0 0 1
3 2 0 1 1 0 2 6 7 2 2 0 0 0 0 0
0 0 1 3 3 2 0 3 5 9 75 90 97 89 78 74
85 98 106 112 117 119 121 120 119 120 122 123 123 123 122 97
49 4 0 0 3 20 1 0 4 2 0 2 10 11 12 2
2 0 0 4 4 0 0 0 0 0 0 0 0 0 0 1
0 0 0 0 0 0 0 0 0 0 2 0 3 0 0 1
16 0 5 0 0 0 0 0 0 0 0 0 0 0 0 0
0 0 0 0 0 8 42 36 29 31 11 0 0 0 0 3
2 2 0 1 1 0 4 9 3 5 3 0 0 0 0 0
0 0 1 1 4 0 0 3 7 0 42 87 102 105 95 81
81 90 100 108 112 115 115 117 119 120 122 121 123 121 95 61
9 0 0 0 5 17 0 0 2 0 0 3 12 14 9 3
3 0 0 5 1 0 0 0 0 0 0 0 0 0 1 0
0 0 0 0 0 0 0 0 0 0 0 1 0 1 0 1
6 2 8 0 0 0 0 0 5 0 0 0 0 0 0 0
0 0 0 0 0 1 27 33 47 45 2 0 0 0 0 3
4 0 1 1 0 3 8 5 3 4 1 0 0 0 0 0
0 0 3 1 5 0 0 2 9 0 6 70 95 106 106 97
85 84 91 99 104 107 111 115 117 120 120 122 120 94 68 17
0 0 0 0 7 14 0 0 4 1 0 3 14 12 13 4
3 0 0 5 2 0 0 0 0 0 0 0 0 0 1 1
4 0 0 0 0 0 0 0 0 0 0 0 0 1 1 0
0 0 0 0 0 0 0 0 5 3 0 0 0 0 0 0
0 0 0 0 0 0 7 32 42 21 1 0 0 0 1 2
3 0 3 0 1 11 5 6 3 6 1 0 0 0 0 0
0 0 2 1 2 0 0 2 12 0 0 30 87 106 114 110
99 86 82 87 95 103 108 112 116 119 122 120 95 73 25 1
0 0 0 0 14 17 0 0 3 2 0 2 19 11 13 4
3 0 0 3 0 0 0 0 0 0 0 0 0 0 0 0
0 0 0 0 0 0 0 0 0 0 0 0 0 0 1 0
0 0 0 0 0 0 0 0 0 0 0 0 0 0 0 0
0 0 0 0 0 0 0 15 23 1 0 1 0 0 1 2
1 1 3 0 9 5 4 4 5 7 0 0 0 0 0 1
0 0 3 2 1 0 0 0 12 16 8 2 60 100 116 118
116 107 97 92 95 102 107 109 112 118 118 94 76 34 1 0
0 0 0 0 19 11 0 0 2 1 0 2 14 13 9 2
2 0 0 0 0 0 0 0 0 0 0 0 0 0 0 1
2 3 1 2 5 0 0 0 0 0 0 0 0 0 0 2
0 0 0 0 0 0 0 0 0 0 0 0 0 0 0 0
0 0 0 0 0 0 0 0 5 0 0 2 0 0 1 3
1 3 1 3 9 1 2 2 7 6 0 0 0 0 0 3
0 0 1 4 0 0 0 1 5 30 37 24 23 88 115 123
125 122 116 110 105 103 106 107 110 112 94 78 43 4 0 0
0 0 0 2 27 4 0 0 2 2 0 3 14 12 12 3
4 0 0 0 0 0 0 0 0 0 0 0 4 6 9 8
8 8 3 0 0 1 0 0 0 0 0 0 0 0 0 1
0 0 0 0 0 0 0 0 0 0 0 0 0 0 0 0
0 0 0 0 0 0 0 0 0 0 0 0 0 0 1 4
1 3 1 11 1 2 0 7 7 2 0 0 0 0 0 0
0 0 1 5 0 0 0 1 1 22 46 43 32 54 108 124
130 130 129 123 117 112 110 110 102 90 73 31 2 0 0 0
0 0 0 6 34 0 0 0 1 0 0 2 10 8 10 4
2 0 0 0 0 0 0 0 0 0 0 3 8 11 13 16
9 6 0 0 0 0 1 3 0 0 0 0 0 0 0 0
0 0 0 0 0 0 0 0 0 0 0 0 0 0 0 0
0 0 0 0 0 0 0 2 0 1 2 1 0 1 2 6
1 6 5 4 0 0 1 5 7 3 0 0 0 1 1 0
0 0 6 4 0 0 0 0 0 4 33 51 50 45 87 123
132 135 136 132 128 122 115 104 87 59 16 1 0 0 0 0
0 0 0 9 26 0 0 0 0 0 0 2 8 7 18 2
3 0 0 0 0 0 0 0 0 0 2 8 14 16 16 14
10 3 0 0 0 0 0 0 4 3 0 0 0 0 0 0
0 0 0 0 0 0 0 0 0 0 0 0 0 0 0 3
2 0 0 0 0 0 0 0 0 1 3 1 0 3 2 4
2 4 6 0 0 0 2 5 7 5 0 0 0 1 0 0
0 1 16 0 0 0 0 1 0 0 4 24 42 55 69 105
129 135 137 135 134 125 102 64 27 5 0 0 0 0 0 0
0 0 0 23 20 0 0 0 1 0 0 3 12 12 9 3
1 0 0 0 0 0 0 0 0 0 8 12 14 16 13 11
9 2 0 2 7 0 0 0 0 4 5 0 0 0 0 0
0 0 0 1 0 0 0 0 0 0 0 1 2 3 0 4
5 3 0 0 0 0 0 0 0 1 5 2 1 6 5 1
4 2 2 0 0 0 1 4 6 5 0 0 0 0 2 0
0 4 20 0 0 0 0 0 0 0 0 2 5 11 23 38
61 74 80 71 54 31 11 4 2 0 0 0 0 0 0 0
0 0 1 36 4 0 0 0 0 0 0 3 19 13 9 2
0 0 0 0 0 0 0 0 0 5 14 16 14 13 12 11
9 1 0 6 13 6 0 0 0 0 6 3 0 0 0 0
0 2 0 0 0 0 0 0 0 0 0 2 2 1 0 0
2 5 4 0 0 0 0 0 0 1 3 3 7 8 7 0
0 1 0 0 0 0 2 5 8 3 0 0 0 3 0 0
0 19 8 0 0 0 0 0 1 0 0 0 4 3 3 4
4 6 6 5 4 3 2 1 1 0 0 0 0 0 0 0
0 0 4 37 1 0 0 0 2 0 0 2 13 8 5 1
0 0 0 0 0 0 0 0 3 12 20 19 15 12 10 10
6 0 2 11 11 12 0 0 0 0 0 7 0 0 0 0
0 17 1 0 0 0 0 0 0 0 0 0 2 2 1 0
1 5 6 2 0 0 0 0 0 0 3 4 15 11 7 0
0 0 0 0 0 0 2 5 7 2 0 0 2 7 4 0
3 24 0 0 0 0 0 0 0 0 0 0 3 2 3 4
4 4 4 2 4 2 1 0 0 0 0 0 0 0 0 0
0 0 10 28 5 0 0 0 1 0 0 3 8 6 5 1
0 0 0 0 0 0 0 1 11 18 23 19 14 12 11 9
5 0 4 17 11 7 0 0 1 0 0 0 0 0 1 5
0 16 2 0 0 0 0 0 0 0 0 0 4 3 3 1
0 1 2 1 0 0 0 0 0 0 6 7 24 11 7 8
0 0 0 0 0 0 3 7 3 1 0 1 5 8 3 0
19 12 0 0 0 0 0 0 0 0 0 0 0 1 1 1
0 1 3 2 0 0 0 0 0 0 0 0 0 1 0 0
0 0 30 15 6 0 0 0 0 0 0 1 6 2 1 1
1 0 0 1 0 0 1 6 17 20 22 16 14 12 9 12
5 0 6 18 14 1 0 0 4 5 2 0 0 5 1 0
0 6 0 0 0 0 0 0 0 0 0 0 2 2 3 5
4 0 0 1 0 0 0 0 0 0 7 14 31 18 11 13
0 0 0 0 0 0 2 6 1 0 1 2 7 10 2 0
25 4 0 0 0 0 0 0 0 0 0 0 0 0 0 0
1 0 1 0 0 0 0 0 0 0 0 0 1 0 0 0
0 1 30 8 7 0 0 0 1 0 0 1 4 1 0 1
0 0 0 0 0 0 5 15 23 23 19 14 12 7 6 10
2 0 8 16 10 0 0 0 12 7 7 14 6 0 0 0
6 4 0 0 0 0 0 0 0 0 0 0 1 2 3 5
7 2 0 2 1 0 0 0 0 0 16 22 41 21 8 8
0 0 0 0 0 0 3 4 0 1 0 4 11 9 1 2
23 0 0 0 0 0 0 0 0 0 2 0 0 0 0 0
0 0 0 0 0 0 0 0 0 0 0 0 0 0 0 0
0 8 30 10 2 0 0 0 2 0 0 2 2 0 0 1
0 0 0 0 0 4 14 20 22 22 17 12 8 6 10 10
0 0 14 17 9 0 0 1 16 0 5 10 7 0 0 0
