P2
128 120
155
61 63 66 68 69 65 49 48 48 47 47 47 47 47 47 47
47 47 46 46 46 45 45 44 44 43 43 42 42 41 41 41
39 39 38 38 38 37 37 36 36 35 35 34 34 33 33 32
32 32 31 31 30 29 29 28 28 28 27 27 27 27 28 32
34 33 33 28 21 19 28 29 28 27 26 26 26 26 24 24
24 20 25 26 27 27 27 26 27 27 27 28 29 28 28 29
29 29 29 30 30 29 30 29 29 30 30 31 32 32 32 32
33 34 34 35 35 35 36 35 35 35 36 35 36 35 35 36
56 56 56 57 66 71 58 53 49 47 47 46 47 47 46 46
46 46 45 46 46 45 44 44 44 43 43 42 42 41 40 40
39 39 39 38 37 37 37 36 36 35 35 34 33 33 33 32
33 31 30 30 30 29 29 29 29 28 28 27 28 27 28 32
33 33 33 28 22 23 26 31 29 28 28 27 26 27 24 24
24 20 25 26 27 27 27 27 28 28 28 29 29 29 29 30
29 29 29 30 30 30 30 31 31 31 32 32 32 33 32 33
34 34 34 35 35 35 35 35 36 36 36 36 36 36 36 36
5 3 2 2 40 69 64 68 65 57 50 49 48 48 48 47
47 47 46 46 45 45 44 44 44 43 43 42 42 41 42 41
40 40 40 40 38 38 38 37 37 36 35 35 34 34 33 33
33 32 32 31 30 30 29 29 29 28 28 28 28 28 29 33
34 34 34 29 23 25 25 32 30 29 28 27 26 28 25 26
25 21 27 27 28 28 28 28 28 28 29 29 29 27 29 29
28 30 30 30 31 31 32 32 32 32 32 32 33 33 33 34
35 35 35 35 36 36 37 36 35 36 36 36 35 36 36 35
15 3 0 0 32 66 59 60 46 48 49 52 61 62 63 60
54 47 46 46 46 45 45 44 44 44 43 43 42 41 41 40
40 40 39 39 39 38 38 37 37 37 36 36 35 35 34 34
33 33 33 33 33 31 31 30 30 29 30 29 30 28 29 33
35 34 34 30 24 27 24 31 31 30 29 29 28 29 26 26
25 22 27 27 29 29 29 29 29 29 29 29 30 30 30 30
30 31 31 31 31 31 32 33 32 32 33 33 33 34 34 35
35 35 35 36 37 35 36 36 36 36 36 37 37 37 37 36
13 5 0 0 24 64 58 54 8 3 12 23 35 45 53 59
62 49 46 46 45 45 45 44 44 43 43 43 43 42 42 42
41 41 40 39 39 39 38 37 37 37 36 35 35 35 35 34
33 33 33 32 32 32 31 30 29 30 29 30 30 30 30 34
36 36 35 30 24 28 24 32 30 30 29 28 28 29 26 26
26 23 27 28 29 29 29 29 30 30 30 30 31 30 31 31
31 31 32 32 32 32 32 33 32 32 33 33 33 34 33 35
35 35 36 37 36 36 37 36 36 37 37 37 37 37 37 36
7 2 0 0 19 63 60 53 8 0 0 0 0 0 3 37
61 49 46 46 46 45 45 45 44 44 44 43 43 42 42 42
41 41 40 40 39 39 38 38 38 37 37 37 36 36 35 34
34 33 33 32 32 32 30 30 29 29 29 29 31 30 32 36
37 36 36 31 25 30 25 32 31 31 30 29 29 30 27 27
26 22 27 26 30 29 30 30 31 31 31 31 31 31 31 31
32 32 32 32 32 33 33 33 33 33 34 34 34 35 34 34
35 35 36 36 36 36 37 36 36 37 37 37 38 36 37 36
12 9 0 5 14 63 61 51 8 0 0 0 0 0 0 34
62 50 46 46 46 46 45 44 44 44 43 43 43 43 42 42
42 41 41 41 40 40 39 38 38 37 37 36 36 36 35 35
34 34 34 33 33 32 31 31 31 30 29 29 30 31 33 34
37 36 36 32 25 31 26 33 32 32 31 30 29 31 28 28
27 24 28 29 31 31 31 31 32 31 31 31 31 31 31 32
32 32 32 33 33 33 34 34 34 34 34 34 34 34 35 36
35 36 36 37 37 37 38 37 36 36 36 36 36 37 36 36
1 2 0 4 9 61 60 53 8 0 4 12 1 0 0 32
63 50 46 46 46 46 45 44 45 44 44 44 43 43 42 42
41 41 40 40 40 39 39 39 38 38 38 37 37 37 36 36
35 35 34 34 33 32 34 31 29 28 28 25 26 31 31 34
37 37 37 33 26 30 27 32 32 32 32 31 30 32 29 28
28 25 29 29 31 31 31 31 32 31 32 32 32 32 32 33
32 33 33 33 34 33 34 34 34 34 35 34 35 35 36 37
37 36 36 36 35 35 35 36 37 37 38 38 37 38 38 37
0 3 0 5 8 61 63 55 9 2 14 16 4 0 0 30
61 50 46 46 46 46 45 44 44 44 44 44 44 43 42 42
42 41 42 41 40 39 39 38 38 38 38 37 36 36 36 35
36 35 35 35 35 34 33 31 30 24 18 14 14 21 32 35
38 36 38 34 26 31 28 30 32 32 32 30 30 31 29 28
28 25 29 29 32 32 32 32 33 32 33 33 32 32 32 32
33 33 33 34 34 34 34 35 35 35 35 36 35 35 35 35
35 35 35 36 37 38 37 37 37 38 37 38 37 38 38 37
1 0 0 5 7 56 61 55 10 0 7 11 7 0 0 30
62 50 46 45 46 45 46 45 45 44 44 44 43 43 43 42
42 42 42 40 41 40 40 39 39 38 38 37 38 37 37 36
36 35 35 34 34 33 30 30 23 18 13 12 13 10 23 36
36 34 38 34 26 30 30 30 31 33 32 31 30 31 29 29
29 26 29 29 32 32 32 33 33 33 33 33 33 33 33 33
34 34 34 35 35 34 35 35 35 35 35 34 35 35 35 36
37 37 37 37 38 37 38 37 37 37 38 38 38 38 39 37
5 2 0 1 6 52 60 55 11 0 3 9 13 2 0 29
60 49 46 45 46 46 45 45 45 44 44 43 43 42 42 42
41 42 41 40 40 40 41 39 39 39 38 38 38 37 37 36
35 36 36 35 35 34 26 23 15 9 6 6 8 5 12 27
26 20 22 26 25 32 33 29 33 33 33 32 31 31 30 29
29 26 29 29 33 33 33 33 34 33 33 33 33 33 33 34
34 34 34 34 35 35 35 34 35 35 35 36 36 36 37 37
37 37 38 37 38 37 38 38 37 37 38 38 38 38 38 37
21 20 18 20 22 47 57 58 13 0 3 8 13 4 0 28
61 49 46 46 46 45 45 44 44 44 44 44 43 42 42 42
41 41 41 40 40 40 40 39 39 39 39 38 37 38 37 36
36 36 36 32 32 29 18 19 16 8 7 6 9 3 5 15
12 7 7 5 11 27 33 29 34 33 33 32 31 29 30 30
30 26 29 29 33 33 33 33 33 34 33 33 33 34 34 34
34 34 34 34 35 34 35 35 34 35 35 35 35 35 36 37
37 37 38 38 38 37 38 38 38 38 37 37 37 37 38 36
47 44 44 45 44 42 49 57 15 0 2 6 7 9 5 28
59 49 46 46 46 45 45 44 44 43 44 43 43 42 42 42
42 41 41 40 40 39 40 39 39 38 37 37 37 37 36 35
37 37 33 27 20 15 13 15 17 9 4 7 5 3 5 8
10 6 4 3 3 9 25 26 35 35 33 32 31 29 30 30
30 27 29 29 33 33 33 33 33 34 34 34 33 33 33 33
34 33 35 34 34 34 35 35 35 36 36 35 36 36 36 36
36 37 37 37 37 37 37 37 37 37 37 37 37 37 39 36
34 34 36 37 38 39 43 51 39 28 24 17 13 11 17 38
59 48 45 45 44 44 44 43 44 43 43 42 43 42 42 41
41 41 41 40 40 40 39 39 38 38 38 38 36 35 34 34
36 36 30 16 19 17 21 22 18 11 7 10 4 10 13 11
13 8 6 0 2 6 2 10 23 31 33 32 31 29 30 29
29 27 28 29 33 33 33 32 33 31 32 32 32 32 33 33
35 34 34 34 34 34 34 35 35 35 35 36 36 36 36 36
36 36 36 36 37 37 37 37 37 36 37 36 36 35 37 36
22 25 31 36 40 43 39 37 38 40 43 44 45 44 41 46
54 46 45 44 44 44 44 44 44 43 43 43 43 42 41 41
40 41 40 40 40 39 39 39 38 38 37 37 37 34 34 33
28 16 10 13 20 16 18 25 24 17 13 10 6 11 16 14
12 10 6 5 2 3 1 0 6 17 31 33 32 29 31 29
29 27 28 29 32 32 32 32 33 32 33 34 33 33 33 34
34 33 34 34 34 33 34 35 35 36 35 35 36 36 36 37
37 36 37 37 37 36 36 36 35 36 36 37 36 37 38 36
20 20 21 21 21 22 24 24 24 29 32 36 39 42 45 46
47 45 46 45 45 44 44 44 43 43 43 42 42 42 42 41
42 41 41 40 40 39 39 39 38 37 37 38 35 26 12 11
8 7 10 18 24 23 28 29 31 21 17 11 7 18 23 25
17 8 4 4 5 1 0 0 1 4 16 29 32 31 31 30
29 27 28 30 33 33 33 33 34 33 34 33 34 34 34 34
35 34 34 34 34 35 34 34 36 35 35 35 36 36 36 37
36 36 37 37 37 37 36 37 36 37 37 37 37 37 36 34
19 20 21 20 21 21 21 21 20 20 21 22 24 27 31 37
41 44 45 46 46 45 45 45 44 44 43 43 43 42 42 42
42 42 41 41 40 40 39 39 39 38 38 36 23 7 9 17
18 27 29 27 27 34 30 24 33 33 23 16 13 23 33 32
20 11 7 7 0 1 1 1 0 1 7 24 31 30 31 30
30 29 29 31 34 34 33 34 34 34 34 34 34 34 35 34
36 34 35 35 35 35 35 35 36 36 36 36 37 37 37 37
37 37 37 37 38 37 37 37 37 37 36 35 35 35 36 36
35 36 40 37 34 32 28 24 20 20 19 20 20 19 19 21
22 24 27 30 35 39 42 43 44 44 43 43 43 42 42 42
42 42 41 41 40 40 40 40 38 35 35 32 8 0 6 11
16 17 17 13 18 29 32 38 44 43 41 24 22 32 39 32
21 14 9 8 6 7 7 2 2 2 4 23 32 31 31 29
30 30 29 31 34 34 35 33 34 34 34 35 34 35 35 35
36 35 35 35 35 35 36 36 36 36 36 37 37 37 36 38
37 37 37 37 38 37 36 36 35 36 36 37 37 36 36 36
39 37 41 41 44 53 67 55 29 25 22 21 21 21 20 20
20 20 21 20 20 21 22 23 28 33 44 44 43 43 42 42
42 41 41 41 41 40 40 40 40 38 35 27 10 3 5 8
10 9 8 8 15 23 29 46 49 53 49 31 27 39 45 26
29 21 14 13 8 10 10 5 6 6 10 22 32 33 31 30
31 31 29 32 34 35 34 34 35 35 35 35 35 35 35 36
37 36 36 36 35 36 36 36 36 37 37 37 38 37 37 37
37 36 36 37 37 36 37 38 37 37 37 37 37 36 37 36
0 13 45 42 45 52 66 64 57 54 49 49 50 45 41 34
22 24 21 20 20 21 21 13 13 25 43 44 43 43 43 43
42 42 42 42 41 41 40 40 39 39 37 29 12 6 10 15
15 16 19 16 14 22 31 35 50 56 57 46 43 49 52 41
37 31 27 20 18 17 12 13 11 8 5 6 24 30 30 29
32 35 29 32 34 35 35 35 36 35 35 35 36 35 35 35
37 36 37 36 36 36 37 37 36 37 36 37 36 36 36 35
36 36 37 36 36 36 36 37 36 37 36 37 36 37 36 36
0 13 43 42 44 51 62 64 63 64 59 57 63 62 60 52
31 38 39 32 25 23 21 18 19 24 42 44 44 43 43 41
42 43 43 42 41 40 40 40 39 38 36 31 16 6 11 17
19 25 24 27 30 31 36 45 51 66 87 77 71 74 76 66
54 45 36 40 31 25 19 15 9 8 4 9 15 30 33 32
32 33 31 33 35 35 35 35 36 35 35 35 36 36 36 36
38 38 37 37 36 37 37 37 37 36 37 37 37 36 36 36
36 36 37 37 37 36 36 38 36 37 37 37 37 37 37 37
1 7 13 12 13 35 60 63 60 62 53 55 58 62 62 55
40 47 53 48 50 52 47 31 19 24 42 44 44 44 43 45
54 52 49 46 44 42 41 42 40 39 37 29 18 13 15 19
28 42 52 53 59 61 67 75 80 90 104 111 107 105 104 90
70 63 59 52 47 42 37 32 26 17 13 13 13 26 30 31
32 33 34 33 34 36 36 36 36 36 37 36 36 36 36 36
36 36 35 36 36 37 37 37 38 36 38 37 37 37 37 37
36 36 37 37 37 36 36 38 36 38 38 37 36 37 37 36
1 14 14 2 1 25 62 55 13 30 26 34 42 50 55 56
45 50 55 53 57 59 58 42 20 26 44 45 44 43 44 46
57 54 52 49 48 48 49 43 42 41 35 20 13 22 28 39
55 68 77 93 94 101 107 111 114 121 128 126 123 124 128 122
109 99 86 72 68 58 49 39 28 15 7 4 4 12 24 32
32 31 31 34 34 36 35 36 36 35 35 35 35 36 36 35
35 36 37 36 36 36 37 37 37 36 36 36 36 36 36 36
36 36 36 36 36 36 37 38 36 37 36 37 36 36 36 36
7 27 42 8 1 28 63 55 3 9 1 0 1 7 10 51
47 51 55 56 60 60 60 47 21 28 47 47 46 46 44 46
56 55 51 50 53 55 53 44 46 44 26 10 17 30 45 70
83 93 103 114 128 132 128 131 136 134 139 139 134 131 130 132
132 126 114 94 81 74 72 64 47 27 13 6 6 6 14 27
30 34 30 33 34 35 35 36 35 36 36 35 36 36 35 36
36 35 36 36 37 36 37 37 38 36 37 37 36 37 37 36
36 36 36 36 36 36 36 38 37 37 37 36 36 36 36 36
20 33 41 33 5 22 64 55 4 0 1 0 9 18 11 51
46 52 51 56 58 59 58 49 22 27 49 48 47 47 48 50
33 22 37 48 53 53 52 27 19 23 16 17 33 57 81 90
99 117 128 133 139 137 139 141 140 138 137 139 138 135 132 133
136 134 125 120 111 97 85 71 64 47 28 13 6 7 9 25
29 30 29 33 34 35 35 35 35 36 36 36 36 36 36 36
37 37 36 36 37 37 36 36 38 37 37 37 36 36 36 36
37 36 37 36 36 37 36 37 37 37 36 36 36 36 36 36
23 39 33 24 15 18 64 59 7 0 1 0 17 22 17 51
23 20 32 43 51 54 54 50 23 28 49 49 42 43 51 56
24 0 5 22 26 27 41 20 0 8 14 28 51 80 98 107
115 124 135 139 140 140 146 143 141 141 141 142 139 137 138 135
134 132 129 128 124 116 110 95 81 72 54 30 13 12 13 19
28 29 29 33 34 36 37 36 36 37 37 36 36 37 36 37
36 37 37 37 36 36 37 37 39 37 37 37 37 37 37 37
37 37 36 37 37 36 36 38 37 37 36 36 37 36 37 36
7 27 32 18 3 15 64 62 9 1 2 0 10 13 13 51
15 0 4 7 7 12 18 49 24 24 33 42 48 50 55 59
29 0 2 13 18 19 35 24 2 8 20 35 71 93 108 112
120 128 135 140 143 146 145 143 144 144 144 145 143 140 140 138
138 135 133 130 124 120 114 109 100 85 68 48 19 8 10 21
27 31 29 34 34 37 37 37 37 37 37 36 37 37 37 36
36 37 37 37 37 37 37 37 38 37 37 37 36 37 37 38
37 37 37 38 37 37 37 38 37 37 36 37 37 36 37 36
0 0 2 0 0 15 65 64 11 0 1 0 2 0 6 52
12 1 0 0 0 0 6 48 24 18 1 2 8 18 30 41
30 0 1 8 5 10 32 28 5 9 22 53 82 105 112 112
122 128 131 143 146 147 146 146 147 145 146 146 145 146 145 140
138 138 135 132 128 121 115 109 106 100 87 60 30 14 10 20
30 31 29 35 34 37 37 37 37 37 37 37 37 37 37 37
37 38 37 37 38 37 38 38 38 37 38 38 38 38 38 38
38 37 37 38 38 37 37 37 35 37 37 38 38 37 38 37
0 0 0 0 0 13 66 66 14 0 6 5 16 0 5 52
13 6 1 11 0 0 6 49 24 18 0 0 0 0 0 2
23 0 0 1 0 4 29 25 8 17 36 66 91 108 114 113
124 131 140 146 148 148 148 148 148 147 144 146 146 147 146 143
140 140 137 133 128 121 118 111 106 102 99 78 41 17 12 19
32 33 29 35 34 38 38 38 38 38 38 37 37 37 37 37
37 37 37 38 38 38 38 38 38 38 38 38 39 38 39 38
38 38 38 37 37 37 37 38 38 38 39 38 38 37 37 37
0 0 0 0 0 11 65 68 19 0 18 18 27 3 5 52
15 7 2 20 8 0 4 49 25 19 0 0 0 0 0 0
19 0 0 0 0 2 34 29 6 24 42 75 102 113 111 118
125 134 140 146 148 148 147 148 148 147 145 146 147 147 147 143
141 140 137 137 131 126 121 114 106 102 101 92 58 32 19 23
28 33 29 35 35 38 38 38 37 38 37 37 37 38 37 37
38 37 38 38 38 38 38 38 39 38 38 38 39 39 39 39
38 38 38 37 38 38 37 38 38 37 38 38 37 36 36 39
36 36 33 29 26 32 66 68 25 5 3 3 2 1 4 51
14 7 3 14 9 0 5 49 24 19 1 0 0 3 0 0
17 0 0 0 0 2 30 33 14 28 52 87 107 112 114 119
126 134 137 146 147 148 148 148 148 147 147 147 148 147 146 144
141 141 136 137 135 128 123 116 109 103 101 94 71 42 24 23
27 33 31 34 35 38 39 38 37 38 38 38 37 38 38 38
38 38 38 38 38 38 39 37 38 37 38 38 38 39 39 38
38 38 37 37 38 38 38 38 38 37 38 38 38 38 38 38
60 57 54 49 44 39 38 40 9 0 5 13 6 1 4 49
11 4 4 0 3 0 4 49 24 20 2 4 6 16 0 0
17 2 3 0 0 6 28 36 15 35 63 91 107 112 113 122
129 138 142 147 147 148 148 147 148 148 147 148 148 147 148 144
143 142 140 139 137 132 123 116 110 104 102 97 80 57 28 22
30 34 32 34 34 38 38 38 38 38 38 38 38 37 38 38
39 38 39 39 38 38 39 39 38 39 38 39 39 38 39 39
40 39 39 39 38 38 38 38 38 38 38 38 38 38 38 39
32 34 41 50 53 52 42 37 17 12 10 14 6 0 5 48
10 1 10 0 0 0 5 48 25 20 5 15 6 7 0 0
17 3 0 0 0 9 31 34 19 40 71 93 104 112 118 123
132 139 145 147 148 148 148 149 149 148 147 148 147 146 145 143
141 139 138 136 135 134 126 120 114 107 103 98 85 69 38 25
33 32 31 35 35 39 38 38 38 38 38 39 38 38 38 39
39 38 38 38 38 38 39 38 38 38 39 39 39 39 40 39
40 38 40 39 39 39 39 38 38 38 38 38 37 36 36 39
0 0 1 4 9 27 49 49 55 55 51 53 49 42 40 53
25 10 12 11 9 5 10 48 24 21 10 6 0 3 5 0
24 10 5 6 1 4 29 45 31 49 80 90 104 114 120 125
131 136 143 147 148 148 148 148 149 147 147 148 148 148 145 143
142 136 138 135 131 131 125 123 118 112 106 97 89 77 44 26
31 32 33 36 35 39 39 38 38 38 38 38 39 38 39 38
39 40 39 39 39 39 39 39 38 39 39 39 40 39 39 39
39 39 38 37 36 36 37 37 37 36 36 36 33 31 28 25
0 2 1 0 0 12 63 51 20 25 33 41 45 50 54 59
68 46 41 47 50 47 45 46 24 21 5 0 0 0 0 1
40 54 42 40 37 26 36 50 32 55 86 94 105 113 121 128
132 136 142 145 146 147 148 148 148 146 147 148 148 144 143 141
144 142 138 133 129 127 125 122 119 114 109 98 90 80 51 31
31 33 31 35 35 39 39 39 39 39 39 39 39 39 39 39
38 40 39 39 38 38 39 40 39 38 39 39 39 38 38 38
39 36 38 38 35 35 33 30 26 24 21 19 18 17 17 17
0 0 12 17 2 11 61 52 21 14 23 21 18 6 42 74
71 42 47 56 60 60 59 49 23 21 3 0 0 0 0 1
43 64 51 57 61 61 50 48 32 60 86 97 104 113 122 129
132 136 140 142 143 144 146 147 147 147 146 146 147 141 143 140
142 142 140 135 133 130 125 122 120 115 111 99 90 83 58 34
33 35 32 35 36 39 39 39 38 38 38 38 39 39 38 37
38 40 39 38 38 39 39 39 39 39 39 40 39 38 36 34
31 28 29 39 23 17 17 18 19 19 21 21 22 23 23 24
26 7 26 12 1 9 61 52 8 9 12 6 6 0 42 72
60 38 48 57 59 61 62 52 24 24 21 15 8 3 1 0
41 54 52 59 63 63 51 41 35 61 86 98 105 114 122 128
133 132 136 141 143 146 148 147 147 147 147 147 146 146 145 140
140 142 142 136 133 134 128 123 119 116 110 101 93 84 65 42
34 35 33 35 36 39 38 39 38 37 38 38 38 38 38 37
37 38 39 31 17 38 39 38 36 34 31 27 24 22 20 20
21 20 19 35 21 19 23 25 25 26 27 28 29 30 31 30
31 15 18 16 4 8 59 50 1 2 5 0 0 0 40 67
45 10 16 23 25 31 38 50 25 25 47 58 54 47 40 35
51 42 50 57 61 61 53 44 41 64 87 98 105 113 122 126
131 133 138 146 147 149 149 148 147 148 148 147 146 147 146 145
141 141 144 142 140 137 130 124 119 114 111 102 93 86 65 47
36 35 32 34 35 39 39 37 37 35 35 35 33 33 37 38
38 36 27 5 21 28 24 23 21 21 21 21 22 24 24 25
26 27 26 32 23 25 30 31 32 33 33 33 33 34 33 32
7 0 21 32 9 9 59 48 1 0 0 1 0 0 36 66
45 1 1 0 0 0 7 46 25 26 49 62 61 58 59 60
60 24 20 29 35 41 39 43 39 65 85 97 103 112 121 125
131 134 141 147 149 149 148 147 148 148 148 147 147 147 146 146
143 135 145 143 141 137 133 126 120 114 110 103 95 88 72 47
32 32 31 32 33 34 34 34 33 34 33 33 26 23 29 27
24 17 8 19 23 24 25 26 26 27 28 28 29 31 32 32
33 32 30 33 25 29 33 34 34 35 36 35 36 36 36 36
33 34 36 18 8 11 60 49 5 25 3 0 0 0 29 67
46 0 0 0 0 3 8 43 26 24 44 57 58 59 59 61
57 13 0 0 3 13 22 41 42 66 84 94 103 112 120 126
127 135 141 147 149 148 147 147 148 148 148 145 148 146 139 144
145 136 142 141 136 131 124 124 120 112 107 100 94 88 78 48
27 28 29 30 33 34 32 31 29 27 25 23 21 20 23 23
13 19 19 29 30 30 32 32 33 33 34 34 35 35 35 35
35 34 27 11 10 30 36 37 37 37 36 37 37 37 37 36
22 54 52 19 2 12 65 54 10 35 3 0 0 0 22 62
41 0 0 0 12 36 34 39 37 32 38 44 45 47 48 53
52 8 0 0 2 5 12 43 38 62 83 93 105 111 118 124
127 132 136 139 136 135 130 136 137 142 148 142 148 147 130 132
138 126 124 123 120 121 111 114 114 112 105 95 92 90 82 54
26 23 19 22 24 24 23 24 24 25 26 27 28 29 30 17
28 23 30 35 35 35 36 35 36 36 36 37 37 36 37 37
36 35 26 5 2 26 37 38 39 38 37 37 37 37 38 38
8 47 46 19 3 11 64 57 5 21 7 0 0 0 20 58
38 0 0 0 10 36 35 33 33 28 30 29 34 41 39 49
52 7 0 0 1 4 3 42 32 55 84 96 103 106 112 119
114 112 118 113 111 100 98 108 115 128 139 136 144 136 121 112
110 106 99 93 90 93 95 98 97 93 94 91 90 88 81 57
27 26 22 21 23 24 28 30 31 32 32 34 34 34 24 27
37 33 16 22 22 19 15 21 38 38 37 37 24 6 6 12
12 13 20 8 3 25 37 38 40 38 39 38 38 39 39 39
0 37 35 14 3 10 65 57 4 3 4 0 0 0 23 59
36 0 4 0 2 16 19 31 30 28 31 33 37 42 42 51
52 8 0 0 0 1 2 44 31 56 88 97 102 104 107 105
95 94 89 73 60 45 52 74 87 102 113 122 126 122 118 110
86 65 52 45 44 50 56 62 72 68 62 61 72 86 81 60
30 29 27 26 28 30 34 35 35 36 37 36 36 33 23 35
35 39 7 1 0 1 2 19 27 20 5 5 1 7 1 0
0 0 6 0 0 24 37 38 39 38 38 38 38 38 39 38
4 21 26 2 0 10 64 56 5 0 0 0 0 0 26 61
35 0 5 1 0 0 1 28 25 27 18 11 17 24 30 37
42 8 0 0 0 0 5 46 31 56 88 92 97 84 75 74
71 65 54 43 32 35 38 51 76 95 108 113 118 116 107 92
66 46 32 26 25 27 29 38 46 48 54 55 49 71 83 61
32 34 33 29 30 34 37 37 38 38 38 37 37 20 15 3
3 46 20 0 0 0 0 0 0 0 0 0 0 0 11 0
0 0 1 2 1 24 37 39 40 39 39 39 39 39 39 38
28 10 6 6 16 21 60 52 3 0 0 0 0 0 29 61
35 0 2 10 3 0 1 34 33 33 15 0 0 1 0 0
18 8 0 0 1 0 3 45 30 58 89 92 75 46 55 50
47 43 48 41 35 30 30 46 65 89 104 105 107 105 104 91
60 34 24 20 23 41 55 65 66 68 75 73 68 69 85 65
36 36 35 32 34 37 39 39 39 39 39 38 27 4 12 12
2 6 2 0 0 0 0 0 0 0 0 0 0 0 6 0
0 0 2 8 1 27 38 39 40 39 39 39 39 39 38 38
0 7 7 16 55 56 57 50 27 20 15 10 8 5 33 61
35 0 0 7 8 0 0 38 39 33 17 0 0 2 0 0
14 8 0 6 15 5 2 44 25 58 90 89 62 64 78 85
98 100 100 92 62 34 37 51 56 70 94 108 105 108 98 73
49 42 40 39 47 55 62 65 62 77 87 89 81 78 86 67
36 39 77 72 35 38 40 39 40 39 39 39 17 23 38 17
20 26 20 18 19 18 17 12 10 12 1 0 0 0 0 0
0 0 7 19 11 31 38 39 40 39 38 38 38 38 38 38
11 36 47 36 58 61 60 52 58 55 44 43 52 45 47 53
41 8 0 6 16 8 0 35 39 33 18 0 2 11 3 0
12 9 0 18 23 10 3 43 26 54 86 90 73 84 98 98
95 84 84 89 94 78 62 62 68 73 97 119 126 130 116 81
69 69 65 69 82 72 73 85 75 53 75 88 87 83 89 72
37 71 106 78 40 38 40 39 39 38 38 27 10 25 24 35
40 40 40 40 40 40 39 38 20 17 1 0 0 0 0 1
0 3 23 29 28 35 38 39 39 38 38 38 37 38 38 38
53 51 60 59 59 62 63 61 34 23 16 17 23 26 27 49
47 38 29 25 35 30 21 42 38 29 17 0 9 25 12 2
11 17 7 23 24 33 58 47 25 53 84 89 80 91 94 85
62 75 62 40 47 67 97 89 72 72 93 131 146 142 119 84
75 72 79 83 51 25 45 43 49 65 78 88 92 95 93 77
62 111 106 97 46 38 40 40 39 39 35 11 34 32 39 39
39 39 39 39 39 39 39 34 10 0 0 0 0 1 34 36
35 34 32 32 35 38 39 38 39 38 38 38 38 38 38 38
48 35 56 52 37 42 48 54 13 0 0 0 11 24 16 50
49 36 30 37 46 52 55 57 46 28 19 0 13 24 12 3
11 47 45 50 48 72 109 72 28 56 87 97 88 93 91 69
55 53 70 56 24 63 107 91 94 85 94 127 145 143 116 90
91 81 81 128 67 44 56 87 64 54 76 88 97 101 97 83
89 117 100 105 59 38 40 39 39 38 16 28 40 40 40 39
40 40 39 39 39 39 39 29 0 0 9 4 0 1 35 38
37 36 35 34 37 40 39 39 40 39 39 39 39 39 38 38
30 3 24 19 2 0 2 44 15 0 2 6 8 20 28 52
49 20 1 3 13 17 48 57 45 28 21 1 5 8 6 1
10 50 51 55 55 65 110 111 88 61 91 100 101 98 90 70
54 86 104 56 58 82 130 102 96 101 101 123 141 142 113 97
102 89 92 109 99 78 78 90 76 68 84 92 104 109 101 87
103 108 100 105 72 38 40 40 40 23 18 40 40 40 40 40
39 39 39 39 40 40 39 31 0 0 7 6 0 0 35 38
38 37 36 37 38 37 38 37 37 38 39 38 38 37 38 38
25 0 0 5 1 0 0 43 17 0 16 43 26 14 21 53
50 16 1 12 33 18 49 55 40 29 29 17 4 6 3 0
9 49 50 53 52 66 99 118 119 78 93 106 115 110 94 90
78 89 96 95 97 105 109 108 107 100 103 125 143 139 112 98
102 93 98 105 109 101 98 95 88 94 101 111 115 115 101 89
98 109 103 103 93 38 40 39 33 11 38 40 40 40 40 40
40 40 40 40 39 39 39 31 0 0 0 1 0 0 32 38
38 36 36 37 38 38 38 38 39 39 39 38 38 38 37 37
12 4 1 11 10 0 0 43 18 7 36 44 13 2 16 56
51 13 1 8 34 35 51 51 33 30 31 12 1 4 1 0
9 47 44 48 48 67 98 107 120 100 94 110 123 126 119 111
104 99 101 103 105 105 103 107 97 100 109 131 147 140 118 100
100 94 95 110 112 110 108 105 104 106 110 119 123 119 104 90
88 115 104 109 107 38 39 39 17 30 40 40 40 40 40 40
39 39 39 39 38 38 37 28 0 0 0 0 0 0 30 39
38 38 38 39 39 38 39 39 39 39 38 38 39 38 38 38
45 46 41 44 22 0 0 42 21 6 26 51 11 0 16 58
52 12 1 2 10 23 53 52 32 34 31 10 2 5 1 0
8 51 44 44 45 56 98 110 109 99 94 112 126 135 132 122
114 112 116 114 116 120 121 116 99 105 112 135 147 138 118 100
102 101 102 116 128 130 128 123 120 119 120 126 125 117 105 89
89 118 104 113 96 37 40 37 12 39 39 38 40 39 39 39
40 40 39 37 19 10 7 6 0 0 0 0 0 0 28 39
38 38 38 39 39 39 39 39 39 39 38 38 39 38 38 38
17 9 13 14 7 0 1 42 18 0 13 32 7 7 18 59
54 13 0 0 0 11 51 51 32 31 33 41 40 34 33 32
34 55 48 47 47 56 104 112 105 94 97 112 126 136 139 134
128 131 134 136 136 133 130 120 107 108 113 138 145 139 120 102
104 106 107 117 133 137 136 131 127 126 130 130 124 117 104 91
73 101 108 113 71 37 40 33 16 39 39 40 40 39 40 40
40 41 40 31 10 19 3 4 0 0 0 1 2 1 25 39
38 39 39 39 39 39 38 38 38 38 38 38 38 38 37 37
12 0 0 0 0 0 0 40 17 0 0 0 2 6 16 58
54 11 0 0 0 7 51 52 32 33 36 58 63 60 61 64
64 62 51 47 48 58 110 113 112 81 98 111 125 137 141 142
139 141 142 140 138 140 137 125 109 109 114 138 145 138 119 101
102 105 109 115 134 141 139 134 132 132 135 129 123 112 100 88
75 94 114 107 52 38 40 33 19 41 41 40 40 41 40 40
40 40 39 40 47 43 24 18 0 0 0 0 0 0 9 27
38 39 39 39 38 38 39 39 39 38 38 38 38 38 38 37
20 0 0 0 0 0 0 38 20 0 0 0 0 0 13 57
52 10 0 0 0 7 50 54 30 33 35 59 63 62 63 64
65 63 36 28 23 35 111 112 85 58 96 108 122 135 143 145
145 143 142 142 142 145 143 124 109 109 113 132 144 135 113 101
102 104 109 118 134 139 139 139 135 134 132 126 121 107 97 85
89 99 114 97 43 37 40 33 18 40 39 39 39 39 39 39
40 40 39 36 34 33 8 2 0 0 0 0 0 0 11 6
17 30 38 39 38 38 39 39 38 38 38 37 37 37 37 37
29 0 0 0 0 0 0 36 19 0 0 0 0 0 11 56
53 9 0 0 0 4 46 50 28 34 30 36 40 40 40 41
43 46 19 1 0 10 107 115 78 69 88 102 117 131 141 146
147 146 147 147 146 146 143 122 109 107 112 129 141 133 109 99
100 104 109 119 138 145 146 143 135 131 126 119 117 103 93 83
98 104 114 77 37 38 40 35 14 40 39 40 40 40 39 37
36 33 31 24 7 3 2 0 0 0 0 0 0 0 3 7
1 19 38 39 39 38 38 38 38 38 37 37 37 37 37 37
26 0 0 0 0 0 0 34 18 0 0 0 0 0 10 56
54 10 0 0 0 2 43 52 28 32 29 40 43 42 42 40
40 41 21 8 0 2 93 114 81 91 82 98 112 128 137 143
147 148 149 149 148 148 144 123 107 105 116 133 144 139 113 99
97 103 109 122 140 146 145 146 143 129 124 120 113 103 94 81
95 103 112 56 38 37 40 37 14 38 39 38 39 38 25 12
11 10 10 6 0 1 0 0 0 0 0 0 1 0 2 7
2 15 39 39 40 39 39 39 38 37 36 36 37 36 37 36
1 0 0 0 0 0 0 33 25 6 7 10 14 17 27 56
53 12 0 0 0 3 48 56 28 31 31 44 48 48 47 47
47 46 22 8 0 0 68 117 88 107 80 95 107 119 134 139
144 147 149 149 149 149 146 123 104 104 115 138 147 144 122 100
96 98 108 123 140 147 147 144 139 124 116 115 108 96 91 75
85 103 95 38 37 37 39 38 18 35 37 34 31 25 11 2
2 3 2 1 1 8 4 3 0 0 0 0 1 0 1 6
3 12 38 39 39 39 38 38 38 37 37 37 36 37 37 37
20 19 18 16 14 13 13 39 48 45 46 48 51 55 55 49
37 18 10 7 5 7 46 52 27 31 32 44 49 48 48 49
50 50 21 5 0 0 49 116 92 103 81 91 102 113 124 131
139 147 148 149 149 149 145 116 101 105 117 139 148 146 127 103
96 95 105 123 133 146 147 144 137 125 118 110 104 95 88 74
95 99 76 32 37 34 31 24 11 9 7 4 3 4 5 6
8 8 9 9 7 5 4 13 3 0 0 0 0 0 1 6
4 11 38 39 39 38 38 37 38 37 36 35 36 35 35 35
56 56 55 53 50 51 53 55 53 50 52 53 54 54 52 50
47 47 46 43 41 38 47 47 41 42 43 44 46 47 46 47
47 47 27 2 0 1 25 106 108 94 81 84 98 109 117 123
134 146 149 148 148 148 134 110 104 106 118 136 148 146 130 101
98 98 103 117 125 139 146 136 133 125 112 105 99 95 81 67
96 95 46 32 27 9 4 5 6 6 8 9 10 10 10 10
11 10 10 10 3 1 3 11 7 0 0 0 0 0 1 6
7 12 35 36 37 36 37 37 37 37 35 36 37 36 36 31
61 61 61 59 58 61 61 51 39 38 49 49 49 49 48 48
48 48 48 47 47 46 45 45 45 44 44 44 44 44 43 43
42 42 37 11 0 1 14 84 106 110 89 79 93 104 110 119
129 142 148 149 149 146 117 107 101 95 99 119 137 135 110 84
80 91 100 113 116 127 140 131 130 119 109 100 95 94 76 65
97 71 32 32 22 10 10 10 10 10 10 10 9 7 6 5
3 2 5 10 8 1 5 7 2 0 0 0 6 1 0 5
14 16 32 38 39 39 38 38 37 37 36 36 37 25 5 5
61 56 59 57 57 61 56 32 29 35 48 49 49 48 48 48
48 47 47 46 46 46 46 45 44 44 44 44 44 43 43 43
42 41 38 5 0 0 3 31 112 105 98 76 90 104 106 118
129 139 143 147 148 138 111 110 86 37 38 93 114 108 81 39
30 74 109 112 112 119 131 130 128 115 101 99 97 89 74 70
91 40 32 30 14 12 11 6 4 2 1 0 0 0 0 0
0 0 5 11 10 7 5 5 0 0 0 0 2 0 1 9
8 11 32 39 40 38 38 38 38 38 37 36 36 21 0 4
30 32 29 27 27 34 31 28 29 32 46 48 44 39 38 37
36 35 34 33 32 31 30 29 28 27 27 27 26 26 25 26
34 40 39 6 0 0 0 1 80 112 108 79 85 96 105 113
124 133 141 146 147 137 115 115 83 56 78 84 83 75 77 84
68 83 114 114 112 120 132 131 120 107 99 100 95 85 68 67
62 25 31 30 17 11 10 0 0 0 0 0 0 0 0 0
0 0 9 11 10 9 7 6 7 8 9 10 10 11 14 18
19 18 25 27 26 24 25 37 38 38 37 37 37 17 0 0
0 3 0 0 0 12 7 27 29 33 46 48 34 8 2 2
2 1 1 1 1 0 0 0 0 0 0 0 0 0 0 1
30 43 40 12 1 1 8 10 36 105 111 83 83 91 102 111
119 129 141 146 148 142 130 117 104 89 100 95 74 68 96 96
82 101 111 117 116 121 127 126 116 106 102 99 93 84 67 49
19 25 31 30 17 12 8 0 0 0 0 0 0 0 0 0
0 0 11 12 12 9 34 18 22 25 28 25 22 27 25 22
22 17 15 39 33 14 17 36 37 38 36 36 35 13 0 0
0 2 1 1 0 13 16 27 29 32 44 48 37 9 0 0
0 0 0 0 0 0 0 0 0 0 0 0 0 0 0 0
30 45 40 37 32 33 39 40 40 66 95 81 86 92 101 109
117 123 133 142 147 147 140 126 113 108 109 115 107 105 112 106
99 109 115 121 127 131 132 128 119 98 102 98 92 79 68 31
10 22 30 28 14 11 5 0 0 0 0 0 0 0 0 0
0 2 12 11 11 10 28 17 22 28 33 51 46 63 65 69
34 18 27 79 83 9 13 34 37 37 21 12 11 4 0 0
0 3 0 5 15 22 22 26 27 32 42 47 40 14 0 0
0 0 1 1 1 1 0 0 0 0 0 0 0 0 1 0
25 46 40 43 45 47 47 41 36 34 50 65 89 95 101 107
116 124 126 137 145 145 140 130 122 122 127 129 124 123 125 119
114 118 124 128 132 121 128 126 119 103 100 98 87 74 69 21
7 19 29 25 13 12 2 0 0 0 0 0 0 0 0 0
0 5 13 11 12 8 25 16 26 31 38 93 73 97 94 98
42 17 65 117 122 54 12 32 37 33 0 0 0 0 0 0
0 2 8 20 23 22 21 26 27 31 41 47 41 17 0 0
0 0 1 1 1 1 1 1 1 1 0 0 0 0 0 0
20 47 40 39 40 44 47 43 34 30 32 52 90 92 98 107
115 120 127 137 144 140 138 133 130 127 135 135 131 130 135 126
120 122 123 127 134 131 132 126 116 106 101 97 86 75 67 15
9 18 28 21 11 11 0 0 0 0 0 0 0 0 0 0
0 7 12 11 14 5 24 23 30 35 34 65 51 58 52 49
32 27 50 58 43 33 22 28 38 30 0 0 0 0 0 0
0 0 13 22 22 23 21 26 27 30 39 47 42 21 0 0
1 0 1 1 1 1 0 0 0 0 1 0 0 0 0 0
17 47 41 37 35 35 41 41 34 30 26 39 89 93 99 104
113 118 126 135 142 137 136 132 132 132 129 137 131 133 135 121
121 120 123 126 126 133 132 124 112 104 99 93 88 76 66 9
20 35 39 19 11 8 0 0 0 0 0 0 0 0 0 0
0 10 12 13 16 2 6 30 34 38 25 27 27 22 19 23
23 24 25 25 23 24 21 27 37 35 8 0 0 0 0 0
0 0 10 21 22 23 21 26 27 31 39 47 43 25 1 0
0 0 0 0 0 1 1 1 0 0 0 0 0 0 0 0
13 46 40 32 11 12 14 17 17 29 30 39 86 87 96 97
113 115 122 135 136 135 134 131 131 130 135 135 130 127 132 124
121 115 120 125 119 128 126 118 111 101 97 94 88 72 60 7
27 42 38 14 11 5 0 0 0 0 0 0 0 0 0 0
1 12 11 12 13 0 8 27 33 37 25 27 23 23 17 17
20 26 26 25 24 24 22 26 38 36 27 3 0 0 0 0
0 0 10 22 22 23 21 25 26 29 37 46 43 28 1 0
0 0 0 1 0 1 1 1 0 0 0 0 0 0 0 0
9 45 41 31 2 0 0 2 9 31 31 40 79 90 98 99
108 115 120 131 132 129 128 124 119 117 121 128 125 127 130 116
105 102 115 119 120 128 121 111 101 95 92 90 84 75 50 1
19 43 32 13 11 3 0 0 0 0 0 0 0 0 0 0
3 12 11 13 8 0 1 3 19 37 25 26 16 16 15 19
20 27 27 26 23 23 20 20 31 14 15 0 0 0 0 0
0 0 11 22 22 23 21 24 27 29 36 46 43 29 2 0
0 0 0 0 0 0 0 0 0 0 0 0 0 0 0 0
6 43 40 30 2 0 0 0 5 34 28 36 73 89 94 102
102 108 117 128 127 114 105 92 91 89 88 90 101 98 87 81
77 76 84 98 109 119 120 108 100 95 90 89 83 73 36 0
16 44 27 11 11 0 0 0 0 0 0 0 0 0 0 0
6 13 11 13 4 0 0 0 21 34 24 25 15 20 17 18
23 26 27 26 23 22 18 11 8 0 0 10 0 0 0 0
1 0 12 21 22 23 21 24 26 28 34 45 44 31 4 0
0 0 0 0 0 0 0 0 0 1 0 0 0 0 0 0
4 40 41 32 3 0 0 0 4 35 26 35 62 79 96 101
100 104 114 126 122 91 66 62 69 71 71 77 76 68 63 63
69 69 58 63 87 108 114 108 101 93 90 90 75 70 20 0
8 43 21 11 9 0 0 0 0 0 0 0 0 0 0 0
9 12 11 13 3 0 5 6 30 35 27 24 14 19 17 17
23 26 26 26 24 23 21 1 0 0 0 0 0 0 0 0
2 0 10 20 22 22 20 24 26 28 33 45 44 33 5 0
0 0 0 0 0 0 0 0 0 0 0 0 0 0 0 0
2 37 41 32 4 0 0 0 6 35 27 36 54 83 91 97
96 100 110 117 119 107 84 92 103 102 100 96 91 90 96 99
102 103 89 87 104 112 117 105 94 87 85 83 76 65 7 0
6 35 17 11 7 0 0 0 0 0 0 0 0 0 0 0
12 11 11 12 0 2 15 9 35 31 26 23 9 16 16 16
24 25 25 26 24 23 21 1 0 1 10 0 0 0 0 0
19 10 16 19 21 21 20 23 25 27 31 44 43 33 6 0
0 0 0 0 0 0 0 0 0 0 0 0 0 0 0 0
1 34 40 33 6 0 0 0 5 35 26 35 38 80 86 89
91 96 106 117 123 114 99 101 109 116 117 120 120 119 117 118
111 100 92 96 107 114 112 99 91 84 83 78 71 48 22 21
19 14 13 11 4 0 0 0 0 0 0 0 0 0 0 1
11 10 12 9 0 5 13 7 38 30 22 10 2 10 16 14
23 24 24 24 23 23 22 1 0 4 10 0 0 0 0 0
52 37 27 19 20 21 19 22 25 27 31 43 44 34 7 0
0 0 0 0 0 0 0 0 0 0 0 0 0 0 0 0
1 33 41 33 7 0 0 0 3 34 27 37 30 64 88 85
88 93 103 117 124 113 99 102 100 104 118 120 117 111 114 108
97 93 93 95 102 109 104 93 84 78 83 72 60 37 26 21
19 22 13 11 1 0 0 0 0 0 0 0 0 0 0 4
12 11 14 7 0 2 4 12 39 28 17 6 1 9 13 14
23 26 25 24 25 25 23 4 5 8 9 6 5 4 2 1
27 5 8 18 20 20 19 22 25 26 31 43 43 34 9 0
0 0 0 0 0 0 0 0 0 0 0 0 0 0 0 0
0 31 42 34 13 0 2 4 1 34 28 37 32 40 82 84
87 88 97 113 117 114 103 100 97 93 97 99 98 94 89 84
86 86 83 92 102 105 99 88 82 78 79 66 51 39 30 37
46 21 11 10 0 0 0 0 0 0 0 0 0 0 0 6
12 12 13 4 0 30 28 23 38 27 16 5 1 10 14 15
24 25 25 24 25 25 24 6 8 11 10 6 5 3 2 1
23 0 1 18 19 21 19 20 25 26 30 43 43 35 11 0
0 0 0 0 0 0 0 0 0 0 0 0 0 0 0 0
0 29 42 35 16 0 4 17 7 33 31 38 34 23 73 84
87 87 90 103 113 109 105 97 90 77 66 56 57 54 57 62
68 79 89 93 97 95 92 85 78 77 71 53 46 47 51 53
45 18 12 8 0 0 0 0 0 0 0 0 0 0 0 10
12 12 13 2 8 72 41 24 37 27 16 4 8 13 14 16
26 27 26 25 25 27 25 5 0 0 0 0 0 0 0 0
25 0 0 17 19 20 19 20 24 26 29 42 43 36 11 0
0 0 0 0 0 0 0 0 0 0 0 0 0 0 0 0
0 27 42 34 24 14 18 28 26 39 34 38 29 20 54 80
81 82 87 93 104 108 106 105 106 107 110 114 110 106 109 107
104 103 98 97 93 91 87 84 80 77 66 57 56 52 57 55
41 15 11 5 0 0 0 0 0 0 0 0 0 0 1 13
13 15 13 0 11 53 21 32 34 27 21 14 11 19 16 21
28 28 26 25 25 26 24 5 0 0 0 0 0 0 0 1
28 0 0 17 19 21 20 20 24 25 29 42 44 37 13 0
0 0 0 0 0 0 0 0 0 0 0 0 0 0 0 0
0 28 44 35 42 52 53 52 53 53 43 40 25 20 63 67
79 83 82 85 96 105 104 101 114 124 127 128 118 119 118 125
115 108 102 101 97 92 85 80 79 76 59 79 37 33 47 52
33 13 13 2 0 0 0 0 0 0 0 0 0 0 4 14
13 16 11 0 1 15 17 37 34 30 23 18 13 19 17 23
29 30 26 25 26 26 24 6 0 0 0 0 0 0 0 9
35 11 6 18 19 20 19 19 23 25 28 40 44 37 13 0
0 0 0 0 0 0 0 0 0 0 0 0 0 0 0 0
0 26 42 35 46 57 57 54 54 56 47 30 16 29 60 79
69 78 76 86 93 100 106 112 120 129 131 125 116 118 121 125
123 116 110 108 103 90 83 74 70 58 68 82 35 44 57 53
26 12 13 5 4 4 4 4 4 4 5 5 5 5 10 15
13 15 6 0 0 5 15 42 31 29 26 17 13 19 18 24
29 28 26 25 26 25 24 6 0 0 0 0 0 0 0 3
42 39 35 29 17 17 18 17 22 24 27 39 43 36 13 0
0 0 0 0 0 0 0 0 0 0 0 0 0 0 0 0
0 23 42 34 36 37 35 33 32 30 24 15 27 23 47 93
77 70 73 78 90 105 107 114 123 124 124 128 123 123 126 121
118 116 117 112 97 90 77 71 62 61 88 84 31 15 56 50
21 11 13 13 12 12 12 12 12 12 12 12 13 12 14 14
14 16 4 0 1 5 21 41 30 29 25 16 13 19 19 24
28 27 26 25 25 24 23 6 0 0 0 0 0 0 0 0
22 10 7 9 9 10 11 12 21 23 27 38 42 36 13 0
0 0 0 0 0 0 0 0 0 0 0 0 0 0 0 0
0 23 42 33 25 19 19 18 19 19 14 17 21 11 43 98
91 70 64 72 89 102 110 111 116 114 112 127 120 119 123 119
114 113 114 106 91 81 73 59 57 92 95 86 25 0 14 45
16 12 12 12 12 12 12 13 13 12 12 12 13 13 14 12
14 17 1 0 6 7 26 39 29 28 23 16 13 19 18 26
28 27 26 26 25 25 24 6 0 0 0 0 0 0 0 0
27 2 0 3 8 9 8 9 20 22 25 37 41 35 13 0
0 0 0 0 0 0 0 0 0 0 0 0 0 0 0 0
0 22 41 33 26 22 21 18 16 14 12 12 9 6 39 98
97 91 62 66 83 94 102 108 111 116 113 120 116 112 116 113
109 112 105 97 82 72 60 51 86 100 99 86 24 0 0 5
5 8 13 13 13 14 23 23 14 12 13 12 13 15 13 7
8 12 0 0 21 26 34 36 29 29 22 14 12 16 19 25
28 27 25 26 26 25 24 7 0 0 0 0 0 0 0 0
26 3 0 2 7 8 13 13 20 22 25 36 41 35 14 0
0 0 0 0 0 0 0 0 0 0 0 0 0 0 0 0
0 26 43 32 29 25 25 22 14 4 2 4 5 4 34 98
99 98 87 59 68 85 96 103 107 110 112 115 112 108 112 110
107 105 97 87 77 61 51 75 97 99 95 85 28 0 0 0
0 0 5 15 35 54 94 96 68 64 56 31 40 37 36 34
15 0 0 24 45 17 39 33 29 29 15 8 14 13 17 25
28 27 26 26 26 24 23 6 0 0 0 0 0 0 10 0
25 4 0 0 1 8 15 16 19 20 24 35 39 34 14 0
0 0 0 0 1 2 3 5 6 8 10 11 13 16 18 20
22 32 36 31 28 26 26 21 3 1 0 2 7 0 28 99
99 100 100 80 53 68 89 94 100 106 109 109 104 103 106 104
96 93 88 74 64 44 71 95 98 97 97 88 35 0 0 0
0 0 0 2 16 57 108 145 139 124 96 28 8 8 10 12
28 25 3 98 142 31 41 30 29 27 17 16 12 9 18 23
27 26 26 26 25 24 21 7 0 0 0 0 0 1 17 0
15 1 0 1 3 4 14 15 19 21 23 34 40 37 27 17
19 22 25 26 28 30 31 32 32 32 33 33 33 32 32 33
31 30 30 30 28 27 26 22 7 0 1 5 6 0 23 99
103 102 101 99 72 57 69 88 94 96 97 100 96 87 98 95
91 84 72 60 42 63 87 98 98 98 98 88 39 0 0 0
0 0 0 1 0 0 1 25 78 115 97 21 7 8 7 7
25 23 37 117 135 24 42 29 28 26 11 10 2 5 18 21
19 21 23 24 24 24 24 8 0 0 0 0 0 13 17 0
9 8 0 2 5 1 13 14 18 20 23 33 40 40 39 38
34 38 39 39 37 36 36 35 35 34 34 34 33 33 32 31
31 30 30 30 28 27 25 18 4 1 0 5 3 0 18 98
103 101 101 101 93 77 55 58 74 86 83 79 76 74 70 74
72 62 52 44 59 74 91 102 101 100 98 90 48 0 0 0
0 0 0 0 0 0 0 0 0 8 41 14 4 4 3 10
27 0 14 58 41 21 44 24 8 4 0 0 3 0 0 4
22 28 23 20 17 19 24 10 0 0 0 0 0 20 9 0
12 9 1 2 1 0 5 7 14 18 22 32 40 40 39 39
31 37 37 37 37 36 35 35 37 38 26 21 26 30 27 16
27 26 25 26 27 18 6 0 1 1 1 8 2 0 14 95
101 105 102 102 98 93 84 64 45 48 45 48 44 37 38 44
39 38 51 68 61 83 97 100 100 100 98 91 58 0 0 0
0 0 3 0 0 0 0 0 0 0 0 3 5 4 2 23
38 20 24 53 38 44 45 21 2 0 0 0 0 0 0 0
11 25 10 17 14 15 22 11 0 0 0 0 0 5 1 0
3 0 0 0 0 0 3 7 14 16 19 30 39 39 38 37
33 33 32 33 32 31 32 48 65 36 1 0 1 3 3 1
9 17 19 17 6 0 0 0 1 2 5 9 1 0 3 87
102 105 105 103 100 99 90 86 83 71 48 30 16 12 12 21
45 69 78 68 71 89 95 102 104 104 99 93 71 3 0 0
0 0 3 0 0 0 0 0 0 0 0 0 0 0 5 24
56 90 99 93 96 95 60 31 27 0 0 0 0 0 0 0
2 21 5 14 13 7 8 12 13 5 0 0 0 0 0 0
0 0 0 0 0 0 0 1 3 6 10 13 19 17 15 13
11 10 9 12 17 19 44 77 48 5 0 0 0 0 3 6
5 4 4 1 0 0 0 0 2 1 5 3 0 0 0 77
103 104 105 105 102 100 94 90 88 82 76 68 61 52 62 77
83 82 81 75 80 94 100 104 105 104 99 94 79 16 0 0
0 0 0 0 0 0 0 0 0 0 0 0 0 0 0 0
5 14 42 71 98 98 62 19 24 0 0 0 0 0 0 0
0 12 7 14 10 13 14 1 5 1 0 0 0 0 0 0
0 0 0 0 0 0 0 0 0 0 0 0 0 0 0 0
2 5 5 5 22 29 70 65 13 0 0 0 1 3 3 7
35 37 0 0 0 0 0 8 20 17 3 1 0 0 0 76
102 106 106 107 105 102 100 92 87 84 87 93 100 106 109 105
98 88 85 84 89 100 101 106 105 102 99 96 83 29 0 0
0 0 0 0 0 0 1 0 0 0 0 0 0 0 0 1
0 0 4 9 26 65 54 1 0 0 0 0 2 0 4 3
2 5 12 6 0 0 0 0 0 0 0 0 0 0 0 0
4 0 0 0 0 0 0 0 0 4 1 0 0 0 0 1
11 16 14 11 20 47 68 33 2 0 0 2 3 4 11 61
42 4 0 0 0 3 4 8 6 0 0 3 0 0 0 76
101 105 108 107 107 105 102 99 96 97 102 110 116 118 115 110
102 93 89 88 97 106 108 112 106 101 99 96 85 42 0 0
0 0 0 0 0 0 0 0 0 0 0 0 0 0 1 0
0 1 0 0 0 1 6 11 16 18 14 14 10 1 3 2
0 0 0 0 0 0 0 0 0 0 0 0 0 0 0 0
17 5 0 0 0 0 0 0 1 5 7 5 4 1 0 0
6 16 15 12 13 64 55 5 0 1 3 4 10 9 9 41
11 1 0 0 1 0 2 0 0 0 0 3 0 0 0 74
99 102 109 112 112 114 112 106 102 104 109 111 115 114 112 106
99 94 94 93 103 117 119 119 111 105 101 96 89 56 0 0
0 0 0 0 0 0 0 0 0 0 0 0 2 1 1 13
13 35 0 0 0 0 0 1 5 3 2 0 0 0 0 0
0 0 0 0 0 0 0 0 0 0 0 0 0 0 0 0
19 1 0 0 0 0 5 4 4 6 10 8 5 0 0 2
10 24 22 10 19 72 40 3 1 2 2 6 11 8 4 8
5 5 0 0 3 0 1 0 0 0 1 1 0 0 0 73
99 106 112 119 125 124 123 115 108 106 109 108 108 108 105 101
100 100 97 97 115 125 126 122 114 107 102 98 92 66 0 0
1 0 0 1 0 0 0 0 0 0 0 0 0 0 0 40
55 41 13 0 0 0 0 0 1 2 3 1 0 0 0 2
0 0 0 1 0 0 0 0 0 0 0 0 0 0 0 0
1 0 0 0 1 2 11 15 13 9 8 8 9 12 18 21
22 20 18 2 29 63 16 1 3 2 3 5 6 6 5 0
0 0 0 2 1 1 0 0 0 0 3 4 1 0 0 70
99 107 116 123 130 136 129 118 112 109 110 111 109 108 106 108
104 102 98 105 119 128 128 119 114 108 104 101 96 71 0 0
2 1 0 2 0 0 0 0 1 0 1 3 2 0 0 45
120 47 0 0 0 0 0 0 0 0 0 1 0 0 0 14
42 42 39 65 70 75 16 0 0 0 0 0 0 0 0 0
0 0 0 0 0 0 11 14 10 5 5 7 8 12 22 24
18 9 6 0 34 23 3 3 3 4 3 3 2 0 0 0
0 0 0 6 0 1 0 0 0 0 3 3 0 0 1 63
101 106 115 123 130 134 134 124 112 112 113 113 112 112 112 112
109 104 102 110 125 129 124 119 114 107 105 104 100 39 0 0
2 1 0 1 0 0 0 0 1 0 0 1 2 0 0 11
12 9 0 0 0 0 0 0 0 0 0 3 3 0 0 2
72 87 124 131 112 111 37 0 0 0 1 0 0 0 0 0
0 0 0 0 0 0 7 7 4 1 1 2 4 10 22 23
8 0 0 0 4 4 4 1 1 0 0 0 0 0 0 0
0 0 2 1 1 1 0 0 0 0 3 2 1 1 4 41
104 107 113 120 126 132 135 128 117 111 115 117 116 116 117 114
110 108 107 119 126 125 123 116 112 107 107 108 80 7 0 0
2 4 0 2 0 0 0 0 1 0 0 0 1 0 0 1
3 0 0 0 0 0 0 0 0 0 0 1 2 0 0 0
0 22 102 81 48 60 35 0 13 3 17 1 0 0 0 0
0 0 0 0 0 0 2 1 1 1 2 2 3 11 22 20
4 0 2 4 3 0 0 0 0 0 0 0 0 0 1 0
0 0 0 0 1 1 0 0 0 0 4 2 0 0 1 18
89 107 111 115 122 129 132 133 122 116 115 116 117 118 115 113
110 110 114 117 122 123 121 115 110 108 111 101 24 0 0 0
1 3 0 1 1 0 0 0 0 1 0 0 2 1 1 0
6 0 0 0 0 0 0 0 0 1 2 1 1 1 0 0
0 0 25 73 93 75 28 1 10 2 9 1 0 0 0 0
0 0 1 0 0 0 0 1 1 6 7 5 5 14 23 15
6 1 0 0 0 0 0 0 0 0 0 0 0 0 3 0
0 0 0 0 0 0 0 0 0 0 1 1 0 0 0 13
40 103 110 113 117 124 128 129 125 118 118 119 120 120 120 119
116 113 112 118 123 123 118 113 108 109 108 45 2 0 0 0
0 1 0 0 1 0 0 0 0 1 0 0 3 4 7 4
0 3 5 5 3 3 5 5 3 5 3 4 5 1 0 0
0 0 0 15 39 43 16 0 1 0 0 0 0 0 0 0
0 0 0 0 0 0 3 8 4 10 12 9 10 17 10 1
0 0 0 0 0 0 0 0 0 0 0 0 0 0 2 1
0 0 0 0 0 0 0 0 0 0 0 1 0 0 0 4
22 61 108 112 116 121 127 130 125 118 119 119 120 118 118 115
111 110 113 120 124 119 114 111 110 111 68 9 0 0 0 0
0 2 0 0 2 0 0 0 0 2 0 0 3 5 6 2
0 0 0 0 0 0 0 0 0 0 0 0 0 1 1 3
3 0 0 0 0 0 0 0 1 0 3 0 0 0 0 0
0 0 1 0 0 0 18 17 4 9 11 10 16 5 0 0
0 0 0 0 1 2 0 0 0 0 0 0 2 1 0 0
0 0 0 0 0 0 0 2 3 0 0 2 0 0 0 0
10 30 67 109 114 118 122 127 125 118 116 114 113 110 109 108
108 110 116 122 123 118 114 110 111 92 32 2 0 0 0 0
0 3 0 0 2 0 0 0 0 1 1 0 1 4 1 0
0 0 0 0 0 0 0 0 0 2 7 8 1 0 0 0
1 3 1 0 0 0 0 4 2 0 6 5 0 0 0 0
0 0 0 0 0 0 18 20 5 10 10 6 4 0 0 0
0 0 0 0 1 4 2 0 0 0 1 1 1 1 0 0
0 0 0 0 0 0 0 6 2 0 0 3 1 0 0 0
0 17 36 67 109 116 120 124 124 122 117 113 110 109 108 108
111 115 119 121 121 117 112 110 105 52 19 0 0 0 0 0
0 3 0 0 2 1 0 0 0 1 3 0 1 1 2 2
0 0 0 1 0 0 1 3 5 11 17 14 3 0 0 0
0 0 0 4 2 0 0 6 1 0 0 0 0 0 0 0
0 0 0 0 0 0 12 23 14 15 13 7 0 0 0 0
0 0 0 0 0 0 3 0 0 0 0 0 1 0 0 0
0 0 0 0 0 0 0 6 5 0 0 2 0 0 0 0
0 2 26 41 62 105 117 122 123 121 118 116 112 110 110 111
113 116 121 122 121 115 111 107 65 41 8 0 0 0 0 0
0 4 0 0 0 1 0 0 0 0 4 0 0 2 4 1
0 0 2 0 0 3 5 8 11 14 18 17 2 0 0 0
0 0 0 0 3 5 0 5 0 0 0 0 0 0 0 0
10 0 0 0 0 0 6 24 28 17 8 6 0 0 0 0
0 0 0 0 0 0 2 0 0 0 0 2 0 0 1 0
0 0 0 0 0 0 0 3 7 0 0 1 1 0 0 0
0 0 4 26 41 58 102 121 124 122 119 117 115 114 112 113
116 121 123 123 120 115 111 81 48 28 3 0 0 0 0 0
0 5 0 0 0 2 0 0 0 0 3 1 0 1 3 1
0 3 3 0 1 6 9 14 15 15 20 14 1 0 0 0
0 0 0 0 0 1 3 4 0 0 0 0 0 0 0 0
16 3 2 0 0 0 0 2 12 0 3 5 0 0 0 0
0 1 0 0 0 0 0 1 0 0 0 0 0 3 0 2
5 0 0 0 0 0 0 4 8 1 0 1 2 0 0 0
0 0 0 2 19 39 56 97 122 124 120 118 116 115 116 117
121 124 124 123 120 114 96 52 28 2 1 0 0 0 0 0
0 6 0 0 0 2 0 0 0 0 2 3 0 0 1 0
3 4 1 1 3 8 13 16 17 12 12 7 1 0 1 3
0 0 0 0 0 0 0 0 0 0 0 0 0 0 0 0
19 0 7 0 0 0 0 0 3 0 0 2 0 0 0 0
0 1 0 0 0 0 0 2 0 0 0 0 2 3 1 3
5 1 0 0 0 0 0 4 11 2 0 1 3 0 0 0
0 0 0 0 1 11 28 57 88 111 119 119 118 118 119 120
121 125 127 124 116 87 42 15 1 0 0 0 0 0 0 0
0 5 0 0 0 1 0 0 0 0 0 5 0 0 1 2
4 3 0 1 6 13 17 17 13 12 13 8 1 1 2 11
1 0 0 0 0 0 0 0 0 0 0 0 0 0 0 0
8 3 10 0 0 0 0 0 14 0 0 0 2 1 0 0
0 1 0 0 1 1 0 1 0 0 0 0 5 1 5 2
4 4 0 0 0 0 0 9 9 3 0 0 3 0 0 0
0 0 0 0 0 2 4 8 21 39 60 82 88 96 99 96
90 80 66 45 21 8 6 0 0 0 0 0 0 0 0 0
0 4 0 0 0 0 1 0 0 0 0 3 0 0 1 5
5 0 0 4 11 18 23 19 16 12 12 5 1 2 3 10
8 0 0 0 2 1 0 3 0 0 0 0 0 0 0 0
0 0 0 0 0 0 0 0 12 7 0 0 0 0 0 0
0 0 0 0 0 1 1 1 0 0 0 1 5 3 7 5
6 7 0 0 0 0 1 7 4 2 0 0 3 1 0 0
1 3 0 0 0 0 2 2 2 4 7 8 8 10 10 10
10 9 7 7 5 4 1 0 0 0 0 0 1 0 0 0
0 4 0 0 0 0 1 0 0 1 0 2 2 0 0 5
3 0 2 9 18 22 27 20 16 10 11 10 1 1 2 7
4 0 0 0 8 3 4 3 0 0 0 0 1 0 0 0
0 0 0 0 0 0 0 0 0 0 0 0 1 0 0 0
0 0 0 0 0 0 0 0 0 0 0 4 4 4 5 5
7 8 0 0 0 0 0 1 0 0 0 0 0 2 0 0
0 6 1 0 0 0 0 1 1 2 6 6 6 6 6 5
4 5 4 3 4 2 2 0 0 0 0 1 0 0 0 0
0 5 0 0 0 0 1 0 0 0 0 0 3 0 0 3
1 1 7 13 20 24 26 21 12 11 15 5 1 4 2 3
4 0 0 0 9 1 0 0 0 1 0 0 0 0 0 0
0 0 0 0 0 0 0 0 0 0 0 0 1 0 0 0
0 0 0 0 0 1 0 0 0 0 0 7 3 6 4 6
9 7 2 0 0 0 0 0 0 0 0 0 0 1 0 0
0 8 6 2 0 0 0 0 0 1 2 2 2 3 3 3
4 5 4 3 2 0 2 0 0 0 1 1 0 0 0 0
0 4 0 0 0 0 0 1 0 0 0 0 2 0 2 1
0 3 10 19 22 32 26 21 12 17 18 4 1 2 2 0
2 0 0 0 4 3 3 0 0 0 0 3 0 0 0 0
0 0 0 0 0 0 0 0 0 0 0 0 1 0 0 0
0 0 0 0 0 1 1 0 0 0 3 8 4 6 4 5
9 5 3 0 0 0 0 0 0 0 0 0 0 3 0 0
0 7 5 4 3 0 0 0 0 0 0 2 2 2 2 0
2 1 1 1 1 1 0 0 0 0 1 0 0 0 0 0
2 6 0 0 0 0 0 2 0 0 0 0 0 1 1 0
0 8 14 20 26 35 26 17 12 17 12 3 0 2 2 0
0 0 0 0 5 5 4 0 0 0 2 4 1 0 0 0
0 0 0 0 0 0 0 0 0 0 0 0 0 0 0 0
0 0 0 0 0 2 1 0 0 0 7 6 5 4 3 5
8 5 3 4 1 0 0 0 0 0 1 0 0 10 2 0
0 6 7 5 3 2 1 1 0 0 0 0 0 1 1 0
0 2 2 1 0 1 0 0 0 0 0 0 0 0 0 0
2 8 0 1 0 0 0 2 0 0 0 0 0 0 0 0
1 10 20 28 31 34 19 14 13 15 9 1 0 3 2 0
0 0 0 0 9 6 2 0 0 0 0 1 0 0 0 0
0 0 1 0 0 0 0 0 0 0 0 0 1 0 0 0
0 0 0 0 0 1 1 0 0 1 12 2 4 2 2 6
6 4 3 3 3 0 0 0 0 0 0 0 0 18 4 0
0 4 7 3 3 3 3 2 2 1 1 0 0 0 0 1
0 0 0 0 1 0 0 0 1 0 0 0 0 0 0 0
3 9 0 1 0 0 0 1 0 0 0 0 0 0 2 0
1 10 22 34 34 21 14 16 16 15 8 3 1 4 3 0
0 0 1 2 9 9 2 0 0 0 0 0 0 0 0 0
0 0 2 4 0 0 0 0 0 0 0 0 3 0 1 0
0 0 0 0 0 0 1 0 0 4 9 1 4 0 2 6
6 4 3 3 4 0 0 0 0 0 0 0 1 32 4 0
0 2 7 5 4 2 2 3 5 3 2 2 1 0 1 0
1 1 1 2 2 4 2 1 1 0 0 0 0 0 0 0
7 8 0 1 0 0 0 0 2 0 0 0 0 0 5 0
1 11 20 30 26 21 14 17 16 17 7 0 0 1 3 0
0 0 0 5 5 9 9 0 0 0 0 0 0 0 0 0
2 4 0 0 0 0 0 0 0 0 0 0 4 0 1 0
0 0 0 0 0 0 0 0 0 10 7 5 3 0 4 6
6 4 3 2 2 0 0 0 0 0 1 0 2 26 2 0
0 0 5 5 3 2 1 1 1 2 4 3 3 3 4 4
2 4 6 4 3 4 4 1 0 0 0 0 0 0 0 0
4 4 0 0 0 0 0 0 5 0 0 0 0 0 7 3
2 12 21 28 25 13 15 18 21 12 8 0 0 2 4 0
0 0 1 10 2 8 11 2 0 0 0 0 0 0 0 0
0 20 2 0 0 0 0 0 0 0 0 1 7 0 0 0
0 0 0 0 0 0 1 0 3 19 2 7 0 0 2 5
5 4 2 2 4 0 0 0 0 0 1 0 2 36 0 0
0 0 2 6 4 5 3 1 0 1 2 3 3 4 4 3
3 4 8 10 7 4 1 0 0 0 0 0 0 0 0 0
2 1 0 1 0 0 0 0 8 2 0 0 0 3 6 10
5 13 24 31 23 11 13 21 23 13 5 0 0 3 5 1
0 0 0 11 1 15 13 1 0 0 0 0 0 0 0 0
0 19 3 0 0 0 0 0 0 0 0 0 4 1 0 0
0 0 0 0 0 0 0 0 17 24 5 11 0 0 2 4
5 5 3 2 4 0 0 0 0 0 1 0 10 37 0 0
0 0 0 5 4 6 5 5 2 0 0 1 2 2 3 2
1 4 5 4 5 5 1 0 0 0 0 0 0 0 0 0
0 0 0 0 0 0 0 0 7 9 0 0 0 2 4 13
12 9 15 28 23 12 17 25 19 10 2 0 0 2 4 0
0 0 0 15 0 9 3 0 0 0 0 0 0 0 0 0
0 9 1 0 0 0 0 0 0 0 0 0 7 4 0 0
0 0 0 0 0 0 0 0 27 13 12 9 0 0 3 8
9 9 6 3 4 0 0 0 0 0 1 0 21 19 0 0
0 0 0 4 5 8 4 4 4 3 2 1 2 4 2 1
1 0 0 1 3 1 0 0 0 0 0 0 0 0 0 0
0 1 2 0 0 0 0 1 8 7 1 0 0 0 14 9
28 9 14 33 23 13 22 30 25 11 3 0 0 2 3 0
0 0 0 17 1 9 5 0 0 0 2 2 0 0 0 0
8 6 0 0 0 0 0 0 0 0 0 0 4 7 1 0
0 0 0 0 0 0 0 0 44 8 18 4 0 3 6 8
7 8 6 6 5 3 2 0 0 0 1 1 38 9 1 0
0 0 0 2 6 6 5 6 4 6 3 1 3 4 3 1
2 0 1 2 4 1 0 0 0 0 0 0 0 0 0 0
0 1 2 2 3 2 0 0 6 8 3 0 0 0 17 7
19 29 19 29 18 16 22 26 19 8 2 0 0 2 2 0
1 0 2 16 4 20 8 0 0 0 6 9 0 0 0 0
