P2
128 120
151
55 57 60 62 63 60 44 43 43 42 42 42 42 42 42 42
42 42 42 41 41 41 40 40 39 38 38 37 37 36 36 35
35 35 35 34 34 34 33 32 32 31 31 30 30 30 29 28
28 28 28 27 27 26 26 25 25 24 24 24 24 24 25 28
30 30 30 24 19 17 25 27 25 25 24 23 22 23 21 21
21 18 22 23 25 24 24 24 25 25 25 25 25 25 24 26
25 26 26 26 27 26 26 27 26 27 28 28 28 28 29 29
29 30 30 30 31 31 32 32 32 31 32 32 32 31 31 32
50 50 50 51 59 65 52 48 44 43 42 42 42 42 42 42
41 41 41 40 40 40 39 39 39 38 38 37 37 37 36 35
35 34 34 34 33 33 32 32 32 31 31 30 30 30 30 29
29 28 28 27 26 26 25 26 26 25 25 24 24 25 25 29
30 30 29 25 19 20 22 27 25 25 24 24 23 24 21 22
21 18 23 23 24 24 24 24 25 25 25 25 25 25 26 27
26 26 25 26 26 26 27 27 27 27 28 28 28 29 29 30
30 30 31 31 31 31 32 31 32 32 31 31 32 31 31 32
3 2 2 1 35 62 57 62 58 51 44 43 42 42 42 42
42 41 41 41 40 40 40 40 39 38 38 37 37 36 36 36
35 35 35 35 34 34 33 33 32 31 31 31 31 30 30 29
28 28 28 27 28 27 26 26 26 25 24 24 24 25 26 29
31 30 30 26 20 22 22 27 26 25 24 24 23 24 22 22
22 18 23 23 25 25 25 25 26 25 25 26 25 25 25 25
25 26 27 27 27 27 28 28 28 28 29 28 29 28 30 29
30 30 30 31 31 31 33 31 32 32 32 32 32 32 32 32
11 2 0 0 27 59 53 53 39 42 44 46 54 56 56 53
48 42 40 40 40 40 39 38 38 38 38 38 37 37 37 36
36 36 35 34 33 33 33 33 32 32 32 31 31 30 30 29
29 29 28 28 27 27 27 26 26 25 25 25 24 25 26 30
31 31 31 27 21 24 21 28 26 26 25 25 24 24 22 22
22 18 24 24 25 25 25 25 25 25 25 25 25 25 26 26
26 26 27 27 28 28 28 28 28 28 28 28 29 30 30 30
30 30 31 31 31 31 32 31 31 31 31 31 32 32 31 31
10 3 0 0 20 58 53 49 7 2 9 19 30 39 47 54
56 43 41 41 40 40 40 39 39 38 37 37 37 37 36 36
35 35 35 35 35 34 34 33 33 32 32 32 31 31 31 30
29 29 28 28 28 28 27 27 26 26 25 25 25 25 27 30
32 31 31 27 21 24 20 28 26 26 26 25 24 25 23 23
22 19 23 24 26 25 25 25 26 26 26 27 27 26 27 27
27 27 27 27 27 28 28 28 28 28 29 29 29 29 29 30
30 30 31 31 31 31 32 32 32 32 32 32 32 32 32 32
4 1 0 0 14 57 54 48 7 0 0 0 0 0 2 31
55 44 40 40 40 40 39 38 39 38 38 38 37 38 37 37
36 35 35 35 34 33 33 33 33 32 32 31 31 31 30 30
30 30 30 29 29 28 27 27 26 26 26 26 25 25 26 30
32 32 31 27 22 25 20 28 27 26 26 25 25 26 23 23
23 19 23 22 26 26 26 26 27 27 27 27 27 27 27 27
28 27 27 28 28 28 28 28 28 29 29 29 29 29 30 30
31 30 31 32 31 32 32 31 32 32 32 32 32 31 31 31
8 6 0 3 10 55 54 46 7 0 0 0 0 0 0 26
55 44 39 40 40 40 39 39 39 38 38 37 37 36 36 36
36 35 35 35 34 34 34 34 34 33 32 32 31 31 30 30
30 29 29 28 28 27 28 27 27 28 27 25 26 28 27 30
32 31 31 28 22 27 22 28 27 27 26 25 25 26 23 23
23 19 23 24 26 26 26 27 27 27 27 27 28 28 27 27
28 28 28 28 28 28 29 29 29 29 29 29 29 30 29 30
30 30 31 31 31 31 32 32 31 31 31 31 31 32 31 32
0 1 0 2 6 54 53 47 8 0 2 8 0 0 0 25
55 44 40 40 39 39 39 38 38 38 38 38 38 37 36 36
36 36 36 35 35 34 34 34 33 33 32 32 32 32 31 31
31 31 29 29 29 28 28 28 28 26 26 26 25 28 27 29
32 33 32 29 23 27 23 28 27 27 26 25 25 27 24 24
24 21 24 25 27 27 27 27 27 28 27 27 26 27 27 28
27 28 28 29 29 29 29 29 29 29 29 30 29 30 31 31
31 30 31 31 30 29 30 30 31 31 32 32 32 32 32 31
0 1 0 2 5 54 56 49 7 1 10 13 3 0 0 24
54 44 40 40 40 40 39 39 39 38 38 38 37 36 36 36
36 35 35 35 35 34 34 34 34 34 34 33 33 32 32 31
31 30 30 29 29 28 28 29 28 27 28 27 28 27 29 30
33 33 31 31 22 27 24 27 28 28 27 26 26 27 25 25
24 22 25 25 27 27 27 28 28 28 28 28 28 28 27 27
28 28 29 29 29 29 29 30 29 29 30 30 30 31 31 30
30 30 30 31 32 32 32 32 32 32 32 32 32 33 33 32
0 0 0 3 4 49 54 48 8 0 3 6 3 0 0 25
54 45 40 40 40 40 39 39 39 39 38 38 37 37 37 37
36 36 36 35 35 34 34 34 34 33 33 33 33 33 32 32
31 31 32 31 30 30 29 29 28 28 27 26 25 25 28 32
34 33 32 31 23 27 26 26 27 28 28 26 26 26 25 26
25 22 26 25 28 28 29 28 28 29 28 28 28 27 28 29
29 29 29 29 29 30 29 30 30 30 29 29 30 29 30 31
31 32 32 32 33 32 32 32 33 33 32 33 33 33 32 32
2 0 0 0 2 44 53 48 9 0 0 5 10 1 0 24
53 43 39 40 39 40 39 40 39 39 39 38 38 37 36 37
36 36 35 35 35 35 35 35 34 34 34 33 33 33 32 31
31 30 30 30 30 29 29 30 30 28 26 27 25 22 23 22
27 30 31 30 24 28 29 24 28 29 28 28 27 25 26 25
26 22 24 25 28 28 28 28 29 29 29 29 29 29 29 29
29 30 30 30 30 30 30 29 30 30 30 30 31 31 32 32
32 32 33 32 33 32 32 32 32 32 32 32 33 33 33 32
17 16 15 18 19 41 51 52 12 0 1 5 9 2 0 22
53 44 40 40 40 39 39 39 39 39 39 37 37 37 36 36
36 36 36 36 36 35 35 35 35 34 33 33 33 33 33 32
32 32 32 30 30 31 31 32 33 32 32 26 21 21 19 18
18 19 22 26 26 28 32 24 30 29 29 28 27 25 26 26
26 23 25 26 28 29 29 29 29 29 29 29 29 29 29 28
29 29 30 30 30 30 30 31 31 31 31 31 31 31 32 32
32 32 32 32 33 33 33 33 32 32 33 32 32 32 33 31
41 38 38 39 37 36 44 51 13 0 1 4 4 6 5 23
53 43 40 40 39 39 39 39 39 39 38 38 37 37 37 36
37 36 36 36 35 35 36 35 34 34 34 34 33 33 33 33
32 31 31 32 31 29 27 30 30 30 31 31 28 22 20 22
18 20 24 26 23 26 31 27 30 29 29 29 28 26 27 27
27 24 25 26 29 30 30 29 29 29 29 29 29 29 29 29
30 29 30 30 30 30 30 30 30 30 30 31 31 32 32 33
33 33 33 33 33 32 33 32 32 32 33 32 32 32 33 31
30 30 32 33 34 34 38 45 35 24 20 13 10 8 13 33
53 43 41 40 40 40 40 39 39 39 39 38 38 37 37 37
37 36 36 36 36 35 36 35 35 35 34 34 33 34 33 33
32 32 32 28 25 29 30 29 33 31 28 28 24 26 23 24
25 29 30 22 21 21 28 25 31 30 29 29 28 26 28 26
27 25 25 27 30 30 30 30 30 29 29 29 29 29 30 30
31 30 31 30 31 31 31 31 31 31 31 32 31 32 32 32
32 32 32 32 33 33 33 33 33 32 33 33 32 33 33 32
20 22 27 32 36 39 34 32 35 37 39 40 41 39 37 41
48 42 40 40 40 39 39 39 39 39 39 39 38 38 37 38
37 37 36 36 36 36 35 35 35 34 35 34 34 34 35 34
31 29 29 29 35 31 25 27 30 29 32 32 32 24 23 22
27 35 33 28 20 19 23 23 29 31 30 30 29 27 28 27
27 25 25 26 29 29 29 28 29 29 30 30 30 30 31 30
32 30 31 31 31 30 30 31 32 31 31 32 32 32 33 33
32 33 33 33 33 33 33 32 32 32 32 33 33 33 33 32
17 17 18 18 18 19 20 21 22 25 29 31 35 37 40 41
42 41 41 41 41 40 40 40 39 39 38 38 37 37 37 37
37 36 36 37 36 36 36 36 35 35 35 34 34 32 31 28
28 24 29 34 30 23 24 23 27 32 36 36 28 30 30 22
16 23 23 20 22 23 23 19 26 32 31 29 29 29 30 29
27 24 25 26 29 30 30 30 30 30 31 30 30 31 31 31
32 30 31 31 31 31 31 32 32 32 32 32 33 32 32 33
33 33 33 33 32 33 32 33 33 32 33 33 33 33 33 31
16 16 18 16 18 17 17 17 17 17 18 18 21 23 27 33
37 39 41 41 41 40 40 40 39 39 38 38 38 38 37 38
37 37 37 36 36 36 35 35 35 33 34 34 27 19 21 20
24 23 20 20 17 17 20 26 32 37 38 29 20 16 17 19
15 18 15 18 14 17 22 24 25 28 32 32 29 28 30 27
27 27 26 28 30 31 30 30 31 30 30 31 30 30 31 30
32 31 31 31 31 31 32 32 32 32 32 32 32 33 33 33
33 33 33 34 33 33 33 33 33 33 32 31 31 31 31 31
31 30 35 32 30 27 24 21 16 16 16 16 17 16 15 17
18 20 23 27 30 34 37 40 40 40 39 38 38 38 38 37
37 37 37 36 36 36 36 35 34 33 23 13 12 17 18 17
13 15 15 10 12 16 20 22 22 30 30 30 27 26 31 33
32 32 26 24 24 24 28 25 25 30 28 31 29 30 31 29
30 28 26 28 30 31 31 30 30 31 31 31 31 31 31 31
33 31 32 31 31 31 32 32 32 32 33 33 33 33 32 33
33 32 32 33 33 32 32 31 31 31 32 33 32 33 33 32
34 33 36 37 40 46 59 49 25 21 19 18 17 18 16 17
16 16 17 16 16 17 18 19 23 29 38 38 38 38 38 38
37 37 37 37 36 36 36 34 27 16 15 10 11 9 8 5
3 6 12 22 26 26 26 30 35 32 34 36 36 35 31 36
37 37 39 39 35 34 38 36 32 28 31 28 30 28 31 30
29 28 27 29 30 31 31 31 31 31 31 31 31 31 31 31
32 32 32 32 32 32 32 32 32 32 33 33 33 33 33 33
32 31 33 33 32 32 33 33 32 32 32 33 32 31 31 31
0 11 40 36 40 46 59 58 52 49 44 43 44 40 36 30
18 19 18 16 17 17 17 10 10 20 38 39 39 38 38 37
36 37 37 37 36 36 36 26 17 13 5 10 11 11 10 12
16 23 28 29 31 34 38 39 45 49 43 46 46 45 39 41
42 42 37 35 34 33 32 38 30 25 21 22 29 29 31 29
31 30 26 29 30 31 32 31 31 31 31 31 32 31 31 31
33 32 32 32 32 32 32 32 32 33 32 32 32 32 32 32
32 32 32 32 32 32 32 33 32 32 32 32 32 33 32 32
0 10 37 37 39 45 55 57 56 57 53 50 56 55 53 47
26 33 34 27 21 19 17 15 15 19 37 39 39 39 37 36
37 39 38 37 36 37 29 18 10 3 6 9 10 13 16 23
23 21 23 25 30 33 37 35 36 38 43 43 45 46 44 41
43 45 52 52 48 45 42 29 26 23 19 16 23 30 33 31
29 29 26 30 31 32 32 32 32 31 31 31 31 31 32 32
33 32 32 32 32 32 32 32 32 33 33 32 33 32 32 32
32 32 32 32 32 32 32 33 32 32 33 32 32 32 32 32
0 4 9 8 9 29 54 55 54 55 47 49 52 56 56 49
34 41 46 42 43 46 42 27 15 19 37 39 39 39 38 40
48 45 44 40 37 30 18 12 8 10 11 10 12 12 15 19
23 27 32 34 34 35 38 42 41 41 40 43 46 50 50 52
55 53 54 55 59 62 57 56 46 39 29 24 21 27 34 30
32 30 26 30 30 32 31 32 32 33 33 32 33 33 32 32
32 32 31 31 32 32 32 33 33 32 33 32 32 32 33 32
31 31 32 32 32 32 32 34 31 32 32 32 32 32 32 32
0 10 11 2 0 22 56 49 11 25 22 29 37 44 49 50
39 44 49 48 51 53 53 38 15 22 38 40 40 39 38 41
51 48 46 39 34 18 5 2 4 8 16 12 7 15 24 24
26 30 38 39 42 42 40 35 33 38 38 41 48 54 63 66
74 85 88 81 84 93 88 83 85 89 72 59 41 28 39 39
34 29 27 32 32 33 33 32 33 33 32 32 32 32 32 32
32 32 32 33 32 33 33 33 34 33 33 32 33 32 32 32
32 32 32 32 32 32 33 34 32 33 33 33 32 31 32 32
5 22 37 7 0 24 56 49 3 7 1 0 1 5 8 46
42 46 49 50 53 54 54 44 17 23 42 42 41 41 39 42
50 49 41 35 23 3 3 8 14 9 5 12 25 33 31 33
41 43 42 47 46 35 37 42 42 46 55 62 68 78 91 79
89 97 105 104 103 110 112 110 104 102 99 92 78 48 33 35
36 32 27 33 32 33 33 32 32 32 33 33 33 33 32 33
33 33 33 33 32 32 33 33 34 32 33 33 32 33 33 33
32 33 33 33 33 32 33 34 33 32 33 32 32 31 33 33
17 29 37 30 4 19 58 49 3 0 0 0 6 14 7 45
41 46 46 51 53 54 54 45 19 24 44 43 42 43 43 45
29 20 28 25 5 2 5 5 2 1 3 18 27 31 37 36
26 28 38 45 46 41 36 37 47 59 69 70 75 95 101 84
95 110 113 111 121 124 118 115 113 109 103 99 92 78 41 31
32 35 29 31 31 32 33 33 33 33 33 33 33 33 33 32
33 33 33 33 34 33 34 34 34 34 34 33 33 33 33 33
34 33 33 33 32 33 33 33 34 33 32 32 33 33 32 33
20 35 29 21 12 16 58 54 6 0 0 0 15 20 15 46
20 17 28 38 46 48 49 44 19 24 45 44 37 39 47 52
22 0 6 9 4 4 2 4 3 7 16 22 30 30 28 29
32 36 37 34 35 39 46 62 78 89 91 86 96 106 109 93
105 118 120 125 125 123 119 119 121 115 112 105 96 87 75 34
28 34 30 32 32 34 34 34 34 35 34 34 34 34 34 34
34 34 34 34 34 33 34 33 35 34 34 34 34 34 34 34
34 34 34 34 35 33 33 35 34 33 32 33 33 34 34 33
7 25 29 16 2 15 59 57 7 1 1 0 8 10 11 46
11 0 2 5 6 11 17 46 21 22 31 38 45 45 51 54
25 0 4 5 5 7 3 1 1 9 14 15 18 20 21 26
28 24 33 50 58 73 81 91 94 93 97 99 103 108 112 110
115 123 126 125 123 122 125 125 124 122 117 111 103 98 90 63
27 33 28 33 33 35 35 35 34 35 35 34 34 34 34 34
34 34 34 34 34 35 35 34 36 35 35 35 35 34 35 35
34 35 34 34 34 34 34 35 34 34 34 34 34 33 34 34
0 0 2 0 0 13 60 59 10 0 0 0 2 0 6 49
11 1 0 0 0 0 5 44 21 16 1 2 8 16 27 38
28 0 6 5 1 2 0 0 5 2 6 12 9 14 24 26
34 55 58 68 80 87 96 97 97 98 98 105 108 113 115 117
132 131 129 128 122 119 125 127 125 123 121 118 110 103 97 86
53 29 30 34 34 36 36 36 35 35 35 35 34 35 35 35
34 35 35 35 35 35 36 35 36 34 35 35 35 35 35 35
36 35 36 35 35 35 35 35 33 35 34 35 34 34 34 34
0 0 0 0 0 11 60 60 12 0 5 3 13 0 4 47
10 4 0 9 0 0 5 45 22 17 0 0 0 0 0 2
21 1 5 3 0 0 0 0 1 6 7 5 10 21 26 41
60 61 66 78 95 90 102 103 98 102 106 108 110 114 118 120
134 137 136 131 129 127 124 127 127 125 122 118 114 107 100 91
79 37 28 33 32 36 36 35 34 35 35 34 34 34 35 34
35 34 34 34 34 34 35 35 36 35 35 36 36 36 36 35
35 35 35 34 34 34 34 34 35 35 35 35 35 35 35 34
0 0 0 0 0 9 60 62 17 0 14 15 24 2 4 47
13 6 1 17 7 0 3 45 22 17 0 0 0 0 0 0
19 4 6 1 0 0 0 0 3 2 1 9 19 30 50 65
69 68 76 86 92 97 106 104 100 104 111 113 113 118 120 121
135 138 139 137 135 131 130 130 130 130 125 121 116 110 106 98
87 65 29 34 33 36 36 35 35 34 34 34 33 34 34 35
35 34 34 35 35 35 36 36 37 36 35 35 36 35 35 35
35 35 36 35 35 35 35 35 35 34 34 34 34 33 32 34
32 31 29 26 23 29 60 62 22 3 3 3 1 0 3 46
12 5 2 11 8 0 4 44 22 17 1 0 0 3 0 0
13 5 3 0 0 1 0 0 1 1 7 20 31 54 71 74
63 70 75 88 97 98 100 97 104 110 115 116 120 127 122 123
124 133 137 138 137 134 132 131 133 134 129 125 118 112 109 102
91 84 41 33 32 35 35 35 34 35 35 35 34 35 35 35
35 35 35 34 34 35 35 34 35 34 34 35 35 35 36 35
36 35 35 35 35 34 34 34 35 34 35 35 34 34 34 35
55 51 49 45 39 35 34 35 8 0 2 11 4 0 3 44
10 3 3 0 2 0 3 44 21 17 1 3 4 14 0 0
12 5 0 0 0 0 1 1 3 8 19 33 52 62 76 71
70 77 83 91 95 97 98 99 110 111 117 119 119 131 129 123
124 133 137 140 139 140 136 133 132 131 128 122 119 115 112 106
97 89 68 35 33 36 35 35 35 35 35 35 35 34 34 34
35 35 35 35 35 35 35 35 35 36 35 35 35 35 35 35
36 35 35 36 35 35 35 35 35 34 35 35 34 35 35 34
27 29 36 44 47 46 37 32 15 11 8 11 4 0 3 43
9 0 7 0 0 0 3 43 22 18 4 13 5 7 1 3
13 4 0 0 0 0 0 0 3 15 31 56 64 67 68 68
70 78 78 86 93 99 103 101 109 115 119 121 126 131 135 133
135 139 139 138 139 139 137 137 134 131 130 128 120 117 116 109
100 91 82 46 32 36 35 35 35 35 35 35 35 35 35 35
35 35 35 35 35 35 35 35 35 34 35 36 36 36 35 35
36 35 35 35 34 35 35 34 34 34 34 34 32 32 32 35
0 0 0 3 7 23 45 44 50 49 45 47 44 38 36 47
22 8 9 9 7 4 8 43 21 18 7 5 0 2 3 1
16 4 0 0 0 0 0 1 14 30 43 52 61 63 66 65
72 77 83 90 95 99 106 103 111 115 118 123 121 126 132 135
131 138 137 140 139 139 140 139 136 132 128 127 121 116 114 112
103 94 90 68 33 36 36 35 35 35 35 35 35 35 35 34
34 36 35 35 35 35 36 35 35 36 35 36 36 36 35 35
36 35 33 33 32 32 33 32 32 32 32 32 29 27 25 22
0 0 0 0 0 9 56 47 16 21 29 37 41 45 49 54
63 42 37 42 45 42 41 41 21 19 3 0 0 0 0 1
25 9 0 0 0 0 2 10 26 35 44 45 58 63 66 67
79 78 84 88 93 101 101 102 113 117 119 118 121 129 131 136
137 137 136 139 140 140 139 139 138 135 131 128 122 120 117 114
106 98 90 82 42 36 36 35 35 35 35 36 36 36 36 35
35 37 36 35 35 35 35 35 35 35 35 35 35 34 34 35
35 34 35 34 32 31 29 27 24 20 17 16 15 14 14 15
0 0 9 14 1 8 55 48 19 11 18 18 14 4 35 67
64 38 41 51 54 54 54 45 20 19 2 0 0 0 0 0
24 20 0 0 0 4 12 20 33 39 46 56 55 57 57 64
72 84 83 88 95 98 108 110 115 122 121 122 131 130 131 129
136 138 138 140 138 139 140 140 139 137 134 130 129 127 123 118
112 102 91 88 61 36 36 35 35 35 35 34 35 35 34 33
33 36 34 34 35 35 35 35 35 35 35 36 35 34 32 30
28 24 25 34 20 14 15 15 16 16 17 18 19 20 21 21
24 5 22 9 0 6 54 48 6 6 8 4 4 0 37 65
55 34 43 51 53 55 56 47 21 20 18 13 7 2 1 0
34 18 0 2 6 13 19 25 29 42 48 58 57 54 60 62
77 85 85 87 95 99 105 108 115 117 122 124 126 126 133 135
138 137 139 140 138 139 140 140 138 138 136 134 133 132 129 123
116 107 99 91 83 41 35 35 35 34 34 34 34 35 34 33
33 35 35 29 15 35 35 34 32 30 27 24 21 19 17 18
18 18 17 31 19 16 20 21 22 22 24 24 25 26 27 26
27 12 14 14 3 6 54 46 1 1 4 0 0 0 35 61
40 8 13 19 21 26 33 45 22 22 43 53 49 43 37 31
41 11 0 3 7 14 18 25 36 44 54 59 50 54 54 63
75 80 82 90 99 97 103 114 119 114 122 122 126 134 137 137
137 135 139 139 140 139 140 139 140 138 132 129 123 129 128 121
115 107 101 94 94 63 35 35 34 33 32 31 30 30 34 34
34 33 24 4 18 25 22 20 19 18 19 19 20 21 22 22
23 24 22 29 20 22 26 27 28 28 29 30 30 30 30 29
5 0 17 28 8 6 52 44 1 0 0 0 0 0 31 61
42 1 0 0 0 0 5 41 23 23 43 55 55 54 54 54
50 15 4 6 10 15 18 30 42 46 52 54 55 62 64 68
75 84 85 89 93 103 108 111 114 116 121 123 125 131 138 133
136 139 141 140 140 135 119 105 99 85 56 32 13 10 33 63
90 102 99 94 97 84 37 31 31 31 30 31 24 19 27 24
22 15 7 16 21 21 22 23 23 24 24 25 26 27 28 29
30 29 27 30 23 26 30 30 31 31 32 32 32 32 33 32
29 30 32 16 6 9 55 44 3 22 2 0 0 0 24 60
41 0 0 0 0 2 7 40 24 21 40 53 53 54 54 54
46 15 3 4 12 17 23 32 43 46 50 51 58 64 62 70
78 93 98 90 91 97 105 103 106 112 120 122 123 132 133 116
100 85 76 65 58 59 77 91 88 77 92 47 15 0 0 0
2 34 71 80 96 92 43 29 26 25 23 22 20 18 21 21
12 17 17 27 28 28 29 30 30 30 31 31 32 32 32 32
32 31 24 9 8 27 32 33 33 33 33 33 34 34 34 34
18 49 48 17 1 10 58 49 8 30 3 0 0 0 19 56
38 0 0 0 9 32 30 35 33 28 34 39 41 43 43 43
44 15 2 7 15 21 27 36 42 45 52 49 56 58 56 68
79 88 93 88 97 99 99 100 103 91 81 68 66 64 71 87
98 105 110 101 95 84 81 72 53 40 19 5 2 0 0 0
0 0 5 53 93 91 47 23 23 23 24 25 26 26 28 16
25 22 27 32 33 33 33 33 34 33 33 33 34 33 33 34
33 32 24 4 1 23 34 35 35 34 34 34 34 34 34 34
6 42 41 16 2 10 58 51 3 18 6 0 0 0 18 53
34 0 0 0 9 32 32 29 30 25 27 27 30 37 35 41
38 13 1 7 14 20 29 39 42 46 49 57 59 63 66 73
84 82 82 88 70 55 50 55 73 96 114 116 106 91 84 74
65 53 35 27 24 25 24 22 15 9 4 5 13 0 0 0
0 1 0 17 79 74 38 25 27 28 29 30 31 32 22 26
34 30 14 20 20 18 13 19 34 35 34 33 22 6 6 10
11 11 17 6 1 22 33 34 35 35 35 35 34 35 35 35
0 33 30 11 2 9 59 52 4 2 3 0 0 0 20 54
32 0 3 0 2 13 17 27 27 25 27 29 33 38 38 42
39 21 5 8 16 22 32 39 42 47 54 62 60 68 69 77
88 72 36 25 34 41 43 39 35 35 41 51 65 69 77 85
94 98 101 105 105 98 81 68 59 34 26 18 21 0 0 0
0 0 2 1 63 60 18 1 5 28 34 33 34 30 22 32
30 36 6 1 0 1 1 17 25 18 5 5 1 5 1 0
0 0 4 0 0 21 33 35 36 35 35 34 35 35 34 34
3 19 21 1 0 8 57 50 4 0 0 0 0 0 23 55
31 0 3 1 0 0 0 25 22 24 16 10 15 21 26 32
31 21 8 12 16 22 30 35 41 53 57 60 69 74 76 86
60 10 18 25 39 55 69 86 101 114 120 130 139 138 138 137
139 140 140 134 131 117 102 104 97 44 30 22 18 0 0 0
0 0 0 0 34 31 2 1 2 12 35 33 34 18 13 2
2 42 19 0 0 0 0 0 0 0 0 0 0 0 9 0
0 0 0 1 0 21 33 34 35 34 35 34 35 35 34 35
24 7 4 6 14 18 54 47 3 0 0 0 0 0 25 56
31 0 1 8 2 0 0 30 30 30 14 0 0 4 15 25
21 16 9 10 16 26 29 38 50 53 62 69 69 81 88 82
8 17 60 98 98 95 104 112 113 119 126 129 139 139 139 140
140 140 138 138 134 126 114 116 87 31 15 22 18 0 0 0
0 0 1 2 4 4 0 2 4 5 36 34 25 3 10 11
2 5 2 0 0 0 0 0 0 0 0 0 0 0 5 0
0 0 1 6 1 24 33 34 35 34 35 34 34 34 33 33
0 6 4 15 49 50 51 45 23 18 14 9 7 4 29 56
32 0 0 5 6 0 0 33 35 29 15 0 0 9 18 24
15 14 7 10 17 20 27 41 52 56 66 72 76 84 95 43
6 60 93 98 102 105 107 113 112 119 124 125 135 139 140 140
140 140 137 134 128 121 119 109 51 17 28 35 15 0 0 0
0 0 2 8 8 0 0 0 5 5 36 35 15 19 34 15
17 23 17 16 16 16 15 11 7 11 1 0 0 0 0 0
0 0 5 16 9 28 34 35 35 35 35 34 33 34 34 34
9 32 41 31 53 56 55 47 53 50 40 39 47 40 42 47
37 6 0 4 14 7 0 32 36 30 16 0 6 19 20 14
12 7 8 11 17 22 28 38 47 64 74 76 91 116 119 90
50 104 103 103 107 109 110 116 117 120 124 131 133 140 140 140
140 139 139 139 135 125 114 85 24 36 46 36 11 0 0 0
0 0 0 14 8 0 0 1 8 10 35 25 8 23 21 31
36 36 36 36 36 36 36 35 18 15 0 0 0 0 0 0
0 2 19 25 25 31 34 34 36 34 34 34 33 34 34 34
47 47 55 53 53 57 58 55 30 20 13 14 20 23 24 44
43 35 26 22 31 26 19 38 34 26 15 1 17 19 16 15
9 1 8 11 17 21 29 41 50 65 74 108 120 104 103 124
130 99 110 117 114 114 111 114 124 126 127 134 137 138 139 138
140 140 140 139 136 127 112 73 33 46 46 30 8 0 0 0
0 0 0 12 50 55 0 0 5 14 33 10 30 29 36 36
36 36 36 36 36 36 36 31 9 0 0 0 0 0 30 32
31 31 28 29 30 34 34 34 35 34 34 34 34 34 34 35
44 31 51 46 33 39 44 50 10 0 0 0 9 20 14 45
44 32 27 33 41 47 50 52 42 25 17 4 16 19 13 9
7 0 10 13 19 24 32 45 48 59 106 126 127 133 131 113
119 134 117 133 127 118 117 120 128 129 131 136 137 139 140 138
139 139 139 139 139 133 116 84 43 39 26 12 1 0 0 0
0 0 6 15 77 93 32 0 4 19 14 26 36 37 36 36
36 35 35 35 35 35 35 26 0 0 8 4 0 0 32 35
33 33 31 30 33 35 35 35 35 35 34 35 35 35 34 34
23 2 23 15 1 0 1 39 13 0 1 4 6 17 24 47
45 19 0 2 11 15 43 52 41 25 19 7 13 16 9 9
5 0 8 13 15 21 31 40 43 76 138 139 141 143 142 129
86 119 140 139 142 132 123 128 135 139 140 139 138 139 140 138
140 140 140 140 140 136 130 104 54 47 40 16 0 0 0 0
0 0 19 15 90 106 97 16 3 13 15 36 36 36 36 36
36 36 36 36 36 36 35 28 0 0 6 4 0 0 30 35
34 33 32 33 34 34 34 34 33 34 34 34 34 33 33 34
20 0 0 3 0 0 0 38 15 0 14 38 22 12 18 48
45 14 0 10 29 15 44 50 36 27 27 19 15 15 6 6
4 0 8 10 18 22 29 34 50 131 143 142 143 143 143 132
86 111 142 141 141 140 128 134 141 141 141 141 134 138 140 140
140 139 140 140 139 137 131 112 60 51 40 16 0 0 0 0
0 15 24 24 99 114 119 69 3 14 35 37 37 36 37 37
36 36 36 36 36 36 36 28 0 0 0 0 0 0 28 34
34 33 32 33 33 33 33 34 35 35 35 34 34 33 34 34
7 2 0 10 6 0 0 37 16 5 32 40 11 1 13 52
47 12 1 6 31 30 46 47 29 27 26 17 15 9 8 6
2 0 6 12 17 21 30 29 70 140 143 143 143 143 143 136
128 123 138 140 139 139 123 128 136 138 135 140 140 139 139 140
140 140 140 140 140 138 133 119 67 51 40 21 0 0 0 0
8 43 18 47 107 124 130 110 26 21 37 36 36 36 36 36
37 36 36 35 35 34 33 27 0 0 0 0 0 0 25 35
34 34 33 35 36 34 34 35 35 34 34 34 34 34 33 33
39 40 35 39 15 0 0 37 19 4 22 47 11 0 13 52
48 11 0 1 8 20 47 47 28 29 26 15 16 7 8 8
2 0 7 13 15 19 22 24 71 146 143 143 143 143 143 142
142 138 129 136 132 139 135 132 135 135 139 139 137 139 140 141
140 140 139 140 139 138 136 128 92 52 45 30 1 0 0 2
40 49 9 81 116 135 136 128 79 29 36 35 36 36 36 36
36 36 36 34 18 9 5 5 0 0 0 0 0 0 24 35
34 35 34 35 35 34 34 34 34 34 34 34 34 34 34 34
17 10 13 14 4 0 0 36 17 0 10 29 6 5 14 54
50 13 0 0 0 8 45 47 30 28 26 25 14 10 8 8
6 2 9 15 15 16 21 25 76 146 144 143 143 143 143 143
143 120 98 131 135 141 139 136 127 121 130 136 140 141 141 141
142 141 141 141 140 140 138 137 126 76 47 35 11 0 2 28
55 33 29 109 124 139 139 135 118 58 36 36 37 37 37 37
36 37 36 29 7 16 2 3 0 0 0 0 1 0 20 34
34 35 35 35 35 35 35 34 35 35 35 34 34 34 33 33
12 0 0 0 0 0 0 34 16 0 0 0 0 4 12 52
49 11 0 0 0 5 44 49 30 29 29 24 14 9 6 5
3 0 4 12 12 16 19 23 74 146 144 144 143 143 144 144
129 49 99 135 143 142 141 138 130 124 128 134 141 140 132 131
138 141 139 139 140 139 139 138 138 120 68 43 31 9 5 33
36 20 93 115 132 137 136 132 125 103 45 37 37 37 37 37
37 37 36 38 43 40 20 17 0 0 0 0 0 0 6 23
35 34 34 34 34 34 35 34 34 33 34 35 34 33 34 33
19 0 0 0 0 0 0 34 19 0 0 0 0 0 10 52
48 9 0 0 0 5 45 50 28 29 29 20 13 10 7 6
9 2 2 11 14 17 20 25 63 145 143 143 143 143 142 124
90 73 122 126 143 142 141 139 132 134 130 136 141 137 124 127
134 141 140 139 140 140 140 140 139 137 119 75 45 33 20 20
47 113 117 113 133 135 136 135 131 121 84 36 37 37 36 36
36 36 36 32 31 31 7 2 0 0 0 0 0 0 9 5
14 26 34 35 35 34 35 35 34 34 34 34 33 32 33 33
28 0 0 0 0 0 0 31 17 0 0 0 0 0 9 51
48 9 0 0 0 4 41 45 26 30 26 13 13 9 9 3
10 7 3 13 12 18 20 23 43 130 144 143 143 144 135 108
90 115 108 89 142 142 141 139 134 130 132 135 133 133 126 129
129 141 138 137 140 138 136 139 140 138 134 125 108 87 78 90
114 131 114 110 126 127 132 133 130 129 112 51 36 36 35 34
33 30 28 23 6 2 1 0 0 0 0 0 0 0 2 6
0 16 35 35 35 34 34 34 34 34 33 33 33 32 33 33
23 0 0 0 0 0 0 30 16 0 0 0 0 0 8 51
49 9 0 0 0 3 39 45 26 30 23 9 10 10 11 4
9 11 3 6 14 18 23 29 37 92 145 143 143 143 127 119
96 112 104 103 141 143 142 139 134 131 129 127 129 129 131 128
135 140 140 140 140 138 138 138 139 139 135 130 122 116 108 107
112 125 124 120 124 125 125 131 135 134 121 72 36 35 23 10
9 9 9 5 0 0 0 0 0 0 0 0 1 0 1 5
2 12 34 35 35 35 34 35 34 33 33 33 33 32 33 32
0 0 0 0 0 0 0 28 23 5 6 8 12 16 24 51
49 10 0 0 0 3 43 51 26 28 23 9 7 17 15 7
14 11 4 0 15 19 25 26 33 52 132 144 144 143 128 132
116 122 115 120 131 142 140 137 131 130 131 129 126 124 128 131
137 137 137 140 140 133 137 138 139 138 131 134 127 121 112 105
109 123 124 123 130 133 130 126 128 129 122 78 27 23 11 2
3 2 2 1 1 8 4 2 0 0 0 0 0 0 1 6
3 10 35 35 35 36 35 34 33 33 33 33 33 33 33 33
18 18 16 14 12 12 12 35 44 41 42 44 47 50 50 45
34 16 9 6 5 6 42 48 25 25 17 11 3 16 18 20
8 16 5 3 10 20 23 27 34 46 86 143 144 142 131 126
124 130 137 130 120 139 134 131 125 124 128 132 126 126 131 127
128 130 132 140 138 126 135 137 134 130 128 130 129 123 113 105
106 118 121 128 131 126 103 90 105 114 108 46 3 4 5 5
6 7 7 8 6 4 4 11 3 0 0 0 0 0 1 6
2 9 34 36 35 35 35 34 33 33 33 32 32 32 31 31
51 51 50 48 46 46 48 50 48 46 48 48 49 49 49 46
44 44 42 40 38 33 42 42 35 24 12 9 6 10 26 26
18 12 13 6 4 18 23 29 34 43 61 116 144 136 137 123
123 137 142 133 111 134 127 127 125 124 126 129 129 127 129 129
124 131 135 138 137 137 138 137 133 129 134 127 129 118 114 104
103 104 110 114 110 59 56 60 81 103 65 13 9 10 10 10
10 9 9 9 3 1 2 10 7 0 0 0 0 0 0 4
5 11 31 33 34 33 33 33 33 33 32 33 33 33 32 28
55 54 56 54 53 56 56 47 35 35 44 44 44 44 44 44
43 43 43 43 44 43 40 38 35 19 12 10 7 3 22 28
34 13 20 7 1 15 24 28 29 40 58 90 130 140 126 135
139 138 134 125 132 137 122 130 118 120 124 126 127 129 126 128
127 135 132 135 137 131 132 135 130 130 133 124 127 119 113 102
102 102 98 96 101 92 112 115 102 48 14 9 9 7 6 4
3 2 4 8 6 1 4 5 2 0 0 0 5 1 0 3
12 14 28 34 35 34 34 33 33 33 32 32 32 23 4 4
56 52 54 51 52 55 51 28 26 30 43 44 45 43 44 44
44 43 43 43 42 40 40 39 30 14 12 8 8 10 15 37
30 23 10 7 0 7 20 23 32 35 54 87 103 137 141 132
133 137 138 135 140 135 120 120 118 120 124 124 129 131 132 129
132 135 124 128 136 123 122 130 131 132 132 129 125 122 114 102
104 110 106 106 115 107 96 69 17 3 2 0 0 0 0 0
0 0 4 10 9 5 4 4 0 0 0 0 1 0 0 7
6 9 29 35 35 34 35 34 34 33 33 33 32 18 0 4
25 27 25 23 23 30 27 24 26 30 42 43 40 36 34 34
33 32 29 29 29 28 28 28 24 12 7 6 7 13 12 35
28 21 11 3 0 1 17 23 27 37 51 88 97 111 141 142
141 141 138 138 138 140 117 121 119 125 127 126 130 132 134 134
135 135 130 131 132 124 125 128 132 134 132 132 124 120 113 105
109 113 110 114 119 107 89 14 0 0 0 0 0 0 0 0
0 0 7 10 8 6 6 5 6 6 8 8 8 9 12 16
17 15 23 23 22 20 22 33 33 33 33 33 33 15 0 0
0 1 0 0 0 9 4 24 25 29 41 43 30 7 2 2
1 1 1 1 0 1 1 9 17 9 5 6 7 16 17 18
32 16 10 1 0 0 7 24 25 37 50 87 96 102 117 138
142 143 142 142 141 139 104 121 121 121 126 131 130 137 136 136
133 137 136 136 134 130 128 135 134 132 135 132 126 115 116 113
113 113 111 110 114 105 76 7 0 0 0 0 0 0 0 0
0 0 10 9 9 8 31 15 20 22 26 23 19 24 22 19
19 15 12 33 32 11 15 31 34 34 33 33 33 13 0 0
0 1 0 0 0 11 14 24 25 28 39 43 33 7 0 0
0 0 0 0 0 1 2 13 17 9 9 6 7 12 25 17
18 11 5 2 0 0 1 17 26 31 49 86 94 101 103 107
122 137 140 137 135 118 89 117 117 121 123 125 127 136 138 138
136 136 137 133 133 130 122 135 134 138 135 134 131 126 126 118
115 116 113 112 111 96 74 13 0 0 0 0 0 0 0 0
0 1 10 9 9 8 26 14 20 25 29 46 42 58 60 63
31 16 24 74 79 7 10 30 33 33 18 11 9 3 0 0
0 1 0 3 12 20 19 23 24 27 38 43 36 12 0 0
0 0 0 0 1 3 2 19 16 12 6 4 5 10 21 33
11 9 4 0 0 0 0 7 23 31 46 84 93 98 105 104
100 105 110 106 96 66 88 109 110 119 124 123 130 134 137 138
138 138 137 132 132 131 132 127 129 137 135 136 135 136 128 119
114 117 119 115 111 97 77 31 0 0 0 0 0 0 0 0
0 3 10 9 11 6 22 13 23 28 34 87 68 90 88 91
39 15 59 109 114 50 10 29 33 29 0 0 0 0 0 0
0 0 6 18 20 20 18 23 25 28 37 43 38 16 0 0
0 0 0 1 2 3 6 24 16 15 7 7 11 1 20 36
30 7 1 0 0 0 0 0 15 33 49 85 95 98 105 107
104 105 107 101 90 87 105 106 108 116 118 121 134 137 137 137
138 136 138 126 130 132 126 118 123 135 137 137 138 138 130 119
117 123 123 121 112 101 79 54 0 0 0 0 0 0 0 0
0 6 11 10 13 4 20 21 27 30 30 60 47 53 48 44
29 23 45 54 38 29 18 25 34 27 0 0 0 0 0 0
0 0 11 19 20 21 19 23 24 27 36 43 39 19 0 0
0 0 0 1 1 3 11 28 19 15 8 9 18 1 5 27
31 23 10 2 0 0 0 0 11 34 54 88 97 101 109 115
119 121 128 129 126 115 108 102 106 114 116 126 136 131 135 138
138 138 134 122 127 135 127 128 131 137 138 139 140 138 126 116
116 126 120 101 82 79 70 58 1 0 0 0 0 0 0 0
0 9 10 11 14 2 5 27 31 34 22 24 23 21 16 20
20 20 20 21 19 20 16 23 34 32 7 0 0 0 0 0
0 0 9 19 20 21 19 23 25 27 35 43 40 23 1 0
0 0 0 0 3 1 15 32 20 12 7 13 23 3 0 15
33 23 21 10 0 0 0 0 3 31 58 92 100 105 115 124
128 129 131 131 126 115 103 101 106 107 122 128 134 130 135 137
138 137 134 132 133 131 134 136 134 130 136 139 140 137 122 107
104 102 80 69 66 63 53 22 0 0 0 0 0 0 0 0
0 11 11 12 12 0 7 25 31 34 22 24 20 21 14 14
16 22 22 21 20 19 18 22 34 33 24 2 0 0 0 0
0 0 9 19 20 21 19 23 25 27 35 43 40 26 1 0
0 0 0 1 1 5 17 36 20 12 5 12 23 5 0 5
30 28 23 14 2 0 0 0 0 27 58 90 97 107 117 124
127 128 131 130 124 116 102 97 103 108 112 125 131 134 135 135
134 133 134 135 135 126 136 138 134 131 137 137 140 133 110 75
68 73 74 71 59 52 32 2 0 0 0 0 0 0 0 0
2 11 10 11 7 0 0 2 16 34 22 23 14 15 15 16
18 24 22 21 19 18 16 18 28 13 14 0 0 0 0 0
0 0 10 20 21 20 19 22 24 27 33 43 41 27 2 0
0 0 1 0 1 4 25 37 20 12 7 17 25 9 0 2
19 36 21 23 8 0 0 0 0 16 66 86 99 109 120 125
128 132 131 132 122 115 104 94 100 101 111 116 125 132 131 136
128 119 129 138 137 134 134 134 132 127 133 137 137 125 94 84
85 100 103 102 85 69 51 5 0 0 0 0 0 0 0 0
5 11 10 12 4 0 0 0 18 31 22 23 11 18 15 16
19 23 22 21 19 18 15 11 8 0 0 9 0 0 0 0
1 0 10 20 20 21 19 22 23 26 32 41 40 29 3 0
0 0 0 0 2 4 29 34 16 13 6 22 22 14 0 2
9 20 30 23 16 2 0 0 0 11 64 87 100 110 119 125
129 132 131 129 122 115 107 91 92 95 111 114 120 130 128 131
126 114 132 132 129 132 132 131 130 129 134 136 131 118 102 115
117 105 101 101 100 81 76 29 0 0 0 0 0 0 0 0
8 10 10 11 3 0 5 5 26 31 24 22 11 17 14 14
19 22 20 20 18 17 15 1 0 0 0 0 0 0 0 0
2 0 9 19 20 21 19 21 23 25 30 41 40 30 5 0
0 0 0 0 2 5 29 27 14 16 6 23 26 13 0 1
8 6 26 31 17 4 0 0 0 3 60 89 100 110 121 125
131 133 133 129 122 117 106 85 86 94 103 111 119 124 125 130
133 130 133 132 121 127 128 128 129 130 130 130 129 116 112 122
124 116 109 97 86 76 68 29 0 0 0 0 0 0 0 0
10 10 10 10 0 1 14 9 32 28 24 21 8 14 14 13
19 21 20 20 18 17 16 0 0 0 9 0 0 0 0 0
17 9 15 17 19 20 18 21 24 25 30 41 41 31 6 0
0 0 1 2 5 8 24 19 15 16 7 19 26 13 0 0
5 2 13 28 25 6 0 0 0 0 53 87 98 110 120 125
129 133 135 131 124 117 106 88 85 102 107 114 118 122 122 125
129 131 134 131 127 122 121 128 128 130 120 122 124 119 118 119
120 112 102 87 69 51 41 6 0 0 0 0 0 0 0 1
11 9 11 8 0 4 12 5 34 27 20 9 1 9 14 13
19 20 20 19 18 18 16 0 0 3 9 0 0 0 0 0
48 34 25 16 18 19 18 20 23 24 28 40 40 31 7 0
0 1 1 2 3 8 19 14 18 21 9 12 26 13 1 0
1 4 2 16 31 11 2 0 0 0 44 85 95 108 118 123
129 133 135 134 128 121 110 93 85 90 101 103 110 115 122 124
125 126 130 129 130 126 128 130 131 127 124 119 118 116 116 113
112 102 83 61 43 28 3 0 0 0 0 0 0 0 0 3
11 9 12 7 0 2 4 10 35 25 14 5 0 7 11 12
19 20 19 18 18 18 17 3 5 7 7 5 4 3 1 1
25 4 7 16 18 18 17 20 23 25 28 40 39 32 8 0
0 0 0 0 0 7 15 8 16 21 11 7 22 13 0 0
0 2 0 4 25 15 4 3 1 0 39 84 97 110 118 123
128 132 134 133 129 123 114 93 84 86 94 99 106 107 115 118
119 121 129 129 125 128 128 126 126 128 121 116 109 110 112 111
105 97 88 82 64 30 0 0 0 0 0 0 0 0 0 6
11 11 12 5 0 27 26 20 34 24 13 4 0 8 11 12
19 20 19 17 18 18 17 4 7 8 8 5 3 1 1 0
21 0 1 16 17 18 18 19 22 24 27 39 40 32 9 0
0 0 0 1 2 6 10 5 15 16 11 6 18 9 0 0
0 0 0 1 18 21 9 2 0 1 36 83 99 111 118 125
129 131 134 132 126 131 120 103 83 75 86 90 95 99 104 111
115 121 126 124 112 118 130 123 128 128 121 110 102 106 107 104
99 104 102 96 71 11 0 0 0 0 0 0 0 0 0 9
10 11 12 1 7 66 38 21 33 24 13 3 7 11 11 13
20 20 19 18 18 19 18 3 0 0 0 0 0 0 0 0
23 0 0 14 17 17 16 17 22 23 26 38 40 33 11 0
0 0 0 0 2 1 5 3 12 12 8 1 16 8 0 0
0 0 0 0 8 24 10 1 0 0 30 81 98 110 118 124
128 131 134 134 132 131 131 117 95 70 66 72 79 85 82 101
111 116 120 120 116 117 127 124 125 124 112 109 108 105 109 105
111 115 114 103 79 16 0 0 0 0 0 0 0 0 1 11
11 12 11 0 8 47 19 25 31 23 17 11 7 14 12 15
21 21 19 18 18 18 17 4 0 0 0 0 0 0 0 0
25 0 0 14 16 17 17 16 20 22 25 37 39 32 11 0
0 0 0 1 0 1 3 2 6 9 6 1 14 3 0 0
0 0 1 2 10 22 12 0 0 0 27 82 99 111 118 123
129 131 132 131 132 128 132 122 108 84 75 71 67 69 76 85
95 100 108 117 119 119 119 123 116 115 106 107 102 102 109 107
115 118 111 102 83 33 0 0 0 0 0 0 0 0 2 11
10 12 8 0 0 11 12 30 29 25 18 14 8 14 13 16
21 21 18 17 18 18 17 4 0 0 0 0 0 0 0 6
33 10 5 14 16 17 16 15 20 21 24 37 39 33 12 0
0 0 0 2 0 0 2 1 2 6 7 5 11 3 0 0
0 0 2 0 8 24 13 0 0 0 29 85 99 112 118 124
131 134 135 134 133 132 128 125 113 95 84 81 67 59 65 72
79 91 101 106 110 115 118 117 117 116 112 107 105 109 107 111
113 117 110 101 84 47 4 4 4 4 4 5 4 4 8 13
11 12 6 0 0 4 11 36 27 25 21 12 8 13 13 17
21 20 18 18 18 17 17 4 0 0 0 0 0 0 0 1
38 35 32 26 15 15 15 15 19 21 24 35 39 33 11 0
0 0 2 2 0 0 3 1 2 4 7 9 15 1 0 0
0 0 0 12 23 21 13 1 1 0 35 90 101 111 118 123
129 133 133 132 130 123 128 125 118 97 78 84 82 75 65 60
62 71 84 97 99 104 106 108 107 105 108 105 107 110 103 108
108 114 109 100 77 46 11 11 11 11 11 11 12 11 12 12
11 13 3 0 0 3 17 35 25 24 20 12 9 14 14 18
21 20 19 17 18 16 16 4 0 0 0 0 0 0 0 0
21 9 6 7 7 8 9 10 18 20 24 34 38 33 12 0
0 0 0 1 0 0 1 0 1 4 5 17 20 1 0 0
7 4 8 29 15 21 13 0 0 0 40 93 103 112 119 123
131 133 133 131 129 118 125 124 114 100 90 94 89 84 79 71
63 60 63 74 84 93 97 103 99 95 104 100 100 104 102 102
107 109 107 97 71 44 11 12 12 11 11 10 11 10 11 10
13 15 1 0 5 6 22 33 25 23 19 11 7 13 13 18
20 19 18 18 17 17 17 5 0 0 0 0 0 0 0 0
23 2 0 2 5 7 7 8 18 20 23 33 38 33 13 0
0 0 0 0 1 0 0 0 0 1 8 23 16 0 0 8
15 5 17 11 14 24 11 0 0 0 55 96 103 112 119 123
130 132 132 128 132 127 120 124 117 101 99 94 92 88 83 79
76 66 61 54 63 72 80 87 89 90 94 89 92 98 100 99
101 103 99 81 63 28 21 22 13 12 12 12 13 15 12 7
6 12 0 0 18 23 30 31 24 24 17 9 5 10 14 20
21 19 18 18 18 17 16 4 0 0 0 0 0 0 0 0
24 3 0 1 6 7 10 12 18 20 23 32 37 32 13 0
0 0 0 0 0 1 0 1 1 2 14 24 12 1 0 13
12 9 7 4 23 20 3 0 0 1 68 99 103 112 119 123
127 130 132 132 132 130 123 120 116 112 105 96 91 87 87 88
84 81 77 69 60 56 60 65 67 71 82 82 82 87 92 93
93 91 80 64 61 55 90 92 66 61 52 28 36 35 33 31
14 0 0 22 42 15 35 30 26 23 11 4 3 7 13 21
21 19 19 18 19 17 16 5 0 0 0 0 0 0 8 0
24 3 0 0 1 6 13 14 18 19 22 32 37 32 15 0
0 0 0 1 1 7 5 7 8 9 20 22 9 0 2 19
8 2 1 13 17 23 0 0 0 7 82 100 104 111 119 124
128 129 130 131 134 129 126 121 120 117 109 103 103 93 99 98
90 83 79 76 70 62 58 54 51 56 63 64 71 74 72 74
78 73 55 48 100 133 140 139 133 119 93 28 8 8 9 12
26 24 3 90 135 28 36 26 24 22 12 13 5 5 14 21
21 19 20 18 18 17 15 5 0 0 0 0 0 1 16 0
14 1 0 1 2 3 12 13 17 18 21 30 37 34 25 16
17 20 23 23 26 26 23 24 18 17 23 17 3 0 3 6
1 1 8 18 22 10 0 0 0 22 90 102 103 111 119 124
127 131 128 127 130 125 126 124 125 120 119 114 113 108 106 106
101 97 89 79 65 56 55 51 40 37 38 35 37 40 40 46
46 38 44 84 114 122 129 139 132 119 93 21 7 8 7 6
22 21 32 109 129 21 37 25 24 21 8 7 0 3 15 17
13 14 16 18 18 17 17 6 0 0 0 0 0 11 16 0
7 7 0 1 5 0 11 13 16 18 21 30 37 37 36 34
31 34 35 35 32 32 31 27 28 19 21 11 1 1 3 0
0 9 18 22 23 0 0 2 1 40 94 104 107 110 117 123
126 129 131 131 131 126 127 126 127 127 123 117 122 119 120 119
114 105 97 86 72 53 42 36 28 23 15 11 8 9 19 28
41 51 85 105 119 130 136 135 127 114 83 16 3 4 3 9
25 0 12 53 37 16 38 20 5 2 0 0 0 0 0 2
16 22 17 15 13 13 18 7 0 0 0 0 0 17 9 0
11 8 0 1 0 0 4 6 12 15 19 29 37 37 36 35
27 33 33 34 32 31 30 33 27 25 16 4 5 6 5 10
16 14 28 29 5 5 3 3 2 50 98 105 107 110 116 121
124 126 129 131 133 127 128 126 129 128 124 120 119 124 122 120
117 111 100 89 73 55 42 30 18 9 3 1 0 2 10 32
38 35 55 87 47 93 114 109 96 75 27 3 4 2 2 20
36 18 21 48 32 37 38 18 1 0 0 0 0 0 0 0
7 18 5 11 10 12 19 9 0 0 0 0 0 4 1 0
2 0 0 0 0 0 2 5 12 13 17 28 36 36 35 34
31 30 29 29 28 27 29 33 33 29 18 8 14 14 12 9
17 32 34 11 0 5 4 3 3 50 100 106 108 107 113 118
123 126 127 128 131 129 129 127 124 128 126 122 123 125 124 123
122 115 107 91 70 48 24 8 1 0 0 0 0 0 1 1
8 23 33 45 17 7 9 6 5 5 0 4 4 22 58 70
81 85 88 80 83 79 52 26 21 0 0 0 0 0 0 0
1 14 2 10 9 4 6 10 11 3 0 0 0 0 0 0
0 0 0 0 0 0 0 1 2 5 8 11 16 14 13 12
11 8 8 11 16 18 15 19 24 26 27 21 16 18 19 26
35 25 8 0 2 9 5 7 3 45 103 106 107 107 109 117
120 124 124 124 130 133 133 129 126 129 127 125 126 125 123 124
125 116 108 90 68 50 27 2 0 0 0 0 0 0 0 0
0 0 3 20 47 27 7 6 11 10 5 8 9 70 98 87
97 90 75 70 82 80 50 15 16 0 0 0 0 0 0 0
0 7 3 9 6 9 11 0 3 0 0 0 0 0 0 0
0 0 0 0 0 0 0 0 0 0 0 0 0 0 0 0
1 3 3 5 10 4 3 9 18 18 17 17 16 18 23 21
16 3 2 0 4 11 15 5 0 45 104 107 108 105 104 113
119 122 125 127 131 135 132 131 129 126 125 126 123 118 123 123
123 116 106 89 70 53 31 18 0 0 0 1 0 0 0 0
0 0 0 0 1 4 17 20 24 27 42 69 75 80 84 83
91 88 82 77 79 77 45 1 0 0 0 0 0 0 1 1
0 1 7 4 0 0 0 0 0 0 0 0 0 0 0 0
2 0 0 0 0 0 0 0 0 2 0 0 0 0 0 0
7 12 11 4 1 2 6 24 29 7 7 8 11 13 10 5
0 0 0 0 11 24 4 0 0 48 106 109 109 107 105 110
117 122 126 131 132 132 132 129 130 127 128 126 123 119 117 117
115 111 99 90 73 55 59 45 0 0 0 0 0 0 0 0
0 0 0 0 0 0 0 4 10 24 54 46 30 42 60 57
48 42 43 44 42 43 31 16 16 13 8 8 5 0 2 0
0 0 0 0 0 0 0 0 0 0 0 0 0 0 0 0
14 4 0 0 0 0 0 0 0 3 5 4 2 0 0 0
4 6 2 0 2 5 45 43 18 0 0 0 0 0 0 0
0 0 7 15 12 2 0 1 3 57 107 111 112 110 107 110
118 123 127 131 134 132 131 134 132 128 125 124 123 121 119 117
114 108 100 86 64 65 79 59 0 0 0 0 0 0 0 0
0 0 0 0 0 0 0 0 0 2 5 35 110 142 142 139
108 68 54 34 20 14 6 4 2 1 0 0 0 0 0 0
0 0 0 0 0 0 0 0 0 0 0 0 0 0 0 0
15 1 0 0 0 0 2 2 2 3 7 6 3 0 0 0
1 0 1 4 5 7 57 36 4 0 0 0 0 0 0 0
0 7 18 7 1 1 1 2 6 52 110 115 116 112 111 114
117 123 126 130 135 135 133 133 132 128 126 125 125 124 118 118
115 106 93 71 56 79 82 60 0 0 0 0 0 0 0 0
0 0 0 0 0 0 0 0 0 0 0 0 6 42 50 51
47 7 24 34 35 31 4 0 0 0 0 0 0 0 0 1
0 0 0 0 0 0 0 0 0 0 0 0 0 0 0 0
1 0 0 0 0 1 8 13 11 7 6 5 7 9 7 0
0 0 3 8 6 1 2 6 4 0 0 0 0 0 0 0
1 2 3 1 0 1 2 3 6 46 112 118 120 115 112 114
118 122 125 127 133 134 134 130 128 130 129 125 125 123 119 113
107 96 74 59 66 90 85 61 0 0 0 0 0 0 0 0
0 0 0 0 0 0 0 0 0 0 0 0 0 1 1 7
36 7 24 43 38 35 7 0 0 0 3 7 11 26 14 20
35 33 30 54 60 66 12 0 0 0 0 0 0 0 0 0
0 0 0 0 0 0 8 11 8 3 4 5 6 4 0 0
0 0 2 4 3 4 6 2 0 0 0 0 1 0 0 0
0 0 1 0 0 0 1 3 8 43 113 119 122 119 115 116
119 119 124 128 130 133 132 133 130 131 129 129 128 123 115 109
98 76 63 63 80 93 82 61 0 0 0 0 0 0 0 0
0 0 0 0 0 0 1 5 15 12 0 0 0 0 0 0
2 3 1 12 22 31 72 92 91 116 123 130 129 136 95 97
135 73 107 113 96 97 33 0 0 0 0 0 0 0 0 0
0 0 0 0 0 0 5 4 2 0 0 0 0 0 0 0
0 2 9 8 6 3 0 0 0 0 0 0 1 0 1 0
0 0 0 0 1 1 1 3 5 33 109 123 124 121 119 118
120 121 121 127 132 134 130 132 131 130 128 129 127 122 114 104
87 69 69 71 92 94 83 64 1 0 0 0 0 0 0 0
0 0 0 0 0 0 17 42 60 47 2 0 0 0 0 0
0 1 1 0 0 7 72 88 55 69 81 83 89 96 74 37
51 59 75 51 29 42 33 0 6 1 11 0 0 0 0 0
0 0 0 0 0 0 0 1 0 0 1 0 0 0 2 7
7 8 0 0 0 0 0 0 0 0 0 1 0 1 4 0
0 0 0 0 4 4 5 5 4 25 99 125 126 125 123 123
123 121 121 124 127 130 131 130 128 130 130 126 120 119 113 102
82 75 71 82 95 91 82 62 2 0 0 1 0 0 0 0
0 0 0 0 0 0 2 50 49 14 0 0 0 0 0 0
0 1 3 1 0 0 1 37 52 72 68 80 72 75 57 17
70 75 73 47 68 48 24 1 4 1 6 0 0 0 0 0
0 0 0 0 0 0 0 1 1 0 0 1 4 5 4 0
0 0 0 0 0 0 0 0 0 0 0 0 0 1 2 0
0 0 0 1 5 4 3 4 3 12 69 123 125 125 126 127
123 121 123 124 125 127 131 129 128 129 127 125 119 114 108 97
83 74 77 92 94 90 80 52 1 0 0 5 0 0 0 0
0 0 0 0 0 0 3 46 52 17 0 0 0 0 1 0
0 0 0 2 0 0 0 0 22 72 72 63 54 27 39 20
49 43 33 18 26 25 11 0 0 0 0 0 0 0 0 0
0 0 0 0 0 0 2 6 1 3 4 2 0 0 0 0
0 0 0 0 0 2 0 0 0 0 0 0 0 0 1 0
0 0 0 2 3 1 1 3 1 2 42 93 128 127 128 129
126 123 122 122 123 124 128 127 126 128 130 122 120 115 107 95
86 83 86 92 94 87 79 30 0 0 0 4 0 0 0 0
0 0 0 0 0 0 0 14 8 2 0 0 1 1 1 1
0 0 0 1 0 0 0 0 0 6 11 6 0 0 0 0
0 10 2 2 4 0 0 0 0 0 1 0 0 0 0 0
0 0 1 0 0 0 10 5 1 0 0 0 0 0 0 0
0 0 0 0 0 4 3 0 0 0 0 0 0 0 0 0
0 0 0 0 3 1 1 2 0 0 18 64 107 128 129 127
124 122 122 122 122 123 123 126 127 125 125 123 118 113 106 95
86 84 89 97 93 85 70 8 0 0 0 4 1 0 0 0
0 0 0 0 0 0 0 0 15 6 4 2 1 0 1 1
0 0 1 0 0 1 0 0 0 0 2 9 10 11 12 2
12 17 17 12 12 0 0 1 0 0 4 4 0 0 0 0
0 0 0 0 0 5 2 0 0 0 0 0 0 0 0 0
0 0 0 0 0 3 4 0 0 0 0 0 0 0 0 0
0 3 3 0 2 1 1 2 0 0 3 33 72 108 130 129
125 123 121 119 122 123 124 125 126 127 121 117 113 109 100 87
81 85 96 100 91 84 40 4 0 0 0 2 1 0 0 0
0 0 0 0 0 0 4 4 0 2 4 6 7 6 5 4
4 4 5 4 8 6 0 0 0 0 0 11 18 21 26 13
11 24 20 20 18 0 0 3 1 0 0 0 0 0 0 0
0 0 0 0 6 0 0 0 0 0 0 0 1 0 0 0
0 0 0 0 0 0 3 0 0 0 0 0 0 0 0 0
0 8 10 0 0 1 0 2 0 0 0 6 45 76 108 124
124 123 121 120 122 124 124 124 125 123 119 114 107 98 88 82
85 96 102 99 88 74 11 4 0 0 0 0 0 0 0 0
0 0 0 0 0 0 4 6 1 0 0 0 0 0 0 0
0 0 0 0 0 1 7 10 8 2 0 2 26 38 37 19
18 19 29 57 59 0 0 3 0 0 0 0 0 0 0 0
8 0 0 3 0 0 0 0 0 0 0 0 0 0 0 0
0 0 0 0 0 0 1 0 0 0 0 0 0 0 0 0
0 26 19 0 1 2 0 0 0 0 0 0 5 48 77 97
119 123 122 119 121 123 125 124 122 120 117 111 103 95 89 87
95 104 104 96 86 47 5 3 0 0 0 0 0 0 0 0
0 0 0 0 0 0 1 1 0 0 0 0 0 0 0 0
0 1 2 6 6 2 0 0 0 2 6 1 13 32 22 9
7 32 50 83 67 0 1 3 0 0 0 0 0 0 0 0
14 2 2 1 0 0 0 0 0 0 1 0 0 0 0 0
0 0 0 0 0 0 0 0 0 0 0 0 0 0 0 0
2 14 14 0 2 3 2 1 0 0 0 0 0 6 53 77
87 113 121 120 119 120 122 123 120 116 112 107 100 93 92 96
105 110 104 92 81 15 8 3 0 0 0 0 2 0 0 0
0 0 0 0 0 0 0 1 2 1 1 2 2 1 0 0
1 4 5 9 14 4 0 0 0 0 0 0 0 0 0 0
2 11 4 52 41 0 0 0 0 0 0 0 0 0 0 0
21 0 2 0 0 0 0 0 0 0 1 0 0 1 0 0
0 0 0 0 0 0 0 0 0 0 0 0 0 0 0 0
1 9 9 2 1 7 2 0 0 0 0 1 0 0 6 51
80 81 103 118 121 123 122 122 119 114 108 103 98 97 99 106
114 112 102 89 60 5 15 1 0 0 0 0 4 0 0 1
0 0 0 0 0 0 0 2 2 1 2 2 1 2 4 3
4 3 1 9 11 3 2 0 0 0 0 0 0 0 0 0
1 3 0 15 11 0 0 0 0 0 0 0 0 0 0 0
9 1 2 0 0 0 0 0 0 0 2 0 0 0 5 1
0 0 0 0 0 0 1 0 0 1 0 0 0 0 0 0
0 3 11 5 0 5 3 0 0 0 0 0 1 0 0 5
44 80 74 85 114 124 124 123 120 110 105 102 99 101 108 115
118 112 96 88 37 19 19 1 0 0 0 0 5 1 0 0
1 0 0 0 0 0 0 0 1 1 3 3 2 3 4 4
5 3 0 8 8 2 4 5 0 0 0 0 0 0 0 0
0 0 0 0 0 0 0 0 0 0 0 0 0 0 0 0
0 0 5 0 0 0 0 0 0 0 0 0 0 0 6 7
0 0 0 0 0 0 1 0 0 1 1 0 0 0 0 0
0 5 7 8 0 5 5 1 0 0 0 0 0 0 0 0
2 26 62 68 78 108 124 122 116 108 103 100 102 109 116 121
121 110 95 85 27 32 17 1 0 0 0 0 4 1 0 0
2 0 0 0 0 0 0 0 1 3 4 2 1 4 4 5
4 1 0 14 10 5 4 12 3 0 0 0 0 0 0 0
0 0 0 0 0 1 1 0 0 0 0 0 0 0 0 0
0 1 1 0 0 0 0 0 0 0 0 0 0 0 1 12
4 0 0 0 0 0 0 0 0 0 3 0 0 0 0 0
0 7 8 10 0 2 11 3 0 0 0 0 0 0 0 0
0 0 7 34 62 75 100 116 114 106 102 104 110 116 123 125
120 107 101 63 33 34 6 0 0 0 0 0 3 3 0 0
2 1 0 0 0 0 0 0 1 4 2 0 2 4 7 7
3 0 0 11 12 9 5 14 11 1 0 0 0 1 0 0
0 0 0 0 0 9 5 0 0 0 0 0 0 0 0 0
0 0 0 0 0 0 0 0 0 0 0 0 0 0 0 7
8 0 0 0 0 1 0 2 1 1 4 0 0 0 0 0
2 10 11 12 2 0 17 3 1 0 0 0 1 1 0 0
0 0 0 2 13 43 74 96 103 101 104 109 115 121 126 126
120 111 89 41 36 16 3 0 1 0 0 0 2 2 0 0
0 3 0 0 0 0 0 0 1 4 0 0 3 7 7 6
1 0 2 15 12 10 7 7 15 5 0 0 0 8 1 0
0 0 0 24 10 0 0 0 0 0 0 1 0 0 0 0
0 0 0 0 0 0 0 0 0 0 0 0 0 0 0 4
10 2 0 0 0 1 0 3 2 3 4 0 0 0 0 0
3 4 1 5 3 0 11 6 0 0 0 0 5 1 0 0
0 0 0 0 1 3 9 34 59 74 94 108 117 123 128 125
110 83 37 18 5 1 1 1 0 0 0 0 0 2 0 0
0 3 0 0 0 0 0 0 0 2 0 0 6 10 6 6
2 0 4 13 12 9 5 2 10 3 0 0 0 12 0 0
0 0 4 31 36 2 0 0 0 0 1 2 0 0 0 0
0 0 0 0 1 0 3 0 0 0 0 0 0 0 0 1
7 3 0 0 1 3 2 3 3 5 5 0 0 0 0 0
0 0 0 0 3 0 4 11 1 0 0 0 5 6 0 0
0 0 0 0 0 1 1 1 5 6 10 13 18 22 20 15
11 7 5 2 2 2 1 1 0 0 0 0 0 3 0 0
0 0 3 0 0 0 0 0 0 0 0 4 10 9 6 4
2 0 3 12 11 9 9 1 5 5 0 0 0 12 0 0
0 23 32 45 62 2 0 0 0 1 3 0 0 0 0 0
0 0 0 2 2 2 1 1 0 0 0 0 0 1 3 2
9 4 0 0 3 2 4 4 3 6 2 2 1 0 0 0
0 0 0 0 3 1 0 5 2 0 0 0 6 5 6 1
0 0 0 0 0 0 0 1 2 3 3 4 4 4 4 4
4 3 2 2 0 2 2 0 0 0 0 0 0 2 0 0
0 0 4 0 0 0 0 0 0 0 0 4 12 8 6 3
1 0 8 14 12 9 8 1 2 2 0 0 1 10 3 1
0 36 25 8 20 0 10 6 2 1 0 0 0 0 0 0
0 0 0 2 2 6 0 6 0 0 0 0 0 1 7 4
9 5 1 0 8 1 4 4 4 3 1 4 3 0 0 0
0 0 0 0 1 0 0 4 2 0 0 0 3 8 5 5
3 1 0 0 0 0 0 0 0 0 3 4 2 2 2 2
3 3 1 1 0 2 1 0 0 0 0 0 0 3 0 0
0 0 3 3 0 0 0 0 0 0 0 8 12 7 4 0
0 0 7 16 13 10 9 2 0 0 0 2 4 19 5 0
0 0 5 0 2 0 2 9 4 1 0 0 0 0 0 0
0 1 0 1 5 15 0 14 0 0 0 0 0 0 7 8
9 5 1 3 11 1 3 3 4 2 2 5 3 0 0 0
0 0 0 0 0 0 0 3 6 0 0 0 1 6 8 5
4 5 1 0 0 0 0 0 0 0 0 1 1 0 0 1
3 1 0 0 0 0 0 0 0 0 0 0 0 9 0 0
0 0 0 10 0 0 0 0 0 0 0 9 11 4 3 0
0 0 7 16 10 9 10 3 1 1 0 4 7 13 8 1
0 0 0 1 1 0 1 6 11 10 1 0 0 0 0 0
1 7 0 1 7 13 3 1 0 0 0 0 0 0 3 9
13 6 2 8 9 1 4 3 3 3 4 4 4 2 0 0
0 0 0 0 0 2 0 0 14 3 0 0 0 6 7 6
6 4 3 1 0 1 0 0 0 0 0 0 0 0 0 0
0 0 0 0 0 0 0 0 0 0 0 0 0 8 0 0
0 0 0 7 4 0 0 0 0 0 0 6 9 3 0 0
0 0 8 17 11 13 10 3 0 2 0 6 11 8 13 1
0 0 0 0 0 0 2 13 17 12 0 0 0 0 0 0
3 26 0 0 12 24 5 0 3 0 0 0 0 0 1 7
14 7 3 16 5 5 7 3 3 2 3 4 4 2 0 0
0 0 0 0 0 1 0 0 14 6 0 0 0 3 8 6
4 4 5 3 3 2 2 1 1 0 0 0 0 0 0 0
0 0 0 0 0 0 0 0 0 0 0 0 0 9 0 0
0 0 0 0 7 1 0 0 0 2 1 1 2 2 0 0
0 0 9 16 13 7 7 7 0 0 0 10 15 7 18 4
0 0 0 0 4 15 20 21 10 0 0 0 0 0 0 0
2 14 2 0 9 40 5 0 2 0 0 0 0 0 0 5
12 7 8 16 4 9 5 2 3 2 3 3 4 3 0 0
0 0 0 0 0 3 0 3 27 7 0 0 0 0 5 7
7 4 2 4 2 2 4 2 2 1 1 0 0 0 0 0
0 0 0 0 1 1 0 0 0 0 0 0 0 8 0 0
0 0 0 0 5 3 0 0 0 1 5 0 0 0 0 0
0 0 11 14 10 4 3 8 0 1 0 3 22 6 11 3
0 0 0 1 24 18 10 2 0 0 0 0 0 0 0 0
2 9 5 0 4 45 9 2 1 3 0 0 0 0 0 1
3 11 17 17 11 12 4 2 2 1 1 2 4 5 0 0
0 0 0 0 0 2 0 10 21 3 0 0 0 0 1 4
5 6 4 3 2 3 2 3 3 4 4 3 0 0 0 2
3 5 4 3 3 0 0 0 0 0 0 0 0 7 0 0
0 0 0 0 8 7 1 0 4 0 10 6 0 0 0 0
0 2 11 15 6 2 3 8 0 3 0 2 25 5 11 0
0 0 0 0 4 0 0 0 0 0 0 0 0 0 0 0
