P2
128 120
151
57 60 62 64 65 62 46 45 45 45 45 44 45 44 45 44
44 43 44 43 43 43 42 42 41 41 41 40 39 39 38 38
38 37 36 36 35 35 35 34 33 33 33 32 32 32 31 31
30 30 29 29 29 28 27 27 26 27 26 25 25 25 26 30
31 32 31 25 20 17 26 28 26 26 25 25 24 24 22 23
22 19 23 24 25 25 25 25 25 25 26 26 26 26 26 27
27 27 27 27 27 27 27 27 28 28 29 29 30 31 31 30
31 31 31 32 32 33 33 33 33 33 33 33 34 33 33 33
52 52 53 54 62 67 54 49 46 45 45 44 44 44 43 44
44 43 43 42 42 42 42 42 41 41 40 40 39 39 39 38
37 37 36 36 36 35 35 35 34 34 33 33 32 31 32 31
30 29 29 29 29 28 28 27 27 26 26 26 26 27 28 31
31 31 31 26 21 21 24 28 27 26 26 25 24 25 22 23
22 18 23 24 25 25 25 26 26 26 26 26 26 27 27 27
27 27 26 27 27 28 28 28 29 29 30 29 30 30 30 30
31 31 31 32 32 32 33 32 32 33 33 33 34 33 34 34
3 3 2 2 37 65 60 64 61 54 47 46 45 45 45 45
44 44 43 43 43 43 42 42 41 41 40 39 39 39 39 39
38 38 37 36 36 36 36 35 35 34 33 33 33 32 32 31
31 31 30 30 29 28 28 28 27 27 26 27 26 26 27 31
32 32 32 28 22 24 24 30 28 27 26 26 25 25 24 24
23 20 25 25 26 26 26 26 26 26 27 26 26 26 27 26
26 27 28 28 29 29 30 30 29 29 30 30 30 30 31 31
32 32 32 33 33 33 34 34 33 33 33 34 33 33 34 33
13 2 0 0 29 62 56 56 43 45 47 49 57 59 59 56
51 45 43 43 43 43 42 42 41 41 40 40 39 39 39 38
39 38 38 37 37 36 36 36 35 34 34 34 33 33 32 32
31 31 31 30 30 29 29 29 28 29 27 27 27 27 28 32
33 33 33 28 23 26 22 29 28 28 27 27 26 27 25 25
25 20 26 26 27 27 27 26 27 27 26 27 27 27 27 28
28 28 28 29 29 29 29 30 29 30 30 31 31 32 31 32
32 33 33 33 33 33 34 33 34 34 34 34 34 34 34 34
12 4 0 0 22 61 55 51 7 2 11 20 32 42 49 56
59 46 43 43 43 43 42 42 42 41 41 40 40 39 40 39
38 38 38 37 37 37 36 36 35 35 34 33 33 33 33 33
32 32 32 31 30 30 29 29 29 28 28 28 27 27 28 31
34 33 33 28 23 27 22 30 29 28 27 27 26 27 25 25
24 21 25 25 27 27 27 27 27 27 27 28 28 28 28 28
28 28 29 29 30 30 30 30 30 30 30 30 31 31 31 32
32 32 32 33 34 34 35 34 34 34 34 35 35 34 35 34
5 2 0 0 17 60 57 50 7 0 0 0 0 0 2 35
58 46 43 43 43 42 42 42 41 41 41 41 40 40 39 39
39 38 38 38 37 37 37 36 35 35 35 34 34 33 32 32
33 32 31 31 31 30 30 31 30 29 29 28 28 28 29 31
34 34 34 30 24 27 22 29 29 29 28 28 27 28 25 26
25 20 25 24 27 28 27 28 28 28 28 29 28 28 29 29
29 30 29 30 30 30 31 30 30 30 31 31 32 32 32 32
32 32 33 33 33 33 34 34 34 34 34 35 34 33 33 34
10 8 0 3 13 59 57 48 7 0 0 0 0 0 0 31
59 47 44 43 43 43 42 42 41 41 41 40 40 39 39 39
39 39 39 38 37 37 37 36 36 35 35 35 34 34 33 33
32 32 32 31 31 32 34 30 30 30 29 30 29 28 29 32
35 34 34 31 24 28 24 30 31 29 29 28 28 29 26 26
25 22 27 27 29 28 29 29 29 28 29 28 29 29 29 29
29 30 30 30 30 30 31 31 32 31 31 31 32 32 32 33
33 33 34 33 34 34 35 34 33 33 33 33 34 34 33 34
0 1 0 3 7 57 56 50 8 0 3 11 1 0 0 29
58 47 43 43 43 43 42 42 41 41 40 41 41 40 40 39
39 39 38 38 37 37 37 36 36 36 35 34 34 33 33 33
34 32 32 32 32 31 33 31 30 30 31 31 29 29 30 32
35 35 34 31 24 29 25 30 30 30 29 28 29 30 27 27
26 23 27 27 29 29 29 29 30 29 29 29 30 29 30 30
30 30 30 30 31 30 31 31 31 32 32 32 32 32 33 33
33 33 34 34 32 32 32 33 33 34 34 35 34 35 35 33
0 2 0 3 6 57 58 52 8 1 13 15 4 0 0 27
57 47 43 43 43 43 42 42 42 41 41 41 40 40 40 40
39 39 39 38 38 37 37 37 36 36 36 35 34 34 34 34
34 34 33 33 32 33 33 33 32 31 32 30 33 34 33 34
36 35 33 32 25 30 27 29 30 30 30 28 28 29 27 27
27 24 27 27 29 29 30 29 29 30 30 30 30 30 29 30
30 30 31 31 30 31 32 32 32 32 32 32 33 33 33 32
33 32 33 33 34 34 35 34 34 34 34 35 35 34 36 34
0 0 0 4 6 52 58 51 9 0 5 9 5 0 0 27
57 46 43 43 43 43 42 42 42 42 42 41 40 40 40 40
40 39 39 39 38 37 37 36 36 35 35 36 35 35 35 36
34 34 33 35 33 36 37 35 34 32 32 29 29 27 28 28
28 29 30 31 24 30 30 29 31 31 30 30 30 29 28 28
27 24 27 27 30 29 30 30 30 30 30 30 30 30 30 31
30 31 31 32 32 32 33 32 32 32 32 32 32 32 33 33
35 34 34 34 35 35 35 35 35 35 35 35 35 34 35 34
4 0 0 0 5 48 57 51 10 0 1 7 12 2 0 27
57 46 43 43 43 42 43 43 42 42 41 40 40 40 40 39
39 40 39 38 38 38 37 38 37 36 36 36 36 36 36 35
36 36 34 36 35 35 36 35 34 34 38 35 31 32 32 30
28 24 22 25 25 31 33 28 32 32 31 31 30 28 28 28
27 25 28 27 31 31 30 30 31 31 31 31 31 31 31 31
31 31 31 32 32 32 31 31 32 32 32 33 33 33 34 34
34 35 35 35 35 35 35 35 35 35 34 35 35 35 36 34
19 19 17 19 20 45 55 54 12 0 3 7 12 4 0 27
56 47 43 43 43 42 42 42 42 42 42 41 41 40 40 40
40 39 39 39 39 39 37 37 37 37 36 36 36 37 37 40
39 35 36 37 36 36 33 35 34 34 35 33 33 35 29 22
20 24 24 25 28 30 33 30 32 32 32 31 30 28 29 28
28 26 28 28 31 32 32 32 31 31 31 31 31 31 32 32
32 32 32 32 32 32 33 33 33 33 33 32 33 33 35 35
35 35 35 36 35 35 35 35 35 35 35 35 35 35 36 33
45 42 41 43 42 39 48 55 13 0 2 6 8 9 6 28
57 47 44 44 43 43 43 43 43 42 42 41 41 41 40 40
40 40 39 40 39 38 39 39 39 38 37 37 37 38 41 39
38 39 39 38 32 37 36 34 33 29 29 29 26 20 19 23
23 26 25 24 30 30 31 29 27 28 27 28 30 28 30 29
28 26 28 28 32 32 32 32 32 32 32 32 32 32 32 32
33 32 32 32 33 33 33 34 33 34 34 34 34 34 35 35
35 35 35 35 36 35 36 35 35 35 36 36 36 35 37 35
33 33 35 36 37 37 42 49 38 28 24 17 13 11 16 37
56 47 43 44 44 43 43 43 43 42 42 41 42 40 41 40
40 40 40 39 39 40 41 39 38 37 37 37 36 39 39 41
41 39 32 30 39 42 39 31 25 25 27 25 23 22 25 29
32 34 29 28 21 20 25 24 27 20 17 18 24 30 30 30
29 28 29 29 32 32 32 32 32 31 31 32 32 31 32 32
33 33 33 34 34 33 33 34 34 34 34 34 35 35 35 36
35 36 36 35 36 36 36 35 35 35 36 35 35 35 36 34
23 25 30 35 39 42 38 37 38 40 42 43 44 43 41 46
52 45 44 44 44 43 43 43 43 42 42 42 42 41 41 41
40 39 39 39 40 39 39 38 38 39 37 38 37 39 38 36
31 25 28 35 42 34 24 24 26 30 27 25 28 29 30 34
35 35 35 30 22 21 22 17 15 15 13 10 11 19 30 30
30 28 28 28 31 31 32 31 32 32 32 33 33 33 33 33
34 33 33 34 33 33 34 34 34 34 35 35 35 35 35 36
35 36 36 36 36 35 35 35 35 36 36 35 36 35 36 35
20 20 21 21 21 22 23 23 25 27 31 35 39 41 43 44
46 44 45 44 44 44 43 44 43 43 42 42 41 40 41 41
40 40 40 39 40 40 39 38 38 38 37 35 39 39 33 24
25 27 33 34 31 25 26 26 27 27 28 28 33 34 37 37
35 33 34 30 25 24 22 20 15 14 9 9 9 7 14 29
30 27 27 29 32 32 32 32 33 33 33 33 32 33 33 33
34 33 34 34 33 34 34 35 34 35 35 34 35 35 35 35
35 35 36 35 36 36 35 35 35 35 36 36 36 36 36 34
19 19 20 19 20 20 20 19 19 20 20 21 23 27 31 36
40 43 44 44 44 43 43 43 42 42 41 42 41 41 40 40
40 39 40 40 39 39 39 38 38 37 38 36 37 35 25 31
28 26 36 28 26 26 30 31 36 38 39 38 39 41 35 31
31 30 27 27 23 25 29 27 25 19 13 11 6 3 1 10
28 28 28 30 32 32 32 32 33 33 33 33 32 32 33 34
34 33 33 33 33 33 33 34 34 34 34 34 35 34 35 35
35 35 35 36 36 36 35 35 35 35 34 33 33 33 33 33
34 34 38 35 33 30 27 23 19 18 19 18 19 18 18 20
21 23 26 29 34 38 40 42 42 42 42 41 41 40 40 40
40 40 40 39 39 39 39 38 38 38 39 37 38 30 27 29
29 33 35 31 37 36 41 45 42 40 40 40 32 29 27 24
24 20 16 15 16 14 13 13 13 17 18 17 15 10 4 1
11 28 28 30 32 33 33 32 32 33 32 32 33 32 33 33
35 33 33 33 33 34 34 33 34 34 34 35 34 34 34 35
34 35 35 35 35 34 34 33 32 33 34 35 35 34 35 34
36 34 38 39 41 49 62 52 27 24 21 20 20 20 19 19
18 18 19 18 18 20 20 21 25 30 40 41 41 41 40 40
40 39 39 39 38 38 38 37 37 39 37 35 34 27 28 28
26 39 38 40 36 42 45 42 40 45 45 46 39 41 35 33
31 27 23 19 19 17 16 16 14 16 14 10 7 2 1 1
2 15 27 30 32 32 32 32 32 32 32 32 32 33 33 33
34 33 33 33 33 33 33 33 33 33 34 34 34 34 34 34
34 33 34 34 34 34 34 34 34 33 33 34 33 33 34 33
0 12 42 39 42 48 61 61 54 51 46 46 47 42 38 32
20 22 19 19 19 19 20 11 11 22 40 41 41 40 40 40
40 40 40 39 39 39 38 38 38 37 37 29 26 35 31 27
39 45 44 45 46 39 43 48 46 52 48 47 53 58 57 52
44 36 31 23 22 22 17 16 19 17 14 15 13 5 2 1
0 1 22 30 31 32 33 33 33 32 33 33 33 33 33 33
33 33 33 34 33 33 34 34 33 34 33 34 34 33 33 33
33 33 34 34 33 34 33 35 33 34 34 34 34 34 34 33
0 12 39 39 41 48 59 61 60 60 56 54 59 59 56 49
28 35 36 30 23 20 18 17 17 21 39 41 41 41 41 39
40 40 40 40 38 39 38 38 39 40 31 21 32 40 33 40
47 44 44 44 41 48 53 52 50 53 55 53 53 57 53 51
45 39 35 33 28 24 19 21 17 15 11 9 6 11 11 8
2 0 9 30 32 33 33 33 33 33 33 33 33 33 33 34
34 34 34 34 34 34 34 34 34 34 34 34 34 33 34 34
34 33 34 34 34 33 33 35 33 33 34 33 34 34 34 34
0 5 11 10 11 32 57 59 57 58 49 52 55 58 59 52
37 44 49 45 47 49 44 28 17 22 40 41 41 41 40 42
51 48 47 43 42 40 39 38 40 34 16 19 41 48 48 55
51 53 49 55 56 56 52 48 47 45 41 42 40 37 43 48
48 45 41 36 30 26 27 27 23 21 15 9 11 7 5 3
6 1 1 25 31 33 33 34 34 34 34 33 34 34 34 33
33 33 33 33 33 34 34 34 35 34 35 34 35 34 35 34
33 33 34 34 34 34 33 35 34 34 35 34 34 34 34 34
0 12 13 2 1 24 59 52 12 28 24 32 39 47 53 52
42 48 51 49 54 56 56 39 18 24 41 42 42 41 40 44
54 52 50 46 45 47 46 41 39 28 17 29 63 74 88 81
74 75 66 65 64 60 62 68 64 65 64 62 59 54 52 53
54 51 43 36 34 37 35 31 28 22 15 10 7 4 3 6
4 3 4 19 32 34 34 34 34 34 33 33 33 34 33 33
34 34 34 34 34 34 34 34 35 33 34 34 34 34 34 33
33 33 34 34 34 33 34 36 34 34 34 34 34 33 34 33
7 25 40 8 0 27 59 52 3 9 1 0 1 6 9 48
45 48 52 53 56 57 58 45 19 25 44 44 44 42 41 44
53 52 48 48 50 53 50 44 44 32 30 60 93 107 113 113
111 99 88 85 84 86 88 90 87 80 77 73 64 61 58 53
46 48 50 49 41 35 31 26 18 12 3 1 1 1 1 0
0 1 2 9 31 33 34 33 33 33 34 34 34 34 33 34
34 34 34 34 34 34 35 35 35 34 35 34 34 34 34 33
34 34 34 33 34 34 33 35 34 34 35 34 34 33 34 34
20 32 39 32 5 21 61 53 3 0 1 0 8 16 10 48
43 48 49 53 55 56 56 47 20 25 46 45 44 45 46 47
32 21 35 45 50 53 50 36 39 45 66 97 113 118 121 125
126 119 120 115 115 116 112 108 109 107 104 98 91 82 78 73
66 61 48 44 46 46 43 38 30 24 16 5 0 0 0 0
0 0 0 5 28 33 34 35 34 34 34 34 35 34 34 34
34 34 34 34 34 35 34 34 36 34 35 35 35 35 34 34
35 34 34 34 34 34 34 35 35 35 34 33 34 34 33 34
21 36 31 22 14 16 61 56 7 0 1 0 16 21 16 48
22 19 30 40 48 51 52 47 21 25 46 46 39 40 49 53
23 0 5 22 26 29 42 38 32 64 98 111 115 120 125 127
129 130 132 129 130 126 128 130 124 117 114 110 103 87 82 81
73 71 72 70 68 72 74 70 55 57 47 26 12 2 0 0
0 0 0 0 12 34 35 34 34 35 35 35 35 35 34 34
34 34 34 35 34 34 34 34 36 35 35 35 34 34 35 35
35 35 34 34 35 34 34 36 36 34 34 34 34 34 34 34
7 26 31 17 3 14 62 59 8 1 2 0 8 11 12 48
14 0 3 6 7 11 17 47 22 22 32 40 46 47 52 55
27 0 3 14 21 19 37 33 40 94 107 114 117 124 126 128
129 131 133 134 136 136 134 135 134 127 124 121 113 98 88 86
84 86 80 85 84 77 77 75 73 68 62 51 39 29 11 0
0 0 0 0 1 26 35 35 34 35 35 35 35 34 34 34
34 34 35 35 34 34 34 34 36 35 35 35 35 34 34 35
35 34 35 35 34 34 35 35 34 34 35 35 34 34 34 34
0 1 2 0 0 13 62 61 10 0 0 0 2 0 6 50
12 2 0 0 0 0 6 45 22 17 1 2 8 17 28 39
29 0 2 10 7 14 32 33 79 103 113 118 124 127 128 130
133 136 136 135 138 136 138 135 137 134 130 124 118 108 98 95
96 97 98 89 84 89 87 79 74 63 61 58 49 42 32 15
1 0 0 0 0 15 36 35 35 35 35 35 35 34 34 34
35 36 35 35 35 35 35 36 36 35 35 35 35 36 36 35
36 36 35 35 36 36 35 36 33 35 35 35 35 35 35 35
0 0 0 0 0 13 62 63 13 0 6 4 15 0 5 49
12 6 1 10 0 0 5 47 22 17 0 0 0 0 0 2
22 0 0 1 0 10 31 57 101 108 117 121 128 127 127 128
135 137 138 141 139 137 139 137 136 136 137 128 120 116 111 98
96 98 96 92 88 84 90 75 68 60 68 63 52 44 36 28
11 0 0 0 0 12 36 35 36 35 35 34 35 34 35 34
35 35 34 34 34 35 36 36 36 35 36 36 36 35 36 36
36 36 36 35 35 35 35 35 36 36 36 36 35 35 35 35
0 0 0 0 0 10 62 64 17 0 16 17 25 2 5 49
13 7 2 19 8 0 4 46 23 17 0 0 0 0 0 0
18 0 0 0 0 11 36 89 105 113 117 123 129 128 129 134
139 141 142 141 140 137 139 138 138 134 136 135 123 115 111 110
104 98 100 84 81 84 83 75 72 64 69 63 52 48 38 31
21 10 3 0 0 5 35 35 35 35 35 35 35 35 35 35
35 35 35 35 36 35 36 36 36 35 36 36 36 36 36 36
36 36 36 35 36 35 35 36 36 35 35 34 35 34 33 35
34 33 31 27 25 31 62 65 23 4 3 3 2 0 4 47
13 6 3 12 9 0 4 46 23 19 0 0 0 3 0 0
16 1 0 0 0 8 44 102 109 114 121 125 126 126 126 137
139 141 142 141 140 140 138 139 141 141 137 133 126 119 119 115
110 105 106 98 85 84 81 74 75 60 63 57 52 47 42 34
23 14 7 1 0 1 33 36 35 35 36 35 35 35 35 35
35 35 35 36 36 36 37 36 36 36 36 36 35 36 37 37
35 36 35 35 36 36 35 35 35 35 36 35 35 35 35 35
57 53 50 46 41 37 36 37 8 0 4 12 6 1 4 46
11 3 4 0 3 0 4 46 22 18 1 4 5 15 0 0
17 7 3 0 0 11 66 106 112 117 124 126 129 129 134 140
143 142 140 139 139 138 136 138 141 142 137 134 133 128 126 118
114 106 103 99 97 85 87 74 70 65 62 54 51 48 45 39
27 20 6 5 0 1 32 36 36 36 36 36 35 36 36 36
36 36 36 36 36 36 36 36 36 36 36 36 36 37 36 37
37 36 37 37 35 35 36 36 36 36 36 35 35 35 35 36
29 32 38 47 50 49 40 35 16 12 9 13 5 0 5 45
9 1 10 0 0 0 5 45 23 18 5 14 5 7 0 0
17 5 0 0 0 16 87 108 113 121 124 125 129 134 138 140
143 142 142 142 141 141 142 143 142 142 139 135 133 130 127 121
112 104 101 102 97 95 87 83 69 67 56 49 44 44 41 38
31 24 13 4 0 0 27 36 36 37 36 36 36 36 36 36
36 35 36 37 36 36 36 36 36 36 36 37 37 37 36 37
37 36 36 36 36 36 36 35 36 36 35 35 34 34 34 36
0 0 1 4 8 25 47 46 52 52 48 51 46 40 38 50
24 9 11 10 8 4 9 45 23 20 10 5 0 3 5 0
24 11 6 8 2 19 98 110 116 119 120 123 128 136 139 140
141 139 143 143 142 142 143 143 142 142 141 138 136 127 127 123
113 111 104 103 98 92 84 83 76 64 57 48 44 46 38 40
33 24 15 6 2 0 22 36 35 36 37 36 36 37 37 37
36 38 37 37 36 37 36 36 36 36 36 37 37 37 36 37
37 36 35 35 34 33 34 34 33 33 34 34 30 29 27 23
0 1 1 0 0 12 60 49 18 24 31 39 43 47 52 57
65 44 39 45 48 45 44 44 23 20 4 0 0 0 0 0
38 52 41 39 36 49 101 111 120 120 123 124 131 136 138 139
138 139 142 143 143 142 143 143 143 140 139 142 139 133 120 121
122 117 107 105 101 97 90 83 74 66 58 55 44 45 38 39
36 27 20 9 4 0 20 35 36 36 36 37 37 37 37 36
37 39 37 36 36 36 37 37 36 36 37 37 37 36 37 36
36 34 36 36 33 32 30 27 24 21 19 18 17 16 16 16
0 0 11 16 2 10 58 51 21 13 21 20 17 6 39 70
67 39 44 54 57 56 56 47 22 20 2 0 0 0 0 0
40 59 50 56 59 74 103 113 120 118 124 127 132 136 139 141
141 142 144 144 144 142 144 144 143 143 141 143 140 133 123 121
120 117 111 106 101 98 97 88 78 67 55 53 49 41 39 41
41 31 21 10 5 4 31 35 36 36 36 35 36 36 36 35
35 38 36 36 36 37 38 37 38 37 37 37 37 35 33 32
30 26 27 36 22 15 16 16 16 17 18 19 20 21 21 22
26 7 24 10 1 8 58 50 8 8 10 5 5 0 41 69
58 37 46 55 56 58 59 49 23 23 21 14 8 3 1 0
40 51 50 58 62 82 104 119 115 118 129 131 135 140 142 144
143 143 143 143 144 143 143 144 144 143 142 143 141 137 132 126
126 117 111 108 102 94 96 88 79 73 59 58 51 49 41 40
38 35 23 13 6 10 33 34 36 35 35 36 36 36 35 35
35 36 36 30 16 37 37 35 33 32 29 25 22 20 18 18
19 18 18 33 20 17 21 23 24 25 25 26 27 27 28 29
31 15 17 16 4 7 57 48 2 2 5 0 0 0 38 65
43 10 16 21 24 29 36 48 24 25 45 55 52 46 39 34
49 42 47 55 60 88 110 123 114 123 132 136 139 143 144 145
145 144 144 144 144 144 144 144 145 144 144 143 138 142 143 136
128 126 120 108 101 96 92 90 82 77 60 55 51 47 43 41
38 36 29 18 8 9 33 37 35 35 34 33 32 32 35 36
35 34 26 5 20 26 24 21 21 19 20 21 21 22 23 24
25 25 23 31 21 23 28 29 29 30 31 31 32 32 31 30
7 0 19 30 9 8 56 47 1 0 0 1 0 0 34 64
44 2 2 0 0 0 7 44 25 25 46 59 58 56 57 58
58 25 20 28 42 97 119 122 116 129 136 140 144 146 145 144
145 145 145 144 144 144 144 144 144 144 144 144 139 142 143 133
127 128 124 111 103 98 92 89 84 80 70 56 53 48 44 39
40 37 35 21 12 6 20 31 32 32 31 31 25 21 28 25
23 16 8 18 22 23 23 24 25 25 26 27 28 29 29 29
31 30 28 31 25 27 31 32 32 33 33 33 34 34 35 35
31 32 34 18 8 11 58 47 4 24 3 0 0 0 27 64
44 1 0 0 0 3 8 42 25 23 42 56 56 56 57 58
56 13 1 2 38 107 125 115 120 134 138 144 145 141 134 135
141 143 144 143 143 142 140 141 141 143 144 144 143 143 141 137
135 134 126 114 100 98 94 90 90 85 74 65 62 54 47 43
45 33 26 18 12 8 11 24 27 25 23 22 21 20 22 22
12 18 18 28 28 29 30 31 31 31 32 32 33 33 33 33
34 32 26 10 9 28 34 35 34 35 33 34 35 35 35 34
20 52 50 19 2 11 61 52 9 33 4 0 0 0 21 60
41 0 0 0 11 34 32 37 35 30 36 41 43 45 45 51
51 8 0 0 50 107 120 110 115 131 140 139 133 128 119 121
127 129 137 136 136 138 138 140 140 144 144 142 142 140 142 141
138 135 124 116 105 95 95 88 86 84 80 67 66 63 53 50
48 46 36 27 13 8 16 9 22 24 25 25 27 27 28 16
26 23 28 33 34 33 33 34 34 34 34 34 34 33 34 35
34 33 24 4 2 24 34 36 37 35 35 35 36 35 36 36
8 44 44 18 3 10 61 54 4 20 8 0 0 0 19 55
36 0 0 0 10 34 34 32 32 27 28 28 33 40 37 47
50 7 0 1 55 98 114 102 105 121 129 121 112 101 102 98
101 101 90 91 102 115 125 135 139 142 144 143 142 137 139 140
136 130 126 119 109 98 93 91 89 84 77 69 69 71 60 54
51 46 39 27 15 7 23 14 19 29 29 31 32 32 22 26
34 31 14 20 21 18 13 20 35 36 35 34 23 5 6 11
11 12 19 7 2 22 35 36 37 36 36 36 35 36 35 36
0 35 33 13 3 10 62 54 4 3 3 0 0 0 22 56
34 0 4 0 2 15 18 29 28 27 29 32 36 41 41 50
49 8 0 9 52 85 103 99 98 101 93 63 52 55 57 50
59 69 67 74 91 94 99 103 117 132 139 141 144 142 142 141
141 141 133 115 108 105 95 90 86 85 80 72 84 81 69 64
60 49 42 32 17 11 28 29 12 32 33 34 34 32 22 33
32 36 6 2 0 0 2 18 25 18 5 5 1 6 1 0
0 0 5 0 0 23 35 36 37 35 35 36 36 35 36 36
3 20 24 2 0 9 61 53 4 0 0 0 0 0 25 58
33 0 4 1 0 0 1 28 24 27 18 11 16 23 30 35
41 8 0 19 36 60 84 92 86 75 53 36 23 21 21 28
37 50 65 88 101 103 109 116 115 125 132 141 144 143 143 140
139 140 130 117 109 107 100 95 92 93 89 92 104 102 118 117
112 99 49 33 19 13 19 34 23 25 35 34 35 19 14 3
2 43 18 0 0 0 0 0 0 0 0 0 0 0 11 0
0 0 1 1 0 22 35 35 37 36 36 36 36 36 36 36
26 9 6 6 15 20 57 50 3 0 0 0 0 0 28 59
34 0 2 10 2 0 1 32 32 32 14 0 0 0 0 0
18 8 0 14 25 45 72 83 81 67 53 45 35 27 39 59
74 89 94 99 106 113 119 122 127 130 138 140 143 143 143 142
139 135 134 122 111 108 100 99 96 99 96 106 99 131 112 101
109 114 111 40 20 16 17 27 31 21 34 35 26 3 11 12
2 5 2 0 0 0 0 0 0 0 0 0 0 0 6 0
0 0 2 7 1 25 36 36 37 36 37 36 35 36 35 35
0 7 6 15 52 53 54 48 25 19 15 10 8 4 31 58
34 0 0 7 7 0 0 36 37 32 17 0 0 2 0 0
14 8 0 11 14 26 51 70 83 71 62 59 56 48 37 37
52 74 83 86 88 97 109 118 126 132 135 140 143 144 145 142
138 133 134 121 117 112 100 95 99 101 115 110 134 122 115 123
134 133 133 99 18 13 19 18 31 23 33 35 16 20 36 15
18 24 18 17 17 17 16 12 9 11 1 0 0 0 0 0
0 0 6 17 10 29 36 36 37 36 36 35 35 36 36 36
10 34 44 34 56 59 58 50 56 53 43 41 50 43 45 50
39 8 0 5 16 8 0 34 38 31 17 0 2 11 3 0
12 9 0 9 20 38 34 58 98 103 103 105 98 89 74 63
65 85 99 107 104 92 90 104 119 129 140 144 143 144 143 143
136 133 131 120 117 112 103 99 99 116 138 141 135 104 127 142
143 143 141 140 58 15 19 14 23 28 30 24 11 24 22 32
37 37 37 37 37 37 37 36 19 16 1 0 0 0 0 1
0 2 20 26 26 33 36 36 37 36 36 36 35 35 35 35
50 48 57 56 55 59 60 58 32 22 15 16 22 25 25 46
45 37 28 25 33 29 20 40 36 28 17 0 9 24 12 2
10 17 8 24 43 56 39 61 119 145 143 127 109 104 83 55
34 33 78 76 82 94 103 107 115 126 138 144 145 144 144 143
138 135 130 122 121 116 110 100 109 134 143 144 121 95 129 144
143 143 143 141 116 17 19 13 13 30 27 12 31 30 37 37
37 37 37 37 37 37 37 31 8 0 0 0 0 0 31 33
32 31 29 29 31 35 35 35 36 36 36 36 35 36 36 36
46 33 53 49 35 40 46 52 12 0 0 0 10 21 15 47
46 34 28 35 44 50 53 54 44 27 18 0 12 23 12 3
11 45 44 48 45 44 61 75 127 147 146 138 117 103 92 66
44 38 118 107 77 80 101 113 118 128 141 145 145 144 144 143
137 135 126 125 122 117 114 106 118 139 143 142 128 112 132 144
143 142 142 139 138 52 17 13 11 24 24 26 37 36 37 36
37 36 36 37 37 36 36 27 0 0 8 4 0 0 33 35
34 34 32 32 35 36 36 36 37 36 36 36 36 35 35 35
27 2 23 17 2 0 2 41 14 0 2 5 8 19 26 49
47 20 1 3 13 16 45 54 43 27 21 1 6 7 5 1
10 47 49 53 46 20 13 64 141 147 146 142 129 124 116 74
69 64 89 96 115 114 118 126 135 140 145 144 144 144 144 144
141 139 132 129 122 114 113 109 118 138 143 138 135 135 143 143
143 139 140 140 141 76 12 14 10 21 28 34 36 37 38 37
37 37 37 36 37 36 36 28 0 0 6 6 0 0 31 35
35 34 33 34 35 35 35 35 35 35 36 35 36 34 35 35
23 0 0 4 1 0 0 41 16 0 15 40 24 14 20 51
47 15 1 11 31 17 47 52 38 28 28 16 4 6 3 0
9 47 48 51 46 36 29 106 143 143 144 140 131 133 122 92
81 88 100 107 116 124 129 136 142 145 144 144 144 144 144 140
140 136 135 128 120 115 110 104 114 131 135 123 114 144 143 143
143 133 137 142 142 72 6 12 9 18 26 31 36 37 37 37
37 36 37 37 37 37 37 29 0 0 0 1 0 0 30 36
36 34 34 35 36 36 36 36 36 36 36 36 35 35 35 35
9 3 0 9 9 0 0 40 17 6 34 42 12 2 16 54
49 12 1 8 33 33 49 49 31 30 29 12 1 5 2 0
8 45 43 46 46 43 70 136 143 142 142 140 134 132 118 98
92 97 104 115 123 133 138 140 143 144 145 144 145 144 144 141
141 137 134 128 118 114 113 103 112 126 127 107 48 106 143 143
142 132 135 143 140 39 2 9 9 19 24 26 37 37 38 38
37 37 37 36 36 36 35 27 0 0 0 0 0 0 27 36
35 35 36 37 37 36 36 36 36 36 36 35 35 35 35 35
42 43 39 42 20 0 0 40 20 5 24 49 11 0 14 55
50 11 1 1 10 22 50 50 31 32 30 10 2 5 2 0
8 48 43 43 44 48 112 141 144 137 140 137 136 133 121 112
107 115 123 130 137 141 142 143 145 145 145 145 144 144 144 144
140 139 132 127 119 115 109 107 114 132 127 119 89 63 111 137
143 134 132 143 124 11 0 2 7 21 26 23 36 37 36 37
37 37 36 34 18 9 6 6 0 0 0 0 0 0 26 36
36 36 37 36 36 36 35 36 35 36 36 35 36 35 35 35
17 9 12 13 6 0 0 39 18 0 12 31 7 7 16 57
52 13 0 0 0 10 48 49 31 30 31 39 39 33 32 31
32 53 46 45 46 69 128 140 142 139 143 142 139 137 134 124
119 121 126 132 137 140 143 144 145 144 144 145 144 144 145 144
143 138 131 121 120 112 107 106 116 138 133 109 123 134 125 126
144 139 135 142 89 3 0 0 3 16 23 22 32 37 37 38
38 37 37 30 8 17 2 3 0 0 0 1 1 0 22 36
36 36 36 36 37 36 36 36 36 36 35 35 35 35 35 34
12 0 0 0 0 0 0 37 17 0 0 0 1 5 14 55
51 11 0 0 0 7 48 51 31 32 35 56 60 58 59 61
61 59 49 45 47 91 136 145 146 144 144 145 142 142 141 135
126 124 127 130 138 143 145 145 146 145 144 144 144 144 143 141
140 136 127 119 118 110 105 106 117 141 135 105 117 141 141 130
139 137 138 136 40 1 0 0 1 15 22 24 27 36 37 36
37 36 37 38 44 41 22 17 0 0 0 0 0 0 7 24
36 36 36 36 36 35 36 35 35 35 36 35 36 34 35 35
19 0 0 0 0 0 0 36 19 0 0 0 0 0 12 55
50 9 0 0 0 6 47 52 29 31 34 57 61 60 60 61
62 61 36 28 31 115 145 146 145 146 146 145 145 142 142 141
136 129 130 134 142 145 144 143 145 144 145 145 145 144 141 141
137 131 124 115 115 106 107 106 118 141 135 115 115 136 143 132
137 135 142 95 12 0 0 0 0 8 22 22 25 36 37 37
37 36 37 34 32 32 8 2 0 0 0 0 0 0 10 5
15 27 36 37 36 36 37 36 35 35 35 35 34 34 34 34
28 0 0 0 0 0 0 35 17 0 0 0 0 0 10 54
50 8 0 0 0 4 44 49 27 32 29 36 38 39 40 41
42 45 19 2 44 136 139 144 145 145 146 146 145 145 145 142
137 134 136 139 142 145 145 144 145 145 145 145 145 145 138 135
134 123 118 113 115 106 110 110 116 137 130 129 128 135 144 130
139 130 131 33 6 0 0 0 0 5 19 17 27 34 36 36
34 30 29 23 6 3 1 0 0 0 0 0 0 0 2 6
1 18 37 37 36 36 35 36 36 36 35 35 36 34 35 34
24 0 0 0 0 0 0 33 17 0 0 0 0 0 10 54
52 10 0 0 0 3 42 49 26 31 29 39 42 41 40 39
39 41 21 15 103 141 141 141 138 138 144 145 146 146 146 143
138 136 139 143 144 144 146 146 145 145 142 144 144 144 137 132
129 121 118 118 115 111 112 112 112 130 123 126 126 136 139 139
128 136 85 15 4 0 0 0 0 2 15 18 25 33 23 11
10 10 9 5 0 1 0 0 0 0 0 0 1 0 2 6
2 14 37 37 38 36 36 37 36 36 35 35 34 34 35 34
0 0 0 0 0 0 0 32 24 6 7 9 14 17 26 55
51 11 0 0 0 3 46 54 27 30 30 42 46 46 46 45
46 45 22 41 135 142 139 138 142 132 135 138 146 144 146 143
140 139 140 144 141 143 145 145 145 145 141 139 142 142 138 127
127 121 118 115 110 113 108 109 111 124 114 116 129 138 135 128
135 129 34 15 4 1 0 0 0 1 7 15 23 28 14 4
5 3 2 2 1 8 5 3 0 0 0 0 1 0 1 6
3 11 37 37 37 37 36 36 35 35 35 35 35 35 35 35
19 18 18 15 13 13 13 38 46 43 45 47 50 52 53 47
36 17 10 7 5 6 45 50 27 30 31 43 47 47 46 47
49 49 22 71 142 145 138 134 133 128 130 133 133 137 145 141
140 140 142 145 145 145 144 145 144 143 143 142 139 136 134 126
121 119 112 113 113 110 105 108 105 119 143 143 139 125 124 138
140 77 18 7 3 4 0 0 0 0 4 12 18 29 16 6
7 8 9 8 7 5 4 12 3 0 0 0 0 0 1 6
3 11 35 37 36 36 36 36 35 34 34 34 34 34 33 33
54 54 52 51 48 49 51 53 51 48 50 51 51 51 51 48
46 46 44 42 39 36 46 45 39 40 41 42 45 44 45 45
46 47 30 92 144 146 144 142 142 142 139 134 128 134 135 137
139 140 138 142 145 145 141 140 139 139 141 141 134 134 126 117
116 115 113 114 111 108 105 102 95 116 135 139 136 137 137 141
106 30 16 1 0 2 0 0 0 0 0 6 11 23 20 12
10 10 10 9 3 1 3 12 7 0 0 0 0 0 1 5
6 11 32 34 35 34 35 34 35 33 33 35 35 35 33 29
58 57 59 56 56 58 59 49 37 37 46 47 46 47 46 46
46 45 46 45 45 44 43 43 43 42 42 42 43 42 42 42
42 42 37 88 138 133 124 125 125 130 141 140 124 113 126 129
135 140 139 141 143 142 141 137 139 135 139 139 133 130 125 119
118 116 113 108 108 106 105 96 86 117 143 141 142 138 128 111
60 21 11 0 0 0 1 0 0 0 0 2 6 14 17 8
4 2 4 9 7 1 4 6 2 0 0 1 6 1 0 4
13 15 30 36 36 36 36 35 34 35 34 34 34 23 4 5
58 54 56 54 54 58 53 30 27 33 45 47 47 46 46 46
45 45 45 44 44 44 43 43 43 42 42 42 42 42 42 41
41 41 38 46 112 115 104 76 38 22 84 119 115 99 127 128
131 138 138 142 134 127 140 137 141 140 135 132 130 129 122 121
119 114 111 108 110 105 104 90 83 94 142 139 134 126 97 72
40 12 2 0 0 0 0 0 0 0 0 0 2 8 15 6
0 0 5 10 10 6 5 5 0 0 0 0 1 0 0 7
7 9 30 36 37 36 36 36 36 36 35 34 34 20 0 4
28 29 27 25 25 32 30 26 28 31 44 46 42 37 36 35
34 33 32 31 30 29 28 27 26 26 26 25 25 25 25 26
33 39 38 10 52 89 95 93 111 88 94 102 98 104 135 131
127 137 139 134 134 128 135 139 139 140 136 136 131 128 120 118
119 114 111 111 103 104 101 88 84 56 115 126 109 90 81 67
25 2 0 0 0 0 0 0 0 0 0 0 0 6 12 8
0 0 8 10 9 7 7 6 7 7 9 9 9 10 13 17
18 16 24 25 23 21 23 34 35 35 34 34 34 16 0 0
0 2 0 0 0 11 6 26 28 31 43 45 32 8 3 2
2 1 1 1 0 0 0 0 0 0 0 0 0 0 0 1
29 42 38 12 2 24 73 98 116 131 128 109 114 131 141 137
124 130 137 138 134 130 135 138 134 135 136 136 131 127 122 121
121 118 114 112 101 104 97 83 81 60 34 76 88 92 85 64
18 0 0 0 0 0 0 0 0 0 0 0 0 2 5 10
0 0 10 11 11 8 31 17 20 23 27 24 20 25 23 20
20 16 13 35 33 13 16 32 35 35 34 34 33 14 0 0
0 2 1 1 0 13 16 26 27 30 42 45 35 9 0 0
0 0 0 0 0 0 0 0 0 0 0 0 0 0 0 0
29 44 39 37 32 34 87 84 109 129 131 126 131 138 140 140
128 134 140 143 136 124 129 138 137 138 133 133 127 122 127 124
120 116 113 110 104 104 94 83 78 81 82 97 97 94 84 60
10 2 0 0 0 0 0 0 0 0 0 1 0 2 2 6
1 2 11 8 9 9 26 15 21 27 31 48 44 61 62 66
32 17 25 76 81 7 12 32 35 35 19 11 9 3 0 0
0 2 0 4 14 21 20 24 25 29 40 45 38 13 0 0
0 0 0 1 1 1 1 0 0 0 0 0 0 0 0 1
23 44 39 42 44 46 77 90 103 126 134 133 130 134 138 141
126 134 142 145 143 137 129 137 138 134 124 129 122 120 123 123
121 119 113 107 104 103 97 84 77 85 96 99 99 94 85 58
7 7 0 0 0 0 0 0 0 5 4 0 0 3 2 3
2 4 11 10 11 7 22 15 24 29 36 89 69 92 89 94
39 16 61 113 118 52 11 30 34 30 0 0 0 0 0 0
0 2 8 20 21 21 20 25 26 29 39 45 39 16 0 0
0 0 0 1 1 1 1 1 0 1 1 0 0 0 0 1
20 46 39 38 40 43 71 91 103 120 132 131 130 133 138 140
137 140 145 144 142 139 139 137 140 134 130 130 121 122 128 126
123 121 115 110 104 101 95 78 72 85 95 100 101 95 84 52
8 6 0 0 0 0 1 1 6 5 0 0 0 2 4 0
1 6 11 10 13 4 22 23 28 33 32 62 49 54 49 46
31 24 48 56 41 31 20 26 35 27 0 0 0 0 0 0
0 0 12 21 21 22 20 25 27 29 38 45 41 20 0 0
0 1 1 1 1 1 1 1 1 0 0 0 0 0 0 0
17 46 40 36 34 35 65 96 105 107 124 127 128 132 138 134
139 145 145 145 142 140 136 135 134 130 134 134 123 125 128 125
122 121 120 113 100 99 95 73 74 86 97 102 100 95 85 49
2 2 2 0 1 4 9 12 13 2 0 0 0 0 1 3
2 10 11 12 15 2 5 28 33 36 24 25 26 22 18 22
22 23 23 23 22 22 20 25 35 33 8 0 0 0 0 0
0 0 9 20 21 22 20 24 26 28 36 44 41 24 1 0
0 0 0 0 1 1 1 1 1 0 1 0 0 0 0 0
12 44 39 31 13 13 55 111 103 107 127 126 128 136 140 129
136 143 145 143 144 140 135 134 130 132 134 134 134 119 123 125
122 119 117 112 99 94 93 66 71 88 99 102 100 97 85 49
0 0 0 0 1 10 18 22 10 0 0 0 0 0 0 2
2 12 12 13 13 0 7 26 31 35 23 25 21 22 15 15
18 24 23 23 23 22 20 24 35 34 25 3 0 0 0 0
0 0 9 20 21 22 19 24 25 28 35 44 41 26 1 0
0 0 0 0 0 0 0 0 0 0 0 0 0 0 0 0
9 43 39 30 2 0 39 101 101 106 107 107 123 137 139 136
137 140 142 137 134 131 134 134 129 130 125 132 124 127 124 122
122 120 114 112 104 97 81 59 70 91 100 102 102 96 84 49
0 0 0 1 10 20 30 26 13 3 0 0 0 0 0 1
6 12 11 14 7 0 0 2 17 35 23 24 15 15 14 17
19 25 25 24 22 22 18 19 29 13 14 0 0 0 0 0
0 0 10 20 21 22 20 23 25 27 33 44 42 28 2 0
0 0 0 0 0 0 0 0 0 0 0 0 0 0 0 0
6 42 39 31 2 0 19 60 72 78 84 81 83 96 117 123
125 134 138 132 138 136 137 133 125 131 127 129 130 126 124 124
122 118 114 110 101 93 74 57 71 91 102 103 103 98 86 51
0 0 0 4 21 22 24 23 19 8 3 0 0 0 0 2
8 12 10 11 4 0 0 0 19 32 23 24 13 19 16 17
21 25 24 24 22 21 18 11 7 0 0 8 0 0 0 0
0 0 11 20 21 22 20 23 24 27 33 43 42 30 4 0
0 0 0 0 0 0 0 0 0 0 0 0 0 0 0 0
4 40 39 32 3 0 15 52 51 61 66 69 76 81 78 84
100 115 132 135 141 139 132 133 128 129 127 129 114 120 124 123
121 118 112 107 95 87 73 61 71 94 103 104 103 98 86 51
0 0 0 20 29 15 17 24 26 15 4 0 0 0 0 1
9 11 11 11 2 0 5 6 28 32 25 23 12 19 16 15
21 24 24 24 22 21 19 1 0 0 0 0 0 0 0 0
2 0 9 19 20 20 19 22 24 26 32 43 42 31 5 0
0 0 0 0 0 0 0 0 0 0 0 0 0 0 0 0
2 37 40 31 4 0 6 70 71 80 90 100 114 116 109 93
93 112 127 133 134 131 126 125 127 123 125 125 121 120 123 122
119 115 109 99 90 82 74 63 76 97 105 103 103 98 87 54
0 0 3 17 17 16 16 12 15 10 1 0 0 0 0 0
10 12 11 11 0 1 14 8 33 29 24 21 9 15 15 14
22 24 23 23 22 21 20 1 0 0 10 0 0 0 0 0
17 9 15 18 19 20 19 21 24 26 30 42 41 30 6 0
0 0 0 0 0 0 0 0 0 0 0 0 0 0 0 0
1 33 40 31 6 0 1 65 96 100 107 117 117 115 111 112
126 123 120 124 132 128 122 122 119 123 119 120 124 120 120 121
116 112 103 93 87 78 68 66 86 101 102 100 104 100 89 59
2 0 2 7 6 4 3 5 7 4 0 0 0 0 0 2
11 10 11 9 0 4 12 6 35 28 21 9 2 9 16 13
23 23 22 22 22 22 20 0 0 3 8 0 0 0 0 0
49 35 25 16 19 20 18 20 23 25 30 41 41 31 7 0
0 0 0 0 0 0 0 0 0 0 0 0 0 0 0 0
0 32 40 32 8 0 2 61 95 94 107 106 106 111 118 124
127 125 119 121 123 123 119 116 116 125 124 121 119 116 115 112
106 103 97 88 79 70 59 77 92 101 101 104 105 102 91 66
3 0 2 0 0 4 11 20 28 15 5 0 0 0 0 4
12 11 12 8 0 2 4 11 37 26 15 5 1 8 12 13
22 23 23 22 23 23 21 3 4 7 7 5 4 2 1 0
25 4 7 17 19 19 18 20 23 25 28 41 41 32 8 0
0 0 0 0 0 0 0 0 0 0 0 0 0 0 0 0
0 29 40 33 13 0 3 36 71 73 80 88 95 99 107 117
120 124 122 120 119 119 118 113 116 120 121 118 114 112 113 108
102 95 88 75 69 61 62 86 92 97 101 106 108 103 93 72
7 0 7 0 8 18 15 19 28 22 9 0 0 0 0 3
10 10 12 5 0 28 27 21 35 26 15 4 0 8 12 14
22 23 23 22 23 23 23 4 7 8 7 5 3 2 1 0
21 0 1 16 18 19 17 18 23 24 27 40 41 33 10 0
0 0 0 0 0 0 0 0 0 0 0 0 0 0 0 0
0 27 40 32 14 0 5 20 42 40 44 52 65 82 100 109
112 116 114 116 115 118 116 115 114 118 120 116 111 111 107 103
90 81 77 63 57 57 78 88 89 91 105 110 110 103 95 78
19 1 8 0 5 14 9 12 23 15 7 2 0 0 1 6
11 12 11 2 7 68 38 22 34 25 14 3 7 11 12 14
22 24 23 22 23 24 23 4 0 0 0 0 0 0 0 0
23 0 0 14 17 17 17 17 22 23 26 38 40 33 10 0
0 0 0 0 0 0 0 0 0 0 0 0 0 0 0 0
0 25 40 32 23 13 18 28 48 73 80 91 97 97 104 109
111 112 108 107 109 114 116 119 122 120 115 114 111 108 99 91
78 67 59 50 55 70 79 88 92 99 112 114 109 103 96 82
35 7 8 1 0 0 0 4 9 7 2 0 0 0 2 8
9 13 11 0 9 48 19 27 32 25 18 12 9 16 13 17
25 25 23 22 22 23 22 4 0 0 0 0 0 0 0 0
25 0 0 13 16 17 16 16 20 22 26 38 40 33 11 0
0 0 0 0 0 0 0 0 0 0 0 0 0 0 0 0
0 23 40 33 39 49 50 51 51 71 83 105 117 120 113 113
111 114 111 102 107 114 117 120 120 120 121 116 107 102 97 77
64 52 52 61 69 77 79 89 100 111 116 112 107 103 97 86
46 15 12 0 1 10 7 12 7 3 1 1 0 3 6 7
10 12 8 0 0 11 14 32 29 26 20 15 10 15 14 19
26 25 22 22 23 22 21 5 0 0 0 0 0 0 0 6
32 9 5 14 16 17 16 16 20 21 25 37 40 34 12 0
0 0 0 0 0 0 0 0 0 0 0 0 0 0 0 0
0 21 40 32 42 54 54 54 54 68 86 106 124 132 135 126
119 119 113 110 105 111 109 108 113 116 112 109 100 90 79 64
55 56 67 67 71 82 81 96 107 117 105 107 107 104 97 89
54 25 15 0 0 2 5 8 13 8 3 0 0 1 11 10
11 12 5 0 0 3 11 38 28 26 23 14 11 16 16 20
25 25 22 22 23 22 21 5 0 0 0 0 0 0 0 1
35 33 30 25 14 14 15 15 19 21 24 36 39 33 12 0
0 0 0 0 0 0 0 0 0 0 0 0 0 0 0 0
0 21 40 32 33 36 35 33 32 63 90 108 124 128 137 132
129 124 111 115 110 107 111 107 113 111 107 97 87 70 55 48
57 64 69 73 77 84 93 108 108 117 113 113 110 107 100 91
61 27 23 0 0 0 0 0 0 0 0 0 0 0 8 14
13 13 3 0 0 3 18 38 27 26 22 14 10 16 15 20
25 24 23 22 23 22 22 6 0 0 0 0 0 0 0 0
17 7 5 6 7 8 9 11 19 21 24 36 39 33 12 0
0 0 0 0 0 0 0 0 0 0 0 0 0 0 0 0
0 21 40 31 24 18 18 18 19 60 94 102 125 132 133 128
124 122 112 109 109 107 107 98 101 101 95 77 65 51 50 60
69 70 74 79 87 95 107 118 115 123 119 118 112 109 101 93
68 29 26 2 0 0 0 0 0 0 0 0 0 0 5 11
14 16 1 0 5 6 24 35 27 26 22 13 11 17 17 23
25 25 24 24 24 23 23 6 0 0 0 0 0 0 0 0
21 2 0 2 7 7 7 9 19 21 24 35 39 34 13 0
0 0 0 0 0 0 0 0 0 0 0 0 0 0 0 0
0 22 40 32 26 21 21 21 22 56 93 95 115 126 128 128
120 118 110 108 109 107 100 92 97 86 73 59 54 55 63 69
73 77 81 88 94 106 118 125 129 125 122 117 115 108 102 96
76 29 18 0 1 0 0 0 0 0 0 0 0 0 2 9
13 13 0 0 19 25 33 34 27 27 20 13 11 15 18 24
26 25 24 24 25 24 24 6 0 0 0 0 0 0 0 0
22 3 0 1 5 7 11 13 18 21 24 35 39 35 14 0
0 0 0 0 0 0 0 0 0 0 0 0 0 0 0 0
0 25 42 32 28 26 25 25 25 44 87 92 107 119 120 113
117 113 105 106 98 93 86 90 80 65 53 52 59 66 74 73
80 90 95 102 107 118 123 127 126 124 121 114 114 110 105 100
86 30 15 0 0 0 0 0 0 0 0 0 0 2 3 10
15 5 0 23 43 16 37 32 28 27 14 7 13 13 17 23
27 26 25 25 26 24 23 7 0 0 0 0 0 0 9 0
21 3 0 0 1 7 13 15 19 20 23 32 38 33 14 0
0 0 0 1 1 2 3 5 6 8 10 12 13 15 18 20
22 31 35 31 28 27 27 27 27 31 73 82 93 107 106 105
104 101 101 98 91 78 75 65 60 51 52 53 60 71 77 85
94 105 108 109 114 118 124 124 121 123 120 117 115 111 108 101
91 42 7 0 0 0 0 0 0 0 0 0 0 0 3 4
9 12 8 94 138 29 39 29 28 26 17 16 12 9 17 23
26 26 26 25 25 24 22 7 0 0 0 0 0 1 17 0
11 1 0 1 2 3 13 14 18 19 21 31 38 35 26 17
19 21 23 25 26 28 29 29 31 31 32 32 32 32 32 31
31 30 29 29 28 26 26 26 26 25 50 69 72 89 100 94
92 88 85 79 73 62 54 49 47 47 47 55 65 79 97 104
106 110 109 112 117 123 124 120 124 124 121 118 116 113 110 102
94 69 14 0 0 0 0 0 0 0 0 0 0 0 0 1
1 1 10 88 131 23 40 27 27 24 11 9 2 5 17 19
18 20 23 24 24 23 24 9 0 0 0 0 0 12 16 0
4 6 0 1 4 0 12 13 16 18 21 31 37 37 37 36
32 35 37 36 35 34 34 33 34 33 33 32 32 31 31 29
30 29 29 29 27 27 27 26 26 25 26 45 51 60 65 76
76 63 59 50 38 34 35 36 35 36 42 59 72 96 109 111
108 109 110 109 118 123 123 122 123 124 123 119 116 114 112 105
95 93 56 0 0 1 0 0 2 0 0 0 0 0 0 3
2 0 0 3 21 17 40 22 7 3 0 0 3 0 0 4
21 28 23 21 19 19 24 10 0 0 0 0 0 18 9 0
7 6 1 1 0 0 4 5 12 16 20 29 37 37 38 37
29 34 35 35 35 34 34 34 36 36 24 20 25 28 25 15
26 26 25 25 27 27 26 27 26 25 24 25 27 23 23 28
27 23 16 15 15 17 18 22 28 35 46 68 87 108 114 105
96 106 106 108 118 124 123 123 125 124 124 119 118 118 115 107
100 98 72 4 4 2 0 0 2 1 0 0 0 0 0 1
3 1 0 0 0 4 13 13 1 0 0 0 0 0 0 0
12 25 10 18 17 15 21 11 0 0 0 0 0 5 0 0
2 0 0 0 0 0 2 6 12 14 17 28 36 36 36 35
31 31 31 32 31 30 30 47 63 34 1 0 1 3 3 0
6 18 19 17 14 10 10 15 25 26 24 16 4 3 12 9
5 12 16 3 29 12 7 9 16 32 57 87 104 112 107 95
87 106 108 109 117 120 126 126 125 126 122 122 121 118 116 110
103 101 76 12 7 2 0 0 0 0 0 0 0 0 0 0
1 0 0 0 0 0 0 3 6 1 0 0 0 0 0 0
2 21 6 17 15 7 8 12 12 5 0 0 0 0 0 0
0 0 0 0 0 0 0 1 2 5 8 12 17 15 14 12
10 9 9 11 16 18 42 74 46 5 0 0 0 0 0 0
0 0 0 0 0 0 0 0 11 22 7 4 20 4 0 3
9 9 2 5 41 46 10 10 23 55 82 102 109 114 106 98
101 105 106 113 117 121 127 129 129 127 125 123 120 120 119 113
107 106 76 18 11 2 0 0 1 0 0 0 0 0 0 0
0 0 0 0 0 0 0 0 0 6 7 1 0 0 0 0
0 13 7 15 13 13 14 1 4 0 0 0 0 0 0 0
0 0 0 0 0 0 0 0 0 0 0 0 0 0 0 0
2 5 5 5 20 27 66 61 12 0 0 0 0 0 0 0
0 0 0 0 0 0 0 0 2 5 9 19 10 0 1 1
0 0 2 1 35 80 55 36 52 75 95 106 107 108 110 105
103 102 106 113 118 119 126 128 130 129 126 124 122 120 119 116
111 109 75 24 15 2 0 0 2 0 0 0 0 0 0 0
0 0 0 1 0 0 0 0 0 0 1 8 9 2 2 3
2 6 13 7 0 0 0 0 0 0 0 0 0 0 0 0
3 0 0 0 0 0 0 0 0 3 0 0 0 0 0 1
9 15 13 11 19 45 66 32 2 0 0 0 0 0 0 0
0 0 0 0 0 0 0 3 7 6 11 1 0 0 0 1
0 0 2 0 23 89 89 76 66 76 94 103 111 111 110 107
107 108 111 118 121 123 131 131 128 128 125 125 122 120 120 117
115 113 70 30 18 2 0 0 4 0 0 0 0 0 0 0
0 0 3 3 0 0 0 0 0 0 0 0 3 7 7 2
0 0 0 0 0 0 0 0 0 0 0 0 0 0 0 0
15 4 0 0 0 0 0 0 0 4 6 4 3 0 0 0
6 15 14 11 11 61 52 4 0 9 15 0 0 0 0 0
0 0 0 0 0 1 4 5 7 3 4 0 0 0 1 0
0 0 3 0 11 87 92 92 75 71 85 101 107 109 109 109
111 112 114 117 117 118 128 129 129 126 125 124 122 121 121 120
119 117 66 34 20 2 0 0 2 0 0 0 0 0 2 0
1 2 2 2 0 0 0 0 0 0 0 0 0 0 0 1
2 1 0 0 0 0 0 0 0 0 0 0 0 0 0 0
16 1 0 0 0 0 2 3 2 3 8 6 4 0 0 1
9 22 20 9 17 69 38 10 24 42 40 5 0 5 2 0
0 0 0 0 2 3 3 6 8 4 0 0 0 0 0 0
0 0 3 0 2 79 95 95 85 70 71 85 98 106 106 111
113 114 116 118 124 126 127 130 129 128 125 125 123 121 121 122
122 118 61 39 22 1 0 0 2 1 0 0 0 1 6 3
3 2 0 0 0 0 5 14 27 8 0 0 0 0 0 0
1 1 0 0 0 0 0 0 0 0 0 0 0 0 0 0
0 0 0 0 0 1 7 12 10 6 6 6 7 10 16 19
21 19 16 2 28 60 17 17 37 46 46 19 3 32 32 12
0 2 3 5 11 10 9 3 0 0 0 0 0 1 0 0
0 2 2 0 0 62 93 99 93 79 72 72 83 98 106 110
113 114 116 119 123 126 130 126 125 126 124 123 123 123 124 124
126 119 56 41 12 1 0 0 3 0 2 0 0 0 4 2
3 5 3 1 0 0 22 30 48 27 0 0 0 0 0 0
0 0 0 0 0 1 2 0 0 0 0 0 0 0 0 0
0 0 0 0 0 0 6 9 7 2 2 4 6 10 20 22
16 8 5 0 39 60 8 9 42 51 46 9 22 51 47 28
5 6 7 1 0 0 0 0 0 0 0 0 1 0 0 0
0 3 1 0 0 47 91 98 99 86 77 75 81 93 101 109
114 114 119 121 126 131 128 126 127 126 125 124 124 124 125 126
128 116 53 17 3 3 0 0 2 0 1 0 0 0 3 1
1 6 6 3 0 0 32 56 76 10 0 0 0 0 0 0
0 0 0 0 0 0 0 0 0 0 2 0 0 0 0 0
0 0 0 0 0 0 3 2 1 0 0 0 1 7 18 20
7 0 0 0 48 59 6 11 30 17 38 29 36 29 11 3
0 0 0 0 0 0 0 0 0 1 0 1 1 0 0 0
0 4 1 0 0 34 90 98 102 96 83 81 87 95 105 110
114 116 119 123 128 129 127 127 124 124 124 123 123 125 128 130
131 109 28 0 3 2 0 0 2 0 0 4 1 0 1 1
0 1 0 0 0 0 0 14 1 0 0 0 0 0 0 0
0 0 0 0 0 1 0 0 0 0 4 2 0 0 0 0
0 0 0 0 0 0 0 0 0 0 0 0 1 8 18 18
4 0 0 0 52 61 9 9 12 2 24 18 3 0 0 0
0 0 0 0 0 0 0 0 0 3 3 6 1 0 0 0
0 5 1 1 0 14 82 96 105 106 94 84 86 93 102 108
115 118 124 123 124 124 124 125 124 124 123 123 125 127 130 131
129 66 1 0 5 5 0 0 3 0 0 8 4 0 2 1
0 0 0 0 0 0 0 1 0 0 0 0 0 0 0 0
0 0 0 0 0 1 2 0 0 0 0 0 0 0 0 0
0 0 0 0 0 0 0 0 0 1 4 2 1 11 20 16
6 5 1 0 54 72 25 14 7 4 8 0 0 0 0 0
0 0 1 3 4 5 3 2 0 2 5 1 0 0 0 0
0 3 1 2 0 8 55 90 102 109 104 94 91 95 102 109
116 120 119 118 122 123 126 126 123 122 122 122 124 127 131 127
71 6 0 0 5 5 0 0 3 0 0 1 3 1 0 2
0 0 1 1 0 0 2 3 0 0 0 0 0 0 0 0
0 0 0 0 0 2 1 0 0 0 0 0 0 0 0 0
0 0 0 0 0 0 1 3 0 5 8 6 7 19 25 21
16 19 5 0 44 68 38 20 4 4 0 0 0 0 0 1
4 1 2 3 6 5 4 2 2 5 1 0 0 0 0 0
0 2 0 1 0 9 16 84 96 109 111 99 96 97 103 110
114 115 115 116 121 124 124 124 123 123 121 122 124 126 124 68
9 0 0 0 3 4 0 0 4 0 0 1 3 3 1 2
0 0 3 3 0 0 1 1 0 0 0 0 0 0 1 0
0 0 0 0 0 1 1 0 0 0 0 0 0 0 0 0
0 0 0 0 0 0 10 9 1 6 7 7 21 33 27 24
19 20 6 0 39 61 50 20 3 0 0 0 0 0 2 0
4 3 0 2 6 3 2 2 4 1 0 0 0 0 0 0
0 4 0 0 0 9 1 49 90 102 111 106 98 94 95 99
104 106 110 115 120 124 125 123 123 123 122 123 124 118 70 9
3 0 0 0 4 6 0 0 1 0 0 2 5 3 0 1
0 0 5 4 2 1 0 0 0 0 0 0 0 0 0 2
3 6 1 0 0 0 1 0 0 0 0 0 0 0 0 0
0 0 0 0 0 0 9 11 1 6 6 3 13 28 27 26
26 27 12 0 30 61 51 21 1 0 0 0 0 3 3 1
2 3 0 1 4 0 2 4 1 1 0 0 0 0 0 0
0 3 0 0 0 4 5 6 71 95 109 112 106 98 94 96
99 105 110 115 118 120 123 124 123 122 123 123 116 76 18 1
2 0 0 0 5 4 0 0 2 0 0 2 5 6 0 2
0 0 5 3 0 0 0 0 0 0 0 0 0 0 0 0
0 1 3 5 2 1 0 0 0 0 0 0 0 0 0 0
0 0 0 0 0 0 5 16 9 10 8 2 1 10 24 27
23 17 6 0 5 10 4 8 0 0 0 0 2 3 3 1
0 3 0 0 0 2 5 1 0 0 0 0 0 0 0 0
0 3 0 0 0 1 11 0 19 84 102 110 110 107 100 96
99 104 109 113 118 120 122 124 123 123 122 114 78 29 1 1
1 0 0 0 5 3 0 0 3 0 0 2 5 6 2 2
0 0 3 0 0 0 0 0 0 0 0 0 0 0 0 1
0 0 0 0 5 10 4 0 0 0 0 0 0 0 0 0
8 0 0 0 0 0 3 18 22 12 5 0 0 0 1 1
0 0 0 0 0 0 0 1 0 0 0 0 2 2 3 1
0 2 0 0 1 5 2 3 2 0 0 0 0 0 0 0
0 3 0 0 0 0 11 2 0 35 94 110 114 112 108 104
103 104 108 113 117 119 121 123 124 123 111 77 41 4 0 0
0 0 0 0 9 3 0 0 2 0 0 2 9 7 2 2
0 0 1 0 1 0 0 0 0 0 0 0 1 1 4 7
10 4 0 0 0 0 3 7 1 0 0 0 0 0 0 0
14 2 0 0 0 0 0 0 4 0 0 0 0 0 0 0
0 0 0 0 0 2 1 0 0 0 0 2 0 1 4 1
0 2 0 0 5 5 2 2 1 0 0 0 0 0 0 0
0 4 0 0 0 0 3 15 8 3 48 104 117 116 113 110
107 108 109 113 116 118 120 124 123 109 75 39 6 0 0 0
0 0 0 0 9 1 0 0 2 0 0 1 8 10 3 3
0 0 0 0 0 0 0 0 0 0 0 3 5 6 8 11
14 9 0 0 0 0 0 0 4 3 0 0 0 0 0 0
16 0 4 0 0 0 0 0 0 0 0 0 0 0 0 0
0 0 0 0 0 2 0 0 0 0 0 2 0 1 2 1
0 2 0 4 5 4 2 3 3 0 0 0 0 0 3 0
0 2 0 0 0 0 0 5 20 13 10 56 112 123 120 115
112 111 111 112 115 117 119 121 98 49 15 2 1 0 0 0
0 0 0 2 15 1 0 0 1 0 0 1 7 7 3 1
1 0 0 0 0 0 0 1 0 0 2 5 10 13 13 18
16 7 0 0 0 0 0 0 0 0 2 1 0 0 0 0
5 2 7 0 0 0 0 0 5 0 0 0 0 0 0 0
0 0 0 0 0 0 2 0 0 0 0 2 0 0 1 1
0 0 1 7 4 5 2 7 5 0 0 0 0 1 2 0
0 2 0 0 0 0 0 1 3 12 14 24 66 113 124 121
118 116 114 114 108 92 70 40 11 3 2 1 0 0 0 0
0 0 0 3 20 0 0 0 2 0 0 0 3 8 5 1
1 0 0 0 0 0 1 0 0 0 4 10 13 15 15 19
14 3 0 0 3 1 0 0 0 0 0 6 0 0 0 0
0 0 0 0 0 0 0 0 5 3 0 0 0 0 0 0
0 0 0 0 0 0 0 0 0 0 0 1 0 1 1 1
0 0 5 5 3 1 3 6 3 0 0 0 0 1 0 0
0 2 0 0 0 0 1 0 0 1 4 8 11 20 34 41
41 37 29 17 13 9 7 4 2 1 1 0 0 0 0 0
0 0 0 6 16 0 0 0 1 0 0 0 5 9 5 1
0 0 0 0 0 2 1 0 0 3 9 14 13 15 19 21
13 3 0 0 9 8 0 0 0 0 0 1 5 0 0 0
0 0 0 0 0 0 0 0 0 0 0 0 0 0 0 0
0 0 0 0 0 0 0 0 0 0 0 1 0 1 0 0
0 1 8 2 2 0 8 7 3 0 0 0 1 1 0 0
0 2 0 0 0 1 1 0 0 0 1 5 4 5 6 6
6 7 5 6 5 4 2 2 1 0 1 0 0 0 1 0
0 0 0 14 9 0 0 0 1 0 0 0 11 9 7 0
0 0 0 0 1 2 0 0 2 8 13 16 15 16 20 17
10 0 1 5 12 9 2 0 0 0 0 0 2 0 0 0
0 0 0 0 0 0 0 0 0 0 0 0 0 0 0 0
0 0 0 0 0 0 0 1 0 0 1 0 0 1 2 0
0 6 4 1 0 3 6 8 7 1 0 0 0 0 0 0
0 5 0 0 0 0 3 0 0 0 0 3 4 5 5 5
5 3 3 3 3 3 2 1 1 0 0 0 0 0 3 0
0 0 0 21 3 0 0 0 1 0 0 0 5 6 5 0
0 0 0 1 2 1 0 1 7 11 13 15 16 18 20 16
6 0 1 9 11 8 3 0 0 1 0 0 0 0 0 0
0 0 0 0 0 0 0 0 0 0 0 0 0 0 0 0
0 0 0 0 0 0 0 2 0 0 1 0 0 1 0 0
1 8 0 0 0 2 5 7 9 2 0 0 0 0 0 0
1 9 0 0 0 0 1 0 0 0 0 1 2 2 2 1
2 4 3 1 1 0 0 0 0 0 0 0 0 2 1 0
0 0 0 25 0 1 0 0 1 0 0 0 1 4 2 0
0 0 0 2 2 0 0 4 10 14 14 17 18 22 20 12
6 0 0 7 7 8 1 0 0 6 2 0 3 1 0 4
0 0 0 0 0 0 0 0 0 0 0 0 0 0 0 0
0 0 0 0 0 1 0 1 0 0 1 0 0 1 0 0
6 3 0 0 0 2 5 8 8 2 0 0 0 0 0 0
5 18 0 0 0 0 0 1 0 0 0 0 0 0 2 1
1 1 0 1 0 0 0 0 1 0 0 0 2 0 0 0
0 0 3 24 1 1 0 0 1 0 0 0 1 0 1 0
0 0 0 2 0 0 2 9 12 14 15 17 16 21 13 11
4 0 2 8 6 1 0 0 0 10 0 4 5 0 0 0
0 0 0 0 0 0 0 0 0 0 0 0 0 0 0 3
2 0 0 0 0 0 0 0 0 0 0 0 0 0 0 0
11 0 0 0 0 2 4 8 7 1 0 0 0 0 0 0
13 24 0 0 0 0 0 0 0 1 0 0 0 0 1 1
1 1 0 1 0 1 0 0 0 0 1 2 0 0 0 0
0 0 8 25 2 0 0 0 0 0 0 0 0 0 0 0
0 0 0 0 0 1 6 12 14 14 17 18 19 22 14 11
1 0 3 12 6 0 0 0 1 11 0 1 0 0 0 0
0 0 0 1 0 0 0 0 0 0 0 1 3 2 0 4
5 3 0 0 0 0 0 0 0 1 0 0 0 0 0 2
6 0 0 0 0 1 4 8 4 0 0 0 0 0 0 0
19 19 0 0 0 0 4 0 1 2 2 1 1 0 0 0
0 0 0 1 2 1 1 0 1 2 1 0 0 0 0 0
0 0 19 14 4 0 0 0 1 1 0 0 0 0 0 1
0 0 1 0 0 3 12 13 14 17 18 17 18 19 13 7
0 0 5 9 4 0 0 0 0 12 8 0 1 0 0 0
0 3 0 0 0 0 0 0 0 0 0 3 3 3 0 1
4 6 5 0 0 0 0 0 0 0 0 0 0 0 0 8
1 0 0 0 0 0 4 9 1 0 0 0 0 0 0 0
27 6 0 0 0 0 4 1 0 0 1 4 3 0 1 1
1 2 1 1 3 5 4 2 2 2 1 0 0 0 0 0
0 0 27 8 1 0 0 0 0 0 0 0 0 0 0 2
0 0 0 0 1 7 13 15 16 18 17 15 18 20 12 6
0 0 6 9 2 0 0 0 1 8 12 0 0 0 0 0
0 18 1 0 0 0 0 0 0 0 0 1 4 2 1 0
0 5 4 0 0 0 1 0 0 0 0 0 0 0 0 8
0 0 0 0 0 0 4 6 0 0 0 0 0 1 0 12
25 0 0 0 0 0 3 3 0 0 0 0 2 3 3 3
4 5 6 6 4 4 4 7 3 1 0 0 0 0 0 0
0 0 19 8 0 0 0 0 0 1 0 0 0 0 0 2
0 0 0 0 3 9 15 16 17 17 18 17 18 13 10 2
0 1 7 14 3 0 0 0 3 8 15 1 0 1 0 0
0 16 2 0 0 0 0 0 0 0 0 0 5 4 5 3
1 1 1 0 0 0 2 0 0 0 0 0 0 0 0 6
0 0 0 0 0 0 5 5 1 0 0 0 0 2 0 34
10 6 0 0 0 0 3 6 2 0 0 0 1 4 5 5
4 5 6 5 6 6 6 1 1 0 0 0 0 1 0 0
0 3 10 3 0 1 0 0 0 2 0 0 0 0 0 1
0 1 0 0 5 12 19 15 19 18 21 18 15 13 9 1
0 1 9 8 1 0 0 1 5 10 14 4 0 0 0 0
0 6 0 0 0 0 0 0 0 0 0 0 3 3 5 7
5 0 0 0 0 1 2 0 0 0 0 0 0 0 0 1
0 0 0 0 0 4 6 5 5 3 2 1 0 1 0 30
6 19 0 0 0 0 1 6 6 3 0 0 0 1 0 0
0 1 2 3 5 8 7 1 0 0 0 0 1 0 0 0
0 0 4 0 0 2 0 0 3 6 1 0 0 0 0 3
1 2 1 0 8 18 19 18 19 23 22 17 15 12 7 0
0 1 9 7 0 0 0 5 1 12 30 8 0 0 0 0
6 4 0 0 0 0 0 0 0 0 0 0 2 4 5 7
9 3 0 0 0 1 3 0 0 0 0 0 0 0 1 0
0 0 0 0 0 1 4 3 1 1 0 1 0 0 4 22
25 5 5 0 0 0 0 5 5 5 3 1 0 2 3 2
2 0 0 2 4 3 3 0 0 0 0 0 2 0 0 0
0 0 0 0 2 6 0 0 4 6 2 0 0 0 3 12
3 8 10 0 8 24 20 17 19 23 21 20 17 15 6 0
0 4 12 10 2 0 0 7 1 9 24 18 0 4 0 0
